tick,type,time,meta,track,numerator,denominator,clocks_per_click,notated_32nd_notes_per_beat,key,tempo,program,channel,control,value,note,velocity
0,control_change,0,0,1,,,,,,,,0,7,127,,
0,track_name,0,1,2,,,,,,,,,,,,
0,track_name,0,1,1,,,,,,,,,,,,
0,track_name,0,1,0,,,,,,,,,,,,
0,time_signature,0,1,0,2,4,24,8,,,,,,,,
0,set_tempo,0,1,0,,,,,,750000,,,,,,
0,program_change,0,0,4,,,,,,,0,0,,,,
0,program_change,0,0,3,,,,,,,0,0,,,,
0,program_change,0,0,2,,,,,,,0,0,,,,
0,program_change,0,0,1,,,,,,,0,0,,,,
0,track_name,0,1,3,,,,,,,,,,,,
0,key_signature,0,1,0,,,,,C,,,,,,,
0,track_name,0,1,4,,,,,,,,,,,,
0,control_change,0,0,3,,,,,,,,0,10,63,,
0,control_change,0,0,1,,,,,,,,0,10,63,,
0,control_change,0,0,4,,,,,,,,0,10,63,,
0,control_change,0,0,2,,,,,,,,0,7,127,,
0,control_change,0,0,3,,,,,,,,0,7,127,,
0,control_change,0,0,4,,,,,,,,0,7,127,,
0,control_change,0,0,2,,,,,,,,0,10,63,,
120,note_on,120,0,1,,,,,,,,0,,,65,68
144,note_on,24,0,1,,,,,,,,0,,,65,0
150,note_on,6,0,1,,,,,,,,0,,,66,68
174,note_on,24,0,1,,,,,,,,0,,,66,0
180,note_on,6,0,1,,,,,,,,0,,,65,68
204,note_on,24,0,1,,,,,,,,0,,,65,0
210,note_on,6,0,1,,,,,,,,0,,,67,68
234,note_on,24,0,1,,,,,,,,0,,,67,0
240,note_on,6,0,1,,,,,,,,0,,,68,68
244,control_change,244,0,4,,,,,,,,0,64,127,,
264,note_on,24,0,1,,,,,,,,0,,,68,0
270,note_on,6,0,1,,,,,,,,0,,,69,68
294,note_on,24,0,1,,,,,,,,0,,,69,0
300,note_on,6,0,1,,,,,,,,0,,,68,68
324,note_on,24,0,1,,,,,,,,0,,,68,0
330,note_on,6,0,1,,,,,,,,0,,,70,68
354,note_on,24,0,1,,,,,,,,0,,,70,0
360,note_on,6,0,1,,,,,,,,0,,,71,68
384,note_on,24,0,1,,,,,,,,0,,,71,0
390,note_on,6,0,1,,,,,,,,0,,,72,68
414,note_on,24,0,1,,,,,,,,0,,,72,0
420,note_on,6,0,1,,,,,,,,0,,,71,68
444,note_on,24,0,1,,,,,,,,0,,,71,0
450,note_on,6,0,1,,,,,,,,0,,,73,68
474,note_on,24,0,1,,,,,,,,0,,,73,0
480,note_on,6,0,1,,,,,,,,0,,,74,68
504,note_on,24,0,1,,,,,,,,0,,,74,0
510,note_on,6,0,1,,,,,,,,0,,,75,68
534,note_on,24,0,1,,,,,,,,0,,,75,0
540,note_on,6,0,1,,,,,,,,0,,,74,68
564,note_on,24,0,1,,,,,,,,0,,,74,0
570,note_on,6,0,1,,,,,,,,0,,,76,68
594,note_on,24,0,1,,,,,,,,0,,,76,0
600,note_on,6,0,1,,,,,,,,0,,,77,68
624,note_on,24,0,1,,,,,,,,0,,,77,0
630,note_on,6,0,1,,,,,,,,0,,,78,68
654,note_on,24,0,1,,,,,,,,0,,,78,0
660,note_on,416,0,4,,,,,,,,0,,,53,61
660,note_on,6,0,1,,,,,,,,0,,,77,68
680,note_on,20,0,4,,,,,,,,0,,,59,61
684,note_on,24,0,1,,,,,,,,0,,,77,0
690,note_on,6,0,1,,,,,,,,0,,,79,68
700,note_on,20,0,4,,,,,,,,0,,,62,61
714,note_on,24,0,1,,,,,,,,0,,,79,0
720,control_change,0,0,4,,,,,,,,0,64,0,,
720,note_on,6,0,1,,,,,,,,0,,,80,68
720,note_on,20,0,4,,,,,,,,0,,,68,61
736,control_change,16,0,4,,,,,,,,0,64,127,,
744,note_on,24,0,1,,,,,,,,0,,,80,0
750,note_on,6,0,1,,,,,,,,0,,,81,68
774,note_on,24,0,1,,,,,,,,0,,,81,0
780,note_on,6,0,1,,,,,,,,0,,,80,68
804,note_on,24,0,1,,,,,,,,0,,,80,0
810,note_on,6,0,1,,,,,,,,0,,,82,68
834,note_on,24,0,1,,,,,,,,0,,,82,0
840,note_on,6,0,1,,,,,,,,0,,,83,68
864,note_on,24,0,1,,,,,,,,0,,,83,0
870,note_on,6,0,1,,,,,,,,0,,,84,68
894,note_on,24,0,1,,,,,,,,0,,,84,0
900,note_on,900,0,3,,,,,,,,0,,,53,61
900,note_on,6,0,1,,,,,,,,0,,,83,68
900,note_on,164,0,4,,,,,,,,0,,,53,0
904,note_on,4,0,4,,,,,,,,0,,,59,0
908,note_on,4,0,4,,,,,,,,0,,,62,0
920,note_on,20,0,3,,,,,,,,0,,,60,61
924,note_on,24,0,1,,,,,,,,0,,,83,0
930,note_on,6,0,1,,,,,,,,0,,,86,68
940,note_on,20,0,3,,,,,,,,0,,,63,61
954,note_on,24,0,1,,,,,,,,0,,,86,0
960,control_change,52,0,4,,,,,,,,0,64,0,,
960,note_on,6,0,1,,,,,,,,0,,,84,65
972,control_change,12,0,4,,,,,,,,0,64,127,,
984,note_on,24,0,1,,,,,,,,0,,,84,0
990,note_on,6,0,1,,,,,,,,0,,,85,66
1008,note_on,36,0,4,,,,,,,,0,,,68,0
1014,note_on,24,0,1,,,,,,,,0,,,85,0
1020,note_on,6,0,1,,,,,,,,0,,,84,67
1044,note_on,24,0,1,,,,,,,,0,,,84,0
1050,note_on,6,0,1,,,,,,,,0,,,86,68
1074,note_on,24,0,1,,,,,,,,0,,,86,0
1080,note_on,6,0,1,,,,,,,,0,,,87,69
1080,note_on,72,0,4,,,,,,,,0,,,67,61
1104,note_on,24,0,1,,,,,,,,0,,,87,0
1110,note_on,6,0,1,,,,,,,,0,,,89,70
1134,note_on,24,0,1,,,,,,,,0,,,89,0
1140,note_on,6,0,1,,,,,,,,0,,,87,71
1164,note_on,24,0,1,,,,,,,,0,,,87,0
1170,note_on,6,0,1,,,,,,,,0,,,90,72
1176,note_on,96,0,4,,,,,,,,0,,,67,0
1194,note_on,24,0,1,,,,,,,,0,,,90,0
1200,note_on,6,0,1,,,,,,,,0,,,91,73
1200,note_on,24,0,4,,,,,,,,0,,,63,61
1224,note_on,24,0,1,,,,,,,,0,,,91,0
1230,note_on,6,0,1,,,,,,,,0,,,92,74
1254,note_on,24,0,1,,,,,,,,0,,,92,0
1260,note_on,6,0,1,,,,,,,,0,,,91,75
1284,note_on,24,0,1,,,,,,,,0,,,91,0
1290,note_on,6,0,1,,,,,,,,0,,,95,76
1296,note_on,96,0,4,,,,,,,,0,,,63,0
1314,note_on,24,0,1,,,,,,,,0,,,95,0
1320,note_on,6,0,1,,,,,,,,0,,,96,77
1320,note_on,24,0,4,,,,,,,,0,,,60,61
1332,note_on,392,0,3,,,,,,,,0,,,53,0
1336,note_on,4,0,3,,,,,,,,0,,,60,0
1340,note_on,4,0,3,,,,,,,,0,,,63,0
1344,note_on,24,0,1,,,,,,,,0,,,96,0
1350,note_on,6,0,1,,,,,,,,0,,,97,78
1374,note_on,24,0,1,,,,,,,,0,,,97,0
1380,note_on,6,0,1,,,,,,,,0,,,96,79
1404,note_on,24,0,1,,,,,,,,0,,,96,0
1410,note_on,6,0,1,,,,,,,,0,,,98,80
1416,note_on,96,0,4,,,,,,,,0,,,60,0
1434,note_on,24,0,1,,,,,,,,0,,,98,0
1440,note_on,6,0,1,,,,,,,,0,,,99,80
1452,control_change,36,0,4,,,,,,,,0,64,0,,
1458,control_change,6,0,4,,,,,,,,0,64,127,,
1464,note_on,24,0,1,,,,,,,,0,,,99,0
1470,note_on,6,0,1,,,,,,,,0,,,98,80
1494,note_on,24,0,1,,,,,,,,0,,,98,0
1500,note_on,6,0,1,,,,,,,,0,,,99,80
1524,note_on,24,0,1,,,,,,,,0,,,99,0
1530,note_on,6,0,1,,,,,,,,0,,,97,78
1554,note_on,24,0,1,,,,,,,,0,,,97,0
1560,note_on,6,0,1,,,,,,,,0,,,96,77
1584,note_on,24,0,1,,,,,,,,0,,,96,0
1590,note_on,6,0,1,,,,,,,,0,,,95,76
1614,note_on,24,0,1,,,,,,,,0,,,95,0
1620,note_on,6,0,1,,,,,,,,0,,,96,76
1644,note_on,24,0,1,,,,,,,,0,,,96,0
1650,note_on,6,0,1,,,,,,,,0,,,94,75
1674,note_on,24,0,1,,,,,,,,0,,,94,0
1680,note_on,6,0,1,,,,,,,,0,,,93,74
1704,note_on,24,0,1,,,,,,,,0,,,93,0
1710,note_on,6,0,1,,,,,,,,0,,,92,73
1734,note_on,24,0,1,,,,,,,,0,,,92,0
1740,note_on,6,0,1,,,,,,,,0,,,93,72
1742,control_change,284,0,4,,,,,,,,0,64,0,,
1764,note_on,24,0,1,,,,,,,,0,,,93,0
1770,note_on,6,0,1,,,,,,,,0,,,91,72
1794,note_on,24,0,1,,,,,,,,0,,,91,0
1800,note_on,6,0,1,,,,,,,,0,,,90,71
1824,note_on,24,0,1,,,,,,,,0,,,90,0
1830,note_on,6,0,1,,,,,,,,0,,,89,70
1854,note_on,24,0,1,,,,,,,,0,,,89,0
1860,note_on,6,0,1,,,,,,,,0,,,90,69
1884,note_on,24,0,1,,,,,,,,0,,,90,0
1890,note_on,6,0,1,,,,,,,,0,,,88,68
1914,note_on,24,0,1,,,,,,,,0,,,88,0
1920,note_on,6,0,1,,,,,,,,0,,,87,68
1944,note_on,24,0,1,,,,,,,,0,,,87,0
1950,note_on,6,0,1,,,,,,,,0,,,86,68
1974,note_on,24,0,1,,,,,,,,0,,,86,0
1980,note_on,6,0,1,,,,,,,,0,,,87,68
2004,note_on,24,0,1,,,,,,,,0,,,87,0
2010,note_on,6,0,1,,,,,,,,0,,,85,68
2034,note_on,24,0,1,,,,,,,,0,,,85,0
2040,note_on,6,0,1,,,,,,,,0,,,84,68
2064,note_on,24,0,1,,,,,,,,0,,,84,0
2070,note_on,6,0,1,,,,,,,,0,,,83,68
2094,note_on,24,0,1,,,,,,,,0,,,83,0
2100,note_on,6,0,1,,,,,,,,0,,,84,68
2100,note_on,358,0,4,,,,,,,,0,,,53,61
2115,note_on,15,0,4,,,,,,,,0,,,57,61
2124,note_on,24,0,1,,,,,,,,0,,,84,0
2130,note_on,6,0,1,,,,,,,,0,,,82,68
2130,note_on,15,0,4,,,,,,,,0,,,60,61
2145,note_on,15,0,4,,,,,,,,0,,,63,61
2154,note_on,24,0,1,,,,,,,,0,,,82,0
2155,control_change,10,0,4,,,,,,,,0,64,127,,
2160,note_on,5,0,4,,,,,,,,0,,,66,61
2160,note_on,6,0,1,,,,,,,,0,,,81,68
2184,note_on,24,0,1,,,,,,,,0,,,81,0
2190,note_on,6,0,1,,,,,,,,0,,,80,68
2214,note_on,24,0,1,,,,,,,,0,,,80,0
2220,note_on,6,0,1,,,,,,,,0,,,81,68
2244,note_on,24,0,1,,,,,,,,0,,,81,0
2250,note_on,6,0,1,,,,,,,,0,,,79,68
2274,note_on,24,0,1,,,,,,,,0,,,79,0
2280,note_on,6,0,1,,,,,,,,0,,,78,68
2304,note_on,24,0,1,,,,,,,,0,,,78,0
2310,note_on,6,0,1,,,,,,,,0,,,77,68
2334,note_on,24,0,1,,,,,,,,0,,,77,0
2340,note_on,180,0,4,,,,,,,,0,,,53,0
2340,note_on,6,0,1,,,,,,,,0,,,78,68
2343,note_on,3,0,4,,,,,,,,0,,,57,0
2346,note_on,3,0,4,,,,,,,,0,,,60,0
2349,note_on,3,0,4,,,,,,,,0,,,63,0
2364,note_on,24,0,1,,,,,,,,0,,,78,0
2370,note_on,1030,0,3,,,,,,,,0,,,53,61
2370,note_on,6,0,1,,,,,,,,0,,,75,68
2380,note_on,10,0,3,,,,,,,,0,,,58,61
2390,note_on,10,0,3,,,,,,,,0,,,62,61
2394,note_on,24,0,1,,,,,,,,0,,,75,0
2400,set_tempo,2400,1,0,,,,,,734394,,,,,,
2400,note_on,6,0,1,,,,,,,,0,,,74,68
2400,control_change,51,0,4,,,,,,,,0,64,0,,
2419,control_change,19,0,4,,,,,,,,0,64,127,,
2424,note_on,24,0,1,,,,,,,,0,,,74,0
2426,set_tempo,26,1,0,,,,,,743402,,,,,,
2430,note_on,6,0,1,,,,,,,,0,,,73,68
2448,set_tempo,22,1,0,,,,,,752634,,,,,,
2448,note_on,29,0,4,,,,,,,,0,,,66,0
2454,note_on,24,0,1,,,,,,,,0,,,73,0
2460,note_on,6,0,1,,,,,,,,0,,,74,68
2469,set_tempo,21,1,0,,,,,,762098,,,,,,
2484,note_on,24,0,1,,,,,,,,0,,,74,0
2490,note_on,6,0,1,,,,,,,,0,,,72,68
2496,set_tempo,27,1,0,,,,,,771803,,,,,,
2514,note_on,24,0,1,,,,,,,,0,,,72,0
2517,set_tempo,21,1,0,,,,,,781759,,,,,,
2520,note_on,72,0,4,,,,,,,,0,,,65,61
2520,note_on,6,0,1,,,,,,,,0,,,70,68
2539,set_tempo,22,1,0,,,,,,791975,,,,,,
2544,note_on,24,0,1,,,,,,,,0,,,70,0
2550,note_on,6,0,1,,,,,,,,0,,,69,68
2561,set_tempo,22,1,0,,,,,,802461,,,,,,
2574,note_on,24,0,1,,,,,,,,0,,,69,0
2580,note_on,6,0,1,,,,,,,,0,,,70,68
2586,note_on,196,0,3,,,,,,,,0,,,53,0
2587,set_tempo,26,1,0,,,,,,813229,,,,,,
2588,note_on,2,0,3,,,,,,,,0,,,58,0
2590,note_on,2,0,3,,,,,,,,0,,,62,0
2604,note_on,24,0,1,,,,,,,,0,,,70,0
2609,set_tempo,22,1,0,,,,,,824289,,,,,,
2610,note_on,6,0,1,,,,,,,,0,,,68,68
2616,note_on,96,0,4,,,,,,,,0,,,65,0
2631,set_tempo,22,1,0,,,,,,835655,,,,,,
2634,note_on,24,0,1,,,,,,,,0,,,68,0
2640,note_on,6,0,1,,,,,,,,0,,,67,68
2640,note_on,24,0,4,,,,,,,,0,,,61,61
2657,set_tempo,26,1,0,,,,,,847338,,,,,,
2664,note_on,24,0,1,,,,,,,,0,,,67,0
2670,note_on,6,0,1,,,,,,,,0,,,66,68
2679,set_tempo,22,1,0,,,,,,859353,,,,,,
2694,note_on,24,0,1,,,,,,,,0,,,66,0
2700,note_on,6,0,1,,,,,,,,0,,,67,68
2701,set_tempo,22,1,0,,,,,,871713,,,,,,
2722,set_tempo,21,1,0,,,,,,884434,,,,,,
2724,note_on,24,0,1,,,,,,,,0,,,67,0
2730,note_on,6,0,1,,,,,,,,0,,,65,68
2736,note_on,96,0,4,,,,,,,,0,,,61,0
2749,set_tempo,27,1,0,,,,,,897532,,,,,,
2754,note_on,24,0,1,,,,,,,,0,,,65,0
2760,note_on,24,0,4,,,,,,,,0,,,58,61
2760,note_on,6,0,1,,,,,,,,0,,,73,68
2770,set_tempo,21,1,0,,,,,,911023,,,,,,
2784,note_on,24,0,1,,,,,,,,0,,,73,0
2790,note_on,6,0,1,,,,,,,,0,,,70,68
2792,set_tempo,22,1,0,,,,,,924927,,,,,,
2814,note_on,24,0,1,,,,,,,,0,,,70,0
2818,set_tempo,26,1,0,,,,,,939261,,,,,,
2820,note_on,6,0,1,,,,,,,,0,,,67,68
2840,set_tempo,22,1,0,,,,,,954047,,,,,,
2844,note_on,24,0,1,,,,,,,,0,,,67,0
2850,note_on,6,0,1,,,,,,,,0,,,65,68
2856,note_on,96,0,4,,,,,,,,0,,,58,0
2862,set_tempo,22,1,0,,,,,,969305,,,,,,
2874,note_on,24,0,1,,,,,,,,0,,,65,0
2880,control_change,24,0,4,,,,,,,,0,64,0,,
2880,set_tempo,18,1,0,,,,,,985060,,,,,,
2880,note_on,0,0,4,,,,,,,,0,,,53,61
2880,note_on,2880,0,2,,,,,,,,0,,,64,68
2880,note_on,0,0,4,,,,,,,,0,,,61,61
2880,note_on,0,0,4,,,,,,,,0,,,58,61
2880,note_on,0,0,4,,,,,,,,0,,,55,61
2884,set_tempo,4,1,0,,,,,,969305,,,,,,
2976,note_on,96,0,2,,,,,,,,0,,,64,0
2976,note_on,0,0,4,,,,,,,,0,,,58,0
2976,note_on,96,0,4,,,,,,,,0,,,61,0
2976,note_on,0,0,4,,,,,,,,0,,,55,0
2976,note_on,0,0,4,,,,,,,,0,,,53,0
2997,set_tempo,113,1,0,,,,,,985060,,,,,,
3106,set_tempo,109,1,0,,,,,,1001335,,,,,,
3111,set_tempo,5,1,0,,,,,,1573152,,,,,,
3115,set_tempo,4,1,0,,,,,,1459499,,,,,,
3120,set_tempo,5,1,0,,,,,,1459499,,,,,,
3120,control_change,144,0,4,,,,,,,,0,64,127,,
3120,note_on,0,0,1,,,,,,,,0,,,97,80
3120,note_on,246,0,1,,,,,,,,0,,,88,80
3128,set_tempo,8,1,0,,,,,,1425178,,,,,,
3133,set_tempo,5,1,0,,,,,,1392434,,,,,,
3141,set_tempo,8,1,0,,,,,,1361162,,,,,,
3144,note_on,0,0,1,,,,,,,,0,,,88,0
3144,note_on,24,0,1,,,,,,,,0,,,97,0
3146,set_tempo,5,1,0,,,,,,1331262,,,,,,
3150,set_tempo,4,1,0,,,,,,1302649,,,,,,
3150,note_on,6,0,1,,,,,,,,0,,,91,80
3150,note_on,0,0,1,,,,,,,,0,,,94,80
3159,set_tempo,9,1,0,,,,,,1275239,,,,,,
3163,set_tempo,4,1,0,,,,,,1248959,,,,,,
3168,set_tempo,5,1,0,,,,,,1223741,,,,,,
3174,note_on,0,0,1,,,,,,,,0,,,91,0
3174,note_on,24,0,1,,,,,,,,0,,,94,0
3176,set_tempo,8,1,0,,,,,,1199520,,,,,,
3180,note_on,6,0,1,,,,,,,,0,,,81,80
3180,note_on,0,0,1,,,,,,,,0,,,90,80
3181,set_tempo,5,1,0,,,,,,1176240,,,,,,
3185,set_tempo,4,1,0,,,,,,1153846,,,,,,
3194,set_tempo,9,1,0,,,,,,1132289,,,,,,
3198,set_tempo,4,1,0,,,,,,1111523,,,,,,
3204,note_on,0,0,1,,,,,,,,0,,,81,0
3204,note_on,24,0,1,,,,,,,,0,,,90,0
3207,set_tempo,9,1,0,,,,,,1091504,,,,,,
3210,note_on,6,0,1,,,,,,,,0,,,84,80
3210,note_on,0,0,1,,,,,,,,0,,,87,80
3211,set_tempo,4,1,0,,,,,,1072194,,,,,,
3216,set_tempo,5,1,0,,,,,,1053556,,,,,,
3224,set_tempo,8,1,0,,,,,,1035554,,,,,,
3229,set_tempo,5,1,0,,,,,,1018157,,,,,,
3233,set_tempo,4,1,0,,,,,,1001335,,,,,,
3234,note_on,0,0,1,,,,,,,,0,,,84,0
3234,note_on,24,0,1,,,,,,,,0,,,87,0
3240,note_on,6,0,1,,,,,,,,0,,,82,80
3240,note_on,0,0,1,,,,,,,,0,,,91,80
3242,set_tempo,9,1,0,,,,,,985060,,,,,,
3246,set_tempo,4,1,0,,,,,,969305,,,,,,
3250,set_tempo,4,1,0,,,,,,954047,,,,,,
3259,set_tempo,9,1,0,,,,,,939261,,,,,,
3264,note_on,0,0,1,,,,,,,,0,,,82,0
3264,set_tempo,5,1,0,,,,,,924927,,,,,,
3264,note_on,24,0,1,,,,,,,,0,,,91,0
3268,set_tempo,4,1,0,,,,,,911023,,,,,,
3270,note_on,0,0,1,,,,,,,,0,,,88,80
3270,note_on,6,0,1,,,,,,,,0,,,85,80
3277,set_tempo,9,1,0,,,,,,897532,,,,,,
3281,set_tempo,4,1,0,,,,,,884434,,,,,,
3290,set_tempo,9,1,0,,,,,,871713,,,,,,
3294,note_on,0,0,1,,,,,,,,0,,,85,0
3294,note_on,24,0,1,,,,,,,,0,,,88,0
3294,set_tempo,4,1,0,,,,,,859353,,,,,,
3298,set_tempo,4,1,0,,,,,,847338,,,,,,
3300,note_on,0,0,1,,,,,,,,0,,,84,80
3300,note_on,6,0,1,,,,,,,,0,,,75,80
3307,set_tempo,9,1,0,,,,,,835655,,,,,,
3312,set_tempo,5,1,0,,,,,,824289,,,,,,
3316,set_tempo,4,1,0,,,,,,813229,,,,,,
3324,note_on,24,0,1,,,,,,,,0,,,84,0
3324,note_on,0,0,1,,,,,,,,0,,,75,0
3325,set_tempo,9,1,0,,,,,,802461,,,,,,
3329,set_tempo,4,1,0,,,,,,791975,,,,,,
3330,note_on,6,0,1,,,,,,,,0,,,78,80
3330,note_on,0,0,1,,,,,,,,0,,,81,80
3333,set_tempo,4,1,0,,,,,,781759,,,,,,
3342,set_tempo,9,1,0,,,,,,771803,,,,,,
3346,set_tempo,4,1,0,,,,,,762098,,,,,,
3351,set_tempo,5,1,0,,,,,,752634,,,,,,
3354,note_on,0,0,1,,,,,,,,0,,,78,0
3354,note_on,24,0,1,,,,,,,,0,,,81,0
3355,set_tempo,4,1,0,,,,,,897532,,,,,,
3360,set_tempo,5,1,0,,,,,,771803,,,,,,
3360,note_on,6,0,1,,,,,,,,0,,,76,80
3360,note_on,0,0,1,,,,,,,,0,,,85,80
3364,set_tempo,4,1,0,,,,,,762098,,,,,,
3384,note_on,0,0,1,,,,,,,,0,,,76,0
3384,note_on,24,0,1,,,,,,,,0,,,85,0
3390,note_on,6,0,1,,,,,,,,0,,,82,80
3390,note_on,0,0,1,,,,,,,,0,,,79,80
3414,note_on,24,0,1,,,,,,,,0,,,79,0
3414,note_on,0,0,1,,,,,,,,0,,,82,0
3420,note_on,0,0,1,,,,,,,,0,,,78,80
3420,note_on,6,0,1,,,,,,,,0,,,69,80
3444,note_on,0,0,1,,,,,,,,0,,,69,0
3444,note_on,24,0,1,,,,,,,,0,,,78,0
3450,note_on,6,0,1,,,,,,,,0,,,75,80
3450,note_on,0,0,1,,,,,,,,0,,,72,80
3474,note_on,24,0,1,,,,,,,,0,,,72,0
3474,note_on,0,0,1,,,,,,,,0,,,75,0
3480,note_on,0,0,1,,,,,,,,0,,,79,80
3480,note_on,6,0,1,,,,,,,,0,,,70,80
3504,note_on,24,0,1,,,,,,,,0,,,79,0
3504,note_on,0,0,1,,,,,,,,0,,,70,0
3510,note_on,0,0,1,,,,,,,,0,,,73,80
3510,note_on,6,0,1,,,,,,,,0,,,76,80
3534,note_on,0,0,1,,,,,,,,0,,,76,0
3534,note_on,24,0,1,,,,,,,,0,,,73,0
3540,note_on,0,0,1,,,,,,,,0,,,72,80
3540,note_on,6,0,1,,,,,,,,0,,,63,80
3564,note_on,24,0,1,,,,,,,,0,,,72,0
3564,note_on,0,0,1,,,,,,,,0,,,63,0
3570,note_on,0,0,1,,,,,,,,0,,,66,80
3570,note_on,6,0,1,,,,,,,,0,,,69,80
3594,note_on,24,0,1,,,,,,,,0,,,66,0
3594,note_on,0,0,1,,,,,,,,0,,,69,0
3600,note_on,0,0,1,,,,,,,,0,,,64,80
3600,note_on,6,0,1,,,,,,,,0,,,73,80
3600,control_change,480,0,4,,,,,,,,0,64,0,,
3624,note_on,0,0,1,,,,,,,,0,,,73,0
3624,note_on,24,0,1,,,,,,,,0,,,64,0
3630,note_on,6,0,1,,,,,,,,0,,,70,80
3630,note_on,0,0,1,,,,,,,,0,,,67,80
3654,note_on,0,0,1,,,,,,,,0,,,70,0
3654,note_on,24,0,1,,,,,,,,0,,,67,0
3660,note_on,6,0,1,,,,,,,,0,,,66,80
3660,note_on,0,0,1,,,,,,,,0,,,57,80
3684,note_on,24,0,1,,,,,,,,0,,,57,0
3684,note_on,0,0,1,,,,,,,,0,,,66,0
3690,note_on,0,0,1,,,,,,,,0,,,60,80
3690,note_on,6,0,1,,,,,,,,0,,,63,80
3714,note_on,0,0,1,,,,,,,,0,,,63,0
3714,note_on,24,0,1,,,,,,,,0,,,60,0
3720,note_on,0,0,1,,,,,,,,0,,,58,68
3720,note_on,0,0,1,,,,,,,,0,,,64,68
3720,note_on,0,0,1,,,,,,,,0,,,67,68
3720,note_on,6,0,1,,,,,,,,0,,,55,68
3816,note_on,0,0,1,,,,,,,,0,,,55,0
3816,note_on,0,0,1,,,,,,,,0,,,58,0
3816,note_on,96,0,1,,,,,,,,0,,,64,0
3816,note_on,0,0,1,,,,,,,,0,,,67,0
3840,note_on,240,0,4,,,,,,,,0,,,41,80
3888,note_on,48,0,4,,,,,,,,0,,,41,0
3897,control_change,9,0,4,,,,,,,,0,64,127,,
3900,note_on,0,0,4,,,,,,,,0,,,61,57
3900,note_on,0,0,1,,,,,,,,0,,,76,57
3900,note_on,0,0,1,,,,,,,,0,,,73,57
3900,note_on,0,0,4,,,,,,,,0,,,67,57
3900,note_on,0,0,4,,,,,,,,0,,,53,57
3900,note_on,84,0,1,,,,,,,,0,,,85,80
3900,note_on,3,0,4,,,,,,,,0,,,58,57
3948,note_on,0,0,4,,,,,,,,0,,,61,0
3948,note_on,0,0,1,,,,,,,,0,,,85,0
3948,note_on,0,0,1,,,,,,,,0,,,73,0
3948,note_on,48,0,1,,,,,,,,0,,,76,0
3948,note_on,0,0,4,,,,,,,,0,,,67,0
3948,note_on,48,0,4,,,,,,,,0,,,53,0
3948,note_on,0,0,4,,,,,,,,0,,,58,0
3960,note_on,0,0,4,,,,,,,,0,,,67,57
3960,note_on,0,0,4,,,,,,,,0,,,53,57
3960,note_on,12,0,4,,,,,,,,0,,,61,57
3960,note_on,0,0,4,,,,,,,,0,,,58,57
3960,note_on,12,0,1,,,,,,,,0,,,84,80
3960,note_on,0,0,1,,,,,,,,0,,,73,57
3960,note_on,0,0,1,,,,,,,,0,,,76,57
4008,note_on,0,0,4,,,,,,,,0,,,53,0
4008,note_on,0,0,4,,,,,,,,0,,,61,0
4008,note_on,0,0,4,,,,,,,,0,,,67,0
4008,note_on,0,0,1,,,,,,,,0,,,84,0
4008,note_on,48,0,1,,,,,,,,0,,,73,0
4008,note_on,48,0,4,,,,,,,,0,,,58,0
4008,note_on,0,0,1,,,,,,,,0,,,76,0
4020,note_on,0,0,4,,,,,,,,0,,,53,57
4020,note_on,0,0,1,,,,,,,,0,,,73,57
4020,note_on,0,0,1,,,,,,,,0,,,83,80
4020,note_on,12,0,4,,,,,,,,0,,,61,57
4020,note_on,0,0,4,,,,,,,,0,,,67,57
4020,note_on,12,0,1,,,,,,,,0,,,76,57
4020,note_on,0,0,4,,,,,,,,0,,,58,57
4068,note_on,0,0,1,,,,,,,,0,,,73,0
4068,note_on,0,0,1,,,,,,,,0,,,76,0
4068,note_on,0,0,4,,,,,,,,0,,,61,0
4068,note_on,0,0,4,,,,,,,,0,,,58,0
4068,note_on,48,0,4,,,,,,,,0,,,53,0
4068,note_on,48,0,1,,,,,,,,0,,,83,0
4068,note_on,0,0,4,,,,,,,,0,,,67,0
4080,note_on,0,0,1,,,,,,,,0,,,82,80
4080,note_on,0,0,1,,,,,,,,0,,,76,57
4080,note_on,0,0,4,,,,,,,,0,,,67,57
4080,note_on,12,0,1,,,,,,,,0,,,73,57
4080,note_on,0,0,4,,,,,,,,0,,,58,57
4080,note_on,12,0,4,,,,,,,,0,,,61,57
4080,note_on,0,0,4,,,,,,,,0,,,53,57
4128,note_on,0,0,4,,,,,,,,0,,,61,0
4128,note_on,0,0,4,,,,,,,,0,,,58,0
4128,note_on,48,0,1,,,,,,,,0,,,76,0
4128,note_on,48,0,4,,,,,,,,0,,,53,0
4128,note_on,0,0,4,,,,,,,,0,,,67,0
4128,note_on,0,0,1,,,,,,,,0,,,73,0
4128,note_on,0,0,1,,,,,,,,0,,,82,0
4140,note_on,0,0,1,,,,,,,,0,,,76,57
4140,note_on,0,0,1,,,,,,,,0,,,85,80
4140,note_on,0,0,4,,,,,,,,0,,,67,57
4140,note_on,0,0,4,,,,,,,,0,,,58,57
4140,note_on,12,0,4,,,,,,,,0,,,53,57
4140,note_on,12,0,1,,,,,,,,0,,,73,57
4140,note_on,0,0,4,,,,,,,,0,,,61,57
4188,note_on,0,0,1,,,,,,,,0,,,73,0
4188,note_on,0,0,1,,,,,,,,0,,,85,0
4188,note_on,48,0,4,,,,,,,,0,,,58,0
4188,note_on,0,0,4,,,,,,,,0,,,67,0
4188,note_on,0,0,4,,,,,,,,0,,,61,0
4188,note_on,0,0,4,,,,,,,,0,,,53,0
4188,note_on,48,0,1,,,,,,,,0,,,76,0
4200,note_on,0,0,4,,,,,,,,0,,,53,57
4200,note_on,0,0,4,,,,,,,,0,,,61,57
4200,note_on,12,0,1,,,,,,,,0,,,84,80
4200,note_on,0,0,4,,,,,,,,0,,,67,57
4200,note_on,12,0,4,,,,,,,,0,,,58,57
4200,note_on,0,0,1,,,,,,,,0,,,76,57
4200,note_on,0,0,1,,,,,,,,0,,,73,57
4224,note_on,0,0,4,,,,,,,,0,,,61,0
4224,note_on,0,0,4,,,,,,,,0,,,67,0
4224,note_on,24,0,4,,,,,,,,0,,,53,0
4224,note_on,0,0,4,,,,,,,,0,,,58,0
4224,note_on,24,0,1,,,,,,,,0,,,76,0
4224,note_on,0,0,1,,,,,,,,0,,,73,0
4224,note_on,0,0,1,,,,,,,,0,,,84,0
4230,note_on,0,0,4,,,,,,,,0,,,58,57
4230,note_on,0,0,4,,,,,,,,0,,,61,57
4230,note_on,0,0,4,,,,,,,,0,,,67,57
4230,note_on,0,0,1,,,,,,,,0,,,76,57
4230,note_on,0,0,1,,,,,,,,0,,,83,80
4230,note_on,6,0,1,,,,,,,,0,,,73,57
4230,note_on,6,0,4,,,,,,,,0,,,53,57
4254,note_on,0,0,4,,,,,,,,0,,,61,0
4254,note_on,0,0,1,,,,,,,,0,,,73,0
4254,note_on,0,0,1,,,,,,,,0,,,83,0
4254,note_on,0,0,4,,,,,,,,0,,,53,0
4254,note_on,0,0,4,,,,,,,,0,,,58,0
4254,note_on,24,0,4,,,,,,,,0,,,67,0
4254,note_on,24,0,1,,,,,,,,0,,,76,0
4260,note_on,0,0,4,,,,,,,,0,,,67,57
4260,note_on,0,0,4,,,,,,,,0,,,58,57
4260,note_on,6,0,4,,,,,,,,0,,,61,57
4260,note_on,6,0,1,,,,,,,,0,,,73,57
4260,note_on,0,0,4,,,,,,,,0,,,53,57
4260,note_on,0,0,1,,,,,,,,0,,,76,57
4260,note_on,0,0,1,,,,,,,,0,,,82,80
4308,note_on,0,0,4,,,,,,,,0,,,61,0
4308,note_on,48,0,4,,,,,,,,0,,,58,0
4308,note_on,0,0,1,,,,,,,,0,,,73,0
4308,note_on,0,0,4,,,,,,,,0,,,67,0
4308,note_on,48,0,1,,,,,,,,0,,,76,0
4308,note_on,0,0,4,,,,,,,,0,,,53,0
4308,note_on,0,0,1,,,,,,,,0,,,82,0
4320,control_change,12,0,4,,,,,,,,0,64,0,,
4551,set_tempo,1187,1,0,,,,,,1495513,,,,,,
4553,control_change,233,0,4,,,,,,,,0,64,127,,
4560,note_on,0,0,1,,,,,,,,0,,,90,80
4560,note_on,252,0,1,,,,,,,,0,,,99,80
4560,set_tempo,9,1,0,,,,,,1459499,,,,,,
4564,set_tempo,4,1,0,,,,,,1425178,,,,,,
4573,set_tempo,9,1,0,,,,,,1392434,,,,,,
4577,set_tempo,4,1,0,,,,,,1361162,,,,,,
4584,note_on,0,0,1,,,,,,,,0,,,99,0
4584,note_on,24,0,1,,,,,,,,0,,,90,0
4586,set_tempo,9,1,0,,,,,,1331262,,,,,,
4590,note_on,6,0,1,,,,,,,,0,,,93,80
4590,set_tempo,4,1,0,,,,,,1302649,,,,,,
4590,note_on,0,0,1,,,,,,,,0,,,96,80
4594,set_tempo,4,1,0,,,,,,1275239,,,,,,
4603,set_tempo,9,1,0,,,,,,1248959,,,,,,
4608,set_tempo,5,1,0,,,,,,1223741,,,,,,
4614,note_on,0,0,1,,,,,,,,0,,,93,0
4614,note_on,24,0,1,,,,,,,,0,,,96,0
4616,set_tempo,8,1,0,,,,,,1199520,,,,,,
4620,note_on,6,0,1,,,,,,,,0,,,92,80
4620,note_on,0,0,1,,,,,,,,0,,,83,80
4621,set_tempo,5,1,0,,,,,,1176240,,,,,,
4629,set_tempo,8,1,0,,,,,,1153846,,,,,,
4634,set_tempo,5,1,0,,,,,,1132289,,,,,,
4638,set_tempo,4,1,0,,,,,,1111523,,,,,,
4644,note_on,24,0,1,,,,,,,,0,,,83,0
4644,note_on,0,0,1,,,,,,,,0,,,92,0
4647,set_tempo,9,1,0,,,,,,1091504,,,,,,
4650,note_on,6,0,1,,,,,,,,0,,,86,80
4650,note_on,0,0,1,,,,,,,,0,,,89,80
4651,set_tempo,4,1,0,,,,,,1072194,,,,,,
4660,set_tempo,9,1,0,,,,,,1053556,,,,,,
4664,set_tempo,4,1,0,,,,,,1035554,,,,,,
4673,set_tempo,9,1,0,,,,,,1018157,,,,,,
4674,note_on,24,0,1,,,,,,,,0,,,89,0
4674,note_on,0,0,1,,,,,,,,0,,,86,0
4677,set_tempo,4,1,0,,,,,,1001335,,,,,,
4680,note_on,6,0,1,,,,,,,,0,,,93,80
4680,note_on,0,0,1,,,,,,,,0,,,84,80
4682,set_tempo,5,1,0,,,,,,985060,,,,,,
4690,set_tempo,8,1,0,,,,,,969305,,,,,,
4695,set_tempo,5,1,0,,,,,,954047,,,,,,
4704,note_on,0,0,1,,,,,,,,0,,,93,0
4704,note_on,24,0,1,,,,,,,,0,,,84,0
4704,set_tempo,9,1,0,,,,,,939261,,,,,,
4708,set_tempo,4,1,0,,,,,,924927,,,,,,
4710,note_on,0,0,1,,,,,,,,0,,,87,80
4710,note_on,6,0,1,,,,,,,,0,,,90,80
4717,set_tempo,9,1,0,,,,,,911023,,,,,,
4721,set_tempo,4,1,0,,,,,,897532,,,,,,
4725,set_tempo,4,1,0,,,,,,884434,,,,,,
4734,set_tempo,9,1,0,,,,,,871713,,,,,,
4734,note_on,0,0,1,,,,,,,,0,,,90,0
4734,note_on,24,0,1,,,,,,,,0,,,87,0
4738,set_tempo,4,1,0,,,,,,859353,,,,,,
4740,note_on,6,0,1,,,,,,,,0,,,86,80
4740,note_on,0,0,1,,,,,,,,0,,,77,80
4747,set_tempo,9,1,0,,,,,,847338,,,,,,
4752,set_tempo,5,1,0,,,,,,835655,,,,,,
4760,set_tempo,8,1,0,,,,,,824289,,,,,,
4764,note_on,24,0,1,,,,,,,,0,,,77,0
4764,note_on,0,0,1,,,,,,,,0,,,86,0
4765,set_tempo,5,1,0,,,,,,813229,,,,,,
4769,set_tempo,4,1,0,,,,,,802461,,,,,,
4770,note_on,0,0,1,,,,,,,,0,,,83,80
4770,note_on,6,0,1,,,,,,,,0,,,80,80
4778,set_tempo,9,1,0,,,,,,791975,,,,,,
4782,set_tempo,4,1,0,,,,,,781759,,,,,,
4791,set_tempo,9,1,0,,,,,,771803,,,,,,
4794,note_on,24,0,1,,,,,,,,0,,,83,0
4794,note_on,0,0,1,,,,,,,,0,,,80,0
4795,set_tempo,4,1,0,,,,,,762098,,,,,,
4800,note_on,0,0,1,,,,,,,,0,,,78,80
4800,set_tempo,5,1,0,,,,,,752634,,,,,,
4800,note_on,6,0,1,,,,,,,,0,,,87,80
4824,note_on,24,0,1,,,,,,,,0,,,78,0
4824,note_on,0,0,1,,,,,,,,0,,,87,0
4830,note_on,6,0,1,,,,,,,,0,,,84,80
4830,note_on,0,0,1,,,,,,,,0,,,81,80
4854,note_on,24,0,1,,,,,,,,0,,,81,0
4854,note_on,0,0,1,,,,,,,,0,,,84,0
4860,note_on,0,0,1,,,,,,,,0,,,71,80
4860,note_on,6,0,1,,,,,,,,0,,,80,80
4884,note_on,0,0,1,,,,,,,,0,,,80,0
4884,note_on,24,0,1,,,,,,,,0,,,71,0
4890,note_on,0,0,1,,,,,,,,0,,,74,80
4890,note_on,6,0,1,,,,,,,,0,,,77,80
4914,note_on,0,0,1,,,,,,,,0,,,77,0
4914,note_on,24,0,1,,,,,,,,0,,,74,0
4920,note_on,0,0,1,,,,,,,,0,,,81,80
4920,note_on,6,0,1,,,,,,,,0,,,72,80
4944,note_on,24,0,1,,,,,,,,0,,,81,0
4944,note_on,0,0,1,,,,,,,,0,,,72,0
4950,note_on,0,0,1,,,,,,,,0,,,75,80
4950,note_on,6,0,1,,,,,,,,0,,,78,80
4974,note_on,0,0,1,,,,,,,,0,,,78,0
4974,note_on,24,0,1,,,,,,,,0,,,75,0
4980,note_on,6,0,1,,,,,,,,0,,,65,80
4980,note_on,0,0,1,,,,,,,,0,,,74,80
5004,note_on,24,0,1,,,,,,,,0,,,74,0
5004,note_on,0,0,1,,,,,,,,0,,,65,0
5010,note_on,6,0,1,,,,,,,,0,,,71,80
5010,note_on,0,0,1,,,,,,,,0,,,68,80
5033,control_change,480,0,4,,,,,,,,0,64,0,,
5034,note_on,0,0,1,,,,,,,,0,,,71,0
5034,note_on,24,0,1,,,,,,,,0,,,68,0
5040,note_on,6,0,1,,,,,,,,0,,,75,80
5040,note_on,0,0,1,,,,,,,,0,,,66,80
5064,note_on,0,0,1,,,,,,,,0,,,75,0
5064,note_on,24,0,1,,,,,,,,0,,,66,0
5070,note_on,0,0,1,,,,,,,,0,,,69,80
5070,note_on,6,0,1,,,,,,,,0,,,72,80
5094,note_on,24,0,1,,,,,,,,0,,,69,0
5094,note_on,0,0,1,,,,,,,,0,,,72,0
5100,note_on,6,0,1,,,,,,,,0,,,68,80
5100,note_on,0,0,1,,,,,,,,0,,,59,80
5124,note_on,0,0,1,,,,,,,,0,,,68,0
5124,note_on,24,0,1,,,,,,,,0,,,59,0
5130,note_on,0,0,1,,,,,,,,0,,,62,80
5130,note_on,6,0,1,,,,,,,,0,,,65,80
5154,note_on,0,0,1,,,,,,,,0,,,65,0
5154,note_on,24,0,1,,,,,,,,0,,,62,0
5160,note_on,6,0,1,,,,,,,,0,,,63,80
5160,note_on,0,0,1,,,,,,,,0,,,60,80
5160,note_on,0,0,1,,,,,,,,0,,,69,80
5160,note_on,0,0,1,,,,,,,,0,,,66,80
5256,note_on,96,0,1,,,,,,,,0,,,66,0
5256,note_on,0,0,1,,,,,,,,0,,,60,0
5256,note_on,0,0,1,,,,,,,,0,,,63,0
5256,note_on,0,0,1,,,,,,,,0,,,69,0
5275,set_tempo,475,1,0,,,,,,752634,,,,,,
5280,note_on,247,0,4,,,,,,,,0,,,41,80
5328,note_on,48,0,4,,,,,,,,0,,,41,0
5335,control_change,7,0,4,,,,,,,,0,64,127,,
5340,note_on,0,0,4,,,,,,,,0,,,63,57
5340,note_on,84,0,1,,,,,,,,0,,,78,57
5340,note_on,0,0,4,,,,,,,,0,,,53,57
5340,note_on,0,0,1,,,,,,,,0,,,90,80
5340,note_on,5,0,4,,,,,,,,0,,,69,57
5340,note_on,0,0,4,,,,,,,,0,,,60,57
5340,note_on,0,0,1,,,,,,,,0,,,81,57
5388,note_on,0,0,1,,,,,,,,0,,,78,0
5388,note_on,0,0,1,,,,,,,,0,,,90,0
5388,note_on,0,0,4,,,,,,,,0,,,69,0
5388,note_on,0,0,4,,,,,,,,0,,,63,0
5388,note_on,0,0,4,,,,,,,,0,,,60,0
5388,note_on,48,0,4,,,,,,,,0,,,53,0
5388,note_on,48,0,1,,,,,,,,0,,,81,0
5400,note_on,0,0,4,,,,,,,,0,,,63,57
5400,note_on,0,0,4,,,,,,,,0,,,69,57
5400,note_on,0,0,1,,,,,,,,0,,,81,57
5400,note_on,0,0,1,,,,,,,,0,,,78,57
5400,note_on,0,0,4,,,,,,,,0,,,60,57
5400,note_on,12,0,4,,,,,,,,0,,,53,57
5400,note_on,12,0,1,,,,,,,,0,,,89,80
5448,note_on,0,0,4,,,,,,,,0,,,69,0
5448,note_on,48,0,1,,,,,,,,0,,,81,0
5448,note_on,48,0,4,,,,,,,,0,,,60,0
5448,note_on,0,0,1,,,,,,,,0,,,89,0
5448,note_on,0,0,4,,,,,,,,0,,,63,0
5448,note_on,0,0,4,,,,,,,,0,,,53,0
5448,note_on,0,0,1,,,,,,,,0,,,78,0
5460,note_on,12,0,1,,,,,,,,0,,,78,57
5460,note_on,0,0,1,,,,,,,,0,,,81,57
5460,note_on,0,0,4,,,,,,,,0,,,63,57
5460,note_on,12,0,4,,,,,,,,0,,,53,57
5460,note_on,0,0,4,,,,,,,,0,,,69,57
5460,note_on,0,0,4,,,,,,,,0,,,60,57
5460,note_on,0,0,1,,,,,,,,0,,,88,80
5508,note_on,0,0,4,,,,,,,,0,,,69,0
5508,note_on,0,0,4,,,,,,,,0,,,63,0
5508,note_on,0,0,4,,,,,,,,0,,,53,0
5508,note_on,0,0,1,,,,,,,,0,,,88,0
5508,note_on,48,0,1,,,,,,,,0,,,81,0
5508,note_on,48,0,4,,,,,,,,0,,,60,0
5508,note_on,0,0,1,,,,,,,,0,,,78,0
5515,set_tempo,240,1,0,,,,,,762098,,,,,,
5520,note_on,0,0,4,,,,,,,,0,,,63,57
5520,note_on,0,0,1,,,,,,,,0,,,78,57
5520,note_on,0,0,1,,,,,,,,0,,,81,57
5520,note_on,12,0,1,,,,,,,,0,,,87,80
5520,note_on,12,0,4,,,,,,,,0,,,60,57
5520,note_on,0,0,4,,,,,,,,0,,,53,57
5520,note_on,0,0,4,,,,,,,,0,,,69,57
5545,set_tempo,30,1,0,,,,,,771803,,,,,,
5568,note_on,0,0,4,,,,,,,,0,,,69,0
5568,note_on,0,0,4,,,,,,,,0,,,63,0
5568,note_on,0,0,4,,,,,,,,0,,,60,0
5568,note_on,48,0,4,,,,,,,,0,,,53,0
5568,note_on,0,0,1,,,,,,,,0,,,87,0
5568,note_on,48,0,1,,,,,,,,0,,,81,0
5568,note_on,0,0,1,,,,,,,,0,,,78,0
5571,set_tempo,26,1,0,,,,,,781759,,,,,,
5580,note_on,12,0,4,,,,,,,,0,,,53,57
5580,note_on,0,0,1,,,,,,,,0,,,78,57
5580,note_on,0,0,4,,,,,,,,0,,,69,57
5580,note_on,0,0,4,,,,,,,,0,,,63,57
5580,note_on,0,0,4,,,,,,,,0,,,60,57
5580,note_on,0,0,1,,,,,,,,0,,,81,57
5580,note_on,12,0,1,,,,,,,,0,,,90,80
5602,set_tempo,31,1,0,,,,,,791975,,,,,,
5628,note_on,0,0,4,,,,,,,,0,,,69,0
5628,note_on,48,0,4,,,,,,,,0,,,63,0
5628,set_tempo,26,1,0,,,,,,802461,,,,,,
5628,note_on,48,0,1,,,,,,,,0,,,78,0
5628,note_on,0,0,1,,,,,,,,0,,,90,0
5628,note_on,0,0,1,,,,,,,,0,,,81,0
5628,note_on,0,0,4,,,,,,,,0,,,60,0
5628,note_on,0,0,4,,,,,,,,0,,,53,0
5640,note_on,0,0,1,,,,,,,,0,,,89,80
5640,note_on,0,0,1,,,,,,,,0,,,78,57
5640,note_on,0,0,4,,,,,,,,0,,,53,57
5640,note_on,0,0,4,,,,,,,,0,,,63,57
5640,note_on,12,0,4,,,,,,,,0,,,60,57
5640,note_on,0,0,4,,,,,,,,0,,,69,57
5640,note_on,12,0,1,,,,,,,,0,,,81,57
5659,set_tempo,31,1,0,,,,,,813229,,,,,,
5664,note_on,0,0,1,,,,,,,,0,,,89,0
5664,note_on,0,0,4,,,,,,,,0,,,53,0
5664,note_on,0,0,4,,,,,,,,0,,,60,0
5664,note_on,0,0,4,,,,,,,,0,,,63,0
5664,note_on,24,0,1,,,,,,,,0,,,78,0
5664,note_on,0,0,1,,,,,,,,0,,,81,0
5664,note_on,24,0,4,,,,,,,,0,,,69,0
5670,note_on,0,0,4,,,,,,,,0,,,60,57
5670,note_on,0,0,1,,,,,,,,0,,,88,80
5670,note_on,0,0,4,,,,,,,,0,,,69,57
5670,note_on,6,0,1,,,,,,,,0,,,78,57
5670,note_on,6,0,4,,,,,,,,0,,,63,57
5670,note_on,0,0,1,,,,,,,,0,,,81,57
5670,note_on,0,0,4,,,,,,,,0,,,53,57
5685,set_tempo,26,1,0,,,,,,824289,,,,,,
5694,note_on,0,0,4,,,,,,,,0,,,63,0
5694,note_on,0,0,4,,,,,,,,0,,,53,0
5694,note_on,24,0,1,,,,,,,,0,,,81,0
5694,note_on,0,0,4,,,,,,,,0,,,69,0
5694,note_on,0,0,1,,,,,,,,0,,,88,0
5694,note_on,0,0,1,,,,,,,,0,,,78,0
5694,note_on,24,0,4,,,,,,,,0,,,60,0
5700,note_on,6,0,4,,,,,,,,0,,,69,57
5700,note_on,6,0,1,,,,,,,,0,,,78,57
5700,note_on,0,0,4,,,,,,,,0,,,63,57
5700,note_on,0,0,1,,,,,,,,0,,,87,80
5700,note_on,0,0,4,,,,,,,,0,,,53,57
5700,note_on,0,0,4,,,,,,,,0,,,60,57
5700,note_on,0,0,1,,,,,,,,0,,,81,57
5715,set_tempo,30,1,0,,,,,,835655,,,,,,
5742,set_tempo,27,1,0,,,,,,847338,,,,,,
5748,note_on,0,0,1,,,,,,,,0,,,78,0
5748,note_on,48,0,1,,,,,,,,0,,,81,0
5748,note_on,48,0,4,,,,,,,,0,,,53,0
5748,note_on,0,0,1,,,,,,,,0,,,87,0
5748,note_on,0,0,4,,,,,,,,0,,,69,0
5748,note_on,0,0,4,,,,,,,,0,,,63,0
5748,note_on,0,0,4,,,,,,,,0,,,60,0
5760,control_change,12,0,4,,,,,,,,0,64,0,,
5768,set_tempo,26,1,0,,,,,,847338,,,,,,
5820,note_on,0,0,4,,,,,,,,0,,,60,57
5820,note_on,0,0,4,,,,,,,,0,,,53,57
5820,note_on,0,0,1,,,,,,,,0,,,87,80
5820,note_on,0,0,4,,,,,,,,0,,,69,57
5820,control_change,0,0,4,,,,,,,,0,64,127,,
5820,note_on,0,0,1,,,,,,,,0,,,75,57
5820,note_on,72,0,1,,,,,,,,0,,,78,57
5820,note_on,60,0,4,,,,,,,,0,,,63,57
5868,note_on,0,0,1,,,,,,,,0,,,75,0
5868,note_on,0,0,4,,,,,,,,0,,,63,0
5868,note_on,48,0,1,,,,,,,,0,,,87,0
5868,note_on,0,0,4,,,,,,,,0,,,53,0
5868,note_on,0,0,4,,,,,,,,0,,,60,0
5868,note_on,0,0,1,,,,,,,,0,,,78,0
5868,note_on,48,0,4,,,,,,,,0,,,69,0
5880,note_on,12,0,4,,,,,,,,0,,,60,57
5880,note_on,0,0,1,,,,,,,,0,,,86,80
5880,note_on,0,0,1,,,,,,,,0,,,78,57
5880,note_on,0,0,4,,,,,,,,0,,,63,57
5880,note_on,0,0,4,,,,,,,,0,,,53,57
5880,note_on,12,0,1,,,,,,,,0,,,75,57
5880,note_on,0,0,4,,,,,,,,0,,,69,57
5881,set_tempo,113,1,0,,,,,,859353,,,,,,
5928,note_on,0,0,1,,,,,,,,0,,,75,0
5928,note_on,0,0,4,,,,,,,,0,,,53,0
5928,note_on,0,0,4,,,,,,,,0,,,60,0
5928,note_on,0,0,4,,,,,,,,0,,,63,0
5928,note_on,0,0,1,,,,,,,,0,,,86,0
5928,note_on,48,0,4,,,,,,,,0,,,69,0
5928,note_on,48,0,1,,,,,,,,0,,,78,0
5940,note_on,0,0,1,,,,,,,,0,,,75,57
5940,note_on,12,0,4,,,,,,,,0,,,53,57
5940,note_on,0,0,1,,,,,,,,0,,,78,57
5940,note_on,12,0,1,,,,,,,,0,,,85,80
5940,note_on,0,0,4,,,,,,,,0,,,60,57
5940,note_on,0,0,4,,,,,,,,0,,,63,57
5940,note_on,0,0,4,,,,,,,,0,,,69,57
5986,set_tempo,105,1,0,,,,,,871713,,,,,,
5988,note_on,0,0,1,,,,,,,,0,,,85,0
5988,note_on,0,0,4,,,,,,,,0,,,53,0
5988,note_on,0,0,4,,,,,,,,0,,,60,0
5988,note_on,0,0,4,,,,,,,,0,,,69,0
5988,note_on,48,0,4,,,,,,,,0,,,63,0
5988,note_on,0,0,1,,,,,,,,0,,,78,0
5988,note_on,48,0,1,,,,,,,,0,,,75,0
6000,note_on,12,0,1,,,,,,,,0,,,84,80
6000,note_on,12,0,4,,,,,,,,0,,,60,57
6000,note_on,0,0,1,,,,,,,,0,,,78,57
6000,note_on,0,0,4,,,,,,,,0,,,69,57
6000,note_on,0,0,4,,,,,,,,0,,,63,57
6000,note_on,0,0,4,,,,,,,,0,,,53,57
6000,note_on,0,0,1,,,,,,,,0,,,75,57
6025,set_tempo,39,1,0,,,,,,884434,,,,,,
6048,note_on,0,0,4,,,,,,,,0,,,60,0
6048,note_on,48,0,4,,,,,,,,0,,,69,0
6048,note_on,0,0,4,,,,,,,,0,,,63,0
6048,note_on,0,0,4,,,,,,,,0,,,53,0
6048,note_on,48,0,1,,,,,,,,0,,,75,0
6048,note_on,0,0,1,,,,,,,,0,,,84,0
6048,note_on,0,0,1,,,,,,,,0,,,78,0
6060,note_on,12,0,1,,,,,,,,0,,,78,57
6060,note_on,0,0,4,,,,,,,,0,,,63,57
6060,note_on,0,0,4,,,,,,,,0,,,69,57
6060,note_on,0,0,1,,,,,,,,0,,,87,80
6060,note_on,12,0,4,,,,,,,,0,,,53,57
6060,set_tempo,35,1,0,,,,,,897532,,,,,,
6060,note_on,0,0,1,,,,,,,,0,,,75,57
6060,note_on,0,0,4,,,,,,,,0,,,60,57
6095,set_tempo,35,1,0,,,,,,911023,,,,,,
6108,note_on,48,0,1,,,,,,,,0,,,75,0
6108,note_on,48,0,4,,,,,,,,0,,,60,0
6108,note_on,0,0,4,,,,,,,,0,,,53,0
6108,note_on,0,0,4,,,,,,,,0,,,63,0
6108,note_on,0,0,4,,,,,,,,0,,,69,0
6108,note_on,0,0,1,,,,,,,,0,,,78,0
6108,note_on,0,0,1,,,,,,,,0,,,87,0
6120,note_on,0,0,4,,,,,,,,0,,,53,57
6120,note_on,0,0,4,,,,,,,,0,,,60,57
6120,note_on,0,0,4,,,,,,,,0,,,69,57
6120,note_on,0,0,1,,,,,,,,0,,,86,80
6120,note_on,0,0,1,,,,,,,,0,,,78,57
6120,note_on,12,0,1,,,,,,,,0,,,75,57
6120,note_on,12,0,4,,,,,,,,0,,,63,57
6134,set_tempo,39,1,0,,,,,,924927,,,,,,
6144,note_on,0,0,1,,,,,,,,0,,,75,0
6144,note_on,0,0,1,,,,,,,,0,,,78,0
6144,note_on,0,0,4,,,,,,,,0,,,53,0
6144,note_on,24,0,4,,,,,,,,0,,,69,0
6144,note_on,24,0,1,,,,,,,,0,,,86,0
6144,note_on,0,0,4,,,,,,,,0,,,60,0
6144,note_on,0,0,4,,,,,,,,0,,,63,0
6150,note_on,6,0,4,,,,,,,,0,,,69,57
6150,note_on,0,0,4,,,,,,,,0,,,63,57
6150,note_on,0,0,4,,,,,,,,0,,,60,57
6150,note_on,0,0,4,,,,,,,,0,,,53,57
6150,note_on,6,0,1,,,,,,,,0,,,75,57
6150,note_on,0,0,1,,,,,,,,0,,,85,80
6150,note_on,0,0,1,,,,,,,,0,,,78,57
6169,set_tempo,35,1,0,,,,,,939261,,,,,,
6174,note_on,24,0,4,,,,,,,,0,,,53,0
6174,note_on,0,0,4,,,,,,,,0,,,69,0
6174,note_on,0,0,4,,,,,,,,0,,,63,0
6174,note_on,0,0,1,,,,,,,,0,,,78,0
6174,note_on,0,0,1,,,,,,,,0,,,75,0
6174,note_on,0,0,4,,,,,,,,0,,,60,0
6174,note_on,24,0,1,,,,,,,,0,,,85,0
6177,control_change,3,0,4,,,,,,,,0,64,0,,
6180,note_on,0,0,4,,,,,,,,0,,,53,57
6180,note_on,0,0,4,,,,,,,,0,,,69,57
6180,note_on,0,0,4,,,,,,,,0,,,60,57
6180,note_on,0,0,1,,,,,,,,0,,,75,57
6180,note_on,0,0,1,,,,,,,,0,,,78,57
6180,note_on,3,0,4,,,,,,,,0,,,63,57
6180,note_on,6,0,1,,,,,,,,0,,,84,80
6204,set_tempo,35,1,0,,,,,,954047,,,,,,
6228,note_on,48,0,1,,,,,,,,0,,,78,0
6228,note_on,48,0,4,,,,,,,,0,,,60,0
6228,note_on,0,0,4,,,,,,,,0,,,69,0
6228,note_on,0,0,1,,,,,,,,0,,,84,0
6228,note_on,0,0,4,,,,,,,,0,,,53,0
6228,note_on,0,0,1,,,,,,,,0,,,75,0
6228,note_on,0,0,4,,,,,,,,0,,,63,0
6239,set_tempo,35,1,0,,,,,,969305,,,,,,
6300,note_on,0,0,4,,,,,,,,0,,,53,68
6300,note_on,0,0,4,,,,,,,,0,,,60,68
6300,note_on,72,0,4,,,,,,,,0,,,63,68
6300,note_on,72,0,1,,,,,,,,0,,,72,68
6300,note_on,0,0,1,,,,,,,,0,,,75,68
6300,note_on,0,0,1,,,,,,,,0,,,84,80
6300,note_on,0,0,4,,,,,,,,0,,,69,68
6316,control_change,16,0,4,,,,,,,,0,64,127,,
6348,note_on,48,0,1,,,,,,,,0,,,75,0
6348,note_on,0,0,1,,,,,,,,0,,,84,0
6348,note_on,0,0,4,,,,,,,,0,,,63,0
6348,note_on,0,0,4,,,,,,,,0,,,60,0
6348,note_on,0,0,4,,,,,,,,0,,,53,0
6348,note_on,0,0,1,,,,,,,,0,,,72,0
6348,note_on,32,0,4,,,,,,,,0,,,69,0
6360,note_on,0,0,4,,,,,,,,0,,,69,68
6360,note_on,0,0,4,,,,,,,,0,,,60,68
6360,note_on,0,0,4,,,,,,,,0,,,53,68
6360,note_on,12,0,4,,,,,,,,0,,,63,68
6360,note_on,0,0,1,,,,,,,,0,,,75,68
6360,note_on,0,0,1,,,,,,,,0,,,72,68
6360,note_on,12,0,1,,,,,,,,0,,,83,80
6384,note_on,0,0,1,,,,,,,,0,,,83,0
6384,note_on,0,0,1,,,,,,,,0,,,72,0
6384,note_on,24,0,1,,,,,,,,0,,,75,0
6384,note_on,0,0,4,,,,,,,,0,,,53,0
6384,note_on,0,0,4,,,,,,,,0,,,63,0
6384,note_on,24,0,4,,,,,,,,0,,,60,0
6384,note_on,0,0,4,,,,,,,,0,,,69,0
6390,note_on,0,0,1,,,,,,,,0,,,82,80
6390,note_on,0,0,1,,,,,,,,0,,,75,68
6390,note_on,0,0,4,,,,,,,,0,,,60,68
6390,note_on,0,0,4,,,,,,,,0,,,53,68
6390,note_on,0,0,4,,,,,,,,0,,,69,68
6390,note_on,6,0,4,,,,,,,,0,,,63,68
6390,note_on,6,0,1,,,,,,,,0,,,72,68
6414,note_on,0,0,4,,,,,,,,0,,,53,0
6414,note_on,0,0,4,,,,,,,,0,,,63,0
6414,note_on,0,0,4,,,,,,,,0,,,69,0
6414,note_on,0,0,1,,,,,,,,0,,,75,0
6414,note_on,24,0,4,,,,,,,,0,,,60,0
6414,note_on,24,0,1,,,,,,,,0,,,82,0
6414,note_on,0,0,1,,,,,,,,0,,,72,0
6420,note_on,0,0,1,,,,,,,,0,,,81,80
6420,note_on,0,0,4,,,,,,,,0,,,69,68
6420,note_on,0,0,4,,,,,,,,0,,,60,68
6420,note_on,6,0,4,,,,,,,,0,,,63,68
6420,note_on,6,0,1,,,,,,,,0,,,75,68
6420,note_on,0,0,1,,,,,,,,0,,,72,68
6420,note_on,0,0,4,,,,,,,,0,,,53,68
6468,note_on,48,0,4,,,,,,,,0,,,69,0
6468,note_on,0,0,1,,,,,,,,0,,,75,0
6468,note_on,0,0,1,,,,,,,,0,,,81,0
6468,note_on,0,0,4,,,,,,,,0,,,60,0
6468,note_on,0,0,4,,,,,,,,0,,,63,0
6468,note_on,48,0,1,,,,,,,,0,,,72,0
6468,note_on,0,0,4,,,,,,,,0,,,53,0
6540,note_on,0,0,4,,,,,,,,0,,,53,68
6540,note_on,0,0,4,,,,,,,,0,,,66,68
6540,note_on,0,0,1,,,,,,,,0,,,69,68
6540,note_on,72,0,4,,,,,,,,0,,,63,68
6540,note_on,0,0,1,,,,,,,,0,,,81,80
6540,note_on,72,0,1,,,,,,,,0,,,72,68
6588,note_on,48,0,4,,,,,,,,0,,,66,0
6588,note_on,0,0,1,,,,,,,,0,,,72,0
6588,note_on,0,0,1,,,,,,,,0,,,81,0
6588,note_on,0,0,4,,,,,,,,0,,,63,0
6588,note_on,48,0,1,,,,,,,,0,,,69,0
6588,note_on,0,0,4,,,,,,,,0,,,53,0
6600,note_on,0,0,1,,,,,,,,0,,,72,68
6600,note_on,12,0,1,,,,,,,,0,,,80,80
6600,note_on,12,0,4,,,,,,,,0,,,63,68
6600,note_on,0,0,4,,,,,,,,0,,,66,68
6600,note_on,0,0,4,,,,,,,,0,,,53,68
6600,note_on,0,0,1,,,,,,,,0,,,69,68
6624,note_on,24,0,4,,,,,,,,0,,,53,0
6624,note_on,24,0,1,,,,,,,,0,,,69,0
6624,note_on,0,0,4,,,,,,,,0,,,63,0
6624,note_on,0,0,1,,,,,,,,0,,,72,0
6624,note_on,0,0,1,,,,,,,,0,,,80,0
6624,note_on,0,0,4,,,,,,,,0,,,66,0
6630,note_on,0,0,4,,,,,,,,0,,,63,68
6630,note_on,0,0,1,,,,,,,,0,,,79,80
6630,note_on,0,0,1,,,,,,,,0,,,69,68
6630,note_on,6,0,4,,,,,,,,0,,,53,68
6630,note_on,0,0,4,,,,,,,,0,,,66,68
6630,note_on,6,0,1,,,,,,,,0,,,72,68
6654,note_on,24,0,1,,,,,,,,0,,,69,0
6654,note_on,0,0,1,,,,,,,,0,,,79,0
6654,note_on,0,0,1,,,,,,,,0,,,72,0
6654,note_on,24,0,4,,,,,,,,0,,,66,0
6654,note_on,0,0,4,,,,,,,,0,,,53,0
6654,note_on,0,0,4,,,,,,,,0,,,63,0
6660,note_on,6,0,4,,,,,,,,0,,,53,68
6660,note_on,6,0,1,,,,,,,,0,,,78,80
6660,note_on,0,0,4,,,,,,,,0,,,63,68
6660,note_on,0,0,1,,,,,,,,0,,,72,68
6660,note_on,0,0,4,,,,,,,,0,,,66,68
6660,note_on,0,0,1,,,,,,,,0,,,69,68
6705,set_tempo,466,1,0,,,,,,1001335,,,,,,
6708,note_on,0,0,1,,,,,,,,0,,,69,0
6708,note_on,0,0,4,,,,,,,,0,,,53,0
6708,note_on,0,0,4,,,,,,,,0,,,63,0
6708,note_on,48,0,1,,,,,,,,0,,,72,0
6708,note_on,48,0,4,,,,,,,,0,,,66,0
6708,note_on,0,0,1,,,,,,,,0,,,78,0
6720,control_change,12,0,4,,,,,,,,0,64,0,,
6731,set_tempo,26,1,0,,,,,,985060,,,,,,
6753,set_tempo,22,1,0,,,,,,969305,,,,,,
6774,control_change,54,0,4,,,,,,,,0,64,127,,
6775,set_tempo,22,1,0,,,,,,954047,,,,,,
6780,note_on,0,0,1,,,,,,,,0,,,77,80
6780,note_on,0,0,4,,,,,,,,0,,,53,68
6780,note_on,6,0,4,,,,,,,,0,,,65,68
6780,note_on,0,0,4,,,,,,,,0,,,63,68
6780,note_on,0,0,1,,,,,,,,0,,,69,68
6780,note_on,72,0,1,,,,,,,,0,,,72,68
6797,set_tempo,22,1,0,,,,,,939261,,,,,,
6818,set_tempo,21,1,0,,,,,,924927,,,,,,
6828,note_on,0,0,4,,,,,,,,0,,,65,0
6828,note_on,48,0,4,,,,,,,,0,,,63,0
6828,note_on,0,0,1,,,,,,,,0,,,77,0
6828,note_on,0,0,1,,,,,,,,0,,,72,0
6828,note_on,0,0,4,,,,,,,,0,,,53,0
6828,note_on,48,0,1,,,,,,,,0,,,69,0
6840,note_on,12,0,4,,,,,,,,0,,,63,67
6840,note_on,0,0,4,,,,,,,,0,,,53,67
6840,note_on,0,0,4,,,,,,,,0,,,66,67
6840,set_tempo,22,1,0,,,,,,911023,,,,,,
6840,note_on,0,0,1,,,,,,,,0,,,69,67
6840,note_on,0,0,1,,,,,,,,0,,,72,67
6840,note_on,12,0,1,,,,,,,,0,,,78,80
6862,set_tempo,22,1,0,,,,,,897532,,,,,,
6884,set_tempo,22,1,0,,,,,,884434,,,,,,
6888,note_on,0,0,4,,,,,,,,0,,,53,0
6888,note_on,0,0,4,,,,,,,,0,,,63,0
6888,note_on,48,0,4,,,,,,,,0,,,66,0
6888,note_on,0,0,1,,,,,,,,0,,,72,0
6888,note_on,0,0,1,,,,,,,,0,,,78,0
6888,note_on,48,0,1,,,,,,,,0,,,69,0
6900,note_on,12,0,1,,,,,,,,0,,,77,80
6900,note_on,0,0,4,,,,,,,,0,,,63,66
6900,note_on,0,0,4,,,,,,,,0,,,65,66
6900,note_on,12,0,4,,,,,,,,0,,,53,66
6900,note_on,0,0,1,,,,,,,,0,,,72,66
6900,note_on,0,0,1,,,,,,,,0,,,69,66
6906,set_tempo,22,1,0,,,,,,871713,,,,,,
6928,set_tempo,22,1,0,,,,,,859353,,,,,,
6948,note_on,0,0,4,,,,,,,,0,,,65,0
6948,note_on,48,0,1,,,,,,,,0,,,69,0
6948,note_on,48,0,4,,,,,,,,0,,,63,0
6948,note_on,0,0,1,,,,,,,,0,,,77,0
6948,note_on,0,0,1,,,,,,,,0,,,72,0
6948,note_on,0,0,4,,,,,,,,0,,,53,0
6949,set_tempo,21,1,0,,,,,,847338,,,,,,
6960,note_on,12,0,4,,,,,,,,0,,,63,66
6960,note_on,12,0,1,,,,,,,,0,,,72,66
6960,note_on,0,0,4,,,,,,,,0,,,67,66
6960,note_on,0,0,4,,,,,,,,0,,,53,66
6960,note_on,0,0,1,,,,,,,,0,,,69,66
6960,note_on,0,0,1,,,,,,,,0,,,79,80
6976,set_tempo,27,1,0,,,,,,859353,,,,,,
6997,set_tempo,21,1,0,,,,,,871713,,,,,,
7008,note_on,0,0,4,,,,,,,,0,,,53,0
7008,note_on,0,0,4,,,,,,,,0,,,63,0
7008,note_on,0,0,1,,,,,,,,0,,,79,0
7008,note_on,48,0,1,,,,,,,,0,,,69,0
7008,note_on,0,0,1,,,,,,,,0,,,72,0
7008,note_on,48,0,4,,,,,,,,0,,,67,0
7019,set_tempo,22,1,0,,,,,,884434,,,,,,
7020,note_on,12,0,4,,,,,,,,0,,,53,65
7020,note_on,0,0,4,,,,,,,,0,,,65,65
7020,note_on,0,0,4,,,,,,,,0,,,63,65
7020,note_on,12,0,1,,,,,,,,0,,,69,65
7020,note_on,0,0,1,,,,,,,,0,,,72,65
7020,note_on,0,0,1,,,,,,,,0,,,77,80
7041,set_tempo,22,1,0,,,,,,897532,,,,,,
7063,set_tempo,22,1,0,,,,,,911023,,,,,,
7068,note_on,0,0,4,,,,,,,,0,,,53,0
7068,note_on,0,0,4,,,,,,,,0,,,63,0
7068,note_on,48,0,4,,,,,,,,0,,,65,0
7068,note_on,0,0,1,,,,,,,,0,,,77,0
7068,note_on,0,0,1,,,,,,,,0,,,69,0
7068,note_on,48,0,1,,,,,,,,0,,,72,0
7080,note_on,12,0,4,,,,,,,,0,,,66,64
7080,note_on,0,0,1,,,,,,,,0,,,72,64
7080,note_on,0,0,4,,,,,,,,0,,,63,64
7080,note_on,0,0,4,,,,,,,,0,,,53,64
7080,note_on,0,0,1,,,,,,,,0,,,69,64
7080,note_on,12,0,1,,,,,,,,0,,,78,80
7089,set_tempo,26,1,0,,,,,,924927,,,,,,
7111,set_tempo,22,1,0,,,,,,939261,,,,,,
7128,note_on,0,0,4,,,,,,,,0,,,66,0
7128,note_on,48,0,4,,,,,,,,0,,,53,0
7128,note_on,48,0,1,,,,,,,,0,,,69,0
7128,note_on,0,0,1,,,,,,,,0,,,78,0
7128,note_on,0,0,1,,,,,,,,0,,,72,0
7128,note_on,0,0,4,,,,,,,,0,,,63,0
7133,set_tempo,22,1,0,,,,,,954047,,,,,,
7140,note_on,12,0,1,,,,,,,,0,,,77,80
7140,note_on,12,0,4,,,,,,,,0,,,53,64
7140,note_on,0,0,1,,,,,,,,0,,,69,64
7140,note_on,0,0,1,,,,,,,,0,,,72,64
7140,note_on,0,0,4,,,,,,,,0,,,65,64
7140,note_on,0,0,4,,,,,,,,0,,,63,64
7154,set_tempo,21,1,0,,,,,,969305,,,,,,
7176,set_tempo,22,1,0,,,,,,985060,,,,,,
7185,set_tempo,9,1,0,,,,,,1035554,,,,,,
7188,note_on,0,0,4,,,,,,,,0,,,63,0
7188,note_on,48,0,4,,,,,,,,0,,,65,0
7188,note_on,48,0,1,,,,,,,,0,,,69,0
7188,note_on,0,0,1,,,,,,,,0,,,77,0
7188,note_on,0,0,1,,,,,,,,0,,,72,0
7188,note_on,0,0,4,,,,,,,,0,,,53,0
7200,note_on,12,0,1,,,,,,,,0,,,79,80
7222,set_tempo,37,1,0,,,,,,1053556,,,,,,
7232,note_on,32,0,1,,,,,,,,0,,,79,0
7240,note_on,8,0,1,,,,,,,,0,,,77,80
7270,set_tempo,48,1,0,,,,,,1035554,,,,,,
7272,note_on,32,0,1,,,,,,,,0,,,77,0
7280,note_on,8,0,1,,,,,,,,0,,,78,80
7312,note_on,32,0,1,,,,,,,,0,,,78,0
7313,set_tempo,43,1,0,,,,,,1018157,,,,,,
7320,note_on,8,0,1,,,,,,,,0,,,77,80
7352,note_on,32,0,1,,,,,,,,0,,,77,0
7357,set_tempo,44,1,0,,,,,,1001335,,,,,,
7360,note_on,8,0,1,,,,,,,,0,,,79,80
7392,note_on,32,0,1,,,,,,,,0,,,79,0
7400,note_on,8,0,1,,,,,,,,0,,,77,80
7405,set_tempo,48,1,0,,,,,,985060,,,,,,
7429,control_change,241,0,4,,,,,,,,0,64,0,,
7432,note_on,32,0,1,,,,,,,,0,,,77,0
7440,note_on,8,0,1,,,,,,,,0,,,78,80
7448,set_tempo,43,1,0,,,,,,969305,,,,,,
7472,note_on,32,0,1,,,,,,,,0,,,78,0
7480,note_on,8,0,1,,,,,,,,0,,,77,80
7492,set_tempo,44,1,0,,,,,,954047,,,,,,
7512,note_on,32,0,1,,,,,,,,0,,,77,0
7520,note_on,8,0,1,,,,,,,,0,,,79,80
7540,set_tempo,48,1,0,,,,,,939261,,,,,,
7552,note_on,32,0,1,,,,,,,,0,,,79,0
7560,note_on,8,0,1,,,,,,,,0,,,77,80
7584,note_on,24,0,1,,,,,,,,0,,,77,0
7584,set_tempo,44,1,0,,,,,,924927,,,,,,
7590,note_on,6,0,1,,,,,,,,0,,,78,80
7614,note_on,24,0,1,,,,,,,,0,,,78,0
7620,note_on,6,0,1,,,,,,,,0,,,77,80
7627,set_tempo,43,1,0,,,,,,911023,,,,,,
7644,note_on,24,0,1,,,,,,,,0,,,77,0
7650,note_on,6,0,1,,,,,,,,0,,,79,80
7667,set_tempo,40,1,0,,,,,,897532,,,,,,
7674,note_on,24,0,1,,,,,,,,0,,,79,0
7680,note_on,6,0,1,,,,,,,,0,,,77,80
7702,set_tempo,35,1,0,,,,,,884434,,,,,,
7704,note_on,24,0,1,,,,,,,,0,,,77,0
7710,note_on,6,0,1,,,,,,,,0,,,78,80
7734,note_on,24,0,1,,,,,,,,0,,,78,0
7736,set_tempo,34,1,0,,,,,,871713,,,,,,
7740,note_on,6,0,1,,,,,,,,0,,,77,80
7764,note_on,24,0,1,,,,,,,,0,,,77,0
7770,note_on,6,0,1,,,,,,,,0,,,79,80
7771,set_tempo,35,1,0,,,,,,859353,,,,,,
7794,note_on,24,0,1,,,,,,,,0,,,79,0
7800,note_on,371,0,4,,,,,,,,0,,,63,80
7800,note_on,6,0,1,,,,,,,,0,,,77,68
7800,note_on,0,0,1,,,,,,,,0,,,69,68
7800,note_on,5210,0,3,,,,,,,,0,,,65,80
7805,control_change,5,0,4,,,,,,,,0,64,127,,
7806,set_tempo,35,1,0,,,,,,847338,,,,,,
7824,note_on,0,0,1,,,,,,,,0,,,77,0
7824,note_on,24,0,1,,,,,,,,0,,,69,0
7830,note_on,6,0,1,,,,,,,,0,,,78,68
7830,note_on,0,0,1,,,,,,,,0,,,72,68
7841,set_tempo,35,1,0,,,,,,835655,,,,,,
7854,note_on,24,0,1,,,,,,,,0,,,72,0
7854,note_on,0,0,1,,,,,,,,0,,,78,0
7860,note_on,0,0,1,,,,,,,,0,,,77,68
7860,note_on,6,0,1,,,,,,,,0,,,69,68
7876,set_tempo,35,1,0,,,,,,824289,,,,,,
7884,note_on,24,0,1,,,,,,,,0,,,77,0
7884,note_on,0,0,1,,,,,,,,0,,,69,0
7890,note_on,6,0,1,,,,,,,,0,,,79,68
7890,note_on,0,0,1,,,,,,,,0,,,72,68
7896,note_on,91,0,4,,,,,,,,0,,,63,0
7911,set_tempo,35,1,0,,,,,,813229,,,,,,
7914,note_on,24,0,1,,,,,,,,0,,,72,0
7914,note_on,0,0,1,,,,,,,,0,,,79,0
7919,control_change,23,0,4,,,,,,,,0,64,0,,
7920,note_on,0,0,1,,,,,,,,0,,,70,68
7920,note_on,1,0,4,,,,,,,,0,,,62,76
7920,note_on,6,0,1,,,,,,,,0,,,77,68
7926,control_change,6,0,4,,,,,,,,0,64,127,,
7944,note_on,0,0,1,,,,,,,,0,,,77,0
7944,note_on,24,0,1,,,,,,,,0,,,70,0
7950,note_on,0,0,1,,,,,,,,0,,,74,68
7950,note_on,6,0,1,,,,,,,,0,,,78,68
7974,note_on,0,0,1,,,,,,,,0,,,78,0
7974,note_on,24,0,1,,,,,,,,0,,,74,0
7980,note_on,6,0,1,,,,,,,,0,,,77,68
7980,note_on,0,0,1,,,,,,,,0,,,70,68
7992,note_on,192,0,3,,,,,,,,0,,,65,0
8004,note_on,24,0,1,,,,,,,,0,,,70,0
8004,note_on,0,0,1,,,,,,,,0,,,77,0
8010,note_on,0,0,1,,,,,,,,0,,,74,68
8010,note_on,6,0,1,,,,,,,,0,,,79,68
8016,note_on,90,0,4,,,,,,,,0,,,62,0
8034,note_on,0,0,1,,,,,,,,0,,,79,0
8034,note_on,24,0,1,,,,,,,,0,,,74,0
8040,note_on,48,0,3,,,,,,,,0,,,65,72
8040,control_change,0,0,4,,,,,,,,0,64,0,,
8040,note_on,0,0,1,,,,,,,,0,,,77,68
8040,note_on,6,0,1,,,,,,,,0,,,69,68
8040,note_on,24,0,4,,,,,,,,0,,,60,72
8051,control_change,11,0,4,,,,,,,,0,64,127,,
8064,note_on,24,0,1,,,,,,,,0,,,77,0
8064,note_on,0,0,1,,,,,,,,0,,,69,0
8070,note_on,6,0,1,,,,,,,,0,,,75,68
8070,note_on,0,0,1,,,,,,,,0,,,78,68
8094,note_on,24,0,1,,,,,,,,0,,,78,0
8094,note_on,0,0,1,,,,,,,,0,,,75,0
8100,note_on,6,0,1,,,,,,,,0,,,69,68
8100,note_on,0,0,1,,,,,,,,0,,,77,68
8124,note_on,24,0,1,,,,,,,,0,,,77,0
8124,note_on,0,0,1,,,,,,,,0,,,69,0
8130,note_on,6,0,1,,,,,,,,0,,,75,68
8130,note_on,0,0,1,,,,,,,,0,,,79,68
8136,note_on,85,0,4,,,,,,,,0,,,60,0
8154,note_on,0,0,1,,,,,,,,0,,,75,0
8154,note_on,24,0,1,,,,,,,,0,,,79,0
8160,control_change,0,0,4,,,,,,,,0,64,0,,
8160,note_on,0,0,1,,,,,,,,0,,,77,68
8160,note_on,6,0,1,,,,,,,,0,,,70,68
8160,note_on,24,0,4,,,,,,,,0,,,58,68
8173,control_change,13,0,4,,,,,,,,0,64,127,,
8184,note_on,0,0,1,,,,,,,,0,,,70,0
8184,note_on,24,0,1,,,,,,,,0,,,77,0
8190,note_on,6,0,1,,,,,,,,0,,,74,69
8190,note_on,0,0,1,,,,,,,,0,,,78,69
8214,note_on,24,0,1,,,,,,,,0,,,78,0
8214,note_on,0,0,1,,,,,,,,0,,,74,0
8220,note_on,6,0,1,,,,,,,,0,,,78,71
8220,note_on,0,0,1,,,,,,,,0,,,70,71
8244,note_on,0,0,1,,,,,,,,0,,,78,0
8244,note_on,24,0,1,,,,,,,,0,,,70,0
8250,note_on,6,0,1,,,,,,,,0,,,74,72
8250,note_on,0,0,1,,,,,,,,0,,,79,72
8256,note_on,83,0,4,,,,,,,,0,,,58,0
8256,note_on,216,0,3,,,,,,,,0,,,65,0
8274,note_on,24,0,1,,,,,,,,0,,,79,0
8274,note_on,0,0,1,,,,,,,,0,,,74,0
8280,note_on,6,0,1,,,,,,,,0,,,80,74
8280,note_on,24,0,4,,,,,,,,0,,,65,68
8280,note_on,24,0,3,,,,,,,,0,,,62,68
8280,note_on,0,0,1,,,,,,,,0,,,74,74
8280,note_on,0,0,4,,,,,,,,0,,,53,68
8281,control_change,1,0,4,,,,,,,,0,64,0,,
8296,control_change,15,0,4,,,,,,,,0,64,127,,
8304,note_on,24,0,1,,,,,,,,0,,,74,0
8304,note_on,0,0,1,,,,,,,,0,,,80,0
8310,note_on,0,0,1,,,,,,,,0,,,81,76
8310,note_on,6,0,1,,,,,,,,0,,,77,76
8334,note_on,24,0,1,,,,,,,,0,,,81,0
8334,note_on,0,0,1,,,,,,,,0,,,77,0
8340,note_on,0,0,1,,,,,,,,0,,,74,77
8340,note_on,6,0,1,,,,,,,,0,,,81,77
8364,note_on,0,0,1,,,,,,,,0,,,81,0
8364,note_on,24,0,1,,,,,,,,0,,,74,0
8370,note_on,0,0,1,,,,,,,,0,,,82,80
8370,note_on,6,0,1,,,,,,,,0,,,77,80
8376,note_on,0,0,4,,,,,,,,0,,,65,0
8376,note_on,80,0,4,,,,,,,,0,,,53,0
8394,note_on,0,0,1,,,,,,,,0,,,77,0
8394,note_on,24,0,1,,,,,,,,0,,,82,0
8400,note_on,0,0,1,,,,,,,,0,,,72,80
8400,note_on,6,0,1,,,,,,,,0,,,82,80
8400,note_on,0,0,3,,,,,,,,0,,,63,68
8400,note_on,0,0,4,,,,,,,,0,,,65,68
8400,note_on,120,0,3,,,,,,,,0,,,62,0
8400,note_on,24,0,4,,,,,,,,0,,,53,68
8403,control_change,3,0,4,,,,,,,,0,64,0,,
8423,control_change,20,0,4,,,,,,,,0,64,127,,
8424,note_on,24,0,1,,,,,,,,0,,,72,0
8424,note_on,0,0,1,,,,,,,,0,,,82,0
8430,note_on,0,0,1,,,,,,,,0,,,75,78
8430,note_on,6,0,1,,,,,,,,0,,,81,78
8454,note_on,24,0,1,,,,,,,,0,,,75,0
8454,note_on,0,0,1,,,,,,,,0,,,81,0
8460,note_on,0,0,1,,,,,,,,0,,,81,76
8460,note_on,6,0,1,,,,,,,,0,,,72,76
8484,note_on,24,0,1,,,,,,,,0,,,81,0
8484,note_on,0,0,1,,,,,,,,0,,,72,0
8490,note_on,6,0,1,,,,,,,,0,,,80,75
8490,note_on,0,0,1,,,,,,,,0,,,75,75
8496,note_on,73,0,4,,,,,,,,0,,,65,0
8496,note_on,0,0,4,,,,,,,,0,,,53,0
8514,note_on,0,0,1,,,,,,,,0,,,80,0
8514,note_on,24,0,1,,,,,,,,0,,,75,0
8517,control_change,21,0,4,,,,,,,,0,64,0,,
8520,note_on,0,0,1,,,,,,,,0,,,80,73
8520,note_on,0,0,4,,,,,,,,0,,,63,68
8520,note_on,3,0,4,,,,,,,,0,,,65,68
8520,note_on,120,0,3,,,,,,,,0,,,63,0
8520,note_on,6,0,1,,,,,,,,0,,,72,73
8520,note_on,0,0,3,,,,,,,,0,,,57,68
8528,control_change,8,0,4,,,,,,,,0,64,127,,
8544,note_on,24,0,1,,,,,,,,0,,,80,0
8544,note_on,0,0,1,,,,,,,,0,,,72,0
8550,note_on,0,0,1,,,,,,,,0,,,79,72
8550,note_on,6,0,1,,,,,,,,0,,,75,72
8574,note_on,0,0,1,,,,,,,,0,,,75,0
8574,note_on,24,0,1,,,,,,,,0,,,79,0
8580,note_on,0,0,1,,,,,,,,0,,,72,70
8580,note_on,6,0,1,,,,,,,,0,,,79,70
8604,note_on,24,0,1,,,,,,,,0,,,72,0
8604,note_on,0,0,1,,,,,,,,0,,,79,0
8610,note_on,0,0,1,,,,,,,,0,,,78,68
8610,note_on,6,0,1,,,,,,,,0,,,75,68
8616,note_on,88,0,4,,,,,,,,0,,,63,0
8616,note_on,0,0,4,,,,,,,,0,,,65,0
8634,note_on,0,0,1,,,,,,,,0,,,75,0
8634,note_on,24,0,1,,,,,,,,0,,,78,0
8640,note_on,0,0,1,,,,,,,,0,,,77,68
8640,note_on,6,0,1,,,,,,,,0,,,70,68
8640,note_on,24,0,4,,,,,,,,0,,,58,68
8640,note_on,120,0,3,,,,,,,,0,,,57,0
8640,note_on,0,0,3,,,,,,,,0,,,62,68
8640,control_change,0,0,4,,,,,,,,0,64,0,,
8640,note_on,0,0,3,,,,,,,,0,,,65,68
8650,control_change,10,0,4,,,,,,,,0,64,127,,
8664,note_on,24,0,1,,,,,,,,0,,,77,0
8664,note_on,0,0,1,,,,,,,,0,,,70,0
8670,note_on,0,0,1,,,,,,,,0,,,78,68
8670,note_on,6,0,1,,,,,,,,0,,,74,68
8694,note_on,24,0,1,,,,,,,,0,,,78,0
8694,note_on,0,0,1,,,,,,,,0,,,74,0
8700,note_on,6,0,1,,,,,,,,0,,,70,68
8700,note_on,0,0,1,,,,,,,,0,,,77,68
8724,note_on,0,0,1,,,,,,,,0,,,70,0
8724,note_on,24,0,1,,,,,,,,0,,,77,0
8730,note_on,6,0,1,,,,,,,,0,,,74,68
8730,note_on,0,0,1,,,,,,,,0,,,79,68
8736,note_on,86,0,4,,,,,,,,0,,,58,0
8754,note_on,0,0,1,,,,,,,,0,,,74,0
8754,note_on,24,0,1,,,,,,,,0,,,79,0
8758,control_change,22,0,4,,,,,,,,0,64,0,,
8760,note_on,6,0,1,,,,,,,,0,,,77,68
8760,note_on,2,0,4,,,,,,,,0,,,63,80
8760,note_on,0,0,3,,,,,,,,0,,,65,80
8760,note_on,0,0,1,,,,,,,,0,,,69,68
8760,note_on,0,0,3,,,,,,,,0,,,62,0
8760,note_on,120,0,3,,,,,,,,0,,,65,0
8766,control_change,6,0,4,,,,,,,,0,64,127,,
8784,note_on,24,0,1,,,,,,,,0,,,69,0
8784,note_on,0,0,1,,,,,,,,0,,,77,0
8790,note_on,0,0,1,,,,,,,,0,,,72,68
8790,note_on,6,0,1,,,,,,,,0,,,78,68
8814,note_on,24,0,1,,,,,,,,0,,,72,0
8814,note_on,0,0,1,,,,,,,,0,,,78,0
8820,note_on,6,0,1,,,,,,,,0,,,77,68
8820,note_on,0,0,1,,,,,,,,0,,,69,68
8844,note_on,24,0,1,,,,,,,,0,,,69,0
8844,note_on,0,0,1,,,,,,,,0,,,77,0
8850,note_on,6,0,1,,,,,,,,0,,,79,68
8850,note_on,0,0,1,,,,,,,,0,,,72,68
8856,note_on,90,0,4,,,,,,,,0,,,63,0
8874,note_on,24,0,1,,,,,,,,0,,,72,0
8874,note_on,0,0,1,,,,,,,,0,,,79,0
8880,note_on,24,0,4,,,,,,,,0,,,62,76
8880,note_on,0,0,1,,,,,,,,0,,,77,68
8880,note_on,6,0,1,,,,,,,,0,,,70,68
8881,control_change,1,0,4,,,,,,,,0,64,0,,
8892,control_change,11,0,4,,,,,,,,0,64,127,,
8904,note_on,0,0,1,,,,,,,,0,,,70,0
8904,note_on,24,0,1,,,,,,,,0,,,77,0
8910,note_on,0,0,1,,,,,,,,0,,,74,68
8910,note_on,6,0,1,,,,,,,,0,,,78,68
8934,note_on,24,0,1,,,,,,,,0,,,74,0
8934,note_on,0,0,1,,,,,,,,0,,,78,0
8940,note_on,6,0,1,,,,,,,,0,,,77,68
8940,note_on,0,0,1,,,,,,,,0,,,70,68
8964,note_on,0,0,1,,,,,,,,0,,,77,0
8964,note_on,24,0,1,,,,,,,,0,,,70,0
8970,note_on,6,0,1,,,,,,,,0,,,79,68
8970,note_on,0,0,1,,,,,,,,0,,,74,68
8976,note_on,84,0,4,,,,,,,,0,,,62,0
8994,note_on,0,0,1,,,,,,,,0,,,79,0
8994,note_on,24,0,1,,,,,,,,0,,,74,0
8998,control_change,22,0,4,,,,,,,,0,64,0,,
9000,note_on,0,0,1,,,,,,,,0,,,77,68
9000,note_on,0,0,3,,,,,,,,0,,,65,72
9000,note_on,2,0,4,,,,,,,,0,,,60,72
9000,note_on,240,0,3,,,,,,,,0,,,65,0
9000,note_on,6,0,1,,,,,,,,0,,,69,68
9013,control_change,13,0,4,,,,,,,,0,64,127,,
9024,note_on,0,0,1,,,,,,,,0,,,69,0
9024,note_on,24,0,1,,,,,,,,0,,,77,0
9030,note_on,6,0,1,,,,,,,,0,,,78,68
9030,note_on,0,0,1,,,,,,,,0,,,75,68
9054,note_on,24,0,1,,,,,,,,0,,,75,0
9054,note_on,0,0,1,,,,,,,,0,,,78,0
9060,note_on,6,0,1,,,,,,,,0,,,77,68
9060,note_on,0,0,1,,,,,,,,0,,,69,68
9084,note_on,0,0,1,,,,,,,,0,,,77,0
9084,note_on,24,0,1,,,,,,,,0,,,69,0
9090,note_on,0,0,1,,,,,,,,0,,,75,68
9090,note_on,6,0,1,,,,,,,,0,,,79,68
9096,note_on,83,0,4,,,,,,,,0,,,60,0
9114,note_on,24,0,1,,,,,,,,0,,,75,0
9114,note_on,0,0,1,,,,,,,,0,,,79,0
9120,note_on,6,0,1,,,,,,,,0,,,70,65
9120,note_on,24,0,4,,,,,,,,0,,,58,68
9120,control_change,0,0,4,,,,,,,,0,64,0,,
9120,note_on,0,0,1,,,,,,,,0,,,77,65
9134,control_change,14,0,4,,,,,,,,0,64,127,,
9144,note_on,0,0,1,,,,,,,,0,,,70,0
9144,note_on,24,0,1,,,,,,,,0,,,77,0
9150,note_on,6,0,1,,,,,,,,0,,,78,60
9150,note_on,0,0,1,,,,,,,,0,,,74,60
9174,note_on,0,0,1,,,,,,,,0,,,78,0
9174,note_on,24,0,1,,,,,,,,0,,,74,0
9180,note_on,0,0,1,,,,,,,,0,,,78,63
9180,note_on,6,0,1,,,,,,,,0,,,70,63
9204,note_on,24,0,1,,,,,,,,0,,,78,0
9204,note_on,0,0,1,,,,,,,,0,,,70,0
9210,note_on,0,0,1,,,,,,,,0,,,74,66
9210,note_on,6,0,1,,,,,,,,0,,,79,66
9216,note_on,82,0,4,,,,,,,,0,,,58,0
9234,note_on,0,0,1,,,,,,,,0,,,79,0
9234,note_on,24,0,1,,,,,,,,0,,,74,0
9240,note_on,0,0,3,,,,,,,,0,,,65,68
9240,note_on,0,0,3,,,,,,,,0,,,53,68
9240,note_on,6,0,1,,,,,,,,0,,,74,68
9240,note_on,24,0,4,,,,,,,,0,,,62,68
9240,note_on,240,0,3,,,,,,,,0,,,65,0
9240,note_on,0,0,1,,,,,,,,0,,,80,68
9245,control_change,5,0,4,,,,,,,,0,64,0,,
9254,control_change,9,0,4,,,,,,,,0,64,127,,
9264,note_on,0,0,1,,,,,,,,0,,,74,0
9264,note_on,24,0,1,,,,,,,,0,,,80,0
9270,note_on,0,0,1,,,,,,,,0,,,81,72
9270,note_on,6,0,1,,,,,,,,0,,,77,72
9294,note_on,0,0,1,,,,,,,,0,,,77,0
9294,note_on,24,0,1,,,,,,,,0,,,81,0
9300,note_on,0,0,1,,,,,,,,0,,,81,75
9300,note_on,6,0,1,,,,,,,,0,,,74,75
9324,note_on,0,0,1,,,,,,,,0,,,74,0
9324,note_on,24,0,1,,,,,,,,0,,,81,0
9330,note_on,6,0,1,,,,,,,,0,,,82,80
9330,note_on,0,0,1,,,,,,,,0,,,77,80
9336,note_on,82,0,4,,,,,,,,0,,,62,0
9354,note_on,0,0,1,,,,,,,,0,,,82,0
9354,note_on,24,0,1,,,,,,,,0,,,77,0
9360,note_on,0,0,3,,,,,,,,0,,,53,68
9360,note_on,0,0,3,,,,,,,,0,,,65,0
9360,note_on,0,0,1,,,,,,,,0,,,72,80
9360,note_on,24,0,4,,,,,,,,0,,,63,68
9360,note_on,6,0,1,,,,,,,,0,,,82,80
9360,note_on,120,0,3,,,,,,,,0,,,53,0
9360,note_on,0,0,3,,,,,,,,0,,,65,68
9361,control_change,1,0,4,,,,,,,,0,64,0,,
9376,control_change,15,0,4,,,,,,,,0,64,127,,
9384,note_on,0,0,1,,,,,,,,0,,,82,0
9384,note_on,24,0,1,,,,,,,,0,,,72,0
9390,note_on,0,0,1,,,,,,,,0,,,81,78
9390,note_on,6,0,1,,,,,,,,0,,,75,78
9414,note_on,0,0,1,,,,,,,,0,,,75,0
9414,note_on,24,0,1,,,,,,,,0,,,81,0
9420,note_on,0,0,1,,,,,,,,0,,,72,76
9420,note_on,6,0,1,,,,,,,,0,,,81,76
9444,note_on,0,0,1,,,,,,,,0,,,81,0
9444,note_on,24,0,1,,,,,,,,0,,,72,0
9450,note_on,0,0,1,,,,,,,,0,,,80,75
9450,note_on,6,0,1,,,,,,,,0,,,75,75
9456,note_on,80,0,4,,,,,,,,0,,,63,0
9474,note_on,24,0,1,,,,,,,,0,,,80,0
9474,note_on,0,0,1,,,,,,,,0,,,75,0
9480,note_on,24,0,4,,,,,,,,0,,,63,68
9480,note_on,0,0,1,,,,,,,,0,,,80,73
9480,note_on,120,0,3,,,,,,,,0,,,65,0
9480,note_on,0,0,4,,,,,,,,0,,,65,68
9480,note_on,0,0,3,,,,,,,,0,,,57,68
9480,note_on,0,0,3,,,,,,,,0,,,53,0
9480,control_change,0,0,4,,,,,,,,0,64,0,,
9480,note_on,6,0,1,,,,,,,,0,,,72,73
9497,control_change,17,0,4,,,,,,,,0,64,127,,
9504,note_on,24,0,1,,,,,,,,0,,,80,0
9504,note_on,0,0,1,,,,,,,,0,,,72,0
9510,note_on,6,0,1,,,,,,,,0,,,79,72
9510,note_on,0,0,1,,,,,,,,0,,,75,72
9534,note_on,24,0,1,,,,,,,,0,,,75,0
9534,note_on,0,0,1,,,,,,,,0,,,79,0
9540,note_on,0,0,1,,,,,,,,0,,,79,70
9540,note_on,6,0,1,,,,,,,,0,,,72,70
9564,note_on,0,0,1,,,,,,,,0,,,72,0
9564,note_on,24,0,1,,,,,,,,0,,,79,0
9570,note_on,0,0,1,,,,,,,,0,,,78,68
9570,note_on,6,0,1,,,,,,,,0,,,75,68
9576,note_on,79,0,4,,,,,,,,0,,,65,0
9576,note_on,0,0,4,,,,,,,,0,,,63,0
9594,note_on,0,0,1,,,,,,,,0,,,75,0
9594,note_on,24,0,1,,,,,,,,0,,,78,0
9600,note_on,0,0,4,,,,,,,,0,,,62,68
9600,note_on,120,0,3,,,,,,,,0,,,57,0
9600,note_on,24,0,4,,,,,,,,0,,,65,68
9600,note_on,0,0,1,,,,,,,,0,,,77,68
9600,note_on,0,0,3,,,,,,,,0,,,58,68
9600,control_change,0,0,4,,,,,,,,0,64,0,,
9600,note_on,6,0,1,,,,,,,,0,,,74,68
9623,control_change,23,0,4,,,,,,,,0,64,127,,
9624,note_on,24,0,1,,,,,,,,0,,,77,0
9624,note_on,0,0,1,,,,,,,,0,,,74,0
9630,note_on,6,0,1,,,,,,,,0,,,78,68
9630,note_on,0,0,1,,,,,,,,0,,,70,68
9654,note_on,24,0,1,,,,,,,,0,,,70,0
9654,note_on,0,0,1,,,,,,,,0,,,78,0
9660,note_on,6,0,1,,,,,,,,0,,,77,68
9660,note_on,0,0,1,,,,,,,,0,,,74,68
9684,note_on,0,0,1,,,,,,,,0,,,77,0
9684,note_on,24,0,1,,,,,,,,0,,,74,0
9690,note_on,6,0,1,,,,,,,,0,,,81,68
9696,note_on,0,0,4,,,,,,,,0,,,65,0
9696,note_on,73,0,4,,,,,,,,0,,,62,0
9714,note_on,24,0,1,,,,,,,,0,,,81,0
9716,control_change,20,0,4,,,,,,,,0,64,0,,
9720,note_on,0,0,1,,,,,,,,0,,,82,68
9720,note_on,4,0,4,,,,,,,,0,,,70,80
9720,note_on,120,0,3,,,,,,,,0,,,58,0
9720,note_on,0,0,3,,,,,,,,0,,,68,80
9720,note_on,6,0,1,,,,,,,,0,,,74,68
9729,control_change,9,0,4,,,,,,,,0,64,127,,
9744,note_on,0,0,1,,,,,,,,0,,,74,0
9744,note_on,24,0,1,,,,,,,,0,,,82,0
9750,note_on,6,0,1,,,,,,,,0,,,77,68
9750,note_on,0,0,1,,,,,,,,0,,,83,68
9774,note_on,24,0,1,,,,,,,,0,,,83,0
9774,note_on,0,0,1,,,,,,,,0,,,77,0
9780,note_on,6,0,1,,,,,,,,0,,,82,68
9780,note_on,0,0,1,,,,,,,,0,,,74,68
9804,note_on,24,0,1,,,,,,,,0,,,74,0
9804,note_on,0,0,1,,,,,,,,0,,,82,0
9810,note_on,0,0,1,,,,,,,,0,,,77,68
9810,note_on,6,0,1,,,,,,,,0,,,83,68
9834,note_on,24,0,1,,,,,,,,0,,,77,0
9834,note_on,0,0,1,,,,,,,,0,,,83,0
9838,control_change,109,0,4,,,,,,,,0,64,0,,
9840,note_on,0,0,1,,,,,,,,0,,,75,68
9840,note_on,0,0,3,,,,,,,,0,,,66,75
9840,note_on,120,0,3,,,,,,,,0,,,68,0
9840,note_on,6,0,1,,,,,,,,0,,,82,68
9854,control_change,16,0,4,,,,,,,,0,64,127,,
9864,note_on,24,0,1,,,,,,,,0,,,75,0
9864,note_on,0,0,1,,,,,,,,0,,,82,0
9870,note_on,0,0,1,,,,,,,,0,,,83,68
9870,note_on,6,0,1,,,,,,,,0,,,78,68
9894,note_on,24,0,1,,,,,,,,0,,,83,0
9894,note_on,0,0,1,,,,,,,,0,,,78,0
9900,note_on,6,0,1,,,,,,,,0,,,82,68
9900,note_on,0,0,1,,,,,,,,0,,,75,68
9912,note_on,58,0,4,,,,,,,,0,,,70,0
9924,note_on,24,0,1,,,,,,,,0,,,75,0
9924,note_on,0,0,1,,,,,,,,0,,,82,0
9930,note_on,0,0,1,,,,,,,,0,,,83,68
9930,note_on,6,0,1,,,,,,,,0,,,78,68
9954,note_on,24,0,1,,,,,,,,0,,,83,0
9954,note_on,0,0,1,,,,,,,,0,,,78,0
9960,note_on,0,0,3,,,,,,,,0,,,65,70
9960,note_on,120,0,3,,,,,,,,0,,,66,0
9960,note_on,6,0,1,,,,,,,,0,,,74,68
9960,note_on,48,0,4,,,,,,,,0,,,70,70
9960,note_on,0,0,1,,,,,,,,0,,,82,68
9962,control_change,2,0,4,,,,,,,,0,64,0,,
9979,control_change,17,0,4,,,,,,,,0,64,127,,
9984,note_on,0,0,1,,,,,,,,0,,,74,0
9984,note_on,24,0,1,,,,,,,,0,,,82,0
9990,note_on,0,0,1,,,,,,,,0,,,83,68
9990,note_on,6,0,1,,,,,,,,0,,,80,68
10014,note_on,0,0,1,,,,,,,,0,,,80,0
10014,note_on,24,0,1,,,,,,,,0,,,83,0
10020,note_on,0,0,1,,,,,,,,0,,,82,68
10020,note_on,6,0,1,,,,,,,,0,,,74,68
10044,note_on,0,0,1,,,,,,,,0,,,74,0
10044,note_on,24,0,1,,,,,,,,0,,,82,0
10050,note_on,6,0,1,,,,,,,,0,,,80,68
10050,note_on,0,0,1,,,,,,,,0,,,83,68
10056,note_on,77,0,4,,,,,,,,0,,,70,0
10074,note_on,0,0,1,,,,,,,,0,,,80,0
10074,note_on,24,0,1,,,,,,,,0,,,83,0
10080,note_on,0,0,1,,,,,,,,0,,,75,68
10080,note_on,24,0,4,,,,,,,,0,,,63,65
10080,note_on,120,0,3,,,,,,,,0,,,65,0
10080,note_on,6,0,1,,,,,,,,0,,,82,68
10080,control_change,0,0,4,,,,,,,,0,64,0,,
10080,note_on,0,0,3,,,,,,,,0,,,70,65
10104,note_on,24,0,1,,,,,,,,0,,,75,0
10104,note_on,0,0,1,,,,,,,,0,,,82,0
10105,control_change,25,0,4,,,,,,,,0,64,127,,
10110,note_on,0,0,1,,,,,,,,0,,,78,69
10110,note_on,6,0,1,,,,,,,,0,,,83,69
10134,note_on,0,0,1,,,,,,,,0,,,83,0
10134,note_on,24,0,1,,,,,,,,0,,,78,0
10140,note_on,0,0,1,,,,,,,,0,,,83,71
10140,note_on,6,0,1,,,,,,,,0,,,75,71
10164,note_on,0,0,1,,,,,,,,0,,,75,0
10164,note_on,24,0,1,,,,,,,,0,,,83,0
10170,note_on,6,0,1,,,,,,,,0,,,84,72
10170,note_on,0,0,1,,,,,,,,0,,,78,72
10176,note_on,96,0,3,,,,,,,,0,,,70,0
10176,note_on,71,0,4,,,,,,,,0,,,63,0
10194,note_on,0,0,1,,,,,,,,0,,,84,0
10194,note_on,24,0,1,,,,,,,,0,,,78,0
10200,note_on,24,0,3,,,,,,,,0,,,58,68
10200,note_on,0,0,3,,,,,,,,0,,,70,68
10200,note_on,6,0,1,,,,,,,,0,,,78,74
10200,note_on,24,0,4,,,,,,,,0,,,66,68
10200,note_on,0,0,1,,,,,,,,0,,,85,74
10207,control_change,7,0,4,,,,,,,,0,64,0,,
10219,control_change,12,0,4,,,,,,,,0,64,127,,
10224,note_on,0,0,1,,,,,,,,0,,,78,0
10224,note_on,24,0,1,,,,,,,,0,,,85,0
10230,note_on,0,0,1,,,,,,,,0,,,82,76
10230,note_on,6,0,1,,,,,,,,0,,,86,76
10254,note_on,0,0,1,,,,,,,,0,,,86,0
10254,note_on,24,0,1,,,,,,,,0,,,82,0
10260,note_on,0,0,1,,,,,,,,0,,,86,77
10260,note_on,6,0,1,,,,,,,,0,,,78,77
10284,note_on,0,0,1,,,,,,,,0,,,78,0
10284,note_on,24,0,1,,,,,,,,0,,,86,0
10290,note_on,0,0,1,,,,,,,,0,,,82,80
10290,note_on,6,0,1,,,,,,,,0,,,87,80
10296,note_on,77,0,4,,,,,,,,0,,,66,0
10296,note_on,0,0,3,,,,,,,,0,,,58,0
10296,note_on,96,0,3,,,,,,,,0,,,70,0
10314,note_on,0,0,1,,,,,,,,0,,,87,0
10314,note_on,24,0,1,,,,,,,,0,,,82,0
10315,control_change,19,0,4,,,,,,,,0,64,0,,
10320,note_on,0,0,1,,,,,,,,0,,,87,80
10320,note_on,0,0,3,,,,,,,,0,,,58,68
10320,note_on,24,0,3,,,,,,,,0,,,70,68
10320,note_on,5,0,4,,,,,,,,0,,,68,68
10320,note_on,6,0,1,,,,,,,,0,,,77,80
10341,control_change,21,0,4,,,,,,,,0,64,127,,
10344,note_on,0,0,1,,,,,,,,0,,,77,0
10344,note_on,24,0,1,,,,,,,,0,,,87,0
10350,note_on,6,0,1,,,,,,,,0,,,86,78
10350,note_on,0,0,1,,,,,,,,0,,,80,78
10374,note_on,24,0,1,,,,,,,,0,,,80,0
10374,note_on,0,0,1,,,,,,,,0,,,86,0
10380,note_on,0,0,1,,,,,,,,0,,,86,76
10380,note_on,6,0,1,,,,,,,,0,,,77,76
10404,note_on,0,0,1,,,,,,,,0,,,77,0
10404,note_on,24,0,1,,,,,,,,0,,,86,0
10410,note_on,6,0,1,,,,,,,,0,,,85,75
10410,note_on,0,0,1,,,,,,,,0,,,80,75
10416,note_on,96,0,3,,,,,,,,0,,,58,0
10416,note_on,75,0,4,,,,,,,,0,,,68,0
10416,note_on,0,0,3,,,,,,,,0,,,70,0
10434,note_on,0,0,1,,,,,,,,0,,,85,0
10434,note_on,24,0,1,,,,,,,,0,,,80,0
10440,note_on,24,0,3,,,,,,,,0,,,62,68
10440,note_on,0,0,1,,,,,,,,0,,,85,73
10440,note_on,24,0,4,,,,,,,,0,,,68,68
10440,note_on,6,0,1,,,,,,,,0,,,77,73
10440,note_on,0,0,4,,,,,,,,0,,,70,68
10442,control_change,2,0,4,,,,,,,,0,64,0,,
10458,control_change,16,0,4,,,,,,,,0,64,127,,
10464,note_on,24,0,1,,,,,,,,0,,,85,0
10464,note_on,0,0,1,,,,,,,,0,,,77,0
10470,note_on,0,0,1,,,,,,,,0,,,80,72
10470,note_on,6,0,1,,,,,,,,0,,,84,72
10494,note_on,24,0,1,,,,,,,,0,,,80,0
10494,note_on,0,0,1,,,,,,,,0,,,84,0
10500,note_on,0,0,1,,,,,,,,0,,,84,70
10500,note_on,6,0,1,,,,,,,,0,,,77,70
10524,note_on,24,0,1,,,,,,,,0,,,84,0
10524,note_on,0,0,1,,,,,,,,0,,,77,0
10530,note_on,0,0,1,,,,,,,,0,,,80,68
10530,note_on,6,0,1,,,,,,,,0,,,83,68
10536,note_on,78,0,4,,,,,,,,0,,,70,0
10536,note_on,0,0,4,,,,,,,,0,,,68,0
10536,note_on,96,0,3,,,,,,,,0,,,62,0
10554,note_on,24,0,1,,,,,,,,0,,,80,0
10554,note_on,0,0,1,,,,,,,,0,,,83,0
10560,note_on,24,0,4,,,,,,,,0,,,70,68
10560,control_change,0,0,4,,,,,,,,0,64,0,,
10560,note_on,24,0,3,,,,,,,,0,,,63,68
10560,note_on,6,0,1,,,,,,,,0,,,78,68
10560,note_on,0,0,4,,,,,,,,0,,,66,68
10560,note_on,0,0,1,,,,,,,,0,,,82,68
10583,control_change,23,0,4,,,,,,,,0,64,127,,
10584,note_on,24,0,1,,,,,,,,0,,,82,0
10584,note_on,0,0,1,,,,,,,,0,,,78,0
10590,note_on,6,0,1,,,,,,,,0,,,75,68
10590,note_on,0,0,1,,,,,,,,0,,,83,68
10614,note_on,0,0,1,,,,,,,,0,,,75,0
10614,note_on,24,0,1,,,,,,,,0,,,83,0
10620,note_on,0,0,1,,,,,,,,0,,,82,68
10620,note_on,6,0,1,,,,,,,,0,,,78,68
10644,note_on,0,0,1,,,,,,,,0,,,78,0
10644,note_on,24,0,1,,,,,,,,0,,,82,0
10650,note_on,6,0,1,,,,,,,,0,,,83,68
10650,note_on,0,0,1,,,,,,,,0,,,75,68
10656,note_on,0,0,4,,,,,,,,0,,,70,0
10656,note_on,73,0,4,,,,,,,,0,,,66,0
10673,control_change,17,0,4,,,,,,,,0,64,0,,
10674,note_on,24,0,1,,,,,,,,0,,,75,0
10674,note_on,0,0,1,,,,,,,,0,,,83,0
10680,note_on,0,0,3,,,,,,,,0,,,68,85
10680,note_on,120,0,3,,,,,,,,0,,,63,0
10680,note_on,7,0,4,,,,,,,,0,,,70,85
10680,note_on,6,0,1,,,,,,,,0,,,74,68
10680,note_on,0,0,1,,,,,,,,0,,,82,68
10694,control_change,14,0,4,,,,,,,,0,64,127,,
10704,note_on,24,0,1,,,,,,,,0,,,82,0
10704,note_on,0,0,1,,,,,,,,0,,,74,0
10710,note_on,6,0,1,,,,,,,,0,,,83,68
10710,note_on,0,0,1,,,,,,,,0,,,77,68
10734,note_on,0,0,1,,,,,,,,0,,,83,0
10734,note_on,24,0,1,,,,,,,,0,,,77,0
10740,note_on,6,0,1,,,,,,,,0,,,82,68
10740,note_on,0,0,1,,,,,,,,0,,,74,68
10764,note_on,0,0,1,,,,,,,,0,,,82,0
10764,note_on,24,0,1,,,,,,,,0,,,74,0
10770,note_on,0,0,1,,,,,,,,0,,,77,68
10770,note_on,6,0,1,,,,,,,,0,,,83,68
10794,note_on,24,0,1,,,,,,,,0,,,77,0
10794,note_on,0,0,1,,,,,,,,0,,,83,0
10796,control_change,102,0,4,,,,,,,,0,64,0,,
10800,note_on,0,0,1,,,,,,,,0,,,75,68
10800,note_on,0,0,3,,,,,,,,0,,,66,80
10800,note_on,120,0,3,,,,,,,,0,,,68,0
10800,note_on,6,0,1,,,,,,,,0,,,82,68
10807,control_change,11,0,4,,,,,,,,0,64,127,,
10824,note_on,0,0,1,,,,,,,,0,,,82,0
10824,note_on,24,0,1,,,,,,,,0,,,75,0
10830,note_on,6,0,1,,,,,,,,0,,,78,68
10830,note_on,0,0,1,,,,,,,,0,,,83,68
10854,note_on,0,0,1,,,,,,,,0,,,78,0
10854,note_on,24,0,1,,,,,,,,0,,,83,0
10860,note_on,0,0,1,,,,,,,,0,,,82,68
10860,note_on,6,0,1,,,,,,,,0,,,75,68
10872,note_on,65,0,4,,,,,,,,0,,,70,0
10884,note_on,0,0,1,,,,,,,,0,,,75,0
10884,note_on,24,0,1,,,,,,,,0,,,82,0
10890,note_on,0,0,1,,,,,,,,0,,,78,68
10890,note_on,6,0,1,,,,,,,,0,,,83,68
10914,note_on,24,0,1,,,,,,,,0,,,78,0
10914,note_on,0,0,1,,,,,,,,0,,,83,0
10920,note_on,0,0,3,,,,,,,,0,,,65,74
10920,note_on,6,0,1,,,,,,,,0,,,74,68
10920,note_on,48,0,4,,,,,,,,0,,,70,74
10920,note_on,0,0,1,,,,,,,,0,,,82,68
10920,note_on,120,0,3,,,,,,,,0,,,66,0
10922,control_change,2,0,4,,,,,,,,0,64,0,,
10936,control_change,14,0,4,,,,,,,,0,64,127,,
10944,note_on,24,0,1,,,,,,,,0,,,82,0
10944,note_on,0,0,1,,,,,,,,0,,,74,0
10950,note_on,0,0,1,,,,,,,,0,,,80,68
10950,note_on,6,0,1,,,,,,,,0,,,83,68
10974,note_on,0,0,1,,,,,,,,0,,,83,0
10974,note_on,24,0,1,,,,,,,,0,,,80,0
10980,note_on,0,0,1,,,,,,,,0,,,82,68
10980,note_on,6,0,1,,,,,,,,0,,,74,68
11004,note_on,24,0,1,,,,,,,,0,,,82,0
11004,note_on,0,0,1,,,,,,,,0,,,74,0
11010,note_on,0,0,1,,,,,,,,0,,,83,68
11010,note_on,6,0,1,,,,,,,,0,,,80,68
11016,note_on,80,0,4,,,,,,,,0,,,70,0
11034,note_on,0,0,1,,,,,,,,0,,,80,0
11034,note_on,24,0,1,,,,,,,,0,,,83,0
11040,note_on,0,0,1,,,,,,,,0,,,75,68
11040,note_on,0,0,4,,,,,,,,0,,,63,68
11040,control_change,24,0,4,,,,,,,,0,64,0,,
11040,note_on,6,0,1,,,,,,,,0,,,82,68
11040,note_on,0,0,3,,,,,,,,0,,,70,68
11040,note_on,120,0,3,,,,,,,,0,,,65,0
11058,control_change,18,0,4,,,,,,,,0,64,127,,
11064,note_on,24,0,1,,,,,,,,0,,,75,0
11064,note_on,0,0,1,,,,,,,,0,,,82,0
11070,note_on,6,0,1,,,,,,,,0,,,83,68
11070,note_on,0,0,1,,,,,,,,0,,,78,68
11094,note_on,0,0,1,,,,,,,,0,,,83,0
11094,note_on,24,0,1,,,,,,,,0,,,78,0
11100,note_on,0,0,1,,,,,,,,0,,,75,69
11100,note_on,6,0,1,,,,,,,,0,,,83,69
11124,note_on,24,0,1,,,,,,,,0,,,75,0
11124,note_on,0,0,1,,,,,,,,0,,,83,0
11130,note_on,6,0,1,,,,,,,,0,,,84,70
11130,note_on,0,0,1,,,,,,,,0,,,78,70
11136,note_on,78,0,4,,,,,,,,0,,,63,0
11136,note_on,96,0,3,,,,,,,,0,,,70,0
11154,note_on,24,0,1,,,,,,,,0,,,78,0
11154,note_on,0,0,1,,,,,,,,0,,,84,0
11160,control_change,0,0,4,,,,,,,,0,64,0,,
11160,note_on,24,0,3,,,,,,,,0,,,58,72
11160,note_on,24,0,4,,,,,,,,0,,,66,72
11160,note_on,0,0,3,,,,,,,,0,,,70,72
11160,note_on,6,0,1,,,,,,,,0,,,78,71
11160,note_on,0,0,1,,,,,,,,0,,,85,71
11178,control_change,18,0,4,,,,,,,,0,64,127,,
11184,note_on,0,0,1,,,,,,,,0,,,78,0
11184,note_on,24,0,1,,,,,,,,0,,,85,0
11190,note_on,6,0,1,,,,,,,,0,,,86,72
11190,note_on,0,0,1,,,,,,,,0,,,82,72
11214,note_on,24,0,1,,,,,,,,0,,,82,0
11214,note_on,0,0,1,,,,,,,,0,,,86,0
11220,note_on,0,0,1,,,,,,,,0,,,78,72
11220,note_on,6,0,1,,,,,,,,0,,,86,72
11244,note_on,0,0,1,,,,,,,,0,,,86,0
11244,note_on,24,0,1,,,,,,,,0,,,78,0
11250,note_on,0,0,1,,,,,,,,0,,,87,73
11250,note_on,6,0,1,,,,,,,,0,,,82,73
11256,note_on,0,0,3,,,,,,,,0,,,58,0
11256,note_on,78,0,4,,,,,,,,0,,,66,0
11256,note_on,96,0,3,,,,,,,,0,,,70,0
11274,note_on,24,0,1,,,,,,,,0,,,87,0
11274,note_on,0,0,1,,,,,,,,0,,,82,0
11278,control_change,22,0,4,,,,,,,,0,64,0,,
11280,note_on,24,0,3,,,,,,,,0,,,58,76
11280,note_on,0,0,3,,,,,,,,0,,,70,76
11280,note_on,0,0,1,,,,,,,,0,,,77,74
11280,note_on,6,0,1,,,,,,,,0,,,87,74
11280,note_on,2,0,4,,,,,,,,0,,,68,76
11298,control_change,18,0,4,,,,,,,,0,64,127,,
11304,note_on,24,0,1,,,,,,,,0,,,77,0
11304,note_on,0,0,1,,,,,,,,0,,,87,0
11310,note_on,0,0,1,,,,,,,,0,,,80,75
11310,note_on,6,0,1,,,,,,,,0,,,86,75
11334,note_on,0,0,1,,,,,,,,0,,,86,0
11334,note_on,24,0,1,,,,,,,,0,,,80,0
11340,note_on,0,0,1,,,,,,,,0,,,86,76
11340,note_on,6,0,1,,,,,,,,0,,,77,76
11364,note_on,0,0,1,,,,,,,,0,,,77,0
11364,note_on,24,0,1,,,,,,,,0,,,86,0
11370,note_on,0,0,1,,,,,,,,0,,,80,76
11370,note_on,6,0,1,,,,,,,,0,,,85,76
11376,note_on,78,0,4,,,,,,,,0,,,68,0
11376,note_on,0,0,3,,,,,,,,0,,,58,0
11376,note_on,96,0,3,,,,,,,,0,,,70,0
11394,note_on,0,0,1,,,,,,,,0,,,85,0
11394,note_on,24,0,1,,,,,,,,0,,,80,0
11400,note_on,24,0,3,,,,,,,,0,,,62,80
11400,note_on,0,0,4,,,,,,,,0,,,70,80
11400,note_on,24,0,4,,,,,,,,0,,,68,80
11400,note_on,6,0,1,,,,,,,,0,,,77,77
11400,note_on,0,0,1,,,,,,,,0,,,85,77
11404,control_change,4,0,4,,,,,,,,0,64,0,,
11418,control_change,14,0,4,,,,,,,,0,64,127,,
11424,note_on,0,0,1,,,,,,,,0,,,77,0
11424,note_on,24,0,1,,,,,,,,0,,,85,0
11430,note_on,0,0,1,,,,,,,,0,,,80,78
11430,note_on,6,0,1,,,,,,,,0,,,84,78
11454,note_on,24,0,1,,,,,,,,0,,,80,0
11454,note_on,0,0,1,,,,,,,,0,,,84,0
11460,note_on,6,0,1,,,,,,,,0,,,77,79
11460,note_on,0,0,1,,,,,,,,0,,,84,79
11484,note_on,24,0,1,,,,,,,,0,,,84,0
11484,note_on,0,0,1,,,,,,,,0,,,77,0
11490,note_on,0,0,1,,,,,,,,0,,,80,80
11490,note_on,6,0,1,,,,,,,,0,,,83,80
11496,note_on,0,0,4,,,,,,,,0,,,68,0
11496,note_on,78,0,4,,,,,,,,0,,,70,0
11496,note_on,96,0,3,,,,,,,,0,,,62,0
11513,set_tempo,3602,1,0,,,,,,802461,,,,,,
11514,note_on,24,0,1,,,,,,,,0,,,80,0
11514,note_on,0,0,1,,,,,,,,0,,,83,0
11520,note_on,8544,0,2,,,,,,,,0,,,63,80
11520,note_on,0,0,1,,,,,,,,0,,,82,80
11520,note_on,6,0,1,,,,,,,,0,,,78,80
11520,note_on,0,0,2,,,,,,,,0,,,66,80
11520,note_on,0,0,2,,,,,,,,0,,,70,80
11520,control_change,24,0,4,,,,,,,,0,64,0,,
11526,set_tempo,13,1,0,,,,,,813229,,,,,,
11535,set_tempo,9,1,0,,,,,,824289,,,,,,
11540,control_change,20,0,4,,,,,,,,0,64,127,,
11544,note_on,24,0,1,,,,,,,,0,,,82,0
11544,note_on,0,0,1,,,,,,,,0,,,78,0
11548,set_tempo,13,1,0,,,,,,835655,,,,,,
11550,note_on,0,0,1,,,,,,,,0,,,83,80
11550,note_on,6,0,1,,,,,,,,0,,,75,80
11556,set_tempo,8,1,0,,,,,,847338,,,,,,
11570,set_tempo,14,1,0,,,,,,859353,,,,,,
11574,note_on,24,0,1,,,,,,,,0,,,83,0
11574,note_on,0,0,1,,,,,,,,0,,,75,0
11578,set_tempo,8,1,0,,,,,,871713,,,,,,
11580,note_on,6,0,1,,,,,,,,0,,,82,80
11580,note_on,0,0,1,,,,,,,,0,,,78,80
11591,set_tempo,13,1,0,,,,,,884434,,,,,,
11600,set_tempo,9,1,0,,,,,,897532,,,,,,
11604,note_on,24,0,1,,,,,,,,0,,,78,0
11604,note_on,0,0,1,,,,,,,,0,,,82,0
11609,set_tempo,9,1,0,,,,,,911023,,,,,,
11610,note_on,6,0,1,,,,,,,,0,,,87,80
11616,note_on,0,0,2,,,,,,,,0,,,63,0
11616,note_on,96,0,2,,,,,,,,0,,,66,0
11616,note_on,0,0,2,,,,,,,,0,,,70,0
11622,set_tempo,13,1,0,,,,,,924927,,,,,,
11631,set_tempo,9,1,0,,,,,,939261,,,,,,
11634,note_on,24,0,1,,,,,,,,0,,,87,0
11635,control_change,95,0,4,,,,,,,,0,64,0,,
11640,note_on,6,0,1,,,,,,,,0,,,78,80
11640,note_on,0,0,4,,,,,,,,0,,,61,80
11640,note_on,0,0,4,,,,,,,,0,,,54,80
11640,note_on,5,0,4,,,,,,,,0,,,46,80
11640,note_on,24,0,2,,,,,,,,0,,,90,80
11644,set_tempo,13,1,0,,,,,,954047,,,,,,
11646,control_change,6,0,4,,,,,,,,0,64,127,,
11652,set_tempo,8,1,0,,,,,,969305,,,,,,
11664,note_on,24,0,1,,,,,,,,0,,,78,0
11666,set_tempo,14,1,0,,,,,,985060,,,,,,
11670,note_on,0,0,1,,,,,,,,0,,,87,80
11670,note_on,6,0,1,,,,,,,,0,,,85,80
11674,set_tempo,8,1,0,,,,,,1001335,,,,,,
11683,set_tempo,9,1,0,,,,,,1018157,,,,,,
11694,note_on,24,0,1,,,,,,,,0,,,87,0
11694,note_on,0,0,1,,,,,,,,0,,,85,0
11696,set_tempo,13,1,0,,,,,,1001335,,,,,,
11700,note_on,6,0,1,,,,,,,,0,,,78,80
11700,note_on,0,0,1,,,,,,,,0,,,90,80
11709,set_tempo,13,1,0,,,,,,985060,,,,,,
11712,note_on,72,0,2,,,,,,,,0,,,90,0
11722,set_tempo,13,1,0,,,,,,969305,,,,,,
11724,note_on,0,0,1,,,,,,,,0,,,78,0
11724,note_on,24,0,1,,,,,,,,0,,,90,0
11730,note_on,18,0,2,,,,,,,,0,,,88,80
11730,note_on,6,0,1,,,,,,,,0,,,85,80
11735,set_tempo,13,1,0,,,,,,954047,,,,,,
11736,note_on,0,0,4,,,,,,,,0,,,46,0
11736,note_on,90,0,4,,,,,,,,0,,,61,0
11748,set_tempo,13,1,0,,,,,,939261,,,,,,
11754,note_on,24,0,2,,,,,,,,0,,,88,0
11754,note_on,24,0,1,,,,,,,,0,,,85,0
11758,control_change,22,0,4,,,,,,,,0,64,0,,
11760,note_on,2,0,4,,,,,,,,0,,,47,80
11760,note_on,6,0,2,,,,,,,,0,,,88,80
11760,note_on,0,0,4,,,,,,,,0,,,63,80
11760,note_on,6,0,1,,,,,,,,0,,,78,80
11762,set_tempo,14,1,0,,,,,,924927,,,,,,
11768,control_change,8,0,4,,,,,,,,0,64,127,,
11775,set_tempo,13,1,0,,,,,,911023,,,,,,
11784,note_on,24,0,1,,,,,,,,0,,,78,0
11788,set_tempo,13,1,0,,,,,,897532,,,,,,
11790,note_on,0,0,1,,,,,,,,0,,,86,80
11790,note_on,6,0,1,,,,,,,,0,,,83,80
11796,set_tempo,8,1,0,,,,,,884434,,,,,,
11810,set_tempo,14,1,0,,,,,,871713,,,,,,
11814,note_on,24,0,1,,,,,,,,0,,,86,0
11814,note_on,0,0,1,,,,,,,,0,,,83,0
11820,note_on,6,0,1,,,,,,,,0,,,78,80
11820,note_on,0,0,1,,,,,,,,0,,,88,80
11823,set_tempo,13,1,0,,,,,,859353,,,,,,
11832,note_on,64,0,4,,,,,,,,0,,,54,0
11832,note_on,72,0,2,,,,,,,,0,,,88,0
11836,set_tempo,13,1,0,,,,,,847338,,,,,,
11844,note_on,24,0,1,,,,,,,,0,,,88,0
11844,note_on,0,0,1,,,,,,,,0,,,78,0
11849,set_tempo,13,1,0,,,,,,835655,,,,,,
11850,note_on,6,0,1,,,,,,,,0,,,83,80
11850,note_on,18,0,2,,,,,,,,0,,,87,80
11856,note_on,24,0,4,,,,,,,,0,,,63,0
11856,note_on,0,0,4,,,,,,,,0,,,47,0
11862,set_tempo,13,1,0,,,,,,824289,,,,,,
11874,note_on,24,0,1,,,,,,,,0,,,83,0
11874,note_on,24,0,2,,,,,,,,0,,,87,0
11875,set_tempo,13,1,0,,,,,,813229,,,,,,
11879,control_change,23,0,4,,,,,,,,0,64,0,,
11880,note_on,1,0,4,,,,,,,,0,,,54,80
11880,note_on,6,0,2,,,,,,,,0,,,87,80
11880,note_on,0,0,4,,,,,,,,0,,,49,80
11880,note_on,0,0,4,,,,,,,,0,,,58,80
11880,note_on,0,0,4,,,,,,,,0,,,64,80
11880,note_on,6,0,1,,,,,,,,0,,,76,80
11888,set_tempo,13,1,0,,,,,,802461,,,,,,
11889,control_change,9,0,4,,,,,,,,0,64,127,,
11897,set_tempo,9,1,0,,,,,,791975,,,,,,
11904,note_on,24,0,1,,,,,,,,0,,,76,0
11906,set_tempo,9,1,0,,,,,,791975,,,,,,
11910,note_on,6,0,1,,,,,,,,0,,,84,80
11910,note_on,0,0,1,,,,,,,,0,,,82,80
11927,set_tempo,21,1,0,,,,,,802461,,,,,,
11934,note_on,0,0,1,,,,,,,,0,,,84,0
11934,note_on,24,0,1,,,,,,,,0,,,82,0
11940,note_on,6,0,1,,,,,,,,0,,,87,80
11940,note_on,0,0,1,,,,,,,,0,,,76,80
11945,set_tempo,18,1,0,,,,,,813229,,,,,,
11952,note_on,72,0,2,,,,,,,,0,,,87,0
11962,set_tempo,17,1,0,,,,,,824289,,,,,,
11964,note_on,0,0,1,,,,,,,,0,,,87,0
11964,note_on,24,0,1,,,,,,,,0,,,76,0
11970,note_on,6,0,1,,,,,,,,0,,,82,80
11970,note_on,18,0,2,,,,,,,,0,,,85,80
11976,note_on,0,0,4,,,,,,,,0,,,64,0
11976,note_on,87,0,4,,,,,,,,0,,,49,0
11976,note_on,0,0,4,,,,,,,,0,,,58,0
11984,set_tempo,22,1,0,,,,,,835655,,,,,,
11994,note_on,24,0,2,,,,,,,,0,,,85,0
11994,note_on,24,0,1,,,,,,,,0,,,82,0
12000,note_on,0,0,4,,,,,,,,0,,,59,80
12000,note_on,6,0,2,,,,,,,,0,,,75,72
12000,note_on,24,0,4,,,,,,,,0,,,66,80
12000,note_on,0,0,4,,,,,,,,0,,,51,80
12000,note_on,6,0,1,,,,,,,,0,,,85,84
12000,control_change,0,0,4,,,,,,,,0,64,0,,
12002,set_tempo,18,1,0,,,,,,847338,,,,,,
12012,control_change,12,0,4,,,,,,,,0,64,127,,
12015,set_tempo,13,1,0,,,,,,847338,,,,,,
12024,note_on,24,0,2,,,,,,,,0,,,75,0
12030,note_on,6,0,2,,,,,,,,0,,,78,72
12030,note_on,0,0,2,,,,,,,,0,,,82,72
12036,set_tempo,21,1,0,,,,,,835655,,,,,,
12054,note_on,24,0,2,,,,,,,,0,,,82,0
12054,note_on,0,0,2,,,,,,,,0,,,78,0
12058,set_tempo,22,1,0,,,,,,824289,,,,,,
12060,note_on,0,0,2,,,,,,,,0,,,75,72
12060,note_on,6,0,2,,,,,,,,0,,,85,72
12072,note_on,72,0,1,,,,,,,,0,,,85,0
12072,note_on,60,0,4,,,,,,,,0,,,54,0
12080,set_tempo,22,1,0,,,,,,813229,,,,,,
12084,note_on,0,0,2,,,,,,,,0,,,85,0
12084,note_on,24,0,2,,,,,,,,0,,,75,0
12090,note_on,18,0,1,,,,,,,,0,,,83,84
12090,note_on,6,0,2,,,,,,,,0,,,78,72
12096,note_on,0,0,4,,,,,,,,0,,,51,0
12096,note_on,0,0,4,,,,,,,,0,,,59,0
12096,note_on,24,0,4,,,,,,,,0,,,66,0
12102,set_tempo,22,1,0,,,,,,802461,,,,,,
12114,note_on,24,0,1,,,,,,,,0,,,83,0
12114,note_on,24,0,2,,,,,,,,0,,,78,0
12119,control_change,23,0,4,,,,,,,,0,64,0,,
12120,note_on,6,0,2,,,,,,,,0,,,73,72
12120,note_on,6,0,1,,,,,,,,0,,,84,84
12120,note_on,0,0,4,,,,,,,,0,,,61,80
12120,note_on,0,0,4,,,,,,,,0,,,67,80
12120,note_on,1,0,4,,,,,,,,0,,,52,80
12120,note_on,0,0,4,,,,,,,,0,,,58,80
12124,set_tempo,22,1,0,,,,,,791975,,,,,,
12127,control_change,7,0,4,,,,,,,,0,64,127,,
12141,set_tempo,17,1,0,,,,,,781759,,,,,,
12144,note_on,24,0,2,,,,,,,,0,,,73,0
12150,note_on,6,0,2,,,,,,,,0,,,79,72
12150,note_on,0,0,2,,,,,,,,0,,,81,72
12174,note_on,24,0,2,,,,,,,,0,,,81,0
12174,note_on,0,0,2,,,,,,,,0,,,79,0
12180,note_on,0,0,2,,,,,,,,0,,,73,72
12180,note_on,6,0,2,,,,,,,,0,,,84,72
12192,note_on,72,0,1,,,,,,,,0,,,84,0
12204,note_on,0,0,2,,,,,,,,0,,,84,0
12204,note_on,24,0,2,,,,,,,,0,,,73,0
12210,note_on,6,0,2,,,,,,,,0,,,79,72
12210,note_on,18,0,1,,,,,,,,0,,,82,84
12216,note_on,0,0,4,,,,,,,,0,,,52,0
12216,note_on,0,0,4,,,,,,,,0,,,58,0
12216,note_on,0,0,4,,,,,,,,0,,,61,0
12216,note_on,89,0,4,,,,,,,,0,,,67,0
12234,note_on,24,0,1,,,,,,,,0,,,82,0
12234,note_on,24,0,2,,,,,,,,0,,,79,0
12238,control_change,22,0,4,,,,,,,,0,64,0,,
12240,note_on,0,0,4,,,,,,,,0,,,69,80
12240,note_on,2,0,4,,,,,,,,0,,,60,80
12240,note_on,6,0,2,,,,,,,,0,,,72,72
12240,note_on,6,0,1,,,,,,,,0,,,82,84
12240,note_on,0,0,4,,,,,,,,0,,,53,80
12242,set_tempo,101,1,0,,,,,,781759,,,,,,
12254,control_change,14,0,4,,,,,,,,0,64,127,,
12264,note_on,24,0,2,,,,,,,,0,,,72,0
12270,note_on,0,0,2,,,,,,,,0,,,80,72
12270,note_on,6,0,2,,,,,,,,0,,,77,72
12294,note_on,0,0,2,,,,,,,,0,,,77,0
12294,note_on,24,0,2,,,,,,,,0,,,80,0
12300,note_on,0,0,2,,,,,,,,0,,,72,72
12300,note_on,6,0,2,,,,,,,,0,,,82,72
12312,note_on,72,0,1,,,,,,,,0,,,82,0
12324,note_on,24,0,2,,,,,,,,0,,,72,0
12324,note_on,0,0,2,,,,,,,,0,,,82,0
12330,note_on,18,0,1,,,,,,,,0,,,81,84
12330,note_on,6,0,2,,,,,,,,0,,,77,72
12336,note_on,0,0,4,,,,,,,,0,,,69,0
12336,note_on,0,0,4,,,,,,,,0,,,60,0
12336,note_on,82,0,4,,,,,,,,0,,,53,0
12354,note_on,24,0,2,,,,,,,,0,,,77,0
12354,note_on,24,0,1,,,,,,,,0,,,81,0
12359,control_change,23,0,4,,,,,,,,0,64,0,,
12360,note_on,0,0,4,,,,,,,,0,,,64,80
12360,note_on,1,0,4,,,,,,,,0,,,61,80
12360,note_on,6,0,1,,,,,,,,0,,,81,84
12360,note_on,0,0,4,,,,,,,,0,,,55,80
12360,note_on,6,0,2,,,,,,,,0,,,70,72
12360,note_on,0,0,4,,,,,,,,0,,,58,80
12373,control_change,13,0,4,,,,,,,,0,64,127,,
12384,note_on,24,0,2,,,,,,,,0,,,70,0
12390,note_on,6,0,2,,,,,,,,0,,,76,72
12390,note_on,0,0,2,,,,,,,,0,,,78,72
12414,note_on,24,0,2,,,,,,,,0,,,78,0
12414,note_on,0,0,2,,,,,,,,0,,,76,0
12420,note_on,0,0,2,,,,,,,,0,,,81,72
12420,note_on,6,0,2,,,,,,,,0,,,70,72
12432,note_on,72,0,1,,,,,,,,0,,,81,0
12444,note_on,24,0,2,,,,,,,,0,,,81,0
12444,note_on,0,0,2,,,,,,,,0,,,70,0
12450,note_on,18,0,1,,,,,,,,0,,,79,84
12450,note_on,6,0,2,,,,,,,,0,,,76,72
12456,note_on,0,0,4,,,,,,,,0,,,55,0
12456,note_on,0,0,4,,,,,,,,0,,,61,0
12456,note_on,0,0,4,,,,,,,,0,,,64,0
12456,note_on,83,0,4,,,,,,,,0,,,58,0
12465,set_tempo,223,1,0,,,,,,802461,,,,,,
12474,note_on,24,0,1,,,,,,,,0,,,79,0
12474,note_on,24,0,2,,,,,,,,0,,,76,0
12480,note_on,0,0,4,,,,,,,,0,,,57,80
12480,note_on,0,0,4,,,,,,,,0,,,60,80
12480,note_on,6,0,1,,,,,,,,0,,,79,80
12480,note_on,984,0,3,,,,,,,,0,,,67,80
12480,control_change,24,0,4,,,,,,,,0,64,0,,
12480,note_on,6,0,2,,,,,,,,0,,,69,80
12496,control_change,16,0,4,,,,,,,,0,64,127,,
12504,note_on,24,0,2,,,,,,,,0,,,69,0
12510,note_on,0,0,2,,,,,,,,0,,,76,80
12510,note_on,6,0,2,,,,,,,,0,,,72,80
12534,note_on,0,0,2,,,,,,,,0,,,72,0
12534,note_on,24,0,2,,,,,,,,0,,,76,0
12540,note_on,0,0,2,,,,,,,,0,,,79,80
12540,note_on,6,0,2,,,,,,,,0,,,69,80
12552,note_on,72,0,1,,,,,,,,0,,,79,0
12552,note_on,72,0,3,,,,,,,,0,,,67,0
12564,note_on,24,0,2,,,,,,,,0,,,79,0
12564,note_on,0,0,2,,,,,,,,0,,,69,0
12570,note_on,18,0,3,,,,,,,,0,,,65,81
12570,note_on,6,0,2,,,,,,,,0,,,72,80
12570,note_on,18,0,1,,,,,,,,0,,,77,80
12576,note_on,80,0,4,,,,,,,,0,,,57,0
12576,note_on,0,0,4,,,,,,,,0,,,60,0
12594,note_on,24,0,2,,,,,,,,0,,,72,0
12594,note_on,24,0,1,,,,,,,,0,,,77,0
12594,note_on,24,0,3,,,,,,,,0,,,65,0
12599,control_change,23,0,4,,,,,,,,0,64,0,,
12600,note_on,6,0,1,,,,,,,,0,,,77,81
12600,note_on,6,0,3,,,,,,,,0,,,65,81
12600,note_on,0,0,4,,,,,,,,0,,,58,80
12600,note_on,6,0,2,,,,,,,,0,,,67,80
12600,note_on,1,0,4,,,,,,,,0,,,61,80
12609,control_change,9,0,4,,,,,,,,0,64,127,,
12624,note_on,24,0,2,,,,,,,,0,,,67,0
12630,note_on,6,0,2,,,,,,,,0,,,73,80
12630,note_on,0,0,2,,,,,,,,0,,,75,80
12654,note_on,0,0,2,,,,,,,,0,,,73,0
12654,note_on,24,0,2,,,,,,,,0,,,75,0
12660,note_on,0,0,2,,,,,,,,0,,,67,80
12660,note_on,6,0,2,,,,,,,,0,,,77,80
12672,note_on,72,0,1,,,,,,,,0,,,77,0
12672,note_on,72,0,3,,,,,,,,0,,,65,0
12684,note_on,0,0,2,,,,,,,,0,,,77,0
12684,note_on,24,0,2,,,,,,,,0,,,67,0
12690,note_on,18,0,1,,,,,,,,0,,,76,83
12690,note_on,6,0,2,,,,,,,,0,,,73,80
12690,note_on,18,0,3,,,,,,,,0,,,64,83
12696,note_on,0,0,4,,,,,,,,0,,,61,0
12696,note_on,87,0,4,,,,,,,,0,,,58,0
12701,set_tempo,236,1,0,,,,,,791975,,,,,,
12714,note_on,24,0,3,,,,,,,,0,,,64,0
12714,note_on,24,0,1,,,,,,,,0,,,76,0
12714,note_on,24,0,2,,,,,,,,0,,,73,0
12718,control_change,22,0,4,,,,,,,,0,64,0,,
12720,note_on,6,0,1,,,,,,,,0,,,79,84
12720,note_on,6,0,3,,,,,,,,0,,,67,84
12720,note_on,2,0,4,,,,,,,,0,,,60,80
12720,note_on,6,0,2,,,,,,,,0,,,69,80
12720,note_on,0,0,4,,,,,,,,0,,,63,80
12731,control_change,11,0,4,,,,,,,,0,64,127,,
12744,note_on,24,0,2,,,,,,,,0,,,69,0
12750,note_on,6,0,2,,,,,,,,0,,,76,80
12750,note_on,0,0,2,,,,,,,,0,,,75,80
12774,note_on,24,0,2,,,,,,,,0,,,75,0
12774,note_on,0,0,2,,,,,,,,0,,,76,0
12780,note_on,6,0,2,,,,,,,,0,,,79,80
12780,note_on,0,0,2,,,,,,,,0,,,69,80
12792,note_on,72,0,3,,,,,,,,0,,,67,0
12792,note_on,72,0,1,,,,,,,,0,,,79,0
12804,note_on,24,0,2,,,,,,,,0,,,69,0
12804,note_on,0,0,2,,,,,,,,0,,,79,0
12810,note_on,6,0,2,,,,,,,,0,,,75,80
12810,note_on,18,0,1,,,,,,,,0,,,77,84
12810,note_on,18,0,3,,,,,,,,0,,,65,85
12816,note_on,0,0,4,,,,,,,,0,,,60,0
12816,note_on,85,0,4,,,,,,,,0,,,63,0
12834,note_on,24,0,3,,,,,,,,0,,,65,0
12834,note_on,24,0,2,,,,,,,,0,,,75,0
12834,note_on,24,0,1,,,,,,,,0,,,77,0
12840,note_on,6,0,3,,,,,,,,0,,,65,86
12840,note_on,6,0,1,,,,,,,,0,,,77,85
12840,note_on,6,0,2,,,,,,,,0,,,67,80
12840,note_on,24,0,4,,,,,,,,0,,,58,80
12840,note_on,0,0,4,,,,,,,,0,,,61,80
12844,control_change,4,0,4,,,,,,,,0,64,0,,
12857,control_change,13,0,4,,,,,,,,0,64,127,,
12864,note_on,24,0,2,,,,,,,,0,,,67,0
12870,note_on,0,0,2,,,,,,,,0,,,75,80
12870,note_on,6,0,2,,,,,,,,0,,,73,80
12894,note_on,0,0,2,,,,,,,,0,,,73,0
12894,note_on,24,0,2,,,,,,,,0,,,75,0
12900,note_on,0,0,2,,,,,,,,0,,,77,80
12900,note_on,6,0,2,,,,,,,,0,,,67,80
12912,note_on,72,0,1,,,,,,,,0,,,77,0
12912,note_on,72,0,3,,,,,,,,0,,,65,0
12924,note_on,24,0,2,,,,,,,,0,,,77,0
12924,note_on,0,0,2,,,,,,,,0,,,67,0
12930,note_on,18,0,1,,,,,,,,0,,,76,87
12930,note_on,18,0,3,,,,,,,,0,,,64,88
12930,note_on,6,0,2,,,,,,,,0,,,73,80
12936,note_on,0,0,4,,,,,,,,0,,,58,0
12936,note_on,79,0,4,,,,,,,,0,,,61,0
12937,set_tempo,236,1,0,,,,,,781759,,,,,,
12941,set_tempo,4,1,0,,,,,,791975,,,,,,
12954,note_on,24,0,2,,,,,,,,0,,,73,0
12954,note_on,24,0,1,,,,,,,,0,,,76,0
12954,note_on,24,0,3,,,,,,,,0,,,64,0
12960,control_change,0,0,4,,,,,,,,0,64,0,,
12960,note_on,6,0,1,,,,,,,,0,,,79,88
12960,note_on,6,0,2,,,,,,,,0,,,69,80
12960,note_on,6,0,3,,,,,,,,0,,,67,80
12960,note_on,24,0,4,,,,,,,,0,,,60,80
12960,note_on,0,0,4,,,,,,,,0,,,63,80
12978,control_change,18,0,4,,,,,,,,0,64,127,,
12984,note_on,24,0,2,,,,,,,,0,,,69,0
12990,note_on,0,0,2,,,,,,,,0,,,76,75
12990,note_on,6,0,2,,,,,,,,0,,,75,75
13014,note_on,0,0,2,,,,,,,,0,,,75,0
13014,note_on,24,0,2,,,,,,,,0,,,76,0
13020,note_on,0,0,2,,,,,,,,0,,,69,69
13020,note_on,6,0,2,,,,,,,,0,,,79,69
13032,note_on,72,0,1,,,,,,,,0,,,79,0
13032,note_on,72,0,3,,,,,,,,0,,,67,0
13044,note_on,24,0,2,,,,,,,,0,,,69,0
13044,note_on,0,0,2,,,,,,,,0,,,79,0
13050,note_on,6,0,2,,,,,,,,0,,,75,64
13050,note_on,18,0,3,,,,,,,,0,,,66,64
13050,note_on,18,0,1,,,,,,,,0,,,78,64
13056,note_on,0,0,4,,,,,,,,0,,,60,0
13056,note_on,78,0,4,,,,,,,,0,,,63,0
13074,note_on,24,0,1,,,,,,,,0,,,78,0
13074,note_on,24,0,2,,,,,,,,0,,,75,0
13074,note_on,24,0,3,,,,,,,,0,,,66,0
13080,note_on,6,0,3,,,,,,,,0,,,65,80
13080,note_on,6,0,1,,,,,,,,0,,,77,80
13104,note_on,24,0,1,,,,,,,,0,,,77,0
13104,note_on,24,0,3,,,,,,,,0,,,65,0
13110,note_on,6,0,3,,,,,,,,0,,,66,80
13110,note_on,6,0,1,,,,,,,,0,,,78,80
13134,note_on,24,0,3,,,,,,,,0,,,66,0
13134,note_on,24,0,1,,,,,,,,0,,,78,0
13140,note_on,6,0,3,,,,,,,,0,,,65,81
13140,note_on,6,0,1,,,,,,,,0,,,77,81
13164,note_on,24,0,1,,,,,,,,0,,,77,0
13164,note_on,24,0,3,,,,,,,,0,,,65,0
13170,note_on,6,0,3,,,,,,,,0,,,67,82
13170,note_on,6,0,1,,,,,,,,0,,,79,82
13194,note_on,24,0,1,,,,,,,,0,,,79,0
13194,note_on,24,0,3,,,,,,,,0,,,67,0
13200,note_on,6,0,3,,,,,,,,0,,,65,83
13200,note_on,6,0,1,,,,,,,,0,,,77,83
13203,control_change,147,0,4,,,,,,,,0,64,0,,
13210,control_change,7,0,4,,,,,,,,0,64,127,,
13224,note_on,24,0,3,,,,,,,,0,,,65,0
13224,note_on,24,0,1,,,,,,,,0,,,77,0
13230,note_on,6,0,1,,,,,,,,0,,,78,84
13230,note_on,6,0,3,,,,,,,,0,,,66,84
13254,note_on,24,0,1,,,,,,,,0,,,78,0
13254,note_on,24,0,3,,,,,,,,0,,,66,0
13260,note_on,6,0,3,,,,,,,,0,,,65,84
13260,note_on,6,0,1,,,,,,,,0,,,77,84
13284,note_on,24,0,3,,,,,,,,0,,,65,0
13284,note_on,24,0,1,,,,,,,,0,,,77,0
13290,note_on,6,0,1,,,,,,,,0,,,79,84
13290,note_on,6,0,3,,,,,,,,0,,,67,84
13314,note_on,24,0,3,,,,,,,,0,,,67,0
13314,note_on,24,0,1,,,,,,,,0,,,79,0
13320,note_on,6,0,1,,,,,,,,0,,,77,85
13320,note_on,6,0,3,,,,,,,,0,,,65,85
13344,note_on,24,0,3,,,,,,,,0,,,65,0
13344,note_on,24,0,1,,,,,,,,0,,,77,0
13350,note_on,6,0,1,,,,,,,,0,,,78,86
13350,note_on,6,0,3,,,,,,,,0,,,66,86
13374,note_on,24,0,3,,,,,,,,0,,,66,0
13374,note_on,24,0,1,,,,,,,,0,,,78,0
13380,note_on,6,0,3,,,,,,,,0,,,65,87
13380,note_on,6,0,1,,,,,,,,0,,,77,87
13404,note_on,24,0,1,,,,,,,,0,,,77,0
13404,note_on,24,0,3,,,,,,,,0,,,65,0
13410,note_on,6,0,1,,,,,,,,0,,,79,88
13410,note_on,6,0,3,,,,,,,,0,,,67,88
13416,set_tempo,475,1,0,,,,,,813229,,,,,,
13434,note_on,24,0,3,,,,,,,,0,,,67,0
13434,note_on,24,0,1,,,,,,,,0,,,79,0
13440,time_signature,24,1,0,4,4,24,8,,,,,,,,
13440,control_change,230,0,4,,,,,,,,0,64,0,,
13440,note_on,6,0,3,,,,,,,,0,,,65,80
13440,note_on,6,0,1,,,,,,,,0,,,77,80
13442,set_tempo,2,1,0,,,,,,410818,,,,,,
13446,set_tempo,4,1,0,,,,,,408052,,,,,,
13461,control_change,21,0,4,,,,,,,,0,64,127,,
13473,set_tempo,27,1,0,,,,,,405323,,,,,,
13488,note_on,48,0,1,,,,,,,,0,,,77,0
13488,note_on,48,0,3,,,,,,,,0,,,65,0
13499,set_tempo,26,1,0,,,,,,408052,,,,,,
13500,note_on,12,0,3,,,,,,,,0,,,66,80
13500,note_on,12,0,1,,,,,,,,0,,,78,80
13548,note_on,48,0,1,,,,,,,,0,,,78,0
13548,note_on,48,0,3,,,,,,,,0,,,66,0
13560,note_on,12,0,3,,,,,,,,0,,,65,80
13560,note_on,12,0,1,,,,,,,,0,,,77,80
13608,note_on,48,0,1,,,,,,,,0,,,77,0
13608,note_on,48,0,3,,,,,,,,0,,,65,0
13620,note_on,12,0,3,,,,,,,,0,,,67,80
13620,note_on,12,0,1,,,,,,,,0,,,79,80
13668,note_on,48,0,3,,,,,,,,0,,,67,0
13668,note_on,48,0,1,,,,,,,,0,,,79,0
13676,control_change,215,0,4,,,,,,,,0,64,0,,
13680,note_on,12,0,1,,,,,,,,0,,,69,80
13680,note_on,0,0,1,,,,,,,,0,,,77,80
13680,note_on,4,0,4,,,,,,,,0,,,51,80
13728,note_on,48,0,1,,,,,,,,0,,,77,0
13728,note_on,0,0,1,,,,,,,,0,,,69,0
13740,note_on,0,0,1,,,,,,,,0,,,72,80
13740,note_on,12,0,1,,,,,,,,0,,,78,80
13764,note_on,84,0,4,,,,,,,,0,,,51,0
13785,note_on,21,0,4,,,,,,,,0,,,67,80
13788,note_on,48,0,1,,,,,,,,0,,,72,0
13788,note_on,0,0,1,,,,,,,,0,,,78,0
13797,note_on,12,0,4,,,,,,,,0,,,67,0
13800,note_on,3,0,4,,,,,,,,0,,,65,80
13800,note_on,12,0,1,,,,,,,,0,,,69,80
13800,note_on,0,0,1,,,,,,,,0,,,77,80
13848,note_on,0,0,1,,,,,,,,0,,,69,0
13848,note_on,48,0,1,,,,,,,,0,,,77,0
13860,note_on,0,0,1,,,,,,,,0,,,79,80
13860,note_on,12,0,1,,,,,,,,0,,,72,80
13896,note_on,96,0,4,,,,,,,,0,,,65,0
13908,note_on,48,0,1,,,,,,,,0,,,79,0
13908,note_on,0,0,1,,,,,,,,0,,,72,0
13920,note_on,0,0,1,,,,,,,,0,,,77,80
13920,note_on,24,0,4,,,,,,,,0,,,50,80
13920,note_on,12,0,1,,,,,,,,0,,,70,80
13968,note_on,48,0,1,,,,,,,,0,,,77,0
13968,note_on,0,0,1,,,,,,,,0,,,70,0
13980,note_on,0,0,1,,,,,,,,0,,,74,80
13980,note_on,12,0,1,,,,,,,,0,,,78,80
14004,note_on,84,0,4,,,,,,,,0,,,50,0
14025,note_on,21,0,4,,,,,,,,0,,,66,80
14028,note_on,0,0,1,,,,,,,,0,,,78,0
14028,note_on,48,0,1,,,,,,,,0,,,74,0
14037,note_on,12,0,4,,,,,,,,0,,,66,0
14040,note_on,3,0,4,,,,,,,,0,,,65,80
14040,note_on,0,0,1,,,,,,,,0,,,70,80
14040,note_on,12,0,1,,,,,,,,0,,,77,80
14088,note_on,48,0,1,,,,,,,,0,,,70,0
14088,note_on,0,0,1,,,,,,,,0,,,77,0
14100,note_on,0,0,1,,,,,,,,0,,,79,80
14100,note_on,12,0,1,,,,,,,,0,,,74,80
14136,note_on,96,0,4,,,,,,,,0,,,65,0
14148,note_on,0,0,1,,,,,,,,0,,,74,0
14148,note_on,48,0,1,,,,,,,,0,,,79,0
14160,note_on,24,0,4,,,,,,,,0,,,48,80
14160,note_on,12,0,1,,,,,,,,0,,,69,80
14160,note_on,0,0,1,,,,,,,,0,,,77,80
14208,note_on,0,0,1,,,,,,,,0,,,69,0
14208,note_on,48,0,1,,,,,,,,0,,,77,0
14220,note_on,12,0,1,,,,,,,,0,,,78,80
14220,note_on,0,0,1,,,,,,,,0,,,75,80
14244,note_on,84,0,4,,,,,,,,0,,,48,0
14265,note_on,21,0,4,,,,,,,,0,,,67,80
14268,note_on,0,0,1,,,,,,,,0,,,78,0
14268,note_on,48,0,1,,,,,,,,0,,,75,0
14277,note_on,12,0,4,,,,,,,,0,,,67,0
14280,note_on,12,0,1,,,,,,,,0,,,69,80
14280,note_on,0,0,1,,,,,,,,0,,,77,80
14280,note_on,3,0,4,,,,,,,,0,,,65,80
14328,note_on,0,0,1,,,,,,,,0,,,69,0
14328,note_on,48,0,1,,,,,,,,0,,,77,0
14340,note_on,0,0,1,,,,,,,,0,,,79,80
14340,note_on,12,0,1,,,,,,,,0,,,75,80
14376,note_on,96,0,4,,,,,,,,0,,,65,0
14388,note_on,0,0,1,,,,,,,,0,,,75,0
14388,note_on,48,0,1,,,,,,,,0,,,79,0
14400,note_on,24,0,4,,,,,,,,0,,,46,80
14400,note_on,12,0,1,,,,,,,,0,,,77,80
14400,note_on,0,0,1,,,,,,,,0,,,70,80
14448,note_on,0,0,1,,,,,,,,0,,,77,0
14448,note_on,48,0,1,,,,,,,,0,,,70,0
14460,note_on,0,0,1,,,,,,,,0,,,74,80
14460,note_on,12,0,1,,,,,,,,0,,,78,80
14484,note_on,84,0,4,,,,,,,,0,,,46,0
14505,note_on,21,0,4,,,,,,,,0,,,66,80
14508,note_on,0,0,1,,,,,,,,0,,,78,0
14508,note_on,48,0,1,,,,,,,,0,,,74,0
14517,note_on,12,0,4,,,,,,,,0,,,66,0
14520,note_on,3,0,4,,,,,,,,0,,,65,80
14520,note_on,0,0,1,,,,,,,,0,,,78,80
14520,note_on,12,0,1,,,,,,,,0,,,70,80
14568,note_on,48,0,1,,,,,,,,0,,,78,0
14568,note_on,0,0,1,,,,,,,,0,,,70,0
14580,note_on,12,0,1,,,,,,,,0,,,79,80
14580,note_on,0,0,1,,,,,,,,0,,,74,80
14616,note_on,96,0,4,,,,,,,,0,,,65,0
14628,note_on,0,0,1,,,,,,,,0,,,79,0
14628,note_on,48,0,1,,,,,,,,0,,,74,0
14640,note_on,24,0,4,,,,,,,,0,,,41,80
14640,note_on,0,0,1,,,,,,,,0,,,80,80
14640,note_on,12,0,1,,,,,,,,0,,,74,80
14688,note_on,48,0,1,,,,,,,,0,,,80,0
14688,note_on,0,0,1,,,,,,,,0,,,74,0
14700,note_on,12,0,1,,,,,,,,0,,,81,80
14700,note_on,0,0,1,,,,,,,,0,,,77,80
14724,note_on,84,0,4,,,,,,,,0,,,41,0
14745,note_on,21,0,4,,,,,,,,0,,,67,80
14748,note_on,48,0,1,,,,,,,,0,,,77,0
14748,note_on,0,0,1,,,,,,,,0,,,81,0
14757,note_on,12,0,4,,,,,,,,0,,,67,0
14760,note_on,12,0,1,,,,,,,,0,,,74,80
14760,note_on,0,0,1,,,,,,,,0,,,81,80
14760,note_on,3,0,4,,,,,,,,0,,,65,80
14808,note_on,48,0,1,,,,,,,,0,,,81,0
14808,note_on,0,0,1,,,,,,,,0,,,74,0
14820,note_on,0,0,1,,,,,,,,0,,,82,80
14820,note_on,12,0,1,,,,,,,,0,,,77,80
14856,note_on,96,0,4,,,,,,,,0,,,65,0
14868,note_on,0,0,1,,,,,,,,0,,,77,0
14868,note_on,48,0,1,,,,,,,,0,,,82,0
14880,note_on,12,0,1,,,,,,,,0,,,72,80
14880,note_on,0,0,1,,,,,,,,0,,,82,80
14880,note_on,24,0,4,,,,,,,,0,,,41,80
14928,note_on,48,0,1,,,,,,,,0,,,82,0
14928,note_on,0,0,1,,,,,,,,0,,,72,0
14940,note_on,0,0,1,,,,,,,,0,,,75,80
14940,note_on,12,0,1,,,,,,,,0,,,81,80
14964,note_on,84,0,4,,,,,,,,0,,,41,0
14985,note_on,21,0,4,,,,,,,,0,,,66,80
14988,note_on,0,0,1,,,,,,,,0,,,81,0
14988,note_on,48,0,1,,,,,,,,0,,,75,0
14997,note_on,12,0,4,,,,,,,,0,,,66,0
15000,note_on,0,0,1,,,,,,,,0,,,72,80
15000,note_on,3,0,4,,,,,,,,0,,,65,80
15000,note_on,12,0,1,,,,,,,,0,,,81,80
15048,note_on,0,0,1,,,,,,,,0,,,81,0
15048,note_on,48,0,1,,,,,,,,0,,,72,0
15060,note_on,12,0,1,,,,,,,,0,,,75,80
15060,note_on,0,0,1,,,,,,,,0,,,80,80
15096,note_on,96,0,4,,,,,,,,0,,,65,0
15108,note_on,0,0,1,,,,,,,,0,,,75,0
15108,note_on,48,0,1,,,,,,,,0,,,80,0
15120,note_on,0,0,1,,,,,,,,0,,,80,80
15120,note_on,24,0,4,,,,,,,,0,,,45,80
15120,note_on,12,0,1,,,,,,,,0,,,72,80
15168,note_on,0,0,1,,,,,,,,0,,,72,0
15168,note_on,48,0,1,,,,,,,,0,,,80,0
15180,note_on,12,0,1,,,,,,,,0,,,79,80
15180,note_on,0,0,1,,,,,,,,0,,,75,80
15204,note_on,84,0,4,,,,,,,,0,,,45,0
15225,note_on,21,0,4,,,,,,,,0,,,67,80
15228,note_on,0,0,1,,,,,,,,0,,,79,0
15228,note_on,48,0,1,,,,,,,,0,,,75,0
15237,note_on,12,0,4,,,,,,,,0,,,67,0
15240,note_on,3,0,4,,,,,,,,0,,,65,80
15240,note_on,12,0,1,,,,,,,,0,,,72,80
15240,note_on,0,0,1,,,,,,,,0,,,79,80
15288,note_on,0,0,1,,,,,,,,0,,,72,0
15288,note_on,48,0,1,,,,,,,,0,,,79,0
15300,note_on,12,0,1,,,,,,,,0,,,75,80
15300,note_on,0,0,1,,,,,,,,0,,,78,80
15336,note_on,96,0,4,,,,,,,,0,,,65,0
15348,note_on,48,0,1,,,,,,,,0,,,78,0
15348,note_on,0,0,1,,,,,,,,0,,,75,0
15360,note_on,0,0,1,,,,,,,,0,,,74,80
15360,note_on,12,0,1,,,,,,,,0,,,77,80
15360,note_on,24,0,4,,,,,,,,0,,,46,80
15408,note_on,0,0,1,,,,,,,,0,,,77,0
15408,note_on,48,0,1,,,,,,,,0,,,74,0
15420,note_on,0,0,1,,,,,,,,0,,,70,80
15420,note_on,12,0,1,,,,,,,,0,,,78,80
15444,note_on,84,0,4,,,,,,,,0,,,46,0
15465,note_on,21,0,4,,,,,,,,0,,,66,80
15468,note_on,48,0,1,,,,,,,,0,,,70,0
15468,note_on,0,0,1,,,,,,,,0,,,78,0
15477,note_on,12,0,4,,,,,,,,0,,,66,0
15480,note_on,12,0,1,,,,,,,,0,,,77,80
15480,note_on,3,0,4,,,,,,,,0,,,65,80
15480,note_on,0,0,1,,,,,,,,0,,,74,80
15528,note_on,48,0,1,,,,,,,,0,,,74,0
15528,note_on,0,0,1,,,,,,,,0,,,77,0
15540,note_on,12,0,1,,,,,,,,0,,,70,80
15540,note_on,0,0,1,,,,,,,,0,,,79,80
15576,note_on,96,0,4,,,,,,,,0,,,65,0
15588,note_on,0,0,1,,,,,,,,0,,,70,0
15588,note_on,48,0,1,,,,,,,,0,,,79,0
15600,note_on,0,0,1,,,,,,,,0,,,77,80
15600,note_on,12,0,1,,,,,,,,0,,,69,80
15600,note_on,24,0,4,,,,,,,,0,,,51,80
15648,note_on,48,0,1,,,,,,,,0,,,77,0
15648,note_on,0,0,1,,,,,,,,0,,,69,0
15660,note_on,12,0,1,,,,,,,,0,,,78,80
15660,note_on,0,0,1,,,,,,,,0,,,72,80
15684,note_on,84,0,4,,,,,,,,0,,,51,0
15705,note_on,21,0,4,,,,,,,,0,,,67,80
15708,note_on,0,0,1,,,,,,,,0,,,78,0
15708,note_on,48,0,1,,,,,,,,0,,,72,0
15717,note_on,12,0,4,,,,,,,,0,,,67,0
15720,note_on,3,0,4,,,,,,,,0,,,65,80
15720,note_on,12,0,1,,,,,,,,0,,,77,80
15720,note_on,0,0,1,,,,,,,,0,,,69,80
15768,note_on,0,0,1,,,,,,,,0,,,77,0
15768,note_on,48,0,1,,,,,,,,0,,,69,0
15780,note_on,12,0,1,,,,,,,,0,,,79,80
15780,note_on,0,0,1,,,,,,,,0,,,72,80
15816,note_on,96,0,4,,,,,,,,0,,,65,0
15828,note_on,0,0,1,,,,,,,,0,,,79,0
15828,note_on,48,0,1,,,,,,,,0,,,72,0
15840,note_on,0,0,1,,,,,,,,0,,,70,80
15840,note_on,12,0,1,,,,,,,,0,,,77,80
15840,note_on,24,0,4,,,,,,,,0,,,50,80
15888,note_on,0,0,1,,,,,,,,0,,,77,0
15888,note_on,48,0,1,,,,,,,,0,,,70,0
15900,note_on,0,0,1,,,,,,,,0,,,74,80
15900,note_on,12,0,1,,,,,,,,0,,,78,80
15924,note_on,84,0,4,,,,,,,,0,,,50,0
15945,note_on,21,0,4,,,,,,,,0,,,66,80
15948,note_on,48,0,1,,,,,,,,0,,,74,0
15948,note_on,0,0,1,,,,,,,,0,,,78,0
15957,note_on,12,0,4,,,,,,,,0,,,66,0
15960,note_on,12,0,1,,,,,,,,0,,,77,80
15960,note_on,0,0,1,,,,,,,,0,,,70,80
15960,note_on,3,0,4,,,,,,,,0,,,65,80
16008,note_on,48,0,1,,,,,,,,0,,,70,0
16008,note_on,0,0,1,,,,,,,,0,,,77,0
16020,note_on,12,0,1,,,,,,,,0,,,79,80
16020,note_on,0,0,1,,,,,,,,0,,,74,80
16056,note_on,96,0,4,,,,,,,,0,,,65,0
16068,note_on,48,0,1,,,,,,,,0,,,74,0
16068,note_on,0,0,1,,,,,,,,0,,,79,0
16080,note_on,24,0,4,,,,,,,,0,,,48,80
16080,note_on,0,0,1,,,,,,,,0,,,69,80
16080,note_on,12,0,1,,,,,,,,0,,,77,80
16128,note_on,0,0,1,,,,,,,,0,,,77,0
16128,note_on,48,0,1,,,,,,,,0,,,69,0
16140,note_on,0,0,1,,,,,,,,0,,,78,80
16140,note_on,12,0,1,,,,,,,,0,,,75,80
16164,note_on,84,0,4,,,,,,,,0,,,48,0
16185,note_on,21,0,4,,,,,,,,0,,,67,80
16188,note_on,48,0,1,,,,,,,,0,,,78,0
16188,note_on,0,0,1,,,,,,,,0,,,75,0
16197,note_on,12,0,4,,,,,,,,0,,,67,0
16200,note_on,12,0,1,,,,,,,,0,,,69,80
16200,note_on,0,0,1,,,,,,,,0,,,77,80
16200,note_on,3,0,4,,,,,,,,0,,,65,80
16248,note_on,0,0,1,,,,,,,,0,,,69,0
16248,note_on,48,0,1,,,,,,,,0,,,77,0
16260,note_on,0,0,1,,,,,,,,0,,,79,80
16260,note_on,12,0,1,,,,,,,,0,,,75,80
16296,note_on,96,0,4,,,,,,,,0,,,65,0
16308,note_on,0,0,1,,,,,,,,0,,,75,0
16308,note_on,48,0,1,,,,,,,,0,,,79,0
16320,note_on,24,0,4,,,,,,,,0,,,46,80
16320,note_on,0,0,1,,,,,,,,0,,,70,80
16320,note_on,12,0,1,,,,,,,,0,,,77,80
16368,note_on,0,0,1,,,,,,,,0,,,77,0
16368,note_on,48,0,1,,,,,,,,0,,,70,0
16380,note_on,12,0,1,,,,,,,,0,,,74,80
16380,note_on,0,0,1,,,,,,,,0,,,78,80
16404,note_on,84,0,4,,,,,,,,0,,,46,0
16425,note_on,21,0,4,,,,,,,,0,,,66,80
16428,note_on,48,0,1,,,,,,,,0,,,78,0
16428,note_on,0,0,1,,,,,,,,0,,,74,0
16437,note_on,12,0,4,,,,,,,,0,,,66,0
16440,note_on,3,0,4,,,,,,,,0,,,65,80
16440,note_on,12,0,1,,,,,,,,0,,,70,80
16440,note_on,0,0,1,,,,,,,,0,,,78,80
16488,note_on,0,0,1,,,,,,,,0,,,70,0
16488,note_on,48,0,1,,,,,,,,0,,,78,0
16500,note_on,0,0,1,,,,,,,,0,,,79,80
16500,note_on,12,0,1,,,,,,,,0,,,74,80
16536,note_on,96,0,4,,,,,,,,0,,,65,0
16548,note_on,0,0,1,,,,,,,,0,,,74,0
16548,note_on,48,0,1,,,,,,,,0,,,79,0
16560,note_on,12,0,1,,,,,,,,0,,,74,80
16560,note_on,0,0,1,,,,,,,,0,,,80,80
16560,note_on,24,0,4,,,,,,,,0,,,41,80
16608,note_on,0,0,1,,,,,,,,0,,,74,0
16608,note_on,48,0,1,,,,,,,,0,,,80,0
16620,note_on,12,0,1,,,,,,,,0,,,81,80
16620,note_on,0,0,1,,,,,,,,0,,,77,80
16644,note_on,84,0,4,,,,,,,,0,,,41,0
16665,note_on,21,0,4,,,,,,,,0,,,67,80
16668,note_on,48,0,1,,,,,,,,0,,,77,0
16668,note_on,0,0,1,,,,,,,,0,,,81,0
16677,note_on,12,0,4,,,,,,,,0,,,67,0
16680,note_on,3,0,4,,,,,,,,0,,,65,80
16680,note_on,12,0,1,,,,,,,,0,,,81,80
16680,note_on,0,0,1,,,,,,,,0,,,74,80
16728,note_on,48,0,1,,,,,,,,0,,,74,0
16728,note_on,0,0,1,,,,,,,,0,,,81,0
16740,note_on,0,0,1,,,,,,,,0,,,77,80
16740,note_on,12,0,1,,,,,,,,0,,,82,80
16776,note_on,96,0,4,,,,,,,,0,,,65,0
16788,note_on,0,0,1,,,,,,,,0,,,82,0
16788,note_on,48,0,1,,,,,,,,0,,,77,0
16800,note_on,24,0,4,,,,,,,,0,,,41,80
16800,note_on,0,0,1,,,,,,,,0,,,82,80
16800,note_on,12,0,1,,,,,,,,0,,,72,80
16848,note_on,48,0,1,,,,,,,,0,,,82,0
16848,note_on,0,0,1,,,,,,,,0,,,72,0
16860,note_on,0,0,1,,,,,,,,0,,,75,80
16860,note_on,12,0,1,,,,,,,,0,,,81,80
16884,note_on,84,0,4,,,,,,,,0,,,41,0
16905,note_on,21,0,4,,,,,,,,0,,,66,80
16908,note_on,0,0,1,,,,,,,,0,,,81,0
16908,note_on,48,0,1,,,,,,,,0,,,75,0
16917,note_on,12,0,4,,,,,,,,0,,,66,0
16920,note_on,3,0,4,,,,,,,,0,,,65,80
16920,note_on,12,0,1,,,,,,,,0,,,81,80
16920,note_on,0,0,1,,,,,,,,0,,,72,80
16968,note_on,0,0,1,,,,,,,,0,,,81,0
16968,note_on,48,0,1,,,,,,,,0,,,72,0
16980,note_on,12,0,1,,,,,,,,0,,,80,80
16980,note_on,0,0,1,,,,,,,,0,,,75,80
17016,note_on,96,0,4,,,,,,,,0,,,65,0
17028,note_on,48,0,1,,,,,,,,0,,,75,0
17028,note_on,0,0,1,,,,,,,,0,,,80,0
17040,note_on,12,0,1,,,,,,,,0,,,72,80
17040,note_on,24,0,4,,,,,,,,0,,,45,80
17040,note_on,0,0,1,,,,,,,,0,,,80,80
17088,note_on,0,0,1,,,,,,,,0,,,72,0
17088,note_on,48,0,1,,,,,,,,0,,,80,0
17100,note_on,12,0,1,,,,,,,,0,,,79,80
17100,note_on,0,0,1,,,,,,,,0,,,75,80
17124,note_on,84,0,4,,,,,,,,0,,,45,0
17145,note_on,21,0,4,,,,,,,,0,,,67,80
17148,note_on,0,0,1,,,,,,,,0,,,79,0
17148,note_on,48,0,1,,,,,,,,0,,,75,0
17157,note_on,12,0,4,,,,,,,,0,,,67,0
17160,note_on,12,0,1,,,,,,,,0,,,72,80
17160,note_on,0,0,1,,,,,,,,0,,,79,80
17160,note_on,3,0,4,,,,,,,,0,,,65,80
17208,note_on,48,0,1,,,,,,,,0,,,79,0
17208,note_on,0,0,1,,,,,,,,0,,,72,0
17220,note_on,0,0,1,,,,,,,,0,,,78,80
17220,note_on,12,0,1,,,,,,,,0,,,75,80
17256,note_on,96,0,4,,,,,,,,0,,,65,0
17268,note_on,0,0,1,,,,,,,,0,,,75,0
17268,note_on,48,0,1,,,,,,,,0,,,78,0
17280,note_on,24,0,4,,,,,,,,0,,,46,80
17280,note_on,0,0,1,,,,,,,,0,,,77,80
17280,note_on,12,0,1,,,,,,,,0,,,74,80
17328,note_on,0,0,1,,,,,,,,0,,,74,0
17328,note_on,48,0,1,,,,,,,,0,,,77,0
17340,note_on,12,0,1,,,,,,,,0,,,70,80
17340,note_on,0,0,1,,,,,,,,0,,,79,80
17376,note_on,96,0,4,,,,,,,,0,,,46,0
17385,note_on,4311,0,2,,,,,,,,0,,,67,80
17388,note_on,48,0,1,,,,,,,,0,,,79,0
17388,note_on,0,0,1,,,,,,,,0,,,70,0
17397,note_on,12,0,2,,,,,,,,0,,,67,0
17400,note_on,0,0,1,,,,,,,,0,,,77,80
17400,note_on,3,0,2,,,,,,,,0,,,65,80
17400,note_on,12,0,1,,,,,,,,0,,,74,80
17448,note_on,48,0,1,,,,,,,,0,,,77,0
17448,note_on,0,0,1,,,,,,,,0,,,74,0
17460,note_on,12,0,1,,,,,,,,0,,,81,80
17496,note_on,96,0,2,,,,,,,,0,,,65,0
17508,note_on,48,0,1,,,,,,,,0,,,81,0
17520,note_on,0,0,1,,,,,,,,0,,,74,80
17520,note_on,12,0,1,,,,,,,,0,,,82,80
17520,note_on,144,0,4,,,,,,,,0,,,56,80
17568,note_on,0,0,1,,,,,,,,0,,,82,0
17568,note_on,48,0,1,,,,,,,,0,,,74,0
17580,note_on,12,0,1,,,,,,,,0,,,77,80
17580,note_on,0,0,1,,,,,,,,0,,,83,80
17616,note_on,96,0,4,,,,,,,,0,,,56,0
17625,note_on,129,0,2,,,,,,,,0,,,71,80
17628,note_on,48,0,1,,,,,,,,0,,,83,0
17628,note_on,0,0,1,,,,,,,,0,,,77,0
17637,note_on,12,0,2,,,,,,,,0,,,71,0
17640,note_on,12,0,1,,,,,,,,0,,,74,80
17640,note_on,3,0,2,,,,,,,,0,,,70,80
17640,note_on,0,0,1,,,,,,,,0,,,82,80
17688,note_on,0,0,1,,,,,,,,0,,,74,0
17688,note_on,48,0,1,,,,,,,,0,,,82,0
17700,note_on,0,0,1,,,,,,,,0,,,77,80
17700,note_on,12,0,1,,,,,,,,0,,,84,80
17736,note_on,96,0,2,,,,,,,,0,,,70,0
17748,note_on,48,0,1,,,,,,,,0,,,77,0
17748,note_on,0,0,1,,,,,,,,0,,,84,0
17760,note_on,144,0,4,,,,,,,,0,,,55,80
17760,note_on,12,0,1,,,,,,,,0,,,75,80
17760,note_on,0,0,1,,,,,,,,0,,,82,80
17808,note_on,0,0,1,,,,,,,,0,,,75,0
17808,note_on,48,0,1,,,,,,,,0,,,82,0
17820,note_on,12,0,1,,,,,,,,0,,,79,80
17820,note_on,0,0,1,,,,,,,,0,,,83,80
17856,note_on,96,0,4,,,,,,,,0,,,55,0
17865,note_on,129,0,2,,,,,,,,0,,,72,80
17868,note_on,48,0,1,,,,,,,,0,,,83,0
17868,note_on,0,0,1,,,,,,,,0,,,79,0
17877,note_on,12,0,2,,,,,,,,0,,,72,0
17880,note_on,3,0,2,,,,,,,,0,,,70,80
17880,note_on,12,0,1,,,,,,,,0,,,82,80
17880,note_on,0,0,1,,,,,,,,0,,,75,80
17928,note_on,0,0,1,,,,,,,,0,,,82,0
17928,note_on,48,0,1,,,,,,,,0,,,75,0
17940,note_on,12,0,1,,,,,,,,0,,,79,80
17940,note_on,0,0,1,,,,,,,,0,,,84,80
17976,note_on,96,0,2,,,,,,,,0,,,70,0
17988,note_on,48,0,1,,,,,,,,0,,,84,0
17988,note_on,0,0,1,,,,,,,,0,,,79,0
18000,note_on,144,0,4,,,,,,,,0,,,50,80
18000,note_on,12,0,1,,,,,,,,0,,,82,80
18000,note_on,0,0,1,,,,,,,,0,,,77,80
18048,note_on,0,0,1,,,,,,,,0,,,82,0
18048,note_on,48,0,1,,,,,,,,0,,,77,0
18060,note_on,12,0,1,,,,,,,,0,,,80,80
18060,note_on,0,0,1,,,,,,,,0,,,83,80
18096,note_on,96,0,4,,,,,,,,0,,,50,0
18105,note_on,129,0,2,,,,,,,,0,,,71,80
18108,note_on,0,0,1,,,,,,,,0,,,80,0
18108,note_on,48,0,1,,,,,,,,0,,,83,0
18117,note_on,12,0,2,,,,,,,,0,,,71,0
18120,note_on,12,0,1,,,,,,,,0,,,77,80
18120,note_on,0,0,1,,,,,,,,0,,,82,80
18120,note_on,3,0,2,,,,,,,,0,,,70,80
18168,note_on,0,0,1,,,,,,,,0,,,77,0
18168,note_on,48,0,1,,,,,,,,0,,,82,0
18180,note_on,0,0,1,,,,,,,,0,,,84,80
18180,note_on,12,0,1,,,,,,,,0,,,80,80
18216,note_on,96,0,2,,,,,,,,0,,,70,0
18228,note_on,48,0,1,,,,,,,,0,,,84,0
18228,note_on,0,0,1,,,,,,,,0,,,80,0
18240,note_on,12,0,1,,,,,,,,0,,,75,80
18240,note_on,0,0,1,,,,,,,,0,,,82,80
18240,note_on,144,0,4,,,,,,,,0,,,51,80
18288,note_on,48,0,1,,,,,,,,0,,,82,0
18288,note_on,0,0,1,,,,,,,,0,,,75,0
18300,note_on,12,0,1,,,,,,,,0,,,83,80
18300,note_on,0,0,1,,,,,,,,0,,,79,80
18336,note_on,96,0,4,,,,,,,,0,,,51,0
18345,note_on,129,0,2,,,,,,,,0,,,71,80
18348,note_on,48,0,1,,,,,,,,0,,,79,0
18348,note_on,0,0,1,,,,,,,,0,,,83,0
18357,note_on,12,0,2,,,,,,,,0,,,71,0
18360,note_on,0,0,1,,,,,,,,0,,,83,80
18360,note_on,12,0,1,,,,,,,,0,,,75,80
18360,note_on,3,0,2,,,,,,,,0,,,70,80
18408,note_on,0,0,1,,,,,,,,0,,,75,0
18408,note_on,48,0,1,,,,,,,,0,,,83,0
18420,note_on,12,0,1,,,,,,,,0,,,84,80
18420,note_on,0,0,1,,,,,,,,0,,,79,80
18456,note_on,96,0,2,,,,,,,,0,,,70,0
18468,note_on,48,0,1,,,,,,,,0,,,79,0
18468,note_on,0,0,1,,,,,,,,0,,,84,0
18480,note_on,12,0,1,,,,,,,,0,,,79,80
18480,note_on,144,0,4,,,,,,,,0,,,46,80
18480,note_on,0,0,1,,,,,,,,0,,,85,80
18528,note_on,0,0,1,,,,,,,,0,,,79,0
18528,note_on,48,0,1,,,,,,,,0,,,85,0
18540,note_on,12,0,1,,,,,,,,0,,,82,80
18540,note_on,0,0,1,,,,,,,,0,,,86,80
18576,note_on,96,0,4,,,,,,,,0,,,46,0
18585,note_on,129,0,2,,,,,,,,0,,,72,80
18588,note_on,48,0,1,,,,,,,,0,,,86,0
18588,note_on,0,0,1,,,,,,,,0,,,82,0
18597,note_on,12,0,2,,,,,,,,0,,,72,0
18600,note_on,0,0,1,,,,,,,,0,,,86,80
18600,note_on,12,0,1,,,,,,,,0,,,79,80
18600,note_on,3,0,2,,,,,,,,0,,,70,80
18648,note_on,48,0,1,,,,,,,,0,,,86,0
18648,note_on,0,0,1,,,,,,,,0,,,79,0
18660,note_on,12,0,1,,,,,,,,0,,,87,80
18660,note_on,0,0,1,,,,,,,,0,,,82,80
18696,note_on,96,0,2,,,,,,,,0,,,70,0
18708,note_on,0,0,1,,,,,,,,0,,,87,0
18708,note_on,48,0,1,,,,,,,,0,,,82,0
18720,note_on,144,0,4,,,,,,,,0,,,46,80
18720,note_on,0,0,1,,,,,,,,0,,,87,80
18720,note_on,12,0,1,,,,,,,,0,,,77,80
18768,note_on,0,0,1,,,,,,,,0,,,77,0
18768,note_on,48,0,1,,,,,,,,0,,,87,0
18780,note_on,0,0,1,,,,,,,,0,,,86,80
18780,note_on,12,0,1,,,,,,,,0,,,80,80
18816,note_on,96,0,4,,,,,,,,0,,,46,0
18825,note_on,129,0,2,,,,,,,,0,,,71,80
18828,note_on,48,0,1,,,,,,,,0,,,86,0
18828,note_on,0,0,1,,,,,,,,0,,,80,0
18837,note_on,12,0,2,,,,,,,,0,,,71,0
18840,note_on,3,0,2,,,,,,,,0,,,70,80
18840,note_on,0,0,1,,,,,,,,0,,,77,80
18840,note_on,12,0,1,,,,,,,,0,,,86,80
18888,note_on,48,0,1,,,,,,,,0,,,77,0
18888,note_on,0,0,1,,,,,,,,0,,,86,0
18900,note_on,12,0,1,,,,,,,,0,,,80,80
18900,note_on,0,0,1,,,,,,,,0,,,85,80
18936,note_on,96,0,2,,,,,,,,0,,,70,0
18948,note_on,48,0,1,,,,,,,,0,,,85,0
18948,note_on,0,0,1,,,,,,,,0,,,80,0
18960,note_on,0,0,1,,,,,,,,0,,,77,80
18960,note_on,144,0,4,,,,,,,,0,,,50,80
18960,note_on,12,0,1,,,,,,,,0,,,85,80
19008,note_on,48,0,1,,,,,,,,0,,,77,0
19008,note_on,0,0,1,,,,,,,,0,,,85,0
19020,note_on,0,0,1,,,,,,,,0,,,84,80
19020,note_on,12,0,1,,,,,,,,0,,,80,80
19056,note_on,96,0,4,,,,,,,,0,,,50,0
19065,note_on,129,0,2,,,,,,,,0,,,72,80
19068,note_on,48,0,1,,,,,,,,0,,,84,0
19068,note_on,0,0,1,,,,,,,,0,,,80,0
19077,note_on,12,0,2,,,,,,,,0,,,72,0
19080,note_on,0,0,1,,,,,,,,0,,,84,80
19080,note_on,12,0,1,,,,,,,,0,,,77,80
19080,note_on,3,0,2,,,,,,,,0,,,70,80
19128,note_on,48,0,1,,,,,,,,0,,,84,0
19128,note_on,0,0,1,,,,,,,,0,,,77,0
19140,note_on,0,0,1,,,,,,,,0,,,83,80
19140,note_on,12,0,1,,,,,,,,0,,,80,80
19176,note_on,96,0,2,,,,,,,,0,,,70,0
19188,note_on,0,0,1,,,,,,,,0,,,80,0
19188,note_on,48,0,1,,,,,,,,0,,,83,0
19200,note_on,0,0,1,,,,,,,,0,,,82,80
19200,note_on,144,0,4,,,,,,,,0,,,51,80
19200,note_on,12,0,1,,,,,,,,0,,,79,80
19248,note_on,0,0,1,,,,,,,,0,,,79,0
19248,note_on,48,0,1,,,,,,,,0,,,82,0
19260,note_on,0,0,1,,,,,,,,0,,,75,80
19260,note_on,12,0,1,,,,,,,,0,,,83,80
19296,note_on,96,0,4,,,,,,,,0,,,51,0
19305,note_on,129,0,2,,,,,,,,0,,,71,80
19308,note_on,48,0,1,,,,,,,,0,,,75,0
19308,note_on,0,0,1,,,,,,,,0,,,83,0
19317,note_on,12,0,2,,,,,,,,0,,,71,0
19320,note_on,12,0,1,,,,,,,,0,,,79,80
19320,note_on,0,0,1,,,,,,,,0,,,82,80
19320,note_on,3,0,2,,,,,,,,0,,,70,80
19368,note_on,48,0,1,,,,,,,,0,,,82,0
19368,note_on,0,0,1,,,,,,,,0,,,79,0
19380,note_on,0,0,1,,,,,,,,0,,,75,80
19380,note_on,12,0,1,,,,,,,,0,,,82,80
19416,note_on,96,0,2,,,,,,,,0,,,70,0
19428,note_on,48,0,1,,,,,,,,0,,,75,0
19428,note_on,0,0,1,,,,,,,,0,,,82,0
19440,note_on,12,0,1,,,,,,,,0,,,82,80
19440,note_on,0,0,1,,,,,,,,0,,,74,80
19440,note_on,144,0,4,,,,,,,,0,,,56,80
19488,note_on,48,0,1,,,,,,,,0,,,74,0
19488,note_on,0,0,1,,,,,,,,0,,,82,0
19500,note_on,12,0,1,,,,,,,,0,,,83,80
19500,note_on,0,0,1,,,,,,,,0,,,77,80
19536,note_on,96,0,4,,,,,,,,0,,,56,0
19545,note_on,129,0,2,,,,,,,,0,,,72,80
19548,note_on,0,0,1,,,,,,,,0,,,83,0
19548,note_on,48,0,1,,,,,,,,0,,,77,0
19557,note_on,12,0,2,,,,,,,,0,,,72,0
19560,note_on,0,0,1,,,,,,,,0,,,82,80
19560,note_on,12,0,1,,,,,,,,0,,,74,80
19560,note_on,3,0,2,,,,,,,,0,,,70,80
19608,note_on,0,0,1,,,,,,,,0,,,74,0
19608,note_on,48,0,1,,,,,,,,0,,,82,0
19620,note_on,0,0,1,,,,,,,,0,,,84,80
19620,note_on,12,0,1,,,,,,,,0,,,77,80
19656,note_on,96,0,2,,,,,,,,0,,,70,0
19668,note_on,0,0,1,,,,,,,,0,,,77,0
19668,note_on,48,0,1,,,,,,,,0,,,84,0
19680,note_on,12,0,1,,,,,,,,0,,,82,80
19680,note_on,144,0,4,,,,,,,,0,,,55,80
19680,note_on,0,0,1,,,,,,,,0,,,75,80
19728,note_on,48,0,1,,,,,,,,0,,,75,0
19728,note_on,0,0,1,,,,,,,,0,,,82,0
19740,note_on,0,0,1,,,,,,,,0,,,79,80
19740,note_on,12,0,1,,,,,,,,0,,,83,80
19776,note_on,96,0,4,,,,,,,,0,,,55,0
19785,note_on,129,0,2,,,,,,,,0,,,71,80
19788,note_on,0,0,1,,,,,,,,0,,,83,0
19788,note_on,48,0,1,,,,,,,,0,,,79,0
19797,note_on,12,0,2,,,,,,,,0,,,71,0
19800,note_on,12,0,1,,,,,,,,0,,,82,80
19800,note_on,0,0,1,,,,,,,,0,,,75,80
19800,note_on,3,0,2,,,,,,,,0,,,70,80
19848,note_on,0,0,1,,,,,,,,0,,,82,0
19848,note_on,48,0,1,,,,,,,,0,,,75,0
19860,note_on,0,0,1,,,,,,,,0,,,79,80
19860,note_on,12,0,1,,,,,,,,0,,,84,80
19896,note_on,96,0,2,,,,,,,,0,,,70,0
19908,note_on,0,0,1,,,,,,,,0,,,84,0
19908,note_on,48,0,1,,,,,,,,0,,,79,0
19920,note_on,0,0,1,,,,,,,,0,,,77,80
19920,note_on,12,0,1,,,,,,,,0,,,82,80
19920,note_on,144,0,4,,,,,,,,0,,,50,80
19968,note_on,0,0,1,,,,,,,,0,,,82,0
19968,note_on,48,0,1,,,,,,,,0,,,77,0
19980,note_on,12,0,1,,,,,,,,0,,,80,80
19980,note_on,0,0,1,,,,,,,,0,,,83,80
20016,note_on,96,0,4,,,,,,,,0,,,50,0
20025,note_on,129,0,2,,,,,,,,0,,,72,80
20028,note_on,48,0,1,,,,,,,,0,,,83,0
20028,note_on,0,0,1,,,,,,,,0,,,80,0
20037,note_on,12,0,2,,,,,,,,0,,,72,0
20040,note_on,12,0,1,,,,,,,,0,,,77,80
20040,note_on,0,0,1,,,,,,,,0,,,82,80
20040,note_on,3,0,2,,,,,,,,0,,,70,80
20088,note_on,0,0,1,,,,,,,,0,,,77,0
20088,note_on,48,0,1,,,,,,,,0,,,82,0
20100,note_on,0,0,1,,,,,,,,0,,,84,80
20100,note_on,12,0,1,,,,,,,,0,,,80,80
20136,note_on,96,0,2,,,,,,,,0,,,70,0
20148,note_on,0,0,1,,,,,,,,0,,,80,0
20148,note_on,48,0,1,,,,,,,,0,,,84,0
20160,note_on,0,0,1,,,,,,,,0,,,82,80
20160,note_on,144,0,4,,,,,,,,0,,,51,80
20160,note_on,12,0,1,,,,,,,,0,,,75,80
20208,note_on,0,0,1,,,,,,,,0,,,75,0
20208,note_on,48,0,1,,,,,,,,0,,,82,0
20220,note_on,12,0,1,,,,,,,,0,,,83,80
20220,note_on,0,0,1,,,,,,,,0,,,79,80
20256,note_on,96,0,4,,,,,,,,0,,,51,0
20265,note_on,129,0,2,,,,,,,,0,,,71,80
20268,note_on,0,0,1,,,,,,,,0,,,83,0
20268,note_on,48,0,1,,,,,,,,0,,,79,0
20277,note_on,12,0,2,,,,,,,,0,,,71,0
20280,note_on,0,0,1,,,,,,,,0,,,75,80
20280,note_on,12,0,1,,,,,,,,0,,,83,80
20280,note_on,3,0,2,,,,,,,,0,,,70,80
20328,note_on,0,0,1,,,,,,,,0,,,83,0
20328,note_on,48,0,1,,,,,,,,0,,,75,0
20340,note_on,12,0,1,,,,,,,,0,,,79,80
20340,note_on,0,0,1,,,,,,,,0,,,84,80
20376,note_on,96,0,2,,,,,,,,0,,,70,0
20388,note_on,0,0,1,,,,,,,,0,,,79,0
20388,note_on,48,0,1,,,,,,,,0,,,84,0
20400,note_on,144,0,4,,,,,,,,0,,,46,80
20400,note_on,12,0,1,,,,,,,,0,,,85,80
20400,note_on,0,0,1,,,,,,,,0,,,79,80
20448,note_on,48,0,1,,,,,,,,0,,,79,0
20448,note_on,0,0,1,,,,,,,,0,,,85,0
20460,note_on,0,0,1,,,,,,,,0,,,82,80
20460,note_on,12,0,1,,,,,,,,0,,,86,80
20496,note_on,96,0,4,,,,,,,,0,,,46,0
20505,note_on,129,0,2,,,,,,,,0,,,72,80
20508,note_on,0,0,1,,,,,,,,0,,,86,0
20508,note_on,48,0,1,,,,,,,,0,,,82,0
20517,note_on,12,0,2,,,,,,,,0,,,72,0
20520,note_on,0,0,1,,,,,,,,0,,,86,80
20520,note_on,12,0,1,,,,,,,,0,,,79,80
20520,note_on,3,0,2,,,,,,,,0,,,70,80
20568,note_on,0,0,1,,,,,,,,0,,,79,0
20568,note_on,48,0,1,,,,,,,,0,,,86,0
20580,note_on,0,0,1,,,,,,,,0,,,87,80
20580,note_on,12,0,1,,,,,,,,0,,,82,80
20616,note_on,96,0,2,,,,,,,,0,,,70,0
20628,note_on,0,0,1,,,,,,,,0,,,82,0
20628,note_on,48,0,1,,,,,,,,0,,,87,0
20640,note_on,0,0,1,,,,,,,,0,,,77,80
20640,note_on,12,0,1,,,,,,,,0,,,87,80
20640,note_on,144,0,4,,,,,,,,0,,,46,80
20688,note_on,0,0,1,,,,,,,,0,,,87,0
20688,note_on,48,0,1,,,,,,,,0,,,77,0
20700,note_on,0,0,1,,,,,,,,0,,,80,80
20700,note_on,12,0,1,,,,,,,,0,,,86,80
20736,note_on,96,0,4,,,,,,,,0,,,46,0
20745,note_on,129,0,2,,,,,,,,0,,,71,80
20748,note_on,48,0,1,,,,,,,,0,,,80,0
20748,note_on,0,0,1,,,,,,,,0,,,86,0
20757,note_on,12,0,2,,,,,,,,0,,,71,0
20760,note_on,12,0,1,,,,,,,,0,,,86,80
20760,note_on,0,0,1,,,,,,,,0,,,77,80
20760,note_on,3,0,2,,,,,,,,0,,,70,80
20808,note_on,48,0,1,,,,,,,,0,,,77,0
20808,note_on,0,0,1,,,,,,,,0,,,86,0
20820,note_on,0,0,1,,,,,,,,0,,,85,80
20820,note_on,12,0,1,,,,,,,,0,,,80,80
20856,note_on,96,0,2,,,,,,,,0,,,70,0
20868,note_on,48,0,1,,,,,,,,0,,,85,0
20868,note_on,0,0,1,,,,,,,,0,,,80,0
20880,note_on,12,0,1,,,,,,,,0,,,85,80
20880,note_on,144,0,4,,,,,,,,0,,,50,80
20880,note_on,0,0,1,,,,,,,,0,,,77,80
20928,note_on,0,0,1,,,,,,,,0,,,85,0
20928,note_on,48,0,1,,,,,,,,0,,,77,0
20940,note_on,0,0,1,,,,,,,,0,,,80,80
20940,note_on,12,0,1,,,,,,,,0,,,84,80
20976,note_on,96,0,4,,,,,,,,0,,,50,0
20985,note_on,129,0,2,,,,,,,,0,,,72,80
20988,note_on,0,0,1,,,,,,,,0,,,84,0
20988,note_on,48,0,1,,,,,,,,0,,,80,0
20997,note_on,12,0,2,,,,,,,,0,,,72,0
21000,note_on,3,0,2,,,,,,,,0,,,70,80
21000,note_on,0,0,1,,,,,,,,0,,,84,80
21000,note_on,12,0,1,,,,,,,,0,,,77,80
21048,note_on,0,0,1,,,,,,,,0,,,77,0
21048,note_on,48,0,1,,,,,,,,0,,,84,0
21060,note_on,0,0,1,,,,,,,,0,,,83,80
21060,note_on,12,0,1,,,,,,,,0,,,80,80
21096,note_on,96,0,2,,,,,,,,0,,,70,0
21108,note_on,48,0,1,,,,,,,,0,,,83,0
21108,note_on,0,0,1,,,,,,,,0,,,80,0
21120,note_on,144,0,4,,,,,,,,0,,,51,80
21120,note_on,12,0,1,,,,,,,,0,,,82,80
21120,note_on,0,0,1,,,,,,,,0,,,79,80
21168,note_on,48,0,1,,,,,,,,0,,,79,0
21168,note_on,0,0,1,,,,,,,,0,,,82,0
21180,note_on,12,0,1,,,,,,,,0,,,84,80
21180,note_on,0,0,1,,,,,,,,0,,,75,80
21228,note_on,48,0,1,,,,,,,,0,,,75,0
21228,note_on,0,0,1,,,,,,,,0,,,84,0
21240,note_on,0,0,1,,,,,,,,0,,,82,80
21240,note_on,12,0,1,,,,,,,,0,,,77,80
21288,note_on,0,0,1,,,,,,,,0,,,77,0
21288,note_on,48,0,1,,,,,,,,0,,,82,0
21300,note_on,12,0,1,,,,,,,,0,,,87,80
21312,note_on,192,0,4,,,,,,,,0,,,51,0
21348,note_on,48,0,1,,,,,,,,0,,,87,0
21360,note_on,0,0,4,,,,,,,,0,,,35,80
21360,note_on,0,0,1,,,,,,,,0,,,80,80
21360,note_on,48,0,4,,,,,,,,0,,,47,80
21360,note_on,12,0,1,,,,,,,,0,,,91,80
21360,control_change,0,0,4,,,,,,,,0,64,127,,
21408,note_on,48,0,1,,,,,,,,0,,,80,0
21408,note_on,0,0,1,,,,,,,,0,,,91,0
21420,note_on,0,0,1,,,,,,,,0,,,86,80
21420,note_on,12,0,1,,,,,,,,0,,,88,80
21456,note_on,0,0,4,,,,,,,,0,,,47,0
21456,note_on,96,0,4,,,,,,,,0,,,35,0
21468,note_on,0,0,1,,,,,,,,0,,,88,0
21468,note_on,48,0,1,,,,,,,,0,,,86,0
21480,note_on,24,0,4,,,,,,,,0,,,62,80
21480,note_on,0,0,4,,,,,,,,0,,,56,80
21480,note_on,0,0,1,,,,,,,,0,,,91,80
21480,note_on,12,0,1,,,,,,,,0,,,80,80
21480,note_on,0,0,4,,,,,,,,0,,,53,80
21528,note_on,48,0,1,,,,,,,,0,,,91,0
21528,note_on,0,0,1,,,,,,,,0,,,80,0
21540,note_on,12,0,1,,,,,,,,0,,,86,80
21540,note_on,0,0,1,,,,,,,,0,,,89,80
21576,note_on,0,0,4,,,,,,,,0,,,56,0
21576,note_on,0,0,4,,,,,,,,0,,,62,0
21576,note_on,96,0,4,,,,,,,,0,,,53,0
21588,note_on,0,0,1,,,,,,,,0,,,86,0
21588,note_on,48,0,1,,,,,,,,0,,,89,0
21600,note_on,24,0,4,,,,,,,,0,,,48,80
21600,note_on,0,0,1,,,,,,,,0,,,89,80
21600,note_on,0,0,4,,,,,,,,0,,,55,80
21600,note_on,0,0,4,,,,,,,,0,,,63,80
21600,note_on,12,0,1,,,,,,,,0,,,79,80
21602,control_change,2,0,4,,,,,,,,0,64,0,,
21626,control_change,24,0,4,,,,,,,,0,64,127,,
21648,note_on,0,0,1,,,,,,,,0,,,79,0
21648,note_on,48,0,1,,,,,,,,0,,,89,0
21660,note_on,0,0,1,,,,,,,,0,,,84,80
21660,note_on,12,0,1,,,,,,,,0,,,86,80
21708,note_on,0,0,1,,,,,,,,0,,,86,0
21708,note_on,48,0,1,,,,,,,,0,,,84,0
21720,note_on,0,0,1,,,,,,,,0,,,89,80
21720,note_on,12,0,1,,,,,,,,0,,,79,80
21768,note_on,0,0,1,,,,,,,,0,,,79,0
21768,note_on,48,0,1,,,,,,,,0,,,89,0
21780,note_on,12,0,1,,,,,,,,0,,,84,80
21780,note_on,0,0,1,,,,,,,,0,,,87,80
21792,note_on,166,0,4,,,,,,,,0,,,63,0
21792,note_on,0,0,4,,,,,,,,0,,,55,0
21792,note_on,0,0,4,,,,,,,,0,,,48,0
21828,note_on,0,0,1,,,,,,,,0,,,84,0
21828,note_on,48,0,1,,,,,,,,0,,,87,0
21840,note_on,0,0,1,,,,,,,,0,,,77,80
21840,note_on,0,0,4,,,,,,,,0,,,50,80
21840,note_on,48,0,4,,,,,,,,0,,,38,80
21840,note_on,12,0,1,,,,,,,,0,,,87,80
21842,control_change,2,0,4,,,,,,,,0,64,0,,
21861,control_change,19,0,4,,,,,,,,0,64,127,,
21888,note_on,0,0,1,,,,,,,,0,,,87,0
21888,note_on,48,0,1,,,,,,,,0,,,77,0
21900,note_on,12,0,1,,,,,,,,0,,,83,80
21900,note_on,0,0,1,,,,,,,,0,,,85,80
21936,note_on,75,0,4,,,,,,,,0,,,50,0
21936,note_on,0,0,4,,,,,,,,0,,,38,0
21948,note_on,0,0,1,,,,,,,,0,,,83,0
21948,note_on,48,0,1,,,,,,,,0,,,85,0
21960,note_on,0,0,1,,,,,,,,0,,,77,80
21960,note_on,12,0,1,,,,,,,,0,,,87,80
21960,note_on,0,0,4,,,,,,,,0,,,65,80
21960,note_on,0,0,4,,,,,,,,0,,,59,80
21960,note_on,24,0,4,,,,,,,,0,,,56,80
22008,note_on,48,0,1,,,,,,,,0,,,77,0
22008,note_on,0,0,1,,,,,,,,0,,,87,0
22020,note_on,12,0,1,,,,,,,,0,,,83,80
22020,note_on,0,0,1,,,,,,,,0,,,86,80
22050,note_on,8382,0,3,,,,,,,,0,,,51,80
22056,note_on,0,0,4,,,,,,,,0,,,65,0
22056,note_on,0,0,4,,,,,,,,0,,,56,0
22056,note_on,96,0,4,,,,,,,,0,,,59,0
22065,note_on,15,0,3,,,,,,,,0,,,60,80
22068,note_on,48,0,1,,,,,,,,0,,,86,0
22068,note_on,0,0,1,,,,,,,,0,,,83,0
22080,note_on,984,0,2,,,,,,,,0,,,75,80
22080,control_change,24,0,4,,,,,,,,0,64,0,,
22080,note_on,12,0,1,,,,,,,,0,,,86,80
22080,note_on,15,0,3,,,,,,,,0,,,67,80
22108,control_change,28,0,4,,,,,,,,0,64,127,,
22128,note_on,48,0,2,,,,,,,,0,,,75,0
22140,note_on,0,0,2,,,,,,,,0,,,83,80
22140,note_on,12,0,2,,,,,,,,0,,,79,80
22188,note_on,0,0,2,,,,,,,,0,,,79,0
22188,note_on,48,0,2,,,,,,,,0,,,83,0
22200,note_on,0,0,2,,,,,,,,0,,,86,80
22200,note_on,12,0,2,,,,,,,,0,,,75,80
22224,note_on,144,0,1,,,,,,,,0,,,86,0
22248,note_on,0,0,2,,,,,,,,0,,,75,0
22248,note_on,48,0,2,,,,,,,,0,,,86,0
22260,note_on,12,0,2,,,,,,,,0,,,79,80
22260,note_on,36,0,1,,,,,,,,0,,,84,80
22266,note_on,186,0,3,,,,,,,,0,,,51,0
22269,note_on,3,0,3,,,,,,,,0,,,60,0
22272,note_on,3,0,3,,,,,,,,0,,,67,0
22308,note_on,48,0,2,,,,,,,,0,,,79,0
22308,note_on,48,0,1,,,,,,,,0,,,84,0
22320,note_on,0,0,4,,,,,,,,0,,,52,80
22320,note_on,12,0,2,,,,,,,,0,,,79,80
22320,note_on,212,0,4,,,,,,,,0,,,40,80
22320,note_on,12,0,1,,,,,,,,0,,,84,80
22325,control_change,5,0,4,,,,,,,,0,64,0,,
22348,control_change,23,0,4,,,,,,,,0,64,127,,
22368,note_on,48,0,2,,,,,,,,0,,,79,0
22380,note_on,0,0,2,,,,,,,,0,,,73,80
22380,note_on,12,0,2,,,,,,,,0,,,81,80
22416,note_on,68,0,4,,,,,,,,0,,,52,0
22416,note_on,0,0,4,,,,,,,,0,,,40,0
22428,note_on,48,0,2,,,,,,,,0,,,73,0
22428,note_on,0,0,2,,,,,,,,0,,,81,0
22440,note_on,0,0,4,,,,,,,,0,,,55,80
22440,note_on,12,0,2,,,,,,,,0,,,79,80
22440,note_on,24,0,4,,,,,,,,0,,,43,80
22440,note_on,0,0,2,,,,,,,,0,,,84,80
22464,note_on,144,0,1,,,,,,,,0,,,84,0
22488,note_on,48,0,2,,,,,,,,0,,,84,0
22488,note_on,0,0,2,,,,,,,,0,,,79,0
22500,note_on,12,0,2,,,,,,,,0,,,73,80
22500,note_on,36,0,1,,,,,,,,0,,,82,80
22536,note_on,0,0,4,,,,,,,,0,,,43,0
22536,note_on,96,0,4,,,,,,,,0,,,55,0
22548,note_on,48,0,2,,,,,,,,0,,,73,0
22548,note_on,48,0,1,,,,,,,,0,,,82,0
22560,note_on,0,0,4,,,,,,,,0,,,46,80
22560,note_on,24,0,4,,,,,,,,0,,,58,80
22560,note_on,12,0,1,,,,,,,,0,,,81,80
22560,control_change,0,0,4,,,,,,,,0,64,0,,
22560,note_on,12,0,2,,,,,,,,0,,,73,80
22588,control_change,28,0,4,,,,,,,,0,64,127,,
22608,note_on,48,0,2,,,,,,,,0,,,73,0
22620,note_on,0,0,2,,,,,,,,0,,,70,80
22620,note_on,12,0,2,,,,,,,,0,,,78,80
22656,note_on,0,0,4,,,,,,,,0,,,58,0
22656,note_on,68,0,4,,,,,,,,0,,,46,0
22668,note_on,48,0,2,,,,,,,,0,,,70,0
22668,note_on,0,0,2,,,,,,,,0,,,78,0
22680,note_on,0,0,2,,,,,,,,0,,,76,80
22680,note_on,24,0,4,,,,,,,,0,,,49,80
22680,note_on,12,0,2,,,,,,,,0,,,81,80
22680,note_on,0,0,4,,,,,,,,0,,,61,80
22704,note_on,144,0,1,,,,,,,,0,,,81,0
22728,note_on,48,0,2,,,,,,,,0,,,76,0
22728,note_on,0,0,2,,,,,,,,0,,,81,0
22740,note_on,36,0,1,,,,,,,,0,,,79,80
22740,note_on,12,0,2,,,,,,,,0,,,70,80
22776,note_on,96,0,4,,,,,,,,0,,,61,0
22776,note_on,0,0,4,,,,,,,,0,,,49,0
22788,note_on,48,0,2,,,,,,,,0,,,70,0
22788,note_on,48,0,1,,,,,,,,0,,,79,0
22800,note_on,24,0,4,,,,,,,,0,,,61,80
22800,note_on,528,0,3,,,,,,,,0,,,65,80
22800,note_on,12,0,2,,,,,,,,0,,,73,80
22800,note_on,12,0,1,,,,,,,,0,,,77,80
22800,note_on,0,0,2,,,,,,,,0,,,70,80
22800,note_on,0,0,4,,,,,,,,0,,,55,80
22802,control_change,2,0,4,,,,,,,,0,64,0,,
22835,control_change,33,0,4,,,,,,,,0,64,127,,
22848,note_on,48,0,2,,,,,,,,0,,,70,0
22848,note_on,0,0,2,,,,,,,,0,,,73,0
22860,note_on,12,0,2,,,,,,,,0,,,67,80
22860,note_on,0,0,2,,,,,,,,0,,,75,80
22896,note_on,61,0,4,,,,,,,,0,,,55,0
22908,note_on,0,0,2,,,,,,,,0,,,67,0
22908,note_on,48,0,2,,,,,,,,0,,,75,0
22920,note_on,12,0,2,,,,,,,,0,,,77,80
22920,note_on,0,0,2,,,,,,,,0,,,73,80
22920,note_on,24,0,4,,,,,,,,0,,,58,80
22944,note_on,144,0,1,,,,,,,,0,,,77,0
22944,note_on,144,0,3,,,,,,,,0,,,65,0
22968,note_on,0,0,2,,,,,,,,0,,,77,0
22968,note_on,48,0,2,,,,,,,,0,,,73,0
22980,note_on,12,0,2,,,,,,,,0,,,67,80
22980,note_on,36,0,1,,,,,,,,0,,,76,80
22980,note_on,36,0,3,,,,,,,,0,,,64,80
22992,note_on,72,0,4,,,,,,,,0,,,61,0
23016,note_on,24,0,4,,,,,,,,0,,,58,0
23028,note_on,48,0,3,,,,,,,,0,,,64,0
23028,note_on,48,0,1,,,,,,,,0,,,76,0
23028,note_on,48,0,2,,,,,,,,0,,,67,0
23039,set_tempo,9540,1,0,,,,,,405323,,,,,,
23040,note_on,0,0,2,,,,,,,,0,,,70,80
23040,note_on,12,0,1,,,,,,,,0,,,79,80
23040,note_on,24,0,4,,,,,,,,0,,,53,80
23040,note_on,0,0,4,,,,,,,,0,,,67,80
23040,note_on,12,0,2,,,,,,,,0,,,74,80
23040,note_on,0,0,4,,,,,,,,0,,,62,80
23040,note_on,0,0,4,,,,,,,,0,,,58,80
23042,control_change,2,0,4,,,,,,,,0,64,0,,
23044,set_tempo,5,1,0,,,,,,410818,,,,,,
23075,control_change,33,0,4,,,,,,,,0,64,127,,
23088,note_on,48,0,2,,,,,,,,0,,,70,0
23088,note_on,0,0,2,,,,,,,,0,,,74,0
23100,note_on,12,0,2,,,,,,,,0,,,65,80
23148,note_on,48,0,2,,,,,,,,0,,,65,0
23160,note_on,12,0,2,,,,,,,,0,,,70,80
23160,note_on,0,0,2,,,,,,,,0,,,74,80
23184,note_on,144,0,1,,,,,,,,0,,,79,0
23208,note_on,48,0,2,,,,,,,,0,,,74,0
23208,note_on,0,0,2,,,,,,,,0,,,70,0
23220,note_on,36,0,1,,,,,,,,0,,,77,79
23232,note_on,0,0,4,,,,,,,,0,,,53,0
23232,note_on,0,0,4,,,,,,,,0,,,62,0
23232,note_on,157,0,4,,,,,,,,0,,,58,0
23232,note_on,0,0,4,,,,,,,,0,,,67,0
23258,set_tempo,214,1,0,,,,,,408052,,,,,,
23268,note_on,48,0,1,,,,,,,,0,,,77,0
23280,note_on,48,0,4,,,,,,,,0,,,53,79
23280,note_on,72,0,2,,,,,,,,0,,,68,79
23280,note_on,0,0,4,,,,,,,,0,,,59,79
23280,note_on,12,0,1,,,,,,,,0,,,74,79
23282,control_change,2,0,4,,,,,,,,0,64,0,,
23301,control_change,19,0,4,,,,,,,,0,64,127,,
23328,note_on,48,0,2,,,,,,,,0,,,68,0
23340,note_on,12,0,2,,,,,,,,0,,,65,78
23388,note_on,48,0,2,,,,,,,,0,,,65,0
23400,note_on,12,0,2,,,,,,,,0,,,68,78
23424,note_on,144,0,1,,,,,,,,0,,,74,0
23448,note_on,48,0,2,,,,,,,,0,,,68,0
23460,note_on,36,0,1,,,,,,,,0,,,75,77
23467,set_tempo,209,1,0,,,,,,405323,,,,,,
23472,note_on,171,0,4,,,,,,,,0,,,59,0
23508,note_on,48,0,1,,,,,,,,0,,,75,0
23515,control_change,43,0,4,,,,,,,,0,64,0,,
23520,note_on,5,0,4,,,,,,,,0,,,60,77
23520,note_on,12,0,1,,,,,,,,0,,,74,77
23520,note_on,0,0,2,,,,,,,,0,,,64,77
23520,note_on,72,0,2,,,,,,,,0,,,70,77
23538,control_change,18,0,4,,,,,,,,0,64,127,,
23568,note_on,48,0,2,,,,,,,,0,,,64,0
23568,note_on,0,0,2,,,,,,,,0,,,70,0
23580,note_on,12,0,2,,,,,,,,0,,,67,76
23628,note_on,48,0,2,,,,,,,,0,,,67,0
23640,note_on,12,0,2,,,,,,,,0,,,64,76
23664,note_on,144,0,1,,,,,,,,0,,,74,0
23664,note_on,126,0,4,,,,,,,,0,,,53,0
23677,set_tempo,210,1,0,,,,,,402631,,,,,,
23688,note_on,48,0,2,,,,,,,,0,,,64,0
23700,note_on,36,0,1,,,,,,,,0,,,72,76
23712,note_on,48,0,4,,,,,,,,0,,,60,0
23748,note_on,48,0,1,,,,,,,,0,,,72,0
23760,note_on,12,0,1,,,,,,,,0,,,67,76
23760,note_on,48,0,4,,,,,,,,0,,,55,76
23760,note_on,72,0,2,,,,,,,,0,,,63,76
23762,control_change,2,0,4,,,,,,,,0,64,0,,
23783,control_change,21,0,4,,,,,,,,0,64,127,,
23808,note_on,48,0,2,,,,,,,,0,,,63,0
23820,note_on,12,0,2,,,,,,,,0,,,60,75
23868,note_on,48,0,2,,,,,,,,0,,,60,0
23880,note_on,12,0,2,,,,,,,,0,,,63,75
23886,set_tempo,209,1,0,,,,,,399973,,,,,,
23904,note_on,144,0,1,,,,,,,,0,,,67,0
23904,note_on,121,0,4,,,,,,,,0,,,55,0
23928,note_on,48,0,2,,,,,,,,0,,,63,0
23940,note_on,36,0,4,,,,,,,,0,,,53,74
23940,note_on,36,0,1,,,,,,,,0,,,69,74
23988,note_on,48,0,1,,,,,,,,0,,,69,0
23988,note_on,48,0,4,,,,,,,,0,,,53,0
24000,control_change,12,0,4,,,,,,,,0,64,0,,
24000,note_on,72,0,2,,,,,,,,0,,,62,74
24000,note_on,0,0,4,,,,,,,,0,,,41,74
24000,note_on,12,0,1,,,,,,,,0,,,72,74
24032,control_change,32,0,4,,,,,,,,0,64,127,,
24048,note_on,48,0,2,,,,,,,,0,,,62,0
24060,note_on,12,0,2,,,,,,,,0,,,65,73
24095,set_tempo,209,1,0,,,,,,397351,,,,,,
24108,note_on,48,0,2,,,,,,,,0,,,65,0
24120,note_on,12,0,2,,,,,,,,0,,,62,73
24135,set_tempo,40,1,0,,,,,,397351,,,,,,
24144,note_on,144,0,1,,,,,,,,0,,,72,0
24168,note_on,48,0,2,,,,,,,,0,,,62,0
24180,note_on,36,0,1,,,,,,,,0,,,70,72
24192,note_on,160,0,4,,,,,,,,0,,,41,0
24228,note_on,48,0,1,,,,,,,,0,,,70,0
24240,note_on,48,0,4,,,,,,,,0,,,41,72
24240,note_on,1212,0,3,,,,,,,,0,,,47,72
24240,note_on,0,0,3,,,,,,,,0,,,50,72
24240,note_on,12,0,1,,,,,,,,0,,,67,72
24240,note_on,72,0,2,,,,,,,,0,,,56,72
24247,control_change,7,0,4,,,,,,,,0,64,0,,
24248,set_tempo,113,1,0,,,,,,399973,,,,,,
24258,control_change,11,0,4,,,,,,,,0,64,127,,
24288,note_on,48,0,2,,,,,,,,0,,,56,0
24300,note_on,12,0,2,,,,,,,,0,,,62,72
24348,note_on,48,0,2,,,,,,,,0,,,62,0
24360,note_on,12,0,2,,,,,,,,0,,,56,72
24362,set_tempo,114,1,0,,,,,,402631,,,,,,
24384,note_on,144,0,1,,,,,,,,0,,,67,0
24408,note_on,48,0,2,,,,,,,,0,,,56,0
24420,note_on,12,0,2,,,,,,,,0,,,62,71
24420,note_on,36,0,1,,,,,,,,0,,,65,71
24432,note_on,0,0,3,,,,,,,,0,,,47,0
24432,note_on,192,0,3,,,,,,,,0,,,50,0
24468,note_on,48,0,1,,,,,,,,0,,,65,0
24468,note_on,48,0,2,,,,,,,,0,,,62,0
24475,set_tempo,113,1,0,,,,,,405323,,,,,,
24480,control_change,222,0,4,,,,,,,,0,64,0,,
24480,note_on,12,0,2,,,,,,,,0,,,55,71
24480,note_on,12,0,1,,,,,,,,0,,,65,71
24480,note_on,48,0,3,,,,,,,,0,,,51,71
24480,note_on,0,0,3,,,,,,,,0,,,48,71
24501,control_change,21,0,4,,,,,,,,0,64,127,,
24528,note_on,48,0,2,,,,,,,,0,,,55,0
24540,note_on,12,0,2,,,,,,,,0,,,60,70
24588,note_on,48,0,2,,,,,,,,0,,,60,0
24589,set_tempo,114,1,0,,,,,,408052,,,,,,
24593,set_tempo,4,1,0,,,,,,410818,,,,,,
24597,set_tempo,4,1,0,,,,,,413622,,,,,,
24600,note_on,12,0,2,,,,,,,,0,,,55,70
24602,set_tempo,5,1,0,,,,,,416464,,,,,,
24606,set_tempo,4,1,0,,,,,,419346,,,,,,
24610,set_tempo,4,1,0,,,,,,422268,,,,,,
24615,set_tempo,5,1,0,,,,,,425230,,,,,,
24619,set_tempo,4,1,0,,,,,,428235,,,,,,
24623,set_tempo,4,1,0,,,,,,431282,,,,,,
24624,note_on,144,0,1,,,,,,,,0,,,65,0
24624,note_on,123,0,4,,,,,,,,0,,,41,0
24628,set_tempo,5,1,0,,,,,,434373,,,,,,
24632,set_tempo,4,1,0,,,,,,437509,,,,,,
24637,set_tempo,5,1,0,,,,,,440690,,,,,,
24641,set_tempo,4,1,0,,,,,,443918,,,,,,
24645,set_tempo,4,1,0,,,,,,447194,,,,,,
24648,note_on,48,0,2,,,,,,,,0,,,55,0
24650,set_tempo,5,1,0,,,,,,450518,,,,,,
24654,set_tempo,4,1,0,,,,,,453892,,,,,,
24658,set_tempo,4,1,0,,,,,,457317,,,,,,
24660,note_on,12,0,2,,,,,,,,0,,,60,69
24660,note_on,36,0,1,,,,,,,,0,,,63,69
24667,set_tempo,9,1,0,,,,,,460794,,,,,,
24671,set_tempo,4,1,0,,,,,,464324,,,,,,
24672,note_on,0,0,3,,,,,,,,0,,,51,0
24672,note_on,192,0,3,,,,,,,,0,,,48,0
24676,set_tempo,5,1,0,,,,,,467909,,,,,,
24680,set_tempo,4,1,0,,,,,,471550,,,,,,
24685,set_tempo,5,1,0,,,,,,475248,,,,,,
24689,set_tempo,4,1,0,,,,,,479004,,,,,,
24693,set_tempo,4,1,0,,,,,,482820,,,,,,
24698,set_tempo,5,1,0,,,,,,486697,,,,,,
24702,set_tempo,4,1,0,,,,,,490637,,,,,,
24706,set_tempo,4,1,0,,,,,,494641,,,,,,
24708,note_on,48,0,1,,,,,,,,0,,,63,0
24708,note_on,48,0,2,,,,,,,,0,,,60,0
24711,set_tempo,5,1,0,,,,,,498712,,,,,,
24715,set_tempo,4,1,0,,,,,,502849,,,,,,
24718,control_change,94,0,4,,,,,,,,0,64,0,,
24719,set_tempo,4,1,0,,,,,,507057,,,,,,
24720,note_on,2,0,4,,,,,,,,0,,,42,69
24720,note_on,12,0,2,,,,,,,,0,,,51,69
24720,note_on,0,0,4,,,,,,,,0,,,30,69
24720,note_on,12,0,1,,,,,,,,0,,,60,69
24720,note_on,0,0,2,,,,,,,,0,,,57,69
24724,set_tempo,5,1,0,,,,,,511335,,,,,,
24728,set_tempo,4,1,0,,,,,,515685,,,,,,
24733,set_tempo,5,1,0,,,,,,520111,,,,,,
24741,set_tempo,8,1,0,,,,,,524613,,,,,,
24746,set_tempo,5,1,0,,,,,,529194,,,,,,
24754,set_tempo,8,1,0,,,,,,533855,,,,,,
24759,set_tempo,5,1,0,,,,,,538600,,,,,,
24759,control_change,39,0,4,,,,,,,,0,64,127,,
24767,set_tempo,8,1,0,,,,,,543429,,,,,,
24768,note_on,48,0,2,,,,,,,,0,,,57,0
24768,note_on,0,0,2,,,,,,,,0,,,51,0
24772,set_tempo,5,1,0,,,,,,548346,,,,,,
24780,note_on,12,0,2,,,,,,,,0,,,54,68
24781,set_tempo,9,1,0,,,,,,553352,,,,,,
24785,set_tempo,4,1,0,,,,,,558451,,,,,,
24794,set_tempo,9,1,0,,,,,,563645,,,,,,
24798,set_tempo,4,1,0,,,,,,568936,,,,,,
24807,set_tempo,9,1,0,,,,,,574328,,,,,,
24811,set_tempo,4,1,0,,,,,,579822,,,,,,
24816,note_on,0,0,4,,,,,,,,0,,,42,0
24816,note_on,57,0,4,,,,,,,,0,,,30,0
24820,set_tempo,9,1,0,,,,,,585423,,,,,,
24824,set_tempo,4,1,0,,,,,,591133,,,,,,
24828,note_on,48,0,2,,,,,,,,0,,,54,0
24833,set_tempo,9,1,0,,,,,,596956,,,,,,
24837,set_tempo,4,1,0,,,,,,602894,,,,,,
24840,note_on,0,0,4,,,,,,,,0,,,41,68
24840,note_on,12,0,2,,,,,,,,0,,,51,68
24840,note_on,24,0,4,,,,,,,,0,,,29,68
24846,set_tempo,9,1,0,,,,,,608952,,,,,,
24850,set_tempo,4,1,0,,,,,,615132,,,,,,
24859,set_tempo,9,1,0,,,,,,621440,,,,,,
24863,set_tempo,4,1,0,,,,,,627878,,,,,,
24864,note_on,144,0,1,,,,,,,,0,,,60,0
24872,set_tempo,9,1,0,,,,,,634451,,,,,,
24877,set_tempo,5,1,0,,,,,,641163,,,,,,
24885,set_tempo,8,1,0,,,,,,648018,,,,,,
24888,note_on,48,0,2,,,,,,,,0,,,51,0
24890,set_tempo,5,1,0,,,,,,655022,,,,,,
24898,set_tempo,8,1,0,,,,,,662179,,,,,,
24900,note_on,12,0,2,,,,,,,,0,,,53,68
24900,note_on,36,0,1,,,,,,,,0,,,62,68
24903,set_tempo,5,1,0,,,,,,669493,,,,,,
24911,set_tempo,8,1,0,,,,,,676972,,,,,,
24916,set_tempo,5,1,0,,,,,,684619,,,,,,
24925,set_tempo,9,1,0,,,,,,692441,,,,,,
24929,set_tempo,4,1,0,,,,,,700444,,,,,,
24936,note_on,96,0,4,,,,,,,,0,,,41,0
24936,note_on,0,0,4,,,,,,,,0,,,29,0
24938,set_tempo,9,1,0,,,,,,708634,,,,,,
24942,set_tempo,4,1,0,,,,,,717017,,,,,,
24948,note_on,48,0,1,,,,,,,,0,,,62,0
24948,note_on,48,0,2,,,,,,,,0,,,53,0
24951,set_tempo,9,1,0,,,,,,725602,,,,,,
24955,set_tempo,4,1,0,,,,,,734394,,,,,,
24960,note_on,0,0,3,,,,,,,,0,,,58,68
24960,note_on,288,0,3,,,,,,,,0,,,46,68
24960,note_on,24,0,4,,,,,,,,0,,,41,68
24960,note_on,0,0,4,,,,,,,,0,,,46,68
24960,note_on,0,0,4,,,,,,,,0,,,34,68
24960,control_change,0,0,4,,,,,,,,0,64,0,,
24964,set_tempo,9,1,0,,,,,,743402,,,,,,
24968,set_tempo,4,1,0,,,,,,752634,,,,,,
24977,set_tempo,9,1,0,,,,,,725602,,,,,,
24978,control_change,18,0,4,,,,,,,,0,64,127,,
24981,set_tempo,4,1,0,,,,,,717017,,,,,,
24986,set_tempo,5,1,0,,,,,,708634,,,,,,
24990,set_tempo,4,1,0,,,,,,700444,,,,,,
24994,set_tempo,4,1,0,,,,,,684619,,,,,,
24999,set_tempo,5,1,0,,,,,,676972,,,,,,
25003,set_tempo,4,1,0,,,,,,669493,,,,,,
25007,set_tempo,4,1,0,,,,,,662179,,,,,,
25012,set_tempo,5,1,0,,,,,,655022,,,,,,
25016,set_tempo,4,1,0,,,,,,648018,,,,,,
25021,set_tempo,5,1,0,,,,,,641163,,,,,,
25025,set_tempo,4,1,0,,,,,,634451,,,,,,
25029,set_tempo,4,1,0,,,,,,621440,,,,,,
25034,set_tempo,5,1,0,,,,,,615132,,,,,,
25038,set_tempo,4,1,0,,,,,,608952,,,,,,
25042,set_tempo,4,1,0,,,,,,602894,,,,,,
25047,set_tempo,5,1,0,,,,,,596956,,,,,,
25051,set_tempo,4,1,0,,,,,,591133,,,,,,
25055,set_tempo,4,1,0,,,,,,585423,,,,,,
25056,note_on,0,0,4,,,,,,,,0,,,34,0
25056,note_on,0,0,4,,,,,,,,0,,,41,0
25056,note_on,0,0,3,,,,,,,,0,,,46,0
25056,note_on,78,0,4,,,,,,,,0,,,46,0
25056,note_on,96,0,3,,,,,,,,0,,,58,0
25060,set_tempo,5,1,0,,,,,,579822,,,,,,
25064,set_tempo,4,1,0,,,,,,568936,,,,,,
25069,set_tempo,5,1,0,,,,,,563645,,,,,,
25073,set_tempo,4,1,0,,,,,,558451,,,,,,
25077,set_tempo,4,1,0,,,,,,553352,,,,,,
25080,note_on,0,0,4,,,,,,,,0,,,53,68
25080,note_on,24,0,3,,,,,,,,0,,,46,68
25080,note_on,0,0,4,,,,,,,,0,,,62,68
25080,note_on,24,0,4,,,,,,,,0,,,50,68
25082,set_tempo,5,1,0,,,,,,548346,,,,,,
25086,set_tempo,4,1,0,,,,,,543429,,,,,,
25090,set_tempo,4,1,0,,,,,,538600,,,,,,
25095,set_tempo,5,1,0,,,,,,529194,,,,,,
25099,set_tempo,4,1,0,,,,,,524613,,,,,,
25103,set_tempo,4,1,0,,,,,,520111,,,,,,
25108,set_tempo,5,1,0,,,,,,515685,,,,,,
25112,set_tempo,4,1,0,,,,,,511335,,,,,,
25117,set_tempo,5,1,0,,,,,,507057,,,,,,
25121,set_tempo,4,1,0,,,,,,502849,,,,,,
25125,set_tempo,4,1,0,,,,,,498712,,,,,,
25128,note_on,48,0,3,,,,,,,,0,,,46,0
25130,set_tempo,5,1,0,,,,,,490637,,,,,,
25134,set_tempo,4,1,0,,,,,,486697,,,,,,
25138,set_tempo,4,1,0,,,,,,482820,,,,,,
25140,note_on,12,0,3,,,,,,,,0,,,55,68
25143,set_tempo,5,1,0,,,,,,479004,,,,,,
25147,set_tempo,4,1,0,,,,,,475248,,,,,,
25151,set_tempo,4,1,0,,,,,,471550,,,,,,
25156,set_tempo,5,1,0,,,,,,467909,,,,,,
25160,set_tempo,4,1,0,,,,,,464324,,,,,,
25165,set_tempo,5,1,0,,,,,,457317,,,,,,
25169,set_tempo,4,1,0,,,,,,453892,,,,,,
25173,set_tempo,4,1,0,,,,,,450518,,,,,,
25176,note_on,96,0,4,,,,,,,,0,,,53,0
25176,note_on,0,0,4,,,,,,,,0,,,50,0
25176,note_on,0,0,4,,,,,,,,0,,,62,0
25178,set_tempo,5,1,0,,,,,,447194,,,,,,
25182,set_tempo,4,1,0,,,,,,443918,,,,,,
25186,set_tempo,4,1,0,,,,,,440690,,,,,,
25188,note_on,48,0,3,,,,,,,,0,,,55,0
25191,set_tempo,5,1,0,,,,,,437509,,,,,,
25195,set_tempo,4,1,0,,,,,,431282,,,,,,
25200,note_on,0,0,4,,,,,,,,0,,,50,68
25200,note_on,24,0,4,,,,,,,,0,,,53,68
25200,note_on,12,0,3,,,,,,,,0,,,46,68
25200,note_on,0,0,4,,,,,,,,0,,,60,68
25207,control_change,7,0,4,,,,,,,,0,64,0,,
25248,note_on,48,0,3,,,,,,,,0,,,46,0
25260,note_on,12,0,3,,,,,,,,0,,,54,68
25265,set_tempo,70,1,0,,,,,,428235,,,,,,
25296,note_on,89,0,4,,,,,,,,0,,,50,0
25296,note_on,0,0,4,,,,,,,,0,,,53,0
25296,note_on,0,0,4,,,,,,,,0,,,60,0
25308,note_on,48,0,3,,,,,,,,0,,,54,0
25320,note_on,0,0,4,,,,,,,,0,,,53,68
25320,note_on,12,0,3,,,,,,,,0,,,46,68
25320,note_on,24,0,4,,,,,,,,0,,,59,68
25320,note_on,0,0,4,,,,,,,,0,,,50,68
25330,set_tempo,65,1,0,,,,,,425230,,,,,,
25368,note_on,48,0,3,,,,,,,,0,,,46,0
25380,note_on,12,0,3,,,,,,,,0,,,55,68
25396,set_tempo,66,1,0,,,,,,422268,,,,,,
25416,note_on,0,0,4,,,,,,,,0,,,59,0
25416,note_on,0,0,4,,,,,,,,0,,,50,0
25416,note_on,96,0,4,,,,,,,,0,,,53,0
25428,note_on,48,0,3,,,,,,,,0,,,55,0
25440,note_on,24,0,4,,,,,,,,0,,,53,68
25440,note_on,12,0,3,,,,,,,,0,,,46,68
25440,note_on,0,0,4,,,,,,,,0,,,58,68
25440,note_on,0,0,4,,,,,,,,0,,,50,68
25461,set_tempo,65,1,0,,,,,,419346,,,,,,
25488,note_on,48,0,3,,,,,,,,0,,,46,0
25500,note_on,12,0,3,,,,,,,,0,,,54,68
25527,set_tempo,66,1,0,,,,,,416464,,,,,,
25536,note_on,96,0,4,,,,,,,,0,,,50,0
25536,note_on,0,0,4,,,,,,,,0,,,58,0
25536,note_on,0,0,4,,,,,,,,0,,,53,0
25548,note_on,48,0,3,,,,,,,,0,,,54,0
25560,note_on,0,0,4,,,,,,,,0,,,62,68
25560,note_on,12,0,3,,,,,,,,0,,,46,68
25560,note_on,0,0,4,,,,,,,,0,,,50,68
25560,note_on,24,0,4,,,,,,,,0,,,53,68
25592,set_tempo,65,1,0,,,,,,413622,,,,,,
25608,note_on,48,0,3,,,,,,,,0,,,46,0
25620,note_on,12,0,3,,,,,,,,0,,,55,68
25656,note_on,96,0,4,,,,,,,,0,,,62,0
25656,note_on,0,0,4,,,,,,,,0,,,53,0
25656,note_on,0,0,4,,,,,,,,0,,,50,0
25658,set_tempo,66,1,0,,,,,,410818,,,,,,
25668,note_on,48,0,3,,,,,,,,0,,,55,0
25680,note_on,0,0,4,,,,,,,,0,,,60,68
25680,note_on,24,0,4,,,,,,,,0,,,53,68
25680,note_on,12,0,3,,,,,,,,0,,,46,68
25680,note_on,0,0,4,,,,,,,,0,,,50,68
25723,set_tempo,65,1,0,,,,,,408052,,,,,,
25728,note_on,48,0,3,,,,,,,,0,,,46,0
25728,note_on,48,0,4,,,,,,,,0,,,60,0
25740,note_on,12,0,3,,,,,,,,0,,,54,68
25740,note_on,12,0,4,,,,,,,,0,,,59,68
25776,note_on,36,0,4,,,,,,,,0,,,50,0
25776,note_on,0,0,4,,,,,,,,0,,,53,0
25788,note_on,48,0,3,,,,,,,,0,,,54,0
25788,note_on,12,0,4,,,,,,,,0,,,59,0
25789,set_tempo,66,1,0,,,,,,405323,,,,,,
25800,note_on,12,0,4,,,,,,,,0,,,58,68
25800,note_on,0,0,4,,,,,,,,0,,,53,68
25800,note_on,0,0,4,,,,,,,,0,,,50,68
25800,note_on,12,0,3,,,,,,,,0,,,46,68
25848,note_on,48,0,3,,,,,,,,0,,,46,0
25854,set_tempo,65,1,0,,,,,,402631,,,,,,
25860,note_on,12,0,3,,,,,,,,0,,,55,68
25896,note_on,96,0,4,,,,,,,,0,,,50,0
25896,note_on,0,0,4,,,,,,,,0,,,58,0
25896,note_on,0,0,4,,,,,,,,0,,,53,0
25908,note_on,48,0,3,,,,,,,,0,,,55,0
25919,set_tempo,65,1,0,,,,,,399973,,,,,,
25920,note_on,12,0,3,,,,,,,,0,,,46,80
25920,control_change,0,0,4,,,,,,,,0,64,127,,
25920,note_on,24,0,4,,,,,,,,0,,,63,80
25920,note_on,0,0,3,,,,,,,,0,,,57,80
25920,note_on,0,0,4,,,,,,,,0,,,48,80
25920,note_on,0,0,4,,,,,,,,0,,,54,80
26040,note_on,0,0,1,,,,,,,,0,,,78,80
26040,note_on,1092,0,1,,,,,,,,0,,,87,80
26088,note_on,0,0,1,,,,,,,,0,,,87,0
26088,note_on,48,0,1,,,,,,,,0,,,78,0
26100,note_on,12,0,1,,,,,,,,0,,,81,80
26100,note_on,0,0,1,,,,,,,,0,,,84,80
26148,note_on,0,0,1,,,,,,,,0,,,81,0
26148,note_on,48,0,1,,,,,,,,0,,,84,0
26160,note_on,0,0,1,,,,,,,,0,,,71,80
26160,note_on,12,0,1,,,,,,,,0,,,80,80
26208,note_on,0,0,1,,,,,,,,0,,,80,0
26208,note_on,48,0,1,,,,,,,,0,,,71,0
26220,note_on,0,0,1,,,,,,,,0,,,77,80
26220,note_on,12,0,1,,,,,,,,0,,,74,80
26268,note_on,0,0,1,,,,,,,,0,,,74,0
26268,note_on,48,0,1,,,,,,,,0,,,77,0
26280,note_on,0,0,1,,,,,,,,0,,,72,80
26280,note_on,12,0,1,,,,,,,,0,,,81,80
26328,note_on,48,0,1,,,,,,,,0,,,72,0
26328,note_on,0,0,1,,,,,,,,0,,,81,0
26340,note_on,0,0,1,,,,,,,,0,,,78,80
26340,note_on,12,0,1,,,,,,,,0,,,75,80
26370,note_on,0,0,4,,,,,,,,0,,,63,0
26370,note_on,0,0,3,,,,,,,,0,,,46,0
26370,note_on,450,0,4,,,,,,,,0,,,48,0
26370,note_on,450,0,3,,,,,,,,0,,,57,0
26370,note_on,0,0,4,,,,,,,,0,,,54,0
26388,note_on,0,0,1,,,,,,,,0,,,75,0
26388,note_on,48,0,1,,,,,,,,0,,,78,0
26400,note_on,12,0,1,,,,,,,,0,,,74,80
26400,note_on,0,0,1,,,,,,,,0,,,65,80
26448,note_on,0,0,1,,,,,,,,0,,,74,0
26448,note_on,48,0,1,,,,,,,,0,,,65,0
26460,note_on,0,0,1,,,,,,,,0,,,71,80
26460,note_on,12,0,1,,,,,,,,0,,,68,80
26508,note_on,0,0,1,,,,,,,,0,,,68,0
26508,note_on,48,0,1,,,,,,,,0,,,71,0
26520,note_on,0,0,1,,,,,,,,0,,,66,80
26520,note_on,12,0,1,,,,,,,,0,,,75,80
26568,note_on,0,0,1,,,,,,,,0,,,75,0
26568,note_on,48,0,1,,,,,,,,0,,,66,0
26580,note_on,12,0,1,,,,,,,,0,,,69,80
26580,note_on,0,0,1,,,,,,,,0,,,72,80
26628,note_on,48,0,1,,,,,,,,0,,,72,0
26628,note_on,0,0,1,,,,,,,,0,,,69,0
26640,note_on,12,0,1,,,,,,,,0,,,59,80
26640,note_on,0,0,1,,,,,,,,0,,,68,80
26657,control_change,287,0,4,,,,,,,,0,64,0,,
26688,note_on,48,0,1,,,,,,,,0,,,68,0
26688,note_on,0,0,1,,,,,,,,0,,,59,0
26700,note_on,0,0,1,,,,,,,,0,,,65,80
26700,note_on,12,0,1,,,,,,,,0,,,62,80
26748,note_on,48,0,1,,,,,,,,0,,,65,0
26748,note_on,0,0,1,,,,,,,,0,,,62,0
26760,note_on,0,0,1,,,,,,,,0,,,69,80
26760,note_on,12,0,1,,,,,,,,0,,,66,80
26760,note_on,0,0,1,,,,,,,,0,,,60,80
26808,note_on,0,0,1,,,,,,,,0,,,60,0
26808,note_on,0,0,1,,,,,,,,0,,,66,0
26808,note_on,48,0,1,,,,,,,,0,,,69,0
26820,note_on,12,0,1,,,,,,,,0,,,63,80
26820,note_on,0,0,1,,,,,,,,0,,,78,80
26868,note_on,48,0,1,,,,,,,,0,,,78,0
26868,note_on,0,0,1,,,,,,,,0,,,63,0
26880,note_on,0,0,1,,,,,,,,0,,,70,80
26880,note_on,12,0,1,,,,,,,,0,,,77,80
26880,note_on,0,0,1,,,,,,,,0,,,62,80
26976,note_on,96,0,1,,,,,,,,0,,,62,0
26976,note_on,0,0,1,,,,,,,,0,,,77,0
26976,note_on,0,0,1,,,,,,,,0,,,70,0
27000,note_on,0,0,4,,,,,,,,0,,,62,80
27000,note_on,0,0,4,,,,,,,,0,,,53,68
27000,note_on,343,0,4,,,,,,,,0,,,50,68
27000,note_on,630,0,3,,,,,,,,0,,,46,68
27048,note_on,48,0,3,,,,,,,,0,,,46,0
27060,note_on,12,0,3,,,,,,,,0,,,55,68
27096,note_on,96,0,4,,,,,,,,0,,,62,0
27096,note_on,0,0,4,,,,,,,,0,,,50,0
27096,note_on,0,0,4,,,,,,,,0,,,53,0
27108,note_on,48,0,3,,,,,,,,0,,,55,0
27120,note_on,0,0,4,,,,,,,,0,,,53,68
27120,note_on,24,0,4,,,,,,,,0,,,60,80
27120,note_on,12,0,3,,,,,,,,0,,,46,68
27120,note_on,0,0,4,,,,,,,,0,,,50,68
27168,note_on,48,0,3,,,,,,,,0,,,46,0
27180,note_on,12,0,3,,,,,,,,0,,,54,68
27216,note_on,96,0,4,,,,,,,,0,,,53,0
27216,note_on,0,0,4,,,,,,,,0,,,50,0
27216,note_on,0,0,4,,,,,,,,0,,,60,0
27228,note_on,48,0,3,,,,,,,,0,,,54,0
27240,note_on,0,0,4,,,,,,,,0,,,53,68
27240,note_on,0,0,4,,,,,,,,0,,,59,80
27240,note_on,24,0,4,,,,,,,,0,,,50,68
27240,note_on,12,0,3,,,,,,,,0,,,46,68
27288,note_on,48,0,3,,,,,,,,0,,,46,0
27300,note_on,12,0,3,,,,,,,,0,,,55,68
27336,note_on,0,0,4,,,,,,,,0,,,50,0
27336,note_on,96,0,4,,,,,,,,0,,,53,0
27336,note_on,0,0,4,,,,,,,,0,,,59,0
27348,note_on,48,0,3,,,,,,,,0,,,55,0
27360,note_on,12,0,3,,,,,,,,0,,,46,68
27360,note_on,0,0,4,,,,,,,,0,,,53,68
27360,note_on,24,0,4,,,,,,,,0,,,50,68
27360,note_on,0,0,4,,,,,,,,0,,,58,80
27408,note_on,48,0,3,,,,,,,,0,,,46,0
27420,note_on,12,0,3,,,,,,,,0,,,54,68
27456,note_on,96,0,4,,,,,,,,0,,,53,0
27456,note_on,0,0,4,,,,,,,,0,,,58,0
27456,note_on,0,0,4,,,,,,,,0,,,50,0
27468,note_on,48,0,3,,,,,,,,0,,,54,0
27480,note_on,12,0,3,,,,,,,,0,,,46,68
27480,note_on,24,0,4,,,,,,,,0,,,53,68
27480,note_on,0,0,4,,,,,,,,0,,,62,80
27480,note_on,0,0,4,,,,,,,,0,,,50,68
27528,note_on,48,0,3,,,,,,,,0,,,46,0
27540,note_on,12,0,3,,,,,,,,0,,,55,68
27576,note_on,0,0,4,,,,,,,,0,,,53,0
27576,note_on,96,0,4,,,,,,,,0,,,50,0
27576,note_on,0,0,4,,,,,,,,0,,,62,0
27588,note_on,48,0,3,,,,,,,,0,,,55,0
27600,note_on,12,0,3,,,,,,,,0,,,46,68
27600,note_on,24,0,4,,,,,,,,0,,,60,80
27600,note_on,0,0,4,,,,,,,,0,,,53,68
27600,note_on,0,0,4,,,,,,,,0,,,50,68
27648,note_on,48,0,3,,,,,,,,0,,,46,0
27648,note_on,48,0,4,,,,,,,,0,,,60,0
27660,note_on,12,0,3,,,,,,,,0,,,54,68
27660,note_on,12,0,4,,,,,,,,0,,,59,80
27696,note_on,0,0,4,,,,,,,,0,,,53,0
27696,note_on,36,0,4,,,,,,,,0,,,50,0
27708,note_on,12,0,4,,,,,,,,0,,,59,0
27708,note_on,48,0,3,,,,,,,,0,,,54,0
27720,note_on,0,0,4,,,,,,,,0,,,50,68
27720,note_on,12,0,4,,,,,,,,0,,,58,80
27720,note_on,12,0,3,,,,,,,,0,,,46,68
27720,note_on,0,0,4,,,,,,,,0,,,53,68
27768,note_on,48,0,3,,,,,,,,0,,,46,0
27780,note_on,12,0,3,,,,,,,,0,,,55,68
27816,note_on,96,0,4,,,,,,,,0,,,53,0
27816,note_on,0,0,4,,,,,,,,0,,,50,0
27816,note_on,0,0,4,,,,,,,,0,,,58,0
27828,note_on,48,0,3,,,,,,,,0,,,55,0
27840,note_on,12,0,3,,,,,,,,0,,,57,80
27840,note_on,0,0,4,,,,,,,,0,,,63,80
27840,note_on,24,0,4,,,,,,,,0,,,48,80
27840,note_on,0,0,3,,,,,,,,0,,,46,80
27840,note_on,0,0,4,,,,,,,,0,,,54,80
27844,control_change,4,0,4,,,,,,,,0,64,127,,
27960,note_on,984,0,1,,,,,,,,0,,,78,80
27960,note_on,0,0,1,,,,,,,,0,,,87,80
28008,note_on,48,0,1,,,,,,,,0,,,87,0
28008,note_on,0,0,1,,,,,,,,0,,,78,0
28020,note_on,12,0,1,,,,,,,,0,,,84,80
28020,note_on,0,0,1,,,,,,,,0,,,81,80
28068,note_on,0,0,1,,,,,,,,0,,,84,0
28068,note_on,48,0,1,,,,,,,,0,,,81,0
28080,note_on,12,0,1,,,,,,,,0,,,80,80
28080,note_on,0,0,1,,,,,,,,0,,,71,80
28128,note_on,48,0,1,,,,,,,,0,,,71,0
28128,note_on,0,0,1,,,,,,,,0,,,80,0
28140,note_on,0,0,1,,,,,,,,0,,,77,80
28140,note_on,12,0,1,,,,,,,,0,,,74,80
28188,note_on,0,0,1,,,,,,,,0,,,74,0
28188,note_on,48,0,1,,,,,,,,0,,,77,0
28200,note_on,0,0,1,,,,,,,,0,,,81,80
28200,note_on,12,0,1,,,,,,,,0,,,72,80
28248,note_on,48,0,1,,,,,,,,0,,,81,0
28248,note_on,0,0,1,,,,,,,,0,,,72,0
28260,note_on,0,0,1,,,,,,,,0,,,78,80
28260,note_on,12,0,1,,,,,,,,0,,,75,80
28308,note_on,0,0,1,,,,,,,,0,,,75,0
28308,note_on,48,0,1,,,,,,,,0,,,78,0
28320,note_on,12,0,1,,,,,,,,0,,,74,80
28320,note_on,0,0,1,,,,,,,,0,,,65,80
28368,note_on,0,0,1,,,,,,,,0,,,74,0
28368,note_on,48,0,1,,,,,,,,0,,,65,0
28380,note_on,12,0,1,,,,,,,,0,,,68,80
28380,note_on,0,0,1,,,,,,,,0,,,71,80
28428,note_on,48,0,1,,,,,,,,0,,,71,0
28428,note_on,0,0,1,,,,,,,,0,,,68,0
28440,note_on,12,0,1,,,,,,,,0,,,75,80
28440,note_on,0,0,1,,,,,,,,0,,,66,80
28488,note_on,48,0,1,,,,,,,,0,,,66,0
28488,note_on,0,0,1,,,,,,,,0,,,75,0
28500,note_on,12,0,1,,,,,,,,0,,,69,80
28500,note_on,0,0,1,,,,,,,,0,,,72,80
28548,note_on,0,0,1,,,,,,,,0,,,69,0
28548,note_on,48,0,1,,,,,,,,0,,,72,0
28556,control_change,712,0,4,,,,,,,,0,64,0,,
28560,note_on,0,0,1,,,,,,,,0,,,59,80
28560,note_on,12,0,1,,,,,,,,0,,,68,80
28608,note_on,48,0,1,,,,,,,,0,,,59,0
28608,note_on,0,0,1,,,,,,,,0,,,68,0
28620,note_on,12,0,1,,,,,,,,0,,,62,80
28620,note_on,0,0,1,,,,,,,,0,,,65,80
28668,note_on,0,0,1,,,,,,,,0,,,62,0
28668,note_on,48,0,1,,,,,,,,0,,,65,0
28680,note_on,0,0,1,,,,,,,,0,,,66,80
28680,note_on,0,0,1,,,,,,,,0,,,60,80
28680,note_on,12,0,1,,,,,,,,0,,,69,80
28728,note_on,0,0,1,,,,,,,,0,,,60,0
28728,note_on,48,0,1,,,,,,,,0,,,66,0
28728,note_on,0,0,1,,,,,,,,0,,,69,0
28740,note_on,12,0,1,,,,,,,,0,,,78,80
28740,note_on,0,0,3,,,,,,,,0,,,57,0
28740,note_on,0,0,4,,,,,,,,0,,,54,0
28740,note_on,0,0,1,,,,,,,,0,,,63,80
28740,note_on,184,0,4,,,,,,,,0,,,63,0
28740,note_on,900,0,3,,,,,,,,0,,,46,0
28740,note_on,0,0,4,,,,,,,,0,,,48,0
28788,note_on,48,0,1,,,,,,,,0,,,63,0
28788,note_on,0,0,1,,,,,,,,0,,,78,0
28800,note_on,60,0,4,,,,,,,,0,,,59,80
28800,control_change,0,0,4,,,,,,,,0,64,127,,
28800,note_on,0,0,2,,,,,,,,0,,,65,80
28800,note_on,3852,0,2,,,,,,,,0,,,62,80
28800,note_on,0,0,4,,,,,,,,0,,,56,80
28800,note_on,0,0,4,,,,,,,,0,,,46,80
28920,note_on,0,0,1,,,,,,,,0,,,80,80
28920,note_on,132,0,1,,,,,,,,0,,,89,80
28968,note_on,48,0,1,,,,,,,,0,,,80,0
28968,note_on,0,0,1,,,,,,,,0,,,89,0
28980,note_on,12,0,1,,,,,,,,0,,,83,80
28980,note_on,0,0,1,,,,,,,,0,,,86,80
29028,note_on,0,0,1,,,,,,,,0,,,83,0
29028,note_on,48,0,1,,,,,,,,0,,,86,0
29040,note_on,0,0,1,,,,,,,,0,,,73,80
29040,note_on,12,0,1,,,,,,,,0,,,82,80
29088,note_on,48,0,1,,,,,,,,0,,,73,0
29088,note_on,0,0,1,,,,,,,,0,,,82,0
29100,note_on,12,0,1,,,,,,,,0,,,76,80
29100,note_on,0,0,1,,,,,,,,0,,,79,80
29148,note_on,48,0,1,,,,,,,,0,,,79,0
29148,note_on,0,0,1,,,,,,,,0,,,76,0
29160,note_on,12,0,1,,,,,,,,0,,,83,80
29160,note_on,0,0,1,,,,,,,,0,,,74,80
29208,note_on,0,0,1,,,,,,,,0,,,83,0
29208,note_on,48,0,1,,,,,,,,0,,,74,0
29220,note_on,12,0,1,,,,,,,,0,,,77,80
29220,note_on,0,0,1,,,,,,,,0,,,80,80
29268,note_on,0,0,1,,,,,,,,0,,,77,0
29268,note_on,48,0,1,,,,,,,,0,,,80,0
29280,note_on,0,0,1,,,,,,,,0,,,67,80
29280,note_on,12,0,1,,,,,,,,0,,,76,80
29328,note_on,0,0,1,,,,,,,,0,,,76,0
29328,note_on,48,0,1,,,,,,,,0,,,67,0
29340,note_on,12,0,1,,,,,,,,0,,,70,80
29340,note_on,0,0,1,,,,,,,,0,,,73,80
29388,note_on,0,0,1,,,,,,,,0,,,70,0
29388,note_on,48,0,1,,,,,,,,0,,,73,0
29400,note_on,12,0,1,,,,,,,,0,,,77,80
29400,note_on,0,0,1,,,,,,,,0,,,68,80
29448,note_on,48,0,1,,,,,,,,0,,,68,0
29448,note_on,0,0,1,,,,,,,,0,,,77,0
29460,note_on,12,0,1,,,,,,,,0,,,71,80
29460,note_on,0,0,1,,,,,,,,0,,,74,80
29508,note_on,0,0,1,,,,,,,,0,,,71,0
29508,note_on,48,0,1,,,,,,,,0,,,74,0
29517,control_change,717,0,4,,,,,,,,0,64,0,,
29520,note_on,12,0,1,,,,,,,,0,,,61,80
29520,note_on,0,0,1,,,,,,,,0,,,70,80
29568,note_on,0,0,1,,,,,,,,0,,,61,0
29568,note_on,48,0,1,,,,,,,,0,,,70,0
29580,note_on,0,0,1,,,,,,,,0,,,67,80
29580,note_on,12,0,1,,,,,,,,0,,,64,80
29628,note_on,48,0,1,,,,,,,,0,,,67,0
29628,note_on,0,0,1,,,,,,,,0,,,64,0
29640,note_on,0,0,1,,,,,,,,0,,,68,80
29640,note_on,12,0,1,,,,,,,,0,,,62,80
29640,note_on,0,0,1,,,,,,,,0,,,71,80
29688,note_on,0,0,1,,,,,,,,0,,,68,0
29688,note_on,0,0,1,,,,,,,,0,,,62,0
29688,note_on,48,0,1,,,,,,,,0,,,71,0
29700,note_on,900,0,2,,,,,,,,0,,,65,0
29700,note_on,12,0,1,,,,,,,,0,,,65,80
29700,note_on,0,0,4,,,,,,,,0,,,46,0
29700,note_on,0,0,4,,,,,,,,0,,,59,0
29700,note_on,183,0,4,,,,,,,,0,,,56,0
29700,note_on,0,0,1,,,,,,,,0,,,80,80
29700,note_on,0,0,2,,,,,,,,0,,,62,0
29748,note_on,48,0,1,,,,,,,,0,,,80,0
29748,note_on,0,0,1,,,,,,,,0,,,65,0
29760,note_on,60,0,2,,,,,,,,0,,,67,80
29760,note_on,0,0,4,,,,,,,,0,,,46,80
29760,control_change,60,0,4,,,,,,,,0,64,127,,
29760,note_on,0,0,4,,,,,,,,0,,,61,80
29760,note_on,0,0,2,,,,,,,,0,,,64,80
29880,note_on,132,0,1,,,,,,,,0,,,91,80
29880,note_on,0,0,1,,,,,,,,0,,,82,80
29928,note_on,48,0,1,,,,,,,,0,,,82,0
29928,note_on,0,0,1,,,,,,,,0,,,91,0
29940,note_on,12,0,1,,,,,,,,0,,,85,80
29940,note_on,0,0,1,,,,,,,,0,,,88,80
29988,note_on,0,0,1,,,,,,,,0,,,85,0
29988,note_on,48,0,1,,,,,,,,0,,,88,0
30000,note_on,0,0,1,,,,,,,,0,,,84,80
30000,note_on,12,0,1,,,,,,,,0,,,75,80
30048,note_on,48,0,1,,,,,,,,0,,,84,0
30048,note_on,0,0,1,,,,,,,,0,,,75,0
30060,note_on,12,0,1,,,,,,,,0,,,78,80
30060,note_on,0,0,1,,,,,,,,0,,,81,80
30108,note_on,0,0,1,,,,,,,,0,,,78,0
30108,note_on,48,0,1,,,,,,,,0,,,81,0
30120,note_on,12,0,1,,,,,,,,0,,,85,80
30120,note_on,0,0,1,,,,,,,,0,,,76,80
30144,note_on,384,0,4,,,,,,,,0,,,61,0
30144,note_on,384,0,2,,,,,,,,0,,,64,0
30144,note_on,0,0,2,,,,,,,,0,,,67,0
30144,note_on,0,0,4,,,,,,,,0,,,46,0
30168,note_on,48,0,1,,,,,,,,0,,,76,0
30168,note_on,0,0,1,,,,,,,,0,,,85,0
30180,note_on,0,0,1,,,,,,,,0,,,82,80
30180,note_on,12,0,1,,,,,,,,0,,,79,80
30228,note_on,0,0,1,,,,,,,,0,,,79,0
30228,note_on,48,0,1,,,,,,,,0,,,82,0
30240,control_change,0,0,4,,,,,,,,0,64,0,,
30240,note_on,96,0,2,,,,,,,,0,,,63,80
30240,note_on,0,0,2,,,,,,,,0,,,69,80
30240,note_on,96,0,4,,,,,,,,0,,,46,80
30240,note_on,0,0,2,,,,,,,,0,,,60,80
30240,note_on,0,0,4,,,,,,,,0,,,57,80
30240,note_on,0,0,4,,,,,,,,0,,,54,80
30259,control_change,19,0,4,,,,,,,,0,64,127,,
30360,note_on,0,0,1,,,,,,,,0,,,93,80
30360,note_on,132,0,1,,,,,,,,0,,,84,80
30408,note_on,0,0,1,,,,,,,,0,,,84,0
30408,note_on,48,0,1,,,,,,,,0,,,93,0
30420,note_on,12,0,1,,,,,,,,0,,,90,80
30420,note_on,0,0,1,,,,,,,,0,,,87,80
30468,note_on,0,0,1,,,,,,,,0,,,90,0
30468,note_on,48,0,1,,,,,,,,0,,,87,0
30480,note_on,0,0,1,,,,,,,,0,,,86,80
30480,note_on,12,0,1,,,,,,,,0,,,77,80
30528,note_on,48,0,1,,,,,,,,0,,,86,0
30528,note_on,0,0,1,,,,,,,,0,,,77,0
30540,note_on,0,0,1,,,,,,,,0,,,83,80
30540,note_on,12,0,1,,,,,,,,0,,,80,80
30588,note_on,48,0,1,,,,,,,,0,,,83,0
30588,note_on,0,0,1,,,,,,,,0,,,80,0
30600,note_on,12,0,1,,,,,,,,0,,,78,80
30600,note_on,0,0,1,,,,,,,,0,,,87,80
30624,note_on,365,0,4,,,,,,,,0,,,54,0
30624,note_on,0,0,2,,,,,,,,0,,,63,0
30624,note_on,384,0,2,,,,,,,,0,,,69,0
30624,note_on,0,0,4,,,,,,,,0,,,57,0
30624,note_on,0,0,2,,,,,,,,0,,,60,0
30624,note_on,0,0,4,,,,,,,,0,,,46,0
30648,note_on,48,0,1,,,,,,,,0,,,87,0
30648,note_on,0,0,1,,,,,,,,0,,,78,0
30660,note_on,0,0,1,,,,,,,,0,,,84,80
30660,note_on,12,0,1,,,,,,,,0,,,81,80
30708,note_on,48,0,1,,,,,,,,0,,,84,0
30708,note_on,0,0,1,,,,,,,,0,,,81,0
30720,control_change,96,0,4,,,,,,,,0,64,0,,
30720,note_on,12,0,1,,,,,,,,0,,,96,80
30720,note_on,96,0,2,,,,,,,,0,,,75,80
30721,set_tempo,4802,1,0,,,,,,405323,,,,,,
30755,control_change,35,0,4,,,,,,,,0,64,127,,
30756,set_tempo,35,1,0,,,,,,408052,,,,,,
30768,note_on,48,0,2,,,,,,,,0,,,75,0
30768,note_on,48,0,1,,,,,,,,0,,,96,0
30780,note_on,12,0,2,,,,,,,,0,,,78,80
30780,note_on,12,0,1,,,,,,,,0,,,93,80
30787,set_tempo,31,1,0,,,,,,410818,,,,,,
30817,set_tempo,30,1,0,,,,,,413622,,,,,,
30828,note_on,48,0,1,,,,,,,,0,,,93,0
30828,note_on,48,0,2,,,,,,,,0,,,78,0
30840,note_on,12,0,1,,,,,,,,0,,,89,80
30840,note_on,12,0,2,,,,,,,,0,,,68,80
30848,set_tempo,31,1,0,,,,,,416464,,,,,,
30878,set_tempo,30,1,0,,,,,,419346,,,,,,
30888,note_on,48,0,1,,,,,,,,0,,,89,0
30888,note_on,48,0,2,,,,,,,,0,,,68,0
30900,note_on,12,0,1,,,,,,,,0,,,86,80
30900,note_on,12,0,2,,,,,,,,0,,,71,80
30909,set_tempo,31,1,0,,,,,,422268,,,,,,
30939,set_tempo,30,1,0,,,,,,425230,,,,,,
30948,note_on,48,0,1,,,,,,,,0,,,86,0
30948,note_on,48,0,2,,,,,,,,0,,,71,0
30960,note_on,12,0,2,,,,,,,,0,,,69,80
30960,note_on,12,0,1,,,,,,,,0,,,90,80
30974,set_tempo,35,1,0,,,,,,428235,,,,,,
31005,set_tempo,31,1,0,,,,,,431282,,,,,,
31008,note_on,48,0,2,,,,,,,,0,,,69,0
31008,note_on,48,0,1,,,,,,,,0,,,90,0
31020,note_on,12,0,2,,,,,,,,0,,,72,80
31020,note_on,12,0,1,,,,,,,,0,,,87,80
31035,set_tempo,30,1,0,,,,,,434373,,,,,,
31066,set_tempo,31,1,0,,,,,,437509,,,,,,
31068,note_on,48,0,2,,,,,,,,0,,,72,0
31068,note_on,48,0,1,,,,,,,,0,,,87,0
31080,note_on,12,0,1,,,,,,,,0,,,99,80
31080,note_on,12,0,2,,,,,,,,0,,,66,80
31097,set_tempo,31,1,0,,,,,,440690,,,,,,
31127,set_tempo,30,1,0,,,,,,443918,,,,,,
31128,note_on,48,0,1,,,,,,,,0,,,99,0
31128,note_on,48,0,2,,,,,,,,0,,,66,0
31140,note_on,12,0,2,,,,,,,,0,,,69,80
31140,note_on,12,0,1,,,,,,,,0,,,96,80
31158,set_tempo,31,1,0,,,,,,447194,,,,,,
31188,note_on,48,0,2,,,,,,,,0,,,69,0
31188,set_tempo,30,1,0,,,,,,450518,,,,,,
31188,note_on,48,0,1,,,,,,,,0,,,96,0
31200,note_on,12,0,1,,,,,,,,0,,,92,80
31200,note_on,12,0,2,,,,,,,,0,,,59,80
31223,set_tempo,35,1,0,,,,,,453892,,,,,,
31235,control_change,480,0,4,,,,,,,,0,64,0,,
31248,note_on,48,0,2,,,,,,,,0,,,59,0
31248,note_on,48,0,1,,,,,,,,0,,,92,0
31254,set_tempo,31,1,0,,,,,,457317,,,,,,
31260,note_on,12,0,2,,,,,,,,0,,,62,80
31260,note_on,12,0,1,,,,,,,,0,,,89,80
31284,set_tempo,30,1,0,,,,,,460794,,,,,,
31308,note_on,48,0,1,,,,,,,,0,,,89,0
31308,note_on,48,0,2,,,,,,,,0,,,62,0
31315,set_tempo,31,1,0,,,,,,464324,,,,,,
31320,note_on,12,0,1,,,,,,,,0,,,93,80
31320,note_on,12,0,2,,,,,,,,0,,,60,80
31345,set_tempo,30,1,0,,,,,,467909,,,,,,
31368,note_on,48,0,1,,,,,,,,0,,,93,0
31368,note_on,48,0,2,,,,,,,,0,,,60,0
31376,set_tempo,31,1,0,,,,,,471550,,,,,,
31380,note_on,12,0,2,,,,,,,,0,,,63,80
31380,note_on,12,0,1,,,,,,,,0,,,90,80
31406,set_tempo,30,1,0,,,,,,475248,,,,,,
31428,note_on,48,0,2,,,,,,,,0,,,63,0
31428,note_on,48,0,1,,,,,,,,0,,,90,0
31437,set_tempo,31,1,0,,,,,,479004,,,,,,
31440,note_on,12,0,2,,,,,,,,0,,,56,80
31440,note_on,12,0,1,,,,,,,,0,,,100,80
31440,note_on,0,0,2,,,,,,,,0,,,59,80
31441,set_tempo,4,1,0,,,,,,482820,,,,,,
31450,set_tempo,9,1,0,,,,,,486697,,,,,,
31463,set_tempo,13,1,0,,,,,,490637,,,,,,
31472,set_tempo,9,1,0,,,,,,494641,,,,,,
31481,set_tempo,9,1,0,,,,,,498712,,,,,,
31488,note_on,0,0,2,,,,,,,,0,,,56,0
31488,note_on,48,0,2,,,,,,,,0,,,59,0
31488,note_on,48,0,1,,,,,,,,0,,,100,0
31494,set_tempo,13,1,0,,,,,,502849,,,,,,
31500,note_on,12,0,2,,,,,,,,0,,,64,80
31500,note_on,12,0,1,,,,,,,,0,,,87,80
31502,set_tempo,8,1,0,,,,,,507057,,,,,,
31515,set_tempo,13,1,0,,,,,,511335,,,,,,
31524,set_tempo,9,1,0,,,,,,515685,,,,,,
31533,set_tempo,9,1,0,,,,,,520111,,,,,,
31546,set_tempo,13,1,0,,,,,,524613,,,,,,
31548,note_on,48,0,2,,,,,,,,0,,,64,0
31548,note_on,48,0,1,,,,,,,,0,,,87,0
31555,set_tempo,9,1,0,,,,,,529194,,,,,,
31560,note_on,12,0,2,,,,,,,,0,,,60,80
31560,note_on,12,0,1,,,,,,,,0,,,101,80
31560,note_on,0,0,2,,,,,,,,0,,,57,80
31563,set_tempo,8,1,0,,,,,,533855,,,,,,
31577,set_tempo,14,1,0,,,,,,538600,,,,,,
31585,set_tempo,8,1,0,,,,,,543429,,,,,,
31598,set_tempo,13,1,0,,,,,,548346,,,,,,
31607,set_tempo,9,1,0,,,,,,553352,,,,,,
31608,note_on,48,0,1,,,,,,,,0,,,101,0
31608,note_on,48,0,2,,,,,,,,0,,,57,0
31608,note_on,0,0,2,,,,,,,,0,,,60,0
31616,set_tempo,9,1,0,,,,,,558451,,,,,,
31620,note_on,12,0,1,,,,,,,,0,,,87,80
31620,note_on,12,0,2,,,,,,,,0,,,65,80
31629,set_tempo,13,1,0,,,,,,563645,,,,,,
31638,set_tempo,9,1,0,,,,,,568936,,,,,,
31646,set_tempo,8,1,0,,,,,,574328,,,,,,
31659,set_tempo,13,1,0,,,,,,579822,,,,,,
31668,note_on,48,0,2,,,,,,,,0,,,65,0
31668,note_on,48,0,1,,,,,,,,0,,,87,0
31668,set_tempo,9,1,0,,,,,,591133,,,,,,
31672,set_tempo,4,1,0,,,,,,502849,,,,,,
31680,note_on,0,0,4,,,,,,,,0,,,34,80
31680,note_on,0,0,4,,,,,,,,0,,,46,80
31680,control_change,445,0,4,,,,,,,,0,64,127,,
31685,set_tempo,13,1,0,,,,,,498712,,,,,,
31698,set_tempo,13,1,0,,,,,,494641,,,,,,
31711,set_tempo,13,1,0,,,,,,490637,,,,,,
31720,set_tempo,9,1,0,,,,,,486697,,,,,,
31733,set_tempo,13,1,0,,,,,,482820,,,,,,
31742,set_tempo,9,1,0,,,,,,479004,,,,,,
31755,set_tempo,13,1,0,,,,,,475248,,,,,,
31764,set_tempo,9,1,0,,,,,,471550,,,,,,
31777,set_tempo,13,1,0,,,,,,467909,,,,,,
31786,set_tempo,9,1,0,,,,,,464324,,,,,,
31799,set_tempo,13,1,0,,,,,,460794,,,,,,
31800,note_on,0,0,3,,,,,,,,0,,,50,80
31800,note_on,3060,0,3,,,,,,,,0,,,62,80
31800,note_on,0,0,1,,,,,,,,0,,,98,80
31800,note_on,132,0,1,,,,,,,,0,,,94,80
31807,set_tempo,8,1,0,,,,,,457317,,,,,,
31820,set_tempo,13,1,0,,,,,,453892,,,,,,
31829,set_tempo,9,1,0,,,,,,450518,,,,,,
31842,set_tempo,13,1,0,,,,,,447194,,,,,,
31848,note_on,0,0,1,,,,,,,,0,,,94,0
31848,note_on,48,0,1,,,,,,,,0,,,98,0
31851,set_tempo,9,1,0,,,,,,443918,,,,,,
31860,note_on,12,0,1,,,,,,,,0,,,93,80
31864,set_tempo,13,1,0,,,,,,440690,,,,,,
31872,note_on,192,0,4,,,,,,,,0,,,34,0
31872,note_on,0,0,4,,,,,,,,0,,,46,0
31873,set_tempo,9,1,0,,,,,,437509,,,,,,
31886,set_tempo,13,1,0,,,,,,434373,,,,,,
31895,set_tempo,9,1,0,,,,,,431282,,,,,,
31896,note_on,96,0,3,,,,,,,,0,,,50,0
31896,note_on,0,0,3,,,,,,,,0,,,62,0
31908,set_tempo,13,1,0,,,,,,428235,,,,,,
31908,note_on,48,0,1,,,,,,,,0,,,93,0
31916,set_tempo,8,1,0,,,,,,425230,,,,,,
31920,note_on,0,0,1,,,,,,,,0,,,94,80
31920,note_on,24,0,3,,,,,,,,0,,,60,80
31920,note_on,0,0,3,,,,,,,,0,,,48,80
31920,note_on,0,0,1,,,,,,,,0,,,98,80
31920,note_on,12,0,1,,,,,,,,0,,,92,80
31930,set_tempo,14,1,0,,,,,,422268,,,,,,
31938,set_tempo,8,1,0,,,,,,419346,,,,,,
31951,set_tempo,13,1,0,,,,,,416464,,,,,,
31960,set_tempo,9,1,0,,,,,,413622,,,,,,
31968,note_on,0,0,1,,,,,,,,0,,,92,0
31968,note_on,48,0,1,,,,,,,,0,,,98,0
31968,note_on,0,0,1,,,,,,,,0,,,94,0
31973,set_tempo,13,1,0,,,,,,410818,,,,,,
31980,note_on,12,0,1,,,,,,,,0,,,91,80
31982,set_tempo,9,1,0,,,,,,408052,,,,,,
31995,set_tempo,13,1,0,,,,,,405323,,,,,,
32004,set_tempo,9,1,0,,,,,,402631,,,,,,
32016,note_on,96,0,3,,,,,,,,0,,,48,0
32016,note_on,0,0,3,,,,,,,,0,,,60,0
32017,set_tempo,13,1,0,,,,,,399973,,,,,,
32028,note_on,48,0,1,,,,,,,,0,,,91,0
32040,note_on,0,0,1,,,,,,,,0,,,98,80
32040,note_on,12,0,1,,,,,,,,0,,,94,80
32040,note_on,0,0,1,,,,,,,,0,,,90,80
32040,note_on,0,0,3,,,,,,,,0,,,46,80
32040,note_on,24,0,3,,,,,,,,0,,,58,80
32088,note_on,0,0,1,,,,,,,,0,,,94,0
32088,note_on,48,0,1,,,,,,,,0,,,98,0
32088,note_on,0,0,1,,,,,,,,0,,,90,0
32100,note_on,12,0,1,,,,,,,,0,,,89,80
32136,note_on,0,0,3,,,,,,,,0,,,58,0
32136,note_on,96,0,3,,,,,,,,0,,,46,0
32148,note_on,48,0,1,,,,,,,,0,,,89,0
32160,note_on,0,0,4,,,,,,,,0,,,44,80
32160,note_on,12,0,1,,,,,,,,0,,,89,80
32160,note_on,0,0,1,,,,,,,,0,,,98,80
32160,note_on,0,0,1,,,,,,,,0,,,94,80
32160,note_on,288,0,4,,,,,,,,0,,,32,80
32160,control_change,0,0,4,,,,,,,,0,64,0,,
32181,control_change,21,0,4,,,,,,,,0,64,127,,
32208,note_on,48,0,1,,,,,,,,0,,,94,0
32208,note_on,0,0,1,,,,,,,,0,,,89,0
32208,note_on,0,0,1,,,,,,,,0,,,98,0
32220,note_on,12,0,1,,,,,,,,0,,,88,80
32268,note_on,48,0,1,,,,,,,,0,,,88,0
32280,note_on,144,0,3,,,,,,,,0,,,50,80
32280,note_on,0,0,1,,,,,,,,0,,,89,80
32280,note_on,12,0,1,,,,,,,,0,,,94,80
32280,note_on,0,0,3,,,,,,,,0,,,62,80
32280,note_on,0,0,1,,,,,,,,0,,,87,80
32328,note_on,0,0,1,,,,,,,,0,,,87,0
32328,note_on,0,0,1,,,,,,,,0,,,94,0
32328,note_on,48,0,1,,,,,,,,0,,,89,0
32340,note_on,12,0,1,,,,,,,,0,,,86,80
32352,note_on,0,0,4,,,,,,,,0,,,32,0
32352,note_on,171,0,4,,,,,,,,0,,,44,0
32376,note_on,0,0,3,,,,,,,,0,,,50,0
32376,note_on,96,0,3,,,,,,,,0,,,62,0
32388,note_on,48,0,1,,,,,,,,0,,,86,0
32400,note_on,24,0,3,,,,,,,,0,,,60,80
32400,note_on,0,0,3,,,,,,,,0,,,48,80
32400,note_on,0,0,1,,,,,,,,0,,,86,80
32400,note_on,0,0,1,,,,,,,,0,,,84,80
32400,note_on,12,0,1,,,,,,,,0,,,89,80
32448,note_on,48,0,1,,,,,,,,0,,,86,0
32448,note_on,0,0,1,,,,,,,,0,,,89,0
32448,note_on,0,0,1,,,,,,,,0,,,84,0
32448,note_on,48,0,3,,,,,,,,0,,,48,0
32448,note_on,0,0,3,,,,,,,,0,,,60,0
32460,note_on,12,0,3,,,,,,,,0,,,47,80
32460,note_on,0,0,3,,,,,,,,0,,,59,80
32460,note_on,12,0,1,,,,,,,,0,,,83,80
32508,note_on,48,0,3,,,,,,,,0,,,59,0
32508,note_on,0,0,3,,,,,,,,0,,,47,0
32508,note_on,48,0,1,,,,,,,,0,,,83,0
32520,note_on,0,0,1,,,,,,,,0,,,86,80
32520,note_on,0,0,3,,,,,,,,0,,,46,80
32520,note_on,12,0,1,,,,,,,,0,,,89,80
32520,note_on,0,0,1,,,,,,,,0,,,82,80
32520,note_on,12,0,3,,,,,,,,0,,,58,80
32568,note_on,48,0,1,,,,,,,,0,,,82,0
32568,note_on,0,0,1,,,,,,,,0,,,89,0
32568,note_on,0,0,1,,,,,,,,0,,,86,0
32580,note_on,12,0,1,,,,,,,,0,,,81,80
32616,note_on,0,0,3,,,,,,,,0,,,58,0
32616,note_on,96,0,3,,,,,,,,0,,,46,0
32628,note_on,48,0,1,,,,,,,,0,,,81,0
32640,note_on,0,0,1,,,,,,,,0,,,89,80
32640,note_on,12,0,1,,,,,,,,0,,,82,80
32640,note_on,0,0,4,,,,,,,,0,,,30,80
32640,note_on,0,0,4,,,,,,,,0,,,42,80
32640,control_change,288,0,4,,,,,,,,0,64,0,,
32640,note_on,0,0,1,,,,,,,,0,,,86,80
32658,control_change,18,0,4,,,,,,,,0,64,127,,
32688,note_on,0,0,1,,,,,,,,0,,,82,0
32688,note_on,0,0,1,,,,,,,,0,,,89,0
32688,note_on,48,0,1,,,,,,,,0,,,86,0
32700,note_on,12,0,1,,,,,,,,0,,,81,80
32748,note_on,48,0,1,,,,,,,,0,,,81,0
32760,note_on,0,0,1,,,,,,,,0,,,86,80
32760,note_on,144,0,3,,,,,,,,0,,,50,80
32760,note_on,12,0,1,,,,,,,,0,,,82,80
32760,note_on,0,0,3,,,,,,,,0,,,62,80
32808,note_on,0,0,1,,,,,,,,0,,,82,0
32808,note_on,48,0,1,,,,,,,,0,,,86,0
32820,note_on,12,0,1,,,,,,,,0,,,81,80
32832,note_on,0,0,4,,,,,,,,0,,,30,0
32832,note_on,174,0,4,,,,,,,,0,,,42,0
32856,note_on,96,0,3,,,,,,,,0,,,62,0
32856,note_on,0,0,3,,,,,,,,0,,,50,0
32868,note_on,48,0,1,,,,,,,,0,,,81,0
32880,note_on,0,0,1,,,,,,,,0,,,82,80
32880,note_on,0,0,1,,,,,,,,0,,,86,80
32880,note_on,0,0,3,,,,,,,,0,,,60,80
32880,note_on,12,0,1,,,,,,,,0,,,80,80
32880,note_on,24,0,3,,,,,,,,0,,,48,80
32928,note_on,0,0,1,,,,,,,,0,,,80,0
32928,note_on,0,0,1,,,,,,,,0,,,86,0
32928,note_on,48,0,1,,,,,,,,0,,,82,0
32940,note_on,12,0,1,,,,,,,,0,,,79,80
32976,note_on,0,0,3,,,,,,,,0,,,48,0
32976,note_on,96,0,3,,,,,,,,0,,,60,0
32988,note_on,48,0,1,,,,,,,,0,,,79,0
33000,note_on,0,0,3,,,,,,,,0,,,58,80
33000,note_on,0,0,1,,,,,,,,0,,,86,80
33000,note_on,12,0,1,,,,,,,,0,,,82,80
33000,note_on,0,0,1,,,,,,,,0,,,78,80
33000,note_on,24,0,3,,,,,,,,0,,,46,80
33048,note_on,0,0,1,,,,,,,,0,,,82,0
33048,note_on,48,0,1,,,,,,,,0,,,86,0
33048,note_on,0,0,1,,,,,,,,0,,,78,0
33060,note_on,12,0,1,,,,,,,,0,,,77,80
33096,note_on,0,0,3,,,,,,,,0,,,46,0
33096,note_on,96,0,3,,,,,,,,0,,,58,0
33108,note_on,48,0,1,,,,,,,,0,,,77,0
33120,note_on,0,0,1,,,,,,,,0,,,77,80
33120,control_change,288,0,4,,,,,,,,0,64,0,,
33120,note_on,0,0,4,,,,,,,,0,,,41,80
33120,note_on,0,0,4,,,,,,,,0,,,29,80
33120,note_on,0,0,1,,,,,,,,0,,,82,80
33120,note_on,12,0,1,,,,,,,,0,,,86,80
33148,control_change,28,0,4,,,,,,,,0,64,127,,
33168,note_on,48,0,1,,,,,,,,0,,,77,0
33168,note_on,0,0,1,,,,,,,,0,,,86,0
33168,note_on,0,0,1,,,,,,,,0,,,82,0
33180,note_on,12,0,1,,,,,,,,0,,,76,80
33228,note_on,48,0,1,,,,,,,,0,,,76,0
33240,note_on,0,0,1,,,,,,,,0,,,82,80
33240,note_on,0,0,1,,,,,,,,0,,,77,80
33240,note_on,12,0,1,,,,,,,,0,,,75,80
33240,note_on,0,0,3,,,,,,,,0,,,50,80
33240,note_on,144,0,3,,,,,,,,0,,,62,80
33288,note_on,0,0,1,,,,,,,,0,,,82,0
33288,note_on,0,0,1,,,,,,,,0,,,75,0
33288,note_on,48,0,1,,,,,,,,0,,,77,0
33300,note_on,12,0,1,,,,,,,,0,,,74,80
33312,note_on,164,0,4,,,,,,,,0,,,29,0
33312,note_on,0,0,4,,,,,,,,0,,,41,0
33336,note_on,96,0,3,,,,,,,,0,,,50,0
33336,note_on,0,0,3,,,,,,,,0,,,62,0
33348,note_on,48,0,1,,,,,,,,0,,,74,0
33360,note_on,0,0,3,,,,,,,,0,,,48,80
33360,note_on,0,0,1,,,,,,,,0,,,72,80
33360,note_on,0,0,1,,,,,,,,0,,,77,80
33360,note_on,24,0,3,,,,,,,,0,,,60,80
33360,note_on,12,0,1,,,,,,,,0,,,74,80
33408,note_on,48,0,3,,,,,,,,0,,,48,0
33408,note_on,0,0,3,,,,,,,,0,,,60,0
33408,note_on,48,0,1,,,,,,,,0,,,72,0
33408,note_on,0,0,1,,,,,,,,0,,,74,0
33408,note_on,0,0,1,,,,,,,,0,,,77,0
33420,note_on,12,0,1,,,,,,,,0,,,71,80
33420,note_on,12,0,3,,,,,,,,0,,,47,80
33420,note_on,0,0,3,,,,,,,,0,,,59,80
33468,note_on,48,0,1,,,,,,,,0,,,71,0
33468,note_on,48,0,3,,,,,,,,0,,,59,0
33468,note_on,0,0,3,,,,,,,,0,,,47,0
33480,note_on,0,0,3,,,,,,,,0,,,58,80
33480,note_on,0,0,1,,,,,,,,0,,,74,80
33480,note_on,12,0,1,,,,,,,,0,,,77,80
33480,note_on,0,0,1,,,,,,,,0,,,70,80
33480,note_on,12,0,3,,,,,,,,0,,,46,80
33528,note_on,0,0,1,,,,,,,,0,,,74,0
33528,note_on,0,0,1,,,,,,,,0,,,77,0
33528,note_on,48,0,1,,,,,,,,0,,,70,0
33540,note_on,12,0,1,,,,,,,,0,,,68,80
33576,note_on,0,0,3,,,,,,,,0,,,46,0
33576,note_on,96,0,3,,,,,,,,0,,,58,0
33588,note_on,48,0,1,,,,,,,,0,,,68,0
33600,note_on,1932,0,2,,,,,,,,0,,,66,80
33600,note_on,0,0,2,,,,,,,,0,,,70,80
33600,note_on,0,0,4,,,,,,,,0,,,51,80
33600,note_on,288,0,4,,,,,,,,0,,,39,80
33600,note_on,0,0,2,,,,,,,,0,,,78,80
33606,control_change,6,0,4,,,,,,,,0,64,0,,
33629,control_change,23,0,4,,,,,,,,0,64,127,,
33696,note_on,96,0,2,,,,,,,,0,,,78,0
33696,note_on,0,0,2,,,,,,,,0,,,70,0
33696,note_on,0,0,2,,,,,,,,0,,,66,0
33720,note_on,132,0,1,,,,,,,,0,,,87,80
33720,note_on,0,0,1,,,,,,,,0,,,90,80
33720,note_on,0,0,3,,,,,,,,0,,,54,80
33720,note_on,144,0,3,,,,,,,,0,,,66,80
33768,note_on,48,0,1,,,,,,,,0,,,90,0
33768,note_on,0,0,1,,,,,,,,0,,,87,0
33780,note_on,12,0,1,,,,,,,,0,,,86,80
33792,note_on,163,0,4,,,,,,,,0,,,51,0
33792,note_on,0,0,4,,,,,,,,0,,,39,0
33816,note_on,0,0,3,,,,,,,,0,,,66,0
33816,note_on,96,0,3,,,,,,,,0,,,54,0
33828,note_on,48,0,1,,,,,,,,0,,,86,0
33840,note_on,24,0,3,,,,,,,,0,,,65,80
33840,note_on,12,0,1,,,,,,,,0,,,90,80
33840,note_on,0,0,1,,,,,,,,0,,,87,80
33840,note_on,0,0,1,,,,,,,,0,,,85,80
33840,note_on,0,0,3,,,,,,,,0,,,53,80
33888,note_on,0,0,1,,,,,,,,0,,,90,0
33888,note_on,0,0,1,,,,,,,,0,,,87,0
33888,note_on,48,0,1,,,,,,,,0,,,85,0
33900,note_on,12,0,1,,,,,,,,0,,,84,80
33936,note_on,96,0,3,,,,,,,,0,,,53,0
33936,note_on,0,0,3,,,,,,,,0,,,65,0
33948,note_on,48,0,1,,,,,,,,0,,,84,0
33960,note_on,12,0,1,,,,,,,,0,,,87,80
33960,note_on,0,0,1,,,,,,,,0,,,90,80
33960,note_on,24,0,3,,,,,,,,0,,,51,80
33960,note_on,0,0,3,,,,,,,,0,,,63,80
34008,note_on,48,0,1,,,,,,,,0,,,90,0
34008,note_on,0,0,1,,,,,,,,0,,,87,0
34020,note_on,12,0,1,,,,,,,,0,,,83,80
34056,note_on,0,0,3,,,,,,,,0,,,51,0
34056,note_on,96,0,3,,,,,,,,0,,,63,0
34068,note_on,48,0,1,,,,,,,,0,,,83,0
34080,note_on,12,0,1,,,,,,,,0,,,82,80
34080,note_on,0,0,4,,,,,,,,0,,,49,80
34080,note_on,0,0,1,,,,,,,,0,,,87,80
34080,note_on,0,0,1,,,,,,,,0,,,90,80
34080,note_on,288,0,4,,,,,,,,0,,,37,80
34086,control_change,6,0,4,,,,,,,,0,64,0,,
34107,control_change,21,0,4,,,,,,,,0,64,127,,
34128,note_on,0,0,1,,,,,,,,0,,,82,0
34128,note_on,48,0,1,,,,,,,,0,,,90,0
34128,note_on,0,0,1,,,,,,,,0,,,87,0
34140,note_on,12,0,1,,,,,,,,0,,,81,80
34188,note_on,48,0,1,,,,,,,,0,,,81,0
34200,note_on,0,0,1,,,,,,,,0,,,80,80
34200,note_on,144,0,3,,,,,,,,0,,,54,80
34200,note_on,0,0,3,,,,,,,,0,,,66,80
34200,note_on,12,0,1,,,,,,,,0,,,87,80
34200,note_on,0,0,1,,,,,,,,0,,,82,80
34248,note_on,0,0,1,,,,,,,,0,,,80,0
34248,note_on,0,0,1,,,,,,,,0,,,87,0
34248,note_on,48,0,1,,,,,,,,0,,,82,0
34260,note_on,12,0,1,,,,,,,,0,,,79,80
34272,note_on,0,0,4,,,,,,,,0,,,37,0
34272,note_on,165,0,4,,,,,,,,0,,,49,0
34296,note_on,96,0,3,,,,,,,,0,,,66,0
34296,note_on,0,0,3,,,,,,,,0,,,54,0
34308,note_on,48,0,1,,,,,,,,0,,,79,0
34320,note_on,12,0,1,,,,,,,,0,,,87,80
34320,note_on,0,0,1,,,,,,,,0,,,82,80
34320,note_on,0,0,1,,,,,,,,0,,,78,80
34320,note_on,24,0,3,,,,,,,,0,,,65,80
34320,note_on,0,0,3,,,,,,,,0,,,53,80
34368,note_on,0,0,3,,,,,,,,0,,,65,0
34368,note_on,0,0,1,,,,,,,,0,,,87,0
34368,note_on,48,0,1,,,,,,,,0,,,82,0
34368,note_on,0,0,1,,,,,,,,0,,,78,0
34368,note_on,48,0,3,,,,,,,,0,,,53,0
34380,note_on,0,0,3,,,,,,,,0,,,52,80
34380,note_on,12,0,3,,,,,,,,0,,,64,80
34380,note_on,12,0,1,,,,,,,,0,,,77,80
34428,note_on,48,0,1,,,,,,,,0,,,77,0
34428,note_on,0,0,3,,,,,,,,0,,,64,0
34428,note_on,48,0,3,,,,,,,,0,,,52,0
34440,note_on,12,0,1,,,,,,,,0,,,78,80
34440,note_on,0,0,3,,,,,,,,0,,,63,80
34440,note_on,12,0,3,,,,,,,,0,,,51,80
34440,note_on,0,0,1,,,,,,,,0,,,82,80
34440,note_on,0,0,1,,,,,,,,0,,,87,80
34488,note_on,0,0,1,,,,,,,,0,,,78,0
34488,note_on,0,0,1,,,,,,,,0,,,82,0
34488,note_on,48,0,1,,,,,,,,0,,,87,0
34500,note_on,12,0,1,,,,,,,,0,,,76,80
34536,note_on,96,0,3,,,,,,,,0,,,63,0
34536,note_on,0,0,3,,,,,,,,0,,,51,0
34548,note_on,48,0,1,,,,,,,,0,,,76,0
34560,note_on,0,0,1,,,,,,,,0,,,87,80
34560,note_on,0,0,1,,,,,,,,0,,,78,80
34560,control_change,0,0,4,,,,,,,,0,64,0,,
34560,note_on,0,0,4,,,,,,,,0,,,35,80
34560,note_on,288,0,4,,,,,,,,0,,,47,80
34560,note_on,12,0,1,,,,,,,,0,,,82,80
34579,control_change,19,0,4,,,,,,,,0,64,127,,
34608,note_on,0,0,1,,,,,,,,0,,,82,0
34608,note_on,0,0,1,,,,,,,,0,,,87,0
34608,note_on,48,0,1,,,,,,,,0,,,78,0
34620,note_on,12,0,1,,,,,,,,0,,,75,80
34668,note_on,48,0,1,,,,,,,,0,,,75,0
34680,note_on,0,0,1,,,,,,,,0,,,82,80
34680,note_on,0,0,1,,,,,,,,0,,,75,80
34680,note_on,144,0,3,,,,,,,,0,,,66,80
34680,note_on,0,0,3,,,,,,,,0,,,54,80
34680,note_on,12,0,1,,,,,,,,0,,,78,80
34728,note_on,0,0,1,,,,,,,,0,,,78,0
34728,note_on,48,0,1,,,,,,,,0,,,75,0
34728,note_on,0,0,1,,,,,,,,0,,,82,0
34740,note_on,12,0,1,,,,,,,,0,,,74,80
34752,note_on,173,0,4,,,,,,,,0,,,35,0
34752,note_on,0,0,4,,,,,,,,0,,,47,0
34776,note_on,0,0,3,,,,,,,,0,,,66,0
34776,note_on,96,0,3,,,,,,,,0,,,54,0
34788,note_on,48,0,1,,,,,,,,0,,,74,0
34800,note_on,0,0,1,,,,,,,,0,,,75,80
34800,note_on,12,0,1,,,,,,,,0,,,73,80
34800,note_on,24,0,3,,,,,,,,0,,,53,80
34800,note_on,0,0,1,,,,,,,,0,,,78,80
34800,note_on,0,0,3,,,,,,,,0,,,65,80
34848,note_on,48,0,1,,,,,,,,0,,,78,0
34848,note_on,0,0,1,,,,,,,,0,,,73,0
34848,note_on,0,0,1,,,,,,,,0,,,75,0
34860,note_on,12,0,1,,,,,,,,0,,,72,80
34896,note_on,0,0,3,,,,,,,,0,,,53,0
34896,note_on,96,0,3,,,,,,,,0,,,65,0
34908,note_on,48,0,1,,,,,,,,0,,,72,0
34920,note_on,0,0,3,,,,,,,,0,,,63,80
34920,note_on,12,0,1,,,,,,,,0,,,78,80
34920,note_on,0,0,1,,,,,,,,0,,,75,80
34920,note_on,24,0,3,,,,,,,,0,,,51,80
34968,note_on,48,0,1,,,,,,,,0,,,75,0
34968,note_on,0,0,1,,,,,,,,0,,,78,0
34980,note_on,12,0,1,,,,,,,,0,,,71,80
35016,note_on,0,0,3,,,,,,,,0,,,51,0
35016,note_on,96,0,3,,,,,,,,0,,,63,0
35028,note_on,48,0,1,,,,,,,,0,,,71,0
35038,control_change,286,0,4,,,,,,,,0,64,0,,
35040,note_on,12,0,1,,,,,,,,0,,,70,80
35040,note_on,0,0,1,,,,,,,,0,,,75,80
35040,note_on,0,0,1,,,,,,,,0,,,78,80
35040,note_on,2,0,4,,,,,,,,0,,,46,80
35040,note_on,0,0,4,,,,,,,,0,,,34,80
35052,control_change,12,0,4,,,,,,,,0,64,127,,
35088,note_on,48,0,1,,,,,,,,0,,,75,0
35088,note_on,0,0,1,,,,,,,,0,,,70,0
35088,note_on,0,0,1,,,,,,,,0,,,78,0
35100,note_on,12,0,1,,,,,,,,0,,,69,80
35148,note_on,48,0,1,,,,,,,,0,,,69,0
35160,note_on,0,0,1,,,,,,,,0,,,75,80
35160,note_on,144,0,3,,,,,,,,0,,,54,80
35160,note_on,0,0,1,,,,,,,,0,,,70,80
35160,note_on,12,0,1,,,,,,,,0,,,68,80
35208,note_on,0,0,1,,,,,,,,0,,,68,0
35208,note_on,0,0,1,,,,,,,,0,,,70,0
35208,note_on,48,0,1,,,,,,,,0,,,75,0
35220,note_on,12,0,1,,,,,,,,0,,,67,80
35232,note_on,0,0,4,,,,,,,,0,,,46,0
35232,note_on,180,0,4,,,,,,,,0,,,34,0
35256,note_on,96,0,3,,,,,,,,0,,,54,0
35268,note_on,48,0,1,,,,,,,,0,,,67,0
35280,note_on,24,0,3,,,,,,,,0,,,53,80
35280,note_on,0,0,1,,,,,,,,0,,,66,80
35280,note_on,12,0,1,,,,,,,,0,,,70,80
35328,note_on,48,0,3,,,,,,,,0,,,53,0
35328,note_on,0,0,1,,,,,,,,0,,,70,0
35328,note_on,48,0,1,,,,,,,,0,,,66,0
35340,note_on,12,0,3,,,,,,,,0,,,52,80
35340,note_on,12,0,1,,,,,,,,0,,,65,80
35388,note_on,48,0,3,,,,,,,,0,,,52,0
35388,note_on,48,0,1,,,,,,,,0,,,65,0
35400,note_on,12,0,3,,,,,,,,0,,,51,80
35400,note_on,12,0,1,,,,,,,,0,,,66,80
35400,note_on,0,0,1,,,,,,,,0,,,70,80
35448,note_on,48,0,1,,,,,,,,0,,,70,0
35448,note_on,0,0,1,,,,,,,,0,,,66,0
35460,note_on,12,0,1,,,,,,,,0,,,63,80
35496,note_on,96,0,3,,,,,,,,0,,,51,0
35520,note_on,24,0,3,,,,,,,,0,,,44,80
35520,note_on,60,0,1,,,,,,,,0,,,71,80
35520,note_on,288,0,4,,,,,,,,0,,,32,80
35520,note_on,0,0,1,,,,,,,,0,,,66,80
35532,control_change,12,0,4,,,,,,,,0,64,0,,
35543,control_change,11,0,4,,,,,,,,0,64,127,,
35568,note_on,48,0,3,,,,,,,,0,,,44,0
35580,note_on,12,0,3,,,,,,,,0,,,45,80
35604,note_on,84,0,1,,,,,,,,0,,,63,0
35616,note_on,0,0,1,,,,,,,,0,,,71,0
35616,note_on,12,0,1,,,,,,,,0,,,66,0
35616,note_on,73,0,4,,,,,,,,0,,,32,0
35628,note_on,48,0,3,,,,,,,,0,,,45,0
35640,note_on,24,0,1,,,,,,,,0,,,87,57
35640,note_on,0,0,1,,,,,,,,0,,,83,57
35640,note_on,1944,0,2,,,,,,,,0,,,95,68
35640,note_on,12,0,3,,,,,,,,0,,,44,80
35688,note_on,48,0,3,,,,,,,,0,,,44,0
35700,note_on,12,0,3,,,,,,,,0,,,46,80
35736,note_on,96,0,2,,,,,,,,0,,,95,0
35736,note_on,96,0,1,,,,,,,,0,,,83,0
35736,note_on,0,0,1,,,,,,,,0,,,87,0
35748,note_on,48,0,3,,,,,,,,0,,,46,0
35760,note_on,12,0,3,,,,,,,,0,,,47,80
35760,note_on,24,0,2,,,,,,,,0,,,94,68
35760,note_on,24,0,1,,,,,,,,0,,,87,57
35760,note_on,0,0,1,,,,,,,,0,,,83,57
35808,note_on,48,0,3,,,,,,,,0,,,47,0
35808,note_on,48,0,2,,,,,,,,0,,,94,0
35820,note_on,12,0,2,,,,,,,,0,,,93,68
35820,note_on,12,0,3,,,,,,,,0,,,48,80
35848,control_change,232,0,4,,,,,,,,0,64,0,,
35856,note_on,96,0,1,,,,,,,,0,,,83,0
35856,note_on,0,0,1,,,,,,,,0,,,87,0
35868,note_on,48,0,2,,,,,,,,0,,,93,0
35868,note_on,48,0,3,,,,,,,,0,,,48,0
35880,note_on,12,0,3,,,,,,,,0,,,47,80
35880,note_on,24,0,1,,,,,,,,0,,,83,57
35880,note_on,12,0,2,,,,,,,,0,,,92,68
35880,note_on,0,0,1,,,,,,,,0,,,87,57
35928,note_on,48,0,3,,,,,,,,0,,,47,0
35940,note_on,12,0,3,,,,,,,,0,,,48,80
35976,note_on,0,0,1,,,,,,,,0,,,83,0
35976,note_on,96,0,1,,,,,,,,0,,,87,0
35976,note_on,96,0,2,,,,,,,,0,,,92,0
35988,note_on,48,0,3,,,,,,,,0,,,48,0
36000,note_on,24,0,1,,,,,,,,0,,,71,57
36000,note_on,12,0,3,,,,,,,,0,,,49,80
36000,note_on,24,0,2,,,,,,,,0,,,83,68
36000,note_on,0,0,1,,,,,,,,0,,,77,57
36000,note_on,152,0,4,,,,,,,,0,,,37,80
36016,control_change,16,0,4,,,,,,,,0,64,127,,
36048,note_on,48,0,3,,,,,,,,0,,,49,0
36060,note_on,12,0,3,,,,,,,,0,,,50,80
36096,note_on,80,0,4,,,,,,,,0,,,37,0
36096,note_on,96,0,2,,,,,,,,0,,,83,0
36096,note_on,0,0,1,,,,,,,,0,,,71,0
36096,note_on,96,0,1,,,,,,,,0,,,77,0
36108,note_on,48,0,3,,,,,,,,0,,,50,0
36120,note_on,12,0,3,,,,,,,,0,,,49,80
36120,note_on,24,0,1,,,,,,,,0,,,73,57
36120,note_on,0,0,1,,,,,,,,0,,,71,57
36120,note_on,24,0,2,,,,,,,,0,,,82,68
36168,note_on,48,0,2,,,,,,,,0,,,82,0
36168,note_on,48,0,3,,,,,,,,0,,,49,0
36180,note_on,12,0,2,,,,,,,,0,,,81,68
36180,note_on,12,0,3,,,,,,,,0,,,51,80
36216,note_on,96,0,1,,,,,,,,0,,,71,0
36216,note_on,0,0,1,,,,,,,,0,,,73,0
36228,note_on,48,0,2,,,,,,,,0,,,81,0
36228,note_on,48,0,3,,,,,,,,0,,,51,0
36240,note_on,12,0,2,,,,,,,,0,,,80,68
36240,note_on,24,0,1,,,,,,,,0,,,73,57
36240,note_on,12,0,3,,,,,,,,0,,,52,80
36240,note_on,0,0,1,,,,,,,,0,,,71,57
36288,note_on,48,0,3,,,,,,,,0,,,52,0
36300,note_on,12,0,3,,,,,,,,0,,,53,80
36336,note_on,0,0,1,,,,,,,,0,,,73,0
36336,note_on,96,0,1,,,,,,,,0,,,71,0
36336,note_on,96,0,2,,,,,,,,0,,,80,0
36348,note_on,48,0,3,,,,,,,,0,,,53,0
36360,note_on,24,0,1,,,,,,,,0,,,83,68
36360,note_on,0,0,1,,,,,,,,0,,,97,68
36360,note_on,12,0,3,,,,,,,,0,,,52,80
36408,note_on,48,0,3,,,,,,,,0,,,52,0
36420,note_on,12,0,3,,,,,,,,0,,,53,80
36456,note_on,0,0,1,,,,,,,,0,,,83,0
36456,note_on,96,0,1,,,,,,,,0,,,97,0
36468,note_on,48,0,3,,,,,,,,0,,,53,0
36480,note_on,384,0,4,,,,,,,,0,,,42,80
36480,note_on,12,0,3,,,,,,,,0,,,54,80
36480,control_change,0,0,4,,,,,,,,0,64,0,,
36505,control_change,25,0,4,,,,,,,,0,64,127,,
36528,note_on,48,0,3,,,,,,,,0,,,54,0
36540,note_on,12,0,3,,,,,,,,0,,,55,80
36576,note_on,71,0,4,,,,,,,,0,,,42,0
36588,note_on,48,0,3,,,,,,,,0,,,55,0
36600,note_on,144,0,1,,,,,,,,0,,,85,61
36600,note_on,12,0,3,,,,,,,,0,,,54,80
36600,note_on,264,0,2,,,,,,,,0,,,94,68
36600,note_on,0,0,1,,,,,,,,0,,,82,61
36648,note_on,48,0,3,,,,,,,,0,,,54,0
36660,note_on,12,0,3,,,,,,,,0,,,56,80
36696,note_on,96,0,1,,,,,,,,0,,,82,0
36696,note_on,0,0,1,,,,,,,,0,,,85,0
36696,note_on,96,0,2,,,,,,,,0,,,94,0
36708,note_on,48,0,3,,,,,,,,0,,,56,0
36720,note_on,24,0,2,,,,,,,,0,,,92,68
36720,note_on,12,0,3,,,,,,,,0,,,57,80
36720,note_on,24,0,1,,,,,,,,0,,,82,61
36720,note_on,0,0,1,,,,,,,,0,,,85,61
36768,note_on,48,0,2,,,,,,,,0,,,92,0
36768,note_on,48,0,3,,,,,,,,0,,,57,0
36780,note_on,12,0,2,,,,,,,,0,,,91,68
36780,note_on,12,0,3,,,,,,,,0,,,58,80
36816,note_on,0,0,1,,,,,,,,0,,,82,0
36816,note_on,96,0,1,,,,,,,,0,,,85,0
36828,note_on,48,0,3,,,,,,,,0,,,58,0
36828,note_on,48,0,2,,,,,,,,0,,,91,0
36835,control_change,259,0,4,,,,,,,,0,64,0,,
36840,note_on,12,0,3,,,,,,,,0,,,57,80
36840,note_on,12,0,2,,,,,,,,0,,,90,68
36840,note_on,24,0,1,,,,,,,,0,,,82,61
36840,note_on,0,0,1,,,,,,,,0,,,85,61
36888,note_on,48,0,3,,,,,,,,0,,,57,0
36900,note_on,12,0,3,,,,,,,,0,,,58,80
36936,note_on,0,0,1,,,,,,,,0,,,82,0
36936,note_on,96,0,2,,,,,,,,0,,,90,0
36936,note_on,96,0,1,,,,,,,,0,,,85,0
36948,note_on,48,0,3,,,,,,,,0,,,58,0
36960,note_on,24,0,1,,,,,,,,0,,,75,61
36960,note_on,24,0,2,,,,,,,,0,,,82,68
36960,note_on,12,0,3,,,,,,,,0,,,59,80
36960,note_on,0,0,1,,,,,,,,0,,,70,61
36960,note_on,125,0,4,,,,,,,,0,,,47,80
36990,control_change,30,0,4,,,,,,,,0,64,127,,
37008,note_on,48,0,3,,,,,,,,0,,,59,0
37020,note_on,12,0,3,,,,,,,,0,,,60,80
37056,note_on,96,0,2,,,,,,,,0,,,82,0
37056,note_on,66,0,4,,,,,,,,0,,,47,0
37056,note_on,96,0,1,,,,,,,,0,,,70,0
37056,note_on,0,0,1,,,,,,,,0,,,75,0
37068,note_on,48,0,3,,,,,,,,0,,,60,0
37080,note_on,24,0,2,,,,,,,,0,,,80,68
37080,note_on,12,0,3,,,,,,,,0,,,59,80
37080,note_on,0,0,1,,,,,,,,0,,,70,61
37080,note_on,24,0,1,,,,,,,,0,,,75,61
37128,note_on,48,0,2,,,,,,,,0,,,80,0
37128,note_on,48,0,3,,,,,,,,0,,,59,0
37140,note_on,12,0,2,,,,,,,,0,,,79,68
37140,note_on,12,0,3,,,,,,,,0,,,61,80
37176,note_on,96,0,1,,,,,,,,0,,,70,0
37176,note_on,0,0,1,,,,,,,,0,,,75,0
37188,note_on,48,0,3,,,,,,,,0,,,61,0
37188,note_on,48,0,2,,,,,,,,0,,,79,0
37200,note_on,12,0,2,,,,,,,,0,,,78,68
37200,note_on,12,0,3,,,,,,,,0,,,62,80
37200,note_on,24,0,1,,,,,,,,0,,,70,61
37248,note_on,48,0,3,,,,,,,,0,,,62,0
37260,note_on,12,0,3,,,,,,,,0,,,63,80
37296,note_on,96,0,2,,,,,,,,0,,,78,0
37296,note_on,96,0,1,,,,,,,,0,,,70,0
37308,note_on,48,0,3,,,,,,,,0,,,63,0
37320,note_on,24,0,1,,,,,,,,0,,,95,80
37320,note_on,12,0,3,,,,,,,,0,,,62,80
37320,note_on,0,0,1,,,,,,,,0,,,82,80
37368,note_on,48,0,3,,,,,,,,0,,,62,0
37380,note_on,12,0,3,,,,,,,,0,,,63,80
37416,note_on,0,0,1,,,,,,,,0,,,95,0
37416,note_on,96,0,1,,,,,,,,0,,,82,0
37428,note_on,48,0,3,,,,,,,,0,,,63,0
37440,note_on,384,0,4,,,,,,,,0,,,53,80
37440,note_on,12,0,3,,,,,,,,0,,,65,80
37444,control_change,4,0,4,,,,,,,,0,64,0,,
37475,control_change,31,0,4,,,,,,,,0,64,127,,
37488,note_on,48,0,3,,,,,,,,0,,,65,0
37500,note_on,12,0,3,,,,,,,,0,,,66,80
37536,note_on,61,0,4,,,,,,,,0,,,53,0
37548,note_on,48,0,3,,,,,,,,0,,,66,0
37560,note_on,144,0,1,,,,,,,,0,,,83,68
37560,note_on,12,0,3,,,,,,,,0,,,65,80
37560,note_on,0,0,1,,,,,,,,0,,,80,68
37560,note_on,264,0,2,,,,,,,,0,,,92,68
37608,note_on,48,0,3,,,,,,,,0,,,65,0
37620,note_on,12,0,3,,,,,,,,0,,,67,80
37656,note_on,96,0,2,,,,,,,,0,,,92,0
37656,note_on,96,0,1,,,,,,,,0,,,80,0
37656,note_on,0,0,1,,,,,,,,0,,,83,0
37668,note_on,48,0,3,,,,,,,,0,,,67,0
37680,note_on,0,0,1,,,,,,,,0,,,83,70
37680,note_on,24,0,2,,,,,,,,0,,,91,70
37680,note_on,24,0,1,,,,,,,,0,,,80,70
37680,note_on,12,0,3,,,,,,,,0,,,68,80
37728,note_on,48,0,3,,,,,,,,0,,,68,0
37728,note_on,48,0,2,,,,,,,,0,,,91,0
37740,note_on,12,0,3,,,,,,,,0,,,69,80
37740,note_on,12,0,2,,,,,,,,0,,,90,71
37776,note_on,96,0,1,,,,,,,,0,,,83,0
37776,note_on,0,0,1,,,,,,,,0,,,80,0
37788,note_on,48,0,2,,,,,,,,0,,,90,0
37788,note_on,48,0,3,,,,,,,,0,,,69,0
37796,control_change,260,0,4,,,,,,,,0,64,0,,
37800,note_on,12,0,2,,,,,,,,0,,,89,72
37800,note_on,0,0,1,,,,,,,,0,,,83,72
37800,note_on,24,0,1,,,,,,,,0,,,80,72
37800,note_on,12,0,3,,,,,,,,0,,,68,80
37848,note_on,48,0,3,,,,,,,,0,,,68,0
37860,note_on,12,0,3,,,,,,,,0,,,69,80
37896,note_on,96,0,2,,,,,,,,0,,,89,0
37896,note_on,0,0,1,,,,,,,,0,,,80,0
37896,note_on,96,0,1,,,,,,,,0,,,83,0
37908,note_on,48,0,3,,,,,,,,0,,,69,0
37916,control_change,120,0,4,,,,,,,,0,64,127,,
37920,note_on,4,0,4,,,,,,,,0,,,58,80
37920,note_on,12,0,3,,,,,,,,0,,,70,80
37920,note_on,24,0,1,,,,,,,,0,,,74,75
37920,note_on,0,0,1,,,,,,,,0,,,80,75
37968,note_on,48,0,3,,,,,,,,0,,,70,0
37980,note_on,12,0,3,,,,,,,,0,,,71,80
38016,note_on,96,0,4,,,,,,,,0,,,58,0
38016,note_on,0,0,1,,,,,,,,0,,,74,0
38016,note_on,96,0,1,,,,,,,,0,,,80,0
38028,note_on,48,0,3,,,,,,,,0,,,71,0
38040,note_on,0,0,1,,,,,,,,0,,,79,77
38040,note_on,24,0,1,,,,,,,,0,,,75,77
38040,note_on,12,0,3,,,,,,,,0,,,72,80
38088,note_on,48,0,1,,,,,,,,0,,,79,0
38088,note_on,0,0,1,,,,,,,,0,,,75,0
38088,note_on,48,0,3,,,,,,,,0,,,72,0
38100,note_on,12,0,3,,,,,,,,0,,,73,80
38100,note_on,0,0,1,,,,,,,,0,,,76,78
38100,note_on,12,0,1,,,,,,,,0,,,78,78
38148,note_on,48,0,1,,,,,,,,0,,,76,0
38148,note_on,0,0,1,,,,,,,,0,,,78,0
38148,note_on,48,0,3,,,,,,,,0,,,73,0
38160,note_on,12,0,3,,,,,,,,0,,,74,80
38160,note_on,12,0,1,,,,,,,,0,,,77,80
38208,note_on,48,0,3,,,,,,,,0,,,74,0
38220,note_on,12,0,3,,,,,,,,0,,,73,80
38256,note_on,96,0,1,,,,,,,,0,,,77,0
38268,note_on,48,0,3,,,,,,,,0,,,73,0
38280,note_on,24,0,1,,,,,,,,0,,,80,80
38280,note_on,12,0,3,,,,,,,,0,,,74,80
38280,note_on,0,0,1,,,,,,,,0,,,94,80
38297,control_change,281,0,4,,,,,,,,0,64,0,,
38328,note_on,48,0,3,,,,,,,,0,,,74,0
38340,note_on,12,0,3,,,,,,,,0,,,70,80
38376,note_on,96,0,1,,,,,,,,0,,,94,0
38376,note_on,0,0,1,,,,,,,,0,,,80,0
38388,note_on,48,0,3,,,,,,,,0,,,70,0
38400,note_on,12,0,3,,,,,,,,0,,,75,80
38400,note_on,103,0,4,,,,,,,,0,,,63,80
38402,control_change,2,0,4,,,,,,,,0,64,127,,
38448,note_on,48,0,3,,,,,,,,0,,,75,0
38460,note_on,12,0,3,,,,,,,,0,,,74,80
38496,note_on,94,0,4,,,,,,,,0,,,63,0
38508,note_on,48,0,3,,,,,,,,0,,,74,0
38520,note_on,144,0,1,,,,,,,,0,,,78,80
38520,note_on,12,0,3,,,,,,,,0,,,73,80
38520,note_on,0,0,1,,,,,,,,0,,,82,80
38520,note_on,624,0,2,,,,,,,,0,,,90,80
38568,note_on,48,0,3,,,,,,,,0,,,73,0
38580,note_on,12,0,3,,,,,,,,0,,,72,80
38616,note_on,0,0,1,,,,,,,,0,,,78,0
38616,note_on,96,0,1,,,,,,,,0,,,82,0
38616,note_on,96,0,2,,,,,,,,0,,,90,0
38628,note_on,48,0,3,,,,,,,,0,,,72,0
38640,note_on,24,0,2,,,,,,,,0,,,89,80
38640,note_on,12,0,3,,,,,,,,0,,,71,80
38640,note_on,0,0,1,,,,,,,,0,,,82,80
38640,note_on,24,0,1,,,,,,,,0,,,78,80
38688,note_on,48,0,2,,,,,,,,0,,,89,0
38688,note_on,48,0,3,,,,,,,,0,,,71,0
38700,note_on,12,0,3,,,,,,,,0,,,69,80
38700,note_on,12,0,2,,,,,,,,0,,,88,80
38736,note_on,0,0,1,,,,,,,,0,,,78,0
38736,note_on,96,0,1,,,,,,,,0,,,82,0
38748,note_on,48,0,3,,,,,,,,0,,,69,0
38748,note_on,48,0,2,,,,,,,,0,,,88,0
38760,note_on,12,0,2,,,,,,,,0,,,87,80
38760,note_on,0,0,1,,,,,,,,0,,,82,80
38760,note_on,12,0,3,,,,,,,,0,,,70,80
38760,note_on,24,0,1,,,,,,,,0,,,78,80
38808,note_on,48,0,3,,,,,,,,0,,,70,0
38820,note_on,12,0,3,,,,,,,,0,,,63,80
38856,note_on,0,0,1,,,,,,,,0,,,78,0
38856,note_on,96,0,2,,,,,,,,0,,,87,0
38856,note_on,96,0,1,,,,,,,,0,,,82,0
38868,note_on,48,0,3,,,,,,,,0,,,63,0
38880,note_on,384,0,4,,,,,,,,0,,,63,80
38880,note_on,24,0,2,,,,,,,,0,,,78,80
38880,note_on,0,0,2,,,,,,,,0,,,81,80
38880,note_on,12,0,3,,,,,,,,0,,,69,80
38880,note_on,0,0,4,,,,,,,,0,,,59,80
38880,note_on,24,0,1,,,,,,,,0,,,90,80
38882,control_change,2,0,4,,,,,,,,0,64,0,,
38915,control_change,33,0,4,,,,,,,,0,64,127,,
38928,note_on,48,0,1,,,,,,,,0,,,90,0
38928,note_on,48,0,3,,,,,,,,0,,,69,0
38940,note_on,12,0,1,,,,,,,,0,,,89,80
38940,note_on,12,0,3,,,,,,,,0,,,68,80
38976,note_on,61,0,4,,,,,,,,0,,,59,0
38976,note_on,0,0,4,,,,,,,,0,,,63,0
38988,note_on,48,0,1,,,,,,,,0,,,89,0
38988,note_on,48,0,3,,,,,,,,0,,,68,0
39000,note_on,12,0,3,,,,,,,,0,,,67,80
39000,note_on,12,0,1,,,,,,,,0,,,88,80
39048,note_on,48,0,1,,,,,,,,0,,,88,0
39048,note_on,48,0,3,,,,,,,,0,,,67,0
39060,note_on,12,0,3,,,,,,,,0,,,66,80
39060,note_on,12,0,1,,,,,,,,0,,,87,80
39072,note_on,0,0,2,,,,,,,,0,,,78,0
39072,note_on,192,0,2,,,,,,,,0,,,81,0
39108,note_on,48,0,1,,,,,,,,0,,,87,0
39108,note_on,48,0,3,,,,,,,,0,,,66,0
39120,note_on,0,0,4,,,,,,,,0,,,60,80
39120,note_on,12,0,1,,,,,,,,0,,,93,80
39120,note_on,0,0,2,,,,,,,,0,,,87,80
39120,note_on,12,0,3,,,,,,,,0,,,65,80
39120,control_change,144,0,4,,,,,,,,0,64,0,,
39120,note_on,48,0,2,,,,,,,,0,,,81,80
39152,control_change,32,0,4,,,,,,,,0,64,127,,
39168,note_on,48,0,1,,,,,,,,0,,,93,0
39168,note_on,48,0,3,,,,,,,,0,,,65,0
39180,note_on,12,0,1,,,,,,,,0,,,92,80
39180,note_on,12,0,3,,,,,,,,0,,,63,80
39216,note_on,64,0,4,,,,,,,,0,,,60,0
39228,note_on,48,0,1,,,,,,,,0,,,92,0
39228,note_on,48,0,3,,,,,,,,0,,,63,0
39240,note_on,12,0,1,,,,,,,,0,,,91,80
39240,note_on,12,0,3,,,,,,,,0,,,63,80
39288,note_on,48,0,1,,,,,,,,0,,,91,0
39288,note_on,48,0,3,,,,,,,,0,,,63,0
39300,note_on,12,0,1,,,,,,,,0,,,90,80
39300,note_on,12,0,3,,,,,,,,0,,,62,80
39312,note_on,192,0,2,,,,,,,,0,,,87,0
39312,note_on,0,0,2,,,,,,,,0,,,81,0
39348,note_on,48,0,1,,,,,,,,0,,,90,0
39348,note_on,48,0,3,,,,,,,,0,,,62,0
39360,note_on,12,0,1,,,,,,,,0,,,97,80
39360,note_on,0,0,1,,,,,,,,0,,,85,80
39360,note_on,0,0,4,,,,,,,,0,,,49,80
39360,note_on,144,0,4,,,,,,,,0,,,61,80
39360,note_on,0,0,1,,,,,,,,0,,,89,80
39362,control_change,2,0,4,,,,,,,,0,64,0,,
39456,note_on,0,0,1,,,,,,,,0,,,97,0
39456,note_on,0,0,1,,,,,,,,0,,,89,0
39456,note_on,96,0,1,,,,,,,,0,,,85,0
39456,note_on,0,0,4,,,,,,,,0,,,61,0
39456,note_on,94,0,4,,,,,,,,0,,,49,0
39600,note_on,288,0,2,,,,,,,,0,,,71,80
39600,note_on,144,0,1,,,,,,,,0,,,77,80
39600,note_on,0,0,1,,,,,,,,0,,,86,80
39600,note_on,0,0,1,,,,,,,,0,,,80,80
39602,control_change,146,0,4,,,,,,,,0,64,127,,
39648,note_on,48,0,2,,,,,,,,0,,,71,0
39648,note_on,48,0,1,,,,,,,,0,,,86,0
39660,note_on,12,0,1,,,,,,,,0,,,83,80
39660,note_on,12,0,2,,,,,,,,0,,,74,80
39696,note_on,36,0,1,,,,,,,,0,,,80,0
39696,note_on,0,0,1,,,,,,,,0,,,77,0
39708,note_on,12,0,1,,,,,,,,0,,,83,0
39708,note_on,48,0,2,,,,,,,,0,,,74,0
39720,note_on,12,0,2,,,,,,,,0,,,70,80
39720,note_on,12,0,1,,,,,,,,0,,,79,80
39768,note_on,48,0,1,,,,,,,,0,,,79,0
39768,note_on,48,0,2,,,,,,,,0,,,70,0
39780,note_on,12,0,1,,,,,,,,0,,,76,80
39780,note_on,12,0,2,,,,,,,,0,,,73,80
39828,note_on,48,0,2,,,,,,,,0,,,73,0
39828,note_on,48,0,1,,,,,,,,0,,,76,0
39840,note_on,12,0,1,,,,,,,,0,,,80,80
39840,note_on,12,0,2,,,,,,,,0,,,71,80
39888,note_on,48,0,1,,,,,,,,0,,,80,0
39888,note_on,48,0,2,,,,,,,,0,,,71,0
39900,note_on,12,0,2,,,,,,,,0,,,74,80
39900,note_on,12,0,1,,,,,,,,0,,,77,80
39948,note_on,48,0,2,,,,,,,,0,,,74,0
39948,note_on,48,0,1,,,,,,,,0,,,77,0
39960,note_on,12,0,2,,,,,,,,0,,,64,80
39960,note_on,12,0,1,,,,,,,,0,,,85,80
40008,note_on,48,0,1,,,,,,,,0,,,85,0
40008,note_on,48,0,2,,,,,,,,0,,,64,0
40020,note_on,12,0,2,,,,,,,,0,,,67,80
40020,note_on,12,0,1,,,,,,,,0,,,82,80
40068,note_on,48,0,1,,,,,,,,0,,,82,0
40068,note_on,48,0,2,,,,,,,,0,,,67,0
40080,note_on,12,0,2,,,,,,,,0,,,65,80
40080,note_on,12,0,1,,,,,,,,0,,,86,80
40128,note_on,48,0,1,,,,,,,,0,,,86,0
40128,note_on,48,0,2,,,,,,,,0,,,65,0
40140,note_on,12,0,2,,,,,,,,0,,,68,80
40140,note_on,12,0,1,,,,,,,,0,,,83,80
40188,note_on,48,0,1,,,,,,,,0,,,83,0
40188,note_on,48,0,2,,,,,,,,0,,,68,0
40200,note_on,12,0,1,,,,,,,,0,,,91,80
40200,note_on,12,0,2,,,,,,,,0,,,58,80
40248,note_on,48,0,2,,,,,,,,0,,,58,0
40248,note_on,48,0,1,,,,,,,,0,,,91,0
40260,note_on,12,0,2,,,,,,,,0,,,61,80
40260,note_on,12,0,1,,,,,,,,0,,,88,80
40308,note_on,48,0,2,,,,,,,,0,,,61,0
40308,note_on,48,0,1,,,,,,,,0,,,88,0
40311,control_change,709,0,4,,,,,,,,0,64,0,,
40320,note_on,12,0,1,,,,,,,,0,,,92,80
40320,note_on,972,0,3,,,,,,,,0,,,59,80
40368,note_on,48,0,1,,,,,,,,0,,,92,0
40368,note_on,48,0,3,,,,,,,,0,,,59,0
40380,note_on,12,0,3,,,,,,,,0,,,62,80
40380,note_on,12,0,1,,,,,,,,0,,,89,80
40428,note_on,48,0,3,,,,,,,,0,,,62,0
40428,note_on,48,0,1,,,,,,,,0,,,89,0
40440,note_on,12,0,1,,,,,,,,0,,,98,80
40440,note_on,12,0,3,,,,,,,,0,,,59,80
40488,note_on,48,0,3,,,,,,,,0,,,59,0
40488,note_on,48,0,1,,,,,,,,0,,,98,0
40500,note_on,0,0,1,,,,,,,,0,,,89,80
40500,note_on,12,0,3,,,,,,,,0,,,49,80
40500,note_on,12,0,1,,,,,,,,0,,,86,80
40548,note_on,48,0,1,,,,,,,,0,,,89,0
40548,note_on,48,0,3,,,,,,,,0,,,49,0
40548,note_on,0,0,1,,,,,,,,0,,,86,0
40560,note_on,12,0,1,,,,,,,,0,,,97,80
40560,note_on,12,0,3,,,,,,,,0,,,57,80
40608,note_on,48,0,3,,,,,,,,0,,,57,0
40608,note_on,48,0,1,,,,,,,,0,,,97,0
40620,note_on,12,0,1,,,,,,,,0,,,85,80
40620,note_on,0,0,1,,,,,,,,0,,,89,80
40620,note_on,12,0,3,,,,,,,,0,,,49,80
40668,note_on,48,0,1,,,,,,,,0,,,89,0
40668,note_on,0,0,1,,,,,,,,0,,,85,0
40668,note_on,48,0,3,,,,,,,,0,,,49,0
40680,note_on,12,0,3,,,,,,,,0,,,56,80
40680,note_on,12,0,1,,,,,,,,0,,,95,80
40728,note_on,48,0,1,,,,,,,,0,,,95,0
40728,note_on,48,0,3,,,,,,,,0,,,56,0
40740,note_on,0,0,1,,,,,,,,0,,,83,80
40740,note_on,0,0,1,,,,,,,,0,,,89,80
40740,note_on,12,0,1,,,,,,,,0,,,86,80
40740,note_on,12,0,3,,,,,,,,0,,,49,80
40788,note_on,48,0,1,,,,,,,,0,,,89,0
40788,note_on,48,0,3,,,,,,,,0,,,49,0
40788,note_on,0,0,1,,,,,,,,0,,,86,0
40788,note_on,0,0,1,,,,,,,,0,,,83,0
40800,note_on,12,0,1,,,,,,,,0,,,94,80
40800,note_on,12,0,3,,,,,,,,0,,,55,80
40848,note_on,48,0,3,,,,,,,,0,,,55,0
40848,note_on,48,0,1,,,,,,,,0,,,94,0
40860,note_on,0,0,1,,,,,,,,0,,,88,80
40860,note_on,12,0,1,,,,,,,,0,,,82,80
40860,note_on,0,0,1,,,,,,,,0,,,85,80
40860,note_on,12,0,3,,,,,,,,0,,,49,80
40908,note_on,0,0,1,,,,,,,,0,,,82,0
40908,note_on,0,0,1,,,,,,,,0,,,85,0
40908,note_on,48,0,3,,,,,,,,0,,,49,0
40908,note_on,48,0,1,,,,,,,,0,,,88,0
40920,note_on,12,0,1,,,,,,,,0,,,93,80
40920,note_on,12,0,3,,,,,,,,0,,,54,80
40968,note_on,48,0,3,,,,,,,,0,,,54,0
40968,note_on,48,0,1,,,,,,,,0,,,93,0
40980,note_on,0,0,1,,,,,,,,0,,,84,80
40980,note_on,0,0,1,,,,,,,,0,,,87,80
40980,note_on,12,0,1,,,,,,,,0,,,81,80
40980,note_on,12,0,3,,,,,,,,0,,,49,80
41028,note_on,48,0,1,,,,,,,,0,,,87,0
41028,note_on,48,0,3,,,,,,,,0,,,49,0
41028,note_on,0,0,1,,,,,,,,0,,,81,0
41040,note_on,12,0,1,,,,,,,,0,,,92,80
41040,note_on,12,0,3,,,,,,,,0,,,57,80
41076,note_on,36,0,1,,,,,,,,0,,,84,0
41088,note_on,12,0,1,,,,,,,,0,,,92,0
41088,note_on,48,0,3,,,,,,,,0,,,57,0
41100,note_on,12,0,3,,,,,,,,0,,,58,80
41100,note_on,12,0,1,,,,,,,,0,,,91,80
41100,note_on,0,0,1,,,,,,,,0,,,85,80
41148,note_on,48,0,1,,,,,,,,0,,,85,0
41148,note_on,48,0,3,,,,,,,,0,,,58,0
41148,note_on,0,0,1,,,,,,,,0,,,91,0
41160,note_on,0,0,1,,,,,,,,0,,,86,80
41160,note_on,12,0,1,,,,,,,,0,,,90,80
41160,note_on,12,0,3,,,,,,,,0,,,59,80
41208,note_on,48,0,1,,,,,,,,0,,,86,0
41208,note_on,48,0,3,,,,,,,,0,,,59,0
41208,note_on,0,0,1,,,,,,,,0,,,90,0
41220,note_on,12,0,3,,,,,,,,0,,,60,80
41220,note_on,12,0,1,,,,,,,,0,,,87,80
41268,note_on,48,0,1,,,,,,,,0,,,87,0
41268,note_on,48,0,3,,,,,,,,0,,,60,0
41280,note_on,12,0,1,,,,,,,,0,,,80,80
41280,note_on,0,0,1,,,,,,,,0,,,89,80
41280,note_on,969,0,4,,,,,,,,0,,,61,80
41376,note_on,0,0,1,,,,,,,,0,,,80,0
41376,note_on,96,0,4,,,,,,,,0,,,61,0
41376,note_on,96,0,1,,,,,,,,0,,,89,0
41400,note_on,24,0,4,,,,,,,,0,,,37,90
41402,control_change,2,0,4,,,,,,,,0,64,127,,
41496,note_on,94,0,4,,,,,,,,0,,,37,0
41520,note_on,144,0,1,,,,,,,,0,,,68,80
41520,note_on,0,0,1,,,,,,,,0,,,65,80
41520,note_on,0,0,1,,,,,,,,0,,,74,80
41520,note_on,24,0,4,,,,,,,,0,,,59,80
41568,note_on,48,0,4,,,,,,,,0,,,59,0
41568,note_on,48,0,1,,,,,,,,0,,,74,0
41580,note_on,12,0,4,,,,,,,,0,,,62,80
41580,note_on,12,0,1,,,,,,,,0,,,71,80
41616,note_on,0,0,1,,,,,,,,0,,,68,0
41616,note_on,36,0,1,,,,,,,,0,,,65,0
41628,note_on,48,0,4,,,,,,,,0,,,62,0
41628,note_on,12,0,1,,,,,,,,0,,,71,0
41640,note_on,12,0,1,,,,,,,,0,,,67,80
41640,note_on,12,0,4,,,,,,,,0,,,58,80
41688,note_on,48,0,4,,,,,,,,0,,,58,0
41688,note_on,48,0,1,,,,,,,,0,,,67,0
41700,note_on,12,0,4,,,,,,,,0,,,61,80
41700,note_on,12,0,1,,,,,,,,0,,,64,80
41748,note_on,48,0,4,,,,,,,,0,,,61,0
41748,note_on,48,0,1,,,,,,,,0,,,64,0
41760,note_on,12,0,1,,,,,,,,0,,,68,80
41760,note_on,12,0,4,,,,,,,,0,,,59,80
41808,note_on,48,0,1,,,,,,,,0,,,68,0
41808,note_on,48,0,4,,,,,,,,0,,,59,0
41820,note_on,12,0,1,,,,,,,,0,,,65,80
41820,note_on,12,0,4,,,,,,,,0,,,62,80
41868,note_on,48,0,1,,,,,,,,0,,,65,0
41868,note_on,48,0,4,,,,,,,,0,,,62,0
41880,note_on,12,0,4,,,,,,,,0,,,52,80
41880,note_on,12,0,1,,,,,,,,0,,,73,80
41928,note_on,48,0,1,,,,,,,,0,,,73,0
41928,note_on,48,0,4,,,,,,,,0,,,52,0
41940,note_on,12,0,4,,,,,,,,0,,,55,80
41940,note_on,12,0,1,,,,,,,,0,,,70,80
41988,note_on,48,0,4,,,,,,,,0,,,55,0
41988,note_on,48,0,1,,,,,,,,0,,,70,0
42000,note_on,12,0,4,,,,,,,,0,,,53,80
42000,note_on,12,0,1,,,,,,,,0,,,74,80
42048,note_on,48,0,4,,,,,,,,0,,,53,0
42048,note_on,48,0,1,,,,,,,,0,,,74,0
42060,note_on,12,0,4,,,,,,,,0,,,56,80
42060,note_on,12,0,1,,,,,,,,0,,,71,80
42108,note_on,48,0,4,,,,,,,,0,,,56,0
42108,note_on,48,0,1,,,,,,,,0,,,71,0
42120,note_on,12,0,4,,,,,,,,0,,,46,80
42120,note_on,12,0,1,,,,,,,,0,,,79,80
42168,note_on,48,0,1,,,,,,,,0,,,79,0
42168,note_on,48,0,4,,,,,,,,0,,,46,0
42180,note_on,12,0,4,,,,,,,,0,,,49,80
42180,note_on,12,0,1,,,,,,,,0,,,76,80
42228,note_on,48,0,4,,,,,,,,0,,,49,0
42228,note_on,48,0,1,,,,,,,,0,,,76,0
42240,control_change,12,0,4,,,,,,,,0,64,0,,
42240,note_on,12,0,1,,,,,,,,0,,,80,80
42240,note_on,0,0,4,,,,,,,,0,,,47,80
42271,control_change,31,0,4,,,,,,,,0,64,127,,
42288,note_on,17,0,4,,,,,,,,0,,,47,0
42288,note_on,48,0,1,,,,,,,,0,,,80,0
42300,note_on,12,0,4,,,,,,,,0,,,50,80
42300,note_on,12,0,1,,,,,,,,0,,,77,80
42348,note_on,48,0,1,,,,,,,,0,,,77,0
42348,note_on,48,0,4,,,,,,,,0,,,50,0
42360,note_on,12,0,4,,,,,,,,0,,,47,80
42360,note_on,12,0,1,,,,,,,,0,,,86,80
42408,note_on,48,0,4,,,,,,,,0,,,47,0
42408,note_on,48,0,1,,,,,,,,0,,,86,0
42420,note_on,0,0,1,,,,,,,,0,,,77,80
42420,note_on,12,0,4,,,,,,,,0,,,37,80
42420,note_on,12,0,1,,,,,,,,0,,,74,80
42468,note_on,48,0,4,,,,,,,,0,,,37,0
42468,note_on,48,0,1,,,,,,,,0,,,77,0
42468,note_on,0,0,1,,,,,,,,0,,,74,0
42480,note_on,12,0,4,,,,,,,,0,,,45,80
42480,note_on,12,0,1,,,,,,,,0,,,85,80
42528,note_on,48,0,4,,,,,,,,0,,,45,0
42528,note_on,48,0,1,,,,,,,,0,,,85,0
42540,note_on,0,0,1,,,,,,,,0,,,73,80
42540,note_on,12,0,4,,,,,,,,0,,,37,80
42540,note_on,12,0,1,,,,,,,,0,,,77,80
42588,note_on,48,0,4,,,,,,,,0,,,37,0
42588,note_on,48,0,1,,,,,,,,0,,,73,0
42588,note_on,0,0,1,,,,,,,,0,,,77,0
42600,note_on,12,0,1,,,,,,,,0,,,83,80
42600,note_on,12,0,4,,,,,,,,0,,,44,80
42648,note_on,48,0,1,,,,,,,,0,,,83,0
42648,note_on,48,0,4,,,,,,,,0,,,44,0
42660,note_on,12,0,1,,,,,,,,0,,,74,80
42660,note_on,0,0,1,,,,,,,,0,,,71,80
42660,note_on,12,0,4,,,,,,,,0,,,37,80
42660,note_on,0,0,1,,,,,,,,0,,,77,80
42708,note_on,0,0,1,,,,,,,,0,,,71,0
42708,note_on,48,0,1,,,,,,,,0,,,77,0
42708,note_on,0,0,1,,,,,,,,0,,,74,0
42708,note_on,48,0,4,,,,,,,,0,,,37,0
42720,note_on,12,0,4,,,,,,,,0,,,43,80
42720,note_on,12,0,1,,,,,,,,0,,,82,80
42722,control_change,2,0,4,,,,,,,,0,64,0,,
42734,control_change,12,0,4,,,,,,,,0,64,127,,
42768,note_on,34,0,4,,,,,,,,0,,,43,0
42768,note_on,48,0,1,,,,,,,,0,,,82,0
42780,note_on,0,0,1,,,,,,,,0,,,76,80
42780,note_on,12,0,4,,,,,,,,0,,,37,80
42780,note_on,12,0,1,,,,,,,,0,,,73,80
42780,note_on,0,0,1,,,,,,,,0,,,70,80
42828,note_on,0,0,1,,,,,,,,0,,,70,0
42828,note_on,0,0,1,,,,,,,,0,,,73,0
42828,note_on,48,0,4,,,,,,,,0,,,37,0
42828,note_on,48,0,1,,,,,,,,0,,,76,0
42840,note_on,12,0,4,,,,,,,,0,,,42,80
42840,note_on,12,0,1,,,,,,,,0,,,81,80
42888,note_on,48,0,4,,,,,,,,0,,,42,0
42888,note_on,48,0,1,,,,,,,,0,,,81,0
42900,note_on,12,0,4,,,,,,,,0,,,37,80
42900,note_on,0,0,1,,,,,,,,0,,,69,80
42900,note_on,0,0,1,,,,,,,,0,,,72,80
42900,note_on,12,0,1,,,,,,,,0,,,75,80
42948,note_on,48,0,1,,,,,,,,0,,,72,0
42948,note_on,0,0,1,,,,,,,,0,,,69,0
42948,note_on,0,0,1,,,,,,,,0,,,75,0
42948,note_on,48,0,4,,,,,,,,0,,,37,0
42960,note_on,12,0,1,,,,,,,,0,,,80,80
42960,note_on,12,0,4,,,,,,,,0,,,44,80
43008,note_on,48,0,1,,,,,,,,0,,,80,0
43008,note_on,48,0,4,,,,,,,,0,,,44,0
43020,note_on,12,0,1,,,,,,,,0,,,68,80
43020,note_on,12,0,4,,,,,,,,0,,,37,80
43020,note_on,0,0,1,,,,,,,,0,,,72,80
43068,note_on,48,0,1,,,,,,,,0,,,72,0
43068,note_on,48,0,4,,,,,,,,0,,,37,0
43068,note_on,0,0,1,,,,,,,,0,,,68,0
43080,note_on,12,0,4,,,,,,,,0,,,45,80
43080,note_on,12,0,1,,,,,,,,0,,,78,80
43128,note_on,48,0,4,,,,,,,,0,,,45,0
43128,note_on,48,0,1,,,,,,,,0,,,78,0
43140,note_on,12,0,4,,,,,,,,0,,,37,80
43140,note_on,12,0,1,,,,,,,,0,,,72,80
43140,note_on,0,0,1,,,,,,,,0,,,66,80
43188,note_on,48,0,4,,,,,,,,0,,,37,0
43188,note_on,0,0,1,,,,,,,,0,,,72,0
43188,note_on,48,0,1,,,,,,,,0,,,66,0
43200,note_on,12,0,4,,,,,,,,0,,,49,80
43200,note_on,12,0,1,,,,,,,,0,,,77,80
43214,control_change,14,0,4,,,,,,,,0,64,0,,
43248,note_on,34,0,4,,,,,,,,0,,,49,0
43248,note_on,48,0,1,,,,,,,,0,,,77,0
43260,note_on,0,0,1,,,,,,,,0,,,68,80
43260,note_on,12,0,1,,,,,,,,0,,,65,80
43260,note_on,12,0,4,,,,,,,,0,,,37,80
43308,note_on,0,0,1,,,,,,,,0,,,65,0
43308,note_on,48,0,4,,,,,,,,0,,,37,0
43308,note_on,48,0,1,,,,,,,,0,,,68,0
43320,note_on,12,0,1,,,,,,,,0,,,74,80
43320,note_on,12,0,4,,,,,,,,0,,,47,80
43368,note_on,48,0,1,,,,,,,,0,,,74,0
43368,note_on,48,0,4,,,,,,,,0,,,47,0
43380,note_on,12,0,1,,,,,,,,0,,,65,80
43380,note_on,12,0,4,,,,,,,,0,,,37,80
43380,note_on,0,0,1,,,,,,,,0,,,62,80
43428,note_on,48,0,4,,,,,,,,0,,,37,0
43428,note_on,0,0,1,,,,,,,,0,,,65,0
43428,note_on,48,0,1,,,,,,,,0,,,62,0
43440,note_on,12,0,1,,,,,,,,0,,,73,80
43440,note_on,12,0,4,,,,,,,,0,,,45,80
43488,note_on,48,0,1,,,,,,,,0,,,73,0
43488,note_on,48,0,4,,,,,,,,0,,,45,0
43500,note_on,12,0,4,,,,,,,,0,,,37,80
43500,note_on,0,0,1,,,,,,,,0,,,65,80
43500,note_on,12,0,1,,,,,,,,0,,,61,80
43548,note_on,48,0,1,,,,,,,,0,,,65,0
43548,note_on,48,0,4,,,,,,,,0,,,37,0
43548,note_on,0,0,1,,,,,,,,0,,,61,0
43560,note_on,12,0,4,,,,,,,,0,,,44,80
43560,note_on,12,0,1,,,,,,,,0,,,71,80
43608,note_on,48,0,4,,,,,,,,0,,,44,0
43608,note_on,48,0,1,,,,,,,,0,,,71,0
43620,note_on,12,0,1,,,,,,,,0,,,65,80
43620,note_on,12,0,4,,,,,,,,0,,,37,80
43620,note_on,0,0,1,,,,,,,,0,,,62,80
43620,note_on,0,0,1,,,,,,,,0,,,59,80
43668,note_on,0,0,1,,,,,,,,0,,,65,0
43668,note_on,0,0,1,,,,,,,,0,,,59,0
43668,note_on,48,0,4,,,,,,,,0,,,37,0
43668,note_on,48,0,1,,,,,,,,0,,,62,0
43680,note_on,12,0,4,,,,,,,,0,,,43,80
43680,note_on,12,0,1,,,,,,,,0,,,70,80
43728,note_on,48,0,1,,,,,,,,0,,,70,0
43728,note_on,48,0,4,,,,,,,,0,,,43,0
43740,note_on,0,0,1,,,,,,,,0,,,64,80
43740,note_on,12,0,4,,,,,,,,0,,,37,80
43740,note_on,0,0,1,,,,,,,,0,,,61,80
43740,note_on,12,0,1,,,,,,,,0,,,58,80
43788,note_on,48,0,4,,,,,,,,0,,,37,0
43788,note_on,0,0,1,,,,,,,,0,,,58,0
43788,note_on,0,0,1,,,,,,,,0,,,61,0
43788,note_on,48,0,1,,,,,,,,0,,,64,0
43800,note_on,12,0,1,,,,,,,,0,,,69,80
43800,note_on,12,0,4,,,,,,,,0,,,42,80
43848,note_on,48,0,4,,,,,,,,0,,,42,0
43848,note_on,48,0,1,,,,,,,,0,,,69,0
43860,note_on,12,0,4,,,,,,,,0,,,37,80
43860,note_on,0,0,1,,,,,,,,0,,,60,80
43860,note_on,12,0,1,,,,,,,,0,,,57,80
43860,note_on,0,0,1,,,,,,,,0,,,63,80
43908,note_on,48,0,4,,,,,,,,0,,,37,0
43908,note_on,0,0,1,,,,,,,,0,,,60,0
43908,note_on,48,0,1,,,,,,,,0,,,63,0
43908,note_on,0,0,1,,,,,,,,0,,,57,0
43920,note_on,12,0,1,,,,,,,,0,,,68,80
43920,note_on,12,0,4,,,,,,,,0,,,44,80
43968,note_on,48,0,4,,,,,,,,0,,,44,0
43968,note_on,48,0,1,,,,,,,,0,,,68,0
43980,note_on,12,0,1,,,,,,,,0,,,60,80
43980,note_on,0,0,1,,,,,,,,0,,,56,80
43980,note_on,12,0,4,,,,,,,,0,,,37,80
44028,note_on,0,0,1,,,,,,,,0,,,60,0
44028,note_on,48,0,4,,,,,,,,0,,,37,0
44028,note_on,48,0,1,,,,,,,,0,,,56,0
44040,note_on,12,0,1,,,,,,,,0,,,66,80
44040,note_on,12,0,4,,,,,,,,0,,,45,80
44088,note_on,48,0,4,,,,,,,,0,,,45,0
44088,note_on,48,0,1,,,,,,,,0,,,66,0
44100,note_on,12,0,4,,,,,,,,0,,,37,80
44100,note_on,0,0,1,,,,,,,,0,,,54,80
44100,note_on,12,0,1,,,,,,,,0,,,60,80
44148,note_on,48,0,4,,,,,,,,0,,,37,0
44148,note_on,0,0,1,,,,,,,,0,,,60,0
44148,note_on,48,0,1,,,,,,,,0,,,54,0
44160,note_on,12,0,1,,,,,,,,0,,,65,80
44160,note_on,0,0,4,,,,,,,,0,,,56,80
44160,note_on,12,0,4,,,,,,,,0,,,49,80
44256,note_on,96,0,1,,,,,,,,0,,,65,0
44256,note_on,96,0,4,,,,,,,,0,,,56,0
44256,note_on,0,0,4,,,,,,,,0,,,49,0
44280,note_on,3012,0,3,,,,,,,,0,,,53,80
44280,note_on,24,0,4,,,,,,,,0,,,47,80
44280,note_on,0,0,3,,,,,,,,0,,,56,80
44280,note_on,0,0,4,,,,,,,,0,,,35,80
44280,note_on,24,0,1,,,,,,,,0,,,62,80
44376,note_on,96,0,3,,,,,,,,0,,,56,0
44376,note_on,0,0,3,,,,,,,,0,,,53,0
44376,note_on,96,0,4,,,,,,,,0,,,35,0
44376,note_on,0,0,4,,,,,,,,0,,,47,0
44376,note_on,96,0,1,,,,,,,,0,,,62,0
44400,note_on,0,0,3,,,,,,,,0,,,53,80
44400,note_on,24,0,1,,,,,,,,0,,,61,80
44400,note_on,24,0,3,,,,,,,,0,,,56,80
44400,note_on,0,0,4,,,,,,,,0,,,36,80
44400,note_on,24,0,4,,,,,,,,0,,,48,80
44496,note_on,0,0,3,,,,,,,,0,,,56,0
44496,note_on,96,0,3,,,,,,,,0,,,53,0
44496,note_on,96,0,4,,,,,,,,0,,,36,0
44496,note_on,96,0,1,,,,,,,,0,,,61,0
44496,note_on,0,0,4,,,,,,,,0,,,48,0
44520,note_on,24,0,1,,,,,,,,0,,,60,80
44520,note_on,24,0,3,,,,,,,,0,,,56,80
44520,note_on,24,0,4,,,,,,,,0,,,49,80
44520,note_on,0,0,4,,,,,,,,0,,,37,80
44520,note_on,0,0,3,,,,,,,,0,,,53,80
44616,note_on,96,0,1,,,,,,,,0,,,60,0
44616,note_on,96,0,3,,,,,,,,0,,,53,0
44616,note_on,0,0,4,,,,,,,,0,,,49,0
44616,note_on,96,0,4,,,,,,,,0,,,37,0
44616,note_on,0,0,3,,,,,,,,0,,,56,0
44640,note_on,0,0,3,,,,,,,,0,,,53,80
44640,note_on,24,0,3,,,,,,,,0,,,56,80
44640,note_on,0,0,4,,,,,,,,0,,,38,80
44640,note_on,24,0,4,,,,,,,,0,,,50,80
44640,note_on,24,0,1,,,,,,,,0,,,59,80
44736,note_on,96,0,3,,,,,,,,0,,,53,0
44736,note_on,0,0,4,,,,,,,,0,,,50,0
44736,note_on,96,0,4,,,,,,,,0,,,38,0
44736,note_on,96,0,1,,,,,,,,0,,,59,0
44736,note_on,0,0,3,,,,,,,,0,,,56,0
44760,note_on,24,0,4,,,,,,,,0,,,47,80
44760,note_on,24,0,1,,,,,,,,0,,,62,80
44760,note_on,0,0,4,,,,,,,,0,,,35,80
44760,note_on,24,0,3,,,,,,,,0,,,53,80
44760,note_on,0,0,3,,,,,,,,0,,,56,80
44856,note_on,96,0,3,,,,,,,,0,,,56,0
44856,note_on,0,0,3,,,,,,,,0,,,53,0
44856,note_on,96,0,4,,,,,,,,0,,,35,0
44856,note_on,0,0,4,,,,,,,,0,,,47,0
44856,note_on,96,0,1,,,,,,,,0,,,62,0
44880,note_on,24,0,3,,,,,,,,0,,,53,80
44880,note_on,0,0,3,,,,,,,,0,,,56,80
44880,note_on,24,0,1,,,,,,,,0,,,61,80
44880,note_on,24,0,4,,,,,,,,0,,,48,80
44880,note_on,0,0,4,,,,,,,,0,,,36,80
44928,note_on,48,0,4,,,,,,,,0,,,36,0
44928,note_on,0,0,3,,,,,,,,0,,,53,0
44928,note_on,48,0,3,,,,,,,,0,,,56,0
44928,note_on,48,0,1,,,,,,,,0,,,61,0
44928,note_on,0,0,4,,,,,,,,0,,,48,0
44940,note_on,0,0,4,,,,,,,,0,,,49,80
44940,note_on,12,0,3,,,,,,,,0,,,56,80
44940,note_on,12,0,4,,,,,,,,0,,,37,80
44940,note_on,12,0,1,,,,,,,,0,,,60,80
44940,note_on,0,0,3,,,,,,,,0,,,53,80
44988,note_on,48,0,4,,,,,,,,0,,,49,0
44988,note_on,0,0,3,,,,,,,,0,,,56,0
44988,note_on,48,0,3,,,,,,,,0,,,53,0
44988,note_on,48,0,1,,,,,,,,0,,,60,0
44988,note_on,0,0,4,,,,,,,,0,,,37,0
45000,note_on,12,0,3,,,,,,,,0,,,56,80
45000,note_on,12,0,4,,,,,,,,0,,,50,80
45000,note_on,0,0,4,,,,,,,,0,,,38,80
45000,note_on,0,0,3,,,,,,,,0,,,53,80
45000,note_on,12,0,1,,,,,,,,0,,,59,80
45096,note_on,96,0,3,,,,,,,,0,,,53,0
45096,note_on,0,0,4,,,,,,,,0,,,50,0
45096,note_on,0,0,3,,,,,,,,0,,,56,0
45096,note_on,96,0,1,,,,,,,,0,,,59,0
45096,note_on,96,0,4,,,,,,,,0,,,38,0
45240,note_on,0,0,1,,,,,,,,0,,,74,68
45240,note_on,0,0,1,,,,,,,,0,,,65,68
45240,note_on,144,0,1,,,,,,,,0,,,68,68
45240,note_on,144,0,4,,,,,,,,0,,,59,68
45336,note_on,96,0,4,,,,,,,,0,,,59,0
45336,note_on,96,0,1,,,,,,,,0,,,74,0
45336,note_on,0,0,1,,,,,,,,0,,,65,0
45336,note_on,0,0,1,,,,,,,,0,,,68,0
45360,note_on,0,0,1,,,,,,,,0,,,68,68
45360,note_on,0,0,1,,,,,,,,0,,,73,68
45360,note_on,24,0,1,,,,,,,,0,,,65,68
45360,note_on,24,0,4,,,,,,,,0,,,60,68
45456,note_on,96,0,1,,,,,,,,0,,,68,0
45456,note_on,0,0,1,,,,,,,,0,,,65,0
45456,note_on,96,0,4,,,,,,,,0,,,60,0
45456,note_on,0,0,1,,,,,,,,0,,,73,0
45480,note_on,24,0,1,,,,,,,,0,,,65,68
45480,note_on,0,0,1,,,,,,,,0,,,68,68
45480,note_on,0,0,1,,,,,,,,0,,,72,68
45480,note_on,24,0,4,,,,,,,,0,,,61,68
45576,note_on,96,0,1,,,,,,,,0,,,68,0
45576,note_on,0,0,1,,,,,,,,0,,,65,0
45576,note_on,0,0,1,,,,,,,,0,,,72,0
45576,note_on,96,0,4,,,,,,,,0,,,61,0
45600,note_on,0,0,1,,,,,,,,0,,,71,68
45600,note_on,24,0,1,,,,,,,,0,,,68,68
45600,note_on,0,0,1,,,,,,,,0,,,65,68
45600,note_on,24,0,4,,,,,,,,0,,,62,68
45696,note_on,0,0,1,,,,,,,,0,,,68,0
45696,note_on,96,0,1,,,,,,,,0,,,71,0
45696,note_on,0,0,1,,,,,,,,0,,,65,0
45696,note_on,96,0,4,,,,,,,,0,,,62,0
45720,note_on,24,0,1,,,,,,,,0,,,74,68
45720,note_on,0,0,1,,,,,,,,0,,,68,68
45720,note_on,24,0,4,,,,,,,,0,,,59,68
45720,note_on,0,0,1,,,,,,,,0,,,65,68
45816,note_on,96,0,4,,,,,,,,0,,,59,0
45816,note_on,0,0,1,,,,,,,,0,,,65,0
45816,note_on,96,0,1,,,,,,,,0,,,68,0
45816,note_on,0,0,1,,,,,,,,0,,,74,0
45840,note_on,0,0,1,,,,,,,,0,,,73,68
45840,note_on,24,0,1,,,,,,,,0,,,68,68
45840,note_on,24,0,4,,,,,,,,0,,,60,68
45840,note_on,0,0,1,,,,,,,,0,,,65,68
45888,note_on,48,0,4,,,,,,,,0,,,60,0
45888,note_on,48,0,1,,,,,,,,0,,,65,0
45888,note_on,0,0,1,,,,,,,,0,,,73,0
45888,note_on,0,0,1,,,,,,,,0,,,68,0
45900,note_on,12,0,4,,,,,,,,0,,,61,68
45900,note_on,12,0,1,,,,,,,,0,,,72,68
45900,note_on,0,0,1,,,,,,,,0,,,65,68
45900,note_on,0,0,1,,,,,,,,0,,,68,68
45948,note_on,48,0,4,,,,,,,,0,,,61,0
45948,note_on,48,0,1,,,,,,,,0,,,68,0
45948,note_on,0,0,1,,,,,,,,0,,,65,0
45948,note_on,0,0,1,,,,,,,,0,,,72,0
45960,note_on,12,0,4,,,,,,,,0,,,62,68
45960,note_on,0,0,1,,,,,,,,0,,,71,68
45960,note_on,12,0,1,,,,,,,,0,,,68,68
45960,note_on,0,0,1,,,,,,,,0,,,65,68
46056,note_on,96,0,1,,,,,,,,0,,,65,0
46056,note_on,0,0,1,,,,,,,,0,,,68,0
46056,note_on,96,0,4,,,,,,,,0,,,62,0
46056,note_on,0,0,1,,,,,,,,0,,,71,0
46200,note_on,1104,0,3,,,,,,,,0,,,56,80
46200,note_on,0,0,4,,,,,,,,0,,,35,80
46200,note_on,144,0,1,,,,,,,,0,,,65,80
46200,note_on,0,0,3,,,,,,,,0,,,53,80
46200,note_on,0,0,1,,,,,,,,0,,,62,80
46200,note_on,144,0,4,,,,,,,,0,,,47,80
46296,note_on,0,0,3,,,,,,,,0,,,56,0
46296,note_on,96,0,1,,,,,,,,0,,,62,0
46296,note_on,0,0,4,,,,,,,,0,,,47,0
46296,note_on,96,0,3,,,,,,,,0,,,53,0
46296,note_on,96,0,4,,,,,,,,0,,,35,0
46296,note_on,0,0,1,,,,,,,,0,,,65,0
46320,note_on,24,0,1,,,,,,,,0,,,61,80
46320,note_on,0,0,4,,,,,,,,0,,,48,80
46320,note_on,0,0,1,,,,,,,,0,,,65,80
46320,note_on,0,0,3,,,,,,,,0,,,53,80
46320,note_on,24,0,3,,,,,,,,0,,,56,80
46320,note_on,24,0,4,,,,,,,,0,,,36,80
46416,note_on,0,0,3,,,,,,,,0,,,56,0
46416,note_on,96,0,3,,,,,,,,0,,,53,0
46416,note_on,96,0,1,,,,,,,,0,,,65,0
46416,note_on,96,0,4,,,,,,,,0,,,48,0
46416,note_on,0,0,4,,,,,,,,0,,,36,0
46416,note_on,0,0,1,,,,,,,,0,,,61,0
46440,note_on,0,0,4,,,,,,,,0,,,37,80
46440,note_on,0,0,3,,,,,,,,0,,,56,80
46440,note_on,0,0,1,,,,,,,,0,,,65,80
46440,note_on,24,0,1,,,,,,,,0,,,60,80
46440,note_on,24,0,4,,,,,,,,0,,,49,80
46440,note_on,24,0,3,,,,,,,,0,,,53,80
46536,note_on,0,0,4,,,,,,,,0,,,49,0
46536,note_on,0,0,3,,,,,,,,0,,,53,0
46536,note_on,96,0,1,,,,,,,,0,,,65,0
46536,note_on,96,0,3,,,,,,,,0,,,56,0
46536,note_on,96,0,4,,,,,,,,0,,,37,0
46536,note_on,0,0,1,,,,,,,,0,,,60,0
46560,note_on,24,0,1,,,,,,,,0,,,59,80
46560,note_on,0,0,3,,,,,,,,0,,,53,80
46560,note_on,0,0,1,,,,,,,,0,,,65,80
46560,note_on,24,0,3,,,,,,,,0,,,56,80
46560,note_on,0,0,4,,,,,,,,0,,,50,80
46560,note_on,24,0,4,,,,,,,,0,,,38,80
46656,note_on,96,0,3,,,,,,,,0,,,53,0
46656,note_on,0,0,1,,,,,,,,0,,,59,0
46656,note_on,96,0,4,,,,,,,,0,,,50,0
46656,note_on,0,0,3,,,,,,,,0,,,56,0
46656,note_on,96,0,1,,,,,,,,0,,,65,0
46656,note_on,0,0,4,,,,,,,,0,,,38,0
46680,note_on,24,0,1,,,,,,,,0,,,65,80
46680,note_on,0,0,3,,,,,,,,0,,,53,80
46680,note_on,24,0,3,,,,,,,,0,,,56,80
46680,note_on,0,0,4,,,,,,,,0,,,35,80
46680,note_on,24,0,4,,,,,,,,0,,,47,80
46680,note_on,0,0,1,,,,,,,,0,,,62,80
46776,note_on,0,0,1,,,,,,,,0,,,65,0
46776,note_on,96,0,1,,,,,,,,0,,,62,0
46776,note_on,96,0,4,,,,,,,,0,,,35,0
46776,note_on,96,0,3,,,,,,,,0,,,53,0
46776,note_on,0,0,3,,,,,,,,0,,,56,0
46776,note_on,0,0,4,,,,,,,,0,,,47,0
46800,note_on,0,0,3,,,,,,,,0,,,56,80
46800,note_on,24,0,1,,,,,,,,0,,,65,80
46800,note_on,0,0,1,,,,,,,,0,,,61,80
46800,note_on,24,0,3,,,,,,,,0,,,53,80
46800,note_on,24,0,4,,,,,,,,0,,,36,80
46800,note_on,0,0,4,,,,,,,,0,,,48,80
46848,note_on,48,0,4,,,,,,,,0,,,48,0
46848,note_on,0,0,3,,,,,,,,0,,,53,0
46848,note_on,48,0,1,,,,,,,,0,,,61,0
46848,note_on,48,0,3,,,,,,,,0,,,56,0
46848,note_on,0,0,4,,,,,,,,0,,,36,0
46848,note_on,0,0,1,,,,,,,,0,,,65,0
46860,note_on,0,0,3,,,,,,,,0,,,53,80
46860,note_on,12,0,4,,,,,,,,0,,,49,80
46860,note_on,12,0,1,,,,,,,,0,,,65,80
46860,note_on,0,0,1,,,,,,,,0,,,60,80
46860,note_on,12,0,3,,,,,,,,0,,,56,80
46860,note_on,0,0,4,,,,,,,,0,,,37,80
46908,note_on,48,0,1,,,,,,,,0,,,60,0
46908,note_on,0,0,4,,,,,,,,0,,,49,0
46908,note_on,48,0,4,,,,,,,,0,,,37,0
46908,note_on,0,0,3,,,,,,,,0,,,56,0
46908,note_on,48,0,3,,,,,,,,0,,,53,0
46908,note_on,0,0,1,,,,,,,,0,,,65,0
46920,note_on,12,0,3,,,,,,,,0,,,53,80
46920,note_on,0,0,3,,,,,,,,0,,,56,80
46920,note_on,0,0,4,,,,,,,,0,,,38,80
46920,note_on,12,0,4,,,,,,,,0,,,50,80
46920,note_on,12,0,1,,,,,,,,0,,,65,80
46920,note_on,0,0,1,,,,,,,,0,,,59,80
47016,note_on,96,0,4,,,,,,,,0,,,38,0
47016,note_on,96,0,3,,,,,,,,0,,,56,0
47016,note_on,96,0,1,,,,,,,,0,,,59,0
47016,note_on,0,0,1,,,,,,,,0,,,65,0
47016,note_on,0,0,4,,,,,,,,0,,,50,0
47016,note_on,0,0,3,,,,,,,,0,,,53,0
47160,note_on,144,0,4,,,,,,,,0,,,59,68
47160,note_on,144,0,1,,,,,,,,0,,,74,68
47160,note_on,0,0,4,,,,,,,,0,,,65,68
47160,note_on,0,0,1,,,,,,,,0,,,68,68
47160,note_on,0,0,1,,,,,,,,0,,,77,68
47256,note_on,0,0,4,,,,,,,,0,,,59,0
47256,note_on,96,0,1,,,,,,,,0,,,77,0
47256,note_on,96,0,4,,,,,,,,0,,,65,0
47256,note_on,0,0,1,,,,,,,,0,,,74,0
47256,note_on,0,0,1,,,,,,,,0,,,68,0
47280,note_on,24,0,4,,,,,,,,0,,,60,68
47280,note_on,0,0,4,,,,,,,,0,,,65,68
47280,note_on,0,0,1,,,,,,,,0,,,77,68
47280,note_on,24,0,1,,,,,,,,0,,,73,68
47280,note_on,0,0,1,,,,,,,,0,,,68,68
47376,note_on,0,0,1,,,,,,,,0,,,77,0
47376,note_on,0,0,4,,,,,,,,0,,,60,0
47376,note_on,0,0,1,,,,,,,,0,,,73,0
47376,note_on,96,0,1,,,,,,,,0,,,68,0
47376,note_on,96,0,4,,,,,,,,0,,,65,0
47400,note_on,24,0,4,,,,,,,,0,,,65,68
47400,note_on,0,0,1,,,,,,,,0,,,72,68
47400,note_on,0,0,1,,,,,,,,0,,,77,68
47400,note_on,0,0,4,,,,,,,,0,,,61,68
47400,note_on,24,0,1,,,,,,,,0,,,68,68
47496,note_on,0,0,1,,,,,,,,0,,,68,0
47496,note_on,96,0,1,,,,,,,,0,,,77,0
47496,note_on,0,0,1,,,,,,,,0,,,72,0
47496,note_on,96,0,4,,,,,,,,0,,,61,0
47496,note_on,0,0,4,,,,,,,,0,,,65,0
47520,note_on,24,0,1,,,,,,,,0,,,71,68
47520,note_on,0,0,1,,,,,,,,0,,,77,68
47520,note_on,0,0,1,,,,,,,,0,,,68,68
47520,note_on,24,0,4,,,,,,,,0,,,62,68
47520,note_on,0,0,4,,,,,,,,0,,,65,68
47616,note_on,96,0,4,,,,,,,,0,,,65,0
47616,note_on,96,0,1,,,,,,,,0,,,68,0
47616,note_on,0,0,1,,,,,,,,0,,,77,0
47616,note_on,0,0,1,,,,,,,,0,,,71,0
47616,note_on,0,0,4,,,,,,,,0,,,62,0
47640,note_on,24,0,4,,,,,,,,0,,,59,68
47640,note_on,24,0,1,,,,,,,,0,,,77,68
47640,note_on,0,0,1,,,,,,,,0,,,74,68
47640,note_on,0,0,1,,,,,,,,0,,,68,68
47640,note_on,0,0,4,,,,,,,,0,,,65,68
47736,note_on,0,0,1,,,,,,,,0,,,77,0
47736,note_on,96,0,1,,,,,,,,0,,,74,0
47736,note_on,0,0,1,,,,,,,,0,,,68,0
47736,note_on,96,0,4,,,,,,,,0,,,65,0
47736,note_on,0,0,4,,,,,,,,0,,,59,0
47760,note_on,0,0,1,,,,,,,,0,,,77,68
47760,note_on,24,0,1,,,,,,,,0,,,73,68
47760,note_on,0,0,4,,,,,,,,0,,,65,68
47760,note_on,24,0,4,,,,,,,,0,,,60,68
47760,note_on,0,0,1,,,,,,,,0,,,68,68
47808,note_on,48,0,1,,,,,,,,0,,,68,0
47808,note_on,0,0,1,,,,,,,,0,,,77,0
47808,note_on,0,0,1,,,,,,,,0,,,73,0
47808,note_on,48,0,4,,,,,,,,0,,,65,0
47808,note_on,0,0,4,,,,,,,,0,,,60,0
47820,note_on,12,0,1,,,,,,,,0,,,72,68
47820,note_on,12,0,4,,,,,,,,0,,,61,68
47868,note_on,48,0,1,,,,,,,,0,,,72,0
47868,note_on,48,0,4,,,,,,,,0,,,61,0
47880,note_on,12,0,4,,,,,,,,0,,,62,68
47880,note_on,0,0,1,,,,,,,,0,,,77,68
47880,note_on,12,0,1,,,,,,,,0,,,68,68
47880,note_on,0,0,1,,,,,,,,0,,,71,68
47880,note_on,0,0,4,,,,,,,,0,,,65,68
47976,note_on,96,0,1,,,,,,,,0,,,71,0
47976,note_on,0,0,1,,,,,,,,0,,,68,0
47976,note_on,0,0,4,,,,,,,,0,,,62,0
47976,note_on,96,0,4,,,,,,,,0,,,65,0
47976,note_on,0,0,1,,,,,,,,0,,,77,0
48000,note_on,24,0,1,,,,,,,,0,,,80,68
48000,note_on,0,0,1,,,,,,,,0,,,71,68
48000,note_on,0,0,1,,,,,,,,0,,,77,68
48000,note_on,0,0,3,,,,,,,,0,,,62,68
48000,note_on,984,0,3,,,,,,,,0,,,68,68
48096,note_on,0,0,1,,,,,,,,0,,,80,0
48096,note_on,0,0,1,,,,,,,,0,,,71,0
48096,note_on,96,0,1,,,,,,,,0,,,77,0
48096,note_on,0,0,3,,,,,,,,0,,,68,0
48096,note_on,96,0,3,,,,,,,,0,,,62,0
48120,note_on,0,0,1,,,,,,,,0,,,76,68
48120,note_on,24,0,3,,,,,,,,0,,,68,68
48120,note_on,24,0,1,,,,,,,,0,,,71,68
48120,note_on,0,0,1,,,,,,,,0,,,80,68
48120,note_on,0,0,3,,,,,,,,0,,,63,68
48168,note_on,0,0,3,,,,,,,,0,,,68,0
48168,note_on,0,0,1,,,,,,,,0,,,71,0
48168,note_on,48,0,3,,,,,,,,0,,,63,0
48168,note_on,0,0,1,,,,,,,,0,,,76,0
48168,note_on,48,0,1,,,,,,,,0,,,80,0
48180,note_on,12,0,1,,,,,,,,0,,,75,68
48180,note_on,12,0,3,,,,,,,,0,,,64,68
48228,note_on,48,0,3,,,,,,,,0,,,64,0
48228,note_on,48,0,1,,,,,,,,0,,,75,0
48240,note_on,0,0,3,,,,,,,,0,,,65,68
48240,note_on,0,0,1,,,,,,,,0,,,71,68
48240,note_on,12,0,1,,,,,,,,0,,,80,68
48240,note_on,0,0,1,,,,,,,,0,,,74,68
48240,note_on,12,0,3,,,,,,,,0,,,68,68
48336,note_on,96,0,1,,,,,,,,0,,,74,0
48336,note_on,0,0,1,,,,,,,,0,,,80,0
48336,note_on,0,0,1,,,,,,,,0,,,71,0
48336,note_on,96,0,3,,,,,,,,0,,,65,0
48336,note_on,0,0,3,,,,,,,,0,,,68,0
48360,note_on,24,0,1,,,,,,,,0,,,80,68
48360,note_on,24,0,3,,,,,,,,0,,,65,68
48360,note_on,0,0,1,,,,,,,,0,,,74,68
48360,note_on,0,0,1,,,,,,,,0,,,83,68
48360,note_on,0,0,3,,,,,,,,0,,,71,68
48456,note_on,0,0,3,,,,,,,,0,,,65,0
48456,note_on,96,0,1,,,,,,,,0,,,83,0
48456,note_on,0,0,1,,,,,,,,0,,,74,0
48456,note_on,0,0,1,,,,,,,,0,,,80,0
48456,note_on,96,0,3,,,,,,,,0,,,71,0
48480,note_on,0,0,3,,,,,,,,0,,,66,69
48480,note_on,24,0,1,,,,,,,,0,,,74,69
48480,note_on,24,0,3,,,,,,,,0,,,71,69
48480,note_on,0,0,1,,,,,,,,0,,,79,69
48480,note_on,0,0,1,,,,,,,,0,,,83,69
48528,note_on,0,0,3,,,,,,,,0,,,71,0
48528,note_on,0,0,1,,,,,,,,0,,,83,0
48528,note_on,0,0,1,,,,,,,,0,,,74,0
48528,note_on,48,0,1,,,,,,,,0,,,79,0
48528,note_on,48,0,3,,,,,,,,0,,,66,0
48540,note_on,12,0,3,,,,,,,,0,,,67,69
48540,note_on,12,0,1,,,,,,,,0,,,78,69
48588,note_on,48,0,1,,,,,,,,0,,,78,0
48588,note_on,48,0,3,,,,,,,,0,,,67,0
48600,note_on,12,0,3,,,,,,,,0,,,71,70
48600,note_on,0,0,1,,,,,,,,0,,,74,70
48600,note_on,0,0,1,,,,,,,,0,,,77,70
48600,note_on,0,0,3,,,,,,,,0,,,68,70
48600,note_on,12,0,1,,,,,,,,0,,,83,70
48696,note_on,96,0,3,,,,,,,,0,,,68,0
48696,note_on,0,0,1,,,,,,,,0,,,74,0
48696,note_on,0,0,1,,,,,,,,0,,,83,0
48696,note_on,0,0,3,,,,,,,,0,,,71,0
48696,note_on,96,0,1,,,,,,,,0,,,77,0
48720,note_on,0,0,2,,,,,,,,0,,,77,70
48720,note_on,8412,0,2,,,,,,,,0,,,86,70
48720,note_on,744,0,4,,,,,,,,0,,,74,70
48720,note_on,24,0,3,,,,,,,,0,,,68,70
48720,note_on,24,0,1,,,,,,,,0,,,83,70
48768,note_on,48,0,1,,,,,,,,0,,,83,0
48768,note_on,48,0,3,,,,,,,,0,,,68,0
48780,note_on,12,0,3,,,,,,,,0,,,69,71
48780,note_on,12,0,1,,,,,,,,0,,,81,71
48828,note_on,48,0,3,,,,,,,,0,,,69,0
48828,note_on,48,0,1,,,,,,,,0,,,81,0
48840,note_on,12,0,3,,,,,,,,0,,,70,71
48840,note_on,12,0,1,,,,,,,,0,,,82,71
48888,note_on,48,0,3,,,,,,,,0,,,70,0
48888,note_on,48,0,1,,,,,,,,0,,,82,0
48900,note_on,12,0,1,,,,,,,,0,,,79,71
48900,note_on,12,0,3,,,,,,,,0,,,71,71
48912,note_on,192,0,4,,,,,,,,0,,,74,0
48912,note_on,192,0,2,,,,,,,,0,,,77,0
48912,note_on,0,0,2,,,,,,,,0,,,86,0
48948,note_on,48,0,1,,,,,,,,0,,,79,0
48948,note_on,48,0,3,,,,,,,,0,,,71,0
48960,note_on,48,0,4,,,,,,,,0,,,77,72
48960,note_on,48,0,2,,,,,,,,0,,,89,72
48960,note_on,12,0,1,,,,,,,,0,,,86,72
48960,note_on,0,0,2,,,,,,,,0,,,80,72
48960,note_on,12,0,3,,,,,,,,0,,,71,72
49008,note_on,48,0,3,,,,,,,,0,,,71,0
49008,note_on,48,0,1,,,,,,,,0,,,86,0
49020,note_on,12,0,3,,,,,,,,0,,,72,72
49020,note_on,12,0,1,,,,,,,,0,,,84,72
49068,note_on,48,0,3,,,,,,,,0,,,72,0
49068,note_on,48,0,1,,,,,,,,0,,,84,0
49080,note_on,12,0,3,,,,,,,,0,,,73,72
49080,note_on,12,0,1,,,,,,,,0,,,85,72
49128,note_on,48,0,1,,,,,,,,0,,,85,0
49128,note_on,48,0,3,,,,,,,,0,,,73,0
49140,note_on,12,0,1,,,,,,,,0,,,83,72
49140,note_on,12,0,3,,,,,,,,0,,,74,72
49152,note_on,192,0,4,,,,,,,,0,,,77,0
49152,note_on,192,0,2,,,,,,,,0,,,80,0
49152,note_on,0,0,2,,,,,,,,0,,,89,0
49188,note_on,48,0,1,,,,,,,,0,,,83,0
49188,note_on,48,0,3,,,,,,,,0,,,74,0
49200,note_on,0,0,2,,,,,,,,0,,,83,72
49200,note_on,48,0,2,,,,,,,,0,,,92,72
49200,note_on,12,0,1,,,,,,,,0,,,89,72
49200,note_on,48,0,4,,,,,,,,0,,,80,72
49200,note_on,12,0,3,,,,,,,,0,,,74,72
49248,note_on,48,0,3,,,,,,,,0,,,74,0
49248,note_on,48,0,1,,,,,,,,0,,,89,0
49260,note_on,12,0,1,,,,,,,,0,,,87,72
49260,note_on,12,0,3,,,,,,,,0,,,75,72
49308,note_on,48,0,3,,,,,,,,0,,,75,0
49308,note_on,48,0,1,,,,,,,,0,,,87,0
49320,note_on,12,0,3,,,,,,,,0,,,76,73
49320,note_on,12,0,1,,,,,,,,0,,,88,73
49368,note_on,48,0,3,,,,,,,,0,,,76,0
49368,note_on,48,0,1,,,,,,,,0,,,88,0
49380,note_on,12,0,1,,,,,,,,0,,,86,73
49380,note_on,12,0,3,,,,,,,,0,,,77,73
49392,note_on,0,0,2,,,,,,,,0,,,92,0
49392,note_on,192,0,2,,,,,,,,0,,,83,0
49392,note_on,192,0,4,,,,,,,,0,,,80,0
49428,note_on,48,0,1,,,,,,,,0,,,86,0
49428,note_on,48,0,3,,,,,,,,0,,,77,0
49440,note_on,48,0,4,,,,,,,,0,,,83,73
49440,note_on,12,0,3,,,,,,,,0,,,77,73
49440,note_on,12,0,1,,,,,,,,0,,,92,73
49440,note_on,48,0,2,,,,,,,,0,,,86,73
49440,note_on,0,0,2,,,,,,,,0,,,95,73
49488,note_on,48,0,3,,,,,,,,0,,,77,0
49488,note_on,48,0,1,,,,,,,,0,,,92,0
49500,note_on,12,0,3,,,,,,,,0,,,78,73
49500,note_on,12,0,1,,,,,,,,0,,,90,73
49548,note_on,48,0,1,,,,,,,,0,,,90,0
49548,note_on,48,0,3,,,,,,,,0,,,78,0
49560,note_on,12,0,3,,,,,,,,0,,,79,74
49560,note_on,12,0,1,,,,,,,,0,,,91,74
49608,note_on,48,0,1,,,,,,,,0,,,91,0
49608,note_on,48,0,3,,,,,,,,0,,,79,0
49620,note_on,12,0,3,,,,,,,,0,,,80,74
49620,note_on,12,0,1,,,,,,,,0,,,89,74
49632,note_on,0,0,2,,,,,,,,0,,,86,0
49632,note_on,192,0,4,,,,,,,,0,,,83,0
49632,note_on,192,0,2,,,,,,,,0,,,95,0
49668,note_on,48,0,3,,,,,,,,0,,,80,0
49668,note_on,48,0,1,,,,,,,,0,,,89,0
49680,note_on,0,0,2,,,,,,,,0,,,89,74
49680,note_on,48,0,2,,,,,,,,0,,,98,74
49680,note_on,12,0,1,,,,,,,,0,,,95,74
49680,note_on,48,0,4,,,,,,,,0,,,86,74
49680,note_on,12,0,3,,,,,,,,0,,,80,74
49728,note_on,48,0,1,,,,,,,,0,,,95,0
49728,note_on,48,0,3,,,,,,,,0,,,80,0
49740,note_on,12,0,3,,,,,,,,0,,,81,75
49740,note_on,12,0,1,,,,,,,,0,,,93,75
49788,note_on,48,0,1,,,,,,,,0,,,93,0
49788,note_on,48,0,3,,,,,,,,0,,,81,0
49800,note_on,12,0,3,,,,,,,,0,,,82,75
49800,note_on,12,0,1,,,,,,,,0,,,94,75
49848,note_on,48,0,3,,,,,,,,0,,,82,0
49848,note_on,48,0,1,,,,,,,,0,,,94,0
49860,note_on,12,0,3,,,,,,,,0,,,83,75
49860,note_on,12,0,1,,,,,,,,0,,,92,75
49872,note_on,192,0,2,,,,,,,,0,,,89,0
49872,note_on,192,0,4,,,,,,,,0,,,86,0
49872,note_on,0,0,2,,,,,,,,0,,,98,0
49908,note_on,48,0,3,,,,,,,,0,,,83,0
49908,note_on,48,0,1,,,,,,,,0,,,92,0
49920,note_on,48,0,4,,,,,,,,0,,,86,76
49920,note_on,12,0,3,,,,,,,,0,,,80,76
49920,note_on,48,0,2,,,,,,,,0,,,95,76
49920,note_on,12,0,1,,,,,,,,0,,,98,76
49920,note_on,0,0,1,,,,,,,,0,,,89,76
49968,note_on,48,0,3,,,,,,,,0,,,80,0
49968,note_on,48,0,2,,,,,,,,0,,,95,0
49980,note_on,12,0,3,,,,,,,,0,,,81,75
49980,note_on,12,0,2,,,,,,,,0,,,93,75
50028,note_on,48,0,3,,,,,,,,0,,,81,0
50028,note_on,48,0,2,,,,,,,,0,,,93,0
50040,note_on,12,0,3,,,,,,,,0,,,82,74
50040,note_on,12,0,2,,,,,,,,0,,,94,74
50088,note_on,48,0,3,,,,,,,,0,,,82,0
50088,note_on,48,0,2,,,,,,,,0,,,94,0
50100,note_on,12,0,2,,,,,,,,0,,,92,73
50100,note_on,12,0,3,,,,,,,,0,,,83,73
50112,note_on,0,0,1,,,,,,,,0,,,98,0
50112,note_on,192,0,4,,,,,,,,0,,,86,0
50112,note_on,192,0,1,,,,,,,,0,,,89,0
50148,note_on,48,0,3,,,,,,,,0,,,83,0
50148,note_on,48,0,2,,,,,,,,0,,,92,0
50160,note_on,48,0,4,,,,,,,,0,,,86,72
50160,note_on,0,0,1,,,,,,,,0,,,98,72
50160,note_on,12,0,3,,,,,,,,0,,,80,72
50160,note_on,48,0,1,,,,,,,,0,,,89,72
50160,note_on,12,0,2,,,,,,,,0,,,95,72
50208,note_on,48,0,2,,,,,,,,0,,,95,0
50208,note_on,48,0,3,,,,,,,,0,,,80,0
50220,note_on,12,0,3,,,,,,,,0,,,81,72
50220,note_on,12,0,2,,,,,,,,0,,,93,72
50268,note_on,48,0,3,,,,,,,,0,,,81,0
50268,note_on,48,0,2,,,,,,,,0,,,93,0
50280,note_on,12,0,2,,,,,,,,0,,,94,72
50280,note_on,12,0,3,,,,,,,,0,,,82,72
50328,note_on,48,0,3,,,,,,,,0,,,82,0
50328,note_on,48,0,2,,,,,,,,0,,,94,0
50340,note_on,12,0,2,,,,,,,,0,,,92,71
50340,note_on,12,0,3,,,,,,,,0,,,83,71
50352,note_on,0,0,1,,,,,,,,0,,,89,0
50352,note_on,192,0,1,,,,,,,,0,,,98,0
50352,note_on,192,0,4,,,,,,,,0,,,86,0
50388,note_on,48,0,2,,,,,,,,0,,,92,0
50388,note_on,48,0,3,,,,,,,,0,,,83,0
50400,note_on,12,0,2,,,,,,,,0,,,95,70
50400,note_on,48,0,4,,,,,,,,0,,,86,70
50400,note_on,12,0,3,,,,,,,,0,,,80,70
50400,note_on,0,0,1,,,,,,,,0,,,89,70
50400,note_on,48,0,1,,,,,,,,0,,,98,70
50448,note_on,48,0,3,,,,,,,,0,,,80,0
50448,note_on,48,0,2,,,,,,,,0,,,95,0
50460,note_on,12,0,3,,,,,,,,0,,,81,70
50460,note_on,12,0,2,,,,,,,,0,,,93,70
50508,note_on,48,0,3,,,,,,,,0,,,81,0
50508,note_on,48,0,2,,,,,,,,0,,,93,0
50520,note_on,12,0,2,,,,,,,,0,,,94,70
50520,note_on,12,0,3,,,,,,,,0,,,82,70
50568,note_on,48,0,3,,,,,,,,0,,,82,0
50568,note_on,48,0,2,,,,,,,,0,,,94,0
50580,note_on,12,0,3,,,,,,,,0,,,83,69
50580,note_on,12,0,2,,,,,,,,0,,,92,69
50592,note_on,192,0,4,,,,,,,,0,,,86,0
50592,note_on,192,0,1,,,,,,,,0,,,89,0
50592,note_on,0,0,1,,,,,,,,0,,,98,0
50628,note_on,48,0,2,,,,,,,,0,,,92,0
50628,note_on,48,0,3,,,,,,,,0,,,83,0
50640,note_on,0,0,1,,,,,,,,0,,,89,69
50640,note_on,12,0,3,,,,,,,,0,,,80,69
50640,note_on,12,0,2,,,,,,,,0,,,95,69
50640,note_on,48,0,4,,,,,,,,0,,,86,69
50640,note_on,48,0,1,,,,,,,,0,,,98,69
50688,note_on,48,0,3,,,,,,,,0,,,80,0
50688,note_on,48,0,2,,,,,,,,0,,,95,0
50700,note_on,12,0,3,,,,,,,,0,,,81,68
50700,note_on,12,0,2,,,,,,,,0,,,93,68
50748,note_on,48,0,3,,,,,,,,0,,,81,0
50748,note_on,48,0,2,,,,,,,,0,,,93,0
50760,note_on,12,0,2,,,,,,,,0,,,94,67
50760,note_on,12,0,3,,,,,,,,0,,,82,67
50808,note_on,48,0,3,,,,,,,,0,,,82,0
50808,note_on,48,0,2,,,,,,,,0,,,94,0
50820,note_on,12,0,3,,,,,,,,0,,,83,68
50820,note_on,12,0,2,,,,,,,,0,,,92,68
50832,note_on,192,0,1,,,,,,,,0,,,89,0
50832,note_on,192,0,4,,,,,,,,0,,,86,0
50832,note_on,0,0,1,,,,,,,,0,,,98,0
50868,note_on,48,0,2,,,,,,,,0,,,92,0
50868,note_on,48,0,3,,,,,,,,0,,,83,0
50880,time_signature,18863,1,0,1,4,24,8,,,,,,,,
51120,note_on,0,0,1,,,,,,,,0,,,98,80
51120,time_signature,240,1,0,4,4,24,8,,,,,,,,
51120,note_on,288,0,1,,,,,,,,0,,,101,80
51120,note_on,0,0,1,,,,,,,,0,,,95,80
51168,note_on,0,0,1,,,,,,,,0,,,98,0
51168,note_on,0,0,1,,,,,,,,0,,,101,0
51168,note_on,48,0,1,,,,,,,,0,,,95,0
51180,note_on,12,0,1,,,,,,,,0,,,97,80
51180,note_on,0,0,1,,,,,,,,0,,,94,80
51228,note_on,48,0,1,,,,,,,,0,,,94,0
51228,note_on,0,0,1,,,,,,,,0,,,97,0
51240,note_on,12,0,1,,,,,,,,0,,,101,80
51240,note_on,0,0,1,,,,,,,,0,,,98,80
51240,note_on,0,0,1,,,,,,,,0,,,95,80
51288,note_on,0,0,1,,,,,,,,0,,,98,0
51288,note_on,48,0,1,,,,,,,,0,,,95,0
51288,note_on,0,0,1,,,,,,,,0,,,101,0
51300,note_on,12,0,1,,,,,,,,0,,,93,80
51300,note_on,0,0,1,,,,,,,,0,,,96,80
51348,note_on,48,0,1,,,,,,,,0,,,96,0
51348,note_on,0,0,1,,,,,,,,0,,,93,0
51360,note_on,0,0,1,,,,,,,,0,,,98,78
51360,note_on,0,0,1,,,,,,,,0,,,92,78
51360,note_on,12,0,1,,,,,,,,0,,,95,78
51408,note_on,48,0,1,,,,,,,,0,,,98,0
51408,note_on,0,0,1,,,,,,,,0,,,95,0
51408,note_on,0,0,1,,,,,,,,0,,,92,0
51420,note_on,0,0,1,,,,,,,,0,,,94,78
51420,note_on,12,0,1,,,,,,,,0,,,91,78
51468,note_on,48,0,1,,,,,,,,0,,,94,0
51468,note_on,0,0,1,,,,,,,,0,,,91,0
51480,note_on,12,0,1,,,,,,,,0,,,92,78
51480,note_on,0,0,1,,,,,,,,0,,,95,78
51480,note_on,0,0,1,,,,,,,,0,,,98,78
51528,note_on,48,0,1,,,,,,,,0,,,98,0
51528,note_on,0,0,1,,,,,,,,0,,,92,0
51528,note_on,0,0,1,,,,,,,,0,,,95,0
51540,note_on,12,0,1,,,,,,,,0,,,93,76
51540,note_on,0,0,1,,,,,,,,0,,,90,76
51588,note_on,0,0,1,,,,,,,,0,,,93,0
51588,note_on,48,0,1,,,,,,,,0,,,90,0
51600,note_on,12,0,1,,,,,,,,0,,,92,76
51600,note_on,0,0,1,,,,,,,,0,,,89,76
51600,note_on,0,0,1,,,,,,,,0,,,95,76
51648,note_on,0,0,1,,,,,,,,0,,,89,0
51648,note_on,48,0,1,,,,,,,,0,,,95,0
51648,note_on,0,0,1,,,,,,,,0,,,92,0
51660,note_on,0,0,1,,,,,,,,0,,,88,76
51660,note_on,12,0,1,,,,,,,,0,,,91,76
51708,note_on,48,0,1,,,,,,,,0,,,88,0
51708,note_on,0,0,1,,,,,,,,0,,,91,0
51720,note_on,0,0,1,,,,,,,,0,,,92,74
51720,note_on,0,0,1,,,,,,,,0,,,89,74
51720,note_on,12,0,1,,,,,,,,0,,,95,74
51768,note_on,48,0,1,,,,,,,,0,,,89,0
51768,note_on,0,0,1,,,,,,,,0,,,92,0
51768,note_on,0,0,1,,,,,,,,0,,,95,0
51780,note_on,12,0,1,,,,,,,,0,,,90,74
51780,note_on,0,0,1,,,,,,,,0,,,87,74
51828,note_on,48,0,1,,,,,,,,0,,,87,0
51828,note_on,0,0,1,,,,,,,,0,,,90,0
51840,note_on,12,0,1,,,,,,,,0,,,86,74
51840,note_on,0,0,1,,,,,,,,0,,,92,74
51840,note_on,0,0,1,,,,,,,,0,,,89,74
51888,note_on,48,0,1,,,,,,,,0,,,89,0
51888,note_on,0,0,1,,,,,,,,0,,,92,0
51888,note_on,0,0,1,,,,,,,,0,,,86,0
51900,note_on,12,0,1,,,,,,,,0,,,85,72
51900,note_on,0,0,1,,,,,,,,0,,,88,72
51948,note_on,0,0,1,,,,,,,,0,,,85,0
51948,note_on,48,0,1,,,,,,,,0,,,88,0
51960,note_on,12,0,1,,,,,,,,0,,,86,72
51960,note_on,0,0,1,,,,,,,,0,,,89,72
51960,note_on,0,0,1,,,,,,,,0,,,92,72
52008,note_on,0,0,1,,,,,,,,0,,,92,0
52008,note_on,48,0,1,,,,,,,,0,,,89,0
52008,note_on,0,0,1,,,,,,,,0,,,86,0
52020,note_on,12,0,1,,,,,,,,0,,,84,72
52020,note_on,0,0,1,,,,,,,,0,,,87,72
52068,note_on,0,0,1,,,,,,,,0,,,84,0
52068,note_on,48,0,1,,,,,,,,0,,,87,0
52080,note_on,12,0,1,,,,,,,,0,,,83,72
52080,note_on,0,0,1,,,,,,,,0,,,89,72
52080,note_on,0,0,1,,,,,,,,0,,,86,72
52128,note_on,48,0,1,,,,,,,,0,,,89,0
52128,note_on,0,0,1,,,,,,,,0,,,86,0
52128,note_on,0,0,1,,,,,,,,0,,,83,0
52140,note_on,12,0,1,,,,,,,,0,,,85,72
52140,note_on,0,0,1,,,,,,,,0,,,82,72
52188,note_on,48,0,1,,,,,,,,0,,,82,0
52188,note_on,0,0,1,,,,,,,,0,,,85,0
52200,note_on,12,0,1,,,,,,,,0,,,83,72
52200,note_on,0,0,1,,,,,,,,0,,,89,72
52200,note_on,0,0,1,,,,,,,,0,,,86,72
52248,note_on,48,0,1,,,,,,,,0,,,89,0
52248,note_on,0,0,1,,,,,,,,0,,,86,0
52248,note_on,0,0,1,,,,,,,,0,,,83,0
52260,note_on,0,0,1,,,,,,,,0,,,81,72
52260,note_on,12,0,1,,,,,,,,0,,,84,72
52308,note_on,48,0,1,,,,,,,,0,,,81,0
52308,note_on,0,0,1,,,,,,,,0,,,84,0
52320,note_on,0,0,1,,,,,,,,0,,,80,70
52320,note_on,0,0,1,,,,,,,,0,,,83,70
52320,note_on,12,0,1,,,,,,,,0,,,86,70
52368,note_on,0,0,1,,,,,,,,0,,,86,0
52368,note_on,48,0,1,,,,,,,,0,,,80,0
52368,note_on,0,0,1,,,,,,,,0,,,83,0
52380,note_on,12,0,1,,,,,,,,0,,,82,70
52380,note_on,0,0,1,,,,,,,,0,,,79,70
52428,note_on,48,0,1,,,,,,,,0,,,79,0
52428,note_on,0,0,1,,,,,,,,0,,,82,0
52440,note_on,0,0,1,,,,,,,,0,,,86,70
52440,note_on,0,0,1,,,,,,,,0,,,80,70
52440,note_on,12,0,1,,,,,,,,0,,,83,70
52488,note_on,48,0,1,,,,,,,,0,,,86,0
52488,note_on,0,0,1,,,,,,,,0,,,80,0
52488,note_on,0,0,1,,,,,,,,0,,,83,0
52500,note_on,12,0,1,,,,,,,,0,,,78,68
52500,note_on,0,0,1,,,,,,,,0,,,81,68
52548,note_on,0,0,1,,,,,,,,0,,,78,0
52548,note_on,48,0,1,,,,,,,,0,,,81,0
52560,note_on,0,0,1,,,,,,,,0,,,77,68
52560,note_on,0,0,1,,,,,,,,0,,,83,68
52560,note_on,12,0,1,,,,,,,,0,,,80,68
52608,note_on,0,0,1,,,,,,,,0,,,77,0
52608,note_on,0,0,1,,,,,,,,0,,,80,0
52608,note_on,48,0,1,,,,,,,,0,,,83,0
52620,note_on,12,0,1,,,,,,,,0,,,76,68
52620,note_on,0,0,1,,,,,,,,0,,,79,68
52668,note_on,0,0,1,,,,,,,,0,,,76,0
52668,note_on,48,0,1,,,,,,,,0,,,79,0
52680,note_on,0,0,1,,,,,,,,0,,,77,67
52680,note_on,0,0,1,,,,,,,,0,,,83,67
52680,note_on,12,0,1,,,,,,,,0,,,80,67
52728,note_on,48,0,1,,,,,,,,0,,,83,0
52728,note_on,0,0,1,,,,,,,,0,,,77,0
52728,note_on,0,0,1,,,,,,,,0,,,80,0
52740,note_on,12,0,1,,,,,,,,0,,,75,67
52740,note_on,0,0,1,,,,,,,,0,,,78,67
52788,note_on,48,0,1,,,,,,,,0,,,78,0
52788,note_on,0,0,1,,,,,,,,0,,,75,0
52800,note_on,0,0,1,,,,,,,,0,,,74,67
52800,note_on,0,0,1,,,,,,,,0,,,77,67
52800,note_on,12,0,1,,,,,,,,0,,,80,67
52848,note_on,0,0,1,,,,,,,,0,,,77,0
52848,note_on,48,0,1,,,,,,,,0,,,74,0
52848,note_on,0,0,1,,,,,,,,0,,,80,0
52860,note_on,12,0,1,,,,,,,,0,,,73,65
52860,note_on,0,0,1,,,,,,,,0,,,76,65
52908,note_on,0,0,1,,,,,,,,0,,,73,0
52908,note_on,48,0,1,,,,,,,,0,,,76,0
52920,note_on,0,0,1,,,,,,,,0,,,77,65
52920,note_on,0,0,1,,,,,,,,0,,,74,65
52920,note_on,12,0,1,,,,,,,,0,,,80,65
52968,note_on,0,0,1,,,,,,,,0,,,77,0
52968,note_on,0,0,1,,,,,,,,0,,,80,0
52968,note_on,48,0,1,,,,,,,,0,,,74,0
52980,note_on,0,0,1,,,,,,,,0,,,75,65
52980,note_on,12,0,1,,,,,,,,0,,,72,65
53028,note_on,0,0,1,,,,,,,,0,,,72,0
53028,note_on,48,0,1,,,,,,,,0,,,75,0
53040,note_on,0,0,1,,,,,,,,0,,,77,64
53040,note_on,0,0,1,,,,,,,,0,,,80,64
53040,note_on,12,0,1,,,,,,,,0,,,74,64
53088,note_on,48,0,1,,,,,,,,0,,,80,0
53088,note_on,0,0,1,,,,,,,,0,,,74,0
53088,note_on,0,0,1,,,,,,,,0,,,77,0
53100,note_on,12,0,1,,,,,,,,0,,,73,64
53100,note_on,0,0,1,,,,,,,,0,,,76,64
53148,note_on,0,0,1,,,,,,,,0,,,73,0
53148,note_on,48,0,1,,,,,,,,0,,,76,0
53160,note_on,0,0,1,,,,,,,,0,,,80,64
53160,note_on,12,0,1,,,,,,,,0,,,77,64
53160,note_on,0,0,1,,,,,,,,0,,,74,64
53208,note_on,48,0,1,,,,,,,,0,,,74,0
53208,note_on,0,0,1,,,,,,,,0,,,77,0
53208,note_on,0,0,1,,,,,,,,0,,,80,0
53220,note_on,12,0,1,,,,,,,,0,,,73,64
53220,note_on,0,0,1,,,,,,,,0,,,76,64
53268,note_on,0,0,1,,,,,,,,0,,,73,0
53268,note_on,48,0,1,,,,,,,,0,,,76,0
53280,note_on,0,0,1,,,,,,,,0,,,74,63
53280,note_on,0,0,1,,,,,,,,0,,,77,63
53280,note_on,12,0,1,,,,,,,,0,,,80,63
53328,note_on,0,0,1,,,,,,,,0,,,77,0
53328,note_on,0,0,1,,,,,,,,0,,,80,0
53328,note_on,48,0,1,,,,,,,,0,,,74,0
53340,note_on,0,0,1,,,,,,,,0,,,76,63
53340,note_on,12,0,1,,,,,,,,0,,,73,63
53388,note_on,48,0,1,,,,,,,,0,,,76,0
53388,note_on,0,0,1,,,,,,,,0,,,73,0
53400,note_on,12,0,1,,,,,,,,0,,,80,63
53400,note_on,0,0,1,,,,,,,,0,,,74,63
53400,note_on,0,0,1,,,,,,,,0,,,77,63
53448,note_on,0,0,1,,,,,,,,0,,,74,0
53448,note_on,0,0,1,,,,,,,,0,,,80,0
53448,note_on,48,0,1,,,,,,,,0,,,77,0
53460,note_on,0,0,1,,,,,,,,0,,,76,61
53460,note_on,12,0,1,,,,,,,,0,,,73,61
53508,note_on,0,0,1,,,,,,,,0,,,73,0
53508,note_on,48,0,1,,,,,,,,0,,,76,0
53520,note_on,12,0,1,,,,,,,,0,,,74,61
53520,note_on,0,0,1,,,,,,,,0,,,77,61
53520,note_on,0,0,1,,,,,,,,0,,,80,61
53568,note_on,0,0,1,,,,,,,,0,,,77,0
53568,note_on,48,0,1,,,,,,,,0,,,80,0
53568,note_on,0,0,1,,,,,,,,0,,,74,0
53580,note_on,12,0,1,,,,,,,,0,,,76,61
53580,note_on,0,0,1,,,,,,,,0,,,73,61
53628,note_on,0,0,1,,,,,,,,0,,,76,0
53628,note_on,48,0,1,,,,,,,,0,,,73,0
53640,note_on,12,0,1,,,,,,,,0,,,77,60
53640,note_on,0,0,1,,,,,,,,0,,,80,60
53640,note_on,0,0,1,,,,,,,,0,,,74,60
53688,note_on,0,0,1,,,,,,,,0,,,77,0
53688,note_on,48,0,1,,,,,,,,0,,,74,0
53688,note_on,0,0,1,,,,,,,,0,,,80,0
53700,note_on,12,0,1,,,,,,,,0,,,76,60
53700,note_on,0,0,1,,,,,,,,0,,,73,60
53748,note_on,48,0,1,,,,,,,,0,,,73,0
53748,note_on,0,0,1,,,,,,,,0,,,76,0
53760,note_on,0,0,1,,,,,,,,0,,,74,60
53760,note_on,0,0,1,,,,,,,,0,,,77,60
53760,note_on,12,0,1,,,,,,,,0,,,80,60
53808,note_on,0,0,1,,,,,,,,0,,,74,0
53808,note_on,0,0,1,,,,,,,,0,,,80,0
53808,note_on,48,0,1,,,,,,,,0,,,77,0
53820,note_on,0,0,1,,,,,,,,0,,,76,58
53820,note_on,12,0,1,,,,,,,,0,,,73,58
53868,note_on,0,0,1,,,,,,,,0,,,73,0
53868,note_on,48,0,1,,,,,,,,0,,,76,0
53880,note_on,0,0,1,,,,,,,,0,,,80,58
53880,note_on,12,0,1,,,,,,,,0,,,74,58
53880,note_on,0,0,1,,,,,,,,0,,,77,58
53928,note_on,0,0,1,,,,,,,,0,,,74,0
53928,note_on,48,0,1,,,,,,,,0,,,77,0
53928,note_on,0,0,1,,,,,,,,0,,,80,0
53940,note_on,12,0,1,,,,,,,,0,,,73,58
53940,note_on,0,0,1,,,,,,,,0,,,76,58
53988,note_on,0,0,1,,,,,,,,0,,,73,0
53988,note_on,48,0,1,,,,,,,,0,,,76,0
54000,note_on,0,0,1,,,,,,,,0,,,77,57
54000,note_on,0,0,1,,,,,,,,0,,,74,57
54000,note_on,12,0,1,,,,,,,,0,,,80,57
54048,note_on,0,0,1,,,,,,,,0,,,80,0
54048,note_on,0,0,1,,,,,,,,0,,,77,0
54048,note_on,48,0,1,,,,,,,,0,,,74,0
54060,note_on,12,0,1,,,,,,,,0,,,78,68
54108,note_on,48,0,1,,,,,,,,0,,,78,0
54120,note_on,12,0,1,,,,,,,,0,,,77,68
54168,note_on,48,0,1,,,,,,,,0,,,77,0
54180,note_on,12,0,1,,,,,,,,0,,,78,68
54228,note_on,48,0,1,,,,,,,,0,,,78,0
54240,note_on,12,0,1,,,,,,,,0,,,77,69
54288,note_on,48,0,1,,,,,,,,0,,,77,0
54300,note_on,12,0,1,,,,,,,,0,,,78,70
54348,note_on,48,0,1,,,,,,,,0,,,78,0
54360,note_on,12,0,1,,,,,,,,0,,,77,71
54408,note_on,48,0,1,,,,,,,,0,,,77,0
54420,note_on,12,0,1,,,,,,,,0,,,78,72
54468,note_on,48,0,1,,,,,,,,0,,,78,0
54480,note_on,12,0,1,,,,,,,,0,,,77,72
54528,note_on,48,0,1,,,,,,,,0,,,77,0
54540,note_on,12,0,1,,,,,,,,0,,,78,72
54588,note_on,48,0,1,,,,,,,,0,,,78,0
54600,note_on,12,0,1,,,,,,,,0,,,77,73
54648,note_on,48,0,1,,,,,,,,0,,,77,0
54660,note_on,12,0,1,,,,,,,,0,,,78,74
54708,note_on,48,0,1,,,,,,,,0,,,78,0
54720,note_on,12,0,1,,,,,,,,0,,,77,75
54768,note_on,48,0,1,,,,,,,,0,,,77,0
54780,note_on,12,0,1,,,,,,,,0,,,78,76
54828,note_on,48,0,1,,,,,,,,0,,,78,0
54840,note_on,12,0,1,,,,,,,,0,,,77,76
54888,note_on,48,0,1,,,,,,,,0,,,77,0
54900,note_on,12,0,1,,,,,,,,0,,,78,76
54948,note_on,48,0,1,,,,,,,,0,,,78,0
54960,note_on,12,0,1,,,,,,,,0,,,77,77
55008,note_on,48,0,1,,,,,,,,0,,,77,0
55020,note_on,12,0,1,,,,,,,,0,,,78,78
55068,note_on,48,0,1,,,,,,,,0,,,78,0
55080,note_on,12,0,1,,,,,,,,0,,,77,79
55128,note_on,48,0,1,,,,,,,,0,,,77,0
55140,note_on,12,0,1,,,,,,,,0,,,78,80
55186,control_change,4354,0,4,,,,,,,,0,64,127,,
55188,note_on,48,0,1,,,,,,,,0,,,78,0
55200,note_on,0,0,2,,,,,,,,0,,,71,72
55200,note_on,12,0,1,,,,,,,,0,,,76,80
55200,note_on,4332,0,2,,,,,,,,0,,,68,72
55200,note_on,14,0,4,,,,,,,,0,,,62,72
55200,note_on,4332,0,3,,,,,,,,0,,,64,72
55248,note_on,48,0,1,,,,,,,,0,,,76,0
55260,note_on,12,0,1,,,,,,,,0,,,78,80
55296,note_on,0,0,2,,,,,,,,0,,,68,0
55296,note_on,96,0,2,,,,,,,,0,,,71,0
55308,note_on,48,0,1,,,,,,,,0,,,78,0
55320,note_on,24,0,2,,,,,,,,0,,,68,72
55320,note_on,0,0,2,,,,,,,,0,,,71,72
55320,note_on,12,0,1,,,,,,,,0,,,76,80
55368,note_on,48,0,1,,,,,,,,0,,,76,0
55380,note_on,12,0,1,,,,,,,,0,,,78,80
55392,note_on,192,0,4,,,,,,,,0,,,62,0
55416,note_on,96,0,2,,,,,,,,0,,,71,0
55416,note_on,0,0,2,,,,,,,,0,,,68,0
55428,note_on,48,0,1,,,,,,,,0,,,78,0
55440,note_on,24,0,2,,,,,,,,0,,,69,72
55440,note_on,0,0,2,,,,,,,,0,,,73,72
55440,note_on,12,0,1,,,,,,,,0,,,76,80
55440,note_on,48,0,4,,,,,,,,0,,,61,72
55442,control_change,2,0,4,,,,,,,,0,64,0,,
55461,control_change,19,0,4,,,,,,,,0,64,127,,
55488,note_on,48,0,1,,,,,,,,0,,,76,0
55500,note_on,12,0,1,,,,,,,,0,,,78,80
55536,note_on,0,0,2,,,,,,,,0,,,69,0
55536,note_on,96,0,2,,,,,,,,0,,,73,0
55548,note_on,48,0,1,,,,,,,,0,,,78,0
55560,note_on,24,0,2,,,,,,,,0,,,69,72
55560,note_on,0,0,2,,,,,,,,0,,,73,72
55560,note_on,12,0,1,,,,,,,,0,,,76,80
55584,note_on,384,0,3,,,,,,,,0,,,64,0
55608,note_on,48,0,1,,,,,,,,0,,,76,0
55620,note_on,12,0,1,,,,,,,,0,,,78,80
55632,note_on,171,0,4,,,,,,,,0,,,61,0
55656,note_on,96,0,2,,,,,,,,0,,,73,0
55656,note_on,0,0,2,,,,,,,,0,,,69,0
55668,note_on,48,0,1,,,,,,,,0,,,78,0
55678,control_change,46,0,4,,,,,,,,0,64,0,,
55680,note_on,12,0,1,,,,,,,,0,,,76,80
55680,note_on,2,0,4,,,,,,,,0,,,56,72
55680,note_on,0,0,2,,,,,,,,0,,,74,72
55680,note_on,24,0,2,,,,,,,,0,,,71,72
55680,note_on,96,0,3,,,,,,,,0,,,64,72
55689,control_change,9,0,4,,,,,,,,0,64,127,,
55728,note_on,48,0,1,,,,,,,,0,,,76,0
55740,note_on,12,0,1,,,,,,,,0,,,78,80
55776,note_on,96,0,2,,,,,,,,0,,,74,0
55776,note_on,0,0,2,,,,,,,,0,,,71,0
55788,note_on,48,0,1,,,,,,,,0,,,78,0
55800,note_on,0,0,2,,,,,,,,0,,,71,72
55800,note_on,24,0,2,,,,,,,,0,,,74,72
55800,note_on,12,0,1,,,,,,,,0,,,76,80
55848,note_on,48,0,1,,,,,,,,0,,,76,0
55860,note_on,12,0,1,,,,,,,,0,,,78,80
55872,note_on,183,0,4,,,,,,,,0,,,56,0
55896,note_on,96,0,2,,,,,,,,0,,,71,0
55896,note_on,0,0,2,,,,,,,,0,,,74,0
55908,note_on,48,0,1,,,,,,,,0,,,78,0
55920,note_on,24,0,2,,,,,,,,0,,,73,72
55920,control_change,0,0,4,,,,,,,,0,64,0,,
55920,note_on,48,0,4,,,,,,,,0,,,57,72
55920,note_on,0,0,2,,,,,,,,0,,,76,72
55934,control_change,14,0,4,,,,,,,,0,64,127,,
55968,note_on,0,0,2,,,,,,,,0,,,73,0
55968,note_on,48,0,2,,,,,,,,0,,,76,0
55980,note_on,12,0,2,,,,,,,,0,,,78,72
56028,note_on,48,0,2,,,,,,,,0,,,78,0
56040,note_on,12,0,2,,,,,,,,0,,,76,72
56040,note_on,132,0,1,,,,,,,,0,,,85,80
56088,note_on,48,0,2,,,,,,,,0,,,76,0
56088,note_on,48,0,1,,,,,,,,0,,,85,0
56100,note_on,0,0,2,,,,,,,,0,,,78,72
56100,note_on,12,0,2,,,,,,,,0,,,73,72
56112,note_on,432,0,3,,,,,,,,0,,,64,0
56112,note_on,178,0,4,,,,,,,,0,,,57,0
56148,note_on,0,0,2,,,,,,,,0,,,73,0
56148,note_on,48,0,2,,,,,,,,0,,,78,0
56160,note_on,48,0,4,,,,,,,,0,,,57,80
56160,note_on,12,0,2,,,,,,,,0,,,76,72
56160,note_on,0,0,4,,,,,,,,0,,,52,80
56160,note_on,0,0,4,,,,,,,,0,,,64,80
56160,control_change,0,0,4,,,,,,,,0,64,0,,
56160,note_on,72,0,1,,,,,,,,0,,,83,80
56174,control_change,14,0,4,,,,,,,,0,64,127,,
56208,note_on,48,0,2,,,,,,,,0,,,76,0
56208,note_on,48,0,1,,,,,,,,0,,,83,0
56220,note_on,0,0,2,,,,,,,,0,,,78,72
56220,note_on,12,0,2,,,,,,,,0,,,73,72
56268,note_on,48,0,2,,,,,,,,0,,,78,0
56268,note_on,0,0,2,,,,,,,,0,,,73,0
56280,note_on,72,0,1,,,,,,,,0,,,81,80
56280,note_on,12,0,2,,,,,,,,0,,,76,72
56328,note_on,48,0,1,,,,,,,,0,,,81,0
56328,note_on,48,0,2,,,,,,,,0,,,76,0
56340,note_on,0,0,2,,,,,,,,0,,,78,72
56340,note_on,12,0,2,,,,,,,,0,,,73,72
56352,note_on,0,0,4,,,,,,,,0,,,52,0
56352,note_on,178,0,4,,,,,,,,0,,,64,0
56352,note_on,0,0,4,,,,,,,,0,,,57,0
56388,note_on,0,0,2,,,,,,,,0,,,73,0
56388,note_on,48,0,2,,,,,,,,0,,,78,0
56400,note_on,72,0,1,,,,,,,,0,,,81,80
56400,note_on,12,0,2,,,,,,,,0,,,74,72
56400,note_on,0,0,4,,,,,,,,0,,,52,76
56400,note_on,0,0,4,,,,,,,,0,,,64,76
56400,note_on,48,0,4,,,,,,,,0,,,59,76
56402,control_change,2,0,4,,,,,,,,0,64,0,,
56421,control_change,19,0,4,,,,,,,,0,64,127,,
56448,note_on,48,0,1,,,,,,,,0,,,81,0
56448,note_on,48,0,2,,,,,,,,0,,,74,0
56460,note_on,0,0,2,,,,,,,,0,,,76,72
56460,note_on,12,0,2,,,,,,,,0,,,71,72
56508,note_on,48,0,2,,,,,,,,0,,,76,0
56508,note_on,0,0,2,,,,,,,,0,,,71,0
56520,note_on,72,0,1,,,,,,,,0,,,80,80
56520,note_on,12,0,2,,,,,,,,0,,,74,72
56568,note_on,48,0,2,,,,,,,,0,,,74,0
56568,note_on,48,0,1,,,,,,,,0,,,80,0
56580,note_on,0,0,2,,,,,,,,0,,,71,72
56580,note_on,12,0,2,,,,,,,,0,,,76,72
56592,note_on,0,0,4,,,,,,,,0,,,59,0
56592,note_on,0,0,4,,,,,,,,0,,,52,0
56592,note_on,171,0,4,,,,,,,,0,,,64,0
56628,note_on,48,0,2,,,,,,,,0,,,71,0
56628,note_on,0,0,2,,,,,,,,0,,,76,0
56634,control_change,42,0,4,,,,,,,,0,64,0,,
56640,note_on,0,0,4,,,,,,,,0,,,64,72
56640,note_on,6,0,4,,,,,,,,0,,,56,72
56640,note_on,12,0,2,,,,,,,,0,,,74,72
56640,note_on,72,0,1,,,,,,,,0,,,79,80
56650,control_change,10,0,4,,,,,,,,0,64,127,,
56688,note_on,48,0,2,,,,,,,,0,,,74,0
56688,note_on,48,0,1,,,,,,,,0,,,79,0
56700,note_on,12,0,1,,,,,,,,0,,,78,80
56700,note_on,12,0,2,,,,,,,,0,,,71,72
56748,note_on,48,0,1,,,,,,,,0,,,78,0
56748,note_on,48,0,2,,,,,,,,0,,,71,0
56760,note_on,12,0,2,,,,,,,,0,,,74,72
56760,note_on,12,0,1,,,,,,,,0,,,77,80
56808,note_on,48,0,2,,,,,,,,0,,,74,0
56820,note_on,12,0,2,,,,,,,,0,,,71,72
56832,note_on,182,0,4,,,,,,,,0,,,56,0
56856,note_on,96,0,1,,,,,,,,0,,,77,0
56868,note_on,48,0,2,,,,,,,,0,,,71,0
56880,note_on,0,0,1,,,,,,,,0,,,76,80
56880,control_change,48,0,4,,,,,,,,0,64,0,,
56880,note_on,24,0,1,,,,,,,,0,,,73,80
56880,note_on,0,0,4,,,,,,,,0,,,57,68
56901,control_change,21,0,4,,,,,,,,0,64,127,,
56928,note_on,0,0,1,,,,,,,,0,,,73,0
56928,note_on,48,0,1,,,,,,,,0,,,76,0
56940,note_on,12,0,1,,,,,,,,0,,,69,80
56988,note_on,48,0,1,,,,,,,,0,,,69,0
57000,note_on,12,0,1,,,,,,,,0,,,73,80
57048,note_on,48,0,1,,,,,,,,0,,,73,0
57060,note_on,12,0,1,,,,,,,,0,,,78,80
57072,note_on,0,0,4,,,,,,,,0,,,64,0
57072,note_on,171,0,4,,,,,,,,0,,,57,0
57108,note_on,48,0,1,,,,,,,,0,,,78,0
57120,note_on,252,0,2,,,,,,,,0,,,71,68
57120,note_on,0,0,2,,,,,,,,0,,,68,68
57120,note_on,48,0,4,,,,,,,,0,,,62,80
57120,note_on,1008,0,3,,,,,,,,0,,,64,80
57120,note_on,12,0,1,,,,,,,,0,,,76,80
57122,control_change,2,0,4,,,,,,,,0,64,0,,
57139,control_change,17,0,4,,,,,,,,0,64,127,,
57168,note_on,48,0,1,,,,,,,,0,,,76,0
57180,note_on,12,0,1,,,,,,,,0,,,78,80
57216,note_on,0,0,2,,,,,,,,0,,,71,0
57216,note_on,96,0,2,,,,,,,,0,,,68,0
57228,note_on,48,0,1,,,,,,,,0,,,78,0
57240,note_on,24,0,2,,,,,,,,0,,,71,68
57240,note_on,0,0,2,,,,,,,,0,,,68,68
57240,note_on,12,0,1,,,,,,,,0,,,76,80
57288,note_on,48,0,1,,,,,,,,0,,,76,0
57300,note_on,12,0,1,,,,,,,,0,,,78,80
57312,note_on,173,0,4,,,,,,,,0,,,62,0
57336,note_on,96,0,2,,,,,,,,0,,,68,0
57336,note_on,0,0,2,,,,,,,,0,,,71,0
57348,note_on,48,0,1,,,,,,,,0,,,78,0
57360,note_on,48,0,4,,,,,,,,0,,,61,80
57360,note_on,24,0,2,,,,,,,,0,,,69,68
57360,note_on,0,0,2,,,,,,,,0,,,73,68
57360,note_on,12,0,1,,,,,,,,0,,,76,80
57366,control_change,6,0,4,,,,,,,,0,64,0,,
57391,control_change,25,0,4,,,,,,,,0,64,127,,
57408,note_on,48,0,1,,,,,,,,0,,,76,0
57420,note_on,12,0,1,,,,,,,,0,,,78,80
57456,note_on,0,0,2,,,,,,,,0,,,69,0
57456,note_on,96,0,2,,,,,,,,0,,,73,0
57468,note_on,48,0,1,,,,,,,,0,,,78,0
57480,note_on,12,0,1,,,,,,,,0,,,76,80
57480,note_on,0,0,2,,,,,,,,0,,,69,68
57480,note_on,24,0,2,,,,,,,,0,,,73,68
57504,note_on,384,0,3,,,,,,,,0,,,64,0
57528,note_on,48,0,1,,,,,,,,0,,,76,0
57540,note_on,12,0,1,,,,,,,,0,,,78,80
57552,note_on,161,0,4,,,,,,,,0,,,61,0
57576,note_on,0,0,2,,,,,,,,0,,,73,0
57576,note_on,96,0,2,,,,,,,,0,,,69,0
57588,note_on,48,0,1,,,,,,,,0,,,78,0
57596,control_change,44,0,4,,,,,,,,0,64,0,,
57600,note_on,0,0,2,,,,,,,,0,,,71,68
57600,note_on,24,0,2,,,,,,,,0,,,74,68
57600,note_on,4,0,4,,,,,,,,0,,,56,80
57600,note_on,96,0,3,,,,,,,,0,,,64,80
57600,note_on,12,0,1,,,,,,,,0,,,76,80
57631,control_change,31,0,4,,,,,,,,0,64,127,,
57648,note_on,48,0,1,,,,,,,,0,,,76,0
57660,note_on,12,0,1,,,,,,,,0,,,78,80
57696,note_on,0,0,2,,,,,,,,0,,,74,0
57696,note_on,96,0,2,,,,,,,,0,,,71,0
57708,note_on,48,0,1,,,,,,,,0,,,78,0
57720,note_on,24,0,2,,,,,,,,0,,,74,68
57720,note_on,0,0,2,,,,,,,,0,,,71,68
57720,note_on,12,0,1,,,,,,,,0,,,76,80
57768,note_on,48,0,1,,,,,,,,0,,,76,0
57780,note_on,12,0,1,,,,,,,,0,,,78,80
57792,note_on,161,0,4,,,,,,,,0,,,56,0
57816,note_on,0,0,2,,,,,,,,0,,,74,0
57816,note_on,96,0,2,,,,,,,,0,,,71,0
57828,note_on,48,0,1,,,,,,,,0,,,78,0
57840,note_on,0,0,2,,,,,,,,0,,,73,68
57840,control_change,0,0,4,,,,,,,,0,64,0,,
57840,note_on,48,0,4,,,,,,,,0,,,57,80
57840,note_on,24,0,2,,,,,,,,0,,,76,68
57867,control_change,27,0,4,,,,,,,,0,64,127,,
57888,note_on,48,0,2,,,,,,,,0,,,73,0
57888,note_on,0,0,2,,,,,,,,0,,,76,0
57900,note_on,12,0,2,,,,,,,,0,,,78,68
57948,note_on,48,0,2,,,,,,,,0,,,78,0
57960,note_on,12,0,2,,,,,,,,0,,,76,68
57960,note_on,132,0,1,,,,,,,,0,,,85,80
58008,note_on,48,0,2,,,,,,,,0,,,76,0
58008,note_on,48,0,1,,,,,,,,0,,,85,0
58020,note_on,12,0,2,,,,,,,,0,,,73,68
58020,note_on,0,0,2,,,,,,,,0,,,78,68
58032,note_on,165,0,4,,,,,,,,0,,,57,0
58032,note_on,432,0,3,,,,,,,,0,,,64,0
58068,note_on,0,0,2,,,,,,,,0,,,73,0
58068,note_on,48,0,2,,,,,,,,0,,,78,0
58080,note_on,12,0,2,,,,,,,,0,,,76,68
58080,note_on,0,0,4,,,,,,,,0,,,52,80
58080,note_on,0,0,4,,,,,,,,0,,,64,80
58080,note_on,48,0,4,,,,,,,,0,,,57,80
58080,note_on,72,0,1,,,,,,,,0,,,83,80
58082,control_change,2,0,4,,,,,,,,0,64,0,,
58103,control_change,21,0,4,,,,,,,,0,64,127,,
58128,note_on,48,0,1,,,,,,,,0,,,83,0
58128,note_on,48,0,2,,,,,,,,0,,,76,0
58140,note_on,0,0,2,,,,,,,,0,,,73,68
58140,note_on,12,0,2,,,,,,,,0,,,78,68
58188,note_on,0,0,2,,,,,,,,0,,,78,0
58188,note_on,48,0,2,,,,,,,,0,,,73,0
58200,note_on,72,0,1,,,,,,,,0,,,81,80
58200,note_on,12,0,2,,,,,,,,0,,,76,68
58248,note_on,48,0,2,,,,,,,,0,,,76,0
58248,note_on,48,0,1,,,,,,,,0,,,81,0
58260,note_on,0,0,2,,,,,,,,0,,,73,68
58260,note_on,12,0,2,,,,,,,,0,,,78,68
58272,note_on,169,0,4,,,,,,,,0,,,64,0
58272,note_on,0,0,4,,,,,,,,0,,,57,0
58272,note_on,0,0,4,,,,,,,,0,,,52,0
58308,note_on,0,0,2,,,,,,,,0,,,78,0
58308,note_on,48,0,2,,,,,,,,0,,,73,0
58318,control_change,46,0,4,,,,,,,,0,64,0,,
58320,note_on,2,0,4,,,,,,,,0,,,59,80
58320,note_on,12,0,2,,,,,,,,0,,,74,68
58320,note_on,0,0,4,,,,,,,,0,,,64,80
58320,note_on,72,0,1,,,,,,,,0,,,81,80
58320,note_on,0,0,4,,,,,,,,0,,,52,80
58334,control_change,14,0,4,,,,,,,,0,64,127,,
58368,note_on,48,0,1,,,,,,,,0,,,81,0
58368,note_on,48,0,2,,,,,,,,0,,,74,0
58380,note_on,0,0,2,,,,,,,,0,,,71,68
58380,note_on,12,0,2,,,,,,,,0,,,76,68
58428,note_on,0,0,2,,,,,,,,0,,,76,0
58428,note_on,48,0,2,,,,,,,,0,,,71,0
58440,note_on,72,0,1,,,,,,,,0,,,80,80
58440,note_on,12,0,2,,,,,,,,0,,,74,68
58488,note_on,48,0,1,,,,,,,,0,,,80,0
58488,note_on,48,0,2,,,,,,,,0,,,74,0
58500,note_on,0,0,2,,,,,,,,0,,,76,68
58500,note_on,12,0,2,,,,,,,,0,,,71,68
58512,note_on,0,0,4,,,,,,,,0,,,64,0
58512,note_on,0,0,4,,,,,,,,0,,,59,0
58512,note_on,178,0,4,,,,,,,,0,,,52,0
58548,note_on,48,0,2,,,,,,,,0,,,76,0
58548,note_on,0,0,2,,,,,,,,0,,,71,0
58560,note_on,0,0,4,,,,,,,,0,,,56,80
58560,note_on,12,0,2,,,,,,,,0,,,74,68
58560,note_on,72,0,1,,,,,,,,0,,,79,80
58560,note_on,48,0,4,,,,,,,,0,,,64,80
58562,control_change,2,0,4,,,,,,,,0,64,0,,
58579,control_change,17,0,4,,,,,,,,0,64,127,,
58608,note_on,48,0,2,,,,,,,,0,,,74,0
58608,note_on,48,0,1,,,,,,,,0,,,79,0
58620,note_on,12,0,1,,,,,,,,0,,,78,80
58620,note_on,12,0,2,,,,,,,,0,,,71,68
58668,note_on,48,0,1,,,,,,,,0,,,78,0
58668,note_on,48,0,2,,,,,,,,0,,,71,0
58680,note_on,12,0,2,,,,,,,,0,,,74,68
58680,note_on,12,0,1,,,,,,,,0,,,77,80
58728,note_on,48,0,2,,,,,,,,0,,,74,0
58740,note_on,12,0,2,,,,,,,,0,,,71,68
58752,note_on,0,0,4,,,,,,,,0,,,64,0
58752,note_on,173,0,4,,,,,,,,0,,,56,0
58776,note_on,96,0,1,,,,,,,,0,,,77,0
58788,note_on,48,0,2,,,,,,,,0,,,71,0
58800,note_on,0,0,1,,,,,,,,0,,,76,80
58800,note_on,24,0,1,,,,,,,,0,,,73,80
58800,control_change,0,0,4,,,,,,,,0,64,0,,
58800,note_on,48,0,4,,,,,,,,0,,,57,80
58819,control_change,19,0,4,,,,,,,,0,64,127,,
58848,note_on,0,0,1,,,,,,,,0,,,73,0
58848,note_on,48,0,1,,,,,,,,0,,,76,0
58860,note_on,12,0,1,,,,,,,,0,,,69,80
58908,note_on,48,0,1,,,,,,,,0,,,69,0
58920,note_on,12,0,1,,,,,,,,0,,,73,80
58968,note_on,48,0,1,,,,,,,,0,,,73,0
58980,note_on,12,0,1,,,,,,,,0,,,80,80
58992,note_on,173,0,4,,,,,,,,0,,,57,0
59028,note_on,48,0,1,,,,,,,,0,,,80,0
59040,note_on,48,0,4,,,,,,,,0,,,67,80
59040,note_on,252,0,2,,,,,,,,0,,,73,68
59040,note_on,0,0,2,,,,,,,,0,,,76,68
59040,note_on,1008,0,3,,,,,,,,0,,,69,80
59040,note_on,12,0,1,,,,,,,,0,,,81,80
59044,control_change,4,0,4,,,,,,,,0,64,0,,
59061,control_change,17,0,4,,,,,,,,0,64,127,,
59088,note_on,48,0,1,,,,,,,,0,,,81,0
59100,note_on,12,0,1,,,,,,,,0,,,82,80
59136,note_on,0,0,2,,,,,,,,0,,,73,0
59136,note_on,96,0,2,,,,,,,,0,,,76,0
59148,note_on,48,0,1,,,,,,,,0,,,82,0
59160,note_on,24,0,2,,,,,,,,0,,,76,68
59160,note_on,0,0,2,,,,,,,,0,,,73,68
59160,note_on,12,0,1,,,,,,,,0,,,81,80
59208,note_on,48,0,1,,,,,,,,0,,,81,0
59220,note_on,12,0,1,,,,,,,,0,,,82,80
59232,note_on,171,0,4,,,,,,,,0,,,67,0
59256,note_on,0,0,2,,,,,,,,0,,,76,0
59256,note_on,96,0,2,,,,,,,,0,,,73,0
59268,note_on,48,0,1,,,,,,,,0,,,82,0
59280,note_on,48,0,4,,,,,,,,0,,,65,80
59280,note_on,12,0,1,,,,,,,,0,,,81,80
59280,note_on,0,0,2,,,,,,,,0,,,77,68
59280,note_on,24,0,2,,,,,,,,0,,,74,68
59284,control_change,4,0,4,,,,,,,,0,64,0,,
59305,control_change,21,0,4,,,,,,,,0,64,127,,
59328,note_on,48,0,1,,,,,,,,0,,,81,0
59340,note_on,12,0,1,,,,,,,,0,,,82,80
59376,note_on,96,0,2,,,,,,,,0,,,77,0
59376,note_on,0,0,2,,,,,,,,0,,,74,0
59388,note_on,48,0,1,,,,,,,,0,,,82,0
59400,note_on,12,0,1,,,,,,,,0,,,81,80
59400,note_on,0,0,2,,,,,,,,0,,,77,68
59400,note_on,24,0,2,,,,,,,,0,,,74,68
59424,note_on,384,0,3,,,,,,,,0,,,69,0
59448,note_on,48,0,1,,,,,,,,0,,,81,0
59460,note_on,12,0,1,,,,,,,,0,,,82,80
59472,note_on,167,0,4,,,,,,,,0,,,65,0
59496,note_on,96,0,2,,,,,,,,0,,,77,0
59496,note_on,0,0,2,,,,,,,,0,,,74,0
59508,note_on,48,0,1,,,,,,,,0,,,82,0
59520,note_on,96,0,3,,,,,,,,0,,,69,80
59520,note_on,24,0,2,,,,,,,,0,,,76,68
59520,note_on,0,0,2,,,,,,,,0,,,79,68
59520,note_on,48,0,4,,,,,,,,0,,,61,80
59520,note_on,12,0,1,,,,,,,,0,,,81,80
59524,control_change,4,0,4,,,,,,,,0,64,0,,
59553,control_change,29,0,4,,,,,,,,0,64,127,,
59568,note_on,48,0,1,,,,,,,,0,,,81,0
59580,note_on,12,0,1,,,,,,,,0,,,82,80
59616,note_on,0,0,2,,,,,,,,0,,,76,0
59616,note_on,96,0,2,,,,,,,,0,,,79,0
59628,note_on,48,0,1,,,,,,,,0,,,82,0
59640,note_on,24,0,2,,,,,,,,0,,,76,68
59640,note_on,12,0,1,,,,,,,,0,,,81,80
59640,note_on,0,0,2,,,,,,,,0,,,79,68
59688,note_on,48,0,1,,,,,,,,0,,,81,0
59700,note_on,12,0,1,,,,,,,,0,,,82,80
59712,note_on,159,0,4,,,,,,,,0,,,61,0
59736,note_on,0,0,2,,,,,,,,0,,,76,0
59736,note_on,96,0,2,,,,,,,,0,,,79,0
59748,note_on,48,0,1,,,,,,,,0,,,82,0
59760,note_on,0,0,4,,,,,,,,0,,,62,80
59760,note_on,0,0,2,,,,,,,,0,,,77,68
59760,control_change,48,0,4,,,,,,,,0,64,0,,
59760,note_on,24,0,2,,,,,,,,0,,,81,68
59802,control_change,42,0,4,,,,,,,,0,64,127,,
59808,note_on,0,0,2,,,,,,,,0,,,81,0
59808,note_on,48,0,2,,,,,,,,0,,,77,0
59820,note_on,12,0,2,,,,,,,,0,,,82,68
59868,note_on,48,0,2,,,,,,,,0,,,82,0
59880,note_on,12,0,2,,,,,,,,0,,,81,68
59880,note_on,132,0,1,,,,,,,,0,,,89,80
59928,note_on,48,0,2,,,,,,,,0,,,81,0
59928,note_on,48,0,1,,,,,,,,0,,,89,0
59940,note_on,12,0,2,,,,,,,,0,,,77,68
59940,note_on,0,0,2,,,,,,,,0,,,82,68
59952,note_on,150,0,4,,,,,,,,0,,,62,0
59952,note_on,432,0,3,,,,,,,,0,,,69,0
59988,note_on,48,0,2,,,,,,,,0,,,82,0
59988,note_on,0,0,2,,,,,,,,0,,,77,0
60000,note_on,12,0,2,,,,,,,,0,,,81,68
60000,note_on,72,0,1,,,,,,,,0,,,88,80
60000,note_on,0,0,4,,,,,,,,0,,,69,80
60000,note_on,0,0,4,,,,,,,,0,,,57,80
60000,note_on,48,0,4,,,,,,,,0,,,62,80
60007,control_change,7,0,4,,,,,,,,0,64,0,,
60032,control_change,25,0,4,,,,,,,,0,64,127,,
60048,note_on,48,0,2,,,,,,,,0,,,81,0
60048,note_on,48,0,1,,,,,,,,0,,,88,0
60060,note_on,0,0,2,,,,,,,,0,,,82,68
60060,note_on,12,0,2,,,,,,,,0,,,77,68
60108,note_on,48,0,2,,,,,,,,0,,,82,0
60108,note_on,0,0,2,,,,,,,,0,,,77,0
60120,note_on,12,0,2,,,,,,,,0,,,81,68
60120,note_on,72,0,1,,,,,,,,0,,,86,80
60168,note_on,48,0,2,,,,,,,,0,,,81,0
60168,note_on,48,0,1,,,,,,,,0,,,86,0
60180,note_on,0,0,2,,,,,,,,0,,,82,68
60180,note_on,12,0,2,,,,,,,,0,,,77,68
60192,note_on,0,0,4,,,,,,,,0,,,62,0
60192,note_on,0,0,4,,,,,,,,0,,,57,0
60192,note_on,160,0,4,,,,,,,,0,,,69,0
60228,note_on,48,0,2,,,,,,,,0,,,82,0
60228,note_on,0,0,2,,,,,,,,0,,,77,0
60240,note_on,0,0,4,,,,,,,,0,,,57,80
60240,note_on,72,0,1,,,,,,,,0,,,86,80
60240,note_on,48,0,4,,,,,,,,0,,,64,80
60240,note_on,0,0,4,,,,,,,,0,,,69,80
60240,note_on,12,0,2,,,,,,,,0,,,79,68
60244,control_change,4,0,4,,,,,,,,0,64,0,,
60272,control_change,28,0,4,,,,,,,,0,64,127,,
60288,note_on,48,0,2,,,,,,,,0,,,79,0
60288,note_on,48,0,1,,,,,,,,0,,,86,0
60300,note_on,12,0,2,,,,,,,,0,,,76,68
60300,note_on,0,0,2,,,,,,,,0,,,81,68
60348,note_on,0,0,2,,,,,,,,0,,,76,0
60348,note_on,48,0,2,,,,,,,,0,,,81,0
60360,note_on,12,0,2,,,,,,,,0,,,79,68
60360,note_on,72,0,1,,,,,,,,0,,,85,80
60408,note_on,48,0,2,,,,,,,,0,,,79,0
60408,note_on,48,0,1,,,,,,,,0,,,85,0
60420,note_on,12,0,2,,,,,,,,0,,,76,68
60420,note_on,0,0,2,,,,,,,,0,,,81,68
60432,note_on,0,0,4,,,,,,,,0,,,64,0
60432,note_on,0,0,4,,,,,,,,0,,,69,0
60432,note_on,160,0,4,,,,,,,,0,,,57,0
60468,note_on,48,0,2,,,,,,,,0,,,81,0
60468,note_on,0,0,2,,,,,,,,0,,,76,0
60480,note_on,72,0,1,,,,,,,,0,,,84,80
60480,note_on,48,0,4,,,,,,,,0,,,61,80
60480,note_on,0,0,4,,,,,,,,0,,,69,80
60480,note_on,12,0,2,,,,,,,,0,,,79,68
60484,control_change,4,0,4,,,,,,,,0,64,0,,
60512,control_change,28,0,4,,,,,,,,0,64,127,,
60528,note_on,48,0,2,,,,,,,,0,,,79,0
60528,note_on,48,0,1,,,,,,,,0,,,84,0
60540,note_on,12,0,1,,,,,,,,0,,,83,80
60540,note_on,12,0,2,,,,,,,,0,,,76,68
60588,note_on,48,0,1,,,,,,,,0,,,83,0
60588,note_on,48,0,2,,,,,,,,0,,,76,0
60600,note_on,12,0,2,,,,,,,,0,,,79,68
60600,note_on,12,0,1,,,,,,,,0,,,82,80
60648,note_on,48,0,1,,,,,,,,0,,,82,0
60648,note_on,48,0,2,,,,,,,,0,,,79,0
60660,note_on,12,0,2,,,,,,,,0,,,76,68
60672,note_on,160,0,4,,,,,,,,0,,,69,0
60672,note_on,0,0,4,,,,,,,,0,,,61,0
60708,note_on,48,0,2,,,,,,,,0,,,76,0
60720,control_change,48,0,4,,,,,,,,0,64,0,,
60720,note_on,0,0,1,,,,,,,,0,,,77,80
60720,note_on,72,0,1,,,,,,,,0,,,81,80
60720,note_on,0,0,4,,,,,,,,0,,,62,80
60748,control_change,28,0,4,,,,,,,,0,64,127,,
60768,note_on,48,0,1,,,,,,,,0,,,77,0
60768,note_on,0,0,1,,,,,,,,0,,,81,0
60780,note_on,12,0,1,,,,,,,,0,,,74,80
60828,note_on,48,0,1,,,,,,,,0,,,74,0
60840,note_on,12,0,1,,,,,,,,0,,,77,80
60888,note_on,48,0,1,,,,,,,,0,,,77,0
60900,note_on,12,0,1,,,,,,,,0,,,82,80
60912,note_on,164,0,4,,,,,,,,0,,,62,0
60948,note_on,48,0,1,,,,,,,,0,,,82,0
60960,note_on,12,0,1,,,,,,,,0,,,81,80
60960,note_on,252,0,2,,,,,,,,0,,,73,68
60960,note_on,1008,0,3,,,,,,,,0,,,69,80
60960,note_on,48,0,4,,,,,,,,0,,,67,80
60960,note_on,0,0,2,,,,,,,,0,,,76,68
60962,control_change,2,0,4,,,,,,,,0,64,0,,
60983,control_change,21,0,4,,,,,,,,0,64,127,,
61008,note_on,48,0,1,,,,,,,,0,,,81,0
61020,note_on,12,0,1,,,,,,,,0,,,82,80
61056,note_on,96,0,2,,,,,,,,0,,,76,0
61056,note_on,0,0,2,,,,,,,,0,,,73,0
61068,note_on,48,0,1,,,,,,,,0,,,82,0
61080,note_on,12,0,1,,,,,,,,0,,,81,80
61080,note_on,24,0,2,,,,,,,,0,,,73,68
61080,note_on,0,0,2,,,,,,,,0,,,76,68
61128,note_on,48,0,1,,,,,,,,0,,,81,0
61140,note_on,12,0,1,,,,,,,,0,,,82,80
61152,note_on,169,0,4,,,,,,,,0,,,67,0
61176,note_on,0,0,2,,,,,,,,0,,,73,0
61176,note_on,96,0,2,,,,,,,,0,,,76,0
61188,note_on,48,0,1,,,,,,,,0,,,82,0
61200,note_on,0,0,2,,,,,,,,0,,,77,68
61200,note_on,48,0,4,,,,,,,,0,,,65,80
61200,note_on,12,0,1,,,,,,,,0,,,81,80
61200,note_on,24,0,2,,,,,,,,0,,,74,68
61207,control_change,7,0,4,,,,,,,,0,64,0,,
61232,control_change,25,0,4,,,,,,,,0,64,127,,
61248,note_on,48,0,1,,,,,,,,0,,,81,0
61260,note_on,12,0,1,,,,,,,,0,,,82,80
61296,note_on,96,0,2,,,,,,,,0,,,77,0
61296,note_on,0,0,2,,,,,,,,0,,,74,0
61308,note_on,48,0,1,,,,,,,,0,,,82,0
61320,note_on,24,0,2,,,,,,,,0,,,74,68
61320,note_on,12,0,1,,,,,,,,0,,,81,80
61320,note_on,0,0,2,,,,,,,,0,,,77,68
61344,note_on,384,0,3,,,,,,,,0,,,69,0
61368,note_on,48,0,1,,,,,,,,0,,,81,0
61380,note_on,12,0,1,,,,,,,,0,,,82,80
61392,note_on,160,0,4,,,,,,,,0,,,65,0
61416,note_on,96,0,2,,,,,,,,0,,,77,0
61416,note_on,0,0,2,,,,,,,,0,,,74,0
61428,note_on,48,0,1,,,,,,,,0,,,82,0
61440,note_on,0,0,2,,,,,,,,0,,,79,68
61440,note_on,12,0,1,,,,,,,,0,,,81,80
61440,note_on,48,0,4,,,,,,,,0,,,61,80
61440,note_on,96,0,3,,,,,,,,0,,,69,80
61440,note_on,24,0,2,,,,,,,,0,,,76,68
61445,control_change,5,0,4,,,,,,,,0,64,0,,
61463,control_change,18,0,4,,,,,,,,0,64,127,,
61488,note_on,48,0,1,,,,,,,,0,,,81,0
61500,note_on,12,0,1,,,,,,,,0,,,82,80
61536,note_on,96,0,2,,,,,,,,0,,,79,0
61536,note_on,0,0,2,,,,,,,,0,,,76,0
61548,note_on,48,0,1,,,,,,,,0,,,82,0
61560,note_on,0,0,2,,,,,,,,0,,,79,68
61560,note_on,12,0,1,,,,,,,,0,,,81,80
61560,note_on,24,0,2,,,,,,,,0,,,76,68
61608,note_on,48,0,1,,,,,,,,0,,,81,0
61620,note_on,12,0,1,,,,,,,,0,,,82,80
61632,note_on,169,0,4,,,,,,,,0,,,61,0
61656,note_on,0,0,2,,,,,,,,0,,,76,0
61656,note_on,96,0,2,,,,,,,,0,,,79,0
61668,note_on,48,0,1,,,,,,,,0,,,82,0
61680,note_on,0,0,2,,,,,,,,0,,,77,68
61680,note_on,24,0,2,,,,,,,,0,,,81,68
61680,note_on,0,0,4,,,,,,,,0,,,62,80
61680,control_change,48,0,4,,,,,,,,0,64,0,,
61715,control_change,35,0,4,,,,,,,,0,64,127,,
61728,note_on,0,0,2,,,,,,,,0,,,81,0
61728,note_on,48,0,2,,,,,,,,0,,,77,0
61740,note_on,12,0,2,,,,,,,,0,,,82,68
61788,note_on,48,0,2,,,,,,,,0,,,82,0
61800,note_on,132,0,1,,,,,,,,0,,,89,80
61800,note_on,12,0,2,,,,,,,,0,,,81,68
61848,note_on,48,0,2,,,,,,,,0,,,81,0
61848,note_on,48,0,1,,,,,,,,0,,,89,0
61860,note_on,12,0,2,,,,,,,,0,,,77,68
61860,note_on,0,0,2,,,,,,,,0,,,82,68
61872,note_on,432,0,3,,,,,,,,0,,,69,0
61872,note_on,157,0,4,,,,,,,,0,,,62,0
61908,note_on,48,0,2,,,,,,,,0,,,82,0
61908,note_on,0,0,2,,,,,,,,0,,,77,0
61920,note_on,72,0,1,,,,,,,,0,,,88,80
61920,note_on,0,0,4,,,,,,,,0,,,62,80
61920,note_on,48,0,4,,,,,,,,0,,,57,80
61920,note_on,12,0,2,,,,,,,,0,,,81,68
61920,note_on,0,0,4,,,,,,,,0,,,69,80
61968,note_on,48,0,2,,,,,,,,0,,,81,0
61968,note_on,48,0,1,,,,,,,,0,,,88,0
61980,note_on,0,0,2,,,,,,,,0,,,77,68
61980,note_on,12,0,2,,,,,,,,0,,,82,68
62028,note_on,48,0,2,,,,,,,,0,,,77,0
62028,note_on,0,0,2,,,,,,,,0,,,82,0
62040,note_on,12,0,2,,,,,,,,0,,,81,68
62040,note_on,72,0,1,,,,,,,,0,,,86,80
62088,note_on,48,0,1,,,,,,,,0,,,86,0
62088,note_on,48,0,2,,,,,,,,0,,,81,0
62100,note_on,12,0,2,,,,,,,,0,,,82,68
62100,note_on,0,0,2,,,,,,,,0,,,77,68
62112,note_on,0,0,4,,,,,,,,0,,,57,0
62112,note_on,192,0,4,,,,,,,,0,,,62,0
62112,note_on,0,0,4,,,,,,,,0,,,69,0
62148,note_on,0,0,2,,,,,,,,0,,,82,0
62148,note_on,48,0,2,,,,,,,,0,,,77,0
62160,note_on,0,0,4,,,,,,,,0,,,69,80
62160,note_on,0,0,4,,,,,,,,0,,,64,80
62160,note_on,12,0,2,,,,,,,,0,,,79,68
62160,note_on,48,0,4,,,,,,,,0,,,57,80
62160,note_on,72,0,1,,,,,,,,0,,,86,80
62160,control_change,0,0,4,,,,,,,,0,64,0,,
62185,control_change,25,0,4,,,,,,,,0,64,127,,
62208,note_on,48,0,1,,,,,,,,0,,,86,0
62208,note_on,48,0,2,,,,,,,,0,,,79,0
62220,note_on,12,0,2,,,,,,,,0,,,81,68
62220,note_on,0,0,2,,,,,,,,0,,,76,68
62268,note_on,48,0,2,,,,,,,,0,,,76,0
62268,note_on,0,0,2,,,,,,,,0,,,81,0
62280,note_on,12,0,2,,,,,,,,0,,,79,68
62280,note_on,72,0,1,,,,,,,,0,,,85,80
62328,note_on,48,0,2,,,,,,,,0,,,79,0
62328,note_on,48,0,1,,,,,,,,0,,,85,0
62340,note_on,12,0,2,,,,,,,,0,,,81,68
62340,note_on,0,0,2,,,,,,,,0,,,76,68
62352,note_on,0,0,4,,,,,,,,0,,,64,0
62352,note_on,0,0,4,,,,,,,,0,,,57,0
62352,note_on,167,0,4,,,,,,,,0,,,69,0
62388,note_on,48,0,2,,,,,,,,0,,,76,0
62388,note_on,0,0,2,,,,,,,,0,,,81,0
62393,control_change,41,0,4,,,,,,,,0,64,0,,
62400,note_on,7,0,4,,,,,,,,0,,,61,80
62400,note_on,72,0,1,,,,,,,,0,,,84,80
62400,note_on,0,0,4,,,,,,,,0,,,69,80
62400,note_on,12,0,2,,,,,,,,0,,,79,68
62418,control_change,18,0,4,,,,,,,,0,64,127,,
62448,note_on,48,0,1,,,,,,,,0,,,84,0
62448,note_on,48,0,2,,,,,,,,0,,,79,0
62460,note_on,12,0,1,,,,,,,,0,,,83,80
62460,note_on,12,0,2,,,,,,,,0,,,76,68
62508,note_on,48,0,2,,,,,,,,0,,,76,0
62508,note_on,48,0,1,,,,,,,,0,,,83,0
62520,note_on,12,0,1,,,,,,,,0,,,82,80
62520,note_on,12,0,2,,,,,,,,0,,,79,68
62568,note_on,48,0,2,,,,,,,,0,,,79,0
62568,note_on,48,0,1,,,,,,,,0,,,82,0
62580,note_on,12,0,2,,,,,,,,0,,,76,68
62592,note_on,174,0,4,,,,,,,,0,,,69,0
62592,note_on,0,0,4,,,,,,,,0,,,61,0
62628,note_on,48,0,2,,,,,,,,0,,,76,0
62640,control_change,0,0,4,,,,,,,,0,64,0,,
62640,note_on,72,0,1,,,,,,,,0,,,81,80
62640,note_on,48,0,4,,,,,,,,0,,,62,80
62640,note_on,0,0,1,,,,,,,,0,,,77,80
62665,control_change,25,0,4,,,,,,,,0,64,127,,
62688,note_on,0,0,1,,,,,,,,0,,,81,0
62688,note_on,48,0,1,,,,,,,,0,,,77,0
62700,note_on,12,0,1,,,,,,,,0,,,74,80
62748,note_on,48,0,1,,,,,,,,0,,,74,0
62760,note_on,0,0,1,,,,,,,,0,,,77,80
62760,note_on,12,0,1,,,,,,,,0,,,81,80
62808,note_on,48,0,1,,,,,,,,0,,,77,0
62808,note_on,0,0,1,,,,,,,,0,,,81,0
62820,note_on,12,0,1,,,,,,,,0,,,86,80
62832,note_on,167,0,4,,,,,,,,0,,,62,0
62868,note_on,48,0,1,,,,,,,,0,,,86,0
62878,control_change,46,0,4,,,,,,,,0,64,0,,
62880,note_on,2,0,4,,,,,,,,0,,,60,80
62880,note_on,0,0,4,,,,,,,,0,,,45,80
62880,note_on,0,0,4,,,,,,,,0,,,53,80
62880,note_on,12,0,1,,,,,,,,0,,,89,80
62880,note_on,252,0,2,,,,,,,,0,,,77,68
62894,control_change,14,0,4,,,,,,,,0,64,127,,
62928,note_on,48,0,2,,,,,,,,0,,,77,0
62940,note_on,12,0,2,,,,,,,,0,,,86,68
62940,note_on,0,0,2,,,,,,,,0,,,84,68
62988,note_on,0,0,2,,,,,,,,0,,,86,0
62988,note_on,48,0,2,,,,,,,,0,,,84,0
63000,note_on,0,0,2,,,,,,,,0,,,89,68
63000,note_on,12,0,2,,,,,,,,0,,,77,68
63024,note_on,144,0,1,,,,,,,,0,,,89,0
63048,note_on,0,0,2,,,,,,,,0,,,77,0
63048,note_on,48,0,2,,,,,,,,0,,,89,0
63060,note_on,12,0,2,,,,,,,,0,,,84,68
63060,note_on,36,0,1,,,,,,,,0,,,87,80
63072,note_on,0,0,4,,,,,,,,0,,,60,0
63072,note_on,178,0,4,,,,,,,,0,,,45,0
63108,note_on,48,0,1,,,,,,,,0,,,87,0
63108,note_on,48,0,2,,,,,,,,0,,,84,0
63115,control_change,43,0,4,,,,,,,,0,64,0,,
63120,note_on,0,0,4,,,,,,,,0,,,46,80
63120,note_on,12,0,1,,,,,,,,0,,,87,80
63120,note_on,5,0,4,,,,,,,,0,,,62,80
63120,note_on,12,0,2,,,,,,,,0,,,77,68
63136,control_change,16,0,4,,,,,,,,0,64,127,,
63168,note_on,48,0,2,,,,,,,,0,,,77,0
63180,note_on,0,0,2,,,,,,,,0,,,82,68
63180,note_on,12,0,2,,,,,,,,0,,,85,68
63228,note_on,0,0,2,,,,,,,,0,,,85,0
63228,note_on,48,0,2,,,,,,,,0,,,82,0
63240,note_on,0,0,2,,,,,,,,0,,,77,68
63240,note_on,12,0,2,,,,,,,,0,,,87,68
63264,note_on,144,0,1,,,,,,,,0,,,87,0
63288,note_on,48,0,2,,,,,,,,0,,,77,0
63288,note_on,0,0,2,,,,,,,,0,,,87,0
63300,note_on,12,0,2,,,,,,,,0,,,82,68
63300,note_on,36,0,1,,,,,,,,0,,,86,80
63312,note_on,0,0,4,,,,,,,,0,,,53,0
63312,note_on,176,0,4,,,,,,,,0,,,46,0
63312,note_on,0,0,4,,,,,,,,0,,,62,0
63348,note_on,48,0,1,,,,,,,,0,,,86,0
63348,note_on,48,0,2,,,,,,,,0,,,82,0
63360,note_on,0,0,4,,,,,,,,0,,,48,80
63360,control_change,0,0,4,,,,,,,,0,64,0,,
63360,note_on,0,0,4,,,,,,,,0,,,57,80
63360,note_on,12,0,1,,,,,,,,0,,,86,80
63360,note_on,0,0,4,,,,,,,,0,,,53,80
63360,note_on,12,0,2,,,,,,,,0,,,75,68
63360,note_on,48,0,4,,,,,,,,0,,,63,80
63376,control_change,16,0,4,,,,,,,,0,64,127,,
63408,note_on,48,0,2,,,,,,,,0,,,75,0
63420,note_on,12,0,2,,,,,,,,0,,,83,68
63420,note_on,0,0,2,,,,,,,,0,,,81,68
63468,note_on,48,0,2,,,,,,,,0,,,81,0
63468,note_on,0,0,2,,,,,,,,0,,,83,0
63480,note_on,12,0,2,,,,,,,,0,,,75,68
63480,note_on,0,0,2,,,,,,,,0,,,86,68
63504,note_on,144,0,1,,,,,,,,0,,,86,0
63528,note_on,0,0,2,,,,,,,,0,,,75,0
63528,note_on,48,0,2,,,,,,,,0,,,86,0
63540,note_on,36,0,1,,,,,,,,0,,,84,80
63540,note_on,12,0,2,,,,,,,,0,,,81,68
63552,note_on,0,0,4,,,,,,,,0,,,57,0
63552,note_on,0,0,4,,,,,,,,0,,,63,0
63552,note_on,176,0,4,,,,,,,,0,,,53,0
63552,note_on,0,0,4,,,,,,,,0,,,48,0
63588,note_on,48,0,2,,,,,,,,0,,,81,0
63588,note_on,48,0,1,,,,,,,,0,,,84,0
63600,control_change,0,0,4,,,,,,,,0,64,0,,
63600,note_on,12,0,1,,,,,,,,0,,,84,80
63600,note_on,12,0,2,,,,,,,,0,,,74,68
63600,note_on,48,0,4,,,,,,,,0,,,50,80
63600,note_on,0,0,4,,,,,,,,0,,,65,80
63600,note_on,0,0,4,,,,,,,,0,,,58,80
63619,control_change,19,0,4,,,,,,,,0,64,127,,
63648,note_on,48,0,2,,,,,,,,0,,,74,0
63660,note_on,12,0,2,,,,,,,,0,,,81,68
63660,note_on,0,0,2,,,,,,,,0,,,77,68
63708,note_on,48,0,2,,,,,,,,0,,,77,0
63708,note_on,0,0,2,,,,,,,,0,,,81,0
63720,note_on,0,0,2,,,,,,,,0,,,74,68
63720,note_on,12,0,2,,,,,,,,0,,,84,68
63744,note_on,144,0,1,,,,,,,,0,,,84,0
63768,note_on,0,0,2,,,,,,,,0,,,84,0
63768,note_on,48,0,2,,,,,,,,0,,,74,0
63780,note_on,12,0,2,,,,,,,,0,,,77,68
63780,note_on,36,0,1,,,,,,,,0,,,82,80
63792,note_on,0,0,4,,,,,,,,0,,,50,0
63792,note_on,0,0,4,,,,,,,,0,,,65,0
63792,note_on,173,0,4,,,,,,,,0,,,58,0
63828,note_on,48,0,2,,,,,,,,0,,,77,0
63828,note_on,48,0,1,,,,,,,,0,,,82,0
63834,control_change,42,0,4,,,,,,,,0,64,0,,
63840,note_on,0,0,4,,,,,,,,0,,,66,80
63840,note_on,12,0,1,,,,,,,,0,,,82,80
63840,note_on,6,0,4,,,,,,,,0,,,57,80
63840,note_on,12,0,2,,,,,,,,0,,,72,68
63840,note_on,0,0,4,,,,,,,,0,,,51,80
63840,note_on,0,0,4,,,,,,,,0,,,60,80
63867,control_change,27,0,4,,,,,,,,0,64,127,,
63888,note_on,48,0,2,,,,,,,,0,,,72,0
63900,note_on,0,0,2,,,,,,,,0,,,80,68
63900,note_on,12,0,2,,,,,,,,0,,,78,68
63948,note_on,48,0,2,,,,,,,,0,,,80,0
63948,note_on,0,0,2,,,,,,,,0,,,78,0
63960,note_on,0,0,2,,,,,,,,0,,,82,68
63960,note_on,12,0,2,,,,,,,,0,,,72,68
63984,note_on,144,0,1,,,,,,,,0,,,82,0
64008,note_on,0,0,2,,,,,,,,0,,,72,0
64008,note_on,48,0,2,,,,,,,,0,,,82,0
64020,note_on,12,0,2,,,,,,,,0,,,78,68
64020,note_on,36,0,1,,,,,,,,0,,,81,80
64032,note_on,0,0,4,,,,,,,,0,,,66,0
64032,note_on,0,0,4,,,,,,,,0,,,60,0
64032,note_on,0,0,4,,,,,,,,0,,,57,0
64032,note_on,165,0,4,,,,,,,,0,,,51,0
64068,note_on,48,0,1,,,,,,,,0,,,81,0
64068,note_on,48,0,2,,,,,,,,0,,,78,0
64080,note_on,0,0,4,,,,,,,,0,,,59,80
64080,note_on,0,0,4,,,,,,,,0,,,52,80
64080,note_on,48,0,4,,,,,,,,0,,,68,80
64080,note_on,12,0,1,,,,,,,,0,,,81,80
64080,note_on,12,0,2,,,,,,,,0,,,71,68
64080,control_change,0,0,4,,,,,,,,0,64,0,,
64101,control_change,21,0,4,,,,,,,,0,64,127,,
64128,note_on,48,0,2,,,,,,,,0,,,71,0
64140,note_on,0,0,2,,,,,,,,0,,,76,68
64140,note_on,12,0,2,,,,,,,,0,,,79,68
64188,note_on,48,0,2,,,,,,,,0,,,76,0
64188,note_on,0,0,2,,,,,,,,0,,,79,0
64200,note_on,12,0,2,,,,,,,,0,,,81,68
64200,note_on,0,0,2,,,,,,,,0,,,71,68
64224,note_on,144,0,1,,,,,,,,0,,,81,0
64248,note_on,48,0,2,,,,,,,,0,,,71,0
64248,note_on,0,0,2,,,,,,,,0,,,81,0
64260,note_on,12,0,2,,,,,,,,0,,,76,68
64260,note_on,36,0,1,,,,,,,,0,,,80,80
64272,note_on,0,0,4,,,,,,,,0,,,59,0
64272,note_on,171,0,4,,,,,,,,0,,,52,0
64272,note_on,0,0,4,,,,,,,,0,,,68,0
64308,note_on,48,0,1,,,,,,,,0,,,80,0
64308,note_on,48,0,2,,,,,,,,0,,,76,0
64320,control_change,48,0,4,,,,,,,,0,64,0,,
64320,note_on,0,0,4,,,,,,,,0,,,57,80
64320,note_on,12,0,1,,,,,,,,0,,,80,80
64320,note_on,0,0,4,,,,,,,,0,,,60,80
64320,note_on,0,0,4,,,,,,,,0,,,63,80
64320,note_on,0,0,4,,,,,,,,0,,,54,80
64320,note_on,12,0,2,,,,,,,,0,,,69,68
64343,control_change,23,0,4,,,,,,,,0,64,127,,
64368,note_on,48,0,2,,,,,,,,0,,,69,0
64380,note_on,12,0,2,,,,,,,,0,,,77,68
64380,note_on,0,0,2,,,,,,,,0,,,75,68
64428,note_on,48,0,2,,,,,,,,0,,,75,0
64428,note_on,0,0,2,,,,,,,,0,,,77,0
64440,note_on,12,0,2,,,,,,,,0,,,80,68
64440,note_on,0,0,2,,,,,,,,0,,,69,68
64464,note_on,144,0,1,,,,,,,,0,,,80,0
64488,note_on,48,0,2,,,,,,,,0,,,69,0
64488,note_on,0,0,2,,,,,,,,0,,,80,0
64500,note_on,36,0,1,,,,,,,,0,,,78,80
64500,note_on,12,0,2,,,,,,,,0,,,75,68
64512,note_on,169,0,4,,,,,,,,0,,,54,0
64512,note_on,0,0,4,,,,,,,,0,,,57,0
64512,note_on,0,0,4,,,,,,,,0,,,63,0
64512,note_on,0,0,4,,,,,,,,0,,,60,0
64548,note_on,48,0,2,,,,,,,,0,,,75,0
64548,note_on,48,0,1,,,,,,,,0,,,78,0
64560,note_on,0,0,4,,,,,,,,0,,,59,80
64560,note_on,12,0,1,,,,,,,,0,,,78,80
64560,note_on,48,0,4,,,,,,,,0,,,56,80
64560,note_on,12,0,2,,,,,,,,0,,,68,68
64560,note_on,2688,0,3,,,,,,,,0,,,66,80
64562,control_change,2,0,4,,,,,,,,0,64,0,,
64608,note_on,48,0,2,,,,,,,,0,,,68,0
64620,note_on,0,0,2,,,,,,,,0,,,71,68
64620,note_on,12,0,2,,,,,,,,0,,,75,68
64668,note_on,0,0,2,,,,,,,,0,,,75,0
64668,note_on,48,0,2,,,,,,,,0,,,71,0
64680,note_on,12,0,2,,,,,,,,0,,,78,68
64680,note_on,0,0,2,,,,,,,,0,,,68,68
64704,note_on,144,0,3,,,,,,,,0,,,66,0
64704,note_on,144,0,1,,,,,,,,0,,,78,0
64728,note_on,0,0,2,,,,,,,,0,,,78,0
64728,note_on,48,0,2,,,,,,,,0,,,68,0
64740,note_on,12,0,2,,,,,,,,0,,,71,68
64740,note_on,36,0,1,,,,,,,,0,,,76,80
64740,note_on,36,0,3,,,,,,,,0,,,64,80
64752,note_on,0,0,4,,,,,,,,0,,,56,0
64752,note_on,190,0,4,,,,,,,,0,,,59,0
64788,note_on,48,0,2,,,,,,,,0,,,71,0
64788,note_on,48,0,3,,,,,,,,0,,,64,0
64788,note_on,48,0,1,,,,,,,,0,,,76,0
64800,note_on,0,0,4,,,,,,,,0,,,60,80
64800,note_on,12,0,1,,,,,,,,0,,,76,80
64800,note_on,48,0,4,,,,,,,,0,,,57,80
64800,note_on,12,0,3,,,,,,,,0,,,64,80
64800,note_on,12,0,2,,,,,,,,0,,,66,68
64848,note_on,48,0,2,,,,,,,,0,,,66,0
64860,note_on,12,0,2,,,,,,,,0,,,74,68
64860,note_on,0,0,2,,,,,,,,0,,,72,68
64908,note_on,0,0,2,,,,,,,,0,,,74,0
64908,note_on,48,0,2,,,,,,,,0,,,72,0
64920,note_on,12,0,2,,,,,,,,0,,,66,68
64920,note_on,0,0,2,,,,,,,,0,,,76,68
64944,note_on,144,0,1,,,,,,,,0,,,76,0
64944,note_on,144,0,3,,,,,,,,0,,,64,0
64968,note_on,0,0,2,,,,,,,,0,,,66,0
64968,note_on,48,0,2,,,,,,,,0,,,76,0
64980,note_on,36,0,3,,,,,,,,0,,,63,80
64980,note_on,36,0,1,,,,,,,,0,,,75,80
64980,note_on,12,0,2,,,,,,,,0,,,72,68
64992,note_on,192,0,4,,,,,,,,0,,,60,0
64992,note_on,0,0,4,,,,,,,,0,,,57,0
65028,note_on,48,0,3,,,,,,,,0,,,63,0
65028,note_on,48,0,1,,,,,,,,0,,,75,0
65028,note_on,48,0,2,,,,,,,,0,,,72,0
65040,note_on,48,0,4,,,,,,,,0,,,59,80
65040,note_on,12,0,1,,,,,,,,0,,,78,80
65040,note_on,12,0,3,,,,,,,,0,,,66,80
65040,note_on,12,0,2,,,,,,,,0,,,68,68
65040,note_on,0,0,4,,,,,,,,0,,,62,80
65088,note_on,48,0,2,,,,,,,,0,,,68,0
65100,note_on,12,0,2,,,,,,,,0,,,74,68
65100,note_on,0,0,2,,,,,,,,0,,,75,68
65148,note_on,0,0,2,,,,,,,,0,,,74,0
65148,note_on,48,0,2,,,,,,,,0,,,75,0
65160,note_on,12,0,2,,,,,,,,0,,,78,68
65160,note_on,0,0,2,,,,,,,,0,,,68,68
65184,note_on,144,0,3,,,,,,,,0,,,66,0
65184,note_on,144,0,1,,,,,,,,0,,,78,0
65208,note_on,0,0,2,,,,,,,,0,,,78,0
65208,note_on,48,0,2,,,,,,,,0,,,68,0
65220,note_on,36,0,3,,,,,,,,0,,,64,80
65220,note_on,12,0,2,,,,,,,,0,,,74,68
65220,note_on,36,0,1,,,,,,,,0,,,76,80
65232,note_on,0,0,4,,,,,,,,0,,,59,0
65232,note_on,192,0,4,,,,,,,,0,,,62,0
65268,note_on,48,0,3,,,,,,,,0,,,64,0
65268,note_on,48,0,2,,,,,,,,0,,,74,0
65268,note_on,48,0,1,,,,,,,,0,,,76,0
65280,note_on,12,0,3,,,,,,,,0,,,64,80
65280,note_on,48,0,4,,,,,,,,0,,,60,80
65280,note_on,12,0,2,,,,,,,,0,,,66,68
65280,note_on,12,0,1,,,,,,,,0,,,76,80
65328,note_on,48,0,2,,,,,,,,0,,,66,0
65340,note_on,0,0,2,,,,,,,,0,,,72,68
65340,note_on,12,0,2,,,,,,,,0,,,69,68
65388,note_on,48,0,2,,,,,,,,0,,,72,0
65388,note_on,0,0,2,,,,,,,,0,,,69,0
65400,note_on,12,0,2,,,,,,,,0,,,66,68
65400,note_on,0,0,2,,,,,,,,0,,,76,68
65424,note_on,144,0,1,,,,,,,,0,,,76,0
65424,note_on,144,0,3,,,,,,,,0,,,64,0
65448,note_on,48,0,2,,,,,,,,0,,,76,0
65448,note_on,0,0,2,,,,,,,,0,,,66,0
65460,note_on,36,0,1,,,,,,,,0,,,75,80
65460,note_on,36,0,3,,,,,,,,0,,,63,80
65460,note_on,12,0,2,,,,,,,,0,,,69,68
65472,note_on,192,0,4,,,,,,,,0,,,60,0
65508,note_on,48,0,2,,,,,,,,0,,,69,0
65508,note_on,48,0,1,,,,,,,,0,,,75,0
65508,note_on,48,0,3,,,,,,,,0,,,63,0
65520,note_on,48,0,4,,,,,,,,0,,,62,80
65520,note_on,12,0,3,,,,,,,,0,,,66,80
65520,note_on,12,0,1,,,,,,,,0,,,78,80
65580,note_on,72,0,2,,,,,,,,0,,,71,68
65628,note_on,48,0,2,,,,,,,,0,,,71,0
65640,note_on,12,0,2,,,,,,,,0,,,68,68
65664,note_on,144,0,1,,,,,,,,0,,,78,0
65664,note_on,144,0,3,,,,,,,,0,,,66,0
65688,note_on,48,0,2,,,,,,,,0,,,68,0
65700,note_on,36,0,3,,,,,,,,0,,,65,80
65700,note_on,36,0,1,,,,,,,,0,,,77,80
65712,note_on,192,0,4,,,,,,,,0,,,62,0
65748,note_on,48,0,3,,,,,,,,0,,,65,0
65748,note_on,48,0,1,,,,,,,,0,,,77,0
65760,note_on,12,0,3,,,,,,,,0,,,64,80
65760,note_on,0,0,4,,,,,,,,0,,,56,80
65760,note_on,12,0,1,,,,,,,,0,,,76,80
65760,note_on,48,0,4,,,,,,,,0,,,59,80
65760,note_on,0,0,4,,,,,,,,0,,,50,80
65808,note_on,48,0,1,,,,,,,,0,,,76,0
65820,note_on,12,0,1,,,,,,,,0,,,78,80
65856,note_on,96,0,3,,,,,,,,0,,,64,0
65868,note_on,48,0,1,,,,,,,,0,,,78,0
65880,note_on,12,0,1,,,,,,,,0,,,76,80
65880,note_on,24,0,3,,,,,,,,0,,,66,80
65928,note_on,48,0,1,,,,,,,,0,,,76,0
65940,note_on,12,0,1,,,,,,,,0,,,90,80
65952,note_on,192,0,4,,,,,,,,0,,,50,0
65952,note_on,0,0,4,,,,,,,,0,,,56,0
65952,note_on,0,0,4,,,,,,,,0,,,59,0
65976,note_on,96,0,3,,,,,,,,0,,,66,0
65988,note_on,48,0,1,,,,,,,,0,,,90,0
66000,note_on,24,0,3,,,,,,,,0,,,64,80
66000,note_on,48,0,4,,,,,,,,0,,,57,80
66000,note_on,0,0,4,,,,,,,,0,,,49,80
66000,note_on,12,0,1,,,,,,,,0,,,88,80
66048,note_on,48,0,1,,,,,,,,0,,,88,0
66060,note_on,12,0,1,,,,,,,,0,,,78,80
66096,note_on,96,0,3,,,,,,,,0,,,64,0
66108,note_on,48,0,1,,,,,,,,0,,,78,0
66120,note_on,24,0,3,,,,,,,,0,,,66,80
66120,note_on,12,0,1,,,,,,,,0,,,76,80
66168,note_on,48,0,1,,,,,,,,0,,,76,0
66180,note_on,12,0,1,,,,,,,,0,,,66,80
66192,note_on,192,0,4,,,,,,,,0,,,49,0
66192,note_on,0,0,4,,,,,,,,0,,,57,0
66216,note_on,96,0,3,,,,,,,,0,,,66,0
66228,note_on,48,0,1,,,,,,,,0,,,66,0
66240,note_on,12,0,1,,,,,,,,0,,,64,80
66240,note_on,48,0,4,,,,,,,,0,,,47,80
66240,note_on,0,0,4,,,,,,,,0,,,56,80
66240,note_on,24,0,3,,,,,,,,0,,,62,80
66288,note_on,48,0,1,,,,,,,,0,,,64,0
66300,note_on,12,0,1,,,,,,,,0,,,66,80
66336,note_on,96,0,3,,,,,,,,0,,,62,0
66348,note_on,48,0,1,,,,,,,,0,,,66,0
66360,note_on,24,0,3,,,,,,,,0,,,52,80
66360,note_on,12,0,1,,,,,,,,0,,,64,80
66408,note_on,48,0,1,,,,,,,,0,,,64,0
66420,note_on,12,0,1,,,,,,,,0,,,78,80
66432,note_on,0,0,4,,,,,,,,0,,,47,0
66432,note_on,192,0,4,,,,,,,,0,,,56,0
66456,note_on,96,0,3,,,,,,,,0,,,52,0
66468,note_on,48,0,1,,,,,,,,0,,,78,0
66480,note_on,48,0,4,,,,,,,,0,,,61,80
66480,note_on,792,0,2,,,,,,,,0,,,76,68
66480,note_on,0,0,4,,,,,,,,0,,,45,80
66528,note_on,48,0,2,,,,,,,,0,,,76,0
66540,note_on,0,0,2,,,,,,,,0,,,78,68
66540,note_on,12,0,2,,,,,,,,0,,,73,68
66576,note_on,96,0,4,,,,,,,,0,,,45,0
66576,note_on,0,0,4,,,,,,,,0,,,61,0
66585,note_on,129,0,3,,,,,,,,0,,,63,80
66588,note_on,0,0,2,,,,,,,,0,,,73,0
66588,note_on,48,0,2,,,,,,,,0,,,78,0
66597,note_on,12,0,3,,,,,,,,0,,,63,0
66600,note_on,132,0,1,,,,,,,,0,,,85,80
66600,note_on,12,0,2,,,,,,,,0,,,76,68
66600,note_on,3,0,3,,,,,,,,0,,,64,80
66648,note_on,48,0,2,,,,,,,,0,,,76,0
66648,note_on,48,0,1,,,,,,,,0,,,85,0
66660,note_on,12,0,2,,,,,,,,0,,,78,68
66660,note_on,0,0,2,,,,,,,,0,,,73,68
66696,note_on,96,0,3,,,,,,,,0,,,64,0
66708,note_on,48,0,2,,,,,,,,0,,,73,0
66708,note_on,0,0,2,,,,,,,,0,,,78,0
66720,note_on,72,0,1,,,,,,,,0,,,83,80
66720,note_on,12,0,2,,,,,,,,0,,,76,68
66720,note_on,144,0,4,,,,,,,,0,,,49,80
66768,note_on,48,0,2,,,,,,,,0,,,76,0
66768,note_on,48,0,1,,,,,,,,0,,,83,0
66780,note_on,12,0,2,,,,,,,,0,,,78,68
66780,note_on,0,0,2,,,,,,,,0,,,73,68
66816,note_on,96,0,4,,,,,,,,0,,,49,0
66825,note_on,129,0,3,,,,,,,,0,,,66,80
66828,note_on,0,0,2,,,,,,,,0,,,78,0
66828,note_on,48,0,2,,,,,,,,0,,,73,0
66837,note_on,12,0,3,,,,,,,,0,,,66,0
66840,note_on,3,0,3,,,,,,,,0,,,64,80
66840,note_on,12,0,2,,,,,,,,0,,,76,68
66840,note_on,72,0,1,,,,,,,,0,,,81,80
66888,note_on,48,0,2,,,,,,,,0,,,76,0
66888,note_on,48,0,1,,,,,,,,0,,,81,0
66900,note_on,12,0,2,,,,,,,,0,,,73,68
66900,note_on,0,0,2,,,,,,,,0,,,78,68
66936,note_on,96,0,3,,,,,,,,0,,,64,0
66948,note_on,48,0,2,,,,,,,,0,,,78,0
66948,note_on,0,0,2,,,,,,,,0,,,73,0
66960,note_on,144,0,4,,,,,,,,0,,,40,80
66960,note_on,72,0,1,,,,,,,,0,,,81,80
66960,note_on,12,0,2,,,,,,,,0,,,74,68
67008,note_on,48,0,1,,,,,,,,0,,,81,0
67008,note_on,48,0,2,,,,,,,,0,,,74,0
67020,note_on,0,0,2,,,,,,,,0,,,71,68
67020,note_on,12,0,2,,,,,,,,0,,,76,68
67056,note_on,96,0,4,,,,,,,,0,,,40,0
67065,note_on,129,0,3,,,,,,,,0,,,63,80
67068,note_on,48,0,2,,,,,,,,0,,,71,0
67068,note_on,0,0,2,,,,,,,,0,,,76,0
67077,note_on,12,0,3,,,,,,,,0,,,63,0
67080,note_on,72,0,1,,,,,,,,0,,,80,80
67080,note_on,12,0,2,,,,,,,,0,,,74,68
67080,note_on,3,0,3,,,,,,,,0,,,64,80
67128,note_on,48,0,1,,,,,,,,0,,,80,0
67128,note_on,48,0,2,,,,,,,,0,,,74,0
67140,note_on,0,0,2,,,,,,,,0,,,76,68
67140,note_on,12,0,2,,,,,,,,0,,,71,68
67176,note_on,96,0,3,,,,,,,,0,,,64,0
67188,note_on,0,0,2,,,,,,,,0,,,71,0
67188,note_on,48,0,2,,,,,,,,0,,,76,0
67200,note_on,12,0,2,,,,,,,,0,,,74,68
67200,note_on,72,0,1,,,,,,,,0,,,79,80
67200,note_on,144,0,4,,,,,,,,0,,,44,80
67248,note_on,48,0,1,,,,,,,,0,,,79,0
67248,note_on,48,0,2,,,,,,,,0,,,74,0
67260,note_on,12,0,2,,,,,,,,0,,,71,68
67260,note_on,12,0,1,,,,,,,,0,,,78,80
67296,note_on,96,0,4,,,,,,,,0,,,44,0
67305,note_on,129,0,3,,,,,,,,0,,,65,80
67308,note_on,48,0,2,,,,,,,,0,,,71,0
67308,note_on,48,0,1,,,,,,,,0,,,78,0
67317,note_on,12,0,3,,,,,,,,0,,,65,0
67320,note_on,12,0,1,,,,,,,,0,,,77,80
67320,note_on,3,0,3,,,,,,,,0,,,64,80
67320,note_on,12,0,2,,,,,,,,0,,,74,68
67368,note_on,48,0,2,,,,,,,,0,,,74,0
67380,note_on,12,0,2,,,,,,,,0,,,71,68
67416,note_on,96,0,1,,,,,,,,0,,,77,0
67416,note_on,96,0,3,,,,,,,,0,,,64,0
67428,note_on,48,0,2,,,,,,,,0,,,71,0
67440,note_on,12,0,2,,,,,,,,0,,,73,68
67440,note_on,144,0,4,,,,,,,,0,,,45,80
67440,note_on,24,0,1,,,,,,,,0,,,76,80
67488,note_on,48,0,2,,,,,,,,0,,,73,0
67500,note_on,12,0,2,,,,,,,,0,,,69,68
67545,note_on,129,0,3,,,,,,,,0,,,63,80
67548,note_on,48,0,2,,,,,,,,0,,,69,0
67557,note_on,12,0,3,,,,,,,,0,,,63,0
67560,note_on,3,0,3,,,,,,,,0,,,64,80
67560,note_on,12,0,2,,,,,,,,0,,,73,68
67584,note_on,144,0,1,,,,,,,,0,,,76,0
67608,note_on,48,0,2,,,,,,,,0,,,73,0
67620,note_on,12,0,2,,,,,,,,0,,,78,68
67632,note_on,192,0,4,,,,,,,,0,,,45,0
67656,note_on,96,0,3,,,,,,,,0,,,64,0
67668,note_on,48,0,2,,,,,,,,0,,,78,0
67680,note_on,0,0,4,,,,,,,,0,,,56,80
67680,note_on,96,0,1,,,,,,,,0,,,76,80
67680,note_on,48,0,4,,,,,,,,0,,,50,80
67680,note_on,24,0,3,,,,,,,,0,,,64,80
67680,note_on,0,0,4,,,,,,,,0,,,59,80
67728,note_on,48,0,1,,,,,,,,0,,,76,0
67740,note_on,12,0,1,,,,,,,,0,,,78,80
67776,note_on,96,0,3,,,,,,,,0,,,64,0
67788,note_on,48,0,1,,,,,,,,0,,,78,0
67800,note_on,24,0,3,,,,,,,,0,,,66,80
67800,note_on,12,0,1,,,,,,,,0,,,76,80
67848,note_on,48,0,1,,,,,,,,0,,,76,0
67860,note_on,12,0,1,,,,,,,,0,,,90,80
67872,note_on,0,0,4,,,,,,,,0,,,56,0
67872,note_on,192,0,4,,,,,,,,0,,,59,0
67872,note_on,0,0,4,,,,,,,,0,,,50,0
67896,note_on,96,0,3,,,,,,,,0,,,66,0
67908,note_on,48,0,1,,,,,,,,0,,,90,0
67920,note_on,0,0,4,,,,,,,,0,,,49,80
67920,note_on,48,0,4,,,,,,,,0,,,57,80
67920,note_on,12,0,1,,,,,,,,0,,,88,80
67920,note_on,24,0,3,,,,,,,,0,,,64,80
67968,note_on,48,0,1,,,,,,,,0,,,88,0
67980,note_on,12,0,1,,,,,,,,0,,,78,80
68016,note_on,96,0,3,,,,,,,,0,,,64,0
68028,note_on,48,0,1,,,,,,,,0,,,78,0
68040,note_on,12,0,1,,,,,,,,0,,,76,80
68040,note_on,24,0,3,,,,,,,,0,,,66,80
68088,note_on,48,0,1,,,,,,,,0,,,76,0
68100,note_on,12,0,1,,,,,,,,0,,,66,81
68112,note_on,0,0,4,,,,,,,,0,,,57,0
68112,note_on,192,0,4,,,,,,,,0,,,49,0
68136,note_on,96,0,3,,,,,,,,0,,,66,0
68148,note_on,48,0,1,,,,,,,,0,,,66,0
68160,note_on,12,0,1,,,,,,,,0,,,64,81
68160,note_on,24,0,3,,,,,,,,0,,,62,81
68160,note_on,48,0,4,,,,,,,,0,,,56,81
68160,note_on,0,0,4,,,,,,,,0,,,47,81
68208,note_on,48,0,1,,,,,,,,0,,,64,0
68220,note_on,12,0,1,,,,,,,,0,,,66,81
68256,note_on,96,0,3,,,,,,,,0,,,62,0
68268,note_on,48,0,1,,,,,,,,0,,,66,0
68280,note_on,12,0,1,,,,,,,,0,,,64,81
68280,note_on,24,0,3,,,,,,,,0,,,52,81
68328,note_on,48,0,1,,,,,,,,0,,,64,0
68340,note_on,12,0,1,,,,,,,,0,,,78,81
68352,note_on,192,0,4,,,,,,,,0,,,47,0
68352,note_on,0,0,4,,,,,,,,0,,,56,0
68376,note_on,96,0,3,,,,,,,,0,,,52,0
68388,note_on,48,0,1,,,,,,,,0,,,78,0
68400,note_on,48,0,4,,,,,,,,0,,,61,82
68400,note_on,0,0,4,,,,,,,,0,,,45,82
68400,note_on,732,0,2,,,,,,,,0,,,76,70
68448,note_on,48,0,2,,,,,,,,0,,,76,0
68460,note_on,12,0,2,,,,,,,,0,,,73,70
68460,note_on,0,0,2,,,,,,,,0,,,78,70
68496,note_on,96,0,4,,,,,,,,0,,,45,0
68496,note_on,0,0,4,,,,,,,,0,,,61,0
68505,note_on,129,0,3,,,,,,,,0,,,63,82
68508,note_on,0,0,2,,,,,,,,0,,,73,0
68508,note_on,48,0,2,,,,,,,,0,,,78,0
68517,note_on,12,0,3,,,,,,,,0,,,63,0
68520,note_on,12,0,2,,,,,,,,0,,,76,70
68520,note_on,3,0,3,,,,,,,,0,,,64,82
68520,note_on,132,0,1,,,,,,,,0,,,85,82
68568,note_on,48,0,1,,,,,,,,0,,,85,0
68568,note_on,48,0,2,,,,,,,,0,,,76,0
68580,note_on,12,0,2,,,,,,,,0,,,78,70
68580,note_on,0,0,2,,,,,,,,0,,,73,70
68616,note_on,96,0,3,,,,,,,,0,,,64,0
68628,note_on,48,0,2,,,,,,,,0,,,73,0
68628,note_on,0,0,2,,,,,,,,0,,,78,0
68640,note_on,12,0,2,,,,,,,,0,,,76,70
68640,note_on,144,0,4,,,,,,,,0,,,49,82
68640,note_on,72,0,1,,,,,,,,0,,,83,82
68688,note_on,48,0,1,,,,,,,,0,,,83,0
68688,note_on,48,0,2,,,,,,,,0,,,76,0
68700,note_on,0,0,2,,,,,,,,0,,,78,70
68700,note_on,12,0,2,,,,,,,,0,,,73,70
68736,note_on,96,0,4,,,,,,,,0,,,49,0
68745,note_on,129,0,3,,,,,,,,0,,,66,83
68748,note_on,48,0,2,,,,,,,,0,,,78,0
68748,note_on,0,0,2,,,,,,,,0,,,73,0
68757,note_on,12,0,3,,,,,,,,0,,,66,0
68760,note_on,12,0,2,,,,,,,,0,,,76,70
68760,note_on,3,0,3,,,,,,,,0,,,64,83
68760,note_on,72,0,1,,,,,,,,0,,,81,83
68808,note_on,48,0,1,,,,,,,,0,,,81,0
68808,note_on,48,0,2,,,,,,,,0,,,76,0
68820,note_on,12,0,2,,,,,,,,0,,,78,70
68820,note_on,0,0,2,,,,,,,,0,,,73,70
68856,note_on,96,0,3,,,,,,,,0,,,64,0
68868,note_on,0,0,2,,,,,,,,0,,,78,0
68868,note_on,48,0,2,,,,,,,,0,,,73,0
68880,note_on,144,0,4,,,,,,,,0,,,40,83
68880,note_on,12,0,2,,,,,,,,0,,,74,70
68880,note_on,72,0,1,,,,,,,,0,,,81,83
68928,note_on,48,0,2,,,,,,,,0,,,74,0
68928,note_on,48,0,1,,,,,,,,0,,,81,0
68940,note_on,0,0,2,,,,,,,,0,,,76,70
68940,note_on,12,0,2,,,,,,,,0,,,71,70
68976,note_on,96,0,4,,,,,,,,0,,,40,0
68985,note_on,129,0,3,,,,,,,,0,,,63,84
68988,note_on,48,0,2,,,,,,,,0,,,76,0
68988,note_on,0,0,2,,,,,,,,0,,,71,0
68997,note_on,12,0,3,,,,,,,,0,,,63,0
69000,note_on,3,0,3,,,,,,,,0,,,64,84
69000,note_on,12,0,2,,,,,,,,0,,,74,71
69000,note_on,72,0,1,,,,,,,,0,,,80,84
69048,note_on,48,0,2,,,,,,,,0,,,74,0
69048,note_on,48,0,1,,,,,,,,0,,,80,0
69060,note_on,0,0,2,,,,,,,,0,,,71,71
69060,note_on,12,0,2,,,,,,,,0,,,76,71
69096,note_on,96,0,3,,,,,,,,0,,,64,0
69108,note_on,48,0,2,,,,,,,,0,,,71,0
69108,note_on,0,0,2,,,,,,,,0,,,76,0
69120,note_on,12,0,2,,,,,,,,0,,,74,71
69120,note_on,144,0,4,,,,,,,,0,,,44,84
69120,note_on,72,0,1,,,,,,,,0,,,79,84
69168,note_on,48,0,2,,,,,,,,0,,,74,0
69168,note_on,48,0,1,,,,,,,,0,,,79,0
69180,note_on,12,0,1,,,,,,,,0,,,78,84
69180,note_on,12,0,2,,,,,,,,0,,,71,71
69216,note_on,96,0,4,,,,,,,,0,,,44,0
69225,note_on,129,0,3,,,,,,,,0,,,65,84
69228,note_on,48,0,1,,,,,,,,0,,,78,0
69228,note_on,48,0,2,,,,,,,,0,,,71,0
69237,note_on,12,0,3,,,,,,,,0,,,65,0
69240,note_on,12,0,2,,,,,,,,0,,,74,71
69240,note_on,12,0,1,,,,,,,,0,,,77,84
69240,note_on,3,0,3,,,,,,,,0,,,64,84
69288,note_on,48,0,2,,,,,,,,0,,,74,0
69300,note_on,12,0,2,,,,,,,,0,,,71,72
69336,note_on,96,0,3,,,,,,,,0,,,64,0
69336,note_on,96,0,1,,,,,,,,0,,,77,0
69348,note_on,48,0,2,,,,,,,,0,,,71,0
69360,note_on,0,0,1,,,,,,,,0,,,73,84
69360,note_on,24,0,1,,,,,,,,0,,,76,84
69360,note_on,144,0,4,,,,,,,,0,,,45,84
69408,note_on,48,0,1,,,,,,,,0,,,73,0
69408,note_on,0,0,1,,,,,,,,0,,,76,0
69420,note_on,12,0,1,,,,,,,,0,,,69,84
69465,note_on,129,0,3,,,,,,,,0,,,63,84
69468,note_on,48,0,1,,,,,,,,0,,,69,0
69477,note_on,12,0,3,,,,,,,,0,,,63,0
69480,note_on,12,0,1,,,,,,,,0,,,73,84
69480,note_on,3,0,3,,,,,,,,0,,,64,84
69528,note_on,48,0,1,,,,,,,,0,,,73,0
69540,note_on,12,0,1,,,,,,,,0,,,80,84
69552,note_on,192,0,4,,,,,,,,0,,,45,0
69576,note_on,96,0,3,,,,,,,,0,,,64,0
69588,note_on,48,0,1,,,,,,,,0,,,80,0
69600,note_on,12,0,1,,,,,,,,0,,,81,85
69600,note_on,48,0,4,,,,,,,,0,,,61,85
69600,note_on,24,0,3,,,,,,,,0,,,69,85
69600,note_on,0,0,4,,,,,,,,0,,,64,85
69600,note_on,0,0,4,,,,,,,,0,,,55,85
69648,note_on,48,0,1,,,,,,,,0,,,81,0
69660,note_on,12,0,1,,,,,,,,0,,,82,85
69696,note_on,96,0,3,,,,,,,,0,,,69,0
69708,note_on,48,0,1,,,,,,,,0,,,82,0
69720,note_on,24,0,3,,,,,,,,0,,,70,85
69720,note_on,12,0,1,,,,,,,,0,,,81,85
69768,note_on,48,0,1,,,,,,,,0,,,81,0
69780,note_on,12,0,1,,,,,,,,0,,,94,85
69792,note_on,0,0,4,,,,,,,,0,,,61,0
69792,note_on,192,0,4,,,,,,,,0,,,55,0
69792,note_on,0,0,4,,,,,,,,0,,,64,0
69816,note_on,96,0,3,,,,,,,,0,,,70,0
69828,note_on,48,0,1,,,,,,,,0,,,94,0
69840,note_on,12,0,1,,,,,,,,0,,,93,85
69840,note_on,24,0,3,,,,,,,,0,,,69,85
69840,note_on,0,0,4,,,,,,,,0,,,62,85
69840,note_on,48,0,4,,,,,,,,0,,,53,85
69888,note_on,48,0,1,,,,,,,,0,,,93,0
69900,note_on,12,0,1,,,,,,,,0,,,82,86
69936,note_on,96,0,3,,,,,,,,0,,,69,0
69948,note_on,48,0,1,,,,,,,,0,,,82,0
69960,note_on,12,0,1,,,,,,,,0,,,81,86
69960,note_on,24,0,3,,,,,,,,0,,,70,86
70008,note_on,48,0,1,,,,,,,,0,,,81,0
70020,note_on,12,0,1,,,,,,,,0,,,70,86
70032,note_on,192,0,4,,,,,,,,0,,,62,0
70032,note_on,0,0,4,,,,,,,,0,,,53,0
70056,note_on,96,0,3,,,,,,,,0,,,70,0
70068,note_on,48,0,1,,,,,,,,0,,,70,0
70080,note_on,24,0,3,,,,,,,,0,,,67,86
70080,note_on,0,0,4,,,,,,,,0,,,61,86
70080,note_on,12,0,1,,,,,,,,0,,,69,86
70080,note_on,48,0,4,,,,,,,,0,,,52,86
70128,note_on,48,0,1,,,,,,,,0,,,69,0
70140,note_on,12,0,1,,,,,,,,0,,,70,86
70176,note_on,96,0,3,,,,,,,,0,,,67,0
70188,note_on,48,0,1,,,,,,,,0,,,70,0
70200,note_on,24,0,3,,,,,,,,0,,,57,87
70200,note_on,12,0,1,,,,,,,,0,,,69,87
70248,note_on,48,0,1,,,,,,,,0,,,69,0
70260,note_on,12,0,1,,,,,,,,0,,,82,87
70272,note_on,0,0,4,,,,,,,,0,,,52,0
70272,note_on,192,0,4,,,,,,,,0,,,61,0
70296,note_on,96,0,3,,,,,,,,0,,,57,0
70308,note_on,48,0,1,,,,,,,,0,,,82,0
70320,note_on,0,0,4,,,,,,,,0,,,65,87
70320,note_on,972,0,2,,,,,,,,0,,,81,74
70320,note_on,48,0,4,,,,,,,,0,,,50,87
70368,note_on,48,0,2,,,,,,,,0,,,81,0
70380,note_on,12,0,2,,,,,,,,0,,,77,74
70380,note_on,0,0,2,,,,,,,,0,,,82,74
70416,note_on,96,0,4,,,,,,,,0,,,65,0
70416,note_on,0,0,4,,,,,,,,0,,,50,0
70425,note_on,129,0,3,,,,,,,,0,,,68,87
70428,note_on,0,0,2,,,,,,,,0,,,77,0
70428,note_on,48,0,2,,,,,,,,0,,,82,0
70437,note_on,12,0,3,,,,,,,,0,,,68,0
70440,note_on,132,0,1,,,,,,,,0,,,89,87
70440,note_on,3,0,3,,,,,,,,0,,,69,87
70440,note_on,12,0,2,,,,,,,,0,,,81,74
70488,note_on,48,0,2,,,,,,,,0,,,81,0
70488,note_on,48,0,1,,,,,,,,0,,,89,0
70500,note_on,0,0,2,,,,,,,,0,,,77,74
70500,note_on,12,0,2,,,,,,,,0,,,82,74
70536,note_on,96,0,3,,,,,,,,0,,,69,0
70548,note_on,48,0,2,,,,,,,,0,,,77,0
70548,note_on,0,0,2,,,,,,,,0,,,82,0
70560,note_on,144,0,4,,,,,,,,0,,,53,88
70560,note_on,72,0,1,,,,,,,,0,,,88,88
70560,note_on,12,0,2,,,,,,,,0,,,81,74
70608,note_on,48,0,1,,,,,,,,0,,,88,0
70608,note_on,48,0,2,,,,,,,,0,,,81,0
70620,note_on,12,0,2,,,,,,,,0,,,82,74
70620,note_on,0,0,2,,,,,,,,0,,,77,74
70656,note_on,96,0,4,,,,,,,,0,,,53,0
70665,note_on,129,0,3,,,,,,,,0,,,70,88
70668,note_on,0,0,2,,,,,,,,0,,,82,0
70668,note_on,48,0,2,,,,,,,,0,,,77,0
70677,note_on,12,0,3,,,,,,,,0,,,70,0
70680,note_on,12,0,2,,,,,,,,0,,,81,74
70680,note_on,3,0,3,,,,,,,,0,,,69,88
70680,note_on,72,0,1,,,,,,,,0,,,86,88
70728,note_on,48,0,2,,,,,,,,0,,,81,0
70728,note_on,48,0,1,,,,,,,,0,,,86,0
70740,note_on,0,0,2,,,,,,,,0,,,77,74
70740,note_on,12,0,2,,,,,,,,0,,,82,74
70776,note_on,96,0,3,,,,,,,,0,,,69,0
70788,note_on,0,0,2,,,,,,,,0,,,82,0
70788,note_on,48,0,2,,,,,,,,0,,,77,0
70800,note_on,12,0,2,,,,,,,,0,,,79,75
70800,note_on,144,0,4,,,,,,,,0,,,45,88
70800,note_on,72,0,1,,,,,,,,0,,,86,88
70848,note_on,48,0,1,,,,,,,,0,,,86,0
70848,note_on,48,0,2,,,,,,,,0,,,79,0
70860,note_on,0,0,2,,,,,,,,0,,,76,75
70860,note_on,12,0,2,,,,,,,,0,,,81,75
70896,note_on,96,0,4,,,,,,,,0,,,45,0
70905,note_on,129,0,3,,,,,,,,0,,,68,88
70908,note_on,48,0,2,,,,,,,,0,,,76,0
70908,note_on,0,0,2,,,,,,,,0,,,81,0
70917,note_on,12,0,3,,,,,,,,0,,,68,0
70920,note_on,72,0,1,,,,,,,,0,,,85,88
70920,note_on,3,0,3,,,,,,,,0,,,69,88
70920,note_on,12,0,2,,,,,,,,0,,,79,75
70968,note_on,48,0,2,,,,,,,,0,,,79,0
70968,note_on,48,0,1,,,,,,,,0,,,85,0
70980,note_on,12,0,2,,,,,,,,0,,,81,75
70980,note_on,0,0,2,,,,,,,,0,,,76,75
71016,note_on,96,0,3,,,,,,,,0,,,69,0
71028,note_on,48,0,2,,,,,,,,0,,,76,0
71028,note_on,0,0,2,,,,,,,,0,,,81,0
71040,note_on,12,0,2,,,,,,,,0,,,79,75
71040,note_on,72,0,1,,,,,,,,0,,,84,88
71040,note_on,144,0,4,,,,,,,,0,,,49,88
71088,note_on,48,0,2,,,,,,,,0,,,79,0
71088,note_on,48,0,1,,,,,,,,0,,,84,0
71100,note_on,12,0,2,,,,,,,,0,,,76,76
71100,note_on,12,0,1,,,,,,,,0,,,83,89
71136,note_on,96,0,4,,,,,,,,0,,,49,0
71145,note_on,129,0,3,,,,,,,,0,,,70,89
71148,note_on,48,0,1,,,,,,,,0,,,83,0
71148,note_on,48,0,2,,,,,,,,0,,,76,0
71157,note_on,12,0,3,,,,,,,,0,,,70,0
71160,note_on,3,0,3,,,,,,,,0,,,69,89
71160,note_on,12,0,1,,,,,,,,0,,,82,89
71160,note_on,12,0,2,,,,,,,,0,,,79,76
71208,note_on,48,0,2,,,,,,,,0,,,79,0
71208,note_on,48,0,1,,,,,,,,0,,,82,0
71220,note_on,12,0,2,,,,,,,,0,,,76,76
71256,note_on,96,0,3,,,,,,,,0,,,69,0
71268,note_on,48,0,2,,,,,,,,0,,,76,0
71280,note_on,144,0,4,,,,,,,,0,,,50,89
71280,note_on,72,0,1,,,,,,,,0,,,77,89
71280,note_on,0,0,1,,,,,,,,0,,,81,89
71328,note_on,0,0,1,,,,,,,,0,,,77,0
71328,note_on,48,0,1,,,,,,,,0,,,81,0
71340,note_on,12,0,1,,,,,,,,0,,,74,89
71385,note_on,129,0,3,,,,,,,,0,,,68,90
71388,note_on,48,0,1,,,,,,,,0,,,74,0
71397,note_on,12,0,3,,,,,,,,0,,,68,0
71400,note_on,12,0,1,,,,,,,,0,,,77,90
71400,note_on,3,0,3,,,,,,,,0,,,69,90
71448,note_on,48,0,1,,,,,,,,0,,,77,0
71460,note_on,12,0,1,,,,,,,,0,,,82,90
71472,note_on,192,0,4,,,,,,,,0,,,50,0
71496,note_on,96,0,3,,,,,,,,0,,,69,0
71508,note_on,48,0,1,,,,,,,,0,,,82,0
71520,note_on,24,0,3,,,,,,,,0,,,69,90
71520,note_on,12,0,1,,,,,,,,0,,,81,90
71520,note_on,0,0,4,,,,,,,,0,,,61,90
71520,note_on,0,0,4,,,,,,,,0,,,64,90
71520,note_on,48,0,4,,,,,,,,0,,,55,90
71568,note_on,48,0,1,,,,,,,,0,,,81,0
71580,note_on,12,0,1,,,,,,,,0,,,82,90
71616,note_on,96,0,3,,,,,,,,0,,,69,0
71628,note_on,48,0,1,,,,,,,,0,,,82,0
71640,note_on,24,0,3,,,,,,,,0,,,70,90
71640,note_on,12,0,1,,,,,,,,0,,,81,90
71688,note_on,48,0,1,,,,,,,,0,,,81,0
71700,note_on,12,0,1,,,,,,,,0,,,94,91
71712,note_on,0,0,4,,,,,,,,0,,,61,0
71712,note_on,0,0,4,,,,,,,,0,,,55,0
71712,note_on,192,0,4,,,,,,,,0,,,64,0
71736,note_on,96,0,3,,,,,,,,0,,,70,0
71748,note_on,48,0,1,,,,,,,,0,,,94,0
71760,note_on,24,0,3,,,,,,,,0,,,69,91
71760,note_on,48,0,4,,,,,,,,0,,,62,91
71760,note_on,0,0,4,,,,,,,,0,,,53,91
71760,note_on,12,0,1,,,,,,,,0,,,93,91
71808,note_on,48,0,1,,,,,,,,0,,,93,0
71820,note_on,12,0,1,,,,,,,,0,,,82,91
71856,note_on,96,0,3,,,,,,,,0,,,69,0
71868,note_on,48,0,1,,,,,,,,0,,,82,0
71880,note_on,12,0,1,,,,,,,,0,,,81,91
71880,note_on,24,0,3,,,,,,,,0,,,70,91
71928,note_on,48,0,1,,,,,,,,0,,,81,0
71940,note_on,12,0,1,,,,,,,,0,,,70,91
71952,note_on,0,0,4,,,,,,,,0,,,62,0
71952,note_on,192,0,4,,,,,,,,0,,,53,0
71976,note_on,96,0,3,,,,,,,,0,,,70,0
71988,note_on,48,0,1,,,,,,,,0,,,70,0
72000,note_on,0,0,4,,,,,,,,0,,,52,92
72000,note_on,48,0,4,,,,,,,,0,,,61,92
72000,note_on,12,0,1,,,,,,,,0,,,69,92
72000,note_on,24,0,3,,,,,,,,0,,,67,92
72048,note_on,48,0,1,,,,,,,,0,,,69,0
72060,note_on,12,0,1,,,,,,,,0,,,70,92
72096,note_on,96,0,3,,,,,,,,0,,,67,0
72108,note_on,48,0,1,,,,,,,,0,,,70,0
72120,note_on,12,0,1,,,,,,,,0,,,69,92
72120,note_on,24,0,3,,,,,,,,0,,,57,92
72168,note_on,48,0,1,,,,,,,,0,,,69,0
72180,note_on,12,0,1,,,,,,,,0,,,82,92
72192,note_on,192,0,4,,,,,,,,0,,,52,0
72192,note_on,0,0,4,,,,,,,,0,,,61,0
72216,note_on,96,0,3,,,,,,,,0,,,57,0
72228,note_on,48,0,1,,,,,,,,0,,,82,0
72240,note_on,972,0,2,,,,,,,,0,,,81,78
72240,note_on,48,0,4,,,,,,,,0,,,50,92
72240,note_on,0,0,4,,,,,,,,0,,,65,92
72288,note_on,48,0,2,,,,,,,,0,,,81,0
72300,note_on,12,0,2,,,,,,,,0,,,77,78
72300,note_on,0,0,2,,,,,,,,0,,,82,78
72336,note_on,96,0,4,,,,,,,,0,,,65,0
72336,note_on,0,0,4,,,,,,,,0,,,50,0
72345,note_on,129,0,3,,,,,,,,0,,,68,92
72348,note_on,48,0,2,,,,,,,,0,,,82,0
72348,note_on,0,0,2,,,,,,,,0,,,77,0
72357,note_on,12,0,3,,,,,,,,0,,,68,0
72360,note_on,132,0,1,,,,,,,,0,,,89,92
72360,note_on,12,0,2,,,,,,,,0,,,81,78
72360,note_on,3,0,3,,,,,,,,0,,,69,92
72408,note_on,48,0,2,,,,,,,,0,,,81,0
72408,note_on,48,0,1,,,,,,,,0,,,89,0
72420,note_on,0,0,2,,,,,,,,0,,,82,78
72420,note_on,12,0,2,,,,,,,,0,,,77,78
72456,note_on,96,0,3,,,,,,,,0,,,69,0
72468,note_on,48,0,2,,,,,,,,0,,,82,0
72468,note_on,0,0,2,,,,,,,,0,,,77,0
72480,note_on,72,0,1,,,,,,,,0,,,88,92
72480,note_on,12,0,2,,,,,,,,0,,,81,78
72480,note_on,144,0,4,,,,,,,,0,,,53,92
72528,note_on,48,0,1,,,,,,,,0,,,88,0
72528,note_on,48,0,2,,,,,,,,0,,,81,0
72540,note_on,12,0,2,,,,,,,,0,,,77,78
72540,note_on,0,0,2,,,,,,,,0,,,82,78
72576,note_on,96,0,4,,,,,,,,0,,,53,0
72585,note_on,129,0,3,,,,,,,,0,,,70,93
72588,note_on,48,0,2,,,,,,,,0,,,82,0
72588,note_on,0,0,2,,,,,,,,0,,,77,0
72597,note_on,12,0,3,,,,,,,,0,,,70,0
72600,note_on,72,0,1,,,,,,,,0,,,86,93
72600,note_on,3,0,3,,,,,,,,0,,,69,93
72600,note_on,12,0,2,,,,,,,,0,,,81,79
72648,note_on,48,0,1,,,,,,,,0,,,86,0
72648,note_on,48,0,2,,,,,,,,0,,,81,0
72660,note_on,12,0,2,,,,,,,,0,,,77,79
72660,note_on,0,0,2,,,,,,,,0,,,82,79
72696,note_on,96,0,3,,,,,,,,0,,,69,0
72708,note_on,48,0,2,,,,,,,,0,,,82,0
72708,note_on,0,0,2,,,,,,,,0,,,77,0
72720,note_on,72,0,1,,,,,,,,0,,,86,93
72720,note_on,12,0,2,,,,,,,,0,,,79,79
72720,note_on,144,0,4,,,,,,,,0,,,45,93
72768,note_on,48,0,2,,,,,,,,0,,,79,0
72768,note_on,48,0,1,,,,,,,,0,,,86,0
72780,note_on,12,0,2,,,,,,,,0,,,76,79
72780,note_on,0,0,2,,,,,,,,0,,,81,79
72816,note_on,96,0,4,,,,,,,,0,,,45,0
72825,note_on,129,0,3,,,,,,,,0,,,68,93
72828,note_on,48,0,2,,,,,,,,0,,,81,0
72828,note_on,0,0,2,,,,,,,,0,,,76,0
72837,note_on,12,0,3,,,,,,,,0,,,68,0
72840,note_on,72,0,1,,,,,,,,0,,,85,93
72840,note_on,12,0,2,,,,,,,,0,,,79,79
72840,note_on,3,0,3,,,,,,,,0,,,69,93
72888,note_on,48,0,2,,,,,,,,0,,,79,0
72888,note_on,48,0,1,,,,,,,,0,,,85,0
72900,note_on,12,0,2,,,,,,,,0,,,76,80
72900,note_on,0,0,2,,,,,,,,0,,,81,80
72936,note_on,96,0,3,,,,,,,,0,,,69,0
72948,note_on,48,0,2,,,,,,,,0,,,81,0
72948,note_on,0,0,2,,,,,,,,0,,,76,0
72960,note_on,12,0,2,,,,,,,,0,,,79,80
72960,note_on,72,0,1,,,,,,,,0,,,84,94
72960,note_on,144,0,4,,,,,,,,0,,,49,94
73008,note_on,48,0,2,,,,,,,,0,,,79,0
73008,note_on,48,0,1,,,,,,,,0,,,84,0
73020,note_on,12,0,2,,,,,,,,0,,,76,80
73020,note_on,12,0,1,,,,,,,,0,,,83,94
73056,note_on,96,0,4,,,,,,,,0,,,49,0
73065,note_on,129,0,3,,,,,,,,0,,,70,94
73068,note_on,48,0,1,,,,,,,,0,,,83,0
73068,note_on,48,0,2,,,,,,,,0,,,76,0
73077,note_on,12,0,3,,,,,,,,0,,,70,0
73080,note_on,12,0,1,,,,,,,,0,,,82,94
73080,note_on,3,0,3,,,,,,,,0,,,69,94
73080,note_on,12,0,2,,,,,,,,0,,,79,80
73128,note_on,48,0,2,,,,,,,,0,,,79,0
73128,note_on,48,0,1,,,,,,,,0,,,82,0
73140,note_on,12,0,2,,,,,,,,0,,,76,80
73176,note_on,96,0,3,,,,,,,,0,,,69,0
73188,note_on,48,0,2,,,,,,,,0,,,76,0
73200,time_signature,22080,1,0,1,4,24,8,,,,,,,,
73200,note_on,72,0,1,,,,,,,,0,,,81,95
73200,note_on,0,0,1,,,,,,,,0,,,77,95
73200,note_on,144,0,4,,,,,,,,0,,,50,95
73248,note_on,0,0,1,,,,,,,,0,,,81,0
73248,note_on,48,0,1,,,,,,,,0,,,77,0
73260,note_on,12,0,1,,,,,,,,0,,,74,95
73296,note_on,96,0,4,,,,,,,,0,,,50,0
73308,note_on,48,0,1,,,,,,,,0,,,74,0
73320,note_on,12,0,1,,,,,,,,0,,,77,95
73368,note_on,48,0,1,,,,,,,,0,,,77,0
73380,note_on,12,0,1,,,,,,,,0,,,86,95
73428,note_on,48,0,1,,,,,,,,0,,,86,0
73440,note_on,12,0,1,,,,,,,,0,,,89,96
73440,note_on,0,0,4,,,,,,,,0,,,29,96
73440,note_on,252,0,2,,,,,,,,0,,,77,81
73440,control_change,144,0,4,,,,,,,,0,64,127,,
73440,time_signature,240,1,0,3,4,24,8,,,,,,,,
73440,note_on,264,0,3,,,,,,,,0,,,41,96
73488,note_on,48,0,2,,,,,,,,0,,,77,0
73488,note_on,48,0,3,,,,,,,,0,,,41,0
73500,note_on,12,0,2,,,,,,,,0,,,81,81
73500,note_on,12,0,3,,,,,,,,0,,,42,96
73500,note_on,0,0,2,,,,,,,,0,,,84,81
73548,note_on,0,0,2,,,,,,,,0,,,81,0
73548,note_on,48,0,2,,,,,,,,0,,,84,0
73548,note_on,48,0,3,,,,,,,,0,,,42,0
73560,note_on,12,0,3,,,,,,,,0,,,41,96
73560,note_on,12,0,2,,,,,,,,0,,,75,81
73584,note_on,144,0,1,,,,,,,,0,,,89,0
73608,note_on,48,0,2,,,,,,,,0,,,75,0
73608,note_on,48,0,3,,,,,,,,0,,,41,0
73620,note_on,12,0,3,,,,,,,,0,,,54,96
73620,note_on,36,0,1,,,,,,,,0,,,87,96
73632,note_on,192,0,4,,,,,,,,0,,,29,0
73668,note_on,48,0,3,,,,,,,,0,,,54,0
73668,note_on,48,0,1,,,,,,,,0,,,87,0
73680,note_on,12,0,1,,,,,,,,0,,,85,96
73680,note_on,12,0,3,,,,,,,,0,,,53,96
73680,note_on,72,0,2,,,,,,,,0,,,73,81
73728,note_on,48,0,3,,,,,,,,0,,,53,0
73728,note_on,48,0,2,,,,,,,,0,,,73,0
73740,note_on,12,0,3,,,,,,,,0,,,66,96
73740,note_on,0,0,2,,,,,,,,0,,,77,81
73740,note_on,12,0,2,,,,,,,,0,,,82,81
73788,note_on,48,0,3,,,,,,,,0,,,66,0
73788,note_on,0,0,2,,,,,,,,0,,,82,0
73788,note_on,48,0,2,,,,,,,,0,,,77,0
73800,note_on,12,0,2,,,,,,,,0,,,74,81
73800,note_on,12,0,3,,,,,,,,0,,,65,96
73824,note_on,144,0,1,,,,,,,,0,,,85,0
73848,note_on,48,0,3,,,,,,,,0,,,65,0
73848,note_on,48,0,2,,,,,,,,0,,,74,0
73860,note_on,12,0,3,,,,,,,,0,,,54,96
73860,note_on,36,0,1,,,,,,,,0,,,86,96
73908,note_on,48,0,1,,,,,,,,0,,,86,0
73908,note_on,48,0,3,,,,,,,,0,,,54,0
73920,note_on,72,0,2,,,,,,,,0,,,68,82
73920,note_on,12,0,1,,,,,,,,0,,,80,96
73920,note_on,12,0,3,,,,,,,,0,,,53,96
73968,note_on,48,0,2,,,,,,,,0,,,68,0
73968,note_on,48,0,3,,,,,,,,0,,,53,0
73980,note_on,0,0,2,,,,,,,,0,,,72,82
73980,note_on,12,0,3,,,,,,,,0,,,42,96
73980,note_on,12,0,2,,,,,,,,0,,,75,82
74028,note_on,48,0,2,,,,,,,,0,,,72,0
74028,note_on,0,0,2,,,,,,,,0,,,75,0
74028,note_on,48,0,3,,,,,,,,0,,,42,0
74040,note_on,12,0,2,,,,,,,,0,,,69,82
74040,note_on,12,0,3,,,,,,,,0,,,41,96
74064,note_on,144,0,1,,,,,,,,0,,,80,0
74088,note_on,48,0,2,,,,,,,,0,,,69,0
74088,note_on,48,0,3,,,,,,,,0,,,41,0
74100,note_on,12,0,3,,,,,,,,0,,,30,96
74100,note_on,36,0,1,,,,,,,,0,,,81,96
74148,note_on,48,0,3,,,,,,,,0,,,30,0
74148,note_on,48,0,1,,,,,,,,0,,,81,0
74160,control_change,528,0,4,,,,,,,,0,64,0,,
74160,note_on,12,0,1,,,,,,,,0,,,84,96
74160,time_signature,720,1,0,4,4,24,8,,,,,,,,
74160,note_on,72,0,2,,,,,,,,0,,,72,82
74160,note_on,0,0,4,,,,,,,,0,,,29,96
74208,note_on,48,0,2,,,,,,,,0,,,72,0
74220,note_on,12,0,2,,,,,,,,0,,,74,82
74220,note_on,0,0,2,,,,,,,,0,,,77,82
74268,note_on,48,0,2,,,,,,,,0,,,77,0
74268,note_on,0,0,2,,,,,,,,0,,,74,0
74280,note_on,12,0,2,,,,,,,,0,,,70,82
74304,note_on,144,0,1,,,,,,,,0,,,84,0
74328,note_on,48,0,2,,,,,,,,0,,,70,0
74340,note_on,36,0,1,,,,,,,,0,,,82,96
74352,note_on,192,0,4,,,,,,,,0,,,29,0
74388,note_on,48,0,1,,,,,,,,0,,,82,0
74400,note_on,72,0,2,,,,,,,,0,,,74,82
74400,note_on,12,0,1,,,,,,,,0,,,89,97
74400,note_on,252,0,3,,,,,,,,0,,,41,97
74400,note_on,48,0,4,,,,,,,,0,,,29,97
74405,control_change,5,0,4,,,,,,,,0,64,127,,
74448,note_on,48,0,3,,,,,,,,0,,,41,0
74448,note_on,48,0,2,,,,,,,,0,,,74,0
74460,note_on,12,0,3,,,,,,,,0,,,42,97
74460,note_on,12,0,2,,,,,,,,0,,,84,82
74460,note_on,0,0,2,,,,,,,,0,,,81,82
74508,note_on,48,0,2,,,,,,,,0,,,81,0
74508,note_on,48,0,3,,,,,,,,0,,,42,0
74508,note_on,0,0,2,,,,,,,,0,,,84,0
74520,note_on,12,0,2,,,,,,,,0,,,75,82
74520,note_on,12,0,3,,,,,,,,0,,,41,97
74544,note_on,144,0,1,,,,,,,,0,,,89,0
74568,note_on,48,0,2,,,,,,,,0,,,75,0
74568,note_on,48,0,3,,,,,,,,0,,,41,0
74580,note_on,12,0,3,,,,,,,,0,,,54,97
74580,note_on,36,0,1,,,,,,,,0,,,87,97
74592,note_on,187,0,4,,,,,,,,0,,,29,0
74628,note_on,48,0,1,,,,,,,,0,,,87,0
74628,note_on,48,0,3,,,,,,,,0,,,54,0
74638,control_change,46,0,4,,,,,,,,0,64,0,,
74640,note_on,12,0,1,,,,,,,,0,,,85,97
74640,note_on,72,0,2,,,,,,,,0,,,73,82
74640,note_on,12,0,3,,,,,,,,0,,,53,97
74656,control_change,18,0,4,,,,,,,,0,64,127,,
74688,note_on,48,0,2,,,,,,,,0,,,73,0
74688,note_on,48,0,3,,,,,,,,0,,,53,0
74700,note_on,12,0,3,,,,,,,,0,,,66,97
74700,note_on,12,0,2,,,,,,,,0,,,77,82
74700,note_on,0,0,2,,,,,,,,0,,,82,82
74748,note_on,48,0,2,,,,,,,,0,,,82,0
74748,note_on,48,0,3,,,,,,,,0,,,66,0
74748,note_on,0,0,2,,,,,,,,0,,,77,0
74760,note_on,12,0,2,,,,,,,,0,,,74,82
74760,note_on,12,0,3,,,,,,,,0,,,65,97
74784,note_on,144,0,1,,,,,,,,0,,,85,0
74808,note_on,48,0,3,,,,,,,,0,,,65,0
74808,note_on,48,0,2,,,,,,,,0,,,74,0
74820,note_on,12,0,3,,,,,,,,0,,,54,98
74820,note_on,36,0,1,,,,,,,,0,,,86,98
74868,note_on,48,0,1,,,,,,,,0,,,86,0
74868,note_on,48,0,3,,,,,,,,0,,,54,0
74880,note_on,12,0,3,,,,,,,,0,,,53,98
74880,note_on,72,0,2,,,,,,,,0,,,68,83
74880,note_on,12,0,1,,,,,,,,0,,,80,98
74928,note_on,48,0,2,,,,,,,,0,,,68,0
74928,note_on,48,0,3,,,,,,,,0,,,53,0
74940,note_on,12,0,3,,,,,,,,0,,,42,98
74940,note_on,12,0,2,,,,,,,,0,,,75,83
74940,note_on,0,0,2,,,,,,,,0,,,72,83
74988,note_on,48,0,3,,,,,,,,0,,,42,0
74988,note_on,0,0,2,,,,,,,,0,,,75,0
74988,note_on,48,0,2,,,,,,,,0,,,72,0
75000,note_on,12,0,3,,,,,,,,0,,,41,98
75000,note_on,12,0,2,,,,,,,,0,,,69,83
75024,note_on,144,0,1,,,,,,,,0,,,80,0
75048,note_on,48,0,2,,,,,,,,0,,,69,0
75048,note_on,48,0,3,,,,,,,,0,,,41,0
75060,note_on,36,0,1,,,,,,,,0,,,81,98
75060,note_on,12,0,3,,,,,,,,0,,,30,98
75108,note_on,48,0,3,,,,,,,,0,,,30,0
75108,note_on,48,0,1,,,,,,,,0,,,81,0
75120,control_change,0,0,4,,,,,,,,0,64,0,,
75120,note_on,72,0,2,,,,,,,,0,,,72,83
75120,note_on,464,0,4,,,,,,,,0,,,29,98
75120,note_on,12,0,1,,,,,,,,0,,,84,98
75168,note_on,48,0,2,,,,,,,,0,,,72,0
75180,note_on,12,0,2,,,,,,,,0,,,74,83
75180,note_on,0,0,2,,,,,,,,0,,,77,83
75228,note_on,48,0,2,,,,,,,,0,,,77,0
75228,note_on,0,0,2,,,,,,,,0,,,74,0
75240,note_on,12,0,2,,,,,,,,0,,,70,83
75264,note_on,144,0,1,,,,,,,,0,,,84,0
75288,note_on,48,0,2,,,,,,,,0,,,70,0
75300,note_on,36,0,1,,,,,,,,0,,,82,99
75312,note_on,192,0,4,,,,,,,,0,,,29,0
75348,note_on,48,0,1,,,,,,,,0,,,82,0
75358,control_change,46,0,4,,,,,,,,0,64,127,,
75360,note_on,252,0,3,,,,,,,,0,,,46,99
75360,note_on,72,0,2,,,,,,,,0,,,82,84
75360,note_on,12,0,1,,,,,,,,0,,,94,99
75360,note_on,2,0,4,,,,,,,,0,,,34,99
75408,note_on,48,0,3,,,,,,,,0,,,46,0
75408,note_on,48,0,2,,,,,,,,0,,,82,0
75420,note_on,12,0,3,,,,,,,,0,,,47,99
75420,note_on,0,0,2,,,,,,,,0,,,86,84
75420,note_on,12,0,2,,,,,,,,0,,,89,84
75468,note_on,0,0,2,,,,,,,,0,,,89,0
75468,note_on,48,0,3,,,,,,,,0,,,47,0
75468,note_on,48,0,2,,,,,,,,0,,,86,0
75480,note_on,12,0,3,,,,,,,,0,,,46,99
75480,note_on,12,0,2,,,,,,,,0,,,80,84
75504,note_on,144,0,1,,,,,,,,0,,,94,0
75528,note_on,48,0,3,,,,,,,,0,,,46,0
75528,note_on,48,0,2,,,,,,,,0,,,80,0
75540,note_on,36,0,1,,,,,,,,0,,,92,99
75540,note_on,12,0,3,,,,,,,,0,,,59,99
75552,note_on,192,0,4,,,,,,,,0,,,34,0
75588,note_on,48,0,1,,,,,,,,0,,,92,0
75588,note_on,48,0,3,,,,,,,,0,,,59,0
75600,note_on,12,0,3,,,,,,,,0,,,58,99
75600,note_on,72,0,2,,,,,,,,0,,,77,84
75600,note_on,12,0,1,,,,,,,,0,,,89,99
75621,control_change,69,0,4,,,,,,,,0,64,0,,
75633,control_change,12,0,4,,,,,,,,0,64,127,,
75648,note_on,48,0,2,,,,,,,,0,,,77,0
75648,note_on,48,0,3,,,,,,,,0,,,58,0
75660,note_on,12,0,3,,,,,,,,0,,,71,99
75660,note_on,12,0,2,,,,,,,,0,,,82,84
75660,note_on,0,0,2,,,,,,,,0,,,87,84
75708,note_on,0,0,2,,,,,,,,0,,,82,0
75708,note_on,48,0,2,,,,,,,,0,,,87,0
75708,note_on,48,0,3,,,,,,,,0,,,71,0
75720,note_on,12,0,2,,,,,,,,0,,,78,85
75720,note_on,12,0,3,,,,,,,,0,,,70,100
75744,note_on,144,0,1,,,,,,,,0,,,89,0
75768,note_on,48,0,2,,,,,,,,0,,,78,0
75768,note_on,48,0,3,,,,,,,,0,,,70,0
75780,note_on,36,0,1,,,,,,,,0,,,90,100
75780,note_on,12,0,3,,,,,,,,0,,,59,100
75828,note_on,48,0,3,,,,,,,,0,,,59,0
75828,note_on,48,0,1,,,,,,,,0,,,90,0
75840,note_on,72,0,2,,,,,,,,0,,,73,85
75840,note_on,12,0,1,,,,,,,,0,,,85,100
75840,note_on,12,0,3,,,,,,,,0,,,58,100
75888,note_on,48,0,3,,,,,,,,0,,,58,0
75888,note_on,48,0,2,,,,,,,,0,,,73,0
75900,note_on,12,0,2,,,,,,,,0,,,80,85
75900,note_on,0,0,2,,,,,,,,0,,,77,85
75900,note_on,12,0,3,,,,,,,,0,,,47,100
75948,note_on,0,0,2,,,,,,,,0,,,80,0
75948,note_on,48,0,3,,,,,,,,0,,,47,0
75948,note_on,48,0,2,,,,,,,,0,,,77,0
75960,note_on,12,0,3,,,,,,,,0,,,46,100
75960,note_on,12,0,2,,,,,,,,0,,,74,85
75984,note_on,144,0,1,,,,,,,,0,,,85,0
76008,note_on,48,0,3,,,,,,,,0,,,46,0
76008,note_on,48,0,2,,,,,,,,0,,,74,0
76020,note_on,12,0,3,,,,,,,,0,,,35,100
76020,note_on,36,0,1,,,,,,,,0,,,86,100
76068,note_on,48,0,1,,,,,,,,0,,,86,0
76068,note_on,48,0,3,,,,,,,,0,,,35,0
76080,note_on,72,0,2,,,,,,,,0,,,77,85
76080,control_change,0,0,4,,,,,,,,0,64,0,,
76080,note_on,12,0,1,,,,,,,,0,,,89,100
76080,note_on,447,0,4,,,,,,,,0,,,34,100
76128,note_on,48,0,2,,,,,,,,0,,,77,0
76140,note_on,0,0,2,,,,,,,,0,,,78,85
76140,note_on,12,0,2,,,,,,,,0,,,82,85
76188,note_on,0,0,2,,,,,,,,0,,,82,0
76188,note_on,48,0,2,,,,,,,,0,,,78,0
76200,note_on,12,0,2,,,,,,,,0,,,75,85
76224,note_on,144,0,1,,,,,,,,0,,,89,0
76248,note_on,48,0,2,,,,,,,,0,,,75,0
76260,note_on,36,0,1,,,,,,,,0,,,87,100
76272,note_on,192,0,4,,,,,,,,0,,,34,0
76308,note_on,48,0,1,,,,,,,,0,,,87,0
76316,control_change,44,0,4,,,,,,,,0,64,127,,
76320,note_on,12,0,1,,,,,,,,0,,,94,100
76320,note_on,72,0,2,,,,,,,,0,,,82,85
76320,note_on,4,0,4,,,,,,,,0,,,34,100
76320,note_on,252,0,3,,,,,,,,0,,,46,100
76368,note_on,48,0,2,,,,,,,,0,,,82,0
76368,note_on,48,0,3,,,,,,,,0,,,46,0
76380,note_on,12,0,2,,,,,,,,0,,,89,85
76380,note_on,12,0,3,,,,,,,,0,,,47,100
76380,note_on,0,0,2,,,,,,,,0,,,86,85
76428,note_on,0,0,2,,,,,,,,0,,,89,0
76428,note_on,48,0,3,,,,,,,,0,,,47,0
76428,note_on,48,0,2,,,,,,,,0,,,86,0
76440,note_on,12,0,3,,,,,,,,0,,,46,100
76440,note_on,12,0,2,,,,,,,,0,,,80,85
76464,note_on,144,0,1,,,,,,,,0,,,94,0
76488,note_on,48,0,2,,,,,,,,0,,,80,0
76488,note_on,48,0,3,,,,,,,,0,,,46,0
76500,note_on,36,0,1,,,,,,,,0,,,92,100
76500,note_on,12,0,3,,,,,,,,0,,,59,100
76512,note_on,192,0,4,,,,,,,,0,,,34,0
76548,note_on,48,0,3,,,,,,,,0,,,59,0
76548,note_on,48,0,1,,,,,,,,0,,,92,0
76560,note_on,12,0,3,,,,,,,,0,,,58,100
76560,note_on,72,0,2,,,,,,,,0,,,77,85
76560,note_on,12,0,1,,,,,,,,0,,,89,100
76568,control_change,56,0,4,,,,,,,,0,64,0,,
76593,control_change,25,0,4,,,,,,,,0,64,127,,
76608,note_on,48,0,3,,,,,,,,0,,,58,0
76608,note_on,48,0,2,,,,,,,,0,,,77,0
76620,note_on,12,0,2,,,,,,,,0,,,87,85
76620,note_on,12,0,3,,,,,,,,0,,,71,100
76620,note_on,0,0,2,,,,,,,,0,,,82,85
76668,note_on,48,0,3,,,,,,,,0,,,71,0
76668,note_on,48,0,2,,,,,,,,0,,,82,0
76668,note_on,0,0,2,,,,,,,,0,,,87,0
76680,note_on,12,0,3,,,,,,,,0,,,70,101
76680,note_on,12,0,2,,,,,,,,0,,,78,86
76704,note_on,144,0,1,,,,,,,,0,,,89,0
76728,note_on,48,0,3,,,,,,,,0,,,70,0
76728,note_on,48,0,2,,,,,,,,0,,,78,0
76740,note_on,36,0,1,,,,,,,,0,,,90,101
76740,note_on,12,0,3,,,,,,,,0,,,59,101
76788,note_on,48,0,1,,,,,,,,0,,,90,0
76788,note_on,48,0,3,,,,,,,,0,,,59,0
76800,note_on,12,0,3,,,,,,,,0,,,58,101
76800,note_on,72,0,2,,,,,,,,0,,,73,86
76800,note_on,12,0,1,,,,,,,,0,,,85,101
76848,note_on,48,0,3,,,,,,,,0,,,58,0
76848,note_on,48,0,2,,,,,,,,0,,,73,0
76860,note_on,12,0,2,,,,,,,,0,,,80,86
76860,note_on,12,0,3,,,,,,,,0,,,47,101
76860,note_on,0,0,2,,,,,,,,0,,,77,86
76908,note_on,48,0,2,,,,,,,,0,,,77,0
76908,note_on,48,0,3,,,,,,,,0,,,47,0
76908,note_on,0,0,2,,,,,,,,0,,,80,0
76920,note_on,12,0,3,,,,,,,,0,,,46,101
76920,note_on,12,0,2,,,,,,,,0,,,74,86
76944,note_on,144,0,1,,,,,,,,0,,,85,0
76968,note_on,48,0,3,,,,,,,,0,,,46,0
76968,note_on,48,0,2,,,,,,,,0,,,74,0
76980,note_on,12,0,3,,,,,,,,0,,,35,101
76980,note_on,36,0,1,,,,,,,,0,,,86,101
77028,note_on,48,0,3,,,,,,,,0,,,35,0
77028,note_on,48,0,1,,,,,,,,0,,,86,0
77040,note_on,72,0,2,,,,,,,,0,,,77,101
77040,control_change,0,0,4,,,,,,,,0,64,0,,
77040,note_on,447,0,4,,,,,,,,0,,,34,101
77040,note_on,12,0,1,,,,,,,,0,,,89,101
77088,note_on,48,0,2,,,,,,,,0,,,77,0
77100,note_on,12,0,2,,,,,,,,0,,,78,102
77100,note_on,0,0,2,,,,,,,,0,,,82,102
77148,note_on,0,0,2,,,,,,,,0,,,78,0
77148,note_on,48,0,2,,,,,,,,0,,,82,0
77160,note_on,12,0,2,,,,,,,,0,,,75,102
77184,note_on,144,0,1,,,,,,,,0,,,89,0
77208,note_on,48,0,2,,,,,,,,0,,,75,0
77220,note_on,36,0,1,,,,,,,,0,,,87,102
77232,note_on,192,0,4,,,,,,,,0,,,34,0
77268,note_on,48,0,1,,,,,,,,0,,,87,0
77280,note_on,0,0,4,,,,,,,,0,,,34,102
77280,note_on,12,0,1,,,,,,,,0,,,97,102
77280,note_on,48,0,4,,,,,,,,0,,,46,102
77280,note_on,72,0,2,,,,,,,,0,,,85,102
77328,note_on,48,0,2,,,,,,,,0,,,85,0
77340,note_on,12,0,2,,,,,,,,0,,,90,102
77376,note_on,96,0,4,,,,,,,,0,,,34,0
77376,note_on,0,0,4,,,,,,,,0,,,46,0
77388,note_on,48,0,2,,,,,,,,0,,,90,0
77400,note_on,0,0,4,,,,,,,,0,,,54,102
77400,note_on,12,0,2,,,,,,,,0,,,85,102
77400,note_on,24,0,4,,,,,,,,0,,,42,102
77424,note_on,144,0,1,,,,,,,,0,,,97,0
77448,note_on,48,0,2,,,,,,,,0,,,85,0
77460,note_on,36,0,1,,,,,,,,0,,,97,102
77496,note_on,0,0,4,,,,,,,,0,,,42,0
77496,note_on,96,0,4,,,,,,,,0,,,54,0
77508,note_on,48,0,1,,,,,,,,0,,,97,0
77520,note_on,72,0,2,,,,,,,,0,,,88,102
77520,note_on,24,0,4,,,,,,,,0,,,47,102
77520,note_on,12,0,1,,,,,,,,0,,,100,102
77520,note_on,0,0,4,,,,,,,,0,,,35,102
77568,note_on,48,0,2,,,,,,,,0,,,88,0
77580,note_on,12,0,2,,,,,,,,0,,,90,103
77616,note_on,0,0,4,,,,,,,,0,,,47,0
77616,note_on,96,0,4,,,,,,,,0,,,35,0
77628,note_on,48,0,2,,,,,,,,0,,,90,0
77640,note_on,12,0,2,,,,,,,,0,,,87,103
77640,note_on,0,0,4,,,,,,,,0,,,54,103
77640,note_on,24,0,4,,,,,,,,0,,,42,103
77664,note_on,144,0,1,,,,,,,,0,,,100,0
77688,note_on,48,0,2,,,,,,,,0,,,87,0
77700,note_on,36,0,1,,,,,,,,0,,,99,103
77736,note_on,0,0,4,,,,,,,,0,,,42,0
77736,note_on,96,0,4,,,,,,,,0,,,54,0
77748,note_on,48,0,1,,,,,,,,0,,,99,0
77760,note_on,72,0,2,,,,,,,,0,,,81,103
77760,note_on,24,0,4,,,,,,,,0,,,37,103
77760,note_on,0,0,4,,,,,,,,0,,,49,103
77760,note_on,12,0,1,,,,,,,,0,,,93,103
77808,note_on,48,0,2,,,,,,,,0,,,81,0
77820,note_on,12,0,2,,,,,,,,0,,,90,103
77820,note_on,0,0,2,,,,,,,,0,,,88,103
77856,note_on,0,0,4,,,,,,,,0,,,37,0
77856,note_on,96,0,4,,,,,,,,0,,,49,0
77868,note_on,0,0,2,,,,,,,,0,,,90,0
77868,note_on,48,0,2,,,,,,,,0,,,88,0
77880,note_on,24,0,4,,,,,,,,0,,,54,103
77880,note_on,12,0,2,,,,,,,,0,,,82,103
77880,note_on,0,0,4,,,,,,,,0,,,42,103
77904,note_on,144,0,1,,,,,,,,0,,,93,0
77928,note_on,48,0,2,,,,,,,,0,,,82,0
77940,note_on,36,0,1,,,,,,,,0,,,94,103
77976,note_on,0,0,4,,,,,,,,0,,,54,0
77976,note_on,96,0,4,,,,,,,,0,,,42,0
77988,note_on,48,0,1,,,,,,,,0,,,94,0
78000,note_on,12,0,1,,,,,,,,0,,,85,104
78000,note_on,72,0,2,,,,,,,,0,,,97,104
78000,note_on,0,0,4,,,,,,,,0,,,39,104
78000,note_on,24,0,4,,,,,,,,0,,,51,104
78048,note_on,48,0,1,,,,,,,,0,,,85,0
78060,note_on,12,0,1,,,,,,,,0,,,87,104
78060,note_on,0,0,1,,,,,,,,0,,,90,104
78096,note_on,96,0,4,,,,,,,,0,,,39,0
78096,note_on,0,0,4,,,,,,,,0,,,51,0
78108,note_on,0,0,1,,,,,,,,0,,,87,0
78108,note_on,48,0,1,,,,,,,,0,,,90,0
78120,note_on,12,0,1,,,,,,,,0,,,83,104
78120,note_on,24,0,4,,,,,,,,0,,,42,104
78120,note_on,0,0,4,,,,,,,,0,,,54,104
78144,note_on,144,0,2,,,,,,,,0,,,97,0
78168,note_on,48,0,1,,,,,,,,0,,,83,0
78180,note_on,36,0,2,,,,,,,,0,,,95,104
78216,note_on,96,0,4,,,,,,,,0,,,54,0
78216,note_on,0,0,4,,,,,,,,0,,,42,0
78228,note_on,48,0,2,,,,,,,,0,,,95,0
78234,control_change,18,0,4,,,,,,,,0,64,0,,
78240,note_on,72,0,1,,,,,,,,0,,,91,104
78240,note_on,0,0,1,,,,,,,,0,,,96,104
78240,note_on,6,0,4,,,,,,,,0,,,52,104
78240,note_on,0,0,4,,,,,,,,0,,,40,104
78254,control_change,14,0,4,,,,,,,,0,64,127,,
78288,note_on,0,0,1,,,,,,,,0,,,91,0
78288,note_on,48,0,1,,,,,,,,0,,,96,0
78300,note_on,0,0,1,,,,,,,,0,,,85,104
78300,note_on,12,0,1,,,,,,,,0,,,94,104
78336,note_on,0,0,4,,,,,,,,0,,,52,0
78336,note_on,82,0,4,,,,,,,,0,,,40,0
78348,note_on,0,0,1,,,,,,,,0,,,94,0
78348,note_on,48,0,1,,,,,,,,0,,,85,0
78360,note_on,24,0,4,,,,,,,,0,,,43,104
78360,note_on,12,0,1,,,,,,,,0,,,96,104
78360,note_on,0,0,1,,,,,,,,0,,,91,104
78360,note_on,0,0,4,,,,,,,,0,,,55,104
78408,note_on,48,0,1,,,,,,,,0,,,91,0
78408,note_on,0,0,1,,,,,,,,0,,,96,0
78420,note_on,12,0,1,,,,,,,,0,,,85,104
78420,note_on,0,0,1,,,,,,,,0,,,94,104
78456,note_on,96,0,4,,,,,,,,0,,,55,0
78456,note_on,0,0,4,,,,,,,,0,,,43,0
78468,note_on,0,0,1,,,,,,,,0,,,85,0
78468,note_on,48,0,1,,,,,,,,0,,,94,0
78478,control_change,22,0,4,,,,,,,,0,64,0,,
78480,note_on,2,0,4,,,,,,,,0,,,58,104
78480,note_on,0,0,4,,,,,,,,0,,,46,104
78480,note_on,12,0,1,,,,,,,,0,,,88,104
78480,note_on,0,0,1,,,,,,,,0,,,93,104
78492,control_change,12,0,4,,,,,,,,0,64,127,,
78528,note_on,0,0,1,,,,,,,,0,,,88,0
78528,note_on,48,0,1,,,,,,,,0,,,93,0
78540,note_on,0,0,1,,,,,,,,0,,,91,104
78540,note_on,12,0,1,,,,,,,,0,,,82,104
78576,note_on,0,0,4,,,,,,,,0,,,58,0
78576,note_on,84,0,4,,,,,,,,0,,,46,0
78588,note_on,0,0,1,,,,,,,,0,,,82,0
78588,note_on,48,0,1,,,,,,,,0,,,91,0
78600,note_on,12,0,1,,,,,,,,0,,,88,104
78600,note_on,0,0,1,,,,,,,,0,,,93,104
78600,note_on,0,0,4,,,,,,,,0,,,49,104
78600,note_on,24,0,4,,,,,,,,0,,,61,104
78648,note_on,48,0,1,,,,,,,,0,,,93,0
78648,note_on,0,0,1,,,,,,,,0,,,88,0
78660,note_on,12,0,1,,,,,,,,0,,,82,104
78660,note_on,0,0,1,,,,,,,,0,,,91,104
78696,note_on,0,0,4,,,,,,,,0,,,61,0
78696,note_on,96,0,4,,,,,,,,0,,,49,0
78708,note_on,48,0,1,,,,,,,,0,,,91,0
78708,note_on,0,0,1,,,,,,,,0,,,82,0
78720,note_on,0,0,4,,,,,,,,0,,,52,104
78720,note_on,12,0,1,,,,,,,,0,,,82,104
78720,note_on,0,0,1,,,,,,,,0,,,90,104
78720,note_on,24,0,4,,,,,,,,0,,,64,104
78722,control_change,2,0,4,,,,,,,,0,64,0,,
78747,control_change,25,0,4,,,,,,,,0,64,127,,
78768,note_on,0,0,1,,,,,,,,0,,,82,0
78768,note_on,48,0,1,,,,,,,,0,,,90,0
78780,note_on,12,0,1,,,,,,,,0,,,79,104
78780,note_on,0,0,1,,,,,,,,0,,,88,104
78816,note_on,69,0,4,,,,,,,,0,,,52,0
78816,note_on,0,0,4,,,,,,,,0,,,64,0
78828,note_on,48,0,1,,,,,,,,0,,,88,0
78828,note_on,0,0,1,,,,,,,,0,,,79,0
78840,note_on,24,0,4,,,,,,,,0,,,67,104
78840,note_on,0,0,4,,,,,,,,0,,,55,104
78840,note_on,0,0,1,,,,,,,,0,,,90,104
78840,note_on,12,0,1,,,,,,,,0,,,82,104
78888,note_on,48,0,1,,,,,,,,0,,,90,0
78888,note_on,0,0,1,,,,,,,,0,,,82,0
78900,note_on,12,0,1,,,,,,,,0,,,88,104
78900,note_on,0,0,1,,,,,,,,0,,,79,104
78936,note_on,96,0,4,,,,,,,,0,,,55,0
78936,note_on,0,0,4,,,,,,,,0,,,67,0
78948,note_on,48,0,1,,,,,,,,0,,,79,0
78948,note_on,0,0,1,,,,,,,,0,,,88,0
78960,note_on,12,0,1,,,,,,,,0,,,79,104
78960,control_change,24,0,4,,,,,,,,0,64,0,,
78960,note_on,0,0,2,,,,,,,,0,,,70,104
78960,note_on,732,0,2,,,,,,,,0,,,58,104
78960,note_on,0,0,1,,,,,,,,0,,,87,104
78983,control_change,23,0,4,,,,,,,,0,64,127,,
79008,note_on,0,0,1,,,,,,,,0,,,79,0
79008,note_on,48,0,1,,,,,,,,0,,,87,0
79020,note_on,0,0,1,,,,,,,,0,,,85,104
79020,note_on,12,0,1,,,,,,,,0,,,76,104
79056,note_on,0,0,2,,,,,,,,0,,,58,0
79056,note_on,96,0,2,,,,,,,,0,,,70,0
79068,note_on,48,0,1,,,,,,,,0,,,85,0
79068,note_on,0,0,1,,,,,,,,0,,,76,0
79080,note_on,0,0,2,,,,,,,,0,,,61,104
79080,note_on,24,0,2,,,,,,,,0,,,73,104
79080,note_on,12,0,1,,,,,,,,0,,,87,104
79080,note_on,0,0,1,,,,,,,,0,,,79,104
79128,note_on,48,0,1,,,,,,,,0,,,79,0
79128,note_on,0,0,1,,,,,,,,0,,,87,0
79140,note_on,0,0,1,,,,,,,,0,,,85,104
79140,note_on,12,0,1,,,,,,,,0,,,76,104
79176,note_on,96,0,2,,,,,,,,0,,,61,0
79176,note_on,0,0,2,,,,,,,,0,,,73,0
79188,note_on,48,0,1,,,,,,,,0,,,85,0
79188,note_on,0,0,1,,,,,,,,0,,,76,0
79200,note_on,24,0,2,,,,,,,,0,,,76,104
79200,note_on,12,0,1,,,,,,,,0,,,79,104
79200,note_on,0,0,1,,,,,,,,0,,,84,104
79200,control_change,217,0,4,,,,,,,,0,64,0,,
79221,control_change,21,0,4,,,,,,,,0,64,127,,
79248,note_on,0,0,1,,,,,,,,0,,,79,0
79248,note_on,48,0,1,,,,,,,,0,,,84,0
79260,note_on,0,0,1,,,,,,,,0,,,81,104
79260,note_on,12,0,1,,,,,,,,0,,,73,104
79296,note_on,96,0,2,,,,,,,,0,,,76,0
79308,note_on,0,0,1,,,,,,,,0,,,73,0
79308,note_on,48,0,1,,,,,,,,0,,,81,0
79320,note_on,12,0,1,,,,,,,,0,,,84,104
79320,note_on,24,0,2,,,,,,,,0,,,64,104
79320,note_on,0,0,1,,,,,,,,0,,,79,104
79368,note_on,48,0,1,,,,,,,,0,,,79,0
79368,note_on,0,0,1,,,,,,,,0,,,84,0
79380,note_on,0,0,1,,,,,,,,0,,,82,104
79380,note_on,12,0,1,,,,,,,,0,,,73,104
79416,note_on,96,0,2,,,,,,,,0,,,64,0
79428,note_on,48,0,1,,,,,,,,0,,,82,0
79428,note_on,0,0,1,,,,,,,,0,,,73,0
79440,note_on,12,0,1,,,,,,,,0,,,76,104
79440,note_on,24,0,2,,,,,,,,0,,,73,104
79440,note_on,0,0,1,,,,,,,,0,,,81,104
79442,control_change,221,0,4,,,,,,,,0,64,0,,
79461,control_change,19,0,4,,,,,,,,0,64,127,,
79488,note_on,48,0,1,,,,,,,,0,,,81,0
79488,note_on,0,0,1,,,,,,,,0,,,76,0
79500,note_on,0,0,1,,,,,,,,0,,,78,104
79500,note_on,12,0,1,,,,,,,,0,,,70,104
79536,note_on,96,0,2,,,,,,,,0,,,73,0
79548,note_on,0,0,1,,,,,,,,0,,,70,0
79548,note_on,48,0,1,,,,,,,,0,,,78,0
79560,note_on,0,0,1,,,,,,,,0,,,81,104
79560,note_on,24,0,2,,,,,,,,0,,,61,104
79560,note_on,12,0,1,,,,,,,,0,,,76,104
79608,note_on,48,0,1,,,,,,,,0,,,81,0
79608,note_on,0,0,1,,,,,,,,0,,,76,0
79620,note_on,0,0,1,,,,,,,,0,,,70,104
79620,note_on,12,0,1,,,,,,,,0,,,79,104
79656,note_on,96,0,2,,,,,,,,0,,,61,0
79668,note_on,48,0,1,,,,,,,,0,,,70,0
79668,note_on,0,0,1,,,,,,,,0,,,79,0
79680,note_on,0,0,1,,,,,,,,0,,,77,104
79680,note_on,24,0,2,,,,,,,,0,,,70,104
79680,note_on,12,0,1,,,,,,,,0,,,73,104
79685,control_change,224,0,4,,,,,,,,0,64,0,,
79705,control_change,20,0,4,,,,,,,,0,64,127,,
79728,note_on,0,0,1,,,,,,,,0,,,73,0
79728,note_on,48,0,1,,,,,,,,0,,,77,0
79740,note_on,0,0,1,,,,,,,,0,,,75,104
79740,note_on,12,0,1,,,,,,,,0,,,67,104
79776,note_on,96,0,2,,,,,,,,0,,,70,0
79788,note_on,0,0,1,,,,,,,,0,,,67,0
79788,note_on,48,0,1,,,,,,,,0,,,75,0
79800,note_on,24,0,2,,,,,,,,0,,,58,104
79800,note_on,0,0,1,,,,,,,,0,,,77,104
79800,note_on,12,0,1,,,,,,,,0,,,73,104
79848,note_on,0,0,1,,,,,,,,0,,,73,0
79848,note_on,48,0,1,,,,,,,,0,,,77,0
79860,note_on,0,0,1,,,,,,,,0,,,76,104
79860,note_on,12,0,1,,,,,,,,0,,,67,104
79896,note_on,96,0,2,,,,,,,,0,,,58,0
79908,note_on,48,0,1,,,,,,,,0,,,76,0
79908,note_on,0,0,1,,,,,,,,0,,,67,0
79920,note_on,0,0,2,,,,,,,,0,,,74,80
79920,note_on,24,0,2,,,,,,,,0,,,70,80
79920,note_on,0,0,4,,,,,,,,0,,,67,80
79920,note_on,0,0,4,,,,,,,,0,,,62,80
79920,note_on,12,0,1,,,,,,,,0,,,79,80
79920,note_on,215,0,4,,,,,,,,0,,,53,80
79920,control_change,0,0,4,,,,,,,,0,64,0,,
79948,control_change,28,0,4,,,,,,,,0,64,127,,
79968,note_on,48,0,2,,,,,,,,0,,,74,0
79968,note_on,0,0,2,,,,,,,,0,,,70,0
79980,note_on,12,0,2,,,,,,,,0,,,65,104
80028,note_on,48,0,2,,,,,,,,0,,,65,0
80040,note_on,12,0,2,,,,,,,,0,,,70,103
80040,note_on,0,0,2,,,,,,,,0,,,74,103
80064,note_on,144,0,1,,,,,,,,0,,,79,0
80088,note_on,0,0,2,,,,,,,,0,,,70,0
80088,note_on,48,0,2,,,,,,,,0,,,74,0
80100,note_on,36,0,1,,,,,,,,0,,,77,103
80112,note_on,0,0,4,,,,,,,,0,,,53,0
80112,note_on,0,0,4,,,,,,,,0,,,62,0
80112,note_on,164,0,4,,,,,,,,0,,,67,0
80148,note_on,48,0,1,,,,,,,,0,,,77,0
80160,note_on,12,0,1,,,,,,,,0,,,74,102
80160,note_on,48,0,4,,,,,,,,0,,,53,102
80160,note_on,72,0,2,,,,,,,,0,,,68,102
80160,control_change,0,0,4,,,,,,,,0,64,0,,
80160,note_on,0,0,4,,,,,,,,0,,,59,102
80181,control_change,21,0,4,,,,,,,,0,64,127,,
80208,note_on,48,0,2,,,,,,,,0,,,68,0
80220,note_on,12,0,2,,,,,,,,0,,,65,101
80268,note_on,48,0,2,,,,,,,,0,,,65,0
80280,note_on,12,0,2,,,,,,,,0,,,68,101
80304,note_on,144,0,1,,,,,,,,0,,,74,0
80328,note_on,48,0,2,,,,,,,,0,,,68,0
80340,note_on,36,0,1,,,,,,,,0,,,75,100
80352,note_on,171,0,4,,,,,,,,0,,,59,0
80388,note_on,48,0,1,,,,,,,,0,,,75,0
80395,control_change,43,0,4,,,,,,,,0,64,0,,
80400,note_on,12,0,1,,,,,,,,0,,,74,100
80400,note_on,5,0,4,,,,,,,,0,,,60,100
80400,note_on,72,0,2,,,,,,,,0,,,70,100
80400,note_on,0,0,2,,,,,,,,0,,,64,100
80416,control_change,16,0,4,,,,,,,,0,64,127,,
80448,note_on,48,0,2,,,,,,,,0,,,64,0
80448,note_on,0,0,2,,,,,,,,0,,,70,0
80460,note_on,12,0,2,,,,,,,,0,,,67,100
80496,note_on,0,0,4,,,,,,,,0,,,53,0
80496,note_on,80,0,4,,,,,,,,0,,,60,0
80508,note_on,48,0,2,,,,,,,,0,,,67,0
80520,note_on,24,0,4,,,,,,,,0,,,43,99
80520,note_on,12,0,2,,,,,,,,0,,,64,99
80544,note_on,144,0,1,,,,,,,,0,,,74,0
80568,note_on,48,0,4,,,,,,,,0,,,43,0
80568,note_on,48,0,2,,,,,,,,0,,,64,0
80580,note_on,12,0,4,,,,,,,,0,,,41,99
80580,note_on,36,0,1,,,,,,,,0,,,72,99
80628,note_on,48,0,1,,,,,,,,0,,,72,0
80628,note_on,48,0,4,,,,,,,,0,,,41,0
80640,note_on,12,0,4,,,,,,,,0,,,55,98
80640,note_on,12,0,1,,,,,,,,0,,,67,98
80640,note_on,72,0,2,,,,,,,,0,,,63,98
80649,control_change,9,0,4,,,,,,,,0,64,0,,
80672,control_change,23,0,4,,,,,,,,0,64,127,,
80688,note_on,48,0,2,,,,,,,,0,,,63,0
80688,note_on,16,0,4,,,,,,,,0,,,55,0
80700,note_on,12,0,4,,,,,,,,0,,,53,97
80700,note_on,12,0,2,,,,,,,,0,,,60,97
80748,note_on,48,0,4,,,,,,,,0,,,53,0
80748,note_on,48,0,2,,,,,,,,0,,,60,0
80760,note_on,12,0,2,,,,,,,,0,,,63,97
80760,note_on,12,0,4,,,,,,,,0,,,43,97
80784,note_on,144,0,1,,,,,,,,0,,,67,0
80808,note_on,48,0,4,,,,,,,,0,,,43,0
80808,note_on,48,0,2,,,,,,,,0,,,63,0
80820,note_on,36,0,1,,,,,,,,0,,,69,96
80820,note_on,12,0,4,,,,,,,,0,,,41,96
80868,note_on,48,0,1,,,,,,,,0,,,69,0
80880,note_on,12,0,1,,,,,,,,0,,,79,96
80880,note_on,0,0,2,,,,,,,,0,,,70,96
80880,control_change,60,0,4,,,,,,,,0,64,0,,
80880,note_on,0,0,4,,,,,,,,0,,,53,96
80880,note_on,72,0,2,,,,,,,,0,,,74,96
80900,set_tempo,6740,1,0,,,,,,370622,,,,,,
80903,control_change,23,0,4,,,,,,,,0,64,127,,
80928,note_on,0,0,2,,,,,,,,0,,,74,0
80928,note_on,48,0,2,,,,,,,,0,,,70,0
80940,note_on,12,0,2,,,,,,,,0,,,65,96
80983,set_tempo,83,1,0,,,,,,372902,,,,,,
80988,note_on,48,0,2,,,,,,,,0,,,65,0
81000,note_on,0,0,2,,,,,,,,0,,,70,95
81000,note_on,12,0,2,,,,,,,,0,,,74,95
81024,note_on,144,0,1,,,,,,,,0,,,79,0
81048,note_on,0,0,2,,,,,,,,0,,,74,0
81048,note_on,48,0,2,,,,,,,,0,,,70,0
81060,note_on,36,0,1,,,,,,,,0,,,77,95
81062,set_tempo,79,1,0,,,,,,375211,,,,,,
81072,note_on,0,0,4,,,,,,,,0,,,41,0
81072,note_on,169,0,4,,,,,,,,0,,,53,0
81108,note_on,48,0,1,,,,,,,,0,,,77,0
81120,note_on,72,0,2,,,,,,,,0,,,68,94
81120,note_on,12,0,1,,,,,,,,0,,,74,94
81120,note_on,48,0,4,,,,,,,,0,,,59,94
81120,note_on,0,0,4,,,,,,,,0,,,53,94
81125,control_change,5,0,4,,,,,,,,0,64,0,,
81140,set_tempo,78,1,0,,,,,,377548,,,,,,
81141,control_change,16,0,4,,,,,,,,0,64,127,,
81168,note_on,48,0,2,,,,,,,,0,,,68,0
81180,note_on,12,0,2,,,,,,,,0,,,65,93
81219,set_tempo,79,1,0,,,,,,379915,,,,,,
81228,note_on,48,0,2,,,,,,,,0,,,65,0
81240,note_on,12,0,2,,,,,,,,0,,,68,93
81264,note_on,144,0,1,,,,,,,,0,,,74,0
81288,note_on,48,0,2,,,,,,,,0,,,68,0
81297,set_tempo,78,1,0,,,,,,382312,,,,,,
81300,note_on,36,0,1,,,,,,,,0,,,75,92
81312,note_on,171,0,4,,,,,,,,0,,,59,0
81348,note_on,48,0,1,,,,,,,,0,,,75,0
81360,note_on,12,0,1,,,,,,,,0,,,74,92
81360,control_change,0,0,4,,,,,,,,0,64,0,,
81360,note_on,48,0,4,,,,,,,,0,,,60,92
81360,note_on,0,0,2,,,,,,,,0,,,70,92
81360,note_on,72,0,2,,,,,,,,0,,,64,92
81376,set_tempo,79,1,0,,,,,,384739,,,,,,
81388,control_change,28,0,4,,,,,,,,0,64,127,,
81408,note_on,48,0,2,,,,,,,,0,,,70,0
81408,note_on,0,0,2,,,,,,,,0,,,64,0
81420,note_on,12,0,2,,,,,,,,0,,,67,92
81454,set_tempo,78,1,0,,,,,,387197,,,,,,
81456,note_on,68,0,4,,,,,,,,0,,,60,0
81456,note_on,0,0,4,,,,,,,,0,,,53,0
81468,note_on,48,0,2,,,,,,,,0,,,67,0
81480,note_on,24,0,4,,,,,,,,0,,,43,91
81480,note_on,12,0,2,,,,,,,,0,,,64,91
81504,note_on,144,0,1,,,,,,,,0,,,74,0
81528,note_on,48,0,2,,,,,,,,0,,,64,0
81528,note_on,48,0,4,,,,,,,,0,,,43,0
81533,set_tempo,79,1,0,,,,,,389686,,,,,,
81540,note_on,36,0,1,,,,,,,,0,,,72,91
81540,note_on,12,0,4,,,,,,,,0,,,41,91
81588,note_on,48,0,4,,,,,,,,0,,,41,0
81588,note_on,48,0,1,,,,,,,,0,,,72,0
81598,control_change,10,0,4,,,,,,,,0,64,0,,
81600,note_on,2,0,4,,,,,,,,0,,,55,90
81600,note_on,12,0,1,,,,,,,,0,,,67,90
81600,note_on,72,0,2,,,,,,,,0,,,63,90
81616,set_tempo,83,1,0,,,,,,392208,,,,,,
81616,control_change,16,0,4,,,,,,,,0,64,127,,
81648,note_on,32,0,4,,,,,,,,0,,,55,0
81648,note_on,48,0,2,,,,,,,,0,,,63,0
81660,note_on,12,0,2,,,,,,,,0,,,60,89
81660,note_on,12,0,4,,,,,,,,0,,,53,89
81694,set_tempo,78,1,0,,,,,,394763,,,,,,
81708,note_on,48,0,2,,,,,,,,0,,,60,0
81708,note_on,48,0,4,,,,,,,,0,,,53,0
81720,note_on,12,0,2,,,,,,,,0,,,63,89
81720,note_on,12,0,4,,,,,,,,0,,,43,89
81744,note_on,144,0,1,,,,,,,,0,,,67,0
81768,note_on,48,0,2,,,,,,,,0,,,63,0
81768,note_on,48,0,4,,,,,,,,0,,,43,0
81773,set_tempo,79,1,0,,,,,,397351,,,,,,
81780,note_on,36,0,1,,,,,,,,0,,,69,88
81780,note_on,12,0,4,,,,,,,,0,,,41,88
81828,note_on,48,0,1,,,,,,,,0,,,69,0
81840,note_on,72,0,2,,,,,,,,0,,,62,88
81840,control_change,60,0,4,,,,,,,,0,64,0,,
81840,note_on,12,0,1,,,,,,,,0,,,72,88
81840,note_on,0,0,4,,,,,,,,0,,,53,88
81851,set_tempo,78,1,0,,,,,,399973,,,,,,
81865,control_change,25,0,4,,,,,,,,0,64,127,,
81888,note_on,48,0,2,,,,,,,,0,,,62,0
81900,note_on,12,0,2,,,,,,,,0,,,65,88
81930,set_tempo,79,1,0,,,,,,402631,,,,,,
81948,note_on,48,0,2,,,,,,,,0,,,65,0
81960,note_on,12,0,2,,,,,,,,0,,,62,87
81984,note_on,144,0,1,,,,,,,,0,,,72,0
82008,note_on,48,0,2,,,,,,,,0,,,62,0
82008,set_tempo,78,1,0,,,,,,405323,,,,,,
82020,note_on,36,0,1,,,,,,,,0,,,70,87
82032,note_on,0,0,4,,,,,,,,0,,,41,0
82032,note_on,167,0,4,,,,,,,,0,,,53,0
82068,note_on,48,0,1,,,,,,,,0,,,70,0
82073,control_change,41,0,4,,,,,,,,0,64,0,,
82080,note_on,12,0,1,,,,,,,,0,,,67,86
82080,note_on,72,0,2,,,,,,,,0,,,56,86
82080,note_on,0,0,4,,,,,,,,0,,,41,86
82080,note_on,7,0,4,,,,,,,,0,,,47,86
82080,note_on,0,0,4,,,,,,,,0,,,50,86
82087,set_tempo,79,1,0,,,,,,408052,,,,,,
82096,control_change,16,0,4,,,,,,,,0,64,127,,
82128,note_on,48,0,2,,,,,,,,0,,,56,0
82140,note_on,12,0,2,,,,,,,,0,,,62,85
82166,set_tempo,79,1,0,,,,,,410818,,,,,,
82188,note_on,48,0,2,,,,,,,,0,,,62,0
82200,note_on,12,0,2,,,,,,,,0,,,56,85
82224,note_on,144,0,1,,,,,,,,0,,,67,0
82248,note_on,48,0,2,,,,,,,,0,,,56,0
82248,set_tempo,82,1,0,,,,,,413622,,,,,,
82260,note_on,12,0,2,,,,,,,,0,,,62,84
82260,note_on,36,0,1,,,,,,,,0,,,65,84
82272,note_on,176,0,4,,,,,,,,0,,,50,0
82272,note_on,0,0,4,,,,,,,,0,,,47,0
82308,note_on,48,0,2,,,,,,,,0,,,62,0
82308,note_on,48,0,1,,,,,,,,0,,,65,0
82320,note_on,0,0,4,,,,,,,,0,,,51,84
82320,note_on,12,0,1,,,,,,,,0,,,65,84
82320,note_on,48,0,4,,,,,,,,0,,,48,84
82320,note_on,12,0,2,,,,,,,,0,,,55,84
82327,control_change,7,0,4,,,,,,,,0,64,0,,
82327,set_tempo,79,1,0,,,,,,416464,,,,,,
82348,control_change,21,0,4,,,,,,,,0,64,127,,
82368,note_on,48,0,2,,,,,,,,0,,,55,0
82380,note_on,12,0,2,,,,,,,,0,,,60,84
82406,set_tempo,79,1,0,,,,,,419346,,,,,,
82428,note_on,48,0,2,,,,,,,,0,,,60,0
82440,note_on,12,0,2,,,,,,,,0,,,55,84
82464,note_on,144,0,1,,,,,,,,0,,,65,0
82484,set_tempo,78,1,0,,,,,,422268,,,,,,
82488,note_on,48,0,2,,,,,,,,0,,,55,0
82500,note_on,12,0,2,,,,,,,,0,,,60,85
82500,note_on,36,0,1,,,,,,,,0,,,63,85
82512,note_on,0,0,4,,,,,,,,0,,,48,0
82512,note_on,164,0,4,,,,,,,,0,,,51,0
82512,note_on,0,0,4,,,,,,,,0,,,41,0
82548,note_on,48,0,1,,,,,,,,0,,,63,0
82548,note_on,48,0,2,,,,,,,,0,,,60,0
82558,control_change,46,0,4,,,,,,,,0,64,0,,
82560,note_on,0,0,3,,,,,,,,0,,,51,85
82560,note_on,0,0,4,,,,,,,,0,,,42,85
82560,note_on,5532,0,3,,,,,,,,0,,,57,85
82560,note_on,12,0,1,,,,,,,,0,,,60,85
82560,note_on,2,0,4,,,,,,,,0,,,30,85
82563,set_tempo,79,1,0,,,,,,425230,,,,,,
82571,set_tempo,8,1,0,,,,,,428235,,,,,,
82576,set_tempo,5,1,0,,,,,,431282,,,,,,
82580,set_tempo,4,1,0,,,,,,434373,,,,,,
82581,control_change,21,0,4,,,,,,,,0,64,127,,
82584,set_tempo,4,1,0,,,,,,437509,,,,,,
82593,set_tempo,9,1,0,,,,,,440690,,,,,,
82598,set_tempo,5,1,0,,,,,,443918,,,,,,
82602,set_tempo,4,1,0,,,,,,447194,,,,,,
82606,set_tempo,4,1,0,,,,,,450518,,,,,,
82608,note_on,0,0,3,,,,,,,,0,,,57,0
82608,note_on,48,0,3,,,,,,,,0,,,51,0
82611,set_tempo,5,1,0,,,,,,453892,,,,,,
82619,set_tempo,8,1,0,,,,,,457317,,,,,,
82620,note_on,12,0,3,,,,,,,,0,,,54,85
82624,set_tempo,5,1,0,,,,,,460794,,,,,,
82628,set_tempo,4,1,0,,,,,,464324,,,,,,
82632,set_tempo,4,1,0,,,,,,467909,,,,,,
82637,set_tempo,5,1,0,,,,,,471550,,,,,,
82646,set_tempo,9,1,0,,,,,,475248,,,,,,
82650,set_tempo,4,1,0,,,,,,479004,,,,,,
82654,set_tempo,4,1,0,,,,,,482820,,,,,,
82656,note_on,75,0,4,,,,,,,,0,,,42,0
82656,note_on,0,0,4,,,,,,,,0,,,30,0
82659,set_tempo,5,1,0,,,,,,486697,,,,,,
82663,set_tempo,4,1,0,,,,,,490637,,,,,,
82668,note_on,48,0,3,,,,,,,,0,,,54,0
82672,set_tempo,9,1,0,,,,,,494641,,,,,,
82676,set_tempo,4,1,0,,,,,,498712,,,,,,
82680,set_tempo,4,1,0,,,,,,502849,,,,,,
82680,note_on,0,0,4,,,,,,,,0,,,41,85
82680,note_on,24,0,4,,,,,,,,0,,,29,85
82680,note_on,12,0,3,,,,,,,,0,,,51,85
82685,set_tempo,5,1,0,,,,,,507057,,,,,,
82689,set_tempo,4,1,0,,,,,,511335,,,,,,
82698,set_tempo,9,1,0,,,,,,515685,,,,,,
82702,set_tempo,4,1,0,,,,,,520111,,,,,,
82704,note_on,144,0,1,,,,,,,,0,,,60,0
82707,set_tempo,5,1,0,,,,,,524613,,,,,,
82711,set_tempo,4,1,0,,,,,,529194,,,,,,
82715,set_tempo,4,1,0,,,,,,533855,,,,,,
82724,set_tempo,9,1,0,,,,,,538600,,,,,,
82728,set_tempo,4,1,0,,,,,,543429,,,,,,
82728,note_on,48,0,3,,,,,,,,0,,,51,0
82733,set_tempo,5,1,0,,,,,,548346,,,,,,
82737,set_tempo,4,1,0,,,,,,553352,,,,,,
82740,note_on,12,0,3,,,,,,,,0,,,53,85
82740,note_on,36,0,1,,,,,,,,0,,,62,85
82742,set_tempo,5,1,0,,,,,,558451,,,,,,
82750,set_tempo,8,1,0,,,,,,563645,,,,,,
82755,set_tempo,5,1,0,,,,,,568936,,,,,,
82759,set_tempo,4,1,0,,,,,,574328,,,,,,
82763,set_tempo,4,1,0,,,,,,579822,,,,,,
82768,set_tempo,5,1,0,,,,,,585423,,,,,,
82776,set_tempo,8,1,0,,,,,,591133,,,,,,
82776,note_on,96,0,4,,,,,,,,0,,,41,0
82776,note_on,0,0,4,,,,,,,,0,,,29,0
82781,set_tempo,5,1,0,,,,,,596956,,,,,,
82785,set_tempo,4,1,0,,,,,,602894,,,,,,
82788,note_on,48,0,1,,,,,,,,0,,,62,0
82788,note_on,48,0,3,,,,,,,,0,,,53,0
82790,set_tempo,5,1,0,,,,,,608952,,,,,,
82794,set_tempo,4,1,0,,,,,,615132,,,,,,
82798,set_tempo,4,1,0,,,,,,752634,,,,,,
82800,control_change,24,0,4,,,,,,,,0,64,0,,
82800,note_on,0,0,4,,,,,,,,0,,,46,86
82800,note_on,0,0,4,,,,,,,,0,,,22,114
82800,note_on,0,0,4,,,,,,,,0,,,50,86
82800,note_on,0,0,4,,,,,,,,0,,,34,95
82800,note_on,0,0,4,,,,,,,,0,,,29,103
82800,note_on,0,0,4,,,,,,,,0,,,58,86
82818,control_change,18,0,4,,,,,,,,0,64,127,,
82851,set_tempo,53,1,0,,,,,,762098,,,,,,
82855,set_tempo,4,1,0,,,,,,771803,,,,,,
82859,set_tempo,4,1,0,,,,,,762098,,,,,,
82864,set_tempo,5,1,0,,,,,,752634,,,,,,
82868,set_tempo,4,1,0,,,,,,734394,,,,,,
82872,set_tempo,4,1,0,,,,,,725602,,,,,,
82877,set_tempo,5,1,0,,,,,,708634,,,,,,
82881,set_tempo,4,1,0,,,,,,700444,,,,,,
82886,set_tempo,5,1,0,,,,,,684619,,,,,,
82890,set_tempo,4,1,0,,,,,,676972,,,,,,
82894,set_tempo,4,1,0,,,,,,662179,,,,,,
82896,note_on,78,0,4,,,,,,,,0,,,34,0
82896,note_on,0,0,4,,,,,,,,0,,,29,0
82896,note_on,0,0,4,,,,,,,,0,,,46,0
82896,note_on,0,0,4,,,,,,,,0,,,50,0
82896,note_on,0,0,4,,,,,,,,0,,,58,0
82896,note_on,0,0,4,,,,,,,,0,,,22,0
82899,set_tempo,5,1,0,,,,,,655022,,,,,,
82903,set_tempo,4,1,0,,,,,,641163,,,,,,
82907,set_tempo,4,1,0,,,,,,634451,,,,,,
82912,set_tempo,5,1,0,,,,,,621440,,,,,,
82916,set_tempo,4,1,0,,,,,,615132,,,,,,
82920,note_on,0,0,1,,,,,,,,0,,,65,72
82920,control_change,24,0,4,,,,,,,,0,64,0,,
82920,note_on,0,0,1,,,,,,,,0,,,62,72
82920,note_on,0,0,4,,,,,,,,0,,,50,72
82920,note_on,0,0,4,,,,,,,,0,,,58,72
82920,note_on,132,0,1,,,,,,,,0,,,74,80
82920,note_on,0,0,4,,,,,,,,0,,,53,72
82920,set_tempo,4,1,0,,,,,,608952,,,,,,
82925,set_tempo,5,1,0,,,,,,596956,,,,,,
82929,set_tempo,4,1,0,,,,,,591133,,,,,,
82934,set_tempo,5,1,0,,,,,,579822,,,,,,
82936,control_change,16,0,4,,,,,,,,0,64,127,,
82938,set_tempo,4,1,0,,,,,,574328,,,,,,
82942,set_tempo,4,1,0,,,,,,563645,,,,,,
82947,set_tempo,5,1,0,,,,,,558451,,,,,,
82951,set_tempo,4,1,0,,,,,,548346,,,,,,
82955,set_tempo,4,1,0,,,,,,543429,,,,,,
82960,set_tempo,5,1,0,,,,,,533855,,,,,,
82964,set_tempo,4,1,0,,,,,,529194,,,,,,
82968,set_tempo,4,1,0,,,,,,520111,,,,,,
82973,set_tempo,5,1,0,,,,,,515685,,,,,,
82977,set_tempo,4,1,0,,,,,,507057,,,,,,
82982,set_tempo,5,1,0,,,,,,502849,,,,,,
82986,set_tempo,4,1,0,,,,,,498712,,,,,,
82990,set_tempo,4,1,0,,,,,,490637,,,,,,
82995,set_tempo,5,1,0,,,,,,486697,,,,,,
82999,set_tempo,4,1,0,,,,,,479004,,,,,,
83003,set_tempo,4,1,0,,,,,,475248,,,,,,
83008,set_tempo,5,1,0,,,,,,467909,,,,,,
83012,set_tempo,4,1,0,,,,,,464324,,,,,,
83016,note_on,0,0,1,,,,,,,,0,,,65,0
83016,note_on,0,0,1,,,,,,,,0,,,74,0
83016,note_on,80,0,4,,,,,,,,0,,,58,0
83016,note_on,96,0,1,,,,,,,,0,,,62,0
83016,set_tempo,4,1,0,,,,,,457317,,,,,,
83016,note_on,0,0,4,,,,,,,,0,,,50,0
83016,note_on,0,0,4,,,,,,,,0,,,53,0
83021,set_tempo,5,1,0,,,,,,453892,,,,,,
83025,set_tempo,4,1,0,,,,,,447194,,,,,,
83030,set_tempo,5,1,0,,,,,,443918,,,,,,
83034,set_tempo,4,1,0,,,,,,437509,,,,,,
83038,set_tempo,4,1,0,,,,,,434373,,,,,,
83040,note_on,24,0,4,,,,,,,,0,,,53,72
83040,note_on,0,0,4,,,,,,,,0,,,50,72
83040,note_on,0,0,4,,,,,,,,0,,,58,72
83040,note_on,24,0,1,,,,,,,,0,,,72,80
83040,note_on,0,0,1,,,,,,,,0,,,62,72
83040,note_on,0,0,1,,,,,,,,0,,,65,72
83043,set_tempo,5,1,0,,,,,,428235,,,,,,
83136,note_on,96,0,4,,,,,,,,0,,,50,0
83136,note_on,96,0,1,,,,,,,,0,,,62,0
83136,note_on,0,0,4,,,,,,,,0,,,53,0
83136,note_on,0,0,4,,,,,,,,0,,,58,0
83136,note_on,0,0,1,,,,,,,,0,,,65,0
83136,note_on,0,0,1,,,,,,,,0,,,72,0
83160,note_on,24,0,4,,,,,,,,0,,,53,72
83160,note_on,0,0,4,,,,,,,,0,,,58,72
83160,note_on,0,0,4,,,,,,,,0,,,50,72
83160,note_on,0,0,1,,,,,,,,0,,,65,72
83160,note_on,0,0,1,,,,,,,,0,,,71,80
83160,note_on,24,0,1,,,,,,,,0,,,62,72
83256,note_on,0,0,1,,,,,,,,0,,,62,0
83256,note_on,0,0,1,,,,,,,,0,,,65,0
83256,note_on,96,0,1,,,,,,,,0,,,71,0
83256,note_on,0,0,4,,,,,,,,0,,,58,0
83256,note_on,96,0,4,,,,,,,,0,,,50,0
83256,note_on,0,0,4,,,,,,,,0,,,53,0
83280,note_on,24,0,1,,,,,,,,0,,,65,72
83280,note_on,0,0,4,,,,,,,,0,,,58,72
83280,note_on,0,0,4,,,,,,,,0,,,53,72
83280,note_on,0,0,1,,,,,,,,0,,,62,72
83280,note_on,0,0,1,,,,,,,,0,,,70,80
83280,note_on,24,0,4,,,,,,,,0,,,50,72
83376,note_on,0,0,4,,,,,,,,0,,,53,0
83376,note_on,0,0,4,,,,,,,,0,,,50,0
83376,note_on,96,0,1,,,,,,,,0,,,70,0
83376,note_on,96,0,4,,,,,,,,0,,,58,0
83376,note_on,0,0,1,,,,,,,,0,,,62,0
83376,note_on,0,0,1,,,,,,,,0,,,65,0
83400,note_on,24,0,1,,,,,,,,0,,,74,80
83400,note_on,24,0,4,,,,,,,,0,,,58,72
83400,note_on,0,0,4,,,,,,,,0,,,50,72
83400,note_on,0,0,4,,,,,,,,0,,,53,72
83400,note_on,0,0,1,,,,,,,,0,,,62,72
83400,note_on,0,0,1,,,,,,,,0,,,65,72
83496,note_on,0,0,4,,,,,,,,0,,,58,0
83496,note_on,0,0,4,,,,,,,,0,,,50,0
83496,note_on,96,0,4,,,,,,,,0,,,53,0
83496,note_on,0,0,1,,,,,,,,0,,,62,0
83496,note_on,0,0,1,,,,,,,,0,,,74,0
83496,note_on,96,0,1,,,,,,,,0,,,65,0
83520,note_on,24,0,4,,,,,,,,0,,,58,72
83520,note_on,0,0,4,,,,,,,,0,,,53,72
83520,note_on,0,0,1,,,,,,,,0,,,72,80
83520,note_on,0,0,4,,,,,,,,0,,,50,72
83520,note_on,24,0,1,,,,,,,,0,,,62,72
83520,note_on,0,0,1,,,,,,,,0,,,65,72
83568,note_on,48,0,4,,,,,,,,0,,,53,0
83568,note_on,0,0,1,,,,,,,,0,,,62,0
83568,note_on,0,0,1,,,,,,,,0,,,65,0
83568,note_on,48,0,1,,,,,,,,0,,,72,0
83568,note_on,0,0,4,,,,,,,,0,,,50,0
83568,note_on,0,0,4,,,,,,,,0,,,58,0
83580,note_on,0,0,1,,,,,,,,0,,,65,72
83580,note_on,0,0,1,,,,,,,,0,,,71,80
83580,note_on,12,0,1,,,,,,,,0,,,62,72
83580,note_on,0,0,4,,,,,,,,0,,,50,72
83580,note_on,12,0,4,,,,,,,,0,,,58,72
83580,note_on,0,0,4,,,,,,,,0,,,53,72
83628,note_on,48,0,4,,,,,,,,0,,,50,0
83628,note_on,0,0,4,,,,,,,,0,,,53,0
83628,note_on,0,0,1,,,,,,,,0,,,62,0
83628,note_on,48,0,1,,,,,,,,0,,,71,0
83628,note_on,0,0,1,,,,,,,,0,,,65,0
83628,note_on,0,0,4,,,,,,,,0,,,58,0
83640,note_on,12,0,4,,,,,,,,0,,,50,72
83640,note_on,0,0,1,,,,,,,,0,,,62,72
83640,note_on,0,0,1,,,,,,,,0,,,70,80
83640,note_on,0,0,4,,,,,,,,0,,,53,72
83640,note_on,0,0,4,,,,,,,,0,,,58,72
83640,note_on,12,0,1,,,,,,,,0,,,65,72
83642,control_change,2,0,4,,,,,,,,0,64,0,,
83736,note_on,0,0,1,,,,,,,,0,,,70,0
83736,note_on,94,0,4,,,,,,,,0,,,53,0
83736,note_on,0,0,1,,,,,,,,0,,,65,0
83736,note_on,0,0,4,,,,,,,,0,,,50,0
83736,note_on,0,0,4,,,,,,,,0,,,58,0
83736,note_on,96,0,1,,,,,,,,0,,,62,0
83760,note_on,24,0,4,,,,,,,,0,,,32,88
83771,set_tempo,728,1,0,,,,,,431282,,,,,,
83819,set_tempo,48,1,0,,,,,,434373,,,,,,
83856,note_on,96,0,4,,,,,,,,0,,,32,0
83863,set_tempo,44,1,0,,,,,,437509,,,,,,
83873,control_change,17,0,4,,,,,,,,0,64,127,,
83880,note_on,144,0,1,,,,,,,,0,,,77,80
83880,note_on,7,0,4,,,,,,,,0,,,58,68
83880,note_on,0,0,1,,,,,,,,0,,,65,68
83880,note_on,0,0,1,,,,,,,,0,,,70,68
83880,note_on,0,0,4,,,,,,,,0,,,62,68
83880,note_on,0,0,4,,,,,,,,0,,,53,68
83911,set_tempo,48,1,0,,,,,,440690,,,,,,
83955,set_tempo,44,1,0,,,,,,443918,,,,,,
83976,note_on,0,0,4,,,,,,,,0,,,62,0
83976,note_on,96,0,1,,,,,,,,0,,,65,0
83976,note_on,0,0,1,,,,,,,,0,,,70,0
83976,note_on,0,0,1,,,,,,,,0,,,77,0
83976,note_on,0,0,4,,,,,,,,0,,,58,0
83976,note_on,96,0,4,,,,,,,,0,,,53,0
84000,note_on,0,0,1,,,,,,,,0,,,70,68
84000,note_on,24,0,4,,,,,,,,0,,,58,68
84000,note_on,0,0,1,,,,,,,,0,,,65,68
84000,note_on,24,0,1,,,,,,,,0,,,76,80
84000,note_on,0,0,4,,,,,,,,0,,,53,68
84000,note_on,0,0,4,,,,,,,,0,,,62,68
84003,set_tempo,48,1,0,,,,,,447194,,,,,,
84046,set_tempo,43,1,0,,,,,,450518,,,,,,
84094,set_tempo,48,1,0,,,,,,453892,,,,,,
84096,note_on,0,0,1,,,,,,,,0,,,70,0
84096,note_on,0,0,4,,,,,,,,0,,,62,0
84096,note_on,0,0,1,,,,,,,,0,,,76,0
84096,note_on,96,0,4,,,,,,,,0,,,53,0
84096,note_on,96,0,1,,,,,,,,0,,,65,0
84096,note_on,0,0,4,,,,,,,,0,,,58,0
84120,note_on,0,0,4,,,,,,,,0,,,58,68
84120,note_on,0,0,1,,,,,,,,0,,,70,68
84120,note_on,0,0,1,,,,,,,,0,,,75,80
84120,note_on,24,0,1,,,,,,,,0,,,65,68
84120,note_on,24,0,4,,,,,,,,0,,,53,68
84120,note_on,0,0,4,,,,,,,,0,,,62,68
84138,set_tempo,44,1,0,,,,,,457317,,,,,,
84186,set_tempo,48,1,0,,,,,,460794,,,,,,
84216,note_on,0,0,4,,,,,,,,0,,,53,0
84216,note_on,96,0,1,,,,,,,,0,,,70,0
84216,note_on,0,0,4,,,,,,,,0,,,62,0
84216,note_on,0,0,1,,,,,,,,0,,,75,0
84216,note_on,0,0,1,,,,,,,,0,,,65,0
84216,note_on,96,0,4,,,,,,,,0,,,58,0
84230,set_tempo,44,1,0,,,,,,464324,,,,,,
84240,note_on,24,0,1,,,,,,,,0,,,74,80
84240,note_on,0,0,1,,,,,,,,0,,,65,68
84240,note_on,0,0,1,,,,,,,,0,,,70,68
84240,note_on,24,0,4,,,,,,,,0,,,53,68
84240,note_on,0,0,4,,,,,,,,0,,,58,68
84240,note_on,0,0,4,,,,,,,,0,,,62,68
84278,set_tempo,48,1,0,,,,,,467909,,,,,,
84321,set_tempo,43,1,0,,,,,,471550,,,,,,
84336,note_on,0,0,1,,,,,,,,0,,,65,0
84336,note_on,96,0,4,,,,,,,,0,,,58,0
84336,note_on,96,0,1,,,,,,,,0,,,70,0
84336,note_on,0,0,4,,,,,,,,0,,,53,0
84336,note_on,0,0,4,,,,,,,,0,,,62,0
84336,note_on,0,0,1,,,,,,,,0,,,74,0
84360,note_on,0,0,1,,,,,,,,0,,,70,68
84360,note_on,24,0,1,,,,,,,,0,,,77,80
84360,note_on,0,0,1,,,,,,,,0,,,65,68
84360,note_on,0,0,4,,,,,,,,0,,,62,68
84360,note_on,0,0,4,,,,,,,,0,,,58,68
84360,note_on,24,0,4,,,,,,,,0,,,53,68
84369,set_tempo,48,1,0,,,,,,475248,,,,,,
84413,set_tempo,44,1,0,,,,,,479004,,,,,,
84456,note_on,0,0,1,,,,,,,,0,,,77,0
84456,note_on,0,0,1,,,,,,,,0,,,65,0
84456,note_on,0,0,4,,,,,,,,0,,,62,0
84456,note_on,96,0,1,,,,,,,,0,,,70,0
84456,note_on,96,0,4,,,,,,,,0,,,58,0
84456,note_on,0,0,4,,,,,,,,0,,,53,0
84461,set_tempo,48,1,0,,,,,,482820,,,,,,
84480,note_on,0,0,1,,,,,,,,0,,,65,68
84480,note_on,0,0,4,,,,,,,,0,,,53,68
84480,note_on,0,0,4,,,,,,,,0,,,58,68
84480,note_on,24,0,1,,,,,,,,0,,,70,68
84480,note_on,0,0,1,,,,,,,,0,,,76,80
84480,note_on,24,0,4,,,,,,,,0,,,62,68
84504,set_tempo,43,1,0,,,,,,486697,,,,,,
84528,note_on,0,0,1,,,,,,,,0,,,76,0
84528,note_on,0,0,4,,,,,,,,0,,,53,0
84528,note_on,0,0,1,,,,,,,,0,,,70,0
84528,note_on,0,0,4,,,,,,,,0,,,62,0
84528,note_on,48,0,1,,,,,,,,0,,,65,0
84528,note_on,48,0,4,,,,,,,,0,,,58,0
84540,note_on,0,0,1,,,,,,,,0,,,70,68
84540,note_on,12,0,1,,,,,,,,0,,,75,80
84540,note_on,0,0,1,,,,,,,,0,,,65,68
84540,note_on,12,0,4,,,,,,,,0,,,53,68
84540,note_on,0,0,4,,,,,,,,0,,,62,68
84540,note_on,0,0,4,,,,,,,,0,,,58,68
84552,set_tempo,48,1,0,,,,,,490637,,,,,,
84588,note_on,48,0,1,,,,,,,,0,,,65,0
84588,note_on,0,0,4,,,,,,,,0,,,62,0
84588,note_on,0,0,4,,,,,,,,0,,,53,0
84588,note_on,0,0,1,,,,,,,,0,,,70,0
84588,note_on,0,0,1,,,,,,,,0,,,75,0
84588,note_on,48,0,4,,,,,,,,0,,,58,0
84596,set_tempo,44,1,0,,,,,,494641,,,,,,
84598,control_change,10,0,4,,,,,,,,0,64,0,,
84600,note_on,0,0,1,,,,,,,,0,,,70,68
84600,note_on,0,0,1,,,,,,,,0,,,65,68
84600,note_on,0,0,4,,,,,,,,0,,,53,68
84600,note_on,12,0,1,,,,,,,,0,,,74,80
84600,note_on,0,0,4,,,,,,,,0,,,62,68
84600,note_on,2,0,4,,,,,,,,0,,,58,68
84644,set_tempo,48,1,0,,,,,,498712,,,,,,
84688,set_tempo,44,1,0,,,,,,502849,,,,,,
84696,note_on,96,0,4,,,,,,,,0,,,53,0
84696,note_on,96,0,1,,,,,,,,0,,,65,0
84696,note_on,0,0,1,,,,,,,,0,,,70,0
84696,note_on,0,0,4,,,,,,,,0,,,58,0
84696,note_on,0,0,4,,,,,,,,0,,,62,0
84696,note_on,0,0,1,,,,,,,,0,,,74,0
84718,set_tempo,30,1,0,,,,,,431282,,,,,,
84720,note_on,24,0,4,,,,,,,,0,,,30,88
84766,set_tempo,48,1,0,,,,,,434373,,,,,,
84814,set_tempo,48,1,0,,,,,,437509,,,,,,
84816,note_on,96,0,4,,,,,,,,0,,,30,0
84831,control_change,15,0,4,,,,,,,,0,64,127,,
84840,note_on,9,0,4,,,,,,,,0,,,61,68
84840,note_on,0,0,1,,,,,,,,0,,,82,80
84840,note_on,144,0,1,,,,,,,,0,,,70,68
84840,note_on,0,0,1,,,,,,,,0,,,73,68
84840,note_on,0,0,4,,,,,,,,0,,,64,68
84840,note_on,0,0,4,,,,,,,,0,,,54,68
84862,set_tempo,48,1,0,,,,,,440690,,,,,,
84910,set_tempo,48,1,0,,,,,,443918,,,,,,
84936,note_on,0,0,4,,,,,,,,0,,,61,0
84936,note_on,0,0,4,,,,,,,,0,,,54,0
84936,note_on,96,0,4,,,,,,,,0,,,64,0
84936,note_on,0,0,1,,,,,,,,0,,,70,0
84936,note_on,0,0,1,,,,,,,,0,,,82,0
84936,note_on,96,0,1,,,,,,,,0,,,73,0
84958,set_tempo,48,1,0,,,,,,447194,,,,,,
84960,note_on,0,0,4,,,,,,,,0,,,64,68
84960,note_on,0,0,1,,,,,,,,0,,,80,80
84960,note_on,0,0,1,,,,,,,,0,,,70,68
84960,note_on,0,0,4,,,,,,,,0,,,54,68
84960,note_on,24,0,4,,,,,,,,0,,,61,68
84960,note_on,24,0,1,,,,,,,,0,,,73,68
85006,set_tempo,48,1,0,,,,,,450518,,,,,,
85050,set_tempo,44,1,0,,,,,,453892,,,,,,
85056,note_on,0,0,1,,,,,,,,0,,,73,0
85056,note_on,96,0,1,,,,,,,,0,,,80,0
85056,note_on,96,0,4,,,,,,,,0,,,64,0
85056,note_on,0,0,4,,,,,,,,0,,,61,0
85056,note_on,0,0,4,,,,,,,,0,,,54,0
85056,note_on,0,0,1,,,,,,,,0,,,70,0
85080,note_on,24,0,1,,,,,,,,0,,,79,80
85080,note_on,0,0,4,,,,,,,,0,,,61,68
85080,note_on,0,0,4,,,,,,,,0,,,64,68
85080,note_on,24,0,4,,,,,,,,0,,,54,68
85080,note_on,0,0,1,,,,,,,,0,,,70,68
85080,note_on,0,0,1,,,,,,,,0,,,73,68
85098,set_tempo,48,1,0,,,,,,457317,,,,,,
85146,set_tempo,48,1,0,,,,,,460794,,,,,,
85176,note_on,96,0,1,,,,,,,,0,,,70,0
85176,note_on,96,0,4,,,,,,,,0,,,64,0
85176,note_on,0,0,4,,,,,,,,0,,,54,0
85176,note_on,0,0,4,,,,,,,,0,,,61,0
85176,note_on,0,0,1,,,,,,,,0,,,73,0
85176,note_on,0,0,1,,,,,,,,0,,,79,0
85194,set_tempo,48,1,0,,,,,,464324,,,,,,
85200,note_on,24,0,4,,,,,,,,0,,,54,68
85200,note_on,0,0,1,,,,,,,,0,,,78,80
85200,note_on,0,0,4,,,,,,,,0,,,64,68
85200,note_on,24,0,1,,,,,,,,0,,,73,68
85200,note_on,0,0,1,,,,,,,,0,,,70,68
85200,note_on,0,0,4,,,,,,,,0,,,61,68
85242,set_tempo,48,1,0,,,,,,467909,,,,,,
85290,set_tempo,48,1,0,,,,,,471550,,,,,,
85296,note_on,96,0,1,,,,,,,,0,,,70,0
85296,note_on,0,0,1,,,,,,,,0,,,73,0
85296,note_on,0,0,1,,,,,,,,0,,,78,0
85296,note_on,0,0,4,,,,,,,,0,,,64,0
85296,note_on,0,0,4,,,,,,,,0,,,54,0
85296,note_on,96,0,4,,,,,,,,0,,,61,0
85320,note_on,0,0,4,,,,,,,,0,,,61,67
85320,note_on,0,0,4,,,,,,,,0,,,54,67
85320,note_on,24,0,4,,,,,,,,0,,,64,67
85320,note_on,24,0,1,,,,,,,,0,,,82,79
85320,note_on,0,0,1,,,,,,,,0,,,70,67
85320,note_on,0,0,1,,,,,,,,0,,,73,67
85338,set_tempo,48,1,0,,,,,,475248,,,,,,
85382,set_tempo,44,1,0,,,,,,479004,,,,,,
85416,note_on,0,0,4,,,,,,,,0,,,64,0
85416,note_on,96,0,1,,,,,,,,0,,,73,0
85416,note_on,0,0,4,,,,,,,,0,,,54,0
85416,note_on,96,0,4,,,,,,,,0,,,61,0
85416,note_on,0,0,1,,,,,,,,0,,,70,0
85416,note_on,0,0,1,,,,,,,,0,,,82,0
85430,set_tempo,48,1,0,,,,,,482820,,,,,,
85440,note_on,0,0,1,,,,,,,,0,,,70,67
85440,note_on,0,0,4,,,,,,,,0,,,54,67
85440,note_on,0,0,1,,,,,,,,0,,,80,79
85440,note_on,0,0,4,,,,,,,,0,,,61,67
85440,note_on,24,0,1,,,,,,,,0,,,73,67
85440,note_on,24,0,4,,,,,,,,0,,,64,67
85478,set_tempo,48,1,0,,,,,,486697,,,,,,
85488,note_on,0,0,1,,,,,,,,0,,,73,0
85488,note_on,48,0,1,,,,,,,,0,,,70,0
85488,note_on,0,0,4,,,,,,,,0,,,54,0
85488,note_on,48,0,4,,,,,,,,0,,,61,0
85488,note_on,0,0,4,,,,,,,,0,,,64,0
85488,note_on,0,0,1,,,,,,,,0,,,80,0
85500,note_on,12,0,4,,,,,,,,0,,,64,66
85500,note_on,0,0,4,,,,,,,,0,,,54,66
85500,note_on,12,0,1,,,,,,,,0,,,79,78
85500,note_on,0,0,4,,,,,,,,0,,,61,66
85500,note_on,0,0,1,,,,,,,,0,,,73,66
85500,note_on,0,0,1,,,,,,,,0,,,70,66
85526,set_tempo,48,1,0,,,,,,490637,,,,,,
85548,note_on,48,0,1,,,,,,,,0,,,70,0
85548,note_on,0,0,1,,,,,,,,0,,,73,0
85548,note_on,48,0,4,,,,,,,,0,,,54,0
85548,note_on,0,0,4,,,,,,,,0,,,64,0
85548,note_on,0,0,4,,,,,,,,0,,,61,0
85548,note_on,0,0,1,,,,,,,,0,,,79,0
85551,control_change,3,0,4,,,,,,,,0,64,0,,
85560,note_on,12,0,1,,,,,,,,0,,,78,78
85560,note_on,0,0,4,,,,,,,,0,,,64,66
85560,note_on,9,0,4,,,,,,,,0,,,61,66
85560,note_on,0,0,4,,,,,,,,0,,,54,66
85560,note_on,0,0,1,,,,,,,,0,,,73,66
85560,note_on,0,0,1,,,,,,,,0,,,70,66
85574,set_tempo,48,1,0,,,,,,494641,,,,,,
85622,set_tempo,48,1,0,,,,,,498712,,,,,,
85656,note_on,0,0,4,,,,,,,,0,,,54,0
85656,note_on,0,0,1,,,,,,,,0,,,73,0
85656,note_on,0,0,1,,,,,,,,0,,,78,0
85656,note_on,0,0,4,,,,,,,,0,,,61,0
85656,note_on,96,0,4,,,,,,,,0,,,64,0
85656,note_on,96,0,1,,,,,,,,0,,,70,0
85665,set_tempo,43,1,0,,,,,,502849,,,,,,
85669,set_tempo,4,1,0,,,,,,502849,,,,,,
85680,note_on,24,0,4,,,,,,,,0,,,29,85
85776,note_on,96,0,4,,,,,,,,0,,,29,0
85800,note_on,0,0,4,,,,,,,,0,,,53,76
85800,note_on,0,0,1,,,,,,,,0,,,77,84
85800,note_on,24,0,4,,,,,,,,0,,,63,76
85800,note_on,0,0,1,,,,,,,,0,,,69,72
85800,note_on,144,0,1,,,,,,,,0,,,65,72
85800,note_on,0,0,4,,,,,,,,0,,,60,76
85805,control_change,5,0,4,,,,,,,,0,64,127,,
85865,set_tempo,196,1,0,,,,,,498712,,,,,,
85896,note_on,96,0,1,,,,,,,,0,,,69,0
85896,note_on,0,0,4,,,,,,,,0,,,63,0
85896,note_on,91,0,4,,,,,,,,0,,,60,0
85896,note_on,0,0,1,,,,,,,,0,,,65,0
85896,note_on,0,0,1,,,,,,,,0,,,77,0
85896,note_on,0,0,4,,,,,,,,0,,,53,0
85920,note_on,24,0,1,,,,,,,,0,,,69,72
85920,note_on,24,0,4,,,,,,,,0,,,60,76
85920,note_on,0,0,1,,,,,,,,0,,,65,72
85920,note_on,0,0,1,,,,,,,,0,,,76,83
85920,note_on,0,0,4,,,,,,,,0,,,63,76
85920,note_on,0,0,4,,,,,,,,0,,,53,76
86016,note_on,96,0,4,,,,,,,,0,,,63,0
86016,note_on,0,0,4,,,,,,,,0,,,53,0
86016,note_on,0,0,4,,,,,,,,0,,,60,0
86016,note_on,0,0,1,,,,,,,,0,,,69,0
86016,note_on,0,0,1,,,,,,,,0,,,65,0
86016,note_on,96,0,1,,,,,,,,0,,,76,0
86040,note_on,0,0,1,,,,,,,,0,,,69,72
86040,note_on,0,0,4,,,,,,,,0,,,60,76
86040,note_on,0,0,1,,,,,,,,0,,,65,72
86040,note_on,0,0,4,,,,,,,,0,,,53,76
86040,note_on,24,0,1,,,,,,,,0,,,75,83
86040,note_on,24,0,4,,,,,,,,0,,,63,76
86057,set_tempo,192,1,0,,,,,,494641,,,,,,
86136,note_on,0,0,1,,,,,,,,0,,,69,0
86136,note_on,0,0,1,,,,,,,,0,,,75,0
86136,note_on,96,0,1,,,,,,,,0,,,65,0
86136,note_on,0,0,4,,,,,,,,0,,,60,0
86136,note_on,96,0,4,,,,,,,,0,,,53,0
86136,note_on,0,0,4,,,,,,,,0,,,63,0
86160,note_on,0,0,1,,,,,,,,0,,,69,71
86160,note_on,24,0,4,,,,,,,,0,,,60,75
86160,note_on,24,0,1,,,,,,,,0,,,65,71
86160,note_on,0,0,1,,,,,,,,0,,,72,71
86160,note_on,0,0,4,,,,,,,,0,,,63,75
86160,note_on,0,0,4,,,,,,,,0,,,53,75
86254,set_tempo,197,1,0,,,,,,490637,,,,,,
86256,note_on,0,0,4,,,,,,,,0,,,60,0
86256,note_on,0,0,1,,,,,,,,0,,,65,0
86256,note_on,0,0,1,,,,,,,,0,,,72,0
86256,note_on,96,0,1,,,,,,,,0,,,69,0
86256,note_on,96,0,4,,,,,,,,0,,,53,0
86256,note_on,0,0,4,,,,,,,,0,,,63,0
86280,note_on,0,0,1,,,,,,,,0,,,65,70
86280,note_on,0,0,1,,,,,,,,0,,,75,81
86280,note_on,0,0,4,,,,,,,,0,,,60,74
86280,note_on,0,0,4,,,,,,,,0,,,63,74
86280,note_on,24,0,4,,,,,,,,0,,,53,74
86280,note_on,24,0,1,,,,,,,,0,,,69,70
86376,note_on,0,0,4,,,,,,,,0,,,53,0
86376,note_on,96,0,1,,,,,,,,0,,,75,0
86376,note_on,96,0,4,,,,,,,,0,,,63,0
86376,note_on,0,0,4,,,,,,,,0,,,60,0
86376,note_on,0,0,1,,,,,,,,0,,,65,0
86376,note_on,0,0,1,,,,,,,,0,,,69,0
86400,note_on,24,0,1,,,,,,,,0,,,79,80
86400,note_on,0,0,4,,,,,,,,0,,,63,73
86400,note_on,0,0,4,,,,,,,,0,,,53,73
86400,note_on,24,0,4,,,,,,,,0,,,60,73
86400,note_on,0,0,1,,,,,,,,0,,,69,69
86400,note_on,0,0,1,,,,,,,,0,,,65,69
86446,set_tempo,192,1,0,,,,,,486697,,,,,,
86448,note_on,0,0,1,,,,,,,,0,,,69,0
86448,note_on,48,0,1,,,,,,,,0,,,65,0
86448,note_on,48,0,4,,,,,,,,0,,,53,0
86448,note_on,0,0,4,,,,,,,,0,,,60,0
86448,note_on,0,0,4,,,,,,,,0,,,63,0
86448,note_on,0,0,1,,,,,,,,0,,,79,0
86460,note_on,12,0,4,,,,,,,,0,,,63,73
86460,note_on,12,0,1,,,,,,,,0,,,78,80
86460,note_on,0,0,4,,,,,,,,0,,,53,73
86460,note_on,0,0,4,,,,,,,,0,,,60,73
86460,note_on,0,0,1,,,,,,,,0,,,69,69
86460,note_on,0,0,1,,,,,,,,0,,,65,69
86508,note_on,0,0,4,,,,,,,,0,,,60,0
86508,note_on,0,0,4,,,,,,,,0,,,63,0
86508,note_on,0,0,1,,,,,,,,0,,,69,0
86508,note_on,48,0,1,,,,,,,,0,,,65,0
86508,note_on,0,0,1,,,,,,,,0,,,78,0
86508,note_on,48,0,4,,,,,,,,0,,,53,0
86518,control_change,10,0,4,,,,,,,,0,64,0,,
86520,note_on,2,0,4,,,,,,,,0,,,63,72
86520,note_on,0,0,4,,,,,,,,0,,,60,72
86520,note_on,0,0,4,,,,,,,,0,,,53,72
86520,note_on,0,0,1,,,,,,,,0,,,69,69
86520,note_on,0,0,1,,,,,,,,0,,,65,69
86520,note_on,12,0,1,,,,,,,,0,,,77,80
86616,note_on,0,0,4,,,,,,,,0,,,63,0
86616,note_on,0,0,4,,,,,,,,0,,,53,0
86616,note_on,0,0,1,,,,,,,,0,,,69,0
86616,note_on,96,0,4,,,,,,,,0,,,60,0
86616,note_on,0,0,1,,,,,,,,0,,,77,0
86616,note_on,96,0,1,,,,,,,,0,,,65,0
86633,set_tempo,187,1,0,,,,,,431282,,,,,,
86640,note_on,24,0,4,,,,,,,,0,,,34,88
86640,control_change,0,0,4,,,,,,,,0,64,127,,
86736,note_on,96,0,4,,,,,,,,0,,,34,0
86760,note_on,24,0,4,,,,,,,,0,,,46,72
86760,note_on,4212,0,2,,,,,,,,0,,,62,72
86760,note_on,3972,0,3,,,,,,,,0,,,53,72
86760,note_on,144,0,1,,,,,,,,0,,,74,72
86808,note_on,48,0,2,,,,,,,,0,,,62,0
86808,note_on,48,0,3,,,,,,,,0,,,53,0
86820,note_on,12,0,2,,,,,,,,0,,,65,72
86820,note_on,12,0,3,,,,,,,,0,,,54,72
86825,set_tempo,192,1,0,,,,,,434373,,,,,,
86856,note_on,96,0,1,,,,,,,,0,,,74,0
86856,note_on,96,0,4,,,,,,,,0,,,46,0
86868,note_on,48,0,2,,,,,,,,0,,,65,0
86868,note_on,48,0,3,,,,,,,,0,,,54,0
86880,note_on,24,0,4,,,,,,,,0,,,46,73
86880,note_on,12,0,3,,,,,,,,0,,,53,73
86880,note_on,12,0,2,,,,,,,,0,,,62,73
86880,note_on,24,0,1,,,,,,,,0,,,72,73
86928,note_on,48,0,3,,,,,,,,0,,,53,0
86928,note_on,48,0,2,,,,,,,,0,,,62,0
86940,note_on,12,0,2,,,,,,,,0,,,65,74
86940,note_on,12,0,3,,,,,,,,0,,,55,74
86976,note_on,96,0,1,,,,,,,,0,,,72,0
86976,note_on,96,0,4,,,,,,,,0,,,46,0
86988,note_on,48,0,2,,,,,,,,0,,,65,0
86988,note_on,48,0,3,,,,,,,,0,,,55,0
87000,note_on,24,0,1,,,,,,,,0,,,71,74
87000,note_on,12,0,3,,,,,,,,0,,,53,74
87000,note_on,24,0,4,,,,,,,,0,,,46,74
87000,note_on,12,0,2,,,,,,,,0,,,62,74
87017,set_tempo,192,1,0,,,,,,437509,,,,,,
87048,note_on,48,0,2,,,,,,,,0,,,62,0
87048,note_on,48,0,3,,,,,,,,0,,,53,0
87060,note_on,12,0,3,,,,,,,,0,,,54,75
87060,note_on,12,0,2,,,,,,,,0,,,65,75
87096,note_on,96,0,4,,,,,,,,0,,,46,0
87096,note_on,96,0,1,,,,,,,,0,,,71,0
87108,note_on,48,0,3,,,,,,,,0,,,54,0
87108,note_on,48,0,2,,,,,,,,0,,,65,0
87120,note_on,24,0,4,,,,,,,,0,,,46,75
87120,note_on,12,0,3,,,,,,,,0,,,53,75
87120,note_on,24,0,1,,,,,,,,0,,,70,75
87120,note_on,12,0,2,,,,,,,,0,,,62,75
87168,note_on,48,0,3,,,,,,,,0,,,53,0
87168,note_on,48,0,2,,,,,,,,0,,,62,0
87180,note_on,12,0,2,,,,,,,,0,,,65,76
87180,note_on,12,0,3,,,,,,,,0,,,55,76
87209,set_tempo,192,1,0,,,,,,440690,,,,,,
87216,note_on,96,0,4,,,,,,,,0,,,46,0
87216,note_on,96,0,1,,,,,,,,0,,,70,0
87228,note_on,48,0,2,,,,,,,,0,,,65,0
87228,note_on,48,0,3,,,,,,,,0,,,55,0
87240,note_on,12,0,2,,,,,,,,0,,,62,76
87240,note_on,24,0,1,,,,,,,,0,,,74,76
87240,note_on,24,0,4,,,,,,,,0,,,46,76
87240,note_on,12,0,3,,,,,,,,0,,,53,76
87288,note_on,48,0,2,,,,,,,,0,,,62,0
87288,note_on,48,0,3,,,,,,,,0,,,53,0
87300,note_on,12,0,3,,,,,,,,0,,,54,76
87300,note_on,12,0,2,,,,,,,,0,,,65,76
87336,note_on,96,0,1,,,,,,,,0,,,74,0
87336,note_on,96,0,4,,,,,,,,0,,,46,0
87348,note_on,48,0,3,,,,,,,,0,,,54,0
87348,note_on,48,0,2,,,,,,,,0,,,65,0
87360,note_on,24,0,4,,,,,,,,0,,,46,77
87360,note_on,24,0,1,,,,,,,,0,,,72,77
87360,note_on,12,0,2,,,,,,,,0,,,62,77
87360,note_on,12,0,3,,,,,,,,0,,,53,77
87401,set_tempo,192,1,0,,,,,,443918,,,,,,
87408,note_on,48,0,1,,,,,,,,0,,,72,0
87408,note_on,48,0,2,,,,,,,,0,,,62,0
87408,note_on,48,0,3,,,,,,,,0,,,53,0
87420,note_on,12,0,1,,,,,,,,0,,,71,78
87420,note_on,12,0,2,,,,,,,,0,,,65,78
87420,note_on,12,0,3,,,,,,,,0,,,62,78
87456,note_on,96,0,4,,,,,,,,0,,,46,0
87468,note_on,48,0,1,,,,,,,,0,,,71,0
87468,note_on,48,0,2,,,,,,,,0,,,65,0
87468,note_on,48,0,3,,,,,,,,0,,,62,0
87475,control_change,19,0,4,,,,,,,,0,64,0,,
87480,note_on,12,0,3,,,,,,,,0,,,58,78
87480,note_on,12,0,2,,,,,,,,0,,,62,78
87480,note_on,12,0,1,,,,,,,,0,,,70,78
87576,note_on,96,0,1,,,,,,,,0,,,70,0
87576,note_on,96,0,2,,,,,,,,0,,,62,0
87576,note_on,96,0,3,,,,,,,,0,,,58,0
87593,set_tempo,192,1,0,,,,,,447194,,,,,,
87600,note_on,125,0,4,,,,,,,,0,,,32,79
87608,control_change,8,0,4,,,,,,,,0,64,127,,
87696,note_on,88,0,4,,,,,,,,0,,,32,0
87720,note_on,144,0,2,,,,,,,,0,,,65,80
87720,note_on,144,0,1,,,,,,,,0,,,77,80
87720,note_on,144,0,3,,,,,,,,0,,,58,80
87720,note_on,24,0,4,,,,,,,,0,,,50,80
87768,note_on,48,0,2,,,,,,,,0,,,65,0
87768,note_on,48,0,3,,,,,,,,0,,,58,0
87780,note_on,12,0,3,,,,,,,,0,,,59,81
87780,note_on,12,0,2,,,,,,,,0,,,70,81
87816,note_on,96,0,1,,,,,,,,0,,,77,0
87816,note_on,96,0,4,,,,,,,,0,,,50,0
87828,note_on,48,0,2,,,,,,,,0,,,70,0
87828,note_on,48,0,3,,,,,,,,0,,,59,0
87840,note_on,24,0,1,,,,,,,,0,,,76,81
87840,note_on,12,0,2,,,,,,,,0,,,65,82
87840,note_on,24,0,4,,,,,,,,0,,,50,81
87840,note_on,12,0,3,,,,,,,,0,,,58,82
87888,note_on,48,0,3,,,,,,,,0,,,58,0
87888,note_on,48,0,2,,,,,,,,0,,,65,0
87900,note_on,12,0,3,,,,,,,,0,,,60,83
87900,note_on,12,0,2,,,,,,,,0,,,70,83
87936,note_on,96,0,4,,,,,,,,0,,,50,0
87936,note_on,96,0,1,,,,,,,,0,,,76,0
87948,note_on,48,0,3,,,,,,,,0,,,60,0
87948,note_on,48,0,2,,,,,,,,0,,,70,0
87960,note_on,12,0,2,,,,,,,,0,,,65,84
87960,note_on,24,0,4,,,,,,,,0,,,50,82
87960,note_on,24,0,1,,,,,,,,0,,,75,82
87960,note_on,12,0,3,,,,,,,,0,,,58,84
88008,note_on,48,0,2,,,,,,,,0,,,65,0
88008,note_on,48,0,3,,,,,,,,0,,,58,0
88020,note_on,12,0,2,,,,,,,,0,,,70,85
88020,note_on,12,0,3,,,,,,,,0,,,59,85
88056,note_on,96,0,1,,,,,,,,0,,,75,0
88056,note_on,96,0,4,,,,,,,,0,,,50,0
88068,note_on,48,0,3,,,,,,,,0,,,59,0
88068,note_on,48,0,2,,,,,,,,0,,,70,0
88080,note_on,24,0,1,,,,,,,,0,,,74,83
88080,note_on,12,0,2,,,,,,,,0,,,65,86
88080,note_on,12,0,3,,,,,,,,0,,,58,86
88080,note_on,24,0,4,,,,,,,,0,,,50,83
88128,note_on,48,0,2,,,,,,,,0,,,65,0
88128,note_on,48,0,3,,,,,,,,0,,,58,0
88140,note_on,12,0,3,,,,,,,,0,,,60,88
88140,note_on,12,0,2,,,,,,,,0,,,70,88
88176,note_on,96,0,4,,,,,,,,0,,,50,0
88176,note_on,96,0,1,,,,,,,,0,,,74,0
88188,note_on,48,0,3,,,,,,,,0,,,60,0
88188,note_on,48,0,2,,,,,,,,0,,,70,0
88200,note_on,24,0,4,,,,,,,,0,,,50,84
88200,note_on,12,0,3,,,,,,,,0,,,58,89
88200,note_on,12,0,2,,,,,,,,0,,,65,89
88200,note_on,24,0,1,,,,,,,,0,,,77,84
88248,note_on,48,0,2,,,,,,,,0,,,65,0
88248,note_on,48,0,3,,,,,,,,0,,,58,0
88260,note_on,12,0,2,,,,,,,,0,,,70,90
88260,note_on,12,0,3,,,,,,,,0,,,59,90
88296,note_on,96,0,4,,,,,,,,0,,,50,0
88296,note_on,96,0,1,,,,,,,,0,,,77,0
88308,note_on,48,0,3,,,,,,,,0,,,59,0
88308,note_on,48,0,2,,,,,,,,0,,,70,0
88320,note_on,12,0,3,,,,,,,,0,,,58,91
88320,note_on,12,0,2,,,,,,,,0,,,65,91
88320,note_on,24,0,1,,,,,,,,0,,,76,85
88320,note_on,24,0,4,,,,,,,,0,,,50,85
88368,note_on,48,0,3,,,,,,,,0,,,58,0
88368,note_on,48,0,2,,,,,,,,0,,,65,0
88368,note_on,48,0,1,,,,,,,,0,,,76,0
88380,note_on,12,0,1,,,,,,,,0,,,75,86
88380,note_on,12,0,2,,,,,,,,0,,,70,92
88380,note_on,12,0,3,,,,,,,,0,,,65,92
88416,note_on,96,0,4,,,,,,,,0,,,50,0
88428,note_on,48,0,3,,,,,,,,0,,,65,0
88428,note_on,48,0,2,,,,,,,,0,,,70,0
88428,note_on,48,0,1,,,,,,,,0,,,75,0
88440,note_on,12,0,1,,,,,,,,0,,,74,87
88440,note_on,12,0,3,,,,,,,,0,,,62,93
88440,note_on,12,0,2,,,,,,,,0,,,65,93
88447,control_change,31,0,4,,,,,,,,0,64,0,,
88536,note_on,96,0,3,,,,,,,,0,,,62,0
88536,note_on,96,0,2,,,,,,,,0,,,65,0
88536,note_on,96,0,1,,,,,,,,0,,,74,0
88560,note_on,0,0,4,,,,,,,,0,,,42,90
88560,control_change,0,0,4,,,,,,,,0,64,127,,
88560,note_on,113,0,4,,,,,,,,0,,,30,90
88656,note_on,0,0,4,,,,,,,,0,,,30,0
88656,note_on,96,0,4,,,,,,,,0,,,42,0
88680,note_on,144,0,1,,,,,,,,0,,,82,93
88680,note_on,144,0,2,,,,,,,,0,,,70,98
88680,note_on,24,0,4,,,,,,,,0,,,55,93
88680,note_on,144,0,3,,,,,,,,0,,,61,98
88728,note_on,48,0,3,,,,,,,,0,,,61,0
88728,note_on,48,0,2,,,,,,,,0,,,70,0
88740,note_on,12,0,2,,,,,,,,0,,,73,99
88740,note_on,12,0,3,,,,,,,,0,,,64,99
88776,note_on,96,0,1,,,,,,,,0,,,82,0
88776,note_on,96,0,4,,,,,,,,0,,,55,0
88788,note_on,48,0,3,,,,,,,,0,,,64,0
88788,note_on,48,0,2,,,,,,,,0,,,73,0
88800,note_on,24,0,4,,,,,,,,0,,,54,96
88800,note_on,24,0,1,,,,,,,,0,,,80,96
88800,note_on,12,0,3,,,,,,,,0,,,61,100
88800,note_on,12,0,2,,,,,,,,0,,,70,100
88848,note_on,48,0,2,,,,,,,,0,,,70,0
88848,note_on,48,0,3,,,,,,,,0,,,61,0
88860,note_on,12,0,3,,,,,,,,0,,,64,101
88860,note_on,12,0,2,,,,,,,,0,,,73,101
88896,note_on,96,0,4,,,,,,,,0,,,54,0
88896,note_on,96,0,1,,,,,,,,0,,,80,0
88908,note_on,48,0,3,,,,,,,,0,,,64,0
88908,note_on,48,0,2,,,,,,,,0,,,73,0
88920,note_on,24,0,1,,,,,,,,0,,,79,99
88920,note_on,12,0,2,,,,,,,,0,,,70,102
88920,note_on,12,0,3,,,,,,,,0,,,61,102
88920,note_on,24,0,4,,,,,,,,0,,,55,100
88968,note_on,48,0,3,,,,,,,,0,,,61,0
88968,note_on,48,0,2,,,,,,,,0,,,70,0
88980,note_on,12,0,3,,,,,,,,0,,,64,104
88980,note_on,12,0,2,,,,,,,,0,,,73,104
89016,note_on,96,0,1,,,,,,,,0,,,79,0
89016,note_on,96,0,4,,,,,,,,0,,,55,0
89028,note_on,48,0,3,,,,,,,,0,,,64,0
89028,note_on,48,0,2,,,,,,,,0,,,73,0
89040,note_on,24,0,1,,,,,,,,0,,,78,101
89040,note_on,24,0,4,,,,,,,,0,,,54,104
89040,note_on,12,0,2,,,,,,,,0,,,70,105
89040,note_on,12,0,3,,,,,,,,0,,,61,105
89088,note_on,48,0,3,,,,,,,,0,,,61,0
89088,note_on,48,0,2,,,,,,,,0,,,70,0
89100,note_on,12,0,2,,,,,,,,0,,,73,106
89100,note_on,12,0,3,,,,,,,,0,,,64,106
89136,note_on,96,0,4,,,,,,,,0,,,54,0
89136,note_on,96,0,1,,,,,,,,0,,,78,0
89148,note_on,48,0,3,,,,,,,,0,,,64,0
89148,note_on,48,0,2,,,,,,,,0,,,73,0
89160,note_on,24,0,4,,,,,,,,0,,,55,108
89160,note_on,12,0,3,,,,,,,,0,,,61,107
89160,note_on,24,0,1,,,,,,,,0,,,82,104
89160,note_on,12,0,2,,,,,,,,0,,,70,107
89208,note_on,48,0,3,,,,,,,,0,,,61,0
89208,note_on,48,0,2,,,,,,,,0,,,70,0
89220,note_on,12,0,3,,,,,,,,0,,,64,108
89220,note_on,12,0,2,,,,,,,,0,,,73,108
89256,note_on,96,0,1,,,,,,,,0,,,82,0
89256,note_on,96,0,4,,,,,,,,0,,,55,0
89268,note_on,48,0,3,,,,,,,,0,,,64,0
89268,note_on,48,0,2,,,,,,,,0,,,73,0
89280,note_on,12,0,2,,,,,,,,0,,,70,109
89280,note_on,12,0,3,,,,,,,,0,,,61,109
89280,note_on,24,0,1,,,,,,,,0,,,80,107
89280,note_on,24,0,4,,,,,,,,0,,,54,112
89328,note_on,48,0,2,,,,,,,,0,,,70,0
89328,note_on,48,0,1,,,,,,,,0,,,80,0
89328,note_on,48,0,3,,,,,,,,0,,,61,0
89340,note_on,12,0,3,,,,,,,,0,,,64,110
89340,note_on,12,0,2,,,,,,,,0,,,73,110
89340,note_on,12,0,1,,,,,,,,0,,,79,108
89376,note_on,96,0,4,,,,,,,,0,,,54,0
89388,note_on,48,0,1,,,,,,,,0,,,79,0
89388,note_on,48,0,2,,,,,,,,0,,,73,0
89388,note_on,48,0,3,,,,,,,,0,,,64,0
89400,note_on,0,0,3,,,,,,,,0,,,64,112
89400,note_on,12,0,1,,,,,,,,0,,,78,110
89400,note_on,12,0,2,,,,,,,,0,,,70,112
89400,note_on,12,0,3,,,,,,,,0,,,66,112
89405,control_change,29,0,4,,,,,,,,0,64,0,,
89496,note_on,0,0,3,,,,,,,,0,,,66,0
89496,note_on,96,0,2,,,,,,,,0,,,70,0
89496,note_on,96,0,1,,,,,,,,0,,,78,0
89496,note_on,96,0,3,,,,,,,,0,,,64,0
89520,note_on,0,0,4,,,,,,,,0,,,35,95
89520,note_on,0,0,4,,,,,,,,0,,,47,95
89520,control_change,115,0,4,,,,,,,,0,64,127,,
89616,note_on,0,0,4,,,,,,,,0,,,35,0
89616,note_on,96,0,4,,,,,,,,0,,,47,0
89640,note_on,144,0,2,,,,,,,,0,,,59,112
89640,note_on,144,0,1,,,,,,,,0,,,87,112
89640,note_on,0,0,2,,,,,,,,0,,,63,112
89640,note_on,0,0,2,,,,,,,,0,,,69,112
89640,note_on,0,0,1,,,,,,,,0,,,75,112
89640,note_on,0,0,1,,,,,,,,0,,,78,112
89640,note_on,0,0,2,,,,,,,,0,,,66,112
89736,note_on,0,0,2,,,,,,,,0,,,59,0
89736,note_on,0,0,2,,,,,,,,0,,,66,0
89736,note_on,0,0,2,,,,,,,,0,,,69,0
89736,note_on,0,0,1,,,,,,,,0,,,78,0
89736,note_on,0,0,1,,,,,,,,0,,,87,0
89736,note_on,96,0,2,,,,,,,,0,,,63,0
89736,note_on,96,0,1,,,,,,,,0,,,75,0
89760,note_on,0,0,1,,,,,,,,0,,,85,112
89760,note_on,24,0,1,,,,,,,,0,,,78,112
89760,note_on,0,0,1,,,,,,,,0,,,75,112
89760,note_on,0,0,2,,,,,,,,0,,,59,112
89760,note_on,24,0,2,,,,,,,,0,,,66,112
89760,note_on,0,0,2,,,,,,,,0,,,69,112
89760,note_on,0,0,2,,,,,,,,0,,,63,112
89808,note_on,48,0,2,,,,,,,,0,,,63,0
89808,note_on,0,0,1,,,,,,,,0,,,78,0
89808,note_on,48,0,1,,,,,,,,0,,,75,0
89808,note_on,0,0,2,,,,,,,,0,,,69,0
89808,note_on,0,0,1,,,,,,,,0,,,85,0
89808,note_on,0,0,2,,,,,,,,0,,,66,0
89808,note_on,0,0,2,,,,,,,,0,,,59,0
89820,note_on,0,0,1,,,,,,,,0,,,84,112
89820,note_on,0,0,2,,,,,,,,0,,,63,112
89820,note_on,0,0,2,,,,,,,,0,,,66,112
89820,note_on,0,0,2,,,,,,,,0,,,69,112
89820,note_on,12,0,1,,,,,,,,0,,,75,112
89820,note_on,0,0,1,,,,,,,,0,,,78,112
89820,note_on,12,0,2,,,,,,,,0,,,59,112
89868,note_on,48,0,2,,,,,,,,0,,,69,0
89868,note_on,0,0,2,,,,,,,,0,,,66,0
89868,note_on,0,0,2,,,,,,,,0,,,63,0
89868,note_on,0,0,2,,,,,,,,0,,,59,0
89868,note_on,0,0,1,,,,,,,,0,,,78,0
89868,note_on,0,0,1,,,,,,,,0,,,75,0
89868,note_on,48,0,1,,,,,,,,0,,,84,0
89880,note_on,0,0,2,,,,,,,,0,,,69,112
89880,note_on,12,0,1,,,,,,,,0,,,83,112
89880,note_on,0,0,1,,,,,,,,0,,,78,112
89880,note_on,0,0,2,,,,,,,,0,,,66,112
89880,note_on,12,0,2,,,,,,,,0,,,63,112
89880,note_on,0,0,2,,,,,,,,0,,,59,112
89880,note_on,0,0,1,,,,,,,,0,,,75,112
89976,note_on,96,0,2,,,,,,,,0,,,69,0
89976,note_on,96,0,1,,,,,,,,0,,,75,0
89976,note_on,0,0,1,,,,,,,,0,,,78,0
89976,note_on,0,0,1,,,,,,,,0,,,83,0
89976,note_on,0,0,2,,,,,,,,0,,,66,0
89976,note_on,0,0,2,,,,,,,,0,,,63,0
89976,note_on,0,0,2,,,,,,,,0,,,59,0
90000,control_change,0,0,4,,,,,,,,0,64,0,,
90000,note_on,0,0,4,,,,,,,,0,,,29,112
90000,note_on,384,0,4,,,,,,,,0,,,41,112
90023,control_change,23,0,4,,,,,,,,0,64,127,,
90096,note_on,73,0,4,,,,,,,,0,,,29,0
90096,note_on,0,0,4,,,,,,,,0,,,41,0
90120,note_on,24,0,4,,,,,,,,0,,,63,112
90120,note_on,0,0,4,,,,,,,,0,,,53,112
90120,note_on,0,0,4,,,,,,,,0,,,60,112
90120,note_on,0,0,1,,,,,,,,0,,,93,112
90120,note_on,0,0,1,,,,,,,,0,,,81,112
90120,note_on,144,0,1,,,,,,,,0,,,84,112
90120,note_on,0,0,4,,,,,,,,0,,,69,112
90216,note_on,0,0,4,,,,,,,,0,,,60,0
90216,note_on,0,0,1,,,,,,,,0,,,93,0
90216,note_on,96,0,1,,,,,,,,0,,,81,0
90216,note_on,0,0,1,,,,,,,,0,,,84,0
90216,note_on,0,0,4,,,,,,,,0,,,69,0
90216,note_on,0,0,4,,,,,,,,0,,,63,0
90216,note_on,96,0,4,,,,,,,,0,,,53,0
90240,note_on,0,0,4,,,,,,,,0,,,63,112
90240,note_on,0,0,4,,,,,,,,0,,,69,112
90240,note_on,0,0,4,,,,,,,,0,,,60,112
90240,note_on,0,0,1,,,,,,,,0,,,81,112
90240,note_on,0,0,1,,,,,,,,0,,,84,112
90240,note_on,24,0,4,,,,,,,,0,,,53,112
90240,note_on,24,0,1,,,,,,,,0,,,92,112
90336,note_on,0,0,4,,,,,,,,0,,,69,0
90336,note_on,96,0,4,,,,,,,,0,,,60,0
90336,note_on,0,0,1,,,,,,,,0,,,84,0
90336,note_on,96,0,1,,,,,,,,0,,,81,0
90336,note_on,0,0,1,,,,,,,,0,,,92,0
90336,note_on,0,0,4,,,,,,,,0,,,53,0
90336,note_on,0,0,4,,,,,,,,0,,,63,0
90360,note_on,0,0,4,,,,,,,,0,,,69,112
90360,note_on,0,0,4,,,,,,,,0,,,60,112
90360,note_on,24,0,4,,,,,,,,0,,,63,112
90360,note_on,24,0,1,,,,,,,,0,,,84,112
90360,note_on,0,0,4,,,,,,,,0,,,53,112
90360,note_on,0,0,1,,,,,,,,0,,,81,112
90360,note_on,0,0,1,,,,,,,,0,,,91,112
90456,note_on,0,0,4,,,,,,,,0,,,69,0
90456,note_on,96,0,4,,,,,,,,0,,,53,0
90456,note_on,0,0,4,,,,,,,,0,,,63,0
90456,note_on,96,0,1,,,,,,,,0,,,81,0
90456,note_on,0,0,4,,,,,,,,0,,,60,0
90456,note_on,0,0,1,,,,,,,,0,,,91,0
90456,note_on,0,0,1,,,,,,,,0,,,84,0
90480,note_on,0,0,4,,,,,,,,0,,,63,106
90480,note_on,0,0,4,,,,,,,,0,,,53,106
90480,note_on,0,0,1,,,,,,,,0,,,81,127
90480,note_on,24,0,1,,,,,,,,0,,,90,112
90480,note_on,0,0,1,,,,,,,,0,,,84,127
90480,note_on,24,0,4,,,,,,,,0,,,60,106
90480,note_on,0,0,4,,,,,,,,0,,,69,106
90486,set_tempo,2893,1,0,,,,,,440690,,,,,,
90576,note_on,0,0,1,,,,,,,,0,,,84,0
90576,note_on,0,0,1,,,,,,,,0,,,90,0
90576,note_on,0,0,4,,,,,,,,0,,,63,0
90576,note_on,96,0,1,,,,,,,,0,,,81,0
90576,note_on,0,0,4,,,,,,,,0,,,53,0
90576,note_on,96,0,4,,,,,,,,0,,,69,0
90576,note_on,0,0,4,,,,,,,,0,,,60,0
90582,set_tempo,96,1,0,,,,,,443918,,,,,,
90600,note_on,0,0,4,,,,,,,,0,,,53,98
90600,note_on,0,0,4,,,,,,,,0,,,69,98
90600,note_on,24,0,4,,,,,,,,0,,,63,98
90600,note_on,0,0,1,,,,,,,,0,,,77,123
90600,note_on,0,0,4,,,,,,,,0,,,60,98
90600,note_on,24,0,1,,,,,,,,0,,,81,123
90600,note_on,0,0,1,,,,,,,,0,,,89,110
90678,set_tempo,96,1,0,,,,,,447194,,,,,,
90696,note_on,96,0,1,,,,,,,,0,,,77,0
90696,note_on,0,0,4,,,,,,,,0,,,60,0
90696,note_on,0,0,4,,,,,,,,0,,,63,0
90696,note_on,0,0,1,,,,,,,,0,,,81,0
90696,note_on,96,0,4,,,,,,,,0,,,69,0
90696,note_on,0,0,4,,,,,,,,0,,,53,0
90696,note_on,0,0,1,,,,,,,,0,,,89,0
90720,note_on,24,0,1,,,,,,,,0,,,88,108
90720,note_on,0,0,4,,,,,,,,0,,,69,90
90720,note_on,24,0,4,,,,,,,,0,,,60,90
90720,note_on,0,0,1,,,,,,,,0,,,77,112
90720,note_on,0,0,1,,,,,,,,0,,,81,112
90720,note_on,0,0,4,,,,,,,,0,,,53,90
90720,note_on,0,0,4,,,,,,,,0,,,63,90
90768,note_on,0,0,1,,,,,,,,0,,,81,0
90768,note_on,0,0,1,,,,,,,,0,,,88,0
90768,note_on,48,0,1,,,,,,,,0,,,77,0
90768,note_on,0,0,4,,,,,,,,0,,,69,0
90768,note_on,48,0,4,,,,,,,,0,,,63,0
90768,note_on,0,0,4,,,,,,,,0,,,53,0
90768,note_on,0,0,4,,,,,,,,0,,,60,0
90770,set_tempo,92,1,0,,,,,,450518,,,,,,
90780,note_on,0,0,4,,,,,,,,0,,,63,85
90780,note_on,0,0,4,,,,,,,,0,,,60,85
90780,note_on,0,0,1,,,,,,,,0,,,87,107
90780,note_on,0,0,4,,,,,,,,0,,,69,85
90780,note_on,12,0,4,,,,,,,,0,,,53,85
90780,note_on,0,0,1,,,,,,,,0,,,81,107
90780,note_on,12,0,1,,,,,,,,0,,,77,107
90828,note_on,0,0,4,,,,,,,,0,,,53,0
90828,note_on,0,0,1,,,,,,,,0,,,77,0
90828,note_on,0,0,1,,,,,,,,0,,,81,0
90828,note_on,48,0,1,,,,,,,,0,,,87,0
90828,note_on,48,0,4,,,,,,,,0,,,63,0
90828,note_on,0,0,4,,,,,,,,0,,,69,0
90828,note_on,0,0,4,,,,,,,,0,,,60,0
90840,note_on,0,0,4,,,,,,,,0,,,53,81
90840,note_on,0,0,4,,,,,,,,0,,,63,81
90840,note_on,0,0,4,,,,,,,,0,,,69,81
90840,note_on,12,0,4,,,,,,,,0,,,60,81
90840,note_on,0,0,1,,,,,,,,0,,,81,106
90840,note_on,0,0,1,,,,,,,,0,,,86,106
90840,note_on,12,0,1,,,,,,,,0,,,77,106
90866,set_tempo,96,1,0,,,,,,453892,,,,,,
90936,note_on,96,0,4,,,,,,,,0,,,53,0
90936,note_on,0,0,1,,,,,,,,0,,,86,0
90936,note_on,0,0,1,,,,,,,,0,,,77,0
90936,note_on,96,0,1,,,,,,,,0,,,81,0
90936,note_on,0,0,4,,,,,,,,0,,,69,0
90936,note_on,0,0,4,,,,,,,,0,,,63,0
90936,note_on,0,0,4,,,,,,,,0,,,60,0
90960,note_on,24,0,1,,,,,,,,0,,,72,104
90960,note_on,0,0,1,,,,,,,,0,,,85,104
90960,note_on,0,0,4,,,,,,,,0,,,69,83
90960,note_on,0,0,4,,,,,,,,0,,,60,83
90960,note_on,0,0,4,,,,,,,,0,,,53,83
90960,note_on,0,0,1,,,,,,,,0,,,75,104
90960,note_on,24,0,4,,,,,,,,0,,,63,83
90962,set_tempo,96,1,0,,,,,,457317,,,,,,
91008,note_on,0,0,4,,,,,,,,0,,,60,0
91008,note_on,0,0,1,,,,,,,,0,,,72,0
91008,note_on,48,0,1,,,,,,,,0,,,75,0
91008,note_on,48,0,4,,,,,,,,0,,,53,0
91008,note_on,0,0,1,,,,,,,,0,,,85,0
91008,note_on,0,0,4,,,,,,,,0,,,63,0
91008,note_on,0,0,4,,,,,,,,0,,,69,0
91020,note_on,12,0,1,,,,,,,,0,,,84,103
91020,note_on,12,0,4,,,,,,,,0,,,69,82
91020,note_on,0,0,4,,,,,,,,0,,,60,82
91020,note_on,0,0,4,,,,,,,,0,,,53,82
91020,note_on,0,0,4,,,,,,,,0,,,63,82
91020,note_on,0,0,1,,,,,,,,0,,,75,103
91020,note_on,0,0,1,,,,,,,,0,,,72,103
91054,set_tempo,92,1,0,,,,,,460794,,,,,,
91068,note_on,0,0,1,,,,,,,,0,,,75,0
91068,note_on,48,0,1,,,,,,,,0,,,72,0
91068,note_on,0,0,4,,,,,,,,0,,,53,0
91068,note_on,0,0,4,,,,,,,,0,,,63,0
91068,note_on,0,0,4,,,,,,,,0,,,69,0
91068,note_on,48,0,4,,,,,,,,0,,,60,0
91068,note_on,0,0,1,,,,,,,,0,,,84,0
91080,note_on,0,0,1,,,,,,,,0,,,83,102
91080,note_on,0,0,1,,,,,,,,0,,,75,102
91080,note_on,12,0,4,,,,,,,,0,,,63,81
91080,note_on,0,0,4,,,,,,,,0,,,60,81
91080,note_on,0,0,4,,,,,,,,0,,,53,81
91080,note_on,12,0,1,,,,,,,,0,,,72,102
91080,note_on,0,0,4,,,,,,,,0,,,69,81
91150,set_tempo,96,1,0,,,,,,464324,,,,,,
91176,note_on,96,0,4,,,,,,,,0,,,69,0
91176,note_on,0,0,1,,,,,,,,0,,,72,0
91176,note_on,0,0,1,,,,,,,,0,,,75,0
91176,note_on,0,0,4,,,,,,,,0,,,60,0
91176,note_on,0,0,4,,,,,,,,0,,,63,0
91176,note_on,0,0,4,,,,,,,,0,,,53,0
91176,note_on,96,0,1,,,,,,,,0,,,83,0
91200,note_on,24,0,4,,,,,,,,0,,,63,80
91200,note_on,0,0,4,,,,,,,,0,,,53,80
91200,note_on,24,0,1,,,,,,,,0,,,69,100
91200,note_on,0,0,1,,,,,,,,0,,,72,100
91200,note_on,0,0,1,,,,,,,,0,,,82,100
91200,note_on,0,0,4,,,,,,,,0,,,65,80
91246,set_tempo,96,1,0,,,,,,467909,,,,,,
91248,note_on,48,0,1,,,,,,,,0,,,72,0
91248,note_on,0,0,1,,,,,,,,0,,,69,0
91248,note_on,0,0,1,,,,,,,,0,,,82,0
91248,note_on,48,0,4,,,,,,,,0,,,65,0
91248,note_on,0,0,4,,,,,,,,0,,,63,0
91248,note_on,0,0,4,,,,,,,,0,,,53,0
91260,note_on,0,0,1,,,,,,,,0,,,81,99
91260,note_on,0,0,4,,,,,,,,0,,,63,79
91260,note_on,0,0,4,,,,,,,,0,,,65,79
91260,note_on,12,0,4,,,,,,,,0,,,53,79
91260,note_on,12,0,1,,,,,,,,0,,,69,99
91260,note_on,0,0,1,,,,,,,,0,,,72,99
91308,note_on,48,0,1,,,,,,,,0,,,81,0
91308,note_on,0,0,4,,,,,,,,0,,,53,0
91308,note_on,0,0,4,,,,,,,,0,,,63,0
91308,note_on,0,0,1,,,,,,,,0,,,69,0
91308,note_on,0,0,1,,,,,,,,0,,,72,0
91308,note_on,48,0,4,,,,,,,,0,,,65,0
91320,note_on,0,0,1,,,,,,,,0,,,72,98
91320,note_on,0,0,1,,,,,,,,0,,,80,98
91320,note_on,12,0,4,,,,,,,,0,,,65,78
91320,note_on,12,0,1,,,,,,,,0,,,69,98
91320,note_on,0,0,4,,,,,,,,0,,,53,78
91320,note_on,0,0,4,,,,,,,,0,,,63,78
91337,set_tempo,91,1,0,,,,,,471550,,,,,,
91416,note_on,0,0,4,,,,,,,,0,,,65,0
91416,note_on,96,0,1,,,,,,,,0,,,80,0
91416,note_on,96,0,4,,,,,,,,0,,,53,0
91416,note_on,0,0,1,,,,,,,,0,,,69,0
91416,note_on,0,0,1,,,,,,,,0,,,72,0
91416,note_on,0,0,4,,,,,,,,0,,,63,0
91433,set_tempo,96,1,0,,,,,,475248,,,,,,
91440,note_on,0,0,1,,,,,,,,0,,,69,96
91440,note_on,24,0,1,,,,,,,,0,,,79,96
91440,note_on,0,0,4,,,,,,,,0,,,53,77
91440,note_on,0,0,1,,,,,,,,0,,,65,96
91440,note_on,0,0,4,,,,,,,,0,,,60,77
91440,note_on,24,0,4,,,,,,,,0,,,63,77
91488,note_on,0,0,4,,,,,,,,0,,,60,0
91488,note_on,0,0,1,,,,,,,,0,,,69,0
91488,note_on,48,0,1,,,,,,,,0,,,65,0
91488,note_on,0,0,1,,,,,,,,0,,,79,0
91488,note_on,0,0,4,,,,,,,,0,,,63,0
91488,note_on,48,0,4,,,,,,,,0,,,53,0
91500,note_on,12,0,1,,,,,,,,0,,,78,95
91500,note_on,0,0,1,,,,,,,,0,,,69,95
91500,note_on,0,0,1,,,,,,,,0,,,65,95
91500,note_on,0,0,4,,,,,,,,0,,,60,76
91500,note_on,12,0,4,,,,,,,,0,,,63,76
91500,note_on,0,0,4,,,,,,,,0,,,53,76
91529,set_tempo,96,1,0,,,,,,479004,,,,,,
91548,note_on,0,0,1,,,,,,,,0,,,78,0
91548,note_on,0,0,1,,,,,,,,0,,,69,0
91548,note_on,48,0,1,,,,,,,,0,,,65,0
91548,note_on,0,0,4,,,,,,,,0,,,60,0
91548,note_on,0,0,4,,,,,,,,0,,,63,0
91548,note_on,48,0,4,,,,,,,,0,,,53,0
91560,note_on,12,0,1,,,,,,,,0,,,69,94
91560,note_on,0,0,4,,,,,,,,0,,,53,75
91560,note_on,0,0,1,,,,,,,,0,,,65,94
91560,note_on,0,0,1,,,,,,,,0,,,77,94
91560,note_on,0,0,4,,,,,,,,0,,,60,75
91560,note_on,12,0,4,,,,,,,,0,,,63,75
91621,set_tempo,92,1,0,,,,,,482820,,,,,,
91656,note_on,96,0,1,,,,,,,,0,,,65,0
91656,note_on,96,0,4,,,,,,,,0,,,60,0
91656,note_on,0,0,1,,,,,,,,0,,,69,0
91656,note_on,0,0,1,,,,,,,,0,,,77,0
91656,note_on,0,0,4,,,,,,,,0,,,63,0
91656,note_on,0,0,4,,,,,,,,0,,,53,0
91680,note_on,24,0,4,,,,,,,,0,,,53,74
91680,note_on,0,0,1,,,,,,,,0,,,69,92
91680,note_on,24,0,1,,,,,,,,0,,,76,92
91680,note_on,0,0,4,,,,,,,,0,,,63,74
91680,note_on,0,0,1,,,,,,,,0,,,65,92
91680,note_on,0,0,4,,,,,,,,0,,,60,74
91717,set_tempo,96,1,0,,,,,,486697,,,,,,
91776,note_on,0,0,4,,,,,,,,0,,,63,0
91776,note_on,0,0,4,,,,,,,,0,,,53,0
91776,note_on,96,0,1,,,,,,,,0,,,69,0
91776,note_on,0,0,1,,,,,,,,0,,,65,0
91776,note_on,0,0,1,,,,,,,,0,,,76,0
91776,note_on,96,0,4,,,,,,,,0,,,60,0
91800,note_on,0,0,4,,,,,,,,0,,,53,72
91800,note_on,0,0,1,,,,,,,,0,,,65,90
91800,note_on,24,0,1,,,,,,,,0,,,69,90
91800,note_on,0,0,4,,,,,,,,0,,,63,72
91800,note_on,24,0,4,,,,,,,,0,,,60,72
91800,note_on,0,0,1,,,,,,,,0,,,75,90
91813,set_tempo,96,1,0,,,,,,490637,,,,,,
91896,note_on,0,0,1,,,,,,,,0,,,69,0
91896,note_on,0,0,4,,,,,,,,0,,,63,0
91896,note_on,0,0,4,,,,,,,,0,,,60,0
91896,note_on,96,0,1,,,,,,,,0,,,75,0
91896,note_on,0,0,1,,,,,,,,0,,,65,0
91896,note_on,96,0,4,,,,,,,,0,,,53,0
91905,set_tempo,92,1,0,,,,,,494641,,,,,,
91920,note_on,0,0,4,,,,,,,,0,,,53,71
91920,note_on,0,0,4,,,,,,,,0,,,60,71
91920,note_on,24,0,4,,,,,,,,0,,,63,71
91920,note_on,24,0,1,,,,,,,,0,,,65,88
91920,note_on,0,0,1,,,,,,,,0,,,72,88
91920,note_on,0,0,1,,,,,,,,0,,,69,88
92001,set_tempo,96,1,0,,,,,,498712,,,,,,
92016,note_on,96,0,1,,,,,,,,0,,,69,0
92016,note_on,0,0,4,,,,,,,,0,,,60,0
92016,note_on,0,0,4,,,,,,,,0,,,63,0
92016,note_on,0,0,1,,,,,,,,0,,,72,0
92016,note_on,96,0,4,,,,,,,,0,,,53,0
92016,note_on,0,0,1,,,,,,,,0,,,65,0
92040,note_on,0,0,4,,,,,,,,0,,,53,69
92040,note_on,0,0,1,,,,,,,,0,,,75,86
92040,note_on,0,0,4,,,,,,,,0,,,63,69
92040,note_on,24,0,1,,,,,,,,0,,,65,86
92040,note_on,0,0,1,,,,,,,,0,,,69,86
92040,note_on,24,0,4,,,,,,,,0,,,60,69
92092,set_tempo,91,1,0,,,,,,502849,,,,,,
92097,set_tempo,5,1,0,,,,,,502849,,,,,,
92114,set_tempo,17,1,0,,,,,,498712,,,,,,
92132,set_tempo,18,1,0,,,,,,494641,,,,,,
92136,note_on,0,0,4,,,,,,,,0,,,63,0
92136,note_on,0,0,1,,,,,,,,0,,,75,0
92136,note_on,0,0,4,,,,,,,,0,,,60,0
92136,note_on,96,0,1,,,,,,,,0,,,69,0
92136,note_on,96,0,4,,,,,,,,0,,,53,0
92136,note_on,0,0,1,,,,,,,,0,,,65,0
92153,set_tempo,21,1,0,,,,,,502849,,,,,,
92160,note_on,24,0,1,,,,,,,,0,,,65,84
92160,note_on,24,0,4,,,,,,,,0,,,63,67
92160,note_on,0,0,1,,,,,,,,0,,,79,84
92160,note_on,0,0,4,,,,,,,,0,,,60,67
92160,note_on,0,0,4,,,,,,,,0,,,53,67
92160,note_on,0,0,1,,,,,,,,0,,,69,84
92166,set_tempo,13,1,0,,,,,,507057,,,,,,
92175,set_tempo,9,1,0,,,,,,511335,,,,,,
92184,set_tempo,9,1,0,,,,,,515685,,,,,,
92197,set_tempo,13,1,0,,,,,,520111,,,,,,
92206,set_tempo,9,1,0,,,,,,524613,,,,,,
92208,note_on,0,0,1,,,,,,,,0,,,65,0
92208,note_on,48,0,1,,,,,,,,0,,,79,0
92208,note_on,0,0,4,,,,,,,,0,,,60,0
92208,note_on,0,0,4,,,,,,,,0,,,63,0
92208,note_on,48,0,4,,,,,,,,0,,,53,0
92208,note_on,0,0,1,,,,,,,,0,,,69,0
92214,set_tempo,8,1,0,,,,,,529194,,,,,,
92220,note_on,0,0,1,,,,,,,,0,,,78,83
92220,note_on,0,0,1,,,,,,,,0,,,65,83
92220,note_on,0,0,4,,,,,,,,0,,,60,66
92220,note_on,12,0,1,,,,,,,,0,,,69,83
92220,note_on,12,0,4,,,,,,,,0,,,63,66
92220,note_on,0,0,4,,,,,,,,0,,,53,66
92228,set_tempo,14,1,0,,,,,,533855,,,,,,
92236,set_tempo,8,1,0,,,,,,538600,,,,,,
92245,set_tempo,9,1,0,,,,,,543429,,,,,,
92258,set_tempo,13,1,0,,,,,,548346,,,,,,
92267,set_tempo,9,1,0,,,,,,553352,,,,,,
92268,note_on,0,0,1,,,,,,,,0,,,78,0
92268,note_on,0,0,1,,,,,,,,0,,,69,0
92268,note_on,48,0,4,,,,,,,,0,,,53,0
92268,note_on,48,0,1,,,,,,,,0,,,65,0
92268,note_on,0,0,4,,,,,,,,0,,,63,0
92268,note_on,0,0,4,,,,,,,,0,,,60,0
92276,set_tempo,9,1,0,,,,,,558451,,,,,,
92280,note_on,12,0,1,,,,,,,,0,,,69,82
92280,note_on,0,0,1,,,,,,,,0,,,77,82
92280,note_on,0,0,1,,,,,,,,0,,,65,82
92280,note_on,12,0,4,,,,,,,,0,,,63,65
92280,note_on,0,0,4,,,,,,,,0,,,60,65
92280,note_on,0,0,4,,,,,,,,0,,,53,65
92289,set_tempo,13,1,0,,,,,,563645,,,,,,
92297,set_tempo,8,1,0,,,,,,568936,,,,,,
92306,set_tempo,9,1,0,,,,,,574328,,,,,,
92319,set_tempo,13,1,0,,,,,,579822,,,,,,
92328,set_tempo,9,1,0,,,,,,585423,,,,,,
92337,set_tempo,9,1,0,,,,,,591133,,,,,,
92350,set_tempo,13,1,0,,,,,,596956,,,,,,
92358,set_tempo,8,1,0,,,,,,602894,,,,,,
92367,set_tempo,9,1,0,,,,,,608952,,,,,,
92376,note_on,96,0,1,,,,,,,,0,,,77,0
92376,note_on,0,0,1,,,,,,,,0,,,69,0
92376,note_on,0,0,4,,,,,,,,0,,,63,0
92376,note_on,0,0,4,,,,,,,,0,,,53,0
92376,note_on,96,0,4,,,,,,,,0,,,60,0
92376,note_on,0,0,1,,,,,,,,0,,,65,0
92380,set_tempo,13,1,0,,,,,,615132,,,,,,
92384,set_tempo,4,1,0,,,,,,596956,,,,,,
92393,set_tempo,9,1,0,,,,,,591133,,,,,,
92397,set_tempo,4,1,0,,,,,,585423,,,,,,
92400,note_on,0,0,2,,,,,,,,0,,,74,80
92400,note_on,2424,0,2,,,,,,,,0,,,65,80
92400,control_change,0,0,4,,,,,,,,0,64,0,,
92400,note_on,0,0,2,,,,,,,,0,,,70,80
92400,note_on,24,0,4,,,,,,,,0,,,58,80
92400,note_on,0,0,4,,,,,,,,0,,,62,80
92406,set_tempo,9,1,0,,,,,,579822,,,,,,
92410,set_tempo,4,1,0,,,,,,574328,,,,,,
92415,set_tempo,5,1,0,,,,,,568936,,,,,,
92423,set_tempo,8,1,0,,,,,,563645,,,,,,
92428,set_tempo,5,1,0,,,,,,558451,,,,,,
92432,set_tempo,4,1,0,,,,,,553352,,,,,,
92441,set_tempo,9,1,0,,,,,,548346,,,,,,
92445,set_tempo,4,1,0,,,,,,543429,,,,,,
92454,set_tempo,9,1,0,,,,,,538600,,,,,,
92458,set_tempo,4,1,0,,,,,,533855,,,,,,
92463,set_tempo,5,1,0,,,,,,529194,,,,,,
92471,set_tempo,8,1,0,,,,,,524613,,,,,,
92476,set_tempo,5,1,0,,,,,,520111,,,,,,
92480,set_tempo,4,1,0,,,,,,515685,,,,,,
92489,set_tempo,9,1,0,,,,,,511335,,,,,,
92493,set_tempo,4,1,0,,,,,,507057,,,,,,
92497,set_tempo,4,1,0,,,,,,502849,,,,,,
92506,set_tempo,9,1,0,,,,,,498712,,,,,,
92511,set_tempo,5,1,0,,,,,,494641,,,,,,
92519,set_tempo,8,1,0,,,,,,490637,,,,,,
92524,set_tempo,5,1,0,,,,,,486697,,,,,,
92528,set_tempo,4,1,0,,,,,,482820,,,,,,
92537,set_tempo,9,1,0,,,,,,479004,,,,,,
92541,set_tempo,4,1,0,,,,,,475248,,,,,,
92545,set_tempo,4,1,0,,,,,,471550,,,,,,
92554,set_tempo,9,1,0,,,,,,467909,,,,,,
92559,set_tempo,5,1,0,,,,,,464324,,,,,,
92563,set_tempo,4,1,0,,,,,,460794,,,,,,
92572,set_tempo,9,1,0,,,,,,457317,,,,,,
92576,set_tempo,4,1,0,,,,,,453892,,,,,,
92585,set_tempo,9,1,0,,,,,,450518,,,,,,
92589,set_tempo,4,1,0,,,,,,447194,,,,,,
92592,note_on,192,0,2,,,,,,,,0,,,74,0
92592,note_on,0,0,4,,,,,,,,0,,,58,0
92592,note_on,192,0,4,,,,,,,,0,,,62,0
92592,note_on,0,0,2,,,,,,,,0,,,70,0
92592,note_on,0,0,2,,,,,,,,0,,,65,0
92593,set_tempo,4,1,0,,,,,,443918,,,,,,
92602,set_tempo,9,1,0,,,,,,440690,,,,,,
92607,set_tempo,5,1,0,,,,,,437509,,,,,,
92611,set_tempo,4,1,0,,,,,,434373,,,,,,
92620,set_tempo,9,1,0,,,,,,431282,,,,,,
92624,set_tempo,4,1,0,,,,,,428235,,,,,,
92628,set_tempo,4,1,0,,,,,,425230,,,,,,
92640,note_on,48,0,4,,,,,,,,0,,,59,80
92640,note_on,264,0,1,,,,,,,,0,,,62,80
92640,note_on,0,0,4,,,,,,,,0,,,56,80
92640,note_on,0,0,4,,,,,,,,0,,,50,80
92640,note_on,48,0,2,,,,,,,,0,,,74,80
92640,note_on,0,0,4,,,,,,,,0,,,53,80
92688,note_on,48,0,1,,,,,,,,0,,,62,0
92700,note_on,12,0,1,,,,,,,,0,,,63,80
92748,note_on,48,0,1,,,,,,,,0,,,63,0
92760,note_on,12,0,1,,,,,,,,0,,,62,80
92808,note_on,48,0,1,,,,,,,,0,,,62,0
92820,note_on,12,0,1,,,,,,,,0,,,64,80
92832,note_on,192,0,2,,,,,,,,0,,,74,0
92868,note_on,48,0,1,,,,,,,,0,,,64,0
92880,note_on,12,0,1,,,,,,,,0,,,65,80
92928,note_on,48,0,1,,,,,,,,0,,,65,0
92940,note_on,12,0,1,,,,,,,,0,,,66,80
92988,note_on,48,0,1,,,,,,,,0,,,66,0
93000,note_on,12,0,1,,,,,,,,0,,,65,80
93048,note_on,48,0,1,,,,,,,,0,,,65,0
93060,note_on,12,0,1,,,,,,,,0,,,67,80
93085,control_change,445,0,4,,,,,,,,0,64,127,,
93108,note_on,48,0,1,,,,,,,,0,,,67,0
93120,note_on,12,0,1,,,,,,,,0,,,68,80
93168,note_on,48,0,1,,,,,,,,0,,,68,0
93180,note_on,12,0,1,,,,,,,,0,,,69,80
93228,note_on,48,0,1,,,,,,,,0,,,69,0
93240,note_on,12,0,1,,,,,,,,0,,,68,80
93288,note_on,48,0,1,,,,,,,,0,,,68,0
93300,note_on,12,0,1,,,,,,,,0,,,70,80
93348,note_on,48,0,1,,,,,,,,0,,,70,0
93360,note_on,12,0,1,,,,,,,,0,,,71,80
93360,control_change,275,0,4,,,,,,,,0,64,0,,
93397,control_change,37,0,4,,,,,,,,0,64,127,,
93408,note_on,48,0,1,,,,,,,,0,,,71,0
93420,note_on,12,0,1,,,,,,,,0,,,72,80
93468,note_on,48,0,1,,,,,,,,0,,,72,0
93480,note_on,12,0,1,,,,,,,,0,,,71,80
93480,note_on,3984,0,3,,,,,,,,0,,,62,80
93528,note_on,48,0,1,,,,,,,,0,,,71,0
93540,note_on,12,0,1,,,,,,,,0,,,73,80
93552,note_on,155,0,4,,,,,,,,0,,,50,0
93552,note_on,0,0,4,,,,,,,,0,,,56,0
93552,note_on,0,0,4,,,,,,,,0,,,59,0
93552,note_on,0,0,4,,,,,,,,0,,,53,0
93576,note_on,96,0,3,,,,,,,,0,,,62,0
93588,note_on,48,0,1,,,,,,,,0,,,73,0
93600,note_on,12,0,1,,,,,,,,0,,,74,80
93600,note_on,24,0,3,,,,,,,,0,,,61,80
93600,note_on,0,0,4,,,,,,,,0,,,53,72
93600,note_on,48,0,4,,,,,,,,0,,,50,72
93600,note_on,0,0,4,,,,,,,,0,,,56,72
93602,control_change,2,0,4,,,,,,,,0,64,0,,
93621,control_change,19,0,4,,,,,,,,0,64,127,,
93648,note_on,48,0,1,,,,,,,,0,,,74,0
93660,note_on,12,0,1,,,,,,,,0,,,75,80
93696,note_on,96,0,3,,,,,,,,0,,,61,0
93708,note_on,48,0,1,,,,,,,,0,,,75,0
93720,note_on,12,0,1,,,,,,,,0,,,74,80
93720,note_on,24,0,3,,,,,,,,0,,,60,80
93768,note_on,48,0,1,,,,,,,,0,,,74,0
93780,note_on,12,0,1,,,,,,,,0,,,76,80
93792,note_on,0,0,4,,,,,,,,0,,,50,0
93792,note_on,0,0,4,,,,,,,,0,,,56,0
93792,note_on,171,0,4,,,,,,,,0,,,53,0
93816,note_on,96,0,3,,,,,,,,0,,,60,0
93828,note_on,48,0,1,,,,,,,,0,,,76,0
93835,control_change,43,0,4,,,,,,,,0,64,0,,
93840,note_on,12,0,1,,,,,,,,0,,,77,80
93840,note_on,24,0,3,,,,,,,,0,,,59,80
93840,note_on,0,0,4,,,,,,,,0,,,53,72
93840,note_on,5,0,4,,,,,,,,0,,,56,72
93840,note_on,0,0,4,,,,,,,,0,,,50,72
93861,control_change,21,0,4,,,,,,,,0,64,127,,
93888,note_on,48,0,1,,,,,,,,0,,,77,0
93900,note_on,12,0,1,,,,,,,,0,,,78,80
93936,note_on,96,0,3,,,,,,,,0,,,59,0
93948,note_on,48,0,1,,,,,,,,0,,,78,0
93960,note_on,24,0,3,,,,,,,,0,,,62,80
93960,note_on,12,0,1,,,,,,,,0,,,77,80
94008,note_on,48,0,1,,,,,,,,0,,,77,0
94020,note_on,12,0,1,,,,,,,,0,,,79,80
94032,note_on,171,0,4,,,,,,,,0,,,53,0
94032,note_on,0,0,4,,,,,,,,0,,,50,0
94032,note_on,0,0,4,,,,,,,,0,,,56,0
94056,note_on,96,0,3,,,,,,,,0,,,62,0
94068,note_on,48,0,1,,,,,,,,0,,,79,0
94080,note_on,0,0,4,,,,,,,,0,,,53,72
94080,note_on,48,0,4,,,,,,,,0,,,50,72
94080,note_on,24,0,3,,,,,,,,0,,,61,80
94080,note_on,0,0,4,,,,,,,,0,,,56,72
94080,control_change,0,0,4,,,,,,,,0,64,0,,
94080,note_on,12,0,1,,,,,,,,0,,,80,80
94098,control_change,18,0,4,,,,,,,,0,64,127,,
94128,note_on,48,0,3,,,,,,,,0,,,61,0
94128,note_on,48,0,1,,,,,,,,0,,,80,0
94140,note_on,12,0,3,,,,,,,,0,,,60,80
94140,note_on,12,0,1,,,,,,,,0,,,81,80
94188,note_on,48,0,1,,,,,,,,0,,,81,0
94188,note_on,48,0,3,,,,,,,,0,,,60,0
94200,note_on,12,0,1,,,,,,,,0,,,80,80
94200,note_on,12,0,3,,,,,,,,0,,,59,80
94248,note_on,48,0,1,,,,,,,,0,,,80,0
94260,note_on,12,0,1,,,,,,,,0,,,83,80
94272,note_on,174,0,4,,,,,,,,0,,,53,0
94272,note_on,0,0,4,,,,,,,,0,,,56,0
94272,note_on,0,0,4,,,,,,,,0,,,50,0
94296,note_on,96,0,3,,,,,,,,0,,,59,0
94308,note_on,48,0,1,,,,,,,,0,,,83,0
94320,note_on,0,0,4,,,,,,,,0,,,50,80
94320,note_on,0,0,4,,,,,,,,0,,,57,80
94320,note_on,48,0,4,,,,,,,,0,,,54,80
94320,note_on,0,0,4,,,,,,,,0,,,62,80
94320,note_on,12,0,1,,,,,,,,0,,,86,80
94329,control_change,9,0,4,,,,,,,,0,64,0,,
94343,control_change,14,0,4,,,,,,,,0,64,127,,
94368,note_on,48,0,1,,,,,,,,0,,,86,0
94380,note_on,12,0,1,,,,,,,,0,,,87,80
94428,note_on,48,0,1,,,,,,,,0,,,87,0
94440,note_on,12,0,1,,,,,,,,0,,,86,80
94488,note_on,48,0,1,,,,,,,,0,,,86,0
94500,note_on,12,0,1,,,,,,,,0,,,89,80
94548,note_on,48,0,1,,,,,,,,0,,,89,0
94560,note_on,12,0,1,,,,,,,,0,,,90,80
94608,note_on,48,0,1,,,,,,,,0,,,90,0
94620,note_on,12,0,1,,,,,,,,0,,,91,80
94668,note_on,48,0,1,,,,,,,,0,,,91,0
94680,note_on,12,0,1,,,,,,,,0,,,90,80
94704,note_on,0,0,4,,,,,,,,0,,,57,0
94704,note_on,0,0,4,,,,,,,,0,,,54,0
94704,note_on,361,0,4,,,,,,,,0,,,62,0
94704,note_on,0,0,4,,,,,,,,0,,,50,0
94728,note_on,48,0,1,,,,,,,,0,,,90,0
94740,note_on,12,0,1,,,,,,,,0,,,92,80
94788,note_on,48,0,1,,,,,,,,0,,,92,0
94800,note_on,12,0,1,,,,,,,,0,,,93,80
94848,note_on,48,0,1,,,,,,,,0,,,93,0
94860,note_on,12,0,1,,,,,,,,0,,,94,80
94908,note_on,48,0,1,,,,,,,,0,,,94,0
94920,note_on,12,0,1,,,,,,,,0,,,93,80
94968,note_on,48,0,1,,,,,,,,0,,,93,0
94980,note_on,12,0,1,,,,,,,,0,,,97,80
95028,note_on,48,0,1,,,,,,,,0,,,97,0
95040,note_on,12,0,1,,,,,,,,0,,,98,80
95063,control_change,359,0,4,,,,,,,,0,64,0,,
95088,note_on,48,0,1,,,,,,,,0,,,98,0
95100,note_on,12,0,1,,,,,,,,0,,,97,80
95148,note_on,48,0,1,,,,,,,,0,,,97,0
95160,note_on,12,0,1,,,,,,,,0,,,98,80
95208,note_on,48,0,1,,,,,,,,0,,,98,0
95220,note_on,12,0,1,,,,,,,,0,,,97,80
95268,note_on,48,0,1,,,,,,,,0,,,97,0
95280,note_on,0,0,4,,,,,,,,0,,,55,80
95280,note_on,0,0,4,,,,,,,,0,,,63,80
95280,note_on,2448,0,2,,,,,,,,0,,,99,80
95280,note_on,217,0,4,,,,,,,,0,,,48,80
95280,control_change,0,0,4,,,,,,,,0,64,127,,
95280,note_on,12,0,1,,,,,,,,0,,,96,72
95328,note_on,48,0,1,,,,,,,,0,,,96,0
95340,note_on,12,0,1,,,,,,,,0,,,94,72
95388,note_on,48,0,1,,,,,,,,0,,,94,0
95400,note_on,12,0,1,,,,,,,,0,,,96,72
95448,note_on,48,0,1,,,,,,,,0,,,96,0
95460,note_on,12,0,1,,,,,,,,0,,,94,72
95472,note_on,192,0,4,,,,,,,,0,,,55,0
95472,note_on,0,0,4,,,,,,,,0,,,63,0
95472,note_on,0,0,4,,,,,,,,0,,,48,0
95508,note_on,48,0,1,,,,,,,,0,,,94,0
95520,note_on,12,0,1,,,,,,,,0,,,93,72
95568,note_on,48,0,1,,,,,,,,0,,,93,0
95580,note_on,12,0,1,,,,,,,,0,,,91,72
95628,note_on,48,0,1,,,,,,,,0,,,91,0
95640,note_on,12,0,1,,,,,,,,0,,,92,72
95688,note_on,48,0,1,,,,,,,,0,,,92,0
95700,note_on,12,0,1,,,,,,,,0,,,90,72
95730,note_on,258,0,4,,,,,,,,0,,,41,80
95748,note_on,48,0,1,,,,,,,,0,,,90,0
95760,note_on,0,0,4,,,,,,,,0,,,57,80
95760,note_on,12,0,1,,,,,,,,0,,,89,72
95760,note_on,480,0,2,,,,,,,,0,,,99,0
95760,control_change,30,0,4,,,,,,,,0,64,0,,
95760,note_on,0,0,2,,,,,,,,0,,,101,80
95760,note_on,0,0,4,,,,,,,,0,,,51,80
95760,note_on,0,0,4,,,,,,,,0,,,48,80
95778,control_change,18,0,4,,,,,,,,0,64,127,,
95808,note_on,48,0,1,,,,,,,,0,,,89,0
95820,note_on,12,0,1,,,,,,,,0,,,88,72
95868,note_on,48,0,1,,,,,,,,0,,,88,0
95880,note_on,12,0,1,,,,,,,,0,,,89,72
95928,note_on,48,0,1,,,,,,,,0,,,89,0
95940,note_on,12,0,1,,,,,,,,0,,,87,72
95952,note_on,174,0,4,,,,,,,,0,,,51,0
95952,note_on,0,0,4,,,,,,,,0,,,48,0
95952,note_on,0,0,4,,,,,,,,0,,,41,0
95952,note_on,0,0,4,,,,,,,,0,,,57,0
95988,note_on,48,0,1,,,,,,,,0,,,87,0
96000,note_on,12,0,1,,,,,,,,0,,,86,72
96048,note_on,48,0,1,,,,,,,,0,,,86,0
96060,note_on,12,0,1,,,,,,,,0,,,85,72
96108,note_on,48,0,1,,,,,,,,0,,,85,0
96120,note_on,12,0,1,,,,,,,,0,,,84,72
96168,note_on,408,0,2,,,,,,,,0,,,101,0
96168,note_on,48,0,1,,,,,,,,0,,,84,0
96180,note_on,12,0,1,,,,,,,,0,,,83,72
96210,note_on,42,0,2,,,,,,,,0,,,82,80
96210,note_on,1914,0,3,,,,,,,,0,,,46,80
96225,note_on,15,0,3,,,,,,,,0,,,53,80
96228,note_on,48,0,1,,,,,,,,0,,,83,0
96240,note_on,30,0,2,,,,,,,,0,,,98,80
96240,note_on,15,0,3,,,,,,,,0,,,62,80
96240,control_change,288,0,4,,,,,,,,0,64,0,,
96263,control_change,23,0,4,,,,,,,,0,64,127,,
96432,note_on,0,0,3,,,,,,,,0,,,46,0
96432,note_on,0,0,3,,,,,,,,0,,,53,0
96432,note_on,192,0,3,,,,,,,,0,,,62,0
96432,note_on,0,0,2,,,,,,,,0,,,82,0
96432,note_on,192,0,2,,,,,,,,0,,,98,0
96480,note_on,0,0,2,,,,,,,,0,,,56,80
96480,note_on,217,0,4,,,,,,,,0,,,38,80
96480,note_on,0,0,2,,,,,,,,0,,,62,80
96480,note_on,48,0,2,,,,,,,,0,,,59,80
96480,note_on,0,0,2,,,,,,,,0,,,53,80
96482,control_change,2,0,4,,,,,,,,0,64,0,,
96505,control_change,23,0,4,,,,,,,,0,64,127,,
96528,note_on,23,0,4,,,,,,,,0,,,38,0
96540,note_on,12,0,4,,,,,,,,0,,,39,80
96588,note_on,48,0,4,,,,,,,,0,,,39,0
96600,note_on,12,0,4,,,,,,,,0,,,38,80
96648,note_on,48,0,4,,,,,,,,0,,,38,0
96660,note_on,12,0,4,,,,,,,,0,,,40,80
96708,note_on,48,0,4,,,,,,,,0,,,40,0
96711,control_change,3,0,4,,,,,,,,0,64,0,,
96720,note_on,9,0,4,,,,,,,,0,,,41,80
96729,control_change,9,0,4,,,,,,,,0,64,127,,
96768,note_on,39,0,4,,,,,,,,0,,,41,0
96780,note_on,12,0,4,,,,,,,,0,,,42,80
96828,note_on,48,0,4,,,,,,,,0,,,42,0
96840,note_on,12,0,4,,,,,,,,0,,,41,80
96888,note_on,48,0,4,,,,,,,,0,,,41,0
96900,note_on,12,0,4,,,,,,,,0,,,43,80
96948,note_on,48,0,4,,,,,,,,0,,,43,0
96958,control_change,10,0,4,,,,,,,,0,64,0,,
96960,note_on,2,0,4,,,,,,,,0,,,44,80
96976,control_change,16,0,4,,,,,,,,0,64,127,,
97008,note_on,32,0,4,,,,,,,,0,,,44,0
97020,note_on,12,0,4,,,,,,,,0,,,45,80
97056,note_on,0,0,2,,,,,,,,0,,,53,0
97056,note_on,576,0,2,,,,,,,,0,,,56,0
97056,note_on,0,0,2,,,,,,,,0,,,62,0
97056,note_on,0,0,2,,,,,,,,0,,,59,0
97068,note_on,48,0,4,,,,,,,,0,,,45,0
97080,note_on,12,0,4,,,,,,,,0,,,44,80
97128,note_on,48,0,4,,,,,,,,0,,,44,0
97140,note_on,12,0,4,,,,,,,,0,,,46,80
97188,note_on,48,0,4,,,,,,,,0,,,46,0
97200,control_change,0,0,4,,,,,,,,0,64,0,,
97200,note_on,12,0,4,,,,,,,,0,,,47,80
97221,control_change,21,0,4,,,,,,,,0,64,127,,
97248,note_on,27,0,4,,,,,,,,0,,,47,0
97260,note_on,12,0,4,,,,,,,,0,,,48,80
97308,note_on,48,0,4,,,,,,,,0,,,48,0
97320,note_on,0,0,1,,,,,,,,0,,,77,68
97320,note_on,1092,0,1,,,,,,,,0,,,86,80
97320,note_on,0,0,1,,,,,,,,0,,,80,68
97320,note_on,12,0,4,,,,,,,,0,,,47,80
97368,note_on,48,0,4,,,,,,,,0,,,47,0
97380,note_on,12,0,4,,,,,,,,0,,,49,80
97416,note_on,0,0,1,,,,,,,,0,,,77,0
97416,note_on,0,0,1,,,,,,,,0,,,86,0
97416,note_on,96,0,1,,,,,,,,0,,,80,0
97428,note_on,48,0,4,,,,,,,,0,,,49,0
97435,control_change,7,0,4,,,,,,,,0,64,0,,
97440,note_on,0,0,1,,,,,,,,0,,,77,68
97440,note_on,24,0,1,,,,,,,,0,,,80,68
97440,note_on,0,0,1,,,,,,,,0,,,85,80
97440,note_on,5,0,4,,,,,,,,0,,,50,80
97454,control_change,14,0,4,,,,,,,,0,64,127,,
97488,note_on,34,0,4,,,,,,,,0,,,50,0
97500,note_on,12,0,4,,,,,,,,0,,,51,80
97536,note_on,96,0,1,,,,,,,,0,,,85,0
97536,note_on,0,0,1,,,,,,,,0,,,80,0
97536,note_on,0,0,1,,,,,,,,0,,,77,0
97548,note_on,48,0,4,,,,,,,,0,,,51,0
97560,note_on,0,0,1,,,,,,,,0,,,84,80
97560,note_on,0,0,1,,,,,,,,0,,,80,68
97560,note_on,12,0,4,,,,,,,,0,,,50,80
97560,note_on,24,0,1,,,,,,,,0,,,77,68
97608,note_on,48,0,4,,,,,,,,0,,,50,0
97620,note_on,12,0,4,,,,,,,,0,,,52,80
97656,note_on,0,0,1,,,,,,,,0,,,80,0
97656,note_on,96,0,1,,,,,,,,0,,,84,0
97656,note_on,0,0,1,,,,,,,,0,,,77,0
97668,note_on,48,0,4,,,,,,,,0,,,52,0
97675,control_change,7,0,4,,,,,,,,0,64,0,,
97680,note_on,0,0,1,,,,,,,,0,,,74,68
97680,note_on,0,0,1,,,,,,,,0,,,83,80
97680,note_on,5,0,4,,,,,,,,0,,,53,80
97680,note_on,24,0,1,,,,,,,,0,,,80,68
97698,control_change,18,0,4,,,,,,,,0,64,127,,
97728,note_on,30,0,4,,,,,,,,0,,,53,0
97740,note_on,12,0,4,,,,,,,,0,,,54,80
97776,note_on,0,0,1,,,,,,,,0,,,80,0
97776,note_on,96,0,1,,,,,,,,0,,,74,0
97776,note_on,0,0,1,,,,,,,,0,,,83,0
97788,note_on,48,0,4,,,,,,,,0,,,54,0
97800,note_on,24,0,1,,,,,,,,0,,,74,68
97800,note_on,12,0,4,,,,,,,,0,,,53,80
97800,note_on,0,0,1,,,,,,,,0,,,86,80
97800,note_on,0,0,1,,,,,,,,0,,,80,68
97848,note_on,48,0,4,,,,,,,,0,,,53,0
97860,note_on,12,0,4,,,,,,,,0,,,55,80
97896,note_on,0,0,1,,,,,,,,0,,,74,0
97896,note_on,0,0,1,,,,,,,,0,,,86,0
97896,note_on,96,0,1,,,,,,,,0,,,80,0
97908,note_on,48,0,4,,,,,,,,0,,,55,0
97913,control_change,5,0,4,,,,,,,,0,64,0,,
97920,note_on,0,0,1,,,,,,,,0,,,74,68
97920,note_on,0,0,1,,,,,,,,0,,,85,80
97920,note_on,7,0,4,,,,,,,,0,,,56,80
97920,note_on,24,0,1,,,,,,,,0,,,77,68
97938,control_change,18,0,4,,,,,,,,0,64,127,,
97968,note_on,48,0,1,,,,,,,,0,,,74,0
97968,note_on,0,0,1,,,,,,,,0,,,77,0
97968,note_on,30,0,4,,,,,,,,0,,,56,0
97968,note_on,0,0,1,,,,,,,,0,,,85,0
97980,note_on,12,0,1,,,,,,,,0,,,84,80
97980,note_on,0,0,1,,,,,,,,0,,,74,68
97980,note_on,0,0,1,,,,,,,,0,,,77,68
97980,note_on,12,0,4,,,,,,,,0,,,57,80
98028,note_on,0,0,1,,,,,,,,0,,,74,0
98028,note_on,0,0,1,,,,,,,,0,,,84,0
98028,note_on,48,0,1,,,,,,,,0,,,77,0
98028,note_on,48,0,4,,,,,,,,0,,,57,0
98040,note_on,12,0,4,,,,,,,,0,,,56,80
98040,note_on,0,0,1,,,,,,,,0,,,77,68
98040,note_on,0,0,1,,,,,,,,0,,,74,68
98040,note_on,12,0,1,,,,,,,,0,,,82,80
98088,note_on,48,0,4,,,,,,,,0,,,56,0
98100,note_on,12,0,4,,,,,,,,0,,,59,80
98136,note_on,0,0,1,,,,,,,,0,,,82,0
98136,note_on,96,0,1,,,,,,,,0,,,74,0
98136,note_on,0,0,1,,,,,,,,0,,,77,0
98148,note_on,48,0,4,,,,,,,,0,,,59,0
98160,note_on,12,0,4,,,,,,,,0,,,50,80
98160,control_change,0,0,4,,,,,,,,0,64,0,,
98160,note_on,0,0,1,,,,,,,,0,,,78,80
98160,note_on,24,0,1,,,,,,,,0,,,93,80
98160,note_on,0,0,1,,,,,,,,0,,,86,80
98160,note_on,1728,0,3,,,,,,,,0,,,62,80
98206,control_change,46,0,4,,,,,,,,0,64,127,,
98208,note_on,48,0,3,,,,,,,,0,,,62,0
98220,note_on,12,0,3,,,,,,,,0,,,63,80
98268,note_on,48,0,3,,,,,,,,0,,,63,0
98280,note_on,12,0,3,,,,,,,,0,,,62,80
98328,note_on,48,0,3,,,,,,,,0,,,62,0
98340,note_on,12,0,3,,,,,,,,0,,,65,80
98352,note_on,192,0,1,,,,,,,,0,,,78,0
98352,note_on,0,0,1,,,,,,,,0,,,86,0
98352,note_on,146,0,4,,,,,,,,0,,,50,0
98352,note_on,0,0,1,,,,,,,,0,,,93,0
98388,note_on,48,0,3,,,,,,,,0,,,65,0
98400,note_on,1344,0,2,,,,,,,,0,,,66,80
98448,note_on,48,0,2,,,,,,,,0,,,66,0
98460,note_on,12,0,2,,,,,,,,0,,,67,80
98508,note_on,48,0,2,,,,,,,,0,,,67,0
98520,note_on,12,0,2,,,,,,,,0,,,66,80
98568,note_on,48,0,2,,,,,,,,0,,,66,0
98580,note_on,12,0,2,,,,,,,,0,,,68,80
98628,note_on,48,0,2,,,,,,,,0,,,68,0
98640,note_on,12,0,2,,,,,,,,0,,,69,80
98640,set_tempo,6012,1,0,,,,,,428235,,,,,,
98688,note_on,48,0,2,,,,,,,,0,,,69,0
98692,set_tempo,52,1,0,,,,,,431282,,,,,,
98700,note_on,12,0,2,,,,,,,,0,,,70,80
98740,set_tempo,48,1,0,,,,,,434373,,,,,,
98748,note_on,48,0,2,,,,,,,,0,,,70,0
98760,note_on,12,0,2,,,,,,,,0,,,69,80
98788,set_tempo,48,1,0,,,,,,437509,,,,,,
98808,note_on,48,0,2,,,,,,,,0,,,69,0
98820,note_on,12,0,2,,,,,,,,0,,,73,80
98836,set_tempo,48,1,0,,,,,,440690,,,,,,
98868,note_on,48,0,2,,,,,,,,0,,,73,0
98875,control_change,523,0,4,,,,,,,,0,64,0,,
98880,note_on,12,0,2,,,,,,,,0,,,74,80
98884,set_tempo,48,1,0,,,,,,443918,,,,,,
98928,note_on,48,0,2,,,,,,,,0,,,74,0
98932,set_tempo,48,1,0,,,,,,447194,,,,,,
98940,note_on,12,0,2,,,,,,,,0,,,73,80
98980,set_tempo,48,1,0,,,,,,450518,,,,,,
98988,note_on,48,0,2,,,,,,,,0,,,73,0
99000,note_on,12,0,2,,,,,,,,0,,,74,80
99028,set_tempo,48,1,0,,,,,,453892,,,,,,
99048,note_on,48,0,2,,,,,,,,0,,,74,0
99060,note_on,12,0,2,,,,,,,,0,,,73,80
99076,set_tempo,48,1,0,,,,,,457317,,,,,,
99090,note_on,738,0,1,,,,,,,,0,,,79,80
99108,note_on,48,0,2,,,,,,,,0,,,73,0
99120,control_change,0,0,4,,,,,,,,0,64,127,,
99120,note_on,30,0,1,,,,,,,,0,,,87,80
99120,note_on,12,0,2,,,,,,,,0,,,72,80
99120,note_on,0,0,1,,,,,,,,0,,,96,80
99120,note_on,245,0,4,,,,,,,,0,,,60,80
99124,set_tempo,48,1,0,,,,,,460794,,,,,,
99168,note_on,48,0,2,,,,,,,,0,,,72,0
99172,set_tempo,48,1,0,,,,,,464324,,,,,,
99180,note_on,12,0,2,,,,,,,,0,,,71,80
99220,set_tempo,48,1,0,,,,,,467909,,,,,,
99228,note_on,48,0,2,,,,,,,,0,,,71,0
99240,note_on,12,0,2,,,,,,,,0,,,72,80
99268,set_tempo,48,1,0,,,,,,471550,,,,,,
99288,note_on,48,0,2,,,,,,,,0,,,72,0
99300,note_on,12,0,2,,,,,,,,0,,,70,80
99312,note_on,192,0,4,,,,,,,,0,,,60,0
99312,note_on,0,0,1,,,,,,,,0,,,87,0
99312,note_on,0,0,1,,,,,,,,0,,,79,0
99312,note_on,192,0,1,,,,,,,,0,,,96,0
99316,set_tempo,48,1,0,,,,,,475248,,,,,,
99348,note_on,48,0,2,,,,,,,,0,,,70,0
99360,note_on,12,0,2,,,,,,,,0,,,69,80
99364,set_tempo,48,1,0,,,,,,479004,,,,,,
99408,note_on,48,0,2,,,,,,,,0,,,69,0
99412,set_tempo,48,1,0,,,,,,482820,,,,,,
99420,note_on,12,0,2,,,,,,,,0,,,67,80
99460,set_tempo,48,1,0,,,,,,486697,,,,,,
99468,note_on,48,0,2,,,,,,,,0,,,67,0
99480,note_on,12,0,2,,,,,,,,0,,,68,80
99508,set_tempo,48,1,0,,,,,,490637,,,,,,
99528,note_on,48,0,2,,,,,,,,0,,,68,0
99540,note_on,12,0,2,,,,,,,,0,,,66,80
99556,set_tempo,48,1,0,,,,,,494641,,,,,,
99570,note_on,258,0,1,,,,,,,,0,,,87,80
99588,note_on,48,0,2,,,,,,,,0,,,66,0
99600,note_on,30,0,1,,,,,,,,0,,,101,80
99600,note_on,0,0,1,,,,,,,,0,,,93,80
99600,note_on,1212,0,3,,,,,,,,0,,,65,80
99600,control_change,0,0,4,,,,,,,,0,64,0,,
99600,note_on,288,0,4,,,,,,,,0,,,53,80
99604,set_tempo,48,1,0,,,,,,498712,,,,,,
99618,control_change,18,0,4,,,,,,,,0,64,127,,
99648,note_on,48,0,3,,,,,,,,0,,,65,0
99652,set_tempo,48,1,0,,,,,,502849,,,,,,
99660,note_on,12,0,3,,,,,,,,0,,,64,80
99700,set_tempo,48,1,0,,,,,,507057,,,,,,
99708,note_on,48,0,3,,,,,,,,0,,,64,0
99720,note_on,12,0,3,,,,,,,,0,,,65,80
99748,set_tempo,48,1,0,,,,,,511335,,,,,,
99768,note_on,48,0,3,,,,,,,,0,,,65,0
99780,note_on,12,0,3,,,,,,,,0,,,63,80
99792,note_on,192,0,1,,,,,,,,0,,,93,0
99792,note_on,0,0,1,,,,,,,,0,,,87,0
99792,note_on,174,0,4,,,,,,,,0,,,53,0
99792,note_on,0,0,1,,,,,,,,0,,,101,0
99796,set_tempo,48,1,0,,,,,,515685,,,,,,
99800,set_tempo,4,1,0,,,,,,520111,,,,,,
99804,set_tempo,4,1,0,,,,,,524613,,,,,,
99813,set_tempo,9,1,0,,,,,,529194,,,,,,
99822,set_tempo,9,1,0,,,,,,533855,,,,,,
99828,note_on,48,0,3,,,,,,,,0,,,63,0
99830,set_tempo,8,1,0,,,,,,538600,,,,,,
99835,set_tempo,5,1,0,,,,,,543429,,,,,,
99840,note_on,12,0,3,,,,,,,,0,,,62,80
99843,set_tempo,8,1,0,,,,,,548346,,,,,,
99852,set_tempo,9,1,0,,,,,,553352,,,,,,
99861,set_tempo,9,1,0,,,,,,558451,,,,,,
99865,set_tempo,4,1,0,,,,,,563645,,,,,,
99874,set_tempo,9,1,0,,,,,,568936,,,,,,
99883,set_tempo,9,1,0,,,,,,574328,,,,,,
99888,note_on,48,0,3,,,,,,,,0,,,62,0
99891,set_tempo,8,1,0,,,,,,579822,,,,,,
99896,set_tempo,5,1,0,,,,,,585423,,,,,,
99900,note_on,12,0,3,,,,,,,,0,,,61,80
99904,set_tempo,8,1,0,,,,,,591133,,,,,,
99913,set_tempo,9,1,0,,,,,,596956,,,,,,
99918,set_tempo,5,1,0,,,,,,602894,,,,,,
99926,set_tempo,8,1,0,,,,,,608952,,,,,,
99935,set_tempo,9,1,0,,,,,,615132,,,,,,
99944,set_tempo,9,1,0,,,,,,621440,,,,,,
99948,note_on,48,0,3,,,,,,,,0,,,61,0
99948,set_tempo,4,1,0,,,,,,627878,,,,,,
99957,set_tempo,9,1,0,,,,,,634451,,,,,,
99960,note_on,12,0,3,,,,,,,,0,,,60,80
99966,set_tempo,9,1,0,,,,,,641163,,,,,,
99974,set_tempo,8,1,0,,,,,,648018,,,,,,
99979,set_tempo,5,1,0,,,,,,655022,,,,,,
99987,set_tempo,8,1,0,,,,,,662179,,,,,,
99996,set_tempo,9,1,0,,,,,,669493,,,,,,
100005,set_tempo,9,1,0,,,,,,676972,,,,,,
100008,note_on,48,0,3,,,,,,,,0,,,60,0
100009,set_tempo,4,1,0,,,,,,684619,,,,,,
100018,set_tempo,9,1,0,,,,,,692441,,,,,,
100020,note_on,12,0,3,,,,,,,,0,,,59,80
100027,set_tempo,9,1,0,,,,,,700444,,,,,,
100035,set_tempo,8,1,0,,,,,,708634,,,,,,
100040,set_tempo,5,1,0,,,,,,717017,,,,,,
100048,set_tempo,8,1,0,,,,,,725602,,,,,,
100050,note_on,258,0,1,,,,,,,,0,,,86,80
100057,set_tempo,9,1,0,,,,,,734394,,,,,,
100062,set_tempo,5,1,0,,,,,,743402,,,,,,
100066,set_tempo,4,1,0,,,,,,734394,,,,,,
100068,note_on,48,0,3,,,,,,,,0,,,59,0
100070,set_tempo,4,1,0,,,,,,743402,,,,,,
100076,set_tempo,6,1,0,,,,,,781759,,,,,,
100080,note_on,288,0,4,,,,,,,,0,,,46,80
100080,note_on,0,0,4,,,,,,,,0,,,58,80
100080,note_on,30,0,1,,,,,,,,0,,,94,80
100080,note_on,0,0,1,,,,,,,,0,,,101,80
100098,control_change,18,0,4,,,,,,,,0,64,0,,
100176,note_on,78,0,4,,,,,,,,0,,,58,0
100176,note_on,0,0,4,,,,,,,,0,,,46,0
100186,set_tempo,110,1,0,,,,,,669493,,,,,,
100190,set_tempo,4,1,0,,,,,,591133,,,,,,
100192,set_tempo,2,1,0,,,,,,585423,,,,,,
100193,control_change,17,0,4,,,,,,,,0,64,127,,
100197,set_tempo,5,1,0,,,,,,579822,,,,,,
100200,note_on,132,0,3,,,,,,,,0,,,46,68
100200,note_on,0,0,4,,,,,,,,0,,,53,68
100200,note_on,0,0,4,,,,,,,,0,,,62,80
100200,note_on,7,0,4,,,,,,,,0,,,50,68
100201,set_tempo,4,1,0,,,,,,574328,,,,,,
100206,set_tempo,5,1,0,,,,,,568936,,,,,,
100210,set_tempo,4,1,0,,,,,,563645,,,,,,
100214,set_tempo,4,1,0,,,,,,558451,,,,,,
100223,set_tempo,9,1,0,,,,,,553352,,,,,,
100227,set_tempo,4,1,0,,,,,,548346,,,,,,
100232,set_tempo,5,1,0,,,,,,543429,,,,,,
100236,set_tempo,4,1,0,,,,,,538600,,,,,,
100240,set_tempo,4,1,0,,,,,,533855,,,,,,
100245,set_tempo,5,1,0,,,,,,529194,,,,,,
100248,note_on,48,0,3,,,,,,,,0,,,46,0
100249,set_tempo,4,1,0,,,,,,524613,,,,,,
100254,set_tempo,5,1,0,,,,,,520111,,,,,,
100258,set_tempo,4,1,0,,,,,,515685,,,,,,
100260,note_on,12,0,3,,,,,,,,0,,,55,68
100262,set_tempo,4,1,0,,,,,,511335,,,,,,
100267,set_tempo,5,1,0,,,,,,507057,,,,,,
100271,set_tempo,4,1,0,,,,,,502849,,,,,,
100272,note_on,192,0,1,,,,,,,,0,,,101,0
100272,note_on,0,0,1,,,,,,,,0,,,94,0
100272,note_on,0,0,1,,,,,,,,0,,,86,0
100275,set_tempo,4,1,0,,,,,,498712,,,,,,
100280,set_tempo,5,1,0,,,,,,494641,,,,,,
100284,set_tempo,4,1,0,,,,,,490637,,,,,,
100293,set_tempo,9,1,0,,,,,,486697,,,,,,
100296,note_on,0,0,4,,,,,,,,0,,,53,0
100296,note_on,0,0,4,,,,,,,,0,,,50,0
100296,note_on,96,0,4,,,,,,,,0,,,62,0
100297,set_tempo,4,1,0,,,,,,482820,,,,,,
100302,set_tempo,5,1,0,,,,,,479004,,,,,,
100306,set_tempo,4,1,0,,,,,,475248,,,,,,
100308,note_on,48,0,3,,,,,,,,0,,,55,0
100310,set_tempo,4,1,0,,,,,,471550,,,,,,
100315,set_tempo,5,1,0,,,,,,467909,,,,,,
100319,set_tempo,4,1,0,,,,,,464324,,,,,,
100320,note_on,12,0,3,,,,,,,,0,,,46,68
100320,note_on,0,0,4,,,,,,,,0,,,50,68
100320,note_on,0,0,4,,,,,,,,0,,,60,80
100320,note_on,24,0,4,,,,,,,,0,,,53,68
100323,set_tempo,4,1,0,,,,,,460794,,,,,,
100328,set_tempo,5,1,0,,,,,,457317,,,,,,
100332,set_tempo,4,1,0,,,,,,453892,,,,,,
100336,set_tempo,4,1,0,,,,,,450518,,,,,,
100341,set_tempo,5,1,0,,,,,,447194,,,,,,
100345,set_tempo,4,1,0,,,,,,443918,,,,,,
100350,set_tempo,5,1,0,,,,,,440690,,,,,,
100354,set_tempo,4,1,0,,,,,,437509,,,,,,
100358,set_tempo,4,1,0,,,,,,447194,,,,,,
100367,set_tempo,9,1,0,,,,,,443918,,,,,,
100368,note_on,48,0,3,,,,,,,,0,,,46,0
100371,set_tempo,4,1,0,,,,,,440690,,,,,,
100376,set_tempo,5,1,0,,,,,,437509,,,,,,
100380,note_on,12,0,3,,,,,,,,0,,,54,68
100380,set_tempo,4,1,0,,,,,,434373,,,,,,
100416,note_on,96,0,4,,,,,,,,0,,,50,0
100416,note_on,0,0,4,,,,,,,,0,,,53,0
100416,note_on,0,0,4,,,,,,,,0,,,60,0
100428,note_on,48,0,3,,,,,,,,0,,,54,0
100440,note_on,0,0,4,,,,,,,,0,,,53,68
100440,note_on,24,0,4,,,,,,,,0,,,59,80
100440,note_on,0,0,4,,,,,,,,0,,,50,68
100440,note_on,12,0,3,,,,,,,,0,,,46,68
100488,note_on,48,0,3,,,,,,,,0,,,46,0
100500,note_on,12,0,3,,,,,,,,0,,,55,68
100536,note_on,0,0,4,,,,,,,,0,,,50,0
100536,note_on,0,0,4,,,,,,,,0,,,59,0
100536,note_on,96,0,4,,,,,,,,0,,,53,0
100548,note_on,48,0,3,,,,,,,,0,,,55,0
100560,note_on,12,0,3,,,,,,,,0,,,46,68
100560,note_on,0,0,4,,,,,,,,0,,,53,68
100560,note_on,0,0,4,,,,,,,,0,,,58,80
100560,note_on,24,0,4,,,,,,,,0,,,50,68
100608,note_on,48,0,3,,,,,,,,0,,,46,0
100620,note_on,12,0,3,,,,,,,,0,,,54,68
100656,note_on,0,0,4,,,,,,,,0,,,50,0
100656,note_on,96,0,4,,,,,,,,0,,,58,0
100656,note_on,0,0,4,,,,,,,,0,,,53,0
100668,note_on,48,0,3,,,,,,,,0,,,54,0
100680,note_on,0,0,4,,,,,,,,0,,,53,68
100680,note_on,0,0,4,,,,,,,,0,,,62,80
100680,note_on,24,0,4,,,,,,,,0,,,50,68
100680,note_on,12,0,3,,,,,,,,0,,,46,68
100728,note_on,48,0,3,,,,,,,,0,,,46,0
100740,note_on,12,0,3,,,,,,,,0,,,55,68
100776,note_on,0,0,4,,,,,,,,0,,,62,0
100776,note_on,0,0,4,,,,,,,,0,,,50,0
100776,note_on,96,0,4,,,,,,,,0,,,53,0
100788,note_on,48,0,3,,,,,,,,0,,,55,0
100800,note_on,12,0,3,,,,,,,,0,,,46,68
100800,note_on,24,0,4,,,,,,,,0,,,53,68
100800,note_on,0,0,4,,,,,,,,0,,,60,80
100800,note_on,0,0,4,,,,,,,,0,,,50,68
100848,note_on,48,0,4,,,,,,,,0,,,60,0
100848,note_on,48,0,3,,,,,,,,0,,,46,0
100860,note_on,12,0,3,,,,,,,,0,,,54,68
100860,note_on,12,0,4,,,,,,,,0,,,59,80
100896,note_on,0,0,4,,,,,,,,0,,,53,0
100896,note_on,36,0,4,,,,,,,,0,,,50,0
100908,note_on,12,0,4,,,,,,,,0,,,59,0
100908,note_on,48,0,3,,,,,,,,0,,,54,0
100920,note_on,12,0,4,,,,,,,,0,,,50,68
100920,note_on,0,0,4,,,,,,,,0,,,58,80
100920,note_on,0,0,4,,,,,,,,0,,,53,68
100920,note_on,12,0,3,,,,,,,,0,,,46,68
100968,note_on,48,0,3,,,,,,,,0,,,46,0
100980,note_on,12,0,3,,,,,,,,0,,,55,68
100992,note_on,72,0,4,,,,,,,,0,,,53,0
100992,note_on,0,0,4,,,,,,,,0,,,58,0
100992,note_on,0,0,4,,,,,,,,0,,,50,0
101010,note_on,18,0,4,,,,,,,,0,,,48,80
101016,note_on,36,0,3,,,,,,,,0,,,55,0
101025,note_on,15,0,4,,,,,,,,0,,,54,80
101025,note_on,9,0,3,,,,,,,,0,,,46,80
101040,note_on,15,0,3,,,,,,,,0,,,57,80
101040,note_on,0,0,4,,,,,,,,0,,,63,80
101040,control_change,15,0,4,,,,,,,,0,64,0,,
101054,control_change,14,0,4,,,,,,,,0,64,127,,
101160,note_on,0,0,1,,,,,,,,0,,,87,80
101160,note_on,888,0,1,,,,,,,,0,,,78,80
101208,note_on,48,0,1,,,,,,,,0,,,87,0
101208,note_on,0,0,1,,,,,,,,0,,,78,0
101220,note_on,12,0,1,,,,,,,,0,,,81,80
101220,note_on,0,0,1,,,,,,,,0,,,84,80
101268,note_on,48,0,1,,,,,,,,0,,,84,0
101268,note_on,0,0,1,,,,,,,,0,,,81,0
101280,note_on,12,0,1,,,,,,,,0,,,71,80
101280,note_on,0,0,1,,,,,,,,0,,,80,80
101328,note_on,48,0,1,,,,,,,,0,,,80,0
101328,note_on,0,0,1,,,,,,,,0,,,71,0
101340,note_on,0,0,1,,,,,,,,0,,,74,80
101340,note_on,12,0,1,,,,,,,,0,,,77,80
101388,note_on,48,0,1,,,,,,,,0,,,74,0
101388,note_on,0,0,1,,,,,,,,0,,,77,0
101400,note_on,0,0,1,,,,,,,,0,,,81,80
101400,note_on,12,0,1,,,,,,,,0,,,72,80
101424,note_on,0,0,3,,,,,,,,0,,,46,0
101424,note_on,0,0,4,,,,,,,,0,,,48,0
101424,note_on,0,0,4,,,,,,,,0,,,54,0
101424,note_on,384,0,3,,,,,,,,0,,,57,0
101424,note_on,370,0,4,,,,,,,,0,,,63,0
101448,note_on,0,0,1,,,,,,,,0,,,72,0
101448,note_on,48,0,1,,,,,,,,0,,,81,0
101460,note_on,12,0,1,,,,,,,,0,,,78,80
101460,note_on,0,0,1,,,,,,,,0,,,75,80
101508,note_on,0,0,1,,,,,,,,0,,,78,0
101508,note_on,48,0,1,,,,,,,,0,,,75,0
101520,note_on,12,0,1,,,,,,,,0,,,74,80
101520,note_on,0,0,1,,,,,,,,0,,,65,80
101568,note_on,0,0,1,,,,,,,,0,,,74,0
101568,note_on,48,0,1,,,,,,,,0,,,65,0
101580,note_on,12,0,1,,,,,,,,0,,,68,80
101580,note_on,0,0,1,,,,,,,,0,,,71,80
101628,note_on,48,0,1,,,,,,,,0,,,71,0
101628,note_on,0,0,1,,,,,,,,0,,,68,0
101640,note_on,0,0,1,,,,,,,,0,,,66,80
101640,note_on,12,0,1,,,,,,,,0,,,75,80
101688,note_on,0,0,1,,,,,,,,0,,,75,0
101688,note_on,48,0,1,,,,,,,,0,,,66,0
101700,note_on,12,0,1,,,,,,,,0,,,69,80
101700,note_on,0,0,1,,,,,,,,0,,,72,80
101748,note_on,48,0,1,,,,,,,,0,,,72,0
101748,note_on,0,0,1,,,,,,,,0,,,69,0
101760,note_on,12,0,1,,,,,,,,0,,,68,80
101760,note_on,0,0,1,,,,,,,,0,,,59,80
101791,control_change,367,0,4,,,,,,,,0,64,0,,
101808,note_on,48,0,1,,,,,,,,0,,,59,0
101808,note_on,0,0,1,,,,,,,,0,,,68,0
101820,note_on,12,0,1,,,,,,,,0,,,65,80
101820,note_on,0,0,1,,,,,,,,0,,,62,80
101868,note_on,0,0,1,,,,,,,,0,,,65,0
101868,note_on,48,0,1,,,,,,,,0,,,62,0
101880,note_on,0,0,1,,,,,,,,0,,,69,80
101880,note_on,0,0,1,,,,,,,,0,,,60,80
101880,note_on,12,0,1,,,,,,,,0,,,66,80
101928,note_on,0,0,1,,,,,,,,0,,,69,0
101928,note_on,48,0,1,,,,,,,,0,,,60,0
101928,note_on,0,0,1,,,,,,,,0,,,66,0
101940,note_on,12,0,1,,,,,,,,0,,,78,80
101940,note_on,0,0,1,,,,,,,,0,,,63,80
101988,note_on,0,0,1,,,,,,,,0,,,78,0
101988,note_on,48,0,1,,,,,,,,0,,,63,0
102000,note_on,0,0,1,,,,,,,,0,,,62,80
102000,note_on,12,0,1,,,,,,,,0,,,70,80
102000,note_on,0,0,1,,,,,,,,0,,,77,80
102096,note_on,0,0,1,,,,,,,,0,,,62,0
102096,note_on,96,0,1,,,,,,,,0,,,77,0
102096,note_on,0,0,1,,,,,,,,0,,,70,0
102111,control_change,320,0,4,,,,,,,,0,64,127,,
102120,note_on,0,0,4,,,,,,,,0,,,50,68
102120,note_on,696,0,3,,,,,,,,0,,,46,68
102120,note_on,9,0,4,,,,,,,,0,,,62,80
102120,note_on,0,0,4,,,,,,,,0,,,53,68
102168,note_on,48,0,3,,,,,,,,0,,,46,0
102180,note_on,12,0,3,,,,,,,,0,,,55,68
102216,note_on,96,0,4,,,,,,,,0,,,50,0
102216,note_on,0,0,4,,,,,,,,0,,,53,0
102216,note_on,0,0,4,,,,,,,,0,,,62,0
102228,note_on,48,0,3,,,,,,,,0,,,55,0
102240,note_on,12,0,3,,,,,,,,0,,,46,68
102240,note_on,0,0,4,,,,,,,,0,,,50,68
102240,note_on,0,0,4,,,,,,,,0,,,53,68
102240,note_on,24,0,4,,,,,,,,0,,,60,80
102288,note_on,48,0,3,,,,,,,,0,,,46,0
102300,note_on,12,0,3,,,,,,,,0,,,54,68
102336,note_on,0,0,4,,,,,,,,0,,,50,0
102336,note_on,0,0,4,,,,,,,,0,,,60,0
102336,note_on,96,0,4,,,,,,,,0,,,53,0
102348,note_on,48,0,3,,,,,,,,0,,,54,0
102360,note_on,0,0,4,,,,,,,,0,,,53,68
102360,note_on,12,0,3,,,,,,,,0,,,46,68
102360,note_on,24,0,4,,,,,,,,0,,,59,80
102360,note_on,0,0,4,,,,,,,,0,,,50,68
102408,note_on,48,0,3,,,,,,,,0,,,46,0
102420,note_on,12,0,3,,,,,,,,0,,,55,68
102456,note_on,0,0,4,,,,,,,,0,,,53,0
102456,note_on,0,0,4,,,,,,,,0,,,59,0
102456,note_on,96,0,4,,,,,,,,0,,,50,0
102468,note_on,48,0,3,,,,,,,,0,,,55,0
102480,note_on,24,0,4,,,,,,,,0,,,58,80
102480,note_on,12,0,3,,,,,,,,0,,,46,68
102480,note_on,0,0,4,,,,,,,,0,,,53,68
102480,note_on,0,0,4,,,,,,,,0,,,50,68
102528,note_on,48,0,3,,,,,,,,0,,,46,0
102540,note_on,12,0,3,,,,,,,,0,,,54,68
102576,note_on,0,0,4,,,,,,,,0,,,58,0
102576,note_on,96,0,4,,,,,,,,0,,,50,0
102576,note_on,0,0,4,,,,,,,,0,,,53,0
102588,note_on,48,0,3,,,,,,,,0,,,54,0
102600,note_on,0,0,4,,,,,,,,0,,,53,68
102600,note_on,12,0,3,,,,,,,,0,,,46,68
102600,note_on,0,0,4,,,,,,,,0,,,62,80
102600,note_on,24,0,4,,,,,,,,0,,,50,68
102648,note_on,48,0,3,,,,,,,,0,,,46,0
102660,note_on,12,0,3,,,,,,,,0,,,55,68
102696,note_on,0,0,4,,,,,,,,0,,,50,0
102696,note_on,0,0,4,,,,,,,,0,,,53,0
102696,note_on,96,0,4,,,,,,,,0,,,62,0
102708,note_on,48,0,3,,,,,,,,0,,,55,0
102720,note_on,12,0,3,,,,,,,,0,,,46,68
102720,note_on,24,0,4,,,,,,,,0,,,50,68
102720,note_on,0,0,4,,,,,,,,0,,,53,68
102720,note_on,0,0,4,,,,,,,,0,,,60,80
102768,note_on,48,0,4,,,,,,,,0,,,60,0
102768,note_on,48,0,3,,,,,,,,0,,,46,0
102780,note_on,12,0,3,,,,,,,,0,,,54,68
102780,note_on,12,0,4,,,,,,,,0,,,59,80
102816,note_on,36,0,4,,,,,,,,0,,,53,0
102816,note_on,0,0,4,,,,,,,,0,,,50,0
102828,note_on,12,0,4,,,,,,,,0,,,59,0
102828,note_on,48,0,3,,,,,,,,0,,,54,0
102840,note_on,12,0,4,,,,,,,,0,,,58,80
102840,note_on,0,0,4,,,,,,,,0,,,53,68
102840,note_on,12,0,3,,,,,,,,0,,,46,68
102840,note_on,0,0,4,,,,,,,,0,,,50,68
102845,control_change,5,0,4,,,,,,,,0,64,0,,
102888,note_on,48,0,3,,,,,,,,0,,,46,0
102900,note_on,12,0,3,,,,,,,,0,,,55,68
102936,note_on,0,0,4,,,,,,,,0,,,58,0
102936,note_on,0,0,4,,,,,,,,0,,,53,0
102936,note_on,91,0,4,,,,,,,,0,,,50,0
102948,note_on,48,0,3,,,,,,,,0,,,55,0
102960,note_on,0,0,4,,,,,,,,0,,,63,80
102960,note_on,12,0,3,,,,,,,,0,,,46,80
102960,note_on,24,0,4,,,,,,,,0,,,48,80
102960,note_on,0,0,4,,,,,,,,0,,,54,80
102960,note_on,0,0,3,,,,,,,,0,,,57,80
102964,control_change,4,0,4,,,,,,,,0,64,127,,
103080,note_on,984,0,1,,,,,,,,0,,,87,80
103080,note_on,0,0,1,,,,,,,,0,,,78,80
103128,note_on,0,0,1,,,,,,,,0,,,87,0
103128,note_on,48,0,1,,,,,,,,0,,,78,0
103140,note_on,0,0,1,,,,,,,,0,,,84,80
103140,note_on,12,0,1,,,,,,,,0,,,81,80
103188,note_on,0,0,1,,,,,,,,0,,,81,0
103188,note_on,48,0,1,,,,,,,,0,,,84,0
103200,note_on,12,0,1,,,,,,,,0,,,71,80
103200,note_on,0,0,1,,,,,,,,0,,,80,80
103248,note_on,0,0,1,,,,,,,,0,,,71,0
103248,note_on,48,0,1,,,,,,,,0,,,80,0
103260,note_on,12,0,1,,,,,,,,0,,,77,80
103260,note_on,0,0,1,,,,,,,,0,,,74,80
103308,note_on,48,0,1,,,,,,,,0,,,74,0
103308,note_on,0,0,1,,,,,,,,0,,,77,0
103320,note_on,12,0,1,,,,,,,,0,,,81,80
103320,note_on,0,0,1,,,,,,,,0,,,72,80
103368,note_on,0,0,1,,,,,,,,0,,,81,0
103368,note_on,48,0,1,,,,,,,,0,,,72,0
103380,note_on,0,0,1,,,,,,,,0,,,78,80
103380,note_on,12,0,1,,,,,,,,0,,,75,80
103428,note_on,48,0,1,,,,,,,,0,,,78,0
103428,note_on,0,0,1,,,,,,,,0,,,75,0
103440,note_on,12,0,1,,,,,,,,0,,,74,80
103440,note_on,0,0,1,,,,,,,,0,,,65,80
103488,note_on,0,0,1,,,,,,,,0,,,74,0
103488,note_on,48,0,1,,,,,,,,0,,,65,0
103500,note_on,12,0,1,,,,,,,,0,,,68,80
103500,note_on,0,0,1,,,,,,,,0,,,71,80
103548,note_on,48,0,1,,,,,,,,0,,,71,0
103548,note_on,0,0,1,,,,,,,,0,,,68,0
103560,note_on,0,0,1,,,,,,,,0,,,66,80
103560,note_on,12,0,1,,,,,,,,0,,,75,80
103608,note_on,0,0,1,,,,,,,,0,,,75,0
103608,note_on,48,0,1,,,,,,,,0,,,66,0
103620,note_on,0,0,1,,,,,,,,0,,,69,80
103620,note_on,12,0,1,,,,,,,,0,,,72,80
103668,note_on,0,0,1,,,,,,,,0,,,72,0
103668,note_on,48,0,1,,,,,,,,0,,,69,0
103676,control_change,712,0,4,,,,,,,,0,64,0,,
103680,note_on,12,0,1,,,,,,,,0,,,59,80
103680,note_on,0,0,1,,,,,,,,0,,,68,80
103728,note_on,0,0,1,,,,,,,,0,,,59,0
103728,note_on,48,0,1,,,,,,,,0,,,68,0
103740,note_on,0,0,1,,,,,,,,0,,,62,80
103740,note_on,12,0,1,,,,,,,,0,,,65,80
103788,note_on,0,0,1,,,,,,,,0,,,65,0
103788,note_on,48,0,1,,,,,,,,0,,,62,0
103800,note_on,12,0,1,,,,,,,,0,,,66,80
103800,note_on,0,0,1,,,,,,,,0,,,69,80
103800,note_on,0,0,1,,,,,,,,0,,,60,80
103800,note_on,0,0,1,,,,,,,,0,,,63,80
103860,note_on,0,0,3,,,,,,,,0,,,46,0
103860,note_on,184,0,4,,,,,,,,0,,,63,0
103860,note_on,0,0,4,,,,,,,,0,,,48,0
103860,note_on,0,0,4,,,,,,,,0,,,54,0
103860,note_on,900,0,3,,,,,,,,0,,,57,0
103896,note_on,96,0,1,,,,,,,,0,,,63,0
103896,note_on,0,0,1,,,,,,,,0,,,60,0
103896,note_on,0,0,1,,,,,,,,0,,,66,0
103896,note_on,0,0,1,,,,,,,,0,,,69,0
103920,note_on,0,0,4,,,,,,,,0,,,57,80
103920,note_on,0,0,4,,,,,,,,0,,,54,80
103920,note_on,0,0,4,,,,,,,,0,,,46,80
103920,note_on,60,0,4,,,,,,,,0,,,51,80
103920,note_on,0,0,4,,,,,,,,0,,,60,80
103925,control_change,5,0,4,,,,,,,,0,64,127,,
104040,note_on,144,0,1,,,,,,,,0,,,81,80
104040,note_on,0,0,1,,,,,,,,0,,,90,80
104088,note_on,0,0,1,,,,,,,,0,,,81,0
104088,note_on,48,0,1,,,,,,,,0,,,90,0
104100,note_on,12,0,1,,,,,,,,0,,,87,80
104100,note_on,0,0,1,,,,,,,,0,,,84,80
104148,note_on,0,0,1,,,,,,,,0,,,87,0
104148,note_on,48,0,1,,,,,,,,0,,,84,0
104160,note_on,12,0,1,,,,,,,,0,,,74,80
104160,note_on,0,0,1,,,,,,,,0,,,83,80
104208,note_on,0,0,1,,,,,,,,0,,,74,0
104208,note_on,48,0,1,,,,,,,,0,,,83,0
104220,note_on,12,0,1,,,,,,,,0,,,80,80
104220,note_on,0,0,1,,,,,,,,0,,,77,80
104268,note_on,48,0,1,,,,,,,,0,,,77,0
104268,note_on,0,0,1,,,,,,,,0,,,80,0
104280,note_on,12,0,1,,,,,,,,0,,,75,80
104280,note_on,0,0,1,,,,,,,,0,,,84,80
104328,note_on,0,0,1,,,,,,,,0,,,75,0
104328,note_on,48,0,1,,,,,,,,0,,,84,0
104340,note_on,12,0,1,,,,,,,,0,,,78,80
104340,note_on,0,0,1,,,,,,,,0,,,81,80
104388,note_on,0,0,1,,,,,,,,0,,,78,0
104388,note_on,48,0,1,,,,,,,,0,,,81,0
104400,note_on,12,0,1,,,,,,,,0,,,77,80
104400,note_on,0,0,1,,,,,,,,0,,,68,80
104448,note_on,0,0,1,,,,,,,,0,,,77,0
104448,note_on,48,0,1,,,,,,,,0,,,68,0
104460,note_on,12,0,1,,,,,,,,0,,,71,80
104460,note_on,0,0,1,,,,,,,,0,,,74,80
104508,note_on,0,0,1,,,,,,,,0,,,71,0
104508,note_on,48,0,1,,,,,,,,0,,,74,0
104520,note_on,12,0,1,,,,,,,,0,,,78,80
104520,note_on,0,0,1,,,,,,,,0,,,69,80
104568,note_on,48,0,1,,,,,,,,0,,,69,0
104568,note_on,0,0,1,,,,,,,,0,,,78,0
104580,note_on,12,0,1,,,,,,,,0,,,75,80
104580,note_on,0,0,1,,,,,,,,0,,,72,80
104628,note_on,48,0,1,,,,,,,,0,,,72,0
104628,note_on,0,0,1,,,,,,,,0,,,75,0
104633,control_change,708,0,4,,,,,,,,0,64,0,,
104640,note_on,12,0,1,,,,,,,,0,,,71,80
104640,note_on,0,0,1,,,,,,,,0,,,62,80
104688,note_on,0,0,4,,,,,,,,0,,,60,0
104688,note_on,0,0,4,,,,,,,,0,,,54,0
104688,note_on,0,0,4,,,,,,,,0,,,51,0
104688,note_on,48,0,1,,,,,,,,0,,,62,0
104688,note_on,55,0,4,,,,,,,,0,,,57,0
104688,note_on,0,0,4,,,,,,,,0,,,46,0
104688,note_on,0,0,1,,,,,,,,0,,,71,0
104700,note_on,0,0,1,,,,,,,,0,,,65,80
104700,note_on,12,0,1,,,,,,,,0,,,68,80
104748,note_on,48,0,1,,,,,,,,0,,,65,0
104748,note_on,0,0,1,,,,,,,,0,,,68,0
104760,note_on,12,0,1,,,,,,,,0,,,66,80
104760,note_on,0,0,1,,,,,,,,0,,,63,80
104760,note_on,0,0,1,,,,,,,,0,,,69,80
104760,note_on,0,0,1,,,,,,,,0,,,72,80
104856,note_on,0,0,1,,,,,,,,0,,,69,0
104856,note_on,96,0,1,,,,,,,,0,,,72,0
104856,note_on,0,0,1,,,,,,,,0,,,63,0
104856,note_on,0,0,1,,,,,,,,0,,,66,0
104880,note_on,0,0,4,,,,,,,,0,,,46,80
104880,note_on,192,0,4,,,,,,,,0,,,48,80
104880,note_on,0,0,4,,,,,,,,0,,,51,80
104880,note_on,0,0,4,,,,,,,,0,,,57,80
104880,note_on,0,0,4,,,,,,,,0,,,54,80
104888,control_change,8,0,4,,,,,,,,0,64,127,,
105000,note_on,0,0,1,,,,,,,,0,,,84,80
105000,note_on,144,0,1,,,,,,,,0,,,93,80
105048,note_on,0,0,1,,,,,,,,0,,,93,0
105048,note_on,48,0,1,,,,,,,,0,,,84,0
105060,note_on,0,0,1,,,,,,,,0,,,87,80
105060,note_on,12,0,1,,,,,,,,0,,,90,80
105108,note_on,48,0,1,,,,,,,,0,,,87,0
105108,note_on,0,0,1,,,,,,,,0,,,90,0
105120,note_on,0,0,1,,,,,,,,0,,,86,80
105120,note_on,12,0,1,,,,,,,,0,,,77,80
105168,note_on,0,0,1,,,,,,,,0,,,77,0
105168,note_on,48,0,1,,,,,,,,0,,,86,0
105180,note_on,0,0,1,,,,,,,,0,,,80,80
105180,note_on,12,0,1,,,,,,,,0,,,83,80
105228,note_on,0,0,1,,,,,,,,0,,,83,0
105228,note_on,48,0,1,,,,,,,,0,,,80,0
105240,note_on,0,0,1,,,,,,,,0,,,78,80
105240,note_on,12,0,1,,,,,,,,0,,,87,80
105288,note_on,0,0,1,,,,,,,,0,,,87,0
105288,note_on,48,0,1,,,,,,,,0,,,78,0
105300,note_on,12,0,1,,,,,,,,0,,,81,80
105300,note_on,0,0,1,,,,,,,,0,,,84,80
105348,note_on,48,0,1,,,,,,,,0,,,84,0
105348,note_on,0,0,1,,,,,,,,0,,,81,0
105360,note_on,12,0,1,,,,,,,,0,,,96,80
105360,note_on,0,0,1,,,,,,,,0,,,87,80
105408,note_on,48,0,1,,,,,,,,0,,,87,0
105408,note_on,0,0,1,,,,,,,,0,,,96,0
105420,note_on,0,0,1,,,,,,,,0,,,93,80
105420,note_on,12,0,1,,,,,,,,0,,,90,80
105468,note_on,0,0,1,,,,,,,,0,,,90,0
105468,note_on,48,0,1,,,,,,,,0,,,93,0
105480,note_on,0,0,1,,,,,,,,0,,,80,80
105480,note_on,12,0,1,,,,,,,,0,,,89,80
105528,note_on,0,0,1,,,,,,,,0,,,89,0
105528,note_on,48,0,1,,,,,,,,0,,,80,0
105540,note_on,0,0,1,,,,,,,,0,,,86,80
105540,note_on,12,0,1,,,,,,,,0,,,83,80
105588,note_on,0,0,1,,,,,,,,0,,,83,0
105588,note_on,48,0,1,,,,,,,,0,,,86,0
105600,note_on,0,0,1,,,,,,,,0,,,90,80
105600,note_on,12,0,1,,,,,,,,0,,,81,80
105648,note_on,0,0,4,,,,,,,,0,,,51,0
105648,note_on,760,0,4,,,,,,,,0,,,54,0
105648,note_on,0,0,4,,,,,,,,0,,,48,0
105648,note_on,0,0,4,,,,,,,,0,,,46,0
105648,note_on,48,0,1,,,,,,,,0,,,90,0
105648,note_on,0,0,1,,,,,,,,0,,,81,0
105648,note_on,0,0,4,,,,,,,,0,,,57,0
105660,note_on,0,0,1,,,,,,,,0,,,87,80
105660,note_on,12,0,1,,,,,,,,0,,,84,80
105708,note_on,48,0,1,,,,,,,,0,,,87,0
105708,note_on,0,0,1,,,,,,,,0,,,84,0
105720,note_on,12,0,1,,,,,,,,0,,,90,80
105720,note_on,0,0,1,,,,,,,,0,,,99,80
105768,note_on,48,0,1,,,,,,,,0,,,99,0
105768,note_on,0,0,1,,,,,,,,0,,,90,0
105780,note_on,0,0,1,,,,,,,,0,,,96,80
105780,note_on,12,0,1,,,,,,,,0,,,93,80
105828,note_on,0,0,1,,,,,,,,0,,,93,0
105828,note_on,48,0,1,,,,,,,,0,,,96,0
105840,note_on,12,0,1,,,,,,,,0,,,92,80
105840,note_on,0,0,1,,,,,,,,0,,,83,80
105840,control_change,192,0,4,,,,,,,,0,64,0,,
105854,control_change,14,0,4,,,,,,,,0,64,127,,
105888,note_on,48,0,1,,,,,,,,0,,,83,0
105888,note_on,0,0,1,,,,,,,,0,,,92,0
105900,note_on,12,0,1,,,,,,,,0,,,89,80
105900,note_on,0,0,1,,,,,,,,0,,,86,80
105948,note_on,48,0,1,,,,,,,,0,,,86,0
105948,note_on,0,0,1,,,,,,,,0,,,89,0
105960,note_on,12,0,1,,,,,,,,0,,,93,80
105960,note_on,0,0,1,,,,,,,,0,,,84,80
106008,note_on,0,0,1,,,,,,,,0,,,93,0
106008,note_on,48,0,1,,,,,,,,0,,,84,0
106020,note_on,0,0,1,,,,,,,,0,,,87,80
106020,note_on,12,0,1,,,,,,,,0,,,90,80
106068,note_on,0,0,1,,,,,,,,0,,,90,0
106068,note_on,48,0,1,,,,,,,,0,,,87,0
106080,note_on,0,0,1,,,,,,,,0,,,100,80
106080,note_on,12,0,1,,,,,,,,0,,,80,80
106128,note_on,0,0,1,,,,,,,,0,,,80,0
106128,note_on,48,0,1,,,,,,,,0,,,100,0
106140,note_on,12,0,1,,,,,,,,0,,,87,80
106140,note_on,0,0,1,,,,,,,,0,,,83,80
106188,note_on,0,0,1,,,,,,,,0,,,87,0
106188,note_on,48,0,1,,,,,,,,0,,,83,0
106200,note_on,12,0,1,,,,,,,,0,,,81,80
106200,note_on,0,0,1,,,,,,,,0,,,101,80
106248,note_on,0,0,1,,,,,,,,0,,,81,0
106248,note_on,48,0,1,,,,,,,,0,,,101,0
106260,note_on,12,0,1,,,,,,,,0,,,87,80
106260,note_on,0,0,1,,,,,,,,0,,,84,80
106308,note_on,48,0,1,,,,,,,,0,,,84,0
106308,note_on,0,0,1,,,,,,,,0,,,87,0
106320,note_on,0,0,2,,,,,,,,0,,,83,80
106320,note_on,6732,0,2,,,,,,,,0,,,80,80
106320,note_on,12,0,1,,,,,,,,0,,,100,80
106334,control_change,480,0,4,,,,,,,,0,64,0,,
106345,control_change,11,0,4,,,,,,,,0,64,127,,
106368,note_on,0,0,2,,,,,,,,0,,,80,0
106368,note_on,48,0,2,,,,,,,,0,,,83,0
106368,note_on,48,0,1,,,,,,,,0,,,100,0
106380,note_on,12,0,2,,,,,,,,0,,,89,80
106380,note_on,12,0,1,,,,,,,,0,,,87,80
106428,note_on,48,0,1,,,,,,,,0,,,87,0
106428,note_on,48,0,2,,,,,,,,0,,,89,0
106440,note_on,12,0,2,,,,,,,,0,,,84,80
106440,note_on,0,0,2,,,,,,,,0,,,81,80
106440,note_on,12,0,1,,,,,,,,0,,,101,80
106488,note_on,48,0,1,,,,,,,,0,,,101,0
106488,note_on,48,0,2,,,,,,,,0,,,81,0
106488,note_on,0,0,2,,,,,,,,0,,,84,0
106500,note_on,12,0,1,,,,,,,,0,,,87,80
106500,note_on,12,0,2,,,,,,,,0,,,89,80
106548,note_on,48,0,1,,,,,,,,0,,,87,0
106548,note_on,48,0,2,,,,,,,,0,,,89,0
106560,note_on,12,0,2,,,,,,,,0,,,83,80
106560,note_on,0,0,2,,,,,,,,0,,,80,80
106560,note_on,12,0,1,,,,,,,,0,,,100,80
106608,note_on,48,0,2,,,,,,,,0,,,80,0
106608,note_on,48,0,1,,,,,,,,0,,,100,0
106608,note_on,0,0,2,,,,,,,,0,,,83,0
106620,note_on,12,0,2,,,,,,,,0,,,89,80
106620,note_on,12,0,1,,,,,,,,0,,,87,80
106668,note_on,48,0,2,,,,,,,,0,,,89,0
106668,note_on,48,0,1,,,,,,,,0,,,87,0
106680,note_on,0,0,2,,,,,,,,0,,,84,80
106680,note_on,12,0,1,,,,,,,,0,,,101,80
106680,note_on,12,0,2,,,,,,,,0,,,81,80
106728,note_on,48,0,2,,,,,,,,0,,,84,0
106728,note_on,0,0,2,,,,,,,,0,,,81,0
106728,note_on,48,0,1,,,,,,,,0,,,101,0
106740,note_on,12,0,2,,,,,,,,0,,,89,80
106740,note_on,12,0,1,,,,,,,,0,,,87,80
106788,note_on,48,0,1,,,,,,,,0,,,87,0
106788,note_on,48,0,2,,,,,,,,0,,,89,0
106800,note_on,0,0,2,,,,,,,,0,,,83,80
106800,note_on,12,0,2,,,,,,,,0,,,80,80
106800,note_on,12,0,1,,,,,,,,0,,,102,80
106825,control_change,480,0,4,,,,,,,,0,64,0,,
106848,note_on,48,0,1,,,,,,,,0,,,102,0
106848,note_on,0,0,2,,,,,,,,0,,,80,0
106848,note_on,48,0,2,,,,,,,,0,,,83,0
106860,note_on,12,0,1,,,,,,,,0,,,87,80
106860,note_on,12,0,2,,,,,,,,0,,,89,80
106871,control_change,46,0,4,,,,,,,,0,64,127,,
106908,note_on,48,0,2,,,,,,,,0,,,89,0
106908,note_on,48,0,1,,,,,,,,0,,,87,0
106920,note_on,0,0,2,,,,,,,,0,,,84,80
106920,note_on,12,0,2,,,,,,,,0,,,81,80
106920,note_on,12,0,1,,,,,,,,0,,,101,80
106968,note_on,0,0,2,,,,,,,,0,,,81,0
106968,note_on,48,0,2,,,,,,,,0,,,84,0
106968,note_on,48,0,1,,,,,,,,0,,,101,0
106980,note_on,12,0,1,,,,,,,,0,,,87,80
106980,note_on,12,0,2,,,,,,,,0,,,89,80
107028,note_on,48,0,2,,,,,,,,0,,,89,0
107028,note_on,48,0,1,,,,,,,,0,,,87,0
107040,note_on,12,0,1,,,,,,,,0,,,103,80
107040,note_on,12,0,2,,,,,,,,0,,,80,80
107040,note_on,0,0,2,,,,,,,,0,,,83,80
107088,note_on,0,0,2,,,,,,,,0,,,80,0
107088,note_on,48,0,1,,,,,,,,0,,,103,0
107088,note_on,48,0,2,,,,,,,,0,,,83,0
107100,note_on,12,0,2,,,,,,,,0,,,89,80
107100,note_on,12,0,1,,,,,,,,0,,,87,80
107148,note_on,48,0,2,,,,,,,,0,,,89,0
107148,note_on,48,0,1,,,,,,,,0,,,87,0
107160,note_on,12,0,2,,,,,,,,0,,,81,80
107160,note_on,0,0,2,,,,,,,,0,,,84,80
107160,note_on,12,0,1,,,,,,,,0,,,101,80
107208,note_on,48,0,2,,,,,,,,0,,,84,0
107208,note_on,0,0,2,,,,,,,,0,,,81,0
107208,note_on,48,0,1,,,,,,,,0,,,101,0
107220,note_on,12,0,2,,,,,,,,0,,,89,80
107220,note_on,12,0,1,,,,,,,,0,,,87,80
107268,note_on,48,0,2,,,,,,,,0,,,89,0
107268,note_on,48,0,1,,,,,,,,0,,,87,0
107280,note_on,0,0,2,,,,,,,,0,,,83,80
107280,note_on,12,0,2,,,,,,,,0,,,80,80
107280,note_on,12,0,1,,,,,,,,0,,,102,80
107328,note_on,48,0,2,,,,,,,,0,,,83,0
107328,note_on,0,0,2,,,,,,,,0,,,80,0
107328,note_on,48,0,1,,,,,,,,0,,,102,0
107340,note_on,12,0,2,,,,,,,,0,,,89,80
107340,note_on,12,0,1,,,,,,,,0,,,87,80
107351,control_change,480,0,4,,,,,,,,0,64,0,,
107388,note_on,48,0,1,,,,,,,,0,,,87,0
107388,note_on,48,0,2,,,,,,,,0,,,89,0
107400,note_on,12,0,1,,,,,,,,0,,,101,80
107400,note_on,12,0,2,,,,,,,,0,,,84,80
107400,note_on,0,0,2,,,,,,,,0,,,81,80
107448,note_on,48,0,1,,,,,,,,0,,,101,0
107448,note_on,48,0,2,,,,,,,,0,,,81,0
107448,note_on,0,0,2,,,,,,,,0,,,84,0
107460,note_on,12,0,1,,,,,,,,0,,,87,80
107460,note_on,12,0,2,,,,,,,,0,,,89,80
107508,note_on,48,0,1,,,,,,,,0,,,87,0
107508,note_on,48,0,2,,,,,,,,0,,,89,0
107520,note_on,12,0,2,,,,,,,,0,,,80,80
107520,note_on,0,0,2,,,,,,,,0,,,83,80
107520,note_on,12,0,1,,,,,,,,0,,,103,80
107568,note_on,0,0,2,,,,,,,,0,,,80,0
107568,note_on,48,0,2,,,,,,,,0,,,83,0
107568,note_on,48,0,1,,,,,,,,0,,,103,0
107580,note_on,12,0,1,,,,,,,,0,,,87,80
107580,note_on,12,0,2,,,,,,,,0,,,89,80
107628,note_on,48,0,2,,,,,,,,0,,,89,0
107628,note_on,48,0,1,,,,,,,,0,,,87,0
107640,note_on,12,0,1,,,,,,,,0,,,101,80
107640,note_on,12,0,2,,,,,,,,0,,,81,80
107640,note_on,0,0,2,,,,,,,,0,,,84,80
107688,note_on,48,0,2,,,,,,,,0,,,84,0
107688,note_on,48,0,1,,,,,,,,0,,,101,0
107688,note_on,0,0,2,,,,,,,,0,,,81,0
107700,note_on,12,0,2,,,,,,,,0,,,89,80
107700,note_on,12,0,1,,,,,,,,0,,,87,80
107748,note_on,48,0,1,,,,,,,,0,,,87,0
107748,note_on,48,0,2,,,,,,,,0,,,89,0
107760,note_on,12,0,2,,,,,,,,0,,,70,80
107760,time_signature,7380,1,0,6,4,24,8,,,,,,,,
107800,note_on,40,0,2,,,,,,,,0,,,74,80
107830,note_on,30,0,2,,,,,,,,0,,,77,80
107850,note_on,102,0,1,,,,,,,,0,,,101,80
107850,note_on,20,0,2,,,,,,,,0,,,86,80
108282,note_on,432,0,2,,,,,,,,0,,,86,0
108282,note_on,0,0,2,,,,,,,,0,,,70,0
108282,note_on,0,0,2,,,,,,,,0,,,74,0
108282,note_on,0,0,2,,,,,,,,0,,,77,0
108348,control_change,997,0,4,,,,,,,,0,64,127,,
108360,note_on,0,0,4,,,,,,,,0,,,50,64
108360,note_on,12,0,4,,,,,,,,0,,,58,51
108360,note_on,4500,0,3,,,,,,,,0,,,53,51
108360,note_on,0,0,4,,,,,,,,0,,,62,51
108408,note_on,48,0,3,,,,,,,,0,,,53,0
108420,note_on,12,0,3,,,,,,,,0,,,54,51
108456,note_on,0,0,4,,,,,,,,0,,,62,0
108456,note_on,0,0,4,,,,,,,,0,,,58,0
108456,note_on,96,0,4,,,,,,,,0,,,50,0
108468,note_on,48,0,3,,,,,,,,0,,,54,0
108474,note_on,624,0,1,,,,,,,,0,,,101,0
108480,note_on,12,0,3,,,,,,,,0,,,53,51
108480,note_on,0,0,4,,,,,,,,0,,,62,51
108480,note_on,24,0,4,,,,,,,,0,,,58,51
108480,note_on,0,0,4,,,,,,,,0,,,48,64
108528,note_on,48,0,3,,,,,,,,0,,,53,0
108540,note_on,12,0,3,,,,,,,,0,,,55,51
108576,note_on,0,0,4,,,,,,,,0,,,58,0
108576,note_on,0,0,4,,,,,,,,0,,,48,0
108576,note_on,96,0,4,,,,,,,,0,,,62,0
108588,note_on,48,0,3,,,,,,,,0,,,55,0
108600,note_on,12,0,3,,,,,,,,0,,,53,51
108600,note_on,24,0,4,,,,,,,,0,,,58,51
108600,note_on,0,0,4,,,,,,,,0,,,62,51
108600,note_on,0,0,4,,,,,,,,0,,,47,64
108648,note_on,48,0,3,,,,,,,,0,,,53,0
108660,note_on,12,0,3,,,,,,,,0,,,54,51
108696,note_on,0,0,4,,,,,,,,0,,,62,0
108696,note_on,96,0,4,,,,,,,,0,,,47,0
108696,note_on,0,0,4,,,,,,,,0,,,58,0
108708,note_on,48,0,3,,,,,,,,0,,,54,0
108720,note_on,0,0,4,,,,,,,,0,,,58,51
108720,note_on,0,0,4,,,,,,,,0,,,62,51
108720,note_on,24,0,4,,,,,,,,0,,,46,64
108720,note_on,12,0,3,,,,,,,,0,,,53,51
108768,note_on,48,0,3,,,,,,,,0,,,53,0
108780,note_on,12,0,3,,,,,,,,0,,,55,51
108816,note_on,96,0,4,,,,,,,,0,,,62,0
108816,note_on,0,0,4,,,,,,,,0,,,46,0
108816,note_on,0,0,4,,,,,,,,0,,,58,0
108828,note_on,48,0,3,,,,,,,,0,,,55,0
108840,note_on,24,0,4,,,,,,,,0,,,50,64
108840,note_on,12,0,3,,,,,,,,0,,,53,51
108840,note_on,0,0,4,,,,,,,,0,,,62,51
108840,note_on,0,0,4,,,,,,,,0,,,58,51
108888,note_on,48,0,3,,,,,,,,0,,,53,0
108900,note_on,12,0,3,,,,,,,,0,,,54,51
108936,note_on,0,0,4,,,,,,,,0,,,58,0
108936,note_on,0,0,4,,,,,,,,0,,,50,0
108936,note_on,96,0,4,,,,,,,,0,,,62,0
108948,note_on,48,0,3,,,,,,,,0,,,54,0
108960,note_on,0,0,4,,,,,,,,0,,,58,51
108960,note_on,12,0,3,,,,,,,,0,,,53,51
108960,note_on,0,0,4,,,,,,,,0,,,48,64
108960,note_on,24,0,4,,,,,,,,0,,,62,51
109008,note_on,48,0,4,,,,,,,,0,,,48,0
109008,note_on,48,0,3,,,,,,,,0,,,53,0
109020,note_on,12,0,4,,,,,,,,0,,,47,64
109020,note_on,12,0,3,,,,,,,,0,,,55,51
109068,note_on,48,0,3,,,,,,,,0,,,55,0
109068,note_on,48,0,4,,,,,,,,0,,,47,0
109068,note_on,0,0,4,,,,,,,,0,,,58,0
109068,note_on,0,0,4,,,,,,,,0,,,62,0
109080,note_on,12,0,3,,,,,,,,0,,,53,51
109080,note_on,0,0,4,,,,,,,,0,,,46,64
109080,note_on,12,0,4,,,,,,,,0,,,62,51
109080,note_on,0,0,4,,,,,,,,0,,,58,51
109128,note_on,48,0,3,,,,,,,,0,,,53,0
109140,note_on,12,0,3,,,,,,,,0,,,54,51
109176,note_on,96,0,4,,,,,,,,0,,,46,0
109176,note_on,0,0,4,,,,,,,,0,,,62,0
109176,note_on,0,0,4,,,,,,,,0,,,58,0
109186,control_change,10,0,4,,,,,,,,0,64,0,,
109188,note_on,48,0,3,,,,,,,,0,,,54,0
109188,end_of_track,0,1,3,,,,,,,,,,,,
109200,note_on,0,0,2,,,,,,,,0,,,62,64
109200,time_signature,1440,1,0,4,4,24,8,,,,,,,,
109200,note_on,918,0,2,,,,,,,,0,,,58,64
109200,note_on,0,0,4,,,,,,,,0,,,53,64
109200,note_on,0,0,4,,,,,,,,0,,,41,64
109200,note_on,14,0,4,,,,,,,,0,,,34,64
109202,control_change,2,0,4,,,,,,,,0,64,127,,
109392,end_of_track,0,1,2,,,,,,,,,,,,
109392,note_on,192,0,2,,,,,,,,0,,,62,0
109392,note_on,190,0,4,,,,,,,,0,,,53,0
109392,note_on,0,0,4,,,,,,,,0,,,41,0
109392,note_on,0,0,2,,,,,,,,0,,,58,0
109392,note_on,0,0,4,,,,,,,,0,,,34,0
109560,note_on,1086,0,1,,,,,,,,0,,,65,80
109620,note_on,60,0,1,,,,,,,,0,,,70,80
109660,note_on,40,0,1,,,,,,,,0,,,74,80
109690,note_on,30,0,1,,,,,,,,0,,,77,80
109710,note_on,20,0,1,,,,,,,,0,,,82,80
109725,note_on,15,0,1,,,,,,,,0,,,89,80
109740,note_on,15,0,1,,,,,,,,0,,,98,80
109947,note_on,0,0,1,,,,,,,,0,,,82,0
109947,note_on,0,0,1,,,,,,,,0,,,89,0
109947,note_on,0,0,1,,,,,,,,0,,,77,0
109947,note_on,0,0,1,,,,,,,,0,,,74,0
109947,note_on,0,0,1,,,,,,,,0,,,65,0
109947,note_on,0,0,1,,,,,,,,0,,,70,0
109947,note_on,207,0,1,,,,,,,,0,,,98,0
110280,note_on,333,0,1,,,,,,,,0,,,58,80
110340,note_on,60,0,1,,,,,,,,0,,,62,80
110380,note_on,40,0,1,,,,,,,,0,,,65,80
110410,note_on,30,0,1,,,,,,,,0,,,70,80
110430,note_on,20,0,1,,,,,,,,0,,,77,80
110445,note_on,15,0,1,,,,,,,,0,,,86,80
110652,end_of_track,0,1,1,,,,,,,,,,,,
110652,note_on,0,0,1,,,,,,,,0,,,62,0
110652,note_on,0,0,1,,,,,,,,0,,,58,0
110652,note_on,0,0,1,,,,,,,,0,,,65,0
110652,note_on,207,0,1,,,,,,,,0,,,86,0
110652,note_on,0,0,1,,,,,,,,0,,,70,0
110652,note_on,0,0,1,,,,,,,,0,,,77,0
111120,note_on,1728,0,4,,,,,,,,0,,,53,80
111120,note_on,0,0,4,,,,,,,,0,,,46,80
111312,note_on,192,0,4,,,,,,,,0,,,46,0
111312,note_on,0,0,4,,,,,,,,0,,,53,0
111955,control_change,643,0,4,,,,,,,,0,64,0,,
111955,end_of_track,0,1,4,,,,,,,,,,,,
111956,end_of_track,0,1,0,,,,,,,,,,,,
111956,set_tempo,2756,1,0,,,,,,498712,,,,,,
