tick,type,time,meta,track,numerator,denominator,clocks_per_click,notated_32nd_notes_per_beat,key,tempo,port,program,channel,control,value,note,velocity
0,control_change,0,0,1,,,,,,,,,0,7,127,,
0,track_name,0,1,2,,,,,,,,,,,,,
0,track_name,0,1,1,,,,,,,,,,,,,
0,track_name,0,1,0,,,,,,,,,,,,,
0,time_signature,0,1,0,4,4,24,8,,,,,,,,,
0,set_tempo,0,1,0,,,,,,375000,,,,,,,
0,program_change,0,0,4,,,,,,,,0,0,,,,
0,program_change,0,0,3,,,,,,,,0,0,,,,
0,program_change,0,0,2,,,,,,,,0,0,,,,
0,program_change,0,0,1,,,,,,,,0,0,,,,
0,track_name,0,1,3,,,,,,,,,,,,,
0,midi_port,0,1,4,,,,,,,0,,,,,,
0,midi_port,0,1,3,,,,,,,0,,,,,,
0,midi_port,0,1,2,,,,,,,0,,,,,,
0,midi_port,0,1,1,,,,,,,0,,,,,,
0,key_signature,0,1,0,,,,,C,,,,,,,,
0,track_name,0,1,4,,,,,,,,,,,,,
0,control_change,0,0,3,,,,,,,,,0,7,127,,
0,control_change,0,0,3,,,,,,,,,0,10,62,,
0,control_change,0,0,4,,,,,,,,,0,7,127,,
0,control_change,0,0,2,,,,,,,,,0,10,62,,
0,control_change,0,0,4,,,,,,,,,0,10,62,,
0,control_change,0,0,2,,,,,,,,,0,7,127,,
0,control_change,0,0,1,,,,,,,,,0,10,62,,
5,control_change,5,0,4,,,,,,,,,0,64,127,,
180,note_on,180,0,3,,,,,,,,,0,,,60,80
180,note_on,0,0,3,,,,,,,,,0,,,48,80
240,note_on,235,0,4,,,,,,,,,0,,,24,80
240,note_on,0,0,4,,,,,,,,,0,,,36,80
336,note_on,0,0,4,,,,,,,,,0,,,24,0
336,note_on,0,0,3,,,,,,,,,0,,,60,0
336,note_on,96,0,4,,,,,,,,,0,,,36,0
336,note_on,156,0,3,,,,,,,,,0,,,48,0
660,note_on,660,0,1,,,,,,,,,0,,,60,80
680,note_on,20,0,1,,,,,,,,,0,,,67,80
700,note_on,20,0,1,,,,,,,,,0,,,70,80
720,note_on,20,0,1,,,,,,,,,0,,,76,80
720,note_on,0,0,1,,,,,,,,,0,,,84,80
816,note_on,0,0,1,,,,,,,,,0,,,76,0
816,note_on,0,0,1,,,,,,,,,0,,,60,0
816,note_on,96,0,1,,,,,,,,,0,,,84,0
816,note_on,0,0,1,,,,,,,,,0,,,70,0
816,note_on,0,0,1,,,,,,,,,0,,,67,0
840,note_on,24,0,1,,,,,,,,,0,,,96,80
936,note_on,96,0,1,,,,,,,,,0,,,96,0
957,set_tempo,957,1,0,,,,,,313808,,,,,,,
960,note_on,24,0,1,,,,,,,,,0,,,94,80
960,time_signature,3,1,0,5,4,24,8,,,,,,,,,
1008,note_on,48,0,1,,,,,,,,,0,,,94,0
1020,note_on,12,0,1,,,,,,,,,0,,,91,80
1068,note_on,48,0,1,,,,,,,,,0,,,91,0
1080,note_on,12,0,1,,,,,,,,,0,,,88,80
1128,note_on,48,0,1,,,,,,,,,0,,,88,0
1140,note_on,12,0,1,,,,,,,,,0,,,84,80
1188,note_on,48,0,1,,,,,,,,,0,,,84,0
1200,note_on,12,0,1,,,,,,,,,0,,,82,80
1248,note_on,48,0,1,,,,,,,,,0,,,82,0
1260,note_on,12,0,1,,,,,,,,,0,,,79,80
1308,note_on,48,0,1,,,,,,,,,0,,,79,0
1320,note_on,12,0,1,,,,,,,,,0,,,76,80
1368,note_on,48,0,1,,,,,,,,,0,,,76,0
1380,note_on,12,0,1,,,,,,,,,0,,,72,80
1428,note_on,48,0,1,,,,,,,,,0,,,72,0
1440,note_on,12,0,1,,,,,,,,,0,,,70,80
1488,note_on,48,0,1,,,,,,,,,0,,,70,0
1500,note_on,12,0,1,,,,,,,,,0,,,67,80
1548,note_on,48,0,1,,,,,,,,,0,,,67,0
1557,set_tempo,597,1,0,,,,,,312826,,,,,,,
1560,note_on,12,0,1,,,,,,,,,0,,,64,80
1608,note_on,48,0,1,,,,,,,,,0,,,64,0
1620,note_on,12,0,1,,,,,,,,,0,,,60,80
1668,note_on,48,0,1,,,,,,,,,0,,,60,0
1671,control_change,1335,0,4,,,,,,,,,0,64,0,,
1680,note_on,1344,0,3,,,,,,,,,0,,,58,80
1725,note_on,45,0,3,,,,,,,,,0,,,58,0
1728,note_on,3,0,3,,,,,,,,,0,,,55,80
1773,note_on,45,0,3,,,,,,,,,0,,,55,0
1776,note_on,3,0,3,,,,,,,,,0,,,52,80
1821,note_on,45,0,3,,,,,,,,,0,,,52,0
1824,note_on,3,0,3,,,,,,,,,0,,,48,80
1869,note_on,45,0,3,,,,,,,,,0,,,48,0
1872,note_on,3,0,3,,,,,,,,,0,,,46,80
1915,set_tempo,358,1,0,,,,,,312826,,,,,,,
1917,set_tempo,2,1,0,,,,,,386598,,,,,,,
1917,note_on,45,0,3,,,,,,,,,0,,,46,0
1920,note_on,3,0,3,,,,,,,,,0,,,43,80
1968,note_on,48,0,3,,,,,,,,,0,,,43,0
1980,note_on,12,0,3,,,,,,,,,0,,,50,80
2028,note_on,48,0,3,,,,,,,,,0,,,50,0
2040,note_on,12,0,3,,,,,,,,,0,,,48,80
2040,note_on,0,0,3,,,,,,,,,0,,,44,80
2040,note_on,369,0,4,,,,,,,,,0,,,40,80
2088,note_on,0,0,3,,,,,,,,,0,,,48,0
2088,note_on,48,0,3,,,,,,,,,0,,,44,0
2100,note_on,12,0,3,,,,,,,,,0,,,46,80
2136,note_on,96,0,4,,,,,,,,,0,,,40,0
2148,note_on,48,0,3,,,,,,,,,0,,,46,0
2160,note_on,12,0,3,,,,,,,,,0,,,45,64
2160,note_on,24,0,4,,,,,,,,,0,,,41,80
2160,time_signature,243,1,0,4,4,24,8,,,,,,,,,
2176,set_tempo,16,1,0,,,,,,388098,,,,,,,
2184,set_tempo,8,1,0,,,,,,383632,,,,,,,
2208,note_on,48,0,3,,,,,,,,,0,,,45,0
2220,note_on,12,0,3,,,,,,,,,0,,,52,64
2256,note_on,96,0,4,,,,,,,,,0,,,41,0
2268,note_on,48,0,3,,,,,,,,,0,,,52,0
2280,note_on,12,0,3,,,,,,,,,0,,,46,64
2280,note_on,0,0,3,,,,,,,,,0,,,50,64
2280,note_on,24,0,4,,,,,,,,,0,,,42,80
2328,note_on,48,0,3,,,,,,,,,0,,,50,0
2328,note_on,0,0,3,,,,,,,,,0,,,46,0
2340,note_on,12,0,3,,,,,,,,,0,,,48,64
2376,note_on,96,0,4,,,,,,,,,0,,,42,0
2388,note_on,48,0,3,,,,,,,,,0,,,48,0
2400,note_on,24,0,4,,,,,,,,,0,,,43,80
2400,note_on,12,0,3,,,,,,,,,0,,,47,64
2448,note_on,48,0,3,,,,,,,,,0,,,47,0
2460,note_on,12,0,3,,,,,,,,,0,,,53,64
2496,note_on,96,0,4,,,,,,,,,0,,,43,0
2508,note_on,48,0,3,,,,,,,,,0,,,53,0
2520,note_on,24,0,4,,,,,,,,,0,,,44,80
2520,note_on,12,0,3,,,,,,,,,0,,,48,64
2520,note_on,0,0,3,,,,,,,,,0,,,52,64
2568,note_on,0,0,3,,,,,,,,,0,,,48,0
2568,note_on,48,0,3,,,,,,,,,0,,,52,0
2580,note_on,12,0,3,,,,,,,,,0,,,50,64
2616,note_on,96,0,4,,,,,,,,,0,,,44,0
2628,note_on,48,0,3,,,,,,,,,0,,,50,0
2640,note_on,12,0,3,,,,,,,,,0,,,48,64
2640,note_on,24,0,4,,,,,,,,,0,,,45,80
2688,note_on,48,0,3,,,,,,,,,0,,,48,0
2700,note_on,12,0,3,,,,,,,,,0,,,55,64
2748,note_on,48,0,3,,,,,,,,,0,,,55,0
2760,note_on,0,0,3,,,,,,,,,0,,,53,64
2760,note_on,12,0,3,,,,,,,,,0,,,49,64
2808,note_on,48,0,3,,,,,,,,,0,,,53,0
2808,note_on,0,0,3,,,,,,,,,0,,,49,0
2820,note_on,12,0,3,,,,,,,,,0,,,52,64
2832,note_on,192,0,4,,,,,,,,,0,,,45,0
2868,note_on,48,0,3,,,,,,,,,0,,,52,0
2880,note_on,48,0,4,,,,,,,,,0,,,46,80
2880,note_on,12,0,3,,,,,,,,,0,,,50,64
2928,note_on,48,0,3,,,,,,,,,0,,,50,0
2940,note_on,12,0,3,,,,,,,,,0,,,57,64
2976,note_on,96,0,4,,,,,,,,,0,,,46,0
2988,note_on,48,0,3,,,,,,,,,0,,,57,0
3000,note_on,24,0,4,,,,,,,,,0,,,47,80
3000,note_on,0,0,3,,,,,,,,,0,,,55,64
3000,note_on,12,0,3,,,,,,,,,0,,,51,64
3048,note_on,48,0,3,,,,,,,,,0,,,55,0
3048,note_on,0,0,3,,,,,,,,,0,,,51,0
3060,note_on,12,0,3,,,,,,,,,0,,,53,64
3096,note_on,96,0,4,,,,,,,,,0,,,47,0
3108,note_on,48,0,3,,,,,,,,,0,,,53,0
3120,note_on,24,0,4,,,,,,,,,0,,,48,80
3120,note_on,3120,0,2,,,,,,,,,0,,,52,64
3127,control_change,7,0,4,,,,,,,,,0,64,127,,
3216,note_on,89,0,4,,,,,,,,,0,,,48,0
3216,note_on,96,0,2,,,,,,,,,0,,,52,0
3300,note_on,84,0,2,,,,,,,,,0,,,60,80
3300,note_on,0,0,2,,,,,,,,,0,,,48,80
3360,note_on,252,0,3,,,,,,,,,0,,,24,80
3360,note_on,0,0,3,,,,,,,,,0,,,36,80
3456,note_on,0,0,3,,,,,,,,,0,,,24,0
3456,note_on,0,0,2,,,,,,,,,0,,,60,0
3456,note_on,156,0,2,,,,,,,,,0,,,48,0
3456,note_on,96,0,3,,,,,,,,,0,,,36,0
3780,note_on,2112,0,1,,,,,,,,,0,,,60,80
3800,note_on,20,0,1,,,,,,,,,0,,,67,80
3820,note_on,20,0,1,,,,,,,,,0,,,70,80
3840,note_on,20,0,1,,,,,,,,,0,,,76,80
3840,note_on,0,0,1,,,,,,,,,0,,,84,80
3936,note_on,96,0,1,,,,,,,,,0,,,84,0
3936,note_on,0,0,1,,,,,,,,,0,,,70,0
3936,note_on,0,0,1,,,,,,,,,0,,,67,0
3936,note_on,0,0,1,,,,,,,,,0,,,76,0
3936,note_on,0,0,1,,,,,,,,,0,,,60,0
3960,note_on,24,0,1,,,,,,,,,0,,,96,80
4056,note_on,96,0,1,,,,,,,,,0,,,96,0
4080,set_tempo,0,1,0,,,,,,311850,,,,,,,
4080,note_on,24,0,1,,,,,,,,,0,,,94,80
4080,time_signature,1896,1,0,5,4,24,8,,,,,,,,,
4128,note_on,48,0,1,,,,,,,,,0,,,94,0
4140,note_on,12,0,1,,,,,,,,,0,,,91,80
4188,note_on,48,0,1,,,,,,,,,0,,,91,0
4200,note_on,12,0,1,,,,,,,,,0,,,88,80
4248,note_on,48,0,1,,,,,,,,,0,,,88,0
4260,note_on,12,0,1,,,,,,,,,0,,,84,80
4308,note_on,48,0,1,,,,,,,,,0,,,84,0
4320,note_on,12,0,1,,,,,,,,,0,,,82,80
4368,note_on,48,0,1,,,,,,,,,0,,,82,0
4380,note_on,12,0,1,,,,,,,,,0,,,79,80
4428,note_on,48,0,1,,,,,,,,,0,,,79,0
4440,note_on,12,0,1,,,,,,,,,0,,,76,80
4488,note_on,48,0,1,,,,,,,,,0,,,76,0
4500,note_on,12,0,1,,,,,,,,,0,,,72,80
4548,note_on,48,0,1,,,,,,,,,0,,,72,0
4560,note_on,12,0,1,,,,,,,,,0,,,70,80
4608,note_on,48,0,1,,,,,,,,,0,,,70,0
4620,note_on,12,0,1,,,,,,,,,0,,,67,80
4668,note_on,48,0,1,,,,,,,,,0,,,67,0
4680,note_on,12,0,1,,,,,,,,,0,,,64,80
4728,note_on,48,0,1,,,,,,,,,0,,,64,0
4740,note_on,12,0,1,,,,,,,,,0,,,60,80
4788,note_on,48,0,1,,,,,,,,,0,,,60,0
4800,control_change,1584,0,4,,,,,,,,,0,64,0,,
4800,note_on,1344,0,2,,,,,,,,,0,,,58,80
4845,note_on,45,0,2,,,,,,,,,0,,,58,0
4848,note_on,3,0,2,,,,,,,,,0,,,55,80
4893,note_on,45,0,2,,,,,,,,,0,,,55,0
4896,note_on,3,0,2,,,,,,,,,0,,,52,80
4941,note_on,45,0,2,,,,,,,,,0,,,52,0
4944,note_on,3,0,2,,,,,,,,,0,,,48,80
4989,note_on,45,0,2,,,,,,,,,0,,,48,0
4992,note_on,3,0,2,,,,,,,,,0,,,46,80
5033,set_tempo,953,1,0,,,,,,385109,,,,,,,
5037,note_on,45,0,2,,,,,,,,,0,,,46,0
5040,note_on,3,0,2,,,,,,,,,0,,,43,80
5088,note_on,48,0,2,,,,,,,,,0,,,43,0
5100,note_on,12,0,2,,,,,,,,,0,,,50,80
5148,note_on,48,0,2,,,,,,,,,0,,,50,0
5160,note_on,12,0,2,,,,,,,,,0,,,48,80
5160,note_on,1704,0,3,,,,,,,,,0,,,40,80
5160,note_on,0,0,2,,,,,,,,,0,,,44,80
5208,note_on,0,0,2,,,,,,,,,0,,,48,0
5208,note_on,48,0,2,,,,,,,,,0,,,44,0
5220,note_on,12,0,2,,,,,,,,,0,,,46,80
5256,note_on,96,0,3,,,,,,,,,0,,,40,0
5268,note_on,48,0,2,,,,,,,,,0,,,46,0
5280,time_signature,247,1,0,4,4,24,8,,,,,,,,,
5280,note_on,480,0,4,,,,,,,,,0,,,41,80
5280,note_on,24,0,3,,,,,,,,,0,,,45,60
5328,note_on,48,0,3,,,,,,,,,0,,,45,0
5340,note_on,12,0,3,,,,,,,,,0,,,52,60
5376,note_on,96,0,4,,,,,,,,,0,,,41,0
5388,note_on,48,0,3,,,,,,,,,0,,,52,0
5400,note_on,132,0,2,,,,,,,,,0,,,46,80
5400,note_on,12,0,3,,,,,,,,,0,,,50,60
5400,note_on,24,0,4,,,,,,,,,0,,,42,80
5448,note_on,48,0,2,,,,,,,,,0,,,46,0
5448,note_on,48,0,3,,,,,,,,,0,,,50,0
5460,note_on,12,0,3,,,,,,,,,0,,,48,60
5496,note_on,96,0,4,,,,,,,,,0,,,42,0
5508,note_on,48,0,3,,,,,,,,,0,,,48,0
5520,note_on,24,0,4,,,,,,,,,0,,,43,80
5520,note_on,12,0,3,,,,,,,,,0,,,47,60
5568,note_on,48,0,3,,,,,,,,,0,,,47,0
5580,note_on,12,0,3,,,,,,,,,0,,,53,60
5616,note_on,96,0,4,,,,,,,,,0,,,43,0
5628,note_on,48,0,3,,,,,,,,,0,,,53,0
5640,note_on,12,0,3,,,,,,,,,0,,,52,60
5640,note_on,24,0,4,,,,,,,,,0,,,44,80
5640,note_on,192,0,2,,,,,,,,,0,,,47,80
5688,note_on,48,0,2,,,,,,,,,0,,,47,0
5688,note_on,48,0,3,,,,,,,,,0,,,52,0
5700,note_on,12,0,3,,,,,,,,,0,,,50,60
5736,note_on,96,0,4,,,,,,,,,0,,,44,0
5748,note_on,48,0,3,,,,,,,,,0,,,50,0
5760,note_on,24,0,4,,,,,,,,,0,,,45,80
5760,note_on,12,0,3,,,,,,,,,0,,,48,60
5808,note_on,48,0,3,,,,,,,,,0,,,48,0
5820,note_on,12,0,3,,,,,,,,,0,,,55,60
5868,note_on,48,0,3,,,,,,,,,0,,,55,0
5880,note_on,12,0,3,,,,,,,,,0,,,53,60
5880,note_on,192,0,2,,,,,,,,,0,,,49,80
5928,note_on,48,0,3,,,,,,,,,0,,,53,0
5928,note_on,48,0,2,,,,,,,,,0,,,49,0
5940,note_on,12,0,3,,,,,,,,,0,,,52,60
5952,note_on,192,0,4,,,,,,,,,0,,,45,0
5988,note_on,48,0,3,,,,,,,,,0,,,52,0
6000,note_on,12,0,3,,,,,,,,,0,,,50,60
6000,note_on,48,0,4,,,,,,,,,0,,,46,80
6048,note_on,48,0,3,,,,,,,,,0,,,50,0
6060,note_on,12,0,3,,,,,,,,,0,,,57,60
6096,note_on,96,0,4,,,,,,,,,0,,,46,0
6108,note_on,48,0,3,,,,,,,,,0,,,57,0
6120,note_on,24,0,4,,,,,,,,,0,,,47,80
6120,note_on,12,0,3,,,,,,,,,0,,,55,60
6120,note_on,192,0,2,,,,,,,,,0,,,51,80
6168,note_on,48,0,3,,,,,,,,,0,,,55,0
6168,note_on,48,0,2,,,,,,,,,0,,,51,0
6180,note_on,12,0,3,,,,,,,,,0,,,53,60
6216,note_on,96,0,4,,,,,,,,,0,,,47,0
6228,note_on,48,0,3,,,,,,,,,0,,,53,0
6240,note_on,24,0,4,,,,,,,,,0,,,48,80
6240,note_on,12,0,3,,,,,,,,,0,,,52,60
6288,note_on,48,0,3,,,,,,,,,0,,,52,0
6300,note_on,12,0,3,,,,,,,,,0,,,58,61
6336,note_on,96,0,4,,,,,,,,,0,,,48,0
6348,note_on,48,0,3,,,,,,,,,0,,,58,0
6360,note_on,24,0,4,,,,,,,,,0,,,49,80
6360,note_on,12,0,3,,,,,,,,,0,,,57,61
6408,note_on,48,0,3,,,,,,,,,0,,,57,0
6420,note_on,12,0,3,,,,,,,,,0,,,55,62
6456,note_on,96,0,4,,,,,,,,,0,,,49,0
6468,note_on,48,0,3,,,,,,,,,0,,,55,0
6480,note_on,12,0,3,,,,,,,,,0,,,53,63
6480,note_on,24,0,4,,,,,,,,,0,,,50,80
6528,note_on,48,0,3,,,,,,,,,0,,,53,0
6540,note_on,12,0,3,,,,,,,,,0,,,60,63
6576,note_on,96,0,4,,,,,,,,,0,,,50,0
6588,note_on,48,0,3,,,,,,,,,0,,,60,0
6600,note_on,24,0,4,,,,,,,,,0,,,51,80
6600,note_on,12,0,3,,,,,,,,,0,,,59,64
6600,note_on,432,0,2,,,,,,,,,0,,,54,80
6648,note_on,48,0,3,,,,,,,,,0,,,59,0
6648,note_on,48,0,2,,,,,,,,,0,,,54,0
6660,note_on,12,0,3,,,,,,,,,0,,,57,64
6696,note_on,96,0,4,,,,,,,,,0,,,51,0
6708,note_on,48,0,3,,,,,,,,,0,,,57,0
6720,note_on,24,0,4,,,,,,,,,0,,,52,80
6720,note_on,12,0,3,,,,,,,,,0,,,55,65
6768,note_on,48,0,3,,,,,,,,,0,,,55,0
6780,note_on,12,0,3,,,,,,,,,0,,,62,66
6828,note_on,48,0,3,,,,,,,,,0,,,62,0
6840,note_on,192,0,2,,,,,,,,,0,,,56,80
6840,note_on,12,0,3,,,,,,,,,0,,,60,66
6888,note_on,48,0,2,,,,,,,,,0,,,56,0
6888,note_on,48,0,3,,,,,,,,,0,,,60,0
6900,note_on,12,0,3,,,,,,,,,0,,,58,67
6912,note_on,192,0,4,,,,,,,,,0,,,52,0
6948,note_on,48,0,3,,,,,,,,,0,,,58,0
6960,note_on,48,0,4,,,,,,,,,0,,,53,80
6960,note_on,12,0,3,,,,,,,,,0,,,57,68
7008,note_on,48,0,3,,,,,,,,,0,,,57,0
7020,note_on,12,0,3,,,,,,,,,0,,,64,68
7056,note_on,96,0,4,,,,,,,,,0,,,53,0
7068,note_on,48,0,3,,,,,,,,,0,,,64,0
7080,note_on,24,0,4,,,,,,,,,0,,,54,80
7080,note_on,192,0,2,,,,,,,,,0,,,58,80
7080,note_on,12,0,3,,,,,,,,,0,,,62,69
7128,note_on,48,0,2,,,,,,,,,0,,,58,0
7128,note_on,48,0,3,,,,,,,,,0,,,62,0
7140,note_on,12,0,3,,,,,,,,,0,,,60,69
7176,note_on,96,0,4,,,,,,,,,0,,,54,0
7188,note_on,48,0,3,,,,,,,,,0,,,60,0
7200,note_on,24,0,4,,,,,,,,,0,,,55,80
7200,note_on,2412,0,1,,,,,,,,,0,,,59,70
7248,note_on,48,0,1,,,,,,,,,0,,,59,0
7260,note_on,12,0,1,,,,,,,,,0,,,65,71
7296,note_on,96,0,4,,,,,,,,,0,,,55,0
7308,note_on,48,0,1,,,,,,,,,0,,,65,0
7320,note_on,12,0,1,,,,,,,,,0,,,64,71
7320,note_on,24,0,4,,,,,,,,,0,,,56,80
7368,note_on,48,0,1,,,,,,,,,0,,,64,0
7380,note_on,12,0,1,,,,,,,,,0,,,62,72
7416,note_on,96,0,4,,,,,,,,,0,,,56,0
7428,note_on,48,0,1,,,,,,,,,0,,,62,0
7440,note_on,24,0,4,,,,,,,,,0,,,57,80
7440,note_on,12,0,1,,,,,,,,,0,,,60,73
7488,note_on,48,0,1,,,,,,,,,0,,,60,0
7500,note_on,12,0,1,,,,,,,,,0,,,67,73
7548,note_on,48,0,1,,,,,,,,,0,,,67,0
7560,note_on,12,0,1,,,,,,,,,0,,,65,74
7560,note_on,432,0,2,,,,,,,,,0,,,61,80
7608,note_on,48,0,2,,,,,,,,,0,,,61,0
7608,note_on,48,0,1,,,,,,,,,0,,,65,0
7620,note_on,12,0,1,,,,,,,,,0,,,64,74
7632,note_on,192,0,4,,,,,,,,,0,,,57,0
7668,note_on,48,0,1,,,,,,,,,0,,,64,0
7680,note_on,48,0,4,,,,,,,,,0,,,58,80
7680,note_on,12,0,1,,,,,,,,,0,,,62,75
7728,note_on,48,0,1,,,,,,,,,0,,,62,0
7740,note_on,12,0,1,,,,,,,,,0,,,69,76
7776,note_on,96,0,4,,,,,,,,,0,,,58,0
7788,note_on,48,0,1,,,,,,,,,0,,,69,0
7800,note_on,192,0,2,,,,,,,,,0,,,63,80
7800,note_on,12,0,1,,,,,,,,,0,,,67,76
7800,note_on,24,0,4,,,,,,,,,0,,,59,80
7848,note_on,48,0,2,,,,,,,,,0,,,63,0
7848,note_on,48,0,1,,,,,,,,,0,,,67,0
7860,note_on,12,0,1,,,,,,,,,0,,,65,77
7896,note_on,96,0,4,,,,,,,,,0,,,59,0
7908,note_on,48,0,1,,,,,,,,,0,,,65,0
7920,note_on,12,0,1,,,,,,,,,0,,,64,78
7920,note_on,24,0,4,,,,,,,,,0,,,60,80
7968,note_on,48,0,1,,,,,,,,,0,,,64,0
7980,note_on,12,0,1,,,,,,,,,0,,,77,78
8016,note_on,96,0,4,,,,,,,,,0,,,60,0
8028,note_on,48,0,1,,,,,,,,,0,,,77,0
8040,note_on,0,0,4,,,,,,,,,0,,,56,80
8040,note_on,12,0,1,,,,,,,,,0,,,76,79
8040,note_on,192,0,2,,,,,,,,,0,,,71,80
8040,note_on,24,0,4,,,,,,,,,0,,,64,80
8088,note_on,48,0,1,,,,,,,,,0,,,76,0
8088,note_on,48,0,2,,,,,,,,,0,,,71,0
8100,note_on,12,0,1,,,,,,,,,0,,,74,79
8136,note_on,0,0,4,,,,,,,,,0,,,64,0
8136,note_on,96,0,4,,,,,,,,,0,,,56,0
8148,note_on,48,0,1,,,,,,,,,0,,,74,0
8160,note_on,24,0,4,,,,,,,,,0,,,57,80
8160,note_on,12,0,1,,,,,,,,,0,,,72,80
8160,note_on,0,0,4,,,,,,,,,0,,,64,80
8208,note_on,48,0,1,,,,,,,,,0,,,72,0
8220,note_on,12,0,1,,,,,,,,,0,,,81,80
8256,note_on,0,0,4,,,,,,,,,0,,,57,0
8256,note_on,96,0,4,,,,,,,,,0,,,64,0
8268,note_on,48,0,1,,,,,,,,,0,,,81,0
8280,note_on,24,0,4,,,,,,,,,0,,,67,80
8280,note_on,192,0,2,,,,,,,,,0,,,74,80
8280,note_on,0,0,4,,,,,,,,,0,,,59,80
8280,note_on,12,0,1,,,,,,,,,0,,,79,80
8328,note_on,48,0,1,,,,,,,,,0,,,79,0
8340,note_on,12,0,1,,,,,,,,,0,,,77,80
8376,note_on,0,0,4,,,,,,,,,0,,,67,0
8376,note_on,96,0,2,,,,,,,,,0,,,74,0
8376,note_on,96,0,4,,,,,,,,,0,,,59,0
8388,note_on,48,0,1,,,,,,,,,0,,,77,0
8400,note_on,0,0,4,,,,,,,,,0,,,60,80
8400,note_on,12,0,1,,,,,,,,,0,,,76,80
8400,note_on,24,0,4,,,,,,,,,0,,,67,80
8448,note_on,48,0,1,,,,,,,,,0,,,76,0
8460,note_on,12,0,1,,,,,,,,,0,,,89,80
8496,note_on,0,0,4,,,,,,,,,0,,,67,0
8496,note_on,96,0,4,,,,,,,,,0,,,60,0
8508,note_on,48,0,1,,,,,,,,,0,,,89,0
8520,note_on,0,0,4,,,,,,,,,0,,,64,80
8520,note_on,144,0,2,,,,,,,,,0,,,83,80
8520,note_on,12,0,1,,,,,,,,,0,,,88,80
8520,note_on,24,0,4,,,,,,,,,0,,,56,80
8568,note_on,48,0,1,,,,,,,,,0,,,88,0
8580,note_on,12,0,1,,,,,,,,,0,,,86,80
8616,note_on,0,0,4,,,,,,,,,0,,,56,0
8616,note_on,96,0,2,,,,,,,,,0,,,83,0
8616,note_on,96,0,4,,,,,,,,,0,,,64,0
8628,note_on,48,0,1,,,,,,,,,0,,,86,0
8640,note_on,12,0,1,,,,,,,,,0,,,84,80
8640,note_on,0,0,4,,,,,,,,,0,,,64,80
8640,note_on,24,0,4,,,,,,,,,0,,,57,80
8688,note_on,48,0,1,,,,,,,,,0,,,84,0
8700,note_on,12,0,1,,,,,,,,,0,,,93,80
8736,note_on,96,0,4,,,,,,,,,0,,,64,0
8736,note_on,0,0,4,,,,,,,,,0,,,57,0
8748,note_on,48,0,1,,,,,,,,,0,,,93,0
8760,note_on,12,0,1,,,,,,,,,0,,,91,80
8760,note_on,0,0,4,,,,,,,,,0,,,67,80
8760,note_on,144,0,2,,,,,,,,,0,,,86,80
8760,note_on,24,0,4,,,,,,,,,0,,,59,80
8808,note_on,48,0,1,,,,,,,,,0,,,91,0
8820,note_on,12,0,1,,,,,,,,,0,,,89,80
8856,note_on,96,0,4,,,,,,,,,0,,,67,0
8856,note_on,96,0,2,,,,,,,,,0,,,86,0
8856,note_on,0,0,4,,,,,,,,,0,,,59,0
8868,note_on,48,0,1,,,,,,,,,0,,,89,0
8880,note_on,12,0,1,,,,,,,,,0,,,88,80
8880,note_on,0,0,4,,,,,,,,,0,,,67,80
8880,note_on,24,0,4,,,,,,,,,0,,,60,80
8928,note_on,48,0,1,,,,,,,,,0,,,88,0
8940,note_on,12,0,1,,,,,,,,,0,,,101,80
8976,note_on,96,0,4,,,,,,,,,0,,,67,0
8976,note_on,0,0,4,,,,,,,,,0,,,60,0
8988,note_on,48,0,1,,,,,,,,,0,,,101,0
9000,note_on,24,0,4,,,,,,,,,0,,,64,80
9000,note_on,12,0,1,,,,,,,,,0,,,100,80
9000,note_on,144,0,2,,,,,,,,,0,,,95,80
9000,note_on,0,0,4,,,,,,,,,0,,,56,80
9048,note_on,48,0,1,,,,,,,,,0,,,100,0
9060,note_on,12,0,1,,,,,,,,,0,,,98,80
9096,note_on,96,0,2,,,,,,,,,0,,,95,0
9096,note_on,0,0,4,,,,,,,,,0,,,64,0
9096,note_on,96,0,4,,,,,,,,,0,,,56,0
9108,note_on,48,0,1,,,,,,,,,0,,,98,0
9120,note_on,24,0,4,,,,,,,,,0,,,64,80
9120,note_on,12,0,1,,,,,,,,,0,,,96,80
9120,note_on,0,0,4,,,,,,,,,0,,,57,80
9168,note_on,48,0,1,,,,,,,,,0,,,96,0
9180,note_on,12,0,1,,,,,,,,,0,,,105,81
9216,note_on,0,0,4,,,,,,,,,0,,,64,0
9216,note_on,96,0,4,,,,,,,,,0,,,57,0
9228,note_on,48,0,1,,,,,,,,,0,,,105,0
9240,note_on,0,0,4,,,,,,,,,0,,,59,80
9240,note_on,24,0,4,,,,,,,,,0,,,67,80
9240,note_on,12,0,1,,,,,,,,,0,,,103,83
9240,note_on,144,0,2,,,,,,,,,0,,,98,80
9288,note_on,48,0,1,,,,,,,,,0,,,103,0
9300,note_on,12,0,1,,,,,,,,,0,,,101,84
9336,note_on,0,0,4,,,,,,,,,0,,,67,0
9336,note_on,96,0,2,,,,,,,,,0,,,98,0
9336,note_on,96,0,4,,,,,,,,,0,,,59,0
9348,note_on,48,0,1,,,,,,,,,0,,,101,0
9360,note_on,24,0,4,,,,,,,,,0,,,60,80
9360,note_on,0,0,4,,,,,,,,,0,,,67,80
9360,note_on,12,0,1,,,,,,,,,0,,,100,85
9408,note_on,48,0,1,,,,,,,,,0,,,100,0
9420,note_on,12,0,1,,,,,,,,,0,,,105,86
9456,note_on,96,0,4,,,,,,,,,0,,,67,0
9456,note_on,0,0,4,,,,,,,,,0,,,60,0
9468,note_on,48,0,1,,,,,,,,,0,,,105,0
9480,note_on,24,0,4,,,,,,,,,0,,,55,80
9480,note_on,144,0,2,,,,,,,,,0,,,91,80
9480,note_on,12,0,1,,,,,,,,,0,,,103,88
9480,note_on,0,0,4,,,,,,,,,0,,,59,80
9480,note_on,0,0,4,,,,,,,,,0,,,47,80
9480,note_on,0,0,1,,,,,,,,,0,,,98,88
9528,note_on,48,0,1,,,,,,,,,0,,,98,0
9528,note_on,0,0,1,,,,,,,,,0,,,103,0
9540,note_on,12,0,1,,,,,,,,,0,,,101,89
9576,note_on,96,0,4,,,,,,,,,0,,,47,0
9576,note_on,96,0,2,,,,,,,,,0,,,91,0
9576,note_on,0,0,4,,,,,,,,,0,,,55,0
9576,note_on,0,0,4,,,,,,,,,0,,,59,0
9588,note_on,48,0,1,,,,,,,,,0,,,101,0
9600,note_on,0,0,4,,,,,,,,,0,,,55,80
9600,note_on,12,0,1,,,,,,,,,0,,,100,90
9600,note_on,24,0,4,,,,,,,,,0,,,48,80
9600,note_on,0,0,4,,,,,,,,,0,,,60,80
9648,note_on,48,0,1,,,,,,,,,0,,,100,0
9660,note_on,12,0,1,,,,,,,,,0,,,105,91
9696,note_on,0,0,4,,,,,,,,,0,,,60,0
9696,note_on,0,0,4,,,,,,,,,0,,,48,0
9696,note_on,96,0,4,,,,,,,,,0,,,55,0
9708,note_on,48,0,1,,,,,,,,,0,,,105,0
9720,note_on,0,0,1,,,,,,,,,0,,,103,93
9720,note_on,24,0,4,,,,,,,,,0,,,43,80
9720,note_on,144,0,2,,,,,,,,,0,,,91,80
9720,note_on,0,0,4,,,,,,,,,0,,,47,80
9720,note_on,0,0,4,,,,,,,,,0,,,35,80
9720,note_on,12,0,1,,,,,,,,,0,,,98,93
9768,note_on,48,0,1,,,,,,,,,0,,,103,0
9768,note_on,0,0,1,,,,,,,,,0,,,98,0
9780,note_on,12,0,1,,,,,,,,,0,,,101,94
9816,note_on,0,0,4,,,,,,,,,0,,,43,0
9816,note_on,0,0,4,,,,,,,,,0,,,47,0
9816,note_on,96,0,4,,,,,,,,,0,,,35,0
9816,note_on,96,0,2,,,,,,,,,0,,,91,0
9828,note_on,48,0,1,,,,,,,,,0,,,101,0
9840,note_on,0,0,4,,,,,,,,,0,,,43,80
9840,note_on,0,0,4,,,,,,,,,0,,,48,80
9840,note_on,12,0,1,,,,,,,,,0,,,100,95
9840,note_on,24,0,2,,,,,,,,,0,,,91,80
9840,note_on,24,0,4,,,,,,,,,0,,,36,80
9888,note_on,48,0,1,,,,,,,,,0,,,100,0
9900,note_on,12,0,1,,,,,,,,,0,,,105,96
9936,note_on,0,0,4,,,,,,,,,0,,,43,0
9936,note_on,0,0,4,,,,,,,,,0,,,36,0
9936,note_on,96,0,2,,,,,,,,,0,,,91,0
9936,note_on,96,0,4,,,,,,,,,0,,,48,0
9948,note_on,48,0,1,,,,,,,,,0,,,105,0
9960,note_on,0,0,4,,,,,,,,,0,,,47,80
9960,note_on,24,0,2,,,,,,,,,0,,,91,80
9960,note_on,0,0,1,,,,,,,,,0,,,103,98
9960,note_on,24,0,4,,,,,,,,,0,,,43,80
9960,note_on,12,0,1,,,,,,,,,0,,,98,98
9960,note_on,0,0,4,,,,,,,,,0,,,35,80
10008,note_on,48,0,1,,,,,,,,,0,,,103,0
10008,note_on,0,0,1,,,,,,,,,0,,,98,0
10020,note_on,12,0,1,,,,,,,,,0,,,101,99
10056,note_on,0,0,4,,,,,,,,,0,,,47,0
10056,note_on,96,0,2,,,,,,,,,0,,,91,0
10056,note_on,96,0,4,,,,,,,,,0,,,35,0
10056,note_on,0,0,4,,,,,,,,,0,,,43,0
10068,note_on,48,0,1,,,,,,,,,0,,,101,0
10080,note_on,24,0,4,,,,,,,,,0,,,48,80
10080,note_on,0,0,4,,,,,,,,,0,,,36,80
10080,note_on,12,0,1,,,,,,,,,0,,,88,100
10080,note_on,0,0,1,,,,,,,,,0,,,100,100
10080,note_on,0,0,4,,,,,,,,,0,,,43,80
10176,note_on,96,0,1,,,,,,,,,0,,,100,0
10176,note_on,96,0,4,,,,,,,,,0,,,36,0
10176,note_on,0,0,4,,,,,,,,,0,,,48,0
10176,note_on,0,0,4,,,,,,,,,0,,,43,0
10176,note_on,0,0,1,,,,,,,,,0,,,88,0
10320,note_on,144,0,1,,,,,,,,,0,,,64,80
10320,note_on,0,0,1,,,,,,,,,0,,,76,80
10320,note_on,0,0,4,,,,,,,,,0,,,52,80
10320,note_on,0,0,1,,,,,,,,,0,,,67,80
10320,note_on,0,0,4,,,,,,,,,0,,,46,80
10320,note_on,144,0,4,,,,,,,,,0,,,58,80
10320,note_on,0,0,4,,,,,,,,,0,,,55,80
10320,note_on,0,0,4,,,,,,,,,0,,,49,80
10320,note_on,0,0,1,,,,,,,,,0,,,73,80
10416,note_on,0,0,1,,,,,,,,,0,,,64,0
10416,note_on,0,0,1,,,,,,,,,0,,,67,0
10416,note_on,0,0,1,,,,,,,,,0,,,76,0
10416,note_on,96,0,4,,,,,,,,,0,,,55,0
10416,note_on,96,0,1,,,,,,,,,0,,,73,0
10416,note_on,0,0,4,,,,,,,,,0,,,46,0
10416,note_on,0,0,4,,,,,,,,,0,,,49,0
10416,note_on,0,0,4,,,,,,,,,0,,,52,0
10416,note_on,0,0,4,,,,,,,,,0,,,58,0
10560,note_on,144,0,4,,,,,,,,,0,,,53,80
10560,note_on,144,0,1,,,,,,,,,0,,,65,80
10560,note_on,0,0,1,,,,,,,,,0,,,77,80
10560,note_on,0,0,1,,,,,,,,,0,,,73,80
10560,note_on,0,0,1,,,,,,,,,0,,,68,80
10560,note_on,0,0,4,,,,,,,,,0,,,44,80
10560,note_on,0,0,4,,,,,,,,,0,,,56,80
10560,note_on,0,0,4,,,,,,,,,0,,,49,80
10656,note_on,0,0,4,,,,,,,,,0,,,49,0
10656,note_on,96,0,1,,,,,,,,,0,,,77,0
10656,note_on,0,0,1,,,,,,,,,0,,,73,0
10656,note_on,0,0,4,,,,,,,,,0,,,53,0
10656,note_on,0,0,1,,,,,,,,,0,,,65,0
10656,note_on,0,0,4,,,,,,,,,0,,,56,0
10656,note_on,96,0,4,,,,,,,,,0,,,44,0
10656,note_on,0,0,1,,,,,,,,,0,,,68,0
10800,note_on,0,0,4,,,,,,,,,0,,,42,80
10800,note_on,0,0,4,,,,,,,,,0,,,54,80
10800,note_on,0,0,4,,,,,,,,,0,,,51,80
10800,note_on,144,0,4,,,,,,,,,0,,,48,80
10800,note_on,0,0,1,,,,,,,,,0,,,68,80
10800,note_on,0,0,1,,,,,,,,,0,,,72,80
10800,note_on,0,0,1,,,,,,,,,0,,,75,80
10800,note_on,144,0,1,,,,,,,,,0,,,80,80
10896,note_on,96,0,1,,,,,,,,,0,,,72,0
10896,note_on,0,0,4,,,,,,,,,0,,,51,0
10896,note_on,0,0,1,,,,,,,,,0,,,68,0
10896,note_on,0,0,1,,,,,,,,,0,,,75,0
10896,note_on,0,0,1,,,,,,,,,0,,,80,0
10896,note_on,96,0,4,,,,,,,,,0,,,54,0
10896,note_on,0,0,4,,,,,,,,,0,,,48,0
10896,note_on,0,0,4,,,,,,,,,0,,,42,0
11040,note_on,0,0,1,,,,,,,,,0,,,73,80
11040,note_on,0,0,1,,,,,,,,,0,,,80,80
11040,note_on,0,0,1,,,,,,,,,0,,,77,80
11040,note_on,0,0,4,,,,,,,,,0,,,41,80
11040,note_on,144,0,4,,,,,,,,,0,,,53,80
11040,note_on,144,0,1,,,,,,,,,0,,,85,80
11040,note_on,0,0,4,,,,,,,,,0,,,44,80
11040,note_on,0,0,4,,,,,,,,,0,,,49,80
11136,note_on,0,0,1,,,,,,,,,0,,,85,0
11136,note_on,96,0,1,,,,,,,,,0,,,80,0
11136,note_on,0,0,1,,,,,,,,,0,,,77,0
11136,note_on,0,0,1,,,,,,,,,0,,,73,0
11136,note_on,96,0,4,,,,,,,,,0,,,41,0
11136,note_on,0,0,4,,,,,,,,,0,,,44,0
11136,note_on,0,0,4,,,,,,,,,0,,,49,0
11136,note_on,0,0,4,,,,,,,,,0,,,53,0
11280,note_on,0,0,4,,,,,,,,,0,,,40,80
11280,note_on,0,0,1,,,,,,,,,0,,,82,80
11280,note_on,144,0,1,,,,,,,,,0,,,78,80
11280,note_on,0,0,1,,,,,,,,,0,,,85,80
11280,note_on,0,0,4,,,,,,,,,0,,,49,80
11280,note_on,0,0,4,,,,,,,,,0,,,52,80
11280,note_on,0,0,1,,,,,,,,,0,,,90,80
11280,note_on,144,0,4,,,,,,,,,0,,,46,80
11376,note_on,0,0,4,,,,,,,,,0,,,52,0
11376,note_on,0,0,4,,,,,,,,,0,,,46,0
11376,note_on,0,0,4,,,,,,,,,0,,,40,0
11376,note_on,96,0,1,,,,,,,,,0,,,82,0
11376,note_on,96,0,4,,,,,,,,,0,,,49,0
11376,note_on,0,0,1,,,,,,,,,0,,,85,0
11376,note_on,0,0,1,,,,,,,,,0,,,78,0
11376,note_on,0,0,1,,,,,,,,,0,,,90,0
11520,note_on,0,0,4,,,,,,,,,0,,,39,80
11520,note_on,144,0,1,,,,,,,,,0,,,90,80
11520,note_on,0,0,1,,,,,,,,,0,,,95,80
11520,note_on,144,0,4,,,,,,,,,0,,,51,80
11520,note_on,0,0,4,,,,,,,,,0,,,42,80
11520,note_on,0,0,1,,,,,,,,,0,,,83,80
11520,note_on,0,0,1,,,,,,,,,0,,,87,80
11520,note_on,0,0,4,,,,,,,,,0,,,47,80
11616,note_on,0,0,1,,,,,,,,,0,,,87,0
11616,note_on,96,0,4,,,,,,,,,0,,,39,0
11616,note_on,0,0,4,,,,,,,,,0,,,51,0
11616,note_on,0,0,1,,,,,,,,,0,,,90,0
11616,note_on,0,0,4,,,,,,,,,0,,,47,0
11616,note_on,0,0,4,,,,,,,,,0,,,42,0
11616,note_on,96,0,1,,,,,,,,,0,,,95,0
11616,note_on,0,0,1,,,,,,,,,0,,,83,0
11760,note_on,144,0,4,,,,,,,,,0,,,47,80
11760,note_on,0,0,1,,,,,,,,,0,,,92,80
11760,note_on,144,0,1,,,,,,,,,0,,,100,80
11760,note_on,0,0,1,,,,,,,,,0,,,95,80
11760,note_on,0,0,1,,,,,,,,,0,,,88,80
11760,note_on,0,0,4,,,,,,,,,0,,,50,80
11760,note_on,0,0,4,,,,,,,,,0,,,44,80
11760,note_on,0,0,4,,,,,,,,,0,,,38,80
11856,note_on,96,0,1,,,,,,,,,0,,,88,0
11856,note_on,0,0,1,,,,,,,,,0,,,100,0
11856,note_on,0,0,1,,,,,,,,,0,,,95,0
11856,note_on,96,0,4,,,,,,,,,0,,,38,0
11856,note_on,0,0,4,,,,,,,,,0,,,50,0
11856,note_on,0,0,1,,,,,,,,,0,,,92,0
11856,note_on,0,0,4,,,,,,,,,0,,,47,0
11856,note_on,0,0,4,,,,,,,,,0,,,44,0
12000,note_on,144,0,1,,,,,,,,,0,,,93,80
12000,note_on,0,0,4,,,,,,,,,0,,,45,80
12000,note_on,0,0,4,,,,,,,,,0,,,40,80
12000,note_on,0,0,4,,,,,,,,,0,,,49,80
12000,note_on,0,0,1,,,,,,,,,0,,,81,80
12000,note_on,0,0,1,,,,,,,,,0,,,88,80
12000,note_on,144,0,4,,,,,,,,,0,,,37,80
12192,note_on,192,0,4,,,,,,,,,0,,,45,0
12192,note_on,0,0,4,,,,,,,,,0,,,37,0
12192,note_on,0,0,4,,,,,,,,,0,,,40,0
12192,note_on,192,0,1,,,,,,,,,0,,,81,0
12192,note_on,0,0,4,,,,,,,,,0,,,49,0
12192,note_on,0,0,1,,,,,,,,,0,,,93,0
12192,note_on,0,0,1,,,,,,,,,0,,,88,0
12480,note_on,0,0,1,,,,,,,,,0,,,98,80
12480,note_on,0,0,1,,,,,,,,,0,,,101,80
12480,note_on,0,0,1,,,,,,,,,0,,,89,80
12480,note_on,0,0,4,,,,,,,,,0,,,41,80
12480,note_on,0,0,4,,,,,,,,,0,,,45,80
12480,note_on,0,0,4,,,,,,,,,0,,,50,80
12480,note_on,288,0,1,,,,,,,,,0,,,93,80
12480,note_on,288,0,4,,,,,,,,,0,,,38,80
12672,note_on,0,0,4,,,,,,,,,0,,,45,0
12672,note_on,0,0,4,,,,,,,,,0,,,38,0
12672,note_on,192,0,1,,,,,,,,,0,,,98,0
12672,note_on,0,0,4,,,,,,,,,0,,,41,0
12672,note_on,0,0,1,,,,,,,,,0,,,89,0
12672,note_on,0,0,1,,,,,,,,,0,,,93,0
12672,note_on,0,0,1,,,,,,,,,0,,,101,0
12672,note_on,192,0,4,,,,,,,,,0,,,50,0
12960,control_change,288,0,4,,,,,,,,,0,64,127,,
12960,note_on,0,0,2,,,,,,,,,0,,,53,80
12960,note_on,0,0,2,,,,,,,,,0,,,60,80
12960,note_on,0,0,4,,,,,,,,,0,,,46,80
12960,note_on,2904,0,2,,,,,,,,,0,,,62,80
12961,set_tempo,7681,1,0,,,,,,375000,,,,,,,
12982,set_tempo,21,1,0,,,,,,376412,,,,,,,
13004,set_tempo,22,1,0,,,,,,377834,,,,,,,
13008,note_on,48,0,4,,,,,,,,,0,,,46,0
13020,note_on,12,0,4,,,,,,,,,0,,,44,80
13025,set_tempo,21,1,0,,,,,,379267,,,,,,,
13045,set_tempo,20,1,0,,,,,,380711,,,,,,,
13066,set_tempo,21,1,0,,,,,,382166,,,,,,,
13068,note_on,48,0,4,,,,,,,,,0,,,44,0
13080,note_on,12,0,4,,,,,,,,,0,,,46,80
13088,set_tempo,22,1,0,,,,,,383632,,,,,,,
13107,set_tempo,19,1,0,,,,,,385109,,,,,,,
13118,note_on,38,0,4,,,,,,,,,0,,,46,0
13120,note_on,2,0,4,,,,,,,,,0,,,44,80
13129,set_tempo,22,1,0,,,,,,386598,,,,,,,
13150,set_tempo,21,1,0,,,,,,388098,,,,,,,
13158,note_on,38,0,4,,,,,,,,,0,,,44,0
13160,note_on,2,0,4,,,,,,,,,0,,,46,80
13169,set_tempo,19,1,0,,,,,,389610,,,,,,,
13191,set_tempo,22,1,0,,,,,,391134,,,,,,,
13198,note_on,38,0,4,,,,,,,,,0,,,46,0
13200,note_on,2,0,4,,,,,,,,,0,,,44,80
13213,set_tempo,22,1,0,,,,,,392670,,,,,,,
13232,set_tempo,19,1,0,,,,,,394218,,,,,,,
13245,note_on,45,0,4,,,,,,,,,0,,,44,0
13248,note_on,3,0,4,,,,,,,,,0,,,46,80
13253,set_tempo,21,1,0,,,,,,395778,,,,,,,
13275,set_tempo,22,1,0,,,,,,397351,,,,,,,
13293,note_on,45,0,4,,,,,,,,,0,,,46,0
13294,set_tempo,19,1,0,,,,,,398936,,,,,,,
13296,note_on,3,0,4,,,,,,,,,0,,,44,80
13316,set_tempo,22,1,0,,,,,,400534,,,,,,,
13337,set_tempo,21,1,0,,,,,,402145,,,,,,,
13341,note_on,45,0,4,,,,,,,,,0,,,44,0
13344,note_on,3,0,4,,,,,,,,,0,,,46,80
13357,set_tempo,20,1,0,,,,,,403769,,,,,,,
13378,set_tempo,21,1,0,,,,,,405405,,,,,,,
13389,note_on,45,0,4,,,,,,,,,0,,,46,0
13392,note_on,3,0,4,,,,,,,,,0,,,44,80
13400,set_tempo,22,1,0,,,,,,407056,,,,,,,
13419,set_tempo,19,1,0,,,,,,408719,,,,,,,
13437,note_on,45,0,4,,,,,,,,,0,,,44,0
13440,note_on,3,0,4,,,,,,,,,0,,,46,80
13441,set_tempo,22,1,0,,,,,,410397,,,,,,,
13462,set_tempo,21,1,0,,,,,,412088,,,,,,,
13481,set_tempo,19,1,0,,,,,,413793,,,,,,,
13485,note_on,45,0,4,,,,,,,,,0,,,46,0
13488,note_on,3,0,4,,,,,,,,,0,,,44,80
13503,set_tempo,22,1,0,,,,,,415512,,,,,,,
13525,set_tempo,22,1,0,,,,,,417246,,,,,,,
13533,note_on,45,0,4,,,,,,,,,0,,,44,0
13536,note_on,3,0,4,,,,,,,,,0,,,46,80
13544,set_tempo,19,1,0,,,,,,418994,,,,,,,
13565,set_tempo,21,1,0,,,,,,420757,,,,,,,
13581,note_on,45,0,4,,,,,,,,,0,,,46,0
13584,note_on,3,0,4,,,,,,,,,0,,,44,80
13587,set_tempo,22,1,0,,,,,,422535,,,,,,,
13606,set_tempo,19,1,0,,,,,,424328,,,,,,,
13628,set_tempo,22,1,0,,,,,,426136,,,,,,,
13629,note_on,45,0,4,,,,,,,,,0,,,44,0
13632,note_on,3,0,4,,,,,,,,,0,,,46,80
13649,set_tempo,21,1,0,,,,,,427960,,,,,,,
13669,set_tempo,20,1,0,,,,,,429799,,,,,,,
13677,note_on,45,0,4,,,,,,,,,0,,,46,0
13680,note_on,3,0,4,,,,,,,,,0,,,44,80
13690,set_tempo,21,1,0,,,,,,431655,,,,,,,
13712,set_tempo,22,1,0,,,,,,433526,,,,,,,
13725,note_on,45,0,4,,,,,,,,,0,,,44,0
13728,note_on,3,0,4,,,,,,,,,0,,,46,80
13728,note_on,768,0,2,,,,,,,,,0,,,60,0
13728,note_on,0,0,2,,,,,,,,,0,,,53,0
13728,note_on,0,0,2,,,,,,,,,0,,,62,0
13731,set_tempo,19,1,0,,,,,,435414,,,,,,,
13753,set_tempo,22,1,0,,,,,,437318,,,,,,,
13773,note_on,45,0,4,,,,,,,,,0,,,46,0
13774,set_tempo,21,1,0,,,,,,439239,,,,,,,
13776,note_on,3,0,4,,,,,,,,,0,,,44,80
13793,set_tempo,19,1,0,,,,,,441176,,,,,,,
13815,set_tempo,22,1,0,,,,,,443131,,,,,,,
13821,note_on,45,0,4,,,,,,,,,0,,,44,0
13824,note_on,3,0,4,,,,,,,,,0,,,46,80
13837,set_tempo,22,1,0,,,,,,445104,,,,,,,
13856,set_tempo,19,1,0,,,,,,447094,,,,,,,
13869,note_on,45,0,4,,,,,,,,,0,,,46,0
13872,note_on,3,0,4,,,,,,,,,0,,,44,80
13877,set_tempo,21,1,0,,,,,,449102,,,,,,,
13899,set_tempo,22,1,0,,,,,,451128,,,,,,,
13917,note_on,45,0,4,,,,,,,,,0,,,44,0
13918,set_tempo,19,1,0,,,,,,453172,,,,,,,
13920,note_on,6732,0,3,,,,,,,,,0,,,45,80
13920,note_on,1248,0,1,,,,,,,,,0,,,53,80
13920,note_on,0,0,1,,,,,,,,,0,,,67,80
13920,note_on,0,0,1,,,,,,,,,0,,,62,80
13920,note_on,0,0,1,,,,,,,,,0,,,59,80
13920,note_on,0,0,1,,,,,,,,,0,,,55,80
13920,control_change,3,0,4,,,,,,,,,0,64,0,,
13920,set_tempo,2,1,0,,,,,,618557,,,,,,,
13943,control_change,23,0,4,,,,,,,,,0,64,127,,
13944,note_on,24,0,3,,,,,,,,,0,,,45,0
13950,note_on,6,0,3,,,,,,,,,0,,,43,80
13974,note_on,24,0,3,,,,,,,,,0,,,43,0
13980,note_on,6,0,3,,,,,,,,,0,,,45,80
14004,note_on,24,0,3,,,,,,,,,0,,,45,0
14010,note_on,6,0,3,,,,,,,,,0,,,43,80
14034,note_on,24,0,3,,,,,,,,,0,,,43,0
14040,note_on,6,0,3,,,,,,,,,0,,,45,80
14064,note_on,24,0,3,,,,,,,,,0,,,45,0
14070,note_on,6,0,3,,,,,,,,,0,,,43,80
14094,note_on,24,0,3,,,,,,,,,0,,,43,0
14100,note_on,6,0,3,,,,,,,,,0,,,45,80
14124,note_on,24,0,3,,,,,,,,,0,,,45,0
14130,note_on,6,0,3,,,,,,,,,0,,,43,80
14154,note_on,24,0,3,,,,,,,,,0,,,43,0
14160,control_change,217,0,4,,,,,,,,,0,64,0,,
14160,note_on,6,0,3,,,,,,,,,0,,,43,80
14181,control_change,21,0,4,,,,,,,,,0,64,127,,
14184,note_on,24,0,3,,,,,,,,,0,,,43,0
14190,note_on,6,0,3,,,,,,,,,0,,,41,80
14214,note_on,24,0,3,,,,,,,,,0,,,41,0
14220,note_on,6,0,3,,,,,,,,,0,,,43,80
14244,note_on,24,0,3,,,,,,,,,0,,,43,0
14250,note_on,6,0,3,,,,,,,,,0,,,41,80
14274,note_on,24,0,3,,,,,,,,,0,,,41,0
14280,note_on,6,0,3,,,,,,,,,0,,,43,80
14304,note_on,24,0,3,,,,,,,,,0,,,43,0
14310,note_on,6,0,3,,,,,,,,,0,,,41,80
14334,note_on,24,0,3,,,,,,,,,0,,,41,0
14340,note_on,6,0,3,,,,,,,,,0,,,43,80
14364,note_on,24,0,3,,,,,,,,,0,,,43,0
14370,note_on,6,0,3,,,,,,,,,0,,,41,80
14377,control_change,196,0,4,,,,,,,,,0,64,0,,
14394,note_on,24,0,3,,,,,,,,,0,,,41,0
14400,note_on,6,0,3,,,,,,,,,0,,,40,80
14402,control_change,25,0,4,,,,,,,,,0,64,127,,
14424,note_on,24,0,3,,,,,,,,,0,,,40,0
14430,note_on,6,0,3,,,,,,,,,0,,,38,80
14454,note_on,24,0,3,,,,,,,,,0,,,38,0
14460,note_on,6,0,3,,,,,,,,,0,,,40,80
14484,note_on,24,0,3,,,,,,,,,0,,,40,0
14490,note_on,6,0,3,,,,,,,,,0,,,38,80
14514,note_on,24,0,3,,,,,,,,,0,,,38,0
14520,note_on,6,0,3,,,,,,,,,0,,,40,80
14544,note_on,24,0,3,,,,,,,,,0,,,40,0
14550,note_on,6,0,3,,,,,,,,,0,,,38,80
14574,note_on,24,0,3,,,,,,,,,0,,,38,0
14580,note_on,6,0,3,,,,,,,,,0,,,40,80
14604,note_on,24,0,3,,,,,,,,,0,,,40,0
14610,note_on,6,0,3,,,,,,,,,0,,,38,80
14634,note_on,24,0,3,,,,,,,,,0,,,38,0
14638,control_change,236,0,4,,,,,,,,,0,64,0,,
14640,note_on,6,0,3,,,,,,,,,0,,,36,80
14664,note_on,24,0,3,,,,,,,,,0,,,36,0
14668,control_change,30,0,4,,,,,,,,,0,64,127,,
14670,note_on,6,0,3,,,,,,,,,0,,,35,80
14694,note_on,24,0,3,,,,,,,,,0,,,35,0
14700,note_on,6,0,3,,,,,,,,,0,,,36,80
14724,note_on,24,0,3,,,,,,,,,0,,,36,0
14730,note_on,6,0,3,,,,,,,,,0,,,35,80
14754,note_on,24,0,3,,,,,,,,,0,,,35,0
14760,note_on,6,0,3,,,,,,,,,0,,,36,80
14784,note_on,24,0,3,,,,,,,,,0,,,36,0
14790,note_on,6,0,3,,,,,,,,,0,,,35,80
14814,note_on,24,0,3,,,,,,,,,0,,,35,0
14820,note_on,6,0,3,,,,,,,,,0,,,36,80
14844,note_on,24,0,3,,,,,,,,,0,,,36,0
14850,note_on,6,0,3,,,,,,,,,0,,,35,80
14874,note_on,24,0,3,,,,,,,,,0,,,35,0
14880,note_on,0,0,4,,,,,,,,,0,,,33,80
14880,control_change,212,0,4,,,,,,,,,0,64,0,,
14915,control_change,35,0,4,,,,,,,,,0,64,127,,
14928,note_on,13,0,4,,,,,,,,,0,,,33,0
14940,note_on,12,0,4,,,,,,,,,0,,,31,80
14988,note_on,48,0,4,,,,,,,,,0,,,31,0
15000,note_on,12,0,4,,,,,,,,,0,,,33,80
15032,note_on,32,0,4,,,,,,,,,0,,,33,0
15040,note_on,8,0,4,,,,,,,,,0,,,31,80
15072,note_on,0,0,1,,,,,,,,,0,,,59,0
15072,note_on,32,0,4,,,,,,,,,0,,,31,0
15072,note_on,0,0,1,,,,,,,,,0,,,67,0
15072,note_on,1152,0,1,,,,,,,,,0,,,55,0
15072,note_on,0,0,1,,,,,,,,,0,,,62,0
15072,note_on,0,0,1,,,,,,,,,0,,,53,0
15080,note_on,8,0,4,,,,,,,,,0,,,33,80
15112,note_on,32,0,4,,,,,,,,,0,,,33,0
15120,note_on,8,0,4,,,,,,,,,0,,,31,80
15165,note_on,45,0,4,,,,,,,,,0,,,31,0
15168,note_on,3,0,4,,,,,,,,,0,,,33,80
15213,note_on,45,0,4,,,,,,,,,0,,,33,0
15216,note_on,3,0,4,,,,,,,,,0,,,31,80
15261,note_on,45,0,4,,,,,,,,,0,,,31,0
15264,note_on,3,0,4,,,,,,,,,0,,,33,80
15309,note_on,45,0,4,,,,,,,,,0,,,33,0
15312,note_on,3,0,4,,,,,,,,,0,,,31,80
15456,note_on,144,0,4,,,,,,,,,0,,,31,0
15480,note_on,24,0,4,,,,,,,,,0,,,30,80
15528,note_on,48,0,4,,,,,,,,,0,,,30,0
15540,note_on,12,0,4,,,,,,,,,0,,,31,80
15588,note_on,48,0,4,,,,,,,,,0,,,31,0
15600,note_on,12,0,4,,,,,,,,,0,,,32,80
15648,note_on,48,0,4,,,,,,,,,0,,,32,0
15660,note_on,12,0,4,,,,,,,,,0,,,33,80
15708,note_on,48,0,4,,,,,,,,,0,,,33,0
15720,note_on,12,0,4,,,,,,,,,0,,,34,80
15768,note_on,48,0,4,,,,,,,,,0,,,34,0
15780,note_on,12,0,4,,,,,,,,,0,,,35,80
15828,note_on,48,0,4,,,,,,,,,0,,,35,0
15828,control_change,0,0,4,,,,,,,,,0,64,0,,
15833,set_tempo,1913,1,0,,,,,,370828,,,,,,,
15835,set_tempo,2,1,0,,,,,,370828,,,,,,,
15840,note_on,12,0,4,,,,,,,,,0,,,36,80
15865,control_change,25,0,4,,,,,,,,,0,64,127,,
15900,note_on,1026,0,3,,,,,,,,,0,,,40,80
15948,note_on,48,0,3,,,,,,,,,0,,,40,0
15960,note_on,12,0,3,,,,,,,,,0,,,43,80
16008,note_on,48,0,3,,,,,,,,,0,,,43,0
16020,note_on,12,0,3,,,,,,,,,0,,,48,80
16032,note_on,167,0,4,,,,,,,,,0,,,36,0
16068,note_on,48,0,3,,,,,,,,,0,,,48,0
16080,note_on,12,0,3,,,,,,,,,0,,,52,80
16128,note_on,48,0,3,,,,,,,,,0,,,52,0
16140,note_on,12,0,3,,,,,,,,,0,,,55,80
16188,note_on,48,0,3,,,,,,,,,0,,,55,0
16200,note_on,12,0,3,,,,,,,,,0,,,60,80
16248,note_on,48,0,3,,,,,,,,,0,,,60,0
16260,note_on,12,0,3,,,,,,,,,0,,,64,80
16260,note_on,228,0,4,,,,,,,,,0,,,56,80
16280,note_on,20,0,4,,,,,,,,,0,,,59,80
16300,note_on,20,0,4,,,,,,,,,0,,,62,80
16308,note_on,48,0,3,,,,,,,,,0,,,64,0
16320,note_on,20,0,4,,,,,,,,,0,,,68,80
16320,note_on,0,0,4,,,,,,,,,0,,,65,80
16325,control_change,5,0,4,,,,,,,,,0,64,0,,
16368,control_change,43,0,4,,,,,,,,,0,64,127,,
16380,note_on,2652,0,2,,,,,,,,,0,,,71,80
16428,note_on,48,0,2,,,,,,,,,0,,,71,0
16440,note_on,12,0,2,,,,,,,,,0,,,74,80
16488,note_on,48,0,2,,,,,,,,,0,,,74,0
16500,note_on,12,0,2,,,,,,,,,0,,,80,80
16512,note_on,0,0,4,,,,,,,,,0,,,56,0
16512,note_on,144,0,4,,,,,,,,,0,,,68,0
16548,note_on,48,0,2,,,,,,,,,0,,,80,0
16560,note_on,12,0,2,,,,,,,,,0,,,79,80
16560,note_on,0,0,4,,,,,,,,,0,,,55,80
16560,note_on,48,0,4,,,,,,,,,0,,,67,80
16608,note_on,48,0,2,,,,,,,,,0,,,79,0
16620,note_on,12,0,2,,,,,,,,,0,,,83,80
16668,note_on,48,0,2,,,,,,,,,0,,,83,0
16680,note_on,12,0,2,,,,,,,,,0,,,86,80
16728,note_on,48,0,2,,,,,,,,,0,,,86,0
16740,note_on,12,0,2,,,,,,,,,0,,,91,80
16752,note_on,0,0,4,,,,,,,,,0,,,65,0
16752,note_on,0,0,4,,,,,,,,,0,,,59,0
16752,note_on,0,0,4,,,,,,,,,0,,,67,0
16752,note_on,192,0,4,,,,,,,,,0,,,55,0
16752,note_on,0,0,4,,,,,,,,,0,,,62,0
16788,note_on,48,0,2,,,,,,,,,0,,,91,0
16800,note_on,0,0,4,,,,,,,,,0,,,36,80
16800,control_change,48,0,4,,,,,,,,,0,64,0,,
16828,control_change,28,0,4,,,,,,,,,0,64,127,,
16860,note_on,552,0,3,,,,,,,,,0,,,40,80
16908,note_on,48,0,3,,,,,,,,,0,,,40,0
16920,note_on,12,0,3,,,,,,,,,0,,,43,80
16968,note_on,48,0,3,,,,,,,,,0,,,43,0
16980,note_on,12,0,3,,,,,,,,,0,,,48,80
16992,note_on,164,0,4,,,,,,,,,0,,,36,0
17028,note_on,48,0,3,,,,,,,,,0,,,48,0
17040,note_on,12,0,3,,,,,,,,,0,,,52,80
17088,note_on,48,0,3,,,,,,,,,0,,,52,0
17100,note_on,12,0,3,,,,,,,,,0,,,55,80
17148,note_on,48,0,3,,,,,,,,,0,,,55,0
17160,note_on,12,0,3,,,,,,,,,0,,,60,80
17208,note_on,48,0,3,,,,,,,,,0,,,60,0
17220,note_on,228,0,4,,,,,,,,,0,,,56,80
17220,note_on,12,0,3,,,,,,,,,0,,,64,80
17240,note_on,20,0,4,,,,,,,,,0,,,59,80
17260,note_on,20,0,4,,,,,,,,,0,,,62,80
17268,note_on,48,0,3,,,,,,,,,0,,,64,0
17280,note_on,20,0,4,,,,,,,,,0,,,65,80
17280,note_on,0,0,4,,,,,,,,,0,,,68,80
17287,control_change,7,0,4,,,,,,,,,0,64,0,,
17317,control_change,30,0,4,,,,,,,,,0,64,127,,
17340,note_on,552,0,2,,,,,,,,,0,,,71,80
17388,note_on,48,0,2,,,,,,,,,0,,,71,0
17400,note_on,12,0,2,,,,,,,,,0,,,74,80
17448,note_on,48,0,2,,,,,,,,,0,,,74,0
17460,note_on,12,0,2,,,,,,,,,0,,,80,80
17472,note_on,0,0,4,,,,,,,,,0,,,56,0
17472,note_on,155,0,4,,,,,,,,,0,,,68,0
17508,note_on,48,0,2,,,,,,,,,0,,,80,0
17520,note_on,0,0,4,,,,,,,,,0,,,55,80
17520,note_on,12,0,2,,,,,,,,,0,,,79,80
17520,note_on,48,0,4,,,,,,,,,0,,,67,80
17568,note_on,48,0,2,,,,,,,,,0,,,79,0
17580,note_on,12,0,2,,,,,,,,,0,,,83,80
17628,note_on,48,0,2,,,,,,,,,0,,,83,0
17640,note_on,12,0,2,,,,,,,,,0,,,86,80
17688,note_on,48,0,2,,,,,,,,,0,,,86,0
17700,note_on,12,0,2,,,,,,,,,0,,,91,80
17712,note_on,0,0,4,,,,,,,,,0,,,59,0
17712,note_on,0,0,4,,,,,,,,,0,,,62,0
17712,note_on,192,0,4,,,,,,,,,0,,,55,0
17712,note_on,0,0,4,,,,,,,,,0,,,65,0
17712,note_on,0,0,4,,,,,,,,,0,,,67,0
17748,note_on,48,0,2,,,,,,,,,0,,,91,0
17756,set_tempo,1921,1,0,,,,,,373599,,,,,,,
17760,control_change,48,0,4,,,,,,,,,0,64,0,,
17760,note_on,0,0,4,,,,,,,,,0,,,36,80
17787,set_tempo,31,1,0,,,,,,372208,,,,,,,
17806,control_change,46,0,4,,,,,,,,,0,64,127,,
17816,set_tempo,29,1,0,,,,,,370828,,,,,,,
17820,note_on,552,0,3,,,,,,,,,0,,,40,80
17847,set_tempo,31,1,0,,,,,,369458,,,,,,,
17868,note_on,48,0,3,,,,,,,,,0,,,40,0
17876,set_tempo,29,1,0,,,,,,368098,,,,,,,
17880,note_on,12,0,3,,,,,,,,,0,,,43,80
17907,set_tempo,31,1,0,,,,,,366748,,,,,,,
17928,note_on,48,0,3,,,,,,,,,0,,,43,0
17936,set_tempo,29,1,0,,,,,,365408,,,,,,,
17940,note_on,12,0,3,,,,,,,,,0,,,48,80
17952,note_on,146,0,4,,,,,,,,,0,,,36,0
17967,set_tempo,31,1,0,,,,,,364078,,,,,,,
17988,note_on,48,0,3,,,,,,,,,0,,,48,0
17996,set_tempo,29,1,0,,,,,,362757,,,,,,,
18000,note_on,12,0,3,,,,,,,,,0,,,52,80
18027,set_tempo,31,1,0,,,,,,361446,,,,,,,
18048,note_on,48,0,3,,,,,,,,,0,,,52,0
18056,set_tempo,29,1,0,,,,,,360144,,,,,,,
18060,note_on,12,0,3,,,,,,,,,0,,,55,80
18087,set_tempo,31,1,0,,,,,,358852,,,,,,,
18108,note_on,48,0,3,,,,,,,,,0,,,55,0
18116,set_tempo,29,1,0,,,,,,357569,,,,,,,
18120,note_on,12,0,3,,,,,,,,,0,,,60,80
18147,set_tempo,31,1,0,,,,,,356295,,,,,,,
18168,note_on,48,0,3,,,,,,,,,0,,,60,0
18176,set_tempo,29,1,0,,,,,,355030,,,,,,,
18180,note_on,12,0,3,,,,,,,,,0,,,64,80
18207,set_tempo,31,1,0,,,,,,353774,,,,,,,
18228,note_on,48,0,3,,,,,,,,,0,,,64,0
18231,control_change,279,0,4,,,,,,,,,0,64,0,,
18236,set_tempo,29,1,0,,,,,,352526,,,,,,,
18240,note_on,9,0,4,,,,,,,,,0,,,64,80
18240,note_on,0,0,4,,,,,,,,,0,,,69,80
18240,note_on,0,0,4,,,,,,,,,0,,,60,80
18240,note_on,0,0,4,,,,,,,,,0,,,57,80
18265,set_tempo,29,1,0,,,,,,351288,,,,,,,
18296,set_tempo,31,1,0,,,,,,350058,,,,,,,
18300,note_on,552,0,2,,,,,,,,,0,,,72,72
18309,control_change,69,0,4,,,,,,,,,0,64,127,,
18325,set_tempo,29,1,0,,,,,,348837,,,,,,,
18348,note_on,48,0,2,,,,,,,,,0,,,72,0
18356,set_tempo,31,1,0,,,,,,347625,,,,,,,
18360,note_on,12,0,2,,,,,,,,,0,,,76,76
18385,set_tempo,29,1,0,,,,,,346420,,,,,,,
18408,note_on,48,0,2,,,,,,,,,0,,,76,0
18416,set_tempo,31,1,0,,,,,,345224,,,,,,,
18420,note_on,12,0,2,,,,,,,,,0,,,81,80
18445,set_tempo,29,1,0,,,,,,344037,,,,,,,
18468,note_on,48,0,2,,,,,,,,,0,,,81,0
18476,set_tempo,31,1,0,,,,,,342857,,,,,,,
18480,note_on,12,0,2,,,,,,,,,0,,,84,84
18505,set_tempo,29,1,0,,,,,,341686,,,,,,,
18528,note_on,48,0,2,,,,,,,,,0,,,84,0
18536,set_tempo,31,1,0,,,,,,340522,,,,,,,
18540,note_on,12,0,2,,,,,,,,,0,,,88,88
18565,set_tempo,29,1,0,,,,,,339367,,,,,,,
18588,note_on,48,0,2,,,,,,,,,0,,,88,0
18596,set_tempo,31,1,0,,,,,,338219,,,,,,,
18600,note_on,12,0,2,,,,,,,,,0,,,93,93
18624,note_on,0,0,4,,,,,,,,,0,,,64,0
18624,note_on,0,0,4,,,,,,,,,0,,,57,0
18624,note_on,0,0,4,,,,,,,,,0,,,69,0
18624,note_on,315,0,4,,,,,,,,,0,,,60,0
18625,set_tempo,29,1,0,,,,,,337079,,,,,,,
18648,note_on,48,0,2,,,,,,,,,0,,,93,0
18656,set_tempo,31,1,0,,,,,,335946,,,,,,,
18660,note_on,12,0,2,,,,,,,,,0,,,100,97
18685,set_tempo,29,1,0,,,,,,334821,,,,,,,
18708,note_on,48,0,2,,,,,,,,,0,,,100,0
18714,set_tempo,29,1,0,,,,,,333704,,,,,,,
18720,control_change,96,0,4,,,,,,,,,0,64,0,,
18720,note_on,0,0,4,,,,,,,,,0,,,55,80
18720,note_on,0,0,4,,,,,,,,,0,,,60,80
18720,note_on,0,0,4,,,,,,,,,0,,,67,80
18720,note_on,12,0,2,,,,,,,,,0,,,96,101
18720,note_on,0,0,4,,,,,,,,,0,,,64,80
18723,set_tempo,9,1,0,,,,,,334821,,,,,,,
18737,set_tempo,14,1,0,,,,,,335946,,,,,,,
18749,set_tempo,12,1,0,,,,,,337079,,,,,,,
18761,set_tempo,12,1,0,,,,,,338219,,,,,,,
18768,note_on,48,0,2,,,,,,,,,0,,,96,0
18773,set_tempo,12,1,0,,,,,,339367,,,,,,,
18780,note_on,12,0,2,,,,,,,,,0,,,91,96
18785,set_tempo,12,1,0,,,,,,340522,,,,,,,
18797,set_tempo,12,1,0,,,,,,341686,,,,,,,
18803,control_change,83,0,4,,,,,,,,,0,64,127,,
18809,set_tempo,12,1,0,,,,,,342857,,,,,,,
18821,set_tempo,12,1,0,,,,,,344037,,,,,,,
18828,note_on,48,0,2,,,,,,,,,0,,,91,0
18833,set_tempo,12,1,0,,,,,,345224,,,,,,,
18840,note_on,12,0,2,,,,,,,,,0,,,88,90
18845,set_tempo,12,1,0,,,,,,346420,,,,,,,
18857,set_tempo,12,1,0,,,,,,347625,,,,,,,
18869,set_tempo,12,1,0,,,,,,348837,,,,,,,
18881,set_tempo,12,1,0,,,,,,350058,,,,,,,
18888,note_on,48,0,2,,,,,,,,,0,,,88,0
18896,set_tempo,15,1,0,,,,,,351288,,,,,,,
18900,note_on,12,0,2,,,,,,,,,0,,,84,85
18908,set_tempo,12,1,0,,,,,,352526,,,,,,,
18920,set_tempo,12,1,0,,,,,,353774,,,,,,,
18932,set_tempo,12,1,0,,,,,,355030,,,,,,,
18944,set_tempo,12,1,0,,,,,,356295,,,,,,,
18948,note_on,48,0,2,,,,,,,,,0,,,84,0
18956,set_tempo,12,1,0,,,,,,357569,,,,,,,
18960,note_on,12,0,2,,,,,,,,,0,,,79,80
18968,set_tempo,12,1,0,,,,,,358852,,,,,,,
18980,set_tempo,12,1,0,,,,,,360144,,,,,,,
18992,set_tempo,12,1,0,,,,,,361446,,,,,,,
19004,set_tempo,12,1,0,,,,,,362757,,,,,,,
19008,note_on,48,0,2,,,,,,,,,0,,,79,0
19016,set_tempo,12,1,0,,,,,,364078,,,,,,,
19020,note_on,12,0,2,,,,,,,,,0,,,76,75
19028,set_tempo,12,1,0,,,,,,365408,,,,,,,
19040,set_tempo,12,1,0,,,,,,366748,,,,,,,
19054,set_tempo,14,1,0,,,,,,368098,,,,,,,
19066,set_tempo,12,1,0,,,,,,369458,,,,,,,
19068,note_on,48,0,2,,,,,,,,,0,,,76,0
19078,set_tempo,12,1,0,,,,,,370828,,,,,,,
19080,note_on,12,0,2,,,,,,,,,0,,,72,69
19090,set_tempo,12,1,0,,,,,,372208,,,,,,,
19102,set_tempo,12,1,0,,,,,,373599,,,,,,,
19104,note_on,301,0,4,,,,,,,,,0,,,55,0
19104,note_on,0,0,4,,,,,,,,,0,,,64,0
19104,note_on,0,0,4,,,,,,,,,0,,,67,0
19104,note_on,0,0,4,,,,,,,,,0,,,60,0
19114,set_tempo,12,1,0,,,,,,375000,,,,,,,
19126,set_tempo,12,1,0,,,,,,376412,,,,,,,
19128,note_on,48,0,2,,,,,,,,,0,,,72,0
19138,set_tempo,12,1,0,,,,,,377834,,,,,,,
19140,note_on,12,0,2,,,,,,,,,0,,,67,64
19150,set_tempo,12,1,0,,,,,,379267,,,,,,,
19162,set_tempo,12,1,0,,,,,,380711,,,,,,,
19174,set_tempo,12,1,0,,,,,,382166,,,,,,,
19186,set_tempo,12,1,0,,,,,,383632,,,,,,,
19188,note_on,48,0,2,,,,,,,,,0,,,67,0
19198,set_tempo,12,1,0,,,,,,385109,,,,,,,
19200,note_on,0,0,4,,,,,,,,,0,,,64,80
19200,control_change,96,0,4,,,,,,,,,0,64,0,,
19200,note_on,0,0,4,,,,,,,,,0,,,52,80
19200,note_on,0,0,4,,,,,,,,,0,,,57,80
19200,note_on,0,0,4,,,,,,,,,0,,,60,80
19210,set_tempo,12,1,0,,,,,,383632,,,,,,,
19222,set_tempo,12,1,0,,,,,,382166,,,,,,,
19234,set_tempo,12,1,0,,,,,,380711,,,,,,,
19244,set_tempo,10,1,0,,,,,,379267,,,,,,,
19255,control_change,55,0,4,,,,,,,,,0,64,127,,
19256,set_tempo,12,1,0,,,,,,377834,,,,,,,
19260,note_on,72,0,2,,,,,,,,,0,,,69,62
19268,set_tempo,12,1,0,,,,,,376412,,,,,,,
19280,set_tempo,12,1,0,,,,,,375000,,,,,,,
19289,set_tempo,9,1,0,,,,,,373599,,,,,,,
19301,set_tempo,12,1,0,,,,,,372208,,,,,,,
19308,note_on,48,0,2,,,,,,,,,0,,,69,0
19313,set_tempo,12,1,0,,,,,,370828,,,,,,,
19320,note_on,12,0,2,,,,,,,,,0,,,72,67
19325,set_tempo,12,1,0,,,,,,369458,,,,,,,
19335,set_tempo,10,1,0,,,,,,368098,,,,,,,
19347,set_tempo,12,1,0,,,,,,366748,,,,,,,
19359,set_tempo,12,1,0,,,,,,365408,,,,,,,
19368,note_on,48,0,2,,,,,,,,,0,,,72,0
19371,set_tempo,12,1,0,,,,,,364078,,,,,,,
19380,note_on,12,0,2,,,,,,,,,0,,,76,73
19380,set_tempo,9,1,0,,,,,,362757,,,,,,,
19392,set_tempo,12,1,0,,,,,,361446,,,,,,,
19404,set_tempo,12,1,0,,,,,,360144,,,,,,,
19416,set_tempo,12,1,0,,,,,,358852,,,,,,,
19426,set_tempo,10,1,0,,,,,,357569,,,,,,,
19428,note_on,48,0,2,,,,,,,,,0,,,76,0
19438,set_tempo,12,1,0,,,,,,356295,,,,,,,
19440,note_on,12,0,2,,,,,,,,,0,,,81,78
19450,set_tempo,12,1,0,,,,,,355030,,,,,,,
19460,set_tempo,10,1,0,,,,,,353774,,,,,,,
19472,set_tempo,12,1,0,,,,,,352526,,,,,,,
19484,set_tempo,12,1,0,,,,,,351288,,,,,,,
19488,note_on,48,0,2,,,,,,,,,0,,,81,0
19496,set_tempo,12,1,0,,,,,,350058,,,,,,,
19500,note_on,12,0,2,,,,,,,,,0,,,84,84
19505,set_tempo,9,1,0,,,,,,348837,,,,,,,
19517,set_tempo,12,1,0,,,,,,347625,,,,,,,
19529,set_tempo,12,1,0,,,,,,346420,,,,,,,
19541,set_tempo,12,1,0,,,,,,345224,,,,,,,
19548,note_on,48,0,2,,,,,,,,,0,,,84,0
19551,set_tempo,10,1,0,,,,,,344037,,,,,,,
19560,note_on,12,0,2,,,,,,,,,0,,,88,89
19563,set_tempo,12,1,0,,,,,,342857,,,,,,,
19575,set_tempo,12,1,0,,,,,,341686,,,,,,,
19584,note_on,329,0,4,,,,,,,,,0,,,52,0
19584,note_on,0,0,4,,,,,,,,,0,,,57,0
19584,note_on,0,0,4,,,,,,,,,0,,,60,0
19584,note_on,0,0,4,,,,,,,,,0,,,64,0
19587,set_tempo,12,1,0,,,,,,340522,,,,,,,
19596,set_tempo,9,1,0,,,,,,339367,,,,,,,
19608,set_tempo,12,1,0,,,,,,338219,,,,,,,
19608,note_on,48,0,2,,,,,,,,,0,,,88,0
19620,note_on,12,0,2,,,,,,,,,0,,,96,95
19620,set_tempo,12,1,0,,,,,,337079,,,,,,,
19632,set_tempo,12,1,0,,,,,,335946,,,,,,,
19642,set_tempo,10,1,0,,,,,,334821,,,,,,,
19654,set_tempo,12,1,0,,,,,,333704,,,,,,,
19666,set_tempo,12,1,0,,,,,,332594,,,,,,,
19668,set_tempo,2,1,0,,,,,,331492,,,,,,,
19668,note_on,48,0,2,,,,,,,,,0,,,96,0
19680,note_on,0,0,4,,,,,,,,,0,,,55,80
19680,note_on,12,0,2,,,,,,,,,0,,,91,101
19680,note_on,0,0,4,,,,,,,,,0,,,60,80
19680,note_on,0,0,4,,,,,,,,,0,,,52,80
19680,note_on,0,0,4,,,,,,,,,0,,,48,80
19680,control_change,96,0,4,,,,,,,,,0,64,0,,
19683,set_tempo,15,1,0,,,,,,332594,,,,,,,
19695,set_tempo,12,1,0,,,,,,333704,,,,,,,
19707,set_tempo,12,1,0,,,,,,334821,,,,,,,
19719,set_tempo,12,1,0,,,,,,335946,,,,,,,
19728,note_on,48,0,2,,,,,,,,,0,,,91,0
19731,set_tempo,12,1,0,,,,,,337079,,,,,,,
19740,note_on,12,0,2,,,,,,,,,0,,,88,96
19743,set_tempo,12,1,0,,,,,,338219,,,,,,,
19745,control_change,65,0,4,,,,,,,,,0,64,127,,
19755,set_tempo,12,1,0,,,,,,339367,,,,,,,
19767,set_tempo,12,1,0,,,,,,340522,,,,,,,
19779,set_tempo,12,1,0,,,,,,341686,,,,,,,
19788,note_on,48,0,2,,,,,,,,,0,,,88,0
19791,set_tempo,12,1,0,,,,,,342857,,,,,,,
19800,note_on,12,0,2,,,,,,,,,0,,,84,91
19805,set_tempo,14,1,0,,,,,,344037,,,,,,,
19817,set_tempo,12,1,0,,,,,,345224,,,,,,,
19829,set_tempo,12,1,0,,,,,,346420,,,,,,,
19841,set_tempo,12,1,0,,,,,,347625,,,,,,,
19848,note_on,48,0,2,,,,,,,,,0,,,84,0
19853,set_tempo,12,1,0,,,,,,348837,,,,,,,
19860,note_on,12,0,2,,,,,,,,,0,,,79,86
19865,set_tempo,12,1,0,,,,,,350058,,,,,,,
19877,set_tempo,12,1,0,,,,,,351288,,,,,,,
19889,set_tempo,12,1,0,,,,,,352526,,,,,,,
19901,set_tempo,12,1,0,,,,,,353774,,,,,,,
19908,note_on,48,0,2,,,,,,,,,0,,,79,0
19913,set_tempo,12,1,0,,,,,,355030,,,,,,,
19920,note_on,12,0,2,,,,,,,,,0,,,76,81
19928,set_tempo,15,1,0,,,,,,356295,,,,,,,
19940,set_tempo,12,1,0,,,,,,357569,,,,,,,
19952,set_tempo,12,1,0,,,,,,358852,,,,,,,
19964,set_tempo,12,1,0,,,,,,360144,,,,,,,
19968,note_on,48,0,2,,,,,,,,,0,,,76,0
19976,set_tempo,12,1,0,,,,,,361446,,,,,,,
19980,note_on,12,0,2,,,,,,,,,0,,,72,75
19988,set_tempo,12,1,0,,,,,,362757,,,,,,,
20000,set_tempo,12,1,0,,,,,,364078,,,,,,,
20012,set_tempo,12,1,0,,,,,,365408,,,,,,,
20024,set_tempo,12,1,0,,,,,,366748,,,,,,,
20028,note_on,48,0,2,,,,,,,,,0,,,72,0
20036,set_tempo,12,1,0,,,,,,368098,,,,,,,
20040,note_on,12,0,2,,,,,,,,,0,,,67,70
20050,set_tempo,14,1,0,,,,,,369458,,,,,,,
20062,set_tempo,12,1,0,,,,,,370828,,,,,,,
20064,note_on,319,0,4,,,,,,,,,0,,,60,0
20064,note_on,0,0,4,,,,,,,,,0,,,52,0
20064,note_on,0,0,4,,,,,,,,,0,,,55,0
20064,note_on,0,0,4,,,,,,,,,0,,,48,0
20074,set_tempo,12,1,0,,,,,,372208,,,,,,,
20086,set_tempo,12,1,0,,,,,,373599,,,,,,,
20088,note_on,48,0,2,,,,,,,,,0,,,67,0
20098,set_tempo,12,1,0,,,,,,375000,,,,,,,
20100,note_on,12,0,2,,,,,,,,,0,,,64,65
20110,set_tempo,12,1,0,,,,,,376412,,,,,,,
20122,set_tempo,12,1,0,,,,,,377834,,,,,,,
20134,set_tempo,12,1,0,,,,,,379267,,,,,,,
20146,set_tempo,12,1,0,,,,,,380711,,,,,,,
20148,note_on,48,0,2,,,,,,,,,0,,,64,0
20155,control_change,91,0,4,,,,,,,,,0,64,0,,
20156,set_tempo,10,1,0,,,,,,382166,,,,,,,
20160,note_on,5,0,4,,,,,,,,,0,,,48,80
20160,note_on,0,0,4,,,,,,,,,0,,,57,80
20160,note_on,0,0,4,,,,,,,,,0,,,52,80
20160,note_on,0,0,4,,,,,,,,,0,,,45,80
20170,set_tempo,14,1,0,,,,,,380711,,,,,,,
20182,set_tempo,12,1,0,,,,,,379267,,,,,,,
20194,set_tempo,12,1,0,,,,,,377834,,,,,,,
20197,control_change,37,0,4,,,,,,,,,0,64,127,,
20206,set_tempo,12,1,0,,,,,,376412,,,,,,,
20220,note_on,72,0,2,,,,,,,,,0,,,60,62
20220,set_tempo,14,1,0,,,,,,375000,,,,,,,
20232,set_tempo,12,1,0,,,,,,373599,,,,,,,
20244,set_tempo,12,1,0,,,,,,372208,,,,,,,
20256,set_tempo,12,1,0,,,,,,370828,,,,,,,
20268,set_tempo,12,1,0,,,,,,369458,,,,,,,
20268,note_on,48,0,2,,,,,,,,,0,,,60,0
20280,note_on,12,0,2,,,,,,,,,0,,,64,68
20283,set_tempo,15,1,0,,,,,,368098,,,,,,,
20295,set_tempo,12,1,0,,,,,,366748,,,,,,,
20307,set_tempo,12,1,0,,,,,,365408,,,,,,,
20319,set_tempo,12,1,0,,,,,,364078,,,,,,,
20328,note_on,48,0,2,,,,,,,,,0,,,64,0
20331,set_tempo,12,1,0,,,,,,362757,,,,,,,
20340,note_on,12,0,2,,,,,,,,,0,,,69,73
20345,set_tempo,14,1,0,,,,,,361446,,,,,,,
20357,set_tempo,12,1,0,,,,,,360144,,,,,,,
20369,set_tempo,12,1,0,,,,,,358852,,,,,,,
20381,set_tempo,12,1,0,,,,,,357569,,,,,,,
20388,note_on,48,0,2,,,,,,,,,0,,,69,0
20393,set_tempo,12,1,0,,,,,,356295,,,,,,,
20400,note_on,12,0,2,,,,,,,,,0,,,72,79
20408,set_tempo,15,1,0,,,,,,355030,,,,,,,
20420,set_tempo,12,1,0,,,,,,353774,,,,,,,
20432,set_tempo,12,1,0,,,,,,352526,,,,,,,
20444,set_tempo,12,1,0,,,,,,351288,,,,,,,
20448,note_on,48,0,2,,,,,,,,,0,,,72,0
20458,set_tempo,14,1,0,,,,,,350058,,,,,,,
20460,note_on,12,0,2,,,,,,,,,0,,,76,84
20470,set_tempo,12,1,0,,,,,,348837,,,,,,,
20482,set_tempo,12,1,0,,,,,,347625,,,,,,,
20494,set_tempo,12,1,0,,,,,,346420,,,,,,,
20506,set_tempo,12,1,0,,,,,,345224,,,,,,,
20508,note_on,48,0,2,,,,,,,,,0,,,76,0
20520,note_on,12,0,2,,,,,,,,,0,,,81,90
20520,set_tempo,14,1,0,,,,,,344037,,,,,,,
20532,set_tempo,12,1,0,,,,,,342857,,,,,,,
20544,note_on,347,0,4,,,,,,,,,0,,,57,0
20544,note_on,0,0,4,,,,,,,,,0,,,45,0
20544,note_on,0,0,4,,,,,,,,,0,,,48,0
20544,note_on,0,0,4,,,,,,,,,0,,,52,0
20544,set_tempo,12,1,0,,,,,,341686,,,,,,,
20556,set_tempo,12,1,0,,,,,,340522,,,,,,,
20568,set_tempo,12,1,0,,,,,,339367,,,,,,,
20568,note_on,48,0,2,,,,,,,,,0,,,81,0
20580,note_on,12,0,2,,,,,,,,,0,,,88,95
20583,set_tempo,15,1,0,,,,,,338219,,,,,,,
20595,set_tempo,12,1,0,,,,,,337079,,,,,,,
20607,set_tempo,12,1,0,,,,,,335946,,,,,,,
20619,set_tempo,12,1,0,,,,,,334821,,,,,,,
20628,note_on,48,0,2,,,,,,,,,0,,,88,0
20631,set_tempo,12,1,0,,,,,,333704,,,,,,,
20635,set_tempo,4,1,0,,,,,,333704,,,,,,,
20640,note_on,0,0,4,,,,,,,,,0,,,43,80
20640,note_on,0,0,4,,,,,,,,,0,,,48,80
20640,note_on,12,0,2,,,,,,,,,0,,,84,102
20640,note_on,0,0,4,,,,,,,,,0,,,52,80
20640,control_change,96,0,4,,,,,,,,,0,64,0,,
20640,note_on,0,0,4,,,,,,,,,0,,,55,80
20649,set_tempo,14,1,0,,,,,,334821,,,,,,,
20661,set_tempo,12,1,0,,,,,,335946,,,,,,,
20673,set_tempo,12,1,0,,,,,,337079,,,,,,,
20685,set_tempo,12,1,0,,,,,,338219,,,,,,,
20688,note_on,48,0,2,,,,,,,,,0,,,84,0
20691,control_change,51,0,4,,,,,,,,,0,64,127,,
20697,set_tempo,12,1,0,,,,,,339367,,,,,,,
20700,note_on,12,0,2,,,,,,,,,0,,,79,97
20709,set_tempo,12,1,0,,,,,,340522,,,,,,,
20721,set_tempo,12,1,0,,,,,,341686,,,,,,,
20733,set_tempo,12,1,0,,,,,,342857,,,,,,,
20745,set_tempo,12,1,0,,,,,,344037,,,,,,,
20748,note_on,48,0,2,,,,,,,,,0,,,79,0
20757,set_tempo,12,1,0,,,,,,345224,,,,,,,
20760,note_on,12,0,2,,,,,,,,,0,,,76,92
20769,set_tempo,12,1,0,,,,,,346420,,,,,,,
20781,set_tempo,12,1,0,,,,,,347625,,,,,,,
20793,set_tempo,12,1,0,,,,,,348837,,,,,,,
20805,set_tempo,12,1,0,,,,,,350058,,,,,,,
20808,note_on,48,0,2,,,,,,,,,0,,,76,0
20817,set_tempo,12,1,0,,,,,,351288,,,,,,,
20820,note_on,12,0,2,,,,,,,,,0,,,72,86
20829,set_tempo,12,1,0,,,,,,352526,,,,,,,
20841,set_tempo,12,1,0,,,,,,353774,,,,,,,
20853,set_tempo,12,1,0,,,,,,355030,,,,,,,
20865,set_tempo,12,1,0,,,,,,356295,,,,,,,
20868,note_on,48,0,2,,,,,,,,,0,,,72,0
20877,set_tempo,12,1,0,,,,,,357569,,,,,,,
20880,note_on,12,0,2,,,,,,,,,0,,,67,81
20891,set_tempo,14,1,0,,,,,,358852,,,,,,,
20903,set_tempo,12,1,0,,,,,,360144,,,,,,,
20915,set_tempo,12,1,0,,,,,,361446,,,,,,,
20927,set_tempo,12,1,0,,,,,,362757,,,,,,,
20928,note_on,48,0,2,,,,,,,,,0,,,67,0
20939,set_tempo,12,1,0,,,,,,364078,,,,,,,
20940,note_on,12,0,2,,,,,,,,,0,,,64,76
20951,set_tempo,12,1,0,,,,,,365408,,,,,,,
20963,set_tempo,12,1,0,,,,,,366748,,,,,,,
20975,set_tempo,12,1,0,,,,,,368098,,,,,,,
20987,set_tempo,12,1,0,,,,,,369458,,,,,,,
20988,note_on,48,0,2,,,,,,,,,0,,,64,0
20999,set_tempo,12,1,0,,,,,,370828,,,,,,,
21000,note_on,12,0,2,,,,,,,,,0,,,60,70
21011,set_tempo,12,1,0,,,,,,372208,,,,,,,
21023,set_tempo,12,1,0,,,,,,373599,,,,,,,
21024,note_on,0,0,4,,,,,,,,,0,,,48,0
21024,note_on,0,0,4,,,,,,,,,0,,,43,0
21024,note_on,0,0,4,,,,,,,,,0,,,52,0
21024,note_on,333,0,4,,,,,,,,,0,,,55,0
21035,set_tempo,12,1,0,,,,,,375000,,,,,,,
21047,set_tempo,12,1,0,,,,,,376412,,,,,,,
21048,note_on,48,0,2,,,,,,,,,0,,,60,0
21059,set_tempo,12,1,0,,,,,,377834,,,,,,,
21060,note_on,12,0,2,,,,,,,,,0,,,55,65
21071,set_tempo,12,1,0,,,,,,379267,,,,,,,
21083,set_tempo,12,1,0,,,,,,380711,,,,,,,
21095,set_tempo,12,1,0,,,,,,382166,,,,,,,
21107,set_tempo,12,1,0,,,,,,383632,,,,,,,
21108,note_on,48,0,2,,,,,,,,,0,,,55,0
21119,set_tempo,12,1,0,,,,,,385109,,,,,,,
21120,note_on,0,0,4,,,,,,,,,0,,,40,80
21120,note_on,96,0,4,,,,,,,,,0,,,45,80
21120,note_on,0,0,4,,,,,,,,,0,,,52,80
21120,note_on,0,0,4,,,,,,,,,0,,,48,80
21129,control_change,9,0,4,,,,,,,,,0,64,0,,
21134,set_tempo,15,1,0,,,,,,383632,,,,,,,
21146,set_tempo,12,1,0,,,,,,382166,,,,,,,
21158,set_tempo,12,1,0,,,,,,380711,,,,,,,
21170,set_tempo,12,1,0,,,,,,379267,,,,,,,
21180,note_on,72,0,2,,,,,,,,,0,,,57,61
21182,set_tempo,12,1,0,,,,,,377834,,,,,,,
21194,set_tempo,12,1,0,,,,,,376412,,,,,,,
21198,control_change,69,0,4,,,,,,,,,0,64,127,,
21206,set_tempo,12,1,0,,,,,,375000,,,,,,,
21218,set_tempo,12,1,0,,,,,,373599,,,,,,,
21228,note_on,48,0,2,,,,,,,,,0,,,57,0
21230,set_tempo,12,1,0,,,,,,372208,,,,,,,
21240,note_on,12,0,2,,,,,,,,,0,,,60,66
21242,set_tempo,12,1,0,,,,,,370828,,,,,,,
21254,set_tempo,12,1,0,,,,,,369458,,,,,,,
21266,set_tempo,12,1,0,,,,,,368098,,,,,,,
21278,set_tempo,12,1,0,,,,,,366748,,,,,,,
21288,note_on,48,0,2,,,,,,,,,0,,,60,0
21290,set_tempo,12,1,0,,,,,,365408,,,,,,,
21300,note_on,12,0,2,,,,,,,,,0,,,64,72
21302,set_tempo,12,1,0,,,,,,364078,,,,,,,
21314,set_tempo,12,1,0,,,,,,362757,,,,,,,
21326,set_tempo,12,1,0,,,,,,361446,,,,,,,
21338,set_tempo,12,1,0,,,,,,360144,,,,,,,
21348,note_on,48,0,2,,,,,,,,,0,,,64,0
21350,set_tempo,12,1,0,,,,,,358852,,,,,,,
21360,note_on,12,0,2,,,,,,,,,0,,,69,78
21364,set_tempo,14,1,0,,,,,,357569,,,,,,,
21376,set_tempo,12,1,0,,,,,,356295,,,,,,,
21388,set_tempo,12,1,0,,,,,,355030,,,,,,,
21400,set_tempo,12,1,0,,,,,,353774,,,,,,,
21408,note_on,48,0,2,,,,,,,,,0,,,69,0
21412,set_tempo,12,1,0,,,,,,352526,,,,,,,
21420,note_on,12,0,2,,,,,,,,,0,,,72,83
21424,set_tempo,12,1,0,,,,,,351288,,,,,,,
21436,set_tempo,12,1,0,,,,,,350058,,,,,,,
21448,set_tempo,12,1,0,,,,,,348837,,,,,,,
21460,set_tempo,12,1,0,,,,,,347625,,,,,,,
21468,note_on,48,0,2,,,,,,,,,0,,,72,0
21472,set_tempo,12,1,0,,,,,,346420,,,,,,,
21480,note_on,12,0,2,,,,,,,,,0,,,76,89
21484,set_tempo,12,1,0,,,,,,345224,,,,,,,
21496,set_tempo,12,1,0,,,,,,344037,,,,,,,
21504,note_on,0,0,4,,,,,,,,,0,,,48,0
21504,note_on,0,0,4,,,,,,,,,0,,,45,0
21504,note_on,0,0,4,,,,,,,,,0,,,40,0
21504,note_on,306,0,4,,,,,,,,,0,,,52,0
21508,set_tempo,12,1,0,,,,,,342857,,,,,,,
21520,set_tempo,12,1,0,,,,,,341686,,,,,,,
21528,note_on,48,0,2,,,,,,,,,0,,,76,0
21532,set_tempo,12,1,0,,,,,,340522,,,,,,,
21540,note_on,12,0,2,,,,,,,,,0,,,84,94
21544,set_tempo,12,1,0,,,,,,339367,,,,,,,
21556,set_tempo,12,1,0,,,,,,338219,,,,,,,
21568,set_tempo,12,1,0,,,,,,337079,,,,,,,
21580,set_tempo,12,1,0,,,,,,335946,,,,,,,
21588,note_on,48,0,2,,,,,,,,,0,,,84,0
21590,set_tempo,10,1,0,,,,,,334821,,,,,,,
21600,note_on,0,0,4,,,,,,,,,0,,,48,80
21600,note_on,0,0,4,,,,,,,,,0,,,43,80
21600,note_on,0,0,4,,,,,,,,,0,,,40,80
21600,note_on,0,0,4,,,,,,,,,0,,,36,80
21600,control_change,96,0,4,,,,,,,,,0,64,0,,
21600,note_on,12,0,2,,,,,,,,,0,,,79,103
21602,set_tempo,12,1,0,,,,,,335946,,,,,,,
21614,set_tempo,12,1,0,,,,,,337079,,,,,,,
21626,set_tempo,12,1,0,,,,,,338219,,,,,,,
21638,set_tempo,12,1,0,,,,,,339367,,,,,,,
21648,note_on,48,0,2,,,,,,,,,0,,,79,0
21650,set_tempo,12,1,0,,,,,,340522,,,,,,,
21660,note_on,12,0,2,,,,,,,,,0,,,76,98
21662,set_tempo,12,1,0,,,,,,341686,,,,,,,
21665,control_change,65,0,4,,,,,,,,,0,64,127,,
21674,set_tempo,12,1,0,,,,,,342857,,,,,,,
21686,set_tempo,12,1,0,,,,,,344037,,,,,,,
21698,set_tempo,12,1,0,,,,,,345224,,,,,,,
21708,note_on,48,0,2,,,,,,,,,0,,,76,0
21710,set_tempo,12,1,0,,,,,,346420,,,,,,,
21720,note_on,12,0,2,,,,,,,,,0,,,72,92
21722,set_tempo,12,1,0,,,,,,347625,,,,,,,
21734,set_tempo,12,1,0,,,,,,348837,,,,,,,
21746,set_tempo,12,1,0,,,,,,350058,,,,,,,
21758,set_tempo,12,1,0,,,,,,351288,,,,,,,
21768,note_on,48,0,2,,,,,,,,,0,,,72,0
21770,set_tempo,12,1,0,,,,,,352526,,,,,,,
21780,note_on,12,0,2,,,,,,,,,0,,,67,87
21782,set_tempo,12,1,0,,,,,,353774,,,,,,,
21794,set_tempo,12,1,0,,,,,,355030,,,,,,,
21806,set_tempo,12,1,0,,,,,,356295,,,,,,,
21818,set_tempo,12,1,0,,,,,,357569,,,,,,,
21828,note_on,48,0,2,,,,,,,,,0,,,67,0
21830,set_tempo,12,1,0,,,,,,358852,,,,,,,
21840,note_on,12,0,2,,,,,,,,,0,,,64,81
21842,set_tempo,12,1,0,,,,,,360144,,,,,,,
21854,set_tempo,12,1,0,,,,,,361446,,,,,,,
21866,set_tempo,12,1,0,,,,,,362757,,,,,,,
21878,set_tempo,12,1,0,,,,,,364078,,,,,,,
21888,note_on,48,0,2,,,,,,,,,0,,,64,0
21890,set_tempo,12,1,0,,,,,,365408,,,,,,,
21900,note_on,12,0,2,,,,,,,,,0,,,60,76
21902,set_tempo,12,1,0,,,,,,366748,,,,,,,
21914,set_tempo,12,1,0,,,,,,368098,,,,,,,
21926,set_tempo,12,1,0,,,,,,369458,,,,,,,
21938,set_tempo,12,1,0,,,,,,370828,,,,,,,
21948,note_on,48,0,2,,,,,,,,,0,,,60,0
21950,set_tempo,12,1,0,,,,,,372208,,,,,,,
21960,note_on,12,0,2,,,,,,,,,0,,,55,70
21962,set_tempo,12,1,0,,,,,,373599,,,,,,,
21974,set_tempo,12,1,0,,,,,,375000,,,,,,,
21984,note_on,0,0,4,,,,,,,,,0,,,36,0
21984,note_on,0,0,4,,,,,,,,,0,,,43,0
21984,note_on,0,0,4,,,,,,,,,0,,,40,0
21984,note_on,319,0,4,,,,,,,,,0,,,48,0
21986,set_tempo,12,1,0,,,,,,376412,,,,,,,
21998,set_tempo,12,1,0,,,,,,377834,,,,,,,
22008,note_on,48,0,2,,,,,,,,,0,,,55,0
22010,set_tempo,12,1,0,,,,,,379267,,,,,,,
22020,note_on,12,0,2,,,,,,,,,0,,,52,65
22022,set_tempo,12,1,0,,,,,,380711,,,,,,,
22034,set_tempo,12,1,0,,,,,,382166,,,,,,,
22046,set_tempo,12,1,0,,,,,,383632,,,,,,,
22058,set_tempo,12,1,0,,,,,,385109,,,,,,,
22068,note_on,48,0,2,,,,,,,,,0,,,52,0
22070,set_tempo,12,1,0,,,,,,386598,,,,,,,
22071,control_change,87,0,4,,,,,,,,,0,64,0,,
22079,set_tempo,9,1,0,,,,,,388098,,,,,,,
22080,note_on,0,0,4,,,,,,,,,0,,,36,80
22080,note_on,0,0,4,,,,,,,,,0,,,45,80
22080,note_on,9,0,4,,,,,,,,,0,,,40,80
22080,note_on,0,0,4,,,,,,,,,0,,,33,80
22090,set_tempo,11,1,0,,,,,,389610,,,,,,,
22102,set_tempo,12,1,0,,,,,,388098,,,,,,,
22112,set_tempo,10,1,0,,,,,,386598,,,,,,,
22121,set_tempo,9,1,0,,,,,,385109,,,,,,,
22133,set_tempo,12,1,0,,,,,,383632,,,,,,,
22135,control_change,55,0,4,,,,,,,,,0,64,127,,
22140,note_on,72,0,2,,,,,,,,,0,,,48,59
22143,set_tempo,10,1,0,,,,,,382166,,,,,,,
22152,set_tempo,9,1,0,,,,,,380711,,,,,,,
22164,set_tempo,12,1,0,,,,,,379267,,,,,,,
22174,set_tempo,10,1,0,,,,,,377834,,,,,,,
22184,set_tempo,10,1,0,,,,,,376412,,,,,,,
22188,note_on,48,0,2,,,,,,,,,0,,,48,0
22196,set_tempo,12,1,0,,,,,,375000,,,,,,,
22200,note_on,12,0,2,,,,,,,,,0,,,52,65
22205,set_tempo,9,1,0,,,,,,373599,,,,,,,
22215,set_tempo,10,1,0,,,,,,372208,,,,,,,
22227,set_tempo,12,1,0,,,,,,370828,,,,,,,
22236,set_tempo,9,1,0,,,,,,369458,,,,,,,
22246,set_tempo,10,1,0,,,,,,368098,,,,,,,
22248,note_on,48,0,2,,,,,,,,,0,,,52,0
22256,set_tempo,10,1,0,,,,,,366748,,,,,,,
22260,note_on,12,0,2,,,,,,,,,0,,,57,71
22268,set_tempo,12,1,0,,,,,,365408,,,,,,,
22277,set_tempo,9,1,0,,,,,,364078,,,,,,,
22287,set_tempo,10,1,0,,,,,,362757,,,,,,,
22299,set_tempo,12,1,0,,,,,,361446,,,,,,,
22308,set_tempo,9,1,0,,,,,,360144,,,,,,,
22308,note_on,48,0,2,,,,,,,,,0,,,57,0
22318,set_tempo,10,1,0,,,,,,358852,,,,,,,
22320,note_on,12,0,2,,,,,,,,,0,,,60,77
22330,set_tempo,12,1,0,,,,,,357569,,,,,,,
22340,set_tempo,10,1,0,,,,,,356295,,,,,,,
22349,set_tempo,9,1,0,,,,,,355030,,,,,,,
22361,set_tempo,12,1,0,,,,,,353774,,,,,,,
22368,note_on,48,0,2,,,,,,,,,0,,,60,0
22371,set_tempo,10,1,0,,,,,,352526,,,,,,,
22380,set_tempo,9,1,0,,,,,,351288,,,,,,,
22380,note_on,12,0,2,,,,,,,,,0,,,64,83
22392,set_tempo,12,1,0,,,,,,350058,,,,,,,
22402,set_tempo,10,1,0,,,,,,348837,,,,,,,
22412,set_tempo,10,1,0,,,,,,347625,,,,,,,
22421,set_tempo,9,1,0,,,,,,346420,,,,,,,
22428,note_on,48,0,2,,,,,,,,,0,,,64,0
22433,set_tempo,12,1,0,,,,,,345224,,,,,,,
22440,note_on,12,0,2,,,,,,,,,0,,,69,89
22443,set_tempo,10,1,0,,,,,,344037,,,,,,,
22452,set_tempo,9,1,0,,,,,,342857,,,,,,,
22464,note_on,0,0,4,,,,,,,,,0,,,36,0
22464,note_on,0,0,4,,,,,,,,,0,,,40,0
22464,note_on,0,0,4,,,,,,,,,0,,,45,0
22464,set_tempo,12,1,0,,,,,,341686,,,,,,,
22464,note_on,329,0,4,,,,,,,,,0,,,33,0
22474,set_tempo,10,1,0,,,,,,340522,,,,,,,
22484,set_tempo,10,1,0,,,,,,339367,,,,,,,
22488,note_on,48,0,2,,,,,,,,,0,,,69,0
22496,set_tempo,12,1,0,,,,,,338219,,,,,,,
22500,note_on,12,0,2,,,,,,,,,0,,,76,95
22505,set_tempo,9,1,0,,,,,,337079,,,,,,,
22515,set_tempo,10,1,0,,,,,,335946,,,,,,,
22527,set_tempo,12,1,0,,,,,,334821,,,,,,,
22536,set_tempo,9,1,0,,,,,,333704,,,,,,,
22546,set_tempo,10,1,0,,,,,,332594,,,,,,,
22548,note_on,48,0,2,,,,,,,,,0,,,76,0
22556,set_tempo,10,1,0,,,,,,331492,,,,,,,
22560,note_on,12,0,2,,,,,,,,,0,,,72,80
22560,note_on,96,0,4,,,,,,,,,0,,,43,80
22560,control_change,0,0,4,,,,,,,,,0,64,0,,
22560,note_on,0,0,4,,,,,,,,,0,,,40,80
22560,note_on,0,0,4,,,,,,,,,0,,,36,80
22560,note_on,0,0,4,,,,,,,,,0,,,31,80
22562,set_tempo,6,1,0,,,,,,332594,,,,,,,
22586,set_tempo,24,1,0,,,,,,333704,,,,,,,
22608,note_on,48,0,2,,,,,,,,,0,,,72,0
22610,set_tempo,24,1,0,,,,,,334821,,,,,,,
22620,note_on,12,0,2,,,,,,,,,0,,,67,81
22625,control_change,65,0,4,,,,,,,,,0,64,127,,
22634,set_tempo,24,1,0,,,,,,335946,,,,,,,
22656,set_tempo,22,1,0,,,,,,337079,,,,,,,
22668,note_on,48,0,2,,,,,,,,,0,,,67,0
22680,set_tempo,24,1,0,,,,,,338219,,,,,,,
22680,note_on,12,0,2,,,,,,,,,0,,,64,82
22704,set_tempo,24,1,0,,,,,,339367,,,,,,,
22725,set_tempo,21,1,0,,,,,,340522,,,,,,,
22728,note_on,48,0,2,,,,,,,,,0,,,64,0
22740,note_on,12,0,2,,,,,,,,,0,,,60,84
22749,set_tempo,24,1,0,,,,,,341686,,,,,,,
22773,set_tempo,24,1,0,,,,,,342857,,,,,,,
22788,note_on,48,0,2,,,,,,,,,0,,,60,0
22795,set_tempo,22,1,0,,,,,,344037,,,,,,,
22800,note_on,4572,0,3,,,,,,,,,0,,,55,85
22819,set_tempo,24,1,0,,,,,,345224,,,,,,,
22843,set_tempo,24,1,0,,,,,,346420,,,,,,,
22848,note_on,48,0,3,,,,,,,,,0,,,55,0
22860,note_on,12,0,3,,,,,,,,,0,,,52,86
22864,set_tempo,21,1,0,,,,,,347625,,,,,,,
22888,set_tempo,24,1,0,,,,,,348837,,,,,,,
22908,note_on,48,0,3,,,,,,,,,0,,,52,0
22912,set_tempo,24,1,0,,,,,,350058,,,,,,,
22920,note_on,12,0,3,,,,,,,,,0,,,48,88
22934,set_tempo,22,1,0,,,,,,351288,,,,,,,
22944,note_on,0,0,4,,,,,,,,,0,,,43,0
22944,note_on,0,0,4,,,,,,,,,0,,,36,0
22944,note_on,0,0,4,,,,,,,,,0,,,31,0
22944,note_on,319,0,4,,,,,,,,,0,,,40,0
22958,set_tempo,24,1,0,,,,,,352526,,,,,,,
22968,note_on,48,0,3,,,,,,,,,0,,,48,0
22980,note_on,12,0,3,,,,,,,,,0,,,43,89
22982,set_tempo,24,1,0,,,,,,353774,,,,,,,
23004,set_tempo,22,1,0,,,,,,355030,,,,,,,
23028,note_on,48,0,3,,,,,,,,,0,,,43,0
23028,set_tempo,24,1,0,,,,,,356295,,,,,,,
23031,control_change,87,0,4,,,,,,,,,0,64,0,,
23040,note_on,0,0,4,,,,,,,,,0,,,41,100
23040,note_on,0,0,4,,,,,,,,,0,,,33,100
23040,note_on,0,0,4,,,,,,,,,0,,,29,100
23040,note_on,9,0,4,,,,,,,,,0,,,36,100
23052,set_tempo,24,1,0,,,,,,357569,,,,,,,
23076,set_tempo,24,1,0,,,,,,358852,,,,,,,
23086,control_change,46,0,4,,,,,,,,,0,64,127,,
23097,set_tempo,21,1,0,,,,,,360144,,,,,,,
23100,note_on,72,0,3,,,,,,,,,0,,,45,92
23121,set_tempo,24,1,0,,,,,,361446,,,,,,,
23145,set_tempo,24,1,0,,,,,,362757,,,,,,,
23148,note_on,48,0,3,,,,,,,,,0,,,45,0
23160,note_on,12,0,3,,,,,,,,,0,,,48,93
23167,set_tempo,22,1,0,,,,,,364078,,,,,,,
23191,set_tempo,24,1,0,,,,,,365408,,,,,,,
23208,note_on,48,0,3,,,,,,,,,0,,,48,0
23215,set_tempo,24,1,0,,,,,,366748,,,,,,,
23220,note_on,12,0,3,,,,,,,,,0,,,53,94
23236,set_tempo,21,1,0,,,,,,368098,,,,,,,
23260,set_tempo,24,1,0,,,,,,369458,,,,,,,
23268,note_on,48,0,3,,,,,,,,,0,,,53,0
23280,note_on,12,0,3,,,,,,,,,0,,,57,96
23284,set_tempo,24,1,0,,,,,,370828,,,,,,,
23306,set_tempo,22,1,0,,,,,,372208,,,,,,,
23328,note_on,48,0,3,,,,,,,,,0,,,57,0
23330,set_tempo,24,1,0,,,,,,373599,,,,,,,
23340,note_on,12,0,3,,,,,,,,,0,,,60,97
23354,set_tempo,24,1,0,,,,,,375000,,,,,,,
23376,set_tempo,22,1,0,,,,,,376412,,,,,,,
23388,note_on,48,0,3,,,,,,,,,0,,,60,0
23400,note_on,12,0,3,,,,,,,,,0,,,65,98
23400,set_tempo,24,1,0,,,,,,377834,,,,,,,
23424,set_tempo,24,1,0,,,,,,379267,,,,,,,
23445,set_tempo,21,1,0,,,,,,380711,,,,,,,
23448,note_on,48,0,3,,,,,,,,,0,,,65,0
23460,note_on,12,0,3,,,,,,,,,0,,,69,100
23469,set_tempo,24,1,0,,,,,,382166,,,,,,,
23493,set_tempo,24,1,0,,,,,,383632,,,,,,,
23508,end_of_track,0,1,3,,,,,,,,,,,,,
23508,note_on,48,0,3,,,,,,,,,0,,,69,0
23512,set_tempo,19,1,0,,,,,,383632,,,,,,,
23515,set_tempo,3,1,0,,,,,,383632,,,,,,,
23520,note_on,732,0,2,,,,,,,,,0,,,69,100
23522,set_tempo,7,1,0,,,,,,385109,,,,,,,
23527,set_tempo,5,1,0,,,,,,386598,,,,,,,
23532,set_tempo,5,1,0,,,,,,388098,,,,,,,
23537,set_tempo,5,1,0,,,,,,389610,,,,,,,
23542,set_tempo,5,1,0,,,,,,391134,,,,,,,
23546,set_tempo,4,1,0,,,,,,392670,,,,,,,
23551,set_tempo,5,1,0,,,,,,394218,,,,,,,
23556,set_tempo,5,1,0,,,,,,395778,,,,,,,
23561,set_tempo,5,1,0,,,,,,397351,,,,,,,
23565,note_on,45,0,2,,,,,,,,,0,,,69,0
23566,set_tempo,5,1,0,,,,,,398936,,,,,,,
23568,note_on,3,0,2,,,,,,,,,0,,,77,100
23570,set_tempo,4,1,0,,,,,,400534,,,,,,,
23575,set_tempo,5,1,0,,,,,,402145,,,,,,,
23580,set_tempo,5,1,0,,,,,,403769,,,,,,,
23585,set_tempo,5,1,0,,,,,,405405,,,,,,,
23590,set_tempo,5,1,0,,,,,,407056,,,,,,,
23594,set_tempo,4,1,0,,,,,,408719,,,,,,,
23599,set_tempo,5,1,0,,,,,,410397,,,,,,,
23604,set_tempo,5,1,0,,,,,,412088,,,,,,,
23609,set_tempo,5,1,0,,,,,,413793,,,,,,,
23613,note_on,45,0,2,,,,,,,,,0,,,77,0
23614,set_tempo,5,1,0,,,,,,415512,,,,,,,
23616,note_on,3,0,2,,,,,,,,,0,,,81,100
23618,set_tempo,4,1,0,,,,,,417246,,,,,,,
23623,set_tempo,5,1,0,,,,,,418994,,,,,,,
23628,set_tempo,5,1,0,,,,,,420757,,,,,,,
23633,set_tempo,5,1,0,,,,,,422535,,,,,,,
23638,set_tempo,5,1,0,,,,,,424328,,,,,,,
23642,set_tempo,4,1,0,,,,,,426136,,,,,,,
23647,set_tempo,5,1,0,,,,,,427960,,,,,,,
23652,set_tempo,5,1,0,,,,,,429799,,,,,,,
23657,set_tempo,5,1,0,,,,,,431655,,,,,,,
23661,note_on,45,0,2,,,,,,,,,0,,,81,0
23662,set_tempo,5,1,0,,,,,,433526,,,,,,,
23664,note_on,3,0,2,,,,,,,,,0,,,84,100
23666,set_tempo,4,1,0,,,,,,435414,,,,,,,
23671,set_tempo,5,1,0,,,,,,437318,,,,,,,
23676,set_tempo,5,1,0,,,,,,439239,,,,,,,
23681,set_tempo,5,1,0,,,,,,441176,,,,,,,
23686,set_tempo,5,1,0,,,,,,443131,,,,,,,
23690,set_tempo,4,1,0,,,,,,445104,,,,,,,
23695,set_tempo,5,1,0,,,,,,447094,,,,,,,
23700,set_tempo,5,1,0,,,,,,449102,,,,,,,
23705,set_tempo,5,1,0,,,,,,451128,,,,,,,
23709,note_on,45,0,2,,,,,,,,,0,,,84,0
23710,set_tempo,5,1,0,,,,,,453172,,,,,,,
23712,note_on,0,0,4,,,,,,,,,0,,,41,0
23712,note_on,3,0,2,,,,,,,,,0,,,89,100
23712,note_on,626,0,4,,,,,,,,,0,,,29,0
23712,note_on,0,0,4,,,,,,,,,0,,,36,0
23712,note_on,0,0,4,,,,,,,,,0,,,33,0
23714,set_tempo,4,1,0,,,,,,455235,,,,,,,
23719,set_tempo,5,1,0,,,,,,457317,,,,,,,
23724,set_tempo,5,1,0,,,,,,459418,,,,,,,
23729,set_tempo,5,1,0,,,,,,461538,,,,,,,
23734,set_tempo,5,1,0,,,,,,463679,,,,,,,
23738,set_tempo,4,1,0,,,,,,465839,,,,,,,
23743,set_tempo,5,1,0,,,,,,468019,,,,,,,
23748,set_tempo,5,1,0,,,,,,470219,,,,,,,
23753,set_tempo,5,1,0,,,,,,472441,,,,,,,
23757,note_on,45,0,2,,,,,,,,,0,,,89,0
23758,set_tempo,5,1,0,,,,,,474684,,,,,,,
23760,note_on,48,0,4,,,,,,,,,0,,,36,100
23760,note_on,0,0,4,,,,,,,,,0,,,29,100
23760,note_on,0,0,4,,,,,,,,,0,,,33,100
23760,note_on,3,0,2,,,,,,,,,0,,,93,100
23760,note_on,0,0,4,,,,,,,,,0,,,41,100
23762,set_tempo,4,1,0,,,,,,476948,,,,,,,
23767,set_tempo,5,1,0,,,,,,479233,,,,,,,
23772,set_tempo,5,1,0,,,,,,481541,,,,,,,
23777,set_tempo,5,1,0,,,,,,483871,,,,,,,
23782,set_tempo,5,1,0,,,,,,486224,,,,,,,
23786,set_tempo,4,1,0,,,,,,488599,,,,,,,
23791,set_tempo,5,1,0,,,,,,490998,,,,,,,
23796,set_tempo,5,1,0,,,,,,493421,,,,,,,
23801,set_tempo,5,1,0,,,,,,495868,,,,,,,
23806,set_tempo,5,1,0,,,,,,498339,,,,,,,
23808,note_on,48,0,2,,,,,,,,,0,,,93,0
23810,set_tempo,4,1,0,,,,,,500835,,,,,,,
23815,set_tempo,5,1,0,,,,,,503356,,,,,,,
23820,note_on,12,0,2,,,,,,,,,0,,,96,100
23820,set_tempo,5,1,0,,,,,,505902,,,,,,,
23825,set_tempo,5,1,0,,,,,,508475,,,,,,,
23830,set_tempo,5,1,0,,,,,,511073,,,,,,,
23834,set_tempo,4,1,0,,,,,,513699,,,,,,,
23839,set_tempo,5,1,0,,,,,,516351,,,,,,,
23844,set_tempo,5,1,0,,,,,,519031,,,,,,,
23849,set_tempo,5,1,0,,,,,,521739,,,,,,,
23854,set_tempo,5,1,0,,,,,,524476,,,,,,,
23858,set_tempo,4,1,0,,,,,,527241,,,,,,,
23863,set_tempo,5,1,0,,,,,,530035,,,,,,,
23868,note_on,48,0,2,,,,,,,,,0,,,96,0
23868,set_tempo,5,1,0,,,,,,532860,,,,,,,
23873,set_tempo,5,1,0,,,,,,535714,,,,,,,
23878,set_tempo,5,1,0,,,,,,538600,,,,,,,
23880,note_on,12,0,2,,,,,,,,,0,,,89,100
23882,set_tempo,4,1,0,,,,,,541516,,,,,,,
23887,set_tempo,5,1,0,,,,,,544465,,,,,,,
23892,set_tempo,5,1,0,,,,,,547445,,,,,,,
23897,set_tempo,5,1,0,,,,,,550459,,,,,,,
23902,set_tempo,5,1,0,,,,,,553506,,,,,,,
23906,set_tempo,4,1,0,,,,,,556586,,,,,,,
23911,set_tempo,5,1,0,,,,,,559701,,,,,,,
23916,set_tempo,5,1,0,,,,,,562852,,,,,,,
23921,set_tempo,5,1,0,,,,,,566038,,,,,,,
23926,set_tempo,5,1,0,,,,,,569260,,,,,,,
23928,note_on,48,0,2,,,,,,,,,0,,,89,0
23930,set_tempo,4,1,0,,,,,,572519,,,,,,,
23935,set_tempo,5,1,0,,,,,,575816,,,,,,,
23940,set_tempo,5,1,0,,,,,,579151,,,,,,,
23940,note_on,12,0,2,,,,,,,,,0,,,84,100
23945,set_tempo,5,1,0,,,,,,582524,,,,,,,
23950,set_tempo,5,1,0,,,,,,585938,,,,,,,
23952,note_on,192,0,4,,,,,,,,,0,,,33,0
23952,note_on,0,0,4,,,,,,,,,0,,,36,0
23952,note_on,0,0,4,,,,,,,,,0,,,41,0
23952,note_on,0,0,4,,,,,,,,,0,,,29,0
23954,set_tempo,4,1,0,,,,,,589391,,,,,,,
23959,set_tempo,5,1,0,,,,,,592885,,,,,,,
23964,set_tempo,5,1,0,,,,,,596421,,,,,,,
23969,set_tempo,5,1,0,,,,,,600000,,,,,,,
23974,set_tempo,5,1,0,,,,,,603622,,,,,,,
23978,set_tempo,4,1,0,,,,,,607287,,,,,,,
23983,set_tempo,5,1,0,,,,,,610998,,,,,,,
23988,note_on,48,0,2,,,,,,,,,0,,,84,0
23988,set_tempo,5,1,0,,,,,,614754,,,,,,,
23993,set_tempo,5,1,0,,,,,,618557,,,,,,,
23998,set_tempo,5,1,0,,,,,,622407,,,,,,,
23999,set_tempo,1,1,0,,,,,,626305,,,,,,,
24000,note_on,0,0,4,,,,,,,,,0,,,29,100
24000,note_on,12,0,2,,,,,,,,,0,,,93,100
24000,note_on,48,0,4,,,,,,,,,0,,,41,100
24000,note_on,0,0,4,,,,,,,,,0,,,33,100
24000,note_on,0,0,4,,,,,,,,,0,,,36,100
24004,set_tempo,5,1,0,,,,,,626305,,,,,,,
24016,set_tempo,12,1,0,,,,,,630252,,,,,,,
24028,set_tempo,12,1,0,,,,,,634249,,,,,,,
24038,set_tempo,10,1,0,,,,,,638298,,,,,,,
24048,note_on,48,0,2,,,,,,,,,0,,,93,0
24050,set_tempo,12,1,0,,,,,,642398,,,,,,,
24059,set_tempo,9,1,0,,,,,,646552,,,,,,,
24060,note_on,12,0,2,,,,,,,,,0,,,96,100
24071,set_tempo,12,1,0,,,,,,650759,,,,,,,
24083,set_tempo,12,1,0,,,,,,655022,,,,,,,
24093,set_tempo,10,1,0,,,,,,659341,,,,,,,
24105,set_tempo,12,1,0,,,,,,663717,,,,,,,
24108,note_on,48,0,2,,,,,,,,,0,,,96,0
24114,set_tempo,9,1,0,,,,,,668151,,,,,,,
24120,note_on,12,0,2,,,,,,,,,0,,,89,100
24126,set_tempo,12,1,0,,,,,,672646,,,,,,,
24136,set_tempo,10,1,0,,,,,,677201,,,,,,,
24148,set_tempo,12,1,0,,,,,,681818,,,,,,,
24160,set_tempo,12,1,0,,,,,,686499,,,,,,,
24168,note_on,48,0,2,,,,,,,,,0,,,89,0
24170,set_tempo,10,1,0,,,,,,691244,,,,,,,
24180,note_on,12,0,2,,,,,,,,,0,,,84,100
24182,set_tempo,12,1,0,,,,,,696056,,,,,,,
24191,set_tempo,9,1,0,,,,,,700935,,,,,,,
24192,note_on,192,0,4,,,,,,,,,0,,,36,0
24192,note_on,0,0,4,,,,,,,,,0,,,29,0
24192,note_on,0,0,4,,,,,,,,,0,,,33,0
24192,note_on,0,0,4,,,,,,,,,0,,,41,0
24203,set_tempo,12,1,0,,,,,,705882,,,,,,,
24215,set_tempo,12,1,0,,,,,,710900,,,,,,,
24225,set_tempo,10,1,0,,,,,,715990,,,,,,,
24228,note_on,48,0,2,,,,,,,,,0,,,84,0
24237,set_tempo,12,1,0,,,,,,721154,,,,,,,
24240,note_on,0,0,4,,,,,,,,,0,,,29,100
24240,note_on,0,0,4,,,,,,,,,0,,,33,100
24240,note_on,0,0,4,,,,,,,,,0,,,41,100
24240,note_on,12,0,2,,,,,,,,,0,,,93,100
24240,note_on,48,0,4,,,,,,,,,0,,,36,100
24246,set_tempo,9,1,0,,,,,,726392,,,,,,,
24258,set_tempo,12,1,0,,,,,,731707,,,,,,,
24268,set_tempo,10,1,0,,,,,,737101,,,,,,,
24280,set_tempo,12,1,0,,,,,,742574,,,,,,,
24288,note_on,48,0,2,,,,,,,,,0,,,93,0
24292,set_tempo,12,1,0,,,,,,748130,,,,,,,
24300,note_on,12,0,2,,,,,,,,,0,,,98,100
24302,set_tempo,10,1,0,,,,,,753769,,,,,,,
24314,set_tempo,12,1,0,,,,,,759494,,,,,,,
24323,set_tempo,9,1,0,,,,,,765306,,,,,,,
24335,set_tempo,12,1,0,,,,,,771208,,,,,,,
24347,set_tempo,12,1,0,,,,,,777202,,,,,,,
24348,note_on,48,0,2,,,,,,,,,0,,,98,0
24357,set_tempo,10,1,0,,,,,,783290,,,,,,,
24360,note_on,12,0,2,,,,,,,,,0,,,89,100
24369,set_tempo,12,1,0,,,,,,789474,,,,,,,
24378,set_tempo,9,1,0,,,,,,795756,,,,,,,
24390,set_tempo,12,1,0,,,,,,802139,,,,,,,
24400,set_tempo,10,1,0,,,,,,808625,,,,,,,
24408,note_on,48,0,2,,,,,,,,,0,,,89,0
24412,set_tempo,12,1,0,,,,,,815217,,,,,,,
24420,note_on,12,0,2,,,,,,,,,0,,,84,100
24424,set_tempo,12,1,0,,,,,,821918,,,,,,,
24432,note_on,192,0,4,,,,,,,,,0,,,33,0
24432,note_on,0,0,4,,,,,,,,,0,,,36,0
24432,note_on,0,0,4,,,,,,,,,0,,,41,0
24432,note_on,0,0,4,,,,,,,,,0,,,29,0
24434,set_tempo,10,1,0,,,,,,828729,,,,,,,
24446,set_tempo,12,1,0,,,,,,835655,,,,,,,
24455,set_tempo,9,1,0,,,,,,842697,,,,,,,
24467,set_tempo,12,1,0,,,,,,849858,,,,,,,
24468,note_on,48,0,2,,,,,,,,,0,,,84,0
24468,end_of_track,0,1,2,,,,,,,,,,,,,
24477,set_tempo,10,1,0,,,,,,857143,,,,,,,
24482,end_of_track,0,1,0,,,,,,,,,,,,,
24482,set_tempo,5,1,0,,,,,,710900,,,,,,,
24554,control_change,122,0,4,,,,,,,,,0,64,0,,
24600,note_on,0,0,1,,,,,,,,,0,,,91,90
24600,note_on,0,0,4,,,,,,,,,0,,,40,90
24600,note_on,0,0,4,,,,,,,,,0,,,36,90
24600,note_on,0,0,4,,,,,,,,,0,,,43,90
24600,note_on,0,0,1,,,,,,,,,0,,,88,90
24600,note_on,9528,0,1,,,,,,,,,0,,,100,80
24600,note_on,46,0,4,,,,,,,,,0,,,48,90
25824,note_on,0,0,4,,,,,,,,,0,,,48,0
25824,note_on,0,0,4,,,,,,,,,0,,,40,0
25824,end_of_track,0,1,4,,,,,,,,,,,,,
25824,note_on,0,0,1,,,,,,,,,0,,,88,0
25824,note_on,1224,0,1,,,,,,,,,0,,,91,0
25824,note_on,1224,0,4,,,,,,,,,0,,,43,0
25824,end_of_track,0,1,1,,,,,,,,,,,,,
25824,note_on,0,0,1,,,,,,,,,0,,,100,0
25824,note_on,0,0,4,,,,,,,,,0,,,36,0
