tick,type,time,meta,track,numerator,denominator,clocks_per_click,notated_32nd_notes_per_beat,key,tempo,program,channel,control,value,note,velocity
0,control_change,0,0,1,,,,,,,,0,7,127,,
0,track_name,0,1,2,,,,,,,,,,,,
0,track_name,0,1,1,,,,,,,,,,,,
0,track_name,0,1,0,,,,,,,,,,,,
0,time_signature,0,1,0,6,8,12,8,,,,,,,,
0,set_tempo,0,1,0,,,,,,1071429,,,,,,
0,program_change,0,0,4,,,,,,,0,0,,,,
0,program_change,0,0,3,,,,,,,0,0,,,,
0,program_change,0,0,2,,,,,,,0,0,,,,
0,program_change,0,0,1,,,,,,,0,0,,,,
0,track_name,0,1,3,,,,,,,,,,,,
0,note_on,0,0,4,,,,,,,,0,,,69,57
0,note_on,0,0,4,,,,,,,,0,,,65,57
0,key_signature,0,1,0,,,,,C,,,,,,,
0,track_name,0,1,4,,,,,,,,,,,,
0,control_change,0,0,1,,,,,,,,0,10,63,,
0,control_change,0,0,2,,,,,,,,0,7,127,,
0,control_change,0,0,3,,,,,,,,0,10,63,,
0,control_change,0,0,2,,,,,,,,0,10,63,,
0,control_change,0,0,3,,,,,,,,0,7,127,,
0,control_change,0,0,4,,,,,,,,0,7,127,,
0,control_change,0,0,4,,,,,,,,0,10,63,,
0,control_change,0,0,4,,,,,,,,0,64,127,,
96,note_on,0,0,4,,,,,,,,0,,,69,0
96,note_on,96,0,4,,,,,,,,0,,,65,0
117,set_tempo,117,1,0,,,,,,1195219,,,,,,
120,note_on,120,0,3,,,,,,,,0,,,53,64
240,note_on,0,0,4,,,,,,,,0,,,65,57
240,note_on,144,0,4,,,,,,,,0,,,69,57
244,set_tempo,127,1,0,,,,,,1069138,,,,,,
336,note_on,0,0,4,,,,,,,,0,,,69,0
336,note_on,96,0,4,,,,,,,,0,,,65,0
360,note_on,0,0,4,,,,,,,,0,,,67,57
360,note_on,24,0,4,,,,,,,,0,,,64,57
456,note_on,0,0,4,,,,,,,,0,,,64,0
456,note_on,96,0,4,,,,,,,,0,,,67,0
480,note_on,0,0,4,,,,,,,,0,,,62,57
480,note_on,24,0,4,,,,,,,,0,,,65,57
504,note_on,384,0,3,,,,,,,,0,,,53,0
520,control_change,40,0,4,,,,,,,,0,64,0,,
560,control_change,40,0,4,,,,,,,,0,64,127,,
576,note_on,0,0,4,,,,,,,,0,,,65,0
576,note_on,16,0,4,,,,,,,,0,,,62,0
597,set_tempo,353,1,0,,,,,,1160991,,,,,,
600,note_on,96,0,3,,,,,,,,0,,,53,64
720,note_on,0,0,4,,,,,,,,0,,,65,57
720,note_on,144,0,4,,,,,,,,0,,,62,57
724,set_tempo,127,1,0,,,,,,1069138,,,,,,
816,note_on,0,0,4,,,,,,,,0,,,62,0
816,note_on,96,0,4,,,,,,,,0,,,65,0
840,note_on,24,0,4,,,,,,,,0,,,64,57
840,note_on,0,0,4,,,,,,,,0,,,60,57
936,note_on,0,0,4,,,,,,,,0,,,64,0
936,note_on,96,0,4,,,,,,,,0,,,60,0
960,note_on,24,0,4,,,,,,,,0,,,62,57
960,note_on,0,0,4,,,,,,,,0,,,58,57
1008,note_on,408,0,3,,,,,,,,0,,,53,0
1056,note_on,96,0,4,,,,,,,,0,,,58,0
1056,note_on,0,0,4,,,,,,,,0,,,62,0
1077,set_tempo,353,1,0,,,,,,1113173,,,,,,
1080,note_on,72,0,3,,,,,,,,0,,,53,64
1080,control_change,24,0,4,,,,,,,,0,64,0,,
1149,control_change,69,0,4,,,,,,,,0,64,127,,
1195,set_tempo,118,1,0,,,,,,1069138,,,,,,
1200,note_on,51,0,4,,,,,,,,0,,,62,57
1200,note_on,0,0,4,,,,,,,,0,,,58,57
1296,note_on,0,0,4,,,,,,,,0,,,62,0
1296,note_on,96,0,4,,,,,,,,0,,,58,0
1320,note_on,24,0,4,,,,,,,,0,,,60,57
1320,note_on,0,0,4,,,,,,,,0,,,57,57
1368,note_on,288,0,3,,,,,,,,0,,,53,0
1416,note_on,96,0,4,,,,,,,,0,,,57,0
1416,note_on,0,0,4,,,,,,,,0,,,60,0
1435,set_tempo,240,1,0,,,,,,1069138,,,,,,
1440,control_change,24,0,4,,,,,,,,0,64,0,,
1440,note_on,0,0,4,,,,,,,,0,,,56,57
1440,note_on,72,0,3,,,,,,,,0,,,59,64
1497,control_change,57,0,4,,,,,,,,0,64,127,,
1536,note_on,39,0,4,,,,,,,,0,,,56,0
1560,note_on,24,0,4,,,,,,,,0,,,55,57
1614,set_tempo,179,1,0,,,,,,1055223,,,,,,
1656,note_on,96,0,4,,,,,,,,0,,,55,0
1675,set_tempo,61,1,0,,,,,,1015572,,,,,,
1680,note_on,0,0,4,,,,,,,,0,,,53,57
1680,set_tempo,5,1,0,,,,,,1028454,,,,,,
1680,note_on,24,0,4,,,,,,,,0,,,50,57
1706,set_tempo,26,1,0,,,,,,1041667,,,,,,
1728,note_on,288,0,3,,,,,,,,0,,,59,0
1732,set_tempo,26,1,0,,,,,,1055223,,,,,,
1758,set_tempo,26,1,0,,,,,,1069138,,,,,,
1776,note_on,0,0,4,,,,,,,,0,,,50,0
1776,note_on,96,0,4,,,,,,,,0,,,53,0
1784,set_tempo,26,1,0,,,,,,1083424,,,,,,
1800,note_on,72,0,3,,,,,,,,0,,,58,64
1800,note_on,24,0,4,,,,,,,,0,,,53,57
1800,note_on,0,0,4,,,,,,,,0,,,49,57
1810,set_tempo,26,1,0,,,,,,1098097,,,,,,
1841,set_tempo,31,1,0,,,,,,1113173,,,,,,
1867,set_tempo,26,1,0,,,,,,1128668,,,,,,
1893,set_tempo,26,1,0,,,,,,1144601,,,,,,
1896,note_on,96,0,4,,,,,,,,0,,,49,0
1896,note_on,0,0,4,,,,,,,,0,,,53,0
1920,set_tempo,27,1,0,,,,,,1160991,,,,,,
1920,note_on,0,0,4,,,,,,,,0,,,48,57
1920,note_on,24,0,4,,,,,,,,0,,,52,57
1946,set_tempo,26,1,0,,,,,,1177856,,,,,,
1972,set_tempo,26,1,0,,,,,,1195219,,,,,,
1992,note_on,192,0,3,,,,,,,,0,,,58,0
2002,set_tempo,30,1,0,,,,,,1213101,,,,,,
2016,note_on,96,0,4,,,,,,,,0,,,48,0
2016,note_on,0,0,4,,,,,,,,0,,,52,0
2029,set_tempo,27,1,0,,,,,,1231527,,,,,,
2040,note_on,0,0,4,,,,,,,,0,,,55,57
2040,note_on,48,0,3,,,,,,,,0,,,60,64
2040,note_on,24,0,4,,,,,,,,0,,,52,57
2055,set_tempo,26,1,0,,,,,,1250521,,,,,,
2081,set_tempo,26,1,0,,,,,,1270110,,,,,,
2107,set_tempo,26,1,0,,,,,,1290323,,,,,,
2133,set_tempo,26,1,0,,,,,,1311189,,,,,,
2136,note_on,0,0,4,,,,,,,,0,,,52,0
2136,note_on,96,0,4,,,,,,,,0,,,55,0
2136,note_on,96,0,3,,,,,,,,0,,,60,0
2160,control_change,24,0,4,,,,,,,,0,64,0,,
2160,note_on,0,0,4,,,,,,,,0,,,57,57
2160,note_on,0,0,4,,,,,,,,0,,,53,57
2164,set_tempo,31,1,0,,,,,,1028454,,,,,,
2233,control_change,73,0,4,,,,,,,,0,64,127,,
2256,note_on,23,0,4,,,,,,,,0,,,53,0
2256,note_on,0,0,4,,,,,,,,0,,,57,0
2280,note_on,144,0,3,,,,,,,,0,,,53,64
2400,note_on,0,0,4,,,,,,,,0,,,69,57
2400,note_on,144,0,4,,,,,,,,0,,,65,57
2496,note_on,96,0,4,,,,,,,,0,,,69,0
2496,note_on,0,0,4,,,,,,,,0,,,65,0
2517,set_tempo,353,1,0,,,,,,1055223,,,,,,
2520,note_on,2520,0,2,,,,,,,,0,,,69,72
2520,note_on,0,0,4,,,,,,,,0,,,64,57
2520,note_on,24,0,4,,,,,,,,0,,,67,57
2520,note_on,0,0,2,,,,,,,,0,,,81,72
2570,set_tempo,53,1,0,,,,,,1069138,,,,,,
2616,note_on,0,0,4,,,,,,,,0,,,67,0
2616,note_on,96,0,4,,,,,,,,0,,,64,0
2622,set_tempo,52,1,0,,,,,,1083424,,,,,,
2640,note_on,24,0,4,,,,,,,,0,,,65,57
2640,note_on,0,0,4,,,,,,,,0,,,62,57
2653,control_change,13,0,4,,,,,,,,0,64,0,,
2664,note_on,384,0,3,,,,,,,,0,,,53,0
2674,set_tempo,52,1,0,,,,,,1098097,,,,,,
2720,control_change,67,0,4,,,,,,,,0,64,127,,
2722,set_tempo,48,1,0,,,,,,1113173,,,,,,
2736,note_on,16,0,4,,,,,,,,0,,,62,0
2736,note_on,0,0,4,,,,,,,,0,,,65,0
2760,note_on,96,0,3,,,,,,,,0,,,53,64
2775,set_tempo,53,1,0,,,,,,1128668,,,,,,
2827,set_tempo,52,1,0,,,,,,1144601,,,,,,
2875,set_tempo,48,1,0,,,,,,1015572,,,,,,
2880,note_on,144,0,4,,,,,,,,0,,,62,57
2880,note_on,0,0,4,,,,,,,,0,,,65,57
2976,note_on,96,0,4,,,,,,,,0,,,65,0
2976,note_on,0,0,4,,,,,,,,0,,,62,0
3000,note_on,24,0,4,,,,,,,,0,,,64,57
3000,note_on,0,0,4,,,,,,,,0,,,60,57
3096,note_on,96,0,4,,,,,,,,0,,,60,0
3096,note_on,0,0,4,,,,,,,,0,,,64,0
3120,note_on,0,0,4,,,,,,,,0,,,58,57
3120,note_on,24,0,4,,,,,,,,0,,,62,57
3168,note_on,408,0,3,,,,,,,,0,,,53,0
3168,note_on,648,0,2,,,,,,,,0,,,81,0
3168,note_on,0,0,2,,,,,,,,0,,,69,0
3216,note_on,96,0,4,,,,,,,,0,,,58,0
3216,note_on,0,0,4,,,,,,,,0,,,62,0
3240,note_on,72,0,2,,,,,,,,0,,,82,72
3240,note_on,72,0,3,,,,,,,,0,,,53,64
3240,note_on,0,0,2,,,,,,,,0,,,70,72
3269,control_change,53,0,4,,,,,,,,0,64,0,,
3320,control_change,51,0,4,,,,,,,,0,64,127,,
3360,note_on,0,0,4,,,,,,,,0,,,62,57
3360,note_on,40,0,4,,,,,,,,0,,,58,57
3432,note_on,0,0,2,,,,,,,,0,,,82,0
3432,note_on,192,0,2,,,,,,,,0,,,70,0
3456,note_on,0,0,4,,,,,,,,0,,,58,0
3456,note_on,96,0,4,,,,,,,,0,,,62,0
3480,note_on,48,0,2,,,,,,,,0,,,72,72
3480,note_on,24,0,4,,,,,,,,0,,,60,57
3480,note_on,0,0,2,,,,,,,,0,,,84,72
3480,note_on,0,0,4,,,,,,,,0,,,57,57
3528,note_on,288,0,3,,,,,,,,0,,,53,0
3576,note_on,0,0,4,,,,,,,,0,,,60,0
3576,note_on,0,0,2,,,,,,,,0,,,72,0
3576,note_on,96,0,2,,,,,,,,0,,,84,0
3576,note_on,96,0,4,,,,,,,,0,,,57,0
3600,note_on,0,0,2,,,,,,,,0,,,86,72
3600,note_on,72,0,3,,,,,,,,0,,,59,54
3600,control_change,24,0,4,,,,,,,,0,64,0,,
3600,note_on,0,0,4,,,,,,,,0,,,56,57
3600,note_on,24,0,2,,,,,,,,0,,,74,72
3669,control_change,69,0,4,,,,,,,,0,64,127,,
3696,note_on,27,0,4,,,,,,,,0,,,56,0
3720,note_on,24,0,4,,,,,,,,0,,,55,57
3792,note_on,192,0,2,,,,,,,,0,,,86,0
3792,note_on,0,0,2,,,,,,,,0,,,74,0
3816,note_on,96,0,4,,,,,,,,0,,,55,0
3840,note_on,24,0,4,,,,,,,,0,,,53,57
3840,note_on,48,0,2,,,,,,,,0,,,89,72
3840,note_on,0,0,4,,,,,,,,0,,,50,57
3840,note_on,0,0,2,,,,,,,,0,,,77,72
3844,set_tempo,969,1,0,,,,,,1028454,,,,,,
3870,set_tempo,26,1,0,,,,,,1041667,,,,,,
3888,note_on,288,0,3,,,,,,,,0,,,59,0
3892,set_tempo,22,1,0,,,,,,1055223,,,,,,
3918,set_tempo,26,1,0,,,,,,1069138,,,,,,
3936,note_on,96,0,2,,,,,,,,0,,,77,0
3936,note_on,0,0,4,,,,,,,,0,,,53,0
3936,note_on,96,0,4,,,,,,,,0,,,50,0
3936,note_on,0,0,2,,,,,,,,0,,,89,0
3940,set_tempo,22,1,0,,,,,,1083424,,,,,,
3949,control_change,13,0,4,,,,,,,,0,64,0,,
3960,note_on,0,0,2,,,,,,,,0,,,88,72
3960,note_on,72,0,3,,,,,,,,0,,,58,54
3960,note_on,11,0,4,,,,,,,,0,,,49,57
3960,note_on,0,0,4,,,,,,,,0,,,53,57
3960,note_on,24,0,2,,,,,,,,0,,,76,72
3962,set_tempo,22,1,0,,,,,,1098097,,,,,,
3983,control_change,23,0,4,,,,,,,,0,64,127,,
3988,set_tempo,26,1,0,,,,,,1113173,,,,,,
4010,set_tempo,22,1,0,,,,,,1128668,,,,,,
4036,set_tempo,26,1,0,,,,,,1144601,,,,,,
4056,note_on,73,0,4,,,,,,,,0,,,53,0
4056,note_on,0,0,4,,,,,,,,0,,,49,0
4058,set_tempo,22,1,0,,,,,,1160991,,,,,,
4080,set_tempo,22,1,0,,,,,,1177856,,,,,,
4080,note_on,24,0,4,,,,,,,,0,,,52,57
4080,note_on,0,0,4,,,,,,,,0,,,48,57
4106,set_tempo,26,1,0,,,,,,1195219,,,,,,
4128,set_tempo,22,1,0,,,,,,1213101,,,,,,
4152,note_on,192,0,2,,,,,,,,0,,,88,0
4152,note_on,192,0,3,,,,,,,,0,,,58,0
4152,note_on,0,0,2,,,,,,,,0,,,76,0
4154,set_tempo,26,1,0,,,,,,1231527,,,,,,
4176,note_on,0,0,4,,,,,,,,0,,,52,0
4176,set_tempo,22,1,0,,,,,,1250521,,,,,,
4176,note_on,96,0,4,,,,,,,,0,,,48,0
4197,set_tempo,21,1,0,,,,,,1270110,,,,,,
4200,note_on,48,0,3,,,,,,,,0,,,60,54
4200,note_on,48,0,2,,,,,,,,0,,,91,72
4200,note_on,24,0,4,,,,,,,,0,,,52,57
4200,note_on,0,0,2,,,,,,,,0,,,79,72
4224,set_tempo,27,1,0,,,,,,1290323,,,,,,
4245,set_tempo,21,1,0,,,,,,1311189,,,,,,
4272,set_tempo,27,1,0,,,,,,1332741,,,,,,
4293,set_tempo,21,1,0,,,,,,1355014,,,,,,
4296,note_on,96,0,4,,,,,,,,0,,,52,0
4296,note_on,96,0,3,,,,,,,,0,,,60,0
4296,note_on,96,0,2,,,,,,,,0,,,79,0
4296,note_on,0,0,2,,,,,,,,0,,,91,0
4315,set_tempo,22,1,0,,,,,,1003009,,,,,,
4320,note_on,0,0,2,,,,,,,,0,,,81,72
4320,note_on,0,0,4,,,,,,,,0,,,57,57
4320,control_change,24,0,4,,,,,,,,0,64,0,,
4320,note_on,0,0,4,,,,,,,,0,,,53,57
4320,note_on,24,0,2,,,,,,,,0,,,93,72
4373,control_change,53,0,4,,,,,,,,0,64,127,,
4416,note_on,0,0,4,,,,,,,,0,,,57,0
4416,note_on,43,0,4,,,,,,,,0,,,53,0
4440,note_on,144,0,3,,,,,,,,0,,,45,64
4560,note_on,0,0,4,,,,,,,,0,,,53,57
4560,note_on,144,0,4,,,,,,,,0,,,57,57
4608,note_on,0,0,2,,,,,,,,0,,,93,0
4608,note_on,288,0,2,,,,,,,,0,,,81,0
4656,note_on,96,0,4,,,,,,,,0,,,53,0
4656,note_on,0,0,4,,,,,,,,0,,,57,0
4680,note_on,72,0,2,,,,,,,,0,,,93,72
4680,note_on,0,0,2,,,,,,,,0,,,81,72
4680,note_on,0,0,4,,,,,,,,0,,,55,57
4680,note_on,24,0,4,,,,,,,,0,,,52,57
4776,note_on,0,0,4,,,,,,,,0,,,52,0
4776,note_on,96,0,4,,,,,,,,0,,,55,0
4800,note_on,0,0,4,,,,,,,,0,,,50,57
4800,note_on,24,0,4,,,,,,,,0,,,53,57
4824,note_on,384,0,3,,,,,,,,0,,,45,0
4896,note_on,0,0,4,,,,,,,,0,,,53,0
4896,note_on,96,0,4,,,,,,,,0,,,50,0
4920,note_on,96,0,3,,,,,,,,0,,,45,64
4967,control_change,71,0,4,,,,,,,,0,64,0,,
5040,note_on,0,0,4,,,,,,,,0,,,49,57
5040,note_on,0,0,4,,,,,,,,0,,,52,57
5040,control_change,73,0,4,,,,,,,,0,64,127,,
5136,note_on,216,0,3,,,,,,,,0,,,45,0
5136,note_on,96,0,4,,,,,,,,0,,,49,0
5136,note_on,0,0,4,,,,,,,,0,,,52,0
5160,note_on,24,0,3,,,,,,,,0,,,45,64
5173,control_change,37,0,4,,,,,,,,0,64,0,,
5231,control_change,58,0,4,,,,,,,,0,64,127,,
5232,note_on,0,0,2,,,,,,,,0,,,93,0
5232,note_on,552,0,2,,,,,,,,0,,,81,0
5280,note_on,0,0,4,,,,,,,,0,,,55,57
5280,note_on,49,0,4,,,,,,,,0,,,58,57
5280,note_on,48,0,2,,,,,,,,0,,,81,72
5280,note_on,0,0,2,,,,,,,,0,,,93,72
5376,note_on,96,0,2,,,,,,,,0,,,93,0
5376,note_on,0,0,4,,,,,,,,0,,,58,0
5376,note_on,0,0,2,,,,,,,,0,,,81,0
5376,note_on,96,0,4,,,,,,,,0,,,55,0
5400,note_on,0,0,2,,,,,,,,0,,,83,72
5400,note_on,24,0,4,,,,,,,,0,,,57,57
5400,note_on,0,0,4,,,,,,,,0,,,53,57
5400,note_on,24,0,2,,,,,,,,0,,,95,72
5496,note_on,96,0,4,,,,,,,,0,,,53,0
5496,note_on,0,0,4,,,,,,,,0,,,57,0
5520,note_on,0,0,4,,,,,,,,0,,,52,57
5520,note_on,24,0,4,,,,,,,,0,,,55,57
5544,note_on,384,0,3,,,,,,,,0,,,45,0
5592,note_on,192,0,2,,,,,,,,0,,,83,0
5592,note_on,0,0,2,,,,,,,,0,,,95,0
5616,note_on,96,0,4,,,,,,,,0,,,52,0
5616,note_on,0,0,4,,,,,,,,0,,,55,0
5640,note_on,24,0,4,,,,,,,,0,,,45,57
5640,note_on,48,0,2,,,,,,,,0,,,97,72
5640,note_on,0,0,2,,,,,,,,0,,,85,72
5736,note_on,96,0,4,,,,,,,,0,,,45,0
5736,note_on,0,0,2,,,,,,,,0,,,97,0
5736,note_on,96,0,2,,,,,,,,0,,,85,0
5760,note_on,24,0,2,,,,,,,,0,,,98,72
5760,note_on,0,0,2,,,,,,,,0,,,86,72
5760,control_change,24,0,4,,,,,,,,0,64,0,,
5760,note_on,0,0,4,,,,,,,,0,,,50,57
5760,note_on,0,0,4,,,,,,,,0,,,53,57
5847,control_change,87,0,4,,,,,,,,0,64,127,,
5856,note_on,0,0,4,,,,,,,,0,,,50,0
5856,note_on,9,0,4,,,,,,,,0,,,53,0
5880,note_on,24,0,4,,,,,,,,0,,,38,57
5952,note_on,0,0,2,,,,,,,,0,,,98,0
5952,note_on,192,0,2,,,,,,,,0,,,86,0
5976,note_on,96,0,4,,,,,,,,0,,,38,0
6000,note_on,24,0,4,,,,,,,,0,,,52,57
6000,note_on,48,0,2,,,,,,,,0,,,100,72
6000,note_on,0,0,2,,,,,,,,0,,,88,72
6000,note_on,0,0,4,,,,,,,,0,,,55,57
6096,note_on,0,0,4,,,,,,,,0,,,52,0
6096,note_on,0,0,2,,,,,,,,0,,,100,0
6096,note_on,96,0,4,,,,,,,,0,,,55,0
6096,note_on,96,0,2,,,,,,,,0,,,88,0
6113,control_change,17,0,4,,,,,,,,0,64,0,,
6120,note_on,0,0,3,,,,,,,,0,,,57,64
6120,note_on,0,0,2,,,,,,,,0,,,101,72
6120,note_on,576,0,3,,,,,,,,0,,,53,64
6120,note_on,24,0,2,,,,,,,,0,,,89,72
6193,control_change,80,0,4,,,,,,,,0,64,127,,
6240,note_on,47,0,4,,,,,,,,0,,,50,57
6336,note_on,96,0,4,,,,,,,,0,,,50,0
6360,note_on,24,0,4,,,,,,,,0,,,48,57
6408,note_on,288,0,3,,,,,,,,0,,,53,0
6456,note_on,96,0,4,,,,,,,,0,,,48,0
6480,note_on,0,0,4,,,,,,,,0,,,47,72
6480,control_change,24,0,4,,,,,,,,0,64,0,,
6529,control_change,49,0,4,,,,,,,,0,64,127,,
6576,note_on,168,0,3,,,,,,,,0,,,57,0
6600,note_on,24,0,3,,,,,,,,0,,,56,72
6672,note_on,552,0,2,,,,,,,,0,,,101,0
6672,note_on,0,0,2,,,,,,,,0,,,89,0
6696,note_on,96,0,3,,,,,,,,0,,,56,0
6720,note_on,24,0,3,,,,,,,,0,,,55,72
6720,note_on,48,0,2,,,,,,,,0,,,88,72
6720,note_on,0,0,2,,,,,,,,0,,,100,72
6768,note_on,239,0,4,,,,,,,,0,,,47,0
6816,note_on,96,0,3,,,,,,,,0,,,55,0
6816,note_on,96,0,2,,,,,,,,0,,,100,0
6816,note_on,0,0,2,,,,,,,,0,,,88,0
6828,set_tempo,2513,1,0,,,,,,978793,,,,,,
6832,set_tempo,4,1,0,,,,,,990753,,,,,,
6837,set_tempo,5,1,0,,,,,,1003009,,,,,,
6840,note_on,24,0,3,,,,,,,,0,,,53,72
6840,note_on,0,0,4,,,,,,,,0,,,47,72
6840,note_on,72,0,4,,,,,,,,0,,,43,72
6840,note_on,24,0,2,,,,,,,,0,,,98,72
6840,note_on,0,0,2,,,,,,,,0,,,86,72
6841,set_tempo,4,1,0,,,,,,1015572,,,,,,
6850,set_tempo,9,1,0,,,,,,1028454,,,,,,
6851,control_change,11,0,4,,,,,,,,0,64,0,,
6859,set_tempo,9,1,0,,,,,,1041667,,,,,,
6867,set_tempo,8,1,0,,,,,,1055223,,,,,,
6876,set_tempo,9,1,0,,,,,,1069138,,,,,,
6880,set_tempo,4,1,0,,,,,,1083424,,,,,,
6889,set_tempo,9,1,0,,,,,,1098097,,,,,,
6898,set_tempo,9,1,0,,,,,,1113173,,,,,,
6907,set_tempo,9,1,0,,,,,,1128668,,,,,,
6911,control_change,60,0,4,,,,,,,,0,64,127,,
6915,set_tempo,8,1,0,,,,,,1144601,,,,,,
6920,set_tempo,5,1,0,,,,,,1160991,,,,,,
6928,set_tempo,8,1,0,,,,,,1177856,,,,,,
6936,note_on,0,0,2,,,,,,,,0,,,98,0
6936,note_on,96,0,3,,,,,,,,0,,,53,0
6936,note_on,96,0,2,,,,,,,,0,,,86,0
6937,set_tempo,9,1,0,,,,,,1195219,,,,,,
6946,set_tempo,9,1,0,,,,,,1213101,,,,,,
6955,set_tempo,9,1,0,,,,,,1231527,,,,,,
6959,set_tempo,4,1,0,,,,,,1250521,,,,,,
6960,note_on,24,0,2,,,,,,,,0,,,100,72
6960,note_on,24,0,3,,,,,,,,0,,,55,72
6960,note_on,0,0,2,,,,,,,,0,,,88,72
6968,set_tempo,9,1,0,,,,,,1270110,,,,,,
6976,set_tempo,8,1,0,,,,,,1290323,,,,,,
6985,set_tempo,9,1,0,,,,,,1311189,,,,,,
6994,set_tempo,9,1,0,,,,,,1332741,,,,,,
6998,set_tempo,4,1,0,,,,,,1355014,,,,,,
7007,set_tempo,9,1,0,,,,,,1378043,,,,,,
7016,set_tempo,9,1,0,,,,,,1401869,,,,,,
7024,set_tempo,8,1,0,,,,,,1426534,,,,,,
7033,set_tempo,9,1,0,,,,,,1452081,,,,,,
7038,set_tempo,5,1,0,,,,,,1478561,,,,,,
7046,set_tempo,8,1,0,,,,,,1506024,,,,,,
7055,set_tempo,9,1,0,,,,,,1534527,,,,,,
7056,note_on,96,0,3,,,,,,,,0,,,55,0
7064,set_tempo,9,1,0,,,,,,1564129,,,,,,
7072,set_tempo,8,1,0,,,,,,1594896,,,,,,
7080,note_on,24,0,3,,,,,,,,0,,,53,72
7081,set_tempo,9,1,0,,,,,,1594896,,,,,,
7104,note_on,144,0,2,,,,,,,,0,,,88,0
7104,note_on,0,0,2,,,,,,,,0,,,100,0
7128,note_on,0,0,4,,,,,,,,0,,,43,0
7128,note_on,217,0,4,,,,,,,,0,,,47,0
7140,note_on,36,0,2,,,,,,,,0,,,98,72
7140,note_on,0,0,2,,,,,,,,0,,,86,72
7170,note_on,90,0,3,,,,,,,,0,,,36,72
7188,note_on,48,0,2,,,,,,,,0,,,86,0
7188,note_on,0,0,2,,,,,,,,0,,,98,0
7189,set_tempo,108,1,0,,,,,,1506024,,,,,,
7194,note_on,24,0,3,,,,,,,,0,,,53,0
7194,set_tempo,5,1,0,,,,,,1478561,,,,,,
7198,set_tempo,4,1,0,,,,,,1426534,,,,,,
7200,note_on,6,0,3,,,,,,,,0,,,52,72
7200,control_change,72,0,4,,,,,,,,0,64,0,,
7200,note_on,0,0,2,,,,,,,,0,,,96,72
7200,note_on,12,0,2,,,,,,,,0,,,84,72
7202,set_tempo,4,1,0,,,,,,1378043,,,,,,
7207,set_tempo,5,1,0,,,,,,1355014,,,,,,
7211,set_tempo,4,1,0,,,,,,1311189,,,,,,
7216,set_tempo,5,1,0,,,,,,1270110,,,,,,
7220,set_tempo,4,1,0,,,,,,1250521,,,,,,
7224,set_tempo,4,1,0,,,,,,1213101,,,,,,
7229,set_tempo,5,1,0,,,,,,1177856,,,,,,
7233,set_tempo,4,1,0,,,,,,1160991,,,,,,
7237,set_tempo,4,1,0,,,,,,1128668,,,,,,
7242,set_tempo,5,1,0,,,,,,1098097,,,,,,
7246,set_tempo,4,1,0,,,,,,1083424,,,,,,
7250,set_tempo,4,1,0,,,,,,1055223,,,,,,
7255,set_tempo,5,1,0,,,,,,1028454,,,,,,
7259,set_tempo,4,1,0,,,,,,1003009,,,,,,
7269,control_change,69,0,4,,,,,,,,0,64,127,,
7296,note_on,96,0,3,,,,,,,,0,,,52,0
7296,note_on,0,0,3,,,,,,,,0,,,36,0
7320,note_on,0,0,3,,,,,,,,0,,,58,64
7320,note_on,24,0,3,,,,,,,,0,,,55,64
7392,note_on,0,0,2,,,,,,,,0,,,84,0
7392,note_on,192,0,2,,,,,,,,0,,,96,0
7416,note_on,0,0,3,,,,,,,,0,,,55,0
7416,note_on,96,0,3,,,,,,,,0,,,58,0
7440,note_on,24,0,3,,,,,,,,0,,,54,64
7440,note_on,0,0,3,,,,,,,,0,,,57,64
7536,note_on,96,0,3,,,,,,,,0,,,57,0
7536,note_on,0,0,3,,,,,,,,0,,,54,0
7560,note_on,24,0,3,,,,,,,,0,,,62,64
7560,note_on,0,0,3,,,,,,,,0,,,58,64
7583,control_change,314,0,4,,,,,,,,0,64,0,,
7634,control_change,51,0,4,,,,,,,,0,64,127,,
7680,note_on,46,0,4,,,,,,,,0,,,55,72
7776,note_on,96,0,4,,,,,,,,0,,,55,0
7800,note_on,24,0,4,,,,,,,,0,,,53,72
7896,note_on,96,0,4,,,,,,,,0,,,53,0
7920,control_change,24,0,4,,,,,,,,0,64,0,,
7920,note_on,0,0,4,,,,,,,,0,,,52,72
7922,set_tempo,663,1,0,,,,,,1015572,,,,,,
7927,set_tempo,5,1,0,,,,,,990753,,,,,,
7977,control_change,57,0,4,,,,,,,,0,64,127,,
8016,note_on,0,0,3,,,,,,,,0,,,62,0
8016,note_on,456,0,3,,,,,,,,0,,,58,0
8040,note_on,0,0,3,,,,,,,,0,,,61,64
8040,note_on,24,0,3,,,,,,,,0,,,58,64
8101,set_tempo,174,1,0,,,,,,1003009,,,,,,
8136,note_on,96,0,3,,,,,,,,0,,,61,0
8136,note_on,0,0,3,,,,,,,,0,,,58,0
8160,note_on,24,0,3,,,,,,,,0,,,57,64
8160,note_on,0,0,3,,,,,,,,0,,,60,64
8208,note_on,231,0,4,,,,,,,,0,,,52,0
8256,note_on,0,0,3,,,,,,,,0,,,57,0
8256,note_on,96,0,3,,,,,,,,0,,,60,0
8276,set_tempo,175,1,0,,,,,,1015572,,,,,,
8280,note_on,0,0,4,,,,,,,,0,,,52,72
8280,note_on,24,0,3,,,,,,,,0,,,56,64
8280,note_on,0,0,3,,,,,,,,0,,,59,64
8280,note_on,72,0,4,,,,,,,,0,,,48,72
8298,set_tempo,22,1,0,,,,,,1028454,,,,,,
8320,set_tempo,22,1,0,,,,,,1041667,,,,,,
8337,set_tempo,17,1,0,,,,,,1055223,,,,,,
8359,set_tempo,22,1,0,,,,,,1069138,,,,,,
8376,note_on,0,0,3,,,,,,,,0,,,56,0
8376,note_on,96,0,3,,,,,,,,0,,,59,0
8376,set_tempo,17,1,0,,,,,,1083424,,,,,,
8398,set_tempo,22,1,0,,,,,,1098097,,,,,,
8400,note_on,0,0,3,,,,,,,,0,,,57,64
8400,note_on,24,0,3,,,,,,,,0,,,60,64
8416,set_tempo,18,1,0,,,,,,1113173,,,,,,
8437,set_tempo,21,1,0,,,,,,1128668,,,,,,
8451,control_change,171,0,4,,,,,,,,0,64,0,,
8455,set_tempo,18,1,0,,,,,,1144601,,,,,,
8477,set_tempo,22,1,0,,,,,,1160991,,,,,,
8496,note_on,0,0,3,,,,,,,,0,,,60,0
8496,note_on,96,0,3,,,,,,,,0,,,57,0
8498,set_tempo,21,1,0,,,,,,1177856,,,,,,
8516,set_tempo,18,1,0,,,,,,1195219,,,,,,
8520,note_on,0,0,3,,,,,,,,0,,,55,64
8520,note_on,24,0,3,,,,,,,,0,,,58,64
8538,set_tempo,22,1,0,,,,,,1213101,,,,,,
8555,set_tempo,17,1,0,,,,,,1231527,,,,,,
8568,note_on,0,0,4,,,,,,,,0,,,48,0
8568,note_on,117,0,4,,,,,,,,0,,,52,0
8577,set_tempo,22,1,0,,,,,,1250521,,,,,,
8594,set_tempo,17,1,0,,,,,,1270110,,,,,,
8616,note_on,0,0,3,,,,,,,,0,,,58,0
8616,note_on,96,0,3,,,,,,,,0,,,55,0
8616,set_tempo,22,1,0,,,,,,1290323,,,,,,
8634,set_tempo,18,1,0,,,,,,923077,,,,,,
8640,note_on,8640,0,1,,,,,,,,0,,,89,72
8640,note_on,24,0,3,,,,,,,,0,,,53,72
8640,note_on,0,0,1,,,,,,,,0,,,93,72
8640,note_on,0,0,3,,,,,,,,0,,,57,72
8733,control_change,165,0,4,,,,,,,,0,64,127,,
8736,note_on,96,0,1,,,,,,,,0,,,93,0
8736,note_on,0,0,1,,,,,,,,0,,,89,0
8760,note_on,24,0,1,,,,,,,,0,,,81,72
8832,note_on,192,0,3,,,,,,,,0,,,57,0
8832,note_on,0,0,3,,,,,,,,0,,,53,0
8856,note_on,96,0,1,,,,,,,,0,,,81,0
8880,note_on,0,0,1,,,,,,,,0,,,93,72
8880,note_on,24,0,1,,,,,,,,0,,,89,72
8976,note_on,0,0,1,,,,,,,,0,,,89,0
8976,note_on,96,0,1,,,,,,,,0,,,93,0
8993,control_change,260,0,4,,,,,,,,0,64,0,,
9000,note_on,7,0,4,,,,,,,,0,,,41,72
9000,note_on,24,0,1,,,,,,,,0,,,91,72
9000,note_on,168,0,3,,,,,,,,0,,,57,72
9000,note_on,0,0,1,,,,,,,,0,,,88,72
9087,control_change,87,0,4,,,,,,,,0,64,127,,
9096,note_on,9,0,4,,,,,,,,0,,,41,0
9096,note_on,0,0,1,,,,,,,,0,,,91,0
9096,note_on,96,0,1,,,,,,,,0,,,88,0
9120,note_on,24,0,1,,,,,,,,0,,,89,72
9120,note_on,0,0,1,,,,,,,,0,,,86,72
9216,note_on,0,0,1,,,,,,,,0,,,89,0
9216,note_on,96,0,1,,,,,,,,0,,,86,0
9240,note_on,24,0,1,,,,,,,,0,,,77,72
9336,note_on,96,0,1,,,,,,,,0,,,77,0
9360,note_on,24,0,1,,,,,,,,0,,,89,72
9360,note_on,0,0,1,,,,,,,,0,,,86,72
9456,note_on,96,0,1,,,,,,,,0,,,86,0
9456,note_on,0,0,1,,,,,,,,0,,,89,0
9480,note_on,24,0,1,,,,,,,,0,,,88,72
9480,note_on,0,0,1,,,,,,,,0,,,84,72
9576,note_on,96,0,1,,,,,,,,0,,,84,0
9576,note_on,0,0,1,,,,,,,,0,,,88,0
9600,note_on,24,0,1,,,,,,,,0,,,86,72
9600,note_on,0,0,1,,,,,,,,0,,,82,72
9648,note_on,648,0,3,,,,,,,,0,,,57,0
9696,note_on,96,0,1,,,,,,,,0,,,82,0
9696,note_on,0,0,1,,,,,,,,0,,,86,0
9709,control_change,613,0,4,,,,,,,,0,64,0,,
9720,note_on,0,0,1,,,,,,,,0,,,77,72
9720,note_on,72,0,3,,,,,,,,0,,,58,72
9720,note_on,11,0,4,,,,,,,,0,,,53,72
9720,note_on,24,0,1,,,,,,,,0,,,74,72
9771,control_change,51,0,4,,,,,,,,0,64,127,,
9816,note_on,45,0,4,,,,,,,,0,,,53,0
9816,note_on,0,0,1,,,,,,,,0,,,74,0
9816,note_on,96,0,1,,,,,,,,0,,,77,0
9840,note_on,0,0,1,,,,,,,,0,,,82,72
9840,note_on,24,0,1,,,,,,,,0,,,86,72
9912,note_on,192,0,3,,,,,,,,0,,,58,0
9936,note_on,0,0,1,,,,,,,,0,,,86,0
9936,note_on,96,0,1,,,,,,,,0,,,82,0
9960,note_on,0,0,1,,,,,,,,0,,,81,72
9960,note_on,24,0,1,,,,,,,,0,,,84,72
9960,note_on,48,0,3,,,,,,,,0,,,60,72
10050,note_on,234,0,4,,,,,,,,0,,,56,72
10056,note_on,96,0,1,,,,,,,,0,,,81,0
10056,note_on,96,0,3,,,,,,,,0,,,60,0
10056,note_on,0,0,1,,,,,,,,0,,,84,0
10080,control_change,30,0,4,,,,,,,,0,64,0,,
10080,note_on,2688,0,2,,,,,,,,0,,,77,72
10080,note_on,24,0,3,,,,,,,,0,,,62,72
10080,note_on,24,0,1,,,,,,,,0,,,83,72
10160,control_change,80,0,4,,,,,,,,0,64,127,,
10176,note_on,96,0,2,,,,,,,,0,,,77,0
10176,note_on,16,0,4,,,,,,,,0,,,56,0
10200,note_on,24,0,2,,,,,,,,0,,,74,72
10272,note_on,192,0,3,,,,,,,,0,,,62,0
10272,note_on,192,0,1,,,,,,,,0,,,83,0
10296,note_on,96,0,2,,,,,,,,0,,,74,0
10320,note_on,48,0,1,,,,,,,,0,,,79,72
10320,note_on,24,0,2,,,,,,,,0,,,71,72
10320,note_on,48,0,3,,,,,,,,0,,,65,72
10320,note_on,144,0,4,,,,,,,,0,,,55,72
10322,set_tempo,1688,1,0,,,,,,923077,,,,,,
10356,set_tempo,34,1,0,,,,,,933707,,,,,,
10387,set_tempo,31,1,0,,,,,,944584,,,,,,
10416,note_on,96,0,3,,,,,,,,0,,,65,0
10416,note_on,96,0,4,,,,,,,,0,,,55,0
10416,note_on,96,0,2,,,,,,,,0,,,71,0
10416,note_on,96,0,1,,,,,,,,0,,,79,0
10418,set_tempo,31,1,0,,,,,,955718,,,,,,
10440,note_on,24,0,2,,,,,,,,0,,,73,72
10440,note_on,24,0,3,,,,,,,,0,,,64,72
10440,note_on,0,0,1,,,,,,,,0,,,79,72
10440,note_on,24,0,4,,,,,,,,0,,,48,72
10440,note_on,24,0,1,,,,,,,,0,,,82,72
10451,control_change,11,0,4,,,,,,,,0,64,0,,
10452,set_tempo,34,1,0,,,,,,967118,,,,,,
10483,set_tempo,31,1,0,,,,,,978793,,,,,,
10514,set_tempo,31,1,0,,,,,,990753,,,,,,
10520,control_change,69,0,4,,,,,,,,0,64,127,,
10536,note_on,16,0,4,,,,,,,,0,,,48,0
10536,note_on,96,0,2,,,,,,,,0,,,73,0
10544,set_tempo,30,1,0,,,,,,1003009,,,,,,
10560,note_on,24,0,2,,,,,,,,0,,,72,72
10579,set_tempo,35,1,0,,,,,,1015572,,,,,,
10610,set_tempo,31,1,0,,,,,,1028454,,,,,,
10632,note_on,192,0,3,,,,,,,,0,,,64,0
10632,note_on,192,0,1,,,,,,,,0,,,79,0
10632,note_on,0,0,1,,,,,,,,0,,,82,0
10640,set_tempo,30,1,0,,,,,,1041667,,,,,,
10656,note_on,96,0,2,,,,,,,,0,,,72,0
10671,set_tempo,31,1,0,,,,,,1055223,,,,,,
10680,note_on,48,0,3,,,,,,,,0,,,67,72
10680,note_on,0,0,1,,,,,,,,0,,,76,72
10680,note_on,48,0,1,,,,,,,,0,,,84,72
10680,note_on,24,0,2,,,,,,,,0,,,70,72
10706,set_tempo,35,1,0,,,,,,1069138,,,,,,
10736,set_tempo,30,1,0,,,,,,1083424,,,,,,
10767,set_tempo,31,1,0,,,,,,1098097,,,,,,
10776,note_on,0,0,1,,,,,,,,0,,,84,0
10776,note_on,96,0,3,,,,,,,,0,,,67,0
10776,note_on,96,0,2,,,,,,,,0,,,70,0
10776,note_on,96,0,1,,,,,,,,0,,,76,0
10797,set_tempo,30,1,0,,,,,,933707,,,,,,
10800,note_on,0,0,4,,,,,,,,0,,,53,72
10800,note_on,24,0,1,,,,,,,,0,,,77,72
10800,control_change,264,0,4,,,,,,,,0,64,0,,
10800,note_on,0,0,1,,,,,,,,0,,,81,72
10800,note_on,24,0,3,,,,,,,,0,,,69,72
10880,control_change,80,0,4,,,,,,,,0,64,127,,
10896,note_on,16,0,4,,,,,,,,0,,,53,0
10896,note_on,96,0,3,,,,,,,,0,,,69,0
10896,note_on,96,0,1,,,,,,,,0,,,81,0
10896,note_on,0,0,1,,,,,,,,0,,,77,0
10920,note_on,24,0,1,,,,,,,,0,,,69,72
11016,note_on,96,0,1,,,,,,,,0,,,69,0
11040,note_on,24,0,1,,,,,,,,0,,,77,72
11040,note_on,0,0,1,,,,,,,,0,,,81,72
11136,note_on,0,0,1,,,,,,,,0,,,77,0
11136,note_on,96,0,1,,,,,,,,0,,,81,0
11160,note_on,24,0,1,,,,,,,,0,,,76,72
11160,control_change,264,0,4,,,,,,,,0,64,0,,
11160,note_on,264,0,3,,,,,,,,0,,,57,72
11160,note_on,0,0,4,,,,,,,,0,,,41,72
11160,note_on,0,0,1,,,,,,,,0,,,79,72
11227,control_change,67,0,4,,,,,,,,0,64,127,,
11256,note_on,0,0,1,,,,,,,,0,,,76,0
11256,note_on,29,0,4,,,,,,,,0,,,41,0
11256,note_on,96,0,1,,,,,,,,0,,,79,0
11280,note_on,0,0,1,,,,,,,,0,,,77,72
11280,note_on,24,0,1,,,,,,,,0,,,74,72
11376,note_on,96,0,1,,,,,,,,0,,,77,0
11376,note_on,0,0,1,,,,,,,,0,,,74,0
11400,note_on,24,0,1,,,,,,,,0,,,65,72
11496,note_on,96,0,1,,,,,,,,0,,,65,0
11520,note_on,0,0,1,,,,,,,,0,,,74,72
11520,note_on,24,0,1,,,,,,,,0,,,77,72
11616,note_on,96,0,1,,,,,,,,0,,,74,0
11616,note_on,0,0,1,,,,,,,,0,,,77,0
11640,note_on,24,0,1,,,,,,,,0,,,76,72
11640,note_on,0,0,1,,,,,,,,0,,,72,72
11736,note_on,96,0,1,,,,,,,,0,,,72,0
11736,note_on,0,0,1,,,,,,,,0,,,76,0
11760,note_on,24,0,1,,,,,,,,0,,,74,72
11760,note_on,0,0,1,,,,,,,,0,,,70,72
11808,note_on,648,0,3,,,,,,,,0,,,57,0
11856,note_on,0,0,1,,,,,,,,0,,,74,0
11856,note_on,96,0,1,,,,,,,,0,,,70,0
11880,note_on,72,0,3,,,,,,,,0,,,58,72
11880,note_on,24,0,1,,,,,,,,0,,,62,72
11880,note_on,0,0,1,,,,,,,,0,,,65,72
11880,note_on,624,0,4,,,,,,,,0,,,53,72
11880,control_change,0,0,4,,,,,,,,0,64,0,,
11966,control_change,86,0,4,,,,,,,,0,64,127,,
11976,note_on,96,0,1,,,,,,,,0,,,65,0
11976,note_on,10,0,4,,,,,,,,0,,,53,0
11976,note_on,0,0,1,,,,,,,,0,,,62,0
12000,note_on,24,0,1,,,,,,,,0,,,74,72
12000,note_on,0,0,1,,,,,,,,0,,,70,72
12072,note_on,192,0,3,,,,,,,,0,,,58,0
12096,note_on,0,0,1,,,,,,,,0,,,74,0
12096,note_on,96,0,1,,,,,,,,0,,,70,0
12120,note_on,24,0,1,,,,,,,,0,,,69,72
12120,note_on,48,0,3,,,,,,,,0,,,60,72
12120,note_on,0,0,1,,,,,,,,0,,,72,72
12216,note_on,96,0,1,,,,,,,,0,,,72,0
12216,note_on,96,0,3,,,,,,,,0,,,60,0
12216,note_on,0,0,1,,,,,,,,0,,,69,0
12240,note_on,24,0,3,,,,,,,,0,,,62,72
12240,note_on,24,0,1,,,,,,,,0,,,71,79
12240,note_on,1464,0,2,,,,,,,,0,,,65,72
12240,control_change,0,0,4,,,,,,,,0,64,0,,
12240,note_on,264,0,4,,,,,,,,0,,,56,72
12326,control_change,86,0,4,,,,,,,,0,64,127,,
12336,note_on,10,0,4,,,,,,,,0,,,56,0
12336,note_on,96,0,2,,,,,,,,0,,,65,0
12360,note_on,24,0,2,,,,,,,,0,,,62,72
12360,note_on,24,0,4,,,,,,,,0,,,55,72
12419,set_tempo,1622,1,0,,,,,,912686,,,,,,
12432,note_on,192,0,3,,,,,,,,0,,,62,0
12432,note_on,192,0,1,,,,,,,,0,,,71,0
12454,set_tempo,35,1,0,,,,,,923077,,,,,,
12456,note_on,96,0,4,,,,,,,,0,,,55,0
12456,note_on,96,0,2,,,,,,,,0,,,62,0
12480,note_on,24,0,2,,,,,,,,0,,,59,72
12480,note_on,24,0,4,,,,,,,,0,,,50,72
12480,note_on,48,0,3,,,,,,,,0,,,53,72
12480,note_on,48,0,1,,,,,,,,0,,,67,79
12489,set_tempo,35,1,0,,,,,,933707,,,,,,
12520,set_tempo,31,1,0,,,,,,944584,,,,,,
12555,set_tempo,35,1,0,,,,,,955718,,,,,,
12576,note_on,96,0,2,,,,,,,,0,,,59,0
12576,note_on,96,0,1,,,,,,,,0,,,67,0
12576,note_on,96,0,3,,,,,,,,0,,,53,0
12576,note_on,96,0,4,,,,,,,,0,,,50,0
12590,set_tempo,35,1,0,,,,,,967118,,,,,,
12600,note_on,24,0,3,,,,,,,,0,,,52,72
12600,note_on,24,0,2,,,,,,,,0,,,67,72
12600,note_on,24,0,1,,,,,,,,0,,,70,79
12600,note_on,24,0,4,,,,,,,,0,,,49,72
12611,control_change,11,0,4,,,,,,,,0,64,0,,
12620,set_tempo,30,1,0,,,,,,978793,,,,,,
12655,set_tempo,35,1,0,,,,,,990753,,,,,,
12680,control_change,69,0,4,,,,,,,,0,64,127,,
12686,set_tempo,31,1,0,,,,,,1003009,,,,,,
12696,note_on,96,0,2,,,,,,,,0,,,67,0
12696,note_on,96,0,3,,,,,,,,0,,,52,0
12720,set_tempo,34,1,0,,,,,,1015572,,,,,,
12720,note_on,24,0,3,,,,,,,,0,,,55,72
12720,note_on,24,0,2,,,,,,,,0,,,64,72
12755,set_tempo,35,1,0,,,,,,1028454,,,,,,
12786,set_tempo,31,1,0,,,,,,1041667,,,,,,
12792,note_on,192,0,1,,,,,,,,0,,,70,0
12792,note_on,112,0,4,,,,,,,,0,,,49,0
12816,note_on,96,0,2,,,,,,,,0,,,64,0
12816,note_on,96,0,3,,,,,,,,0,,,55,0
12821,set_tempo,35,1,0,,,,,,1055223,,,,,,
12840,note_on,0,0,3,,,,,,,,0,,,55,72
12840,note_on,0,0,2,,,,,,,,0,,,64,72
12840,note_on,48,0,1,,,,,,,,0,,,72,79
12840,note_on,24,0,2,,,,,,,,0,,,58,72
12840,note_on,48,0,4,,,,,,,,0,,,48,72
12840,note_on,24,0,3,,,,,,,,0,,,60,72
12856,set_tempo,35,1,0,,,,,,1069138,,,,,,
12886,set_tempo,30,1,0,,,,,,1083424,,,,,,
12921,set_tempo,35,1,0,,,,,,1098097,,,,,,
12936,note_on,96,0,4,,,,,,,,0,,,48,0
12936,note_on,0,0,3,,,,,,,,0,,,60,0
12936,note_on,96,0,3,,,,,,,,0,,,55,0
12936,note_on,96,0,2,,,,,,,,0,,,64,0
12936,note_on,96,0,1,,,,,,,,0,,,72,0
12936,note_on,0,0,2,,,,,,,,0,,,58,0
12952,set_tempo,31,1,0,,,,,,944584,,,,,,
12960,note_on,0,0,1,,,,,,,,0,,,65,72
12960,note_on,0,0,4,,,,,,,,0,,,53,72
12960,control_change,24,0,4,,,,,,,,0,64,0,,
12960,note_on,24,0,3,,,,,,,,0,,,57,72
12960,note_on,24,0,1,,,,,,,,0,,,69,72
13012,control_change,52,0,4,,,,,,,,0,64,127,,
13056,note_on,0,0,1,,,,,,,,0,,,69,0
13056,note_on,44,0,4,,,,,,,,0,,,53,0
13056,note_on,96,0,1,,,,,,,,0,,,65,0
13056,note_on,96,0,3,,,,,,,,0,,,57,0
13080,note_on,144,0,2,,,,,,,,0,,,57,57
13176,note_on,96,0,2,,,,,,,,0,,,57,0
13200,note_on,24,0,2,,,,,,,,0,,,63,57
13200,note_on,0,0,2,,,,,,,,0,,,66,57
13296,note_on,96,0,2,,,,,,,,0,,,66,0
13296,note_on,0,0,2,,,,,,,,0,,,63,0
13320,note_on,264,0,1,,,,,,,,0,,,69,79
13320,note_on,24,0,2,,,,,,,,0,,,61,57
13320,note_on,264,0,4,,,,,,,,0,,,29,72
13320,note_on,0,0,2,,,,,,,,0,,,65,57
13320,note_on,0,0,4,,,,,,,,0,,,41,72
13323,control_change,3,0,4,,,,,,,,0,64,0,,
13369,control_change,46,0,4,,,,,,,,0,64,127,,
13416,note_on,0,0,2,,,,,,,,0,,,61,0
13416,note_on,96,0,2,,,,,,,,0,,,65,0
13440,note_on,0,0,2,,,,,,,,0,,,63,57
13440,note_on,24,0,2,,,,,,,,0,,,60,57
13536,note_on,0,0,2,,,,,,,,0,,,60,0
13536,note_on,96,0,2,,,,,,,,0,,,63,0
13560,note_on,24,0,2,,,,,,,,0,,,57,57
13656,note_on,96,0,2,,,,,,,,0,,,57,0
13680,note_on,0,0,2,,,,,,,,0,,,60,57
13680,note_on,24,0,2,,,,,,,,0,,,63,57
13686,set_tempo,734,1,0,,,,,,955718,,,,,,
13776,note_on,0,0,2,,,,,,,,0,,,63,0
13776,note_on,96,0,2,,,,,,,,0,,,60,0
13776,note_on,0,0,4,,,,,,,,0,,,29,0
13776,note_on,407,0,4,,,,,,,,0,,,41,0
13800,note_on,24,0,2,,,,,,,,0,,,57,57
13891,set_tempo,205,1,0,,,,,,944584,,,,,,
13896,note_on,96,0,2,,,,,,,,0,,,57,0
13920,note_on,0,0,2,,,,,,,,0,,,63,57
13920,note_on,24,0,2,,,,,,,,0,,,66,57
13968,note_on,648,0,1,,,,,,,,0,,,69,0
14016,note_on,96,0,2,,,,,,,,0,,,63,0
14016,note_on,0,0,2,,,,,,,,0,,,66,0
14040,note_on,24,0,2,,,,,,,,0,,,65,57
14040,note_on,72,0,1,,,,,,,,0,,,69,79
14040,control_change,264,0,4,,,,,,,,0,64,0,,
14040,note_on,0,0,4,,,,,,,,0,,,29,72
14040,note_on,0,0,2,,,,,,,,0,,,61,57
14040,note_on,0,0,4,,,,,,,,0,,,41,72
14077,control_change,37,0,4,,,,,,,,0,64,127,,
14096,set_tempo,205,1,0,,,,,,933707,,,,,,
14136,note_on,0,0,2,,,,,,,,0,,,65,0
14136,note_on,96,0,2,,,,,,,,0,,,61,0
14160,note_on,0,0,2,,,,,,,,0,,,63,57
14160,note_on,24,0,2,,,,,,,,0,,,60,57
14256,note_on,0,0,2,,,,,,,,0,,,60,0
14256,note_on,96,0,2,,,,,,,,0,,,63,0
14280,note_on,24,0,2,,,,,,,,0,,,57,57
14301,set_tempo,205,1,0,,,,,,923077,,,,,,
14328,note_on,288,0,1,,,,,,,,0,,,69,0
14376,note_on,96,0,2,,,,,,,,0,,,57,0
14400,note_on,24,0,2,,,,,,,,0,,,63,57
14400,note_on,72,0,1,,,,,,,,0,,,66,79
14400,note_on,0,0,1,,,,,,,,0,,,70,79
14496,note_on,419,0,4,,,,,,,,0,,,41,0
14496,note_on,96,0,2,,,,,,,,0,,,63,0
14496,note_on,0,0,4,,,,,,,,0,,,29,0
14506,set_tempo,205,1,0,,,,,,912686,,,,,,
14520,note_on,24,0,2,,,,,,,,0,,,61,57
14520,note_on,0,0,2,,,,,,,,0,,,65,57
14616,note_on,0,0,2,,,,,,,,0,,,61,0
14616,note_on,96,0,2,,,,,,,,0,,,65,0
14640,note_on,24,0,2,,,,,,,,0,,,58,57
14688,note_on,288,0,1,,,,,,,,0,,,70,0
14688,note_on,0,0,1,,,,,,,,0,,,66,0
14711,set_tempo,205,1,0,,,,,,902527,,,,,,
14736,note_on,96,0,2,,,,,,,,0,,,58,0
14760,note_on,0,0,2,,,,,,,,0,,,66,57
14760,note_on,0,0,4,,,,,,,,0,,,29,72
14760,control_change,264,0,4,,,,,,,,0,64,0,,
14760,note_on,24,0,2,,,,,,,,0,,,63,57
14760,note_on,0,0,4,,,,,,,,0,,,41,72
14760,note_on,0,0,1,,,,,,,,0,,,72,79
14760,note_on,72,0,1,,,,,,,,0,,,69,79
14801,control_change,41,0,4,,,,,,,,0,64,127,,
14856,note_on,0,0,2,,,,,,,,0,,,63,0
14856,note_on,96,0,2,,,,,,,,0,,,66,0
14880,note_on,24,0,2,,,,,,,,0,,,61,57
14880,note_on,0,0,2,,,,,,,,0,,,65,57
14916,set_tempo,205,1,0,,,,,,892591,,,,,,
14976,note_on,0,0,2,,,,,,,,0,,,61,0
14976,note_on,96,0,2,,,,,,,,0,,,65,0
15000,note_on,24,0,2,,,,,,,,0,,,63,57
15000,note_on,0,0,2,,,,,,,,0,,,60,57
15048,note_on,0,0,1,,,,,,,,0,,,69,0
15048,note_on,288,0,1,,,,,,,,0,,,72,0
15096,note_on,96,0,2,,,,,,,,0,,,60,0
15096,note_on,0,0,2,,,,,,,,0,,,63,0
15117,set_tempo,201,1,0,,,,,,882872,,,,,,
15120,note_on,0,0,1,,,,,,,,0,,,73,102
15120,note_on,72,0,1,,,,,,,,0,,,70,77
15120,note_on,24,0,2,,,,,,,,0,,,65,64
15120,note_on,0,0,2,,,,,,,,0,,,61,64
15216,note_on,96,0,2,,,,,,,,0,,,61,0
15216,note_on,0,0,2,,,,,,,,0,,,65,0
15240,note_on,24,0,2,,,,,,,,0,,,60,64
15240,note_on,0,0,2,,,,,,,,0,,,63,64
15312,note_on,0,0,4,,,,,,,,0,,,41,0
15312,note_on,511,0,4,,,,,,,,0,,,29,0
15336,note_on,96,0,2,,,,,,,,0,,,63,0
15336,note_on,0,0,2,,,,,,,,0,,,60,0
15360,note_on,48,0,4,,,,,,,,0,,,41,72
15360,note_on,0,0,4,,,,,,,,0,,,29,72
15360,note_on,0,0,2,,,,,,,,0,,,61,64
15360,note_on,24,0,2,,,,,,,,0,,,58,64
15408,note_on,288,0,1,,,,,,,,0,,,70,0
15456,note_on,96,0,2,,,,,,,,0,,,61,0
15456,note_on,0,0,2,,,,,,,,0,,,58,0
15456,note_on,0,0,4,,,,,,,,0,,,41,0
15456,note_on,96,0,4,,,,,,,,0,,,29,0
15480,note_on,0,0,2,,,,,,,,0,,,61,64
15480,note_on,0,0,4,,,,,,,,0,,,30,72
15480,note_on,24,0,2,,,,,,,,0,,,58,64
15480,note_on,24,0,4,,,,,,,,0,,,42,72
15484,control_change,4,0,4,,,,,,,,0,64,0,,
15521,control_change,37,0,4,,,,,,,,0,64,127,,
15576,note_on,96,0,2,,,,,,,,0,,,61,0
15576,note_on,0,0,2,,,,,,,,0,,,58,0
15576,note_on,168,0,1,,,,,,,,0,,,73,0
15600,note_on,0,0,2,,,,,,,,0,,,63,64
15600,note_on,24,0,2,,,,,,,,0,,,60,64
15600,note_on,24,0,1,,,,,,,,0,,,72,79
15672,note_on,151,0,4,,,,,,,,0,,,30,0
15672,note_on,0,0,4,,,,,,,,0,,,42,0
15696,note_on,0,0,2,,,,,,,,0,,,60,0
15696,note_on,96,0,1,,,,,,,,0,,,72,0
15696,note_on,96,0,2,,,,,,,,0,,,63,0
15720,note_on,0,0,2,,,,,,,,0,,,64,64
15720,note_on,24,0,1,,,,,,,,0,,,70,79
15720,note_on,48,0,4,,,,,,,,0,,,43,72
15720,note_on,24,0,2,,,,,,,,0,,,61,64
15720,note_on,0,0,4,,,,,,,,0,,,31,72
15815,note_on,95,0,4,,,,,,,,0,,,32,72
15816,note_on,0,0,4,,,,,,,,0,,,43,0
15816,note_on,96,0,2,,,,,,,,0,,,64,0
15816,note_on,1,0,4,,,,,,,,0,,,31,0
15816,note_on,0,0,2,,,,,,,,0,,,61,0
15816,note_on,96,0,1,,,,,,,,0,,,70,0
15840,note_on,24,0,2,,,,,,,,0,,,65,64
15840,control_change,24,0,4,,,,,,,,0,64,0,,
15840,note_on,2784,0,3,,,,,,,,0,,,44,72
15840,note_on,0,0,2,,,,,,,,0,,,61,64
15840,note_on,24,0,1,,,,,,,,0,,,70,79
15909,control_change,69,0,4,,,,,,,,0,64,127,,
15936,note_on,96,0,2,,,,,,,,0,,,61,0
15936,note_on,0,0,2,,,,,,,,0,,,65,0
15960,note_on,24,0,2,,,,,,,,0,,,56,64
16032,note_on,192,0,3,,,,,,,,0,,,44,0
16032,note_on,192,0,1,,,,,,,,0,,,70,0
16056,note_on,96,0,2,,,,,,,,0,,,56,0
16080,note_on,48,0,1,,,,,,,,0,,,68,79
16080,note_on,0,0,2,,,,,,,,0,,,65,64
16080,note_on,24,0,2,,,,,,,,0,,,61,64
16080,note_on,48,0,3,,,,,,,,0,,,49,72
16103,note_on,194,0,4,,,,,,,,0,,,32,0
16175,note_on,72,0,4,,,,,,,,0,,,32,72
16176,note_on,96,0,3,,,,,,,,0,,,49,0
16176,note_on,96,0,1,,,,,,,,0,,,68,0
16176,note_on,96,0,2,,,,,,,,0,,,65,0
16176,note_on,0,0,2,,,,,,,,0,,,61,0
16200,note_on,24,0,3,,,,,,,,0,,,50,72
16200,note_on,0,0,2,,,,,,,,0,,,59,64
16200,note_on,24,0,1,,,,,,,,0,,,70,79
16200,note_on,24,0,2,,,,,,,,0,,,65,64
16217,control_change,42,0,4,,,,,,,,0,64,0,,
16274,control_change,57,0,4,,,,,,,,0,64,127,,
16296,note_on,0,0,2,,,,,,,,0,,,65,0
16296,note_on,96,0,2,,,,,,,,0,,,59,0
16320,note_on,24,0,2,,,,,,,,0,,,56,64
16392,note_on,192,0,1,,,,,,,,0,,,70,0
16392,note_on,192,0,3,,,,,,,,0,,,50,0
16416,note_on,96,0,2,,,,,,,,0,,,56,0
16440,note_on,24,0,2,,,,,,,,0,,,59,64
16440,note_on,48,0,3,,,,,,,,0,,,44,72
16440,note_on,48,0,1,,,,,,,,0,,,68,79
16440,note_on,0,0,2,,,,,,,,0,,,65,64
16463,note_on,189,0,4,,,,,,,,0,,,32,0
16535,note_on,0,0,4,,,,,,,,0,,,32,72
16535,control_change,72,0,4,,,,,,,,0,64,0,,
16536,note_on,96,0,2,,,,,,,,0,,,65,0
16536,note_on,96,0,1,,,,,,,,0,,,68,0
16536,note_on,0,0,2,,,,,,,,0,,,59,0
16536,note_on,96,0,3,,,,,,,,0,,,44,0
16556,set_tempo,1439,1,0,,,,,,873362,,,,,,
16560,note_on,24,0,2,,,,,,,,0,,,60,64
16560,note_on,0,0,2,,,,,,,,0,,,66,64
16560,note_on,24,0,3,,,,,,,,0,,,51,72
16560,note_on,24,0,1,,,,,,,,0,,,70,72
16561,set_tempo,5,1,0,,,,,,882872,,,,,,
16567,control_change,32,0,4,,,,,,,,0,64,127,,
16582,set_tempo,21,1,0,,,,,,892591,,,,,,
16604,set_tempo,22,1,0,,,,,,902527,,,,,,
16626,set_tempo,22,1,0,,,,,,912686,,,,,,
16652,set_tempo,26,1,0,,,,,,923077,,,,,,
16656,note_on,96,0,1,,,,,,,,0,,,70,0
16656,note_on,0,0,2,,,,,,,,0,,,60,0
16656,note_on,96,0,2,,,,,,,,0,,,66,0
16674,set_tempo,22,1,0,,,,,,933707,,,,,,
16680,note_on,24,0,2,,,,,,,,0,,,56,64
16680,note_on,24,0,1,,,,,,,,0,,,68,72
16696,set_tempo,22,1,0,,,,,,944584,,,,,,
16718,set_tempo,22,1,0,,,,,,955718,,,,,,
16744,set_tempo,26,1,0,,,,,,967118,,,,,,
16752,note_on,192,0,3,,,,,,,,0,,,51,0
16766,set_tempo,22,1,0,,,,,,978793,,,,,,
16776,note_on,96,0,1,,,,,,,,0,,,68,0
16776,note_on,96,0,2,,,,,,,,0,,,56,0
16788,set_tempo,22,1,0,,,,,,990753,,,,,,
16800,note_on,24,0,1,,,,,,,,0,,,66,72
16800,note_on,48,0,3,,,,,,,,0,,,44,72
16800,note_on,24,0,2,,,,,,,,0,,,60,64
16809,set_tempo,21,1,0,,,,,,1003009,,,,,,
16836,set_tempo,27,1,0,,,,,,1015572,,,,,,
16857,set_tempo,21,1,0,,,,,,1028454,,,,,,
16879,set_tempo,22,1,0,,,,,,1041667,,,,,,
16896,note_on,96,0,1,,,,,,,,0,,,66,0
16896,note_on,96,0,3,,,,,,,,0,,,44,0
16896,note_on,96,0,2,,,,,,,,0,,,60,0
16901,set_tempo,22,1,0,,,,,,1055223,,,,,,
16920,note_on,24,0,1,,,,,,,,0,,,66,72
16920,note_on,0,0,3,,,,,,,,0,,,48,72
16920,note_on,24,0,3,,,,,,,,0,,,56,72
16927,set_tempo,26,1,0,,,,,,1069138,,,,,,
16949,set_tempo,22,1,0,,,,,,1083424,,,,,,
16968,note_on,48,0,1,,,,,,,,0,,,66,0
16971,set_tempo,22,1,0,,,,,,1098097,,,,,,
16980,note_on,12,0,1,,,,,,,,0,,,68,72
16993,set_tempo,22,1,0,,,,,,1113173,,,,,,
17004,note_on,24,0,1,,,,,,,,0,,,68,0
17010,note_on,6,0,1,,,,,,,,0,,,66,72
17016,note_on,0,0,3,,,,,,,,0,,,56,0
17016,note_on,96,0,3,,,,,,,,0,,,48,0
17019,set_tempo,26,1,0,,,,,,1128668,,,,,,
17034,note_on,24,0,1,,,,,,,,0,,,66,0
17040,note_on,0,0,3,,,,,,,,0,,,54,72
17040,note_on,24,0,3,,,,,,,,0,,,44,72
17040,note_on,6,0,1,,,,,,,,0,,,65,72
17041,set_tempo,22,1,0,,,,,,1144601,,,,,,
17062,set_tempo,21,1,0,,,,,,1160991,,,,,,
17084,set_tempo,22,1,0,,,,,,1177856,,,,,,
17087,note_on,520,0,4,,,,,,,,0,,,32,0
17110,set_tempo,26,1,0,,,,,,1195219,,,,,,
17132,set_tempo,22,1,0,,,,,,1213101,,,,,,
17135,note_on,48,0,4,,,,,,,,0,,,32,72
17136,note_on,96,0,3,,,,,,,,0,,,44,0
17136,note_on,96,0,1,,,,,,,,0,,,65,0
17154,set_tempo,22,1,0,,,,,,1231527,,,,,,
17160,note_on,24,0,1,,,,,,,,0,,,63,72
17160,note_on,24,0,3,,,,,,,,0,,,48,72
17160,note_on,0,0,3,,,,,,,,0,,,56,72
17176,set_tempo,22,1,0,,,,,,1250521,,,,,,
17202,set_tempo,26,1,0,,,,,,1270110,,,,,,
17207,note_on,72,0,4,,,,,,,,0,,,32,0
17224,set_tempo,22,1,0,,,,,,1290323,,,,,,
17246,set_tempo,22,1,0,,,,,,1311189,,,,,,
17250,note_on,43,0,4,,,,,,,,0,,,37,72
17256,note_on,96,0,1,,,,,,,,0,,,63,0
17256,note_on,0,0,3,,,,,,,,0,,,54,0
17256,note_on,96,0,3,,,,,,,,0,,,56,0
17256,note_on,0,0,3,,,,,,,,0,,,48,0
17260,note_on,10,0,4,,,,,,,,0,,,44,72
17270,note_on,10,0,4,,,,,,,,0,,,49,72
17272,set_tempo,26,1,0,,,,,,1332741,,,,,,
17280,control_change,10,0,4,,,,,,,,0,64,0,,
17280,note_on,384,0,2,,,,,,,,0,,,61,64
17280,note_on,0,0,4,,,,,,,,0,,,53,72
17281,set_tempo,9,1,0,,,,,,812128,,,,,,
17343,control_change,63,0,4,,,,,,,,0,64,127,,
17376,note_on,0,0,4,,,,,,,,0,,,44,0
17376,note_on,0,0,4,,,,,,,,0,,,49,0
17376,note_on,96,0,2,,,,,,,,0,,,61,0
17376,note_on,33,0,4,,,,,,,,0,,,53,0
17376,note_on,0,0,4,,,,,,,,0,,,37,0
17400,note_on,24,0,4,,,,,,,,0,,,49,72
17520,note_on,264,0,3,,,,,,,,0,,,65,57
17520,note_on,0,0,3,,,,,,,,0,,,61,57
17616,note_on,0,0,3,,,,,,,,0,,,65,0
17616,note_on,96,0,3,,,,,,,,0,,,61,0
17634,control_change,234,0,4,,,,,,,,0,64,0,,
17640,note_on,0,0,3,,,,,,,,0,,,60,57
17640,note_on,264,0,2,,,,,,,,0,,,65,64
17640,note_on,0,0,2,,,,,,,,0,,,77,64
17640,note_on,24,0,3,,,,,,,,0,,,63,57
17691,control_change,57,0,4,,,,,,,,0,64,127,,
17736,note_on,0,0,3,,,,,,,,0,,,63,0
17736,note_on,96,0,3,,,,,,,,0,,,60,0
17760,note_on,0,0,3,,,,,,,,0,,,61,57
17760,note_on,24,0,3,,,,,,,,0,,,58,57
17784,note_on,93,0,4,,,,,,,,0,,,49,0
17856,note_on,0,0,3,,,,,,,,0,,,58,0
17856,note_on,96,0,3,,,,,,,,0,,,61,0
17880,note_on,96,0,4,,,,,,,,0,,,49,72
18000,note_on,144,0,3,,,,,,,,0,,,61,57
18000,note_on,0,0,3,,,,,,,,0,,,58,57
18096,note_on,0,0,3,,,,,,,,0,,,61,0
18096,note_on,96,0,3,,,,,,,,0,,,58,0
18120,note_on,24,0,3,,,,,,,,0,,,56,57
18120,note_on,0,0,3,,,,,,,,0,,,60,57
18216,note_on,96,0,3,,,,,,,,0,,,60,0
18216,note_on,0,0,3,,,,,,,,0,,,56,0
18240,note_on,0,0,3,,,,,,,,0,,,58,57
18240,note_on,24,0,3,,,,,,,,0,,,54,57
18288,note_on,408,0,4,,,,,,,,0,,,49,0
18288,note_on,648,0,2,,,,,,,,0,,,77,0
18288,note_on,0,0,2,,,,,,,,0,,,65,0
18336,note_on,0,0,3,,,,,,,,0,,,54,0
18336,note_on,96,0,3,,,,,,,,0,,,58,0
18354,control_change,66,0,4,,,,,,,,0,64,0,,
18360,note_on,0,0,2,,,,,,,,0,,,66,64
18360,note_on,72,0,2,,,,,,,,0,,,78,64
18360,note_on,6,0,4,,,,,,,,0,,,49,72
18402,control_change,42,0,4,,,,,,,,0,64,127,,
18480,note_on,144,0,3,,,,,,,,0,,,58,57
18480,note_on,0,0,3,,,,,,,,0,,,54,57
18552,note_on,192,0,2,,,,,,,,0,,,66,0
18552,note_on,0,0,2,,,,,,,,0,,,78,0
18576,note_on,0,0,3,,,,,,,,0,,,58,0
18576,note_on,96,0,3,,,,,,,,0,,,54,0
18600,note_on,0,0,3,,,,,,,,0,,,56,57
18600,note_on,48,0,2,,,,,,,,0,,,80,64
18600,note_on,24,0,3,,,,,,,,0,,,53,57
18600,note_on,0,0,2,,,,,,,,0,,,68,64
18696,note_on,0,0,3,,,,,,,,0,,,53,0
18696,note_on,96,0,3,,,,,,,,0,,,56,0
18696,note_on,0,0,2,,,,,,,,0,,,80,0
18696,note_on,96,0,2,,,,,,,,0,,,68,0
18720,note_on,24,0,2,,,,,,,,0,,,70,64
18720,note_on,0,0,4,,,,,,,,0,,,55,72
18720,note_on,24,0,3,,,,,,,,0,,,52,57
18720,control_change,318,0,4,,,,,,,,0,64,0,,
18720,note_on,0,0,2,,,,,,,,0,,,82,64
18771,control_change,51,0,4,,,,,,,,0,64,127,,
18816,note_on,96,0,3,,,,,,,,0,,,52,0
18840,note_on,24,0,3,,,,,,,,0,,,49,57
18912,note_on,192,0,2,,,,,,,,0,,,82,0
18912,note_on,0,0,2,,,,,,,,0,,,70,0
18936,note_on,96,0,3,,,,,,,,0,,,49,0
18960,note_on,48,0,2,,,,,,,,0,,,73,64
18960,note_on,24,0,3,,,,,,,,0,,,46,57
18960,note_on,0,0,2,,,,,,,,0,,,85,64
19008,note_on,237,0,4,,,,,,,,0,,,55,0
19008,note_on,0,0,4,,,,,,,,0,,,49,0
19056,note_on,96,0,2,,,,,,,,0,,,85,0
19056,note_on,96,0,3,,,,,,,,0,,,46,0
19056,note_on,0,0,2,,,,,,,,0,,,73,0
19074,control_change,66,0,4,,,,,,,,0,64,0,,
19078,set_tempo,1797,1,0,,,,,,796178,,,,,,
19080,note_on,0,0,3,,,,,,,,0,,,45,57
19080,note_on,6,0,4,,,,,,,,0,,,54,72
19080,note_on,0,0,2,,,,,,,,0,,,72,64
19080,note_on,24,0,2,,,,,,,,0,,,84,64
19080,note_on,24,0,3,,,,,,,,0,,,51,57
19096,set_tempo,18,1,0,,,,,,804074,,,,,,
19113,set_tempo,17,1,0,,,,,,812128,,,,,,
19126,control_change,46,0,4,,,,,,,,0,64,127,,
19131,set_tempo,18,1,0,,,,,,820345,,,,,,
19148,set_tempo,17,1,0,,,,,,828729,,,,,,
19166,set_tempo,18,1,0,,,,,,837287,,,,,,
19176,note_on,96,0,2,,,,,,,,0,,,72,0
19176,note_on,0,0,3,,,,,,,,0,,,51,0
19176,note_on,0,0,2,,,,,,,,0,,,84,0
19176,note_on,96,0,3,,,,,,,,0,,,45,0
19183,set_tempo,17,1,0,,,,,,846024,,,,,,
19196,set_tempo,13,1,0,,,,,,854944,,,,,,
19200,note_on,0,0,2,,,,,,,,0,,,87,64
19200,note_on,24,0,3,,,,,,,,0,,,44,57
19200,note_on,24,0,2,,,,,,,,0,,,75,64
19214,set_tempo,18,1,0,,,,,,864055,,,,,,
19231,set_tempo,17,1,0,,,,,,873362,,,,,,
19249,set_tempo,18,1,0,,,,,,882872,,,,,,
19266,set_tempo,17,1,0,,,,,,892591,,,,,,
19272,note_on,146,0,4,,,,,,,,0,,,54,0
19284,set_tempo,18,1,0,,,,,,902527,,,,,,
19296,note_on,0,0,2,,,,,,,,0,,,75,0
19296,note_on,96,0,3,,,,,,,,0,,,44,0
19296,note_on,96,0,2,,,,,,,,0,,,87,0
19301,set_tempo,17,1,0,,,,,,912686,,,,,,
19314,set_tempo,13,1,0,,,,,,923077,,,,,,
19320,note_on,24,0,2,,,,,,,,0,,,92,64
19320,note_on,0,0,2,,,,,,,,0,,,80,64
19320,note_on,48,0,4,,,,,,,,0,,,56,72
19320,note_on,24,0,3,,,,,,,,0,,,48,57
19332,set_tempo,18,1,0,,,,,,933707,,,,,,
19349,set_tempo,17,1,0,,,,,,944584,,,,,,
19366,set_tempo,17,1,0,,,,,,955718,,,,,,
19384,set_tempo,18,1,0,,,,,,967118,,,,,,
19401,set_tempo,17,1,0,,,,,,978793,,,,,,
19416,note_on,96,0,3,,,,,,,,0,,,48,0
19416,note_on,96,0,2,,,,,,,,0,,,80,0
19416,note_on,96,0,4,,,,,,,,0,,,56,0
19416,note_on,0,0,2,,,,,,,,0,,,92,0
19419,set_tempo,18,1,0,,,,,,990753,,,,,,
19432,set_tempo,13,1,0,,,,,,796178,,,,,,
19440,control_change,24,0,4,,,,,,,,0,64,0,,
19440,note_on,0,0,3,,,,,,,,0,,,53,72
19440,note_on,0,0,2,,,,,,,,0,,,89,72
19440,note_on,24,0,2,,,,,,,,0,,,77,72
19440,note_on,24,0,3,,,,,,,,0,,,49,72
19503,control_change,63,0,4,,,,,,,,0,64,127,,
19536,note_on,0,0,2,,,,,,,,0,,,77,0
19536,note_on,96,0,2,,,,,,,,0,,,89,0
19536,note_on,0,0,3,,,,,,,,0,,,49,0
19536,note_on,96,0,3,,,,,,,,0,,,53,0
19560,note_on,57,0,4,,,,,,,,0,,,37,72
19680,note_on,0,0,3,,,,,,,,0,,,49,72
19680,note_on,144,0,3,,,,,,,,0,,,53,72
19776,note_on,0,0,3,,,,,,,,0,,,53,0
19776,note_on,96,0,3,,,,,,,,0,,,49,0
19800,note_on,24,0,3,,,,,,,,0,,,51,72
19800,note_on,264,0,2,,,,,,,,0,,,77,72
19800,note_on,0,0,2,,,,,,,,0,,,89,72
19800,note_on,0,0,3,,,,,,,,0,,,48,72
19806,control_change,246,0,4,,,,,,,,0,64,0,,
19857,control_change,51,0,4,,,,,,,,0,64,127,,
19896,note_on,96,0,3,,,,,,,,0,,,48,0
19896,note_on,0,0,3,,,,,,,,0,,,51,0
19920,note_on,24,0,3,,,,,,,,0,,,46,72
19920,note_on,0,0,3,,,,,,,,0,,,49,72
19944,note_on,87,0,4,,,,,,,,0,,,37,0
20016,note_on,96,0,3,,,,,,,,0,,,49,0
20016,note_on,0,0,3,,,,,,,,0,,,46,0
20040,note_on,96,0,4,,,,,,,,0,,,37,72
20160,control_change,120,0,4,,,,,,,,0,64,0,,
20160,note_on,144,0,3,,,,,,,,0,,,49,72
20160,note_on,0,0,3,,,,,,,,0,,,46,72
20202,control_change,42,0,4,,,,,,,,0,64,127,,
20256,note_on,96,0,3,,,,,,,,0,,,46,0
20256,note_on,0,0,3,,,,,,,,0,,,49,0
20280,note_on,24,0,3,,,,,,,,0,,,48,72
20280,note_on,0,0,3,,,,,,,,0,,,44,72
20376,note_on,0,0,3,,,,,,,,0,,,48,0
20376,note_on,96,0,3,,,,,,,,0,,,44,0
20400,note_on,0,0,3,,,,,,,,0,,,46,72
20400,note_on,24,0,3,,,,,,,,0,,,42,72
20448,note_on,246,0,4,,,,,,,,0,,,37,0
20448,note_on,648,0,2,,,,,,,,0,,,89,0
20448,note_on,0,0,2,,,,,,,,0,,,77,0
20496,note_on,0,0,3,,,,,,,,0,,,42,0
20496,note_on,96,0,3,,,,,,,,0,,,46,0
20520,note_on,0,0,2,,,,,,,,0,,,78,72
20520,note_on,72,0,2,,,,,,,,0,,,90,72
20520,note_on,72,0,4,,,,,,,,0,,,37,72
20526,control_change,6,0,4,,,,,,,,0,64,0,,
20575,control_change,49,0,4,,,,,,,,0,64,127,,
20640,note_on,0,0,3,,,,,,,,0,,,46,72
20640,note_on,144,0,3,,,,,,,,0,,,42,72
20712,note_on,192,0,2,,,,,,,,0,,,78,0
20712,note_on,0,0,2,,,,,,,,0,,,90,0
20736,note_on,96,0,3,,,,,,,,0,,,46,0
20736,note_on,0,0,3,,,,,,,,0,,,42,0
20760,note_on,48,0,2,,,,,,,,0,,,92,72
20760,note_on,0,0,3,,,,,,,,0,,,44,72
20760,note_on,24,0,3,,,,,,,,0,,,41,72
20760,note_on,0,0,2,,,,,,,,0,,,80,72
20808,note_on,233,0,4,,,,,,,,0,,,37,0
20856,note_on,96,0,3,,,,,,,,0,,,44,0
20856,note_on,0,0,3,,,,,,,,0,,,41,0
20856,note_on,96,0,2,,,,,,,,0,,,80,0
20856,note_on,0,0,2,,,,,,,,0,,,92,0
20880,note_on,0,0,3,,,,,,,,0,,,43,72
20880,note_on,24,0,2,,,,,,,,0,,,94,72
20880,note_on,0,0,2,,,,,,,,0,,,82,72
20880,note_on,24,0,3,,,,,,,,0,,,40,72
20976,note_on,96,0,3,,,,,,,,0,,,43,0
20976,note_on,0,0,3,,,,,,,,0,,,40,0
21000,note_on,192,0,4,,,,,,,,0,,,37,72
21006,control_change,6,0,4,,,,,,,,0,64,0,,
21032,control_change,26,0,4,,,,,,,,0,64,127,,
21072,note_on,0,0,2,,,,,,,,0,,,94,0
21072,note_on,192,0,2,,,,,,,,0,,,82,0
21120,note_on,48,0,2,,,,,,,,0,,,97,72
21120,note_on,144,0,3,,,,,,,,0,,,46,72
21120,note_on,0,0,2,,,,,,,,0,,,85,72
21216,note_on,96,0,3,,,,,,,,0,,,46,0
21216,note_on,0,0,2,,,,,,,,0,,,97,0
21216,note_on,96,0,2,,,,,,,,0,,,85,0
21240,note_on,0,0,2,,,,,,,,0,,,84,72
21240,note_on,0,0,3,,,,,,,,0,,,45,72
21240,note_on,0,0,3,,,,,,,,0,,,42,72
21240,note_on,24,0,3,,,,,,,,0,,,39,72
21240,note_on,24,0,2,,,,,,,,0,,,96,72
21288,note_on,256,0,4,,,,,,,,0,,,37,0
21336,note_on,96,0,3,,,,,,,,0,,,42,0
21336,note_on,0,0,3,,,,,,,,0,,,39,0
21336,note_on,0,0,3,,,,,,,,0,,,45,0
21360,note_on,72,0,4,,,,,,,,0,,,37,72
21432,note_on,192,0,2,,,,,,,,0,,,84,0
21432,note_on,0,0,2,,,,,,,,0,,,96,0
21456,note_on,96,0,4,,,,,,,,0,,,37,0
21480,note_on,48,0,2,,,,,,,,0,,,99,72
21480,note_on,0,0,2,,,,,,,,0,,,87,72
21480,note_on,144,0,3,,,,,,,,0,,,48,72
21480,note_on,0,0,3,,,,,,,,0,,,44,72
21576,note_on,96,0,3,,,,,,,,0,,,48,0
21576,note_on,96,0,2,,,,,,,,0,,,87,0
21576,note_on,0,0,2,,,,,,,,0,,,99,0
21600,note_on,0,0,4,,,,,,,,0,,,37,72
21600,note_on,24,0,2,,,,,,,,0,,,101,72
21600,control_change,144,0,4,,,,,,,,0,64,0,,
21600,note_on,0,0,2,,,,,,,,0,,,89,72
21663,control_change,63,0,4,,,,,,,,0,64,127,,
21696,note_on,120,0,3,,,,,,,,0,,,44,0
21696,note_on,0,0,2,,,,,,,,0,,,101,0
21696,note_on,96,0,2,,,,,,,,0,,,89,0
21696,note_on,33,0,4,,,,,,,,0,,,37,0
21720,note_on,24,0,4,,,,,,,,0,,,41,72
21840,note_on,0,0,3,,,,,,,,0,,,53,72
21840,note_on,144,0,3,,,,,,,,0,,,49,72
21936,note_on,0,0,3,,,,,,,,0,,,49,0
21936,note_on,96,0,3,,,,,,,,0,,,53,0
21960,note_on,0,0,3,,,,,,,,0,,,51,72
21960,note_on,24,0,3,,,,,,,,0,,,48,72
21960,note_on,0,0,2,,,,,,,,0,,,101,72
21960,note_on,264,0,2,,,,,,,,0,,,89,72
22056,note_on,0,0,3,,,,,,,,0,,,48,0
22056,note_on,96,0,3,,,,,,,,0,,,51,0
22080,note_on,0,0,3,,,,,,,,0,,,46,72
22080,note_on,24,0,3,,,,,,,,0,,,49,72
22104,note_on,384,0,4,,,,,,,,0,,,41,0
22176,note_on,96,0,3,,,,,,,,0,,,46,0
22176,note_on,0,0,3,,,,,,,,0,,,49,0
22200,note_on,0,0,4,,,,,,,,0,,,41,72
22200,control_change,96,0,4,,,,,,,,0,64,0,,
22280,control_change,80,0,4,,,,,,,,0,64,127,,
22320,note_on,0,0,3,,,,,,,,0,,,48,72
22320,note_on,144,0,3,,,,,,,,0,,,45,72
22416,note_on,96,0,3,,,,,,,,0,,,48,0
22416,note_on,0,0,3,,,,,,,,0,,,45,0
22416,note_on,136,0,4,,,,,,,,0,,,41,0
22440,note_on,24,0,4,,,,,,,,0,,,41,72
22443,control_change,3,0,4,,,,,,,,0,64,0,,
22479,control_change,36,0,4,,,,,,,,0,64,127,,
22512,note_on,552,0,2,,,,,,,,0,,,101,0
22512,note_on,0,0,2,,,,,,,,0,,,89,0
22560,note_on,144,0,3,,,,,,,,0,,,54,72
22560,note_on,0,0,3,,,,,,,,0,,,51,72
22656,note_on,0,0,3,,,,,,,,0,,,54,0
22656,note_on,96,0,3,,,,,,,,0,,,51,0
22680,note_on,168,0,2,,,,,,,,0,,,101,72
22680,note_on,0,0,3,,,,,,,,0,,,53,72
22680,note_on,24,0,3,,,,,,,,0,,,49,72
22680,note_on,0,0,2,,,,,,,,0,,,89,72
22776,note_on,96,0,3,,,,,,,,0,,,53,0
22776,note_on,0,0,3,,,,,,,,0,,,49,0
22800,note_on,0,0,3,,,,,,,,0,,,51,72
22800,note_on,24,0,3,,,,,,,,0,,,48,72
22824,note_on,345,0,4,,,,,,,,0,,,41,0
22896,note_on,0,0,3,,,,,,,,0,,,48,0
22896,note_on,96,0,3,,,,,,,,0,,,51,0
22920,note_on,96,0,4,,,,,,,,0,,,41,72
22946,control_change,26,0,4,,,,,,,,0,64,0,,
22985,control_change,39,0,4,,,,,,,,0,64,127,,
23040,note_on,0,0,4,,,,,,,,0,,,46,72
23040,note_on,55,0,4,,,,,,,,0,,,49,72
23136,note_on,0,0,4,,,,,,,,0,,,41,0
23136,note_on,96,0,4,,,,,,,,0,,,46,0
23136,note_on,0,0,4,,,,,,,,0,,,49,0
23160,note_on,24,0,4,,,,,,,,0,,,53,72
23232,note_on,0,0,2,,,,,,,,0,,,101,0
23232,note_on,552,0,2,,,,,,,,0,,,89,0
23280,note_on,384,0,3,,,,,,,,0,,,65,72
23280,note_on,0,0,3,,,,,,,,0,,,61,72
23376,note_on,0,0,3,,,,,,,,0,,,65,0
23376,note_on,96,0,3,,,,,,,,0,,,61,0
23400,note_on,0,0,3,,,,,,,,0,,,60,72
23400,note_on,24,0,3,,,,,,,,0,,,63,72
23400,note_on,168,0,2,,,,,,,,0,,,65,72
23400,note_on,0,0,2,,,,,,,,0,,,77,72
23463,control_change,303,0,4,,,,,,,,0,64,0,,
23496,note_on,0,0,3,,,,,,,,0,,,63,0
23496,note_on,96,0,3,,,,,,,,0,,,60,0
23503,control_change,40,0,4,,,,,,,,0,64,127,,
23520,note_on,24,0,3,,,,,,,,0,,,58,72
23520,note_on,0,0,3,,,,,,,,0,,,61,72
23544,note_on,41,0,4,,,,,,,,0,,,53,0
23616,note_on,96,0,3,,,,,,,,0,,,61,0
23616,note_on,0,0,3,,,,,,,,0,,,58,0
23640,note_on,96,0,4,,,,,,,,0,,,53,72
23736,note_on,96,0,4,,,,,,,,0,,,53,0
23759,set_tempo,4327,1,0,,,,,,788436,,,,,,
23760,note_on,0,0,3,,,,,,,,0,,,57,72
23760,note_on,0,0,3,,,,,,,,0,,,60,72
23760,note_on,144,0,3,,,,,,,,0,,,53,72
23855,set_tempo,96,1,0,,,,,,796178,,,,,,
23856,note_on,96,0,3,,,,,,,,0,,,57,0
23856,note_on,0,0,3,,,,,,,,0,,,53,0
23856,note_on,0,0,3,,,,,,,,0,,,60,0
23877,control_change,141,0,4,,,,,,,,0,64,0,,
23880,note_on,3,0,4,,,,,,,,0,,,53,72
23909,control_change,29,0,4,,,,,,,,0,64,127,,
23946,set_tempo,91,1,0,,,,,,804074,,,,,,
23952,note_on,552,0,2,,,,,,,,0,,,77,0
23952,note_on,0,0,2,,,,,,,,0,,,65,0
24000,note_on,144,0,3,,,,,,,,0,,,66,72
24000,note_on,0,0,3,,,,,,,,0,,,63,72
24042,set_tempo,96,1,0,,,,,,812128,,,,,,
24096,note_on,0,0,3,,,,,,,,0,,,66,0
24096,note_on,96,0,3,,,,,,,,0,,,63,0
24120,note_on,24,0,3,,,,,,,,0,,,65,72
24120,note_on,0,0,2,,,,,,,,0,,,65,72
24120,note_on,168,0,2,,,,,,,,0,,,77,72
24120,note_on,0,0,3,,,,,,,,0,,,61,72
24134,set_tempo,92,1,0,,,,,,820345,,,,,,
24216,note_on,96,0,3,,,,,,,,0,,,61,0
24216,note_on,0,0,3,,,,,,,,0,,,65,0
24230,set_tempo,96,1,0,,,,,,828729,,,,,,
24240,note_on,0,0,3,,,,,,,,0,,,60,72
24240,note_on,24,0,3,,,,,,,,0,,,63,72
24264,note_on,355,0,4,,,,,,,,0,,,53,0
24322,set_tempo,92,1,0,,,,,,837287,,,,,,
24336,note_on,0,0,3,,,,,,,,0,,,63,0
24336,note_on,96,0,3,,,,,,,,0,,,60,0
24347,control_change,83,0,4,,,,,,,,0,64,0,,
24360,note_on,13,0,4,,,,,,,,0,,,53,72
24392,control_change,32,0,4,,,,,,,,0,64,127,,
24408,note_on,0,0,2,,,,,,,,0,,,77,0
24408,note_on,288,0,2,,,,,,,,0,,,65,0
24418,set_tempo,96,1,0,,,,,,846024,,,,,,
24480,note_on,72,0,2,,,,,,,,0,,,65,77
24480,note_on,0,0,2,,,,,,,,0,,,77,77
24480,note_on,0,0,3,,,,,,,,0,,,60,72
24480,note_on,144,0,3,,,,,,,,0,,,63,72
24509,set_tempo,91,1,0,,,,,,854944,,,,,,
24576,note_on,0,0,3,,,,,,,,0,,,63,0
24576,note_on,96,0,3,,,,,,,,0,,,60,0
24600,note_on,0,0,3,,,,,,,,0,,,61,72
24600,note_on,24,0,3,,,,,,,,0,,,58,72
24605,set_tempo,96,1,0,,,,,,864055,,,,,,
24672,note_on,280,0,4,,,,,,,,0,,,53,0
24697,set_tempo,92,1,0,,,,,,873362,,,,,,
24714,control_change,42,0,4,,,,,,,,0,64,0,,
24720,note_on,6,0,4,,,,,,,,0,,,53,72
24768,note_on,0,0,2,,,,,,,,0,,,65,0
24768,note_on,288,0,2,,,,,,,,0,,,77,0
24771,control_change,51,0,4,,,,,,,,0,64,127,,
24792,note_on,0,0,3,,,,,,,,0,,,58,0
24792,note_on,192,0,3,,,,,,,,0,,,61,0
24793,set_tempo,96,1,0,,,,,,882872,,,,,,
24840,note_on,0,0,2,,,,,,,,0,,,65,77
24840,note_on,0,0,3,,,,,,,,0,,,58,72
24840,note_on,72,0,2,,,,,,,,0,,,77,77
24840,note_on,48,0,3,,,,,,,,0,,,61,72
24885,set_tempo,92,1,0,,,,,,892591,,,,,,
24936,note_on,0,0,3,,,,,,,,0,,,61,0
24936,note_on,96,0,3,,,,,,,,0,,,58,0
24960,note_on,24,0,3,,,,,,,,0,,,57,72
24960,note_on,0,0,3,,,,,,,,0,,,60,72
24981,set_tempo,96,1,0,,,,,,902527,,,,,,
25008,note_on,237,0,4,,,,,,,,0,,,53,0
25072,set_tempo,91,1,0,,,,,,912686,,,,,,
25080,control_change,72,0,4,,,,,,,,0,64,0,,
25080,note_on,0,0,4,,,,,,,,0,,,41,72
25128,note_on,0,0,2,,,,,,,,0,,,77,0
25128,note_on,288,0,2,,,,,,,,0,,,65,0
25152,note_on,0,0,3,,,,,,,,0,,,57,0
25152,note_on,192,0,3,,,,,,,,0,,,60,0
25160,control_change,80,0,4,,,,,,,,0,64,127,,
25168,set_tempo,96,1,0,,,,,,923077,,,,,,
25200,note_on,72,0,2,,,,,,,,0,,,65,77
25200,note_on,0,0,3,,,,,,,,0,,,57,72
25200,note_on,0,0,2,,,,,,,,0,,,77,77
25200,note_on,48,0,3,,,,,,,,0,,,60,72
25203,set_tempo,35,1,0,,,,,,912686,,,,,,
25234,set_tempo,31,1,0,,,,,,923077,,,,,,
25260,set_tempo,26,1,0,,,,,,933707,,,,,,
25286,set_tempo,26,1,0,,,,,,944584,,,,,,
25296,note_on,0,0,3,,,,,,,,0,,,60,0
25296,note_on,96,0,3,,,,,,,,0,,,57,0
25317,set_tempo,31,1,0,,,,,,955718,,,,,,
25320,note_on,24,0,3,,,,,,,,0,,,55,72
25320,note_on,0,0,3,,,,,,,,0,,,58,72
25343,set_tempo,26,1,0,,,,,,967118,,,,,,
25369,set_tempo,26,1,0,,,,,,978793,,,,,,
25392,note_on,232,0,4,,,,,,,,0,,,41,0
25400,set_tempo,31,1,0,,,,,,990753,,,,,,
25426,set_tempo,26,1,0,,,,,,1003009,,,,,,
25434,control_change,42,0,4,,,,,,,,0,64,0,,
25440,note_on,6,0,4,,,,,,,,0,,,53,72
25452,set_tempo,26,1,0,,,,,,1015572,,,,,,
25482,set_tempo,30,1,0,,,,,,1028454,,,,,,
25488,note_on,0,0,2,,,,,,,,0,,,65,0
25488,note_on,288,0,2,,,,,,,,0,,,77,0
25491,control_change,51,0,4,,,,,,,,0,64,127,,
25509,set_tempo,27,1,0,,,,,,1041667,,,,,,
25512,note_on,0,0,3,,,,,,,,0,,,55,0
25512,note_on,192,0,3,,,,,,,,0,,,58,0
25535,set_tempo,26,1,0,,,,,,1055223,,,,,,
25560,note_on,0,0,2,,,,,,,,0,,,65,77
25560,note_on,0,0,3,,,,,,,,0,,,60,72
25560,note_on,72,0,2,,,,,,,,0,,,77,77
25560,note_on,48,0,3,,,,,,,,0,,,63,72
25561,set_tempo,26,1,0,,,,,,1069138,,,,,,
25592,set_tempo,31,1,0,,,,,,1083424,,,,,,
25618,set_tempo,26,1,0,,,,,,1098097,,,,,,
25644,set_tempo,26,1,0,,,,,,1113173,,,,,,
25656,note_on,96,0,3,,,,,,,,0,,,60,0
25656,note_on,0,0,3,,,,,,,,0,,,63,0
25674,set_tempo,30,1,0,,,,,,1128668,,,,,,
25680,note_on,24,0,3,,,,,,,,0,,,61,72
25680,note_on,0,0,3,,,,,,,,0,,,58,72
25701,set_tempo,27,1,0,,,,,,1144601,,,,,,
25727,set_tempo,26,1,0,,,,,,1160991,,,,,,
25728,note_on,237,0,4,,,,,,,,0,,,53,0
25757,set_tempo,30,1,0,,,,,,1177856,,,,,,
25784,set_tempo,27,1,0,,,,,,1195219,,,,,,
25800,note_on,72,0,4,,,,,,,,0,,,41,72
25810,set_tempo,26,1,0,,,,,,1213101,,,,,,
25840,set_tempo,30,1,0,,,,,,1231527,,,,,,
25848,note_on,0,0,2,,,,,,,,0,,,77,0
25848,note_on,288,0,2,,,,,,,,0,,,65,0
25866,set_tempo,26,1,0,,,,,,1250521,,,,,,
25872,note_on,192,0,3,,,,,,,,0,,,58,0
25872,note_on,0,0,3,,,,,,,,0,,,61,0
25893,set_tempo,27,1,0,,,,,,1270110,,,,,,
25896,note_on,96,0,4,,,,,,,,0,,,41,0
25899,set_tempo,6,1,0,,,,,,788229,,,,,,
25920,note_on,0,0,4,,,,,,,,0,,,53,58
25920,note_on,0,0,4,,,,,,,,0,,,60,58
25920,note_on,0,0,4,,,,,,,,0,,,65,58
25920,control_change,24,0,4,,,,,,,,0,64,0,,
25920,note_on,72,0,2,,,,,,,,0,,,81,58
25920,note_on,0,0,2,,,,,,,,0,,,69,58
25920,note_on,0,0,2,,,,,,,,0,,,77,58
25921,set_tempo,22,1,0,,,,,,798616,,,,,,
25942,set_tempo,21,1,0,,,,,,809280,,,,,,
25960,set_tempo,18,1,0,,,,,,820232,,,,,,
25977,control_change,57,0,4,,,,,,,,0,64,127,,
25982,set_tempo,22,1,0,,,,,,831486,,,,,,
26004,set_tempo,22,1,0,,,,,,843052,,,,,,
26016,note_on,96,0,2,,,,,,,,0,,,77,0
26016,note_on,0,0,2,,,,,,,,0,,,81,0
26016,note_on,0,0,4,,,,,,,,0,,,65,0
26016,note_on,0,0,2,,,,,,,,0,,,69,0
26016,note_on,39,0,4,,,,,,,,0,,,53,0
26016,note_on,0,0,4,,,,,,,,0,,,60,0
26021,set_tempo,17,1,0,,,,,,854944,,,,,,
26040,note_on,0,0,4,,,,,,,,0,,,60,58
26040,note_on,24,0,2,,,,,,,,0,,,69,58
26040,note_on,0,0,2,,,,,,,,0,,,72,58
26040,note_on,24,0,4,,,,,,,,0,,,53,58
26043,set_tempo,22,1,0,,,,,,867177,,,,,,
26065,set_tempo,22,1,0,,,,,,879765,,,,,,
26082,set_tempo,17,1,0,,,,,,892724,,,,,,
26104,set_tempo,22,1,0,,,,,,906071,,,,,,
26121,set_tempo,17,1,0,,,,,,919822,,,,,,
26136,note_on,0,0,4,,,,,,,,0,,,53,0
26136,note_on,0,0,2,,,,,,,,0,,,69,0
26136,note_on,96,0,2,,,,,,,,0,,,72,0
26136,note_on,96,0,4,,,,,,,,0,,,60,0
26143,set_tempo,22,1,0,,,,,,933998,,,,,,
26160,note_on,24,0,4,,,,,,,,0,,,53,58
26160,note_on,24,0,2,,,,,,,,0,,,72,58
26160,note_on,0,0,4,,,,,,,,0,,,65,58
26160,note_on,0,0,4,,,,,,,,0,,,60,58
26160,note_on,0,0,2,,,,,,,,0,,,69,58
26160,note_on,0,0,2,,,,,,,,0,,,81,58
26165,set_tempo,22,1,0,,,,,,948617,,,,,,
26182,set_tempo,17,1,0,,,,,,963701,,,,,,
26204,set_tempo,22,1,0,,,,,,979272,,,,,,
26226,set_tempo,22,1,0,,,,,,995355,,,,,,
26244,set_tempo,18,1,0,,,,,,1011975,,,,,,
26256,note_on,96,0,2,,,,,,,,0,,,69,0
26256,note_on,0,0,4,,,,,,,,0,,,65,0
26256,note_on,96,0,4,,,,,,,,0,,,60,0
26256,note_on,0,0,4,,,,,,,,0,,,53,0
26256,note_on,0,0,2,,,,,,,,0,,,81,0
26256,note_on,0,0,2,,,,,,,,0,,,72,0
26265,set_tempo,21,1,0,,,,,,1029160,,,,,,
26280,note_on,24,0,4,,,,,,,,0,,,53,58
26280,note_on,0,0,2,,,,,,,,0,,,79,58
26280,note_on,24,0,2,,,,,,,,0,,,73,58
26280,note_on,0,0,2,,,,,,,,0,,,70,58
26280,note_on,0,0,4,,,,,,,,0,,,67,58
26280,note_on,0,0,4,,,,,,,,0,,,64,58
26283,set_tempo,18,1,0,,,,,,1046938,,,,,,
26300,set_tempo,17,1,0,,,,,,1029160,,,,,,
26318,set_tempo,18,1,0,,,,,,1011975,,,,,,
26331,set_tempo,13,1,0,,,,,,995355,,,,,,
26348,set_tempo,17,1,0,,,,,,979272,,,,,,
26366,set_tempo,18,1,0,,,,,,963701,,,,,,
26376,note_on,0,0,4,,,,,,,,0,,,53,0
26376,note_on,0,0,4,,,,,,,,0,,,64,0
26376,note_on,96,0,4,,,,,,,,0,,,67,0
26376,note_on,0,0,2,,,,,,,,0,,,73,0
26376,note_on,0,0,2,,,,,,,,0,,,79,0
26376,note_on,96,0,2,,,,,,,,0,,,70,0
26379,set_tempo,13,1,0,,,,,,948617,,,,,,
26394,control_change,18,0,4,,,,,,,,0,64,0,,
26396,set_tempo,17,1,0,,,,,,933998,,,,,,
26400,note_on,0,0,4,,,,,,,,0,,,53,58
26400,note_on,24,0,2,,,,,,,,0,,,77,58
26400,note_on,0,0,4,,,,,,,,0,,,65,58
26400,note_on,0,0,2,,,,,,,,0,,,70,58
26400,note_on,6,0,4,,,,,,,,0,,,62,58
26400,note_on,0,0,2,,,,,,,,0,,,74,58
26414,set_tempo,18,1,0,,,,,,919822,,,,,,
26427,set_tempo,13,1,0,,,,,,906071,,,,,,
26444,set_tempo,17,1,0,,,,,,892724,,,,,,
26451,control_change,51,0,4,,,,,,,,0,64,127,,
26457,set_tempo,13,1,0,,,,,,879765,,,,,,
26475,set_tempo,18,1,0,,,,,,867177,,,,,,
26492,set_tempo,17,1,0,,,,,,854944,,,,,,
26496,note_on,0,0,4,,,,,,,,0,,,62,0
26496,note_on,0,0,4,,,,,,,,0,,,53,0
26496,note_on,96,0,2,,,,,,,,0,,,70,0
26496,note_on,0,0,2,,,,,,,,0,,,74,0
26496,note_on,0,0,2,,,,,,,,0,,,77,0
26496,note_on,45,0,4,,,,,,,,0,,,65,0
26505,set_tempo,13,1,0,,,,,,843052,,,,,,
26520,note_on,0,0,2,,,,,,,,0,,,65,58
26520,note_on,0,0,4,,,,,,,,0,,,62,58
26520,note_on,24,0,2,,,,,,,,0,,,70,58
26520,note_on,24,0,4,,,,,,,,0,,,53,58
26523,set_tempo,18,1,0,,,,,,831486,,,,,,
26540,set_tempo,17,1,0,,,,,,820232,,,,,,
26553,set_tempo,13,1,0,,,,,,809280,,,,,,
26571,set_tempo,18,1,0,,,,,,798616,,,,,,
26588,set_tempo,17,1,0,,,,,,788229,,,,,,
26601,set_tempo,13,1,0,,,,,,778109,,,,,,
26616,note_on,0,0,2,,,,,,,,0,,,70,0
26616,note_on,96,0,4,,,,,,,,0,,,62,0
26616,note_on,0,0,4,,,,,,,,0,,,53,0
26616,note_on,96,0,2,,,,,,,,0,,,65,0
26619,set_tempo,18,1,0,,,,,,768246,,,,,,
26632,set_tempo,13,1,0,,,,,,758629,,,,,,
26640,note_on,0,0,2,,,,,,,,0,,,71,58
26640,note_on,24,0,2,,,,,,,,0,,,77,58
26640,note_on,24,0,4,,,,,,,,0,,,62,58
26640,note_on,0,0,2,,,,,,,,0,,,68,58
26640,note_on,0,0,4,,,,,,,,0,,,53,58
26640,note_on,0,0,4,,,,,,,,0,,,65,58
26736,note_on,0,0,2,,,,,,,,0,,,77,0
26736,note_on,0,0,4,,,,,,,,0,,,65,0
26736,note_on,96,0,2,,,,,,,,0,,,68,0
26736,note_on,96,0,4,,,,,,,,0,,,53,0
26736,note_on,0,0,2,,,,,,,,0,,,71,0
26736,note_on,0,0,4,,,,,,,,0,,,62,0
26760,note_on,0,0,2,,,,,,,,0,,,69,58
26760,note_on,0,0,2,,,,,,,,0,,,72,58
26760,note_on,0,0,4,,,,,,,,0,,,64,58
26760,note_on,24,0,4,,,,,,,,0,,,60,58
26760,note_on,24,0,2,,,,,,,,0,,,76,58
26760,note_on,0,0,4,,,,,,,,0,,,53,58
26856,note_on,96,0,4,,,,,,,,0,,,53,0
26856,note_on,0,0,2,,,,,,,,0,,,72,0
26856,note_on,0,0,4,,,,,,,,0,,,60,0
26856,note_on,0,0,2,,,,,,,,0,,,76,0
26856,note_on,0,0,4,,,,,,,,0,,,64,0
26856,note_on,96,0,2,,,,,,,,0,,,69,0
26880,note_on,24,0,4,,,,,,,,0,,,58,58
26880,note_on,24,0,2,,,,,,,,0,,,70,58
26880,note_on,0,0,2,,,,,,,,0,,,65,58
26880,note_on,0,0,2,,,,,,,,0,,,74,58
26880,note_on,0,0,4,,,,,,,,0,,,53,58
26880,note_on,0,0,4,,,,,,,,0,,,62,58
26897,control_change,17,0,4,,,,,,,,0,64,0,,
26960,control_change,63,0,4,,,,,,,,0,64,127,,
26976,note_on,0,0,4,,,,,,,,0,,,53,0
26976,note_on,16,0,4,,,,,,,,0,,,62,0
26976,note_on,96,0,2,,,,,,,,0,,,65,0
26976,note_on,0,0,4,,,,,,,,0,,,58,0
26976,note_on,0,0,2,,,,,,,,0,,,74,0
26976,note_on,0,0,2,,,,,,,,0,,,70,0
27000,note_on,24,0,4,,,,,,,,0,,,53,58
27000,note_on,0,0,4,,,,,,,,0,,,58,58
27000,note_on,0,0,2,,,,,,,,0,,,62,58
27000,note_on,24,0,2,,,,,,,,0,,,65,58
27096,note_on,0,0,4,,,,,,,,0,,,53,0
27096,note_on,0,0,2,,,,,,,,0,,,65,0
27096,note_on,96,0,2,,,,,,,,0,,,62,0
27096,note_on,96,0,4,,,,,,,,0,,,58,0
27120,note_on,24,0,4,,,,,,,,0,,,62,58
27120,note_on,0,0,2,,,,,,,,0,,,65,58
27120,note_on,0,0,2,,,,,,,,0,,,70,58
27120,note_on,24,0,2,,,,,,,,0,,,74,58
27120,note_on,0,0,4,,,,,,,,0,,,58,58
27120,note_on,0,0,4,,,,,,,,0,,,53,58
27216,note_on,0,0,4,,,,,,,,0,,,62,0
27216,note_on,0,0,2,,,,,,,,0,,,65,0
27216,note_on,0,0,2,,,,,,,,0,,,74,0
27216,note_on,0,0,4,,,,,,,,0,,,53,0
27216,note_on,96,0,4,,,,,,,,0,,,58,0
27216,note_on,96,0,2,,,,,,,,0,,,70,0
27240,note_on,24,0,2,,,,,,,,0,,,65,58
27240,note_on,0,0,2,,,,,,,,0,,,69,58
27240,note_on,0,0,2,,,,,,,,0,,,72,58
27240,note_on,24,0,4,,,,,,,,0,,,60,58
27240,note_on,0,0,4,,,,,,,,0,,,57,58
27240,note_on,0,0,4,,,,,,,,0,,,53,58
27336,note_on,0,0,2,,,,,,,,0,,,69,0
27336,note_on,96,0,2,,,,,,,,0,,,72,0
27336,note_on,96,0,4,,,,,,,,0,,,53,0
27336,note_on,0,0,2,,,,,,,,0,,,65,0
27336,note_on,0,0,4,,,,,,,,0,,,57,0
27336,note_on,0,0,4,,,,,,,,0,,,60,0
27352,set_tempo,720,1,0,,,,,,740101,,,,,,
27360,note_on,1488,0,3,,,,,,,,0,,,59,79
27360,control_change,24,0,4,,,,,,,,0,64,0,,
27360,note_on,10104,0,1,,,,,,,,0,,,71,79
27360,note_on,24,0,2,,,,,,,,0,,,65,58
27360,note_on,0,0,2,,,,,,,,0,,,68,58
27360,note_on,0,0,4,,,,,,,,0,,,53,58
27360,note_on,0,0,4,,,,,,,,0,,,56,58
27381,set_tempo,29,1,0,,,,,,758629,,,,,,
27386,set_tempo,5,1,0,,,,,,749251,,,,,,
27410,control_change,50,0,4,,,,,,,,0,64,127,,
27456,note_on,0,0,4,,,,,,,,0,,,53,0
27456,note_on,96,0,2,,,,,,,,0,,,68,0
27456,note_on,46,0,4,,,,,,,,0,,,56,0
27456,note_on,0,0,2,,,,,,,,0,,,65,0
27480,note_on,24,0,2,,,,,,,,0,,,67,58
27480,note_on,0,0,2,,,,,,,,0,,,64,58
27480,note_on,0,0,4,,,,,,,,0,,,52,58
27480,note_on,24,0,4,,,,,,,,0,,,55,58
27576,note_on,96,0,2,,,,,,,,0,,,64,0
27576,note_on,0,0,2,,,,,,,,0,,,67,0
27576,note_on,0,0,4,,,,,,,,0,,,55,0
27576,note_on,96,0,4,,,,,,,,0,,,52,0
27600,note_on,0,0,2,,,,,,,,0,,,65,58
27600,note_on,24,0,2,,,,,,,,0,,,62,58
27600,note_on,0,0,4,,,,,,,,0,,,50,58
27600,note_on,24,0,4,,,,,,,,0,,,53,58
27648,note_on,288,0,3,,,,,,,,0,,,59,0
27648,note_on,288,0,1,,,,,,,,0,,,71,0
27696,note_on,96,0,4,,,,,,,,0,,,50,0
27696,note_on,0,0,2,,,,,,,,0,,,62,0
27696,note_on,0,0,4,,,,,,,,0,,,53,0
27696,note_on,96,0,2,,,,,,,,0,,,65,0
27718,set_tempo,332,1,0,,,,,,867177,,,,,,
27720,note_on,0,0,2,,,,,,,,0,,,65,58
27720,control_change,24,0,4,,,,,,,,0,64,0,,
27720,note_on,0,0,4,,,,,,,,0,,,53,58
27720,note_on,0,0,4,,,,,,,,0,,,49,58
27720,note_on,24,0,2,,,,,,,,0,,,61,58
27720,note_on,72,0,1,,,,,,,,0,,,70,79
27720,note_on,72,0,3,,,,,,,,0,,,58,79
27722,set_tempo,4,1,0,,,,,,768246,,,,,,
27739,set_tempo,17,1,0,,,,,,778109,,,,,,
27757,set_tempo,18,1,0,,,,,,788229,,,,,,
27774,set_tempo,17,1,0,,,,,,798616,,,,,,
27774,control_change,54,0,4,,,,,,,,0,64,127,,
27792,set_tempo,18,1,0,,,,,,809280,,,,,,
27809,set_tempo,17,1,0,,,,,,820232,,,,,,
27816,note_on,0,0,2,,,,,,,,0,,,61,0
27816,note_on,96,0,2,,,,,,,,0,,,65,0
27816,note_on,42,0,4,,,,,,,,0,,,53,0
27816,note_on,0,0,4,,,,,,,,0,,,49,0
27826,set_tempo,17,1,0,,,,,,831486,,,,,,
27840,note_on,24,0,4,,,,,,,,0,,,48,58
27840,note_on,0,0,2,,,,,,,,0,,,64,58
27840,note_on,0,0,4,,,,,,,,0,,,52,58
27840,set_tempo,14,1,0,,,,,,843052,,,,,,
27840,note_on,24,0,2,,,,,,,,0,,,60,58
27857,set_tempo,17,1,0,,,,,,854944,,,,,,
27874,set_tempo,17,1,0,,,,,,867177,,,,,,
27892,set_tempo,18,1,0,,,,,,879765,,,,,,
27909,set_tempo,17,1,0,,,,,,892724,,,,,,
27912,note_on,192,0,1,,,,,,,,0,,,70,0
27912,note_on,192,0,3,,,,,,,,0,,,58,0
27927,set_tempo,18,1,0,,,,,,906071,,,,,,
27936,note_on,0,0,4,,,,,,,,0,,,48,0
27936,note_on,0,0,2,,,,,,,,0,,,60,0
27936,note_on,96,0,4,,,,,,,,0,,,52,0
27936,note_on,96,0,2,,,,,,,,0,,,64,0
27944,set_tempo,17,1,0,,,,,,919822,,,,,,
27957,set_tempo,13,1,0,,,,,,933998,,,,,,
27960,note_on,24,0,2,,,,,,,,0,,,67,58
27960,note_on,24,0,4,,,,,,,,0,,,52,58
27960,note_on,0,0,4,,,,,,,,0,,,55,58
27960,note_on,0,0,2,,,,,,,,0,,,64,58
27960,note_on,48,0,1,,,,,,,,0,,,72,79
27960,note_on,48,0,3,,,,,,,,0,,,60,79
27975,set_tempo,18,1,0,,,,,,948617,,,,,,
27992,set_tempo,17,1,0,,,,,,963701,,,,,,
28010,set_tempo,18,1,0,,,,,,979272,,,,,,
28027,set_tempo,17,1,0,,,,,,995355,,,,,,
28045,set_tempo,18,1,0,,,,,,1011975,,,,,,
28056,note_on,96,0,2,,,,,,,,0,,,64,0
28056,note_on,96,0,3,,,,,,,,0,,,60,0
28056,note_on,96,0,1,,,,,,,,0,,,72,0
28056,note_on,0,0,2,,,,,,,,0,,,67,0
28056,note_on,96,0,4,,,,,,,,0,,,55,0
28056,note_on,0,0,4,,,,,,,,0,,,52,0
28058,set_tempo,13,1,0,,,,,,1029160,,,,,,
28059,set_tempo,1,1,0,,,,,,919822,,,,,,
28063,set_tempo,4,1,0,,,,,,879765,,,,,,
28068,set_tempo,5,1,0,,,,,,831486,,,,,,
28072,set_tempo,4,1,0,,,,,,798616,,,,,,
28076,set_tempo,4,1,0,,,,,,758629,,,,,,
28080,note_on,0,0,4,,,,,,,,0,,,53,57
28080,note_on,0,0,4,,,,,,,,0,,,57,57
28080,note_on,24,0,2,,,,,,,,0,,,69,57
28080,note_on,0,0,2,,,,,,,,0,,,65,57
28080,control_change,24,0,4,,,,,,,,0,64,0,,
28086,set_tempo,10,1,0,,,,,,796178,,,,,,
28104,set_tempo,18,1,0,,,,,,804074,,,,,,
28121,set_tempo,17,1,0,,,,,,812128,,,,,,
28134,set_tempo,13,1,0,,,,,,820345,,,,,,
28137,control_change,57,0,4,,,,,,,,0,64,127,,
28152,set_tempo,18,1,0,,,,,,828729,,,,,,
28165,set_tempo,13,1,0,,,,,,837287,,,,,,
28176,note_on,0,0,4,,,,,,,,0,,,53,0
28176,note_on,39,0,4,,,,,,,,0,,,57,0
28176,note_on,0,0,2,,,,,,,,0,,,69,0
28176,note_on,96,0,2,,,,,,,,0,,,65,0
28182,set_tempo,17,1,0,,,,,,846024,,,,,,
28195,set_tempo,13,1,0,,,,,,854944,,,,,,
28200,note_on,24,0,4,,,,,,,,0,,,60,57
28200,note_on,24,0,2,,,,,,,,0,,,72,57
28200,note_on,0,0,4,,,,,,,,0,,,53,57
28200,note_on,0,0,2,,,,,,,,0,,,69,57
28213,set_tempo,18,1,0,,,,,,864055,,,,,,
28230,set_tempo,17,1,0,,,,,,873362,,,,,,
28243,set_tempo,13,1,0,,,,,,882872,,,,,,
28261,set_tempo,18,1,0,,,,,,892591,,,,,,
28274,set_tempo,13,1,0,,,,,,902527,,,,,,
28291,set_tempo,17,1,0,,,,,,912686,,,,,,
28296,note_on,0,0,2,,,,,,,,0,,,72,0
28296,note_on,96,0,2,,,,,,,,0,,,69,0
28296,note_on,96,0,4,,,,,,,,0,,,53,0
28296,note_on,0,0,4,,,,,,,,0,,,60,0
28304,set_tempo,13,1,0,,,,,,923077,,,,,,
28320,note_on,0,0,2,,,,,,,,0,,,72,57
28320,note_on,24,0,4,,,,,,,,0,,,65,57
28320,note_on,0,0,2,,,,,,,,0,,,69,57
28320,note_on,0,0,4,,,,,,,,0,,,53,57
28320,note_on,0,0,4,,,,,,,,0,,,60,57
28320,note_on,24,0,2,,,,,,,,0,,,81,57
28322,set_tempo,18,1,0,,,,,,933707,,,,,,
28339,set_tempo,17,1,0,,,,,,944584,,,,,,
28352,set_tempo,13,1,0,,,,,,955718,,,,,,
28370,set_tempo,18,1,0,,,,,,967118,,,,,,
28383,set_tempo,13,1,0,,,,,,978793,,,,,,
28400,set_tempo,17,1,0,,,,,,990753,,,,,,
28413,set_tempo,13,1,0,,,,,,1003009,,,,,,
28416,note_on,96,0,4,,,,,,,,0,,,53,0
28416,note_on,0,0,4,,,,,,,,0,,,65,0
28416,note_on,0,0,4,,,,,,,,0,,,60,0
28416,note_on,96,0,2,,,,,,,,0,,,69,0
28416,note_on,0,0,2,,,,,,,,0,,,81,0
28416,note_on,0,0,2,,,,,,,,0,,,72,0
28431,set_tempo,18,1,0,,,,,,1015572,,,,,,
28440,note_on,0,0,2,,,,,,,,0,,,73,57
28440,note_on,0,0,4,,,,,,,,0,,,53,57
28440,note_on,24,0,4,,,,,,,,0,,,64,57
28440,note_on,24,0,2,,,,,,,,0,,,79,57
28440,note_on,0,0,2,,,,,,,,0,,,70,57
28440,note_on,0,0,4,,,,,,,,0,,,67,57
28444,set_tempo,13,1,0,,,,,,1028454,,,,,,
28461,set_tempo,17,1,0,,,,,,1015572,,,,,,
28479,set_tempo,18,1,0,,,,,,1003009,,,,,,
28496,set_tempo,17,1,0,,,,,,990753,,,,,,
28514,set_tempo,18,1,0,,,,,,978793,,,,,,
28527,set_tempo,13,1,0,,,,,,967118,,,,,,
28536,note_on,0,0,4,,,,,,,,0,,,64,0
28536,note_on,0,0,2,,,,,,,,0,,,70,0
28536,note_on,0,0,2,,,,,,,,0,,,79,0
28536,note_on,96,0,4,,,,,,,,0,,,67,0
28536,note_on,96,0,2,,,,,,,,0,,,73,0
28544,set_tempo,17,1,0,,,,,,955718,,,,,,
28560,note_on,0,0,4,,,,,,,,0,,,62,57
28560,note_on,24,0,4,,,,,,,,0,,,65,57
28560,note_on,24,0,2,,,,,,,,0,,,77,57
28560,note_on,0,0,2,,,,,,,,0,,,70,57
28560,note_on,0,0,2,,,,,,,,0,,,74,57
28562,set_tempo,18,1,0,,,,,,944584,,,,,,
28571,control_change,11,0,4,,,,,,,,0,64,0,,
28579,set_tempo,17,1,0,,,,,,933707,,,,,,
28592,set_tempo,13,1,0,,,,,,923077,,,,,,
28606,control_change,35,0,4,,,,,,,,0,64,127,,
28610,set_tempo,18,1,0,,,,,,912686,,,,,,
28627,set_tempo,17,1,0,,,,,,902527,,,,,,
28645,set_tempo,18,1,0,,,,,,892591,,,,,,
28656,note_on,0,0,4,,,,,,,,0,,,53,0
28656,note_on,0,0,4,,,,,,,,0,,,65,0
28656,note_on,0,0,2,,,,,,,,0,,,77,0
28656,note_on,96,0,2,,,,,,,,0,,,70,0
28656,note_on,50,0,4,,,,,,,,0,,,62,0
28656,note_on,0,0,2,,,,,,,,0,,,74,0
28658,set_tempo,13,1,0,,,,,,882872,,,,,,
28675,set_tempo,17,1,0,,,,,,873362,,,,,,
28680,note_on,24,0,2,,,,,,,,0,,,70,57
28680,note_on,0,0,2,,,,,,,,0,,,65,57
28680,note_on,0,0,4,,,,,,,,0,,,53,57
28680,note_on,24,0,4,,,,,,,,0,,,62,57
28693,set_tempo,18,1,0,,,,,,864055,,,,,,
28710,set_tempo,17,1,0,,,,,,854944,,,,,,
28723,set_tempo,13,1,0,,,,,,846024,,,,,,
28741,set_tempo,18,1,0,,,,,,837287,,,,,,
28758,set_tempo,17,1,0,,,,,,828729,,,,,,
28776,note_on,96,0,4,,,,,,,,0,,,62,0
28776,set_tempo,18,1,0,,,,,,820345,,,,,,
28776,note_on,0,0,2,,,,,,,,0,,,70,0
28776,note_on,96,0,2,,,,,,,,0,,,65,0
28789,set_tempo,13,1,0,,,,,,812128,,,,,,
28800,note_on,0,0,2,,,,,,,,0,,,68,57
28800,note_on,0,0,2,,,,,,,,0,,,71,57
28800,note_on,24,0,2,,,,,,,,0,,,77,57
28800,note_on,24,0,4,,,,,,,,0,,,65,57
28800,note_on,0,0,4,,,,,,,,0,,,62,57
28896,note_on,0,0,4,,,,,,,,0,,,65,0
28896,note_on,0,0,4,,,,,,,,0,,,53,0
28896,note_on,0,0,2,,,,,,,,0,,,77,0
28896,note_on,96,0,4,,,,,,,,0,,,62,0
28896,note_on,0,0,2,,,,,,,,0,,,71,0
28896,note_on,96,0,2,,,,,,,,0,,,68,0
28920,note_on,0,0,2,,,,,,,,0,,,72,57
28920,note_on,0,0,2,,,,,,,,0,,,69,57
28920,note_on,24,0,4,,,,,,,,0,,,64,57
28920,note_on,24,0,2,,,,,,,,0,,,76,57
28920,note_on,0,0,4,,,,,,,,0,,,60,57
28920,note_on,0,0,4,,,,,,,,0,,,53,57
29016,note_on,96,0,4,,,,,,,,0,,,60,0
29016,note_on,96,0,2,,,,,,,,0,,,69,0
29016,note_on,0,0,2,,,,,,,,0,,,72,0
29016,note_on,0,0,2,,,,,,,,0,,,76,0
29016,note_on,0,0,4,,,,,,,,0,,,64,0
29016,note_on,0,0,4,,,,,,,,0,,,53,0
29034,control_change,18,0,4,,,,,,,,0,64,0,,
29040,note_on,0,0,2,,,,,,,,0,,,65,57
29040,note_on,0,0,2,,,,,,,,0,,,74,57
29040,note_on,0,0,4,,,,,,,,0,,,58,57
29040,note_on,0,0,4,,,,,,,,0,,,53,57
29040,note_on,24,0,2,,,,,,,,0,,,70,57
29040,note_on,6,0,4,,,,,,,,0,,,62,57
29074,control_change,34,0,4,,,,,,,,0,64,127,,
29136,note_on,0,0,2,,,,,,,,0,,,74,0
29136,note_on,96,0,2,,,,,,,,0,,,65,0
29136,note_on,0,0,2,,,,,,,,0,,,70,0
29136,note_on,0,0,4,,,,,,,,0,,,62,0
29136,note_on,0,0,4,,,,,,,,0,,,53,0
29136,note_on,62,0,4,,,,,,,,0,,,58,0
29160,note_on,0,0,4,,,,,,,,0,,,58,57
29160,note_on,0,0,2,,,,,,,,0,,,62,57
29160,note_on,24,0,2,,,,,,,,0,,,65,57
29160,note_on,24,0,4,,,,,,,,0,,,53,57
29256,note_on,96,0,2,,,,,,,,0,,,62,0
29256,note_on,0,0,2,,,,,,,,0,,,65,0
29256,note_on,0,0,4,,,,,,,,0,,,53,0
29256,note_on,96,0,4,,,,,,,,0,,,58,0
29280,note_on,24,0,4,,,,,,,,0,,,62,57
29280,note_on,0,0,4,,,,,,,,0,,,53,57
29280,note_on,24,0,2,,,,,,,,0,,,74,57
29280,note_on,0,0,2,,,,,,,,0,,,65,57
29280,note_on,0,0,2,,,,,,,,0,,,70,57
29280,note_on,0,0,4,,,,,,,,0,,,58,57
29376,note_on,0,0,2,,,,,,,,0,,,65,0
29376,note_on,96,0,4,,,,,,,,0,,,58,0
29376,note_on,0,0,4,,,,,,,,0,,,53,0
29376,note_on,0,0,4,,,,,,,,0,,,62,0
29376,note_on,96,0,2,,,,,,,,0,,,70,0
29376,note_on,0,0,2,,,,,,,,0,,,74,0
29400,note_on,0,0,2,,,,,,,,0,,,69,57
29400,note_on,0,0,2,,,,,,,,0,,,72,57
29400,note_on,0,0,4,,,,,,,,0,,,53,57
29400,note_on,0,0,4,,,,,,,,0,,,60,57
29400,note_on,24,0,2,,,,,,,,0,,,65,57
29400,note_on,24,0,4,,,,,,,,0,,,57,57
29496,note_on,96,0,4,,,,,,,,0,,,53,0
29496,note_on,0,0,2,,,,,,,,0,,,69,0
29496,note_on,0,0,2,,,,,,,,0,,,65,0
29496,note_on,96,0,2,,,,,,,,0,,,72,0
29496,note_on,0,0,4,,,,,,,,0,,,60,0
29496,note_on,0,0,4,,,,,,,,0,,,57,0
29520,note_on,0,0,4,,,,,,,,0,,,56,57
29520,note_on,0,0,4,,,,,,,,0,,,53,57
29520,note_on,1464,0,3,,,,,,,,0,,,59,79
29520,note_on,1464,0,1,,,,,,,,0,,,71,79
29520,note_on,0,0,2,,,,,,,,0,,,68,57
29520,note_on,24,0,2,,,,,,,,0,,,65,57
29520,control_change,24,0,4,,,,,,,,0,64,0,,
29557,control_change,37,0,4,,,,,,,,0,64,127,,
29616,note_on,59,0,4,,,,,,,,0,,,56,0
29616,note_on,96,0,2,,,,,,,,0,,,68,0
29616,note_on,0,0,2,,,,,,,,0,,,65,0
29616,note_on,0,0,4,,,,,,,,0,,,53,0
29640,note_on,0,0,2,,,,,,,,0,,,64,57
29640,note_on,24,0,2,,,,,,,,0,,,67,57
29640,note_on,0,0,4,,,,,,,,0,,,55,57
29640,note_on,24,0,4,,,,,,,,0,,,52,57
29736,note_on,96,0,4,,,,,,,,0,,,55,0
29736,note_on,0,0,2,,,,,,,,0,,,67,0
29736,note_on,96,0,2,,,,,,,,0,,,64,0
29736,note_on,0,0,4,,,,,,,,0,,,52,0
29760,note_on,0,0,2,,,,,,,,0,,,65,57
29760,note_on,24,0,2,,,,,,,,0,,,62,57
29760,note_on,0,0,4,,,,,,,,0,,,53,57
29760,note_on,24,0,4,,,,,,,,0,,,50,57
29808,note_on,288,0,3,,,,,,,,0,,,59,0
29808,note_on,288,0,1,,,,,,,,0,,,71,0
29856,note_on,0,0,2,,,,,,,,0,,,62,0
29856,note_on,0,0,4,,,,,,,,0,,,50,0
29856,note_on,96,0,2,,,,,,,,0,,,65,0
29856,note_on,96,0,4,,,,,,,,0,,,53,0
29868,set_tempo,1079,1,0,,,,,,780843,,,,,,
29880,control_change,24,0,4,,,,,,,,0,64,0,,
29880,note_on,0,0,2,,,,,,,,0,,,61,57
29880,note_on,24,0,2,,,,,,,,0,,,65,57
29880,note_on,0,0,4,,,,,,,,0,,,49,57
29880,note_on,0,0,4,,,,,,,,0,,,53,57
29880,note_on,72,0,3,,,,,,,,0,,,58,79
29880,note_on,72,0,1,,,,,,,,0,,,70,79
29885,set_tempo,17,1,0,,,,,,788436,,,,,,
29898,set_tempo,13,1,0,,,,,,796178,,,,,,
29916,set_tempo,18,1,0,,,,,,804074,,,,,,
29929,set_tempo,13,1,0,,,,,,812128,,,,,,
29938,control_change,58,0,4,,,,,,,,0,64,127,,
29946,set_tempo,17,1,0,,,,,,820345,,,,,,
29959,set_tempo,13,1,0,,,,,,828729,,,,,,
29976,note_on,0,0,2,,,,,,,,0,,,65,0
29976,note_on,38,0,4,,,,,,,,0,,,53,0
29976,note_on,0,0,4,,,,,,,,0,,,49,0
29976,note_on,96,0,2,,,,,,,,0,,,61,0
29977,set_tempo,18,1,0,,,,,,837287,,,,,,
29990,set_tempo,13,1,0,,,,,,846024,,,,,,
30000,note_on,0,0,2,,,,,,,,0,,,60,57
30000,note_on,24,0,2,,,,,,,,0,,,64,57
30000,note_on,24,0,4,,,,,,,,0,,,48,57
30000,note_on,0,0,4,,,,,,,,0,,,52,57
30007,set_tempo,17,1,0,,,,,,854944,,,,,,
30020,set_tempo,13,1,0,,,,,,864055,,,,,,
30038,set_tempo,18,1,0,,,,,,873362,,,,,,
30051,set_tempo,13,1,0,,,,,,882872,,,,,,
30068,set_tempo,17,1,0,,,,,,892591,,,,,,
30072,note_on,192,0,1,,,,,,,,0,,,70,0
30072,note_on,192,0,3,,,,,,,,0,,,58,0
30082,set_tempo,14,1,0,,,,,,902527,,,,,,
30096,note_on,0,0,2,,,,,,,,0,,,64,0
30096,note_on,96,0,4,,,,,,,,0,,,52,0
30096,note_on,96,0,2,,,,,,,,0,,,60,0
30096,note_on,0,0,4,,,,,,,,0,,,48,0
30099,set_tempo,17,1,0,,,,,,912686,,,,,,
30112,set_tempo,13,1,0,,,,,,923077,,,,,,
30120,note_on,24,0,4,,,,,,,,0,,,52,57
30120,note_on,0,0,4,,,,,,,,0,,,55,57
30120,note_on,48,0,1,,,,,,,,0,,,72,79
30120,note_on,24,0,2,,,,,,,,0,,,64,57
30120,note_on,48,0,3,,,,,,,,0,,,60,79
30120,note_on,0,0,2,,,,,,,,0,,,67,57
30130,set_tempo,18,1,0,,,,,,933707,,,,,,
30143,set_tempo,13,1,0,,,,,,944584,,,,,,
30160,set_tempo,17,1,0,,,,,,955718,,,,,,
30173,set_tempo,13,1,0,,,,,,967118,,,,,,
30191,set_tempo,18,1,0,,,,,,978793,,,,,,
30204,set_tempo,13,1,0,,,,,,990753,,,,,,
30216,note_on,0,0,2,,,,,,,,0,,,64,0
30216,note_on,96,0,2,,,,,,,,0,,,67,0
30216,note_on,0,0,4,,,,,,,,0,,,52,0
30216,note_on,96,0,4,,,,,,,,0,,,55,0
30221,set_tempo,17,1,0,,,,,,1003009,,,,,,
30234,set_tempo,13,1,0,,,,,,1015572,,,,,,
30240,note_on,0,0,2,,,,,,,,0,,,69,72
30240,control_change,24,0,4,,,,,,,,0,64,0,,
30240,note_on,0,0,4,,,,,,,,0,,,53,72
30240,note_on,0,0,4,,,,,,,,0,,,57,72
30240,note_on,24,0,2,,,,,,,,0,,,65,72
30243,set_tempo,9,1,0,,,,,,804074,,,,,,
30286,control_change,46,0,4,,,,,,,,0,64,127,,
30312,note_on,192,0,3,,,,,,,,0,,,60,0
30312,note_on,192,0,1,,,,,,,,0,,,72,0
30336,note_on,96,0,2,,,,,,,,0,,,69,0
30336,note_on,0,0,2,,,,,,,,0,,,65,0
30336,note_on,0,0,4,,,,,,,,0,,,53,0
30336,note_on,50,0,4,,,,,,,,0,,,57,0
30360,note_on,0,0,4,,,,,,,,0,,,45,72
30360,note_on,0,0,2,,,,,,,,0,,,69,72
30360,note_on,24,0,4,,,,,,,,0,,,57,72
30360,note_on,24,0,2,,,,,,,,0,,,66,72
30365,set_tempo,122,1,0,,,,,,780843,,,,,,
30456,note_on,0,0,4,,,,,,,,0,,,57,0
30456,note_on,96,0,4,,,,,,,,0,,,45,0
30456,note_on,0,0,2,,,,,,,,0,,,66,0
30456,note_on,96,0,2,,,,,,,,0,,,69,0
30480,note_on,24,0,2,,,,,,,,0,,,67,72
30480,note_on,24,0,4,,,,,,,,0,,,57,72
30480,note_on,0,0,2,,,,,,,,0,,,64,72
30480,note_on,0,0,4,,,,,,,,0,,,45,72
30480,note_on,0,0,2,,,,,,,,0,,,69,72
30500,set_tempo,135,1,0,,,,,,773395,,,,,,
30576,note_on,0,0,2,,,,,,,,0,,,67,0
30576,note_on,0,0,2,,,,,,,,0,,,69,0
30576,note_on,0,0,4,,,,,,,,0,,,57,0
30576,note_on,96,0,4,,,,,,,,0,,,45,0
30576,note_on,96,0,2,,,,,,,,0,,,64,0
30594,control_change,18,0,4,,,,,,,,0,64,0,,
30600,note_on,0,0,2,,,,,,,,0,,,69,72
30600,note_on,6,0,4,,,,,,,,0,,,57,72
30600,note_on,24,0,2,,,,,,,,0,,,62,72
30600,note_on,0,0,2,,,,,,,,0,,,66,72
30600,note_on,0,0,4,,,,,,,,0,,,45,72
30636,set_tempo,136,1,0,,,,,,766088,,,,,,
30651,control_change,51,0,4,,,,,,,,0,64,127,,
30696,note_on,45,0,4,,,,,,,,0,,,45,0
30696,note_on,0,0,2,,,,,,,,0,,,66,0
30696,note_on,0,0,2,,,,,,,,0,,,62,0
30696,note_on,0,0,4,,,,,,,,0,,,57,0
30696,note_on,96,0,2,,,,,,,,0,,,69,0
30720,note_on,24,0,2,,,,,,,,0,,,64,72
30720,note_on,24,0,4,,,,,,,,0,,,57,72
30720,note_on,0,0,2,,,,,,,,0,,,67,72
30720,note_on,0,0,2,,,,,,,,0,,,69,72
30720,note_on,0,0,4,,,,,,,,0,,,45,72
30771,set_tempo,135,1,0,,,,,,758917,,,,,,
30816,note_on,96,0,2,,,,,,,,0,,,67,0
30816,note_on,0,0,4,,,,,,,,0,,,57,0
30816,note_on,0,0,2,,,,,,,,0,,,64,0
30816,note_on,0,0,2,,,,,,,,0,,,69,0
30816,note_on,96,0,4,,,,,,,,0,,,45,0
30840,note_on,24,0,4,,,,,,,,0,,,45,72
30840,note_on,0,0,4,,,,,,,,0,,,57,72
30840,note_on,24,0,2,,,,,,,,0,,,62,72
30840,note_on,0,0,2,,,,,,,,0,,,69,72
30840,note_on,0,0,2,,,,,,,,0,,,66,72
30906,set_tempo,135,1,0,,,,,,751880,,,,,,
30936,note_on,0,0,4,,,,,,,,0,,,45,0
30936,note_on,0,0,2,,,,,,,,0,,,62,0
30936,note_on,96,0,4,,,,,,,,0,,,57,0
30936,note_on,0,0,2,,,,,,,,0,,,66,0
30936,note_on,96,0,2,,,,,,,,0,,,69,0
30960,note_on,0,0,4,,,,,,,,0,,,57,72
30960,note_on,24,0,2,,,,,,,,0,,,61,72
30960,control_change,24,0,4,,,,,,,,0,64,0,,
30960,note_on,0,0,2,,,,,,,,0,,,64,72
30960,note_on,0,0,4,,,,,,,,0,,,45,72
30960,note_on,0,0,2,,,,,,,,0,,,69,72
30999,control_change,39,0,4,,,,,,,,0,64,127,,
31042,set_tempo,136,1,0,,,,,,744971,,,,,,
31056,note_on,96,0,2,,,,,,,,0,,,69,0
31056,note_on,57,0,4,,,,,,,,0,,,45,0
31056,note_on,0,0,4,,,,,,,,0,,,57,0
31056,note_on,0,0,2,,,,,,,,0,,,61,0
31056,note_on,0,0,2,,,,,,,,0,,,64,0
31080,note_on,0,0,4,,,,,,,,0,,,57,72
31080,note_on,0,0,2,,,,,,,,0,,,67,72
31080,note_on,24,0,4,,,,,,,,0,,,45,72
31080,note_on,24,0,2,,,,,,,,0,,,71,72
31176,note_on,0,0,2,,,,,,,,0,,,71,0
31176,note_on,96,0,2,,,,,,,,0,,,67,0
31176,note_on,0,0,4,,,,,,,,0,,,45,0
31176,note_on,96,0,4,,,,,,,,0,,,57,0
31177,set_tempo,135,1,0,,,,,,738189,,,,,,
31200,note_on,0,0,2,,,,,,,,0,,,69,72
31200,note_on,0,0,4,,,,,,,,0,,,57,72
31200,note_on,24,0,4,,,,,,,,0,,,45,72
31200,note_on,24,0,2,,,,,,,,0,,,66,72
31296,note_on,0,0,2,,,,,,,,0,,,66,0
31296,note_on,0,0,4,,,,,,,,0,,,45,0
31296,note_on,96,0,4,,,,,,,,0,,,57,0
31296,note_on,96,0,2,,,,,,,,0,,,69,0
31308,set_tempo,131,1,0,,,,,,731529,,,,,,
31320,note_on,24,0,2,,,,,,,,0,,,69,72
31320,note_on,0,0,2,,,,,,,,0,,,64,72
31320,note_on,0,0,4,,,,,,,,0,,,57,72
31320,note_on,24,0,4,,,,,,,,0,,,45,72
31320,note_on,0,0,2,,,,,,,,0,,,67,72
31323,control_change,3,0,4,,,,,,,,0,64,0,,
31352,control_change,29,0,4,,,,,,,,0,64,127,,
31416,note_on,0,0,4,,,,,,,,0,,,45,0
31416,note_on,96,0,2,,,,,,,,0,,,67,0
31416,note_on,0,0,2,,,,,,,,0,,,64,0
31416,note_on,64,0,4,,,,,,,,0,,,57,0
31416,note_on,0,0,2,,,,,,,,0,,,69,0
31440,note_on,24,0,2,,,,,,,,0,,,69,72
31440,note_on,24,0,4,,,,,,,,0,,,45,72
31440,note_on,0,0,2,,,,,,,,0,,,66,72
31440,note_on,0,0,4,,,,,,,,0,,,57,72
31443,set_tempo,135,1,0,,,,,,724988,,,,,,
31536,note_on,96,0,2,,,,,,,,0,,,66,0
31536,note_on,0,0,2,,,,,,,,0,,,69,0
31536,note_on,0,0,4,,,,,,,,0,,,45,0
31536,note_on,96,0,4,,,,,,,,0,,,57,0
31560,note_on,24,0,4,,,,,,,,0,,,57,72
31560,note_on,0,0,2,,,,,,,,0,,,69,72
31560,note_on,24,0,2,,,,,,,,0,,,64,72
31560,note_on,0,0,2,,,,,,,,0,,,67,72
31560,note_on,0,0,4,,,,,,,,0,,,45,72
31578,set_tempo,135,1,0,,,,,,718563,,,,,,
31656,note_on,96,0,2,,,,,,,,0,,,69,0
31656,note_on,0,0,4,,,,,,,,0,,,57,0
31656,note_on,0,0,2,,,,,,,,0,,,64,0
31656,note_on,0,0,2,,,,,,,,0,,,67,0
31656,note_on,96,0,4,,,,,,,,0,,,45,0
31680,note_on,0,0,4,,,,,,,,0,,,57,72
31680,control_change,24,0,4,,,,,,,,0,64,0,,
31680,note_on,24,0,2,,,,,,,,0,,,62,72
31680,note_on,0,0,2,,,,,,,,0,,,69,72
31680,note_on,0,0,2,,,,,,,,0,,,66,72
31680,note_on,0,0,4,,,,,,,,0,,,45,72
31714,set_tempo,136,1,0,,,,,,712251,,,,,,
31714,control_change,34,0,4,,,,,,,,0,64,127,,
31776,note_on,0,0,4,,,,,,,,0,,,45,0
31776,note_on,62,0,4,,,,,,,,0,,,57,0
31776,note_on,0,0,2,,,,,,,,0,,,66,0
31776,note_on,96,0,2,,,,,,,,0,,,69,0
31776,note_on,0,0,2,,,,,,,,0,,,62,0
31800,note_on,24,0,4,,,,,,,,0,,,33,72
31800,note_on,0,0,2,,,,,,,,0,,,69,72
31800,note_on,24,0,2,,,,,,,,0,,,57,72
31800,note_on,0,0,4,,,,,,,,0,,,45,72
31800,note_on,0,0,2,,,,,,,,0,,,65,72
31849,set_tempo,135,1,0,,,,,,706048,,,,,,
31896,note_on,0,0,4,,,,,,,,0,,,33,0
31896,note_on,96,0,2,,,,,,,,0,,,69,0
31896,note_on,0,0,2,,,,,,,,0,,,57,0
31896,note_on,0,0,2,,,,,,,,0,,,65,0
31896,note_on,96,0,4,,,,,,,,0,,,45,0
31920,note_on,24,0,2,,,,,,,,0,,,64,72
31920,note_on,0,0,2,,,,,,,,0,,,57,72
31920,note_on,0,0,4,,,,,,,,0,,,45,72
31920,note_on,0,0,2,,,,,,,,0,,,67,72
31920,note_on,0,0,2,,,,,,,,0,,,69,72
31920,note_on,24,0,4,,,,,,,,0,,,33,72
31984,set_tempo,135,1,0,,,,,,699953,,,,,,
32016,note_on,0,0,2,,,,,,,,0,,,64,0
32016,note_on,0,0,2,,,,,,,,0,,,57,0
32016,note_on,96,0,2,,,,,,,,0,,,67,0
32016,note_on,0,0,4,,,,,,,,0,,,33,0
32016,note_on,0,0,2,,,,,,,,0,,,69,0
32016,note_on,96,0,4,,,,,,,,0,,,45,0
32029,control_change,13,0,4,,,,,,,,0,64,0,,
32040,note_on,0,0,2,,,,,,,,0,,,57,72
32040,note_on,0,0,2,,,,,,,,0,,,65,72
32040,note_on,0,0,2,,,,,,,,0,,,69,72
32040,note_on,24,0,2,,,,,,,,0,,,62,72
32040,note_on,0,0,4,,,,,,,,0,,,33,72
32040,note_on,11,0,4,,,,,,,,0,,,45,72
32069,control_change,29,0,4,,,,,,,,0,64,127,,
32119,set_tempo,135,1,0,,,,,,693963,,,,,,
32136,note_on,96,0,2,,,,,,,,0,,,65,0
32136,note_on,0,0,4,,,,,,,,0,,,45,0
32136,note_on,67,0,4,,,,,,,,0,,,33,0
32136,note_on,0,0,2,,,,,,,,0,,,57,0
32136,note_on,0,0,2,,,,,,,,0,,,62,0
32136,note_on,0,0,2,,,,,,,,0,,,69,0
32160,note_on,0,0,2,,,,,,,,0,,,69,72
32160,note_on,0,0,2,,,,,,,,0,,,64,72
32160,note_on,24,0,4,,,,,,,,0,,,33,72
32160,note_on,0,0,4,,,,,,,,0,,,45,72
32160,note_on,24,0,2,,,,,,,,0,,,57,72
32160,note_on,0,0,2,,,,,,,,0,,,67,72
32255,set_tempo,136,1,0,,,,,,688073,,,,,,
32256,note_on,0,0,2,,,,,,,,0,,,67,0
32256,note_on,96,0,2,,,,,,,,0,,,69,0
32256,note_on,96,0,4,,,,,,,,0,,,45,0
32256,note_on,0,0,2,,,,,,,,0,,,64,0
32256,note_on,0,0,4,,,,,,,,0,,,33,0
32256,note_on,0,0,2,,,,,,,,0,,,57,0
32280,note_on,0,0,4,,,,,,,,0,,,45,72
32280,note_on,0,0,2,,,,,,,,0,,,57,72
32280,note_on,24,0,4,,,,,,,,0,,,33,72
32280,note_on,0,0,2,,,,,,,,0,,,62,72
32280,note_on,0,0,2,,,,,,,,0,,,69,72
32280,note_on,24,0,2,,,,,,,,0,,,65,72
32376,note_on,0,0,4,,,,,,,,0,,,33,0
32376,note_on,96,0,4,,,,,,,,0,,,45,0
32376,note_on,96,0,2,,,,,,,,0,,,69,0
32376,note_on,0,0,2,,,,,,,,0,,,57,0
32376,note_on,0,0,2,,,,,,,,0,,,65,0
32376,note_on,0,0,2,,,,,,,,0,,,62,0
32386,set_tempo,131,1,0,,,,,,682283,,,,,,
32400,note_on,0,0,2,,,,,,,,0,,,64,72
32400,control_change,24,0,4,,,,,,,,0,64,0,,
32400,note_on,0,0,4,,,,,,,,0,,,45,72
32400,note_on,0,0,4,,,,,,,,0,,,33,72
32400,note_on,0,0,2,,,,,,,,0,,,57,72
32400,note_on,24,0,2,,,,,,,,0,,,61,72
32400,note_on,0,0,2,,,,,,,,0,,,69,72
32436,control_change,36,0,4,,,,,,,,0,64,127,,
32496,note_on,0,0,2,,,,,,,,0,,,64,0
32496,note_on,0,0,2,,,,,,,,0,,,61,0
32496,note_on,0,0,2,,,,,,,,0,,,69,0
32496,note_on,96,0,2,,,,,,,,0,,,57,0
32496,note_on,60,0,4,,,,,,,,0,,,45,0
32496,note_on,0,0,4,,,,,,,,0,,,33,0
32520,note_on,0,0,2,,,,,,,,0,,,57,72
32520,note_on,24,0,2,,,,,,,,0,,,70,72
32520,note_on,24,0,4,,,,,,,,0,,,33,72
32520,note_on,0,0,4,,,,,,,,0,,,45,72
32520,note_on,0,0,2,,,,,,,,0,,,67,72
32616,note_on,96,0,2,,,,,,,,0,,,67,0
32616,note_on,0,0,2,,,,,,,,0,,,57,0
32616,note_on,0,0,2,,,,,,,,0,,,70,0
32616,note_on,96,0,4,,,,,,,,0,,,45,0
32616,note_on,0,0,4,,,,,,,,0,,,33,0
32640,note_on,0,0,4,,,,,,,,0,,,33,72
32640,note_on,24,0,4,,,,,,,,0,,,46,72
32640,note_on,0,0,2,,,,,,,,0,,,57,72
32640,note_on,24,0,2,,,,,,,,0,,,65,72
32640,note_on,0,0,2,,,,,,,,0,,,69,72
32736,note_on,0,0,4,,,,,,,,0,,,46,0
32736,note_on,96,0,4,,,,,,,,0,,,33,0
32736,note_on,96,0,2,,,,,,,,0,,,69,0
32736,note_on,0,0,2,,,,,,,,0,,,65,0
32736,note_on,0,0,2,,,,,,,,0,,,57,0
32760,note_on,0,0,2,,,,,,,,0,,,67,72
32760,note_on,0,0,2,,,,,,,,0,,,64,72
32760,note_on,0,0,4,,,,,,,,0,,,33,72
32760,note_on,0,0,2,,,,,,,,0,,,69,72
32760,note_on,24,0,2,,,,,,,,0,,,57,72
32760,note_on,24,0,4,,,,,,,,0,,,47,72
32763,control_change,3,0,4,,,,,,,,0,64,0,,
32796,control_change,33,0,4,,,,,,,,0,64,127,,
32856,note_on,0,0,4,,,,,,,,0,,,47,0
32856,note_on,96,0,2,,,,,,,,0,,,64,0
32856,note_on,0,0,2,,,,,,,,0,,,57,0
32856,note_on,0,0,2,,,,,,,,0,,,67,0
32856,note_on,0,0,2,,,,,,,,0,,,69,0
32856,note_on,60,0,4,,,,,,,,0,,,33,0
32880,note_on,24,0,4,,,,,,,,0,,,33,72
32880,note_on,0,0,4,,,,,,,,0,,,48,72
32880,note_on,0,0,2,,,,,,,,0,,,57,72
32880,note_on,0,0,2,,,,,,,,0,,,69,72
32880,note_on,24,0,2,,,,,,,,0,,,65,72
32976,note_on,96,0,2,,,,,,,,0,,,69,0
32976,note_on,96,0,4,,,,,,,,0,,,48,0
32976,note_on,0,0,2,,,,,,,,0,,,57,0
32976,note_on,0,0,4,,,,,,,,0,,,33,0
32976,note_on,0,0,2,,,,,,,,0,,,65,0
33000,note_on,24,0,2,,,,,,,,0,,,64,72
33000,note_on,0,0,2,,,,,,,,0,,,67,72
33000,note_on,24,0,4,,,,,,,,0,,,33,72
33000,note_on,0,0,2,,,,,,,,0,,,69,72
33000,note_on,0,0,2,,,,,,,,0,,,57,72
33000,note_on,0,0,4,,,,,,,,0,,,49,72
33096,note_on,0,0,4,,,,,,,,0,,,33,0
33096,note_on,0,0,2,,,,,,,,0,,,67,0
33096,note_on,0,0,2,,,,,,,,0,,,64,0
33096,note_on,96,0,2,,,,,,,,0,,,57,0
33096,note_on,96,0,4,,,,,,,,0,,,49,0
33096,note_on,0,0,2,,,,,,,,0,,,69,0
33120,control_change,24,0,4,,,,,,,,0,64,0,,
33120,note_on,0,0,2,,,,,,,,0,,,69,72
33120,note_on,2808,0,3,,,,,,,,0,,,50,72
33120,note_on,24,0,2,,,,,,,,0,,,57,72
33120,note_on,2808,0,1,,,,,,,,0,,,65,72
33120,note_on,0,0,4,,,,,,,,0,,,38,72
33120,note_on,0,0,1,,,,,,,,0,,,62,72
33151,control_change,31,0,4,,,,,,,,0,64,127,,
33216,note_on,0,0,1,,,,,,,,0,,,65,0
33216,note_on,65,0,4,,,,,,,,0,,,38,0
33216,note_on,0,0,2,,,,,,,,0,,,57,0
33216,note_on,96,0,2,,,,,,,,0,,,69,0
33216,note_on,96,0,1,,,,,,,,0,,,62,0
33240,note_on,24,0,1,,,,,,,,0,,,63,72
33240,note_on,0,0,1,,,,,,,,0,,,67,72
33336,note_on,96,0,1,,,,,,,,0,,,67,0
33336,note_on,0,0,1,,,,,,,,0,,,63,0
33360,note_on,0,0,1,,,,,,,,0,,,64,72
33360,note_on,24,0,1,,,,,,,,0,,,68,72
33456,note_on,96,0,1,,,,,,,,0,,,64,0
33456,note_on,0,0,1,,,,,,,,0,,,68,0
33480,note_on,24,0,1,,,,,,,,0,,,69,72
33480,note_on,0,0,1,,,,,,,,0,,,65,72
33548,note_on,428,0,3,,,,,,,,0,,,50,0
33552,note_on,4,0,3,,,,,,,,0,,,51,72
33600,note_on,384,0,2,,,,,,,,0,,,61,72
33620,note_on,68,0,3,,,,,,,,0,,,51,0
33624,note_on,4,0,3,,,,,,,,0,,,52,72
33692,note_on,68,0,3,,,,,,,,0,,,52,0
33696,note_on,4,0,3,,,,,,,,0,,,53,72
33696,note_on,96,0,2,,,,,,,,0,,,61,0
33720,note_on,24,0,2,,,,,,,,0,,,60,72
33760,note_on,64,0,3,,,,,,,,0,,,53,0
33776,note_on,16,0,3,,,,,,,,0,,,54,72
33816,note_on,96,0,2,,,,,,,,0,,,60,0
33840,note_on,24,0,2,,,,,,,,0,,,59,72
33840,note_on,64,0,3,,,,,,,,0,,,55,72
33840,control_change,624,0,4,,,,,,,,0,64,0,,
33844,note_on,4,0,3,,,,,,,,0,,,54,0
33869,control_change,29,0,4,,,,,,,,0,64,127,,
33936,note_on,0,0,1,,,,,,,,0,,,69,0
33936,note_on,456,0,1,,,,,,,,0,,,65,0
33960,note_on,0,0,1,,,,,,,,0,,,68,72
33960,note_on,24,0,1,,,,,,,,0,,,65,72
33960,note_on,91,0,4,,,,,,,,0,,,43,72
34032,note_on,192,0,2,,,,,,,,0,,,59,0
34056,note_on,96,0,4,,,,,,,,0,,,43,0
34056,note_on,96,0,1,,,,,,,,0,,,68,0
34056,note_on,0,0,1,,,,,,,,0,,,65,0
34080,note_on,24,0,4,,,,,,,,0,,,44,72
34080,note_on,0,0,1,,,,,,,,0,,,67,72
34080,note_on,24,0,1,,,,,,,,0,,,64,72
34176,note_on,96,0,1,,,,,,,,0,,,67,0
34176,note_on,96,0,4,,,,,,,,0,,,44,0
34176,note_on,0,0,1,,,,,,,,0,,,64,0
34200,note_on,24,0,4,,,,,,,,0,,,45,72
34200,note_on,0,0,1,,,,,,,,0,,,66,72
34200,note_on,24,0,1,,,,,,,,0,,,63,72
34296,note_on,0,0,1,,,,,,,,0,,,63,0
34296,note_on,96,0,1,,,,,,,,0,,,66,0
34296,note_on,96,0,4,,,,,,,,0,,,45,0
34320,note_on,0,0,1,,,,,,,,0,,,64,72
34320,note_on,24,0,4,,,,,,,,0,,,46,72
34320,note_on,24,0,1,,,,,,,,0,,,67,72
34416,note_on,0,0,1,,,,,,,,0,,,67,0
34416,note_on,96,0,4,,,,,,,,0,,,46,0
34416,note_on,96,0,1,,,,,,,,0,,,64,0
34440,note_on,24,0,4,,,,,,,,0,,,47,72
34440,note_on,24,0,1,,,,,,,,0,,,62,72
34440,note_on,0,0,1,,,,,,,,0,,,65,72
34536,note_on,0,0,1,,,,,,,,0,,,62,0
34536,note_on,96,0,4,,,,,,,,0,,,47,0
34536,note_on,96,0,1,,,,,,,,0,,,65,0
34560,note_on,24,0,1,,,,,,,,0,,,64,72
34560,note_on,0,0,1,,,,,,,,0,,,60,72
34560,control_change,24,0,4,,,,,,,,0,64,0,,
34560,note_on,0,0,4,,,,,,,,0,,,48,72
34591,control_change,31,0,4,,,,,,,,0,64,127,,
34656,note_on,65,0,4,,,,,,,,0,,,48,0
34656,note_on,0,0,1,,,,,,,,0,,,64,0
34656,note_on,96,0,1,,,,,,,,0,,,60,0
34680,note_on,0,0,1,,,,,,,,0,,,70,72
34680,note_on,24,0,1,,,,,,,,0,,,67,72
34776,note_on,96,0,1,,,,,,,,0,,,70,0
34776,note_on,0,0,1,,,,,,,,0,,,67,0
34800,note_on,0,0,1,,,,,,,,0,,,69,72
34800,note_on,24,0,1,,,,,,,,0,,,66,72
34848,note_on,1004,0,3,,,,,,,,0,,,55,0
34896,note_on,0,0,1,,,,,,,,0,,,66,0
34896,note_on,96,0,1,,,,,,,,0,,,69,0
34920,note_on,0,0,1,,,,,,,,0,,,74,72
34920,note_on,24,0,1,,,,,,,,0,,,70,72
34920,note_on,72,0,3,,,,,,,,0,,,55,72
34988,note_on,68,0,3,,,,,,,,0,,,55,0
34992,note_on,4,0,3,,,,,,,,0,,,56,72
35040,note_on,1008,0,2,,,,,,,,0,,,67,72
35060,note_on,68,0,3,,,,,,,,0,,,56,0
35064,note_on,4,0,3,,,,,,,,0,,,57,72
35132,note_on,68,0,3,,,,,,,,0,,,57,0
35136,note_on,4,0,3,,,,,,,,0,,,58,72
35136,note_on,96,0,2,,,,,,,,0,,,67,0
35160,note_on,24,0,2,,,,,,,,0,,,65,72
35204,note_on,68,0,3,,,,,,,,0,,,58,0
35208,note_on,4,0,3,,,,,,,,0,,,59,72
35256,note_on,96,0,2,,,,,,,,0,,,65,0
35280,note_on,72,0,3,,,,,,,,0,,,60,72
35280,control_change,624,0,4,,,,,,,,0,64,0,,
35280,note_on,24,0,2,,,,,,,,0,,,64,72
35304,note_on,24,0,3,,,,,,,,0,,,59,0
35360,control_change,80,0,4,,,,,,,,0,64,127,,
35376,note_on,456,0,1,,,,,,,,0,,,74,0
35376,note_on,0,0,1,,,,,,,,0,,,70,0
35400,note_on,24,0,1,,,,,,,,0,,,70,72
35400,note_on,40,0,4,,,,,,,,0,,,43,72
35400,note_on,0,0,1,,,,,,,,0,,,73,72
35472,note_on,192,0,2,,,,,,,,0,,,64,0
35496,note_on,0,0,1,,,,,,,,0,,,70,0
35496,note_on,96,0,4,,,,,,,,0,,,43,0
35496,note_on,96,0,1,,,,,,,,0,,,73,0
35520,note_on,24,0,4,,,,,,,,0,,,44,72
35520,note_on,0,0,1,,,,,,,,0,,,69,72
35520,note_on,24,0,1,,,,,,,,0,,,72,72
35616,note_on,96,0,4,,,,,,,,0,,,44,0
35616,note_on,96,0,1,,,,,,,,0,,,69,0
35616,note_on,0,0,1,,,,,,,,0,,,72,0
35640,note_on,24,0,4,,,,,,,,0,,,45,72
35640,note_on,24,0,1,,,,,,,,0,,,68,72
35640,note_on,0,0,1,,,,,,,,0,,,71,72
35736,note_on,96,0,4,,,,,,,,0,,,45,0
35736,note_on,96,0,1,,,,,,,,0,,,71,0
35736,note_on,0,0,1,,,,,,,,0,,,68,0
35760,note_on,24,0,1,,,,,,,,0,,,72,72
35760,note_on,24,0,4,,,,,,,,0,,,46,72
35760,note_on,0,0,1,,,,,,,,0,,,69,72
35856,note_on,96,0,4,,,,,,,,0,,,46,0
35856,note_on,96,0,1,,,,,,,,0,,,69,0
35856,note_on,0,0,1,,,,,,,,0,,,72,0
35880,note_on,24,0,4,,,,,,,,0,,,47,72
35880,note_on,24,0,1,,,,,,,,0,,,67,72
35880,note_on,0,0,1,,,,,,,,0,,,70,72
35976,note_on,96,0,1,,,,,,,,0,,,70,0
35976,note_on,0,0,1,,,,,,,,0,,,67,0
35976,note_on,96,0,4,,,,,,,,0,,,47,0
36000,note_on,0,0,2,,,,,,,,0,,,65,61
36000,note_on,696,0,3,,,,,,,,0,,,53,61
36000,control_change,24,0,4,,,,,,,,0,64,0,,
36000,note_on,528,0,2,,,,,,,,0,,,69,61
36069,control_change,69,0,4,,,,,,,,0,64,127,,
36096,note_on,0,0,2,,,,,,,,0,,,69,0
36096,note_on,0,0,3,,,,,,,,0,,,60,0
36096,note_on,96,0,2,,,,,,,,0,,,65,0
36096,note_on,96,0,3,,,,,,,,0,,,53,0
36120,note_on,0,0,3,,,,,,,,0,,,60,61
36120,note_on,24,0,2,,,,,,,,0,,,69,61
36120,note_on,24,0,3,,,,,,,,0,,,53,61
36120,note_on,0,0,2,,,,,,,,0,,,65,61
36216,note_on,96,0,3,,,,,,,,0,,,60,0
36216,note_on,96,0,2,,,,,,,,0,,,65,0
36216,note_on,0,0,3,,,,,,,,0,,,53,0
36216,note_on,0,0,2,,,,,,,,0,,,69,0
36240,note_on,0,0,2,,,,,,,,0,,,69,61
36240,note_on,0,0,3,,,,,,,,0,,,65,61
36240,note_on,24,0,2,,,,,,,,0,,,72,61
36240,note_on,0,0,3,,,,,,,,0,,,60,61
36240,note_on,0,0,2,,,,,,,,0,,,81,61
36240,note_on,24,0,3,,,,,,,,0,,,53,61
36336,note_on,0,0,3,,,,,,,,0,,,53,0
36336,note_on,96,0,3,,,,,,,,0,,,60,0
36336,note_on,0,0,3,,,,,,,,0,,,65,0
36336,note_on,0,0,2,,,,,,,,0,,,81,0
36336,note_on,0,0,2,,,,,,,,0,,,72,0
36336,note_on,96,0,2,,,,,,,,0,,,69,0
36360,note_on,0,0,2,,,,,,,,0,,,79,61
36360,note_on,24,0,3,,,,,,,,0,,,64,61
36360,note_on,24,0,2,,,,,,,,0,,,70,61
36360,note_on,0,0,3,,,,,,,,0,,,67,61
36360,note_on,0,0,3,,,,,,,,0,,,53,61
36360,note_on,0,0,2,,,,,,,,0,,,73,61
36456,note_on,0,0,3,,,,,,,,0,,,67,0
36456,note_on,96,0,2,,,,,,,,0,,,73,0
36456,note_on,0,0,3,,,,,,,,0,,,64,0
36456,note_on,0,0,2,,,,,,,,0,,,70,0
36456,note_on,96,0,3,,,,,,,,0,,,53,0
36456,note_on,0,0,2,,,,,,,,0,,,79,0
36474,control_change,405,0,4,,,,,,,,0,64,0,,
36480,note_on,24,0,3,,,,,,,,0,,,53,61
36480,note_on,24,0,2,,,,,,,,0,,,77,61
36480,note_on,0,0,2,,,,,,,,0,,,70,61
36480,note_on,0,0,2,,,,,,,,0,,,74,61
36480,note_on,0,0,3,,,,,,,,0,,,62,61
36480,note_on,0,0,3,,,,,,,,0,,,65,61
36537,control_change,63,0,4,,,,,,,,0,64,127,,
36576,note_on,0,0,3,,,,,,,,0,,,53,0
36576,note_on,96,0,3,,,,,,,,0,,,62,0
36576,note_on,96,0,2,,,,,,,,0,,,74,0
36576,note_on,0,0,2,,,,,,,,0,,,77,0
36576,note_on,0,0,2,,,,,,,,0,,,70,0
36576,note_on,0,0,3,,,,,,,,0,,,65,0
36600,note_on,0,0,3,,,,,,,,0,,,53,61
36600,note_on,24,0,2,,,,,,,,0,,,70,61
36600,note_on,24,0,3,,,,,,,,0,,,62,61
36600,note_on,0,0,2,,,,,,,,0,,,65,61
36696,note_on,0,0,3,,,,,,,,0,,,62,0
36696,note_on,0,0,2,,,,,,,,0,,,70,0
36696,note_on,96,0,3,,,,,,,,0,,,53,0
36696,note_on,96,0,2,,,,,,,,0,,,65,0
36720,note_on,0,0,2,,,,,,,,0,,,71,61
36720,note_on,0,0,2,,,,,,,,0,,,68,61
36720,note_on,0,0,3,,,,,,,,0,,,62,61
36720,note_on,24,0,3,,,,,,,,0,,,53,61
36720,note_on,0,0,3,,,,,,,,0,,,65,61
36720,note_on,24,0,2,,,,,,,,0,,,77,61
36816,note_on,0,0,3,,,,,,,,0,,,53,0
36816,note_on,0,0,2,,,,,,,,0,,,77,0
36816,note_on,96,0,2,,,,,,,,0,,,68,0
36816,note_on,0,0,2,,,,,,,,0,,,71,0
36816,note_on,96,0,3,,,,,,,,0,,,65,0
36816,note_on,0,0,3,,,,,,,,0,,,62,0
36840,note_on,0,0,3,,,,,,,,0,,,53,61
36840,note_on,0,0,3,,,,,,,,0,,,64,61
36840,note_on,24,0,3,,,,,,,,0,,,60,61
36840,note_on,0,0,2,,,,,,,,0,,,69,61
36840,note_on,24,0,2,,,,,,,,0,,,72,61
36840,note_on,0,0,2,,,,,,,,0,,,76,61
36936,note_on,96,0,3,,,,,,,,0,,,53,0
36936,note_on,0,0,2,,,,,,,,0,,,72,0
36936,note_on,96,0,2,,,,,,,,0,,,76,0
36936,note_on,0,0,3,,,,,,,,0,,,60,0
36936,note_on,0,0,3,,,,,,,,0,,,64,0
36936,note_on,0,0,2,,,,,,,,0,,,69,0
36960,note_on,24,0,2,,,,,,,,0,,,65,61
36960,note_on,24,0,3,,,,,,,,0,,,53,61
36960,note_on,0,0,3,,,,,,,,0,,,58,61
36960,note_on,0,0,3,,,,,,,,0,,,62,61
36960,note_on,0,0,2,,,,,,,,0,,,74,61
36960,note_on,0,0,2,,,,,,,,0,,,70,61
36983,control_change,446,0,4,,,,,,,,0,64,0,,
37029,control_change,46,0,4,,,,,,,,0,64,127,,
37056,note_on,0,0,2,,,,,,,,0,,,65,0
37056,note_on,96,0,3,,,,,,,,0,,,58,0
37056,note_on,0,0,2,,,,,,,,0,,,74,0
37056,note_on,96,0,2,,,,,,,,0,,,70,0
37056,note_on,0,0,3,,,,,,,,0,,,53,0
37056,note_on,0,0,3,,,,,,,,0,,,62,0
37080,note_on,0,0,2,,,,,,,,0,,,62,61
37080,note_on,24,0,2,,,,,,,,0,,,65,61
37080,note_on,24,0,3,,,,,,,,0,,,58,61
37080,note_on,0,0,3,,,,,,,,0,,,53,61
37176,note_on,96,0,3,,,,,,,,0,,,53,0
37176,note_on,0,0,3,,,,,,,,0,,,58,0
37176,note_on,0,0,2,,,,,,,,0,,,65,0
37176,note_on,96,0,2,,,,,,,,0,,,62,0
37200,note_on,0,0,2,,,,,,,,0,,,65,61
37200,note_on,24,0,3,,,,,,,,0,,,58,61
37200,note_on,0,0,3,,,,,,,,0,,,53,61
37200,note_on,0,0,3,,,,,,,,0,,,62,61
37200,note_on,24,0,2,,,,,,,,0,,,74,61
37296,note_on,96,0,2,,,,,,,,0,,,65,0
37296,note_on,0,0,2,,,,,,,,0,,,74,0
37296,note_on,0,0,3,,,,,,,,0,,,58,0
37296,note_on,96,0,3,,,,,,,,0,,,62,0
37296,note_on,0,0,3,,,,,,,,0,,,53,0
37320,note_on,0,0,3,,,,,,,,0,,,63,61
37320,note_on,24,0,2,,,,,,,,0,,,66,61
37320,note_on,24,0,3,,,,,,,,0,,,57,61
37320,note_on,0,0,3,,,,,,,,0,,,53,61
37320,note_on,0,0,2,,,,,,,,0,,,72,61
37416,note_on,0,0,2,,,,,,,,0,,,66,0
37416,note_on,0,0,3,,,,,,,,0,,,57,0
37416,note_on,0,0,3,,,,,,,,0,,,63,0
37416,note_on,96,0,2,,,,,,,,0,,,72,0
37416,note_on,96,0,3,,,,,,,,0,,,53,0
37440,note_on,1464,0,1,,,,,,,,0,,,71,86
37440,control_change,411,0,4,,,,,,,,0,64,0,,
37440,note_on,0,0,2,,,,,,,,0,,,68,61
37440,note_on,0,0,3,,,,,,,,0,,,59,86
37440,note_on,24,0,3,,,,,,,,0,,,62,86
37440,note_on,24,0,2,,,,,,,,0,,,65,61
37440,note_on,0,0,4,,,,,,,,0,,,56,72
37442,set_tempo,5056,1,0,,,,,,682283,,,,,,
37480,control_change,40,0,4,,,,,,,,0,64,127,,
37486,set_tempo,44,1,0,,,,,,688073,,,,,,
37529,set_tempo,43,1,0,,,,,,693963,,,,,,
37536,note_on,96,0,2,,,,,,,,0,,,68,0
37536,note_on,56,0,4,,,,,,,,0,,,56,0
37560,note_on,24,0,4,,,,,,,,0,,,55,72
37560,note_on,24,0,2,,,,,,,,0,,,67,61
37569,set_tempo,40,1,0,,,,,,699953,,,,,,
37612,set_tempo,43,1,0,,,,,,706048,,,,,,
37632,note_on,192,0,3,,,,,,,,0,,,59,0
37632,note_on,192,0,1,,,,,,,,0,,,71,0
37632,note_on,0,0,3,,,,,,,,0,,,62,0
37656,note_on,96,0,2,,,,,,,,0,,,67,0
37656,set_tempo,44,1,0,,,,,,712251,,,,,,
37656,note_on,96,0,4,,,,,,,,0,,,55,0
37656,note_on,0,0,2,,,,,,,,0,,,65,0
37680,note_on,48,0,1,,,,,,,,0,,,70,86
37680,note_on,48,0,3,,,,,,,,0,,,55,86
37680,note_on,24,0,2,,,,,,,,0,,,61,61
37680,note_on,0,0,2,,,,,,,,0,,,67,61
37680,note_on,24,0,4,,,,,,,,0,,,53,72
37680,note_on,0,0,3,,,,,,,,0,,,58,86
37695,set_tempo,39,1,0,,,,,,718563,,,,,,
37739,set_tempo,44,1,0,,,,,,724988,,,,,,
37776,note_on,96,0,2,,,,,,,,0,,,67,0
37776,note_on,0,0,2,,,,,,,,0,,,61,0
37776,note_on,96,0,4,,,,,,,,0,,,53,0
37783,set_tempo,44,1,0,,,,,,731529,,,,,,
37794,control_change,18,0,4,,,,,,,,0,64,0,,
37800,note_on,24,0,2,,,,,,,,0,,,60,61
37800,note_on,6,0,4,,,,,,,,0,,,52,72
37822,set_tempo,39,1,0,,,,,,738189,,,,,,
37865,set_tempo,43,1,0,,,,,,744971,,,,,,
37872,note_on,192,0,3,,,,,,,,0,,,58,0
37872,note_on,192,0,1,,,,,,,,0,,,70,0
37872,note_on,0,0,3,,,,,,,,0,,,55,0
37874,control_change,74,0,4,,,,,,,,0,64,127,,
37896,note_on,96,0,2,,,,,,,,0,,,60,0
37896,note_on,22,0,4,,,,,,,,0,,,52,0
37909,set_tempo,44,1,0,,,,,,751880,,,,,,
37920,note_on,48,0,3,,,,,,,,0,,,55,86
37920,note_on,48,0,1,,,,,,,,0,,,73,86
37920,note_on,24,0,4,,,,,,,,0,,,49,72
37920,note_on,0,0,2,,,,,,,,0,,,65,61
37920,note_on,24,0,2,,,,,,,,0,,,61,61
37948,set_tempo,39,1,0,,,,,,758917,,,,,,
37992,set_tempo,44,1,0,,,,,,766088,,,,,,
38016,note_on,0,0,2,,,,,,,,0,,,61,0
38016,note_on,96,0,1,,,,,,,,0,,,73,0
38016,note_on,96,0,3,,,,,,,,0,,,55,0
38016,note_on,96,0,2,,,,,,,,0,,,65,0
38016,note_on,96,0,4,,,,,,,,0,,,49,0
38036,set_tempo,44,1,0,,,,,,773395,,,,,,
38040,note_on,24,0,2,,,,,,,,0,,,60,61
38040,note_on,24,0,3,,,,,,,,0,,,55,86
38040,note_on,0,0,3,,,,,,,,0,,,58,86
38040,note_on,24,0,4,,,,,,,,0,,,48,72
38040,note_on,0,0,2,,,,,,,,0,,,64,61
38040,note_on,24,0,1,,,,,,,,0,,,72,86
38075,set_tempo,39,1,0,,,,,,780843,,,,,,
38119,set_tempo,44,1,0,,,,,,788436,,,,,,
38136,note_on,96,0,3,,,,,,,,0,,,58,0
38136,note_on,96,0,2,,,,,,,,0,,,64,0
38136,note_on,0,0,2,,,,,,,,0,,,60,0
38136,note_on,0,0,3,,,,,,,,0,,,55,0
38136,note_on,96,0,1,,,,,,,,0,,,72,0
38136,note_on,96,0,4,,,,,,,,0,,,48,0
38158,set_tempo,39,1,0,,,,,,688073,,,,,,
38160,note_on,0,0,2,,,,,,,,0,,,65,61
38160,note_on,0,0,2,,,,,,,,0,,,69,61
38160,control_change,24,0,4,,,,,,,,0,64,0,,
38160,note_on,24,0,2,,,,,,,,0,,,60,61
38160,note_on,0,0,4,,,,,,,,0,,,53,72
38160,note_on,0,0,4,,,,,,,,0,,,57,72
38202,control_change,42,0,4,,,,,,,,0,64,127,,
38256,note_on,54,0,4,,,,,,,,0,,,53,0
38256,note_on,0,0,4,,,,,,,,0,,,57,0
38256,note_on,0,0,2,,,,,,,,0,,,60,0
38256,note_on,96,0,2,,,,,,,,0,,,65,0
38256,note_on,0,0,2,,,,,,,,0,,,69,0
38280,note_on,24,0,4,,,,,,,,0,,,53,72
38280,note_on,0,0,2,,,,,,,,0,,,69,61
38280,note_on,0,0,4,,,,,,,,0,,,41,72
38280,note_on,24,0,2,,,,,,,,0,,,57,61
38280,note_on,0,0,4,,,,,,,,0,,,48,72
38280,note_on,0,0,2,,,,,,,,0,,,60,61
38328,set_tempo,170,1,0,,,,,,682283,,,,,,
38376,note_on,0,0,2,,,,,,,,0,,,57,0
38376,note_on,0,0,2,,,,,,,,0,,,69,0
38376,note_on,96,0,4,,,,,,,,0,,,41,0
38376,note_on,0,0,4,,,,,,,,0,,,53,0
38376,note_on,96,0,2,,,,,,,,0,,,60,0
38376,note_on,0,0,4,,,,,,,,0,,,48,0
38400,note_on,24,0,4,,,,,,,,0,,,60,72
38400,note_on,24,0,2,,,,,,,,0,,,81,61
38400,note_on,0,0,2,,,,,,,,0,,,72,61
38400,note_on,0,0,4,,,,,,,,0,,,65,72
38400,note_on,0,0,4,,,,,,,,0,,,53,72
38400,note_on,0,0,2,,,,,,,,0,,,69,61
38494,set_tempo,166,1,0,,,,,,676590,,,,,,
38496,note_on,0,0,2,,,,,,,,0,,,81,0
38496,note_on,96,0,2,,,,,,,,0,,,72,0
38496,note_on,0,0,4,,,,,,,,0,,,60,0
38496,note_on,96,0,4,,,,,,,,0,,,65,0
38496,note_on,0,0,4,,,,,,,,0,,,53,0
38496,note_on,0,0,2,,,,,,,,0,,,69,0
38520,note_on,24,0,2,,,,,,,,0,,,79,61
38520,note_on,24,0,4,,,,,,,,0,,,58,72
38520,note_on,0,0,4,,,,,,,,0,,,64,72
38520,note_on,0,0,2,,,,,,,,0,,,73,61
38520,note_on,0,0,4,,,,,,,,0,,,53,72
38520,note_on,0,0,4,,,,,,,,0,,,61,72
38520,note_on,0,0,2,,,,,,,,0,,,67,61
38520,note_on,0,0,2,,,,,,,,0,,,70,61
38616,note_on,0,0,2,,,,,,,,0,,,73,0
38616,note_on,0,0,2,,,,,,,,0,,,79,0
38616,note_on,0,0,4,,,,,,,,0,,,64,0
38616,note_on,0,0,4,,,,,,,,0,,,61,0
38616,note_on,0,0,4,,,,,,,,0,,,58,0
38616,note_on,96,0,4,,,,,,,,0,,,53,0
38616,note_on,0,0,2,,,,,,,,0,,,67,0
38616,note_on,96,0,2,,,,,,,,0,,,70,0
38640,note_on,24,0,2,,,,,,,,0,,,65,61
38640,note_on,0,0,2,,,,,,,,0,,,70,61
38640,note_on,0,0,2,,,,,,,,0,,,74,61
38640,note_on,0,0,2,,,,,,,,0,,,77,61
38640,note_on,0,0,4,,,,,,,,0,,,62,72
38640,note_on,0,0,4,,,,,,,,0,,,58,72
38640,note_on,0,0,4,,,,,,,,0,,,53,72
38640,control_change,24,0,4,,,,,,,,0,64,0,,
38660,set_tempo,166,1,0,,,,,,670991,,,,,,
38666,control_change,26,0,4,,,,,,,,0,64,127,,
38736,note_on,0,0,2,,,,,,,,0,,,65,0
38736,note_on,70,0,4,,,,,,,,0,,,53,0
38736,note_on,96,0,2,,,,,,,,0,,,70,0
38736,note_on,0,0,2,,,,,,,,0,,,74,0
38736,note_on,0,0,2,,,,,,,,0,,,77,0
38736,note_on,0,0,4,,,,,,,,0,,,62,0
38736,note_on,0,0,4,,,,,,,,0,,,58,0
38760,note_on,24,0,2,,,,,,,,0,,,70,61
38760,note_on,0,0,4,,,,,,,,0,,,53,72
38760,note_on,0,0,4,,,,,,,,0,,,53,72
38760,note_on,24,0,4,,,,,,,,0,,,62,72
38760,note_on,0,0,2,,,,,,,,0,,,65,61
38825,set_tempo,165,1,0,,,,,,665484,,,,,,
38856,note_on,96,0,4,,,,,,,,0,,,53,0
38856,note_on,96,0,2,,,,,,,,0,,,65,0
38856,note_on,0,0,4,,,,,,,,0,,,62,0
38856,note_on,0,0,4,,,,,,,,0,,,53,0
38856,note_on,0,0,2,,,,,,,,0,,,70,0
38880,note_on,24,0,2,,,,,,,,0,,,68,72
38880,note_on,0,0,4,,,,,,,,0,,,53,72
38880,note_on,0,0,2,,,,,,,,0,,,71,72
38880,note_on,24,0,4,,,,,,,,0,,,65,72
38880,note_on,0,0,4,,,,,,,,0,,,62,72
38880,note_on,0,0,2,,,,,,,,0,,,77,72
38976,note_on,0,0,2,,,,,,,,0,,,68,0
38976,note_on,96,0,4,,,,,,,,0,,,53,0
38976,note_on,0,0,4,,,,,,,,0,,,65,0
38976,note_on,0,0,4,,,,,,,,0,,,62,0
38976,note_on,96,0,2,,,,,,,,0,,,77,0
38976,note_on,0,0,2,,,,,,,,0,,,71,0
38991,set_tempo,166,1,0,,,,,,660066,,,,,,
39000,note_on,0,0,2,,,,,,,,0,,,72,72
39000,note_on,0,0,2,,,,,,,,0,,,76,72
39000,note_on,24,0,4,,,,,,,,0,,,53,72
39000,note_on,24,0,2,,,,,,,,0,,,69,72
39000,note_on,0,0,4,,,,,,,,0,,,64,72
39000,note_on,0,0,4,,,,,,,,0,,,60,72
39096,note_on,0,0,2,,,,,,,,0,,,72,0
39096,note_on,96,0,4,,,,,,,,0,,,60,0
39096,note_on,96,0,2,,,,,,,,0,,,76,0
39096,note_on,0,0,4,,,,,,,,0,,,53,0
39096,note_on,0,0,2,,,,,,,,0,,,69,0
39096,note_on,0,0,4,,,,,,,,0,,,64,0
39109,control_change,13,0,4,,,,,,,,0,64,0,,
39120,note_on,0,0,2,,,,,,,,0,,,74,72
39120,note_on,24,0,2,,,,,,,,0,,,65,72
39120,note_on,0,0,4,,,,,,,,0,,,53,72
39120,note_on,11,0,4,,,,,,,,0,,,58,72
39120,note_on,0,0,4,,,,,,,,0,,,62,72
39120,note_on,0,0,2,,,,,,,,0,,,70,72
39157,set_tempo,166,1,0,,,,,,654736,,,,,,
39166,control_change,46,0,4,,,,,,,,0,64,127,,
39216,note_on,0,0,4,,,,,,,,0,,,62,0
39216,note_on,0,0,4,,,,,,,,0,,,58,0
39216,note_on,96,0,2,,,,,,,,0,,,74,0
39216,note_on,0,0,2,,,,,,,,0,,,70,0
39216,note_on,0,0,2,,,,,,,,0,,,65,0
39216,note_on,50,0,4,,,,,,,,0,,,53,0
39240,note_on,24,0,4,,,,,,,,0,,,53,72
39240,note_on,24,0,2,,,,,,,,0,,,65,72
39240,note_on,0,0,4,,,,,,,,0,,,58,72
39240,note_on,0,0,2,,,,,,,,0,,,62,72
39323,set_tempo,166,1,0,,,,,,649491,,,,,,
39336,note_on,0,0,4,,,,,,,,0,,,53,0
39336,note_on,0,0,2,,,,,,,,0,,,65,0
39336,note_on,96,0,4,,,,,,,,0,,,58,0
39336,note_on,96,0,2,,,,,,,,0,,,62,0
39360,note_on,0,0,2,,,,,,,,0,,,65,72
39360,note_on,0,0,4,,,,,,,,0,,,53,72
39360,note_on,24,0,4,,,,,,,,0,,,58,72
39360,note_on,0,0,4,,,,,,,,0,,,62,72
39360,note_on,24,0,2,,,,,,,,0,,,74,72
39456,note_on,0,0,4,,,,,,,,0,,,58,0
39456,note_on,0,0,4,,,,,,,,0,,,53,0
39456,note_on,0,0,2,,,,,,,,0,,,74,0
39456,note_on,96,0,2,,,,,,,,0,,,65,0
39456,note_on,96,0,4,,,,,,,,0,,,62,0
39480,note_on,0,0,4,,,,,,,,0,,,53,72
39480,note_on,0,0,2,,,,,,,,0,,,72,72
39480,note_on,24,0,4,,,,,,,,0,,,57,72
39480,note_on,0,0,4,,,,,,,,0,,,63,72
39480,note_on,24,0,2,,,,,,,,0,,,66,72
39489,set_tempo,166,1,0,,,,,,644330,,,,,,
39576,note_on,96,0,4,,,,,,,,0,,,53,0
39576,note_on,0,0,4,,,,,,,,0,,,57,0
39576,note_on,96,0,2,,,,,,,,0,,,72,0
39576,note_on,0,0,2,,,,,,,,0,,,66,0
39576,note_on,0,0,4,,,,,,,,0,,,63,0
39598,set_tempo,109,1,0,,,,,,645508,,,,,,
39600,note_on,0,0,3,,,,,,,,0,,,62,72
39600,note_on,24,0,2,,,,,,,,0,,,68,72
39600,note_on,0,0,2,,,,,,,,0,,,65,72
39600,note_on,1464,0,1,,,,,,,,0,,,71,79
39600,note_on,0,0,4,,,,,,,,0,,,56,72
39600,note_on,1464,0,3,,,,,,,,0,,,59,72
39600,control_change,24,0,4,,,,,,,,0,64,0,,
39657,control_change,57,0,4,,,,,,,,0,64,127,,
39696,note_on,39,0,4,,,,,,,,0,,,56,0
39696,note_on,96,0,2,,,,,,,,0,,,68,0
39703,set_tempo,105,1,0,,,,,,652458,,,,,,
39720,note_on,24,0,4,,,,,,,,0,,,55,72
39720,note_on,24,0,2,,,,,,,,0,,,67,72
39792,note_on,192,0,1,,,,,,,,0,,,71,0
39792,note_on,0,0,3,,,,,,,,0,,,59,0
39792,note_on,192,0,3,,,,,,,,0,,,62,0
39803,set_tempo,100,1,0,,,,,,659558,,,,,,
39816,note_on,96,0,2,,,,,,,,0,,,67,0
39816,note_on,0,0,2,,,,,,,,0,,,65,0
39816,note_on,96,0,4,,,,,,,,0,,,55,0
39840,note_on,48,0,3,,,,,,,,0,,,58,72
39840,note_on,0,0,2,,,,,,,,0,,,61,72
39840,note_on,48,0,1,,,,,,,,0,,,70,79
39840,note_on,24,0,4,,,,,,,,0,,,53,72
39840,note_on,0,0,3,,,,,,,,0,,,55,72
39840,note_on,24,0,2,,,,,,,,0,,,67,72
39903,set_tempo,100,1,0,,,,,,666815,,,,,,
39936,note_on,96,0,4,,,,,,,,0,,,53,0
39936,note_on,0,0,2,,,,,,,,0,,,67,0
39936,note_on,96,0,2,,,,,,,,0,,,61,0
39943,control_change,7,0,4,,,,,,,,0,64,0,,
39960,note_on,17,0,4,,,,,,,,0,,,52,72
39960,note_on,24,0,2,,,,,,,,0,,,60,72
40004,set_tempo,101,1,0,,,,,,674233,,,,,,
40006,control_change,46,0,4,,,,,,,,0,64,127,,
40032,note_on,192,0,3,,,,,,,,0,,,55,0
40032,note_on,0,0,3,,,,,,,,0,,,58,0
40032,note_on,192,0,1,,,,,,,,0,,,70,0
40056,note_on,96,0,2,,,,,,,,0,,,60,0
40056,note_on,50,0,4,,,,,,,,0,,,52,0
40080,note_on,24,0,4,,,,,,,,0,,,49,72
40080,note_on,48,0,1,,,,,,,,0,,,73,79
40080,note_on,0,0,2,,,,,,,,0,,,65,72
40080,note_on,48,0,3,,,,,,,,0,,,55,72
40080,note_on,24,0,2,,,,,,,,0,,,61,72
40104,set_tempo,100,1,0,,,,,,681818,,,,,,
40176,note_on,96,0,3,,,,,,,,0,,,55,0
40176,note_on,96,0,2,,,,,,,,0,,,65,0
40176,note_on,96,0,4,,,,,,,,0,,,49,0
40176,note_on,96,0,1,,,,,,,,0,,,73,0
40176,note_on,0,0,2,,,,,,,,0,,,61,0
40200,note_on,0,0,2,,,,,,,,0,,,64,72
40200,note_on,0,0,3,,,,,,,,0,,,58,72
40200,note_on,24,0,1,,,,,,,,0,,,72,79
40200,note_on,24,0,4,,,,,,,,0,,,48,72
40200,note_on,24,0,2,,,,,,,,0,,,60,72
40200,note_on,24,0,3,,,,,,,,0,,,55,72
40204,set_tempo,100,1,0,,,,,,689576,,,,,,
40296,note_on,0,0,2,,,,,,,,0,,,60,0
40296,note_on,96,0,4,,,,,,,,0,,,48,0
40296,note_on,0,0,3,,,,,,,,0,,,55,0
40296,note_on,96,0,1,,,,,,,,0,,,72,0
40296,note_on,96,0,2,,,,,,,,0,,,64,0
40296,note_on,96,0,3,,,,,,,,0,,,58,0
40305,set_tempo,101,1,0,,,,,,697512,,,,,,
40318,set_tempo,13,1,0,,,,,,619707,,,,,,
40320,note_on,0,0,2,,,,,,,,0,,,65,64
40320,control_change,24,0,4,,,,,,,,0,64,0,,
40320,note_on,0,0,4,,,,,,,,0,,,57,64
40320,note_on,0,0,4,,,,,,,,0,,,53,64
40320,note_on,0,0,2,,,,,,,,0,,,69,64
40320,note_on,24,0,2,,,,,,,,0,,,60,64
40393,control_change,73,0,4,,,,,,,,0,64,127,,
40416,note_on,0,0,2,,,,,,,,0,,,69,0
40416,note_on,96,0,2,,,,,,,,0,,,65,0
40416,note_on,0,0,2,,,,,,,,0,,,60,0
40416,note_on,0,0,4,,,,,,,,0,,,53,0
40416,note_on,23,0,4,,,,,,,,0,,,57,0
40440,note_on,0,0,4,,,,,,,,0,,,53,64
40440,note_on,0,0,2,,,,,,,,0,,,69,64
40440,note_on,24,0,4,,,,,,,,0,,,41,64
40440,note_on,0,0,2,,,,,,,,0,,,72,64
40440,note_on,24,0,2,,,,,,,,0,,,65,64
40536,note_on,0,0,2,,,,,,,,0,,,72,0
40536,note_on,0,0,4,,,,,,,,0,,,41,0
40536,note_on,96,0,2,,,,,,,,0,,,69,0
40536,note_on,0,0,2,,,,,,,,0,,,65,0
40536,note_on,96,0,4,,,,,,,,0,,,53,0
40560,note_on,24,0,4,,,,,,,,0,,,41,64
40560,note_on,0,0,2,,,,,,,,0,,,64,64
40560,note_on,24,0,2,,,,,,,,0,,,67,64
40560,note_on,0,0,4,,,,,,,,0,,,53,64
40560,note_on,0,0,2,,,,,,,,0,,,72,64
40656,note_on,0,0,2,,,,,,,,0,,,67,0
40656,note_on,0,0,4,,,,,,,,0,,,41,0
40656,note_on,96,0,2,,,,,,,,0,,,64,0
40656,note_on,96,0,4,,,,,,,,0,,,53,0
40656,note_on,0,0,2,,,,,,,,0,,,72,0
40680,note_on,24,0,2,,,,,,,,0,,,72,64
40680,note_on,0,0,2,,,,,,,,0,,,62,64
40680,note_on,24,0,4,,,,,,,,0,,,41,64
40680,note_on,0,0,2,,,,,,,,0,,,65,64
40680,note_on,0,0,4,,,,,,,,0,,,53,64
40687,control_change,7,0,4,,,,,,,,0,64,0,,
40747,control_change,60,0,4,,,,,,,,0,64,127,,
40776,note_on,96,0,2,,,,,,,,0,,,65,0
40776,note_on,0,0,2,,,,,,,,0,,,72,0
40776,note_on,29,0,4,,,,,,,,0,,,53,0
40776,note_on,0,0,4,,,,,,,,0,,,41,0
40776,note_on,0,0,2,,,,,,,,0,,,62,0
40800,note_on,0,0,4,,,,,,,,0,,,53,64
40800,note_on,24,0,2,,,,,,,,0,,,64,64
40800,note_on,24,0,4,,,,,,,,0,,,41,64
40800,note_on,0,0,2,,,,,,,,0,,,67,64
40800,note_on,0,0,2,,,,,,,,0,,,72,64
40896,note_on,96,0,4,,,,,,,,0,,,53,0
40896,note_on,0,0,2,,,,,,,,0,,,64,0
40896,note_on,0,0,4,,,,,,,,0,,,41,0
40896,note_on,96,0,2,,,,,,,,0,,,67,0
40896,note_on,0,0,2,,,,,,,,0,,,72,0
40920,note_on,0,0,2,,,,,,,,0,,,65,64
40920,note_on,24,0,2,,,,,,,,0,,,62,64
40920,note_on,0,0,4,,,,,,,,0,,,53,64
40920,note_on,24,0,4,,,,,,,,0,,,41,64
40920,note_on,0,0,2,,,,,,,,0,,,72,64
41016,note_on,0,0,4,,,,,,,,0,,,41,0
41016,note_on,0,0,2,,,,,,,,0,,,62,0
41016,note_on,96,0,4,,,,,,,,0,,,53,0
41016,note_on,96,0,2,,,,,,,,0,,,72,0
41016,note_on,0,0,2,,,,,,,,0,,,65,0
41040,note_on,0,0,4,,,,,,,,0,,,53,64
41040,note_on,0,0,4,,,,,,,,0,,,41,64
41040,note_on,24,0,2,,,,,,,,0,,,60,64
41040,control_change,24,0,4,,,,,,,,0,64,0,,
41040,note_on,0,0,2,,,,,,,,0,,,64,64
41040,note_on,0,0,2,,,,,,,,0,,,72,64
41114,control_change,74,0,4,,,,,,,,0,64,127,,
41136,note_on,0,0,2,,,,,,,,0,,,60,0
41136,note_on,22,0,4,,,,,,,,0,,,53,0
41136,note_on,96,0,2,,,,,,,,0,,,72,0
41136,note_on,0,0,2,,,,,,,,0,,,64,0
41136,note_on,0,0,4,,,,,,,,0,,,41,0
41160,note_on,24,0,4,,,,,,,,0,,,53,64
41160,note_on,0,0,2,,,,,,,,0,,,74,64
41160,note_on,24,0,2,,,,,,,,0,,,67,64
41160,note_on,0,0,2,,,,,,,,0,,,70,64
41160,note_on,0,0,4,,,,,,,,0,,,41,64
41256,note_on,0,0,4,,,,,,,,0,,,53,0
41256,note_on,96,0,4,,,,,,,,0,,,41,0
41256,note_on,96,0,2,,,,,,,,0,,,70,0
41256,note_on,0,0,2,,,,,,,,0,,,74,0
41256,note_on,0,0,2,,,,,,,,0,,,67,0
41280,note_on,24,0,4,,,,,,,,0,,,41,64
41280,note_on,24,0,2,,,,,,,,0,,,69,64
41280,note_on,0,0,4,,,,,,,,0,,,53,64
41280,note_on,0,0,2,,,,,,,,0,,,74,64
41280,note_on,0,0,2,,,,,,,,0,,,65,64
41376,note_on,0,0,2,,,,,,,,0,,,74,0
41376,note_on,0,0,2,,,,,,,,0,,,69,0
41376,note_on,96,0,4,,,,,,,,0,,,53,0
41376,note_on,0,0,4,,,,,,,,0,,,41,0
41376,note_on,96,0,2,,,,,,,,0,,,65,0
41394,control_change,18,0,4,,,,,,,,0,64,0,,
41400,note_on,24,0,2,,,,,,,,0,,,74,64
41400,note_on,6,0,4,,,,,,,,0,,,41,64
41400,note_on,0,0,2,,,,,,,,0,,,64,64
41400,note_on,0,0,2,,,,,,,,0,,,67,64
41400,note_on,0,0,4,,,,,,,,0,,,53,64
41463,control_change,63,0,4,,,,,,,,0,64,127,,
41496,note_on,96,0,2,,,,,,,,0,,,67,0
41496,note_on,0,0,2,,,,,,,,0,,,64,0
41496,note_on,0,0,2,,,,,,,,0,,,74,0
41496,note_on,0,0,4,,,,,,,,0,,,41,0
41496,note_on,33,0,4,,,,,,,,0,,,53,0
41520,note_on,0,0,4,,,,,,,,0,,,41,64
41520,note_on,24,0,2,,,,,,,,0,,,69,64
41520,note_on,24,0,4,,,,,,,,0,,,53,64
41520,note_on,0,0,2,,,,,,,,0,,,74,64
41520,note_on,0,0,2,,,,,,,,0,,,65,64
41616,note_on,0,0,2,,,,,,,,0,,,69,0
41616,note_on,0,0,4,,,,,,,,0,,,53,0
41616,note_on,0,0,2,,,,,,,,0,,,74,0
41616,note_on,96,0,4,,,,,,,,0,,,41,0
41616,note_on,96,0,2,,,,,,,,0,,,65,0
41640,note_on,0,0,2,,,,,,,,0,,,67,64
41640,note_on,0,0,2,,,,,,,,0,,,64,64
41640,note_on,0,0,4,,,,,,,,0,,,53,64
41640,note_on,24,0,4,,,,,,,,0,,,41,64
41640,note_on,24,0,2,,,,,,,,0,,,74,64
41736,note_on,0,0,2,,,,,,,,0,,,74,0
41736,note_on,96,0,4,,,,,,,,0,,,53,0
41736,note_on,0,0,4,,,,,,,,0,,,41,0
41736,note_on,96,0,2,,,,,,,,0,,,64,0
41736,note_on,0,0,2,,,,,,,,0,,,67,0
41756,set_tempo,1438,1,0,,,,,,619707,,,,,,
41760,note_on,0,0,4,,,,,,,,0,,,53,64
41760,note_on,0,0,2,,,,,,,,0,,,74,64
41760,note_on,0,0,4,,,,,,,,0,,,41,64
41760,control_change,24,0,4,,,,,,,,0,64,0,,
41760,note_on,24,0,2,,,,,,,,0,,,62,64
41760,note_on,0,0,2,,,,,,,,0,,,65,64
41817,control_change,57,0,4,,,,,,,,0,64,127,,
41856,note_on,0,0,2,,,,,,,,0,,,62,0
41856,note_on,39,0,4,,,,,,,,0,,,41,0
41856,note_on,0,0,2,,,,,,,,0,,,74,0
41856,note_on,96,0,2,,,,,,,,0,,,65,0
41856,note_on,0,0,4,,,,,,,,0,,,53,0
41880,note_on,24,0,4,,,,,,,,0,,,41,64
41880,note_on,24,0,2,,,,,,,,0,,,74,64
41880,note_on,0,0,2,,,,,,,,0,,,70,64
41880,note_on,0,0,2,,,,,,,,0,,,65,64
41880,note_on,0,0,4,,,,,,,,0,,,53,64
41880,note_on,0,0,2,,,,,,,,0,,,77,64
41930,set_tempo,174,1,0,,,,,,615006,,,,,,
41976,note_on,96,0,2,,,,,,,,0,,,77,0
41976,note_on,0,0,4,,,,,,,,0,,,41,0
41976,note_on,0,0,2,,,,,,,,0,,,65,0
41976,note_on,0,0,2,,,,,,,,0,,,74,0
41976,note_on,0,0,2,,,,,,,,0,,,70,0
41976,note_on,96,0,4,,,,,,,,0,,,53,0
42000,note_on,0,0,2,,,,,,,,0,,,77,64
42000,note_on,0,0,2,,,,,,,,0,,,69,64
42000,note_on,0,0,4,,,,,,,,0,,,41,64
42000,note_on,0,0,2,,,,,,,,0,,,65,64
42000,note_on,24,0,2,,,,,,,,0,,,72,64
42000,note_on,24,0,4,,,,,,,,0,,,53,64
42096,note_on,96,0,2,,,,,,,,0,,,77,0
42096,note_on,0,0,2,,,,,,,,0,,,69,0
42096,note_on,0,0,2,,,,,,,,0,,,65,0
42096,note_on,0,0,4,,,,,,,,0,,,53,0
42096,note_on,96,0,4,,,,,,,,0,,,41,0
42096,note_on,0,0,2,,,,,,,,0,,,72,0
42100,set_tempo,170,1,0,,,,,,610376,,,,,,
42114,control_change,18,0,4,,,,,,,,0,64,0,,
42120,note_on,0,0,4,,,,,,,,0,,,41,64
42120,note_on,0,0,2,,,,,,,,0,,,77,64
42120,note_on,6,0,4,,,,,,,,0,,,53,64
42120,note_on,0,0,2,,,,,,,,0,,,67,64
42120,note_on,0,0,2,,,,,,,,0,,,70,64
42120,note_on,24,0,2,,,,,,,,0,,,65,64
42183,control_change,63,0,4,,,,,,,,0,64,127,,
42216,note_on,0,0,4,,,,,,,,0,,,53,0
42216,note_on,0,0,2,,,,,,,,0,,,65,0
42216,note_on,0,0,2,,,,,,,,0,,,70,0
42216,note_on,0,0,2,,,,,,,,0,,,77,0
42216,note_on,96,0,2,,,,,,,,0,,,67,0
42216,note_on,33,0,4,,,,,,,,0,,,41,0
42240,note_on,0,0,2,,,,,,,,0,,,65,64
42240,note_on,24,0,2,,,,,,,,0,,,77,64
42240,note_on,0,0,2,,,,,,,,0,,,70,64
42240,note_on,0,0,2,,,,,,,,0,,,74,64
42240,note_on,0,0,4,,,,,,,,0,,,41,64
42240,note_on,24,0,4,,,,,,,,0,,,53,64
42271,set_tempo,171,1,0,,,,,,605816,,,,,,
42336,note_on,0,0,2,,,,,,,,0,,,70,0
42336,note_on,0,0,4,,,,,,,,0,,,53,0
42336,note_on,96,0,4,,,,,,,,0,,,41,0
42336,note_on,96,0,2,,,,,,,,0,,,74,0
42336,note_on,0,0,2,,,,,,,,0,,,77,0
42336,note_on,0,0,2,,,,,,,,0,,,65,0
42360,note_on,0,0,2,,,,,,,,0,,,65,64
42360,note_on,0,0,4,,,,,,,,0,,,41,64
42360,note_on,0,0,2,,,,,,,,0,,,69,64
42360,note_on,24,0,4,,,,,,,,0,,,53,64
42360,note_on,0,0,2,,,,,,,,0,,,77,64
42360,note_on,24,0,2,,,,,,,,0,,,72,64
42441,set_tempo,170,1,0,,,,,,601323,,,,,,
42456,note_on,96,0,2,,,,,,,,0,,,77,0
42456,note_on,96,0,4,,,,,,,,0,,,41,0
42456,note_on,0,0,2,,,,,,,,0,,,65,0
42456,note_on,0,0,2,,,,,,,,0,,,69,0
42456,note_on,0,0,4,,,,,,,,0,,,53,0
42456,note_on,0,0,2,,,,,,,,0,,,72,0
42480,control_change,24,0,4,,,,,,,,0,64,0,,
42480,note_on,24,0,2,,,,,,,,0,,,77,64
42480,note_on,0,0,4,,,,,,,,0,,,41,64
42480,note_on,0,0,4,,,,,,,,0,,,53,64
42480,note_on,0,0,2,,,,,,,,0,,,69,64
42480,note_on,0,0,2,,,,,,,,0,,,65,64
42543,control_change,63,0,4,,,,,,,,0,64,127,,
42576,note_on,0,0,2,,,,,,,,0,,,69,0
42576,note_on,0,0,4,,,,,,,,0,,,53,0
42576,note_on,0,0,2,,,,,,,,0,,,77,0
42576,note_on,33,0,4,,,,,,,,0,,,41,0
42576,note_on,96,0,2,,,,,,,,0,,,65,0
42600,note_on,0,0,2,,,,,,,,0,,,69,64
42600,note_on,0,0,2,,,,,,,,0,,,72,64
42600,note_on,24,0,2,,,,,,,,0,,,81,64
42600,note_on,24,0,4,,,,,,,,0,,,65,64
42600,note_on,0,0,4,,,,,,,,0,,,53,64
42600,note_on,0,0,4,,,,,,,,0,,,60,64
42615,set_tempo,174,1,0,,,,,,596896,,,,,,
42696,note_on,0,0,2,,,,,,,,0,,,81,0
42696,note_on,96,0,2,,,,,,,,0,,,69,0
42696,note_on,0,0,2,,,,,,,,0,,,72,0
42696,note_on,0,0,4,,,,,,,,0,,,65,0
42696,note_on,0,0,4,,,,,,,,0,,,53,0
42696,note_on,96,0,4,,,,,,,,0,,,60,0
42720,note_on,0,0,4,,,,,,,,0,,,60,64
42720,note_on,0,0,4,,,,,,,,0,,,53,64
42720,note_on,0,0,2,,,,,,,,0,,,72,64
42720,note_on,0,0,2,,,,,,,,0,,,79,64
42720,note_on,24,0,4,,,,,,,,0,,,64,64
42720,note_on,24,0,2,,,,,,,,0,,,67,64
42786,set_tempo,171,1,0,,,,,,592534,,,,,,
42816,note_on,0,0,2,,,,,,,,0,,,79,0
42816,note_on,96,0,2,,,,,,,,0,,,72,0
42816,note_on,0,0,4,,,,,,,,0,,,64,0
42816,note_on,0,0,4,,,,,,,,0,,,53,0
42816,note_on,96,0,4,,,,,,,,0,,,60,0
42816,note_on,0,0,2,,,,,,,,0,,,67,0
42827,control_change,11,0,4,,,,,,,,0,64,0,,
42840,note_on,0,0,2,,,,,,,,0,,,72,64
42840,note_on,0,0,2,,,,,,,,0,,,77,64
42840,note_on,24,0,2,,,,,,,,0,,,65,64
42840,note_on,13,0,4,,,,,,,,0,,,62,64
42840,note_on,0,0,4,,,,,,,,0,,,60,64
42840,note_on,0,0,4,,,,,,,,0,,,53,64
42903,control_change,63,0,4,,,,,,,,0,64,127,,
42936,note_on,0,0,4,,,,,,,,0,,,62,0
42936,note_on,0,0,4,,,,,,,,0,,,60,0
42936,note_on,0,0,2,,,,,,,,0,,,65,0
42936,note_on,0,0,2,,,,,,,,0,,,72,0
42936,note_on,96,0,2,,,,,,,,0,,,77,0
42936,note_on,33,0,4,,,,,,,,0,,,53,0
42956,set_tempo,170,1,0,,,,,,588235,,,,,,
42960,note_on,0,0,2,,,,,,,,0,,,67,64
42960,note_on,0,0,2,,,,,,,,0,,,72,64
42960,note_on,24,0,2,,,,,,,,0,,,79,64
42960,note_on,24,0,4,,,,,,,,0,,,64,64
42960,note_on,0,0,4,,,,,,,,0,,,53,64
42960,note_on,0,0,4,,,,,,,,0,,,60,64
43056,note_on,96,0,2,,,,,,,,0,,,72,0
43056,note_on,0,0,2,,,,,,,,0,,,79,0
43056,note_on,0,0,2,,,,,,,,0,,,67,0
43056,note_on,96,0,4,,,,,,,,0,,,60,0
43056,note_on,0,0,4,,,,,,,,0,,,64,0
43056,note_on,0,0,4,,,,,,,,0,,,53,0
43080,note_on,0,0,2,,,,,,,,0,,,72,64
43080,note_on,24,0,4,,,,,,,,0,,,62,64
43080,note_on,0,0,2,,,,,,,,0,,,77,64
43080,note_on,0,0,4,,,,,,,,0,,,53,64
43080,note_on,0,0,4,,,,,,,,0,,,60,64
43080,note_on,24,0,2,,,,,,,,0,,,65,64
43126,set_tempo,170,1,0,,,,,,583998,,,,,,
43176,note_on,0,0,2,,,,,,,,0,,,65,0
43176,note_on,96,0,4,,,,,,,,0,,,53,0
43176,note_on,0,0,4,,,,,,,,0,,,60,0
43176,note_on,0,0,4,,,,,,,,0,,,62,0
43176,note_on,96,0,2,,,,,,,,0,,,72,0
43176,note_on,0,0,2,,,,,,,,0,,,77,0
43200,note_on,0,0,4,,,,,,,,0,,,53,64
43200,note_on,0,0,4,,,,,,,,0,,,60,64
43200,control_change,24,0,4,,,,,,,,0,64,0,,
43200,note_on,24,0,2,,,,,,,,0,,,76,64
43200,note_on,0,0,2,,,,,,,,0,,,72,64
43200,note_on,0,0,2,,,,,,,,0,,,64,64
43263,control_change,63,0,4,,,,,,,,0,64,127,,
43296,note_on,0,0,4,,,,,,,,0,,,53,0
43296,note_on,96,0,2,,,,,,,,0,,,64,0
43296,note_on,0,0,2,,,,,,,,0,,,72,0
43296,note_on,33,0,4,,,,,,,,0,,,60,0
43296,note_on,0,0,2,,,,,,,,0,,,76,0
43320,note_on,24,0,2,,,,,,,,0,,,74,64
43320,note_on,0,0,2,,,,,,,,0,,,82,64
43320,note_on,0,0,2,,,,,,,,0,,,70,64
43320,note_on,0,0,4,,,,,,,,0,,,67,64
43320,note_on,0,0,4,,,,,,,,0,,,53,64
43320,note_on,24,0,4,,,,,,,,0,,,62,64
43416,note_on,0,0,2,,,,,,,,0,,,74,0
43416,note_on,0,0,4,,,,,,,,0,,,67,0
43416,note_on,0,0,4,,,,,,,,0,,,62,0
43416,note_on,96,0,4,,,,,,,,0,,,53,0
43416,note_on,96,0,2,,,,,,,,0,,,70,0
43416,note_on,0,0,2,,,,,,,,0,,,82,0
43440,note_on,0,0,2,,,,,,,,0,,,81,64
43440,note_on,24,0,2,,,,,,,,0,,,74,64
43440,note_on,0,0,2,,,,,,,,0,,,69,64
43440,note_on,0,0,4,,,,,,,,0,,,65,64
43440,note_on,24,0,4,,,,,,,,0,,,53,64
43440,note_on,0,0,4,,,,,,,,0,,,62,64
43536,note_on,0,0,4,,,,,,,,0,,,53,0
43536,note_on,96,0,4,,,,,,,,0,,,62,0
43536,note_on,0,0,4,,,,,,,,0,,,65,0
43536,note_on,0,0,2,,,,,,,,0,,,69,0
43536,note_on,96,0,2,,,,,,,,0,,,81,0
43536,note_on,0,0,2,,,,,,,,0,,,74,0
43560,note_on,0,0,2,,,,,,,,0,,,74,64
43560,note_on,24,0,2,,,,,,,,0,,,79,64
43560,note_on,0,0,2,,,,,,,,0,,,67,64
43560,note_on,0,0,4,,,,,,,,0,,,53,64
43560,note_on,0,0,4,,,,,,,,0,,,62,64
43560,note_on,24,0,4,,,,,,,,0,,,64,64
43566,control_change,6,0,4,,,,,,,,0,64,0,,
43629,control_change,63,0,4,,,,,,,,0,64,127,,
43656,note_on,96,0,2,,,,,,,,0,,,67,0
43656,note_on,0,0,2,,,,,,,,0,,,74,0
43656,note_on,0,0,2,,,,,,,,0,,,79,0
43656,note_on,27,0,4,,,,,,,,0,,,62,0
43656,note_on,0,0,4,,,,,,,,0,,,53,0
43656,note_on,0,0,4,,,,,,,,0,,,64,0
43680,note_on,0,0,4,,,,,,,,0,,,53,64
43680,note_on,24,0,4,,,,,,,,0,,,65,64
43680,note_on,0,0,4,,,,,,,,0,,,62,64
43680,note_on,24,0,2,,,,,,,,0,,,74,64
43680,note_on,0,0,2,,,,,,,,0,,,69,64
43680,note_on,0,0,2,,,,,,,,0,,,81,64
43776,note_on,0,0,2,,,,,,,,0,,,69,0
43776,note_on,96,0,4,,,,,,,,0,,,62,0
43776,note_on,96,0,2,,,,,,,,0,,,81,0
43776,note_on,0,0,4,,,,,,,,0,,,65,0
43776,note_on,0,0,2,,,,,,,,0,,,74,0
43776,note_on,0,0,4,,,,,,,,0,,,53,0
43800,note_on,24,0,4,,,,,,,,0,,,62,64
43800,note_on,0,0,4,,,,,,,,0,,,53,64
43800,note_on,0,0,4,,,,,,,,0,,,64,64
43800,note_on,24,0,2,,,,,,,,0,,,79,64
43800,note_on,0,0,2,,,,,,,,0,,,67,64
43800,note_on,0,0,2,,,,,,,,0,,,74,64
43896,note_on,0,0,2,,,,,,,,0,,,74,0
43896,note_on,96,0,2,,,,,,,,0,,,67,0
43896,note_on,0,0,2,,,,,,,,0,,,79,0
43896,note_on,96,0,4,,,,,,,,0,,,53,0
43896,note_on,0,0,4,,,,,,,,0,,,62,0
43896,note_on,0,0,4,,,,,,,,0,,,64,0
43920,note_on,24,0,2,,,,,,,,0,,,77,64
43920,note_on,0,0,4,,,,,,,,0,,,53,64
43920,note_on,0,0,4,,,,,,,,0,,,62,64
43920,note_on,0,0,2,,,,,,,,0,,,74,64
43920,note_on,0,0,2,,,,,,,,0,,,65,64
43920,control_change,24,0,4,,,,,,,,0,64,0,,
43921,set_tempo,795,1,0,,,,,,575705,,,,,,
43983,control_change,63,0,4,,,,,,,,0,64,127,,
44016,note_on,0,0,4,,,,,,,,0,,,53,0
44016,note_on,33,0,4,,,,,,,,0,,,62,0
44016,note_on,0,0,2,,,,,,,,0,,,77,0
44016,note_on,0,0,2,,,,,,,,0,,,74,0
44016,note_on,96,0,2,,,,,,,,0,,,65,0
44040,note_on,24,0,4,,,,,,,,0,,,53,64
44040,note_on,24,0,2,,,,,,,,0,,,74,64
44040,note_on,0,0,2,,,,,,,,0,,,77,64
44040,note_on,0,0,4,,,,,,,,0,,,62,64
44040,note_on,0,0,4,,,,,,,,0,,,70,64
44040,note_on,0,0,2,,,,,,,,0,,,86,64
44100,set_tempo,179,1,0,,,,,,571646,,,,,,
44136,note_on,0,0,4,,,,,,,,0,,,62,0
44136,note_on,0,0,4,,,,,,,,0,,,53,0
44136,note_on,0,0,2,,,,,,,,0,,,74,0
44136,note_on,96,0,2,,,,,,,,0,,,86,0
44136,note_on,0,0,2,,,,,,,,0,,,77,0
44136,note_on,96,0,4,,,,,,,,0,,,70,0
44160,note_on,24,0,4,,,,,,,,0,,,53,64
44160,note_on,0,0,4,,,,,,,,0,,,69,64
44160,note_on,0,0,4,,,,,,,,0,,,60,64
44160,note_on,24,0,2,,,,,,,,0,,,77,64
44160,note_on,0,0,2,,,,,,,,0,,,84,64
44160,note_on,0,0,2,,,,,,,,0,,,72,64
44256,note_on,0,0,2,,,,,,,,0,,,77,0
44256,note_on,0,0,2,,,,,,,,0,,,84,0
44256,note_on,96,0,2,,,,,,,,0,,,72,0
44256,note_on,0,0,4,,,,,,,,0,,,53,0
44256,note_on,0,0,4,,,,,,,,0,,,69,0
44256,note_on,96,0,4,,,,,,,,0,,,60,0
44257,control_change,1,0,4,,,,,,,,0,64,0,,
44279,set_tempo,179,1,0,,,,,,567644,,,,,,
44280,note_on,0,0,4,,,,,,,,0,,,67,64
44280,note_on,0,0,4,,,,,,,,0,,,58,64
44280,note_on,0,0,2,,,,,,,,0,,,70,64
44280,note_on,24,0,2,,,,,,,,0,,,77,64
44280,note_on,23,0,4,,,,,,,,0,,,53,64
44280,note_on,0,0,2,,,,,,,,0,,,82,64
44314,control_change,34,0,4,,,,,,,,0,64,127,,
44376,note_on,96,0,2,,,,,,,,0,,,70,0
44376,note_on,0,0,2,,,,,,,,0,,,77,0
44376,note_on,62,0,4,,,,,,,,0,,,67,0
44376,note_on,0,0,2,,,,,,,,0,,,82,0
44376,note_on,0,0,4,,,,,,,,0,,,53,0
44376,note_on,0,0,4,,,,,,,,0,,,58,0
44400,note_on,0,0,2,,,,,,,,0,,,77,64
44400,note_on,0,0,2,,,,,,,,0,,,86,64
44400,note_on,24,0,2,,,,,,,,0,,,74,64
44400,note_on,0,0,4,,,,,,,,0,,,53,64
44400,note_on,24,0,4,,,,,,,,0,,,70,64
44400,note_on,0,0,4,,,,,,,,0,,,62,64
44458,set_tempo,179,1,0,,,,,,563698,,,,,,
44496,note_on,0,0,2,,,,,,,,0,,,74,0
44496,note_on,0,0,4,,,,,,,,0,,,62,0
44496,note_on,0,0,4,,,,,,,,0,,,70,0
44496,note_on,96,0,4,,,,,,,,0,,,53,0
44496,note_on,96,0,2,,,,,,,,0,,,86,0
44496,note_on,0,0,2,,,,,,,,0,,,77,0
44520,note_on,0,0,4,,,,,,,,0,,,53,64
44520,note_on,0,0,4,,,,,,,,0,,,69,64
44520,note_on,0,0,2,,,,,,,,0,,,77,64
44520,note_on,24,0,2,,,,,,,,0,,,72,64
44520,note_on,24,0,4,,,,,,,,0,,,60,64
44520,note_on,0,0,2,,,,,,,,0,,,84,64
44616,note_on,0,0,2,,,,,,,,0,,,72,0
44616,note_on,0,0,4,,,,,,,,0,,,60,0
44616,note_on,96,0,4,,,,,,,,0,,,53,0
44616,note_on,0,0,4,,,,,,,,0,,,69,0
44616,note_on,96,0,2,,,,,,,,0,,,84,0
44616,note_on,0,0,2,,,,,,,,0,,,77,0
44637,set_tempo,179,1,0,,,,,,559806,,,,,,
44640,note_on,0,0,2,,,,,,,,0,,,81,64
44640,note_on,0,0,4,,,,,,,,0,,,65,64
44640,note_on,0,0,4,,,,,,,,0,,,57,64
44640,note_on,0,0,4,,,,,,,,0,,,53,64
44640,note_on,24,0,2,,,,,,,,0,,,69,64
44640,control_change,24,0,4,,,,,,,,0,64,0,,
44640,note_on,0,0,2,,,,,,,,0,,,77,64
44736,note_on,96,0,2,,,,,,,,0,,,81,0
44736,note_on,0,0,2,,,,,,,,0,,,77,0
44736,note_on,0,0,2,,,,,,,,0,,,69,0
44736,note_on,96,0,4,,,,,,,,0,,,57,0
44736,note_on,0,0,4,,,,,,,,0,,,53,0
44736,note_on,0,0,4,,,,,,,,0,,,65,0
44743,control_change,7,0,4,,,,,,,,0,64,127,,
44760,note_on,17,0,4,,,,,,,,0,,,62,64
44760,note_on,24,0,2,,,,,,,,0,,,82,64
44760,note_on,0,0,2,,,,,,,,0,,,89,64
44760,note_on,0,0,2,,,,,,,,0,,,86,64
44760,note_on,0,0,2,,,,,,,,0,,,77,64
44760,note_on,0,0,4,,,,,,,,0,,,53,64
44760,note_on,0,0,4,,,,,,,,0,,,58,64
44760,note_on,0,0,4,,,,,,,,0,,,65,64
44816,set_tempo,179,1,0,,,,,,555967,,,,,,
44856,note_on,0,0,4,,,,,,,,0,,,62,0
44856,note_on,0,0,4,,,,,,,,0,,,58,0
44856,note_on,0,0,4,,,,,,,,0,,,53,0
44856,note_on,0,0,2,,,,,,,,0,,,89,0
44856,note_on,0,0,2,,,,,,,,0,,,77,0
44856,note_on,0,0,2,,,,,,,,0,,,82,0
44856,note_on,96,0,2,,,,,,,,0,,,86,0
44856,note_on,96,0,4,,,,,,,,0,,,65,0
44880,note_on,0,0,2,,,,,,,,0,,,77,64
44880,note_on,0,0,2,,,,,,,,0,,,81,64
44880,note_on,0,0,4,,,,,,,,0,,,65,64
44880,note_on,0,0,4,,,,,,,,0,,,60,64
44880,note_on,0,0,4,,,,,,,,0,,,53,64
44880,note_on,0,0,2,,,,,,,,0,,,89,64
44880,note_on,24,0,2,,,,,,,,0,,,84,64
44880,note_on,24,0,4,,,,,,,,0,,,57,64
44976,note_on,0,0,2,,,,,,,,0,,,89,0
44976,note_on,96,0,4,,,,,,,,0,,,65,0
44976,note_on,0,0,4,,,,,,,,0,,,60,0
44976,note_on,0,0,2,,,,,,,,0,,,77,0
44976,note_on,0,0,4,,,,,,,,0,,,57,0
44976,note_on,96,0,2,,,,,,,,0,,,81,0
44976,note_on,0,0,2,,,,,,,,0,,,84,0
44976,note_on,0,0,4,,,,,,,,0,,,53,0
44983,control_change,7,0,4,,,,,,,,0,64,0,,
44995,set_tempo,179,1,0,,,,,,552181,,,,,,
45000,note_on,0,0,4,,,,,,,,0,,,65,64
45000,note_on,0,0,4,,,,,,,,0,,,58,64
45000,note_on,0,0,4,,,,,,,,0,,,53,64
45000,note_on,0,0,2,,,,,,,,0,,,77,64
45000,note_on,0,0,2,,,,,,,,0,,,79,64
45000,note_on,0,0,2,,,,,,,,0,,,89,64
45000,note_on,24,0,2,,,,,,,,0,,,82,64
45000,note_on,17,0,4,,,,,,,,0,,,55,64
45057,control_change,57,0,4,,,,,,,,0,64,127,,
45096,note_on,0,0,2,,,,,,,,0,,,82,0
45096,note_on,0,0,2,,,,,,,,0,,,79,0
45096,note_on,0,0,2,,,,,,,,0,,,89,0
45096,note_on,39,0,4,,,,,,,,0,,,65,0
45096,note_on,0,0,4,,,,,,,,0,,,55,0
45096,note_on,0,0,4,,,,,,,,0,,,58,0
45096,note_on,96,0,2,,,,,,,,0,,,77,0
45096,note_on,0,0,4,,,,,,,,0,,,53,0
45120,note_on,24,0,2,,,,,,,,0,,,86,64
45120,note_on,0,0,4,,,,,,,,0,,,58,64
45120,note_on,0,0,4,,,,,,,,0,,,65,64
45120,note_on,24,0,4,,,,,,,,0,,,53,64
45120,note_on,0,0,2,,,,,,,,0,,,77,64
45120,note_on,0,0,2,,,,,,,,0,,,82,64
45120,note_on,0,0,4,,,,,,,,0,,,62,64
45120,note_on,0,0,2,,,,,,,,0,,,89,64
45174,set_tempo,179,1,0,,,,,,548446,,,,,,
45216,note_on,0,0,2,,,,,,,,0,,,89,0
45216,note_on,0,0,2,,,,,,,,0,,,86,0
45216,note_on,96,0,4,,,,,,,,0,,,65,0
45216,note_on,96,0,2,,,,,,,,0,,,82,0
45216,note_on,0,0,4,,,,,,,,0,,,58,0
45216,note_on,0,0,2,,,,,,,,0,,,77,0
45216,note_on,0,0,4,,,,,,,,0,,,62,0
45216,note_on,0,0,4,,,,,,,,0,,,53,0
45240,note_on,0,0,4,,,,,,,,0,,,65,64
45240,note_on,0,0,2,,,,,,,,0,,,77,64
45240,note_on,0,0,2,,,,,,,,0,,,84,64
45240,note_on,0,0,2,,,,,,,,0,,,89,64
45240,note_on,0,0,4,,,,,,,,0,,,60,64
45240,note_on,0,0,4,,,,,,,,0,,,53,64
45240,note_on,24,0,2,,,,,,,,0,,,81,64
45240,note_on,24,0,4,,,,,,,,0,,,57,64
45336,note_on,0,0,4,,,,,,,,0,,,57,0
45336,note_on,96,0,2,,,,,,,,0,,,89,0
45336,note_on,0,0,4,,,,,,,,0,,,60,0
45336,note_on,0,0,2,,,,,,,,0,,,84,0
45336,note_on,0,0,2,,,,,,,,0,,,81,0
45336,note_on,0,0,2,,,,,,,,0,,,77,0
45336,note_on,96,0,4,,,,,,,,0,,,53,0
45336,note_on,0,0,4,,,,,,,,0,,,65,0
45353,set_tempo,179,1,0,,,,,,544761,,,,,,
45360,note_on,0,0,2,,,,,,,,0,,,81,72
45360,note_on,0,0,2,,,,,,,,0,,,77,72
45360,note_on,24,0,4,,,,,,,,0,,,53,72
45360,note_on,24,0,2,,,,,,,,0,,,89,72
45360,note_on,0,0,4,,,,,,,,0,,,57,72
45360,note_on,0,0,4,,,,,,,,0,,,65,72
45383,control_change,23,0,4,,,,,,,,0,64,0,,
45400,control_change,17,0,4,,,,,,,,0,64,127,,
45456,note_on,0,0,2,,,,,,,,0,,,81,0
45456,note_on,0,0,2,,,,,,,,0,,,89,0
45456,note_on,56,0,4,,,,,,,,0,,,65,0
45456,note_on,96,0,2,,,,,,,,0,,,77,0
45456,note_on,0,0,4,,,,,,,,0,,,57,0
45456,note_on,0,0,4,,,,,,,,0,,,53,0
45480,note_on,0,0,2,,,,,,,,0,,,86,72
45480,note_on,0,0,2,,,,,,,,0,,,82,72
45480,note_on,24,0,4,,,,,,,,0,,,50,72
45480,note_on,0,0,4,,,,,,,,0,,,41,72
45480,note_on,0,0,4,,,,,,,,0,,,58,72
45480,note_on,24,0,2,,,,,,,,0,,,94,72
45576,note_on,96,0,2,,,,,,,,0,,,86,0
45576,note_on,0,0,2,,,,,,,,0,,,94,0
45576,note_on,96,0,4,,,,,,,,0,,,58,0
45576,note_on,0,0,2,,,,,,,,0,,,82,0
45576,note_on,0,0,4,,,,,,,,0,,,41,0
45576,note_on,0,0,4,,,,,,,,0,,,50,0
45600,note_on,0,0,2,,,,,,,,0,,,81,72
45600,note_on,0,0,4,,,,,,,,0,,,48,72
45600,note_on,24,0,4,,,,,,,,0,,,41,72
45600,note_on,0,0,4,,,,,,,,0,,,57,72
45600,note_on,0,0,2,,,,,,,,0,,,93,72
45600,note_on,24,0,2,,,,,,,,0,,,84,72
45696,note_on,0,0,2,,,,,,,,0,,,84,0
45696,note_on,96,0,2,,,,,,,,0,,,81,0
45696,note_on,0,0,2,,,,,,,,0,,,93,0
45696,note_on,96,0,4,,,,,,,,0,,,48,0
45696,note_on,0,0,4,,,,,,,,0,,,57,0
45696,note_on,0,0,4,,,,,,,,0,,,41,0
45720,note_on,24,0,4,,,,,,,,0,,,53,72
45720,note_on,0,0,4,,,,,,,,0,,,41,72
45720,note_on,0,0,2,,,,,,,,0,,,79,72
45720,note_on,0,0,2,,,,,,,,0,,,91,72
45720,note_on,0,0,4,,,,,,,,0,,,46,72
45720,note_on,24,0,2,,,,,,,,0,,,82,72
45731,control_change,11,0,4,,,,,,,,0,64,0,,
45783,control_change,52,0,4,,,,,,,,0,64,127,,
45816,note_on,0,0,2,,,,,,,,0,,,91,0
45816,note_on,0,0,4,,,,,,,,0,,,41,0
45816,note_on,96,0,2,,,,,,,,0,,,79,0
45816,note_on,0,0,4,,,,,,,,0,,,53,0
45816,note_on,33,0,4,,,,,,,,0,,,46,0
45816,note_on,0,0,2,,,,,,,,0,,,82,0
45840,note_on,0,0,4,,,,,,,,0,,,50,72
45840,note_on,0,0,4,,,,,,,,0,,,41,72
45840,note_on,0,0,2,,,,,,,,0,,,82,72
45840,note_on,24,0,2,,,,,,,,0,,,86,72
45840,note_on,24,0,4,,,,,,,,0,,,58,72
45840,note_on,0,0,2,,,,,,,,0,,,94,72
45936,note_on,0,0,4,,,,,,,,0,,,58,0
45936,note_on,0,0,2,,,,,,,,0,,,94,0
45936,note_on,0,0,2,,,,,,,,0,,,86,0
45936,note_on,0,0,4,,,,,,,,0,,,50,0
45936,note_on,96,0,4,,,,,,,,0,,,41,0
45936,note_on,96,0,2,,,,,,,,0,,,82,0
45960,note_on,0,0,2,,,,,,,,0,,,93,72
45960,note_on,0,0,2,,,,,,,,0,,,81,72
45960,note_on,0,0,4,,,,,,,,0,,,41,72
45960,note_on,24,0,2,,,,,,,,0,,,84,72
45960,note_on,0,0,4,,,,,,,,0,,,48,72
45960,note_on,24,0,4,,,,,,,,0,,,57,72
46056,note_on,96,0,4,,,,,,,,0,,,41,0
46056,note_on,96,0,2,,,,,,,,0,,,93,0
46056,note_on,0,0,4,,,,,,,,0,,,48,0
46056,note_on,0,0,4,,,,,,,,0,,,57,0
46056,note_on,0,0,2,,,,,,,,0,,,81,0
46056,note_on,0,0,2,,,,,,,,0,,,84,0
46080,note_on,0,0,4,,,,,,,,0,,,57,72
46080,note_on,0,0,4,,,,,,,,0,,,48,72
46080,note_on,0,0,4,,,,,,,,0,,,41,72
46080,note_on,5784,0,1,,,,,,,,0,,,93,72
46080,control_change,24,0,4,,,,,,,,0,64,0,,
46080,note_on,0,0,2,,,,,,,,0,,,81,72
46080,note_on,24,0,2,,,,,,,,0,,,84,72
46133,control_change,53,0,4,,,,,,,,0,64,127,,
46176,note_on,96,0,1,,,,,,,,0,,,93,0
46200,note_on,24,0,1,,,,,,,,0,,,81,72
46272,note_on,139,0,4,,,,,,,,0,,,48,0
46272,note_on,0,0,4,,,,,,,,0,,,41,0
46272,note_on,0,0,4,,,,,,,,0,,,57,0
46296,note_on,96,0,1,,,,,,,,0,,,81,0
46320,note_on,24,0,1,,,,,,,,0,,,93,72
46368,note_on,0,0,2,,,,,,,,0,,,84,0
46368,note_on,288,0,2,,,,,,,,0,,,81,0
46416,note_on,96,0,1,,,,,,,,0,,,93,0
46440,note_on,72,0,2,,,,,,,,0,,,81,72
46440,control_change,168,0,4,,,,,,,,0,64,0,,
46440,note_on,0,0,4,,,,,,,,0,,,41,72
46440,note_on,0,0,4,,,,,,,,0,,,48,72
46440,note_on,24,0,1,,,,,,,,0,,,91,72
46440,note_on,0,0,4,,,,,,,,0,,,51,72
46440,note_on,0,0,2,,,,,,,,0,,,84,72
46440,note_on,0,0,4,,,,,,,,0,,,57,72
46507,control_change,67,0,4,,,,,,,,0,64,127,,
46536,note_on,96,0,1,,,,,,,,0,,,91,0
46560,note_on,24,0,1,,,,,,,,0,,,89,72
46656,note_on,96,0,1,,,,,,,,0,,,89,0
46680,note_on,24,0,1,,,,,,,,0,,,77,72
46728,note_on,0,0,2,,,,,,,,0,,,81,0
46728,note_on,288,0,2,,,,,,,,0,,,84,0
46776,note_on,96,0,1,,,,,,,,0,,,77,0
46800,note_on,24,0,1,,,,,,,,0,,,89,72
46896,note_on,96,0,1,,,,,,,,0,,,89,0
46920,note_on,24,0,1,,,,,,,,0,,,87,72
47016,note_on,96,0,1,,,,,,,,0,,,87,0
47040,note_on,24,0,1,,,,,,,,0,,,86,72
47088,note_on,0,0,4,,,,,,,,0,,,51,0
47088,note_on,0,0,4,,,,,,,,0,,,48,0
47088,note_on,0,0,4,,,,,,,,0,,,41,0
47088,note_on,581,0,4,,,,,,,,0,,,57,0
47136,note_on,96,0,1,,,,,,,,0,,,86,0
47160,note_on,0,0,2,,,,,,,,0,,,72,72
47160,note_on,0,0,4,,,,,,,,0,,,51,72
47160,note_on,0,0,4,,,,,,,,0,,,48,72
47160,note_on,24,0,1,,,,,,,,0,,,77,72
47160,control_change,72,0,4,,,,,,,,0,64,0,,
47160,note_on,0,0,4,,,,,,,,0,,,57,72
47160,note_on,0,0,4,,,,,,,,0,,,41,72
47160,note_on,432,0,2,,,,,,,,0,,,69,72
47246,control_change,86,0,4,,,,,,,,0,64,127,,
47256,note_on,96,0,1,,,,,,,,0,,,77,0
47280,note_on,24,0,1,,,,,,,,0,,,86,72
47376,note_on,96,0,1,,,,,,,,0,,,86,0
47400,note_on,24,0,1,,,,,,,,0,,,84,72
47448,note_on,0,0,4,,,,,,,,0,,,57,0
47448,note_on,288,0,2,,,,,,,,0,,,72,0
47448,note_on,0,0,2,,,,,,,,0,,,69,0
47448,note_on,0,0,4,,,,,,,,0,,,41,0
47448,note_on,202,0,4,,,,,,,,0,,,51,0
47448,note_on,0,0,4,,,,,,,,0,,,48,0
47496,note_on,96,0,1,,,,,,,,0,,,84,0
47520,note_on,0,0,4,,,,,,,,0,,,48,72
47520,note_on,0,0,2,,,,,,,,0,,,72,72
47520,note_on,24,0,1,,,,,,,,0,,,81,72
47520,note_on,0,0,4,,,,,,,,0,,,51,72
47520,note_on,72,0,2,,,,,,,,0,,,69,72
47520,control_change,72,0,4,,,,,,,,0,64,0,,
47520,note_on,0,0,4,,,,,,,,0,,,41,72
47520,note_on,0,0,4,,,,,,,,0,,,57,72
47600,control_change,80,0,4,,,,,,,,0,64,127,,
47616,note_on,96,0,1,,,,,,,,0,,,81,0
47640,note_on,24,0,1,,,,,,,,0,,,69,72
47736,note_on,96,0,1,,,,,,,,0,,,69,0
47760,note_on,24,0,1,,,,,,,,0,,,81,72
47808,note_on,0,0,2,,,,,,,,0,,,69,0
47808,note_on,288,0,2,,,,,,,,0,,,72,0
47808,note_on,0,0,4,,,,,,,,0,,,41,0
47808,note_on,0,0,4,,,,,,,,0,,,51,0
47808,note_on,208,0,4,,,,,,,,0,,,48,0
47808,note_on,0,0,4,,,,,,,,0,,,57,0
47856,note_on,96,0,1,,,,,,,,0,,,81,0
47880,note_on,0,0,2,,,,,,,,0,,,72,72
47880,note_on,0,0,4,,,,,,,,0,,,48,72
47880,note_on,0,0,4,,,,,,,,0,,,51,72
47880,note_on,24,0,1,,,,,,,,0,,,79,72
47880,note_on,72,0,2,,,,,,,,0,,,69,72
47880,note_on,0,0,4,,,,,,,,0,,,41,72
47880,note_on,72,0,4,,,,,,,,0,,,57,72
47887,control_change,7,0,4,,,,,,,,0,64,0,,
47967,control_change,80,0,4,,,,,,,,0,64,127,,
47976,note_on,96,0,1,,,,,,,,0,,,79,0
48000,note_on,24,0,1,,,,,,,,0,,,77,72
48096,note_on,96,0,1,,,,,,,,0,,,77,0
48120,note_on,24,0,1,,,,,,,,0,,,65,72
48168,note_on,288,0,2,,,,,,,,0,,,72,0
48168,note_on,0,0,2,,,,,,,,0,,,69,0
48216,note_on,96,0,1,,,,,,,,0,,,65,0
48236,set_tempo,2883,1,0,,,,,,548446,,,,,,
48240,note_on,24,0,1,,,,,,,,0,,,77,72
48288,set_tempo,52,1,0,,,,,,552181,,,,,,
48336,note_on,96,0,1,,,,,,,,0,,,77,0
48341,set_tempo,53,1,0,,,,,,555967,,,,,,
48360,note_on,24,0,1,,,,,,,,0,,,75,72
48393,set_tempo,52,1,0,,,,,,559806,,,,,,
48441,set_tempo,48,1,0,,,,,,563698,,,,,,
48456,note_on,96,0,1,,,,,,,,0,,,75,0
48480,note_on,24,0,1,,,,,,,,0,,,74,72
48493,set_tempo,52,1,0,,,,,,567644,,,,,,
48528,note_on,0,0,4,,,,,,,,0,,,57,0
48528,note_on,0,0,4,,,,,,,,0,,,51,0
48528,note_on,0,0,4,,,,,,,,0,,,48,0
48528,note_on,561,0,4,,,,,,,,0,,,41,0
48546,set_tempo,53,1,0,,,,,,571646,,,,,,
48576,note_on,96,0,1,,,,,,,,0,,,74,0
48598,set_tempo,52,1,0,,,,,,575705,,,,,,
48600,note_on,72,0,4,,,,,,,,0,,,41,72
48600,note_on,0,0,4,,,,,,,,0,,,48,72
48600,note_on,0,0,4,,,,,,,,0,,,51,72
48600,note_on,0,0,4,,,,,,,,0,,,57,72
48600,note_on,24,0,1,,,,,,,,0,,,65,72
48600,note_on,432,0,2,,,,,,,,0,,,60,72
48606,control_change,6,0,4,,,,,,,,0,64,0,,
48646,set_tempo,48,1,0,,,,,,579822,,,,,,
48657,control_change,51,0,4,,,,,,,,0,64,127,,
48696,note_on,96,0,1,,,,,,,,0,,,65,0
48698,set_tempo,52,1,0,,,,,,583998,,,,,,
48720,note_on,24,0,1,,,,,,,,0,,,74,72
48751,set_tempo,53,1,0,,,,,,588235,,,,,,
48803,set_tempo,52,1,0,,,,,,592534,,,,,,
48816,note_on,96,0,1,,,,,,,,0,,,74,0
48840,note_on,24,0,1,,,,,,,,0,,,72,72
48851,set_tempo,48,1,0,,,,,,596896,,,,,,
48888,note_on,0,0,4,,,,,,,,0,,,48,0
48888,note_on,0,0,4,,,,,,,,0,,,41,0
48888,note_on,231,0,4,,,,,,,,0,,,57,0
48888,note_on,0,0,4,,,,,,,,0,,,51,0
48888,note_on,288,0,2,,,,,,,,0,,,60,0
48904,set_tempo,53,1,0,,,,,,601323,,,,,,
48936,note_on,96,0,1,,,,,,,,0,,,72,0
48956,set_tempo,52,1,0,,,,,,605816,,,,,,
48960,note_on,0,0,2,,,,,,,,0,,,57,72
48960,note_on,24,0,1,,,,,,,,0,,,69,72
48960,note_on,72,0,2,,,,,,,,0,,,60,72
48960,note_on,0,0,4,,,,,,,,0,,,53,72
48960,note_on,0,0,4,,,,,,,,0,,,51,72
48960,note_on,0,0,4,,,,,,,,0,,,48,72
48960,note_on,0,0,4,,,,,,,,0,,,41,72
48960,control_change,72,0,4,,,,,,,,0,64,0,,
49008,set_tempo,52,1,0,,,,,,610376,,,,,,
49040,control_change,80,0,4,,,,,,,,0,64,127,,
49056,set_tempo,48,1,0,,,,,,615006,,,,,,
49056,note_on,96,0,1,,,,,,,,0,,,69,0
49080,note_on,24,0,1,,,,,,,,0,,,57,72
49109,set_tempo,53,1,0,,,,,,619707,,,,,,
49161,set_tempo,52,1,0,,,,,,624480,,,,,,
49176,note_on,96,0,1,,,,,,,,0,,,57,0
49200,note_on,24,0,1,,,,,,,,0,,,69,72
49213,set_tempo,52,1,0,,,,,,629327,,,,,,
49248,note_on,0,0,4,,,,,,,,0,,,48,0
49248,note_on,208,0,4,,,,,,,,0,,,51,0
49248,note_on,0,0,2,,,,,,,,0,,,60,0
49248,note_on,288,0,2,,,,,,,,0,,,57,0
49248,note_on,0,0,4,,,,,,,,0,,,53,0
49248,note_on,0,0,4,,,,,,,,0,,,41,0
49261,set_tempo,48,1,0,,,,,,634249,,,,,,
49296,note_on,96,0,1,,,,,,,,0,,,69,0
49314,set_tempo,53,1,0,,,,,,639250,,,,,,
49320,note_on,0,0,4,,,,,,,,0,,,41,72
49320,note_on,24,0,1,,,,,,,,0,,,67,72
49320,note_on,0,0,4,,,,,,,,0,,,51,72
49320,note_on,0,0,4,,,,,,,,0,,,53,72
49320,note_on,72,0,2,,,,,,,,0,,,57,72
49320,note_on,0,0,2,,,,,,,,0,,,60,72
49320,note_on,72,0,4,,,,,,,,0,,,48,72
49347,control_change,27,0,4,,,,,,,,0,64,0,,
49366,set_tempo,52,1,0,,,,,,644330,,,,,,
49413,control_change,66,0,4,,,,,,,,0,64,127,,
49416,note_on,96,0,1,,,,,,,,0,,,67,0
49418,set_tempo,52,1,0,,,,,,649491,,,,,,
49440,note_on,24,0,1,,,,,,,,0,,,65,72
49466,set_tempo,48,1,0,,,,,,654736,,,,,,
49519,set_tempo,53,1,0,,,,,,660066,,,,,,
49536,note_on,96,0,1,,,,,,,,0,,,65,0
49560,note_on,24,0,1,,,,,,,,0,,,57,72
49571,set_tempo,52,1,0,,,,,,665484,,,,,,
49608,note_on,195,0,4,,,,,,,,0,,,53,0
49608,note_on,288,0,2,,,,,,,,0,,,60,0
49608,note_on,0,0,4,,,,,,,,0,,,41,0
49608,note_on,0,0,4,,,,,,,,0,,,51,0
49608,note_on,0,0,4,,,,,,,,0,,,48,0
49608,note_on,0,0,2,,,,,,,,0,,,57,0
49624,set_tempo,53,1,0,,,,,,670991,,,,,,
49656,note_on,96,0,1,,,,,,,,0,,,57,0
49672,set_tempo,48,1,0,,,,,,665484,,,,,,
49680,control_change,72,0,4,,,,,,,,0,64,0,,
49680,note_on,0,0,4,,,,,,,,0,,,51,72
49680,note_on,0,0,4,,,,,,,,0,,,41,72
49680,note_on,24,0,1,,,,,,,,0,,,69,72
49680,note_on,0,0,4,,,,,,,,0,,,53,72
49680,note_on,0,0,4,,,,,,,,0,,,48,72
49680,note_on,0,0,2,,,,,,,,0,,,57,72
49680,note_on,72,0,2,,,,,,,,0,,,60,72
49747,control_change,67,0,4,,,,,,,,0,64,127,,
49776,note_on,96,0,1,,,,,,,,0,,,69,0
49800,note_on,24,0,1,,,,,,,,0,,,57,72
49896,note_on,96,0,1,,,,,,,,0,,,57,0
49920,note_on,24,0,1,,,,,,,,0,,,69,72
49968,note_on,0,0,2,,,,,,,,0,,,60,0
49968,note_on,0,0,4,,,,,,,,0,,,41,0
49968,note_on,0,0,4,,,,,,,,0,,,48,0
49968,note_on,221,0,4,,,,,,,,0,,,53,0
49968,note_on,0,0,4,,,,,,,,0,,,51,0
49968,note_on,288,0,2,,,,,,,,0,,,57,0
50016,note_on,96,0,1,,,,,,,,0,,,69,0
50034,set_tempo,362,1,0,,,,,,670991,,,,,,
50040,note_on,0,0,4,,,,,,,,0,,,45,72
50040,note_on,72,0,2,,,,,,,,0,,,57,72
50040,note_on,0,0,2,,,,,,,,0,,,60,72
50040,note_on,0,0,4,,,,,,,,0,,,48,72
50040,note_on,0,0,4,,,,,,,,0,,,53,72
50040,note_on,24,0,1,,,,,,,,0,,,67,72
50040,note_on,72,0,4,,,,,,,,0,,,51,72
50051,set_tempo,17,1,0,,,,,,670991,,,,,,
50053,control_change,13,0,4,,,,,,,,0,64,0,,
50107,control_change,54,0,4,,,,,,,,0,64,127,,
50136,note_on,96,0,1,,,,,,,,0,,,67,0
50160,note_on,24,0,1,,,,,,,,0,,,65,72
50256,note_on,96,0,1,,,,,,,,0,,,65,0
50280,note_on,24,0,1,,,,,,,,0,,,57,72
50328,note_on,0,0,4,,,,,,,,0,,,51,0
50328,note_on,221,0,4,,,,,,,,0,,,45,0
50328,note_on,0,0,2,,,,,,,,0,,,57,0
50328,note_on,0,0,4,,,,,,,,0,,,48,0
50328,note_on,0,0,4,,,,,,,,0,,,53,0
50328,note_on,288,0,2,,,,,,,,0,,,60,0
50376,note_on,96,0,1,,,,,,,,0,,,57,0
50382,set_tempo,331,1,0,,,,,,665484,,,,,,
50400,note_on,72,0,2,,,,,,,,0,,,57,72
50400,note_on,0,0,4,,,,,,,,0,,,40,72
50400,control_change,72,0,4,,,,,,,,0,64,0,,
50400,note_on,0,0,2,,,,,,,,0,,,61,72
50400,note_on,0,0,2,,,,,,,,0,,,69,72
50400,note_on,0,0,4,,,,,,,,0,,,49,72
50400,note_on,0,0,4,,,,,,,,0,,,52,72
50404,set_tempo,22,1,0,,,,,,660066,,,,,,
50422,set_tempo,18,1,0,,,,,,654736,,,,,,
50444,set_tempo,22,1,0,,,,,,649491,,,,,,
50452,control_change,52,0,4,,,,,,,,0,64,127,,
50461,set_tempo,17,1,0,,,,,,644330,,,,,,
50483,set_tempo,22,1,0,,,,,,639250,,,,,,
50500,set_tempo,17,1,0,,,,,,634249,,,,,,
50520,note_on,144,0,1,,,,,,,,0,,,57,72
50522,set_tempo,22,1,0,,,,,,629327,,,,,,
50540,set_tempo,18,1,0,,,,,,624480,,,,,,
50561,set_tempo,21,1,0,,,,,,619707,,,,,,
50579,set_tempo,18,1,0,,,,,,615006,,,,,,
50592,note_on,0,0,4,,,,,,,,0,,,49,0
50592,note_on,0,0,4,,,,,,,,0,,,40,0
50592,note_on,140,0,4,,,,,,,,0,,,52,0
50601,set_tempo,22,1,0,,,,,,610376,,,,,,
50616,note_on,96,0,1,,,,,,,,0,,,57,0
50618,set_tempo,17,1,0,,,,,,605816,,,,,,
50640,note_on,0,0,4,,,,,,,,0,,,73,72
50640,note_on,0,0,4,,,,,,,,0,,,76,72
50640,set_tempo,22,1,0,,,,,,601323,,,,,,
50640,note_on,48,0,4,,,,,,,,0,,,81,72
50640,note_on,24,0,1,,,,,,,,0,,,69,72
50657,set_tempo,17,1,0,,,,,,596896,,,,,,
50679,set_tempo,22,1,0,,,,,,592534,,,,,,
50697,set_tempo,18,1,0,,,,,,588235,,,,,,
50718,set_tempo,21,1,0,,,,,,583998,,,,,,
50736,note_on,96,0,4,,,,,,,,0,,,76,0
50736,note_on,0,0,4,,,,,,,,0,,,81,0
50736,set_tempo,18,1,0,,,,,,579822,,,,,,
50736,note_on,96,0,1,,,,,,,,0,,,69,0
50736,note_on,0,0,4,,,,,,,,0,,,73,0
50758,set_tempo,22,1,0,,,,,,575705,,,,,,
50760,note_on,0,0,4,,,,,,,,0,,,76,72
50760,note_on,0,0,4,,,,,,,,0,,,73,72
50760,note_on,24,0,4,,,,,,,,0,,,83,72
50760,note_on,24,0,1,,,,,,,,0,,,68,72
50775,set_tempo,17,1,0,,,,,,571646,,,,,,
50797,set_tempo,22,1,0,,,,,,567644,,,,,,
50814,set_tempo,17,1,0,,,,,,563698,,,,,,
50836,set_tempo,22,1,0,,,,,,559806,,,,,,
50854,set_tempo,18,1,0,,,,,,555967,,,,,,
50856,note_on,96,0,1,,,,,,,,0,,,68,0
50876,set_tempo,22,1,0,,,,,,552181,,,,,,
50880,note_on,24,0,1,,,,,,,,0,,,66,72
50893,set_tempo,17,1,0,,,,,,548446,,,,,,
50915,set_tempo,22,1,0,,,,,,544761,,,,,,
50932,set_tempo,17,1,0,,,,,,541126,,,,,,
50952,note_on,0,0,4,,,,,,,,0,,,83,0
50952,note_on,0,0,4,,,,,,,,0,,,73,0
50952,note_on,192,0,4,,,,,,,,0,,,76,0
50954,set_tempo,22,1,0,,,,,,537538,,,,,,
50972,set_tempo,18,1,0,,,,,,533998,,,,,,
50976,note_on,0,0,2,,,,,,,,0,,,57,0
50976,note_on,0,0,2,,,,,,,,0,,,61,0
50976,note_on,576,0,2,,,,,,,,0,,,69,0
50993,set_tempo,21,1,0,,,,,,530504,,,,,,
51000,note_on,0,0,4,,,,,,,,0,,,85,72
51000,note_on,120,0,1,,,,,,,,0,,,57,72
51000,note_on,0,0,4,,,,,,,,0,,,73,72
51000,note_on,48,0,4,,,,,,,,0,,,76,72
51011,set_tempo,18,1,0,,,,,,527056,,,,,,
51033,set_tempo,22,1,0,,,,,,523652,,,,,,
51050,set_tempo,17,1,0,,,,,,520291,,,,,,
51072,set_tempo,22,1,0,,,,,,516974,,,,,,
51089,set_tempo,17,1,0,,,,,,513699,,,,,,
51096,note_on,96,0,1,,,,,,,,0,,,57,0
51096,note_on,96,0,4,,,,,,,,0,,,73,0
51096,note_on,0,0,1,,,,,,,,0,,,66,0
51096,note_on,0,0,4,,,,,,,,0,,,76,0
51096,note_on,0,0,4,,,,,,,,0,,,85,0
51107,set_tempo,18,1,0,,,,,,510465,,,,,,
51111,set_tempo,4,1,0,,,,,,516974,,,,,,
51120,note_on,0,0,2,,,,,,,,0,,,59,72
51120,note_on,0,0,2,,,,,,,,0,,,68,72
51120,control_change,24,0,4,,,,,,,,0,64,0,,
51120,note_on,0,0,4,,,,,,,,0,,,50,72
51120,note_on,0,0,4,,,,,,,,0,,,52,72
51120,note_on,144,0,2,,,,,,,,0,,,56,72
51120,note_on,0,0,4,,,,,,,,0,,,40,72
51159,set_tempo,48,1,0,,,,,,520291,,,,,,
51173,control_change,53,0,4,,,,,,,,0,64,127,,
51203,set_tempo,44,1,0,,,,,,523652,,,,,,
51240,note_on,144,0,1,,,,,,,,0,,,56,72
51246,set_tempo,43,1,0,,,,,,527056,,,,,,
51290,set_tempo,44,1,0,,,,,,530504,,,,,,
51312,note_on,0,0,4,,,,,,,,0,,,40,0
51312,note_on,139,0,4,,,,,,,,0,,,52,0
51312,note_on,0,0,4,,,,,,,,0,,,50,0
51334,set_tempo,44,1,0,,,,,,533998,,,,,,
51336,note_on,96,0,1,,,,,,,,0,,,56,0
51360,note_on,24,0,1,,,,,,,,0,,,68,72
51360,note_on,48,0,4,,,,,,,,0,,,74,72
51360,note_on,0,0,4,,,,,,,,0,,,76,72
51360,note_on,0,0,4,,,,,,,,0,,,86,72
51377,set_tempo,43,1,0,,,,,,537538,,,,,,
51421,set_tempo,44,1,0,,,,,,541126,,,,,,
51456,note_on,96,0,1,,,,,,,,0,,,68,0
51465,set_tempo,44,1,0,,,,,,544761,,,,,,
51480,note_on,24,0,1,,,,,,,,0,,,66,72
51513,set_tempo,48,1,0,,,,,,548446,,,,,,
51556,set_tempo,43,1,0,,,,,,552181,,,,,,
51576,note_on,96,0,1,,,,,,,,0,,,66,0
51600,note_on,24,0,1,,,,,,,,0,,,64,72
51600,set_tempo,44,1,0,,,,,,555967,,,,,,
51644,set_tempo,44,1,0,,,,,,559806,,,,,,
51648,note_on,288,0,4,,,,,,,,0,,,86,0
51648,note_on,0,0,4,,,,,,,,0,,,76,0
51648,note_on,0,0,4,,,,,,,,0,,,74,0
51687,set_tempo,43,1,0,,,,,,563698,,,,,,
51696,note_on,0,0,2,,,,,,,,0,,,59,0
51696,note_on,576,0,2,,,,,,,,0,,,68,0
51696,note_on,0,0,2,,,,,,,,0,,,56,0
51720,note_on,72,0,4,,,,,,,,0,,,76,72
51720,note_on,0,0,4,,,,,,,,0,,,74,72
51720,note_on,0,0,4,,,,,,,,0,,,80,72
51720,note_on,120,0,1,,,,,,,,0,,,56,72
51731,set_tempo,44,1,0,,,,,,567644,,,,,,
51774,set_tempo,43,1,0,,,,,,571646,,,,,,
51816,note_on,96,0,1,,,,,,,,0,,,56,0
51816,note_on,0,0,1,,,,,,,,0,,,64,0
51816,note_on,0,0,4,,,,,,,,0,,,74,0
51816,note_on,0,0,4,,,,,,,,0,,,76,0
51816,note_on,96,0,4,,,,,,,,0,,,80,0
51818,set_tempo,44,1,0,,,,,,575705,,,,,,
51831,set_tempo,13,1,0,,,,,,676590,,,,,,
51840,note_on,0,0,2,,,,,,,,0,,,60,72
51840,note_on,0,0,2,,,,,,,,0,,,68,72
51840,set_tempo,9,1,0,,,,,,583998,,,,,,
51840,note_on,0,0,4,,,,,,,,0,,,48,72
51840,note_on,0,0,4,,,,,,,,0,,,39,72
51840,note_on,0,0,4,,,,,,,,0,,,51,72
51840,note_on,144,0,2,,,,,,,,0,,,56,72
51840,control_change,24,0,4,,,,,,,,0,64,0,,
51875,set_tempo,35,1,0,,,,,,579822,,,,,,
51905,set_tempo,30,1,0,,,,,,575705,,,,,,
51931,control_change,91,0,4,,,,,,,,0,64,127,,
51940,set_tempo,35,1,0,,,,,,571646,,,,,,
51960,note_on,144,0,1,,,,,,,,0,,,56,72
51971,set_tempo,31,1,0,,,,,,567644,,,,,,
52006,set_tempo,35,1,0,,,,,,563698,,,,,,
52032,note_on,0,0,4,,,,,,,,0,,,39,0
52032,note_on,101,0,4,,,,,,,,0,,,51,0
52032,note_on,0,0,4,,,,,,,,0,,,48,0
52036,set_tempo,30,1,0,,,,,,559806,,,,,,
52056,note_on,96,0,1,,,,,,,,0,,,56,0
52067,set_tempo,31,1,0,,,,,,555967,,,,,,
52080,note_on,24,0,1,,,,,,,,0,,,68,72
52080,note_on,0,0,4,,,,,,,,0,,,80,72
52080,note_on,48,0,4,,,,,,,,0,,,75,72
52080,note_on,0,0,4,,,,,,,,0,,,72,72
52102,set_tempo,35,1,0,,,,,,552181,,,,,,
52132,set_tempo,30,1,0,,,,,,548446,,,,,,
52167,set_tempo,35,1,0,,,,,,544761,,,,,,
52176,note_on,0,0,4,,,,,,,,0,,,80,0
52176,note_on,0,0,4,,,,,,,,0,,,75,0
52176,note_on,96,0,4,,,,,,,,0,,,72,0
52176,note_on,96,0,1,,,,,,,,0,,,68,0
52198,set_tempo,31,1,0,,,,,,541126,,,,,,
52200,note_on,24,0,1,,,,,,,,0,,,67,72
52200,note_on,0,0,4,,,,,,,,0,,,72,72
52200,note_on,24,0,4,,,,,,,,0,,,82,72
52200,note_on,0,0,4,,,,,,,,0,,,75,72
52228,set_tempo,30,1,0,,,,,,537538,,,,,,
52263,set_tempo,35,1,0,,,,,,533998,,,,,,
52294,set_tempo,31,1,0,,,,,,530504,,,,,,
52296,note_on,96,0,1,,,,,,,,0,,,67,0
52320,note_on,24,0,1,,,,,,,,0,,,65,72
52329,set_tempo,35,1,0,,,,,,527056,,,,,,
52359,set_tempo,30,1,0,,,,,,523652,,,,,,
52390,set_tempo,31,1,0,,,,,,520291,,,,,,
52392,note_on,192,0,4,,,,,,,,0,,,75,0
52392,note_on,0,0,4,,,,,,,,0,,,72,0
52392,note_on,0,0,4,,,,,,,,0,,,82,0
52416,note_on,96,0,1,,,,,,,,0,,,65,0
52416,note_on,0,0,2,,,,,,,,0,,,60,0
52416,note_on,0,0,2,,,,,,,,0,,,56,0
52416,note_on,576,0,2,,,,,,,,0,,,68,0
52425,set_tempo,35,1,0,,,,,,516974,,,,,,
52440,note_on,48,0,4,,,,,,,,0,,,84,72
52440,note_on,24,0,1,,,,,,,,0,,,56,72
52440,note_on,0,0,4,,,,,,,,0,,,72,72
52440,note_on,0,0,4,,,,,,,,0,,,75,72
52455,set_tempo,30,1,0,,,,,,513699,,,,,,
52490,set_tempo,35,1,0,,,,,,510465,,,,,,
52521,set_tempo,31,1,0,,,,,,507271,,,,,,
52536,note_on,96,0,4,,,,,,,,0,,,75,0
52536,note_on,96,0,1,,,,,,,,0,,,56,0
52536,note_on,0,0,4,,,,,,,,0,,,84,0
52536,note_on,0,0,4,,,,,,,,0,,,72,0
52548,set_tempo,27,1,0,,,,,,510465,,,,,,
52560,note_on,144,0,2,,,,,,,,0,,,55,72
52560,note_on,0,0,4,,,,,,,,0,,,39,72
52560,control_change,24,0,4,,,,,,,,0,64,0,,
52560,note_on,0,0,4,,,,,,,,0,,,51,72
52560,note_on,0,0,4,,,,,,,,0,,,49,72
52560,note_on,0,0,2,,,,,,,,0,,,58,72
52560,note_on,0,0,2,,,,,,,,0,,,67,72
52583,set_tempo,35,1,0,,,,,,513699,,,,,,
52605,control_change,45,0,4,,,,,,,,0,64,127,,
52614,set_tempo,31,1,0,,,,,,516974,,,,,,
52648,set_tempo,34,1,0,,,,,,520291,,,,,,
52679,set_tempo,31,1,0,,,,,,523652,,,,,,
52680,note_on,144,0,1,,,,,,,,0,,,55,72
52710,set_tempo,31,1,0,,,,,,527056,,,,,,
52744,set_tempo,34,1,0,,,,,,530504,,,,,,
52752,note_on,147,0,4,,,,,,,,0,,,49,0
52752,note_on,0,0,4,,,,,,,,0,,,51,0
52752,note_on,0,0,4,,,,,,,,0,,,39,0
52775,set_tempo,31,1,0,,,,,,533998,,,,,,
52776,note_on,96,0,1,,,,,,,,0,,,55,0
52800,note_on,0,0,4,,,,,,,,0,,,85,72
52800,note_on,48,0,4,,,,,,,,0,,,75,72
52800,note_on,0,0,4,,,,,,,,0,,,73,72
52800,note_on,24,0,1,,,,,,,,0,,,67,72
52810,set_tempo,35,1,0,,,,,,537538,,,,,,
52840,set_tempo,30,1,0,,,,,,541126,,,,,,
52871,set_tempo,31,1,0,,,,,,544761,,,,,,
52896,note_on,96,0,1,,,,,,,,0,,,67,0
52906,set_tempo,35,1,0,,,,,,548446,,,,,,
52920,note_on,24,0,1,,,,,,,,0,,,65,72
52936,set_tempo,30,1,0,,,,,,552181,,,,,,
52967,set_tempo,31,1,0,,,,,,555967,,,,,,
53002,set_tempo,35,1,0,,,,,,559806,,,,,,
53016,note_on,96,0,1,,,,,,,,0,,,65,0
53032,set_tempo,30,1,0,,,,,,563698,,,,,,
53040,note_on,24,0,1,,,,,,,,0,,,63,72
53067,set_tempo,35,1,0,,,,,,567644,,,,,,
53088,note_on,0,0,4,,,,,,,,0,,,73,0
53088,note_on,0,0,4,,,,,,,,0,,,75,0
53088,note_on,288,0,4,,,,,,,,0,,,85,0
53098,set_tempo,31,1,0,,,,,,571646,,,,,,
53128,set_tempo,30,1,0,,,,,,575705,,,,,,
53136,note_on,0,0,2,,,,,,,,0,,,58,0
53136,note_on,576,0,2,,,,,,,,0,,,67,0
53136,note_on,0,0,2,,,,,,,,0,,,55,0
53160,note_on,0,0,4,,,,,,,,0,,,79,72
53160,note_on,0,0,4,,,,,,,,0,,,75,72
53160,note_on,120,0,1,,,,,,,,0,,,55,72
53160,note_on,72,0,4,,,,,,,,0,,,73,72
53163,set_tempo,35,1,0,,,,,,579822,,,,,,
53194,set_tempo,31,1,0,,,,,,583998,,,,,,
53229,set_tempo,35,1,0,,,,,,588235,,,,,,
53256,note_on,0,0,4,,,,,,,,0,,,73,0
53256,note_on,96,0,1,,,,,,,,0,,,55,0
53256,note_on,0,0,1,,,,,,,,0,,,63,0
53256,note_on,96,0,4,,,,,,,,0,,,75,0
53256,note_on,0,0,4,,,,,,,,0,,,79,0
53259,set_tempo,30,1,0,,,,,,592534,,,,,,
53280,note_on,0,0,2,,,,,,,,0,,,58,72
53280,note_on,0,0,2,,,,,,,,0,,,66,72
53280,note_on,144,0,2,,,,,,,,0,,,54,72
53280,note_on,0,0,4,,,,,,,,0,,,37,72
53280,note_on,0,0,4,,,,,,,,0,,,46,72
53280,note_on,0,0,4,,,,,,,,0,,,49,72
53280,control_change,24,0,4,,,,,,,,0,64,0,,
53281,set_tempo,22,1,0,,,,,,596896,,,,,,
53307,set_tempo,26,1,0,,,,,,592534,,,,,,
53334,set_tempo,27,1,0,,,,,,588235,,,,,,
53360,set_tempo,26,1,0,,,,,,583998,,,,,,
53371,control_change,91,0,4,,,,,,,,0,64,127,,
53386,set_tempo,26,1,0,,,,,,579822,,,,,,
53400,note_on,144,0,1,,,,,,,,0,,,54,72
53412,set_tempo,26,1,0,,,,,,575705,,,,,,
53438,set_tempo,26,1,0,,,,,,571646,,,,,,
53464,set_tempo,26,1,0,,,,,,567644,,,,,,
53472,note_on,101,0,4,,,,,,,,0,,,49,0
53472,note_on,0,0,4,,,,,,,,0,,,46,0
53472,note_on,0,0,4,,,,,,,,0,,,37,0
53491,set_tempo,27,1,0,,,,,,563698,,,,,,
53496,note_on,96,0,1,,,,,,,,0,,,54,0
53517,set_tempo,26,1,0,,,,,,559806,,,,,,
53520,note_on,0,0,4,,,,,,,,0,,,78,72
53520,note_on,0,0,4,,,,,,,,0,,,70,72
53520,note_on,48,0,4,,,,,,,,0,,,73,72
53520,note_on,24,0,1,,,,,,,,0,,,66,72
53539,set_tempo,22,1,0,,,,,,555967,,,,,,
53565,set_tempo,26,1,0,,,,,,552181,,,,,,
53591,set_tempo,26,1,0,,,,,,548446,,,,,,
53616,note_on,96,0,1,,,,,,,,0,,,66,0
53616,note_on,96,0,4,,,,,,,,0,,,78,0
53616,note_on,0,0,4,,,,,,,,0,,,73,0
53616,note_on,0,0,4,,,,,,,,0,,,70,0
53617,set_tempo,26,1,0,,,,,,544761,,,,,,
53640,note_on,0,0,4,,,,,,,,0,,,77,72
53640,note_on,24,0,4,,,,,,,,0,,,73,72
53640,note_on,24,0,1,,,,,,,,0,,,65,72
53640,note_on,0,0,4,,,,,,,,0,,,70,72
53643,set_tempo,26,1,0,,,,,,541126,,,,,,
53670,set_tempo,27,1,0,,,,,,537538,,,,,,
53696,set_tempo,26,1,0,,,,,,533998,,,,,,
53722,set_tempo,26,1,0,,,,,,530504,,,,,,
53736,note_on,96,0,1,,,,,,,,0,,,65,0
53748,set_tempo,26,1,0,,,,,,527056,,,,,,
53760,note_on,24,0,1,,,,,,,,0,,,63,72
53770,set_tempo,22,1,0,,,,,,523652,,,,,,
53796,set_tempo,26,1,0,,,,,,520291,,,,,,
53822,set_tempo,26,1,0,,,,,,516974,,,,,,
53832,note_on,192,0,4,,,,,,,,0,,,77,0
53832,note_on,0,0,4,,,,,,,,0,,,70,0
53832,note_on,0,0,4,,,,,,,,0,,,73,0
53848,set_tempo,26,1,0,,,,,,513699,,,,,,
53856,note_on,0,0,2,,,,,,,,0,,,58,0
53856,note_on,0,0,2,,,,,,,,0,,,54,0
53856,note_on,576,0,2,,,,,,,,0,,,66,0
53875,set_tempo,27,1,0,,,,,,510465,,,,,,
53880,note_on,0,0,4,,,,,,,,0,,,75,72
53880,note_on,120,0,1,,,,,,,,0,,,54,72
53880,note_on,48,0,4,,,,,,,,0,,,70,72
53880,note_on,0,0,4,,,,,,,,0,,,66,72
53901,set_tempo,26,1,0,,,,,,507271,,,,,,
53927,set_tempo,26,1,0,,,,,,504117,,,,,,
53953,set_tempo,26,1,0,,,,,,501002,,,,,,
53976,note_on,0,0,4,,,,,,,,0,,,70,0
53976,note_on,96,0,1,,,,,,,,0,,,54,0
53976,note_on,0,0,4,,,,,,,,0,,,66,0
53976,note_on,96,0,4,,,,,,,,0,,,75,0
53976,note_on,0,0,1,,,,,,,,0,,,63,0
53979,set_tempo,26,1,0,,,,,,497925,,,,,,
54000,control_change,24,0,4,,,,,,,,0,64,0,,
54000,note_on,0,0,4,,,,,,,,0,,,49,72
54000,note_on,24,0,1,,,,,,,,0,,,62,72
54000,note_on,0,0,2,,,,,,,,0,,,53,72
54000,note_on,0,0,4,,,,,,,,0,,,37,72
54000,note_on,0,0,4,,,,,,,,0,,,47,72
54000,note_on,144,0,2,,,,,,,,0,,,56,72
54001,set_tempo,22,1,0,,,,,,494886,,,,,,
54014,set_tempo,13,1,0,,,,,,507271,,,,,,
54036,set_tempo,22,1,0,,,,,,510465,,,,,,
54058,set_tempo,22,1,0,,,,,,513699,,,,,,
54066,control_change,66,0,4,,,,,,,,0,64,127,,
54080,set_tempo,22,1,0,,,,,,516974,,,,,,
54096,note_on,96,0,1,,,,,,,,0,,,62,0
54102,set_tempo,22,1,0,,,,,,520291,,,,,,
54120,note_on,120,0,2,,,,,,,,0,,,59,72
54123,set_tempo,21,1,0,,,,,,523652,,,,,,
54141,set_tempo,18,1,0,,,,,,527056,,,,,,
54163,set_tempo,22,1,0,,,,,,530504,,,,,,
54184,set_tempo,21,1,0,,,,,,533998,,,,,,
54192,note_on,0,0,4,,,,,,,,0,,,37,0
54192,note_on,0,0,4,,,,,,,,0,,,49,0
54192,note_on,126,0,4,,,,,,,,0,,,47,0
54206,set_tempo,22,1,0,,,,,,537538,,,,,,
54228,set_tempo,22,1,0,,,,,,541126,,,,,,
54240,note_on,0,0,4,,,,,,,,0,,,71,72
54240,note_on,48,0,4,,,,,,,,0,,,74,72
54240,note_on,0,0,4,,,,,,,,0,,,68,72
54240,note_on,144,0,1,,,,,,,,0,,,62,72
54240,note_on,0,0,4,,,,,,,,0,,,65,72
54250,set_tempo,22,1,0,,,,,,544761,,,,,,
54272,set_tempo,22,1,0,,,,,,548446,,,,,,
54289,set_tempo,17,1,0,,,,,,552181,,,,,,
54311,set_tempo,22,1,0,,,,,,555967,,,,,,
54333,set_tempo,22,1,0,,,,,,559806,,,,,,
54336,note_on,96,0,1,,,,,,,,0,,,62,0
54355,set_tempo,22,1,0,,,,,,563698,,,,,,
54360,note_on,24,0,1,,,,,,,,0,,,61,72
54376,set_tempo,21,1,0,,,,,,567644,,,,,,
54398,set_tempo,22,1,0,,,,,,571646,,,,,,
54420,set_tempo,22,1,0,,,,,,575705,,,,,,
54438,set_tempo,18,1,0,,,,,,579822,,,,,,
54459,set_tempo,21,1,0,,,,,,583998,,,,,,
54480,note_on,120,0,1,,,,,,,,0,,,59,72
54481,set_tempo,22,1,0,,,,,,588235,,,,,,
54503,set_tempo,22,1,0,,,,,,592534,,,,,,
54525,set_tempo,22,1,0,,,,,,596896,,,,,,
54528,note_on,0,0,4,,,,,,,,0,,,65,0
54528,note_on,0,0,4,,,,,,,,0,,,71,0
54528,note_on,0,0,4,,,,,,,,0,,,74,0
54528,note_on,288,0,4,,,,,,,,0,,,68,0
54547,set_tempo,22,1,0,,,,,,601323,,,,,,
54568,set_tempo,21,1,0,,,,,,605816,,,,,,
54576,note_on,96,0,1,,,,,,,,0,,,59,0
54586,set_tempo,18,1,0,,,,,,610376,,,,,,
54600,note_on,0,0,4,,,,,,,,0,,,68,72
54600,note_on,24,0,1,,,,,,,,0,,,56,72
54600,note_on,0,0,4,,,,,,,,0,,,71,72
54600,note_on,72,0,4,,,,,,,,0,,,65,72
54600,note_on,0,0,4,,,,,,,,0,,,73,72
54608,set_tempo,22,1,0,,,,,,615006,,,,,,
54630,set_tempo,22,1,0,,,,,,619707,,,,,,
54651,set_tempo,21,1,0,,,,,,624480,,,,,,
54673,set_tempo,22,1,0,,,,,,629327,,,,,,
54695,set_tempo,22,1,0,,,,,,634249,,,,,,
54696,note_on,0,0,2,,,,,,,,0,,,53,0
54696,note_on,0,0,1,,,,,,,,0,,,61,0
54696,note_on,0,0,4,,,,,,,,0,,,71,0
54696,note_on,0,0,2,,,,,,,,0,,,56,0
54696,note_on,576,0,2,,,,,,,,0,,,59,0
54696,note_on,0,0,4,,,,,,,,0,,,65,0
54696,note_on,0,0,4,,,,,,,,0,,,68,0
54696,note_on,96,0,1,,,,,,,,0,,,56,0
54696,note_on,96,0,4,,,,,,,,0,,,73,0
54712,set_tempo,17,1,0,,,,,,639250,,,,,,
54720,note_on,0,0,4,,,,,,,,0,,,37,72
54720,note_on,0,0,4,,,,,,,,0,,,49,72
54720,note_on,24,0,2,,,,,,,,0,,,66,72
54720,note_on,0,0,4,,,,,,,,0,,,46,72
54720,control_change,24,0,4,,,,,,,,0,64,0,,
54720,note_on,0,0,2,,,,,,,,0,,,54,72
54720,note_on,0,0,2,,,,,,,,0,,,58,72
54739,set_tempo,27,1,0,,,,,,634249,,,,,,
54760,set_tempo,21,1,0,,,,,,629327,,,,,,
54782,set_tempo,22,1,0,,,,,,624480,,,,,,
54783,control_change,63,0,4,,,,,,,,0,64,127,,
54804,set_tempo,22,1,0,,,,,,619707,,,,,,
54826,set_tempo,22,1,0,,,,,,615006,,,,,,
54840,note_on,144,0,1,,,,,,,,0,,,54,72
54848,set_tempo,22,1,0,,,,,,610376,,,,,,
54870,set_tempo,22,1,0,,,,,,605816,,,,,,
54891,set_tempo,21,1,0,,,,,,601323,,,,,,
54912,note_on,0,0,4,,,,,,,,0,,,49,0
54912,note_on,0,0,4,,,,,,,,0,,,46,0
54912,note_on,129,0,4,,,,,,,,0,,,37,0
54913,set_tempo,22,1,0,,,,,,596896,,,,,,
54935,set_tempo,22,1,0,,,,,,592534,,,,,,
54936,note_on,96,0,1,,,,,,,,0,,,54,0
54960,note_on,0,0,4,,,,,,,,0,,,70,72
54960,note_on,24,0,1,,,,,,,,0,,,66,72
54960,note_on,0,0,4,,,,,,,,0,,,82,72
54960,note_on,48,0,4,,,,,,,,0,,,73,72
54961,set_tempo,26,1,0,,,,,,588235,,,,,,
54983,set_tempo,22,1,0,,,,,,583998,,,,,,
55005,set_tempo,22,1,0,,,,,,579822,,,,,,
55027,set_tempo,22,1,0,,,,,,575705,,,,,,
55048,set_tempo,21,1,0,,,,,,571646,,,,,,
55056,note_on,96,0,1,,,,,,,,0,,,66,0
55056,note_on,0,0,4,,,,,,,,0,,,73,0
55056,note_on,96,0,4,,,,,,,,0,,,82,0
55056,note_on,0,0,4,,,,,,,,0,,,70,0
55070,set_tempo,22,1,0,,,,,,567644,,,,,,
55080,note_on,24,0,4,,,,,,,,0,,,73,72
55080,note_on,0,0,4,,,,,,,,0,,,70,72
55080,note_on,0,0,4,,,,,,,,0,,,80,72
55080,note_on,24,0,1,,,,,,,,0,,,65,72
55092,set_tempo,22,1,0,,,,,,563698,,,,,,
55114,set_tempo,22,1,0,,,,,,559806,,,,,,
55136,set_tempo,22,1,0,,,,,,555967,,,,,,
55158,set_tempo,22,1,0,,,,,,552181,,,,,,
55176,note_on,96,0,1,,,,,,,,0,,,65,0
55179,set_tempo,21,1,0,,,,,,548446,,,,,,
55200,note_on,24,0,1,,,,,,,,0,,,63,72
55206,set_tempo,27,1,0,,,,,,544761,,,,,,
55227,set_tempo,21,1,0,,,,,,541126,,,,,,
55249,set_tempo,22,1,0,,,,,,537538,,,,,,
55271,set_tempo,22,1,0,,,,,,533998,,,,,,
55272,note_on,0,0,4,,,,,,,,0,,,73,0
55272,note_on,0,0,4,,,,,,,,0,,,80,0
55272,note_on,192,0,4,,,,,,,,0,,,70,0
55293,set_tempo,22,1,0,,,,,,530504,,,,,,
55296,note_on,0,0,2,,,,,,,,0,,,66,0
55296,note_on,0,0,2,,,,,,,,0,,,58,0
55296,note_on,576,0,2,,,,,,,,0,,,54,0
55315,set_tempo,22,1,0,,,,,,527056,,,,,,
55320,note_on,48,0,4,,,,,,,,0,,,66,72
55320,note_on,0,0,4,,,,,,,,0,,,70,72
55320,note_on,0,0,4,,,,,,,,0,,,78,72
55320,note_on,120,0,1,,,,,,,,0,,,54,72
55336,set_tempo,21,1,0,,,,,,523652,,,,,,
55358,set_tempo,22,1,0,,,,,,520291,,,,,,
55380,set_tempo,22,1,0,,,,,,516974,,,,,,
55402,set_tempo,22,1,0,,,,,,513699,,,,,,
55416,note_on,96,0,1,,,,,,,,0,,,54,0
55416,note_on,0,0,1,,,,,,,,0,,,63,0
55416,note_on,96,0,4,,,,,,,,0,,,78,0
55416,note_on,0,0,4,,,,,,,,0,,,66,0
55416,note_on,0,0,4,,,,,,,,0,,,70,0
55424,set_tempo,22,1,0,,,,,,510465,,,,,,
55440,note_on,0,0,4,,,,,,,,0,,,37,72
55440,note_on,144,0,2,,,,,,,,0,,,56,72
55440,note_on,0,0,2,,,,,,,,0,,,53,72
55440,note_on,24,0,1,,,,,,,,0,,,62,72
55440,note_on,0,0,4,,,,,,,,0,,,47,72
55440,control_change,24,0,4,,,,,,,,0,64,0,,
55440,note_on,0,0,4,,,,,,,,0,,,49,72
55503,control_change,63,0,4,,,,,,,,0,64,127,,
55536,note_on,96,0,1,,,,,,,,0,,,62,0
55560,note_on,120,0,2,,,,,,,,0,,,59,72
55632,note_on,129,0,4,,,,,,,,0,,,47,0
55632,note_on,0,0,4,,,,,,,,0,,,49,0
55632,note_on,0,0,4,,,,,,,,0,,,37,0
55680,note_on,0,0,4,,,,,,,,0,,,68,72
55680,note_on,48,0,4,,,,,,,,0,,,74,72
55680,note_on,0,0,4,,,,,,,,0,,,71,72
55680,note_on,0,0,4,,,,,,,,0,,,77,72
55680,note_on,144,0,1,,,,,,,,0,,,62,72
55776,note_on,96,0,1,,,,,,,,0,,,62,0
55800,note_on,24,0,1,,,,,,,,0,,,61,72
55920,note_on,120,0,1,,,,,,,,0,,,59,72
55968,note_on,288,0,4,,,,,,,,0,,,77,0
55968,note_on,0,0,4,,,,,,,,0,,,74,0
55968,note_on,0,0,4,,,,,,,,0,,,68,0
55968,note_on,0,0,4,,,,,,,,0,,,71,0
56016,note_on,96,0,1,,,,,,,,0,,,59,0
56040,note_on,0,0,4,,,,,,,,0,,,68,72
56040,note_on,0,0,4,,,,,,,,0,,,73,72
56040,note_on,24,0,1,,,,,,,,0,,,56,72
56040,note_on,0,0,4,,,,,,,,0,,,77,72
56040,note_on,72,0,4,,,,,,,,0,,,71,72
56136,note_on,96,0,4,,,,,,,,0,,,73,0
56136,note_on,96,0,1,,,,,,,,0,,,56,0
56136,note_on,0,0,1,,,,,,,,0,,,61,0
56136,note_on,0,0,4,,,,,,,,0,,,68,0
56136,note_on,0,0,4,,,,,,,,0,,,77,0
56136,note_on,576,0,2,,,,,,,,0,,,59,0
56136,note_on,0,0,4,,,,,,,,0,,,71,0
56136,note_on,0,0,2,,,,,,,,0,,,56,0
56136,note_on,0,0,2,,,,,,,,0,,,53,0
56154,set_tempo,730,1,0,,,,,,504117,,,,,,
56160,note_on,24,0,4,,,,,,,,0,,,53,72
56189,set_tempo,35,1,0,,,,,,507271,,,,,,
56224,set_tempo,35,1,0,,,,,,510465,,,,,,
56256,note_on,96,0,4,,,,,,,,0,,,53,0
56258,set_tempo,34,1,0,,,,,,513699,,,,,,
56280,note_on,24,0,4,,,,,,,,0,,,50,72
56293,set_tempo,35,1,0,,,,,,516974,,,,,,
56328,set_tempo,35,1,0,,,,,,520291,,,,,,
56363,set_tempo,35,1,0,,,,,,523652,,,,,,
56376,note_on,96,0,4,,,,,,,,0,,,50,0
56398,set_tempo,35,1,0,,,,,,527056,,,,,,
56400,note_on,24,0,4,,,,,,,,0,,,53,72
56433,set_tempo,35,1,0,,,,,,530504,,,,,,
56464,set_tempo,31,1,0,,,,,,533998,,,,,,
56496,note_on,96,0,4,,,,,,,,0,,,53,0
56498,set_tempo,34,1,0,,,,,,537538,,,,,,
56520,note_on,24,0,4,,,,,,,,0,,,49,72
56533,set_tempo,35,1,0,,,,,,541126,,,,,,
56568,set_tempo,35,1,0,,,,,,544761,,,,,,
56571,control_change,51,0,4,,,,,,,,0,64,0,,
56603,set_tempo,35,1,0,,,,,,548446,,,,,,
56616,note_on,45,0,4,,,,,,,,0,,,49,0
56638,set_tempo,35,1,0,,,,,,552181,,,,,,
56640,note_on,24,0,4,,,,,,,,0,,,47,72
56653,control_change,13,0,4,,,,,,,,0,64,127,,
56673,set_tempo,35,1,0,,,,,,555967,,,,,,
56708,set_tempo,35,1,0,,,,,,559806,,,,,,
56736,note_on,83,0,4,,,,,,,,0,,,47,0
56738,set_tempo,30,1,0,,,,,,563698,,,,,,
56760,note_on,24,0,4,,,,,,,,0,,,44,72
56773,set_tempo,35,1,0,,,,,,567644,,,,,,
56808,set_tempo,35,1,0,,,,,,571646,,,,,,
56843,set_tempo,35,1,0,,,,,,575705,,,,,,
56856,note_on,96,0,4,,,,,,,,0,,,44,0
56878,set_tempo,35,1,0,,,,,,579822,,,,,,
56880,control_change,24,0,4,,,,,,,,0,64,0,,
56880,note_on,0,0,4,,,,,,,,0,,,50,72
56913,set_tempo,35,1,0,,,,,,583998,,,,,,
56948,set_tempo,35,1,0,,,,,,588235,,,,,,
56966,control_change,86,0,4,,,,,,,,0,64,127,,
56983,set_tempo,35,1,0,,,,,,592534,,,,,,
57000,note_on,34,0,4,,,,,,,,0,,,47,72
57013,set_tempo,30,1,0,,,,,,596896,,,,,,
57048,set_tempo,35,1,0,,,,,,601323,,,,,,
57083,set_tempo,35,1,0,,,,,,605816,,,,,,
57096,note_on,96,0,4,,,,,,,,0,,,47,0
57096,note_on,0,0,4,,,,,,,,0,,,50,0
57118,set_tempo,35,1,0,,,,,,610376,,,,,,
57120,note_on,24,0,4,,,,,,,,0,,,50,72
57153,set_tempo,35,1,0,,,,,,615006,,,,,,
57188,set_tempo,35,1,0,,,,,,619707,,,,,,
57216,note_on,96,0,4,,,,,,,,0,,,50,0
57223,set_tempo,35,1,0,,,,,,624480,,,,,,
57240,note_on,24,0,4,,,,,,,,0,,,49,72
57258,set_tempo,35,1,0,,,,,,629327,,,,,,
57293,set_tempo,35,1,0,,,,,,634249,,,,,,
57323,set_tempo,30,1,0,,,,,,639250,,,,,,
57336,note_on,96,0,4,,,,,,,,0,,,49,0
57358,set_tempo,35,1,0,,,,,,644330,,,,,,
57360,note_on,24,0,4,,,,,,,,0,,,47,72
57393,set_tempo,35,1,0,,,,,,649491,,,,,,
57428,set_tempo,35,1,0,,,,,,654736,,,,,,
57456,note_on,96,0,4,,,,,,,,0,,,47,0
57463,set_tempo,35,1,0,,,,,,660066,,,,,,
57480,note_on,24,0,4,,,,,,,,0,,,44,72
57498,set_tempo,35,1,0,,,,,,665484,,,,,,
57533,set_tempo,35,1,0,,,,,,670991,,,,,,
57568,set_tempo,35,1,0,,,,,,676590,,,,,,
57576,note_on,96,0,4,,,,,,,,0,,,44,0
57598,set_tempo,30,1,0,,,,,,682283,,,,,,
57600,note_on,0,0,4,,,,,,,,0,,,41,72
57600,control_change,24,0,4,,,,,,,,0,64,0,,
57633,set_tempo,35,1,0,,,,,,688073,,,,,,
57668,set_tempo,35,1,0,,,,,,693963,,,,,,
57687,control_change,87,0,4,,,,,,,,0,64,127,,
57696,note_on,9,0,4,,,,,,,,0,,,41,0
57703,set_tempo,35,1,0,,,,,,699953,,,,,,
57720,note_on,24,0,4,,,,,,,,0,,,38,72
57738,set_tempo,35,1,0,,,,,,706048,,,,,,
57773,set_tempo,35,1,0,,,,,,712251,,,,,,
57808,set_tempo,35,1,0,,,,,,718563,,,,,,
57840,note_on,120,0,4,,,,,,,,0,,,41,72
57842,set_tempo,34,1,0,,,,,,724988,,,,,,
57873,set_tempo,31,1,0,,,,,,731529,,,,,,
57908,set_tempo,35,1,0,,,,,,738189,,,,,,
57936,note_on,96,0,4,,,,,,,,0,,,41,0
57936,note_on,0,0,4,,,,,,,,0,,,38,0
57943,set_tempo,35,1,0,,,,,,744971,,,,,,
57960,note_on,24,0,4,,,,,,,,0,,,37,72
57978,set_tempo,35,1,0,,,,,,751880,,,,,,
58013,set_tempo,35,1,0,,,,,,758917,,,,,,
58048,set_tempo,35,1,0,,,,,,766088,,,,,,
58080,note_on,120,0,4,,,,,,,,0,,,35,72
58082,set_tempo,34,1,0,,,,,,773395,,,,,,
58117,set_tempo,35,1,0,,,,,,780843,,,,,,
58148,set_tempo,31,1,0,,,,,,788436,,,,,,
58176,note_on,96,0,4,,,,,,,,0,,,35,0
58176,note_on,0,0,4,,,,,,,,0,,,37,0
58200,note_on,24,0,4,,,,,,,,0,,,41,72
58296,note_on,96,0,4,,,,,,,,0,,,41,0
58309,set_tempo,161,1,0,,,,,,504117,,,,,,
58313,set_tempo,4,1,0,,,,,,471846,,,,,,
58320,note_on,0,0,2,,,,,,,,0,,,77,80
58320,note_on,18024,0,3,,,,,,,,0,,,48,80
58320,note_on,0,0,4,,,,,,,,0,,,36,80
58320,note_on,0,0,2,,,,,,,,0,,,69,80
58320,note_on,2184,0,2,,,,,,,,0,,,81,80
58320,control_change,24,0,4,,,,,,,,0,64,0,,
58352,control_change,32,0,4,,,,,,,,0,64,127,,
58416,note_on,0,0,2,,,,,,,,0,,,81,0
58416,note_on,0,0,2,,,,,,,,0,,,77,0
58416,note_on,96,0,2,,,,,,,,0,,,69,0
58416,note_on,96,0,3,,,,,,,,0,,,48,0
58440,note_on,24,0,3,,,,,,,,0,,,53,80
58500,note_on,84,0,2,,,,,,,,0,,,72,80
58500,note_on,0,0,2,,,,,,,,0,,,69,80
58512,note_on,160,0,4,,,,,,,,0,,,36,0
58536,note_on,96,0,3,,,,,,,,0,,,53,0
58560,note_on,24,0,3,,,,,,,,0,,,60,80
58596,note_on,96,0,2,,,,,,,,0,,,69,0
58596,note_on,0,0,2,,,,,,,,0,,,72,0
58620,note_on,24,0,2,,,,,,,,0,,,81,80
58620,note_on,0,0,2,,,,,,,,0,,,77,80
58620,note_on,0,0,2,,,,,,,,0,,,69,80
58656,note_on,96,0,3,,,,,,,,0,,,60,0
58680,note_on,24,0,3,,,,,,,,0,,,61,80
58716,note_on,96,0,2,,,,,,,,0,,,69,0
58716,note_on,0,0,2,,,,,,,,0,,,81,0
58716,note_on,0,0,2,,,,,,,,0,,,77,0
58740,note_on,0,0,2,,,,,,,,0,,,79,80
58740,note_on,0,0,2,,,,,,,,0,,,70,80
58740,note_on,24,0,2,,,,,,,,0,,,76,80
58776,note_on,96,0,3,,,,,,,,0,,,61,0
58800,note_on,24,0,3,,,,,,,,0,,,62,80
58836,note_on,96,0,2,,,,,,,,0,,,79,0
58836,note_on,0,0,2,,,,,,,,0,,,76,0
58836,note_on,0,0,2,,,,,,,,0,,,70,0
58860,note_on,24,0,2,,,,,,,,0,,,70,80
58860,note_on,0,0,2,,,,,,,,0,,,77,80
58896,note_on,96,0,3,,,,,,,,0,,,62,0
58920,note_on,24,0,3,,,,,,,,0,,,62,80
58956,note_on,0,0,2,,,,,,,,0,,,70,0
58956,note_on,96,0,2,,,,,,,,0,,,77,0
58980,note_on,24,0,2,,,,,,,,0,,,70,80
58980,note_on,0,0,2,,,,,,,,0,,,65,80
59016,note_on,96,0,3,,,,,,,,0,,,62,0
59028,note_on,0,0,2,,,,,,,,0,,,70,0
59028,note_on,48,0,2,,,,,,,,0,,,65,0
59040,note_on,0,0,3,,,,,,,,0,,,62,80
59040,note_on,0,0,3,,,,,,,,0,,,65,80
59040,note_on,24,0,3,,,,,,,,0,,,59,80
59044,set_tempo,731,1,0,,,,,,474608,,,,,,
59070,set_tempo,26,1,0,,,,,,477403,,,,,,
59092,set_tempo,22,1,0,,,,,,480231,,,,,,
59100,note_on,0,0,2,,,,,,,,0,,,74,80
59100,note_on,72,0,2,,,,,,,,0,,,77,80
59100,note_on,0,0,2,,,,,,,,0,,,68,80
59114,set_tempo,22,1,0,,,,,,483092,,,,,,
59135,set_tempo,21,1,0,,,,,,485987,,,,,,
59136,note_on,96,0,3,,,,,,,,0,,,62,0
59136,note_on,0,0,3,,,,,,,,0,,,65,0
59136,note_on,0,0,3,,,,,,,,0,,,59,0
59157,set_tempo,22,1,0,,,,,,488918,,,,,,
59160,note_on,0,0,3,,,,,,,,0,,,64,80
59160,note_on,24,0,3,,,,,,,,0,,,60,80
59179,set_tempo,22,1,0,,,,,,491884,,,,,,
59196,note_on,0,0,2,,,,,,,,0,,,77,0
59196,note_on,96,0,2,,,,,,,,0,,,68,0
59196,note_on,0,0,2,,,,,,,,0,,,74,0
59205,set_tempo,26,1,0,,,,,,494886,,,,,,
59220,note_on,0,0,2,,,,,,,,0,,,76,80
59220,note_on,24,0,2,,,,,,,,0,,,69,80
59220,note_on,0,0,2,,,,,,,,0,,,72,80
59227,set_tempo,22,1,0,,,,,,497925,,,,,,
59249,set_tempo,22,1,0,,,,,,501002,,,,,,
59256,note_on,96,0,3,,,,,,,,0,,,64,0
59256,note_on,0,0,3,,,,,,,,0,,,60,0
59271,set_tempo,22,1,0,,,,,,504117,,,,,,
59280,note_on,0,0,3,,,,,,,,0,,,56,80
59280,note_on,0,0,3,,,,,,,,0,,,59,80
59280,note_on,24,0,3,,,,,,,,0,,,53,80
59280,note_on,0,0,3,,,,,,,,0,,,62,80
59292,set_tempo,21,1,0,,,,,,507271,,,,,,
59314,set_tempo,22,1,0,,,,,,510465,,,,,,
59316,note_on,0,0,2,,,,,,,,0,,,72,0
59316,note_on,0,0,2,,,,,,,,0,,,69,0
59316,note_on,96,0,2,,,,,,,,0,,,76,0
59340,set_tempo,26,1,0,,,,,,513699,,,,,,
59340,note_on,24,0,2,,,,,,,,0,,,71,80
59340,note_on,0,0,2,,,,,,,,0,,,65,80
59340,note_on,0,0,2,,,,,,,,0,,,74,80
59340,note_on,0,0,2,,,,,,,,0,,,68,80
59362,set_tempo,22,1,0,,,,,,516974,,,,,,
59376,note_on,96,0,3,,,,,,,,0,,,56,0
59384,set_tempo,22,1,0,,,,,,520291,,,,,,
59400,note_on,24,0,3,,,,,,,,0,,,55,80
59406,set_tempo,22,1,0,,,,,,523652,,,,,,
59428,set_tempo,22,1,0,,,,,,527056,,,,,,
59436,note_on,96,0,2,,,,,,,,0,,,68,0
59450,set_tempo,22,1,0,,,,,,530504,,,,,,
59460,note_on,24,0,2,,,,,,,,0,,,67,80
59476,set_tempo,26,1,0,,,,,,533998,,,,,,
59496,note_on,0,0,3,,,,,,,,0,,,62,0
59496,note_on,0,0,3,,,,,,,,0,,,53,0
59496,note_on,96,0,3,,,,,,,,0,,,55,0
59496,note_on,0,0,3,,,,,,,,0,,,59,0
59498,set_tempo,22,1,0,,,,,,537538,,,,,,
59519,set_tempo,21,1,0,,,,,,541126,,,,,,
59520,note_on,0,0,3,,,,,,,,0,,,49,80
59520,note_on,24,0,3,,,,,,,,0,,,55,80
59520,note_on,0,0,3,,,,,,,,0,,,58,80
59541,set_tempo,22,1,0,,,,,,544761,,,,,,
59556,note_on,0,0,2,,,,,,,,0,,,65,0
59556,note_on,96,0,2,,,,,,,,0,,,67,0
59556,note_on,0,0,2,,,,,,,,0,,,71,0
59556,note_on,0,0,2,,,,,,,,0,,,74,0
59563,set_tempo,22,1,0,,,,,,548446,,,,,,
59580,note_on,0,0,2,,,,,,,,0,,,61,80
59580,note_on,24,0,2,,,,,,,,0,,,73,80
59580,note_on,0,0,2,,,,,,,,0,,,64,80
59585,set_tempo,22,1,0,,,,,,552181,,,,,,
59611,set_tempo,26,1,0,,,,,,555967,,,,,,
59616,note_on,96,0,3,,,,,,,,0,,,49,0
59633,set_tempo,22,1,0,,,,,,559806,,,,,,
59640,note_on,24,0,3,,,,,,,,0,,,48,80
59655,set_tempo,22,1,0,,,,,,563698,,,,,,
59676,note_on,0,0,2,,,,,,,,0,,,61,0
59676,note_on,0,0,2,,,,,,,,0,,,73,0
59676,set_tempo,21,1,0,,,,,,567644,,,,,,
59676,note_on,96,0,2,,,,,,,,0,,,64,0
59698,set_tempo,22,1,0,,,,,,571646,,,,,,
59700,note_on,24,0,2,,,,,,,,0,,,60,80
59700,note_on,0,0,2,,,,,,,,0,,,64,80
59700,note_on,0,0,2,,,,,,,,0,,,72,80
59720,set_tempo,22,1,0,,,,,,575705,,,,,,
59736,note_on,0,0,3,,,,,,,,0,,,55,0
59736,note_on,96,0,3,,,,,,,,0,,,48,0
59736,note_on,0,0,3,,,,,,,,0,,,58,0
59742,set_tempo,22,1,0,,,,,,579822,,,,,,
59746,set_tempo,4,1,0,,,,,,477403,,,,,,
59748,note_on,0,0,2,,,,,,,,0,,,60,0
59748,note_on,0,0,2,,,,,,,,0,,,64,0
59748,note_on,48,0,2,,,,,,,,0,,,72,0
59760,note_on,0,0,2,,,,,,,,0,,,81,80
59760,note_on,0,0,2,,,,,,,,0,,,69,80
59760,note_on,0,0,4,,,,,,,,0,,,36,80
59760,note_on,12,0,2,,,,,,,,0,,,77,80
59760,control_change,1248,0,4,,,,,,,,0,64,0,,
59760,note_on,24,0,3,,,,,,,,0,,,48,80
59788,control_change,28,0,4,,,,,,,,0,64,127,,
59856,note_on,96,0,3,,,,,,,,0,,,48,0
59856,note_on,96,0,2,,,,,,,,0,,,81,0
59856,note_on,0,0,2,,,,,,,,0,,,69,0
59856,note_on,0,0,2,,,,,,,,0,,,77,0
59880,note_on,24,0,3,,,,,,,,0,,,53,80
59940,note_on,0,0,2,,,,,,,,0,,,72,80
59940,note_on,84,0,2,,,,,,,,0,,,69,80
59952,note_on,164,0,4,,,,,,,,0,,,36,0
59976,note_on,96,0,3,,,,,,,,0,,,53,0
60000,note_on,24,0,3,,,,,,,,0,,,60,80
60036,note_on,96,0,2,,,,,,,,0,,,72,0
60036,note_on,0,0,2,,,,,,,,0,,,69,0
60060,note_on,0,0,2,,,,,,,,0,,,81,80
60060,note_on,24,0,2,,,,,,,,0,,,69,80
60060,note_on,0,0,2,,,,,,,,0,,,77,80
60096,note_on,96,0,3,,,,,,,,0,,,60,0
60120,note_on,24,0,3,,,,,,,,0,,,61,80
60139,set_tempo,393,1,0,,,,,,477403,,,,,,
60156,note_on,0,0,2,,,,,,,,0,,,77,0
60156,note_on,0,0,2,,,,,,,,0,,,69,0
60156,note_on,96,0,2,,,,,,,,0,,,81,0
60180,note_on,24,0,2,,,,,,,,0,,,76,80
60180,note_on,0,0,2,,,,,,,,0,,,79,80
60180,note_on,0,0,2,,,,,,,,0,,,70,80
60216,note_on,96,0,3,,,,,,,,0,,,61,0
60240,note_on,24,0,3,,,,,,,,0,,,62,80
60276,note_on,0,0,2,,,,,,,,0,,,70,0
60276,note_on,0,0,2,,,,,,,,0,,,76,0
60276,note_on,96,0,2,,,,,,,,0,,,79,0
60300,note_on,0,0,2,,,,,,,,0,,,77,80
60300,note_on,24,0,2,,,,,,,,0,,,70,80
60336,note_on,96,0,3,,,,,,,,0,,,62,0
60360,note_on,24,0,3,,,,,,,,0,,,62,80
60396,note_on,0,0,2,,,,,,,,0,,,70,0
60396,note_on,96,0,2,,,,,,,,0,,,77,0
60420,note_on,0,0,2,,,,,,,,0,,,65,80
60420,note_on,24,0,2,,,,,,,,0,,,70,80
60456,note_on,96,0,3,,,,,,,,0,,,62,0
60468,note_on,0,0,2,,,,,,,,0,,,70,0
60468,note_on,48,0,2,,,,,,,,0,,,65,0
60471,set_tempo,332,1,0,,,,,,477403,,,,,,
60480,note_on,0,0,3,,,,,,,,0,,,62,80
60480,note_on,24,0,3,,,,,,,,0,,,59,80
60480,note_on,0,0,3,,,,,,,,0,,,65,80
60497,set_tempo,26,1,0,,,,,,480231,,,,,,
60519,set_tempo,22,1,0,,,,,,483092,,,,,,
60540,note_on,0,0,2,,,,,,,,0,,,68,80
60540,note_on,0,0,2,,,,,,,,0,,,74,80
60540,note_on,72,0,2,,,,,,,,0,,,77,80
60545,set_tempo,26,1,0,,,,,,485987,,,,,,
60567,set_tempo,22,1,0,,,,,,488918,,,,,,
60576,note_on,0,0,3,,,,,,,,0,,,59,0
60576,note_on,0,0,3,,,,,,,,0,,,62,0
60576,note_on,96,0,3,,,,,,,,0,,,65,0
60588,set_tempo,21,1,0,,,,,,491884,,,,,,
60600,note_on,24,0,3,,,,,,,,0,,,60,80
60600,note_on,0,0,3,,,,,,,,0,,,64,80
60615,set_tempo,27,1,0,,,,,,494886,,,,,,
60636,note_on,0,0,2,,,,,,,,0,,,74,0
60636,note_on,0,0,2,,,,,,,,0,,,77,0
60636,set_tempo,21,1,0,,,,,,497925,,,,,,
60636,note_on,96,0,2,,,,,,,,0,,,68,0
60660,note_on,0,0,2,,,,,,,,0,,,72,80
60660,note_on,0,0,2,,,,,,,,0,,,69,80
60660,note_on,24,0,2,,,,,,,,0,,,76,80
60663,set_tempo,27,1,0,,,,,,501002,,,,,,
60684,set_tempo,21,1,0,,,,,,504117,,,,,,
60696,note_on,0,0,3,,,,,,,,0,,,60,0
60696,note_on,96,0,3,,,,,,,,0,,,64,0
60706,set_tempo,22,1,0,,,,,,507271,,,,,,
60720,note_on,24,0,3,,,,,,,,0,,,53,80
60720,note_on,0,0,3,,,,,,,,0,,,59,80
60720,note_on,0,0,3,,,,,,,,0,,,62,80
60720,note_on,0,0,3,,,,,,,,0,,,56,80
60732,set_tempo,26,1,0,,,,,,510465,,,,,,
60754,set_tempo,22,1,0,,,,,,513699,,,,,,
60756,note_on,0,0,2,,,,,,,,0,,,76,0
60756,note_on,0,0,2,,,,,,,,0,,,72,0
60756,note_on,96,0,2,,,,,,,,0,,,69,0
60780,set_tempo,26,1,0,,,,,,516974,,,,,,
60780,note_on,0,0,2,,,,,,,,0,,,65,80
60780,note_on,24,0,2,,,,,,,,0,,,68,80
60780,note_on,0,0,2,,,,,,,,0,,,74,80
60780,note_on,0,0,2,,,,,,,,0,,,71,80
60802,set_tempo,22,1,0,,,,,,520291,,,,,,
60816,note_on,96,0,3,,,,,,,,0,,,56,0
60824,set_tempo,22,1,0,,,,,,523652,,,,,,
60840,note_on,24,0,3,,,,,,,,0,,,55,80
60850,set_tempo,26,1,0,,,,,,527056,,,,,,
60872,set_tempo,22,1,0,,,,,,530504,,,,,,
60876,note_on,96,0,2,,,,,,,,0,,,68,0
60894,set_tempo,22,1,0,,,,,,533998,,,,,,
60900,note_on,24,0,2,,,,,,,,0,,,67,80
60920,set_tempo,26,1,0,,,,,,537538,,,,,,
60936,note_on,0,0,3,,,,,,,,0,,,53,0
60936,note_on,96,0,3,,,,,,,,0,,,55,0
60936,note_on,0,0,3,,,,,,,,0,,,62,0
60936,note_on,0,0,3,,,,,,,,0,,,59,0
60942,set_tempo,22,1,0,,,,,,541126,,,,,,
60960,note_on,0,0,3,,,,,,,,0,,,49,80
60960,note_on,0,0,3,,,,,,,,0,,,58,80
60960,note_on,24,0,3,,,,,,,,0,,,55,80
60968,set_tempo,26,1,0,,,,,,544761,,,,,,
60990,set_tempo,22,1,0,,,,,,548446,,,,,,
60996,note_on,0,0,2,,,,,,,,0,,,65,0
60996,note_on,96,0,2,,,,,,,,0,,,67,0
60996,note_on,0,0,2,,,,,,,,0,,,74,0
60996,note_on,0,0,2,,,,,,,,0,,,71,0
61012,set_tempo,22,1,0,,,,,,552181,,,,,,
61020,note_on,0,0,2,,,,,,,,0,,,64,80
61020,note_on,24,0,2,,,,,,,,0,,,73,80
61020,note_on,0,0,2,,,,,,,,0,,,61,80
61038,set_tempo,26,1,0,,,,,,555967,,,,,,
61056,note_on,96,0,3,,,,,,,,0,,,49,0
61060,set_tempo,22,1,0,,,,,,559806,,,,,,
61080,note_on,24,0,3,,,,,,,,0,,,48,80
61086,set_tempo,26,1,0,,,,,,563698,,,,,,
61108,set_tempo,22,1,0,,,,,,567644,,,,,,
61116,note_on,0,0,2,,,,,,,,0,,,73,0
61116,note_on,0,0,2,,,,,,,,0,,,61,0
61116,note_on,96,0,2,,,,,,,,0,,,64,0
61130,set_tempo,22,1,0,,,,,,571646,,,,,,
61140,note_on,24,0,2,,,,,,,,0,,,60,80
61140,note_on,0,0,2,,,,,,,,0,,,72,80
61140,note_on,0,0,2,,,,,,,,0,,,64,80
61156,set_tempo,26,1,0,,,,,,575705,,,,,,
61176,note_on,0,0,3,,,,,,,,0,,,55,0
61176,note_on,96,0,3,,,,,,,,0,,,48,0
61176,note_on,0,0,3,,,,,,,,0,,,58,0
61178,set_tempo,22,1,0,,,,,,579822,,,,,,
61188,note_on,0,0,2,,,,,,,,0,,,64,0
61188,note_on,0,0,2,,,,,,,,0,,,60,0
61188,note_on,48,0,2,,,,,,,,0,,,72,0
61192,set_tempo,14,1,0,,,,,,491884,,,,,,
61200,control_change,1248,0,4,,,,,,,,0,64,0,,
61200,note_on,0,0,2,,,,,,,,0,,,69,80
61200,note_on,0,0,2,,,,,,,,0,,,77,80
61200,note_on,12,0,2,,,,,,,,0,,,81,80
61200,note_on,24,0,3,,,,,,,,0,,,48,80
61200,note_on,0,0,4,,,,,,,,0,,,36,80
61232,control_change,32,0,4,,,,,,,,0,64,127,,
61296,note_on,96,0,3,,,,,,,,0,,,48,0
61296,note_on,96,0,2,,,,,,,,0,,,69,0
61296,note_on,0,0,2,,,,,,,,0,,,81,0
61296,note_on,0,0,2,,,,,,,,0,,,77,0
61296,note_on,64,0,4,,,,,,,,0,,,36,0
61320,note_on,24,0,3,,,,,,,,0,,,53,82
61328,set_tempo,136,1,0,,,,,,488918,,,,,,
61380,note_on,84,0,2,,,,,,,,0,,,69,83
61380,note_on,0,0,2,,,,,,,,0,,,72,83
61416,note_on,96,0,3,,,,,,,,0,,,53,0
61440,note_on,24,0,3,,,,,,,,0,,,60,84
61458,set_tempo,130,1,0,,,,,,485987,,,,,,
61476,note_on,0,0,2,,,,,,,,0,,,69,0
61476,note_on,96,0,2,,,,,,,,0,,,72,0
61500,note_on,0,0,2,,,,,,,,0,,,69,85
61500,note_on,0,0,2,,,,,,,,0,,,81,85
61500,note_on,24,0,2,,,,,,,,0,,,77,85
61536,note_on,96,0,3,,,,,,,,0,,,60,0
61560,note_on,24,0,3,,,,,,,,0,,,61,86
61589,set_tempo,131,1,0,,,,,,483092,,,,,,
61596,note_on,0,0,2,,,,,,,,0,,,77,0
61596,note_on,0,0,2,,,,,,,,0,,,81,0
61596,note_on,96,0,2,,,,,,,,0,,,69,0
61620,note_on,24,0,2,,,,,,,,0,,,76,87
61620,note_on,0,0,2,,,,,,,,0,,,79,87
61620,note_on,0,0,2,,,,,,,,0,,,70,87
61656,note_on,96,0,3,,,,,,,,0,,,61,0
61680,note_on,24,0,3,,,,,,,,0,,,62,88
61716,note_on,0,0,2,,,,,,,,0,,,79,0
61716,note_on,96,0,2,,,,,,,,0,,,70,0
61716,note_on,0,0,2,,,,,,,,0,,,76,0
61720,set_tempo,131,1,0,,,,,,480231,,,,,,
61740,note_on,24,0,2,,,,,,,,0,,,74,89
61740,note_on,0,0,2,,,,,,,,0,,,77,89
61740,note_on,0,0,2,,,,,,,,0,,,70,89
61776,note_on,96,0,3,,,,,,,,0,,,62,0
61800,note_on,24,0,3,,,,,,,,0,,,65,90
61800,note_on,0,0,3,,,,,,,,0,,,62,90
61836,note_on,0,0,2,,,,,,,,0,,,74,0
61836,note_on,0,0,2,,,,,,,,0,,,70,0
61836,note_on,96,0,2,,,,,,,,0,,,77,0
61851,set_tempo,131,1,0,,,,,,477403,,,,,,
61860,note_on,0,0,2,,,,,,,,0,,,74,91
61860,note_on,24,0,2,,,,,,,,0,,,70,91
61890,note_on,594,0,4,,,,,,,,0,,,36,91
61896,note_on,0,0,3,,,,,,,,0,,,65,0
61896,note_on,96,0,3,,,,,,,,0,,,62,0
61908,note_on,0,0,2,,,,,,,,0,,,70,0
61908,note_on,48,0,2,,,,,,,,0,,,74,0
61920,note_on,0,0,2,,,,,,,,0,,,70,92
61920,note_on,0,0,2,,,,,,,,0,,,79,92
61920,note_on,24,0,3,,,,,,,,0,,,50,92
61920,note_on,12,0,2,,,,,,,,0,,,82,92
61927,control_change,37,0,4,,,,,,,,0,64,0,,
61952,control_change,25,0,4,,,,,,,,0,64,127,,
61982,set_tempo,131,1,0,,,,,,474608,,,,,,
62016,note_on,0,0,2,,,,,,,,0,,,82,0
62016,note_on,64,0,4,,,,,,,,0,,,36,0
62016,note_on,96,0,3,,,,,,,,0,,,50,0
62016,note_on,96,0,2,,,,,,,,0,,,70,0
62016,note_on,0,0,2,,,,,,,,0,,,79,0
62040,note_on,24,0,3,,,,,,,,0,,,55,94
62100,note_on,84,0,2,,,,,,,,0,,,70,95
62100,note_on,0,0,2,,,,,,,,0,,,74,95
62113,set_tempo,131,1,0,,,,,,471846,,,,,,
62136,note_on,96,0,3,,,,,,,,0,,,55,0
62160,note_on,24,0,3,,,,,,,,0,,,62,96
62196,note_on,96,0,2,,,,,,,,0,,,74,0
62196,note_on,0,0,2,,,,,,,,0,,,70,0
62220,note_on,24,0,2,,,,,,,,0,,,82,97
62220,note_on,0,0,2,,,,,,,,0,,,79,97
62220,note_on,0,0,2,,,,,,,,0,,,70,97
62248,set_tempo,135,1,0,,,,,,469116,,,,,,
62256,note_on,96,0,3,,,,,,,,0,,,62,0
62280,note_on,24,0,3,,,,,,,,0,,,66,98
62316,note_on,96,0,2,,,,,,,,0,,,70,0
62316,note_on,0,0,2,,,,,,,,0,,,82,0
62316,note_on,0,0,2,,,,,,,,0,,,79,0
62340,note_on,0,0,2,,,,,,,,0,,,75,99
62340,note_on,0,0,2,,,,,,,,0,,,72,99
62340,note_on,24,0,2,,,,,,,,0,,,81,99
62376,note_on,96,0,3,,,,,,,,0,,,66,0
62379,set_tempo,131,1,0,,,,,,466418,,,,,,
62400,note_on,24,0,3,,,,,,,,0,,,67,100
62436,note_on,96,0,2,,,,,,,,0,,,72,0
62436,note_on,0,0,2,,,,,,,,0,,,75,0
62436,note_on,0,0,2,,,,,,,,0,,,81,0
62460,note_on,0,0,2,,,,,,,,0,,,74,101
62460,note_on,0,0,2,,,,,,,,0,,,70,101
62460,note_on,24,0,2,,,,,,,,0,,,79,101
62496,note_on,96,0,3,,,,,,,,0,,,67,0
62510,set_tempo,131,1,0,,,,,,463750,,,,,,
62520,note_on,24,0,3,,,,,,,,0,,,67,102
62520,note_on,0,0,3,,,,,,,,0,,,62,102
62556,note_on,0,0,2,,,,,,,,0,,,70,0
62556,note_on,0,0,2,,,,,,,,0,,,79,0
62556,note_on,96,0,2,,,,,,,,0,,,74,0
62580,note_on,0,0,2,,,,,,,,0,,,74,103
62580,note_on,24,0,2,,,,,,,,0,,,70,103
62610,note_on,594,0,4,,,,,,,,0,,,36,103
62616,note_on,96,0,3,,,,,,,,0,,,62,0
62616,note_on,0,0,3,,,,,,,,0,,,67,0
62628,note_on,48,0,2,,,,,,,,0,,,74,0
62628,note_on,0,0,2,,,,,,,,0,,,70,0
62640,note_on,12,0,2,,,,,,,,0,,,84,104
62640,note_on,24,0,3,,,,,,,,0,,,52,104
62640,note_on,0,0,2,,,,,,,,0,,,72,104
62640,control_change,30,0,4,,,,,,,,0,64,0,,
62640,note_on,0,0,2,,,,,,,,0,,,81,104
62641,set_tempo,131,1,0,,,,,,461113,,,,,,
62679,control_change,39,0,4,,,,,,,,0,64,127,,
62736,note_on,96,0,2,,,,,,,,0,,,72,0
62736,note_on,0,0,2,,,,,,,,0,,,84,0
62736,note_on,57,0,4,,,,,,,,0,,,36,0
62736,note_on,0,0,2,,,,,,,,0,,,81,0
62736,note_on,96,0,3,,,,,,,,0,,,52,0
62760,note_on,24,0,3,,,,,,,,0,,,57,105
62772,set_tempo,131,1,0,,,,,,458505,,,,,,
62820,note_on,84,0,2,,,,,,,,0,,,76,106
62820,note_on,0,0,2,,,,,,,,0,,,72,106
62856,note_on,96,0,3,,,,,,,,0,,,57,0
62880,note_on,24,0,3,,,,,,,,0,,,64,107
62903,set_tempo,131,1,0,,,,,,455927,,,,,,
62916,note_on,96,0,2,,,,,,,,0,,,72,0
62916,note_on,0,0,2,,,,,,,,0,,,76,0
62940,note_on,0,0,2,,,,,,,,0,,,81,108
62940,note_on,24,0,2,,,,,,,,0,,,84,108
62940,note_on,0,0,2,,,,,,,,0,,,72,108
62976,note_on,96,0,3,,,,,,,,0,,,64,0
63000,note_on,24,0,3,,,,,,,,0,,,68,109
63034,set_tempo,131,1,0,,,,,,453378,,,,,,
63036,note_on,0,0,2,,,,,,,,0,,,81,0
63036,note_on,0,0,2,,,,,,,,0,,,84,0
63036,note_on,96,0,2,,,,,,,,0,,,72,0
63060,note_on,0,0,2,,,,,,,,0,,,74,110
63060,note_on,24,0,2,,,,,,,,0,,,77,110
63060,note_on,0,0,2,,,,,,,,0,,,83,110
63096,note_on,96,0,3,,,,,,,,0,,,68,0
63120,note_on,24,0,3,,,,,,,,0,,,69,111
63156,note_on,96,0,2,,,,,,,,0,,,83,0
63156,note_on,0,0,2,,,,,,,,0,,,74,0
63156,note_on,0,0,2,,,,,,,,0,,,77,0
63169,set_tempo,135,1,0,,,,,,450857,,,,,,
63180,note_on,0,0,2,,,,,,,,0,,,72,112
63180,note_on,0,0,2,,,,,,,,0,,,76,112
63180,note_on,24,0,2,,,,,,,,0,,,81,112
63216,note_on,96,0,3,,,,,,,,0,,,69,0
63240,note_on,0,0,3,,,,,,,,0,,,64,113
63240,note_on,24,0,3,,,,,,,,0,,,69,113
63276,note_on,0,0,2,,,,,,,,0,,,81,0
63276,note_on,96,0,2,,,,,,,,0,,,76,0
63276,note_on,0,0,2,,,,,,,,0,,,72,0
63300,note_on,0,0,2,,,,,,,,0,,,72,114
63300,set_tempo,131,1,0,,,,,,448363,,,,,,
63300,note_on,24,0,2,,,,,,,,0,,,76,114
63330,note_on,594,0,4,,,,,,,,0,,,36,115
63336,note_on,96,0,3,,,,,,,,0,,,64,0
63336,note_on,0,0,3,,,,,,,,0,,,69,0
63348,note_on,48,0,2,,,,,,,,0,,,72,0
63348,note_on,0,0,2,,,,,,,,0,,,76,0
63360,note_on,24,0,3,,,,,,,,0,,,53,115
63360,note_on,0,0,2,,,,,,,,0,,,82,115
63360,note_on,12,0,2,,,,,,,,0,,,86,115
63360,control_change,30,0,4,,,,,,,,0,64,0,,
63360,note_on,0,0,2,,,,,,,,0,,,74,115
63386,control_change,26,0,4,,,,,,,,0,64,127,,
63431,set_tempo,131,1,0,,,,,,445898,,,,,,
63456,note_on,96,0,2,,,,,,,,0,,,82,0
63456,note_on,0,0,2,,,,,,,,0,,,86,0
63456,note_on,96,0,3,,,,,,,,0,,,53,0
63456,note_on,70,0,4,,,,,,,,0,,,36,0
63456,note_on,0,0,2,,,,,,,,0,,,74,0
63480,note_on,24,0,3,,,,,,,,0,,,58,117
63540,note_on,0,0,2,,,,,,,,0,,,74,118
63540,note_on,84,0,2,,,,,,,,0,,,77,118
63562,set_tempo,131,1,0,,,,,,443459,,,,,,
63576,note_on,96,0,3,,,,,,,,0,,,58,0
63600,note_on,24,0,3,,,,,,,,0,,,65,119
63636,note_on,0,0,2,,,,,,,,0,,,77,0
63636,note_on,96,0,2,,,,,,,,0,,,74,0
63660,note_on,24,0,2,,,,,,,,0,,,82,120
63660,note_on,0,0,2,,,,,,,,0,,,86,120
63660,note_on,0,0,2,,,,,,,,0,,,74,120
63693,set_tempo,131,1,0,,,,,,441047,,,,,,
63696,note_on,96,0,3,,,,,,,,0,,,65,0
63720,note_on,24,0,3,,,,,,,,0,,,69,121
63756,note_on,96,0,2,,,,,,,,0,,,86,0
63756,note_on,0,0,2,,,,,,,,0,,,82,0
63756,note_on,0,0,2,,,,,,,,0,,,74,0
63780,note_on,24,0,2,,,,,,,,0,,,78,122
63780,note_on,0,0,2,,,,,,,,0,,,84,122
63780,note_on,0,0,2,,,,,,,,0,,,75,122
63816,note_on,96,0,3,,,,,,,,0,,,69,0
63824,set_tempo,131,1,0,,,,,,438661,,,,,,
63840,note_on,24,0,3,,,,,,,,0,,,70,123
63876,note_on,0,0,2,,,,,,,,0,,,78,0
63876,note_on,0,0,2,,,,,,,,0,,,84,0
63876,note_on,96,0,2,,,,,,,,0,,,75,0
63900,note_on,0,0,2,,,,,,,,0,,,74,124
63900,note_on,0,0,2,,,,,,,,0,,,77,124
63900,note_on,24,0,2,,,,,,,,0,,,82,124
63936,note_on,96,0,3,,,,,,,,0,,,70,0
63954,set_tempo,130,1,0,,,,,,436300,,,,,,
63960,note_on,0,0,3,,,,,,,,0,,,65,125
63960,note_on,24,0,3,,,,,,,,0,,,70,125
63996,note_on,0,0,2,,,,,,,,0,,,74,0
63996,note_on,0,0,2,,,,,,,,0,,,82,0
63996,note_on,96,0,2,,,,,,,,0,,,77,0
64020,note_on,0,0,2,,,,,,,,0,,,74,126
64020,note_on,24,0,2,,,,,,,,0,,,77,126
64056,note_on,0,0,3,,,,,,,,0,,,70,0
64056,note_on,96,0,3,,,,,,,,0,,,65,0
64068,note_on,48,0,2,,,,,,,,0,,,74,0
64068,note_on,0,0,2,,,,,,,,0,,,77,0
64080,note_on,0,0,2,,,,,,,,0,,,79,127
64080,note_on,12,0,2,,,,,,,,0,,,82,127
64080,note_on,0,0,4,,,,,,,,0,,,49,127
64080,note_on,0,0,4,,,,,,,,0,,,37,127
64080,note_on,0,0,2,,,,,,,,0,,,77,127
64080,control_change,624,0,4,,,,,,,,0,64,0,,
64080,note_on,0,0,2,,,,,,,,0,,,91,127
64085,set_tempo,131,1,0,,,,,,433965,,,,,,
64099,control_change,19,0,4,,,,,,,,0,64,127,,
64176,note_on,0,0,2,,,,,,,,0,,,82,0
64176,note_on,0,0,4,,,,,,,,0,,,37,0
64176,note_on,77,0,4,,,,,,,,0,,,49,0
64176,note_on,96,0,2,,,,,,,,0,,,79,0
64176,note_on,0,0,2,,,,,,,,0,,,91,0
64176,note_on,0,0,2,,,,,,,,0,,,77,0
64200,note_on,0,0,4,,,,,,,,0,,,43,127
64200,note_on,24,0,4,,,,,,,,0,,,55,127
64260,note_on,0,0,2,,,,,,,,0,,,77,127
64260,note_on,0,0,2,,,,,,,,0,,,82,127
64260,note_on,84,0,2,,,,,,,,0,,,79,127
64296,note_on,96,0,4,,,,,,,,0,,,43,0
64296,note_on,0,0,4,,,,,,,,0,,,55,0
64320,note_on,0,0,4,,,,,,,,0,,,58,127
64320,note_on,24,0,4,,,,,,,,0,,,46,127
64356,note_on,0,0,2,,,,,,,,0,,,77,0
64356,note_on,0,0,2,,,,,,,,0,,,79,0
64356,note_on,96,0,2,,,,,,,,0,,,82,0
64380,note_on,0,0,2,,,,,,,,0,,,77,127
64380,note_on,24,0,2,,,,,,,,0,,,91,127
64380,note_on,0,0,2,,,,,,,,0,,,79,127
64380,note_on,0,0,2,,,,,,,,0,,,82,127
64416,note_on,96,0,4,,,,,,,,0,,,58,0
64416,note_on,0,0,4,,,,,,,,0,,,46,0
64440,note_on,0,0,4,,,,,,,,0,,,49,127
64440,note_on,24,0,4,,,,,,,,0,,,61,127
64476,note_on,0,0,2,,,,,,,,0,,,79,0
64476,note_on,0,0,2,,,,,,,,0,,,82,0
64476,note_on,0,0,2,,,,,,,,0,,,91,0
64476,note_on,96,0,2,,,,,,,,0,,,77,0
64500,note_on,24,0,2,,,,,,,,0,,,79,127
64500,note_on,0,0,2,,,,,,,,0,,,82,127
64500,note_on,0,0,2,,,,,,,,0,,,87,127
64500,note_on,0,0,2,,,,,,,,0,,,77,127
64536,note_on,0,0,4,,,,,,,,0,,,61,0
64536,note_on,96,0,4,,,,,,,,0,,,49,0
64560,note_on,0,0,4,,,,,,,,0,,,70,127
64560,note_on,24,0,4,,,,,,,,0,,,67,127
64596,note_on,0,0,2,,,,,,,,0,,,82,0
64596,note_on,0,0,2,,,,,,,,0,,,79,0
64596,note_on,96,0,2,,,,,,,,0,,,87,0
64596,note_on,0,0,2,,,,,,,,0,,,77,0
64620,note_on,24,0,2,,,,,,,,0,,,85,127
64620,note_on,0,0,2,,,,,,,,0,,,79,127
64620,note_on,0,0,2,,,,,,,,0,,,77,127
64656,note_on,0,0,4,,,,,,,,0,,,67,0
64656,note_on,96,0,4,,,,,,,,0,,,70,0
64680,note_on,0,0,4,,,,,,,,0,,,73,127
64680,note_on,24,0,4,,,,,,,,0,,,70,127
64716,note_on,0,0,2,,,,,,,,0,,,77,0
64716,note_on,96,0,2,,,,,,,,0,,,79,0
64716,note_on,0,0,2,,,,,,,,0,,,85,0
64740,note_on,24,0,2,,,,,,,,0,,,79,127
64740,note_on,0,0,2,,,,,,,,0,,,82,127
64740,note_on,0,0,2,,,,,,,,0,,,77,127
64776,note_on,96,0,4,,,,,,,,0,,,73,0
64776,note_on,0,0,4,,,,,,,,0,,,70,0
64788,note_on,0,0,2,,,,,,,,0,,,79,0
64788,note_on,48,0,2,,,,,,,,0,,,77,0
64788,note_on,0,0,2,,,,,,,,0,,,82,0
64800,note_on,0,0,2,,,,,,,,0,,,82,127
64800,note_on,0,0,2,,,,,,,,0,,,88,127
64800,note_on,12,0,2,,,,,,,,0,,,97,127
64800,note_on,0,0,2,,,,,,,,0,,,91,127
64800,control_change,0,0,4,,,,,,,,0,64,0,,
64800,note_on,24,0,4,,,,,,,,0,,,48,127
64800,note_on,0,0,4,,,,,,,,0,,,36,127
64832,control_change,32,0,4,,,,,,,,0,64,127,,
64896,note_on,64,0,4,,,,,,,,0,,,36,0
64896,note_on,0,0,2,,,,,,,,0,,,97,0
64896,note_on,0,0,2,,,,,,,,0,,,91,0
64896,note_on,0,0,2,,,,,,,,0,,,82,0
64896,note_on,96,0,2,,,,,,,,0,,,88,0
64896,note_on,0,0,4,,,,,,,,0,,,48,0
64920,note_on,0,0,4,,,,,,,,0,,,43,127
64920,note_on,24,0,4,,,,,,,,0,,,55,127
64980,note_on,84,0,2,,,,,,,,0,,,88,127
64980,note_on,0,0,2,,,,,,,,0,,,82,127
65016,note_on,0,0,4,,,,,,,,0,,,55,0
65016,note_on,96,0,4,,,,,,,,0,,,43,0
65040,note_on,24,0,4,,,,,,,,0,,,48,127
65040,note_on,0,0,4,,,,,,,,0,,,60,127
65076,note_on,96,0,2,,,,,,,,0,,,82,0
65076,note_on,0,0,2,,,,,,,,0,,,88,0
65100,note_on,0,0,2,,,,,,,,0,,,88,127
65100,note_on,24,0,2,,,,,,,,0,,,96,127
65100,note_on,0,0,2,,,,,,,,0,,,82,127
65136,note_on,96,0,4,,,,,,,,0,,,60,0
65136,note_on,0,0,4,,,,,,,,0,,,48,0
65160,note_on,0,0,4,,,,,,,,0,,,52,127
65160,note_on,24,0,4,,,,,,,,0,,,64,127
65196,note_on,96,0,2,,,,,,,,0,,,88,0
65196,note_on,0,0,2,,,,,,,,0,,,96,0
65196,note_on,0,0,2,,,,,,,,0,,,82,0
65220,note_on,24,0,2,,,,,,,,0,,,88,127
65220,note_on,0,0,2,,,,,,,,0,,,82,127
65220,note_on,0,0,2,,,,,,,,0,,,93,127
65256,note_on,96,0,4,,,,,,,,0,,,52,0
65256,note_on,0,0,4,,,,,,,,0,,,64,0
65280,note_on,24,0,4,,,,,,,,0,,,55,127
65280,note_on,0,0,4,,,,,,,,0,,,67,127
65316,note_on,0,0,2,,,,,,,,0,,,93,0
65316,note_on,0,0,2,,,,,,,,0,,,88,0
65316,note_on,96,0,2,,,,,,,,0,,,82,0
65340,note_on,0,0,2,,,,,,,,0,,,88,127
65340,note_on,0,0,2,,,,,,,,0,,,91,127
65340,note_on,24,0,2,,,,,,,,0,,,82,127
65376,note_on,96,0,4,,,,,,,,0,,,67,0
65376,note_on,0,0,4,,,,,,,,0,,,55,0
65400,note_on,0,0,4,,,,,,,,0,,,64,127
65400,note_on,24,0,4,,,,,,,,0,,,76,127
65436,note_on,0,0,2,,,,,,,,0,,,88,0
65436,note_on,96,0,2,,,,,,,,0,,,91,0
65436,note_on,0,0,2,,,,,,,,0,,,82,0
65460,note_on,24,0,2,,,,,,,,0,,,79,127
65460,note_on,0,0,2,,,,,,,,0,,,88,127
65460,note_on,0,0,2,,,,,,,,0,,,82,127
65496,note_on,96,0,4,,,,,,,,0,,,64,0
65496,note_on,0,0,4,,,,,,,,0,,,76,0
65508,note_on,0,0,2,,,,,,,,0,,,82,0
65508,note_on,0,0,2,,,,,,,,0,,,79,0
65508,note_on,48,0,2,,,,,,,,0,,,88,0
65520,control_change,24,0,4,,,,,,,,0,64,0,,
65520,note_on,12,0,2,,,,,,,,0,,,79,127
65520,note_on,0,0,2,,,,,,,,0,,,77,127
65520,note_on,0,0,2,,,,,,,,0,,,82,127
65520,note_on,0,0,2,,,,,,,,0,,,91,127
65520,note_on,0,0,4,,,,,,,,0,,,37,127
65520,note_on,0,0,4,,,,,,,,0,,,49,127
65545,control_change,25,0,4,,,,,,,,0,64,127,,
65616,note_on,0,0,4,,,,,,,,0,,,37,0
65616,note_on,96,0,2,,,,,,,,0,,,91,0
65616,note_on,0,0,2,,,,,,,,0,,,79,0
65616,note_on,71,0,4,,,,,,,,0,,,49,0
65616,note_on,0,0,2,,,,,,,,0,,,82,0
65616,note_on,0,0,2,,,,,,,,0,,,77,0
65640,note_on,0,0,4,,,,,,,,0,,,55,127
65640,note_on,24,0,4,,,,,,,,0,,,43,127
65700,note_on,84,0,2,,,,,,,,0,,,82,127
65700,note_on,0,0,2,,,,,,,,0,,,77,127
65700,note_on,0,0,2,,,,,,,,0,,,79,127
65736,note_on,96,0,4,,,,,,,,0,,,55,0
65736,note_on,0,0,4,,,,,,,,0,,,43,0
65760,note_on,0,0,4,,,,,,,,0,,,46,127
65760,note_on,24,0,4,,,,,,,,0,,,58,127
65796,note_on,96,0,2,,,,,,,,0,,,77,0
65796,note_on,0,0,2,,,,,,,,0,,,82,0
65796,note_on,0,0,2,,,,,,,,0,,,79,0
65820,note_on,24,0,2,,,,,,,,0,,,82,127
65820,note_on,0,0,2,,,,,,,,0,,,79,127
65820,note_on,0,0,2,,,,,,,,0,,,77,127
65820,note_on,0,0,2,,,,,,,,0,,,91,127
65856,note_on,96,0,4,,,,,,,,0,,,46,0
65856,note_on,0,0,4,,,,,,,,0,,,58,0
65880,note_on,0,0,4,,,,,,,,0,,,61,127
65880,note_on,24,0,4,,,,,,,,0,,,49,127
65916,note_on,96,0,2,,,,,,,,0,,,91,0
65916,note_on,0,0,2,,,,,,,,0,,,82,0
65916,note_on,0,0,2,,,,,,,,0,,,79,0
65916,note_on,0,0,2,,,,,,,,0,,,77,0
65940,note_on,24,0,2,,,,,,,,0,,,79,127
65940,note_on,0,0,2,,,,,,,,0,,,77,127
65940,note_on,0,0,2,,,,,,,,0,,,82,127
65940,note_on,0,0,2,,,,,,,,0,,,87,127
65976,note_on,0,0,4,,,,,,,,0,,,49,0
65976,note_on,96,0,4,,,,,,,,0,,,61,0
66000,note_on,24,0,4,,,,,,,,0,,,70,127
66000,note_on,0,0,4,,,,,,,,0,,,67,127
66036,note_on,0,0,2,,,,,,,,0,,,77,0
66036,note_on,0,0,2,,,,,,,,0,,,82,0
66036,note_on,96,0,2,,,,,,,,0,,,87,0
66036,note_on,0,0,2,,,,,,,,0,,,79,0
66060,note_on,0,0,2,,,,,,,,0,,,77,127
66060,note_on,0,0,2,,,,,,,,0,,,85,127
66060,note_on,24,0,2,,,,,,,,0,,,79,127
66096,note_on,96,0,4,,,,,,,,0,,,67,0
66096,note_on,0,0,4,,,,,,,,0,,,70,0
66120,note_on,0,0,4,,,,,,,,0,,,70,127
66120,note_on,24,0,4,,,,,,,,0,,,73,127
66156,note_on,0,0,2,,,,,,,,0,,,79,0
66156,note_on,96,0,2,,,,,,,,0,,,77,0
66156,note_on,0,0,2,,,,,,,,0,,,85,0
66180,note_on,24,0,2,,,,,,,,0,,,82,127
66180,note_on,0,0,2,,,,,,,,0,,,77,127
66180,note_on,0,0,2,,,,,,,,0,,,79,127
66216,note_on,0,0,4,,,,,,,,0,,,73,0
66216,note_on,96,0,4,,,,,,,,0,,,70,0
66228,note_on,0,0,2,,,,,,,,0,,,79,0
66228,note_on,0,0,2,,,,,,,,0,,,82,0
66228,note_on,48,0,2,,,,,,,,0,,,77,0
66240,note_on,0,0,4,,,,,,,,0,,,36,127
66240,note_on,0,0,4,,,,,,,,0,,,48,127
66240,control_change,24,0,4,,,,,,,,0,64,0,,
66253,note_on,0,0,2,,,,,,,,0,,,88,127
66253,note_on,25,0,2,,,,,,,,0,,,97,127
66253,note_on,0,0,2,,,,,,,,0,,,82,127
66253,note_on,0,0,2,,,,,,,,0,,,91,127
66314,control_change,74,0,4,,,,,,,,0,64,127,,
66336,note_on,22,0,4,,,,,,,,0,,,36,0
66336,note_on,0,0,4,,,,,,,,0,,,48,0
66349,note_on,0,0,2,,,,,,,,0,,,91,0
66349,note_on,0,0,2,,,,,,,,0,,,82,0
66349,note_on,96,0,2,,,,,,,,0,,,88,0
66349,note_on,0,0,2,,,,,,,,0,,,97,0
66360,note_on,24,0,4,,,,,,,,0,,,55,120
66360,note_on,0,0,4,,,,,,,,0,,,43,120
66433,note_on,0,0,2,,,,,,,,0,,,82,119
66433,note_on,84,0,2,,,,,,,,0,,,88,119
66456,note_on,96,0,4,,,,,,,,0,,,43,0
66456,note_on,0,0,4,,,,,,,,0,,,55,0
66480,note_on,24,0,4,,,,,,,,0,,,60,114
66480,note_on,0,0,4,,,,,,,,0,,,48,114
66529,note_on,0,0,2,,,,,,,,0,,,88,0
66529,note_on,96,0,2,,,,,,,,0,,,82,0
66553,note_on,0,0,2,,,,,,,,0,,,88,113
66553,note_on,0,0,2,,,,,,,,0,,,82,113
66553,note_on,24,0,2,,,,,,,,0,,,96,113
66576,note_on,96,0,4,,,,,,,,0,,,48,0
66576,note_on,0,0,4,,,,,,,,0,,,60,0
66600,note_on,0,0,4,,,,,,,,0,,,64,108
66600,note_on,24,0,4,,,,,,,,0,,,52,108
66607,control_change,7,0,4,,,,,,,,0,64,0,,
66649,note_on,96,0,2,,,,,,,,0,,,88,0
66649,note_on,0,0,2,,,,,,,,0,,,82,0
66649,note_on,0,0,2,,,,,,,,0,,,96,0
66656,control_change,49,0,4,,,,,,,,0,64,127,,
66673,note_on,24,0,2,,,,,,,,0,,,88,108
66673,note_on,0,0,2,,,,,,,,0,,,82,108
66673,note_on,0,0,2,,,,,,,,0,,,93,108
66696,note_on,40,0,4,,,,,,,,0,,,64,0
66696,note_on,0,0,4,,,,,,,,0,,,52,0
66720,note_on,0,0,4,,,,,,,,0,,,55,102
66720,note_on,24,0,4,,,,,,,,0,,,67,102
66769,note_on,0,0,2,,,,,,,,0,,,88,0
66769,note_on,96,0,2,,,,,,,,0,,,82,0
66769,note_on,0,0,2,,,,,,,,0,,,93,0
66793,note_on,24,0,2,,,,,,,,0,,,82,102
66793,note_on,0,0,2,,,,,,,,0,,,91,102
66793,note_on,0,0,2,,,,,,,,0,,,88,102
66816,note_on,96,0,4,,,,,,,,0,,,55,0
66816,note_on,0,0,4,,,,,,,,0,,,67,0
66840,note_on,24,0,4,,,,,,,,0,,,64,96
66840,note_on,0,0,4,,,,,,,,0,,,76,96
66889,note_on,0,0,2,,,,,,,,0,,,88,0
66889,note_on,0,0,2,,,,,,,,0,,,82,0
66889,note_on,96,0,2,,,,,,,,0,,,91,0
66913,note_on,24,0,2,,,,,,,,0,,,79,96
66913,note_on,0,0,2,,,,,,,,0,,,88,96
66913,note_on,0,0,2,,,,,,,,0,,,82,96
66936,note_on,0,0,4,,,,,,,,0,,,64,0
66936,note_on,96,0,4,,,,,,,,0,,,76,0
66960,control_change,24,0,4,,,,,,,,0,64,0,,
66960,note_on,0,0,4,,,,,,,,0,,,71,80
66968,set_tempo,2883,1,0,,,,,,433965,,,,,,
66972,set_tempo,4,1,0,,,,,,431655,,,,,,
66991,control_change,31,0,4,,,,,,,,0,64,127,,
67020,note_on,107,0,2,,,,,,,,0,,,79,81
67020,note_on,0,0,2,,,,,,,,0,,,83,81
67020,note_on,0,0,2,,,,,,,,0,,,88,81
67033,note_on,13,0,2,,,,,,,,0,,,88,0
67033,note_on,0,0,2,,,,,,,,0,,,82,0
67033,note_on,0,0,2,,,,,,,,0,,,79,0
67056,note_on,65,0,4,,,,,,,,0,,,71,0
67060,set_tempo,88,1,0,,,,,,429369,,,,,,
67080,note_on,24,0,4,,,,,,,,0,,,70,82
67116,note_on,83,0,2,,,,,,,,0,,,79,0
67116,note_on,0,0,2,,,,,,,,0,,,88,0
67116,note_on,0,0,2,,,,,,,,0,,,83,0
67140,note_on,0,0,2,,,,,,,,0,,,84,83
67140,note_on,0,0,2,,,,,,,,0,,,88,83
67140,note_on,24,0,2,,,,,,,,0,,,79,83
67147,set_tempo,87,1,0,,,,,,427107,,,,,,
67176,note_on,96,0,4,,,,,,,,0,,,70,0
67200,note_on,24,0,4,,,,,,,,0,,,69,84
67236,note_on,0,0,2,,,,,,,,0,,,84,0
67236,note_on,96,0,2,,,,,,,,0,,,88,0
67236,note_on,0,0,2,,,,,,,,0,,,79,0
67238,set_tempo,91,1,0,,,,,,424869,,,,,,
67260,note_on,0,0,2,,,,,,,,0,,,88,85
67260,note_on,0,0,2,,,,,,,,0,,,85,85
67260,note_on,24,0,2,,,,,,,,0,,,79,85
67296,note_on,96,0,4,,,,,,,,0,,,69,0
67320,note_on,0,0,4,,,,,,,,0,,,68,86
67320,control_change,24,0,4,,,,,,,,0,64,0,,
67326,set_tempo,88,1,0,,,,,,422654,,,,,,
67349,control_change,29,0,4,,,,,,,,0,64,127,,
67356,note_on,0,0,2,,,,,,,,0,,,85,0
67356,note_on,0,0,2,,,,,,,,0,,,79,0
67356,note_on,96,0,2,,,,,,,,0,,,88,0
67380,note_on,24,0,2,,,,,,,,0,,,80,87
67380,note_on,0,0,2,,,,,,,,0,,,85,87
67380,note_on,0,0,2,,,,,,,,0,,,88,87
67413,set_tempo,87,1,0,,,,,,420463,,,,,,
67416,note_on,67,0,4,,,,,,,,0,,,68,0
67440,note_on,24,0,4,,,,,,,,0,,,67,88
67476,note_on,96,0,2,,,,,,,,0,,,85,0
67476,note_on,0,0,2,,,,,,,,0,,,80,0
67476,note_on,0,0,2,,,,,,,,0,,,88,0
67500,note_on,0,0,2,,,,,,,,0,,,85,89
67500,note_on,24,0,2,,,,,,,,0,,,88,89
67500,note_on,0,0,2,,,,,,,,0,,,81,89
67505,set_tempo,92,1,0,,,,,,418293,,,,,,
67536,note_on,96,0,4,,,,,,,,0,,,67,0
67560,note_on,24,0,4,,,,,,,,0,,,63,90
67592,set_tempo,87,1,0,,,,,,416146,,,,,,
67596,note_on,96,0,2,,,,,,,,0,,,85,0
67596,note_on,0,0,2,,,,,,,,0,,,81,0
67596,note_on,0,0,2,,,,,,,,0,,,88,0
67620,note_on,0,0,2,,,,,,,,0,,,91,91
67620,note_on,0,0,2,,,,,,,,0,,,82,91
67620,note_on,0,0,2,,,,,,,,0,,,85,91
67620,note_on,24,0,2,,,,,,,,0,,,79,91
67656,note_on,96,0,4,,,,,,,,0,,,63,0
67668,note_on,48,0,2,,,,,,,,0,,,85,0
67680,note_on,12,0,2,,,,,,,,0,,,85,92
67680,note_on,0,0,4,,,,,,,,0,,,62,92
67680,control_change,24,0,4,,,,,,,,0,64,0,,
67684,set_tempo,92,1,0,,,,,,414022,,,,,,
67711,control_change,31,0,4,,,,,,,,0,64,127,,
67728,note_on,0,0,2,,,,,,,,0,,,82,0
67728,note_on,48,0,2,,,,,,,,0,,,85,0
67728,note_on,0,0,2,,,,,,,,0,,,79,0
67728,note_on,0,0,2,,,,,,,,0,,,91,0
67740,note_on,12,0,2,,,,,,,,0,,,82,93
67740,note_on,0,0,2,,,,,,,,0,,,86,93
67740,note_on,0,0,2,,,,,,,,0,,,79,93
67740,note_on,0,0,2,,,,,,,,0,,,91,93
67771,set_tempo,87,1,0,,,,,,411918,,,,,,
67776,note_on,65,0,4,,,,,,,,0,,,62,0
67800,note_on,24,0,4,,,,,,,,0,,,61,94
67836,note_on,0,0,2,,,,,,,,0,,,82,0
67836,note_on,0,0,2,,,,,,,,0,,,86,0
67836,note_on,0,0,2,,,,,,,,0,,,79,0
67836,note_on,96,0,2,,,,,,,,0,,,91,0
67858,set_tempo,87,1,0,,,,,,409836,,,,,,
67860,note_on,0,0,2,,,,,,,,0,,,87,95
67860,note_on,0,0,2,,,,,,,,0,,,79,95
67860,note_on,0,0,2,,,,,,,,0,,,82,95
67860,note_on,24,0,2,,,,,,,,0,,,91,95
67896,note_on,96,0,4,,,,,,,,0,,,61,0
67920,note_on,24,0,4,,,,,,,,0,,,60,96
67950,set_tempo,92,1,0,,,,,,407775,,,,,,
67956,note_on,0,0,2,,,,,,,,0,,,87,0
67956,note_on,0,0,2,,,,,,,,0,,,82,0
67956,note_on,96,0,2,,,,,,,,0,,,79,0
67956,note_on,0,0,2,,,,,,,,0,,,91,0
67980,note_on,24,0,2,,,,,,,,0,,,82,97
67980,note_on,0,0,2,,,,,,,,0,,,91,97
67980,note_on,0,0,2,,,,,,,,0,,,79,97
67980,note_on,0,0,2,,,,,,,,0,,,88,97
68016,note_on,96,0,4,,,,,,,,0,,,60,0
68037,set_tempo,87,1,0,,,,,,405734,,,,,,
68040,note_on,24,0,4,,,,,,,,0,,,59,98
68042,control_change,2,0,4,,,,,,,,0,64,0,,
68068,control_change,26,0,4,,,,,,,,0,64,127,,
68076,note_on,96,0,2,,,,,,,,0,,,91,0
68076,note_on,0,0,2,,,,,,,,0,,,82,0
68076,note_on,0,0,2,,,,,,,,0,,,88,0
68076,note_on,0,0,2,,,,,,,,0,,,79,0
68100,note_on,0,0,2,,,,,,,,0,,,79,99
68100,note_on,0,0,2,,,,,,,,0,,,88,99
68100,note_on,0,0,2,,,,,,,,0,,,91,99
68100,note_on,24,0,2,,,,,,,,0,,,83,99
68124,set_tempo,87,1,0,,,,,,403714,,,,,,
68136,note_on,68,0,4,,,,,,,,0,,,59,0
68160,note_on,24,0,4,,,,,,,,0,,,58,100
68196,note_on,0,0,2,,,,,,,,0,,,83,0
68196,note_on,96,0,2,,,,,,,,0,,,79,0
68196,note_on,0,0,2,,,,,,,,0,,,88,0
68196,note_on,0,0,2,,,,,,,,0,,,91,0
68216,set_tempo,92,1,0,,,,,,401714,,,,,,
68220,note_on,0,0,2,,,,,,,,0,,,91,101
68220,note_on,0,0,2,,,,,,,,0,,,88,101
68220,note_on,0,0,2,,,,,,,,0,,,84,101
68220,note_on,24,0,2,,,,,,,,0,,,79,101
68256,note_on,96,0,4,,,,,,,,0,,,58,0
68280,note_on,24,0,4,,,,,,,,0,,,54,102
68280,note_on,0,0,4,,,,,,,,0,,,42,102
68303,set_tempo,87,1,0,,,,,,399734,,,,,,
68316,note_on,0,0,2,,,,,,,,0,,,79,0
68316,note_on,0,0,2,,,,,,,,0,,,91,0
68316,note_on,0,0,2,,,,,,,,0,,,84,0
68316,note_on,96,0,2,,,,,,,,0,,,88,0
68340,note_on,0,0,2,,,,,,,,0,,,88,103
68340,note_on,0,0,2,,,,,,,,0,,,85,103
68340,note_on,0,0,2,,,,,,,,0,,,82,103
68340,note_on,24,0,2,,,,,,,,0,,,94,103
68376,note_on,0,0,4,,,,,,,,0,,,54,0
68376,note_on,96,0,4,,,,,,,,0,,,42,0
68399,set_tempo,96,1,0,,,,,,401714,,,,,,
68400,control_change,24,0,4,,,,,,,,0,64,0,,
68400,note_on,0,0,4,,,,,,,,0,,,41,104
68400,note_on,0,0,4,,,,,,,,0,,,53,104
68424,control_change,24,0,4,,,,,,,,0,64,127,,
68448,note_on,108,0,2,,,,,,,,0,,,85,0
68448,note_on,0,0,2,,,,,,,,0,,,88,0
68448,note_on,0,0,2,,,,,,,,0,,,94,0
68448,note_on,0,0,2,,,,,,,,0,,,82,0
68460,note_on,12,0,2,,,,,,,,0,,,89,104
68460,note_on,0,0,2,,,,,,,,0,,,85,104
68460,note_on,0,0,2,,,,,,,,0,,,94,104
68460,note_on,0,0,2,,,,,,,,0,,,82,104
68496,note_on,72,0,4,,,,,,,,0,,,53,0
68496,note_on,0,0,4,,,,,,,,0,,,41,0
68520,note_on,0,0,4,,,,,,,,0,,,40,105
68520,note_on,24,0,4,,,,,,,,0,,,52,105
68556,note_on,0,0,2,,,,,,,,0,,,85,0
68556,note_on,0,0,2,,,,,,,,0,,,89,0
68556,note_on,96,0,2,,,,,,,,0,,,94,0
68556,note_on,0,0,2,,,,,,,,0,,,82,0
68580,note_on,0,0,2,,,,,,,,0,,,82,106
68580,note_on,0,0,2,,,,,,,,0,,,90,106
68580,note_on,24,0,2,,,,,,,,0,,,85,106
68580,note_on,0,0,2,,,,,,,,0,,,94,106
68616,note_on,96,0,4,,,,,,,,0,,,40,0
68616,note_on,0,0,4,,,,,,,,0,,,52,0
68640,note_on,24,0,4,,,,,,,,0,,,39,107
68640,note_on,0,0,4,,,,,,,,0,,,51,107
68676,note_on,0,0,2,,,,,,,,0,,,82,0
68676,note_on,0,0,2,,,,,,,,0,,,94,0
68676,note_on,96,0,2,,,,,,,,0,,,90,0
68676,note_on,0,0,2,,,,,,,,0,,,85,0
68700,note_on,0,0,2,,,,,,,,0,,,82,108
68700,note_on,24,0,2,,,,,,,,0,,,94,108
68700,note_on,0,0,2,,,,,,,,0,,,85,108
68700,note_on,0,0,2,,,,,,,,0,,,91,108
68736,note_on,0,0,4,,,,,,,,0,,,39,0
68736,note_on,96,0,4,,,,,,,,0,,,51,0
68758,control_change,22,0,4,,,,,,,,0,64,0,,
68760,note_on,0,0,4,,,,,,,,0,,,38,109
68760,note_on,2,0,4,,,,,,,,0,,,50,109
68779,control_change,19,0,4,,,,,,,,0,64,127,,
68796,note_on,0,0,2,,,,,,,,0,,,82,0
68796,note_on,0,0,2,,,,,,,,0,,,94,0
68796,note_on,96,0,2,,,,,,,,0,,,85,0
68796,note_on,0,0,2,,,,,,,,0,,,91,0
68820,note_on,0,0,2,,,,,,,,0,,,82,110
68820,note_on,24,0,2,,,,,,,,0,,,94,110
68820,note_on,0,0,2,,,,,,,,0,,,86,110
68820,note_on,0,0,2,,,,,,,,0,,,91,110
68856,note_on,0,0,4,,,,,,,,0,,,50,0
68856,note_on,77,0,4,,,,,,,,0,,,38,0
68880,note_on,0,0,4,,,,,,,,0,,,37,111
68880,note_on,24,0,4,,,,,,,,0,,,49,111
68916,note_on,0,0,2,,,,,,,,0,,,82,0
68916,note_on,0,0,2,,,,,,,,0,,,86,0
68916,note_on,0,0,2,,,,,,,,0,,,94,0
68916,note_on,96,0,2,,,,,,,,0,,,91,0
68940,note_on,24,0,2,,,,,,,,0,,,91,112
68940,note_on,0,0,2,,,,,,,,0,,,82,112
68940,note_on,0,0,2,,,,,,,,0,,,87,112
68940,note_on,0,0,2,,,,,,,,0,,,94,112
68976,note_on,96,0,4,,,,,,,,0,,,37,0
68976,note_on,0,0,4,,,,,,,,0,,,49,0
69000,note_on,0,0,4,,,,,,,,0,,,45,113
69000,note_on,24,0,4,,,,,,,,0,,,33,113
69036,note_on,0,0,2,,,,,,,,0,,,87,0
69036,note_on,0,0,2,,,,,,,,0,,,91,0
69036,note_on,96,0,2,,,,,,,,0,,,94,0
69036,note_on,0,0,2,,,,,,,,0,,,82,0
69060,note_on,24,0,2,,,,,,,,0,,,91,114
69060,note_on,0,0,2,,,,,,,,0,,,97,114
69060,note_on,0,0,2,,,,,,,,0,,,88,114
69060,note_on,0,0,2,,,,,,,,0,,,85,114
69096,note_on,0,0,4,,,,,,,,0,,,33,0
69096,note_on,96,0,4,,,,,,,,0,,,45,0
69115,set_tempo,716,1,0,,,,,,403714,,,,,,
69120,control_change,0,0,4,,,,,,,,0,64,0,,
69120,note_on,0,0,4,,,,,,,,0,,,44,115
69120,note_on,24,0,4,,,,,,,,0,,,32,115
69138,control_change,18,0,4,,,,,,,,0,64,127,,
69168,note_on,0,0,2,,,,,,,,0,,,85,0
69168,note_on,0,0,2,,,,,,,,0,,,91,0
69168,note_on,108,0,2,,,,,,,,0,,,97,0
69168,note_on,0,0,2,,,,,,,,0,,,88,0
69180,note_on,0,0,2,,,,,,,,0,,,97,116
69180,note_on,12,0,2,,,,,,,,0,,,92,116
69180,note_on,0,0,2,,,,,,,,0,,,88,116
69180,note_on,0,0,2,,,,,,,,0,,,85,116
69216,note_on,78,0,4,,,,,,,,0,,,44,0
69216,note_on,0,0,4,,,,,,,,0,,,32,0
69240,note_on,0,0,4,,,,,,,,0,,,43,117
69240,note_on,24,0,4,,,,,,,,0,,,31,117
69276,note_on,0,0,2,,,,,,,,0,,,92,0
69276,note_on,0,0,2,,,,,,,,0,,,97,0
69276,note_on,96,0,2,,,,,,,,0,,,85,0
69276,note_on,0,0,2,,,,,,,,0,,,88,0
69300,note_on,24,0,2,,,,,,,,0,,,97,118
69300,note_on,0,0,2,,,,,,,,0,,,85,118
69300,note_on,0,0,2,,,,,,,,0,,,88,118
69300,note_on,0,0,2,,,,,,,,0,,,93,118
69336,note_on,96,0,4,,,,,,,,0,,,43,0
69336,note_on,0,0,4,,,,,,,,0,,,31,0
69360,note_on,24,0,4,,,,,,,,0,,,30,119
69360,note_on,0,0,4,,,,,,,,0,,,42,119
69396,note_on,0,0,2,,,,,,,,0,,,85,0
69396,note_on,0,0,2,,,,,,,,0,,,88,0
69396,note_on,0,0,2,,,,,,,,0,,,97,0
69396,note_on,96,0,2,,,,,,,,0,,,93,0
69420,note_on,0,0,2,,,,,,,,0,,,85,120
69420,note_on,24,0,2,,,,,,,,0,,,94,120
69420,note_on,0,0,2,,,,,,,,0,,,97,120
69420,note_on,0,0,2,,,,,,,,0,,,88,120
69456,note_on,0,0,4,,,,,,,,0,,,30,0
69456,note_on,96,0,4,,,,,,,,0,,,42,0
69480,note_on,0,0,4,,,,,,,,0,,,41,121
69480,note_on,24,0,4,,,,,,,,0,,,29,121
69480,control_change,0,0,4,,,,,,,,0,64,0,,
69501,control_change,21,0,4,,,,,,,,0,64,127,,
69516,note_on,0,0,2,,,,,,,,0,,,97,0
69516,note_on,96,0,2,,,,,,,,0,,,85,0
69516,note_on,0,0,2,,,,,,,,0,,,94,0
69516,note_on,0,0,2,,,,,,,,0,,,88,0
69540,note_on,24,0,2,,,,,,,,0,,,94,122
69540,note_on,0,0,2,,,,,,,,0,,,97,122
69540,note_on,0,0,2,,,,,,,,0,,,89,122
69540,note_on,0,0,2,,,,,,,,0,,,85,122
69576,note_on,75,0,4,,,,,,,,0,,,41,0
69576,note_on,0,0,4,,,,,,,,0,,,29,0
69600,note_on,0,0,4,,,,,,,,0,,,40,123
69600,note_on,24,0,4,,,,,,,,0,,,28,123
69636,note_on,0,0,2,,,,,,,,0,,,97,0
69636,note_on,96,0,2,,,,,,,,0,,,89,0
69636,note_on,0,0,2,,,,,,,,0,,,85,0
69636,note_on,0,0,2,,,,,,,,0,,,94,0
69660,note_on,0,0,2,,,,,,,,0,,,94,124
69660,note_on,24,0,2,,,,,,,,0,,,91,124
69660,note_on,0,0,2,,,,,,,,0,,,84,124
69660,note_on,0,0,2,,,,,,,,0,,,96,124
69696,note_on,0,0,4,,,,,,,,0,,,28,0
69696,note_on,96,0,4,,,,,,,,0,,,40,0
69720,note_on,24,0,4,,,,,,,,0,,,37,125
69720,note_on,0,0,4,,,,,,,,0,,,49,125
69756,note_on,0,0,2,,,,,,,,0,,,96,0
69756,note_on,0,0,2,,,,,,,,0,,,91,0
69756,note_on,96,0,2,,,,,,,,0,,,84,0
69756,note_on,0,0,2,,,,,,,,0,,,94,0
69780,note_on,0,0,2,,,,,,,,0,,,94,126
69780,note_on,0,0,2,,,,,,,,0,,,91,126
69780,note_on,0,0,2,,,,,,,,0,,,89,126
69780,note_on,24,0,2,,,,,,,,0,,,101,126
69816,note_on,0,0,4,,,,,,,,0,,,37,0
69816,note_on,96,0,4,,,,,,,,0,,,49,0
69838,set_tempo,723,1,0,,,,,,405734,,,,,,
69840,control_change,24,0,4,,,,,,,,0,64,0,,
69840,note_on,0,0,4,,,,,,,,0,,,48,127
69840,note_on,0,0,4,,,,,,,,0,,,36,127
69865,control_change,25,0,4,,,,,,,,0,64,127,,
69888,note_on,0,0,2,,,,,,,,0,,,101,0
69888,note_on,108,0,2,,,,,,,,0,,,89,0
69888,note_on,0,0,2,,,,,,,,0,,,94,0
69888,note_on,0,0,2,,,,,,,,0,,,91,0
69900,note_on,12,0,2,,,,,,,,0,,,91,127
69900,note_on,0,0,2,,,,,,,,0,,,94,127
69900,note_on,0,0,2,,,,,,,,0,,,88,127
69900,note_on,0,0,2,,,,,,,,0,,,100,127
69912,set_tempo,74,1,0,,,,,,407775,,,,,,
69936,note_on,71,0,4,,,,,,,,0,,,36,0
69936,note_on,0,0,4,,,,,,,,0,,,48,0
69960,note_on,24,0,4,,,,,,,,0,,,41,127
69960,note_on,0,0,4,,,,,,,,0,,,53,127
69982,set_tempo,70,1,0,,,,,,409836,,,,,,
69996,note_on,0,0,2,,,,,,,,0,,,88,0
69996,note_on,0,0,2,,,,,,,,0,,,91,0
69996,note_on,0,0,2,,,,,,,,0,,,94,0
69996,note_on,96,0,2,,,,,,,,0,,,100,0
70020,note_on,0,0,2,,,,,,,,0,,,85,127
70020,note_on,24,0,2,,,,,,,,0,,,97,127
70020,note_on,0,0,2,,,,,,,,0,,,94,127
70020,note_on,0,0,2,,,,,,,,0,,,91,127
70052,set_tempo,70,1,0,,,,,,411918,,,,,,
70056,note_on,0,0,4,,,,,,,,0,,,41,0
70056,note_on,96,0,4,,,,,,,,0,,,53,0
70080,note_on,0,0,4,,,,,,,,0,,,52,127
70080,note_on,24,0,4,,,,,,,,0,,,40,127
70116,note_on,96,0,2,,,,,,,,0,,,94,0
70116,note_on,0,0,2,,,,,,,,0,,,85,0
70116,note_on,0,0,2,,,,,,,,0,,,91,0
70116,note_on,0,0,2,,,,,,,,0,,,97,0
70122,set_tempo,70,1,0,,,,,,414022,,,,,,
70140,note_on,0,0,2,,,,,,,,0,,,84,127
70140,note_on,24,0,2,,,,,,,,0,,,91,127
70140,note_on,0,0,2,,,,,,,,0,,,96,127
70176,note_on,96,0,4,,,,,,,,0,,,52,0
70176,note_on,0,0,4,,,,,,,,0,,,40,0
70192,set_tempo,70,1,0,,,,,,416146,,,,,,
70200,control_change,24,0,4,,,,,,,,0,64,0,,
70200,note_on,0,0,4,,,,,,,,0,,,55,127
70200,note_on,0,0,4,,,,,,,,0,,,43,127
70233,control_change,33,0,4,,,,,,,,0,64,127,,
70236,note_on,96,0,2,,,,,,,,0,,,96,0
70236,note_on,0,0,2,,,,,,,,0,,,84,0
70236,note_on,0,0,2,,,,,,,,0,,,91,0
70260,note_on,0,0,2,,,,,,,,0,,,94,127
70260,note_on,24,0,2,,,,,,,,0,,,89,127
70260,note_on,0,0,2,,,,,,,,0,,,85,127
70260,note_on,0,0,2,,,,,,,,0,,,82,127
70261,set_tempo,69,1,0,,,,,,418293,,,,,,
70296,note_on,0,0,4,,,,,,,,0,,,43,0
70296,note_on,63,0,4,,,,,,,,0,,,55,0
70320,note_on,0,0,4,,,,,,,,0,,,36,127
70320,note_on,24,0,4,,,,,,,,0,,,48,127
70331,set_tempo,70,1,0,,,,,,420463,,,,,,
70356,note_on,0,0,2,,,,,,,,0,,,89,0
70356,note_on,0,0,2,,,,,,,,0,,,85,0
70356,note_on,96,0,2,,,,,,,,0,,,94,0
70356,note_on,0,0,2,,,,,,,,0,,,82,0
70380,note_on,24,0,2,,,,,,,,0,,,84,127
70380,note_on,0,0,2,,,,,,,,0,,,88,127
70380,note_on,0,0,2,,,,,,,,0,,,79,127
70380,note_on,0,0,2,,,,,,,,0,,,91,127
70405,set_tempo,74,1,0,,,,,,422654,,,,,,
70416,note_on,0,0,4,,,,,,,,0,,,48,0
70416,note_on,96,0,4,,,,,,,,0,,,36,0
70440,note_on,24,0,4,,,,,,,,0,,,61,127
70440,note_on,0,0,4,,,,,,,,0,,,49,127
70475,set_tempo,70,1,0,,,,,,424869,,,,,,
70476,note_on,96,0,2,,,,,,,,0,,,88,0
70476,note_on,0,0,2,,,,,,,,0,,,79,0
70476,note_on,0,0,2,,,,,,,,0,,,84,0
70476,note_on,0,0,2,,,,,,,,0,,,91,0
70500,note_on,0,0,2,,,,,,,,0,,,82,127
70500,note_on,0,0,2,,,,,,,,0,,,79,127
70500,note_on,0,0,2,,,,,,,,0,,,77,127
70500,note_on,24,0,2,,,,,,,,0,,,89,127
70536,note_on,96,0,4,,,,,,,,0,,,49,0
70536,note_on,0,0,4,,,,,,,,0,,,61,0
70545,set_tempo,70,1,0,,,,,,427107,,,,,,
70560,note_on,24,0,4,,,,,,,,0,,,48,125
70560,control_change,0,0,4,,,,,,,,0,64,0,,
70560,note_on,0,0,4,,,,,,,,0,,,60,125
70587,control_change,27,0,4,,,,,,,,0,64,127,,
70608,note_on,108,0,2,,,,,,,,0,,,79,0
70608,note_on,0,0,2,,,,,,,,0,,,82,0
70608,note_on,0,0,2,,,,,,,,0,,,89,0
70608,note_on,0,0,2,,,,,,,,0,,,77,0
70615,set_tempo,70,1,0,,,,,,429369,,,,,,
70620,note_on,12,0,2,,,,,,,,0,,,79,123
70620,note_on,0,0,2,,,,,,,,0,,,88,123
70620,note_on,0,0,2,,,,,,,,0,,,82,123
70620,note_on,0,0,2,,,,,,,,0,,,76,123
70656,note_on,69,0,4,,,,,,,,0,,,60,0
70656,note_on,0,0,4,,,,,,,,0,,,48,0
70680,note_on,0,0,4,,,,,,,,0,,,65,122
70680,note_on,24,0,4,,,,,,,,0,,,53,122
70685,set_tempo,70,1,0,,,,,,431655,,,,,,
70716,note_on,96,0,2,,,,,,,,0,,,88,0
70716,note_on,0,0,2,,,,,,,,0,,,82,0
70716,note_on,0,0,2,,,,,,,,0,,,79,0
70716,note_on,0,0,2,,,,,,,,0,,,76,0
70740,note_on,24,0,2,,,,,,,,0,,,79,120
70740,note_on,0,0,2,,,,,,,,0,,,85,120
70740,note_on,0,0,2,,,,,,,,0,,,82,120
70740,note_on,0,0,2,,,,,,,,0,,,73,120
70754,set_tempo,69,1,0,,,,,,433965,,,,,,
70776,note_on,0,0,4,,,,,,,,0,,,53,0
70776,note_on,96,0,4,,,,,,,,0,,,65,0
70800,note_on,24,0,4,,,,,,,,0,,,52,118
70800,note_on,0,0,4,,,,,,,,0,,,64,118
70824,set_tempo,70,1,0,,,,,,436300,,,,,,
70836,note_on,0,0,2,,,,,,,,0,,,82,0
70836,note_on,0,0,2,,,,,,,,0,,,79,0
70836,note_on,0,0,2,,,,,,,,0,,,85,0
70836,note_on,96,0,2,,,,,,,,0,,,73,0
70860,note_on,0,0,2,,,,,,,,0,,,84,116
70860,note_on,0,0,2,,,,,,,,0,,,72,116
70860,note_on,24,0,2,,,,,,,,0,,,79,116
70896,note_on,96,0,4,,,,,,,,0,,,64,0
70896,note_on,0,0,4,,,,,,,,0,,,52,0
70898,set_tempo,74,1,0,,,,,,438661,,,,,,
70916,control_change,20,0,4,,,,,,,,0,64,0,,
70920,note_on,4,0,4,,,,,,,,0,,,67,114
70920,note_on,0,0,4,,,,,,,,0,,,55,114
70937,control_change,17,0,4,,,,,,,,0,64,127,,
70956,note_on,0,0,2,,,,,,,,0,,,72,0
70956,note_on,96,0,2,,,,,,,,0,,,84,0
70956,note_on,0,0,2,,,,,,,,0,,,79,0
70968,set_tempo,70,1,0,,,,,,441047,,,,,,
70980,note_on,24,0,2,,,,,,,,0,,,82,112
70980,note_on,0,0,2,,,,,,,,0,,,73,112
70980,note_on,0,0,2,,,,,,,,0,,,77,112
71016,note_on,79,0,4,,,,,,,,0,,,55,0
71016,note_on,0,0,4,,,,,,,,0,,,67,0
71038,set_tempo,70,1,0,,,,,,443459,,,,,,
71040,note_on,24,0,4,,,,,,,,0,,,60,110
71076,note_on,96,0,2,,,,,,,,0,,,73,0
71076,note_on,0,0,2,,,,,,,,0,,,77,0
71076,note_on,0,0,2,,,,,,,,0,,,82,0
71100,note_on,0,0,2,,,,,,,,0,,,76,109
71100,note_on,0,0,2,,,,,,,,0,,,79,109
71100,note_on,24,0,2,,,,,,,,0,,,72,109
71108,set_tempo,70,1,0,,,,,,445898,,,,,,
71136,note_on,96,0,4,,,,,,,,0,,,60,0
71160,note_on,24,0,4,,,,,,,,0,,,55,107
71178,set_tempo,70,1,0,,,,,,448363,,,,,,
71196,note_on,96,0,2,,,,,,,,0,,,76,0
71196,note_on,0,0,2,,,,,,,,0,,,79,0
71196,note_on,0,0,2,,,,,,,,0,,,72,0
71220,note_on,0,0,2,,,,,,,,0,,,73,105
71220,note_on,0,0,2,,,,,,,,0,,,77,105
71220,note_on,24,0,2,,,,,,,,0,,,70,105
71248,set_tempo,70,1,0,,,,,,450857,,,,,,
71256,note_on,96,0,4,,,,,,,,0,,,55,0
71280,note_on,0,0,4,,,,,,,,0,,,60,103
71280,control_change,24,0,4,,,,,,,,0,64,0,,
71317,set_tempo,69,1,0,,,,,,453378,,,,,,
71328,note_on,108,0,2,,,,,,,,0,,,77,0
71328,note_on,0,0,2,,,,,,,,0,,,70,0
71328,note_on,0,0,2,,,,,,,,0,,,73,0
71340,note_on,12,0,2,,,,,,,,0,,,67,101
71340,note_on,0,0,2,,,,,,,,0,,,76,101
71340,note_on,0,0,2,,,,,,,,0,,,72,101
71351,control_change,71,0,4,,,,,,,,0,64,127,,
71376,note_on,25,0,4,,,,,,,,0,,,60,0
71387,set_tempo,70,1,0,,,,,,455927,,,,,,
71400,note_on,24,0,4,,,,,,,,0,,,55,99
71417,set_tempo,30,1,0,,,,,,450857,,,,,,
71436,note_on,0,0,2,,,,,,,,0,,,72,0
71436,note_on,0,0,2,,,,,,,,0,,,67,0
71436,note_on,96,0,2,,,,,,,,0,,,76,0
71460,note_on,0,0,2,,,,,,,,0,,,65,97
71460,note_on,24,0,2,,,,,,,,0,,,70,97
71460,note_on,0,0,2,,,,,,,,0,,,73,97
71465,set_tempo,48,1,0,,,,,,453378,,,,,,
71496,note_on,96,0,4,,,,,,,,0,,,55,0
71509,set_tempo,44,1,0,,,,,,455927,,,,,,
71520,note_on,24,0,4,,,,,,,,0,,,48,95
71556,note_on,96,0,2,,,,,,,,0,,,65,0
71556,note_on,0,0,2,,,,,,,,0,,,70,0
71556,note_on,0,0,2,,,,,,,,0,,,73,0
71557,set_tempo,48,1,0,,,,,,458505,,,,,,
71580,note_on,24,0,2,,,,,,,,0,,,72,94
71580,note_on,0,0,2,,,,,,,,0,,,64,94
71580,note_on,0,0,2,,,,,,,,0,,,67,94
71605,set_tempo,48,1,0,,,,,,461113,,,,,,
71616,note_on,96,0,4,,,,,,,,0,,,48,0
71640,note_on,24,0,4,,,,,,,,0,,,55,92
71646,control_change,6,0,4,,,,,,,,0,64,0,,
71649,set_tempo,44,1,0,,,,,,463750,,,,,,
71676,note_on,96,0,2,,,,,,,,0,,,67,0
71676,note_on,0,0,2,,,,,,,,0,,,64,0
71676,note_on,0,0,2,,,,,,,,0,,,72,0
71677,control_change,31,0,4,,,,,,,,0,64,127,,
71697,set_tempo,48,1,0,,,,,,466418,,,,,,
71700,note_on,24,0,2,,,,,,,,0,,,65,90
71700,note_on,0,0,2,,,,,,,,0,,,61,90
71700,note_on,0,0,2,,,,,,,,0,,,70,90
71736,note_on,59,0,4,,,,,,,,0,,,55,0
71740,set_tempo,43,1,0,,,,,,469116,,,,,,
71760,note_on,24,0,4,,,,,,,,0,,,48,88
71788,set_tempo,48,1,0,,,,,,471846,,,,,,
71796,note_on,96,0,2,,,,,,,,0,,,61,0
71796,note_on,0,0,2,,,,,,,,0,,,65,0
71796,note_on,0,0,2,,,,,,,,0,,,70,0
71820,note_on,0,0,2,,,,,,,,0,,,60,86
71820,note_on,24,0,2,,,,,,,,0,,,64,86
71820,note_on,0,0,2,,,,,,,,0,,,67,86
71832,set_tempo,44,1,0,,,,,,474608,,,,,,
71856,note_on,96,0,4,,,,,,,,0,,,48,0
71880,set_tempo,48,1,0,,,,,,477403,,,,,,
71880,note_on,24,0,4,,,,,,,,0,,,43,84
71916,note_on,96,0,2,,,,,,,,0,,,67,0
71916,note_on,0,0,2,,,,,,,,0,,,60,0
71916,note_on,0,0,2,,,,,,,,0,,,64,0
71928,set_tempo,48,1,0,,,,,,480231,,,,,,
71940,note_on,0,0,2,,,,,,,,0,,,65,82
71940,note_on,0,0,2,,,,,,,,0,,,70,82
71940,note_on,24,0,2,,,,,,,,0,,,73,82
71972,set_tempo,44,1,0,,,,,,483092,,,,,,
71976,note_on,96,0,4,,,,,,,,0,,,43,0
72000,note_on,0,0,4,,,,,,,,0,,,36,80
72000,control_change,24,0,4,,,,,,,,0,64,0,,
72020,set_tempo,48,1,0,,,,,,485987,,,,,,
72029,control_change,29,0,4,,,,,,,,0,64,127,,
72048,note_on,108,0,2,,,,,,,,0,,,65,0
72048,note_on,0,0,2,,,,,,,,0,,,70,0
72048,note_on,0,0,2,,,,,,,,0,,,73,0
72060,note_on,12,0,2,,,,,,,,0,,,64,80
72060,note_on,0,0,2,,,,,,,,0,,,67,80
72060,note_on,0,0,2,,,,,,,,0,,,72,80
72063,set_tempo,43,1,0,,,,,,488918,,,,,,
72096,note_on,67,0,4,,,,,,,,0,,,36,0
72111,set_tempo,48,1,0,,,,,,491884,,,,,,
72120,note_on,24,0,4,,,,,,,,0,,,43,80
72156,note_on,0,0,2,,,,,,,,0,,,64,0
72156,note_on,96,0,2,,,,,,,,0,,,72,0
72156,note_on,0,0,2,,,,,,,,0,,,67,0
72159,set_tempo,48,1,0,,,,,,494886,,,,,,
72180,note_on,24,0,2,,,,,,,,0,,,65,80
72180,note_on,0,0,2,,,,,,,,0,,,70,80
72180,note_on,0,0,2,,,,,,,,0,,,61,80
72203,set_tempo,44,1,0,,,,,,497925,,,,,,
72216,note_on,96,0,4,,,,,,,,0,,,43,0
72240,note_on,24,0,4,,,,,,,,0,,,48,80
72251,set_tempo,48,1,0,,,,,,501002,,,,,,
72276,note_on,0,0,2,,,,,,,,0,,,70,0
72276,note_on,0,0,2,,,,,,,,0,,,65,0
72276,note_on,96,0,2,,,,,,,,0,,,61,0
72294,set_tempo,43,1,0,,,,,,504117,,,,,,
72300,note_on,0,0,2,,,,,,,,0,,,64,80
72300,note_on,24,0,2,,,,,,,,0,,,67,80
72300,note_on,0,0,2,,,,,,,,0,,,60,80
72336,note_on,96,0,4,,,,,,,,0,,,48,0
72342,set_tempo,48,1,0,,,,,,507271,,,,,,
72360,note_on,24,0,4,,,,,,,,0,,,55,80
72371,control_change,11,0,4,,,,,,,,0,64,0,,
72386,set_tempo,44,1,0,,,,,,510465,,,,,,
72396,note_on,0,0,2,,,,,,,,0,,,67,0
72396,note_on,0,0,2,,,,,,,,0,,,60,0
72396,note_on,96,0,2,,,,,,,,0,,,64,0
72411,control_change,40,0,4,,,,,,,,0,64,127,,
72420,note_on,24,0,2,,,,,,,,0,,,70,80
72420,note_on,0,0,2,,,,,,,,0,,,73,80
72420,note_on,0,0,2,,,,,,,,0,,,65,80
72434,set_tempo,48,1,0,,,,,,513699,,,,,,
72456,note_on,45,0,4,,,,,,,,0,,,55,0
72480,note_on,24,0,4,,,,,,,,0,,,48,80
72482,set_tempo,48,1,0,,,,,,516974,,,,,,
72516,note_on,96,0,2,,,,,,,,0,,,73,0
72516,note_on,0,0,2,,,,,,,,0,,,65,0
72516,note_on,0,0,2,,,,,,,,0,,,70,0
72526,set_tempo,44,1,0,,,,,,520291,,,,,,
72540,note_on,24,0,2,,,,,,,,0,,,67,80
72540,note_on,0,0,2,,,,,,,,0,,,64,80
72540,note_on,0,0,2,,,,,,,,0,,,72,80
72574,set_tempo,48,1,0,,,,,,523652,,,,,,
72576,note_on,96,0,4,,,,,,,,0,,,48,0
72600,note_on,24,0,4,,,,,,,,0,,,43,80
72617,set_tempo,43,1,0,,,,,,527056,,,,,,
72636,note_on,0,0,2,,,,,,,,0,,,64,0
72636,note_on,0,0,2,,,,,,,,0,,,67,0
72636,note_on,96,0,2,,,,,,,,0,,,72,0
72660,note_on,24,0,2,,,,,,,,0,,,61,80
72660,note_on,0,0,2,,,,,,,,0,,,65,80
72660,note_on,0,0,2,,,,,,,,0,,,70,80
72665,set_tempo,48,1,0,,,,,,530504,,,,,,
72696,note_on,96,0,4,,,,,,,,0,,,43,0
72713,set_tempo,48,1,0,,,,,,533998,,,,,,
72720,note_on,0,0,4,,,,,,,,0,,,36,80
72720,control_change,24,0,4,,,,,,,,0,64,0,,
72757,set_tempo,44,1,0,,,,,,537538,,,,,,
72763,control_change,43,0,4,,,,,,,,0,64,127,,
72768,note_on,0,0,2,,,,,,,,0,,,61,0
72768,note_on,0,0,2,,,,,,,,0,,,65,0
72768,note_on,108,0,2,,,,,,,,0,,,70,0
72780,note_on,0,0,2,,,,,,,,0,,,64,80
72780,note_on,0,0,2,,,,,,,,0,,,67,80
72780,note_on,12,0,2,,,,,,,,0,,,60,80
72805,set_tempo,48,1,0,,,,,,541126,,,,,,
72816,note_on,53,0,4,,,,,,,,0,,,36,0
72840,note_on,24,0,4,,,,,,,,0,,,43,80
72849,set_tempo,44,1,0,,,,,,544761,,,,,,
72876,note_on,0,0,2,,,,,,,,0,,,64,0
72876,note_on,0,0,2,,,,,,,,0,,,60,0
72876,note_on,96,0,2,,,,,,,,0,,,67,0
72897,set_tempo,48,1,0,,,,,,548446,,,,,,
72900,note_on,24,0,2,,,,,,,,0,,,70,80
72900,note_on,0,0,2,,,,,,,,0,,,73,80
72900,note_on,0,0,2,,,,,,,,0,,,65,80
72936,note_on,96,0,4,,,,,,,,0,,,43,0
72940,set_tempo,43,1,0,,,,,,552181,,,,,,
72960,note_on,24,0,4,,,,,,,,0,,,48,80
72988,set_tempo,48,1,0,,,,,,555967,,,,,,
72996,note_on,0,0,2,,,,,,,,0,,,70,0
72996,note_on,0,0,2,,,,,,,,0,,,73,0
72996,note_on,96,0,2,,,,,,,,0,,,65,0
73020,note_on,0,0,2,,,,,,,,0,,,67,80
73020,note_on,0,0,2,,,,,,,,0,,,72,80
73020,note_on,24,0,2,,,,,,,,0,,,64,80
73036,set_tempo,48,1,0,,,,,,559806,,,,,,
73056,note_on,96,0,4,,,,,,,,0,,,48,0
73080,note_on,24,0,4,,,,,,,,0,,,55,80
73080,set_tempo,44,1,0,,,,,,563698,,,,,,
73083,control_change,3,0,4,,,,,,,,0,64,0,,
73116,note_on,0,0,2,,,,,,,,0,,,64,0
73116,note_on,0,0,2,,,,,,,,0,,,72,0
73116,note_on,96,0,2,,,,,,,,0,,,67,0
73128,set_tempo,48,1,0,,,,,,567644,,,,,,
73129,control_change,46,0,4,,,,,,,,0,64,127,,
73140,note_on,24,0,2,,,,,,,,0,,,70,80
73140,note_on,0,0,2,,,,,,,,0,,,73,80
73140,note_on,0,0,2,,,,,,,,0,,,65,80
73172,set_tempo,44,1,0,,,,,,571646,,,,,,
73176,note_on,47,0,4,,,,,,,,0,,,55,0
73200,note_on,24,0,4,,,,,,,,0,,,48,80
73220,set_tempo,48,1,0,,,,,,575705,,,,,,
73236,note_on,0,0,2,,,,,,,,0,,,70,0
73236,note_on,0,0,2,,,,,,,,0,,,65,0
73236,note_on,96,0,2,,,,,,,,0,,,73,0
73260,note_on,24,0,2,,,,,,,,0,,,72,80
73260,note_on,0,0,2,,,,,,,,0,,,64,80
73260,note_on,0,0,2,,,,,,,,0,,,67,80
73263,set_tempo,43,1,0,,,,,,579822,,,,,,
73296,note_on,96,0,4,,,,,,,,0,,,48,0
73311,set_tempo,48,1,0,,,,,,583998,,,,,,
73320,note_on,24,0,4,,,,,,,,0,,,55,80
73356,note_on,96,0,2,,,,,,,,0,,,64,0
73356,note_on,0,0,2,,,,,,,,0,,,72,0
73356,note_on,0,0,2,,,,,,,,0,,,67,0
73359,set_tempo,48,1,0,,,,,,588235,,,,,,
73380,note_on,24,0,2,,,,,,,,0,,,74,80
73380,note_on,0,0,2,,,,,,,,0,,,65,80
73380,note_on,0,0,2,,,,,,,,0,,,70,80
73403,set_tempo,44,1,0,,,,,,592534,,,,,,
73416,note_on,96,0,4,,,,,,,,0,,,55,0
73433,set_tempo,30,1,0,,,,,,583998,,,,,,
73440,control_change,24,0,4,,,,,,,,0,64,0,,
73440,note_on,0,0,4,,,,,,,,0,,,48,80
73442,set_tempo,9,1,0,,,,,,567644,,,,,,
73455,set_tempo,13,1,0,,,,,,571646,,,,,,
73464,set_tempo,9,1,0,,,,,,575705,,,,,,
73471,control_change,31,0,4,,,,,,,,0,64,127,,
73472,set_tempo,8,1,0,,,,,,579822,,,,,,
73481,set_tempo,9,1,0,,,,,,583998,,,,,,
73488,note_on,108,0,2,,,,,,,,0,,,65,0
73488,note_on,0,0,2,,,,,,,,0,,,70,0
73488,note_on,0,0,2,,,,,,,,0,,,74,0
73490,set_tempo,9,1,0,,,,,,588235,,,,,,
73499,set_tempo,9,1,0,,,,,,592534,,,,,,
73500,note_on,0,0,2,,,,,,,,0,,,72,80
73500,note_on,12,0,2,,,,,,,,0,,,67,80
73500,note_on,0,0,2,,,,,,,,0,,,64,80
73507,set_tempo,8,1,0,,,,,,596896,,,,,,
73516,set_tempo,9,1,0,,,,,,601323,,,,,,
73525,set_tempo,9,1,0,,,,,,605816,,,,,,
73534,set_tempo,9,1,0,,,,,,610376,,,,,,
73536,note_on,65,0,4,,,,,,,,0,,,48,0
73542,set_tempo,8,1,0,,,,,,615006,,,,,,
73551,set_tempo,9,1,0,,,,,,619707,,,,,,
73560,note_on,24,0,4,,,,,,,,0,,,55,80
73560,set_tempo,9,1,0,,,,,,624480,,,,,,
73568,set_tempo,8,1,0,,,,,,629327,,,,,,
73577,set_tempo,9,1,0,,,,,,634249,,,,,,
73586,set_tempo,9,1,0,,,,,,639250,,,,,,
73595,set_tempo,9,1,0,,,,,,644330,,,,,,
73596,note_on,0,0,2,,,,,,,,0,,,67,0
73596,note_on,96,0,2,,,,,,,,0,,,72,0
73596,note_on,0,0,2,,,,,,,,0,,,64,0
73603,set_tempo,8,1,0,,,,,,649491,,,,,,
73612,set_tempo,9,1,0,,,,,,654736,,,,,,
73620,note_on,24,0,2,,,,,,,,0,,,65,80
73620,note_on,0,0,2,,,,,,,,0,,,74,80
73620,note_on,0,0,2,,,,,,,,0,,,70,80
73621,set_tempo,9,1,0,,,,,,660066,,,,,,
73630,set_tempo,9,1,0,,,,,,665484,,,,,,
73638,set_tempo,8,1,0,,,,,,670991,,,,,,
73647,set_tempo,9,1,0,,,,,,676590,,,,,,
73656,note_on,96,0,4,,,,,,,,0,,,55,0
73656,set_tempo,9,1,0,,,,,,682283,,,,,,
73664,set_tempo,8,1,0,,,,,,688073,,,,,,
73673,set_tempo,9,1,0,,,,,,693963,,,,,,
73680,note_on,24,0,4,,,,,,,,0,,,48,80
73682,set_tempo,9,1,0,,,,,,699953,,,,,,
73691,set_tempo,9,1,0,,,,,,706048,,,,,,
73699,set_tempo,8,1,0,,,,,,712251,,,,,,
73708,set_tempo,9,1,0,,,,,,718563,,,,,,
73716,note_on,0,0,2,,,,,,,,0,,,65,0
73716,note_on,0,0,2,,,,,,,,0,,,74,0
73716,note_on,96,0,2,,,,,,,,0,,,70,0
73717,set_tempo,9,1,0,,,,,,724988,,,,,,
73726,set_tempo,9,1,0,,,,,,731529,,,,,,
73734,set_tempo,8,1,0,,,,,,738189,,,,,,
73740,note_on,24,0,2,,,,,,,,0,,,67,80
73740,note_on,0,0,2,,,,,,,,0,,,64,80
73740,note_on,0,0,2,,,,,,,,0,,,72,80
73743,set_tempo,9,1,0,,,,,,744971,,,,,,
73752,set_tempo,9,1,0,,,,,,751880,,,,,,
73760,set_tempo,8,1,0,,,,,,758917,,,,,,
73769,set_tempo,9,1,0,,,,,,766088,,,,,,
73776,note_on,96,0,4,,,,,,,,0,,,48,0
73778,set_tempo,9,1,0,,,,,,773395,,,,,,
73787,set_tempo,9,1,0,,,,,,780843,,,,,,
73791,control_change,15,0,4,,,,,,,,0,64,0,,
73795,set_tempo,8,1,0,,,,,,788436,,,,,,
73800,note_on,9,0,4,,,,,,,,0,,,55,80
73804,set_tempo,9,1,0,,,,,,796178,,,,,,
73813,set_tempo,9,1,0,,,,,,804074,,,,,,
73814,control_change,14,0,4,,,,,,,,0,64,127,,
73822,set_tempo,9,1,0,,,,,,812128,,,,,,
73830,set_tempo,8,1,0,,,,,,820345,,,,,,
73836,note_on,0,0,2,,,,,,,,0,,,67,0
73836,note_on,0,0,2,,,,,,,,0,,,64,0
73836,note_on,96,0,2,,,,,,,,0,,,72,0
73839,set_tempo,9,1,0,,,,,,828729,,,,,,
73848,set_tempo,9,1,0,,,,,,837287,,,,,,
73856,set_tempo,8,1,0,,,,,,846024,,,,,,
73860,note_on,0,0,2,,,,,,,,0,,,70,80
73860,note_on,24,0,2,,,,,,,,0,,,74,80
73860,note_on,0,0,2,,,,,,,,0,,,65,80
73865,set_tempo,9,1,0,,,,,,854944,,,,,,
73874,set_tempo,9,1,0,,,,,,864055,,,,,,
73883,set_tempo,9,1,0,,,,,,873362,,,,,,
73891,set_tempo,8,1,0,,,,,,882872,,,,,,
73896,note_on,82,0,4,,,,,,,,0,,,55,0
73900,set_tempo,9,1,0,,,,,,892591,,,,,,
73909,set_tempo,9,1,0,,,,,,902527,,,,,,
73918,set_tempo,9,1,0,,,,,,892591,,,,,,
73920,note_on,24,0,4,,,,,,,,0,,,48,80
73956,note_on,0,0,2,,,,,,,,0,,,65,0
73956,note_on,96,0,2,,,,,,,,0,,,70,0
73956,note_on,0,0,2,,,,,,,,0,,,74,0
73980,note_on,24,0,2,,,,,,,,0,,,67,80
73980,note_on,0,0,2,,,,,,,,0,,,64,80
73980,note_on,0,0,2,,,,,,,,0,,,72,80
74016,note_on,96,0,4,,,,,,,,0,,,48,0
74040,note_on,24,0,4,,,,,,,,0,,,60,80
74076,note_on,96,0,2,,,,,,,,0,,,72,0
74076,note_on,0,0,2,,,,,,,,0,,,67,0
74076,note_on,0,0,2,,,,,,,,0,,,64,0
74096,set_tempo,178,1,0,,,,,,892591,,,,,,
74100,note_on,24,0,2,,,,,,,,0,,,72,80
74100,note_on,0,0,2,,,,,,,,0,,,70,80
74100,note_on,0,0,2,,,,,,,,0,,,64,80
74101,set_tempo,5,1,0,,,,,,902527,,,,,,
74105,set_tempo,4,1,0,,,,,,912686,,,,,,
74110,set_tempo,5,1,0,,,,,,923077,,,,,,
74114,set_tempo,4,1,0,,,,,,933707,,,,,,
74118,set_tempo,4,1,0,,,,,,944584,,,,,,
74123,set_tempo,5,1,0,,,,,,955718,,,,,,
74127,set_tempo,4,1,0,,,,,,967118,,,,,,
74131,set_tempo,4,1,0,,,,,,978793,,,,,,
74136,set_tempo,5,1,0,,,,,,990753,,,,,,
74136,note_on,96,0,4,,,,,,,,0,,,60,0
74140,set_tempo,4,1,0,,,,,,1003009,,,,,,
74144,set_tempo,4,1,0,,,,,,1015572,,,,,,
74148,note_on,0,0,2,,,,,,,,0,,,70,0
74148,note_on,48,0,2,,,,,,,,0,,,64,0
74149,set_tempo,5,1,0,,,,,,1041667,,,,,,
74153,set_tempo,4,1,0,,,,,,902527,,,,,,
74158,set_tempo,5,1,0,,,,,,670991,,,,,,
74160,note_on,12,0,2,,,,,,,,0,,,65,72
74160,control_change,24,0,4,,,,,,,,0,64,0,,
74160,note_on,0,0,2,,,,,,,,0,,,69,72
74160,note_on,0,0,4,,,,,,,,0,,,53,80
74240,control_change,80,0,4,,,,,,,,0,64,127,,
74256,note_on,96,0,2,,,,,,,,0,,,69,0
74256,note_on,16,0,4,,,,,,,,0,,,53,0
74256,note_on,0,0,2,,,,,,,,0,,,72,0
74256,note_on,0,0,2,,,,,,,,0,,,65,0
74280,note_on,24,0,2,,,,,,,,0,,,60,72
74376,note_on,96,0,2,,,,,,,,0,,,60,0
74400,note_on,24,0,2,,,,,,,,0,,,69,72
74400,note_on,0,0,2,,,,,,,,0,,,65,72
74496,note_on,0,0,2,,,,,,,,0,,,69,0
74496,note_on,96,0,2,,,,,,,,0,,,65,0
74520,note_on,18384,0,1,,,,,,,,0,,,72,88
74520,note_on,0,0,4,,,,,,,,0,,,41,80
74520,control_change,264,0,4,,,,,,,,0,64,0,,
74520,note_on,0,0,2,,,,,,,,0,,,67,72
74520,note_on,24,0,2,,,,,,,,0,,,64,72
74520,note_on,0,0,4,,,,,,,,0,,,29,80
74587,control_change,67,0,4,,,,,,,,0,64,127,,
74616,note_on,96,0,2,,,,,,,,0,,,67,0
74616,note_on,0,0,2,,,,,,,,0,,,64,0
74640,note_on,0,0,2,,,,,,,,0,,,65,72
74640,note_on,24,0,2,,,,,,,,0,,,62,72
74736,note_on,0,0,2,,,,,,,,0,,,62,0
74736,note_on,96,0,2,,,,,,,,0,,,65,0
74760,note_on,24,0,2,,,,,,,,0,,,60,72
74856,note_on,96,0,2,,,,,,,,0,,,60,0
74880,note_on,0,0,2,,,,,,,,0,,,64,72
74880,note_on,24,0,2,,,,,,,,0,,,67,72
74976,note_on,456,0,1,,,,,,,,0,,,72,0
74976,note_on,0,0,2,,,,,,,,0,,,67,0
74976,note_on,96,0,2,,,,,,,,0,,,64,0
75000,note_on,24,0,2,,,,,,,,0,,,62,72
75096,note_on,96,0,2,,,,,,,,0,,,62,0
75120,note_on,24,0,2,,,,,,,,0,,,70,72
75120,note_on,0,0,2,,,,,,,,0,,,67,72
75168,note_on,0,0,4,,,,,,,,0,,,29,0
75168,note_on,581,0,4,,,,,,,,0,,,41,0
75216,note_on,0,0,2,,,,,,,,0,,,70,0
75216,note_on,96,0,2,,,,,,,,0,,,67,0
75240,note_on,264,0,1,,,,,,,,0,,,74,88
75240,note_on,0,0,2,,,,,,,,0,,,69,72
75240,note_on,24,0,2,,,,,,,,0,,,65,72
75240,note_on,0,0,4,,,,,,,,0,,,29,80
75240,note_on,72,0,4,,,,,,,,0,,,41,80
75246,control_change,6,0,4,,,,,,,,0,64,0,,
75314,control_change,68,0,4,,,,,,,,0,64,127,,
75336,note_on,96,0,2,,,,,,,,0,,,69,0
75336,note_on,0,0,2,,,,,,,,0,,,65,0
75360,note_on,24,0,2,,,,,,,,0,,,67,72
75360,note_on,0,0,2,,,,,,,,0,,,64,72
75456,note_on,96,0,2,,,,,,,,0,,,64,0
75456,note_on,0,0,2,,,,,,,,0,,,67,0
75480,note_on,24,0,2,,,,,,,,0,,,62,72
75576,note_on,96,0,2,,,,,,,,0,,,62,0
75600,note_on,0,0,2,,,,,,,,0,,,69,72
75600,note_on,24,0,2,,,,,,,,0,,,65,72
75696,note_on,0,0,2,,,,,,,,0,,,65,0
75696,note_on,456,0,1,,,,,,,,0,,,74,0
75696,note_on,96,0,2,,,,,,,,0,,,69,0
75720,note_on,24,0,2,,,,,,,,0,,,65,72
75816,note_on,96,0,2,,,,,,,,0,,,65,0
75840,note_on,0,0,2,,,,,,,,0,,,74,72
75840,note_on,24,0,2,,,,,,,,0,,,77,72
75888,note_on,574,0,4,,,,,,,,0,,,29,0
75888,note_on,0,0,4,,,,,,,,0,,,41,0
75936,note_on,96,0,2,,,,,,,,0,,,74,0
75936,note_on,0,0,2,,,,,,,,0,,,77,0
75954,control_change,66,0,4,,,,,,,,0,64,0,,
75960,note_on,24,0,2,,,,,,,,0,,,76,72
75960,note_on,0,0,4,,,,,,,,0,,,29,80
75960,note_on,0,0,2,,,,,,,,0,,,72,72
75960,note_on,6,0,4,,,,,,,,0,,,41,80
75960,note_on,264,0,1,,,,,,,,0,,,77,88
76017,control_change,57,0,4,,,,,,,,0,64,127,,
76056,note_on,96,0,2,,,,,,,,0,,,72,0
76056,note_on,0,0,2,,,,,,,,0,,,76,0
76080,note_on,0,0,2,,,,,,,,0,,,74,72
76080,note_on,24,0,2,,,,,,,,0,,,70,72
76176,note_on,96,0,2,,,,,,,,0,,,74,0
76176,note_on,0,0,2,,,,,,,,0,,,70,0
76200,note_on,24,0,2,,,,,,,,0,,,65,72
76248,note_on,231,0,4,,,,,,,,0,,,29,0
76248,note_on,0,0,4,,,,,,,,0,,,41,0
76248,note_on,288,0,1,,,,,,,,0,,,77,0
76296,note_on,96,0,2,,,,,,,,0,,,65,0
76320,note_on,0,0,4,,,,,,,,0,,,29,80
76320,control_change,72,0,4,,,,,,,,0,64,0,,
76320,note_on,24,0,2,,,,,,,,0,,,69,72
76320,note_on,0,0,4,,,,,,,,0,,,41,80
76320,note_on,0,0,2,,,,,,,,0,,,72,72
76320,note_on,72,0,1,,,,,,,,0,,,77,88
76383,control_change,63,0,4,,,,,,,,0,64,127,,
76416,note_on,96,0,2,,,,,,,,0,,,72,0
76416,note_on,0,0,2,,,,,,,,0,,,69,0
76440,note_on,24,0,2,,,,,,,,0,,,74,72
76440,note_on,0,0,2,,,,,,,,0,,,70,72
76536,note_on,0,0,2,,,,,,,,0,,,74,0
76536,note_on,96,0,2,,,,,,,,0,,,70,0
76560,note_on,24,0,2,,,,,,,,0,,,65,72
76608,note_on,225,0,4,,,,,,,,0,,,29,0
76608,note_on,288,0,1,,,,,,,,0,,,77,0
76608,note_on,0,0,4,,,,,,,,0,,,41,0
76656,note_on,96,0,2,,,,,,,,0,,,65,0
76674,control_change,66,0,4,,,,,,,,0,64,0,,
76680,note_on,0,0,4,,,,,,,,0,,,29,80
76680,note_on,6,0,4,,,,,,,,0,,,41,80
76680,note_on,24,0,2,,,,,,,,0,,,70,72
76680,note_on,72,0,1,,,,,,,,0,,,77,88
76680,note_on,0,0,2,,,,,,,,0,,,67,72
76749,control_change,69,0,4,,,,,,,,0,64,127,,
76776,note_on,0,0,2,,,,,,,,0,,,70,0
76776,note_on,96,0,2,,,,,,,,0,,,67,0
76800,note_on,0,0,2,,,,,,,,0,,,69,72
76800,note_on,24,0,2,,,,,,,,0,,,72,72
76896,note_on,96,0,2,,,,,,,,0,,,69,0
76896,note_on,0,0,2,,,,,,,,0,,,72,0
76920,note_on,24,0,2,,,,,,,,0,,,69,72
76968,note_on,219,0,4,,,,,,,,0,,,29,0
76968,note_on,0,0,4,,,,,,,,0,,,41,0
76968,note_on,288,0,1,,,,,,,,0,,,77,0
77004,note_on,84,0,2,,,,,,,,0,,,69,0
77025,note_on,21,0,2,,,,,,,,0,,,69,72
77040,note_on,0,0,4,,,,,,,,0,,,29,80
77040,note_on,72,0,4,,,,,,,,0,,,41,80
77040,note_on,15,0,2,,,,,,,,0,,,84,72
77040,control_change,0,0,4,,,,,,,,0,64,0,,
77040,note_on,0,0,2,,,,,,,,0,,,77,72
77133,control_change,93,0,4,,,,,,,,0,64,127,,
77136,note_on,0,0,2,,,,,,,,0,,,84,0
77136,note_on,0,0,4,,,,,,,,0,,,41,0
77136,note_on,96,0,2,,,,,,,,0,,,77,0
77136,note_on,3,0,4,,,,,,,,0,,,29,0
77136,note_on,0,0,2,,,,,,,,0,,,69,0
77136,end_of_track,0,1,2,,,,,,,,,,,,
77160,note_on,24,0,4,,,,,,,,0,,,53,80
77256,note_on,96,0,4,,,,,,,,0,,,53,0
77280,note_on,24,0,4,,,,,,,,0,,,65,80
77280,note_on,0,0,4,,,,,,,,0,,,69,80
77376,note_on,96,0,4,,,,,,,,0,,,69,0
77376,note_on,0,0,4,,,,,,,,0,,,65,0
77393,control_change,17,0,4,,,,,,,,0,64,0,,
77400,note_on,0,0,1,,,,,,,,0,,,84,88
77400,note_on,432,0,1,,,,,,,,0,,,72,88
77400,note_on,7,0,4,,,,,,,,0,,,64,80
77400,note_on,0,0,4,,,,,,,,0,,,67,80
77460,control_change,60,0,4,,,,,,,,0,64,127,,
77496,note_on,36,0,4,,,,,,,,0,,,67,0
77496,note_on,0,0,4,,,,,,,,0,,,64,0
77520,note_on,24,0,4,,,,,,,,0,,,65,80
77520,note_on,0,0,4,,,,,,,,0,,,62,80
77616,note_on,96,0,4,,,,,,,,0,,,62,0
77616,note_on,0,0,4,,,,,,,,0,,,65,0
77640,note_on,24,0,4,,,,,,,,0,,,53,80
77736,note_on,96,0,4,,,,,,,,0,,,53,0
77760,note_on,0,0,4,,,,,,,,0,,,64,80
77760,note_on,24,0,4,,,,,,,,0,,,60,80
77856,note_on,96,0,4,,,,,,,,0,,,64,0
77856,note_on,0,0,4,,,,,,,,0,,,60,0
77880,note_on,24,0,4,,,,,,,,0,,,53,80
77928,note_on,528,0,1,,,,,,,,0,,,84,0
77928,note_on,0,0,1,,,,,,,,0,,,72,0
77976,note_on,96,0,4,,,,,,,,0,,,53,0
78000,note_on,24,0,4,,,,,,,,0,,,70,80
78000,note_on,0,0,4,,,,,,,,0,,,67,80
78096,note_on,0,0,4,,,,,,,,0,,,70,0
78096,note_on,96,0,4,,,,,,,,0,,,67,0
78120,note_on,0,0,1,,,,,,,,0,,,86,88
78120,note_on,24,0,4,,,,,,,,0,,,69,80
78120,note_on,192,0,1,,,,,,,,0,,,74,88
78120,note_on,0,0,4,,,,,,,,0,,,65,80
78164,control_change,44,0,4,,,,,,,,0,64,0,,
78216,note_on,52,0,4,,,,,,,,0,,,65,0
78216,note_on,0,0,4,,,,,,,,0,,,69,0
78221,control_change,5,0,4,,,,,,,,0,64,127,,
78240,note_on,0,0,4,,,,,,,,0,,,67,80
78240,note_on,19,0,4,,,,,,,,0,,,64,80
78336,note_on,96,0,4,,,,,,,,0,,,67,0
78336,note_on,0,0,4,,,,,,,,0,,,64,0
78360,note_on,24,0,4,,,,,,,,0,,,53,80
78456,note_on,96,0,4,,,,,,,,0,,,53,0
78480,note_on,0,0,4,,,,,,,,0,,,62,80
78480,control_change,24,0,4,,,,,,,,0,64,0,,
78480,note_on,0,0,4,,,,,,,,0,,,65,80
78566,control_change,86,0,4,,,,,,,,0,64,127,,
78576,note_on,10,0,4,,,,,,,,0,,,65,0
78576,note_on,0,0,4,,,,,,,,0,,,62,0
78600,note_on,24,0,4,,,,,,,,0,,,53,80
78648,note_on,528,0,1,,,,,,,,0,,,86,0
78648,note_on,0,0,1,,,,,,,,0,,,74,0
78696,note_on,96,0,4,,,,,,,,0,,,53,0
78720,note_on,24,0,4,,,,,,,,0,,,62,80
78720,note_on,0,0,4,,,,,,,,0,,,65,80
78816,note_on,0,0,4,,,,,,,,0,,,62,0
78816,note_on,96,0,4,,,,,,,,0,,,65,0
78829,control_change,13,0,4,,,,,,,,0,64,0,,
78840,note_on,192,0,1,,,,,,,,0,,,77,88
78840,note_on,11,0,4,,,,,,,,0,,,64,80
78840,note_on,0,0,1,,,,,,,,0,,,89,88
78840,note_on,0,0,4,,,,,,,,0,,,60,80
78880,control_change,40,0,4,,,,,,,,0,64,127,,
78936,note_on,0,0,4,,,,,,,,0,,,64,0
78936,note_on,56,0,4,,,,,,,,0,,,60,0
78960,note_on,0,0,4,,,,,,,,0,,,58,80
78960,note_on,24,0,4,,,,,,,,0,,,62,80
79056,note_on,96,0,4,,,,,,,,0,,,58,0
79080,note_on,24,0,4,,,,,,,,0,,,53,80
79128,note_on,288,0,1,,,,,,,,0,,,89,0
79128,note_on,0,0,1,,,,,,,,0,,,77,0
79176,note_on,0,0,4,,,,,,,,0,,,62,0
79176,note_on,96,0,4,,,,,,,,0,,,53,0
79200,note_on,72,0,1,,,,,,,,0,,,89,88
79200,note_on,0,0,4,,,,,,,,0,,,57,80
79200,note_on,0,0,1,,,,,,,,0,,,77,88
79200,note_on,0,0,4,,,,,,,,0,,,60,80
79200,control_change,24,0,4,,,,,,,,0,64,0,,
79263,control_change,63,0,4,,,,,,,,0,64,127,,
79296,note_on,33,0,4,,,,,,,,0,,,60,0
79296,note_on,0,0,4,,,,,,,,0,,,57,0
79320,note_on,0,0,4,,,,,,,,0,,,58,80
79320,note_on,24,0,4,,,,,,,,0,,,62,80
79416,note_on,96,0,4,,,,,,,,0,,,58,0
79440,note_on,24,0,4,,,,,,,,0,,,53,80
79488,note_on,288,0,1,,,,,,,,0,,,77,0
79488,note_on,0,0,1,,,,,,,,0,,,89,0
79536,note_on,96,0,4,,,,,,,,0,,,53,0
79536,note_on,0,0,4,,,,,,,,0,,,62,0
79560,note_on,0,0,1,,,,,,,,0,,,77,88
79560,note_on,72,0,1,,,,,,,,0,,,89,88
79560,note_on,0,0,4,,,,,,,,0,,,55,80
79560,note_on,24,0,4,,,,,,,,0,,,58,80
79566,control_change,6,0,4,,,,,,,,0,64,0,,
79640,control_change,74,0,4,,,,,,,,0,64,127,,
79656,note_on,0,0,4,,,,,,,,0,,,58,0
79656,note_on,16,0,4,,,,,,,,0,,,55,0
79680,note_on,24,0,4,,,,,,,,0,,,57,80
79680,note_on,0,0,4,,,,,,,,0,,,60,80
79776,note_on,96,0,4,,,,,,,,0,,,57,0
79800,note_on,24,0,4,,,,,,,,0,,,53,80
79848,note_on,288,0,1,,,,,,,,0,,,77,0
79848,note_on,0,0,1,,,,,,,,0,,,89,0
79896,note_on,96,0,4,,,,,,,,0,,,60,0
79912,set_tempo,5754,1,0,,,,,,670991,,,,,,
79920,note_on,72,0,1,,,,,,,,0,,,96,88
79920,note_on,0,0,1,,,,,,,,0,,,84,88
79920,note_on,0,0,4,,,,,,,,0,,,57,80
79920,control_change,24,0,4,,,,,,,,0,64,0,,
80013,control_change,93,0,4,,,,,,,,0,64,127,,
80016,note_on,3,0,4,,,,,,,,0,,,57,0
80016,note_on,0,0,4,,,,,,,,0,,,53,0
80021,set_tempo,109,1,0,,,,,,676590,,,,,,
80040,note_on,24,0,4,,,,,,,,0,,,41,80
80130,set_tempo,109,1,0,,,,,,682283,,,,,,
80136,note_on,96,0,4,,,,,,,,0,,,41,0
80160,note_on,24,0,4,,,,,,,,0,,,57,80
80160,note_on,0,0,4,,,,,,,,0,,,53,80
80208,note_on,0,0,1,,,,,,,,0,,,96,0
80208,note_on,288,0,1,,,,,,,,0,,,84,0
80239,set_tempo,109,1,0,,,,,,688073,,,,,,
80256,note_on,0,0,4,,,,,,,,0,,,57,0
80256,note_on,96,0,4,,,,,,,,0,,,53,0
80267,control_change,11,0,4,,,,,,,,0,64,0,,
80280,note_on,0,0,4,,,,,,,,0,,,55,80
80280,note_on,13,0,4,,,,,,,,0,,,52,80
80280,note_on,72,0,1,,,,,,,,0,,,96,88
80280,note_on,0,0,1,,,,,,,,0,,,84,88
80344,set_tempo,105,1,0,,,,,,693963,,,,,,
80367,control_change,87,0,4,,,,,,,,0,64,127,,
80376,note_on,9,0,4,,,,,,,,0,,,55,0
80376,note_on,0,0,4,,,,,,,,0,,,52,0
80400,note_on,24,0,4,,,,,,,,0,,,53,80
80400,note_on,0,0,4,,,,,,,,0,,,50,80
80453,set_tempo,109,1,0,,,,,,699953,,,,,,
80496,note_on,96,0,4,,,,,,,,0,,,50,0
80496,note_on,0,0,4,,,,,,,,0,,,53,0
80520,note_on,24,0,4,,,,,,,,0,,,41,80
80562,set_tempo,109,1,0,,,,,,706048,,,,,,
80568,note_on,288,0,1,,,,,,,,0,,,84,0
80568,note_on,0,0,1,,,,,,,,0,,,96,0
80616,note_on,96,0,4,,,,,,,,0,,,41,0
80640,note_on,0,0,4,,,,,,,,0,,,52,80
80640,control_change,24,0,4,,,,,,,,0,64,0,,
80640,note_on,72,0,1,,,,,,,,0,,,96,88
80640,note_on,0,0,4,,,,,,,,0,,,48,80
80640,note_on,0,0,1,,,,,,,,0,,,84,88
80642,set_tempo,80,1,0,,,,,,665484,,,,,,
80646,set_tempo,4,1,0,,,,,,670991,,,,,,
80726,control_change,86,0,4,,,,,,,,0,64,127,,
80736,note_on,0,0,4,,,,,,,,0,,,48,0
80736,note_on,10,0,4,,,,,,,,0,,,52,0
80760,note_on,0,0,4,,,,,,,,0,,,50,80
80760,note_on,24,0,4,,,,,,,,0,,,53,80
80856,note_on,96,0,4,,,,,,,,0,,,50,0
80880,note_on,24,0,4,,,,,,,,0,,,41,80
80928,note_on,0,0,1,,,,,,,,0,,,96,0
80928,note_on,288,0,1,,,,,,,,0,,,84,0
80976,note_on,0,0,4,,,,,,,,0,,,53,0
80976,note_on,96,0,4,,,,,,,,0,,,41,0
80994,control_change,18,0,4,,,,,,,,0,64,0,,
81000,note_on,72,0,1,,,,,,,,0,,,96,88
81000,note_on,0,0,4,,,,,,,,0,,,50,80
81000,note_on,0,0,1,,,,,,,,0,,,84,88
81000,note_on,6,0,4,,,,,,,,0,,,46,80
81086,control_change,86,0,4,,,,,,,,0,64,127,,
81096,note_on,0,0,4,,,,,,,,0,,,46,0
81096,note_on,10,0,4,,,,,,,,0,,,50,0
81120,note_on,24,0,4,,,,,,,,0,,,48,80
81120,note_on,0,0,4,,,,,,,,0,,,52,80
81216,note_on,96,0,4,,,,,,,,0,,,48,0
81240,note_on,24,0,4,,,,,,,,0,,,41,80
81288,note_on,288,0,1,,,,,,,,0,,,84,0
81288,note_on,0,0,1,,,,,,,,0,,,96,0
81336,note_on,0,0,4,,,,,,,,0,,,52,0
81336,note_on,96,0,4,,,,,,,,0,,,41,0
81360,note_on,0,0,4,,,,,,,,0,,,48,80
81360,note_on,72,0,1,,,,,,,,0,,,101,88
81360,note_on,0,0,1,,,,,,,,0,,,89,88
81360,control_change,24,0,4,,,,,,,,0,64,0,,
81360,note_on,0,0,4,,,,,,,,0,,,45,80
81362,set_tempo,716,1,0,,,,,,676590,,,,,,
81447,control_change,87,0,4,,,,,,,,0,64,127,,
81456,note_on,9,0,4,,,,,,,,0,,,45,0
81456,note_on,0,0,4,,,,,,,,0,,,48,0
81480,note_on,24,0,4,,,,,,,,0,,,41,80
81576,note_on,96,0,4,,,,,,,,0,,,41,0
81600,note_on,24,0,4,,,,,,,,0,,,40,80
81696,note_on,96,0,4,,,,,,,,0,,,40,0
81720,control_change,24,0,4,,,,,,,,0,64,0,,
81720,note_on,0,0,4,,,,,,,,0,,,38,80
81720,note_on,17664,0,3,,,,,,,,0,,,41,80
81720,note_on,0,0,3,,,,,,,,0,,,45,80
81793,control_change,73,0,4,,,,,,,,0,64,127,,
81816,note_on,23,0,4,,,,,,,,0,,,38,0
81840,note_on,24,0,4,,,,,,,,0,,,40,80
81936,note_on,96,0,4,,,,,,,,0,,,40,0
81960,note_on,24,0,4,,,,,,,,0,,,38,80
82008,note_on,288,0,3,,,,,,,,0,,,45,0
82008,note_on,0,0,3,,,,,,,,0,,,41,0
82056,note_on,96,0,4,,,,,,,,0,,,38,0
82077,set_tempo,715,1,0,,,,,,665484,,,,,,
82080,note_on,0,0,4,,,,,,,,0,,,36,80
82080,control_change,24,0,4,,,,,,,,0,64,0,,
82080,note_on,0,0,3,,,,,,,,0,,,41,80
82080,note_on,72,0,3,,,,,,,,0,,,45,80
82160,control_change,80,0,4,,,,,,,,0,64,127,,
82176,note_on,16,0,4,,,,,,,,0,,,36,0
82178,set_tempo,101,1,0,,,,,,670991,,,,,,
82200,note_on,24,0,4,,,,,,,,0,,,38,80
82274,set_tempo,96,1,0,,,,,,676590,,,,,,
82296,note_on,96,0,4,,,,,,,,0,,,38,0
82320,note_on,24,0,4,,,,,,,,0,,,36,80
82368,note_on,0,0,3,,,,,,,,0,,,45,0
82368,note_on,288,0,3,,,,,,,,0,,,41,0
82374,set_tempo,100,1,0,,,,,,682283,,,,,,
82416,note_on,96,0,4,,,,,,,,0,,,36,0
82440,note_on,0,0,3,,,,,,,,0,,,45,80
82440,note_on,72,0,3,,,,,,,,0,,,41,80
82440,control_change,24,0,4,,,,,,,,0,64,0,,
82440,note_on,0,0,4,,,,,,,,0,,,34,80
82470,set_tempo,96,1,0,,,,,,688073,,,,,,
82497,control_change,57,0,4,,,,,,,,0,64,127,,
82536,note_on,39,0,4,,,,,,,,0,,,34,0
82560,note_on,24,0,4,,,,,,,,0,,,36,80
82570,set_tempo,100,1,0,,,,,,693963,,,,,,
82656,note_on,96,0,4,,,,,,,,0,,,36,0
82656,note_on,1296,0,1,,,,,,,,0,,,89,0
82656,note_on,0,0,1,,,,,,,,0,,,101,0
82666,set_tempo,96,1,0,,,,,,699953,,,,,,
82680,note_on,24,0,4,,,,,,,,0,,,34,80
82728,note_on,288,0,3,,,,,,,,0,,,45,0
82728,note_on,0,0,3,,,,,,,,0,,,41,0
82767,set_tempo,101,1,0,,,,,,706048,,,,,,
82776,note_on,96,0,4,,,,,,,,0,,,34,0
82800,note_on,0,0,4,,,,,,,,0,,,33,80
82800,note_on,0,0,1,,,,,,,,0,,,89,80
82800,note_on,144,0,1,,,,,,,,0,,,101,80
82800,note_on,72,0,3,,,,,,,,0,,,48,80
82800,control_change,24,0,4,,,,,,,,0,64,0,,
82800,note_on,0,0,3,,,,,,,,0,,,41,80
82863,set_tempo,96,1,0,,,,,,712251,,,,,,
82867,control_change,67,0,4,,,,,,,,0,64,127,,
82896,note_on,96,0,3,,,,,,,,0,,,41,0
82896,note_on,0,0,3,,,,,,,,0,,,48,0
82896,note_on,29,0,4,,,,,,,,0,,,33,0
82920,note_on,24,0,4,,,,,,,,0,,,41,80
82963,set_tempo,100,1,0,,,,,,718563,,,,,,
83016,note_on,96,0,4,,,,,,,,0,,,41,0
83040,note_on,24,0,4,,,,,,,,0,,,40,80
83059,set_tempo,96,1,0,,,,,,724988,,,,,,
83136,note_on,96,0,4,,,,,,,,0,,,40,0
83155,set_tempo,96,1,0,,,,,,731529,,,,,,
83160,note_on,0,0,4,,,,,,,,0,,,38,80
83160,note_on,264,0,3,,,,,,,,0,,,45,80
83160,note_on,0,0,3,,,,,,,,0,,,41,80
83160,control_change,24,0,4,,,,,,,,0,64,0,,
83227,control_change,67,0,4,,,,,,,,0,64,127,,
83255,set_tempo,100,1,0,,,,,,738189,,,,,,
83256,note_on,29,0,4,,,,,,,,0,,,38,0
83280,note_on,24,0,4,,,,,,,,0,,,40,80
83351,set_tempo,96,1,0,,,,,,744971,,,,,,
83376,note_on,576,0,1,,,,,,,,0,,,89,0
83376,note_on,96,0,4,,,,,,,,0,,,40,0
83376,note_on,0,0,1,,,,,,,,0,,,101,0
83400,note_on,24,0,4,,,,,,,,0,,,38,80
83448,note_on,288,0,3,,,,,,,,0,,,41,0
83448,note_on,0,0,3,,,,,,,,0,,,45,0
83452,set_tempo,101,1,0,,,,,,751880,,,,,,
83496,note_on,96,0,4,,,,,,,,0,,,38,0
83520,control_change,24,0,4,,,,,,,,0,64,0,,
83520,note_on,0,0,3,,,,,,,,0,,,45,80
83520,note_on,0,0,4,,,,,,,,0,,,36,80
83520,note_on,144,0,1,,,,,,,,0,,,101,80
83520,note_on,72,0,3,,,,,,,,0,,,41,80
83520,note_on,0,0,1,,,,,,,,0,,,89,80
83548,set_tempo,96,1,0,,,,,,758917,,,,,,
83600,control_change,80,0,4,,,,,,,,0,64,127,,
83616,note_on,16,0,4,,,,,,,,0,,,36,0
83640,note_on,24,0,4,,,,,,,,0,,,38,80
83648,set_tempo,100,1,0,,,,,,766088,,,,,,
83666,set_tempo,18,1,0,,,,,,804074,,,,,,
83670,set_tempo,4,1,0,,,,,,812128,,,,,,
83736,note_on,96,0,4,,,,,,,,0,,,38,0
83760,note_on,24,0,4,,,,,,,,0,,,36,80
83808,note_on,0,0,3,,,,,,,,0,,,41,0
83808,note_on,288,0,3,,,,,,,,0,,,45,0
83856,note_on,96,0,4,,,,,,,,0,,,36,0
83880,note_on,0,0,3,,,,,,,,0,,,41,80
83880,note_on,72,0,3,,,,,,,,0,,,45,80
83880,note_on,24,0,4,,,,,,,,0,,,34,80
83886,control_change,6,0,4,,,,,,,,0,64,0,,
83943,control_change,57,0,4,,,,,,,,0,64,127,,
83949,set_tempo,279,1,0,,,,,,820345,,,,,,
83976,note_on,33,0,4,,,,,,,,0,,,34,0
84000,note_on,24,0,4,,,,,,,,0,,,36,80
84096,note_on,96,0,4,,,,,,,,0,,,36,0
84096,note_on,0,0,1,,,,,,,,0,,,101,0
84096,note_on,576,0,1,,,,,,,,0,,,89,0
84120,note_on,24,0,4,,,,,,,,0,,,34,80
84168,note_on,0,0,3,,,,,,,,0,,,45,0
84168,note_on,288,0,3,,,,,,,,0,,,41,0
84216,note_on,96,0,4,,,,,,,,0,,,34,0
84233,set_tempo,284,1,0,,,,,,812128,,,,,,
84240,note_on,0,0,4,,,,,,,,0,,,41,80
84240,note_on,0,0,4,,,,,,,,0,,,29,80
84240,control_change,24,0,4,,,,,,,,0,64,0,,
84240,note_on,0,0,4,,,,,,,,0,,,48,80
84240,note_on,144,0,1,,,,,,,,0,,,101,80
84240,note_on,0,0,1,,,,,,,,0,,,89,80
84287,control_change,47,0,4,,,,,,,,0,64,127,,
84336,note_on,0,0,4,,,,,,,,0,,,41,0
84336,note_on,49,0,4,,,,,,,,0,,,48,0
84336,note_on,0,0,4,,,,,,,,0,,,29,0
84360,note_on,24,0,4,,,,,,,,0,,,38,80
84432,note_on,0,0,1,,,,,,,,0,,,101,0
84432,end_of_track,0,1,1,,,,,,,,,,,,
84432,note_on,192,0,1,,,,,,,,0,,,89,0
84456,note_on,96,0,4,,,,,,,,0,,,38,0
84480,note_on,24,0,4,,,,,,,,0,,,36,80
84576,note_on,96,0,4,,,,,,,,0,,,36,0
84600,note_on,0,0,4,,,,,,,,0,,,41,80
84600,note_on,0,0,4,,,,,,,,0,,,45,80
84600,note_on,24,0,4,,,,,,,,0,,,38,80
84613,control_change,13,0,4,,,,,,,,0,64,0,,
84707,control_change,94,0,4,,,,,,,,0,64,127,,
84957,set_tempo,724,1,0,,,,,,820345,,,,,,
84960,control_change,253,0,4,,,,,,,,0,64,0,,
84997,set_tempo,40,1,0,,,,,,828729,,,,,,
85036,set_tempo,39,1,0,,,,,,837287,,,,,,
85046,control_change,86,0,4,,,,,,,,0,64,127,,
85056,note_on,0,0,4,,,,,,,,0,,,38,0
85056,note_on,0,0,4,,,,,,,,0,,,41,0
85056,note_on,10,0,4,,,,,,,,0,,,45,0
85075,set_tempo,39,1,0,,,,,,846024,,,,,,
85080,note_on,24,0,4,,,,,,,,0,,,38,80
85110,set_tempo,35,1,0,,,,,,854944,,,,,,
85149,set_tempo,39,1,0,,,,,,864055,,,,,,
85176,note_on,96,0,4,,,,,,,,0,,,38,0
85189,set_tempo,40,1,0,,,,,,873362,,,,,,
85200,note_on,24,0,4,,,,,,,,0,,,36,80
85224,set_tempo,35,1,0,,,,,,882872,,,,,,
85263,set_tempo,39,1,0,,,,,,892591,,,,,,
85296,note_on,96,0,4,,,,,,,,0,,,36,0
85302,set_tempo,39,1,0,,,,,,902527,,,,,,
85314,control_change,18,0,4,,,,,,,,0,64,0,,
85320,note_on,6,0,4,,,,,,,,0,,,45,80
85320,note_on,0,0,4,,,,,,,,0,,,34,80
85320,note_on,0,0,4,,,,,,,,0,,,41,80
85337,set_tempo,35,1,0,,,,,,912686,,,,,,
85360,control_change,40,0,4,,,,,,,,0,64,127,,
85376,set_tempo,39,1,0,,,,,,923077,,,,,,
85416,set_tempo,40,1,0,,,,,,933707,,,,,,
85451,set_tempo,35,1,0,,,,,,944584,,,,,,
85490,set_tempo,39,1,0,,,,,,955718,,,,,,
85512,note_on,0,0,4,,,,,,,,0,,,45,0
85512,note_on,152,0,4,,,,,,,,0,,,34,0
85512,note_on,0,0,4,,,,,,,,0,,,41,0
85529,set_tempo,39,1,0,,,,,,967118,,,,,,
85560,note_on,48,0,4,,,,,,,,0,,,35,80
85564,set_tempo,35,1,0,,,,,,978793,,,,,,
85603,set_tempo,39,1,0,,,,,,990753,,,,,,
85643,set_tempo,40,1,0,,,,,,1003009,,,,,,
85656,note_on,96,0,4,,,,,,,,0,,,35,0
85674,set_tempo,31,1,0,,,,,,1332741,,,,,,
85678,set_tempo,4,1,0,,,,,,1311189,,,,,,
85680,note_on,24,0,4,,,,,,,,0,,,35,80
85683,set_tempo,5,1,0,,,,,,1290323,,,,,,
85687,set_tempo,4,1,0,,,,,,1250521,,,,,,
85692,set_tempo,5,1,0,,,,,,1231527,,,,,,
85696,set_tempo,4,1,0,,,,,,1213101,,,,,,
85700,set_tempo,4,1,0,,,,,,1177856,,,,,,
85705,set_tempo,5,1,0,,,,,,1160991,,,,,,
85709,set_tempo,4,1,0,,,,,,1144601,,,,,,
85712,note_on,32,0,4,,,,,,,,0,,,35,0
85713,set_tempo,4,1,0,,,,,,1113173,,,,,,
85718,set_tempo,5,1,0,,,,,,1098097,,,,,,
85720,note_on,8,0,4,,,,,,,,0,,,36,80
85722,set_tempo,4,1,0,,,,,,1083424,,,,,,
85726,set_tempo,4,1,0,,,,,,1055223,,,,,,
85731,set_tempo,5,1,0,,,,,,1041667,,,,,,
85735,set_tempo,4,1,0,,,,,,1028454,,,,,,
85740,set_tempo,5,1,0,,,,,,1003009,,,,,,
85744,set_tempo,4,1,0,,,,,,990753,,,,,,
85748,set_tempo,4,1,0,,,,,,978793,,,,,,
85752,note_on,32,0,4,,,,,,,,0,,,36,0
85753,set_tempo,5,1,0,,,,,,955718,,,,,,
85757,set_tempo,4,1,0,,,,,,944584,,,,,,
85760,note_on,8,0,4,,,,,,,,0,,,38,80
85761,set_tempo,4,1,0,,,,,,933707,,,,,,
85766,set_tempo,5,1,0,,,,,,912686,,,,,,
85770,set_tempo,4,1,0,,,,,,902527,,,,,,
85774,set_tempo,4,1,0,,,,,,892591,,,,,,
85779,set_tempo,5,1,0,,,,,,873362,,,,,,
85783,set_tempo,4,1,0,,,,,,864055,,,,,,
85788,set_tempo,5,1,0,,,,,,854944,,,,,,
85792,note_on,32,0,4,,,,,,,,0,,,38,0
85792,set_tempo,4,1,0,,,,,,1015572,,,,,,
85800,note_on,1632,0,3,,,,,,,,0,,,45,80
85800,note_on,0,0,3,,,,,,,,0,,,41,80
85800,note_on,8,0,4,,,,,,,,0,,,36,80
85802,set_tempo,10,1,0,,,,,,1378043,,,,,,
85803,control_change,3,0,4,,,,,,,,0,64,0,,
85832,control_change,29,0,4,,,,,,,,0,64,127,,
85992,note_on,160,0,4,,,,,,,,0,,,36,0
86040,note_on,48,0,4,,,,,,,,0,,,33,80
86088,end_of_track,0,1,3,,,,,,,,,,,,
86088,note_on,0,0,3,,,,,,,,0,,,45,0
86088,note_on,288,0,3,,,,,,,,0,,,41,0
86136,note_on,96,0,4,,,,,,,,0,,,33,0
86154,control_change,18,0,4,,,,,,,,0,64,0,,
86160,note_on,6,0,4,,,,,,,,0,,,29,80
86180,note_on,20,0,4,,,,,,,,0,,,41,80
86195,control_change,15,0,4,,,,,,,,0,64,127,,
86200,note_on,5,0,4,,,,,,,,0,,,45,80
86400,set_tempo,598,1,0,,,,,,1401869,,,,,,
86403,end_of_track,0,1,0,,,,,,,,,,,,
86403,set_tempo,3,1,0,,,,,,1378043,,,,,,
86528,control_change,328,0,4,,,,,,,,0,64,0,,
87024,end_of_track,0,1,4,,,,,,,,,,,,
87024,note_on,496,0,4,,,,,,,,0,,,45,0
87024,note_on,0,0,4,,,,,,,,0,,,29,0
87024,note_on,0,0,4,,,,,,,,0,,,41,0
