tick,type,time,meta,track,numerator,denominator,clocks_per_click,notated_32nd_notes_per_beat,key,tempo,program,channel,control,value,note,velocity
0,control_change,0,0,1,,,,,,,,0,7,127,,
0,track_name,0,1,2,,,,,,,,,,,,
0,track_name,0,1,1,,,,,,,,,,,,
0,track_name,0,1,0,,,,,,,,,,,,
0,time_signature,0,1,0,6,8,12,8,,,,,,,,
0,set_tempo,0,1,0,,,,,,433965,,,,,,
0,program_change,0,0,4,,,,,,,0,0,,,,
0,program_change,0,0,3,,,,,,,0,0,,,,
0,program_change,0,0,2,,,,,,,0,0,,,,
0,program_change,0,0,1,,,,,,,0,0,,,,
0,track_name,0,1,3,,,,,,,,,,,,
0,key_signature,0,1,0,,,,,C,,,,,,,
0,track_name,0,1,4,,,,,,,,,,,,
0,control_change,0,0,1,,,,,,,,0,10,64,,
0,control_change,0,0,2,,,,,,,,0,7,127,,
0,control_change,0,0,2,,,,,,,,0,10,64,,
0,control_change,0,0,3,,,,,,,,0,7,127,,
0,control_change,0,0,4,,,,,,,,0,7,127,,
0,control_change,0,0,3,,,,,,,,0,10,64,,
0,control_change,0,0,4,,,,,,,,0,10,64,,
676,control_change,676,0,4,,,,,,,,0,64,127,,
690,note_on,690,0,1,,,,,,,,0,,,48,77
690,note_on,14,0,4,,,,,,,,0,,,36,88
750,note_on,750,0,2,,,,,,,,0,,,50,56
750,note_on,750,0,3,,,,,,,,0,,,38,56
774,note_on,24,0,2,,,,,,,,0,,,50,0
774,note_on,24,0,3,,,,,,,,0,,,38,0
780,note_on,6,0,3,,,,,,,,0,,,39,56
780,note_on,6,0,2,,,,,,,,0,,,51,56
804,note_on,24,0,3,,,,,,,,0,,,39,0
804,note_on,24,0,2,,,,,,,,0,,,51,0
810,note_on,6,0,3,,,,,,,,0,,,41,56
810,note_on,6,0,2,,,,,,,,0,,,53,56
816,note_on,126,0,4,,,,,,,,0,,,36,0
816,note_on,126,0,1,,,,,,,,0,,,48,0
834,note_on,24,0,3,,,,,,,,0,,,41,0
834,note_on,24,0,2,,,,,,,,0,,,53,0
840,note_on,24,0,4,,,,,,,,0,,,43,88
840,note_on,24,0,1,,,,,,,,0,,,55,77
870,note_on,36,0,3,,,,,,,,0,,,36,56
870,note_on,36,0,2,,,,,,,,0,,,48,56
894,note_on,24,0,2,,,,,,,,0,,,48,0
894,note_on,24,0,3,,,,,,,,0,,,36,0
900,note_on,6,0,2,,,,,,,,0,,,50,56
900,note_on,6,0,3,,,,,,,,0,,,38,56
924,note_on,24,0,2,,,,,,,,0,,,50,0
924,note_on,24,0,3,,,,,,,,0,,,38,0
930,note_on,6,0,3,,,,,,,,0,,,39,56
930,note_on,6,0,2,,,,,,,,0,,,51,56
936,note_on,96,0,1,,,,,,,,0,,,55,0
936,note_on,96,0,4,,,,,,,,0,,,43,0
954,note_on,24,0,3,,,,,,,,0,,,39,0
954,note_on,24,0,2,,,,,,,,0,,,51,0
960,note_on,24,0,1,,,,,,,,0,,,53,77
960,note_on,24,0,4,,,,,,,,0,,,41,88
990,note_on,36,0,3,,,,,,,,0,,,43,56
990,note_on,36,0,2,,,,,,,,0,,,55,56
1014,note_on,24,0,2,,,,,,,,0,,,55,0
1014,note_on,24,0,3,,,,,,,,0,,,43,0
1020,note_on,6,0,3,,,,,,,,0,,,36,56
1020,note_on,6,0,2,,,,,,,,0,,,48,56
1044,note_on,24,0,3,,,,,,,,0,,,36,0
1044,note_on,24,0,2,,,,,,,,0,,,48,0
1050,note_on,6,0,3,,,,,,,,0,,,38,56
1050,note_on,6,0,2,,,,,,,,0,,,50,56
1056,note_on,96,0,4,,,,,,,,0,,,41,0
1056,note_on,96,0,1,,,,,,,,0,,,53,0
1074,note_on,24,0,2,,,,,,,,0,,,50,0
1074,note_on,24,0,3,,,,,,,,0,,,38,0
1080,note_on,24,0,4,,,,,,,,0,,,39,88
1080,note_on,24,0,1,,,,,,,,0,,,51,77
1110,note_on,36,0,3,,,,,,,,0,,,41,56
1110,note_on,36,0,2,,,,,,,,0,,,53,56
1134,note_on,24,0,2,,,,,,,,0,,,53,0
1134,note_on,24,0,3,,,,,,,,0,,,41,0
1140,note_on,6,0,3,,,,,,,,0,,,43,56
1140,note_on,6,0,2,,,,,,,,0,,,55,56
1164,note_on,24,0,3,,,,,,,,0,,,43,0
1164,note_on,24,0,2,,,,,,,,0,,,55,0
1170,note_on,6,0,3,,,,,,,,0,,,36,56
1170,note_on,6,0,2,,,,,,,,0,,,48,56
1176,note_on,96,0,1,,,,,,,,0,,,51,0
1176,note_on,96,0,4,,,,,,,,0,,,39,0
1194,note_on,24,0,2,,,,,,,,0,,,48,0
1194,note_on,24,0,3,,,,,,,,0,,,36,0
1200,note_on,24,0,4,,,,,,,,0,,,38,88
1200,note_on,24,0,1,,,,,,,,0,,,50,77
1230,note_on,36,0,3,,,,,,,,0,,,39,56
1230,note_on,36,0,2,,,,,,,,0,,,51,56
1254,note_on,24,0,2,,,,,,,,0,,,51,0
1254,note_on,24,0,3,,,,,,,,0,,,39,0
1260,note_on,6,0,2,,,,,,,,0,,,53,56
1260,note_on,6,0,3,,,,,,,,0,,,41,56
1284,note_on,24,0,3,,,,,,,,0,,,41,0
1284,note_on,24,0,2,,,,,,,,0,,,53,0
1290,note_on,6,0,2,,,,,,,,0,,,55,56
1290,note_on,6,0,3,,,,,,,,0,,,43,56
1295,control_change,95,0,4,,,,,,,,0,64,0,,
1296,note_on,1,0,4,,,,,,,,0,,,38,0
1296,note_on,96,0,1,,,,,,,,0,,,50,0
1314,note_on,24,0,2,,,,,,,,0,,,55,0
1314,note_on,24,0,3,,,,,,,,0,,,43,0
1320,note_on,24,0,4,,,,,,,,0,,,36,88
1320,note_on,24,0,1,,,,,,,,0,,,48,77
1416,note_on,96,0,1,,,,,,,,0,,,48,0
1416,note_on,96,0,4,,,,,,,,0,,,36,0
1440,note_on,0,0,1,,,,,,,,0,,,75,80
1440,note_on,0,0,1,,,,,,,,0,,,84,80
1440,note_on,24,0,1,,,,,,,,0,,,72,80
1440,note_on,0,0,4,,,,,,,,0,,,51,80
1440,note_on,0,0,4,,,,,,,,0,,,55,80
1440,note_on,0,0,4,,,,,,,,0,,,60,80
1440,note_on,24,0,4,,,,,,,,0,,,48,80
1536,note_on,96,0,1,,,,,,,,0,,,84,0
1536,note_on,0,0,4,,,,,,,,0,,,60,0
1536,note_on,96,0,4,,,,,,,,0,,,51,0
1536,note_on,0,0,4,,,,,,,,0,,,48,0
1536,note_on,0,0,4,,,,,,,,0,,,55,0
1536,note_on,0,0,1,,,,,,,,0,,,75,0
1536,note_on,0,0,1,,,,,,,,0,,,72,0
1620,note_on,0,0,1,,,,,,,,0,,,79,80
1620,note_on,84,0,4,,,,,,,,0,,,55,80
1620,note_on,0,0,4,,,,,,,,0,,,51,80
1620,note_on,0,0,4,,,,,,,,0,,,60,80
1620,note_on,0,0,4,,,,,,,,0,,,48,80
1620,note_on,0,0,1,,,,,,,,0,,,72,80
1620,note_on,84,0,1,,,,,,,,0,,,75,80
1620,note_on,0,0,1,,,,,,,,0,,,67,80
1668,note_on,0,0,1,,,,,,,,0,,,75,0
1668,note_on,0,0,1,,,,,,,,0,,,79,0
1668,note_on,0,0,1,,,,,,,,0,,,67,0
1668,note_on,48,0,4,,,,,,,,0,,,51,0
1668,note_on,0,0,4,,,,,,,,0,,,48,0
1668,note_on,0,0,4,,,,,,,,0,,,55,0
1668,note_on,0,0,4,,,,,,,,0,,,60,0
1668,note_on,48,0,1,,,,,,,,0,,,72,0
1680,note_on,12,0,4,,,,,,,,0,,,48,80
1680,note_on,0,0,1,,,,,,,,0,,,75,80
1680,note_on,0,0,1,,,,,,,,0,,,72,80
1680,note_on,0,0,1,,,,,,,,0,,,67,80
1680,note_on,0,0,4,,,,,,,,0,,,60,80
1680,note_on,0,0,4,,,,,,,,0,,,55,80
1680,note_on,0,0,4,,,,,,,,0,,,51,80
1680,note_on,12,0,1,,,,,,,,0,,,79,80
1776,note_on,96,0,1,,,,,,,,0,,,67,0
1776,note_on,0,0,1,,,,,,,,0,,,79,0
1776,note_on,0,0,1,,,,,,,,0,,,75,0
1776,note_on,0,0,1,,,,,,,,0,,,72,0
1776,note_on,96,0,4,,,,,,,,0,,,60,0
1776,note_on,0,0,4,,,,,,,,0,,,55,0
1776,note_on,0,0,4,,,,,,,,0,,,51,0
1776,note_on,0,0,4,,,,,,,,0,,,48,0
1980,note_on,0,0,4,,,,,,,,0,,,55,80
1980,note_on,204,0,1,,,,,,,,0,,,75,80
1980,note_on,0,0,1,,,,,,,,0,,,67,80
1980,note_on,0,0,1,,,,,,,,0,,,63,80
1980,note_on,0,0,4,,,,,,,,0,,,48,80
1980,note_on,204,0,4,,,,,,,,0,,,51,80
1980,note_on,0,0,4,,,,,,,,0,,,60,80
2028,note_on,0,0,1,,,,,,,,0,,,75,0
2028,note_on,0,0,4,,,,,,,,0,,,60,0
2028,note_on,0,0,4,,,,,,,,0,,,51,0
2028,note_on,0,0,1,,,,,,,,0,,,63,0
2028,note_on,48,0,1,,,,,,,,0,,,67,0
2028,note_on,48,0,4,,,,,,,,0,,,55,0
2028,note_on,0,0,4,,,,,,,,0,,,48,0
2040,note_on,12,0,1,,,,,,,,0,,,67,80
2040,note_on,0,0,1,,,,,,,,0,,,75,80
2040,note_on,12,0,4,,,,,,,,0,,,51,80
2040,note_on,0,0,1,,,,,,,,0,,,63,80
2040,note_on,0,0,4,,,,,,,,0,,,60,80
2040,note_on,0,0,4,,,,,,,,0,,,55,80
2040,note_on,0,0,4,,,,,,,,0,,,48,80
2136,note_on,0,0,4,,,,,,,,0,,,55,0
2136,note_on,0,0,4,,,,,,,,0,,,51,0
2136,note_on,0,0,4,,,,,,,,0,,,48,0
2136,note_on,0,0,1,,,,,,,,0,,,67,0
2136,note_on,96,0,4,,,,,,,,0,,,60,0
2136,note_on,96,0,1,,,,,,,,0,,,75,0
2136,note_on,0,0,1,,,,,,,,0,,,63,0
2340,note_on,0,0,1,,,,,,,,0,,,63,80
2340,note_on,204,0,4,,,,,,,,0,,,55,80
2340,note_on,204,0,1,,,,,,,,0,,,67,80
2340,note_on,0,0,4,,,,,,,,0,,,51,80
2340,note_on,0,0,4,,,,,,,,0,,,60,80
2340,note_on,0,0,4,,,,,,,,0,,,48,80
2340,note_on,0,0,1,,,,,,,,0,,,72,80
2388,note_on,0,0,4,,,,,,,,0,,,48,0
2388,note_on,0,0,4,,,,,,,,0,,,55,0
2388,note_on,48,0,4,,,,,,,,0,,,60,0
2388,note_on,0,0,4,,,,,,,,0,,,51,0
2388,note_on,48,0,1,,,,,,,,0,,,63,0
2388,note_on,0,0,1,,,,,,,,0,,,67,0
2388,note_on,0,0,1,,,,,,,,0,,,72,0
2400,note_on,12,0,1,,,,,,,,0,,,67,80
2400,note_on,12,0,4,,,,,,,,0,,,55,80
2400,note_on,0,0,4,,,,,,,,0,,,48,80
2400,note_on,0,0,4,,,,,,,,0,,,51,80
2400,note_on,0,0,1,,,,,,,,0,,,63,80
2400,note_on,0,0,1,,,,,,,,0,,,72,80
2400,note_on,0,0,4,,,,,,,,0,,,60,80
2496,note_on,0,0,4,,,,,,,,0,,,55,0
2496,note_on,0,0,4,,,,,,,,0,,,48,0
2496,note_on,0,0,4,,,,,,,,0,,,51,0
2496,note_on,0,0,1,,,,,,,,0,,,67,0
2496,note_on,96,0,4,,,,,,,,0,,,60,0
2496,note_on,96,0,1,,,,,,,,0,,,63,0
2496,note_on,0,0,1,,,,,,,,0,,,72,0
2520,note_on,24,0,1,,,,,,,,0,,,65,80
2520,note_on,24,0,4,,,,,,,,0,,,48,80
2520,note_on,0,0,1,,,,,,,,0,,,62,80
2520,note_on,0,0,1,,,,,,,,0,,,68,80
2520,note_on,0,0,1,,,,,,,,0,,,71,80
2520,note_on,0,0,4,,,,,,,,0,,,53,80
2520,note_on,0,0,4,,,,,,,,0,,,56,80
2520,note_on,0,0,4,,,,,,,,0,,,59,80
2616,note_on,96,0,1,,,,,,,,0,,,71,0
2616,note_on,0,0,4,,,,,,,,0,,,48,0
2616,note_on,0,0,4,,,,,,,,0,,,53,0
2616,note_on,0,0,4,,,,,,,,0,,,59,0
2616,note_on,0,0,1,,,,,,,,0,,,62,0
2616,note_on,0,0,1,,,,,,,,0,,,65,0
2616,note_on,0,0,1,,,,,,,,0,,,68,0
2616,note_on,96,0,4,,,,,,,,0,,,56,0
2640,note_on,0,0,4,,,,,,,,0,,,48,80
2640,note_on,0,0,4,,,,,,,,0,,,55,80
2640,note_on,0,0,4,,,,,,,,0,,,60,80
2640,note_on,0,0,1,,,,,,,,0,,,63,80
2640,note_on,0,0,1,,,,,,,,0,,,67,80
2640,note_on,24,0,4,,,,,,,,0,,,51,80
2640,note_on,24,0,1,,,,,,,,0,,,72,80
2736,note_on,0,0,1,,,,,,,,0,,,63,0
2736,note_on,96,0,4,,,,,,,,0,,,60,0
2736,note_on,96,0,1,,,,,,,,0,,,67,0
2736,note_on,0,0,4,,,,,,,,0,,,48,0
2736,note_on,0,0,4,,,,,,,,0,,,51,0
2736,note_on,0,0,4,,,,,,,,0,,,55,0
2736,note_on,0,0,1,,,,,,,,0,,,72,0
2815,control_change,79,0,4,,,,,,,,0,64,127,,
2820,note_on,1506,0,3,,,,,,,,0,,,35,80
2850,note_on,1536,0,2,,,,,,,,0,,,47,80
2895,note_on,80,0,4,,,,,,,,0,,,38,80
2895,note_on,159,0,1,,,,,,,,0,,,50,80
2904,note_on,54,0,2,,,,,,,,0,,,47,0
2904,note_on,84,0,3,,,,,,,,0,,,35,0
2910,note_on,6,0,3,,,,,,,,0,,,39,56
2910,note_on,6,0,2,,,,,,,,0,,,51,56
2934,note_on,24,0,3,,,,,,,,0,,,39,0
2934,note_on,24,0,2,,,,,,,,0,,,51,0
2940,note_on,6,0,3,,,,,,,,0,,,41,56
2940,note_on,6,0,2,,,,,,,,0,,,53,56
2964,note_on,24,0,3,,,,,,,,0,,,41,0
2964,note_on,24,0,2,,,,,,,,0,,,53,0
2970,note_on,6,0,2,,,,,,,,0,,,55,56
2970,note_on,6,0,3,,,,,,,,0,,,43,56
2994,note_on,24,0,3,,,,,,,,0,,,43,0
2994,note_on,99,0,4,,,,,,,,0,,,38,0
2994,note_on,99,0,1,,,,,,,,0,,,50,0
2994,note_on,24,0,2,,,,,,,,0,,,55,0
3000,note_on,6,0,4,,,,,,,,0,,,44,80
3000,note_on,6,0,1,,,,,,,,0,,,56,80
3030,note_on,36,0,2,,,,,,,,0,,,50,56
3030,note_on,36,0,3,,,,,,,,0,,,38,56
3054,note_on,24,0,3,,,,,,,,0,,,38,0
3054,note_on,24,0,2,,,,,,,,0,,,50,0
3060,note_on,6,0,3,,,,,,,,0,,,39,56
3060,note_on,6,0,2,,,,,,,,0,,,51,56
3084,note_on,24,0,3,,,,,,,,0,,,39,0
3084,note_on,24,0,2,,,,,,,,0,,,51,0
3090,note_on,6,0,3,,,,,,,,0,,,41,56
3090,note_on,6,0,2,,,,,,,,0,,,53,56
3096,note_on,96,0,4,,,,,,,,0,,,44,0
3096,note_on,96,0,1,,,,,,,,0,,,56,0
3114,note_on,24,0,2,,,,,,,,0,,,53,0
3114,note_on,24,0,3,,,,,,,,0,,,41,0
3120,note_on,24,0,4,,,,,,,,0,,,43,80
3120,note_on,24,0,1,,,,,,,,0,,,55,80
3150,note_on,36,0,3,,,,,,,,0,,,44,56
3150,note_on,36,0,2,,,,,,,,0,,,56,56
3174,note_on,24,0,3,,,,,,,,0,,,44,0
3174,note_on,24,0,2,,,,,,,,0,,,56,0
3180,note_on,6,0,2,,,,,,,,0,,,50,56
3180,note_on,6,0,3,,,,,,,,0,,,38,56
3204,note_on,24,0,3,,,,,,,,0,,,38,0
3204,note_on,24,0,2,,,,,,,,0,,,50,0
3210,note_on,6,0,2,,,,,,,,0,,,51,56
3210,note_on,6,0,3,,,,,,,,0,,,39,56
3216,note_on,96,0,1,,,,,,,,0,,,55,0
3216,note_on,96,0,4,,,,,,,,0,,,43,0
3234,note_on,24,0,2,,,,,,,,0,,,51,0
3234,note_on,24,0,3,,,,,,,,0,,,39,0
3240,note_on,24,0,4,,,,,,,,0,,,41,80
3240,note_on,24,0,1,,,,,,,,0,,,53,80
3270,note_on,36,0,2,,,,,,,,0,,,55,56
3270,note_on,36,0,3,,,,,,,,0,,,43,56
3294,note_on,24,0,3,,,,,,,,0,,,43,0
3294,note_on,24,0,2,,,,,,,,0,,,55,0
3300,note_on,6,0,3,,,,,,,,0,,,44,56
3300,note_on,6,0,2,,,,,,,,0,,,56,56
3324,note_on,24,0,3,,,,,,,,0,,,44,0
3324,note_on,24,0,2,,,,,,,,0,,,56,0
3330,note_on,6,0,2,,,,,,,,0,,,50,56
3330,note_on,6,0,3,,,,,,,,0,,,38,56
3336,note_on,96,0,1,,,,,,,,0,,,53,0
3336,note_on,96,0,4,,,,,,,,0,,,41,0
3354,note_on,24,0,3,,,,,,,,0,,,38,0
3354,note_on,24,0,2,,,,,,,,0,,,50,0
3360,note_on,24,0,1,,,,,,,,0,,,51,80
3360,note_on,24,0,4,,,,,,,,0,,,39,80
3390,note_on,36,0,3,,,,,,,,0,,,41,56
3390,note_on,36,0,2,,,,,,,,0,,,53,56
3414,note_on,24,0,2,,,,,,,,0,,,53,0
3414,note_on,24,0,3,,,,,,,,0,,,41,0
3420,note_on,6,0,2,,,,,,,,0,,,55,56
3420,note_on,6,0,3,,,,,,,,0,,,43,56
3444,note_on,24,0,3,,,,,,,,0,,,43,0
3444,note_on,24,0,2,,,,,,,,0,,,55,0
3445,control_change,85,0,4,,,,,,,,0,64,0,,
3450,note_on,6,0,3,,,,,,,,0,,,44,56
3450,note_on,6,0,2,,,,,,,,0,,,56,56
3456,note_on,96,0,1,,,,,,,,0,,,51,0
3456,note_on,11,0,4,,,,,,,,0,,,39,0
3474,note_on,24,0,2,,,,,,,,0,,,56,0
3474,note_on,24,0,3,,,,,,,,0,,,44,0
3480,note_on,24,0,1,,,,,,,,0,,,50,80
3480,note_on,24,0,4,,,,,,,,0,,,38,80
3576,note_on,96,0,4,,,,,,,,0,,,38,0
3576,note_on,96,0,1,,,,,,,,0,,,50,0
3600,note_on,0,0,4,,,,,,,,0,,,56,80
3600,note_on,24,0,1,,,,,,,,0,,,74,80
3600,note_on,24,0,4,,,,,,,,0,,,47,80
3600,note_on,0,0,1,,,,,,,,0,,,77,80
3600,note_on,0,0,1,,,,,,,,0,,,86,80
3600,note_on,0,0,4,,,,,,,,0,,,53,80
3600,note_on,0,0,4,,,,,,,,0,,,62,80
3696,note_on,96,0,4,,,,,,,,0,,,56,0
3696,note_on,0,0,4,,,,,,,,0,,,47,0
3696,note_on,0,0,4,,,,,,,,0,,,53,0
3696,note_on,0,0,1,,,,,,,,0,,,77,0
3696,note_on,0,0,1,,,,,,,,0,,,74,0
3696,note_on,96,0,1,,,,,,,,0,,,86,0
3696,note_on,0,0,4,,,,,,,,0,,,62,0
3780,note_on,0,0,4,,,,,,,,0,,,47,80
3780,note_on,0,0,1,,,,,,,,0,,,80,80
3780,note_on,0,0,1,,,,,,,,0,,,68,80
3780,note_on,84,0,1,,,,,,,,0,,,74,80
3780,note_on,0,0,4,,,,,,,,0,,,53,80
3780,note_on,84,0,4,,,,,,,,0,,,56,80
3780,note_on,0,0,4,,,,,,,,0,,,62,80
3828,note_on,48,0,1,,,,,,,,0,,,68,0
3828,note_on,48,0,4,,,,,,,,0,,,53,0
3828,note_on,0,0,4,,,,,,,,0,,,62,0
3828,note_on,0,0,1,,,,,,,,0,,,80,0
3828,note_on,0,0,1,,,,,,,,0,,,74,0
3828,note_on,0,0,4,,,,,,,,0,,,56,0
3828,note_on,0,0,4,,,,,,,,0,,,47,0
3840,note_on,0,0,4,,,,,,,,0,,,56,80
3840,note_on,12,0,4,,,,,,,,0,,,47,80
3840,note_on,0,0,1,,,,,,,,0,,,74,80
3840,note_on,0,0,4,,,,,,,,0,,,53,80
3840,note_on,0,0,1,,,,,,,,0,,,80,80
3840,note_on,0,0,4,,,,,,,,0,,,62,80
3840,note_on,12,0,1,,,,,,,,0,,,68,80
3936,note_on,0,0,1,,,,,,,,0,,,68,0
3936,note_on,96,0,4,,,,,,,,0,,,56,0
3936,note_on,0,0,1,,,,,,,,0,,,74,0
3936,note_on,0,0,4,,,,,,,,0,,,62,0
3936,note_on,0,0,4,,,,,,,,0,,,53,0
3936,note_on,0,0,4,,,,,,,,0,,,47,0
3936,note_on,96,0,1,,,,,,,,0,,,80,0
4140,note_on,0,0,1,,,,,,,,0,,,65,80
4140,note_on,0,0,1,,,,,,,,0,,,77,80
4140,note_on,204,0,1,,,,,,,,0,,,68,80
4140,note_on,204,0,4,,,,,,,,0,,,53,80
4140,note_on,0,0,4,,,,,,,,0,,,62,80
4140,note_on,0,0,4,,,,,,,,0,,,56,80
4140,note_on,0,0,4,,,,,,,,0,,,47,80
4188,note_on,0,0,1,,,,,,,,0,,,65,0
4188,note_on,48,0,1,,,,,,,,0,,,77,0
4188,note_on,48,0,4,,,,,,,,0,,,62,0
4188,note_on,0,0,4,,,,,,,,0,,,56,0
4188,note_on,0,0,1,,,,,,,,0,,,68,0
4188,note_on,0,0,4,,,,,,,,0,,,47,0
4188,note_on,0,0,4,,,,,,,,0,,,53,0
4200,note_on,0,0,1,,,,,,,,0,,,68,80
4200,note_on,12,0,4,,,,,,,,0,,,47,80
4200,note_on,0,0,1,,,,,,,,0,,,77,80
4200,note_on,0,0,4,,,,,,,,0,,,62,80
4200,note_on,0,0,4,,,,,,,,0,,,56,80
4200,note_on,12,0,1,,,,,,,,0,,,65,80
4200,note_on,0,0,4,,,,,,,,0,,,53,80
4296,note_on,96,0,1,,,,,,,,0,,,77,0
4296,note_on,0,0,4,,,,,,,,0,,,53,0
4296,note_on,96,0,4,,,,,,,,0,,,62,0
4296,note_on,0,0,4,,,,,,,,0,,,47,0
4296,note_on,0,0,1,,,,,,,,0,,,65,0
4296,note_on,0,0,4,,,,,,,,0,,,56,0
4296,note_on,0,0,1,,,,,,,,0,,,68,0
4500,note_on,0,0,1,,,,,,,,0,,,65,80
4500,note_on,0,0,1,,,,,,,,0,,,68,80
4500,note_on,0,0,4,,,,,,,,0,,,62,80
4500,note_on,0,0,4,,,,,,,,0,,,53,80
4500,note_on,204,0,4,,,,,,,,0,,,47,80
4500,note_on,204,0,1,,,,,,,,0,,,74,80
4500,note_on,0,0,4,,,,,,,,0,,,56,80
4548,note_on,0,0,1,,,,,,,,0,,,65,0
4548,note_on,0,0,1,,,,,,,,0,,,74,0
4548,note_on,0,0,4,,,,,,,,0,,,47,0
4548,note_on,0,0,4,,,,,,,,0,,,62,0
4548,note_on,48,0,1,,,,,,,,0,,,68,0
4548,note_on,48,0,4,,,,,,,,0,,,56,0
4548,note_on,0,0,4,,,,,,,,0,,,53,0
4560,note_on,0,0,4,,,,,,,,0,,,56,80
4560,note_on,12,0,1,,,,,,,,0,,,65,80
4560,note_on,12,0,4,,,,,,,,0,,,47,80
4560,note_on,0,0,4,,,,,,,,0,,,62,80
4560,note_on,0,0,1,,,,,,,,0,,,74,80
4560,note_on,0,0,1,,,,,,,,0,,,68,80
4560,note_on,0,0,4,,,,,,,,0,,,53,80
4656,note_on,0,0,4,,,,,,,,0,,,53,0
4656,note_on,0,0,4,,,,,,,,0,,,62,0
4656,note_on,0,0,4,,,,,,,,0,,,47,0
4656,note_on,0,0,1,,,,,,,,0,,,68,0
4656,note_on,96,0,1,,,,,,,,0,,,74,0
4656,note_on,0,0,1,,,,,,,,0,,,65,0
4656,note_on,96,0,4,,,,,,,,0,,,56,0
4680,note_on,24,0,1,,,,,,,,0,,,67,80
4680,note_on,0,0,4,,,,,,,,0,,,47,80
4680,note_on,0,0,4,,,,,,,,0,,,55,80
4680,note_on,24,0,4,,,,,,,,0,,,61,80
4680,note_on,0,0,1,,,,,,,,0,,,64,80
4680,note_on,0,0,4,,,,,,,,0,,,52,80
4680,note_on,0,0,1,,,,,,,,0,,,73,80
4776,note_on,0,0,4,,,,,,,,0,,,61,0
4776,note_on,0,0,4,,,,,,,,0,,,55,0
4776,note_on,96,0,4,,,,,,,,0,,,47,0
4776,note_on,96,0,1,,,,,,,,0,,,64,0
4776,note_on,0,0,4,,,,,,,,0,,,52,0
4776,note_on,0,0,1,,,,,,,,0,,,73,0
4776,note_on,0,0,1,,,,,,,,0,,,67,0
4800,note_on,0,0,1,,,,,,,,0,,,74,80
4800,note_on,0,0,4,,,,,,,,0,,,47,80
4800,note_on,0,0,4,,,,,,,,0,,,53,80
4800,note_on,0,0,4,,,,,,,,0,,,56,80
4800,note_on,24,0,1,,,,,,,,0,,,68,80
4800,note_on,0,0,1,,,,,,,,0,,,65,80
4800,note_on,24,0,4,,,,,,,,0,,,62,80
4896,note_on,0,0,4,,,,,,,,0,,,62,0
4896,note_on,96,0,1,,,,,,,,0,,,74,0
4896,note_on,0,0,4,,,,,,,,0,,,56,0
4896,note_on,0,0,4,,,,,,,,0,,,53,0
4896,note_on,0,0,1,,,,,,,,0,,,65,0
4896,note_on,0,0,1,,,,,,,,0,,,68,0
4896,note_on,96,0,4,,,,,,,,0,,,47,0
5160,note_on,0,0,1,,,,,,,,0,,,67,80
5160,note_on,0,0,1,,,,,,,,0,,,75,80
5160,note_on,264,0,1,,,,,,,,0,,,63,80
5160,note_on,264,0,4,,,,,,,,0,,,36,80
5160,note_on,0,0,4,,,,,,,,0,,,48,80
5160,note_on,0,0,4,,,,,,,,0,,,43,80
5164,control_change,4,0,4,,,,,,,,0,64,127,,
5256,note_on,0,0,1,,,,,,,,0,,,75,0
5256,note_on,0,0,1,,,,,,,,0,,,63,0
5256,note_on,92,0,4,,,,,,,,0,,,48,0
5256,note_on,0,0,4,,,,,,,,0,,,36,0
5256,note_on,96,0,1,,,,,,,,0,,,67,0
5256,note_on,0,0,4,,,,,,,,0,,,43,0
5280,note_on,1806,0,3,,,,,,,,0,,,48,80
5280,note_on,1806,0,2,,,,,,,,0,,,60,80
5304,note_on,24,0,3,,,,,,,,0,,,48,0
5304,note_on,24,0,2,,,,,,,,0,,,60,0
5310,note_on,6,0,3,,,,,,,,0,,,50,80
5310,note_on,6,0,2,,,,,,,,0,,,62,80
5334,note_on,24,0,3,,,,,,,,0,,,50,0
5334,note_on,24,0,2,,,,,,,,0,,,62,0
5340,note_on,6,0,3,,,,,,,,0,,,51,80
5340,note_on,6,0,2,,,,,,,,0,,,63,80
5364,note_on,24,0,3,,,,,,,,0,,,51,0
5364,note_on,24,0,2,,,,,,,,0,,,63,0
5370,note_on,6,0,2,,,,,,,,0,,,65,80
5370,note_on,6,0,3,,,,,,,,0,,,53,80
5394,note_on,24,0,3,,,,,,,,0,,,53,0
5394,note_on,24,0,2,,,,,,,,0,,,65,0
5400,note_on,6,0,2,,,,,,,,0,,,67,80
5400,note_on,6,0,3,,,,,,,,0,,,55,80
5496,note_on,96,0,2,,,,,,,,0,,,67,0
5496,note_on,96,0,3,,,,,,,,0,,,55,0
5520,note_on,0,0,4,,,,,,,,0,,,32,80
5520,note_on,264,0,4,,,,,,,,0,,,41,80
5520,note_on,0,0,1,,,,,,,,0,,,77,80
5520,note_on,0,0,4,,,,,,,,0,,,44,80
5520,note_on,0,0,1,,,,,,,,0,,,72,80
5520,note_on,264,0,1,,,,,,,,0,,,65,80
5524,control_change,4,0,4,,,,,,,,0,64,0,,
5616,note_on,0,0,1,,,,,,,,0,,,72,0
5616,note_on,0,0,1,,,,,,,,0,,,65,0
5616,note_on,96,0,1,,,,,,,,0,,,77,0
5616,note_on,0,0,4,,,,,,,,0,,,44,0
5616,note_on,92,0,4,,,,,,,,0,,,32,0
5616,note_on,0,0,4,,,,,,,,0,,,41,0
5640,note_on,0,0,4,,,,,,,,0,,,32,80
5640,note_on,0,0,4,,,,,,,,0,,,44,80
5640,note_on,24,0,4,,,,,,,,0,,,41,80
5640,note_on,24,0,1,,,,,,,,0,,,84,80
5640,note_on,0,0,1,,,,,,,,0,,,72,80
5640,note_on,0,0,1,,,,,,,,0,,,75,80
5736,note_on,0,0,1,,,,,,,,0,,,75,0
5736,note_on,0,0,1,,,,,,,,0,,,84,0
5736,note_on,0,0,4,,,,,,,,0,,,32,0
5736,note_on,0,0,4,,,,,,,,0,,,41,0
5736,note_on,96,0,4,,,,,,,,0,,,44,0
5736,note_on,96,0,1,,,,,,,,0,,,72,0
5760,note_on,24,0,4,,,,,,,,0,,,34,80
5760,note_on,0,0,1,,,,,,,,0,,,74,80
5760,note_on,0,0,1,,,,,,,,0,,,84,80
5760,note_on,0,0,4,,,,,,,,0,,,41,80
5760,note_on,24,0,1,,,,,,,,0,,,72,80
5760,note_on,0,0,4,,,,,,,,0,,,46,80
5762,control_change,2,0,4,,,,,,,,0,64,127,,
5856,note_on,94,0,4,,,,,,,,0,,,46,0
5856,note_on,0,0,1,,,,,,,,0,,,74,0
5856,note_on,0,0,4,,,,,,,,0,,,34,0
5856,note_on,0,0,1,,,,,,,,0,,,72,0
5856,note_on,0,0,4,,,,,,,,0,,,41,0
5856,note_on,96,0,1,,,,,,,,0,,,84,0
5880,note_on,384,0,3,,,,,,,,0,,,53,80
5880,note_on,384,0,2,,,,,,,,0,,,65,80
5904,note_on,24,0,3,,,,,,,,0,,,53,0
5904,note_on,24,0,2,,,,,,,,0,,,65,0
5910,note_on,6,0,2,,,,,,,,0,,,63,80
5910,note_on,6,0,3,,,,,,,,0,,,51,80
5934,note_on,24,0,2,,,,,,,,0,,,63,0
5934,note_on,24,0,3,,,,,,,,0,,,51,0
5940,note_on,6,0,2,,,,,,,,0,,,62,80
5940,note_on,6,0,3,,,,,,,,0,,,50,80
5964,note_on,24,0,2,,,,,,,,0,,,62,0
5964,note_on,24,0,3,,,,,,,,0,,,50,0
5970,note_on,6,0,2,,,,,,,,0,,,60,80
5970,note_on,6,0,3,,,,,,,,0,,,48,80
5994,note_on,24,0,3,,,,,,,,0,,,48,0
5994,note_on,24,0,2,,,,,,,,0,,,60,0
6000,note_on,6,0,2,,,,,,,,0,,,58,80
6000,note_on,6,0,3,,,,,,,,0,,,46,80
6096,note_on,96,0,3,,,,,,,,0,,,46,0
6096,note_on,96,0,2,,,,,,,,0,,,58,0
6120,note_on,264,0,1,,,,,,,,0,,,74,80
6120,control_change,264,0,4,,,,,,,,0,64,0,,
6120,note_on,0,0,4,,,,,,,,0,,,39,80
6120,note_on,0,0,4,,,,,,,,0,,,43,80
6120,note_on,0,0,4,,,,,,,,0,,,31,80
6120,note_on,0,0,1,,,,,,,,0,,,70,80
6120,note_on,0,0,1,,,,,,,,0,,,82,80
6216,note_on,96,0,4,,,,,,,,0,,,39,0
6216,note_on,0,0,4,,,,,,,,0,,,31,0
6216,note_on,0,0,4,,,,,,,,0,,,43,0
6216,note_on,0,0,1,,,,,,,,0,,,70,0
6216,note_on,0,0,1,,,,,,,,0,,,74,0
6216,note_on,96,0,1,,,,,,,,0,,,82,0
6240,note_on,0,0,4,,,,,,,,0,,,31,80
6240,note_on,0,0,4,,,,,,,,0,,,43,80
6240,note_on,24,0,4,,,,,,,,0,,,39,80
6240,note_on,0,0,1,,,,,,,,0,,,75,80
6240,note_on,24,0,1,,,,,,,,0,,,82,80
6240,note_on,0,0,1,,,,,,,,0,,,86,80
6240,note_on,0,0,1,,,,,,,,0,,,87,80
6336,note_on,0,0,4,,,,,,,,0,,,43,0
6336,note_on,0,0,4,,,,,,,,0,,,39,0
6336,note_on,96,0,4,,,,,,,,0,,,31,0
6336,note_on,0,0,1,,,,,,,,0,,,82,0
6336,note_on,0,0,1,,,,,,,,0,,,75,0
6336,note_on,0,0,1,,,,,,,,0,,,87,0
6336,note_on,96,0,1,,,,,,,,0,,,86,0
6360,note_on,0,0,4,,,,,,,,0,,,39,80
6360,note_on,0,0,1,,,,,,,,0,,,75,80
6360,note_on,0,0,1,,,,,,,,0,,,84,80
6360,note_on,0,0,4,,,,,,,,0,,,44,80
6360,note_on,24,0,1,,,,,,,,0,,,80,80
6360,note_on,0,0,1,,,,,,,,0,,,87,80
6360,note_on,24,0,4,,,,,,,,0,,,32,80
6362,control_change,2,0,4,,,,,,,,0,64,127,,
6456,note_on,0,0,4,,,,,,,,0,,,32,0
6456,note_on,0,0,4,,,,,,,,0,,,39,0
6456,note_on,0,0,1,,,,,,,,0,,,84,0
6456,note_on,0,0,1,,,,,,,,0,,,80,0
6456,note_on,0,0,1,,,,,,,,0,,,75,0
6456,note_on,94,0,4,,,,,,,,0,,,44,0
6456,note_on,96,0,1,,,,,,,,0,,,87,0
6480,note_on,384,0,2,,,,,,,,0,,,56,80
6480,note_on,384,0,3,,,,,,,,0,,,44,80
6504,note_on,24,0,2,,,,,,,,0,,,56,0
6504,note_on,24,0,3,,,,,,,,0,,,44,0
6510,note_on,6,0,2,,,,,,,,0,,,58,80
6510,note_on,6,0,3,,,,,,,,0,,,46,80
6534,note_on,24,0,2,,,,,,,,0,,,58,0
6534,note_on,24,0,3,,,,,,,,0,,,46,0
6540,note_on,6,0,3,,,,,,,,0,,,48,80
6540,note_on,6,0,2,,,,,,,,0,,,60,80
6564,note_on,24,0,2,,,,,,,,0,,,60,0
6564,note_on,24,0,3,,,,,,,,0,,,48,0
6570,note_on,6,0,3,,,,,,,,0,,,50,80
6570,note_on,6,0,2,,,,,,,,0,,,62,80
6594,note_on,24,0,3,,,,,,,,0,,,50,0
6594,note_on,24,0,2,,,,,,,,0,,,62,0
6600,note_on,6,0,3,,,,,,,,0,,,51,80
6600,note_on,6,0,2,,,,,,,,0,,,63,80
6696,note_on,96,0,2,,,,,,,,0,,,63,0
6696,note_on,96,0,3,,,,,,,,0,,,51,0
6718,control_change,262,0,4,,,,,,,,0,64,0,,
6720,note_on,0,0,4,,,,,,,,0,,,38,80
6720,note_on,0,0,1,,,,,,,,0,,,74,80
6720,note_on,0,0,1,,,,,,,,0,,,84,80
6720,note_on,0,0,1,,,,,,,,0,,,86,80
6720,note_on,0,0,4,,,,,,,,0,,,41,80
6720,note_on,2,0,4,,,,,,,,0,,,29,80
6720,note_on,264,0,1,,,,,,,,0,,,80,80
6816,note_on,96,0,4,,,,,,,,0,,,38,0
6816,note_on,0,0,1,,,,,,,,0,,,80,0
6816,note_on,0,0,4,,,,,,,,0,,,29,0
6816,note_on,0,0,1,,,,,,,,0,,,74,0
6816,note_on,96,0,1,,,,,,,,0,,,86,0
6816,note_on,0,0,1,,,,,,,,0,,,84,0
6816,note_on,0,0,4,,,,,,,,0,,,41,0
6840,note_on,0,0,4,,,,,,,,0,,,38,80
6840,note_on,0,0,4,,,,,,,,0,,,41,80
6840,note_on,24,0,4,,,,,,,,0,,,29,80
6840,note_on,24,0,1,,,,,,,,0,,,80,80
6840,note_on,0,0,1,,,,,,,,0,,,84,80
6840,note_on,0,0,1,,,,,,,,0,,,92,80
6936,note_on,0,0,4,,,,,,,,0,,,29,0
6936,note_on,0,0,4,,,,,,,,0,,,38,0
6936,note_on,96,0,1,,,,,,,,0,,,92,0
6936,note_on,0,0,1,,,,,,,,0,,,84,0
6936,note_on,96,0,4,,,,,,,,0,,,41,0
6936,note_on,0,0,1,,,,,,,,0,,,80,0
6960,note_on,24,0,1,,,,,,,,0,,,80,80
6960,note_on,24,0,4,,,,,,,,0,,,43,80
6960,note_on,0,0,1,,,,,,,,0,,,92,80
6960,note_on,0,0,4,,,,,,,,0,,,31,80
6960,note_on,0,0,4,,,,,,,,0,,,38,80
6960,note_on,0,0,1,,,,,,,,0,,,83,80
6962,control_change,2,0,4,,,,,,,,0,64,127,,
7056,note_on,0,0,4,,,,,,,,0,,,43,0
7056,note_on,0,0,4,,,,,,,,0,,,31,0
7056,note_on,94,0,4,,,,,,,,0,,,38,0
7056,note_on,0,0,1,,,,,,,,0,,,92,0
7056,note_on,0,0,1,,,,,,,,0,,,80,0
7056,note_on,96,0,1,,,,,,,,0,,,83,0
7080,note_on,384,0,2,,,,,,,,0,,,62,80
7080,note_on,384,0,3,,,,,,,,0,,,50,80
7104,note_on,24,0,3,,,,,,,,0,,,50,0
7104,note_on,24,0,2,,,,,,,,0,,,62,0
7110,note_on,6,0,3,,,,,,,,0,,,48,80
7110,note_on,6,0,2,,,,,,,,0,,,60,80
7134,note_on,24,0,3,,,,,,,,0,,,48,0
7134,note_on,24,0,2,,,,,,,,0,,,60,0
7140,note_on,6,0,2,,,,,,,,0,,,59,80
7140,note_on,6,0,3,,,,,,,,0,,,47,80
7164,note_on,24,0,3,,,,,,,,0,,,47,0
7164,note_on,24,0,2,,,,,,,,0,,,59,0
7170,note_on,6,0,2,,,,,,,,0,,,56,80
7170,note_on,6,0,3,,,,,,,,0,,,44,80
7194,note_on,24,0,2,,,,,,,,0,,,56,0
7194,note_on,24,0,3,,,,,,,,0,,,44,0
7200,note_on,6,0,2,,,,,,,,0,,,55,80
7200,note_on,6,0,3,,,,,,,,0,,,43,80
7296,note_on,96,0,3,,,,,,,,0,,,43,0
7296,note_on,96,0,2,,,,,,,,0,,,55,0
7316,control_change,260,0,4,,,,,,,,0,64,0,,
7320,note_on,4,0,4,,,,,,,,0,,,40,80
7320,note_on,0,0,1,,,,,,,,0,,,79,80
7320,note_on,0,0,1,,,,,,,,0,,,85,80
7320,note_on,264,0,1,,,,,,,,0,,,91,80
7320,note_on,0,0,1,,,,,,,,0,,,82,80
7320,note_on,0,0,4,,,,,,,,0,,,49,80
7320,note_on,0,0,4,,,,,,,,0,,,52,80
7416,note_on,0,0,4,,,,,,,,0,,,40,0
7416,note_on,96,0,1,,,,,,,,0,,,82,0
7416,note_on,96,0,4,,,,,,,,0,,,49,0
7416,note_on,0,0,1,,,,,,,,0,,,91,0
7416,note_on,0,0,1,,,,,,,,0,,,85,0
7416,note_on,0,0,1,,,,,,,,0,,,79,0
7416,note_on,0,0,4,,,,,,,,0,,,52,0
7440,note_on,0,0,1,,,,,,,,0,,,91,80
7440,note_on,0,0,1,,,,,,,,0,,,94,80
7440,note_on,24,0,4,,,,,,,,0,,,52,80
7440,note_on,0,0,4,,,,,,,,0,,,48,80
7440,note_on,24,0,1,,,,,,,,0,,,84,80
7440,note_on,0,0,4,,,,,,,,0,,,40,80
7440,note_on,0,0,1,,,,,,,,0,,,96,80
7536,note_on,0,0,1,,,,,,,,0,,,96,0
7536,note_on,0,0,4,,,,,,,,0,,,52,0
7536,note_on,0,0,4,,,,,,,,0,,,48,0
7536,note_on,0,0,1,,,,,,,,0,,,91,0
7536,note_on,96,0,4,,,,,,,,0,,,40,0
7536,note_on,96,0,1,,,,,,,,0,,,94,0
7536,note_on,0,0,1,,,,,,,,0,,,84,0
7558,control_change,22,0,4,,,,,,,,0,64,127,,
7560,note_on,0,0,1,,,,,,,,0,,,84,80
7560,note_on,0,0,4,,,,,,,,0,,,48,80
7560,note_on,0,0,1,,,,,,,,0,,,92,80
7560,note_on,2,0,4,,,,,,,,0,,,53,80
7560,note_on,0,0,4,,,,,,,,0,,,41,80
7560,note_on,24,0,1,,,,,,,,0,,,96,80
7656,note_on,0,0,1,,,,,,,,0,,,84,0
7656,note_on,96,0,4,,,,,,,,0,,,48,0
7656,note_on,0,0,1,,,,,,,,0,,,96,0
7656,note_on,0,0,4,,,,,,,,0,,,41,0
7656,note_on,96,0,1,,,,,,,,0,,,92,0
7656,note_on,0,0,4,,,,,,,,0,,,53,0
7680,note_on,384,0,3,,,,,,,,0,,,47,80
7680,note_on,384,0,2,,,,,,,,0,,,59,80
7704,note_on,24,0,2,,,,,,,,0,,,59,0
7704,note_on,24,0,3,,,,,,,,0,,,47,0
7710,note_on,6,0,2,,,,,,,,0,,,60,80
7710,note_on,6,0,3,,,,,,,,0,,,48,80
7734,note_on,24,0,3,,,,,,,,0,,,48,0
7734,note_on,24,0,2,,,,,,,,0,,,60,0
7740,note_on,6,0,2,,,,,,,,0,,,61,80
7740,note_on,6,0,3,,,,,,,,0,,,49,80
7764,note_on,24,0,2,,,,,,,,0,,,61,0
7764,note_on,24,0,3,,,,,,,,0,,,49,0
7770,note_on,6,0,3,,,,,,,,0,,,52,80
7770,note_on,6,0,2,,,,,,,,0,,,64,80
7794,note_on,24,0,3,,,,,,,,0,,,52,0
7794,note_on,24,0,2,,,,,,,,0,,,64,0
7800,note_on,6,0,2,,,,,,,,0,,,65,80
7800,note_on,6,0,3,,,,,,,,0,,,53,80
7896,note_on,96,0,2,,,,,,,,0,,,65,0
7896,note_on,96,0,3,,,,,,,,0,,,53,0
7920,note_on,0,0,4,,,,,,,,0,,,49,80
7920,note_on,0,0,4,,,,,,,,0,,,37,80
7920,control_change,264,0,4,,,,,,,,0,64,0,,
7920,note_on,0,0,1,,,,,,,,0,,,92,80
7920,note_on,0,0,1,,,,,,,,0,,,89,80
7920,note_on,0,0,4,,,,,,,,0,,,44,80
7920,note_on,264,0,1,,,,,,,,0,,,101,80
7939,control_change,19,0,4,,,,,,,,0,64,127,,
8016,note_on,0,0,4,,,,,,,,0,,,37,0
8016,note_on,96,0,1,,,,,,,,0,,,89,0
8016,note_on,0,0,4,,,,,,,,0,,,44,0
8016,note_on,77,0,4,,,,,,,,0,,,49,0
8016,note_on,0,0,1,,,,,,,,0,,,92,0
8016,note_on,0,0,1,,,,,,,,0,,,101,0
8040,note_on,144,0,2,,,,,,,,0,,,61,80
8040,note_on,144,0,3,,,,,,,,0,,,49,80
8064,note_on,24,0,2,,,,,,,,0,,,61,0
8064,note_on,24,0,3,,,,,,,,0,,,49,0
8070,note_on,6,0,2,,,,,,,,0,,,63,80
8070,note_on,6,0,3,,,,,,,,0,,,51,80
8094,note_on,24,0,3,,,,,,,,0,,,51,0
8094,note_on,24,0,2,,,,,,,,0,,,63,0
8100,note_on,6,0,2,,,,,,,,0,,,65,80
8100,note_on,6,0,3,,,,,,,,0,,,53,80
8124,note_on,24,0,2,,,,,,,,0,,,65,0
8124,note_on,24,0,3,,,,,,,,0,,,53,0
8130,note_on,6,0,3,,,,,,,,0,,,54,80
8130,note_on,6,0,2,,,,,,,,0,,,66,80
8154,note_on,24,0,3,,,,,,,,0,,,54,0
8154,note_on,24,0,2,,,,,,,,0,,,66,0
8160,note_on,6,0,3,,,,,,,,0,,,56,80
8160,note_on,6,0,2,,,,,,,,0,,,68,80
8256,note_on,96,0,3,,,,,,,,0,,,56,0
8256,note_on,96,0,2,,,,,,,,0,,,68,0
8280,note_on,0,0,2,,,,,,,,0,,,73,80
8280,note_on,24,0,2,,,,,,,,0,,,61,80
8304,note_on,24,0,2,,,,,,,,0,,,73,0
8304,note_on,0,0,2,,,,,,,,0,,,61,0
8310,note_on,6,0,2,,,,,,,,0,,,63,80
8310,note_on,0,0,2,,,,,,,,0,,,75,80
8334,note_on,24,0,2,,,,,,,,0,,,75,0
8334,note_on,0,0,2,,,,,,,,0,,,63,0
8340,note_on,6,0,2,,,,,,,,0,,,65,80
8340,note_on,0,0,2,,,,,,,,0,,,77,80
8364,note_on,24,0,2,,,,,,,,0,,,77,0
8364,note_on,0,0,2,,,,,,,,0,,,65,0
8370,note_on,0,0,2,,,,,,,,0,,,78,80
8370,note_on,6,0,2,,,,,,,,0,,,66,80
8394,note_on,24,0,2,,,,,,,,0,,,78,0
8394,note_on,0,0,2,,,,,,,,0,,,66,0
8400,note_on,0,0,2,,,,,,,,0,,,80,80
8400,note_on,6,0,2,,,,,,,,0,,,68,80
8496,note_on,96,0,2,,,,,,,,0,,,80,0
8496,note_on,0,0,2,,,,,,,,0,,,68,0
8520,note_on,24,0,2,,,,,,,,0,,,73,80
8520,note_on,0,0,2,,,,,,,,0,,,85,80
8544,note_on,24,0,2,,,,,,,,0,,,85,0
8544,note_on,0,0,2,,,,,,,,0,,,73,0
8550,note_on,6,0,2,,,,,,,,0,,,75,80
8550,note_on,0,0,2,,,,,,,,0,,,87,80
8574,note_on,24,0,2,,,,,,,,0,,,87,0
8574,note_on,0,0,2,,,,,,,,0,,,75,0
8580,note_on,6,0,2,,,,,,,,0,,,89,80
8580,note_on,0,0,2,,,,,,,,0,,,77,80
8604,note_on,0,0,2,,,,,,,,0,,,89,0
8604,note_on,24,0,2,,,,,,,,0,,,77,0
8610,note_on,0,0,2,,,,,,,,0,,,90,80
8610,note_on,6,0,2,,,,,,,,0,,,78,80
8634,note_on,0,0,2,,,,,,,,0,,,78,0
8634,note_on,24,0,2,,,,,,,,0,,,90,0
8640,note_on,0,0,2,,,,,,,,0,,,80,80
8640,note_on,6,0,2,,,,,,,,0,,,92,80
8736,note_on,96,0,2,,,,,,,,0,,,80,0
8736,note_on,0,0,2,,,,,,,,0,,,92,0
8802,control_change,786,0,4,,,,,,,,0,64,0,,
8820,note_on,0,0,4,,,,,,,,0,,,49,80
8820,note_on,0,0,1,,,,,,,,0,,,97,80
8820,note_on,804,0,1,,,,,,,,0,,,89,80
8820,note_on,0,0,1,,,,,,,,0,,,85,80
8820,note_on,0,0,4,,,,,,,,0,,,41,80
8820,note_on,18,0,4,,,,,,,,0,,,53,80
8824,control_change,4,0,4,,,,,,,,0,64,127,,
8868,note_on,44,0,4,,,,,,,,0,,,41,0
8868,note_on,0,0,1,,,,,,,,0,,,89,0
8868,note_on,48,0,1,,,,,,,,0,,,85,0
8868,note_on,0,0,4,,,,,,,,0,,,53,0
8868,note_on,0,0,4,,,,,,,,0,,,49,0
8868,note_on,0,0,1,,,,,,,,0,,,97,0
8880,note_on,0,0,1,,,,,,,,0,,,97,80
8880,note_on,0,0,4,,,,,,,,0,,,41,80
8880,note_on,12,0,4,,,,,,,,0,,,53,80
8880,note_on,0,0,4,,,,,,,,0,,,49,80
8880,note_on,12,0,1,,,,,,,,0,,,89,80
8880,note_on,0,0,1,,,,,,,,0,,,85,80
8976,note_on,0,0,1,,,,,,,,0,,,85,0
8976,note_on,96,0,4,,,,,,,,0,,,41,0
8976,note_on,96,0,1,,,,,,,,0,,,97,0
8976,note_on,0,0,1,,,,,,,,0,,,89,0
8976,note_on,0,0,4,,,,,,,,0,,,53,0
8976,note_on,0,0,4,,,,,,,,0,,,49,0
9000,note_on,0,0,1,,,,,,,,0,,,80,80
9000,note_on,0,0,1,,,,,,,,0,,,85,80
9000,note_on,0,0,4,,,,,,,,0,,,56,80
9000,note_on,0,0,4,,,,,,,,0,,,53,80
9000,note_on,24,0,1,,,,,,,,0,,,92,80
9000,note_on,24,0,4,,,,,,,,0,,,44,80
9096,note_on,96,0,1,,,,,,,,0,,,80,0
9096,note_on,0,0,4,,,,,,,,0,,,44,0
9096,note_on,96,0,4,,,,,,,,0,,,56,0
9096,note_on,0,0,4,,,,,,,,0,,,53,0
9096,note_on,0,0,1,,,,,,,,0,,,92,0
9096,note_on,0,0,1,,,,,,,,0,,,85,0
9180,note_on,0,0,4,,,,,,,,0,,,61,80
9180,note_on,84,0,4,,,,,,,,0,,,56,80
9180,note_on,0,0,1,,,,,,,,0,,,80,80
9180,note_on,0,0,1,,,,,,,,0,,,77,80
9180,note_on,0,0,4,,,,,,,,0,,,49,80
9180,note_on,84,0,1,,,,,,,,0,,,89,80
9228,note_on,0,0,4,,,,,,,,0,,,56,0
9228,note_on,48,0,4,,,,,,,,0,,,49,0
9228,note_on,0,0,1,,,,,,,,0,,,89,0
9228,note_on,0,0,1,,,,,,,,0,,,77,0
9228,note_on,48,0,1,,,,,,,,0,,,80,0
9228,note_on,0,0,4,,,,,,,,0,,,61,0
9240,note_on,12,0,4,,,,,,,,0,,,61,80
9240,note_on,12,0,1,,,,,,,,0,,,89,80
9240,note_on,0,0,1,,,,,,,,0,,,77,80
9240,note_on,0,0,4,,,,,,,,0,,,56,80
9240,note_on,0,0,4,,,,,,,,0,,,49,80
9240,note_on,0,0,1,,,,,,,,0,,,80,80
9304,control_change,64,0,4,,,,,,,,0,64,0,,
9336,note_on,96,0,1,,,,,,,,0,,,77,0
9336,note_on,32,0,4,,,,,,,,0,,,56,0
9336,note_on,0,0,4,,,,,,,,0,,,61,0
9336,note_on,0,0,4,,,,,,,,0,,,49,0
9336,note_on,0,0,1,,,,,,,,0,,,80,0
9336,note_on,0,0,1,,,,,,,,0,,,89,0
9462,control_change,126,0,4,,,,,,,,0,64,127,,
9480,note_on,0,0,4,,,,,,,,0,,,65,80
9480,note_on,144,0,1,,,,,,,,0,,,85,80
9480,note_on,0,0,4,,,,,,,,0,,,61,80
9480,note_on,0,0,4,,,,,,,,0,,,56,80
9480,note_on,18,0,4,,,,,,,,0,,,53,80
9480,note_on,0,0,1,,,,,,,,0,,,77,80
9480,note_on,0,0,1,,,,,,,,0,,,80,80
9480,note_on,0,0,1,,,,,,,,0,,,73,80
9528,note_on,0,0,1,,,,,,,,0,,,73,0
9528,note_on,0,0,1,,,,,,,,0,,,80,0
9528,note_on,0,0,1,,,,,,,,0,,,85,0
9528,note_on,48,0,1,,,,,,,,0,,,77,0
9528,note_on,48,0,4,,,,,,,,0,,,61,0
9528,note_on,0,0,4,,,,,,,,0,,,65,0
9528,note_on,0,0,4,,,,,,,,0,,,53,0
9528,note_on,0,0,4,,,,,,,,0,,,56,0
9540,note_on,12,0,4,,,,,,,,0,,,53,80
9540,note_on,0,0,4,,,,,,,,0,,,65,80
9540,note_on,0,0,4,,,,,,,,0,,,56,80
9540,note_on,0,0,4,,,,,,,,0,,,61,80
9540,note_on,12,0,1,,,,,,,,0,,,85,80
9540,note_on,0,0,1,,,,,,,,0,,,80,80
9540,note_on,0,0,1,,,,,,,,0,,,77,80
9540,note_on,0,0,1,,,,,,,,0,,,73,80
9636,note_on,0,0,1,,,,,,,,0,,,73,0
9636,note_on,0,0,1,,,,,,,,0,,,80,0
9636,note_on,0,0,1,,,,,,,,0,,,85,0
9636,note_on,96,0,4,,,,,,,,0,,,61,0
9636,note_on,0,0,4,,,,,,,,0,,,53,0
9636,note_on,0,0,4,,,,,,,,0,,,56,0
9636,note_on,0,0,4,,,,,,,,0,,,65,0
9636,note_on,96,0,1,,,,,,,,0,,,77,0
9660,note_on,24,0,1,,,,,,,,0,,,76,80
9660,note_on,0,0,4,,,,,,,,0,,,64,80
9660,note_on,0,0,1,,,,,,,,0,,,72,80
9660,note_on,0,0,4,,,,,,,,0,,,52,80
9660,note_on,0,0,1,,,,,,,,0,,,84,80
9660,note_on,24,0,4,,,,,,,,0,,,56,80
9660,note_on,0,0,4,,,,,,,,0,,,60,80
9660,note_on,0,0,1,,,,,,,,0,,,80,80
9756,note_on,0,0,4,,,,,,,,0,,,52,0
9756,note_on,96,0,4,,,,,,,,0,,,64,0
9756,note_on,0,0,4,,,,,,,,0,,,56,0
9756,note_on,0,0,4,,,,,,,,0,,,60,0
9756,note_on,96,0,1,,,,,,,,0,,,84,0
9756,note_on,0,0,1,,,,,,,,0,,,80,0
9756,note_on,0,0,1,,,,,,,,0,,,76,0
9756,note_on,0,0,1,,,,,,,,0,,,72,0
9780,note_on,0,0,1,,,,,,,,0,,,73,80
9780,note_on,0,0,1,,,,,,,,0,,,77,80
9780,note_on,0,0,1,,,,,,,,0,,,80,80
9780,note_on,24,0,4,,,,,,,,0,,,65,80
9780,note_on,0,0,4,,,,,,,,0,,,53,80
9780,note_on,0,0,4,,,,,,,,0,,,56,80
9780,note_on,0,0,4,,,,,,,,0,,,61,80
9780,note_on,24,0,1,,,,,,,,0,,,85,80
9876,note_on,0,0,4,,,,,,,,0,,,56,0
9876,note_on,0,0,4,,,,,,,,0,,,61,0
9876,note_on,96,0,4,,,,,,,,0,,,53,0
9876,note_on,0,0,1,,,,,,,,0,,,85,0
9876,note_on,0,0,1,,,,,,,,0,,,80,0
9876,note_on,0,0,1,,,,,,,,0,,,73,0
9876,note_on,96,0,1,,,,,,,,0,,,77,0
9876,note_on,0,0,4,,,,,,,,0,,,65,0
10080,note_on,0,0,4,,,,,,,,0,,,47,80
10080,note_on,0,0,4,,,,,,,,0,,,50,80
10080,note_on,0,0,4,,,,,,,,0,,,53,80
10080,note_on,204,0,1,,,,,,,,0,,,80,80
10080,note_on,0,0,4,,,,,,,,0,,,59,80
10080,control_change,0,0,4,,,,,,,,0,64,0,,
10080,note_on,204,0,4,,,,,,,,0,,,56,80
10080,note_on,0,0,1,,,,,,,,0,,,89,80
10080,note_on,0,0,1,,,,,,,,0,,,86,80
10080,note_on,0,0,1,,,,,,,,0,,,77,80
10136,control_change,56,0,4,,,,,,,,0,64,127,,
10176,note_on,0,0,1,,,,,,,,0,,,89,0
10176,note_on,0,0,1,,,,,,,,0,,,80,0
10176,note_on,0,0,4,,,,,,,,0,,,50,0
10176,note_on,40,0,4,,,,,,,,0,,,59,0
10176,note_on,0,0,4,,,,,,,,0,,,56,0
10176,note_on,0,0,1,,,,,,,,0,,,77,0
10176,note_on,96,0,1,,,,,,,,0,,,86,0
10176,note_on,0,0,4,,,,,,,,0,,,53,0
10176,note_on,0,0,4,,,,,,,,0,,,47,0
10260,note_on,0,0,1,,,,,,,,0,,,73,80
10260,note_on,0,0,4,,,,,,,,0,,,61,80
10260,note_on,84,0,1,,,,,,,,0,,,85,80
10260,note_on,84,0,4,,,,,,,,0,,,49,80
10308,note_on,48,0,1,,,,,,,,0,,,73,0
10308,note_on,48,0,4,,,,,,,,0,,,61,0
10308,note_on,0,0,4,,,,,,,,0,,,49,0
10308,note_on,0,0,1,,,,,,,,0,,,85,0
10320,note_on,12,0,4,,,,,,,,0,,,50,80
10320,note_on,12,0,1,,,,,,,,0,,,86,80
10320,note_on,0,0,1,,,,,,,,0,,,74,80
10320,note_on,0,0,4,,,,,,,,0,,,62,80
10416,note_on,96,0,1,,,,,,,,0,,,74,0
10416,note_on,96,0,4,,,,,,,,0,,,62,0
10416,note_on,0,0,4,,,,,,,,0,,,50,0
10416,note_on,0,0,1,,,,,,,,0,,,86,0
10440,note_on,0,0,4,,,,,,,,0,,,60,80
10440,note_on,0,0,1,,,,,,,,0,,,87,80
10440,note_on,0,0,4,,,,,,,,0,,,54,80
10440,note_on,0,0,1,,,,,,,,0,,,78,80
10440,note_on,0,0,1,,,,,,,,0,,,75,80
10440,note_on,24,0,1,,,,,,,,0,,,81,80
10440,note_on,0,0,4,,,,,,,,0,,,63,80
10440,note_on,24,0,4,,,,,,,,0,,,51,80
10536,note_on,96,0,1,,,,,,,,0,,,87,0
10536,note_on,0,0,4,,,,,,,,0,,,51,0
10536,note_on,0,0,4,,,,,,,,0,,,54,0
10536,note_on,0,0,4,,,,,,,,0,,,63,0
10536,note_on,0,0,1,,,,,,,,0,,,78,0
10536,note_on,0,0,1,,,,,,,,0,,,75,0
10536,note_on,96,0,4,,,,,,,,0,,,60,0
10536,note_on,0,0,1,,,,,,,,0,,,81,0
10620,note_on,84,0,4,,,,,,,,0,,,59,80
10620,note_on,84,0,1,,,,,,,,0,,,71,80
10620,note_on,0,0,4,,,,,,,,0,,,47,80
10620,note_on,0,0,1,,,,,,,,0,,,83,80
10668,note_on,48,0,4,,,,,,,,0,,,47,0
10668,note_on,0,0,1,,,,,,,,0,,,71,0
10668,note_on,0,0,4,,,,,,,,0,,,59,0
10668,note_on,48,0,1,,,,,,,,0,,,83,0
10680,note_on,12,0,4,,,,,,,,0,,,60,80
10680,note_on,0,0,1,,,,,,,,0,,,84,80
10680,note_on,0,0,4,,,,,,,,0,,,48,80
10680,note_on,12,0,1,,,,,,,,0,,,72,80
10776,note_on,96,0,1,,,,,,,,0,,,84,0
10776,note_on,96,0,4,,,,,,,,0,,,48,0
10776,note_on,0,0,1,,,,,,,,0,,,72,0
10776,note_on,0,0,4,,,,,,,,0,,,60,0
10800,note_on,0,0,1,,,,,,,,0,,,83,80
10800,control_change,0,0,4,,,,,,,,0,64,0,,
10800,note_on,24,0,4,,,,,,,,0,,,62,80
10800,note_on,0,0,1,,,,,,,,0,,,79,80
10800,note_on,0,0,4,,,,,,,,0,,,67,80
10800,note_on,0,0,4,,,,,,,,0,,,59,80
10800,note_on,0,0,4,,,,,,,,0,,,55,80
10800,note_on,24,0,1,,,,,,,,0,,,91,80
10896,note_on,96,0,1,,,,,,,,0,,,79,0
10896,note_on,0,0,1,,,,,,,,0,,,91,0
10896,note_on,96,0,4,,,,,,,,0,,,55,0
10896,note_on,0,0,1,,,,,,,,0,,,83,0
10896,note_on,0,0,4,,,,,,,,0,,,67,0
10896,note_on,0,0,4,,,,,,,,0,,,62,0
10896,note_on,0,0,4,,,,,,,,0,,,59,0
10918,control_change,22,0,4,,,,,,,,0,64,127,,
10920,note_on,2,0,4,,,,,,,,0,,,50,96
10920,note_on,0,0,4,,,,,,,,0,,,38,96
10950,note_on,0,0,3,,,,,,,,0,,,43,60
10950,note_on,2694,0,3,,,,,,,,0,,,31,60
10974,note_on,0,0,3,,,,,,,,0,,,31,0
10974,note_on,24,0,3,,,,,,,,0,,,43,0
10980,note_on,0,0,3,,,,,,,,0,,,33,60
10980,note_on,6,0,3,,,,,,,,0,,,45,60
11004,note_on,0,0,3,,,,,,,,0,,,45,0
11004,note_on,24,0,3,,,,,,,,0,,,33,0
11010,note_on,0,0,3,,,,,,,,0,,,35,60
11010,note_on,6,0,3,,,,,,,,0,,,47,60
11016,note_on,96,0,4,,,,,,,,0,,,38,0
11016,note_on,0,0,4,,,,,,,,0,,,50,0
11034,note_on,24,0,3,,,,,,,,0,,,35,0
11034,note_on,0,0,3,,,,,,,,0,,,47,0
11040,note_on,24,0,4,,,,,,,,0,,,36,96
11040,note_on,0,0,4,,,,,,,,0,,,48,96
11070,note_on,36,0,3,,,,,,,,0,,,38,60
11070,note_on,0,0,3,,,,,,,,0,,,50,60
11094,note_on,24,0,3,,,,,,,,0,,,50,0
11094,note_on,0,0,3,,,,,,,,0,,,38,0
11100,note_on,0,0,3,,,,,,,,0,,,31,60
11100,note_on,6,0,3,,,,,,,,0,,,43,60
11124,note_on,0,0,3,,,,,,,,0,,,43,0
11124,note_on,24,0,3,,,,,,,,0,,,31,0
11130,note_on,0,0,3,,,,,,,,0,,,45,60
11130,note_on,6,0,3,,,,,,,,0,,,33,60
11136,note_on,0,0,4,,,,,,,,0,,,36,0
11136,note_on,96,0,4,,,,,,,,0,,,48,0
11154,note_on,24,0,3,,,,,,,,0,,,45,0
11154,note_on,0,0,3,,,,,,,,0,,,33,0
11160,note_on,0,0,4,,,,,,,,0,,,47,96
11160,note_on,24,0,4,,,,,,,,0,,,35,96
11190,note_on,36,0,3,,,,,,,,0,,,48,60
11190,note_on,0,0,3,,,,,,,,0,,,36,60
11214,note_on,24,0,3,,,,,,,,0,,,36,0
11214,note_on,0,0,3,,,,,,,,0,,,48,0
11220,note_on,6,0,3,,,,,,,,0,,,38,60
11220,note_on,0,0,3,,,,,,,,0,,,50,60
11244,note_on,0,0,3,,,,,,,,0,,,38,0
11244,note_on,24,0,3,,,,,,,,0,,,50,0
11250,note_on,6,0,3,,,,,,,,0,,,43,60
11250,note_on,0,0,3,,,,,,,,0,,,31,60
11256,note_on,0,0,4,,,,,,,,0,,,35,0
11256,note_on,96,0,4,,,,,,,,0,,,47,0
11274,note_on,0,0,3,,,,,,,,0,,,43,0
11274,note_on,24,0,3,,,,,,,,0,,,31,0
11280,note_on,0,0,4,,,,,,,,0,,,44,96
11280,note_on,24,0,4,,,,,,,,0,,,32,96
11310,note_on,0,0,3,,,,,,,,0,,,47,60
11310,note_on,36,0,3,,,,,,,,0,,,35,60
11334,note_on,24,0,3,,,,,,,,0,,,47,0
11334,note_on,0,0,3,,,,,,,,0,,,35,0
11340,note_on,6,0,3,,,,,,,,0,,,48,60
11340,note_on,0,0,3,,,,,,,,0,,,36,60
11364,note_on,0,0,3,,,,,,,,0,,,48,0
11364,note_on,24,0,3,,,,,,,,0,,,36,0
11370,note_on,6,0,3,,,,,,,,0,,,38,60
11370,note_on,0,0,3,,,,,,,,0,,,50,60
11375,control_change,95,0,4,,,,,,,,0,64,0,,
11376,note_on,1,0,4,,,,,,,,0,,,44,0
11376,note_on,0,0,4,,,,,,,,0,,,32,0
11394,note_on,0,0,3,,,,,,,,0,,,38,0
11394,note_on,24,0,3,,,,,,,,0,,,50,0
11400,note_on,24,0,4,,,,,,,,0,,,43,96
11400,note_on,0,0,4,,,,,,,,0,,,31,96
11496,note_on,0,0,4,,,,,,,,0,,,43,0
11496,note_on,96,0,4,,,,,,,,0,,,31,0
11520,control_change,0,0,4,,,,,,,,0,64,127,,
11520,note_on,624,0,1,,,,,,,,0,,,87,80
11520,note_on,0,0,4,,,,,,,,0,,,45,80
11520,note_on,0,0,4,,,,,,,,0,,,54,80
11520,note_on,0,0,4,,,,,,,,0,,,48,80
11520,note_on,0,0,1,,,,,,,,0,,,78,80
11520,note_on,0,0,1,,,,,,,,0,,,75,80
11520,note_on,0,0,4,,,,,,,,0,,,43,80
11520,note_on,24,0,4,,,,,,,,0,,,51,80
11520,time_signature,11520,1,0,5,8,12,8,,,,,,,,
11616,note_on,0,0,1,,,,,,,,0,,,78,0
11616,note_on,0,0,1,,,,,,,,0,,,87,0
11616,note_on,96,0,1,,,,,,,,0,,,75,0
11616,note_on,0,0,4,,,,,,,,0,,,43,0
11616,note_on,96,0,4,,,,,,,,0,,,45,0
11616,note_on,0,0,4,,,,,,,,0,,,48,0
11616,note_on,0,0,4,,,,,,,,0,,,51,0
11616,note_on,0,0,4,,,,,,,,0,,,54,0
11700,note_on,84,0,4,,,,,,,,0,,,45,80
11700,note_on,0,0,4,,,,,,,,0,,,54,80
11700,note_on,0,0,4,,,,,,,,0,,,51,80
11700,note_on,0,0,4,,,,,,,,0,,,48,80
11700,note_on,0,0,4,,,,,,,,0,,,43,80
11700,note_on,0,0,1,,,,,,,,0,,,84,80
11700,note_on,0,0,1,,,,,,,,0,,,75,80
11700,note_on,84,0,1,,,,,,,,0,,,72,80
11748,note_on,0,0,4,,,,,,,,0,,,45,0
11748,note_on,0,0,1,,,,,,,,0,,,72,0
11748,note_on,0,0,1,,,,,,,,0,,,84,0
11748,note_on,48,0,1,,,,,,,,0,,,75,0
11748,note_on,48,0,4,,,,,,,,0,,,43,0
11748,note_on,0,0,4,,,,,,,,0,,,48,0
11748,note_on,0,0,4,,,,,,,,0,,,51,0
11748,note_on,0,0,4,,,,,,,,0,,,54,0
11760,note_on,0,0,4,,,,,,,,0,,,43,80
11760,note_on,0,0,4,,,,,,,,0,,,45,80
11760,note_on,0,0,1,,,,,,,,0,,,75,80
11760,note_on,12,0,1,,,,,,,,0,,,84,80
11760,note_on,0,0,1,,,,,,,,0,,,72,80
11760,note_on,12,0,4,,,,,,,,0,,,54,80
11760,note_on,0,0,4,,,,,,,,0,,,48,80
11760,note_on,0,0,4,,,,,,,,0,,,51,80
11856,note_on,96,0,4,,,,,,,,0,,,43,0
11856,note_on,0,0,4,,,,,,,,0,,,54,0
11856,note_on,0,0,4,,,,,,,,0,,,51,0
11856,note_on,0,0,4,,,,,,,,0,,,48,0
11856,note_on,0,0,4,,,,,,,,0,,,45,0
11856,note_on,96,0,1,,,,,,,,0,,,75,0
11856,note_on,0,0,1,,,,,,,,0,,,84,0
11856,note_on,0,0,1,,,,,,,,0,,,72,0
11940,note_on,0,0,1,,,,,,,,0,,,69,80
11940,note_on,0,0,1,,,,,,,,0,,,81,80
11940,note_on,84,0,4,,,,,,,,0,,,43,80
11940,note_on,84,0,1,,,,,,,,0,,,72,80
11940,note_on,0,0,4,,,,,,,,0,,,45,80
11940,note_on,0,0,4,,,,,,,,0,,,48,80
11940,note_on,0,0,4,,,,,,,,0,,,54,80
11940,note_on,0,0,4,,,,,,,,0,,,51,80
11988,note_on,48,0,4,,,,,,,,0,,,51,0
11988,note_on,0,0,4,,,,,,,,0,,,43,0
11988,note_on,0,0,4,,,,,,,,0,,,54,0
11988,note_on,0,0,1,,,,,,,,0,,,69,0
11988,note_on,48,0,1,,,,,,,,0,,,81,0
11988,note_on,0,0,1,,,,,,,,0,,,72,0
11988,note_on,0,0,4,,,,,,,,0,,,45,0
11988,note_on,0,0,4,,,,,,,,0,,,48,0
12000,note_on,0,0,4,,,,,,,,0,,,45,80
12000,note_on,0,0,4,,,,,,,,0,,,48,80
12000,note_on,0,0,4,,,,,,,,0,,,51,80
12000,note_on,0,0,4,,,,,,,,0,,,54,80
12000,note_on,12,0,4,,,,,,,,0,,,43,80
12000,note_on,0,0,1,,,,,,,,0,,,69,80
12000,note_on,0,0,1,,,,,,,,0,,,72,80
12000,note_on,12,0,1,,,,,,,,0,,,81,80
12024,control_change,24,0,4,,,,,,,,0,64,0,,
12096,note_on,0,0,4,,,,,,,,0,,,54,0
12096,note_on,96,0,1,,,,,,,,0,,,69,0
12096,note_on,0,0,1,,,,,,,,0,,,81,0
12096,note_on,0,0,4,,,,,,,,0,,,48,0
12096,note_on,0,0,1,,,,,,,,0,,,72,0
12096,note_on,72,0,4,,,,,,,,0,,,51,0
12096,note_on,0,0,4,,,,,,,,0,,,45,0
12096,note_on,0,0,4,,,,,,,,0,,,43,0
12120,time_signature,600,1,0,6,8,12,8,,,,,,,,
12205,control_change,109,0,4,,,,,,,,0,64,127,,
12240,note_on,0,0,4,,,,,,,,0,,,54,80
12240,note_on,0,0,4,,,,,,,,0,,,43,80
12240,note_on,0,0,4,,,,,,,,0,,,51,80
12240,note_on,0,0,4,,,,,,,,0,,,45,80
12240,note_on,144,0,1,,,,,,,,0,,,66,80
12240,note_on,35,0,4,,,,,,,,0,,,48,80
12240,note_on,0,0,1,,,,,,,,0,,,78,80
12288,note_on,0,0,4,,,,,,,,0,,,43,0
12288,note_on,0,0,4,,,,,,,,0,,,48,0
12288,note_on,0,0,4,,,,,,,,0,,,51,0
12288,note_on,0,0,4,,,,,,,,0,,,54,0
12288,note_on,48,0,1,,,,,,,,0,,,78,0
12288,note_on,48,0,4,,,,,,,,0,,,45,0
12288,note_on,0,0,1,,,,,,,,0,,,66,0
12300,note_on,0,0,4,,,,,,,,0,,,45,80
12300,note_on,0,0,4,,,,,,,,0,,,51,80
12300,note_on,0,0,4,,,,,,,,0,,,54,80
12300,note_on,12,0,4,,,,,,,,0,,,48,80
12300,note_on,12,0,1,,,,,,,,0,,,75,80
12300,note_on,0,0,1,,,,,,,,0,,,63,80
12300,note_on,0,0,4,,,,,,,,0,,,43,80
12348,note_on,0,0,4,,,,,,,,0,,,43,0
12348,note_on,0,0,4,,,,,,,,0,,,54,0
12348,note_on,0,0,1,,,,,,,,0,,,75,0
12348,note_on,48,0,1,,,,,,,,0,,,63,0
12348,note_on,48,0,4,,,,,,,,0,,,45,0
12348,note_on,0,0,4,,,,,,,,0,,,51,0
12348,note_on,0,0,4,,,,,,,,0,,,48,0
12360,note_on,0,0,1,,,,,,,,0,,,74,80
12360,note_on,0,0,4,,,,,,,,0,,,51,80
12360,note_on,0,0,4,,,,,,,,0,,,48,80
12360,note_on,0,0,4,,,,,,,,0,,,45,80
12360,note_on,0,0,4,,,,,,,,0,,,43,80
12360,note_on,12,0,4,,,,,,,,0,,,54,80
12360,note_on,12,0,1,,,,,,,,0,,,62,80
12408,note_on,0,0,4,,,,,,,,0,,,43,0
12408,note_on,0,0,4,,,,,,,,0,,,45,0
12408,note_on,0,0,1,,,,,,,,0,,,62,0
12408,note_on,48,0,4,,,,,,,,0,,,51,0
12408,note_on,0,0,4,,,,,,,,0,,,54,0
12408,note_on,0,0,4,,,,,,,,0,,,48,0
12408,note_on,48,0,1,,,,,,,,0,,,74,0
12420,note_on,0,0,4,,,,,,,,0,,,51,80
12420,note_on,0,0,4,,,,,,,,0,,,48,80
12420,note_on,12,0,1,,,,,,,,0,,,60,80
12420,note_on,0,0,1,,,,,,,,0,,,72,80
12420,note_on,12,0,4,,,,,,,,0,,,43,80
12420,note_on,0,0,4,,,,,,,,0,,,54,80
12420,note_on,0,0,4,,,,,,,,0,,,45,80
12468,note_on,48,0,4,,,,,,,,0,,,54,0
12468,note_on,0,0,4,,,,,,,,0,,,51,0
12468,note_on,0,0,1,,,,,,,,0,,,60,0
12468,note_on,0,0,4,,,,,,,,0,,,48,0
12468,note_on,48,0,1,,,,,,,,0,,,72,0
12468,note_on,0,0,4,,,,,,,,0,,,45,0
12468,note_on,0,0,4,,,,,,,,0,,,43,0
12480,note_on,0,0,4,,,,,,,,0,,,47,80
12480,note_on,0,0,4,,,,,,,,0,,,50,80
12480,note_on,0,0,1,,,,,,,,0,,,79,80
12480,note_on,0,0,1,,,,,,,,0,,,71,80
12480,note_on,12,0,4,,,,,,,,0,,,55,80
12480,note_on,12,0,1,,,,,,,,0,,,67,80
12480,note_on,0,0,4,,,,,,,,0,,,43,80
12486,control_change,6,0,4,,,,,,,,0,64,0,,
12576,note_on,0,0,4,,,,,,,,0,,,43,0
12576,note_on,0,0,4,,,,,,,,0,,,55,0
12576,note_on,0,0,4,,,,,,,,0,,,47,0
12576,note_on,0,0,1,,,,,,,,0,,,67,0
12576,note_on,90,0,4,,,,,,,,0,,,50,0
12576,note_on,0,0,1,,,,,,,,0,,,71,0
12576,note_on,96,0,1,,,,,,,,0,,,79,0
12596,control_change,20,0,4,,,,,,,,0,64,127,,
12600,note_on,0,0,4,,,,,,,,0,,,38,96
12600,note_on,4,0,4,,,,,,,,0,,,50,96
12630,note_on,0,0,3,,,,,,,,0,,,43,60
12630,note_on,1236,0,3,,,,,,,,0,,,31,60
12654,note_on,0,0,3,,,,,,,,0,,,31,0
12654,note_on,24,0,3,,,,,,,,0,,,43,0
12660,note_on,6,0,3,,,,,,,,0,,,45,60
12660,note_on,0,0,3,,,,,,,,0,,,33,60
12684,note_on,24,0,3,,,,,,,,0,,,33,0
12684,note_on,0,0,3,,,,,,,,0,,,45,0
12690,note_on,0,0,3,,,,,,,,0,,,47,60
12690,note_on,6,0,3,,,,,,,,0,,,35,60
12696,note_on,0,0,4,,,,,,,,0,,,50,0
12696,note_on,96,0,4,,,,,,,,0,,,38,0
12714,note_on,24,0,3,,,,,,,,0,,,47,0
12714,note_on,0,0,3,,,,,,,,0,,,35,0
12720,note_on,24,0,4,,,,,,,,0,,,48,96
12720,note_on,0,0,4,,,,,,,,0,,,36,96
12750,note_on,0,0,3,,,,,,,,0,,,50,60
12750,note_on,36,0,3,,,,,,,,0,,,38,60
12774,note_on,0,0,3,,,,,,,,0,,,38,0
12774,note_on,24,0,3,,,,,,,,0,,,50,0
12780,note_on,0,0,3,,,,,,,,0,,,43,60
12780,note_on,6,0,3,,,,,,,,0,,,31,60
12804,note_on,24,0,3,,,,,,,,0,,,43,0
12804,note_on,0,0,3,,,,,,,,0,,,31,0
12810,note_on,0,0,3,,,,,,,,0,,,45,60
12810,note_on,6,0,3,,,,,,,,0,,,33,60
12816,note_on,96,0,4,,,,,,,,0,,,36,0
12816,note_on,0,0,4,,,,,,,,0,,,48,0
12834,note_on,0,0,3,,,,,,,,0,,,33,0
12834,note_on,24,0,3,,,,,,,,0,,,45,0
12840,note_on,0,0,4,,,,,,,,0,,,47,96
12840,note_on,24,0,4,,,,,,,,0,,,35,96
12870,note_on,0,0,3,,,,,,,,0,,,48,60
12870,note_on,36,0,3,,,,,,,,0,,,36,60
12894,note_on,24,0,3,,,,,,,,0,,,48,0
12894,note_on,0,0,3,,,,,,,,0,,,36,0
12900,note_on,6,0,3,,,,,,,,0,,,38,60
12900,note_on,0,0,3,,,,,,,,0,,,50,60
12924,note_on,24,0,3,,,,,,,,0,,,50,0
12924,note_on,0,0,3,,,,,,,,0,,,38,0
12930,note_on,0,0,3,,,,,,,,0,,,43,60
12930,note_on,6,0,3,,,,,,,,0,,,31,60
12936,note_on,96,0,4,,,,,,,,0,,,47,0
12936,note_on,0,0,4,,,,,,,,0,,,35,0
12954,note_on,24,0,3,,,,,,,,0,,,43,0
12954,note_on,0,0,3,,,,,,,,0,,,31,0
12960,note_on,24,0,4,,,,,,,,0,,,32,96
12960,note_on,0,0,4,,,,,,,,0,,,44,96
12990,note_on,36,0,3,,,,,,,,0,,,35,60
12990,note_on,0,0,3,,,,,,,,0,,,47,60
13014,note_on,24,0,3,,,,,,,,0,,,47,0
13014,note_on,0,0,3,,,,,,,,0,,,35,0
13020,note_on,6,0,3,,,,,,,,0,,,48,60
13020,note_on,0,0,3,,,,,,,,0,,,36,60
13044,note_on,24,0,3,,,,,,,,0,,,36,0
13044,note_on,0,0,3,,,,,,,,0,,,48,0
13050,note_on,0,0,3,,,,,,,,0,,,38,60
13050,note_on,6,0,3,,,,,,,,0,,,50,60
13056,note_on,96,0,4,,,,,,,,0,,,44,0
13056,note_on,0,0,4,,,,,,,,0,,,32,0
13057,control_change,1,0,4,,,,,,,,0,64,0,,
13074,note_on,24,0,3,,,,,,,,0,,,38,0
13074,note_on,0,0,3,,,,,,,,0,,,50,0
13080,note_on,23,0,4,,,,,,,,0,,,31,96
13080,note_on,0,0,4,,,,,,,,0,,,43,96
13176,note_on,96,0,4,,,,,,,,0,,,43,0
13176,note_on,0,0,4,,,,,,,,0,,,31,0
13200,note_on,0,0,4,,,,,,,,0,,,48,80
13200,note_on,0,0,4,,,,,,,,0,,,45,80
13200,note_on,0,0,1,,,,,,,,0,,,75,80
13200,note_on,0,0,1,,,,,,,,0,,,87,80
13200,note_on,624,0,1,,,,,,,,0,,,78,80
13200,control_change,24,0,4,,,,,,,,0,64,127,,
13200,note_on,0,0,4,,,,,,,,0,,,43,80
13200,note_on,0,0,4,,,,,,,,0,,,51,80
13200,note_on,0,0,4,,,,,,,,0,,,54,80
13296,note_on,96,0,1,,,,,,,,0,,,75,0
13296,note_on,0,0,4,,,,,,,,0,,,54,0
13296,note_on,0,0,4,,,,,,,,0,,,51,0
13296,note_on,0,0,4,,,,,,,,0,,,45,0
13296,note_on,0,0,1,,,,,,,,0,,,87,0
13296,note_on,96,0,4,,,,,,,,0,,,48,0
13296,note_on,0,0,1,,,,,,,,0,,,78,0
13296,note_on,0,0,4,,,,,,,,0,,,43,0
13380,note_on,0,0,1,,,,,,,,0,,,84,80
13380,note_on,84,0,4,,,,,,,,0,,,45,80
13380,note_on,0,0,4,,,,,,,,0,,,43,80
13380,note_on,0,0,4,,,,,,,,0,,,48,80
13380,note_on,0,0,4,,,,,,,,0,,,51,80
13380,note_on,0,0,4,,,,,,,,0,,,54,80
13380,note_on,0,0,1,,,,,,,,0,,,72,80
13380,note_on,84,0,1,,,,,,,,0,,,75,80
13428,note_on,0,0,4,,,,,,,,0,,,43,0
13428,note_on,0,0,4,,,,,,,,0,,,45,0
13428,note_on,48,0,4,,,,,,,,0,,,48,0
13428,note_on,0,0,4,,,,,,,,0,,,51,0
13428,note_on,0,0,4,,,,,,,,0,,,54,0
13428,note_on,0,0,1,,,,,,,,0,,,72,0
13428,note_on,48,0,1,,,,,,,,0,,,84,0
13428,note_on,0,0,1,,,,,,,,0,,,75,0
13440,note_on,12,0,4,,,,,,,,0,,,43,80
13440,note_on,0,0,4,,,,,,,,0,,,45,80
13440,note_on,0,0,4,,,,,,,,0,,,48,80
13440,note_on,0,0,4,,,,,,,,0,,,51,80
13440,note_on,0,0,4,,,,,,,,0,,,54,80
13440,note_on,12,0,1,,,,,,,,0,,,75,80
13440,note_on,0,0,1,,,,,,,,0,,,84,80
13440,note_on,0,0,1,,,,,,,,0,,,72,80
13536,note_on,0,0,1,,,,,,,,0,,,75,0
13536,note_on,0,0,1,,,,,,,,0,,,72,0
13536,note_on,0,0,4,,,,,,,,0,,,51,0
13536,note_on,0,0,4,,,,,,,,0,,,48,0
13536,note_on,0,0,4,,,,,,,,0,,,45,0
13536,note_on,0,0,4,,,,,,,,0,,,43,0
13536,note_on,96,0,1,,,,,,,,0,,,84,0
13536,note_on,96,0,4,,,,,,,,0,,,54,0
13560,time_signature,1440,1,0,5,8,12,8,,,,,,,,
13620,note_on,0,0,4,,,,,,,,0,,,48,80
13620,note_on,84,0,1,,,,,,,,0,,,81,80
13620,note_on,84,0,4,,,,,,,,0,,,45,80
13620,note_on,0,0,4,,,,,,,,0,,,43,80
13620,note_on,0,0,1,,,,,,,,0,,,72,80
13620,note_on,0,0,1,,,,,,,,0,,,69,80
13620,note_on,0,0,4,,,,,,,,0,,,54,80
13620,note_on,0,0,4,,,,,,,,0,,,51,80
13668,note_on,48,0,4,,,,,,,,0,,,54,0
13668,note_on,0,0,4,,,,,,,,0,,,45,0
13668,note_on,48,0,1,,,,,,,,0,,,69,0
13668,note_on,0,0,4,,,,,,,,0,,,43,0
13668,note_on,0,0,1,,,,,,,,0,,,72,0
13668,note_on,0,0,1,,,,,,,,0,,,81,0
13668,note_on,0,0,4,,,,,,,,0,,,48,0
13668,note_on,0,0,4,,,,,,,,0,,,51,0
13680,note_on,0,0,1,,,,,,,,0,,,69,80
13680,note_on,0,0,1,,,,,,,,0,,,72,80
13680,note_on,12,0,4,,,,,,,,0,,,43,80
13680,note_on,0,0,4,,,,,,,,0,,,48,80
13680,note_on,0,0,4,,,,,,,,0,,,54,80
13680,note_on,0,0,4,,,,,,,,0,,,51,80
13680,note_on,0,0,4,,,,,,,,0,,,45,80
13680,note_on,12,0,1,,,,,,,,0,,,81,80
13690,control_change,10,0,4,,,,,,,,0,64,0,,
13776,note_on,0,0,4,,,,,,,,0,,,48,0
13776,note_on,0,0,1,,,,,,,,0,,,81,0
13776,note_on,86,0,4,,,,,,,,0,,,54,0
13776,note_on,0,0,4,,,,,,,,0,,,43,0
13776,note_on,0,0,1,,,,,,,,0,,,69,0
13776,note_on,96,0,1,,,,,,,,0,,,72,0
13776,note_on,0,0,4,,,,,,,,0,,,51,0
13776,note_on,0,0,4,,,,,,,,0,,,45,0
13920,note_on,0,0,1,,,,,,,,0,,,66,80
13920,note_on,0,0,4,,,,,,,,0,,,51,80
13920,note_on,0,0,4,,,,,,,,0,,,45,80
13920,note_on,144,0,1,,,,,,,,0,,,78,80
13920,note_on,144,0,4,,,,,,,,0,,,48,80
13920,note_on,0,0,4,,,,,,,,0,,,54,80
13920,note_on,0,0,4,,,,,,,,0,,,43,80
13922,control_change,2,0,4,,,,,,,,0,64,127,,
13968,note_on,0,0,4,,,,,,,,0,,,43,0
13968,note_on,0,0,4,,,,,,,,0,,,51,0
13968,note_on,0,0,4,,,,,,,,0,,,54,0
13968,note_on,0,0,4,,,,,,,,0,,,48,0
13968,note_on,0,0,1,,,,,,,,0,,,78,0
13968,note_on,46,0,4,,,,,,,,0,,,45,0
13968,note_on,48,0,1,,,,,,,,0,,,66,0
13980,note_on,0,0,4,,,,,,,,0,,,43,80
13980,note_on,12,0,1,,,,,,,,0,,,75,80
13980,note_on,12,0,4,,,,,,,,0,,,45,80
13980,note_on,0,0,4,,,,,,,,0,,,51,80
13980,note_on,0,0,4,,,,,,,,0,,,48,80
13980,note_on,0,0,1,,,,,,,,0,,,63,80
13980,note_on,0,0,4,,,,,,,,0,,,54,80
14028,note_on,48,0,1,,,,,,,,0,,,63,0
14028,note_on,0,0,4,,,,,,,,0,,,45,0
14028,note_on,48,0,4,,,,,,,,0,,,43,0
14028,note_on,0,0,4,,,,,,,,0,,,54,0
14028,note_on,0,0,4,,,,,,,,0,,,48,0
14028,note_on,0,0,1,,,,,,,,0,,,75,0
14028,note_on,0,0,4,,,,,,,,0,,,51,0
14040,note_on,0,0,4,,,,,,,,0,,,45,80
14040,note_on,12,0,4,,,,,,,,0,,,43,80
14040,note_on,12,0,1,,,,,,,,0,,,74,80
14040,note_on,0,0,4,,,,,,,,0,,,48,80
14040,note_on,0,0,4,,,,,,,,0,,,51,80
14040,note_on,0,0,1,,,,,,,,0,,,62,80
14040,note_on,0,0,4,,,,,,,,0,,,54,80
14088,note_on,48,0,1,,,,,,,,0,,,62,0
14088,note_on,0,0,4,,,,,,,,0,,,43,0
14088,note_on,0,0,1,,,,,,,,0,,,74,0
14088,note_on,0,0,4,,,,,,,,0,,,45,0
14088,note_on,0,0,4,,,,,,,,0,,,48,0
14088,note_on,0,0,4,,,,,,,,0,,,51,0
14088,note_on,48,0,4,,,,,,,,0,,,54,0
14100,note_on,0,0,4,,,,,,,,0,,,43,80
14100,note_on,0,0,4,,,,,,,,0,,,48,80
14100,note_on,12,0,1,,,,,,,,0,,,60,80
14100,note_on,0,0,4,,,,,,,,0,,,51,80
14100,note_on,0,0,4,,,,,,,,0,,,54,80
14100,note_on,12,0,4,,,,,,,,0,,,45,80
14100,note_on,0,0,1,,,,,,,,0,,,72,80
14148,note_on,48,0,4,,,,,,,,0,,,43,0
14148,note_on,48,0,1,,,,,,,,0,,,72,0
14148,note_on,0,0,4,,,,,,,,0,,,45,0
14148,note_on,0,0,1,,,,,,,,0,,,60,0
14148,note_on,0,0,4,,,,,,,,0,,,48,0
14148,note_on,0,0,4,,,,,,,,0,,,54,0
14148,note_on,0,0,4,,,,,,,,0,,,51,0
14160,note_on,0,0,4,,,,,,,,0,,,43,80
14160,note_on,12,0,1,,,,,,,,0,,,67,80
14160,note_on,0,0,4,,,,,,,,0,,,55,80
14160,note_on,0,0,4,,,,,,,,0,,,50,80
14160,note_on,0,0,4,,,,,,,,0,,,47,80
14160,time_signature,600,1,0,6,8,12,8,,,,,,,,
14160,note_on,0,0,1,,,,,,,,0,,,71,80
14160,control_change,12,0,4,,,,,,,,0,64,0,,
14160,note_on,0,0,1,,,,,,,,0,,,79,80
14256,note_on,96,0,1,,,,,,,,0,,,71,0
14256,note_on,0,0,4,,,,,,,,0,,,55,0
14256,note_on,0,0,4,,,,,,,,0,,,50,0
14256,note_on,0,0,4,,,,,,,,0,,,47,0
14256,note_on,96,0,4,,,,,,,,0,,,43,0
14256,note_on,0,0,1,,,,,,,,0,,,67,0
14256,note_on,0,0,1,,,,,,,,0,,,79,0
14280,note_on,0,0,4,,,,,,,,0,,,50,96
14280,note_on,0,0,4,,,,,,,,0,,,38,96
14280,note_on,24,0,4,,,,,,,,0,,,62,96
14280,control_change,0,0,4,,,,,,,,0,64,127,,
14310,note_on,1236,0,3,,,,,,,,0,,,55,77
14334,note_on,24,0,3,,,,,,,,0,,,55,0
14340,note_on,6,0,3,,,,,,,,0,,,57,77
14364,note_on,24,0,3,,,,,,,,0,,,57,0
14370,note_on,6,0,3,,,,,,,,0,,,59,77
14376,note_on,0,0,4,,,,,,,,0,,,62,0
14376,note_on,96,0,4,,,,,,,,0,,,50,0
14376,note_on,0,0,4,,,,,,,,0,,,38,0
14394,note_on,24,0,3,,,,,,,,0,,,59,0
14400,note_on,0,0,4,,,,,,,,0,,,36,96
14400,note_on,24,0,4,,,,,,,,0,,,60,96
14400,note_on,0,0,4,,,,,,,,0,,,48,96
14430,note_on,36,0,3,,,,,,,,0,,,62,77
14454,note_on,24,0,3,,,,,,,,0,,,62,0
14460,note_on,6,0,3,,,,,,,,0,,,55,77
14484,note_on,24,0,3,,,,,,,,0,,,55,0
14490,note_on,6,0,3,,,,,,,,0,,,57,77
14496,note_on,0,0,4,,,,,,,,0,,,60,0
14496,note_on,0,0,4,,,,,,,,0,,,48,0
14496,note_on,96,0,4,,,,,,,,0,,,36,0
14514,note_on,24,0,3,,,,,,,,0,,,57,0
14520,note_on,24,0,4,,,,,,,,0,,,47,96
14520,note_on,0,0,4,,,,,,,,0,,,35,96
14520,note_on,0,0,4,,,,,,,,0,,,59,96
14550,note_on,36,0,3,,,,,,,,0,,,60,77
14574,note_on,24,0,3,,,,,,,,0,,,60,0
14580,note_on,6,0,3,,,,,,,,0,,,62,77
14604,note_on,24,0,3,,,,,,,,0,,,62,0
14610,note_on,6,0,3,,,,,,,,0,,,55,77
14616,note_on,0,0,4,,,,,,,,0,,,35,0
14616,note_on,0,0,4,,,,,,,,0,,,47,0
14616,note_on,96,0,4,,,,,,,,0,,,59,0
14634,note_on,24,0,3,,,,,,,,0,,,55,0
14640,note_on,0,0,4,,,,,,,,0,,,32,96
14640,note_on,0,0,4,,,,,,,,0,,,56,96
14640,note_on,24,0,4,,,,,,,,0,,,44,96
14670,note_on,36,0,3,,,,,,,,0,,,59,77
14694,note_on,24,0,3,,,,,,,,0,,,59,0
14700,note_on,6,0,3,,,,,,,,0,,,60,77
14724,note_on,24,0,3,,,,,,,,0,,,60,0
14730,note_on,6,0,3,,,,,,,,0,,,62,77
14736,note_on,0,0,4,,,,,,,,0,,,44,0
14736,note_on,96,0,4,,,,,,,,0,,,56,0
14736,note_on,0,0,4,,,,,,,,0,,,32,0
14744,control_change,8,0,4,,,,,,,,0,64,0,,
14754,note_on,24,0,3,,,,,,,,0,,,62,0
14760,note_on,0,0,4,,,,,,,,0,,,31,96
14760,note_on,0,0,4,,,,,,,,0,,,43,96
14760,note_on,16,0,4,,,,,,,,0,,,55,96
14856,note_on,96,0,4,,,,,,,,0,,,31,0
14856,note_on,0,0,4,,,,,,,,0,,,43,0
14856,note_on,0,0,4,,,,,,,,0,,,55,0
14880,note_on,0,0,4,,,,,,,,0,,,68,96
14880,note_on,0,0,4,,,,,,,,0,,,56,96
14880,note_on,0,0,4,,,,,,,,0,,,44,96
14880,control_change,24,0,4,,,,,,,,0,64,127,,
14910,note_on,6174,0,2,,,,,,,,0,,,61,80
14934,note_on,24,0,2,,,,,,,,0,,,61,0
14940,note_on,6,0,2,,,,,,,,0,,,63,80
14964,note_on,24,0,2,,,,,,,,0,,,63,0
14970,note_on,6,0,2,,,,,,,,0,,,65,80
14976,note_on,0,0,4,,,,,,,,0,,,68,0
14976,note_on,0,0,4,,,,,,,,0,,,56,0
14976,note_on,96,0,4,,,,,,,,0,,,44,0
14994,note_on,24,0,2,,,,,,,,0,,,65,0
15000,note_on,0,0,4,,,,,,,,0,,,54,96
15000,note_on,0,0,4,,,,,,,,0,,,66,96
15000,note_on,24,0,4,,,,,,,,0,,,42,96
15030,note_on,36,0,2,,,,,,,,0,,,68,80
15054,note_on,24,0,2,,,,,,,,0,,,68,0
15060,note_on,6,0,2,,,,,,,,0,,,61,80
15084,note_on,24,0,2,,,,,,,,0,,,61,0
15090,note_on,6,0,2,,,,,,,,0,,,63,80
15096,note_on,0,0,4,,,,,,,,0,,,42,0
15096,note_on,96,0,4,,,,,,,,0,,,54,0
15096,note_on,0,0,4,,,,,,,,0,,,66,0
15114,note_on,24,0,2,,,,,,,,0,,,63,0
15120,note_on,24,0,4,,,,,,,,0,,,65,96
15120,note_on,0,0,4,,,,,,,,0,,,41,96
15120,note_on,0,0,4,,,,,,,,0,,,53,96
15150,note_on,36,0,2,,,,,,,,0,,,66,80
15174,note_on,24,0,2,,,,,,,,0,,,66,0
15180,note_on,6,0,2,,,,,,,,0,,,68,80
15204,note_on,24,0,2,,,,,,,,0,,,68,0
15210,note_on,6,0,2,,,,,,,,0,,,61,80
15216,note_on,96,0,4,,,,,,,,0,,,53,0
15216,note_on,0,0,4,,,,,,,,0,,,65,0
15216,note_on,0,0,4,,,,,,,,0,,,41,0
15234,note_on,24,0,2,,,,,,,,0,,,61,0
15240,note_on,24,0,4,,,,,,,,0,,,39,96
15240,note_on,0,0,4,,,,,,,,0,,,63,96
15240,note_on,0,0,4,,,,,,,,0,,,51,96
15270,note_on,36,0,2,,,,,,,,0,,,65,80
15294,note_on,24,0,2,,,,,,,,0,,,65,0
15300,note_on,6,0,2,,,,,,,,0,,,66,80
15324,note_on,24,0,2,,,,,,,,0,,,66,0
15330,note_on,6,0,2,,,,,,,,0,,,68,80
15336,note_on,0,0,4,,,,,,,,0,,,39,0
15336,note_on,0,0,4,,,,,,,,0,,,51,0
15336,note_on,96,0,4,,,,,,,,0,,,63,0
15354,note_on,24,0,2,,,,,,,,0,,,68,0
15360,control_change,0,0,4,,,,,,,,0,64,0,,
15360,note_on,24,0,4,,,,,,,,0,,,37,96
15360,note_on,0,0,4,,,,,,,,0,,,49,96
15360,note_on,0,0,4,,,,,,,,0,,,61,96
15456,note_on,0,0,4,,,,,,,,0,,,37,0
15456,note_on,0,0,4,,,,,,,,0,,,61,0
15456,note_on,96,0,4,,,,,,,,0,,,49,0
15480,note_on,0,0,1,,,,,,,,0,,,85,80
15480,note_on,24,0,4,,,,,,,,0,,,61,96
15480,note_on,1224,0,1,,,,,,,,0,,,89,80
15480,note_on,0,0,4,,,,,,,,0,,,53,96
15480,note_on,0,0,4,,,,,,,,0,,,56,96
15480,note_on,0,0,4,,,,,,,,0,,,49,96
15480,note_on,0,0,1,,,,,,,,0,,,80,80
15480,note_on,0,0,1,,,,,,,,0,,,77,80
15576,note_on,0,0,1,,,,,,,,0,,,80,0
15576,note_on,96,0,1,,,,,,,,0,,,77,0
15576,note_on,0,0,4,,,,,,,,0,,,49,0
15576,note_on,0,0,4,,,,,,,,0,,,53,0
15576,note_on,0,0,1,,,,,,,,0,,,85,0
15576,note_on,0,0,4,,,,,,,,0,,,61,0
15576,note_on,0,0,1,,,,,,,,0,,,89,0
15576,note_on,96,0,4,,,,,,,,0,,,56,0
15600,note_on,0,0,1,,,,,,,,0,,,79,80
15600,note_on,0,0,4,,,,,,,,0,,,50,80
15600,note_on,24,0,4,,,,,,,,0,,,47,80
15600,note_on,0,0,1,,,,,,,,0,,,83,80
15600,note_on,0,0,1,,,,,,,,0,,,86,80
15600,note_on,0,0,4,,,,,,,,0,,,55,80
15600,note_on,24,0,1,,,,,,,,0,,,91,80
15600,note_on,0,0,4,,,,,,,,0,,,43,80
15696,note_on,96,0,1,,,,,,,,0,,,79,0
15696,note_on,0,0,4,,,,,,,,0,,,50,0
15696,note_on,0,0,4,,,,,,,,0,,,43,0
15696,note_on,96,0,4,,,,,,,,0,,,55,0
15696,note_on,0,0,4,,,,,,,,0,,,47,0
15696,note_on,0,0,1,,,,,,,,0,,,86,0
15696,note_on,0,0,1,,,,,,,,0,,,83,0
15696,note_on,0,0,1,,,,,,,,0,,,91,0
15720,note_on,0,0,4,,,,,,,,0,,,50,96
15720,note_on,0,0,4,,,,,,,,0,,,62,96
15720,note_on,24,0,4,,,,,,,,0,,,38,96
15722,control_change,2,0,4,,,,,,,,0,64,127,,
15750,note_on,996,0,3,,,,,,,,0,,,55,77
15774,note_on,24,0,3,,,,,,,,0,,,55,0
15780,note_on,6,0,3,,,,,,,,0,,,57,77
15804,note_on,24,0,3,,,,,,,,0,,,57,0
15810,note_on,6,0,3,,,,,,,,0,,,59,77
15816,note_on,0,0,4,,,,,,,,0,,,38,0
15816,note_on,0,0,4,,,,,,,,0,,,62,0
15816,note_on,94,0,4,,,,,,,,0,,,50,0
15834,note_on,24,0,3,,,,,,,,0,,,59,0
15840,note_on,0,0,4,,,,,,,,0,,,48,96
15840,note_on,0,0,4,,,,,,,,0,,,36,96
15840,note_on,24,0,4,,,,,,,,0,,,60,96
15870,note_on,36,0,3,,,,,,,,0,,,62,77
15894,note_on,24,0,3,,,,,,,,0,,,62,0
15900,note_on,6,0,3,,,,,,,,0,,,55,77
15924,note_on,24,0,3,,,,,,,,0,,,55,0
15930,note_on,6,0,3,,,,,,,,0,,,57,77
15936,note_on,96,0,4,,,,,,,,0,,,48,0
15936,note_on,0,0,4,,,,,,,,0,,,36,0
15936,note_on,0,0,4,,,,,,,,0,,,60,0
15954,note_on,24,0,3,,,,,,,,0,,,57,0
15960,note_on,0,0,4,,,,,,,,0,,,35,96
15960,note_on,24,0,4,,,,,,,,0,,,47,96
15960,note_on,0,0,4,,,,,,,,0,,,59,96
15990,note_on,36,0,3,,,,,,,,0,,,60,77
16014,note_on,24,0,3,,,,,,,,0,,,60,0
16020,note_on,6,0,3,,,,,,,,0,,,62,77
16044,note_on,24,0,3,,,,,,,,0,,,62,0
16050,note_on,6,0,3,,,,,,,,0,,,55,77
16056,note_on,0,0,4,,,,,,,,0,,,35,0
16056,note_on,0,0,4,,,,,,,,0,,,47,0
16056,note_on,96,0,4,,,,,,,,0,,,59,0
16074,note_on,24,0,3,,,,,,,,0,,,55,0
16080,note_on,24,0,4,,,,,,,,0,,,56,96
16080,note_on,0,0,4,,,,,,,,0,,,32,96
16080,note_on,0,0,4,,,,,,,,0,,,44,96
16110,note_on,36,0,3,,,,,,,,0,,,59,77
16134,note_on,24,0,3,,,,,,,,0,,,59,0
16140,note_on,6,0,3,,,,,,,,0,,,60,77
16164,note_on,24,0,3,,,,,,,,0,,,60,0
16170,note_on,6,0,3,,,,,,,,0,,,62,77
16176,note_on,0,0,4,,,,,,,,0,,,32,0
16176,note_on,0,0,4,,,,,,,,0,,,56,0
16176,note_on,96,0,4,,,,,,,,0,,,44,0
16194,note_on,24,0,3,,,,,,,,0,,,62,0
16200,note_on,0,0,4,,,,,,,,0,,,31,96
16200,note_on,0,0,4,,,,,,,,0,,,55,96
16200,note_on,24,0,4,,,,,,,,0,,,43,96
16202,control_change,2,0,4,,,,,,,,0,64,0,,
16296,note_on,0,0,4,,,,,,,,0,,,43,0
16296,note_on,0,0,4,,,,,,,,0,,,55,0
16296,note_on,94,0,4,,,,,,,,0,,,31,0
16320,note_on,0,0,4,,,,,,,,0,,,68,96
16320,note_on,0,0,4,,,,,,,,0,,,44,96
16320,control_change,0,0,4,,,,,,,,0,64,127,,
16320,note_on,24,0,4,,,,,,,,0,,,56,96
16350,note_on,996,0,2,,,,,,,,0,,,61,80
16374,note_on,24,0,2,,,,,,,,0,,,61,0
16380,note_on,6,0,2,,,,,,,,0,,,63,80
16404,note_on,24,0,2,,,,,,,,0,,,63,0
16410,note_on,6,0,2,,,,,,,,0,,,65,80
16416,note_on,96,0,4,,,,,,,,0,,,68,0
16416,note_on,0,0,4,,,,,,,,0,,,56,0
16416,note_on,0,0,4,,,,,,,,0,,,44,0
16434,note_on,24,0,2,,,,,,,,0,,,65,0
16440,note_on,24,0,4,,,,,,,,0,,,54,96
16440,note_on,0,0,4,,,,,,,,0,,,42,96
16440,note_on,0,0,4,,,,,,,,0,,,66,96
16470,note_on,36,0,2,,,,,,,,0,,,68,80
16494,note_on,24,0,2,,,,,,,,0,,,68,0
16500,note_on,6,0,2,,,,,,,,0,,,61,80
16524,note_on,24,0,2,,,,,,,,0,,,61,0
16530,note_on,6,0,2,,,,,,,,0,,,63,80
16536,note_on,0,0,4,,,,,,,,0,,,54,0
16536,note_on,0,0,4,,,,,,,,0,,,66,0
16536,note_on,96,0,4,,,,,,,,0,,,42,0
16554,note_on,24,0,2,,,,,,,,0,,,63,0
16560,note_on,0,0,4,,,,,,,,0,,,53,96
16560,note_on,24,0,4,,,,,,,,0,,,41,96
16560,note_on,0,0,4,,,,,,,,0,,,65,96
16590,note_on,36,0,2,,,,,,,,0,,,66,80
16614,note_on,24,0,2,,,,,,,,0,,,66,0
16620,note_on,6,0,2,,,,,,,,0,,,68,80
16644,note_on,24,0,2,,,,,,,,0,,,68,0
16650,note_on,6,0,2,,,,,,,,0,,,61,80
16656,note_on,0,0,4,,,,,,,,0,,,53,0
16656,note_on,0,0,4,,,,,,,,0,,,41,0
16656,note_on,96,0,4,,,,,,,,0,,,65,0
16674,note_on,24,0,2,,,,,,,,0,,,61,0
16680,note_on,24,0,4,,,,,,,,0,,,51,96
16680,note_on,0,0,4,,,,,,,,0,,,39,96
16680,note_on,0,0,4,,,,,,,,0,,,63,96
16710,note_on,36,0,2,,,,,,,,0,,,65,80
16734,note_on,24,0,2,,,,,,,,0,,,65,0
16740,note_on,6,0,2,,,,,,,,0,,,66,80
16764,note_on,24,0,2,,,,,,,,0,,,66,0
16770,note_on,6,0,2,,,,,,,,0,,,68,80
16776,note_on,96,0,4,,,,,,,,0,,,39,0
16776,note_on,0,0,4,,,,,,,,0,,,51,0
16776,note_on,0,0,4,,,,,,,,0,,,63,0
16782,control_change,6,0,4,,,,,,,,0,64,0,,
16794,note_on,24,0,2,,,,,,,,0,,,68,0
16800,note_on,18,0,4,,,,,,,,0,,,49,96
16800,note_on,0,0,4,,,,,,,,0,,,61,96
16800,note_on,0,0,4,,,,,,,,0,,,37,96
16896,note_on,96,0,4,,,,,,,,0,,,37,0
16896,note_on,0,0,4,,,,,,,,0,,,61,0
16896,note_on,0,0,4,,,,,,,,0,,,49,0
16920,note_on,0,0,4,,,,,,,,0,,,61,96
16920,note_on,0,0,1,,,,,,,,0,,,77,80
16920,note_on,0,0,1,,,,,,,,0,,,80,80
16920,note_on,0,0,1,,,,,,,,0,,,85,80
16920,note_on,0,0,4,,,,,,,,0,,,53,96
16920,note_on,24,0,4,,,,,,,,0,,,49,96
16920,note_on,0,0,4,,,,,,,,0,,,56,96
16920,note_on,1224,0,1,,,,,,,,0,,,89,80
17016,note_on,96,0,1,,,,,,,,0,,,77,0
17016,note_on,96,0,4,,,,,,,,0,,,56,0
17016,note_on,0,0,1,,,,,,,,0,,,80,0
17016,note_on,0,0,1,,,,,,,,0,,,89,0
17016,note_on,0,0,1,,,,,,,,0,,,85,0
17016,note_on,0,0,4,,,,,,,,0,,,49,0
17016,note_on,0,0,4,,,,,,,,0,,,53,0
17016,note_on,0,0,4,,,,,,,,0,,,61,0
17033,set_tempo,2873,1,0,,,,,,433965,,,,,,
17040,note_on,0,0,4,,,,,,,,0,,,50,80
17040,note_on,0,0,1,,,,,,,,0,,,91,80
17040,note_on,0,0,4,,,,,,,,0,,,55,80
17040,note_on,0,0,1,,,,,,,,0,,,86,80
17040,note_on,24,0,1,,,,,,,,0,,,95,80
17040,control_change,24,0,4,,,,,,,,0,64,127,,
17040,note_on,0,0,4,,,,,,,,0,,,47,80
17040,note_on,0,0,1,,,,,,,,0,,,83,80
17040,note_on,0,0,4,,,,,,,,0,,,43,80
17090,set_tempo,57,1,0,,,,,,436300,,,,,,
17147,set_tempo,57,1,0,,,,,,438661,,,,,,
17199,set_tempo,52,1,0,,,,,,441047,,,,,,
17256,set_tempo,57,1,0,,,,,,443459,,,,,,
17312,set_tempo,56,1,0,,,,,,445898,,,,,,
17328,note_on,0,0,4,,,,,,,,0,,,43,0
17328,note_on,0,0,4,,,,,,,,0,,,47,0
17328,note_on,288,0,4,,,,,,,,0,,,55,0
17328,note_on,0,0,4,,,,,,,,0,,,50,0
17328,note_on,0,0,1,,,,,,,,0,,,95,0
17328,note_on,0,0,1,,,,,,,,0,,,86,0
17328,note_on,288,0,1,,,,,,,,0,,,83,0
17328,note_on,0,0,1,,,,,,,,0,,,91,0
17365,set_tempo,53,1,0,,,,,,448363,,,,,,
17400,note_on,0,0,4,,,,,,,,0,,,48,83
17400,note_on,0,0,4,,,,,,,,0,,,53,83
17400,note_on,72,0,4,,,,,,,,0,,,41,83
17400,note_on,0,0,4,,,,,,,,0,,,44,83
17400,note_on,72,0,1,,,,,,,,0,,,84,83
17400,note_on,0,0,1,,,,,,,,0,,,92,83
17400,note_on,0,0,1,,,,,,,,0,,,96,83
17400,note_on,0,0,1,,,,,,,,0,,,89,83
17421,set_tempo,56,1,0,,,,,,450857,,,,,,
17478,set_tempo,57,1,0,,,,,,453378,,,,,,
17531,set_tempo,53,1,0,,,,,,455927,,,,,,
17587,set_tempo,56,1,0,,,,,,458505,,,,,,
17644,set_tempo,57,1,0,,,,,,461113,,,,,,
17688,note_on,288,0,1,,,,,,,,0,,,92,0
17688,note_on,0,0,1,,,,,,,,0,,,96,0
17688,note_on,0,0,1,,,,,,,,0,,,89,0
17688,note_on,0,0,1,,,,,,,,0,,,84,0
17688,note_on,0,0,4,,,,,,,,0,,,41,0
17688,note_on,0,0,4,,,,,,,,0,,,48,0
17688,note_on,0,0,4,,,,,,,,0,,,53,0
17688,note_on,288,0,4,,,,,,,,0,,,44,0
17696,set_tempo,52,1,0,,,,,,463750,,,,,,
17753,set_tempo,57,1,0,,,,,,466418,,,,,,
17760,note_on,0,0,1,,,,,,,,0,,,92,86
17760,note_on,0,0,4,,,,,,,,0,,,49,86
17760,note_on,72,0,1,,,,,,,,0,,,97,86
17760,note_on,0,0,4,,,,,,,,0,,,41,86
17760,note_on,0,0,4,,,,,,,,0,,,37,86
17760,control_change,72,0,4,,,,,,,,0,64,0,,
17760,note_on,0,0,1,,,,,,,,0,,,85,86
17760,note_on,0,0,4,,,,,,,,0,,,44,86
17760,note_on,0,0,1,,,,,,,,0,,,89,86
17810,set_tempo,57,1,0,,,,,,469116,,,,,,
17850,control_change,90,0,4,,,,,,,,0,64,127,,
17862,set_tempo,52,1,0,,,,,,471846,,,,,,
17919,set_tempo,57,1,0,,,,,,474608,,,,,,
17976,set_tempo,57,1,0,,,,,,477403,,,,,,
18028,set_tempo,52,1,0,,,,,,480231,,,,,,
18048,note_on,198,0,4,,,,,,,,0,,,37,0
18048,note_on,288,0,1,,,,,,,,0,,,85,0
18048,note_on,0,0,1,,,,,,,,0,,,97,0
18048,note_on,0,0,1,,,,,,,,0,,,92,0
18048,note_on,0,0,1,,,,,,,,0,,,89,0
18048,note_on,0,0,4,,,,,,,,0,,,41,0
18048,note_on,0,0,4,,,,,,,,0,,,49,0
18048,note_on,0,0,4,,,,,,,,0,,,44,0
18085,set_tempo,57,1,0,,,,,,483092,,,,,,
18120,note_on,72,0,4,,,,,,,,0,,,48,89
18120,note_on,0,0,1,,,,,,,,0,,,86,89
18120,note_on,0,0,4,,,,,,,,0,,,44,89
18120,note_on,0,0,1,,,,,,,,0,,,92,89
18120,note_on,0,0,4,,,,,,,,0,,,41,89
18120,note_on,72,0,1,,,,,,,,0,,,98,89
18120,note_on,0,0,4,,,,,,,,0,,,36,89
18120,note_on,0,0,1,,,,,,,,0,,,89,89
18141,set_tempo,56,1,0,,,,,,485987,,,,,,
18194,set_tempo,53,1,0,,,,,,488918,,,,,,
18251,set_tempo,57,1,0,,,,,,491884,,,,,,
18307,set_tempo,56,1,0,,,,,,494886,,,,,,
18360,set_tempo,53,1,0,,,,,,497925,,,,,,
18408,note_on,0,0,4,,,,,,,,0,,,44,0
18408,note_on,0,0,4,,,,,,,,0,,,41,0
18408,note_on,288,0,1,,,,,,,,0,,,86,0
18408,note_on,0,0,4,,,,,,,,0,,,48,0
18408,note_on,288,0,4,,,,,,,,0,,,36,0
18408,note_on,0,0,1,,,,,,,,0,,,89,0
18408,note_on,0,0,1,,,,,,,,0,,,92,0
18408,note_on,0,0,1,,,,,,,,0,,,98,0
18416,set_tempo,56,1,0,,,,,,501002,,,,,,
18469,set_tempo,53,1,0,,,,,,504117,,,,,,
18480,note_on,0,0,4,,,,,,,,0,,,44,92
18480,note_on,0,0,4,,,,,,,,0,,,38,92
18480,note_on,0,0,1,,,,,,,,0,,,89,92
18480,note_on,0,0,1,,,,,,,,0,,,98,92
18480,note_on,0,0,1,,,,,,,,0,,,101,92
18480,note_on,0,0,4,,,,,,,,0,,,36,92
18480,note_on,0,0,4,,,,,,,,0,,,32,92
18480,control_change,72,0,4,,,,,,,,0,64,0,,
18480,note_on,72,0,1,,,,,,,,0,,,96,92
18482,set_tempo,13,1,0,,,,,,571646,,,,,,
18525,control_change,45,0,4,,,,,,,,0,64,127,,
18624,note_on,0,0,1,,,,,,,,0,,,96,0
18624,note_on,0,0,1,,,,,,,,0,,,98,0
18624,note_on,0,0,1,,,,,,,,0,,,101,0
18624,note_on,144,0,1,,,,,,,,0,,,89,0
18624,note_on,0,0,4,,,,,,,,0,,,44,0
18624,note_on,0,0,4,,,,,,,,0,,,36,0
18624,note_on,99,0,4,,,,,,,,0,,,38,0
18624,note_on,0,0,4,,,,,,,,0,,,32,0
18660,note_on,0,0,4,,,,,,,,0,,,32,94
18660,note_on,0,0,1,,,,,,,,0,,,98,94
18660,note_on,0,0,4,,,,,,,,0,,,38,94
18660,note_on,0,0,4,,,,,,,,0,,,44,94
18660,note_on,36,0,1,,,,,,,,0,,,96,94
18660,note_on,36,0,4,,,,,,,,0,,,36,94
18660,note_on,0,0,1,,,,,,,,0,,,89,94
18660,note_on,0,0,1,,,,,,,,0,,,101,94
18722,set_tempo,240,1,0,,,,,,575705,,,,,,
18804,note_on,0,0,4,,,,,,,,0,,,32,0
18804,note_on,0,0,4,,,,,,,,0,,,36,0
18804,note_on,0,0,4,,,,,,,,0,,,44,0
18804,note_on,0,0,1,,,,,,,,0,,,89,0
18804,note_on,144,0,4,,,,,,,,0,,,38,0
18804,note_on,0,0,1,,,,,,,,0,,,96,0
18804,note_on,0,0,1,,,,,,,,0,,,98,0
18804,note_on,144,0,1,,,,,,,,0,,,101,0
18840,note_on,36,0,4,,,,,,,,0,,,32,96
18840,note_on,0,0,1,,,,,,,,0,,,89,96
18840,note_on,36,0,1,,,,,,,,0,,,96,96
18840,note_on,0,0,1,,,,,,,,0,,,98,96
18840,note_on,0,0,1,,,,,,,,0,,,101,96
18840,note_on,0,0,4,,,,,,,,0,,,36,96
18840,note_on,0,0,4,,,,,,,,0,,,38,96
18840,note_on,0,0,4,,,,,,,,0,,,44,96
18962,set_tempo,240,1,0,,,,,,579822,,,,,,
18984,note_on,0,0,4,,,,,,,,0,,,32,0
18984,note_on,0,0,4,,,,,,,,0,,,36,0
18984,note_on,144,0,4,,,,,,,,0,,,38,0
18984,note_on,0,0,1,,,,,,,,0,,,96,0
18984,note_on,0,0,4,,,,,,,,0,,,44,0
18984,note_on,0,0,1,,,,,,,,0,,,89,0
18984,note_on,0,0,1,,,,,,,,0,,,101,0
18984,note_on,144,0,1,,,,,,,,0,,,98,0
19020,note_on,36,0,4,,,,,,,,0,,,38,97
19020,note_on,0,0,4,,,,,,,,0,,,32,97
19020,note_on,0,0,1,,,,,,,,0,,,98,97
19020,note_on,0,0,1,,,,,,,,0,,,101,97
19020,note_on,0,0,4,,,,,,,,0,,,36,97
19020,note_on,0,0,1,,,,,,,,0,,,89,97
19020,note_on,36,0,1,,,,,,,,0,,,96,97
19020,note_on,0,0,4,,,,,,,,0,,,44,97
19140,control_change,120,0,4,,,,,,,,0,64,0,,
19164,note_on,0,0,1,,,,,,,,0,,,98,0
19164,note_on,0,0,1,,,,,,,,0,,,96,0
19164,note_on,144,0,1,,,,,,,,0,,,89,0
19164,note_on,0,0,1,,,,,,,,0,,,101,0
19164,note_on,24,0,4,,,,,,,,0,,,36,0
19164,note_on,0,0,4,,,,,,,,0,,,32,0
19164,note_on,0,0,4,,,,,,,,0,,,38,0
19164,note_on,0,0,4,,,,,,,,0,,,44,0
19189,set_tempo,227,1,0,,,,,,579822,,,,,,
19200,note_on,0,0,4,,,,,,,,0,,,50,99
19200,note_on,36,0,4,,,,,,,,0,,,35,99
19200,note_on,0,0,4,,,,,,,,0,,,59,99
19200,note_on,0,0,4,,,,,,,,0,,,31,99
19200,note_on,0,0,4,,,,,,,,0,,,38,99
19200,note_on,0,0,4,,,,,,,,0,,,43,99
19200,note_on,0,0,4,,,,,,,,0,,,53,99
19203,control_change,3,0,4,,,,,,,,0,64,127,,
19250,set_tempo,61,1,0,,,,,,575705,,,,,,
19296,note_on,0,0,4,,,,,,,,0,,,31,0
19296,note_on,0,0,4,,,,,,,,0,,,53,0
19296,note_on,0,0,4,,,,,,,,0,,,38,0
19296,note_on,0,0,4,,,,,,,,0,,,35,0
19296,note_on,0,0,4,,,,,,,,0,,,50,0
19296,note_on,93,0,4,,,,,,,,0,,,59,0
19296,note_on,0,0,4,,,,,,,,0,,,43,0
19311,set_tempo,61,1,0,,,,,,571646,,,,,,
19315,set_tempo,4,1,0,,,,,,443459,,,,,,
19320,note_on,2526,0,2,,,,,,,,0,,,80,80
19320,note_on,156,0,1,,,,,,,,0,,,92,80
19345,note_on,25,0,1,,,,,,,,0,,,92,0
19345,note_on,25,0,2,,,,,,,,0,,,80,0
19346,note_on,1,0,1,,,,,,,,0,,,91,80
19346,note_on,1,0,2,,,,,,,,0,,,79,80
19371,note_on,25,0,1,,,,,,,,0,,,91,0
19371,note_on,25,0,2,,,,,,,,0,,,79,0
19372,note_on,1,0,1,,,,,,,,0,,,90,80
19372,note_on,1,0,2,,,,,,,,0,,,78,80
19397,note_on,25,0,1,,,,,,,,0,,,90,0
19397,note_on,25,0,2,,,,,,,,0,,,78,0
19398,note_on,1,0,1,,,,,,,,0,,,89,80
19398,note_on,1,0,2,,,,,,,,0,,,77,80
19423,note_on,25,0,2,,,,,,,,0,,,77,0
19423,note_on,25,0,1,,,,,,,,0,,,89,0
19424,note_on,1,0,1,,,,,,,,0,,,88,80
19424,note_on,1,0,2,,,,,,,,0,,,76,80
19449,note_on,25,0,1,,,,,,,,0,,,88,0
19449,note_on,25,0,2,,,,,,,,0,,,76,0
19450,note_on,1,0,1,,,,,,,,0,,,87,80
19450,note_on,1,0,2,,,,,,,,0,,,75,80
19475,note_on,25,0,1,,,,,,,,0,,,87,0
19475,note_on,25,0,2,,,,,,,,0,,,75,0
19476,note_on,1,0,2,,,,,,,,0,,,74,80
19476,note_on,1,0,1,,,,,,,,0,,,86,80
19501,note_on,25,0,2,,,,,,,,0,,,74,0
19501,note_on,25,0,1,,,,,,,,0,,,86,0
19502,note_on,1,0,1,,,,,,,,0,,,85,80
19502,note_on,1,0,2,,,,,,,,0,,,73,80
19527,note_on,25,0,1,,,,,,,,0,,,85,0
19527,note_on,25,0,2,,,,,,,,0,,,73,0
19528,note_on,1,0,1,,,,,,,,0,,,84,80
19528,note_on,1,0,2,,,,,,,,0,,,72,80
19553,note_on,25,0,1,,,,,,,,0,,,84,0
19553,note_on,25,0,2,,,,,,,,0,,,72,0
19554,note_on,1,0,1,,,,,,,,0,,,83,80
19554,note_on,1,0,2,,,,,,,,0,,,71,80
19650,note_on,96,0,2,,,,,,,,0,,,71,0
19650,note_on,96,0,1,,,,,,,,0,,,83,0
19674,note_on,24,0,2,,,,,,,,0,,,68,80
19674,note_on,24,0,1,,,,,,,,0,,,80,80
19699,note_on,25,0,1,,,,,,,,0,,,80,0
19699,note_on,25,0,2,,,,,,,,0,,,68,0
19700,note_on,1,0,1,,,,,,,,0,,,79,80
19700,note_on,1,0,2,,,,,,,,0,,,67,80
19725,note_on,25,0,1,,,,,,,,0,,,79,0
19725,note_on,25,0,2,,,,,,,,0,,,67,0
19726,note_on,1,0,2,,,,,,,,0,,,66,80
19726,note_on,1,0,1,,,,,,,,0,,,78,80
19751,note_on,25,0,1,,,,,,,,0,,,78,0
19751,note_on,25,0,2,,,,,,,,0,,,66,0
19752,note_on,1,0,2,,,,,,,,0,,,65,80
19752,note_on,1,0,1,,,,,,,,0,,,77,80
19777,note_on,25,0,2,,,,,,,,0,,,65,0
19777,note_on,25,0,1,,,,,,,,0,,,77,0
19778,note_on,1,0,2,,,,,,,,0,,,64,80
19778,note_on,1,0,1,,,,,,,,0,,,76,80
19803,note_on,25,0,2,,,,,,,,0,,,64,0
19803,note_on,25,0,1,,,,,,,,0,,,76,0
19804,note_on,1,0,1,,,,,,,,0,,,75,80
19804,note_on,1,0,2,,,,,,,,0,,,63,80
19829,note_on,25,0,1,,,,,,,,0,,,75,0
19829,note_on,25,0,2,,,,,,,,0,,,63,0
19830,note_on,1,0,2,,,,,,,,0,,,62,80
19830,note_on,1,0,1,,,,,,,,0,,,74,80
19855,note_on,25,0,1,,,,,,,,0,,,74,0
19855,note_on,25,0,2,,,,,,,,0,,,62,0
19856,note_on,1,0,2,,,,,,,,0,,,61,80
19856,note_on,1,0,1,,,,,,,,0,,,73,80
19881,note_on,25,0,1,,,,,,,,0,,,73,0
19881,note_on,25,0,2,,,,,,,,0,,,61,0
19882,note_on,1,0,2,,,,,,,,0,,,60,80
19882,note_on,1,0,1,,,,,,,,0,,,72,80
19907,note_on,25,0,2,,,,,,,,0,,,60,0
19907,note_on,25,0,1,,,,,,,,0,,,72,0
19920,note_on,3726,0,3,,,,,,,,0,,,59,80
19920,note_on,13,0,1,,,,,,,,0,,,71,80
19920,control_change,624,0,4,,,,,,,,0,64,0,,
19931,control_change,11,0,4,,,,,,,,0,64,127,,
19937,set_tempo,622,1,0,,,,,,443459,,,,,,
19941,set_tempo,4,1,0,,,,,,445898,,,,,,
19967,set_tempo,26,1,0,,,,,,448363,,,,,,
19998,set_tempo,31,1,0,,,,,,450857,,,,,,
20016,note_on,96,0,1,,,,,,,,0,,,71,0
20016,note_on,96,0,3,,,,,,,,0,,,59,0
20024,set_tempo,26,1,0,,,,,,453378,,,,,,
20040,note_on,24,0,3,,,,,,,,0,,,56,80
20040,note_on,24,0,1,,,,,,,,0,,,68,80
20055,set_tempo,31,1,0,,,,,,455927,,,,,,
20065,note_on,25,0,3,,,,,,,,0,,,56,0
20065,note_on,25,0,1,,,,,,,,0,,,68,0
20066,note_on,1,0,3,,,,,,,,0,,,55,80
20066,note_on,1,0,1,,,,,,,,0,,,67,80
20081,set_tempo,26,1,0,,,,,,458505,,,,,,
20091,note_on,25,0,3,,,,,,,,0,,,55,0
20091,note_on,25,0,1,,,,,,,,0,,,67,0
20092,note_on,1,0,3,,,,,,,,0,,,54,80
20092,note_on,1,0,1,,,,,,,,0,,,66,80
20111,set_tempo,30,1,0,,,,,,461113,,,,,,
20117,note_on,25,0,3,,,,,,,,0,,,54,0
20117,note_on,25,0,1,,,,,,,,0,,,66,0
20118,note_on,1,0,3,,,,,,,,0,,,53,80
20118,note_on,1,0,1,,,,,,,,0,,,65,80
20138,set_tempo,27,1,0,,,,,,463750,,,,,,
20143,note_on,25,0,1,,,,,,,,0,,,65,0
20143,note_on,25,0,3,,,,,,,,0,,,53,0
20144,note_on,1,0,1,,,,,,,,0,,,64,80
20144,note_on,1,0,3,,,,,,,,0,,,52,80
20168,set_tempo,30,1,0,,,,,,466418,,,,,,
20169,note_on,25,0,1,,,,,,,,0,,,64,0
20169,note_on,25,0,3,,,,,,,,0,,,52,0
20170,note_on,1,0,3,,,,,,,,0,,,51,80
20170,note_on,1,0,1,,,,,,,,0,,,63,80
20195,note_on,25,0,1,,,,,,,,0,,,63,0
20195,note_on,25,0,3,,,,,,,,0,,,51,0
20196,note_on,1,0,1,,,,,,,,0,,,62,80
20196,note_on,1,0,3,,,,,,,,0,,,50,80
20199,set_tempo,31,1,0,,,,,,469116,,,,,,
20221,note_on,25,0,1,,,,,,,,0,,,62,0
20221,note_on,25,0,3,,,,,,,,0,,,50,0
20222,note_on,1,0,1,,,,,,,,0,,,61,80
20222,note_on,1,0,3,,,,,,,,0,,,49,80
20225,set_tempo,26,1,0,,,,,,471846,,,,,,
20247,note_on,25,0,3,,,,,,,,0,,,49,0
20247,note_on,25,0,1,,,,,,,,0,,,61,0
20248,note_on,1,0,1,,,,,,,,0,,,60,80
20248,note_on,1,0,3,,,,,,,,0,,,48,80
20255,set_tempo,30,1,0,,,,,,474608,,,,,,
20273,note_on,25,0,1,,,,,,,,0,,,60,0
20273,note_on,25,0,3,,,,,,,,0,,,48,0
20274,note_on,1,0,1,,,,,,,,0,,,59,80
20274,note_on,1,0,3,,,,,,,,0,,,47,80
20282,control_change,351,0,4,,,,,,,,0,64,0,,
20282,set_tempo,27,1,0,,,,,,477403,,,,,,
20303,control_change,21,0,4,,,,,,,,0,64,127,,
20312,set_tempo,30,1,0,,,,,,480231,,,,,,
20338,set_tempo,26,1,0,,,,,,483092,,,,,,
20369,set_tempo,31,1,0,,,,,,485987,,,,,,
20370,note_on,96,0,1,,,,,,,,0,,,59,0
20370,note_on,96,0,3,,,,,,,,0,,,47,0
20394,note_on,24,0,1,,,,,,,,0,,,56,80
20394,note_on,24,0,3,,,,,,,,0,,,44,80
20395,set_tempo,26,1,0,,,,,,488918,,,,,,
20419,note_on,25,0,3,,,,,,,,0,,,44,0
20419,note_on,25,0,1,,,,,,,,0,,,56,0
20420,note_on,1,0,1,,,,,,,,0,,,55,80
20420,note_on,1,0,3,,,,,,,,0,,,43,80
20426,set_tempo,31,1,0,,,,,,491884,,,,,,
20445,note_on,25,0,3,,,,,,,,0,,,43,0
20445,note_on,25,0,1,,,,,,,,0,,,55,0
20446,note_on,1,0,1,,,,,,,,0,,,54,80
20446,note_on,1,0,3,,,,,,,,0,,,42,80
20456,set_tempo,30,1,0,,,,,,494886,,,,,,
20471,note_on,25,0,1,,,,,,,,0,,,54,0
20471,note_on,25,0,3,,,,,,,,0,,,42,0
20472,note_on,1,0,1,,,,,,,,0,,,53,80
20472,note_on,1,0,3,,,,,,,,0,,,41,80
20482,set_tempo,26,1,0,,,,,,497925,,,,,,
20497,note_on,25,0,1,,,,,,,,0,,,53,0
20497,note_on,25,0,3,,,,,,,,0,,,41,0
20498,note_on,1,0,3,,,,,,,,0,,,40,80
20498,note_on,1,0,1,,,,,,,,0,,,52,80
20513,set_tempo,31,1,0,,,,,,501002,,,,,,
20523,note_on,25,0,1,,,,,,,,0,,,52,0
20523,note_on,25,0,3,,,,,,,,0,,,40,0
20524,note_on,1,0,3,,,,,,,,0,,,39,80
20524,note_on,1,0,1,,,,,,,,0,,,51,80
20539,set_tempo,26,1,0,,,,,,504117,,,,,,
20549,note_on,25,0,1,,,,,,,,0,,,51,0
20549,note_on,25,0,3,,,,,,,,0,,,39,0
20550,note_on,1,0,1,,,,,,,,0,,,50,80
20550,note_on,1,0,3,,,,,,,,0,,,38,80
20570,set_tempo,31,1,0,,,,,,507271,,,,,,
20575,note_on,25,0,3,,,,,,,,0,,,38,0
20575,note_on,25,0,1,,,,,,,,0,,,50,0
20576,note_on,1,0,1,,,,,,,,0,,,49,80
20576,note_on,1,0,3,,,,,,,,0,,,37,80
20596,set_tempo,26,1,0,,,,,,510465,,,,,,
20601,note_on,25,0,1,,,,,,,,0,,,49,0
20601,note_on,25,0,3,,,,,,,,0,,,37,0
20602,note_on,1,0,3,,,,,,,,0,,,36,80
20602,note_on,1,0,1,,,,,,,,0,,,48,80
20626,set_tempo,30,1,0,,,,,,513699,,,,,,
20627,note_on,25,0,3,,,,,,,,0,,,36,0
20627,note_on,25,0,1,,,,,,,,0,,,48,0
20628,note_on,0,0,3,,,,,,,,0,,,35,80
20628,note_on,1,0,3,,,,,,,,0,,,47,80
20640,control_change,337,0,4,,,,,,,,0,64,0,,
20640,time_signature,14,1,0,4,8,12,8,,,,,,,,
20657,set_tempo,17,1,0,,,,,,510465,,,,,,
20665,note_on,37,0,3,,,,,,,,0,,,35,0
20665,note_on,0,0,3,,,,,,,,0,,,47,0
20666,note_on,1,0,3,,,,,,,,0,,,48,80
20666,note_on,0,0,3,,,,,,,,0,,,36,80
20691,note_on,0,0,3,,,,,,,,0,,,48,0
20691,note_on,25,0,3,,,,,,,,0,,,36,0
20692,note_on,1,0,3,,,,,,,,0,,,49,80
20692,note_on,0,0,3,,,,,,,,0,,,37,80
20717,note_on,0,0,3,,,,,,,,0,,,49,0
20717,note_on,25,0,3,,,,,,,,0,,,37,0
20718,note_on,0,0,3,,,,,,,,0,,,38,80
20718,note_on,1,0,3,,,,,,,,0,,,50,80
20743,note_on,0,0,3,,,,,,,,0,,,50,0
20743,note_on,25,0,3,,,,,,,,0,,,38,0
20744,note_on,1,0,3,,,,,,,,0,,,51,80
20744,note_on,0,0,3,,,,,,,,0,,,39,80
20769,note_on,0,0,3,,,,,,,,0,,,51,0
20769,note_on,25,0,3,,,,,,,,0,,,39,0
20770,note_on,0,0,3,,,,,,,,0,,,52,80
20770,note_on,1,0,3,,,,,,,,0,,,40,80
20795,note_on,0,0,3,,,,,,,,0,,,40,0
20795,note_on,25,0,3,,,,,,,,0,,,52,0
20796,note_on,0,0,3,,,,,,,,0,,,53,80
20796,note_on,1,0,3,,,,,,,,0,,,41,80
20821,note_on,0,0,3,,,,,,,,0,,,41,0
20821,note_on,25,0,3,,,,,,,,0,,,53,0
20822,note_on,0,0,3,,,,,,,,0,,,54,80
20822,note_on,1,0,3,,,,,,,,0,,,42,80
20847,note_on,25,0,3,,,,,,,,0,,,54,0
20847,note_on,0,0,3,,,,,,,,0,,,42,0
20848,note_on,0,0,3,,,,,,,,0,,,55,80
20848,note_on,1,0,3,,,,,,,,0,,,43,80
20873,note_on,25,0,3,,,,,,,,0,,,55,0
20873,note_on,0,0,3,,,,,,,,0,,,43,0
20874,note_on,1,0,3,,,,,,,,0,,,44,80
20874,note_on,0,0,3,,,,,,,,0,,,56,80
20886,set_tempo,229,1,0,,,,,,507271,,,,,,
20899,note_on,0,0,3,,,,,,,,0,,,44,0
20899,set_tempo,13,1,0,,,,,,510465,,,,,,
20899,note_on,25,0,3,,,,,,,,0,,,56,0
20900,note_on,0,0,3,,,,,,,,0,,,55,80
20900,note_on,1,0,3,,,,,,,,0,,,43,80
20912,set_tempo,13,1,0,,,,,,513699,,,,,,
20925,note_on,25,0,3,,,,,,,,0,,,55,0
20925,note_on,0,0,3,,,,,,,,0,,,43,0
20925,set_tempo,13,1,0,,,,,,516974,,,,,,
20926,note_on,0,0,3,,,,,,,,0,,,54,80
20926,note_on,1,0,3,,,,,,,,0,,,42,80
20938,set_tempo,13,1,0,,,,,,520291,,,,,,
20951,note_on,25,0,3,,,,,,,,0,,,54,0
20951,note_on,0,0,3,,,,,,,,0,,,42,0
20951,set_tempo,13,1,0,,,,,,523652,,,,,,
20952,note_on,1,0,3,,,,,,,,0,,,41,80
20952,note_on,0,0,3,,,,,,,,0,,,53,80
20964,set_tempo,13,1,0,,,,,,527056,,,,,,
20977,set_tempo,13,1,0,,,,,,530504,,,,,,
20977,note_on,25,0,3,,,,,,,,0,,,53,0
20977,note_on,0,0,3,,,,,,,,0,,,41,0
20978,note_on,0,0,3,,,,,,,,0,,,52,80
20978,note_on,1,0,3,,,,,,,,0,,,40,80
20990,set_tempo,13,1,0,,,,,,533998,,,,,,
21003,set_tempo,13,1,0,,,,,,537538,,,,,,
21003,note_on,25,0,3,,,,,,,,0,,,52,0
21003,note_on,0,0,3,,,,,,,,0,,,40,0
21004,note_on,0,0,3,,,,,,,,0,,,51,80
21004,note_on,1,0,3,,,,,,,,0,,,39,80
21017,set_tempo,14,1,0,,,,,,541126,,,,,,
21029,note_on,25,0,3,,,,,,,,0,,,51,0
21029,note_on,0,0,3,,,,,,,,0,,,39,0
21030,note_on,0,0,3,,,,,,,,0,,,50,80
21030,set_tempo,13,1,0,,,,,,544761,,,,,,
21030,note_on,1,0,3,,,,,,,,0,,,38,80
21043,set_tempo,13,1,0,,,,,,548446,,,,,,
21055,note_on,25,0,3,,,,,,,,0,,,50,0
21055,note_on,0,0,3,,,,,,,,0,,,38,0
21056,set_tempo,13,1,0,,,,,,552181,,,,,,
21056,note_on,1,0,3,,,,,,,,0,,,37,80
21056,note_on,0,0,3,,,,,,,,0,,,49,80
21069,set_tempo,13,1,0,,,,,,555967,,,,,,
21072,note_on,16,0,3,,,,,,,,0,,,49,0
21072,note_on,0,0,3,,,,,,,,0,,,37,0
21076,note_on,0,0,3,,,,,,,,0,,,48,80
21076,note_on,4,0,3,,,,,,,,0,,,36,80
21082,set_tempo,13,1,0,,,,,,559806,,,,,,
21095,set_tempo,13,1,0,,,,,,563698,,,,,,
21101,note_on,25,0,3,,,,,,,,0,,,48,0
21101,note_on,0,0,3,,,,,,,,0,,,36,0
21102,note_on,1,0,3,,,,,,,,0,,,35,80
21102,note_on,0,0,3,,,,,,,,0,,,47,80
21106,set_tempo,11,1,0,,,,,,567644,,,,,,
21108,set_tempo,2,1,0,,,,,,567644,,,,,,
21117,set_tempo,9,1,0,,,,,,504117,,,,,,
21120,time_signature,3,1,0,6,8,12,8,,,,,,,,
21128,set_tempo,8,1,0,,,,,,575705,,,,,,
21216,note_on,0,0,3,,,,,,,,0,,,35,0
21216,note_on,114,0,3,,,,,,,,0,,,47,0
21464,set_tempo,336,1,0,,,,,,510465,,,,,,
21480,note_on,264,0,3,,,,,,,,0,,,43,80
21480,note_on,0,0,3,,,,,,,,0,,,55,80
21576,note_on,0,0,3,,,,,,,,0,,,43,0
21576,note_on,96,0,3,,,,,,,,0,,,55,0
21831,set_tempo,367,1,0,,,,,,507271,,,,,,
21835,set_tempo,4,1,0,,,,,,453378,,,,,,
21839,set_tempo,4,1,0,,,,,,441047,,,,,,
22463,control_change,1823,0,4,,,,,,,,0,64,127,,
22530,note_on,67,0,4,,,,,,,,0,,,36,88
22530,note_on,1903,0,1,,,,,,,,0,,,48,77
22590,note_on,1014,0,3,,,,,,,,0,,,38,56
22590,note_on,2683,0,2,,,,,,,,0,,,50,56
22614,note_on,24,0,3,,,,,,,,0,,,38,0
22614,note_on,24,0,2,,,,,,,,0,,,50,0
22620,note_on,6,0,3,,,,,,,,0,,,39,56
22620,note_on,6,0,2,,,,,,,,0,,,51,56
22644,note_on,24,0,3,,,,,,,,0,,,39,0
22644,note_on,24,0,2,,,,,,,,0,,,51,0
22650,note_on,6,0,3,,,,,,,,0,,,41,56
22650,note_on,6,0,2,,,,,,,,0,,,53,56
22656,note_on,126,0,4,,,,,,,,0,,,36,0
22656,note_on,126,0,1,,,,,,,,0,,,48,0
22674,note_on,24,0,2,,,,,,,,0,,,53,0
22674,note_on,24,0,3,,,,,,,,0,,,41,0
22680,note_on,24,0,4,,,,,,,,0,,,43,88
22680,note_on,24,0,1,,,,,,,,0,,,55,77
22710,note_on,36,0,2,,,,,,,,0,,,48,56
22710,note_on,36,0,3,,,,,,,,0,,,36,56
22734,note_on,24,0,2,,,,,,,,0,,,48,0
22734,note_on,24,0,3,,,,,,,,0,,,36,0
22740,note_on,6,0,3,,,,,,,,0,,,38,56
22740,note_on,6,0,2,,,,,,,,0,,,50,56
22764,note_on,24,0,3,,,,,,,,0,,,38,0
22764,note_on,24,0,2,,,,,,,,0,,,50,0
22770,note_on,6,0,2,,,,,,,,0,,,51,56
22770,note_on,6,0,3,,,,,,,,0,,,39,56
22776,note_on,96,0,1,,,,,,,,0,,,55,0
22776,note_on,96,0,4,,,,,,,,0,,,43,0
22794,note_on,24,0,2,,,,,,,,0,,,51,0
22794,note_on,24,0,3,,,,,,,,0,,,39,0
22800,note_on,24,0,1,,,,,,,,0,,,53,77
22800,note_on,24,0,4,,,,,,,,0,,,41,88
22830,note_on,36,0,2,,,,,,,,0,,,55,56
22830,note_on,36,0,3,,,,,,,,0,,,43,56
22854,note_on,24,0,3,,,,,,,,0,,,43,0
22854,note_on,24,0,2,,,,,,,,0,,,55,0
22860,note_on,6,0,2,,,,,,,,0,,,48,56
22860,note_on,6,0,3,,,,,,,,0,,,36,56
22884,note_on,24,0,2,,,,,,,,0,,,48,0
22884,note_on,24,0,3,,,,,,,,0,,,36,0
22890,note_on,6,0,2,,,,,,,,0,,,50,56
22890,note_on,6,0,3,,,,,,,,0,,,38,56
22896,note_on,96,0,4,,,,,,,,0,,,41,0
22896,note_on,96,0,1,,,,,,,,0,,,53,0
22914,note_on,24,0,3,,,,,,,,0,,,38,0
22914,note_on,24,0,2,,,,,,,,0,,,50,0
22920,note_on,24,0,1,,,,,,,,0,,,51,77
22920,note_on,24,0,4,,,,,,,,0,,,39,88
22950,note_on,36,0,2,,,,,,,,0,,,53,56
22950,note_on,36,0,3,,,,,,,,0,,,41,56
22974,note_on,24,0,2,,,,,,,,0,,,53,0
22974,note_on,24,0,3,,,,,,,,0,,,41,0
22980,note_on,6,0,3,,,,,,,,0,,,43,56
22980,note_on,6,0,2,,,,,,,,0,,,55,56
23004,note_on,24,0,2,,,,,,,,0,,,55,0
23004,note_on,24,0,3,,,,,,,,0,,,43,0
23010,note_on,6,0,3,,,,,,,,0,,,36,56
23010,note_on,6,0,2,,,,,,,,0,,,48,56
23016,note_on,96,0,4,,,,,,,,0,,,39,0
23016,note_on,96,0,1,,,,,,,,0,,,51,0
23034,note_on,24,0,2,,,,,,,,0,,,48,0
23034,note_on,24,0,3,,,,,,,,0,,,36,0
23040,note_on,24,0,4,,,,,,,,0,,,38,88
23040,note_on,24,0,1,,,,,,,,0,,,50,77
23070,note_on,36,0,3,,,,,,,,0,,,39,56
23070,note_on,36,0,2,,,,,,,,0,,,51,56
23094,note_on,24,0,3,,,,,,,,0,,,39,0
23094,note_on,24,0,2,,,,,,,,0,,,51,0
23100,note_on,6,0,3,,,,,,,,0,,,41,56
23100,note_on,6,0,2,,,,,,,,0,,,53,56
23124,note_on,24,0,3,,,,,,,,0,,,41,0
23124,note_on,24,0,2,,,,,,,,0,,,53,0
23130,note_on,6,0,2,,,,,,,,0,,,55,56
23130,note_on,6,0,3,,,,,,,,0,,,43,56
23135,control_change,95,0,4,,,,,,,,0,64,0,,
23136,note_on,1,0,4,,,,,,,,0,,,38,0
23136,note_on,96,0,1,,,,,,,,0,,,50,0
23154,note_on,24,0,2,,,,,,,,0,,,55,0
23154,note_on,24,0,3,,,,,,,,0,,,43,0
23160,note_on,24,0,1,,,,,,,,0,,,48,77
23160,note_on,24,0,4,,,,,,,,0,,,36,88
23256,note_on,96,0,4,,,,,,,,0,,,36,0
23256,note_on,96,0,1,,,,,,,,0,,,48,0
23280,note_on,0,0,1,,,,,,,,0,,,75,80
23280,note_on,24,0,1,,,,,,,,0,,,72,80
23280,note_on,24,0,4,,,,,,,,0,,,55,80
23280,note_on,0,0,4,,,,,,,,0,,,48,80
23280,note_on,0,0,4,,,,,,,,0,,,51,80
23280,note_on,0,0,4,,,,,,,,0,,,60,80
23280,note_on,0,0,1,,,,,,,,0,,,84,80
23376,note_on,96,0,1,,,,,,,,0,,,84,0
23376,note_on,96,0,4,,,,,,,,0,,,48,0
23376,note_on,0,0,4,,,,,,,,0,,,51,0
23376,note_on,0,0,4,,,,,,,,0,,,60,0
23376,note_on,0,0,1,,,,,,,,0,,,75,0
23376,note_on,0,0,1,,,,,,,,0,,,72,0
23376,note_on,0,0,4,,,,,,,,0,,,55,0
23460,note_on,0,0,4,,,,,,,,0,,,48,80
23460,note_on,0,0,4,,,,,,,,0,,,51,80
23460,note_on,0,0,4,,,,,,,,0,,,55,80
23460,note_on,0,0,1,,,,,,,,0,,,67,80
23460,note_on,0,0,1,,,,,,,,0,,,72,80
23460,note_on,0,0,1,,,,,,,,0,,,79,80
23460,note_on,84,0,4,,,,,,,,0,,,60,80
23460,note_on,84,0,1,,,,,,,,0,,,75,80
23508,note_on,0,0,1,,,,,,,,0,,,75,0
23508,note_on,0,0,1,,,,,,,,0,,,67,0
23508,note_on,0,0,1,,,,,,,,0,,,79,0
23508,note_on,48,0,1,,,,,,,,0,,,72,0
23508,note_on,48,0,4,,,,,,,,0,,,55,0
23508,note_on,0,0,4,,,,,,,,0,,,48,0
23508,note_on,0,0,4,,,,,,,,0,,,60,0
23508,note_on,0,0,4,,,,,,,,0,,,51,0
23520,note_on,12,0,1,,,,,,,,0,,,79,80
23520,note_on,0,0,1,,,,,,,,0,,,67,80
23520,note_on,0,0,4,,,,,,,,0,,,60,80
23520,note_on,0,0,4,,,,,,,,0,,,51,80
23520,note_on,0,0,4,,,,,,,,0,,,48,80
23520,note_on,0,0,1,,,,,,,,0,,,75,80
23520,note_on,0,0,1,,,,,,,,0,,,72,80
23520,note_on,12,0,4,,,,,,,,0,,,55,80
23616,note_on,0,0,4,,,,,,,,0,,,55,0
23616,note_on,0,0,1,,,,,,,,0,,,75,0
23616,note_on,0,0,1,,,,,,,,0,,,79,0
23616,note_on,96,0,4,,,,,,,,0,,,60,0
23616,note_on,0,0,4,,,,,,,,0,,,48,0
23616,note_on,96,0,1,,,,,,,,0,,,67,0
23616,note_on,0,0,4,,,,,,,,0,,,51,0
23616,note_on,0,0,1,,,,,,,,0,,,72,0
23820,note_on,0,0,1,,,,,,,,0,,,63,80
23820,note_on,0,0,1,,,,,,,,0,,,67,80
23820,note_on,0,0,4,,,,,,,,0,,,55,80
23820,note_on,0,0,4,,,,,,,,0,,,48,80
23820,note_on,0,0,4,,,,,,,,0,,,51,80
23820,note_on,204,0,1,,,,,,,,0,,,75,80
23820,note_on,204,0,4,,,,,,,,0,,,60,80
23868,note_on,0,0,1,,,,,,,,0,,,75,0
23868,note_on,0,0,1,,,,,,,,0,,,63,0
23868,note_on,0,0,4,,,,,,,,0,,,48,0
23868,note_on,0,0,4,,,,,,,,0,,,55,0
23868,note_on,0,0,4,,,,,,,,0,,,60,0
23868,note_on,48,0,1,,,,,,,,0,,,67,0
23868,note_on,48,0,4,,,,,,,,0,,,51,0
23880,note_on,0,0,1,,,,,,,,0,,,63,80
23880,note_on,12,0,1,,,,,,,,0,,,67,80
23880,note_on,12,0,4,,,,,,,,0,,,51,80
23880,note_on,0,0,1,,,,,,,,0,,,75,80
23880,note_on,0,0,4,,,,,,,,0,,,60,80
23880,note_on,0,0,4,,,,,,,,0,,,55,80
23880,note_on,0,0,4,,,,,,,,0,,,48,80
23976,note_on,0,0,4,,,,,,,,0,,,51,0
23976,note_on,0,0,4,,,,,,,,0,,,48,0
23976,note_on,96,0,4,,,,,,,,0,,,55,0
23976,note_on,96,0,1,,,,,,,,0,,,75,0
23976,note_on,0,0,1,,,,,,,,0,,,63,0
23976,note_on,0,0,1,,,,,,,,0,,,67,0
23976,note_on,0,0,4,,,,,,,,0,,,60,0
24180,note_on,0,0,1,,,,,,,,0,,,72,80
24180,note_on,0,0,1,,,,,,,,0,,,63,80
24180,note_on,0,0,4,,,,,,,,0,,,48,80
24180,note_on,204,0,1,,,,,,,,0,,,67,80
24180,note_on,0,0,4,,,,,,,,0,,,60,80
24180,note_on,0,0,4,,,,,,,,0,,,51,80
24180,note_on,204,0,4,,,,,,,,0,,,55,80
24228,note_on,0,0,1,,,,,,,,0,,,67,0
24228,note_on,0,0,1,,,,,,,,0,,,72,0
24228,note_on,48,0,1,,,,,,,,0,,,63,0
24228,note_on,0,0,4,,,,,,,,0,,,48,0
24228,note_on,0,0,4,,,,,,,,0,,,51,0
24228,note_on,0,0,4,,,,,,,,0,,,55,0
24228,note_on,48,0,4,,,,,,,,0,,,60,0
24240,note_on,12,0,1,,,,,,,,0,,,67,80
24240,note_on,12,0,4,,,,,,,,0,,,55,80
24240,note_on,0,0,4,,,,,,,,0,,,60,80
24240,note_on,0,0,4,,,,,,,,0,,,48,80
24240,note_on,0,0,4,,,,,,,,0,,,51,80
24240,note_on,0,0,1,,,,,,,,0,,,72,80
24240,note_on,0,0,1,,,,,,,,0,,,63,80
24336,note_on,0,0,4,,,,,,,,0,,,55,0
24336,note_on,96,0,4,,,,,,,,0,,,51,0
24336,note_on,96,0,1,,,,,,,,0,,,63,0
24336,note_on,0,0,1,,,,,,,,0,,,72,0
24336,note_on,0,0,1,,,,,,,,0,,,67,0
24336,note_on,0,0,4,,,,,,,,0,,,48,0
24336,note_on,0,0,4,,,,,,,,0,,,60,0
24360,note_on,24,0,1,,,,,,,,0,,,65,80
24360,note_on,0,0,4,,,,,,,,0,,,53,80
24360,note_on,0,0,1,,,,,,,,0,,,71,80
24360,note_on,0,0,1,,,,,,,,0,,,68,80
24360,note_on,0,0,1,,,,,,,,0,,,62,80
24360,note_on,24,0,4,,,,,,,,0,,,56,80
24360,note_on,0,0,4,,,,,,,,0,,,59,80
24360,note_on,0,0,4,,,,,,,,0,,,48,80
24456,note_on,0,0,4,,,,,,,,0,,,56,0
24456,note_on,0,0,4,,,,,,,,0,,,59,0
24456,note_on,0,0,4,,,,,,,,0,,,53,0
24456,note_on,96,0,1,,,,,,,,0,,,62,0
24456,note_on,0,0,1,,,,,,,,0,,,71,0
24456,note_on,0,0,1,,,,,,,,0,,,68,0
24456,note_on,0,0,1,,,,,,,,0,,,65,0
24456,note_on,96,0,4,,,,,,,,0,,,48,0
24480,note_on,24,0,4,,,,,,,,0,,,48,80
24480,note_on,0,0,1,,,,,,,,0,,,72,80
24480,note_on,0,0,1,,,,,,,,0,,,63,80
24480,note_on,24,0,1,,,,,,,,0,,,67,80
24480,note_on,0,0,4,,,,,,,,0,,,51,80
24480,note_on,0,0,4,,,,,,,,0,,,55,80
24480,note_on,0,0,4,,,,,,,,0,,,60,80
24576,note_on,96,0,1,,,,,,,,0,,,72,0
24576,note_on,96,0,4,,,,,,,,0,,,51,0
24576,note_on,0,0,4,,,,,,,,0,,,55,0
24576,note_on,0,0,4,,,,,,,,0,,,60,0
24576,note_on,0,0,1,,,,,,,,0,,,63,0
24576,note_on,0,0,1,,,,,,,,0,,,67,0
24576,note_on,0,0,4,,,,,,,,0,,,48,0
24681,control_change,105,0,4,,,,,,,,0,64,127,,
24690,note_on,0,0,3,,,,,,,,0,,,47,57
24690,note_on,1536,0,3,,,,,,,,0,,,35,57
24720,note_on,39,0,4,,,,,,,,0,,,49,96
24720,note_on,0,0,4,,,,,,,,0,,,37,96
24744,note_on,54,0,3,,,,,,,,0,,,47,0
24744,note_on,0,0,3,,,,,,,,0,,,35,0
24750,note_on,6,0,3,,,,,,,,0,,,51,57
24750,note_on,0,0,3,,,,,,,,0,,,39,57
24774,note_on,24,0,3,,,,,,,,0,,,39,0
24774,note_on,0,0,3,,,,,,,,0,,,51,0
24780,note_on,6,0,3,,,,,,,,0,,,41,57
24780,note_on,0,0,3,,,,,,,,0,,,53,57
24804,note_on,0,0,3,,,,,,,,0,,,41,0
24804,note_on,24,0,3,,,,,,,,0,,,53,0
24810,note_on,0,0,3,,,,,,,,0,,,54,57
24810,note_on,6,0,3,,,,,,,,0,,,42,57
24816,note_on,0,0,4,,,,,,,,0,,,49,0
24816,note_on,96,0,4,,,,,,,,0,,,37,0
24834,note_on,0,0,3,,,,,,,,0,,,42,0
24834,note_on,24,0,3,,,,,,,,0,,,54,0
24840,note_on,24,0,4,,,,,,,,0,,,56,96
24840,note_on,0,0,4,,,,,,,,0,,,44,96
24870,note_on,36,0,3,,,,,,,,0,,,49,57
24870,note_on,0,0,3,,,,,,,,0,,,37,57
24894,note_on,24,0,3,,,,,,,,0,,,37,0
24894,note_on,0,0,3,,,,,,,,0,,,49,0
24900,note_on,6,0,3,,,,,,,,0,,,39,57
24900,note_on,0,0,3,,,,,,,,0,,,51,57
24924,note_on,24,0,3,,,,,,,,0,,,51,0
24924,note_on,0,0,3,,,,,,,,0,,,39,0
24930,note_on,6,0,3,,,,,,,,0,,,41,57
24930,note_on,0,0,3,,,,,,,,0,,,53,57
24936,note_on,0,0,4,,,,,,,,0,,,56,0
24936,note_on,96,0,4,,,,,,,,0,,,44,0
24954,note_on,24,0,3,,,,,,,,0,,,53,0
24954,note_on,0,0,3,,,,,,,,0,,,41,0
24960,note_on,24,0,4,,,,,,,,0,,,42,96
24960,note_on,0,0,4,,,,,,,,0,,,54,96
24990,note_on,0,0,3,,,,,,,,0,,,56,57
24990,note_on,36,0,3,,,,,,,,0,,,44,57
25014,note_on,0,0,3,,,,,,,,0,,,44,0
25014,note_on,24,0,3,,,,,,,,0,,,56,0
25020,note_on,0,0,3,,,,,,,,0,,,37,57
25020,note_on,6,0,3,,,,,,,,0,,,49,57
25044,note_on,0,0,3,,,,,,,,0,,,49,0
25044,note_on,24,0,3,,,,,,,,0,,,37,0
25050,note_on,0,0,3,,,,,,,,0,,,39,57
25050,note_on,6,0,3,,,,,,,,0,,,51,57
25056,note_on,0,0,4,,,,,,,,0,,,42,0
25056,note_on,96,0,4,,,,,,,,0,,,54,0
25074,note_on,24,0,3,,,,,,,,0,,,39,0
25074,note_on,0,0,3,,,,,,,,0,,,51,0
25080,note_on,24,0,4,,,,,,,,0,,,41,96
25080,note_on,0,0,4,,,,,,,,0,,,53,96
25110,note_on,36,0,3,,,,,,,,0,,,54,57
25110,note_on,0,0,3,,,,,,,,0,,,42,57
25134,note_on,0,0,3,,,,,,,,0,,,54,0
25134,note_on,24,0,3,,,,,,,,0,,,42,0
25140,note_on,0,0,3,,,,,,,,0,,,44,57
25140,note_on,6,0,3,,,,,,,,0,,,56,57
25164,note_on,0,0,3,,,,,,,,0,,,56,0
25164,note_on,24,0,3,,,,,,,,0,,,44,0
25170,note_on,0,0,3,,,,,,,,0,,,49,57
25170,note_on,6,0,3,,,,,,,,0,,,37,57
25176,note_on,0,0,4,,,,,,,,0,,,41,0
25176,note_on,96,0,4,,,,,,,,0,,,53,0
25194,note_on,0,0,3,,,,,,,,0,,,37,0
25194,note_on,24,0,3,,,,,,,,0,,,49,0
25200,note_on,0,0,4,,,,,,,,0,,,51,96
25200,note_on,24,0,4,,,,,,,,0,,,39,96
25230,note_on,36,0,3,,,,,,,,0,,,53,57
25230,note_on,0,0,3,,,,,,,,0,,,41,57
25254,note_on,0,0,3,,,,,,,,0,,,53,0
25254,note_on,24,0,3,,,,,,,,0,,,41,0
25260,note_on,0,0,3,,,,,,,,0,,,42,57
25260,note_on,6,0,3,,,,,,,,0,,,54,57
25283,control_change,83,0,4,,,,,,,,0,64,0,,
25284,note_on,24,0,3,,,,,,,,0,,,42,0
25284,note_on,0,0,3,,,,,,,,0,,,54,0
25290,note_on,0,0,3,,,,,,,,0,,,44,57
25290,note_on,6,0,3,,,,,,,,0,,,56,57
25296,note_on,13,0,4,,,,,,,,0,,,51,0
25296,note_on,0,0,4,,,,,,,,0,,,39,0
25314,note_on,24,0,3,,,,,,,,0,,,44,0
25314,note_on,0,0,3,,,,,,,,0,,,56,0
25320,note_on,0,0,4,,,,,,,,0,,,37,96
25320,note_on,24,0,4,,,,,,,,0,,,49,96
25416,note_on,96,0,4,,,,,,,,0,,,37,0
25416,note_on,0,0,4,,,,,,,,0,,,49,0
25440,note_on,864,0,1,,,,,,,,0,,,77,80
25440,note_on,24,0,4,,,,,,,,0,,,61,80
25440,note_on,0,0,4,,,,,,,,0,,,47,80
25440,note_on,0,0,4,,,,,,,,0,,,53,80
25440,note_on,0,0,4,,,,,,,,0,,,56,80
25440,note_on,0,0,1,,,,,,,,0,,,73,80
25440,note_on,0,0,1,,,,,,,,0,,,85,80
25536,note_on,0,0,1,,,,,,,,0,,,85,0
25536,note_on,0,0,1,,,,,,,,0,,,77,0
25536,note_on,0,0,4,,,,,,,,0,,,53,0
25536,note_on,0,0,4,,,,,,,,0,,,61,0
25536,note_on,96,0,1,,,,,,,,0,,,73,0
25536,note_on,96,0,4,,,,,,,,0,,,56,0
25536,note_on,0,0,4,,,,,,,,0,,,47,0
25620,note_on,84,0,1,,,,,,,,0,,,68,80
25620,note_on,0,0,4,,,,,,,,0,,,56,80
25620,note_on,0,0,4,,,,,,,,0,,,61,80
25620,note_on,84,0,4,,,,,,,,0,,,47,80
25620,note_on,0,0,1,,,,,,,,0,,,73,80
25620,note_on,0,0,1,,,,,,,,0,,,80,80
25620,note_on,0,0,4,,,,,,,,0,,,53,80
25668,note_on,48,0,4,,,,,,,,0,,,56,0
25668,note_on,0,0,1,,,,,,,,0,,,68,0
25668,note_on,48,0,1,,,,,,,,0,,,73,0
25668,note_on,0,0,4,,,,,,,,0,,,61,0
25668,note_on,0,0,1,,,,,,,,0,,,80,0
25668,note_on,0,0,4,,,,,,,,0,,,53,0
25668,note_on,0,0,4,,,,,,,,0,,,47,0
25680,note_on,0,0,1,,,,,,,,0,,,73,80
25680,note_on,12,0,4,,,,,,,,0,,,61,80
25680,note_on,0,0,4,,,,,,,,0,,,56,80
25680,note_on,0,0,4,,,,,,,,0,,,53,80
25680,note_on,0,0,4,,,,,,,,0,,,47,80
25680,note_on,0,0,1,,,,,,,,0,,,68,80
25680,note_on,12,0,1,,,,,,,,0,,,80,80
25776,note_on,0,0,4,,,,,,,,0,,,61,0
25776,note_on,0,0,4,,,,,,,,0,,,47,0
25776,note_on,96,0,4,,,,,,,,0,,,53,0
25776,note_on,0,0,4,,,,,,,,0,,,56,0
25776,note_on,0,0,1,,,,,,,,0,,,80,0
25776,note_on,0,0,1,,,,,,,,0,,,68,0
25776,note_on,96,0,1,,,,,,,,0,,,73,0
25980,note_on,0,0,4,,,,,,,,0,,,61,80
25980,note_on,0,0,1,,,,,,,,0,,,68,80
25980,note_on,204,0,1,,,,,,,,0,,,77,80
25980,note_on,0,0,4,,,,,,,,0,,,53,80
25980,note_on,204,0,4,,,,,,,,0,,,47,80
25980,note_on,0,0,4,,,,,,,,0,,,56,80
25980,note_on,0,0,1,,,,,,,,0,,,65,80
26028,note_on,0,0,4,,,,,,,,0,,,47,0
26028,note_on,0,0,4,,,,,,,,0,,,61,0
26028,note_on,0,0,4,,,,,,,,0,,,53,0
26028,note_on,0,0,1,,,,,,,,0,,,77,0
26028,note_on,0,0,1,,,,,,,,0,,,68,0
26028,note_on,48,0,1,,,,,,,,0,,,65,0
26028,note_on,48,0,4,,,,,,,,0,,,56,0
26040,note_on,12,0,4,,,,,,,,0,,,56,80
26040,note_on,0,0,4,,,,,,,,0,,,61,80
26040,note_on,0,0,1,,,,,,,,0,,,68,80
26040,note_on,0,0,4,,,,,,,,0,,,53,80
26040,note_on,0,0,4,,,,,,,,0,,,47,80
26040,note_on,12,0,1,,,,,,,,0,,,65,80
26040,note_on,0,0,1,,,,,,,,0,,,77,80
26136,note_on,0,0,1,,,,,,,,0,,,68,0
26136,note_on,0,0,4,,,,,,,,0,,,53,0
26136,note_on,0,0,4,,,,,,,,0,,,56,0
26136,note_on,0,0,4,,,,,,,,0,,,47,0
26136,note_on,96,0,1,,,,,,,,0,,,77,0
26136,note_on,96,0,4,,,,,,,,0,,,61,0
26136,note_on,0,0,1,,,,,,,,0,,,65,0
26340,note_on,0,0,4,,,,,,,,0,,,61,80
26340,note_on,204,0,4,,,,,,,,0,,,47,80
26340,note_on,0,0,1,,,,,,,,0,,,73,80
26340,note_on,0,0,4,,,,,,,,0,,,53,80
26340,note_on,204,0,1,,,,,,,,0,,,65,80
26340,note_on,0,0,1,,,,,,,,0,,,68,80
26340,note_on,0,0,4,,,,,,,,0,,,56,80
26388,note_on,0,0,1,,,,,,,,0,,,73,0
26388,note_on,0,0,4,,,,,,,,0,,,47,0
26388,note_on,0,0,4,,,,,,,,0,,,53,0
26388,note_on,0,0,1,,,,,,,,0,,,65,0
26388,note_on,48,0,4,,,,,,,,0,,,61,0
26388,note_on,0,0,4,,,,,,,,0,,,56,0
26388,note_on,48,0,1,,,,,,,,0,,,68,0
26400,note_on,12,0,1,,,,,,,,0,,,68,80
26400,note_on,0,0,4,,,,,,,,0,,,61,80
26400,note_on,0,0,4,,,,,,,,0,,,56,80
26400,note_on,0,0,4,,,,,,,,0,,,47,80
26400,note_on,12,0,4,,,,,,,,0,,,53,80
26400,note_on,0,0,1,,,,,,,,0,,,65,80
26400,note_on,0,0,1,,,,,,,,0,,,73,80
26496,note_on,0,0,1,,,,,,,,0,,,68,0
26496,note_on,0,0,4,,,,,,,,0,,,47,0
26496,note_on,0,0,4,,,,,,,,0,,,53,0
26496,note_on,96,0,4,,,,,,,,0,,,56,0
26496,note_on,0,0,1,,,,,,,,0,,,73,0
26496,note_on,96,0,1,,,,,,,,0,,,65,0
26496,note_on,0,0,4,,,,,,,,0,,,61,0
26520,note_on,24,0,4,,,,,,,,0,,,52,80
26520,note_on,0,0,1,,,,,,,,0,,,68,80
26520,note_on,0,0,1,,,,,,,,0,,,64,80
26520,note_on,0,0,4,,,,,,,,0,,,56,80
26520,note_on,0,0,4,,,,,,,,0,,,60,80
26520,note_on,24,0,1,,,,,,,,0,,,72,80
26520,note_on,0,0,4,,,,,,,,0,,,47,80
26616,note_on,96,0,4,,,,,,,,0,,,47,0
26616,note_on,0,0,4,,,,,,,,0,,,52,0
26616,note_on,96,0,1,,,,,,,,0,,,68,0
26616,note_on,0,0,1,,,,,,,,0,,,64,0
26616,note_on,0,0,4,,,,,,,,0,,,56,0
26616,note_on,0,0,4,,,,,,,,0,,,60,0
26616,note_on,0,0,1,,,,,,,,0,,,72,0
26640,note_on,0,0,4,,,,,,,,0,,,61,80
26640,note_on,0,0,4,,,,,,,,0,,,47,80
26640,note_on,0,0,1,,,,,,,,0,,,65,80
26640,note_on,0,0,1,,,,,,,,0,,,73,80
26640,note_on,24,0,1,,,,,,,,0,,,68,80
26640,note_on,0,0,4,,,,,,,,0,,,53,80
26640,note_on,24,0,4,,,,,,,,0,,,56,80
26736,note_on,0,0,1,,,,,,,,0,,,68,0
26736,note_on,0,0,1,,,,,,,,0,,,73,0
26736,note_on,96,0,1,,,,,,,,0,,,65,0
26736,note_on,96,0,4,,,,,,,,0,,,53,0
26736,note_on,0,0,4,,,,,,,,0,,,61,0
26736,note_on,0,0,4,,,,,,,,0,,,47,0
26736,note_on,0,0,4,,,,,,,,0,,,56,0
26998,control_change,262,0,4,,,,,,,,0,64,127,,
27000,note_on,0,0,4,,,,,,,,0,,,46,80
27000,note_on,264,0,1,,,,,,,,0,,,62,80
27000,note_on,2,0,4,,,,,,,,0,,,34,80
27000,note_on,0,0,1,,,,,,,,0,,,74,80
27000,note_on,0,0,4,,,,,,,,0,,,41,80
27000,note_on,0,0,1,,,,,,,,0,,,68,80
27096,note_on,96,0,1,,,,,,,,0,,,68,0
27096,note_on,0,0,4,,,,,,,,0,,,46,0
27096,note_on,96,0,4,,,,,,,,0,,,41,0
27096,note_on,0,0,1,,,,,,,,0,,,62,0
27096,note_on,0,0,4,,,,,,,,0,,,34,0
27096,note_on,0,0,1,,,,,,,,0,,,74,0
27120,note_on,1806,0,3,,,,,,,,0,,,46,80
27120,note_on,3966,0,2,,,,,,,,0,,,58,80
27144,note_on,24,0,2,,,,,,,,0,,,58,0
27144,note_on,24,0,3,,,,,,,,0,,,46,0
27150,note_on,6,0,2,,,,,,,,0,,,60,80
27150,note_on,6,0,3,,,,,,,,0,,,48,80
27174,note_on,24,0,3,,,,,,,,0,,,48,0
27174,note_on,24,0,2,,,,,,,,0,,,60,0
27180,note_on,6,0,2,,,,,,,,0,,,62,80
27180,note_on,6,0,3,,,,,,,,0,,,50,80
27204,note_on,24,0,2,,,,,,,,0,,,62,0
27204,note_on,24,0,3,,,,,,,,0,,,50,0
27210,note_on,6,0,3,,,,,,,,0,,,51,80
27210,note_on,6,0,2,,,,,,,,0,,,63,80
27234,note_on,24,0,2,,,,,,,,0,,,63,0
27234,note_on,24,0,3,,,,,,,,0,,,51,0
27240,note_on,6,0,3,,,,,,,,0,,,53,80
27240,note_on,6,0,2,,,,,,,,0,,,65,80
27336,note_on,96,0,2,,,,,,,,0,,,65,0
27336,note_on,96,0,3,,,,,,,,0,,,53,0
27360,note_on,0,0,4,,,,,,,,0,,,46,80
27360,note_on,0,0,4,,,,,,,,0,,,42,80
27360,note_on,0,0,4,,,,,,,,0,,,34,80
27360,note_on,0,0,1,,,,,,,,0,,,66,80
27360,note_on,0,0,1,,,,,,,,0,,,75,80
27360,note_on,264,0,1,,,,,,,,0,,,63,80
27360,control_change,264,0,4,,,,,,,,0,64,0,,
27456,note_on,96,0,4,,,,,,,,0,,,34,0
27456,note_on,0,0,1,,,,,,,,0,,,75,0
27456,note_on,0,0,1,,,,,,,,0,,,63,0
27456,note_on,0,0,4,,,,,,,,0,,,46,0
27456,note_on,0,0,4,,,,,,,,0,,,42,0
27456,note_on,96,0,1,,,,,,,,0,,,66,0
27480,note_on,0,0,1,,,,,,,,0,,,66,80
27480,note_on,0,0,1,,,,,,,,0,,,70,80
27480,note_on,24,0,4,,,,,,,,0,,,42,80
27480,note_on,0,0,4,,,,,,,,0,,,34,80
27480,note_on,24,0,1,,,,,,,,0,,,78,80
27480,note_on,0,0,4,,,,,,,,0,,,46,80
27576,note_on,0,0,4,,,,,,,,0,,,42,0
27576,note_on,96,0,4,,,,,,,,0,,,46,0
27576,note_on,0,0,1,,,,,,,,0,,,70,0
27576,note_on,0,0,1,,,,,,,,0,,,78,0
27576,note_on,96,0,1,,,,,,,,0,,,66,0
27576,note_on,0,0,4,,,,,,,,0,,,34,0
27600,note_on,0,0,1,,,,,,,,0,,,74,80
27600,note_on,0,0,4,,,,,,,,0,,,41,80
27600,note_on,0,0,1,,,,,,,,0,,,70,80
27600,note_on,0,0,4,,,,,,,,0,,,46,80
27600,note_on,24,0,4,,,,,,,,0,,,34,80
27600,note_on,24,0,1,,,,,,,,0,,,82,80
27602,control_change,2,0,4,,,,,,,,0,64,127,,
27696,note_on,0,0,1,,,,,,,,0,,,82,0
27696,note_on,94,0,4,,,,,,,,0,,,46,0
27696,note_on,0,0,4,,,,,,,,0,,,34,0
27696,note_on,0,0,1,,,,,,,,0,,,74,0
27696,note_on,0,0,4,,,,,,,,0,,,41,0
27696,note_on,96,0,1,,,,,,,,0,,,70,0
27720,note_on,384,0,3,,,,,,,,0,,,53,80
27720,note_on,384,0,2,,,,,,,,0,,,65,80
27744,note_on,24,0,3,,,,,,,,0,,,53,0
27744,note_on,24,0,2,,,,,,,,0,,,65,0
27750,note_on,6,0,2,,,,,,,,0,,,63,80
27750,note_on,6,0,3,,,,,,,,0,,,51,80
27774,note_on,24,0,3,,,,,,,,0,,,51,0
27774,note_on,24,0,2,,,,,,,,0,,,63,0
27780,note_on,6,0,2,,,,,,,,0,,,62,80
27780,note_on,6,0,3,,,,,,,,0,,,50,80
27804,note_on,24,0,2,,,,,,,,0,,,62,0
27804,note_on,24,0,3,,,,,,,,0,,,50,0
27810,note_on,6,0,3,,,,,,,,0,,,48,80
27810,note_on,6,0,2,,,,,,,,0,,,60,80
27834,note_on,24,0,3,,,,,,,,0,,,48,0
27834,note_on,24,0,2,,,,,,,,0,,,60,0
27840,note_on,6,0,3,,,,,,,,0,,,46,80
27840,note_on,6,0,2,,,,,,,,0,,,58,80
27936,note_on,96,0,2,,,,,,,,0,,,58,0
27936,note_on,96,0,3,,,,,,,,0,,,46,0
27960,note_on,0,0,1,,,,,,,,0,,,71,80
27960,note_on,0,0,1,,,,,,,,0,,,83,80
27960,note_on,0,0,4,,,,,,,,0,,,42,80
27960,note_on,264,0,4,,,,,,,,0,,,45,80
27960,note_on,264,0,1,,,,,,,,0,,,75,80
27960,note_on,0,0,4,,,,,,,,0,,,33,80
27967,control_change,7,0,4,,,,,,,,0,64,0,,
28056,note_on,0,0,1,,,,,,,,0,,,71,0
28056,note_on,0,0,1,,,,,,,,0,,,75,0
28056,note_on,89,0,4,,,,,,,,0,,,33,0
28056,note_on,0,0,4,,,,,,,,0,,,42,0
28056,note_on,96,0,1,,,,,,,,0,,,83,0
28056,note_on,0,0,4,,,,,,,,0,,,45,0
28073,set_tempo,6234,1,0,,,,,,463750,,,,,,
28077,set_tempo,4,1,0,,,,,,471846,,,,,,
28080,note_on,0,0,1,,,,,,,,0,,,83,80
28080,note_on,24,0,1,,,,,,,,0,,,87,80
28080,note_on,0,0,1,,,,,,,,0,,,75,80
28080,note_on,0,0,4,,,,,,,,0,,,33,80
28080,note_on,0,0,4,,,,,,,,0,,,42,80
28080,note_on,24,0,4,,,,,,,,0,,,45,80
28176,note_on,96,0,1,,,,,,,,0,,,83,0
28176,note_on,0,0,4,,,,,,,,0,,,45,0
28176,note_on,0,0,4,,,,,,,,0,,,42,0
28176,note_on,0,0,1,,,,,,,,0,,,75,0
28176,note_on,96,0,4,,,,,,,,0,,,33,0
28176,note_on,0,0,1,,,,,,,,0,,,87,0
28200,note_on,24,0,4,,,,,,,,0,,,32,80
28200,control_change,0,0,4,,,,,,,,0,64,127,,
28200,note_on,24,0,1,,,,,,,,0,,,88,80
28200,note_on,0,0,4,,,,,,,,0,,,44,80
28200,note_on,0,0,4,,,,,,,,0,,,40,80
28200,note_on,0,0,1,,,,,,,,0,,,83,80
28200,note_on,0,0,1,,,,,,,,0,,,76,80
28287,set_tempo,210,1,0,,,,,,474608,,,,,,
28296,note_on,96,0,4,,,,,,,,0,,,40,0
28296,note_on,0,0,4,,,,,,,,0,,,44,0
28296,note_on,0,0,1,,,,,,,,0,,,88,0
28296,note_on,96,0,1,,,,,,,,0,,,76,0
28296,note_on,0,0,4,,,,,,,,0,,,32,0
28296,note_on,0,0,1,,,,,,,,0,,,83,0
28308,set_tempo,21,1,0,,,,,,441047,,,,,,
28320,note_on,384,0,2,,,,,,,,0,,,64,80
28320,note_on,384,0,3,,,,,,,,0,,,52,80
28344,note_on,24,0,2,,,,,,,,0,,,64,0
28344,note_on,24,0,3,,,,,,,,0,,,52,0
28350,note_on,6,0,3,,,,,,,,0,,,54,80
28350,note_on,6,0,2,,,,,,,,0,,,66,80
28374,note_on,24,0,2,,,,,,,,0,,,66,0
28374,note_on,24,0,3,,,,,,,,0,,,54,0
28380,note_on,6,0,3,,,,,,,,0,,,56,80
28380,note_on,6,0,2,,,,,,,,0,,,68,80
28404,note_on,24,0,2,,,,,,,,0,,,68,0
28404,note_on,24,0,3,,,,,,,,0,,,56,0
28410,note_on,6,0,3,,,,,,,,0,,,57,80
28410,note_on,6,0,2,,,,,,,,0,,,69,80
28434,note_on,24,0,2,,,,,,,,0,,,69,0
28434,note_on,24,0,3,,,,,,,,0,,,57,0
28440,note_on,6,0,2,,,,,,,,0,,,71,80
28440,note_on,6,0,3,,,,,,,,0,,,59,80
28522,set_tempo,214,1,0,,,,,,441047,,,,,,
28527,set_tempo,5,1,0,,,,,,445898,,,,,,
28531,set_tempo,4,1,0,,,,,,453378,,,,,,
28535,set_tempo,4,1,0,,,,,,458505,,,,,,
28536,note_on,96,0,2,,,,,,,,0,,,71,0
28536,note_on,96,0,3,,,,,,,,0,,,59,0
28540,set_tempo,5,1,0,,,,,,466418,,,,,,
28544,set_tempo,4,1,0,,,,,,471846,,,,,,
28548,set_tempo,4,1,0,,,,,,480231,,,,,,
28553,set_tempo,5,1,0,,,,,,485987,,,,,,
28557,set_tempo,4,1,0,,,,,,494886,,,,,,
28560,note_on,264,0,1,,,,,,,,0,,,87,80
28560,note_on,0,0,1,,,,,,,,0,,,84,80
28560,control_change,264,0,4,,,,,,,,0,64,0,,
28560,note_on,0,0,4,,,,,,,,0,,,42,80
28560,note_on,0,0,4,,,,,,,,0,,,45,80
28560,note_on,0,0,1,,,,,,,,0,,,75,80
28560,note_on,0,0,4,,,,,,,,0,,,33,80
28562,set_tempo,5,1,0,,,,,,501002,,,,,,
28566,set_tempo,4,1,0,,,,,,510465,,,,,,
28656,note_on,96,0,1,,,,,,,,0,,,75,0
28656,note_on,0,0,1,,,,,,,,0,,,87,0
28656,note_on,0,0,4,,,,,,,,0,,,42,0
28656,note_on,0,0,4,,,,,,,,0,,,45,0
28656,note_on,0,0,1,,,,,,,,0,,,84,0
28656,note_on,96,0,4,,,,,,,,0,,,33,0
28680,note_on,24,0,1,,,,,,,,0,,,96,80
28680,note_on,0,0,1,,,,,,,,0,,,87,80
28680,note_on,0,0,4,,,,,,,,0,,,45,80
28680,note_on,0,0,1,,,,,,,,0,,,84,80
28680,note_on,0,0,4,,,,,,,,0,,,42,80
28680,note_on,24,0,4,,,,,,,,0,,,33,80
28776,note_on,0,0,1,,,,,,,,0,,,87,0
28776,note_on,0,0,1,,,,,,,,0,,,96,0
28776,note_on,0,0,4,,,,,,,,0,,,33,0
28776,note_on,96,0,4,,,,,,,,0,,,42,0
28776,note_on,0,0,4,,,,,,,,0,,,45,0
28776,note_on,96,0,1,,,,,,,,0,,,84,0
28793,set_tempo,227,1,0,,,,,,443459,,,,,,
28800,note_on,0,0,1,,,,,,,,0,,,83,80
28800,note_on,0,0,4,,,,,,,,0,,,32,80
28800,note_on,0,0,4,,,,,,,,0,,,40,80
28800,note_on,24,0,4,,,,,,,,0,,,44,80
28800,note_on,24,0,1,,,,,,,,0,,,95,80
28800,note_on,0,0,1,,,,,,,,0,,,88,80
28802,set_tempo,9,1,0,,,,,,450857,,,,,,
28804,control_change,4,0,4,,,,,,,,0,64,127,,
28806,set_tempo,4,1,0,,,,,,438661,,,,,,
28896,note_on,0,0,4,,,,,,,,0,,,44,0
28896,note_on,0,0,1,,,,,,,,0,,,83,0
28896,note_on,0,0,4,,,,,,,,0,,,32,0
28896,note_on,0,0,1,,,,,,,,0,,,95,0
28896,note_on,96,0,1,,,,,,,,0,,,88,0
28896,note_on,92,0,4,,,,,,,,0,,,40,0
28920,note_on,384,0,3,,,,,,,,0,,,59,80
28920,note_on,384,0,2,,,,,,,,0,,,71,80
28944,note_on,24,0,2,,,,,,,,0,,,71,0
28944,note_on,24,0,3,,,,,,,,0,,,59,0
28950,note_on,6,0,2,,,,,,,,0,,,69,80
28950,note_on,6,0,3,,,,,,,,0,,,57,80
28974,note_on,24,0,3,,,,,,,,0,,,57,0
28974,note_on,24,0,2,,,,,,,,0,,,69,0
28980,note_on,6,0,2,,,,,,,,0,,,68,80
28980,note_on,6,0,3,,,,,,,,0,,,56,80
29004,note_on,24,0,3,,,,,,,,0,,,56,0
29004,note_on,24,0,2,,,,,,,,0,,,68,0
29010,note_on,6,0,2,,,,,,,,0,,,66,80
29010,note_on,6,0,3,,,,,,,,0,,,54,80
29034,note_on,24,0,2,,,,,,,,0,,,66,0
29034,note_on,24,0,3,,,,,,,,0,,,54,0
29040,note_on,6,0,3,,,,,,,,0,,,52,80
29040,note_on,6,0,2,,,,,,,,0,,,64,80
29136,note_on,96,0,2,,,,,,,,0,,,64,0
29136,note_on,96,0,3,,,,,,,,0,,,52,0
29155,set_tempo,349,1,0,,,,,,494886,,,,,,
29160,note_on,264,0,4,,,,,,,,0,,,40,80
29160,note_on,0,0,1,,,,,,,,0,,,82,80
29160,note_on,0,0,1,,,,,,,,0,,,85,80
29160,note_on,0,0,4,,,,,,,,0,,,31,80
29160,note_on,0,0,4,,,,,,,,0,,,43,80
29160,note_on,264,0,1,,,,,,,,0,,,94,80
29162,control_change,2,0,4,,,,,,,,0,64,0,,
29168,set_tempo,13,1,0,,,,,,491884,,,,,,
29182,set_tempo,14,1,0,,,,,,488918,,,,,,
29195,set_tempo,13,1,0,,,,,,485987,,,,,,
29208,set_tempo,13,1,0,,,,,,483092,,,,,,
29221,set_tempo,13,1,0,,,,,,480231,,,,,,
29234,set_tempo,13,1,0,,,,,,477403,,,,,,
29247,set_tempo,13,1,0,,,,,,474608,,,,,,
29256,note_on,0,0,1,,,,,,,,0,,,82,0
29256,note_on,0,0,4,,,,,,,,0,,,31,0
29256,note_on,0,0,4,,,,,,,,0,,,40,0
29256,note_on,96,0,1,,,,,,,,0,,,85,0
29256,note_on,94,0,4,,,,,,,,0,,,43,0
29256,note_on,0,0,1,,,,,,,,0,,,94,0
29260,set_tempo,13,1,0,,,,,,471846,,,,,,
29273,set_tempo,13,1,0,,,,,,469116,,,,,,
29280,note_on,24,0,1,,,,,,,,0,,,97,80
29280,note_on,0,0,1,,,,,,,,0,,,85,80
29280,note_on,0,0,4,,,,,,,,0,,,40,80
29280,note_on,0,0,4,,,,,,,,0,,,31,80
29280,note_on,24,0,4,,,,,,,,0,,,43,80
29280,note_on,0,0,1,,,,,,,,0,,,94,80
29286,set_tempo,13,1,0,,,,,,466418,,,,,,
29299,set_tempo,13,1,0,,,,,,463750,,,,,,
29312,set_tempo,13,1,0,,,,,,461113,,,,,,
29326,set_tempo,14,1,0,,,,,,458505,,,,,,
29339,set_tempo,13,1,0,,,,,,455927,,,,,,
29352,set_tempo,13,1,0,,,,,,453378,,,,,,
29365,set_tempo,13,1,0,,,,,,450857,,,,,,
29376,note_on,96,0,4,,,,,,,,0,,,31,0
29376,note_on,96,0,1,,,,,,,,0,,,85,0
29376,note_on,0,0,1,,,,,,,,0,,,97,0
29376,note_on,0,0,1,,,,,,,,0,,,94,0
29376,note_on,0,0,4,,,,,,,,0,,,43,0
29376,note_on,0,0,4,,,,,,,,0,,,40,0
29378,set_tempo,13,1,0,,,,,,448363,,,,,,
29387,set_tempo,9,1,0,,,,,,445898,,,,,,
29395,set_tempo,8,1,0,,,,,,445898,,,,,,
29400,note_on,24,0,4,,,,,,,,0,,,42,80
29400,set_tempo,5,1,0,,,,,,438661,,,,,,
29400,note_on,0,0,1,,,,,,,,0,,,98,80
29400,note_on,0,0,1,,,,,,,,0,,,93,80
29400,note_on,24,0,1,,,,,,,,0,,,86,80
29400,note_on,0,0,4,,,,,,,,0,,,30,80
29400,note_on,0,0,4,,,,,,,,0,,,38,80
29405,control_change,5,0,4,,,,,,,,0,64,127,,
29496,note_on,0,0,1,,,,,,,,0,,,93,0
29496,note_on,96,0,1,,,,,,,,0,,,98,0
29496,note_on,0,0,4,,,,,,,,0,,,38,0
29496,note_on,0,0,1,,,,,,,,0,,,86,0
29496,note_on,0,0,4,,,,,,,,0,,,42,0
29496,note_on,91,0,4,,,,,,,,0,,,30,0
29520,note_on,384,0,2,,,,,,,,0,,,62,80
29520,note_on,384,0,3,,,,,,,,0,,,50,80
29544,note_on,24,0,3,,,,,,,,0,,,50,0
29544,note_on,24,0,2,,,,,,,,0,,,62,0
29550,note_on,6,0,2,,,,,,,,0,,,64,80
29550,note_on,6,0,3,,,,,,,,0,,,52,80
29574,note_on,24,0,2,,,,,,,,0,,,64,0
29574,note_on,24,0,3,,,,,,,,0,,,52,0
29580,note_on,6,0,2,,,,,,,,0,,,66,80
29580,note_on,6,0,3,,,,,,,,0,,,54,80
29604,note_on,24,0,3,,,,,,,,0,,,54,0
29604,note_on,24,0,2,,,,,,,,0,,,66,0
29610,note_on,6,0,2,,,,,,,,0,,,67,80
29610,note_on,6,0,3,,,,,,,,0,,,55,80
29634,note_on,24,0,2,,,,,,,,0,,,67,0
29634,note_on,24,0,3,,,,,,,,0,,,55,0
29640,note_on,6,0,3,,,,,,,,0,,,57,80
29640,note_on,6,0,2,,,,,,,,0,,,69,80
29736,note_on,96,0,3,,,,,,,,0,,,57,0
29736,note_on,96,0,2,,,,,,,,0,,,69,0
29760,note_on,0,0,4,,,,,,,,0,,,41,80
29760,note_on,0,0,1,,,,,,,,0,,,86,80
29760,note_on,0,0,1,,,,,,,,0,,,95,80
29760,note_on,0,0,1,,,,,,,,0,,,98,80
29760,note_on,264,0,1,,,,,,,,0,,,92,80
29760,note_on,0,0,4,,,,,,,,0,,,29,80
29760,control_change,0,0,4,,,,,,,,0,64,0,,
29760,note_on,264,0,4,,,,,,,,0,,,38,80
29785,control_change,25,0,4,,,,,,,,0,64,127,,
29856,note_on,71,0,4,,,,,,,,0,,,41,0
29856,note_on,0,0,1,,,,,,,,0,,,95,0
29856,note_on,0,0,4,,,,,,,,0,,,38,0
29856,note_on,0,0,4,,,,,,,,0,,,29,0
29856,note_on,0,0,1,,,,,,,,0,,,92,0
29856,note_on,0,0,1,,,,,,,,0,,,86,0
29856,note_on,96,0,1,,,,,,,,0,,,98,0
29880,note_on,144,0,3,,,,,,,,0,,,50,80
29880,note_on,144,0,2,,,,,,,,0,,,62,80
29904,note_on,24,0,2,,,,,,,,0,,,62,0
29904,note_on,24,0,3,,,,,,,,0,,,50,0
29910,note_on,6,0,2,,,,,,,,0,,,65,80
29910,note_on,6,0,3,,,,,,,,0,,,53,80
29934,note_on,24,0,3,,,,,,,,0,,,53,0
29934,note_on,24,0,2,,,,,,,,0,,,65,0
29940,note_on,6,0,3,,,,,,,,0,,,56,80
29940,note_on,6,0,2,,,,,,,,0,,,68,80
29964,note_on,24,0,2,,,,,,,,0,,,68,0
29964,note_on,24,0,3,,,,,,,,0,,,56,0
29970,note_on,6,0,2,,,,,,,,0,,,70,80
29970,note_on,6,0,3,,,,,,,,0,,,58,80
29994,note_on,24,0,2,,,,,,,,0,,,70,0
29994,note_on,24,0,3,,,,,,,,0,,,58,0
30000,note_on,6,0,3,,,,,,,,0,,,59,80
30000,note_on,6,0,2,,,,,,,,0,,,71,80
30096,note_on,96,0,3,,,,,,,,0,,,59,0
30096,note_on,96,0,2,,,,,,,,0,,,71,0
30120,note_on,0,0,2,,,,,,,,0,,,62,80
30120,note_on,24,0,2,,,,,,,,0,,,74,80
30144,note_on,24,0,2,,,,,,,,0,,,62,0
30144,note_on,0,0,2,,,,,,,,0,,,74,0
30150,note_on,0,0,2,,,,,,,,0,,,77,80
30150,note_on,6,0,2,,,,,,,,0,,,65,80
30174,note_on,0,0,2,,,,,,,,0,,,65,0
30174,note_on,24,0,2,,,,,,,,0,,,77,0
30180,note_on,0,0,2,,,,,,,,0,,,80,80
30180,note_on,6,0,2,,,,,,,,0,,,68,80
30204,note_on,0,0,2,,,,,,,,0,,,68,0
30204,note_on,24,0,2,,,,,,,,0,,,80,0
30210,note_on,0,0,2,,,,,,,,0,,,82,80
30210,note_on,6,0,2,,,,,,,,0,,,70,80
30234,note_on,0,0,2,,,,,,,,0,,,70,0
30234,note_on,24,0,2,,,,,,,,0,,,82,0
30240,note_on,6,0,2,,,,,,,,0,,,71,80
30240,note_on,0,0,2,,,,,,,,0,,,83,80
30336,note_on,0,0,2,,,,,,,,0,,,71,0
30336,note_on,96,0,2,,,,,,,,0,,,83,0
30360,note_on,24,0,2,,,,,,,,0,,,74,80
30360,note_on,0,0,2,,,,,,,,0,,,86,80
30384,note_on,0,0,2,,,,,,,,0,,,74,0
30384,note_on,24,0,2,,,,,,,,0,,,86,0
30390,note_on,6,0,2,,,,,,,,0,,,77,80
30390,note_on,0,0,2,,,,,,,,0,,,89,80
30414,note_on,24,0,2,,,,,,,,0,,,89,0
30414,note_on,0,0,2,,,,,,,,0,,,77,0
30420,note_on,6,0,2,,,,,,,,0,,,92,80
30420,note_on,0,0,2,,,,,,,,0,,,80,80
30444,note_on,0,0,2,,,,,,,,0,,,92,0
30444,note_on,24,0,2,,,,,,,,0,,,80,0
30450,note_on,6,0,2,,,,,,,,0,,,82,80
30450,note_on,0,0,2,,,,,,,,0,,,94,80
30474,note_on,0,0,2,,,,,,,,0,,,82,0
30474,note_on,24,0,2,,,,,,,,0,,,94,0
30480,note_on,0,0,2,,,,,,,,0,,,83,80
30480,control_change,624,0,4,,,,,,,,0,64,0,,
30480,note_on,6,0,2,,,,,,,,0,,,95,80
30576,note_on,0,0,2,,,,,,,,0,,,95,0
30576,note_on,96,0,2,,,,,,,,0,,,83,0
30646,control_change,166,0,4,,,,,,,,0,64,127,,
30660,note_on,14,0,4,,,,,,,,0,,,39,80
30660,note_on,0,0,4,,,,,,,,0,,,42,80
30660,note_on,0,0,4,,,,,,,,0,,,30,80
30660,note_on,804,0,1,,,,,,,,0,,,87,80
30660,note_on,0,0,1,,,,,,,,0,,,95,80
30660,note_on,0,0,1,,,,,,,,0,,,99,80
30708,note_on,48,0,1,,,,,,,,0,,,95,0
30708,note_on,48,0,4,,,,,,,,0,,,42,0
30708,note_on,0,0,1,,,,,,,,0,,,87,0
30708,note_on,0,0,1,,,,,,,,0,,,99,0
30708,note_on,0,0,4,,,,,,,,0,,,30,0
30708,note_on,0,0,4,,,,,,,,0,,,39,0
30720,note_on,12,0,1,,,,,,,,0,,,95,80
30720,note_on,0,0,4,,,,,,,,0,,,42,80
30720,note_on,0,0,1,,,,,,,,0,,,87,80
30720,note_on,0,0,4,,,,,,,,0,,,30,80
30720,note_on,0,0,1,,,,,,,,0,,,99,80
30720,note_on,12,0,4,,,,,,,,0,,,39,80
30816,note_on,96,0,1,,,,,,,,0,,,99,0
30816,note_on,96,0,4,,,,,,,,0,,,42,0
30816,note_on,0,0,4,,,,,,,,0,,,39,0
30816,note_on,0,0,1,,,,,,,,0,,,87,0
30816,note_on,0,0,1,,,,,,,,0,,,95,0
30816,note_on,0,0,4,,,,,,,,0,,,30,0
30840,note_on,0,0,1,,,,,,,,0,,,87,80
30840,note_on,0,0,1,,,,,,,,0,,,95,80
30840,note_on,24,0,4,,,,,,,,0,,,42,80
30840,note_on,24,0,1,,,,,,,,0,,,83,80
30840,note_on,0,0,4,,,,,,,,0,,,47,80
30840,note_on,0,0,4,,,,,,,,0,,,35,80
30936,note_on,96,0,4,,,,,,,,0,,,35,0
30936,note_on,96,0,1,,,,,,,,0,,,95,0
30936,note_on,0,0,4,,,,,,,,0,,,47,0
30936,note_on,0,0,4,,,,,,,,0,,,42,0
30936,note_on,0,0,1,,,,,,,,0,,,83,0
30936,note_on,0,0,1,,,,,,,,0,,,87,0
31020,note_on,84,0,1,,,,,,,,0,,,83,80
31020,note_on,0,0,4,,,,,,,,0,,,47,80
31020,note_on,84,0,4,,,,,,,,0,,,39,80
31020,note_on,0,0,4,,,,,,,,0,,,51,80
31020,note_on,0,0,1,,,,,,,,0,,,90,80
31020,note_on,0,0,1,,,,,,,,0,,,78,80
31068,note_on,0,0,4,,,,,,,,0,,,39,0
31068,note_on,0,0,4,,,,,,,,0,,,51,0
31068,note_on,0,0,1,,,,,,,,0,,,90,0
31068,note_on,0,0,1,,,,,,,,0,,,83,0
31068,note_on,48,0,1,,,,,,,,0,,,78,0
31068,note_on,48,0,4,,,,,,,,0,,,47,0
31080,note_on,0,0,1,,,,,,,,0,,,78,80
31080,note_on,0,0,1,,,,,,,,0,,,90,80
31080,note_on,12,0,1,,,,,,,,0,,,83,80
31080,note_on,0,0,4,,,,,,,,0,,,51,80
31080,note_on,0,0,4,,,,,,,,0,,,47,80
31080,note_on,12,0,4,,,,,,,,0,,,39,80
31082,control_change,2,0,4,,,,,,,,0,64,0,,
31176,note_on,0,0,1,,,,,,,,0,,,83,0
31176,note_on,0,0,1,,,,,,,,0,,,78,0
31176,note_on,0,0,4,,,,,,,,0,,,47,0
31176,note_on,0,0,4,,,,,,,,0,,,39,0
31176,note_on,96,0,1,,,,,,,,0,,,90,0
31176,note_on,94,0,4,,,,,,,,0,,,51,0
31320,note_on,144,0,4,,,,,,,,0,,,51,80
31320,note_on,144,0,1,,,,,,,,0,,,87,80
31320,note_on,0,0,1,,,,,,,,0,,,75,80
31320,note_on,0,0,4,,,,,,,,0,,,42,80
31320,note_on,0,0,4,,,,,,,,0,,,54,80
31320,note_on,0,0,4,,,,,,,,0,,,47,80
31320,note_on,0,0,1,,,,,,,,0,,,78,80
31320,note_on,0,0,1,,,,,,,,0,,,83,80
31326,control_change,6,0,4,,,,,,,,0,64,127,,
31368,note_on,0,0,1,,,,,,,,0,,,78,0
31368,note_on,42,0,4,,,,,,,,0,,,54,0
31368,note_on,0,0,1,,,,,,,,0,,,87,0
31368,note_on,48,0,1,,,,,,,,0,,,83,0
31368,note_on,0,0,4,,,,,,,,0,,,42,0
31368,note_on,0,0,4,,,,,,,,0,,,47,0
31368,note_on,0,0,4,,,,,,,,0,,,51,0
31368,note_on,0,0,1,,,,,,,,0,,,75,0
31380,note_on,0,0,1,,,,,,,,0,,,87,80
31380,note_on,12,0,4,,,,,,,,0,,,51,80
31380,note_on,0,0,4,,,,,,,,0,,,42,80
31380,note_on,0,0,1,,,,,,,,0,,,75,80
31380,note_on,0,0,4,,,,,,,,0,,,54,80
31380,note_on,0,0,4,,,,,,,,0,,,47,80
31380,note_on,0,0,1,,,,,,,,0,,,83,80
31380,note_on,12,0,1,,,,,,,,0,,,78,80
31476,note_on,96,0,1,,,,,,,,0,,,87,0
31476,note_on,0,0,4,,,,,,,,0,,,47,0
31476,note_on,96,0,4,,,,,,,,0,,,54,0
31476,note_on,0,0,1,,,,,,,,0,,,78,0
31476,note_on,0,0,1,,,,,,,,0,,,83,0
31476,note_on,0,0,1,,,,,,,,0,,,75,0
31476,note_on,0,0,4,,,,,,,,0,,,42,0
31476,note_on,0,0,4,,,,,,,,0,,,51,0
31500,note_on,0,0,1,,,,,,,,0,,,83,80
31500,note_on,0,0,1,,,,,,,,0,,,77,80
31500,note_on,0,0,1,,,,,,,,0,,,74,80
31500,note_on,0,0,4,,,,,,,,0,,,41,80
31500,note_on,24,0,4,,,,,,,,0,,,47,80
31500,note_on,24,0,1,,,,,,,,0,,,86,80
31500,note_on,0,0,4,,,,,,,,0,,,53,80
31500,note_on,0,0,4,,,,,,,,0,,,50,80
31596,note_on,96,0,4,,,,,,,,0,,,53,0
31596,note_on,96,0,1,,,,,,,,0,,,74,0
31596,note_on,0,0,4,,,,,,,,0,,,47,0
31596,note_on,0,0,4,,,,,,,,0,,,50,0
31596,note_on,0,0,1,,,,,,,,0,,,77,0
31596,note_on,0,0,1,,,,,,,,0,,,83,0
31596,note_on,0,0,1,,,,,,,,0,,,86,0
31596,note_on,0,0,4,,,,,,,,0,,,41,0
31620,note_on,24,0,4,,,,,,,,0,,,42,80
31620,note_on,0,0,1,,,,,,,,0,,,83,80
31620,note_on,24,0,1,,,,,,,,0,,,87,80
31620,note_on,0,0,1,,,,,,,,0,,,75,80
31620,note_on,0,0,4,,,,,,,,0,,,47,80
31620,note_on,0,0,4,,,,,,,,0,,,51,80
31620,note_on,0,0,4,,,,,,,,0,,,54,80
31620,note_on,0,0,1,,,,,,,,0,,,78,80
31663,control_change,43,0,4,,,,,,,,0,64,0,,
31716,note_on,0,0,1,,,,,,,,0,,,75,0
31716,note_on,0,0,1,,,,,,,,0,,,83,0
31716,note_on,0,0,1,,,,,,,,0,,,87,0
31716,note_on,96,0,1,,,,,,,,0,,,78,0
31716,note_on,0,0,4,,,,,,,,0,,,51,0
31716,note_on,0,0,4,,,,,,,,0,,,42,0
31716,note_on,53,0,4,,,,,,,,0,,,47,0
31716,note_on,0,0,4,,,,,,,,0,,,54,0
31920,note_on,0,0,4,,,,,,,,0,,,51,80
31920,control_change,204,0,4,,,,,,,,0,64,127,,
31920,note_on,0,0,1,,,,,,,,0,,,90,80
31920,note_on,0,0,1,,,,,,,,0,,,78,80
31920,note_on,204,0,1,,,,,,,,0,,,83,80
31920,note_on,0,0,4,,,,,,,,0,,,56,80
31920,note_on,0,0,4,,,,,,,,0,,,44,80
32016,note_on,96,0,1,,,,,,,,0,,,78,0
32016,note_on,0,0,1,,,,,,,,0,,,90,0
32016,note_on,0,0,1,,,,,,,,0,,,83,0
32016,note_on,96,0,4,,,,,,,,0,,,44,0
32016,note_on,0,0,4,,,,,,,,0,,,56,0
32016,note_on,0,0,4,,,,,,,,0,,,51,0
32100,note_on,84,0,1,,,,,,,,0,,,86,80
32100,note_on,0,0,1,,,,,,,,0,,,74,80
32100,note_on,0,0,4,,,,,,,,0,,,50,80
32100,note_on,84,0,4,,,,,,,,0,,,62,80
32148,note_on,0,0,1,,,,,,,,0,,,86,0
32148,note_on,0,0,4,,,,,,,,0,,,62,0
32148,note_on,48,0,4,,,,,,,,0,,,50,0
32148,note_on,48,0,1,,,,,,,,0,,,74,0
32160,note_on,0,0,1,,,,,,,,0,,,87,80
32160,note_on,12,0,4,,,,,,,,0,,,63,80
32160,note_on,12,0,1,,,,,,,,0,,,75,80
32160,note_on,0,0,4,,,,,,,,0,,,51,80
32256,note_on,0,0,4,,,,,,,,0,,,63,0
32256,note_on,96,0,4,,,,,,,,0,,,51,0
32256,note_on,0,0,1,,,,,,,,0,,,75,0
32256,note_on,96,0,1,,,,,,,,0,,,87,0
32280,note_on,24,0,1,,,,,,,,0,,,78,80
32280,note_on,0,0,4,,,,,,,,0,,,45,80
32280,note_on,0,0,4,,,,,,,,0,,,54,80
32280,note_on,24,0,4,,,,,,,,0,,,57,80
32280,note_on,0,0,1,,,,,,,,0,,,90,80
32280,note_on,0,0,1,,,,,,,,0,,,84,80
32376,note_on,0,0,4,,,,,,,,0,,,54,0
32376,note_on,0,0,4,,,,,,,,0,,,57,0
32376,note_on,96,0,4,,,,,,,,0,,,45,0
32376,note_on,96,0,1,,,,,,,,0,,,90,0
32376,note_on,0,0,1,,,,,,,,0,,,84,0
32376,note_on,0,0,1,,,,,,,,0,,,78,0
32460,note_on,84,0,4,,,,,,,,0,,,62,80
32460,note_on,0,0,4,,,,,,,,0,,,50,80
32460,note_on,0,0,1,,,,,,,,0,,,86,80
32460,note_on,84,0,1,,,,,,,,0,,,74,80
32508,note_on,0,0,4,,,,,,,,0,,,62,0
32508,note_on,48,0,4,,,,,,,,0,,,50,0
32508,note_on,48,0,1,,,,,,,,0,,,86,0
32508,note_on,0,0,1,,,,,,,,0,,,74,0
32520,note_on,12,0,1,,,,,,,,0,,,75,80
32520,note_on,12,0,4,,,,,,,,0,,,63,80
32520,note_on,0,0,4,,,,,,,,0,,,51,80
32520,note_on,0,0,1,,,,,,,,0,,,87,80
32616,note_on,0,0,4,,,,,,,,0,,,63,0
32616,note_on,96,0,1,,,,,,,,0,,,87,0
32616,note_on,0,0,1,,,,,,,,0,,,75,0
32616,note_on,96,0,4,,,,,,,,0,,,51,0
32640,note_on,0,0,4,,,,,,,,0,,,53,80
32640,note_on,24,0,1,,,,,,,,0,,,94,80
32640,note_on,0,0,4,,,,,,,,0,,,46,80
32640,note_on,0,0,1,,,,,,,,0,,,82,80
32640,note_on,0,0,1,,,,,,,,0,,,86,80
32640,note_on,24,0,4,,,,,,,,0,,,58,80
32642,control_change,2,0,4,,,,,,,,0,64,0,,
32736,note_on,0,0,4,,,,,,,,0,,,58,0
32736,note_on,0,0,1,,,,,,,,0,,,86,0
32736,note_on,0,0,4,,,,,,,,0,,,46,0
32736,note_on,94,0,4,,,,,,,,0,,,53,0
32736,note_on,96,0,1,,,,,,,,0,,,82,0
32736,note_on,0,0,1,,,,,,,,0,,,94,0
32760,note_on,24,0,4,,,,,,,,0,,,41,88
32760,note_on,0,0,4,,,,,,,,0,,,53,88
32762,control_change,2,0,4,,,,,,,,0,64,127,,
32790,note_on,0,0,3,,,,,,,,0,,,46,64
32790,note_on,2694,0,3,,,,,,,,0,,,34,64
32814,note_on,24,0,3,,,,,,,,0,,,46,0
32814,note_on,0,0,3,,,,,,,,0,,,34,0
32820,note_on,6,0,3,,,,,,,,0,,,36,64
32820,note_on,0,0,3,,,,,,,,0,,,48,64
32844,note_on,0,0,3,,,,,,,,0,,,36,0
32844,note_on,24,0,3,,,,,,,,0,,,48,0
32850,note_on,0,0,3,,,,,,,,0,,,50,64
32850,note_on,6,0,3,,,,,,,,0,,,38,64
32856,note_on,94,0,4,,,,,,,,0,,,53,0
32856,note_on,0,0,4,,,,,,,,0,,,41,0
32874,note_on,24,0,3,,,,,,,,0,,,50,0
32874,note_on,0,0,3,,,,,,,,0,,,38,0
32880,note_on,0,0,4,,,,,,,,0,,,51,88
32880,note_on,24,0,4,,,,,,,,0,,,39,88
32910,note_on,0,0,3,,,,,,,,0,,,41,64
32910,note_on,36,0,3,,,,,,,,0,,,53,64
32934,note_on,0,0,3,,,,,,,,0,,,53,0
32934,note_on,24,0,3,,,,,,,,0,,,41,0
32940,note_on,0,0,3,,,,,,,,0,,,46,64
32940,note_on,6,0,3,,,,,,,,0,,,34,64
32964,note_on,0,0,3,,,,,,,,0,,,34,0
32964,note_on,24,0,3,,,,,,,,0,,,46,0
32970,note_on,0,0,3,,,,,,,,0,,,48,64
32970,note_on,6,0,3,,,,,,,,0,,,36,64
32976,note_on,0,0,4,,,,,,,,0,,,39,0
32976,note_on,96,0,4,,,,,,,,0,,,51,0
32994,note_on,24,0,3,,,,,,,,0,,,48,0
32994,note_on,0,0,3,,,,,,,,0,,,36,0
33000,note_on,24,0,4,,,,,,,,0,,,38,88
33000,note_on,0,0,4,,,,,,,,0,,,50,88
33030,note_on,36,0,3,,,,,,,,0,,,51,64
33030,note_on,0,0,3,,,,,,,,0,,,39,64
33054,note_on,24,0,3,,,,,,,,0,,,39,0
33054,note_on,0,0,3,,,,,,,,0,,,51,0
33060,note_on,6,0,3,,,,,,,,0,,,53,64
33060,note_on,0,0,3,,,,,,,,0,,,41,64
33084,note_on,24,0,3,,,,,,,,0,,,41,0
33084,note_on,0,0,3,,,,,,,,0,,,53,0
33090,note_on,6,0,3,,,,,,,,0,,,34,64
33090,note_on,0,0,3,,,,,,,,0,,,46,64
33096,note_on,96,0,4,,,,,,,,0,,,50,0
33096,note_on,0,0,4,,,,,,,,0,,,38,0
33114,note_on,0,0,3,,,,,,,,0,,,34,0
33114,note_on,24,0,3,,,,,,,,0,,,46,0
33120,note_on,0,0,4,,,,,,,,0,,,48,88
33120,note_on,24,0,4,,,,,,,,0,,,36,88
33150,note_on,0,0,3,,,,,,,,0,,,38,64
33150,note_on,36,0,3,,,,,,,,0,,,50,64
33174,note_on,0,0,3,,,,,,,,0,,,50,0
33174,note_on,24,0,3,,,,,,,,0,,,38,0
33180,note_on,0,0,3,,,,,,,,0,,,51,64
33180,note_on,6,0,3,,,,,,,,0,,,39,64
33204,note_on,24,0,3,,,,,,,,0,,,51,0
33204,note_on,0,0,3,,,,,,,,0,,,39,0
33210,note_on,6,0,3,,,,,,,,0,,,53,64
33210,note_on,0,0,3,,,,,,,,0,,,41,64
33216,note_on,96,0,4,,,,,,,,0,,,48,0
33216,note_on,0,0,4,,,,,,,,0,,,36,0
33219,control_change,3,0,4,,,,,,,,0,64,0,,
33234,note_on,24,0,3,,,,,,,,0,,,41,0
33234,note_on,0,0,3,,,,,,,,0,,,53,0
33240,note_on,21,0,4,,,,,,,,0,,,46,88
33240,note_on,0,0,4,,,,,,,,0,,,34,88
33336,note_on,96,0,4,,,,,,,,0,,,34,0
33336,note_on,0,0,4,,,,,,,,0,,,46,0
33360,note_on,24,0,4,,,,,,,,0,,,46,80
33360,control_change,0,0,4,,,,,,,,0,64,127,,
33360,note_on,0,0,4,,,,,,,,0,,,57,80
33360,note_on,624,0,1,,,,,,,,0,,,81,80
33360,note_on,0,0,1,,,,,,,,0,,,90,80
33360,time_signature,3960,1,0,5,8,12,8,,,,,,,,
33360,note_on,0,0,4,,,,,,,,0,,,51,80
33360,note_on,0,0,4,,,,,,,,0,,,48,80
33360,note_on,0,0,4,,,,,,,,0,,,54,80
33360,note_on,0,0,1,,,,,,,,0,,,78,80
33456,note_on,0,0,4,,,,,,,,0,,,46,0
33456,note_on,0,0,1,,,,,,,,0,,,81,0
33456,note_on,0,0,1,,,,,,,,0,,,78,0
33456,note_on,0,0,4,,,,,,,,0,,,54,0
33456,note_on,96,0,1,,,,,,,,0,,,90,0
33456,note_on,0,0,4,,,,,,,,0,,,57,0
33456,note_on,96,0,4,,,,,,,,0,,,48,0
33456,note_on,0,0,4,,,,,,,,0,,,51,0
33540,note_on,0,0,4,,,,,,,,0,,,51,80
33540,note_on,0,0,4,,,,,,,,0,,,46,80
33540,note_on,84,0,4,,,,,,,,0,,,57,80
33540,note_on,0,0,4,,,,,,,,0,,,48,80
33540,note_on,0,0,4,,,,,,,,0,,,54,80
33540,note_on,0,0,1,,,,,,,,0,,,78,80
33540,note_on,0,0,1,,,,,,,,0,,,87,80
33540,note_on,84,0,1,,,,,,,,0,,,75,80
33588,note_on,0,0,4,,,,,,,,0,,,54,0
33588,note_on,0,0,4,,,,,,,,0,,,51,0
33588,note_on,0,0,1,,,,,,,,0,,,75,0
33588,note_on,0,0,1,,,,,,,,0,,,87,0
33588,note_on,0,0,4,,,,,,,,0,,,46,0
33588,note_on,0,0,4,,,,,,,,0,,,57,0
33588,note_on,48,0,4,,,,,,,,0,,,48,0
33588,note_on,48,0,1,,,,,,,,0,,,78,0
33600,note_on,12,0,1,,,,,,,,0,,,87,80
33600,note_on,0,0,4,,,,,,,,0,,,48,80
33600,note_on,0,0,4,,,,,,,,0,,,54,80
33600,note_on,0,0,4,,,,,,,,0,,,57,80
33600,note_on,0,0,4,,,,,,,,0,,,46,80
33600,note_on,0,0,1,,,,,,,,0,,,75,80
33600,note_on,12,0,4,,,,,,,,0,,,51,80
33600,control_change,0,0,4,,,,,,,,0,64,0,,
33600,note_on,0,0,1,,,,,,,,0,,,78,80
33696,note_on,0,0,1,,,,,,,,0,,,75,0
33696,note_on,96,0,4,,,,,,,,0,,,57,0
33696,note_on,0,0,4,,,,,,,,0,,,54,0
33696,note_on,96,0,1,,,,,,,,0,,,78,0
33696,note_on,0,0,4,,,,,,,,0,,,51,0
33696,note_on,0,0,1,,,,,,,,0,,,87,0
33696,note_on,0,0,4,,,,,,,,0,,,46,0
33696,note_on,0,0,4,,,,,,,,0,,,48,0
33780,note_on,0,0,1,,,,,,,,0,,,72,80
33780,note_on,0,0,4,,,,,,,,0,,,57,80
33780,note_on,0,0,4,,,,,,,,0,,,51,80
33780,note_on,84,0,4,,,,,,,,0,,,54,80
33780,note_on,0,0,4,,,,,,,,0,,,48,80
33780,note_on,0,0,1,,,,,,,,0,,,84,80
33780,note_on,0,0,4,,,,,,,,0,,,46,80
33780,note_on,84,0,1,,,,,,,,0,,,75,80
33828,note_on,0,0,1,,,,,,,,0,,,72,0
33828,note_on,0,0,1,,,,,,,,0,,,75,0
33828,note_on,48,0,4,,,,,,,,0,,,48,0
33828,note_on,0,0,4,,,,,,,,0,,,46,0
33828,note_on,0,0,4,,,,,,,,0,,,51,0
33828,note_on,48,0,1,,,,,,,,0,,,84,0
33828,note_on,0,0,4,,,,,,,,0,,,54,0
33828,note_on,0,0,4,,,,,,,,0,,,57,0
33840,note_on,12,0,4,,,,,,,,0,,,51,80
33840,note_on,0,0,1,,,,,,,,0,,,75,80
33840,note_on,0,0,1,,,,,,,,0,,,72,80
33840,note_on,0,0,4,,,,,,,,0,,,48,80
33840,note_on,0,0,4,,,,,,,,0,,,46,80
33840,note_on,12,0,1,,,,,,,,0,,,84,80
33840,note_on,0,0,4,,,,,,,,0,,,57,80
33840,note_on,0,0,4,,,,,,,,0,,,54,80
33936,note_on,0,0,1,,,,,,,,0,,,84,0
33936,note_on,0,0,4,,,,,,,,0,,,48,0
33936,note_on,96,0,1,,,,,,,,0,,,72,0
33936,note_on,0,0,4,,,,,,,,0,,,51,0
33936,note_on,0,0,1,,,,,,,,0,,,75,0
33936,note_on,96,0,4,,,,,,,,0,,,46,0
33936,note_on,0,0,4,,,,,,,,0,,,54,0
33936,note_on,0,0,4,,,,,,,,0,,,57,0
33960,control_change,24,0,4,,,,,,,,0,64,127,,
33960,time_signature,600,1,0,6,8,12,8,,,,,,,,
34080,note_on,0,0,4,,,,,,,,0,,,46,80
34080,note_on,144,0,1,,,,,,,,0,,,69,80
34080,note_on,0,0,4,,,,,,,,0,,,51,80
34080,note_on,0,0,1,,,,,,,,0,,,81,80
34080,note_on,120,0,4,,,,,,,,0,,,54,80
34080,note_on,0,0,4,,,,,,,,0,,,57,80
34080,note_on,0,0,4,,,,,,,,0,,,48,80
34128,note_on,0,0,4,,,,,,,,0,,,48,0
34128,note_on,0,0,4,,,,,,,,0,,,54,0
34128,note_on,48,0,4,,,,,,,,0,,,51,0
34128,note_on,48,0,1,,,,,,,,0,,,81,0
34128,note_on,0,0,1,,,,,,,,0,,,69,0
34128,note_on,0,0,4,,,,,,,,0,,,57,0
34128,note_on,0,0,4,,,,,,,,0,,,46,0
34140,note_on,0,0,4,,,,,,,,0,,,46,80
34140,note_on,0,0,4,,,,,,,,0,,,48,80
34140,note_on,12,0,1,,,,,,,,0,,,78,80
34140,note_on,0,0,4,,,,,,,,0,,,51,80
34140,note_on,0,0,1,,,,,,,,0,,,66,80
34140,note_on,12,0,4,,,,,,,,0,,,57,80
34140,note_on,0,0,4,,,,,,,,0,,,54,80
34188,note_on,0,0,4,,,,,,,,0,,,46,0
34188,note_on,0,0,4,,,,,,,,0,,,57,0
34188,note_on,0,0,4,,,,,,,,0,,,48,0
34188,note_on,0,0,4,,,,,,,,0,,,51,0
34188,note_on,0,0,1,,,,,,,,0,,,78,0
34188,note_on,48,0,1,,,,,,,,0,,,66,0
34188,note_on,48,0,4,,,,,,,,0,,,54,0
34200,note_on,0,0,4,,,,,,,,0,,,54,80
34200,note_on,12,0,4,,,,,,,,0,,,48,80
34200,note_on,0,0,4,,,,,,,,0,,,51,80
34200,note_on,0,0,4,,,,,,,,0,,,46,80
34200,note_on,12,0,1,,,,,,,,0,,,77,80
34200,note_on,0,0,1,,,,,,,,0,,,65,80
34200,note_on,0,0,4,,,,,,,,0,,,57,80
34248,note_on,0,0,4,,,,,,,,0,,,48,0
34248,note_on,0,0,1,,,,,,,,0,,,77,0
34248,note_on,0,0,4,,,,,,,,0,,,57,0
34248,note_on,48,0,4,,,,,,,,0,,,54,0
34248,note_on,48,0,1,,,,,,,,0,,,65,0
34248,note_on,0,0,4,,,,,,,,0,,,51,0
34248,note_on,0,0,4,,,,,,,,0,,,46,0
34260,note_on,12,0,1,,,,,,,,0,,,75,80
34260,note_on,0,0,4,,,,,,,,0,,,54,80
34260,note_on,12,0,4,,,,,,,,0,,,46,80
34260,note_on,0,0,4,,,,,,,,0,,,57,80
34260,note_on,0,0,4,,,,,,,,0,,,48,80
34260,note_on,0,0,1,,,,,,,,0,,,63,80
34260,note_on,0,0,4,,,,,,,,0,,,51,80
34308,note_on,48,0,1,,,,,,,,0,,,63,0
34308,note_on,0,0,4,,,,,,,,0,,,57,0
34308,note_on,0,0,4,,,,,,,,0,,,54,0
34308,note_on,0,0,4,,,,,,,,0,,,51,0
34308,note_on,48,0,4,,,,,,,,0,,,48,0
34308,note_on,0,0,1,,,,,,,,0,,,75,0
34308,note_on,0,0,4,,,,,,,,0,,,46,0
34320,note_on,12,0,4,,,,,,,,0,,,50,80
34320,note_on,0,0,4,,,,,,,,0,,,53,80
34320,note_on,0,0,1,,,,,,,,0,,,74,80
34320,note_on,0,0,1,,,,,,,,0,,,70,80
34320,note_on,0,0,4,,,,,,,,0,,,46,80
34320,note_on,12,0,1,,,,,,,,0,,,82,80
34320,note_on,0,0,4,,,,,,,,0,,,58,80
34325,control_change,5,0,4,,,,,,,,0,64,0,,
34416,note_on,91,0,4,,,,,,,,0,,,46,0
34416,note_on,0,0,4,,,,,,,,0,,,53,0
34416,note_on,0,0,4,,,,,,,,0,,,58,0
34416,note_on,0,0,4,,,,,,,,0,,,50,0
34416,note_on,96,0,1,,,,,,,,0,,,74,0
34416,note_on,0,0,1,,,,,,,,0,,,70,0
34416,note_on,0,0,1,,,,,,,,0,,,82,0
34440,control_change,0,0,4,,,,,,,,0,64,127,,
34440,note_on,0,0,4,,,,,,,,0,,,41,88
34440,note_on,24,0,4,,,,,,,,0,,,53,88
34470,note_on,0,0,3,,,,,,,,0,,,46,64
34470,note_on,1236,0,3,,,,,,,,0,,,34,64
34494,note_on,0,0,3,,,,,,,,0,,,34,0
34494,note_on,24,0,3,,,,,,,,0,,,46,0
34500,note_on,6,0,3,,,,,,,,0,,,48,64
34500,note_on,0,0,3,,,,,,,,0,,,36,64
34524,note_on,0,0,3,,,,,,,,0,,,48,0
34524,note_on,24,0,3,,,,,,,,0,,,36,0
34530,note_on,6,0,3,,,,,,,,0,,,38,64
34530,note_on,0,0,3,,,,,,,,0,,,50,64
34536,note_on,0,0,4,,,,,,,,0,,,53,0
34536,note_on,96,0,4,,,,,,,,0,,,41,0
34554,note_on,24,0,3,,,,,,,,0,,,50,0
34554,note_on,0,0,3,,,,,,,,0,,,38,0
34560,note_on,0,0,4,,,,,,,,0,,,39,88
34560,note_on,24,0,4,,,,,,,,0,,,51,88
34590,note_on,36,0,3,,,,,,,,0,,,41,64
34590,note_on,0,0,3,,,,,,,,0,,,53,64
34614,note_on,24,0,3,,,,,,,,0,,,53,0
34614,note_on,0,0,3,,,,,,,,0,,,41,0
34620,note_on,0,0,3,,,,,,,,0,,,46,64
34620,note_on,6,0,3,,,,,,,,0,,,34,64
34644,note_on,0,0,3,,,,,,,,0,,,34,0
34644,note_on,24,0,3,,,,,,,,0,,,46,0
34650,note_on,0,0,3,,,,,,,,0,,,48,64
34650,note_on,6,0,3,,,,,,,,0,,,36,64
34656,note_on,0,0,4,,,,,,,,0,,,51,0
34656,note_on,96,0,4,,,,,,,,0,,,39,0
34674,note_on,0,0,3,,,,,,,,0,,,36,0
34674,note_on,24,0,3,,,,,,,,0,,,48,0
34680,note_on,0,0,4,,,,,,,,0,,,38,88
34680,note_on,24,0,4,,,,,,,,0,,,50,88
34710,note_on,36,0,3,,,,,,,,0,,,39,64
34710,note_on,0,0,3,,,,,,,,0,,,51,64
34734,note_on,24,0,3,,,,,,,,0,,,51,0
34734,note_on,0,0,3,,,,,,,,0,,,39,0
34740,note_on,0,0,3,,,,,,,,0,,,41,64
34740,note_on,6,0,3,,,,,,,,0,,,53,64
34764,note_on,24,0,3,,,,,,,,0,,,41,0
34764,note_on,0,0,3,,,,,,,,0,,,53,0
34770,note_on,0,0,3,,,,,,,,0,,,46,64
34770,note_on,6,0,3,,,,,,,,0,,,34,64
34776,note_on,96,0,4,,,,,,,,0,,,38,0
34776,note_on,0,0,4,,,,,,,,0,,,50,0
34794,note_on,0,0,3,,,,,,,,0,,,34,0
34794,note_on,24,0,3,,,,,,,,0,,,46,0
34800,note_on,0,0,4,,,,,,,,0,,,36,88
34800,note_on,24,0,4,,,,,,,,0,,,48,88
34830,note_on,36,0,3,,,,,,,,0,,,38,64
34830,note_on,0,0,3,,,,,,,,0,,,50,64
34854,note_on,24,0,3,,,,,,,,0,,,50,0
34854,note_on,0,0,3,,,,,,,,0,,,38,0
34860,note_on,6,0,3,,,,,,,,0,,,39,64
34860,note_on,0,0,3,,,,,,,,0,,,51,64
34884,note_on,24,0,3,,,,,,,,0,,,51,0
34884,note_on,0,0,3,,,,,,,,0,,,39,0
34890,note_on,6,0,3,,,,,,,,0,,,53,64
34890,note_on,0,0,3,,,,,,,,0,,,41,64
34896,note_on,0,0,4,,,,,,,,0,,,48,0
34896,note_on,96,0,4,,,,,,,,0,,,36,0
34897,control_change,1,0,4,,,,,,,,0,64,0,,
34914,note_on,24,0,3,,,,,,,,0,,,41,0
34914,note_on,0,0,3,,,,,,,,0,,,53,0
34920,note_on,0,0,4,,,,,,,,0,,,34,88
34920,note_on,23,0,4,,,,,,,,0,,,46,88
35016,note_on,96,0,4,,,,,,,,0,,,34,0
35016,note_on,0,0,4,,,,,,,,0,,,46,0
35029,control_change,13,0,4,,,,,,,,0,64,127,,
35040,note_on,624,0,1,,,,,,,,0,,,99,80
35040,note_on,0,0,4,,,,,,,,0,,,46,80
35040,note_on,0,0,4,,,,,,,,0,,,57,80
35040,note_on,0,0,1,,,,,,,,0,,,90,80
35040,note_on,11,0,4,,,,,,,,0,,,54,80
35040,note_on,0,0,1,,,,,,,,0,,,87,80
35040,note_on,0,0,4,,,,,,,,0,,,51,80
35040,note_on,0,0,4,,,,,,,,0,,,48,80
35041,set_tempo,1081,1,0,,,,,,443459,,,,,,
35136,note_on,0,0,4,,,,,,,,0,,,48,0
35136,note_on,0,0,4,,,,,,,,0,,,51,0
35136,note_on,0,0,4,,,,,,,,0,,,54,0
35136,note_on,0,0,4,,,,,,,,0,,,57,0
35136,note_on,0,0,1,,,,,,,,0,,,99,0
35136,note_on,96,0,4,,,,,,,,0,,,46,0
35136,note_on,96,0,1,,,,,,,,0,,,87,0
35136,note_on,0,0,1,,,,,,,,0,,,90,0
35220,note_on,0,0,4,,,,,,,,0,,,51,80
35220,note_on,0,0,4,,,,,,,,0,,,54,80
35220,note_on,0,0,4,,,,,,,,0,,,57,80
35220,note_on,0,0,1,,,,,,,,0,,,87,80
35220,note_on,0,0,1,,,,,,,,0,,,96,80
35220,note_on,84,0,1,,,,,,,,0,,,84,80
35220,note_on,84,0,4,,,,,,,,0,,,46,80
35220,note_on,0,0,4,,,,,,,,0,,,48,80
35268,note_on,48,0,1,,,,,,,,0,,,87,0
35268,note_on,0,0,4,,,,,,,,0,,,46,0
35268,note_on,0,0,4,,,,,,,,0,,,48,0
35268,note_on,0,0,4,,,,,,,,0,,,57,0
35268,note_on,0,0,4,,,,,,,,0,,,51,0
35268,note_on,48,0,4,,,,,,,,0,,,54,0
35268,note_on,0,0,1,,,,,,,,0,,,96,0
35268,note_on,0,0,1,,,,,,,,0,,,84,0
35280,note_on,0,0,1,,,,,,,,0,,,96,80
35280,note_on,12,0,1,,,,,,,,0,,,84,80
35280,note_on,12,0,4,,,,,,,,0,,,51,80
35280,note_on,0,0,1,,,,,,,,0,,,87,80
35280,note_on,0,0,4,,,,,,,,0,,,46,80
35280,note_on,0,0,4,,,,,,,,0,,,48,80
35280,note_on,0,0,4,,,,,,,,0,,,54,80
35280,note_on,0,0,4,,,,,,,,0,,,57,80
35282,control_change,2,0,4,,,,,,,,0,64,0,,
35376,note_on,0,0,1,,,,,,,,0,,,84,0
35376,note_on,0,0,4,,,,,,,,0,,,57,0
35376,note_on,94,0,4,,,,,,,,0,,,48,0
35376,note_on,0,0,4,,,,,,,,0,,,54,0
35376,note_on,0,0,1,,,,,,,,0,,,87,0
35376,note_on,96,0,1,,,,,,,,0,,,96,0
35376,note_on,0,0,4,,,,,,,,0,,,46,0
35376,note_on,0,0,4,,,,,,,,0,,,51,0
35400,time_signature,359,1,0,5,8,12,8,,,,,,,,
35400,control_change,24,0,4,,,,,,,,0,64,127,,
35460,note_on,0,0,4,,,,,,,,0,,,57,80
35460,note_on,0,0,4,,,,,,,,0,,,46,80
35460,note_on,60,0,4,,,,,,,,0,,,54,80
35460,note_on,0,0,4,,,,,,,,0,,,48,80
35460,note_on,0,0,1,,,,,,,,0,,,93,80
35460,note_on,0,0,4,,,,,,,,0,,,51,80
35460,note_on,0,0,1,,,,,,,,0,,,81,80
35460,note_on,84,0,1,,,,,,,,0,,,84,80
35508,note_on,0,0,1,,,,,,,,0,,,84,0
35508,note_on,0,0,1,,,,,,,,0,,,93,0
35508,note_on,48,0,1,,,,,,,,0,,,81,0
35508,note_on,0,0,4,,,,,,,,0,,,51,0
35508,note_on,48,0,4,,,,,,,,0,,,57,0
35508,note_on,0,0,4,,,,,,,,0,,,46,0
35508,note_on,0,0,4,,,,,,,,0,,,48,0
35508,note_on,0,0,4,,,,,,,,0,,,54,0
35520,note_on,12,0,4,,,,,,,,0,,,57,80
35520,note_on,0,0,4,,,,,,,,0,,,54,80
35520,note_on,0,0,4,,,,,,,,0,,,48,80
35520,note_on,0,0,4,,,,,,,,0,,,46,80
35520,note_on,12,0,1,,,,,,,,0,,,81,80
35520,note_on,0,0,4,,,,,,,,0,,,51,80
35520,note_on,0,0,1,,,,,,,,0,,,84,80
35520,note_on,0,0,1,,,,,,,,0,,,93,80
35616,note_on,96,0,4,,,,,,,,0,,,48,0
35616,note_on,0,0,1,,,,,,,,0,,,84,0
35616,note_on,96,0,1,,,,,,,,0,,,93,0
35616,note_on,0,0,4,,,,,,,,0,,,46,0
35616,note_on,0,0,4,,,,,,,,0,,,51,0
35616,note_on,0,0,1,,,,,,,,0,,,81,0
35616,note_on,0,0,4,,,,,,,,0,,,57,0
35616,note_on,0,0,4,,,,,,,,0,,,54,0
35617,control_change,1,0,4,,,,,,,,0,64,0,,
35752,control_change,135,0,4,,,,,,,,0,64,127,,
35760,note_on,0,0,4,,,,,,,,0,,,46,80
35760,note_on,0,0,4,,,,,,,,0,,,57,80
35760,note_on,144,0,1,,,,,,,,0,,,90,80
35760,note_on,0,0,4,,,,,,,,0,,,51,80
35760,note_on,0,0,4,,,,,,,,0,,,48,80
35760,note_on,8,0,4,,,,,,,,0,,,54,80
35760,note_on,0,0,1,,,,,,,,0,,,78,80
35808,note_on,48,0,1,,,,,,,,0,,,78,0
35808,note_on,0,0,4,,,,,,,,0,,,51,0
35808,note_on,0,0,4,,,,,,,,0,,,54,0
35808,note_on,0,0,4,,,,,,,,0,,,57,0
35808,note_on,0,0,4,,,,,,,,0,,,48,0
35808,note_on,0,0,1,,,,,,,,0,,,90,0
35808,note_on,48,0,4,,,,,,,,0,,,46,0
35820,note_on,0,0,4,,,,,,,,0,,,57,80
35820,note_on,0,0,4,,,,,,,,0,,,51,80
35820,note_on,0,0,4,,,,,,,,0,,,48,80
35820,note_on,0,0,4,,,,,,,,0,,,46,80
35820,note_on,12,0,4,,,,,,,,0,,,54,80
35820,note_on,12,0,1,,,,,,,,0,,,77,80
35820,note_on,0,0,1,,,,,,,,0,,,89,80
35868,note_on,48,0,4,,,,,,,,0,,,57,0
35868,note_on,0,0,1,,,,,,,,0,,,77,0
35868,note_on,0,0,4,,,,,,,,0,,,51,0
35868,note_on,48,0,1,,,,,,,,0,,,89,0
35868,note_on,0,0,4,,,,,,,,0,,,46,0
35868,note_on,0,0,4,,,,,,,,0,,,54,0
35868,note_on,0,0,4,,,,,,,,0,,,48,0
35880,note_on,0,0,1,,,,,,,,0,,,88,80
35880,note_on,0,0,4,,,,,,,,0,,,57,80
35880,note_on,0,0,4,,,,,,,,0,,,48,80
35880,note_on,0,0,4,,,,,,,,0,,,51,80
35880,note_on,12,0,4,,,,,,,,0,,,54,80
35880,note_on,12,0,1,,,,,,,,0,,,76,80
35880,note_on,0,0,4,,,,,,,,0,,,46,80
35928,note_on,48,0,1,,,,,,,,0,,,88,0
35928,note_on,0,0,4,,,,,,,,0,,,46,0
35928,note_on,0,0,4,,,,,,,,0,,,51,0
35928,note_on,0,0,4,,,,,,,,0,,,54,0
35928,note_on,0,0,4,,,,,,,,0,,,57,0
35928,note_on,48,0,4,,,,,,,,0,,,48,0
35928,note_on,0,0,1,,,,,,,,0,,,76,0
35940,note_on,0,0,4,,,,,,,,0,,,46,80
35940,note_on,0,0,4,,,,,,,,0,,,48,80
35940,note_on,0,0,4,,,,,,,,0,,,54,80
35940,note_on,0,0,4,,,,,,,,0,,,57,80
35940,note_on,12,0,1,,,,,,,,0,,,87,80
35940,note_on,0,0,1,,,,,,,,0,,,75,80
35940,note_on,12,0,4,,,,,,,,0,,,51,80
35988,note_on,0,0,4,,,,,,,,0,,,54,0
35988,note_on,0,0,1,,,,,,,,0,,,87,0
35988,note_on,0,0,4,,,,,,,,0,,,57,0
35988,note_on,0,0,4,,,,,,,,0,,,51,0
35988,set_tempo,588,1,0,,,,,,443459,,,,,,
35988,note_on,0,0,4,,,,,,,,0,,,48,0
35988,note_on,48,0,1,,,,,,,,0,,,75,0
35988,note_on,48,0,4,,,,,,,,0,,,46,0
36000,time_signature,12,1,0,6,8,12,8,,,,,,,,
36000,control_change,12,0,4,,,,,,,,0,64,0,,
36000,note_on,0,0,4,,,,,,,,0,,,46,80
36000,note_on,0,0,4,,,,,,,,0,,,50,80
36000,note_on,12,0,1,,,,,,,,0,,,86,80
36000,note_on,0,0,1,,,,,,,,0,,,94,80
36000,note_on,0,0,4,,,,,,,,0,,,53,80
36000,note_on,0,0,4,,,,,,,,0,,,58,80
36000,note_on,0,0,1,,,,,,,,0,,,82,80
36001,set_tempo,1,1,0,,,,,,450857,,,,,,
36036,set_tempo,35,1,0,,,,,,448363,,,,,,
36046,control_change,46,0,4,,,,,,,,0,64,127,,
36071,set_tempo,35,1,0,,,,,,445898,,,,,,
36096,note_on,0,0,4,,,,,,,,0,,,53,0
36096,note_on,0,0,4,,,,,,,,0,,,58,0
36096,note_on,0,0,4,,,,,,,,0,,,50,0
36096,note_on,96,0,1,,,,,,,,0,,,94,0
36096,note_on,50,0,4,,,,,,,,0,,,46,0
36096,note_on,0,0,1,,,,,,,,0,,,86,0
36096,note_on,0,0,1,,,,,,,,0,,,82,0
36101,set_tempo,30,1,0,,,,,,443459,,,,,,
36120,note_on,1206,0,3,,,,,,,,0,,,65,80
36136,set_tempo,35,1,0,,,,,,441047,,,,,,
36168,note_on,48,0,3,,,,,,,,0,,,65,0
36171,set_tempo,35,1,0,,,,,,438661,,,,,,
36180,note_on,0,0,2,,,,,,,,0,,,70,80
36180,note_on,5604,0,2,,,,,,,,0,,,68,80
36201,set_tempo,30,1,0,,,,,,436300,,,,,,
36228,note_on,0,0,2,,,,,,,,0,,,68,0
36228,note_on,48,0,2,,,,,,,,0,,,70,0
36236,set_tempo,35,1,0,,,,,,433965,,,,,,
36240,note_on,72,0,3,,,,,,,,0,,,63,80
36271,set_tempo,35,1,0,,,,,,431655,,,,,,
36288,note_on,48,0,3,,,,,,,,0,,,63,0
36300,note_on,72,0,2,,,,,,,,0,,,68,80
36300,note_on,0,0,2,,,,,,,,0,,,70,80
36302,set_tempo,31,1,0,,,,,,429369,,,,,,
36337,set_tempo,35,1,0,,,,,,427107,,,,,,
36348,note_on,48,0,2,,,,,,,,0,,,70,0
36348,note_on,0,0,2,,,,,,,,0,,,68,0
36360,note_on,72,0,3,,,,,,,,0,,,62,80
36372,set_tempo,35,1,0,,,,,,424869,,,,,,
36402,set_tempo,30,1,0,,,,,,422654,,,,,,
36408,note_on,48,0,3,,,,,,,,0,,,62,0
36420,note_on,72,0,2,,,,,,,,0,,,68,80
36420,note_on,0,0,2,,,,,,,,0,,,70,80
36437,set_tempo,35,1,0,,,,,,420463,,,,,,
36468,note_on,48,0,2,,,,,,,,0,,,70,0
36468,note_on,0,0,2,,,,,,,,0,,,68,0
36472,set_tempo,35,1,0,,,,,,418293,,,,,,
36480,note_on,72,0,3,,,,,,,,0,,,60,80
36503,set_tempo,31,1,0,,,,,,416146,,,,,,
36528,note_on,48,0,3,,,,,,,,0,,,60,0
36537,set_tempo,34,1,0,,,,,,414022,,,,,,
36540,note_on,72,0,2,,,,,,,,0,,,70,80
36540,note_on,0,0,2,,,,,,,,0,,,68,80
36572,set_tempo,35,1,0,,,,,,411918,,,,,,
36588,note_on,48,0,2,,,,,,,,0,,,68,0
36588,note_on,0,0,2,,,,,,,,0,,,70,0
36600,note_on,72,0,3,,,,,,,,0,,,58,80
36603,set_tempo,31,1,0,,,,,,409836,,,,,,
36638,set_tempo,35,1,0,,,,,,407775,,,,,,
36648,note_on,48,0,3,,,,,,,,0,,,58,0
36660,note_on,72,0,2,,,,,,,,0,,,70,80
36660,note_on,0,0,2,,,,,,,,0,,,68,80
36673,set_tempo,35,1,0,,,,,,405734,,,,,,
36702,control_change,606,0,4,,,,,,,,0,64,0,,
36703,set_tempo,30,1,0,,,,,,403714,,,,,,
36708,note_on,48,0,2,,,,,,,,0,,,68,0
36708,note_on,0,0,2,,,,,,,,0,,,70,0
36712,set_tempo,9,1,0,,,,,,367152,,,,,,
36720,note_on,624,0,1,,,,,,,,0,,,59,80
36720,note_on,18,0,4,,,,,,,,0,,,56,80
36720,note_on,0,0,4,,,,,,,,0,,,44,80
36720,note_on,0,0,4,,,,,,,,0,,,52,80
36720,note_on,0,0,1,,,,,,,,0,,,71,80
36721,set_tempo,9,1,0,,,,,,401714,,,,,,
36725,set_tempo,4,1,0,,,,,,403714,,,,,,
36727,control_change,7,0,4,,,,,,,,0,64,127,,
36768,note_on,48,0,1,,,,,,,,0,,,71,0
36768,note_on,0,0,1,,,,,,,,0,,,59,0
36780,note_on,12,0,1,,,,,,,,0,,,64,80
36816,note_on,89,0,4,,,,,,,,0,,,44,0
36816,note_on,0,0,4,,,,,,,,0,,,52,0
36816,note_on,0,0,4,,,,,,,,0,,,56,0
36828,note_on,48,0,1,,,,,,,,0,,,64,0
36840,note_on,24,0,4,,,,,,,,0,,,42,80
36840,note_on,12,0,1,,,,,,,,0,,,68,80
36840,note_on,0,0,4,,,,,,,,0,,,54,80
36888,note_on,48,0,1,,,,,,,,0,,,68,0
36900,note_on,12,0,1,,,,,,,,0,,,71,80
36936,note_on,0,0,4,,,,,,,,0,,,42,0
36936,note_on,96,0,4,,,,,,,,0,,,54,0
36948,note_on,48,0,1,,,,,,,,0,,,71,0
36960,note_on,12,0,1,,,,,,,,0,,,76,80
36960,note_on,24,0,4,,,,,,,,0,,,52,80
36960,note_on,0,0,4,,,,,,,,0,,,40,80
37008,note_on,48,0,1,,,,,,,,0,,,76,0
37020,note_on,12,0,1,,,,,,,,0,,,80,80
37056,note_on,96,0,4,,,,,,,,0,,,40,0
37056,note_on,0,0,4,,,,,,,,0,,,52,0
37068,note_on,48,0,1,,,,,,,,0,,,80,0
37080,note_on,24,0,4,,,,,,,,0,,,37,80
37080,note_on,0,0,4,,,,,,,,0,,,49,80
37080,note_on,12,0,1,,,,,,,,0,,,83,80
37083,set_tempo,358,1,0,,,,,,405734,,,,,,
37128,note_on,48,0,1,,,,,,,,0,,,83,0
37140,note_on,12,0,1,,,,,,,,0,,,88,80
37176,note_on,0,0,4,,,,,,,,0,,,37,0
37176,note_on,96,0,4,,,,,,,,0,,,49,0
37188,note_on,48,0,1,,,,,,,,0,,,88,0
37200,note_on,24,0,4,,,,,,,,0,,,47,80
37200,note_on,0,0,4,,,,,,,,0,,,35,80
37200,note_on,12,0,1,,,,,,,,0,,,92,80
37248,note_on,48,0,1,,,,,,,,0,,,92,0
37260,note_on,12,0,1,,,,,,,,0,,,94,80
37296,note_on,0,0,4,,,,,,,,0,,,47,0
37296,note_on,96,0,4,,,,,,,,0,,,35,0
37308,note_on,48,0,1,,,,,,,,0,,,94,0
37320,note_on,0,0,4,,,,,,,,0,,,32,80
37320,note_on,12,0,1,,,,,,,,0,,,88,80
37320,note_on,0,0,1,,,,,,,,0,,,83,80
37320,note_on,0,0,1,,,,,,,,0,,,95,80
37320,note_on,24,0,4,,,,,,,,0,,,44,80
37416,note_on,96,0,1,,,,,,,,0,,,95,0
37416,note_on,0,0,4,,,,,,,,0,,,44,0
37416,note_on,0,0,1,,,,,,,,0,,,83,0
37416,note_on,0,0,1,,,,,,,,0,,,88,0
37416,note_on,96,0,4,,,,,,,,0,,,32,0
37440,note_on,0,0,4,,,,,,,,0,,,46,80
37440,note_on,0,0,1,,,,,,,,0,,,86,80
37440,note_on,24,0,1,,,,,,,,0,,,89,80
37440,note_on,24,0,4,,,,,,,,0,,,41,80
37440,note_on,0,0,1,,,,,,,,0,,,98,80
37440,note_on,0,0,4,,,,,,,,0,,,34,80
37440,control_change,0,0,4,,,,,,,,0,64,0,,
37463,set_tempo,380,1,0,,,,,,403714,,,,,,
37475,control_change,35,0,4,,,,,,,,0,64,127,,
37493,set_tempo,30,1,0,,,,,,401714,,,,,,
37524,set_tempo,31,1,0,,,,,,399734,,,,,,
37536,note_on,0,0,4,,,,,,,,0,,,46,0
37536,note_on,0,0,4,,,,,,,,0,,,41,0
37536,note_on,96,0,1,,,,,,,,0,,,98,0
37536,note_on,0,0,1,,,,,,,,0,,,89,0
37536,note_on,0,0,1,,,,,,,,0,,,86,0
37536,note_on,61,0,4,,,,,,,,0,,,34,0
37554,set_tempo,30,1,0,,,,,,397772,,,,,,
37560,note_on,912,0,3,,,,,,,,0,,,65,80
37585,set_tempo,31,1,0,,,,,,395831,,,,,,
37608,note_on,48,0,3,,,,,,,,0,,,65,0
37615,set_tempo,30,1,0,,,,,,393908,,,,,,
37620,note_on,912,0,2,,,,,,,,0,,,70,80
37620,note_on,0,0,2,,,,,,,,0,,,68,80
37646,set_tempo,31,1,0,,,,,,392003,,,,,,
37668,note_on,48,0,2,,,,,,,,0,,,68,0
37668,note_on,0,0,2,,,,,,,,0,,,70,0
37672,set_tempo,26,1,0,,,,,,390117,,,,,,
37680,note_on,72,0,3,,,,,,,,0,,,63,80
37703,set_tempo,31,1,0,,,,,,388249,,,,,,
37728,note_on,48,0,3,,,,,,,,0,,,63,0
37733,set_tempo,30,1,0,,,,,,386399,,,,,,
37740,note_on,72,0,2,,,,,,,,0,,,70,80
37740,note_on,0,0,2,,,,,,,,0,,,68,80
37764,set_tempo,31,1,0,,,,,,384566,,,,,,
37788,note_on,48,0,2,,,,,,,,0,,,68,0
37788,note_on,0,0,2,,,,,,,,0,,,70,0
37794,set_tempo,30,1,0,,,,,,382751,,,,,,
37800,note_on,72,0,3,,,,,,,,0,,,62,80
37825,set_tempo,31,1,0,,,,,,380952,,,,,,
37848,note_on,48,0,3,,,,,,,,0,,,62,0
37855,set_tempo,30,1,0,,,,,,379171,,,,,,
37860,note_on,72,0,2,,,,,,,,0,,,70,80
37860,note_on,0,0,2,,,,,,,,0,,,68,80
37886,set_tempo,31,1,0,,,,,,377406,,,,,,
37908,note_on,48,0,2,,,,,,,,0,,,68,0
37908,note_on,0,0,2,,,,,,,,0,,,70,0
37912,set_tempo,26,1,0,,,,,,375657,,,,,,
37920,note_on,72,0,3,,,,,,,,0,,,60,80
37943,set_tempo,31,1,0,,,,,,373925,,,,,,
37968,note_on,48,0,3,,,,,,,,0,,,60,0
37973,set_tempo,30,1,0,,,,,,372208,,,,,,
37980,note_on,72,0,2,,,,,,,,0,,,70,80
37980,note_on,0,0,2,,,,,,,,0,,,68,80
38004,set_tempo,31,1,0,,,,,,370508,,,,,,
38028,note_on,48,0,2,,,,,,,,0,,,68,0
38028,note_on,0,0,2,,,,,,,,0,,,70,0
38034,set_tempo,30,1,0,,,,,,368822,,,,,,
38040,note_on,72,0,3,,,,,,,,0,,,58,80
38065,set_tempo,31,1,0,,,,,,367152,,,,,,
38088,note_on,48,0,3,,,,,,,,0,,,58,0
38095,set_tempo,30,1,0,,,,,,365497,,,,,,
38100,note_on,0,0,2,,,,,,,,0,,,68,80
38100,note_on,72,0,2,,,,,,,,0,,,70,80
38126,set_tempo,31,1,0,,,,,,363857,,,,,,
38148,note_on,0,0,2,,,,,,,,0,,,70,0
38148,note_on,48,0,2,,,,,,,,0,,,68,0
38152,set_tempo,26,1,0,,,,,,401714,,,,,,
38156,set_tempo,4,1,0,,,,,,368822,,,,,,
38160,note_on,0,0,4,,,,,,,,0,,,44,80
38160,control_change,0,0,4,,,,,,,,0,64,0,,
38160,note_on,0,0,1,,,,,,,,0,,,59,80
38160,note_on,624,0,1,,,,,,,,0,,,71,80
38160,note_on,624,0,4,,,,,,,,0,,,52,80
38160,note_on,0,0,4,,,,,,,,0,,,56,80
38199,control_change,39,0,4,,,,,,,,0,64,127,,
38208,note_on,48,0,1,,,,,,,,0,,,59,0
38208,note_on,0,0,1,,,,,,,,0,,,71,0
38220,note_on,12,0,1,,,,,,,,0,,,64,80
38256,note_on,57,0,4,,,,,,,,0,,,56,0
38256,note_on,0,0,4,,,,,,,,0,,,44,0
38256,note_on,0,0,4,,,,,,,,0,,,52,0
38268,note_on,48,0,1,,,,,,,,0,,,64,0
38280,note_on,0,0,4,,,,,,,,0,,,54,80
38280,note_on,12,0,1,,,,,,,,0,,,68,80
38280,note_on,24,0,4,,,,,,,,0,,,42,80
38328,note_on,48,0,1,,,,,,,,0,,,68,0
38340,note_on,12,0,1,,,,,,,,0,,,71,80
38376,note_on,0,0,4,,,,,,,,0,,,42,0
38376,note_on,96,0,4,,,,,,,,0,,,54,0
38388,note_on,48,0,1,,,,,,,,0,,,71,0
38400,note_on,0,0,4,,,,,,,,0,,,52,80
38400,note_on,12,0,1,,,,,,,,0,,,76,80
38400,note_on,24,0,4,,,,,,,,0,,,40,80
38448,note_on,48,0,1,,,,,,,,0,,,76,0
38460,note_on,12,0,1,,,,,,,,0,,,80,80
38496,note_on,96,0,4,,,,,,,,0,,,52,0
38496,note_on,0,0,4,,,,,,,,0,,,40,0
38508,note_on,48,0,1,,,,,,,,0,,,80,0
38520,note_on,12,0,1,,,,,,,,0,,,83,80
38520,note_on,0,0,4,,,,,,,,0,,,49,80
38520,note_on,24,0,4,,,,,,,,0,,,37,80
38568,note_on,48,0,1,,,,,,,,0,,,83,0
38580,note_on,12,0,1,,,,,,,,0,,,88,80
38616,note_on,0,0,4,,,,,,,,0,,,37,0
38616,note_on,96,0,4,,,,,,,,0,,,49,0
38628,note_on,48,0,1,,,,,,,,0,,,88,0
38640,note_on,0,0,4,,,,,,,,0,,,47,80
38640,note_on,12,0,1,,,,,,,,0,,,92,80
38640,note_on,24,0,4,,,,,,,,0,,,35,80
38688,note_on,48,0,1,,,,,,,,0,,,92,0
38700,note_on,12,0,1,,,,,,,,0,,,94,80
38736,note_on,0,0,4,,,,,,,,0,,,35,0
38736,note_on,96,0,4,,,,,,,,0,,,47,0
38748,note_on,48,0,1,,,,,,,,0,,,94,0
38760,note_on,12,0,1,,,,,,,,0,,,95,80
38760,note_on,0,0,1,,,,,,,,0,,,83,80
38760,note_on,0,0,1,,,,,,,,0,,,88,80
38760,note_on,24,0,4,,,,,,,,0,,,44,80
38760,note_on,0,0,4,,,,,,,,0,,,32,80
38856,note_on,0,0,1,,,,,,,,0,,,95,0
38856,note_on,0,0,4,,,,,,,,0,,,44,0
38856,note_on,96,0,4,,,,,,,,0,,,32,0
38856,note_on,96,0,1,,,,,,,,0,,,83,0
38856,note_on,0,0,1,,,,,,,,0,,,88,0
38868,set_tempo,712,1,0,,,,,,367152,,,,,,
38876,set_tempo,8,1,0,,,,,,405734,,,,,,
38880,note_on,0,0,4,,,,,,,,0,,,34,80
38880,note_on,24,0,1,,,,,,,,0,,,86,80
38880,note_on,0,0,4,,,,,,,,0,,,46,80
38880,note_on,0,0,1,,,,,,,,0,,,98,80
38880,note_on,0,0,1,,,,,,,,0,,,89,80
38880,control_change,24,0,4,,,,,,,,0,64,0,,
38903,control_change,23,0,4,,,,,,,,0,64,127,,
38976,note_on,0,0,1,,,,,,,,0,,,86,0
38976,note_on,0,0,1,,,,,,,,0,,,98,0
38976,note_on,96,0,1,,,,,,,,0,,,89,0
38976,note_on,73,0,4,,,,,,,,0,,,34,0
38976,note_on,0,0,4,,,,,,,,0,,,46,0
39060,note_on,0,0,2,,,,,,,,0,,,62,80
39060,note_on,912,0,2,,,,,,,,0,,,68,80
39060,note_on,84,0,1,,,,,,,,0,,,70,80
39060,note_on,0,0,1,,,,,,,,0,,,82,80
39060,note_on,0,0,1,,,,,,,,0,,,74,80
39060,note_on,0,0,2,,,,,,,,0,,,65,80
39108,note_on,0,0,1,,,,,,,,0,,,70,0
39108,note_on,48,0,2,,,,,,,,0,,,62,0
39108,note_on,0,0,1,,,,,,,,0,,,74,0
39108,note_on,48,0,1,,,,,,,,0,,,82,0
39108,note_on,0,0,2,,,,,,,,0,,,65,0
39108,note_on,0,0,2,,,,,,,,0,,,68,0
39120,note_on,0,0,1,,,,,,,,0,,,82,80
39120,note_on,0,0,1,,,,,,,,0,,,70,80
39120,note_on,12,0,2,,,,,,,,0,,,65,80
39120,note_on,12,0,1,,,,,,,,0,,,74,80
39120,note_on,0,0,2,,,,,,,,0,,,68,80
39120,note_on,0,0,2,,,,,,,,0,,,62,80
39147,control_change,171,0,4,,,,,,,,0,64,0,,
39216,note_on,0,0,2,,,,,,,,0,,,68,0
39216,note_on,0,0,1,,,,,,,,0,,,82,0
39216,note_on,96,0,2,,,,,,,,0,,,62,0
39216,note_on,96,0,1,,,,,,,,0,,,70,0
39216,note_on,0,0,2,,,,,,,,0,,,65,0
39216,note_on,0,0,1,,,,,,,,0,,,74,0
39240,note_on,24,0,1,,,,,,,,0,,,99,80
39240,note_on,0,0,4,,,,,,,,0,,,54,80
39240,note_on,0,0,1,,,,,,,,0,,,87,80
39240,note_on,0,0,4,,,,,,,,0,,,59,80
39240,note_on,0,0,1,,,,,,,,0,,,90,80
39240,control_change,0,0,4,,,,,,,,0,64,127,,
39240,note_on,93,0,4,,,,,,,,0,,,46,80
39240,note_on,0,0,4,,,,,,,,0,,,51,80
39336,note_on,0,0,1,,,,,,,,0,,,87,0
39336,note_on,96,0,1,,,,,,,,0,,,90,0
39336,note_on,96,0,4,,,,,,,,0,,,59,0
39336,note_on,0,0,1,,,,,,,,0,,,99,0
39336,note_on,0,0,4,,,,,,,,0,,,46,0
39336,note_on,0,0,4,,,,,,,,0,,,51,0
39336,note_on,0,0,4,,,,,,,,0,,,54,0
39420,note_on,0,0,2,,,,,,,,0,,,63,80
39420,note_on,0,0,2,,,,,,,,0,,,66,80
39420,note_on,0,0,1,,,,,,,,0,,,83,80
39420,note_on,0,0,1,,,,,,,,0,,,75,80
39420,note_on,204,0,2,,,,,,,,0,,,69,80
39420,note_on,84,0,1,,,,,,,,0,,,71,80
39468,note_on,0,0,2,,,,,,,,0,,,69,0
39468,note_on,48,0,1,,,,,,,,0,,,83,0
39468,note_on,0,0,1,,,,,,,,0,,,75,0
39468,note_on,0,0,1,,,,,,,,0,,,71,0
39468,note_on,0,0,2,,,,,,,,0,,,66,0
39468,note_on,48,0,2,,,,,,,,0,,,63,0
39480,note_on,0,0,2,,,,,,,,0,,,69,80
39480,note_on,0,0,1,,,,,,,,0,,,75,80
39480,note_on,0,0,1,,,,,,,,0,,,71,80
39480,note_on,0,0,2,,,,,,,,0,,,63,80
39480,note_on,12,0,1,,,,,,,,0,,,83,80
39480,note_on,12,0,2,,,,,,,,0,,,66,80
39554,control_change,218,0,4,,,,,,,,0,64,0,,
39576,note_on,0,0,2,,,,,,,,0,,,66,0
39576,note_on,0,0,1,,,,,,,,0,,,83,0
39576,note_on,96,0,2,,,,,,,,0,,,63,0
39576,note_on,0,0,1,,,,,,,,0,,,71,0
39576,note_on,0,0,2,,,,,,,,0,,,69,0
39576,note_on,96,0,1,,,,,,,,0,,,75,0
39600,note_on,24,0,1,,,,,,,,0,,,100,80
39600,note_on,46,0,4,,,,,,,,0,,,60,80
39600,note_on,0,0,1,,,,,,,,0,,,88,80
39600,note_on,0,0,1,,,,,,,,0,,,91,80
39600,note_on,0,0,4,,,,,,,,0,,,46,80
39600,note_on,0,0,4,,,,,,,,0,,,52,80
39600,note_on,0,0,4,,,,,,,,0,,,55,80
39604,control_change,4,0,4,,,,,,,,0,64,127,,
39696,note_on,0,0,1,,,,,,,,0,,,100,0
39696,note_on,96,0,1,,,,,,,,0,,,88,0
39696,note_on,0,0,4,,,,,,,,0,,,46,0
39696,note_on,0,0,4,,,,,,,,0,,,60,0
39696,note_on,92,0,4,,,,,,,,0,,,52,0
39696,note_on,0,0,1,,,,,,,,0,,,91,0
39696,note_on,0,0,4,,,,,,,,0,,,55,0
39780,note_on,0,0,2,,,,,,,,0,,,64,80
39780,note_on,0,0,2,,,,,,,,0,,,72,80
39780,note_on,0,0,2,,,,,,,,0,,,76,80
39780,note_on,0,0,2,,,,,,,,0,,,84,80
39780,note_on,0,0,2,,,,,,,,0,,,70,80
39780,note_on,204,0,2,,,,,,,,0,,,67,80
39828,note_on,0,0,2,,,,,,,,0,,,84,0
39828,note_on,0,0,2,,,,,,,,0,,,72,0
39828,note_on,48,0,2,,,,,,,,0,,,64,0
39828,note_on,0,0,2,,,,,,,,0,,,70,0
39828,note_on,0,0,2,,,,,,,,0,,,67,0
39828,note_on,0,0,2,,,,,,,,0,,,76,0
39840,note_on,0,0,2,,,,,,,,0,,,64,80
39840,note_on,0,0,2,,,,,,,,0,,,76,80
39840,note_on,0,0,2,,,,,,,,0,,,84,80
39840,note_on,0,0,2,,,,,,,,0,,,67,80
39840,note_on,12,0,2,,,,,,,,0,,,70,80
39840,note_on,0,0,2,,,,,,,,0,,,72,80
39871,control_change,175,0,4,,,,,,,,0,64,0,,
39936,note_on,0,0,2,,,,,,,,0,,,84,0
39936,note_on,0,0,2,,,,,,,,0,,,76,0
39936,note_on,96,0,2,,,,,,,,0,,,64,0
39936,note_on,0,0,2,,,,,,,,0,,,70,0
39936,note_on,0,0,2,,,,,,,,0,,,67,0
39936,note_on,0,0,2,,,,,,,,0,,,72,0
39954,control_change,83,0,4,,,,,,,,0,64,127,,
39960,note_on,0,0,1,,,,,,,,0,,,101,80
39960,note_on,6,0,4,,,,,,,,0,,,46,80
39960,note_on,0,0,4,,,,,,,,0,,,61,80
39960,note_on,264,0,1,,,,,,,,0,,,89,80
39960,note_on,0,0,4,,,,,,,,0,,,53,80
39960,note_on,0,0,4,,,,,,,,0,,,56,80
39960,note_on,0,0,1,,,,,,,,0,,,92,80
40056,note_on,0,0,4,,,,,,,,0,,,46,0
40056,note_on,0,0,4,,,,,,,,0,,,56,0
40056,note_on,0,0,4,,,,,,,,0,,,61,0
40056,note_on,0,0,1,,,,,,,,0,,,89,0
40056,note_on,0,0,1,,,,,,,,0,,,92,0
40056,note_on,96,0,4,,,,,,,,0,,,53,0
40056,note_on,96,0,1,,,,,,,,0,,,101,0
40140,note_on,204,0,2,,,,,,,,0,,,77,80
40140,note_on,0,0,2,,,,,,,,0,,,71,80
40140,note_on,0,0,2,,,,,,,,0,,,68,80
40140,note_on,0,0,2,,,,,,,,0,,,65,80
40140,note_on,0,0,2,,,,,,,,0,,,85,80
40140,note_on,0,0,2,,,,,,,,0,,,73,80
40188,note_on,0,0,2,,,,,,,,0,,,71,0
40188,note_on,0,0,2,,,,,,,,0,,,65,0
40188,note_on,0,0,2,,,,,,,,0,,,68,0
40188,note_on,0,0,2,,,,,,,,0,,,73,0
40188,note_on,48,0,2,,,,,,,,0,,,85,0
40188,note_on,0,0,2,,,,,,,,0,,,77,0
40200,note_on,0,0,2,,,,,,,,0,,,68,80
40200,note_on,0,0,2,,,,,,,,0,,,71,80
40200,note_on,0,0,2,,,,,,,,0,,,77,80
40200,note_on,12,0,2,,,,,,,,0,,,73,80
40200,note_on,0,0,2,,,,,,,,0,,,65,80
40200,note_on,0,0,2,,,,,,,,0,,,85,80
40246,control_change,190,0,4,,,,,,,,0,64,0,,
40296,note_on,0,0,2,,,,,,,,0,,,85,0
40296,note_on,0,0,2,,,,,,,,0,,,65,0
40296,note_on,0,0,2,,,,,,,,0,,,73,0
40296,note_on,0,0,2,,,,,,,,0,,,71,0
40296,note_on,0,0,2,,,,,,,,0,,,68,0
40296,note_on,96,0,2,,,,,,,,0,,,77,0
40320,note_on,24,0,2,,,,,,,,0,,,71,80
40320,note_on,0,0,1,,,,,,,,0,,,77,80
40320,note_on,0,0,2,,,,,,,,0,,,65,80
40320,note_on,0,0,2,,,,,,,,0,,,68,80
40320,note_on,264,0,1,,,,,,,,0,,,73,80
40320,note_on,0,0,1,,,,,,,,0,,,85,80
40416,note_on,96,0,2,,,,,,,,0,,,68,0
40416,note_on,0,0,2,,,,,,,,0,,,65,0
40416,note_on,0,0,2,,,,,,,,0,,,71,0
40416,note_on,96,0,1,,,,,,,,0,,,77,0
40416,note_on,0,0,1,,,,,,,,0,,,85,0
40416,note_on,0,0,1,,,,,,,,0,,,73,0
40500,note_on,84,0,2,,,,,,,,0,,,61,80
40500,note_on,0,0,1,,,,,,,,0,,,77,80
40500,note_on,84,0,1,,,,,,,,0,,,85,80
40500,note_on,0,0,2,,,,,,,,0,,,68,80
40500,note_on,0,0,2,,,,,,,,0,,,71,80
40500,note_on,0,0,1,,,,,,,,0,,,73,80
40500,note_on,0,0,2,,,,,,,,0,,,65,80
40548,note_on,48,0,2,,,,,,,,0,,,65,0
40548,note_on,0,0,1,,,,,,,,0,,,77,0
40548,note_on,0,0,1,,,,,,,,0,,,85,0
40548,note_on,0,0,2,,,,,,,,0,,,61,0
40548,note_on,0,0,2,,,,,,,,0,,,68,0
40548,note_on,0,0,2,,,,,,,,0,,,71,0
40548,note_on,48,0,1,,,,,,,,0,,,73,0
40560,note_on,0,0,1,,,,,,,,0,,,73,80
40560,note_on,0,0,1,,,,,,,,0,,,77,80
40560,note_on,0,0,2,,,,,,,,0,,,65,80
40560,note_on,12,0,2,,,,,,,,0,,,68,80
40560,note_on,12,0,1,,,,,,,,0,,,85,80
40560,note_on,0,0,2,,,,,,,,0,,,71,80
40560,note_on,0,0,2,,,,,,,,0,,,61,80
40656,note_on,96,0,2,,,,,,,,0,,,61,0
40656,note_on,0,0,2,,,,,,,,0,,,71,0
40656,note_on,0,0,2,,,,,,,,0,,,68,0
40656,note_on,0,0,2,,,,,,,,0,,,65,0
40656,note_on,0,0,1,,,,,,,,0,,,77,0
40656,note_on,0,0,1,,,,,,,,0,,,85,0
40656,note_on,96,0,1,,,,,,,,0,,,73,0
40680,note_on,0,0,2,,,,,,,,0,,,68,80
40680,note_on,0,0,1,,,,,,,,0,,,77,80
40680,note_on,0,0,1,,,,,,,,0,,,85,80
40680,note_on,24,0,2,,,,,,,,0,,,65,80
40680,note_on,0,0,2,,,,,,,,0,,,71,80
40680,note_on,24,0,1,,,,,,,,0,,,73,80
40680,note_on,0,0,2,,,,,,,,0,,,61,80
40776,note_on,0,0,2,,,,,,,,0,,,68,0
40776,note_on,96,0,2,,,,,,,,0,,,61,0
40776,note_on,96,0,1,,,,,,,,0,,,77,0
40776,note_on,0,0,1,,,,,,,,0,,,85,0
40776,note_on,0,0,1,,,,,,,,0,,,73,0
40776,note_on,0,0,2,,,,,,,,0,,,65,0
40776,note_on,0,0,2,,,,,,,,0,,,71,0
40860,note_on,0,0,2,,,,,,,,0,,,71,80
40860,note_on,0,0,2,,,,,,,,0,,,65,80
40860,note_on,84,0,1,,,,,,,,0,,,86,80
40860,note_on,0,0,1,,,,,,,,0,,,74,80
40860,note_on,0,0,1,,,,,,,,0,,,77,80
40860,note_on,0,0,2,,,,,,,,0,,,62,80
40860,note_on,84,0,2,,,,,,,,0,,,68,80
40908,note_on,0,0,2,,,,,,,,0,,,62,0
40908,note_on,0,0,2,,,,,,,,0,,,68,0
40908,note_on,0,0,2,,,,,,,,0,,,71,0
40908,note_on,48,0,2,,,,,,,,0,,,65,0
40908,note_on,48,0,1,,,,,,,,0,,,74,0
40908,note_on,0,0,1,,,,,,,,0,,,77,0
40908,note_on,0,0,1,,,,,,,,0,,,86,0
40920,note_on,12,0,2,,,,,,,,0,,,62,80
40920,note_on,0,0,1,,,,,,,,0,,,77,80
40920,note_on,0,0,2,,,,,,,,0,,,68,80
40920,note_on,0,0,2,,,,,,,,0,,,71,80
40920,note_on,0,0,1,,,,,,,,0,,,74,80
40920,note_on,12,0,1,,,,,,,,0,,,86,80
40920,note_on,0,0,2,,,,,,,,0,,,65,80
41016,note_on,0,0,2,,,,,,,,0,,,65,0
41016,note_on,0,0,1,,,,,,,,0,,,74,0
41016,note_on,0,0,1,,,,,,,,0,,,86,0
41016,note_on,0,0,2,,,,,,,,0,,,62,0
41016,note_on,96,0,2,,,,,,,,0,,,71,0
41016,note_on,96,0,1,,,,,,,,0,,,77,0
41016,note_on,0,0,2,,,,,,,,0,,,68,0
41040,note_on,0,0,2,,,,,,,,0,,,62,80
41040,note_on,0,0,2,,,,,,,,0,,,65,80
41040,note_on,24,0,1,,,,,,,,0,,,77,80
41040,note_on,0,0,2,,,,,,,,0,,,68,80
41040,note_on,24,0,2,,,,,,,,0,,,71,80
41040,note_on,0,0,1,,,,,,,,0,,,86,80
41040,note_on,0,0,1,,,,,,,,0,,,74,80
41136,note_on,0,0,2,,,,,,,,0,,,71,0
41136,note_on,0,0,1,,,,,,,,0,,,74,0
41136,note_on,96,0,1,,,,,,,,0,,,86,0
41136,note_on,0,0,1,,,,,,,,0,,,77,0
41136,note_on,0,0,2,,,,,,,,0,,,65,0
41136,note_on,0,0,2,,,,,,,,0,,,62,0
41136,note_on,96,0,2,,,,,,,,0,,,68,0
41220,note_on,0,0,2,,,,,,,,0,,,72,80
41220,note_on,0,0,2,,,,,,,,0,,,69,80
41220,note_on,0,0,2,,,,,,,,0,,,66,80
41220,note_on,0,0,1,,,,,,,,0,,,74,80
41220,note_on,84,0,1,,,,,,,,0,,,78,80
41220,note_on,84,0,2,,,,,,,,0,,,62,80
41220,note_on,0,0,1,,,,,,,,0,,,86,80
41268,note_on,0,0,1,,,,,,,,0,,,86,0
41268,note_on,0,0,1,,,,,,,,0,,,78,0
41268,note_on,48,0,1,,,,,,,,0,,,74,0
41268,note_on,0,0,2,,,,,,,,0,,,72,0
41268,note_on,48,0,2,,,,,,,,0,,,66,0
41268,note_on,0,0,2,,,,,,,,0,,,69,0
41268,note_on,0,0,2,,,,,,,,0,,,62,0
41280,note_on,0,0,2,,,,,,,,0,,,72,80
41280,note_on,12,0,1,,,,,,,,0,,,78,80
41280,note_on,0,0,2,,,,,,,,0,,,66,80
41280,note_on,12,0,2,,,,,,,,0,,,62,80
41280,note_on,0,0,1,,,,,,,,0,,,74,80
41280,note_on,0,0,1,,,,,,,,0,,,86,80
41280,note_on,0,0,2,,,,,,,,0,,,69,80
41376,note_on,96,0,2,,,,,,,,0,,,69,0
41376,note_on,96,0,1,,,,,,,,0,,,86,0
41376,note_on,0,0,1,,,,,,,,0,,,74,0
41376,note_on,0,0,1,,,,,,,,0,,,78,0
41376,note_on,0,0,2,,,,,,,,0,,,72,0
41376,note_on,0,0,2,,,,,,,,0,,,66,0
41376,note_on,0,0,2,,,,,,,,0,,,62,0
41400,note_on,0,0,2,,,,,,,,0,,,72,80
41400,note_on,24,0,2,,,,,,,,0,,,66,80
41400,note_on,0,0,2,,,,,,,,0,,,69,80
41400,note_on,0,0,2,,,,,,,,0,,,62,80
41400,note_on,24,0,1,,,,,,,,0,,,78,80
41400,note_on,0,0,1,,,,,,,,0,,,74,80
41400,note_on,0,0,1,,,,,,,,0,,,86,80
41496,note_on,96,0,2,,,,,,,,0,,,62,0
41496,note_on,0,0,2,,,,,,,,0,,,66,0
41496,note_on,0,0,2,,,,,,,,0,,,72,0
41496,note_on,0,0,2,,,,,,,,0,,,69,0
41496,note_on,0,0,1,,,,,,,,0,,,78,0
41496,note_on,0,0,1,,,,,,,,0,,,74,0
41496,note_on,96,0,1,,,,,,,,0,,,86,0
41580,note_on,0,0,1,,,,,,,,0,,,86,80
41580,note_on,0,0,1,,,,,,,,0,,,82,80
41580,note_on,84,0,1,,,,,,,,0,,,80,80
41580,note_on,84,0,2,,,,,,,,0,,,65,80
41580,note_on,0,0,2,,,,,,,,0,,,68,80
41580,note_on,0,0,2,,,,,,,,0,,,70,80
41580,note_on,0,0,2,,,,,,,,0,,,58,80
41580,note_on,0,0,1,,,,,,,,0,,,94,80
41590,set_tempo,2714,1,0,,,,,,401714,,,,,,
41594,set_tempo,4,1,0,,,,,,403714,,,,,,
41628,note_on,0,0,2,,,,,,,,0,,,65,0
41628,note_on,48,0,1,,,,,,,,0,,,94,0
41628,note_on,0,0,2,,,,,,,,0,,,68,0
41628,note_on,0,0,2,,,,,,,,0,,,58,0
41628,note_on,48,0,2,,,,,,,,0,,,70,0
41628,note_on,0,0,1,,,,,,,,0,,,80,0
41628,note_on,0,0,1,,,,,,,,0,,,82,0
41628,note_on,0,0,1,,,,,,,,0,,,86,0
41638,set_tempo,44,1,0,,,,,,405734,,,,,,
41640,note_on,0,0,2,,,,,,,,0,,,70,80
41640,note_on,0,0,2,,,,,,,,0,,,65,80
41640,note_on,0,0,2,,,,,,,,0,,,58,80
41640,note_on,0,0,1,,,,,,,,0,,,86,80
41640,note_on,0,0,1,,,,,,,,0,,,94,80
41640,note_on,12,0,2,,,,,,,,0,,,68,80
41640,note_on,12,0,1,,,,,,,,0,,,80,80
41640,note_on,0,0,1,,,,,,,,0,,,82,80
41682,set_tempo,44,1,0,,,,,,407775,,,,,,
41725,set_tempo,43,1,0,,,,,,409836,,,,,,
41736,note_on,0,0,1,,,,,,,,0,,,82,0
41736,note_on,0,0,1,,,,,,,,0,,,86,0
41736,note_on,0,0,2,,,,,,,,0,,,65,0
41736,note_on,0,0,1,,,,,,,,0,,,80,0
41736,note_on,96,0,1,,,,,,,,0,,,94,0
41736,note_on,0,0,2,,,,,,,,0,,,68,0
41736,note_on,0,0,2,,,,,,,,0,,,58,0
41736,note_on,96,0,2,,,,,,,,0,,,70,0
41760,note_on,0,0,1,,,,,,,,0,,,82,80
41760,note_on,0,0,2,,,,,,,,0,,,65,80
41760,note_on,0,0,2,,,,,,,,0,,,58,80
41760,note_on,0,0,1,,,,,,,,0,,,94,80
41760,note_on,0,0,1,,,,,,,,0,,,86,80
41760,note_on,0,0,2,,,,,,,,0,,,68,80
41760,note_on,24,0,1,,,,,,,,0,,,80,80
41760,note_on,24,0,2,,,,,,,,0,,,70,80
41769,set_tempo,44,1,0,,,,,,411918,,,,,,
41812,set_tempo,43,1,0,,,,,,414022,,,,,,
41856,note_on,0,0,1,,,,,,,,0,,,80,0
41856,note_on,0,0,1,,,,,,,,0,,,82,0
41856,note_on,96,0,1,,,,,,,,0,,,86,0
41856,note_on,0,0,1,,,,,,,,0,,,94,0
41856,note_on,0,0,2,,,,,,,,0,,,58,0
41856,set_tempo,44,1,0,,,,,,416146,,,,,,
41856,note_on,0,0,2,,,,,,,,0,,,70,0
41856,note_on,96,0,2,,,,,,,,0,,,68,0
41856,note_on,0,0,2,,,,,,,,0,,,65,0
41900,set_tempo,44,1,0,,,,,,418293,,,,,,
41940,note_on,84,0,1,,,,,,,,0,,,70,80
41940,note_on,84,0,2,,,,,,,,0,,,58,80
41943,set_tempo,43,1,0,,,,,,420463,,,,,,
41987,set_tempo,44,1,0,,,,,,422654,,,,,,
41988,note_on,48,0,2,,,,,,,,0,,,58,0
41988,note_on,48,0,1,,,,,,,,0,,,70,0
42000,note_on,12,0,2,,,,,,,,0,,,58,80
42000,note_on,12,0,1,,,,,,,,0,,,70,80
42031,set_tempo,44,1,0,,,,,,424869,,,,,,
42074,set_tempo,43,1,0,,,,,,427107,,,,,,
42096,note_on,96,0,2,,,,,,,,0,,,58,0
42096,note_on,96,0,1,,,,,,,,0,,,70,0
42118,set_tempo,44,1,0,,,,,,429369,,,,,,
42120,note_on,24,0,1,,,,,,,,0,,,70,80
42120,note_on,24,0,2,,,,,,,,0,,,58,80
42162,set_tempo,44,1,0,,,,,,431655,,,,,,
42205,set_tempo,43,1,0,,,,,,433965,,,,,,
42216,note_on,96,0,2,,,,,,,,0,,,58,0
42216,note_on,96,0,1,,,,,,,,0,,,70,0
42256,set_tempo,51,1,0,,,,,,433965,,,,,,
42300,note_on,84,0,1,,,,,,,,0,,,70,80
42300,note_on,84,0,2,,,,,,,,0,,,58,80
42348,note_on,48,0,2,,,,,,,,0,,,58,0
42348,note_on,48,0,1,,,,,,,,0,,,70,0
42360,note_on,12,0,2,,,,,,,,0,,,58,80
42360,note_on,12,0,1,,,,,,,,0,,,70,80
42456,note_on,96,0,2,,,,,,,,0,,,58,0
42456,note_on,96,0,1,,,,,,,,0,,,70,0
42480,note_on,2234,0,4,,,,,,,,0,,,63,80
42480,note_on,0,0,4,,,,,,,,0,,,51,80
42480,note_on,0,0,4,,,,,,,,0,,,58,80
42480,note_on,0,0,1,,,,,,,,0,,,79,80
42480,note_on,0,0,1,,,,,,,,0,,,70,80
42480,note_on,24,0,1,,,,,,,,0,,,67,80
42576,note_on,96,0,4,,,,,,,,0,,,58,0
42576,note_on,0,0,4,,,,,,,,0,,,51,0
42576,note_on,0,0,4,,,,,,,,0,,,63,0
42576,note_on,0,0,1,,,,,,,,0,,,70,0
42576,note_on,0,0,1,,,,,,,,0,,,67,0
42576,note_on,96,0,1,,,,,,,,0,,,79,0
42660,note_on,84,0,4,,,,,,,,0,,,63,80
42660,note_on,0,0,1,,,,,,,,0,,,75,80
42660,note_on,0,0,4,,,,,,,,0,,,67,80
42660,note_on,84,0,1,,,,,,,,0,,,70,80
42708,note_on,0,0,1,,,,,,,,0,,,70,0
42708,note_on,48,0,4,,,,,,,,0,,,67,0
42708,note_on,48,0,1,,,,,,,,0,,,75,0
42708,note_on,0,0,4,,,,,,,,0,,,63,0
42720,note_on,0,0,1,,,,,,,,0,,,70,80
42720,note_on,12,0,4,,,,,,,,0,,,67,80
42720,note_on,12,0,1,,,,,,,,0,,,75,80
42720,note_on,0,0,4,,,,,,,,0,,,63,80
42816,note_on,0,0,4,,,,,,,,0,,,67,0
42816,note_on,0,0,1,,,,,,,,0,,,75,0
42816,note_on,96,0,4,,,,,,,,0,,,63,0
42816,note_on,96,0,1,,,,,,,,0,,,70,0
42840,note_on,0,0,1,,,,,,,,0,,,70,80
42840,note_on,24,0,1,,,,,,,,0,,,75,80
42840,note_on,0,0,4,,,,,,,,0,,,67,80
42840,note_on,24,0,4,,,,,,,,0,,,63,80
42936,note_on,0,0,1,,,,,,,,0,,,75,0
42936,note_on,0,0,4,,,,,,,,0,,,63,0
42936,note_on,96,0,4,,,,,,,,0,,,67,0
42936,note_on,96,0,1,,,,,,,,0,,,70,0
43020,note_on,84,0,1,,,,,,,,0,,,67,80
43020,note_on,0,0,4,,,,,,,,0,,,58,80
43020,note_on,0,0,1,,,,,,,,0,,,70,80
43020,note_on,84,0,4,,,,,,,,0,,,63,80
43068,note_on,48,0,4,,,,,,,,0,,,58,0
43068,note_on,48,0,1,,,,,,,,0,,,70,0
43068,note_on,0,0,4,,,,,,,,0,,,63,0
43068,note_on,0,0,1,,,,,,,,0,,,67,0
43080,note_on,0,0,4,,,,,,,,0,,,63,80
43080,note_on,12,0,4,,,,,,,,0,,,58,80
43080,note_on,12,0,1,,,,,,,,0,,,70,80
43080,note_on,0,0,1,,,,,,,,0,,,67,80
43176,note_on,0,0,4,,,,,,,,0,,,58,0
43176,note_on,0,0,1,,,,,,,,0,,,70,0
43176,note_on,96,0,4,,,,,,,,0,,,63,0
43176,note_on,96,0,1,,,,,,,,0,,,67,0
43200,note_on,24,0,1,,,,,,,,0,,,63,80
43200,note_on,0,0,1,,,,,,,,0,,,67,80
43200,note_on,24,0,4,,,,,,,,0,,,60,80
43296,note_on,96,0,1,,,,,,,,0,,,67,0
43296,note_on,96,0,4,,,,,,,,0,,,60,0
43296,note_on,0,0,1,,,,,,,,0,,,63,0
43380,note_on,0,0,4,,,,,,,,0,,,55,80
43380,note_on,84,0,4,,,,,,,,0,,,48,80
43380,note_on,0,0,1,,,,,,,,0,,,63,80
43380,note_on,84,0,1,,,,,,,,0,,,60,80
43428,note_on,0,0,1,,,,,,,,0,,,60,0
43428,note_on,48,0,1,,,,,,,,0,,,63,0
43428,note_on,48,0,4,,,,,,,,0,,,55,0
43428,note_on,0,0,4,,,,,,,,0,,,48,0
43440,note_on,12,0,4,,,,,,,,0,,,48,80
43440,note_on,12,0,1,,,,,,,,0,,,60,80
43440,note_on,0,0,4,,,,,,,,0,,,55,80
43440,note_on,0,0,1,,,,,,,,0,,,63,80
43536,note_on,0,0,1,,,,,,,,0,,,60,0
43536,note_on,96,0,4,,,,,,,,0,,,55,0
43536,note_on,96,0,1,,,,,,,,0,,,63,0
43536,note_on,0,0,4,,,,,,,,0,,,48,0
43560,note_on,0,0,1,,,,,,,,0,,,63,80
43560,note_on,24,0,4,,,,,,,,0,,,55,80
43560,note_on,0,0,4,,,,,,,,0,,,48,80
43560,note_on,24,0,1,,,,,,,,0,,,60,80
43848,note_on,0,0,1,,,,,,,,0,,,60,0
43848,note_on,0,0,4,,,,,,,,0,,,55,0
43848,note_on,288,0,1,,,,,,,,0,,,63,0
43848,note_on,288,0,4,,,,,,,,0,,,48,0
43920,note_on,0,0,4,,,,,,,,0,,,53,80
43920,note_on,72,0,4,,,,,,,,0,,,56,80
43920,note_on,0,0,4,,,,,,,,0,,,46,80
43920,note_on,72,0,1,,,,,,,,0,,,62,80
43920,note_on,0,0,1,,,,,,,,0,,,58,80
43920,note_on,0,0,1,,,,,,,,0,,,70,80
44016,note_on,0,0,4,,,,,,,,0,,,56,0
44016,note_on,96,0,1,,,,,,,,0,,,58,0
44016,note_on,0,0,1,,,,,,,,0,,,62,0
44016,note_on,0,0,1,,,,,,,,0,,,70,0
44016,note_on,96,0,4,,,,,,,,0,,,53,0
44016,note_on,0,0,4,,,,,,,,0,,,46,0
44100,note_on,84,0,1,,,,,,,,0,,,58,80
44100,note_on,0,0,4,,,,,,,,0,,,46,80
44100,note_on,0,0,1,,,,,,,,0,,,65,80
44100,note_on,0,0,4,,,,,,,,0,,,56,80
44100,note_on,84,0,4,,,,,,,,0,,,50,80
44148,note_on,0,0,4,,,,,,,,0,,,50,0
44148,note_on,0,0,4,,,,,,,,0,,,46,0
44148,note_on,0,0,1,,,,,,,,0,,,58,0
44148,note_on,48,0,1,,,,,,,,0,,,65,0
44148,note_on,48,0,4,,,,,,,,0,,,56,0
44160,note_on,0,0,1,,,,,,,,0,,,65,80
44160,note_on,12,0,1,,,,,,,,0,,,58,80
44160,note_on,0,0,4,,,,,,,,0,,,46,80
44160,note_on,12,0,4,,,,,,,,0,,,50,80
44160,note_on,0,0,4,,,,,,,,0,,,56,80
44256,note_on,0,0,4,,,,,,,,0,,,56,0
44256,note_on,96,0,1,,,,,,,,0,,,65,0
44256,note_on,0,0,1,,,,,,,,0,,,58,0
44256,note_on,96,0,4,,,,,,,,0,,,46,0
44256,note_on,0,0,4,,,,,,,,0,,,50,0
44280,note_on,0,0,4,,,,,,,,0,,,46,80
44280,note_on,24,0,1,,,,,,,,0,,,64,80
44280,note_on,24,0,4,,,,,,,,0,,,49,80
44280,note_on,0,0,1,,,,,,,,0,,,58,80
44280,note_on,0,0,4,,,,,,,,0,,,56,80
44376,note_on,0,0,4,,,,,,,,0,,,49,0
44376,note_on,0,0,4,,,,,,,,0,,,56,0
44376,note_on,96,0,4,,,,,,,,0,,,46,0
44376,note_on,96,0,1,,,,,,,,0,,,58,0
44376,note_on,0,0,1,,,,,,,,0,,,64,0
44400,note_on,24,0,1,,,,,,,,0,,,58,80
44400,note_on,0,0,4,,,,,,,,0,,,46,80
44400,note_on,0,0,4,,,,,,,,0,,,56,80
44400,note_on,24,0,4,,,,,,,,0,,,50,80
44400,note_on,0,0,1,,,,,,,,0,,,65,80
44496,note_on,0,0,4,,,,,,,,0,,,46,0
44496,note_on,0,0,4,,,,,,,,0,,,50,0
44496,note_on,0,0,1,,,,,,,,0,,,58,0
44496,note_on,96,0,1,,,,,,,,0,,,65,0
44496,note_on,96,0,4,,,,,,,,0,,,56,0
44520,note_on,24,0,4,,,,,,,,0,,,56,80
44520,note_on,24,0,1,,,,,,,,0,,,70,80
44520,note_on,0,0,4,,,,,,,,0,,,46,80
44520,note_on,0,0,4,,,,,,,,0,,,50,80
44520,note_on,0,0,1,,,,,,,,0,,,58,80
44520,note_on,0,0,1,,,,,,,,0,,,66,80
44616,note_on,96,0,4,,,,,,,,0,,,50,0
44616,note_on,96,0,1,,,,,,,,0,,,66,0
44616,note_on,0,0,1,,,,,,,,0,,,58,0
44616,note_on,0,0,4,,,,,,,,0,,,46,0
44616,note_on,0,0,4,,,,,,,,0,,,56,0
44616,note_on,0,0,1,,,,,,,,0,,,70,0
44640,note_on,0,0,1,,,,,,,,0,,,67,80
44640,note_on,24,0,4,,,,,,,,0,,,55,80
44640,note_on,0,0,4,,,,,,,,0,,,51,80
44640,note_on,0,0,1,,,,,,,,0,,,70,80
44640,note_on,24,0,1,,,,,,,,0,,,58,80
44928,note_on,288,0,1,,,,,,,,0,,,70,0
44928,note_on,0,0,4,,,,,,,,0,,,55,0
44928,note_on,0,0,1,,,,,,,,0,,,67,0
44928,note_on,0,0,1,,,,,,,,0,,,58,0
44928,note_on,288,0,4,,,,,,,,0,,,51,0
45000,note_on,72,0,1,,,,,,,,0,,,67,80
45000,note_on,72,0,4,,,,,,,,0,,,58,80
45000,note_on,0,0,4,,,,,,,,0,,,51,80
45000,note_on,0,0,1,,,,,,,,0,,,63,80
45096,note_on,96,0,1,,,,,,,,0,,,63,0
45096,note_on,96,0,4,,,,,,,,0,,,51,0
45096,note_on,0,0,1,,,,,,,,0,,,67,0
45096,note_on,0,0,4,,,,,,,,0,,,58,0
45360,note_on,264,0,1,,,,,,,,0,,,75,80
45360,note_on,0,0,1,,,,,,,,0,,,70,80
45360,note_on,264,0,4,,,,,,,,0,,,63,80
45360,note_on,0,0,1,,,,,,,,0,,,79,80
45360,note_on,0,0,4,,,,,,,,0,,,67,80
45456,note_on,96,0,4,,,,,,,,0,,,67,0
45456,note_on,0,0,1,,,,,,,,0,,,75,0
45456,note_on,0,0,4,,,,,,,,0,,,63,0
45456,note_on,96,0,1,,,,,,,,0,,,70,0
45456,note_on,0,0,1,,,,,,,,0,,,79,0
45540,note_on,0,0,1,,,,,,,,0,,,67,80
45540,note_on,0,0,1,,,,,,,,0,,,70,80
45540,note_on,84,0,4,,,,,,,,0,,,58,80
45540,note_on,0,0,4,,,,,,,,0,,,63,80
45540,note_on,84,0,1,,,,,,,,0,,,75,80
45588,note_on,0,0,1,,,,,,,,0,,,75,0
45588,note_on,48,0,1,,,,,,,,0,,,67,0
45588,note_on,48,0,4,,,,,,,,0,,,63,0
45588,note_on,0,0,1,,,,,,,,0,,,70,0
45588,note_on,0,0,4,,,,,,,,0,,,58,0
45600,note_on,0,0,1,,,,,,,,0,,,75,80
45600,note_on,0,0,1,,,,,,,,0,,,70,80
45600,note_on,0,0,4,,,,,,,,0,,,58,80
45600,note_on,12,0,4,,,,,,,,0,,,63,80
45600,note_on,12,0,1,,,,,,,,0,,,67,80
45696,note_on,0,0,1,,,,,,,,0,,,75,0
45696,note_on,0,0,4,,,,,,,,0,,,63,0
45696,note_on,96,0,1,,,,,,,,0,,,70,0
45696,note_on,0,0,1,,,,,,,,0,,,67,0
45696,note_on,96,0,4,,,,,,,,0,,,58,0
45720,note_on,0,0,1,,,,,,,,0,,,70,80
45720,note_on,0,0,1,,,,,,,,0,,,67,80
45720,note_on,24,0,1,,,,,,,,0,,,75,80
45720,note_on,0,0,4,,,,,,,,0,,,63,80
45720,note_on,24,0,4,,,,,,,,0,,,58,80
45816,note_on,0,0,1,,,,,,,,0,,,75,0
45816,note_on,96,0,4,,,,,,,,0,,,63,0
45816,note_on,0,0,1,,,,,,,,0,,,67,0
45816,note_on,96,0,1,,,,,,,,0,,,70,0
45816,note_on,0,0,4,,,,,,,,0,,,58,0
45900,note_on,0,0,4,,,,,,,,0,,,55,80
45900,note_on,84,0,1,,,,,,,,0,,,63,80
45900,note_on,84,0,4,,,,,,,,0,,,58,80
45900,note_on,0,0,1,,,,,,,,0,,,67,80
45900,note_on,0,0,1,,,,,,,,0,,,70,80
45948,note_on,0,0,1,,,,,,,,0,,,67,0
45948,note_on,0,0,4,,,,,,,,0,,,58,0
45948,note_on,48,0,4,,,,,,,,0,,,55,0
45948,note_on,48,0,1,,,,,,,,0,,,70,0
45948,note_on,0,0,1,,,,,,,,0,,,63,0
45960,note_on,0,0,1,,,,,,,,0,,,70,80
45960,note_on,0,0,4,,,,,,,,0,,,58,80
45960,note_on,0,0,1,,,,,,,,0,,,67,80
45960,note_on,12,0,1,,,,,,,,0,,,63,80
45960,note_on,12,0,4,,,,,,,,0,,,55,80
46056,note_on,96,0,1,,,,,,,,0,,,67,0
46056,note_on,0,0,1,,,,,,,,0,,,63,0
46056,note_on,0,0,4,,,,,,,,0,,,55,0
46056,note_on,96,0,4,,,,,,,,0,,,58,0
46056,note_on,0,0,1,,,,,,,,0,,,70,0
46080,note_on,24,0,1,,,,,,,,0,,,67,80
46080,note_on,24,0,4,,,,,,,,0,,,60,80
46080,note_on,0,0,4,,,,,,,,0,,,55,80
46080,note_on,0,0,1,,,,,,,,0,,,63,80
46176,note_on,0,0,1,,,,,,,,0,,,67,0
46176,note_on,96,0,4,,,,,,,,0,,,55,0
46176,note_on,0,0,4,,,,,,,,0,,,60,0
46176,note_on,96,0,1,,,,,,,,0,,,63,0
46260,note_on,84,0,1,,,,,,,,0,,,63,80
46260,note_on,84,0,4,,,,,,,,0,,,55,80
46260,note_on,0,0,4,,,,,,,,0,,,48,80
46260,note_on,0,0,1,,,,,,,,0,,,60,80
46308,note_on,0,0,1,,,,,,,,0,,,63,0
46308,note_on,48,0,1,,,,,,,,0,,,60,0
46308,note_on,48,0,4,,,,,,,,0,,,48,0
46308,note_on,0,0,4,,,,,,,,0,,,55,0
46320,note_on,0,0,1,,,,,,,,0,,,60,80
46320,note_on,12,0,4,,,,,,,,0,,,55,80
46320,note_on,12,0,1,,,,,,,,0,,,63,80
46320,note_on,0,0,4,,,,,,,,0,,,48,80
46416,note_on,96,0,1,,,,,,,,0,,,60,0
46416,note_on,0,0,1,,,,,,,,0,,,63,0
46416,note_on,96,0,4,,,,,,,,0,,,48,0
46416,note_on,0,0,4,,,,,,,,0,,,55,0
46440,note_on,0,0,1,,,,,,,,0,,,63,80
46440,note_on,24,0,4,,,,,,,,0,,,48,80
46440,note_on,24,0,1,,,,,,,,0,,,60,80
46440,note_on,0,0,4,,,,,,,,0,,,55,80
46728,note_on,0,0,4,,,,,,,,0,,,48,0
46728,note_on,288,0,4,,,,,,,,0,,,55,0
46728,note_on,288,0,1,,,,,,,,0,,,63,0
46728,note_on,0,0,1,,,,,,,,0,,,60,0
46800,note_on,72,0,4,,,,,,,,0,,,53,80
46800,note_on,0,0,1,,,,,,,,0,,,62,80
46800,note_on,0,0,1,,,,,,,,0,,,71,80
46800,note_on,72,0,1,,,,,,,,0,,,59,80
46800,note_on,0,0,4,,,,,,,,0,,,43,80
46800,note_on,0,0,4,,,,,,,,0,,,55,80
46896,note_on,0,0,1,,,,,,,,0,,,62,0
46896,note_on,0,0,1,,,,,,,,0,,,59,0
46896,note_on,96,0,4,,,,,,,,0,,,55,0
46896,note_on,96,0,1,,,,,,,,0,,,71,0
46896,note_on,0,0,4,,,,,,,,0,,,43,0
46896,note_on,0,0,4,,,,,,,,0,,,53,0
46980,note_on,84,0,1,,,,,,,,0,,,62,80
46980,note_on,0,0,1,,,,,,,,0,,,59,80
46980,note_on,0,0,4,,,,,,,,0,,,55,80
46980,note_on,0,0,4,,,,,,,,0,,,43,80
46980,note_on,84,0,4,,,,,,,,0,,,53,80
47028,note_on,0,0,4,,,,,,,,0,,,53,0
47028,note_on,0,0,4,,,,,,,,0,,,43,0
47028,note_on,48,0,4,,,,,,,,0,,,55,0
47028,note_on,48,0,1,,,,,,,,0,,,59,0
47028,note_on,0,0,1,,,,,,,,0,,,62,0
47040,note_on,0,0,4,,,,,,,,0,,,43,80
47040,note_on,0,0,4,,,,,,,,0,,,53,80
47040,note_on,0,0,1,,,,,,,,0,,,59,80
47040,note_on,12,0,4,,,,,,,,0,,,55,80
47040,note_on,12,0,1,,,,,,,,0,,,62,80
47136,note_on,0,0,4,,,,,,,,0,,,55,0
47136,note_on,96,0,4,,,,,,,,0,,,43,0
47136,note_on,96,0,1,,,,,,,,0,,,59,0
47136,note_on,0,0,4,,,,,,,,0,,,53,0
47136,note_on,0,0,1,,,,,,,,0,,,62,0
47160,note_on,0,0,1,,,,,,,,0,,,61,80
47160,note_on,0,0,4,,,,,,,,0,,,55,80
47160,note_on,0,0,4,,,,,,,,0,,,43,80
47160,note_on,24,0,1,,,,,,,,0,,,59,80
47160,note_on,24,0,4,,,,,,,,0,,,53,80
47256,note_on,96,0,4,,,,,,,,0,,,55,0
47256,note_on,0,0,1,,,,,,,,0,,,59,0
47256,note_on,96,0,1,,,,,,,,0,,,61,0
47256,note_on,0,0,4,,,,,,,,0,,,53,0
47256,note_on,0,0,4,,,,,,,,0,,,43,0
47280,note_on,0,0,4,,,,,,,,0,,,53,80
47280,note_on,0,0,1,,,,,,,,0,,,59,80
47280,note_on,0,0,4,,,,,,,,0,,,43,80
47280,note_on,24,0,4,,,,,,,,0,,,55,80
47280,note_on,24,0,1,,,,,,,,0,,,62,80
47376,note_on,96,0,1,,,,,,,,0,,,59,0
47376,note_on,0,0,4,,,,,,,,0,,,53,0
47376,note_on,0,0,1,,,,,,,,0,,,62,0
47376,note_on,0,0,4,,,,,,,,0,,,55,0
47376,note_on,96,0,4,,,,,,,,0,,,43,0
47400,note_on,0,0,1,,,,,,,,0,,,67,80
47400,note_on,0,0,4,,,,,,,,0,,,53,80
47400,note_on,24,0,4,,,,,,,,0,,,43,80
47400,note_on,24,0,1,,,,,,,,0,,,59,80
47400,note_on,0,0,4,,,,,,,,0,,,55,80
47400,note_on,0,0,1,,,,,,,,0,,,62,80
47496,note_on,0,0,1,,,,,,,,0,,,62,0
47496,note_on,0,0,1,,,,,,,,0,,,59,0
47496,note_on,96,0,4,,,,,,,,0,,,53,0
47496,note_on,96,0,1,,,,,,,,0,,,67,0
47496,note_on,0,0,4,,,,,,,,0,,,55,0
47496,note_on,0,0,4,,,,,,,,0,,,43,0
47520,note_on,24,0,4,,,,,,,,0,,,43,80
47520,note_on,0,0,4,,,,,,,,0,,,53,80
47520,note_on,0,0,1,,,,,,,,0,,,59,80
47520,note_on,0,0,1,,,,,,,,0,,,71,80
47520,note_on,0,0,4,,,,,,,,0,,,55,80
47520,note_on,24,0,1,,,,,,,,0,,,62,80
48096,note_on,0,0,1,,,,,,,,0,,,59,0
48096,note_on,0,0,1,,,,,,,,0,,,62,0
48096,note_on,576,0,4,,,,,,,,0,,,53,0
48096,note_on,0,0,4,,,,,,,,0,,,43,0
48096,note_on,576,0,1,,,,,,,,0,,,71,0
48096,note_on,0,0,4,,,,,,,,0,,,55,0
48240,note_on,0,0,4,,,,,,,,0,,,53,80
48240,note_on,0,0,1,,,,,,,,0,,,70,80
48240,note_on,144,0,4,,,,,,,,0,,,46,80
48240,note_on,144,0,1,,,,,,,,0,,,58,80
48240,note_on,0,0,1,,,,,,,,0,,,62,80
48240,note_on,0,0,4,,,,,,,,0,,,56,80
48816,note_on,576,0,4,,,,,,,,0,,,53,0
48816,note_on,0,0,1,,,,,,,,0,,,62,0
48816,note_on,0,0,1,,,,,,,,0,,,58,0
48816,note_on,0,0,4,,,,,,,,0,,,46,0
48816,note_on,0,0,4,,,,,,,,0,,,56,0
48816,note_on,576,0,1,,,,,,,,0,,,70,0
48960,note_on,0,0,4,,,,,,,,0,,,51,80
48960,note_on,144,0,1,,,,,,,,0,,,79,80
48960,note_on,0,0,1,,,,,,,,0,,,82,80
48960,note_on,0,0,1,,,,,,,,0,,,91,80
48960,control_change,144,0,4,,,,,,,,0,64,127,,
48960,note_on,0,0,4,,,,,,,,0,,,46,80
48960,note_on,0,0,4,,,,,,,,0,,,39,80
49056,note_on,0,0,4,,,,,,,,0,,,39,0
49056,note_on,0,0,4,,,,,,,,0,,,51,0
49056,note_on,96,0,4,,,,,,,,0,,,46,0
49056,note_on,0,0,1,,,,,,,,0,,,79,0
49056,note_on,0,0,1,,,,,,,,0,,,82,0
49056,note_on,96,0,1,,,,,,,,0,,,91,0
49140,note_on,0,0,4,,,,,,,,0,,,51,80
49140,note_on,0,0,4,,,,,,,,0,,,55,80
49140,note_on,84,0,1,,,,,,,,0,,,87,80
49140,note_on,84,0,4,,,,,,,,0,,,43,80
49140,note_on,0,0,1,,,,,,,,0,,,79,80
49140,note_on,0,0,1,,,,,,,,0,,,75,80
49188,note_on,0,0,1,,,,,,,,0,,,87,0
49188,note_on,0,0,4,,,,,,,,0,,,43,0
49188,note_on,0,0,4,,,,,,,,0,,,51,0
49188,note_on,0,0,1,,,,,,,,0,,,79,0
49188,note_on,48,0,1,,,,,,,,0,,,75,0
49188,note_on,48,0,4,,,,,,,,0,,,55,0
49200,note_on,0,0,1,,,,,,,,0,,,75,80
49200,note_on,0,0,1,,,,,,,,0,,,79,80
49200,note_on,12,0,4,,,,,,,,0,,,43,80
49200,note_on,12,0,1,,,,,,,,0,,,87,80
49200,note_on,0,0,4,,,,,,,,0,,,51,80
49200,note_on,0,0,4,,,,,,,,0,,,55,80
49296,note_on,96,0,1,,,,,,,,0,,,79,0
49296,note_on,0,0,4,,,,,,,,0,,,43,0
49296,note_on,96,0,4,,,,,,,,0,,,51,0
49296,note_on,0,0,4,,,,,,,,0,,,55,0
49296,note_on,0,0,1,,,,,,,,0,,,87,0
49296,note_on,0,0,1,,,,,,,,0,,,75,0
49320,note_on,24,0,1,,,,,,,,0,,,79,80
49320,note_on,0,0,4,,,,,,,,0,,,51,80
49320,note_on,0,0,4,,,,,,,,0,,,43,80
49320,note_on,24,0,4,,,,,,,,0,,,55,80
49320,note_on,0,0,1,,,,,,,,0,,,87,80
49320,note_on,0,0,1,,,,,,,,0,,,75,80
49416,note_on,96,0,4,,,,,,,,0,,,43,0
49416,note_on,0,0,4,,,,,,,,0,,,51,0
49416,note_on,96,0,1,,,,,,,,0,,,87,0
49416,note_on,0,0,4,,,,,,,,0,,,55,0
49416,note_on,0,0,1,,,,,,,,0,,,79,0
49416,note_on,0,0,1,,,,,,,,0,,,75,0
49500,note_on,0,0,1,,,,,,,,0,,,70,80
49500,note_on,0,0,1,,,,,,,,0,,,75,80
49500,note_on,0,0,4,,,,,,,,0,,,58,80
49500,note_on,0,0,4,,,,,,,,0,,,55,80
49500,note_on,84,0,1,,,,,,,,0,,,82,80
49500,note_on,84,0,4,,,,,,,,0,,,46,80
49548,note_on,48,0,4,,,,,,,,0,,,55,0
49548,note_on,0,0,1,,,,,,,,0,,,75,0
49548,note_on,0,0,4,,,,,,,,0,,,46,0
49548,note_on,48,0,1,,,,,,,,0,,,70,0
49548,note_on,0,0,4,,,,,,,,0,,,58,0
49548,note_on,0,0,1,,,,,,,,0,,,82,0
49560,note_on,0,0,1,,,,,,,,0,,,70,80
49560,note_on,0,0,4,,,,,,,,0,,,55,80
49560,note_on,0,0,4,,,,,,,,0,,,58,80
49560,note_on,0,0,1,,,,,,,,0,,,75,80
49560,note_on,12,0,4,,,,,,,,0,,,46,80
49560,note_on,12,0,1,,,,,,,,0,,,82,80
49656,note_on,0,0,4,,,,,,,,0,,,55,0
49656,note_on,0,0,4,,,,,,,,0,,,46,0
49656,note_on,0,0,1,,,,,,,,0,,,82,0
49656,note_on,0,0,1,,,,,,,,0,,,70,0
49656,note_on,96,0,4,,,,,,,,0,,,58,0
49656,note_on,96,0,1,,,,,,,,0,,,75,0
49680,note_on,0,0,1,,,,,,,,0,,,79,80
49680,note_on,0,0,1,,,,,,,,0,,,67,80
49680,control_change,0,0,4,,,,,,,,0,64,0,,
49680,note_on,24,0,1,,,,,,,,0,,,75,80
49680,note_on,0,0,4,,,,,,,,0,,,48,80
49680,note_on,0,0,4,,,,,,,,0,,,60,80
49680,note_on,24,0,4,,,,,,,,0,,,55,80
49726,control_change,46,0,4,,,,,,,,0,64,127,,
49776,note_on,0,0,1,,,,,,,,0,,,67,0
49776,note_on,0,0,1,,,,,,,,0,,,75,0
49776,note_on,96,0,1,,,,,,,,0,,,79,0
49776,note_on,0,0,4,,,,,,,,0,,,60,0
49776,note_on,0,0,4,,,,,,,,0,,,55,0
49776,note_on,50,0,4,,,,,,,,0,,,48,0
49860,note_on,84,0,4,,,,,,,,0,,,55,80
49860,note_on,0,0,1,,,,,,,,0,,,75,80
49860,note_on,0,0,1,,,,,,,,0,,,72,80
49860,note_on,0,0,4,,,,,,,,0,,,60,80
49860,note_on,84,0,1,,,,,,,,0,,,67,80
49860,note_on,0,0,4,,,,,,,,0,,,63,80
49908,note_on,0,0,4,,,,,,,,0,,,55,0
49908,note_on,48,0,1,,,,,,,,0,,,75,0
49908,note_on,0,0,4,,,,,,,,0,,,60,0
49908,note_on,0,0,1,,,,,,,,0,,,67,0
49908,note_on,48,0,4,,,,,,,,0,,,63,0
49908,note_on,0,0,1,,,,,,,,0,,,72,0
49920,note_on,12,0,4,,,,,,,,0,,,63,80
49920,note_on,0,0,1,,,,,,,,0,,,72,80
49920,note_on,12,0,1,,,,,,,,0,,,75,80
49920,note_on,0,0,4,,,,,,,,0,,,55,80
49920,note_on,0,0,1,,,,,,,,0,,,67,80
49920,note_on,0,0,4,,,,,,,,0,,,60,80
50016,note_on,0,0,4,,,,,,,,0,,,60,0
50016,note_on,0,0,4,,,,,,,,0,,,63,0
50016,note_on,0,0,1,,,,,,,,0,,,72,0
50016,note_on,0,0,1,,,,,,,,0,,,75,0
50016,note_on,96,0,1,,,,,,,,0,,,67,0
50016,note_on,96,0,4,,,,,,,,0,,,55,0
50040,note_on,24,0,1,,,,,,,,0,,,75,80
50040,note_on,0,0,1,,,,,,,,0,,,67,80
50040,note_on,0,0,1,,,,,,,,0,,,72,80
50040,note_on,24,0,4,,,,,,,,0,,,60,80
50040,note_on,0,0,4,,,,,,,,0,,,55,80
50040,note_on,0,0,4,,,,,,,,0,,,63,80
50206,control_change,166,0,4,,,,,,,,0,64,0,,
50328,note_on,0,0,1,,,,,,,,0,,,75,0
50328,note_on,122,0,4,,,,,,,,0,,,55,0
50328,note_on,0,0,1,,,,,,,,0,,,72,0
50328,note_on,0,0,4,,,,,,,,0,,,60,0
50328,note_on,0,0,4,,,,,,,,0,,,63,0
50328,note_on,288,0,1,,,,,,,,0,,,67,0
50400,note_on,0,0,1,,,,,,,,0,,,82,80
50400,note_on,0,0,4,,,,,,,,0,,,58,80
50400,note_on,72,0,1,,,,,,,,0,,,68,80
50400,control_change,0,0,4,,,,,,,,0,64,127,,
50400,note_on,0,0,1,,,,,,,,0,,,70,80
50400,note_on,72,0,4,,,,,,,,0,,,46,80
50400,note_on,0,0,4,,,,,,,,0,,,53,80
50400,note_on,0,0,1,,,,,,,,0,,,74,80
50496,note_on,0,0,1,,,,,,,,0,,,74,0
50496,note_on,0,0,4,,,,,,,,0,,,53,0
50496,note_on,0,0,1,,,,,,,,0,,,70,0
50496,note_on,0,0,1,,,,,,,,0,,,68,0
50496,note_on,0,0,4,,,,,,,,0,,,46,0
50496,note_on,96,0,1,,,,,,,,0,,,82,0
50496,note_on,96,0,4,,,,,,,,0,,,58,0
50580,note_on,0,0,1,,,,,,,,0,,,68,80
50580,note_on,0,0,1,,,,,,,,0,,,70,80
50580,note_on,84,0,1,,,,,,,,0,,,77,80
50580,note_on,0,0,4,,,,,,,,0,,,65,80
50580,note_on,84,0,4,,,,,,,,0,,,58,80
50580,note_on,0,0,4,,,,,,,,0,,,62,80
50628,note_on,0,0,4,,,,,,,,0,,,58,0
50628,note_on,0,0,1,,,,,,,,0,,,77,0
50628,note_on,0,0,1,,,,,,,,0,,,70,0
50628,note_on,48,0,1,,,,,,,,0,,,68,0
50628,note_on,0,0,4,,,,,,,,0,,,65,0
50628,note_on,48,0,4,,,,,,,,0,,,62,0
50640,note_on,0,0,4,,,,,,,,0,,,58,80
50640,note_on,0,0,1,,,,,,,,0,,,70,80
50640,note_on,0,0,1,,,,,,,,0,,,77,80
50640,note_on,0,0,4,,,,,,,,0,,,65,80
50640,note_on,12,0,1,,,,,,,,0,,,68,80
50640,note_on,12,0,4,,,,,,,,0,,,62,80
50736,note_on,96,0,1,,,,,,,,0,,,70,0
50736,note_on,0,0,1,,,,,,,,0,,,77,0
50736,note_on,96,0,4,,,,,,,,0,,,58,0
50736,note_on,0,0,4,,,,,,,,0,,,65,0
50736,note_on,0,0,4,,,,,,,,0,,,62,0
50736,note_on,0,0,1,,,,,,,,0,,,68,0
50760,note_on,0,0,4,,,,,,,,0,,,58,80
50760,note_on,24,0,1,,,,,,,,0,,,70,80
50760,note_on,0,0,1,,,,,,,,0,,,76,80
50760,note_on,24,0,4,,,,,,,,0,,,61,80
50760,note_on,0,0,1,,,,,,,,0,,,68,80
50760,note_on,0,0,4,,,,,,,,0,,,64,80
50856,note_on,96,0,1,,,,,,,,0,,,68,0
50856,note_on,0,0,1,,,,,,,,0,,,76,0
50856,note_on,0,0,1,,,,,,,,0,,,70,0
50856,note_on,0,0,4,,,,,,,,0,,,61,0
50856,note_on,96,0,4,,,,,,,,0,,,58,0
50856,note_on,0,0,4,,,,,,,,0,,,64,0
50880,note_on,24,0,4,,,,,,,,0,,,65,80
50880,note_on,0,0,4,,,,,,,,0,,,62,80
50880,note_on,0,0,1,,,,,,,,0,,,70,80
50880,note_on,0,0,1,,,,,,,,0,,,77,80
50880,note_on,0,0,4,,,,,,,,0,,,58,80
50880,note_on,24,0,1,,,,,,,,0,,,68,80
50928,control_change,48,0,4,,,,,,,,0,64,0,,
50976,note_on,0,0,4,,,,,,,,0,,,65,0
50976,note_on,0,0,4,,,,,,,,0,,,62,0
50976,note_on,0,0,1,,,,,,,,0,,,68,0
50976,note_on,0,0,1,,,,,,,,0,,,77,0
50976,note_on,96,0,1,,,,,,,,0,,,70,0
50976,note_on,48,0,4,,,,,,,,0,,,58,0
51000,note_on,24,0,4,,,,,,,,0,,,62,80
51000,note_on,24,0,1,,,,,,,,0,,,82,80
51000,note_on,0,0,4,,,,,,,,0,,,66,80
51000,note_on,0,0,4,,,,,,,,0,,,58,80
51000,note_on,0,0,1,,,,,,,,0,,,78,80
51000,note_on,0,0,1,,,,,,,,0,,,70,80
51000,note_on,0,0,1,,,,,,,,0,,,68,80
51090,note_on,13002,0,3,,,,,,,,0,,,51,80
51096,note_on,96,0,4,,,,,,,,0,,,66,0
51096,note_on,0,0,4,,,,,,,,0,,,62,0
51096,note_on,0,0,4,,,,,,,,0,,,58,0
51096,note_on,0,0,1,,,,,,,,0,,,82,0
51096,note_on,0,0,1,,,,,,,,0,,,70,0
51096,note_on,0,0,1,,,,,,,,0,,,68,0
51096,note_on,96,0,1,,,,,,,,0,,,78,0
51120,note_on,0,0,1,,,,,,,,0,,,79,80
51120,note_on,24,0,1,,,,,,,,0,,,70,80
51120,note_on,0,0,3,,,,,,,,0,,,67,80
51120,note_on,30,0,3,,,,,,,,0,,,58,80
51120,note_on,0,0,1,,,,,,,,0,,,82,80
51408,note_on,0,0,1,,,,,,,,0,,,70,0
51408,note_on,0,0,1,,,,,,,,0,,,79,0
51408,note_on,0,0,3,,,,,,,,0,,,58,0
51408,note_on,0,0,3,,,,,,,,0,,,51,0
51408,note_on,288,0,1,,,,,,,,0,,,82,0
51408,note_on,288,0,3,,,,,,,,0,,,67,0
51480,note_on,72,0,3,,,,,,,,0,,,51,80
51480,note_on,0,0,1,,,,,,,,0,,,67,80
51480,note_on,0,0,1,,,,,,,,0,,,70,80
51480,note_on,0,0,3,,,,,,,,0,,,58,80
51480,note_on,72,0,1,,,,,,,,0,,,79,80
51480,note_on,0,0,3,,,,,,,,0,,,63,80
51576,note_on,96,0,3,,,,,,,,0,,,63,0
51576,note_on,0,0,1,,,,,,,,0,,,79,0
51576,note_on,0,0,1,,,,,,,,0,,,70,0
51576,note_on,0,0,3,,,,,,,,0,,,51,0
51576,note_on,0,0,3,,,,,,,,0,,,58,0
51576,note_on,96,0,1,,,,,,,,0,,,67,0
51840,control_change,0,0,4,,,,,,,,0,64,127,,
51840,note_on,744,0,4,,,,,,,,0,,,51,80
51840,note_on,0,0,1,,,,,,,,0,,,87,80
51840,note_on,0,0,1,,,,,,,,0,,,99,80
51840,note_on,0,0,4,,,,,,,,0,,,39,80
51840,note_on,0,0,4,,,,,,,,0,,,46,80
51840,note_on,264,0,1,,,,,,,,0,,,91,80
51936,note_on,96,0,1,,,,,,,,0,,,87,0
51936,note_on,96,0,4,,,,,,,,0,,,39,0
51936,note_on,0,0,4,,,,,,,,0,,,46,0
51936,note_on,0,0,4,,,,,,,,0,,,51,0
51936,note_on,0,0,1,,,,,,,,0,,,91,0
51936,note_on,0,0,1,,,,,,,,0,,,99,0
52020,note_on,84,0,4,,,,,,,,0,,,43,80
52020,note_on,84,0,1,,,,,,,,0,,,82,80
52020,note_on,0,0,4,,,,,,,,0,,,51,80
52020,note_on,0,0,4,,,,,,,,0,,,55,80
52020,note_on,0,0,1,,,,,,,,0,,,87,80
52020,note_on,0,0,1,,,,,,,,0,,,94,80
52068,note_on,48,0,1,,,,,,,,0,,,94,0
52068,note_on,0,0,4,,,,,,,,0,,,43,0
52068,note_on,0,0,4,,,,,,,,0,,,51,0
52068,note_on,48,0,4,,,,,,,,0,,,55,0
52068,note_on,0,0,1,,,,,,,,0,,,87,0
52068,note_on,0,0,1,,,,,,,,0,,,82,0
52080,note_on,0,0,1,,,,,,,,0,,,87,80
52080,note_on,0,0,4,,,,,,,,0,,,51,80
52080,note_on,12,0,1,,,,,,,,0,,,94,80
52080,note_on,0,0,4,,,,,,,,0,,,55,80
52080,note_on,0,0,1,,,,,,,,0,,,82,80
52080,note_on,12,0,4,,,,,,,,0,,,43,80
52176,note_on,96,0,4,,,,,,,,0,,,55,0
52176,note_on,0,0,4,,,,,,,,0,,,51,0
52176,note_on,0,0,4,,,,,,,,0,,,43,0
52176,note_on,96,0,1,,,,,,,,0,,,82,0
52176,note_on,0,0,1,,,,,,,,0,,,87,0
52176,note_on,0,0,1,,,,,,,,0,,,94,0
52200,note_on,0,0,4,,,,,,,,0,,,51,80
52200,note_on,24,0,4,,,,,,,,0,,,43,80
52200,note_on,24,0,1,,,,,,,,0,,,82,80
52200,note_on,0,0,1,,,,,,,,0,,,87,80
52200,note_on,0,0,1,,,,,,,,0,,,94,80
52200,note_on,0,0,4,,,,,,,,0,,,55,80
52296,note_on,96,0,1,,,,,,,,0,,,87,0
52296,note_on,0,0,1,,,,,,,,0,,,82,0
52296,note_on,0,0,1,,,,,,,,0,,,94,0
52296,note_on,96,0,4,,,,,,,,0,,,51,0
52296,note_on,0,0,4,,,,,,,,0,,,43,0
52296,note_on,0,0,4,,,,,,,,0,,,55,0
52380,note_on,0,0,1,,,,,,,,0,,,91,80
52380,note_on,0,0,1,,,,,,,,0,,,79,80
52380,note_on,84,0,1,,,,,,,,0,,,87,80
52380,note_on,0,0,4,,,,,,,,0,,,46,80
52380,note_on,0,0,4,,,,,,,,0,,,58,80
52380,note_on,84,0,4,,,,,,,,0,,,55,80
52428,note_on,0,0,4,,,,,,,,0,,,55,0
52428,note_on,0,0,4,,,,,,,,0,,,58,0
52428,note_on,0,0,1,,,,,,,,0,,,87,0
52428,note_on,48,0,1,,,,,,,,0,,,79,0
52428,note_on,0,0,1,,,,,,,,0,,,91,0
52428,note_on,48,0,4,,,,,,,,0,,,46,0
52440,note_on,0,0,1,,,,,,,,0,,,79,80
52440,note_on,0,0,4,,,,,,,,0,,,55,80
52440,note_on,0,0,4,,,,,,,,0,,,46,80
52440,note_on,12,0,4,,,,,,,,0,,,58,80
52440,note_on,12,0,1,,,,,,,,0,,,91,80
52440,note_on,0,0,1,,,,,,,,0,,,87,80
52536,note_on,0,0,1,,,,,,,,0,,,79,0
52536,note_on,0,0,1,,,,,,,,0,,,91,0
52536,note_on,96,0,4,,,,,,,,0,,,55,0
52536,note_on,96,0,1,,,,,,,,0,,,87,0
52536,note_on,0,0,4,,,,,,,,0,,,58,0
52536,note_on,0,0,4,,,,,,,,0,,,46,0
52560,note_on,24,0,4,,,,,,,,0,,,60,80
52560,note_on,0,0,1,,,,,,,,0,,,91,80
52560,note_on,0,0,1,,,,,,,,0,,,87,80
52560,note_on,0,0,4,,,,,,,,0,,,55,80
52560,note_on,0,0,4,,,,,,,,0,,,48,80
52560,control_change,0,0,4,,,,,,,,0,64,0,,
52560,note_on,24,0,1,,,,,,,,0,,,79,80
52581,control_change,21,0,4,,,,,,,,0,64,127,,
52656,note_on,0,0,1,,,,,,,,0,,,87,0
52656,note_on,0,0,1,,,,,,,,0,,,79,0
52656,note_on,75,0,4,,,,,,,,0,,,48,0
52656,note_on,0,0,4,,,,,,,,0,,,55,0
52656,note_on,0,0,4,,,,,,,,0,,,60,0
52656,note_on,96,0,1,,,,,,,,0,,,91,0
52740,note_on,84,0,4,,,,,,,,0,,,60,80
52740,note_on,84,0,1,,,,,,,,0,,,87,80
52740,note_on,0,0,4,,,,,,,,0,,,55,80
52740,note_on,0,0,1,,,,,,,,0,,,75,80
52740,note_on,0,0,4,,,,,,,,0,,,63,80
52740,note_on,0,0,1,,,,,,,,0,,,84,80
52788,note_on,48,0,4,,,,,,,,0,,,63,0
52788,note_on,0,0,1,,,,,,,,0,,,84,0
52788,note_on,0,0,1,,,,,,,,0,,,87,0
52788,note_on,0,0,4,,,,,,,,0,,,60,0
52788,note_on,0,0,4,,,,,,,,0,,,55,0
52788,note_on,48,0,1,,,,,,,,0,,,75,0
52800,note_on,0,0,4,,,,,,,,0,,,63,80
52800,note_on,0,0,4,,,,,,,,0,,,55,80
52800,note_on,12,0,4,,,,,,,,0,,,60,80
52800,note_on,12,0,1,,,,,,,,0,,,87,80
52800,note_on,0,0,1,,,,,,,,0,,,75,80
52800,note_on,0,0,1,,,,,,,,0,,,84,80
52896,note_on,0,0,4,,,,,,,,0,,,55,0
52896,note_on,0,0,1,,,,,,,,0,,,87,0
52896,note_on,96,0,1,,,,,,,,0,,,84,0
52896,note_on,96,0,4,,,,,,,,0,,,63,0
52896,note_on,0,0,1,,,,,,,,0,,,75,0
52896,note_on,0,0,4,,,,,,,,0,,,60,0
52920,note_on,0,0,4,,,,,,,,0,,,63,80
52920,note_on,0,0,4,,,,,,,,0,,,60,80
52920,note_on,0,0,1,,,,,,,,0,,,87,80
52920,note_on,0,0,1,,,,,,,,0,,,84,80
52920,note_on,24,0,1,,,,,,,,0,,,75,80
52920,note_on,24,0,4,,,,,,,,0,,,55,80
53061,control_change,141,0,4,,,,,,,,0,64,0,,
53208,note_on,0,0,4,,,,,,,,0,,,55,0
53208,note_on,0,0,4,,,,,,,,0,,,63,0
53208,note_on,0,0,1,,,,,,,,0,,,84,0
53208,note_on,0,0,1,,,,,,,,0,,,75,0
53208,note_on,147,0,4,,,,,,,,0,,,60,0
53208,note_on,288,0,1,,,,,,,,0,,,87,0
53280,note_on,0,0,4,,,,,,,,0,,,43,80
53280,note_on,0,0,4,,,,,,,,0,,,55,80
53280,note_on,0,0,1,,,,,,,,0,,,83,80
53280,control_change,0,0,4,,,,,,,,0,64,127,,
53280,note_on,0,0,1,,,,,,,,0,,,86,80
53280,note_on,72,0,1,,,,,,,,0,,,95,80
53280,note_on,72,0,4,,,,,,,,0,,,50,80
53376,note_on,0,0,1,,,,,,,,0,,,83,0
53376,note_on,0,0,1,,,,,,,,0,,,95,0
53376,note_on,0,0,4,,,,,,,,0,,,55,0
53376,note_on,0,0,4,,,,,,,,0,,,50,0
53376,note_on,96,0,4,,,,,,,,0,,,43,0
53376,note_on,96,0,1,,,,,,,,0,,,86,0
53460,note_on,0,0,4,,,,,,,,0,,,59,80
53460,note_on,0,0,4,,,,,,,,0,,,62,80
53460,note_on,0,0,1,,,,,,,,0,,,74,80
53460,note_on,0,0,1,,,,,,,,0,,,86,80
53460,note_on,84,0,1,,,,,,,,0,,,83,80
53460,note_on,84,0,4,,,,,,,,0,,,55,80
53508,note_on,48,0,1,,,,,,,,0,,,74,0
53508,note_on,48,0,4,,,,,,,,0,,,62,0
53508,note_on,0,0,1,,,,,,,,0,,,83,0
53508,note_on,0,0,4,,,,,,,,0,,,55,0
53508,note_on,0,0,4,,,,,,,,0,,,59,0
53508,note_on,0,0,1,,,,,,,,0,,,86,0
53520,note_on,0,0,1,,,,,,,,0,,,86,80
53520,note_on,12,0,4,,,,,,,,0,,,59,80
53520,note_on,12,0,1,,,,,,,,0,,,83,80
53520,note_on,0,0,1,,,,,,,,0,,,74,80
53520,note_on,0,0,4,,,,,,,,0,,,62,80
53520,note_on,0,0,4,,,,,,,,0,,,55,80
53616,note_on,0,0,1,,,,,,,,0,,,74,0
53616,note_on,0,0,1,,,,,,,,0,,,83,0
53616,note_on,0,0,4,,,,,,,,0,,,59,0
53616,note_on,0,0,4,,,,,,,,0,,,62,0
53616,note_on,96,0,4,,,,,,,,0,,,55,0
53616,note_on,96,0,1,,,,,,,,0,,,86,0
53640,note_on,0,0,1,,,,,,,,0,,,82,80
53640,note_on,0,0,1,,,,,,,,0,,,85,80
53640,note_on,24,0,4,,,,,,,,0,,,61,80
53640,note_on,0,0,4,,,,,,,,0,,,55,80
53640,note_on,0,0,4,,,,,,,,0,,,58,80
53640,note_on,24,0,1,,,,,,,,0,,,73,80
53736,note_on,96,0,1,,,,,,,,0,,,85,0
53736,note_on,0,0,4,,,,,,,,0,,,58,0
53736,note_on,0,0,1,,,,,,,,0,,,82,0
53736,note_on,0,0,1,,,,,,,,0,,,73,0
53736,note_on,0,0,4,,,,,,,,0,,,61,0
53736,note_on,96,0,4,,,,,,,,0,,,55,0
53760,note_on,24,0,1,,,,,,,,0,,,83,80
53760,note_on,24,0,4,,,,,,,,0,,,62,80
53760,note_on,0,0,1,,,,,,,,0,,,86,80
53760,note_on,0,0,1,,,,,,,,0,,,74,80
53760,note_on,0,0,4,,,,,,,,0,,,55,80
53760,note_on,0,0,4,,,,,,,,0,,,59,80
53856,note_on,0,0,1,,,,,,,,0,,,86,0
53856,note_on,0,0,1,,,,,,,,0,,,83,0
53856,note_on,0,0,4,,,,,,,,0,,,59,0
53856,note_on,96,0,1,,,,,,,,0,,,74,0
53856,note_on,96,0,4,,,,,,,,0,,,55,0
53856,note_on,0,0,4,,,,,,,,0,,,62,0
53880,note_on,24,0,1,,,,,,,,0,,,83,80
53880,note_on,0,0,1,,,,,,,,0,,,79,80
53880,note_on,0,0,1,,,,,,,,0,,,91,80
53880,note_on,0,0,4,,,,,,,,0,,,67,80
53880,note_on,0,0,4,,,,,,,,0,,,62,80
53880,note_on,24,0,4,,,,,,,,0,,,55,80
53926,control_change,46,0,4,,,,,,,,0,64,0,,
53976,note_on,50,0,4,,,,,,,,0,,,62,0
53976,note_on,0,0,1,,,,,,,,0,,,83,0
53976,note_on,0,0,1,,,,,,,,0,,,79,0
53976,note_on,96,0,1,,,,,,,,0,,,91,0
53976,note_on,0,0,4,,,,,,,,0,,,55,0
53976,note_on,0,0,4,,,,,,,,0,,,67,0
54000,note_on,0,0,1,,,,,,,,0,,,86,80
54000,note_on,0,0,1,,,,,,,,0,,,95,80
54000,note_on,0,0,4,,,,,,,,0,,,54,80
54000,control_change,0,0,4,,,,,,,,0,64,127,,
54000,note_on,0,0,4,,,,,,,,0,,,47,80
54000,note_on,24,0,1,,,,,,,,0,,,83,80
54000,note_on,24,0,4,,,,,,,,0,,,59,80
54096,note_on,0,0,1,,,,,,,,0,,,95,0
54096,note_on,96,0,1,,,,,,,,0,,,86,0
54096,note_on,0,0,1,,,,,,,,0,,,83,0
54096,note_on,96,0,4,,,,,,,,0,,,54,0
54096,note_on,0,0,4,,,,,,,,0,,,47,0
54096,note_on,0,0,4,,,,,,,,0,,,59,0
54180,note_on,84,0,1,,,,,,,,0,,,86,80
54180,note_on,0,0,1,,,,,,,,0,,,90,80
54180,note_on,84,0,4,,,,,,,,0,,,66,80
54180,note_on,0,0,1,,,,,,,,0,,,78,80
54180,note_on,0,0,4,,,,,,,,0,,,59,80
54180,note_on,0,0,4,,,,,,,,0,,,62,80
54228,note_on,0,0,4,,,,,,,,0,,,66,0
54228,note_on,0,0,1,,,,,,,,0,,,90,0
54228,note_on,48,0,4,,,,,,,,0,,,59,0
54228,note_on,48,0,1,,,,,,,,0,,,78,0
54228,note_on,0,0,4,,,,,,,,0,,,62,0
54228,note_on,0,0,1,,,,,,,,0,,,86,0
54240,note_on,0,0,4,,,,,,,,0,,,66,80
54240,note_on,0,0,1,,,,,,,,0,,,86,80
54240,note_on,12,0,1,,,,,,,,0,,,90,80
54240,note_on,12,0,4,,,,,,,,0,,,62,80
54240,note_on,0,0,4,,,,,,,,0,,,59,80
54240,note_on,0,0,1,,,,,,,,0,,,78,80
54336,note_on,0,0,1,,,,,,,,0,,,78,0
54336,note_on,96,0,1,,,,,,,,0,,,86,0
54336,note_on,96,0,4,,,,,,,,0,,,59,0
54336,note_on,0,0,4,,,,,,,,0,,,66,0
54336,note_on,0,0,4,,,,,,,,0,,,62,0
54336,note_on,0,0,1,,,,,,,,0,,,90,0
54360,note_on,0,0,1,,,,,,,,0,,,78,80
54360,note_on,24,0,4,,,,,,,,0,,,66,80
54360,note_on,0,0,1,,,,,,,,0,,,86,80
54360,note_on,0,0,4,,,,,,,,0,,,59,80
54360,note_on,0,0,4,,,,,,,,0,,,62,80
54360,note_on,24,0,1,,,,,,,,0,,,90,80
54480,control_change,120,0,4,,,,,,,,0,64,0,,
54648,note_on,0,0,4,,,,,,,,0,,,59,0
54648,note_on,0,0,4,,,,,,,,0,,,66,0
54648,note_on,0,0,1,,,,,,,,0,,,90,0
54648,note_on,0,0,1,,,,,,,,0,,,86,0
54648,note_on,288,0,1,,,,,,,,0,,,78,0
54648,note_on,168,0,4,,,,,,,,0,,,62,0
54720,note_on,0,0,1,,,,,,,,0,,,94,80
54720,note_on,0,0,1,,,,,,,,0,,,82,80
54720,note_on,72,0,1,,,,,,,,0,,,85,80
54720,note_on,72,0,4,,,,,,,,0,,,49,80
54720,note_on,0,0,4,,,,,,,,0,,,42,80
54720,note_on,0,0,4,,,,,,,,0,,,54,80
54724,control_change,4,0,4,,,,,,,,0,64,127,,
54816,note_on,0,0,4,,,,,,,,0,,,49,0
54816,note_on,96,0,1,,,,,,,,0,,,82,0
54816,note_on,0,0,4,,,,,,,,0,,,42,0
54816,note_on,92,0,4,,,,,,,,0,,,54,0
54816,note_on,0,0,1,,,,,,,,0,,,94,0
54816,note_on,0,0,1,,,,,,,,0,,,85,0
54900,note_on,84,0,1,,,,,,,,0,,,85,80
54900,note_on,0,0,4,,,,,,,,0,,,54,80
54900,note_on,0,0,4,,,,,,,,0,,,61,80
54900,note_on,0,0,1,,,,,,,,0,,,82,80
54900,note_on,0,0,1,,,,,,,,0,,,73,80
54900,note_on,84,0,4,,,,,,,,0,,,58,80
54948,note_on,0,0,1,,,,,,,,0,,,85,0
54948,note_on,48,0,4,,,,,,,,0,,,61,0
54948,note_on,0,0,4,,,,,,,,0,,,58,0
54948,note_on,0,0,1,,,,,,,,0,,,82,0
54948,note_on,0,0,4,,,,,,,,0,,,54,0
54948,note_on,48,0,1,,,,,,,,0,,,73,0
54960,note_on,0,0,1,,,,,,,,0,,,82,80
54960,note_on,0,0,1,,,,,,,,0,,,73,80
54960,note_on,12,0,4,,,,,,,,0,,,61,80
54960,note_on,12,0,1,,,,,,,,0,,,85,80
54960,note_on,0,0,4,,,,,,,,0,,,58,80
54960,note_on,0,0,4,,,,,,,,0,,,54,80
55056,note_on,0,0,1,,,,,,,,0,,,85,0
55056,note_on,96,0,4,,,,,,,,0,,,54,0
55056,note_on,0,0,4,,,,,,,,0,,,58,0
55056,note_on,0,0,4,,,,,,,,0,,,61,0
55056,note_on,96,0,1,,,,,,,,0,,,73,0
55056,note_on,0,0,1,,,,,,,,0,,,82,0
55080,note_on,0,0,1,,,,,,,,0,,,84,80
55080,note_on,24,0,4,,,,,,,,0,,,60,80
55080,note_on,0,0,1,,,,,,,,0,,,72,80
55080,note_on,24,0,1,,,,,,,,0,,,81,80
55080,note_on,0,0,4,,,,,,,,0,,,57,80
55080,note_on,0,0,4,,,,,,,,0,,,54,80
55176,note_on,96,0,4,,,,,,,,0,,,54,0
55176,note_on,96,0,1,,,,,,,,0,,,72,0
55176,note_on,0,0,1,,,,,,,,0,,,81,0
55176,note_on,0,0,1,,,,,,,,0,,,84,0
55176,note_on,0,0,4,,,,,,,,0,,,60,0
55176,note_on,0,0,4,,,,,,,,0,,,57,0
55200,note_on,0,0,1,,,,,,,,0,,,85,80
55200,note_on,24,0,4,,,,,,,,0,,,61,80
55200,note_on,0,0,1,,,,,,,,0,,,82,80
55200,note_on,24,0,1,,,,,,,,0,,,73,80
55200,note_on,0,0,4,,,,,,,,0,,,54,80
55200,note_on,0,0,4,,,,,,,,0,,,58,80
55296,note_on,96,0,1,,,,,,,,0,,,82,0
55296,note_on,0,0,1,,,,,,,,0,,,73,0
55296,note_on,0,0,1,,,,,,,,0,,,85,0
55296,note_on,96,0,4,,,,,,,,0,,,54,0
55296,note_on,0,0,4,,,,,,,,0,,,58,0
55296,note_on,0,0,4,,,,,,,,0,,,61,0
55320,note_on,0,0,4,,,,,,,,0,,,61,80
55320,note_on,0,0,1,,,,,,,,0,,,78,80
55320,note_on,0,0,1,,,,,,,,0,,,90,80
55320,note_on,0,0,4,,,,,,,,0,,,54,80
55320,note_on,24,0,1,,,,,,,,0,,,82,80
55320,note_on,24,0,4,,,,,,,,0,,,66,80
55408,control_change,88,0,4,,,,,,,,0,64,0,,
55416,note_on,96,0,1,,,,,,,,0,,,90,0
55416,note_on,0,0,4,,,,,,,,0,,,61,0
55416,note_on,8,0,4,,,,,,,,0,,,54,0
55416,note_on,0,0,1,,,,,,,,0,,,78,0
55416,note_on,0,0,1,,,,,,,,0,,,82,0
55416,note_on,0,0,4,,,,,,,,0,,,66,0
55440,control_change,0,0,4,,,,,,,,0,64,127,,
55440,note_on,0,0,1,,,,,,,,0,,,94,80
55440,note_on,0,0,4,,,,,,,,0,,,53,80
55440,note_on,0,0,4,,,,,,,,0,,,58,80
55440,note_on,24,0,1,,,,,,,,0,,,85,80
55440,note_on,24,0,4,,,,,,,,0,,,46,80
55440,note_on,0,0,1,,,,,,,,0,,,82,80
55536,note_on,0,0,4,,,,,,,,0,,,53,0
55536,note_on,0,0,1,,,,,,,,0,,,85,0
55536,note_on,96,0,4,,,,,,,,0,,,58,0
55536,note_on,96,0,1,,,,,,,,0,,,82,0
55536,note_on,0,0,4,,,,,,,,0,,,46,0
55536,note_on,0,0,1,,,,,,,,0,,,94,0
55620,note_on,0,0,1,,,,,,,,0,,,89,80
55620,note_on,0,0,4,,,,,,,,0,,,61,80
55620,note_on,0,0,4,,,,,,,,0,,,65,80
55620,note_on,84,0,4,,,,,,,,0,,,58,80
55620,note_on,0,0,1,,,,,,,,0,,,77,80
55620,note_on,84,0,1,,,,,,,,0,,,85,80
55668,note_on,48,0,1,,,,,,,,0,,,77,0
55668,note_on,0,0,4,,,,,,,,0,,,65,0
55668,note_on,0,0,1,,,,,,,,0,,,85,0
55668,note_on,0,0,1,,,,,,,,0,,,89,0
55668,note_on,0,0,4,,,,,,,,0,,,58,0
55668,note_on,48,0,4,,,,,,,,0,,,61,0
55680,note_on,0,0,4,,,,,,,,0,,,61,80
55680,note_on,0,0,1,,,,,,,,0,,,85,80
55680,note_on,12,0,4,,,,,,,,0,,,65,80
55680,note_on,12,0,1,,,,,,,,0,,,89,80
55680,note_on,0,0,4,,,,,,,,0,,,58,80
55680,note_on,0,0,1,,,,,,,,0,,,77,80
55776,note_on,96,0,4,,,,,,,,0,,,61,0
55776,note_on,96,0,1,,,,,,,,0,,,85,0
55776,note_on,0,0,1,,,,,,,,0,,,77,0
55776,note_on,0,0,1,,,,,,,,0,,,89,0
55776,note_on,0,0,4,,,,,,,,0,,,65,0
55776,note_on,0,0,4,,,,,,,,0,,,58,0
55800,note_on,0,0,4,,,,,,,,0,,,58,80
55800,note_on,0,0,1,,,,,,,,0,,,77,80
55800,note_on,0,0,1,,,,,,,,0,,,85,80
55800,note_on,0,0,4,,,,,,,,0,,,61,80
55800,note_on,24,0,1,,,,,,,,0,,,89,80
55800,note_on,24,0,4,,,,,,,,0,,,65,80
55920,control_change,120,0,4,,,,,,,,0,64,0,,
56088,note_on,0,0,1,,,,,,,,0,,,85,0
56088,note_on,0,0,1,,,,,,,,0,,,89,0
56088,note_on,0,0,4,,,,,,,,0,,,58,0
56088,note_on,0,0,4,,,,,,,,0,,,65,0
56088,note_on,288,0,1,,,,,,,,0,,,77,0
56088,note_on,168,0,4,,,,,,,,0,,,61,0
56160,note_on,0,0,1,,,,,,,,0,,,81,80
56160,control_change,0,0,4,,,,,,,,0,64,127,,
56160,note_on,0,0,1,,,,,,,,0,,,93,80
56160,note_on,0,0,4,,,,,,,,0,,,48,80
56160,note_on,0,0,4,,,,,,,,0,,,41,80
56160,note_on,72,0,4,,,,,,,,0,,,53,80
56160,note_on,72,0,1,,,,,,,,0,,,84,80
56256,note_on,0,0,4,,,,,,,,0,,,53,0
56256,note_on,0,0,1,,,,,,,,0,,,84,0
56256,note_on,0,0,1,,,,,,,,0,,,81,0
56256,note_on,0,0,4,,,,,,,,0,,,41,0
56256,note_on,96,0,4,,,,,,,,0,,,48,0
56256,note_on,96,0,1,,,,,,,,0,,,93,0
56340,note_on,84,0,4,,,,,,,,0,,,60,80
56340,note_on,0,0,1,,,,,,,,0,,,84,80
56340,note_on,84,0,1,,,,,,,,0,,,81,80
56340,note_on,0,0,4,,,,,,,,0,,,57,80
56340,note_on,0,0,1,,,,,,,,0,,,72,80
56388,note_on,0,0,1,,,,,,,,0,,,81,0
56388,note_on,48,0,4,,,,,,,,0,,,57,0
56388,note_on,48,0,1,,,,,,,,0,,,84,0
56388,note_on,0,0,4,,,,,,,,0,,,60,0
56388,note_on,0,0,1,,,,,,,,0,,,72,0
56400,note_on,12,0,4,,,,,,,,0,,,57,80
56400,note_on,0,0,4,,,,,,,,0,,,60,80
56400,note_on,12,0,1,,,,,,,,0,,,81,80
56400,note_on,0,0,1,,,,,,,,0,,,72,80
56400,note_on,0,0,1,,,,,,,,0,,,84,80
56453,control_change,53,0,4,,,,,,,,0,64,0,,
56496,note_on,43,0,4,,,,,,,,0,,,60,0
56496,note_on,0,0,4,,,,,,,,0,,,57,0
56496,note_on,0,0,1,,,,,,,,0,,,81,0
56496,note_on,0,0,1,,,,,,,,0,,,72,0
56496,note_on,96,0,1,,,,,,,,0,,,84,0
56509,control_change,13,0,4,,,,,,,,0,64,127,,
56520,note_on,11,0,4,,,,,,,,0,,,57,80
56520,note_on,24,0,1,,,,,,,,0,,,84,80
56520,note_on,0,0,4,,,,,,,,0,,,45,80
56520,note_on,0,0,1,,,,,,,,0,,,76,80
56520,note_on,0,0,4,,,,,,,,0,,,52,80
56520,note_on,0,0,1,,,,,,,,0,,,88,80
56616,note_on,0,0,1,,,,,,,,0,,,84,0
56616,note_on,0,0,1,,,,,,,,0,,,76,0
56616,note_on,0,0,4,,,,,,,,0,,,57,0
56616,note_on,96,0,4,,,,,,,,0,,,45,0
56616,note_on,96,0,1,,,,,,,,0,,,88,0
56616,note_on,0,0,4,,,,,,,,0,,,52,0
56700,note_on,84,0,4,,,,,,,,0,,,57,80
56700,note_on,0,0,1,,,,,,,,0,,,87,80
56700,note_on,0,0,1,,,,,,,,0,,,83,80
56700,note_on,84,0,1,,,,,,,,0,,,75,80
56700,note_on,0,0,4,,,,,,,,0,,,59,80
56700,note_on,0,0,4,,,,,,,,0,,,63,80
56748,note_on,0,0,4,,,,,,,,0,,,63,0
56748,note_on,0,0,1,,,,,,,,0,,,75,0
56748,note_on,48,0,1,,,,,,,,0,,,87,0
56748,note_on,0,0,1,,,,,,,,0,,,83,0
56748,note_on,48,0,4,,,,,,,,0,,,59,0
56748,note_on,0,0,4,,,,,,,,0,,,57,0
56760,note_on,12,0,1,,,,,,,,0,,,76,80
56760,note_on,0,0,4,,,,,,,,0,,,57,80
56760,note_on,0,0,4,,,,,,,,0,,,64,80
56760,note_on,12,0,4,,,,,,,,0,,,60,80
56760,note_on,0,0,1,,,,,,,,0,,,84,80
56760,note_on,0,0,1,,,,,,,,0,,,88,80
56845,control_change,85,0,4,,,,,,,,0,64,0,,
56856,note_on,0,0,1,,,,,,,,0,,,88,0
56856,note_on,0,0,4,,,,,,,,0,,,60,0
56856,note_on,0,0,4,,,,,,,,0,,,57,0
56856,note_on,11,0,4,,,,,,,,0,,,64,0
56856,note_on,96,0,1,,,,,,,,0,,,84,0
56856,note_on,0,0,1,,,,,,,,0,,,76,0
56880,note_on,24,0,1,,,,,,,,0,,,80,80
56880,note_on,0,0,4,,,,,,,,0,,,52,80
56880,note_on,24,0,4,,,,,,,,0,,,40,80
56880,note_on,0,0,1,,,,,,,,0,,,83,80
56880,note_on,0,0,4,,,,,,,,0,,,47,80
56880,note_on,0,0,1,,,,,,,,0,,,92,80
56887,control_change,7,0,4,,,,,,,,0,64,127,,
56976,note_on,0,0,1,,,,,,,,0,,,83,0
56976,note_on,0,0,1,,,,,,,,0,,,80,0
56976,note_on,0,0,4,,,,,,,,0,,,47,0
56976,note_on,89,0,4,,,,,,,,0,,,52,0
56976,note_on,96,0,1,,,,,,,,0,,,92,0
56976,note_on,0,0,4,,,,,,,,0,,,40,0
57060,note_on,0,0,1,,,,,,,,0,,,80,80
57060,note_on,0,0,1,,,,,,,,0,,,71,80
57060,note_on,0,0,4,,,,,,,,0,,,56,80
57060,note_on,84,0,1,,,,,,,,0,,,83,80
57060,note_on,84,0,4,,,,,,,,0,,,59,80
57108,note_on,48,0,4,,,,,,,,0,,,56,0
57108,note_on,0,0,4,,,,,,,,0,,,59,0
57108,note_on,48,0,1,,,,,,,,0,,,71,0
57108,note_on,0,0,1,,,,,,,,0,,,80,0
57108,note_on,0,0,1,,,,,,,,0,,,83,0
57120,note_on,12,0,4,,,,,,,,0,,,56,80
57120,note_on,0,0,1,,,,,,,,0,,,71,80
57120,note_on,0,0,4,,,,,,,,0,,,59,80
57120,note_on,12,0,1,,,,,,,,0,,,83,80
57120,note_on,0,0,1,,,,,,,,0,,,80,80
57208,control_change,88,0,4,,,,,,,,0,64,0,,
57216,note_on,0,0,1,,,,,,,,0,,,83,0
57216,note_on,0,0,4,,,,,,,,0,,,56,0
57216,note_on,8,0,4,,,,,,,,0,,,59,0
57216,note_on,96,0,1,,,,,,,,0,,,71,0
57216,note_on,0,0,1,,,,,,,,0,,,80,0
57240,note_on,0,0,1,,,,,,,,0,,,87,80
57240,note_on,0,0,1,,,,,,,,0,,,83,80
57240,note_on,24,0,4,,,,,,,,0,,,56,80
57240,note_on,0,0,4,,,,,,,,0,,,51,80
57240,note_on,24,0,1,,,,,,,,0,,,75,80
57240,note_on,0,0,4,,,,,,,,0,,,44,80
57254,control_change,14,0,4,,,,,,,,0,64,127,,
57336,note_on,0,0,1,,,,,,,,0,,,75,0
57336,note_on,82,0,4,,,,,,,,0,,,44,0
57336,note_on,0,0,1,,,,,,,,0,,,83,0
57336,note_on,0,0,4,,,,,,,,0,,,56,0
57336,note_on,0,0,4,,,,,,,,0,,,51,0
57336,note_on,96,0,1,,,,,,,,0,,,87,0
57420,note_on,0,0,1,,,,,,,,0,,,83,80
57420,note_on,84,0,1,,,,,,,,0,,,74,80
57420,note_on,0,0,1,,,,,,,,0,,,86,80
57420,note_on,84,0,4,,,,,,,,0,,,56,80
57420,note_on,0,0,4,,,,,,,,0,,,59,80
57420,note_on,0,0,4,,,,,,,,0,,,62,80
57468,note_on,0,0,4,,,,,,,,0,,,56,0
57468,note_on,0,0,1,,,,,,,,0,,,83,0
57468,note_on,48,0,4,,,,,,,,0,,,62,0
57468,note_on,48,0,1,,,,,,,,0,,,86,0
57468,note_on,0,0,1,,,,,,,,0,,,74,0
57468,note_on,0,0,4,,,,,,,,0,,,59,0
57480,note_on,0,0,1,,,,,,,,0,,,83,80
57480,note_on,12,0,1,,,,,,,,0,,,75,80
57480,note_on,0,0,1,,,,,,,,0,,,87,80
57480,note_on,12,0,4,,,,,,,,0,,,56,80
57480,note_on,0,0,4,,,,,,,,0,,,63,80
57480,note_on,0,0,4,,,,,,,,0,,,59,80
57568,control_change,88,0,4,,,,,,,,0,64,0,,
57576,note_on,0,0,1,,,,,,,,0,,,75,0
57576,note_on,0,0,1,,,,,,,,0,,,83,0
57576,note_on,8,0,4,,,,,,,,0,,,63,0
57576,note_on,0,0,4,,,,,,,,0,,,56,0
57576,note_on,0,0,4,,,,,,,,0,,,59,0
57576,note_on,96,0,1,,,,,,,,0,,,87,0
57600,note_on,24,0,1,,,,,,,,0,,,91,80
57600,note_on,0,0,1,,,,,,,,0,,,79,80
57600,note_on,0,0,1,,,,,,,,0,,,82,80
57600,control_change,24,0,4,,,,,,,,0,64,127,,
57600,note_on,0,0,4,,,,,,,,0,,,51,80
57600,note_on,0,0,4,,,,,,,,0,,,46,80
57600,note_on,0,0,4,,,,,,,,0,,,39,80
57696,note_on,96,0,1,,,,,,,,0,,,79,0
57696,note_on,96,0,4,,,,,,,,0,,,39,0
57696,note_on,0,0,4,,,,,,,,0,,,51,0
57696,note_on,0,0,4,,,,,,,,0,,,46,0
57696,note_on,0,0,1,,,,,,,,0,,,82,0
57696,note_on,0,0,1,,,,,,,,0,,,91,0
57780,note_on,84,0,1,,,,,,,,0,,,79,80
57780,note_on,84,0,4,,,,,,,,0,,,67,80
57780,note_on,0,0,1,,,,,,,,0,,,70,80
57780,note_on,0,0,1,,,,,,,,0,,,75,80
57780,note_on,0,0,4,,,,,,,,0,,,63,80
57780,note_on,0,0,4,,,,,,,,0,,,58,80
57828,note_on,0,0,4,,,,,,,,0,,,63,0
57828,note_on,48,0,1,,,,,,,,0,,,70,0
57828,note_on,0,0,1,,,,,,,,0,,,79,0
57828,note_on,0,0,1,,,,,,,,0,,,75,0
57828,note_on,48,0,4,,,,,,,,0,,,58,0
57828,note_on,0,0,4,,,,,,,,0,,,67,0
57840,note_on,12,0,1,,,,,,,,0,,,75,80
57840,note_on,0,0,1,,,,,,,,0,,,70,80
57840,note_on,0,0,1,,,,,,,,0,,,79,80
57840,note_on,0,0,4,,,,,,,,0,,,67,80
57840,note_on,0,0,4,,,,,,,,0,,,58,80
57840,note_on,12,0,4,,,,,,,,0,,,63,80
57936,note_on,96,0,4,,,,,,,,0,,,58,0
57936,note_on,0,0,4,,,,,,,,0,,,63,0
57936,note_on,0,0,4,,,,,,,,0,,,67,0
57936,note_on,0,0,1,,,,,,,,0,,,75,0
57936,note_on,0,0,1,,,,,,,,0,,,70,0
57936,note_on,96,0,1,,,,,,,,0,,,79,0
57939,control_change,3,0,4,,,,,,,,0,64,0,,
57960,note_on,24,0,1,,,,,,,,0,,,78,80
57960,note_on,0,0,1,,,,,,,,0,,,90,80
57960,note_on,0,0,4,,,,,,,,0,,,39,80
57960,note_on,0,0,4,,,,,,,,0,,,46,80
57960,note_on,21,0,4,,,,,,,,0,,,51,80
57976,control_change,16,0,4,,,,,,,,0,64,127,,
58056,note_on,0,0,1,,,,,,,,0,,,78,0
58056,note_on,80,0,4,,,,,,,,0,,,39,0
58056,note_on,96,0,1,,,,,,,,0,,,90,0
58056,note_on,0,0,4,,,,,,,,0,,,51,0
58056,note_on,0,0,4,,,,,,,,0,,,46,0
58140,note_on,84,0,1,,,,,,,,0,,,78,80
58140,note_on,0,0,1,,,,,,,,0,,,75,80
58140,note_on,0,0,4,,,,,,,,0,,,66,80
58140,note_on,0,0,4,,,,,,,,0,,,63,80
58140,note_on,84,0,4,,,,,,,,0,,,58,80
58140,note_on,0,0,1,,,,,,,,0,,,70,80
58188,note_on,0,0,1,,,,,,,,0,,,78,0
58188,note_on,48,0,4,,,,,,,,0,,,63,0
58188,note_on,0,0,1,,,,,,,,0,,,75,0
58188,note_on,0,0,4,,,,,,,,0,,,58,0
58188,note_on,48,0,1,,,,,,,,0,,,70,0
58188,note_on,0,0,4,,,,,,,,0,,,66,0
58200,note_on,0,0,4,,,,,,,,0,,,63,80
58200,note_on,0,0,1,,,,,,,,0,,,75,80
58200,note_on,0,0,1,,,,,,,,0,,,70,80
58200,note_on,0,0,4,,,,,,,,0,,,58,80
58200,note_on,12,0,4,,,,,,,,0,,,66,80
58200,note_on,12,0,1,,,,,,,,0,,,78,80
58296,note_on,0,0,1,,,,,,,,0,,,70,0
58296,note_on,0,0,4,,,,,,,,0,,,66,0
58296,note_on,0,0,4,,,,,,,,0,,,58,0
58296,note_on,96,0,1,,,,,,,,0,,,75,0
58296,note_on,96,0,4,,,,,,,,0,,,63,0
58296,note_on,0,0,1,,,,,,,,0,,,78,0
58320,note_on,0,0,4,,,,,,,,0,,,44,80
58320,note_on,0,0,1,,,,,,,,0,,,76,80
58320,note_on,0,0,1,,,,,,,,0,,,88,80
58320,note_on,0,0,4,,,,,,,,0,,,47,80
58320,control_change,24,0,4,,,,,,,,0,64,0,,
58320,note_on,24,0,1,,,,,,,,0,,,80,80
58320,note_on,0,0,4,,,,,,,,0,,,35,80
58348,control_change,28,0,4,,,,,,,,0,64,127,,
58416,note_on,0,0,1,,,,,,,,0,,,88,0
58416,note_on,0,0,1,,,,,,,,0,,,80,0
58416,note_on,0,0,4,,,,,,,,0,,,44,0
58416,note_on,96,0,1,,,,,,,,0,,,76,0
58416,note_on,68,0,4,,,,,,,,0,,,35,0
58416,note_on,0,0,4,,,,,,,,0,,,47,0
58500,note_on,0,0,1,,,,,,,,0,,,71,80
58500,note_on,0,0,4,,,,,,,,0,,,56,80
58500,note_on,0,0,4,,,,,,,,0,,,64,80
58500,note_on,84,0,4,,,,,,,,0,,,59,80
58500,note_on,84,0,1,,,,,,,,0,,,76,80
58500,note_on,0,0,1,,,,,,,,0,,,68,80
58548,note_on,48,0,1,,,,,,,,0,,,71,0
58548,note_on,48,0,4,,,,,,,,0,,,56,0
58548,note_on,0,0,1,,,,,,,,0,,,68,0
58548,note_on,0,0,1,,,,,,,,0,,,76,0
58548,note_on,0,0,4,,,,,,,,0,,,59,0
58548,note_on,0,0,4,,,,,,,,0,,,64,0
58560,note_on,0,0,1,,,,,,,,0,,,68,80
58560,note_on,12,0,4,,,,,,,,0,,,64,80
58560,note_on,0,0,4,,,,,,,,0,,,56,80
58560,note_on,0,0,4,,,,,,,,0,,,59,80
58560,note_on,12,0,1,,,,,,,,0,,,76,80
58560,note_on,0,0,1,,,,,,,,0,,,71,80
58652,control_change,92,0,4,,,,,,,,0,64,0,,
58656,note_on,0,0,4,,,,,,,,0,,,59,0
58656,note_on,96,0,1,,,,,,,,0,,,71,0
58656,note_on,0,0,1,,,,,,,,0,,,76,0
58656,note_on,0,0,4,,,,,,,,0,,,64,0
58656,note_on,4,0,4,,,,,,,,0,,,56,0
58656,note_on,0,0,1,,,,,,,,0,,,68,0
58680,note_on,0,0,1,,,,,,,,0,,,78,80
58680,note_on,0,0,1,,,,,,,,0,,,75,80
58680,note_on,0,0,4,,,,,,,,0,,,48,80
58680,note_on,24,0,4,,,,,,,,0,,,45,80
58680,note_on,24,0,1,,,,,,,,0,,,87,80
58680,note_on,0,0,4,,,,,,,,0,,,36,80
58691,control_change,11,0,4,,,,,,,,0,64,127,,
58776,note_on,96,0,1,,,,,,,,0,,,75,0
58776,note_on,0,0,4,,,,,,,,0,,,45,0
58776,note_on,0,0,1,,,,,,,,0,,,78,0
58776,note_on,85,0,4,,,,,,,,0,,,36,0
58776,note_on,0,0,1,,,,,,,,0,,,87,0
58776,note_on,0,0,4,,,,,,,,0,,,48,0
58860,note_on,0,0,1,,,,,,,,0,,,75,80
58860,note_on,0,0,4,,,,,,,,0,,,54,80
58860,note_on,0,0,4,,,,,,,,0,,,63,80
58860,note_on,84,0,4,,,,,,,,0,,,57,80
58860,note_on,84,0,1,,,,,,,,0,,,69,80
58860,note_on,0,0,1,,,,,,,,0,,,66,80
58908,note_on,0,0,4,,,,,,,,0,,,57,0
58908,note_on,48,0,1,,,,,,,,0,,,66,0
58908,note_on,48,0,4,,,,,,,,0,,,54,0
58908,note_on,0,0,4,,,,,,,,0,,,63,0
58908,note_on,0,0,1,,,,,,,,0,,,69,0
58908,note_on,0,0,1,,,,,,,,0,,,75,0
58920,note_on,0,0,4,,,,,,,,0,,,54,80
58920,note_on,0,0,4,,,,,,,,0,,,57,80
58920,note_on,0,0,1,,,,,,,,0,,,66,80
58920,note_on,12,0,4,,,,,,,,0,,,63,80
58920,note_on,12,0,1,,,,,,,,0,,,69,80
58920,note_on,0,0,1,,,,,,,,0,,,75,80
59001,control_change,81,0,4,,,,,,,,0,64,0,,
59016,note_on,0,0,4,,,,,,,,0,,,54,0
59016,note_on,96,0,1,,,,,,,,0,,,66,0
59016,note_on,15,0,4,,,,,,,,0,,,57,0
59016,note_on,0,0,4,,,,,,,,0,,,63,0
59016,note_on,0,0,1,,,,,,,,0,,,75,0
59016,note_on,0,0,1,,,,,,,,0,,,69,0
59040,note_on,0,0,4,,,,,,,,0,,,37,80
59040,note_on,24,0,1,,,,,,,,0,,,85,80
59040,control_change,0,0,4,,,,,,,,0,64,127,,
59040,note_on,0,0,1,,,,,,,,0,,,73,80
59040,note_on,24,0,4,,,,,,,,0,,,49,80
59136,note_on,0,0,1,,,,,,,,0,,,85,0
59136,note_on,0,0,4,,,,,,,,0,,,49,0
59136,note_on,96,0,1,,,,,,,,0,,,73,0
59136,note_on,96,0,4,,,,,,,,0,,,37,0
59220,note_on,0,0,1,,,,,,,,0,,,70,80
59220,note_on,0,0,1,,,,,,,,0,,,66,80
59220,note_on,84,0,4,,,,,,,,0,,,61,80
59220,note_on,0,0,4,,,,,,,,0,,,58,80
59220,note_on,0,0,4,,,,,,,,0,,,54,80
59220,note_on,84,0,1,,,,,,,,0,,,73,80
59268,note_on,0,0,1,,,,,,,,0,,,73,0
59268,note_on,0,0,4,,,,,,,,0,,,61,0
59268,note_on,48,0,1,,,,,,,,0,,,66,0
59268,note_on,0,0,1,,,,,,,,0,,,70,0
59268,note_on,48,0,4,,,,,,,,0,,,54,0
59268,note_on,0,0,4,,,,,,,,0,,,58,0
59280,note_on,12,0,1,,,,,,,,0,,,73,80
59280,note_on,0,0,1,,,,,,,,0,,,67,80
59280,note_on,0,0,1,,,,,,,,0,,,70,80
59280,note_on,0,0,4,,,,,,,,0,,,61,80
59280,note_on,0,0,4,,,,,,,,0,,,58,80
59280,note_on,12,0,4,,,,,,,,0,,,55,80
59365,control_change,85,0,4,,,,,,,,0,64,0,,
59376,note_on,11,0,4,,,,,,,,0,,,61,0
59376,note_on,0,0,1,,,,,,,,0,,,67,0
59376,note_on,0,0,1,,,,,,,,0,,,73,0
59376,note_on,96,0,1,,,,,,,,0,,,70,0
59376,note_on,0,0,4,,,,,,,,0,,,55,0
59376,note_on,0,0,4,,,,,,,,0,,,58,0
59396,control_change,20,0,4,,,,,,,,0,64,127,,
59400,note_on,4,0,4,,,,,,,,0,,,55,80
59400,note_on,0,0,1,,,,,,,,0,,,70,80
59400,note_on,0,0,4,,,,,,,,0,,,61,80
59400,note_on,0,0,4,,,,,,,,0,,,58,80
59400,note_on,24,0,1,,,,,,,,0,,,67,80
59400,note_on,0,0,1,,,,,,,,0,,,73,80
59496,note_on,96,0,4,,,,,,,,0,,,58,0
59496,note_on,0,0,1,,,,,,,,0,,,67,0
59496,note_on,0,0,1,,,,,,,,0,,,73,0
59496,note_on,0,0,4,,,,,,,,0,,,61,0
59496,note_on,0,0,4,,,,,,,,0,,,55,0
59496,note_on,96,0,1,,,,,,,,0,,,70,0
59580,note_on,84,0,4,,,,,,,,0,,,59,80
59580,note_on,0,0,1,,,,,,,,0,,,73,80
59580,note_on,84,0,1,,,,,,,,0,,,71,80
59580,note_on,0,0,4,,,,,,,,0,,,56,80
59580,note_on,0,0,4,,,,,,,,0,,,61,80
59580,note_on,0,0,1,,,,,,,,0,,,68,80
59628,note_on,48,0,1,,,,,,,,0,,,73,0
59628,note_on,0,0,4,,,,,,,,0,,,56,0
59628,note_on,0,0,4,,,,,,,,0,,,59,0
59628,note_on,0,0,1,,,,,,,,0,,,71,0
59628,note_on,0,0,1,,,,,,,,0,,,68,0
59628,note_on,48,0,4,,,,,,,,0,,,61,0
59640,note_on,0,0,4,,,,,,,,0,,,53,80
59640,note_on,0,0,4,,,,,,,,0,,,56,80
59640,note_on,12,0,4,,,,,,,,0,,,61,80
59640,note_on,0,0,1,,,,,,,,0,,,73,80
59640,note_on,0,0,1,,,,,,,,0,,,65,80
59640,note_on,12,0,1,,,,,,,,0,,,68,80
59728,control_change,88,0,4,,,,,,,,0,64,0,,
59736,note_on,8,0,4,,,,,,,,0,,,53,0
59736,note_on,0,0,4,,,,,,,,0,,,61,0
59736,note_on,96,0,1,,,,,,,,0,,,73,0
59736,note_on,0,0,1,,,,,,,,0,,,68,0
59736,note_on,0,0,1,,,,,,,,0,,,65,0
59736,note_on,0,0,4,,,,,,,,0,,,56,0
59760,note_on,0,0,1,,,,,,,,0,,,85,80
59760,note_on,24,0,4,,,,,,,,0,,,49,80
59760,note_on,24,0,1,,,,,,,,0,,,73,80
59760,note_on,0,0,4,,,,,,,,0,,,37,80
59760,control_change,0,0,4,,,,,,,,0,64,127,,
59856,note_on,0,0,4,,,,,,,,0,,,49,0
59856,note_on,96,0,4,,,,,,,,0,,,37,0
59856,note_on,0,0,1,,,,,,,,0,,,73,0
59856,note_on,96,0,1,,,,,,,,0,,,85,0
59940,note_on,84,0,4,,,,,,,,0,,,61,80
59940,note_on,84,0,1,,,,,,,,0,,,66,80
59940,note_on,0,0,1,,,,,,,,0,,,73,80
59940,note_on,0,0,1,,,,,,,,0,,,70,80
59940,note_on,0,0,4,,,,,,,,0,,,54,80
59940,note_on,0,0,4,,,,,,,,0,,,58,80
59988,note_on,48,0,4,,,,,,,,0,,,54,0
59988,note_on,0,0,1,,,,,,,,0,,,66,0
59988,note_on,0,0,1,,,,,,,,0,,,70,0
59988,note_on,48,0,1,,,,,,,,0,,,73,0
59988,note_on,0,0,4,,,,,,,,0,,,61,0
59988,note_on,0,0,4,,,,,,,,0,,,58,0
60000,note_on,12,0,4,,,,,,,,0,,,61,80
60000,note_on,0,0,1,,,,,,,,0,,,67,80
60000,note_on,0,0,4,,,,,,,,0,,,55,80
60000,note_on,0,0,4,,,,,,,,0,,,58,80
60000,note_on,0,0,1,,,,,,,,0,,,73,80
60000,note_on,12,0,1,,,,,,,,0,,,70,80
60074,control_change,74,0,4,,,,,,,,0,64,0,,
60095,control_change,21,0,4,,,,,,,,0,64,127,,
60096,note_on,0,0,1,,,,,,,,0,,,73,0
60096,note_on,1,0,4,,,,,,,,0,,,58,0
60096,note_on,96,0,1,,,,,,,,0,,,67,0
60096,note_on,0,0,4,,,,,,,,0,,,55,0
60096,note_on,0,0,4,,,,,,,,0,,,61,0
60096,note_on,0,0,1,,,,,,,,0,,,70,0
60120,note_on,24,0,4,,,,,,,,0,,,61,80
60120,note_on,0,0,1,,,,,,,,0,,,70,80
60120,note_on,0,0,1,,,,,,,,0,,,73,80
60120,note_on,24,0,1,,,,,,,,0,,,67,80
60120,note_on,0,0,4,,,,,,,,0,,,55,80
60120,note_on,0,0,4,,,,,,,,0,,,58,80
60216,note_on,0,0,4,,,,,,,,0,,,61,0
60216,note_on,96,0,1,,,,,,,,0,,,70,0
60216,note_on,0,0,1,,,,,,,,0,,,67,0
60216,note_on,0,0,1,,,,,,,,0,,,73,0
60216,note_on,0,0,4,,,,,,,,0,,,58,0
60216,note_on,96,0,4,,,,,,,,0,,,55,0
60300,note_on,0,0,4,,,,,,,,0,,,61,80
60300,note_on,0,0,4,,,,,,,,0,,,59,80
60300,note_on,84,0,1,,,,,,,,0,,,71,80
60300,note_on,0,0,1,,,,,,,,0,,,68,80
60300,note_on,84,0,4,,,,,,,,0,,,56,80
60300,note_on,0,0,1,,,,,,,,0,,,73,80
60348,note_on,48,0,4,,,,,,,,0,,,59,0
60348,note_on,0,0,1,,,,,,,,0,,,71,0
60348,note_on,0,0,1,,,,,,,,0,,,68,0
60348,note_on,0,0,4,,,,,,,,0,,,61,0
60348,note_on,48,0,1,,,,,,,,0,,,73,0
60348,note_on,0,0,4,,,,,,,,0,,,56,0
60360,note_on,12,0,1,,,,,,,,0,,,68,80
60360,note_on,0,0,4,,,,,,,,0,,,53,80
60360,note_on,0,0,4,,,,,,,,0,,,56,80
60360,note_on,12,0,4,,,,,,,,0,,,61,80
60360,note_on,0,0,1,,,,,,,,0,,,73,80
60360,note_on,0,0,1,,,,,,,,0,,,65,80
60434,control_change,74,0,4,,,,,,,,0,64,0,,
60456,note_on,0,0,1,,,,,,,,0,,,68,0
60456,note_on,22,0,4,,,,,,,,0,,,53,0
60456,note_on,0,0,1,,,,,,,,0,,,65,0
60456,note_on,0,0,4,,,,,,,,0,,,56,0
60456,note_on,0,0,4,,,,,,,,0,,,61,0
60456,note_on,96,0,1,,,,,,,,0,,,73,0
60480,note_on,24,0,4,,,,,,,,0,,,46,80
60480,note_on,0,0,4,,,,,,,,0,,,34,80
60480,note_on,24,0,1,,,,,,,,0,,,70,80
60480,control_change,0,0,4,,,,,,,,0,64,127,,
60480,note_on,0,0,1,,,,,,,,0,,,82,80
60490,set_tempo,18234,1,0,,,,,,436300,,,,,,
60494,set_tempo,4,1,0,,,,,,438661,,,,,,
60520,set_tempo,26,1,0,,,,,,441047,,,,,,
60551,set_tempo,31,1,0,,,,,,443459,,,,,,
60576,note_on,96,0,1,,,,,,,,0,,,82,0
60576,note_on,96,0,4,,,,,,,,0,,,34,0
60576,note_on,0,0,4,,,,,,,,0,,,46,0
60576,note_on,0,0,1,,,,,,,,0,,,70,0
60582,set_tempo,31,1,0,,,,,,445898,,,,,,
60612,set_tempo,30,1,0,,,,,,448363,,,,,,
60643,set_tempo,31,1,0,,,,,,450857,,,,,,
60660,note_on,0,0,4,,,,,,,,0,,,58,80
60660,note_on,0,0,1,,,,,,,,0,,,70,80
60660,note_on,0,0,1,,,,,,,,0,,,63,80
60660,note_on,0,0,4,,,,,,,,0,,,51,80
60660,note_on,84,0,4,,,,,,,,0,,,54,80
60660,note_on,84,0,1,,,,,,,,0,,,66,80
60673,set_tempo,30,1,0,,,,,,453378,,,,,,
60704,set_tempo,31,1,0,,,,,,455927,,,,,,
60708,note_on,48,0,4,,,,,,,,0,,,51,0
60708,note_on,0,0,1,,,,,,,,0,,,63,0
60708,note_on,0,0,1,,,,,,,,0,,,66,0
60708,note_on,48,0,1,,,,,,,,0,,,70,0
60708,note_on,0,0,4,,,,,,,,0,,,54,0
60708,note_on,0,0,4,,,,,,,,0,,,58,0
60720,note_on,0,0,1,,,,,,,,0,,,67,80
60720,note_on,0,0,1,,,,,,,,0,,,64,80
60720,note_on,12,0,4,,,,,,,,0,,,52,80
60720,note_on,12,0,1,,,,,,,,0,,,70,80
60720,note_on,0,0,4,,,,,,,,0,,,55,80
60720,note_on,0,0,4,,,,,,,,0,,,58,80
60734,set_tempo,30,1,0,,,,,,458505,,,,,,
60765,set_tempo,31,1,0,,,,,,461113,,,,,,
60795,set_tempo,30,1,0,,,,,,463750,,,,,,
60807,control_change,87,0,4,,,,,,,,0,64,0,,
60816,note_on,0,0,4,,,,,,,,0,,,52,0
60816,note_on,0,0,4,,,,,,,,0,,,55,0
60816,note_on,9,0,4,,,,,,,,0,,,58,0
60816,note_on,96,0,1,,,,,,,,0,,,67,0
60816,note_on,0,0,1,,,,,,,,0,,,64,0
60816,note_on,0,0,1,,,,,,,,0,,,70,0
60826,set_tempo,31,1,0,,,,,,466418,,,,,,
60840,note_on,0,0,4,,,,,,,,0,,,58,80
60840,control_change,0,0,4,,,,,,,,0,64,127,,
60840,note_on,0,0,4,,,,,,,,0,,,52,80
60840,note_on,0,0,1,,,,,,,,0,,,64,80
60840,note_on,24,0,4,,,,,,,,0,,,55,80
60840,note_on,24,0,1,,,,,,,,0,,,67,80
60840,note_on,0,0,1,,,,,,,,0,,,70,80
60856,set_tempo,30,1,0,,,,,,469116,,,,,,
60887,set_tempo,31,1,0,,,,,,471846,,,,,,
60918,set_tempo,31,1,0,,,,,,474608,,,,,,
60936,note_on,0,0,1,,,,,,,,0,,,64,0
60936,note_on,0,0,4,,,,,,,,0,,,58,0
60936,note_on,0,0,4,,,,,,,,0,,,55,0
60936,note_on,96,0,4,,,,,,,,0,,,52,0
60936,note_on,96,0,1,,,,,,,,0,,,70,0
60936,note_on,0,0,1,,,,,,,,0,,,67,0
60948,set_tempo,30,1,0,,,,,,477403,,,,,,
60974,set_tempo,26,1,0,,,,,,480231,,,,,,
61005,set_tempo,31,1,0,,,,,,483092,,,,,,
61020,note_on,0,0,1,,,,,,,,0,,,70,80
61020,note_on,0,0,1,,,,,,,,0,,,68,80
61020,note_on,0,0,4,,,,,,,,0,,,53,80
61020,note_on,0,0,4,,,,,,,,0,,,58,80
61020,note_on,84,0,1,,,,,,,,0,,,65,80
61020,note_on,84,0,4,,,,,,,,0,,,56,80
61035,set_tempo,30,1,0,,,,,,485987,,,,,,
61066,set_tempo,31,1,0,,,,,,488918,,,,,,
61068,note_on,48,0,4,,,,,,,,0,,,58,0
61068,note_on,0,0,1,,,,,,,,0,,,65,0
61068,note_on,0,0,1,,,,,,,,0,,,68,0
61068,note_on,0,0,4,,,,,,,,0,,,56,0
61068,note_on,0,0,4,,,,,,,,0,,,53,0
61068,note_on,48,0,1,,,,,,,,0,,,70,0
61080,note_on,12,0,4,,,,,,,,0,,,58,80
61080,note_on,12,0,1,,,,,,,,0,,,62,80
61080,note_on,0,0,1,,,,,,,,0,,,65,80
61080,note_on,0,0,4,,,,,,,,0,,,53,80
61080,note_on,0,0,4,,,,,,,,0,,,50,80
61080,note_on,0,0,1,,,,,,,,0,,,70,80
61096,set_tempo,30,1,0,,,,,,491884,,,,,,
61127,set_tempo,31,1,0,,,,,,494886,,,,,,
61158,set_tempo,31,1,0,,,,,,497925,,,,,,
61175,control_change,95,0,4,,,,,,,,0,64,0,,
61176,note_on,1,0,4,,,,,,,,0,,,50,0
61176,note_on,0,0,4,,,,,,,,0,,,53,0
61176,note_on,0,0,4,,,,,,,,0,,,58,0
61176,note_on,0,0,1,,,,,,,,0,,,65,0
61176,note_on,96,0,1,,,,,,,,0,,,70,0
61176,note_on,0,0,1,,,,,,,,0,,,62,0
61188,set_tempo,30,1,0,,,,,,501002,,,,,,
61200,control_change,0,0,4,,,,,,,,0,64,127,,
61200,note_on,0,0,4,,,,,,,,0,,,34,80
61200,note_on,24,0,1,,,,,,,,0,,,82,80
61200,note_on,0,0,1,,,,,,,,0,,,70,80
61200,note_on,24,0,4,,,,,,,,0,,,46,80
61219,set_tempo,31,1,0,,,,,,504117,,,,,,
61249,set_tempo,30,1,0,,,,,,507271,,,,,,
61280,set_tempo,31,1,0,,,,,,510465,,,,,,
61296,note_on,0,0,1,,,,,,,,0,,,82,0
61296,note_on,96,0,1,,,,,,,,0,,,70,0
61296,note_on,96,0,4,,,,,,,,0,,,34,0
61296,note_on,0,0,4,,,,,,,,0,,,46,0
61310,set_tempo,30,1,0,,,,,,513699,,,,,,
61341,set_tempo,31,1,0,,,,,,516974,,,,,,
61371,set_tempo,30,1,0,,,,,,520291,,,,,,
61380,note_on,0,0,4,,,,,,,,0,,,54,80
61380,note_on,0,0,4,,,,,,,,0,,,51,80
61380,note_on,84,0,1,,,,,,,,0,,,70,80
61380,note_on,84,0,4,,,,,,,,0,,,58,80
61380,note_on,0,0,1,,,,,,,,0,,,63,80
61380,note_on,0,0,1,,,,,,,,0,,,66,80
61402,set_tempo,31,1,0,,,,,,523652,,,,,,
61428,note_on,0,0,4,,,,,,,,0,,,58,0
61428,note_on,48,0,1,,,,,,,,0,,,63,0
61428,note_on,0,0,1,,,,,,,,0,,,70,0
61428,note_on,48,0,4,,,,,,,,0,,,54,0
61428,note_on,0,0,1,,,,,,,,0,,,66,0
61428,note_on,0,0,4,,,,,,,,0,,,51,0
61432,set_tempo,30,1,0,,,,,,527056,,,,,,
61440,note_on,12,0,4,,,,,,,,0,,,55,80
61440,note_on,0,0,4,,,,,,,,0,,,58,80
61440,note_on,0,0,4,,,,,,,,0,,,52,80
61440,note_on,0,0,1,,,,,,,,0,,,70,80
61440,note_on,0,0,1,,,,,,,,0,,,64,80
61440,note_on,12,0,1,,,,,,,,0,,,67,80
61459,set_tempo,27,1,0,,,,,,530504,,,,,,
61489,set_tempo,30,1,0,,,,,,533998,,,,,,
61520,set_tempo,31,1,0,,,,,,537538,,,,,,
61531,control_change,91,0,4,,,,,,,,0,64,0,,
61536,note_on,0,0,4,,,,,,,,0,,,58,0
61536,note_on,0,0,1,,,,,,,,0,,,70,0
61536,note_on,96,0,1,,,,,,,,0,,,64,0
61536,note_on,0,0,4,,,,,,,,0,,,55,0
61536,note_on,5,0,4,,,,,,,,0,,,52,0
61536,note_on,0,0,1,,,,,,,,0,,,67,0
61550,set_tempo,30,1,0,,,,,,541126,,,,,,
61558,control_change,22,0,4,,,,,,,,0,64,127,,
61560,note_on,2,0,4,,,,,,,,0,,,55,80
61560,note_on,0,0,1,,,,,,,,0,,,64,80
61560,note_on,0,0,1,,,,,,,,0,,,70,80
61560,note_on,24,0,1,,,,,,,,0,,,67,80
61560,note_on,0,0,4,,,,,,,,0,,,58,80
61560,note_on,0,0,4,,,,,,,,0,,,52,80
61581,set_tempo,31,1,0,,,,,,544761,,,,,,
61611,set_tempo,30,1,0,,,,,,548446,,,,,,
61642,set_tempo,31,1,0,,,,,,552181,,,,,,
61656,note_on,96,0,1,,,,,,,,0,,,70,0
61656,note_on,0,0,1,,,,,,,,0,,,67,0
61656,note_on,0,0,1,,,,,,,,0,,,64,0
61656,note_on,0,0,4,,,,,,,,0,,,52,0
61656,note_on,96,0,4,,,,,,,,0,,,58,0
61656,note_on,0,0,4,,,,,,,,0,,,55,0
61672,set_tempo,30,1,0,,,,,,555967,,,,,,
61703,set_tempo,31,1,0,,,,,,559806,,,,,,
61734,set_tempo,31,1,0,,,,,,563698,,,,,,
61740,note_on,0,0,1,,,,,,,,0,,,70,80
61740,note_on,0,0,1,,,,,,,,0,,,68,80
61740,note_on,84,0,4,,,,,,,,0,,,53,80
61740,note_on,84,0,1,,,,,,,,0,,,65,80
61740,note_on,0,0,4,,,,,,,,0,,,56,80
61740,note_on,0,0,4,,,,,,,,0,,,58,80
61764,set_tempo,30,1,0,,,,,,567644,,,,,,
61788,note_on,0,0,1,,,,,,,,0,,,68,0
61788,note_on,0,0,4,,,,,,,,0,,,58,0
61788,note_on,48,0,4,,,,,,,,0,,,56,0
61788,note_on,48,0,1,,,,,,,,0,,,70,0
61788,note_on,0,0,4,,,,,,,,0,,,53,0
61788,note_on,0,0,1,,,,,,,,0,,,65,0
61795,set_tempo,31,1,0,,,,,,571646,,,,,,
61800,note_on,0,0,4,,,,,,,,0,,,53,80
61800,note_on,12,0,4,,,,,,,,0,,,58,80
61800,note_on,0,0,1,,,,,,,,0,,,65,80
61800,note_on,0,0,1,,,,,,,,0,,,70,80
61800,note_on,0,0,4,,,,,,,,0,,,50,80
61800,note_on,12,0,1,,,,,,,,0,,,62,80
61825,set_tempo,30,1,0,,,,,,575705,,,,,,
61856,set_tempo,31,1,0,,,,,,579822,,,,,,
61886,set_tempo,30,1,0,,,,,,583998,,,,,,
61896,note_on,96,0,4,,,,,,,,0,,,50,0
61896,note_on,0,0,4,,,,,,,,0,,,58,0
61896,note_on,0,0,1,,,,,,,,0,,,62,0
61896,note_on,0,0,1,,,,,,,,0,,,65,0
61896,note_on,96,0,1,,,,,,,,0,,,70,0
61896,note_on,0,0,4,,,,,,,,0,,,53,0
61899,control_change,3,0,4,,,,,,,,0,64,0,,
61920,note_on,21,0,4,,,,,,,,0,,,51,56
61920,note_on,0,0,4,,,,,,,,0,,,46,56
61920,control_change,0,0,4,,,,,,,,0,64,127,,
61920,note_on,0,0,4,,,,,,,,0,,,39,56
61920,note_on,24,0,1,,,,,,,,0,,,67,88
61920,set_tempo,34,1,0,,,,,,902527,,,,,,
61924,set_tempo,4,1,0,,,,,,892591,,,,,,
61950,set_tempo,26,1,0,,,,,,882872,,,,,,
61954,set_tempo,4,1,0,,,,,,873362,,,,,,
61959,set_tempo,5,1,0,,,,,,854944,,,,,,
61963,set_tempo,4,1,0,,,,,,846024,,,,,,
61968,set_tempo,5,1,0,,,,,,837287,,,,,,
61972,set_tempo,4,1,0,,,,,,828729,,,,,,
61976,set_tempo,4,1,0,,,,,,820345,,,,,,
61980,note_on,19524,0,2,,,,,,,,0,,,55,64
61981,set_tempo,5,1,0,,,,,,812128,,,,,,
61985,set_tempo,4,1,0,,,,,,804074,,,,,,
61989,set_tempo,4,1,0,,,,,,796178,,,,,,
61994,set_tempo,5,1,0,,,,,,788436,,,,,,
61998,set_tempo,4,1,0,,,,,,780843,,,,,,
62002,set_tempo,4,1,0,,,,,,773395,,,,,,
62007,set_tempo,5,1,0,,,,,,766088,,,,,,
62011,set_tempo,4,1,0,,,,,,758917,,,,,,
62016,set_tempo,5,1,0,,,,,,751880,,,,,,
62016,note_on,0,0,4,,,,,,,,0,,,51,0
62016,note_on,0,0,4,,,,,,,,0,,,46,0
62016,note_on,96,0,4,,,,,,,,0,,,39,0
62020,set_tempo,4,1,0,,,,,,744971,,,,,,
62024,set_tempo,4,1,0,,,,,,738189,,,,,,
62028,note_on,48,0,2,,,,,,,,0,,,55,0
62029,set_tempo,5,1,0,,,,,,731529,,,,,,
62033,set_tempo,4,1,0,,,,,,724988,,,,,,
62037,set_tempo,4,1,0,,,,,,718563,,,,,,
62040,note_on,12,0,2,,,,,,,,0,,,58,64
62042,set_tempo,5,1,0,,,,,,712251,,,,,,
62046,set_tempo,4,1,0,,,,,,706048,,,,,,
62050,set_tempo,4,1,0,,,,,,699953,,,,,,
62055,set_tempo,5,1,0,,,,,,693963,,,,,,
62059,set_tempo,4,1,0,,,,,,688073,,,,,,
62064,set_tempo,5,1,0,,,,,,682283,,,,,,
62068,set_tempo,4,1,0,,,,,,670991,,,,,,
62072,set_tempo,4,1,0,,,,,,665484,,,,,,
62077,set_tempo,5,1,0,,,,,,660066,,,,,,
62081,set_tempo,4,1,0,,,,,,654736,,,,,,
62085,set_tempo,4,1,0,,,,,,649491,,,,,,
62088,note_on,48,0,2,,,,,,,,0,,,58,0
62090,set_tempo,5,1,0,,,,,,644330,,,,,,
62094,set_tempo,4,1,0,,,,,,639250,,,,,,
62098,set_tempo,4,1,0,,,,,,634249,,,,,,
62100,note_on,10524,0,3,,,,,,,,0,,,65,88
62100,note_on,84,0,4,,,,,,,,0,,,51,56
62100,note_on,0,0,4,,,,,,,,0,,,39,56
62100,note_on,0,0,4,,,,,,,,0,,,46,56
62103,set_tempo,5,1,0,,,,,,629327,,,,,,
62107,set_tempo,4,1,0,,,,,,624480,,,,,,
62112,set_tempo,5,1,0,,,,,,619707,,,,,,
62116,set_tempo,4,1,0,,,,,,615006,,,,,,
62120,set_tempo,4,1,0,,,,,,610376,,,,,,
62125,set_tempo,5,1,0,,,,,,605816,,,,,,
62129,set_tempo,4,1,0,,,,,,601323,,,,,,
62133,set_tempo,4,1,0,,,,,,596896,,,,,,
62138,set_tempo,5,1,0,,,,,,592534,,,,,,
62142,set_tempo,4,1,0,,,,,,588235,,,,,,
62146,set_tempo,4,1,0,,,,,,583998,,,,,,
62148,note_on,0,0,4,,,,,,,,0,,,51,0
62148,note_on,0,0,4,,,,,,,,0,,,46,0
62148,note_on,48,0,4,,,,,,,,0,,,39,0
62151,set_tempo,5,1,0,,,,,,579822,,,,,,
62155,set_tempo,4,1,0,,,,,,575705,,,,,,
62160,set_tempo,5,1,0,,,,,,571646,,,,,,
62160,note_on,0,0,4,,,,,,,,0,,,46,56
62160,note_on,0,0,4,,,,,,,,0,,,39,56
62160,note_on,72,0,2,,,,,,,,0,,,67,64
62160,note_on,12,0,4,,,,,,,,0,,,51,56
62162,control_change,2,0,4,,,,,,,,0,64,0,,
62164,set_tempo,4,1,0,,,,,,567644,,,,,,
62168,set_tempo,4,1,0,,,,,,563698,,,,,,
62173,set_tempo,5,1,0,,,,,,559806,,,,,,
62177,set_tempo,4,1,0,,,,,,552181,,,,,,
62181,set_tempo,4,1,0,,,,,,548446,,,,,,
62186,set_tempo,5,1,0,,,,,,544761,,,,,,
62190,set_tempo,4,1,0,,,,,,541126,,,,,,
62194,set_tempo,4,1,0,,,,,,537538,,,,,,
62194,control_change,32,0,4,,,,,,,,0,64,127,,
62199,set_tempo,5,1,0,,,,,,533998,,,,,,
62203,set_tempo,4,1,0,,,,,,530504,,,,,,
62208,set_tempo,5,1,0,,,,,,527056,,,,,,
62208,note_on,48,0,2,,,,,,,,0,,,67,0
62212,set_tempo,4,1,0,,,,,,523652,,,,,,
62216,set_tempo,4,1,0,,,,,,520291,,,,,,
62220,note_on,12,0,2,,,,,,,,0,,,55,64
62221,set_tempo,5,1,0,,,,,,516974,,,,,,
62225,set_tempo,4,1,0,,,,,,513699,,,,,,
62229,set_tempo,4,1,0,,,,,,510465,,,,,,
62234,set_tempo,5,1,0,,,,,,507271,,,,,,
62238,set_tempo,4,1,0,,,,,,504117,,,,,,
62242,set_tempo,4,1,0,,,,,,501002,,,,,,
62247,set_tempo,5,1,0,,,,,,497925,,,,,,
62251,set_tempo,4,1,0,,,,,,494886,,,,,,
62256,set_tempo,5,1,0,,,,,,491884,,,,,,
62256,note_on,62,0,4,,,,,,,,0,,,39,0
62256,note_on,0,0,4,,,,,,,,0,,,46,0
62256,note_on,0,0,4,,,,,,,,0,,,51,0
62260,set_tempo,4,1,0,,,,,,488918,,,,,,
62264,set_tempo,4,1,0,,,,,,485987,,,,,,
62268,note_on,48,0,2,,,,,,,,0,,,55,0
62269,set_tempo,5,1,0,,,,,,483092,,,,,,
62273,set_tempo,4,1,0,,,,,,480231,,,,,,
62277,set_tempo,4,1,0,,,,,,477403,,,,,,
62280,note_on,12,0,2,,,,,,,,0,,,58,64
62282,set_tempo,5,1,0,,,,,,474608,,,,,,
62286,set_tempo,4,1,0,,,,,,469116,,,,,,
62290,set_tempo,4,1,0,,,,,,466418,,,,,,
62292,note_on,192,0,3,,,,,,,,0,,,65,0
62295,set_tempo,5,1,0,,,,,,463750,,,,,,
62299,set_tempo,4,1,0,,,,,,461113,,,,,,
62304,set_tempo,5,1,0,,,,,,458505,,,,,,
62308,set_tempo,4,1,0,,,,,,455927,,,,,,
62312,set_tempo,4,1,0,,,,,,453378,,,,,,
62317,set_tempo,5,1,0,,,,,,450857,,,,,,
62321,set_tempo,4,1,0,,,,,,448363,,,,,,
62325,set_tempo,4,1,0,,,,,,445898,,,,,,
62328,note_on,48,0,2,,,,,,,,0,,,58,0
62330,set_tempo,5,1,0,,,,,,443459,,,,,,
62334,set_tempo,4,1,0,,,,,,441047,,,,,,
62338,set_tempo,4,1,0,,,,,,438661,,,,,,
62340,note_on,48,0,3,,,,,,,,0,,,63,88
62343,set_tempo,5,1,0,,,,,,436300,,,,,,
62347,set_tempo,4,1,0,,,,,,433965,,,,,,
62352,set_tempo,5,1,0,,,,,,431655,,,,,,
62356,set_tempo,4,1,0,,,,,,429369,,,,,,
62360,set_tempo,4,1,0,,,,,,427107,,,,,,
62365,set_tempo,5,1,0,,,,,,424869,,,,,,
62369,set_tempo,4,1,0,,,,,,422654,,,,,,
62373,set_tempo,4,1,0,,,,,,420463,,,,,,
62378,set_tempo,5,1,0,,,,,,418293,,,,,,
62382,set_tempo,4,1,0,,,,,,416146,,,,,,
62386,set_tempo,4,1,0,,,,,,414022,,,,,,
62391,set_tempo,5,1,0,,,,,,411918,,,,,,
62395,set_tempo,4,1,0,,,,,,407775,,,,,,
62396,control_change,140,0,4,,,,,,,,0,64,0,,
62400,note_on,72,0,2,,,,,,,,0,,,67,64
62420,control_change,24,0,4,,,,,,,,0,64,127,,
62448,note_on,48,0,2,,,,,,,,0,,,67,0
62460,note_on,12,0,2,,,,,,,,0,,,55,64
62508,note_on,48,0,2,,,,,,,,0,,,55,0
62520,note_on,12,0,2,,,,,,,,0,,,58,64
62532,note_on,192,0,3,,,,,,,,0,,,63,0
62568,note_on,48,0,2,,,,,,,,0,,,58,0
62580,note_on,48,0,3,,,,,,,,0,,,62,88
62640,note_on,0,0,4,,,,,,,,0,,,51,56
62640,control_change,220,0,4,,,,,,,,0,64,0,,
62640,note_on,0,0,4,,,,,,,,0,,,46,56
62640,note_on,0,0,4,,,,,,,,0,,,39,56
62640,note_on,72,0,2,,,,,,,,0,,,67,64
62644,set_tempo,249,1,0,,,,,,405734,,,,,,
62653,set_tempo,9,1,0,,,,,,407775,,,,,,
62661,set_tempo,8,1,0,,,,,,409836,,,,,,
62666,set_tempo,5,1,0,,,,,,411918,,,,,,
62669,control_change,29,0,4,,,,,,,,0,64,127,,
62674,set_tempo,8,1,0,,,,,,414022,,,,,,
62683,set_tempo,9,1,0,,,,,,416146,,,,,,
62688,set_tempo,5,1,0,,,,,,418293,,,,,,
62688,note_on,48,0,2,,,,,,,,0,,,67,0
62688,note_on,768,0,1,,,,,,,,0,,,67,0
62696,set_tempo,8,1,0,,,,,,420463,,,,,,
62700,note_on,12,0,2,,,,,,,,0,,,55,64
62705,set_tempo,9,1,0,,,,,,422654,,,,,,
62709,set_tempo,4,1,0,,,,,,424869,,,,,,
62718,set_tempo,9,1,0,,,,,,427107,,,,,,
62727,set_tempo,9,1,0,,,,,,429369,,,,,,
62731,set_tempo,4,1,0,,,,,,431655,,,,,,
62736,note_on,67,0,4,,,,,,,,0,,,39,0
62736,note_on,0,0,4,,,,,,,,0,,,46,0
62736,note_on,0,0,4,,,,,,,,0,,,51,0
62740,set_tempo,9,1,0,,,,,,433965,,,,,,
62748,note_on,48,0,2,,,,,,,,0,,,55,0
62749,set_tempo,9,1,0,,,,,,436300,,,,,,
62753,set_tempo,4,1,0,,,,,,438661,,,,,,
62760,note_on,12,0,2,,,,,,,,0,,,58,64
62762,set_tempo,9,1,0,,,,,,441047,,,,,,
62766,set_tempo,4,1,0,,,,,,443459,,,,,,
62775,set_tempo,9,1,0,,,,,,445898,,,,,,
62784,set_tempo,9,1,0,,,,,,448363,,,,,,
62784,note_on,204,0,3,,,,,,,,0,,,62,0
62788,set_tempo,4,1,0,,,,,,450857,,,,,,
62797,set_tempo,9,1,0,,,,,,453378,,,,,,
62805,set_tempo,8,1,0,,,,,,455927,,,,,,
62808,note_on,48,0,2,,,,,,,,0,,,58,0
62810,set_tempo,5,1,0,,,,,,458505,,,,,,
62818,set_tempo,8,1,0,,,,,,461113,,,,,,
62820,note_on,0,0,4,,,,,,,,0,,,51,56
62820,note_on,0,0,4,,,,,,,,0,,,39,56
62820,note_on,84,0,4,,,,,,,,0,,,46,56
62820,note_on,36,0,3,,,,,,,,0,,,60,88
62827,set_tempo,9,1,0,,,,,,463750,,,,,,
62832,set_tempo,5,1,0,,,,,,466418,,,,,,
62840,set_tempo,8,1,0,,,,,,469116,,,,,,
62849,set_tempo,9,1,0,,,,,,471846,,,,,,
62853,set_tempo,4,1,0,,,,,,474608,,,,,,
62862,set_tempo,9,1,0,,,,,,477403,,,,,,
62868,note_on,48,0,4,,,,,,,,0,,,39,0
62868,note_on,0,0,4,,,,,,,,0,,,46,0
62868,note_on,0,0,4,,,,,,,,0,,,51,0
62871,set_tempo,9,1,0,,,,,,480231,,,,,,
62875,set_tempo,4,1,0,,,,,,483092,,,,,,
62880,note_on,12,0,4,,,,,,,,0,,,39,56
62880,note_on,0,0,4,,,,,,,,0,,,46,56
62880,note_on,0,0,4,,,,,,,,0,,,51,56
62880,note_on,72,0,2,,,,,,,,0,,,67,64
62884,set_tempo,9,1,0,,,,,,485987,,,,,,
62887,control_change,7,0,4,,,,,,,,0,64,0,,
62888,set_tempo,4,1,0,,,,,,488918,,,,,,
62897,set_tempo,9,1,0,,,,,,491884,,,,,,
62906,set_tempo,9,1,0,,,,,,494886,,,,,,
62910,set_tempo,4,1,0,,,,,,497925,,,,,,
62919,set_tempo,9,1,0,,,,,,501002,,,,,,
62928,note_on,48,0,2,,,,,,,,0,,,67,0
62928,set_tempo,9,1,0,,,,,,504117,,,,,,
62932,set_tempo,4,1,0,,,,,,507271,,,,,,
62933,control_change,46,0,4,,,,,,,,0,64,127,,
62940,note_on,12,0,2,,,,,,,,0,,,55,64
62941,set_tempo,9,1,0,,,,,,510465,,,,,,
62949,set_tempo,8,1,0,,,,,,513699,,,,,,
62954,set_tempo,5,1,0,,,,,,516974,,,,,,
62962,set_tempo,8,1,0,,,,,,520291,,,,,,
62964,note_on,144,0,3,,,,,,,,0,,,60,0
62971,set_tempo,9,1,0,,,,,,523652,,,,,,
62976,note_on,43,0,4,,,,,,,,0,,,46,0
62976,note_on,0,0,4,,,,,,,,0,,,39,0
62976,note_on,0,0,4,,,,,,,,0,,,51,0
62976,set_tempo,5,1,0,,,,,,527056,,,,,,
62984,set_tempo,8,1,0,,,,,,530504,,,,,,
62988,note_on,48,0,2,,,,,,,,0,,,55,0
62993,set_tempo,9,1,0,,,,,,533998,,,,,,
62997,set_tempo,4,1,0,,,,,,537538,,,,,,
63000,note_on,36,0,3,,,,,,,,0,,,58,88
63006,set_tempo,9,1,0,,,,,,541126,,,,,,
63010,set_tempo,4,1,0,,,,,,544761,,,,,,
63019,set_tempo,9,1,0,,,,,,548446,,,,,,
63028,set_tempo,9,1,0,,,,,,552181,,,,,,
63032,set_tempo,4,1,0,,,,,,555967,,,,,,
63041,set_tempo,9,1,0,,,,,,559806,,,,,,
63050,set_tempo,9,1,0,,,,,,563698,,,,,,
63054,set_tempo,4,1,0,,,,,,567644,,,,,,
63060,note_on,72,0,2,,,,,,,,0,,,67,64
63063,set_tempo,9,1,0,,,,,,571646,,,,,,
63072,set_tempo,9,1,0,,,,,,575705,,,,,,
63076,set_tempo,4,1,0,,,,,,579822,,,,,,
63085,set_tempo,9,1,0,,,,,,583998,,,,,,
63093,set_tempo,8,1,0,,,,,,588235,,,,,,
63098,set_tempo,5,1,0,,,,,,592534,,,,,,
63106,set_tempo,8,1,0,,,,,,596896,,,,,,
63108,note_on,48,0,2,,,,,,,,0,,,67,0
63115,set_tempo,9,1,0,,,,,,601323,,,,,,
63120,note_on,12,0,2,,,,,,,,0,,,55,64
63120,set_tempo,5,1,0,,,,,,605816,,,,,,
63128,set_tempo,8,1,0,,,,,,610376,,,,,,
63130,control_change,154,0,4,,,,,,,,0,64,0,,
63133,set_tempo,5,1,0,,,,,,615006,,,,,,
63141,set_tempo,8,1,0,,,,,,619707,,,,,,
63150,set_tempo,9,1,0,,,,,,624480,,,,,,
63154,set_tempo,4,1,0,,,,,,629327,,,,,,
63163,set_tempo,9,1,0,,,,,,634249,,,,,,
63168,note_on,48,0,2,,,,,,,,0,,,55,0
63172,set_tempo,9,1,0,,,,,,639250,,,,,,
63173,control_change,43,0,4,,,,,,,,0,64,127,,
63176,set_tempo,4,1,0,,,,,,644330,,,,,,
63180,note_on,12,0,2,,,,,,,,0,,,58,64
63185,set_tempo,9,1,0,,,,,,649491,,,,,,
63192,note_on,192,0,3,,,,,,,,0,,,58,0
63194,set_tempo,9,1,0,,,,,,654736,,,,,,
63198,set_tempo,4,1,0,,,,,,660066,,,,,,
63207,set_tempo,9,1,0,,,,,,665484,,,,,,
63216,set_tempo,9,1,0,,,,,,670991,,,,,,
63220,set_tempo,4,1,0,,,,,,676590,,,,,,
63228,note_on,48,0,2,,,,,,,,0,,,58,0
63229,set_tempo,9,1,0,,,,,,682283,,,,,,
63237,set_tempo,8,1,0,,,,,,688073,,,,,,
63240,note_on,48,0,3,,,,,,,,0,,,67,88
63242,set_tempo,5,1,0,,,,,,693963,,,,,,
63250,set_tempo,8,1,0,,,,,,699953,,,,,,
63255,set_tempo,5,1,0,,,,,,706048,,,,,,
63264,set_tempo,9,1,0,,,,,,712251,,,,,,
63272,set_tempo,8,1,0,,,,,,718563,,,,,,
63277,set_tempo,5,1,0,,,,,,724988,,,,,,
63285,set_tempo,8,1,0,,,,,,731529,,,,,,
63294,set_tempo,9,1,0,,,,,,738189,,,,,,
63298,set_tempo,4,1,0,,,,,,744971,,,,,,
63300,note_on,72,0,2,,,,,,,,0,,,55,64
63307,set_tempo,9,1,0,,,,,,751880,,,,,,
63316,set_tempo,9,1,0,,,,,,758917,,,,,,
63320,set_tempo,4,1,0,,,,,,766088,,,,,,
63329,set_tempo,9,1,0,,,,,,773395,,,,,,
63336,note_on,96,0,3,,,,,,,,0,,,67,0
63338,set_tempo,9,1,0,,,,,,780843,,,,,,
63342,set_tempo,4,1,0,,,,,,788436,,,,,,
63348,note_on,48,0,2,,,,,,,,0,,,55,0
63351,set_tempo,9,1,0,,,,,,796178,,,,,,
63355,set_tempo,4,1,0,,,,,,804074,,,,,,
63357,set_tempo,2,1,0,,,,,,828729,,,,,,
63360,note_on,0,0,4,,,,,,,,0,,,50,54
63360,note_on,187,0,4,,,,,,,,0,,,39,54
63360,note_on,24,0,3,,,,,,,,0,,,67,88
63360,control_change,0,0,4,,,,,,,,0,64,0,,
63360,note_on,0,0,4,,,,,,,,0,,,47,54
63366,set_tempo,9,1,0,,,,,,820345,,,,,,
63370,set_tempo,4,1,0,,,,,,812128,,,,,,
63374,set_tempo,4,1,0,,,,,,804074,,,,,,
63379,set_tempo,5,1,0,,,,,,796178,,,,,,
63383,set_tempo,4,1,0,,,,,,788436,,,,,,
63387,set_tempo,4,1,0,,,,,,780843,,,,,,
63392,set_tempo,5,1,0,,,,,,773395,,,,,,
63395,control_change,35,0,4,,,,,,,,0,64,127,,
63396,set_tempo,4,1,0,,,,,,766088,,,,,,
63400,set_tempo,4,1,0,,,,,,758917,,,,,,
63405,set_tempo,5,1,0,,,,,,751880,,,,,,
63409,set_tempo,4,1,0,,,,,,744971,,,,,,
63414,set_tempo,5,1,0,,,,,,738189,,,,,,
63420,note_on,72,0,2,,,,,,,,0,,,56,64
63422,set_tempo,8,1,0,,,,,,731529,,,,,,
63427,set_tempo,5,1,0,,,,,,724988,,,,,,
63431,set_tempo,4,1,0,,,,,,718563,,,,,,
63435,set_tempo,4,1,0,,,,,,712251,,,,,,
63440,set_tempo,5,1,0,,,,,,706048,,,,,,
63444,set_tempo,4,1,0,,,,,,699953,,,,,,
63448,set_tempo,4,1,0,,,,,,693963,,,,,,
63453,set_tempo,5,1,0,,,,,,688073,,,,,,
63456,note_on,0,0,4,,,,,,,,0,,,50,0
63456,note_on,61,0,4,,,,,,,,0,,,47,0
63456,note_on,0,0,4,,,,,,,,0,,,39,0
63457,set_tempo,4,1,0,,,,,,682283,,,,,,
63462,set_tempo,5,1,0,,,,,,676590,,,,,,
63466,set_tempo,4,1,0,,,,,,670991,,,,,,
63468,note_on,48,0,2,,,,,,,,0,,,56,0
63470,set_tempo,4,1,0,,,,,,665484,,,,,,
63475,set_tempo,5,1,0,,,,,,660066,,,,,,
63480,note_on,12,0,2,,,,,,,,0,,,59,64
63483,set_tempo,8,1,0,,,,,,654736,,,,,,
63488,set_tempo,5,1,0,,,,,,649491,,,,,,
63492,set_tempo,4,1,0,,,,,,644330,,,,,,
63496,set_tempo,4,1,0,,,,,,639250,,,,,,
63501,set_tempo,5,1,0,,,,,,634249,,,,,,
63504,note_on,144,0,3,,,,,,,,0,,,67,0
63505,set_tempo,4,1,0,,,,,,629327,,,,,,
63510,set_tempo,5,1,0,,,,,,624480,,,,,,
63514,set_tempo,4,1,0,,,,,,619707,,,,,,
63518,set_tempo,4,1,0,,,,,,615006,,,,,,
63523,set_tempo,5,1,0,,,,,,610376,,,,,,
63527,set_tempo,4,1,0,,,,,,605816,,,,,,
63528,note_on,48,0,2,,,,,,,,0,,,59,0
63531,set_tempo,4,1,0,,,,,,601323,,,,,,
63536,set_tempo,5,1,0,,,,,,596896,,,,,,
63540,note_on,36,0,3,,,,,,,,0,,,64,88
63540,note_on,84,0,4,,,,,,,,0,,,39,54
63540,note_on,0,0,4,,,,,,,,0,,,50,54
63540,note_on,0,0,4,,,,,,,,0,,,47,54
63544,set_tempo,8,1,0,,,,,,592534,,,,,,
63549,set_tempo,5,1,0,,,,,,588235,,,,,,
63553,set_tempo,4,1,0,,,,,,583998,,,,,,
63558,set_tempo,5,1,0,,,,,,579822,,,,,,
63562,set_tempo,4,1,0,,,,,,575705,,,,,,
63566,set_tempo,4,1,0,,,,,,571646,,,,,,
63571,set_tempo,5,1,0,,,,,,567644,,,,,,
63575,set_tempo,4,1,0,,,,,,563698,,,,,,
63579,set_tempo,4,1,0,,,,,,559806,,,,,,
63584,set_tempo,5,1,0,,,,,,555967,,,,,,
63588,note_on,0,0,4,,,,,,,,0,,,50,0
63588,note_on,0,0,4,,,,,,,,0,,,39,0
63588,set_tempo,4,1,0,,,,,,552181,,,,,,
63588,note_on,48,0,4,,,,,,,,0,,,47,0
63592,set_tempo,4,1,0,,,,,,548446,,,,,,
63597,set_tempo,5,1,0,,,,,,544761,,,,,,
63600,note_on,72,0,2,,,,,,,,0,,,56,64
63600,note_on,0,0,4,,,,,,,,0,,,50,54
63600,note_on,0,0,4,,,,,,,,0,,,47,54
63600,note_on,12,0,4,,,,,,,,0,,,39,54
63606,set_tempo,9,1,0,,,,,,541126,,,,,,
63607,control_change,7,0,4,,,,,,,,0,64,0,,
63610,set_tempo,4,1,0,,,,,,537538,,,,,,
63614,set_tempo,4,1,0,,,,,,533998,,,,,,
63619,set_tempo,5,1,0,,,,,,530504,,,,,,
63623,set_tempo,4,1,0,,,,,,527056,,,,,,
63627,set_tempo,4,1,0,,,,,,523652,,,,,,
63632,set_tempo,5,1,0,,,,,,520291,,,,,,
63632,control_change,25,0,4,,,,,,,,0,64,127,,
63636,set_tempo,4,1,0,,,,,,516974,,,,,,
63640,set_tempo,4,1,0,,,,,,513699,,,,,,
63645,set_tempo,5,1,0,,,,,,510465,,,,,,
63648,note_on,48,0,2,,,,,,,,0,,,56,0
63649,set_tempo,4,1,0,,,,,,507271,,,,,,
63654,set_tempo,5,1,0,,,,,,504117,,,,,,
63660,note_on,12,0,2,,,,,,,,0,,,59,64
63662,set_tempo,8,1,0,,,,,,501002,,,,,,
63667,set_tempo,5,1,0,,,,,,497925,,,,,,
63671,set_tempo,4,1,0,,,,,,494886,,,,,,
63675,set_tempo,4,1,0,,,,,,491884,,,,,,
63680,set_tempo,5,1,0,,,,,,488918,,,,,,
63684,set_tempo,4,1,0,,,,,,485987,,,,,,
63684,note_on,144,0,3,,,,,,,,0,,,64,0
63688,set_tempo,4,1,0,,,,,,483092,,,,,,
63693,set_tempo,5,1,0,,,,,,480231,,,,,,
63696,note_on,0,0,4,,,,,,,,0,,,39,0
63696,note_on,0,0,4,,,,,,,,0,,,47,0
63696,note_on,64,0,4,,,,,,,,0,,,50,0
63697,set_tempo,4,1,0,,,,,,477403,,,,,,
63702,set_tempo,5,1,0,,,,,,474608,,,,,,
63706,set_tempo,4,1,0,,,,,,471846,,,,,,
63708,note_on,48,0,2,,,,,,,,0,,,59,0
63710,set_tempo,4,1,0,,,,,,469116,,,,,,
63715,set_tempo,5,1,0,,,,,,466418,,,,,,
63720,note_on,36,0,3,,,,,,,,0,,,65,88
63723,set_tempo,8,1,0,,,,,,463750,,,,,,
63728,set_tempo,5,1,0,,,,,,461113,,,,,,
63732,set_tempo,4,1,0,,,,,,458505,,,,,,
63736,set_tempo,4,1,0,,,,,,455927,,,,,,
63741,set_tempo,5,1,0,,,,,,453378,,,,,,
63745,set_tempo,4,1,0,,,,,,450857,,,,,,
63750,set_tempo,5,1,0,,,,,,448363,,,,,,
63754,set_tempo,4,1,0,,,,,,445898,,,,,,
63758,set_tempo,4,1,0,,,,,,443459,,,,,,
63763,set_tempo,5,1,0,,,,,,441047,,,,,,
63767,set_tempo,4,1,0,,,,,,438661,,,,,,
63771,set_tempo,4,1,0,,,,,,436300,,,,,,
63776,set_tempo,5,1,0,,,,,,433965,,,,,,
63780,note_on,72,0,2,,,,,,,,0,,,56,64
63784,set_tempo,8,1,0,,,,,,431655,,,,,,
63789,set_tempo,5,1,0,,,,,,429369,,,,,,
63793,set_tempo,4,1,0,,,,,,427107,,,,,,
63798,set_tempo,5,1,0,,,,,,424869,,,,,,
63802,set_tempo,4,1,0,,,,,,422654,,,,,,
63806,set_tempo,4,1,0,,,,,,420463,,,,,,
63811,set_tempo,5,1,0,,,,,,418293,,,,,,
63815,set_tempo,4,1,0,,,,,,416146,,,,,,
63819,set_tempo,4,1,0,,,,,,414022,,,,,,
63824,set_tempo,5,1,0,,,,,,411918,,,,,,
63828,set_tempo,4,1,0,,,,,,409836,,,,,,
63828,note_on,48,0,2,,,,,,,,0,,,56,0
63832,set_tempo,4,1,0,,,,,,407775,,,,,,
63837,set_tempo,5,1,0,,,,,,405734,,,,,,
63840,note_on,12,0,2,,,,,,,,0,,,59,64
63864,note_on,144,0,3,,,,,,,,0,,,65,0
63888,note_on,48,0,2,,,,,,,,0,,,59,0
63893,control_change,197,0,4,,,,,,,,0,64,0,,
63900,note_on,36,0,3,,,,,,,,0,,,67,88
63914,control_change,21,0,4,,,,,,,,0,64,127,,
63960,note_on,72,0,2,,,,,,,,0,,,56,64
64008,note_on,48,0,2,,,,,,,,0,,,56,0
64020,note_on,12,0,2,,,,,,,,0,,,59,64
64044,note_on,144,0,3,,,,,,,,0,,,67,0
64068,set_tempo,231,1,0,,,,,,403714,,,,,,
64068,note_on,48,0,2,,,,,,,,0,,,59,0
64077,set_tempo,9,1,0,,,,,,405734,,,,,,
64080,note_on,0,0,4,,,,,,,,0,,,50,54
64080,control_change,0,0,4,,,,,,,,0,64,0,,
64080,note_on,36,0,3,,,,,,,,0,,,68,88
64080,note_on,0,0,4,,,,,,,,0,,,46,54
64080,note_on,166,0,4,,,,,,,,0,,,39,54
64086,set_tempo,9,1,0,,,,,,407775,,,,,,
64090,set_tempo,4,1,0,,,,,,409836,,,,,,
64099,set_tempo,9,1,0,,,,,,411918,,,,,,
64107,set_tempo,8,1,0,,,,,,414022,,,,,,
64112,control_change,32,0,4,,,,,,,,0,64,127,,
64112,set_tempo,5,1,0,,,,,,416146,,,,,,
64120,set_tempo,8,1,0,,,,,,418293,,,,,,
64125,set_tempo,5,1,0,,,,,,420463,,,,,,
64134,set_tempo,9,1,0,,,,,,422654,,,,,,
64140,note_on,72,0,2,,,,,,,,0,,,56,64
64142,set_tempo,8,1,0,,,,,,424869,,,,,,
64147,set_tempo,5,1,0,,,,,,427107,,,,,,
64155,set_tempo,8,1,0,,,,,,429369,,,,,,
64160,set_tempo,5,1,0,,,,,,431655,,,,,,
64168,set_tempo,8,1,0,,,,,,433965,,,,,,
64176,note_on,0,0,4,,,,,,,,0,,,39,0
64176,note_on,0,0,4,,,,,,,,0,,,50,0
64176,note_on,64,0,4,,,,,,,,0,,,46,0
64177,set_tempo,9,1,0,,,,,,436300,,,,,,
64182,set_tempo,5,1,0,,,,,,438661,,,,,,
64188,note_on,48,0,2,,,,,,,,0,,,56,0
64190,set_tempo,8,1,0,,,,,,441047,,,,,,
64199,set_tempo,9,1,0,,,,,,443459,,,,,,
64200,note_on,12,0,2,,,,,,,,0,,,58,64
64203,set_tempo,4,1,0,,,,,,445898,,,,,,
64212,set_tempo,9,1,0,,,,,,448363,,,,,,
64216,set_tempo,4,1,0,,,,,,450857,,,,,,
64224,note_on,144,0,3,,,,,,,,0,,,68,0
64225,set_tempo,9,1,0,,,,,,453378,,,,,,
64234,set_tempo,9,1,0,,,,,,455927,,,,,,
64238,set_tempo,4,1,0,,,,,,458505,,,,,,
64247,set_tempo,9,1,0,,,,,,461113,,,,,,
64248,note_on,48,0,2,,,,,,,,0,,,58,0
64251,set_tempo,4,1,0,,,,,,463750,,,,,,
64260,note_on,36,0,3,,,,,,,,0,,,69,88
64260,note_on,0,0,4,,,,,,,,0,,,50,54
64260,note_on,84,0,4,,,,,,,,0,,,39,54
64260,set_tempo,9,1,0,,,,,,466418,,,,,,
64260,note_on,0,0,4,,,,,,,,0,,,46,54
64269,set_tempo,9,1,0,,,,,,469116,,,,,,
64273,set_tempo,4,1,0,,,,,,471846,,,,,,
64282,set_tempo,9,1,0,,,,,,474608,,,,,,
64286,set_tempo,4,1,0,,,,,,477403,,,,,,
64295,set_tempo,9,1,0,,,,,,480231,,,,,,
64304,set_tempo,9,1,0,,,,,,483092,,,,,,
64308,note_on,0,0,4,,,,,,,,0,,,46,0
64308,note_on,0,0,4,,,,,,,,0,,,39,0
64308,note_on,48,0,4,,,,,,,,0,,,50,0
64308,set_tempo,4,1,0,,,,,,485987,,,,,,
64317,set_tempo,9,1,0,,,,,,488918,,,,,,
64320,control_change,0,0,4,,,,,,,,0,64,0,,
64320,note_on,72,0,2,,,,,,,,0,,,56,64
64320,note_on,12,0,4,,,,,,,,0,,,39,54
64320,note_on,0,0,4,,,,,,,,0,,,46,54
64320,note_on,0,0,4,,,,,,,,0,,,50,54
64326,set_tempo,9,1,0,,,,,,491884,,,,,,
64330,set_tempo,4,1,0,,,,,,494886,,,,,,
64339,set_tempo,9,1,0,,,,,,497925,,,,,,
64343,set_tempo,4,1,0,,,,,,501002,,,,,,
64352,set_tempo,9,1,0,,,,,,504117,,,,,,
64360,set_tempo,8,1,0,,,,,,507271,,,,,,
64362,control_change,42,0,4,,,,,,,,0,64,127,,
64365,set_tempo,5,1,0,,,,,,510465,,,,,,
64368,note_on,48,0,2,,,,,,,,0,,,56,0
64374,set_tempo,9,1,0,,,,,,513699,,,,,,
64378,set_tempo,4,1,0,,,,,,516974,,,,,,
64380,note_on,12,0,2,,,,,,,,0,,,58,64
64387,set_tempo,9,1,0,,,,,,520291,,,,,,
64395,set_tempo,8,1,0,,,,,,523652,,,,,,
64400,set_tempo,5,1,0,,,,,,527056,,,,,,
64404,note_on,144,0,3,,,,,,,,0,,,69,0
64408,set_tempo,8,1,0,,,,,,530504,,,,,,
64413,set_tempo,5,1,0,,,,,,533998,,,,,,
64416,note_on,54,0,4,,,,,,,,0,,,50,0
64416,note_on,0,0,4,,,,,,,,0,,,46,0
64416,note_on,0,0,4,,,,,,,,0,,,39,0
64422,set_tempo,9,1,0,,,,,,537538,,,,,,
64428,note_on,48,0,2,,,,,,,,0,,,58,0
64430,set_tempo,8,1,0,,,,,,541126,,,,,,
64435,set_tempo,5,1,0,,,,,,544761,,,,,,
64440,note_on,36,0,3,,,,,,,,0,,,72,88
64443,set_tempo,8,1,0,,,,,,548446,,,,,,
64452,set_tempo,9,1,0,,,,,,552181,,,,,,
64456,set_tempo,4,1,0,,,,,,555967,,,,,,
64465,set_tempo,9,1,0,,,,,,559806,,,,,,
64470,set_tempo,5,1,0,,,,,,563698,,,,,,
64478,set_tempo,8,1,0,,,,,,567644,,,,,,
64487,set_tempo,9,1,0,,,,,,571646,,,,,,
64491,set_tempo,4,1,0,,,,,,575705,,,,,,
64500,note_on,72,0,2,,,,,,,,0,,,56,64
64500,set_tempo,9,1,0,,,,,,579822,,,,,,
64504,set_tempo,4,1,0,,,,,,583998,,,,,,
64513,set_tempo,9,1,0,,,,,,588235,,,,,,
64522,set_tempo,9,1,0,,,,,,592534,,,,,,
64526,set_tempo,4,1,0,,,,,,596896,,,,,,
64535,set_tempo,9,1,0,,,,,,601323,,,,,,
64539,set_tempo,4,1,0,,,,,,605816,,,,,,
64548,set_tempo,9,1,0,,,,,,610376,,,,,,
64548,note_on,48,0,2,,,,,,,,0,,,56,0
64557,set_tempo,9,1,0,,,,,,615006,,,,,,
64560,note_on,12,0,2,,,,,,,,0,,,58,64
64561,set_tempo,4,1,0,,,,,,619707,,,,,,
64570,set_tempo,9,1,0,,,,,,624480,,,,,,
64579,set_tempo,9,1,0,,,,,,629327,,,,,,
64583,set_tempo,4,1,0,,,,,,634249,,,,,,
64584,note_on,144,0,3,,,,,,,,0,,,72,0
64592,set_tempo,9,1,0,,,,,,639250,,,,,,
64596,set_tempo,4,1,0,,,,,,644330,,,,,,
64602,control_change,186,0,4,,,,,,,,0,64,0,,
64605,set_tempo,9,1,0,,,,,,649491,,,,,,
64608,note_on,48,0,2,,,,,,,,0,,,58,0
64614,set_tempo,9,1,0,,,,,,654736,,,,,,
64618,set_tempo,4,1,0,,,,,,660066,,,,,,
64620,note_on,36,0,3,,,,,,,,0,,,70,88
64622,set_tempo,4,1,0,,,,,,670991,,,,,,
64638,control_change,36,0,4,,,,,,,,0,64,127,,
64680,note_on,72,0,2,,,,,,,,0,,,56,64
64728,note_on,48,0,2,,,,,,,,0,,,56,0
64740,note_on,12,0,2,,,,,,,,0,,,58,64
64764,note_on,144,0,3,,,,,,,,0,,,70,0
64788,note_on,48,0,2,,,,,,,,0,,,58,0
64800,control_change,0,0,4,,,,,,,,0,64,0,,
64800,note_on,36,0,3,,,,,,,,0,,,67,88
64800,note_on,162,0,4,,,,,,,,0,,,51,56
64800,note_on,0,0,4,,,,,,,,0,,,46,56
64800,note_on,0,0,4,,,,,,,,0,,,39,56
64846,control_change,46,0,4,,,,,,,,0,64,127,,
64860,note_on,72,0,2,,,,,,,,0,,,55,64
64896,note_on,0,0,4,,,,,,,,0,,,51,0
64896,note_on,0,0,4,,,,,,,,0,,,46,0
64896,note_on,50,0,4,,,,,,,,0,,,39,0
64908,note_on,48,0,2,,,,,,,,0,,,55,0
64919,set_tempo,297,1,0,,,,,,676590,,,,,,
64920,note_on,12,0,2,,,,,,,,0,,,58,64
64928,set_tempo,9,1,0,,,,,,670991,,,,,,
64932,set_tempo,4,1,0,,,,,,665484,,,,,,
64936,set_tempo,4,1,0,,,,,,660066,,,,,,
64941,set_tempo,5,1,0,,,,,,654736,,,,,,
64944,note_on,144,0,3,,,,,,,,0,,,67,0
64945,set_tempo,4,1,0,,,,,,649491,,,,,,
64950,set_tempo,5,1,0,,,,,,644330,,,,,,
64954,set_tempo,4,1,0,,,,,,639250,,,,,,
64958,set_tempo,4,1,0,,,,,,634249,,,,,,
64963,set_tempo,5,1,0,,,,,,629327,,,,,,
64967,set_tempo,4,1,0,,,,,,624480,,,,,,
64968,note_on,48,0,2,,,,,,,,0,,,58,0
64971,set_tempo,4,1,0,,,,,,619707,,,,,,
64976,set_tempo,5,1,0,,,,,,615006,,,,,,
64980,set_tempo,4,1,0,,,,,,610376,,,,,,
64980,note_on,36,0,3,,,,,,,,0,,,65,88
64980,note_on,84,0,4,,,,,,,,0,,,46,56
64980,note_on,0,0,4,,,,,,,,0,,,51,56
64980,note_on,0,0,4,,,,,,,,0,,,39,56
64984,set_tempo,4,1,0,,,,,,605816,,,,,,
64989,set_tempo,5,1,0,,,,,,601323,,,,,,
64993,set_tempo,4,1,0,,,,,,596896,,,,,,
64998,set_tempo,5,1,0,,,,,,592534,,,,,,
65002,set_tempo,4,1,0,,,,,,588235,,,,,,
65006,set_tempo,4,1,0,,,,,,583998,,,,,,
65011,set_tempo,5,1,0,,,,,,579822,,,,,,
65015,set_tempo,4,1,0,,,,,,575705,,,,,,
65019,set_tempo,4,1,0,,,,,,571646,,,,,,
65024,set_tempo,5,1,0,,,,,,567644,,,,,,
65028,set_tempo,4,1,0,,,,,,563698,,,,,,
65028,note_on,0,0,4,,,,,,,,0,,,46,0
65028,note_on,48,0,4,,,,,,,,0,,,39,0
65028,note_on,0,0,4,,,,,,,,0,,,51,0
65032,set_tempo,4,1,0,,,,,,559806,,,,,,
65037,set_tempo,5,1,0,,,,,,555967,,,,,,
65040,note_on,12,0,4,,,,,,,,0,,,46,56
65040,note_on,0,0,4,,,,,,,,0,,,51,56
65040,note_on,0,0,4,,,,,,,,0,,,39,56
65040,note_on,72,0,2,,,,,,,,0,,,67,64
65041,set_tempo,4,1,0,,,,,,552181,,,,,,
65042,control_change,2,0,4,,,,,,,,0,64,0,,
65046,set_tempo,5,1,0,,,,,,548446,,,,,,
65050,set_tempo,4,1,0,,,,,,544761,,,,,,
65054,set_tempo,4,1,0,,,,,,541126,,,,,,
65059,set_tempo,5,1,0,,,,,,537538,,,,,,
65063,set_tempo,4,1,0,,,,,,533998,,,,,,
65067,set_tempo,4,1,0,,,,,,530504,,,,,,
65072,set_tempo,5,1,0,,,,,,527056,,,,,,
65074,control_change,32,0,4,,,,,,,,0,64,127,,
65076,set_tempo,4,1,0,,,,,,523652,,,,,,
65080,set_tempo,4,1,0,,,,,,520291,,,,,,
65085,set_tempo,5,1,0,,,,,,516974,,,,,,
65088,note_on,48,0,2,,,,,,,,0,,,67,0
65089,set_tempo,4,1,0,,,,,,513699,,,,,,
65094,set_tempo,5,1,0,,,,,,510465,,,,,,
65098,set_tempo,4,1,0,,,,,,507271,,,,,,
65100,note_on,12,0,2,,,,,,,,0,,,55,64
65102,set_tempo,4,1,0,,,,,,504117,,,,,,
65107,set_tempo,5,1,0,,,,,,501002,,,,,,
65111,set_tempo,4,1,0,,,,,,497925,,,,,,
65115,set_tempo,4,1,0,,,,,,494886,,,,,,
65120,set_tempo,5,1,0,,,,,,491884,,,,,,
65124,set_tempo,4,1,0,,,,,,488918,,,,,,
65128,set_tempo,4,1,0,,,,,,485987,,,,,,
65133,set_tempo,5,1,0,,,,,,483092,,,,,,
65136,note_on,62,0,4,,,,,,,,0,,,39,0
65136,note_on,0,0,4,,,,,,,,0,,,46,0
65136,note_on,0,0,4,,,,,,,,0,,,51,0
65137,set_tempo,4,1,0,,,,,,480231,,,,,,
65142,set_tempo,5,1,0,,,,,,477403,,,,,,
65146,set_tempo,4,1,0,,,,,,474608,,,,,,
65148,note_on,48,0,2,,,,,,,,0,,,55,0
65150,set_tempo,4,1,0,,,,,,471846,,,,,,
65155,set_tempo,5,1,0,,,,,,469116,,,,,,
65159,set_tempo,4,1,0,,,,,,466418,,,,,,
65160,note_on,12,0,2,,,,,,,,0,,,58,64
65163,set_tempo,4,1,0,,,,,,463750,,,,,,
65168,set_tempo,5,1,0,,,,,,461113,,,,,,
65172,note_on,192,0,3,,,,,,,,0,,,65,0
65172,set_tempo,4,1,0,,,,,,458505,,,,,,
65176,set_tempo,4,1,0,,,,,,455927,,,,,,
65181,set_tempo,5,1,0,,,,,,453378,,,,,,
65185,set_tempo,4,1,0,,,,,,450857,,,,,,
65190,set_tempo,5,1,0,,,,,,448363,,,,,,
65194,set_tempo,4,1,0,,,,,,445898,,,,,,
65198,set_tempo,4,1,0,,,,,,443459,,,,,,
65203,set_tempo,5,1,0,,,,,,441047,,,,,,
65207,set_tempo,4,1,0,,,,,,438661,,,,,,
65208,note_on,48,0,2,,,,,,,,0,,,58,0
65211,set_tempo,4,1,0,,,,,,436300,,,,,,
65216,set_tempo,5,1,0,,,,,,433965,,,,,,
65220,set_tempo,4,1,0,,,,,,431655,,,,,,
65220,note_on,48,0,3,,,,,,,,0,,,63,88
65224,set_tempo,4,1,0,,,,,,429369,,,,,,
65229,set_tempo,5,1,0,,,,,,427107,,,,,,
65233,set_tempo,4,1,0,,,,,,424869,,,,,,
65238,set_tempo,5,1,0,,,,,,422654,,,,,,
65242,set_tempo,4,1,0,,,,,,420463,,,,,,
65246,set_tempo,4,1,0,,,,,,418293,,,,,,
65251,set_tempo,5,1,0,,,,,,416146,,,,,,
65255,set_tempo,4,1,0,,,,,,414022,,,,,,
65259,set_tempo,4,1,0,,,,,,411918,,,,,,
65264,set_tempo,5,1,0,,,,,,409836,,,,,,
65268,set_tempo,4,1,0,,,,,,407775,,,,,,
65272,set_tempo,4,1,0,,,,,,405734,,,,,,
65276,control_change,140,0,4,,,,,,,,0,64,0,,
65277,set_tempo,5,1,0,,,,,,403714,,,,,,
65280,note_on,72,0,2,,,,,,,,0,,,67,64
65300,control_change,24,0,4,,,,,,,,0,64,127,,
65328,note_on,48,0,2,,,,,,,,0,,,67,0
65340,note_on,12,0,2,,,,,,,,0,,,55,64
65388,note_on,48,0,2,,,,,,,,0,,,55,0
65400,note_on,12,0,2,,,,,,,,0,,,58,64
65412,note_on,192,0,3,,,,,,,,0,,,63,0
65448,note_on,48,0,2,,,,,,,,0,,,58,0
65460,note_on,48,0,3,,,,,,,,0,,,62,88
65520,control_change,220,0,4,,,,,,,,0,64,127,,
65520,note_on,0,0,4,,,,,,,,0,,,39,56
65520,note_on,0,0,4,,,,,,,,0,,,51,56
65520,note_on,0,0,4,,,,,,,,0,,,46,56
65520,note_on,72,0,2,,,,,,,,0,,,67,64
65529,set_tempo,252,1,0,,,,,,403714,,,,,,
65533,set_tempo,4,1,0,,,,,,405734,,,,,,
65542,set_tempo,9,1,0,,,,,,407775,,,,,,
65555,set_tempo,13,1,0,,,,,,409836,,,,,,
65564,set_tempo,9,1,0,,,,,,411918,,,,,,
65568,note_on,48,0,2,,,,,,,,0,,,67,0
65577,set_tempo,13,1,0,,,,,,414022,,,,,,
65580,note_on,12,0,2,,,,,,,,0,,,55,64
65586,set_tempo,9,1,0,,,,,,416146,,,,,,
65599,set_tempo,13,1,0,,,,,,418293,,,,,,
65612,set_tempo,13,1,0,,,,,,420463,,,,,,
65616,note_on,96,0,4,,,,,,,,0,,,46,0
65616,note_on,0,0,4,,,,,,,,0,,,51,0
65616,note_on,0,0,4,,,,,,,,0,,,39,0
65621,set_tempo,9,1,0,,,,,,422654,,,,,,
65628,note_on,48,0,2,,,,,,,,0,,,55,0
65634,set_tempo,13,1,0,,,,,,424869,,,,,,
65640,note_on,12,0,2,,,,,,,,0,,,58,64
65642,set_tempo,8,1,0,,,,,,427107,,,,,,
65656,set_tempo,14,1,0,,,,,,429369,,,,,,
65664,note_on,204,0,3,,,,,,,,0,,,62,0
65664,set_tempo,8,1,0,,,,,,431655,,,,,,
65677,set_tempo,13,1,0,,,,,,433965,,,,,,
65688,note_on,48,0,2,,,,,,,,0,,,58,0
65690,set_tempo,13,1,0,,,,,,436300,,,,,,
65699,set_tempo,9,1,0,,,,,,438661,,,,,,
65700,note_on,36,0,3,,,,,,,,0,,,60,88
65700,note_on,0,0,4,,,,,,,,0,,,46,56
65700,note_on,84,0,4,,,,,,,,0,,,51,56
65700,note_on,0,0,4,,,,,,,,0,,,39,56
65712,set_tempo,13,1,0,,,,,,441047,,,,,,
65721,set_tempo,9,1,0,,,,,,443459,,,,,,
65734,set_tempo,13,1,0,,,,,,445898,,,,,,
65747,set_tempo,13,1,0,,,,,,448363,,,,,,
65748,note_on,48,0,4,,,,,,,,0,,,46,0
65748,note_on,0,0,4,,,,,,,,0,,,39,0
65748,note_on,0,0,4,,,,,,,,0,,,51,0
65756,set_tempo,9,1,0,,,,,,450857,,,,,,
65760,note_on,0,0,4,,,,,,,,0,,,51,56
65760,note_on,0,0,4,,,,,,,,0,,,39,56
65760,note_on,72,0,2,,,,,,,,0,,,67,64
65760,note_on,12,0,4,,,,,,,,0,,,46,56
65762,control_change,2,0,4,,,,,,,,0,64,0,,
65769,set_tempo,13,1,0,,,,,,453378,,,,,,
65778,set_tempo,9,1,0,,,,,,455927,,,,,,
65791,set_tempo,13,1,0,,,,,,458505,,,,,,
65794,control_change,32,0,4,,,,,,,,0,64,127,,
65800,set_tempo,9,1,0,,,,,,461113,,,,,,
65808,note_on,48,0,2,,,,,,,,0,,,67,0
65813,set_tempo,13,1,0,,,,,,463750,,,,,,
65820,note_on,12,0,2,,,,,,,,0,,,55,64
65826,set_tempo,13,1,0,,,,,,466418,,,,,,
65834,set_tempo,8,1,0,,,,,,469116,,,,,,
65844,note_on,144,0,3,,,,,,,,0,,,60,0
65848,set_tempo,14,1,0,,,,,,471846,,,,,,
65856,note_on,62,0,4,,,,,,,,0,,,39,0
65856,note_on,0,0,4,,,,,,,,0,,,51,0
65856,set_tempo,8,1,0,,,,,,474608,,,,,,
65856,note_on,0,0,4,,,,,,,,0,,,46,0
65868,note_on,48,0,2,,,,,,,,0,,,55,0
65869,set_tempo,13,1,0,,,,,,477403,,,,,,
65880,note_on,36,0,3,,,,,,,,0,,,58,88
65882,set_tempo,13,1,0,,,,,,480231,,,,,,
65891,set_tempo,9,1,0,,,,,,483092,,,,,,
65904,set_tempo,13,1,0,,,,,,485987,,,,,,
65913,set_tempo,9,1,0,,,,,,488918,,,,,,
65926,set_tempo,13,1,0,,,,,,491884,,,,,,
65935,set_tempo,9,1,0,,,,,,494886,,,,,,
65940,note_on,72,0,2,,,,,,,,0,,,67,64
65948,set_tempo,13,1,0,,,,,,497925,,,,,,
65961,set_tempo,13,1,0,,,,,,501002,,,,,,
65970,set_tempo,9,1,0,,,,,,504117,,,,,,
65983,set_tempo,13,1,0,,,,,,507271,,,,,,
65988,note_on,48,0,2,,,,,,,,0,,,67,0
65992,set_tempo,9,1,0,,,,,,510465,,,,,,
65996,control_change,140,0,4,,,,,,,,0,64,0,,
66000,note_on,12,0,2,,,,,,,,0,,,55,64
66005,set_tempo,13,1,0,,,,,,513699,,,,,,
66013,set_tempo,8,1,0,,,,,,516974,,,,,,
66024,note_on,144,0,3,,,,,,,,0,,,58,0
66026,set_tempo,13,1,0,,,,,,520291,,,,,,
66032,control_change,36,0,4,,,,,,,,0,64,127,,
66040,set_tempo,14,1,0,,,,,,523652,,,,,,
66048,note_on,48,0,2,,,,,,,,0,,,55,0
66048,set_tempo,8,1,0,,,,,,527056,,,,,,
66060,note_on,12,0,2,,,,,,,,0,,,58,64
66060,note_on,36,0,3,,,,,,,,0,,,58,88
66061,set_tempo,13,1,0,,,,,,530504,,,,,,
66070,set_tempo,9,1,0,,,,,,533998,,,,,,
66083,set_tempo,13,1,0,,,,,,537538,,,,,,
66096,set_tempo,13,1,0,,,,,,541126,,,,,,
66105,set_tempo,9,1,0,,,,,,544761,,,,,,
66108,note_on,48,0,2,,,,,,,,0,,,58,0
66118,set_tempo,13,1,0,,,,,,548446,,,,,,
66120,note_on,60,0,3,,,,,,,,0,,,67,88
66127,set_tempo,9,1,0,,,,,,552181,,,,,,
66140,set_tempo,13,1,0,,,,,,555967,,,,,,
66149,set_tempo,9,1,0,,,,,,559806,,,,,,
66162,set_tempo,13,1,0,,,,,,563698,,,,,,
66175,set_tempo,13,1,0,,,,,,567644,,,,,,
66180,note_on,72,0,2,,,,,,,,0,,,55,64
66184,set_tempo,9,1,0,,,,,,571646,,,,,,
66197,set_tempo,13,1,0,,,,,,575705,,,,,,
66205,set_tempo,8,1,0,,,,,,579822,,,,,,
66216,note_on,96,0,3,,,,,,,,0,,,67,0
66216,note_on,0,0,3,,,,,,,,0,,,58,0
66218,set_tempo,13,1,0,,,,,,583998,,,,,,
66228,note_on,48,0,2,,,,,,,,0,,,55,0
66232,set_tempo,14,1,0,,,,,,575705,,,,,,
66236,set_tempo,4,1,0,,,,,,579822,,,,,,
66240,note_on,24,0,3,,,,,,,,0,,,67,88
66240,note_on,0,0,4,,,,,,,,0,,,38,80
66240,set_tempo,4,1,0,,,,,,583998,,,,,,
66240,control_change,208,0,4,,,,,,,,0,64,0,,
66240,note_on,0,0,4,,,,,,,,0,,,48,80
66240,note_on,0,0,4,,,,,,,,0,,,50,80
66245,set_tempo,5,1,0,,,,,,592534,,,,,,
66265,control_change,25,0,4,,,,,,,,0,64,127,,
66272,set_tempo,27,1,0,,,,,,588235,,,,,,
66276,set_tempo,4,1,0,,,,,,596896,,,,,,
66289,set_tempo,13,1,0,,,,,,592534,,,,,,
66298,set_tempo,9,1,0,,,,,,588235,,,,,,
66300,note_on,72,0,2,,,,,,,,0,,,57,64
66311,set_tempo,13,1,0,,,,,,583998,,,,,,
66320,set_tempo,9,1,0,,,,,,579822,,,,,,
66328,set_tempo,8,1,0,,,,,,575705,,,,,,
66336,note_on,0,0,4,,,,,,,,0,,,48,0
66336,note_on,71,0,4,,,,,,,,0,,,50,0
66336,note_on,0,0,4,,,,,,,,0,,,38,0
66341,set_tempo,13,1,0,,,,,,571646,,,,,,
66348,note_on,48,0,2,,,,,,,,0,,,57,0
66350,set_tempo,9,1,0,,,,,,567644,,,,,,
66360,note_on,12,0,2,,,,,,,,0,,,60,64
66363,set_tempo,13,1,0,,,,,,563698,,,,,,
66372,set_tempo,9,1,0,,,,,,559806,,,,,,
66381,set_tempo,9,1,0,,,,,,555967,,,,,,
66384,note_on,144,0,3,,,,,,,,0,,,67,0
66394,set_tempo,13,1,0,,,,,,552181,,,,,,
66403,set_tempo,9,1,0,,,,,,548446,,,,,,
66408,note_on,48,0,2,,,,,,,,0,,,60,0
66416,set_tempo,13,1,0,,,,,,544761,,,,,,
66420,note_on,0,0,4,,,,,,,,0,,,50,80
66420,note_on,0,0,4,,,,,,,,0,,,48,80
66420,note_on,84,0,4,,,,,,,,0,,,38,80
66420,note_on,36,0,3,,,,,,,,0,,,66,88
66424,set_tempo,8,1,0,,,,,,541126,,,,,,
66433,set_tempo,9,1,0,,,,,,537538,,,,,,
66446,set_tempo,13,1,0,,,,,,533998,,,,,,
66455,set_tempo,9,1,0,,,,,,530504,,,,,,
66464,set_tempo,9,1,0,,,,,,527056,,,,,,
66468,note_on,0,0,4,,,,,,,,0,,,38,0
66468,note_on,48,0,4,,,,,,,,0,,,48,0
66468,note_on,0,0,4,,,,,,,,0,,,50,0
66477,set_tempo,13,1,0,,,,,,523652,,,,,,
66480,note_on,0,0,4,,,,,,,,0,,,48,80
66480,note_on,12,0,4,,,,,,,,0,,,38,80
66480,note_on,0,0,4,,,,,,,,0,,,50,80
66480,note_on,72,0,2,,,,,,,,0,,,57,64
66485,set_tempo,8,1,0,,,,,,520291,,,,,,
66491,control_change,11,0,4,,,,,,,,0,64,0,,
66499,set_tempo,14,1,0,,,,,,516974,,,,,,
66507,set_tempo,8,1,0,,,,,,513699,,,,,,
66516,set_tempo,9,1,0,,,,,,510465,,,,,,
66526,control_change,35,0,4,,,,,,,,0,64,127,,
66528,note_on,48,0,2,,,,,,,,0,,,57,0
66529,set_tempo,13,1,0,,,,,,507271,,,,,,
66538,set_tempo,9,1,0,,,,,,504117,,,,,,
66540,note_on,12,0,2,,,,,,,,0,,,60,64
66551,set_tempo,13,1,0,,,,,,501002,,,,,,
66560,set_tempo,9,1,0,,,,,,497925,,,,,,
66564,note_on,144,0,3,,,,,,,,0,,,66,0
66568,set_tempo,8,1,0,,,,,,494886,,,,,,
66576,note_on,0,0,4,,,,,,,,0,,,38,0
66576,note_on,50,0,4,,,,,,,,0,,,50,0
66576,note_on,0,0,4,,,,,,,,0,,,48,0
66581,set_tempo,13,1,0,,,,,,491884,,,,,,
66588,note_on,48,0,2,,,,,,,,0,,,60,0
66590,set_tempo,9,1,0,,,,,,488918,,,,,,
66599,set_tempo,9,1,0,,,,,,485987,,,,,,
66600,note_on,36,0,3,,,,,,,,0,,,70,88
66612,set_tempo,13,1,0,,,,,,483092,,,,,,
66621,set_tempo,9,1,0,,,,,,480231,,,,,,
66634,set_tempo,13,1,0,,,,,,477403,,,,,,
66643,set_tempo,9,1,0,,,,,,474608,,,,,,
66651,set_tempo,8,1,0,,,,,,471846,,,,,,
66660,note_on,72,0,2,,,,,,,,0,,,60,64
66664,set_tempo,13,1,0,,,,,,469116,,,,,,
66673,set_tempo,9,1,0,,,,,,466418,,,,,,
66686,set_tempo,13,1,0,,,,,,463750,,,,,,
66695,set_tempo,9,1,0,,,,,,461113,,,,,,
66704,set_tempo,9,1,0,,,,,,458505,,,,,,
66708,note_on,48,0,2,,,,,,,,0,,,60,0
66717,set_tempo,13,1,0,,,,,,455927,,,,,,
66720,note_on,12,0,2,,,,,,,,0,,,62,64
66725,set_tempo,8,1,0,,,,,,453378,,,,,,
66734,set_tempo,9,1,0,,,,,,450857,,,,,,
66744,note_on,144,0,3,,,,,,,,0,,,70,0
66768,note_on,48,0,2,,,,,,,,0,,,62,0
66780,note_on,0,0,4,,,,,,,,0,,,54,80
66780,note_on,204,0,4,,,,,,,,0,,,50,80
66780,note_on,36,0,3,,,,,,,,0,,,69,88
66828,note_on,48,0,4,,,,,,,,0,,,54,0
66828,note_on,0,0,4,,,,,,,,0,,,50,0
66840,note_on,12,0,4,,,,,,,,0,,,54,80
66840,note_on,0,0,4,,,,,,,,0,,,50,80
66840,note_on,72,0,2,,,,,,,,0,,,60,64
66888,note_on,48,0,2,,,,,,,,0,,,60,0
66900,note_on,12,0,2,,,,,,,,0,,,62,64
66924,note_on,144,0,3,,,,,,,,0,,,69,0
66936,note_on,96,0,4,,,,,,,,0,,,50,0
66936,note_on,0,0,4,,,,,,,,0,,,54,0
66948,note_on,48,0,2,,,,,,,,0,,,62,0
66952,set_tempo,218,1,0,,,,,,450857,,,,,,
66960,note_on,36,0,3,,,,,,,,0,,,72,88
66974,set_tempo,22,1,0,,,,,,453378,,,,,,
66992,set_tempo,18,1,0,,,,,,455927,,,,,,
67009,set_tempo,17,1,0,,,,,,458505,,,,,,
67020,note_on,72,0,2,,,,,,,,0,,,58,80
67027,set_tempo,18,1,0,,,,,,461113,,,,,,
67044,set_tempo,17,1,0,,,,,,463750,,,,,,
67061,set_tempo,17,1,0,,,,,,466418,,,,,,
67068,note_on,48,0,2,,,,,,,,0,,,58,0
67079,set_tempo,18,1,0,,,,,,469116,,,,,,
67080,note_on,12,0,2,,,,,,,,0,,,62,80
67096,set_tempo,17,1,0,,,,,,471846,,,,,,
67104,note_on,144,0,3,,,,,,,,0,,,72,0
67114,set_tempo,18,1,0,,,,,,474608,,,,,,
67128,note_on,48,0,2,,,,,,,,0,,,62,0
67131,set_tempo,17,1,0,,,,,,477403,,,,,,
67140,note_on,0,0,4,,,,,,,,0,,,43,80
67140,note_on,0,0,4,,,,,,,,0,,,55,80
67140,note_on,36,0,3,,,,,,,,0,,,70,80
67140,note_on,204,0,4,,,,,,,,0,,,50,80
67147,control_change,7,0,4,,,,,,,,0,64,0,,
67149,set_tempo,18,1,0,,,,,,480231,,,,,,
67166,set_tempo,17,1,0,,,,,,483092,,,,,,
67168,control_change,21,0,4,,,,,,,,0,64,127,,
67184,set_tempo,18,1,0,,,,,,485987,,,,,,
67188,note_on,20,0,4,,,,,,,,0,,,55,0
67188,note_on,0,0,4,,,,,,,,0,,,43,0
67188,note_on,0,0,4,,,,,,,,0,,,50,0
67200,note_on,12,0,4,,,,,,,,0,,,43,80
67200,note_on,0,0,4,,,,,,,,0,,,55,80
67200,note_on,0,0,4,,,,,,,,0,,,50,80
67200,note_on,72,0,2,,,,,,,,0,,,58,80
67205,set_tempo,21,1,0,,,,,,488918,,,,,,
67223,set_tempo,18,1,0,,,,,,491884,,,,,,
67240,set_tempo,17,1,0,,,,,,494886,,,,,,
67248,note_on,48,0,2,,,,,,,,0,,,58,0
67258,set_tempo,18,1,0,,,,,,497925,,,,,,
67260,note_on,12,0,2,,,,,,,,0,,,62,80
67275,set_tempo,17,1,0,,,,,,501002,,,,,,
67284,note_on,144,0,3,,,,,,,,0,,,70,0
67293,set_tempo,18,1,0,,,,,,504117,,,,,,
67296,note_on,0,0,4,,,,,,,,0,,,50,0
67296,note_on,0,0,4,,,,,,,,0,,,43,0
67296,note_on,96,0,4,,,,,,,,0,,,55,0
67308,note_on,48,0,2,,,,,,,,0,,,62,0
67310,set_tempo,17,1,0,,,,,,507271,,,,,,
67320,note_on,36,0,3,,,,,,,,0,,,74,80
67328,set_tempo,18,1,0,,,,,,510465,,,,,,
67345,set_tempo,17,1,0,,,,,,513699,,,,,,
67363,set_tempo,18,1,0,,,,,,516974,,,,,,
67380,note_on,72,0,2,,,,,,,,0,,,62,80
67380,set_tempo,17,1,0,,,,,,520291,,,,,,
67397,set_tempo,17,1,0,,,,,,523652,,,,,,
67415,set_tempo,18,1,0,,,,,,527056,,,,,,
67428,note_on,48,0,2,,,,,,,,0,,,62,0
67437,set_tempo,22,1,0,,,,,,530504,,,,,,
67440,note_on,0,0,4,,,,,,,,0,,,56,80
67440,note_on,0,0,4,,,,,,,,0,,,58,80
67440,note_on,144,0,4,,,,,,,,0,,,46,80
67440,note_on,12,0,2,,,,,,,,0,,,65,80
67454,set_tempo,17,1,0,,,,,,533998,,,,,,
67464,note_on,144,0,3,,,,,,,,0,,,74,0
67472,set_tempo,18,1,0,,,,,,537538,,,,,,
67488,note_on,48,0,2,,,,,,,,0,,,65,0
67489,set_tempo,17,1,0,,,,,,541126,,,,,,
67500,note_on,36,0,3,,,,,,,,0,,,72,80
67507,set_tempo,18,1,0,,,,,,544761,,,,,,
67524,set_tempo,17,1,0,,,,,,548446,,,,,,
67536,note_on,0,0,4,,,,,,,,0,,,58,0
67536,note_on,96,0,4,,,,,,,,0,,,56,0
67536,note_on,0,0,4,,,,,,,,0,,,46,0
67541,set_tempo,17,1,0,,,,,,552181,,,,,,
67559,set_tempo,18,1,0,,,,,,555967,,,,,,
67560,note_on,72,0,2,,,,,,,,0,,,62,80
67560,note_on,24,0,4,,,,,,,,0,,,46,80
67560,note_on,0,0,4,,,,,,,,0,,,58,80
67560,note_on,0,0,4,,,,,,,,0,,,56,80
67576,set_tempo,17,1,0,,,,,,559806,,,,,,
67594,set_tempo,18,1,0,,,,,,563698,,,,,,
67596,note_on,96,0,3,,,,,,,,0,,,72,0
67608,note_on,48,0,2,,,,,,,,0,,,62,0
67611,set_tempo,17,1,0,,,,,,567644,,,,,,
67620,note_on,24,0,3,,,,,,,,0,,,70,80
67629,set_tempo,18,1,0,,,,,,571646,,,,,,
67646,set_tempo,17,1,0,,,,,,575705,,,,,,
67656,note_on,0,0,4,,,,,,,,0,,,46,0
67656,note_on,96,0,4,,,,,,,,0,,,58,0
67656,note_on,0,0,4,,,,,,,,0,,,56,0
67659,set_tempo,13,1,0,,,,,,567644,,,,,,
67668,note_on,48,0,3,,,,,,,,0,,,70,0
67672,set_tempo,13,1,0,,,,,,563698,,,,,,
67680,note_on,12,0,3,,,,,,,,0,,,79,88
67680,note_on,24,0,4,,,,,,,,0,,,39,80
67680,control_change,0,0,4,,,,,,,,0,64,0,,
67681,set_tempo,9,1,0,,,,,,559806,,,,,,
67690,set_tempo,9,1,0,,,,,,555967,,,,,,
67699,set_tempo,9,1,0,,,,,,552181,,,,,,
67707,set_tempo,8,1,0,,,,,,548446,,,,,,
67716,set_tempo,9,1,0,,,,,,544761,,,,,,
67717,control_change,37,0,4,,,,,,,,0,64,127,,
67725,set_tempo,9,1,0,,,,,,541126,,,,,,
67733,set_tempo,8,1,0,,,,,,537538,,,,,,
67740,note_on,132,0,2,,,,,,,,0,,,67,64
67742,set_tempo,9,1,0,,,,,,533998,,,,,,
67751,set_tempo,9,1,0,,,,,,530504,,,,,,
67764,set_tempo,13,1,0,,,,,,527056,,,,,,
67773,set_tempo,9,1,0,,,,,,523652,,,,,,
67776,note_on,59,0,4,,,,,,,,0,,,39,0
67781,set_tempo,8,1,0,,,,,,520291,,,,,,
67788,note_on,48,0,2,,,,,,,,0,,,67,0
67790,set_tempo,9,1,0,,,,,,516974,,,,,,
67799,set_tempo,9,1,0,,,,,,513699,,,,,,
67800,note_on,0,0,4,,,,,,,,0,,,55,80
67800,note_on,24,0,4,,,,,,,,0,,,65,80
67800,note_on,12,0,2,,,,,,,,0,,,70,64
67800,note_on,0,0,4,,,,,,,,0,,,58,80
67808,set_tempo,9,1,0,,,,,,510465,,,,,,
67816,set_tempo,8,1,0,,,,,,507271,,,,,,
67824,note_on,144,0,3,,,,,,,,0,,,79,0
67825,set_tempo,9,1,0,,,,,,504117,,,,,,
67834,set_tempo,9,1,0,,,,,,501002,,,,,,
67843,set_tempo,9,1,0,,,,,,497925,,,,,,
67848,note_on,48,0,2,,,,,,,,0,,,70,0
67851,set_tempo,8,1,0,,,,,,494886,,,,,,
67860,note_on,36,0,3,,,,,,,,0,,,77,88
67864,set_tempo,13,1,0,,,,,,491884,,,,,,
67873,set_tempo,9,1,0,,,,,,488918,,,,,,
67882,set_tempo,9,1,0,,,,,,485987,,,,,,
67891,set_tempo,9,1,0,,,,,,483092,,,,,,
67896,note_on,0,0,4,,,,,,,,0,,,58,0
67896,note_on,0,0,4,,,,,,,,0,,,65,0
67896,note_on,96,0,4,,,,,,,,0,,,55,0
67899,set_tempo,8,1,0,,,,,,480231,,,,,,
67908,set_tempo,9,1,0,,,,,,477403,,,,,,
67917,set_tempo,9,1,0,,,,,,474608,,,,,,
67920,note_on,24,0,4,,,,,,,,0,,,43,80
67920,note_on,72,0,2,,,,,,,,0,,,79,64
67925,set_tempo,8,1,0,,,,,,471846,,,,,,
67934,set_tempo,9,1,0,,,,,,469116,,,,,,
67943,set_tempo,9,1,0,,,,,,466418,,,,,,
67952,set_tempo,9,1,0,,,,,,463750,,,,,,
67965,set_tempo,13,1,0,,,,,,461113,,,,,,
67968,note_on,48,0,2,,,,,,,,0,,,79,0
67973,set_tempo,8,1,0,,,,,,458505,,,,,,
67980,note_on,12,0,2,,,,,,,,0,,,67,64
67982,set_tempo,9,1,0,,,,,,455927,,,,,,
67991,set_tempo,9,1,0,,,,,,453378,,,,,,
68000,set_tempo,9,1,0,,,,,,450857,,,,,,
68008,set_tempo,8,1,0,,,,,,448363,,,,,,
68016,note_on,96,0,4,,,,,,,,0,,,43,0
68017,set_tempo,9,1,0,,,,,,445898,,,,,,
68026,set_tempo,9,1,0,,,,,,443459,,,,,,
68028,note_on,48,0,2,,,,,,,,0,,,67,0
68035,set_tempo,9,1,0,,,,,,441047,,,,,,
68040,note_on,12,0,2,,,,,,,,0,,,70,64
68040,note_on,24,0,4,,,,,,,,0,,,58,80
68040,note_on,0,0,4,,,,,,,,0,,,55,80
68040,note_on,0,0,4,,,,,,,,0,,,63,80
68043,set_tempo,8,1,0,,,,,,438661,,,,,,
68052,note_on,192,0,3,,,,,,,,0,,,77,0
68052,set_tempo,9,1,0,,,,,,436300,,,,,,
68065,set_tempo,13,1,0,,,,,,433965,,,,,,
68074,set_tempo,9,1,0,,,,,,431655,,,,,,
68083,set_tempo,9,1,0,,,,,,429369,,,,,,
68088,note_on,48,0,2,,,,,,,,0,,,70,0
68091,set_tempo,8,1,0,,,,,,427107,,,,,,
68100,note_on,48,0,3,,,,,,,,0,,,75,88
68100,set_tempo,9,1,0,,,,,,424869,,,,,,
68109,set_tempo,9,1,0,,,,,,422654,,,,,,
68117,set_tempo,8,1,0,,,,,,420463,,,,,,
68126,set_tempo,9,1,0,,,,,,418293,,,,,,
68135,set_tempo,9,1,0,,,,,,416146,,,,,,
68136,note_on,0,0,4,,,,,,,,0,,,58,0
68136,note_on,0,0,4,,,,,,,,0,,,55,0
68136,note_on,96,0,4,,,,,,,,0,,,63,0
68144,set_tempo,9,1,0,,,,,,414022,,,,,,
68152,set_tempo,8,1,0,,,,,,411918,,,,,,
68160,note_on,72,0,2,,,,,,,,0,,,79,64
68160,control_change,0,0,4,,,,,,,,0,64,0,,
68160,note_on,24,0,4,,,,,,,,0,,,46,80
68197,control_change,37,0,4,,,,,,,,0,64,127,,
68208,note_on,48,0,2,,,,,,,,0,,,79,0
68220,note_on,12,0,2,,,,,,,,0,,,67,64
68256,note_on,59,0,4,,,,,,,,0,,,46,0
68268,note_on,48,0,2,,,,,,,,0,,,67,0
68280,note_on,24,0,4,,,,,,,,0,,,55,80
68280,note_on,12,0,2,,,,,,,,0,,,70,64
68280,note_on,0,0,4,,,,,,,,0,,,58,80
68280,note_on,0,0,4,,,,,,,,0,,,62,80
68292,note_on,192,0,3,,,,,,,,0,,,75,0
68328,note_on,48,0,2,,,,,,,,0,,,70,0
68340,note_on,48,0,3,,,,,,,,0,,,74,88
68376,note_on,0,0,4,,,,,,,,0,,,55,0
68376,note_on,96,0,4,,,,,,,,0,,,58,0
68376,note_on,0,0,4,,,,,,,,0,,,62,0
68384,set_tempo,232,1,0,,,,,,409836,,,,,,
68397,set_tempo,13,1,0,,,,,,411918,,,,,,
68400,note_on,72,0,2,,,,,,,,0,,,79,64
68400,control_change,0,0,4,,,,,,,,0,64,0,,
68400,note_on,24,0,4,,,,,,,,0,,,39,80
68410,set_tempo,13,1,0,,,,,,414022,,,,,,
68423,set_tempo,13,1,0,,,,,,416146,,,,,,
68432,set_tempo,9,1,0,,,,,,418293,,,,,,
68442,control_change,42,0,4,,,,,,,,0,64,127,,
68445,set_tempo,13,1,0,,,,,,420463,,,,,,
68448,note_on,48,0,2,,,,,,,,0,,,79,0
68458,set_tempo,13,1,0,,,,,,422654,,,,,,
68460,note_on,12,0,2,,,,,,,,0,,,67,64
68471,set_tempo,13,1,0,,,,,,424869,,,,,,
68480,set_tempo,9,1,0,,,,,,427107,,,,,,
68493,set_tempo,13,1,0,,,,,,429369,,,,,,
68496,note_on,54,0,4,,,,,,,,0,,,39,0
68506,set_tempo,13,1,0,,,,,,431655,,,,,,
68508,note_on,48,0,2,,,,,,,,0,,,67,0
68519,set_tempo,13,1,0,,,,,,433965,,,,,,
68520,note_on,0,0,4,,,,,,,,0,,,55,80
68520,note_on,12,0,2,,,,,,,,0,,,70,64
68520,note_on,24,0,4,,,,,,,,0,,,60,80
68520,note_on,0,0,4,,,,,,,,0,,,51,80
68528,set_tempo,9,1,0,,,,,,436300,,,,,,
68541,set_tempo,13,1,0,,,,,,438661,,,,,,
68544,note_on,204,0,3,,,,,,,,0,,,74,0
68554,set_tempo,13,1,0,,,,,,441047,,,,,,
68563,set_tempo,9,1,0,,,,,,443459,,,,,,
68568,note_on,48,0,2,,,,,,,,0,,,70,0
68576,set_tempo,13,1,0,,,,,,445898,,,,,,
68580,note_on,36,0,3,,,,,,,,0,,,72,88
68589,set_tempo,13,1,0,,,,,,448363,,,,,,
68602,set_tempo,13,1,0,,,,,,450857,,,,,,
68611,set_tempo,9,1,0,,,,,,453378,,,,,,
68616,note_on,0,0,4,,,,,,,,0,,,60,0
68616,note_on,0,0,4,,,,,,,,0,,,51,0
68616,note_on,96,0,4,,,,,,,,0,,,55,0
68624,set_tempo,13,1,0,,,,,,455927,,,,,,
68637,set_tempo,13,1,0,,,,,,458505,,,,,,
68640,note_on,24,0,4,,,,,,,,0,,,43,80
68640,note_on,72,0,2,,,,,,,,0,,,79,64
68650,set_tempo,13,1,0,,,,,,461113,,,,,,
68659,set_tempo,9,1,0,,,,,,463750,,,,,,
68672,set_tempo,13,1,0,,,,,,466418,,,,,,
68685,set_tempo,13,1,0,,,,,,469116,,,,,,
68688,note_on,48,0,2,,,,,,,,0,,,79,0
68698,set_tempo,13,1,0,,,,,,471846,,,,,,
68700,note_on,12,0,2,,,,,,,,0,,,67,64
68707,set_tempo,9,1,0,,,,,,474608,,,,,,
68720,set_tempo,13,1,0,,,,,,477403,,,,,,
68724,note_on,144,0,3,,,,,,,,0,,,72,0
68733,set_tempo,13,1,0,,,,,,480231,,,,,,
68736,note_on,96,0,4,,,,,,,,0,,,43,0
68741,set_tempo,8,1,0,,,,,,483092,,,,,,
68748,note_on,48,0,2,,,,,,,,0,,,67,0
68755,set_tempo,14,1,0,,,,,,485987,,,,,,
68760,note_on,36,0,3,,,,,,,,0,,,70,88
68760,note_on,0,0,4,,,,,,,,0,,,55,80
68760,note_on,24,0,4,,,,,,,,0,,,58,80
68760,note_on,0,0,4,,,,,,,,0,,,51,80
68768,set_tempo,13,1,0,,,,,,488918,,,,,,
68781,set_tempo,13,1,0,,,,,,491884,,,,,,
68789,set_tempo,8,1,0,,,,,,494886,,,,,,
68803,set_tempo,14,1,0,,,,,,497925,,,,,,
68816,set_tempo,13,1,0,,,,,,501002,,,,,,
68820,note_on,72,0,2,,,,,,,,0,,,79,64
68829,set_tempo,13,1,0,,,,,,504117,,,,,,
68837,set_tempo,8,1,0,,,,,,507271,,,,,,
68851,set_tempo,14,1,0,,,,,,510465,,,,,,
68856,note_on,0,0,4,,,,,,,,0,,,58,0
68856,note_on,0,0,4,,,,,,,,0,,,51,0
68856,note_on,96,0,4,,,,,,,,0,,,55,0
68864,set_tempo,13,1,0,,,,,,513699,,,,,,
68868,note_on,48,0,2,,,,,,,,0,,,79,0
68875,control_change,19,0,4,,,,,,,,0,64,0,,
68877,set_tempo,13,1,0,,,,,,516974,,,,,,
68880,note_on,12,0,2,,,,,,,,0,,,67,64
68880,note_on,5,0,4,,,,,,,,0,,,46,80
68885,set_tempo,8,1,0,,,,,,520291,,,,,,
68899,set_tempo,14,1,0,,,,,,523652,,,,,,
68912,control_change,32,0,4,,,,,,,,0,64,127,,
68912,set_tempo,13,1,0,,,,,,527056,,,,,,
68920,set_tempo,8,1,0,,,,,,530504,,,,,,
68928,note_on,48,0,2,,,,,,,,0,,,67,0
68933,set_tempo,13,1,0,,,,,,533998,,,,,,
68940,note_on,12,0,2,,,,,,,,0,,,70,64
68947,set_tempo,14,1,0,,,,,,537538,,,,,,
68952,note_on,192,0,3,,,,,,,,0,,,70,0
68960,set_tempo,13,1,0,,,,,,541126,,,,,,
68968,set_tempo,8,1,0,,,,,,544761,,,,,,
68976,note_on,64,0,4,,,,,,,,0,,,46,0
68981,set_tempo,13,1,0,,,,,,548446,,,,,,
68988,note_on,48,0,2,,,,,,,,0,,,70,0
68995,set_tempo,14,1,0,,,,,,552181,,,,,,
69000,note_on,0,0,4,,,,,,,,0,,,51,80
69000,note_on,0,0,4,,,,,,,,0,,,58,80
69000,note_on,24,0,4,,,,,,,,0,,,55,80
69000,note_on,48,0,3,,,,,,,,0,,,79,88
69008,set_tempo,13,1,0,,,,,,555967,,,,,,
69016,set_tempo,8,1,0,,,,,,559806,,,,,,
69029,set_tempo,13,1,0,,,,,,563698,,,,,,
69043,set_tempo,14,1,0,,,,,,567644,,,,,,
69056,set_tempo,13,1,0,,,,,,571646,,,,,,
69060,note_on,72,0,2,,,,,,,,0,,,67,64
69064,set_tempo,8,1,0,,,,,,575705,,,,,,
69077,set_tempo,13,1,0,,,,,,579822,,,,,,
69091,set_tempo,14,1,0,,,,,,583998,,,,,,
69096,note_on,0,0,4,,,,,,,,0,,,58,0
69096,note_on,96,0,3,,,,,,,,0,,,79,0
69096,note_on,96,0,4,,,,,,,,0,,,51,0
69096,note_on,0,0,4,,,,,,,,0,,,55,0
69099,set_tempo,8,1,0,,,,,,588235,,,,,,
69120,control_change,0,0,4,,,,,,,,0,64,0,,
69120,note_on,24,0,3,,,,,,,,0,,,79,80
69120,note_on,24,0,4,,,,,,,,0,,,39,80
69125,set_tempo,26,1,0,,,,,,575705,,,,,,
69139,set_tempo,14,1,0,,,,,,571646,,,,,,
69145,control_change,25,0,4,,,,,,,,0,64,127,,
69152,set_tempo,13,1,0,,,,,,567644,,,,,,
69165,set_tempo,13,1,0,,,,,,563698,,,,,,
69168,note_on,108,0,2,,,,,,,,0,,,67,0
69178,set_tempo,13,1,0,,,,,,559806,,,,,,
69180,note_on,12,0,2,,,,,,,,0,,,68,80
69191,set_tempo,13,1,0,,,,,,555967,,,,,,
69200,set_tempo,9,1,0,,,,,,552181,,,,,,
69213,set_tempo,13,1,0,,,,,,548446,,,,,,
69216,note_on,71,0,4,,,,,,,,0,,,39,0
69226,set_tempo,13,1,0,,,,,,544761,,,,,,
69228,note_on,48,0,2,,,,,,,,0,,,68,0
69239,set_tempo,13,1,0,,,,,,541126,,,,,,
69240,note_on,0,0,4,,,,,,,,0,,,59,80
69240,note_on,0,0,4,,,,,,,,0,,,62,80
69240,note_on,12,0,2,,,,,,,,0,,,71,80
69240,note_on,24,0,4,,,,,,,,0,,,56,80
69252,set_tempo,13,1,0,,,,,,537538,,,,,,
69261,set_tempo,9,1,0,,,,,,533998,,,,,,
69264,note_on,144,0,3,,,,,,,,0,,,79,0
69274,set_tempo,13,1,0,,,,,,530504,,,,,,
69287,set_tempo,13,1,0,,,,,,527056,,,,,,
69288,note_on,48,0,2,,,,,,,,0,,,71,0
69300,set_tempo,13,1,0,,,,,,523652,,,,,,
69300,note_on,12,0,2,,,,,,,,0,,,64,80
69300,note_on,36,0,3,,,,,,,,0,,,76,80
69313,set_tempo,13,1,0,,,,,,520291,,,,,,
69322,set_tempo,9,1,0,,,,,,516974,,,,,,
69335,set_tempo,13,1,0,,,,,,513699,,,,,,
69336,note_on,96,0,4,,,,,,,,0,,,62,0
69336,note_on,0,0,4,,,,,,,,0,,,59,0
69336,note_on,0,0,4,,,,,,,,0,,,56,0
69348,note_on,48,0,2,,,,,,,,0,,,64,0
69348,set_tempo,13,1,0,,,,,,510465,,,,,,
69360,note_on,24,0,4,,,,,,,,0,,,44,80
69360,note_on,12,0,2,,,,,,,,0,,,68,80
69361,set_tempo,13,1,0,,,,,,507271,,,,,,
69374,set_tempo,13,1,0,,,,,,504117,,,,,,
69387,set_tempo,13,1,0,,,,,,501002,,,,,,
69396,set_tempo,9,1,0,,,,,,497925,,,,,,
69408,note_on,48,0,2,,,,,,,,0,,,68,0
69409,set_tempo,13,1,0,,,,,,494886,,,,,,
69420,note_on,12,0,2,,,,,,,,0,,,71,80
69422,set_tempo,13,1,0,,,,,,491884,,,,,,
69435,set_tempo,13,1,0,,,,,,488918,,,,,,
69444,note_on,144,0,3,,,,,,,,0,,,76,0
69448,set_tempo,13,1,0,,,,,,485987,,,,,,
69456,note_on,96,0,4,,,,,,,,0,,,44,0
69457,set_tempo,9,1,0,,,,,,483092,,,,,,
69468,note_on,48,0,2,,,,,,,,0,,,71,0
69470,set_tempo,13,1,0,,,,,,480231,,,,,,
69480,note_on,12,0,2,,,,,,,,0,,,65,80
69480,note_on,0,0,4,,,,,,,,0,,,56,80
69480,note_on,0,0,4,,,,,,,,0,,,59,80
69480,note_on,24,0,4,,,,,,,,0,,,62,80
69480,note_on,36,0,3,,,,,,,,0,,,77,80
69483,set_tempo,13,1,0,,,,,,477403,,,,,,
69496,set_tempo,13,1,0,,,,,,474608,,,,,,
69509,set_tempo,13,1,0,,,,,,471846,,,,,,
69518,set_tempo,9,1,0,,,,,,469116,,,,,,
69528,note_on,48,0,2,,,,,,,,0,,,65,0
69531,set_tempo,13,1,0,,,,,,466418,,,,,,
69540,note_on,12,0,2,,,,,,,,0,,,68,80
69544,set_tempo,13,1,0,,,,,,463750,,,,,,
69557,set_tempo,13,1,0,,,,,,461113,,,,,,
69571,set_tempo,14,1,0,,,,,,458505,,,,,,
69576,note_on,96,0,4,,,,,,,,0,,,56,0
69576,note_on,0,0,4,,,,,,,,0,,,62,0
69576,note_on,0,0,4,,,,,,,,0,,,59,0
69579,set_tempo,8,1,0,,,,,,455927,,,,,,
69588,note_on,48,0,2,,,,,,,,0,,,68,0
69592,set_tempo,13,1,0,,,,,,453378,,,,,,
69596,control_change,20,0,4,,,,,,,,0,64,0,,
69600,note_on,4,0,4,,,,,,,,0,,,47,80
69600,note_on,12,0,2,,,,,,,,0,,,71,80
69605,set_tempo,13,1,0,,,,,,450857,,,,,,
69614,control_change,14,0,4,,,,,,,,0,64,127,,
69619,set_tempo,14,1,0,,,,,,448363,,,,,,
69624,note_on,144,0,3,,,,,,,,0,,,77,0
69632,set_tempo,13,1,0,,,,,,445898,,,,,,
69645,set_tempo,13,1,0,,,,,,443459,,,,,,
69648,note_on,48,0,2,,,,,,,,0,,,71,0
69653,set_tempo,8,1,0,,,,,,441047,,,,,,
69660,note_on,36,0,3,,,,,,,,0,,,79,80
69660,note_on,12,0,2,,,,,,,,0,,,67,80
69667,set_tempo,14,1,0,,,,,,438661,,,,,,
69680,set_tempo,13,1,0,,,,,,436300,,,,,,
69693,set_tempo,13,1,0,,,,,,433965,,,,,,
69696,note_on,82,0,4,,,,,,,,0,,,47,0
69706,set_tempo,13,1,0,,,,,,431655,,,,,,
69708,note_on,48,0,2,,,,,,,,0,,,67,0
69715,set_tempo,9,1,0,,,,,,429369,,,,,,
69720,note_on,12,0,2,,,,,,,,0,,,71,80
69720,note_on,0,0,4,,,,,,,,0,,,56,80
69720,note_on,24,0,4,,,,,,,,0,,,62,80
69720,note_on,0,0,4,,,,,,,,0,,,59,80
69728,set_tempo,13,1,0,,,,,,427107,,,,,,
69741,set_tempo,13,1,0,,,,,,424869,,,,,,
69754,set_tempo,13,1,0,,,,,,422654,,,,,,
69767,set_tempo,13,1,0,,,,,,420463,,,,,,
69768,note_on,48,0,2,,,,,,,,0,,,71,0
69776,set_tempo,9,1,0,,,,,,418293,,,,,,
69780,note_on,12,0,2,,,,,,,,0,,,74,80
69789,set_tempo,13,1,0,,,,,,416146,,,,,,
69802,set_tempo,13,1,0,,,,,,414022,,,,,,
69804,note_on,144,0,3,,,,,,,,0,,,79,0
69815,set_tempo,13,1,0,,,,,,411918,,,,,,
69816,note_on,0,0,4,,,,,,,,0,,,59,0
69816,note_on,0,0,4,,,,,,,,0,,,62,0
69816,note_on,96,0,4,,,,,,,,0,,,56,0
69828,note_on,48,0,2,,,,,,,,0,,,74,0
69828,set_tempo,13,1,0,,,,,,409836,,,,,,
69837,set_tempo,9,1,0,,,,,,407775,,,,,,
69840,note_on,24,0,4,,,,,,,,0,,,39,80
69840,note_on,12,0,2,,,,,,,,0,,,68,80
69840,note_on,36,0,3,,,,,,,,0,,,80,80
69854,control_change,14,0,4,,,,,,,,0,64,0,,
69875,control_change,21,0,4,,,,,,,,0,64,127,,
69888,note_on,48,0,2,,,,,,,,0,,,68,0
69900,note_on,12,0,2,,,,,,,,0,,,74,80
69936,note_on,61,0,4,,,,,,,,0,,,39,0
69948,note_on,48,0,2,,,,,,,,0,,,74,0
69960,note_on,0,0,4,,,,,,,,0,,,56,80
69960,note_on,0,0,4,,,,,,,,0,,,58,80
69960,note_on,12,0,2,,,,,,,,0,,,77,80
69960,note_on,24,0,4,,,,,,,,0,,,65,80
69984,note_on,144,0,3,,,,,,,,0,,,80,0
70008,note_on,48,0,2,,,,,,,,0,,,77,0
70020,note_on,36,0,3,,,,,,,,0,,,81,80
70020,note_on,12,0,2,,,,,,,,0,,,69,80
70056,note_on,96,0,4,,,,,,,,0,,,58,0
70056,note_on,0,0,4,,,,,,,,0,,,65,0
70056,note_on,0,0,4,,,,,,,,0,,,56,0
70068,note_on,48,0,2,,,,,,,,0,,,69,0
70080,note_on,12,0,2,,,,,,,,0,,,74,80
70080,note_on,24,0,4,,,,,,,,0,,,46,80
70128,note_on,48,0,2,,,,,,,,0,,,74,0
70129,set_tempo,292,1,0,,,,,,405734,,,,,,
70138,set_tempo,9,1,0,,,,,,407775,,,,,,
70140,note_on,12,0,2,,,,,,,,0,,,77,80
70147,set_tempo,9,1,0,,,,,,409836,,,,,,
70155,set_tempo,8,1,0,,,,,,411918,,,,,,
70164,set_tempo,9,1,0,,,,,,414022,,,,,,
70164,note_on,144,0,3,,,,,,,,0,,,81,0
70173,set_tempo,9,1,0,,,,,,416146,,,,,,
70176,note_on,96,0,4,,,,,,,,0,,,46,0
70182,set_tempo,9,1,0,,,,,,418293,,,,,,
70188,note_on,48,0,2,,,,,,,,0,,,77,0
70190,set_tempo,8,1,0,,,,,,420463,,,,,,
70199,set_tempo,9,1,0,,,,,,422654,,,,,,
70200,note_on,0,0,4,,,,,,,,0,,,58,80
70200,note_on,0,0,4,,,,,,,,0,,,56,80
70200,note_on,36,0,3,,,,,,,,0,,,84,80
70200,note_on,12,0,2,,,,,,,,0,,,72,80
70200,note_on,24,0,4,,,,,,,,0,,,65,80
70208,set_tempo,9,1,0,,,,,,424869,,,,,,
70216,set_tempo,8,1,0,,,,,,427107,,,,,,
70225,set_tempo,9,1,0,,,,,,429369,,,,,,
70234,set_tempo,9,1,0,,,,,,431655,,,,,,
70243,set_tempo,9,1,0,,,,,,433965,,,,,,
70248,note_on,48,0,2,,,,,,,,0,,,72,0
70251,set_tempo,8,1,0,,,,,,436300,,,,,,
70260,note_on,12,0,2,,,,,,,,0,,,74,80
70260,set_tempo,9,1,0,,,,,,438661,,,,,,
70269,set_tempo,9,1,0,,,,,,441047,,,,,,
70273,set_tempo,4,1,0,,,,,,443459,,,,,,
70282,set_tempo,9,1,0,,,,,,445898,,,,,,
70291,set_tempo,9,1,0,,,,,,448363,,,,,,
70296,note_on,0,0,4,,,,,,,,0,,,58,0
70296,note_on,96,0,4,,,,,,,,0,,,56,0
70296,note_on,0,0,4,,,,,,,,0,,,65,0
70299,set_tempo,8,1,0,,,,,,450857,,,,,,
70308,set_tempo,9,1,0,,,,,,453378,,,,,,
70308,note_on,48,0,2,,,,,,,,0,,,74,0
70316,control_change,20,0,4,,,,,,,,0,64,0,,
70317,set_tempo,9,1,0,,,,,,455927,,,,,,
70320,note_on,4,0,4,,,,,,,,0,,,50,80
70320,note_on,12,0,2,,,,,,,,0,,,77,80
70326,set_tempo,9,1,0,,,,,,458505,,,,,,
70334,set_tempo,8,1,0,,,,,,461113,,,,,,
70341,control_change,21,0,4,,,,,,,,0,64,127,,
70343,set_tempo,9,1,0,,,,,,463750,,,,,,
70344,note_on,144,0,3,,,,,,,,0,,,84,0
70352,set_tempo,9,1,0,,,,,,466418,,,,,,
70360,set_tempo,8,1,0,,,,,,469116,,,,,,
70368,note_on,48,0,2,,,,,,,,0,,,77,0
70369,set_tempo,9,1,0,,,,,,471846,,,,,,
70378,set_tempo,9,1,0,,,,,,474608,,,,,,
70380,note_on,12,0,2,,,,,,,,0,,,70,80
70380,note_on,36,0,3,,,,,,,,0,,,82,80
70387,set_tempo,9,1,0,,,,,,477403,,,,,,
70395,set_tempo,8,1,0,,,,,,480231,,,,,,
70404,set_tempo,9,1,0,,,,,,483092,,,,,,
70413,set_tempo,9,1,0,,,,,,485987,,,,,,
70416,note_on,75,0,4,,,,,,,,0,,,50,0
70417,set_tempo,4,1,0,,,,,,488918,,,,,,
70426,set_tempo,9,1,0,,,,,,491884,,,,,,
70428,note_on,48,0,2,,,,,,,,0,,,70,0
70435,set_tempo,9,1,0,,,,,,494886,,,,,,
70440,note_on,12,0,2,,,,,,,,0,,,74,80
70440,note_on,0,0,4,,,,,,,,0,,,65,80
70440,note_on,24,0,4,,,,,,,,0,,,56,80
70440,note_on,0,0,4,,,,,,,,0,,,58,80
70443,set_tempo,8,1,0,,,,,,497925,,,,,,
70452,set_tempo,9,1,0,,,,,,501002,,,,,,
70461,set_tempo,9,1,0,,,,,,504117,,,,,,
70470,set_tempo,9,1,0,,,,,,507271,,,,,,
70478,set_tempo,8,1,0,,,,,,510465,,,,,,
70487,set_tempo,9,1,0,,,,,,513699,,,,,,
70488,note_on,48,0,2,,,,,,,,0,,,74,0
70496,set_tempo,9,1,0,,,,,,516974,,,,,,
70500,note_on,12,0,2,,,,,,,,0,,,77,80
70504,set_tempo,8,1,0,,,,,,520291,,,,,,
70513,set_tempo,9,1,0,,,,,,523652,,,,,,
70522,set_tempo,9,1,0,,,,,,527056,,,,,,
70524,note_on,144,0,3,,,,,,,,0,,,82,0
70531,set_tempo,9,1,0,,,,,,530504,,,,,,
70536,note_on,0,0,4,,,,,,,,0,,,56,0
70536,note_on,0,0,4,,,,,,,,0,,,65,0
70536,note_on,96,0,4,,,,,,,,0,,,58,0
70539,set_tempo,8,1,0,,,,,,533998,,,,,,
70548,note_on,48,0,2,,,,,,,,0,,,77,0
70548,set_tempo,9,1,0,,,,,,537538,,,,,,
70557,set_tempo,9,1,0,,,,,,541126,,,,,,
70560,control_change,0,0,4,,,,,,,,0,64,0,,
70560,note_on,36,0,3,,,,,,,,0,,,79,88
70560,note_on,24,0,4,,,,,,,,0,,,39,80
70561,set_tempo,4,1,0,,,,,,544761,,,,,,
70587,set_tempo,26,1,0,,,,,,544761,,,,,,
70600,set_tempo,13,1,0,,,,,,541126,,,,,,
70602,control_change,42,0,4,,,,,,,,0,64,127,,
70609,set_tempo,9,1,0,,,,,,537538,,,,,,
70618,set_tempo,9,1,0,,,,,,533998,,,,,,
70620,note_on,72,0,2,,,,,,,,0,,,67,64
70627,set_tempo,9,1,0,,,,,,530504,,,,,,
70635,set_tempo,8,1,0,,,,,,527056,,,,,,
70644,set_tempo,9,1,0,,,,,,523652,,,,,,
70653,set_tempo,9,1,0,,,,,,520291,,,,,,
70656,note_on,54,0,4,,,,,,,,0,,,39,0
70662,set_tempo,9,1,0,,,,,,516974,,,,,,
70668,note_on,48,0,2,,,,,,,,0,,,67,0
70670,set_tempo,8,1,0,,,,,,513699,,,,,,
70679,set_tempo,9,1,0,,,,,,510465,,,,,,
70680,note_on,0,0,4,,,,,,,,0,,,58,80
70680,note_on,0,0,4,,,,,,,,0,,,65,80
70680,note_on,12,0,2,,,,,,,,0,,,70,64
70680,note_on,24,0,4,,,,,,,,0,,,55,80
70688,set_tempo,9,1,0,,,,,,507271,,,,,,
70696,set_tempo,8,1,0,,,,,,504117,,,,,,
70704,note_on,144,0,3,,,,,,,,0,,,79,0
70705,set_tempo,9,1,0,,,,,,501002,,,,,,
70714,set_tempo,9,1,0,,,,,,497925,,,,,,
70723,set_tempo,9,1,0,,,,,,494886,,,,,,
70728,note_on,48,0,2,,,,,,,,0,,,70,0
70731,set_tempo,8,1,0,,,,,,491884,,,,,,
70740,note_on,36,0,3,,,,,,,,0,,,77,88
70740,set_tempo,9,1,0,,,,,,488918,,,,,,
70749,set_tempo,9,1,0,,,,,,485987,,,,,,
70758,set_tempo,9,1,0,,,,,,483092,,,,,,
70766,set_tempo,8,1,0,,,,,,480231,,,,,,
70775,set_tempo,9,1,0,,,,,,477403,,,,,,
70776,note_on,96,0,4,,,,,,,,0,,,58,0
70776,note_on,0,0,4,,,,,,,,0,,,65,0
70776,note_on,0,0,4,,,,,,,,0,,,55,0
70784,set_tempo,9,1,0,,,,,,474608,,,,,,
70792,set_tempo,8,1,0,,,,,,471846,,,,,,
70800,note_on,72,0,2,,,,,,,,0,,,79,64
70800,note_on,24,0,4,,,,,,,,0,,,43,80
70801,set_tempo,9,1,0,,,,,,469116,,,,,,
70810,set_tempo,9,1,0,,,,,,466418,,,,,,
70823,set_tempo,13,1,0,,,,,,463750,,,,,,
70832,set_tempo,9,1,0,,,,,,461113,,,,,,
70840,set_tempo,8,1,0,,,,,,458505,,,,,,
70848,note_on,48,0,2,,,,,,,,0,,,79,0
70849,set_tempo,9,1,0,,,,,,455927,,,,,,
70858,set_tempo,9,1,0,,,,,,453378,,,,,,
70860,note_on,12,0,2,,,,,,,,0,,,67,64
70867,set_tempo,9,1,0,,,,,,450857,,,,,,
70875,set_tempo,8,1,0,,,,,,448363,,,,,,
70884,set_tempo,9,1,0,,,,,,445898,,,,,,
70893,set_tempo,9,1,0,,,,,,443459,,,,,,
70896,note_on,96,0,4,,,,,,,,0,,,43,0
70902,set_tempo,9,1,0,,,,,,441047,,,,,,
70908,note_on,48,0,2,,,,,,,,0,,,67,0
70910,set_tempo,8,1,0,,,,,,438661,,,,,,
70919,set_tempo,9,1,0,,,,,,436300,,,,,,
70920,note_on,0,0,4,,,,,,,,0,,,58,80
70920,note_on,0,0,4,,,,,,,,0,,,55,80
70920,note_on,24,0,4,,,,,,,,0,,,63,80
70920,note_on,12,0,2,,,,,,,,0,,,70,64
70928,set_tempo,9,1,0,,,,,,433965,,,,,,
70932,note_on,192,0,3,,,,,,,,0,,,77,0
70936,set_tempo,8,1,0,,,,,,431655,,,,,,
70945,set_tempo,9,1,0,,,,,,429369,,,,,,
70954,set_tempo,9,1,0,,,,,,427107,,,,,,
70963,set_tempo,9,1,0,,,,,,424869,,,,,,
70968,note_on,48,0,2,,,,,,,,0,,,70,0
70971,set_tempo,8,1,0,,,,,,422654,,,,,,
70980,set_tempo,9,1,0,,,,,,420463,,,,,,
70980,note_on,48,0,3,,,,,,,,0,,,75,88
70989,set_tempo,9,1,0,,,,,,418293,,,,,,
70998,set_tempo,9,1,0,,,,,,416146,,,,,,
71006,set_tempo,8,1,0,,,,,,414022,,,,,,
71015,set_tempo,9,1,0,,,,,,411918,,,,,,
71016,note_on,0,0,4,,,,,,,,0,,,63,0
71016,note_on,0,0,4,,,,,,,,0,,,55,0
71016,note_on,96,0,4,,,,,,,,0,,,58,0
71024,set_tempo,9,1,0,,,,,,409836,,,,,,
71032,set_tempo,8,1,0,,,,,,407775,,,,,,
71035,control_change,19,0,4,,,,,,,,0,64,0,,
71040,note_on,5,0,4,,,,,,,,0,,,46,80
71040,note_on,72,0,2,,,,,,,,0,,,79,64
71041,set_tempo,9,1,0,,,,,,405734,,,,,,
71063,control_change,23,0,4,,,,,,,,0,64,127,,
71088,note_on,48,0,2,,,,,,,,0,,,79,0
71100,note_on,12,0,2,,,,,,,,0,,,67,64
71136,note_on,73,0,4,,,,,,,,0,,,46,0
71148,note_on,48,0,2,,,,,,,,0,,,67,0
71160,note_on,12,0,2,,,,,,,,0,,,70,64
71160,note_on,24,0,4,,,,,,,,0,,,58,80
71160,note_on,0,0,4,,,,,,,,0,,,55,80
71160,note_on,0,0,4,,,,,,,,0,,,62,80
71172,note_on,192,0,3,,,,,,,,0,,,75,0
71208,note_on,48,0,2,,,,,,,,0,,,70,0
71220,note_on,48,0,3,,,,,,,,0,,,74,88
71256,note_on,0,0,4,,,,,,,,0,,,62,0
71256,note_on,96,0,4,,,,,,,,0,,,55,0
71256,note_on,0,0,4,,,,,,,,0,,,58,0
71280,note_on,72,0,2,,,,,,,,0,,,79,64
71280,control_change,24,0,4,,,,,,,,0,64,0,,
71280,note_on,0,0,4,,,,,,,,0,,,39,80
71308,control_change,28,0,4,,,,,,,,0,64,127,,
71328,note_on,48,0,2,,,,,,,,0,,,79,0
71340,note_on,12,0,2,,,,,,,,0,,,67,64
71376,note_on,68,0,4,,,,,,,,0,,,39,0
71388,note_on,48,0,2,,,,,,,,0,,,67,0
71400,note_on,0,0,4,,,,,,,,0,,,60,80
71400,note_on,12,0,2,,,,,,,,0,,,70,64
71400,note_on,24,0,4,,,,,,,,0,,,51,80
71400,note_on,0,0,4,,,,,,,,0,,,55,80
71424,note_on,204,0,3,,,,,,,,0,,,74,0
71448,note_on,48,0,2,,,,,,,,0,,,70,0
71460,note_on,36,0,3,,,,,,,,0,,,72,88
71496,note_on,0,0,4,,,,,,,,0,,,51,0
71496,note_on,0,0,4,,,,,,,,0,,,55,0
71496,note_on,96,0,4,,,,,,,,0,,,60,0
71520,note_on,24,0,4,,,,,,,,0,,,43,80
71520,note_on,72,0,2,,,,,,,,0,,,79,64
71568,note_on,48,0,2,,,,,,,,0,,,79,0
71580,note_on,12,0,2,,,,,,,,0,,,67,64
71604,note_on,144,0,3,,,,,,,,0,,,72,0
71616,note_on,96,0,4,,,,,,,,0,,,43,0
71628,note_on,48,0,2,,,,,,,,0,,,67,0
71640,note_on,36,0,3,,,,,,,,0,,,70,88
71640,note_on,0,0,4,,,,,,,,0,,,58,80
71640,note_on,0,0,4,,,,,,,,0,,,55,80
71640,note_on,24,0,4,,,,,,,,0,,,51,80
71700,note_on,72,0,2,,,,,,,,0,,,79,64
71736,note_on,0,0,4,,,,,,,,0,,,58,0
71736,note_on,0,0,4,,,,,,,,0,,,51,0
71736,note_on,96,0,4,,,,,,,,0,,,55,0
71748,note_on,48,0,2,,,,,,,,0,,,79,0
71755,control_change,19,0,4,,,,,,,,0,64,0,,
71760,note_on,5,0,4,,,,,,,,0,,,46,80
71760,note_on,12,0,2,,,,,,,,0,,,67,64
71802,control_change,42,0,4,,,,,,,,0,64,127,,
71808,note_on,48,0,2,,,,,,,,0,,,67,0
71820,note_on,12,0,2,,,,,,,,0,,,70,64
71832,note_on,192,0,3,,,,,,,,0,,,70,0
71856,note_on,54,0,4,,,,,,,,0,,,46,0
71868,note_on,48,0,2,,,,,,,,0,,,70,0
71880,note_on,48,0,3,,,,,,,,0,,,79,88
71880,note_on,0,0,4,,,,,,,,0,,,58,80
71880,note_on,0,0,4,,,,,,,,0,,,51,80
71880,note_on,24,0,4,,,,,,,,0,,,55,80
71940,note_on,72,0,2,,,,,,,,0,,,67,64
71976,note_on,96,0,4,,,,,,,,0,,,51,0
71976,note_on,96,0,3,,,,,,,,0,,,79,0
71976,note_on,0,0,4,,,,,,,,0,,,55,0
71976,note_on,0,0,4,,,,,,,,0,,,58,0
71986,set_tempo,945,1,0,,,,,,405734,,,,,,
72000,note_on,24,0,4,,,,,,,,0,,,38,80
72000,control_change,0,0,4,,,,,,,,0,64,0,,
72000,note_on,24,0,3,,,,,,,,0,,,79,80
72008,set_tempo,22,1,0,,,,,,407775,,,,,,
72018,control_change,18,0,4,,,,,,,,0,64,127,,
72026,set_tempo,18,1,0,,,,,,409836,,,,,,
72043,set_tempo,17,1,0,,,,,,411918,,,,,,
72048,note_on,108,0,2,,,,,,,,0,,,67,0
72060,set_tempo,17,1,0,,,,,,414022,,,,,,
72060,note_on,12,0,2,,,,,,,,0,,,69,80
72078,set_tempo,18,1,0,,,,,,416146,,,,,,
72095,set_tempo,17,1,0,,,,,,418293,,,,,,
72096,note_on,78,0,4,,,,,,,,0,,,38,0
72108,note_on,48,0,2,,,,,,,,0,,,69,0
72113,set_tempo,18,1,0,,,,,,420463,,,,,,
72120,note_on,0,0,4,,,,,,,,0,,,57,80
72120,note_on,24,0,4,,,,,,,,0,,,60,80
72120,note_on,12,0,2,,,,,,,,0,,,72,80
72120,note_on,0,0,4,,,,,,,,0,,,62,80
72130,set_tempo,17,1,0,,,,,,422654,,,,,,
72144,note_on,144,0,3,,,,,,,,0,,,79,0
72148,set_tempo,18,1,0,,,,,,424869,,,,,,
72165,set_tempo,17,1,0,,,,,,427107,,,,,,
72168,note_on,48,0,2,,,,,,,,0,,,72,0
72180,note_on,36,0,3,,,,,,,,0,,,78,80
72180,note_on,12,0,2,,,,,,,,0,,,66,80
72183,set_tempo,18,1,0,,,,,,429369,,,,,,
72200,set_tempo,17,1,0,,,,,,431655,,,,,,
72216,note_on,96,0,4,,,,,,,,0,,,57,0
72216,note_on,0,0,4,,,,,,,,0,,,60,0
72216,note_on,0,0,4,,,,,,,,0,,,62,0
72218,set_tempo,18,1,0,,,,,,433965,,,,,,
72228,note_on,48,0,2,,,,,,,,0,,,66,0
72239,set_tempo,21,1,0,,,,,,436300,,,,,,
72240,note_on,12,0,2,,,,,,,,0,,,69,80
72240,note_on,24,0,4,,,,,,,,0,,,45,80
72257,set_tempo,18,1,0,,,,,,438661,,,,,,
72274,set_tempo,17,1,0,,,,,,441047,,,,,,
72288,note_on,48,0,2,,,,,,,,0,,,69,0
72292,set_tempo,18,1,0,,,,,,443459,,,,,,
72300,note_on,12,0,2,,,,,,,,0,,,72,80
72309,set_tempo,17,1,0,,,,,,445898,,,,,,
72324,note_on,144,0,3,,,,,,,,0,,,78,0
72327,set_tempo,18,1,0,,,,,,448363,,,,,,
72336,note_on,96,0,4,,,,,,,,0,,,45,0
72344,set_tempo,17,1,0,,,,,,450857,,,,,,
72348,note_on,48,0,2,,,,,,,,0,,,72,0
72360,note_on,0,0,4,,,,,,,,0,,,54,80
72360,note_on,12,0,2,,,,,,,,0,,,75,80
72360,note_on,24,0,4,,,,,,,,0,,,63,80
72360,note_on,0,0,4,,,,,,,,0,,,60,80
72360,note_on,36,0,3,,,,,,,,0,,,87,80
72362,set_tempo,18,1,0,,,,,,453378,,,,,,
72379,set_tempo,17,1,0,,,,,,455927,,,,,,
72396,set_tempo,17,1,0,,,,,,458505,,,,,,
72408,note_on,48,0,2,,,,,,,,0,,,75,0
72414,set_tempo,18,1,0,,,,,,461113,,,,,,
72420,note_on,12,0,2,,,,,,,,0,,,78,80
72431,set_tempo,17,1,0,,,,,,463750,,,,,,
72449,set_tempo,18,1,0,,,,,,466418,,,,,,
72456,note_on,0,0,4,,,,,,,,0,,,63,0
72456,note_on,0,0,4,,,,,,,,0,,,54,0
72456,note_on,96,0,4,,,,,,,,0,,,60,0
72466,set_tempo,17,1,0,,,,,,469116,,,,,,
72468,note_on,48,0,2,,,,,,,,0,,,78,0
72476,control_change,20,0,4,,,,,,,,0,64,0,,
72480,note_on,4,0,4,,,,,,,,0,,,50,80
72480,note_on,12,0,2,,,,,,,,0,,,81,80
72488,set_tempo,22,1,0,,,,,,471846,,,,,,
72504,note_on,144,0,3,,,,,,,,0,,,87,0
72506,set_tempo,18,1,0,,,,,,474608,,,,,,
72512,control_change,32,0,4,,,,,,,,0,64,127,,
72523,set_tempo,17,1,0,,,,,,477403,,,,,,
72528,note_on,48,0,2,,,,,,,,0,,,81,0
72540,set_tempo,17,1,0,,,,,,480231,,,,,,
72540,note_on,36,0,3,,,,,,,,0,,,86,80
72540,note_on,12,0,2,,,,,,,,0,,,74,80
72558,set_tempo,18,1,0,,,,,,483092,,,,,,
72575,set_tempo,17,1,0,,,,,,485987,,,,,,
72576,note_on,64,0,4,,,,,,,,0,,,50,0
72588,note_on,48,0,2,,,,,,,,0,,,74,0
72593,set_tempo,18,1,0,,,,,,488918,,,,,,
72600,note_on,24,0,4,,,,,,,,0,,,60,80
72600,note_on,0,0,4,,,,,,,,0,,,62,80
72600,note_on,0,0,4,,,,,,,,0,,,57,80
72600,note_on,12,0,2,,,,,,,,0,,,78,80
72610,set_tempo,17,1,0,,,,,,491884,,,,,,
72628,set_tempo,18,1,0,,,,,,494886,,,,,,
72645,set_tempo,17,1,0,,,,,,497925,,,,,,
72648,note_on,48,0,2,,,,,,,,0,,,78,0
72660,note_on,12,0,2,,,,,,,,0,,,81,80
72663,set_tempo,18,1,0,,,,,,501002,,,,,,
72680,set_tempo,17,1,0,,,,,,504117,,,,,,
72684,note_on,144,0,3,,,,,,,,0,,,86,0
72696,note_on,0,0,4,,,,,,,,0,,,57,0
72696,note_on,0,0,4,,,,,,,,0,,,60,0
72696,note_on,96,0,4,,,,,,,,0,,,62,0
72698,set_tempo,18,1,0,,,,,,507271,,,,,,
72708,note_on,48,0,2,,,,,,,,0,,,81,0
72715,set_tempo,17,1,0,,,,,,510465,,,,,,
72720,note_on,36,0,3,,,,,,,,0,,,86,80
72720,note_on,12,0,2,,,,,,,,0,,,74,80
72720,note_on,0,0,4,,,,,,,,0,,,43,80
72720,control_change,24,0,4,,,,,,,,0,64,0,,
72724,set_tempo,9,1,0,,,,,,510465,,,,,,
72746,set_tempo,22,1,0,,,,,,507271,,,,,,
72757,control_change,37,0,4,,,,,,,,0,64,127,,
72763,set_tempo,17,1,0,,,,,,504117,,,,,,
72768,note_on,48,0,2,,,,,,,,0,,,74,0
72780,note_on,12,0,2,,,,,,,,0,,,79,80
72780,set_tempo,17,1,0,,,,,,501002,,,,,,
72798,set_tempo,18,1,0,,,,,,497925,,,,,,
72816,note_on,59,0,4,,,,,,,,0,,,43,0
72820,set_tempo,22,1,0,,,,,,494886,,,,,,
72828,note_on,48,0,2,,,,,,,,0,,,79,0
72837,set_tempo,17,1,0,,,,,,491884,,,,,,
72840,note_on,12,0,2,,,,,,,,0,,,83,80
72840,note_on,24,0,4,,,,,,,,0,,,62,80
72840,note_on,0,0,4,,,,,,,,0,,,59,80
72855,set_tempo,18,1,0,,,,,,488918,,,,,,
72864,note_on,144,0,3,,,,,,,,0,,,86,0
72872,set_tempo,17,1,0,,,,,,485987,,,,,,
72888,note_on,48,0,2,,,,,,,,0,,,83,0
72894,set_tempo,22,1,0,,,,,,483092,,,,,,
72900,note_on,36,0,3,,,,,,,,0,,,83,80
72900,note_on,12,0,2,,,,,,,,0,,,71,80
72911,set_tempo,17,1,0,,,,,,480231,,,,,,
72929,set_tempo,18,1,0,,,,,,477403,,,,,,
72936,note_on,96,0,4,,,,,,,,0,,,59,0
72936,note_on,0,0,4,,,,,,,,0,,,62,0
72946,set_tempo,17,1,0,,,,,,474608,,,,,,
72948,note_on,48,0,2,,,,,,,,0,,,71,0
72960,note_on,12,0,2,,,,,,,,0,,,74,80
72960,note_on,24,0,4,,,,,,,,0,,,50,80
72964,set_tempo,18,1,0,,,,,,471846,,,,,,
72986,set_tempo,22,1,0,,,,,,469116,,,,,,
73003,set_tempo,17,1,0,,,,,,466418,,,,,,
73008,note_on,48,0,2,,,,,,,,0,,,74,0
73020,set_tempo,17,1,0,,,,,,463750,,,,,,
73020,note_on,12,0,2,,,,,,,,0,,,79,80
73038,set_tempo,18,1,0,,,,,,461113,,,,,,
73044,note_on,144,0,3,,,,,,,,0,,,83,0
73056,note_on,96,0,4,,,,,,,,0,,,50,0
73060,set_tempo,22,1,0,,,,,,458505,,,,,,
73068,note_on,48,0,2,,,,,,,,0,,,79,0
73077,set_tempo,17,1,0,,,,,,455927,,,,,,
73080,note_on,36,0,3,,,,,,,,0,,,79,80
73080,note_on,12,0,2,,,,,,,,0,,,67,80
73080,note_on,24,0,4,,,,,,,,0,,,59,80
73080,note_on,0,0,4,,,,,,,,0,,,62,80
73095,set_tempo,18,1,0,,,,,,453378,,,,,,
73112,set_tempo,17,1,0,,,,,,450857,,,,,,
73128,note_on,48,0,2,,,,,,,,0,,,67,0
73134,set_tempo,22,1,0,,,,,,448363,,,,,,
73140,note_on,12,0,2,,,,,,,,0,,,71,80
73151,set_tempo,17,1,0,,,,,,445898,,,,,,
73169,set_tempo,18,1,0,,,,,,443459,,,,,,
73176,note_on,96,0,4,,,,,,,,0,,,62,0
73176,note_on,0,0,4,,,,,,,,0,,,59,0
73186,set_tempo,17,1,0,,,,,,441047,,,,,,
73188,note_on,48,0,2,,,,,,,,0,,,71,0
73195,control_change,19,0,4,,,,,,,,0,64,0,,
73200,note_on,12,0,2,,,,,,,,0,,,74,80
73200,note_on,5,0,4,,,,,,,,0,,,55,80
73204,set_tempo,18,1,0,,,,,,438661,,,,,,
73224,note_on,144,0,3,,,,,,,,0,,,79,0
73226,set_tempo,22,1,0,,,,,,436300,,,,,,
73228,control_change,28,0,4,,,,,,,,0,64,127,,
73243,set_tempo,17,1,0,,,,,,433965,,,,,,
73248,note_on,48,0,2,,,,,,,,0,,,74,0
73260,note_on,36,0,3,,,,,,,,0,,,79,80
73260,set_tempo,17,1,0,,,,,,431655,,,,,,
73260,note_on,12,0,2,,,,,,,,0,,,67,80
73278,set_tempo,18,1,0,,,,,,429369,,,,,,
73296,note_on,68,0,4,,,,,,,,0,,,55,0
73300,set_tempo,22,1,0,,,,,,427107,,,,,,
73308,note_on,48,0,2,,,,,,,,0,,,67,0
73317,set_tempo,17,1,0,,,,,,424869,,,,,,
73320,note_on,0,0,4,,,,,,,,0,,,62,80
73320,note_on,12,0,2,,,,,,,,0,,,71,80
73320,note_on,24,0,4,,,,,,,,0,,,59,80
73335,set_tempo,18,1,0,,,,,,422654,,,,,,
73352,set_tempo,17,1,0,,,,,,420463,,,,,,
73368,note_on,48,0,2,,,,,,,,0,,,71,0
73374,set_tempo,22,1,0,,,,,,418293,,,,,,
73380,note_on,12,0,2,,,,,,,,0,,,74,80
73391,set_tempo,17,1,0,,,,,,416146,,,,,,
73404,note_on,144,0,3,,,,,,,,0,,,79,0
73409,set_tempo,18,1,0,,,,,,414022,,,,,,
73416,note_on,96,0,4,,,,,,,,0,,,62,0
73416,note_on,0,0,4,,,,,,,,0,,,59,0
73426,set_tempo,17,1,0,,,,,,411918,,,,,,
73428,note_on,48,0,2,,,,,,,,0,,,74,0
73440,note_on,0,0,4,,,,,,,,0,,,40,80
73440,control_change,24,0,4,,,,,,,,0,64,0,,
73440,note_on,36,0,3,,,,,,,,0,,,79,80
73444,set_tempo,18,1,0,,,,,,403714,,,,,,
73462,set_tempo,18,1,0,,,,,,405734,,,,,,
73465,control_change,25,0,4,,,,,,,,0,64,127,,
73475,set_tempo,13,1,0,,,,,,407775,,,,,,
73488,set_tempo,13,1,0,,,,,,409836,,,,,,
73500,note_on,72,0,2,,,,,,,,0,,,67,80
73501,set_tempo,13,1,0,,,,,,411918,,,,,,
73514,set_tempo,13,1,0,,,,,,414022,,,,,,
73527,set_tempo,13,1,0,,,,,,416146,,,,,,
73536,note_on,71,0,4,,,,,,,,0,,,40,0
73540,set_tempo,13,1,0,,,,,,418293,,,,,,
73548,note_on,48,0,2,,,,,,,,0,,,67,0
73553,set_tempo,13,1,0,,,,,,420463,,,,,,
73560,note_on,24,0,4,,,,,,,,0,,,59,80
73560,note_on,12,0,2,,,,,,,,0,,,71,80
73560,note_on,0,0,4,,,,,,,,0,,,66,80
73560,note_on,0,0,4,,,,,,,,0,,,55,80
73566,set_tempo,13,1,0,,,,,,422654,,,,,,
73580,set_tempo,14,1,0,,,,,,424869,,,,,,
73584,note_on,144,0,3,,,,,,,,0,,,79,0
73593,set_tempo,13,1,0,,,,,,427107,,,,,,
73606,set_tempo,13,1,0,,,,,,429369,,,,,,
73608,note_on,48,0,2,,,,,,,,0,,,71,0
73619,set_tempo,13,1,0,,,,,,431655,,,,,,
73620,note_on,36,0,3,,,,,,,,0,,,78,80
73632,set_tempo,13,1,0,,,,,,433965,,,,,,
73645,set_tempo,13,1,0,,,,,,436300,,,,,,
73656,note_on,0,0,4,,,,,,,,0,,,66,0
73656,note_on,0,0,4,,,,,,,,0,,,59,0
73656,note_on,96,0,4,,,,,,,,0,,,55,0
73658,set_tempo,13,1,0,,,,,,438661,,,,,,
73671,set_tempo,13,1,0,,,,,,441047,,,,,,
73680,note_on,72,0,2,,,,,,,,0,,,79,80
73680,note_on,24,0,4,,,,,,,,0,,,43,80
73684,set_tempo,13,1,0,,,,,,443459,,,,,,
73697,set_tempo,13,1,0,,,,,,445898,,,,,,
73710,set_tempo,13,1,0,,,,,,448363,,,,,,
73728,note_on,48,0,2,,,,,,,,0,,,79,0
73728,set_tempo,18,1,0,,,,,,450857,,,,,,
73740,note_on,12,0,2,,,,,,,,0,,,67,80
73741,set_tempo,13,1,0,,,,,,453378,,,,,,
73754,set_tempo,13,1,0,,,,,,455927,,,,,,
73767,set_tempo,13,1,0,,,,,,458505,,,,,,
73776,note_on,96,0,4,,,,,,,,0,,,43,0
73780,set_tempo,13,1,0,,,,,,461113,,,,,,
73788,note_on,48,0,2,,,,,,,,0,,,67,0
73793,set_tempo,13,1,0,,,,,,463750,,,,,,
73800,note_on,12,0,2,,,,,,,,0,,,71,80
73800,note_on,0,0,4,,,,,,,,0,,,64,80
73800,note_on,24,0,4,,,,,,,,0,,,55,80
73800,note_on,0,0,4,,,,,,,,0,,,59,80
73806,set_tempo,13,1,0,,,,,,466418,,,,,,
73812,note_on,192,0,3,,,,,,,,0,,,78,0
73820,set_tempo,14,1,0,,,,,,469116,,,,,,
73833,set_tempo,13,1,0,,,,,,471846,,,,,,
73846,set_tempo,13,1,0,,,,,,474608,,,,,,
73848,note_on,48,0,2,,,,,,,,0,,,71,0
73859,set_tempo,13,1,0,,,,,,477403,,,,,,
73860,note_on,48,0,3,,,,,,,,0,,,76,80
73872,set_tempo,13,1,0,,,,,,480231,,,,,,
73885,set_tempo,13,1,0,,,,,,483092,,,,,,
73896,note_on,0,0,4,,,,,,,,0,,,55,0
73896,note_on,0,0,4,,,,,,,,0,,,59,0
73896,note_on,96,0,4,,,,,,,,0,,,64,0
73898,set_tempo,13,1,0,,,,,,485987,,,,,,
73911,set_tempo,13,1,0,,,,,,488918,,,,,,
73916,control_change,20,0,4,,,,,,,,0,64,0,,
73920,note_on,72,0,2,,,,,,,,0,,,79,80
73920,note_on,4,0,4,,,,,,,,0,,,47,80
73924,set_tempo,13,1,0,,,,,,491884,,,,,,
73937,set_tempo,13,1,0,,,,,,494886,,,,,,
73938,control_change,18,0,4,,,,,,,,0,64,127,,
73950,set_tempo,13,1,0,,,,,,497925,,,,,,
73964,set_tempo,14,1,0,,,,,,501002,,,,,,
73968,note_on,48,0,2,,,,,,,,0,,,79,0
73977,set_tempo,13,1,0,,,,,,504117,,,,,,
73980,note_on,12,0,2,,,,,,,,0,,,67,80
73990,set_tempo,13,1,0,,,,,,507271,,,,,,
74007,set_tempo,17,1,0,,,,,,510465,,,,,,
74016,note_on,78,0,4,,,,,,,,0,,,47,0
74020,set_tempo,13,1,0,,,,,,513699,,,,,,
74028,note_on,48,0,2,,,,,,,,0,,,67,0
74033,set_tempo,13,1,0,,,,,,516974,,,,,,
74040,note_on,12,0,2,,,,,,,,0,,,71,80
74040,note_on,0,0,4,,,,,,,,0,,,55,80
74040,note_on,0,0,4,,,,,,,,0,,,59,80
74040,note_on,24,0,4,,,,,,,,0,,,62,80
74046,set_tempo,13,1,0,,,,,,520291,,,,,,
74052,note_on,192,0,3,,,,,,,,0,,,76,0
74060,set_tempo,14,1,0,,,,,,523652,,,,,,
74073,set_tempo,13,1,0,,,,,,527056,,,,,,
74086,set_tempo,13,1,0,,,,,,530504,,,,,,
74088,note_on,48,0,2,,,,,,,,0,,,71,0
74099,set_tempo,13,1,0,,,,,,533998,,,,,,
74100,note_on,48,0,3,,,,,,,,0,,,74,80
74112,set_tempo,13,1,0,,,,,,537538,,,,,,
74125,set_tempo,13,1,0,,,,,,541126,,,,,,
74136,note_on,96,0,4,,,,,,,,0,,,59,0
74136,note_on,0,0,4,,,,,,,,0,,,55,0
74136,note_on,0,0,4,,,,,,,,0,,,62,0
74138,set_tempo,13,1,0,,,,,,544761,,,,,,
74151,set_tempo,13,1,0,,,,,,548446,,,,,,
74160,control_change,24,0,4,,,,,,,,0,64,0,,
74160,note_on,72,0,2,,,,,,,,0,,,79,80
74160,note_on,0,0,4,,,,,,,,0,,,52,80
74164,set_tempo,13,1,0,,,,,,552181,,,,,,
74177,set_tempo,13,1,0,,,,,,555967,,,,,,
74190,set_tempo,13,1,0,,,,,,559806,,,,,,
74202,control_change,42,0,4,,,,,,,,0,64,127,,
74204,set_tempo,14,1,0,,,,,,563698,,,,,,
74208,note_on,48,0,2,,,,,,,,0,,,79,0
74217,set_tempo,13,1,0,,,,,,567644,,,,,,
74220,note_on,12,0,2,,,,,,,,0,,,67,80
74230,set_tempo,13,1,0,,,,,,571646,,,,,,
74243,set_tempo,13,1,0,,,,,,575705,,,,,,
74256,note_on,54,0,4,,,,,,,,0,,,52,0
74256,set_tempo,13,1,0,,,,,,579822,,,,,,
74268,note_on,48,0,2,,,,,,,,0,,,67,0
74269,set_tempo,13,1,0,,,,,,583998,,,,,,
74280,note_on,24,0,4,,,,,,,,0,,,55,80
74280,note_on,0,0,4,,,,,,,,0,,,60,80
74280,note_on,12,0,2,,,,,,,,0,,,71,80
74282,set_tempo,13,1,0,,,,,,579822,,,,,,
74291,set_tempo,9,1,0,,,,,,575705,,,,,,
74300,set_tempo,9,1,0,,,,,,571646,,,,,,
74304,note_on,204,0,3,,,,,,,,0,,,74,0
74313,set_tempo,13,1,0,,,,,,567644,,,,,,
74321,set_tempo,8,1,0,,,,,,563698,,,,,,
74328,note_on,48,0,2,,,,,,,,0,,,71,0
74330,set_tempo,9,1,0,,,,,,559806,,,,,,
74340,note_on,36,0,3,,,,,,,,0,,,72,80
74343,set_tempo,13,1,0,,,,,,555967,,,,,,
74352,set_tempo,9,1,0,,,,,,552181,,,,,,
74361,set_tempo,9,1,0,,,,,,548446,,,,,,
74369,set_tempo,8,1,0,,,,,,544761,,,,,,
74376,note_on,96,0,4,,,,,,,,0,,,60,0
74376,note_on,0,0,4,,,,,,,,0,,,55,0
74382,set_tempo,13,1,0,,,,,,541126,,,,,,
74391,set_tempo,9,1,0,,,,,,537538,,,,,,
74400,note_on,24,0,4,,,,,,,,0,,,47,80
74400,set_tempo,9,1,0,,,,,,533998,,,,,,
74400,note_on,72,0,2,,,,,,,,0,,,79,80
74413,set_tempo,13,1,0,,,,,,530504,,,,,,
74422,set_tempo,9,1,0,,,,,,527056,,,,,,
74430,set_tempo,8,1,0,,,,,,523652,,,,,,
74444,set_tempo,14,1,0,,,,,,520291,,,,,,
74448,note_on,48,0,2,,,,,,,,0,,,79,0
74452,set_tempo,8,1,0,,,,,,516974,,,,,,
74460,note_on,12,0,2,,,,,,,,0,,,67,80
74461,set_tempo,9,1,0,,,,,,513699,,,,,,
74470,set_tempo,9,1,0,,,,,,510465,,,,,,
74483,set_tempo,13,1,0,,,,,,507271,,,,,,
74484,note_on,144,0,3,,,,,,,,0,,,72,0
74492,set_tempo,9,1,0,,,,,,504117,,,,,,
74496,note_on,96,0,4,,,,,,,,0,,,47,0
74500,set_tempo,8,1,0,,,,,,501002,,,,,,
74508,note_on,48,0,2,,,,,,,,0,,,67,0
74513,set_tempo,13,1,0,,,,,,497925,,,,,,
74520,note_on,36,0,3,,,,,,,,0,,,71,80
74520,note_on,0,0,4,,,,,,,,0,,,59,80
74520,note_on,24,0,4,,,,,,,,0,,,55,80
74522,set_tempo,9,1,0,,,,,,494886,,,,,,
74531,set_tempo,9,1,0,,,,,,491884,,,,,,
74540,set_tempo,9,1,0,,,,,,488918,,,,,,
74553,set_tempo,13,1,0,,,,,,485987,,,,,,
74561,set_tempo,8,1,0,,,,,,483092,,,,,,
74570,set_tempo,9,1,0,,,,,,480231,,,,,,
74580,note_on,72,0,2,,,,,,,,0,,,79,80
74583,set_tempo,13,1,0,,,,,,477403,,,,,,
74592,set_tempo,9,1,0,,,,,,474608,,,,,,
74601,set_tempo,9,1,0,,,,,,471846,,,,,,
74614,set_tempo,13,1,0,,,,,,469116,,,,,,
74616,note_on,96,0,4,,,,,,,,0,,,59,0
74616,note_on,0,0,4,,,,,,,,0,,,55,0
74622,set_tempo,8,1,0,,,,,,466418,,,,,,
74628,note_on,48,0,2,,,,,,,,0,,,79,0
74631,set_tempo,9,1,0,,,,,,463750,,,,,,
74640,note_on,12,0,2,,,,,,,,0,,,67,80
74640,note_on,24,0,4,,,,,,,,0,,,40,80
74640,set_tempo,9,1,0,,,,,,461113,,,,,,
74649,control_change,9,0,4,,,,,,,,0,64,0,,
74653,set_tempo,13,1,0,,,,,,458505,,,,,,
74662,set_tempo,9,1,0,,,,,,455927,,,,,,
74664,note_on,144,0,3,,,,,,,,0,,,71,0
74670,set_tempo,8,1,0,,,,,,453378,,,,,,
74684,set_tempo,14,1,0,,,,,,450857,,,,,,
74688,note_on,48,0,2,,,,,,,,0,,,67,0
74691,control_change,42,0,4,,,,,,,,0,64,127,,
74692,set_tempo,8,1,0,,,,,,448363,,,,,,
74700,note_on,36,0,3,,,,,,,,0,,,71,80
74701,set_tempo,9,1,0,,,,,,445898,,,,,,
74710,set_tempo,9,1,0,,,,,,443459,,,,,,
74723,set_tempo,13,1,0,,,,,,441047,,,,,,
74732,set_tempo,9,1,0,,,,,,438661,,,,,,
74736,note_on,45,0,4,,,,,,,,0,,,40,0
74740,set_tempo,8,1,0,,,,,,436300,,,,,,
74753,set_tempo,13,1,0,,,,,,433965,,,,,,
74760,note_on,24,0,4,,,,,,,,0,,,59,80
74760,note_on,0,0,4,,,,,,,,0,,,55,80
74760,note_on,72,0,2,,,,,,,,0,,,79,80
74762,set_tempo,9,1,0,,,,,,431655,,,,,,
74771,set_tempo,9,1,0,,,,,,429369,,,,,,
74784,set_tempo,13,1,0,,,,,,427107,,,,,,
74793,set_tempo,9,1,0,,,,,,424869,,,,,,
74796,note_on,96,0,3,,,,,,,,0,,,71,0
74801,set_tempo,8,1,0,,,,,,422654,,,,,,
74810,set_tempo,9,1,0,,,,,,420463,,,,,,
74820,note_on,24,0,3,,,,,,,,0,,,67,80
74823,set_tempo,13,1,0,,,,,,418293,,,,,,
74832,set_tempo,9,1,0,,,,,,416146,,,,,,
74841,set_tempo,9,1,0,,,,,,414022,,,,,,
74854,set_tempo,13,1,0,,,,,,411918,,,,,,
74856,note_on,0,0,4,,,,,,,,0,,,59,0
74856,note_on,96,0,2,,,,,,,,0,,,79,0
74856,note_on,96,0,4,,,,,,,,0,,,55,0
74862,set_tempo,8,1,0,,,,,,409836,,,,,,
74871,set_tempo,9,1,0,,,,,,407775,,,,,,
74880,set_tempo,9,1,0,,,,,,405734,,,,,,
74880,control_change,24,0,4,,,,,,,,0,64,0,,
74880,note_on,60,0,3,,,,,,,,0,,,79,80
74880,note_on,0,0,4,,,,,,,,0,,,36,80
74905,control_change,25,0,4,,,,,,,,0,64,127,,
74940,note_on,84,0,2,,,,,,,,0,,,69,80
74976,note_on,71,0,4,,,,,,,,0,,,36,0
74988,note_on,48,0,2,,,,,,,,0,,,69,0
75000,note_on,24,0,4,,,,,,,,0,,,57,80
75000,note_on,12,0,2,,,,,,,,0,,,75,80
75000,note_on,0,0,4,,,,,,,,0,,,55,80
75000,note_on,0,0,4,,,,,,,,0,,,63,80
75024,note_on,0,0,3,,,,,,,,0,,,67,0
75024,note_on,144,0,3,,,,,,,,0,,,79,0
75048,note_on,48,0,2,,,,,,,,0,,,75,0
75060,note_on,12,0,2,,,,,,,,0,,,65,80
75060,note_on,36,0,3,,,,,,,,0,,,77,80
75096,note_on,0,0,4,,,,,,,,0,,,57,0
75096,note_on,0,0,4,,,,,,,,0,,,63,0
75096,note_on,96,0,4,,,,,,,,0,,,55,0
75108,note_on,48,0,2,,,,,,,,0,,,65,0
75120,note_on,24,0,4,,,,,,,,0,,,45,80
75120,note_on,12,0,2,,,,,,,,0,,,69,80
75168,note_on,48,0,2,,,,,,,,0,,,69,0
75180,note_on,12,0,2,,,,,,,,0,,,75,80
75204,note_on,144,0,3,,,,,,,,0,,,77,0
75216,note_on,96,0,4,,,,,,,,0,,,45,0
75228,note_on,48,0,2,,,,,,,,0,,,75,0
75240,note_on,24,0,4,,,,,,,,0,,,63,80
75240,note_on,12,0,2,,,,,,,,0,,,66,80
75240,note_on,0,0,4,,,,,,,,0,,,54,80
75240,note_on,0,0,4,,,,,,,,0,,,57,80
75240,note_on,36,0,3,,,,,,,,0,,,78,80
75288,note_on,48,0,2,,,,,,,,0,,,66,0
75300,note_on,12,0,2,,,,,,,,0,,,69,80
75336,note_on,96,0,4,,,,,,,,0,,,54,0
75336,note_on,0,0,4,,,,,,,,0,,,63,0
75336,note_on,0,0,4,,,,,,,,0,,,57,0
75348,note_on,48,0,2,,,,,,,,0,,,69,0
75353,control_change,17,0,4,,,,,,,,0,64,0,,
75360,note_on,12,0,2,,,,,,,,0,,,75,80
75360,note_on,7,0,4,,,,,,,,0,,,48,80
75378,control_change,18,0,4,,,,,,,,0,64,127,,
75384,note_on,144,0,3,,,,,,,,0,,,78,0
75408,note_on,48,0,2,,,,,,,,0,,,75,0
75420,note_on,12,0,2,,,,,,,,0,,,67,80
75420,note_on,36,0,3,,,,,,,,0,,,79,80
75456,note_on,78,0,4,,,,,,,,0,,,48,0
75468,note_on,48,0,2,,,,,,,,0,,,67,0
75480,note_on,12,0,2,,,,,,,,0,,,69,80
75480,note_on,0,0,4,,,,,,,,0,,,63,80
75480,note_on,0,0,4,,,,,,,,0,,,57,80
75480,note_on,24,0,4,,,,,,,,0,,,54,80
75528,note_on,48,0,2,,,,,,,,0,,,69,0
75540,note_on,12,0,2,,,,,,,,0,,,75,80
75564,note_on,144,0,3,,,,,,,,0,,,79,0
75576,note_on,96,0,4,,,,,,,,0,,,63,0
75576,note_on,0,0,4,,,,,,,,0,,,54,0
75576,note_on,0,0,4,,,,,,,,0,,,57,0
75588,note_on,48,0,2,,,,,,,,0,,,75,0
75600,note_on,0,0,4,,,,,,,,0,,,35,80
75600,note_on,12,0,2,,,,,,,,0,,,68,80
75600,note_on,36,0,3,,,,,,,,0,,,80,80
75600,control_change,24,0,4,,,,,,,,0,64,0,,
75639,control_change,39,0,4,,,,,,,,0,64,127,,
75648,note_on,48,0,2,,,,,,,,0,,,68,0
75660,note_on,12,0,2,,,,,,,,0,,,75,80
75696,note_on,57,0,4,,,,,,,,0,,,35,0
75708,note_on,48,0,2,,,,,,,,0,,,75,0
75720,note_on,24,0,4,,,,,,,,0,,,57,80
75720,note_on,0,0,4,,,,,,,,0,,,63,80
75720,note_on,0,0,4,,,,,,,,0,,,54,80
75720,note_on,12,0,2,,,,,,,,0,,,78,80
75744,note_on,144,0,3,,,,,,,,0,,,80,0
75768,note_on,48,0,2,,,,,,,,0,,,78,0
75780,note_on,12,0,2,,,,,,,,0,,,69,80
75780,note_on,36,0,3,,,,,,,,0,,,81,80
75816,note_on,0,0,4,,,,,,,,0,,,63,0
75816,note_on,0,0,4,,,,,,,,0,,,57,0
75816,note_on,96,0,4,,,,,,,,0,,,54,0
75828,note_on,48,0,2,,,,,,,,0,,,69,0
75840,note_on,24,0,4,,,,,,,,0,,,47,80
75840,note_on,12,0,2,,,,,,,,0,,,75,80
75888,note_on,48,0,2,,,,,,,,0,,,75,0
75900,note_on,12,0,2,,,,,,,,0,,,78,80
75924,note_on,144,0,3,,,,,,,,0,,,81,0
75936,note_on,96,0,4,,,,,,,,0,,,47,0
75948,note_on,48,0,2,,,,,,,,0,,,78,0
75960,note_on,12,0,2,,,,,,,,0,,,72,80
75960,note_on,0,0,4,,,,,,,,0,,,60,80
75960,note_on,0,0,4,,,,,,,,0,,,57,80
75960,note_on,24,0,4,,,,,,,,0,,,66,80
75960,note_on,36,0,3,,,,,,,,0,,,84,80
75975,set_tempo,1095,1,0,,,,,,407775,,,,,,
75988,set_tempo,13,1,0,,,,,,409836,,,,,,
75997,set_tempo,9,1,0,,,,,,411918,,,,,,
76008,note_on,48,0,2,,,,,,,,0,,,72,0
76010,set_tempo,13,1,0,,,,,,414022,,,,,,
76019,set_tempo,9,1,0,,,,,,416146,,,,,,
76020,note_on,12,0,2,,,,,,,,0,,,75,80
76032,set_tempo,13,1,0,,,,,,418293,,,,,,
76041,set_tempo,9,1,0,,,,,,420463,,,,,,
76054,set_tempo,13,1,0,,,,,,422654,,,,,,
76056,note_on,0,0,4,,,,,,,,0,,,60,0
76056,note_on,96,0,4,,,,,,,,0,,,57,0
76056,note_on,0,0,4,,,,,,,,0,,,66,0
76062,set_tempo,8,1,0,,,,,,424869,,,,,,
76068,note_on,48,0,2,,,,,,,,0,,,75,0
76071,set_tempo,9,1,0,,,,,,427107,,,,,,
76076,control_change,20,0,4,,,,,,,,0,64,0,,
76080,note_on,12,0,2,,,,,,,,0,,,78,80
76080,note_on,4,0,4,,,,,,,,0,,,51,80
76084,set_tempo,13,1,0,,,,,,429369,,,,,,
76093,set_tempo,9,1,0,,,,,,431655,,,,,,
76101,control_change,21,0,4,,,,,,,,0,64,127,,
76104,note_on,144,0,3,,,,,,,,0,,,84,0
76106,set_tempo,13,1,0,,,,,,433965,,,,,,
76115,set_tempo,9,1,0,,,,,,436300,,,,,,
76128,note_on,48,0,2,,,,,,,,0,,,78,0
76128,set_tempo,13,1,0,,,,,,438661,,,,,,
76137,set_tempo,9,1,0,,,,,,441047,,,,,,
76140,note_on,12,0,2,,,,,,,,0,,,71,80
76140,note_on,36,0,3,,,,,,,,0,,,83,80
76145,set_tempo,8,1,0,,,,,,443459,,,,,,
76158,set_tempo,13,1,0,,,,,,445898,,,,,,
76167,set_tempo,9,1,0,,,,,,448363,,,,,,
76176,note_on,75,0,4,,,,,,,,0,,,51,0
76180,set_tempo,13,1,0,,,,,,450857,,,,,,
76188,note_on,48,0,2,,,,,,,,0,,,71,0
76189,set_tempo,9,1,0,,,,,,453378,,,,,,
76200,note_on,24,0,4,,,,,,,,0,,,57,80
76200,note_on,0,0,4,,,,,,,,0,,,66,80
76200,note_on,12,0,2,,,,,,,,0,,,75,80
76200,note_on,0,0,4,,,,,,,,0,,,59,80
76202,set_tempo,13,1,0,,,,,,455927,,,,,,
76211,set_tempo,9,1,0,,,,,,458505,,,,,,
76220,set_tempo,9,1,0,,,,,,461113,,,,,,
76233,set_tempo,13,1,0,,,,,,463750,,,,,,
76241,set_tempo,8,1,0,,,,,,466418,,,,,,
76248,note_on,48,0,2,,,,,,,,0,,,75,0
76254,set_tempo,13,1,0,,,,,,469116,,,,,,
76260,note_on,12,0,2,,,,,,,,0,,,78,80
76263,set_tempo,9,1,0,,,,,,471846,,,,,,
76276,set_tempo,13,1,0,,,,,,474608,,,,,,
76284,note_on,144,0,3,,,,,,,,0,,,83,0
76285,set_tempo,9,1,0,,,,,,477403,,,,,,
76294,set_tempo,9,1,0,,,,,,480231,,,,,,
76296,note_on,96,0,4,,,,,,,,0,,,59,0
76296,note_on,0,0,4,,,,,,,,0,,,57,0
76296,note_on,0,0,4,,,,,,,,0,,,66,0
76307,set_tempo,13,1,0,,,,,,579822,,,,,,
76308,note_on,48,0,2,,,,,,,,0,,,78,0
76320,note_on,24,0,4,,,,,,,,0,,,40,80
76320,note_on,36,0,3,,,,,,,,0,,,79,80
76320,control_change,0,0,4,,,,,,,,0,64,0,,
76355,control_change,35,0,4,,,,,,,,0,64,127,,
76380,note_on,72,0,2,,,,,,,,0,,,67,80
76416,note_on,61,0,4,,,,,,,,0,,,40,0
76428,note_on,48,0,2,,,,,,,,0,,,67,0
76429,set_tempo,122,1,0,,,,,,579822,,,,,,
76440,note_on,0,0,4,,,,,,,,0,,,55,80
76440,note_on,0,0,4,,,,,,,,0,,,66,80
76440,note_on,24,0,4,,,,,,,,0,,,59,80
76440,note_on,12,0,2,,,,,,,,0,,,71,80
76442,set_tempo,13,1,0,,,,,,575705,,,,,,
76451,set_tempo,9,1,0,,,,,,571646,,,,,,
76464,set_tempo,13,1,0,,,,,,567644,,,,,,
76464,note_on,144,0,3,,,,,,,,0,,,79,0
76473,set_tempo,9,1,0,,,,,,563698,,,,,,
76481,set_tempo,8,1,0,,,,,,559806,,,,,,
76488,note_on,48,0,2,,,,,,,,0,,,71,0
76494,set_tempo,13,1,0,,,,,,555967,,,,,,
76500,note_on,36,0,3,,,,,,,,0,,,78,80
76503,set_tempo,9,1,0,,,,,,552181,,,,,,
76512,set_tempo,9,1,0,,,,,,548446,,,,,,
76525,set_tempo,13,1,0,,,,,,544761,,,,,,
76534,set_tempo,9,1,0,,,,,,541126,,,,,,
76536,note_on,96,0,4,,,,,,,,0,,,55,0
76536,note_on,0,0,4,,,,,,,,0,,,66,0
76536,note_on,0,0,4,,,,,,,,0,,,59,0
76542,set_tempo,8,1,0,,,,,,537538,,,,,,
76556,set_tempo,14,1,0,,,,,,533998,,,,,,
76560,note_on,24,0,4,,,,,,,,0,,,43,80
76560,note_on,72,0,2,,,,,,,,0,,,79,80
76564,set_tempo,8,1,0,,,,,,530504,,,,,,
76577,set_tempo,13,1,0,,,,,,527056,,,,,,
76586,set_tempo,9,1,0,,,,,,523652,,,,,,
76595,set_tempo,9,1,0,,,,,,520291,,,,,,
76608,note_on,48,0,2,,,,,,,,0,,,79,0
76608,set_tempo,13,1,0,,,,,,516974,,,,,,
76617,set_tempo,9,1,0,,,,,,513699,,,,,,
76620,note_on,12,0,2,,,,,,,,0,,,67,80
76625,set_tempo,8,1,0,,,,,,510465,,,,,,
76638,set_tempo,13,1,0,,,,,,507271,,,,,,
76647,set_tempo,9,1,0,,,,,,504117,,,,,,
76656,set_tempo,9,1,0,,,,,,501002,,,,,,
76656,note_on,96,0,4,,,,,,,,0,,,43,0
76668,note_on,48,0,2,,,,,,,,0,,,67,0
76669,set_tempo,13,1,0,,,,,,497925,,,,,,
76678,set_tempo,9,1,0,,,,,,494886,,,,,,
76680,note_on,12,0,2,,,,,,,,0,,,71,80
76680,note_on,0,0,4,,,,,,,,0,,,55,80
76680,note_on,0,0,4,,,,,,,,0,,,64,80
76680,note_on,24,0,4,,,,,,,,0,,,59,80
76691,set_tempo,13,1,0,,,,,,491884,,,,,,
76692,note_on,192,0,3,,,,,,,,0,,,78,0
76700,set_tempo,9,1,0,,,,,,488918,,,,,,
76708,set_tempo,8,1,0,,,,,,485987,,,,,,
76721,set_tempo,13,1,0,,,,,,483092,,,,,,
76728,note_on,48,0,2,,,,,,,,0,,,71,0
76730,set_tempo,9,1,0,,,,,,480231,,,,,,
76739,set_tempo,9,1,0,,,,,,477403,,,,,,
76740,note_on,48,0,3,,,,,,,,0,,,76,80
76752,set_tempo,13,1,0,,,,,,474608,,,,,,
76761,set_tempo,9,1,0,,,,,,471846,,,,,,
76769,set_tempo,8,1,0,,,,,,469116,,,,,,
76776,note_on,0,0,4,,,,,,,,0,,,59,0
76776,note_on,96,0,4,,,,,,,,0,,,64,0
76776,note_on,0,0,4,,,,,,,,0,,,55,0
76782,set_tempo,13,1,0,,,,,,466418,,,,,,
76791,set_tempo,9,1,0,,,,,,463750,,,,,,
76800,control_change,24,0,4,,,,,,,,0,64,0,,
76800,note_on,0,0,4,,,,,,,,0,,,47,80
76800,note_on,72,0,2,,,,,,,,0,,,79,80
76804,set_tempo,13,1,0,,,,,,461113,,,,,,
76813,set_tempo,9,1,0,,,,,,458505,,,,,,
76822,set_tempo,9,1,0,,,,,,455927,,,,,,
76825,control_change,25,0,4,,,,,,,,0,64,127,,
76835,set_tempo,13,1,0,,,,,,453378,,,,,,
76844,set_tempo,9,1,0,,,,,,450857,,,,,,
76848,note_on,48,0,2,,,,,,,,0,,,79,0
76852,set_tempo,8,1,0,,,,,,448363,,,,,,
76860,note_on,12,0,2,,,,,,,,0,,,67,80
76865,set_tempo,13,1,0,,,,,,445898,,,,,,
76874,set_tempo,9,1,0,,,,,,443459,,,,,,
76883,set_tempo,9,1,0,,,,,,441047,,,,,,
76896,note_on,71,0,4,,,,,,,,0,,,47,0
76896,set_tempo,13,1,0,,,,,,438661,,,,,,
76905,set_tempo,9,1,0,,,,,,436300,,,,,,
76908,note_on,48,0,2,,,,,,,,0,,,67,0
76918,set_tempo,13,1,0,,,,,,433965,,,,,,
76920,note_on,12,0,2,,,,,,,,0,,,71,80
76920,note_on,24,0,4,,,,,,,,0,,,59,80
76920,note_on,0,0,4,,,,,,,,0,,,62,80
76920,note_on,0,0,4,,,,,,,,0,,,55,80
76926,set_tempo,8,1,0,,,,,,431655,,,,,,
76932,note_on,192,0,3,,,,,,,,0,,,76,0
76935,set_tempo,9,1,0,,,,,,429369,,,,,,
76948,set_tempo,13,1,0,,,,,,427107,,,,,,
76957,set_tempo,9,1,0,,,,,,424869,,,,,,
76966,set_tempo,9,1,0,,,,,,422654,,,,,,
76968,note_on,48,0,2,,,,,,,,0,,,71,0
76979,set_tempo,13,1,0,,,,,,420463,,,,,,
76980,note_on,48,0,3,,,,,,,,0,,,74,80
76988,set_tempo,9,1,0,,,,,,418293,,,,,,
76996,set_tempo,8,1,0,,,,,,416146,,,,,,
77009,set_tempo,13,1,0,,,,,,414022,,,,,,
77016,note_on,0,0,4,,,,,,,,0,,,59,0
77016,note_on,0,0,4,,,,,,,,0,,,55,0
77016,note_on,96,0,4,,,,,,,,0,,,62,0
77018,set_tempo,9,1,0,,,,,,411918,,,,,,
77027,set_tempo,9,1,0,,,,,,409836,,,,,,
77040,note_on,72,0,2,,,,,,,,0,,,79,80
77040,control_change,24,0,4,,,,,,,,0,64,0,,
77040,note_on,0,0,4,,,,,,,,0,,,52,80
77072,control_change,32,0,4,,,,,,,,0,64,127,,
77088,note_on,48,0,2,,,,,,,,0,,,79,0
77100,note_on,12,0,2,,,,,,,,0,,,67,80
77136,note_on,64,0,4,,,,,,,,0,,,52,0
77148,note_on,48,0,2,,,,,,,,0,,,67,0
77160,note_on,12,0,2,,,,,,,,0,,,71,80
77160,note_on,24,0,4,,,,,,,,0,,,55,80
77160,note_on,0,0,4,,,,,,,,0,,,60,80
77184,note_on,204,0,3,,,,,,,,0,,,74,0
77208,note_on,48,0,2,,,,,,,,0,,,71,0
77220,note_on,36,0,3,,,,,,,,0,,,72,80
77256,note_on,96,0,4,,,,,,,,0,,,60,0
77256,note_on,0,0,4,,,,,,,,0,,,55,0
77280,note_on,24,0,4,,,,,,,,0,,,47,80
77280,note_on,72,0,2,,,,,,,,0,,,79,80
77328,note_on,48,0,2,,,,,,,,0,,,79,0
77340,note_on,12,0,2,,,,,,,,0,,,67,80
77364,note_on,144,0,3,,,,,,,,0,,,72,0
77376,note_on,96,0,4,,,,,,,,0,,,47,0
77388,note_on,48,0,2,,,,,,,,0,,,67,0
77400,note_on,0,0,4,,,,,,,,0,,,55,80
77400,note_on,24,0,4,,,,,,,,0,,,59,80
77400,note_on,36,0,3,,,,,,,,0,,,71,80
77460,note_on,72,0,2,,,,,,,,0,,,79,80
77496,note_on,0,0,4,,,,,,,,0,,,59,0
77496,note_on,96,0,4,,,,,,,,0,,,55,0
77508,note_on,48,0,2,,,,,,,,0,,,79,0
77520,note_on,24,0,4,,,,,,,,0,,,40,80
77520,note_on,12,0,2,,,,,,,,0,,,67,80
77534,control_change,14,0,4,,,,,,,,0,64,0,,
77544,note_on,144,0,3,,,,,,,,0,,,71,0
77566,control_change,32,0,4,,,,,,,,0,64,127,,
77568,note_on,48,0,2,,,,,,,,0,,,67,0
77580,note_on,36,0,3,,,,,,,,0,,,71,80
77616,note_on,50,0,4,,,,,,,,0,,,40,0
77640,note_on,72,0,2,,,,,,,,0,,,79,80
77640,note_on,0,0,4,,,,,,,,0,,,59,80
77640,note_on,24,0,4,,,,,,,,0,,,55,80
77676,note_on,96,0,3,,,,,,,,0,,,71,0
77700,note_on,24,0,3,,,,,,,,0,,,67,80
77736,note_on,96,0,4,,,,,,,,0,,,59,0
77736,note_on,0,0,4,,,,,,,,0,,,55,0
77736,note_on,96,0,2,,,,,,,,0,,,79,0
77760,note_on,24,0,4,,,,,,,,0,,,39,80
77760,control_change,0,0,4,,,,,,,,0,64,0,,
77760,note_on,60,0,3,,,,,,,,0,,,79,80
77768,set_tempo,741,1,0,,,,,,407775,,,,,,
77781,set_tempo,13,1,0,,,,,,409836,,,,,,
77792,control_change,32,0,4,,,,,,,,0,64,127,,
77794,set_tempo,13,1,0,,,,,,411918,,,,,,
77807,set_tempo,13,1,0,,,,,,414022,,,,,,
77816,set_tempo,9,1,0,,,,,,416146,,,,,,
77820,note_on,84,0,2,,,,,,,,0,,,69,80
77829,set_tempo,13,1,0,,,,,,418293,,,,,,
77842,set_tempo,13,1,0,,,,,,420463,,,,,,
77855,set_tempo,13,1,0,,,,,,422654,,,,,,
77856,note_on,64,0,4,,,,,,,,0,,,39,0
77864,set_tempo,9,1,0,,,,,,424869,,,,,,
77868,note_on,48,0,2,,,,,,,,0,,,69,0
77877,set_tempo,13,1,0,,,,,,427107,,,,,,
77880,note_on,0,0,4,,,,,,,,0,,,55,80
77880,note_on,24,0,4,,,,,,,,0,,,60,80
77880,note_on,0,0,4,,,,,,,,0,,,57,80
77880,note_on,12,0,2,,,,,,,,0,,,72,80
77890,set_tempo,13,1,0,,,,,,429369,,,,,,
77899,set_tempo,9,1,0,,,,,,431655,,,,,,
77904,note_on,0,0,3,,,,,,,,0,,,67,0
77904,note_on,144,0,3,,,,,,,,0,,,79,0
77912,set_tempo,13,1,0,,,,,,433965,,,,,,
77925,set_tempo,13,1,0,,,,,,436300,,,,,,
77928,note_on,48,0,2,,,,,,,,0,,,72,0
77938,set_tempo,13,1,0,,,,,,438661,,,,,,
77940,note_on,12,0,2,,,,,,,,0,,,65,80
77940,note_on,36,0,3,,,,,,,,0,,,77,80
77947,set_tempo,9,1,0,,,,,,441047,,,,,,
77960,set_tempo,13,1,0,,,,,,443459,,,,,,
77973,set_tempo,13,1,0,,,,,,445898,,,,,,
77976,note_on,0,0,4,,,,,,,,0,,,57,0
77976,note_on,96,0,4,,,,,,,,0,,,55,0
77976,note_on,0,0,4,,,,,,,,0,,,60,0
77982,set_tempo,9,1,0,,,,,,448363,,,,,,
77988,note_on,48,0,2,,,,,,,,0,,,65,0
77995,set_tempo,13,1,0,,,,,,450857,,,,,,
78000,note_on,12,0,2,,,,,,,,0,,,69,80
78000,note_on,24,0,4,,,,,,,,0,,,45,80
78008,set_tempo,13,1,0,,,,,,453378,,,,,,
78021,set_tempo,13,1,0,,,,,,455927,,,,,,
78030,set_tempo,9,1,0,,,,,,458505,,,,,,
78043,set_tempo,13,1,0,,,,,,461113,,,,,,
78048,note_on,48,0,2,,,,,,,,0,,,69,0
78056,set_tempo,13,1,0,,,,,,463750,,,,,,
78060,note_on,12,0,2,,,,,,,,0,,,72,80
78064,set_tempo,8,1,0,,,,,,466418,,,,,,
78078,set_tempo,14,1,0,,,,,,469116,,,,,,
78084,note_on,144,0,3,,,,,,,,0,,,77,0
78090,note_on,90,0,4,,,,,,,,0,,,45,0
78091,set_tempo,13,1,0,,,,,,471846,,,,,,
78104,set_tempo,13,1,0,,,,,,474608,,,,,,
78108,note_on,48,0,2,,,,,,,,0,,,72,0
78112,set_tempo,8,1,0,,,,,,477403,,,,,,
78120,note_on,30,0,4,,,,,,,,0,,,54,80
78120,note_on,36,0,3,,,,,,,,0,,,78,80
78120,note_on,0,0,4,,,,,,,,0,,,60,80
78120,note_on,0,0,4,,,,,,,,0,,,57,80
78120,note_on,12,0,2,,,,,,,,0,,,66,80
78126,set_tempo,14,1,0,,,,,,480231,,,,,,
78139,set_tempo,13,1,0,,,,,,483092,,,,,,
78147,set_tempo,8,1,0,,,,,,485987,,,,,,
78160,set_tempo,13,1,0,,,,,,488918,,,,,,
78168,note_on,48,0,2,,,,,,,,0,,,66,0
78174,set_tempo,14,1,0,,,,,,491884,,,,,,
78180,note_on,12,0,2,,,,,,,,0,,,69,80
78187,set_tempo,13,1,0,,,,,,494886,,,,,,
78195,set_tempo,8,1,0,,,,,,497925,,,,,,
78208,set_tempo,13,1,0,,,,,,501002,,,,,,
78216,note_on,0,0,4,,,,,,,,0,,,57,0
78216,note_on,0,0,4,,,,,,,,0,,,54,0
78216,note_on,96,0,4,,,,,,,,0,,,60,0
78222,set_tempo,14,1,0,,,,,,504117,,,,,,
78228,note_on,48,0,2,,,,,,,,0,,,69,0
78230,set_tempo,8,1,0,,,,,,507271,,,,,,
78233,control_change,17,0,4,,,,,,,,0,64,0,,
78240,note_on,7,0,4,,,,,,,,0,,,48,80
78240,note_on,12,0,2,,,,,,,,0,,,72,80
78243,set_tempo,13,1,0,,,,,,510465,,,,,,
78256,set_tempo,13,1,0,,,,,,513699,,,,,,
78264,note_on,144,0,3,,,,,,,,0,,,78,0
78270,set_tempo,14,1,0,,,,,,516974,,,,,,
78278,set_tempo,8,1,0,,,,,,520291,,,,,,
78279,control_change,39,0,4,,,,,,,,0,64,127,,
78288,note_on,48,0,2,,,,,,,,0,,,72,0
78291,set_tempo,13,1,0,,,,,,523652,,,,,,
78300,note_on,12,0,2,,,,,,,,0,,,67,80
78300,note_on,36,0,3,,,,,,,,0,,,79,80
78304,set_tempo,13,1,0,,,,,,527056,,,,,,
78313,set_tempo,9,1,0,,,,,,530504,,,,,,
78326,set_tempo,13,1,0,,,,,,533998,,,,,,
78336,note_on,57,0,4,,,,,,,,0,,,48,0
78339,set_tempo,13,1,0,,,,,,537538,,,,,,
78348,note_on,48,0,2,,,,,,,,0,,,67,0
78352,set_tempo,13,1,0,,,,,,541126,,,,,,
78360,note_on,12,0,2,,,,,,,,0,,,69,80
78360,note_on,24,0,4,,,,,,,,0,,,54,80
78360,note_on,0,0,4,,,,,,,,0,,,57,80
78360,note_on,0,0,4,,,,,,,,0,,,63,80
78361,set_tempo,9,1,0,,,,,,544761,,,,,,
78374,set_tempo,13,1,0,,,,,,548446,,,,,,
78387,set_tempo,13,1,0,,,,,,552181,,,,,,
78396,set_tempo,9,1,0,,,,,,555967,,,,,,
78408,note_on,48,0,2,,,,,,,,0,,,69,0
78409,set_tempo,13,1,0,,,,,,559806,,,,,,
78420,note_on,12,0,2,,,,,,,,0,,,72,80
78422,set_tempo,13,1,0,,,,,,563698,,,,,,
78435,set_tempo,13,1,0,,,,,,567644,,,,,,
78444,set_tempo,9,1,0,,,,,,571646,,,,,,
78444,note_on,144,0,3,,,,,,,,0,,,79,0
78456,note_on,0,0,4,,,,,,,,0,,,63,0
78456,note_on,0,0,4,,,,,,,,0,,,54,0
78456,note_on,96,0,4,,,,,,,,0,,,57,0
78457,set_tempo,13,1,0,,,,,,575705,,,,,,
78468,note_on,48,0,2,,,,,,,,0,,,72,0
78470,set_tempo,13,1,0,,,,,,579822,,,,,,
78479,set_tempo,9,1,0,,,,,,583998,,,,,,
78480,note_on,0,0,4,,,,,,,,0,,,38,80
78480,note_on,12,0,2,,,,,,,,0,,,80,80
78480,note_on,36,0,3,,,,,,,,0,,,68,80
78480,control_change,24,0,4,,,,,,,,0,64,0,,
78492,set_tempo,13,1,0,,,,,,579822,,,,,,
78505,set_tempo,13,1,0,,,,,,575705,,,,,,
78505,control_change,25,0,4,,,,,,,,0,64,127,,
78514,set_tempo,9,1,0,,,,,,571646,,,,,,
78527,set_tempo,13,1,0,,,,,,567644,,,,,,
78528,note_on,48,0,3,,,,,,,,0,,,68,0
78540,note_on,12,0,3,,,,,,,,0,,,72,80
78540,set_tempo,13,1,0,,,,,,563698,,,,,,
78549,set_tempo,9,1,0,,,,,,559806,,,,,,
78562,set_tempo,13,1,0,,,,,,555967,,,,,,
78575,set_tempo,13,1,0,,,,,,552181,,,,,,
78576,note_on,71,0,4,,,,,,,,0,,,38,0
78584,set_tempo,9,1,0,,,,,,548446,,,,,,
78588,note_on,48,0,3,,,,,,,,0,,,72,0
78597,set_tempo,13,1,0,,,,,,544761,,,,,,
78600,note_on,0,0,4,,,,,,,,0,,,54,80
78600,note_on,0,0,4,,,,,,,,0,,,63,80
78600,note_on,12,0,3,,,,,,,,0,,,78,80
78600,note_on,24,0,4,,,,,,,,0,,,60,80
78610,set_tempo,13,1,0,,,,,,541126,,,,,,
78619,set_tempo,9,1,0,,,,,,537538,,,,,,
78624,note_on,144,0,2,,,,,,,,0,,,80,0
78632,set_tempo,13,1,0,,,,,,533998,,,,,,
78645,set_tempo,13,1,0,,,,,,530504,,,,,,
78648,note_on,48,0,3,,,,,,,,0,,,78,0
78654,set_tempo,9,1,0,,,,,,527056,,,,,,
78660,note_on,36,0,2,,,,,,,,0,,,81,80
78660,note_on,12,0,3,,,,,,,,0,,,69,80
78667,set_tempo,13,1,0,,,,,,523652,,,,,,
78680,set_tempo,13,1,0,,,,,,520291,,,,,,
78688,set_tempo,8,1,0,,,,,,516974,,,,,,
78696,note_on,0,0,4,,,,,,,,0,,,60,0
78696,note_on,0,0,4,,,,,,,,0,,,63,0
78696,note_on,96,0,4,,,,,,,,0,,,54,0
78702,set_tempo,14,1,0,,,,,,513699,,,,,,
78708,note_on,48,0,3,,,,,,,,0,,,69,0
78715,set_tempo,13,1,0,,,,,,510465,,,,,,
78720,note_on,24,0,4,,,,,,,,0,,,45,80
78720,note_on,12,0,3,,,,,,,,0,,,72,80
78723,set_tempo,8,1,0,,,,,,507271,,,,,,
78736,set_tempo,13,1,0,,,,,,504117,,,,,,
78750,set_tempo,14,1,0,,,,,,501002,,,,,,
78758,set_tempo,8,1,0,,,,,,497925,,,,,,
78768,note_on,48,0,3,,,,,,,,0,,,72,0
78771,set_tempo,13,1,0,,,,,,494886,,,,,,
78780,note_on,12,0,3,,,,,,,,0,,,78,80
78784,set_tempo,13,1,0,,,,,,491884,,,,,,
78793,set_tempo,9,1,0,,,,,,488918,,,,,,
78804,note_on,144,0,2,,,,,,,,0,,,81,0
78806,set_tempo,13,1,0,,,,,,485987,,,,,,
78816,note_on,96,0,4,,,,,,,,0,,,45,0
78819,set_tempo,13,1,0,,,,,,483092,,,,,,
78828,note_on,48,0,3,,,,,,,,0,,,78,0
78828,set_tempo,9,1,0,,,,,,480231,,,,,,
78840,note_on,0,0,4,,,,,,,,0,,,60,80
78840,note_on,12,0,3,,,,,,,,0,,,75,80
78840,note_on,36,0,2,,,,,,,,0,,,87,80
78840,note_on,0,0,4,,,,,,,,0,,,54,80
78840,note_on,24,0,4,,,,,,,,0,,,63,80
78841,set_tempo,13,1,0,,,,,,477403,,,,,,
78854,set_tempo,13,1,0,,,,,,474608,,,,,,
78863,set_tempo,9,1,0,,,,,,471846,,,,,,
78876,set_tempo,13,1,0,,,,,,469116,,,,,,
78888,note_on,48,0,3,,,,,,,,0,,,75,0
78889,set_tempo,13,1,0,,,,,,466418,,,,,,
78898,set_tempo,9,1,0,,,,,,463750,,,,,,
78900,note_on,12,0,3,,,,,,,,0,,,78,80
78911,set_tempo,13,1,0,,,,,,461113,,,,,,
78924,set_tempo,13,1,0,,,,,,458505,,,,,,
78933,set_tempo,9,1,0,,,,,,455927,,,,,,
78936,note_on,0,0,4,,,,,,,,0,,,63,0
78936,note_on,0,0,4,,,,,,,,0,,,60,0
78936,note_on,96,0,4,,,,,,,,0,,,54,0
78946,set_tempo,13,1,0,,,,,,453378,,,,,,
78948,note_on,48,0,3,,,,,,,,0,,,78,0
78956,control_change,20,0,4,,,,,,,,0,64,0,,
78959,set_tempo,13,1,0,,,,,,450857,,,,,,
78960,note_on,12,0,3,,,,,,,,0,,,81,80
78960,note_on,4,0,4,,,,,,,,0,,,50,80
78968,set_tempo,9,1,0,,,,,,448363,,,,,,
78981,set_tempo,13,1,0,,,,,,445898,,,,,,
78984,note_on,144,0,2,,,,,,,,0,,,87,0
78985,control_change,25,0,4,,,,,,,,0,64,127,,
78994,set_tempo,13,1,0,,,,,,443459,,,,,,
79003,set_tempo,9,1,0,,,,,,441047,,,,,,
79008,note_on,48,0,3,,,,,,,,0,,,81,0
79016,set_tempo,13,1,0,,,,,,438661,,,,,,
79020,note_on,12,0,3,,,,,,,,0,,,74,80
79020,note_on,36,0,2,,,,,,,,0,,,86,80
79029,set_tempo,13,1,0,,,,,,436300,,,,,,
79038,set_tempo,9,1,0,,,,,,433965,,,,,,
79051,set_tempo,13,1,0,,,,,,431655,,,,,,
79056,note_on,71,0,4,,,,,,,,0,,,50,0
79064,set_tempo,13,1,0,,,,,,429369,,,,,,
79068,note_on,48,0,3,,,,,,,,0,,,74,0
79072,set_tempo,8,1,0,,,,,,427107,,,,,,
79080,note_on,0,0,4,,,,,,,,0,,,60,80
79080,note_on,24,0,4,,,,,,,,0,,,62,80
79080,note_on,12,0,3,,,,,,,,0,,,78,80
79080,note_on,0,0,4,,,,,,,,0,,,57,80
79086,set_tempo,14,1,0,,,,,,424869,,,,,,
79099,set_tempo,13,1,0,,,,,,422654,,,,,,
79107,set_tempo,8,1,0,,,,,,420463,,,,,,
79120,set_tempo,13,1,0,,,,,,418293,,,,,,
79128,note_on,48,0,3,,,,,,,,0,,,78,0
79134,set_tempo,14,1,0,,,,,,416146,,,,,,
79140,note_on,12,0,3,,,,,,,,0,,,81,80
79142,set_tempo,8,1,0,,,,,,414022,,,,,,
79155,set_tempo,13,1,0,,,,,,411918,,,,,,
79164,note_on,144,0,2,,,,,,,,0,,,86,0
79168,set_tempo,13,1,0,,,,,,409836,,,,,,
79176,note_on,0,0,4,,,,,,,,0,,,62,0
79176,note_on,0,0,4,,,,,,,,0,,,60,0
79176,note_on,96,0,4,,,,,,,,0,,,57,0
79177,set_tempo,9,1,0,,,,,,407775,,,,,,
79188,note_on,48,0,3,,,,,,,,0,,,81,0
79190,set_tempo,13,1,0,,,,,,405734,,,,,,
79199,set_tempo,9,1,0,,,,,,403714,,,,,,
79200,note_on,0,0,4,,,,,,,,0,,,43,80
79200,control_change,24,0,4,,,,,,,,0,64,0,,
79200,note_on,36,0,2,,,,,,,,0,,,82,80
79208,set_tempo,9,1,0,,,,,,411918,,,,,,
79235,control_change,35,0,4,,,,,,,,0,64,127,,
79247,set_tempo,39,1,0,,,,,,414022,,,,,,
79260,note_on,72,0,3,,,,,,,,0,,,70,80
79286,set_tempo,39,1,0,,,,,,416146,,,,,,
79296,note_on,61,0,4,,,,,,,,0,,,43,0
79308,note_on,48,0,3,,,,,,,,0,,,70,0
79320,note_on,12,0,3,,,,,,,,0,,,74,80
79320,note_on,0,0,4,,,,,,,,0,,,58,80
79320,note_on,24,0,4,,,,,,,,0,,,62,80
79320,note_on,0,0,4,,,,,,,,0,,,69,80
79321,set_tempo,35,1,0,,,,,,418293,,,,,,
79344,note_on,144,0,2,,,,,,,,0,,,82,0
79360,set_tempo,39,1,0,,,,,,420463,,,,,,
79368,note_on,48,0,3,,,,,,,,0,,,74,0
79380,note_on,36,0,2,,,,,,,,0,,,81,80
79395,set_tempo,35,1,0,,,,,,422654,,,,,,
79416,note_on,0,0,4,,,,,,,,0,,,62,0
79416,note_on,0,0,4,,,,,,,,0,,,69,0
79416,note_on,96,0,4,,,,,,,,0,,,58,0
79435,set_tempo,40,1,0,,,,,,424869,,,,,,
79440,note_on,24,0,4,,,,,,,,0,,,46,80
79440,note_on,60,0,2,,,,,,,,0,,,82,80
79470,set_tempo,35,1,0,,,,,,427107,,,,,,
79500,note_on,132,0,3,,,,,,,,0,,,70,80
79509,set_tempo,39,1,0,,,,,,429369,,,,,,
79536,note_on,96,0,4,,,,,,,,0,,,46,0
79544,set_tempo,35,1,0,,,,,,431655,,,,,,
79548,note_on,48,0,3,,,,,,,,0,,,70,0
79560,note_on,0,0,4,,,,,,,,0,,,62,80
79560,note_on,0,0,4,,,,,,,,0,,,58,80
79560,note_on,24,0,4,,,,,,,,0,,,67,80
79560,note_on,12,0,3,,,,,,,,0,,,74,80
79583,set_tempo,39,1,0,,,,,,433965,,,,,,
79584,note_on,0,0,2,,,,,,,,0,,,81,0
79584,note_on,144,0,2,,,,,,,,0,,,82,0
79608,note_on,48,0,3,,,,,,,,0,,,74,0
79618,set_tempo,35,1,0,,,,,,436300,,,,,,
79620,note_on,36,0,2,,,,,,,,0,,,79,80
79656,note_on,0,0,4,,,,,,,,0,,,62,0
79656,note_on,96,0,4,,,,,,,,0,,,58,0
79656,note_on,0,0,4,,,,,,,,0,,,67,0
79657,set_tempo,39,1,0,,,,,,438661,,,,,,
79680,note_on,24,0,4,,,,,,,,0,,,50,80
79680,control_change,0,0,4,,,,,,,,0,64,0,,
79680,note_on,60,0,2,,,,,,,,0,,,82,80
79692,set_tempo,35,1,0,,,,,,441047,,,,,,
79705,control_change,25,0,4,,,,,,,,0,64,127,,
79731,set_tempo,39,1,0,,,,,,443459,,,,,,
79740,note_on,132,0,3,,,,,,,,0,,,70,80
79766,set_tempo,35,1,0,,,,,,445898,,,,,,
79776,note_on,71,0,4,,,,,,,,0,,,50,0
79788,note_on,48,0,3,,,,,,,,0,,,70,0
79800,note_on,12,0,3,,,,,,,,0,,,74,80
79800,note_on,0,0,4,,,,,,,,0,,,63,80
79800,note_on,0,0,4,,,,,,,,0,,,58,80
79800,note_on,24,0,4,,,,,,,,0,,,55,80
79806,set_tempo,40,1,0,,,,,,448363,,,,,,
79824,note_on,144,0,2,,,,,,,,0,,,82,0
79824,note_on,0,0,2,,,,,,,,0,,,79,0
79840,set_tempo,34,1,0,,,,,,450857,,,,,,
79848,note_on,48,0,3,,,,,,,,0,,,74,0
79860,note_on,36,0,2,,,,,,,,0,,,75,80
79880,set_tempo,40,1,0,,,,,,453378,,,,,,
79896,note_on,96,0,4,,,,,,,,0,,,63,0
79896,note_on,0,0,4,,,,,,,,0,,,58,0
79896,note_on,0,0,4,,,,,,,,0,,,55,0
79908,note_on,48,0,2,,,,,,,,0,,,75,0
79915,set_tempo,35,1,0,,,,,,405734,,,,,,
79920,note_on,24,0,4,,,,,,,,0,,,42,80
79920,control_change,0,0,4,,,,,,,,0,64,0,,
79920,note_on,12,0,2,,,,,,,,0,,,84,80
79952,control_change,32,0,4,,,,,,,,0,64,127,,
79980,note_on,132,0,3,,,,,,,,0,,,72,80
80016,note_on,64,0,4,,,,,,,,0,,,42,0
80028,note_on,48,0,3,,,,,,,,0,,,72,0
80037,set_tempo,122,1,0,,,,,,407775,,,,,,
80040,note_on,0,0,4,,,,,,,,0,,,63,80
80040,note_on,12,0,3,,,,,,,,0,,,75,80
80040,note_on,0,0,4,,,,,,,,0,,,70,80
80040,note_on,24,0,4,,,,,,,,0,,,60,80
80063,set_tempo,26,1,0,,,,,,409836,,,,,,
80064,note_on,144,0,2,,,,,,,,0,,,84,0
80088,note_on,48,0,3,,,,,,,,0,,,75,0
80089,set_tempo,26,1,0,,,,,,411918,,,,,,
80100,note_on,36,0,2,,,,,,,,0,,,82,80
80115,set_tempo,26,1,0,,,,,,414022,,,,,,
80136,note_on,96,0,4,,,,,,,,0,,,70,0
80136,note_on,0,0,4,,,,,,,,0,,,63,0
80136,note_on,0,0,4,,,,,,,,0,,,60,0
80137,set_tempo,22,1,0,,,,,,416146,,,,,,
80160,note_on,60,0,2,,,,,,,,0,,,84,80
80160,note_on,24,0,4,,,,,,,,0,,,41,80
80163,set_tempo,26,1,0,,,,,,418293,,,,,,
80190,set_tempo,27,1,0,,,,,,420463,,,,,,
80216,set_tempo,26,1,0,,,,,,422654,,,,,,
80220,note_on,132,0,3,,,,,,,,0,,,72,80
80238,set_tempo,22,1,0,,,,,,424869,,,,,,
80256,note_on,96,0,4,,,,,,,,0,,,41,0
80264,set_tempo,26,1,0,,,,,,427107,,,,,,
80268,note_on,48,0,3,,,,,,,,0,,,72,0
80280,note_on,12,0,3,,,,,,,,0,,,75,80
80280,note_on,0,0,4,,,,,,,,0,,,69,80
80280,note_on,0,0,4,,,,,,,,0,,,63,80
80280,note_on,24,0,4,,,,,,,,0,,,60,80
80290,set_tempo,26,1,0,,,,,,429369,,,,,,
80304,note_on,144,0,2,,,,,,,,0,,,84,0
80304,note_on,0,0,2,,,,,,,,0,,,82,0
80316,set_tempo,26,1,0,,,,,,431655,,,,,,
80328,note_on,48,0,3,,,,,,,,0,,,75,0
80338,set_tempo,22,1,0,,,,,,433965,,,,,,
80340,note_on,36,0,2,,,,,,,,0,,,81,80
80364,set_tempo,26,1,0,,,,,,436300,,,,,,
80376,note_on,96,0,4,,,,,,,,0,,,69,0
80376,note_on,0,0,4,,,,,,,,0,,,60,0
80376,note_on,0,0,4,,,,,,,,0,,,63,0
80390,set_tempo,26,1,0,,,,,,438661,,,,,,
80400,note_on,24,0,4,,,,,,,,0,,,45,80
80400,note_on,60,0,2,,,,,,,,0,,,84,80
80416,set_tempo,26,1,0,,,,,,441047,,,,,,
80438,set_tempo,22,1,0,,,,,,443459,,,,,,
80460,note_on,132,0,3,,,,,,,,0,,,72,80
80464,set_tempo,26,1,0,,,,,,445898,,,,,,
80491,set_tempo,27,1,0,,,,,,448363,,,,,,
80496,note_on,96,0,4,,,,,,,,0,,,45,0
80508,note_on,48,0,3,,,,,,,,0,,,72,0
80517,set_tempo,26,1,0,,,,,,450857,,,,,,
80520,note_on,0,0,4,,,,,,,,0,,,60,80
80520,note_on,12,0,3,,,,,,,,0,,,75,80
80520,note_on,24,0,4,,,,,,,,0,,,66,80
80520,note_on,0,0,4,,,,,,,,0,,,63,80
80539,set_tempo,22,1,0,,,,,,453378,,,,,,
80544,note_on,0,0,2,,,,,,,,0,,,81,0
80544,note_on,144,0,2,,,,,,,,0,,,84,0
80565,set_tempo,26,1,0,,,,,,455927,,,,,,
80568,note_on,48,0,3,,,,,,,,0,,,75,0
80580,note_on,36,0,2,,,,,,,,0,,,78,80
80591,set_tempo,26,1,0,,,,,,458505,,,,,,
80616,note_on,96,0,4,,,,,,,,0,,,60,0
80616,note_on,0,0,4,,,,,,,,0,,,63,0
80616,note_on,0,0,4,,,,,,,,0,,,66,0
80617,set_tempo,26,1,0,,,,,,461113,,,,,,
80628,note_on,48,0,2,,,,,,,,0,,,78,0
80639,set_tempo,22,1,0,,,,,,407775,,,,,,
80640,note_on,12,0,2,,,,,,,,0,,,85,80
80640,control_change,24,0,4,,,,,,,,0,64,0,,
80640,note_on,0,0,4,,,,,,,,0,,,46,80
80689,control_change,49,0,4,,,,,,,,0,64,127,,
80700,note_on,132,0,3,,,,,,,,0,,,73,80
80736,note_on,47,0,4,,,,,,,,0,,,46,0
80748,note_on,48,0,3,,,,,,,,0,,,73,0
80760,note_on,0,0,4,,,,,,,,0,,,72,80
80760,note_on,0,0,4,,,,,,,,0,,,61,80
80760,note_on,24,0,4,,,,,,,,0,,,65,80
80760,note_on,12,0,3,,,,,,,,0,,,77,80
80784,note_on,144,0,2,,,,,,,,0,,,85,0
80808,note_on,48,0,3,,,,,,,,0,,,77,0
80820,note_on,36,0,2,,,,,,,,0,,,84,80
80856,note_on,96,0,4,,,,,,,,0,,,61,0
80856,note_on,0,0,4,,,,,,,,0,,,72,0
80856,note_on,0,0,4,,,,,,,,0,,,65,0
80880,note_on,24,0,4,,,,,,,,0,,,49,80
80880,note_on,60,0,2,,,,,,,,0,,,85,80
80940,note_on,132,0,3,,,,,,,,0,,,73,80
80976,note_on,96,0,4,,,,,,,,0,,,49,0
80988,note_on,48,0,3,,,,,,,,0,,,73,0
81000,note_on,12,0,3,,,,,,,,0,,,77,80
81000,note_on,0,0,4,,,,,,,,0,,,70,80
81000,note_on,0,0,4,,,,,,,,0,,,65,80
81000,note_on,24,0,4,,,,,,,,0,,,61,80
81024,note_on,0,0,2,,,,,,,,0,,,84,0
81024,note_on,144,0,2,,,,,,,,0,,,85,0
81048,note_on,48,0,3,,,,,,,,0,,,77,0
81060,note_on,36,0,2,,,,,,,,0,,,82,80
81096,note_on,0,0,4,,,,,,,,0,,,70,0
81096,note_on,96,0,4,,,,,,,,0,,,65,0
81096,note_on,0,0,4,,,,,,,,0,,,61,0
81120,note_on,60,0,2,,,,,,,,0,,,85,80
81120,note_on,24,0,4,,,,,,,,0,,,53,80
81180,note_on,132,0,3,,,,,,,,0,,,73,80
81216,note_on,96,0,4,,,,,,,,0,,,53,0
81228,note_on,48,0,3,,,,,,,,0,,,73,0
81240,note_on,0,0,4,,,,,,,,0,,,61,80
81240,note_on,12,0,3,,,,,,,,0,,,77,80
81240,note_on,0,0,4,,,,,,,,0,,,66,80
81240,note_on,24,0,4,,,,,,,,0,,,58,80
81264,note_on,0,0,2,,,,,,,,0,,,82,0
81264,note_on,144,0,2,,,,,,,,0,,,85,0
81288,note_on,48,0,3,,,,,,,,0,,,77,0
81300,note_on,36,0,2,,,,,,,,0,,,78,80
81336,note_on,0,0,4,,,,,,,,0,,,58,0
81336,note_on,96,0,4,,,,,,,,0,,,66,0
81336,note_on,0,0,4,,,,,,,,0,,,61,0
81348,note_on,48,0,2,,,,,,,,0,,,78,0
81360,note_on,0,0,4,,,,,,,,0,,,45,80
81360,note_on,12,0,2,,,,,,,,0,,,87,80
81360,control_change,24,0,4,,,,,,,,0,64,0,,
81399,control_change,39,0,4,,,,,,,,0,64,127,,
81420,note_on,132,0,3,,,,,,,,0,,,75,80
81456,note_on,57,0,4,,,,,,,,0,,,45,0
81468,note_on,48,0,3,,,,,,,,0,,,75,0
81480,note_on,24,0,4,,,,,,,,0,,,73,80
81480,note_on,12,0,3,,,,,,,,0,,,78,80
81480,note_on,0,0,4,,,,,,,,0,,,63,80
81480,note_on,0,0,4,,,,,,,,0,,,66,80
81504,note_on,144,0,2,,,,,,,,0,,,87,0
81528,note_on,48,0,3,,,,,,,,0,,,78,0
81540,note_on,36,0,2,,,,,,,,0,,,85,80
81576,note_on,0,0,4,,,,,,,,0,,,73,0
81576,note_on,0,0,4,,,,,,,,0,,,66,0
81576,note_on,96,0,4,,,,,,,,0,,,63,0
81600,note_on,24,0,4,,,,,,,,0,,,44,80
81600,note_on,60,0,2,,,,,,,,0,,,87,80
81660,note_on,132,0,3,,,,,,,,0,,,75,80
81696,note_on,96,0,4,,,,,,,,0,,,44,0
81708,note_on,48,0,3,,,,,,,,0,,,75,0
81720,note_on,24,0,4,,,,,,,,0,,,72,80
81720,note_on,0,0,4,,,,,,,,0,,,66,80
81720,note_on,0,0,4,,,,,,,,0,,,63,80
81720,note_on,12,0,3,,,,,,,,0,,,78,80
81744,note_on,0,0,2,,,,,,,,0,,,85,0
81744,note_on,144,0,2,,,,,,,,0,,,87,0
81768,note_on,48,0,3,,,,,,,,0,,,78,0
81780,note_on,36,0,2,,,,,,,,0,,,84,80
81816,note_on,0,0,4,,,,,,,,0,,,72,0
81816,note_on,0,0,4,,,,,,,,0,,,66,0
81816,note_on,96,0,4,,,,,,,,0,,,63,0
81840,note_on,60,0,2,,,,,,,,0,,,87,80
81840,note_on,24,0,4,,,,,,,,0,,,48,80
81900,note_on,132,0,3,,,,,,,,0,,,75,80
81936,note_on,96,0,4,,,,,,,,0,,,48,0
81948,note_on,48,0,3,,,,,,,,0,,,75,0
81960,note_on,24,0,4,,,,,,,,0,,,63,80
81960,note_on,0,0,4,,,,,,,,0,,,68,80
81960,note_on,0,0,4,,,,,,,,0,,,66,80
81960,note_on,12,0,3,,,,,,,,0,,,78,80
81984,note_on,0,0,2,,,,,,,,0,,,84,0
81984,note_on,144,0,2,,,,,,,,0,,,87,0
82008,note_on,48,0,3,,,,,,,,0,,,78,0
82020,note_on,36,0,2,,,,,,,,0,,,80,80
82056,note_on,96,0,4,,,,,,,,0,,,68,0
82056,note_on,0,0,4,,,,,,,,0,,,63,0
82056,note_on,0,0,4,,,,,,,,0,,,66,0
82068,note_on,48,0,2,,,,,,,,0,,,80,0
82080,note_on,12,0,2,,,,,,,,0,,,89,80
82080,control_change,0,0,4,,,,,,,,0,64,0,,
82080,note_on,24,0,4,,,,,,,,0,,,49,80
82082,set_tempo,1443,1,0,,,,,,411918,,,,,,
82133,control_change,53,0,4,,,,,,,,0,64,127,,
82140,note_on,132,0,3,,,,,,,,0,,,77,80
82176,note_on,43,0,4,,,,,,,,0,,,49,0
82188,note_on,48,0,3,,,,,,,,0,,,77,0
82200,note_on,12,0,3,,,,,,,,0,,,80,80
82200,note_on,0,0,4,,,,,,,,0,,,75,80
82200,note_on,0,0,4,,,,,,,,0,,,68,80
82200,note_on,24,0,4,,,,,,,,0,,,65,80
82224,note_on,144,0,2,,,,,,,,0,,,89,0
82226,set_tempo,144,1,0,,,,,,409836,,,,,,
82248,note_on,48,0,3,,,,,,,,0,,,80,0
82260,note_on,36,0,2,,,,,,,,0,,,87,80
82296,note_on,0,0,4,,,,,,,,0,,,65,0
82296,note_on,0,0,4,,,,,,,,0,,,68,0
82296,note_on,96,0,4,,,,,,,,0,,,75,0
82320,note_on,60,0,2,,,,,,,,0,,,89,80
82320,note_on,24,0,4,,,,,,,,0,,,53,80
82366,set_tempo,140,1,0,,,,,,407775,,,,,,
82380,note_on,132,0,3,,,,,,,,0,,,77,80
82416,note_on,96,0,4,,,,,,,,0,,,53,0
82428,note_on,48,0,3,,,,,,,,0,,,77,0
82440,note_on,12,0,3,,,,,,,,0,,,80,80
82440,note_on,0,0,4,,,,,,,,0,,,65,80
82440,note_on,0,0,4,,,,,,,,0,,,68,80
82440,note_on,24,0,4,,,,,,,,0,,,73,80
82464,note_on,144,0,2,,,,,,,,0,,,89,0
82464,note_on,0,0,2,,,,,,,,0,,,87,0
82488,note_on,48,0,3,,,,,,,,0,,,80,0
82500,note_on,36,0,2,,,,,,,,0,,,85,80
82510,set_tempo,144,1,0,,,,,,405734,,,,,,
82536,note_on,96,0,4,,,,,,,,0,,,65,0
82536,note_on,0,0,4,,,,,,,,0,,,68,0
82536,note_on,0,0,4,,,,,,,,0,,,73,0
82560,note_on,24,0,4,,,,,,,,0,,,56,80
82560,note_on,60,0,2,,,,,,,,0,,,89,80
82620,note_on,132,0,3,,,,,,,,0,,,77,80
82650,set_tempo,140,1,0,,,,,,403714,,,,,,
82656,note_on,96,0,4,,,,,,,,0,,,56,0
82668,note_on,48,0,3,,,,,,,,0,,,77,0
82680,note_on,24,0,4,,,,,,,,0,,,72,80
82680,note_on,0,0,4,,,,,,,,0,,,68,80
82680,note_on,0,0,4,,,,,,,,0,,,65,80
82680,note_on,12,0,3,,,,,,,,0,,,80,80
82704,note_on,144,0,2,,,,,,,,0,,,89,0
82704,note_on,0,0,2,,,,,,,,0,,,85,0
82728,note_on,48,0,3,,,,,,,,0,,,80,0
82740,note_on,36,0,2,,,,,,,,0,,,84,80
82776,note_on,0,0,4,,,,,,,,0,,,72,0
82776,note_on,0,0,4,,,,,,,,0,,,65,0
82776,note_on,96,0,4,,,,,,,,0,,,68,0
82788,note_on,48,0,2,,,,,,,,0,,,84,0
82794,set_tempo,144,1,0,,,,,,401714,,,,,,
82800,control_change,0,0,4,,,,,,,,0,64,0,,
82800,note_on,12,0,2,,,,,,,,0,,,89,80
82800,note_on,24,0,4,,,,,,,,0,,,47,80
82828,control_change,28,0,4,,,,,,,,0,64,127,,
82860,note_on,132,0,3,,,,,,,,0,,,75,80
82896,note_on,68,0,4,,,,,,,,0,,,47,0
82908,note_on,48,0,3,,,,,,,,0,,,75,0
82920,note_on,0,0,4,,,,,,,,0,,,71,80
82920,note_on,0,0,4,,,,,,,,0,,,68,80
82920,note_on,0,0,4,,,,,,,,0,,,65,80
82920,note_on,24,0,4,,,,,,,,0,,,63,80
82920,note_on,12,0,3,,,,,,,,0,,,80,80
82933,set_tempo,139,1,0,,,,,,399734,,,,,,
82944,note_on,144,0,2,,,,,,,,0,,,89,0
82968,note_on,48,0,3,,,,,,,,0,,,80,0
82980,note_on,36,0,2,,,,,,,,0,,,83,80
83016,note_on,0,0,4,,,,,,,,0,,,63,0
83016,note_on,96,0,4,,,,,,,,0,,,68,0
83016,note_on,0,0,4,,,,,,,,0,,,71,0
83016,note_on,0,0,4,,,,,,,,0,,,65,0
83040,note_on,72,0,3,,,,,,,,0,,,89,80
83040,note_on,24,0,4,,,,,,,,0,,,53,80
83077,set_tempo,144,1,0,,,,,,397772,,,,,,
83088,note_on,48,0,3,,,,,,,,0,,,89,0
83100,note_on,12,0,3,,,,,,,,0,,,75,80
83136,note_on,96,0,4,,,,,,,,0,,,53,0
83148,note_on,48,0,3,,,,,,,,0,,,75,0
83160,note_on,0,0,4,,,,,,,,0,,,63,80
83160,note_on,0,0,4,,,,,,,,0,,,68,80
83160,note_on,0,0,4,,,,,,,,0,,,71,80
83160,note_on,24,0,4,,,,,,,,0,,,65,80
83160,note_on,12,0,3,,,,,,,,0,,,80,80
83172,note_on,192,0,2,,,,,,,,0,,,83,0
83208,note_on,48,0,3,,,,,,,,0,,,80,0
83217,set_tempo,140,1,0,,,,,,395831,,,,,,
83220,note_on,48,0,2,,,,,,,,0,,,83,80
83256,note_on,0,0,4,,,,,,,,0,,,71,0
83256,note_on,0,0,4,,,,,,,,0,,,65,0
83256,note_on,96,0,4,,,,,,,,0,,,68,0
83256,note_on,0,0,4,,,,,,,,0,,,63,0
83280,note_on,72,0,3,,,,,,,,0,,,89,80
83280,note_on,24,0,4,,,,,,,,0,,,59,80
83328,note_on,48,0,3,,,,,,,,0,,,89,0
83340,note_on,12,0,3,,,,,,,,0,,,75,80
83361,set_tempo,144,1,0,,,,,,393908,,,,,,
83376,note_on,96,0,4,,,,,,,,0,,,59,0
83388,note_on,48,0,3,,,,,,,,0,,,75,0
83400,note_on,12,0,3,,,,,,,,0,,,80,80
83400,note_on,0,0,4,,,,,,,,0,,,71,80
83400,note_on,0,0,4,,,,,,,,0,,,65,80
83400,note_on,0,0,4,,,,,,,,0,,,63,80
83400,note_on,24,0,4,,,,,,,,0,,,68,80
83412,note_on,192,0,2,,,,,,,,0,,,83,0
83448,note_on,48,0,3,,,,,,,,0,,,80,0
83460,note_on,48,0,2,,,,,,,,0,,,83,80
83496,note_on,0,0,4,,,,,,,,0,,,65,0
83496,note_on,0,0,4,,,,,,,,0,,,68,0
83496,note_on,0,0,4,,,,,,,,0,,,71,0
83496,note_on,96,0,4,,,,,,,,0,,,63,0
83501,set_tempo,140,1,0,,,,,,392003,,,,,,
83514,set_tempo,13,1,0,,,,,,429369,,,,,,
83520,note_on,0,0,4,,,,,,,,0,,,46,80
83520,note_on,60,0,2,,,,,,,,0,,,89,80
83520,control_change,24,0,4,,,,,,,,0,64,0,,
83531,set_tempo,17,1,0,,,,,,431655,,,,,,
83549,set_tempo,18,1,0,,,,,,433965,,,,,,
83553,control_change,33,0,4,,,,,,,,0,64,127,,
83562,set_tempo,13,1,0,,,,,,436300,,,,,,
83579,set_tempo,17,1,0,,,,,,438661,,,,,,
83580,note_on,132,0,3,,,,,,,,0,,,74,80
83592,set_tempo,13,1,0,,,,,,441047,,,,,,
83610,set_tempo,18,1,0,,,,,,443459,,,,,,
83616,note_on,63,0,4,,,,,,,,0,,,46,0
83627,set_tempo,17,1,0,,,,,,445898,,,,,,
83628,note_on,48,0,3,,,,,,,,0,,,74,0
83640,note_on,12,0,3,,,,,,,,0,,,80,80
83640,note_on,24,0,4,,,,,,,,0,,,65,80
83640,note_on,0,0,4,,,,,,,,0,,,68,80
83640,note_on,0,0,3,,,,,,,,0,,,82,80
83640,note_on,0,0,4,,,,,,,,0,,,70,80
83640,set_tempo,13,1,0,,,,,,448363,,,,,,
83640,note_on,0,0,4,,,,,,,,0,,,62,80
83652,note_on,132,0,2,,,,,,,,0,,,83,0
83658,set_tempo,18,1,0,,,,,,450857,,,,,,
83664,note_on,12,0,2,,,,,,,,0,,,89,0
83671,set_tempo,13,1,0,,,,,,453378,,,,,,
83688,note_on,48,0,3,,,,,,,,0,,,82,0
83688,set_tempo,17,1,0,,,,,,455927,,,,,,
83688,note_on,0,0,3,,,,,,,,0,,,80,0
83700,note_on,36,0,2,,,,,,,,0,,,89,80
83706,set_tempo,18,1,0,,,,,,458505,,,,,,
83719,set_tempo,13,1,0,,,,,,461113,,,,,,
83736,note_on,0,0,4,,,,,,,,0,,,65,0
83736,note_on,0,0,4,,,,,,,,0,,,68,0
83736,note_on,0,0,4,,,,,,,,0,,,70,0
83736,set_tempo,17,1,0,,,,,,463750,,,,,,
83736,note_on,96,0,4,,,,,,,,0,,,62,0
83749,set_tempo,13,1,0,,,,,,466418,,,,,,
83760,note_on,72,0,3,,,,,,,,0,,,74,80
83760,note_on,24,0,4,,,,,,,,0,,,46,80
83767,set_tempo,18,1,0,,,,,,469116,,,,,,
83780,set_tempo,13,1,0,,,,,,471846,,,,,,
83797,set_tempo,17,1,0,,,,,,474608,,,,,,
83808,note_on,48,0,3,,,,,,,,0,,,74,0
83815,set_tempo,18,1,0,,,,,,477403,,,,,,
83820,note_on,0,0,3,,,,,,,,0,,,80,80
83820,note_on,12,0,3,,,,,,,,0,,,82,80
83828,set_tempo,13,1,0,,,,,,480231,,,,,,
83844,note_on,144,0,2,,,,,,,,0,,,89,0
83845,set_tempo,17,1,0,,,,,,483092,,,,,,
83856,note_on,96,0,4,,,,,,,,0,,,46,0
83858,set_tempo,13,1,0,,,,,,485987,,,,,,
83868,note_on,0,0,3,,,,,,,,0,,,82,0
83868,note_on,48,0,3,,,,,,,,0,,,80,0
83876,set_tempo,18,1,0,,,,,,488918,,,,,,
83880,note_on,24,0,4,,,,,,,,0,,,66,80
83880,note_on,36,0,2,,,,,,,,0,,,90,80
83880,note_on,0,0,4,,,,,,,,0,,,70,80
83880,note_on,0,0,4,,,,,,,,0,,,68,80
83880,note_on,0,0,4,,,,,,,,0,,,62,80
83893,set_tempo,17,1,0,,,,,,491884,,,,,,
83906,set_tempo,13,1,0,,,,,,494886,,,,,,
83924,set_tempo,18,1,0,,,,,,497925,,,,,,
83937,set_tempo,13,1,0,,,,,,501002,,,,,,
83940,note_on,72,0,3,,,,,,,,0,,,74,80
83954,set_tempo,17,1,0,,,,,,504117,,,,,,
83972,set_tempo,18,1,0,,,,,,507271,,,,,,
83976,note_on,0,0,4,,,,,,,,0,,,62,0
83976,note_on,0,0,4,,,,,,,,0,,,66,0
83976,note_on,0,0,4,,,,,,,,0,,,68,0
83976,note_on,96,0,4,,,,,,,,0,,,70,0
83985,set_tempo,13,1,0,,,,,,510465,,,,,,
83988,note_on,48,0,3,,,,,,,,0,,,74,0
84000,note_on,12,0,3,,,,,,,,0,,,80,80
84000,note_on,24,0,4,,,,,,,,0,,,46,80
84000,note_on,0,0,3,,,,,,,,0,,,82,80
84002,set_tempo,17,1,0,,,,,,513699,,,,,,
84015,set_tempo,13,1,0,,,,,,516974,,,,,,
84024,note_on,144,0,2,,,,,,,,0,,,90,0
84033,set_tempo,18,1,0,,,,,,520291,,,,,,
84046,set_tempo,13,1,0,,,,,,523652,,,,,,
84048,note_on,48,0,3,,,,,,,,0,,,82,0
84048,note_on,0,0,3,,,,,,,,0,,,80,0
84060,note_on,36,0,2,,,,,,,,0,,,90,80
84063,set_tempo,17,1,0,,,,,,527056,,,,,,
84081,set_tempo,18,1,0,,,,,,530504,,,,,,
84094,set_tempo,13,1,0,,,,,,533998,,,,,,
84096,note_on,96,0,4,,,,,,,,0,,,46,0
84111,set_tempo,17,1,0,,,,,,537538,,,,,,
84120,note_on,0,0,4,,,,,,,,0,,,62,80
84120,note_on,24,0,4,,,,,,,,0,,,68,80
84120,note_on,0,0,4,,,,,,,,0,,,66,80
84120,note_on,0,0,4,,,,,,,,0,,,70,80
84120,note_on,72,0,3,,,,,,,,0,,,74,80
84125,set_tempo,14,1,0,,,,,,541126,,,,,,
84142,set_tempo,17,1,0,,,,,,544761,,,,,,
84159,set_tempo,17,1,0,,,,,,548446,,,,,,
84168,note_on,48,0,3,,,,,,,,0,,,74,0
84173,set_tempo,14,1,0,,,,,,552181,,,,,,
84180,note_on,12,0,3,,,,,,,,0,,,82,80
84180,note_on,0,0,3,,,,,,,,0,,,80,80
84190,set_tempo,17,1,0,,,,,,555967,,,,,,
84203,set_tempo,13,1,0,,,,,,559806,,,,,,
84204,note_on,144,0,2,,,,,,,,0,,,90,0
84216,note_on,0,0,4,,,,,,,,0,,,66,0
84216,note_on,96,0,4,,,,,,,,0,,,62,0
84216,note_on,0,0,4,,,,,,,,0,,,68,0
84216,note_on,0,0,4,,,,,,,,0,,,70,0
84221,set_tempo,18,1,0,,,,,,563698,,,,,,
84228,note_on,0,0,3,,,,,,,,0,,,82,0
84228,note_on,48,0,3,,,,,,,,0,,,80,0
84234,set_tempo,13,1,0,,,,,,567644,,,,,,
84238,set_tempo,4,1,0,,,,,,571646,,,,,,
84240,note_on,36,0,2,,,,,,,,0,,,79,80
84240,note_on,24,0,4,,,,,,,,0,,,51,80
84240,note_on,0,0,4,,,,,,,,0,,,39,80
84240,note_on,21552,0,1,,,,,,,,0,,,91,80
84240,time_signature,2,1,0,2,4,24,8,,,,,,,,
84240,control_change,0,0,4,,,,,,,,0,64,0,,
84258,control_change,18,0,4,,,,,,,,0,64,127,,
84272,note_on,32,0,1,,,,,,,,0,,,91,0
84280,note_on,8,0,1,,,,,,,,0,,,82,80
84300,note_on,72,0,3,,,,,,,,0,,,58,71
84300,note_on,0,0,3,,,,,,,,0,,,55,71
84300,note_on,0,0,3,,,,,,,,0,,,67,71
84312,note_on,32,0,1,,,,,,,,0,,,82,0
84320,note_on,8,0,1,,,,,,,,0,,,86,80
84336,note_on,96,0,2,,,,,,,,0,,,79,0
84352,note_on,32,0,1,,,,,,,,0,,,86,0
84360,note_on,8,0,1,,,,,,,,0,,,89,80
84360,note_on,24,0,2,,,,,,,,0,,,77,80
84392,note_on,32,0,1,,,,,,,,0,,,89,0
84396,note_on,96,0,3,,,,,,,,0,,,55,0
84396,note_on,0,0,3,,,,,,,,0,,,58,0
84396,note_on,0,0,3,,,,,,,,0,,,67,0
84400,note_on,8,0,1,,,,,,,,0,,,79,80
84420,note_on,24,0,3,,,,,,,,0,,,65,71
84420,note_on,0,0,3,,,,,,,,0,,,55,71
84420,note_on,0,0,3,,,,,,,,0,,,58,71
84432,note_on,32,0,1,,,,,,,,0,,,79,0
84440,note_on,8,0,1,,,,,,,,0,,,82,80
84456,note_on,96,0,2,,,,,,,,0,,,77,0
84472,note_on,32,0,1,,,,,,,,0,,,82,0
84480,note_on,8,0,1,,,,,,,,0,,,87,80
84480,note_on,24,0,2,,,,,,,,0,,,75,80
84512,note_on,32,0,1,,,,,,,,0,,,87,0
84516,note_on,0,0,3,,,,,,,,0,,,58,0
84516,note_on,96,0,3,,,,,,,,0,,,55,0
84516,note_on,0,0,3,,,,,,,,0,,,65,0
84520,note_on,8,0,1,,,,,,,,0,,,79,80
84540,note_on,0,0,3,,,,,,,,0,,,63,71
84540,note_on,0,0,3,,,,,,,,0,,,58,71
84540,note_on,24,0,3,,,,,,,,0,,,55,71
84552,note_on,32,0,1,,,,,,,,0,,,79,0
84560,note_on,8,0,1,,,,,,,,0,,,82,80
84576,note_on,96,0,2,,,,,,,,0,,,75,0
84592,note_on,32,0,1,,,,,,,,0,,,82,0
84600,note_on,24,0,2,,,,,,,,0,,,74,80
84600,note_on,8,0,1,,,,,,,,0,,,86,80
84624,note_on,0,0,4,,,,,,,,0,,,51,0
84624,note_on,366,0,4,,,,,,,,0,,,39,0
84632,note_on,32,0,1,,,,,,,,0,,,86,0
84636,note_on,96,0,3,,,,,,,,0,,,58,0
84636,note_on,0,0,3,,,,,,,,0,,,63,0
84636,note_on,0,0,3,,,,,,,,0,,,55,0
84640,note_on,8,0,1,,,,,,,,0,,,79,80
84660,note_on,0,0,3,,,,,,,,0,,,55,71
84660,note_on,24,0,3,,,,,,,,0,,,58,71
84660,note_on,0,0,3,,,,,,,,0,,,62,71
84672,note_on,32,0,1,,,,,,,,0,,,79,0
84680,note_on,8,0,1,,,,,,,,0,,,82,80
84696,note_on,96,0,2,,,,,,,,0,,,74,0
84708,note_on,0,0,3,,,,,,,,0,,,58,0
84708,note_on,0,0,3,,,,,,,,0,,,62,0
84708,note_on,48,0,3,,,,,,,,0,,,55,0
84712,note_on,32,0,1,,,,,,,,0,,,82,0
84720,note_on,8,0,1,,,,,,,,0,,,84,80
84720,control_change,0,0,4,,,,,,,,0,64,0,,
84720,note_on,24,0,2,,,,,,,,0,,,72,80
84720,note_on,0,0,4,,,,,,,,0,,,39,80
84720,note_on,96,0,4,,,,,,,,0,,,51,80
84741,control_change,21,0,4,,,,,,,,0,64,127,,
84752,note_on,32,0,1,,,,,,,,0,,,84,0
84760,note_on,8,0,1,,,,,,,,0,,,75,80
84780,note_on,0,0,3,,,,,,,,0,,,51,71
84780,note_on,72,0,3,,,,,,,,0,,,55,71
84780,note_on,0,0,3,,,,,,,,0,,,60,71
84792,note_on,32,0,1,,,,,,,,0,,,75,0
84800,note_on,8,0,1,,,,,,,,0,,,79,80
84816,note_on,96,0,2,,,,,,,,0,,,72,0
84832,note_on,32,0,1,,,,,,,,0,,,79,0
84840,note_on,24,0,2,,,,,,,,0,,,69,80
84840,note_on,8,0,1,,,,,,,,0,,,81,80
84872,note_on,32,0,1,,,,,,,,0,,,81,0
84876,note_on,96,0,3,,,,,,,,0,,,60,0
84876,note_on,0,0,3,,,,,,,,0,,,55,0
84876,note_on,0,0,3,,,,,,,,0,,,51,0
84880,note_on,8,0,1,,,,,,,,0,,,75,80
84900,note_on,0,0,3,,,,,,,,0,,,57,71
84900,note_on,0,0,3,,,,,,,,0,,,51,71
84900,note_on,24,0,3,,,,,,,,0,,,55,71
84912,note_on,32,0,1,,,,,,,,0,,,75,0
84920,note_on,8,0,1,,,,,,,,0,,,79,80
84936,note_on,96,0,2,,,,,,,,0,,,69,0
84952,note_on,32,0,1,,,,,,,,0,,,79,0
84960,note_on,24,0,2,,,,,,,,0,,,70,80
84960,note_on,8,0,1,,,,,,,,0,,,82,80
84992,note_on,32,0,1,,,,,,,,0,,,82,0
84996,note_on,96,0,3,,,,,,,,0,,,57,0
84996,note_on,0,0,3,,,,,,,,0,,,55,0
84996,note_on,0,0,3,,,,,,,,0,,,51,0
85000,note_on,8,0,1,,,,,,,,0,,,75,80
85020,note_on,24,0,3,,,,,,,,0,,,55,71
85020,note_on,0,0,3,,,,,,,,0,,,58,71
85020,note_on,0,0,3,,,,,,,,0,,,51,71
85032,note_on,32,0,1,,,,,,,,0,,,75,0
85040,note_on,8,0,1,,,,,,,,0,,,79,80
85056,note_on,96,0,2,,,,,,,,0,,,70,0
85072,note_on,32,0,1,,,,,,,,0,,,79,0
85080,note_on,8,0,1,,,,,,,,0,,,79,80
85080,note_on,0,0,1,,,,,,,,0,,,91,80
85104,note_on,363,0,4,,,,,,,,0,,,39,0
85104,note_on,0,0,4,,,,,,,,0,,,51,0
85112,note_on,32,0,1,,,,,,,,0,,,91,0
85112,note_on,0,0,1,,,,,,,,0,,,79,0
85116,note_on,0,0,3,,,,,,,,0,,,51,0
85116,note_on,96,0,3,,,,,,,,0,,,58,0
85116,note_on,0,0,3,,,,,,,,0,,,55,0
85120,note_on,8,0,1,,,,,,,,0,,,82,80
85140,note_on,0,0,3,,,,,,,,0,,,63,71
85140,note_on,0,0,3,,,,,,,,0,,,55,71
85140,note_on,24,0,3,,,,,,,,0,,,58,71
85140,note_on,0,0,3,,,,,,,,0,,,67,71
85152,note_on,32,0,1,,,,,,,,0,,,82,0
85160,note_on,8,0,1,,,,,,,,0,,,87,80
85188,note_on,0,0,3,,,,,,,,0,,,55,0
85188,note_on,0,0,3,,,,,,,,0,,,58,0
85188,note_on,48,0,3,,,,,,,,0,,,67,0
85188,note_on,0,0,3,,,,,,,,0,,,63,0
85192,note_on,32,0,1,,,,,,,,0,,,87,0
85200,note_on,0,0,4,,,,,,,,0,,,51,80
85200,note_on,96,0,4,,,,,,,,0,,,39,80
85200,note_on,8,0,1,,,,,,,,0,,,79,80
85200,control_change,0,0,4,,,,,,,,0,64,0,,
85200,note_on,144,0,2,,,,,,,,0,,,91,80
85232,note_on,32,0,1,,,,,,,,0,,,79,0
85232,control_change,32,0,4,,,,,,,,0,64,127,,
85240,note_on,8,0,1,,,,,,,,0,,,83,80
85260,note_on,0,0,3,,,,,,,,0,,,67,71
85260,note_on,0,0,3,,,,,,,,0,,,62,71
85260,note_on,0,0,3,,,,,,,,0,,,56,71
85260,note_on,72,0,3,,,,,,,,0,,,59,71
85272,note_on,32,0,1,,,,,,,,0,,,83,0
85280,note_on,8,0,1,,,,,,,,0,,,86,80
85296,note_on,96,0,2,,,,,,,,0,,,91,0
85312,note_on,32,0,1,,,,,,,,0,,,86,0
85320,note_on,24,0,2,,,,,,,,0,,,88,80
85320,note_on,8,0,1,,,,,,,,0,,,76,80
85352,note_on,32,0,1,,,,,,,,0,,,76,0
85356,note_on,0,0,3,,,,,,,,0,,,62,0
85356,note_on,0,0,3,,,,,,,,0,,,59,0
85356,note_on,0,0,3,,,,,,,,0,,,67,0
85356,note_on,96,0,3,,,,,,,,0,,,56,0
85360,note_on,8,0,1,,,,,,,,0,,,83,80
85380,note_on,24,0,3,,,,,,,,0,,,59,71
85380,note_on,0,0,3,,,,,,,,0,,,56,71
85380,note_on,0,0,3,,,,,,,,0,,,62,71
85380,note_on,0,0,3,,,,,,,,0,,,64,71
85392,note_on,32,0,1,,,,,,,,0,,,83,0
85400,note_on,8,0,1,,,,,,,,0,,,86,80
85416,note_on,96,0,2,,,,,,,,0,,,88,0
85432,note_on,32,0,1,,,,,,,,0,,,86,0
85440,note_on,24,0,2,,,,,,,,0,,,89,80
85440,note_on,8,0,1,,,,,,,,0,,,77,80
85472,note_on,32,0,1,,,,,,,,0,,,77,0
85476,note_on,0,0,3,,,,,,,,0,,,64,0
85476,note_on,0,0,3,,,,,,,,0,,,59,0
85476,note_on,0,0,3,,,,,,,,0,,,56,0
85476,note_on,96,0,3,,,,,,,,0,,,62,0
85480,note_on,8,0,1,,,,,,,,0,,,83,80
85500,note_on,24,0,3,,,,,,,,0,,,62,71
85500,note_on,0,0,3,,,,,,,,0,,,65,71
85500,note_on,0,0,3,,,,,,,,0,,,59,71
85500,note_on,0,0,3,,,,,,,,0,,,56,71
85512,note_on,32,0,1,,,,,,,,0,,,83,0
85520,note_on,8,0,1,,,,,,,,0,,,86,80
85536,note_on,96,0,2,,,,,,,,0,,,89,0
85552,note_on,32,0,1,,,,,,,,0,,,86,0
85560,note_on,8,0,1,,,,,,,,0,,,79,80
85560,note_on,24,0,2,,,,,,,,0,,,91,80
85584,note_on,0,0,4,,,,,,,,0,,,39,0
85584,note_on,352,0,4,,,,,,,,0,,,51,0
85592,note_on,32,0,1,,,,,,,,0,,,79,0
85596,note_on,0,0,3,,,,,,,,0,,,62,0
85596,note_on,0,0,3,,,,,,,,0,,,65,0
85596,note_on,0,0,3,,,,,,,,0,,,56,0
85596,note_on,96,0,3,,,,,,,,0,,,59,0
85600,note_on,8,0,1,,,,,,,,0,,,83,80
85620,note_on,24,0,3,,,,,,,,0,,,67,71
85620,note_on,0,0,3,,,,,,,,0,,,62,71
85620,note_on,0,0,3,,,,,,,,0,,,59,71
85620,note_on,0,0,3,,,,,,,,0,,,56,71
85632,note_on,32,0,1,,,,,,,,0,,,83,0
85640,note_on,8,0,1,,,,,,,,0,,,86,80
85656,note_on,96,0,2,,,,,,,,0,,,91,0
85668,note_on,0,0,3,,,,,,,,0,,,67,0
85668,note_on,48,0,3,,,,,,,,0,,,56,0
85668,note_on,0,0,3,,,,,,,,0,,,59,0
85668,note_on,0,0,3,,,,,,,,0,,,62,0
85672,note_on,32,0,1,,,,,,,,0,,,86,0
85680,note_on,0,0,4,,,,,,,,0,,,39,80
85680,note_on,8,0,1,,,,,,,,0,,,80,80
85680,note_on,24,0,2,,,,,,,,0,,,92,80
85680,control_change,0,0,4,,,,,,,,0,64,0,,
85680,note_on,96,0,4,,,,,,,,0,,,51,80
85699,control_change,19,0,4,,,,,,,,0,64,127,,
85712,note_on,32,0,1,,,,,,,,0,,,80,0
85720,note_on,8,0,1,,,,,,,,0,,,86,80
85740,note_on,72,0,3,,,,,,,,0,,,62,71
85740,note_on,0,0,3,,,,,,,,0,,,68,71
85740,note_on,0,0,3,,,,,,,,0,,,65,71
85740,note_on,0,0,3,,,,,,,,0,,,59,71
85752,note_on,32,0,1,,,,,,,,0,,,86,0
85760,note_on,8,0,1,,,,,,,,0,,,89,80
85776,note_on,96,0,2,,,,,,,,0,,,92,0
85792,note_on,32,0,1,,,,,,,,0,,,89,0
85800,note_on,24,0,2,,,,,,,,0,,,93,80
85800,note_on,8,0,1,,,,,,,,0,,,81,80
85832,note_on,32,0,1,,,,,,,,0,,,81,0
85836,note_on,0,0,3,,,,,,,,0,,,68,0
85836,note_on,0,0,3,,,,,,,,0,,,59,0
85836,note_on,96,0,3,,,,,,,,0,,,65,0
85836,note_on,0,0,3,,,,,,,,0,,,62,0
85840,note_on,8,0,1,,,,,,,,0,,,86,80
85860,note_on,24,0,3,,,,,,,,0,,,62,71
85860,note_on,0,0,3,,,,,,,,0,,,59,71
85860,note_on,0,0,3,,,,,,,,0,,,65,71
85860,note_on,0,0,3,,,,,,,,0,,,69,71
85872,note_on,32,0,1,,,,,,,,0,,,86,0
85880,note_on,8,0,1,,,,,,,,0,,,89,80
85896,note_on,96,0,2,,,,,,,,0,,,93,0
85912,note_on,32,0,1,,,,,,,,0,,,89,0
85920,note_on,24,0,2,,,,,,,,0,,,96,80
85920,note_on,8,0,1,,,,,,,,0,,,84,80
85952,note_on,32,0,1,,,,,,,,0,,,84,0
85956,note_on,0,0,3,,,,,,,,0,,,59,0
85956,note_on,96,0,3,,,,,,,,0,,,69,0
85956,note_on,0,0,3,,,,,,,,0,,,65,0
85956,note_on,0,0,3,,,,,,,,0,,,62,0
85960,note_on,8,0,1,,,,,,,,0,,,86,80
85980,note_on,0,0,3,,,,,,,,0,,,68,71
85980,note_on,0,0,3,,,,,,,,0,,,65,71
85980,note_on,0,0,3,,,,,,,,0,,,58,71
85980,note_on,24,0,3,,,,,,,,0,,,72,71
85980,note_on,0,0,3,,,,,,,,0,,,62,71
85992,note_on,32,0,1,,,,,,,,0,,,86,0
86000,note_on,8,0,1,,,,,,,,0,,,89,80
86016,note_on,96,0,2,,,,,,,,0,,,96,0
86032,note_on,32,0,1,,,,,,,,0,,,89,0
86040,note_on,8,0,1,,,,,,,,0,,,82,80
86040,note_on,24,0,2,,,,,,,,0,,,94,80
86064,note_on,0,0,4,,,,,,,,0,,,51,0
86064,note_on,365,0,4,,,,,,,,0,,,39,0
86072,note_on,32,0,1,,,,,,,,0,,,82,0
86076,note_on,96,0,3,,,,,,,,0,,,58,0
86076,note_on,0,0,3,,,,,,,,0,,,62,0
86076,note_on,0,0,3,,,,,,,,0,,,72,0
86076,note_on,0,0,3,,,,,,,,0,,,68,0
86076,note_on,0,0,3,,,,,,,,0,,,65,0
86080,note_on,8,0,1,,,,,,,,0,,,86,80
86100,note_on,24,0,3,,,,,,,,0,,,65,71
86100,note_on,0,0,3,,,,,,,,0,,,70,71
86100,note_on,0,0,3,,,,,,,,0,,,68,71
86100,note_on,0,0,3,,,,,,,,0,,,62,71
86100,note_on,0,0,3,,,,,,,,0,,,58,71
86112,note_on,32,0,1,,,,,,,,0,,,86,0
86120,note_on,8,0,1,,,,,,,,0,,,89,80
86136,note_on,96,0,2,,,,,,,,0,,,94,0
86148,note_on,0,0,3,,,,,,,,0,,,62,0
86148,note_on,48,0,3,,,,,,,,0,,,70,0
86148,note_on,0,0,3,,,,,,,,0,,,68,0
86148,note_on,0,0,3,,,,,,,,0,,,65,0
86148,note_on,0,0,3,,,,,,,,0,,,58,0
86152,note_on,32,0,1,,,,,,,,0,,,89,0
86160,note_on,96,0,4,,,,,,,,0,,,39,80
86160,note_on,24,0,2,,,,,,,,0,,,79,80
86160,note_on,8,0,1,,,,,,,,0,,,91,80
86160,control_change,0,0,4,,,,,,,,0,64,0,,
86160,note_on,0,0,4,,,,,,,,0,,,51,80
86179,control_change,19,0,4,,,,,,,,0,64,127,,
86192,note_on,32,0,1,,,,,,,,0,,,91,0
86200,note_on,8,0,1,,,,,,,,0,,,82,80
86220,note_on,0,0,3,,,,,,,,0,,,55,71
86220,note_on,72,0,3,,,,,,,,0,,,58,71
86220,note_on,0,0,3,,,,,,,,0,,,67,71
86232,note_on,32,0,1,,,,,,,,0,,,82,0
86240,note_on,8,0,1,,,,,,,,0,,,86,80
86256,note_on,96,0,2,,,,,,,,0,,,79,0
86272,note_on,32,0,1,,,,,,,,0,,,86,0
86280,note_on,8,0,1,,,,,,,,0,,,89,80
86280,note_on,24,0,2,,,,,,,,0,,,77,80
86312,note_on,32,0,1,,,,,,,,0,,,89,0
86316,note_on,0,0,3,,,,,,,,0,,,58,0
86316,note_on,0,0,3,,,,,,,,0,,,55,0
86316,note_on,96,0,3,,,,,,,,0,,,67,0
86320,note_on,8,0,1,,,,,,,,0,,,79,80
86340,note_on,24,0,3,,,,,,,,0,,,55,71
86340,note_on,0,0,3,,,,,,,,0,,,65,71
86340,note_on,0,0,3,,,,,,,,0,,,58,71
86352,note_on,32,0,1,,,,,,,,0,,,79,0
86360,note_on,8,0,1,,,,,,,,0,,,82,80
86376,note_on,96,0,2,,,,,,,,0,,,77,0
86392,note_on,32,0,1,,,,,,,,0,,,82,0
86400,note_on,24,0,2,,,,,,,,0,,,75,80
86400,note_on,8,0,1,,,,,,,,0,,,87,80
86432,note_on,32,0,1,,,,,,,,0,,,87,0
86436,note_on,0,0,3,,,,,,,,0,,,65,0
86436,note_on,96,0,3,,,,,,,,0,,,58,0
86436,note_on,0,0,3,,,,,,,,0,,,55,0
86440,note_on,8,0,1,,,,,,,,0,,,79,80
86460,note_on,24,0,3,,,,,,,,0,,,58,71
86460,note_on,0,0,3,,,,,,,,0,,,55,71
86460,note_on,0,0,3,,,,,,,,0,,,63,71
86472,note_on,32,0,1,,,,,,,,0,,,79,0
86480,note_on,8,0,1,,,,,,,,0,,,82,80
86496,note_on,96,0,2,,,,,,,,0,,,75,0
86512,note_on,32,0,1,,,,,,,,0,,,82,0
86520,note_on,8,0,1,,,,,,,,0,,,86,80
86520,note_on,24,0,2,,,,,,,,0,,,74,80
86544,note_on,365,0,4,,,,,,,,0,,,51,0
86544,note_on,0,0,4,,,,,,,,0,,,39,0
86552,note_on,32,0,1,,,,,,,,0,,,86,0
86556,note_on,0,0,3,,,,,,,,0,,,58,0
86556,note_on,96,0,3,,,,,,,,0,,,55,0
86556,note_on,0,0,3,,,,,,,,0,,,63,0
86560,note_on,8,0,1,,,,,,,,0,,,79,80
86580,note_on,0,0,3,,,,,,,,0,,,62,71
86580,note_on,0,0,3,,,,,,,,0,,,55,71
86580,note_on,24,0,3,,,,,,,,0,,,58,71
86592,note_on,32,0,1,,,,,,,,0,,,79,0
86600,note_on,8,0,1,,,,,,,,0,,,82,80
86616,note_on,96,0,2,,,,,,,,0,,,74,0
86628,note_on,0,0,3,,,,,,,,0,,,58,0
86628,note_on,48,0,3,,,,,,,,0,,,55,0
86628,note_on,0,0,3,,,,,,,,0,,,62,0
86632,note_on,32,0,1,,,,,,,,0,,,82,0
86640,note_on,0,0,4,,,,,,,,0,,,39,80
86640,control_change,0,0,4,,,,,,,,0,64,0,,
86640,note_on,24,0,2,,,,,,,,0,,,72,80
86640,note_on,96,0,4,,,,,,,,0,,,51,80
86640,note_on,8,0,1,,,,,,,,0,,,84,80
86663,control_change,23,0,4,,,,,,,,0,64,127,,
86672,note_on,32,0,1,,,,,,,,0,,,84,0
86680,note_on,8,0,1,,,,,,,,0,,,75,80
86700,note_on,0,0,3,,,,,,,,0,,,51,71
86700,note_on,72,0,3,,,,,,,,0,,,55,71
86700,note_on,0,0,3,,,,,,,,0,,,60,71
86712,note_on,32,0,1,,,,,,,,0,,,75,0
86720,note_on,8,0,1,,,,,,,,0,,,79,80
86736,note_on,96,0,2,,,,,,,,0,,,72,0
86752,note_on,32,0,1,,,,,,,,0,,,79,0
86760,note_on,24,0,2,,,,,,,,0,,,69,80
86760,note_on,8,0,1,,,,,,,,0,,,81,80
86792,note_on,32,0,1,,,,,,,,0,,,81,0
86796,note_on,0,0,3,,,,,,,,0,,,55,0
86796,note_on,96,0,3,,,,,,,,0,,,51,0
86796,note_on,0,0,3,,,,,,,,0,,,60,0
86800,note_on,8,0,1,,,,,,,,0,,,75,80
86820,note_on,24,0,3,,,,,,,,0,,,51,71
86820,note_on,0,0,3,,,,,,,,0,,,57,71
86820,note_on,0,0,3,,,,,,,,0,,,55,71
86832,note_on,32,0,1,,,,,,,,0,,,75,0
86840,note_on,8,0,1,,,,,,,,0,,,79,80
86856,note_on,96,0,2,,,,,,,,0,,,69,0
86872,note_on,32,0,1,,,,,,,,0,,,79,0
86880,note_on,24,0,2,,,,,,,,0,,,70,80
86880,note_on,8,0,1,,,,,,,,0,,,82,80
86912,note_on,32,0,1,,,,,,,,0,,,82,0
86916,note_on,0,0,3,,,,,,,,0,,,51,0
86916,note_on,0,0,3,,,,,,,,0,,,57,0
86916,note_on,96,0,3,,,,,,,,0,,,55,0
86920,note_on,8,0,1,,,,,,,,0,,,75,80
86940,note_on,0,0,3,,,,,,,,0,,,58,71
86940,note_on,0,0,3,,,,,,,,0,,,51,71
86940,note_on,24,0,3,,,,,,,,0,,,55,71
86952,note_on,32,0,1,,,,,,,,0,,,75,0
86960,note_on,8,0,1,,,,,,,,0,,,79,80
86976,note_on,96,0,2,,,,,,,,0,,,70,0
86992,note_on,32,0,1,,,,,,,,0,,,79,0
87000,note_on,0,0,1,,,,,,,,0,,,79,80
87000,note_on,8,0,1,,,,,,,,0,,,91,80
87024,note_on,0,0,4,,,,,,,,0,,,51,0
87024,note_on,361,0,4,,,,,,,,0,,,39,0
87032,note_on,32,0,1,,,,,,,,0,,,79,0
87032,note_on,0,0,1,,,,,,,,0,,,91,0
87036,note_on,96,0,3,,,,,,,,0,,,58,0
87036,note_on,0,0,3,,,,,,,,0,,,51,0
87036,note_on,0,0,3,,,,,,,,0,,,55,0
87040,note_on,8,0,1,,,,,,,,0,,,82,80
87060,note_on,0,0,3,,,,,,,,0,,,67,71
87060,note_on,0,0,3,,,,,,,,0,,,63,71
87060,note_on,0,0,3,,,,,,,,0,,,55,71
87060,note_on,24,0,3,,,,,,,,0,,,58,71
87072,note_on,32,0,1,,,,,,,,0,,,82,0
87080,note_on,8,0,1,,,,,,,,0,,,87,80
87108,note_on,48,0,3,,,,,,,,0,,,63,0
87108,note_on,0,0,3,,,,,,,,0,,,67,0
87108,note_on,0,0,3,,,,,,,,0,,,55,0
87108,note_on,0,0,3,,,,,,,,0,,,58,0
87112,note_on,32,0,1,,,,,,,,0,,,87,0
87120,note_on,8,0,1,,,,,,,,0,,,79,80
87120,note_on,144,0,2,,,,,,,,0,,,91,80
87120,control_change,96,0,4,,,,,,,,0,64,0,,
87120,note_on,0,0,4,,,,,,,,0,,,38,80
87120,note_on,0,0,4,,,,,,,,0,,,50,80
87141,control_change,21,0,4,,,,,,,,0,64,127,,
87152,note_on,32,0,1,,,,,,,,0,,,79,0
87160,note_on,8,0,1,,,,,,,,0,,,81,80
87180,note_on,72,0,3,,,,,,,,0,,,67,71
87180,note_on,0,0,3,,,,,,,,0,,,60,71
87180,note_on,0,0,3,,,,,,,,0,,,55,71
87180,note_on,0,0,3,,,,,,,,0,,,57,71
87192,note_on,32,0,1,,,,,,,,0,,,81,0
87200,note_on,8,0,1,,,,,,,,0,,,84,80
87216,note_on,96,0,2,,,,,,,,0,,,91,0
87232,note_on,32,0,1,,,,,,,,0,,,84,0
87240,note_on,24,0,2,,,,,,,,0,,,90,80
87240,note_on,8,0,1,,,,,,,,0,,,78,80
87272,note_on,32,0,1,,,,,,,,0,,,78,0
87276,note_on,96,0,3,,,,,,,,0,,,60,0
87276,note_on,0,0,3,,,,,,,,0,,,55,0
87276,note_on,0,0,3,,,,,,,,0,,,57,0
87276,note_on,0,0,3,,,,,,,,0,,,67,0
87280,note_on,8,0,1,,,,,,,,0,,,81,80
87300,note_on,0,0,3,,,,,,,,0,,,66,71
87300,note_on,0,0,3,,,,,,,,0,,,54,71
87300,note_on,24,0,3,,,,,,,,0,,,60,71
87300,note_on,0,0,3,,,,,,,,0,,,57,71
87312,note_on,32,0,1,,,,,,,,0,,,81,0
87320,note_on,8,0,1,,,,,,,,0,,,84,80
87336,note_on,96,0,2,,,,,,,,0,,,90,0
87348,note_on,0,0,3,,,,,,,,0,,,60,0
87348,note_on,0,0,3,,,,,,,,0,,,57,0
87348,note_on,48,0,3,,,,,,,,0,,,54,0
87348,note_on,0,0,3,,,,,,,,0,,,66,0
87352,note_on,32,0,1,,,,,,,,0,,,84,0
87360,note_on,8,0,1,,,,,,,,0,,,87,80
87360,note_on,24,0,2,,,,,,,,0,,,99,80
87392,note_on,32,0,1,,,,,,,,0,,,87,0
87400,note_on,8,0,1,,,,,,,,0,,,90,80
87420,note_on,0,0,3,,,,,,,,0,,,69,71
87420,note_on,72,0,3,,,,,,,,0,,,75,71
87420,note_on,0,0,3,,,,,,,,0,,,72,71
87420,note_on,0,0,3,,,,,,,,0,,,66,71
87420,note_on,0,0,3,,,,,,,,0,,,63,71
87432,note_on,32,0,1,,,,,,,,0,,,90,0
87440,note_on,8,0,1,,,,,,,,0,,,93,80
87456,note_on,96,0,2,,,,,,,,0,,,99,0
87472,note_on,32,0,1,,,,,,,,0,,,93,0
87480,note_on,24,0,2,,,,,,,,0,,,98,80
87480,note_on,8,0,1,,,,,,,,0,,,86,80
87504,note_on,363,0,4,,,,,,,,0,,,50,0
87504,note_on,0,0,4,,,,,,,,0,,,38,0
87512,note_on,32,0,1,,,,,,,,0,,,86,0
87516,note_on,96,0,3,,,,,,,,0,,,63,0
87516,note_on,0,0,3,,,,,,,,0,,,75,0
87516,note_on,0,0,3,,,,,,,,0,,,72,0
87516,note_on,0,0,3,,,,,,,,0,,,69,0
87516,note_on,0,0,3,,,,,,,,0,,,66,0
87520,note_on,8,0,1,,,,,,,,0,,,90,80
87540,note_on,0,0,3,,,,,,,,0,,,74,71
87540,note_on,0,0,3,,,,,,,,0,,,72,71
87540,note_on,0,0,3,,,,,,,,0,,,69,71
87540,note_on,0,0,3,,,,,,,,0,,,66,71
87540,note_on,24,0,3,,,,,,,,0,,,62,71
87552,note_on,32,0,1,,,,,,,,0,,,90,0
87560,note_on,8,0,1,,,,,,,,0,,,93,80
87576,note_on,96,0,2,,,,,,,,0,,,98,0
87588,note_on,0,0,3,,,,,,,,0,,,62,0
87588,note_on,48,0,3,,,,,,,,0,,,74,0
87588,note_on,0,0,3,,,,,,,,0,,,72,0
87588,note_on,0,0,3,,,,,,,,0,,,69,0
87588,note_on,0,0,3,,,,,,,,0,,,66,0
87592,note_on,32,0,1,,,,,,,,0,,,93,0
87600,note_on,24,0,2,,,,,,,,0,,,98,80
87600,note_on,96,0,4,,,,,,,,0,,,43,80
87600,note_on,0,0,4,,,,,,,,0,,,55,80
87600,note_on,8,0,1,,,,,,,,0,,,86,80
87600,control_change,0,0,4,,,,,,,,0,64,0,,
87621,control_change,21,0,4,,,,,,,,0,64,127,,
87632,note_on,32,0,1,,,,,,,,0,,,86,0
87640,note_on,8,0,1,,,,,,,,0,,,91,80
87660,note_on,0,0,3,,,,,,,,0,,,74,71
87660,note_on,0,0,3,,,,,,,,0,,,62,71
87660,note_on,0,0,3,,,,,,,,0,,,71,71
87660,note_on,72,0,3,,,,,,,,0,,,67,71
87672,note_on,32,0,1,,,,,,,,0,,,91,0
87680,note_on,8,0,1,,,,,,,,0,,,95,80
87696,note_on,96,0,2,,,,,,,,0,,,98,0
87712,note_on,32,0,1,,,,,,,,0,,,95,0
87720,note_on,24,0,2,,,,,,,,0,,,95,80
87720,note_on,8,0,1,,,,,,,,0,,,83,80
87752,note_on,32,0,1,,,,,,,,0,,,83,0
87756,note_on,0,0,3,,,,,,,,0,,,71,0
87756,note_on,96,0,3,,,,,,,,0,,,74,0
87756,note_on,0,0,3,,,,,,,,0,,,62,0
87756,note_on,0,0,3,,,,,,,,0,,,67,0
87760,note_on,8,0,1,,,,,,,,0,,,86,80
87780,note_on,0,0,3,,,,,,,,0,,,67,71
87780,note_on,0,0,3,,,,,,,,0,,,71,71
87780,note_on,24,0,3,,,,,,,,0,,,59,71
87780,note_on,0,0,3,,,,,,,,0,,,62,71
87792,note_on,32,0,1,,,,,,,,0,,,86,0
87800,note_on,8,0,1,,,,,,,,0,,,91,80
87816,note_on,96,0,2,,,,,,,,0,,,95,0
87832,note_on,32,0,1,,,,,,,,0,,,91,0
87840,note_on,24,0,2,,,,,,,,0,,,91,80
87840,note_on,8,0,1,,,,,,,,0,,,79,80
87872,note_on,32,0,1,,,,,,,,0,,,79,0
87876,note_on,96,0,3,,,,,,,,0,,,67,0
87876,note_on,0,0,3,,,,,,,,0,,,62,0
87876,note_on,0,0,3,,,,,,,,0,,,59,0
87876,note_on,0,0,3,,,,,,,,0,,,71,0
87880,note_on,8,0,1,,,,,,,,0,,,83,80
87900,note_on,0,0,3,,,,,,,,0,,,59,71
87900,note_on,0,0,3,,,,,,,,0,,,55,71
87900,note_on,24,0,3,,,,,,,,0,,,62,71
87900,note_on,0,0,3,,,,,,,,0,,,67,71
87912,note_on,32,0,1,,,,,,,,0,,,83,0
87920,note_on,8,0,1,,,,,,,,0,,,86,80
87936,note_on,96,0,2,,,,,,,,0,,,91,0
87952,note_on,32,0,1,,,,,,,,0,,,86,0
87960,note_on,24,0,2,,,,,,,,0,,,91,80
87960,note_on,8,0,1,,,,,,,,0,,,79,80
87984,note_on,363,0,4,,,,,,,,0,,,55,0
87984,note_on,0,0,4,,,,,,,,0,,,43,0
87992,note_on,32,0,1,,,,,,,,0,,,79,0
87996,note_on,96,0,3,,,,,,,,0,,,55,0
87996,note_on,0,0,3,,,,,,,,0,,,62,0
87996,note_on,0,0,3,,,,,,,,0,,,59,0
87996,note_on,0,0,3,,,,,,,,0,,,67,0
88000,note_on,8,0,1,,,,,,,,0,,,83,80
88020,note_on,0,0,3,,,,,,,,0,,,55,71
88020,note_on,0,0,3,,,,,,,,0,,,62,71
88020,note_on,0,0,3,,,,,,,,0,,,59,71
88020,note_on,24,0,3,,,,,,,,0,,,67,71
88032,note_on,32,0,1,,,,,,,,0,,,83,0
88040,note_on,8,0,1,,,,,,,,0,,,86,80
88056,note_on,96,0,2,,,,,,,,0,,,91,0
88068,note_on,0,0,3,,,,,,,,0,,,67,0
88068,note_on,0,0,3,,,,,,,,0,,,62,0
88068,note_on,0,0,3,,,,,,,,0,,,59,0
88068,note_on,48,0,3,,,,,,,,0,,,55,0
88072,note_on,32,0,1,,,,,,,,0,,,86,0
88080,note_on,24,0,2,,,,,,,,0,,,92,80
88080,note_on,96,0,4,,,,,,,,0,,,43,80
88080,note_on,8,0,1,,,,,,,,0,,,80,80
88080,control_change,0,0,4,,,,,,,,0,64,0,,
88099,control_change,19,0,4,,,,,,,,0,64,127,,
88112,note_on,32,0,1,,,,,,,,0,,,80,0
88120,note_on,8,0,1,,,,,,,,0,,,84,80
88140,note_on,72,0,3,,,,,,,,0,,,68,71
88140,note_on,0,0,3,,,,,,,,0,,,55,71
88140,note_on,0,0,3,,,,,,,,0,,,60,71
88140,note_on,0,0,3,,,,,,,,0,,,63,71
88152,note_on,32,0,1,,,,,,,,0,,,84,0
88160,note_on,8,0,1,,,,,,,,0,,,87,80
88176,note_on,96,0,2,,,,,,,,0,,,92,0
88192,note_on,32,0,1,,,,,,,,0,,,87,0
88200,note_on,24,0,2,,,,,,,,0,,,91,80
88200,note_on,8,0,1,,,,,,,,0,,,79,80
88232,note_on,32,0,1,,,,,,,,0,,,79,0
88236,note_on,0,0,3,,,,,,,,0,,,55,0
88236,note_on,96,0,3,,,,,,,,0,,,60,0
88236,note_on,0,0,3,,,,,,,,0,,,63,0
88236,note_on,0,0,3,,,,,,,,0,,,68,0
88240,note_on,8,0,1,,,,,,,,0,,,84,80
88260,note_on,24,0,3,,,,,,,,0,,,67,71
88260,note_on,0,0,3,,,,,,,,0,,,63,71
88260,note_on,0,0,3,,,,,,,,0,,,60,71
88260,note_on,0,0,3,,,,,,,,0,,,55,71
88272,note_on,32,0,1,,,,,,,,0,,,84,0
88280,note_on,8,0,1,,,,,,,,0,,,87,80
88296,note_on,96,0,2,,,,,,,,0,,,91,0
88312,note_on,32,0,1,,,,,,,,0,,,87,0
88320,note_on,24,0,2,,,,,,,,0,,,89,80
88320,note_on,8,0,1,,,,,,,,0,,,77,80
88352,note_on,32,0,1,,,,,,,,0,,,77,0
88356,note_on,0,0,3,,,,,,,,0,,,63,0
88356,note_on,0,0,3,,,,,,,,0,,,67,0
88356,note_on,96,0,3,,,,,,,,0,,,55,0
88356,note_on,0,0,3,,,,,,,,0,,,60,0
88360,note_on,8,0,1,,,,,,,,0,,,79,80
88380,note_on,24,0,3,,,,,,,,0,,,55,71
88380,note_on,0,0,3,,,,,,,,0,,,60,71
88380,note_on,0,0,3,,,,,,,,0,,,65,71
88392,note_on,32,0,1,,,,,,,,0,,,79,0
88400,note_on,8,0,1,,,,,,,,0,,,84,80
88416,note_on,96,0,2,,,,,,,,0,,,89,0
88432,note_on,32,0,1,,,,,,,,0,,,84,0
88440,note_on,8,0,1,,,,,,,,0,,,75,80
88440,note_on,24,0,2,,,,,,,,0,,,87,80
88464,note_on,365,0,4,,,,,,,,0,,,43,0
88472,note_on,32,0,1,,,,,,,,0,,,75,0
88476,note_on,0,0,3,,,,,,,,0,,,55,0
88476,note_on,96,0,3,,,,,,,,0,,,60,0
88476,note_on,0,0,3,,,,,,,,0,,,65,0
88480,note_on,8,0,1,,,,,,,,0,,,79,80
88500,note_on,0,0,3,,,,,,,,0,,,60,71
88500,note_on,0,0,3,,,,,,,,0,,,55,71
88500,note_on,24,0,3,,,,,,,,0,,,63,71
88512,note_on,32,0,1,,,,,,,,0,,,79,0
88520,note_on,8,0,1,,,,,,,,0,,,84,80
88536,note_on,96,0,2,,,,,,,,0,,,87,0
88548,note_on,48,0,3,,,,,,,,0,,,55,0
88548,note_on,0,0,3,,,,,,,,0,,,60,0
88548,note_on,0,0,3,,,,,,,,0,,,63,0
88552,note_on,32,0,1,,,,,,,,0,,,84,0
88560,control_change,0,0,4,,,,,,,,0,64,0,,
88560,note_on,96,0,4,,,,,,,,0,,,41,80
88560,note_on,8,0,1,,,,,,,,0,,,75,80
88560,note_on,24,0,2,,,,,,,,0,,,87,80
88579,control_change,19,0,4,,,,,,,,0,64,127,,
88592,note_on,32,0,1,,,,,,,,0,,,75,0
88600,note_on,8,0,1,,,,,,,,0,,,80,80
88620,note_on,72,0,3,,,,,,,,0,,,53,71
88620,note_on,0,0,3,,,,,,,,0,,,63,71
88620,note_on,0,0,3,,,,,,,,0,,,60,71
88620,note_on,0,0,3,,,,,,,,0,,,56,71
88632,note_on,32,0,1,,,,,,,,0,,,80,0
88640,note_on,8,0,1,,,,,,,,0,,,84,80
88656,note_on,96,0,2,,,,,,,,0,,,87,0
88672,note_on,32,0,1,,,,,,,,0,,,84,0
88680,note_on,8,0,1,,,,,,,,0,,,74,80
88680,note_on,24,0,2,,,,,,,,0,,,86,80
88712,note_on,32,0,1,,,,,,,,0,,,74,0
88716,note_on,0,0,3,,,,,,,,0,,,56,0
88716,note_on,0,0,3,,,,,,,,0,,,53,0
88716,note_on,96,0,3,,,,,,,,0,,,60,0
88716,note_on,0,0,3,,,,,,,,0,,,63,0
88720,note_on,8,0,1,,,,,,,,0,,,80,80
88740,note_on,0,0,3,,,,,,,,0,,,62,71
88740,note_on,0,0,3,,,,,,,,0,,,60,71
88740,note_on,24,0,3,,,,,,,,0,,,53,71
88740,note_on,0,0,3,,,,,,,,0,,,56,71
88752,note_on,32,0,1,,,,,,,,0,,,80,0
88760,note_on,8,0,1,,,,,,,,0,,,84,80
88776,note_on,96,0,2,,,,,,,,0,,,86,0
88792,note_on,32,0,1,,,,,,,,0,,,84,0
88800,note_on,8,0,1,,,,,,,,0,,,74,80
88800,note_on,24,0,2,,,,,,,,0,,,86,80
88832,note_on,32,0,1,,,,,,,,0,,,74,0
88836,note_on,96,0,3,,,,,,,,0,,,62,0
88836,note_on,0,0,3,,,,,,,,0,,,53,0
88836,note_on,0,0,3,,,,,,,,0,,,56,0
88836,note_on,0,0,3,,,,,,,,0,,,60,0
88840,note_on,8,0,1,,,,,,,,0,,,80,80
88860,note_on,0,0,3,,,,,,,,0,,,56,71
88860,note_on,24,0,3,,,,,,,,0,,,53,71
88860,note_on,0,0,3,,,,,,,,0,,,62,71
88860,note_on,0,0,3,,,,,,,,0,,,60,71
88872,note_on,32,0,1,,,,,,,,0,,,80,0
88880,note_on,8,0,1,,,,,,,,0,,,84,80
88896,note_on,96,0,2,,,,,,,,0,,,86,0
88912,note_on,32,0,1,,,,,,,,0,,,84,0
88920,note_on,8,0,1,,,,,,,,0,,,74,80
88920,note_on,24,0,2,,,,,,,,0,,,86,80
88944,note_on,365,0,4,,,,,,,,0,,,41,0
88952,note_on,32,0,1,,,,,,,,0,,,74,0
88956,note_on,0,0,3,,,,,,,,0,,,56,0
88956,note_on,0,0,3,,,,,,,,0,,,53,0
88956,note_on,0,0,3,,,,,,,,0,,,62,0
88956,note_on,96,0,3,,,,,,,,0,,,60,0
88960,note_on,8,0,1,,,,,,,,0,,,80,80
88980,note_on,0,0,3,,,,,,,,0,,,56,71
88980,note_on,0,0,3,,,,,,,,0,,,62,71
88980,note_on,0,0,3,,,,,,,,0,,,60,71
88980,note_on,24,0,3,,,,,,,,0,,,53,71
88992,note_on,32,0,1,,,,,,,,0,,,80,0
89000,note_on,8,0,1,,,,,,,,0,,,84,80
89016,note_on,96,0,2,,,,,,,,0,,,86,0
89028,note_on,0,0,3,,,,,,,,0,,,56,0
89028,note_on,48,0,3,,,,,,,,0,,,62,0
89028,note_on,0,0,3,,,,,,,,0,,,60,0
89028,note_on,0,0,3,,,,,,,,0,,,53,0
89032,note_on,32,0,1,,,,,,,,0,,,84,0
89040,note_on,24,0,2,,,,,,,,0,,,87,80
89040,note_on,96,0,4,,,,,,,,0,,,43,80
89040,note_on,8,0,1,,,,,,,,0,,,75,80
89040,control_change,0,0,4,,,,,,,,0,64,0,,
89059,control_change,19,0,4,,,,,,,,0,64,127,,
89072,note_on,32,0,1,,,,,,,,0,,,75,0
89080,note_on,8,0,1,,,,,,,,0,,,79,80
89100,note_on,0,0,3,,,,,,,,0,,,55,71
89100,note_on,0,0,3,,,,,,,,0,,,59,71
89100,note_on,72,0,3,,,,,,,,0,,,63,71
89112,note_on,32,0,1,,,,,,,,0,,,79,0
89120,note_on,8,0,1,,,,,,,,0,,,83,80
89136,note_on,96,0,2,,,,,,,,0,,,87,0
89152,note_on,32,0,1,,,,,,,,0,,,83,0
89160,note_on,24,0,2,,,,,,,,0,,,86,80
89160,note_on,8,0,1,,,,,,,,0,,,74,80
89192,note_on,32,0,1,,,,,,,,0,,,74,0
89196,note_on,0,0,3,,,,,,,,0,,,55,0
89196,note_on,96,0,3,,,,,,,,0,,,59,0
89196,note_on,0,0,3,,,,,,,,0,,,63,0
89200,note_on,8,0,1,,,,,,,,0,,,79,80
89220,note_on,0,0,3,,,,,,,,0,,,55,71
89220,note_on,0,0,3,,,,,,,,0,,,62,71
89220,note_on,24,0,3,,,,,,,,0,,,59,71
89232,note_on,32,0,1,,,,,,,,0,,,79,0
89240,note_on,8,0,1,,,,,,,,0,,,83,80
89256,note_on,96,0,2,,,,,,,,0,,,86,0
89272,note_on,32,0,1,,,,,,,,0,,,83,0
89280,note_on,24,0,2,,,,,,,,0,,,84,80
89280,note_on,8,0,1,,,,,,,,0,,,72,80
89312,note_on,32,0,1,,,,,,,,0,,,72,0
89316,note_on,96,0,3,,,,,,,,0,,,62,0
89316,note_on,0,0,3,,,,,,,,0,,,59,0
89316,note_on,0,0,3,,,,,,,,0,,,55,0
89320,note_on,8,0,1,,,,,,,,0,,,74,80
89340,note_on,24,0,3,,,,,,,,0,,,50,71
89340,note_on,0,0,3,,,,,,,,0,,,55,71
89340,note_on,0,0,3,,,,,,,,0,,,60,71
89352,note_on,32,0,1,,,,,,,,0,,,74,0
89360,note_on,8,0,1,,,,,,,,0,,,79,80
89376,note_on,96,0,2,,,,,,,,0,,,84,0
89392,note_on,32,0,1,,,,,,,,0,,,79,0
89400,note_on,24,0,2,,,,,,,,0,,,83,80
89400,note_on,8,0,1,,,,,,,,0,,,71,80
89424,note_on,365,0,4,,,,,,,,0,,,43,0
89432,note_on,32,0,1,,,,,,,,0,,,71,0
89436,note_on,0,0,3,,,,,,,,0,,,55,0
89436,note_on,0,0,3,,,,,,,,0,,,50,0
89436,note_on,96,0,3,,,,,,,,0,,,60,0
89440,note_on,8,0,1,,,,,,,,0,,,74,80
89460,note_on,0,0,3,,,,,,,,0,,,50,71
89460,note_on,0,0,3,,,,,,,,0,,,59,71
89460,note_on,24,0,3,,,,,,,,0,,,55,71
89472,note_on,32,0,1,,,,,,,,0,,,74,0
89480,note_on,8,0,1,,,,,,,,0,,,79,80
89496,note_on,96,0,2,,,,,,,,0,,,83,0
89508,note_on,48,0,3,,,,,,,,0,,,59,0
89508,note_on,0,0,3,,,,,,,,0,,,55,0
89508,note_on,0,0,3,,,,,,,,0,,,50,0
89512,note_on,32,0,1,,,,,,,,0,,,79,0
89520,control_change,0,0,4,,,,,,,,0,64,0,,
89520,note_on,96,0,4,,,,,,,,0,,,43,80
89520,note_on,8,0,1,,,,,,,,0,,,68,80
89520,note_on,24,0,2,,,,,,,,0,,,80,80
89539,control_change,19,0,4,,,,,,,,0,64,127,,
89552,note_on,32,0,1,,,,,,,,0,,,68,0
89560,note_on,8,0,1,,,,,,,,0,,,71,80
89580,note_on,0,0,3,,,,,,,,0,,,50,71
89580,note_on,0,0,3,,,,,,,,0,,,56,71
89580,note_on,72,0,3,,,,,,,,0,,,47,71
89592,note_on,32,0,1,,,,,,,,0,,,71,0
89600,note_on,8,0,1,,,,,,,,0,,,74,80
89616,note_on,96,0,2,,,,,,,,0,,,80,0
89632,note_on,32,0,1,,,,,,,,0,,,74,0
89640,note_on,24,0,2,,,,,,,,0,,,79,80
89640,note_on,8,0,1,,,,,,,,0,,,67,80
89672,note_on,32,0,1,,,,,,,,0,,,67,0
89676,note_on,0,0,3,,,,,,,,0,,,47,0
89676,note_on,0,0,3,,,,,,,,0,,,50,0
89676,note_on,96,0,3,,,,,,,,0,,,56,0
89680,note_on,8,0,1,,,,,,,,0,,,71,80
89700,note_on,0,0,3,,,,,,,,0,,,47,71
89700,note_on,0,0,3,,,,,,,,0,,,55,71
89700,note_on,24,0,3,,,,,,,,0,,,50,71
89712,note_on,32,0,1,,,,,,,,0,,,71,0
89720,note_on,8,0,1,,,,,,,,0,,,74,80
89736,note_on,96,0,2,,,,,,,,0,,,79,0
89752,note_on,32,0,1,,,,,,,,0,,,74,0
89760,note_on,24,0,2,,,,,,,,0,,,79,80
89760,note_on,8,0,1,,,,,,,,0,,,67,80
89792,note_on,32,0,1,,,,,,,,0,,,67,0
89796,note_on,0,0,3,,,,,,,,0,,,50,0
89796,note_on,0,0,3,,,,,,,,0,,,47,0
89796,note_on,96,0,3,,,,,,,,0,,,55,0
89800,note_on,8,0,1,,,,,,,,0,,,71,80
89820,note_on,24,0,3,,,,,,,,0,,,55,71
89820,note_on,0,0,3,,,,,,,,0,,,50,71
89820,note_on,0,0,3,,,,,,,,0,,,47,71
89832,note_on,32,0,1,,,,,,,,0,,,71,0
89840,note_on,8,0,1,,,,,,,,0,,,74,80
89856,note_on,96,0,2,,,,,,,,0,,,79,0
89872,note_on,32,0,1,,,,,,,,0,,,74,0
89880,note_on,24,0,2,,,,,,,,0,,,79,80
89880,note_on,8,0,1,,,,,,,,0,,,67,80
89904,note_on,365,0,4,,,,,,,,0,,,43,0
89912,note_on,32,0,1,,,,,,,,0,,,67,0
89916,note_on,96,0,3,,,,,,,,0,,,47,0
89916,note_on,0,0,3,,,,,,,,0,,,50,0
89916,note_on,0,0,3,,,,,,,,0,,,55,0
89920,note_on,8,0,1,,,,,,,,0,,,71,80
89940,note_on,24,0,3,,,,,,,,0,,,47,71
89940,note_on,0,0,3,,,,,,,,0,,,55,71
89940,note_on,0,0,3,,,,,,,,0,,,50,71
89952,note_on,32,0,1,,,,,,,,0,,,71,0
89960,note_on,8,0,1,,,,,,,,0,,,74,80
89976,note_on,96,0,2,,,,,,,,0,,,79,0
89988,note_on,0,0,3,,,,,,,,0,,,50,0
89988,note_on,48,0,3,,,,,,,,0,,,55,0
89988,note_on,0,0,3,,,,,,,,0,,,47,0
89992,note_on,32,0,1,,,,,,,,0,,,74,0
90000,control_change,0,0,4,,,,,,,,0,64,0,,
90000,note_on,96,0,4,,,,,,,,0,,,31,80
90000,note_on,8,0,1,,,,,,,,0,,,70,80
90000,note_on,24,0,2,,,,,,,,0,,,82,80
90021,control_change,21,0,4,,,,,,,,0,64,127,,
90032,note_on,32,0,1,,,,,,,,0,,,70,0
90040,note_on,8,0,1,,,,,,,,0,,,72,80
90060,note_on,0,0,3,,,,,,,,0,,,51,71
90060,note_on,0,0,3,,,,,,,,0,,,58,71
90060,note_on,72,0,3,,,,,,,,0,,,48,71
90072,note_on,32,0,1,,,,,,,,0,,,72,0
90080,note_on,8,0,1,,,,,,,,0,,,75,80
90096,note_on,96,0,2,,,,,,,,0,,,82,0
90112,note_on,32,0,1,,,,,,,,0,,,75,0
90120,note_on,8,0,1,,,,,,,,0,,,68,80
90120,note_on,24,0,2,,,,,,,,0,,,80,80
90152,note_on,32,0,1,,,,,,,,0,,,68,0
90156,note_on,0,0,3,,,,,,,,0,,,51,0
90156,note_on,96,0,3,,,,,,,,0,,,58,0
90156,note_on,0,0,3,,,,,,,,0,,,48,0
90160,note_on,8,0,1,,,,,,,,0,,,72,79
90180,note_on,0,0,3,,,,,,,,0,,,56,71
90180,note_on,0,0,3,,,,,,,,0,,,51,71
90180,note_on,24,0,3,,,,,,,,0,,,48,71
90192,note_on,32,0,1,,,,,,,,0,,,72,0
90200,note_on,8,0,1,,,,,,,,0,,,75,79
90216,note_on,96,0,2,,,,,,,,0,,,80,0
90232,note_on,32,0,1,,,,,,,,0,,,75,0
90240,note_on,8,0,1,,,,,,,,0,,,67,79
90240,note_on,24,0,2,,,,,,,,0,,,79,79
90272,note_on,32,0,1,,,,,,,,0,,,67,0
90276,note_on,0,0,3,,,,,,,,0,,,48,0
90276,note_on,96,0,3,,,,,,,,0,,,56,0
90276,note_on,0,0,3,,,,,,,,0,,,51,0
90280,note_on,8,0,1,,,,,,,,0,,,72,78
90300,note_on,24,0,3,,,,,,,,0,,,51,71
90300,note_on,0,0,3,,,,,,,,0,,,43,71
90300,note_on,0,0,3,,,,,,,,0,,,48,71
90300,note_on,0,0,3,,,,,,,,0,,,55,71
90312,note_on,32,0,1,,,,,,,,0,,,72,0
90320,note_on,8,0,1,,,,,,,,0,,,75,78
90336,note_on,96,0,2,,,,,,,,0,,,79,0
90352,note_on,32,0,1,,,,,,,,0,,,75,0
90360,note_on,24,0,2,,,,,,,,0,,,77,78
90360,note_on,8,0,1,,,,,,,,0,,,65,78
90384,note_on,363,0,4,,,,,,,,0,,,31,0
90392,note_on,32,0,1,,,,,,,,0,,,65,0
90396,note_on,0,0,3,,,,,,,,0,,,55,0
90396,note_on,0,0,3,,,,,,,,0,,,51,0
90396,note_on,96,0,3,,,,,,,,0,,,48,0
90396,note_on,0,0,3,,,,,,,,0,,,43,0
90400,note_on,8,0,1,,,,,,,,0,,,67,78
90420,note_on,0,0,3,,,,,,,,0,,,48,71
90420,note_on,24,0,3,,,,,,,,0,,,43,71
90420,note_on,0,0,3,,,,,,,,0,,,53,71
90432,note_on,32,0,1,,,,,,,,0,,,67,0
90440,note_on,8,0,1,,,,,,,,0,,,72,77
90456,note_on,96,0,2,,,,,,,,0,,,77,0
90468,note_on,48,0,3,,,,,,,,0,,,48,0
90468,note_on,0,0,3,,,,,,,,0,,,53,0
90468,note_on,0,0,3,,,,,,,,0,,,43,0
90472,note_on,32,0,1,,,,,,,,0,,,72,0
90480,note_on,8,0,1,,,,,,,,0,,,63,77
90480,note_on,96,0,4,,,,,,,,0,,,29,80
90480,control_change,0,0,4,,,,,,,,0,64,0,,
90480,note_on,24,0,2,,,,,,,,0,,,75,77
90508,control_change,28,0,4,,,,,,,,0,64,127,,
90512,note_on,32,0,1,,,,,,,,0,,,63,0
90520,note_on,8,0,1,,,,,,,,0,,,68,77
90540,note_on,0,0,3,,,,,,,,0,,,41,77
90540,note_on,0,0,3,,,,,,,,0,,,48,77
90540,note_on,0,0,3,,,,,,,,0,,,51,77
90540,note_on,72,0,3,,,,,,,,0,,,44,77
90552,note_on,32,0,1,,,,,,,,0,,,68,0
90560,note_on,8,0,1,,,,,,,,0,,,72,76
90576,note_on,96,0,2,,,,,,,,0,,,75,0
90592,note_on,32,0,1,,,,,,,,0,,,72,0
90600,note_on,24,0,2,,,,,,,,0,,,74,76
90600,note_on,8,0,1,,,,,,,,0,,,62,76
90632,note_on,32,0,1,,,,,,,,0,,,62,0
90636,note_on,0,0,3,,,,,,,,0,,,41,0
90636,note_on,0,0,3,,,,,,,,0,,,44,0
90636,note_on,0,0,3,,,,,,,,0,,,48,0
90636,note_on,96,0,3,,,,,,,,0,,,51,0
90640,note_on,8,0,1,,,,,,,,0,,,68,76
90660,note_on,0,0,3,,,,,,,,0,,,48,76
90660,note_on,24,0,3,,,,,,,,0,,,44,76
90660,note_on,0,0,3,,,,,,,,0,,,41,76
90660,note_on,0,0,3,,,,,,,,0,,,50,76
90672,note_on,32,0,1,,,,,,,,0,,,68,0
90680,note_on,8,0,1,,,,,,,,0,,,72,76
90696,note_on,96,0,2,,,,,,,,0,,,74,0
90712,note_on,32,0,1,,,,,,,,0,,,72,0
90720,note_on,8,0,1,,,,,,,,0,,,62,75
90720,note_on,24,0,2,,,,,,,,0,,,74,75
90752,note_on,32,0,1,,,,,,,,0,,,62,0
90756,note_on,96,0,3,,,,,,,,0,,,41,0
90756,note_on,0,0,3,,,,,,,,0,,,48,0
90756,note_on,0,0,3,,,,,,,,0,,,44,0
90756,note_on,0,0,3,,,,,,,,0,,,50,0
90760,note_on,8,0,1,,,,,,,,0,,,68,75
90780,note_on,0,0,3,,,,,,,,0,,,41,75
90780,note_on,0,0,3,,,,,,,,0,,,44,75
90780,note_on,0,0,3,,,,,,,,0,,,48,75
90780,note_on,24,0,3,,,,,,,,0,,,50,75
90792,note_on,32,0,1,,,,,,,,0,,,68,0
90800,note_on,8,0,1,,,,,,,,0,,,72,75
90816,note_on,96,0,2,,,,,,,,0,,,74,0
90832,note_on,32,0,1,,,,,,,,0,,,72,0
90840,note_on,24,0,2,,,,,,,,0,,,74,74
90840,note_on,8,0,1,,,,,,,,0,,,62,74
90864,note_on,356,0,4,,,,,,,,0,,,29,0
90872,note_on,32,0,1,,,,,,,,0,,,62,0
90876,note_on,0,0,3,,,,,,,,0,,,41,0
90876,note_on,0,0,3,,,,,,,,0,,,44,0
90876,note_on,96,0,3,,,,,,,,0,,,48,0
90876,note_on,0,0,3,,,,,,,,0,,,50,0
90880,note_on,8,0,1,,,,,,,,0,,,68,74
90900,note_on,24,0,3,,,,,,,,0,,,50,74
90900,note_on,0,0,3,,,,,,,,0,,,44,74
90900,note_on,0,0,3,,,,,,,,0,,,48,74
90900,note_on,0,0,3,,,,,,,,0,,,41,74
90912,note_on,32,0,1,,,,,,,,0,,,68,0
90920,note_on,8,0,1,,,,,,,,0,,,72,74
90936,note_on,96,0,2,,,,,,,,0,,,74,0
90948,note_on,0,0,3,,,,,,,,0,,,44,0
90948,note_on,0,0,3,,,,,,,,0,,,50,0
90948,note_on,0,0,3,,,,,,,,0,,,48,0
90948,note_on,48,0,3,,,,,,,,0,,,41,0
90952,note_on,32,0,1,,,,,,,,0,,,72,0
90960,control_change,96,0,4,,,,,,,,0,64,0,,
90960,note_on,24,0,2,,,,,,,,0,,,75,74
90960,note_on,8,0,1,,,,,,,,0,,,63,74
90960,note_on,0,0,4,,,,,,,,0,,,31,80
90988,control_change,28,0,4,,,,,,,,0,64,127,,
90992,note_on,32,0,1,,,,,,,,0,,,63,0
91000,note_on,8,0,1,,,,,,,,0,,,67,73
91020,note_on,72,0,3,,,,,,,,0,,,43,73
91020,note_on,0,0,3,,,,,,,,0,,,47,73
91020,note_on,0,0,3,,,,,,,,0,,,51,73
91032,note_on,32,0,1,,,,,,,,0,,,67,0
91040,note_on,8,0,1,,,,,,,,0,,,71,73
91056,note_on,96,0,2,,,,,,,,0,,,75,0
91072,note_on,32,0,1,,,,,,,,0,,,71,0
91080,note_on,8,0,1,,,,,,,,0,,,62,73
91080,note_on,24,0,2,,,,,,,,0,,,74,73
91112,note_on,32,0,1,,,,,,,,0,,,62,0
91116,note_on,96,0,3,,,,,,,,0,,,51,0
91116,note_on,0,0,3,,,,,,,,0,,,43,0
91116,note_on,0,0,3,,,,,,,,0,,,47,0
91120,note_on,8,0,1,,,,,,,,0,,,67,72
91140,note_on,0,0,3,,,,,,,,0,,,47,72
91140,note_on,0,0,3,,,,,,,,0,,,43,72
91140,note_on,24,0,3,,,,,,,,0,,,50,72
91152,note_on,32,0,1,,,,,,,,0,,,67,0
91160,note_on,8,0,1,,,,,,,,0,,,71,72
91176,note_on,96,0,2,,,,,,,,0,,,74,0
91192,note_on,32,0,1,,,,,,,,0,,,71,0
91200,note_on,24,0,2,,,,,,,,0,,,72,72
91200,note_on,8,0,1,,,,,,,,0,,,60,72
91232,note_on,32,0,1,,,,,,,,0,,,60,0
91236,note_on,0,0,3,,,,,,,,0,,,50,0
91236,note_on,96,0,3,,,,,,,,0,,,47,0
91236,note_on,0,0,3,,,,,,,,0,,,43,0
91240,note_on,8,0,1,,,,,,,,0,,,62,72
91260,note_on,0,0,3,,,,,,,,0,,,48,71
91260,note_on,0,0,3,,,,,,,,0,,,55,71
91260,note_on,24,0,3,,,,,,,,0,,,50,71
91272,note_on,32,0,1,,,,,,,,0,,,62,0
91280,note_on,8,0,1,,,,,,,,0,,,67,71
91296,note_on,96,0,2,,,,,,,,0,,,72,0
91312,note_on,32,0,1,,,,,,,,0,,,67,0
91320,note_on,24,0,2,,,,,,,,0,,,71,71
91320,note_on,8,0,1,,,,,,,,0,,,59,71
91344,note_on,356,0,4,,,,,,,,0,,,31,0
91352,note_on,32,0,1,,,,,,,,0,,,59,0
91356,note_on,0,0,3,,,,,,,,0,,,55,0
91356,note_on,0,0,3,,,,,,,,0,,,50,0
91356,note_on,96,0,3,,,,,,,,0,,,48,0
91360,note_on,8,0,1,,,,,,,,0,,,62,71
91380,note_on,24,0,3,,,,,,,,0,,,55,71
91380,note_on,0,0,3,,,,,,,,0,,,47,71
91380,note_on,0,0,3,,,,,,,,0,,,50,71
91392,note_on,32,0,1,,,,,,,,0,,,62,0
91400,note_on,8,0,1,,,,,,,,0,,,67,70
91416,note_on,96,0,2,,,,,,,,0,,,71,0
91428,note_on,48,0,3,,,,,,,,0,,,50,0
91428,note_on,0,0,3,,,,,,,,0,,,55,0
91428,note_on,0,0,3,,,,,,,,0,,,47,0
91432,note_on,32,0,1,,,,,,,,0,,,67,0
91440,note_on,24,0,2,,,,,,,,0,,,70,70
91440,note_on,8,0,1,,,,,,,,0,,,58,70
91440,control_change,0,0,4,,,,,,,,0,64,0,,
91440,note_on,96,0,4,,,,,,,,0,,,37,96
91461,control_change,21,0,4,,,,,,,,0,64,127,,
91472,note_on,32,0,1,,,,,,,,0,,,58,0
91480,note_on,8,0,1,,,,,,,,0,,,61,70
91500,note_on,0,0,3,,,,,,,,0,,,46,69
91500,note_on,72,0,3,,,,,,,,0,,,49,69
91500,note_on,0,0,3,,,,,,,,0,,,53,69
91512,note_on,32,0,1,,,,,,,,0,,,61,0
91520,note_on,8,0,1,,,,,,,,0,,,65,69
91536,note_on,96,0,2,,,,,,,,0,,,70,0
91552,note_on,32,0,1,,,,,,,,0,,,65,0
91560,note_on,8,0,1,,,,,,,,0,,,56,68
91560,note_on,24,0,2,,,,,,,,0,,,68,68
91592,note_on,32,0,1,,,,,,,,0,,,56,0
91596,note_on,0,0,3,,,,,,,,0,,,49,0
91596,note_on,0,0,3,,,,,,,,0,,,46,0
91596,note_on,96,0,3,,,,,,,,0,,,53,0
91600,note_on,8,0,1,,,,,,,,0,,,61,67
91620,note_on,0,0,3,,,,,,,,0,,,49,66
91620,note_on,0,0,3,,,,,,,,0,,,44,66
91620,note_on,24,0,3,,,,,,,,0,,,53,66
91632,note_on,32,0,1,,,,,,,,0,,,61,0
91632,note_on,171,0,4,,,,,,,,0,,,37,0
91640,note_on,8,0,1,,,,,,,,0,,,65,66
91656,note_on,96,0,2,,,,,,,,0,,,68,0
91672,note_on,32,0,1,,,,,,,,0,,,65,0
91680,note_on,48,0,4,,,,,,,,0,,,29,90
91680,note_on,24,0,2,,,,,,,,0,,,67,65
91680,note_on,8,0,1,,,,,,,,0,,,55,65
91712,note_on,32,0,1,,,,,,,,0,,,55,0
91716,note_on,96,0,3,,,,,,,,0,,,49,0
91716,note_on,0,0,3,,,,,,,,0,,,44,0
91716,note_on,0,0,3,,,,,,,,0,,,53,0
91720,note_on,8,0,1,,,,,,,,0,,,56,64
91740,note_on,0,0,3,,,,,,,,0,,,49,64
91740,note_on,24,0,3,,,,,,,,0,,,43,64
91740,note_on,0,0,3,,,,,,,,0,,,44,64
91752,note_on,32,0,1,,,,,,,,0,,,56,0
91760,note_on,8,0,1,,,,,,,,0,,,61,63
91776,note_on,96,0,2,,,,,,,,0,,,67,0
91792,note_on,32,0,1,,,,,,,,0,,,61,0
91800,note_on,8,0,1,,,,,,,,0,,,53,62
91800,note_on,24,0,2,,,,,,,,0,,,65,62
91832,note_on,32,0,1,,,,,,,,0,,,53,0
91836,note_on,96,0,3,,,,,,,,0,,,44,0
91836,note_on,0,0,3,,,,,,,,0,,,49,0
91836,note_on,0,0,3,,,,,,,,0,,,43,0
91840,note_on,8,0,1,,,,,,,,0,,,56,61
91860,note_on,24,0,3,,,,,,,,0,,,49,61
91860,note_on,0,0,3,,,,,,,,0,,,44,61
91860,note_on,0,0,3,,,,,,,,0,,,41,61
91872,note_on,192,0,4,,,,,,,,0,,,29,0
91872,note_on,32,0,1,,,,,,,,0,,,56,0
91880,note_on,8,0,1,,,,,,,,0,,,61,60
91896,note_on,96,0,2,,,,,,,,0,,,65,0
91908,note_on,0,0,3,,,,,,,,0,,,41,0
91908,note_on,48,0,3,,,,,,,,0,,,44,0
91908,note_on,0,0,3,,,,,,,,0,,,49,0
91912,note_on,32,0,1,,,,,,,,0,,,61,0
91920,note_on,24,0,2,,,,,,,,0,,,75,70
91920,note_on,0,0,4,,,,,,,,0,,,31,80
91920,note_on,8,0,1,,,,,,,,0,,,63,70
91920,control_change,48,0,4,,,,,,,,0,64,0,,
91936,control_change,16,0,4,,,,,,,,0,64,127,,
91940,set_tempo,7700,1,0,,,,,,575705,,,,,,
91952,note_on,32,0,1,,,,,,,,0,,,63,0
91960,note_on,8,0,1,,,,,,,,0,,,67,70
91966,set_tempo,26,1,0,,,,,,579822,,,,,,
91980,note_on,0,0,3,,,,,,,,0,,,51,70
91980,note_on,0,0,3,,,,,,,,0,,,47,70
91980,note_on,72,0,3,,,,,,,,0,,,43,70
91988,set_tempo,22,1,0,,,,,,583998,,,,,,
91992,note_on,32,0,1,,,,,,,,0,,,67,0
92000,note_on,8,0,1,,,,,,,,0,,,71,70
92010,set_tempo,22,1,0,,,,,,588235,,,,,,
92016,note_on,96,0,2,,,,,,,,0,,,75,0
92031,set_tempo,21,1,0,,,,,,592534,,,,,,
92032,note_on,32,0,1,,,,,,,,0,,,71,0
92040,note_on,24,0,2,,,,,,,,0,,,74,70
92040,note_on,8,0,1,,,,,,,,0,,,62,70
92053,set_tempo,22,1,0,,,,,,596896,,,,,,
92072,note_on,32,0,1,,,,,,,,0,,,62,0
92075,set_tempo,22,1,0,,,,,,601323,,,,,,
92076,note_on,0,0,3,,,,,,,,0,,,47,0
92076,note_on,0,0,3,,,,,,,,0,,,43,0
92076,note_on,96,0,3,,,,,,,,0,,,51,0
92080,note_on,8,0,1,,,,,,,,0,,,67,70
92097,set_tempo,22,1,0,,,,,,605816,,,,,,
92100,note_on,0,0,3,,,,,,,,0,,,47,70
92100,note_on,0,0,3,,,,,,,,0,,,43,70
92100,note_on,24,0,3,,,,,,,,0,,,50,70
92112,note_on,32,0,1,,,,,,,,0,,,67,0
92120,note_on,8,0,1,,,,,,,,0,,,71,70
92123,set_tempo,26,1,0,,,,,,610376,,,,,,
92136,note_on,96,0,2,,,,,,,,0,,,74,0
92145,set_tempo,22,1,0,,,,,,615006,,,,,,
92152,note_on,32,0,1,,,,,,,,0,,,71,0
92160,note_on,24,0,2,,,,,,,,0,,,72,70
92160,note_on,8,0,1,,,,,,,,0,,,60,70
92167,set_tempo,22,1,0,,,,,,619707,,,,,,
92189,set_tempo,22,1,0,,,,,,624480,,,,,,
92192,note_on,32,0,1,,,,,,,,0,,,60,0
92196,note_on,96,0,3,,,,,,,,0,,,43,0
92196,note_on,0,0,3,,,,,,,,0,,,47,0
92196,note_on,0,0,3,,,,,,,,0,,,50,0
92200,note_on,8,0,1,,,,,,,,0,,,62,70
92210,set_tempo,21,1,0,,,,,,629327,,,,,,
92220,note_on,24,0,3,,,,,,,,0,,,48,70
92220,note_on,0,0,3,,,,,,,,0,,,50,70
92220,note_on,0,0,3,,,,,,,,0,,,55,70
92232,set_tempo,22,1,0,,,,,,634249,,,,,,
92232,note_on,32,0,1,,,,,,,,0,,,62,0
92240,note_on,8,0,1,,,,,,,,0,,,67,70
92254,set_tempo,22,1,0,,,,,,639250,,,,,,
92256,note_on,96,0,2,,,,,,,,0,,,72,0
92272,note_on,32,0,1,,,,,,,,0,,,67,0
92280,note_on,24,0,2,,,,,,,,0,,,71,70
92280,note_on,8,0,1,,,,,,,,0,,,59,70
92280,set_tempo,26,1,0,,,,,,644330,,,,,,
92302,set_tempo,22,1,0,,,,,,649491,,,,,,
92304,note_on,368,0,4,,,,,,,,0,,,31,0
92312,note_on,32,0,1,,,,,,,,0,,,59,0
92316,note_on,96,0,3,,,,,,,,0,,,50,0
92316,note_on,0,0,3,,,,,,,,0,,,55,0
92316,note_on,0,0,3,,,,,,,,0,,,48,0
92320,note_on,8,0,1,,,,,,,,0,,,62,70
92324,set_tempo,22,1,0,,,,,,654736,,,,,,
92340,note_on,0,0,3,,,,,,,,0,,,55,70
92340,note_on,24,0,3,,,,,,,,0,,,50,70
92340,note_on,0,0,3,,,,,,,,0,,,47,70
92346,set_tempo,22,1,0,,,,,,660066,,,,,,
92352,note_on,32,0,1,,,,,,,,0,,,62,0
92360,note_on,8,0,1,,,,,,,,0,,,67,70
92367,set_tempo,21,1,0,,,,,,665484,,,,,,
92376,note_on,96,0,2,,,,,,,,0,,,71,0
92388,note_on,0,0,3,,,,,,,,0,,,50,0
92388,note_on,0,0,3,,,,,,,,0,,,47,0
92388,note_on,48,0,3,,,,,,,,0,,,55,0
92389,set_tempo,22,1,0,,,,,,670991,,,,,,
92392,note_on,32,0,1,,,,,,,,0,,,67,0
92400,control_change,0,0,4,,,,,,,,0,64,0,,
92400,note_on,96,0,4,,,,,,,,0,,,37,96
92400,note_on,24,0,2,,,,,,,,0,,,70,70
92400,note_on,8,0,1,,,,,,,,0,,,58,70
92411,set_tempo,22,1,0,,,,,,676590,,,,,,
92423,control_change,23,0,4,,,,,,,,0,64,127,,
92432,note_on,32,0,1,,,,,,,,0,,,58,0
92437,set_tempo,26,1,0,,,,,,682283,,,,,,
92440,note_on,8,0,1,,,,,,,,0,,,61,69
92459,set_tempo,22,1,0,,,,,,688073,,,,,,
92460,note_on,72,0,3,,,,,,,,0,,,46,70
92460,note_on,0,0,3,,,,,,,,0,,,49,70
92460,note_on,0,0,3,,,,,,,,0,,,53,70
92472,note_on,32,0,1,,,,,,,,0,,,61,0
92480,note_on,8,0,1,,,,,,,,0,,,65,67
92481,set_tempo,22,1,0,,,,,,693963,,,,,,
92496,note_on,96,0,2,,,,,,,,0,,,70,0
92503,set_tempo,22,1,0,,,,,,699953,,,,,,
92512,note_on,32,0,1,,,,,,,,0,,,65,0
92520,note_on,24,0,2,,,,,,,,0,,,68,65
92520,note_on,8,0,1,,,,,,,,0,,,56,65
92525,set_tempo,22,1,0,,,,,,706048,,,,,,
92546,set_tempo,21,1,0,,,,,,712251,,,,,,
92552,note_on,32,0,1,,,,,,,,0,,,56,0
92556,note_on,0,0,3,,,,,,,,0,,,46,0
92556,note_on,0,0,3,,,,,,,,0,,,53,0
92556,note_on,96,0,3,,,,,,,,0,,,49,0
92560,note_on,8,0,1,,,,,,,,0,,,61,63
92568,set_tempo,22,1,0,,,,,,718563,,,,,,
92580,note_on,0,0,3,,,,,,,,0,,,49,64
92580,note_on,0,0,3,,,,,,,,0,,,53,64
92580,note_on,24,0,3,,,,,,,,0,,,44,64
92592,note_on,169,0,4,,,,,,,,0,,,37,0
92592,note_on,32,0,1,,,,,,,,0,,,61,0
92594,set_tempo,26,1,0,,,,,,724988,,,,,,
92600,note_on,8,0,1,,,,,,,,0,,,65,61
92616,note_on,96,0,2,,,,,,,,0,,,68,0
92616,set_tempo,22,1,0,,,,,,731529,,,,,,
92632,note_on,32,0,1,,,,,,,,0,,,65,0
92638,set_tempo,22,1,0,,,,,,738189,,,,,,
92640,note_on,48,0,4,,,,,,,,0,,,29,85
92640,note_on,8,0,1,,,,,,,,0,,,55,60
92640,note_on,24,0,2,,,,,,,,0,,,67,60
92660,set_tempo,22,1,0,,,,,,744971,,,,,,
92672,note_on,32,0,1,,,,,,,,0,,,55,0
92676,note_on,0,0,3,,,,,,,,0,,,44,0
92676,note_on,0,0,3,,,,,,,,0,,,49,0
92676,note_on,96,0,3,,,,,,,,0,,,53,0
92680,note_on,8,0,1,,,,,,,,0,,,56,58
92682,set_tempo,22,1,0,,,,,,751880,,,,,,
92700,note_on,0,0,3,,,,,,,,0,,,49,57
92700,note_on,0,0,3,,,,,,,,0,,,44,57
92700,note_on,24,0,3,,,,,,,,0,,,43,57
92703,set_tempo,21,1,0,,,,,,758917,,,,,,
92712,note_on,32,0,1,,,,,,,,0,,,56,0
92720,note_on,8,0,1,,,,,,,,0,,,61,56
92725,set_tempo,22,1,0,,,,,,766088,,,,,,
92736,note_on,96,0,2,,,,,,,,0,,,67,0
92751,set_tempo,26,1,0,,,,,,773395,,,,,,
92752,note_on,32,0,1,,,,,,,,0,,,61,0
92760,note_on,8,0,1,,,,,,,,0,,,53,54
92760,note_on,24,0,2,,,,,,,,0,,,65,54
92773,set_tempo,22,1,0,,,,,,780843,,,,,,
92792,note_on,32,0,1,,,,,,,,0,,,53,0
92795,set_tempo,22,1,0,,,,,,788436,,,,,,
92796,note_on,0,0,3,,,,,,,,0,,,49,0
92796,note_on,0,0,3,,,,,,,,0,,,43,0
92796,note_on,96,0,3,,,,,,,,0,,,44,0
92800,note_on,8,0,1,,,,,,,,0,,,56,52
92817,set_tempo,22,1,0,,,,,,796178,,,,,,
92820,note_on,0,0,3,,,,,,,,0,,,41,50
92820,note_on,0,0,3,,,,,,,,0,,,44,50
92820,note_on,24,0,3,,,,,,,,0,,,49,50
92832,note_on,192,0,4,,,,,,,,0,,,29,0
92832,note_on,32,0,1,,,,,,,,0,,,56,0
92839,set_tempo,22,1,0,,,,,,804074,,,,,,
92840,note_on,8,0,1,,,,,,,,0,,,61,50
92856,note_on,96,0,2,,,,,,,,0,,,65,0
92861,set_tempo,22,1,0,,,,,,812128,,,,,,
92867,set_tempo,6,1,0,,,,,,804074,,,,,,
92868,note_on,0,0,3,,,,,,,,0,,,41,0
92868,note_on,48,0,3,,,,,,,,0,,,44,0
92868,note_on,0,0,3,,,,,,,,0,,,49,0
92871,set_tempo,4,1,0,,,,,,812128,,,,,,
92872,note_on,32,0,1,,,,,,,,0,,,61,0
92880,note_on,0,0,3,,,,,,,,0,,,67,70
92880,note_on,12,0,3,,,,,,,,0,,,55,70
92880,time_signature,9,1,0,6,8,12,8,,,,,,,,
92880,control_change,0,0,4,,,,,,,,0,64,0,,
92880,note_on,0,0,3,,,,,,,,0,,,59,70
92880,note_on,48,0,4,,,,,,,,0,,,43,70
92880,note_on,0,0,4,,,,,,,,0,,,50,70
92906,set_tempo,26,1,0,,,,,,438661,,,,,,
92910,set_tempo,4,1,0,,,,,,510465,,,,,,
92914,set_tempo,4,1,0,,,,,,507271,,,,,,
92940,set_tempo,26,1,0,,,,,,504117,,,,,,
92966,set_tempo,26,1,0,,,,,,501002,,,,,,
92976,note_on,96,0,3,,,,,,,,0,,,59,0
92976,note_on,96,0,4,,,,,,,,0,,,50,0
92976,note_on,0,0,3,,,,,,,,0,,,67,0
92976,note_on,0,0,3,,,,,,,,0,,,55,0
92976,note_on,0,0,4,,,,,,,,0,,,43,0
92997,set_tempo,31,1,0,,,,,,497925,,,,,,
93000,note_on,0,0,4,,,,,,,,0,,,38,79
93000,control_change,24,0,4,,,,,,,,0,64,127,,
93000,note_on,24,0,3,,,,,,,,0,,,50,54
93023,set_tempo,26,1,0,,,,,,494886,,,,,,
93024,note_on,24,0,3,,,,,,,,0,,,50,0
93030,note_on,6,0,3,,,,,,,,0,,,43,54
93049,set_tempo,26,1,0,,,,,,491884,,,,,,
93054,note_on,24,0,3,,,,,,,,0,,,43,0
93060,note_on,6,0,3,,,,,,,,0,,,45,54
93080,set_tempo,31,1,0,,,,,,488918,,,,,,
93084,note_on,24,0,3,,,,,,,,0,,,45,0
93090,note_on,6,0,3,,,,,,,,0,,,47,54
93096,note_on,96,0,4,,,,,,,,0,,,38,0
93106,set_tempo,26,1,0,,,,,,485987,,,,,,
93114,note_on,24,0,3,,,,,,,,0,,,47,0
93120,note_on,24,0,4,,,,,,,,0,,,36,79
93120,note_on,6,0,3,,,,,,,,0,,,48,54
93132,set_tempo,26,1,0,,,,,,483092,,,,,,
93144,note_on,24,0,3,,,,,,,,0,,,48,0
93150,note_on,6,0,3,,,,,,,,0,,,50,54
93163,set_tempo,31,1,0,,,,,,480231,,,,,,
93174,note_on,24,0,3,,,,,,,,0,,,50,0
93180,note_on,6,0,3,,,,,,,,0,,,43,54
93189,set_tempo,26,1,0,,,,,,477403,,,,,,
93204,note_on,24,0,3,,,,,,,,0,,,43,0
93210,note_on,6,0,3,,,,,,,,0,,,45,54
93215,set_tempo,26,1,0,,,,,,474608,,,,,,
93216,note_on,96,0,4,,,,,,,,0,,,36,0
93234,note_on,24,0,3,,,,,,,,0,,,45,0
93240,note_on,6,0,3,,,,,,,,0,,,47,54
93240,note_on,24,0,4,,,,,,,,0,,,35,79
93246,set_tempo,31,1,0,,,,,,471846,,,,,,
93264,note_on,24,0,3,,,,,,,,0,,,47,0
93270,note_on,6,0,3,,,,,,,,0,,,48,54
93272,set_tempo,26,1,0,,,,,,469116,,,,,,
93294,note_on,24,0,3,,,,,,,,0,,,48,0
93300,note_on,6,0,3,,,,,,,,0,,,50,54
93302,set_tempo,30,1,0,,,,,,466418,,,,,,
93324,note_on,24,0,3,,,,,,,,0,,,50,0
93328,set_tempo,26,1,0,,,,,,463750,,,,,,
93330,note_on,6,0,3,,,,,,,,0,,,43,54
93336,note_on,96,0,4,,,,,,,,0,,,35,0
93354,note_on,24,0,3,,,,,,,,0,,,43,0
93355,set_tempo,27,1,0,,,,,,461113,,,,,,
93360,note_on,6,0,3,,,,,,,,0,,,45,54
93360,note_on,24,0,4,,,,,,,,0,,,32,79
93384,note_on,24,0,3,,,,,,,,0,,,45,0
93385,set_tempo,30,1,0,,,,,,458505,,,,,,
93390,note_on,6,0,3,,,,,,,,0,,,47,54
93411,set_tempo,26,1,0,,,,,,455927,,,,,,
93414,note_on,24,0,3,,,,,,,,0,,,47,0
93420,note_on,6,0,3,,,,,,,,0,,,48,54
93438,set_tempo,27,1,0,,,,,,453378,,,,,,
93444,note_on,24,0,3,,,,,,,,0,,,48,0
93450,note_on,6,0,3,,,,,,,,0,,,50,54
93456,note_on,96,0,4,,,,,,,,0,,,32,0
93459,control_change,3,0,4,,,,,,,,0,64,0,,
93468,set_tempo,30,1,0,,,,,,450857,,,,,,
93474,note_on,24,0,3,,,,,,,,0,,,50,0
93480,note_on,6,0,3,,,,,,,,0,,,43,64
93480,note_on,21,0,4,,,,,,,,0,,,31,79
93494,set_tempo,26,1,0,,,,,,448363,,,,,,
93520,set_tempo,26,1,0,,,,,,445898,,,,,,
93551,set_tempo,31,1,0,,,,,,443459,,,,,,
93576,note_on,96,0,3,,,,,,,,0,,,43,0
93576,note_on,96,0,4,,,,,,,,0,,,31,0
93577,set_tempo,26,1,0,,,,,,441047,,,,,,
93600,note_on,24,0,4,,,,,,,,0,,,44,79
93600,note_on,24,0,3,,,,,,,,0,,,56,64
93602,control_change,2,0,4,,,,,,,,0,64,127,,
93608,set_tempo,31,1,0,,,,,,443459,,,,,,
93624,note_on,24,0,3,,,,,,,,0,,,56,0
93630,note_on,6,0,3,,,,,,,,0,,,49,64
93643,set_tempo,35,1,0,,,,,,445898,,,,,,
93654,note_on,24,0,3,,,,,,,,0,,,49,0
93660,note_on,6,0,3,,,,,,,,0,,,51,64
93678,set_tempo,35,1,0,,,,,,448363,,,,,,
93684,note_on,24,0,3,,,,,,,,0,,,51,0
93690,note_on,6,0,3,,,,,,,,0,,,53,64
93696,note_on,94,0,4,,,,,,,,0,,,44,0
93712,set_tempo,34,1,0,,,,,,450857,,,,,,
93714,note_on,24,0,3,,,,,,,,0,,,53,0
93720,note_on,24,0,4,,,,,,,,0,,,43,79
93720,note_on,6,0,3,,,,,,,,0,,,55,64
93744,note_on,24,0,3,,,,,,,,0,,,55,0
93747,set_tempo,35,1,0,,,,,,453378,,,,,,
93750,note_on,6,0,3,,,,,,,,0,,,56,64
93774,note_on,24,0,3,,,,,,,,0,,,56,0
93780,note_on,6,0,3,,,,,,,,0,,,49,64
93787,set_tempo,40,1,0,,,,,,455927,,,,,,
93804,note_on,24,0,3,,,,,,,,0,,,49,0
93810,note_on,6,0,3,,,,,,,,0,,,51,64
93816,note_on,96,0,4,,,,,,,,0,,,43,0
93822,set_tempo,35,1,0,,,,,,458505,,,,,,
93834,note_on,24,0,3,,,,,,,,0,,,51,0
93840,note_on,6,0,3,,,,,,,,0,,,53,64
93840,note_on,24,0,4,,,,,,,,0,,,41,79
93856,set_tempo,34,1,0,,,,,,461113,,,,,,
93864,note_on,24,0,3,,,,,,,,0,,,53,0
93870,note_on,6,0,3,,,,,,,,0,,,55,64
93891,set_tempo,35,1,0,,,,,,463750,,,,,,
93894,note_on,24,0,3,,,,,,,,0,,,55,0
93900,note_on,6,0,3,,,,,,,,0,,,56,64
93924,note_on,24,0,3,,,,,,,,0,,,56,0
93926,set_tempo,35,1,0,,,,,,466418,,,,,,
93930,note_on,6,0,3,,,,,,,,0,,,49,64
93936,note_on,96,0,4,,,,,,,,0,,,41,0
93954,note_on,24,0,3,,,,,,,,0,,,49,0
93960,note_on,6,0,3,,,,,,,,0,,,51,64
93960,note_on,24,0,4,,,,,,,,0,,,39,79
93966,set_tempo,40,1,0,,,,,,469116,,,,,,
93984,note_on,24,0,3,,,,,,,,0,,,51,0
93990,note_on,6,0,3,,,,,,,,0,,,53,64
94000,set_tempo,34,1,0,,,,,,471846,,,,,,
94014,note_on,24,0,3,,,,,,,,0,,,53,0
94020,note_on,6,0,3,,,,,,,,0,,,55,64
94035,set_tempo,35,1,0,,,,,,474608,,,,,,
94044,note_on,24,0,3,,,,,,,,0,,,55,0
94050,note_on,6,0,3,,,,,,,,0,,,56,64
94056,note_on,96,0,4,,,,,,,,0,,,39,0
94064,control_change,8,0,4,,,,,,,,0,64,0,,
94070,set_tempo,35,1,0,,,,,,477403,,,,,,
94074,note_on,24,0,3,,,,,,,,0,,,56,0
94080,note_on,16,0,4,,,,,,,,0,,,37,79
94080,note_on,6,0,3,,,,,,,,0,,,49,72
94105,set_tempo,35,1,0,,,,,,480231,,,,,,
94144,set_tempo,39,1,0,,,,,,483092,,,,,,
94176,note_on,96,0,4,,,,,,,,0,,,37,0
94176,note_on,96,0,3,,,,,,,,0,,,49,0
94179,set_tempo,35,1,0,,,,,,485987,,,,,,
94200,note_on,24,0,4,,,,,,,,0,,,49,80
94200,note_on,0,0,4,,,,,,,,0,,,53,80
94200,note_on,24,0,3,,,,,,,,0,,,65,80
94200,note_on,0,0,3,,,,,,,,0,,,56,80
94200,note_on,0,0,3,,,,,,,,0,,,61,80
94214,set_tempo,35,1,0,,,,,,488918,,,,,,
94249,set_tempo,35,1,0,,,,,,491884,,,,,,
94284,set_tempo,35,1,0,,,,,,494886,,,,,,
94296,note_on,96,0,4,,,,,,,,0,,,53,0
94296,note_on,0,0,3,,,,,,,,0,,,61,0
94296,note_on,96,0,3,,,,,,,,0,,,56,0
94296,note_on,0,0,4,,,,,,,,0,,,49,0
94296,note_on,0,0,3,,,,,,,,0,,,65,0
94305,set_tempo,21,1,0,,,,,,494886,,,,,,
94320,note_on,0,0,4,,,,,,,,0,,,50,80
94320,note_on,0,0,3,,,,,,,,0,,,67,80
94320,note_on,24,0,4,,,,,,,,0,,,43,80
94320,note_on,0,0,3,,,,,,,,0,,,55,80
94320,note_on,24,0,3,,,,,,,,0,,,59,80
94320,control_change,0,0,4,,,,,,,,0,64,127,,
94340,set_tempo,35,1,0,,,,,,491884,,,,,,
94375,set_tempo,35,1,0,,,,,,488918,,,,,,
94410,set_tempo,35,1,0,,,,,,485987,,,,,,
94416,note_on,96,0,4,,,,,,,,0,,,50,0
94416,note_on,96,0,3,,,,,,,,0,,,67,0
94416,note_on,0,0,4,,,,,,,,0,,,43,0
94416,note_on,0,0,3,,,,,,,,0,,,55,0
94416,note_on,0,0,3,,,,,,,,0,,,59,0
94440,note_on,24,0,3,,,,,,,,0,,,50,54
94440,note_on,24,0,4,,,,,,,,0,,,38,79
94445,set_tempo,35,1,0,,,,,,483092,,,,,,
94464,note_on,24,0,3,,,,,,,,0,,,50,0
94470,note_on,6,0,3,,,,,,,,0,,,43,54
94480,set_tempo,35,1,0,,,,,,480231,,,,,,
94494,note_on,24,0,3,,,,,,,,0,,,43,0
94500,note_on,6,0,3,,,,,,,,0,,,45,54
94510,set_tempo,30,1,0,,,,,,477403,,,,,,
94524,note_on,24,0,3,,,,,,,,0,,,45,0
94530,note_on,6,0,3,,,,,,,,0,,,47,54
94536,note_on,96,0,4,,,,,,,,0,,,38,0
94545,set_tempo,35,1,0,,,,,,474608,,,,,,
94554,note_on,24,0,3,,,,,,,,0,,,47,0
94560,note_on,6,0,3,,,,,,,,0,,,48,54
94560,note_on,24,0,4,,,,,,,,0,,,36,79
94580,set_tempo,35,1,0,,,,,,471846,,,,,,
94584,note_on,24,0,3,,,,,,,,0,,,48,0
94590,note_on,6,0,3,,,,,,,,0,,,50,54
94614,note_on,24,0,3,,,,,,,,0,,,50,0
94615,set_tempo,35,1,0,,,,,,469116,,,,,,
94620,note_on,6,0,3,,,,,,,,0,,,43,54
94644,note_on,24,0,3,,,,,,,,0,,,43,0
94650,note_on,6,0,3,,,,,,,,0,,,45,54
94650,set_tempo,35,1,0,,,,,,466418,,,,,,
94656,note_on,96,0,4,,,,,,,,0,,,36,0
94674,note_on,24,0,3,,,,,,,,0,,,45,0
94680,note_on,6,0,3,,,,,,,,0,,,47,54
94680,note_on,24,0,4,,,,,,,,0,,,35,79
94681,set_tempo,31,1,0,,,,,,463750,,,,,,
94704,note_on,24,0,3,,,,,,,,0,,,47,0
94710,note_on,6,0,3,,,,,,,,0,,,48,54
94715,set_tempo,34,1,0,,,,,,461113,,,,,,
94734,note_on,24,0,3,,,,,,,,0,,,48,0
94740,note_on,6,0,3,,,,,,,,0,,,50,54
94750,set_tempo,35,1,0,,,,,,458505,,,,,,
94764,note_on,24,0,3,,,,,,,,0,,,50,0
94770,note_on,6,0,3,,,,,,,,0,,,43,54
94776,note_on,96,0,4,,,,,,,,0,,,35,0
94785,set_tempo,35,1,0,,,,,,455927,,,,,,
94794,note_on,24,0,3,,,,,,,,0,,,43,0
94800,note_on,24,0,4,,,,,,,,0,,,32,79
94800,note_on,6,0,3,,,,,,,,0,,,45,54
94820,set_tempo,35,1,0,,,,,,453378,,,,,,
94824,note_on,24,0,3,,,,,,,,0,,,45,0
94830,note_on,6,0,3,,,,,,,,0,,,47,54
94851,set_tempo,31,1,0,,,,,,450857,,,,,,
94854,note_on,24,0,3,,,,,,,,0,,,47,0
94860,note_on,6,0,3,,,,,,,,0,,,48,54
94884,note_on,24,0,3,,,,,,,,0,,,48,0
94886,set_tempo,35,1,0,,,,,,448363,,,,,,
94888,control_change,88,0,4,,,,,,,,0,64,0,,
94890,note_on,6,0,3,,,,,,,,0,,,50,54
94896,note_on,8,0,4,,,,,,,,0,,,32,0
94914,note_on,24,0,3,,,,,,,,0,,,50,0
94920,note_on,6,0,3,,,,,,,,0,,,43,64
94920,note_on,24,0,4,,,,,,,,0,,,31,79
94921,set_tempo,35,1,0,,,,,,445898,,,,,,
94955,set_tempo,34,1,0,,,,,,443459,,,,,,
94990,set_tempo,35,1,0,,,,,,441047,,,,,,
95016,note_on,96,0,4,,,,,,,,0,,,31,0
95016,note_on,96,0,3,,,,,,,,0,,,43,0
95021,set_tempo,31,1,0,,,,,,438661,,,,,,
95040,note_on,24,0,3,,,,,,,,0,,,56,54
95040,control_change,0,0,4,,,,,,,,0,64,127,,
95040,note_on,24,0,4,,,,,,,,0,,,44,79
95047,set_tempo,26,1,0,,,,,,441047,,,,,,
95051,set_tempo,4,1,0,,,,,,443459,,,,,,
95064,note_on,24,0,3,,,,,,,,0,,,56,0
95070,note_on,6,0,3,,,,,,,,0,,,49,54
95078,set_tempo,27,1,0,,,,,,445898,,,,,,
95094,note_on,24,0,3,,,,,,,,0,,,49,0
95100,note_on,6,0,3,,,,,,,,0,,,51,54
95108,set_tempo,30,1,0,,,,,,448363,,,,,,
95124,note_on,24,0,3,,,,,,,,0,,,51,0
95130,note_on,6,0,3,,,,,,,,0,,,53,54
95136,note_on,96,0,4,,,,,,,,0,,,44,0
95139,set_tempo,31,1,0,,,,,,450857,,,,,,
95154,note_on,24,0,3,,,,,,,,0,,,53,0
95160,note_on,24,0,4,,,,,,,,0,,,43,79
95160,note_on,6,0,3,,,,,,,,0,,,55,54
95165,set_tempo,26,1,0,,,,,,453378,,,,,,
95184,note_on,24,0,3,,,,,,,,0,,,55,0
95190,note_on,6,0,3,,,,,,,,0,,,56,54
95195,set_tempo,30,1,0,,,,,,455927,,,,,,
95214,note_on,24,0,3,,,,,,,,0,,,56,0
95220,note_on,6,0,3,,,,,,,,0,,,49,54
95226,set_tempo,31,1,0,,,,,,458505,,,,,,
95244,note_on,24,0,3,,,,,,,,0,,,49,0
95250,note_on,6,0,3,,,,,,,,0,,,51,54
95252,set_tempo,26,1,0,,,,,,461113,,,,,,
95256,note_on,96,0,4,,,,,,,,0,,,43,0
95274,note_on,24,0,3,,,,,,,,0,,,51,0
95280,note_on,6,0,3,,,,,,,,0,,,53,54
95280,note_on,24,0,4,,,,,,,,0,,,41,79
95283,set_tempo,31,1,0,,,,,,463750,,,,,,
95304,note_on,24,0,3,,,,,,,,0,,,53,0
95310,note_on,6,0,3,,,,,,,,0,,,55,54
95313,set_tempo,30,1,0,,,,,,466418,,,,,,
95334,note_on,24,0,3,,,,,,,,0,,,55,0
95339,set_tempo,26,1,0,,,,,,469116,,,,,,
95340,note_on,6,0,3,,,,,,,,0,,,56,54
95364,note_on,24,0,3,,,,,,,,0,,,56,0
95370,note_on,6,0,3,,,,,,,,0,,,49,54
95370,set_tempo,31,1,0,,,,,,471846,,,,,,
95376,note_on,96,0,4,,,,,,,,0,,,41,0
95394,note_on,24,0,3,,,,,,,,0,,,49,0
95400,note_on,6,0,3,,,,,,,,0,,,51,54
95400,set_tempo,30,1,0,,,,,,474608,,,,,,
95400,note_on,24,0,4,,,,,,,,0,,,39,79
95424,note_on,24,0,3,,,,,,,,0,,,51,0
95427,set_tempo,27,1,0,,,,,,477403,,,,,,
95430,note_on,6,0,3,,,,,,,,0,,,53,54
95454,note_on,24,0,3,,,,,,,,0,,,53,0
95457,set_tempo,30,1,0,,,,,,480231,,,,,,
95460,note_on,6,0,3,,,,,,,,0,,,55,54
95484,note_on,24,0,3,,,,,,,,0,,,55,0
95488,set_tempo,31,1,0,,,,,,483092,,,,,,
95490,note_on,6,0,3,,,,,,,,0,,,56,54
95496,note_on,96,0,4,,,,,,,,0,,,39,0
95499,control_change,3,0,4,,,,,,,,0,64,0,,
95514,note_on,24,0,3,,,,,,,,0,,,56,0
95514,set_tempo,26,1,0,,,,,,485987,,,,,,
95520,note_on,21,0,4,,,,,,,,0,,,37,79
95520,note_on,6,0,3,,,,,,,,0,,,49,72
95544,set_tempo,30,1,0,,,,,,488918,,,,,,
95575,set_tempo,31,1,0,,,,,,491884,,,,,,
95601,set_tempo,26,1,0,,,,,,494886,,,,,,
95616,note_on,96,0,4,,,,,,,,0,,,37,0
95616,note_on,96,0,3,,,,,,,,0,,,49,0
95632,set_tempo,31,1,0,,,,,,497925,,,,,,
95640,note_on,0,0,4,,,,,,,,0,,,53,80
95640,note_on,0,0,3,,,,,,,,0,,,56,80
95640,note_on,24,0,4,,,,,,,,0,,,49,80
95640,note_on,24,0,3,,,,,,,,0,,,65,80
95640,note_on,0,0,3,,,,,,,,0,,,61,80
95662,set_tempo,30,1,0,,,,,,501002,,,,,,
95688,set_tempo,26,1,0,,,,,,504117,,,,,,
95719,set_tempo,31,1,0,,,,,,507271,,,,,,
95736,note_on,0,0,4,,,,,,,,0,,,49,0
95736,note_on,0,0,3,,,,,,,,0,,,61,0
95736,note_on,0,0,3,,,,,,,,0,,,65,0
95736,note_on,96,0,4,,,,,,,,0,,,53,0
95736,note_on,96,0,3,,,,,,,,0,,,56,0
95747,set_tempo,28,1,0,,,,,,501002,,,,,,
95754,set_tempo,7,1,0,,,,,,504117,,,,,,
95758,set_tempo,4,1,0,,,,,,504117,,,,,,
95760,note_on,24,0,4,,,,,,,,0,,,44,80
95760,note_on,0,0,4,,,,,,,,0,,,51,80
95760,control_change,0,0,4,,,,,,,,0,64,127,,
95760,note_on,0,0,2,,,,,,,,0,,,68,80
95760,note_on,2904,0,2,,,,,,,,0,,,56,80
95760,note_on,0,0,2,,,,,,,,0,,,60,80
95793,set_tempo,35,1,0,,,,,,501002,,,,,,
95824,set_tempo,31,1,0,,,,,,497925,,,,,,
95856,note_on,96,0,4,,,,,,,,0,,,51,0
95856,note_on,0,0,2,,,,,,,,0,,,60,0
95856,note_on,0,0,2,,,,,,,,0,,,56,0
95856,note_on,0,0,4,,,,,,,,0,,,44,0
95856,note_on,96,0,2,,,,,,,,0,,,68,0
95859,set_tempo,35,1,0,,,,,,494886,,,,,,
95880,note_on,24,0,4,,,,,,,,0,,,39,80
95880,note_on,144,0,3,,,,,,,,0,,,51,62
95889,set_tempo,30,1,0,,,,,,491884,,,,,,
95904,note_on,24,0,3,,,,,,,,0,,,51,0
95910,note_on,6,0,3,,,,,,,,0,,,44,62
95924,set_tempo,35,1,0,,,,,,488918,,,,,,
95934,note_on,24,0,3,,,,,,,,0,,,44,0
95940,note_on,6,0,3,,,,,,,,0,,,46,62
95955,set_tempo,31,1,0,,,,,,485987,,,,,,
95964,note_on,24,0,3,,,,,,,,0,,,46,0
95970,note_on,6,0,3,,,,,,,,0,,,48,62
95976,note_on,96,0,4,,,,,,,,0,,,39,0
95990,set_tempo,35,1,0,,,,,,483092,,,,,,
95994,note_on,24,0,3,,,,,,,,0,,,48,0
96000,note_on,6,0,3,,,,,,,,0,,,49,62
96000,note_on,24,0,4,,,,,,,,0,,,37,80
96020,set_tempo,30,1,0,,,,,,480231,,,,,,
96024,note_on,24,0,3,,,,,,,,0,,,49,0
96030,note_on,6,0,3,,,,,,,,0,,,51,62
96054,note_on,24,0,3,,,,,,,,0,,,51,0
96055,set_tempo,35,1,0,,,,,,477403,,,,,,
96060,note_on,6,0,3,,,,,,,,0,,,44,62
96084,note_on,24,0,3,,,,,,,,0,,,44,0
96086,set_tempo,31,1,0,,,,,,474608,,,,,,
96090,note_on,6,0,3,,,,,,,,0,,,46,62
96096,note_on,96,0,4,,,,,,,,0,,,37,0
96114,note_on,24,0,3,,,,,,,,0,,,46,0
96120,note_on,24,0,4,,,,,,,,0,,,36,80
96120,note_on,6,0,3,,,,,,,,0,,,48,62
96121,set_tempo,35,1,0,,,,,,471846,,,,,,
96144,note_on,24,0,3,,,,,,,,0,,,48,0
96150,note_on,6,0,3,,,,,,,,0,,,49,62
96151,set_tempo,30,1,0,,,,,,469116,,,,,,
96174,note_on,24,0,3,,,,,,,,0,,,49,0
96180,note_on,6,0,3,,,,,,,,0,,,51,62
96186,set_tempo,35,1,0,,,,,,466418,,,,,,
96204,note_on,24,0,3,,,,,,,,0,,,51,0
96210,note_on,6,0,3,,,,,,,,0,,,44,62
96216,note_on,96,0,4,,,,,,,,0,,,36,0
96217,set_tempo,31,1,0,,,,,,463750,,,,,,
96234,note_on,24,0,3,,,,,,,,0,,,44,0
96240,note_on,6,0,3,,,,,,,,0,,,46,62
96240,note_on,24,0,4,,,,,,,,0,,,34,80
96251,set_tempo,34,1,0,,,,,,461113,,,,,,
96264,note_on,24,0,3,,,,,,,,0,,,46,0
96270,note_on,6,0,3,,,,,,,,0,,,48,62
96282,set_tempo,31,1,0,,,,,,458505,,,,,,
96294,note_on,24,0,3,,,,,,,,0,,,48,0
96300,note_on,6,0,3,,,,,,,,0,,,49,62
96317,set_tempo,35,1,0,,,,,,455927,,,,,,
96324,note_on,24,0,3,,,,,,,,0,,,49,0
96330,note_on,6,0,3,,,,,,,,0,,,51,62
96332,control_change,92,0,4,,,,,,,,0,64,0,,
96336,note_on,4,0,4,,,,,,,,0,,,34,0
96347,set_tempo,30,1,0,,,,,,453378,,,,,,
96354,note_on,24,0,3,,,,,,,,0,,,51,0
96360,note_on,6,0,3,,,,,,,,0,,,44,80
96360,note_on,24,0,4,,,,,,,,0,,,32,80
96382,set_tempo,35,1,0,,,,,,450857,,,,,,
96413,set_tempo,31,1,0,,,,,,448363,,,,,,
96448,set_tempo,35,1,0,,,,,,445898,,,,,,
96456,note_on,96,0,3,,,,,,,,0,,,44,0
96456,note_on,96,0,4,,,,,,,,0,,,32,0
96478,set_tempo,30,1,0,,,,,,443459,,,,,,
96480,note_on,0,0,4,,,,,,,,0,,,44,80
96480,note_on,24,0,3,,,,,,,,0,,,56,62
96480,control_change,24,0,4,,,,,,,,0,64,127,,
96487,set_tempo,9,1,0,,,,,,443459,,,,,,
96504,note_on,24,0,3,,,,,,,,0,,,56,0
96510,note_on,6,0,3,,,,,,,,0,,,49,62
96518,set_tempo,31,1,0,,,,,,445898,,,,,,
96534,note_on,24,0,3,,,,,,,,0,,,49,0
96540,note_on,6,0,3,,,,,,,,0,,,51,62
96548,set_tempo,30,1,0,,,,,,448363,,,,,,
96564,note_on,24,0,3,,,,,,,,0,,,51,0
96570,note_on,6,0,3,,,,,,,,0,,,52,62
96576,note_on,96,0,4,,,,,,,,0,,,44,0
96579,set_tempo,31,1,0,,,,,,450857,,,,,,
96594,note_on,24,0,3,,,,,,,,0,,,52,0
96600,note_on,6,0,3,,,,,,,,0,,,54,62
96600,note_on,24,0,4,,,,,,,,0,,,42,80
96609,set_tempo,30,1,0,,,,,,453378,,,,,,
96624,note_on,24,0,3,,,,,,,,0,,,54,0
96630,note_on,6,0,3,,,,,,,,0,,,56,62
96635,set_tempo,26,1,0,,,,,,455927,,,,,,
96654,note_on,24,0,3,,,,,,,,0,,,56,0
96660,note_on,6,0,3,,,,,,,,0,,,49,62
96666,set_tempo,31,1,0,,,,,,458505,,,,,,
96684,note_on,24,0,3,,,,,,,,0,,,49,0
96690,note_on,6,0,3,,,,,,,,0,,,51,62
96696,note_on,96,0,4,,,,,,,,0,,,42,0
96696,set_tempo,30,1,0,,,,,,461113,,,,,,
96714,note_on,24,0,3,,,,,,,,0,,,51,0
96720,note_on,24,0,4,,,,,,,,0,,,40,80
96720,note_on,6,0,3,,,,,,,,0,,,52,62
96727,set_tempo,31,1,0,,,,,,463750,,,,,,
96744,note_on,24,0,3,,,,,,,,0,,,52,0
96750,note_on,6,0,3,,,,,,,,0,,,54,62
96758,set_tempo,31,1,0,,,,,,466418,,,,,,
96774,note_on,24,0,3,,,,,,,,0,,,54,0
96780,note_on,6,0,3,,,,,,,,0,,,56,62
96784,set_tempo,26,1,0,,,,,,469116,,,,,,
96804,note_on,24,0,3,,,,,,,,0,,,56,0
96810,note_on,6,0,3,,,,,,,,0,,,49,62
96814,set_tempo,30,1,0,,,,,,471846,,,,,,
96816,note_on,96,0,4,,,,,,,,0,,,40,0
96834,note_on,24,0,3,,,,,,,,0,,,49,0
96840,note_on,6,0,3,,,,,,,,0,,,51,62
96840,note_on,24,0,4,,,,,,,,0,,,39,80
96845,set_tempo,31,1,0,,,,,,474608,,,,,,
96864,note_on,24,0,3,,,,,,,,0,,,51,0
96870,note_on,6,0,3,,,,,,,,0,,,52,62
96875,set_tempo,30,1,0,,,,,,477403,,,,,,
96894,note_on,24,0,3,,,,,,,,0,,,52,0
96900,note_on,6,0,3,,,,,,,,0,,,54,62
96906,set_tempo,31,1,0,,,,,,480231,,,,,,
96924,note_on,24,0,3,,,,,,,,0,,,54,0
96930,note_on,6,0,3,,,,,,,,0,,,56,62
96932,set_tempo,26,1,0,,,,,,483092,,,,,,
96936,note_on,96,0,4,,,,,,,,0,,,39,0
96942,control_change,6,0,4,,,,,,,,0,64,0,,
96954,note_on,24,0,3,,,,,,,,0,,,56,0
96960,note_on,6,0,3,,,,,,,,0,,,49,80
96960,note_on,18,0,4,,,,,,,,0,,,37,80
96963,set_tempo,31,1,0,,,,,,485987,,,,,,
96993,set_tempo,30,1,0,,,,,,488918,,,,,,
97024,set_tempo,31,1,0,,,,,,491884,,,,,,
97054,set_tempo,30,1,0,,,,,,494886,,,,,,
97056,note_on,96,0,3,,,,,,,,0,,,49,0
97056,note_on,96,0,4,,,,,,,,0,,,37,0
97080,note_on,0,0,4,,,,,,,,0,,,52,80
97080,set_tempo,26,1,0,,,,,,497925,,,,,,
97080,note_on,24,0,4,,,,,,,,0,,,49,80
97080,note_on,0,0,3,,,,,,,,0,,,64,80
97080,note_on,24,0,3,,,,,,,,0,,,56,80
97080,note_on,0,0,3,,,,,,,,0,,,61,80
97111,set_tempo,31,1,0,,,,,,501002,,,,,,
97142,set_tempo,31,1,0,,,,,,504117,,,,,,
97172,set_tempo,30,1,0,,,,,,507271,,,,,,
97176,note_on,0,0,3,,,,,,,,0,,,56,0
97176,note_on,0,0,3,,,,,,,,0,,,61,0
97176,note_on,96,0,3,,,,,,,,0,,,64,0
97176,note_on,0,0,4,,,,,,,,0,,,49,0
97176,note_on,96,0,4,,,,,,,,0,,,52,0
97193,set_tempo,21,1,0,,,,,,523652,,,,,,
97200,note_on,1344,0,2,,,,,,,,0,,,57,80
97200,note_on,24,0,4,,,,,,,,0,,,45,80
97200,note_on,0,0,2,,,,,,,,0,,,61,80
97200,note_on,0,0,4,,,,,,,,0,,,52,80
97200,note_on,0,0,2,,,,,,,,0,,,69,80
97206,control_change,6,0,4,,,,,,,,0,64,127,,
97224,set_tempo,31,1,0,,,,,,520291,,,,,,
97250,set_tempo,26,1,0,,,,,,516974,,,,,,
97281,set_tempo,31,1,0,,,,,,513699,,,,,,
97296,note_on,0,0,4,,,,,,,,0,,,45,0
97296,note_on,96,0,2,,,,,,,,0,,,69,0
97296,note_on,90,0,4,,,,,,,,0,,,52,0
97296,note_on,0,0,2,,,,,,,,0,,,61,0
97296,note_on,0,0,2,,,,,,,,0,,,57,0
97307,set_tempo,26,1,0,,,,,,510465,,,,,,
97320,note_on,144,0,3,,,,,,,,0,,,52,65
97320,note_on,24,0,4,,,,,,,,0,,,40,80
97333,set_tempo,26,1,0,,,,,,507271,,,,,,
97344,note_on,24,0,3,,,,,,,,0,,,52,0
97350,note_on,6,0,3,,,,,,,,0,,,45,65
97364,set_tempo,31,1,0,,,,,,504117,,,,,,
97374,note_on,24,0,3,,,,,,,,0,,,45,0
97380,note_on,6,0,3,,,,,,,,0,,,47,65
97390,set_tempo,26,1,0,,,,,,501002,,,,,,
97404,note_on,24,0,3,,,,,,,,0,,,47,0
97410,note_on,6,0,3,,,,,,,,0,,,49,65
97416,note_on,96,0,4,,,,,,,,0,,,40,0
97420,set_tempo,30,1,0,,,,,,497925,,,,,,
97434,note_on,24,0,3,,,,,,,,0,,,49,0
97440,note_on,24,0,4,,,,,,,,0,,,38,80
97440,note_on,6,0,3,,,,,,,,0,,,50,65
97447,set_tempo,27,1,0,,,,,,494886,,,,,,
97464,note_on,24,0,3,,,,,,,,0,,,50,0
97470,note_on,6,0,3,,,,,,,,0,,,52,65
97473,set_tempo,26,1,0,,,,,,491884,,,,,,
97494,note_on,24,0,3,,,,,,,,0,,,52,0
97500,note_on,6,0,3,,,,,,,,0,,,45,65
97503,set_tempo,30,1,0,,,,,,488918,,,,,,
97524,note_on,24,0,3,,,,,,,,0,,,45,0
97529,set_tempo,26,1,0,,,,,,485987,,,,,,
97530,note_on,6,0,3,,,,,,,,0,,,47,65
97536,note_on,96,0,4,,,,,,,,0,,,38,0
97554,note_on,24,0,3,,,,,,,,0,,,47,0
97556,set_tempo,27,1,0,,,,,,483092,,,,,,
97560,note_on,6,0,3,,,,,,,,0,,,49,65
97560,note_on,24,0,4,,,,,,,,0,,,37,80
97584,note_on,24,0,3,,,,,,,,0,,,49,0
97586,set_tempo,30,1,0,,,,,,480231,,,,,,
97590,note_on,6,0,3,,,,,,,,0,,,50,65
97612,set_tempo,26,1,0,,,,,,477403,,,,,,
97614,note_on,24,0,3,,,,,,,,0,,,50,0
97620,note_on,6,0,3,,,,,,,,0,,,52,65
97643,set_tempo,31,1,0,,,,,,474608,,,,,,
97644,note_on,24,0,3,,,,,,,,0,,,52,0
97650,note_on,6,0,3,,,,,,,,0,,,45,65
97656,note_on,96,0,4,,,,,,,,0,,,37,0
97669,set_tempo,26,1,0,,,,,,471846,,,,,,
97674,note_on,24,0,3,,,,,,,,0,,,45,0
97680,note_on,6,0,3,,,,,,,,0,,,47,65
97680,note_on,24,0,4,,,,,,,,0,,,35,80
97695,set_tempo,26,1,0,,,,,,469116,,,,,,
97704,note_on,24,0,3,,,,,,,,0,,,47,0
97710,note_on,6,0,3,,,,,,,,0,,,49,65
97726,set_tempo,31,1,0,,,,,,466418,,,,,,
97734,note_on,24,0,3,,,,,,,,0,,,49,0
97740,note_on,6,0,3,,,,,,,,0,,,50,65
97752,set_tempo,26,1,0,,,,,,463750,,,,,,
97764,note_on,24,0,3,,,,,,,,0,,,50,0
97770,note_on,6,0,3,,,,,,,,0,,,52,65
97776,note_on,96,0,4,,,,,,,,0,,,35,0
97783,set_tempo,31,1,0,,,,,,461113,,,,,,
97794,note_on,24,0,3,,,,,,,,0,,,52,0
97795,control_change,19,0,4,,,,,,,,0,64,0,,
97800,note_on,6,0,3,,,,,,,,0,,,45,80
97800,note_on,5,0,4,,,,,,,,0,,,33,80
97809,set_tempo,26,1,0,,,,,,458505,,,,,,
97835,set_tempo,26,1,0,,,,,,455927,,,,,,
97865,set_tempo,30,1,0,,,,,,453378,,,,,,
97892,set_tempo,27,1,0,,,,,,450857,,,,,,
97896,note_on,96,0,4,,,,,,,,0,,,33,0
97896,note_on,96,0,3,,,,,,,,0,,,45,0
97918,set_tempo,26,1,0,,,,,,448363,,,,,,
97920,note_on,24,0,4,,,,,,,,0,,,45,80
97920,note_on,24,0,3,,,,,,,,0,,,57,65
97927,control_change,7,0,4,,,,,,,,0,64,127,,
97944,note_on,24,0,3,,,,,,,,0,,,57,0
97949,set_tempo,31,1,0,,,,,,450857,,,,,,
97950,note_on,6,0,3,,,,,,,,0,,,50,65
97974,note_on,24,0,3,,,,,,,,0,,,50,0
97980,note_on,6,0,3,,,,,,,,0,,,52,65
97984,set_tempo,35,1,0,,,,,,453378,,,,,,
98004,note_on,24,0,3,,,,,,,,0,,,52,0
98010,note_on,6,0,3,,,,,,,,0,,,53,65
98016,note_on,89,0,4,,,,,,,,0,,,45,0
98019,set_tempo,35,1,0,,,,,,455927,,,,,,
98034,note_on,24,0,3,,,,,,,,0,,,53,0
98040,note_on,24,0,4,,,,,,,,0,,,43,80
98040,note_on,6,0,3,,,,,,,,0,,,55,65
98054,set_tempo,35,1,0,,,,,,458505,,,,,,
98064,note_on,24,0,3,,,,,,,,0,,,55,0
98070,note_on,6,0,3,,,,,,,,0,,,57,65
98088,set_tempo,34,1,0,,,,,,461113,,,,,,
98094,note_on,24,0,3,,,,,,,,0,,,57,0
98100,note_on,6,0,3,,,,,,,,0,,,50,65
98119,set_tempo,31,1,0,,,,,,463750,,,,,,
98124,note_on,24,0,3,,,,,,,,0,,,50,0
98130,note_on,6,0,3,,,,,,,,0,,,52,65
98136,note_on,96,0,4,,,,,,,,0,,,43,0
98154,set_tempo,35,1,0,,,,,,466418,,,,,,
98154,note_on,24,0,3,,,,,,,,0,,,52,0
98160,note_on,24,0,4,,,,,,,,0,,,41,80
98160,note_on,6,0,3,,,,,,,,0,,,53,65
98184,note_on,24,0,3,,,,,,,,0,,,53,0
98189,set_tempo,35,1,0,,,,,,469116,,,,,,
98190,note_on,6,0,3,,,,,,,,0,,,55,65
98214,note_on,24,0,3,,,,,,,,0,,,55,0
98220,note_on,6,0,3,,,,,,,,0,,,57,65
98224,set_tempo,35,1,0,,,,,,471846,,,,,,
98244,note_on,24,0,3,,,,,,,,0,,,57,0
98250,note_on,6,0,3,,,,,,,,0,,,50,65
98256,note_on,96,0,4,,,,,,,,0,,,41,0
98259,set_tempo,35,1,0,,,,,,474608,,,,,,
98274,note_on,24,0,3,,,,,,,,0,,,50,0
98280,note_on,6,0,3,,,,,,,,0,,,52,65
98280,note_on,24,0,4,,,,,,,,0,,,40,80
98289,set_tempo,30,1,0,,,,,,477403,,,,,,
98304,note_on,24,0,3,,,,,,,,0,,,52,0
98310,note_on,6,0,3,,,,,,,,0,,,53,65
98324,set_tempo,35,1,0,,,,,,480231,,,,,,
98334,note_on,24,0,3,,,,,,,,0,,,53,0
98340,note_on,6,0,3,,,,,,,,0,,,55,65
98359,set_tempo,35,1,0,,,,,,483092,,,,,,
98364,note_on,24,0,3,,,,,,,,0,,,55,0
98370,note_on,6,0,3,,,,,,,,0,,,57,65
98376,note_on,96,0,4,,,,,,,,0,,,40,0
98394,set_tempo,35,1,0,,,,,,485987,,,,,,
98394,note_on,24,0,3,,,,,,,,0,,,57,0
98400,note_on,6,0,3,,,,,,,,0,,,50,80
98400,note_on,24,0,4,,,,,,,,0,,,38,80
98407,control_change,7,0,4,,,,,,,,0,64,0,,
98429,set_tempo,35,1,0,,,,,,488918,,,,,,
98459,set_tempo,30,1,0,,,,,,491884,,,,,,
98494,set_tempo,35,1,0,,,,,,494886,,,,,,
98496,note_on,89,0,4,,,,,,,,0,,,38,0
98496,note_on,96,0,3,,,,,,,,0,,,50,0
98520,note_on,0,0,3,,,,,,,,0,,,62,80
98520,note_on,0,0,3,,,,,,,,0,,,65,80
98520,note_on,24,0,3,,,,,,,,0,,,57,80
98520,note_on,24,0,4,,,,,,,,0,,,50,80
98520,note_on,0,0,4,,,,,,,,0,,,53,80
98529,set_tempo,35,1,0,,,,,,497925,,,,,,
98564,set_tempo,35,1,0,,,,,,501002,,,,,,
98599,set_tempo,35,1,0,,,,,,504117,,,,,,
98616,note_on,96,0,4,,,,,,,,0,,,53,0
98616,note_on,0,0,4,,,,,,,,0,,,50,0
98616,note_on,0,0,3,,,,,,,,0,,,57,0
98616,note_on,0,0,3,,,,,,,,0,,,62,0
98616,note_on,96,0,3,,,,,,,,0,,,65,0
98630,set_tempo,31,1,0,,,,,,507271,,,,,,
98640,note_on,1344,0,2,,,,,,,,0,,,58,80
98640,note_on,24,0,4,,,,,,,,0,,,46,80
98640,note_on,0,0,2,,,,,,,,0,,,62,80
98640,note_on,0,0,2,,,,,,,,0,,,70,80
98640,note_on,0,0,4,,,,,,,,0,,,53,80
98651,control_change,11,0,4,,,,,,,,0,64,127,,
98736,note_on,0,0,2,,,,,,,,0,,,58,0
98736,note_on,0,0,2,,,,,,,,0,,,62,0
98736,note_on,96,0,2,,,,,,,,0,,,70,0
98736,note_on,85,0,4,,,,,,,,0,,,53,0
98736,note_on,0,0,4,,,,,,,,0,,,46,0
98752,set_tempo,122,1,0,,,,,,501002,,,,,,
98756,set_tempo,4,1,0,,,,,,448363,,,,,,
98760,note_on,24,0,4,,,,,,,,0,,,41,80
98760,note_on,144,0,3,,,,,,,,0,,,53,67
98786,set_tempo,30,1,0,,,,,,450857,,,,,,
98792,note_on,32,0,3,,,,,,,,0,,,53,0
98800,note_on,8,0,3,,,,,,,,0,,,46,67
98812,set_tempo,26,1,0,,,,,,453378,,,,,,
98832,note_on,32,0,3,,,,,,,,0,,,46,0
98840,note_on,8,0,3,,,,,,,,0,,,50,67
98843,set_tempo,31,1,0,,,,,,455927,,,,,,
98856,note_on,96,0,4,,,,,,,,0,,,41,0
98869,set_tempo,26,1,0,,,,,,458505,,,,,,
98872,note_on,32,0,3,,,,,,,,0,,,50,0
98880,note_on,8,0,3,,,,,,,,0,,,51,67
98880,note_on,24,0,4,,,,,,,,0,,,39,80
98900,set_tempo,31,1,0,,,,,,461113,,,,,,
98912,note_on,32,0,3,,,,,,,,0,,,51,0
98920,note_on,8,0,3,,,,,,,,0,,,53,67
98926,set_tempo,26,1,0,,,,,,463750,,,,,,
98952,note_on,32,0,3,,,,,,,,0,,,53,0
98956,set_tempo,30,1,0,,,,,,466418,,,,,,
98960,note_on,8,0,3,,,,,,,,0,,,46,67
98976,note_on,96,0,4,,,,,,,,0,,,39,0
98982,set_tempo,26,1,0,,,,,,469116,,,,,,
98992,note_on,32,0,3,,,,,,,,0,,,46,0
99000,note_on,8,0,3,,,,,,,,0,,,50,67
99000,note_on,24,0,4,,,,,,,,0,,,38,80
99013,set_tempo,31,1,0,,,,,,471846,,,,,,
99032,note_on,32,0,3,,,,,,,,0,,,50,0
99039,set_tempo,26,1,0,,,,,,474608,,,,,,
99040,note_on,8,0,3,,,,,,,,0,,,51,67
99070,set_tempo,31,1,0,,,,,,477403,,,,,,
99072,note_on,32,0,3,,,,,,,,0,,,51,0
99080,note_on,8,0,3,,,,,,,,0,,,53,67
99096,note_on,96,0,4,,,,,,,,0,,,38,0
99096,set_tempo,26,1,0,,,,,,480231,,,,,,
99112,note_on,32,0,3,,,,,,,,0,,,53,0
99120,note_on,24,0,4,,,,,,,,0,,,35,80
99120,note_on,8,0,3,,,,,,,,0,,,47,67
99126,set_tempo,30,1,0,,,,,,483092,,,,,,
99152,note_on,32,0,3,,,,,,,,0,,,47,0
99153,set_tempo,27,1,0,,,,,,485987,,,,,,
99160,note_on,8,0,3,,,,,,,,0,,,50,67
99183,set_tempo,30,1,0,,,,,,488918,,,,,,
99192,note_on,32,0,3,,,,,,,,0,,,50,0
99200,note_on,8,0,3,,,,,,,,0,,,53,67
99209,set_tempo,26,1,0,,,,,,491884,,,,,,
99216,note_on,96,0,4,,,,,,,,0,,,35,0
99232,note_on,32,0,3,,,,,,,,0,,,53,0
99233,control_change,17,0,4,,,,,,,,0,64,0,,
99240,note_on,7,0,4,,,,,,,,0,,,34,80
99240,set_tempo,31,1,0,,,,,,494886,,,,,,
99240,note_on,8,0,3,,,,,,,,0,,,46,80
99266,set_tempo,26,1,0,,,,,,497925,,,,,,
99297,set_tempo,31,1,0,,,,,,501002,,,,,,
99323,set_tempo,26,1,0,,,,,,504117,,,,,,
99336,note_on,96,0,4,,,,,,,,0,,,34,0
99336,note_on,96,0,3,,,,,,,,0,,,46,0
99349,set_tempo,26,1,0,,,,,,507271,,,,,,
99360,note_on,24,0,4,,,,,,,,0,,,54,80
99360,note_on,0,0,2,,,,,,,,0,,,70,80
99360,note_on,0,0,2,,,,,,,,0,,,63,80
99360,note_on,0,0,4,,,,,,,,0,,,51,80
99360,note_on,624,0,2,,,,,,,,0,,,58,80
99360,control_change,0,0,4,,,,,,,,0,64,127,,
99456,note_on,0,0,2,,,,,,,,0,,,70,0
99456,note_on,0,0,4,,,,,,,,0,,,54,0
99456,note_on,96,0,4,,,,,,,,0,,,51,0
99456,note_on,96,0,2,,,,,,,,0,,,63,0
99456,note_on,0,0,2,,,,,,,,0,,,58,0
99471,set_tempo,122,1,0,,,,,,450857,,,,,,
99480,note_on,24,0,4,,,,,,,,0,,,42,80
99480,note_on,144,0,3,,,,,,,,0,,,54,70
99506,set_tempo,35,1,0,,,,,,453378,,,,,,
99512,note_on,32,0,3,,,,,,,,0,,,54,0
99520,note_on,8,0,3,,,,,,,,0,,,46,70
99537,set_tempo,31,1,0,,,,,,455927,,,,,,
99552,note_on,32,0,3,,,,,,,,0,,,46,0
99560,note_on,8,0,3,,,,,,,,0,,,51,70
99567,set_tempo,30,1,0,,,,,,458505,,,,,,
99576,note_on,96,0,4,,,,,,,,0,,,42,0
99592,note_on,32,0,3,,,,,,,,0,,,51,0
99600,note_on,8,0,3,,,,,,,,0,,,53,70
99600,note_on,24,0,4,,,,,,,,0,,,41,80
99602,set_tempo,35,1,0,,,,,,461113,,,,,,
99632,note_on,32,0,3,,,,,,,,0,,,53,0
99633,set_tempo,31,1,0,,,,,,463750,,,,,,
99640,note_on,8,0,3,,,,,,,,0,,,54,70
99663,set_tempo,30,1,0,,,,,,466418,,,,,,
99672,note_on,32,0,3,,,,,,,,0,,,54,0
99680,note_on,8,0,3,,,,,,,,0,,,46,70
99694,set_tempo,31,1,0,,,,,,469116,,,,,,
99696,note_on,96,0,4,,,,,,,,0,,,41,0
99712,note_on,32,0,3,,,,,,,,0,,,46,0
99720,note_on,24,0,4,,,,,,,,0,,,39,80
99720,note_on,8,0,3,,,,,,,,0,,,51,70
99729,set_tempo,35,1,0,,,,,,471846,,,,,,
99752,note_on,32,0,3,,,,,,,,0,,,51,0
99759,set_tempo,30,1,0,,,,,,474608,,,,,,
99760,note_on,8,0,3,,,,,,,,0,,,53,70
99790,set_tempo,31,1,0,,,,,,477403,,,,,,
99792,note_on,32,0,3,,,,,,,,0,,,53,0
99800,note_on,8,0,3,,,,,,,,0,,,54,70
99816,note_on,96,0,4,,,,,,,,0,,,39,0
99820,set_tempo,30,1,0,,,,,,480231,,,,,,
99832,note_on,32,0,3,,,,,,,,0,,,54,0
99840,note_on,8,0,3,,,,,,,,0,,,47,70
99840,note_on,24,0,4,,,,,,,,0,,,35,80
99855,set_tempo,35,1,0,,,,,,483092,,,,,,
99872,note_on,32,0,3,,,,,,,,0,,,47,0
99880,note_on,8,0,3,,,,,,,,0,,,51,71
99886,set_tempo,31,1,0,,,,,,485987,,,,,,
99912,note_on,32,0,3,,,,,,,,0,,,51,0
99916,set_tempo,30,1,0,,,,,,488918,,,,,,
99920,note_on,8,0,3,,,,,,,,0,,,54,71
99936,note_on,96,0,4,,,,,,,,0,,,35,0
99947,set_tempo,31,1,0,,,,,,491884,,,,,,
99949,control_change,13,0,4,,,,,,,,0,64,0,,
99952,note_on,32,0,3,,,,,,,,0,,,54,0
99960,note_on,8,0,3,,,,,,,,0,,,46,71
99960,note_on,11,0,4,,,,,,,,0,,,34,80
99982,set_tempo,35,1,0,,,,,,494886,,,,,,
100012,set_tempo,30,1,0,,,,,,497925,,,,,,
100043,set_tempo,31,1,0,,,,,,501002,,,,,,
100056,note_on,96,0,3,,,,,,,,0,,,46,0
100056,note_on,96,0,4,,,,,,,,0,,,34,0
100073,set_tempo,30,1,0,,,,,,504117,,,,,,
100080,note_on,624,0,2,,,,,,,,0,,,59,80
100080,note_on,0,0,4,,,,,,,,0,,,47,80
100080,note_on,0,0,2,,,,,,,,0,,,63,80
100080,note_on,24,0,4,,,,,,,,0,,,54,80
100080,note_on,0,0,2,,,,,,,,0,,,71,80
100087,control_change,7,0,4,,,,,,,,0,64,127,,
100176,note_on,96,0,2,,,,,,,,0,,,71,0
100176,note_on,89,0,4,,,,,,,,0,,,47,0
100176,note_on,0,0,2,,,,,,,,0,,,59,0
100176,note_on,0,0,2,,,,,,,,0,,,63,0
100176,note_on,0,0,4,,,,,,,,0,,,54,0
100191,set_tempo,118,1,0,,,,,,450857,,,,,,
100200,note_on,24,0,4,,,,,,,,0,,,42,80
100200,note_on,144,0,3,,,,,,,,0,,,54,71
100226,set_tempo,35,1,0,,,,,,453378,,,,,,
100232,note_on,32,0,3,,,,,,,,0,,,54,0
100240,note_on,8,0,3,,,,,,,,0,,,47,71
100257,set_tempo,31,1,0,,,,,,455927,,,,,,
100272,note_on,32,0,3,,,,,,,,0,,,47,0
100280,note_on,8,0,3,,,,,,,,0,,,51,72
100287,set_tempo,30,1,0,,,,,,458505,,,,,,
100296,note_on,96,0,4,,,,,,,,0,,,42,0
100312,note_on,32,0,3,,,,,,,,0,,,51,0
100318,set_tempo,31,1,0,,,,,,461113,,,,,,
100320,note_on,8,0,3,,,,,,,,0,,,52,72
100320,note_on,24,0,4,,,,,,,,0,,,40,80
100352,note_on,32,0,3,,,,,,,,0,,,52,0
100353,set_tempo,35,1,0,,,,,,463750,,,,,,
100360,note_on,8,0,3,,,,,,,,0,,,54,72
100383,set_tempo,30,1,0,,,,,,466418,,,,,,
100392,note_on,32,0,3,,,,,,,,0,,,54,0
100400,note_on,8,0,3,,,,,,,,0,,,47,72
100414,set_tempo,31,1,0,,,,,,469116,,,,,,
100416,note_on,96,0,4,,,,,,,,0,,,40,0
100432,note_on,32,0,3,,,,,,,,0,,,47,0
100440,note_on,8,0,3,,,,,,,,0,,,51,72
100440,note_on,24,0,4,,,,,,,,0,,,39,80
100444,set_tempo,30,1,0,,,,,,471846,,,,,,
100472,note_on,32,0,3,,,,,,,,0,,,51,0
100475,set_tempo,31,1,0,,,,,,474608,,,,,,
100480,note_on,8,0,3,,,,,,,,0,,,52,72
100510,set_tempo,35,1,0,,,,,,477403,,,,,,
100512,note_on,32,0,3,,,,,,,,0,,,52,0
100520,note_on,8,0,3,,,,,,,,0,,,54,72
100536,note_on,96,0,4,,,,,,,,0,,,39,0
100540,set_tempo,30,1,0,,,,,,480231,,,,,,
100552,note_on,32,0,3,,,,,,,,0,,,54,0
100560,note_on,24,0,4,,,,,,,,0,,,36,80
100560,note_on,8,0,3,,,,,,,,0,,,48,72
100571,set_tempo,31,1,0,,,,,,483092,,,,,,
100592,note_on,32,0,3,,,,,,,,0,,,48,0
100600,note_on,8,0,3,,,,,,,,0,,,51,72
100601,set_tempo,30,1,0,,,,,,485987,,,,,,
100632,set_tempo,31,1,0,,,,,,488918,,,,,,
100632,note_on,32,0,3,,,,,,,,0,,,51,0
100640,note_on,8,0,3,,,,,,,,0,,,54,73
100656,note_on,96,0,4,,,,,,,,0,,,36,0
100667,set_tempo,35,1,0,,,,,,491884,,,,,,
100669,control_change,13,0,4,,,,,,,,0,64,0,,
100672,note_on,32,0,3,,,,,,,,0,,,54,0
100680,note_on,8,0,3,,,,,,,,0,,,47,73
100680,note_on,11,0,4,,,,,,,,0,,,35,80
100697,set_tempo,30,1,0,,,,,,494886,,,,,,
100728,set_tempo,31,1,0,,,,,,497925,,,,,,
100758,set_tempo,30,1,0,,,,,,501002,,,,,,
100776,note_on,96,0,4,,,,,,,,0,,,35,0
100776,note_on,96,0,3,,,,,,,,0,,,47,0
100789,set_tempo,31,1,0,,,,,,504117,,,,,,
100800,note_on,24,0,4,,,,,,,,0,,,55,80
100800,note_on,0,0,2,,,,,,,,0,,,64,80
100800,control_change,0,0,4,,,,,,,,0,64,127,,
100800,note_on,0,0,2,,,,,,,,0,,,71,80
100800,note_on,624,0,2,,,,,,,,0,,,59,80
100800,note_on,0,0,4,,,,,,,,0,,,52,80
100896,note_on,0,0,2,,,,,,,,0,,,59,0
100896,note_on,0,0,4,,,,,,,,0,,,55,0
100896,note_on,96,0,2,,,,,,,,0,,,64,0
100896,note_on,0,0,2,,,,,,,,0,,,71,0
100896,note_on,96,0,4,,,,,,,,0,,,52,0
100911,set_tempo,122,1,0,,,,,,448363,,,,,,
100920,note_on,24,0,4,,,,,,,,0,,,43,80
100920,note_on,144,0,3,,,,,,,,0,,,55,73
100942,set_tempo,31,1,0,,,,,,450857,,,,,,
100952,note_on,32,0,3,,,,,,,,0,,,55,0
100960,note_on,8,0,3,,,,,,,,0,,,47,73
100972,set_tempo,30,1,0,,,,,,453378,,,,,,
100992,note_on,32,0,3,,,,,,,,0,,,47,0
101000,note_on,8,0,3,,,,,,,,0,,,52,73
101003,set_tempo,31,1,0,,,,,,455927,,,,,,
101016,note_on,96,0,4,,,,,,,,0,,,43,0
101032,note_on,32,0,3,,,,,,,,0,,,52,0
101033,set_tempo,30,1,0,,,,,,458505,,,,,,
101040,note_on,24,0,4,,,,,,,,0,,,42,80
101040,note_on,8,0,3,,,,,,,,0,,,54,74
101064,set_tempo,31,1,0,,,,,,461113,,,,,,
101072,note_on,32,0,3,,,,,,,,0,,,54,0
101080,note_on,8,0,3,,,,,,,,0,,,55,74
101094,set_tempo,30,1,0,,,,,,463750,,,,,,
101112,note_on,32,0,3,,,,,,,,0,,,55,0
101120,note_on,8,0,3,,,,,,,,0,,,47,74
101125,set_tempo,31,1,0,,,,,,466418,,,,,,
101136,note_on,96,0,4,,,,,,,,0,,,42,0
101152,note_on,32,0,3,,,,,,,,0,,,47,0
101156,set_tempo,31,1,0,,,,,,469116,,,,,,
101160,note_on,8,0,3,,,,,,,,0,,,52,74
101160,note_on,24,0,4,,,,,,,,0,,,40,80
101186,set_tempo,30,1,0,,,,,,471846,,,,,,
101192,note_on,32,0,3,,,,,,,,0,,,52,0
101200,note_on,8,0,3,,,,,,,,0,,,54,74
101217,set_tempo,31,1,0,,,,,,474608,,,,,,
101232,note_on,32,0,3,,,,,,,,0,,,54,0
101240,note_on,8,0,3,,,,,,,,0,,,55,74
101247,set_tempo,30,1,0,,,,,,477403,,,,,,
101256,note_on,96,0,4,,,,,,,,0,,,40,0
101272,note_on,32,0,3,,,,,,,,0,,,55,0
101278,set_tempo,31,1,0,,,,,,480231,,,,,,
101280,note_on,24,0,4,,,,,,,,0,,,36,80
101280,note_on,8,0,3,,,,,,,,0,,,48,74
101308,set_tempo,30,1,0,,,,,,483092,,,,,,
101312,note_on,32,0,3,,,,,,,,0,,,48,0
101320,note_on,8,0,3,,,,,,,,0,,,52,74
101339,set_tempo,31,1,0,,,,,,485987,,,,,,
101352,note_on,32,0,3,,,,,,,,0,,,52,0
101360,note_on,8,0,3,,,,,,,,0,,,55,74
101369,set_tempo,30,1,0,,,,,,488918,,,,,,
101376,note_on,96,0,4,,,,,,,,0,,,36,0
101388,control_change,12,0,4,,,,,,,,0,64,0,,
101392,note_on,32,0,3,,,,,,,,0,,,55,0
101400,note_on,8,0,3,,,,,,,,0,,,47,75
101400,note_on,12,0,4,,,,,,,,0,,,35,80
101400,set_tempo,31,1,0,,,,,,491884,,,,,,
101430,set_tempo,30,1,0,,,,,,494886,,,,,,
101461,set_tempo,31,1,0,,,,,,497925,,,,,,
101492,set_tempo,31,1,0,,,,,,501002,,,,,,
101496,note_on,96,0,4,,,,,,,,0,,,35,0
101496,note_on,96,0,3,,,,,,,,0,,,47,0
101520,note_on,0,0,2,,,,,,,,0,,,62,80
101520,control_change,0,0,4,,,,,,,,0,64,127,,
101520,note_on,24,0,4,,,,,,,,0,,,47,80
101520,note_on,0,0,2,,,,,,,,0,,,59,80
101520,note_on,0,0,4,,,,,,,,0,,,53,80
101520,note_on,0,0,4,,,,,,,,0,,,56,80
101520,note_on,624,0,2,,,,,,,,0,,,71,80
101521,set_tempo,29,1,0,,,,,,507271,,,,,,
101560,set_tempo,39,1,0,,,,,,504117,,,,,,
101595,set_tempo,35,1,0,,,,,,501002,,,,,,
101616,note_on,96,0,2,,,,,,,,0,,,59,0
101616,note_on,0,0,4,,,,,,,,0,,,56,0
101616,note_on,96,0,4,,,,,,,,0,,,53,0
101616,note_on,0,0,4,,,,,,,,0,,,47,0
101616,note_on,0,0,2,,,,,,,,0,,,71,0
101616,note_on,0,0,2,,,,,,,,0,,,62,0
101635,set_tempo,40,1,0,,,,,,497925,,,,,,
101640,note_on,144,0,3,,,,,,,,0,,,56,75
101640,note_on,24,0,4,,,,,,,,0,,,44,80
101670,set_tempo,35,1,0,,,,,,494886,,,,,,
101672,note_on,32,0,3,,,,,,,,0,,,56,0
101680,note_on,8,0,3,,,,,,,,0,,,47,75
101704,set_tempo,34,1,0,,,,,,491884,,,,,,
101712,note_on,32,0,3,,,,,,,,0,,,47,0
101720,note_on,8,0,3,,,,,,,,0,,,50,75
101736,note_on,96,0,4,,,,,,,,0,,,44,0
101744,set_tempo,40,1,0,,,,,,488918,,,,,,
101752,note_on,32,0,3,,,,,,,,0,,,50,0
101760,note_on,24,0,4,,,,,,,,0,,,41,80
101760,note_on,8,0,3,,,,,,,,0,,,53,75
101779,set_tempo,35,1,0,,,,,,485987,,,,,,
101792,note_on,32,0,3,,,,,,,,0,,,53,0
101800,note_on,8,0,3,,,,,,,,0,,,56,75
101814,set_tempo,35,1,0,,,,,,483092,,,,,,
101832,note_on,32,0,3,,,,,,,,0,,,56,0
101840,note_on,8,0,3,,,,,,,,0,,,47,75
101853,set_tempo,39,1,0,,,,,,480231,,,,,,
101856,note_on,96,0,4,,,,,,,,0,,,41,0
101872,note_on,32,0,3,,,,,,,,0,,,47,0
101880,note_on,24,0,4,,,,,,,,0,,,38,80
101880,note_on,8,0,3,,,,,,,,0,,,50,75
101888,set_tempo,35,1,0,,,,,,477403,,,,,,
101912,note_on,32,0,3,,,,,,,,0,,,50,0
101920,note_on,8,0,3,,,,,,,,0,,,53,75
101923,set_tempo,35,1,0,,,,,,474608,,,,,,
101952,note_on,32,0,3,,,,,,,,0,,,53,0
101960,note_on,8,0,3,,,,,,,,0,,,56,75
101962,set_tempo,39,1,0,,,,,,471846,,,,,,
101976,note_on,96,0,4,,,,,,,,0,,,38,0
101992,note_on,32,0,3,,,,,,,,0,,,56,0
101997,set_tempo,35,1,0,,,,,,469116,,,,,,
102000,note_on,8,0,3,,,,,,,,0,,,48,75
102000,note_on,24,0,4,,,,,,,,0,,,36,80
102032,set_tempo,35,1,0,,,,,,466418,,,,,,
102032,note_on,32,0,3,,,,,,,,0,,,48,0
102040,note_on,8,0,3,,,,,,,,0,,,53,75
102071,set_tempo,39,1,0,,,,,,463750,,,,,,
102072,note_on,32,0,3,,,,,,,,0,,,53,0
102080,note_on,8,0,3,,,,,,,,0,,,56,75
102096,note_on,96,0,4,,,,,,,,0,,,36,0
102106,set_tempo,35,1,0,,,,,,461113,,,,,,
102112,note_on,32,0,3,,,,,,,,0,,,56,0
102116,control_change,20,0,4,,,,,,,,0,64,0,,
102120,note_on,8,0,3,,,,,,,,0,,,47,75
102120,note_on,4,0,4,,,,,,,,0,,,35,80
102141,set_tempo,35,1,0,,,,,,458505,,,,,,
102180,set_tempo,39,1,0,,,,,,455927,,,,,,
102215,set_tempo,35,1,0,,,,,,453378,,,,,,
102216,note_on,96,0,4,,,,,,,,0,,,35,0
102216,note_on,96,0,3,,,,,,,,0,,,47,0
102240,note_on,0,0,4,,,,,,,,0,,,56,80
102240,note_on,0,0,2,,,,,,,,0,,,62,80
102240,note_on,0,0,2,,,,,,,,0,,,65,80
102240,note_on,0,0,4,,,,,,,,0,,,59,80
102240,note_on,624,0,2,,,,,,,,0,,,74,80
102240,note_on,24,0,4,,,,,,,,0,,,50,80
102245,control_change,5,0,4,,,,,,,,0,64,127,,
102250,set_tempo,35,1,0,,,,,,450857,,,,,,
102336,note_on,0,0,2,,,,,,,,0,,,65,0
102336,note_on,96,0,2,,,,,,,,0,,,62,0
102336,note_on,91,0,4,,,,,,,,0,,,59,0
102336,note_on,0,0,2,,,,,,,,0,,,74,0
102336,note_on,0,0,4,,,,,,,,0,,,56,0
102336,note_on,0,0,4,,,,,,,,0,,,50,0
102360,note_on,144,0,3,,,,,,,,0,,,59,75
102360,note_on,24,0,4,,,,,,,,0,,,47,80
102392,note_on,32,0,3,,,,,,,,0,,,59,0
102400,note_on,8,0,3,,,,,,,,0,,,50,75
102432,note_on,32,0,3,,,,,,,,0,,,50,0
102440,note_on,8,0,3,,,,,,,,0,,,53,75
102456,note_on,96,0,4,,,,,,,,0,,,47,0
102472,note_on,32,0,3,,,,,,,,0,,,53,0
102480,note_on,24,0,4,,,,,,,,0,,,44,80
102480,note_on,8,0,3,,,,,,,,0,,,56,75
102512,note_on,32,0,3,,,,,,,,0,,,56,0
102520,note_on,8,0,3,,,,,,,,0,,,59,75
102552,note_on,32,0,3,,,,,,,,0,,,59,0
102560,note_on,8,0,3,,,,,,,,0,,,50,75
102576,note_on,96,0,4,,,,,,,,0,,,44,0
102592,note_on,32,0,3,,,,,,,,0,,,50,0
102600,note_on,24,0,4,,,,,,,,0,,,41,80
102600,note_on,8,0,3,,,,,,,,0,,,53,75
102632,note_on,32,0,3,,,,,,,,0,,,53,0
102640,note_on,8,0,3,,,,,,,,0,,,56,75
102672,note_on,32,0,3,,,,,,,,0,,,56,0
102680,note_on,8,0,3,,,,,,,,0,,,59,75
102696,note_on,96,0,4,,,,,,,,0,,,41,0
102712,note_on,32,0,3,,,,,,,,0,,,59,0
102720,note_on,24,0,4,,,,,,,,0,,,38,80
102720,note_on,8,0,3,,,,,,,,0,,,50,75
102752,note_on,32,0,3,,,,,,,,0,,,50,0
102760,note_on,8,0,3,,,,,,,,0,,,56,75
102792,note_on,32,0,3,,,,,,,,0,,,56,0
102800,note_on,8,0,3,,,,,,,,0,,,59,75
102816,note_on,96,0,4,,,,,,,,0,,,38,0
102832,note_on,32,0,3,,,,,,,,0,,,59,0
102838,control_change,22,0,4,,,,,,,,0,64,0,,
102840,note_on,8,0,3,,,,,,,,0,,,47,75
102840,note_on,2,0,4,,,,,,,,0,,,35,80
102936,note_on,96,0,4,,,,,,,,0,,,35,0
102936,note_on,96,0,3,,,,,,,,0,,,47,0
102960,note_on,0,0,2,,,,,,,,0,,,66,80
102960,note_on,0,0,4,,,,,,,,0,,,51,80
102960,note_on,0,0,2,,,,,,,,0,,,63,80
102960,note_on,24,0,4,,,,,,,,0,,,60,80
102960,note_on,0,0,4,,,,,,,,0,,,57,80
102960,note_on,624,0,2,,,,,,,,0,,,75,80
102960,control_change,0,0,4,,,,,,,,0,64,127,,
103056,note_on,0,0,4,,,,,,,,0,,,57,0
103056,note_on,96,0,2,,,,,,,,0,,,63,0
103056,note_on,0,0,2,,,,,,,,0,,,75,0
103056,note_on,96,0,4,,,,,,,,0,,,51,0
103056,note_on,0,0,2,,,,,,,,0,,,66,0
103056,note_on,0,0,4,,,,,,,,0,,,60,0
103080,note_on,144,0,3,,,,,,,,0,,,60,75
103080,note_on,24,0,4,,,,,,,,0,,,48,80
103112,note_on,32,0,3,,,,,,,,0,,,60,0
103120,note_on,8,0,3,,,,,,,,0,,,51,75
103152,note_on,32,0,3,,,,,,,,0,,,51,0
103160,note_on,8,0,3,,,,,,,,0,,,54,75
103176,note_on,96,0,4,,,,,,,,0,,,48,0
103192,note_on,32,0,3,,,,,,,,0,,,54,0
103200,note_on,24,0,4,,,,,,,,0,,,45,80
103200,note_on,8,0,3,,,,,,,,0,,,57,75
103232,note_on,32,0,3,,,,,,,,0,,,57,0
103240,note_on,8,0,3,,,,,,,,0,,,60,75
103272,note_on,32,0,3,,,,,,,,0,,,60,0
103280,note_on,8,0,3,,,,,,,,0,,,51,75
103296,note_on,96,0,4,,,,,,,,0,,,45,0
103312,note_on,32,0,3,,,,,,,,0,,,51,0
103320,note_on,8,0,3,,,,,,,,0,,,54,75
103320,note_on,24,0,4,,,,,,,,0,,,42,81
103352,note_on,32,0,3,,,,,,,,0,,,54,0
103360,note_on,8,0,3,,,,,,,,0,,,57,75
103392,note_on,32,0,3,,,,,,,,0,,,57,0
103400,note_on,8,0,3,,,,,,,,0,,,60,75
103416,note_on,96,0,4,,,,,,,,0,,,42,0
103432,note_on,32,0,3,,,,,,,,0,,,60,0
103440,note_on,8,0,3,,,,,,,,0,,,51,75
103440,note_on,24,0,4,,,,,,,,0,,,39,82
103472,note_on,32,0,3,,,,,,,,0,,,51,0
103480,note_on,8,0,3,,,,,,,,0,,,57,75
103512,note_on,32,0,3,,,,,,,,0,,,57,0
103520,note_on,8,0,3,,,,,,,,0,,,60,75
103536,note_on,96,0,4,,,,,,,,0,,,39,0
103537,control_change,1,0,4,,,,,,,,0,64,0,,
103552,note_on,32,0,3,,,,,,,,0,,,60,0
103560,note_on,8,0,3,,,,,,,,0,,,48,75
103560,note_on,23,0,4,,,,,,,,0,,,36,83
103608,note_on,48,0,3,,,,,,,,0,,,48,0
103656,note_on,96,0,4,,,,,,,,0,,,36,0
103680,note_on,0,0,4,,,,,,,,0,,,63,80
103680,note_on,0,0,4,,,,,,,,0,,,60,80
103680,control_change,24,0,4,,,,,,,,0,64,127,,
103680,note_on,0,0,4,,,,,,,,0,,,54,84
103680,note_on,624,0,2,,,,,,,,0,,,78,80
103680,note_on,0,0,2,,,,,,,,0,,,69,80
103680,note_on,0,0,2,,,,,,,,0,,,66,80
103776,note_on,96,0,4,,,,,,,,0,,,60,0
103776,note_on,0,0,4,,,,,,,,0,,,63,0
103776,note_on,0,0,4,,,,,,,,0,,,54,0
103776,note_on,96,0,2,,,,,,,,0,,,66,0
103776,note_on,0,0,2,,,,,,,,0,,,78,0
103776,note_on,0,0,2,,,,,,,,0,,,69,0
103800,note_on,192,0,3,,,,,,,,0,,,63,75
103800,note_on,24,0,4,,,,,,,,0,,,51,85
103832,note_on,32,0,3,,,,,,,,0,,,63,0
103840,note_on,8,0,3,,,,,,,,0,,,54,75
103872,note_on,32,0,3,,,,,,,,0,,,54,0
103880,note_on,8,0,3,,,,,,,,0,,,57,75
103896,note_on,96,0,4,,,,,,,,0,,,51,0
103912,note_on,32,0,3,,,,,,,,0,,,57,0
103920,note_on,8,0,3,,,,,,,,0,,,60,75
103920,note_on,24,0,4,,,,,,,,0,,,48,86
103952,note_on,32,0,3,,,,,,,,0,,,60,0
103960,note_on,8,0,3,,,,,,,,0,,,63,75
103992,note_on,32,0,3,,,,,,,,0,,,63,0
104000,note_on,8,0,3,,,,,,,,0,,,54,75
104016,note_on,96,0,4,,,,,,,,0,,,48,0
104032,note_on,32,0,3,,,,,,,,0,,,54,0
104040,note_on,8,0,3,,,,,,,,0,,,57,75
104040,note_on,24,0,4,,,,,,,,0,,,45,87
104072,note_on,32,0,3,,,,,,,,0,,,57,0
104080,note_on,8,0,3,,,,,,,,0,,,60,75
104112,note_on,32,0,3,,,,,,,,0,,,60,0
104120,note_on,8,0,3,,,,,,,,0,,,63,75
104136,note_on,96,0,4,,,,,,,,0,,,45,0
104152,note_on,32,0,3,,,,,,,,0,,,63,0
104160,note_on,24,0,4,,,,,,,,0,,,42,88
104160,note_on,8,0,3,,,,,,,,0,,,54,75
104192,note_on,32,0,3,,,,,,,,0,,,54,0
104200,note_on,8,0,3,,,,,,,,0,,,60,75
104232,note_on,32,0,3,,,,,,,,0,,,60,0
104240,note_on,8,0,3,,,,,,,,0,,,63,75
104243,control_change,83,0,4,,,,,,,,0,64,0,,
104256,note_on,13,0,4,,,,,,,,0,,,42,0
104272,note_on,32,0,3,,,,,,,,0,,,63,0
104280,note_on,24,0,4,,,,,,,,0,,,36,80
104280,note_on,8,0,3,,,,,,,,0,,,48,75
104376,note_on,96,0,4,,,,,,,,0,,,36,0
104376,note_on,96,0,3,,,,,,,,0,,,48,0
104400,note_on,24,0,4,,,,,,,,0,,,69,80
104400,control_change,0,0,4,,,,,,,,0,64,127,,
104400,note_on,624,0,2,,,,,,,,0,,,73,80
104400,note_on,0,0,2,,,,,,,,0,,,78,80
104400,note_on,0,0,2,,,,,,,,0,,,81,80
104400,note_on,0,0,4,,,,,,,,0,,,61,80
104400,note_on,0,0,4,,,,,,,,0,,,66,80
104496,note_on,0,0,4,,,,,,,,0,,,61,0
104496,note_on,0,0,2,,,,,,,,0,,,73,0
104496,note_on,0,0,2,,,,,,,,0,,,81,0
104496,note_on,0,0,4,,,,,,,,0,,,69,0
104496,note_on,96,0,2,,,,,,,,0,,,78,0
104496,note_on,96,0,4,,,,,,,,0,,,66,0
104580,note_on,0,0,4,,,,,,,,0,,,66,80
104580,note_on,0,0,2,,,,,,,,0,,,69,80
104580,note_on,84,0,4,,,,,,,,0,,,57,80
104580,note_on,84,0,2,,,,,,,,0,,,73,80
104580,note_on,0,0,2,,,,,,,,0,,,78,80
104580,note_on,0,0,4,,,,,,,,0,,,61,80
104628,note_on,48,0,4,,,,,,,,0,,,61,0
104628,note_on,48,0,2,,,,,,,,0,,,78,0
104628,note_on,0,0,2,,,,,,,,0,,,73,0
104628,note_on,0,0,2,,,,,,,,0,,,69,0
104628,note_on,0,0,4,,,,,,,,0,,,66,0
104628,note_on,0,0,4,,,,,,,,0,,,57,0
104640,note_on,12,0,4,,,,,,,,0,,,57,80
104640,note_on,0,0,4,,,,,,,,0,,,66,80
104640,note_on,0,0,4,,,,,,,,0,,,61,80
104640,note_on,12,0,2,,,,,,,,0,,,69,80
104640,note_on,0,0,2,,,,,,,,0,,,78,80
104640,note_on,0,0,2,,,,,,,,0,,,73,80
104736,note_on,96,0,4,,,,,,,,0,,,66,0
104736,note_on,0,0,2,,,,,,,,0,,,78,0
104736,note_on,0,0,2,,,,,,,,0,,,69,0
104736,note_on,0,0,4,,,,,,,,0,,,57,0
104736,note_on,0,0,4,,,,,,,,0,,,61,0
104736,note_on,96,0,2,,,,,,,,0,,,73,0
104760,note_on,0,0,2,,,,,,,,0,,,66,80
104760,note_on,0,0,2,,,,,,,,0,,,73,80
104760,note_on,0,0,4,,,,,,,,0,,,57,80
104760,note_on,0,0,4,,,,,,,,0,,,61,80
104760,note_on,24,0,2,,,,,,,,0,,,69,80
104760,note_on,24,0,4,,,,,,,,0,,,54,80
104856,note_on,0,0,2,,,,,,,,0,,,69,0
104856,note_on,0,0,2,,,,,,,,0,,,66,0
104856,note_on,0,0,4,,,,,,,,0,,,54,0
104856,note_on,0,0,4,,,,,,,,0,,,61,0
104856,note_on,96,0,2,,,,,,,,0,,,73,0
104856,note_on,96,0,4,,,,,,,,0,,,57,0
104940,note_on,84,0,2,,,,,,,,0,,,69,80
104940,note_on,0,0,4,,,,,,,,0,,,54,80
104940,note_on,0,0,4,,,,,,,,0,,,57,80
104940,note_on,84,0,4,,,,,,,,0,,,49,80
104940,note_on,0,0,2,,,,,,,,0,,,61,80
104940,note_on,0,0,2,,,,,,,,0,,,66,80
104951,control_change,11,0,4,,,,,,,,0,64,0,,
104988,note_on,0,0,2,,,,,,,,0,,,69,0
104988,note_on,37,0,4,,,,,,,,0,,,54,0
104988,note_on,48,0,2,,,,,,,,0,,,61,0
104988,note_on,0,0,2,,,,,,,,0,,,66,0
104988,note_on,0,0,4,,,,,,,,0,,,49,0
104988,note_on,0,0,4,,,,,,,,0,,,57,0
105000,note_on,0,0,2,,,,,,,,0,,,69,80
105000,note_on,0,0,4,,,,,,,,0,,,49,80
105000,note_on,0,0,4,,,,,,,,0,,,54,80
105000,note_on,12,0,2,,,,,,,,0,,,61,80
105000,note_on,0,0,2,,,,,,,,0,,,66,80
105000,note_on,12,0,4,,,,,,,,0,,,57,80
105096,note_on,0,0,4,,,,,,,,0,,,54,0
105096,note_on,0,0,2,,,,,,,,0,,,61,0
105096,note_on,0,0,2,,,,,,,,0,,,66,0
105096,note_on,96,0,4,,,,,,,,0,,,49,0
105096,note_on,96,0,2,,,,,,,,0,,,69,0
105096,note_on,0,0,4,,,,,,,,0,,,57,0
105120,note_on,744,0,3,,,,,,,,0,,,50,75
105120,control_change,0,0,4,,,,,,,,0,64,127,,
105120,note_on,24,0,4,,,,,,,,0,,,38,80
105144,note_on,24,0,3,,,,,,,,0,,,50,0
105150,note_on,6,0,3,,,,,,,,0,,,52,75
105174,note_on,24,0,3,,,,,,,,0,,,52,0
105180,note_on,6,0,3,,,,,,,,0,,,54,75
105204,note_on,24,0,3,,,,,,,,0,,,54,0
105210,note_on,6,0,3,,,,,,,,0,,,55,75
105216,note_on,96,0,4,,,,,,,,0,,,38,0
105234,note_on,24,0,3,,,,,,,,0,,,55,0
105240,note_on,6,0,3,,,,,,,,0,,,57,75
105240,note_on,24,0,4,,,,,,,,0,,,45,80
105264,note_on,24,0,3,,,,,,,,0,,,57,0
105270,note_on,6,0,3,,,,,,,,0,,,50,75
105294,note_on,24,0,3,,,,,,,,0,,,50,0
105300,note_on,6,0,3,,,,,,,,0,,,52,75
105324,note_on,24,0,3,,,,,,,,0,,,52,0
105330,note_on,6,0,3,,,,,,,,0,,,54,75
105336,note_on,96,0,4,,,,,,,,0,,,45,0
105354,note_on,24,0,3,,,,,,,,0,,,54,0
105360,note_on,6,0,3,,,,,,,,0,,,55,75
105360,note_on,24,0,4,,,,,,,,0,,,43,80
105384,note_on,24,0,3,,,,,,,,0,,,55,0
105390,note_on,6,0,3,,,,,,,,0,,,57,75
105414,note_on,24,0,3,,,,,,,,0,,,57,0
105420,note_on,6,0,3,,,,,,,,0,,,50,75
105444,note_on,24,0,3,,,,,,,,0,,,50,0
105450,note_on,6,0,3,,,,,,,,0,,,52,75
105456,note_on,96,0,4,,,,,,,,0,,,43,0
105474,note_on,24,0,3,,,,,,,,0,,,52,0
105480,note_on,6,0,3,,,,,,,,0,,,54,75
105480,note_on,24,0,4,,,,,,,,0,,,42,80
105504,note_on,24,0,3,,,,,,,,0,,,54,0
105510,note_on,6,0,3,,,,,,,,0,,,55,75
105534,note_on,24,0,3,,,,,,,,0,,,55,0
105540,note_on,6,0,3,,,,,,,,0,,,57,75
105564,note_on,24,0,3,,,,,,,,0,,,57,0
105570,note_on,6,0,3,,,,,,,,0,,,50,75
105576,note_on,96,0,4,,,,,,,,0,,,42,0
105594,note_on,24,0,3,,,,,,,,0,,,50,0
105600,note_on,6,0,3,,,,,,,,0,,,52,75
105600,note_on,24,0,4,,,,,,,,0,,,40,80
105624,note_on,24,0,3,,,,,,,,0,,,52,0
105630,note_on,6,0,3,,,,,,,,0,,,54,75
105654,note_on,24,0,3,,,,,,,,0,,,54,0
105660,note_on,6,0,3,,,,,,,,0,,,55,75
105684,note_on,24,0,3,,,,,,,,0,,,55,0
105690,note_on,6,0,3,,,,,,,,0,,,57,75
105696,note_on,96,0,4,,,,,,,,0,,,40,0
105697,control_change,1,0,4,,,,,,,,0,64,0,,
105714,note_on,24,0,3,,,,,,,,0,,,57,0
105720,note_on,23,0,4,,,,,,,,0,,,38,80
105720,note_on,6,0,3,,,,,,,,0,,,50,75
105816,note_on,96,0,4,,,,,,,,0,,,38,0
105816,note_on,96,0,3,,,,,,,,0,,,50,0
105840,control_change,0,0,4,,,,,,,,0,64,127,,
105840,note_on,24,0,4,,,,,,,,0,,,70,80
105840,note_on,744,0,2,,,,,,,,0,,,79,80
105840,note_on,0,0,2,,,,,,,,0,,,82,80
105840,note_on,0,0,2,,,,,,,,0,,,74,80
105840,note_on,0,0,4,,,,,,,,0,,,62,80
105840,note_on,0,0,4,,,,,,,,0,,,67,80
105936,note_on,0,0,4,,,,,,,,0,,,62,0
105936,note_on,96,0,4,,,,,,,,0,,,67,0
105936,note_on,0,0,4,,,,,,,,0,,,70,0
105936,note_on,96,0,2,,,,,,,,0,,,82,0
105936,note_on,0,0,2,,,,,,,,0,,,74,0
105936,note_on,0,0,2,,,,,,,,0,,,79,0
106020,note_on,0,0,4,,,,,,,,0,,,58,80
106020,note_on,0,0,4,,,,,,,,0,,,62,80
106020,note_on,84,0,4,,,,,,,,0,,,67,80
106020,note_on,84,0,2,,,,,,,,0,,,79,80
106020,note_on,0,0,2,,,,,,,,0,,,70,80
106020,note_on,0,0,2,,,,,,,,0,,,74,80
106068,note_on,48,0,2,,,,,,,,0,,,70,0
106068,note_on,0,0,2,,,,,,,,0,,,79,0
106068,note_on,48,0,4,,,,,,,,0,,,58,0
106068,note_on,0,0,4,,,,,,,,0,,,62,0
106068,note_on,0,0,4,,,,,,,,0,,,67,0
106068,note_on,0,0,2,,,,,,,,0,,,74,0
106080,note_on,0,0,4,,,,,,,,0,,,67,80
106080,note_on,0,0,4,,,,,,,,0,,,58,80
106080,note_on,12,0,4,,,,,,,,0,,,62,80
106080,note_on,0,0,2,,,,,,,,0,,,70,80
106080,note_on,0,0,2,,,,,,,,0,,,79,80
106080,note_on,12,0,2,,,,,,,,0,,,74,80
106176,note_on,0,0,4,,,,,,,,0,,,62,0
106176,note_on,96,0,2,,,,,,,,0,,,70,0
106176,note_on,0,0,2,,,,,,,,0,,,79,0
106176,note_on,96,0,4,,,,,,,,0,,,58,0
106176,note_on,0,0,2,,,,,,,,0,,,74,0
106176,note_on,0,0,4,,,,,,,,0,,,67,0
106200,note_on,24,0,2,,,,,,,,0,,,74,80
106200,note_on,24,0,4,,,,,,,,0,,,55,80
106200,note_on,0,0,2,,,,,,,,0,,,67,80
106200,note_on,0,0,4,,,,,,,,0,,,58,80
106200,note_on,0,0,4,,,,,,,,0,,,62,80
106200,note_on,0,0,2,,,,,,,,0,,,70,80
106296,note_on,0,0,2,,,,,,,,0,,,74,0
106296,note_on,0,0,4,,,,,,,,0,,,62,0
106296,note_on,0,0,4,,,,,,,,0,,,55,0
106296,note_on,96,0,4,,,,,,,,0,,,58,0
106296,note_on,96,0,2,,,,,,,,0,,,67,0
106296,note_on,0,0,2,,,,,,,,0,,,70,0
106380,note_on,0,0,2,,,,,,,,0,,,70,80
106380,note_on,0,0,4,,,,,,,,0,,,50,80
106380,note_on,84,0,4,,,,,,,,0,,,58,80
106380,note_on,84,0,2,,,,,,,,0,,,67,80
106380,control_change,0,0,4,,,,,,,,0,64,0,,
106380,note_on,0,0,4,,,,,,,,0,,,55,80
106380,note_on,0,0,2,,,,,,,,0,,,62,80
106428,note_on,0,0,2,,,,,,,,0,,,67,0
106428,note_on,48,0,2,,,,,,,,0,,,70,0
106428,note_on,48,0,4,,,,,,,,0,,,50,0
106428,note_on,0,0,4,,,,,,,,0,,,58,0
106428,note_on,0,0,2,,,,,,,,0,,,62,0
106428,note_on,0,0,4,,,,,,,,0,,,55,0
106440,note_on,0,0,4,,,,,,,,0,,,55,80
106440,note_on,12,0,4,,,,,,,,0,,,50,80
106440,note_on,0,0,2,,,,,,,,0,,,67,80
106440,note_on,0,0,2,,,,,,,,0,,,70,80
106440,note_on,12,0,2,,,,,,,,0,,,62,80
106440,note_on,0,0,4,,,,,,,,0,,,58,80
106536,note_on,0,0,4,,,,,,,,0,,,50,0
106536,note_on,96,0,4,,,,,,,,0,,,55,0
106536,note_on,0,0,2,,,,,,,,0,,,62,0
106536,note_on,96,0,2,,,,,,,,0,,,70,0
106536,note_on,0,0,2,,,,,,,,0,,,67,0
106536,note_on,0,0,4,,,,,,,,0,,,58,0
106560,control_change,0,0,4,,,,,,,,0,64,127,,
106560,note_on,24,0,4,,,,,,,,0,,,39,80
106560,note_on,744,0,3,,,,,,,,0,,,51,73
106584,note_on,24,0,3,,,,,,,,0,,,51,0
106590,note_on,6,0,3,,,,,,,,0,,,53,73
106614,note_on,24,0,3,,,,,,,,0,,,53,0
106620,note_on,6,0,3,,,,,,,,0,,,55,73
106644,note_on,24,0,3,,,,,,,,0,,,55,0
106650,note_on,6,0,3,,,,,,,,0,,,56,73
106656,note_on,96,0,4,,,,,,,,0,,,39,0
106674,note_on,24,0,3,,,,,,,,0,,,56,0
106680,note_on,6,0,3,,,,,,,,0,,,58,73
106680,note_on,24,0,4,,,,,,,,0,,,46,80
106704,note_on,24,0,3,,,,,,,,0,,,58,0
106710,note_on,6,0,3,,,,,,,,0,,,51,73
106734,note_on,24,0,3,,,,,,,,0,,,51,0
106740,note_on,6,0,3,,,,,,,,0,,,53,73
106764,note_on,24,0,3,,,,,,,,0,,,53,0
106770,note_on,6,0,3,,,,,,,,0,,,55,73
106776,note_on,96,0,4,,,,,,,,0,,,46,0
106794,note_on,24,0,3,,,,,,,,0,,,55,0
106800,note_on,6,0,3,,,,,,,,0,,,56,73
106800,note_on,24,0,4,,,,,,,,0,,,44,80
106824,note_on,24,0,3,,,,,,,,0,,,56,0
106830,note_on,6,0,3,,,,,,,,0,,,58,73
106854,note_on,24,0,3,,,,,,,,0,,,58,0
106860,note_on,6,0,3,,,,,,,,0,,,51,73
106884,note_on,24,0,3,,,,,,,,0,,,51,0
106890,note_on,6,0,3,,,,,,,,0,,,53,73
106896,note_on,96,0,4,,,,,,,,0,,,44,0
106914,note_on,24,0,3,,,,,,,,0,,,53,0
106920,note_on,6,0,3,,,,,,,,0,,,55,73
106920,note_on,24,0,4,,,,,,,,0,,,43,80
106944,note_on,24,0,3,,,,,,,,0,,,55,0
106950,note_on,6,0,3,,,,,,,,0,,,56,73
106974,note_on,24,0,3,,,,,,,,0,,,56,0
106980,note_on,6,0,3,,,,,,,,0,,,58,73
107004,note_on,24,0,3,,,,,,,,0,,,58,0
107010,note_on,6,0,3,,,,,,,,0,,,51,73
107016,note_on,96,0,4,,,,,,,,0,,,43,0
107034,note_on,24,0,3,,,,,,,,0,,,51,0
107040,note_on,6,0,3,,,,,,,,0,,,53,73
107040,note_on,24,0,4,,,,,,,,0,,,41,80
107064,note_on,24,0,3,,,,,,,,0,,,53,0
107070,note_on,6,0,3,,,,,,,,0,,,55,73
107094,note_on,24,0,3,,,,,,,,0,,,55,0
107100,note_on,6,0,3,,,,,,,,0,,,56,73
107124,note_on,24,0,3,,,,,,,,0,,,56,0
107128,control_change,88,0,4,,,,,,,,0,64,0,,
107130,note_on,6,0,3,,,,,,,,0,,,58,73
107136,note_on,8,0,4,,,,,,,,0,,,41,0
107154,note_on,24,0,3,,,,,,,,0,,,58,0
107160,note_on,6,0,3,,,,,,,,0,,,51,73
107160,note_on,24,0,4,,,,,,,,0,,,39,80
107256,note_on,96,0,4,,,,,,,,0,,,39,0
107256,note_on,96,0,3,,,,,,,,0,,,51,0
107280,note_on,0,0,4,,,,,,,,0,,,63,80
107280,note_on,0,0,4,,,,,,,,0,,,68,80
107280,note_on,0,0,2,,,,,,,,0,,,80,80
107280,note_on,0,0,4,,,,,,,,0,,,71,80
107280,note_on,0,0,2,,,,,,,,0,,,83,80
107280,note_on,744,0,2,,,,,,,,0,,,75,80
107280,control_change,24,0,4,,,,,,,,0,64,127,,
107376,note_on,0,0,2,,,,,,,,0,,,80,0
107376,note_on,96,0,4,,,,,,,,0,,,71,0
107376,note_on,96,0,2,,,,,,,,0,,,83,0
107376,note_on,0,0,4,,,,,,,,0,,,63,0
107376,note_on,0,0,4,,,,,,,,0,,,68,0
107376,note_on,0,0,2,,,,,,,,0,,,75,0
107460,note_on,0,0,4,,,,,,,,0,,,68,80
107460,note_on,0,0,4,,,,,,,,0,,,59,80
107460,note_on,0,0,2,,,,,,,,0,,,71,80
107460,note_on,0,0,2,,,,,,,,0,,,75,80
107460,note_on,84,0,2,,,,,,,,0,,,80,80
107460,note_on,84,0,4,,,,,,,,0,,,63,80
107508,note_on,0,0,4,,,,,,,,0,,,59,0
107508,note_on,48,0,4,,,,,,,,0,,,68,0
107508,note_on,48,0,2,,,,,,,,0,,,71,0
107508,note_on,0,0,2,,,,,,,,0,,,75,0
107508,note_on,0,0,4,,,,,,,,0,,,63,0
107508,note_on,0,0,2,,,,,,,,0,,,80,0
107520,note_on,12,0,2,,,,,,,,0,,,75,80
107520,note_on,12,0,4,,,,,,,,0,,,63,80
107520,note_on,0,0,2,,,,,,,,0,,,80,80
107520,note_on,0,0,4,,,,,,,,0,,,68,80
107520,note_on,0,0,2,,,,,,,,0,,,71,80
107520,note_on,0,0,4,,,,,,,,0,,,59,80
107616,note_on,0,0,4,,,,,,,,0,,,63,0
107616,note_on,0,0,4,,,,,,,,0,,,59,0
107616,note_on,0,0,2,,,,,,,,0,,,80,0
107616,note_on,96,0,2,,,,,,,,0,,,71,0
107616,note_on,96,0,4,,,,,,,,0,,,68,0
107616,note_on,0,0,2,,,,,,,,0,,,75,0
107640,note_on,0,0,2,,,,,,,,0,,,68,80
107640,note_on,0,0,4,,,,,,,,0,,,59,80
107640,note_on,0,0,2,,,,,,,,0,,,71,80
107640,note_on,24,0,4,,,,,,,,0,,,56,80
107640,note_on,0,0,4,,,,,,,,0,,,63,80
107640,note_on,24,0,2,,,,,,,,0,,,75,80
107736,note_on,0,0,2,,,,,,,,0,,,75,0
107736,note_on,0,0,4,,,,,,,,0,,,56,0
107736,note_on,0,0,4,,,,,,,,0,,,59,0
107736,note_on,96,0,2,,,,,,,,0,,,68,0
107736,note_on,0,0,2,,,,,,,,0,,,71,0
107736,note_on,96,0,4,,,,,,,,0,,,63,0
107820,note_on,0,0,2,,,,,,,,0,,,63,80
107820,note_on,0,0,4,,,,,,,,0,,,56,80
107820,note_on,84,0,2,,,,,,,,0,,,68,80
107820,note_on,0,0,4,,,,,,,,0,,,59,80
107820,note_on,0,0,2,,,,,,,,0,,,71,80
107820,note_on,84,0,4,,,,,,,,0,,,51,80
107848,control_change,28,0,4,,,,,,,,0,64,0,,
107868,note_on,20,0,4,,,,,,,,0,,,56,0
107868,note_on,0,0,4,,,,,,,,0,,,51,0
107868,note_on,0,0,4,,,,,,,,0,,,59,0
107868,note_on,0,0,2,,,,,,,,0,,,68,0
107868,note_on,0,0,2,,,,,,,,0,,,63,0
107868,note_on,48,0,2,,,,,,,,0,,,71,0
107880,note_on,0,0,2,,,,,,,,0,,,71,80
107880,note_on,0,0,2,,,,,,,,0,,,68,80
107880,note_on,0,0,4,,,,,,,,0,,,51,80
107880,note_on,0,0,4,,,,,,,,0,,,56,80
107880,note_on,12,0,4,,,,,,,,0,,,59,80
107880,note_on,12,0,2,,,,,,,,0,,,63,80
107976,note_on,96,0,4,,,,,,,,0,,,56,0
107976,note_on,0,0,4,,,,,,,,0,,,59,0
107976,note_on,0,0,4,,,,,,,,0,,,51,0
107976,note_on,0,0,2,,,,,,,,0,,,68,0
107976,note_on,0,0,2,,,,,,,,0,,,63,0
107976,note_on,96,0,2,,,,,,,,0,,,71,0
108000,note_on,0,0,4,,,,,,,,0,,,52,80
108000,note_on,0,0,2,,,,,,,,0,,,76,80
108000,note_on,0,0,4,,,,,,,,0,,,59,80
108000,note_on,0,0,2,,,,,,,,0,,,88,80
108000,note_on,24,0,4,,,,,,,,0,,,64,80
108000,note_on,24,0,2,,,,,,,,0,,,80,80
108000,control_change,0,0,4,,,,,,,,0,64,127,,
108096,note_on,0,0,4,,,,,,,,0,,,64,0
108096,note_on,0,0,2,,,,,,,,0,,,76,0
108096,note_on,0,0,2,,,,,,,,0,,,80,0
108096,note_on,96,0,4,,,,,,,,0,,,59,0
108096,note_on,0,0,4,,,,,,,,0,,,52,0
108096,note_on,96,0,2,,,,,,,,0,,,88,0
108180,note_on,84,0,2,,,,,,,,0,,,76,80
108180,note_on,0,0,2,,,,,,,,0,,,71,80
108180,note_on,0,0,2,,,,,,,,0,,,83,80
108180,note_on,0,0,4,,,,,,,,0,,,59,80
108180,note_on,84,0,4,,,,,,,,0,,,56,80
108228,note_on,0,0,2,,,,,,,,0,,,76,0
108228,note_on,0,0,2,,,,,,,,0,,,83,0
108228,note_on,48,0,2,,,,,,,,0,,,71,0
108228,note_on,48,0,4,,,,,,,,0,,,59,0
108228,note_on,0,0,4,,,,,,,,0,,,56,0
108240,note_on,12,0,2,,,,,,,,0,,,83,80
108240,note_on,0,0,2,,,,,,,,0,,,76,80
108240,note_on,0,0,2,,,,,,,,0,,,71,80
108240,note_on,12,0,4,,,,,,,,0,,,56,80
108240,note_on,0,0,4,,,,,,,,0,,,59,80
108336,note_on,0,0,4,,,,,,,,0,,,56,0
108336,note_on,96,0,4,,,,,,,,0,,,59,0
108336,note_on,0,0,2,,,,,,,,0,,,83,0
108336,note_on,0,0,2,,,,,,,,0,,,71,0
108336,note_on,96,0,2,,,,,,,,0,,,76,0
108360,note_on,0,0,2,,,,,,,,0,,,68,80
108360,note_on,24,0,4,,,,,,,,0,,,59,80
108360,note_on,0,0,4,,,,,,,,0,,,64,80
108360,note_on,24,0,2,,,,,,,,0,,,71,80
108360,note_on,0,0,2,,,,,,,,0,,,80,80
108456,note_on,0,0,2,,,,,,,,0,,,68,0
108456,note_on,96,0,4,,,,,,,,0,,,64,0
108456,note_on,96,0,2,,,,,,,,0,,,80,0
108456,note_on,0,0,2,,,,,,,,0,,,71,0
108456,note_on,0,0,4,,,,,,,,0,,,59,0
108540,note_on,0,0,2,,,,,,,,0,,,64,81
108540,note_on,0,0,2,,,,,,,,0,,,68,81
108540,note_on,0,0,4,,,,,,,,0,,,56,81
108540,note_on,84,0,4,,,,,,,,0,,,59,81
108540,note_on,84,0,2,,,,,,,,0,,,76,81
108558,control_change,18,0,4,,,,,,,,0,64,0,,
108588,note_on,0,0,2,,,,,,,,0,,,64,0
108588,note_on,0,0,2,,,,,,,,0,,,76,0
108588,note_on,0,0,4,,,,,,,,0,,,59,0
108588,note_on,30,0,4,,,,,,,,0,,,56,0
108588,note_on,48,0,2,,,,,,,,0,,,68,0
108600,note_on,0,0,2,,,,,,,,0,,,68,81
108600,note_on,12,0,4,,,,,,,,0,,,59,81
108600,note_on,12,0,2,,,,,,,,0,,,64,81
108600,note_on,0,0,4,,,,,,,,0,,,56,81
108600,note_on,0,0,2,,,,,,,,0,,,76,81
108696,note_on,0,0,2,,,,,,,,0,,,76,0
108696,note_on,96,0,4,,,,,,,,0,,,56,0
108696,note_on,0,0,2,,,,,,,,0,,,64,0
108696,note_on,96,0,2,,,,,,,,0,,,68,0
108696,note_on,0,0,4,,,,,,,,0,,,59,0
108720,note_on,0,0,2,,,,,,,,0,,,76,81
108720,note_on,0,0,2,,,,,,,,0,,,81,81
108720,note_on,24,0,4,,,,,,,,0,,,45,81
108720,note_on,24,0,2,,,,,,,,0,,,88,81
108720,note_on,0,0,4,,,,,,,,0,,,52,81
108720,note_on,0,0,4,,,,,,,,0,,,60,81
108729,control_change,9,0,4,,,,,,,,0,64,127,,
108816,note_on,87,0,4,,,,,,,,0,,,52,0
108816,note_on,0,0,4,,,,,,,,0,,,60,0
108816,note_on,0,0,4,,,,,,,,0,,,45,0
108816,note_on,0,0,2,,,,,,,,0,,,88,0
108816,note_on,0,0,2,,,,,,,,0,,,76,0
108816,note_on,96,0,2,,,,,,,,0,,,81,0
108900,note_on,84,0,2,,,,,,,,0,,,84,81
108900,note_on,0,0,2,,,,,,,,0,,,76,81
108900,note_on,0,0,2,,,,,,,,0,,,72,81
108900,note_on,0,0,4,,,,,,,,0,,,60,81
108900,note_on,84,0,4,,,,,,,,0,,,57,81
108948,note_on,0,0,2,,,,,,,,0,,,72,0
108948,note_on,0,0,2,,,,,,,,0,,,84,0
108948,note_on,0,0,4,,,,,,,,0,,,57,0
108948,note_on,48,0,2,,,,,,,,0,,,76,0
108948,note_on,48,0,4,,,,,,,,0,,,60,0
108960,note_on,0,0,2,,,,,,,,0,,,72,81
108960,note_on,0,0,4,,,,,,,,0,,,60,81
108960,note_on,12,0,4,,,,,,,,0,,,57,81
108960,note_on,12,0,2,,,,,,,,0,,,84,81
108960,note_on,0,0,2,,,,,,,,0,,,76,81
109056,note_on,0,0,4,,,,,,,,0,,,57,0
109056,note_on,96,0,2,,,,,,,,0,,,76,0
109056,note_on,0,0,2,,,,,,,,0,,,72,0
109056,note_on,0,0,2,,,,,,,,0,,,84,0
109056,note_on,96,0,4,,,,,,,,0,,,60,0
109080,note_on,24,0,2,,,,,,,,0,,,81,82
109080,note_on,24,0,4,,,,,,,,0,,,60,82
109080,note_on,0,0,2,,,,,,,,0,,,69,82
109080,note_on,0,0,2,,,,,,,,0,,,72,82
109080,note_on,0,0,4,,,,,,,,0,,,64,82
109176,note_on,0,0,4,,,,,,,,0,,,60,0
109176,note_on,0,0,2,,,,,,,,0,,,69,0
109176,note_on,0,0,2,,,,,,,,0,,,81,0
109176,note_on,96,0,2,,,,,,,,0,,,72,0
109176,note_on,96,0,4,,,,,,,,0,,,64,0
109260,note_on,84,0,4,,,,,,,,0,,,60,82
109260,note_on,0,0,4,,,,,,,,0,,,57,82
109260,note_on,84,0,2,,,,,,,,0,,,76,82
109260,note_on,0,0,2,,,,,,,,0,,,64,82
109260,note_on,0,0,2,,,,,,,,0,,,69,82
109283,control_change,23,0,4,,,,,,,,0,64,0,,
109308,note_on,48,0,2,,,,,,,,0,,,69,0
109308,note_on,25,0,4,,,,,,,,0,,,57,0
109308,note_on,0,0,4,,,,,,,,0,,,60,0
109308,note_on,0,0,2,,,,,,,,0,,,64,0
109308,note_on,0,0,2,,,,,,,,0,,,76,0
109320,note_on,12,0,2,,,,,,,,0,,,64,82
109320,note_on,0,0,2,,,,,,,,0,,,76,82
109320,note_on,12,0,4,,,,,,,,0,,,57,82
109320,note_on,0,0,2,,,,,,,,0,,,69,82
109320,note_on,0,0,4,,,,,,,,0,,,60,82
109416,note_on,0,0,2,,,,,,,,0,,,76,0
109416,note_on,96,0,2,,,,,,,,0,,,69,0
109416,note_on,96,0,4,,,,,,,,0,,,60,0
109416,note_on,0,0,4,,,,,,,,0,,,57,0
109416,note_on,0,0,2,,,,,,,,0,,,64,0
109440,note_on,0,0,2,,,,,,,,0,,,81,82
109440,note_on,0,0,2,,,,,,,,0,,,77,82
109440,control_change,0,0,4,,,,,,,,0,64,127,,
109440,note_on,24,0,4,,,,,,,,0,,,57,82
109440,note_on,0,0,4,,,,,,,,0,,,48,82
109440,note_on,0,0,4,,,,,,,,0,,,41,82
109440,note_on,24,0,2,,,,,,,,0,,,89,82
109536,note_on,0,0,4,,,,,,,,0,,,41,0
109536,note_on,0,0,4,,,,,,,,0,,,57,0
109536,note_on,96,0,4,,,,,,,,0,,,48,0
109536,note_on,0,0,2,,,,,,,,0,,,89,0
109536,note_on,0,0,2,,,,,,,,0,,,81,0
109536,note_on,96,0,2,,,,,,,,0,,,77,0
109620,note_on,0,0,2,,,,,,,,0,,,84,83
109620,note_on,84,0,4,,,,,,,,0,,,57,83
109620,note_on,0,0,4,,,,,,,,0,,,60,83
109620,note_on,84,0,2,,,,,,,,0,,,72,83
109620,note_on,0,0,4,,,,,,,,0,,,53,83
109620,note_on,0,0,2,,,,,,,,0,,,77,83
109668,note_on,0,0,4,,,,,,,,0,,,60,0
109668,note_on,0,0,4,,,,,,,,0,,,57,0
109668,note_on,48,0,4,,,,,,,,0,,,53,0
109668,note_on,0,0,2,,,,,,,,0,,,84,0
109668,note_on,48,0,2,,,,,,,,0,,,77,0
109668,note_on,0,0,2,,,,,,,,0,,,72,0
109680,note_on,0,0,2,,,,,,,,0,,,84,83
109680,note_on,12,0,2,,,,,,,,0,,,72,83
109680,note_on,0,0,2,,,,,,,,0,,,77,83
109680,note_on,12,0,4,,,,,,,,0,,,57,83
109680,note_on,0,0,4,,,,,,,,0,,,60,83
109680,note_on,0,0,4,,,,,,,,0,,,53,83
109776,note_on,0,0,2,,,,,,,,0,,,84,0
109776,note_on,0,0,4,,,,,,,,0,,,57,0
109776,note_on,0,0,4,,,,,,,,0,,,53,0
109776,note_on,96,0,2,,,,,,,,0,,,77,0
109776,note_on,96,0,4,,,,,,,,0,,,60,0
109776,note_on,0,0,2,,,,,,,,0,,,72,0
109800,note_on,0,0,2,,,,,,,,0,,,69,83
109800,note_on,24,0,4,,,,,,,,0,,,57,83
109800,note_on,24,0,2,,,,,,,,0,,,72,83
109800,note_on,0,0,2,,,,,,,,0,,,81,83
109800,note_on,0,0,4,,,,,,,,0,,,65,83
109800,note_on,0,0,4,,,,,,,,0,,,60,83
109896,note_on,0,0,4,,,,,,,,0,,,65,0
109896,note_on,0,0,2,,,,,,,,0,,,72,0
109896,note_on,0,0,2,,,,,,,,0,,,69,0
109896,note_on,0,0,4,,,,,,,,0,,,57,0
109896,note_on,96,0,2,,,,,,,,0,,,81,0
109896,note_on,96,0,4,,,,,,,,0,,,60,0
109980,note_on,0,0,4,,,,,,,,0,,,53,83
109980,note_on,0,0,4,,,,,,,,0,,,60,83
109980,note_on,84,0,4,,,,,,,,0,,,57,83
109980,note_on,0,0,2,,,,,,,,0,,,69,83
109980,note_on,0,0,2,,,,,,,,0,,,65,83
109980,note_on,84,0,2,,,,,,,,0,,,77,83
109994,control_change,14,0,4,,,,,,,,0,64,0,,
110028,note_on,48,0,2,,,,,,,,0,,,65,0
110028,note_on,0,0,4,,,,,,,,0,,,57,0
110028,note_on,0,0,4,,,,,,,,0,,,60,0
110028,note_on,0,0,2,,,,,,,,0,,,69,0
110028,note_on,0,0,2,,,,,,,,0,,,77,0
110028,note_on,34,0,4,,,,,,,,0,,,53,0
110040,note_on,0,0,2,,,,,,,,0,,,69,83
110040,note_on,0,0,4,,,,,,,,0,,,53,83
110040,note_on,0,0,4,,,,,,,,0,,,57,83
110040,note_on,12,0,2,,,,,,,,0,,,65,83
110040,note_on,0,0,2,,,,,,,,0,,,77,83
110040,note_on,12,0,4,,,,,,,,0,,,60,83
110136,note_on,96,0,4,,,,,,,,0,,,57,0
110136,note_on,0,0,2,,,,,,,,0,,,65,0
110136,note_on,0,0,2,,,,,,,,0,,,77,0
110136,note_on,0,0,4,,,,,,,,0,,,60,0
110136,note_on,96,0,2,,,,,,,,0,,,69,0
110136,note_on,0,0,4,,,,,,,,0,,,53,0
110160,note_on,0,0,2,,,,,,,,0,,,80,84
110160,note_on,24,0,2,,,,,,,,0,,,77,84
110160,note_on,0,0,2,,,,,,,,0,,,89,84
110160,note_on,0,0,4,,,,,,,,0,,,56,84
110160,note_on,24,0,4,,,,,,,,0,,,61,84
110160,note_on,0,0,4,,,,,,,,0,,,49,84
110164,control_change,4,0,4,,,,,,,,0,64,127,,
110256,note_on,92,0,4,,,,,,,,0,,,49,0
110256,note_on,0,0,4,,,,,,,,0,,,61,0
110256,note_on,96,0,2,,,,,,,,0,,,89,0
110256,note_on,0,0,2,,,,,,,,0,,,77,0
110256,note_on,0,0,2,,,,,,,,0,,,80,0
110256,note_on,0,0,4,,,,,,,,0,,,56,0
110340,note_on,0,0,4,,,,,,,,0,,,53,84
110340,note_on,84,0,4,,,,,,,,0,,,65,84
110340,note_on,0,0,2,,,,,,,,0,,,73,84
110340,note_on,84,0,2,,,,,,,,0,,,85,84
110388,note_on,0,0,2,,,,,,,,0,,,85,0
110388,note_on,48,0,4,,,,,,,,0,,,53,0
110388,note_on,48,0,2,,,,,,,,0,,,73,0
110388,note_on,0,0,4,,,,,,,,0,,,65,0
110400,note_on,12,0,4,,,,,,,,0,,,53,84
110400,note_on,0,0,4,,,,,,,,0,,,65,84
110400,note_on,0,0,2,,,,,,,,0,,,85,84
110400,note_on,12,0,2,,,,,,,,0,,,73,84
110485,control_change,85,0,4,,,,,,,,0,64,0,,
110496,note_on,96,0,2,,,,,,,,0,,,85,0
110496,note_on,11,0,4,,,,,,,,0,,,65,0
110496,note_on,0,0,2,,,,,,,,0,,,73,0
110496,note_on,0,0,4,,,,,,,,0,,,53,0
110520,note_on,24,0,2,,,,,,,,0,,,85,84
110520,note_on,0,0,4,,,,,,,,0,,,58,84
110520,note_on,0,0,2,,,,,,,,0,,,77,84
110520,note_on,0,0,4,,,,,,,,0,,,49,84
110520,note_on,0,0,4,,,,,,,,0,,,46,84
110520,note_on,0,0,2,,,,,,,,0,,,82,84
110520,note_on,24,0,4,,,,,,,,0,,,53,84
110520,control_change,0,0,4,,,,,,,,0,64,127,,
110520,note_on,0,0,2,,,,,,,,0,,,89,84
110616,note_on,0,0,4,,,,,,,,0,,,46,0
110616,note_on,0,0,2,,,,,,,,0,,,77,0
110616,note_on,0,0,4,,,,,,,,0,,,53,0
110616,note_on,0,0,2,,,,,,,,0,,,89,0
110616,note_on,0,0,4,,,,,,,,0,,,49,0
110616,note_on,96,0,4,,,,,,,,0,,,58,0
110616,note_on,96,0,2,,,,,,,,0,,,82,0
110616,note_on,0,0,2,,,,,,,,0,,,85,0
110700,note_on,84,0,2,,,,,,,,0,,,73,84
110700,note_on,84,0,4,,,,,,,,0,,,61,84
110700,note_on,0,0,4,,,,,,,,0,,,49,84
110700,note_on,0,0,2,,,,,,,,0,,,85,84
110748,note_on,0,0,4,,,,,,,,0,,,61,0
110748,note_on,0,0,2,,,,,,,,0,,,73,0
110748,note_on,48,0,2,,,,,,,,0,,,85,0
110748,note_on,48,0,4,,,,,,,,0,,,49,0
110760,note_on,12,0,2,,,,,,,,0,,,73,84
110760,note_on,0,0,2,,,,,,,,0,,,85,84
110760,note_on,0,0,4,,,,,,,,0,,,61,84
110760,note_on,12,0,4,,,,,,,,0,,,49,84
110855,control_change,95,0,4,,,,,,,,0,64,0,,
110856,note_on,0,0,2,,,,,,,,0,,,73,0
110856,note_on,1,0,4,,,,,,,,0,,,61,0
110856,note_on,96,0,2,,,,,,,,0,,,85,0
110856,note_on,0,0,4,,,,,,,,0,,,49,0
110880,note_on,24,0,4,,,,,,,,0,,,54,84
110880,note_on,24,0,2,,,,,,,,0,,,78,84
110880,note_on,0,0,4,,,,,,,,0,,,46,84
110880,note_on,0,0,4,,,,,,,,0,,,49,84
110880,control_change,0,0,4,,,,,,,,0,64,127,,
110880,note_on,0,0,2,,,,,,,,0,,,90,84
110880,note_on,0,0,4,,,,,,,,0,,,42,84
110880,note_on,0,0,2,,,,,,,,0,,,85,84
110880,note_on,0,0,2,,,,,,,,0,,,82,84
110976,note_on,96,0,2,,,,,,,,0,,,82,0
110976,note_on,0,0,2,,,,,,,,0,,,78,0
110976,note_on,0,0,2,,,,,,,,0,,,85,0
110976,note_on,0,0,2,,,,,,,,0,,,90,0
110976,note_on,0,0,4,,,,,,,,0,,,54,0
110976,note_on,0,0,4,,,,,,,,0,,,46,0
110976,note_on,0,0,4,,,,,,,,0,,,42,0
110976,note_on,96,0,4,,,,,,,,0,,,49,0
111060,note_on,0,0,4,,,,,,,,0,,,58,84
111060,note_on,0,0,2,,,,,,,,0,,,85,84
111060,note_on,84,0,2,,,,,,,,0,,,73,84
111060,note_on,84,0,4,,,,,,,,0,,,46,84
111108,note_on,48,0,4,,,,,,,,0,,,58,0
111108,note_on,0,0,4,,,,,,,,0,,,46,0
111108,note_on,0,0,2,,,,,,,,0,,,73,0
111108,note_on,48,0,2,,,,,,,,0,,,85,0
111120,note_on,12,0,4,,,,,,,,0,,,46,84
111120,note_on,0,0,2,,,,,,,,0,,,73,84
111120,note_on,0,0,4,,,,,,,,0,,,58,84
111120,note_on,12,0,2,,,,,,,,0,,,85,84
111205,control_change,85,0,4,,,,,,,,0,64,0,,
111216,note_on,0,0,2,,,,,,,,0,,,85,0
111216,note_on,11,0,4,,,,,,,,0,,,58,0
111216,note_on,96,0,2,,,,,,,,0,,,73,0
111216,note_on,0,0,4,,,,,,,,0,,,46,0
111240,note_on,0,0,4,,,,,,,,0,,,46,85
111240,note_on,0,0,2,,,,,,,,0,,,78,85
111240,note_on,0,0,2,,,,,,,,0,,,75,85
111240,note_on,0,0,4,,,,,,,,0,,,51,85
111240,note_on,0,0,2,,,,,,,,0,,,87,85
111240,note_on,0,0,4,,,,,,,,0,,,42,85
111240,note_on,24,0,2,,,,,,,,0,,,82,85
111240,note_on,24,0,4,,,,,,,,0,,,39,85
111254,control_change,14,0,4,,,,,,,,0,64,127,,
111336,note_on,0,0,2,,,,,,,,0,,,75,0
111336,note_on,0,0,2,,,,,,,,0,,,82,0
111336,note_on,0,0,4,,,,,,,,0,,,39,0
111336,note_on,0,0,4,,,,,,,,0,,,46,0
111336,note_on,0,0,2,,,,,,,,0,,,87,0
111336,note_on,0,0,4,,,,,,,,0,,,51,0
111336,note_on,96,0,2,,,,,,,,0,,,78,0
111336,note_on,82,0,4,,,,,,,,0,,,42,0
111420,note_on,0,0,2,,,,,,,,0,,,75,85
111420,note_on,0,0,4,,,,,,,,0,,,42,85
111420,note_on,84,0,4,,,,,,,,0,,,54,85
111420,note_on,84,0,2,,,,,,,,0,,,87,85
111468,note_on,0,0,4,,,,,,,,0,,,54,0
111468,note_on,48,0,4,,,,,,,,0,,,42,0
111468,note_on,48,0,2,,,,,,,,0,,,75,0
111468,note_on,0,0,2,,,,,,,,0,,,87,0
111480,note_on,0,0,4,,,,,,,,0,,,54,85
111480,note_on,0,0,2,,,,,,,,0,,,87,85
111480,note_on,12,0,4,,,,,,,,0,,,42,85
111480,note_on,12,0,2,,,,,,,,0,,,75,85
111576,note_on,0,0,4,,,,,,,,0,,,42,0
111576,note_on,96,0,2,,,,,,,,0,,,87,0
111576,note_on,0,0,2,,,,,,,,0,,,75,0
111576,note_on,96,0,4,,,,,,,,0,,,54,0
111579,control_change,3,0,4,,,,,,,,0,64,0,,
111600,note_on,0,0,2,,,,,,,,0,,,87,85
111600,note_on,0,0,2,,,,,,,,0,,,83,85
111600,note_on,21,0,4,,,,,,,,0,,,39,85
111600,note_on,0,0,4,,,,,,,,0,,,47,85
111600,control_change,0,0,4,,,,,,,,0,64,127,,
111600,note_on,24,0,2,,,,,,,,0,,,90,85
111600,note_on,0,0,2,,,,,,,,0,,,78,85
111600,note_on,0,0,4,,,,,,,,0,,,35,85
111600,note_on,0,0,4,,,,,,,,0,,,42,85
111610,set_tempo,9360,1,0,,,,,,450857,,,,,,
111663,set_tempo,53,1,0,,,,,,453378,,,,,,
111696,note_on,96,0,2,,,,,,,,0,,,78,0
111696,note_on,0,0,2,,,,,,,,0,,,83,0
111696,note_on,0,0,2,,,,,,,,0,,,90,0
111696,note_on,96,0,4,,,,,,,,0,,,47,0
111696,note_on,0,0,2,,,,,,,,0,,,87,0
111696,note_on,0,0,4,,,,,,,,0,,,35,0
111696,note_on,0,0,4,,,,,,,,0,,,39,0
111696,note_on,0,0,4,,,,,,,,0,,,42,0
111711,set_tempo,48,1,0,,,,,,455927,,,,,,
111763,set_tempo,52,1,0,,,,,,458505,,,,,,
111780,note_on,84,0,4,,,,,,,,0,,,51,85
111780,note_on,0,0,2,,,,,,,,0,,,75,85
111780,note_on,84,0,2,,,,,,,,0,,,87,85
111780,note_on,0,0,4,,,,,,,,0,,,39,85
111811,set_tempo,48,1,0,,,,,,461113,,,,,,
111828,note_on,0,0,2,,,,,,,,0,,,87,0
111828,note_on,0,0,4,,,,,,,,0,,,51,0
111828,note_on,48,0,4,,,,,,,,0,,,39,0
111828,note_on,48,0,2,,,,,,,,0,,,75,0
111840,note_on,0,0,2,,,,,,,,0,,,75,86
111840,note_on,12,0,2,,,,,,,,0,,,87,86
111840,note_on,12,0,4,,,,,,,,0,,,51,86
111840,note_on,0,0,4,,,,,,,,0,,,39,86
111859,set_tempo,48,1,0,,,,,,463750,,,,,,
111911,set_tempo,52,1,0,,,,,,466418,,,,,,
111914,control_change,74,0,4,,,,,,,,0,64,0,,
111936,note_on,0,0,4,,,,,,,,0,,,51,0
111936,note_on,22,0,4,,,,,,,,0,,,39,0
111936,note_on,96,0,2,,,,,,,,0,,,75,0
111936,note_on,0,0,2,,,,,,,,0,,,87,0
111956,control_change,20,0,4,,,,,,,,0,64,127,,
111959,set_tempo,48,1,0,,,,,,469116,,,,,,
111960,note_on,0,0,2,,,,,,,,0,,,87,86
111960,note_on,0,0,2,,,,,,,,0,,,80,86
111960,note_on,4,0,4,,,,,,,,0,,,44,86
111960,note_on,0,0,4,,,,,,,,0,,,47,86
111960,note_on,0,0,4,,,,,,,,0,,,51,86
111960,note_on,0,0,4,,,,,,,,0,,,56,86
111960,note_on,24,0,2,,,,,,,,0,,,83,86
111960,note_on,0,0,2,,,,,,,,0,,,92,86
112007,set_tempo,48,1,0,,,,,,471846,,,,,,
112056,note_on,0,0,2,,,,,,,,0,,,83,0
112056,note_on,0,0,2,,,,,,,,0,,,92,0
112056,note_on,96,0,2,,,,,,,,0,,,80,0
112056,note_on,0,0,4,,,,,,,,0,,,44,0
112056,note_on,0,0,4,,,,,,,,0,,,51,0
112056,note_on,0,0,4,,,,,,,,0,,,56,0
112056,note_on,96,0,4,,,,,,,,0,,,47,0
112056,note_on,0,0,2,,,,,,,,0,,,87,0
112060,set_tempo,53,1,0,,,,,,474608,,,,,,
112108,set_tempo,48,1,0,,,,,,477403,,,,,,
112140,note_on,0,0,2,,,,,,,,0,,,87,86
112140,note_on,84,0,4,,,,,,,,0,,,59,86
112140,note_on,0,0,4,,,,,,,,0,,,47,86
112140,note_on,84,0,2,,,,,,,,0,,,75,86
112160,set_tempo,52,1,0,,,,,,480231,,,,,,
112188,note_on,0,0,2,,,,,,,,0,,,75,0
112188,note_on,48,0,4,,,,,,,,0,,,47,0
112188,note_on,0,0,4,,,,,,,,0,,,59,0
112188,note_on,48,0,2,,,,,,,,0,,,87,0
112200,note_on,12,0,2,,,,,,,,0,,,75,86
112200,note_on,0,0,4,,,,,,,,0,,,47,86
112200,note_on,12,0,4,,,,,,,,0,,,59,86
112200,note_on,0,0,2,,,,,,,,0,,,87,86
112208,set_tempo,48,1,0,,,,,,483092,,,,,,
112256,set_tempo,48,1,0,,,,,,485987,,,,,,
112274,control_change,74,0,4,,,,,,,,0,64,0,,
112296,note_on,96,0,2,,,,,,,,0,,,87,0
112296,note_on,0,0,4,,,,,,,,0,,,59,0
112296,note_on,0,0,2,,,,,,,,0,,,75,0
112296,note_on,22,0,4,,,,,,,,0,,,47,0
112308,set_tempo,52,1,0,,,,,,488918,,,,,,
112320,note_on,0,0,2,,,,,,,,0,,,80,86
112320,note_on,24,0,4,,,,,,,,0,,,44,86
112320,control_change,0,0,4,,,,,,,,0,64,127,,
112320,note_on,24,0,2,,,,,,,,0,,,92,86
112320,note_on,0,0,4,,,,,,,,0,,,52,86
112320,note_on,0,0,4,,,,,,,,0,,,47,86
112320,note_on,0,0,4,,,,,,,,0,,,40,86
112320,note_on,0,0,2,,,,,,,,0,,,83,86
112320,note_on,0,0,2,,,,,,,,0,,,88,86
112356,set_tempo,48,1,0,,,,,,491884,,,,,,
112404,set_tempo,48,1,0,,,,,,494886,,,,,,
112416,note_on,0,0,4,,,,,,,,0,,,52,0
112416,note_on,0,0,4,,,,,,,,0,,,44,0
112416,note_on,0,0,2,,,,,,,,0,,,92,0
112416,note_on,0,0,2,,,,,,,,0,,,88,0
112416,note_on,0,0,4,,,,,,,,0,,,40,0
112416,note_on,96,0,4,,,,,,,,0,,,47,0
112416,note_on,96,0,2,,,,,,,,0,,,83,0
112416,note_on,0,0,2,,,,,,,,0,,,80,0
112457,set_tempo,53,1,0,,,,,,497925,,,,,,
112500,note_on,0,0,4,,,,,,,,0,,,56,87
112500,note_on,84,0,2,,,,,,,,0,,,76,87
112500,note_on,0,0,2,,,,,,,,0,,,88,87
112500,note_on,84,0,4,,,,,,,,0,,,44,87
112505,set_tempo,48,1,0,,,,,,501002,,,,,,
112548,note_on,0,0,4,,,,,,,,0,,,44,0
112548,note_on,48,0,4,,,,,,,,0,,,56,0
112548,note_on,0,0,2,,,,,,,,0,,,76,0
112548,note_on,48,0,2,,,,,,,,0,,,88,0
112553,set_tempo,48,1,0,,,,,,504117,,,,,,
112560,note_on,0,0,2,,,,,,,,0,,,76,87
112560,note_on,12,0,4,,,,,,,,0,,,44,87
112560,note_on,12,0,2,,,,,,,,0,,,88,87
112560,note_on,0,0,4,,,,,,,,0,,,56,87
112605,set_tempo,52,1,0,,,,,,507271,,,,,,
112645,control_change,85,0,4,,,,,,,,0,64,0,,
112653,set_tempo,48,1,0,,,,,,510465,,,,,,
112656,note_on,0,0,4,,,,,,,,0,,,44,0
112656,note_on,0,0,2,,,,,,,,0,,,88,0
112656,note_on,96,0,2,,,,,,,,0,,,76,0
112656,note_on,11,0,4,,,,,,,,0,,,56,0
112680,note_on,0,0,2,,,,,,,,0,,,85,87
112680,note_on,0,0,4,,,,,,,,0,,,49,87
112680,note_on,0,0,4,,,,,,,,0,,,44,87
112680,note_on,0,0,4,,,,,,,,0,,,37,87
112680,note_on,0,0,2,,,,,,,,0,,,80,87
112680,note_on,24,0,2,,,,,,,,0,,,92,87
112680,note_on,24,0,4,,,,,,,,0,,,40,87
112680,note_on,0,0,2,,,,,,,,0,,,88,87
112691,control_change,11,0,4,,,,,,,,0,64,127,,
112706,set_tempo,53,1,0,,,,,,513699,,,,,,
112754,set_tempo,48,1,0,,,,,,516974,,,,,,
112776,note_on,96,0,2,,,,,,,,0,,,85,0
112776,note_on,85,0,4,,,,,,,,0,,,37,0
112776,note_on,0,0,4,,,,,,,,0,,,49,0
112776,note_on,0,0,2,,,,,,,,0,,,80,0
112776,note_on,0,0,2,,,,,,,,0,,,88,0
112776,note_on,0,0,2,,,,,,,,0,,,92,0
112776,note_on,0,0,4,,,,,,,,0,,,44,0
112776,note_on,0,0,4,,,,,,,,0,,,40,0
112802,set_tempo,48,1,0,,,,,,520291,,,,,,
112854,set_tempo,52,1,0,,,,,,523652,,,,,,
112860,note_on,0,0,2,,,,,,,,0,,,76,87
112860,note_on,84,0,4,,,,,,,,0,,,40,87
112860,note_on,84,0,2,,,,,,,,0,,,88,87
112860,note_on,0,0,4,,,,,,,,0,,,52,87
112902,set_tempo,48,1,0,,,,,,527056,,,,,,
112908,note_on,0,0,4,,,,,,,,0,,,40,0
112908,note_on,48,0,2,,,,,,,,0,,,76,0
112908,note_on,48,0,4,,,,,,,,0,,,52,0
112908,note_on,0,0,2,,,,,,,,0,,,88,0
112920,note_on,0,0,4,,,,,,,,0,,,52,88
112920,note_on,12,0,2,,,,,,,,0,,,76,88
112920,note_on,12,0,4,,,,,,,,0,,,40,88
112920,note_on,0,0,2,,,,,,,,0,,,88,88
112950,set_tempo,48,1,0,,,,,,530504,,,,,,
113002,set_tempo,52,1,0,,,,,,533998,,,,,,
113005,control_change,85,0,4,,,,,,,,0,64,0,,
113016,note_on,0,0,4,,,,,,,,0,,,40,0
113016,note_on,96,0,2,,,,,,,,0,,,88,0
113016,note_on,0,0,2,,,,,,,,0,,,76,0
113016,note_on,11,0,4,,,,,,,,0,,,52,0
113040,note_on,0,0,4,,,,,,,,0,,,45,88
113040,note_on,0,0,4,,,,,,,,0,,,42,88
113040,note_on,0,0,4,,,,,,,,0,,,39,88
113040,note_on,0,0,1,,,,,,,,0,,,84,88
113040,time_signature,38,1,0,5,8,12,8,,,,,,,,
113040,note_on,0,0,1,,,,,,,,0,,,81,88
113040,note_on,20168,0,1,,,,,,,,0,,,93,88
113040,note_on,24,0,4,,,,,,,,0,,,33,88
113042,control_change,2,0,4,,,,,,,,0,64,127,,
113050,set_tempo,10,1,0,,,,,,537538,,,,,,
113098,set_tempo,48,1,0,,,,,,541126,,,,,,
113136,note_on,0,0,4,,,,,,,,0,,,33,0
113136,note_on,0,0,1,,,,,,,,0,,,84,0
113136,note_on,0,0,4,,,,,,,,0,,,39,0
113136,note_on,0,0,1,,,,,,,,0,,,93,0
113136,note_on,0,0,4,,,,,,,,0,,,42,0
113136,note_on,94,0,4,,,,,,,,0,,,45,0
113136,note_on,96,0,1,,,,,,,,0,,,81,0
113151,set_tempo,53,1,0,,,,,,544761,,,,,,
113160,note_on,144,0,2,,,,,,,,0,,,60,88
113160,note_on,5904,0,3,,,,,,,,0,,,48,88
113184,note_on,24,0,3,,,,,,,,0,,,48,0
113184,note_on,24,0,2,,,,,,,,0,,,60,0
113190,note_on,6,0,2,,,,,,,,0,,,61,88
113190,note_on,6,0,3,,,,,,,,0,,,49,88
113199,set_tempo,48,1,0,,,,,,548446,,,,,,
113214,note_on,24,0,2,,,,,,,,0,,,61,0
113214,note_on,24,0,3,,,,,,,,0,,,49,0
113220,note_on,6,0,2,,,,,,,,0,,,63,88
113220,note_on,6,0,3,,,,,,,,0,,,51,88
113244,note_on,24,0,3,,,,,,,,0,,,51,0
113244,note_on,24,0,2,,,,,,,,0,,,63,0
113250,note_on,6,0,2,,,,,,,,0,,,64,88
113250,note_on,6,0,3,,,,,,,,0,,,52,88
113251,set_tempo,52,1,0,,,,,,552181,,,,,,
113273,set_tempo,22,1,0,,,,,,450857,,,,,,
113274,note_on,24,0,3,,,,,,,,0,,,52,0
113274,note_on,24,0,2,,,,,,,,0,,,64,0
113280,note_on,6,0,3,,,,,,,,0,,,54,88
113280,note_on,6,0,2,,,,,,,,0,,,66,88
113376,note_on,96,0,2,,,,,,,,0,,,66,0
113376,note_on,96,0,3,,,,,,,,0,,,54,0
113400,note_on,0,0,1,,,,,,,,0,,,84,88
113400,note_on,264,0,4,,,,,,,,0,,,42,88
113400,note_on,264,0,1,,,,,,,,0,,,81,88
113400,note_on,0,0,4,,,,,,,,0,,,33,88
113400,note_on,0,0,4,,,,,,,,0,,,39,88
113400,note_on,0,0,4,,,,,,,,0,,,45,88
113400,note_on,0,0,1,,,,,,,,0,,,93,88
113400,control_change,0,0,4,,,,,,,,0,64,0,,
113496,note_on,96,0,4,,,,,,,,0,,,39,0
113496,note_on,96,0,1,,,,,,,,0,,,93,0
113496,note_on,0,0,4,,,,,,,,0,,,33,0
113496,note_on,0,0,4,,,,,,,,0,,,42,0
113496,note_on,0,0,1,,,,,,,,0,,,81,0
113496,note_on,0,0,1,,,,,,,,0,,,84,0
113496,note_on,0,0,4,,,,,,,,0,,,45,0
113517,set_tempo,244,1,0,,,,,,579822,,,,,,
113520,note_on,0,0,4,,,,,,,,0,,,39,88
113520,note_on,0,0,4,,,,,,,,0,,,42,88
113520,note_on,0,0,1,,,,,,,,0,,,84,88
113520,note_on,24,0,1,,,,,,,,0,,,81,88
113520,note_on,24,0,4,,,,,,,,0,,,45,88
113520,note_on,0,0,4,,,,,,,,0,,,33,88
113520,note_on,0,0,1,,,,,,,,0,,,93,88
113616,note_on,96,0,1,,,,,,,,0,,,93,0
113616,note_on,0,0,1,,,,,,,,0,,,84,0
113616,note_on,0,0,1,,,,,,,,0,,,81,0
113616,note_on,0,0,4,,,,,,,,0,,,33,0
113616,note_on,0,0,4,,,,,,,,0,,,42,0
113616,note_on,0,0,4,,,,,,,,0,,,45,0
113616,note_on,96,0,4,,,,,,,,0,,,39,0
113640,note_on,0,0,4,,,,,,,,0,,,45,88
113640,time_signature,123,1,0,6,8,12,8,,,,,,,,
113640,control_change,0,0,4,,,,,,,,0,64,127,,
113640,note_on,0,0,1,,,,,,,,0,,,93,88
113640,note_on,0,0,1,,,,,,,,0,,,85,88
113640,note_on,0,0,4,,,,,,,,0,,,33,88
113640,note_on,0,0,4,,,,,,,,0,,,40,88
113640,note_on,24,0,1,,,,,,,,0,,,81,88
113640,note_on,24,0,4,,,,,,,,0,,,43,88
113644,set_tempo,4,1,0,,,,,,583998,,,,,,
113736,note_on,96,0,1,,,,,,,,0,,,85,0
113736,note_on,96,0,4,,,,,,,,0,,,40,0
113736,note_on,0,0,1,,,,,,,,0,,,93,0
113736,note_on,0,0,1,,,,,,,,0,,,81,0
113736,note_on,0,0,4,,,,,,,,0,,,33,0
113736,note_on,0,0,4,,,,,,,,0,,,45,0
113736,note_on,0,0,4,,,,,,,,0,,,43,0
113760,note_on,384,0,2,,,,,,,,0,,,67,88
113760,note_on,384,0,3,,,,,,,,0,,,55,88
113784,note_on,24,0,2,,,,,,,,0,,,67,0
113784,note_on,24,0,3,,,,,,,,0,,,55,0
113790,note_on,6,0,2,,,,,,,,0,,,65,88
113790,note_on,6,0,3,,,,,,,,0,,,53,88
113814,note_on,24,0,2,,,,,,,,0,,,65,0
113814,note_on,24,0,3,,,,,,,,0,,,53,0
113820,note_on,6,0,2,,,,,,,,0,,,64,88
113820,note_on,6,0,3,,,,,,,,0,,,52,88
113844,note_on,24,0,3,,,,,,,,0,,,52,0
113844,note_on,24,0,2,,,,,,,,0,,,64,0
113850,note_on,6,0,3,,,,,,,,0,,,50,88
113850,note_on,6,0,2,,,,,,,,0,,,62,88
113874,note_on,24,0,3,,,,,,,,0,,,50,0
113874,note_on,24,0,2,,,,,,,,0,,,62,0
113879,set_tempo,235,1,0,,,,,,450857,,,,,,
113880,note_on,6,0,3,,,,,,,,0,,,49,88
113880,note_on,6,0,2,,,,,,,,0,,,61,88
113976,note_on,96,0,2,,,,,,,,0,,,61,0
113976,note_on,96,0,3,,,,,,,,0,,,49,0
114000,note_on,0,0,1,,,,,,,,0,,,81,88
114000,note_on,0,0,4,,,,,,,,0,,,33,88
114000,note_on,0,0,4,,,,,,,,0,,,40,88
114000,note_on,0,0,4,,,,,,,,0,,,43,88
114000,note_on,264,0,1,,,,,,,,0,,,85,88
114000,note_on,0,0,1,,,,,,,,0,,,93,88
114000,note_on,264,0,4,,,,,,,,0,,,45,88
114005,control_change,5,0,4,,,,,,,,0,64,0,,
114096,note_on,96,0,1,,,,,,,,0,,,93,0
114096,note_on,0,0,4,,,,,,,,0,,,45,0
114096,note_on,0,0,4,,,,,,,,0,,,40,0
114096,note_on,0,0,4,,,,,,,,0,,,33,0
114096,note_on,0,0,1,,,,,,,,0,,,81,0
114096,note_on,91,0,4,,,,,,,,0,,,43,0
114096,note_on,0,0,1,,,,,,,,0,,,85,0
114111,set_tempo,232,1,0,,,,,,453378,,,,,,
114119,set_tempo,8,1,0,,,,,,575705,,,,,,
114120,note_on,24,0,4,,,,,,,,0,,,40,88
114120,note_on,0,0,4,,,,,,,,0,,,33,88
114120,note_on,0,0,1,,,,,,,,0,,,85,88
114120,note_on,0,0,4,,,,,,,,0,,,43,88
114120,note_on,0,0,4,,,,,,,,0,,,45,88
114120,note_on,0,0,1,,,,,,,,0,,,93,88
114120,note_on,24,0,1,,,,,,,,0,,,81,88
114216,note_on,0,0,1,,,,,,,,0,,,81,0
114216,note_on,0,0,4,,,,,,,,0,,,40,0
114216,note_on,0,0,4,,,,,,,,0,,,33,0
114216,note_on,0,0,1,,,,,,,,0,,,85,0
114216,note_on,96,0,1,,,,,,,,0,,,93,0
114216,note_on,96,0,4,,,,,,,,0,,,45,0
114216,note_on,0,0,4,,,,,,,,0,,,43,0
114240,note_on,0,0,4,,,,,,,,0,,,34,88
114240,note_on,0,0,4,,,,,,,,0,,,43,88
114240,note_on,0,0,4,,,,,,,,0,,,39,88
114240,control_change,0,0,4,,,,,,,,0,64,127,,
114240,note_on,24,0,1,,,,,,,,0,,,85,88
114240,note_on,0,0,1,,,,,,,,0,,,82,88
114240,note_on,0,0,1,,,,,,,,0,,,94,88
114240,note_on,24,0,4,,,,,,,,0,,,46,88
114336,note_on,0,0,4,,,,,,,,0,,,46,0
114336,note_on,0,0,4,,,,,,,,0,,,43,0
114336,note_on,0,0,1,,,,,,,,0,,,94,0
114336,note_on,0,0,4,,,,,,,,0,,,39,0
114336,note_on,0,0,1,,,,,,,,0,,,85,0
114336,note_on,96,0,4,,,,,,,,0,,,34,0
114336,note_on,96,0,1,,,,,,,,0,,,82,0
114360,note_on,384,0,3,,,,,,,,0,,,49,88
114360,note_on,384,0,2,,,,,,,,0,,,61,88
114384,note_on,24,0,2,,,,,,,,0,,,61,0
114384,note_on,24,0,3,,,,,,,,0,,,49,0
114390,note_on,6,0,3,,,,,,,,0,,,50,88
114390,note_on,6,0,2,,,,,,,,0,,,62,88
114414,note_on,24,0,2,,,,,,,,0,,,62,0
114414,note_on,24,0,3,,,,,,,,0,,,50,0
114420,note_on,6,0,3,,,,,,,,0,,,52,88
114420,note_on,6,0,2,,,,,,,,0,,,64,88
114444,note_on,24,0,2,,,,,,,,0,,,64,0
114444,note_on,24,0,3,,,,,,,,0,,,52,0
114450,note_on,6,0,2,,,,,,,,0,,,65,88
114450,note_on,6,0,3,,,,,,,,0,,,53,88
114474,note_on,24,0,3,,,,,,,,0,,,53,0
114474,note_on,24,0,2,,,,,,,,0,,,65,0
114477,set_tempo,358,1,0,,,,,,453378,,,,,,
114480,note_on,6,0,2,,,,,,,,0,,,67,88
114480,note_on,6,0,3,,,,,,,,0,,,55,88
114576,note_on,96,0,3,,,,,,,,0,,,55,0
114576,note_on,96,0,2,,,,,,,,0,,,67,0
114600,note_on,0,0,1,,,,,,,,0,,,82,88
114600,note_on,264,0,1,,,,,,,,0,,,85,88
114600,note_on,0,0,4,,,,,,,,0,,,34,88
114600,control_change,264,0,4,,,,,,,,0,64,0,,
114600,note_on,0,0,4,,,,,,,,0,,,39,88
114600,note_on,0,0,1,,,,,,,,0,,,94,88
114600,note_on,0,0,4,,,,,,,,0,,,46,88
114600,note_on,0,0,4,,,,,,,,0,,,43,88
114696,note_on,96,0,4,,,,,,,,0,,,46,0
114696,note_on,96,0,1,,,,,,,,0,,,82,0
114696,note_on,0,0,4,,,,,,,,0,,,39,0
114696,note_on,0,0,4,,,,,,,,0,,,34,0
114696,note_on,0,0,4,,,,,,,,0,,,43,0
114696,note_on,0,0,1,,,,,,,,0,,,94,0
114696,note_on,0,0,1,,,,,,,,0,,,85,0
114717,set_tempo,240,1,0,,,,,,575705,,,,,,
114720,note_on,0,0,4,,,,,,,,0,,,34,88
114720,note_on,0,0,1,,,,,,,,0,,,94,88
114720,note_on,24,0,4,,,,,,,,0,,,39,88
114720,note_on,0,0,4,,,,,,,,0,,,43,88
114720,note_on,0,0,4,,,,,,,,0,,,46,88
114720,note_on,24,0,1,,,,,,,,0,,,85,88
114720,note_on,0,0,1,,,,,,,,0,,,82,88
114816,note_on,0,0,4,,,,,,,,0,,,43,0
114816,note_on,0,0,4,,,,,,,,0,,,39,0
114816,note_on,0,0,4,,,,,,,,0,,,34,0
114816,note_on,96,0,4,,,,,,,,0,,,46,0
114816,note_on,96,0,1,,,,,,,,0,,,82,0
114816,note_on,0,0,1,,,,,,,,0,,,94,0
114816,note_on,0,0,1,,,,,,,,0,,,85,0
114840,note_on,0,0,4,,,,,,,,0,,,44,88
114840,note_on,0,0,1,,,,,,,,0,,,86,88
114840,note_on,0,0,1,,,,,,,,0,,,94,88
114840,note_on,0,0,4,,,,,,,,0,,,41,88
114840,note_on,24,0,1,,,,,,,,0,,,82,88
114840,note_on,24,0,4,,,,,,,,0,,,34,88
114840,note_on,0,0,4,,,,,,,,0,,,46,88
114842,control_change,2,0,4,,,,,,,,0,64,127,,
114936,note_on,0,0,1,,,,,,,,0,,,82,0
114936,note_on,94,0,4,,,,,,,,0,,,46,0
114936,note_on,0,0,4,,,,,,,,0,,,41,0
114936,note_on,0,0,4,,,,,,,,0,,,34,0
114936,note_on,0,0,1,,,,,,,,0,,,94,0
114936,note_on,0,0,4,,,,,,,,0,,,44,0
114936,note_on,96,0,1,,,,,,,,0,,,86,0
114960,note_on,384,0,3,,,,,,,,0,,,56,88
114960,note_on,384,0,2,,,,,,,,0,,,68,88
114984,note_on,24,0,2,,,,,,,,0,,,68,0
114984,note_on,24,0,3,,,,,,,,0,,,56,0
114990,note_on,6,0,3,,,,,,,,0,,,55,88
114990,note_on,6,0,2,,,,,,,,0,,,67,88
115014,note_on,24,0,2,,,,,,,,0,,,67,0
115014,note_on,24,0,3,,,,,,,,0,,,55,0
115020,note_on,6,0,2,,,,,,,,0,,,65,88
115020,note_on,6,0,3,,,,,,,,0,,,53,88
115044,note_on,24,0,3,,,,,,,,0,,,53,0
115044,note_on,24,0,2,,,,,,,,0,,,65,0
115050,note_on,6,0,3,,,,,,,,0,,,51,88
115050,note_on,6,0,2,,,,,,,,0,,,63,88
115074,note_on,24,0,3,,,,,,,,0,,,51,0
115074,note_on,24,0,2,,,,,,,,0,,,63,0
115079,set_tempo,362,1,0,,,,,,450857,,,,,,
115080,note_on,6,0,2,,,,,,,,0,,,62,88
115080,note_on,6,0,3,,,,,,,,0,,,50,88
115176,note_on,96,0,3,,,,,,,,0,,,50,0
115176,note_on,96,0,2,,,,,,,,0,,,62,0
115200,note_on,264,0,4,,,,,,,,0,,,41,88
115200,note_on,264,0,1,,,,,,,,0,,,86,88
115200,note_on,0,0,4,,,,,,,,0,,,44,88
115200,note_on,0,0,1,,,,,,,,0,,,82,88
115200,note_on,0,0,4,,,,,,,,0,,,46,88
115200,note_on,0,0,1,,,,,,,,0,,,94,88
115200,note_on,0,0,4,,,,,,,,0,,,34,88
115296,note_on,0,0,4,,,,,,,,0,,,41,0
115296,note_on,0,0,1,,,,,,,,0,,,86,0
115296,note_on,0,0,4,,,,,,,,0,,,44,0
115296,note_on,0,0,4,,,,,,,,0,,,46,0
115296,note_on,96,0,1,,,,,,,,0,,,82,0
115296,note_on,96,0,4,,,,,,,,0,,,34,0
115296,note_on,0,0,1,,,,,,,,0,,,94,0
115310,set_tempo,231,1,0,,,,,,583998,,,,,,
115320,note_on,0,0,1,,,,,,,,0,,,86,88
115320,note_on,24,0,4,,,,,,,,0,,,41,88
115320,note_on,0,0,4,,,,,,,,0,,,34,88
115320,note_on,24,0,1,,,,,,,,0,,,94,88
115320,note_on,0,0,4,,,,,,,,0,,,44,88
115320,note_on,0,0,1,,,,,,,,0,,,82,88
115320,note_on,0,0,4,,,,,,,,0,,,46,88
115322,control_change,2,0,4,,,,,,,,0,64,0,,
115416,note_on,96,0,1,,,,,,,,0,,,82,0
115416,note_on,0,0,4,,,,,,,,0,,,44,0
115416,note_on,0,0,1,,,,,,,,0,,,94,0
115416,note_on,0,0,1,,,,,,,,0,,,86,0
115416,note_on,0,0,4,,,,,,,,0,,,41,0
115416,note_on,94,0,4,,,,,,,,0,,,34,0
115416,note_on,0,0,4,,,,,,,,0,,,46,0
115440,note_on,24,0,4,,,,,,,,0,,,41,88
115440,control_change,0,0,4,,,,,,,,0,64,127,,
115440,note_on,0,0,1,,,,,,,,0,,,83,88
115440,note_on,24,0,1,,,,,,,,0,,,95,88
115440,note_on,0,0,4,,,,,,,,0,,,35,88
115440,note_on,0,0,4,,,,,,,,0,,,44,88
115440,note_on,0,0,4,,,,,,,,0,,,47,88
115440,note_on,0,0,1,,,,,,,,0,,,86,88
115536,note_on,0,0,1,,,,,,,,0,,,83,0
115536,note_on,0,0,4,,,,,,,,0,,,41,0
115536,note_on,0,0,1,,,,,,,,0,,,95,0
115536,note_on,96,0,4,,,,,,,,0,,,35,0
115536,note_on,0,0,4,,,,,,,,0,,,47,0
115536,note_on,0,0,4,,,,,,,,0,,,44,0
115536,note_on,96,0,1,,,,,,,,0,,,86,0
115560,note_on,384,0,2,,,,,,,,0,,,62,88
115560,note_on,384,0,3,,,,,,,,0,,,50,88
115584,note_on,24,0,3,,,,,,,,0,,,50,0
115584,note_on,24,0,2,,,,,,,,0,,,62,0
115590,note_on,6,0,3,,,,,,,,0,,,52,88
115590,note_on,6,0,2,,,,,,,,0,,,64,88
115614,note_on,24,0,2,,,,,,,,0,,,64,0
115614,note_on,24,0,3,,,,,,,,0,,,52,0
115620,note_on,6,0,3,,,,,,,,0,,,53,88
115620,note_on,6,0,2,,,,,,,,0,,,65,88
115644,note_on,24,0,3,,,,,,,,0,,,53,0
115644,note_on,24,0,2,,,,,,,,0,,,65,0
115650,note_on,6,0,3,,,,,,,,0,,,55,88
115650,note_on,6,0,2,,,,,,,,0,,,67,88
115668,set_tempo,358,1,0,,,,,,579822,,,,,,
115672,set_tempo,4,1,0,,,,,,448363,,,,,,
115674,note_on,24,0,3,,,,,,,,0,,,55,0
115674,note_on,24,0,2,,,,,,,,0,,,67,0
115680,note_on,6,0,3,,,,,,,,0,,,56,88
115680,note_on,6,0,2,,,,,,,,0,,,68,88
115776,note_on,96,0,2,,,,,,,,0,,,68,0
115776,note_on,96,0,3,,,,,,,,0,,,56,0
115800,control_change,0,0,4,,,,,,,,0,64,0,,
115800,note_on,0,0,4,,,,,,,,0,,,47,88
115800,note_on,0,0,4,,,,,,,,0,,,35,88
115800,note_on,0,0,1,,,,,,,,0,,,87,88
115800,note_on,264,0,4,,,,,,,,0,,,42,88
115800,note_on,264,0,1,,,,,,,,0,,,95,88
115800,note_on,0,0,1,,,,,,,,0,,,83,88
115800,note_on,0,0,4,,,,,,,,0,,,45,88
115816,control_change,16,0,4,,,,,,,,0,64,127,,
115896,note_on,0,0,1,,,,,,,,0,,,83,0
115896,note_on,0,0,4,,,,,,,,0,,,35,0
115896,note_on,0,0,4,,,,,,,,0,,,47,0
115896,note_on,0,0,4,,,,,,,,0,,,42,0
115896,note_on,80,0,4,,,,,,,,0,,,45,0
115896,note_on,0,0,1,,,,,,,,0,,,95,0
115896,note_on,96,0,1,,,,,,,,0,,,87,0
115908,set_tempo,236,1,0,,,,,,504117,,,,,,
115920,note_on,144,0,3,,,,,,,,0,,,51,88
115920,note_on,144,0,2,,,,,,,,0,,,63,88
115944,note_on,24,0,2,,,,,,,,0,,,63,0
115944,note_on,24,0,3,,,,,,,,0,,,51,0
115950,note_on,6,0,2,,,,,,,,0,,,65,88
115950,note_on,6,0,3,,,,,,,,0,,,53,88
115974,note_on,24,0,3,,,,,,,,0,,,53,0
115974,note_on,24,0,2,,,,,,,,0,,,65,0
115978,set_tempo,70,1,0,,,,,,501002,,,,,,
115980,note_on,6,0,3,,,,,,,,0,,,54,88
115980,note_on,6,0,2,,,,,,,,0,,,66,88
116004,note_on,24,0,3,,,,,,,,0,,,54,0
116004,note_on,24,0,2,,,,,,,,0,,,66,0
116010,note_on,6,0,2,,,,,,,,0,,,68,88
116010,note_on,6,0,3,,,,,,,,0,,,56,88
116034,note_on,24,0,3,,,,,,,,0,,,56,0
116034,note_on,24,0,2,,,,,,,,0,,,68,0
116039,set_tempo,61,1,0,,,,,,448363,,,,,,
116040,note_on,6,0,3,,,,,,,,0,,,57,88
116040,note_on,6,0,2,,,,,,,,0,,,69,88
116136,note_on,96,0,3,,,,,,,,0,,,57,0
116136,note_on,96,0,2,,,,,,,,0,,,69,0
116156,control_change,260,0,4,,,,,,,,0,64,0,,
116160,note_on,0,0,1,,,,,,,,0,,,96,88
116160,note_on,0,0,4,,,,,,,,0,,,36,88
116160,note_on,264,0,1,,,,,,,,0,,,93,88
116160,note_on,0,0,1,,,,,,,,0,,,87,88
116160,note_on,0,0,4,,,,,,,,0,,,45,88
116160,note_on,0,0,4,,,,,,,,0,,,42,88
116160,note_on,0,0,1,,,,,,,,0,,,84,88
116160,note_on,4,0,4,,,,,,,,0,,,48,88
116183,control_change,23,0,4,,,,,,,,0,64,127,,
116256,note_on,0,0,1,,,,,,,,0,,,84,0
116256,note_on,73,0,4,,,,,,,,0,,,36,0
116256,note_on,0,0,4,,,,,,,,0,,,42,0
116256,note_on,0,0,4,,,,,,,,0,,,45,0
116256,note_on,96,0,1,,,,,,,,0,,,96,0
116256,note_on,0,0,1,,,,,,,,0,,,93,0
116256,note_on,0,0,1,,,,,,,,0,,,87,0
116256,note_on,0,0,4,,,,,,,,0,,,48,0
116279,set_tempo,240,1,0,,,,,,450857,,,,,,
116280,note_on,144,0,3,,,,,,,,0,,,54,88
116280,note_on,144,0,2,,,,,,,,0,,,66,88
116304,note_on,24,0,2,,,,,,,,0,,,66,0
116304,note_on,24,0,3,,,,,,,,0,,,54,0
116310,note_on,6,0,2,,,,,,,,0,,,68,88
116310,note_on,6,0,3,,,,,,,,0,,,56,88
116334,note_on,24,0,3,,,,,,,,0,,,56,0
116334,note_on,24,0,2,,,,,,,,0,,,68,0
116340,note_on,6,0,2,,,,,,,,0,,,69,88
116340,note_on,6,0,3,,,,,,,,0,,,57,88
116364,note_on,24,0,2,,,,,,,,0,,,69,0
116364,note_on,24,0,3,,,,,,,,0,,,57,0
116370,note_on,6,0,2,,,,,,,,0,,,71,88
116370,note_on,6,0,3,,,,,,,,0,,,59,88
116394,note_on,24,0,2,,,,,,,,0,,,71,0
116394,note_on,24,0,3,,,,,,,,0,,,59,0
116400,note_on,6,0,3,,,,,,,,0,,,60,88
116400,note_on,6,0,2,,,,,,,,0,,,72,88
116496,note_on,96,0,3,,,,,,,,0,,,60,0
116496,note_on,96,0,2,,,,,,,,0,,,72,0
116520,control_change,0,0,4,,,,,,,,0,64,0,,
116520,note_on,0,0,4,,,,,,,,0,,,39,88
116520,note_on,0,0,4,,,,,,,,0,,,45,88
116520,note_on,0,0,4,,,,,,,,0,,,48,88
116520,note_on,264,0,4,,,,,,,,0,,,51,88
116520,note_on,0,0,1,,,,,,,,0,,,90,88
116520,note_on,0,0,1,,,,,,,,0,,,96,88
116520,note_on,0,0,1,,,,,,,,0,,,99,80
116520,note_on,264,0,1,,,,,,,,0,,,87,88
116559,control_change,39,0,4,,,,,,,,0,64,127,,
116616,note_on,0,0,4,,,,,,,,0,,,51,0
116616,note_on,57,0,4,,,,,,,,0,,,45,0
116616,note_on,0,0,4,,,,,,,,0,,,48,0
116616,note_on,0,0,4,,,,,,,,0,,,39,0
116616,note_on,0,0,1,,,,,,,,0,,,87,0
116616,note_on,0,0,1,,,,,,,,0,,,90,0
116616,note_on,96,0,1,,,,,,,,0,,,99,0
116616,note_on,0,0,1,,,,,,,,0,,,96,0
116640,note_on,144,0,3,,,,,,,,0,,,57,80
116640,note_on,144,0,2,,,,,,,,0,,,69,80
116664,note_on,24,0,2,,,,,,,,0,,,69,0
116664,note_on,24,0,3,,,,,,,,0,,,57,0
116670,note_on,6,0,3,,,,,,,,0,,,59,80
116670,note_on,6,0,2,,,,,,,,0,,,71,80
116694,note_on,24,0,3,,,,,,,,0,,,59,0
116694,note_on,24,0,2,,,,,,,,0,,,71,0
116700,note_on,6,0,3,,,,,,,,0,,,60,81
116700,note_on,6,0,2,,,,,,,,0,,,72,81
116724,note_on,24,0,3,,,,,,,,0,,,60,0
116724,note_on,24,0,2,,,,,,,,0,,,72,0
116730,note_on,6,0,3,,,,,,,,0,,,62,82
116730,note_on,6,0,2,,,,,,,,0,,,74,82
116754,note_on,24,0,3,,,,,,,,0,,,62,0
116754,note_on,24,0,2,,,,,,,,0,,,74,0
116760,note_on,6,0,2,,,,,,,,0,,,75,83
116760,note_on,6,0,3,,,,,,,,0,,,63,83
116856,note_on,96,0,2,,,,,,,,0,,,75,0
116856,note_on,96,0,3,,,,,,,,0,,,63,0
116880,note_on,0,0,2,,,,,,,,0,,,69,86
116880,note_on,24,0,2,,,,,,,,0,,,81,86
116904,note_on,0,0,2,,,,,,,,0,,,81,0
116904,note_on,24,0,2,,,,,,,,0,,,69,0
116910,note_on,0,0,2,,,,,,,,0,,,83,87
116910,note_on,6,0,2,,,,,,,,0,,,71,87
116934,note_on,24,0,2,,,,,,,,0,,,83,0
116934,note_on,0,0,2,,,,,,,,0,,,71,0
116940,note_on,0,0,2,,,,,,,,0,,,84,88
116940,note_on,6,0,2,,,,,,,,0,,,72,88
116964,note_on,24,0,2,,,,,,,,0,,,84,0
116964,note_on,0,0,2,,,,,,,,0,,,72,0
116970,note_on,0,0,2,,,,,,,,0,,,86,88
116970,note_on,6,0,2,,,,,,,,0,,,74,88
116994,note_on,0,0,2,,,,,,,,0,,,74,0
116994,note_on,24,0,2,,,,,,,,0,,,86,0
117000,note_on,6,0,2,,,,,,,,0,,,75,89
117000,note_on,0,0,2,,,,,,,,0,,,87,89
117096,note_on,0,0,2,,,,,,,,0,,,75,0
117096,note_on,96,0,2,,,,,,,,0,,,87,0
117120,note_on,24,0,2,,,,,,,,0,,,81,92
117120,note_on,0,0,2,,,,,,,,0,,,93,92
117144,note_on,24,0,2,,,,,,,,0,,,93,0
117144,note_on,0,0,2,,,,,,,,0,,,81,0
117150,note_on,6,0,2,,,,,,,,0,,,83,93
117150,note_on,0,0,2,,,,,,,,0,,,95,93
117174,note_on,24,0,2,,,,,,,,0,,,95,0
117174,note_on,0,0,2,,,,,,,,0,,,83,0
117180,note_on,6,0,2,,,,,,,,0,,,96,94
117180,note_on,0,0,2,,,,,,,,0,,,84,94
117204,note_on,24,0,2,,,,,,,,0,,,84,0
117204,note_on,0,0,2,,,,,,,,0,,,96,0
117210,note_on,6,0,2,,,,,,,,0,,,86,95
117210,note_on,0,0,2,,,,,,,,0,,,98,95
117234,note_on,24,0,2,,,,,,,,0,,,98,0
117234,note_on,0,0,2,,,,,,,,0,,,86,0
117240,time_signature,961,1,0,9,8,12,8,,,,,,,,
117240,control_change,624,0,4,,,,,,,,0,64,0,,
117240,note_on,6,0,2,,,,,,,,0,,,87,96
117240,note_on,0,0,2,,,,,,,,0,,,99,96
117336,note_on,96,0,2,,,,,,,,0,,,99,0
117336,note_on,0,0,2,,,,,,,,0,,,87,0
117364,control_change,124,0,4,,,,,,,,0,64,127,,
117420,note_on,0,0,1,,,,,,,,0,,,87,80
117420,note_on,0,0,2,,,,,,,,0,,,81,80
117420,note_on,0,0,1,,,,,,,,0,,,96,80
117420,note_on,84,0,2,,,,,,,,0,,,69,80
117420,note_on,804,0,1,,,,,,,,0,,,84,80
117420,note_on,0,0,2,,,,,,,,0,,,78,80
117468,note_on,0,0,2,,,,,,,,0,,,69,0
117468,note_on,0,0,2,,,,,,,,0,,,81,0
117468,note_on,0,0,1,,,,,,,,0,,,87,0
117468,note_on,0,0,1,,,,,,,,0,,,84,0
117468,note_on,48,0,2,,,,,,,,0,,,78,0
117468,note_on,48,0,1,,,,,,,,0,,,96,0
117480,note_on,0,0,1,,,,,,,,0,,,84,80
117480,note_on,0,0,1,,,,,,,,0,,,96,80
117480,note_on,12,0,2,,,,,,,,0,,,69,80
117480,note_on,0,0,2,,,,,,,,0,,,81,80
117480,note_on,0,0,2,,,,,,,,0,,,78,80
117480,note_on,12,0,1,,,,,,,,0,,,87,80
117576,note_on,0,0,1,,,,,,,,0,,,87,0
117576,note_on,0,0,1,,,,,,,,0,,,84,0
117576,note_on,96,0,2,,,,,,,,0,,,78,0
117576,note_on,0,0,2,,,,,,,,0,,,69,0
117576,note_on,0,0,2,,,,,,,,0,,,81,0
117576,note_on,96,0,1,,,,,,,,0,,,96,0
117600,note_on,0,0,1,,,,,,,,0,,,95,80
117600,note_on,0,0,1,,,,,,,,0,,,86,80
117600,note_on,24,0,2,,,,,,,,0,,,80,80
117600,note_on,24,0,1,,,,,,,,0,,,83,80
117600,note_on,0,0,2,,,,,,,,0,,,77,80
117600,note_on,0,0,2,,,,,,,,0,,,68,80
117696,note_on,96,0,2,,,,,,,,0,,,77,0
117696,note_on,0,0,2,,,,,,,,0,,,80,0
117696,note_on,0,0,2,,,,,,,,0,,,68,0
117696,note_on,96,0,1,,,,,,,,0,,,86,0
117696,note_on,0,0,1,,,,,,,,0,,,83,0
117696,note_on,0,0,1,,,,,,,,0,,,95,0
117780,note_on,0,0,2,,,,,,,,0,,,74,80
117780,note_on,84,0,2,,,,,,,,0,,,77,80
117780,note_on,0,0,1,,,,,,,,0,,,83,80
117780,note_on,0,0,2,,,,,,,,0,,,65,80
117780,note_on,0,0,1,,,,,,,,0,,,92,80
117780,note_on,84,0,1,,,,,,,,0,,,80,80
117787,control_change,423,0,4,,,,,,,,0,64,0,,
117822,control_change,35,0,4,,,,,,,,0,64,127,,
117828,note_on,0,0,1,,,,,,,,0,,,92,0
117828,note_on,0,0,1,,,,,,,,0,,,80,0
117828,note_on,0,0,2,,,,,,,,0,,,77,0
117828,note_on,0,0,2,,,,,,,,0,,,74,0
117828,note_on,48,0,1,,,,,,,,0,,,83,0
117828,note_on,48,0,2,,,,,,,,0,,,65,0
117840,note_on,0,0,1,,,,,,,,0,,,83,80
117840,note_on,0,0,2,,,,,,,,0,,,74,80
117840,note_on,0,0,2,,,,,,,,0,,,65,80
117840,note_on,12,0,1,,,,,,,,0,,,92,80
117840,note_on,0,0,1,,,,,,,,0,,,80,80
117840,note_on,12,0,2,,,,,,,,0,,,77,80
117936,note_on,96,0,1,,,,,,,,0,,,80,0
117936,note_on,0,0,2,,,,,,,,0,,,74,0
117936,note_on,0,0,1,,,,,,,,0,,,83,0
117936,note_on,0,0,1,,,,,,,,0,,,92,0
117936,note_on,96,0,2,,,,,,,,0,,,65,0
117936,note_on,0,0,2,,,,,,,,0,,,77,0
117960,note_on,0,0,2,,,,,,,,0,,,73,80
117960,note_on,24,0,2,,,,,,,,0,,,76,80
117960,note_on,24,0,1,,,,,,,,0,,,82,80
117960,note_on,0,0,2,,,,,,,,0,,,64,80
117960,note_on,0,0,1,,,,,,,,0,,,91,80
117960,note_on,0,0,1,,,,,,,,0,,,79,80
118056,note_on,0,0,2,,,,,,,,0,,,64,0
118056,note_on,0,0,1,,,,,,,,0,,,91,0
118056,note_on,0,0,1,,,,,,,,0,,,82,0
118056,note_on,96,0,2,,,,,,,,0,,,73,0
118056,note_on,96,0,1,,,,,,,,0,,,79,0
118056,note_on,0,0,2,,,,,,,,0,,,76,0
118140,note_on,84,0,1,,,,,,,,0,,,76,80
118140,note_on,0,0,2,,,,,,,,0,,,73,80
118140,note_on,0,0,1,,,,,,,,0,,,88,80
118140,note_on,0,0,1,,,,,,,,0,,,79,80
118140,note_on,84,0,2,,,,,,,,0,,,61,80
118140,note_on,0,0,2,,,,,,,,0,,,70,80
118188,note_on,0,0,2,,,,,,,,0,,,61,0
118188,note_on,0,0,1,,,,,,,,0,,,79,0
118188,note_on,0,0,1,,,,,,,,0,,,76,0
118188,note_on,48,0,2,,,,,,,,0,,,70,0
118188,note_on,0,0,2,,,,,,,,0,,,73,0
118188,note_on,48,0,1,,,,,,,,0,,,88,0
118200,note_on,12,0,1,,,,,,,,0,,,76,80
118200,note_on,12,0,2,,,,,,,,0,,,70,80
118200,note_on,0,0,2,,,,,,,,0,,,73,80
118200,note_on,0,0,2,,,,,,,,0,,,61,80
118200,note_on,0,0,1,,,,,,,,0,,,88,80
118200,note_on,0,0,1,,,,,,,,0,,,79,80
118296,note_on,0,0,1,,,,,,,,0,,,88,0
118296,note_on,0,0,2,,,,,,,,0,,,70,0
118296,note_on,0,0,2,,,,,,,,0,,,61,0
118296,note_on,96,0,2,,,,,,,,0,,,73,0
118296,note_on,0,0,1,,,,,,,,0,,,76,0
118296,note_on,96,0,1,,,,,,,,0,,,79,0
118320,note_on,24,0,1,,,,,,,,0,,,75,80
118320,note_on,0,0,1,,,,,,,,0,,,87,80
118320,control_change,498,0,4,,,,,,,,0,64,0,,
118320,note_on,24,0,2,,,,,,,,0,,,60,80
118320,note_on,0,0,2,,,,,,,,0,,,69,80
118320,note_on,0,0,2,,,,,,,,0,,,72,80
118320,note_on,0,0,1,,,,,,,,0,,,78,80
118366,control_change,46,0,4,,,,,,,,0,64,127,,
118416,note_on,96,0,1,,,,,,,,0,,,78,0
118416,note_on,0,0,2,,,,,,,,0,,,60,0
118416,note_on,0,0,2,,,,,,,,0,,,69,0
118416,note_on,0,0,1,,,,,,,,0,,,87,0
118416,note_on,96,0,2,,,,,,,,0,,,72,0
118416,note_on,0,0,1,,,,,,,,0,,,75,0
118500,note_on,84,0,2,,,,,,,,0,,,66,80
118500,note_on,0,0,1,,,,,,,,0,,,72,80
118500,note_on,84,0,1,,,,,,,,0,,,75,80
118500,note_on,0,0,2,,,,,,,,0,,,69,80
118500,note_on,0,0,2,,,,,,,,0,,,57,80
118500,note_on,0,0,1,,,,,,,,0,,,84,80
118548,note_on,0,0,1,,,,,,,,0,,,75,0
118548,note_on,0,0,2,,,,,,,,0,,,69,0
118548,note_on,0,0,2,,,,,,,,0,,,66,0
118548,note_on,48,0,2,,,,,,,,0,,,57,0
118548,note_on,48,0,1,,,,,,,,0,,,72,0
118548,note_on,0,0,1,,,,,,,,0,,,84,0
118560,note_on,0,0,2,,,,,,,,0,,,69,80
118560,note_on,12,0,1,,,,,,,,0,,,72,80
118560,note_on,12,0,2,,,,,,,,0,,,66,80
118560,note_on,0,0,1,,,,,,,,0,,,75,80
118560,note_on,0,0,1,,,,,,,,0,,,84,80
118560,note_on,0,0,2,,,,,,,,0,,,57,80
118656,note_on,96,0,2,,,,,,,,0,,,57,0
118656,note_on,96,0,1,,,,,,,,0,,,84,0
118656,note_on,0,0,1,,,,,,,,0,,,75,0
118656,note_on,0,0,2,,,,,,,,0,,,69,0
118656,note_on,0,0,2,,,,,,,,0,,,66,0
118656,note_on,0,0,1,,,,,,,,0,,,72,0
118680,note_on,24,0,1,,,,,,,,0,,,74,80
118680,note_on,24,0,2,,,,,,,,0,,,68,80
118680,note_on,0,0,2,,,,,,,,0,,,65,80
118680,note_on,0,0,1,,,,,,,,0,,,71,80
118680,note_on,0,0,1,,,,,,,,0,,,83,80
118680,note_on,0,0,2,,,,,,,,0,,,56,80
118776,note_on,96,0,1,,,,,,,,0,,,83,0
118776,note_on,96,0,2,,,,,,,,0,,,65,0
118776,note_on,0,0,1,,,,,,,,0,,,71,0
118776,note_on,0,0,1,,,,,,,,0,,,74,0
118776,note_on,0,0,2,,,,,,,,0,,,56,0
118776,note_on,0,0,2,,,,,,,,0,,,68,0
118846,control_change,480,0,4,,,,,,,,0,64,0,,
118860,note_on,84,0,1,,,,,,,,0,,,68,80
118860,note_on,14,0,4,,,,,,,,0,,,62,80
118860,note_on,0,0,4,,,,,,,,0,,,53,80
118860,note_on,0,0,4,,,,,,,,0,,,65,80
118860,note_on,0,0,1,,,,,,,,0,,,71,80
118860,note_on,0,0,1,,,,,,,,0,,,80,80
118864,control_change,4,0,4,,,,,,,,0,64,127,,
118908,note_on,48,0,1,,,,,,,,0,,,71,0
118908,note_on,0,0,1,,,,,,,,0,,,80,0
118908,note_on,0,0,1,,,,,,,,0,,,68,0
118908,note_on,44,0,4,,,,,,,,0,,,53,0
118908,note_on,0,0,4,,,,,,,,0,,,62,0
118908,note_on,0,0,4,,,,,,,,0,,,65,0
118920,note_on,12,0,1,,,,,,,,0,,,71,80
118920,note_on,0,0,1,,,,,,,,0,,,80,80
118920,note_on,12,0,4,,,,,,,,0,,,65,80
118920,note_on,0,0,4,,,,,,,,0,,,62,80
118920,note_on,0,0,4,,,,,,,,0,,,53,80
118920,note_on,0,0,1,,,,,,,,0,,,68,80
119016,note_on,0,0,1,,,,,,,,0,,,68,0
119016,note_on,96,0,1,,,,,,,,0,,,80,0
119016,note_on,96,0,4,,,,,,,,0,,,62,0
119016,note_on,0,0,1,,,,,,,,0,,,71,0
119016,note_on,0,0,4,,,,,,,,0,,,65,0
119016,note_on,0,0,4,,,,,,,,0,,,53,0
119040,note_on,24,0,1,,,,,,,,0,,,70,80
119040,note_on,0,0,4,,,,,,,,0,,,52,80
119040,note_on,0,0,1,,,,,,,,0,,,79,80
119040,note_on,24,0,4,,,,,,,,0,,,61,80
119040,note_on,0,0,1,,,,,,,,0,,,67,80
119040,note_on,0,0,4,,,,,,,,0,,,64,80
119136,note_on,0,0,1,,,,,,,,0,,,67,0
119136,note_on,0,0,4,,,,,,,,0,,,64,0
119136,note_on,0,0,1,,,,,,,,0,,,70,0
119136,note_on,96,0,1,,,,,,,,0,,,79,0
119136,note_on,0,0,4,,,,,,,,0,,,61,0
119136,note_on,96,0,4,,,,,,,,0,,,52,0
119220,note_on,84,0,1,,,,,,,,0,,,64,80
119220,note_on,0,0,1,,,,,,,,0,,,67,80
119220,note_on,0,0,4,,,,,,,,0,,,49,80
119220,note_on,0,0,1,,,,,,,,0,,,76,80
119220,note_on,0,0,4,,,,,,,,0,,,58,80
119220,note_on,84,0,4,,,,,,,,0,,,61,80
119268,note_on,48,0,1,,,,,,,,0,,,67,0
119268,note_on,0,0,4,,,,,,,,0,,,61,0
119268,note_on,0,0,1,,,,,,,,0,,,76,0
119268,note_on,0,0,1,,,,,,,,0,,,64,0
119268,note_on,48,0,4,,,,,,,,0,,,49,0
119268,note_on,0,0,4,,,,,,,,0,,,58,0
119280,note_on,0,0,1,,,,,,,,0,,,76,80
119280,note_on,0,0,1,,,,,,,,0,,,64,80
119280,note_on,12,0,4,,,,,,,,0,,,49,80
119280,note_on,0,0,4,,,,,,,,0,,,58,80
119280,note_on,12,0,1,,,,,,,,0,,,67,80
119280,note_on,0,0,4,,,,,,,,0,,,61,80
119376,note_on,0,0,4,,,,,,,,0,,,49,0
119376,note_on,0,0,1,,,,,,,,0,,,67,0
119376,note_on,0,0,4,,,,,,,,0,,,61,0
119376,note_on,96,0,4,,,,,,,,0,,,58,0
119376,note_on,0,0,1,,,,,,,,0,,,64,0
119376,note_on,96,0,1,,,,,,,,0,,,76,0
119389,set_tempo,2149,1,0,,,,,,933707,,,,,,
119400,note_on,0,0,4,,,,,,,,0,,,60,80
119400,note_on,0,0,4,,,,,,,,0,,,48,80
119400,note_on,0,0,4,,,,,,,,0,,,57,80
119400,time_signature,11,1,0,2,4,24,8,,,,,,,,
119400,note_on,0,0,1,,,,,,,,0,,,75,80
119400,control_change,24,0,4,,,,,,,,0,64,0,,
119400,note_on,24,0,1,,,,,,,,0,,,63,80
119400,note_on,0,0,1,,,,,,,,0,,,66,80
119421,control_change,21,0,4,,,,,,,,0,64,127,,
119424,set_tempo,24,1,0,,,,,,923077,,,,,,
119448,note_on,48,0,1,,,,,,,,0,,,75,0
119448,note_on,0,0,4,,,,,,,,0,,,48,0
119448,note_on,0,0,1,,,,,,,,0,,,63,0
119448,note_on,0,0,1,,,,,,,,0,,,66,0
119448,note_on,27,0,4,,,,,,,,0,,,60,0
119448,note_on,0,0,4,,,,,,,,0,,,57,0
119459,set_tempo,35,1,0,,,,,,912686,,,,,,
119460,note_on,12,0,1,,,,,,,,0,,,63,80
119460,note_on,0,0,4,,,,,,,,0,,,54,80
119460,note_on,0,0,1,,,,,,,,0,,,60,80
119460,note_on,0,0,1,,,,,,,,0,,,72,80
119460,note_on,0,0,4,,,,,,,,0,,,45,80
119460,note_on,12,0,4,,,,,,,,0,,,57,80
119494,set_tempo,35,1,0,,,,,,902527,,,,,,
119508,note_on,48,0,4,,,,,,,,0,,,54,0
119508,note_on,0,0,4,,,,,,,,0,,,45,0
119508,note_on,0,0,1,,,,,,,,0,,,72,0
119508,note_on,0,0,1,,,,,,,,0,,,63,0
119508,note_on,0,0,4,,,,,,,,0,,,57,0
119508,note_on,48,0,1,,,,,,,,0,,,60,0
119520,note_on,12,0,1,,,,,,,,0,,,62,80
119520,note_on,12,0,4,,,,,,,,0,,,53,80
119520,note_on,0,0,4,,,,,,,,0,,,56,80
119520,note_on,0,0,1,,,,,,,,0,,,59,80
119520,note_on,0,0,1,,,,,,,,0,,,71,80
119520,note_on,0,0,4,,,,,,,,0,,,44,80
119529,set_tempo,35,1,0,,,,,,892591,,,,,,
119564,set_tempo,35,1,0,,,,,,882872,,,,,,
119568,note_on,48,0,1,,,,,,,,0,,,59,0
119568,note_on,0,0,1,,,,,,,,0,,,62,0
119568,note_on,48,0,4,,,,,,,,0,,,44,0
119568,note_on,0,0,1,,,,,,,,0,,,71,0
119568,note_on,0,0,4,,,,,,,,0,,,53,0
119568,note_on,0,0,4,,,,,,,,0,,,56,0
119580,note_on,12,0,4,,,,,,,,0,,,53,80
119580,note_on,12,0,1,,,,,,,,0,,,59,80
119580,note_on,0,0,1,,,,,,,,0,,,56,80
119580,note_on,0,0,1,,,,,,,,0,,,68,80
119580,note_on,0,0,4,,,,,,,,0,,,50,80
119580,note_on,0,0,4,,,,,,,,0,,,41,80
119599,set_tempo,35,1,0,,,,,,873362,,,,,,
119628,note_on,48,0,1,,,,,,,,0,,,68,0
119628,note_on,0,0,1,,,,,,,,0,,,56,0
119628,note_on,0,0,1,,,,,,,,0,,,59,0
119628,note_on,0,0,4,,,,,,,,0,,,41,0
119628,note_on,0,0,4,,,,,,,,0,,,53,0
119628,note_on,48,0,4,,,,,,,,0,,,50,0
119634,set_tempo,35,1,0,,,,,,864055,,,,,,
119640,note_on,12,0,1,,,,,,,,0,,,55,80
119640,note_on,0,0,1,,,,,,,,0,,,58,80
119640,note_on,0,0,4,,,,,,,,0,,,49,80
119640,note_on,0,0,4,,,,,,,,0,,,52,80
119640,note_on,0,0,1,,,,,,,,0,,,67,80
119640,note_on,12,0,4,,,,,,,,0,,,40,80
119646,control_change,6,0,4,,,,,,,,0,64,0,,
119669,control_change,23,0,4,,,,,,,,0,64,127,,
119669,set_tempo,35,1,0,,,,,,854944,,,,,,
119688,note_on,0,0,4,,,,,,,,0,,,49,0
119688,note_on,0,0,1,,,,,,,,0,,,67,0
119688,note_on,0,0,1,,,,,,,,0,,,55,0
119688,note_on,48,0,1,,,,,,,,0,,,58,0
119688,note_on,0,0,4,,,,,,,,0,,,40,0
119688,note_on,19,0,4,,,,,,,,0,,,52,0
119700,note_on,12,0,4,,,,,,,,0,,,43,80
119700,note_on,0,0,1,,,,,,,,0,,,58,80
119700,note_on,0,0,1,,,,,,,,0,,,70,80
119700,note_on,0,0,4,,,,,,,,0,,,52,80
119700,note_on,12,0,1,,,,,,,,0,,,61,80
119700,note_on,0,0,4,,,,,,,,0,,,55,80
119704,set_tempo,35,1,0,,,,,,846024,,,,,,
119738,set_tempo,34,1,0,,,,,,837287,,,,,,
119748,note_on,0,0,1,,,,,,,,0,,,61,0
119748,note_on,48,0,1,,,,,,,,0,,,70,0
119748,note_on,48,0,4,,,,,,,,0,,,52,0
119748,note_on,0,0,4,,,,,,,,0,,,55,0
119748,note_on,0,0,1,,,,,,,,0,,,58,0
119748,note_on,0,0,4,,,,,,,,0,,,43,0
119760,note_on,0,0,4,,,,,,,,0,,,56,80
119760,note_on,0,0,1,,,,,,,,0,,,62,80
119760,note_on,0,0,1,,,,,,,,0,,,71,80
119760,note_on,12,0,1,,,,,,,,0,,,59,80
119760,note_on,12,0,4,,,,,,,,0,,,44,80
119760,note_on,0,0,4,,,,,,,,0,,,53,80
119773,set_tempo,35,1,0,,,,,,828729,,,,,,
119808,note_on,0,0,4,,,,,,,,0,,,56,0
119808,note_on,0,0,1,,,,,,,,0,,,59,0
119808,note_on,0,0,4,,,,,,,,0,,,44,0
119808,set_tempo,35,1,0,,,,,,820345,,,,,,
119808,note_on,48,0,4,,,,,,,,0,,,53,0
119808,note_on,0,0,1,,,,,,,,0,,,62,0
119808,note_on,48,0,1,,,,,,,,0,,,71,0
119820,note_on,12,0,4,,,,,,,,0,,,59,80
119820,note_on,12,0,1,,,,,,,,0,,,62,80
119820,note_on,0,0,4,,,,,,,,0,,,56,80
119820,note_on,0,0,1,,,,,,,,0,,,65,80
119820,note_on,0,0,1,,,,,,,,0,,,74,80
119820,note_on,0,0,4,,,,,,,,0,,,47,80
119843,set_tempo,35,1,0,,,,,,812128,,,,,,
119868,note_on,48,0,4,,,,,,,,0,,,47,0
119868,note_on,0,0,1,,,,,,,,0,,,74,0
119868,note_on,48,0,1,,,,,,,,0,,,65,0
119868,note_on,0,0,4,,,,,,,,0,,,56,0
119868,note_on,0,0,4,,,,,,,,0,,,59,0
119868,note_on,0,0,1,,,,,,,,0,,,62,0
119869,set_tempo,26,1,0,,,,,,804074,,,,,,
119880,control_change,0,0,4,,,,,,,,0,64,0,,
119880,note_on,12,0,1,,,,,,,,0,,,63,80
119880,note_on,0,0,4,,,,,,,,0,,,48,80
119880,note_on,0,0,4,,,,,,,,0,,,60,80
119880,note_on,0,0,1,,,,,,,,0,,,66,80
119880,note_on,0,0,1,,,,,,,,0,,,75,80
119880,note_on,12,0,4,,,,,,,,0,,,57,80
119896,set_tempo,27,1,0,,,,,,796178,,,,,,
119899,control_change,19,0,4,,,,,,,,0,64,127,,
119917,set_tempo,21,1,0,,,,,,788436,,,,,,
119928,note_on,0,0,4,,,,,,,,0,,,60,0
119928,note_on,29,0,4,,,,,,,,0,,,48,0
119928,note_on,48,0,1,,,,,,,,0,,,66,0
119928,note_on,0,0,4,,,,,,,,0,,,57,0
119928,note_on,0,0,1,,,,,,,,0,,,63,0
119928,note_on,0,0,1,,,,,,,,0,,,75,0
119940,note_on,0,0,1,,,,,,,,0,,,63,80
119940,note_on,12,0,1,,,,,,,,0,,,72,80
119940,note_on,0,0,1,,,,,,,,0,,,60,80
119940,note_on,12,0,4,,,,,,,,0,,,54,80
119940,note_on,0,0,4,,,,,,,,0,,,45,80
119940,note_on,0,0,4,,,,,,,,0,,,57,80
119944,set_tempo,27,1,0,,,,,,780843,,,,,,
119965,set_tempo,21,1,0,,,,,,773395,,,,,,
119987,set_tempo,22,1,0,,,,,,766088,,,,,,
119988,note_on,0,0,4,,,,,,,,0,,,45,0
119988,note_on,48,0,1,,,,,,,,0,,,60,0
119988,note_on,48,0,4,,,,,,,,0,,,57,0
119988,note_on,0,0,4,,,,,,,,0,,,54,0
119988,note_on,0,0,1,,,,,,,,0,,,72,0
119988,note_on,0,0,1,,,,,,,,0,,,63,0
120000,note_on,12,0,1,,,,,,,,0,,,71,80
120000,note_on,0,0,1,,,,,,,,0,,,62,80
120000,note_on,0,0,1,,,,,,,,0,,,59,80
120000,note_on,12,0,4,,,,,,,,0,,,56,80
120000,note_on,0,0,4,,,,,,,,0,,,44,80
120000,note_on,0,0,4,,,,,,,,0,,,53,80
120013,set_tempo,26,1,0,,,,,,758917,,,,,,
120035,set_tempo,22,1,0,,,,,,751880,,,,,,
120048,note_on,0,0,1,,,,,,,,0,,,59,0
120048,note_on,0,0,4,,,,,,,,0,,,56,0
120048,note_on,48,0,4,,,,,,,,0,,,53,0
120048,note_on,0,0,1,,,,,,,,0,,,71,0
120048,note_on,48,0,1,,,,,,,,0,,,62,0
120048,note_on,0,0,4,,,,,,,,0,,,44,0
120057,set_tempo,22,1,0,,,,,,744971,,,,,,
120060,note_on,0,0,1,,,,,,,,0,,,65,80
120060,note_on,0,0,1,,,,,,,,0,,,74,80
120060,note_on,0,0,4,,,,,,,,0,,,56,80
120060,note_on,12,0,1,,,,,,,,0,,,62,80
120060,note_on,0,0,4,,,,,,,,0,,,59,80
120060,note_on,12,0,4,,,,,,,,0,,,47,80
120083,set_tempo,26,1,0,,,,,,738189,,,,,,
120105,set_tempo,22,1,0,,,,,,731529,,,,,,
120108,note_on,48,0,4,,,,,,,,0,,,59,0
120108,note_on,0,0,1,,,,,,,,0,,,65,0
120108,note_on,48,0,1,,,,,,,,0,,,74,0
120108,note_on,0,0,4,,,,,,,,0,,,47,0
120108,note_on,0,0,1,,,,,,,,0,,,62,0
120108,note_on,0,0,4,,,,,,,,0,,,56,0
120120,note_on,12,0,4,,,,,,,,0,,,48,80
120120,note_on,0,0,1,,,,,,,,0,,,63,80
120120,note_on,12,0,1,,,,,,,,0,,,75,80
120120,note_on,0,0,4,,,,,,,,0,,,57,80
120120,note_on,0,0,4,,,,,,,,0,,,60,80
120120,note_on,0,0,1,,,,,,,,0,,,66,80
120127,set_tempo,22,1,0,,,,,,724988,,,,,,
120153,set_tempo,26,1,0,,,,,,718563,,,,,,
120168,note_on,0,0,4,,,,,,,,0,,,48,0
120168,note_on,0,0,4,,,,,,,,0,,,60,0
120168,note_on,0,0,1,,,,,,,,0,,,66,0
120168,note_on,48,0,1,,,,,,,,0,,,63,0
120168,note_on,48,0,4,,,,,,,,0,,,57,0
120168,note_on,0,0,1,,,,,,,,0,,,75,0
120175,set_tempo,22,1,0,,,,,,712251,,,,,,
120180,note_on,0,0,1,,,,,,,,0,,,66,80
120180,note_on,12,0,1,,,,,,,,0,,,69,80
120180,note_on,0,0,4,,,,,,,,0,,,60,80
120180,note_on,0,0,4,,,,,,,,0,,,51,80
120180,note_on,0,0,1,,,,,,,,0,,,78,80
120180,note_on,12,0,4,,,,,,,,0,,,63,80
120197,set_tempo,22,1,0,,,,,,706048,,,,,,
120223,set_tempo,26,1,0,,,,,,699953,,,,,,
120228,note_on,48,0,4,,,,,,,,0,,,51,0
120228,note_on,0,0,1,,,,,,,,0,,,66,0
120228,note_on,48,0,1,,,,,,,,0,,,78,0
120228,note_on,0,0,4,,,,,,,,0,,,60,0
120228,note_on,0,0,4,,,,,,,,0,,,63,0
120228,note_on,0,0,1,,,,,,,,0,,,69,0
120240,note_on,0,0,1,,,,,,,,0,,,70,80
120240,note_on,0,0,1,,,,,,,,0,,,79,80
120240,note_on,12,0,4,,,,,,,,0,,,52,80
120240,note_on,12,0,1,,,,,,,,0,,,67,80
120240,note_on,0,0,4,,,,,,,,0,,,64,80
120240,note_on,0,0,4,,,,,,,,0,,,61,80
120245,set_tempo,22,1,0,,,,,,693963,,,,,,
120266,set_tempo,21,1,0,,,,,,688073,,,,,,
120288,note_on,0,0,4,,,,,,,,0,,,64,0
120288,note_on,0,0,4,,,,,,,,0,,,52,0
120288,note_on,0,0,1,,,,,,,,0,,,67,0
120288,note_on,48,0,4,,,,,,,,0,,,61,0
120288,note_on,48,0,1,,,,,,,,0,,,79,0
120288,note_on,0,0,1,,,,,,,,0,,,70,0
120293,set_tempo,27,1,0,,,,,,682283,,,,,,
120300,note_on,0,0,1,,,,,,,,0,,,76,80
120300,note_on,12,0,4,,,,,,,,0,,,58,80
120300,note_on,0,0,4,,,,,,,,0,,,49,80
120300,note_on,0,0,4,,,,,,,,0,,,61,80
120300,note_on,0,0,1,,,,,,,,0,,,67,80
120300,note_on,12,0,1,,,,,,,,0,,,64,80
120314,set_tempo,21,1,0,,,,,,676590,,,,,,
120336,set_tempo,22,1,0,,,,,,670991,,,,,,
120348,note_on,0,0,1,,,,,,,,0,,,67,0
120348,note_on,48,0,4,,,,,,,,0,,,49,0
120348,note_on,0,0,4,,,,,,,,0,,,58,0
120348,note_on,0,0,4,,,,,,,,0,,,61,0
120348,note_on,48,0,1,,,,,,,,0,,,76,0
120348,note_on,0,0,1,,,,,,,,0,,,64,0
120360,note_on,0,0,4,,,,,,,,0,,,57,80
120360,note_on,12,0,4,,,,,,,,0,,,60,80
120360,note_on,12,0,1,,,,,,,,0,,,66,80
120360,note_on,0,0,4,,,,,,,,0,,,48,80
120360,note_on,0,0,1,,,,,,,,0,,,63,80
120360,note_on,0,0,1,,,,,,,,0,,,75,80
120379,control_change,19,0,4,,,,,,,,0,64,0,,
120408,note_on,0,0,1,,,,,,,,0,,,75,0
120408,note_on,0,0,1,,,,,,,,0,,,66,0
120408,note_on,29,0,4,,,,,,,,0,,,48,0
120408,note_on,0,0,4,,,,,,,,0,,,60,0
120408,note_on,0,0,4,,,,,,,,0,,,57,0
120408,note_on,48,0,1,,,,,,,,0,,,63,0
120420,note_on,12,0,4,,,,,,,,0,,,51,80
120420,note_on,0,0,1,,,,,,,,0,,,66,80
120420,note_on,0,0,1,,,,,,,,0,,,78,80
120420,note_on,0,0,4,,,,,,,,0,,,60,80
120420,note_on,12,0,1,,,,,,,,0,,,69,80
120420,note_on,0,0,4,,,,,,,,0,,,63,80
120468,note_on,0,0,4,,,,,,,,0,,,51,0
120468,note_on,0,0,4,,,,,,,,0,,,63,0
120468,note_on,0,0,1,,,,,,,,0,,,78,0
120468,note_on,0,0,1,,,,,,,,0,,,69,0
120468,note_on,48,0,4,,,,,,,,0,,,60,0
120468,note_on,48,0,1,,,,,,,,0,,,66,0
120480,note_on,12,0,4,,,,,,,,0,,,61,80
120480,note_on,12,0,1,,,,,,,,0,,,67,80
120480,note_on,0,0,4,,,,,,,,0,,,64,80
120480,note_on,0,0,1,,,,,,,,0,,,79,80
120480,note_on,0,0,1,,,,,,,,0,,,70,80
120480,note_on,0,0,4,,,,,,,,0,,,52,80
120528,note_on,0,0,1,,,,,,,,0,,,70,0
120528,note_on,48,0,1,,,,,,,,0,,,79,0
120528,note_on,48,0,4,,,,,,,,0,,,52,0
120528,note_on,0,0,4,,,,,,,,0,,,61,0
120528,note_on,0,0,4,,,,,,,,0,,,64,0
120528,note_on,0,0,1,,,,,,,,0,,,67,0
120540,note_on,12,0,4,,,,,,,,0,,,64,80
120540,note_on,12,0,1,,,,,,,,0,,,70,80
120540,note_on,0,0,4,,,,,,,,0,,,55,80
120540,note_on,0,0,1,,,,,,,,0,,,82,80
120540,note_on,0,0,4,,,,,,,,0,,,67,80
120540,note_on,0,0,1,,,,,,,,0,,,73,80
120584,set_tempo,248,1,0,,,,,,654736,,,,,,
120588,note_on,48,0,1,,,,,,,,0,,,73,0
120588,note_on,0,0,1,,,,,,,,0,,,70,0
120588,note_on,48,0,4,,,,,,,,0,,,55,0
120588,note_on,0,0,4,,,,,,,,0,,,67,0
120588,note_on,0,0,4,,,,,,,,0,,,64,0
120588,note_on,0,0,1,,,,,,,,0,,,82,0
120597,set_tempo,13,1,0,,,,,,660066,,,,,,
120600,note_on,12,0,4,,,,,,,,0,,,65,80
120600,note_on,0,0,4,,,,,,,,0,,,56,80
120600,note_on,0,0,4,,,,,,,,0,,,68,80
120600,note_on,12,0,1,,,,,,,,0,,,83,80
120600,note_on,0,0,1,,,,,,,,0,,,71,80
120600,note_on,0,0,1,,,,,,,,0,,,74,80
120610,set_tempo,13,1,0,,,,,,665484,,,,,,
120623,set_tempo,13,1,0,,,,,,670991,,,,,,
120636,set_tempo,13,1,0,,,,,,676590,,,,,,
120648,note_on,48,0,4,,,,,,,,0,,,68,0
120648,note_on,0,0,4,,,,,,,,0,,,56,0
120648,note_on,0,0,4,,,,,,,,0,,,65,0
120648,note_on,0,0,1,,,,,,,,0,,,71,0
120648,note_on,0,0,1,,,,,,,,0,,,83,0
120648,note_on,48,0,1,,,,,,,,0,,,74,0
120649,set_tempo,13,1,0,,,,,,682283,,,,,,
120658,set_tempo,9,1,0,,,,,,688073,,,,,,
120660,note_on,12,0,4,,,,,,,,0,,,65,80
120660,note_on,0,0,4,,,,,,,,0,,,62,80
120660,note_on,12,0,1,,,,,,,,0,,,68,80
120660,note_on,0,0,4,,,,,,,,0,,,53,80
120660,note_on,0,0,1,,,,,,,,0,,,71,80
120660,note_on,0,0,1,,,,,,,,0,,,80,80
120671,set_tempo,13,1,0,,,,,,693963,,,,,,
120684,set_tempo,13,1,0,,,,,,699953,,,,,,
120697,set_tempo,13,1,0,,,,,,706048,,,,,,
120708,note_on,48,0,1,,,,,,,,0,,,71,0
120708,note_on,48,0,4,,,,,,,,0,,,62,0
120708,note_on,0,0,1,,,,,,,,0,,,80,0
120708,note_on,0,0,1,,,,,,,,0,,,68,0
120708,note_on,0,0,4,,,,,,,,0,,,53,0
120708,note_on,0,0,4,,,,,,,,0,,,65,0
120710,set_tempo,13,1,0,,,,,,712251,,,,,,
120720,note_on,0,0,1,,,,,,,,0,,,72,80
120720,note_on,12,0,4,,,,,,,,0,,,63,80
120720,note_on,12,0,1,,,,,,,,0,,,69,80
120720,note_on,0,0,4,,,,,,,,0,,,54,80
120720,note_on,0,0,4,,,,,,,,0,,,66,80
120720,note_on,0,0,1,,,,,,,,0,,,81,80
120723,set_tempo,13,1,0,,,,,,718563,,,,,,
120732,set_tempo,9,1,0,,,,,,724988,,,,,,
120745,set_tempo,13,1,0,,,,,,731529,,,,,,
120758,set_tempo,13,1,0,,,,,,738189,,,,,,
120768,note_on,0,0,1,,,,,,,,0,,,69,0
120768,note_on,48,0,4,,,,,,,,0,,,54,0
120768,note_on,48,0,1,,,,,,,,0,,,81,0
120768,note_on,0,0,4,,,,,,,,0,,,63,0
120768,note_on,0,0,4,,,,,,,,0,,,66,0
120768,note_on,0,0,1,,,,,,,,0,,,72,0
120771,set_tempo,13,1,0,,,,,,744971,,,,,,
120780,note_on,0,0,1,,,,,,,,0,,,72,80
120780,note_on,0,0,1,,,,,,,,0,,,84,80
120780,note_on,0,0,4,,,,,,,,0,,,57,80
120780,note_on,0,0,4,,,,,,,,0,,,69,80
120780,note_on,12,0,4,,,,,,,,0,,,66,80
120780,note_on,12,0,1,,,,,,,,0,,,75,80
120785,set_tempo,14,1,0,,,,,,751880,,,,,,
120798,set_tempo,13,1,0,,,,,,758917,,,,,,
120806,set_tempo,8,1,0,,,,,,766088,,,,,,
120819,set_tempo,13,1,0,,,,,,773395,,,,,,
120828,note_on,0,0,1,,,,,,,,0,,,75,0
120828,note_on,0,0,4,,,,,,,,0,,,57,0
120828,note_on,0,0,4,,,,,,,,0,,,66,0
120828,note_on,48,0,1,,,,,,,,0,,,84,0
120828,note_on,48,0,4,,,,,,,,0,,,69,0
120828,note_on,0,0,1,,,,,,,,0,,,72,0
120833,set_tempo,14,1,0,,,,,,780843,,,,,,
120840,note_on,0,0,1,,,,,,,,0,,,85,80
120840,note_on,12,0,1,,,,,,,,0,,,73,80
120840,note_on,0,0,2,,,,,,,,0,,,67,80
120840,note_on,2064,0,2,,,,,,,,0,,,58,80
120840,note_on,0,0,2,,,,,,,,0,,,70,80
120840,note_on,0,0,1,,,,,,,,0,,,76,80
120846,set_tempo,13,1,0,,,,,,804074,,,,,,
120848,control_change,20,0,4,,,,,,,,0,64,127,,
120857,set_tempo,11,1,0,,,,,,796178,,,,,,
120879,set_tempo,22,1,0,,,,,,788436,,,,,,
120888,note_on,48,0,2,,,,,,,,0,,,70,0
120888,note_on,0,0,1,,,,,,,,0,,,73,0
120888,note_on,0,0,2,,,,,,,,0,,,67,0
120888,note_on,0,0,2,,,,,,,,0,,,58,0
120888,note_on,48,0,1,,,,,,,,0,,,76,0
120888,note_on,0,0,1,,,,,,,,0,,,85,0
120900,note_on,0,0,1,,,,,,,,0,,,82,80
120900,note_on,0,0,1,,,,,,,,0,,,73,80
120900,note_on,12,0,1,,,,,,,,0,,,70,80
120900,note_on,12,0,2,,,,,,,,0,,,64,80
120900,note_on,0,0,2,,,,,,,,0,,,67,80
120900,note_on,0,0,2,,,,,,,,0,,,55,80
120901,set_tempo,22,1,0,,,,,,780843,,,,,,
120918,set_tempo,17,1,0,,,,,,773395,,,,,,
120940,set_tempo,22,1,0,,,,,,766088,,,,,,
120948,note_on,0,0,2,,,,,,,,0,,,55,0
120948,note_on,0,0,2,,,,,,,,0,,,64,0
120948,note_on,0,0,1,,,,,,,,0,,,70,0
120948,note_on,48,0,1,,,,,,,,0,,,73,0
120948,note_on,0,0,1,,,,,,,,0,,,82,0
120948,note_on,48,0,2,,,,,,,,0,,,67,0
120957,set_tempo,17,1,0,,,,,,758917,,,,,,
120960,note_on,0,0,2,,,,,,,,0,,,56,80
120960,note_on,0,0,1,,,,,,,,0,,,83,80
120960,note_on,0,0,1,,,,,,,,0,,,71,80
120960,note_on,12,0,2,,,,,,,,0,,,68,80
120960,note_on,12,0,1,,,,,,,,0,,,74,80
120960,note_on,0,0,2,,,,,,,,0,,,65,80
120979,set_tempo,22,1,0,,,,,,751880,,,,,,
120997,set_tempo,18,1,0,,,,,,744971,,,,,,
121008,note_on,0,0,1,,,,,,,,0,,,71,0
121008,note_on,0,0,1,,,,,,,,0,,,74,0
121008,note_on,0,0,2,,,,,,,,0,,,68,0
121008,note_on,0,0,2,,,,,,,,0,,,65,0
121008,note_on,48,0,1,,,,,,,,0,,,83,0
121008,note_on,48,0,2,,,,,,,,0,,,56,0
121018,set_tempo,21,1,0,,,,,,738189,,,,,,
121020,note_on,0,0,1,,,,,,,,0,,,77,80
121020,note_on,0,0,2,,,,,,,,0,,,59,80
121020,note_on,12,0,2,,,,,,,,0,,,71,80
121020,note_on,0,0,2,,,,,,,,0,,,68,80
121020,note_on,0,0,1,,,,,,,,0,,,74,80
121020,note_on,12,0,1,,,,,,,,0,,,86,80
121040,set_tempo,22,1,0,,,,,,731529,,,,,,
121058,set_tempo,18,1,0,,,,,,724988,,,,,,
121068,note_on,48,0,1,,,,,,,,0,,,77,0
121068,note_on,0,0,1,,,,,,,,0,,,74,0
121068,note_on,0,0,2,,,,,,,,0,,,71,0
121068,note_on,0,0,2,,,,,,,,0,,,59,0
121068,note_on,0,0,1,,,,,,,,0,,,86,0
121068,note_on,48,0,2,,,,,,,,0,,,68,0
121080,note_on,12,0,1,,,,,,,,0,,,78,80
121080,note_on,12,0,2,,,,,,,,0,,,72,80
121080,note_on,0,0,1,,,,,,,,0,,,75,80
121080,note_on,0,0,1,,,,,,,,0,,,87,80
121080,set_tempo,22,1,0,,,,,,718563,,,,,,
121080,note_on,0,0,2,,,,,,,,0,,,60,80
121080,note_on,0,0,2,,,,,,,,0,,,69,80
121097,set_tempo,17,1,0,,,,,,712251,,,,,,
121119,set_tempo,22,1,0,,,,,,706048,,,,,,
121128,note_on,0,0,2,,,,,,,,0,,,72,0
121128,note_on,0,0,2,,,,,,,,0,,,69,0
121128,note_on,0,0,1,,,,,,,,0,,,78,0
121128,note_on,0,0,1,,,,,,,,0,,,87,0
121128,note_on,48,0,2,,,,,,,,0,,,60,0
121128,note_on,48,0,1,,,,,,,,0,,,75,0
121136,set_tempo,17,1,0,,,,,,699953,,,,,,
121140,note_on,0,0,1,,,,,,,,0,,,75,80
121140,note_on,0,0,2,,,,,,,,0,,,69,80
121140,note_on,12,0,1,,,,,,,,0,,,72,80
121140,note_on,12,0,2,,,,,,,,0,,,57,80
121140,note_on,0,0,2,,,,,,,,0,,,66,80
121140,note_on,0,0,1,,,,,,,,0,,,84,80
121158,set_tempo,22,1,0,,,,,,693963,,,,,,
121180,set_tempo,22,1,0,,,,,,688073,,,,,,
121188,note_on,0,0,2,,,,,,,,0,,,69,0
121188,note_on,0,0,2,,,,,,,,0,,,57,0
121188,note_on,48,0,2,,,,,,,,0,,,66,0
121188,note_on,48,0,1,,,,,,,,0,,,75,0
121188,note_on,0,0,1,,,,,,,,0,,,84,0
121188,note_on,0,0,1,,,,,,,,0,,,72,0
121197,set_tempo,17,1,0,,,,,,682283,,,,,,
121200,note_on,0,0,1,,,,,,,,0,,,74,80
121200,note_on,0,0,2,,,,,,,,0,,,65,80
121200,note_on,0,0,2,,,,,,,,0,,,56,80
121200,note_on,12,0,2,,,,,,,,0,,,68,80
121200,note_on,0,0,1,,,,,,,,0,,,83,80
121200,note_on,12,0,1,,,,,,,,0,,,71,80
121219,set_tempo,22,1,0,,,,,,676590,,,,,,
121237,set_tempo,18,1,0,,,,,,670991,,,,,,
121248,note_on,48,0,2,,,,,,,,0,,,65,0
121248,note_on,0,0,2,,,,,,,,0,,,56,0
121248,note_on,48,0,1,,,,,,,,0,,,83,0
121248,note_on,0,0,2,,,,,,,,0,,,68,0
121248,note_on,0,0,1,,,,,,,,0,,,71,0
121248,note_on,0,0,1,,,,,,,,0,,,74,0
121258,set_tempo,21,1,0,,,,,,665484,,,,,,
121260,note_on,0,0,1,,,,,,,,0,,,80,80
121260,note_on,0,0,1,,,,,,,,0,,,68,80
121260,note_on,12,0,2,,,,,,,,0,,,53,80
121260,note_on,0,0,2,,,,,,,,0,,,62,80
121260,note_on,12,0,1,,,,,,,,0,,,71,80
121260,note_on,0,0,2,,,,,,,,0,,,65,80
121276,set_tempo,18,1,0,,,,,,660066,,,,,,
121298,set_tempo,22,1,0,,,,,,654736,,,,,,
121308,note_on,0,0,2,,,,,,,,0,,,53,0
121308,note_on,0,0,1,,,,,,,,0,,,71,0
121308,note_on,0,0,2,,,,,,,,0,,,62,0
121308,note_on,48,0,2,,,,,,,,0,,,65,0
121308,note_on,0,0,1,,,,,,,,0,,,80,0
121308,note_on,48,0,1,,,,,,,,0,,,68,0
121315,set_tempo,17,1,0,,,,,,654736,,,,,,
121320,note_on,472,0,4,,,,,,,,0,,,52,80
121320,note_on,0,0,1,,,,,,,,0,,,79,80
121320,note_on,0,0,4,,,,,,,,0,,,64,80
121320,note_on,0,0,4,,,,,,,,0,,,61,80
121320,note_on,12,0,1,,,,,,,,0,,,70,80
121320,note_on,0,0,1,,,,,,,,0,,,67,80
121324,set_tempo,9,1,0,,,,,,660066,,,,,,
121328,control_change,8,0,4,,,,,,,,0,64,0,,
121346,set_tempo,22,1,0,,,,,,654736,,,,,,
121368,note_on,40,0,4,,,,,,,,0,,,61,0
121368,note_on,0,0,1,,,,,,,,0,,,70,0
121368,note_on,0,0,4,,,,,,,,0,,,52,0
121368,note_on,48,0,1,,,,,,,,0,,,79,0
121368,note_on,0,0,1,,,,,,,,0,,,67,0
121368,note_on,0,0,4,,,,,,,,0,,,64,0
121368,set_tempo,22,1,0,,,,,,649491,,,,,,
121380,note_on,0,0,1,,,,,,,,0,,,67,80
121380,note_on,0,0,1,,,,,,,,0,,,76,80
121380,note_on,12,0,1,,,,,,,,0,,,64,80
121380,note_on,0,0,4,,,,,,,,0,,,58,80
121380,note_on,0,0,4,,,,,,,,0,,,61,80
121380,note_on,12,0,4,,,,,,,,0,,,49,80
121389,set_tempo,21,1,0,,,,,,644330,,,,,,
121411,set_tempo,22,1,0,,,,,,639250,,,,,,
121428,note_on,48,0,1,,,,,,,,0,,,67,0
121428,note_on,0,0,1,,,,,,,,0,,,76,0
121428,note_on,0,0,1,,,,,,,,0,,,64,0
121428,note_on,0,0,4,,,,,,,,0,,,49,0
121428,note_on,0,0,4,,,,,,,,0,,,61,0
121428,note_on,48,0,4,,,,,,,,0,,,58,0
121433,set_tempo,22,1,0,,,,,,634249,,,,,,
121440,note_on,12,0,4,,,,,,,,0,,,48,80
121440,note_on,0,0,1,,,,,,,,0,,,63,80
121440,note_on,0,0,1,,,,,,,,0,,,75,80
121440,note_on,0,0,4,,,,,,,,0,,,60,80
121440,note_on,0,0,4,,,,,,,,0,,,57,80
121440,note_on,12,0,1,,,,,,,,0,,,66,80
121447,set_tempo,14,1,0,,,,,,644330,,,,,,
121488,note_on,48,0,4,,,,,,,,0,,,60,0
121488,note_on,0,0,1,,,,,,,,0,,,63,0
121488,note_on,0,0,1,,,,,,,,0,,,66,0
121488,note_on,48,0,1,,,,,,,,0,,,75,0
121488,note_on,0,0,4,,,,,,,,0,,,57,0
121488,note_on,0,0,4,,,,,,,,0,,,48,0
121500,note_on,0,0,1,,,,,,,,0,,,60,80
121500,note_on,12,0,4,,,,,,,,0,,,45,80
121500,note_on,0,0,4,,,,,,,,0,,,54,80
121500,note_on,0,0,4,,,,,,,,0,,,57,80
121500,note_on,12,0,1,,,,,,,,0,,,72,80
121500,note_on,0,0,1,,,,,,,,0,,,63,80
121548,note_on,0,0,1,,,,,,,,0,,,60,0
121548,note_on,48,0,4,,,,,,,,0,,,57,0
121548,note_on,48,0,1,,,,,,,,0,,,63,0
121548,note_on,0,0,4,,,,,,,,0,,,45,0
121548,note_on,0,0,4,,,,,,,,0,,,54,0
121548,note_on,0,0,1,,,,,,,,0,,,72,0
121560,note_on,12,0,1,,,,,,,,0,,,59,80
121560,note_on,0,0,4,,,,,,,,0,,,44,80
121560,note_on,0,0,4,,,,,,,,0,,,56,80
121560,note_on,0,0,1,,,,,,,,0,,,71,80
121560,note_on,0,0,1,,,,,,,,0,,,62,80
121560,note_on,12,0,4,,,,,,,,0,,,53,80
121561,set_tempo,114,1,0,,,,,,639250,,,,,,
121608,note_on,0,0,1,,,,,,,,0,,,59,0
121608,note_on,0,0,1,,,,,,,,0,,,62,0
121608,note_on,48,0,1,,,,,,,,0,,,71,0
121608,note_on,48,0,4,,,,,,,,0,,,56,0
121608,note_on,0,0,4,,,,,,,,0,,,44,0
121608,note_on,0,0,4,,,,,,,,0,,,53,0
121620,note_on,12,0,1,,,,,,,,0,,,68,80
121620,note_on,0,0,4,,,,,,,,0,,,41,80
121620,note_on,0,0,4,,,,,,,,0,,,53,80
121620,note_on,0,0,1,,,,,,,,0,,,59,80
121620,note_on,0,0,1,,,,,,,,0,,,56,80
121620,note_on,12,0,4,,,,,,,,0,,,50,80
121668,note_on,0,0,4,,,,,,,,0,,,41,0
121668,note_on,0,0,1,,,,,,,,0,,,68,0
121668,note_on,0,0,1,,,,,,,,0,,,59,0
121668,note_on,48,0,4,,,,,,,,0,,,53,0
121668,note_on,48,0,1,,,,,,,,0,,,56,0
121668,note_on,0,0,4,,,,,,,,0,,,50,0
121674,set_tempo,113,1,0,,,,,,634249,,,,,,
121680,note_on,0,0,4,,,,,,,,0,,,49,80
121680,note_on,0,0,4,,,,,,,,0,,,52,80
121680,note_on,0,0,1,,,,,,,,0,,,58,80
121680,note_on,0,0,1,,,,,,,,0,,,67,80
121680,note_on,12,0,1,,,,,,,,0,,,55,80
121680,note_on,12,0,4,,,,,,,,0,,,40,80
121704,set_tempo,30,1,0,,,,,,629327,,,,,,
121728,note_on,0,0,1,,,,,,,,0,,,58,0
121728,note_on,0,0,4,,,,,,,,0,,,49,0
121728,note_on,0,0,4,,,,,,,,0,,,40,0
121728,note_on,0,0,1,,,,,,,,0,,,55,0
121728,note_on,48,0,4,,,,,,,,0,,,52,0
121728,note_on,48,0,1,,,,,,,,0,,,67,0
121740,note_on,4884,0,3,,,,,,,,0,,,64,80
121740,note_on,12,0,4,,,,,,,,0,,,46,80
121740,note_on,0,0,4,,,,,,,,0,,,49,80
121740,note_on,0,0,4,,,,,,,,0,,,37,80
121740,note_on,0,0,3,,,,,,,,0,,,55,80
121740,note_on,0,0,3,,,,,,,,0,,,52,80
121765,set_tempo,61,1,0,,,,,,634249,,,,,,
121788,note_on,0,0,3,,,,,,,,0,,,64,0
121788,note_on,0,0,3,,,,,,,,0,,,52,0
121788,note_on,48,0,4,,,,,,,,0,,,49,0
121788,note_on,48,0,3,,,,,,,,0,,,55,0
121788,note_on,0,0,4,,,,,,,,0,,,37,0
121788,note_on,0,0,4,,,,,,,,0,,,46,0
121800,note_on,12,0,3,,,,,,,,0,,,48,80
121800,note_on,12,0,4,,,,,,,,0,,,36,80
121800,control_change,0,0,4,,,,,,,,0,64,127,,
121800,note_on,0,0,3,,,,,,,,0,,,45,80
121800,note_on,0,0,3,,,,,,,,0,,,51,80
121800,note_on,0,0,3,,,,,,,,0,,,54,80
121800,note_on,0,0,3,,,,,,,,0,,,63,80
121830,set_tempo,65,1,0,,,,,,639250,,,,,,
121848,note_on,0,0,3,,,,,,,,0,,,54,0
121848,note_on,48,0,3,,,,,,,,0,,,45,0
121848,note_on,0,0,3,,,,,,,,0,,,48,0
121848,note_on,0,0,3,,,,,,,,0,,,51,0
121848,note_on,0,0,3,,,,,,,,0,,,63,0
121860,note_on,0,0,3,,,,,,,,0,,,60,80
121860,note_on,12,0,3,,,,,,,,0,,,48,80
121860,note_on,0,0,3,,,,,,,,0,,,42,80
121860,note_on,0,0,3,,,,,,,,0,,,45,80
121891,set_tempo,61,1,0,,,,,,644330,,,,,,
121896,note_on,96,0,4,,,,,,,,0,,,36,0
121908,note_on,0,0,3,,,,,,,,0,,,45,0
121908,note_on,0,0,3,,,,,,,,0,,,48,0
121908,note_on,0,0,3,,,,,,,,0,,,60,0
121908,note_on,48,0,3,,,,,,,,0,,,42,0
121920,note_on,24,0,4,,,,,,,,0,,,35,80
121920,note_on,0,0,3,,,,,,,,0,,,41,80
121920,note_on,0,0,3,,,,,,,,0,,,50,80
121920,note_on,0,0,3,,,,,,,,0,,,47,80
121920,note_on,0,0,3,,,,,,,,0,,,44,80
121920,note_on,12,0,3,,,,,,,,0,,,59,80
121952,set_tempo,61,1,0,,,,,,649491,,,,,,
121968,note_on,0,0,3,,,,,,,,0,,,44,0
121968,note_on,0,0,3,,,,,,,,0,,,50,0
121968,note_on,48,0,3,,,,,,,,0,,,47,0
121968,note_on,0,0,3,,,,,,,,0,,,41,0
121968,note_on,0,0,3,,,,,,,,0,,,59,0
121980,note_on,0,0,3,,,,,,,,0,,,38,80
121980,note_on,0,0,3,,,,,,,,0,,,44,80
121980,note_on,0,0,3,,,,,,,,0,,,56,80
121980,note_on,12,0,3,,,,,,,,0,,,41,80
122013,set_tempo,61,1,0,,,,,,654736,,,,,,
122016,note_on,96,0,4,,,,,,,,0,,,35,0
122028,note_on,0,0,3,,,,,,,,0,,,38,0
122028,note_on,48,0,3,,,,,,,,0,,,44,0
122028,note_on,0,0,3,,,,,,,,0,,,56,0
122028,note_on,0,0,3,,,,,,,,0,,,41,0
122040,note_on,0,0,3,,,,,,,,0,,,55,80
122040,note_on,0,0,3,,,,,,,,0,,,43,80
122040,note_on,0,0,3,,,,,,,,0,,,40,80
122040,note_on,24,0,4,,,,,,,,0,,,34,80
122040,note_on,12,0,3,,,,,,,,0,,,46,80
122040,note_on,0,0,3,,,,,,,,0,,,49,80
122059,control_change,19,0,4,,,,,,,,0,64,0,,
122079,set_tempo,66,1,0,,,,,,660066,,,,,,
122088,note_on,48,0,3,,,,,,,,0,,,43,0
122088,note_on,0,0,3,,,,,,,,0,,,55,0
122088,note_on,0,0,3,,,,,,,,0,,,49,0
122088,note_on,0,0,3,,,,,,,,0,,,40,0
122088,note_on,0,0,3,,,,,,,,0,,,46,0
122100,note_on,12,0,3,,,,,,,,0,,,39,80
122100,note_on,0,0,3,,,,,,,,0,,,52,80
122100,note_on,0,0,3,,,,,,,,0,,,43,80
122100,note_on,0,0,3,,,,,,,,0,,,37,80
122136,note_on,77,0,4,,,,,,,,0,,,34,0
122140,set_tempo,61,1,0,,,,,,665484,,,,,,
122148,note_on,0,0,3,,,,,,,,0,,,39,0
122148,note_on,48,0,3,,,,,,,,0,,,37,0
122148,note_on,0,0,3,,,,,,,,0,,,52,0
122148,note_on,0,0,3,,,,,,,,0,,,43,0
122160,note_on,0,0,3,,,,,,,,0,,,39,80
122160,note_on,0,0,3,,,,,,,,0,,,42,80
122160,note_on,0,0,3,,,,,,,,0,,,48,80
122160,note_on,0,0,3,,,,,,,,0,,,51,80
122160,note_on,24,0,4,,,,,,,,0,,,33,80
122160,note_on,12,0,3,,,,,,,,0,,,36,80
122201,set_tempo,61,1,0,,,,,,670991,,,,,,
122208,note_on,0,0,3,,,,,,,,0,,,36,0
122208,note_on,0,0,3,,,,,,,,0,,,39,0
122208,note_on,48,0,4,,,,,,,,0,,,33,0
122208,note_on,0,0,3,,,,,,,,0,,,48,0
122208,note_on,0,0,3,,,,,,,,0,,,51,0
122208,note_on,48,0,3,,,,,,,,0,,,42,0
122220,note_on,12,0,3,,,,,,,,0,,,48,80
122220,note_on,0,0,3,,,,,,,,0,,,36,80
122220,note_on,0,0,3,,,,,,,,0,,,42,80
122220,note_on,12,0,4,,,,,,,,0,,,32,80
122262,set_tempo,61,1,0,,,,,,676590,,,,,,
122268,note_on,0,0,3,,,,,,,,0,,,42,0
122268,note_on,0,0,3,,,,,,,,0,,,48,0
122268,note_on,48,0,4,,,,,,,,0,,,32,0
122268,note_on,48,0,3,,,,,,,,0,,,36,0
122275,set_tempo,13,1,0,,,,,,401714,,,,,,
122280,note_on,0,0,4,,,,,,,,0,,,31,88
122280,note_on,0,0,3,,,,,,,,0,,,43,88
122280,time_signature,5,1,0,6,8,12,8,,,,,,,,
122280,note_on,0,0,3,,,,,,,,0,,,47,88
122280,note_on,12,0,3,,,,,,,,0,,,55,88
122280,control_change,0,0,4,,,,,,,,0,64,127,,
122280,note_on,12,0,4,,,,,,,,0,,,38,88
122376,note_on,0,0,3,,,,,,,,0,,,47,0
122376,note_on,96,0,3,,,,,,,,0,,,43,0
122376,note_on,96,0,4,,,,,,,,0,,,31,0
122376,note_on,0,0,4,,,,,,,,0,,,38,0
122376,note_on,0,0,3,,,,,,,,0,,,55,0
122400,note_on,24,0,4,,,,,,,,0,,,38,88
122400,note_on,0,0,4,,,,,,,,0,,,50,88
122448,note_on,0,0,4,,,,,,,,0,,,38,0
122448,note_on,48,0,4,,,,,,,,0,,,50,0
122460,note_on,0,0,2,,,,,,,,0,,,67,88
122460,note_on,1152,0,2,,,,,,,,0,,,55,88
122460,note_on,0,0,2,,,,,,,,0,,,62,88
122508,note_on,0,0,2,,,,,,,,0,,,62,0
122508,note_on,48,0,2,,,,,,,,0,,,67,0
122508,note_on,0,0,2,,,,,,,,0,,,55,0
122520,note_on,72,0,4,,,,,,,,0,,,48,88
122520,note_on,0,0,4,,,,,,,,0,,,36,88
122568,note_on,48,0,4,,,,,,,,0,,,36,0
122568,note_on,0,0,4,,,,,,,,0,,,48,0
122580,note_on,0,0,2,,,,,,,,0,,,60,88
122580,note_on,0,0,2,,,,,,,,0,,,67,88
122580,note_on,72,0,2,,,,,,,,0,,,55,88
122628,note_on,48,0,2,,,,,,,,0,,,60,0
122628,note_on,0,0,2,,,,,,,,0,,,67,0
122628,note_on,0,0,2,,,,,,,,0,,,55,0
122640,note_on,0,0,4,,,,,,,,0,,,47,88
122640,note_on,72,0,4,,,,,,,,0,,,35,88
122688,note_on,0,0,4,,,,,,,,0,,,35,0
122688,note_on,48,0,4,,,,,,,,0,,,47,0
122700,note_on,0,0,2,,,,,,,,0,,,59,88
122700,note_on,72,0,2,,,,,,,,0,,,55,88
122700,note_on,0,0,2,,,,,,,,0,,,67,88
122748,note_on,0,0,2,,,,,,,,0,,,59,0
122748,note_on,0,0,2,,,,,,,,0,,,55,0
122748,note_on,48,0,2,,,,,,,,0,,,67,0
122760,note_on,72,0,4,,,,,,,,0,,,45,88
122760,note_on,0,0,4,,,,,,,,0,,,33,88
122808,note_on,48,0,4,,,,,,,,0,,,33,0
122808,note_on,0,0,4,,,,,,,,0,,,45,0
122820,note_on,0,0,2,,,,,,,,0,,,57,88
122820,note_on,0,0,2,,,,,,,,0,,,55,88
122820,note_on,72,0,2,,,,,,,,0,,,67,88
122848,control_change,40,0,4,,,,,,,,0,64,0,,
122868,note_on,48,0,2,,,,,,,,0,,,55,0
122868,note_on,0,0,2,,,,,,,,0,,,67,0
122868,note_on,0,0,2,,,,,,,,0,,,57,0
122880,note_on,32,0,4,,,,,,,,0,,,43,88
122880,note_on,0,0,4,,,,,,,,0,,,31,88
122928,note_on,0,0,4,,,,,,,,0,,,43,0
122928,note_on,48,0,4,,,,,,,,0,,,31,0
122940,note_on,0,0,2,,,,,,,,0,,,67,88
122940,note_on,72,0,2,,,,,,,,0,,,55,88
122988,note_on,0,0,2,,,,,,,,0,,,55,0
122988,note_on,48,0,2,,,,,,,,0,,,67,0
123000,control_change,0,0,4,,,,,,,,0,64,127,,
123000,note_on,0,0,1,,,,,,,,0,,,99,100
123000,note_on,0,0,4,,,,,,,,0,,,63,80
123000,note_on,0,0,4,,,,,,,,0,,,54,80
123000,note_on,1272,0,1,,,,,,,,0,,,87,90
123000,note_on,0,0,4,,,,,,,,0,,,57,80
123000,note_on,72,0,4,,,,,,,,0,,,60,80
123048,note_on,0,0,1,,,,,,,,0,,,87,0
123048,note_on,48,0,1,,,,,,,,0,,,99,0
123051,note_on,3,0,1,,,,,,,,0,,,96,90
123096,note_on,0,0,4,,,,,,,,0,,,60,0
123096,note_on,0,0,4,,,,,,,,0,,,57,0
123096,note_on,0,0,4,,,,,,,,0,,,54,0
123096,note_on,96,0,4,,,,,,,,0,,,63,0
123099,note_on,48,0,1,,,,,,,,0,,,96,0
123102,note_on,3,0,1,,,,,,,,0,,,93,89
123150,note_on,48,0,1,,,,,,,,0,,,93,0
123153,note_on,3,0,1,,,,,,,,0,,,90,88
123180,note_on,84,0,4,,,,,,,,0,,,60,80
123180,note_on,0,0,4,,,,,,,,0,,,57,80
123180,note_on,0,0,4,,,,,,,,0,,,51,80
123180,note_on,0,0,4,,,,,,,,0,,,54,80
123201,note_on,48,0,1,,,,,,,,0,,,90,0
123204,note_on,3,0,1,,,,,,,,0,,,87,87
123228,note_on,0,0,4,,,,,,,,0,,,60,0
123228,note_on,0,0,4,,,,,,,,0,,,54,0
123228,note_on,48,0,4,,,,,,,,0,,,57,0
123228,note_on,0,0,4,,,,,,,,0,,,51,0
123240,note_on,12,0,4,,,,,,,,0,,,57,80
123240,note_on,0,0,4,,,,,,,,0,,,54,80
123240,note_on,0,0,4,,,,,,,,0,,,60,80
123240,note_on,0,0,4,,,,,,,,0,,,51,80
123252,note_on,48,0,1,,,,,,,,0,,,87,0
123255,note_on,3,0,1,,,,,,,,0,,,84,87
123303,note_on,48,0,1,,,,,,,,0,,,84,0
123306,note_on,3,0,1,,,,,,,,0,,,81,86
123336,note_on,0,0,4,,,,,,,,0,,,60,0
123336,note_on,0,0,4,,,,,,,,0,,,57,0
123336,note_on,0,0,4,,,,,,,,0,,,51,0
123336,note_on,96,0,4,,,,,,,,0,,,54,0
123354,note_on,48,0,1,,,,,,,,0,,,81,0
123357,note_on,3,0,1,,,,,,,,0,,,78,85
123360,note_on,24,0,4,,,,,,,,0,,,57,80
123360,note_on,0,0,4,,,,,,,,0,,,51,80
123360,note_on,0,0,4,,,,,,,,0,,,48,80
123360,note_on,0,0,4,,,,,,,,0,,,43,80
123405,note_on,48,0,1,,,,,,,,0,,,78,0
123408,note_on,3,0,1,,,,,,,,0,,,75,84
123456,note_on,96,0,4,,,,,,,,0,,,43,0
123456,note_on,48,0,1,,,,,,,,0,,,75,0
123456,note_on,0,0,4,,,,,,,,0,,,51,0
123456,note_on,0,0,4,,,,,,,,0,,,48,0
123456,note_on,0,0,4,,,,,,,,0,,,57,0
123459,note_on,3,0,1,,,,,,,,0,,,72,84
123507,note_on,48,0,1,,,,,,,,0,,,72,0
123510,note_on,3,0,1,,,,,,,,0,,,69,83
123540,note_on,84,0,4,,,,,,,,0,,,51,80
123540,note_on,0,0,4,,,,,,,,0,,,54,80
123540,note_on,0,0,4,,,,,,,,0,,,48,80
123540,note_on,0,0,4,,,,,,,,0,,,43,80
123558,note_on,48,0,1,,,,,,,,0,,,69,0
123561,note_on,3,0,1,,,,,,,,0,,,66,82
123584,control_change,44,0,4,,,,,,,,0,64,0,,
123588,note_on,0,0,4,,,,,,,,0,,,51,0
123588,note_on,0,0,4,,,,,,,,0,,,54,0
123588,note_on,0,0,4,,,,,,,,0,,,48,0
123588,note_on,4,0,4,,,,,,,,0,,,43,0
123600,note_on,0,0,4,,,,,,,,0,,,51,80
123600,note_on,0,0,4,,,,,,,,0,,,54,80
123600,note_on,12,0,4,,,,,,,,0,,,43,80
123600,note_on,0,0,4,,,,,,,,0,,,48,80
123609,note_on,48,0,1,,,,,,,,0,,,66,0
123612,note_on,3,0,1,,,,,,,,0,,,63,81
123660,note_on,48,0,1,,,,,,,,0,,,63,0
123663,note_on,3,0,1,,,,,,,,0,,,60,80
123696,note_on,96,0,4,,,,,,,,0,,,54,0
123696,note_on,0,0,4,,,,,,,,0,,,43,0
123696,note_on,0,0,4,,,,,,,,0,,,48,0
123696,note_on,0,0,4,,,,,,,,0,,,51,0
123720,note_on,0,0,4,,,,,,,,0,,,50,88
123720,note_on,0,0,4,,,,,,,,0,,,47,88
123720,control_change,0,0,4,,,,,,,,0,64,127,,
123720,note_on,24,0,4,,,,,,,,0,,,55,88
123720,note_on,0,0,4,,,,,,,,0,,,43,88
123720,note_on,57,0,1,,,,,,,,0,,,60,0
123720,note_on,0,0,1,,,,,,,,0,,,59,80
123720,note_on,0,0,1,,,,,,,,0,,,67,80
123816,note_on,96,0,4,,,,,,,,0,,,43,0
123816,note_on,96,0,1,,,,,,,,0,,,67,0
123816,note_on,0,0,4,,,,,,,,0,,,47,0
123816,note_on,0,0,4,,,,,,,,0,,,50,0
123816,note_on,0,0,4,,,,,,,,0,,,55,0
123816,note_on,0,0,1,,,,,,,,0,,,59,0
123840,note_on,24,0,4,,,,,,,,0,,,50,88
123840,note_on,0,0,4,,,,,,,,0,,,38,88
123888,note_on,48,0,4,,,,,,,,0,,,38,0
123888,note_on,0,0,4,,,,,,,,0,,,50,0
123900,note_on,912,0,2,,,,,,,,0,,,67,88
123900,note_on,0,0,2,,,,,,,,0,,,62,88
123900,note_on,0,0,2,,,,,,,,0,,,55,88
123948,note_on,48,0,2,,,,,,,,0,,,62,0
123948,note_on,0,0,2,,,,,,,,0,,,67,0
123948,note_on,0,0,2,,,,,,,,0,,,55,0
123960,note_on,72,0,4,,,,,,,,0,,,48,88
123960,note_on,0,0,4,,,,,,,,0,,,36,88
124008,note_on,48,0,4,,,,,,,,0,,,36,0
124008,note_on,0,0,4,,,,,,,,0,,,48,0
124020,note_on,72,0,2,,,,,,,,0,,,67,88
124020,note_on,0,0,2,,,,,,,,0,,,60,88
124020,note_on,0,0,2,,,,,,,,0,,,55,88
124068,note_on,0,0,2,,,,,,,,0,,,55,0
124068,note_on,0,0,2,,,,,,,,0,,,67,0
124068,note_on,48,0,2,,,,,,,,0,,,60,0
124080,note_on,72,0,4,,,,,,,,0,,,47,88
124080,note_on,0,0,4,,,,,,,,0,,,35,88
124128,note_on,48,0,4,,,,,,,,0,,,35,0
124128,note_on,0,0,4,,,,,,,,0,,,47,0
124140,note_on,0,0,2,,,,,,,,0,,,67,88
124140,note_on,0,0,2,,,,,,,,0,,,55,88
124140,note_on,72,0,2,,,,,,,,0,,,59,88
124188,note_on,48,0,2,,,,,,,,0,,,67,0
124188,note_on,0,0,2,,,,,,,,0,,,59,0
124188,note_on,0,0,2,,,,,,,,0,,,55,0
124200,note_on,0,0,4,,,,,,,,0,,,45,88
124200,note_on,72,0,4,,,,,,,,0,,,33,88
124248,note_on,48,0,4,,,,,,,,0,,,45,0
124248,note_on,0,0,4,,,,,,,,0,,,33,0
124260,note_on,0,0,2,,,,,,,,0,,,67,88
124260,note_on,0,0,2,,,,,,,,0,,,57,88
124260,note_on,72,0,2,,,,,,,,0,,,55,88
124280,control_change,32,0,4,,,,,,,,0,64,0,,
124308,note_on,0,0,2,,,,,,,,0,,,55,0
124308,note_on,48,0,2,,,,,,,,0,,,57,0
124308,note_on,0,0,2,,,,,,,,0,,,67,0
124320,note_on,0,0,4,,,,,,,,0,,,43,88
124320,note_on,40,0,4,,,,,,,,0,,,31,88
124368,note_on,48,0,4,,,,,,,,0,,,43,0
124368,note_on,0,0,4,,,,,,,,0,,,31,0
124380,note_on,0,0,2,,,,,,,,0,,,67,88
124380,note_on,72,0,2,,,,,,,,0,,,55,88
124428,note_on,0,0,2,,,,,,,,0,,,55,0
124428,note_on,48,0,2,,,,,,,,0,,,67,0
124440,note_on,0,0,4,,,,,,,,0,,,60,80
124440,note_on,624,0,1,,,,,,,,0,,,99,90
124440,control_change,72,0,4,,,,,,,,0,64,127,,
124440,note_on,0,0,4,,,,,,,,0,,,54,80
124440,note_on,0,0,4,,,,,,,,0,,,57,80
124440,note_on,0,0,4,,,,,,,,0,,,63,80
124488,note_on,48,0,1,,,,,,,,0,,,99,0
124491,note_on,3,0,1,,,,,,,,0,,,96,90
124536,note_on,0,0,4,,,,,,,,0,,,60,0
124536,note_on,0,0,4,,,,,,,,0,,,54,0
124536,note_on,96,0,4,,,,,,,,0,,,57,0
124536,note_on,0,0,4,,,,,,,,0,,,63,0
124539,note_on,48,0,1,,,,,,,,0,,,96,0
124542,note_on,3,0,1,,,,,,,,0,,,93,89
124590,note_on,48,0,1,,,,,,,,0,,,93,0
124593,note_on,3,0,1,,,,,,,,0,,,90,88
124620,note_on,0,0,4,,,,,,,,0,,,60,80
124620,note_on,0,0,4,,,,,,,,0,,,51,80
124620,note_on,84,0,4,,,,,,,,0,,,54,80
124620,note_on,0,0,4,,,,,,,,0,,,57,80
124641,note_on,48,0,1,,,,,,,,0,,,90,0
124644,note_on,3,0,1,,,,,,,,0,,,87,88
124668,note_on,0,0,4,,,,,,,,0,,,57,0
124668,note_on,0,0,4,,,,,,,,0,,,54,0
124668,note_on,0,0,4,,,,,,,,0,,,60,0
124668,note_on,48,0,4,,,,,,,,0,,,51,0
124680,note_on,0,0,4,,,,,,,,0,,,51,80
124680,note_on,0,0,4,,,,,,,,0,,,54,80
124680,note_on,0,0,4,,,,,,,,0,,,57,80
124680,note_on,12,0,4,,,,,,,,0,,,60,80
124692,note_on,48,0,1,,,,,,,,0,,,87,0
124695,note_on,3,0,1,,,,,,,,0,,,84,87
124743,note_on,48,0,1,,,,,,,,0,,,84,0
124746,note_on,3,0,1,,,,,,,,0,,,81,86
124776,note_on,96,0,4,,,,,,,,0,,,54,0
124776,note_on,0,0,4,,,,,,,,0,,,60,0
124776,note_on,0,0,4,,,,,,,,0,,,51,0
124776,note_on,0,0,4,,,,,,,,0,,,57,0
124794,note_on,48,0,1,,,,,,,,0,,,81,0
124797,note_on,3,0,1,,,,,,,,0,,,78,86
124800,note_on,0,0,4,,,,,,,,0,,,51,80
124800,note_on,0,0,4,,,,,,,,0,,,48,80
124800,note_on,0,0,4,,,,,,,,0,,,43,80
124800,note_on,24,0,4,,,,,,,,0,,,57,80
124845,note_on,48,0,1,,,,,,,,0,,,78,0
124848,note_on,3,0,1,,,,,,,,0,,,75,85
124896,note_on,96,0,4,,,,,,,,0,,,48,0
124896,note_on,0,0,4,,,,,,,,0,,,51,0
124896,note_on,0,0,4,,,,,,,,0,,,57,0
124896,note_on,0,0,4,,,,,,,,0,,,43,0
124896,note_on,48,0,1,,,,,,,,0,,,75,0
124899,note_on,3,0,1,,,,,,,,0,,,72,84
124947,note_on,48,0,1,,,,,,,,0,,,72,0
124950,note_on,3,0,1,,,,,,,,0,,,69,84
124980,note_on,0,0,4,,,,,,,,0,,,54,80
124980,note_on,0,0,4,,,,,,,,0,,,48,80
124980,note_on,84,0,4,,,,,,,,0,,,43,80
124980,note_on,0,0,4,,,,,,,,0,,,51,80
124998,note_on,48,0,1,,,,,,,,0,,,69,0
125001,note_on,3,0,1,,,,,,,,0,,,66,83
125024,control_change,44,0,4,,,,,,,,0,64,0,,
125028,note_on,4,0,4,,,,,,,,0,,,54,0
125028,note_on,0,0,4,,,,,,,,0,,,51,0
125028,note_on,0,0,4,,,,,,,,0,,,48,0
125028,note_on,0,0,4,,,,,,,,0,,,43,0
125040,note_on,0,0,4,,,,,,,,0,,,54,80
125040,note_on,0,0,4,,,,,,,,0,,,51,80
125040,note_on,0,0,4,,,,,,,,0,,,43,80
125040,note_on,12,0,4,,,,,,,,0,,,48,80
125049,note_on,48,0,1,,,,,,,,0,,,66,0
125052,note_on,3,0,1,,,,,,,,0,,,63,82
125100,note_on,48,0,1,,,,,,,,0,,,63,0
125103,note_on,3,0,1,,,,,,,,0,,,60,81
125136,note_on,0,0,4,,,,,,,,0,,,48,0
125136,note_on,0,0,4,,,,,,,,0,,,51,0
125136,note_on,0,0,4,,,,,,,,0,,,54,0
125136,note_on,96,0,4,,,,,,,,0,,,43,0
125160,control_change,0,0,4,,,,,,,,0,64,127,,
125160,note_on,24,0,4,,,,,,,,0,,,43,85
125160,note_on,0,0,1,,,,,,,,0,,,67,85
125160,note_on,0,0,1,,,,,,,,0,,,59,85
125160,note_on,0,0,4,,,,,,,,0,,,55,85
125160,note_on,0,0,4,,,,,,,,0,,,50,85
125160,note_on,0,0,4,,,,,,,,0,,,47,85
125160,note_on,57,0,1,,,,,,,,0,,,60,0
125256,note_on,0,0,1,,,,,,,,0,,,67,0
125256,note_on,96,0,4,,,,,,,,0,,,47,0
125256,note_on,96,0,1,,,,,,,,0,,,59,0
125256,note_on,0,0,4,,,,,,,,0,,,55,0
125256,note_on,0,0,4,,,,,,,,0,,,50,0
125256,note_on,0,0,4,,,,,,,,0,,,43,0
125280,note_on,0,0,1,,,,,,,,0,,,62,85
125280,note_on,24,0,1,,,,,,,,0,,,74,85
125280,note_on,24,0,4,,,,,,,,0,,,50,85
125280,note_on,0,0,4,,,,,,,,0,,,38,85
125376,note_on,96,0,1,,,,,,,,0,,,62,0
125376,note_on,0,0,4,,,,,,,,0,,,50,0
125376,note_on,96,0,4,,,,,,,,0,,,38,0
125376,note_on,0,0,1,,,,,,,,0,,,74,0
125400,note_on,0,0,4,,,,,,,,0,,,48,86
125400,note_on,24,0,1,,,,,,,,0,,,60,86
125400,note_on,0,0,1,,,,,,,,0,,,72,86
125400,note_on,24,0,4,,,,,,,,0,,,36,86
125496,note_on,0,0,4,,,,,,,,0,,,36,0
125496,note_on,0,0,1,,,,,,,,0,,,60,0
125496,note_on,96,0,1,,,,,,,,0,,,72,0
125496,note_on,96,0,4,,,,,,,,0,,,48,0
125520,note_on,24,0,4,,,,,,,,0,,,35,86
125520,note_on,0,0,1,,,,,,,,0,,,71,86
125520,note_on,24,0,1,,,,,,,,0,,,59,86
125520,note_on,0,0,4,,,,,,,,0,,,47,86
125616,note_on,0,0,1,,,,,,,,0,,,59,0
125616,note_on,0,0,4,,,,,,,,0,,,35,0
125616,note_on,96,0,1,,,,,,,,0,,,71,0
125616,note_on,96,0,4,,,,,,,,0,,,47,0
125640,note_on,0,0,4,,,,,,,,0,,,45,87
125640,note_on,0,0,4,,,,,,,,0,,,33,87
125640,note_on,24,0,1,,,,,,,,0,,,57,87
125640,control_change,24,0,4,,,,,,,,0,64,0,,
125640,note_on,0,0,1,,,,,,,,0,,,69,87
125736,note_on,96,0,4,,,,,,,,0,,,45,0
125736,note_on,0,0,4,,,,,,,,0,,,33,0
125736,note_on,0,0,1,,,,,,,,0,,,57,0
125736,note_on,96,0,1,,,,,,,,0,,,69,0
125760,note_on,24,0,4,,,,,,,,0,,,43,87
125760,note_on,0,0,1,,,,,,,,0,,,67,87
125760,note_on,24,0,1,,,,,,,,0,,,55,87
125760,note_on,0,0,4,,,,,,,,0,,,31,87
125856,note_on,0,0,1,,,,,,,,0,,,55,0
125856,note_on,0,0,4,,,,,,,,0,,,43,0
125856,note_on,96,0,4,,,,,,,,0,,,31,0
125856,note_on,96,0,1,,,,,,,,0,,,67,0
125880,note_on,0,0,1,,,,,,,,0,,,80,88
125880,note_on,24,0,4,,,,,,,,0,,,44,88
125880,note_on,24,0,1,,,,,,,,0,,,68,88
125880,note_on,0,0,4,,,,,,,,0,,,56,88
125976,note_on,96,0,1,,,,,,,,0,,,80,0
125976,note_on,0,0,1,,,,,,,,0,,,68,0
125976,note_on,96,0,4,,,,,,,,0,,,56,0
125976,note_on,0,0,4,,,,,,,,0,,,44,0
126000,note_on,24,0,1,,,,,,,,0,,,79,89
126000,note_on,0,0,4,,,,,,,,0,,,43,89
126000,note_on,0,0,1,,,,,,,,0,,,67,89
126000,note_on,24,0,4,,,,,,,,0,,,55,89
126096,note_on,96,0,4,,,,,,,,0,,,43,0
126096,note_on,96,0,1,,,,,,,,0,,,67,0
126096,note_on,0,0,1,,,,,,,,0,,,79,0
126096,note_on,0,0,4,,,,,,,,0,,,55,0
126120,note_on,24,0,1,,,,,,,,0,,,65,89
126120,note_on,0,0,4,,,,,,,,0,,,41,89
126120,note_on,0,0,1,,,,,,,,0,,,77,89
126120,note_on,24,0,4,,,,,,,,0,,,53,89
126216,note_on,96,0,4,,,,,,,,0,,,41,0
126216,note_on,96,0,1,,,,,,,,0,,,77,0
126216,note_on,0,0,1,,,,,,,,0,,,65,0
126216,note_on,0,0,4,,,,,,,,0,,,53,0
126240,note_on,24,0,4,,,,,,,,0,,,51,90
126240,note_on,0,0,1,,,,,,,,0,,,75,90
126240,note_on,24,0,1,,,,,,,,0,,,63,90
126240,note_on,0,0,4,,,,,,,,0,,,39,90
126336,note_on,96,0,1,,,,,,,,0,,,75,0
126336,note_on,96,0,4,,,,,,,,0,,,39,0
126336,note_on,0,0,1,,,,,,,,0,,,63,0
126336,note_on,0,0,4,,,,,,,,0,,,51,0
126360,note_on,24,0,4,,,,,,,,0,,,49,90
126360,note_on,24,0,1,,,,,,,,0,,,61,90
126360,note_on,0,0,1,,,,,,,,0,,,73,90
126360,note_on,0,0,4,,,,,,,,0,,,37,90
126456,note_on,0,0,1,,,,,,,,0,,,61,0
126456,note_on,96,0,4,,,,,,,,0,,,37,0
126456,note_on,96,0,1,,,,,,,,0,,,73,0
126456,note_on,0,0,4,,,,,,,,0,,,49,0
126480,note_on,0,0,1,,,,,,,,0,,,80,91
126480,note_on,0,0,1,,,,,,,,0,,,89,91
126480,note_on,24,0,4,,,,,,,,0,,,61,91
126480,note_on,0,0,4,,,,,,,,0,,,49,91
126480,note_on,0,0,1,,,,,,,,0,,,85,91
126480,note_on,0,0,4,,,,,,,,0,,,56,91
126480,note_on,0,0,4,,,,,,,,0,,,53,91
126480,note_on,24,0,1,,,,,,,,0,,,77,91
126576,note_on,0,0,1,,,,,,,,0,,,80,0
126576,note_on,0,0,4,,,,,,,,0,,,56,0
126576,note_on,0,0,4,,,,,,,,0,,,61,0
126576,note_on,96,0,1,,,,,,,,0,,,89,0
126576,note_on,0,0,1,,,,,,,,0,,,77,0
126576,note_on,0,0,1,,,,,,,,0,,,85,0
126576,note_on,0,0,4,,,,,,,,0,,,53,0
126576,note_on,96,0,4,,,,,,,,0,,,49,0
126600,note_on,0,0,1,,,,,,,,0,,,83,92
126600,note_on,0,0,1,,,,,,,,0,,,86,92
126600,note_on,24,0,4,,,,,,,,0,,,43,92
126600,note_on,0,0,1,,,,,,,,0,,,95,80
126600,note_on,0,0,4,,,,,,,,0,,,50,92
126600,note_on,0,0,4,,,,,,,,0,,,47,92
126600,note_on,0,0,4,,,,,,,,0,,,55,92
126600,note_on,24,0,1,,,,,,,,0,,,91,92
126609,control_change,9,0,4,,,,,,,,0,64,127,,
126696,note_on,96,0,1,,,,,,,,0,,,95,0
126696,note_on,0,0,1,,,,,,,,0,,,86,0
126696,note_on,0,0,1,,,,,,,,0,,,83,0
126696,note_on,87,0,4,,,,,,,,0,,,55,0
126696,note_on,0,0,4,,,,,,,,0,,,50,0
126696,note_on,0,0,4,,,,,,,,0,,,47,0
126696,note_on,0,0,4,,,,,,,,0,,,43,0
126696,note_on,0,0,1,,,,,,,,0,,,91,0
126720,note_on,24,0,1,,,,,,,,0,,,74,92
126720,note_on,0,0,1,,,,,,,,0,,,62,92
126720,note_on,0,0,4,,,,,,,,0,,,50,92
126720,note_on,24,0,4,,,,,,,,0,,,38,92
126816,note_on,0,0,1,,,,,,,,0,,,74,0
126816,note_on,0,0,4,,,,,,,,0,,,38,0
126816,note_on,96,0,1,,,,,,,,0,,,62,0
126816,note_on,96,0,4,,,,,,,,0,,,50,0
126840,note_on,0,0,4,,,,,,,,0,,,48,93
126840,note_on,0,0,1,,,,,,,,0,,,72,93
126840,note_on,24,0,4,,,,,,,,0,,,36,93
126840,note_on,24,0,1,,,,,,,,0,,,60,93
126936,note_on,0,0,1,,,,,,,,0,,,60,0
126936,note_on,96,0,4,,,,,,,,0,,,48,0
126936,note_on,0,0,4,,,,,,,,0,,,36,0
126936,note_on,96,0,1,,,,,,,,0,,,72,0
126960,note_on,0,0,1,,,,,,,,0,,,71,93
126960,note_on,24,0,1,,,,,,,,0,,,59,93
126960,note_on,0,0,4,,,,,,,,0,,,35,93
126960,note_on,24,0,4,,,,,,,,0,,,47,93
127056,note_on,96,0,1,,,,,,,,0,,,71,0
127056,note_on,0,0,4,,,,,,,,0,,,47,0
127056,note_on,0,0,1,,,,,,,,0,,,59,0
127056,note_on,96,0,4,,,,,,,,0,,,35,0
127080,note_on,0,0,4,,,,,,,,0,,,45,94
127080,note_on,24,0,1,,,,,,,,0,,,69,94
127080,note_on,24,0,4,,,,,,,,0,,,33,94
127080,note_on,0,0,1,,,,,,,,0,,,57,94
127089,control_change,9,0,4,,,,,,,,0,64,0,,
127176,note_on,0,0,1,,,,,,,,0,,,69,0
127176,note_on,0,0,4,,,,,,,,0,,,33,0
127176,note_on,87,0,4,,,,,,,,0,,,45,0
127176,note_on,96,0,1,,,,,,,,0,,,57,0
127200,note_on,24,0,1,,,,,,,,0,,,55,95
127200,note_on,0,0,1,,,,,,,,0,,,67,95
127200,note_on,0,0,4,,,,,,,,0,,,31,95
127200,note_on,24,0,4,,,,,,,,0,,,43,95
127296,note_on,96,0,4,,,,,,,,0,,,31,0
127296,note_on,0,0,4,,,,,,,,0,,,43,0
127296,note_on,96,0,1,,,,,,,,0,,,67,0
127296,note_on,0,0,1,,,,,,,,0,,,55,0
127317,set_tempo,5037,1,0,,,,,,399734,,,,,,
127320,note_on,24,0,1,,,,,,,,0,,,80,95
127320,note_on,0,0,4,,,,,,,,0,,,56,95
127320,note_on,0,0,1,,,,,,,,0,,,68,95
127320,note_on,24,0,4,,,,,,,,0,,,44,95
127335,set_tempo,18,1,0,,,,,,401714,,,,,,
127347,set_tempo,12,1,0,,,,,,399734,,,,,,
127416,note_on,0,0,4,,,,,,,,0,,,44,0
127416,note_on,96,0,4,,,,,,,,0,,,56,0
127416,note_on,0,0,1,,,,,,,,0,,,80,0
127416,note_on,96,0,1,,,,,,,,0,,,68,0
127440,note_on,24,0,1,,,,,,,,0,,,67,95
127440,note_on,24,0,4,,,,,,,,0,,,43,95
127440,note_on,0,0,1,,,,,,,,0,,,79,95
127440,note_on,0,0,4,,,,,,,,0,,,55,95
127536,note_on,96,0,4,,,,,,,,0,,,55,0
127536,note_on,0,0,1,,,,,,,,0,,,67,0
127536,note_on,0,0,4,,,,,,,,0,,,43,0
127536,note_on,96,0,1,,,,,,,,0,,,79,0
127539,set_tempo,192,1,0,,,,,,401714,,,,,,
127560,note_on,24,0,4,,,,,,,,0,,,53,95
127560,note_on,0,0,4,,,,,,,,0,,,41,95
127560,note_on,24,0,1,,,,,,,,0,,,65,95
127560,note_on,0,0,1,,,,,,,,0,,,77,95
127656,note_on,0,0,1,,,,,,,,0,,,65,0
127656,note_on,0,0,4,,,,,,,,0,,,53,0
127656,note_on,96,0,1,,,,,,,,0,,,77,0
127656,note_on,96,0,4,,,,,,,,0,,,41,0
127680,note_on,0,0,1,,,,,,,,0,,,63,95
127680,note_on,0,0,4,,,,,,,,0,,,39,95
127680,note_on,24,0,1,,,,,,,,0,,,75,95
127680,note_on,24,0,4,,,,,,,,0,,,51,95
127731,set_tempo,192,1,0,,,,,,403714,,,,,,
127776,note_on,0,0,4,,,,,,,,0,,,51,0
127776,note_on,0,0,1,,,,,,,,0,,,75,0
127776,note_on,96,0,4,,,,,,,,0,,,39,0
127776,note_on,96,0,1,,,,,,,,0,,,63,0
127800,note_on,0,0,4,,,,,,,,0,,,37,95
127800,note_on,0,0,1,,,,,,,,0,,,61,95
127800,note_on,24,0,1,,,,,,,,0,,,73,95
127800,note_on,24,0,4,,,,,,,,0,,,49,95
127896,note_on,0,0,4,,,,,,,,0,,,49,0
127896,note_on,0,0,1,,,,,,,,0,,,73,0
127896,note_on,96,0,1,,,,,,,,0,,,61,0
127896,note_on,96,0,4,,,,,,,,0,,,37,0
127919,set_tempo,188,1,0,,,,,,563698,,,,,,
127920,note_on,0,0,1,,,,,,,,0,,,85,95
127920,note_on,0,0,1,,,,,,,,0,,,80,95
127920,note_on,24,0,4,,,,,,,,0,,,49,95
127920,note_on,24,0,1,,,,,,,,0,,,89,95
127920,note_on,0,0,4,,,,,,,,0,,,61,95
127920,note_on,0,0,4,,,,,,,,0,,,53,95
127920,note_on,0,0,4,,,,,,,,0,,,56,95
127920,note_on,0,0,1,,,,,,,,0,,,77,95
127975,set_tempo,56,1,0,,,,,,567644,,,,,,
128010,note_on,3582,0,2,,,,,,,,0,,,83,95
128010,note_on,5634,0,3,,,,,,,,0,,,43,95
128016,note_on,0,0,4,,,,,,,,0,,,56,0
128016,note_on,0,0,4,,,,,,,,0,,,49,0
128016,note_on,96,0,4,,,,,,,,0,,,61,0
128016,note_on,0,0,1,,,,,,,,0,,,77,0
128016,note_on,0,0,1,,,,,,,,0,,,80,0
128016,note_on,96,0,1,,,,,,,,0,,,85,0
128016,note_on,0,0,4,,,,,,,,0,,,53,0
128016,note_on,0,0,1,,,,,,,,0,,,89,0
128025,note_on,15,0,3,,,,,,,,0,,,47,95
128025,note_on,15,0,2,,,,,,,,0,,,86,95
128032,set_tempo,57,1,0,,,,,,571646,,,,,,
128040,time_signature,8,1,0,2,4,24,8,,,,,,,,
128040,note_on,15,0,3,,,,,,,,0,,,55,95
128040,note_on,15,0,2,,,,,,,,0,,,95,95
128040,control_change,24,0,4,,,,,,,,0,64,127,,
128040,note_on,0,0,3,,,,,,,,0,,,50,95
128040,note_on,0,0,2,,,,,,,,0,,,91,95
128041,set_tempo,1,1,0,,,,,,579822,,,,,,
128130,note_on,90,0,4,,,,,,,,0,,,55,95
128130,note_on,114,0,1,,,,,,,,0,,,71,95
128136,note_on,96,0,2,,,,,,,,0,,,91,0
128136,note_on,0,0,2,,,,,,,,0,,,86,0
128136,note_on,96,0,3,,,,,,,,0,,,50,0
128136,note_on,0,0,3,,,,,,,,0,,,43,0
128136,note_on,0,0,3,,,,,,,,0,,,47,0
128136,note_on,0,0,2,,,,,,,,0,,,83,0
128136,note_on,0,0,2,,,,,,,,0,,,95,0
128136,note_on,0,0,3,,,,,,,,0,,,55,0
128145,note_on,15,0,1,,,,,,,,0,,,74,95
128145,note_on,15,0,4,,,,,,,,0,,,59,95
128160,note_on,15,0,4,,,,,,,,0,,,62,95
128160,note_on,15,0,1,,,,,,,,0,,,79,95
128160,note_on,0,0,1,,,,,,,,0,,,83,95
128160,note_on,0,0,4,,,,,,,,0,,,67,95
128250,note_on,114,0,2,,,,,,,,0,,,84,95
128250,note_on,114,0,3,,,,,,,,0,,,41,95
128256,note_on,96,0,4,,,,,,,,0,,,67,0
128256,note_on,96,0,1,,,,,,,,0,,,83,0
128256,note_on,0,0,1,,,,,,,,0,,,71,0
128256,note_on,0,0,4,,,,,,,,0,,,59,0
128256,note_on,0,0,4,,,,,,,,0,,,55,0
128256,note_on,0,0,1,,,,,,,,0,,,79,0
128256,note_on,0,0,1,,,,,,,,0,,,74,0
128256,note_on,0,0,4,,,,,,,,0,,,62,0
128265,note_on,15,0,2,,,,,,,,0,,,89,95
128265,note_on,15,0,3,,,,,,,,0,,,44,95
128268,control_change,12,0,4,,,,,,,,0,64,0,,
128280,note_on,15,0,2,,,,,,,,0,,,96,95
128280,note_on,0,0,2,,,,,,,,0,,,92,95
128280,note_on,15,0,3,,,,,,,,0,,,53,95
128280,note_on,0,0,3,,,,,,,,0,,,48,95
128282,control_change,14,0,4,,,,,,,,0,64,127,,
128296,set_tempo,255,1,0,,,,,,571646,,,,,,
128300,set_tempo,4,1,0,,,,,,575705,,,,,,
128318,set_tempo,18,1,0,,,,,,579822,,,,,,
128335,set_tempo,17,1,0,,,,,,583998,,,,,,
128352,set_tempo,17,1,0,,,,,,588235,,,,,,
128370,note_on,114,0,1,,,,,,,,0,,,68,95
128370,set_tempo,18,1,0,,,,,,592534,,,,,,
128370,note_on,88,0,4,,,,,,,,0,,,53,95
128376,note_on,96,0,2,,,,,,,,0,,,92,0
128376,note_on,0,0,3,,,,,,,,0,,,53,0
128376,note_on,0,0,3,,,,,,,,0,,,44,0
128376,note_on,0,0,3,,,,,,,,0,,,41,0
128376,note_on,0,0,2,,,,,,,,0,,,84,0
128376,note_on,96,0,3,,,,,,,,0,,,48,0
128376,note_on,0,0,2,,,,,,,,0,,,89,0
128376,note_on,0,0,2,,,,,,,,0,,,96,0
128385,note_on,15,0,4,,,,,,,,0,,,56,95
128385,note_on,15,0,1,,,,,,,,0,,,72,95
128387,set_tempo,17,1,0,,,,,,596896,,,,,,
128400,note_on,0,0,1,,,,,,,,0,,,77,95
128400,note_on,15,0,1,,,,,,,,0,,,80,95
128400,note_on,15,0,4,,,,,,,,0,,,65,95
128400,note_on,0,0,4,,,,,,,,0,,,60,95
128405,set_tempo,18,1,0,,,,,,601323,,,,,,
128422,set_tempo,17,1,0,,,,,,605816,,,,,,
128440,set_tempo,18,1,0,,,,,,610376,,,,,,
128457,set_tempo,17,1,0,,,,,,615006,,,,,,
128479,set_tempo,22,1,0,,,,,,619707,,,,,,
128490,note_on,114,0,2,,,,,,,,0,,,85,95
128490,note_on,114,0,3,,,,,,,,0,,,37,95
128496,set_tempo,17,1,0,,,,,,624480,,,,,,
128496,note_on,0,0,4,,,,,,,,0,,,65,0
128496,note_on,0,0,4,,,,,,,,0,,,53,0
128496,note_on,96,0,1,,,,,,,,0,,,77,0
128496,note_on,0,0,1,,,,,,,,0,,,80,0
128496,note_on,0,0,1,,,,,,,,0,,,72,0
128496,note_on,0,0,1,,,,,,,,0,,,68,0
128496,note_on,0,0,4,,,,,,,,0,,,56,0
128496,note_on,96,0,4,,,,,,,,0,,,60,0
128505,note_on,15,0,3,,,,,,,,0,,,41,95
128505,note_on,15,0,2,,,,,,,,0,,,89,95
128514,set_tempo,18,1,0,,,,,,629327,,,,,,
128520,note_on,15,0,2,,,,,,,,0,,,97,95
128520,note_on,15,0,3,,,,,,,,0,,,49,95
128520,control_change,24,0,4,,,,,,,,0,64,0,,
128520,note_on,0,0,2,,,,,,,,0,,,92,95
128520,note_on,0,0,3,,,,,,,,0,,,44,95
128531,set_tempo,17,1,0,,,,,,634249,,,,,,
128543,control_change,23,0,4,,,,,,,,0,64,127,,
128549,set_tempo,18,1,0,,,,,,639250,,,,,,
128566,set_tempo,17,1,0,,,,,,644330,,,,,,
128584,set_tempo,18,1,0,,,,,,649491,,,,,,
128601,set_tempo,17,1,0,,,,,,654736,,,,,,
128610,note_on,67,0,4,,,,,,,,0,,,49,95
128610,note_on,114,0,1,,,,,,,,0,,,73,95
128616,note_on,96,0,3,,,,,,,,0,,,44,0
128616,note_on,0,0,3,,,,,,,,0,,,49,0
128616,note_on,0,0,3,,,,,,,,0,,,37,0
128616,note_on,0,0,2,,,,,,,,0,,,85,0
128616,note_on,0,0,2,,,,,,,,0,,,89,0
128616,note_on,0,0,3,,,,,,,,0,,,41,0
128616,note_on,96,0,2,,,,,,,,0,,,92,0
128616,note_on,0,0,2,,,,,,,,0,,,97,0
128619,set_tempo,18,1,0,,,,,,660066,,,,,,
128625,note_on,15,0,4,,,,,,,,0,,,53,95
128625,note_on,15,0,1,,,,,,,,0,,,77,95
128636,set_tempo,17,1,0,,,,,,665484,,,,,,
128640,note_on,0,0,1,,,,,,,,0,,,85,95
128640,note_on,15,0,1,,,,,,,,0,,,80,95
128640,note_on,0,0,4,,,,,,,,0,,,61,95
128640,note_on,15,0,4,,,,,,,,0,,,56,95
128658,set_tempo,22,1,0,,,,,,670991,,,,,,
128675,set_tempo,17,1,0,,,,,,676590,,,,,,
128693,set_tempo,18,1,0,,,,,,682283,,,,,,
128710,set_tempo,17,1,0,,,,,,688073,,,,,,
128728,set_tempo,18,1,0,,,,,,693963,,,,,,
128730,note_on,114,0,3,,,,,,,,0,,,36,95
128730,note_on,114,0,2,,,,,,,,0,,,86,95
128736,note_on,0,0,4,,,,,,,,0,,,53,0
128736,note_on,0,0,4,,,,,,,,0,,,56,0
128736,note_on,0,0,4,,,,,,,,0,,,49,0
128736,note_on,0,0,1,,,,,,,,0,,,80,0
128736,note_on,96,0,1,,,,,,,,0,,,85,0
128736,note_on,0,0,1,,,,,,,,0,,,77,0
128736,note_on,96,0,4,,,,,,,,0,,,61,0
128736,note_on,0,0,1,,,,,,,,0,,,73,0
128745,set_tempo,17,1,0,,,,,,699953,,,,,,
128745,note_on,15,0,3,,,,,,,,0,,,41,95
128745,note_on,15,0,2,,,,,,,,0,,,89,95
128760,note_on,0,0,2,,,,,,,,0,,,98,95
128760,note_on,0,0,3,,,,,,,,0,,,48,95
128760,note_on,15,0,2,,,,,,,,0,,,92,95
128760,note_on,15,0,3,,,,,,,,0,,,44,95
128763,set_tempo,18,1,0,,,,,,706048,,,,,,
128779,control_change,43,0,4,,,,,,,,0,64,0,,
128780,set_tempo,17,1,0,,,,,,712251,,,,,,
128798,set_tempo,18,1,0,,,,,,718563,,,,,,
128815,set_tempo,17,1,0,,,,,,724988,,,,,,
128837,set_tempo,22,1,0,,,,,,731529,,,,,,
128850,note_on,114,0,1,,,,,,,,0,,,74,95
128850,note_on,71,0,4,,,,,,,,0,,,48,95
128854,set_tempo,17,1,0,,,,,,738189,,,,,,
128856,note_on,96,0,3,,,,,,,,0,,,48,0
128856,note_on,96,0,2,,,,,,,,0,,,98,0
128856,note_on,0,0,2,,,,,,,,0,,,89,0
128856,note_on,0,0,2,,,,,,,,0,,,86,0
128856,note_on,0,0,3,,,,,,,,0,,,36,0
128856,note_on,0,0,3,,,,,,,,0,,,41,0
128856,note_on,0,0,3,,,,,,,,0,,,44,0
128856,note_on,0,0,2,,,,,,,,0,,,92,0
128865,note_on,15,0,4,,,,,,,,0,,,53,95
128865,note_on,15,0,1,,,,,,,,0,,,77,95
128872,set_tempo,18,1,0,,,,,,744971,,,,,,
128880,note_on,0,0,1,,,,,,,,0,,,80,95
128880,note_on,15,0,1,,,,,,,,0,,,86,95
128880,note_on,15,0,4,,,,,,,,0,,,60,95
128880,note_on,0,0,4,,,,,,,,0,,,56,95
128889,set_tempo,17,1,0,,,,,,751880,,,,,,
128907,set_tempo,18,1,0,,,,,,758917,,,,,,
128924,set_tempo,17,1,0,,,,,,766088,,,,,,
128942,set_tempo,18,1,0,,,,,,773395,,,,,,
128959,set_tempo,17,1,0,,,,,,780843,,,,,,
128976,note_on,0,0,4,,,,,,,,0,,,48,0
128976,set_tempo,17,1,0,,,,,,788436,,,,,,
128976,note_on,0,0,4,,,,,,,,0,,,60,0
128976,note_on,0,0,1,,,,,,,,0,,,86,0
128976,note_on,0,0,4,,,,,,,,0,,,53,0
128976,note_on,0,0,1,,,,,,,,0,,,77,0
128976,note_on,96,0,4,,,,,,,,0,,,56,0
128976,note_on,96,0,1,,,,,,,,0,,,80,0
128976,note_on,0,0,1,,,,,,,,0,,,74,0
129000,note_on,0,0,1,,,,,,,,0,,,98,95
129000,control_change,24,0,4,,,,,,,,0,64,127,,
129000,note_on,0,0,1,,,,,,,,0,,,89,95
129000,note_on,0,0,4,,,,,,,,0,,,44,95
129000,note_on,0,0,4,,,,,,,,0,,,32,95
129000,note_on,24,0,1,,,,,,,,0,,,96,95
129000,note_on,0,0,4,,,,,,,,0,,,36,95
129000,note_on,0,0,1,,,,,,,,0,,,101,95
129003,set_tempo,27,1,0,,,,,,804074,,,,,,
129096,note_on,0,0,1,,,,,,,,0,,,98,0
129096,note_on,96,0,1,,,,,,,,0,,,89,0
129096,note_on,96,0,4,,,,,,,,0,,,36,0
129096,note_on,0,0,4,,,,,,,,0,,,44,0
129096,note_on,0,0,1,,,,,,,,0,,,96,0
129096,note_on,0,0,1,,,,,,,,0,,,101,0
129096,note_on,0,0,4,,,,,,,,0,,,32,0
129116,set_tempo,113,1,0,,,,,,828729,,,,,,
129120,note_on,0,0,4,,,,,,,,0,,,32,97
129120,note_on,0,0,4,,,,,,,,0,,,36,97
129120,note_on,0,0,4,,,,,,,,0,,,38,97
129120,note_on,0,0,1,,,,,,,,0,,,89,97
129120,note_on,0,0,1,,,,,,,,0,,,96,97
129120,note_on,0,0,1,,,,,,,,0,,,98,97
129120,note_on,24,0,4,,,,,,,,0,,,44,97
129120,note_on,24,0,1,,,,,,,,0,,,101,97
129138,set_tempo,22,1,0,,,,,,837287,,,,,,
129160,set_tempo,22,1,0,,,,,,846024,,,,,,
129177,set_tempo,17,1,0,,,,,,854944,,,,,,
129199,set_tempo,22,1,0,,,,,,864055,,,,,,
129216,note_on,96,0,1,,,,,,,,0,,,96,0
129216,note_on,96,0,4,,,,,,,,0,,,36,0
129216,note_on,0,0,1,,,,,,,,0,,,98,0
129216,note_on,0,0,1,,,,,,,,0,,,89,0
129216,note_on,0,0,4,,,,,,,,0,,,44,0
129216,note_on,0,0,4,,,,,,,,0,,,38,0
129216,note_on,0,0,4,,,,,,,,0,,,32,0
129216,set_tempo,17,1,0,,,,,,873362,,,,,,
129216,note_on,0,0,1,,,,,,,,0,,,101,0
129238,set_tempo,22,1,0,,,,,,882872,,,,,,
129240,note_on,0,0,1,,,,,,,,0,,,89,100
129240,note_on,0,0,1,,,,,,,,0,,,98,100
129240,note_on,0,0,1,,,,,,,,0,,,101,100
129240,note_on,24,0,1,,,,,,,,0,,,96,100
129240,note_on,0,0,4,,,,,,,,0,,,36,100
129240,note_on,0,0,4,,,,,,,,0,,,38,100
129240,note_on,0,0,4,,,,,,,,0,,,44,100
129240,note_on,24,0,4,,,,,,,,0,,,32,100
129256,set_tempo,18,1,0,,,,,,892591,,,,,,
129278,set_tempo,22,1,0,,,,,,902527,,,,,,
129295,set_tempo,17,1,0,,,,,,912686,,,,,,
129317,set_tempo,22,1,0,,,,,,923077,,,,,,
129336,note_on,0,0,1,,,,,,,,0,,,89,0
129336,note_on,0,0,4,,,,,,,,0,,,38,0
129336,note_on,0,0,4,,,,,,,,0,,,32,0
129336,note_on,0,0,1,,,,,,,,0,,,96,0
129336,note_on,0,0,1,,,,,,,,0,,,98,0
129336,note_on,96,0,1,,,,,,,,0,,,101,0
129336,note_on,96,0,4,,,,,,,,0,,,36,0
129336,note_on,0,0,4,,,,,,,,0,,,44,0
129339,set_tempo,22,1,0,,,,,,933707,,,,,,
129356,set_tempo,17,1,0,,,,,,944584,,,,,,
129360,note_on,0,0,1,,,,,,,,0,,,98,103
129360,note_on,0,0,1,,,,,,,,0,,,101,103
129360,note_on,0,0,4,,,,,,,,0,,,36,103
129360,note_on,0,0,4,,,,,,,,0,,,38,103
129360,note_on,0,0,4,,,,,,,,0,,,44,103
129360,note_on,0,0,1,,,,,,,,0,,,89,103
129360,note_on,24,0,1,,,,,,,,0,,,96,103
129360,note_on,24,0,4,,,,,,,,0,,,32,103
129378,set_tempo,22,1,0,,,,,,955718,,,,,,
129395,set_tempo,17,1,0,,,,,,967118,,,,,,
129417,set_tempo,22,1,0,,,,,,978793,,,,,,
129435,set_tempo,18,1,0,,,,,,990753,,,,,,
129456,note_on,96,0,4,,,,,,,,0,,,44,0
129456,note_on,0,0,1,,,,,,,,0,,,96,0
129456,note_on,96,0,1,,,,,,,,0,,,101,0
129456,note_on,0,0,4,,,,,,,,0,,,38,0
129456,note_on,0,0,1,,,,,,,,0,,,98,0
129456,note_on,0,0,4,,,,,,,,0,,,32,0
129456,note_on,0,0,1,,,,,,,,0,,,89,0
129456,set_tempo,21,1,0,,,,,,1003009,,,,,,
129456,note_on,0,0,4,,,,,,,,0,,,36,0
129474,set_tempo,18,1,0,,,,,,1015572,,,,,,
129480,note_on,0,0,4,,,,,,,,0,,,31,110
129480,note_on,0,0,4,,,,,,,,0,,,35,110
129480,note_on,0,0,4,,,,,,,,0,,,43,110
129480,note_on,0,0,4,,,,,,,,0,,,53,110
129480,note_on,24,0,4,,,,,,,,0,,,50,110
129480,control_change,0,0,4,,,,,,,,0,64,0,,
129480,time_signature,6,1,0,6,8,12,8,,,,,,,,
129480,note_on,24,0,1,,,,,,,,0,,,59,80
129480,note_on,0,0,4,,,,,,,,0,,,38,110
129491,control_change,11,0,4,,,,,,,,0,64,127,,
129574,set_tempo,94,1,0,,,,,,405734,,,,,,
129576,note_on,0,0,4,,,,,,,,0,,,43,0
129576,note_on,0,0,4,,,,,,,,0,,,35,0
129576,note_on,85,0,4,,,,,,,,0,,,31,0
129576,note_on,0,0,4,,,,,,,,0,,,38,0
129576,note_on,0,0,4,,,,,,,,0,,,53,0
129576,note_on,0,0,4,,,,,,,,0,,,50,0
129576,note_on,96,0,1,,,,,,,,0,,,59,0
129600,note_on,0,0,1,,,,,,,,0,,,92,100
129600,note_on,24,0,1,,,,,,,,0,,,80,100
129632,note_on,0,0,1,,,,,,,,0,,,80,0
129632,note_on,32,0,1,,,,,,,,0,,,92,0
129640,note_on,8,0,1,,,,,,,,0,,,79,100
129640,note_on,0,0,1,,,,,,,,0,,,91,100
129672,note_on,32,0,1,,,,,,,,0,,,91,0
129672,note_on,0,0,1,,,,,,,,0,,,79,0
129680,note_on,0,0,1,,,,,,,,0,,,89,99
129680,note_on,8,0,1,,,,,,,,0,,,77,99
129712,note_on,32,0,1,,,,,,,,0,,,89,0
129712,note_on,0,0,1,,,,,,,,0,,,77,0
129720,note_on,0,0,1,,,,,,,,0,,,75,99
129720,note_on,8,0,1,,,,,,,,0,,,87,99
129752,note_on,32,0,1,,,,,,,,0,,,75,0
129752,note_on,0,0,1,,,,,,,,0,,,87,0
129760,note_on,8,0,1,,,,,,,,0,,,74,98
129760,note_on,0,0,1,,,,,,,,0,,,86,98
129792,note_on,0,0,1,,,,,,,,0,,,74,0
129792,note_on,32,0,1,,,,,,,,0,,,86,0
129800,note_on,0,0,1,,,,,,,,0,,,72,97
129800,note_on,8,0,1,,,,,,,,0,,,84,97
129832,note_on,0,0,1,,,,,,,,0,,,84,0
129832,note_on,32,0,1,,,,,,,,0,,,72,0
129840,note_on,0,0,1,,,,,,,,0,,,83,97
129840,note_on,8,0,1,,,,,,,,0,,,71,97
129936,note_on,0,0,1,,,,,,,,0,,,71,0
129936,note_on,96,0,1,,,,,,,,0,,,83,0
129960,note_on,0,0,1,,,,,,,,0,,,80,95
129960,note_on,24,0,1,,,,,,,,0,,,68,95
129992,note_on,32,0,1,,,,,,,,0,,,80,0
129992,note_on,0,0,1,,,,,,,,0,,,68,0
130000,note_on,0,0,1,,,,,,,,0,,,79,94
130000,note_on,8,0,1,,,,,,,,0,,,67,94
130032,note_on,32,0,1,,,,,,,,0,,,79,0
130032,note_on,0,0,1,,,,,,,,0,,,67,0
130040,note_on,0,0,1,,,,,,,,0,,,77,94
130040,note_on,8,0,1,,,,,,,,0,,,65,94
130072,note_on,0,0,1,,,,,,,,0,,,65,0
130072,note_on,32,0,1,,,,,,,,0,,,77,0
130080,note_on,0,0,1,,,,,,,,0,,,75,93
130080,note_on,8,0,1,,,,,,,,0,,,63,93
130112,note_on,0,0,1,,,,,,,,0,,,63,0
130112,note_on,32,0,1,,,,,,,,0,,,75,0
130120,note_on,8,0,1,,,,,,,,0,,,62,92
130120,note_on,0,0,1,,,,,,,,0,,,74,92
130152,note_on,32,0,1,,,,,,,,0,,,74,0
130152,note_on,0,0,1,,,,,,,,0,,,62,0
130160,note_on,8,0,1,,,,,,,,0,,,60,92
130160,note_on,0,0,1,,,,,,,,0,,,72,92
130192,note_on,0,0,1,,,,,,,,0,,,60,0
130192,note_on,32,0,1,,,,,,,,0,,,72,0
130200,control_change,624,0,4,,,,,,,,0,64,0,,
130200,note_on,8,0,1,,,,,,,,0,,,59,91
130200,note_on,0,0,1,,,,,,,,0,,,71,91
130221,control_change,21,0,4,,,,,,,,0,64,127,,
130296,note_on,96,0,1,,,,,,,,0,,,71,0
130296,note_on,0,0,1,,,,,,,,0,,,59,0
130320,note_on,0,0,1,,,,,,,,0,,,68,89
130320,note_on,24,0,1,,,,,,,,0,,,56,89
130352,note_on,0,0,1,,,,,,,,0,,,56,0
130352,note_on,32,0,1,,,,,,,,0,,,68,0
130360,note_on,0,0,1,,,,,,,,0,,,67,89
130360,note_on,8,0,1,,,,,,,,0,,,55,89
130392,note_on,32,0,1,,,,,,,,0,,,67,0
130392,note_on,0,0,1,,,,,,,,0,,,55,0
130400,note_on,8,0,1,,,,,,,,0,,,53,88
130400,note_on,0,0,1,,,,,,,,0,,,65,88
130432,note_on,0,0,1,,,,,,,,0,,,53,0
130432,note_on,32,0,1,,,,,,,,0,,,65,0
130440,note_on,8,0,1,,,,,,,,0,,,51,87
130440,note_on,0,0,1,,,,,,,,0,,,63,87
130472,note_on,32,0,1,,,,,,,,0,,,63,0
130472,note_on,0,0,1,,,,,,,,0,,,51,0
130480,note_on,8,0,1,,,,,,,,0,,,50,87
130480,note_on,0,0,1,,,,,,,,0,,,62,87
130512,note_on,32,0,1,,,,,,,,0,,,62,0
130512,note_on,0,0,1,,,,,,,,0,,,50,0
130520,note_on,0,0,1,,,,,,,,0,,,60,86
130520,note_on,8,0,1,,,,,,,,0,,,48,86
130552,note_on,32,0,1,,,,,,,,0,,,60,0
130552,note_on,0,0,1,,,,,,,,0,,,48,0
130560,note_on,8,0,1,,,,,,,,0,,,47,85
130560,note_on,0,0,1,,,,,,,,0,,,59,85
130656,note_on,96,0,1,,,,,,,,0,,,59,0
130656,note_on,0,0,1,,,,,,,,0,,,47,0
130656,set_tempo,1082,1,0,,,,,,407775,,,,,,
130669,set_tempo,13,1,0,,,,,,575705,,,,,,
130680,note_on,459,0,4,,,,,,,,0,,,59,100
130680,note_on,0,0,4,,,,,,,,0,,,31,100
130680,note_on,0,0,4,,,,,,,,0,,,35,100
130680,note_on,0,0,4,,,,,,,,0,,,38,100
130680,note_on,0,0,4,,,,,,,,0,,,44,100
130680,note_on,0,0,4,,,,,,,,0,,,50,100
130680,note_on,0,0,4,,,,,,,,0,,,53,100
130685,control_change,5,0,4,,,,,,,,0,64,0,,
130776,note_on,0,0,4,,,,,,,,0,,,59,0
130776,note_on,0,0,4,,,,,,,,0,,,53,0
130776,note_on,91,0,4,,,,,,,,0,,,44,0
130776,note_on,0,0,4,,,,,,,,0,,,31,0
130776,note_on,0,0,4,,,,,,,,0,,,35,0
130776,note_on,0,0,4,,,,,,,,0,,,38,0
130776,note_on,0,0,4,,,,,,,,0,,,50,0
130800,note_on,0,0,4,,,,,,,,0,,,35,100
130800,note_on,0,0,4,,,,,,,,0,,,38,100
130800,note_on,0,0,4,,,,,,,,0,,,44,100
130800,note_on,0,0,4,,,,,,,,0,,,53,100
130800,note_on,0,0,4,,,,,,,,0,,,59,100
130800,note_on,24,0,4,,,,,,,,0,,,50,100
130800,note_on,0,0,4,,,,,,,,0,,,31,100
130896,note_on,96,0,4,,,,,,,,0,,,53,0
130896,note_on,0,0,4,,,,,,,,0,,,44,0
130896,note_on,0,0,4,,,,,,,,0,,,50,0
130896,note_on,0,0,4,,,,,,,,0,,,38,0
130896,note_on,0,0,4,,,,,,,,0,,,35,0
130896,note_on,0,0,4,,,,,,,,0,,,31,0
130896,note_on,0,0,4,,,,,,,,0,,,59,0
130920,control_change,0,0,4,,,,,,,,0,64,127,,
130920,note_on,24,0,4,,,,,,,,0,,,62,100
130920,note_on,0,0,4,,,,,,,,0,,,59,100
130920,note_on,0,0,4,,,,,,,,0,,,44,100
130920,note_on,0,0,4,,,,,,,,0,,,31,100
130920,note_on,0,0,4,,,,,,,,0,,,35,100
130920,note_on,0,0,4,,,,,,,,0,,,53,100
130920,note_on,0,0,4,,,,,,,,0,,,38,100
131016,note_on,0,0,4,,,,,,,,0,,,38,0
131016,note_on,0,0,4,,,,,,,,0,,,44,0
131016,note_on,0,0,4,,,,,,,,0,,,53,0
131016,note_on,0,0,4,,,,,,,,0,,,62,0
131016,note_on,0,0,4,,,,,,,,0,,,35,0
131016,note_on,96,0,4,,,,,,,,0,,,59,0
131016,note_on,0,0,4,,,,,,,,0,,,31,0
131022,set_tempo,353,1,0,,,,,,450857,,,,,,
131031,set_tempo,9,1,0,,,,,,448363,,,,,,
131040,set_tempo,9,1,0,,,,,,445898,,,,,,
131040,note_on,0,0,1,,,,,,,,0,,,92,100
131040,note_on,0,0,1,,,,,,,,0,,,95,100
131040,note_on,384,0,1,,,,,,,,0,,,80,100
131040,note_on,0,0,1,,,,,,,,0,,,83,100
131049,set_tempo,9,1,0,,,,,,443459,,,,,,
131057,set_tempo,8,1,0,,,,,,441047,,,,,,
131058,set_tempo,1,1,0,,,,,,407775,,,,,,
131072,note_on,0,0,1,,,,,,,,0,,,95,0
131072,note_on,0,0,1,,,,,,,,0,,,92,0
131072,note_on,0,0,1,,,,,,,,0,,,80,0
131072,note_on,32,0,1,,,,,,,,0,,,83,0
131080,note_on,8,0,1,,,,,,,,0,,,91,100
131080,note_on,0,0,1,,,,,,,,0,,,79,100
131112,note_on,0,0,1,,,,,,,,0,,,91,0
131112,note_on,32,0,1,,,,,,,,0,,,79,0
131120,note_on,0,0,1,,,,,,,,0,,,77,99
131120,note_on,8,0,1,,,,,,,,0,,,89,99
131152,note_on,0,0,1,,,,,,,,0,,,89,0
131152,note_on,32,0,1,,,,,,,,0,,,77,0
131160,note_on,8,0,1,,,,,,,,0,,,75,99
131160,note_on,0,0,1,,,,,,,,0,,,87,99
131192,note_on,32,0,1,,,,,,,,0,,,87,0
131192,note_on,0,0,1,,,,,,,,0,,,75,0
131200,note_on,8,0,1,,,,,,,,0,,,86,98
131200,note_on,0,0,1,,,,,,,,0,,,74,98
131232,note_on,0,0,1,,,,,,,,0,,,86,0
131232,note_on,32,0,1,,,,,,,,0,,,74,0
131240,note_on,0,0,1,,,,,,,,0,,,72,97
131240,note_on,8,0,1,,,,,,,,0,,,84,97
131272,note_on,32,0,1,,,,,,,,0,,,72,0
131272,note_on,0,0,1,,,,,,,,0,,,84,0
131280,note_on,0,0,1,,,,,,,,0,,,83,97
131280,note_on,8,0,1,,,,,,,,0,,,71,97
131328,set_tempo,270,1,0,,,,,,401714,,,,,,
131345,set_tempo,17,1,0,,,,,,407775,,,,,,
131376,note_on,96,0,1,,,,,,,,0,,,83,0
131376,note_on,0,0,1,,,,,,,,0,,,71,0
131389,set_tempo,44,1,0,,,,,,405734,,,,,,
131398,set_tempo,9,1,0,,,,,,443459,,,,,,
131400,note_on,0,0,1,,,,,,,,0,,,68,95
131400,note_on,0,0,1,,,,,,,,0,,,71,95
131400,note_on,0,0,1,,,,,,,,0,,,80,95
131400,note_on,24,0,1,,,,,,,,0,,,83,95
131406,set_tempo,8,1,0,,,,,,441047,,,,,,
131415,set_tempo,9,1,0,,,,,,438661,,,,,,
131424,set_tempo,9,1,0,,,,,,436300,,,,,,
131432,note_on,32,0,1,,,,,,,,0,,,68,0
131432,note_on,0,0,1,,,,,,,,0,,,83,0
131432,note_on,0,0,1,,,,,,,,0,,,80,0
131432,note_on,0,0,1,,,,,,,,0,,,71,0
131433,set_tempo,9,1,0,,,,,,433965,,,,,,
131440,note_on,0,0,1,,,,,,,,0,,,67,94
131440,note_on,8,0,1,,,,,,,,0,,,79,94
131441,set_tempo,8,1,0,,,,,,431655,,,,,,
131450,set_tempo,9,1,0,,,,,,429369,,,,,,
131459,set_tempo,9,1,0,,,,,,427107,,,,,,
131467,set_tempo,8,1,0,,,,,,424869,,,,,,
131472,note_on,0,0,1,,,,,,,,0,,,79,0
131472,note_on,32,0,1,,,,,,,,0,,,67,0
131476,set_tempo,9,1,0,,,,,,422654,,,,,,
131480,note_on,0,0,1,,,,,,,,0,,,77,94
131480,note_on,8,0,1,,,,,,,,0,,,65,94
131489,set_tempo,13,1,0,,,,,,420463,,,,,,
131498,set_tempo,9,1,0,,,,,,418293,,,,,,
131507,set_tempo,9,1,0,,,,,,416146,,,,,,
131512,note_on,32,0,1,,,,,,,,0,,,77,0
131512,note_on,0,0,1,,,,,,,,0,,,65,0
131515,set_tempo,8,1,0,,,,,,414022,,,,,,
131520,note_on,8,0,1,,,,,,,,0,,,75,93
131520,note_on,0,0,1,,,,,,,,0,,,63,93
131524,set_tempo,9,1,0,,,,,,411918,,,,,,
131533,set_tempo,9,1,0,,,,,,409836,,,,,,
131542,set_tempo,9,1,0,,,,,,407775,,,,,,
131550,set_tempo,8,1,0,,,,,,405734,,,,,,
131552,note_on,0,0,1,,,,,,,,0,,,75,0
131552,note_on,32,0,1,,,,,,,,0,,,63,0
131559,set_tempo,9,1,0,,,,,,403714,,,,,,
131560,note_on,8,0,1,,,,,,,,0,,,74,92
131560,note_on,0,0,1,,,,,,,,0,,,62,92
131592,note_on,0,0,1,,,,,,,,0,,,74,0
131592,note_on,32,0,1,,,,,,,,0,,,62,0
131600,note_on,8,0,1,,,,,,,,0,,,72,92
131600,note_on,0,0,1,,,,,,,,0,,,60,92
131632,note_on,0,0,1,,,,,,,,0,,,72,0
131632,note_on,32,0,1,,,,,,,,0,,,60,0
131640,note_on,0,0,1,,,,,,,,0,,,71,91
131640,control_change,624,0,4,,,,,,,,0,64,0,,
131640,note_on,8,0,1,,,,,,,,0,,,59,91
131659,control_change,19,0,4,,,,,,,,0,64,127,,
131736,note_on,96,0,1,,,,,,,,0,,,71,0
131736,note_on,0,0,1,,,,,,,,0,,,59,0
131760,note_on,0,0,1,,,,,,,,0,,,59,89
131760,note_on,0,0,1,,,,,,,,0,,,71,89
131760,note_on,24,0,1,,,,,,,,0,,,68,89
131760,note_on,0,0,1,,,,,,,,0,,,56,89
131792,note_on,0,0,1,,,,,,,,0,,,56,0
131792,note_on,0,0,1,,,,,,,,0,,,68,0
131792,note_on,0,0,1,,,,,,,,0,,,71,0
131792,note_on,32,0,1,,,,,,,,0,,,59,0
131800,note_on,0,0,1,,,,,,,,0,,,67,89
131800,note_on,8,0,1,,,,,,,,0,,,55,89
131830,set_tempo,271,1,0,,,,,,405734,,,,,,
131832,note_on,32,0,1,,,,,,,,0,,,67,0
131832,note_on,0,0,1,,,,,,,,0,,,55,0
131840,note_on,0,0,1,,,,,,,,0,,,65,88
131840,note_on,8,0,1,,,,,,,,0,,,53,88
131872,note_on,0,0,1,,,,,,,,0,,,53,0
131872,note_on,32,0,1,,,,,,,,0,,,65,0
131880,note_on,8,0,1,,,,,,,,0,,,51,87
131880,note_on,0,0,1,,,,,,,,0,,,63,87
131912,note_on,32,0,1,,,,,,,,0,,,63,0
131912,note_on,0,0,1,,,,,,,,0,,,51,0
131920,note_on,8,0,1,,,,,,,,0,,,50,87
131920,note_on,0,0,1,,,,,,,,0,,,62,87
131952,note_on,0,0,1,,,,,,,,0,,,50,0
131952,note_on,32,0,1,,,,,,,,0,,,62,0
131960,note_on,0,0,1,,,,,,,,0,,,60,86
131960,note_on,8,0,1,,,,,,,,0,,,48,86
131992,note_on,32,0,1,,,,,,,,0,,,60,0
131992,note_on,0,0,1,,,,,,,,0,,,48,0
132000,note_on,8,0,1,,,,,,,,0,,,47,85
132000,note_on,0,0,1,,,,,,,,0,,,59,85
132096,note_on,0,0,1,,,,,,,,0,,,47,0
132096,note_on,96,0,1,,,,,,,,0,,,59,0
132100,set_tempo,270,1,0,,,,,,407775,,,,,,
132120,note_on,0,0,4,,,,,,,,0,,,62,105
132120,note_on,461,0,4,,,,,,,,0,,,50,105
132120,note_on,0,0,4,,,,,,,,0,,,53,105
132120,note_on,0,0,4,,,,,,,,0,,,31,105
132120,note_on,0,0,4,,,,,,,,0,,,44,105
132120,note_on,0,0,4,,,,,,,,0,,,35,105
132120,note_on,0,0,4,,,,,,,,0,,,38,105
132120,note_on,0,0,4,,,,,,,,0,,,59,105
132124,set_tempo,24,1,0,,,,,,571646,,,,,,
132139,control_change,19,0,4,,,,,,,,0,64,0,,
132216,note_on,0,0,4,,,,,,,,0,,,62,0
132216,note_on,0,0,4,,,,,,,,0,,,53,0
132216,note_on,0,0,4,,,,,,,,0,,,50,0
132216,note_on,0,0,4,,,,,,,,0,,,44,0
132216,note_on,0,0,4,,,,,,,,0,,,35,0
132216,note_on,0,0,4,,,,,,,,0,,,31,0
132216,note_on,0,0,4,,,,,,,,0,,,59,0
132216,note_on,77,0,4,,,,,,,,0,,,38,0
132240,note_on,0,0,4,,,,,,,,0,,,31,105
132240,note_on,24,0,4,,,,,,,,0,,,53,105
132240,note_on,0,0,4,,,,,,,,0,,,35,105
132240,note_on,0,0,4,,,,,,,,0,,,59,105
132240,note_on,0,0,4,,,,,,,,0,,,44,105
132240,note_on,0,0,4,,,,,,,,0,,,50,105
132240,note_on,0,0,4,,,,,,,,0,,,62,105
132240,note_on,0,0,4,,,,,,,,0,,,38,105
132336,note_on,96,0,4,,,,,,,,0,,,38,0
132336,note_on,0,0,4,,,,,,,,0,,,44,0
132336,note_on,0,0,4,,,,,,,,0,,,35,0
132336,note_on,0,0,4,,,,,,,,0,,,31,0
132336,note_on,0,0,4,,,,,,,,0,,,50,0
132336,note_on,0,0,4,,,,,,,,0,,,53,0
132336,note_on,0,0,4,,,,,,,,0,,,59,0
132336,note_on,0,0,4,,,,,,,,0,,,62,0
132360,note_on,24,0,4,,,,,,,,0,,,35,105
132360,note_on,0,0,4,,,,,,,,0,,,65,105
132360,note_on,0,0,4,,,,,,,,0,,,59,105
132360,note_on,0,0,4,,,,,,,,0,,,62,105
132360,note_on,0,0,4,,,,,,,,0,,,44,105
132360,note_on,0,0,4,,,,,,,,0,,,38,105
132360,note_on,0,0,4,,,,,,,,0,,,31,105
132360,control_change,0,0,4,,,,,,,,0,64,127,,
132360,note_on,0,0,4,,,,,,,,0,,,53,105
132447,set_tempo,323,1,0,,,,,,575705,,,,,,
132456,set_tempo,9,1,0,,,,,,571646,,,,,,
132456,note_on,96,0,4,,,,,,,,0,,,44,0
132456,note_on,0,0,4,,,,,,,,0,,,38,0
132456,note_on,0,0,4,,,,,,,,0,,,53,0
132456,note_on,0,0,4,,,,,,,,0,,,59,0
132456,note_on,0,0,4,,,,,,,,0,,,62,0
132456,note_on,0,0,4,,,,,,,,0,,,65,0
132456,note_on,0,0,4,,,,,,,,0,,,31,0
132456,note_on,0,0,4,,,,,,,,0,,,35,0
132465,set_tempo,9,1,0,,,,,,567644,,,,,,
132473,set_tempo,8,1,0,,,,,,563698,,,,,,
132478,set_tempo,5,1,0,,,,,,559806,,,,,,
132480,note_on,0,0,2,,,,,,,,0,,,77,105
132480,note_on,384,0,1,,,,,,,,0,,,89,105
132480,note_on,3624,0,2,,,,,,,,0,,,65,105
132487,set_tempo,9,1,0,,,,,,555967,,,,,,
132495,set_tempo,8,1,0,,,,,,552181,,,,,,
132500,set_tempo,5,1,0,,,,,,548446,,,,,,
132508,set_tempo,8,1,0,,,,,,544761,,,,,,
132517,set_tempo,9,1,0,,,,,,541126,,,,,,
132526,set_tempo,9,1,0,,,,,,537538,,,,,,
132528,note_on,48,0,1,,,,,,,,0,,,89,0
132530,set_tempo,4,1,0,,,,,,533998,,,,,,
132539,set_tempo,9,1,0,,,,,,530504,,,,,,
132540,note_on,12,0,1,,,,,,,,0,,,101,105
132548,set_tempo,9,1,0,,,,,,527056,,,,,,
132552,set_tempo,4,1,0,,,,,,523652,,,,,,
132561,set_tempo,9,1,0,,,,,,520291,,,,,,
132569,set_tempo,8,1,0,,,,,,516974,,,,,,
132574,set_tempo,5,1,0,,,,,,513699,,,,,,
132576,note_on,96,0,2,,,,,,,,0,,,77,0
132576,note_on,0,0,2,,,,,,,,0,,,65,0
132583,set_tempo,9,1,0,,,,,,510465,,,,,,
132588,note_on,48,0,1,,,,,,,,0,,,101,0
132591,set_tempo,8,1,0,,,,,,507271,,,,,,
132600,set_tempo,9,1,0,,,,,,504117,,,,,,
132600,note_on,12,0,1,,,,,,,,0,,,87,105
132600,note_on,0,0,2,,,,,,,,0,,,63,105
132600,note_on,24,0,2,,,,,,,,0,,,75,105
132604,set_tempo,4,1,0,,,,,,501002,,,,,,
132613,set_tempo,9,1,0,,,,,,497925,,,,,,
132622,set_tempo,9,1,0,,,,,,494886,,,,,,
132626,set_tempo,4,1,0,,,,,,491884,,,,,,
132635,set_tempo,9,1,0,,,,,,488918,,,,,,
132644,set_tempo,9,1,0,,,,,,485987,,,,,,
132648,set_tempo,4,1,0,,,,,,483092,,,,,,
132648,note_on,48,0,1,,,,,,,,0,,,87,0
132657,set_tempo,9,1,0,,,,,,480231,,,,,,
132660,note_on,12,0,1,,,,,,,,0,,,99,104
132665,set_tempo,8,1,0,,,,,,477403,,,,,,
132674,set_tempo,9,1,0,,,,,,474608,,,,,,
132679,set_tempo,5,1,0,,,,,,471846,,,,,,
132687,set_tempo,8,1,0,,,,,,469116,,,,,,
132696,note_on,96,0,2,,,,,,,,0,,,63,0
132696,note_on,0,0,2,,,,,,,,0,,,75,0
132696,set_tempo,9,1,0,,,,,,466418,,,,,,
132700,set_tempo,4,1,0,,,,,,463750,,,,,,
132708,note_on,48,0,1,,,,,,,,0,,,99,0
132709,set_tempo,9,1,0,,,,,,461113,,,,,,
132718,set_tempo,9,1,0,,,,,,458505,,,,,,
132720,note_on,0,0,2,,,,,,,,0,,,74,104
132720,note_on,24,0,2,,,,,,,,0,,,62,104
132720,note_on,12,0,1,,,,,,,,0,,,86,104
132722,set_tempo,4,1,0,,,,,,455927,,,,,,
132731,set_tempo,9,1,0,,,,,,453378,,,,,,
132740,set_tempo,9,1,0,,,,,,450857,,,,,,
132748,set_tempo,8,1,0,,,,,,448363,,,,,,
132753,set_tempo,5,1,0,,,,,,445898,,,,,,
132761,set_tempo,8,1,0,,,,,,443459,,,,,,
132768,note_on,48,0,1,,,,,,,,0,,,86,0
132770,set_tempo,9,1,0,,,,,,441047,,,,,,
132775,set_tempo,5,1,0,,,,,,438661,,,,,,
132780,note_on,12,0,1,,,,,,,,0,,,98,104
132783,set_tempo,8,1,0,,,,,,436300,,,,,,
132792,set_tempo,9,1,0,,,,,,433965,,,,,,
132801,set_tempo,9,1,0,,,,,,431655,,,,,,
132805,set_tempo,4,1,0,,,,,,429369,,,,,,
132814,set_tempo,9,1,0,,,,,,427107,,,,,,
132816,note_on,0,0,2,,,,,,,,0,,,62,0
132816,note_on,96,0,2,,,,,,,,0,,,74,0
132823,set_tempo,9,1,0,,,,,,424869,,,,,,
132827,set_tempo,4,1,0,,,,,,422654,,,,,,
132828,note_on,48,0,1,,,,,,,,0,,,98,0
132836,set_tempo,9,1,0,,,,,,420463,,,,,,
132840,note_on,24,0,2,,,,,,,,0,,,72,103
132840,note_on,0,0,2,,,,,,,,0,,,60,103
132840,note_on,12,0,1,,,,,,,,0,,,84,103
132844,set_tempo,8,1,0,,,,,,418293,,,,,,
132849,set_tempo,5,1,0,,,,,,416146,,,,,,
132857,set_tempo,8,1,0,,,,,,414022,,,,,,
132866,set_tempo,9,1,0,,,,,,411918,,,,,,
132875,set_tempo,9,1,0,,,,,,409836,,,,,,
132879,set_tempo,4,1,0,,,,,,407775,,,,,,
132888,set_tempo,9,1,0,,,,,,405734,,,,,,
132888,note_on,48,0,1,,,,,,,,0,,,84,0
132897,set_tempo,9,1,0,,,,,,403714,,,,,,
132900,note_on,12,0,1,,,,,,,,0,,,96,103
132901,set_tempo,4,1,0,,,,,,401714,,,,,,
132910,set_tempo,9,1,0,,,,,,399734,,,,,,
132919,set_tempo,9,1,0,,,,,,397772,,,,,,
132923,set_tempo,4,1,0,,,,,,395831,,,,,,
132932,set_tempo,9,1,0,,,,,,393908,,,,,,
132936,note_on,96,0,2,,,,,,,,0,,,60,0
132936,note_on,0,0,2,,,,,,,,0,,,72,0
132940,set_tempo,8,1,0,,,,,,392003,,,,,,
132948,note_on,48,0,1,,,,,,,,0,,,96,0
132949,set_tempo,9,1,0,,,,,,390117,,,,,,
132953,set_tempo,4,1,0,,,,,,388249,,,,,,
132960,note_on,0,0,2,,,,,,,,0,,,71,103
132960,note_on,24,0,2,,,,,,,,0,,,59,103
132960,note_on,12,0,1,,,,,,,,0,,,83,103
132962,set_tempo,9,1,0,,,,,,386399,,,,,,
132971,set_tempo,9,1,0,,,,,,384566,,,,,,
132975,set_tempo,4,1,0,,,,,,382751,,,,,,
132984,set_tempo,9,1,0,,,,,,380952,,,,,,
132993,set_tempo,9,1,0,,,,,,379171,,,,,,
132997,set_tempo,4,1,0,,,,,,377406,,,,,,
133006,set_tempo,9,1,0,,,,,,375657,,,,,,
133008,note_on,48,0,1,,,,,,,,0,,,83,0
133015,set_tempo,9,1,0,,,,,,373925,,,,,,
133020,note_on,12,0,1,,,,,,,,0,,,95,102
133023,set_tempo,8,1,0,,,,,,372208,,,,,,
133028,set_tempo,5,1,0,,,,,,370508,,,,,,
133036,set_tempo,8,1,0,,,,,,368822,,,,,,
133045,set_tempo,9,1,0,,,,,,367152,,,,,,
133049,set_tempo,4,1,0,,,,,,365497,,,,,,
133056,note_on,0,0,2,,,,,,,,0,,,59,0
133056,note_on,96,0,2,,,,,,,,0,,,71,0
133058,set_tempo,9,1,0,,,,,,363857,,,,,,
133067,set_tempo,9,1,0,,,,,,362231,,,,,,
133068,note_on,48,0,1,,,,,,,,0,,,95,0
133071,set_tempo,4,1,0,,,,,,360620,,,,,,
133080,note_on,12,0,1,,,,,,,,0,,,80,102
133080,note_on,0,0,3,,,,,,,,0,,,68,102
133080,note_on,4224,0,3,,,,,,,,0,,,56,102
133128,note_on,48,0,1,,,,,,,,0,,,80,0
133140,note_on,12,0,1,,,,,,,,0,,,92,101
133176,note_on,96,0,3,,,,,,,,0,,,68,0
133176,note_on,0,0,3,,,,,,,,0,,,56,0
133188,note_on,48,0,1,,,,,,,,0,,,92,0
133200,note_on,24,0,3,,,,,,,,0,,,67,101
133200,note_on,0,0,3,,,,,,,,0,,,55,101
133200,note_on,12,0,1,,,,,,,,0,,,79,101
133248,note_on,48,0,1,,,,,,,,0,,,79,0
133260,note_on,12,0,1,,,,,,,,0,,,91,101
133296,note_on,96,0,3,,,,,,,,0,,,55,0
133296,note_on,0,0,3,,,,,,,,0,,,67,0
133308,note_on,48,0,1,,,,,,,,0,,,91,0
133320,note_on,0,0,3,,,,,,,,0,,,53,100
133320,note_on,24,0,3,,,,,,,,0,,,65,100
133320,note_on,12,0,1,,,,,,,,0,,,77,100
133368,note_on,48,0,1,,,,,,,,0,,,77,0
133380,note_on,12,0,1,,,,,,,,0,,,89,100
133416,note_on,96,0,3,,,,,,,,0,,,53,0
133416,note_on,0,0,3,,,,,,,,0,,,65,0
133428,note_on,48,0,1,,,,,,,,0,,,89,0
133440,note_on,12,0,1,,,,,,,,0,,,75,100
133440,note_on,0,0,3,,,,,,,,0,,,63,100
133440,note_on,24,0,3,,,,,,,,0,,,51,100
133488,note_on,48,0,1,,,,,,,,0,,,75,0
133500,note_on,12,0,1,,,,,,,,0,,,87,99
133536,note_on,96,0,3,,,,,,,,0,,,63,0
133536,note_on,0,0,3,,,,,,,,0,,,51,0
133548,note_on,48,0,1,,,,,,,,0,,,87,0
133560,note_on,24,0,3,,,,,,,,0,,,50,99
133560,note_on,0,0,3,,,,,,,,0,,,62,99
133560,note_on,12,0,1,,,,,,,,0,,,74,99
133608,note_on,48,0,1,,,,,,,,0,,,74,0
133620,note_on,12,0,1,,,,,,,,0,,,86,99
133656,note_on,96,0,3,,,,,,,,0,,,62,0
133656,note_on,0,0,3,,,,,,,,0,,,50,0
133668,note_on,48,0,1,,,,,,,,0,,,86,0
133680,note_on,0,0,3,,,,,,,,0,,,60,98
133680,note_on,24,0,3,,,,,,,,0,,,48,98
133680,note_on,12,0,1,,,,,,,,0,,,72,98
133728,note_on,48,0,1,,,,,,,,0,,,72,0
133740,note_on,12,0,1,,,,,,,,0,,,84,98
133776,note_on,0,0,3,,,,,,,,0,,,48,0
133776,note_on,96,0,3,,,,,,,,0,,,60,0
133788,note_on,48,0,1,,,,,,,,0,,,84,0
133791,set_tempo,720,1,0,,,,,,359023,,,,,,
133800,note_on,12,0,1,,,,,,,,0,,,71,98
133800,note_on,0,0,3,,,,,,,,0,,,59,98
133800,control_change,1344,0,4,,,,,,,,0,64,0,,
133800,note_on,24,0,3,,,,,,,,0,,,47,98
133805,set_tempo,14,1,0,,,,,,362231,,,,,,
133835,set_tempo,30,1,0,,,,,,360620,,,,,,
133848,note_on,48,0,1,,,,,,,,0,,,71,0
133853,control_change,53,0,4,,,,,,,,0,64,127,,
133860,note_on,12,0,1,,,,,,,,0,,,83,97
133866,set_tempo,31,1,0,,,,,,359023,,,,,,
133896,set_tempo,30,1,0,,,,,,357441,,,,,,
133896,note_on,0,0,3,,,,,,,,0,,,47,0
133896,note_on,96,0,3,,,,,,,,0,,,59,0
133908,note_on,48,0,1,,,,,,,,0,,,83,0
133920,note_on,24,0,3,,,,,,,,0,,,56,97
133920,note_on,12,0,1,,,,,,,,0,,,68,97
133920,note_on,0,0,3,,,,,,,,0,,,44,97
133922,set_tempo,26,1,0,,,,,,355872,,,,,,
133953,set_tempo,31,1,0,,,,,,354317,,,,,,
133968,note_on,48,0,1,,,,,,,,0,,,68,0
133980,note_on,12,0,1,,,,,,,,0,,,80,97
133983,set_tempo,30,1,0,,,,,,352775,,,,,,
134014,set_tempo,31,1,0,,,,,,351247,,,,,,
134016,note_on,0,0,3,,,,,,,,0,,,56,0
134016,note_on,96,0,3,,,,,,,,0,,,44,0
134028,note_on,48,0,1,,,,,,,,0,,,80,0
134040,note_on,12,0,1,,,,,,,,0,,,67,96
134040,note_on,24,0,3,,,,,,,,0,,,55,96
134040,set_tempo,26,1,0,,,,,,349732,,,,,,
134040,note_on,0,0,3,,,,,,,,0,,,43,96
134071,set_tempo,31,1,0,,,,,,348230,,,,,,
134088,note_on,48,0,1,,,,,,,,0,,,67,0
134100,note_on,12,0,1,,,,,,,,0,,,79,96
134101,set_tempo,30,1,0,,,,,,346741,,,,,,
134132,set_tempo,31,1,0,,,,,,345264,,,,,,
134136,note_on,96,0,3,,,,,,,,0,,,43,0
134136,note_on,0,0,3,,,,,,,,0,,,55,0
134148,note_on,48,0,1,,,,,,,,0,,,79,0
134158,set_tempo,26,1,0,,,,,,343800,,,,,,
134160,note_on,12,0,1,,,,,,,,0,,,65,95
134160,note_on,24,0,3,,,,,,,,0,,,41,95
134160,note_on,0,0,3,,,,,,,,0,,,53,95
134189,set_tempo,31,1,0,,,,,,342349,,,,,,
134208,note_on,48,0,1,,,,,,,,0,,,65,0
134219,set_tempo,30,1,0,,,,,,340909,,,,,,
134220,note_on,12,0,1,,,,,,,,0,,,77,95
134250,set_tempo,31,1,0,,,,,,339482,,,,,,
134256,note_on,0,0,3,,,,,,,,0,,,41,0
134256,note_on,96,0,3,,,,,,,,0,,,53,0
134268,note_on,48,0,1,,,,,,,,0,,,77,0
134276,set_tempo,26,1,0,,,,,,338066,,,,,,
134280,note_on,0,0,3,,,,,,,,0,,,51,95
134280,note_on,12,0,1,,,,,,,,0,,,63,95
134280,note_on,24,0,3,,,,,,,,0,,,39,95
134306,set_tempo,30,1,0,,,,,,336663,,,,,,
134328,note_on,48,0,1,,,,,,,,0,,,63,0
134337,set_tempo,31,1,0,,,,,,335270,,,,,,
134340,note_on,12,0,1,,,,,,,,0,,,75,94
134367,set_tempo,30,1,0,,,,,,333890,,,,,,
134376,note_on,96,0,3,,,,,,,,0,,,51,0
134376,note_on,0,0,3,,,,,,,,0,,,39,0
134388,note_on,48,0,1,,,,,,,,0,,,75,0
134394,set_tempo,27,1,0,,,,,,332521,,,,,,
134400,note_on,12,0,1,,,,,,,,0,,,62,94
134400,note_on,24,0,3,,,,,,,,0,,,38,94
134400,note_on,0,0,3,,,,,,,,0,,,50,94
134424,set_tempo,30,1,0,,,,,,331162,,,,,,
134448,note_on,48,0,1,,,,,,,,0,,,62,0
134455,set_tempo,31,1,0,,,,,,329815,,,,,,
134460,note_on,12,0,1,,,,,,,,0,,,74,94
134485,set_tempo,30,1,0,,,,,,328479,,,,,,
134496,note_on,96,0,3,,,,,,,,0,,,50,0
134496,note_on,0,0,3,,,,,,,,0,,,38,0
134508,note_on,48,0,1,,,,,,,,0,,,74,0
134511,set_tempo,26,1,0,,,,,,327154,,,,,,
134520,note_on,0,0,4,,,,,,,,0,,,48,93
134520,note_on,667,0,4,,,,,,,,0,,,36,93
134520,note_on,12,0,1,,,,,,,,0,,,60,93
134568,note_on,48,0,1,,,,,,,,0,,,60,0
134580,note_on,12,0,1,,,,,,,,0,,,72,93
134616,note_on,0,0,4,,,,,,,,0,,,36,0
134616,note_on,96,0,4,,,,,,,,0,,,48,0
134628,note_on,48,0,1,,,,,,,,0,,,72,0
134640,note_on,0,0,4,,,,,,,,0,,,47,93
134640,note_on,12,0,1,,,,,,,,0,,,59,93
134640,note_on,24,0,4,,,,,,,,0,,,35,93
134688,note_on,48,0,1,,,,,,,,0,,,59,0
134700,note_on,12,0,1,,,,,,,,0,,,71,92
134736,note_on,96,0,4,,,,,,,,0,,,47,0
134736,note_on,0,0,4,,,,,,,,0,,,35,0
134748,note_on,48,0,1,,,,,,,,0,,,71,0
134760,note_on,24,0,4,,,,,,,,0,,,44,92
134760,note_on,12,0,1,,,,,,,,0,,,56,92
134808,note_on,48,0,1,,,,,,,,0,,,56,0
134820,note_on,12,0,1,,,,,,,,0,,,68,92
134856,note_on,96,0,4,,,,,,,,0,,,44,0
134868,note_on,48,0,1,,,,,,,,0,,,68,0
134880,note_on,12,0,1,,,,,,,,0,,,55,91
134880,note_on,24,0,4,,,,,,,,0,,,43,91
134928,note_on,48,0,1,,,,,,,,0,,,55,0
134940,note_on,12,0,1,,,,,,,,0,,,67,91
134976,note_on,96,0,4,,,,,,,,0,,,43,0
134988,note_on,48,0,1,,,,,,,,0,,,67,0
135000,note_on,24,0,4,,,,,,,,0,,,42,90
135000,note_on,12,0,1,,,,,,,,0,,,54,90
135048,note_on,48,0,1,,,,,,,,0,,,54,0
135060,note_on,12,0,1,,,,,,,,0,,,66,90
135096,note_on,96,0,4,,,,,,,,0,,,42,0
135108,note_on,48,0,1,,,,,,,,0,,,66,0
135120,note_on,24,0,4,,,,,,,,0,,,41,90
135120,note_on,12,0,1,,,,,,,,0,,,53,90
135168,note_on,48,0,1,,,,,,,,0,,,53,0
135180,note_on,12,0,1,,,,,,,,0,,,65,89
135216,note_on,96,0,4,,,,,,,,0,,,41,0
135228,note_on,48,0,1,,,,,,,,0,,,65,0
135240,note_on,744,0,3,,,,,,,,0,,,52,89
135240,control_change,0,0,4,,,,,,,,0,64,0,,
135240,note_on,24,0,4,,,,,,,,0,,,40,89
135279,control_change,39,0,4,,,,,,,,0,64,127,,
135288,note_on,48,0,3,,,,,,,,0,,,52,0
135300,note_on,12,0,3,,,,,,,,0,,,64,89
135336,note_on,57,0,4,,,,,,,,0,,,40,0
135348,note_on,48,0,3,,,,,,,,0,,,64,0
135360,note_on,24,0,4,,,,,,,,0,,,39,88
135360,note_on,12,0,3,,,,,,,,0,,,51,88
135408,note_on,48,0,3,,,,,,,,0,,,51,0
135420,note_on,12,0,3,,,,,,,,0,,,63,88
135456,note_on,96,0,4,,,,,,,,0,,,39,0
135468,note_on,48,0,3,,,,,,,,0,,,63,0
135480,note_on,12,0,3,,,,,,,,0,,,50,88
135480,note_on,24,0,4,,,,,,,,0,,,38,88
135528,note_on,48,0,3,,,,,,,,0,,,50,0
135540,note_on,12,0,3,,,,,,,,0,,,62,87
135576,note_on,96,0,4,,,,,,,,0,,,38,0
135588,note_on,48,0,3,,,,,,,,0,,,62,0
135600,note_on,12,0,3,,,,,,,,0,,,49,87
135600,note_on,24,0,4,,,,,,,,0,,,37,87
135648,note_on,48,0,3,,,,,,,,0,,,49,0
135660,note_on,12,0,3,,,,,,,,0,,,61,87
135696,note_on,96,0,4,,,,,,,,0,,,37,0
135708,note_on,48,0,3,,,,,,,,0,,,61,0
135720,note_on,24,0,4,,,,,,,,0,,,36,86
135720,note_on,12,0,3,,,,,,,,0,,,48,86
135768,note_on,48,0,3,,,,,,,,0,,,48,0
135780,note_on,12,0,3,,,,,,,,0,,,60,86
135816,note_on,96,0,4,,,,,,,,0,,,36,0
135828,note_on,48,0,3,,,,,,,,0,,,60,0
135840,note_on,12,0,3,,,,,,,,0,,,47,85
135840,note_on,24,0,4,,,,,,,,0,,,35,85
135888,note_on,48,0,3,,,,,,,,0,,,47,0
135900,note_on,12,0,3,,,,,,,,0,,,59,85
135936,note_on,96,0,4,,,,,,,,0,,,35,0
135945,set_tempo,1434,1,0,,,,,,328479,,,,,,
135948,note_on,48,0,3,,,,,,,,0,,,59,0
135960,note_on,12,0,3,,,,,,,,0,,,56,85
135960,note_on,24,0,4,,,,,,,,0,,,44,85
135967,set_tempo,22,1,0,,,,,,329815,,,,,,
135985,set_tempo,18,1,0,,,,,,331162,,,,,,
136002,set_tempo,17,1,0,,,,,,332521,,,,,,
136008,note_on,48,0,3,,,,,,,,0,,,56,0
136019,set_tempo,17,1,0,,,,,,333890,,,,,,
136020,note_on,12,0,3,,,,,,,,0,,,68,84
136037,set_tempo,18,1,0,,,,,,335270,,,,,,
136054,set_tempo,17,1,0,,,,,,336663,,,,,,
136056,note_on,96,0,4,,,,,,,,0,,,44,0
136068,note_on,48,0,3,,,,,,,,0,,,68,0
136072,set_tempo,18,1,0,,,,,,338066,,,,,,
136080,note_on,12,0,3,,,,,,,,0,,,55,84
136080,note_on,24,0,4,,,,,,,,0,,,43,84
136089,set_tempo,17,1,0,,,,,,339482,,,,,,
136107,set_tempo,18,1,0,,,,,,340909,,,,,,
136124,set_tempo,17,1,0,,,,,,342349,,,,,,
136128,note_on,48,0,3,,,,,,,,0,,,55,0
136140,note_on,12,0,3,,,,,,,,0,,,67,84
136142,set_tempo,18,1,0,,,,,,343800,,,,,,
136159,set_tempo,17,1,0,,,,,,345264,,,,,,
136176,note_on,96,0,4,,,,,,,,0,,,43,0
136177,set_tempo,18,1,0,,,,,,346741,,,,,,
136188,note_on,48,0,3,,,,,,,,0,,,67,0
136198,set_tempo,21,1,0,,,,,,348230,,,,,,
136200,note_on,12,0,3,,,,,,,,0,,,54,83
136200,note_on,24,0,4,,,,,,,,0,,,42,83
136216,set_tempo,18,1,0,,,,,,349732,,,,,,
136233,set_tempo,17,1,0,,,,,,351247,,,,,,
136248,note_on,48,0,3,,,,,,,,0,,,54,0
136251,set_tempo,18,1,0,,,,,,352775,,,,,,
136260,note_on,12,0,3,,,,,,,,0,,,66,83
136268,set_tempo,17,1,0,,,,,,354317,,,,,,
136286,set_tempo,18,1,0,,,,,,355872,,,,,,
136296,note_on,96,0,4,,,,,,,,0,,,42,0
136303,set_tempo,17,1,0,,,,,,357441,,,,,,
136308,note_on,48,0,3,,,,,,,,0,,,66,0
136320,note_on,24,0,4,,,,,,,,0,,,41,83
136320,note_on,12,0,3,,,,,,,,0,,,53,83
136321,set_tempo,18,1,0,,,,,,359023,,,,,,
136338,set_tempo,17,1,0,,,,,,360620,,,,,,
136355,set_tempo,17,1,0,,,,,,362231,,,,,,
136368,note_on,48,0,3,,,,,,,,0,,,53,0
136373,set_tempo,18,1,0,,,,,,363857,,,,,,
136380,note_on,12,0,3,,,,,,,,0,,,65,82
136390,set_tempo,17,1,0,,,,,,365497,,,,,,
136408,set_tempo,18,1,0,,,,,,367152,,,,,,
136416,note_on,96,0,4,,,,,,,,0,,,41,0
136422,control_change,6,0,4,,,,,,,,0,64,0,,
136425,set_tempo,17,1,0,,,,,,368822,,,,,,
136428,note_on,48,0,3,,,,,,,,0,,,65,0
136440,note_on,18,0,4,,,,,,,,0,,,40,82
136440,note_on,12,0,3,,,,,,,,0,,,52,82
136447,set_tempo,22,1,0,,,,,,370508,,,,,,
136465,set_tempo,18,1,0,,,,,,372208,,,,,,
136482,set_tempo,17,1,0,,,,,,373925,,,,,,
136488,note_on,48,0,3,,,,,,,,0,,,52,0
136499,set_tempo,17,1,0,,,,,,375657,,,,,,
136500,note_on,12,0,3,,,,,,,,0,,,64,82
136517,set_tempo,18,1,0,,,,,,377406,,,,,,
136534,set_tempo,17,1,0,,,,,,379171,,,,,,
136536,note_on,96,0,4,,,,,,,,0,,,40,0
136548,note_on,48,0,3,,,,,,,,0,,,64,0
136552,set_tempo,18,1,0,,,,,,380952,,,,,,
136560,note_on,24,0,4,,,,,,,,0,,,39,81
136560,note_on,12,0,3,,,,,,,,0,,,51,81
136569,set_tempo,17,1,0,,,,,,382751,,,,,,
136587,set_tempo,18,1,0,,,,,,384566,,,,,,
136604,set_tempo,17,1,0,,,,,,386399,,,,,,
136608,note_on,48,0,3,,,,,,,,0,,,51,0
136620,note_on,12,0,3,,,,,,,,0,,,63,81
136622,set_tempo,18,1,0,,,,,,388249,,,,,,
136639,set_tempo,17,1,0,,,,,,390117,,,,,,
136656,note_on,96,0,4,,,,,,,,0,,,39,0
136657,set_tempo,18,1,0,,,,,,392003,,,,,,
136668,note_on,48,0,3,,,,,,,,0,,,63,0
136674,set_tempo,17,1,0,,,,,,393908,,,,,,
136680,note_on,12,0,3,,,,,,,,0,,,50,80
136680,note_on,24,0,4,,,,,,,,0,,,38,80
136728,note_on,48,0,3,,,,,,,,0,,,50,0
136740,note_on,12,0,3,,,,,,,,0,,,62,80
136776,note_on,96,0,4,,,,,,,,0,,,38,0
136788,note_on,48,0,3,,,,,,,,0,,,62,0
136800,note_on,12,0,3,,,,,,,,0,,,49,80
136800,note_on,24,0,4,,,,,,,,0,,,37,80
136848,note_on,48,0,3,,,,,,,,0,,,49,0
136860,note_on,12,0,3,,,,,,,,0,,,61,80
136896,note_on,96,0,4,,,,,,,,0,,,37,0
136908,note_on,48,0,3,,,,,,,,0,,,61,0
136920,note_on,24,0,4,,,,,,,,0,,,36,80
136920,note_on,12,0,3,,,,,,,,0,,,48,80
136968,note_on,48,0,3,,,,,,,,0,,,48,0
136980,note_on,12,0,3,,,,,,,,0,,,60,80
137016,note_on,96,0,4,,,,,,,,0,,,36,0
137028,note_on,48,0,3,,,,,,,,0,,,60,0
137040,note_on,24,0,4,,,,,,,,0,,,35,80
137040,note_on,12,0,3,,,,,,,,0,,,47,80
137088,note_on,48,0,3,,,,,,,,0,,,47,0
137100,note_on,12,0,3,,,,,,,,0,,,59,80
137136,note_on,96,0,4,,,,,,,,0,,,35,0
137148,note_on,48,0,3,,,,,,,,0,,,59,0
137400,note_on,264,0,4,,,,,,,,0,,,44,80
137400,note_on,252,0,3,,,,,,,,0,,,56,80
137448,note_on,48,0,3,,,,,,,,0,,,56,0
137460,note_on,4404,0,2,,,,,,,,0,,,68,80
137496,note_on,96,0,4,,,,,,,,0,,,44,0
137508,note_on,48,0,2,,,,,,,,0,,,68,0
137515,set_tempo,841,1,0,,,,,,575705,,,,,,
137532,set_tempo,17,1,0,,,,,,796178,,,,,,
137750,set_tempo,218,1,0,,,,,,405734,,,,,,
137760,note_on,264,0,4,,,,,,,,0,,,43,80
137760,note_on,312,0,3,,,,,,,,0,,,55,80
137808,note_on,48,0,3,,,,,,,,0,,,55,0
137820,note_on,312,0,2,,,,,,,,0,,,67,80
137856,note_on,96,0,4,,,,,,,,0,,,43,0
137868,note_on,48,0,2,,,,,,,,0,,,67,0
137877,set_tempo,127,1,0,,,,,,407775,,,,,,
137881,set_tempo,4,1,0,,,,,,796178,,,,,,
138115,set_tempo,234,1,0,,,,,,252717,,,,,,
138838,set_tempo,723,1,0,,,,,,309661,,,,,,
139498,control_change,1642,0,4,,,,,,,,0,64,127,,
139530,note_on,32,0,4,,,,,,,,0,,,36,88
139530,note_on,4302,0,1,,,,,,,,0,,,48,77
139549,set_tempo,711,1,0,,,,,,308483,,,,,,
139558,set_tempo,9,1,0,,,,,,420463,,,,,,
139590,note_on,1722,0,2,,,,,,,,0,,,50,56
139590,note_on,1782,0,3,,,,,,,,0,,,38,56
139614,note_on,24,0,2,,,,,,,,0,,,50,0
139614,note_on,24,0,3,,,,,,,,0,,,38,0
139620,note_on,6,0,3,,,,,,,,0,,,39,56
139620,note_on,6,0,2,,,,,,,,0,,,51,56
139644,note_on,24,0,3,,,,,,,,0,,,39,0
139644,note_on,24,0,2,,,,,,,,0,,,51,0
139650,note_on,6,0,3,,,,,,,,0,,,41,56
139650,note_on,6,0,2,,,,,,,,0,,,53,56
139656,note_on,126,0,4,,,,,,,,0,,,36,0
139656,note_on,126,0,1,,,,,,,,0,,,48,0
139674,note_on,24,0,3,,,,,,,,0,,,41,0
139674,note_on,24,0,2,,,,,,,,0,,,53,0
139680,note_on,24,0,1,,,,,,,,0,,,55,77
139680,note_on,24,0,4,,,,,,,,0,,,43,88
139710,note_on,36,0,2,,,,,,,,0,,,48,56
139710,note_on,36,0,3,,,,,,,,0,,,36,56
139734,note_on,24,0,3,,,,,,,,0,,,36,0
139734,note_on,24,0,2,,,,,,,,0,,,48,0
139740,note_on,6,0,2,,,,,,,,0,,,50,56
139740,note_on,6,0,3,,,,,,,,0,,,38,56
139764,note_on,24,0,3,,,,,,,,0,,,38,0
139764,note_on,24,0,2,,,,,,,,0,,,50,0
139770,note_on,6,0,3,,,,,,,,0,,,39,56
139770,note_on,6,0,2,,,,,,,,0,,,51,56
139776,note_on,96,0,4,,,,,,,,0,,,43,0
139776,note_on,96,0,1,,,,,,,,0,,,55,0
139794,note_on,24,0,2,,,,,,,,0,,,51,0
139794,note_on,24,0,3,,,,,,,,0,,,39,0
139800,note_on,24,0,4,,,,,,,,0,,,41,88
139800,note_on,24,0,1,,,,,,,,0,,,53,77
139830,note_on,36,0,3,,,,,,,,0,,,43,56
139830,note_on,36,0,2,,,,,,,,0,,,55,56
139854,note_on,24,0,3,,,,,,,,0,,,43,0
139854,note_on,24,0,2,,,,,,,,0,,,55,0
139860,note_on,6,0,2,,,,,,,,0,,,48,56
139860,note_on,6,0,3,,,,,,,,0,,,36,56
139884,note_on,24,0,2,,,,,,,,0,,,48,0
139884,note_on,24,0,3,,,,,,,,0,,,36,0
139890,note_on,6,0,3,,,,,,,,0,,,38,56
139890,note_on,6,0,2,,,,,,,,0,,,50,56
139896,note_on,96,0,4,,,,,,,,0,,,41,0
139896,note_on,96,0,1,,,,,,,,0,,,53,0
139914,note_on,24,0,2,,,,,,,,0,,,50,0
139914,note_on,24,0,3,,,,,,,,0,,,38,0
139920,note_on,24,0,4,,,,,,,,0,,,39,88
139920,note_on,24,0,1,,,,,,,,0,,,51,77
139950,note_on,36,0,3,,,,,,,,0,,,41,56
139950,note_on,36,0,2,,,,,,,,0,,,53,56
139974,note_on,24,0,2,,,,,,,,0,,,53,0
139974,note_on,24,0,3,,,,,,,,0,,,41,0
139980,note_on,6,0,2,,,,,,,,0,,,55,56
139980,note_on,6,0,3,,,,,,,,0,,,43,56
140004,note_on,24,0,3,,,,,,,,0,,,43,0
140004,note_on,24,0,2,,,,,,,,0,,,55,0
140010,note_on,6,0,2,,,,,,,,0,,,48,56
140010,note_on,6,0,3,,,,,,,,0,,,36,56
140016,note_on,96,0,4,,,,,,,,0,,,39,0
140016,note_on,96,0,1,,,,,,,,0,,,51,0
140034,note_on,24,0,3,,,,,,,,0,,,36,0
140034,note_on,24,0,2,,,,,,,,0,,,48,0
140040,note_on,24,0,4,,,,,,,,0,,,38,88
140040,note_on,24,0,1,,,,,,,,0,,,50,77
140070,note_on,36,0,3,,,,,,,,0,,,39,56
140070,note_on,36,0,2,,,,,,,,0,,,51,56
140094,note_on,24,0,3,,,,,,,,0,,,39,0
140094,note_on,24,0,2,,,,,,,,0,,,51,0
140100,note_on,6,0,3,,,,,,,,0,,,41,56
140100,note_on,6,0,2,,,,,,,,0,,,53,56
140124,note_on,24,0,3,,,,,,,,0,,,41,0
140124,note_on,24,0,2,,,,,,,,0,,,53,0
140128,control_change,88,0,4,,,,,,,,0,64,0,,
140130,note_on,6,0,3,,,,,,,,0,,,43,56
140130,note_on,6,0,2,,,,,,,,0,,,55,56
140136,note_on,8,0,4,,,,,,,,0,,,38,0
140136,note_on,96,0,1,,,,,,,,0,,,50,0
140154,note_on,24,0,2,,,,,,,,0,,,55,0
140154,note_on,24,0,3,,,,,,,,0,,,43,0
140160,note_on,24,0,4,,,,,,,,0,,,36,88
140160,note_on,24,0,1,,,,,,,,0,,,48,77
140256,note_on,96,0,1,,,,,,,,0,,,48,0
140256,note_on,96,0,4,,,,,,,,0,,,36,0
140280,note_on,24,0,4,,,,,,,,0,,,51,80
140280,note_on,0,0,1,,,,,,,,0,,,75,80
140280,note_on,0,0,1,,,,,,,,0,,,84,80
140280,note_on,24,0,1,,,,,,,,0,,,72,80
140280,note_on,0,0,4,,,,,,,,0,,,60,80
140280,note_on,0,0,4,,,,,,,,0,,,55,80
140280,note_on,0,0,4,,,,,,,,0,,,48,80
140376,note_on,0,0,1,,,,,,,,0,,,75,0
140376,note_on,96,0,1,,,,,,,,0,,,84,0
140376,note_on,0,0,4,,,,,,,,0,,,48,0
140376,note_on,0,0,4,,,,,,,,0,,,51,0
140376,note_on,0,0,4,,,,,,,,0,,,60,0
140376,note_on,96,0,4,,,,,,,,0,,,55,0
140376,note_on,0,0,1,,,,,,,,0,,,72,0
140460,note_on,0,0,4,,,,,,,,0,,,55,80
140460,note_on,84,0,1,,,,,,,,0,,,75,80
140460,note_on,0,0,4,,,,,,,,0,,,51,80
140460,note_on,84,0,4,,,,,,,,0,,,60,80
140460,note_on,0,0,4,,,,,,,,0,,,48,80
140460,note_on,0,0,1,,,,,,,,0,,,72,80
140460,note_on,0,0,1,,,,,,,,0,,,67,80
140460,note_on,0,0,1,,,,,,,,0,,,79,80
140508,note_on,0,0,4,,,,,,,,0,,,48,0
140508,note_on,0,0,4,,,,,,,,0,,,55,0
140508,note_on,0,0,4,,,,,,,,0,,,60,0
140508,note_on,48,0,1,,,,,,,,0,,,72,0
140508,note_on,0,0,1,,,,,,,,0,,,75,0
140508,note_on,48,0,4,,,,,,,,0,,,51,0
140508,note_on,0,0,1,,,,,,,,0,,,79,0
140508,note_on,0,0,1,,,,,,,,0,,,67,0
140520,note_on,0,0,1,,,,,,,,0,,,75,80
140520,note_on,0,0,1,,,,,,,,0,,,72,80
140520,note_on,0,0,1,,,,,,,,0,,,67,80
140520,note_on,12,0,1,,,,,,,,0,,,79,80
140520,note_on,0,0,4,,,,,,,,0,,,51,80
140520,note_on,12,0,4,,,,,,,,0,,,55,80
140520,note_on,0,0,4,,,,,,,,0,,,60,80
140520,note_on,0,0,4,,,,,,,,0,,,48,80
140616,note_on,96,0,1,,,,,,,,0,,,67,0
140616,note_on,0,0,4,,,,,,,,0,,,55,0
140616,note_on,0,0,4,,,,,,,,0,,,48,0
140616,note_on,0,0,1,,,,,,,,0,,,72,0
140616,note_on,0,0,1,,,,,,,,0,,,75,0
140616,note_on,0,0,1,,,,,,,,0,,,79,0
140616,note_on,96,0,4,,,,,,,,0,,,60,0
140616,note_on,0,0,4,,,,,,,,0,,,51,0
140820,note_on,0,0,1,,,,,,,,0,,,63,80
140820,note_on,0,0,1,,,,,,,,0,,,67,80
140820,note_on,204,0,1,,,,,,,,0,,,75,80
140820,note_on,204,0,4,,,,,,,,0,,,48,80
140820,note_on,0,0,4,,,,,,,,0,,,51,80
140820,note_on,0,0,4,,,,,,,,0,,,55,80
140820,note_on,0,0,4,,,,,,,,0,,,60,80
140868,note_on,0,0,1,,,,,,,,0,,,75,0
140868,note_on,0,0,1,,,,,,,,0,,,63,0
140868,note_on,48,0,1,,,,,,,,0,,,67,0
140868,note_on,0,0,4,,,,,,,,0,,,55,0
140868,note_on,48,0,4,,,,,,,,0,,,60,0
140868,note_on,0,0,4,,,,,,,,0,,,51,0
140868,note_on,0,0,4,,,,,,,,0,,,48,0
140880,note_on,0,0,1,,,,,,,,0,,,63,80
140880,note_on,12,0,1,,,,,,,,0,,,67,80
140880,note_on,0,0,4,,,,,,,,0,,,51,80
140880,note_on,0,0,1,,,,,,,,0,,,75,80
140880,note_on,0,0,4,,,,,,,,0,,,55,80
140880,note_on,0,0,4,,,,,,,,0,,,60,80
140880,note_on,12,0,4,,,,,,,,0,,,48,80
140976,note_on,96,0,1,,,,,,,,0,,,75,0
140976,note_on,96,0,4,,,,,,,,0,,,55,0
140976,note_on,0,0,1,,,,,,,,0,,,67,0
140976,note_on,0,0,1,,,,,,,,0,,,63,0
140976,note_on,0,0,4,,,,,,,,0,,,48,0
140976,note_on,0,0,4,,,,,,,,0,,,51,0
140976,note_on,0,0,4,,,,,,,,0,,,60,0
141180,note_on,0,0,4,,,,,,,,0,,,51,80
141180,note_on,204,0,4,,,,,,,,0,,,48,80
141180,note_on,0,0,4,,,,,,,,0,,,60,80
141180,note_on,204,0,1,,,,,,,,0,,,67,80
141180,note_on,0,0,1,,,,,,,,0,,,63,80
141180,note_on,0,0,1,,,,,,,,0,,,72,80
141180,note_on,0,0,4,,,,,,,,0,,,55,80
141228,note_on,0,0,1,,,,,,,,0,,,72,0
141228,note_on,48,0,4,,,,,,,,0,,,60,0
141228,note_on,48,0,1,,,,,,,,0,,,63,0
141228,note_on,0,0,4,,,,,,,,0,,,48,0
141228,note_on,0,0,4,,,,,,,,0,,,51,0
141228,note_on,0,0,4,,,,,,,,0,,,55,0
141228,note_on,0,0,1,,,,,,,,0,,,67,0
141240,note_on,12,0,1,,,,,,,,0,,,67,80
141240,note_on,0,0,1,,,,,,,,0,,,72,80
141240,note_on,0,0,4,,,,,,,,0,,,48,80
141240,note_on,0,0,4,,,,,,,,0,,,51,80
141240,note_on,0,0,4,,,,,,,,0,,,55,80
141240,note_on,12,0,4,,,,,,,,0,,,60,80
141240,note_on,0,0,1,,,,,,,,0,,,63,80
141336,note_on,96,0,4,,,,,,,,0,,,48,0
141336,note_on,0,0,4,,,,,,,,0,,,55,0
141336,note_on,0,0,4,,,,,,,,0,,,51,0
141336,note_on,0,0,4,,,,,,,,0,,,60,0
141336,note_on,96,0,1,,,,,,,,0,,,63,0
141336,note_on,0,0,1,,,,,,,,0,,,72,0
141336,note_on,0,0,1,,,,,,,,0,,,67,0
141360,note_on,0,0,1,,,,,,,,0,,,62,80
141360,note_on,0,0,1,,,,,,,,0,,,68,80
141360,note_on,24,0,4,,,,,,,,0,,,59,80
141360,note_on,24,0,1,,,,,,,,0,,,71,80
141360,note_on,0,0,4,,,,,,,,0,,,56,80
141360,note_on,0,0,4,,,,,,,,0,,,53,80
141360,note_on,0,0,4,,,,,,,,0,,,48,80
141360,note_on,0,0,1,,,,,,,,0,,,65,80
141456,note_on,96,0,4,,,,,,,,0,,,48,0
141456,note_on,0,0,1,,,,,,,,0,,,62,0
141456,note_on,0,0,1,,,,,,,,0,,,65,0
141456,note_on,0,0,1,,,,,,,,0,,,71,0
141456,note_on,96,0,1,,,,,,,,0,,,68,0
141456,note_on,0,0,4,,,,,,,,0,,,53,0
141456,note_on,0,0,4,,,,,,,,0,,,56,0
141456,note_on,0,0,4,,,,,,,,0,,,59,0
141480,note_on,0,0,1,,,,,,,,0,,,67,80
141480,note_on,24,0,1,,,,,,,,0,,,72,80
141480,note_on,0,0,4,,,,,,,,0,,,48,80
141480,note_on,0,0,4,,,,,,,,0,,,51,80
141480,note_on,0,0,4,,,,,,,,0,,,60,80
141480,note_on,0,0,1,,,,,,,,0,,,63,80
141480,note_on,24,0,4,,,,,,,,0,,,55,80
141576,note_on,96,0,4,,,,,,,,0,,,51,0
141576,note_on,0,0,4,,,,,,,,0,,,48,0
141576,note_on,0,0,4,,,,,,,,0,,,55,0
141576,note_on,0,0,4,,,,,,,,0,,,60,0
141576,note_on,0,0,1,,,,,,,,0,,,63,0
141576,note_on,0,0,1,,,,,,,,0,,,72,0
141576,note_on,96,0,1,,,,,,,,0,,,67,0
141660,note_on,1506,0,3,,,,,,,,0,,,35,80
141665,control_change,89,0,4,,,,,,,,0,64,127,,
141690,note_on,1536,0,2,,,,,,,,0,,,47,80
141735,note_on,70,0,4,,,,,,,,0,,,38,88
141735,note_on,159,0,1,,,,,,,,0,,,50,88
141744,note_on,54,0,2,,,,,,,,0,,,47,0
141744,note_on,84,0,3,,,,,,,,0,,,35,0
141750,note_on,6,0,2,,,,,,,,0,,,51,56
141750,note_on,6,0,3,,,,,,,,0,,,39,56
141774,note_on,24,0,3,,,,,,,,0,,,39,0
141774,note_on,24,0,2,,,,,,,,0,,,51,0
141780,note_on,6,0,2,,,,,,,,0,,,53,56
141780,note_on,6,0,3,,,,,,,,0,,,41,56
141804,note_on,24,0,2,,,,,,,,0,,,53,0
141804,note_on,24,0,3,,,,,,,,0,,,41,0
141810,note_on,6,0,3,,,,,,,,0,,,43,56
141810,note_on,6,0,2,,,,,,,,0,,,55,56
141834,note_on,24,0,2,,,,,,,,0,,,55,0
141834,note_on,99,0,4,,,,,,,,0,,,38,0
141834,note_on,24,0,3,,,,,,,,0,,,43,0
141834,note_on,99,0,1,,,,,,,,0,,,50,0
141840,note_on,6,0,4,,,,,,,,0,,,44,88
141840,note_on,6,0,1,,,,,,,,0,,,56,88
141870,note_on,36,0,2,,,,,,,,0,,,50,56
141870,note_on,36,0,3,,,,,,,,0,,,38,56
141894,note_on,24,0,3,,,,,,,,0,,,38,0
141894,note_on,24,0,2,,,,,,,,0,,,50,0
141900,note_on,6,0,3,,,,,,,,0,,,39,56
141900,note_on,6,0,2,,,,,,,,0,,,51,56
141924,note_on,24,0,3,,,,,,,,0,,,39,0
141924,note_on,24,0,2,,,,,,,,0,,,51,0
141930,note_on,6,0,3,,,,,,,,0,,,41,56
141930,note_on,6,0,2,,,,,,,,0,,,53,56
141936,note_on,96,0,1,,,,,,,,0,,,56,0
141936,note_on,96,0,4,,,,,,,,0,,,44,0
141954,note_on,24,0,2,,,,,,,,0,,,53,0
141954,note_on,24,0,3,,,,,,,,0,,,41,0
141960,note_on,24,0,4,,,,,,,,0,,,43,88
141960,note_on,24,0,1,,,,,,,,0,,,55,88
141990,note_on,36,0,2,,,,,,,,0,,,56,56
141990,note_on,36,0,3,,,,,,,,0,,,44,56
142014,note_on,24,0,3,,,,,,,,0,,,44,0
142014,note_on,24,0,2,,,,,,,,0,,,56,0
142020,note_on,6,0,3,,,,,,,,0,,,38,56
142020,note_on,6,0,2,,,,,,,,0,,,50,56
142044,note_on,24,0,3,,,,,,,,0,,,38,0
142044,note_on,24,0,2,,,,,,,,0,,,50,0
142050,note_on,6,0,3,,,,,,,,0,,,39,56
142050,note_on,6,0,2,,,,,,,,0,,,51,56
142056,note_on,96,0,4,,,,,,,,0,,,43,0
142056,note_on,96,0,1,,,,,,,,0,,,55,0
142074,note_on,24,0,3,,,,,,,,0,,,39,0
142074,note_on,24,0,2,,,,,,,,0,,,51,0
142080,note_on,24,0,4,,,,,,,,0,,,41,88
142080,note_on,24,0,1,,,,,,,,0,,,53,88
142110,note_on,36,0,3,,,,,,,,0,,,43,56
142110,note_on,36,0,2,,,,,,,,0,,,55,56
142134,note_on,24,0,3,,,,,,,,0,,,43,0
142134,note_on,24,0,2,,,,,,,,0,,,55,0
142140,note_on,6,0,3,,,,,,,,0,,,44,56
142140,note_on,6,0,2,,,,,,,,0,,,56,56
142164,note_on,24,0,2,,,,,,,,0,,,56,0
142164,note_on,24,0,3,,,,,,,,0,,,44,0
142170,note_on,6,0,2,,,,,,,,0,,,50,56
142170,note_on,6,0,3,,,,,,,,0,,,38,56
142176,note_on,96,0,1,,,,,,,,0,,,53,0
142176,note_on,96,0,4,,,,,,,,0,,,41,0
142194,note_on,24,0,3,,,,,,,,0,,,38,0
142194,note_on,24,0,2,,,,,,,,0,,,50,0
142200,note_on,24,0,4,,,,,,,,0,,,39,88
142200,note_on,24,0,1,,,,,,,,0,,,51,88
142230,note_on,36,0,2,,,,,,,,0,,,53,56
142230,note_on,36,0,3,,,,,,,,0,,,41,56
142254,note_on,24,0,3,,,,,,,,0,,,41,0
142254,note_on,24,0,2,,,,,,,,0,,,53,0
142260,note_on,6,0,3,,,,,,,,0,,,43,56
142260,note_on,6,0,2,,,,,,,,0,,,55,56
142284,note_on,24,0,3,,,,,,,,0,,,43,0
142284,note_on,24,0,2,,,,,,,,0,,,55,0
142290,note_on,6,0,2,,,,,,,,0,,,56,56
142290,note_on,6,0,3,,,,,,,,0,,,44,56
142292,control_change,92,0,4,,,,,,,,0,64,0,,
142296,note_on,96,0,1,,,,,,,,0,,,51,0
142296,note_on,4,0,4,,,,,,,,0,,,39,0
142314,note_on,24,0,2,,,,,,,,0,,,56,0
142314,note_on,24,0,3,,,,,,,,0,,,44,0
142320,note_on,24,0,4,,,,,,,,0,,,38,88
142320,note_on,24,0,1,,,,,,,,0,,,50,88
142416,note_on,96,0,1,,,,,,,,0,,,50,0
142416,note_on,96,0,4,,,,,,,,0,,,38,0
142440,note_on,24,0,4,,,,,,,,0,,,56,80
142440,note_on,24,0,1,,,,,,,,0,,,86,80
142440,note_on,0,0,4,,,,,,,,0,,,47,80
142440,note_on,0,0,4,,,,,,,,0,,,53,80
142440,note_on,0,0,4,,,,,,,,0,,,62,80
142440,note_on,0,0,1,,,,,,,,0,,,77,80
142440,note_on,0,0,1,,,,,,,,0,,,74,80
142536,note_on,96,0,4,,,,,,,,0,,,62,0
142536,note_on,0,0,4,,,,,,,,0,,,47,0
142536,note_on,0,0,1,,,,,,,,0,,,77,0
142536,note_on,0,0,1,,,,,,,,0,,,86,0
142536,note_on,96,0,1,,,,,,,,0,,,74,0
142536,note_on,0,0,4,,,,,,,,0,,,53,0
142536,note_on,0,0,4,,,,,,,,0,,,56,0
142620,note_on,0,0,4,,,,,,,,0,,,62,80
142620,note_on,0,0,4,,,,,,,,0,,,53,80
142620,note_on,0,0,1,,,,,,,,0,,,74,80
142620,note_on,0,0,4,,,,,,,,0,,,47,80
142620,note_on,84,0,4,,,,,,,,0,,,56,80
142620,note_on,84,0,1,,,,,,,,0,,,68,80
142620,note_on,0,0,1,,,,,,,,0,,,80,80
142668,note_on,48,0,4,,,,,,,,0,,,47,0
142668,note_on,0,0,1,,,,,,,,0,,,68,0
142668,note_on,0,0,1,,,,,,,,0,,,80,0
142668,note_on,0,0,4,,,,,,,,0,,,56,0
142668,note_on,0,0,4,,,,,,,,0,,,53,0
142668,note_on,0,0,4,,,,,,,,0,,,62,0
142668,note_on,48,0,1,,,,,,,,0,,,74,0
142680,note_on,12,0,4,,,,,,,,0,,,53,80
142680,note_on,0,0,1,,,,,,,,0,,,68,80
142680,note_on,0,0,4,,,,,,,,0,,,47,80
142680,note_on,0,0,4,,,,,,,,0,,,56,80
142680,note_on,12,0,1,,,,,,,,0,,,80,80
142680,note_on,0,0,4,,,,,,,,0,,,62,80
142680,note_on,0,0,1,,,,,,,,0,,,74,80
142776,note_on,96,0,1,,,,,,,,0,,,68,0
142776,note_on,0,0,1,,,,,,,,0,,,74,0
142776,note_on,0,0,4,,,,,,,,0,,,53,0
142776,note_on,0,0,4,,,,,,,,0,,,56,0
142776,note_on,96,0,4,,,,,,,,0,,,47,0
142776,note_on,0,0,4,,,,,,,,0,,,62,0
142776,note_on,0,0,1,,,,,,,,0,,,80,0
142980,note_on,0,0,1,,,,,,,,0,,,77,80
142980,note_on,0,0,1,,,,,,,,0,,,65,80
142980,note_on,0,0,4,,,,,,,,0,,,56,80
142980,note_on,0,0,4,,,,,,,,0,,,53,80
142980,note_on,204,0,1,,,,,,,,0,,,68,80
142980,note_on,204,0,4,,,,,,,,0,,,47,80
142980,note_on,0,0,4,,,,,,,,0,,,62,80
143028,note_on,0,0,1,,,,,,,,0,,,68,0
143028,note_on,0,0,1,,,,,,,,0,,,65,0
143028,note_on,48,0,4,,,,,,,,0,,,53,0
143028,note_on,48,0,1,,,,,,,,0,,,77,0
143028,note_on,0,0,4,,,,,,,,0,,,47,0
143028,note_on,0,0,4,,,,,,,,0,,,62,0
143028,note_on,0,0,4,,,,,,,,0,,,56,0
143040,note_on,0,0,4,,,,,,,,0,,,47,80
143040,note_on,0,0,4,,,,,,,,0,,,56,80
143040,note_on,0,0,4,,,,,,,,0,,,62,80
143040,note_on,12,0,4,,,,,,,,0,,,53,80
143040,note_on,0,0,1,,,,,,,,0,,,68,80
143040,note_on,0,0,1,,,,,,,,0,,,77,80
143040,note_on,12,0,1,,,,,,,,0,,,65,80
143136,note_on,0,0,1,,,,,,,,0,,,68,0
143136,note_on,0,0,4,,,,,,,,0,,,62,0
143136,note_on,0,0,4,,,,,,,,0,,,53,0
143136,note_on,96,0,4,,,,,,,,0,,,56,0
143136,note_on,96,0,1,,,,,,,,0,,,77,0
143136,note_on,0,0,1,,,,,,,,0,,,65,0
143136,note_on,0,0,4,,,,,,,,0,,,47,0
143340,note_on,0,0,1,,,,,,,,0,,,74,80
143340,note_on,204,0,1,,,,,,,,0,,,65,80
143340,note_on,0,0,1,,,,,,,,0,,,68,80
143340,note_on,0,0,4,,,,,,,,0,,,56,80
143340,note_on,204,0,4,,,,,,,,0,,,62,80
143340,note_on,0,0,4,,,,,,,,0,,,47,80
143340,note_on,0,0,4,,,,,,,,0,,,53,80
143388,note_on,48,0,1,,,,,,,,0,,,74,0
143388,note_on,48,0,4,,,,,,,,0,,,47,0
143388,note_on,0,0,4,,,,,,,,0,,,62,0
143388,note_on,0,0,4,,,,,,,,0,,,56,0
143388,note_on,0,0,4,,,,,,,,0,,,53,0
143388,note_on,0,0,1,,,,,,,,0,,,68,0
143388,note_on,0,0,1,,,,,,,,0,,,65,0
143400,note_on,0,0,1,,,,,,,,0,,,68,80
143400,note_on,0,0,4,,,,,,,,0,,,53,80
143400,note_on,0,0,4,,,,,,,,0,,,56,80
143400,note_on,0,0,4,,,,,,,,0,,,62,80
143400,note_on,0,0,1,,,,,,,,0,,,65,80
143400,note_on,12,0,1,,,,,,,,0,,,74,80
143400,note_on,12,0,4,,,,,,,,0,,,47,80
143496,note_on,0,0,1,,,,,,,,0,,,74,0
143496,note_on,0,0,1,,,,,,,,0,,,68,0
143496,note_on,0,0,4,,,,,,,,0,,,47,0
143496,note_on,0,0,4,,,,,,,,0,,,53,0
143496,note_on,0,0,4,,,,,,,,0,,,56,0
143496,note_on,96,0,4,,,,,,,,0,,,62,0
143496,note_on,96,0,1,,,,,,,,0,,,65,0
143520,note_on,0,0,1,,,,,,,,0,,,64,80
143520,note_on,0,0,4,,,,,,,,0,,,61,80
143520,note_on,24,0,1,,,,,,,,0,,,67,80
143520,note_on,0,0,4,,,,,,,,0,,,47,80
143520,note_on,0,0,1,,,,,,,,0,,,73,80
143520,note_on,24,0,4,,,,,,,,0,,,52,80
143520,note_on,0,0,4,,,,,,,,0,,,55,80
143616,note_on,0,0,1,,,,,,,,0,,,67,0
143616,note_on,0,0,1,,,,,,,,0,,,73,0
143616,note_on,96,0,4,,,,,,,,0,,,55,0
143616,note_on,0,0,4,,,,,,,,0,,,61,0
143616,note_on,0,0,4,,,,,,,,0,,,47,0
143616,note_on,96,0,1,,,,,,,,0,,,64,0
143616,note_on,0,0,4,,,,,,,,0,,,52,0
143640,note_on,0,0,4,,,,,,,,0,,,62,80
143640,note_on,0,0,1,,,,,,,,0,,,74,80
143640,note_on,0,0,4,,,,,,,,0,,,53,80
143640,note_on,0,0,4,,,,,,,,0,,,47,80
143640,note_on,24,0,4,,,,,,,,0,,,56,80
143640,note_on,0,0,1,,,,,,,,0,,,65,80
143640,note_on,24,0,1,,,,,,,,0,,,68,80
143736,note_on,0,0,4,,,,,,,,0,,,62,0
143736,note_on,0,0,4,,,,,,,,0,,,56,0
143736,note_on,0,0,4,,,,,,,,0,,,47,0
143736,note_on,96,0,4,,,,,,,,0,,,53,0
143736,note_on,0,0,1,,,,,,,,0,,,68,0
143736,note_on,0,0,1,,,,,,,,0,,,65,0
143736,note_on,96,0,1,,,,,,,,0,,,74,0
143998,control_change,262,0,4,,,,,,,,0,64,127,,
144000,note_on,0,0,4,,,,,,,,0,,,36,80
144000,note_on,2,0,4,,,,,,,,0,,,43,80
144000,note_on,264,0,1,,,,,,,,0,,,67,80
144000,note_on,0,0,4,,,,,,,,0,,,48,80
144000,note_on,0,0,1,,,,,,,,0,,,63,80
144000,note_on,0,0,1,,,,,,,,0,,,75,80
144096,note_on,96,0,1,,,,,,,,0,,,75,0
144096,note_on,0,0,1,,,,,,,,0,,,63,0
144096,note_on,0,0,1,,,,,,,,0,,,67,0
144096,note_on,96,0,4,,,,,,,,0,,,48,0
144096,note_on,0,0,4,,,,,,,,0,,,43,0
144096,note_on,0,0,4,,,,,,,,0,,,36,0
144120,note_on,1806,0,2,,,,,,,,0,,,60,80
144120,note_on,1806,0,3,,,,,,,,0,,,48,80
144144,note_on,24,0,2,,,,,,,,0,,,60,0
144144,note_on,24,0,3,,,,,,,,0,,,48,0
144150,note_on,6,0,2,,,,,,,,0,,,62,80
144150,note_on,6,0,3,,,,,,,,0,,,50,80
144174,note_on,24,0,3,,,,,,,,0,,,50,0
144174,note_on,24,0,2,,,,,,,,0,,,62,0
144180,note_on,6,0,3,,,,,,,,0,,,51,80
144180,note_on,6,0,2,,,,,,,,0,,,63,80
144204,note_on,24,0,2,,,,,,,,0,,,63,0
144204,note_on,24,0,3,,,,,,,,0,,,51,0
144210,note_on,6,0,3,,,,,,,,0,,,53,80
144210,note_on,6,0,2,,,,,,,,0,,,65,80
144234,note_on,24,0,2,,,,,,,,0,,,65,0
144234,note_on,24,0,3,,,,,,,,0,,,53,0
144240,note_on,6,0,3,,,,,,,,0,,,55,80
144240,note_on,6,0,2,,,,,,,,0,,,67,80
144336,note_on,96,0,2,,,,,,,,0,,,67,0
144336,note_on,96,0,3,,,,,,,,0,,,55,0
144358,control_change,262,0,4,,,,,,,,0,64,0,,
144360,note_on,2,0,4,,,,,,,,0,,,41,80
144360,note_on,0,0,1,,,,,,,,0,,,72,80
144360,note_on,0,0,4,,,,,,,,0,,,32,80
144360,note_on,0,0,4,,,,,,,,0,,,44,80
144360,note_on,0,0,1,,,,,,,,0,,,77,80
144360,note_on,264,0,1,,,,,,,,0,,,65,80
144456,note_on,0,0,4,,,,,,,,0,,,41,0
144456,note_on,96,0,1,,,,,,,,0,,,77,0
144456,note_on,0,0,4,,,,,,,,0,,,44,0
144456,note_on,96,0,4,,,,,,,,0,,,32,0
144456,note_on,0,0,1,,,,,,,,0,,,65,0
144456,note_on,0,0,1,,,,,,,,0,,,72,0
144480,note_on,24,0,4,,,,,,,,0,,,32,80
144480,note_on,24,0,1,,,,,,,,0,,,84,80
144480,note_on,0,0,1,,,,,,,,0,,,75,80
144480,note_on,0,0,1,,,,,,,,0,,,72,80
144480,note_on,0,0,4,,,,,,,,0,,,41,80
144480,note_on,0,0,4,,,,,,,,0,,,44,80
144576,note_on,0,0,4,,,,,,,,0,,,32,0
144576,note_on,0,0,4,,,,,,,,0,,,41,0
144576,note_on,96,0,1,,,,,,,,0,,,72,0
144576,note_on,0,0,1,,,,,,,,0,,,75,0
144576,note_on,0,0,1,,,,,,,,0,,,84,0
144576,note_on,96,0,4,,,,,,,,0,,,44,0
144600,note_on,0,0,4,,,,,,,,0,,,34,80
144600,note_on,0,0,4,,,,,,,,0,,,46,80
144600,note_on,0,0,1,,,,,,,,0,,,74,80
144600,note_on,0,0,1,,,,,,,,0,,,72,80
144600,note_on,24,0,1,,,,,,,,0,,,84,80
144600,note_on,24,0,4,,,,,,,,0,,,41,80
144600,control_change,0,0,4,,,,,,,,0,64,127,,
144696,note_on,0,0,1,,,,,,,,0,,,84,0
144696,note_on,96,0,1,,,,,,,,0,,,74,0
144696,note_on,96,0,4,,,,,,,,0,,,46,0
144696,note_on,0,0,4,,,,,,,,0,,,34,0
144696,note_on,0,0,4,,,,,,,,0,,,41,0
144696,note_on,0,0,1,,,,,,,,0,,,72,0
144720,note_on,384,0,3,,,,,,,,0,,,53,80
144720,note_on,384,0,2,,,,,,,,0,,,65,80
144744,note_on,24,0,3,,,,,,,,0,,,53,0
144744,note_on,24,0,2,,,,,,,,0,,,65,0
144750,note_on,6,0,3,,,,,,,,0,,,51,80
144750,note_on,6,0,2,,,,,,,,0,,,63,80
144774,note_on,24,0,3,,,,,,,,0,,,51,0
144774,note_on,24,0,2,,,,,,,,0,,,63,0
144780,note_on,6,0,3,,,,,,,,0,,,50,80
144780,note_on,6,0,2,,,,,,,,0,,,62,80
144804,note_on,24,0,2,,,,,,,,0,,,62,0
144804,note_on,24,0,3,,,,,,,,0,,,50,0
144810,note_on,6,0,3,,,,,,,,0,,,48,80
144810,note_on,6,0,2,,,,,,,,0,,,60,80
144834,note_on,24,0,3,,,,,,,,0,,,48,0
144834,note_on,24,0,2,,,,,,,,0,,,60,0
144840,note_on,6,0,3,,,,,,,,0,,,46,80
144840,note_on,6,0,2,,,,,,,,0,,,58,80
144936,note_on,96,0,3,,,,,,,,0,,,46,0
144936,note_on,96,0,2,,,,,,,,0,,,58,0
144960,note_on,0,0,1,,,,,,,,0,,,82,80
144960,note_on,264,0,1,,,,,,,,0,,,74,80
144960,note_on,0,0,4,,,,,,,,0,,,39,80
144960,note_on,264,0,4,,,,,,,,0,,,43,80
144960,note_on,0,0,1,,,,,,,,0,,,70,80
144960,note_on,0,0,4,,,,,,,,0,,,31,80
144967,control_change,7,0,4,,,,,,,,0,64,0,,
145056,note_on,96,0,1,,,,,,,,0,,,82,0
145056,note_on,0,0,4,,,,,,,,0,,,31,0
145056,note_on,0,0,4,,,,,,,,0,,,43,0
145056,note_on,0,0,1,,,,,,,,0,,,70,0
145056,note_on,0,0,1,,,,,,,,0,,,74,0
145056,note_on,89,0,4,,,,,,,,0,,,39,0
145080,note_on,0,0,1,,,,,,,,0,,,75,80
145080,note_on,0,0,1,,,,,,,,0,,,86,80
145080,note_on,0,0,1,,,,,,,,0,,,87,80
145080,note_on,24,0,1,,,,,,,,0,,,82,80
145080,note_on,0,0,4,,,,,,,,0,,,43,80
145080,note_on,0,0,4,,,,,,,,0,,,31,80
145080,note_on,24,0,4,,,,,,,,0,,,39,80
145176,note_on,96,0,1,,,,,,,,0,,,86,0
145176,note_on,0,0,1,,,,,,,,0,,,82,0
145176,note_on,0,0,4,,,,,,,,0,,,39,0
145176,note_on,0,0,4,,,,,,,,0,,,43,0
145176,note_on,0,0,1,,,,,,,,0,,,87,0
145176,note_on,0,0,1,,,,,,,,0,,,75,0
145176,note_on,96,0,4,,,,,,,,0,,,31,0
145193,control_change,17,0,4,,,,,,,,0,64,127,,
145200,note_on,0,0,4,,,,,,,,0,,,39,80
145200,note_on,0,0,4,,,,,,,,0,,,44,80
145200,note_on,7,0,4,,,,,,,,0,,,32,80
145200,note_on,0,0,1,,,,,,,,0,,,84,80
145200,note_on,0,0,1,,,,,,,,0,,,75,80
145200,note_on,24,0,1,,,,,,,,0,,,80,80
145200,note_on,0,0,1,,,,,,,,0,,,87,80
145296,note_on,96,0,1,,,,,,,,0,,,87,0
145296,note_on,0,0,4,,,,,,,,0,,,32,0
145296,note_on,0,0,4,,,,,,,,0,,,39,0
145296,note_on,0,0,1,,,,,,,,0,,,75,0
145296,note_on,0,0,1,,,,,,,,0,,,80,0
145296,note_on,0,0,1,,,,,,,,0,,,84,0
145296,note_on,96,0,4,,,,,,,,0,,,44,0
145320,note_on,384,0,2,,,,,,,,0,,,56,80
145320,note_on,384,0,3,,,,,,,,0,,,44,80
145344,note_on,24,0,3,,,,,,,,0,,,44,0
145344,note_on,24,0,2,,,,,,,,0,,,56,0
145350,note_on,6,0,2,,,,,,,,0,,,58,80
145350,note_on,6,0,3,,,,,,,,0,,,46,80
145374,note_on,24,0,3,,,,,,,,0,,,46,0
145374,note_on,24,0,2,,,,,,,,0,,,58,0
145380,note_on,6,0,3,,,,,,,,0,,,48,80
145380,note_on,6,0,2,,,,,,,,0,,,60,80
145404,note_on,24,0,3,,,,,,,,0,,,48,0
145404,note_on,24,0,2,,,,,,,,0,,,60,0
145410,note_on,6,0,3,,,,,,,,0,,,50,80
145410,note_on,6,0,2,,,,,,,,0,,,62,80
145434,note_on,24,0,2,,,,,,,,0,,,62,0
145434,note_on,24,0,3,,,,,,,,0,,,50,0
145440,note_on,6,0,3,,,,,,,,0,,,51,80
145440,note_on,6,0,2,,,,,,,,0,,,63,80
145536,note_on,96,0,3,,,,,,,,0,,,51,0
145536,note_on,96,0,2,,,,,,,,0,,,63,0
145560,note_on,0,0,1,,,,,,,,0,,,86,80
145560,note_on,0,0,1,,,,,,,,0,,,84,80
145560,note_on,0,0,1,,,,,,,,0,,,74,80
145560,note_on,264,0,1,,,,,,,,0,,,80,80
145560,note_on,264,0,4,,,,,,,,0,,,29,80
145560,note_on,0,0,4,,,,,,,,0,,,41,80
145560,note_on,0,0,4,,,,,,,,0,,,38,80
145565,control_change,5,0,4,,,,,,,,0,64,0,,
145656,note_on,0,0,4,,,,,,,,0,,,38,0
145656,note_on,96,0,1,,,,,,,,0,,,86,0
145656,note_on,0,0,4,,,,,,,,0,,,29,0
145656,note_on,0,0,1,,,,,,,,0,,,74,0
145656,note_on,0,0,1,,,,,,,,0,,,80,0
145656,note_on,0,0,1,,,,,,,,0,,,84,0
145656,note_on,91,0,4,,,,,,,,0,,,41,0
145680,note_on,0,0,4,,,,,,,,0,,,29,80
145680,note_on,0,0,4,,,,,,,,0,,,38,80
145680,note_on,24,0,1,,,,,,,,0,,,80,80
145680,note_on,0,0,1,,,,,,,,0,,,84,80
145680,note_on,0,0,1,,,,,,,,0,,,92,80
145680,note_on,24,0,4,,,,,,,,0,,,41,80
145776,note_on,0,0,4,,,,,,,,0,,,41,0
145776,note_on,96,0,1,,,,,,,,0,,,92,0
145776,note_on,0,0,1,,,,,,,,0,,,80,0
145776,note_on,0,0,1,,,,,,,,0,,,84,0
145776,note_on,96,0,4,,,,,,,,0,,,38,0
145776,note_on,0,0,4,,,,,,,,0,,,29,0
145795,control_change,19,0,4,,,,,,,,0,64,127,,
145800,note_on,24,0,1,,,,,,,,0,,,83,80
145800,note_on,0,0,1,,,,,,,,0,,,80,80
145800,note_on,0,0,1,,,,,,,,0,,,92,80
145800,note_on,5,0,4,,,,,,,,0,,,43,80
145800,note_on,0,0,4,,,,,,,,0,,,38,80
145800,note_on,0,0,4,,,,,,,,0,,,31,80
145896,note_on,0,0,1,,,,,,,,0,,,83,0
145896,note_on,0,0,4,,,,,,,,0,,,31,0
145896,note_on,96,0,1,,,,,,,,0,,,92,0
145896,note_on,0,0,1,,,,,,,,0,,,80,0
145896,note_on,96,0,4,,,,,,,,0,,,38,0
145896,note_on,0,0,4,,,,,,,,0,,,43,0
145920,note_on,384,0,3,,,,,,,,0,,,50,80
145920,note_on,384,0,2,,,,,,,,0,,,62,80
145944,note_on,24,0,3,,,,,,,,0,,,50,0
145944,note_on,24,0,2,,,,,,,,0,,,62,0
145950,note_on,6,0,2,,,,,,,,0,,,60,80
145950,note_on,6,0,3,,,,,,,,0,,,48,80
145974,note_on,24,0,2,,,,,,,,0,,,60,0
145974,note_on,24,0,3,,,,,,,,0,,,48,0
145980,note_on,6,0,2,,,,,,,,0,,,59,80
145980,note_on,6,0,3,,,,,,,,0,,,47,80
146004,note_on,24,0,2,,,,,,,,0,,,59,0
146004,note_on,24,0,3,,,,,,,,0,,,47,0
146010,note_on,6,0,2,,,,,,,,0,,,56,80
146010,note_on,6,0,3,,,,,,,,0,,,44,80
146034,note_on,24,0,2,,,,,,,,0,,,56,0
146034,note_on,24,0,3,,,,,,,,0,,,44,0
146040,note_on,6,0,3,,,,,,,,0,,,43,80
146040,note_on,6,0,2,,,,,,,,0,,,55,80
146136,note_on,96,0,2,,,,,,,,0,,,55,0
146136,note_on,96,0,3,,,,,,,,0,,,43,0
146158,control_change,262,0,4,,,,,,,,0,64,0,,
146160,note_on,0,0,1,,,,,,,,0,,,85,80
146160,note_on,0,0,1,,,,,,,,0,,,82,80
146160,note_on,0,0,1,,,,,,,,0,,,79,80
146160,note_on,264,0,1,,,,,,,,0,,,91,80
146160,note_on,2,0,4,,,,,,,,0,,,49,80
146160,note_on,0,0,4,,,,,,,,0,,,52,80
146160,note_on,0,0,4,,,,,,,,0,,,40,80
146256,note_on,0,0,1,,,,,,,,0,,,85,0
146256,note_on,0,0,1,,,,,,,,0,,,91,0
146256,note_on,0,0,1,,,,,,,,0,,,79,0
146256,note_on,96,0,1,,,,,,,,0,,,82,0
146256,note_on,0,0,4,,,,,,,,0,,,49,0
146256,note_on,96,0,4,,,,,,,,0,,,52,0
146256,note_on,0,0,4,,,,,,,,0,,,40,0
146280,note_on,0,0,1,,,,,,,,0,,,96,80
146280,note_on,0,0,1,,,,,,,,0,,,94,80
146280,note_on,0,0,1,,,,,,,,0,,,91,80
146280,note_on,0,0,4,,,,,,,,0,,,48,80
146280,note_on,0,0,4,,,,,,,,0,,,52,80
146280,note_on,24,0,4,,,,,,,,0,,,40,80
146280,note_on,24,0,1,,,,,,,,0,,,84,80
146376,note_on,0,0,4,,,,,,,,0,,,48,0
146376,note_on,96,0,1,,,,,,,,0,,,94,0
146376,note_on,0,0,1,,,,,,,,0,,,96,0
146376,note_on,96,0,4,,,,,,,,0,,,52,0
146376,note_on,0,0,1,,,,,,,,0,,,84,0
146376,note_on,0,0,4,,,,,,,,0,,,40,0
146376,note_on,0,0,1,,,,,,,,0,,,91,0
146398,control_change,22,0,4,,,,,,,,0,64,127,,
146400,note_on,0,0,4,,,,,,,,0,,,41,80
146400,note_on,2,0,4,,,,,,,,0,,,48,80
146400,note_on,0,0,4,,,,,,,,0,,,53,80
146400,note_on,0,0,1,,,,,,,,0,,,92,80
146400,note_on,0,0,1,,,,,,,,0,,,84,80
146400,note_on,24,0,1,,,,,,,,0,,,96,80
146496,note_on,96,0,4,,,,,,,,0,,,41,0
146496,note_on,0,0,4,,,,,,,,0,,,48,0
146496,note_on,0,0,4,,,,,,,,0,,,53,0
146496,note_on,0,0,1,,,,,,,,0,,,84,0
146496,note_on,96,0,1,,,,,,,,0,,,92,0
146496,note_on,0,0,1,,,,,,,,0,,,96,0
146520,note_on,384,0,2,,,,,,,,0,,,59,80
146520,note_on,384,0,3,,,,,,,,0,,,47,80
146544,note_on,24,0,2,,,,,,,,0,,,59,0
146544,note_on,24,0,3,,,,,,,,0,,,47,0
146550,note_on,6,0,2,,,,,,,,0,,,60,80
146550,note_on,6,0,3,,,,,,,,0,,,48,80
146574,note_on,24,0,2,,,,,,,,0,,,60,0
146574,note_on,24,0,3,,,,,,,,0,,,48,0
146580,note_on,6,0,2,,,,,,,,0,,,61,80
146580,note_on,6,0,3,,,,,,,,0,,,49,80
146604,note_on,24,0,2,,,,,,,,0,,,61,0
146604,note_on,24,0,3,,,,,,,,0,,,49,0
146610,note_on,6,0,3,,,,,,,,0,,,52,80
146610,note_on,6,0,2,,,,,,,,0,,,64,80
146634,note_on,24,0,2,,,,,,,,0,,,64,0
146634,note_on,24,0,3,,,,,,,,0,,,52,0
146640,note_on,6,0,2,,,,,,,,0,,,65,80
146640,note_on,6,0,3,,,,,,,,0,,,53,80
146736,note_on,96,0,2,,,,,,,,0,,,65,0
146736,note_on,96,0,3,,,,,,,,0,,,53,0
146760,control_change,264,0,4,,,,,,,,0,64,0,,
146760,note_on,0,0,4,,,,,,,,0,,,37,80
146760,note_on,0,0,1,,,,,,,,0,,,92,80
146760,note_on,0,0,1,,,,,,,,0,,,101,80
146760,note_on,264,0,1,,,,,,,,0,,,89,80
146760,note_on,0,0,4,,,,,,,,0,,,49,80
146760,note_on,0,0,4,,,,,,,,0,,,44,80
146776,control_change,16,0,4,,,,,,,,0,64,127,,
146856,note_on,80,0,4,,,,,,,,0,,,37,0
146856,note_on,0,0,1,,,,,,,,0,,,89,0
146856,note_on,0,0,4,,,,,,,,0,,,44,0
146856,note_on,96,0,1,,,,,,,,0,,,92,0
146856,note_on,0,0,1,,,,,,,,0,,,101,0
146856,note_on,0,0,4,,,,,,,,0,,,49,0
146880,note_on,144,0,3,,,,,,,,0,,,49,80
146880,note_on,144,0,2,,,,,,,,0,,,61,80
146904,note_on,24,0,3,,,,,,,,0,,,49,0
146904,note_on,24,0,2,,,,,,,,0,,,61,0
146910,note_on,6,0,3,,,,,,,,0,,,51,80
146910,note_on,6,0,2,,,,,,,,0,,,63,80
146934,note_on,24,0,2,,,,,,,,0,,,63,0
146934,note_on,24,0,3,,,,,,,,0,,,51,0
146940,note_on,6,0,3,,,,,,,,0,,,53,80
146940,note_on,6,0,2,,,,,,,,0,,,65,80
146964,note_on,24,0,3,,,,,,,,0,,,53,0
146964,note_on,24,0,2,,,,,,,,0,,,65,0
146970,note_on,6,0,3,,,,,,,,0,,,54,80
146970,note_on,6,0,2,,,,,,,,0,,,66,80
146994,note_on,24,0,2,,,,,,,,0,,,66,0
146994,note_on,24,0,3,,,,,,,,0,,,54,0
147000,note_on,6,0,2,,,,,,,,0,,,68,80
147000,note_on,6,0,3,,,,,,,,0,,,56,80
147096,note_on,96,0,3,,,,,,,,0,,,56,0
147096,note_on,96,0,2,,,,,,,,0,,,68,0
147120,note_on,0,0,2,,,,,,,,0,,,73,80
147120,note_on,24,0,2,,,,,,,,0,,,61,80
147144,note_on,24,0,2,,,,,,,,0,,,73,0
147144,note_on,0,0,2,,,,,,,,0,,,61,0
147150,note_on,6,0,2,,,,,,,,0,,,63,80
147150,note_on,0,0,2,,,,,,,,0,,,75,80
147174,note_on,24,0,2,,,,,,,,0,,,75,0
147174,note_on,0,0,2,,,,,,,,0,,,63,0
147180,note_on,6,0,2,,,,,,,,0,,,65,80
147180,note_on,0,0,2,,,,,,,,0,,,77,80
147204,note_on,0,0,2,,,,,,,,0,,,65,0
147204,note_on,24,0,2,,,,,,,,0,,,77,0
147210,note_on,0,0,2,,,,,,,,0,,,78,80
147210,note_on,6,0,2,,,,,,,,0,,,66,80
147234,note_on,24,0,2,,,,,,,,0,,,78,0
147234,note_on,0,0,2,,,,,,,,0,,,66,0
147240,note_on,6,0,2,,,,,,,,0,,,68,80
147240,note_on,0,0,2,,,,,,,,0,,,80,80
147336,note_on,0,0,2,,,,,,,,0,,,68,0
147336,note_on,96,0,2,,,,,,,,0,,,80,0
147360,note_on,0,0,2,,,,,,,,0,,,85,80
147360,note_on,24,0,2,,,,,,,,0,,,73,80
147384,note_on,0,0,2,,,,,,,,0,,,73,0
147384,note_on,24,0,2,,,,,,,,0,,,85,0
147390,note_on,6,0,2,,,,,,,,0,,,75,80
147390,note_on,0,0,2,,,,,,,,0,,,87,80
147414,note_on,0,0,2,,,,,,,,0,,,75,0
147414,note_on,24,0,2,,,,,,,,0,,,87,0
147420,note_on,0,0,2,,,,,,,,0,,,77,80
147420,note_on,6,0,2,,,,,,,,0,,,89,80
147444,note_on,0,0,2,,,,,,,,0,,,89,0
147444,note_on,24,0,2,,,,,,,,0,,,77,0
147450,note_on,0,0,2,,,,,,,,0,,,90,80
147450,note_on,6,0,2,,,,,,,,0,,,78,80
147474,note_on,0,0,2,,,,,,,,0,,,78,0
147474,note_on,24,0,2,,,,,,,,0,,,90,0
147480,note_on,6,0,2,,,,,,,,0,,,80,80
147480,note_on,0,0,2,,,,,,,,0,,,92,80
147480,control_change,624,0,4,,,,,,,,0,64,0,,
147529,control_change,49,0,4,,,,,,,,0,64,127,,
147576,note_on,0,0,2,,,,,,,,0,,,80,0
147576,note_on,96,0,2,,,,,,,,0,,,92,0
147660,note_on,131,0,4,,,,,,,,0,,,53,80
147660,note_on,0,0,4,,,,,,,,0,,,49,80
147660,note_on,804,0,1,,,,,,,,0,,,97,80
147660,note_on,0,0,4,,,,,,,,0,,,41,80
147660,note_on,0,0,1,,,,,,,,0,,,89,80
147660,note_on,0,0,1,,,,,,,,0,,,85,80
147708,note_on,0,0,4,,,,,,,,0,,,53,0
147708,note_on,0,0,1,,,,,,,,0,,,97,0
147708,note_on,48,0,4,,,,,,,,0,,,41,0
147708,note_on,48,0,1,,,,,,,,0,,,89,0
147708,note_on,0,0,1,,,,,,,,0,,,85,0
147708,note_on,0,0,4,,,,,,,,0,,,49,0
147720,note_on,12,0,4,,,,,,,,0,,,53,80
147720,note_on,12,0,1,,,,,,,,0,,,97,80
147720,note_on,0,0,1,,,,,,,,0,,,85,80
147720,note_on,0,0,1,,,,,,,,0,,,89,80
147720,note_on,0,0,4,,,,,,,,0,,,49,80
147720,note_on,0,0,4,,,,,,,,0,,,41,80
147816,note_on,96,0,1,,,,,,,,0,,,89,0
147816,note_on,0,0,4,,,,,,,,0,,,49,0
147816,note_on,0,0,1,,,,,,,,0,,,85,0
147816,note_on,96,0,4,,,,,,,,0,,,41,0
147816,note_on,0,0,4,,,,,,,,0,,,53,0
147816,note_on,0,0,1,,,,,,,,0,,,97,0
147840,note_on,0,0,1,,,,,,,,0,,,85,80
147840,note_on,0,0,1,,,,,,,,0,,,80,80
147840,note_on,0,0,4,,,,,,,,0,,,44,80
147840,note_on,24,0,1,,,,,,,,0,,,92,80
147840,note_on,0,0,4,,,,,,,,0,,,56,80
147840,note_on,24,0,4,,,,,,,,0,,,53,80
147936,note_on,96,0,1,,,,,,,,0,,,80,0
147936,note_on,96,0,4,,,,,,,,0,,,56,0
147936,note_on,0,0,4,,,,,,,,0,,,44,0
147936,note_on,0,0,4,,,,,,,,0,,,53,0
147936,note_on,0,0,1,,,,,,,,0,,,85,0
147936,note_on,0,0,1,,,,,,,,0,,,92,0
148020,note_on,0,0,4,,,,,,,,0,,,49,80
148020,note_on,0,0,4,,,,,,,,0,,,56,80
148020,note_on,84,0,1,,,,,,,,0,,,89,80
148020,note_on,0,0,1,,,,,,,,0,,,80,80
148020,note_on,0,0,1,,,,,,,,0,,,77,80
148020,note_on,84,0,4,,,,,,,,0,,,61,80
148068,note_on,0,0,1,,,,,,,,0,,,89,0
148068,note_on,0,0,4,,,,,,,,0,,,49,0
148068,note_on,0,0,4,,,,,,,,0,,,61,0
148068,note_on,48,0,4,,,,,,,,0,,,56,0
148068,note_on,48,0,1,,,,,,,,0,,,80,0
148068,note_on,0,0,1,,,,,,,,0,,,77,0
148080,note_on,0,0,4,,,,,,,,0,,,56,80
148080,note_on,12,0,1,,,,,,,,0,,,89,80
148080,note_on,0,0,4,,,,,,,,0,,,61,80
148080,note_on,12,0,4,,,,,,,,0,,,49,80
148080,note_on,0,0,1,,,,,,,,0,,,77,80
148080,note_on,0,0,1,,,,,,,,0,,,80,80
148176,note_on,0,0,4,,,,,,,,0,,,61,0
148176,note_on,96,0,1,,,,,,,,0,,,77,0
148176,note_on,0,0,4,,,,,,,,0,,,49,0
148176,note_on,0,0,1,,,,,,,,0,,,80,0
148176,note_on,96,0,4,,,,,,,,0,,,56,0
148176,note_on,0,0,1,,,,,,,,0,,,89,0
148200,control_change,24,0,4,,,,,,,,0,64,0,,
148320,note_on,0,0,1,,,,,,,,0,,,73,80
148320,note_on,0,0,1,,,,,,,,0,,,77,80
148320,control_change,0,0,4,,,,,,,,0,64,127,,
148320,note_on,144,0,1,,,,,,,,0,,,85,80
148320,note_on,0,0,1,,,,,,,,0,,,80,80
148320,note_on,120,0,4,,,,,,,,0,,,56,80
148320,note_on,0,0,4,,,,,,,,0,,,53,80
148320,note_on,0,0,4,,,,,,,,0,,,61,80
148320,note_on,0,0,4,,,,,,,,0,,,65,80
148368,note_on,48,0,1,,,,,,,,0,,,77,0
148368,note_on,48,0,4,,,,,,,,0,,,61,0
148368,note_on,0,0,4,,,,,,,,0,,,65,0
148368,note_on,0,0,1,,,,,,,,0,,,85,0
148368,note_on,0,0,4,,,,,,,,0,,,53,0
148368,note_on,0,0,4,,,,,,,,0,,,56,0
148368,note_on,0,0,1,,,,,,,,0,,,80,0
148368,note_on,0,0,1,,,,,,,,0,,,73,0
148380,note_on,0,0,1,,,,,,,,0,,,73,80
148380,note_on,0,0,1,,,,,,,,0,,,80,80
148380,note_on,12,0,4,,,,,,,,0,,,53,80
148380,note_on,12,0,1,,,,,,,,0,,,85,80
148380,note_on,0,0,1,,,,,,,,0,,,77,80
148380,note_on,0,0,4,,,,,,,,0,,,65,80
148380,note_on,0,0,4,,,,,,,,0,,,61,80
148380,note_on,0,0,4,,,,,,,,0,,,56,80
148476,note_on,0,0,4,,,,,,,,0,,,56,0
148476,note_on,0,0,4,,,,,,,,0,,,61,0
148476,note_on,0,0,4,,,,,,,,0,,,53,0
148476,note_on,0,0,1,,,,,,,,0,,,85,0
148476,note_on,0,0,1,,,,,,,,0,,,80,0
148476,note_on,0,0,1,,,,,,,,0,,,73,0
148476,note_on,96,0,1,,,,,,,,0,,,77,0
148476,note_on,96,0,4,,,,,,,,0,,,65,0
148500,note_on,0,0,1,,,,,,,,0,,,80,80
148500,note_on,0,0,1,,,,,,,,0,,,72,80
148500,note_on,0,0,1,,,,,,,,0,,,84,80
148500,note_on,24,0,4,,,,,,,,0,,,60,80
148500,note_on,0,0,4,,,,,,,,0,,,64,80
148500,note_on,0,0,4,,,,,,,,0,,,56,80
148500,note_on,0,0,4,,,,,,,,0,,,52,80
148500,note_on,24,0,1,,,,,,,,0,,,76,80
148596,note_on,0,0,4,,,,,,,,0,,,64,0
148596,note_on,0,0,4,,,,,,,,0,,,60,0
148596,note_on,0,0,4,,,,,,,,0,,,52,0
148596,note_on,0,0,1,,,,,,,,0,,,72,0
148596,note_on,0,0,1,,,,,,,,0,,,76,0
148596,note_on,0,0,1,,,,,,,,0,,,80,0
148596,note_on,96,0,4,,,,,,,,0,,,56,0
148596,note_on,96,0,1,,,,,,,,0,,,84,0
148620,note_on,24,0,1,,,,,,,,0,,,85,80
148620,note_on,0,0,4,,,,,,,,0,,,53,80
148620,note_on,0,0,1,,,,,,,,0,,,80,80
148620,note_on,24,0,4,,,,,,,,0,,,65,80
148620,note_on,0,0,4,,,,,,,,0,,,56,80
148620,note_on,0,0,4,,,,,,,,0,,,61,80
148620,note_on,0,0,1,,,,,,,,0,,,73,80
148620,note_on,0,0,1,,,,,,,,0,,,77,80
148716,note_on,96,0,4,,,,,,,,0,,,61,0
148716,note_on,0,0,1,,,,,,,,0,,,80,0
148716,note_on,0,0,1,,,,,,,,0,,,73,0
148716,note_on,0,0,1,,,,,,,,0,,,85,0
148716,note_on,0,0,4,,,,,,,,0,,,65,0
148716,note_on,0,0,4,,,,,,,,0,,,56,0
148716,note_on,0,0,4,,,,,,,,0,,,53,0
148716,note_on,96,0,1,,,,,,,,0,,,77,0
148800,control_change,84,0,4,,,,,,,,0,64,0,,
148920,note_on,0,0,4,,,,,,,,0,,,56,80
148920,note_on,0,0,4,,,,,,,,0,,,53,80
148920,note_on,0,0,4,,,,,,,,0,,,50,80
148920,note_on,0,0,4,,,,,,,,0,,,47,80
148920,note_on,204,0,1,,,,,,,,0,,,80,80
148920,note_on,0,0,4,,,,,,,,0,,,59,80
148920,control_change,120,0,4,,,,,,,,0,64,127,,
148920,note_on,0,0,1,,,,,,,,0,,,86,80
148920,note_on,0,0,1,,,,,,,,0,,,77,80
148920,note_on,0,0,1,,,,,,,,0,,,89,80
149016,note_on,0,0,1,,,,,,,,0,,,89,0
149016,note_on,0,0,1,,,,,,,,0,,,80,0
149016,note_on,0,0,1,,,,,,,,0,,,77,0
149016,note_on,96,0,1,,,,,,,,0,,,86,0
149016,note_on,0,0,4,,,,,,,,0,,,50,0
149016,note_on,0,0,4,,,,,,,,0,,,53,0
149016,note_on,0,0,4,,,,,,,,0,,,56,0
149016,note_on,96,0,4,,,,,,,,0,,,47,0
149016,note_on,0,0,4,,,,,,,,0,,,59,0
149100,note_on,84,0,4,,,,,,,,0,,,49,80
149100,note_on,84,0,1,,,,,,,,0,,,85,80
149100,note_on,0,0,4,,,,,,,,0,,,61,80
149100,note_on,0,0,1,,,,,,,,0,,,73,80
149148,note_on,48,0,4,,,,,,,,0,,,61,0
149148,note_on,0,0,1,,,,,,,,0,,,85,0
149148,note_on,0,0,4,,,,,,,,0,,,49,0
149148,note_on,48,0,1,,,,,,,,0,,,73,0
149160,note_on,0,0,1,,,,,,,,0,,,86,80
149160,note_on,12,0,4,,,,,,,,0,,,50,80
149160,note_on,0,0,4,,,,,,,,0,,,62,80
149160,note_on,12,0,1,,,,,,,,0,,,74,80
149256,note_on,0,0,1,,,,,,,,0,,,74,0
149256,note_on,0,0,4,,,,,,,,0,,,50,0
149256,note_on,96,0,1,,,,,,,,0,,,86,0
149256,note_on,96,0,4,,,,,,,,0,,,62,0
149280,note_on,24,0,4,,,,,,,,0,,,51,80
149280,note_on,24,0,1,,,,,,,,0,,,81,80
149280,note_on,0,0,4,,,,,,,,0,,,54,80
149280,note_on,0,0,1,,,,,,,,0,,,75,80
149280,note_on,0,0,1,,,,,,,,0,,,87,80
149280,note_on,0,0,4,,,,,,,,0,,,63,80
149280,note_on,0,0,4,,,,,,,,0,,,60,80
149280,note_on,0,0,1,,,,,,,,0,,,78,80
149376,note_on,0,0,1,,,,,,,,0,,,78,0
149376,note_on,0,0,1,,,,,,,,0,,,75,0
149376,note_on,0,0,4,,,,,,,,0,,,60,0
149376,note_on,0,0,4,,,,,,,,0,,,54,0
149376,note_on,96,0,1,,,,,,,,0,,,87,0
149376,note_on,96,0,4,,,,,,,,0,,,63,0
149376,note_on,0,0,4,,,,,,,,0,,,51,0
149376,note_on,0,0,1,,,,,,,,0,,,81,0
149460,note_on,84,0,1,,,,,,,,0,,,71,80
149460,note_on,0,0,4,,,,,,,,0,,,59,80
149460,note_on,84,0,4,,,,,,,,0,,,47,80
149460,note_on,0,0,1,,,,,,,,0,,,83,80
149508,note_on,0,0,4,,,,,,,,0,,,47,0
149508,note_on,48,0,1,,,,,,,,0,,,83,0
149508,note_on,0,0,1,,,,,,,,0,,,71,0
149508,note_on,48,0,4,,,,,,,,0,,,59,0
149520,note_on,0,0,1,,,,,,,,0,,,84,80
149520,note_on,12,0,4,,,,,,,,0,,,48,80
149520,note_on,0,0,4,,,,,,,,0,,,60,80
149520,note_on,12,0,1,,,,,,,,0,,,72,80
149616,note_on,96,0,4,,,,,,,,0,,,60,0
149616,note_on,96,0,1,,,,,,,,0,,,84,0
149616,note_on,0,0,1,,,,,,,,0,,,72,0
149616,note_on,0,0,4,,,,,,,,0,,,48,0
149640,note_on,24,0,1,,,,,,,,0,,,91,80
149640,note_on,0,0,1,,,,,,,,0,,,79,80
149640,note_on,0,0,1,,,,,,,,0,,,83,80
149640,note_on,0,0,4,,,,,,,,0,,,67,80
149640,note_on,0,0,4,,,,,,,,0,,,62,80
149640,note_on,0,0,4,,,,,,,,0,,,59,80
149640,note_on,0,0,4,,,,,,,,0,,,55,80
149640,control_change,24,0,4,,,,,,,,0,64,0,,
149736,note_on,0,0,1,,,,,,,,0,,,83,0
149736,note_on,0,0,1,,,,,,,,0,,,91,0
149736,note_on,96,0,4,,,,,,,,0,,,55,0
149736,note_on,96,0,1,,,,,,,,0,,,79,0
149736,note_on,0,0,4,,,,,,,,0,,,67,0
149736,note_on,0,0,4,,,,,,,,0,,,62,0
149736,note_on,0,0,4,,,,,,,,0,,,59,0
149753,control_change,17,0,4,,,,,,,,0,64,127,,
149760,note_on,7,0,4,,,,,,,,0,,,50,96
149760,note_on,0,0,4,,,,,,,,0,,,38,96
149790,note_on,2694,0,3,,,,,,,,0,,,31,64
149790,note_on,0,0,3,,,,,,,,0,,,43,64
149814,note_on,0,0,3,,,,,,,,0,,,31,0
149814,note_on,24,0,3,,,,,,,,0,,,43,0
149820,note_on,6,0,3,,,,,,,,0,,,33,64
149820,note_on,0,0,3,,,,,,,,0,,,45,64
149844,note_on,24,0,3,,,,,,,,0,,,45,0
149844,note_on,0,0,3,,,,,,,,0,,,33,0
149850,note_on,6,0,3,,,,,,,,0,,,47,64
149850,note_on,0,0,3,,,,,,,,0,,,35,64
149856,note_on,0,0,4,,,,,,,,0,,,50,0
149856,note_on,96,0,4,,,,,,,,0,,,38,0
149874,note_on,24,0,3,,,,,,,,0,,,35,0
149874,note_on,0,0,3,,,,,,,,0,,,47,0
149880,note_on,24,0,4,,,,,,,,0,,,36,96
149880,note_on,0,0,4,,,,,,,,0,,,48,96
149910,note_on,36,0,3,,,,,,,,0,,,50,64
149910,note_on,0,0,3,,,,,,,,0,,,38,64
149934,note_on,0,0,3,,,,,,,,0,,,50,0
149934,note_on,24,0,3,,,,,,,,0,,,38,0
149940,note_on,6,0,3,,,,,,,,0,,,31,64
149940,note_on,0,0,3,,,,,,,,0,,,43,64
149964,note_on,24,0,3,,,,,,,,0,,,43,0
149964,note_on,0,0,3,,,,,,,,0,,,31,0
149970,note_on,0,0,3,,,,,,,,0,,,33,64
149970,note_on,6,0,3,,,,,,,,0,,,45,64
149976,note_on,96,0,4,,,,,,,,0,,,48,0
149976,note_on,0,0,4,,,,,,,,0,,,36,0
149994,note_on,24,0,3,,,,,,,,0,,,33,0
149994,note_on,0,0,3,,,,,,,,0,,,45,0
150000,note_on,24,0,4,,,,,,,,0,,,35,96
150000,note_on,0,0,4,,,,,,,,0,,,47,96
150030,note_on,36,0,3,,,,,,,,0,,,36,64
150030,note_on,0,0,3,,,,,,,,0,,,48,64
150054,note_on,24,0,3,,,,,,,,0,,,48,0
150054,note_on,0,0,3,,,,,,,,0,,,36,0
150060,note_on,0,0,3,,,,,,,,0,,,38,64
150060,note_on,6,0,3,,,,,,,,0,,,50,64
150084,note_on,0,0,3,,,,,,,,0,,,50,0
150084,note_on,24,0,3,,,,,,,,0,,,38,0
150090,note_on,0,0,3,,,,,,,,0,,,43,64
150090,note_on,6,0,3,,,,,,,,0,,,31,64
150096,note_on,96,0,4,,,,,,,,0,,,47,0
150096,note_on,0,0,4,,,,,,,,0,,,35,0
150114,note_on,24,0,3,,,,,,,,0,,,43,0
150114,note_on,0,0,3,,,,,,,,0,,,31,0
150120,note_on,0,0,4,,,,,,,,0,,,44,96
150120,note_on,24,0,4,,,,,,,,0,,,32,96
150150,note_on,36,0,3,,,,,,,,0,,,35,64
150150,note_on,0,0,3,,,,,,,,0,,,47,64
150174,note_on,24,0,3,,,,,,,,0,,,47,0
150174,note_on,0,0,3,,,,,,,,0,,,35,0
150180,note_on,6,0,3,,,,,,,,0,,,48,64
150180,note_on,0,0,3,,,,,,,,0,,,36,64
150204,note_on,0,0,3,,,,,,,,0,,,48,0
150204,note_on,24,0,3,,,,,,,,0,,,36,0
150210,control_change,90,0,4,,,,,,,,0,64,0,,
150210,note_on,0,0,3,,,,,,,,0,,,50,64
150210,note_on,6,0,3,,,,,,,,0,,,38,64
150216,note_on,6,0,4,,,,,,,,0,,,44,0
150216,note_on,0,0,4,,,,,,,,0,,,32,0
150234,note_on,24,0,3,,,,,,,,0,,,50,0
150234,note_on,0,0,3,,,,,,,,0,,,38,0
150240,note_on,0,0,4,,,,,,,,0,,,43,96
150240,note_on,24,0,4,,,,,,,,0,,,31,96
150336,note_on,0,0,4,,,,,,,,0,,,31,0
150336,note_on,96,0,4,,,,,,,,0,,,43,0
150360,note_on,0,0,4,,,,,,,,0,,,45,80
150360,note_on,0,0,4,,,,,,,,0,,,54,80
150360,note_on,0,0,4,,,,,,,,0,,,43,80
150360,note_on,0,0,4,,,,,,,,0,,,51,80
150360,note_on,0,0,1,,,,,,,,0,,,78,80
150360,control_change,24,0,4,,,,,,,,0,64,127,,
150360,note_on,624,0,1,,,,,,,,0,,,87,80
150360,note_on,0,0,1,,,,,,,,0,,,75,80
150360,note_on,0,0,4,,,,,,,,0,,,48,80
150456,note_on,0,0,4,,,,,,,,0,,,45,0
150456,note_on,0,0,4,,,,,,,,0,,,51,0
150456,note_on,0,0,4,,,,,,,,0,,,54,0
150456,note_on,0,0,4,,,,,,,,0,,,43,0
150456,note_on,96,0,1,,,,,,,,0,,,75,0
150456,note_on,96,0,4,,,,,,,,0,,,48,0
150456,note_on,0,0,1,,,,,,,,0,,,87,0
150456,note_on,0,0,1,,,,,,,,0,,,78,0
150540,note_on,0,0,1,,,,,,,,0,,,84,80
150540,note_on,0,0,1,,,,,,,,0,,,72,80
150540,note_on,84,0,1,,,,,,,,0,,,75,80
150540,note_on,0,0,4,,,,,,,,0,,,51,80
150540,note_on,0,0,4,,,,,,,,0,,,54,80
150540,note_on,0,0,4,,,,,,,,0,,,48,80
150540,note_on,84,0,4,,,,,,,,0,,,43,80
150540,note_on,0,0,4,,,,,,,,0,,,45,80
150588,note_on,48,0,1,,,,,,,,0,,,72,0
150588,note_on,0,0,1,,,,,,,,0,,,75,0
150588,note_on,0,0,1,,,,,,,,0,,,84,0
150588,note_on,48,0,4,,,,,,,,0,,,54,0
150588,note_on,0,0,4,,,,,,,,0,,,51,0
150588,note_on,0,0,4,,,,,,,,0,,,43,0
150588,note_on,0,0,4,,,,,,,,0,,,45,0
150588,note_on,0,0,4,,,,,,,,0,,,48,0
150600,note_on,0,0,4,,,,,,,,0,,,45,80
150600,note_on,0,0,4,,,,,,,,0,,,51,80
150600,note_on,12,0,4,,,,,,,,0,,,48,80
150600,note_on,0,0,4,,,,,,,,0,,,54,80
150600,note_on,12,0,1,,,,,,,,0,,,84,80
150600,note_on,0,0,1,,,,,,,,0,,,72,80
150600,note_on,0,0,1,,,,,,,,0,,,75,80
150600,note_on,0,0,4,,,,,,,,0,,,43,80
150640,control_change,40,0,4,,,,,,,,0,64,0,,
150696,note_on,0,0,1,,,,,,,,0,,,84,0
150696,note_on,56,0,4,,,,,,,,0,,,43,0
150696,note_on,96,0,1,,,,,,,,0,,,75,0
150696,note_on,0,0,4,,,,,,,,0,,,54,0
150696,note_on,0,0,4,,,,,,,,0,,,51,0
150696,note_on,0,0,4,,,,,,,,0,,,48,0
150696,note_on,0,0,4,,,,,,,,0,,,45,0
150696,note_on,0,0,1,,,,,,,,0,,,72,0
150772,control_change,76,0,4,,,,,,,,0,64,127,,
150780,note_on,0,0,4,,,,,,,,0,,,45,80
150780,note_on,0,0,1,,,,,,,,0,,,69,80
150780,note_on,0,0,1,,,,,,,,0,,,81,80
150780,note_on,84,0,1,,,,,,,,0,,,72,80
150780,note_on,0,0,4,,,,,,,,0,,,43,80
150780,note_on,0,0,4,,,,,,,,0,,,48,80
150780,note_on,0,0,4,,,,,,,,0,,,54,80
150780,note_on,8,0,4,,,,,,,,0,,,51,80
150828,note_on,48,0,4,,,,,,,,0,,,48,0
150828,note_on,48,0,1,,,,,,,,0,,,81,0
150828,note_on,0,0,1,,,,,,,,0,,,72,0
150828,note_on,0,0,4,,,,,,,,0,,,43,0
150828,note_on,0,0,4,,,,,,,,0,,,45,0
150828,note_on,0,0,4,,,,,,,,0,,,51,0
150828,note_on,0,0,4,,,,,,,,0,,,54,0
150828,note_on,0,0,1,,,,,,,,0,,,69,0
150840,note_on,12,0,1,,,,,,,,0,,,81,80
150840,note_on,12,0,4,,,,,,,,0,,,48,80
150840,note_on,0,0,1,,,,,,,,0,,,69,80
150840,note_on,0,0,1,,,,,,,,0,,,72,80
150840,note_on,0,0,4,,,,,,,,0,,,43,80
150840,note_on,0,0,4,,,,,,,,0,,,45,80
150840,note_on,0,0,4,,,,,,,,0,,,51,80
150840,note_on,0,0,4,,,,,,,,0,,,54,80
150936,note_on,0,0,1,,,,,,,,0,,,72,0
150936,note_on,0,0,1,,,,,,,,0,,,81,0
150936,note_on,0,0,4,,,,,,,,0,,,43,0
150936,note_on,0,0,4,,,,,,,,0,,,51,0
150936,note_on,0,0,4,,,,,,,,0,,,54,0
150936,note_on,0,0,4,,,,,,,,0,,,48,0
150936,note_on,96,0,1,,,,,,,,0,,,69,0
150936,note_on,96,0,4,,,,,,,,0,,,45,0
151080,control_change,0,0,4,,,,,,,,0,64,0,,
151080,time_signature,11522,1,0,5,8,12,8,,,,,,,,
151080,note_on,144,0,1,,,,,,,,0,,,66,80
151080,note_on,144,0,4,,,,,,,,0,,,43,80
151080,note_on,0,0,4,,,,,,,,0,,,45,80
151080,note_on,0,0,4,,,,,,,,0,,,48,80
151080,note_on,0,0,4,,,,,,,,0,,,54,80
151080,note_on,0,0,4,,,,,,,,0,,,51,80
151080,note_on,0,0,1,,,,,,,,0,,,78,80
151111,control_change,31,0,4,,,,,,,,0,64,127,,
151128,note_on,17,0,4,,,,,,,,0,,,48,0
151128,note_on,0,0,4,,,,,,,,0,,,43,0
151128,note_on,0,0,4,,,,,,,,0,,,45,0
151128,note_on,0,0,4,,,,,,,,0,,,51,0
151128,note_on,0,0,4,,,,,,,,0,,,54,0
151128,note_on,0,0,1,,,,,,,,0,,,66,0
151128,note_on,48,0,1,,,,,,,,0,,,78,0
151140,note_on,0,0,4,,,,,,,,0,,,45,80
151140,note_on,0,0,4,,,,,,,,0,,,51,80
151140,note_on,0,0,4,,,,,,,,0,,,54,80
151140,note_on,12,0,1,,,,,,,,0,,,63,80
151140,note_on,0,0,1,,,,,,,,0,,,75,80
151140,note_on,12,0,4,,,,,,,,0,,,43,80
151140,note_on,0,0,4,,,,,,,,0,,,48,80
151188,note_on,48,0,4,,,,,,,,0,,,51,0
151188,note_on,0,0,1,,,,,,,,0,,,63,0
151188,note_on,0,0,4,,,,,,,,0,,,54,0
151188,note_on,48,0,1,,,,,,,,0,,,75,0
151188,note_on,0,0,4,,,,,,,,0,,,48,0
151188,note_on,0,0,4,,,,,,,,0,,,45,0
151188,note_on,0,0,4,,,,,,,,0,,,43,0
151200,note_on,0,0,1,,,,,,,,0,,,74,80
151200,note_on,12,0,1,,,,,,,,0,,,62,80
151200,note_on,0,0,4,,,,,,,,0,,,54,80
151200,note_on,12,0,4,,,,,,,,0,,,51,80
151200,note_on,0,0,4,,,,,,,,0,,,43,80
151200,note_on,0,0,4,,,,,,,,0,,,48,80
151200,note_on,0,0,4,,,,,,,,0,,,45,80
151248,note_on,0,0,1,,,,,,,,0,,,62,0
151248,note_on,0,0,4,,,,,,,,0,,,51,0
151248,note_on,48,0,4,,,,,,,,0,,,54,0
151248,note_on,0,0,4,,,,,,,,0,,,48,0
151248,note_on,48,0,1,,,,,,,,0,,,74,0
151248,note_on,0,0,4,,,,,,,,0,,,45,0
151248,note_on,0,0,4,,,,,,,,0,,,43,0
151260,note_on,12,0,4,,,,,,,,0,,,54,80
151260,note_on,0,0,4,,,,,,,,0,,,45,80
151260,note_on,12,0,1,,,,,,,,0,,,60,80
151260,note_on,0,0,4,,,,,,,,0,,,48,80
151260,note_on,0,0,1,,,,,,,,0,,,72,80
151260,note_on,0,0,4,,,,,,,,0,,,51,80
151260,note_on,0,0,4,,,,,,,,0,,,43,80
151308,note_on,48,0,4,,,,,,,,0,,,51,0
151308,note_on,0,0,1,,,,,,,,0,,,60,0
151308,note_on,0,0,4,,,,,,,,0,,,43,0
151308,note_on,0,0,4,,,,,,,,0,,,54,0
151308,note_on,0,0,4,,,,,,,,0,,,48,0
151308,note_on,0,0,4,,,,,,,,0,,,45,0
151308,note_on,48,0,1,,,,,,,,0,,,72,0
151320,note_on,12,0,4,,,,,,,,0,,,50,80
151320,note_on,0,0,1,,,,,,,,0,,,71,80
151320,note_on,0,0,1,,,,,,,,0,,,79,80
151320,note_on,0,0,4,,,,,,,,0,,,55,80
151320,note_on,0,0,4,,,,,,,,0,,,47,80
151320,note_on,0,0,4,,,,,,,,0,,,43,80
151320,note_on,12,0,1,,,,,,,,0,,,67,80
151328,control_change,8,0,4,,,,,,,,0,64,0,,
151416,note_on,0,0,1,,,,,,,,0,,,67,0
151416,note_on,88,0,4,,,,,,,,0,,,47,0
151416,note_on,0,0,1,,,,,,,,0,,,71,0
151416,note_on,96,0,1,,,,,,,,0,,,79,0
151416,note_on,0,0,4,,,,,,,,0,,,55,0
151416,note_on,0,0,4,,,,,,,,0,,,50,0
151416,note_on,0,0,4,,,,,,,,0,,,43,0
151432,control_change,16,0,4,,,,,,,,0,64,127,,
151440,note_on,8,0,4,,,,,,,,0,,,38,96
151440,note_on,0,0,4,,,,,,,,0,,,50,96
151470,note_on,1236,0,3,,,,,,,,0,,,31,64
151470,note_on,0,0,3,,,,,,,,0,,,43,64
151494,note_on,24,0,3,,,,,,,,0,,,43,0
151494,note_on,0,0,3,,,,,,,,0,,,31,0
151500,note_on,0,0,3,,,,,,,,0,,,45,64
151500,note_on,6,0,3,,,,,,,,0,,,33,64
151524,note_on,0,0,3,,,,,,,,0,,,33,0
151524,note_on,24,0,3,,,,,,,,0,,,45,0
151530,note_on,6,0,3,,,,,,,,0,,,47,64
151530,note_on,0,0,3,,,,,,,,0,,,35,64
151536,note_on,0,0,4,,,,,,,,0,,,38,0
151536,note_on,96,0,4,,,,,,,,0,,,50,0
151554,note_on,0,0,3,,,,,,,,0,,,47,0
151554,note_on,24,0,3,,,,,,,,0,,,35,0
151560,note_on,24,0,4,,,,,,,,0,,,48,96
151560,note_on,0,0,4,,,,,,,,0,,,36,96
151590,note_on,0,0,3,,,,,,,,0,,,38,64
151590,note_on,36,0,3,,,,,,,,0,,,50,64
151614,note_on,0,0,3,,,,,,,,0,,,50,0
151614,note_on,24,0,3,,,,,,,,0,,,38,0
151620,note_on,0,0,3,,,,,,,,0,,,43,64
151620,note_on,6,0,3,,,,,,,,0,,,31,64
151644,note_on,24,0,3,,,,,,,,0,,,43,0
151644,note_on,0,0,3,,,,,,,,0,,,31,0
151650,note_on,0,0,3,,,,,,,,0,,,33,64
151650,note_on,6,0,3,,,,,,,,0,,,45,64
151656,note_on,0,0,4,,,,,,,,0,,,48,0
151656,note_on,96,0,4,,,,,,,,0,,,36,0
151674,note_on,24,0,3,,,,,,,,0,,,33,0
151674,note_on,0,0,3,,,,,,,,0,,,45,0
151680,note_on,24,0,4,,,,,,,,0,,,35,96
151680,time_signature,600,1,0,6,8,12,8,,,,,,,,
151680,note_on,0,0,4,,,,,,,,0,,,47,96
151710,note_on,36,0,3,,,,,,,,0,,,36,64
151710,note_on,0,0,3,,,,,,,,0,,,48,64
151734,note_on,24,0,3,,,,,,,,0,,,48,0
151734,note_on,0,0,3,,,,,,,,0,,,36,0
151740,note_on,6,0,3,,,,,,,,0,,,50,64
151740,note_on,0,0,3,,,,,,,,0,,,38,64
151764,note_on,24,0,3,,,,,,,,0,,,38,0
151764,note_on,0,0,3,,,,,,,,0,,,50,0
151770,note_on,0,0,3,,,,,,,,0,,,31,64
151770,note_on,6,0,3,,,,,,,,0,,,43,64
151776,note_on,96,0,4,,,,,,,,0,,,47,0
151776,note_on,0,0,4,,,,,,,,0,,,35,0
151794,note_on,0,0,3,,,,,,,,0,,,43,0
151794,note_on,24,0,3,,,,,,,,0,,,31,0
151800,note_on,0,0,4,,,,,,,,0,,,44,96
151800,note_on,24,0,4,,,,,,,,0,,,32,96
151830,note_on,36,0,3,,,,,,,,0,,,47,64
151830,note_on,0,0,3,,,,,,,,0,,,35,64
151854,note_on,0,0,3,,,,,,,,0,,,47,0
151854,note_on,24,0,3,,,,,,,,0,,,35,0
151860,note_on,6,0,3,,,,,,,,0,,,36,64
151860,note_on,0,0,3,,,,,,,,0,,,48,64
151884,note_on,24,0,3,,,,,,,,0,,,48,0
151884,note_on,0,0,3,,,,,,,,0,,,36,0
151890,note_on,6,0,3,,,,,,,,0,,,38,64
151890,note_on,0,0,3,,,,,,,,0,,,50,64
151896,note_on,0,0,4,,,,,,,,0,,,32,0
151896,note_on,96,0,4,,,,,,,,0,,,44,0
151912,control_change,16,0,4,,,,,,,,0,64,0,,
151914,note_on,0,0,3,,,,,,,,0,,,38,0
151914,note_on,24,0,3,,,,,,,,0,,,50,0
151920,note_on,8,0,4,,,,,,,,0,,,43,96
151920,note_on,0,0,4,,,,,,,,0,,,31,96
152016,note_on,0,0,4,,,,,,,,0,,,43,0
152016,note_on,96,0,4,,,,,,,,0,,,31,0
152038,control_change,22,0,4,,,,,,,,0,64,127,,
152040,note_on,624,0,1,,,,,,,,0,,,75,80
152040,note_on,0,0,1,,,,,,,,0,,,78,80
152040,note_on,0,0,1,,,,,,,,0,,,87,80
152040,note_on,2,0,4,,,,,,,,0,,,54,80
152040,note_on,0,0,4,,,,,,,,0,,,43,80
152040,note_on,0,0,4,,,,,,,,0,,,45,80
152040,note_on,0,0,4,,,,,,,,0,,,48,80
152040,note_on,0,0,4,,,,,,,,0,,,51,80
152136,note_on,0,0,4,,,,,,,,0,,,54,0
152136,note_on,0,0,4,,,,,,,,0,,,51,0
152136,note_on,0,0,1,,,,,,,,0,,,78,0
152136,note_on,0,0,1,,,,,,,,0,,,75,0
152136,note_on,0,0,4,,,,,,,,0,,,43,0
152136,note_on,96,0,4,,,,,,,,0,,,45,0
152136,note_on,0,0,4,,,,,,,,0,,,48,0
152136,note_on,96,0,1,,,,,,,,0,,,87,0
152220,note_on,0,0,4,,,,,,,,0,,,51,80
152220,note_on,0,0,1,,,,,,,,0,,,72,80
152220,note_on,0,0,1,,,,,,,,0,,,84,80
152220,note_on,0,0,4,,,,,,,,0,,,43,80
152220,note_on,84,0,4,,,,,,,,0,,,54,80
152220,note_on,84,0,1,,,,,,,,0,,,75,80
152220,note_on,0,0,4,,,,,,,,0,,,48,80
152220,note_on,0,0,4,,,,,,,,0,,,45,80
152268,note_on,0,0,4,,,,,,,,0,,,43,0
152268,note_on,0,0,4,,,,,,,,0,,,54,0
152268,note_on,0,0,4,,,,,,,,0,,,51,0
152268,note_on,0,0,4,,,,,,,,0,,,45,0
152268,note_on,0,0,1,,,,,,,,0,,,75,0
152268,note_on,0,0,1,,,,,,,,0,,,72,0
152268,note_on,48,0,4,,,,,,,,0,,,48,0
152268,note_on,48,0,1,,,,,,,,0,,,84,0
152280,note_on,0,0,4,,,,,,,,0,,,51,80
152280,note_on,0,0,4,,,,,,,,0,,,54,80
152280,note_on,0,0,1,,,,,,,,0,,,84,80
152280,note_on,0,0,1,,,,,,,,0,,,72,80
152280,note_on,0,0,4,,,,,,,,0,,,43,80
152280,note_on,12,0,4,,,,,,,,0,,,48,80
152280,note_on,0,0,4,,,,,,,,0,,,45,80
152280,note_on,12,0,1,,,,,,,,0,,,75,80
152376,note_on,96,0,4,,,,,,,,0,,,43,0
152376,note_on,0,0,4,,,,,,,,0,,,45,0
152376,note_on,0,0,4,,,,,,,,0,,,48,0
152376,note_on,0,0,4,,,,,,,,0,,,51,0
152376,note_on,0,0,1,,,,,,,,0,,,75,0
152376,note_on,96,0,1,,,,,,,,0,,,84,0
152376,note_on,0,0,4,,,,,,,,0,,,54,0
152376,note_on,0,0,1,,,,,,,,0,,,72,0
152400,time_signature,720,1,0,5,8,12,8,,,,,,,,
152460,note_on,0,0,4,,,,,,,,0,,,43,80
152460,note_on,0,0,4,,,,,,,,0,,,54,80
152460,note_on,84,0,4,,,,,,,,0,,,48,80
152460,note_on,0,0,4,,,,,,,,0,,,45,80
152460,note_on,0,0,1,,,,,,,,0,,,81,80
152460,note_on,0,0,1,,,,,,,,0,,,72,80
152460,note_on,84,0,1,,,,,,,,0,,,69,80
152460,note_on,0,0,4,,,,,,,,0,,,51,80
152508,note_on,0,0,4,,,,,,,,0,,,48,0
152508,note_on,0,0,4,,,,,,,,0,,,45,0
152508,note_on,0,0,4,,,,,,,,0,,,54,0
152508,note_on,0,0,4,,,,,,,,0,,,51,0
152508,note_on,0,0,1,,,,,,,,0,,,69,0
152508,note_on,48,0,4,,,,,,,,0,,,43,0
152508,note_on,48,0,1,,,,,,,,0,,,81,0
152508,note_on,0,0,1,,,,,,,,0,,,72,0
152518,control_change,10,0,4,,,,,,,,0,64,0,,
152520,note_on,2,0,4,,,,,,,,0,,,45,80
152520,note_on,12,0,1,,,,,,,,0,,,72,80
152520,note_on,0,0,4,,,,,,,,0,,,43,80
152520,note_on,0,0,4,,,,,,,,0,,,48,80
152520,note_on,0,0,4,,,,,,,,0,,,51,80
152520,note_on,0,0,4,,,,,,,,0,,,54,80
152520,note_on,0,0,1,,,,,,,,0,,,81,80
152520,note_on,0,0,1,,,,,,,,0,,,69,80
152616,note_on,0,0,4,,,,,,,,0,,,43,0
152616,note_on,0,0,4,,,,,,,,0,,,45,0
152616,note_on,96,0,1,,,,,,,,0,,,81,0
152616,note_on,96,0,4,,,,,,,,0,,,54,0
152616,note_on,0,0,4,,,,,,,,0,,,51,0
152616,note_on,0,0,1,,,,,,,,0,,,72,0
152616,note_on,0,0,1,,,,,,,,0,,,69,0
152616,note_on,0,0,4,,,,,,,,0,,,48,0
152760,note_on,144,0,4,,,,,,,,0,,,54,80
152760,note_on,0,0,4,,,,,,,,0,,,51,80
152760,note_on,0,0,4,,,,,,,,0,,,48,80
152760,note_on,0,0,4,,,,,,,,0,,,45,80
152760,note_on,0,0,4,,,,,,,,0,,,43,80
152760,note_on,144,0,1,,,,,,,,0,,,66,80
152760,note_on,0,0,1,,,,,,,,0,,,78,80
152770,control_change,10,0,4,,,,,,,,0,64,127,,
152808,note_on,0,0,1,,,,,,,,0,,,66,0
152808,note_on,38,0,4,,,,,,,,0,,,45,0
152808,note_on,0,0,4,,,,,,,,0,,,43,0
152808,note_on,48,0,1,,,,,,,,0,,,78,0
152808,note_on,0,0,4,,,,,,,,0,,,48,0
152808,note_on,0,0,4,,,,,,,,0,,,51,0
152808,note_on,0,0,4,,,,,,,,0,,,54,0
152820,note_on,0,0,4,,,,,,,,0,,,45,80
152820,note_on,12,0,4,,,,,,,,0,,,48,80
152820,note_on,0,0,4,,,,,,,,0,,,54,80
152820,note_on,0,0,4,,,,,,,,0,,,51,80
152820,note_on,0,0,4,,,,,,,,0,,,43,80
152820,note_on,0,0,1,,,,,,,,0,,,63,80
152820,note_on,12,0,1,,,,,,,,0,,,75,80
152868,note_on,48,0,4,,,,,,,,0,,,43,0
152868,note_on,48,0,1,,,,,,,,0,,,63,0
152868,note_on,0,0,1,,,,,,,,0,,,75,0
152868,note_on,0,0,4,,,,,,,,0,,,45,0
152868,note_on,0,0,4,,,,,,,,0,,,48,0
152868,note_on,0,0,4,,,,,,,,0,,,54,0
152868,note_on,0,0,4,,,,,,,,0,,,51,0
152880,note_on,0,0,1,,,,,,,,0,,,62,80
152880,note_on,12,0,4,,,,,,,,0,,,48,80
152880,note_on,0,0,4,,,,,,,,0,,,51,80
152880,note_on,12,0,1,,,,,,,,0,,,74,80
152880,note_on,0,0,4,,,,,,,,0,,,45,80
152880,note_on,0,0,4,,,,,,,,0,,,43,80
152880,note_on,0,0,4,,,,,,,,0,,,54,80
152928,note_on,0,0,4,,,,,,,,0,,,43,0
152928,note_on,0,0,1,,,,,,,,0,,,74,0
152928,note_on,0,0,4,,,,,,,,0,,,48,0
152928,note_on,0,0,4,,,,,,,,0,,,51,0
152928,note_on,48,0,1,,,,,,,,0,,,62,0
152928,note_on,48,0,4,,,,,,,,0,,,54,0
152928,note_on,0,0,4,,,,,,,,0,,,45,0
152940,note_on,0,0,4,,,,,,,,0,,,43,80
152940,note_on,0,0,4,,,,,,,,0,,,45,80
152940,note_on,0,0,4,,,,,,,,0,,,48,80
152940,note_on,0,0,4,,,,,,,,0,,,54,80
152940,note_on,0,0,1,,,,,,,,0,,,72,80
152940,note_on,12,0,4,,,,,,,,0,,,51,80
152940,note_on,12,0,1,,,,,,,,0,,,60,80
152981,control_change,41,0,4,,,,,,,,0,64,0,,
152988,note_on,0,0,4,,,,,,,,0,,,51,0
152988,note_on,0,0,4,,,,,,,,0,,,45,0
152988,note_on,7,0,4,,,,,,,,0,,,43,0
152988,note_on,48,0,1,,,,,,,,0,,,72,0
152988,note_on,0,0,4,,,,,,,,0,,,54,0
152988,note_on,0,0,1,,,,,,,,0,,,60,0
152988,note_on,0,0,4,,,,,,,,0,,,48,0
152994,set_tempo,594,1,0,,,,,,418293,,,,,,
153000,note_on,0,0,1,,,,,,,,0,,,79,80
153000,note_on,12,0,1,,,,,,,,0,,,67,80
153000,note_on,0,0,4,,,,,,,,0,,,43,80
153000,note_on,0,0,4,,,,,,,,0,,,50,80
153000,time_signature,6,1,0,6,8,12,8,,,,,,,,
153000,control_change,0,0,4,,,,,,,,0,64,127,,
153000,note_on,0,0,4,,,,,,,,0,,,55,80
153000,note_on,12,0,4,,,,,,,,0,,,47,80
153000,note_on,0,0,1,,,,,,,,0,,,71,80
153024,set_tempo,24,1,0,,,,,,416146,,,,,,
153055,set_tempo,31,1,0,,,,,,414022,,,,,,
153081,set_tempo,26,1,0,,,,,,411918,,,,,,
153096,note_on,0,0,4,,,,,,,,0,,,43,0
153096,note_on,0,0,4,,,,,,,,0,,,47,0
153096,note_on,0,0,4,,,,,,,,0,,,55,0
153096,note_on,96,0,4,,,,,,,,0,,,50,0
153096,note_on,0,0,1,,,,,,,,0,,,67,0
153096,note_on,0,0,1,,,,,,,,0,,,79,0
153096,note_on,96,0,1,,,,,,,,0,,,71,0
153112,set_tempo,31,1,0,,,,,,409836,,,,,,
153120,note_on,24,0,4,,,,,,,,0,,,50,80
153120,note_on,1206,0,3,,,,,,,,0,,,62,80
153138,set_tempo,26,1,0,,,,,,407775,,,,,,
153168,note_on,48,0,3,,,,,,,,0,,,62,0
153168,set_tempo,30,1,0,,,,,,405734,,,,,,
153180,note_on,84,0,1,,,,,,,,0,,,65,80
153180,note_on,0,0,1,,,,,,,,0,,,67,80
153195,set_tempo,27,1,0,,,,,,403714,,,,,,
153216,note_on,96,0,4,,,,,,,,0,,,50,0
153225,set_tempo,30,1,0,,,,,,401714,,,,,,
153228,note_on,48,0,1,,,,,,,,0,,,67,0
153228,note_on,0,0,1,,,,,,,,0,,,65,0
153240,note_on,24,0,4,,,,,,,,0,,,48,80
153240,note_on,72,0,3,,,,,,,,0,,,60,80
153256,set_tempo,31,1,0,,,,,,399734,,,,,,
153282,set_tempo,26,1,0,,,,,,397772,,,,,,
153288,note_on,48,0,3,,,,,,,,0,,,60,0
153300,note_on,0,0,1,,,,,,,,0,,,65,80
153300,note_on,72,0,1,,,,,,,,0,,,67,80
153312,set_tempo,30,1,0,,,,,,395831,,,,,,
153336,note_on,96,0,4,,,,,,,,0,,,48,0
153339,set_tempo,27,1,0,,,,,,393908,,,,,,
153348,note_on,48,0,1,,,,,,,,0,,,65,0
153348,note_on,0,0,1,,,,,,,,0,,,67,0
153360,note_on,72,0,3,,,,,,,,0,,,59,80
153360,note_on,24,0,4,,,,,,,,0,,,47,80
153369,set_tempo,30,1,0,,,,,,392003,,,,,,
153395,set_tempo,26,1,0,,,,,,390117,,,,,,
153408,note_on,48,0,3,,,,,,,,0,,,59,0
153420,note_on,0,0,1,,,,,,,,0,,,67,80
153420,note_on,72,0,1,,,,,,,,0,,,65,80
153426,set_tempo,31,1,0,,,,,,388249,,,,,,
153452,set_tempo,26,1,0,,,,,,386399,,,,,,
153456,note_on,96,0,4,,,,,,,,0,,,47,0
153468,note_on,48,0,1,,,,,,,,0,,,67,0
153468,note_on,0,0,1,,,,,,,,0,,,65,0
153480,note_on,24,0,4,,,,,,,,0,,,45,80
153480,note_on,72,0,3,,,,,,,,0,,,57,80
153483,set_tempo,31,1,0,,,,,,384566,,,,,,
153513,set_tempo,30,1,0,,,,,,382751,,,,,,
153528,note_on,48,0,3,,,,,,,,0,,,57,0
153539,set_tempo,26,1,0,,,,,,380952,,,,,,
153540,note_on,0,0,1,,,,,,,,0,,,67,80
153540,note_on,72,0,1,,,,,,,,0,,,65,80
153570,set_tempo,31,1,0,,,,,,379171,,,,,,
153576,note_on,96,0,4,,,,,,,,0,,,45,0
153588,note_on,48,0,1,,,,,,,,0,,,67,0
153588,note_on,0,0,1,,,,,,,,0,,,65,0
153596,set_tempo,26,1,0,,,,,,377406,,,,,,
153600,note_on,24,0,4,,,,,,,,0,,,43,80
153600,note_on,72,0,3,,,,,,,,0,,,55,80
153627,set_tempo,31,1,0,,,,,,375657,,,,,,
153628,control_change,28,0,4,,,,,,,,0,64,0,,
153648,note_on,48,0,3,,,,,,,,0,,,55,0
153653,set_tempo,26,1,0,,,,,,373925,,,,,,
153660,note_on,0,0,1,,,,,,,,0,,,65,80
153660,note_on,72,0,1,,,,,,,,0,,,67,80
153683,set_tempo,30,1,0,,,,,,372208,,,,,,
153696,note_on,68,0,4,,,,,,,,0,,,43,0
153708,note_on,0,0,1,,,,,,,,0,,,67,0
153708,note_on,48,0,1,,,,,,,,0,,,65,0
153710,set_tempo,27,1,0,,,,,,370508,,,,,,
153720,note_on,24,0,4,,,,,,,,0,,,49,80
153720,note_on,0,0,4,,,,,,,,0,,,53,80
153720,note_on,0,0,4,,,,,,,,0,,,41,80
153720,control_change,0,0,4,,,,,,,,0,64,127,,
153720,note_on,0,0,1,,,,,,,,0,,,68,80
153720,note_on,12,0,1,,,,,,,,0,,,56,80
153768,note_on,48,0,1,,,,,,,,0,,,68,0
153768,note_on,0,0,1,,,,,,,,0,,,56,0
153780,note_on,12,0,1,,,,,,,,0,,,61,80
153816,note_on,96,0,4,,,,,,,,0,,,53,0
153816,note_on,0,0,4,,,,,,,,0,,,49,0
153816,note_on,0,0,4,,,,,,,,0,,,41,0
153828,note_on,48,0,1,,,,,,,,0,,,61,0
153840,note_on,0,0,4,,,,,,,,0,,,51,80
153840,note_on,12,0,1,,,,,,,,0,,,65,81
153840,note_on,24,0,4,,,,,,,,0,,,39,80
153888,note_on,48,0,1,,,,,,,,0,,,65,0
153900,note_on,12,0,1,,,,,,,,0,,,68,81
153936,note_on,96,0,4,,,,,,,,0,,,51,0
153936,note_on,0,0,4,,,,,,,,0,,,39,0
153948,note_on,48,0,1,,,,,,,,0,,,68,0
153960,note_on,24,0,4,,,,,,,,0,,,37,80
153960,note_on,0,0,4,,,,,,,,0,,,49,80
153960,note_on,12,0,1,,,,,,,,0,,,73,82
154008,note_on,48,0,1,,,,,,,,0,,,73,0
154020,note_on,12,0,1,,,,,,,,0,,,75,82
154056,note_on,96,0,4,,,,,,,,0,,,49,0
154056,note_on,0,0,4,,,,,,,,0,,,37,0
154068,note_on,48,0,1,,,,,,,,0,,,75,0
154080,note_on,0,0,4,,,,,,,,0,,,44,80
154080,note_on,24,0,4,,,,,,,,0,,,32,80
154080,note_on,12,0,1,,,,,,,,0,,,77,83
154128,note_on,48,0,1,,,,,,,,0,,,77,0
154140,note_on,12,0,1,,,,,,,,0,,,80,84
154176,note_on,0,0,4,,,,,,,,0,,,32,0
154176,note_on,96,0,4,,,,,,,,0,,,44,0
154188,note_on,48,0,1,,,,,,,,0,,,80,0
154200,note_on,24,0,4,,,,,,,,0,,,29,80
154200,note_on,12,0,1,,,,,,,,0,,,85,84
154200,note_on,0,0,4,,,,,,,,0,,,41,80
154248,note_on,48,0,1,,,,,,,,0,,,85,0
154260,note_on,12,0,1,,,,,,,,0,,,87,85
154296,note_on,0,0,4,,,,,,,,0,,,29,0
154296,note_on,96,0,4,,,,,,,,0,,,41,0
154308,note_on,48,0,1,,,,,,,,0,,,87,0
154320,note_on,12,0,1,,,,,,,,0,,,77,85
154320,note_on,0,0,1,,,,,,,,0,,,89,85
154320,note_on,0,0,4,,,,,,,,0,,,37,80
154320,note_on,0,0,4,,,,,,,,0,,,49,80
154320,note_on,24,0,4,,,,,,,,0,,,44,80
154320,note_on,0,0,1,,,,,,,,0,,,85,85
154324,control_change,4,0,4,,,,,,,,0,64,0,,
154416,note_on,92,0,4,,,,,,,,0,,,37,0
154416,note_on,0,0,4,,,,,,,,0,,,44,0
154416,note_on,0,0,1,,,,,,,,0,,,77,0
154416,note_on,0,0,1,,,,,,,,0,,,85,0
154416,note_on,96,0,1,,,,,,,,0,,,89,0
154416,note_on,0,0,4,,,,,,,,0,,,49,0
154438,set_tempo,728,1,0,,,,,,372208,,,,,,
154440,note_on,0,0,4,,,,,,,,0,,,31,80
154440,note_on,24,0,1,,,,,,,,0,,,83,87
154440,note_on,24,0,4,,,,,,,,0,,,43,80
154440,note_on,0,0,1,,,,,,,,0,,,95,87
154440,note_on,0,0,1,,,,,,,,0,,,86,87
154444,control_change,4,0,4,,,,,,,,0,64,127,,
154491,set_tempo,53,1,0,,,,,,370508,,,,,,
154536,note_on,0,0,1,,,,,,,,0,,,86,0
154536,note_on,96,0,1,,,,,,,,0,,,95,0
154536,note_on,0,0,4,,,,,,,,0,,,43,0
154536,note_on,92,0,4,,,,,,,,0,,,31,0
154536,note_on,0,0,1,,,,,,,,0,,,83,0
154543,set_tempo,52,1,0,,,,,,368822,,,,,,
154560,note_on,0,0,4,,,,,,,,0,,,62,80
154560,note_on,24,0,4,,,,,,,,0,,,50,80
154595,set_tempo,52,1,0,,,,,,367152,,,,,,
154620,note_on,0,0,2,,,,,,,,0,,,79,80
154620,note_on,7044,0,2,,,,,,,,0,,,67,80
154620,note_on,0,0,2,,,,,,,,0,,,65,80
154648,set_tempo,53,1,0,,,,,,365497,,,,,,
154656,note_on,0,0,4,,,,,,,,0,,,50,0
154656,note_on,96,0,4,,,,,,,,0,,,62,0
154668,note_on,0,0,2,,,,,,,,0,,,67,0
154668,note_on,48,0,2,,,,,,,,0,,,65,0
154668,note_on,0,0,2,,,,,,,,0,,,79,0
154680,note_on,0,0,4,,,,,,,,0,,,48,80
154680,note_on,24,0,4,,,,,,,,0,,,60,80
154700,set_tempo,52,1,0,,,,,,363857,,,,,,
154740,note_on,0,0,2,,,,,,,,0,,,79,80
154740,note_on,72,0,2,,,,,,,,0,,,67,80
154740,note_on,0,0,2,,,,,,,,0,,,65,80
154752,set_tempo,52,1,0,,,,,,362231,,,,,,
154776,note_on,96,0,4,,,,,,,,0,,,48,0
154776,note_on,0,0,4,,,,,,,,0,,,60,0
154788,note_on,48,0,2,,,,,,,,0,,,65,0
154788,note_on,0,0,2,,,,,,,,0,,,79,0
154788,note_on,0,0,2,,,,,,,,0,,,67,0
154800,set_tempo,48,1,0,,,,,,360620,,,,,,
154800,note_on,0,0,4,,,,,,,,0,,,47,80
154800,note_on,24,0,4,,,,,,,,0,,,59,80
154853,set_tempo,53,1,0,,,,,,359023,,,,,,
154860,note_on,0,0,2,,,,,,,,0,,,65,80
154860,note_on,0,0,2,,,,,,,,0,,,79,80
154860,note_on,72,0,2,,,,,,,,0,,,67,80
154896,note_on,0,0,4,,,,,,,,0,,,59,0
154896,note_on,96,0,4,,,,,,,,0,,,47,0
154905,set_tempo,52,1,0,,,,,,357441,,,,,,
154908,note_on,48,0,2,,,,,,,,0,,,65,0
154908,note_on,0,0,2,,,,,,,,0,,,67,0
154908,note_on,0,0,2,,,,,,,,0,,,79,0
154920,note_on,0,0,4,,,,,,,,0,,,45,80
154920,note_on,24,0,4,,,,,,,,0,,,57,80
154958,set_tempo,53,1,0,,,,,,355872,,,,,,
154980,note_on,0,0,2,,,,,,,,0,,,79,80
154980,note_on,0,0,2,,,,,,,,0,,,65,80
154980,note_on,72,0,2,,,,,,,,0,,,67,80
155000,control_change,80,0,4,,,,,,,,0,64,0,,
155010,set_tempo,52,1,0,,,,,,354317,,,,,,
155016,note_on,0,0,4,,,,,,,,0,,,57,0
155016,note_on,16,0,4,,,,,,,,0,,,45,0
155028,note_on,48,0,2,,,,,,,,0,,,65,0
155028,note_on,0,0,2,,,,,,,,0,,,67,0
155028,note_on,0,0,2,,,,,,,,0,,,79,0
155040,note_on,24,0,4,,,,,,,,0,,,55,80
155040,note_on,0,0,4,,,,,,,,0,,,43,80
155062,set_tempo,52,1,0,,,,,,352775,,,,,,
155100,note_on,72,0,2,,,,,,,,0,,,65,80
155100,note_on,0,0,2,,,,,,,,0,,,79,80
155100,note_on,0,0,2,,,,,,,,0,,,67,80
155115,set_tempo,53,1,0,,,,,,351247,,,,,,
155136,note_on,0,0,4,,,,,,,,0,,,55,0
155136,note_on,96,0,4,,,,,,,,0,,,43,0
155148,note_on,48,0,2,,,,,,,,0,,,79,0
155148,note_on,0,0,2,,,,,,,,0,,,67,0
155148,note_on,0,0,2,,,,,,,,0,,,65,0
155160,note_on,24,0,4,,,,,,,,0,,,65,80
155160,note_on,0,0,1,,,,,,,,0,,,80,80
155160,note_on,0,0,4,,,,,,,,0,,,53,80
155160,note_on,624,0,1,,,,,,,,0,,,68,80
155160,note_on,0,0,4,,,,,,,,0,,,61,80
155163,set_tempo,48,1,0,,,,,,349732,,,,,,
155171,control_change,11,0,4,,,,,,,,0,64,127,,
155208,note_on,0,0,1,,,,,,,,0,,,68,0
155208,note_on,48,0,1,,,,,,,,0,,,80,0
155220,note_on,12,0,1,,,,,,,,0,,,73,80
155256,note_on,0,0,4,,,,,,,,0,,,61,0
155256,note_on,0,0,4,,,,,,,,0,,,65,0
155256,note_on,85,0,4,,,,,,,,0,,,53,0
155268,note_on,48,0,1,,,,,,,,0,,,73,0
155280,note_on,12,0,1,,,,,,,,0,,,77,81
155280,note_on,24,0,4,,,,,,,,0,,,61,80
155280,note_on,0,0,4,,,,,,,,0,,,49,80
155328,note_on,48,0,1,,,,,,,,0,,,77,0
155340,note_on,12,0,1,,,,,,,,0,,,80,82
155376,note_on,96,0,4,,,,,,,,0,,,49,0
155376,note_on,0,0,4,,,,,,,,0,,,61,0
155388,note_on,48,0,1,,,,,,,,0,,,80,0
155400,note_on,12,0,1,,,,,,,,0,,,85,82
155400,note_on,24,0,4,,,,,,,,0,,,44,80
155400,note_on,0,0,4,,,,,,,,0,,,56,80
155448,note_on,48,0,1,,,,,,,,0,,,85,0
155460,note_on,12,0,1,,,,,,,,0,,,87,83
155496,note_on,96,0,4,,,,,,,,0,,,56,0
155496,note_on,0,0,4,,,,,,,,0,,,44,0
155508,note_on,48,0,1,,,,,,,,0,,,87,0
155520,note_on,12,0,1,,,,,,,,0,,,89,84
155520,note_on,24,0,4,,,,,,,,0,,,53,80
155520,note_on,0,0,4,,,,,,,,0,,,41,80
155568,note_on,48,0,1,,,,,,,,0,,,89,0
155580,note_on,12,0,1,,,,,,,,0,,,92,84
155616,note_on,0,0,4,,,,,,,,0,,,53,0
155616,note_on,96,0,4,,,,,,,,0,,,41,0
155628,note_on,48,0,1,,,,,,,,0,,,92,0
155640,note_on,0,0,4,,,,,,,,0,,,37,80
155640,note_on,12,0,1,,,,,,,,0,,,97,85
155640,note_on,24,0,4,,,,,,,,0,,,49,80
155688,note_on,48,0,1,,,,,,,,0,,,97,0
155700,note_on,12,0,1,,,,,,,,0,,,99,80
155706,set_tempo,543,1,0,,,,,,351247,,,,,,
155736,note_on,0,0,4,,,,,,,,0,,,49,0
155736,note_on,96,0,4,,,,,,,,0,,,37,0
155748,note_on,48,0,1,,,,,,,,0,,,99,0
155760,note_on,0,0,1,,,,,,,,0,,,97,87
155760,note_on,12,0,1,,,,,,,,0,,,89,87
155760,note_on,0,0,4,,,,,,,,0,,,32,80
155760,note_on,0,0,1,,,,,,,,0,,,101,80
155760,control_change,24,0,4,,,,,,,,0,64,0,,
155760,note_on,0,0,4,,,,,,,,0,,,44,80
155856,note_on,0,0,1,,,,,,,,0,,,89,0
155856,note_on,0,0,4,,,,,,,,0,,,44,0
155856,note_on,0,0,1,,,,,,,,0,,,101,0
155856,note_on,96,0,1,,,,,,,,0,,,97,0
155856,note_on,96,0,4,,,,,,,,0,,,32,0
155872,set_tempo,166,1,0,,,,,,349732,,,,,,
155877,set_tempo,5,1,0,,,,,,380952,,,,,,
155880,note_on,0,0,4,,,,,,,,0,,,31,80
155880,note_on,0,0,4,,,,,,,,0,,,43,80
155880,note_on,0,0,1,,,,,,,,0,,,83,80
155880,note_on,0,0,1,,,,,,,,0,,,86,80
155880,note_on,24,0,1,,,,,,,,0,,,95,80
155880,control_change,24,0,4,,,,,,,,0,64,127,,
155881,set_tempo,4,1,0,,,,,,382751,,,,,,
155976,note_on,0,0,1,,,,,,,,0,,,86,0
155976,note_on,0,0,4,,,,,,,,0,,,43,0
155976,note_on,96,0,1,,,,,,,,0,,,83,0
155976,note_on,96,0,4,,,,,,,,0,,,31,0
155976,note_on,0,0,1,,,,,,,,0,,,95,0
156060,note_on,0,0,4,,,,,,,,0,,,62,80
156060,note_on,0,0,1,,,,,,,,0,,,71,80
156060,note_on,0,0,1,,,,,,,,0,,,79,80
156060,note_on,84,0,4,,,,,,,,0,,,59,80
156060,note_on,0,0,4,,,,,,,,0,,,65,80
156060,note_on,84,0,1,,,,,,,,0,,,67,80
156108,note_on,0,0,1,,,,,,,,0,,,67,0
156108,note_on,0,0,4,,,,,,,,0,,,65,0
156108,note_on,0,0,1,,,,,,,,0,,,79,0
156108,note_on,48,0,1,,,,,,,,0,,,71,0
156108,note_on,0,0,4,,,,,,,,0,,,59,0
156108,note_on,48,0,4,,,,,,,,0,,,62,0
156120,note_on,0,0,1,,,,,,,,0,,,71,80
156120,note_on,0,0,4,,,,,,,,0,,,65,80
156120,note_on,0,0,1,,,,,,,,0,,,79,80
156120,note_on,0,0,4,,,,,,,,0,,,59,80
156120,note_on,12,0,4,,,,,,,,0,,,62,80
156120,note_on,12,0,1,,,,,,,,0,,,67,80
156207,control_change,87,0,4,,,,,,,,0,64,0,,
156216,note_on,0,0,1,,,,,,,,0,,,67,0
156216,note_on,0,0,1,,,,,,,,0,,,79,0
156216,note_on,96,0,1,,,,,,,,0,,,71,0
156216,note_on,0,0,4,,,,,,,,0,,,62,0
156216,note_on,0,0,4,,,,,,,,0,,,65,0
156216,note_on,9,0,4,,,,,,,,0,,,59,0
156230,control_change,14,0,4,,,,,,,,0,64,127,,
156240,note_on,0,0,4,,,,,,,,0,,,51,80
156240,note_on,24,0,1,,,,,,,,0,,,96,80
156240,note_on,0,0,4,,,,,,,,0,,,43,80
156240,note_on,0,0,4,,,,,,,,0,,,48,80
156240,note_on,0,0,1,,,,,,,,0,,,87,80
156240,note_on,0,0,1,,,,,,,,0,,,84,80
156240,note_on,10,0,4,,,,,,,,0,,,56,80
156248,set_tempo,367,1,0,,,,,,384566,,,,,,
156336,note_on,0,0,4,,,,,,,,0,,,43,0
156336,note_on,0,0,1,,,,,,,,0,,,96,0
156336,note_on,0,0,4,,,,,,,,0,,,51,0
156336,note_on,0,0,4,,,,,,,,0,,,56,0
156336,note_on,96,0,4,,,,,,,,0,,,48,0
156336,note_on,0,0,1,,,,,,,,0,,,87,0
156336,note_on,96,0,1,,,,,,,,0,,,84,0
156420,note_on,0,0,1,,,,,,,,0,,,72,80
156420,note_on,84,0,4,,,,,,,,0,,,60,80
156420,note_on,84,0,1,,,,,,,,0,,,80,80
156420,note_on,0,0,1,,,,,,,,0,,,68,80
156420,note_on,0,0,4,,,,,,,,0,,,63,80
156420,note_on,0,0,4,,,,,,,,0,,,66,80
156468,note_on,48,0,4,,,,,,,,0,,,66,0
156468,note_on,0,0,4,,,,,,,,0,,,63,0
156468,note_on,0,0,1,,,,,,,,0,,,68,0
156468,note_on,0,0,1,,,,,,,,0,,,80,0
156468,note_on,0,0,4,,,,,,,,0,,,60,0
156468,note_on,48,0,1,,,,,,,,0,,,72,0
156480,note_on,0,0,1,,,,,,,,0,,,80,80
156480,note_on,0,0,4,,,,,,,,0,,,63,80
156480,note_on,12,0,1,,,,,,,,0,,,68,80
156480,note_on,0,0,1,,,,,,,,0,,,72,80
156480,note_on,12,0,4,,,,,,,,0,,,66,80
156480,note_on,0,0,4,,,,,,,,0,,,60,80
156576,note_on,0,0,4,,,,,,,,0,,,63,0
156576,note_on,0,0,1,,,,,,,,0,,,68,0
156576,note_on,0,0,1,,,,,,,,0,,,80,0
156576,note_on,96,0,4,,,,,,,,0,,,60,0
156576,note_on,0,0,4,,,,,,,,0,,,66,0
156576,note_on,96,0,1,,,,,,,,0,,,72,0
156577,control_change,1,0,4,,,,,,,,0,64,0,,
156600,note_on,0,0,1,,,,,,,,0,,,97,80
156600,note_on,23,0,4,,,,,,,,0,,,57,80
156600,note_on,0,0,1,,,,,,,,0,,,85,80
156600,control_change,0,0,4,,,,,,,,0,64,127,,
156600,note_on,0,0,4,,,,,,,,0,,,43,80
156600,note_on,0,0,4,,,,,,,,0,,,49,80
156600,note_on,0,0,4,,,,,,,,0,,,52,80
156600,note_on,24,0,1,,,,,,,,0,,,88,80
156696,note_on,96,0,1,,,,,,,,0,,,85,0
156696,note_on,0,0,4,,,,,,,,0,,,43,0
156696,note_on,0,0,4,,,,,,,,0,,,52,0
156696,note_on,0,0,1,,,,,,,,0,,,88,0
156696,note_on,96,0,4,,,,,,,,0,,,49,0
156696,note_on,0,0,4,,,,,,,,0,,,57,0
156696,note_on,0,0,1,,,,,,,,0,,,97,0
156780,note_on,0,0,1,,,,,,,,0,,,73,80
156780,note_on,84,0,1,,,,,,,,0,,,69,80
156780,note_on,0,0,1,,,,,,,,0,,,81,80
156780,note_on,84,0,4,,,,,,,,0,,,64,80
156780,note_on,0,0,4,,,,,,,,0,,,61,80
156780,note_on,0,0,4,,,,,,,,0,,,67,80
156828,note_on,0,0,1,,,,,,,,0,,,81,0
156828,note_on,0,0,1,,,,,,,,0,,,69,0
156828,note_on,48,0,4,,,,,,,,0,,,61,0
156828,note_on,48,0,1,,,,,,,,0,,,73,0
156828,note_on,0,0,4,,,,,,,,0,,,67,0
156828,note_on,0,0,4,,,,,,,,0,,,64,0
156840,note_on,12,0,1,,,,,,,,0,,,73,80
156840,note_on,0,0,1,,,,,,,,0,,,69,80
156840,note_on,0,0,4,,,,,,,,0,,,61,80
156840,note_on,0,0,1,,,,,,,,0,,,81,80
156840,note_on,0,0,4,,,,,,,,0,,,64,80
156840,note_on,12,0,4,,,,,,,,0,,,67,80
156923,control_change,83,0,4,,,,,,,,0,64,0,,
156936,note_on,13,0,4,,,,,,,,0,,,61,0
156936,note_on,96,0,1,,,,,,,,0,,,69,0
156936,note_on,0,0,4,,,,,,,,0,,,64,0
156936,note_on,0,0,4,,,,,,,,0,,,67,0
156936,note_on,0,0,1,,,,,,,,0,,,81,0
156936,note_on,0,0,1,,,,,,,,0,,,73,0
156956,control_change,20,0,4,,,,,,,,0,64,127,,
156960,note_on,4,0,4,,,,,,,,0,,,50,80
156960,note_on,0,0,1,,,,,,,,0,,,98,80
156960,note_on,0,0,1,,,,,,,,0,,,89,80
156960,note_on,0,0,4,,,,,,,,0,,,43,80
156960,note_on,0,0,4,,,,,,,,0,,,53,80
156960,note_on,0,0,4,,,,,,,,0,,,58,80
156960,note_on,24,0,1,,,,,,,,0,,,86,80
157056,note_on,96,0,4,,,,,,,,0,,,43,0
157056,note_on,0,0,1,,,,,,,,0,,,89,0
157056,note_on,96,0,1,,,,,,,,0,,,98,0
157056,note_on,0,0,4,,,,,,,,0,,,50,0
157056,note_on,0,0,4,,,,,,,,0,,,53,0
157056,note_on,0,0,4,,,,,,,,0,,,58,0
157056,note_on,0,0,1,,,,,,,,0,,,86,0
157140,note_on,84,0,1,,,,,,,,0,,,70,80
157140,note_on,84,0,4,,,,,,,,0,,,65,80
157140,note_on,0,0,1,,,,,,,,0,,,74,80
157140,note_on,0,0,4,,,,,,,,0,,,62,80
157140,note_on,0,0,4,,,,,,,,0,,,68,80
157140,note_on,0,0,1,,,,,,,,0,,,82,80
157188,note_on,48,0,1,,,,,,,,0,,,82,0
157188,note_on,0,0,4,,,,,,,,0,,,62,0
157188,note_on,0,0,4,,,,,,,,0,,,65,0
157188,note_on,48,0,4,,,,,,,,0,,,68,0
157188,note_on,0,0,1,,,,,,,,0,,,70,0
157188,note_on,0,0,1,,,,,,,,0,,,74,0
157200,note_on,0,0,1,,,,,,,,0,,,74,80
157200,note_on,0,0,1,,,,,,,,0,,,82,80
157200,note_on,12,0,1,,,,,,,,0,,,70,80
157200,note_on,0,0,4,,,,,,,,0,,,65,80
157200,note_on,12,0,4,,,,,,,,0,,,62,80
157200,note_on,0,0,4,,,,,,,,0,,,68,80
157289,control_change,89,0,4,,,,,,,,0,64,0,,
157296,note_on,7,0,4,,,,,,,,0,,,68,0
157296,note_on,0,0,1,,,,,,,,0,,,82,0
157296,note_on,0,0,1,,,,,,,,0,,,70,0
157296,note_on,96,0,1,,,,,,,,0,,,74,0
157296,note_on,0,0,4,,,,,,,,0,,,65,0
157296,note_on,0,0,4,,,,,,,,0,,,62,0
157320,note_on,0,0,1,,,,,,,,0,,,74,80
157320,note_on,0,0,1,,,,,,,,0,,,82,80
157320,note_on,2172,0,2,,,,,,,,0,,,62,80
157320,note_on,0,0,2,,,,,,,,0,,,65,80
157320,note_on,24,0,1,,,,,,,,0,,,70,80
157320,control_change,24,0,4,,,,,,,,0,64,127,,
157320,note_on,0,0,2,,,,,,,,0,,,68,80
157416,note_on,96,0,2,,,,,,,,0,,,65,0
157416,note_on,0,0,2,,,,,,,,0,,,62,0
157416,note_on,0,0,2,,,,,,,,0,,,68,0
157416,note_on,0,0,1,,,,,,,,0,,,82,0
157416,note_on,96,0,1,,,,,,,,0,,,74,0
157416,note_on,0,0,1,,,,,,,,0,,,70,0
157500,note_on,0,0,2,,,,,,,,0,,,65,80
157500,note_on,84,0,1,,,,,,,,0,,,82,80
157500,note_on,0,0,2,,,,,,,,0,,,68,80
157500,note_on,84,0,2,,,,,,,,0,,,58,80
157500,note_on,0,0,1,,,,,,,,0,,,70,80
157500,note_on,0,0,2,,,,,,,,0,,,62,80
157500,note_on,0,0,1,,,,,,,,0,,,74,80
157548,note_on,0,0,1,,,,,,,,0,,,74,0
157548,note_on,0,0,1,,,,,,,,0,,,82,0
157548,note_on,48,0,1,,,,,,,,0,,,70,0
157548,note_on,0,0,2,,,,,,,,0,,,58,0
157548,note_on,48,0,2,,,,,,,,0,,,62,0
157548,note_on,0,0,2,,,,,,,,0,,,65,0
157548,note_on,0,0,2,,,,,,,,0,,,68,0
157560,note_on,0,0,1,,,,,,,,0,,,82,80
157560,note_on,0,0,2,,,,,,,,0,,,65,80
157560,note_on,0,0,2,,,,,,,,0,,,62,80
157560,note_on,12,0,1,,,,,,,,0,,,70,80
157560,note_on,0,0,2,,,,,,,,0,,,58,80
157560,note_on,0,0,1,,,,,,,,0,,,74,80
157560,note_on,12,0,2,,,,,,,,0,,,68,80
157631,control_change,311,0,4,,,,,,,,0,64,0,,
157656,note_on,0,0,1,,,,,,,,0,,,70,0
157656,note_on,96,0,2,,,,,,,,0,,,65,0
157656,note_on,0,0,2,,,,,,,,0,,,58,0
157656,note_on,96,0,1,,,,,,,,0,,,74,0
157656,note_on,0,0,2,,,,,,,,0,,,62,0
157656,note_on,0,0,1,,,,,,,,0,,,82,0
157656,note_on,0,0,2,,,,,,,,0,,,68,0
157669,control_change,38,0,4,,,,,,,,0,64,127,,
157680,note_on,24,0,2,,,,,,,,0,,,62,80
157680,note_on,0,0,1,,,,,,,,0,,,74,80
157680,note_on,0,0,2,,,,,,,,0,,,58,80
157680,note_on,0,0,1,,,,,,,,0,,,82,80
157680,note_on,0,0,2,,,,,,,,0,,,65,80
157680,note_on,0,0,2,,,,,,,,0,,,68,80
157680,note_on,24,0,1,,,,,,,,0,,,70,80
157776,note_on,0,0,1,,,,,,,,0,,,70,0
157776,note_on,0,0,1,,,,,,,,0,,,82,0
157776,note_on,0,0,2,,,,,,,,0,,,62,0
157776,note_on,96,0,1,,,,,,,,0,,,74,0
157776,note_on,0,0,2,,,,,,,,0,,,68,0
157776,note_on,0,0,2,,,,,,,,0,,,58,0
157776,note_on,96,0,2,,,,,,,,0,,,65,0
157860,note_on,0,0,2,,,,,,,,0,,,65,80
157860,note_on,84,0,2,,,,,,,,0,,,62,80
157860,note_on,0,0,2,,,,,,,,0,,,59,80
157860,note_on,0,0,2,,,,,,,,0,,,68,80
157860,note_on,0,0,1,,,,,,,,0,,,83,80
157860,note_on,84,0,1,,,,,,,,0,,,74,80
157860,note_on,0,0,1,,,,,,,,0,,,71,80
157908,note_on,0,0,1,,,,,,,,0,,,74,0
157908,note_on,48,0,2,,,,,,,,0,,,59,0
157908,note_on,0,0,1,,,,,,,,0,,,71,0
157908,note_on,48,0,1,,,,,,,,0,,,83,0
157908,note_on,0,0,2,,,,,,,,0,,,65,0
157908,note_on,0,0,2,,,,,,,,0,,,68,0
157908,note_on,0,0,2,,,,,,,,0,,,62,0
157920,note_on,0,0,1,,,,,,,,0,,,83,80
157920,note_on,0,0,2,,,,,,,,0,,,59,80
157920,note_on,0,0,2,,,,,,,,0,,,62,80
157920,note_on,0,0,2,,,,,,,,0,,,68,80
157920,note_on,0,0,1,,,,,,,,0,,,74,80
157920,note_on,12,0,2,,,,,,,,0,,,65,80
157920,note_on,12,0,1,,,,,,,,0,,,71,80
158016,note_on,0,0,1,,,,,,,,0,,,83,0
158016,note_on,0,0,1,,,,,,,,0,,,71,0
158016,note_on,96,0,1,,,,,,,,0,,,74,0
158016,note_on,0,0,2,,,,,,,,0,,,59,0
158016,note_on,0,0,2,,,,,,,,0,,,62,0
158016,note_on,0,0,2,,,,,,,,0,,,65,0
158016,note_on,96,0,2,,,,,,,,0,,,68,0
158040,control_change,371,0,4,,,,,,,,0,64,0,,
158040,note_on,0,0,1,,,,,,,,0,,,71,80
158040,note_on,24,0,1,,,,,,,,0,,,83,80
158040,note_on,24,0,2,,,,,,,,0,,,65,80
158040,note_on,0,0,2,,,,,,,,0,,,68,80
158040,note_on,0,0,2,,,,,,,,0,,,59,80
158040,note_on,0,0,1,,,,,,,,0,,,74,80
158040,note_on,0,0,2,,,,,,,,0,,,62,80
158063,control_change,23,0,4,,,,,,,,0,64,127,,
158136,note_on,0,0,2,,,,,,,,0,,,62,0
158136,note_on,0,0,2,,,,,,,,0,,,68,0
158136,note_on,0,0,1,,,,,,,,0,,,74,0
158136,note_on,96,0,2,,,,,,,,0,,,59,0
158136,note_on,0,0,1,,,,,,,,0,,,83,0
158136,note_on,96,0,1,,,,,,,,0,,,71,0
158136,note_on,0,0,2,,,,,,,,0,,,65,0
158220,note_on,0,0,1,,,,,,,,0,,,83,80
158220,note_on,0,0,1,,,,,,,,0,,,71,80
158220,note_on,84,0,2,,,,,,,,0,,,66,80
158220,note_on,84,0,1,,,,,,,,0,,,75,80
158220,note_on,0,0,2,,,,,,,,0,,,59,80
158220,note_on,0,0,2,,,,,,,,0,,,63,80
158220,note_on,0,0,2,,,,,,,,0,,,69,80
158268,note_on,0,0,2,,,,,,,,0,,,69,0
158268,note_on,48,0,1,,,,,,,,0,,,71,0
158268,note_on,0,0,2,,,,,,,,0,,,63,0
158268,note_on,0,0,1,,,,,,,,0,,,75,0
158268,note_on,0,0,2,,,,,,,,0,,,66,0
158268,note_on,0,0,1,,,,,,,,0,,,83,0
158268,note_on,48,0,2,,,,,,,,0,,,59,0
158280,note_on,0,0,1,,,,,,,,0,,,71,80
158280,note_on,0,0,2,,,,,,,,0,,,59,80
158280,note_on,0,0,1,,,,,,,,0,,,75,80
158280,note_on,0,0,2,,,,,,,,0,,,69,80
158280,note_on,0,0,2,,,,,,,,0,,,66,80
158280,note_on,12,0,1,,,,,,,,0,,,83,80
158280,note_on,12,0,2,,,,,,,,0,,,63,80
158376,note_on,0,0,1,,,,,,,,0,,,71,0
158376,note_on,0,0,1,,,,,,,,0,,,83,0
158376,note_on,96,0,1,,,,,,,,0,,,75,0
158376,note_on,96,0,2,,,,,,,,0,,,66,0
158376,note_on,0,0,2,,,,,,,,0,,,69,0
158376,note_on,0,0,2,,,,,,,,0,,,59,0
158376,note_on,0,0,2,,,,,,,,0,,,63,0
158390,control_change,327,0,4,,,,,,,,0,64,0,,
158400,note_on,0,0,1,,,,,,,,0,,,83,80
158400,note_on,0,0,1,,,,,,,,0,,,71,80
158400,note_on,0,0,2,,,,,,,,0,,,63,80
158400,note_on,0,0,2,,,,,,,,0,,,66,80
158400,note_on,24,0,1,,,,,,,,0,,,75,80
158400,note_on,0,0,2,,,,,,,,0,,,69,80
158400,note_on,24,0,2,,,,,,,,0,,,59,80
158412,control_change,22,0,4,,,,,,,,0,64,127,,
158496,note_on,0,0,2,,,,,,,,0,,,59,0
158496,note_on,0,0,2,,,,,,,,0,,,66,0
158496,note_on,0,0,1,,,,,,,,0,,,75,0
158496,note_on,0,0,1,,,,,,,,0,,,83,0
158496,note_on,96,0,1,,,,,,,,0,,,71,0
158496,note_on,96,0,2,,,,,,,,0,,,69,0
158496,note_on,0,0,2,,,,,,,,0,,,63,0
158580,note_on,84,0,2,,,,,,,,0,,,62,80
158580,note_on,84,0,1,,,,,,,,0,,,83,80
158580,note_on,0,0,2,,,,,,,,0,,,55,80
158580,note_on,0,0,2,,,,,,,,0,,,65,80
158580,note_on,0,0,2,,,,,,,,0,,,67,80
158580,note_on,0,0,1,,,,,,,,0,,,77,80
158580,note_on,0,0,1,,,,,,,,0,,,91,80
158580,note_on,0,0,1,,,,,,,,0,,,79,80
158628,note_on,0,0,1,,,,,,,,0,,,77,0
158628,note_on,0,0,1,,,,,,,,0,,,91,0
158628,note_on,0,0,2,,,,,,,,0,,,62,0
158628,note_on,48,0,1,,,,,,,,0,,,79,0
158628,note_on,0,0,2,,,,,,,,0,,,55,0
158628,note_on,0,0,2,,,,,,,,0,,,67,0
158628,note_on,48,0,2,,,,,,,,0,,,65,0
158628,note_on,0,0,1,,,,,,,,0,,,83,0
158640,note_on,12,0,2,,,,,,,,0,,,55,80
158640,note_on,12,0,1,,,,,,,,0,,,83,80
158640,note_on,0,0,2,,,,,,,,0,,,65,80
158640,note_on,0,0,2,,,,,,,,0,,,62,80
158640,note_on,0,0,2,,,,,,,,0,,,67,80
158640,note_on,0,0,1,,,,,,,,0,,,91,80
158640,note_on,0,0,1,,,,,,,,0,,,79,80
158640,note_on,0,0,1,,,,,,,,0,,,77,80
158733,control_change,321,0,4,,,,,,,,0,64,0,,
158736,note_on,0,0,2,,,,,,,,0,,,55,0
158736,note_on,0,0,2,,,,,,,,0,,,62,0
158736,note_on,0,0,1,,,,,,,,0,,,83,0
158736,note_on,96,0,1,,,,,,,,0,,,91,0
158736,note_on,0,0,2,,,,,,,,0,,,67,0
158736,note_on,0,0,1,,,,,,,,0,,,79,0
158736,note_on,0,0,1,,,,,,,,0,,,77,0
158736,note_on,96,0,2,,,,,,,,0,,,65,0
158753,set_tempo,2505,1,0,,,,,,388249,,,,,,
158760,note_on,0,0,2,,,,,,,,0,,,65,80
158760,note_on,24,0,1,,,,,,,,0,,,77,80
158760,note_on,24,0,2,,,,,,,,0,,,55,80
158760,note_on,0,0,1,,,,,,,,0,,,91,80
158760,note_on,0,0,1,,,,,,,,0,,,83,80
158760,note_on,0,0,1,,,,,,,,0,,,79,80
158760,note_on,0,0,2,,,,,,,,0,,,67,80
158760,note_on,0,0,2,,,,,,,,0,,,62,80
158764,control_change,31,0,4,,,,,,,,0,64,127,,
158784,set_tempo,31,1,0,,,,,,390117,,,,,,
158810,set_tempo,26,1,0,,,,,,392003,,,,,,
158841,set_tempo,31,1,0,,,,,,393908,,,,,,
158856,note_on,0,0,2,,,,,,,,0,,,55,0
158856,note_on,0,0,2,,,,,,,,0,,,65,0
158856,note_on,0,0,2,,,,,,,,0,,,67,0
158856,note_on,0,0,1,,,,,,,,0,,,91,0
158856,note_on,0,0,1,,,,,,,,0,,,77,0
158856,note_on,96,0,2,,,,,,,,0,,,62,0
158856,note_on,96,0,1,,,,,,,,0,,,83,0
158856,note_on,0,0,1,,,,,,,,0,,,79,0
158867,set_tempo,26,1,0,,,,,,395831,,,,,,
158897,set_tempo,30,1,0,,,,,,397772,,,,,,
158924,set_tempo,27,1,0,,,,,,399734,,,,,,
158940,note_on,0,0,4,,,,,,,,0,,,43,80
158940,note_on,0,0,4,,,,,,,,0,,,50,80
158940,note_on,0,0,4,,,,,,,,0,,,53,80
158940,note_on,176,0,4,,,,,,,,0,,,55,80
158940,note_on,84,0,1,,,,,,,,0,,,91,80
158940,note_on,0,0,1,,,,,,,,0,,,77,80
158940,note_on,0,0,1,,,,,,,,0,,,79,80
158940,note_on,0,0,1,,,,,,,,0,,,83,80
158950,set_tempo,26,1,0,,,,,,401714,,,,,,
158980,set_tempo,30,1,0,,,,,,403714,,,,,,
158988,note_on,48,0,1,,,,,,,,0,,,83,0
158988,note_on,48,0,4,,,,,,,,0,,,50,0
158988,note_on,0,0,1,,,,,,,,0,,,91,0
158988,note_on,0,0,4,,,,,,,,0,,,55,0
158988,note_on,0,0,4,,,,,,,,0,,,53,0
158988,note_on,0,0,4,,,,,,,,0,,,43,0
158988,note_on,0,0,1,,,,,,,,0,,,77,0
158988,note_on,0,0,1,,,,,,,,0,,,79,0
159000,note_on,0,0,4,,,,,,,,0,,,55,80
159000,note_on,0,0,4,,,,,,,,0,,,53,80
159000,note_on,0,0,4,,,,,,,,0,,,43,80
159000,note_on,12,0,1,,,,,,,,0,,,79,80
159000,note_on,12,0,4,,,,,,,,0,,,50,80
159000,note_on,0,0,1,,,,,,,,0,,,83,80
159000,note_on,0,0,1,,,,,,,,0,,,91,80
159006,set_tempo,26,1,0,,,,,,405734,,,,,,
159037,set_tempo,31,1,0,,,,,,407775,,,,,,
159063,set_tempo,26,1,0,,,,,,409836,,,,,,
159094,set_tempo,31,1,0,,,,,,411918,,,,,,
159096,note_on,0,0,1,,,,,,,,0,,,91,0
159096,note_on,0,0,1,,,,,,,,0,,,79,0
159096,note_on,96,0,4,,,,,,,,0,,,53,0
159096,note_on,96,0,1,,,,,,,,0,,,83,0
159096,note_on,0,0,4,,,,,,,,0,,,43,0
159096,note_on,0,0,4,,,,,,,,0,,,50,0
159096,note_on,0,0,4,,,,,,,,0,,,55,0
159100,control_change,4,0,4,,,,,,,,0,64,0,,
159120,note_on,0,0,4,,,,,,,,0,,,55,80
159120,note_on,0,0,4,,,,,,,,0,,,53,80
159120,note_on,0,0,4,,,,,,,,0,,,43,80
159120,note_on,24,0,1,,,,,,,,0,,,91,80
159120,note_on,20,0,4,,,,,,,,0,,,50,80
159120,note_on,0,0,1,,,,,,,,0,,,77,80
159120,note_on,0,0,1,,,,,,,,0,,,79,80
159120,note_on,0,0,1,,,,,,,,0,,,83,80
159120,set_tempo,26,1,0,,,,,,414022,,,,,,
159146,set_tempo,26,1,0,,,,,,416146,,,,,,
159164,control_change,44,0,4,,,,,,,,0,64,127,,
159177,set_tempo,31,1,0,,,,,,418293,,,,,,
159203,set_tempo,26,1,0,,,,,,420463,,,,,,
159216,note_on,0,0,4,,,,,,,,0,,,50,0
159216,note_on,0,0,4,,,,,,,,0,,,53,0
159216,note_on,0,0,4,,,,,,,,0,,,55,0
159216,note_on,52,0,4,,,,,,,,0,,,43,0
159216,note_on,96,0,1,,,,,,,,0,,,77,0
159216,note_on,0,0,1,,,,,,,,0,,,91,0
159216,note_on,0,0,1,,,,,,,,0,,,83,0
159216,note_on,0,0,1,,,,,,,,0,,,79,0
159233,set_tempo,30,1,0,,,,,,422654,,,,,,
159260,set_tempo,27,1,0,,,,,,424869,,,,,,
159290,set_tempo,30,1,0,,,,,,427107,,,,,,
159300,note_on,84,0,1,,,,,,,,0,,,79,80
159300,note_on,0,0,1,,,,,,,,0,,,91,80
159300,note_on,0,0,1,,,,,,,,0,,,77,80
159300,note_on,84,0,4,,,,,,,,0,,,31,80
159300,note_on,0,0,1,,,,,,,,0,,,83,80
159300,note_on,0,0,4,,,,,,,,0,,,38,80
159300,note_on,0,0,4,,,,,,,,0,,,43,80
159316,set_tempo,26,1,0,,,,,,429369,,,,,,
159342,set_tempo,26,1,0,,,,,,431655,,,,,,
159348,note_on,0,0,4,,,,,,,,0,,,31,0
159348,note_on,0,0,1,,,,,,,,0,,,77,0
159348,note_on,0,0,1,,,,,,,,0,,,83,0
159348,note_on,48,0,4,,,,,,,,0,,,43,0
159348,note_on,0,0,4,,,,,,,,0,,,38,0
159348,note_on,48,0,1,,,,,,,,0,,,91,0
159348,note_on,0,0,1,,,,,,,,0,,,79,0
159360,note_on,0,0,4,,,,,,,,0,,,38,80
159360,note_on,0,0,4,,,,,,,,0,,,43,80
159360,note_on,0,0,1,,,,,,,,0,,,83,80
159360,note_on,0,0,1,,,,,,,,0,,,91,80
159360,note_on,12,0,4,,,,,,,,0,,,31,80
159360,note_on,0,0,1,,,,,,,,0,,,79,80
159360,note_on,12,0,1,,,,,,,,0,,,77,80
159373,set_tempo,31,1,0,,,,,,433965,,,,,,
159399,set_tempo,26,1,0,,,,,,436300,,,,,,
159430,set_tempo,31,1,0,,,,,,438661,,,,,,
159448,control_change,88,0,4,,,,,,,,0,64,0,,
159456,set_tempo,26,1,0,,,,,,441047,,,,,,
159456,note_on,0,0,4,,,,,,,,0,,,31,0
159456,note_on,0,0,4,,,,,,,,0,,,43,0
159456,note_on,96,0,1,,,,,,,,0,,,79,0
159456,note_on,8,0,4,,,,,,,,0,,,38,0
159456,note_on,0,0,1,,,,,,,,0,,,77,0
159456,note_on,0,0,1,,,,,,,,0,,,83,0
159456,note_on,0,0,1,,,,,,,,0,,,91,0
159480,note_on,0,0,4,,,,,,,,0,,,36,80
159480,control_change,0,0,4,,,,,,,,0,64,127,,
159480,note_on,0,0,1,,,,,,,,0,,,88,80
159480,note_on,0,0,1,,,,,,,,0,,,91,80
159480,note_on,0,0,1,,,,,,,,0,,,96,80
159480,note_on,0,0,4,,,,,,,,0,,,48,80
159480,note_on,0,0,4,,,,,,,,0,,,43,80
159480,note_on,24,0,4,,,,,,,,0,,,40,80
159480,note_on,24,0,1,,,,,,,,0,,,100,80
159482,set_tempo,26,1,0,,,,,,443459,,,,,,
159576,note_on,0,0,4,,,,,,,,0,,,36,0
159576,note_on,0,0,4,,,,,,,,0,,,40,0
159576,note_on,96,0,1,,,,,,,,0,,,96,0
159576,note_on,96,0,4,,,,,,,,0,,,48,0
159576,note_on,0,0,1,,,,,,,,0,,,100,0
159576,note_on,0,0,1,,,,,,,,0,,,88,0
159576,note_on,0,0,4,,,,,,,,0,,,43,0
159576,note_on,0,0,1,,,,,,,,0,,,91,0
159660,note_on,0,0,4,,,,,,,,0,,,43,80
159660,note_on,0,0,4,,,,,,,,0,,,48,80
159660,note_on,0,0,4,,,,,,,,0,,,52,80
159660,note_on,0,0,1,,,,,,,,0,,,88,80
159660,note_on,0,0,1,,,,,,,,0,,,96,80
159660,note_on,0,0,1,,,,,,,,0,,,84,80
159660,note_on,84,0,1,,,,,,,,0,,,91,80
159660,note_on,84,0,4,,,,,,,,0,,,40,80
159708,note_on,0,0,1,,,,,,,,0,,,88,0
159708,note_on,0,0,1,,,,,,,,0,,,84,0
159708,note_on,48,0,4,,,,,,,,0,,,52,0
159708,note_on,0,0,4,,,,,,,,0,,,40,0
159708,note_on,0,0,4,,,,,,,,0,,,43,0
159708,note_on,0,0,1,,,,,,,,0,,,91,0
159708,note_on,48,0,1,,,,,,,,0,,,96,0
159708,note_on,0,0,4,,,,,,,,0,,,48,0
159720,note_on,0,0,4,,,,,,,,0,,,52,80
159720,note_on,0,0,1,,,,,,,,0,,,88,80
159720,note_on,0,0,1,,,,,,,,0,,,91,80
159720,note_on,0,0,4,,,,,,,,0,,,40,80
159720,note_on,12,0,1,,,,,,,,0,,,96,80
159720,note_on,0,0,1,,,,,,,,0,,,84,80
159720,note_on,12,0,4,,,,,,,,0,,,43,80
159720,note_on,0,0,4,,,,,,,,0,,,48,80
159794,control_change,74,0,4,,,,,,,,0,64,0,,
159816,note_on,0,0,1,,,,,,,,0,,,88,0
159816,note_on,0,0,1,,,,,,,,0,,,84,0
159816,note_on,0,0,1,,,,,,,,0,,,96,0
159816,note_on,22,0,4,,,,,,,,0,,,40,0
159816,note_on,0,0,4,,,,,,,,0,,,48,0
159816,note_on,0,0,4,,,,,,,,0,,,52,0
159816,note_on,96,0,1,,,,,,,,0,,,91,0
159816,note_on,0,0,4,,,,,,,,0,,,43,0
159840,note_on,0,0,4,,,,,,,,0,,,43,80
159840,note_on,0,0,4,,,,,,,,0,,,40,80
159840,note_on,0,0,4,,,,,,,,0,,,48,80
159840,note_on,0,0,1,,,,,,,,0,,,96,80
159840,note_on,0,0,4,,,,,,,,0,,,52,80
159840,note_on,0,0,1,,,,,,,,0,,,88,80
159840,note_on,0,0,1,,,,,,,,0,,,84,80
159840,control_change,24,0,4,,,,,,,,0,64,127,,
159840,note_on,24,0,1,,,,,,,,0,,,91,80
159936,note_on,0,0,1,,,,,,,,0,,,84,0
159936,note_on,0,0,4,,,,,,,,0,,,52,0
159936,note_on,0,0,1,,,,,,,,0,,,88,0
159936,note_on,0,0,1,,,,,,,,0,,,91,0
159936,note_on,0,0,4,,,,,,,,0,,,43,0
159936,note_on,96,0,4,,,,,,,,0,,,48,0
159936,note_on,0,0,4,,,,,,,,0,,,40,0
159936,note_on,96,0,1,,,,,,,,0,,,96,0
160020,note_on,84,0,1,,,,,,,,0,,,79,80
160020,note_on,0,0,1,,,,,,,,0,,,88,80
160020,note_on,0,0,1,,,,,,,,0,,,84,80
160020,note_on,84,0,4,,,,,,,,0,,,48,80
160020,note_on,0,0,4,,,,,,,,0,,,43,80
160020,note_on,0,0,4,,,,,,,,0,,,52,80
160020,note_on,0,0,4,,,,,,,,0,,,55,80
160020,note_on,0,0,1,,,,,,,,0,,,91,80
160068,note_on,0,0,4,,,,,,,,0,,,48,0
160068,note_on,0,0,4,,,,,,,,0,,,55,0
160068,note_on,0,0,1,,,,,,,,0,,,79,0
160068,note_on,0,0,4,,,,,,,,0,,,52,0
160068,note_on,0,0,1,,,,,,,,0,,,88,0
160068,note_on,0,0,1,,,,,,,,0,,,84,0
160068,note_on,48,0,4,,,,,,,,0,,,43,0
160068,note_on,48,0,1,,,,,,,,0,,,91,0
160080,note_on,0,0,4,,,,,,,,0,,,52,80
160080,note_on,0,0,4,,,,,,,,0,,,55,80
160080,note_on,12,0,1,,,,,,,,0,,,91,80
160080,note_on,12,0,4,,,,,,,,0,,,43,80
160080,note_on,0,0,1,,,,,,,,0,,,84,80
160080,note_on,0,0,4,,,,,,,,0,,,48,80
160080,note_on,0,0,1,,,,,,,,0,,,79,80
160080,note_on,0,0,1,,,,,,,,0,,,88,80
160172,control_change,92,0,4,,,,,,,,0,64,0,,
160176,note_on,0,0,1,,,,,,,,0,,,84,0
160176,note_on,96,0,1,,,,,,,,0,,,88,0
160176,note_on,4,0,4,,,,,,,,0,,,48,0
160176,note_on,0,0,1,,,,,,,,0,,,91,0
160176,note_on,0,0,4,,,,,,,,0,,,43,0
160176,note_on,0,0,4,,,,,,,,0,,,52,0
160176,note_on,0,0,4,,,,,,,,0,,,55,0
160176,note_on,0,0,1,,,,,,,,0,,,79,0
160200,note_on,0,0,1,,,,,,,,0,,,84,80
160200,note_on,0,0,1,,,,,,,,0,,,88,80
160200,note_on,24,0,4,,,,,,,,0,,,52,80
160200,note_on,0,0,1,,,,,,,,0,,,81,80
160200,control_change,0,0,4,,,,,,,,0,64,127,,
160200,note_on,0,0,4,,,,,,,,0,,,57,80
160200,note_on,0,0,4,,,,,,,,0,,,48,80
160200,note_on,0,0,4,,,,,,,,0,,,45,80
160200,note_on,24,0,1,,,,,,,,0,,,76,80
160296,note_on,96,0,4,,,,,,,,0,,,48,0
160296,note_on,96,0,1,,,,,,,,0,,,84,0
160296,note_on,0,0,1,,,,,,,,0,,,76,0
160296,note_on,0,0,1,,,,,,,,0,,,88,0
160296,note_on,0,0,1,,,,,,,,0,,,81,0
160296,note_on,0,0,4,,,,,,,,0,,,45,0
160296,note_on,0,0,4,,,,,,,,0,,,52,0
160296,note_on,0,0,4,,,,,,,,0,,,57,0
160380,note_on,0,0,1,,,,,,,,0,,,72,80
160380,note_on,84,0,4,,,,,,,,0,,,48,80
160380,note_on,0,0,1,,,,,,,,0,,,84,80
160380,note_on,0,0,4,,,,,,,,0,,,60,80
160380,note_on,84,0,1,,,,,,,,0,,,76,80
160380,note_on,0,0,4,,,,,,,,0,,,57,80
160380,note_on,0,0,4,,,,,,,,0,,,52,80
160380,note_on,0,0,1,,,,,,,,0,,,81,80
160428,note_on,0,0,1,,,,,,,,0,,,84,0
160428,note_on,48,0,1,,,,,,,,0,,,72,0
160428,note_on,0,0,1,,,,,,,,0,,,81,0
160428,note_on,48,0,4,,,,,,,,0,,,52,0
160428,note_on,0,0,1,,,,,,,,0,,,76,0
160428,note_on,0,0,4,,,,,,,,0,,,48,0
160428,note_on,0,0,4,,,,,,,,0,,,57,0
160428,note_on,0,0,4,,,,,,,,0,,,60,0
160440,note_on,12,0,1,,,,,,,,0,,,72,80
160440,note_on,12,0,4,,,,,,,,0,,,48,80
160440,note_on,0,0,4,,,,,,,,0,,,60,80
160440,note_on,0,0,4,,,,,,,,0,,,52,80
160440,note_on,0,0,4,,,,,,,,0,,,57,80
160440,note_on,0,0,1,,,,,,,,0,,,76,80
160440,note_on,0,0,1,,,,,,,,0,,,81,80
160440,note_on,0,0,1,,,,,,,,0,,,84,80
160523,control_change,83,0,4,,,,,,,,0,64,0,,
160536,note_on,0,0,1,,,,,,,,0,,,72,0
160536,note_on,0,0,1,,,,,,,,0,,,81,0
160536,note_on,0,0,4,,,,,,,,0,,,48,0
160536,note_on,0,0,1,,,,,,,,0,,,84,0
160536,note_on,96,0,1,,,,,,,,0,,,76,0
160536,note_on,0,0,4,,,,,,,,0,,,60,0
160536,note_on,0,0,4,,,,,,,,0,,,52,0
160536,note_on,13,0,4,,,,,,,,0,,,57,0
160560,note_on,24,0,1,,,,,,,,0,,,72,80
160560,note_on,0,0,4,,,,,,,,0,,,60,80
160560,note_on,24,0,4,,,,,,,,0,,,48,80
160560,note_on,0,0,4,,,,,,,,0,,,57,80
160560,note_on,0,0,1,,,,,,,,0,,,76,80
160560,note_on,0,0,4,,,,,,,,0,,,52,80
160560,note_on,0,0,1,,,,,,,,0,,,81,80
160560,note_on,0,0,1,,,,,,,,0,,,84,80
160848,note_on,0,0,4,,,,,,,,0,,,48,0
160848,note_on,0,0,4,,,,,,,,0,,,57,0
160848,note_on,288,0,1,,,,,,,,0,,,84,0
160848,note_on,0,0,1,,,,,,,,0,,,72,0
160848,note_on,0,0,4,,,,,,,,0,,,60,0
160848,note_on,0,0,1,,,,,,,,0,,,76,0
160848,note_on,0,0,1,,,,,,,,0,,,81,0
160848,note_on,288,0,4,,,,,,,,0,,,52,0
160920,note_on,0,0,1,,,,,,,,0,,,77,80
160920,control_change,72,0,4,,,,,,,,0,64,127,,
160920,note_on,0,0,1,,,,,,,,0,,,79,80
160920,note_on,72,0,1,,,,,,,,0,,,83,80
160920,note_on,0,0,1,,,,,,,,0,,,91,80
160920,note_on,0,0,4,,,,,,,,0,,,55,80
160920,note_on,0,0,4,,,,,,,,0,,,43,80
160920,note_on,0,0,4,,,,,,,,0,,,50,80
161016,note_on,0,0,1,,,,,,,,0,,,79,0
161016,note_on,0,0,1,,,,,,,,0,,,91,0
161016,note_on,0,0,4,,,,,,,,0,,,50,0
161016,note_on,0,0,4,,,,,,,,0,,,43,0
161016,note_on,96,0,1,,,,,,,,0,,,77,0
161016,note_on,0,0,1,,,,,,,,0,,,83,0
161016,note_on,96,0,4,,,,,,,,0,,,55,0
161100,note_on,0,0,1,,,,,,,,0,,,86,80
161100,note_on,84,0,1,,,,,,,,0,,,79,80
161100,note_on,0,0,1,,,,,,,,0,,,74,80
161100,note_on,0,0,4,,,,,,,,0,,,59,80
161100,note_on,0,0,4,,,,,,,,0,,,55,80
161100,note_on,84,0,4,,,,,,,,0,,,65,80
161148,note_on,48,0,4,,,,,,,,0,,,55,0
161148,note_on,0,0,4,,,,,,,,0,,,65,0
161148,note_on,0,0,4,,,,,,,,0,,,59,0
161148,note_on,0,0,1,,,,,,,,0,,,74,0
161148,note_on,0,0,1,,,,,,,,0,,,79,0
161148,note_on,48,0,1,,,,,,,,0,,,86,0
161160,note_on,0,0,4,,,,,,,,0,,,59,80
161160,note_on,12,0,4,,,,,,,,0,,,55,80
161160,note_on,0,0,4,,,,,,,,0,,,65,80
161160,note_on,0,0,1,,,,,,,,0,,,79,80
161160,note_on,0,0,1,,,,,,,,0,,,86,80
161160,note_on,12,0,1,,,,,,,,0,,,74,80
161256,note_on,0,0,4,,,,,,,,0,,,59,0
161256,note_on,96,0,4,,,,,,,,0,,,65,0
161256,note_on,96,0,1,,,,,,,,0,,,86,0
161256,note_on,0,0,1,,,,,,,,0,,,74,0
161256,note_on,0,0,1,,,,,,,,0,,,79,0
161256,note_on,0,0,4,,,,,,,,0,,,55,0
161280,note_on,0,0,4,,,,,,,,0,,,55,80
161280,note_on,24,0,4,,,,,,,,0,,,65,80
161280,note_on,0,0,1,,,,,,,,0,,,73,80
161280,note_on,0,0,1,,,,,,,,0,,,85,80
161280,note_on,0,0,4,,,,,,,,0,,,58,80
161280,note_on,24,0,1,,,,,,,,0,,,79,80
161376,note_on,96,0,1,,,,,,,,0,,,85,0
161376,note_on,96,0,4,,,,,,,,0,,,58,0
161376,note_on,0,0,4,,,,,,,,0,,,55,0
161376,note_on,0,0,4,,,,,,,,0,,,65,0
161376,note_on,0,0,1,,,,,,,,0,,,73,0
161376,note_on,0,0,1,,,,,,,,0,,,79,0
161460,note_on,84,0,1,,,,,,,,0,,,74,80
161460,note_on,0,0,1,,,,,,,,0,,,79,80
161460,note_on,0,0,4,,,,,,,,0,,,55,80
161460,note_on,0,0,4,,,,,,,,0,,,65,80
161460,note_on,0,0,1,,,,,,,,0,,,86,80
161460,note_on,84,0,4,,,,,,,,0,,,59,80
161508,note_on,0,0,1,,,,,,,,0,,,74,0
161508,note_on,0,0,4,,,,,,,,0,,,59,0
161508,note_on,48,0,4,,,,,,,,0,,,65,0
161508,note_on,0,0,4,,,,,,,,0,,,55,0
161508,note_on,48,0,1,,,,,,,,0,,,86,0
161508,note_on,0,0,1,,,,,,,,0,,,79,0
161520,note_on,12,0,4,,,,,,,,0,,,65,80
161520,note_on,0,0,1,,,,,,,,0,,,87,80
161520,note_on,0,0,1,,,,,,,,0,,,79,80
161520,note_on,12,0,1,,,,,,,,0,,,75,80
161520,note_on,0,0,4,,,,,,,,0,,,55,80
161520,note_on,0,0,4,,,,,,,,0,,,59,80
161605,control_change,85,0,4,,,,,,,,0,64,0,,
161616,note_on,0,0,4,,,,,,,,0,,,65,0
161616,note_on,0,0,1,,,,,,,,0,,,87,0
161616,note_on,96,0,1,,,,,,,,0,,,79,0
161616,note_on,0,0,4,,,,,,,,0,,,59,0
161616,note_on,11,0,4,,,,,,,,0,,,55,0
161616,note_on,0,0,1,,,,,,,,0,,,75,0
161640,note_on,0,0,1,,,,,,,,0,,,79,80
161640,note_on,0,0,4,,,,,,,,0,,,64,80
161640,note_on,0,0,1,,,,,,,,0,,,88,80
161640,note_on,0,0,4,,,,,,,,0,,,60,80
161640,control_change,24,0,4,,,,,,,,0,64,127,,
161640,note_on,24,0,1,,,,,,,,0,,,76,80
161928,note_on,288,0,1,,,,,,,,0,,,79,0
161928,note_on,0,0,4,,,,,,,,0,,,64,0
161928,note_on,0,0,1,,,,,,,,0,,,88,0
161928,note_on,288,0,4,,,,,,,,0,,,60,0
161928,note_on,0,0,1,,,,,,,,0,,,76,0
162000,note_on,0,0,1,,,,,,,,0,,,72,80
162000,note_on,72,0,4,,,,,,,,0,,,64,80
162000,note_on,0,0,1,,,,,,,,0,,,84,80
162000,note_on,0,0,4,,,,,,,,0,,,67,80
162000,note_on,72,0,1,,,,,,,,0,,,76,80
162096,note_on,96,0,4,,,,,,,,0,,,67,0
162096,note_on,0,0,1,,,,,,,,0,,,72,0
162096,note_on,96,0,1,,,,,,,,0,,,84,0
162096,note_on,0,0,4,,,,,,,,0,,,64,0
162096,note_on,0,0,1,,,,,,,,0,,,76,0
162214,control_change,118,0,4,,,,,,,,0,64,0,,
162360,note_on,0,0,1,,,,,,,,0,,,100,80
162360,note_on,0,0,1,,,,,,,,0,,,91,80
162360,control_change,0,0,4,,,,,,,,0,64,127,,
162360,note_on,264,0,1,,,,,,,,0,,,96,80
162360,note_on,146,0,4,,,,,,,,0,,,36,80
162360,note_on,0,0,4,,,,,,,,0,,,43,80
162360,note_on,0,0,4,,,,,,,,0,,,40,80
162360,note_on,0,0,1,,,,,,,,0,,,88,80
162360,note_on,0,0,4,,,,,,,,0,,,48,80
162456,note_on,96,0,4,,,,,,,,0,,,40,0
162456,note_on,0,0,1,,,,,,,,0,,,91,0
162456,note_on,96,0,1,,,,,,,,0,,,88,0
162456,note_on,0,0,1,,,,,,,,0,,,100,0
162456,note_on,0,0,4,,,,,,,,0,,,48,0
162456,note_on,0,0,4,,,,,,,,0,,,43,0
162456,note_on,0,0,4,,,,,,,,0,,,36,0
162456,note_on,0,0,1,,,,,,,,0,,,96,0
162540,note_on,0,0,4,,,,,,,,0,,,48,80
162540,note_on,0,0,4,,,,,,,,0,,,43,80
162540,note_on,0,0,1,,,,,,,,0,,,88,80
162540,note_on,84,0,1,,,,,,,,0,,,96,80
162540,note_on,0,0,1,,,,,,,,0,,,84,80
162540,note_on,84,0,4,,,,,,,,0,,,52,80
162540,note_on,0,0,1,,,,,,,,0,,,91,80
162540,note_on,0,0,4,,,,,,,,0,,,40,80
162588,note_on,0,0,1,,,,,,,,0,,,88,0
162588,note_on,0,0,4,,,,,,,,0,,,40,0
162588,note_on,48,0,1,,,,,,,,0,,,84,0
162588,note_on,0,0,1,,,,,,,,0,,,91,0
162588,note_on,0,0,4,,,,,,,,0,,,43,0
162588,note_on,0,0,4,,,,,,,,0,,,52,0
162588,note_on,48,0,4,,,,,,,,0,,,48,0
162588,note_on,0,0,1,,,,,,,,0,,,96,0
162600,note_on,0,0,4,,,,,,,,0,,,52,80
162600,note_on,12,0,4,,,,,,,,0,,,43,80
162600,note_on,0,0,4,,,,,,,,0,,,48,80
162600,note_on,0,0,4,,,,,,,,0,,,40,80
162600,note_on,0,0,1,,,,,,,,0,,,91,80
162600,note_on,0,0,1,,,,,,,,0,,,84,80
162600,note_on,0,0,1,,,,,,,,0,,,88,80
162600,note_on,12,0,1,,,,,,,,0,,,96,80
162692,control_change,92,0,4,,,,,,,,0,64,0,,
162696,note_on,96,0,1,,,,,,,,0,,,88,0
162696,note_on,4,0,4,,,,,,,,0,,,52,0
162696,note_on,0,0,4,,,,,,,,0,,,40,0
162696,note_on,0,0,4,,,,,,,,0,,,43,0
162696,note_on,0,0,4,,,,,,,,0,,,48,0
162696,note_on,0,0,1,,,,,,,,0,,,84,0
162696,note_on,0,0,1,,,,,,,,0,,,91,0
162696,note_on,0,0,1,,,,,,,,0,,,96,0
162720,note_on,0,0,1,,,,,,,,0,,,91,80
162720,note_on,0,0,4,,,,,,,,0,,,52,80
162720,note_on,0,0,1,,,,,,,,0,,,96,80
162720,note_on,24,0,4,,,,,,,,0,,,43,80
162720,note_on,0,0,4,,,,,,,,0,,,48,80
162720,note_on,0,0,1,,,,,,,,0,,,88,80
162720,note_on,24,0,1,,,,,,,,0,,,84,80
162720,note_on,0,0,4,,,,,,,,0,,,40,80
162734,control_change,14,0,4,,,,,,,,0,64,127,,
162816,note_on,82,0,4,,,,,,,,0,,,48,0
162816,note_on,0,0,1,,,,,,,,0,,,84,0
162816,note_on,0,0,4,,,,,,,,0,,,40,0
162816,note_on,0,0,1,,,,,,,,0,,,96,0
162816,note_on,0,0,4,,,,,,,,0,,,43,0
162816,note_on,0,0,4,,,,,,,,0,,,52,0
162816,note_on,96,0,1,,,,,,,,0,,,91,0
162816,note_on,0,0,1,,,,,,,,0,,,88,0
162900,note_on,0,0,4,,,,,,,,0,,,43,80
162900,note_on,0,0,4,,,,,,,,0,,,48,80
162900,note_on,0,0,1,,,,,,,,0,,,84,80
162900,note_on,0,0,1,,,,,,,,0,,,88,80
162900,note_on,0,0,1,,,,,,,,0,,,79,80
162900,note_on,84,0,4,,,,,,,,0,,,55,80
162900,note_on,84,0,1,,,,,,,,0,,,91,80
162900,note_on,0,0,4,,,,,,,,0,,,52,80
162948,note_on,0,0,4,,,,,,,,0,,,55,0
162948,note_on,0,0,4,,,,,,,,0,,,52,0
162948,note_on,0,0,4,,,,,,,,0,,,48,0
162948,note_on,0,0,1,,,,,,,,0,,,91,0
162948,note_on,0,0,1,,,,,,,,0,,,79,0
162948,note_on,0,0,1,,,,,,,,0,,,88,0
162948,note_on,48,0,1,,,,,,,,0,,,84,0
162948,note_on,48,0,4,,,,,,,,0,,,43,0
162960,note_on,12,0,4,,,,,,,,0,,,48,80
162960,note_on,0,0,1,,,,,,,,0,,,79,80
162960,note_on,12,0,1,,,,,,,,0,,,91,80
162960,note_on,0,0,4,,,,,,,,0,,,43,80
162960,note_on,0,0,4,,,,,,,,0,,,52,80
162960,note_on,0,0,4,,,,,,,,0,,,55,80
162960,note_on,0,0,1,,,,,,,,0,,,88,80
162960,note_on,0,0,1,,,,,,,,0,,,84,80
163056,note_on,0,0,4,,,,,,,,0,,,48,0
163056,note_on,0,0,4,,,,,,,,0,,,52,0
163056,note_on,0,0,1,,,,,,,,0,,,91,0
163056,note_on,96,0,4,,,,,,,,0,,,55,0
163056,note_on,0,0,4,,,,,,,,0,,,43,0
163056,note_on,0,0,1,,,,,,,,0,,,79,0
163056,note_on,0,0,1,,,,,,,,0,,,84,0
163056,note_on,96,0,1,,,,,,,,0,,,88,0
163080,note_on,24,0,1,,,,,,,,0,,,88,80
163080,note_on,0,0,4,,,,,,,,0,,,45,80
163080,note_on,0,0,4,,,,,,,,0,,,52,80
163080,note_on,0,0,1,,,,,,,,0,,,84,80
163080,note_on,0,0,1,,,,,,,,0,,,76,80
163080,note_on,24,0,4,,,,,,,,0,,,57,80
163080,note_on,0,0,4,,,,,,,,0,,,48,80
163080,control_change,0,0,4,,,,,,,,0,64,0,,
163080,note_on,0,0,1,,,,,,,,0,,,81,80
163122,control_change,42,0,4,,,,,,,,0,64,127,,
163176,note_on,96,0,1,,,,,,,,0,,,84,0
163176,note_on,54,0,4,,,,,,,,0,,,52,0
163176,note_on,0,0,4,,,,,,,,0,,,48,0
163176,note_on,0,0,1,,,,,,,,0,,,76,0
163176,note_on,0,0,1,,,,,,,,0,,,81,0
163176,note_on,0,0,4,,,,,,,,0,,,57,0
163176,note_on,0,0,4,,,,,,,,0,,,45,0
163176,note_on,0,0,1,,,,,,,,0,,,88,0
163260,note_on,0,0,1,,,,,,,,0,,,84,80
163260,note_on,0,0,1,,,,,,,,0,,,81,80
163260,note_on,0,0,4,,,,,,,,0,,,60,80
163260,note_on,0,0,1,,,,,,,,0,,,72,80
163260,note_on,0,0,4,,,,,,,,0,,,48,80
163260,note_on,84,0,4,,,,,,,,0,,,57,80
163260,note_on,84,0,1,,,,,,,,0,,,76,80
163260,note_on,0,0,4,,,,,,,,0,,,52,80
163308,note_on,0,0,1,,,,,,,,0,,,76,0
163308,note_on,0,0,1,,,,,,,,0,,,72,0
163308,note_on,0,0,1,,,,,,,,0,,,84,0
163308,note_on,0,0,4,,,,,,,,0,,,57,0
163308,note_on,0,0,4,,,,,,,,0,,,52,0
163308,note_on,48,0,4,,,,,,,,0,,,48,0
163308,note_on,48,0,1,,,,,,,,0,,,81,0
163308,note_on,0,0,4,,,,,,,,0,,,60,0
163320,note_on,0,0,1,,,,,,,,0,,,84,80
163320,note_on,0,0,1,,,,,,,,0,,,81,80
163320,note_on,0,0,1,,,,,,,,0,,,76,80
163320,note_on,12,0,1,,,,,,,,0,,,72,80
163320,note_on,0,0,4,,,,,,,,0,,,48,80
163320,note_on,12,0,4,,,,,,,,0,,,60,80
163320,note_on,0,0,4,,,,,,,,0,,,57,80
163320,note_on,0,0,4,,,,,,,,0,,,52,80
163412,control_change,92,0,4,,,,,,,,0,64,0,,
163416,note_on,4,0,4,,,,,,,,0,,,57,0
163416,note_on,0,0,1,,,,,,,,0,,,72,0
163416,note_on,96,0,1,,,,,,,,0,,,76,0
163416,note_on,0,0,4,,,,,,,,0,,,60,0
163416,note_on,0,0,1,,,,,,,,0,,,81,0
163416,note_on,0,0,1,,,,,,,,0,,,84,0
163416,note_on,0,0,4,,,,,,,,0,,,48,0
163416,note_on,0,0,4,,,,,,,,0,,,52,0
163440,note_on,0,0,4,,,,,,,,0,,,52,80
163440,note_on,0,0,4,,,,,,,,0,,,57,80
163440,note_on,0,0,1,,,,,,,,0,,,76,80
163440,note_on,0,0,1,,,,,,,,0,,,81,80
163440,note_on,0,0,4,,,,,,,,0,,,48,80
163440,note_on,0,0,1,,,,,,,,0,,,84,80
163440,note_on,24,0,1,,,,,,,,0,,,72,80
163440,note_on,24,0,4,,,,,,,,0,,,60,80
163468,control_change,28,0,4,,,,,,,,0,64,127,,
163728,note_on,288,0,1,,,,,,,,0,,,84,0
163728,note_on,260,0,4,,,,,,,,0,,,52,0
163728,note_on,0,0,4,,,,,,,,0,,,57,0
163728,note_on,0,0,4,,,,,,,,0,,,48,0
163728,note_on,0,0,1,,,,,,,,0,,,76,0
163728,note_on,0,0,1,,,,,,,,0,,,72,0
163728,note_on,0,0,4,,,,,,,,0,,,60,0
163728,note_on,0,0,1,,,,,,,,0,,,81,0
163800,note_on,72,0,1,,,,,,,,0,,,75,80
163800,note_on,0,0,1,,,,,,,,0,,,78,80
163800,note_on,0,0,4,,,,,,,,0,,,59,80
163800,note_on,72,0,4,,,,,,,,0,,,47,80
163800,note_on,0,0,4,,,,,,,,0,,,54,80
163800,note_on,0,0,4,,,,,,,,0,,,51,80
163800,note_on,0,0,1,,,,,,,,0,,,87,80
163800,control_change,0,0,4,,,,,,,,0,64,0,,
163833,control_change,33,0,4,,,,,,,,0,64,127,,
163896,note_on,0,0,1,,,,,,,,0,,,87,0
163896,note_on,96,0,1,,,,,,,,0,,,78,0
163896,note_on,63,0,4,,,,,,,,0,,,59,0
163896,note_on,0,0,4,,,,,,,,0,,,54,0
163896,note_on,0,0,1,,,,,,,,0,,,75,0
163896,note_on,0,0,4,,,,,,,,0,,,47,0
163896,note_on,0,0,4,,,,,,,,0,,,51,0
163980,note_on,84,0,1,,,,,,,,0,,,75,80
163980,note_on,84,0,4,,,,,,,,0,,,63,80
163980,note_on,0,0,1,,,,,,,,0,,,78,80
163980,note_on,0,0,4,,,,,,,,0,,,66,80
163980,note_on,0,0,4,,,,,,,,0,,,59,80
163980,note_on,0,0,1,,,,,,,,0,,,71,80
164028,note_on,0,0,1,,,,,,,,0,,,75,0
164028,note_on,0,0,4,,,,,,,,0,,,63,0
164028,note_on,0,0,4,,,,,,,,0,,,59,0
164028,note_on,0,0,1,,,,,,,,0,,,78,0
164028,note_on,48,0,1,,,,,,,,0,,,71,0
164028,note_on,48,0,4,,,,,,,,0,,,66,0
164040,note_on,12,0,1,,,,,,,,0,,,75,80
164040,note_on,0,0,4,,,,,,,,0,,,63,80
164040,note_on,0,0,4,,,,,,,,0,,,66,80
164040,note_on,12,0,4,,,,,,,,0,,,59,80
164040,note_on,0,0,1,,,,,,,,0,,,71,80
164040,note_on,0,0,1,,,,,,,,0,,,78,80
164136,note_on,96,0,4,,,,,,,,0,,,66,0
164136,note_on,0,0,4,,,,,,,,0,,,63,0
164136,note_on,96,0,1,,,,,,,,0,,,78,0
164136,note_on,0,0,1,,,,,,,,0,,,71,0
164136,note_on,0,0,4,,,,,,,,0,,,59,0
164136,note_on,0,0,1,,,,,,,,0,,,75,0
164160,note_on,24,0,1,,,,,,,,0,,,75,80
164160,note_on,0,0,4,,,,,,,,0,,,63,80
164160,note_on,24,0,4,,,,,,,,0,,,65,80
164160,note_on,0,0,1,,,,,,,,0,,,71,80
164160,note_on,0,0,1,,,,,,,,0,,,77,80
164160,note_on,0,0,4,,,,,,,,0,,,59,80
164256,note_on,96,0,4,,,,,,,,0,,,59,0
164256,note_on,0,0,1,,,,,,,,0,,,75,0
164256,note_on,0,0,4,,,,,,,,0,,,65,0
164256,note_on,96,0,1,,,,,,,,0,,,77,0
164256,note_on,0,0,1,,,,,,,,0,,,71,0
164256,note_on,0,0,4,,,,,,,,0,,,63,0
164280,note_on,24,0,1,,,,,,,,0,,,78,80
164280,note_on,0,0,4,,,,,,,,0,,,59,80
164280,note_on,0,0,1,,,,,,,,0,,,71,80
164280,note_on,0,0,4,,,,,,,,0,,,66,80
164280,note_on,0,0,1,,,,,,,,0,,,75,80
164280,note_on,24,0,4,,,,,,,,0,,,63,80
164376,note_on,96,0,4,,,,,,,,0,,,66,0
164376,note_on,0,0,4,,,,,,,,0,,,63,0
164376,note_on,0,0,4,,,,,,,,0,,,59,0
164376,note_on,0,0,1,,,,,,,,0,,,75,0
164376,note_on,0,0,1,,,,,,,,0,,,78,0
164376,note_on,96,0,1,,,,,,,,0,,,71,0
164400,note_on,0,0,1,,,,,,,,0,,,75,80
164400,note_on,0,0,1,,,,,,,,0,,,83,80
164400,note_on,24,0,1,,,,,,,,0,,,71,80
164400,note_on,24,0,4,,,,,,,,0,,,59,80
164400,note_on,0,0,4,,,,,,,,0,,,63,80
164400,note_on,0,0,4,,,,,,,,0,,,66,80
164496,note_on,0,0,1,,,,,,,,0,,,71,0
164496,note_on,96,0,1,,,,,,,,0,,,75,0
164496,note_on,0,0,1,,,,,,,,0,,,83,0
164496,note_on,96,0,4,,,,,,,,0,,,66,0
164496,note_on,0,0,4,,,,,,,,0,,,63,0
164496,note_on,0,0,4,,,,,,,,0,,,59,0
164520,control_change,24,0,4,,,,,,,,0,64,0,,
164520,note_on,5664,0,2,,,,,,,,0,,,59,80
164520,note_on,0,0,2,,,,,,,,0,,,63,80
164520,note_on,0,0,2,,,,,,,,0,,,66,80
164520,note_on,0,0,2,,,,,,,,0,,,71,80
164520,note_on,0,0,1,,,,,,,,0,,,78,80
164520,note_on,24,0,1,,,,,,,,0,,,75,80
164520,note_on,0,0,1,,,,,,,,0,,,87,80
165096,note_on,576,0,2,,,,,,,,0,,,71,0
165096,note_on,0,0,1,,,,,,,,0,,,78,0
165096,note_on,576,0,1,,,,,,,,0,,,87,0
165096,note_on,0,0,1,,,,,,,,0,,,75,0
165096,note_on,0,0,2,,,,,,,,0,,,66,0
165096,note_on,0,0,2,,,,,,,,0,,,63,0
165096,note_on,0,0,2,,,,,,,,0,,,59,0
165240,note_on,0,0,2,,,,,,,,0,,,65,80
165240,note_on,0,0,2,,,,,,,,0,,,62,80
165240,note_on,0,0,2,,,,,,,,0,,,59,80
165240,note_on,144,0,2,,,,,,,,0,,,55,80
165240,note_on,144,0,1,,,,,,,,0,,,74,80
165240,note_on,0,0,1,,,,,,,,0,,,86,80
165240,note_on,0,0,1,,,,,,,,0,,,79,80
165240,note_on,0,0,1,,,,,,,,0,,,77,80
165240,note_on,0,0,2,,,,,,,,0,,,67,80
165816,note_on,576,0,1,,,,,,,,0,,,86,0
165816,note_on,0,0,1,,,,,,,,0,,,79,0
165816,note_on,0,0,2,,,,,,,,0,,,65,0
165816,note_on,576,0,2,,,,,,,,0,,,67,0
165816,note_on,0,0,2,,,,,,,,0,,,62,0
165816,note_on,0,0,2,,,,,,,,0,,,59,0
165816,note_on,0,0,2,,,,,,,,0,,,55,0
165816,note_on,0,0,1,,,,,,,,0,,,74,0
165816,note_on,0,0,1,,,,,,,,0,,,77,0
165960,note_on,144,0,1,,,,,,,,0,,,76,80
165960,time_signature,6478,1,0,2,4,24,8,,,,,,,,
165960,note_on,0,0,1,,,,,,,,0,,,88,80
165960,note_on,144,0,2,,,,,,,,0,,,60,80
165960,note_on,0,0,2,,,,,,,,0,,,72,80
165960,note_on,0,0,2,,,,,,,,0,,,67,80
165960,note_on,0,0,2,,,,,,,,0,,,64,80
165960,set_tempo,0,1,0,,,,,,476190,,,,,,
165960,control_change,1440,0,4,,,,,,,,0,64,127,,
165961,set_tempo,1,1,0,,,,,,575705,,,,,,
165992,note_on,32,0,1,,,,,,,,0,,,88,0
165992,note_on,0,0,1,,,,,,,,0,,,76,0
166000,note_on,0,0,1,,,,,,,,0,,,84,80
166000,note_on,8,0,1,,,,,,,,0,,,79,80
166032,note_on,32,0,1,,,,,,,,0,,,84,0
166032,note_on,0,0,1,,,,,,,,0,,,79,0
166032,note_on,72,0,2,,,,,,,,0,,,67,0
166032,note_on,0,0,2,,,,,,,,0,,,72,0
166032,note_on,0,0,2,,,,,,,,0,,,64,0
166032,note_on,0,0,2,,,,,,,,0,,,60,0
166040,note_on,8,0,1,,,,,,,,0,,,76,80
166050,note_on,0,0,2,,,,,,,,0,,,60,80
166050,note_on,18,0,2,,,,,,,,0,,,55,80
166050,note_on,0,0,2,,,,,,,,0,,,67,80
166050,note_on,0,0,2,,,,,,,,0,,,64,80
166072,note_on,32,0,1,,,,,,,,0,,,76,0
166074,note_on,0,0,2,,,,,,,,0,,,67,0
166074,note_on,0,0,2,,,,,,,,0,,,64,0
166074,note_on,0,0,2,,,,,,,,0,,,55,0
166074,note_on,24,0,2,,,,,,,,0,,,60,0
166080,note_on,8,0,1,,,,,,,,0,,,84,80
166080,note_on,0,0,2,,,,,,,,0,,,64,80
166080,note_on,0,0,1,,,,,,,,0,,,72,80
166080,note_on,0,0,2,,,,,,,,0,,,60,80
166080,note_on,0,0,2,,,,,,,,0,,,67,80
166080,note_on,6,0,2,,,,,,,,0,,,55,80
166112,note_on,0,0,1,,,,,,,,0,,,84,0
166112,note_on,32,0,1,,,,,,,,0,,,72,0
166120,note_on,0,0,1,,,,,,,,0,,,79,80
166120,note_on,8,0,1,,,,,,,,0,,,76,80
166152,note_on,32,0,1,,,,,,,,0,,,79,0
166152,note_on,0,0,1,,,,,,,,0,,,76,0
166160,note_on,8,0,1,,,,,,,,0,,,72,80
166176,note_on,96,0,2,,,,,,,,0,,,60,0
166176,note_on,0,0,2,,,,,,,,0,,,64,0
166176,note_on,0,0,2,,,,,,,,0,,,67,0
166176,note_on,0,0,2,,,,,,,,0,,,55,0
166192,note_on,32,0,1,,,,,,,,0,,,72,0
166200,note_on,240,0,4,,,,,,,,0,,,55,80
166200,note_on,0,0,4,,,,,,,,0,,,52,80
166200,note_on,0,0,4,,,,,,,,0,,,60,80
166200,note_on,0,0,4,,,,,,,,0,,,64,80
166200,note_on,8,0,1,,,,,,,,0,,,79,80
166200,note_on,0,0,1,,,,,,,,0,,,67,80
166232,note_on,32,0,1,,,,,,,,0,,,67,0
166232,note_on,0,0,1,,,,,,,,0,,,79,0
166240,note_on,8,0,1,,,,,,,,0,,,76,80
166240,note_on,0,0,1,,,,,,,,0,,,72,80
166272,note_on,72,0,4,,,,,,,,0,,,64,0
166272,note_on,32,0,1,,,,,,,,0,,,72,0
166272,note_on,0,0,1,,,,,,,,0,,,76,0
166272,note_on,0,0,4,,,,,,,,0,,,60,0
166272,note_on,0,0,4,,,,,,,,0,,,55,0
166272,note_on,0,0,4,,,,,,,,0,,,52,0
166280,note_on,8,0,1,,,,,,,,0,,,67,80
166290,note_on,0,0,4,,,,,,,,0,,,55,80
166290,note_on,0,0,4,,,,,,,,0,,,52,80
166290,note_on,18,0,4,,,,,,,,0,,,48,80
166290,note_on,0,0,4,,,,,,,,0,,,60,80
166312,note_on,32,0,1,,,,,,,,0,,,67,0
166314,note_on,0,0,4,,,,,,,,0,,,52,0
166314,note_on,24,0,4,,,,,,,,0,,,55,0
166314,note_on,0,0,4,,,,,,,,0,,,48,0
166314,note_on,0,0,4,,,,,,,,0,,,60,0
166320,note_on,0,0,1,,,,,,,,0,,,76,80
166320,note_on,0,0,4,,,,,,,,0,,,52,80
166320,note_on,8,0,1,,,,,,,,0,,,64,80
166320,note_on,6,0,4,,,,,,,,0,,,48,80
166320,note_on,0,0,4,,,,,,,,0,,,55,80
166320,note_on,0,0,4,,,,,,,,0,,,60,80
166352,note_on,0,0,1,,,,,,,,0,,,64,0
166352,note_on,32,0,1,,,,,,,,0,,,76,0
166360,note_on,0,0,1,,,,,,,,0,,,72,80
166360,note_on,8,0,1,,,,,,,,0,,,67,80
166392,note_on,32,0,1,,,,,,,,0,,,72,0
166392,note_on,0,0,1,,,,,,,,0,,,67,0
166400,note_on,8,0,1,,,,,,,,0,,,64,80
166416,note_on,96,0,4,,,,,,,,0,,,55,0
166416,note_on,0,0,4,,,,,,,,0,,,48,0
166416,note_on,0,0,4,,,,,,,,0,,,52,0
166416,note_on,0,0,4,,,,,,,,0,,,60,0
166432,note_on,32,0,1,,,,,,,,0,,,64,0
166440,note_on,24,0,4,,,,,,,,0,,,57,80
166440,note_on,0,0,1,,,,,,,,0,,,72,80
166440,note_on,8,0,1,,,,,,,,0,,,60,80
166440,note_on,0,0,4,,,,,,,,0,,,52,80
166440,note_on,0,0,4,,,,,,,,0,,,48,80
166440,note_on,0,0,4,,,,,,,,0,,,45,80
166472,note_on,0,0,1,,,,,,,,0,,,60,0
166472,note_on,32,0,1,,,,,,,,0,,,72,0
166480,note_on,0,0,1,,,,,,,,0,,,69,80
166480,note_on,8,0,1,,,,,,,,0,,,64,80
166512,note_on,0,0,4,,,,,,,,0,,,52,0
166512,note_on,32,0,1,,,,,,,,0,,,69,0
166512,note_on,0,0,4,,,,,,,,0,,,57,0
166512,note_on,72,0,4,,,,,,,,0,,,48,0
166512,note_on,0,0,4,,,,,,,,0,,,45,0
166512,note_on,0,0,1,,,,,,,,0,,,64,0
166520,note_on,8,0,1,,,,,,,,0,,,60,80
166530,note_on,0,0,4,,,,,,,,0,,,45,80
166530,note_on,18,0,4,,,,,,,,0,,,40,80
166530,note_on,0,0,4,,,,,,,,0,,,48,80
166530,note_on,0,0,4,,,,,,,,0,,,52,80
166552,note_on,32,0,1,,,,,,,,0,,,60,0
166554,note_on,0,0,4,,,,,,,,0,,,52,0
166554,note_on,0,0,4,,,,,,,,0,,,40,0
166554,note_on,24,0,4,,,,,,,,0,,,45,0
166554,note_on,0,0,4,,,,,,,,0,,,48,0
166560,note_on,12912,0,3,,,,,,,,0,,,69,80
166560,note_on,0,0,4,,,,,,,,0,,,45,80
166560,note_on,6,0,4,,,,,,,,0,,,52,80
166560,note_on,0,0,4,,,,,,,,0,,,48,80
166560,note_on,0,0,3,,,,,,,,0,,,57,80
166560,note_on,0,0,4,,,,,,,,0,,,40,80
166592,note_on,0,0,3,,,,,,,,0,,,69,0
166592,note_on,32,0,3,,,,,,,,0,,,57,0
166600,note_on,8,0,3,,,,,,,,0,,,60,80
166600,note_on,0,0,3,,,,,,,,0,,,64,80
166632,note_on,32,0,3,,,,,,,,0,,,64,0
166632,note_on,0,0,3,,,,,,,,0,,,60,0
166640,note_on,8,0,3,,,,,,,,0,,,57,80
166656,note_on,0,0,4,,,,,,,,0,,,40,0
166656,note_on,0,0,4,,,,,,,,0,,,52,0
166656,note_on,96,0,4,,,,,,,,0,,,48,0
166656,note_on,0,0,4,,,,,,,,0,,,45,0
166672,note_on,32,0,3,,,,,,,,0,,,57,0
166680,note_on,0,0,4,,,,,,,,0,,,40,80
166680,note_on,0,0,4,,,,,,,,0,,,45,80
166680,note_on,0,0,4,,,,,,,,0,,,48,80
166680,note_on,24,0,4,,,,,,,,0,,,36,80
166680,note_on,0,0,3,,,,,,,,0,,,64,80
166680,note_on,8,0,3,,,,,,,,0,,,52,80
166712,note_on,32,0,3,,,,,,,,0,,,64,0
166712,note_on,0,0,3,,,,,,,,0,,,52,0
166720,note_on,8,0,3,,,,,,,,0,,,60,80
166720,note_on,0,0,3,,,,,,,,0,,,57,80
166752,note_on,0,0,4,,,,,,,,0,,,36,0
166752,note_on,32,0,3,,,,,,,,0,,,57,0
166752,note_on,0,0,4,,,,,,,,0,,,40,0
166752,note_on,0,0,4,,,,,,,,0,,,45,0
166752,note_on,0,0,3,,,,,,,,0,,,60,0
166752,note_on,72,0,4,,,,,,,,0,,,48,0
166760,note_on,8,0,3,,,,,,,,0,,,52,80
166770,note_on,0,0,4,,,,,,,,0,,,36,80
166770,note_on,0,0,4,,,,,,,,0,,,40,80
166770,note_on,18,0,4,,,,,,,,0,,,33,80
166770,note_on,0,0,4,,,,,,,,0,,,45,80
166792,note_on,32,0,3,,,,,,,,0,,,52,0
166794,note_on,0,0,4,,,,,,,,0,,,33,0
166794,note_on,24,0,4,,,,,,,,0,,,40,0
166794,note_on,0,0,4,,,,,,,,0,,,36,0
166794,note_on,0,0,4,,,,,,,,0,,,45,0
166800,note_on,0,0,4,,,,,,,,0,,,40,80
166800,note_on,0,0,4,,,,,,,,0,,,36,80
166800,note_on,0,0,4,,,,,,,,0,,,45,80
166800,note_on,8,0,3,,,,,,,,0,,,60,80
166800,note_on,6,0,4,,,,,,,,0,,,33,80
166800,note_on,0,0,3,,,,,,,,0,,,48,80
166832,note_on,0,0,3,,,,,,,,0,,,60,0
166832,note_on,32,0,3,,,,,,,,0,,,48,0
166840,note_on,8,0,3,,,,,,,,0,,,52,80
166840,note_on,0,0,3,,,,,,,,0,,,57,80
166872,note_on,32,0,3,,,,,,,,0,,,57,0
166872,note_on,0,0,3,,,,,,,,0,,,52,0
166880,note_on,8,0,3,,,,,,,,0,,,48,80
166881,control_change,81,0,4,,,,,,,,0,64,0,,
166896,note_on,0,0,4,,,,,,,,0,,,40,0
166896,note_on,15,0,4,,,,,,,,0,,,36,0
166896,note_on,0,0,4,,,,,,,,0,,,33,0
166896,note_on,0,0,4,,,,,,,,0,,,45,0
166912,note_on,32,0,3,,,,,,,,0,,,48,0
166913,set_tempo,952,1,0,,,,,,571646,,,,,,
166917,set_tempo,4,1,0,,,,,,399734,,,,,,
166920,note_on,0,0,4,,,,,,,,0,,,31,80
166920,note_on,0,0,4,,,,,,,,0,,,38,80
166920,note_on,0,0,4,,,,,,,,0,,,53,80
166920,note_on,0,0,4,,,,,,,,0,,,55,80
166920,time_signature,3,1,0,6,8,12,8,,,,,,,,
166920,note_on,24,0,4,,,,,,,,0,,,43,80
166920,note_on,368,0,1,,,,,,,,0,,,59,80
166920,note_on,0,0,1,,,,,,,,0,,,67,80
166938,control_change,18,0,4,,,,,,,,0,64,127,,
167016,note_on,78,0,4,,,,,,,,0,,,31,0
167016,note_on,96,0,1,,,,,,,,0,,,67,0
167016,note_on,0,0,1,,,,,,,,0,,,59,0
167016,note_on,0,0,4,,,,,,,,0,,,38,0
167016,note_on,0,0,4,,,,,,,,0,,,43,0
167016,note_on,0,0,4,,,,,,,,0,,,53,0
167016,note_on,0,0,4,,,,,,,,0,,,55,0
167040,note_on,24,0,4,,,,,,,,0,,,50,80
167040,note_on,0,0,3,,,,,,,,0,,,59,80
167040,note_on,0,0,4,,,,,,,,0,,,47,80
167040,note_on,128,0,3,,,,,,,,0,,,62,80
167040,note_on,0,0,4,,,,,,,,0,,,43,80
167088,note_on,0,0,3,,,,,,,,0,,,62,0
167088,note_on,48,0,3,,,,,,,,0,,,59,0
167100,note_on,0,0,3,,,,,,,,0,,,53,80
167100,note_on,12,0,3,,,,,,,,0,,,55,80
167136,note_on,0,0,4,,,,,,,,0,,,43,0
167136,note_on,0,0,4,,,,,,,,0,,,50,0
167136,note_on,96,0,4,,,,,,,,0,,,47,0
167148,note_on,0,0,3,,,,,,,,0,,,55,0
167148,note_on,48,0,3,,,,,,,,0,,,53,0
167160,note_on,12,0,3,,,,,,,,0,,,59,80
167160,note_on,24,0,4,,,,,,,,0,,,47,80
167160,note_on,0,0,4,,,,,,,,0,,,43,80
167160,note_on,0,0,4,,,,,,,,0,,,50,80
167160,note_on,0,0,3,,,,,,,,0,,,62,80
167208,note_on,48,0,3,,,,,,,,0,,,62,0
167208,note_on,0,0,3,,,,,,,,0,,,59,0
167220,note_on,12,0,3,,,,,,,,0,,,55,81
167220,note_on,0,0,3,,,,,,,,0,,,53,81
167256,note_on,96,0,4,,,,,,,,0,,,50,0
167256,note_on,0,0,4,,,,,,,,0,,,47,0
167256,note_on,0,0,4,,,,,,,,0,,,43,0
167268,note_on,0,0,3,,,,,,,,0,,,55,0
167268,note_on,48,0,3,,,,,,,,0,,,53,0
167280,note_on,12,0,3,,,,,,,,0,,,58,81
167280,note_on,0,0,4,,,,,,,,0,,,46,81
167280,note_on,0,0,4,,,,,,,,0,,,49,81
167280,note_on,24,0,4,,,,,,,,0,,,43,81
167280,note_on,0,0,3,,,,,,,,0,,,61,81
167328,note_on,48,0,3,,,,,,,,0,,,61,0
167328,note_on,0,0,3,,,,,,,,0,,,58,0
167340,note_on,12,0,3,,,,,,,,0,,,53,81
167340,note_on,0,0,3,,,,,,,,0,,,55,81
167376,note_on,0,0,4,,,,,,,,0,,,43,0
167376,note_on,96,0,4,,,,,,,,0,,,49,0
167376,note_on,0,0,4,,,,,,,,0,,,46,0
167388,note_on,0,0,3,,,,,,,,0,,,53,0
167388,note_on,48,0,3,,,,,,,,0,,,55,0
167400,note_on,12,0,3,,,,,,,,0,,,62,81
167400,note_on,24,0,4,,,,,,,,0,,,43,81
167400,note_on,0,0,4,,,,,,,,0,,,50,81
167400,note_on,0,0,3,,,,,,,,0,,,59,81
167400,note_on,0,0,4,,,,,,,,0,,,47,81
167418,control_change,18,0,4,,,,,,,,0,64,0,,
167448,note_on,0,0,3,,,,,,,,0,,,62,0
167448,note_on,48,0,3,,,,,,,,0,,,59,0
167460,note_on,12,0,3,,,,,,,,0,,,53,81
167460,note_on,0,0,3,,,,,,,,0,,,55,81
167496,note_on,0,0,4,,,,,,,,0,,,43,0
167496,note_on,0,0,4,,,,,,,,0,,,50,0
167496,note_on,78,0,4,,,,,,,,0,,,47,0
167508,note_on,0,0,3,,,,,,,,0,,,53,0
167508,note_on,48,0,3,,,,,,,,0,,,55,0
167520,note_on,0,0,4,,,,,,,,0,,,51,82
167520,note_on,0,0,4,,,,,,,,0,,,43,82
167520,note_on,24,0,4,,,,,,,,0,,,47,82
167520,note_on,0,0,3,,,,,,,,0,,,63,82
167520,note_on,12,0,3,,,,,,,,0,,,59,82
167568,note_on,48,0,3,,,,,,,,0,,,63,0
167568,note_on,0,0,3,,,,,,,,0,,,59,0
167580,note_on,12,0,3,,,,,,,,0,,,53,82
167580,note_on,0,0,3,,,,,,,,0,,,55,82
167611,set_tempo,691,1,0,,,,,,401714,,,,,,
167616,note_on,0,0,4,,,,,,,,0,,,47,0
167616,note_on,0,0,4,,,,,,,,0,,,43,0
167616,note_on,96,0,4,,,,,,,,0,,,51,0
167628,note_on,48,0,3,,,,,,,,0,,,55,0
167628,note_on,0,0,3,,,,,,,,0,,,53,0
167640,control_change,24,0,4,,,,,,,,0,64,127,,
167640,note_on,0,0,1,,,,,,,,0,,,60,82
167640,note_on,624,0,1,,,,,,,,0,,,64,82
167640,note_on,0,0,4,,,,,,,,0,,,48,82
167640,note_on,0,0,4,,,,,,,,0,,,52,82
167688,note_on,0,0,1,,,,,,,,0,,,64,0
167688,note_on,48,0,1,,,,,,,,0,,,60,0
167691,note_on,3,0,1,,,,,,,,0,,,55,82
167739,note_on,48,0,1,,,,,,,,0,,,55,0
167742,note_on,3,0,1,,,,,,,,0,,,52,82
167790,note_on,48,0,1,,,,,,,,0,,,52,0
167793,note_on,3,0,1,,,,,,,,0,,,55,83
167841,note_on,48,0,1,,,,,,,,0,,,55,0
167844,note_on,3,0,1,,,,,,,,0,,,60,83
167892,note_on,48,0,1,,,,,,,,0,,,60,0
167895,note_on,3,0,1,,,,,,,,0,,,64,83
167928,note_on,288,0,4,,,,,,,,0,,,48,0
167928,note_on,0,0,4,,,,,,,,0,,,52,0
167943,note_on,48,0,1,,,,,,,,0,,,64,0
167946,note_on,3,0,1,,,,,,,,0,,,67,83
167994,note_on,48,0,1,,,,,,,,0,,,67,0
167997,note_on,3,0,1,,,,,,,,0,,,72,83
168000,note_on,72,0,4,,,,,,,,0,,,48,83
168000,note_on,0,0,4,,,,,,,,0,,,36,83
168000,note_on,0,0,4,,,,,,,,0,,,40,83
168000,note_on,0,0,4,,,,,,,,0,,,43,83
168045,note_on,48,0,1,,,,,,,,0,,,72,0
168048,note_on,3,0,1,,,,,,,,0,,,76,84
168096,note_on,0,0,4,,,,,,,,0,,,40,0
168096,note_on,0,0,4,,,,,,,,0,,,43,0
168096,note_on,48,0,1,,,,,,,,0,,,76,0
168096,note_on,0,0,4,,,,,,,,0,,,48,0
168096,note_on,96,0,4,,,,,,,,0,,,36,0
168099,note_on,3,0,1,,,,,,,,0,,,79,84
168147,note_on,48,0,1,,,,,,,,0,,,79,0
168150,note_on,3,0,1,,,,,,,,0,,,84,84
168198,note_on,48,0,1,,,,,,,,0,,,84,0
168201,note_on,3,0,1,,,,,,,,0,,,88,84
168249,note_on,48,0,1,,,,,,,,0,,,88,0
168252,note_on,3,0,1,,,,,,,,0,,,91,84
168300,note_on,48,0,1,,,,,,,,0,,,91,0
168303,note_on,3,0,1,,,,,,,,0,,,96,85
168337,control_change,241,0,4,,,,,,,,0,64,0,,
168340,set_tempo,729,1,0,,,,,,403714,,,,,,
168360,note_on,0,0,2,,,,,,,,0,,,72,80
168360,time_signature,20,1,0,2,4,24,8,,,,,,,,
168360,note_on,57,0,1,,,,,,,,0,,,96,0
168360,note_on,2184,0,2,,,,,,,,0,,,79,80
168360,control_change,23,0,4,,,,,,,,0,64,127,,
168360,note_on,0,0,1,,,,,,,,0,,,100,80
168360,note_on,0,0,1,,,,,,,,0,,,88,80
168360,note_on,0,0,2,,,,,,,,0,,,84,80
168360,note_on,0,0,2,,,,,,,,0,,,76,80
168360,set_tempo,0,1,0,,,,,,476190,,,,,,
168366,set_tempo,6,1,0,,,,,,575705,,,,,,
168392,note_on,32,0,1,,,,,,,,0,,,88,0
168400,note_on,8,0,1,,,,,,,,0,,,96,85
168400,note_on,0,0,1,,,,,,,,0,,,91,85
168432,note_on,32,0,1,,,,,,,,0,,,91,0
168432,note_on,72,0,2,,,,,,,,0,,,84,0
168432,note_on,0,0,1,,,,,,,,0,,,96,0
168432,note_on,0,0,2,,,,,,,,0,,,76,0
168432,note_on,0,0,2,,,,,,,,0,,,72,0
168432,note_on,0,0,2,,,,,,,,0,,,79,0
168440,note_on,8,0,1,,,,,,,,0,,,88,85
168450,note_on,0,0,2,,,,,,,,0,,,76,85
168450,note_on,0,0,2,,,,,,,,0,,,72,85
168450,note_on,0,0,2,,,,,,,,0,,,67,85
168450,note_on,18,0,2,,,,,,,,0,,,79,85
168472,note_on,0,0,1,,,,,,,,0,,,100,0
168472,note_on,32,0,1,,,,,,,,0,,,88,0
168474,note_on,0,0,2,,,,,,,,0,,,72,0
168474,note_on,0,0,2,,,,,,,,0,,,67,0
168474,note_on,24,0,2,,,,,,,,0,,,76,0
168474,note_on,0,0,2,,,,,,,,0,,,79,0
168480,note_on,0,0,2,,,,,,,,0,,,76,85
168480,note_on,6,0,2,,,,,,,,0,,,72,85
168480,note_on,8,0,1,,,,,,,,0,,,84,85
168480,note_on,0,0,1,,,,,,,,0,,,96,85
168480,note_on,0,0,2,,,,,,,,0,,,67,85
168480,note_on,0,0,2,,,,,,,,0,,,79,85
168512,note_on,32,0,1,,,,,,,,0,,,84,0
168520,note_on,0,0,1,,,,,,,,0,,,91,85
168520,note_on,8,0,1,,,,,,,,0,,,88,85
168552,note_on,0,0,1,,,,,,,,0,,,88,0
168552,note_on,32,0,1,,,,,,,,0,,,91,0
168560,note_on,8,0,1,,,,,,,,0,,,84,86
168576,note_on,96,0,2,,,,,,,,0,,,79,0
168576,note_on,0,0,2,,,,,,,,0,,,67,0
168576,note_on,0,0,2,,,,,,,,0,,,72,0
168576,note_on,0,0,2,,,,,,,,0,,,76,0
168592,note_on,0,0,1,,,,,,,,0,,,96,0
168592,note_on,32,0,1,,,,,,,,0,,,84,0
168600,note_on,0,0,2,,,,,,,,0,,,64,86
168600,note_on,0,0,1,,,,,,,,0,,,79,86
168600,note_on,0,0,2,,,,,,,,0,,,76,86
168600,note_on,0,0,2,,,,,,,,0,,,67,86
168600,note_on,24,0,2,,,,,,,,0,,,72,86
168600,note_on,8,0,1,,,,,,,,0,,,91,86
168632,note_on,32,0,1,,,,,,,,0,,,79,0
168640,note_on,8,0,1,,,,,,,,0,,,84,86
168640,note_on,0,0,1,,,,,,,,0,,,88,86
168672,note_on,0,0,1,,,,,,,,0,,,84,0
168672,note_on,0,0,2,,,,,,,,0,,,64,0
168672,note_on,0,0,2,,,,,,,,0,,,76,0
168672,note_on,0,0,2,,,,,,,,0,,,72,0
168672,note_on,72,0,2,,,,,,,,0,,,67,0
168672,note_on,32,0,1,,,,,,,,0,,,88,0
168680,note_on,8,0,1,,,,,,,,0,,,79,86
168690,note_on,0,0,2,,,,,,,,0,,,64,86
168690,note_on,0,0,2,,,,,,,,0,,,60,86
168690,note_on,18,0,2,,,,,,,,0,,,72,86
168690,note_on,0,0,2,,,,,,,,0,,,67,86
168712,note_on,32,0,1,,,,,,,,0,,,79,0
168712,note_on,0,0,1,,,,,,,,0,,,91,0
168714,note_on,0,0,2,,,,,,,,0,,,64,0
168714,note_on,24,0,2,,,,,,,,0,,,60,0
168714,note_on,0,0,2,,,,,,,,0,,,67,0
168714,note_on,0,0,2,,,,,,,,0,,,72,0
168720,note_on,6,0,2,,,,,,,,0,,,60,86
168720,note_on,0,0,2,,,,,,,,0,,,64,86
168720,note_on,0,0,2,,,,,,,,0,,,67,86
168720,note_on,0,0,2,,,,,,,,0,,,72,86
168720,note_on,8,0,1,,,,,,,,0,,,88,86
168720,note_on,0,0,1,,,,,,,,0,,,76,86
168752,note_on,32,0,1,,,,,,,,0,,,76,0
168760,note_on,0,0,1,,,,,,,,0,,,84,87
168760,note_on,8,0,1,,,,,,,,0,,,79,87
168792,note_on,32,0,1,,,,,,,,0,,,84,0
168792,note_on,0,0,1,,,,,,,,0,,,79,0
168800,note_on,8,0,1,,,,,,,,0,,,76,87
168816,note_on,0,0,2,,,,,,,,0,,,60,0
168816,note_on,96,0,2,,,,,,,,0,,,72,0
168816,note_on,0,0,2,,,,,,,,0,,,67,0
168816,note_on,0,0,2,,,,,,,,0,,,64,0
168832,note_on,32,0,1,,,,,,,,0,,,76,0
168832,note_on,0,0,1,,,,,,,,0,,,88,0
168840,note_on,0,0,4,,,,,,,,0,,,60,87
168840,note_on,480,0,4,,,,,,,,0,,,69,87
168840,note_on,0,0,1,,,,,,,,0,,,84,87
168840,note_on,0,0,4,,,,,,,,0,,,64,87
168840,note_on,8,0,1,,,,,,,,0,,,72,87
168840,note_on,0,0,4,,,,,,,,0,,,57,87
168872,note_on,0,0,1,,,,,,,,0,,,72,0
168872,note_on,32,0,1,,,,,,,,0,,,84,0
168880,note_on,8,0,1,,,,,,,,0,,,76,87
168880,note_on,0,0,1,,,,,,,,0,,,81,87
168912,note_on,0,0,1,,,,,,,,0,,,76,0
168912,note_on,32,0,1,,,,,,,,0,,,81,0
168912,note_on,0,0,4,,,,,,,,0,,,69,0
168912,note_on,72,0,4,,,,,,,,0,,,64,0
168912,note_on,0,0,4,,,,,,,,0,,,60,0
168912,note_on,0,0,4,,,,,,,,0,,,57,0
168920,note_on,8,0,1,,,,,,,,0,,,72,87
168930,note_on,0,0,4,,,,,,,,0,,,60,88
168930,note_on,18,0,4,,,,,,,,0,,,52,88
168930,note_on,0,0,4,,,,,,,,0,,,57,88
168930,note_on,0,0,4,,,,,,,,0,,,64,88
168952,note_on,32,0,1,,,,,,,,0,,,72,0
168954,note_on,24,0,4,,,,,,,,0,,,60,0
168954,note_on,0,0,4,,,,,,,,0,,,64,0
168954,note_on,0,0,4,,,,,,,,0,,,52,0
168954,note_on,0,0,4,,,,,,,,0,,,57,0
168960,note_on,0,0,4,,,,,,,,0,,,64,88
168960,note_on,0,0,4,,,,,,,,0,,,52,88
168960,note_on,0,0,4,,,,,,,,0,,,57,88
168960,note_on,8,0,1,,,,,,,,0,,,69,88
168960,note_on,6,0,4,,,,,,,,0,,,60,88
168960,note_on,0,0,1,,,,,,,,0,,,81,88
168992,note_on,32,0,1,,,,,,,,0,,,81,0
168992,note_on,0,0,1,,,,,,,,0,,,69,0
169000,note_on,0,0,1,,,,,,,,0,,,72,88
169000,note_on,8,0,1,,,,,,,,0,,,76,88
169032,note_on,0,0,1,,,,,,,,0,,,76,0
169032,note_on,32,0,1,,,,,,,,0,,,72,0
169040,note_on,8,0,1,,,,,,,,0,,,69,88
169056,note_on,96,0,4,,,,,,,,0,,,52,0
169056,note_on,0,0,4,,,,,,,,0,,,60,0
169056,note_on,0,0,4,,,,,,,,0,,,57,0
169056,note_on,0,0,4,,,,,,,,0,,,64,0
169072,note_on,32,0,1,,,,,,,,0,,,69,0
169080,note_on,24,0,4,,,,,,,,0,,,52,88
169080,note_on,0,0,4,,,,,,,,0,,,60,88
169080,note_on,0,0,1,,,,,,,,0,,,64,88
169080,note_on,0,0,4,,,,,,,,0,,,48,88
169080,note_on,0,0,4,,,,,,,,0,,,57,88
169080,note_on,8,0,1,,,,,,,,0,,,76,88
169112,note_on,0,0,1,,,,,,,,0,,,76,0
169112,note_on,32,0,1,,,,,,,,0,,,64,0
169120,note_on,0,0,1,,,,,,,,0,,,72,89
169120,note_on,8,0,1,,,,,,,,0,,,69,89
169152,note_on,0,0,4,,,,,,,,0,,,60,0
169152,note_on,0,0,4,,,,,,,,0,,,52,0
169152,note_on,0,0,1,,,,,,,,0,,,69,0
169152,note_on,72,0,4,,,,,,,,0,,,57,0
169152,note_on,0,0,4,,,,,,,,0,,,48,0
169152,note_on,32,0,1,,,,,,,,0,,,72,0
169160,note_on,8,0,1,,,,,,,,0,,,64,89
169170,note_on,0,0,4,,,,,,,,0,,,52,89
169170,note_on,0,0,4,,,,,,,,0,,,57,89
169170,note_on,18,0,4,,,,,,,,0,,,45,89
169170,note_on,0,0,4,,,,,,,,0,,,48,89
169192,note_on,32,0,1,,,,,,,,0,,,64,0
169194,note_on,0,0,4,,,,,,,,0,,,45,0
169194,note_on,24,0,4,,,,,,,,0,,,48,0
169194,note_on,0,0,4,,,,,,,,0,,,57,0
169194,note_on,0,0,4,,,,,,,,0,,,52,0
169200,note_on,0,0,4,,,,,,,,0,,,48,89
169200,note_on,0,0,4,,,,,,,,0,,,57,89
169200,note_on,0,0,4,,,,,,,,0,,,45,89
169200,note_on,8,0,1,,,,,,,,0,,,60,89
169200,note_on,6,0,4,,,,,,,,0,,,52,89
169200,note_on,0,0,1,,,,,,,,0,,,72,89
169232,note_on,0,0,1,,,,,,,,0,,,60,0
169232,note_on,32,0,1,,,,,,,,0,,,72,0
169240,note_on,8,0,1,,,,,,,,0,,,69,89
169240,note_on,0,0,1,,,,,,,,0,,,64,89
169272,note_on,32,0,1,,,,,,,,0,,,64,0
169272,note_on,0,0,1,,,,,,,,0,,,69,0
169280,note_on,8,0,1,,,,,,,,0,,,60,89
169296,note_on,0,0,4,,,,,,,,0,,,45,0
169296,note_on,0,0,4,,,,,,,,0,,,48,0
169296,note_on,0,0,4,,,,,,,,0,,,52,0
169296,note_on,96,0,4,,,,,,,,0,,,57,0
169311,control_change,15,0,4,,,,,,,,0,64,0,,
169312,note_on,32,0,1,,,,,,,,0,,,60,0
169318,set_tempo,952,1,0,,,,,,393908,,,,,,
169320,note_on,0,0,4,,,,,,,,0,,,44,90
169320,note_on,8,0,1,,,,,,,,0,,,92,90
169320,time_signature,2,1,0,6,8,12,8,,,,,,,,
169320,note_on,9,0,4,,,,,,,,0,,,47,90
169320,note_on,0,0,4,,,,,,,,0,,,40,90
169320,note_on,0,0,1,,,,,,,,0,,,80,90
169320,control_change,0,0,4,,,,,,,,0,64,127,,
169320,note_on,0,0,1,,,,,,,,0,,,83,90
169320,note_on,0,0,4,,,,,,,,0,,,52,90
169322,set_tempo,2,1,0,,,,,,384566,,,,,,
169327,set_tempo,5,1,0,,,,,,372208,,,,,,
169366,set_tempo,39,1,0,,,,,,373925,,,,,,
169406,set_tempo,40,1,0,,,,,,375657,,,,,,
169416,note_on,0,0,4,,,,,,,,0,,,40,0
169416,note_on,96,0,4,,,,,,,,0,,,52,0
169416,note_on,0,0,1,,,,,,,,0,,,83,0
169416,note_on,0,0,1,,,,,,,,0,,,92,0
169416,note_on,96,0,1,,,,,,,,0,,,80,0
169416,note_on,0,0,4,,,,,,,,0,,,44,0
169416,note_on,0,0,4,,,,,,,,0,,,47,0
169440,note_on,1812,0,3,,,,,,,,0,,,47,76
169440,note_on,624,0,2,,,,,,,,0,,,71,76
169445,set_tempo,39,1,0,,,,,,377406,,,,,,
169484,set_tempo,39,1,0,,,,,,379171,,,,,,
169488,note_on,48,0,3,,,,,,,,0,,,47,0
169488,note_on,48,0,2,,,,,,,,0,,,71,0
169500,note_on,12,0,2,,,,,,,,0,,,83,76
169500,note_on,12,0,3,,,,,,,,0,,,59,76
169523,set_tempo,39,1,0,,,,,,380952,,,,,,
169548,note_on,48,0,2,,,,,,,,0,,,83,0
169548,note_on,48,0,3,,,,,,,,0,,,59,0
169560,note_on,12,0,3,,,,,,,,0,,,47,76
169560,note_on,12,0,2,,,,,,,,0,,,71,76
169563,set_tempo,40,1,0,,,,,,382751,,,,,,
169602,set_tempo,39,1,0,,,,,,384566,,,,,,
169608,note_on,48,0,3,,,,,,,,0,,,47,0
169608,note_on,48,0,2,,,,,,,,0,,,71,0
169620,note_on,12,0,3,,,,,,,,0,,,59,76
169620,note_on,12,0,2,,,,,,,,0,,,83,76
169641,set_tempo,39,1,0,,,,,,386399,,,,,,
169668,note_on,48,0,3,,,,,,,,0,,,59,0
169668,note_on,48,0,2,,,,,,,,0,,,83,0
169680,note_on,12,0,2,,,,,,,,0,,,70,76
169680,note_on,12,0,3,,,,,,,,0,,,46,76
169680,set_tempo,39,1,0,,,,,,388249,,,,,,
169720,set_tempo,40,1,0,,,,,,390117,,,,,,
169728,note_on,48,0,3,,,,,,,,0,,,46,0
169728,note_on,48,0,2,,,,,,,,0,,,70,0
169740,note_on,12,0,3,,,,,,,,0,,,58,76
169740,note_on,12,0,2,,,,,,,,0,,,82,76
169759,set_tempo,39,1,0,,,,,,392003,,,,,,
169788,note_on,48,0,3,,,,,,,,0,,,58,0
169788,note_on,48,0,2,,,,,,,,0,,,82,0
169798,set_tempo,39,1,0,,,,,,393908,,,,,,
169800,note_on,12,0,2,,,,,,,,0,,,71,76
169800,note_on,12,0,3,,,,,,,,0,,,47,76
169838,set_tempo,40,1,0,,,,,,395831,,,,,,
169848,note_on,48,0,2,,,,,,,,0,,,71,0
169848,note_on,48,0,3,,,,,,,,0,,,47,0
169860,note_on,12,0,2,,,,,,,,0,,,83,76
169860,note_on,12,0,3,,,,,,,,0,,,59,76
169877,set_tempo,39,1,0,,,,,,397772,,,,,,
169908,note_on,48,0,2,,,,,,,,0,,,83,0
169908,note_on,48,0,3,,,,,,,,0,,,59,0
169916,set_tempo,39,1,0,,,,,,399734,,,,,,
169920,note_on,12,0,2,,,,,,,,0,,,76,76
169920,note_on,12,0,3,,,,,,,,0,,,52,76
169920,set_tempo,4,1,0,,,,,,403714,,,,,,
169934,set_tempo,14,1,0,,,,,,407775,,,,,,
169968,note_on,48,0,3,,,,,,,,0,,,52,0
169968,note_on,48,0,2,,,,,,,,0,,,76,0
169980,note_on,12,0,3,,,,,,,,0,,,64,76
169980,note_on,12,0,2,,,,,,,,0,,,88,76
169998,control_change,582,0,4,,,,,,,,0,64,0,,
170028,note_on,48,0,3,,,,,,,,0,,,64,0
170028,note_on,48,0,2,,,,,,,,0,,,88,0
170030,set_tempo,96,1,0,,,,,,405734,,,,,,
170034,set_tempo,4,1,0,,,,,,363857,,,,,,
170040,note_on,0,0,1,,,,,,,,0,,,84,90
170040,note_on,0,0,4,,,,,,,,0,,,56,90
170040,note_on,0,0,4,,,,,,,,0,,,51,90
170040,note_on,0,0,4,,,,,,,,0,,,48,90
170040,note_on,0,0,1,,,,,,,,0,,,92,90
170040,note_on,0,0,4,,,,,,,,0,,,44,90
170040,note_on,624,0,1,,,,,,,,0,,,80,90
170040,control_change,42,0,4,,,,,,,,0,64,127,,
170064,set_tempo,30,1,0,,,,,,365497,,,,,,
170095,set_tempo,31,1,0,,,,,,367152,,,,,,
170126,set_tempo,31,1,0,,,,,,368822,,,,,,
170136,note_on,96,0,1,,,,,,,,0,,,92,0
170136,note_on,0,0,4,,,,,,,,0,,,56,0
170136,note_on,0,0,4,,,,,,,,0,,,48,0
170136,note_on,0,0,4,,,,,,,,0,,,44,0
170136,note_on,0,0,1,,,,,,,,0,,,80,0
170136,note_on,0,0,1,,,,,,,,0,,,84,0
170136,note_on,96,0,4,,,,,,,,0,,,51,0
170152,set_tempo,26,1,0,,,,,,370508,,,,,,
170160,note_on,132,0,2,,,,,,,,0,,,75,76
170160,note_on,132,0,3,,,,,,,,0,,,51,76
170182,set_tempo,30,1,0,,,,,,372208,,,,,,
170208,note_on,48,0,2,,,,,,,,0,,,75,0
170208,note_on,48,0,3,,,,,,,,0,,,51,0
170213,set_tempo,31,1,0,,,,,,373925,,,,,,
170220,note_on,12,0,2,,,,,,,,0,,,87,76
170220,note_on,12,0,3,,,,,,,,0,,,63,76
170243,set_tempo,30,1,0,,,,,,375657,,,,,,
170268,note_on,48,0,2,,,,,,,,0,,,87,0
170268,note_on,48,0,3,,,,,,,,0,,,63,0
170270,set_tempo,27,1,0,,,,,,377406,,,,,,
170280,note_on,12,0,3,,,,,,,,0,,,51,76
170280,note_on,12,0,2,,,,,,,,0,,,75,76
170300,set_tempo,30,1,0,,,,,,379171,,,,,,
170328,note_on,48,0,2,,,,,,,,0,,,75,0
170328,note_on,48,0,3,,,,,,,,0,,,51,0
170331,set_tempo,31,1,0,,,,,,380952,,,,,,
170340,note_on,12,0,2,,,,,,,,0,,,87,76
170340,note_on,12,0,3,,,,,,,,0,,,63,76
170357,set_tempo,26,1,0,,,,,,382751,,,,,,
170387,set_tempo,30,1,0,,,,,,384566,,,,,,
170388,note_on,48,0,3,,,,,,,,0,,,63,0
170388,note_on,48,0,2,,,,,,,,0,,,87,0
170400,note_on,12,0,2,,,,,,,,0,,,74,76
170400,note_on,12,0,3,,,,,,,,0,,,50,76
170418,set_tempo,31,1,0,,,,,,386399,,,,,,
170448,note_on,48,0,2,,,,,,,,0,,,74,0
170448,set_tempo,30,1,0,,,,,,388249,,,,,,
170448,note_on,48,0,3,,,,,,,,0,,,50,0
170460,note_on,12,0,2,,,,,,,,0,,,86,76
170460,note_on,12,0,3,,,,,,,,0,,,62,76
170475,set_tempo,27,1,0,,,,,,390117,,,,,,
170505,set_tempo,30,1,0,,,,,,392003,,,,,,
170508,note_on,48,0,3,,,,,,,,0,,,62,0
170508,note_on,48,0,2,,,,,,,,0,,,86,0
170520,note_on,12,0,2,,,,,,,,0,,,75,76
170520,note_on,12,0,3,,,,,,,,0,,,51,76
170536,set_tempo,31,1,0,,,,,,393908,,,,,,
170562,set_tempo,26,1,0,,,,,,395831,,,,,,
170568,note_on,48,0,2,,,,,,,,0,,,75,0
170568,note_on,48,0,3,,,,,,,,0,,,51,0
170580,note_on,12,0,2,,,,,,,,0,,,87,76
170580,note_on,12,0,3,,,,,,,,0,,,63,76
170592,set_tempo,30,1,0,,,,,,397772,,,,,,
170623,set_tempo,31,1,0,,,,,,399734,,,,,,
170628,note_on,48,0,3,,,,,,,,0,,,63,0
170628,note_on,48,0,2,,,,,,,,0,,,87,0
170636,set_tempo,13,1,0,,,,,,411918,,,,,,
170640,note_on,12,0,3,,,,,,,,0,,,51,76
170640,note_on,12,0,2,,,,,,,,0,,,75,76
170688,note_on,48,0,2,,,,,,,,0,,,75,0
170688,note_on,48,0,3,,,,,,,,0,,,51,0
170700,note_on,12,0,2,,,,,,,,0,,,87,76
170700,note_on,12,0,3,,,,,,,,0,,,63,76
170725,control_change,589,0,4,,,,,,,,0,64,0,,
170748,note_on,48,0,3,,,,,,,,0,,,63,0
170748,note_on,48,0,2,,,,,,,,0,,,87,0
170750,set_tempo,114,1,0,,,,,,409836,,,,,,
170754,set_tempo,4,1,0,,,,,,367152,,,,,,
170760,note_on,0,0,1,,,,,,,,0,,,82,90
170760,note_on,624,0,1,,,,,,,,0,,,91,90
170760,note_on,0,0,1,,,,,,,,0,,,79,90
170760,control_change,35,0,4,,,,,,,,0,64,127,,
170760,note_on,0,0,4,,,,,,,,0,,,51,90
170760,note_on,0,0,4,,,,,,,,0,,,46,90
170760,note_on,0,0,4,,,,,,,,0,,,39,90
170760,note_on,0,0,4,,,,,,,,0,,,43,90
170784,set_tempo,30,1,0,,,,,,368822,,,,,,
170815,set_tempo,31,1,0,,,,,,370508,,,,,,
170846,set_tempo,31,1,0,,,,,,372208,,,,,,
170856,note_on,96,0,4,,,,,,,,0,,,39,0
170856,note_on,0,0,1,,,,,,,,0,,,79,0
170856,note_on,0,0,4,,,,,,,,0,,,51,0
170856,note_on,96,0,1,,,,,,,,0,,,82,0
170856,note_on,0,0,4,,,,,,,,0,,,46,0
170856,note_on,0,0,4,,,,,,,,0,,,43,0
170856,note_on,0,0,1,,,,,,,,0,,,91,0
170876,set_tempo,30,1,0,,,,,,373925,,,,,,
170880,note_on,132,0,3,,,,,,,,0,,,46,76
170880,note_on,132,0,2,,,,,,,,0,,,70,76
170907,set_tempo,31,1,0,,,,,,375657,,,,,,
170928,note_on,48,0,2,,,,,,,,0,,,70,0
170928,note_on,48,0,3,,,,,,,,0,,,46,0
170937,set_tempo,30,1,0,,,,,,377406,,,,,,
170940,note_on,12,0,3,,,,,,,,0,,,58,76
170940,note_on,12,0,2,,,,,,,,0,,,82,76
170968,set_tempo,31,1,0,,,,,,379171,,,,,,
170988,note_on,48,0,3,,,,,,,,0,,,58,0
170988,note_on,48,0,2,,,,,,,,0,,,82,0
170998,set_tempo,30,1,0,,,,,,380952,,,,,,
171000,note_on,12,0,3,,,,,,,,0,,,46,76
171000,note_on,12,0,2,,,,,,,,0,,,70,76
171029,set_tempo,31,1,0,,,,,,382751,,,,,,
171048,note_on,48,0,3,,,,,,,,0,,,46,0
171048,note_on,48,0,2,,,,,,,,0,,,70,0
171059,set_tempo,30,1,0,,,,,,384566,,,,,,
171060,note_on,12,0,2,,,,,,,,0,,,82,76
171060,note_on,12,0,3,,,,,,,,0,,,58,76
171090,set_tempo,31,1,0,,,,,,386399,,,,,,
171108,note_on,48,0,3,,,,,,,,0,,,58,0
171108,note_on,48,0,2,,,,,,,,0,,,82,0
171116,set_tempo,26,1,0,,,,,,388249,,,,,,
171120,note_on,12,0,2,,,,,,,,0,,,69,76
171120,note_on,12,0,3,,,,,,,,0,,,45,76
171147,set_tempo,31,1,0,,,,,,390117,,,,,,
171168,note_on,48,0,2,,,,,,,,0,,,69,0
171168,note_on,48,0,3,,,,,,,,0,,,45,0
171177,set_tempo,30,1,0,,,,,,392003,,,,,,
171180,note_on,12,0,3,,,,,,,,0,,,57,76
171180,note_on,12,0,2,,,,,,,,0,,,81,76
171208,set_tempo,31,1,0,,,,,,393908,,,,,,
171228,note_on,48,0,2,,,,,,,,0,,,81,0
171228,note_on,48,0,3,,,,,,,,0,,,57,0
171238,set_tempo,30,1,0,,,,,,395831,,,,,,
171240,note_on,12,0,3,,,,,,,,0,,,46,76
171240,note_on,12,0,2,,,,,,,,0,,,70,76
171269,set_tempo,31,1,0,,,,,,397772,,,,,,
171288,note_on,48,0,2,,,,,,,,0,,,70,0
171288,note_on,48,0,3,,,,,,,,0,,,46,0
171299,set_tempo,30,1,0,,,,,,399734,,,,,,
171300,note_on,12,0,3,,,,,,,,0,,,58,76
171300,note_on,12,0,2,,,,,,,,0,,,82,76
171330,set_tempo,31,1,0,,,,,,401714,,,,,,
171348,note_on,48,0,3,,,,,,,,0,,,58,0
171348,note_on,48,0,2,,,,,,,,0,,,82,0
171360,set_tempo,30,1,0,,,,,,403714,,,,,,
171360,note_on,12,0,2,,,,,,,,0,,,75,76
171360,note_on,12,0,3,,,,,,,,0,,,51,76
171365,set_tempo,5,1,0,,,,,,411918,,,,,,
171408,note_on,48,0,3,,,,,,,,0,,,51,0
171408,note_on,48,0,2,,,,,,,,0,,,75,0
171420,note_on,12,0,2,,,,,,,,0,,,87,76
171420,note_on,12,0,3,,,,,,,,0,,,63,76
171431,control_change,575,0,4,,,,,,,,0,64,0,,
171461,set_tempo,96,1,0,,,,,,409836,,,,,,
171465,set_tempo,4,1,0,,,,,,370508,,,,,,
171468,note_on,48,0,2,,,,,,,,0,,,87,0
171468,note_on,48,0,3,,,,,,,,0,,,63,0
171480,note_on,624,0,1,,,,,,,,0,,,91,90
171480,control_change,0,0,4,,,,,,,,0,64,127,,
171480,note_on,0,0,1,,,,,,,,0,,,79,90
171480,note_on,0,0,4,,,,,,,,0,,,50,90
171480,note_on,0,0,1,,,,,,,,0,,,82,90
171480,note_on,0,0,4,,,,,,,,0,,,46,90
171480,note_on,0,0,4,,,,,,,,0,,,43,90
171480,note_on,49,0,4,,,,,,,,0,,,55,90
171504,set_tempo,39,1,0,,,,,,372208,,,,,,
171539,set_tempo,35,1,0,,,,,,373925,,,,,,
171574,set_tempo,35,1,0,,,,,,375657,,,,,,
171576,note_on,0,0,4,,,,,,,,0,,,43,0
171576,note_on,0,0,4,,,,,,,,0,,,50,0
171576,note_on,96,0,1,,,,,,,,0,,,79,0
171576,note_on,0,0,4,,,,,,,,0,,,55,0
171576,note_on,0,0,1,,,,,,,,0,,,91,0
171576,note_on,96,0,4,,,,,,,,0,,,46,0
171576,note_on,0,0,1,,,,,,,,0,,,82,0
171600,note_on,132,0,3,,,,,,,,0,,,50,76
171600,note_on,132,0,2,,,,,,,,0,,,74,76
171609,set_tempo,35,1,0,,,,,,377406,,,,,,
171644,set_tempo,35,1,0,,,,,,379171,,,,,,
171648,note_on,48,0,2,,,,,,,,0,,,74,0
171648,note_on,48,0,3,,,,,,,,0,,,50,0
171660,note_on,12,0,3,,,,,,,,0,,,62,76
171660,note_on,12,0,2,,,,,,,,0,,,86,76
171679,set_tempo,35,1,0,,,,,,380952,,,,,,
171708,note_on,48,0,3,,,,,,,,0,,,62,0
171708,note_on,48,0,2,,,,,,,,0,,,86,0
171714,set_tempo,35,1,0,,,,,,382751,,,,,,
171720,note_on,12,0,2,,,,,,,,0,,,74,76
171720,note_on,12,0,3,,,,,,,,0,,,50,76
171749,set_tempo,35,1,0,,,,,,384566,,,,,,
171768,note_on,48,0,3,,,,,,,,0,,,50,0
171768,note_on,48,0,2,,,,,,,,0,,,74,0
171780,note_on,12,0,2,,,,,,,,0,,,86,76
171780,note_on,12,0,3,,,,,,,,0,,,62,76
171784,set_tempo,35,1,0,,,,,,386399,,,,,,
171819,set_tempo,35,1,0,,,,,,388249,,,,,,
171828,note_on,48,0,2,,,,,,,,0,,,86,0
171828,note_on,48,0,3,,,,,,,,0,,,62,0
171840,note_on,12,0,3,,,,,,,,0,,,49,76
171840,note_on,12,0,2,,,,,,,,0,,,73,76
171858,set_tempo,39,1,0,,,,,,390117,,,,,,
171888,note_on,48,0,2,,,,,,,,0,,,73,0
171888,note_on,48,0,3,,,,,,,,0,,,49,0
171893,set_tempo,35,1,0,,,,,,392003,,,,,,
171900,note_on,12,0,3,,,,,,,,0,,,61,76
171900,note_on,12,0,2,,,,,,,,0,,,85,76
171928,set_tempo,35,1,0,,,,,,393908,,,,,,
171948,note_on,48,0,3,,,,,,,,0,,,61,0
171948,note_on,48,0,2,,,,,,,,0,,,85,0
171960,note_on,12,0,2,,,,,,,,0,,,74,76
171960,note_on,12,0,3,,,,,,,,0,,,50,76
171963,set_tempo,35,1,0,,,,,,395831,,,,,,
171998,set_tempo,35,1,0,,,,,,397772,,,,,,
172008,note_on,48,0,2,,,,,,,,0,,,74,0
172008,note_on,48,0,3,,,,,,,,0,,,50,0
172020,note_on,12,0,3,,,,,,,,0,,,62,76
172020,note_on,12,0,2,,,,,,,,0,,,86,76
172032,set_tempo,34,1,0,,,,,,399734,,,,,,
172067,set_tempo,35,1,0,,,,,,401714,,,,,,
172068,note_on,48,0,3,,,,,,,,0,,,62,0
172068,note_on,48,0,2,,,,,,,,0,,,86,0
172080,note_on,12,0,2,,,,,,,,0,,,74,76
172080,note_on,12,0,3,,,,,,,,0,,,50,76
172102,set_tempo,35,1,0,,,,,,403714,,,,,,
172128,note_on,48,0,2,,,,,,,,0,,,74,0
172128,note_on,48,0,3,,,,,,,,0,,,50,0
172137,set_tempo,35,1,0,,,,,,405734,,,,,,
172140,note_on,12,0,3,,,,,,,,0,,,62,76
172140,note_on,12,0,2,,,,,,,,0,,,86,76
172154,control_change,578,0,4,,,,,,,,0,64,0,,
172172,set_tempo,35,1,0,,,,,,407775,,,,,,
172188,note_on,48,0,3,,,,,,,,0,,,62,0
172188,note_on,48,0,2,,,,,,,,0,,,86,0
172200,note_on,0,0,4,,,,,,,,0,,,45,95
172200,note_on,0,0,1,,,,,,,,0,,,90,95
172200,control_change,46,0,4,,,,,,,,0,64,127,,
172200,note_on,0,0,4,,,,,,,,0,,,50,95
172200,note_on,0,0,1,,,,,,,,0,,,81,95
172200,note_on,624,0,1,,,,,,,,0,,,78,95
172200,note_on,0,0,4,,,,,,,,0,,,42,95
172200,note_on,0,0,4,,,,,,,,0,,,38,95
172207,set_tempo,35,1,0,,,,,,388249,,,,,,
172296,note_on,96,0,1,,,,,,,,0,,,81,0
172296,note_on,96,0,4,,,,,,,,0,,,45,0
172296,note_on,0,0,1,,,,,,,,0,,,78,0
172296,note_on,0,0,4,,,,,,,,0,,,50,0
172296,note_on,0,0,4,,,,,,,,0,,,42,0
172296,note_on,0,0,4,,,,,,,,0,,,38,0
172296,note_on,0,0,1,,,,,,,,0,,,90,0
172320,note_on,24,0,4,,,,,,,,0,,,50,72
172320,note_on,24,0,1,,,,,,,,0,,,78,72
172320,note_on,0,0,1,,,,,,,,0,,,69,72
172320,note_on,0,0,4,,,,,,,,0,,,54,72
172320,note_on,0,0,1,,,,,,,,0,,,81,72
172320,note_on,0,0,4,,,,,,,,0,,,57,72
172416,note_on,0,0,4,,,,,,,,0,,,54,0
172416,note_on,96,0,4,,,,,,,,0,,,57,0
172416,note_on,0,0,4,,,,,,,,0,,,50,0
172416,note_on,0,0,1,,,,,,,,0,,,81,0
172416,note_on,0,0,1,,,,,,,,0,,,78,0
172416,note_on,96,0,1,,,,,,,,0,,,69,0
172440,note_on,0,0,1,,,,,,,,0,,,78,72
172440,note_on,0,0,4,,,,,,,,0,,,54,72
172440,note_on,0,0,1,,,,,,,,0,,,71,72
172440,note_on,24,0,1,,,,,,,,0,,,83,72
172440,note_on,0,0,4,,,,,,,,0,,,59,72
172440,note_on,24,0,4,,,,,,,,0,,,50,72
172477,control_change,37,0,4,,,,,,,,0,64,0,,
172536,note_on,0,0,4,,,,,,,,0,,,59,0
172536,note_on,0,0,4,,,,,,,,0,,,50,0
172536,note_on,59,0,4,,,,,,,,0,,,54,0
172536,note_on,0,0,1,,,,,,,,0,,,71,0
172536,note_on,0,0,1,,,,,,,,0,,,83,0
172536,note_on,96,0,1,,,,,,,,0,,,78,0
172550,control_change,14,0,4,,,,,,,,0,64,127,,
172560,note_on,0,0,1,,,,,,,,0,,,85,97
172560,note_on,0,0,1,,,,,,,,0,,,73,97
172560,note_on,0,0,4,,,,,,,,0,,,42,80
172560,note_on,24,0,1,,,,,,,,0,,,81,97
172560,note_on,10,0,4,,,,,,,,0,,,49,80
172560,note_on,0,0,4,,,,,,,,0,,,45,80
172560,note_on,0,0,4,,,,,,,,0,,,54,80
172656,note_on,0,0,4,,,,,,,,0,,,45,0
172656,note_on,0,0,4,,,,,,,,0,,,49,0
172656,note_on,0,0,4,,,,,,,,0,,,54,0
172656,note_on,0,0,1,,,,,,,,0,,,81,0
172656,note_on,96,0,4,,,,,,,,0,,,42,0
172656,note_on,0,0,1,,,,,,,,0,,,73,0
172656,note_on,96,0,1,,,,,,,,0,,,85,0
172680,note_on,0,0,4,,,,,,,,0,,,56,72
172680,note_on,0,0,4,,,,,,,,0,,,60,72
172680,note_on,0,0,1,,,,,,,,0,,,72,72
172680,note_on,0,0,1,,,,,,,,0,,,84,72
172680,note_on,24,0,1,,,,,,,,0,,,80,72
172680,note_on,24,0,4,,,,,,,,0,,,54,72
172776,note_on,0,0,1,,,,,,,,0,,,72,0
172776,note_on,0,0,4,,,,,,,,0,,,54,0
172776,note_on,0,0,4,,,,,,,,0,,,60,0
172776,note_on,96,0,1,,,,,,,,0,,,84,0
172776,note_on,96,0,4,,,,,,,,0,,,56,0
172776,note_on,0,0,1,,,,,,,,0,,,80,0
172800,note_on,24,0,4,,,,,,,,0,,,61,72
172800,note_on,0,0,1,,,,,,,,0,,,73,72
172800,note_on,0,0,1,,,,,,,,0,,,81,72
172800,note_on,24,0,1,,,,,,,,0,,,85,72
172800,note_on,0,0,4,,,,,,,,0,,,57,72
172800,note_on,0,0,4,,,,,,,,0,,,54,72
172842,control_change,42,0,4,,,,,,,,0,64,0,,
172896,note_on,54,0,4,,,,,,,,0,,,57,0
172896,note_on,96,0,1,,,,,,,,0,,,81,0
172896,note_on,0,0,4,,,,,,,,0,,,54,0
172896,note_on,0,0,4,,,,,,,,0,,,61,0
172896,note_on,0,0,1,,,,,,,,0,,,73,0
172896,note_on,0,0,1,,,,,,,,0,,,85,0
172920,note_on,0,0,1,,,,,,,,0,,,80,95
172920,note_on,0,0,1,,,,,,,,0,,,77,95
172920,note_on,0,0,4,,,,,,,,0,,,37,95
172920,note_on,24,0,1,,,,,,,,0,,,89,95
172920,note_on,24,0,4,,,,,,,,0,,,49,95
172920,note_on,0,0,4,,,,,,,,0,,,41,95
172920,note_on,0,0,4,,,,,,,,0,,,44,95
172920,control_change,0,0,4,,,,,,,,0,64,127,,
173016,note_on,0,0,4,,,,,,,,0,,,49,0
173016,note_on,0,0,1,,,,,,,,0,,,89,0
173016,note_on,0,0,1,,,,,,,,0,,,80,0
173016,note_on,96,0,1,,,,,,,,0,,,77,0
173016,note_on,0,0,4,,,,,,,,0,,,41,0
173016,note_on,96,0,4,,,,,,,,0,,,44,0
173016,note_on,0,0,4,,,,,,,,0,,,37,0
173040,note_on,852,0,3,,,,,,,,0,,,53,80
173040,note_on,852,0,2,,,,,,,,0,,,77,72
173040,note_on,0,0,2,,,,,,,,0,,,80,72
173040,note_on,0,0,3,,,,,,,,0,,,56,80
173040,note_on,0,0,3,,,,,,,,0,,,49,80
173040,note_on,0,0,2,,,,,,,,0,,,68,72
173136,note_on,0,0,3,,,,,,,,0,,,53,0
173136,note_on,96,0,3,,,,,,,,0,,,49,0
173136,note_on,0,0,2,,,,,,,,0,,,68,0
173136,note_on,0,0,2,,,,,,,,0,,,77,0
173136,note_on,96,0,2,,,,,,,,0,,,80,0
173136,note_on,0,0,3,,,,,,,,0,,,56,0
173160,note_on,0,0,3,,,,,,,,0,,,53,80
173160,note_on,24,0,3,,,,,,,,0,,,58,80
173160,note_on,0,0,3,,,,,,,,0,,,49,80
173160,note_on,0,0,2,,,,,,,,0,,,77,72
173160,note_on,0,0,2,,,,,,,,0,,,82,72
173160,note_on,24,0,2,,,,,,,,0,,,70,72
173249,control_change,233,0,4,,,,,,,,0,64,0,,
173256,note_on,0,0,3,,,,,,,,0,,,58,0
173256,note_on,96,0,2,,,,,,,,0,,,77,0
173256,note_on,0,0,2,,,,,,,,0,,,70,0
173256,note_on,0,0,3,,,,,,,,0,,,49,0
173256,note_on,0,0,2,,,,,,,,0,,,82,0
173256,note_on,96,0,3,,,,,,,,0,,,53,0
173280,note_on,0,0,4,,,,,,,,0,,,44,80
173280,note_on,31,0,4,,,,,,,,0,,,53,80
173280,note_on,0,0,1,,,,,,,,0,,,80,96
173280,note_on,0,0,4,,,,,,,,0,,,48,80
173280,note_on,0,0,4,,,,,,,,0,,,41,80
173280,note_on,264,0,1,,,,,,,,0,,,84,96
173280,note_on,0,0,1,,,,,,,,0,,,72,96
173301,control_change,21,0,4,,,,,,,,0,64,127,,
173376,note_on,75,0,4,,,,,,,,0,,,48,0
173376,note_on,96,0,1,,,,,,,,0,,,80,0
173376,note_on,0,0,1,,,,,,,,0,,,84,0
173376,note_on,0,0,1,,,,,,,,0,,,72,0
173376,note_on,0,0,4,,,,,,,,0,,,44,0
173376,note_on,0,0,4,,,,,,,,0,,,41,0
173376,note_on,0,0,4,,,,,,,,0,,,53,0
173400,note_on,144,0,3,,,,,,,,0,,,59,80
173400,note_on,0,0,2,,,,,,,,0,,,79,72
173400,note_on,0,0,3,,,,,,,,0,,,53,80
173400,note_on,0,0,2,,,,,,,,0,,,83,72
173400,note_on,144,0,2,,,,,,,,0,,,71,72
173400,note_on,0,0,3,,,,,,,,0,,,55,80
173496,note_on,96,0,2,,,,,,,,0,,,79,0
173496,note_on,0,0,3,,,,,,,,0,,,59,0
173496,note_on,0,0,2,,,,,,,,0,,,83,0
173496,note_on,0,0,2,,,,,,,,0,,,71,0
173496,note_on,96,0,3,,,,,,,,0,,,53,0
173496,note_on,0,0,3,,,,,,,,0,,,55,0
173520,note_on,0,0,3,,,,,,,,0,,,60,80
173520,note_on,0,0,2,,,,,,,,0,,,72,72
173520,note_on,0,0,3,,,,,,,,0,,,56,80
173520,note_on,24,0,3,,,,,,,,0,,,53,80
173520,note_on,0,0,2,,,,,,,,0,,,84,72
173520,note_on,24,0,2,,,,,,,,0,,,80,72
173603,control_change,227,0,4,,,,,,,,0,64,0,,
173616,note_on,0,0,3,,,,,,,,0,,,53,0
173616,note_on,96,0,3,,,,,,,,0,,,60,0
173616,note_on,0,0,2,,,,,,,,0,,,84,0
173616,note_on,0,0,2,,,,,,,,0,,,80,0
173616,note_on,96,0,2,,,,,,,,0,,,72,0
173616,note_on,0,0,3,,,,,,,,0,,,56,0
173638,set_tempo,1431,1,0,,,,,,382751,,,,,,
173640,set_tempo,0,1,0,,,,,,454545,,,,,,
173640,note_on,264,0,1,,,,,,,,0,,,79,88
173640,control_change,37,0,4,,,,,,,,0,64,127,,
173640,time_signature,2,1,0,2,4,24,8,,,,,,,,
173640,note_on,0,0,1,,,,,,,,0,,,76,88
173640,note_on,0,0,4,,,,,,,,0,,,36,88
173640,note_on,0,0,4,,,,,,,,0,,,43,88
173640,note_on,0,0,4,,,,,,,,0,,,48,88
173640,note_on,0,0,1,,,,,,,,0,,,88,88
173653,set_tempo,13,1,0,,,,,,588235,,,,,,
173688,note_on,48,0,1,,,,,,,,0,,,76,0
173688,note_on,0,0,1,,,,,,,,0,,,79,0
173688,note_on,0,0,4,,,,,,,,0,,,36,0
173688,note_on,0,0,4,,,,,,,,0,,,43,0
173688,note_on,48,0,4,,,,,,,,0,,,48,0
173688,note_on,0,0,1,,,,,,,,0,,,88,0
173730,note_on,0,0,1,,,,,,,,0,,,72,88
173730,note_on,42,0,1,,,,,,,,0,,,67,88
173730,note_on,0,0,1,,,,,,,,0,,,76,88
173730,note_on,0,0,4,,,,,,,,0,,,64,88
173730,note_on,0,0,4,,,,,,,,0,,,55,88
173730,note_on,42,0,4,,,,,,,,0,,,60,88
173754,note_on,0,0,4,,,,,,,,0,,,55,0
173754,note_on,0,0,1,,,,,,,,0,,,67,0
173754,note_on,0,0,1,,,,,,,,0,,,76,0
173754,note_on,24,0,1,,,,,,,,0,,,72,0
173754,note_on,24,0,4,,,,,,,,0,,,64,0
173754,note_on,0,0,4,,,,,,,,0,,,60,0
173760,note_on,6,0,1,,,,,,,,0,,,67,88
173760,note_on,0,0,4,,,,,,,,0,,,55,88
173760,note_on,0,0,4,,,,,,,,0,,,64,88
173760,note_on,6,0,4,,,,,,,,0,,,60,88
173760,note_on,0,0,1,,,,,,,,0,,,76,88
173760,note_on,0,0,1,,,,,,,,0,,,72,88
173856,note_on,0,0,4,,,,,,,,0,,,60,0
173856,note_on,0,0,1,,,,,,,,0,,,67,0
173856,note_on,0,0,1,,,,,,,,0,,,72,0
173856,note_on,0,0,4,,,,,,,,0,,,55,0
173856,note_on,96,0,1,,,,,,,,0,,,76,0
173856,note_on,96,0,4,,,,,,,,0,,,64,0
173861,control_change,5,0,4,,,,,,,,0,64,0,,
173880,note_on,0,0,1,,,,,,,,0,,,79,88
173880,note_on,24,0,1,,,,,,,,0,,,87,88
173880,note_on,19,0,4,,,,,,,,0,,,43,88
173880,note_on,0,0,1,,,,,,,,0,,,75,88
173880,note_on,0,0,4,,,,,,,,0,,,36,80
173880,note_on,0,0,4,,,,,,,,0,,,48,88
173892,control_change,12,0,4,,,,,,,,0,64,127,,
173928,note_on,0,0,1,,,,,,,,0,,,87,0
173928,note_on,0,0,1,,,,,,,,0,,,79,0
173928,note_on,0,0,4,,,,,,,,0,,,43,0
173928,note_on,0,0,4,,,,,,,,0,,,36,0
173928,note_on,48,0,1,,,,,,,,0,,,75,0
173928,note_on,36,0,4,,,,,,,,0,,,48,0
173970,note_on,42,0,1,,,,,,,,0,,,75,88
173970,note_on,42,0,4,,,,,,,,0,,,60,88
173970,note_on,0,0,1,,,,,,,,0,,,67,88
173970,note_on,0,0,4,,,,,,,,0,,,55,88
173970,note_on,0,0,4,,,,,,,,0,,,63,88
173970,note_on,0,0,1,,,,,,,,0,,,72,88
173994,note_on,24,0,4,,,,,,,,0,,,63,0
173994,note_on,0,0,4,,,,,,,,0,,,60,0
173994,note_on,24,0,1,,,,,,,,0,,,72,0
173994,note_on,0,0,4,,,,,,,,0,,,55,0
173994,note_on,0,0,1,,,,,,,,0,,,75,0
173994,note_on,0,0,1,,,,,,,,0,,,67,0
174000,note_on,0,0,4,,,,,,,,0,,,63,88
174000,note_on,0,0,4,,,,,,,,0,,,55,88
174000,note_on,0,0,1,,,,,,,,0,,,67,88
174000,note_on,0,0,1,,,,,,,,0,,,75,88
174000,note_on,6,0,4,,,,,,,,0,,,60,88
174000,note_on,6,0,1,,,,,,,,0,,,72,88
174096,note_on,0,0,1,,,,,,,,0,,,67,0
174096,note_on,96,0,1,,,,,,,,0,,,75,0
174096,note_on,0,0,4,,,,,,,,0,,,60,0
174096,note_on,0,0,4,,,,,,,,0,,,63,0
174096,note_on,0,0,1,,,,,,,,0,,,72,0
174096,note_on,96,0,4,,,,,,,,0,,,55,0
174104,control_change,8,0,4,,,,,,,,0,64,0,,
174120,note_on,0,0,4,,,,,,,,0,,,32,88
174120,note_on,24,0,1,,,,,,,,0,,,85,88
174120,note_on,0,0,4,,,,,,,,0,,,41,88
174120,note_on,0,0,1,,,,,,,,0,,,77,88
174120,note_on,0,0,1,,,,,,,,0,,,73,88
174120,control_change,16,0,4,,,,,,,,0,64,127,,
174120,note_on,0,0,4,,,,,,,,0,,,44,88
174168,note_on,48,0,1,,,,,,,,0,,,73,0
174168,note_on,0,0,4,,,,,,,,0,,,44,0
174168,note_on,0,0,1,,,,,,,,0,,,77,0
174168,note_on,48,0,4,,,,,,,,0,,,32,0
174168,note_on,0,0,4,,,,,,,,0,,,41,0
174168,note_on,0,0,1,,,,,,,,0,,,85,0
174210,note_on,0,0,4,,,,,,,,0,,,61,86
174210,note_on,42,0,1,,,,,,,,0,,,68,86
174210,note_on,0,0,1,,,,,,,,0,,,73,86
174210,note_on,42,0,4,,,,,,,,0,,,53,86
174210,note_on,0,0,1,,,,,,,,0,,,65,86
174210,note_on,0,0,4,,,,,,,,0,,,56,86
174234,note_on,24,0,1,,,,,,,,0,,,65,0
174234,note_on,0,0,1,,,,,,,,0,,,68,0
174234,note_on,0,0,4,,,,,,,,0,,,56,0
174234,note_on,0,0,4,,,,,,,,0,,,53,0
174234,note_on,24,0,4,,,,,,,,0,,,61,0
174234,note_on,0,0,1,,,,,,,,0,,,73,0
174240,note_on,6,0,4,,,,,,,,0,,,56,86
174240,note_on,0,0,1,,,,,,,,0,,,68,86
174240,note_on,0,0,4,,,,,,,,0,,,53,86
174240,note_on,6,0,1,,,,,,,,0,,,65,86
174240,note_on,0,0,1,,,,,,,,0,,,73,86
174240,note_on,0,0,4,,,,,,,,0,,,61,86
174336,note_on,96,0,1,,,,,,,,0,,,68,0
174336,note_on,0,0,1,,,,,,,,0,,,65,0
174336,note_on,0,0,1,,,,,,,,0,,,73,0
174336,note_on,0,0,4,,,,,,,,0,,,53,0
174336,note_on,96,0,4,,,,,,,,0,,,61,0
174336,note_on,0,0,4,,,,,,,,0,,,56,0
174356,control_change,20,0,4,,,,,,,,0,64,0,,
174360,note_on,4,0,4,,,,,,,,0,,,33,83
174360,note_on,0,0,4,,,,,,,,0,,,45,83
174360,note_on,0,0,1,,,,,,,,0,,,72,83
174360,note_on,0,0,1,,,,,,,,0,,,75,83
174360,note_on,0,0,4,,,,,,,,0,,,42,83
174360,note_on,24,0,1,,,,,,,,0,,,84,83
174365,control_change,5,0,4,,,,,,,,0,64,127,,
174408,note_on,0,0,1,,,,,,,,0,,,84,0
174408,note_on,43,0,4,,,,,,,,0,,,42,0
174408,note_on,0,0,1,,,,,,,,0,,,75,0
174408,note_on,48,0,1,,,,,,,,0,,,72,0
174408,note_on,0,0,4,,,,,,,,0,,,33,0
174408,note_on,0,0,4,,,,,,,,0,,,45,0
174450,note_on,0,0,1,,,,,,,,0,,,63,81
174450,note_on,0,0,4,,,,,,,,0,,,54,81
174450,note_on,0,0,4,,,,,,,,0,,,51,81
174450,note_on,42,0,1,,,,,,,,0,,,66,81
174450,note_on,0,0,1,,,,,,,,0,,,72,81
174450,note_on,42,0,4,,,,,,,,0,,,60,81
174474,note_on,0,0,1,,,,,,,,0,,,72,0
174474,note_on,0,0,1,,,,,,,,0,,,66,0
174474,note_on,24,0,1,,,,,,,,0,,,63,0
174474,note_on,0,0,4,,,,,,,,0,,,60,0
174474,note_on,24,0,4,,,,,,,,0,,,51,0
174474,note_on,0,0,4,,,,,,,,0,,,54,0
174480,note_on,0,0,1,,,,,,,,0,,,72,80
174480,note_on,6,0,1,,,,,,,,0,,,63,80
174480,note_on,0,0,4,,,,,,,,0,,,60,80
174480,note_on,0,0,1,,,,,,,,0,,,66,80
174480,note_on,0,0,4,,,,,,,,0,,,54,80
174480,note_on,6,0,4,,,,,,,,0,,,51,80
174576,note_on,0,0,1,,,,,,,,0,,,63,0
174576,note_on,0,0,1,,,,,,,,0,,,66,0
174576,note_on,0,0,4,,,,,,,,0,,,51,0
174576,note_on,0,0,4,,,,,,,,0,,,60,0
174576,note_on,96,0,1,,,,,,,,0,,,72,0
174576,note_on,96,0,4,,,,,,,,0,,,54,0
174581,control_change,5,0,4,,,,,,,,0,64,0,,
174591,set_tempo,938,1,0,,,,,,575705,,,,,,
174600,set_tempo,0,1,0,,,,,,390117,,,,,,
174600,note_on,0,0,4,,,,,,,,0,,,46,80
174600,control_change,19,0,4,,,,,,,,0,64,127,,
174600,note_on,0,0,1,,,,,,,,0,,,82,80
174600,note_on,0,0,4,,,,,,,,0,,,34,80
174600,note_on,24,0,1,,,,,,,,0,,,70,80
174600,time_signature,9,1,0,6,8,12,8,,,,,,,,
174696,note_on,96,0,4,,,,,,,,0,,,34,0
174696,note_on,0,0,4,,,,,,,,0,,,46,0
174696,note_on,96,0,1,,,,,,,,0,,,82,0
174696,note_on,0,0,1,,,,,,,,0,,,70,0
174720,note_on,24,0,1,,,,,,,,0,,,70,80
174720,note_on,0,0,1,,,,,,,,0,,,58,80
174780,note_on,0,0,4,,,,,,,,0,,,51,80
174780,note_on,84,0,4,,,,,,,,0,,,54,80
174816,note_on,0,0,1,,,,,,,,0,,,70,0
174816,note_on,96,0,1,,,,,,,,0,,,58,0
174828,note_on,48,0,4,,,,,,,,0,,,51,0
174828,note_on,0,0,4,,,,,,,,0,,,54,0
174840,note_on,12,0,4,,,,,,,,0,,,52,80
174840,note_on,0,0,4,,,,,,,,0,,,55,80
174840,note_on,24,0,1,,,,,,,,0,,,82,80
174840,note_on,0,0,1,,,,,,,,0,,,70,80
174927,control_change,87,0,4,,,,,,,,0,64,0,,
174936,note_on,0,0,4,,,,,,,,0,,,52,0
174936,note_on,0,0,1,,,,,,,,0,,,82,0
174936,note_on,96,0,1,,,,,,,,0,,,70,0
174936,note_on,9,0,4,,,,,,,,0,,,55,0
174960,note_on,0,0,1,,,,,,,,0,,,82,80
174960,note_on,0,0,4,,,,,,,,0,,,52,80
174960,note_on,24,0,4,,,,,,,,0,,,55,80
174960,note_on,24,0,1,,,,,,,,0,,,94,80
174962,control_change,2,0,4,,,,,,,,0,64,127,,
175056,note_on,94,0,4,,,,,,,,0,,,52,0
175056,note_on,96,0,1,,,,,,,,0,,,82,0
175056,note_on,0,0,1,,,,,,,,0,,,94,0
175056,note_on,0,0,4,,,,,,,,0,,,55,0
175080,note_on,24,0,1,,,,,,,,0,,,82,80
175080,note_on,0,0,1,,,,,,,,0,,,70,80
175140,note_on,0,0,4,,,,,,,,0,,,53,80
175140,note_on,84,0,4,,,,,,,,0,,,56,80
175176,note_on,0,0,1,,,,,,,,0,,,82,0
175176,note_on,96,0,1,,,,,,,,0,,,70,0
175188,note_on,0,0,4,,,,,,,,0,,,56,0
175188,note_on,48,0,4,,,,,,,,0,,,53,0
175200,note_on,0,0,4,,,,,,,,0,,,50,80
175200,note_on,0,0,1,,,,,,,,0,,,58,80
175200,note_on,24,0,1,,,,,,,,0,,,70,80
175200,note_on,12,0,4,,,,,,,,0,,,53,80
175248,note_on,48,0,4,,,,,,,,0,,,50,0
175248,note_on,0,0,4,,,,,,,,0,,,53,0
175296,note_on,0,0,1,,,,,,,,0,,,70,0
175296,note_on,96,0,1,,,,,,,,0,,,58,0
175299,control_change,51,0,4,,,,,,,,0,64,0,,
175320,note_on,24,0,1,,,,,,,,0,,,70,80
175320,control_change,0,0,4,,,,,,,,0,64,127,,
175320,note_on,0,0,4,,,,,,,,0,,,34,80
175320,note_on,21,0,4,,,,,,,,0,,,46,80
175320,note_on,0,0,1,,,,,,,,0,,,82,80
175416,note_on,0,0,1,,,,,,,,0,,,70,0
175416,note_on,96,0,4,,,,,,,,0,,,34,0
175416,note_on,0,0,4,,,,,,,,0,,,46,0
175416,note_on,96,0,1,,,,,,,,0,,,82,0
175440,note_on,24,0,1,,,,,,,,0,,,70,80
175440,note_on,0,0,1,,,,,,,,0,,,58,80
175500,note_on,0,0,4,,,,,,,,0,,,54,80
175500,note_on,84,0,4,,,,,,,,0,,,51,80
175536,note_on,96,0,1,,,,,,,,0,,,58,0
175536,note_on,0,0,1,,,,,,,,0,,,70,0
175548,note_on,48,0,4,,,,,,,,0,,,54,0
175548,note_on,0,0,4,,,,,,,,0,,,51,0
175560,note_on,0,0,4,,,,,,,,0,,,52,80
175560,note_on,24,0,1,,,,,,,,0,,,70,80
175560,note_on,12,0,4,,,,,,,,0,,,55,80
175560,note_on,0,0,1,,,,,,,,0,,,82,80
175656,note_on,96,0,1,,,,,,,,0,,,82,0
175656,note_on,0,0,4,,,,,,,,0,,,55,0
175656,note_on,0,0,1,,,,,,,,0,,,70,0
175656,note_on,96,0,4,,,,,,,,0,,,52,0
175659,control_change,3,0,4,,,,,,,,0,64,0,,
175680,note_on,0,0,4,,,,,,,,0,,,55,80
175680,note_on,21,0,4,,,,,,,,0,,,52,80
175680,note_on,24,0,1,,,,,,,,0,,,82,80
175680,note_on,0,0,1,,,,,,,,0,,,94,80
175686,control_change,6,0,4,,,,,,,,0,64,127,,
175776,note_on,0,0,4,,,,,,,,0,,,52,0
175776,note_on,90,0,4,,,,,,,,0,,,55,0
175776,note_on,96,0,1,,,,,,,,0,,,94,0
175776,note_on,0,0,1,,,,,,,,0,,,82,0
175800,note_on,24,0,1,,,,,,,,0,,,82,80
175800,note_on,0,0,1,,,,,,,,0,,,70,80
175860,note_on,0,0,4,,,,,,,,0,,,56,80
175860,note_on,84,0,4,,,,,,,,0,,,53,80
175896,note_on,0,0,1,,,,,,,,0,,,82,0
175896,note_on,96,0,1,,,,,,,,0,,,70,0
175908,note_on,48,0,4,,,,,,,,0,,,56,0
175908,note_on,0,0,4,,,,,,,,0,,,53,0
175920,note_on,0,0,1,,,,,,,,0,,,70,80
175920,note_on,24,0,1,,,,,,,,0,,,58,80
175920,note_on,0,0,4,,,,,,,,0,,,53,80
175920,note_on,12,0,4,,,,,,,,0,,,50,80
175968,note_on,48,0,4,,,,,,,,0,,,53,0
175968,note_on,0,0,4,,,,,,,,0,,,50,0
176016,note_on,96,0,1,,,,,,,,0,,,70,0
176016,note_on,0,0,1,,,,,,,,0,,,58,0
176021,control_change,53,0,4,,,,,,,,0,64,0,,
176040,note_on,0,0,4,,,,,,,,0,,,49,80
176040,note_on,24,0,1,,,,,,,,0,,,73,80
176040,note_on,0,0,1,,,,,,,,0,,,85,80
176040,control_change,19,0,4,,,,,,,,0,64,127,,
176040,note_on,0,0,4,,,,,,,,0,,,37,80
176136,note_on,0,0,4,,,,,,,,0,,,49,0
176136,note_on,0,0,1,,,,,,,,0,,,73,0
176136,note_on,96,0,1,,,,,,,,0,,,85,0
176136,note_on,96,0,4,,,,,,,,0,,,37,0
176160,note_on,24,0,1,,,,,,,,0,,,73,80
176160,note_on,0,0,1,,,,,,,,0,,,61,80
176220,note_on,0,0,4,,,,,,,,0,,,57,80
176220,note_on,84,0,4,,,,,,,,0,,,54,80
176256,note_on,96,0,1,,,,,,,,0,,,61,0
176256,note_on,0,0,1,,,,,,,,0,,,73,0
176268,note_on,0,0,4,,,,,,,,0,,,54,0
176268,note_on,48,0,4,,,,,,,,0,,,57,0
176280,note_on,24,0,1,,,,,,,,0,,,73,80
176280,note_on,0,0,4,,,,,,,,0,,,55,80
176280,note_on,0,0,1,,,,,,,,0,,,85,80
176280,note_on,12,0,4,,,,,,,,0,,,58,80
176365,control_change,85,0,4,,,,,,,,0,64,0,,
176376,note_on,96,0,1,,,,,,,,0,,,85,0
176376,note_on,0,0,4,,,,,,,,0,,,58,0
176376,note_on,0,0,1,,,,,,,,0,,,73,0
176376,note_on,11,0,4,,,,,,,,0,,,55,0
176400,note_on,24,0,4,,,,,,,,0,,,55,80
176400,note_on,24,0,1,,,,,,,,0,,,85,80
176400,note_on,0,0,1,,,,,,,,0,,,97,80
176400,note_on,0,0,4,,,,,,,,0,,,58,80
176404,control_change,4,0,4,,,,,,,,0,64,127,,
176496,note_on,96,0,1,,,,,,,,0,,,97,0
176496,note_on,0,0,1,,,,,,,,0,,,85,0
176496,note_on,92,0,4,,,,,,,,0,,,58,0
176496,note_on,0,0,4,,,,,,,,0,,,55,0
176520,note_on,24,0,1,,,,,,,,0,,,85,80
176520,note_on,0,0,1,,,,,,,,0,,,73,80
176580,note_on,84,0,4,,,,,,,,0,,,59,80
176580,note_on,0,0,4,,,,,,,,0,,,56,80
176616,note_on,0,0,1,,,,,,,,0,,,85,0
176616,note_on,96,0,1,,,,,,,,0,,,73,0
176628,note_on,0,0,4,,,,,,,,0,,,59,0
176628,note_on,48,0,4,,,,,,,,0,,,56,0
176640,note_on,0,0,4,,,,,,,,0,,,53,80
176640,note_on,0,0,1,,,,,,,,0,,,73,80
176640,note_on,12,0,4,,,,,,,,0,,,56,80
176640,note_on,24,0,1,,,,,,,,0,,,61,80
176688,note_on,0,0,4,,,,,,,,0,,,56,0
176688,note_on,48,0,4,,,,,,,,0,,,53,0
176736,note_on,96,0,1,,,,,,,,0,,,73,0
176736,note_on,0,0,1,,,,,,,,0,,,61,0
176739,control_change,51,0,4,,,,,,,,0,64,0,,
176760,control_change,21,0,4,,,,,,,,0,64,127,,
176760,note_on,24,0,1,,,,,,,,0,,,73,80
176760,note_on,0,0,4,,,,,,,,0,,,49,80
176760,note_on,0,0,4,,,,,,,,0,,,37,80
176760,note_on,0,0,1,,,,,,,,0,,,85,80
176856,note_on,96,0,4,,,,,,,,0,,,49,0
176856,note_on,96,0,1,,,,,,,,0,,,85,0
176856,note_on,0,0,4,,,,,,,,0,,,37,0
176856,note_on,0,0,1,,,,,,,,0,,,73,0
176880,note_on,24,0,1,,,,,,,,0,,,73,80
176880,note_on,0,0,1,,,,,,,,0,,,61,80
176940,note_on,84,0,4,,,,,,,,0,,,54,80
176940,note_on,0,0,4,,,,,,,,0,,,57,80
176976,note_on,96,0,1,,,,,,,,0,,,61,0
176976,note_on,0,0,1,,,,,,,,0,,,73,0
176988,note_on,48,0,4,,,,,,,,0,,,57,0
176988,note_on,0,0,4,,,,,,,,0,,,54,0
177000,note_on,0,0,4,,,,,,,,0,,,58,80
177000,note_on,24,0,1,,,,,,,,0,,,73,80
177000,note_on,0,0,1,,,,,,,,0,,,85,80
177000,note_on,12,0,4,,,,,,,,0,,,55,80
177092,control_change,92,0,4,,,,,,,,0,64,0,,
177096,note_on,0,0,4,,,,,,,,0,,,55,0
177096,note_on,96,0,1,,,,,,,,0,,,85,0
177096,note_on,0,0,1,,,,,,,,0,,,73,0
177096,note_on,4,0,4,,,,,,,,0,,,58,0
177120,note_on,0,0,4,,,,,,,,0,,,58,80
177120,note_on,24,0,1,,,,,,,,0,,,85,80
177120,note_on,24,0,4,,,,,,,,0,,,55,80
177120,note_on,0,0,1,,,,,,,,0,,,97,80
177134,control_change,14,0,4,,,,,,,,0,64,127,,
177216,note_on,96,0,1,,,,,,,,0,,,97,0
177216,note_on,0,0,1,,,,,,,,0,,,85,0
177216,note_on,82,0,4,,,,,,,,0,,,58,0
177216,note_on,0,0,4,,,,,,,,0,,,55,0
177240,note_on,0,0,1,,,,,,,,0,,,73,80
177240,note_on,24,0,1,,,,,,,,0,,,85,80
177300,note_on,0,0,4,,,,,,,,0,,,59,80
177300,note_on,84,0,4,,,,,,,,0,,,56,80
177336,note_on,0,0,1,,,,,,,,0,,,85,0
177336,note_on,96,0,1,,,,,,,,0,,,73,0
177348,note_on,48,0,4,,,,,,,,0,,,59,0
177348,note_on,0,0,4,,,,,,,,0,,,56,0
177360,note_on,0,0,1,,,,,,,,0,,,73,80
177360,note_on,12,0,4,,,,,,,,0,,,53,80
177360,note_on,0,0,4,,,,,,,,0,,,56,80
177360,note_on,24,0,1,,,,,,,,0,,,61,80
177408,note_on,0,0,4,,,,,,,,0,,,53,0
177408,note_on,48,0,4,,,,,,,,0,,,56,0
177452,control_change,44,0,4,,,,,,,,0,64,0,,
177456,note_on,0,0,1,,,,,,,,0,,,61,0
177456,note_on,96,0,1,,,,,,,,0,,,73,0
177480,note_on,0,0,1,,,,,,,,0,,,88,80
177480,note_on,28,0,4,,,,,,,,0,,,52,80
177480,note_on,24,0,1,,,,,,,,0,,,76,80
177480,control_change,0,0,4,,,,,,,,0,64,127,,
177480,note_on,0,0,4,,,,,,,,0,,,40,80
177576,note_on,0,0,1,,,,,,,,0,,,76,0
177576,note_on,96,0,1,,,,,,,,0,,,88,0
177576,note_on,0,0,4,,,,,,,,0,,,52,0
177576,note_on,96,0,4,,,,,,,,0,,,40,0
177600,note_on,0,0,1,,,,,,,,0,,,64,80
177600,note_on,24,0,1,,,,,,,,0,,,76,80
177660,note_on,84,0,4,,,,,,,,0,,,57,80
177660,note_on,0,0,4,,,,,,,,0,,,60,80
177696,note_on,0,0,1,,,,,,,,0,,,76,0
177696,note_on,96,0,1,,,,,,,,0,,,64,0
177708,note_on,48,0,4,,,,,,,,0,,,60,0
177708,note_on,0,0,4,,,,,,,,0,,,57,0
177720,note_on,12,0,4,,,,,,,,0,,,58,80
177720,note_on,24,0,1,,,,,,,,0,,,76,80
177720,note_on,0,0,4,,,,,,,,0,,,61,80
177720,note_on,0,0,1,,,,,,,,0,,,88,80
177805,control_change,85,0,4,,,,,,,,0,64,0,,
177816,note_on,96,0,1,,,,,,,,0,,,88,0
177816,note_on,0,0,1,,,,,,,,0,,,76,0
177816,note_on,0,0,4,,,,,,,,0,,,58,0
177816,note_on,11,0,4,,,,,,,,0,,,61,0
177840,note_on,24,0,4,,,,,,,,0,,,61,80
177840,note_on,0,0,1,,,,,,,,0,,,100,80
177840,note_on,0,0,4,,,,,,,,0,,,58,80
177840,note_on,24,0,1,,,,,,,,0,,,88,80
177840,control_change,0,0,4,,,,,,,,0,64,127,,
177936,note_on,96,0,1,,,,,,,,0,,,100,0
177936,note_on,0,0,4,,,,,,,,0,,,61,0
177936,note_on,96,0,4,,,,,,,,0,,,58,0
177936,note_on,0,0,1,,,,,,,,0,,,88,0
177960,note_on,0,0,1,,,,,,,,0,,,76,80
177960,note_on,24,0,1,,,,,,,,0,,,88,80
178020,note_on,0,0,4,,,,,,,,0,,,62,80
178020,note_on,84,0,4,,,,,,,,0,,,59,80
178056,note_on,0,0,1,,,,,,,,0,,,88,0
178056,note_on,96,0,1,,,,,,,,0,,,76,0
178068,note_on,48,0,4,,,,,,,,0,,,62,0
178068,note_on,0,0,4,,,,,,,,0,,,59,0
178080,note_on,12,0,4,,,,,,,,0,,,56,80
178080,note_on,24,0,1,,,,,,,,0,,,64,80
178080,note_on,0,0,1,,,,,,,,0,,,76,80
178080,note_on,0,0,4,,,,,,,,0,,,59,80
178128,note_on,48,0,4,,,,,,,,0,,,59,0
178128,note_on,0,0,4,,,,,,,,0,,,56,0
178175,control_change,47,0,4,,,,,,,,0,64,0,,
178176,note_on,96,0,1,,,,,,,,0,,,76,0
178176,note_on,0,0,1,,,,,,,,0,,,64,0
178200,note_on,0,0,1,,,,,,,,0,,,91,80
178200,note_on,0,0,4,,,,,,,,0,,,55,80
178200,control_change,0,0,4,,,,,,,,0,64,127,,
178200,note_on,25,0,4,,,,,,,,0,,,43,80
178200,note_on,24,0,1,,,,,,,,0,,,79,80
178296,note_on,0,0,1,,,,,,,,0,,,79,0
178296,note_on,96,0,4,,,,,,,,0,,,55,0
178296,note_on,96,0,1,,,,,,,,0,,,91,0
178296,note_on,0,0,4,,,,,,,,0,,,43,0
178320,note_on,0,0,1,,,,,,,,0,,,67,80
178320,note_on,24,0,1,,,,,,,,0,,,79,80
178380,note_on,0,0,4,,,,,,,,0,,,63,80
178380,note_on,84,0,4,,,,,,,,0,,,60,80
178416,note_on,0,0,1,,,,,,,,0,,,79,0
178416,note_on,96,0,1,,,,,,,,0,,,67,0
178428,note_on,0,0,4,,,,,,,,0,,,60,0
178428,note_on,48,0,4,,,,,,,,0,,,63,0
178440,note_on,0,0,4,,,,,,,,0,,,64,80
178440,note_on,24,0,1,,,,,,,,0,,,79,80
178440,note_on,0,0,1,,,,,,,,0,,,91,80
178440,note_on,12,0,4,,,,,,,,0,,,61,80
178525,control_change,85,0,4,,,,,,,,0,64,0,,
178536,note_on,11,0,4,,,,,,,,0,,,64,0
178536,note_on,96,0,1,,,,,,,,0,,,91,0
178536,note_on,0,0,1,,,,,,,,0,,,79,0
178536,note_on,0,0,4,,,,,,,,0,,,61,0
178560,note_on,0,0,4,,,,,,,,0,,,64,80
178560,note_on,24,0,4,,,,,,,,0,,,61,80
178560,note_on,0,0,1,,,,,,,,0,,,103,80
178560,note_on,24,0,1,,,,,,,,0,,,91,80
178581,control_change,21,0,4,,,,,,,,0,64,127,,
178656,note_on,0,0,4,,,,,,,,0,,,61,0
178656,note_on,0,0,1,,,,,,,,0,,,91,0
178656,note_on,96,0,1,,,,,,,,0,,,103,0
178656,note_on,75,0,4,,,,,,,,0,,,64,0
178680,note_on,0,0,1,,,,,,,,0,,,79,80
178680,note_on,24,0,1,,,,,,,,0,,,91,80
178740,note_on,84,0,4,,,,,,,,0,,,62,80
178740,note_on,0,0,4,,,,,,,,0,,,65,80
178776,note_on,96,0,1,,,,,,,,0,,,79,0
178776,note_on,0,0,1,,,,,,,,0,,,91,0
178788,note_on,0,0,4,,,,,,,,0,,,62,0
178788,note_on,48,0,4,,,,,,,,0,,,65,0
178800,note_on,0,0,1,,,,,,,,0,,,79,80
178800,note_on,12,0,4,,,,,,,,0,,,59,80
178800,note_on,0,0,4,,,,,,,,0,,,62,80
178800,note_on,24,0,1,,,,,,,,0,,,67,80
178848,note_on,0,0,4,,,,,,,,0,,,59,0
178848,note_on,48,0,4,,,,,,,,0,,,62,0
178892,control_change,44,0,4,,,,,,,,0,64,0,,
178896,note_on,0,0,1,,,,,,,,0,,,67,0
178896,note_on,96,0,1,,,,,,,,0,,,79,0
178911,set_tempo,4311,1,0,,,,,,393908,,,,,,
178920,note_on,24,0,1,,,,,,,,0,,,82,80
178920,note_on,28,0,4,,,,,,,,0,,,43,80
178920,note_on,0,0,1,,,,,,,,0,,,94,80
178920,control_change,0,0,4,,,,,,,,0,64,127,,
178920,note_on,0,0,4,,,,,,,,0,,,55,80
178942,set_tempo,31,1,0,,,,,,395831,,,,,,
178973,set_tempo,31,1,0,,,,,,397772,,,,,,
179003,set_tempo,30,1,0,,,,,,399734,,,,,,
179016,note_on,96,0,1,,,,,,,,0,,,94,0
179016,note_on,0,0,1,,,,,,,,0,,,82,0
179016,note_on,96,0,4,,,,,,,,0,,,55,0
179016,note_on,0,0,4,,,,,,,,0,,,43,0
179034,set_tempo,31,1,0,,,,,,401714,,,,,,
179040,note_on,0,0,1,,,,,,,,0,,,82,80
179040,note_on,24,0,1,,,,,,,,0,,,70,80
179064,set_tempo,30,1,0,,,,,,403714,,,,,,
179095,set_tempo,31,1,0,,,,,,405734,,,,,,
179100,note_on,0,0,4,,,,,,,,0,,,60,80
179100,note_on,0,0,4,,,,,,,,0,,,63,80
179100,note_on,84,0,4,,,,,,,,0,,,67,80
179125,set_tempo,30,1,0,,,,,,407775,,,,,,
179136,note_on,96,0,1,,,,,,,,0,,,82,0
179136,note_on,0,0,1,,,,,,,,0,,,70,0
179148,note_on,0,0,4,,,,,,,,0,,,67,0
179148,note_on,48,0,4,,,,,,,,0,,,60,0
179148,note_on,0,0,4,,,,,,,,0,,,63,0
179156,set_tempo,31,1,0,,,,,,409836,,,,,,
179160,note_on,24,0,1,,,,,,,,0,,,94,80
179160,note_on,0,0,4,,,,,,,,0,,,64,80
179160,note_on,0,0,4,,,,,,,,0,,,61,80
179160,note_on,0,0,1,,,,,,,,0,,,82,80
179160,note_on,12,0,4,,,,,,,,0,,,67,80
179186,set_tempo,30,1,0,,,,,,411918,,,,,,
179217,set_tempo,31,1,0,,,,,,414022,,,,,,
179230,control_change,70,0,4,,,,,,,,0,64,0,,
179247,set_tempo,30,1,0,,,,,,416146,,,,,,
179256,note_on,26,0,4,,,,,,,,0,,,64,0
179256,note_on,0,0,4,,,,,,,,0,,,67,0
179256,note_on,0,0,4,,,,,,,,0,,,61,0
179256,note_on,0,0,1,,,,,,,,0,,,94,0
179256,note_on,96,0,1,,,,,,,,0,,,82,0
179278,set_tempo,31,1,0,,,,,,418293,,,,,,
179280,note_on,0,0,1,,,,,,,,0,,,106,80
179280,note_on,0,0,4,,,,,,,,0,,,64,80
179280,note_on,24,0,1,,,,,,,,0,,,94,80
179280,note_on,0,0,4,,,,,,,,0,,,61,80
179280,note_on,24,0,4,,,,,,,,0,,,67,80
179290,control_change,10,0,4,,,,,,,,0,64,127,,
179309,set_tempo,31,1,0,,,,,,420463,,,,,,
179339,set_tempo,30,1,0,,,,,,422654,,,,,,
179370,set_tempo,31,1,0,,,,,,424869,,,,,,
179376,note_on,0,0,4,,,,,,,,0,,,67,0
179376,note_on,96,0,1,,,,,,,,0,,,106,0
179376,note_on,0,0,1,,,,,,,,0,,,94,0
179376,note_on,86,0,4,,,,,,,,0,,,61,0
179376,note_on,0,0,4,,,,,,,,0,,,64,0
179400,note_on,24,0,1,,,,,,,,0,,,82,80
179400,note_on,0,0,1,,,,,,,,0,,,94,80
179400,set_tempo,30,1,0,,,,,,427107,,,,,,
179431,set_tempo,31,1,0,,,,,,429369,,,,,,
179460,note_on,84,0,4,,,,,,,,0,,,62,80
179460,note_on,0,0,4,,,,,,,,0,,,67,80
179460,note_on,0,0,4,,,,,,,,0,,,65,80
179461,set_tempo,30,1,0,,,,,,431655,,,,,,
179492,set_tempo,31,1,0,,,,,,433965,,,,,,
179496,note_on,96,0,1,,,,,,,,0,,,94,0
179496,note_on,0,0,1,,,,,,,,0,,,82,0
179508,note_on,48,0,4,,,,,,,,0,,,65,0
179508,note_on,0,0,4,,,,,,,,0,,,62,0
179508,note_on,0,0,4,,,,,,,,0,,,67,0
179520,note_on,0,0,1,,,,,,,,0,,,82,80
179520,note_on,24,0,1,,,,,,,,0,,,70,80
179520,note_on,12,0,4,,,,,,,,0,,,62,80
179520,note_on,0,0,4,,,,,,,,0,,,67,80
179520,note_on,0,0,4,,,,,,,,0,,,55,80
179522,set_tempo,30,1,0,,,,,,436300,,,,,,
179553,set_tempo,31,1,0,,,,,,438661,,,,,,
179568,note_on,48,0,4,,,,,,,,0,,,55,0
179568,note_on,0,0,4,,,,,,,,0,,,62,0
179568,note_on,0,0,4,,,,,,,,0,,,67,0
179583,set_tempo,30,1,0,,,,,,441047,,,,,,
179614,set_tempo,31,1,0,,,,,,443459,,,,,,
179614,control_change,46,0,4,,,,,,,,0,64,0,,
179616,note_on,96,0,1,,,,,,,,0,,,82,0
179616,note_on,0,0,1,,,,,,,,0,,,70,0
179640,note_on,24,0,1,,,,,,,,0,,,83,80
179640,note_on,0,0,1,,,,,,,,0,,,95,80
179640,note_on,26,0,4,,,,,,,,0,,,43,80
179640,note_on,0,0,4,,,,,,,,0,,,55,80
179645,set_tempo,31,1,0,,,,,,445898,,,,,,
179648,control_change,8,0,4,,,,,,,,0,64,127,,
179675,set_tempo,30,1,0,,,,,,448363,,,,,,
179706,set_tempo,31,1,0,,,,,,450857,,,,,,
179736,set_tempo,30,1,0,,,,,,453378,,,,,,
179736,note_on,0,0,1,,,,,,,,0,,,83,0
179736,note_on,88,0,4,,,,,,,,0,,,55,0
179736,note_on,0,0,4,,,,,,,,0,,,43,0
179736,note_on,96,0,1,,,,,,,,0,,,95,0
179760,note_on,0,0,1,,,,,,,,0,,,71,80
179760,note_on,24,0,1,,,,,,,,0,,,83,80
179767,set_tempo,31,1,0,,,,,,455927,,,,,,
179797,set_tempo,30,1,0,,,,,,458505,,,,,,
179820,note_on,84,0,4,,,,,,,,0,,,61,80
179820,note_on,0,0,4,,,,,,,,0,,,64,80
179820,note_on,0,0,4,,,,,,,,0,,,67,80
179828,set_tempo,31,1,0,,,,,,461113,,,,,,
179856,note_on,0,0,1,,,,,,,,0,,,83,0
179856,note_on,96,0,1,,,,,,,,0,,,71,0
179858,set_tempo,30,1,0,,,,,,463750,,,,,,
179868,note_on,48,0,4,,,,,,,,0,,,67,0
179868,note_on,0,0,4,,,,,,,,0,,,61,0
179868,note_on,0,0,4,,,,,,,,0,,,64,0
179880,note_on,0,0,1,,,,,,,,0,,,95,80
179880,note_on,24,0,1,,,,,,,,0,,,83,80
179880,note_on,0,0,4,,,,,,,,0,,,67,80
179880,note_on,12,0,4,,,,,,,,0,,,62,80
179880,note_on,0,0,4,,,,,,,,0,,,65,80
179889,set_tempo,31,1,0,,,,,,466418,,,,,,
179919,set_tempo,30,1,0,,,,,,469116,,,,,,
179950,set_tempo,31,1,0,,,,,,471846,,,,,,
179965,control_change,85,0,4,,,,,,,,0,64,0,,
179976,note_on,0,0,4,,,,,,,,0,,,67,0
179976,note_on,0,0,4,,,,,,,,0,,,62,0
179976,note_on,0,0,1,,,,,,,,0,,,83,0
179976,note_on,11,0,4,,,,,,,,0,,,65,0
179976,note_on,96,0,1,,,,,,,,0,,,95,0
179981,set_tempo,31,1,0,,,,,,474608,,,,,,
180000,note_on,24,0,1,,,,,,,,0,,,107,80
180000,note_on,0,0,4,,,,,,,,0,,,67,80
180000,note_on,0,0,4,,,,,,,,0,,,65,80
180000,note_on,24,0,4,,,,,,,,0,,,62,80
180000,note_on,0,0,1,,,,,,,,0,,,95,80
180004,control_change,4,0,4,,,,,,,,0,64,127,,
180011,set_tempo,30,1,0,,,,,,477403,,,,,,
180042,set_tempo,31,1,0,,,,,,480231,,,,,,
180072,set_tempo,30,1,0,,,,,,483092,,,,,,
180096,note_on,92,0,4,,,,,,,,0,,,67,0
180096,note_on,0,0,1,,,,,,,,0,,,107,0
180096,note_on,0,0,4,,,,,,,,0,,,65,0
180096,note_on,0,0,4,,,,,,,,0,,,62,0
180096,note_on,96,0,1,,,,,,,,0,,,95,0
180103,set_tempo,31,1,0,,,,,,485987,,,,,,
180120,note_on,24,0,1,,,,,,,,0,,,95,80
180120,note_on,0,0,1,,,,,,,,0,,,83,80
180133,set_tempo,30,1,0,,,,,,488918,,,,,,
180164,set_tempo,31,1,0,,,,,,491884,,,,,,
180180,note_on,0,0,4,,,,,,,,0,,,65,80
180180,note_on,0,0,4,,,,,,,,0,,,68,80
180180,note_on,0,0,4,,,,,,,,0,,,56,80
180180,note_on,84,0,4,,,,,,,,0,,,62,80
180194,set_tempo,30,1,0,,,,,,494886,,,,,,
180216,note_on,0,0,1,,,,,,,,0,,,95,0
180216,note_on,96,0,1,,,,,,,,0,,,83,0
180225,set_tempo,31,1,0,,,,,,497925,,,,,,
180228,note_on,0,0,4,,,,,,,,0,,,56,0
180228,note_on,0,0,4,,,,,,,,0,,,62,0
180228,note_on,0,0,4,,,,,,,,0,,,65,0
180228,note_on,48,0,4,,,,,,,,0,,,68,0
180240,note_on,12,0,4,,,,,,,,0,,,62,80
180240,note_on,0,0,4,,,,,,,,0,,,67,80
180240,note_on,0,0,4,,,,,,,,0,,,55,80
180240,note_on,0,0,4,,,,,,,,0,,,65,80
180240,note_on,24,0,1,,,,,,,,0,,,71,80
180240,note_on,0,0,1,,,,,,,,0,,,83,80
180255,set_tempo,30,1,0,,,,,,501002,,,,,,
180286,set_tempo,31,1,0,,,,,,504117,,,,,,
180288,note_on,48,0,4,,,,,,,,0,,,65,0
180288,note_on,0,0,4,,,,,,,,0,,,55,0
180288,note_on,0,0,4,,,,,,,,0,,,67,0
180288,note_on,0,0,4,,,,,,,,0,,,62,0
180317,set_tempo,31,1,0,,,,,,507271,,,,,,
180327,control_change,39,0,4,,,,,,,,0,64,0,,
180336,note_on,0,0,1,,,,,,,,0,,,71,0
180336,note_on,96,0,1,,,,,,,,0,,,83,0
180347,set_tempo,30,1,0,,,,,,510465,,,,,,
180352,set_tempo,5,1,0,,,,,,368822,,,,,,
180356,set_tempo,4,1,0,,,,,,365497,,,,,,
180360,control_change,33,0,4,,,,,,,,0,64,127,,
180360,note_on,0,0,1,,,,,,,,0,,,88,80
180360,note_on,24,0,1,,,,,,,,0,,,76,80
180360,note_on,0,0,4,,,,,,,,0,,,48,80
180360,note_on,0,0,4,,,,,,,,0,,,36,80
180420,note_on,6804,0,2,,,,,,,,0,,,79,80
180468,note_on,48,0,2,,,,,,,,0,,,79,0
180480,note_on,6864,0,3,,,,,,,,0,,,62,72
180480,note_on,0,0,3,,,,,,,,0,,,55,72
180480,note_on,12,0,2,,,,,,,,0,,,84,80
180480,note_on,0,0,3,,,,,,,,0,,,52,72
180504,note_on,0,0,1,,,,,,,,0,,,76,0
180504,note_on,144,0,1,,,,,,,,0,,,88,0
180528,note_on,48,0,2,,,,,,,,0,,,84,0
180540,note_on,0,0,1,,,,,,,,0,,,74,80
180540,note_on,36,0,1,,,,,,,,0,,,86,80
180576,note_on,96,0,3,,,,,,,,0,,,55,0
180576,note_on,0,0,3,,,,,,,,0,,,52,0
180576,note_on,0,0,3,,,,,,,,0,,,62,0
180600,note_on,72,0,2,,,,,,,,0,,,76,80
180600,note_on,24,0,3,,,,,,,,0,,,48,72
180648,note_on,48,0,2,,,,,,,,0,,,76,0
180660,note_on,12,0,2,,,,,,,,0,,,79,80
180684,note_on,0,0,1,,,,,,,,0,,,86,0
180684,note_on,144,0,1,,,,,,,,0,,,74,0
180696,note_on,96,0,3,,,,,,,,0,,,48,0
180708,note_on,48,0,2,,,,,,,,0,,,79,0
180720,note_on,0,0,1,,,,,,,,0,,,84,80
180720,note_on,24,0,3,,,,,,,,0,,,60,72
180720,note_on,36,0,1,,,,,,,,0,,,72,80
180720,note_on,0,0,3,,,,,,,,0,,,52,72
180720,note_on,0,0,3,,,,,,,,0,,,55,72
180780,note_on,72,0,2,,,,,,,,0,,,76,80
180816,note_on,0,0,3,,,,,,,,0,,,55,0
180816,note_on,0,0,3,,,,,,,,0,,,60,0
180816,note_on,96,0,3,,,,,,,,0,,,52,0
180828,note_on,48,0,2,,,,,,,,0,,,76,0
180840,note_on,12,0,2,,,,,,,,0,,,79,80
180840,note_on,24,0,3,,,,,,,,0,,,48,72
180864,note_on,0,0,1,,,,,,,,0,,,72,0
180864,note_on,144,0,1,,,,,,,,0,,,84,0
180888,note_on,48,0,2,,,,,,,,0,,,79,0
180900,note_on,36,0,1,,,,,,,,0,,,71,80
180900,note_on,0,0,1,,,,,,,,0,,,83,80
180936,note_on,576,0,4,,,,,,,,0,,,48,0
180936,note_on,0,0,4,,,,,,,,0,,,36,0
180936,note_on,96,0,3,,,,,,,,0,,,48,0
180960,note_on,0,0,3,,,,,,,,0,,,52,72
180960,note_on,0,0,3,,,,,,,,0,,,59,72
180960,note_on,24,0,3,,,,,,,,0,,,55,72
180960,note_on,72,0,2,,,,,,,,0,,,76,80
181008,note_on,48,0,2,,,,,,,,0,,,76,0
181020,note_on,12,0,2,,,,,,,,0,,,79,80
181044,note_on,144,0,1,,,,,,,,0,,,83,0
181044,note_on,0,0,1,,,,,,,,0,,,71,0
181056,note_on,96,0,3,,,,,,,,0,,,52,0
181056,note_on,0,0,3,,,,,,,,0,,,59,0
181056,note_on,0,0,3,,,,,,,,0,,,55,0
181057,control_change,121,0,4,,,,,,,,0,64,0,,
181068,note_on,48,0,2,,,,,,,,0,,,79,0
181080,note_on,0,0,1,,,,,,,,0,,,81,80
181080,note_on,0,0,4,,,,,,,,0,,,36,80
181080,note_on,36,0,1,,,,,,,,0,,,69,80
181080,control_change,23,0,4,,,,,,,,0,64,127,,
181140,note_on,72,0,2,,,,,,,,0,,,72,80
181188,note_on,48,0,2,,,,,,,,0,,,72,0
181200,note_on,0,0,3,,,,,,,,0,,,57,72
181200,note_on,0,0,3,,,,,,,,0,,,54,72
181200,note_on,144,0,3,,,,,,,,0,,,52,72
181200,note_on,12,0,2,,,,,,,,0,,,76,80
181224,note_on,144,0,1,,,,,,,,0,,,81,0
181224,note_on,0,0,1,,,,,,,,0,,,69,0
181248,note_on,48,0,2,,,,,,,,0,,,76,0
181260,note_on,36,0,1,,,,,,,,0,,,66,80
181260,note_on,0,0,1,,,,,,,,0,,,78,80
181296,note_on,0,0,3,,,,,,,,0,,,52,0
181296,note_on,96,0,3,,,,,,,,0,,,57,0
181296,note_on,0,0,3,,,,,,,,0,,,54,0
181320,note_on,72,0,2,,,,,,,,0,,,72,80
181320,note_on,24,0,3,,,,,,,,0,,,48,72
181368,note_on,48,0,2,,,,,,,,0,,,72,0
181380,note_on,12,0,2,,,,,,,,0,,,76,80
181404,note_on,0,0,1,,,,,,,,0,,,66,0
181404,note_on,144,0,1,,,,,,,,0,,,78,0
181416,note_on,96,0,3,,,,,,,,0,,,48,0
181428,note_on,48,0,2,,,,,,,,0,,,76,0
181440,note_on,0,0,3,,,,,,,,0,,,55,72
181440,note_on,36,0,1,,,,,,,,0,,,67,80
181440,note_on,24,0,3,,,,,,,,0,,,52,72
181440,note_on,0,0,1,,,,,,,,0,,,79,80
181500,note_on,72,0,2,,,,,,,,0,,,72,80
181536,note_on,0,0,3,,,,,,,,0,,,52,0
181536,note_on,96,0,3,,,,,,,,0,,,55,0
181548,note_on,48,0,2,,,,,,,,0,,,72,0
181560,note_on,24,0,3,,,,,,,,0,,,48,72
181560,note_on,12,0,2,,,,,,,,0,,,76,80
181584,note_on,0,0,1,,,,,,,,0,,,67,0
181584,note_on,144,0,1,,,,,,,,0,,,79,0
181608,note_on,48,0,2,,,,,,,,0,,,76,0
181620,note_on,36,0,1,,,,,,,,0,,,76,80
181620,note_on,0,0,1,,,,,,,,0,,,88,80
181656,note_on,576,0,4,,,,,,,,0,,,36,0
181656,note_on,96,0,3,,,,,,,,0,,,48,0
181680,note_on,72,0,2,,,,,,,,0,,,79,80
181680,note_on,0,0,3,,,,,,,,0,,,60,72
181680,note_on,24,0,3,,,,,,,,0,,,55,72
181680,note_on,0,0,3,,,,,,,,0,,,64,72
181728,note_on,48,0,2,,,,,,,,0,,,79,0
181740,note_on,12,0,2,,,,,,,,0,,,84,80
181764,note_on,0,0,1,,,,,,,,0,,,76,0
181764,note_on,144,0,1,,,,,,,,0,,,88,0
181768,control_change,112,0,4,,,,,,,,0,64,0,,
181776,note_on,0,0,3,,,,,,,,0,,,60,0
181776,note_on,96,0,3,,,,,,,,0,,,64,0
181776,note_on,0,0,3,,,,,,,,0,,,55,0
181788,note_on,48,0,2,,,,,,,,0,,,84,0
181800,note_on,0,0,4,,,,,,,,0,,,36,80
181800,control_change,32,0,4,,,,,,,,0,64,127,,
181800,note_on,0,0,4,,,,,,,,0,,,48,80
181800,note_on,36,0,1,,,,,,,,0,,,76,80
181800,note_on,0,0,1,,,,,,,,0,,,88,80
181860,note_on,72,0,2,,,,,,,,0,,,78,80
181908,note_on,48,0,2,,,,,,,,0,,,78,0
181920,note_on,144,0,3,,,,,,,,0,,,64,72
181920,note_on,0,0,3,,,,,,,,0,,,54,72
181920,note_on,0,0,3,,,,,,,,0,,,57,72
181920,note_on,12,0,2,,,,,,,,0,,,81,80
181944,note_on,0,0,1,,,,,,,,0,,,76,0
181944,note_on,144,0,1,,,,,,,,0,,,88,0
181968,note_on,48,0,2,,,,,,,,0,,,81,0
181980,note_on,0,0,1,,,,,,,,0,,,85,80
181980,note_on,36,0,1,,,,,,,,0,,,73,80
182016,note_on,0,0,3,,,,,,,,0,,,57,0
182016,note_on,0,0,3,,,,,,,,0,,,64,0
182016,note_on,96,0,3,,,,,,,,0,,,54,0
182040,note_on,72,0,2,,,,,,,,0,,,78,80
182040,note_on,24,0,3,,,,,,,,0,,,48,72
182088,note_on,48,0,2,,,,,,,,0,,,78,0
182100,note_on,12,0,2,,,,,,,,0,,,81,80
182124,note_on,0,0,1,,,,,,,,0,,,73,0
182124,note_on,144,0,1,,,,,,,,0,,,85,0
182136,note_on,96,0,3,,,,,,,,0,,,48,0
182148,note_on,48,0,2,,,,,,,,0,,,81,0
182160,note_on,36,0,1,,,,,,,,0,,,74,80
182160,note_on,0,0,1,,,,,,,,0,,,86,80
182160,note_on,0,0,3,,,,,,,,0,,,54,72
182160,note_on,0,0,3,,,,,,,,0,,,57,72
182160,note_on,24,0,3,,,,,,,,0,,,62,72
182220,note_on,72,0,2,,,,,,,,0,,,78,80
182256,note_on,0,0,3,,,,,,,,0,,,57,0
182256,note_on,0,0,3,,,,,,,,0,,,62,0
182256,note_on,96,0,3,,,,,,,,0,,,54,0
182268,note_on,48,0,2,,,,,,,,0,,,78,0
182280,note_on,12,0,2,,,,,,,,0,,,81,80
182280,note_on,24,0,3,,,,,,,,0,,,48,72
182304,note_on,144,0,1,,,,,,,,0,,,86,0
182304,note_on,0,0,1,,,,,,,,0,,,74,0
182328,note_on,48,0,2,,,,,,,,0,,,81,0
182340,note_on,0,0,1,,,,,,,,0,,,88,80
182340,note_on,36,0,1,,,,,,,,0,,,76,80
182376,note_on,96,0,3,,,,,,,,0,,,48,0
182400,note_on,24,0,3,,,,,,,,0,,,54,72
182400,note_on,72,0,2,,,,,,,,0,,,78,80
182400,note_on,0,0,3,,,,,,,,0,,,64,72
182400,note_on,0,0,3,,,,,,,,0,,,57,72
182448,note_on,48,0,2,,,,,,,,0,,,78,0
182460,note_on,12,0,2,,,,,,,,0,,,81,80
182467,control_change,667,0,4,,,,,,,,0,64,0,,
182484,note_on,0,0,1,,,,,,,,0,,,76,0
182484,note_on,144,0,1,,,,,,,,0,,,88,0
182496,note_on,0,0,3,,,,,,,,0,,,57,0
182496,note_on,96,0,3,,,,,,,,0,,,64,0
182496,note_on,0,0,3,,,,,,,,0,,,54,0
182508,note_on,48,0,2,,,,,,,,0,,,81,0
182520,note_on,24,0,3,,,,,,,,0,,,48,72
182520,note_on,36,0,1,,,,,,,,0,,,77,80
182520,control_change,53,0,4,,,,,,,,0,64,127,,
182520,note_on,0,0,1,,,,,,,,0,,,89,80
182580,note_on,72,0,2,,,,,,,,0,,,83,80
182616,note_on,96,0,3,,,,,,,,0,,,48,0
182628,note_on,48,0,2,,,,,,,,0,,,83,0
182640,note_on,24,0,3,,,,,,,,0,,,65,72
182640,note_on,0,0,3,,,,,,,,0,,,59,72
182640,note_on,0,0,3,,,,,,,,0,,,55,72
182640,note_on,12,0,2,,,,,,,,0,,,86,80
182664,note_on,144,0,1,,,,,,,,0,,,89,0
182664,note_on,0,0,1,,,,,,,,0,,,77,0
182688,note_on,48,0,2,,,,,,,,0,,,86,0
182700,note_on,0,0,1,,,,,,,,0,,,78,80
182700,note_on,36,0,1,,,,,,,,0,,,90,80
182712,note_on,192,0,4,,,,,,,,0,,,36,0
182712,note_on,0,0,4,,,,,,,,0,,,48,0
182736,note_on,96,0,3,,,,,,,,0,,,59,0
182736,note_on,0,0,3,,,,,,,,0,,,55,0
182736,note_on,0,0,3,,,,,,,,0,,,65,0
182760,note_on,72,0,2,,,,,,,,0,,,83,80
182760,note_on,24,0,3,,,,,,,,0,,,48,72
182808,note_on,48,0,2,,,,,,,,0,,,83,0
182820,note_on,12,0,2,,,,,,,,0,,,86,80
182844,note_on,144,0,1,,,,,,,,0,,,78,0
182844,note_on,0,0,1,,,,,,,,0,,,90,0
182856,note_on,96,0,3,,,,,,,,0,,,48,0
182868,note_on,48,0,2,,,,,,,,0,,,86,0
182880,note_on,0,0,3,,,,,,,,0,,,65,72
182880,note_on,24,0,3,,,,,,,,0,,,59,72
182880,note_on,36,0,1,,,,,,,,0,,,81,80
182880,note_on,0,0,1,,,,,,,,0,,,93,80
182880,note_on,0,0,3,,,,,,,,0,,,69,72
182940,note_on,72,0,2,,,,,,,,0,,,83,80
182976,note_on,0,0,3,,,,,,,,0,,,59,0
182976,note_on,96,0,3,,,,,,,,0,,,69,0
182976,note_on,0,0,3,,,,,,,,0,,,65,0
182988,note_on,48,0,2,,,,,,,,0,,,83,0
183000,note_on,12,0,2,,,,,,,,0,,,86,80
183000,note_on,24,0,3,,,,,,,,0,,,48,72
183024,note_on,0,0,1,,,,,,,,0,,,81,0
183024,note_on,144,0,1,,,,,,,,0,,,93,0
183048,note_on,48,0,2,,,,,,,,0,,,86,0
183060,note_on,0,0,1,,,,,,,,0,,,79,80
183060,note_on,36,0,1,,,,,,,,0,,,91,80
183096,note_on,96,0,3,,,,,,,,0,,,48,0
183120,note_on,72,0,2,,,,,,,,0,,,83,80
183120,note_on,0,0,3,,,,,,,,0,,,67,72
183120,note_on,0,0,3,,,,,,,,0,,,65,72
183120,note_on,24,0,3,,,,,,,,0,,,59,72
183168,note_on,48,0,2,,,,,,,,0,,,83,0
183180,note_on,12,0,2,,,,,,,,0,,,86,80
183204,note_on,144,0,1,,,,,,,,0,,,79,0
183204,note_on,0,0,1,,,,,,,,0,,,91,0
183208,control_change,496,0,4,,,,,,,,0,64,0,,
183216,note_on,96,0,3,,,,,,,,0,,,65,0
183216,note_on,0,0,3,,,,,,,,0,,,59,0
183216,note_on,0,0,3,,,,,,,,0,,,67,0
183228,note_on,48,0,2,,,,,,,,0,,,86,0
183240,control_change,0,0,4,,,,,,,,0,64,127,,
183240,note_on,0,0,4,,,,,,,,0,,,36,80
183240,note_on,36,0,1,,,,,,,,0,,,88,80
183240,note_on,32,0,4,,,,,,,,0,,,48,80
183240,note_on,0,0,1,,,,,,,,0,,,76,80
183300,note_on,72,0,2,,,,,,,,0,,,79,80
183348,note_on,48,0,2,,,,,,,,0,,,79,0
183360,note_on,0,0,3,,,,,,,,0,,,52,72
183360,note_on,144,0,3,,,,,,,,0,,,62,72
183360,note_on,12,0,2,,,,,,,,0,,,84,80
183360,note_on,0,0,3,,,,,,,,0,,,55,72
183384,note_on,0,0,1,,,,,,,,0,,,88,0
183384,note_on,144,0,1,,,,,,,,0,,,76,0
183408,note_on,48,0,2,,,,,,,,0,,,84,0
183420,note_on,0,0,1,,,,,,,,0,,,86,80
183420,note_on,36,0,1,,,,,,,,0,,,74,80
183456,note_on,0,0,3,,,,,,,,0,,,52,0
183456,note_on,0,0,3,,,,,,,,0,,,62,0
183456,note_on,96,0,3,,,,,,,,0,,,55,0
183480,note_on,72,0,2,,,,,,,,0,,,76,80
183480,note_on,24,0,3,,,,,,,,0,,,48,72
183528,note_on,48,0,2,,,,,,,,0,,,76,0
183540,note_on,12,0,2,,,,,,,,0,,,79,80
183564,note_on,0,0,1,,,,,,,,0,,,74,0
183564,note_on,144,0,1,,,,,,,,0,,,86,0
183576,note_on,96,0,3,,,,,,,,0,,,48,0
183588,note_on,48,0,2,,,,,,,,0,,,79,0
183600,note_on,0,0,1,,,,,,,,0,,,84,80
183600,note_on,24,0,3,,,,,,,,0,,,52,72
183600,note_on,0,0,3,,,,,,,,0,,,55,72
183600,note_on,0,0,3,,,,,,,,0,,,60,72
183600,note_on,36,0,1,,,,,,,,0,,,72,80
183660,note_on,72,0,2,,,,,,,,0,,,76,80
183696,note_on,96,0,3,,,,,,,,0,,,60,0
183696,note_on,0,0,3,,,,,,,,0,,,52,0
183696,note_on,0,0,3,,,,,,,,0,,,55,0
183708,note_on,48,0,2,,,,,,,,0,,,76,0
183720,note_on,12,0,2,,,,,,,,0,,,79,80
183720,note_on,24,0,3,,,,,,,,0,,,48,72
183744,note_on,0,0,1,,,,,,,,0,,,72,0
183744,note_on,144,0,1,,,,,,,,0,,,84,0
183768,note_on,48,0,2,,,,,,,,0,,,79,0
183780,note_on,36,0,1,,,,,,,,0,,,83,80
183780,note_on,0,0,1,,,,,,,,0,,,71,80
183816,note_on,96,0,3,,,,,,,,0,,,48,0
183816,note_on,0,0,4,,,,,,,,0,,,48,0
183816,note_on,576,0,4,,,,,,,,0,,,36,0
183840,note_on,72,0,2,,,,,,,,0,,,76,80
183840,note_on,0,0,3,,,,,,,,0,,,52,72
183840,note_on,0,0,3,,,,,,,,0,,,59,72
183840,note_on,24,0,3,,,,,,,,0,,,55,72
183888,note_on,48,0,2,,,,,,,,0,,,76,0
183900,note_on,12,0,2,,,,,,,,0,,,79,80
183914,control_change,98,0,4,,,,,,,,0,64,0,,
183924,note_on,0,0,1,,,,,,,,0,,,83,0
183924,note_on,144,0,1,,,,,,,,0,,,71,0
183936,note_on,0,0,3,,,,,,,,0,,,55,0
183936,note_on,0,0,3,,,,,,,,0,,,59,0
183936,note_on,96,0,3,,,,,,,,0,,,52,0
183948,note_on,48,0,2,,,,,,,,0,,,79,0
183960,control_change,46,0,4,,,,,,,,0,64,127,,
183960,note_on,0,0,1,,,,,,,,0,,,69,80
183960,note_on,0,0,4,,,,,,,,0,,,48,80
183960,note_on,36,0,1,,,,,,,,0,,,81,80
184020,note_on,72,0,2,,,,,,,,0,,,72,80
184068,note_on,48,0,2,,,,,,,,0,,,72,0
184080,note_on,0,0,3,,,,,,,,0,,,57,72
184080,note_on,0,0,3,,,,,,,,0,,,54,72
184080,note_on,144,0,3,,,,,,,,0,,,52,72
184080,note_on,12,0,2,,,,,,,,0,,,76,80
184104,note_on,0,0,1,,,,,,,,0,,,81,0
184104,note_on,144,0,1,,,,,,,,0,,,69,0
184128,note_on,48,0,2,,,,,,,,0,,,76,0
184140,note_on,36,0,1,,,,,,,,0,,,66,80
184140,note_on,0,0,1,,,,,,,,0,,,78,80
184176,note_on,96,0,3,,,,,,,,0,,,57,0
184176,note_on,0,0,3,,,,,,,,0,,,52,0
184176,note_on,0,0,3,,,,,,,,0,,,54,0
184200,note_on,72,0,2,,,,,,,,0,,,72,80
184200,note_on,24,0,3,,,,,,,,0,,,48,72
184248,note_on,48,0,2,,,,,,,,0,,,72,0
184260,note_on,12,0,2,,,,,,,,0,,,76,80
184284,note_on,0,0,1,,,,,,,,0,,,66,0
184284,note_on,144,0,1,,,,,,,,0,,,78,0
184296,note_on,96,0,3,,,,,,,,0,,,48,0
184308,note_on,48,0,2,,,,,,,,0,,,76,0
184320,note_on,0,0,1,,,,,,,,0,,,79,80
184320,note_on,36,0,1,,,,,,,,0,,,67,80
184320,note_on,24,0,3,,,,,,,,0,,,55,72
184320,note_on,0,0,3,,,,,,,,0,,,52,72
184380,note_on,72,0,2,,,,,,,,0,,,72,80
184416,note_on,0,0,3,,,,,,,,0,,,55,0
184416,note_on,96,0,3,,,,,,,,0,,,52,0
184428,note_on,48,0,2,,,,,,,,0,,,72,0
184440,note_on,24,0,3,,,,,,,,0,,,48,72
184440,note_on,12,0,2,,,,,,,,0,,,76,80
184464,note_on,0,0,1,,,,,,,,0,,,67,0
184464,note_on,144,0,1,,,,,,,,0,,,79,0
184488,note_on,48,0,2,,,,,,,,0,,,76,0
184500,note_on,0,0,1,,,,,,,,0,,,88,80
184500,note_on,36,0,1,,,,,,,,0,,,76,80
184536,note_on,96,0,3,,,,,,,,0,,,48,0
184536,note_on,576,0,4,,,,,,,,0,,,48,0
184560,note_on,0,0,3,,,,,,,,0,,,64,72
184560,note_on,0,0,3,,,,,,,,0,,,60,72
184560,note_on,72,0,2,,,,,,,,0,,,79,80
184560,note_on,24,0,3,,,,,,,,0,,,55,72
184608,note_on,48,0,2,,,,,,,,0,,,79,0
184620,note_on,12,0,2,,,,,,,,0,,,84,80
184641,control_change,105,0,4,,,,,,,,0,64,0,,
184644,note_on,0,0,1,,,,,,,,0,,,76,0
184644,note_on,144,0,1,,,,,,,,0,,,88,0
184656,note_on,0,0,3,,,,,,,,0,,,55,0
184656,note_on,0,0,3,,,,,,,,0,,,60,0
184656,note_on,96,0,3,,,,,,,,0,,,64,0
184668,note_on,48,0,2,,,,,,,,0,,,84,0
184680,note_on,0,0,4,,,,,,,,0,,,35,80
184680,control_change,39,0,4,,,,,,,,0,64,127,,
184680,note_on,0,0,1,,,,,,,,0,,,88,80
184680,note_on,36,0,1,,,,,,,,0,,,76,80
184683,set_tempo,4327,1,0,,,,,,365497,,,,,,
184709,set_tempo,26,1,0,,,,,,367152,,,,,,
184736,set_tempo,27,1,0,,,,,,368822,,,,,,
184740,note_on,72,0,2,,,,,,,,0,,,78,80
184762,set_tempo,26,1,0,,,,,,370508,,,,,,
184788,set_tempo,26,1,0,,,,,,372208,,,,,,
184788,note_on,48,0,2,,,,,,,,0,,,78,0
184800,note_on,0,0,3,,,,,,,,0,,,57,80
184800,note_on,0,0,3,,,,,,,,0,,,54,80
184800,note_on,12,0,2,,,,,,,,0,,,81,80
184800,note_on,144,0,3,,,,,,,,0,,,63,80
184810,set_tempo,22,1,0,,,,,,373925,,,,,,
184824,note_on,0,0,1,,,,,,,,0,,,76,0
184824,note_on,144,0,1,,,,,,,,0,,,88,0
184836,set_tempo,26,1,0,,,,,,375657,,,,,,
184848,note_on,48,0,2,,,,,,,,0,,,81,0
184860,note_on,0,0,1,,,,,,,,0,,,75,80
184860,note_on,36,0,1,,,,,,,,0,,,87,80
184862,set_tempo,26,1,0,,,,,,377406,,,,,,
184888,set_tempo,26,1,0,,,,,,379171,,,,,,
184896,note_on,0,0,3,,,,,,,,0,,,63,0
184896,note_on,96,0,3,,,,,,,,0,,,57,0
184896,note_on,0,0,3,,,,,,,,0,,,54,0
184910,set_tempo,22,1,0,,,,,,380952,,,,,,
184920,note_on,72,0,2,,,,,,,,0,,,78,80
184920,note_on,24,0,3,,,,,,,,0,,,47,80
184936,set_tempo,26,1,0,,,,,,382751,,,,,,
184962,set_tempo,26,1,0,,,,,,384566,,,,,,
184968,note_on,48,0,2,,,,,,,,0,,,78,0
184980,note_on,12,0,2,,,,,,,,0,,,81,80
184989,set_tempo,27,1,0,,,,,,386399,,,,,,
185004,note_on,0,0,1,,,,,,,,0,,,87,0
185004,note_on,144,0,1,,,,,,,,0,,,75,0
185015,set_tempo,26,1,0,,,,,,388249,,,,,,
185016,note_on,96,0,3,,,,,,,,0,,,47,0
185028,note_on,48,0,2,,,,,,,,0,,,81,0
185037,set_tempo,22,1,0,,,,,,390117,,,,,,
185040,note_on,24,0,3,,,,,,,,0,,,67,80
185040,note_on,0,0,1,,,,,,,,0,,,79,80
185040,note_on,36,0,1,,,,,,,,0,,,91,80
185040,note_on,0,0,3,,,,,,,,0,,,57,80
185040,note_on,0,0,3,,,,,,,,0,,,63,80
185063,set_tempo,26,1,0,,,,,,392003,,,,,,
185089,set_tempo,26,1,0,,,,,,393908,,,,,,
185100,note_on,72,0,2,,,,,,,,0,,,81,80
185115,set_tempo,26,1,0,,,,,,395831,,,,,,
185136,note_on,0,0,3,,,,,,,,0,,,67,0
185136,note_on,0,0,3,,,,,,,,0,,,57,0
185136,note_on,96,0,3,,,,,,,,0,,,63,0
185137,set_tempo,22,1,0,,,,,,397772,,,,,,
185148,note_on,48,0,2,,,,,,,,0,,,81,0
185160,note_on,24,0,3,,,,,,,,0,,,47,80
185160,note_on,12,0,2,,,,,,,,0,,,87,80
185163,set_tempo,26,1,0,,,,,,399734,,,,,,
185184,note_on,0,0,1,,,,,,,,0,,,91,0
185184,note_on,144,0,1,,,,,,,,0,,,79,0
185189,set_tempo,26,1,0,,,,,,401714,,,,,,
185208,note_on,48,0,2,,,,,,,,0,,,87,0
185216,set_tempo,27,1,0,,,,,,403714,,,,,,
185220,note_on,36,0,1,,,,,,,,0,,,90,80
185220,note_on,0,0,1,,,,,,,,0,,,78,80
185237,set_tempo,21,1,0,,,,,,405734,,,,,,
185256,note_on,576,0,4,,,,,,,,0,,,35,0
185256,note_on,96,0,3,,,,,,,,0,,,47,0
185264,set_tempo,27,1,0,,,,,,407775,,,,,,
185280,note_on,0,0,3,,,,,,,,0,,,57,80
185280,note_on,0,0,3,,,,,,,,0,,,63,80
185280,note_on,24,0,3,,,,,,,,0,,,66,80
185280,note_on,72,0,2,,,,,,,,0,,,81,80
185290,set_tempo,26,1,0,,,,,,409836,,,,,,
185316,set_tempo,26,1,0,,,,,,411918,,,,,,
185328,note_on,48,0,2,,,,,,,,0,,,81,0
185340,note_on,12,0,2,,,,,,,,0,,,87,80
185342,set_tempo,26,1,0,,,,,,414022,,,,,,
185361,control_change,105,0,4,,,,,,,,0,64,0,,
185364,set_tempo,22,1,0,,,,,,416146,,,,,,
185364,note_on,144,0,1,,,,,,,,0,,,78,0
185364,note_on,0,0,1,,,,,,,,0,,,90,0
185376,note_on,0,0,3,,,,,,,,0,,,57,0
185376,note_on,0,0,3,,,,,,,,0,,,66,0
185376,note_on,96,0,3,,,,,,,,0,,,63,0
185388,note_on,48,0,2,,,,,,,,0,,,87,0
185390,set_tempo,26,1,0,,,,,,418293,,,,,,
185400,note_on,39,0,4,,,,,,,,0,,,52,80
185400,control_change,0,0,4,,,,,,,,0,64,127,,
185400,note_on,36,0,1,,,,,,,,0,,,81,80
185400,note_on,0,0,4,,,,,,,,0,,,40,80
185400,note_on,0,0,1,,,,,,,,0,,,93,80
185416,set_tempo,26,1,0,,,,,,420463,,,,,,
185442,set_tempo,26,1,0,,,,,,422654,,,,,,
185460,note_on,72,0,2,,,,,,,,0,,,83,80
185464,set_tempo,22,1,0,,,,,,424869,,,,,,
185490,set_tempo,26,1,0,,,,,,427107,,,,,,
185508,note_on,48,0,2,,,,,,,,0,,,83,0
185517,set_tempo,27,1,0,,,,,,429369,,,,,,
185520,note_on,144,0,3,,,,,,,,0,,,69,80
185520,note_on,0,0,3,,,,,,,,0,,,59,80
185520,note_on,0,0,3,,,,,,,,0,,,64,80
185520,note_on,12,0,2,,,,,,,,0,,,88,80
185543,set_tempo,26,1,0,,,,,,431655,,,,,,
185544,note_on,144,0,1,,,,,,,,0,,,93,0
185544,note_on,0,0,1,,,,,,,,0,,,81,0
185568,note_on,48,0,2,,,,,,,,0,,,88,0
185569,set_tempo,26,1,0,,,,,,433965,,,,,,
185580,note_on,36,0,1,,,,,,,,0,,,79,80
185580,note_on,0,0,1,,,,,,,,0,,,91,80
185591,set_tempo,22,1,0,,,,,,436300,,,,,,
185616,note_on,96,0,3,,,,,,,,0,,,59,0
185616,note_on,0,0,3,,,,,,,,0,,,64,0
185616,note_on,0,0,3,,,,,,,,0,,,69,0
185617,set_tempo,26,1,0,,,,,,438661,,,,,,
185640,note_on,0,0,3,,,,,,,,0,,,67,80
185640,note_on,72,0,2,,,,,,,,0,,,83,80
185640,note_on,24,0,3,,,,,,,,0,,,59,80
185640,note_on,0,0,3,,,,,,,,0,,,64,80
185643,set_tempo,26,1,0,,,,,,441047,,,,,,
185669,set_tempo,26,1,0,,,,,,443459,,,,,,
185688,note_on,48,0,2,,,,,,,,0,,,83,0
185688,note_on,0,0,4,,,,,,,,0,,,52,0
185688,note_on,288,0,4,,,,,,,,0,,,40,0
185691,set_tempo,22,1,0,,,,,,445898,,,,,,
185700,note_on,12,0,2,,,,,,,,0,,,88,80
185717,set_tempo,26,1,0,,,,,,448363,,,,,,
185718,control_change,30,0,4,,,,,,,,0,64,0,,
185724,note_on,144,0,1,,,,,,,,0,,,91,0
185724,note_on,0,0,1,,,,,,,,0,,,79,0
185736,note_on,0,0,3,,,,,,,,0,,,59,0
185736,note_on,0,0,3,,,,,,,,0,,,67,0
185736,note_on,96,0,3,,,,,,,,0,,,64,0
185744,set_tempo,27,1,0,,,,,,450857,,,,,,
185748,note_on,48,0,2,,,,,,,,0,,,88,0
185760,note_on,42,0,4,,,,,,,,0,,,55,80
185760,note_on,36,0,1,,,,,,,,0,,,83,80
185760,note_on,0,0,4,,,,,,,,0,,,43,80
185760,note_on,0,0,1,,,,,,,,0,,,95,80
185770,set_tempo,26,1,0,,,,,,453378,,,,,,
185778,control_change,18,0,4,,,,,,,,0,64,127,,
185792,set_tempo,22,1,0,,,,,,455927,,,,,,
185818,set_tempo,26,1,0,,,,,,458505,,,,,,
185820,note_on,72,0,2,,,,,,,,0,,,86,80
185844,set_tempo,26,1,0,,,,,,461113,,,,,,
185868,note_on,48,0,2,,,,,,,,0,,,86,0
185870,set_tempo,26,1,0,,,,,,463750,,,,,,
185880,note_on,12,0,2,,,,,,,,0,,,89,80
185880,note_on,0,0,3,,,,,,,,0,,,69,80
185880,note_on,0,0,3,,,,,,,,0,,,65,80
185880,note_on,144,0,3,,,,,,,,0,,,62,80
185880,note_on,0,0,3,,,,,,,,0,,,59,80
185888,set_tempo,18,1,0,,,,,,471846,,,,,,
185892,set_tempo,4,1,0,,,,,,474608,,,,,,
185896,set_tempo,4,1,0,,,,,,477403,,,,,,
185901,set_tempo,5,1,0,,,,,,480231,,,,,,
185904,note_on,0,0,1,,,,,,,,0,,,83,0
185904,note_on,144,0,1,,,,,,,,0,,,95,0
185905,set_tempo,4,1,0,,,,,,483092,,,,,,
185909,set_tempo,4,1,0,,,,,,485987,,,,,,
185914,set_tempo,5,1,0,,,,,,488918,,,,,,
185918,set_tempo,4,1,0,,,,,,491884,,,,,,
185922,set_tempo,4,1,0,,,,,,494886,,,,,,
185927,set_tempo,5,1,0,,,,,,497925,,,,,,
185928,note_on,48,0,2,,,,,,,,0,,,89,0
185931,set_tempo,4,1,0,,,,,,501002,,,,,,
185936,set_tempo,5,1,0,,,,,,504117,,,,,,
185940,note_on,0,0,1,,,,,,,,0,,,81,80
185940,set_tempo,4,1,0,,,,,,507271,,,,,,
185940,note_on,36,0,1,,,,,,,,0,,,93,80
185944,set_tempo,4,1,0,,,,,,510465,,,,,,
185949,set_tempo,5,1,0,,,,,,513699,,,,,,
185953,set_tempo,4,1,0,,,,,,516974,,,,,,
185957,set_tempo,4,1,0,,,,,,520291,,,,,,
185962,set_tempo,5,1,0,,,,,,523652,,,,,,
185966,set_tempo,4,1,0,,,,,,530504,,,,,,
185970,set_tempo,4,1,0,,,,,,533998,,,,,,
185975,set_tempo,5,1,0,,,,,,537538,,,,,,
185976,note_on,0,0,3,,,,,,,,0,,,62,0
185976,note_on,0,0,3,,,,,,,,0,,,65,0
185976,note_on,0,0,3,,,,,,,,0,,,69,0
185976,note_on,96,0,3,,,,,,,,0,,,59,0
185979,set_tempo,4,1,0,,,,,,541126,,,,,,
185984,set_tempo,5,1,0,,,,,,544761,,,,,,
185988,set_tempo,4,1,0,,,,,,548446,,,,,,
185992,set_tempo,4,1,0,,,,,,552181,,,,,,
185997,set_tempo,5,1,0,,,,,,555967,,,,,,
186000,note_on,72,0,2,,,,,,,,0,,,89,80
186000,note_on,0,0,3,,,,,,,,0,,,65,80
186000,note_on,0,0,2,,,,,,,,0,,,86,80
186000,note_on,0,0,3,,,,,,,,0,,,59,80
186000,note_on,24,0,3,,,,,,,,0,,,67,80
186000,note_on,0,0,3,,,,,,,,0,,,62,80
186001,set_tempo,4,1,0,,,,,,559806,,,,,,
186005,set_tempo,4,1,0,,,,,,563698,,,,,,
186010,set_tempo,5,1,0,,,,,,567644,,,,,,
186014,set_tempo,4,1,0,,,,,,571646,,,,,,
186018,set_tempo,4,1,0,,,,,,575705,,,,,,
186023,set_tempo,5,1,0,,,,,,579822,,,,,,
186027,set_tempo,4,1,0,,,,,,583998,,,,,,
186032,set_tempo,5,1,0,,,,,,588235,,,,,,
186036,set_tempo,4,1,0,,,,,,592534,,,,,,
186036,note_on,96,0,1,,,,,,,,0,,,81,0
186036,note_on,0,0,1,,,,,,,,0,,,93,0
186040,set_tempo,4,1,0,,,,,,601323,,,,,,
186045,set_tempo,5,1,0,,,,,,605816,,,,,,
186048,note_on,0,0,2,,,,,,,,0,,,89,0
186048,note_on,48,0,2,,,,,,,,0,,,86,0
186048,note_on,270,0,4,,,,,,,,0,,,43,0
186048,note_on,0,0,4,,,,,,,,0,,,55,0
186049,set_tempo,4,1,0,,,,,,610376,,,,,,
186053,set_tempo,4,1,0,,,,,,615006,,,,,,
186058,set_tempo,5,1,0,,,,,,619707,,,,,,
186060,note_on,0,0,1,,,,,,,,0,,,79,80
186060,note_on,24,0,1,,,,,,,,0,,,91,80
186062,set_tempo,4,1,0,,,,,,624480,,,,,,
186065,control_change,17,0,4,,,,,,,,0,64,0,,
186066,set_tempo,4,1,0,,,,,,629327,,,,,,
186071,set_tempo,5,1,0,,,,,,634249,,,,,,
186075,set_tempo,4,1,0,,,,,,639250,,,,,,
186080,set_tempo,5,1,0,,,,,,644330,,,,,,
186084,set_tempo,4,1,0,,,,,,649491,,,,,,
186088,set_tempo,4,1,0,,,,,,654736,,,,,,
186093,set_tempo,5,1,0,,,,,,660066,,,,,,
186096,note_on,0,0,3,,,,,,,,0,,,59,0
186096,note_on,0,0,3,,,,,,,,0,,,67,0
186096,note_on,96,0,3,,,,,,,,0,,,65,0
186096,note_on,0,0,3,,,,,,,,0,,,62,0
186097,set_tempo,4,1,0,,,,,,665484,,,,,,
186101,set_tempo,4,1,0,,,,,,670991,,,,,,
186106,set_tempo,5,1,0,,,,,,676590,,,,,,
186108,note_on,48,0,1,,,,,,,,0,,,79,0
186108,note_on,0,0,1,,,,,,,,0,,,91,0
186110,set_tempo,4,1,0,,,,,,682283,,,,,,
186114,set_tempo,4,1,0,,,,,,693963,,,,,,
186119,set_tempo,5,1,0,,,,,,491884,,,,,,
186120,note_on,12,0,1,,,,,,,,0,,,88,80
186120,control_change,55,0,4,,,,,,,,0,64,127,,
186120,note_on,0,0,4,,,,,,,,0,,,36,80
186120,time_signature,1,1,0,2,4,24,8,,,,,,,,
186120,note_on,0,0,1,,,,,,,,0,,,100,80
186120,note_on,0,0,4,,,,,,,,0,,,48,80
186136,set_tempo,16,1,0,,,,,,504117,,,,,,
186168,note_on,48,0,1,,,,,,,,0,,,100,0
186168,note_on,0,0,1,,,,,,,,0,,,88,0
186180,note_on,132,0,2,,,,,,,,0,,,64,72
186180,note_on,12,0,1,,,,,,,,0,,,91,80
186180,note_on,0,0,2,,,,,,,,0,,,67,72
186180,note_on,0,0,2,,,,,,,,0,,,76,72
186210,note_on,30,0,1,,,,,,,,0,,,96,80
186234,note_on,0,0,1,,,,,,,,0,,,91,0
186234,note_on,24,0,1,,,,,,,,0,,,96,0
186240,note_on,6,0,1,,,,,,,,0,,,98,80
186240,note_on,0,0,1,,,,,,,,0,,,86,80
186276,note_on,0,0,2,,,,,,,,0,,,76,0
186276,note_on,0,0,2,,,,,,,,0,,,64,0
186276,note_on,96,0,2,,,,,,,,0,,,67,0
186288,note_on,0,0,1,,,,,,,,0,,,98,0
186288,note_on,48,0,1,,,,,,,,0,,,86,0
186300,note_on,24,0,2,,,,,,,,0,,,62,72
186300,note_on,0,0,2,,,,,,,,0,,,64,72
186300,note_on,12,0,1,,,,,,,,0,,,88,80
186300,note_on,0,0,2,,,,,,,,0,,,67,72
186300,note_on,0,0,2,,,,,,,,0,,,74,72
186330,note_on,30,0,1,,,,,,,,0,,,91,80
186354,note_on,24,0,1,,,,,,,,0,,,91,0
186354,note_on,0,0,1,,,,,,,,0,,,88,0
186360,note_on,0,0,1,,,,,,,,0,,,84,80
186360,note_on,6,0,1,,,,,,,,0,,,96,80
186396,note_on,0,0,2,,,,,,,,0,,,74,0
186396,note_on,0,0,2,,,,,,,,0,,,64,0
186396,note_on,0,0,2,,,,,,,,0,,,62,0
186396,note_on,96,0,2,,,,,,,,0,,,67,0
186408,note_on,0,0,1,,,,,,,,0,,,96,0
186408,note_on,48,0,1,,,,,,,,0,,,84,0
186420,note_on,24,0,2,,,,,,,,0,,,64,72
186420,note_on,12,0,1,,,,,,,,0,,,88,80
186420,note_on,0,0,2,,,,,,,,0,,,60,72
186420,note_on,0,0,2,,,,,,,,0,,,67,72
186420,note_on,0,0,2,,,,,,,,0,,,72,72
186450,note_on,30,0,1,,,,,,,,0,,,91,80
186474,note_on,24,0,1,,,,,,,,0,,,91,0
186474,note_on,0,0,1,,,,,,,,0,,,88,0
186480,note_on,6,0,1,,,,,,,,0,,,95,80
186480,note_on,0,0,1,,,,,,,,0,,,83,80
186516,note_on,96,0,2,,,,,,,,0,,,60,0
186516,note_on,0,0,2,,,,,,,,0,,,64,0
186516,note_on,0,0,2,,,,,,,,0,,,72,0
186516,note_on,0,0,2,,,,,,,,0,,,67,0
186528,note_on,48,0,1,,,,,,,,0,,,83,0
186528,note_on,0,0,1,,,,,,,,0,,,95,0
186540,note_on,24,0,2,,,,,,,,0,,,67,72
186540,note_on,0,0,2,,,,,,,,0,,,64,72
186540,note_on,0,0,2,,,,,,,,0,,,71,72
186540,note_on,0,0,2,,,,,,,,0,,,59,72
186540,note_on,12,0,1,,,,,,,,0,,,88,80
186570,note_on,30,0,1,,,,,,,,0,,,91,80
186572,control_change,452,0,4,,,,,,,,0,64,0,,
186594,note_on,0,0,1,,,,,,,,0,,,88,0
186594,note_on,24,0,1,,,,,,,,0,,,91,0
186600,note_on,6,0,1,,,,,,,,0,,,81,80
186600,control_change,28,0,4,,,,,,,,0,64,127,,
186600,note_on,0,0,1,,,,,,,,0,,,93,80
186648,note_on,0,0,2,,,,,,,,0,,,67,0
186648,note_on,0,0,1,,,,,,,,0,,,81,0
186648,note_on,108,0,2,,,,,,,,0,,,71,0
186648,note_on,0,0,2,,,,,,,,0,,,64,0
186648,note_on,48,0,1,,,,,,,,0,,,93,0
186648,note_on,0,0,2,,,,,,,,0,,,59,0
186660,note_on,12,0,1,,,,,,,,0,,,84,80
186660,note_on,0,0,2,,,,,,,,0,,,57,72
186660,note_on,0,0,2,,,,,,,,0,,,60,72
186660,note_on,0,0,2,,,,,,,,0,,,69,72
186660,note_on,12,0,2,,,,,,,,0,,,64,72
186690,note_on,30,0,1,,,,,,,,0,,,88,80
186714,note_on,0,0,1,,,,,,,,0,,,84,0
186714,note_on,24,0,1,,,,,,,,0,,,88,0
186720,note_on,6,0,1,,,,,,,,0,,,78,80
186720,note_on,0,0,1,,,,,,,,0,,,90,80
186756,note_on,0,0,2,,,,,,,,0,,,57,0
186756,note_on,96,0,2,,,,,,,,0,,,60,0
186756,note_on,0,0,2,,,,,,,,0,,,69,0
186756,note_on,0,0,2,,,,,,,,0,,,64,0
186768,note_on,0,0,1,,,,,,,,0,,,78,0
186768,note_on,48,0,1,,,,,,,,0,,,90,0
186780,note_on,12,0,1,,,,,,,,0,,,84,80
186780,note_on,0,0,2,,,,,,,,0,,,66,72
186780,note_on,0,0,2,,,,,,,,0,,,64,72
186780,note_on,24,0,2,,,,,,,,0,,,60,72
186780,note_on,0,0,2,,,,,,,,0,,,54,72
186810,note_on,30,0,1,,,,,,,,0,,,88,80
186834,note_on,0,0,1,,,,,,,,0,,,84,0
186834,note_on,24,0,1,,,,,,,,0,,,88,0
186840,note_on,0,0,1,,,,,,,,0,,,91,80
186840,note_on,6,0,1,,,,,,,,0,,,79,80
186876,note_on,0,0,2,,,,,,,,0,,,54,0
186876,note_on,0,0,2,,,,,,,,0,,,60,0
186876,note_on,96,0,2,,,,,,,,0,,,66,0
186876,note_on,0,0,2,,,,,,,,0,,,64,0
186888,note_on,48,0,1,,,,,,,,0,,,91,0
186888,note_on,0,0,1,,,,,,,,0,,,79,0
186900,note_on,24,0,2,,,,,,,,0,,,55,72
186900,note_on,12,0,1,,,,,,,,0,,,84,80
186900,note_on,0,0,2,,,,,,,,0,,,67,72
186900,note_on,0,0,2,,,,,,,,0,,,64,72
186900,note_on,0,0,2,,,,,,,,0,,,60,72
186930,note_on,30,0,1,,,,,,,,0,,,88,80
186954,note_on,24,0,1,,,,,,,,0,,,88,0
186954,note_on,0,0,1,,,,,,,,0,,,84,0
186960,note_on,6,0,1,,,,,,,,0,,,100,80
186960,note_on,0,0,1,,,,,,,,0,,,88,80
186984,note_on,384,0,4,,,,,,,,0,,,36,0
186984,note_on,0,0,4,,,,,,,,0,,,48,0
186996,note_on,96,0,2,,,,,,,,0,,,64,0
186996,note_on,0,0,2,,,,,,,,0,,,60,0
186996,note_on,0,0,2,,,,,,,,0,,,67,0
186996,note_on,0,0,2,,,,,,,,0,,,55,0
187008,note_on,0,0,1,,,,,,,,0,,,100,0
187008,note_on,48,0,1,,,,,,,,0,,,88,0
187020,note_on,12,0,1,,,,,,,,0,,,91,80
187020,note_on,0,0,2,,,,,,,,0,,,76,72
187020,note_on,0,0,2,,,,,,,,0,,,72,72
187020,note_on,0,0,2,,,,,,,,0,,,67,72
187020,note_on,24,0,2,,,,,,,,0,,,64,72
187050,note_on,30,0,1,,,,,,,,0,,,96,80
187064,control_change,80,0,4,,,,,,,,0,64,0,,
187068,note_on,0,0,2,,,,,,,,0,,,64,0
187068,note_on,0,0,2,,,,,,,,0,,,67,0
187068,note_on,0,0,2,,,,,,,,0,,,76,0
187068,note_on,48,0,2,,,,,,,,0,,,72,0
187074,note_on,0,0,1,,,,,,,,0,,,91,0
187074,note_on,24,0,1,,,,,,,,0,,,96,0
187080,note_on,6,0,1,,,,,,,,0,,,100,80
187080,note_on,0,0,1,,,,,,,,0,,,88,80
187080,note_on,16,0,4,,,,,,,,0,,,36,80
187080,note_on,0,0,4,,,,,,,,0,,,48,80
187080,control_change,0,0,4,,,,,,,,0,64,127,,
187128,note_on,0,0,1,,,,,,,,0,,,100,0
187128,note_on,48,0,1,,,,,,,,0,,,88,0
187140,note_on,72,0,2,,,,,,,,0,,,64,72
187140,note_on,0,0,2,,,,,,,,0,,,76,72
187140,note_on,0,0,2,,,,,,,,0,,,69,72
187140,note_on,0,0,2,,,,,,,,0,,,66,72
187140,note_on,12,0,1,,,,,,,,0,,,90,80
187170,note_on,30,0,1,,,,,,,,0,,,93,80
187194,note_on,24,0,1,,,,,,,,0,,,93,0
187194,note_on,0,0,1,,,,,,,,0,,,90,0
187200,note_on,0,0,1,,,,,,,,0,,,97,80
187200,note_on,6,0,1,,,,,,,,0,,,85,80
187236,note_on,0,0,2,,,,,,,,0,,,76,0
187236,note_on,96,0,2,,,,,,,,0,,,69,0
187236,note_on,0,0,2,,,,,,,,0,,,66,0
187236,note_on,0,0,2,,,,,,,,0,,,64,0
187248,note_on,0,0,1,,,,,,,,0,,,85,0
187248,note_on,48,0,1,,,,,,,,0,,,97,0
187260,note_on,0,0,2,,,,,,,,0,,,61,72
187260,note_on,0,0,2,,,,,,,,0,,,73,72
187260,note_on,0,0,2,,,,,,,,0,,,69,72
187260,note_on,12,0,1,,,,,,,,0,,,90,80
187260,note_on,24,0,2,,,,,,,,0,,,66,72
187290,note_on,30,0,1,,,,,,,,0,,,93,80
187314,note_on,0,0,1,,,,,,,,0,,,90,0
187314,note_on,24,0,1,,,,,,,,0,,,93,0
187320,note_on,0,0,1,,,,,,,,0,,,98,80
187320,note_on,6,0,1,,,,,,,,0,,,86,80
187356,note_on,0,0,2,,,,,,,,0,,,61,0
187356,note_on,0,0,2,,,,,,,,0,,,66,0
187356,note_on,96,0,2,,,,,,,,0,,,73,0
187356,note_on,0,0,2,,,,,,,,0,,,69,0
187368,note_on,0,0,1,,,,,,,,0,,,86,0
187368,note_on,48,0,1,,,,,,,,0,,,98,0
187380,note_on,24,0,2,,,,,,,,0,,,69,72
187380,note_on,0,0,2,,,,,,,,0,,,74,72
187380,note_on,0,0,2,,,,,,,,0,,,62,72
187380,note_on,0,0,2,,,,,,,,0,,,66,72
187380,note_on,12,0,1,,,,,,,,0,,,90,80
187410,note_on,30,0,1,,,,,,,,0,,,93,80
187434,note_on,24,0,1,,,,,,,,0,,,93,0
187434,note_on,0,0,1,,,,,,,,0,,,90,0
187440,note_on,0,0,1,,,,,,,,0,,,100,80
187440,note_on,6,0,1,,,,,,,,0,,,88,80
187464,note_on,0,0,4,,,,,,,,0,,,36,0
187464,note_on,384,0,4,,,,,,,,0,,,48,0
187476,note_on,0,0,2,,,,,,,,0,,,66,0
187476,note_on,0,0,2,,,,,,,,0,,,69,0
187476,note_on,96,0,2,,,,,,,,0,,,74,0
187476,note_on,0,0,2,,,,,,,,0,,,62,0
187488,note_on,48,0,1,,,,,,,,0,,,100,0
187488,note_on,0,0,1,,,,,,,,0,,,88,0
187500,note_on,0,0,2,,,,,,,,0,,,64,72
187500,note_on,0,0,2,,,,,,,,0,,,69,72
187500,note_on,12,0,1,,,,,,,,0,,,90,80
187500,note_on,0,0,2,,,,,,,,0,,,66,72
187500,note_on,24,0,2,,,,,,,,0,,,76,72
187530,note_on,30,0,1,,,,,,,,0,,,93,80
187534,control_change,70,0,4,,,,,,,,0,64,0,,
187548,note_on,48,0,2,,,,,,,,0,,,69,0
187548,note_on,0,0,2,,,,,,,,0,,,64,0
187548,note_on,0,0,2,,,,,,,,0,,,66,0
187548,note_on,0,0,2,,,,,,,,0,,,76,0
187554,note_on,0,0,1,,,,,,,,0,,,90,0
187554,note_on,24,0,1,,,,,,,,0,,,93,0
187560,note_on,0,0,4,,,,,,,,0,,,36,80
187560,note_on,0,0,1,,,,,,,,0,,,89,80
187560,note_on,6,0,1,,,,,,,,0,,,101,80
187560,note_on,0,0,4,,,,,,,,0,,,48,80
187560,control_change,26,0,4,,,,,,,,0,64,127,,
187608,note_on,0,0,1,,,,,,,,0,,,101,0
187608,note_on,48,0,1,,,,,,,,0,,,89,0
187620,note_on,72,0,2,,,,,,,,0,,,65,72
187620,note_on,0,0,2,,,,,,,,0,,,77,72
187620,note_on,0,0,2,,,,,,,,0,,,71,72
187620,note_on,0,0,2,,,,,,,,0,,,67,72
187620,note_on,12,0,1,,,,,,,,0,,,91,80
187650,note_on,30,0,1,,,,,,,,0,,,95,80
187674,note_on,24,0,1,,,,,,,,0,,,95,0
187674,note_on,0,0,1,,,,,,,,0,,,91,0
187680,note_on,0,0,1,,,,,,,,0,,,86,80
187680,note_on,6,0,1,,,,,,,,0,,,98,80
187716,note_on,0,0,2,,,,,,,,0,,,65,0
187716,note_on,0,0,2,,,,,,,,0,,,71,0
187716,note_on,96,0,2,,,,,,,,0,,,67,0
187716,note_on,0,0,2,,,,,,,,0,,,77,0
187728,note_on,48,0,1,,,,,,,,0,,,86,0
187728,note_on,0,0,1,,,,,,,,0,,,98,0
187740,note_on,0,0,2,,,,,,,,0,,,71,72
187740,note_on,12,0,1,,,,,,,,0,,,89,80
187740,note_on,0,0,2,,,,,,,,0,,,65,72
187740,note_on,24,0,2,,,,,,,,0,,,62,72
187740,note_on,0,0,2,,,,,,,,0,,,74,72
187770,note_on,30,0,1,,,,,,,,0,,,91,80
187794,note_on,24,0,1,,,,,,,,0,,,91,0
187794,note_on,0,0,1,,,,,,,,0,,,89,0
187800,note_on,6,0,1,,,,,,,,0,,,80,80
187800,note_on,0,0,1,,,,,,,,0,,,92,80
187836,note_on,0,0,2,,,,,,,,0,,,71,0
187836,note_on,0,0,2,,,,,,,,0,,,62,0
187836,note_on,96,0,2,,,,,,,,0,,,65,0
187836,note_on,0,0,2,,,,,,,,0,,,74,0
187848,note_on,48,0,1,,,,,,,,0,,,92,0
187848,note_on,0,0,1,,,,,,,,0,,,80,0
187860,note_on,12,0,1,,,,,,,,0,,,86,80
187860,note_on,0,0,1,,,,,,,,0,,,83,80
187860,note_on,0,0,2,,,,,,,,0,,,68,72
187860,note_on,0,0,2,,,,,,,,0,,,59,72
187860,note_on,0,0,2,,,,,,,,0,,,56,72
187860,note_on,24,0,2,,,,,,,,0,,,65,72
187908,note_on,48,0,1,,,,,,,,0,,,83,0
187908,note_on,0,0,1,,,,,,,,0,,,86,0
187920,note_on,0,0,1,,,,,,,,0,,,79,80
187920,note_on,12,0,1,,,,,,,,0,,,91,80
187944,note_on,0,0,4,,,,,,,,0,,,48,0
187944,note_on,384,0,4,,,,,,,,0,,,36,0
187956,note_on,96,0,2,,,,,,,,0,,,59,0
187956,note_on,0,0,2,,,,,,,,0,,,56,0
187956,note_on,0,0,2,,,,,,,,0,,,65,0
187956,note_on,0,0,2,,,,,,,,0,,,68,0
187968,note_on,48,0,1,,,,,,,,0,,,79,0
187968,note_on,0,0,1,,,,,,,,0,,,91,0
187980,note_on,0,0,1,,,,,,,,0,,,86,80
187980,note_on,24,0,2,,,,,,,,0,,,55,72
187980,note_on,12,0,1,,,,,,,,0,,,83,80
187980,note_on,0,0,2,,,,,,,,0,,,67,72
187980,note_on,0,0,2,,,,,,,,0,,,65,72
187980,note_on,0,0,2,,,,,,,,0,,,59,72
188028,note_on,0,0,2,,,,,,,,0,,,65,0
188028,note_on,0,0,2,,,,,,,,0,,,55,0
188028,note_on,48,0,2,,,,,,,,0,,,67,0
188028,note_on,48,0,1,,,,,,,,0,,,86,0
188028,note_on,0,0,1,,,,,,,,0,,,83,0
188028,note_on,0,0,2,,,,,,,,0,,,59,0
188040,note_on,0,0,1,,,,,,,,0,,,88,80
188040,note_on,0,0,4,,,,,,,,0,,,36,80
188040,note_on,12,0,1,,,,,,,,0,,,76,80
188040,control_change,0,0,4,,,,,,,,0,64,0,,
188040,note_on,96,0,4,,,,,,,,0,,,48,80
188065,control_change,25,0,4,,,,,,,,0,64,127,,
188088,note_on,0,0,1,,,,,,,,0,,,76,0
188088,note_on,48,0,1,,,,,,,,0,,,88,0
188100,note_on,12,0,1,,,,,,,,0,,,79,80
188100,note_on,0,0,3,,,,,,,,0,,,55,72
188100,note_on,0,0,3,,,,,,,,0,,,64,72
188100,note_on,2004,0,3,,,,,,,,0,,,52,72
188130,note_on,30,0,1,,,,,,,,0,,,84,80
188154,note_on,24,0,1,,,,,,,,0,,,84,0
188154,note_on,0,0,1,,,,,,,,0,,,79,0
188160,note_on,0,0,1,,,,,,,,0,,,86,80
188160,note_on,6,0,1,,,,,,,,0,,,74,80
188196,note_on,0,0,3,,,,,,,,0,,,55,0
188196,note_on,0,0,3,,,,,,,,0,,,52,0
188196,note_on,96,0,3,,,,,,,,0,,,64,0
188208,note_on,48,0,1,,,,,,,,0,,,86,0
188208,note_on,0,0,1,,,,,,,,0,,,74,0
188220,note_on,24,0,3,,,,,,,,0,,,55,72
188220,note_on,0,0,3,,,,,,,,0,,,52,72
188220,note_on,0,0,3,,,,,,,,0,,,62,72
188220,note_on,12,0,1,,,,,,,,0,,,76,80
188250,note_on,30,0,1,,,,,,,,0,,,79,80
188274,note_on,0,0,1,,,,,,,,0,,,76,0
188274,note_on,24,0,1,,,,,,,,0,,,79,0
188280,note_on,6,0,1,,,,,,,,0,,,72,80
188280,note_on,0,0,1,,,,,,,,0,,,84,80
188316,note_on,0,0,3,,,,,,,,0,,,55,0
188316,note_on,0,0,3,,,,,,,,0,,,52,0
188316,note_on,96,0,3,,,,,,,,0,,,62,0
188328,note_on,0,0,1,,,,,,,,0,,,72,0
188328,note_on,48,0,1,,,,,,,,0,,,84,0
188340,note_on,12,0,1,,,,,,,,0,,,76,80
188340,note_on,24,0,3,,,,,,,,0,,,52,72
188340,note_on,0,0,3,,,,,,,,0,,,55,72
188340,note_on,0,0,3,,,,,,,,0,,,60,72
188370,note_on,30,0,1,,,,,,,,0,,,79,80
188394,note_on,0,0,1,,,,,,,,0,,,76,0
188394,note_on,24,0,1,,,,,,,,0,,,79,0
188400,note_on,0,0,1,,,,,,,,0,,,83,80
188400,note_on,6,0,1,,,,,,,,0,,,71,80
188436,note_on,0,0,3,,,,,,,,0,,,60,0
188436,note_on,0,0,3,,,,,,,,0,,,52,0
188436,note_on,96,0,3,,,,,,,,0,,,55,0
188448,note_on,0,0,1,,,,,,,,0,,,71,0
188448,note_on,48,0,1,,,,,,,,0,,,83,0
188460,note_on,0,0,3,,,,,,,,0,,,52,72
188460,note_on,12,0,1,,,,,,,,0,,,76,80
188460,note_on,0,0,3,,,,,,,,0,,,59,72
188460,note_on,24,0,3,,,,,,,,0,,,48,72
188490,note_on,30,0,1,,,,,,,,0,,,79,80
188504,control_change,439,0,4,,,,,,,,0,64,0,,
188514,note_on,24,0,1,,,,,,,,0,,,79,0
188514,note_on,0,0,1,,,,,,,,0,,,76,0
188520,note_on,0,0,1,,,,,,,,0,,,81,80
188520,note_on,6,0,1,,,,,,,,0,,,69,80
188520,control_change,16,0,4,,,,,,,,0,64,127,,
188568,note_on,108,0,3,,,,,,,,0,,,59,0
188568,note_on,0,0,3,,,,,,,,0,,,48,0
188568,note_on,48,0,1,,,,,,,,0,,,81,0
188568,note_on,0,0,3,,,,,,,,0,,,52,0
188568,note_on,0,0,1,,,,,,,,0,,,69,0
188580,note_on,0,0,3,,,,,,,,0,,,48,72
188580,note_on,12,0,1,,,,,,,,0,,,72,80
188580,note_on,0,0,3,,,,,,,,0,,,57,72
188580,note_on,12,0,3,,,,,,,,0,,,52,72
188610,note_on,30,0,1,,,,,,,,0,,,76,80
188634,note_on,24,0,1,,,,,,,,0,,,76,0
188634,note_on,0,0,1,,,,,,,,0,,,72,0
188640,note_on,6,0,1,,,,,,,,0,,,78,80
188640,note_on,0,0,1,,,,,,,,0,,,66,80
188676,note_on,0,0,3,,,,,,,,0,,,48,0
188676,note_on,0,0,3,,,,,,,,0,,,52,0
188676,note_on,96,0,3,,,,,,,,0,,,57,0
188688,note_on,0,0,1,,,,,,,,0,,,78,0
188688,note_on,48,0,1,,,,,,,,0,,,66,0
188700,note_on,0,0,3,,,,,,,,0,,,52,72
188700,note_on,24,0,3,,,,,,,,0,,,48,72
188700,note_on,12,0,1,,,,,,,,0,,,72,80
188700,note_on,0,0,3,,,,,,,,0,,,54,72
188730,note_on,30,0,1,,,,,,,,0,,,76,80
188754,note_on,24,0,1,,,,,,,,0,,,76,0
188754,note_on,0,0,1,,,,,,,,0,,,72,0
188760,note_on,0,0,1,,,,,,,,0,,,79,80
188760,note_on,6,0,1,,,,,,,,0,,,67,80
188796,note_on,96,0,3,,,,,,,,0,,,52,0
188796,note_on,0,0,3,,,,,,,,0,,,48,0
188796,note_on,0,0,3,,,,,,,,0,,,54,0
188808,note_on,0,0,1,,,,,,,,0,,,67,0
188808,note_on,48,0,1,,,,,,,,0,,,79,0
188820,note_on,0,0,3,,,,,,,,0,,,48,72
188820,note_on,12,0,1,,,,,,,,0,,,72,80
188820,note_on,24,0,3,,,,,,,,0,,,55,72
188820,note_on,0,0,3,,,,,,,,0,,,52,72
188850,note_on,30,0,1,,,,,,,,0,,,76,80
188874,note_on,0,0,1,,,,,,,,0,,,72,0
188874,note_on,24,0,1,,,,,,,,0,,,76,0
188880,note_on,0,0,1,,,,,,,,0,,,88,80
188880,note_on,6,0,1,,,,,,,,0,,,76,80
188904,note_on,0,0,4,,,,,,,,0,,,48,0
188904,note_on,384,0,4,,,,,,,,0,,,36,0
188916,note_on,0,0,3,,,,,,,,0,,,55,0
188916,note_on,96,0,3,,,,,,,,0,,,52,0
188916,note_on,0,0,3,,,,,,,,0,,,48,0
188928,note_on,0,0,1,,,,,,,,0,,,76,0
188928,note_on,48,0,1,,,,,,,,0,,,88,0
188940,note_on,0,0,3,,,,,,,,0,,,60,72
188940,note_on,0,0,3,,,,,,,,0,,,64,72
188940,note_on,12,0,1,,,,,,,,0,,,79,80
188940,note_on,24,0,3,,,,,,,,0,,,55,72
188968,control_change,64,0,4,,,,,,,,0,64,0,,
188970,note_on,30,0,1,,,,,,,,0,,,84,80
188988,note_on,0,0,3,,,,,,,,0,,,64,0
188988,note_on,0,0,3,,,,,,,,0,,,55,0
188988,note_on,48,0,3,,,,,,,,0,,,60,0
188994,note_on,0,0,1,,,,,,,,0,,,79,0
188994,note_on,24,0,1,,,,,,,,0,,,84,0
189000,control_change,0,0,4,,,,,,,,0,64,127,,
189000,note_on,0,0,1,,,,,,,,0,,,89,80
189000,note_on,0,0,4,,,,,,,,0,,,36,80
189000,note_on,6,0,1,,,,,,,,0,,,77,80
189000,note_on,32,0,4,,,,,,,,0,,,48,80
189048,note_on,48,0,1,,,,,,,,0,,,89,0
189048,note_on,0,0,1,,,,,,,,0,,,77,0
189060,note_on,0,0,3,,,,,,,,0,,,56,72
189060,note_on,12,0,1,,,,,,,,0,,,80,80
189060,note_on,72,0,3,,,,,,,,0,,,53,72
189060,note_on,0,0,3,,,,,,,,0,,,65,72
189090,note_on,30,0,1,,,,,,,,0,,,85,80
189114,note_on,24,0,1,,,,,,,,0,,,85,0
189114,note_on,0,0,1,,,,,,,,0,,,80,0
189120,note_on,6,0,1,,,,,,,,0,,,87,80
189120,note_on,0,0,1,,,,,,,,0,,,75,80
189156,note_on,0,0,3,,,,,,,,0,,,56,0
189156,note_on,96,0,3,,,,,,,,0,,,65,0
189156,note_on,0,0,3,,,,,,,,0,,,53,0
189168,note_on,48,0,1,,,,,,,,0,,,75,0
189168,note_on,0,0,1,,,,,,,,0,,,87,0
189180,note_on,0,0,3,,,,,,,,0,,,53,72
189180,note_on,12,0,1,,,,,,,,0,,,77,80
189180,note_on,0,0,3,,,,,,,,0,,,63,72
189180,note_on,24,0,3,,,,,,,,0,,,56,72
189210,note_on,30,0,1,,,,,,,,0,,,80,80
189234,note_on,24,0,1,,,,,,,,0,,,80,0
189234,note_on,0,0,1,,,,,,,,0,,,77,0
189240,note_on,0,0,1,,,,,,,,0,,,73,81
189240,note_on,6,0,1,,,,,,,,0,,,85,81
189276,note_on,0,0,3,,,,,,,,0,,,56,0
189276,note_on,0,0,3,,,,,,,,0,,,53,0
189276,note_on,96,0,3,,,,,,,,0,,,63,0
189288,note_on,48,0,1,,,,,,,,0,,,73,0
189288,note_on,0,0,1,,,,,,,,0,,,85,0
189300,note_on,0,0,3,,,,,,,,0,,,56,72
189300,note_on,0,0,3,,,,,,,,0,,,61,72
189300,note_on,24,0,3,,,,,,,,0,,,53,72
189300,note_on,12,0,1,,,,,,,,0,,,77,81
189330,note_on,30,0,1,,,,,,,,0,,,80,81
189354,note_on,0,0,1,,,,,,,,0,,,77,0
189354,note_on,24,0,1,,,,,,,,0,,,80,0
189360,note_on,0,0,1,,,,,,,,0,,,72,81
189360,note_on,6,0,1,,,,,,,,0,,,84,81
189396,note_on,0,0,3,,,,,,,,0,,,61,0
189396,note_on,0,0,3,,,,,,,,0,,,53,0
189396,note_on,96,0,3,,,,,,,,0,,,56,0
189408,note_on,0,0,1,,,,,,,,0,,,84,0
189408,note_on,48,0,1,,,,,,,,0,,,72,0
189420,note_on,0,0,3,,,,,,,,0,,,60,72
189420,note_on,24,0,3,,,,,,,,0,,,56,72
189420,note_on,0,0,3,,,,,,,,0,,,53,72
189420,note_on,12,0,1,,,,,,,,0,,,77,81
189450,note_on,30,0,1,,,,,,,,0,,,80,81
189462,control_change,462,0,4,,,,,,,,0,64,0,,
189474,note_on,0,0,1,,,,,,,,0,,,77,0
189474,note_on,24,0,1,,,,,,,,0,,,80,0
189480,note_on,0,0,1,,,,,,,,0,,,70,82
189480,control_change,18,0,4,,,,,,,,0,64,127,,
189480,note_on,6,0,1,,,,,,,,0,,,82,82
189528,note_on,48,0,1,,,,,,,,0,,,70,0
189528,note_on,108,0,3,,,,,,,,0,,,53,0
189528,note_on,0,0,3,,,,,,,,0,,,56,0
189528,note_on,0,0,3,,,,,,,,0,,,60,0
189528,note_on,0,0,1,,,,,,,,0,,,82,0
189540,note_on,0,0,1,,,,,,,,0,,,73,82
189540,note_on,12,0,1,,,,,,,,0,,,77,82
189540,note_on,0,0,3,,,,,,,,0,,,49,72
189540,note_on,0,0,3,,,,,,,,0,,,48,72
189540,note_on,0,0,3,,,,,,,,0,,,53,72
189540,note_on,12,0,3,,,,,,,,0,,,58,72
189588,note_on,0,0,1,,,,,,,,0,,,77,0
189588,note_on,48,0,1,,,,,,,,0,,,73,0
189600,note_on,12,0,1,,,,,,,,0,,,67,82
189600,note_on,0,0,1,,,,,,,,0,,,79,82
189636,note_on,96,0,3,,,,,,,,0,,,49,0
189636,note_on,0,0,3,,,,,,,,0,,,48,0
189636,note_on,0,0,3,,,,,,,,0,,,53,0
189636,note_on,0,0,3,,,,,,,,0,,,58,0
189648,note_on,0,0,1,,,,,,,,0,,,67,0
189648,note_on,48,0,1,,,,,,,,0,,,79,0
189660,note_on,0,0,3,,,,,,,,0,,,48,72
189660,note_on,0,0,3,,,,,,,,0,,,49,72
189660,note_on,0,0,3,,,,,,,,0,,,55,72
189660,note_on,24,0,3,,,,,,,,0,,,53,72
189660,note_on,0,0,1,,,,,,,,0,,,77,82
189660,note_on,12,0,1,,,,,,,,0,,,73,82
189708,note_on,0,0,1,,,,,,,,0,,,73,0
189708,note_on,48,0,1,,,,,,,,0,,,77,0
189720,note_on,12,0,1,,,,,,,,0,,,68,83
189720,note_on,0,0,1,,,,,,,,0,,,80,83
189756,note_on,0,0,3,,,,,,,,0,,,53,0
189756,note_on,96,0,3,,,,,,,,0,,,48,0
189756,note_on,0,0,3,,,,,,,,0,,,49,0
189756,note_on,0,0,3,,,,,,,,0,,,55,0
189768,note_on,0,0,1,,,,,,,,0,,,68,0
189768,note_on,48,0,1,,,,,,,,0,,,80,0
189780,note_on,0,0,1,,,,,,,,0,,,73,83
189780,note_on,12,0,1,,,,,,,,0,,,77,83
189780,note_on,0,0,3,,,,,,,,0,,,48,72
189780,note_on,0,0,3,,,,,,,,0,,,49,72
189780,note_on,0,0,3,,,,,,,,0,,,53,72
189780,note_on,24,0,3,,,,,,,,0,,,56,72
189828,note_on,0,0,1,,,,,,,,0,,,77,0
189828,note_on,48,0,1,,,,,,,,0,,,73,0
189840,note_on,0,0,1,,,,,,,,0,,,77,83
189840,note_on,12,0,1,,,,,,,,0,,,89,83
189864,note_on,384,0,4,,,,,,,,0,,,36,0
189864,note_on,0,0,4,,,,,,,,0,,,48,0
189876,note_on,0,0,3,,,,,,,,0,,,49,0
189876,note_on,0,0,3,,,,,,,,0,,,56,0
189876,note_on,96,0,3,,,,,,,,0,,,53,0
189876,note_on,0,0,3,,,,,,,,0,,,48,0
189888,note_on,48,0,1,,,,,,,,0,,,77,0
189888,note_on,0,0,1,,,,,,,,0,,,89,0
189900,note_on,0,0,3,,,,,,,,0,,,61,72
189900,note_on,12,0,1,,,,,,,,0,,,80,83
189900,note_on,0,0,1,,,,,,,,0,,,85,83
189900,note_on,0,0,3,,,,,,,,0,,,56,72
189900,note_on,24,0,3,,,,,,,,0,,,65,72
189900,note_on,0,0,3,,,,,,,,0,,,53,72
189929,control_change,65,0,4,,,,,,,,0,64,0,,
189947,set_tempo,3811,1,0,,,,,,501002,,,,,,
189948,note_on,48,0,3,,,,,,,,0,,,53,0
189948,note_on,48,0,1,,,,,,,,0,,,85,0
189948,note_on,0,0,3,,,,,,,,0,,,65,0
189948,note_on,0,0,3,,,,,,,,0,,,61,0
189948,note_on,0,0,1,,,,,,,,0,,,80,0
189948,note_on,0,0,3,,,,,,,,0,,,56,0
189960,note_on,0,0,1,,,,,,,,0,,,78,84
189960,note_on,31,0,4,,,,,,,,0,,,36,84
189960,note_on,0,0,4,,,,,,,,0,,,48,84
189960,control_change,0,0,4,,,,,,,,0,64,127,,
189960,note_on,12,0,1,,,,,,,,0,,,90,80
189973,set_tempo,26,1,0,,,,,,504117,,,,,,
189995,set_tempo,22,1,0,,,,,,507271,,,,,,
190008,note_on,48,0,1,,,,,,,,0,,,78,0
190008,note_on,0,0,1,,,,,,,,0,,,90,0
190017,set_tempo,22,1,0,,,,,,510465,,,,,,
190020,note_on,0,0,3,,,,,,,,0,,,54,72
190020,note_on,72,0,3,,,,,,,,0,,,57,72
190020,note_on,12,0,1,,,,,,,,0,,,81,84
190020,note_on,0,0,1,,,,,,,,0,,,86,84
190020,note_on,0,0,3,,,,,,,,0,,,66,72
190043,set_tempo,26,1,0,,,,,,513699,,,,,,
190065,set_tempo,22,1,0,,,,,,516974,,,,,,
190068,note_on,0,0,1,,,,,,,,0,,,81,0
190068,note_on,48,0,1,,,,,,,,0,,,86,0
190080,note_on,0,0,1,,,,,,,,0,,,76,84
190080,note_on,12,0,1,,,,,,,,0,,,88,84
190087,set_tempo,22,1,0,,,,,,520291,,,,,,
190113,set_tempo,26,1,0,,,,,,523652,,,,,,
190116,note_on,96,0,3,,,,,,,,0,,,54,0
190116,note_on,0,0,3,,,,,,,,0,,,66,0
190116,note_on,0,0,3,,,,,,,,0,,,57,0
190128,note_on,0,0,1,,,,,,,,0,,,88,0
190128,note_on,48,0,1,,,,,,,,0,,,76,0
190135,set_tempo,22,1,0,,,,,,527056,,,,,,
190140,note_on,0,0,3,,,,,,,,0,,,57,72
190140,note_on,12,0,1,,,,,,,,0,,,81,84
190140,note_on,0,0,3,,,,,,,,0,,,64,72
190140,note_on,24,0,3,,,,,,,,0,,,54,72
190140,note_on,0,0,1,,,,,,,,0,,,78,84
190157,set_tempo,22,1,0,,,,,,530504,,,,,,
190183,set_tempo,26,1,0,,,,,,533998,,,,,,
190188,note_on,48,0,1,,,,,,,,0,,,78,0
190188,note_on,0,0,1,,,,,,,,0,,,81,0
190200,note_on,12,0,1,,,,,,,,0,,,86,85
190200,note_on,0,0,1,,,,,,,,0,,,74,85
190205,set_tempo,22,1,0,,,,,,537538,,,,,,
190227,set_tempo,22,1,0,,,,,,541126,,,,,,
190236,note_on,0,0,3,,,,,,,,0,,,57,0
190236,note_on,0,0,3,,,,,,,,0,,,54,0
190236,note_on,96,0,3,,,,,,,,0,,,64,0
190248,note_on,0,0,1,,,,,,,,0,,,86,0
190248,note_on,48,0,1,,,,,,,,0,,,74,0
190253,set_tempo,26,1,0,,,,,,544761,,,,,,
190260,note_on,0,0,1,,,,,,,,0,,,81,85
190260,note_on,24,0,3,,,,,,,,0,,,62,72
190260,note_on,0,0,3,,,,,,,,0,,,54,72
190260,note_on,12,0,1,,,,,,,,0,,,78,85
190260,note_on,0,0,3,,,,,,,,0,,,57,72
190275,set_tempo,22,1,0,,,,,,548446,,,,,,
190296,set_tempo,21,1,0,,,,,,552181,,,,,,
190308,note_on,0,0,1,,,,,,,,0,,,78,0
190308,note_on,48,0,1,,,,,,,,0,,,81,0
190320,note_on,12,0,1,,,,,,,,0,,,81,85
190320,note_on,0,0,1,,,,,,,,0,,,69,85
190323,set_tempo,27,1,0,,,,,,555967,,,,,,
190344,note_on,384,0,4,,,,,,,,0,,,48,0
190344,set_tempo,21,1,0,,,,,,559806,,,,,,
190344,note_on,0,0,4,,,,,,,,0,,,36,0
190356,note_on,0,0,3,,,,,,,,0,,,62,0
190356,note_on,96,0,3,,,,,,,,0,,,54,0
190356,note_on,0,0,3,,,,,,,,0,,,57,0
190366,set_tempo,22,1,0,,,,,,563698,,,,,,
190368,note_on,0,0,1,,,,,,,,0,,,81,0
190368,note_on,48,0,1,,,,,,,,0,,,69,0
190380,note_on,0,0,3,,,,,,,,0,,,57,72
190380,note_on,0,0,1,,,,,,,,0,,,74,85
190380,note_on,12,0,1,,,,,,,,0,,,78,85
190380,note_on,24,0,3,,,,,,,,0,,,48,72
190380,note_on,0,0,3,,,,,,,,0,,,54,72
190392,set_tempo,26,1,0,,,,,,567644,,,,,,
190401,control_change,57,0,4,,,,,,,,0,64,0,,
190414,set_tempo,22,1,0,,,,,,571646,,,,,,
190428,note_on,0,0,3,,,,,,,,0,,,54,0
190428,note_on,0,0,3,,,,,,,,0,,,48,0
190428,note_on,0,0,1,,,,,,,,0,,,78,0
190428,note_on,48,0,3,,,,,,,,0,,,57,0
190428,note_on,48,0,1,,,,,,,,0,,,74,0
190436,set_tempo,22,1,0,,,,,,510465,,,,,,
190440,note_on,0,0,4,,,,,,,,0,,,48,86
190440,note_on,12,0,1,,,,,,,,0,,,91,80
190440,note_on,39,0,4,,,,,,,,0,,,36,86
190440,note_on,0,0,1,,,,,,,,0,,,79,86
190440,control_change,0,0,4,,,,,,,,0,64,127,,
190462,set_tempo,26,1,0,,,,,,513699,,,,,,
190488,set_tempo,26,1,0,,,,,,516974,,,,,,
190488,note_on,0,0,1,,,,,,,,0,,,91,0
190488,note_on,48,0,1,,,,,,,,0,,,79,0
190500,note_on,0,0,3,,,,,,,,0,,,58,72
190500,note_on,0,0,3,,,,,,,,0,,,67,72
190500,note_on,12,0,1,,,,,,,,0,,,87,86
190500,note_on,72,0,3,,,,,,,,0,,,55,72
190500,note_on,0,0,1,,,,,,,,0,,,82,86
190515,set_tempo,27,1,0,,,,,,520291,,,,,,
190536,set_tempo,21,1,0,,,,,,523652,,,,,,
190548,note_on,48,0,1,,,,,,,,0,,,82,0
190548,note_on,0,0,1,,,,,,,,0,,,87,0
190560,note_on,0,0,1,,,,,,,,0,,,77,86
190560,note_on,12,0,1,,,,,,,,0,,,89,86
190563,set_tempo,27,1,0,,,,,,527056,,,,,,
190589,set_tempo,26,1,0,,,,,,530504,,,,,,
190596,note_on,0,0,3,,,,,,,,0,,,67,0
190596,note_on,0,0,3,,,,,,,,0,,,55,0
190596,note_on,96,0,3,,,,,,,,0,,,58,0
190608,note_on,48,0,1,,,,,,,,0,,,77,0
190608,note_on,0,0,1,,,,,,,,0,,,89,0
190615,set_tempo,26,1,0,,,,,,533998,,,,,,
190620,note_on,0,0,1,,,,,,,,0,,,79,86
190620,note_on,12,0,1,,,,,,,,0,,,82,86
190620,note_on,24,0,3,,,,,,,,0,,,58,72
190620,note_on,0,0,3,,,,,,,,0,,,55,72
190620,note_on,0,0,3,,,,,,,,0,,,65,72
190637,set_tempo,22,1,0,,,,,,537538,,,,,,
190663,set_tempo,26,1,0,,,,,,541126,,,,,,
190668,note_on,0,0,1,,,,,,,,0,,,82,0
190668,note_on,48,0,1,,,,,,,,0,,,79,0
190680,note_on,12,0,1,,,,,,,,0,,,87,87
190680,note_on,0,0,1,,,,,,,,0,,,75,87
190689,set_tempo,26,1,0,,,,,,544761,,,,,,
190715,set_tempo,26,1,0,,,,,,548446,,,,,,
190716,note_on,0,0,3,,,,,,,,0,,,65,0
190716,note_on,0,0,3,,,,,,,,0,,,58,0
190716,note_on,96,0,3,,,,,,,,0,,,55,0
190728,note_on,0,0,1,,,,,,,,0,,,87,0
190728,note_on,48,0,1,,,,,,,,0,,,75,0
190737,set_tempo,22,1,0,,,,,,552181,,,,,,
190740,note_on,0,0,3,,,,,,,,0,,,58,72
190740,note_on,0,0,3,,,,,,,,0,,,55,72
190740,note_on,12,0,1,,,,,,,,0,,,79,87
190740,note_on,24,0,3,,,,,,,,0,,,63,72
190740,note_on,0,0,1,,,,,,,,0,,,82,87
190763,set_tempo,26,1,0,,,,,,555967,,,,,,
190788,note_on,48,0,1,,,,,,,,0,,,82,0
190788,note_on,0,0,1,,,,,,,,0,,,79,0
190789,set_tempo,26,1,0,,,,,,559806,,,,,,
190800,note_on,0,0,1,,,,,,,,0,,,70,87
190800,note_on,12,0,1,,,,,,,,0,,,82,87
190816,set_tempo,27,1,0,,,,,,563698,,,,,,
190824,note_on,384,0,4,,,,,,,,0,,,48,0
190824,note_on,0,0,4,,,,,,,,0,,,36,0
190836,note_on,0,0,3,,,,,,,,0,,,63,0
190836,note_on,0,0,3,,,,,,,,0,,,55,0
190836,note_on,96,0,3,,,,,,,,0,,,58,0
190837,set_tempo,21,1,0,,,,,,567644,,,,,,
190848,note_on,48,0,1,,,,,,,,0,,,70,0
190848,note_on,0,0,1,,,,,,,,0,,,82,0
190860,note_on,12,0,1,,,,,,,,0,,,79,87
190860,note_on,0,0,1,,,,,,,,0,,,75,87
190860,note_on,0,0,3,,,,,,,,0,,,58,72
190860,note_on,0,0,3,,,,,,,,0,,,51,72
190860,note_on,0,0,3,,,,,,,,0,,,48,72
190860,note_on,24,0,3,,,,,,,,0,,,55,72
190864,set_tempo,27,1,0,,,,,,571646,,,,,,
190885,control_change,61,0,4,,,,,,,,0,64,0,,
190890,set_tempo,26,1,0,,,,,,575705,,,,,,
190908,note_on,0,0,3,,,,,,,,0,,,58,0
190908,note_on,0,0,3,,,,,,,,0,,,55,0
190908,note_on,0,0,3,,,,,,,,0,,,51,0
190908,note_on,48,0,1,,,,,,,,0,,,75,0
190908,note_on,0,0,1,,,,,,,,0,,,79,0
190908,note_on,48,0,3,,,,,,,,0,,,48,0
190912,set_tempo,22,1,0,,,,,,579822,,,,,,
190916,set_tempo,4,1,0,,,,,,504117,,,,,,
190920,note_on,35,0,4,,,,,,,,0,,,48,88
190920,note_on,0,0,1,,,,,,,,0,,,92,80
190920,control_change,0,0,4,,,,,,,,0,64,127,,
190920,note_on,12,0,1,,,,,,,,0,,,80,88
190920,note_on,0,0,4,,,,,,,,0,,,36,88
190942,set_tempo,26,1,0,,,,,,507271,,,,,,
190964,set_tempo,22,1,0,,,,,,510465,,,,,,
190968,note_on,48,0,1,,,,,,,,0,,,92,0
190968,note_on,0,0,1,,,,,,,,0,,,80,0
190980,note_on,0,0,3,,,,,,,,0,,,59,72
190980,note_on,72,0,3,,,,,,,,0,,,56,72
190980,note_on,0,0,1,,,,,,,,0,,,83,88
190980,note_on,12,0,1,,,,,,,,0,,,88,88
190980,note_on,0,0,3,,,,,,,,0,,,68,72
190986,set_tempo,22,1,0,,,,,,513699,,,,,,
191008,set_tempo,22,1,0,,,,,,516974,,,,,,
191028,note_on,0,0,1,,,,,,,,0,,,88,0
191028,note_on,48,0,1,,,,,,,,0,,,83,0
191029,set_tempo,21,1,0,,,,,,520291,,,,,,
191040,note_on,0,0,1,,,,,,,,0,,,90,80
191040,note_on,12,0,1,,,,,,,,0,,,78,88
191051,set_tempo,22,1,0,,,,,,523652,,,,,,
191073,set_tempo,22,1,0,,,,,,527056,,,,,,
191076,note_on,96,0,3,,,,,,,,0,,,59,0
191076,note_on,0,0,3,,,,,,,,0,,,68,0
191076,note_on,0,0,3,,,,,,,,0,,,56,0
191088,note_on,0,0,1,,,,,,,,0,,,78,0
191088,note_on,48,0,1,,,,,,,,0,,,90,0
191095,set_tempo,22,1,0,,,,,,530504,,,,,,
191100,note_on,24,0,3,,,,,,,,0,,,59,72
191100,note_on,0,0,3,,,,,,,,0,,,66,72
191100,note_on,0,0,3,,,,,,,,0,,,56,72
191100,note_on,12,0,1,,,,,,,,0,,,80,88
191100,note_on,0,0,1,,,,,,,,0,,,83,88
191117,set_tempo,22,1,0,,,,,,533998,,,,,,
191139,set_tempo,22,1,0,,,,,,537538,,,,,,
191148,note_on,0,0,1,,,,,,,,0,,,80,0
191148,note_on,48,0,1,,,,,,,,0,,,83,0
191160,note_on,0,0,1,,,,,,,,0,,,76,89
191160,note_on,12,0,1,,,,,,,,0,,,88,89
191165,set_tempo,26,1,0,,,,,,541126,,,,,,
191187,set_tempo,22,1,0,,,,,,544761,,,,,,
191196,note_on,0,0,3,,,,,,,,0,,,56,0
191196,note_on,96,0,3,,,,,,,,0,,,66,0
191196,note_on,0,0,3,,,,,,,,0,,,59,0
191208,note_on,48,0,1,,,,,,,,0,,,76,0
191208,set_tempo,21,1,0,,,,,,548446,,,,,,
191208,note_on,0,0,1,,,,,,,,0,,,88,0
191220,note_on,0,0,3,,,,,,,,0,,,59,72
191220,note_on,12,0,1,,,,,,,,0,,,80,89
191220,note_on,24,0,3,,,,,,,,0,,,64,72
191220,note_on,0,0,3,,,,,,,,0,,,56,72
191220,note_on,0,0,1,,,,,,,,0,,,83,89
191230,set_tempo,22,1,0,,,,,,552181,,,,,,
191252,set_tempo,22,1,0,,,,,,555967,,,,,,
191268,note_on,48,0,1,,,,,,,,0,,,83,0
191268,note_on,0,0,1,,,,,,,,0,,,80,0
191274,set_tempo,22,1,0,,,,,,559806,,,,,,
191280,note_on,0,0,1,,,,,,,,0,,,83,89
191280,note_on,12,0,1,,,,,,,,0,,,71,89
191296,set_tempo,22,1,0,,,,,,563698,,,,,,
191304,note_on,384,0,4,,,,,,,,0,,,36,0
191304,note_on,0,0,4,,,,,,,,0,,,48,0
191316,note_on,0,0,3,,,,,,,,0,,,64,0
191316,note_on,0,0,3,,,,,,,,0,,,59,0
191316,note_on,96,0,3,,,,,,,,0,,,56,0
191317,set_tempo,21,1,0,,,,,,567644,,,,,,
191328,note_on,48,0,1,,,,,,,,0,,,83,0
191328,note_on,0,0,1,,,,,,,,0,,,71,0
191339,set_tempo,22,1,0,,,,,,571646,,,,,,
191340,note_on,0,0,1,,,,,,,,0,,,76,90
191340,note_on,12,0,1,,,,,,,,0,,,80,90
191340,note_on,24,0,3,,,,,,,,0,,,52,72
191340,note_on,0,0,3,,,,,,,,0,,,59,72
191340,note_on,0,0,3,,,,,,,,0,,,48,72
191340,note_on,0,0,3,,,,,,,,0,,,56,72
191351,control_change,47,0,4,,,,,,,,0,64,0,,
191361,set_tempo,22,1,0,,,,,,575705,,,,,,
191383,set_tempo,22,1,0,,,,,,579822,,,,,,
191388,note_on,48,0,1,,,,,,,,0,,,76,0
191388,note_on,0,0,3,,,,,,,,0,,,48,0
191388,note_on,48,0,3,,,,,,,,0,,,56,0
191388,note_on,0,0,3,,,,,,,,0,,,59,0
191388,note_on,0,0,3,,,,,,,,0,,,52,0
191388,note_on,0,0,1,,,,,,,,0,,,80,0
191396,set_tempo,13,1,0,,,,,,501002,,,,,,
191400,control_change,0,0,4,,,,,,,,0,64,127,,
191400,note_on,0,0,1,,,,,,,,0,,,92,90
191400,note_on,12,0,1,,,,,,,,0,,,80,90
191400,note_on,0,0,4,,,,,,,,0,,,48,80
191400,note_on,49,0,4,,,,,,,,0,,,36,80
191448,note_on,0,0,1,,,,,,,,0,,,80,0
191448,note_on,48,0,1,,,,,,,,0,,,92,0
191460,note_on,72,0,3,,,,,,,,0,,,68,81
191460,note_on,0,0,1,,,,,,,,0,,,86,90
191460,note_on,0,0,3,,,,,,,,0,,,62,81
191460,note_on,0,0,3,,,,,,,,0,,,59,81
191460,note_on,12,0,1,,,,,,,,0,,,83,90
191460,note_on,0,0,3,,,,,,,,0,,,56,81
191508,note_on,48,0,1,,,,,,,,0,,,86,0
191508,note_on,0,0,1,,,,,,,,0,,,83,0
191520,note_on,12,0,1,,,,,,,,0,,,91,91
191520,note_on,0,0,1,,,,,,,,0,,,79,91
191556,note_on,0,0,3,,,,,,,,0,,,56,0
191556,note_on,0,0,3,,,,,,,,0,,,68,0
191556,note_on,96,0,3,,,,,,,,0,,,59,0
191556,note_on,0,0,3,,,,,,,,0,,,62,0
191568,note_on,48,0,1,,,,,,,,0,,,79,0
191568,note_on,0,0,1,,,,,,,,0,,,91,0
191580,note_on,0,0,1,,,,,,,,0,,,83,91
191580,note_on,24,0,3,,,,,,,,0,,,62,81
191580,note_on,0,0,3,,,,,,,,0,,,67,81
191580,note_on,12,0,1,,,,,,,,0,,,86,91
191580,note_on,0,0,3,,,,,,,,0,,,55,81
191580,note_on,0,0,3,,,,,,,,0,,,59,81
191628,note_on,0,0,1,,,,,,,,0,,,86,0
191628,note_on,48,0,1,,,,,,,,0,,,83,0
191640,note_on,0,0,1,,,,,,,,0,,,77,92
191640,note_on,12,0,1,,,,,,,,0,,,89,92
191676,note_on,96,0,3,,,,,,,,0,,,55,0
191676,note_on,0,0,3,,,,,,,,0,,,67,0
191676,note_on,0,0,3,,,,,,,,0,,,62,0
191676,note_on,0,0,3,,,,,,,,0,,,59,0
191688,note_on,0,0,1,,,,,,,,0,,,89,0
191688,note_on,48,0,1,,,,,,,,0,,,77,0
191700,note_on,0,0,3,,,,,,,,0,,,65,83
191700,note_on,0,0,1,,,,,,,,0,,,83,93
191700,note_on,12,0,1,,,,,,,,0,,,80,93
191700,note_on,0,0,3,,,,,,,,0,,,56,83
191700,note_on,24,0,3,,,,,,,,0,,,53,83
191700,note_on,0,0,3,,,,,,,,0,,,59,83
191748,note_on,0,0,1,,,,,,,,0,,,80,0
191748,note_on,48,0,1,,,,,,,,0,,,83,0
191760,note_on,0,0,1,,,,,,,,0,,,86,93
191760,note_on,12,0,1,,,,,,,,0,,,74,93
191784,note_on,0,0,4,,,,,,,,0,,,36,0
191784,note_on,384,0,4,,,,,,,,0,,,48,0
191796,note_on,0,0,3,,,,,,,,0,,,65,0
191796,note_on,0,0,3,,,,,,,,0,,,59,0
191796,note_on,0,0,3,,,,,,,,0,,,53,0
191796,note_on,96,0,3,,,,,,,,0,,,56,0
191808,note_on,0,0,1,,,,,,,,0,,,74,0
191808,note_on,48,0,1,,,,,,,,0,,,86,0
191820,note_on,24,0,3,,,,,,,,0,,,50,84
191820,note_on,0,0,3,,,,,,,,0,,,62,84
191820,note_on,0,0,1,,,,,,,,0,,,80,94
191820,note_on,0,0,3,,,,,,,,0,,,56,84
191820,note_on,0,0,3,,,,,,,,0,,,53,84
191820,note_on,12,0,1,,,,,,,,0,,,77,94
191868,note_on,0,0,1,,,,,,,,0,,,77,0
191868,note_on,48,0,1,,,,,,,,0,,,80,0
191880,control_change,96,0,4,,,,,,,,0,64,0,,
191880,note_on,0,0,1,,,,,,,,0,,,83,95
191880,note_on,12,0,1,,,,,,,,0,,,71,95
191928,note_on,48,0,1,,,,,,,,0,,,83,0
191928,note_on,0,0,1,,,,,,,,0,,,71,0
191928,note_on,0,0,3,,,,,,,,0,,,50,0
191928,note_on,0,0,3,,,,,,,,0,,,53,0
191928,note_on,0,0,3,,,,,,,,0,,,56,0
191928,note_on,108,0,3,,,,,,,,0,,,62,0
191940,note_on,0,0,1,,,,,,,,0,,,77,95
191940,note_on,12,0,1,,,,,,,,0,,,74,95
191940,note_on,0,0,3,,,,,,,,0,,,47,68
191940,note_on,12,0,3,,,,,,,,0,,,59,68
191940,control_change,60,0,4,,,,,,,,0,64,127,,
191940,note_on,0,0,3,,,,,,,,0,,,50,68
191940,note_on,0,0,3,,,,,,,,0,,,53,68
191988,note_on,0,0,1,,,,,,,,0,,,74,0
191988,note_on,48,0,1,,,,,,,,0,,,77,0
192000,note_on,0,0,1,,,,,,,,0,,,68,96
192000,note_on,12,0,1,,,,,,,,0,,,80,96
192036,note_on,96,0,3,,,,,,,,0,,,47,0
192036,note_on,0,0,3,,,,,,,,0,,,50,0
192036,note_on,0,0,3,,,,,,,,0,,,59,0
192036,note_on,0,0,3,,,,,,,,0,,,53,0
192048,note_on,48,0,1,,,,,,,,0,,,68,0
192048,note_on,0,0,1,,,,,,,,0,,,80,0
192060,note_on,0,0,3,,,,,,,,0,,,50,69
192060,note_on,0,0,3,,,,,,,,0,,,47,69
192060,note_on,0,0,3,,,,,,,,0,,,44,69
192060,note_on,24,0,3,,,,,,,,0,,,56,69
192060,note_on,0,0,1,,,,,,,,0,,,71,97
192060,note_on,12,0,1,,,,,,,,0,,,74,97
192108,note_on,48,0,1,,,,,,,,0,,,71,0
192108,note_on,0,0,1,,,,,,,,0,,,74,0
192120,note_on,12,0,1,,,,,,,,0,,,67,97
192120,note_on,0,0,1,,,,,,,,0,,,79,97
192156,note_on,96,0,3,,,,,,,,0,,,44,0
192156,note_on,0,0,3,,,,,,,,0,,,47,0
192156,note_on,0,0,3,,,,,,,,0,,,50,0
192156,note_on,0,0,3,,,,,,,,0,,,56,0
192168,note_on,0,0,1,,,,,,,,0,,,67,0
192168,note_on,48,0,1,,,,,,,,0,,,79,0
192180,note_on,0,0,3,,,,,,,,0,,,43,70
192180,note_on,0,0,3,,,,,,,,0,,,47,70
192180,note_on,0,0,3,,,,,,,,0,,,50,70
192180,note_on,24,0,3,,,,,,,,0,,,55,70
192180,note_on,12,0,1,,,,,,,,0,,,71,98
192180,note_on,0,0,1,,,,,,,,0,,,74,98
192228,note_on,48,0,1,,,,,,,,0,,,74,0
192228,note_on,0,0,1,,,,,,,,0,,,71,0
192240,note_on,12,0,1,,,,,,,,0,,,77,99
192240,note_on,0,0,1,,,,,,,,0,,,65,99
192276,note_on,96,0,3,,,,,,,,0,,,50,0
192276,note_on,0,0,3,,,,,,,,0,,,47,0
192276,note_on,0,0,3,,,,,,,,0,,,55,0
192276,note_on,0,0,3,,,,,,,,0,,,43,0
192288,note_on,48,0,1,,,,,,,,0,,,65,0
192288,note_on,0,0,1,,,,,,,,0,,,77,0
192300,note_on,0,0,1,,,,,,,,0,,,68,99
192300,note_on,0,0,3,,,,,,,,0,,,53,71
192300,note_on,0,0,3,,,,,,,,0,,,47,71
192300,note_on,0,0,3,,,,,,,,0,,,44,71
192300,note_on,12,0,1,,,,,,,,0,,,71,99
192300,note_on,24,0,3,,,,,,,,0,,,41,71
192348,note_on,0,0,1,,,,,,,,0,,,71,0
192348,note_on,48,0,1,,,,,,,,0,,,68,0
192358,set_tempo,962,1,0,,,,,,497925,,,,,,
192360,note_on,12,0,1,,,,,,,,0,,,62,100
192360,note_on,0,0,1,,,,,,,,0,,,74,100
192360,control_change,420,0,4,,,,,,,,0,64,0,,
192384,set_tempo,26,1,0,,,,,,501002,,,,,,
192394,control_change,34,0,4,,,,,,,,0,64,127,,
192406,set_tempo,22,1,0,,,,,,504117,,,,,,
192408,note_on,0,0,3,,,,,,,,0,,,47,0
192408,note_on,48,0,1,,,,,,,,0,,,74,0
192408,set_tempo,2,1,0,,,,,,497925,,,,,,
192408,note_on,0,0,3,,,,,,,,0,,,53,0
192408,note_on,0,0,3,,,,,,,,0,,,41,0
192408,note_on,0,0,1,,,,,,,,0,,,62,0
192408,note_on,108,0,3,,,,,,,,0,,,44,0
192420,note_on,0,0,3,,,,,,,,0,,,50,80
192420,note_on,0,0,1,,,,,,,,0,,,68,100
192420,note_on,12,0,1,,,,,,,,0,,,65,100
192420,note_on,0,0,3,,,,,,,,0,,,44,80
192420,note_on,0,0,3,,,,,,,,0,,,41,80
192420,note_on,12,0,3,,,,,,,,0,,,38,80
192421,set_tempo,13,1,0,,,,,,501002,,,,,,
192434,set_tempo,13,1,0,,,,,,504117,,,,,,
192443,set_tempo,9,1,0,,,,,,507271,,,,,,
192456,set_tempo,13,1,0,,,,,,510465,,,,,,
192465,set_tempo,9,1,0,,,,,,513699,,,,,,
192468,note_on,0,0,1,,,,,,,,0,,,65,0
192468,note_on,48,0,1,,,,,,,,0,,,68,0
192478,set_tempo,13,1,0,,,,,,516974,,,,,,
192480,note_on,0,0,1,,,,,,,,0,,,59,101
192480,note_on,12,0,1,,,,,,,,0,,,71,101
192487,set_tempo,9,1,0,,,,,,520291,,,,,,
192500,set_tempo,13,1,0,,,,,,523652,,,,,,
192508,set_tempo,8,1,0,,,,,,527056,,,,,,
192516,note_on,0,0,3,,,,,,,,0,,,44,0
192516,note_on,0,0,3,,,,,,,,0,,,41,0
192516,note_on,0,0,3,,,,,,,,0,,,38,0
192516,note_on,96,0,3,,,,,,,,0,,,50,0
192522,set_tempo,14,1,0,,,,,,530504,,,,,,
192528,note_on,0,0,1,,,,,,,,0,,,71,0
192528,note_on,48,0,1,,,,,,,,0,,,59,0
192530,set_tempo,8,1,0,,,,,,533998,,,,,,
192540,note_on,0,0,1,,,,,,,,0,,,62,102
192540,note_on,0,0,3,,,,,,,,0,,,35,81
192540,note_on,0,0,3,,,,,,,,0,,,47,81
192540,note_on,0,0,3,,,,,,,,0,,,38,81
192540,note_on,24,0,3,,,,,,,,0,,,41,81
192540,note_on,12,0,1,,,,,,,,0,,,65,102
192543,set_tempo,13,1,0,,,,,,537538,,,,,,
192552,set_tempo,9,1,0,,,,,,541126,,,,,,
192565,set_tempo,13,1,0,,,,,,544761,,,,,,
192574,set_tempo,9,1,0,,,,,,548446,,,,,,
192587,set_tempo,13,1,0,,,,,,552181,,,,,,
192588,note_on,48,0,1,,,,,,,,0,,,62,0
192588,note_on,0,0,1,,,,,,,,0,,,65,0
192600,set_tempo,13,1,0,,,,,,555967,,,,,,
192600,note_on,0,0,1,,,,,,,,0,,,68,102
192600,note_on,12,0,1,,,,,,,,0,,,56,102
192609,set_tempo,9,1,0,,,,,,559806,,,,,,
192622,set_tempo,13,1,0,,,,,,563698,,,,,,
192631,set_tempo,9,1,0,,,,,,567644,,,,,,
192636,note_on,96,0,3,,,,,,,,0,,,47,0
192636,note_on,0,0,3,,,,,,,,0,,,35,0
192636,note_on,0,0,3,,,,,,,,0,,,38,0
192636,note_on,0,0,3,,,,,,,,0,,,41,0
192644,set_tempo,13,1,0,,,,,,571646,,,,,,
192648,note_on,48,0,1,,,,,,,,0,,,68,0
192648,note_on,0,0,1,,,,,,,,0,,,56,0
192652,set_tempo,8,1,0,,,,,,575705,,,,,,
192660,note_on,0,0,3,,,,,,,,0,,,44,82
192660,note_on,0,0,1,,,,,,,,0,,,59,103
192660,note_on,24,0,3,,,,,,,,0,,,35,82
192660,note_on,12,0,1,,,,,,,,0,,,62,103
192660,note_on,0,0,3,,,,,,,,0,,,38,82
192660,note_on,0,0,3,,,,,,,,0,,,32,82
192666,set_tempo,14,1,0,,,,,,579822,,,,,,
192674,set_tempo,8,1,0,,,,,,583998,,,,,,
192687,set_tempo,13,1,0,,,,,,588235,,,,,,
192696,set_tempo,9,1,0,,,,,,592534,,,,,,
192708,note_on,48,0,1,,,,,,,,0,,,59,0
192708,note_on,0,0,1,,,,,,,,0,,,62,0
192709,set_tempo,13,1,0,,,,,,596896,,,,,,
192718,set_tempo,9,1,0,,,,,,601323,,,,,,
192720,note_on,12,0,1,,,,,,,,0,,,55,104
192720,note_on,0,0,1,,,,,,,,0,,,67,104
192731,set_tempo,13,1,0,,,,,,605816,,,,,,
192740,set_tempo,9,1,0,,,,,,610376,,,,,,
192753,set_tempo,13,1,0,,,,,,615006,,,,,,
192756,note_on,0,0,3,,,,,,,,0,,,35,0
192756,note_on,0,0,3,,,,,,,,0,,,32,0
192756,note_on,96,0,3,,,,,,,,0,,,44,0
192756,note_on,0,0,3,,,,,,,,0,,,38,0
192762,set_tempo,9,1,0,,,,,,619707,,,,,,
192768,note_on,0,0,1,,,,,,,,0,,,55,0
192768,note_on,48,0,1,,,,,,,,0,,,67,0
192775,set_tempo,13,1,0,,,,,,624480,,,,,,
192780,note_on,12,0,1,,,,,,,,0,,,59,104
192780,note_on,24,0,3,,,,,,,,0,,,38,83
192780,note_on,0,0,1,,,,,,,,0,,,62,104
192780,note_on,0,0,3,,,,,,,,0,,,43,83
192780,note_on,0,0,3,,,,,,,,0,,,31,83
192780,note_on,0,0,3,,,,,,,,0,,,35,83
192788,set_tempo,13,1,0,,,,,,629327,,,,,,
192795,control_change,401,0,4,,,,,,,,0,64,0,,
192796,set_tempo,8,1,0,,,,,,634249,,,,,,
192810,set_tempo,14,1,0,,,,,,639250,,,,,,
192818,set_tempo,8,1,0,,,,,,644330,,,,,,
192828,note_on,0,0,1,,,,,,,,0,,,59,0
192828,note_on,48,0,1,,,,,,,,0,,,62,0
192831,set_tempo,13,1,0,,,,,,649491,,,,,,
192840,note_on,4812,0,2,,,,,,,,0,,,53,105
192840,control_change,45,0,4,,,,,,,,0,64,127,,
192840,set_tempo,9,1,0,,,,,,654736,,,,,,
192840,note_on,0,0,2,,,,,,,,0,,,65,105
192853,set_tempo,13,1,0,,,,,,660066,,,,,,
192862,set_tempo,9,1,0,,,,,,665484,,,,,,
192875,set_tempo,13,1,0,,,,,,670991,,,,,,
192884,set_tempo,9,1,0,,,,,,676590,,,,,,
192888,note_on,108,0,3,,,,,,,,0,,,35,0
192888,note_on,48,0,2,,,,,,,,0,,,65,0
192888,note_on,0,0,3,,,,,,,,0,,,31,0
192888,note_on,0,0,3,,,,,,,,0,,,43,0
192888,note_on,0,0,3,,,,,,,,0,,,38,0
192888,note_on,0,0,2,,,,,,,,0,,,53,0
192897,set_tempo,13,1,0,,,,,,682283,,,,,,
192900,note_on,0,0,3,,,,,,,,0,,,38,84
192900,note_on,0,0,3,,,,,,,,0,,,35,84
192900,note_on,0,0,3,,,,,,,,0,,,29,84
192900,note_on,12,0,3,,,,,,,,0,,,41,84
192900,note_on,12,0,2,,,,,,,,0,,,59,106
192900,note_on,0,0,2,,,,,,,,0,,,62,106
192906,set_tempo,9,1,0,,,,,,688073,,,,,,
192919,set_tempo,13,1,0,,,,,,693963,,,,,,
192927,set_tempo,8,1,0,,,,,,699953,,,,,,
192940,set_tempo,13,1,0,,,,,,706048,,,,,,
192948,note_on,48,0,2,,,,,,,,0,,,62,0
192948,note_on,0,0,2,,,,,,,,0,,,59,0
192954,set_tempo,14,1,0,,,,,,712251,,,,,,
192960,note_on,12,0,2,,,,,,,,0,,,68,106
192960,note_on,0,0,2,,,,,,,,0,,,56,106
192962,set_tempo,8,1,0,,,,,,718563,,,,,,
192975,set_tempo,13,1,0,,,,,,724988,,,,,,
192984,set_tempo,9,1,0,,,,,,731529,,,,,,
192996,note_on,0,0,3,,,,,,,,0,,,41,0
192996,note_on,0,0,3,,,,,,,,0,,,38,0
192996,note_on,96,0,3,,,,,,,,0,,,35,0
192996,note_on,0,0,3,,,,,,,,0,,,29,0
192997,set_tempo,13,1,0,,,,,,738189,,,,,,
193006,set_tempo,9,1,0,,,,,,744971,,,,,,
193008,note_on,48,0,2,,,,,,,,0,,,56,0
193008,note_on,0,0,2,,,,,,,,0,,,68,0
193019,set_tempo,13,1,0,,,,,,751880,,,,,,
193020,note_on,0,0,3,,,,,,,,0,,,32,85
193020,note_on,0,0,3,,,,,,,,0,,,35,85
193020,note_on,0,0,2,,,,,,,,0,,,59,107
193020,note_on,24,0,3,,,,,,,,0,,,44,85
193020,note_on,12,0,2,,,,,,,,0,,,62,107
193020,note_on,0,0,3,,,,,,,,0,,,38,85
193028,set_tempo,9,1,0,,,,,,758917,,,,,,
193041,set_tempo,13,1,0,,,,,,766088,,,,,,
193050,set_tempo,9,1,0,,,,,,773395,,,,,,
193063,set_tempo,13,1,0,,,,,,780843,,,,,,
193068,note_on,0,0,2,,,,,,,,0,,,62,0
193068,note_on,48,0,2,,,,,,,,0,,,59,0
193071,set_tempo,8,1,0,,,,,,788436,,,,,,
193080,note_on,0,0,2,,,,,,,,0,,,55,108
193080,note_on,12,0,2,,,,,,,,0,,,67,108
193084,set_tempo,13,1,0,,,,,,796178,,,,,,
193093,set_tempo,9,1,0,,,,,,804074,,,,,,
193106,set_tempo,13,1,0,,,,,,812128,,,,,,
193115,set_tempo,9,1,0,,,,,,820345,,,,,,
193116,note_on,96,0,3,,,,,,,,0,,,35,0
193116,note_on,0,0,3,,,,,,,,0,,,32,0
193116,note_on,0,0,3,,,,,,,,0,,,38,0
193116,note_on,0,0,3,,,,,,,,0,,,44,0
193128,note_on,0,0,2,,,,,,,,0,,,67,0
193128,note_on,48,0,2,,,,,,,,0,,,55,0
193128,set_tempo,13,1,0,,,,,,828729,,,,,,
193140,note_on,0,0,3,,,,,,,,0,,,35,86
193140,note_on,24,0,3,,,,,,,,0,,,38,86
193140,note_on,0,0,3,,,,,,,,0,,,43,86
193140,note_on,0,0,3,,,,,,,,0,,,31,86
193140,note_on,0,0,2,,,,,,,,0,,,59,108
193140,note_on,12,0,2,,,,,,,,0,,,62,108
193141,set_tempo,13,1,0,,,,,,837287,,,,,,
193150,set_tempo,9,1,0,,,,,,846024,,,,,,
193163,set_tempo,13,1,0,,,,,,854944,,,,,,
193172,set_tempo,9,1,0,,,,,,864055,,,,,,
193185,set_tempo,13,1,0,,,,,,873362,,,,,,
193188,note_on,0,0,2,,,,,,,,0,,,62,0
193188,note_on,48,0,2,,,,,,,,0,,,59,0
193194,set_tempo,9,1,0,,,,,,882872,,,,,,
193200,note_on,0,0,2,,,,,,,,0,,,53,109
193200,note_on,12,0,2,,,,,,,,0,,,65,109
193207,set_tempo,13,1,0,,,,,,892591,,,,,,
193215,set_tempo,8,1,0,,,,,,902527,,,,,,
193228,set_tempo,13,1,0,,,,,,912686,,,,,,
193236,note_on,0,0,3,,,,,,,,0,,,31,0
193236,note_on,0,0,3,,,,,,,,0,,,35,0
193236,note_on,96,0,3,,,,,,,,0,,,43,0
193236,note_on,0,0,3,,,,,,,,0,,,38,0
193237,set_tempo,9,1,0,,,,,,923077,,,,,,
193248,note_on,48,0,2,,,,,,,,0,,,53,0
193248,note_on,0,0,2,,,,,,,,0,,,65,0
193250,set_tempo,13,1,0,,,,,,933707,,,,,,
193259,set_tempo,9,1,0,,,,,,944584,,,,,,
193260,note_on,12,0,2,,,,,,,,0,,,60,110
193260,note_on,0,0,3,,,,,,,,0,,,41,88
193260,note_on,0,0,3,,,,,,,,0,,,38,88
193260,note_on,0,0,3,,,,,,,,0,,,32,88
193260,note_on,0,0,3,,,,,,,,0,,,29,88
193260,note_on,24,0,3,,,,,,,,0,,,35,88
193260,note_on,0,0,2,,,,,,,,0,,,59,110
193272,set_tempo,13,1,0,,,,,,955718,,,,,,
193281,set_tempo,9,1,0,,,,,,967118,,,,,,
193294,set_tempo,13,1,0,,,,,,978793,,,,,,
193296,control_change,456,0,4,,,,,,,,0,64,0,,
193303,set_tempo,9,1,0,,,,,,990753,,,,,,
193308,note_on,0,0,3,,,,,,,,0,,,29,0
193308,note_on,0,0,2,,,,,,,,0,,,60,0
193308,note_on,48,0,3,,,,,,,,0,,,38,0
193308,note_on,48,0,2,,,,,,,,0,,,59,0
193308,note_on,0,0,3,,,,,,,,0,,,35,0
193308,note_on,0,0,3,,,,,,,,0,,,32,0
193308,note_on,0,0,3,,,,,,,,0,,,41,0
193318,set_tempo,15,1,0,,,,,,405734,,,,,,
193320,note_on,0,0,4,,,,,,,,0,,,31,100
193320,note_on,0,0,4,,,,,,,,0,,,28,100
193320,note_on,0,0,4,,,,,,,,0,,,36,100
193320,control_change,24,0,4,,,,,,,,0,64,127,,
193320,note_on,0,0,4,,,,,,,,0,,,24,100
193320,note_on,492,0,1,,,,,,,,0,,,48,100
193320,time_signature,2,1,0,6,8,12,8,,,,,,,,
193320,note_on,0,0,1,,,,,,,,0,,,60,100
193327,set_tempo,7,1,0,,,,,,676590,,,,,,
193331,set_tempo,4,1,0,,,,,,445898,,,,,,
193464,note_on,0,0,1,,,,,,,,0,,,48,0
193464,note_on,144,0,1,,,,,,,,0,,,60,0
193500,note_on,36,0,1,,,,,,,,0,,,48,103
193548,note_on,48,0,1,,,,,,,,0,,,48,0
193560,note_on,12,0,1,,,,,,,,0,,,55,104
193560,note_on,0,0,1,,,,,,,,0,,,52,104
193592,note_on,32,0,1,,,,,,,,0,,,52,0
193592,note_on,0,0,1,,,,,,,,0,,,55,0
193600,note_on,8,0,1,,,,,,,,0,,,60,104
193608,note_on,0,0,4,,,,,,,,0,,,36,0
193608,note_on,0,0,4,,,,,,,,0,,,31,0
193608,note_on,288,0,4,,,,,,,,0,,,28,0
193608,note_on,0,0,4,,,,,,,,0,,,24,0
193632,note_on,32,0,1,,,,,,,,0,,,60,0
193640,note_on,8,0,1,,,,,,,,0,,,60,105
193672,note_on,32,0,1,,,,,,,,0,,,60,0
193680,note_on,0,0,4,,,,,,,,0,,,52,96
193680,note_on,0,0,1,,,,,,,,0,,,64,106
193680,note_on,72,0,4,,,,,,,,0,,,55,96
193680,note_on,0,0,4,,,,,,,,0,,,60,96
193680,note_on,8,0,1,,,,,,,,0,,,67,106
193712,note_on,32,0,1,,,,,,,,0,,,64,0
193712,note_on,0,0,1,,,,,,,,0,,,67,0
193720,note_on,8,0,1,,,,,,,,0,,,72,106
193752,note_on,32,0,1,,,,,,,,0,,,72,0
193760,note_on,8,0,1,,,,,,,,0,,,72,107
193776,note_on,0,0,4,,,,,,,,0,,,60,0
193776,note_on,0,0,4,,,,,,,,0,,,55,0
193776,note_on,96,0,4,,,,,,,,0,,,52,0
193792,note_on,32,0,1,,,,,,,,0,,,72,0
193800,note_on,0,0,1,,,,,,,,0,,,76,108
193800,note_on,8,0,1,,,,,,,,0,,,79,108
193832,note_on,32,0,1,,,,,,,,0,,,76,0
193832,note_on,0,0,1,,,,,,,,0,,,79,0
193840,note_on,8,0,1,,,,,,,,0,,,84,108
193860,note_on,0,0,4,,,,,,,,0,,,55,96
193860,note_on,0,0,4,,,,,,,,0,,,48,96
193860,note_on,84,0,4,,,,,,,,0,,,52,96
193872,note_on,32,0,1,,,,,,,,0,,,84,0
193880,note_on,8,0,1,,,,,,,,0,,,84,109
193908,note_on,0,0,4,,,,,,,,0,,,52,0
193908,note_on,0,0,4,,,,,,,,0,,,48,0
193908,note_on,48,0,4,,,,,,,,0,,,55,0
193912,note_on,32,0,1,,,,,,,,0,,,84,0
193920,note_on,0,0,1,,,,,,,,0,,,88,110
193920,note_on,8,0,1,,,,,,,,0,,,91,110
193920,note_on,0,0,4,,,,,,,,0,,,52,96
193920,note_on,0,0,1,,,,,,,,0,,,96,110
193920,note_on,12,0,4,,,,,,,,0,,,55,96
193920,note_on,0,0,4,,,,,,,,0,,,48,96
194016,note_on,0,0,1,,,,,,,,0,,,96,0
194016,note_on,96,0,4,,,,,,,,0,,,48,0
194016,note_on,96,0,1,,,,,,,,0,,,88,0
194016,note_on,0,0,1,,,,,,,,0,,,91,0
194016,note_on,0,0,4,,,,,,,,0,,,55,0
194016,note_on,0,0,4,,,,,,,,0,,,52,0
194040,note_on,24,0,4,,,,,,,,0,,,34,100
194040,note_on,0,0,1,,,,,,,,0,,,61,100
194040,note_on,0,0,4,,,,,,,,0,,,43,100
194040,note_on,0,0,4,,,,,,,,0,,,37,100
194040,note_on,0,0,4,,,,,,,,0,,,31,100
194040,control_change,0,0,4,,,,,,,,0,64,0,,
194040,note_on,24,0,1,,,,,,,,0,,,49,100
194074,control_change,34,0,4,,,,,,,,0,64,127,,
194184,note_on,0,0,1,,,,,,,,0,,,49,0
194184,note_on,144,0,1,,,,,,,,0,,,61,0
194220,note_on,36,0,1,,,,,,,,0,,,49,103
194268,note_on,48,0,1,,,,,,,,0,,,49,0
194280,note_on,12,0,1,,,,,,,,0,,,53,104
194312,note_on,32,0,1,,,,,,,,0,,,53,0
194320,note_on,8,0,1,,,,,,,,0,,,58,104
194320,note_on,0,0,1,,,,,,,,0,,,61,104
194328,note_on,254,0,4,,,,,,,,0,,,43,0
194328,note_on,0,0,4,,,,,,,,0,,,34,0
194328,note_on,0,0,4,,,,,,,,0,,,31,0
194328,note_on,0,0,4,,,,,,,,0,,,37,0
194352,note_on,32,0,1,,,,,,,,0,,,61,0
194352,note_on,0,0,1,,,,,,,,0,,,58,0
194360,note_on,8,0,1,,,,,,,,0,,,61,105
194392,note_on,32,0,1,,,,,,,,0,,,61,0
194400,note_on,0,0,4,,,,,,,,0,,,61,96
194400,note_on,72,0,4,,,,,,,,0,,,53,96
194400,note_on,8,0,1,,,,,,,,0,,,65,106
194400,note_on,0,0,4,,,,,,,,0,,,58,96
194432,note_on,32,0,1,,,,,,,,0,,,65,0
194440,note_on,8,0,1,,,,,,,,0,,,73,106
194440,note_on,0,0,1,,,,,,,,0,,,70,106
194472,note_on,0,0,1,,,,,,,,0,,,73,0
194472,note_on,32,0,1,,,,,,,,0,,,70,0
194480,note_on,8,0,1,,,,,,,,0,,,73,107
194496,note_on,0,0,4,,,,,,,,0,,,53,0
194496,note_on,0,0,4,,,,,,,,0,,,58,0
194496,note_on,96,0,4,,,,,,,,0,,,61,0
194512,note_on,32,0,1,,,,,,,,0,,,73,0
194520,note_on,8,0,1,,,,,,,,0,,,77,108
194552,note_on,32,0,1,,,,,,,,0,,,77,0
194560,note_on,0,0,1,,,,,,,,0,,,82,108
194560,note_on,8,0,1,,,,,,,,0,,,85,108
194580,note_on,84,0,4,,,,,,,,0,,,58,96
194580,note_on,0,0,4,,,,,,,,0,,,49,96
194580,note_on,0,0,4,,,,,,,,0,,,53,96
194592,note_on,32,0,1,,,,,,,,0,,,82,0
194592,note_on,0,0,1,,,,,,,,0,,,85,0
194600,note_on,8,0,1,,,,,,,,0,,,85,109
194628,note_on,48,0,4,,,,,,,,0,,,49,0
194628,note_on,0,0,4,,,,,,,,0,,,53,0
194628,note_on,0,0,4,,,,,,,,0,,,58,0
194632,note_on,32,0,1,,,,,,,,0,,,85,0
194640,note_on,0,0,4,,,,,,,,0,,,58,96
194640,note_on,12,0,4,,,,,,,,0,,,49,96
194640,note_on,8,0,1,,,,,,,,0,,,89,110
194640,note_on,0,0,1,,,,,,,,0,,,94,110
194640,note_on,0,0,4,,,,,,,,0,,,53,96
194640,note_on,0,0,1,,,,,,,,0,,,97,110
194651,control_change,11,0,4,,,,,,,,0,64,0,,
194736,note_on,0,0,4,,,,,,,,0,,,49,0
194736,note_on,0,0,1,,,,,,,,0,,,97,0
194736,note_on,0,0,1,,,,,,,,0,,,89,0
194736,note_on,96,0,1,,,,,,,,0,,,94,0
194736,note_on,85,0,4,,,,,,,,0,,,58,0
194736,note_on,0,0,4,,,,,,,,0,,,53,0
194760,note_on,24,0,1,,,,,,,,0,,,60,100
194760,note_on,0,0,1,,,,,,,,0,,,48,100
194760,note_on,0,0,4,,,,,,,,0,,,31,100
194760,note_on,0,0,4,,,,,,,,0,,,36,100
194760,note_on,24,0,4,,,,,,,,0,,,28,100
194760,note_on,0,0,4,,,,,,,,0,,,24,100
194767,control_change,7,0,4,,,,,,,,0,64,127,,
194904,note_on,144,0,1,,,,,,,,0,,,48,0
194904,note_on,0,0,1,,,,,,,,0,,,60,0
194940,note_on,36,0,1,,,,,,,,0,,,48,103
194988,note_on,48,0,1,,,,,,,,0,,,48,0
195000,note_on,0,0,1,,,,,,,,0,,,55,104
195000,note_on,12,0,1,,,,,,,,0,,,52,104
195032,note_on,32,0,1,,,,,,,,0,,,55,0
195032,note_on,0,0,1,,,,,,,,0,,,52,0
195040,note_on,8,0,1,,,,,,,,0,,,60,104
195048,note_on,0,0,4,,,,,,,,0,,,24,0
195048,note_on,0,0,4,,,,,,,,0,,,36,0
195048,note_on,0,0,4,,,,,,,,0,,,28,0
195048,note_on,281,0,4,,,,,,,,0,,,31,0
195072,note_on,32,0,1,,,,,,,,0,,,60,0
195080,note_on,8,0,1,,,,,,,,0,,,60,105
195112,note_on,32,0,1,,,,,,,,0,,,60,0
195120,note_on,8,0,1,,,,,,,,0,,,67,106
195120,note_on,0,0,1,,,,,,,,0,,,64,106
195120,note_on,72,0,4,,,,,,,,0,,,52,96
195120,note_on,0,0,4,,,,,,,,0,,,60,96
195120,note_on,0,0,4,,,,,,,,0,,,55,96
195152,note_on,32,0,1,,,,,,,,0,,,64,0
195152,note_on,0,0,1,,,,,,,,0,,,67,0
195160,note_on,8,0,1,,,,,,,,0,,,72,106
195192,note_on,32,0,1,,,,,,,,0,,,72,0
195200,note_on,8,0,1,,,,,,,,0,,,72,107
195216,note_on,0,0,4,,,,,,,,0,,,55,0
195216,note_on,96,0,4,,,,,,,,0,,,60,0
195216,note_on,0,0,4,,,,,,,,0,,,52,0
195232,note_on,32,0,1,,,,,,,,0,,,72,0
195240,note_on,8,0,1,,,,,,,,0,,,79,108
195240,note_on,0,0,1,,,,,,,,0,,,76,108
195272,note_on,0,0,1,,,,,,,,0,,,79,0
195272,note_on,32,0,1,,,,,,,,0,,,76,0
195280,note_on,8,0,1,,,,,,,,0,,,84,108
195300,note_on,0,0,4,,,,,,,,0,,,55,96
195300,note_on,0,0,4,,,,,,,,0,,,48,96
195300,note_on,84,0,4,,,,,,,,0,,,52,96
195312,note_on,32,0,1,,,,,,,,0,,,84,0
195320,note_on,8,0,1,,,,,,,,0,,,84,109
195348,note_on,0,0,4,,,,,,,,0,,,55,0
195348,note_on,48,0,4,,,,,,,,0,,,48,0
195348,note_on,0,0,4,,,,,,,,0,,,52,0
195352,note_on,32,0,1,,,,,,,,0,,,84,0
195360,note_on,8,0,1,,,,,,,,0,,,91,110
195360,note_on,0,0,1,,,,,,,,0,,,96,110
195360,note_on,0,0,1,,,,,,,,0,,,88,110
195360,note_on,0,0,4,,,,,,,,0,,,55,96
195360,note_on,12,0,4,,,,,,,,0,,,52,96
195360,note_on,0,0,4,,,,,,,,0,,,48,96
195406,control_change,46,0,4,,,,,,,,0,64,0,,
195456,note_on,0,0,1,,,,,,,,0,,,91,0
195456,note_on,96,0,1,,,,,,,,0,,,88,0
195456,note_on,0,0,4,,,,,,,,0,,,48,0
195456,note_on,0,0,4,,,,,,,,0,,,52,0
195456,note_on,50,0,4,,,,,,,,0,,,55,0
195456,note_on,0,0,1,,,,,,,,0,,,96,0
195480,note_on,24,0,1,,,,,,,,0,,,53,100
195480,control_change,0,0,4,,,,,,,,0,64,127,,
195480,note_on,0,0,4,,,,,,,,0,,,29,100
195480,note_on,24,0,4,,,,,,,,0,,,38,100
195480,note_on,0,0,4,,,,,,,,0,,,32,100
195480,note_on,0,0,4,,,,,,,,0,,,35,100
195480,note_on,0,0,4,,,,,,,,0,,,41,100
195480,note_on,0,0,1,,,,,,,,0,,,65,100
195624,note_on,0,0,1,,,,,,,,0,,,53,0
195624,note_on,144,0,1,,,,,,,,0,,,65,0
195660,note_on,36,0,1,,,,,,,,0,,,53,108
195708,note_on,48,0,1,,,,,,,,0,,,53,0
195720,note_on,0,0,1,,,,,,,,0,,,56,110
195720,note_on,12,0,1,,,,,,,,0,,,59,110
195752,note_on,0,0,1,,,,,,,,0,,,59,0
195752,note_on,32,0,1,,,,,,,,0,,,56,0
195760,note_on,8,0,1,,,,,,,,0,,,65,112
195768,note_on,0,0,4,,,,,,,,0,,,41,0
195768,note_on,0,0,4,,,,,,,,0,,,32,0
195768,note_on,0,0,4,,,,,,,,0,,,29,0
195768,note_on,0,0,4,,,,,,,,0,,,38,0
195768,note_on,288,0,4,,,,,,,,0,,,35,0
195792,note_on,32,0,1,,,,,,,,0,,,65,0
195800,note_on,8,0,1,,,,,,,,0,,,65,114
195832,note_on,32,0,1,,,,,,,,0,,,65,0
195840,note_on,72,0,4,,,,,,,,0,,,62,96
195840,note_on,0,0,4,,,,,,,,0,,,59,96
195840,note_on,8,0,1,,,,,,,,0,,,71,116
195840,note_on,0,0,4,,,,,,,,0,,,68,96
195872,note_on,32,0,1,,,,,,,,0,,,71,0
195880,note_on,8,0,1,,,,,,,,0,,,77,118
195912,note_on,32,0,1,,,,,,,,0,,,77,0
195920,note_on,8,0,1,,,,,,,,0,,,77,119
195936,note_on,0,0,4,,,,,,,,0,,,59,0
195936,note_on,0,0,4,,,,,,,,0,,,62,0
195936,note_on,96,0,4,,,,,,,,0,,,68,0
195952,note_on,32,0,1,,,,,,,,0,,,77,0
195960,note_on,0,0,1,,,,,,,,0,,,80,121
195960,note_on,8,0,1,,,,,,,,0,,,83,121
195992,note_on,32,0,1,,,,,,,,0,,,80,0
195992,note_on,0,0,1,,,,,,,,0,,,83,0
196000,note_on,8,0,1,,,,,,,,0,,,89,123
196020,note_on,84,0,4,,,,,,,,0,,,59,96
196020,note_on,0,0,4,,,,,,,,0,,,56,96
196020,note_on,0,0,4,,,,,,,,0,,,65,96
196032,note_on,32,0,1,,,,,,,,0,,,89,0
196040,note_on,8,0,1,,,,,,,,0,,,89,125
196068,note_on,0,0,4,,,,,,,,0,,,65,0
196068,note_on,48,0,4,,,,,,,,0,,,56,0
196068,note_on,0,0,4,,,,,,,,0,,,59,0
196072,note_on,32,0,1,,,,,,,,0,,,89,0
196080,note_on,8,0,1,,,,,,,,0,,,101,80
196080,note_on,12,0,4,,,,,,,,0,,,65,96
196080,note_on,0,0,4,,,,,,,,0,,,59,96
196080,note_on,0,0,4,,,,,,,,0,,,56,96
196080,note_on,0,0,1,,,,,,,,0,,,95,127
196080,note_on,0,0,1,,,,,,,,0,,,92,127
196173,control_change,93,0,4,,,,,,,,0,64,0,,
196176,note_on,0,0,4,,,,,,,,0,,,59,0
196176,note_on,0,0,4,,,,,,,,0,,,65,0
196176,note_on,96,0,1,,,,,,,,0,,,92,0
196176,note_on,3,0,4,,,,,,,,0,,,56,0
196176,note_on,0,0,1,,,,,,,,0,,,101,0
196176,note_on,0,0,1,,,,,,,,0,,,95,0
196200,note_on,24,0,4,,,,,,,,0,,,48,110
196200,note_on,0,0,2,,,,,,,,0,,,64,110
196200,control_change,0,0,4,,,,,,,,0,64,127,,
196200,note_on,0,0,4,,,,,,,,0,,,40,110
196200,note_on,0,0,4,,,,,,,,0,,,36,110
196200,note_on,2892,0,2,,,,,,,,0,,,52,110
196200,note_on,0,0,4,,,,,,,,0,,,43,110
196248,note_on,0,0,2,,,,,,,,0,,,52,0
196248,note_on,48,0,2,,,,,,,,0,,,64,0
196260,note_on,12,0,2,,,,,,,,0,,,55,110
196308,note_on,48,0,2,,,,,,,,0,,,55,0
196320,note_on,12,0,2,,,,,,,,0,,,60,110
196368,note_on,48,0,2,,,,,,,,0,,,60,0
196380,note_on,12,0,2,,,,,,,,0,,,64,110
196392,note_on,0,0,4,,,,,,,,0,,,43,0
196392,note_on,0,0,4,,,,,,,,0,,,48,0
196392,note_on,0,0,4,,,,,,,,0,,,40,0
196392,note_on,192,0,4,,,,,,,,0,,,36,0
196428,note_on,48,0,2,,,,,,,,0,,,64,0
196440,note_on,0,0,2,,,,,,,,0,,,67,110
196440,note_on,0,0,2,,,,,,,,0,,,76,110
196440,note_on,12,0,2,,,,,,,,0,,,72,110
196440,note_on,0,0,4,,,,,,,,0,,,60,112
196440,note_on,48,0,4,,,,,,,,0,,,55,112
196489,control_change,49,0,4,,,,,,,,0,64,0,,
196536,note_on,0,0,2,,,,,,,,0,,,72,0
196536,note_on,0,0,4,,,,,,,,0,,,55,0
196536,note_on,0,0,2,,,,,,,,0,,,76,0
196536,note_on,47,0,4,,,,,,,,0,,,60,0
196536,note_on,96,0,2,,,,,,,,0,,,67,0
196553,control_change,17,0,4,,,,,,,,0,64,127,,
196560,note_on,0,0,4,,,,,,,,0,,,31,114
196560,note_on,0,0,4,,,,,,,,0,,,34,114
196560,note_on,0,0,4,,,,,,,,0,,,43,114
196560,note_on,0,0,2,,,,,,,,0,,,73,110
196560,note_on,24,0,2,,,,,,,,0,,,61,110
196560,note_on,7,0,4,,,,,,,,0,,,37,114
196608,note_on,0,0,2,,,,,,,,0,,,61,0
196608,note_on,48,0,2,,,,,,,,0,,,73,0
196620,note_on,12,0,2,,,,,,,,0,,,65,110
196668,note_on,48,0,2,,,,,,,,0,,,65,0
196680,note_on,0,0,2,,,,,,,,0,,,70,110
196680,note_on,12,0,2,,,,,,,,0,,,73,110
196728,note_on,0,0,2,,,,,,,,0,,,73,0
196728,note_on,48,0,2,,,,,,,,0,,,70,0
196740,note_on,12,0,2,,,,,,,,0,,,73,110
196752,note_on,0,0,4,,,,,,,,0,,,43,0
196752,note_on,0,0,4,,,,,,,,0,,,37,0
196752,note_on,0,0,4,,,,,,,,0,,,34,0
196752,note_on,192,0,4,,,,,,,,0,,,31,0
196788,note_on,48,0,2,,,,,,,,0,,,73,0
196800,note_on,0,0,2,,,,,,,,0,,,85,110
196800,note_on,0,0,4,,,,,,,,0,,,58,117
196800,note_on,0,0,4,,,,,,,,0,,,61,117
196800,note_on,48,0,4,,,,,,,,0,,,53,117
196800,note_on,0,0,2,,,,,,,,0,,,82,110
196800,note_on,12,0,2,,,,,,,,0,,,77,110
196881,control_change,81,0,4,,,,,,,,0,64,0,,
196896,note_on,0,0,2,,,,,,,,0,,,77,0
196896,end_of_track,0,1,2,,,,,,,,,,,,
196896,note_on,15,0,4,,,,,,,,0,,,61,0
196896,note_on,0,0,4,,,,,,,,0,,,53,0
196896,note_on,0,0,4,,,,,,,,0,,,58,0
196896,note_on,96,0,2,,,,,,,,0,,,85,0
196896,note_on,0,0,2,,,,,,,,0,,,82,0
196920,note_on,24,0,4,,,,,,,,0,,,48,118
196920,control_change,0,0,4,,,,,,,,0,64,127,,
196920,note_on,0,0,1,,,,,,,,0,,,72,118
196920,note_on,0,0,4,,,,,,,,0,,,36,118
196920,note_on,0,0,4,,,,,,,,0,,,40,118
196920,note_on,0,0,4,,,,,,,,0,,,43,118
196920,note_on,744,0,1,,,,,,,,0,,,60,118
196968,note_on,48,0,1,,,,,,,,0,,,72,0
196968,note_on,0,0,1,,,,,,,,0,,,60,0
196980,note_on,0,0,1,,,,,,,,0,,,64,119
196980,note_on,12,0,1,,,,,,,,0,,,67,119
197028,note_on,0,0,1,,,,,,,,0,,,67,0
197028,note_on,48,0,1,,,,,,,,0,,,64,0
197040,note_on,12,0,1,,,,,,,,0,,,72,119
197088,note_on,48,0,1,,,,,,,,0,,,72,0
197100,note_on,12,0,1,,,,,,,,0,,,72,120
197112,note_on,192,0,4,,,,,,,,0,,,43,0
197112,note_on,0,0,4,,,,,,,,0,,,36,0
197112,note_on,0,0,4,,,,,,,,0,,,48,0
197112,note_on,0,0,4,,,,,,,,0,,,40,0
197148,note_on,48,0,1,,,,,,,,0,,,72,0
197160,note_on,0,0,1,,,,,,,,0,,,76,121
197160,note_on,48,0,4,,,,,,,,0,,,60,121
197160,note_on,0,0,4,,,,,,,,0,,,55,121
197160,note_on,0,0,1,,,,,,,,0,,,84,121
197160,note_on,12,0,1,,,,,,,,0,,,79,121
197160,note_on,0,0,4,,,,,,,,0,,,52,121
197213,control_change,53,0,4,,,,,,,,0,64,0,,
197256,note_on,96,0,1,,,,,,,,0,,,76,0
197256,note_on,43,0,4,,,,,,,,0,,,52,0
197256,note_on,0,0,4,,,,,,,,0,,,60,0
197256,note_on,0,0,1,,,,,,,,0,,,84,0
197256,note_on,0,0,4,,,,,,,,0,,,55,0
197256,note_on,0,0,1,,,,,,,,0,,,79,0
197272,set_tempo,3941,1,0,,,,,,441047,,,,,,
197280,note_on,0,0,4,,,,,,,,0,,,35,122
197280,note_on,24,0,1,,,,,,,,0,,,89,122
197280,note_on,0,0,1,,,,,,,,0,,,77,122
197280,control_change,0,0,4,,,,,,,,0,64,127,,
197280,note_on,0,0,4,,,,,,,,0,,,38,122
197280,note_on,24,0,4,,,,,,,,0,,,29,122
197280,note_on,0,0,4,,,,,,,,0,,,41,122
197280,note_on,0,0,4,,,,,,,,0,,,32,122
197281,set_tempo,9,1,0,,,,,,443459,,,,,,
197285,set_tempo,4,1,0,,,,,,445898,,,,,,
197294,set_tempo,9,1,0,,,,,,448363,,,,,,
197298,set_tempo,4,1,0,,,,,,450857,,,,,,
197307,set_tempo,9,1,0,,,,,,453378,,,,,,
197312,set_tempo,5,1,0,,,,,,455927,,,,,,
197320,set_tempo,8,1,0,,,,,,458505,,,,,,
197325,set_tempo,5,1,0,,,,,,461113,,,,,,
197328,note_on,0,0,1,,,,,,,,0,,,89,0
197328,note_on,48,0,1,,,,,,,,0,,,77,0
197329,set_tempo,4,1,0,,,,,,463750,,,,,,
197338,set_tempo,9,1,0,,,,,,466418,,,,,,
197340,note_on,12,0,1,,,,,,,,0,,,80,123
197340,note_on,0,0,1,,,,,,,,0,,,83,123
197342,set_tempo,4,1,0,,,,,,469116,,,,,,
197351,set_tempo,9,1,0,,,,,,471846,,,,,,
197355,set_tempo,4,1,0,,,,,,474608,,,,,,
197364,set_tempo,9,1,0,,,,,,477403,,,,,,
197368,set_tempo,4,1,0,,,,,,480231,,,,,,
197377,set_tempo,9,1,0,,,,,,483092,,,,,,
197381,set_tempo,4,1,0,,,,,,485987,,,,,,
197386,set_tempo,5,1,0,,,,,,488918,,,,,,
197388,note_on,48,0,1,,,,,,,,0,,,83,0
197388,note_on,0,0,1,,,,,,,,0,,,80,0
197394,set_tempo,8,1,0,,,,,,491884,,,,,,
197399,set_tempo,5,1,0,,,,,,494886,,,,,,
197400,note_on,12,0,1,,,,,,,,0,,,89,124
197408,set_tempo,9,1,0,,,,,,497925,,,,,,
197412,set_tempo,4,1,0,,,,,,501002,,,,,,
197421,set_tempo,9,1,0,,,,,,504117,,,,,,
197425,set_tempo,4,1,0,,,,,,507271,,,,,,
197429,set_tempo,4,1,0,,,,,,510465,,,,,,
197438,set_tempo,9,1,0,,,,,,513699,,,,,,
197442,set_tempo,4,1,0,,,,,,516974,,,,,,
197448,note_on,48,0,1,,,,,,,,0,,,89,0
197451,set_tempo,9,1,0,,,,,,520291,,,,,,
197456,set_tempo,5,1,0,,,,,,523652,,,,,,
197460,note_on,12,0,1,,,,,,,,0,,,89,124
197464,set_tempo,8,1,0,,,,,,527056,,,,,,
197469,set_tempo,5,1,0,,,,,,530504,,,,,,
197472,note_on,192,0,4,,,,,,,,0,,,32,0
197472,note_on,0,0,4,,,,,,,,0,,,38,0
197472,note_on,0,0,4,,,,,,,,0,,,29,0
197472,note_on,0,0,4,,,,,,,,0,,,35,0
197472,note_on,0,0,4,,,,,,,,0,,,41,0
197477,set_tempo,8,1,0,,,,,,533998,,,,,,
197482,set_tempo,5,1,0,,,,,,537538,,,,,,
197486,set_tempo,4,1,0,,,,,,541126,,,,,,
197495,set_tempo,9,1,0,,,,,,544761,,,,,,
197499,set_tempo,4,1,0,,,,,,548446,,,,,,
197508,set_tempo,9,1,0,,,,,,552181,,,,,,
197508,note_on,48,0,1,,,,,,,,0,,,89,0
197512,set_tempo,4,1,0,,,,,,555967,,,,,,
197520,note_on,0,0,4,,,,,,,,0,,,62,125
197520,note_on,0,0,4,,,,,,,,0,,,65,125
197520,note_on,48,0,4,,,,,,,,0,,,59,125
197520,note_on,12,0,1,,,,,,,,0,,,101,125
197520,note_on,0,0,1,,,,,,,,0,,,95,125
197520,note_on,0,0,4,,,,,,,,0,,,56,125
197520,note_on,0,0,1,,,,,,,,0,,,92,125
197521,set_tempo,9,1,0,,,,,,559806,,,,,,
197525,set_tempo,4,1,0,,,,,,563698,,,,,,
197530,set_tempo,5,1,0,,,,,,567644,,,,,,
197538,set_tempo,8,1,0,,,,,,571646,,,,,,
197543,set_tempo,5,1,0,,,,,,575705,,,,,,
197552,set_tempo,9,1,0,,,,,,579822,,,,,,
197556,set_tempo,4,1,0,,,,,,583998,,,,,,
197565,set_tempo,9,1,0,,,,,,588235,,,,,,
197569,set_tempo,4,1,0,,,,,,592534,,,,,,
197578,set_tempo,9,1,0,,,,,,596896,,,,,,
197582,set_tempo,4,1,0,,,,,,601323,,,,,,
197586,set_tempo,4,1,0,,,,,,605816,,,,,,
197595,set_tempo,9,1,0,,,,,,610376,,,,,,
197600,set_tempo,5,1,0,,,,,,615006,,,,,,
197605,control_change,85,0,4,,,,,,,,0,64,0,,
197608,set_tempo,8,1,0,,,,,,619707,,,,,,
197613,set_tempo,5,1,0,,,,,,624480,,,,,,
197616,note_on,11,0,4,,,,,,,,0,,,65,0
197616,note_on,0,0,4,,,,,,,,0,,,56,0
197616,note_on,0,0,4,,,,,,,,0,,,59,0
197616,note_on,0,0,1,,,,,,,,0,,,95,0
197616,note_on,0,0,1,,,,,,,,0,,,101,0
197616,note_on,96,0,1,,,,,,,,0,,,92,0
197616,note_on,0,0,4,,,,,,,,0,,,62,0
197621,set_tempo,8,1,0,,,,,,629327,,,,,,
197626,set_tempo,5,1,0,,,,,,629327,,,,,,
197640,note_on,0,0,4,,,,,,,,0,,,36,127
197640,note_on,24,0,1,,,,,,,,0,,,100,80
197640,note_on,0,0,1,,,,,,,,0,,,88,127
197640,note_on,24,0,4,,,,,,,,0,,,48,127
197640,note_on,0,0,1,,,,,,,,0,,,96,127
197640,note_on,0,0,1,,,,,,,,0,,,91,127
197656,set_tempo,30,1,0,,,,,,624480,,,,,,
197665,set_tempo,9,1,0,,,,,,619707,,,,,,
197669,set_tempo,4,1,0,,,,,,615006,,,,,,
197674,set_tempo,5,1,0,,,,,,610376,,,,,,
197678,set_tempo,4,1,0,,,,,,605816,,,,,,
197682,set_tempo,4,1,0,,,,,,601323,,,,,,
197687,set_tempo,5,1,0,,,,,,596896,,,,,,
197691,set_tempo,4,1,0,,,,,,592534,,,,,,
197696,set_tempo,5,1,0,,,,,,588235,,,,,,
197700,set_tempo,4,1,0,,,,,,583998,,,,,,
197704,set_tempo,4,1,0,,,,,,579822,,,,,,
197709,set_tempo,5,1,0,,,,,,575705,,,,,,
197713,set_tempo,4,1,0,,,,,,571646,,,,,,
197717,set_tempo,4,1,0,,,,,,567644,,,,,,
197722,set_tempo,5,1,0,,,,,,563698,,,,,,
197726,set_tempo,4,1,0,,,,,,559806,,,,,,
197730,set_tempo,4,1,0,,,,,,555967,,,,,,
197736,note_on,0,0,1,,,,,,,,0,,,91,0
197736,note_on,96,0,1,,,,,,,,0,,,88,0
197736,note_on,0,0,4,,,,,,,,0,,,48,0
197736,note_on,0,0,1,,,,,,,,0,,,96,0
197736,note_on,0,0,1,,,,,,,,0,,,100,0
197736,note_on,96,0,4,,,,,,,,0,,,36,0
197739,set_tempo,9,1,0,,,,,,552181,,,,,,
197744,set_tempo,5,1,0,,,,,,548446,,,,,,
197748,set_tempo,4,1,0,,,,,,544761,,,,,,
197752,set_tempo,4,1,0,,,,,,541126,,,,,,
197757,set_tempo,5,1,0,,,,,,537538,,,,,,
197760,note_on,0,0,4,,,,,,,,0,,,43,126
197760,note_on,0,0,1,,,,,,,,0,,,94,126
197760,note_on,0,0,1,,,,,,,,0,,,85,126
197760,note_on,24,0,1,,,,,,,,0,,,97,126
197760,note_on,24,0,4,,,,,,,,0,,,31,126
197760,note_on,0,0,1,,,,,,,,0,,,89,126
197761,set_tempo,4,1,0,,,,,,533998,,,,,,
197765,set_tempo,4,1,0,,,,,,530504,,,,,,
197770,set_tempo,5,1,0,,,,,,527056,,,,,,
197774,set_tempo,4,1,0,,,,,,523652,,,,,,
197778,set_tempo,4,1,0,,,,,,520291,,,,,,
197783,set_tempo,5,1,0,,,,,,516974,,,,,,
197787,set_tempo,4,1,0,,,,,,513699,,,,,,
197792,set_tempo,5,1,0,,,,,,510465,,,,,,
197796,set_tempo,4,1,0,,,,,,507271,,,,,,
197800,set_tempo,4,1,0,,,,,,504117,,,,,,
197805,set_tempo,5,1,0,,,,,,501002,,,,,,
197813,set_tempo,8,1,0,,,,,,497925,,,,,,
197818,set_tempo,5,1,0,,,,,,494886,,,,,,
197822,set_tempo,4,1,0,,,,,,491884,,,,,,
197826,set_tempo,4,1,0,,,,,,488918,,,,,,
197831,set_tempo,5,1,0,,,,,,485987,,,,,,
197835,set_tempo,4,1,0,,,,,,483092,,,,,,
197840,set_tempo,5,1,0,,,,,,480231,,,,,,
197844,set_tempo,4,1,0,,,,,,477403,,,,,,
197848,set_tempo,4,1,0,,,,,,474608,,,,,,
197853,set_tempo,5,1,0,,,,,,471846,,,,,,
197856,note_on,0,0,1,,,,,,,,0,,,85,0
197856,note_on,0,0,4,,,,,,,,0,,,31,0
197856,note_on,0,0,1,,,,,,,,0,,,94,0
197856,note_on,96,0,1,,,,,,,,0,,,89,0
197856,note_on,96,0,4,,,,,,,,0,,,43,0
197856,note_on,0,0,1,,,,,,,,0,,,97,0
197857,set_tempo,4,1,0,,,,,,469116,,,,,,
197861,set_tempo,4,1,0,,,,,,466418,,,,,,
197866,set_tempo,5,1,0,,,,,,463750,,,,,,
197870,set_tempo,4,1,0,,,,,,461113,,,,,,
197874,set_tempo,4,1,0,,,,,,458505,,,,,,
197879,set_tempo,5,1,0,,,,,,455927,,,,,,
197880,note_on,0,0,1,,,,,,,,0,,,96,125
197880,note_on,0,0,1,,,,,,,,0,,,91,125
197880,note_on,0,0,1,,,,,,,,0,,,84,125
197880,note_on,0,0,4,,,,,,,,0,,,36,125
197880,note_on,24,0,4,,,,,,,,0,,,48,125
197880,note_on,24,0,1,,,,,,,,0,,,88,125
197936,set_tempo,57,1,0,,,,,,453378,,,,,,
197976,note_on,0,0,1,,,,,,,,0,,,88,0
197976,note_on,0,0,1,,,,,,,,0,,,91,0
197976,note_on,0,0,1,,,,,,,,0,,,96,0
197976,note_on,96,0,4,,,,,,,,0,,,36,0
197976,note_on,0,0,4,,,,,,,,0,,,48,0
197976,note_on,96,0,1,,,,,,,,0,,,84,0
197988,set_tempo,52,1,0,,,,,,450857,,,,,,
198000,note_on,0,0,1,,,,,,,,0,,,82,124
198000,note_on,0,0,1,,,,,,,,0,,,85,124
198000,note_on,0,0,1,,,,,,,,0,,,94,124
198000,note_on,24,0,1,,,,,,,,0,,,89,124
198000,note_on,24,0,4,,,,,,,,0,,,43,124
198000,note_on,0,0,4,,,,,,,,0,,,31,124
198040,set_tempo,52,1,0,,,,,,448363,,,,,,
198096,note_on,0,0,1,,,,,,,,0,,,94,0
198096,note_on,0,0,1,,,,,,,,0,,,89,0
198096,note_on,96,0,1,,,,,,,,0,,,85,0
198096,note_on,0,0,1,,,,,,,,0,,,82,0
198096,note_on,96,0,4,,,,,,,,0,,,31,0
198096,note_on,0,0,4,,,,,,,,0,,,43,0
198097,set_tempo,57,1,0,,,,,,445898,,,,,,
198120,note_on,0,0,1,,,,,,,,0,,,84,123
198120,note_on,0,0,1,,,,,,,,0,,,79,123
198120,note_on,0,0,1,,,,,,,,0,,,88,123
198120,note_on,0,0,4,,,,,,,,0,,,48,123
198120,note_on,24,0,1,,,,,,,,0,,,91,123
198120,note_on,24,0,4,,,,,,,,0,,,36,123
198149,set_tempo,52,1,0,,,,,,443459,,,,,,
198202,set_tempo,53,1,0,,,,,,441047,,,,,,
198216,note_on,0,0,1,,,,,,,,0,,,91,0
198216,note_on,0,0,1,,,,,,,,0,,,84,0
198216,note_on,0,0,1,,,,,,,,0,,,79,0
198216,note_on,0,0,4,,,,,,,,0,,,36,0
198216,note_on,96,0,4,,,,,,,,0,,,48,0
198216,note_on,96,0,1,,,,,,,,0,,,88,0
198240,note_on,0,0,1,,,,,,,,0,,,80,121
198240,note_on,0,0,1,,,,,,,,0,,,86,121
198240,note_on,24,0,1,,,,,,,,0,,,89,121
198240,note_on,0,0,4,,,,,,,,0,,,29,121
198240,note_on,0,0,1,,,,,,,,0,,,77,121
198240,note_on,24,0,4,,,,,,,,0,,,41,121
198240,note_on,0,0,1,,,,,,,,0,,,83,121
198258,set_tempo,56,1,0,,,,,,438661,,,,,,
198311,set_tempo,53,1,0,,,,,,436300,,,,,,
198336,note_on,96,0,4,,,,,,,,0,,,29,0
198336,note_on,0,0,1,,,,,,,,0,,,89,0
198336,note_on,0,0,1,,,,,,,,0,,,86,0
198336,note_on,0,0,1,,,,,,,,0,,,80,0
198336,note_on,0,0,1,,,,,,,,0,,,83,0
198336,note_on,0,0,4,,,,,,,,0,,,41,0
198336,note_on,96,0,1,,,,,,,,0,,,77,0
198345,set_tempo,34,1,0,,,,,,443459,,,,,,
198360,note_on,0,0,4,,,,,,,,0,,,48,110
198360,note_on,24,0,4,,,,,,,,0,,,36,110
198360,note_on,24,0,1,,,,,,,,0,,,88,110
198360,note_on,0,0,1,,,,,,,,0,,,76,110
198360,note_on,0,0,1,,,,,,,,0,,,79,110
198360,note_on,0,0,1,,,,,,,,0,,,84,110
198398,set_tempo,53,1,0,,,,,,441047,,,,,,
198446,set_tempo,48,1,0,,,,,,438661,,,,,,
198456,note_on,0,0,1,,,,,,,,0,,,88,0
198456,note_on,0,0,1,,,,,,,,0,,,76,0
198456,note_on,0,0,1,,,,,,,,0,,,84,0
198456,note_on,96,0,4,,,,,,,,0,,,48,0
198456,note_on,96,0,1,,,,,,,,0,,,79,0
198456,note_on,0,0,4,,,,,,,,0,,,36,0
198480,note_on,0,0,1,,,,,,,,0,,,82,111
198480,note_on,0,0,1,,,,,,,,0,,,77,111
198480,note_on,24,0,4,,,,,,,,0,,,31,111
198480,note_on,24,0,1,,,,,,,,0,,,73,111
198480,note_on,0,0,4,,,,,,,,0,,,43,111
198480,note_on,0,0,1,,,,,,,,0,,,85,111
198498,set_tempo,52,1,0,,,,,,436300,,,,,,
198546,set_tempo,48,1,0,,,,,,433965,,,,,,
198576,note_on,96,0,1,,,,,,,,0,,,85,0
198576,note_on,0,0,4,,,,,,,,0,,,31,0
198576,note_on,0,0,1,,,,,,,,0,,,82,0
198576,note_on,96,0,4,,,,,,,,0,,,43,0
198576,note_on,0,0,1,,,,,,,,0,,,77,0
198576,note_on,0,0,1,,,,,,,,0,,,73,0
198594,set_tempo,48,1,0,,,,,,431655,,,,,,
198600,note_on,0,0,4,,,,,,,,0,,,48,112
198600,note_on,24,0,4,,,,,,,,0,,,36,112
198600,note_on,0,0,1,,,,,,,,0,,,76,112
198600,note_on,0,0,1,,,,,,,,0,,,79,112
198600,note_on,24,0,1,,,,,,,,0,,,84,112
198600,note_on,0,0,1,,,,,,,,0,,,72,112
198646,set_tempo,52,1,0,,,,,,429369,,,,,,
198694,set_tempo,48,1,0,,,,,,427107,,,,,,
198696,note_on,0,0,1,,,,,,,,0,,,84,0
198696,note_on,96,0,1,,,,,,,,0,,,76,0
198696,note_on,96,0,4,,,,,,,,0,,,48,0
198696,note_on,0,0,4,,,,,,,,0,,,36,0
198696,note_on,0,0,1,,,,,,,,0,,,79,0
198696,note_on,0,0,1,,,,,,,,0,,,72,0
198720,note_on,0,0,1,,,,,,,,0,,,73,113
198720,note_on,0,0,4,,,,,,,,0,,,31,113
198720,note_on,0,0,1,,,,,,,,0,,,82,113
198720,note_on,24,0,1,,,,,,,,0,,,70,113
198720,note_on,0,0,1,,,,,,,,0,,,77,113
198720,note_on,24,0,4,,,,,,,,0,,,43,113
198742,set_tempo,48,1,0,,,,,,424869,,,,,,
198795,set_tempo,53,1,0,,,,,,422654,,,,,,
198816,note_on,0,0,1,,,,,,,,0,,,77,0
198816,note_on,0,0,1,,,,,,,,0,,,70,0
198816,note_on,96,0,1,,,,,,,,0,,,73,0
198816,note_on,0,0,1,,,,,,,,0,,,82,0
198816,note_on,0,0,4,,,,,,,,0,,,43,0
198816,note_on,96,0,4,,,,,,,,0,,,31,0
198840,note_on,0,0,4,,,,,,,,0,,,36,114
198840,note_on,24,0,1,,,,,,,,0,,,79,114
198840,note_on,0,0,1,,,,,,,,0,,,67,114
198840,note_on,0,0,1,,,,,,,,0,,,72,114
198840,note_on,0,0,1,,,,,,,,0,,,76,114
198840,note_on,24,0,4,,,,,,,,0,,,48,114
198843,set_tempo,48,1,0,,,,,,420463,,,,,,
198891,set_tempo,48,1,0,,,,,,418293,,,,,,
198936,note_on,96,0,1,,,,,,,,0,,,67,0
198936,note_on,0,0,1,,,,,,,,0,,,72,0
198936,note_on,0,0,4,,,,,,,,0,,,48,0
198936,note_on,96,0,4,,,,,,,,0,,,36,0
198936,note_on,0,0,1,,,,,,,,0,,,76,0
198936,note_on,0,0,1,,,,,,,,0,,,79,0
198943,set_tempo,52,1,0,,,,,,416146,,,,,,
198960,note_on,0,0,1,,,,,,,,0,,,74,115
198960,note_on,0,0,1,,,,,,,,0,,,71,115
198960,note_on,24,0,4,,,,,,,,0,,,29,115
198960,note_on,0,0,1,,,,,,,,0,,,77,115
198960,note_on,24,0,1,,,,,,,,0,,,65,115
198960,note_on,0,0,1,,,,,,,,0,,,68,115
198960,note_on,0,0,4,,,,,,,,0,,,41,115
198991,set_tempo,48,1,0,,,,,,414022,,,,,,
199039,set_tempo,48,1,0,,,,,,411918,,,,,,
199056,note_on,0,0,1,,,,,,,,0,,,65,0
199056,note_on,0,0,1,,,,,,,,0,,,68,0
199056,note_on,0,0,1,,,,,,,,0,,,74,0
199056,note_on,0,0,1,,,,,,,,0,,,77,0
199056,note_on,96,0,4,,,,,,,,0,,,41,0
199056,note_on,96,0,1,,,,,,,,0,,,71,0
199056,note_on,0,0,4,,,,,,,,0,,,29,0
199080,note_on,0,0,1,,,,,,,,0,,,72,116
199080,note_on,0,0,1,,,,,,,,0,,,67,116
199080,note_on,0,0,4,,,,,,,,0,,,36,116
199080,note_on,0,0,1,,,,,,,,0,,,64,116
199080,note_on,24,0,1,,,,,,,,0,,,76,116
199080,note_on,24,0,4,,,,,,,,0,,,48,116
199091,set_tempo,52,1,0,,,,,,409836,,,,,,
199139,set_tempo,48,1,0,,,,,,407775,,,,,,
199176,note_on,0,0,1,,,,,,,,0,,,64,0
199176,note_on,0,0,1,,,,,,,,0,,,76,0
199176,note_on,0,0,1,,,,,,,,0,,,72,0
199176,note_on,96,0,4,,,,,,,,0,,,36,0
199176,note_on,0,0,4,,,,,,,,0,,,48,0
199176,note_on,96,0,1,,,,,,,,0,,,67,0
199187,set_tempo,48,1,0,,,,,,405734,,,,,,
199200,note_on,24,0,4,,,,,,,,0,,,31,117
199200,note_on,0,0,4,,,,,,,,0,,,43,117
199200,note_on,0,0,1,,,,,,,,0,,,73,117
199200,note_on,0,0,1,,,,,,,,0,,,70,117
199200,note_on,0,0,1,,,,,,,,0,,,65,117
199200,note_on,24,0,1,,,,,,,,0,,,61,117
199240,set_tempo,53,1,0,,,,,,403714,,,,,,
199288,set_tempo,48,1,0,,,,,,401714,,,,,,
199296,note_on,96,0,1,,,,,,,,0,,,73,0
199296,note_on,0,0,1,,,,,,,,0,,,70,0
199296,note_on,0,0,1,,,,,,,,0,,,65,0
199296,note_on,0,0,1,,,,,,,,0,,,61,0
199296,note_on,96,0,4,,,,,,,,0,,,43,0
199296,note_on,0,0,4,,,,,,,,0,,,31,0
199320,note_on,24,0,4,,,,,,,,0,,,36,118
199320,note_on,24,0,1,,,,,,,,0,,,72,118
199320,note_on,0,0,1,,,,,,,,0,,,67,118
199320,note_on,0,0,1,,,,,,,,0,,,64,118
199320,note_on,0,0,4,,,,,,,,0,,,48,118
199320,note_on,0,0,1,,,,,,,,0,,,60,118
199336,set_tempo,48,1,0,,,,,,399734,,,,,,
199388,set_tempo,52,1,0,,,,,,397772,,,,,,
199416,note_on,0,0,1,,,,,,,,0,,,60,0
199416,note_on,96,0,1,,,,,,,,0,,,64,0
199416,note_on,0,0,4,,,,,,,,0,,,36,0
199416,note_on,0,0,1,,,,,,,,0,,,67,0
199416,note_on,0,0,1,,,,,,,,0,,,72,0
199416,note_on,96,0,4,,,,,,,,0,,,48,0
199436,set_tempo,48,1,0,,,,,,395831,,,,,,
199440,note_on,24,0,4,,,,,,,,0,,,43,119
199440,note_on,0,0,1,,,,,,,,0,,,61,119
199440,note_on,0,0,1,,,,,,,,0,,,70,119
199440,note_on,24,0,1,,,,,,,,0,,,58,119
199440,note_on,0,0,4,,,,,,,,0,,,31,119
199440,note_on,0,0,1,,,,,,,,0,,,65,119
199484,set_tempo,48,1,0,,,,,,393908,,,,,,
199536,set_tempo,52,1,0,,,,,,392003,,,,,,
199536,note_on,0,0,4,,,,,,,,0,,,43,0
199536,note_on,96,0,1,,,,,,,,0,,,61,0
199536,note_on,96,0,4,,,,,,,,0,,,31,0
199536,note_on,0,0,1,,,,,,,,0,,,58,0
199536,note_on,0,0,1,,,,,,,,0,,,65,0
199536,note_on,0,0,1,,,,,,,,0,,,70,0
199560,note_on,24,0,4,,,,,,,,0,,,36,120
199560,note_on,24,0,1,,,,,,,,0,,,67,120
199560,note_on,0,0,4,,,,,,,,0,,,48,120
199560,note_on,0,0,1,,,,,,,,0,,,55,120
199560,note_on,0,0,1,,,,,,,,0,,,60,120
199560,note_on,0,0,1,,,,,,,,0,,,64,120
199584,set_tempo,48,1,0,,,,,,390117,,,,,,
199632,set_tempo,48,1,0,,,,,,388249,,,,,,
199656,note_on,0,0,1,,,,,,,,0,,,60,0
199656,note_on,0,0,1,,,,,,,,0,,,64,0
199656,note_on,96,0,4,,,,,,,,0,,,48,0
199656,note_on,0,0,4,,,,,,,,0,,,36,0
199656,note_on,96,0,1,,,,,,,,0,,,55,0
199656,note_on,0,0,1,,,,,,,,0,,,67,0
199680,note_on,0,0,1,,,,,,,,0,,,56,121
199680,note_on,0,0,1,,,,,,,,0,,,59,121
199680,note_on,0,0,1,,,,,,,,0,,,62,121
199680,note_on,0,0,1,,,,,,,,0,,,65,121
199680,note_on,0,0,4,,,,,,,,0,,,29,121
199680,note_on,24,0,4,,,,,,,,0,,,41,121
199680,note_on,24,0,1,,,,,,,,0,,,53,121
199685,set_tempo,53,1,0,,,,,,386399,,,,,,
199733,set_tempo,48,1,0,,,,,,384566,,,,,,
199776,note_on,0,0,4,,,,,,,,0,,,41,0
199776,note_on,96,0,1,,,,,,,,0,,,59,0
199776,note_on,96,0,4,,,,,,,,0,,,29,0
199776,note_on,0,0,1,,,,,,,,0,,,65,0
199776,note_on,0,0,1,,,,,,,,0,,,62,0
199776,note_on,0,0,1,,,,,,,,0,,,53,0
199776,note_on,0,0,1,,,,,,,,0,,,56,0
199781,set_tempo,48,1,0,,,,,,382751,,,,,,
199800,note_on,0,0,3,,,,,,,,0,,,52,122
199800,note_on,0,0,3,,,,,,,,0,,,55,122
199800,note_on,0,0,3,,,,,,,,0,,,60,122
199800,note_on,24,0,4,,,,,,,,0,,,48,122
199800,note_on,6492,0,3,,,,,,,,0,,,64,122
199800,note_on,0,0,4,,,,,,,,0,,,36,122
199816,control_change,16,0,4,,,,,,,,0,64,127,,
199896,note_on,0,0,3,,,,,,,,0,,,64,0
199896,note_on,0,0,4,,,,,,,,0,,,48,0
199896,note_on,0,0,3,,,,,,,,0,,,52,0
199896,note_on,0,0,3,,,,,,,,0,,,60,0
199896,note_on,80,0,4,,,,,,,,0,,,36,0
199896,note_on,96,0,3,,,,,,,,0,,,55,0
199920,note_on,0,0,3,,,,,,,,0,,,53,123
199920,note_on,0,0,3,,,,,,,,0,,,58,123
199920,note_on,24,0,3,,,,,,,,0,,,61,123
199920,note_on,0,0,4,,,,,,,,0,,,43,123
199920,note_on,24,0,4,,,,,,,,0,,,31,123
200016,note_on,96,0,3,,,,,,,,0,,,58,0
200016,note_on,0,0,3,,,,,,,,0,,,53,0
200016,note_on,96,0,4,,,,,,,,0,,,43,0
200016,note_on,0,0,3,,,,,,,,0,,,61,0
200016,note_on,0,0,4,,,,,,,,0,,,31,0
200040,note_on,0,0,3,,,,,,,,0,,,52,124
200040,note_on,24,0,4,,,,,,,,0,,,36,124
200040,note_on,0,0,3,,,,,,,,0,,,60,124
200040,note_on,24,0,3,,,,,,,,0,,,55,124
200040,note_on,0,0,4,,,,,,,,0,,,48,124
200136,note_on,0,0,3,,,,,,,,0,,,55,0
200136,note_on,0,0,3,,,,,,,,0,,,52,0
200136,note_on,0,0,4,,,,,,,,0,,,36,0
200136,note_on,96,0,3,,,,,,,,0,,,60,0
200136,note_on,96,0,4,,,,,,,,0,,,48,0
200160,note_on,24,0,4,,,,,,,,0,,,31,125
200160,note_on,0,0,3,,,,,,,,0,,,49,125
200160,note_on,0,0,4,,,,,,,,0,,,43,125
200160,note_on,24,0,3,,,,,,,,0,,,53,125
200160,note_on,0,0,3,,,,,,,,0,,,58,125
200256,note_on,0,0,3,,,,,,,,0,,,53,0
200256,note_on,96,0,3,,,,,,,,0,,,58,0
200256,note_on,0,0,4,,,,,,,,0,,,31,0
200256,note_on,96,0,4,,,,,,,,0,,,43,0
200256,note_on,0,0,3,,,,,,,,0,,,49,0
200272,control_change,16,0,4,,,,,,,,0,64,0,,
200280,note_on,0,0,3,,,,,,,,0,,,52,127
200280,note_on,24,0,3,,,,,,,,0,,,55,127
200280,note_on,8,0,4,,,,,,,,0,,,48,127
200280,note_on,0,0,4,,,,,,,,0,,,36,127
200376,note_on,96,0,4,,,,,,,,0,,,36,0
200376,note_on,0,0,4,,,,,,,,0,,,48,0
200376,note_on,0,0,3,,,,,,,,0,,,55,0
200376,note_on,96,0,3,,,,,,,,0,,,52,0
200396,set_tempo,615,1,0,,,,,,453378,,,,,,
200400,note_on,24,0,4,,,,,,,,0,,,38,127
200400,note_on,0,0,1,,,,,,,,0,,,50,127
200400,note_on,0,0,1,,,,,,,,0,,,47,127
200400,note_on,0,0,4,,,,,,,,0,,,29,127
200400,note_on,0,0,4,,,,,,,,0,,,35,127
200400,note_on,624,0,1,,,,,,,,0,,,53,127
200400,note_on,0,0,1,,,,,,,,0,,,44,127
200400,note_on,0,0,4,,,,,,,,0,,,41,127
200405,control_change,5,0,4,,,,,,,,0,64,127,,
200496,note_on,0,0,1,,,,,,,,0,,,47,0
200496,note_on,0,0,4,,,,,,,,0,,,41,0
200496,note_on,91,0,4,,,,,,,,0,,,35,0
200496,note_on,0,0,1,,,,,,,,0,,,50,0
200496,note_on,0,0,1,,,,,,,,0,,,53,0
200496,note_on,96,0,1,,,,,,,,0,,,44,0
200496,note_on,0,0,4,,,,,,,,0,,,29,0
200496,note_on,0,0,4,,,,,,,,0,,,38,0
200760,note_on,0,0,4,,,,,,,,0,,,29,127
200760,note_on,0,0,4,,,,,,,,0,,,38,127
200760,note_on,264,0,1,,,,,,,,0,,,47,127
200760,note_on,0,0,4,,,,,,,,0,,,41,127
200760,note_on,0,0,1,,,,,,,,0,,,50,127
200760,note_on,264,0,4,,,,,,,,0,,,35,127
200760,note_on,0,0,1,,,,,,,,0,,,44,127
200856,note_on,96,0,4,,,,,,,,0,,,38,0
200856,note_on,0,0,1,,,,,,,,0,,,44,0
200856,note_on,96,0,1,,,,,,,,0,,,50,0
200856,note_on,0,0,1,,,,,,,,0,,,47,0
200856,note_on,0,0,4,,,,,,,,0,,,35,0
200856,note_on,0,0,4,,,,,,,,0,,,41,0
200856,note_on,0,0,4,,,,,,,,0,,,29,0
201064,control_change,208,0,4,,,,,,,,0,64,0,,
201120,note_on,0,0,1,,,,,,,,0,,,44,127
201120,note_on,264,0,1,,,,,,,,0,,,47,127
201120,note_on,0,0,1,,,,,,,,0,,,41,127
201120,note_on,0,0,4,,,,,,,,0,,,35,127
201120,note_on,0,0,4,,,,,,,,0,,,38,127
201120,note_on,56,0,4,,,,,,,,0,,,29,127
201134,control_change,14,0,4,,,,,,,,0,64,127,,
201251,set_tempo,855,1,0,,,,,,407775,,,,,,
201320,note_on,0,0,4,,,,,,,,0,,,35,0
201320,note_on,186,0,4,,,,,,,,0,,,38,0
201320,note_on,0,0,4,,,,,,,,0,,,29,0
201336,note_on,0,0,1,,,,,,,,0,,,41,0
201336,note_on,216,0,1,,,,,,,,0,,,44,0
201336,note_on,0,0,1,,,,,,,,0,,,47,0
201360,note_on,984,0,3,,,,,,,,0,,,29,70
201360,set_tempo,109,1,0,,,,,,407775,,,,,,
201360,note_on,0,0,3,,,,,,,,0,,,32,70
201360,note_on,0,0,3,,,,,,,,0,,,35,70
201360,note_on,0,0,3,,,,,,,,0,,,38,70
201360,note_on,0,0,4,,,,,,,,0,,,32,127
201360,note_on,0,0,4,,,,,,,,0,,,35,127
201360,note_on,0,0,4,,,,,,,,0,,,38,127
201360,note_on,0,0,4,,,,,,,,0,,,41,127
201360,note_on,0,0,3,,,,,,,,0,,,41,70
201360,note_on,40,0,4,,,,,,,,0,,,29,127
201440,note_on,0,0,3,,,,,,,,0,,,38,0
201440,note_on,0,0,3,,,,,,,,0,,,29,0
201440,note_on,0,0,3,,,,,,,,0,,,32,0
201440,note_on,0,0,3,,,,,,,,0,,,41,0
201440,note_on,0,0,4,,,,,,,,0,,,38,0
201440,note_on,0,0,4,,,,,,,,0,,,41,0
201440,note_on,0,0,4,,,,,,,,0,,,35,0
201440,note_on,0,0,4,,,,,,,,0,,,29,0
201440,note_on,80,0,3,,,,,,,,0,,,35,0
201440,note_on,80,0,4,,,,,,,,0,,,32,0
201465,set_tempo,105,1,0,,,,,,441047,,,,,,
201469,set_tempo,4,1,0,,,,,,405734,,,,,,
201474,set_tempo,5,1,0,,,,,,441047,,,,,,
201480,note_on,0,0,4,,,,,,,,0,,,32,127
201480,note_on,0,0,4,,,,,,,,0,,,38,127
201480,note_on,0,0,4,,,,,,,,0,,,41,127
201480,note_on,0,0,4,,,,,,,,0,,,29,127
201480,note_on,40,0,4,,,,,,,,0,,,35,127
201480,note_on,0,0,3,,,,,,,,0,,,32,70
201480,note_on,0,0,3,,,,,,,,0,,,35,70
201480,note_on,0,0,3,,,,,,,,0,,,41,70
201480,note_on,0,0,3,,,,,,,,0,,,29,70
201480,note_on,40,0,3,,,,,,,,0,,,38,70
201560,note_on,80,0,3,,,,,,,,0,,,29,0
201560,note_on,0,0,4,,,,,,,,0,,,29,0
201560,note_on,0,0,4,,,,,,,,0,,,35,0
201560,note_on,0,0,4,,,,,,,,0,,,38,0
201560,note_on,0,0,4,,,,,,,,0,,,41,0
201560,note_on,0,0,3,,,,,,,,0,,,41,0
201560,note_on,0,0,3,,,,,,,,0,,,38,0
201560,note_on,0,0,3,,,,,,,,0,,,35,0
201560,note_on,80,0,4,,,,,,,,0,,,32,0
201560,note_on,0,0,3,,,,,,,,0,,,32,0
201614,control_change,54,0,4,,,,,,,,0,64,0,,
201954,set_tempo,480,1,0,,,,,,450857,,,,,,
202440,note_on,826,0,4,,,,,,,,0,,,24,127
202440,note_on,880,0,3,,,,,,,,0,,,24,60
202440,note_on,0,0,4,,,,,,,,0,,,36,127
202440,note_on,0,0,4,,,,,,,,0,,,31,127
202440,note_on,0,0,4,,,,,,,,0,,,28,127
202440,note_on,0,0,3,,,,,,,,0,,,28,60
202440,note_on,0,0,3,,,,,,,,0,,,31,60
202440,note_on,0,0,3,,,,,,,,0,,,36,60
202969,set_tempo,1015,1,0,,,,,,407775,,,,,,
203074,set_tempo,105,1,0,,,,,,441047,,,,,,
203078,set_tempo,4,1,0,,,,,,405734,,,,,,
203083,end_of_track,0,1,0,,,,,,,,,,,,
203083,set_tempo,5,1,0,,,,,,441047,,,,,,
203976,note_on,0,0,3,,,,,,,,0,,,36,0
203976,note_on,1536,0,3,,,,,,,,0,,,28,0
203976,note_on,1536,0,4,,,,,,,,0,,,31,0
203976,note_on,0,0,4,,,,,,,,0,,,24,0
203976,note_on,0,0,4,,,,,,,,0,,,28,0
203976,note_on,0,0,4,,,,,,,,0,,,36,0
203976,note_on,0,0,3,,,,,,,,0,,,24,0
203976,note_on,0,0,3,,,,,,,,0,,,31,0
203976,end_of_track,0,1,4,,,,,,,,,,,,
203976,end_of_track,0,1,3,,,,,,,,,,,,
204180,program_change,2844,0,1,,,,,,,0,0,,,,
204180,end_of_track,0,1,1,,,,,,,,,,,,
