tick,type,time,meta,track,numerator,denominator,clocks_per_click,notated_32nd_notes_per_beat,key,tempo,program,channel,control,value,note,velocity
0,control_change,0,0,1,,,,,,,,0,7,127,,
0,track_name,0,1,2,,,,,,,,,,,,
0,track_name,0,1,1,,,,,,,,,,,,
0,track_name,0,1,0,,,,,,,,,,,,
0,time_signature,0,1,0,4,4,24,8,,,,,,,,
0,set_tempo,0,1,0,,,,,,969305,,,,,,
0,program_change,0,0,4,,,,,,,0,0,,,,
0,program_change,0,0,3,,,,,,,0,0,,,,
0,program_change,0,0,2,,,,,,,0,0,,,,
0,program_change,0,0,1,,,,,,,0,0,,,,
0,track_name,0,1,3,,,,,,,,,,,,
0,key_signature,0,1,0,,,,,C,,,,,,,
0,track_name,0,1,4,,,,,,,,,,,,
0,control_change,0,0,1,,,,,,,,0,10,64,,
0,control_change,0,0,2,,,,,,,,0,7,127,,
0,control_change,0,0,3,,,,,,,,0,10,64,,
0,control_change,0,0,3,,,,,,,,0,7,127,,
0,control_change,0,0,2,,,,,,,,0,10,64,,
0,control_change,0,0,4,,,,,,,,0,7,127,,
0,control_change,0,0,4,,,,,,,,0,10,64,,
240,note_on,240,0,4,,,,,,,,0,,,32,80
240,note_on,0,0,4,,,,,,,,0,,,44,80
254,control_change,14,0,4,,,,,,,,0,64,127,,
432,note_on,0,0,4,,,,,,,,0,,,32,0
432,note_on,178,0,4,,,,,,,,0,,,44,0
480,note_on,0,0,4,,,,,,,,0,,,32,80
480,note_on,48,0,4,,,,,,,,0,,,44,80
672,note_on,0,0,4,,,,,,,,0,,,44,0
672,note_on,192,0,4,,,,,,,,0,,,32,0
720,note_on,48,0,4,,,,,,,,0,,,32,80
720,note_on,0,0,4,,,,,,,,0,,,44,80
912,note_on,0,0,4,,,,,,,,0,,,32,0
912,note_on,192,0,4,,,,,,,,0,,,44,0
930,note_on,930,0,3,,,,,,,,0,,,32,80
960,set_tempo,0,1,0,,,,,,954047,,,,,,
960,note_on,30,0,3,,,,,,,,0,,,44,80
960,control_change,48,0,4,,,,,,,,0,64,0,,
960,time_signature,960,1,0,9,8,12,8,,,,,,,,
1000,control_change,40,0,4,,,,,,,,0,64,127,,
1200,note_on,0,0,2,,,,,,,,0,,,64,80
1200,note_on,1200,0,2,,,,,,,,0,,,59,80
1200,note_on,0,0,2,,,,,,,,0,,,56,80
1296,note_on,0,0,2,,,,,,,,0,,,64,0
1296,note_on,0,0,2,,,,,,,,0,,,59,0
1296,note_on,96,0,2,,,,,,,,0,,,56,0
1320,note_on,0,0,2,,,,,,,,0,,,61,80
1320,note_on,24,0,2,,,,,,,,0,,,57,80
1416,note_on,0,0,2,,,,,,,,0,,,57,0
1416,note_on,96,0,2,,,,,,,,0,,,61,0
1440,note_on,0,0,2,,,,,,,,0,,,52,80
1440,note_on,0,0,2,,,,,,,,0,,,59,80
1440,note_on,24,0,2,,,,,,,,0,,,56,80
1480,control_change,480,0,4,,,,,,,,0,64,0,,
1525,control_change,45,0,4,,,,,,,,0,64,127,,
1536,note_on,0,0,2,,,,,,,,0,,,52,0
1536,note_on,0,0,2,,,,,,,,0,,,56,0
1536,note_on,96,0,2,,,,,,,,0,,,59,0
1560,note_on,0,0,2,,,,,,,,0,,,57,80
1560,note_on,24,0,2,,,,,,,,0,,,61,80
1656,note_on,0,0,2,,,,,,,,0,,,61,0
1656,note_on,96,0,2,,,,,,,,0,,,57,0
1680,set_tempo,720,1,0,,,,,,969305,,,,,,
1680,note_on,0,0,2,,,,,,,,0,,,64,80
1680,note_on,0,0,2,,,,,,,,0,,,56,80
1680,note_on,24,0,2,,,,,,,,0,,,59,80
1701,set_tempo,21,1,0,,,,,,985060,,,,,,
1719,set_tempo,18,1,0,,,,,,1001335,,,,,,
1736,set_tempo,17,1,0,,,,,,1018157,,,,,,
1758,set_tempo,22,1,0,,,,,,1035554,,,,,,
1776,note_on,0,0,2,,,,,,,,0,,,56,0
1776,set_tempo,18,1,0,,,,,,1053556,,,,,,
1776,note_on,0,0,2,,,,,,,,0,,,59,0
1776,note_on,96,0,2,,,,,,,,0,,,64,0
1793,set_tempo,17,1,0,,,,,,1072194,,,,,,
1800,note_on,0,0,2,,,,,,,,0,,,61,80
1800,note_on,24,0,2,,,,,,,,0,,,57,80
1815,set_tempo,22,1,0,,,,,,1091504,,,,,,
1832,set_tempo,17,1,0,,,,,,1111523,,,,,,
1850,set_tempo,18,1,0,,,,,,1132289,,,,,,
1867,set_tempo,17,1,0,,,,,,1153846,,,,,,
1876,set_tempo,9,1,0,,,,,,1176240,,,,,,
1896,note_on,96,0,2,,,,,,,,0,,,61,0
1896,note_on,0,0,2,,,,,,,,0,,,57,0
1920,note_on,0,0,2,,,,,,,,0,,,69,80
1920,note_on,0,0,2,,,,,,,,0,,,64,80
1920,note_on,24,0,2,,,,,,,,0,,,61,80
1959,set_tempo,83,1,0,,,,,,1153846,,,,,,
2016,note_on,0,0,2,,,,,,,,0,,,61,0
2016,note_on,0,0,2,,,,,,,,0,,,69,0
2016,note_on,96,0,2,,,,,,,,0,,,64,0
2037,set_tempo,78,1,0,,,,,,1132289,,,,,,
2040,note_on,24,0,2,,,,,,,,0,,,66,80
2040,time_signature,3,1,0,4,4,24,8,,,,,,,,
2040,note_on,0,0,2,,,,,,,,0,,,62,80
2040,control_change,515,0,4,,,,,,,,0,64,0,,
2042,set_tempo,2,1,0,,,,,,954047,,,,,,
2062,control_change,22,0,4,,,,,,,,0,64,127,,
2232,note_on,0,0,2,,,,,,,,0,,,66,0
2232,note_on,1272,0,3,,,,,,,,0,,,44,0
2232,note_on,192,0,2,,,,,,,,0,,,62,0
2232,note_on,0,0,3,,,,,,,,0,,,32,0
2280,note_on,218,0,4,,,,,,,,0,,,44,80
2280,note_on,0,0,4,,,,,,,,0,,,32,80
2472,note_on,192,0,4,,,,,,,,0,,,32,0
2472,note_on,0,0,4,,,,,,,,0,,,44,0
2520,note_on,0,0,4,,,,,,,,0,,,44,80
2520,note_on,48,0,4,,,,,,,,0,,,32,80
2712,note_on,0,0,4,,,,,,,,0,,,32,0
2712,note_on,192,0,4,,,,,,,,0,,,44,0
2760,note_on,0,0,4,,,,,,,,0,,,32,80
2760,note_on,48,0,4,,,,,,,,0,,,44,80
2952,note_on,192,0,4,,,,,,,,0,,,32,0
2952,note_on,0,0,4,,,,,,,,0,,,44,0
2970,note_on,738,0,3,,,,,,,,0,,,32,80
3000,note_on,30,0,3,,,,,,,,0,,,44,80
3000,control_change,48,0,4,,,,,,,,0,64,0,,
3000,time_signature,958,1,0,9,8,12,8,,,,,,,,
3168,control_change,168,0,4,,,,,,,,0,64,127,,
3240,note_on,3240,0,1,,,,,,,,0,,,64,80
3240,note_on,0,0,1,,,,,,,,0,,,69,80
3240,note_on,0,0,1,,,,,,,,0,,,61,80
3336,note_on,0,0,1,,,,,,,,0,,,69,0
3336,note_on,0,0,1,,,,,,,,0,,,64,0
3336,note_on,96,0,1,,,,,,,,0,,,61,0
3360,note_on,24,0,1,,,,,,,,0,,,62,80
3360,note_on,0,0,1,,,,,,,,0,,,66,80
3456,note_on,0,0,1,,,,,,,,0,,,62,0
3456,note_on,96,0,1,,,,,,,,0,,,66,0
3472,control_change,304,0,4,,,,,,,,0,64,0,,
3480,note_on,0,0,1,,,,,,,,0,,,61,80
3480,note_on,0,0,1,,,,,,,,0,,,64,80
3480,note_on,24,0,1,,,,,,,,0,,,57,80
3501,control_change,29,0,4,,,,,,,,0,64,127,,
3576,note_on,0,0,1,,,,,,,,0,,,57,0
3576,note_on,0,0,1,,,,,,,,0,,,64,0
3576,note_on,96,0,1,,,,,,,,0,,,61,0
3600,note_on,24,0,1,,,,,,,,0,,,66,80
3600,note_on,0,0,1,,,,,,,,0,,,62,80
3696,note_on,96,0,1,,,,,,,,0,,,62,0
3696,note_on,0,0,1,,,,,,,,0,,,66,0
3720,note_on,24,0,1,,,,,,,,0,,,64,80
3720,note_on,0,0,1,,,,,,,,0,,,69,80
3720,note_on,0,0,1,,,,,,,,0,,,61,80
3735,set_tempo,735,1,0,,,,,,939261,,,,,,
3761,set_tempo,26,1,0,,,,,,954047,,,,,,
3783,set_tempo,22,1,0,,,,,,969305,,,,,,
3809,set_tempo,26,1,0,,,,,,985060,,,,,,
3816,note_on,96,0,1,,,,,,,,0,,,61,0
3816,note_on,0,0,1,,,,,,,,0,,,69,0
3816,note_on,0,0,1,,,,,,,,0,,,64,0
3831,set_tempo,22,1,0,,,,,,1001335,,,,,,
3840,note_on,24,0,1,,,,,,,,0,,,62,80
3840,note_on,0,0,1,,,,,,,,0,,,66,80
3857,set_tempo,26,1,0,,,,,,1018157,,,,,,
3879,set_tempo,22,1,0,,,,,,1035554,,,,,,
3905,set_tempo,26,1,0,,,,,,1053556,,,,,,
3927,set_tempo,22,1,0,,,,,,1072194,,,,,,
3936,note_on,0,0,1,,,,,,,,0,,,62,0
3936,note_on,96,0,1,,,,,,,,0,,,66,0
3953,set_tempo,26,1,0,,,,,,1091504,,,,,,
3960,note_on,24,0,1,,,,,,,,0,,,66,80
3960,note_on,0,0,1,,,,,,,,0,,,69,80
3960,note_on,0,0,1,,,,,,,,0,,,74,80
3975,set_tempo,22,1,0,,,,,,1111523,,,,,,
4001,set_tempo,26,1,0,,,,,,1132289,,,,,,
4023,set_tempo,22,1,0,,,,,,1153846,,,,,,
4049,set_tempo,26,1,0,,,,,,1176240,,,,,,
4056,note_on,96,0,1,,,,,,,,0,,,74,0
4056,note_on,0,0,1,,,,,,,,0,,,69,0
4056,note_on,0,0,1,,,,,,,,0,,,66,0
4071,set_tempo,22,1,0,,,,,,1199520,,,,,,
4080,note_on,0,0,1,,,,,,,,0,,,66,80
4080,note_on,24,0,1,,,,,,,,0,,,63,80
4080,control_change,579,0,4,,,,,,,,0,64,0,,
4080,set_tempo,0,1,0,,,,,,939261,,,,,,
4080,note_on,0,0,1,,,,,,,,0,,,69,80
4080,note_on,0,0,1,,,,,,,,0,,,72,80
4080,time_signature,9,1,0,4,4,24,8,,,,,,,,
4112,control_change,32,0,4,,,,,,,,0,64,127,,
4132,set_tempo,52,1,0,,,,,,954047,,,,,,
4184,set_tempo,52,1,0,,,,,,969305,,,,,,
4232,set_tempo,48,1,0,,,,,,985060,,,,,,
4241,set_tempo,9,1,0,,,,,,969305,,,,,,
4272,note_on,0,0,3,,,,,,,,0,,,32,0
4272,note_on,1272,0,3,,,,,,,,0,,,44,0
4320,note_on,0,0,3,,,,,,,,0,,,44,80
4320,note_on,48,0,3,,,,,,,,0,,,32,80
4464,note_on,0,0,1,,,,,,,,0,,,69,0
4464,note_on,0,0,1,,,,,,,,0,,,63,0
4464,note_on,0,0,1,,,,,,,,0,,,66,0
4464,note_on,384,0,1,,,,,,,,0,,,72,0
4556,control_change,444,0,4,,,,,,,,0,64,0,,
4560,note_on,0,0,1,,,,,,,,0,,,61,80
4560,note_on,96,0,1,,,,,,,,0,,,69,80
4560,note_on,0,0,1,,,,,,,,0,,,73,80
4560,note_on,0,0,1,,,,,,,,0,,,66,80
4576,control_change,20,0,4,,,,,,,,0,64,127,,
4752,note_on,432,0,3,,,,,,,,0,,,44,0
4752,note_on,0,0,3,,,,,,,,0,,,32,0
4800,note_on,0,0,3,,,,,,,,0,,,32,80
4800,note_on,48,0,3,,,,,,,,0,,,44,80
4944,note_on,0,0,1,,,,,,,,0,,,69,0
4944,note_on,384,0,1,,,,,,,,0,,,73,0
4944,note_on,0,0,1,,,,,,,,0,,,61,0
4944,note_on,0,0,1,,,,,,,,0,,,66,0
4980,note_on,2748,0,2,,,,,,,,0,,,60,80
5000,note_on,20,0,2,,,,,,,,0,,,66,80
5020,note_on,20,0,2,,,,,,,,0,,,69,80
5040,note_on,20,0,2,,,,,,,,0,,,75,80
5040,control_change,464,0,4,,,,,,,,0,64,0,,
5060,control_change,20,0,4,,,,,,,,0,64,127,,
5232,note_on,192,0,2,,,,,,,,0,,,75,0
5232,note_on,0,0,2,,,,,,,,0,,,60,0
5232,note_on,432,0,3,,,,,,,,0,,,32,0
5232,note_on,0,0,2,,,,,,,,0,,,66,0
5232,note_on,0,0,2,,,,,,,,0,,,69,0
5232,note_on,0,0,3,,,,,,,,0,,,44,0
5280,note_on,0,0,3,,,,,,,,0,,,32,80
5280,note_on,48,0,3,,,,,,,,0,,,44,80
5472,note_on,192,0,3,,,,,,,,0,,,32,0
5472,note_on,0,0,3,,,,,,,,0,,,44,0
5520,note_on,48,0,3,,,,,,,,0,,,44,80
5520,note_on,0,0,3,,,,,,,,0,,,32,80
5520,control_change,460,0,4,,,,,,,,0,64,0,,
5529,control_change,9,0,4,,,,,,,,0,64,127,,
5712,note_on,0,0,3,,,,,,,,0,,,44,0
5712,note_on,192,0,3,,,,,,,,0,,,32,0
5760,note_on,48,0,3,,,,,,,,0,,,44,80
5760,note_on,0,0,3,,,,,,,,0,,,32,80
5940,note_on,708,0,2,,,,,,,,0,,,60,80
5960,note_on,20,0,2,,,,,,,,0,,,66,80
5980,note_on,20,0,2,,,,,,,,0,,,68,80
6000,note_on,20,0,2,,,,,,,,0,,,76,80
6000,control_change,471,0,4,,,,,,,,0,64,0,,
6066,control_change,66,0,4,,,,,,,,0,64,127,,
6192,note_on,432,0,3,,,,,,,,0,,,32,0
6192,note_on,0,0,3,,,,,,,,0,,,44,0
6240,note_on,48,0,3,,,,,,,,0,,,32,80
6240,note_on,0,0,3,,,,,,,,0,,,44,80
6384,note_on,384,0,2,,,,,,,,0,,,76,0
6404,note_on,20,0,2,,,,,,,,0,,,68,0
6424,note_on,20,0,2,,,,,,,,0,,,66,0
6432,note_on,0,0,3,,,,,,,,0,,,32,0
6432,note_on,192,0,3,,,,,,,,0,,,44,0
6444,note_on,20,0,2,,,,,,,,0,,,60,0
6480,note_on,0,0,3,,,,,,,,0,,,44,80
6480,note_on,48,0,3,,,,,,,,0,,,32,80
6672,note_on,0,0,3,,,,,,,,0,,,32,0
6672,note_on,192,0,3,,,,,,,,0,,,44,0
6720,note_on,0,0,3,,,,,,,,0,,,44,80
6720,note_on,48,0,3,,,,,,,,0,,,32,80
6944,set_tempo,2703,1,0,,,,,,985060,,,,,,
6960,time_signature,16,1,0,2,4,24,8,,,,,,,,
6960,control_change,894,0,4,,,,,,,,0,64,0,,
7200,note_on,756,0,2,,,,,,,,0,,,56,80
7344,note_on,0,0,3,,,,,,,,0,,,32,0
7344,note_on,624,0,3,,,,,,,,0,,,44,0
7355,control_change,395,0,4,,,,,,,,0,64,127,,
7392,note_on,192,0,2,,,,,,,,0,,,56,0
7437,set_tempo,477,1,0,,,,,,1001335,,,,,,
7440,note_on,96,0,3,,,,,,,,0,,,56,80
7440,note_on,0,0,3,,,,,,,,0,,,49,80
7440,time_signature,3,1,0,4,4,24,8,,,,,,,,
7440,note_on,0,0,3,,,,,,,,0,,,65,80
7472,set_tempo,32,1,0,,,,,,985060,,,,,,
7503,set_tempo,31,1,0,,,,,,969305,,,,,,
7533,set_tempo,30,1,0,,,,,,954047,,,,,,
7536,note_on,0,0,3,,,,,,,,0,,,49,0
7536,note_on,0,0,3,,,,,,,,0,,,56,0
7536,note_on,96,0,3,,,,,,,,0,,,65,0
7560,note_on,0,0,3,,,,,,,,0,,,53,80
7560,note_on,0,0,3,,,,,,,,0,,,61,80
7560,note_on,24,0,3,,,,,,,,0,,,56,80
7568,set_tempo,35,1,0,,,,,,939261,,,,,,
7599,set_tempo,31,1,0,,,,,,924927,,,,,,
7629,set_tempo,30,1,0,,,,,,911023,,,,,,
7656,note_on,0,0,3,,,,,,,,0,,,53,0
7656,note_on,0,0,3,,,,,,,,0,,,56,0
7656,note_on,96,0,3,,,,,,,,0,,,61,0
7660,set_tempo,31,1,0,,,,,,897532,,,,,,
7680,note_on,24,0,3,,,,,,,,0,,,56,80
7680,note_on,0,0,3,,,,,,,,0,,,53,80
7680,note_on,0,0,4,,,,,,,,0,,,44,80
7680,note_on,325,0,4,,,,,,,,0,,,37,80
7680,control_change,0,0,4,,,,,,,,0,64,0,,
7695,set_tempo,35,1,0,,,,,,884434,,,,,,
7702,control_change,22,0,4,,,,,,,,0,64,127,,
7725,set_tempo,30,1,0,,,,,,871713,,,,,,
7756,set_tempo,31,1,0,,,,,,859353,,,,,,
7776,note_on,0,0,3,,,,,,,,0,,,56,0
7776,note_on,96,0,3,,,,,,,,0,,,53,0
7786,set_tempo,30,1,0,,,,,,847338,,,,,,
7800,note_on,24,0,3,,,,,,,,0,,,49,80
7800,note_on,0,0,3,,,,,,,,0,,,53,80
7821,set_tempo,35,1,0,,,,,,835655,,,,,,
7852,set_tempo,31,1,0,,,,,,824289,,,,,,
7872,note_on,0,0,4,,,,,,,,0,,,37,0
7872,note_on,170,0,4,,,,,,,,0,,,44,0
7882,set_tempo,30,1,0,,,,,,813229,,,,,,
7896,note_on,0,0,3,,,,,,,,0,,,49,0
7896,note_on,96,0,3,,,,,,,,0,,,53,0
7904,set_tempo,22,1,0,,,,,,802461,,,,,,
7920,note_on,48,0,4,,,,,,,,0,,,37,80
7920,note_on,0,0,3,,,,,,,,0,,,48,80
7920,control_change,0,0,4,,,,,,,,0,64,0,,
7920,note_on,0,0,3,,,,,,,,0,,,51,80
7920,note_on,24,0,3,,,,,,,,0,,,49,80
7920,note_on,0,0,4,,,,,,,,0,,,44,80
7945,control_change,25,0,4,,,,,,,,0,64,127,,
8016,note_on,0,0,3,,,,,,,,0,,,49,0
8016,note_on,96,0,3,,,,,,,,0,,,48,0
8016,note_on,0,0,3,,,,,,,,0,,,51,0
8040,note_on,0,0,3,,,,,,,,0,,,53,80
8040,note_on,24,0,3,,,,,,,,0,,,47,80
8040,note_on,0,0,3,,,,,,,,0,,,49,80
8112,note_on,0,0,4,,,,,,,,0,,,37,0
8112,note_on,167,0,4,,,,,,,,0,,,44,0
8136,note_on,0,0,3,,,,,,,,0,,,47,0
8136,note_on,96,0,3,,,,,,,,0,,,49,0
8136,note_on,0,0,3,,,,,,,,0,,,53,0
8160,note_on,48,0,4,,,,,,,,0,,,37,80
8160,note_on,0,0,3,,,,,,,,0,,,54,80
8160,note_on,0,0,3,,,,,,,,0,,,49,80
8160,note_on,0,0,4,,,,,,,,0,,,44,80
8160,note_on,24,0,3,,,,,,,,0,,,46,80
8160,control_change,0,0,4,,,,,,,,0,64,0,,
8179,control_change,19,0,4,,,,,,,,0,64,127,,
8256,note_on,0,0,3,,,,,,,,0,,,46,0
8256,note_on,96,0,3,,,,,,,,0,,,49,0
8256,note_on,0,0,3,,,,,,,,0,,,54,0
8280,note_on,0,0,3,,,,,,,,0,,,49,80
8280,note_on,0,0,3,,,,,,,,0,,,52,80
8280,note_on,0,0,3,,,,,,,,0,,,55,80
8280,note_on,24,0,3,,,,,,,,0,,,45,80
8328,note_on,0,0,4,,,,,,,,0,,,37,0
8328,note_on,149,0,4,,,,,,,,0,,,44,0
8370,note_on,42,0,4,,,,,,,,0,,,37,80
8376,note_on,96,0,3,,,,,,,,0,,,52,0
8376,note_on,0,0,3,,,,,,,,0,,,49,0
8376,note_on,0,0,3,,,,,,,,0,,,45,0
8376,note_on,0,0,3,,,,,,,,0,,,55,0
8400,control_change,0,0,4,,,,,,,,0,64,0,,
8400,note_on,24,0,3,,,,,,,,0,,,53,80
8400,note_on,0,0,3,,,,,,,,0,,,49,80
8400,note_on,0,0,3,,,,,,,,0,,,44,80
8400,note_on,0,0,3,,,,,,,,0,,,56,80
8400,note_on,30,0,4,,,,,,,,0,,,44,80
8425,control_change,25,0,4,,,,,,,,0,64,127,,
8496,note_on,0,0,3,,,,,,,,0,,,53,0
8496,note_on,96,0,3,,,,,,,,0,,,56,0
8496,note_on,0,0,3,,,,,,,,0,,,44,0
8496,note_on,0,0,3,,,,,,,,0,,,49,0
8520,note_on,0,0,3,,,,,,,,0,,,55,80
8520,note_on,0,0,3,,,,,,,,0,,,49,80
8520,note_on,24,0,3,,,,,,,,0,,,52,80
8520,note_on,0,0,3,,,,,,,,0,,,58,80
8616,note_on,96,0,3,,,,,,,,0,,,55,0
8616,note_on,0,0,3,,,,,,,,0,,,52,0
8616,note_on,0,0,3,,,,,,,,0,,,58,0
8616,note_on,0,0,3,,,,,,,,0,,,49,0
8640,note_on,0,0,1,,,,,,,,0,,,80,80
8640,note_on,0,0,3,,,,,,,,0,,,51,80
8640,note_on,24,0,3,,,,,,,,0,,,56,80
8640,note_on,3696,0,1,,,,,,,,0,,,68,80
8640,note_on,0,0,3,,,,,,,,0,,,54,80
8640,note_on,0,0,3,,,,,,,,0,,,60,80
8640,control_change,215,0,4,,,,,,,,0,64,0,,
8665,control_change,25,0,4,,,,,,,,0,64,127,,
8736,note_on,96,0,3,,,,,,,,0,,,60,0
8736,note_on,0,0,3,,,,,,,,0,,,54,0
8736,note_on,0,0,3,,,,,,,,0,,,56,0
8736,note_on,0,0,3,,,,,,,,0,,,51,0
8760,note_on,24,0,3,,,,,,,,0,,,61,80
8760,note_on,0,0,3,,,,,,,,0,,,53,80
8760,note_on,0,0,3,,,,,,,,0,,,56,80
8832,note_on,192,0,1,,,,,,,,0,,,80,0
8832,note_on,0,0,1,,,,,,,,0,,,68,0
8856,note_on,96,0,3,,,,,,,,0,,,56,0
8856,note_on,0,0,3,,,,,,,,0,,,61,0
8856,note_on,0,0,3,,,,,,,,0,,,53,0
8869,set_tempo,965,1,0,,,,,,791975,,,,,,
8880,note_on,0,0,3,,,,,,,,0,,,60,80
8880,note_on,0,0,3,,,,,,,,0,,,54,80
8880,note_on,0,0,3,,,,,,,,0,,,63,80
8880,note_on,48,0,1,,,,,,,,0,,,80,80
8880,note_on,0,0,1,,,,,,,,0,,,68,80
8880,note_on,24,0,3,,,,,,,,0,,,56,80
8883,control_change,218,0,4,,,,,,,,0,64,0,,
8896,control_change,13,0,4,,,,,,,,0,64,127,,
8900,set_tempo,31,1,0,,,,,,802461,,,,,,
8931,set_tempo,31,1,0,,,,,,813229,,,,,,
8961,set_tempo,30,1,0,,,,,,824289,,,,,,
8976,note_on,0,0,3,,,,,,,,0,,,60,0
8976,note_on,0,0,3,,,,,,,,0,,,63,0
8976,note_on,96,0,3,,,,,,,,0,,,54,0
8976,note_on,0,0,3,,,,,,,,0,,,56,0
8992,set_tempo,31,1,0,,,,,,835655,,,,,,
9000,note_on,24,0,3,,,,,,,,0,,,61,80
9000,note_on,0,0,3,,,,,,,,0,,,53,80
9000,note_on,0,0,3,,,,,,,,0,,,65,80
9000,note_on,0,0,3,,,,,,,,0,,,56,80
9022,set_tempo,30,1,0,,,,,,847338,,,,,,
9053,set_tempo,31,1,0,,,,,,859353,,,,,,
9072,note_on,192,0,1,,,,,,,,0,,,68,0
9072,note_on,0,0,1,,,,,,,,0,,,80,0
9083,set_tempo,30,1,0,,,,,,871713,,,,,,
9084,note_on,0,0,3,,,,,,,,0,,,61,0
9084,note_on,0,0,3,,,,,,,,0,,,56,0
9084,note_on,0,0,3,,,,,,,,0,,,53,0
9084,note_on,84,0,3,,,,,,,,0,,,65,0
9105,note_on,21,0,3,,,,,,,,0,,,51,80
9109,set_tempo,26,1,0,,,,,,884434,,,,,,
9120,note_on,15,0,3,,,,,,,,0,,,60,80
9120,note_on,0,0,3,,,,,,,,0,,,56,80
9120,note_on,0,0,1,,,,,,,,0,,,68,80
9120,note_on,48,0,1,,,,,,,,0,,,80,80
9120,note_on,0,0,3,,,,,,,,0,,,66,80
9123,control_change,227,0,4,,,,,,,,0,64,0,,
9136,control_change,13,0,4,,,,,,,,0,64,127,,
9140,set_tempo,31,1,0,,,,,,897532,,,,,,
9168,note_on,0,0,4,,,,,,,,0,,,37,0
9168,note_on,32,0,4,,,,,,,,0,,,44,0
9171,set_tempo,31,1,0,,,,,,911023,,,,,,
9201,set_tempo,30,1,0,,,,,,924927,,,,,,
9216,note_on,0,0,3,,,,,,,,0,,,56,0
9216,note_on,0,0,3,,,,,,,,0,,,60,0
9216,note_on,0,0,3,,,,,,,,0,,,51,0
9216,note_on,96,0,3,,,,,,,,0,,,66,0
9232,set_tempo,31,1,0,,,,,,939261,,,,,,
9240,note_on,24,0,3,,,,,,,,0,,,54,80
9240,note_on,0,0,3,,,,,,,,0,,,60,80
9240,note_on,0,0,3,,,,,,,,0,,,56,80
9240,note_on,0,0,3,,,,,,,,0,,,63,80
9262,set_tempo,30,1,0,,,,,,954047,,,,,,
9288,note_on,0,0,1,,,,,,,,0,,,80,0
9288,note_on,168,0,1,,,,,,,,0,,,68,0
9293,set_tempo,31,1,0,,,,,,969305,,,,,,
9323,set_tempo,30,1,0,,,,,,985060,,,,,,
9324,note_on,84,0,3,,,,,,,,0,,,60,0
9324,note_on,0,0,3,,,,,,,,0,,,54,0
9324,note_on,0,0,3,,,,,,,,0,,,63,0
9324,note_on,0,0,3,,,,,,,,0,,,56,0
9330,note_on,42,0,1,,,,,,,,0,,,77,80
9345,note_on,21,0,3,,,,,,,,0,,,49,80
9349,set_tempo,26,1,0,,,,,,1001335,,,,,,
9354,set_tempo,5,1,0,,,,,,1001335,,,,,,
9360,note_on,30,0,1,,,,,,,,0,,,92,80
9360,control_change,192,0,4,,,,,,,,0,64,0,,
9360,note_on,0,0,3,,,,,,,,0,,,56,80
9360,note_on,15,0,3,,,,,,,,0,,,65,80
9379,control_change,19,0,4,,,,,,,,0,64,127,,
9393,set_tempo,39,1,0,,,,,,985060,,,,,,
9432,set_tempo,39,1,0,,,,,,969305,,,,,,
9456,note_on,0,0,1,,,,,,,,0,,,77,0
9456,note_on,96,0,1,,,,,,,,0,,,92,0
9456,note_on,0,0,3,,,,,,,,0,,,65,0
9456,note_on,96,0,3,,,,,,,,0,,,56,0
9456,note_on,0,0,3,,,,,,,,0,,,49,0
9467,set_tempo,35,1,0,,,,,,954047,,,,,,
9480,note_on,0,0,3,,,,,,,,0,,,53,80
9480,note_on,0,0,3,,,,,,,,0,,,61,80
9480,note_on,24,0,3,,,,,,,,0,,,56,80
9507,set_tempo,40,1,0,,,,,,939261,,,,,,
9541,set_tempo,34,1,0,,,,,,924927,,,,,,
9576,note_on,0,0,3,,,,,,,,0,,,61,0
9576,note_on,96,0,3,,,,,,,,0,,,53,0
9576,note_on,0,0,3,,,,,,,,0,,,56,0
9581,set_tempo,40,1,0,,,,,,911023,,,,,,
9600,note_on,0,0,3,,,,,,,,0,,,53,80
9600,note_on,0,0,4,,,,,,,,0,,,44,80
9600,note_on,24,0,3,,,,,,,,0,,,56,80
9600,control_change,0,0,4,,,,,,,,0,64,0,,
9600,note_on,221,0,4,,,,,,,,0,,,37,80
9616,set_tempo,35,1,0,,,,,,897532,,,,,,
9622,control_change,22,0,4,,,,,,,,0,64,127,,
9655,set_tempo,39,1,0,,,,,,884434,,,,,,
9690,set_tempo,35,1,0,,,,,,871713,,,,,,
9696,note_on,0,0,3,,,,,,,,0,,,56,0
9696,note_on,96,0,3,,,,,,,,0,,,53,0
9720,note_on,0,0,3,,,,,,,,0,,,53,80
9720,note_on,24,0,3,,,,,,,,0,,,49,80
9729,set_tempo,39,1,0,,,,,,859353,,,,,,
9764,set_tempo,35,1,0,,,,,,847338,,,,,,
9792,note_on,0,0,4,,,,,,,,0,,,37,0
9792,note_on,170,0,4,,,,,,,,0,,,44,0
9803,set_tempo,39,1,0,,,,,,835655,,,,,,
9816,note_on,0,0,3,,,,,,,,0,,,49,0
9816,note_on,96,0,3,,,,,,,,0,,,53,0
9838,set_tempo,35,1,0,,,,,,824289,,,,,,
9840,note_on,0,0,3,,,,,,,,0,,,48,80
9840,note_on,0,0,3,,,,,,,,0,,,49,80
9840,note_on,48,0,4,,,,,,,,0,,,37,80
9840,note_on,24,0,3,,,,,,,,0,,,51,80
9840,note_on,0,0,4,,,,,,,,0,,,44,80
9845,control_change,5,0,4,,,,,,,,0,64,0,,
9870,control_change,25,0,4,,,,,,,,0,64,127,,
9936,note_on,0,0,3,,,,,,,,0,,,48,0
9936,note_on,0,0,3,,,,,,,,0,,,51,0
9936,note_on,96,0,3,,,,,,,,0,,,49,0
9960,note_on,0,0,3,,,,,,,,0,,,47,80
9960,note_on,0,0,3,,,,,,,,0,,,53,80
9960,note_on,24,0,3,,,,,,,,0,,,49,80
10032,note_on,162,0,4,,,,,,,,0,,,44,0
10032,note_on,0,0,4,,,,,,,,0,,,37,0
10056,note_on,0,0,3,,,,,,,,0,,,53,0
10056,note_on,96,0,3,,,,,,,,0,,,47,0
10056,note_on,0,0,3,,,,,,,,0,,,49,0
10080,control_change,48,0,4,,,,,,,,0,64,0,,
10080,note_on,0,0,4,,,,,,,,0,,,37,80
10080,note_on,0,0,4,,,,,,,,0,,,44,80
10080,note_on,0,0,3,,,,,,,,0,,,49,80
10080,note_on,24,0,3,,,,,,,,0,,,46,80
10080,note_on,0,0,3,,,,,,,,0,,,54,80
10102,control_change,22,0,4,,,,,,,,0,64,127,,
10176,note_on,0,0,3,,,,,,,,0,,,46,0
10176,note_on,0,0,3,,,,,,,,0,,,54,0
10176,note_on,96,0,3,,,,,,,,0,,,49,0
10200,note_on,0,0,3,,,,,,,,0,,,49,80
10200,note_on,24,0,3,,,,,,,,0,,,45,80
10200,note_on,0,0,3,,,,,,,,0,,,55,80
10200,note_on,0,0,3,,,,,,,,0,,,52,80
10248,note_on,146,0,4,,,,,,,,0,,,44,0
10248,note_on,0,0,4,,,,,,,,0,,,37,0
10290,note_on,42,0,4,,,,,,,,0,,,37,80
10296,note_on,0,0,3,,,,,,,,0,,,49,0
10296,note_on,96,0,3,,,,,,,,0,,,52,0
10296,note_on,0,0,3,,,,,,,,0,,,45,0
10296,note_on,0,0,3,,,,,,,,0,,,55,0
10320,note_on,0,0,4,,,,,,,,0,,,44,80
10320,note_on,24,0,3,,,,,,,,0,,,53,80
10320,control_change,30,0,4,,,,,,,,0,64,0,,
10320,note_on,0,0,3,,,,,,,,0,,,44,80
10320,note_on,0,0,3,,,,,,,,0,,,49,80
10320,note_on,0,0,3,,,,,,,,0,,,56,80
10342,control_change,22,0,4,,,,,,,,0,64,127,,
10416,note_on,96,0,3,,,,,,,,0,,,56,0
10416,note_on,0,0,3,,,,,,,,0,,,53,0
10416,note_on,0,0,3,,,,,,,,0,,,49,0
10416,note_on,0,0,3,,,,,,,,0,,,44,0
10440,note_on,0,0,3,,,,,,,,0,,,49,80
10440,note_on,24,0,3,,,,,,,,0,,,58,80
10440,note_on,0,0,3,,,,,,,,0,,,55,80
10440,note_on,0,0,3,,,,,,,,0,,,52,80
10536,note_on,0,0,3,,,,,,,,0,,,58,0
10536,note_on,96,0,3,,,,,,,,0,,,49,0
10536,note_on,0,0,3,,,,,,,,0,,,55,0
10536,note_on,0,0,3,,,,,,,,0,,,52,0
10560,note_on,0,0,3,,,,,,,,0,,,51,80
10560,note_on,0,0,3,,,,,,,,0,,,54,80
10560,note_on,0,0,3,,,,,,,,0,,,56,80
10560,note_on,0,0,1,,,,,,,,0,,,68,80
10560,note_on,1104,0,1,,,,,,,,0,,,80,80
10560,note_on,24,0,3,,,,,,,,0,,,60,80
10563,control_change,221,0,4,,,,,,,,0,64,0,,
10574,control_change,11,0,4,,,,,,,,0,64,127,,
10656,note_on,0,0,3,,,,,,,,0,,,51,0
10656,note_on,0,0,3,,,,,,,,0,,,54,0
10656,note_on,0,0,3,,,,,,,,0,,,60,0
10656,note_on,96,0,3,,,,,,,,0,,,56,0
10680,note_on,24,0,3,,,,,,,,0,,,56,80
10680,note_on,0,0,3,,,,,,,,0,,,53,80
10680,note_on,0,0,3,,,,,,,,0,,,61,80
10752,note_on,192,0,1,,,,,,,,0,,,68,0
10752,note_on,0,0,1,,,,,,,,0,,,80,0
10776,note_on,0,0,3,,,,,,,,0,,,53,0
10776,note_on,0,0,3,,,,,,,,0,,,56,0
10776,note_on,96,0,3,,,,,,,,0,,,61,0
10800,note_on,0,0,3,,,,,,,,0,,,54,80
10800,note_on,0,0,3,,,,,,,,0,,,56,80
10800,note_on,24,0,3,,,,,,,,0,,,63,80
10800,note_on,48,0,1,,,,,,,,0,,,80,80
10800,note_on,0,0,3,,,,,,,,0,,,60,80
10800,note_on,0,0,1,,,,,,,,0,,,68,80
10803,control_change,229,0,4,,,,,,,,0,64,0,,
10803,set_tempo,965,1,0,,,,,,824289,,,,,,
10819,control_change,16,0,4,,,,,,,,0,64,127,,
10837,set_tempo,34,1,0,,,,,,835655,,,,,,
10868,set_tempo,31,1,0,,,,,,847338,,,,,,
10896,note_on,0,0,3,,,,,,,,0,,,54,0
10896,note_on,0,0,3,,,,,,,,0,,,60,0
10896,note_on,96,0,3,,,,,,,,0,,,56,0
10896,note_on,0,0,3,,,,,,,,0,,,63,0
10899,set_tempo,31,1,0,,,,,,859353,,,,,,
10920,note_on,0,0,3,,,,,,,,0,,,61,80
10920,note_on,24,0,3,,,,,,,,0,,,65,80
10920,note_on,0,0,3,,,,,,,,0,,,53,80
10920,note_on,0,0,3,,,,,,,,0,,,56,80
10929,set_tempo,30,1,0,,,,,,871713,,,,,,
10960,set_tempo,31,1,0,,,,,,884434,,,,,,
10992,note_on,0,0,1,,,,,,,,0,,,80,0
10992,note_on,192,0,1,,,,,,,,0,,,68,0
10995,set_tempo,35,1,0,,,,,,897532,,,,,,
11004,note_on,0,0,3,,,,,,,,0,,,56,0
11004,note_on,0,0,3,,,,,,,,0,,,61,0
11004,note_on,84,0,3,,,,,,,,0,,,53,0
11004,note_on,0,0,3,,,,,,,,0,,,65,0
11025,set_tempo,30,1,0,,,,,,911023,,,,,,
11025,note_on,21,0,3,,,,,,,,0,,,51,80
11035,control_change,216,0,4,,,,,,,,0,64,0,,
11040,note_on,15,0,3,,,,,,,,0,,,60,80
11040,note_on,0,0,3,,,,,,,,0,,,56,80
11040,note_on,0,0,3,,,,,,,,0,,,66,80
11040,note_on,48,0,1,,,,,,,,0,,,80,80
11040,note_on,0,0,1,,,,,,,,0,,,68,80
11056,set_tempo,31,1,0,,,,,,924927,,,,,,
11056,control_change,21,0,4,,,,,,,,0,64,127,,
11086,set_tempo,30,1,0,,,,,,939261,,,,,,
11088,note_on,32,0,4,,,,,,,,0,,,44,0
11088,note_on,0,0,4,,,,,,,,0,,,37,0
11117,set_tempo,31,1,0,,,,,,954047,,,,,,
11136,note_on,96,0,3,,,,,,,,0,,,56,0
11136,note_on,0,0,3,,,,,,,,0,,,66,0
11136,note_on,0,0,3,,,,,,,,0,,,60,0
11136,note_on,0,0,3,,,,,,,,0,,,51,0
11152,set_tempo,35,1,0,,,,,,969305,,,,,,
11160,note_on,24,0,3,,,,,,,,0,,,63,80
11160,note_on,0,0,3,,,,,,,,0,,,60,80
11160,note_on,0,0,3,,,,,,,,0,,,56,80
11160,note_on,0,0,3,,,,,,,,0,,,54,80
11182,set_tempo,30,1,0,,,,,,985060,,,,,,
11208,note_on,168,0,1,,,,,,,,0,,,68,0
11208,note_on,0,0,1,,,,,,,,0,,,80,0
11213,set_tempo,31,1,0,,,,,,1001335,,,,,,
11243,set_tempo,30,1,0,,,,,,1018157,,,,,,
11244,note_on,84,0,3,,,,,,,,0,,,56,0
11244,note_on,0,0,3,,,,,,,,0,,,54,0
11244,note_on,0,0,3,,,,,,,,0,,,60,0
11244,note_on,0,0,3,,,,,,,,0,,,63,0
11250,note_on,42,0,1,,,,,,,,0,,,77,80
11265,note_on,21,0,3,,,,,,,,0,,,49,80
11274,set_tempo,31,1,0,,,,,,1035554,,,,,,
11276,set_tempo,2,1,0,,,,,,1035554,,,,,,
11280,note_on,0,0,3,,,,,,,,0,,,65,80
11280,note_on,30,0,1,,,,,,,,0,,,92,80
11280,note_on,15,0,3,,,,,,,,0,,,56,80
11292,control_change,204,0,4,,,,,,,,0,64,0,,
11298,control_change,6,0,4,,,,,,,,0,64,127,,
11311,set_tempo,35,1,0,,,,,,1018157,,,,,,
11341,set_tempo,30,1,0,,,,,,1001335,,,,,,
11376,note_on,0,0,3,,,,,,,,0,,,56,0
11376,set_tempo,35,1,0,,,,,,985060,,,,,,
11376,note_on,96,0,3,,,,,,,,0,,,65,0
11376,note_on,0,0,1,,,,,,,,0,,,77,0
11376,note_on,96,0,1,,,,,,,,0,,,92,0
11376,note_on,0,0,3,,,,,,,,0,,,49,0
11400,note_on,0,0,3,,,,,,,,0,,,53,80
11400,note_on,0,0,3,,,,,,,,0,,,61,80
11400,note_on,24,0,3,,,,,,,,0,,,56,80
11407,set_tempo,31,1,0,,,,,,969305,,,,,,
11437,set_tempo,30,1,0,,,,,,954047,,,,,,
11472,set_tempo,35,1,0,,,,,,939261,,,,,,
11480,note_on,104,0,1,,,,,,,,0,,,68,80
11496,note_on,0,0,3,,,,,,,,0,,,56,0
11496,note_on,0,0,3,,,,,,,,0,,,53,0
11496,note_on,96,0,3,,,,,,,,0,,,61,0
11500,note_on,20,0,1,,,,,,,,0,,,80,80
11503,set_tempo,31,1,0,,,,,,924927,,,,,,
11520,note_on,20,0,1,,,,,,,,0,,,92,80
11520,note_on,0,0,3,,,,,,,,0,,,60,80
11520,note_on,24,0,3,,,,,,,,0,,,51,80
11520,note_on,0,0,3,,,,,,,,0,,,56,80
11524,control_change,226,0,4,,,,,,,,0,64,0,,
11538,set_tempo,35,1,0,,,,,,911023,,,,,,
11538,control_change,14,0,4,,,,,,,,0,64,127,,
11568,set_tempo,30,1,0,,,,,,897532,,,,,,
11599,set_tempo,31,1,0,,,,,,884434,,,,,,
11616,note_on,96,0,1,,,,,,,,0,,,92,0
11616,note_on,0,0,1,,,,,,,,0,,,80,0
11616,note_on,0,0,1,,,,,,,,0,,,68,0
11616,note_on,96,0,3,,,,,,,,0,,,56,0
11616,note_on,0,0,3,,,,,,,,0,,,51,0
11616,note_on,0,0,3,,,,,,,,0,,,60,0
11634,set_tempo,35,1,0,,,,,,871713,,,,,,
11640,note_on,0,0,3,,,,,,,,0,,,56,80
11640,note_on,0,0,3,,,,,,,,0,,,49,80
11640,note_on,24,0,3,,,,,,,,0,,,58,80
11664,set_tempo,30,1,0,,,,,,859353,,,,,,
11699,set_tempo,35,1,0,,,,,,847338,,,,,,
11720,note_on,104,0,1,,,,,,,,0,,,68,80
11724,note_on,0,0,3,,,,,,,,0,,,49,0
11724,note_on,0,0,3,,,,,,,,0,,,58,0
11724,note_on,84,0,3,,,,,,,,0,,,56,0
11730,set_tempo,31,1,0,,,,,,835655,,,,,,
11740,note_on,20,0,1,,,,,,,,0,,,80,80
11745,note_on,21,0,3,,,,,,,,0,,,48,80
11760,note_on,0,0,3,,,,,,,,0,,,63,80
11760,set_tempo,30,1,0,,,,,,824289,,,,,,
11760,note_on,20,0,1,,,,,,,,0,,,92,80
11760,note_on,15,0,3,,,,,,,,0,,,56,80
11764,control_change,226,0,4,,,,,,,,0,64,0,,
11776,control_change,12,0,4,,,,,,,,0,64,127,,
11856,note_on,96,0,1,,,,,,,,0,,,92,0
11856,note_on,0,0,1,,,,,,,,0,,,68,0
11856,note_on,0,0,1,,,,,,,,0,,,80,0
11856,note_on,96,0,3,,,,,,,,0,,,63,0
11856,note_on,0,0,3,,,,,,,,0,,,48,0
11856,note_on,0,0,3,,,,,,,,0,,,56,0
11880,note_on,0,0,3,,,,,,,,0,,,61,80
11880,note_on,0,0,3,,,,,,,,0,,,56,80
11880,note_on,24,0,3,,,,,,,,0,,,53,80
11960,note_on,104,0,1,,,,,,,,0,,,68,80
11976,note_on,0,0,3,,,,,,,,0,,,61,0
11976,note_on,96,0,3,,,,,,,,0,,,56,0
11976,note_on,0,0,3,,,,,,,,0,,,53,0
11980,note_on,20,0,1,,,,,,,,0,,,80,80
12000,note_on,24,0,3,,,,,,,,0,,,51,80
12000,control_change,224,0,4,,,,,,,,0,64,0,,
12000,note_on,20,0,1,,,,,,,,0,,,92,80
12000,note_on,0,0,3,,,,,,,,0,,,60,80
12000,note_on,0,0,3,,,,,,,,0,,,56,80
12014,control_change,14,0,4,,,,,,,,0,64,127,,
12096,note_on,96,0,3,,,,,,,,0,,,60,0
12096,note_on,96,0,1,,,,,,,,0,,,92,0
12096,note_on,0,0,3,,,,,,,,0,,,51,0
12096,note_on,0,0,3,,,,,,,,0,,,56,0
12096,note_on,0,0,1,,,,,,,,0,,,68,0
12096,note_on,0,0,1,,,,,,,,0,,,80,0
12120,note_on,0,0,3,,,,,,,,0,,,56,80
12120,note_on,0,0,3,,,,,,,,0,,,49,80
12120,note_on,24,0,3,,,,,,,,0,,,58,80
12200,note_on,104,0,1,,,,,,,,0,,,75,80
12216,note_on,0,0,3,,,,,,,,0,,,58,0
12216,note_on,0,0,3,,,,,,,,0,,,56,0
12216,note_on,96,0,3,,,,,,,,0,,,49,0
12220,note_on,20,0,1,,,,,,,,0,,,87,80
12240,control_change,226,0,4,,,,,,,,0,64,0,,
12240,note_on,24,0,3,,,,,,,,0,,,48,80
12240,note_on,0,0,3,,,,,,,,0,,,56,80
12240,note_on,20,0,1,,,,,,,,0,,,99,80
12294,control_change,54,0,4,,,,,,,,0,64,127,,
12320,note_on,80,0,1,,,,,,,,0,,,75,0
12336,note_on,0,0,3,,,,,,,,0,,,48,0
12336,note_on,96,0,3,,,,,,,,0,,,56,0
12336,note_on,16,0,1,,,,,,,,0,,,99,0
12336,note_on,0,0,1,,,,,,,,0,,,87,0
12360,note_on,24,0,3,,,,,,,,0,,,61,80
12360,note_on,0,0,3,,,,,,,,0,,,53,80
12360,note_on,0,0,3,,,,,,,,0,,,56,80
12456,note_on,96,0,3,,,,,,,,0,,,53,0
12456,note_on,0,0,3,,,,,,,,0,,,56,0
12456,note_on,0,0,3,,,,,,,,0,,,61,0
12480,note_on,24,0,3,,,,,,,,0,,,51,80
12480,note_on,186,0,4,,,,,,,,0,,,44,80
12480,note_on,0,0,3,,,,,,,,0,,,60,80
12480,note_on,0,0,3,,,,,,,,0,,,56,80
12492,control_change,12,0,4,,,,,,,,0,64,0,,
12522,control_change,30,0,4,,,,,,,,0,64,127,,
12576,note_on,0,0,3,,,,,,,,0,,,56,0
12576,note_on,0,0,3,,,,,,,,0,,,51,0
12576,note_on,96,0,3,,,,,,,,0,,,60,0
12600,note_on,0,0,3,,,,,,,,0,,,49,80
12600,note_on,24,0,3,,,,,,,,0,,,58,80
12600,note_on,0,0,3,,,,,,,,0,,,56,80
12672,note_on,150,0,4,,,,,,,,0,,,44,0
12684,note_on,84,0,3,,,,,,,,0,,,49,0
12684,note_on,0,0,3,,,,,,,,0,,,58,0
12684,note_on,0,0,3,,,,,,,,0,,,56,0
12705,note_on,21,0,3,,,,,,,,0,,,48,80
12720,note_on,0,0,3,,,,,,,,0,,,63,80
12720,note_on,15,0,3,,,,,,,,0,,,56,80
12720,set_tempo,960,1,0,,,,,,835655,,,,,,
12720,note_on,48,0,4,,,,,,,,0,,,39,80
12726,control_change,6,0,4,,,,,,,,0,64,0,,
12756,control_change,30,0,4,,,,,,,,0,64,127,,
12760,set_tempo,40,1,0,,,,,,847338,,,,,,
12799,set_tempo,39,1,0,,,,,,859353,,,,,,
12816,note_on,96,0,3,,,,,,,,0,,,63,0
12816,note_on,0,0,3,,,,,,,,0,,,48,0
12816,note_on,0,0,3,,,,,,,,0,,,56,0
12838,set_tempo,39,1,0,,,,,,871713,,,,,,
12840,note_on,24,0,3,,,,,,,,0,,,57,80
12840,note_on,0,0,3,,,,,,,,0,,,52,80
12840,note_on,0,0,3,,,,,,,,0,,,49,80
12840,note_on,0,0,3,,,,,,,,0,,,61,80
12877,set_tempo,39,1,0,,,,,,884434,,,,,,
12912,note_on,156,0,4,,,,,,,,0,,,39,0
12917,set_tempo,40,1,0,,,,,,897532,,,,,,
12936,note_on,96,0,3,,,,,,,,0,,,52,0
12936,note_on,0,0,3,,,,,,,,0,,,61,0
12936,note_on,0,0,3,,,,,,,,0,,,57,0
12936,note_on,0,0,3,,,,,,,,0,,,49,0
12956,set_tempo,39,1,0,,,,,,911023,,,,,,
12960,note_on,48,0,4,,,,,,,,0,,,39,80
12960,note_on,24,0,3,,,,,,,,0,,,51,80
12960,note_on,0,0,3,,,,,,,,0,,,60,80
12960,note_on,0,0,3,,,,,,,,0,,,56,80
12966,control_change,6,0,4,,,,,,,,0,64,0,,
12995,set_tempo,39,1,0,,,,,,924927,,,,,,
13002,control_change,36,0,4,,,,,,,,0,64,127,,
13034,set_tempo,39,1,0,,,,,,939261,,,,,,
13056,note_on,0,0,3,,,,,,,,0,,,56,0
13056,note_on,0,0,3,,,,,,,,0,,,51,0
13056,note_on,96,0,3,,,,,,,,0,,,60,0
13074,set_tempo,40,1,0,,,,,,954047,,,,,,
13080,note_on,0,0,3,,,,,,,,0,,,58,80
13080,note_on,24,0,3,,,,,,,,0,,,49,80
13080,note_on,0,0,3,,,,,,,,0,,,55,80
13113,set_tempo,39,1,0,,,,,,969305,,,,,,
13152,note_on,150,0,4,,,,,,,,0,,,39,0
13152,set_tempo,39,1,0,,,,,,985060,,,,,,
13176,note_on,0,0,3,,,,,,,,0,,,49,0
13176,note_on,0,0,3,,,,,,,,0,,,55,0
13176,note_on,96,0,3,,,,,,,,0,,,58,0
13192,set_tempo,40,1,0,,,,,,1001335,,,,,,
13200,note_on,48,0,4,,,,,,,,0,,,32,80
13200,note_on,24,0,3,,,,,,,,0,,,56,80
13200,control_change,0,0,4,,,,,,,,0,64,0,,
13200,note_on,0,0,3,,,,,,,,0,,,48,80
13200,note_on,0,0,3,,,,,,,,0,,,44,80
13231,set_tempo,39,1,0,,,,,,985060,,,,,,
13243,control_change,43,0,4,,,,,,,,0,64,127,,
13270,set_tempo,39,1,0,,,,,,969305,,,,,,
13309,set_tempo,39,1,0,,,,,,954047,,,,,,
13320,note_on,0,0,2,,,,,,,,0,,,74,80
13320,note_on,0,0,1,,,,,,,,0,,,89,80
13320,note_on,0,0,2,,,,,,,,0,,,83,80
13320,note_on,984,0,1,,,,,,,,0,,,95,80
13320,note_on,0,0,1,,,,,,,,0,,,86,80
13320,note_on,5928,0,2,,,,,,,,0,,,77,80
13344,set_tempo,35,1,0,,,,,,939261,,,,,,
13384,set_tempo,40,1,0,,,,,,924927,,,,,,
13416,note_on,0,0,2,,,,,,,,0,,,83,0
13416,note_on,0,0,1,,,,,,,,0,,,95,0
13416,note_on,0,0,2,,,,,,,,0,,,77,0
13416,note_on,0,0,1,,,,,,,,0,,,86,0
13416,note_on,96,0,1,,,,,,,,0,,,89,0
13416,note_on,96,0,2,,,,,,,,0,,,74,0
13423,set_tempo,39,1,0,,,,,,911023,,,,,,
13435,control_change,192,0,4,,,,,,,,0,64,0,,
13440,note_on,0,0,1,,,,,,,,0,,,82,80
13440,note_on,0,0,1,,,,,,,,0,,,90,80
13440,note_on,24,0,2,,,,,,,,0,,,78,80
13440,note_on,24,0,1,,,,,,,,0,,,87,80
13440,note_on,0,0,2,,,,,,,,0,,,75,80
13440,note_on,0,0,2,,,,,,,,0,,,70,80
13458,set_tempo,35,1,0,,,,,,897532,,,,,,
13464,control_change,29,0,4,,,,,,,,0,64,127,,
13488,note_on,288,0,3,,,,,,,,0,,,44,0
13488,note_on,0,0,3,,,,,,,,0,,,56,0
13488,note_on,0,0,3,,,,,,,,0,,,48,0
13497,set_tempo,39,1,0,,,,,,884434,,,,,,
13536,set_tempo,39,1,0,,,,,,871713,,,,,,
13536,note_on,96,0,1,,,,,,,,0,,,82,0
13536,note_on,96,0,2,,,,,,,,0,,,75,0
13536,note_on,0,0,2,,,,,,,,0,,,70,0
13536,note_on,0,0,1,,,,,,,,0,,,90,0
13536,note_on,0,0,1,,,,,,,,0,,,87,0
13536,note_on,0,0,2,,,,,,,,0,,,78,0
13560,note_on,0,0,1,,,,,,,,0,,,93,80
13560,note_on,0,0,2,,,,,,,,0,,,81,80
13560,note_on,24,0,2,,,,,,,,0,,,78,80
13560,note_on,0,0,2,,,,,,,,0,,,72,80
13560,note_on,24,0,1,,,,,,,,0,,,84,80
13560,note_on,0,0,1,,,,,,,,0,,,87,80
13571,set_tempo,35,1,0,,,,,,859353,,,,,,
13610,set_tempo,39,1,0,,,,,,847338,,,,,,
13650,set_tempo,40,1,0,,,,,,835655,,,,,,
13656,note_on,96,0,1,,,,,,,,0,,,93,0
13656,note_on,0,0,2,,,,,,,,0,,,78,0
13656,note_on,0,0,2,,,,,,,,0,,,81,0
13656,note_on,96,0,2,,,,,,,,0,,,72,0
13656,note_on,0,0,1,,,,,,,,0,,,87,0
13656,note_on,0,0,1,,,,,,,,0,,,84,0
13680,note_on,24,0,2,,,,,,,,0,,,68,80
13680,note_on,0,0,2,,,,,,,,0,,,73,80
13680,note_on,0,0,2,,,,,,,,0,,,77,80
13680,note_on,0,0,1,,,,,,,,0,,,89,80
13680,note_on,0,0,1,,,,,,,,0,,,85,80
13680,note_on,24,0,1,,,,,,,,0,,,80,80
13685,set_tempo,35,1,0,,,,,,824289,,,,,,
13690,control_change,226,0,4,,,,,,,,0,64,0,,
13723,control_change,33,0,4,,,,,,,,0,64,127,,
13776,note_on,53,0,4,,,,,,,,0,,,32,0
13776,note_on,96,0,2,,,,,,,,0,,,73,0
13776,note_on,96,0,1,,,,,,,,0,,,85,0
13776,note_on,0,0,2,,,,,,,,0,,,68,0
13776,note_on,0,0,1,,,,,,,,0,,,89,0
13776,note_on,0,0,1,,,,,,,,0,,,80,0
13776,note_on,0,0,2,,,,,,,,0,,,77,0
13800,note_on,0,0,2,,,,,,,,0,,,80,80
13800,note_on,24,0,1,,,,,,,,0,,,83,80
13800,note_on,24,0,2,,,,,,,,0,,,77,80
13800,note_on,0,0,1,,,,,,,,0,,,86,80
13800,note_on,0,0,1,,,,,,,,0,,,92,80
13800,note_on,0,0,2,,,,,,,,0,,,71,80
13896,note_on,96,0,2,,,,,,,,0,,,80,0
13896,note_on,0,0,2,,,,,,,,0,,,71,0
13896,note_on,96,0,1,,,,,,,,0,,,86,0
13896,note_on,0,0,1,,,,,,,,0,,,83,0
13896,note_on,0,0,1,,,,,,,,0,,,92,0
13896,note_on,0,0,2,,,,,,,,0,,,77,0
13920,note_on,24,0,1,,,,,,,,0,,,78,80
13920,note_on,0,0,2,,,,,,,,0,,,66,80
13920,note_on,0,0,1,,,,,,,,0,,,87,80
13920,note_on,0,0,2,,,,,,,,0,,,70,80
13920,note_on,24,0,2,,,,,,,,0,,,75,80
13920,note_on,0,0,1,,,,,,,,0,,,82,80
13920,control_change,144,0,4,,,,,,,,0,64,0,,
13949,control_change,29,0,4,,,,,,,,0,64,127,,
14016,note_on,0,0,1,,,,,,,,0,,,78,0
14016,note_on,0,0,1,,,,,,,,0,,,82,0
14016,note_on,96,0,1,,,,,,,,0,,,87,0
14016,note_on,0,0,2,,,,,,,,0,,,70,0
14016,note_on,0,0,2,,,,,,,,0,,,75,0
14016,note_on,96,0,2,,,,,,,,0,,,66,0
14040,note_on,24,0,2,,,,,,,,0,,,78,80
14040,note_on,0,0,2,,,,,,,,0,,,75,80
14040,note_on,0,0,1,,,,,,,,0,,,81,80
14040,note_on,0,0,2,,,,,,,,0,,,69,80
14040,note_on,24,0,1,,,,,,,,0,,,84,80
14040,note_on,0,0,1,,,,,,,,0,,,90,80
14136,note_on,96,0,2,,,,,,,,0,,,75,0
14136,note_on,0,0,2,,,,,,,,0,,,69,0
14136,note_on,96,0,1,,,,,,,,0,,,81,0
14136,note_on,0,0,1,,,,,,,,0,,,84,0
14136,note_on,0,0,1,,,,,,,,0,,,90,0
14136,note_on,0,0,2,,,,,,,,0,,,78,0
14160,note_on,0,0,1,,,,,,,,0,,,79,80
14160,note_on,0,0,1,,,,,,,,0,,,88,80
14160,note_on,0,0,1,,,,,,,,0,,,82,80
14160,note_on,0,0,1,,,,,,,,0,,,76,80
14160,note_on,0,0,1,,,,,,,,0,,,73,80
14160,note_on,24,0,1,,,,,,,,0,,,67,80
14160,control_change,211,0,4,,,,,,,,0,64,0,,
14172,control_change,12,0,4,,,,,,,,0,64,127,,
14235,note_on,99,0,2,,,,,,,,0,,,70,80
14250,note_on,15,0,2,,,,,,,,0,,,76,80
14256,note_on,0,0,1,,,,,,,,0,,,73,0
14256,note_on,0,0,1,,,,,,,,0,,,88,0
14256,note_on,96,0,1,,,,,,,,0,,,76,0
14256,note_on,0,0,1,,,,,,,,0,,,82,0
14256,note_on,0,0,1,,,,,,,,0,,,79,0
14256,note_on,0,0,1,,,,,,,,0,,,67,0
14265,note_on,15,0,2,,,,,,,,0,,,79,80
14280,note_on,15,0,2,,,,,,,,0,,,85,80
14355,note_on,99,0,1,,,,,,,,0,,,67,80
14370,note_on,15,0,1,,,,,,,,0,,,73,80
14376,note_on,0,0,2,,,,,,,,0,,,70,0
14376,note_on,0,0,2,,,,,,,,0,,,76,0
14376,note_on,0,0,2,,,,,,,,0,,,79,0
14376,note_on,96,0,2,,,,,,,,0,,,85,0
14385,note_on,15,0,1,,,,,,,,0,,,76,80
14400,note_on,228,0,4,,,,,,,,0,,,32,80
14400,note_on,15,0,1,,,,,,,,0,,,82,80
14402,control_change,2,0,4,,,,,,,,0,64,0,,
14414,control_change,12,0,4,,,,,,,,0,64,127,,
14475,note_on,99,0,2,,,,,,,,0,,,70,80
14490,note_on,15,0,2,,,,,,,,0,,,76,80
14496,note_on,0,0,1,,,,,,,,0,,,76,0
14496,note_on,0,0,1,,,,,,,,0,,,67,0
14496,note_on,0,0,1,,,,,,,,0,,,73,0
14496,note_on,96,0,1,,,,,,,,0,,,82,0
14505,note_on,15,0,2,,,,,,,,0,,,79,80
14520,note_on,15,0,2,,,,,,,,0,,,85,80
14592,note_on,178,0,4,,,,,,,,0,,,32,0
14595,note_on,99,0,1,,,,,,,,0,,,73,80
14610,note_on,15,0,1,,,,,,,,0,,,79,80
14616,note_on,0,0,2,,,,,,,,0,,,79,0
14616,note_on,96,0,2,,,,,,,,0,,,85,0
14616,note_on,0,0,2,,,,,,,,0,,,70,0
14616,note_on,0,0,2,,,,,,,,0,,,76,0
14625,note_on,15,0,1,,,,,,,,0,,,82,80
14638,control_change,46,0,4,,,,,,,,0,64,0,,
14640,note_on,2,0,4,,,,,,,,0,,,32,80
14640,note_on,15,0,1,,,,,,,,0,,,88,80
14652,control_change,12,0,4,,,,,,,,0,64,127,,
14715,note_on,99,0,2,,,,,,,,0,,,76,80
14730,note_on,15,0,2,,,,,,,,0,,,82,80
14736,note_on,0,0,1,,,,,,,,0,,,82,0
14736,note_on,0,0,1,,,,,,,,0,,,79,0
14736,note_on,0,0,1,,,,,,,,0,,,73,0
14736,note_on,96,0,1,,,,,,,,0,,,88,0
14745,note_on,15,0,2,,,,,,,,0,,,85,80
14760,note_on,15,0,2,,,,,,,,0,,,90,80
14832,note_on,180,0,4,,,,,,,,0,,,32,0
14835,note_on,99,0,1,,,,,,,,0,,,73,80
14850,note_on,15,0,1,,,,,,,,0,,,79,80
14856,note_on,0,0,2,,,,,,,,0,,,82,0
14856,note_on,96,0,2,,,,,,,,0,,,90,0
14856,note_on,0,0,2,,,,,,,,0,,,85,0
14856,note_on,0,0,2,,,,,,,,0,,,76,0
14865,note_on,15,0,1,,,,,,,,0,,,82,80
14876,control_change,44,0,4,,,,,,,,0,64,0,,
14880,note_on,4,0,4,,,,,,,,0,,,32,80
14880,note_on,15,0,1,,,,,,,,0,,,88,80
14890,control_change,10,0,4,,,,,,,,0,64,127,,
14955,note_on,99,0,2,,,,,,,,0,,,70,80
14970,note_on,15,0,2,,,,,,,,0,,,76,80
14976,note_on,0,0,1,,,,,,,,0,,,79,0
14976,note_on,0,0,1,,,,,,,,0,,,82,0
14976,note_on,0,0,1,,,,,,,,0,,,73,0
14976,note_on,96,0,1,,,,,,,,0,,,88,0
14985,note_on,15,0,2,,,,,,,,0,,,79,80
15000,note_on,15,0,2,,,,,,,,0,,,85,80
15072,note_on,182,0,4,,,,,,,,0,,,32,0
15090,note_on,1602,0,3,,,,,,,,0,,,68,80
15096,note_on,96,0,2,,,,,,,,0,,,85,0
15096,note_on,0,0,2,,,,,,,,0,,,76,0
15096,note_on,0,0,2,,,,,,,,0,,,70,0
15096,note_on,0,0,2,,,,,,,,0,,,79,0
15105,note_on,15,0,3,,,,,,,,0,,,75,80
15120,control_change,0,0,4,,,,,,,,0,64,0,,
15120,note_on,15,0,3,,,,,,,,0,,,84,80
15120,note_on,48,0,4,,,,,,,,0,,,32,80
15163,control_change,43,0,4,,,,,,,,0,64,127,,
15240,note_on,264,0,1,,,,,,,,0,,,77,80
15240,note_on,0,0,1,,,,,,,,0,,,83,80
15240,note_on,0,0,2,,,,,,,,0,,,71,80
15240,note_on,144,0,2,,,,,,,,0,,,62,80
15240,note_on,0,0,1,,,,,,,,0,,,74,80
15240,note_on,0,0,2,,,,,,,,0,,,65,80
15336,note_on,0,0,1,,,,,,,,0,,,74,0
15336,note_on,0,0,1,,,,,,,,0,,,77,0
15336,note_on,0,0,2,,,,,,,,0,,,71,0
15336,note_on,96,0,1,,,,,,,,0,,,83,0
15336,note_on,0,0,2,,,,,,,,0,,,62,0
15336,note_on,96,0,2,,,,,,,,0,,,65,0
15360,note_on,0,0,2,,,,,,,,0,,,66,80
15360,note_on,24,0,2,,,,,,,,0,,,58,80
15360,note_on,0,0,1,,,,,,,,0,,,75,80
15360,note_on,0,0,1,,,,,,,,0,,,70,80
15360,note_on,0,0,2,,,,,,,,0,,,63,80
15360,control_change,197,0,4,,,,,,,,0,64,0,,
15360,note_on,24,0,1,,,,,,,,0,,,78,80
15394,control_change,34,0,4,,,,,,,,0,64,127,,
15408,note_on,288,0,3,,,,,,,,0,,,84,0
15438,note_on,30,0,3,,,,,,,,0,,,75,0
15456,note_on,96,0,2,,,,,,,,0,,,66,0
15456,note_on,0,0,2,,,,,,,,0,,,63,0
15456,note_on,0,0,1,,,,,,,,0,,,78,0
15456,note_on,96,0,1,,,,,,,,0,,,75,0
15456,note_on,0,0,2,,,,,,,,0,,,58,0
15456,note_on,0,0,1,,,,,,,,0,,,70,0
15468,note_on,30,0,3,,,,,,,,0,,,68,0
15480,note_on,0,0,2,,,,,,,,0,,,60,80
15480,note_on,0,0,2,,,,,,,,0,,,66,80
15480,note_on,0,0,1,,,,,,,,0,,,81,80
15480,note_on,24,0,1,,,,,,,,0,,,75,80
15480,note_on,24,0,2,,,,,,,,0,,,69,80
15480,note_on,0,0,1,,,,,,,,0,,,72,80
15576,note_on,0,0,1,,,,,,,,0,,,75,0
15576,note_on,0,0,1,,,,,,,,0,,,81,0
15576,note_on,96,0,1,,,,,,,,0,,,72,0
15576,note_on,96,0,2,,,,,,,,0,,,60,0
15576,note_on,0,0,2,,,,,,,,0,,,66,0
15576,note_on,0,0,2,,,,,,,,0,,,69,0
15600,note_on,24,0,2,,,,,,,,0,,,65,80
15600,note_on,24,0,1,,,,,,,,0,,,77,80
15600,note_on,0,0,2,,,,,,,,0,,,61,80
15600,note_on,0,0,2,,,,,,,,0,,,56,80
15600,note_on,0,0,1,,,,,,,,0,,,68,80
15600,note_on,0,0,1,,,,,,,,0,,,73,80
15605,control_change,211,0,4,,,,,,,,0,64,0,,
15638,control_change,33,0,4,,,,,,,,0,64,127,,
15696,note_on,96,0,1,,,,,,,,0,,,73,0
15696,note_on,58,0,4,,,,,,,,0,,,32,0
15696,note_on,96,0,2,,,,,,,,0,,,61,0
15696,note_on,0,0,1,,,,,,,,0,,,68,0
15696,note_on,0,0,1,,,,,,,,0,,,77,0
15696,note_on,0,0,2,,,,,,,,0,,,65,0
15696,note_on,0,0,2,,,,,,,,0,,,56,0
15720,note_on,24,0,1,,,,,,,,0,,,80,80
15720,note_on,24,0,2,,,,,,,,0,,,59,80
15720,note_on,0,0,1,,,,,,,,0,,,74,80
15720,note_on,0,0,1,,,,,,,,0,,,71,80
15720,note_on,0,0,2,,,,,,,,0,,,65,80
15720,note_on,0,0,2,,,,,,,,0,,,68,80
15816,note_on,0,0,1,,,,,,,,0,,,80,0
15816,note_on,96,0,1,,,,,,,,0,,,74,0
15816,note_on,96,0,2,,,,,,,,0,,,65,0
15816,note_on,0,0,1,,,,,,,,0,,,71,0
15816,note_on,0,0,2,,,,,,,,0,,,68,0
15816,note_on,0,0,2,,,,,,,,0,,,59,0
15840,note_on,0,0,1,,,,,,,,0,,,66,80
15840,note_on,0,0,2,,,,,,,,0,,,63,80
15840,note_on,0,0,2,,,,,,,,0,,,54,80
15840,note_on,0,0,1,,,,,,,,0,,,70,80
15840,note_on,24,0,2,,,,,,,,0,,,58,80
15840,note_on,24,0,1,,,,,,,,0,,,75,80
15845,control_change,149,0,4,,,,,,,,0,64,0,,
15888,control_change,43,0,4,,,,,,,,0,64,127,,
15936,note_on,0,0,1,,,,,,,,0,,,70,0
15936,note_on,0,0,1,,,,,,,,0,,,75,0
15936,note_on,96,0,2,,,,,,,,0,,,63,0
15936,note_on,0,0,2,,,,,,,,0,,,54,0
15936,note_on,0,0,2,,,,,,,,0,,,58,0
15936,note_on,96,0,1,,,,,,,,0,,,66,0
15960,note_on,24,0,2,,,,,,,,0,,,57,80
15960,note_on,24,0,1,,,,,,,,0,,,72,80
15960,note_on,0,0,1,,,,,,,,0,,,78,80
15960,note_on,0,0,2,,,,,,,,0,,,63,80
15960,note_on,0,0,2,,,,,,,,0,,,66,80
15960,note_on,0,0,1,,,,,,,,0,,,69,80
16056,note_on,0,0,2,,,,,,,,0,,,63,0
16056,note_on,0,0,1,,,,,,,,0,,,69,0
16056,note_on,96,0,1,,,,,,,,0,,,78,0
16056,note_on,0,0,1,,,,,,,,0,,,72,0
16056,note_on,96,0,2,,,,,,,,0,,,66,0
16056,note_on,0,0,2,,,,,,,,0,,,57,0
16080,note_on,24,0,1,,,,,,,,0,,,56,80
16080,control_change,192,0,4,,,,,,,,0,64,0,,
16080,note_on,0,0,1,,,,,,,,0,,,62,80
16080,note_on,0,0,1,,,,,,,,0,,,64,80
16080,note_on,0,0,1,,,,,,,,0,,,76,80
16080,note_on,0,0,1,,,,,,,,0,,,71,80
16080,note_on,0,0,1,,,,,,,,0,,,68,80
16112,control_change,32,0,4,,,,,,,,0,64,127,,
16155,note_on,99,0,2,,,,,,,,0,,,59,80
16170,note_on,15,0,2,,,,,,,,0,,,64,80
16176,note_on,0,0,1,,,,,,,,0,,,56,0
16176,note_on,0,0,1,,,,,,,,0,,,71,0
16176,note_on,0,0,1,,,,,,,,0,,,76,0
16176,note_on,96,0,1,,,,,,,,0,,,62,0
16176,note_on,0,0,1,,,,,,,,0,,,68,0
16176,note_on,0,0,1,,,,,,,,0,,,64,0
16185,note_on,15,0,2,,,,,,,,0,,,68,80
16200,note_on,15,0,2,,,,,,,,0,,,74,80
16275,note_on,99,0,1,,,,,,,,0,,,56,80
16290,note_on,15,0,1,,,,,,,,0,,,62,80
16296,note_on,96,0,2,,,,,,,,0,,,74,0
16296,note_on,0,0,2,,,,,,,,0,,,64,0
16296,note_on,0,0,2,,,,,,,,0,,,59,0
16296,note_on,0,0,2,,,,,,,,0,,,68,0
16305,note_on,15,0,1,,,,,,,,0,,,64,80
16318,control_change,206,0,4,,,,,,,,0,64,0,,
16320,note_on,2,0,4,,,,,,,,0,,,32,80
16320,note_on,15,0,1,,,,,,,,0,,,71,80
16350,control_change,30,0,4,,,,,,,,0,64,127,,
16395,note_on,99,0,2,,,,,,,,0,,,59,80
16410,note_on,15,0,2,,,,,,,,0,,,64,80
16416,note_on,96,0,1,,,,,,,,0,,,71,0
16416,note_on,0,0,1,,,,,,,,0,,,56,0
16416,note_on,0,0,1,,,,,,,,0,,,62,0
16416,note_on,0,0,1,,,,,,,,0,,,64,0
16425,note_on,15,0,2,,,,,,,,0,,,68,80
16440,note_on,15,0,2,,,,,,,,0,,,74,80
16512,note_on,162,0,4,,,,,,,,0,,,32,0
16515,note_on,99,0,1,,,,,,,,0,,,62,80
16530,note_on,15,0,1,,,,,,,,0,,,68,80
16536,note_on,0,0,2,,,,,,,,0,,,64,0
16536,note_on,0,0,2,,,,,,,,0,,,68,0
16536,note_on,0,0,2,,,,,,,,0,,,59,0
16536,note_on,96,0,2,,,,,,,,0,,,74,0
16545,note_on,15,0,1,,,,,,,,0,,,71,80
16560,note_on,0,0,4,,,,,,,,0,,,32,80
16560,control_change,48,0,4,,,,,,,,0,64,0,,
16560,note_on,15,0,1,,,,,,,,0,,,76,80
16598,control_change,38,0,4,,,,,,,,0,64,127,,
16635,note_on,99,0,2,,,,,,,,0,,,64,80
16650,note_on,15,0,2,,,,,,,,0,,,68,80
16656,note_on,96,0,1,,,,,,,,0,,,76,0
16656,note_on,0,0,1,,,,,,,,0,,,71,0
16656,note_on,0,0,1,,,,,,,,0,,,68,0
16656,note_on,0,0,1,,,,,,,,0,,,62,0
16665,note_on,15,0,2,,,,,,,,0,,,71,80
16680,note_on,15,0,2,,,,,,,,0,,,78,80
16752,note_on,154,0,4,,,,,,,,0,,,32,0
16755,note_on,99,0,1,,,,,,,,0,,,62,80
16760,control_change,8,0,4,,,,,,,,0,64,0,,
16770,note_on,15,0,1,,,,,,,,0,,,68,80
16776,note_on,96,0,2,,,,,,,,0,,,78,0
16776,note_on,0,0,2,,,,,,,,0,,,71,0
16776,note_on,0,0,2,,,,,,,,0,,,68,0
16776,note_on,0,0,2,,,,,,,,0,,,64,0
16785,note_on,15,0,1,,,,,,,,0,,,71,80
16800,note_on,15,0,1,,,,,,,,0,,,76,80
16800,control_change,0,0,4,,,,,,,,0,64,127,,
16800,note_on,40,0,4,,,,,,,,0,,,32,80
16875,note_on,99,0,2,,,,,,,,0,,,59,80
16890,note_on,15,0,2,,,,,,,,0,,,64,80
16896,note_on,0,0,1,,,,,,,,0,,,62,0
16896,note_on,96,0,1,,,,,,,,0,,,76,0
16896,note_on,0,0,1,,,,,,,,0,,,68,0
16896,note_on,0,0,1,,,,,,,,0,,,71,0
16905,note_on,15,0,2,,,,,,,,0,,,68,80
16920,note_on,15,0,2,,,,,,,,0,,,74,80
16992,note_on,192,0,4,,,,,,,,0,,,32,0
17010,note_on,1542,0,3,,,,,,,,0,,,57,80
17016,note_on,96,0,2,,,,,,,,0,,,74,0
17016,note_on,0,0,2,,,,,,,,0,,,68,0
17016,note_on,0,0,2,,,,,,,,0,,,64,0
17016,note_on,0,0,2,,,,,,,,0,,,59,0
17025,note_on,15,0,3,,,,,,,,0,,,64,80
17040,note_on,15,0,3,,,,,,,,0,,,73,80
17040,control_change,48,0,4,,,,,,,,0,64,0,,
17104,control_change,64,0,4,,,,,,,,0,64,127,,
17136,note_on,96,0,3,,,,,,,,0,,,73,0
17136,note_on,0,0,3,,,,,,,,0,,,57,0
17136,note_on,0,0,3,,,,,,,,0,,,64,0
17160,note_on,0,0,1,,,,,,,,0,,,61,80
17160,note_on,264,0,1,,,,,,,,0,,,69,80
17160,note_on,0,0,1,,,,,,,,0,,,66,80
17256,note_on,0,0,1,,,,,,,,0,,,66,0
17256,note_on,0,0,1,,,,,,,,0,,,69,0
17256,note_on,96,0,1,,,,,,,,0,,,61,0
17280,note_on,176,0,4,,,,,,,,0,,,32,80
17280,note_on,0,0,1,,,,,,,,0,,,64,80
17280,note_on,0,0,1,,,,,,,,0,,,61,80
17280,note_on,24,0,1,,,,,,,,0,,,57,80
17376,note_on,96,0,1,,,,,,,,0,,,61,0
17376,note_on,0,0,1,,,,,,,,0,,,64,0
17376,note_on,0,0,1,,,,,,,,0,,,57,0
17400,note_on,0,0,1,,,,,,,,0,,,52,80
17400,note_on,0,0,1,,,,,,,,0,,,61,80
17400,note_on,24,0,1,,,,,,,,0,,,57,80
17472,note_on,192,0,4,,,,,,,,0,,,32,0
17496,note_on,0,0,1,,,,,,,,0,,,57,0
17496,note_on,0,0,1,,,,,,,,0,,,61,0
17496,note_on,96,0,1,,,,,,,,0,,,52,0
17512,set_tempo,3827,1,0,,,,,,824289,,,,,,
17520,note_on,0,0,1,,,,,,,,0,,,66,80
17520,note_on,24,0,1,,,,,,,,0,,,50,80
17520,note_on,0,0,1,,,,,,,,0,,,57,80
17540,control_change,68,0,4,,,,,,,,0,64,0,,
17552,set_tempo,40,1,0,,,,,,835655,,,,,,
17591,set_tempo,39,1,0,,,,,,847338,,,,,,
17600,control_change,60,0,4,,,,,,,,0,64,127,,
17616,note_on,0,0,1,,,,,,,,0,,,66,0
17616,note_on,96,0,1,,,,,,,,0,,,57,0
17616,note_on,0,0,1,,,,,,,,0,,,50,0
17626,set_tempo,35,1,0,,,,,,859353,,,,,,
17640,note_on,24,0,1,,,,,,,,0,,,54,80
17640,note_on,0,0,1,,,,,,,,0,,,62,80
17640,note_on,0,0,1,,,,,,,,0,,,59,80
17665,set_tempo,39,1,0,,,,,,871713,,,,,,
17704,set_tempo,39,1,0,,,,,,884434,,,,,,
17736,note_on,96,0,1,,,,,,,,0,,,59,0
17736,note_on,0,0,1,,,,,,,,0,,,62,0
17736,note_on,0,0,1,,,,,,,,0,,,54,0
17739,set_tempo,35,1,0,,,,,,897532,,,,,,
17760,control_change,0,0,4,,,,,,,,0,64,0,,
17760,note_on,0,0,3,,,,,,,,0,,,57,80
17760,note_on,0,0,3,,,,,,,,0,,,54,80
17760,note_on,624,0,3,,,,,,,,0,,,50,80
17760,note_on,160,0,4,,,,,,,,0,,,32,80
17779,set_tempo,40,1,0,,,,,,911023,,,,,,
17811,control_change,51,0,4,,,,,,,,0,64,127,,
17814,set_tempo,35,1,0,,,,,,924927,,,,,,
17853,set_tempo,39,1,0,,,,,,939261,,,,,,
17856,note_on,0,0,3,,,,,,,,0,,,50,0
17856,note_on,0,0,3,,,,,,,,0,,,54,0
17856,note_on,96,0,3,,,,,,,,0,,,57,0
17880,note_on,0,0,3,,,,,,,,0,,,50,80
17880,note_on,0,0,3,,,,,,,,0,,,54,80
17880,note_on,24,0,3,,,,,,,,0,,,45,80
17892,set_tempo,39,1,0,,,,,,954047,,,,,,
17927,set_tempo,35,1,0,,,,,,969305,,,,,,
17952,note_on,141,0,4,,,,,,,,0,,,32,0
17966,set_tempo,39,1,0,,,,,,985060,,,,,,
17976,note_on,96,0,3,,,,,,,,0,,,54,0
17976,note_on,0,0,3,,,,,,,,0,,,45,0
17976,note_on,0,0,3,,,,,,,,0,,,50,0
17997,set_tempo,31,1,0,,,,,,985060,,,,,,
18000,note_on,0,0,4,,,,,,,,0,,,44,80
18000,note_on,48,0,4,,,,,,,,0,,,54,80
18000,note_on,0,0,4,,,,,,,,0,,,51,80
18000,control_change,0,0,4,,,,,,,,0,64,0,,
18000,note_on,0,0,4,,,,,,,,0,,,60,80
18000,note_on,0,0,4,,,,,,,,0,,,32,80
18027,control_change,27,0,4,,,,,,,,0,64,127,,
18032,set_tempo,35,1,0,,,,,,969305,,,,,,
18067,set_tempo,35,1,0,,,,,,954047,,,,,,
18096,note_on,0,0,4,,,,,,,,0,,,32,0
18096,note_on,0,0,4,,,,,,,,0,,,51,0
18096,note_on,0,0,4,,,,,,,,0,,,54,0
18096,note_on,0,0,4,,,,,,,,0,,,60,0
18096,note_on,69,0,4,,,,,,,,0,,,44,0
18102,set_tempo,35,1,0,,,,,,939261,,,,,,
18120,note_on,0,0,4,,,,,,,,0,,,39,81
18120,note_on,24,0,4,,,,,,,,0,,,51,81
18136,set_tempo,34,1,0,,,,,,924927,,,,,,
18171,set_tempo,35,1,0,,,,,,911023,,,,,,
18206,set_tempo,35,1,0,,,,,,897532,,,,,,
18216,note_on,96,0,4,,,,,,,,0,,,39,0
18216,note_on,0,0,4,,,,,,,,0,,,51,0
18237,set_tempo,31,1,0,,,,,,884434,,,,,,
18240,note_on,0,0,2,,,,,,,,0,,,68,80
18240,note_on,1224,0,2,,,,,,,,0,,,56,80
18240,note_on,0,0,2,,,,,,,,0,,,66,80
18240,note_on,24,0,4,,,,,,,,0,,,48,83
18240,control_change,0,0,4,,,,,,,,0,64,0,,
18240,note_on,0,0,4,,,,,,,,0,,,36,83
18272,set_tempo,35,1,0,,,,,,871713,,,,,,
18283,control_change,43,0,4,,,,,,,,0,64,127,,
18307,set_tempo,35,1,0,,,,,,859353,,,,,,
18336,note_on,0,0,4,,,,,,,,0,,,48,0
18336,note_on,53,0,4,,,,,,,,0,,,36,0
18342,set_tempo,35,1,0,,,,,,847338,,,,,,
18360,note_on,24,0,4,,,,,,,,0,,,39,84
18360,note_on,0,0,4,,,,,,,,0,,,51,84
18376,set_tempo,34,1,0,,,,,,835655,,,,,,
18411,set_tempo,35,1,0,,,,,,824289,,,,,,
18432,note_on,0,0,2,,,,,,,,0,,,56,0
18432,note_on,192,0,2,,,,,,,,0,,,66,0
18432,note_on,0,0,2,,,,,,,,0,,,68,0
18446,set_tempo,35,1,0,,,,,,813229,,,,,,
18456,note_on,96,0,4,,,,,,,,0,,,51,0
18456,note_on,0,0,4,,,,,,,,0,,,39,0
18477,set_tempo,31,1,0,,,,,,802461,,,,,,
18480,note_on,0,0,2,,,,,,,,0,,,66,83
18480,note_on,0,0,2,,,,,,,,0,,,68,83
18480,note_on,0,0,4,,,,,,,,0,,,41,86
18480,note_on,48,0,2,,,,,,,,0,,,56,83
18480,note_on,24,0,4,,,,,,,,0,,,53,86
18490,control_change,10,0,4,,,,,,,,0,64,0,,
18523,control_change,33,0,4,,,,,,,,0,64,127,,
18576,note_on,53,0,4,,,,,,,,0,,,41,0
18576,note_on,0,0,4,,,,,,,,0,,,53,0
18600,note_on,24,0,4,,,,,,,,0,,,56,88
18600,note_on,0,0,4,,,,,,,,0,,,44,88
18672,note_on,0,0,2,,,,,,,,0,,,56,0
18672,note_on,0,0,2,,,,,,,,0,,,68,0
18672,note_on,192,0,2,,,,,,,,0,,,66,0
18696,note_on,0,0,4,,,,,,,,0,,,56,0
18696,note_on,96,0,4,,,,,,,,0,,,44,0
18720,note_on,48,0,2,,,,,,,,0,,,66,87
18720,note_on,0,0,2,,,,,,,,0,,,56,87
18720,note_on,0,0,2,,,,,,,,0,,,68,87
18720,note_on,0,0,4,,,,,,,,0,,,41,89
18720,note_on,24,0,4,,,,,,,,0,,,53,89
18734,control_change,14,0,4,,,,,,,,0,64,0,,
18778,control_change,44,0,4,,,,,,,,0,64,127,,
18816,note_on,0,0,4,,,,,,,,0,,,53,0
18816,note_on,38,0,4,,,,,,,,0,,,41,0
18840,note_on,24,0,4,,,,,,,,0,,,51,91
18840,note_on,0,0,4,,,,,,,,0,,,39,91
18912,note_on,0,0,2,,,,,,,,0,,,66,0
18912,note_on,192,0,2,,,,,,,,0,,,56,0
18912,note_on,0,0,2,,,,,,,,0,,,68,0
18936,note_on,0,0,4,,,,,,,,0,,,51,0
18936,note_on,96,0,4,,,,,,,,0,,,39,0
18956,set_tempo,479,1,0,,,,,,802461,,,,,,
18960,note_on,0,0,4,,,,,,,,0,,,36,92
18960,control_change,24,0,4,,,,,,,,0,64,0,,
18960,control_change,0,0,4,,,,,,,,0,64,0,,
18960,note_on,0,0,2,,,,,,,,0,,,80,90
18960,note_on,0,0,4,,,,,,,,0,,,48,92
18960,note_on,48,0,2,,,,,,,,0,,,78,90
18960,note_on,0,0,2,,,,,,,,0,,,68,90
19032,control_change,72,0,4,,,,,,,,0,64,127,,
19052,set_tempo,96,1,0,,,,,,791975,,,,,,
19056,note_on,24,0,4,,,,,,,,0,,,36,0
19056,note_on,0,0,4,,,,,,,,0,,,48,0
19056,note_on,96,0,2,,,,,,,,0,,,68,0
19056,note_on,0,0,2,,,,,,,,0,,,80,0
19056,note_on,0,0,2,,,,,,,,0,,,78,0
19080,note_on,24,0,4,,,,,,,,0,,,32,94
19080,note_on,0,0,4,,,,,,,,0,,,44,94
19148,set_tempo,96,1,0,,,,,,781759,,,,,,
19176,note_on,0,0,4,,,,,,,,0,,,32,0
19176,note_on,96,0,4,,,,,,,,0,,,44,0
19200,note_on,0,0,2,,,,,,,,0,,,80,94
19200,note_on,0,0,2,,,,,,,,0,,,78,94
19200,note_on,144,0,2,,,,,,,,0,,,68,94
19200,note_on,24,0,4,,,,,,,,0,,,41,96
19200,note_on,0,0,4,,,,,,,,0,,,29,96
19205,control_change,5,0,4,,,,,,,,0,64,0,,
19244,set_tempo,96,1,0,,,,,,771803,,,,,,
19260,control_change,55,0,4,,,,,,,,0,64,127,,
19296,note_on,36,0,4,,,,,,,,0,,,29,0
19296,note_on,0,0,4,,,,,,,,0,,,41,0
19320,note_on,0,0,4,,,,,,,,0,,,44,97
19320,note_on,24,0,4,,,,,,,,0,,,32,97
19340,set_tempo,96,1,0,,,,,,762098,,,,,,
19392,note_on,192,0,2,,,,,,,,0,,,78,0
19392,note_on,0,0,2,,,,,,,,0,,,68,0
19392,note_on,0,0,2,,,,,,,,0,,,80,0
19416,note_on,96,0,4,,,,,,,,0,,,44,0
19416,note_on,0,0,4,,,,,,,,0,,,32,0
19436,set_tempo,96,1,0,,,,,,752634,,,,,,
19440,note_on,48,0,2,,,,,,,,0,,,80,97
19440,note_on,0,0,2,,,,,,,,0,,,78,97
19440,note_on,0,0,2,,,,,,,,0,,,68,97
19440,note_on,0,0,4,,,,,,,,0,,,36,99
19440,note_on,24,0,4,,,,,,,,0,,,48,99
19448,control_change,8,0,4,,,,,,,,0,64,0,,
19458,set_tempo,22,1,0,,,,,,743402,,,,,,
19462,set_tempo,4,1,0,,,,,,752634,,,,,,
19520,control_change,72,0,4,,,,,,,,0,64,127,,
19528,set_tempo,66,1,0,,,,,,762098,,,,,,
19536,note_on,16,0,4,,,,,,,,0,,,36,0
19536,note_on,0,0,4,,,,,,,,0,,,48,0
19560,note_on,24,0,4,,,,,,,,0,,,51,100
19560,note_on,0,0,4,,,,,,,,0,,,39,100
19593,set_tempo,65,1,0,,,,,,771803,,,,,,
19632,note_on,0,0,2,,,,,,,,0,,,80,0
19632,note_on,0,0,2,,,,,,,,0,,,68,0
19632,note_on,192,0,2,,,,,,,,0,,,78,0
19656,note_on,0,0,4,,,,,,,,0,,,51,0
19656,note_on,96,0,4,,,,,,,,0,,,39,0
19658,set_tempo,65,1,0,,,,,,781759,,,,,,
19680,note_on,48,0,2,,,,,,,,0,,,68,101
19680,note_on,24,0,4,,,,,,,,0,,,36,103
19680,note_on,0,0,4,,,,,,,,0,,,48,103
19680,note_on,0,0,2,,,,,,,,0,,,78,101
19680,note_on,0,0,2,,,,,,,,0,,,80,101
19694,control_change,14,0,4,,,,,,,,0,64,0,,
19724,set_tempo,66,1,0,,,,,,791975,,,,,,
19749,control_change,55,0,4,,,,,,,,0,64,127,,
19776,note_on,27,0,4,,,,,,,,0,,,48,0
19776,note_on,0,0,4,,,,,,,,0,,,36,0
19789,set_tempo,65,1,0,,,,,,802461,,,,,,
19800,note_on,0,0,4,,,,,,,,0,,,32,104
19800,note_on,24,0,4,,,,,,,,0,,,44,104
19855,set_tempo,66,1,0,,,,,,813229,,,,,,
19872,note_on,192,0,2,,,,,,,,0,,,78,0
19872,note_on,0,0,2,,,,,,,,0,,,80,0
19872,note_on,0,0,2,,,,,,,,0,,,68,0
19896,note_on,0,0,4,,,,,,,,0,,,44,0
19896,note_on,96,0,4,,,,,,,,0,,,32,0
19920,note_on,0,0,4,,,,,,,,0,,,29,106
19920,note_on,24,0,4,,,,,,,,0,,,41,106
19920,note_on,48,0,2,,,,,,,,0,,,90,104
19920,set_tempo,65,1,0,,,,,,802461,,,,,,
19920,note_on,0,0,2,,,,,,,,0,,,80,104
19920,note_on,0,0,2,,,,,,,,0,,,92,104
19921,set_tempo,1,1,0,,,,,,743402,,,,,,
19932,control_change,12,0,4,,,,,,,,0,64,0,,
19941,set_tempo,20,1,0,,,,,,743402,,,,,,
19943,control_change,11,0,4,,,,,,,,0,64,127,,
19976,set_tempo,35,1,0,,,,,,752634,,,,,,
20011,set_tempo,35,1,0,,,,,,762098,,,,,,
20016,note_on,73,0,4,,,,,,,,0,,,29,0
20016,note_on,0,0,4,,,,,,,,0,,,41,0
20040,note_on,24,0,4,,,,,,,,0,,,27,108
20040,note_on,0,0,4,,,,,,,,0,,,39,108
20046,set_tempo,35,1,0,,,,,,771803,,,,,,
20080,set_tempo,34,1,0,,,,,,781759,,,,,,
20112,note_on,0,0,2,,,,,,,,0,,,92,0
20112,note_on,0,0,2,,,,,,,,0,,,90,0
20112,note_on,192,0,2,,,,,,,,0,,,80,0
20115,set_tempo,35,1,0,,,,,,791975,,,,,,
20136,note_on,96,0,4,,,,,,,,0,,,39,0
20136,note_on,0,0,4,,,,,,,,0,,,27,0
20150,set_tempo,35,1,0,,,,,,802461,,,,,,
20158,control_change,22,0,4,,,,,,,,0,64,0,,
20160,note_on,48,0,2,,,,,,,,0,,,56,108
20160,note_on,2,0,4,,,,,,,,0,,,24,109
20160,note_on,0,0,4,,,,,,,,0,,,36,109
20160,note_on,0,0,2,,,,,,,,0,,,68,108
20160,note_on,0,0,2,,,,,,,,0,,,66,108
20181,control_change,21,0,4,,,,,,,,0,64,127,,
20185,set_tempo,35,1,0,,,,,,813229,,,,,,
20220,set_tempo,35,1,0,,,,,,824289,,,,,,
20255,set_tempo,35,1,0,,,,,,835655,,,,,,
20256,note_on,75,0,4,,,,,,,,0,,,36,0
20256,note_on,0,0,4,,,,,,,,0,,,24,0
20280,note_on,24,0,4,,,,,,,,0,,,32,111
20280,note_on,0,0,4,,,,,,,,0,,,44,111
20290,set_tempo,35,1,0,,,,,,847338,,,,,,
20325,set_tempo,35,1,0,,,,,,859353,,,,,,
20352,note_on,0,0,2,,,,,,,,0,,,56,0
20352,note_on,0,0,2,,,,,,,,0,,,68,0
20352,note_on,192,0,2,,,,,,,,0,,,66,0
20360,set_tempo,35,1,0,,,,,,871713,,,,,,
20376,note_on,0,0,4,,,,,,,,0,,,32,0
20376,note_on,96,0,4,,,,,,,,0,,,44,0
20395,set_tempo,35,1,0,,,,,,884434,,,,,,
20400,note_on,0,0,2,,,,,,,,0,,,80,112
20400,note_on,48,0,2,,,,,,,,0,,,92,112
20400,note_on,0,0,2,,,,,,,,0,,,90,112
20400,control_change,24,0,4,,,,,,,,0,64,0,,
20400,note_on,0,0,4,,,,,,,,0,,,41,112
20400,note_on,0,0,4,,,,,,,,0,,,29,112
20412,control_change,12,0,4,,,,,,,,0,64,127,,
20430,set_tempo,35,1,0,,,,,,897532,,,,,,
20464,set_tempo,34,1,0,,,,,,911023,,,,,,
20496,note_on,84,0,4,,,,,,,,0,,,41,0
20496,note_on,0,0,4,,,,,,,,0,,,29,0
20499,set_tempo,35,1,0,,,,,,924927,,,,,,
20520,note_on,24,0,4,,,,,,,,0,,,27,114
20520,note_on,0,0,4,,,,,,,,0,,,39,114
20534,set_tempo,35,1,0,,,,,,939261,,,,,,
20569,set_tempo,35,1,0,,,,,,954047,,,,,,
20592,note_on,192,0,2,,,,,,,,0,,,80,0
20592,note_on,0,0,2,,,,,,,,0,,,92,0
20592,note_on,0,0,2,,,,,,,,0,,,90,0
20604,set_tempo,35,1,0,,,,,,969305,,,,,,
20616,note_on,96,0,4,,,,,,,,0,,,39,0
20616,note_on,0,0,4,,,,,,,,0,,,27,0
20636,control_change,20,0,4,,,,,,,,0,64,0,,
20639,set_tempo,35,1,0,,,,,,985060,,,,,,
20640,note_on,0,0,2,,,,,,,,0,,,66,116
20640,note_on,48,0,2,,,,,,,,0,,,56,116
20640,note_on,4,0,4,,,,,,,,0,,,24,119
20640,note_on,0,0,2,,,,,,,,0,,,68,116
20640,note_on,0,0,4,,,,,,,,0,,,36,119
20644,control_change,4,0,4,,,,,,,,0,64,127,,
20674,set_tempo,35,1,0,,,,,,1001335,,,,,,
20709,set_tempo,35,1,0,,,,,,1018157,,,,,,
20736,note_on,0,0,4,,,,,,,,0,,,24,0
20736,note_on,92,0,4,,,,,,,,0,,,36,0
20744,set_tempo,35,1,0,,,,,,1035554,,,,,,
20760,note_on,24,0,4,,,,,,,,0,,,32,120
20779,set_tempo,35,1,0,,,,,,1053556,,,,,,
20814,set_tempo,35,1,0,,,,,,1072194,,,,,,
20832,note_on,0,0,2,,,,,,,,0,,,56,0
20832,note_on,192,0,2,,,,,,,,0,,,68,0
20832,note_on,0,0,2,,,,,,,,0,,,66,0
20835,note_on,3099,0,1,,,,,,,,0,,,68,119
20848,set_tempo,34,1,0,,,,,,1091504,,,,,,
20850,note_on,15,0,1,,,,,,,,0,,,77,119
20856,note_on,96,0,4,,,,,,,,0,,,32,0
20865,note_on,15,0,1,,,,,,,,0,,,80,119
20879,set_tempo,31,1,0,,,,,,1111523,,,,,,
20880,note_on,15,0,1,,,,,,,,0,,,89,120
20880,note_on,0,0,4,,,,,,,,0,,,37,122
20880,note_on,24,0,4,,,,,,,,0,,,25,122
20880,set_tempo,1,1,0,,,,,,1275239,,,,,,
20885,set_tempo,5,1,0,,,,,,1223741,,,,,,
20889,set_tempo,4,1,0,,,,,,1176240,,,,,,
20892,control_change,12,0,4,,,,,,,,0,64,0,,
20893,set_tempo,4,1,0,,,,,,1132289,,,,,,
20898,set_tempo,5,1,0,,,,,,1111523,,,,,,
20902,set_tempo,4,1,0,,,,,,1072194,,,,,,
20903,control_change,11,0,4,,,,,,,,0,64,127,,
20906,set_tempo,4,1,0,,,,,,1035554,,,,,,
20911,set_tempo,5,1,0,,,,,,1001335,,,,,,
20915,set_tempo,4,1,0,,,,,,969305,,,,,,
20920,set_tempo,5,1,0,,,,,,954047,,,,,,
20924,set_tempo,4,1,0,,,,,,924927,,,,,,
20928,set_tempo,4,1,0,,,,,,897532,,,,,,
20933,set_tempo,5,1,0,,,,,,871713,,,,,,
20937,set_tempo,4,1,0,,,,,,847338,,,,,,
20941,set_tempo,4,1,0,,,,,,835655,,,,,,
20946,set_tempo,5,1,0,,,,,,813229,,,,,,
20950,set_tempo,4,1,0,,,,,,791975,,,,,,
20954,set_tempo,4,1,0,,,,,,771803,,,,,,
20955,note_on,2979,0,3,,,,,,,,0,,,49,80
20959,set_tempo,5,1,0,,,,,,752634,,,,,,
20963,set_tempo,4,1,0,,,,,,734394,,,,,,
20970,note_on,15,0,3,,,,,,,,0,,,56,80
20976,note_on,0,0,1,,,,,,,,0,,,80,0
20976,note_on,73,0,4,,,,,,,,0,,,37,0
20976,note_on,0,0,1,,,,,,,,0,,,77,0
20976,note_on,0,0,1,,,,,,,,0,,,68,0
20976,note_on,96,0,1,,,,,,,,0,,,89,0
20976,note_on,0,0,4,,,,,,,,0,,,25,0
20985,note_on,15,0,3,,,,,,,,0,,,61,80
21000,note_on,15,0,3,,,,,,,,0,,,65,80
21030,note_on,198,0,2,,,,,,,,0,,,68,80
21045,note_on,15,0,2,,,,,,,,0,,,77,80
21048,note_on,48,0,3,,,,,,,,0,,,65,0
21048,note_on,0,0,3,,,,,,,,0,,,49,0
21048,note_on,0,0,3,,,,,,,,0,,,61,0
21048,note_on,0,0,3,,,,,,,,0,,,56,0
21060,note_on,15,0,2,,,,,,,,0,,,85,80
21075,note_on,27,0,3,,,,,,,,0,,,49,80
21090,note_on,15,0,3,,,,,,,,0,,,56,80
21105,note_on,15,0,3,,,,,,,,0,,,61,80
21108,note_on,0,0,2,,,,,,,,0,,,77,0
21108,note_on,0,0,2,,,,,,,,0,,,68,0
21108,note_on,48,0,2,,,,,,,,0,,,85,0
21120,note_on,15,0,3,,,,,,,,0,,,65,80
21150,note_on,42,0,2,,,,,,,,0,,,68,80
21165,note_on,15,0,2,,,,,,,,0,,,77,80
21168,note_on,48,0,3,,,,,,,,0,,,65,0
21168,note_on,0,0,3,,,,,,,,0,,,61,0
21168,note_on,0,0,3,,,,,,,,0,,,49,0
21168,note_on,0,0,3,,,,,,,,0,,,56,0
21180,note_on,15,0,2,,,,,,,,0,,,80,80
21210,note_on,42,0,3,,,,,,,,0,,,49,80
21225,note_on,15,0,3,,,,,,,,0,,,56,80
21228,note_on,48,0,2,,,,,,,,0,,,80,0
21228,note_on,0,0,2,,,,,,,,0,,,68,0
21228,note_on,0,0,2,,,,,,,,0,,,77,0
21240,note_on,15,0,3,,,,,,,,0,,,61,80
21270,note_on,42,0,2,,,,,,,,0,,,65,80
21285,note_on,15,0,2,,,,,,,,0,,,73,80
21288,note_on,0,0,3,,,,,,,,0,,,56,0
21288,note_on,0,0,3,,,,,,,,0,,,49,0
21288,note_on,48,0,3,,,,,,,,0,,,61,0
21300,note_on,15,0,2,,,,,,,,0,,,77,80
21330,note_on,42,0,3,,,,,,,,0,,,49,80
21345,note_on,15,0,3,,,,,,,,0,,,60,80
21348,note_on,0,0,2,,,,,,,,0,,,73,0
21348,note_on,0,0,2,,,,,,,,0,,,65,0
21348,note_on,48,0,2,,,,,,,,0,,,77,0
21360,note_on,15,0,3,,,,,,,,0,,,61,80
21390,note_on,42,0,2,,,,,,,,0,,,63,80
21405,note_on,15,0,2,,,,,,,,0,,,68,80
21408,note_on,0,0,3,,,,,,,,0,,,49,0
21408,note_on,0,0,3,,,,,,,,0,,,60,0
21408,note_on,48,0,3,,,,,,,,0,,,61,0
21420,note_on,15,0,2,,,,,,,,0,,,75,80
21450,note_on,42,0,3,,,,,,,,0,,,49,80
21465,note_on,15,0,3,,,,,,,,0,,,59,80
21468,note_on,48,0,2,,,,,,,,0,,,75,0
21468,note_on,0,0,2,,,,,,,,0,,,68,0
21468,note_on,0,0,2,,,,,,,,0,,,63,0
21480,note_on,15,0,3,,,,,,,,0,,,61,80
21510,note_on,42,0,2,,,,,,,,0,,,65,80
21525,note_on,15,0,2,,,,,,,,0,,,68,80
21528,note_on,0,0,3,,,,,,,,0,,,49,0
21528,note_on,0,0,3,,,,,,,,0,,,59,0
21528,note_on,48,0,3,,,,,,,,0,,,61,0
21540,note_on,15,0,2,,,,,,,,0,,,77,80
21570,note_on,42,0,3,,,,,,,,0,,,49,80
21585,note_on,15,0,3,,,,,,,,0,,,58,80
21588,note_on,0,0,2,,,,,,,,0,,,68,0
21588,note_on,48,0,2,,,,,,,,0,,,77,0
21588,note_on,0,0,2,,,,,,,,0,,,65,0
21600,note_on,15,0,3,,,,,,,,0,,,61,80
21630,note_on,42,0,2,,,,,,,,0,,,66,80
21645,note_on,15,0,2,,,,,,,,0,,,70,80
21648,note_on,0,0,3,,,,,,,,0,,,58,0
21648,note_on,0,0,3,,,,,,,,0,,,49,0
21648,note_on,48,0,3,,,,,,,,0,,,61,0
21660,note_on,15,0,2,,,,,,,,0,,,78,80
21675,note_on,27,0,3,,,,,,,,0,,,49,80
21690,note_on,15,0,3,,,,,,,,0,,,57,80
21705,note_on,15,0,3,,,,,,,,0,,,61,80
21708,note_on,48,0,2,,,,,,,,0,,,78,0
21708,note_on,0,0,2,,,,,,,,0,,,70,0
21708,note_on,0,0,2,,,,,,,,0,,,66,0
21720,note_on,15,0,3,,,,,,,,0,,,64,80
21750,note_on,42,0,2,,,,,,,,0,,,67,80
21765,note_on,15,0,2,,,,,,,,0,,,73,80
21768,note_on,48,0,3,,,,,,,,0,,,57,0
21768,note_on,0,0,3,,,,,,,,0,,,49,0
21777,note_on,9,0,3,,,,,,,,0,,,61,0
21777,note_on,0,0,3,,,,,,,,0,,,64,0
21780,note_on,15,0,2,,,,,,,,0,,,79,80
21795,note_on,18,0,3,,,,,,,,0,,,49,80
21810,note_on,15,0,3,,,,,,,,0,,,56,80
21825,note_on,15,0,3,,,,,,,,0,,,61,80
21828,note_on,0,0,2,,,,,,,,0,,,73,0
21828,note_on,0,0,2,,,,,,,,0,,,67,0
21828,note_on,48,0,2,,,,,,,,0,,,79,0
21840,note_on,15,0,3,,,,,,,,0,,,65,80
21840,control_change,864,0,4,,,,,,,,0,64,0,,
21855,control_change,15,0,4,,,,,,,,0,64,127,,
21870,note_on,42,0,2,,,,,,,,0,,,68,80
21885,note_on,15,0,2,,,,,,,,0,,,73,80
21888,note_on,0,0,3,,,,,,,,0,,,61,0
21888,note_on,0,0,3,,,,,,,,0,,,49,0
21888,note_on,48,0,3,,,,,,,,0,,,65,0
21888,note_on,0,0,3,,,,,,,,0,,,56,0
21900,note_on,15,0,2,,,,,,,,0,,,80,80
21915,note_on,27,0,3,,,,,,,,0,,,49,80
21930,note_on,15,0,3,,,,,,,,0,,,55,80
21945,note_on,15,0,3,,,,,,,,0,,,58,80
21948,note_on,0,0,2,,,,,,,,0,,,73,0
21948,note_on,48,0,2,,,,,,,,0,,,80,0
21948,note_on,0,0,2,,,,,,,,0,,,68,0
21960,note_on,15,0,3,,,,,,,,0,,,64,80
21975,note_on,27,0,2,,,,,,,,0,,,67,80
21990,note_on,15,0,2,,,,,,,,0,,,73,80
22005,note_on,15,0,2,,,,,,,,0,,,76,80
22008,note_on,48,0,3,,,,,,,,0,,,64,0
22008,note_on,0,0,3,,,,,,,,0,,,55,0
22008,note_on,0,0,3,,,,,,,,0,,,49,0
22008,note_on,0,0,3,,,,,,,,0,,,58,0
22020,note_on,15,0,2,,,,,,,,0,,,82,80
22035,note_on,27,0,3,,,,,,,,0,,,49,80
22050,note_on,15,0,3,,,,,,,,0,,,54,80
22065,note_on,15,0,3,,,,,,,,0,,,57,80
22068,note_on,0,0,2,,,,,,,,0,,,73,0
22068,note_on,48,0,2,,,,,,,,0,,,82,0
22068,note_on,0,0,2,,,,,,,,0,,,67,0
22068,note_on,0,0,2,,,,,,,,0,,,76,0
22079,set_tempo,1116,1,0,,,,,,752634,,,,,,
22080,note_on,15,0,3,,,,,,,,0,,,63,80
22095,note_on,27,0,2,,,,,,,,0,,,69,80
22110,note_on,15,0,2,,,,,,,,0,,,75,80
22125,note_on,15,0,2,,,,,,,,0,,,78,80
22128,note_on,0,0,3,,,,,,,,0,,,57,0
22128,note_on,48,0,3,,,,,,,,0,,,63,0
22128,note_on,0,0,3,,,,,,,,0,,,49,0
22128,note_on,0,0,3,,,,,,,,0,,,54,0
22136,set_tempo,57,1,0,,,,,,762098,,,,,,
22140,note_on,15,0,2,,,,,,,,0,,,84,80
22155,note_on,27,0,3,,,,,,,,0,,,49,80
22170,note_on,15,0,3,,,,,,,,0,,,53,80
22185,note_on,15,0,3,,,,,,,,0,,,56,80
22188,note_on,0,0,2,,,,,,,,0,,,75,0
22188,note_on,0,0,2,,,,,,,,0,,,69,0
22188,note_on,48,0,2,,,,,,,,0,,,84,0
22188,note_on,0,0,2,,,,,,,,0,,,78,0
22193,set_tempo,57,1,0,,,,,,771803,,,,,,
22200,note_on,15,0,3,,,,,,,,0,,,61,80
22215,note_on,27,0,2,,,,,,,,0,,,68,80
22230,note_on,15,0,2,,,,,,,,0,,,77,80
22245,note_on,15,0,2,,,,,,,,0,,,80,80
22248,note_on,0,0,3,,,,,,,,0,,,49,0
22248,note_on,0,0,3,,,,,,,,0,,,53,0
22248,note_on,0,0,3,,,,,,,,0,,,56,0
22248,note_on,48,0,3,,,,,,,,0,,,61,0
22249,set_tempo,56,1,0,,,,,,781759,,,,,,
22260,note_on,15,0,2,,,,,,,,0,,,85,80
22275,note_on,27,0,3,,,,,,,,0,,,49,80
22290,note_on,15,0,3,,,,,,,,0,,,51,80
22290,note_on,0,0,3,,,,,,,,0,,,54,80
22305,note_on,15,0,3,,,,,,,,0,,,56,80
22306,set_tempo,57,1,0,,,,,,791975,,,,,,
22308,note_on,48,0,2,,,,,,,,0,,,85,0
22308,note_on,0,0,2,,,,,,,,0,,,77,0
22308,note_on,0,0,2,,,,,,,,0,,,68,0
22308,note_on,0,0,2,,,,,,,,0,,,80,0
22320,note_on,15,0,3,,,,,,,,0,,,60,80
22320,control_change,465,0,4,,,,,,,,0,64,0,,
22331,control_change,11,0,4,,,,,,,,0,64,127,,
22335,note_on,27,0,2,,,,,,,,0,,,72,80
22350,note_on,15,0,2,,,,,,,,0,,,78,80
22363,set_tempo,57,1,0,,,,,,802461,,,,,,
22365,note_on,15,0,2,,,,,,,,0,,,80,80
22368,note_on,48,0,3,,,,,,,,0,,,60,0
22368,note_on,0,0,3,,,,,,,,0,,,56,0
22368,note_on,0,0,3,,,,,,,,0,,,54,0
22368,note_on,0,0,3,,,,,,,,0,,,51,0
22368,note_on,0,0,3,,,,,,,,0,,,49,0
22380,note_on,15,0,2,,,,,,,,0,,,87,80
22395,note_on,27,0,3,,,,,,,,0,,,49,80
22410,note_on,15,0,3,,,,,,,,0,,,53,80
22419,set_tempo,56,1,0,,,,,,813229,,,,,,
22425,note_on,15,0,3,,,,,,,,0,,,56,80
22428,note_on,48,0,2,,,,,,,,0,,,87,0
22428,note_on,0,0,2,,,,,,,,0,,,80,0
22428,note_on,0,0,2,,,,,,,,0,,,78,0
22428,note_on,0,0,2,,,,,,,,0,,,72,0
22440,note_on,15,0,3,,,,,,,,0,,,61,80
22455,note_on,27,0,2,,,,,,,,0,,,73,80
22470,note_on,15,0,2,,,,,,,,0,,,77,80
22476,set_tempo,57,1,0,,,,,,824289,,,,,,
22485,note_on,15,0,2,,,,,,,,0,,,80,80
22488,note_on,0,0,3,,,,,,,,0,,,49,0
22488,note_on,48,0,3,,,,,,,,0,,,61,0
22488,note_on,0,0,3,,,,,,,,0,,,56,0
22488,note_on,0,0,3,,,,,,,,0,,,53,0
22500,note_on,15,0,2,,,,,,,,0,,,89,80
22515,note_on,27,0,3,,,,,,,,0,,,49,80
22530,note_on,15,0,3,,,,,,,,0,,,54,80
22533,set_tempo,57,1,0,,,,,,835655,,,,,,
22545,note_on,15,0,3,,,,,,,,0,,,56,80
22548,note_on,0,0,2,,,,,,,,0,,,77,0
22548,note_on,0,0,2,,,,,,,,0,,,80,0
22548,note_on,0,0,2,,,,,,,,0,,,73,0
22548,note_on,48,0,2,,,,,,,,0,,,89,0
22560,note_on,15,0,3,,,,,,,,0,,,63,80
22575,note_on,27,0,2,,,,,,,,0,,,75,80
22590,note_on,15,0,2,,,,,,,,0,,,80,80
22590,set_tempo,57,1,0,,,,,,847338,,,,,,
22605,note_on,15,0,2,,,,,,,,0,,,84,80
22608,note_on,0,0,3,,,,,,,,0,,,56,0
22608,note_on,0,0,3,,,,,,,,0,,,54,0
22608,note_on,0,0,3,,,,,,,,0,,,49,0
22608,note_on,48,0,3,,,,,,,,0,,,63,0
22620,note_on,15,0,2,,,,,,,,0,,,90,80
22635,note_on,27,0,3,,,,,,,,0,,,49,80
22646,set_tempo,56,1,0,,,,,,859353,,,,,,
22650,note_on,15,0,3,,,,,,,,0,,,56,80
22665,note_on,15,0,3,,,,,,,,0,,,60,80
22668,note_on,0,0,2,,,,,,,,0,,,75,0
22668,note_on,48,0,2,,,,,,,,0,,,90,0
22668,note_on,0,0,2,,,,,,,,0,,,80,0
22668,note_on,0,0,2,,,,,,,,0,,,84,0
22680,note_on,15,0,3,,,,,,,,0,,,66,80
22695,note_on,27,0,2,,,,,,,,0,,,72,80
22703,set_tempo,57,1,0,,,,,,871713,,,,,,
22710,note_on,15,0,2,,,,,,,,0,,,78,80
22725,note_on,15,0,2,,,,,,,,0,,,80,80
22728,note_on,48,0,3,,,,,,,,0,,,66,0
22728,note_on,0,0,3,,,,,,,,0,,,60,0
22728,note_on,0,0,3,,,,,,,,0,,,56,0
22728,note_on,0,0,3,,,,,,,,0,,,49,0
22740,note_on,15,0,2,,,,,,,,0,,,87,80
22755,set_tempo,52,1,0,,,,,,884434,,,,,,
22760,set_tempo,5,1,0,,,,,,969305,,,,,,
22764,set_tempo,4,1,0,,,,,,1091504,,,,,,
22769,set_tempo,5,1,0,,,,,,1223741,,,,,,
22773,set_tempo,4,1,0,,,,,,1425178,,,,,,
22777,set_tempo,4,1,0,,,,,,1659292,,,,,,
22777,note_on,1801,0,1,,,,,,,,0,,,68,80
22782,set_tempo,5,1,0,,,,,,2052686,,,,,,
22784,note_on,7,0,1,,,,,,,,0,,,77,80
22788,note_on,48,0,2,,,,,,,,0,,,87,0
22788,note_on,0,0,2,,,,,,,,0,,,80,0
22788,note_on,0,0,2,,,,,,,,0,,,78,0
22788,note_on,0,0,2,,,,,,,,0,,,72,0
22791,note_on,7,0,1,,,,,,,,0,,,80,80
22800,note_on,469,0,4,,,,,,,,0,,,25,80
22800,note_on,9,0,1,,,,,,,,0,,,89,80
22800,note_on,0,0,4,,,,,,,,0,,,37,80
22803,set_tempo,21,1,0,,,,,,1573152,,,,,,
22811,control_change,11,0,4,,,,,,,,0,64,0,,
22818,control_change,7,0,4,,,,,,,,0,64,127,,
22838,set_tempo,35,1,0,,,,,,1275239,,,,,,
22843,set_tempo,5,1,0,,,,,,1091504,,,,,,
22847,set_tempo,4,1,0,,,,,,954047,,,,,,
22869,set_tempo,22,1,0,,,,,,939261,,,,,,
22875,note_on,147,0,3,,,,,,,,0,,,49,80
22886,set_tempo,17,1,0,,,,,,924927,,,,,,
22890,note_on,15,0,3,,,,,,,,0,,,56,80
22896,note_on,0,0,4,,,,,,,,0,,,25,0
22896,note_on,0,0,1,,,,,,,,0,,,80,0
22896,note_on,78,0,4,,,,,,,,0,,,37,0
22896,note_on,0,0,1,,,,,,,,0,,,68,0
22896,note_on,0,0,1,,,,,,,,0,,,77,0
22896,note_on,96,0,1,,,,,,,,0,,,89,0
22904,set_tempo,18,1,0,,,,,,911023,,,,,,
22905,note_on,15,0,3,,,,,,,,0,,,61,80
22920,note_on,15,0,3,,,,,,,,0,,,65,80
22926,set_tempo,22,1,0,,,,,,897532,,,,,,
22943,set_tempo,17,1,0,,,,,,884434,,,,,,
22950,note_on,162,0,2,,,,,,,,0,,,68,80
22961,set_tempo,18,1,0,,,,,,871713,,,,,,
22965,note_on,15,0,2,,,,,,,,0,,,77,80
22968,note_on,0,0,3,,,,,,,,0,,,49,0
22968,note_on,0,0,3,,,,,,,,0,,,56,0
22968,note_on,0,0,3,,,,,,,,0,,,61,0
22968,note_on,48,0,3,,,,,,,,0,,,65,0
22980,note_on,15,0,2,,,,,,,,0,,,85,80
22982,set_tempo,21,1,0,,,,,,859353,,,,,,
22995,note_on,27,0,3,,,,,,,,0,,,49,80
23000,set_tempo,18,1,0,,,,,,847338,,,,,,
23010,note_on,15,0,3,,,,,,,,0,,,56,80
23017,set_tempo,17,1,0,,,,,,835655,,,,,,
23025,note_on,15,0,3,,,,,,,,0,,,61,80
23028,note_on,0,0,2,,,,,,,,0,,,68,0
23028,note_on,0,0,2,,,,,,,,0,,,77,0
23028,note_on,48,0,2,,,,,,,,0,,,85,0
23039,set_tempo,22,1,0,,,,,,824289,,,,,,
23040,note_on,15,0,3,,,,,,,,0,,,65,80
23057,set_tempo,18,1,0,,,,,,813229,,,,,,
23070,note_on,42,0,2,,,,,,,,0,,,68,80
23074,set_tempo,17,1,0,,,,,,802461,,,,,,
23085,note_on,15,0,2,,,,,,,,0,,,77,80
23088,note_on,0,0,3,,,,,,,,0,,,49,0
23088,note_on,48,0,3,,,,,,,,0,,,65,0
23088,note_on,0,0,3,,,,,,,,0,,,56,0
23088,note_on,0,0,3,,,,,,,,0,,,61,0
23096,set_tempo,22,1,0,,,,,,791975,,,,,,
23100,note_on,15,0,2,,,,,,,,0,,,80,80
23113,set_tempo,17,1,0,,,,,,781759,,,,,,
23130,note_on,42,0,3,,,,,,,,0,,,49,80
23131,set_tempo,18,1,0,,,,,,771803,,,,,,
23145,note_on,15,0,3,,,,,,,,0,,,56,80
23148,note_on,48,0,2,,,,,,,,0,,,80,0
23148,note_on,0,0,2,,,,,,,,0,,,77,0
23148,note_on,0,0,2,,,,,,,,0,,,68,0
23153,set_tempo,22,1,0,,,,,,762098,,,,,,
23160,note_on,15,0,3,,,,,,,,0,,,61,80
23170,set_tempo,17,1,0,,,,,,752634,,,,,,
23187,set_tempo,17,1,0,,,,,,743402,,,,,,
23190,note_on,42,0,2,,,,,,,,0,,,65,80
23205,note_on,15,0,2,,,,,,,,0,,,73,80
23205,set_tempo,18,1,0,,,,,,734394,,,,,,
23208,note_on,0,0,3,,,,,,,,0,,,49,0
23208,note_on,0,0,3,,,,,,,,0,,,56,0
23208,note_on,48,0,3,,,,,,,,0,,,61,0
23211,set_tempo,6,1,0,,,,,,734394,,,,,,
23218,set_tempo,7,1,0,,,,,,734394,,,,,,
23220,note_on,15,0,2,,,,,,,,0,,,77,80
23250,note_on,42,0,3,,,,,,,,0,,,49,80
23265,note_on,15,0,3,,,,,,,,0,,,60,80
23268,note_on,0,0,2,,,,,,,,0,,,65,0
23268,note_on,48,0,2,,,,,,,,0,,,77,0
23268,note_on,0,0,2,,,,,,,,0,,,73,0
23280,note_on,15,0,3,,,,,,,,0,,,61,80
23310,note_on,42,0,2,,,,,,,,0,,,63,80
23325,note_on,15,0,2,,,,,,,,0,,,68,80
23328,note_on,0,0,3,,,,,,,,0,,,49,0
23328,note_on,48,0,3,,,,,,,,0,,,61,0
23328,note_on,0,0,3,,,,,,,,0,,,60,0
23340,note_on,15,0,2,,,,,,,,0,,,75,80
23370,note_on,42,0,3,,,,,,,,0,,,49,80
23385,note_on,15,0,3,,,,,,,,0,,,59,80
23388,note_on,48,0,2,,,,,,,,0,,,75,0
23388,note_on,0,0,2,,,,,,,,0,,,63,0
23388,note_on,0,0,2,,,,,,,,0,,,68,0
23400,note_on,15,0,3,,,,,,,,0,,,61,80
23430,note_on,42,0,2,,,,,,,,0,,,65,80
23445,note_on,15,0,2,,,,,,,,0,,,68,80
23448,note_on,48,0,3,,,,,,,,0,,,61,0
23448,note_on,0,0,3,,,,,,,,0,,,49,0
23448,note_on,0,0,3,,,,,,,,0,,,59,0
23460,note_on,15,0,2,,,,,,,,0,,,77,80
23490,note_on,42,0,3,,,,,,,,0,,,49,80
23505,note_on,15,0,3,,,,,,,,0,,,58,80
23508,note_on,0,0,2,,,,,,,,0,,,65,0
23508,note_on,0,0,2,,,,,,,,0,,,68,0
23508,note_on,48,0,2,,,,,,,,0,,,77,0
23520,note_on,15,0,3,,,,,,,,0,,,61,80
23550,note_on,42,0,2,,,,,,,,0,,,66,80
23565,note_on,15,0,2,,,,,,,,0,,,70,80
23568,note_on,0,0,3,,,,,,,,0,,,49,0
23568,note_on,0,0,3,,,,,,,,0,,,58,0
23568,note_on,48,0,3,,,,,,,,0,,,61,0
23580,note_on,15,0,2,,,,,,,,0,,,78,80
23595,note_on,27,0,3,,,,,,,,0,,,49,80
23610,note_on,15,0,3,,,,,,,,0,,,57,80
23625,note_on,15,0,3,,,,,,,,0,,,61,80
23628,note_on,0,0,2,,,,,,,,0,,,66,0
23628,note_on,0,0,2,,,,,,,,0,,,70,0
23628,note_on,48,0,2,,,,,,,,0,,,78,0
23640,note_on,15,0,3,,,,,,,,0,,,64,80
23670,note_on,42,0,2,,,,,,,,0,,,67,80
23685,note_on,15,0,2,,,,,,,,0,,,73,80
23688,note_on,0,0,3,,,,,,,,0,,,49,0
23688,note_on,48,0,3,,,,,,,,0,,,57,0
23697,note_on,0,0,3,,,,,,,,0,,,64,0
23697,note_on,9,0,3,,,,,,,,0,,,61,0
23700,note_on,15,0,2,,,,,,,,0,,,79,80
23715,note_on,18,0,3,,,,,,,,0,,,49,80
23730,note_on,15,0,3,,,,,,,,0,,,56,80
23745,note_on,15,0,3,,,,,,,,0,,,61,80
23748,note_on,48,0,2,,,,,,,,0,,,79,0
23748,note_on,0,0,2,,,,,,,,0,,,73,0
23748,note_on,0,0,2,,,,,,,,0,,,67,0
23760,note_on,15,0,3,,,,,,,,0,,,65,80
23760,control_change,864,0,4,,,,,,,,0,64,0,,
23775,control_change,15,0,4,,,,,,,,0,64,127,,
23790,note_on,42,0,2,,,,,,,,0,,,68,80
23805,note_on,15,0,2,,,,,,,,0,,,73,80
23808,note_on,0,0,3,,,,,,,,0,,,56,0
23808,note_on,48,0,3,,,,,,,,0,,,65,0
23808,note_on,0,0,3,,,,,,,,0,,,49,0
23808,note_on,0,0,3,,,,,,,,0,,,61,0
23820,note_on,15,0,2,,,,,,,,0,,,80,80
23835,note_on,27,0,3,,,,,,,,0,,,49,80
23850,note_on,15,0,3,,,,,,,,0,,,55,80
23865,note_on,15,0,3,,,,,,,,0,,,58,80
23868,note_on,0,0,2,,,,,,,,0,,,68,0
23868,note_on,48,0,2,,,,,,,,0,,,80,0
23868,note_on,0,0,2,,,,,,,,0,,,73,0
23880,note_on,15,0,3,,,,,,,,0,,,64,80
23895,note_on,27,0,2,,,,,,,,0,,,67,80
23910,note_on,15,0,2,,,,,,,,0,,,73,80
23925,note_on,15,0,2,,,,,,,,0,,,76,80
23928,note_on,48,0,3,,,,,,,,0,,,64,0
23928,note_on,0,0,3,,,,,,,,0,,,58,0
23928,note_on,0,0,3,,,,,,,,0,,,55,0
23928,note_on,0,0,3,,,,,,,,0,,,49,0
23940,note_on,15,0,2,,,,,,,,0,,,82,80
23955,note_on,27,0,3,,,,,,,,0,,,49,80
23970,note_on,15,0,3,,,,,,,,0,,,54,80
23985,note_on,15,0,3,,,,,,,,0,,,57,80
23988,note_on,0,0,2,,,,,,,,0,,,76,0
23988,note_on,48,0,2,,,,,,,,0,,,82,0
23988,note_on,0,0,2,,,,,,,,0,,,67,0
23988,note_on,0,0,2,,,,,,,,0,,,73,0
23990,set_tempo,772,1,0,,,,,,717017,,,,,,
24000,note_on,15,0,3,,,,,,,,0,,,63,80
24015,note_on,27,0,2,,,,,,,,0,,,69,80
24030,note_on,15,0,2,,,,,,,,0,,,75,80
24033,set_tempo,43,1,0,,,,,,725602,,,,,,
24045,note_on,15,0,2,,,,,,,,0,,,78,80
24048,note_on,48,0,3,,,,,,,,0,,,63,0
24048,note_on,0,0,3,,,,,,,,0,,,49,0
24048,note_on,0,0,3,,,,,,,,0,,,54,0
24048,note_on,0,0,3,,,,,,,,0,,,57,0
24060,note_on,15,0,2,,,,,,,,0,,,84,80
24075,note_on,27,0,3,,,,,,,,0,,,49,80
24077,set_tempo,44,1,0,,,,,,734394,,,,,,
24090,note_on,15,0,3,,,,,,,,0,,,53,80
24105,note_on,15,0,3,,,,,,,,0,,,56,80
24108,note_on,0,0,2,,,,,,,,0,,,69,0
24108,note_on,0,0,2,,,,,,,,0,,,78,0
24108,note_on,0,0,2,,,,,,,,0,,,75,0
24108,note_on,48,0,2,,,,,,,,0,,,84,0
24120,note_on,15,0,3,,,,,,,,0,,,61,80
24121,set_tempo,44,1,0,,,,,,743402,,,,,,
24135,note_on,27,0,2,,,,,,,,0,,,68,80
24150,note_on,15,0,2,,,,,,,,0,,,77,80
24164,set_tempo,43,1,0,,,,,,752634,,,,,,
24165,note_on,15,0,2,,,,,,,,0,,,80,80
24168,note_on,0,0,3,,,,,,,,0,,,49,0
24168,note_on,0,0,3,,,,,,,,0,,,56,0
24168,note_on,48,0,3,,,,,,,,0,,,61,0
24168,note_on,0,0,3,,,,,,,,0,,,53,0
24180,note_on,15,0,2,,,,,,,,0,,,85,80
24195,note_on,27,0,3,,,,,,,,0,,,49,80
24204,set_tempo,40,1,0,,,,,,762098,,,,,,
24210,note_on,0,0,3,,,,,,,,0,,,51,80
24210,note_on,15,0,3,,,,,,,,0,,,54,80
24225,note_on,15,0,3,,,,,,,,0,,,56,80
24228,note_on,0,0,2,,,,,,,,0,,,77,0
24228,note_on,0,0,2,,,,,,,,0,,,68,0
24228,note_on,48,0,2,,,,,,,,0,,,85,0
24228,note_on,0,0,2,,,,,,,,0,,,80,0
24240,note_on,15,0,3,,,,,,,,0,,,60,80
24247,set_tempo,43,1,0,,,,,,771803,,,,,,
24255,note_on,27,0,2,,,,,,,,0,,,72,80
24255,control_change,480,0,4,,,,,,,,0,64,0,,
24269,control_change,14,0,4,,,,,,,,0,64,127,,
24270,note_on,15,0,2,,,,,,,,0,,,78,80
24285,note_on,15,0,2,,,,,,,,0,,,80,80
24288,note_on,48,0,3,,,,,,,,0,,,60,0
24288,note_on,0,0,3,,,,,,,,0,,,56,0
24288,note_on,0,0,3,,,,,,,,0,,,54,0
24288,note_on,0,0,3,,,,,,,,0,,,51,0
24288,note_on,0,0,3,,,,,,,,0,,,49,0
24291,set_tempo,44,1,0,,,,,,781759,,,,,,
24300,note_on,15,0,2,,,,,,,,0,,,87,80
24315,note_on,27,0,3,,,,,,,,0,,,49,80
24330,note_on,15,0,3,,,,,,,,0,,,53,80
24334,set_tempo,43,1,0,,,,,,791975,,,,,,
24345,note_on,15,0,3,,,,,,,,0,,,56,80
24348,note_on,48,0,2,,,,,,,,0,,,87,0
24348,note_on,0,0,2,,,,,,,,0,,,72,0
24348,note_on,0,0,2,,,,,,,,0,,,78,0
24348,note_on,0,0,2,,,,,,,,0,,,80,0
24360,note_on,15,0,3,,,,,,,,0,,,61,80
24374,set_tempo,40,1,0,,,,,,802461,,,,,,
24375,note_on,27,0,2,,,,,,,,0,,,73,80
24390,note_on,15,0,2,,,,,,,,0,,,77,80
24405,note_on,15,0,2,,,,,,,,0,,,80,80
24408,note_on,0,0,3,,,,,,,,0,,,53,0
24408,note_on,48,0,3,,,,,,,,0,,,61,0
24408,note_on,0,0,3,,,,,,,,0,,,49,0
24408,note_on,0,0,3,,,,,,,,0,,,56,0
24417,set_tempo,43,1,0,,,,,,813229,,,,,,
24420,note_on,15,0,2,,,,,,,,0,,,89,80
24435,note_on,27,0,3,,,,,,,,0,,,49,80
24450,note_on,15,0,3,,,,,,,,0,,,54,80
24461,set_tempo,44,1,0,,,,,,824289,,,,,,
24465,note_on,15,0,3,,,,,,,,0,,,56,80
24468,note_on,0,0,2,,,,,,,,0,,,80,0
24468,note_on,48,0,2,,,,,,,,0,,,89,0
24468,note_on,0,0,2,,,,,,,,0,,,77,0
24468,note_on,0,0,2,,,,,,,,0,,,73,0
24480,note_on,15,0,3,,,,,,,,0,,,63,80
24495,note_on,27,0,2,,,,,,,,0,,,75,80
24505,set_tempo,44,1,0,,,,,,835655,,,,,,
24510,note_on,15,0,2,,,,,,,,0,,,80,80
24525,note_on,15,0,2,,,,,,,,0,,,84,80
24528,note_on,0,0,3,,,,,,,,0,,,49,0
24528,note_on,0,0,3,,,,,,,,0,,,56,0
24528,note_on,48,0,3,,,,,,,,0,,,63,0
24528,note_on,0,0,3,,,,,,,,0,,,54,0
24540,note_on,15,0,2,,,,,,,,0,,,90,80
24544,set_tempo,39,1,0,,,,,,847338,,,,,,
24555,note_on,27,0,3,,,,,,,,0,,,49,80
24570,note_on,15,0,3,,,,,,,,0,,,56,80
24585,note_on,15,0,3,,,,,,,,0,,,60,80
24588,note_on,0,0,2,,,,,,,,0,,,75,0
24588,note_on,0,0,2,,,,,,,,0,,,80,0
24588,note_on,0,0,2,,,,,,,,0,,,84,0
24588,note_on,48,0,2,,,,,,,,0,,,90,0
24588,set_tempo,44,1,0,,,,,,859353,,,,,,
24600,note_on,15,0,3,,,,,,,,0,,,66,80
24615,note_on,27,0,2,,,,,,,,0,,,72,80
24630,note_on,15,0,2,,,,,,,,0,,,78,80
24631,set_tempo,43,1,0,,,,,,871713,,,,,,
24645,note_on,15,0,2,,,,,,,,0,,,80,80
24648,note_on,0,0,3,,,,,,,,0,,,56,0
24648,note_on,48,0,3,,,,,,,,0,,,66,0
24648,note_on,0,0,3,,,,,,,,0,,,49,0
24648,note_on,0,0,3,,,,,,,,0,,,60,0
24660,note_on,15,0,2,,,,,,,,0,,,87,80
24675,set_tempo,44,1,0,,,,,,884434,,,,,,
24688,set_tempo,13,1,0,,,,,,1132289,,,,,,
24692,set_tempo,4,1,0,,,,,,1985440,,,,,,
24697,note_on,428,0,4,,,,,,,,0,,,49,80
24697,note_on,1801,0,1,,,,,,,,0,,,68,80
24704,note_on,7,0,4,,,,,,,,0,,,56,80
24704,note_on,7,0,1,,,,,,,,0,,,77,80
24708,note_on,0,0,2,,,,,,,,0,,,78,0
24708,note_on,48,0,2,,,,,,,,0,,,87,0
24708,note_on,0,0,2,,,,,,,,0,,,72,0
24708,note_on,0,0,2,,,,,,,,0,,,80,0
24711,note_on,7,0,1,,,,,,,,0,,,80,80
24711,note_on,7,0,4,,,,,,,,0,,,61,80
24720,note_on,9,0,1,,,,,,,,0,,,89,80
24720,control_change,9,0,4,,,,,,,,0,64,0,,
24720,note_on,0,0,4,,,,,,,,0,,,65,80
24737,control_change,17,0,4,,,,,,,,0,64,127,,
24745,set_tempo,53,1,0,,,,,,2201835,,,,,,
24749,set_tempo,4,1,0,,,,,,1705999,,,,,,
24753,set_tempo,4,1,0,,,,,,1392434,,,,,,
24758,set_tempo,5,1,0,,,,,,1176240,,,,,,
24762,set_tempo,4,1,0,,,,,,1018157,,,,,,
24766,set_tempo,4,1,0,,,,,,897532,,,,,,
24780,set_tempo,14,1,0,,,,,,871713,,,,,,
24795,note_on,147,0,3,,,,,,,,0,,,53,80
24810,note_on,15,0,3,,,,,,,,0,,,56,80
24810,set_tempo,30,1,0,,,,,,859353,,,,,,
24816,note_on,0,0,4,,,,,,,,0,,,56,0
24816,note_on,0,0,4,,,,,,,,0,,,61,0
24816,note_on,96,0,1,,,,,,,,0,,,89,0
24816,note_on,0,0,4,,,,,,,,0,,,49,0
24816,note_on,79,0,4,,,,,,,,0,,,65,0
24816,note_on,0,0,1,,,,,,,,0,,,80,0
24816,note_on,0,0,1,,,,,,,,0,,,77,0
24816,note_on,0,0,1,,,,,,,,0,,,68,0
24825,note_on,15,0,3,,,,,,,,0,,,61,80
24840,note_on,15,0,3,,,,,,,,0,,,68,80
24845,set_tempo,35,1,0,,,,,,847338,,,,,,
24870,note_on,162,0,2,,,,,,,,0,,,73,80
24876,set_tempo,31,1,0,,,,,,835655,,,,,,
24885,note_on,15,0,2,,,,,,,,0,,,80,80
24888,note_on,48,0,3,,,,,,,,0,,,68,0
24888,note_on,0,0,3,,,,,,,,0,,,61,0
24888,note_on,0,0,3,,,,,,,,0,,,53,0
24888,note_on,0,0,3,,,,,,,,0,,,56,0
24900,note_on,15,0,2,,,,,,,,0,,,85,80
24906,set_tempo,30,1,0,,,,,,824289,,,,,,
24915,note_on,27,0,3,,,,,,,,0,,,51,80
24930,note_on,15,0,3,,,,,,,,0,,,56,80
24937,set_tempo,31,1,0,,,,,,813229,,,,,,
24945,note_on,15,0,3,,,,,,,,0,,,60,80
24948,note_on,0,0,2,,,,,,,,0,,,73,0
24948,note_on,0,0,2,,,,,,,,0,,,80,0
24948,note_on,48,0,2,,,,,,,,0,,,85,0
24960,note_on,15,0,3,,,,,,,,0,,,68,80
24972,set_tempo,35,1,0,,,,,,802461,,,,,,
24990,note_on,42,0,2,,,,,,,,0,,,72,80
25002,set_tempo,30,1,0,,,,,,791975,,,,,,
25005,note_on,15,0,2,,,,,,,,0,,,80,80
25008,note_on,0,0,3,,,,,,,,0,,,60,0
25008,note_on,0,0,3,,,,,,,,0,,,56,0
25008,note_on,0,0,3,,,,,,,,0,,,51,0
25008,note_on,48,0,3,,,,,,,,0,,,68,0
25020,note_on,15,0,2,,,,,,,,0,,,84,80
25033,set_tempo,31,1,0,,,,,,781759,,,,,,
25035,note_on,27,0,3,,,,,,,,0,,,49,80
25050,note_on,15,0,3,,,,,,,,0,,,56,80
25063,set_tempo,30,1,0,,,,,,771803,,,,,,
25065,note_on,15,0,3,,,,,,,,0,,,58,80
25068,note_on,0,0,2,,,,,,,,0,,,80,0
25068,note_on,48,0,2,,,,,,,,0,,,84,0
25068,note_on,0,0,2,,,,,,,,0,,,72,0
25080,note_on,15,0,3,,,,,,,,0,,,68,80
25098,set_tempo,35,1,0,,,,,,762098,,,,,,
25110,note_on,42,0,2,,,,,,,,0,,,70,80
25125,note_on,15,0,2,,,,,,,,0,,,80,80
25128,note_on,0,0,3,,,,,,,,0,,,56,0
25128,note_on,48,0,3,,,,,,,,0,,,68,0
25128,note_on,0,0,3,,,,,,,,0,,,49,0
25128,note_on,0,0,3,,,,,,,,0,,,58,0
25129,set_tempo,31,1,0,,,,,,752634,,,,,,
25140,note_on,15,0,2,,,,,,,,0,,,82,80
25159,set_tempo,30,1,0,,,,,,743402,,,,,,
25170,note_on,42,0,3,,,,,,,,0,,,48,80
25185,note_on,15,0,3,,,,,,,,0,,,56,80
25188,note_on,48,0,2,,,,,,,,0,,,82,0
25188,note_on,0,0,2,,,,,,,,0,,,80,0
25188,note_on,0,0,2,,,,,,,,0,,,70,0
25190,set_tempo,31,1,0,,,,,,734394,,,,,,
25200,note_on,15,0,3,,,,,,,,0,,,68,80
25230,note_on,42,0,2,,,,,,,,0,,,75,80
25245,note_on,15,0,2,,,,,,,,0,,,80,80
25248,note_on,0,0,3,,,,,,,,0,,,48,0
25248,note_on,0,0,3,,,,,,,,0,,,56,0
25248,note_on,48,0,3,,,,,,,,0,,,68,0
25260,note_on,15,0,2,,,,,,,,0,,,87,80
25275,note_on,27,0,3,,,,,,,,0,,,53,80
25290,note_on,15,0,3,,,,,,,,0,,,56,80
25305,note_on,15,0,3,,,,,,,,0,,,61,80
25308,note_on,0,0,2,,,,,,,,0,,,75,0
25308,note_on,0,0,2,,,,,,,,0,,,80,0
25308,note_on,48,0,2,,,,,,,,0,,,87,0
25320,note_on,15,0,3,,,,,,,,0,,,68,80
25350,note_on,42,0,2,,,,,,,,0,,,73,80
25365,note_on,15,0,2,,,,,,,,0,,,80,80
25368,note_on,48,0,3,,,,,,,,0,,,68,0
25368,note_on,0,0,3,,,,,,,,0,,,53,0
25368,note_on,0,0,3,,,,,,,,0,,,56,0
25368,note_on,0,0,3,,,,,,,,0,,,61,0
25380,note_on,15,0,2,,,,,,,,0,,,85,80
25395,note_on,27,0,3,,,,,,,,0,,,51,80
25410,note_on,15,0,3,,,,,,,,0,,,56,80
25425,note_on,15,0,3,,,,,,,,0,,,60,80
25428,note_on,48,0,2,,,,,,,,0,,,85,0
25428,note_on,0,0,2,,,,,,,,0,,,80,0
25428,note_on,0,0,2,,,,,,,,0,,,73,0
25440,note_on,15,0,3,,,,,,,,0,,,68,80
25470,note_on,42,0,2,,,,,,,,0,,,72,80
25485,note_on,15,0,2,,,,,,,,0,,,80,80
25488,note_on,0,0,3,,,,,,,,0,,,56,0
25488,note_on,48,0,3,,,,,,,,0,,,68,0
25488,note_on,0,0,3,,,,,,,,0,,,51,0
25488,note_on,0,0,3,,,,,,,,0,,,60,0
25500,note_on,15,0,2,,,,,,,,0,,,84,80
25515,note_on,27,0,3,,,,,,,,0,,,49,80
25530,note_on,15,0,3,,,,,,,,0,,,56,80
25545,note_on,15,0,3,,,,,,,,0,,,58,80
25548,note_on,0,0,2,,,,,,,,0,,,80,0
25548,note_on,0,0,2,,,,,,,,0,,,72,0
25548,note_on,48,0,2,,,,,,,,0,,,84,0
25560,note_on,15,0,3,,,,,,,,0,,,68,80
25590,note_on,42,0,2,,,,,,,,0,,,70,80
25605,note_on,15,0,2,,,,,,,,0,,,80,80
25608,note_on,0,0,3,,,,,,,,0,,,58,0
25608,note_on,48,0,3,,,,,,,,0,,,68,0
25608,note_on,0,0,3,,,,,,,,0,,,49,0
25608,note_on,0,0,3,,,,,,,,0,,,56,0
25620,note_on,15,0,2,,,,,,,,0,,,82,80
25650,note_on,42,0,3,,,,,,,,0,,,48,80
25665,note_on,15,0,3,,,,,,,,0,,,56,80
25668,note_on,0,0,2,,,,,,,,0,,,70,0
25668,note_on,0,0,2,,,,,,,,0,,,80,0
25668,note_on,48,0,2,,,,,,,,0,,,82,0
25680,control_change,864,0,4,,,,,,,,0,64,0,,
25680,note_on,15,0,3,,,,,,,,0,,,68,80
25708,control_change,28,0,4,,,,,,,,0,64,127,,
25725,note_on,57,0,2,,,,,,,,0,,,68,80
25728,note_on,48,0,3,,,,,,,,0,,,68,0
25728,note_on,0,0,3,,,,,,,,0,,,48,0
25728,note_on,0,0,3,,,,,,,,0,,,56,0
25740,note_on,15,0,2,,,,,,,,0,,,80,80
25755,note_on,27,0,3,,,,,,,,0,,,52,80
25770,note_on,15,0,3,,,,,,,,0,,,56,80
25785,note_on,15,0,3,,,,,,,,0,,,61,80
25788,note_on,48,0,2,,,,,,,,0,,,80,0
25788,note_on,0,0,2,,,,,,,,0,,,68,0
25800,note_on,15,0,3,,,,,,,,0,,,68,80
25830,note_on,42,0,2,,,,,,,,0,,,73,80
25845,note_on,15,0,2,,,,,,,,0,,,80,80
25848,note_on,0,0,3,,,,,,,,0,,,61,0
25848,note_on,48,0,3,,,,,,,,0,,,68,0
25848,note_on,0,0,3,,,,,,,,0,,,56,0
25848,note_on,0,0,3,,,,,,,,0,,,52,0
25860,note_on,15,0,2,,,,,,,,0,,,85,80
25875,note_on,27,0,3,,,,,,,,0,,,51,80
25890,note_on,15,0,3,,,,,,,,0,,,56,80
25905,note_on,15,0,3,,,,,,,,0,,,59,80
25908,note_on,0,0,2,,,,,,,,0,,,73,0
25908,note_on,48,0,2,,,,,,,,0,,,85,0
25908,note_on,0,0,2,,,,,,,,0,,,80,0
25918,set_tempo,728,1,0,,,,,,743402,,,,,,
25920,note_on,15,0,3,,,,,,,,0,,,68,80
25922,set_tempo,4,1,0,,,,,,752634,,,,,,
25950,note_on,42,0,2,,,,,,,,0,,,71,80
25952,set_tempo,30,1,0,,,,,,762098,,,,,,
25965,note_on,15,0,2,,,,,,,,0,,,80,80
25968,note_on,48,0,3,,,,,,,,0,,,68,0
25968,note_on,0,0,3,,,,,,,,0,,,59,0
25968,note_on,0,0,3,,,,,,,,0,,,56,0
25968,note_on,0,0,3,,,,,,,,0,,,51,0
25980,note_on,15,0,2,,,,,,,,0,,,83,80
25983,set_tempo,31,1,0,,,,,,771803,,,,,,
25995,note_on,27,0,3,,,,,,,,0,,,49,80
26010,note_on,15,0,3,,,,,,,,0,,,56,80
26014,set_tempo,31,1,0,,,,,,781759,,,,,,
26025,note_on,15,0,3,,,,,,,,0,,,58,80
26028,note_on,48,0,2,,,,,,,,0,,,83,0
26028,note_on,0,0,2,,,,,,,,0,,,71,0
26028,note_on,0,0,2,,,,,,,,0,,,80,0
26040,note_on,15,0,3,,,,,,,,0,,,68,80
26044,set_tempo,30,1,0,,,,,,791975,,,,,,
26070,note_on,42,0,2,,,,,,,,0,,,70,80
26075,set_tempo,31,1,0,,,,,,802461,,,,,,
26085,note_on,15,0,2,,,,,,,,0,,,80,80
26088,note_on,0,0,3,,,,,,,,0,,,49,0
26088,note_on,48,0,3,,,,,,,,0,,,68,0
26088,note_on,0,0,3,,,,,,,,0,,,56,0
26088,note_on,0,0,3,,,,,,,,0,,,58,0
26100,note_on,15,0,2,,,,,,,,0,,,82,80
26105,set_tempo,30,1,0,,,,,,813229,,,,,,
26130,note_on,42,0,3,,,,,,,,0,,,47,80
26136,set_tempo,31,1,0,,,,,,824289,,,,,,
26145,note_on,15,0,3,,,,,,,,0,,,56,80
26148,note_on,0,0,2,,,,,,,,0,,,70,0
26148,note_on,48,0,2,,,,,,,,0,,,82,0
26148,note_on,0,0,2,,,,,,,,0,,,80,0
26160,note_on,15,0,3,,,,,,,,0,,,68,80
26171,set_tempo,35,1,0,,,,,,835655,,,,,,
26188,control_change,480,0,4,,,,,,,,0,64,0,,
26190,note_on,42,0,2,,,,,,,,0,,,75,80
26201,set_tempo,30,1,0,,,,,,847338,,,,,,
26205,note_on,15,0,2,,,,,,,,0,,,80,80
26208,note_on,48,0,3,,,,,,,,0,,,68,0
26208,note_on,0,0,3,,,,,,,,0,,,56,0
26208,note_on,0,0,3,,,,,,,,0,,,47,0
26210,control_change,22,0,4,,,,,,,,0,64,127,,
26220,note_on,15,0,2,,,,,,,,0,,,87,80
26232,set_tempo,31,1,0,,,,,,859353,,,,,,
26235,note_on,27,0,3,,,,,,,,0,,,52,80
26250,note_on,15,0,3,,,,,,,,0,,,56,80
26262,set_tempo,30,1,0,,,,,,871713,,,,,,
26265,note_on,15,0,3,,,,,,,,0,,,61,80
26268,note_on,0,0,2,,,,,,,,0,,,80,0
26268,note_on,0,0,2,,,,,,,,0,,,75,0
26268,note_on,48,0,2,,,,,,,,0,,,87,0
26280,note_on,15,0,3,,,,,,,,0,,,67,80
26293,set_tempo,31,1,0,,,,,,884434,,,,,,
26310,note_on,42,0,2,,,,,,,,0,,,73,80
26323,set_tempo,30,1,0,,,,,,897532,,,,,,
26325,note_on,15,0,2,,,,,,,,0,,,79,80
26328,note_on,0,0,3,,,,,,,,0,,,52,0
26328,note_on,48,0,3,,,,,,,,0,,,67,0
26328,note_on,0,0,3,,,,,,,,0,,,56,0
26328,note_on,0,0,3,,,,,,,,0,,,61,0
26340,note_on,15,0,2,,,,,,,,0,,,85,80
26354,set_tempo,31,1,0,,,,,,911023,,,,,,
26355,note_on,27,0,3,,,,,,,,0,,,54,80
26370,note_on,15,0,3,,,,,,,,0,,,59,80
26384,set_tempo,30,1,0,,,,,,924927,,,,,,
26385,note_on,15,0,3,,,,,,,,0,,,63,80
26388,note_on,0,0,2,,,,,,,,0,,,73,0
26388,note_on,0,0,2,,,,,,,,0,,,79,0
26388,note_on,48,0,2,,,,,,,,0,,,85,0
26400,note_on,15,0,3,,,,,,,,0,,,66,80
26415,note_on,27,0,2,,,,,,,,0,,,75,80
26419,set_tempo,35,1,0,,,,,,939261,,,,,,
26430,note_on,15,0,2,,,,,,,,0,,,78,80
26445,note_on,15,0,2,,,,,,,,0,,,83,80
26448,note_on,48,0,3,,,,,,,,0,,,66,0
26448,note_on,0,0,3,,,,,,,,0,,,63,0
26448,note_on,0,0,3,,,,,,,,0,,,59,0
26448,note_on,0,0,3,,,,,,,,0,,,54,0
26450,set_tempo,31,1,0,,,,,,954047,,,,,,
26460,note_on,15,0,2,,,,,,,,0,,,90,80
26480,set_tempo,30,1,0,,,,,,969305,,,,,,
26490,note_on,42,0,3,,,,,,,,0,,,42,80
26505,note_on,15,0,3,,,,,,,,0,,,54,80
26508,note_on,0,0,2,,,,,,,,0,,,83,0
26508,note_on,0,0,2,,,,,,,,0,,,75,0
26508,note_on,48,0,2,,,,,,,,0,,,90,0
26508,note_on,0,0,2,,,,,,,,0,,,78,0
26511,set_tempo,31,1,0,,,,,,985060,,,,,,
26520,note_on,15,0,3,,,,,,,,0,,,61,80
26542,set_tempo,31,1,0,,,,,,1001335,,,,,,
26550,note_on,42,0,2,,,,,,,,0,,,70,80
26565,note_on,15,0,2,,,,,,,,0,,,76,80
26568,note_on,0,0,3,,,,,,,,0,,,42,0
26568,note_on,48,0,3,,,,,,,,0,,,61,0
26568,note_on,0,0,3,,,,,,,,0,,,54,0
26572,set_tempo,30,1,0,,,,,,1018157,,,,,,
26580,note_on,15,0,2,,,,,,,,0,,,82,80
26603,set_tempo,31,1,0,,,,,,1035554,,,,,,
26610,note_on,400,0,4,,,,,,,,0,,,47,80
26625,note_on,15,0,4,,,,,,,,0,,,54,80
26628,note_on,48,0,2,,,,,,,,0,,,82,0
26628,note_on,0,0,2,,,,,,,,0,,,70,0
26628,note_on,0,0,2,,,,,,,,0,,,76,0
26637,set_tempo,34,1,0,,,,,,1035554,,,,,,
26640,note_on,0,0,1,,,,,,,,0,,,83,80
26640,note_on,1824,0,1,,,,,,,,0,,,71,80
26640,note_on,0,0,1,,,,,,,,0,,,75,80
26640,note_on,15,0,4,,,,,,,,0,,,59,80
26640,control_change,0,0,4,,,,,,,,0,64,0,,
26642,set_tempo,5,1,0,,,,,,1018157,,,,,,
26646,set_tempo,4,1,0,,,,,,1705999,,,,,,
26650,set_tempo,4,1,0,,,,,,1573152,,,,,,
26655,set_tempo,5,1,0,,,,,,1495513,,,,,,
26659,set_tempo,4,1,0,,,,,,1392434,,,,,,
26663,set_tempo,4,1,0,,,,,,1331262,,,,,,
26668,set_tempo,5,1,0,,,,,,1275239,,,,,,
26672,set_tempo,4,1,0,,,,,,1199520,,,,,,
26676,set_tempo,4,1,0,,,,,,1153846,,,,,,
26681,set_tempo,5,1,0,,,,,,1091504,,,,,,
26685,set_tempo,4,1,0,,,,,,1053556,,,,,,
26690,set_tempo,5,1,0,,,,,,1018157,,,,,,
26694,set_tempo,4,1,0,,,,,,1018157,,,,,,
26698,set_tempo,4,1,0,,,,,,1001335,,,,,,
26700,control_change,60,0,4,,,,,,,,0,64,127,,
26703,set_tempo,5,1,0,,,,,,969305,,,,,,
26707,set_tempo,4,1,0,,,,,,954047,,,,,,
26734,set_tempo,27,1,0,,,,,,939261,,,,,,
26736,note_on,96,0,1,,,,,,,,0,,,75,0
26736,note_on,36,0,4,,,,,,,,0,,,59,0
26736,note_on,0,0,1,,,,,,,,0,,,83,0
26736,note_on,0,0,4,,,,,,,,0,,,47,0
26736,note_on,0,0,4,,,,,,,,0,,,54,0
26736,note_on,0,0,1,,,,,,,,0,,,71,0
26755,set_tempo,21,1,0,,,,,,924927,,,,,,
26760,note_on,0,0,2,,,,,,,,0,,,83,80
26760,note_on,0,0,2,,,,,,,,0,,,80,80
26760,note_on,132,0,2,,,,,,,,0,,,74,80
26777,set_tempo,22,1,0,,,,,,911023,,,,,,
26799,set_tempo,22,1,0,,,,,,897532,,,,,,
26820,note_on,84,0,1,,,,,,,,0,,,86,80
26820,note_on,0,0,1,,,,,,,,0,,,89,80
26820,note_on,0,0,1,,,,,,,,0,,,95,80
26825,set_tempo,26,1,0,,,,,,884434,,,,,,
26847,set_tempo,22,1,0,,,,,,871713,,,,,,
26856,note_on,96,0,2,,,,,,,,0,,,83,0
26856,note_on,0,0,2,,,,,,,,0,,,74,0
26856,note_on,0,0,2,,,,,,,,0,,,80,0
26869,set_tempo,22,1,0,,,,,,859353,,,,,,
26880,note_on,24,0,2,,,,,,,,0,,,75,80
26880,note_on,0,0,2,,,,,,,,0,,,78,80
26880,note_on,0,0,2,,,,,,,,0,,,70,80
26895,set_tempo,26,1,0,,,,,,847338,,,,,,
26916,note_on,0,0,1,,,,,,,,0,,,86,0
26916,note_on,0,0,1,,,,,,,,0,,,89,0
26916,note_on,96,0,1,,,,,,,,0,,,95,0
26917,set_tempo,22,1,0,,,,,,835655,,,,,,
26939,set_tempo,22,1,0,,,,,,824289,,,,,,
26940,note_on,24,0,1,,,,,,,,0,,,82,80
26940,note_on,0,0,1,,,,,,,,0,,,87,80
26940,note_on,0,0,1,,,,,,,,0,,,90,80
26960,set_tempo,21,1,0,,,,,,813229,,,,,,
26976,note_on,0,0,2,,,,,,,,0,,,75,0
26976,note_on,0,0,2,,,,,,,,0,,,78,0
26976,note_on,96,0,2,,,,,,,,0,,,70,0
26987,set_tempo,27,1,0,,,,,,802461,,,,,,
27000,note_on,0,0,2,,,,,,,,0,,,72,80
27000,note_on,0,0,2,,,,,,,,0,,,81,80
27000,note_on,24,0,2,,,,,,,,0,,,78,80
27008,set_tempo,21,1,0,,,,,,791975,,,,,,
27030,set_tempo,22,1,0,,,,,,781759,,,,,,
27036,note_on,0,0,1,,,,,,,,0,,,82,0
27036,note_on,0,0,1,,,,,,,,0,,,87,0
27036,note_on,96,0,1,,,,,,,,0,,,90,0
27056,set_tempo,26,1,0,,,,,,771803,,,,,,
27060,note_on,24,0,1,,,,,,,,0,,,87,80
27060,note_on,0,0,1,,,,,,,,0,,,84,80
27060,note_on,0,0,1,,,,,,,,0,,,93,80
27078,set_tempo,22,1,0,,,,,,762098,,,,,,
27096,note_on,96,0,2,,,,,,,,0,,,81,0
27096,note_on,0,0,2,,,,,,,,0,,,72,0
27096,note_on,0,0,2,,,,,,,,0,,,78,0
27100,set_tempo,22,1,0,,,,,,752634,,,,,,
27120,note_on,0,0,2,,,,,,,,0,,,73,80
27120,note_on,24,0,2,,,,,,,,0,,,68,80
27120,note_on,0,0,2,,,,,,,,0,,,76,80
27122,set_tempo,22,1,0,,,,,,743402,,,,,,
27125,control_change,389,0,4,,,,,,,,0,64,0,,
27155,control_change,30,0,4,,,,,,,,0,64,127,,
27156,note_on,96,0,1,,,,,,,,0,,,93,0
27156,note_on,0,0,1,,,,,,,,0,,,84,0
27156,note_on,0,0,1,,,,,,,,0,,,87,0
27180,note_on,24,0,1,,,,,,,,0,,,80,80
27180,note_on,0,0,1,,,,,,,,0,,,88,80
27180,note_on,0,0,1,,,,,,,,0,,,85,80
27216,note_on,0,0,2,,,,,,,,0,,,76,0
27216,note_on,0,0,2,,,,,,,,0,,,68,0
27216,note_on,96,0,2,,,,,,,,0,,,73,0
27240,note_on,0,0,2,,,,,,,,0,,,71,80
27240,note_on,0,0,2,,,,,,,,0,,,80,80
27240,note_on,24,0,2,,,,,,,,0,,,77,80
27276,note_on,0,0,1,,,,,,,,0,,,80,0
27276,note_on,0,0,1,,,,,,,,0,,,88,0
27276,note_on,96,0,1,,,,,,,,0,,,85,0
27300,note_on,24,0,1,,,,,,,,0,,,92,80
27300,note_on,0,0,1,,,,,,,,0,,,86,80
27300,note_on,0,0,1,,,,,,,,0,,,83,80
27336,note_on,0,0,2,,,,,,,,0,,,80,0
27336,note_on,0,0,2,,,,,,,,0,,,77,0
27336,note_on,96,0,2,,,,,,,,0,,,71,0
27360,note_on,0,0,2,,,,,,,,0,,,70,80
27360,note_on,0,0,2,,,,,,,,0,,,66,80
27360,note_on,24,0,2,,,,,,,,0,,,75,80
27396,note_on,0,0,1,,,,,,,,0,,,83,0
27396,note_on,96,0,1,,,,,,,,0,,,86,0
27396,note_on,0,0,1,,,,,,,,0,,,92,0
27420,note_on,24,0,1,,,,,,,,0,,,78,80
27420,note_on,0,0,1,,,,,,,,0,,,82,80
27420,note_on,0,0,1,,,,,,,,0,,,87,80
27456,note_on,96,0,2,,,,,,,,0,,,66,0
27456,note_on,0,0,2,,,,,,,,0,,,75,0
27456,note_on,0,0,2,,,,,,,,0,,,70,0
27480,note_on,0,0,2,,,,,,,,0,,,75,80
27480,note_on,24,0,2,,,,,,,,0,,,78,80
27480,note_on,0,0,2,,,,,,,,0,,,69,80
27516,note_on,0,0,1,,,,,,,,0,,,87,0
27516,note_on,0,0,1,,,,,,,,0,,,78,0
27516,note_on,96,0,1,,,,,,,,0,,,82,0
27540,note_on,24,0,1,,,,,,,,0,,,90,80
27540,note_on,0,0,1,,,,,,,,0,,,84,80
27540,note_on,0,0,1,,,,,,,,0,,,81,80
27576,note_on,96,0,2,,,,,,,,0,,,69,0
27576,note_on,0,0,2,,,,,,,,0,,,75,0
27576,note_on,0,0,2,,,,,,,,0,,,78,0
27600,note_on,0,0,3,,,,,,,,0,,,67,80
27600,note_on,0,0,3,,,,,,,,0,,,73,80
27600,note_on,1032,0,3,,,,,,,,0,,,76,80
27600,control_change,445,0,4,,,,,,,,0,64,0,,
27637,control_change,37,0,4,,,,,,,,0,64,127,,
27648,note_on,0,0,1,,,,,,,,0,,,90,0
27648,note_on,0,0,1,,,,,,,,0,,,84,0
27648,note_on,108,0,1,,,,,,,,0,,,81,0
27660,note_on,12,0,1,,,,,,,,0,,,79,80
27660,note_on,0,0,1,,,,,,,,0,,,82,80
27660,note_on,0,0,1,,,,,,,,0,,,88,80
27696,note_on,0,0,3,,,,,,,,0,,,76,0
27696,note_on,0,0,3,,,,,,,,0,,,73,0
27696,note_on,96,0,3,,,,,,,,0,,,67,0
27705,note_on,129,0,2,,,,,,,,0,,,70,80
27720,note_on,15,0,2,,,,,,,,0,,,76,80
27735,note_on,15,0,2,,,,,,,,0,,,79,80
27750,note_on,15,0,2,,,,,,,,0,,,85,80
27756,note_on,0,0,1,,,,,,,,0,,,79,0
27756,note_on,96,0,1,,,,,,,,0,,,82,0
27756,note_on,0,0,1,,,,,,,,0,,,88,0
27780,note_on,143,0,4,,,,,,,,0,,,35,80
27798,note_on,0,0,2,,,,,,,,0,,,70,0
27798,note_on,48,0,2,,,,,,,,0,,,85,0
27798,note_on,0,0,2,,,,,,,,0,,,76,0
27798,note_on,0,0,2,,,,,,,,0,,,79,0
27825,note_on,27,0,2,,,,,,,,0,,,67,80
27840,note_on,15,0,2,,,,,,,,0,,,73,80
27843,control_change,63,0,4,,,,,,,,0,64,0,,
27855,note_on,15,0,2,,,,,,,,0,,,76,80
27867,control_change,24,0,4,,,,,,,,0,64,127,,
27870,note_on,15,0,2,,,,,,,,0,,,82,80
27918,note_on,0,0,2,,,,,,,,0,,,76,0
27918,note_on,0,0,2,,,,,,,,0,,,73,0
27918,note_on,48,0,2,,,,,,,,0,,,82,0
27918,note_on,0,0,2,,,,,,,,0,,,67,0
27945,note_on,27,0,2,,,,,,,,0,,,70,80
27960,note_on,15,0,2,,,,,,,,0,,,76,80
27972,note_on,105,0,4,,,,,,,,0,,,35,0
27975,note_on,15,0,2,,,,,,,,0,,,79,80
27990,note_on,15,0,2,,,,,,,,0,,,85,80
28020,note_on,48,0,4,,,,,,,,0,,,35,80
28038,note_on,0,0,2,,,,,,,,0,,,70,0
28038,note_on,48,0,2,,,,,,,,0,,,85,0
28038,note_on,0,0,2,,,,,,,,0,,,79,0
28038,note_on,0,0,2,,,,,,,,0,,,76,0
28065,note_on,27,0,2,,,,,,,,0,,,73,80
28069,set_tempo,947,1,0,,,,,,752634,,,,,,
28080,control_change,60,0,4,,,,,,,,0,64,0,,
28080,note_on,15,0,2,,,,,,,,0,,,79,80
28095,note_on,15,0,2,,,,,,,,0,,,82,80
28103,control_change,23,0,4,,,,,,,,0,64,127,,
28110,note_on,15,0,2,,,,,,,,0,,,88,80
28130,set_tempo,61,1,0,,,,,,762098,,,,,,
28158,note_on,48,0,2,,,,,,,,0,,,88,0
28158,note_on,0,0,2,,,,,,,,0,,,79,0
28158,note_on,0,0,2,,,,,,,,0,,,82,0
28158,note_on,0,0,2,,,,,,,,0,,,73,0
28185,note_on,27,0,2,,,,,,,,0,,,76,80
28191,set_tempo,61,1,0,,,,,,771803,,,,,,
28200,note_on,15,0,2,,,,,,,,0,,,82,80
28212,note_on,109,0,4,,,,,,,,0,,,35,0
28215,note_on,15,0,2,,,,,,,,0,,,85,80
28230,note_on,15,0,2,,,,,,,,0,,,90,80
28252,set_tempo,61,1,0,,,,,,781759,,,,,,
28260,note_on,48,0,4,,,,,,,,0,,,35,80
28278,note_on,0,0,2,,,,,,,,0,,,76,0
28278,note_on,0,0,2,,,,,,,,0,,,85,0
28278,note_on,0,0,2,,,,,,,,0,,,82,0
28278,note_on,48,0,2,,,,,,,,0,,,90,0
28305,note_on,27,0,2,,,,,,,,0,,,73,80
28313,set_tempo,61,1,0,,,,,,791975,,,,,,
28320,note_on,15,0,2,,,,,,,,0,,,79,80
28320,control_change,60,0,4,,,,,,,,0,64,0,,
28335,note_on,15,0,2,,,,,,,,0,,,82,80
28340,control_change,20,0,4,,,,,,,,0,64,127,,
28350,note_on,15,0,2,,,,,,,,0,,,88,80
28374,set_tempo,61,1,0,,,,,,802461,,,,,,
28398,note_on,48,0,2,,,,,,,,0,,,88,0
28398,note_on,0,0,2,,,,,,,,0,,,73,0
28398,note_on,0,0,2,,,,,,,,0,,,79,0
28398,note_on,0,0,2,,,,,,,,0,,,82,0
28425,note_on,27,0,2,,,,,,,,0,,,70,80
28435,set_tempo,61,1,0,,,,,,813229,,,,,,
28440,note_on,15,0,2,,,,,,,,0,,,76,80
28452,note_on,112,0,4,,,,,,,,0,,,35,0
28455,note_on,15,0,2,,,,,,,,0,,,79,80
28470,note_on,15,0,2,,,,,,,,0,,,85,80
28496,set_tempo,61,1,0,,,,,,824289,,,,,,
28500,note_on,48,0,4,,,,,,,,0,,,35,80
28518,note_on,0,0,2,,,,,,,,0,,,79,0
28518,note_on,0,0,2,,,,,,,,0,,,76,0
28518,note_on,0,0,2,,,,,,,,0,,,70,0
28518,note_on,48,0,2,,,,,,,,0,,,85,0
28558,set_tempo,62,1,0,,,,,,824289,,,,,,
28560,note_on,804,0,1,,,,,,,,0,,,71,80
28560,control_change,60,0,4,,,,,,,,0,64,0,,
28575,note_on,15,0,1,,,,,,,,0,,,78,80
28590,control_change,30,0,4,,,,,,,,0,64,127,,
28590,note_on,15,0,1,,,,,,,,0,,,87,80
28606,set_tempo,48,1,0,,,,,,813229,,,,,,
28654,set_tempo,48,1,0,,,,,,802461,,,,,,
28680,note_on,162,0,2,,,,,,,,0,,,68,80
28680,note_on,0,0,2,,,,,,,,0,,,62,80
28680,note_on,0,0,2,,,,,,,,0,,,71,80
28686,note_on,0,0,1,,,,,,,,0,,,71,0
28686,note_on,96,0,1,,,,,,,,0,,,87,0
28686,note_on,0,0,1,,,,,,,,0,,,78,0
28702,set_tempo,48,1,0,,,,,,791975,,,,,,
28740,note_on,54,0,1,,,,,,,,0,,,74,80
28740,note_on,0,0,1,,,,,,,,0,,,77,80
28740,note_on,0,0,1,,,,,,,,0,,,83,80
28750,set_tempo,48,1,0,,,,,,781759,,,,,,
28752,note_on,162,0,4,,,,,,,,0,,,35,0
28776,note_on,96,0,2,,,,,,,,0,,,71,0
28776,note_on,0,0,2,,,,,,,,0,,,62,0
28776,note_on,0,0,2,,,,,,,,0,,,68,0
28798,set_tempo,48,1,0,,,,,,771803,,,,,,
28800,note_on,0,0,2,,,,,,,,0,,,63,80
28800,note_on,0,0,2,,,,,,,,0,,,66,80
28800,note_on,24,0,2,,,,,,,,0,,,58,80
28836,note_on,96,0,1,,,,,,,,0,,,83,0
28836,note_on,0,0,1,,,,,,,,0,,,77,0
28836,note_on,0,0,1,,,,,,,,0,,,74,0
28846,set_tempo,48,1,0,,,,,,762098,,,,,,
28860,note_on,0,0,1,,,,,,,,0,,,75,80
28860,note_on,0,0,1,,,,,,,,0,,,70,80
28860,note_on,24,0,1,,,,,,,,0,,,78,80
28894,set_tempo,48,1,0,,,,,,752634,,,,,,
28896,note_on,0,0,2,,,,,,,,0,,,58,0
28896,note_on,0,0,2,,,,,,,,0,,,63,0
28896,note_on,96,0,2,,,,,,,,0,,,66,0
28920,note_on,0,0,2,,,,,,,,0,,,66,80
28920,note_on,0,0,2,,,,,,,,0,,,69,80
28920,note_on,24,0,2,,,,,,,,0,,,60,80
28942,set_tempo,48,1,0,,,,,,743402,,,,,,
28956,note_on,96,0,1,,,,,,,,0,,,70,0
28956,note_on,0,0,1,,,,,,,,0,,,78,0
28956,note_on,0,0,1,,,,,,,,0,,,75,0
28980,note_on,0,0,1,,,,,,,,0,,,75,80
28980,note_on,24,0,1,,,,,,,,0,,,81,80
28980,note_on,0,0,1,,,,,,,,0,,,72,80
28990,set_tempo,48,1,0,,,,,,734394,,,,,,
29016,note_on,0,0,2,,,,,,,,0,,,69,0
29016,note_on,0,0,2,,,,,,,,0,,,60,0
29016,note_on,96,0,2,,,,,,,,0,,,66,0
29033,set_tempo,43,1,0,,,,,,725602,,,,,,
29038,set_tempo,5,1,0,,,,,,743402,,,,,,
29040,note_on,0,0,2,,,,,,,,0,,,64,80
29040,note_on,0,0,2,,,,,,,,0,,,61,80
29040,control_change,288,0,4,,,,,,,,0,64,0,,
29040,note_on,24,0,2,,,,,,,,0,,,56,80
29067,control_change,27,0,4,,,,,,,,0,64,127,,
29076,note_on,0,0,1,,,,,,,,0,,,75,0
29076,note_on,96,0,1,,,,,,,,0,,,72,0
29076,note_on,0,0,1,,,,,,,,0,,,81,0
29100,note_on,0,0,1,,,,,,,,0,,,73,80
29100,note_on,24,0,1,,,,,,,,0,,,68,80
29100,note_on,0,0,1,,,,,,,,0,,,76,80
29136,note_on,0,0,2,,,,,,,,0,,,64,0
29136,note_on,96,0,2,,,,,,,,0,,,61,0
29136,note_on,0,0,2,,,,,,,,0,,,56,0
29160,note_on,24,0,2,,,,,,,,0,,,68,80
29160,note_on,0,0,2,,,,,,,,0,,,59,80
29160,note_on,0,0,2,,,,,,,,0,,,65,80
29196,note_on,0,0,1,,,,,,,,0,,,76,0
29196,note_on,0,0,1,,,,,,,,0,,,68,0
29196,note_on,96,0,1,,,,,,,,0,,,73,0
29220,note_on,0,0,1,,,,,,,,0,,,74,80
29220,note_on,24,0,1,,,,,,,,0,,,71,80
29220,note_on,0,0,1,,,,,,,,0,,,80,80
29256,note_on,0,0,2,,,,,,,,0,,,68,0
29256,note_on,0,0,2,,,,,,,,0,,,65,0
29256,note_on,96,0,2,,,,,,,,0,,,59,0
29280,note_on,24,0,2,,,,,,,,0,,,58,80
29280,note_on,0,0,2,,,,,,,,0,,,63,80
29280,note_on,0,0,2,,,,,,,,0,,,54,80
29316,note_on,0,0,1,,,,,,,,0,,,74,0
29316,note_on,0,0,1,,,,,,,,0,,,71,0
29316,note_on,96,0,1,,,,,,,,0,,,80,0
29340,note_on,0,0,1,,,,,,,,0,,,75,80
29340,note_on,0,0,1,,,,,,,,0,,,70,80
29340,note_on,24,0,1,,,,,,,,0,,,66,80
29376,note_on,0,0,2,,,,,,,,0,,,58,0
29376,note_on,0,0,2,,,,,,,,0,,,63,0
29376,note_on,96,0,2,,,,,,,,0,,,54,0
29400,note_on,0,0,2,,,,,,,,0,,,63,80
29400,note_on,0,0,2,,,,,,,,0,,,66,80
29400,note_on,24,0,2,,,,,,,,0,,,57,80
29436,note_on,0,0,1,,,,,,,,0,,,75,0
29436,note_on,0,0,1,,,,,,,,0,,,66,0
29436,note_on,96,0,1,,,,,,,,0,,,70,0
29460,note_on,0,0,1,,,,,,,,0,,,72,80
29460,note_on,0,0,1,,,,,,,,0,,,69,80
29460,note_on,24,0,1,,,,,,,,0,,,78,80
29496,note_on,0,0,2,,,,,,,,0,,,66,0
29496,note_on,0,0,2,,,,,,,,0,,,57,0
29496,note_on,96,0,2,,,,,,,,0,,,63,0
29520,note_on,0,0,3,,,,,,,,0,,,64,80
29520,note_on,0,0,3,,,,,,,,0,,,55,80
29520,control_change,453,0,4,,,,,,,,0,64,0,,
29520,note_on,1824,0,3,,,,,,,,0,,,59,80
29550,control_change,30,0,4,,,,,,,,0,64,127,,
29568,note_on,108,0,1,,,,,,,,0,,,69,0
29568,note_on,0,0,1,,,,,,,,0,,,78,0
29568,note_on,0,0,1,,,,,,,,0,,,72,0
29580,note_on,0,0,1,,,,,,,,0,,,67,80
29580,note_on,0,0,1,,,,,,,,0,,,71,80
29580,note_on,12,0,1,,,,,,,,0,,,76,80
29616,note_on,96,0,3,,,,,,,,0,,,64,0
29616,note_on,0,0,3,,,,,,,,0,,,55,0
29616,note_on,0,0,3,,,,,,,,0,,,59,0
29625,note_on,129,0,2,,,,,,,,0,,,59,80
29640,note_on,15,0,2,,,,,,,,0,,,64,80
29655,note_on,15,0,2,,,,,,,,0,,,67,80
29670,note_on,15,0,2,,,,,,,,0,,,74,80
29676,note_on,96,0,1,,,,,,,,0,,,71,0
29676,note_on,0,0,1,,,,,,,,0,,,67,0
29676,note_on,0,0,1,,,,,,,,0,,,76,0
29700,note_on,150,0,4,,,,,,,,0,,,35,80
29718,note_on,0,0,2,,,,,,,,0,,,59,0
29718,note_on,0,0,2,,,,,,,,0,,,64,0
29718,note_on,0,0,2,,,,,,,,0,,,67,0
29718,note_on,48,0,2,,,,,,,,0,,,74,0
29760,note_on,42,0,2,,,,,,,,0,,,55,80
29763,control_change,63,0,4,,,,,,,,0,64,0,,
29775,note_on,15,0,2,,,,,,,,0,,,64,80
29783,control_change,20,0,4,,,,,,,,0,64,127,,
29790,note_on,15,0,2,,,,,,,,0,,,71,80
29838,note_on,48,0,2,,,,,,,,0,,,71,0
29838,note_on,0,0,2,,,,,,,,0,,,64,0
29838,note_on,0,0,2,,,,,,,,0,,,55,0
29865,note_on,27,0,2,,,,,,,,0,,,59,80
29880,note_on,15,0,2,,,,,,,,0,,,64,80
29892,note_on,109,0,4,,,,,,,,0,,,35,0
29895,note_on,15,0,2,,,,,,,,0,,,67,80
29910,note_on,15,0,2,,,,,,,,0,,,74,80
29940,note_on,48,0,4,,,,,,,,0,,,35,80
29958,note_on,48,0,2,,,,,,,,0,,,74,0
29958,note_on,0,0,2,,,,,,,,0,,,59,0
29958,note_on,0,0,2,,,,,,,,0,,,67,0
29958,note_on,0,0,2,,,,,,,,0,,,64,0
30000,control_change,60,0,4,,,,,,,,0,64,0,,
30000,note_on,42,0,2,,,,,,,,0,,,62,80
30015,note_on,15,0,2,,,,,,,,0,,,67,80
30030,note_on,15,0,2,,,,,,,,0,,,76,80
30030,control_change,30,0,4,,,,,,,,0,64,127,,
30078,note_on,0,0,2,,,,,,,,0,,,62,0
30078,note_on,0,0,2,,,,,,,,0,,,67,0
30078,note_on,48,0,2,,,,,,,,0,,,76,0
30120,note_on,42,0,2,,,,,,,,0,,,64,80
30132,note_on,102,0,4,,,,,,,,0,,,35,0
30135,note_on,15,0,2,,,,,,,,0,,,71,80
30150,note_on,15,0,2,,,,,,,,0,,,79,80
30180,note_on,48,0,4,,,,,,,,0,,,35,80
30198,note_on,48,0,2,,,,,,,,0,,,79,0
30198,note_on,0,0,2,,,,,,,,0,,,71,0
30198,note_on,0,0,2,,,,,,,,0,,,64,0
30240,control_change,60,0,4,,,,,,,,0,64,0,,
30240,note_on,42,0,2,,,,,,,,0,,,62,80
30255,note_on,15,0,2,,,,,,,,0,,,71,80
30267,control_change,27,0,4,,,,,,,,0,64,127,,
30270,note_on,15,0,2,,,,,,,,0,,,76,80
30318,note_on,0,0,2,,,,,,,,0,,,71,0
30318,note_on,0,0,2,,,,,,,,0,,,62,0
30318,note_on,48,0,2,,,,,,,,0,,,76,0
30345,note_on,27,0,2,,,,,,,,0,,,59,80
30360,note_on,15,0,2,,,,,,,,0,,,64,80
30372,note_on,105,0,4,,,,,,,,0,,,35,0
30375,note_on,15,0,2,,,,,,,,0,,,67,80
30390,note_on,15,0,2,,,,,,,,0,,,74,80
30474,note_on,84,0,2,,,,,,,,0,,,74,0
30474,note_on,0,0,2,,,,,,,,0,,,59,0
30474,note_on,0,0,2,,,,,,,,0,,,64,0
30474,note_on,0,0,2,,,,,,,,0,,,67,0
30480,note_on,804,0,1,,,,,,,,0,,,59,80
30480,control_change,108,0,4,,,,,,,,0,64,0,,
30495,note_on,15,0,1,,,,,,,,0,,,66,80
30510,note_on,15,0,1,,,,,,,,0,,,75,80
30520,control_change,40,0,4,,,,,,,,0,64,127,,
30600,note_on,126,0,2,,,,,,,,0,,,71,80
30600,note_on,0,0,2,,,,,,,,0,,,63,80
30600,note_on,0,0,2,,,,,,,,0,,,67,80
30606,note_on,0,0,1,,,,,,,,0,,,59,0
30606,note_on,0,0,1,,,,,,,,0,,,66,0
30606,note_on,96,0,1,,,,,,,,0,,,75,0
30660,note_on,140,0,4,,,,,,,,0,,,35,80
30696,note_on,0,0,2,,,,,,,,0,,,71,0
30696,note_on,0,0,2,,,,,,,,0,,,63,0
30696,note_on,96,0,2,,,,,,,,0,,,67,0
30720,note_on,0,0,2,,,,,,,,0,,,66,80
30720,note_on,24,0,2,,,,,,,,0,,,63,80
30720,note_on,0,0,2,,,,,,,,0,,,59,80
30730,control_change,70,0,4,,,,,,,,0,64,0,,
30753,control_change,23,0,4,,,,,,,,0,64,127,,
30816,note_on,96,0,2,,,,,,,,0,,,59,0
30816,note_on,0,0,2,,,,,,,,0,,,63,0
30816,note_on,0,0,2,,,,,,,,0,,,66,0
30840,note_on,1224,0,3,,,,,,,,0,,,59,80
30840,note_on,0,0,3,,,,,,,,0,,,54,80
30840,note_on,0,0,3,,,,,,,,0,,,63,80
30852,note_on,99,0,4,,,,,,,,0,,,35,0
30936,note_on,0,0,3,,,,,,,,0,,,59,0
30936,note_on,0,0,3,,,,,,,,0,,,63,0
30936,note_on,96,0,3,,,,,,,,0,,,54,0
30960,note_on,0,0,3,,,,,,,,0,,,55,80
30960,note_on,24,0,3,,,,,,,,0,,,59,80
30960,note_on,0,0,3,,,,,,,,0,,,62,80
31056,note_on,96,0,3,,,,,,,,0,,,62,0
31056,note_on,0,0,3,,,,,,,,0,,,59,0
31056,note_on,0,0,3,,,,,,,,0,,,55,0
31080,note_on,0,0,3,,,,,,,,0,,,55,80
31080,note_on,24,0,3,,,,,,,,0,,,52,80
31080,note_on,0,0,3,,,,,,,,0,,,59,80
31140,note_on,288,0,4,,,,,,,,0,,,35,80
31176,note_on,0,0,3,,,,,,,,0,,,52,0
31176,note_on,96,0,3,,,,,,,,0,,,59,0
31176,note_on,0,0,3,,,,,,,,0,,,55,0
31200,note_on,24,0,3,,,,,,,,0,,,59,80
31200,note_on,0,0,3,,,,,,,,0,,,55,80
31200,note_on,0,0,3,,,,,,,,0,,,50,80
31203,control_change,63,0,4,,,,,,,,0,64,0,,
31227,control_change,24,0,4,,,,,,,,0,64,127,,
31296,note_on,0,0,3,,,,,,,,0,,,55,0
31296,note_on,0,0,3,,,,,,,,0,,,59,0
31296,note_on,96,0,3,,,,,,,,0,,,50,0
31320,note_on,0,0,3,,,,,,,,0,,,47,80
31320,note_on,24,0,3,,,,,,,,0,,,55,80
31320,note_on,0,0,3,,,,,,,,0,,,52,80
31332,note_on,105,0,4,,,,,,,,0,,,35,0
31416,note_on,0,0,3,,,,,,,,0,,,52,0
31416,note_on,0,0,3,,,,,,,,0,,,55,0
31416,note_on,96,0,3,,,,,,,,0,,,47,0
31440,note_on,0,0,3,,,,,,,,0,,,51,80
31440,note_on,24,0,3,,,,,,,,0,,,54,80
31440,note_on,0,0,3,,,,,,,,0,,,59,80
31536,note_on,0,0,3,,,,,,,,0,,,54,0
31536,note_on,96,0,3,,,,,,,,0,,,59,0
31536,note_on,0,0,3,,,,,,,,0,,,51,0
31560,note_on,0,0,3,,,,,,,,0,,,55,80
31560,note_on,24,0,3,,,,,,,,0,,,47,80
31560,note_on,0,0,3,,,,,,,,0,,,51,80
31620,note_on,288,0,4,,,,,,,,0,,,35,80
31656,note_on,0,0,3,,,,,,,,0,,,55,0
31656,note_on,0,0,3,,,,,,,,0,,,47,0
31656,note_on,96,0,3,,,,,,,,0,,,51,0
31680,note_on,0,0,3,,,,,,,,0,,,47,80
31680,note_on,24,0,3,,,,,,,,0,,,51,80
31680,note_on,0,0,3,,,,,,,,0,,,54,80
31707,control_change,87,0,4,,,,,,,,0,64,0,,
31746,control_change,39,0,4,,,,,,,,0,64,127,,
31776,note_on,96,0,3,,,,,,,,0,,,54,0
31776,note_on,0,0,3,,,,,,,,0,,,51,0
31776,note_on,0,0,3,,,,,,,,0,,,47,0
31800,note_on,0,0,3,,,,,,,,0,,,47,80
31800,note_on,0,0,3,,,,,,,,0,,,51,80
31800,note_on,24,0,3,,,,,,,,0,,,42,80
31812,note_on,66,0,4,,,,,,,,0,,,35,0
31896,note_on,0,0,3,,,,,,,,0,,,51,0
31896,note_on,0,0,3,,,,,,,,0,,,42,0
31896,note_on,96,0,3,,,,,,,,0,,,47,0
31920,note_on,24,0,3,,,,,,,,0,,,43,80
31920,note_on,0,0,3,,,,,,,,0,,,50,80
31920,note_on,0,0,3,,,,,,,,0,,,47,80
32016,note_on,0,0,3,,,,,,,,0,,,43,0
32016,note_on,0,0,3,,,,,,,,0,,,47,0
32016,note_on,96,0,3,,,,,,,,0,,,50,0
32040,note_on,24,0,3,,,,,,,,0,,,40,80
32040,note_on,0,0,3,,,,,,,,0,,,47,80
32040,note_on,0,0,3,,,,,,,,0,,,43,80
32100,note_on,288,0,4,,,,,,,,0,,,35,80
32136,note_on,0,0,3,,,,,,,,0,,,40,0
32136,note_on,96,0,3,,,,,,,,0,,,47,0
32136,note_on,0,0,3,,,,,,,,0,,,43,0
32160,note_on,0,0,3,,,,,,,,0,,,38,80
32160,note_on,0,0,3,,,,,,,,0,,,47,80
32160,note_on,24,0,3,,,,,,,,0,,,43,80
32172,control_change,72,0,4,,,,,,,,0,64,0,,
32196,note_on,24,0,4,,,,,,,,0,,,35,0
32226,control_change,30,0,4,,,,,,,,0,64,127,,
32256,note_on,96,0,3,,,,,,,,0,,,38,0
32256,note_on,0,0,3,,,,,,,,0,,,47,0
32256,note_on,0,0,3,,,,,,,,0,,,43,0
32280,note_on,0,0,3,,,,,,,,0,,,43,80
32280,note_on,24,0,3,,,,,,,,0,,,40,80
32376,note_on,96,0,3,,,,,,,,0,,,43,0
32376,note_on,0,0,3,,,,,,,,0,,,40,0
32384,set_tempo,3346,1,0,,,,,,771803,,,,,,
32389,set_tempo,5,1,0,,,,,,762098,,,,,,
32397,set_tempo,8,1,0,,,,,,771803,,,,,,
32400,control_change,0,0,4,,,,,,,,0,64,0,,
32400,note_on,0,0,4,,,,,,,,0,,,42,80
32400,note_on,174,0,4,,,,,,,,0,,,35,80
32400,note_on,24,0,3,,,,,,,,0,,,39,80
32405,set_tempo,8,1,0,,,,,,781759,,,,,,
32430,control_change,30,0,4,,,,,,,,0,64,127,,
32448,note_on,18,0,4,,,,,,,,0,,,42,0
32448,note_on,0,0,4,,,,,,,,0,,,35,0
32460,note_on,12,0,4,,,,,,,,0,,,42,64
32508,note_on,48,0,4,,,,,,,,0,,,42,0
32514,set_tempo,109,1,0,,,,,,771803,,,,,,
32520,note_on,12,0,4,,,,,,,,0,,,47,64
32568,note_on,48,0,4,,,,,,,,0,,,47,0
32580,note_on,12,0,4,,,,,,,,0,,,54,80
32592,note_on,192,0,3,,,,,,,,0,,,39,0
32619,set_tempo,105,1,0,,,,,,762098,,,,,,
32628,note_on,48,0,4,,,,,,,,0,,,54,0
32640,note_on,12,0,4,,,,,,,,0,,,54,80
32688,note_on,48,0,4,,,,,,,,0,,,54,0
32700,note_on,12,0,4,,,,,,,,0,,,47,64
32724,set_tempo,105,1,0,,,,,,752634,,,,,,
32748,note_on,48,0,4,,,,,,,,0,,,47,0
32760,note_on,12,0,4,,,,,,,,0,,,42,64
32808,note_on,48,0,4,,,,,,,,0,,,42,0
32820,note_on,12,0,4,,,,,,,,0,,,35,64
32828,set_tempo,104,1,0,,,,,,743402,,,,,,
32868,note_on,48,0,4,,,,,,,,0,,,35,0
32875,control_change,7,0,4,,,,,,,,0,64,0,,
32880,note_on,5,0,4,,,,,,,,0,,,35,80
32905,control_change,25,0,4,,,,,,,,0,64,127,,
32928,note_on,23,0,4,,,,,,,,0,,,35,0
32933,set_tempo,105,1,0,,,,,,734394,,,,,,
32940,note_on,12,0,4,,,,,,,,0,,,42,64
32988,note_on,48,0,4,,,,,,,,0,,,42,0
33000,note_on,12,0,4,,,,,,,,0,,,47,64
33038,set_tempo,105,1,0,,,,,,725602,,,,,,
33048,note_on,48,0,4,,,,,,,,0,,,47,0
33060,note_on,12,0,4,,,,,,,,0,,,59,80
33108,note_on,48,0,4,,,,,,,,0,,,59,0
33120,note_on,12,0,4,,,,,,,,0,,,59,80
33147,set_tempo,109,1,0,,,,,,717017,,,,,,
33168,note_on,48,0,4,,,,,,,,0,,,59,0
33180,note_on,12,0,4,,,,,,,,0,,,47,64
33228,note_on,48,0,4,,,,,,,,0,,,47,0
33240,note_on,12,0,4,,,,,,,,0,,,42,64
33252,set_tempo,105,1,0,,,,,,708634,,,,,,
33288,note_on,48,0,4,,,,,,,,0,,,42,0
33300,note_on,12,0,4,,,,,,,,0,,,35,64
33348,note_on,48,0,4,,,,,,,,0,,,35,0
33356,set_tempo,104,1,0,,,,,,700444,,,,,,
33360,control_change,0,0,4,,,,,,,,0,64,0,,
33360,note_on,0,0,4,,,,,,,,0,,,35,80
33360,control_change,12,0,4,,,,,,,,0,64,0,,
33390,control_change,30,0,4,,,,,,,,0,64,127,,
33408,note_on,18,0,4,,,,,,,,0,,,35,0
33420,note_on,12,0,4,,,,,,,,0,,,42,64
33461,set_tempo,105,1,0,,,,,,692441,,,,,,
33468,note_on,48,0,4,,,,,,,,0,,,42,0
33480,note_on,12,0,4,,,,,,,,0,,,47,64
33528,note_on,48,0,4,,,,,,,,0,,,47,0
33540,note_on,12,0,4,,,,,,,,0,,,54,80
33566,set_tempo,105,1,0,,,,,,684619,,,,,,
33588,note_on,48,0,4,,,,,,,,0,,,54,0
33600,note_on,12,0,4,,,,,,,,0,,,54,80
33648,note_on,48,0,4,,,,,,,,0,,,54,0
33660,note_on,12,0,4,,,,,,,,0,,,47,64
33671,set_tempo,105,1,0,,,,,,676972,,,,,,
33708,note_on,48,0,4,,,,,,,,0,,,47,0
33720,note_on,12,0,4,,,,,,,,0,,,42,64
33768,note_on,48,0,4,,,,,,,,0,,,42,0
33780,set_tempo,109,1,0,,,,,,669493,,,,,,
33780,note_on,12,0,4,,,,,,,,0,,,35,64
33828,note_on,48,0,4,,,,,,,,0,,,35,0
33836,control_change,8,0,4,,,,,,,,0,64,0,,
33840,note_on,4,0,4,,,,,,,,0,,,35,80
33861,control_change,21,0,4,,,,,,,,0,64,127,,
33884,set_tempo,104,1,0,,,,,,662179,,,,,,
33888,note_on,27,0,4,,,,,,,,0,,,35,0
33900,note_on,12,0,4,,,,,,,,0,,,42,64
33948,note_on,48,0,4,,,,,,,,0,,,42,0
33960,note_on,12,0,4,,,,,,,,0,,,47,64
33989,set_tempo,105,1,0,,,,,,655022,,,,,,
34008,note_on,48,0,4,,,,,,,,0,,,47,0
34020,note_on,12,0,4,,,,,,,,0,,,59,80
34068,note_on,48,0,4,,,,,,,,0,,,59,0
34080,note_on,12,0,4,,,,,,,,0,,,59,80
34094,set_tempo,105,1,0,,,,,,648018,,,,,,
34128,note_on,48,0,4,,,,,,,,0,,,59,0
34140,note_on,12,0,4,,,,,,,,0,,,47,64
34188,note_on,48,0,4,,,,,,,,0,,,47,0
34199,set_tempo,105,1,0,,,,,,641163,,,,,,
34200,note_on,12,0,4,,,,,,,,0,,,42,64
34248,note_on,48,0,4,,,,,,,,0,,,42,0
34260,note_on,12,0,4,,,,,,,,0,,,35,64
34303,set_tempo,104,1,0,,,,,,634451,,,,,,
34308,note_on,48,0,4,,,,,,,,0,,,35,0
34320,control_change,0,0,4,,,,,,,,0,64,0,,
34320,note_on,12,0,4,,,,,,,,0,,,35,80
34350,control_change,30,0,4,,,,,,,,0,64,127,,
34368,note_on,18,0,4,,,,,,,,0,,,35,0
34380,note_on,12,0,4,,,,,,,,0,,,42,64
34428,note_on,48,0,4,,,,,,,,0,,,42,0
34440,note_on,12,0,4,,,,,,,,0,,,47,64
34488,note_on,48,0,4,,,,,,,,0,,,47,0
34500,note_on,12,0,4,,,,,,,,0,,,59,80
34548,note_on,48,0,4,,,,,,,,0,,,59,0
34560,note_on,12,0,4,,,,,,,,0,,,59,80
34608,note_on,48,0,4,,,,,,,,0,,,59,0
34620,note_on,12,0,4,,,,,,,,0,,,47,64
34668,note_on,48,0,4,,,,,,,,0,,,47,0
34680,note_on,12,0,4,,,,,,,,0,,,42,64
34728,note_on,48,0,4,,,,,,,,0,,,42,0
34740,note_on,12,0,4,,,,,,,,0,,,35,64
34788,note_on,48,0,4,,,,,,,,0,,,35,0
34800,note_on,12,0,4,,,,,,,,0,,,35,80
34804,control_change,4,0,4,,,,,,,,0,64,0,,
34837,control_change,33,0,4,,,,,,,,0,64,127,,
34848,note_on,11,0,4,,,,,,,,0,,,35,0
34860,note_on,12,0,4,,,,,,,,0,,,42,64
34908,note_on,48,0,4,,,,,,,,0,,,42,0
34920,note_on,12,0,4,,,,,,,,0,,,47,64
34968,note_on,48,0,4,,,,,,,,0,,,47,0
34980,note_on,12,0,4,,,,,,,,0,,,59,80
35028,note_on,48,0,4,,,,,,,,0,,,59,0
35040,note_on,12,0,4,,,,,,,,0,,,59,80
35088,note_on,48,0,4,,,,,,,,0,,,59,0
35100,note_on,12,0,4,,,,,,,,0,,,47,64
35148,note_on,48,0,4,,,,,,,,0,,,47,0
35160,note_on,12,0,4,,,,,,,,0,,,42,64
35208,note_on,48,0,4,,,,,,,,0,,,42,0
35220,note_on,12,0,4,,,,,,,,0,,,35,64
35268,note_on,48,0,4,,,,,,,,0,,,35,0
35280,note_on,12,0,4,,,,,,,,0,,,31,64
35293,control_change,13,0,4,,,,,,,,0,64,0,,
35323,control_change,30,0,4,,,,,,,,0,64,127,,
35328,note_on,5,0,4,,,,,,,,0,,,31,0
35340,note_on,12,0,4,,,,,,,,0,,,38,64
35388,note_on,48,0,4,,,,,,,,0,,,38,0
35400,note_on,4794,0,1,,,,,,,,0,,,67,80
35400,note_on,0,0,1,,,,,,,,0,,,71,80
35400,note_on,12,0,4,,,,,,,,0,,,43,64
35400,note_on,0,0,1,,,,,,,,0,,,62,80
35448,note_on,48,0,4,,,,,,,,0,,,43,0
35460,note_on,12,0,4,,,,,,,,0,,,50,80
35496,note_on,0,0,1,,,,,,,,0,,,71,0
35496,note_on,96,0,1,,,,,,,,0,,,62,0
35496,note_on,0,0,1,,,,,,,,0,,,67,0
35508,note_on,48,0,4,,,,,,,,0,,,50,0
35520,note_on,0,0,1,,,,,,,,0,,,67,80
35520,note_on,24,0,1,,,,,,,,0,,,59,80
35520,note_on,12,0,4,,,,,,,,0,,,50,80
35520,note_on,0,0,1,,,,,,,,0,,,62,80
35568,note_on,48,0,4,,,,,,,,0,,,50,0
35580,note_on,12,0,4,,,,,,,,0,,,43,64
35616,note_on,0,0,1,,,,,,,,0,,,67,0
35616,note_on,96,0,1,,,,,,,,0,,,62,0
35616,note_on,0,0,1,,,,,,,,0,,,59,0
35628,note_on,48,0,4,,,,,,,,0,,,43,0
35640,note_on,0,0,1,,,,,,,,0,,,62,80
35640,note_on,0,0,1,,,,,,,,0,,,67,80
35640,note_on,12,0,4,,,,,,,,0,,,38,64
35640,note_on,24,0,1,,,,,,,,0,,,71,80
35688,note_on,48,0,4,,,,,,,,0,,,38,0
35700,note_on,12,0,4,,,,,,,,0,,,31,64
35736,note_on,0,0,1,,,,,,,,0,,,71,0
35736,note_on,96,0,1,,,,,,,,0,,,67,0
35736,note_on,0,0,1,,,,,,,,0,,,62,0
35748,note_on,48,0,4,,,,,,,,0,,,31,0
35760,note_on,12,0,4,,,,,,,,0,,,31,80
35760,note_on,0,0,1,,,,,,,,0,,,67,80
35760,note_on,24,0,1,,,,,,,,0,,,74,80
35760,note_on,0,0,1,,,,,,,,0,,,71,80
35765,control_change,5,0,4,,,,,,,,0,64,0,,
35799,control_change,34,0,4,,,,,,,,0,64,127,,
35808,note_on,9,0,4,,,,,,,,0,,,31,0
35820,note_on,12,0,4,,,,,,,,0,,,38,64
35856,note_on,0,0,1,,,,,,,,0,,,74,0
35856,note_on,0,0,1,,,,,,,,0,,,71,0
35856,note_on,96,0,1,,,,,,,,0,,,67,0
35868,note_on,48,0,4,,,,,,,,0,,,38,0
35880,note_on,0,0,1,,,,,,,,0,,,76,80
35880,note_on,12,0,4,,,,,,,,0,,,43,64
35880,note_on,24,0,1,,,,,,,,0,,,67,80
35880,note_on,0,0,1,,,,,,,,0,,,71,80
35928,note_on,48,0,4,,,,,,,,0,,,43,0
35940,note_on,12,0,4,,,,,,,,0,,,50,80
35976,note_on,96,0,1,,,,,,,,0,,,76,0
35976,note_on,0,0,1,,,,,,,,0,,,67,0
35976,note_on,0,0,1,,,,,,,,0,,,71,0
35988,note_on,48,0,4,,,,,,,,0,,,50,0
36000,note_on,0,0,1,,,,,,,,0,,,74,80
36000,note_on,0,0,1,,,,,,,,0,,,67,80
36000,note_on,24,0,1,,,,,,,,0,,,71,80
36000,note_on,12,0,4,,,,,,,,0,,,50,80
36048,note_on,48,0,4,,,,,,,,0,,,50,0
36060,note_on,12,0,4,,,,,,,,0,,,43,64
36096,note_on,96,0,1,,,,,,,,0,,,67,0
36096,note_on,0,0,1,,,,,,,,0,,,74,0
36096,note_on,0,0,1,,,,,,,,0,,,71,0
36108,note_on,48,0,4,,,,,,,,0,,,43,0
36120,note_on,24,0,1,,,,,,,,0,,,67,80
36120,note_on,0,0,1,,,,,,,,0,,,71,80
36120,note_on,0,0,1,,,,,,,,0,,,62,80
36120,note_on,12,0,4,,,,,,,,0,,,38,64
36168,note_on,48,0,4,,,,,,,,0,,,38,0
36180,note_on,12,0,4,,,,,,,,0,,,31,64
36216,note_on,96,0,1,,,,,,,,0,,,71,0
36216,note_on,0,0,1,,,,,,,,0,,,62,0
36216,note_on,0,0,1,,,,,,,,0,,,67,0
36228,note_on,48,0,4,,,,,,,,0,,,31,0
36240,note_on,12,0,4,,,,,,,,0,,,31,80
36240,note_on,0,0,1,,,,,,,,0,,,62,80
36240,note_on,0,0,1,,,,,,,,0,,,67,80
36240,note_on,24,0,1,,,,,,,,0,,,59,80
36247,control_change,7,0,4,,,,,,,,0,64,0,,
36253,control_change,6,0,4,,,,,,,,0,64,0,,
36283,control_change,30,0,4,,,,,,,,0,64,127,,
36288,note_on,5,0,4,,,,,,,,0,,,31,0
36300,note_on,12,0,4,,,,,,,,0,,,38,64
36336,note_on,0,0,1,,,,,,,,0,,,59,0
36336,note_on,96,0,1,,,,,,,,0,,,67,0
36336,note_on,0,0,1,,,,,,,,0,,,62,0
36348,note_on,48,0,4,,,,,,,,0,,,38,0
36360,note_on,24,0,1,,,,,,,,0,,,67,80
36360,note_on,0,0,1,,,,,,,,0,,,71,80
36360,note_on,12,0,4,,,,,,,,0,,,43,64
36360,note_on,0,0,1,,,,,,,,0,,,62,80
36408,note_on,48,0,4,,,,,,,,0,,,43,0
36420,note_on,12,0,4,,,,,,,,0,,,50,80
36456,note_on,0,0,1,,,,,,,,0,,,71,0
36456,note_on,96,0,1,,,,,,,,0,,,62,0
36456,note_on,0,0,1,,,,,,,,0,,,67,0
36468,note_on,48,0,4,,,,,,,,0,,,50,0
36480,note_on,0,0,1,,,,,,,,0,,,74,80
36480,note_on,24,0,1,,,,,,,,0,,,71,80
36480,note_on,0,0,1,,,,,,,,0,,,67,80
36480,note_on,12,0,4,,,,,,,,0,,,50,80
36528,note_on,48,0,4,,,,,,,,0,,,50,0
36540,note_on,12,0,4,,,,,,,,0,,,43,64
36576,note_on,96,0,1,,,,,,,,0,,,67,0
36576,note_on,0,0,1,,,,,,,,0,,,74,0
36576,note_on,0,0,1,,,,,,,,0,,,71,0
36588,note_on,48,0,4,,,,,,,,0,,,43,0
36600,note_on,12,0,4,,,,,,,,0,,,38,64
36600,note_on,0,0,1,,,,,,,,0,,,76,80
36600,note_on,0,0,1,,,,,,,,0,,,71,80
36600,note_on,24,0,1,,,,,,,,0,,,67,80
36648,note_on,48,0,4,,,,,,,,0,,,38,0
36660,note_on,12,0,4,,,,,,,,0,,,31,64
36696,note_on,96,0,1,,,,,,,,0,,,76,0
36696,note_on,0,0,1,,,,,,,,0,,,67,0
36696,note_on,0,0,1,,,,,,,,0,,,71,0
36707,control_change,47,0,4,,,,,,,,0,64,0,,
36708,note_on,1,0,4,,,,,,,,0,,,31,0
36720,note_on,0,0,1,,,,,,,,0,,,71,80
36720,note_on,0,0,1,,,,,,,,0,,,74,80
36720,note_on,24,0,1,,,,,,,,0,,,79,80
36720,note_on,12,0,4,,,,,,,,0,,,31,80
36733,control_change,13,0,4,,,,,,,,0,64,127,,
36768,note_on,35,0,4,,,,,,,,0,,,31,0
36780,note_on,12,0,4,,,,,,,,0,,,38,64
36816,note_on,0,0,1,,,,,,,,0,,,71,0
36816,note_on,0,0,1,,,,,,,,0,,,79,0
36816,note_on,96,0,1,,,,,,,,0,,,74,0
36828,note_on,48,0,4,,,,,,,,0,,,38,0
36840,note_on,24,0,1,,,,,,,,0,,,74,80
36840,note_on,0,0,1,,,,,,,,0,,,83,80
36840,note_on,0,0,1,,,,,,,,0,,,79,80
36840,note_on,12,0,4,,,,,,,,0,,,43,64
36888,note_on,48,0,4,,,,,,,,0,,,43,0
36900,note_on,12,0,4,,,,,,,,0,,,50,80
36936,note_on,0,0,1,,,,,,,,0,,,79,0
36936,note_on,0,0,1,,,,,,,,0,,,74,0
36936,note_on,96,0,1,,,,,,,,0,,,83,0
36948,note_on,48,0,4,,,,,,,,0,,,50,0
36960,note_on,0,0,1,,,,,,,,0,,,79,80
36960,note_on,12,0,4,,,,,,,,0,,,50,80
36960,note_on,24,0,1,,,,,,,,0,,,83,80
36960,note_on,0,0,1,,,,,,,,0,,,86,80
37008,note_on,48,0,4,,,,,,,,0,,,50,0
37020,note_on,12,0,4,,,,,,,,0,,,43,64
37056,note_on,96,0,1,,,,,,,,0,,,86,0
37056,note_on,0,0,1,,,,,,,,0,,,83,0
37056,note_on,0,0,1,,,,,,,,0,,,79,0
37068,note_on,48,0,4,,,,,,,,0,,,43,0
37080,note_on,0,0,1,,,,,,,,0,,,79,80
37080,note_on,0,0,1,,,,,,,,0,,,83,80
37080,note_on,24,0,1,,,,,,,,0,,,88,80
37080,note_on,12,0,4,,,,,,,,0,,,38,64
37128,note_on,48,0,4,,,,,,,,0,,,38,0
37140,note_on,12,0,4,,,,,,,,0,,,31,64
37176,note_on,96,0,1,,,,,,,,0,,,79,0
37176,note_on,0,0,1,,,,,,,,0,,,83,0
37176,note_on,0,0,1,,,,,,,,0,,,88,0
37188,note_on,48,0,4,,,,,,,,0,,,31,0
37200,note_on,24,0,1,,,,,,,,0,,,86,80
37200,note_on,12,0,4,,,,,,,,0,,,38,80
37200,note_on,0,0,1,,,,,,,,0,,,90,80
37200,note_on,0,0,1,,,,,,,,0,,,81,80
37207,control_change,7,0,4,,,,,,,,0,64,0,,
37213,control_change,6,0,4,,,,,,,,0,64,0,,
37243,control_change,30,0,4,,,,,,,,0,64,127,,
37248,note_on,5,0,4,,,,,,,,0,,,38,0
37260,note_on,12,0,4,,,,,,,,0,,,45,64
37308,note_on,48,0,4,,,,,,,,0,,,45,0
37320,note_on,12,0,4,,,,,,,,0,,,50,64
37368,note_on,48,0,4,,,,,,,,0,,,50,0
37380,note_on,12,0,4,,,,,,,,0,,,57,80
37428,note_on,48,0,4,,,,,,,,0,,,57,0
37440,note_on,12,0,4,,,,,,,,0,,,57,80
37488,note_on,48,0,4,,,,,,,,0,,,57,0
37500,note_on,12,0,4,,,,,,,,0,,,50,64
37548,note_on,48,0,4,,,,,,,,0,,,50,0
37560,note_on,12,0,4,,,,,,,,0,,,45,64
37584,note_on,384,0,1,,,,,,,,0,,,90,0
37584,note_on,0,0,1,,,,,,,,0,,,81,0
37584,note_on,0,0,1,,,,,,,,0,,,86,0
37608,note_on,48,0,4,,,,,,,,0,,,45,0
37620,note_on,12,0,4,,,,,,,,0,,,38,80
37667,control_change,47,0,4,,,,,,,,0,64,0,,
37668,note_on,1,0,4,,,,,,,,0,,,38,0
37680,note_on,96,0,1,,,,,,,,0,,,90,80
37680,note_on,0,0,1,,,,,,,,0,,,93,80
37680,note_on,12,0,4,,,,,,,,0,,,38,80
37680,note_on,0,0,1,,,,,,,,0,,,81,80
37693,control_change,13,0,4,,,,,,,,0,64,127,,
37728,note_on,35,0,4,,,,,,,,0,,,38,0
37740,note_on,12,0,4,,,,,,,,0,,,45,64
37788,note_on,48,0,4,,,,,,,,0,,,45,0
37800,note_on,12,0,4,,,,,,,,0,,,50,64
37848,note_on,48,0,4,,,,,,,,0,,,50,0
37860,note_on,12,0,4,,,,,,,,0,,,62,80
37872,note_on,0,0,1,,,,,,,,0,,,81,0
37872,note_on,192,0,1,,,,,,,,0,,,93,0
37872,note_on,0,0,1,,,,,,,,0,,,90,0
37908,note_on,48,0,4,,,,,,,,0,,,62,0
37920,note_on,12,0,4,,,,,,,,0,,,62,80
37968,note_on,48,0,4,,,,,,,,0,,,62,0
37980,note_on,12,0,4,,,,,,,,0,,,50,64
38028,note_on,48,0,4,,,,,,,,0,,,50,0
38040,note_on,12,0,4,,,,,,,,0,,,45,64
38088,note_on,48,0,4,,,,,,,,0,,,45,0
38100,note_on,12,0,4,,,,,,,,0,,,38,80
38148,note_on,48,0,4,,,,,,,,0,,,38,0
38160,note_on,12,0,4,,,,,,,,0,,,38,80
38167,control_change,7,0,4,,,,,,,,0,64,0,,
38173,control_change,6,0,4,,,,,,,,0,64,0,,
38203,control_change,30,0,4,,,,,,,,0,64,127,,
38208,note_on,5,0,4,,,,,,,,0,,,38,0
38220,note_on,12,0,4,,,,,,,,0,,,45,64
38268,note_on,48,0,4,,,,,,,,0,,,45,0
38280,note_on,12,0,4,,,,,,,,0,,,50,64
38328,note_on,48,0,4,,,,,,,,0,,,50,0
38340,note_on,12,0,4,,,,,,,,0,,,57,80
38388,note_on,48,0,4,,,,,,,,0,,,57,0
38400,note_on,12,0,4,,,,,,,,0,,,57,80
38448,note_on,48,0,4,,,,,,,,0,,,57,0
38460,note_on,12,0,4,,,,,,,,0,,,50,64
38508,note_on,48,0,4,,,,,,,,0,,,50,0
38520,note_on,12,0,4,,,,,,,,0,,,45,64
38568,note_on,48,0,4,,,,,,,,0,,,45,0
38580,note_on,12,0,4,,,,,,,,0,,,38,80
38627,control_change,47,0,4,,,,,,,,0,64,0,,
38628,note_on,1,0,4,,,,,,,,0,,,38,0
38640,note_on,12,0,4,,,,,,,,0,,,38,80
38653,control_change,13,0,4,,,,,,,,0,64,127,,
38688,note_on,35,0,4,,,,,,,,0,,,38,0
38700,note_on,12,0,4,,,,,,,,0,,,45,64
38748,note_on,48,0,4,,,,,,,,0,,,45,0
38760,note_on,12,0,4,,,,,,,,0,,,50,64
38808,note_on,48,0,4,,,,,,,,0,,,50,0
38820,note_on,12,0,4,,,,,,,,0,,,62,80
38868,note_on,48,0,4,,,,,,,,0,,,62,0
38880,note_on,12,0,4,,,,,,,,0,,,62,80
38928,note_on,48,0,4,,,,,,,,0,,,62,0
38940,note_on,12,0,4,,,,,,,,0,,,50,64
38988,note_on,48,0,4,,,,,,,,0,,,50,0
39000,note_on,12,0,4,,,,,,,,0,,,45,64
39048,note_on,48,0,4,,,,,,,,0,,,45,0
39060,note_on,12,0,4,,,,,,,,0,,,38,80
39108,note_on,48,0,4,,,,,,,,0,,,38,0
39120,note_on,0,0,4,,,,,,,,0,,,33,80
39120,control_change,12,0,4,,,,,,,,0,64,0,,
39126,control_change,6,0,4,,,,,,,,0,64,0,,
39156,control_change,30,0,4,,,,,,,,0,64,127,,
39168,note_on,12,0,4,,,,,,,,0,,,33,0
39180,note_on,12,0,4,,,,,,,,0,,,40,64
39228,note_on,48,0,4,,,,,,,,0,,,40,0
39240,note_on,0,0,1,,,,,,,,0,,,69,80
39240,note_on,0,0,1,,,,,,,,0,,,72,80
39240,note_on,1368,0,1,,,,,,,,0,,,64,80
39240,note_on,12,0,4,,,,,,,,0,,,45,64
39288,note_on,48,0,4,,,,,,,,0,,,45,0
39300,note_on,12,0,4,,,,,,,,0,,,52,80
39336,note_on,0,0,1,,,,,,,,0,,,64,0
39336,note_on,0,0,1,,,,,,,,0,,,72,0
39336,note_on,96,0,1,,,,,,,,0,,,69,0
39348,note_on,48,0,4,,,,,,,,0,,,52,0
39360,note_on,24,0,1,,,,,,,,0,,,60,80
39360,note_on,0,0,1,,,,,,,,0,,,64,80
39360,note_on,0,0,1,,,,,,,,0,,,69,80
39360,note_on,12,0,4,,,,,,,,0,,,52,80
39408,note_on,48,0,4,,,,,,,,0,,,52,0
39420,note_on,12,0,4,,,,,,,,0,,,45,64
39456,note_on,96,0,1,,,,,,,,0,,,64,0
39456,note_on,0,0,1,,,,,,,,0,,,60,0
39456,note_on,0,0,1,,,,,,,,0,,,69,0
39468,note_on,48,0,4,,,,,,,,0,,,45,0
39480,note_on,0,0,1,,,,,,,,0,,,69,80
39480,note_on,0,0,1,,,,,,,,0,,,64,80
39480,note_on,24,0,1,,,,,,,,0,,,72,80
39480,note_on,12,0,4,,,,,,,,0,,,40,64
39528,note_on,48,0,4,,,,,,,,0,,,40,0
39540,note_on,12,0,4,,,,,,,,0,,,33,80
39576,note_on,0,0,1,,,,,,,,0,,,72,0
39576,note_on,96,0,1,,,,,,,,0,,,69,0
39576,note_on,0,0,1,,,,,,,,0,,,64,0
39580,control_change,40,0,4,,,,,,,,0,64,0,,
39588,note_on,8,0,4,,,,,,,,0,,,33,0
39600,note_on,24,0,1,,,,,,,,0,,,76,80
39600,note_on,0,0,1,,,,,,,,0,,,72,80
39600,note_on,0,0,1,,,,,,,,0,,,69,80
39600,note_on,12,0,4,,,,,,,,0,,,33,80
39606,control_change,6,0,4,,,,,,,,0,64,127,,
39648,note_on,42,0,4,,,,,,,,0,,,33,0
39660,note_on,12,0,4,,,,,,,,0,,,40,64
39696,note_on,96,0,1,,,,,,,,0,,,69,0
39696,note_on,0,0,1,,,,,,,,0,,,76,0
39696,note_on,0,0,1,,,,,,,,0,,,72,0
39708,note_on,48,0,4,,,,,,,,0,,,40,0
39720,note_on,0,0,1,,,,,,,,0,,,72,80
39720,note_on,24,0,1,,,,,,,,0,,,69,80
39720,note_on,0,0,1,,,,,,,,0,,,77,80
39720,note_on,12,0,4,,,,,,,,0,,,45,64
39768,note_on,48,0,4,,,,,,,,0,,,45,0
39780,note_on,12,0,4,,,,,,,,0,,,52,80
39816,note_on,0,0,1,,,,,,,,0,,,69,0
39816,note_on,96,0,1,,,,,,,,0,,,77,0
39816,note_on,0,0,1,,,,,,,,0,,,72,0
39828,note_on,48,0,4,,,,,,,,0,,,52,0
39840,note_on,0,0,1,,,,,,,,0,,,76,80
39840,note_on,24,0,1,,,,,,,,0,,,72,80
39840,note_on,0,0,1,,,,,,,,0,,,69,80
39840,note_on,12,0,4,,,,,,,,0,,,52,80
39888,note_on,48,0,4,,,,,,,,0,,,52,0
39900,note_on,12,0,4,,,,,,,,0,,,45,64
39936,note_on,0,0,1,,,,,,,,0,,,76,0
39936,note_on,0,0,1,,,,,,,,0,,,72,0
39936,note_on,96,0,1,,,,,,,,0,,,69,0
39948,note_on,48,0,4,,,,,,,,0,,,45,0
39960,note_on,12,0,4,,,,,,,,0,,,40,64
39960,note_on,24,0,1,,,,,,,,0,,,69,80
39960,note_on,0,0,1,,,,,,,,0,,,72,80
39960,note_on,0,0,1,,,,,,,,0,,,64,80
40008,note_on,48,0,4,,,,,,,,0,,,40,0
40020,note_on,12,0,4,,,,,,,,0,,,33,80
40056,note_on,0,0,1,,,,,,,,0,,,64,0
40056,note_on,96,0,1,,,,,,,,0,,,72,0
40056,note_on,0,0,1,,,,,,,,0,,,69,0
40068,note_on,48,0,4,,,,,,,,0,,,33,0
40080,note_on,0,0,1,,,,,,,,0,,,64,80
40080,note_on,0,0,1,,,,,,,,0,,,69,80
40080,note_on,24,0,1,,,,,,,,0,,,60,80
40080,note_on,12,0,4,,,,,,,,0,,,33,80
40080,control_change,0,0,4,,,,,,,,0,64,0,,
40086,control_change,6,0,4,,,,,,,,0,64,0,,
40116,control_change,30,0,4,,,,,,,,0,64,127,,
40128,note_on,12,0,4,,,,,,,,0,,,33,0
40140,note_on,12,0,4,,,,,,,,0,,,40,64
40176,note_on,96,0,1,,,,,,,,0,,,69,0
40176,note_on,0,0,1,,,,,,,,0,,,60,0
40176,note_on,0,0,1,,,,,,,,0,,,64,0
40188,note_on,48,0,4,,,,,,,,0,,,40,0
40200,note_on,0,0,1,,,,,,,,0,,,64,80
40200,note_on,12,0,4,,,,,,,,0,,,45,64
40200,note_on,0,0,1,,,,,,,,0,,,72,80
40200,note_on,24,0,1,,,,,,,,0,,,69,80
40248,note_on,48,0,4,,,,,,,,0,,,45,0
40260,note_on,12,0,4,,,,,,,,0,,,52,80
40296,note_on,0,0,1,,,,,,,,0,,,72,0
40296,note_on,0,0,1,,,,,,,,0,,,69,0
40296,note_on,96,0,1,,,,,,,,0,,,64,0
40308,note_on,48,0,4,,,,,,,,0,,,52,0
40320,note_on,0,0,1,,,,,,,,0,,,76,80
40320,note_on,24,0,1,,,,,,,,0,,,69,80
40320,note_on,0,0,1,,,,,,,,0,,,72,80
40320,note_on,12,0,4,,,,,,,,0,,,52,80
40368,note_on,48,0,4,,,,,,,,0,,,52,0
40380,note_on,12,0,4,,,,,,,,0,,,45,64
40416,note_on,0,0,1,,,,,,,,0,,,69,0
40416,note_on,96,0,1,,,,,,,,0,,,72,0
40416,note_on,0,0,1,,,,,,,,0,,,76,0
40428,note_on,48,0,4,,,,,,,,0,,,45,0
40440,note_on,12,0,4,,,,,,,,0,,,40,64
40440,note_on,24,0,1,,,,,,,,0,,,69,80
40440,note_on,0,0,1,,,,,,,,0,,,77,80
40440,note_on,0,0,1,,,,,,,,0,,,72,80
40488,note_on,48,0,4,,,,,,,,0,,,40,0
40500,note_on,12,0,4,,,,,,,,0,,,33,80
40536,note_on,96,0,1,,,,,,,,0,,,77,0
40536,note_on,0,0,1,,,,,,,,0,,,69,0
40536,note_on,0,0,1,,,,,,,,0,,,72,0
40540,control_change,40,0,4,,,,,,,,0,64,0,,
40548,note_on,8,0,4,,,,,,,,0,,,33,0
40560,note_on,12,0,4,,,,,,,,0,,,33,80
40560,note_on,0,0,1,,,,,,,,0,,,76,80
40560,note_on,24,0,1,,,,,,,,0,,,81,80
40560,note_on,0,0,1,,,,,,,,0,,,72,80
40566,control_change,6,0,4,,,,,,,,0,64,127,,
40608,note_on,42,0,4,,,,,,,,0,,,33,0
40620,note_on,12,0,4,,,,,,,,0,,,40,64
40656,note_on,0,0,1,,,,,,,,0,,,72,0
40656,note_on,0,0,1,,,,,,,,0,,,81,0
40656,note_on,96,0,1,,,,,,,,0,,,76,0
40668,note_on,48,0,4,,,,,,,,0,,,40,0
40680,note_on,12,0,4,,,,,,,,0,,,45,64
40680,note_on,24,0,1,,,,,,,,0,,,81,80
40680,note_on,0,0,1,,,,,,,,0,,,84,80
40680,note_on,0,0,1,,,,,,,,0,,,76,80
40728,note_on,48,0,4,,,,,,,,0,,,45,0
40740,note_on,12,0,4,,,,,,,,0,,,52,80
40776,note_on,0,0,1,,,,,,,,0,,,81,0
40776,note_on,96,0,1,,,,,,,,0,,,84,0
40776,note_on,0,0,1,,,,,,,,0,,,76,0
40788,note_on,48,0,4,,,,,,,,0,,,52,0
40800,note_on,0,0,1,,,,,,,,0,,,84,80
40800,note_on,0,0,1,,,,,,,,0,,,81,80
40800,note_on,24,0,1,,,,,,,,0,,,88,80
40800,note_on,12,0,4,,,,,,,,0,,,52,80
40848,note_on,48,0,4,,,,,,,,0,,,52,0
40860,note_on,12,0,4,,,,,,,,0,,,45,64
40896,note_on,96,0,1,,,,,,,,0,,,81,0
40896,note_on,0,0,1,,,,,,,,0,,,84,0
40896,note_on,0,0,1,,,,,,,,0,,,88,0
40908,note_on,48,0,4,,,,,,,,0,,,45,0
40920,note_on,24,0,1,,,,,,,,0,,,84,80
40920,note_on,12,0,4,,,,,,,,0,,,40,64
40920,note_on,0,0,1,,,,,,,,0,,,81,80
40920,note_on,0,0,1,,,,,,,,0,,,90,80
40968,note_on,48,0,4,,,,,,,,0,,,40,0
40980,note_on,12,0,4,,,,,,,,0,,,33,80
41016,note_on,0,0,1,,,,,,,,0,,,84,0
41016,note_on,0,0,1,,,,,,,,0,,,90,0
41016,note_on,96,0,1,,,,,,,,0,,,81,0
41028,note_on,48,0,4,,,,,,,,0,,,33,0
41040,note_on,12,0,4,,,,,,,,0,,,40,80
41040,note_on,0,0,1,,,,,,,,0,,,83,80
41040,note_on,0,0,1,,,,,,,,0,,,92,80
41040,note_on,24,0,1,,,,,,,,0,,,88,80
41047,control_change,7,0,4,,,,,,,,0,64,0,,
41053,control_change,6,0,4,,,,,,,,0,64,0,,
41083,control_change,30,0,4,,,,,,,,0,64,127,,
41088,note_on,5,0,4,,,,,,,,0,,,40,0
41100,note_on,12,0,4,,,,,,,,0,,,47,64
41148,note_on,48,0,4,,,,,,,,0,,,47,0
41160,note_on,12,0,4,,,,,,,,0,,,52,64
41208,note_on,48,0,4,,,,,,,,0,,,52,0
41220,note_on,12,0,4,,,,,,,,0,,,59,80
41268,note_on,48,0,4,,,,,,,,0,,,59,0
41280,note_on,12,0,4,,,,,,,,0,,,59,80
41328,note_on,48,0,4,,,,,,,,0,,,59,0
41340,note_on,12,0,4,,,,,,,,0,,,52,64
41388,note_on,48,0,4,,,,,,,,0,,,52,0
41400,note_on,12,0,4,,,,,,,,0,,,47,64
41424,note_on,0,0,1,,,,,,,,0,,,88,0
41424,note_on,0,0,1,,,,,,,,0,,,83,0
41424,note_on,384,0,1,,,,,,,,0,,,92,0
41448,note_on,48,0,4,,,,,,,,0,,,47,0
41460,note_on,12,0,4,,,,,,,,0,,,40,80
41507,control_change,47,0,4,,,,,,,,0,64,0,,
41508,note_on,1,0,4,,,,,,,,0,,,40,0
41520,note_on,0,0,1,,,,,,,,0,,,95,80
41520,note_on,0,0,1,,,,,,,,0,,,92,80
41520,note_on,12,0,4,,,,,,,,0,,,40,80
41520,note_on,96,0,1,,,,,,,,0,,,83,80
41533,control_change,13,0,4,,,,,,,,0,64,127,,
41568,note_on,35,0,4,,,,,,,,0,,,40,0
41580,note_on,12,0,4,,,,,,,,0,,,47,64
41628,note_on,48,0,4,,,,,,,,0,,,47,0
41640,note_on,12,0,4,,,,,,,,0,,,52,64
41688,note_on,48,0,4,,,,,,,,0,,,52,0
41700,note_on,12,0,4,,,,,,,,0,,,64,80
41712,note_on,192,0,1,,,,,,,,0,,,92,0
41712,note_on,0,0,1,,,,,,,,0,,,83,0
41712,note_on,0,0,1,,,,,,,,0,,,95,0
41748,note_on,48,0,4,,,,,,,,0,,,64,0
41760,note_on,12,0,4,,,,,,,,0,,,64,80
41808,note_on,48,0,4,,,,,,,,0,,,64,0
41820,note_on,12,0,4,,,,,,,,0,,,52,64
41868,note_on,48,0,4,,,,,,,,0,,,52,0
41880,note_on,12,0,4,,,,,,,,0,,,47,64
41928,note_on,48,0,4,,,,,,,,0,,,47,0
41940,note_on,12,0,4,,,,,,,,0,,,40,64
41988,note_on,48,0,4,,,,,,,,0,,,40,0
42000,note_on,0,0,4,,,,,,,,0,,,40,80
42000,control_change,12,0,4,,,,,,,,0,64,0,,
42006,control_change,6,0,4,,,,,,,,0,64,0,,
42036,control_change,30,0,4,,,,,,,,0,64,127,,
42048,note_on,12,0,4,,,,,,,,0,,,40,0
42060,note_on,12,0,4,,,,,,,,0,,,47,64
42108,note_on,48,0,4,,,,,,,,0,,,47,0
42120,note_on,12,0,4,,,,,,,,0,,,52,64
42168,note_on,48,0,4,,,,,,,,0,,,52,0
42180,note_on,12,0,4,,,,,,,,0,,,59,80
42228,note_on,48,0,4,,,,,,,,0,,,59,0
42240,note_on,12,0,4,,,,,,,,0,,,59,80
42288,note_on,48,0,4,,,,,,,,0,,,59,0
42300,note_on,12,0,4,,,,,,,,0,,,52,64
42348,note_on,48,0,4,,,,,,,,0,,,52,0
42360,note_on,12,0,4,,,,,,,,0,,,47,64
42408,note_on,48,0,4,,,,,,,,0,,,47,0
42420,note_on,12,0,4,,,,,,,,0,,,40,64
42460,control_change,40,0,4,,,,,,,,0,64,0,,
42468,note_on,8,0,4,,,,,,,,0,,,40,0
42480,note_on,12,0,4,,,,,,,,0,,,40,80
42486,control_change,6,0,4,,,,,,,,0,64,127,,
42528,note_on,42,0,4,,,,,,,,0,,,40,0
42540,note_on,12,0,4,,,,,,,,0,,,47,64
42588,note_on,48,0,4,,,,,,,,0,,,47,0
42600,note_on,12,0,4,,,,,,,,0,,,52,64
42648,note_on,48,0,4,,,,,,,,0,,,52,0
42660,note_on,12,0,4,,,,,,,,0,,,64,80
42708,note_on,48,0,4,,,,,,,,0,,,64,0
42720,note_on,12,0,4,,,,,,,,0,,,64,80
42768,note_on,48,0,4,,,,,,,,0,,,64,0
42780,note_on,12,0,4,,,,,,,,0,,,52,64
42828,note_on,48,0,4,,,,,,,,0,,,52,0
42840,note_on,12,0,4,,,,,,,,0,,,47,64
42888,note_on,48,0,4,,,,,,,,0,,,47,0
42900,note_on,12,0,4,,,,,,,,0,,,40,64
42948,note_on,48,0,4,,,,,,,,0,,,40,0
42960,note_on,0,0,4,,,,,,,,0,,,36,80
42960,control_change,12,0,4,,,,,,,,0,64,0,,
42966,control_change,6,0,4,,,,,,,,0,64,0,,
42996,control_change,30,0,4,,,,,,,,0,64,127,,
43008,note_on,12,0,4,,,,,,,,0,,,36,0
43020,note_on,12,0,4,,,,,,,,0,,,43,64
43068,note_on,48,0,4,,,,,,,,0,,,43,0
43080,note_on,1368,0,1,,,,,,,,0,,,67,80
43080,note_on,0,0,1,,,,,,,,0,,,76,80
43080,note_on,12,0,4,,,,,,,,0,,,48,64
43080,note_on,0,0,1,,,,,,,,0,,,72,80
43128,note_on,48,0,4,,,,,,,,0,,,48,0
43140,note_on,12,0,4,,,,,,,,0,,,55,80
43176,note_on,0,0,1,,,,,,,,0,,,67,0
43176,note_on,0,0,1,,,,,,,,0,,,76,0
43176,note_on,96,0,1,,,,,,,,0,,,72,0
43188,note_on,48,0,4,,,,,,,,0,,,55,0
43200,note_on,0,0,1,,,,,,,,0,,,67,80
43200,note_on,0,0,1,,,,,,,,0,,,72,80
43200,note_on,24,0,1,,,,,,,,0,,,64,80
43200,note_on,12,0,4,,,,,,,,0,,,55,80
43248,note_on,48,0,4,,,,,,,,0,,,55,0
43260,note_on,12,0,4,,,,,,,,0,,,48,64
43296,note_on,0,0,1,,,,,,,,0,,,72,0
43296,note_on,0,0,1,,,,,,,,0,,,64,0
43296,note_on,96,0,1,,,,,,,,0,,,67,0
43308,note_on,48,0,4,,,,,,,,0,,,48,0
43320,note_on,0,0,1,,,,,,,,0,,,76,80
43320,note_on,24,0,1,,,,,,,,0,,,67,80
43320,note_on,12,0,4,,,,,,,,0,,,43,64
43320,note_on,0,0,1,,,,,,,,0,,,72,80
43368,note_on,48,0,4,,,,,,,,0,,,43,0
43380,note_on,12,0,4,,,,,,,,0,,,36,80
43416,note_on,0,0,1,,,,,,,,0,,,67,0
43416,note_on,0,0,1,,,,,,,,0,,,72,0
43416,note_on,96,0,1,,,,,,,,0,,,76,0
43420,control_change,40,0,4,,,,,,,,0,64,0,,
43428,note_on,8,0,4,,,,,,,,0,,,36,0
43440,note_on,12,0,4,,,,,,,,0,,,36,80
43440,note_on,0,0,1,,,,,,,,0,,,72,80
43440,note_on,24,0,1,,,,,,,,0,,,76,80
43440,note_on,0,0,1,,,,,,,,0,,,79,80
43446,control_change,6,0,4,,,,,,,,0,64,127,,
43488,note_on,42,0,4,,,,,,,,0,,,36,0
43500,note_on,12,0,4,,,,,,,,0,,,43,64
43536,note_on,0,0,1,,,,,,,,0,,,76,0
43536,note_on,0,0,1,,,,,,,,0,,,72,0
43536,note_on,96,0,1,,,,,,,,0,,,79,0
43548,note_on,48,0,4,,,,,,,,0,,,43,0
43560,note_on,0,0,1,,,,,,,,0,,,81,80
43560,note_on,0,0,1,,,,,,,,0,,,76,80
43560,note_on,12,0,4,,,,,,,,0,,,48,64
43560,note_on,24,0,1,,,,,,,,0,,,72,80
43608,note_on,48,0,4,,,,,,,,0,,,48,0
43620,note_on,12,0,4,,,,,,,,0,,,55,80
43656,note_on,0,0,1,,,,,,,,0,,,76,0
43656,note_on,96,0,1,,,,,,,,0,,,81,0
43656,note_on,0,0,1,,,,,,,,0,,,72,0
43668,note_on,48,0,4,,,,,,,,0,,,55,0
43680,note_on,0,0,1,,,,,,,,0,,,72,80
43680,note_on,0,0,1,,,,,,,,0,,,79,80
43680,note_on,24,0,1,,,,,,,,0,,,76,80
43680,note_on,12,0,4,,,,,,,,0,,,55,80
43728,note_on,48,0,4,,,,,,,,0,,,55,0
43740,note_on,12,0,4,,,,,,,,0,,,48,64
43776,note_on,96,0,1,,,,,,,,0,,,72,0
43776,note_on,0,0,1,,,,,,,,0,,,76,0
43776,note_on,0,0,1,,,,,,,,0,,,79,0
43788,note_on,48,0,4,,,,,,,,0,,,48,0
43800,note_on,24,0,1,,,,,,,,0,,,76,80
43800,note_on,0,0,1,,,,,,,,0,,,67,80
43800,note_on,0,0,1,,,,,,,,0,,,72,80
43800,note_on,12,0,4,,,,,,,,0,,,43,64
43848,note_on,48,0,4,,,,,,,,0,,,43,0
43860,note_on,12,0,4,,,,,,,,0,,,36,80
43896,note_on,0,0,1,,,,,,,,0,,,67,0
43896,note_on,0,0,1,,,,,,,,0,,,76,0
43896,note_on,96,0,1,,,,,,,,0,,,72,0
43908,note_on,48,0,4,,,,,,,,0,,,36,0
43920,control_change,0,0,4,,,,,,,,0,64,0,,
43920,note_on,24,0,1,,,,,,,,0,,,64,80
43920,note_on,0,0,1,,,,,,,,0,,,72,80
43920,note_on,0,0,1,,,,,,,,0,,,67,80
43920,note_on,12,0,4,,,,,,,,0,,,36,80
43926,control_change,6,0,4,,,,,,,,0,64,0,,
43956,control_change,30,0,4,,,,,,,,0,64,127,,
43968,note_on,12,0,4,,,,,,,,0,,,36,0
43980,note_on,12,0,4,,,,,,,,0,,,43,64
44016,note_on,0,0,1,,,,,,,,0,,,67,0
44016,note_on,0,0,1,,,,,,,,0,,,64,0
44016,note_on,96,0,1,,,,,,,,0,,,72,0
44028,note_on,48,0,4,,,,,,,,0,,,43,0
44040,note_on,0,0,1,,,,,,,,0,,,76,80
44040,note_on,0,0,1,,,,,,,,0,,,67,80
44040,note_on,24,0,1,,,,,,,,0,,,72,80
44040,note_on,12,0,4,,,,,,,,0,,,48,64
44088,note_on,48,0,4,,,,,,,,0,,,48,0
44100,note_on,12,0,4,,,,,,,,0,,,55,80
44136,note_on,96,0,1,,,,,,,,0,,,67,0
44136,note_on,0,0,1,,,,,,,,0,,,72,0
44136,note_on,0,0,1,,,,,,,,0,,,76,0
44148,note_on,48,0,4,,,,,,,,0,,,55,0
44160,note_on,24,0,1,,,,,,,,0,,,76,80
44160,note_on,0,0,1,,,,,,,,0,,,72,80
44160,note_on,12,0,4,,,,,,,,0,,,55,80
44160,note_on,0,0,1,,,,,,,,0,,,79,80
44208,note_on,48,0,4,,,,,,,,0,,,55,0
44220,note_on,12,0,4,,,,,,,,0,,,48,64
44256,note_on,0,0,1,,,,,,,,0,,,76,0
44256,note_on,0,0,1,,,,,,,,0,,,79,0
44256,note_on,96,0,1,,,,,,,,0,,,72,0
44268,note_on,48,0,4,,,,,,,,0,,,48,0
44280,note_on,12,0,4,,,,,,,,0,,,43,64
44280,note_on,24,0,1,,,,,,,,0,,,72,80
44280,note_on,0,0,1,,,,,,,,0,,,76,80
44280,note_on,0,0,1,,,,,,,,0,,,81,80
44328,note_on,48,0,4,,,,,,,,0,,,43,0
44340,note_on,12,0,4,,,,,,,,0,,,36,80
44376,note_on,96,0,1,,,,,,,,0,,,76,0
44376,note_on,0,0,1,,,,,,,,0,,,81,0
44376,note_on,0,0,1,,,,,,,,0,,,72,0
44380,control_change,40,0,4,,,,,,,,0,64,0,,
44388,note_on,8,0,4,,,,,,,,0,,,36,0
44400,note_on,0,0,1,,,,,,,,0,,,84,80
44400,note_on,0,0,1,,,,,,,,0,,,76,80
44400,note_on,12,0,4,,,,,,,,0,,,36,80
44400,note_on,24,0,1,,,,,,,,0,,,79,80
44406,control_change,6,0,4,,,,,,,,0,64,127,,
44448,note_on,42,0,4,,,,,,,,0,,,36,0
44460,note_on,12,0,4,,,,,,,,0,,,43,64
44496,note_on,0,0,1,,,,,,,,0,,,79,0
44496,note_on,0,0,1,,,,,,,,0,,,84,0
44496,note_on,96,0,1,,,,,,,,0,,,76,0
44508,note_on,48,0,4,,,,,,,,0,,,43,0
44520,note_on,12,0,4,,,,,,,,0,,,48,64
44520,note_on,0,0,1,,,,,,,,0,,,88,80
44520,note_on,0,0,1,,,,,,,,0,,,84,80
44520,note_on,24,0,1,,,,,,,,0,,,79,80
44568,note_on,48,0,4,,,,,,,,0,,,48,0
44580,note_on,12,0,4,,,,,,,,0,,,55,80
44616,note_on,96,0,1,,,,,,,,0,,,88,0
44616,note_on,0,0,1,,,,,,,,0,,,84,0
44616,note_on,0,0,1,,,,,,,,0,,,79,0
44628,note_on,48,0,4,,,,,,,,0,,,55,0
44640,note_on,12,0,4,,,,,,,,0,,,55,80
44640,note_on,0,0,1,,,,,,,,0,,,84,80
44640,note_on,24,0,1,,,,,,,,0,,,88,80
44640,note_on,0,0,1,,,,,,,,0,,,91,80
44688,note_on,48,0,4,,,,,,,,0,,,55,0
44700,note_on,12,0,4,,,,,,,,0,,,48,64
44736,note_on,0,0,1,,,,,,,,0,,,88,0
44736,note_on,0,0,1,,,,,,,,0,,,91,0
44736,note_on,96,0,1,,,,,,,,0,,,84,0
44748,note_on,48,0,4,,,,,,,,0,,,48,0
44760,note_on,0,0,1,,,,,,,,0,,,84,80
44760,note_on,0,0,1,,,,,,,,0,,,88,80
44760,note_on,12,0,4,,,,,,,,0,,,43,64
44760,note_on,24,0,1,,,,,,,,0,,,93,80
44808,note_on,48,0,4,,,,,,,,0,,,43,0
44820,note_on,12,0,4,,,,,,,,0,,,36,80
44856,note_on,96,0,1,,,,,,,,0,,,84,0
44856,note_on,0,0,1,,,,,,,,0,,,93,0
44856,note_on,0,0,1,,,,,,,,0,,,88,0
44868,note_on,48,0,4,,,,,,,,0,,,36,0
44875,set_tempo,10572,1,0,,,,,,627878,,,,,,
44880,note_on,0,0,1,,,,,,,,0,,,95,80
44880,note_on,0,0,1,,,,,,,,0,,,91,80
44880,note_on,0,0,1,,,,,,,,0,,,86,80
44880,note_on,12,0,4,,,,,,,,0,,,43,80
44880,note_on,24,0,1,,,,,,,,0,,,83,80
44890,control_change,10,0,4,,,,,,,,0,64,0,,
44896,control_change,6,0,4,,,,,,,,0,64,0,,
44926,control_change,30,0,4,,,,,,,,0,64,127,,
44928,note_on,2,0,4,,,,,,,,0,,,43,0
44936,set_tempo,61,1,0,,,,,,634451,,,,,,
44940,note_on,12,0,4,,,,,,,,0,,,50,80
44988,note_on,48,0,4,,,,,,,,0,,,50,0
44993,set_tempo,57,1,0,,,,,,641163,,,,,,
45000,note_on,12,0,4,,,,,,,,0,,,55,80
45048,note_on,48,0,4,,,,,,,,0,,,55,0
45054,set_tempo,61,1,0,,,,,,648018,,,,,,
45060,note_on,12,0,4,,,,,,,,0,,,59,80
45108,note_on,48,0,4,,,,,,,,0,,,59,0
45110,set_tempo,56,1,0,,,,,,655022,,,,,,
45120,note_on,12,0,4,,,,,,,,0,,,59,80
45167,set_tempo,57,1,0,,,,,,662179,,,,,,
45168,note_on,48,0,4,,,,,,,,0,,,59,0
45180,note_on,12,0,4,,,,,,,,0,,,55,80
45228,set_tempo,61,1,0,,,,,,669493,,,,,,
45228,note_on,48,0,4,,,,,,,,0,,,55,0
45240,note_on,12,0,4,,,,,,,,0,,,50,80
45264,note_on,384,0,1,,,,,,,,0,,,86,0
45264,note_on,0,0,1,,,,,,,,0,,,83,0
45264,note_on,0,0,1,,,,,,,,0,,,91,0
45264,note_on,0,0,1,,,,,,,,0,,,95,0
45285,set_tempo,57,1,0,,,,,,676972,,,,,,
45288,note_on,48,0,4,,,,,,,,0,,,50,0
45300,note_on,12,0,4,,,,,,,,0,,,43,80
45342,set_tempo,57,1,0,,,,,,684619,,,,,,
45348,note_on,48,0,4,,,,,,,,0,,,43,0
45350,control_change,2,0,4,,,,,,,,0,64,0,,
45350,set_tempo,8,1,0,,,,,,585423,,,,,,
45355,set_tempo,5,1,0,,,,,,591133,,,,,,
45360,note_on,0,0,1,,,,,,,,0,,,83,80
45360,note_on,0,0,1,,,,,,,,0,,,95,80
45360,note_on,10,0,4,,,,,,,,0,,,40,92
45360,note_on,0,0,1,,,,,,,,0,,,91,80
45360,note_on,96,0,1,,,,,,,,0,,,88,80
45376,control_change,16,0,4,,,,,,,,0,64,127,,
45385,set_tempo,30,1,0,,,,,,596956,,,,,,
45408,note_on,32,0,4,,,,,,,,0,,,40,0
45416,set_tempo,31,1,0,,,,,,602894,,,,,,
45420,note_on,12,0,4,,,,,,,,0,,,47,84
45446,set_tempo,30,1,0,,,,,,608952,,,,,,
45468,note_on,48,0,4,,,,,,,,0,,,47,0
45473,set_tempo,27,1,0,,,,,,615132,,,,,,
45480,note_on,12,0,4,,,,,,,,0,,,52,84
45503,set_tempo,30,1,0,,,,,,621440,,,,,,
45528,note_on,48,0,4,,,,,,,,0,,,52,0
45534,set_tempo,31,1,0,,,,,,627878,,,,,,
45540,note_on,12,0,4,,,,,,,,0,,,59,84
45564,set_tempo,30,1,0,,,,,,634451,,,,,,
45588,note_on,48,0,4,,,,,,,,0,,,59,0
45590,set_tempo,26,1,0,,,,,,641163,,,,,,
45600,note_on,12,0,4,,,,,,,,0,,,59,84
45621,set_tempo,31,1,0,,,,,,648018,,,,,,
45648,note_on,48,0,4,,,,,,,,0,,,59,0
45652,set_tempo,31,1,0,,,,,,655022,,,,,,
45660,note_on,12,0,4,,,,,,,,0,,,52,84
45682,set_tempo,30,1,0,,,,,,662179,,,,,,
45696,note_on,0,0,1,,,,,,,,0,,,88,0
45696,note_on,0,0,1,,,,,,,,0,,,83,0
45696,note_on,336,0,1,,,,,,,,0,,,95,0
45696,note_on,0,0,1,,,,,,,,0,,,91,0
45708,note_on,48,0,4,,,,,,,,0,,,52,0
45708,set_tempo,26,1,0,,,,,,669493,,,,,,
45720,note_on,12,0,4,,,,,,,,0,,,47,84
45739,set_tempo,31,1,0,,,,,,676972,,,,,,
45768,note_on,48,0,4,,,,,,,,0,,,47,0
45769,set_tempo,30,1,0,,,,,,684619,,,,,,
45780,note_on,0,0,1,,,,,,,,0,,,85,80
45780,note_on,12,0,4,,,,,,,,0,,,40,84
45780,note_on,84,0,1,,,,,,,,0,,,97,80
45800,set_tempo,31,1,0,,,,,,692441,,,,,,
45826,set_tempo,26,1,0,,,,,,700444,,,,,,
45828,note_on,0,0,1,,,,,,,,0,,,97,0
45828,note_on,48,0,1,,,,,,,,0,,,85,0
45828,note_on,48,0,4,,,,,,,,0,,,40,0
45835,set_tempo,9,1,0,,,,,,859353,,,,,,
45839,set_tempo,4,1,0,,,,,,627878,,,,,,
45840,note_on,12,0,4,,,,,,,,0,,,35,80
45840,note_on,0,0,1,,,,,,,,0,,,87,80
45840,note_on,0,0,1,,,,,,,,0,,,90,80
45840,note_on,0,0,1,,,,,,,,0,,,95,80
45840,note_on,12,0,1,,,,,,,,0,,,99,80
45844,set_tempo,5,1,0,,,,,,602894,,,,,,
45854,control_change,14,0,4,,,,,,,,0,64,0,,
45860,control_change,6,0,4,,,,,,,,0,64,0,,
45888,note_on,28,0,4,,,,,,,,0,,,35,0
45890,control_change,2,0,4,,,,,,,,0,64,127,,
45900,note_on,10,0,4,,,,,,,,0,,,42,80
45948,note_on,48,0,4,,,,,,,,0,,,42,0
45960,note_on,12,0,4,,,,,,,,0,,,47,80
46008,note_on,48,0,4,,,,,,,,0,,,47,0
46020,note_on,12,0,4,,,,,,,,0,,,54,80
46068,note_on,48,0,4,,,,,,,,0,,,54,0
46080,note_on,12,0,4,,,,,,,,0,,,54,80
46128,note_on,48,0,4,,,,,,,,0,,,54,0
46140,note_on,12,0,4,,,,,,,,0,,,47,80
46188,note_on,48,0,4,,,,,,,,0,,,47,0
46200,note_on,12,0,4,,,,,,,,0,,,42,80
46248,note_on,48,0,4,,,,,,,,0,,,42,0
46260,note_on,12,0,4,,,,,,,,0,,,35,80
46308,note_on,48,0,4,,,,,,,,0,,,35,0
46314,control_change,6,0,4,,,,,,,,0,64,0,,
46320,note_on,6,0,4,,,,,,,,0,,,35,80
46340,control_change,20,0,4,,,,,,,,0,64,127,,
46368,note_on,28,0,4,,,,,,,,0,,,35,0
46380,note_on,12,0,4,,,,,,,,0,,,42,80
46428,note_on,48,0,4,,,,,,,,0,,,42,0
46440,note_on,12,0,4,,,,,,,,0,,,47,80
46488,note_on,48,0,4,,,,,,,,0,,,47,0
46500,note_on,12,0,4,,,,,,,,0,,,54,80
46548,note_on,48,0,4,,,,,,,,0,,,54,0
46560,note_on,12,0,4,,,,,,,,0,,,54,80
46608,note_on,0,0,1,,,,,,,,0,,,90,0
46608,note_on,0,0,1,,,,,,,,0,,,99,0
46608,note_on,768,0,1,,,,,,,,0,,,95,0
46608,note_on,0,0,1,,,,,,,,0,,,87,0
46608,note_on,48,0,4,,,,,,,,0,,,54,0
46620,note_on,12,0,4,,,,,,,,0,,,47,80
46668,note_on,48,0,4,,,,,,,,0,,,47,0
46680,note_on,12,0,4,,,,,,,,0,,,42,80
46728,note_on,48,0,4,,,,,,,,0,,,42,0
46740,note_on,12,0,4,,,,,,,,0,,,35,80
46788,note_on,48,0,4,,,,,,,,0,,,35,0
46800,control_change,12,0,4,,,,,,,,0,64,0,,
46800,note_on,0,0,4,,,,,,,,0,,,35,80
46806,control_change,6,0,4,,,,,,,,0,64,0,,
46836,control_change,30,0,4,,,,,,,,0,64,127,,
46848,note_on,12,0,4,,,,,,,,0,,,35,0
46860,note_on,12,0,4,,,,,,,,0,,,42,80
46908,note_on,48,0,4,,,,,,,,0,,,42,0
46920,note_on,0,0,1,,,,,,,,0,,,99,80
46920,note_on,12,0,4,,,,,,,,0,,,47,80
46920,note_on,312,0,1,,,,,,,,0,,,94,80
46920,note_on,0,0,1,,,,,,,,0,,,90,80
46968,note_on,48,0,4,,,,,,,,0,,,47,0
46980,note_on,12,0,4,,,,,,,,0,,,54,80
47016,note_on,0,0,1,,,,,,,,0,,,99,0
47016,note_on,0,0,1,,,,,,,,0,,,94,0
47016,note_on,96,0,1,,,,,,,,0,,,90,0
47028,note_on,48,0,4,,,,,,,,0,,,54,0
47040,note_on,24,0,1,,,,,,,,0,,,88,80
47040,note_on,0,0,1,,,,,,,,0,,,97,80
47040,note_on,12,0,4,,,,,,,,0,,,54,80
47040,note_on,0,0,1,,,,,,,,0,,,94,80
47088,note_on,48,0,4,,,,,,,,0,,,54,0
47100,note_on,12,0,4,,,,,,,,0,,,47,80
47136,note_on,96,0,1,,,,,,,,0,,,94,0
47136,note_on,0,0,1,,,,,,,,0,,,97,0
47136,note_on,0,0,1,,,,,,,,0,,,88,0
47148,note_on,48,0,4,,,,,,,,0,,,47,0
47160,note_on,24,0,1,,,,,,,,0,,,99,80
47160,note_on,12,0,4,,,,,,,,0,,,42,80
47160,note_on,0,0,1,,,,,,,,0,,,90,80
47160,note_on,0,0,1,,,,,,,,0,,,94,80
47208,note_on,48,0,4,,,,,,,,0,,,42,0
47220,note_on,12,0,4,,,,,,,,0,,,35,80
47256,note_on,96,0,1,,,,,,,,0,,,94,0
47256,note_on,0,0,1,,,,,,,,0,,,90,0
47256,note_on,0,0,1,,,,,,,,0,,,99,0
47260,control_change,40,0,4,,,,,,,,0,64,0,,
47268,note_on,8,0,4,,,,,,,,0,,,35,0
47280,note_on,24,0,1,,,,,,,,0,,,100,80
47280,note_on,12,0,4,,,,,,,,0,,,35,80
47280,note_on,0,0,1,,,,,,,,0,,,91,80
47280,note_on,0,0,1,,,,,,,,0,,,94,80
47286,control_change,6,0,4,,,,,,,,0,64,127,,
47328,note_on,42,0,4,,,,,,,,0,,,35,0
47340,note_on,12,0,4,,,,,,,,0,,,42,80
47376,note_on,0,0,1,,,,,,,,0,,,100,0
47376,note_on,0,0,1,,,,,,,,0,,,91,0
47376,note_on,96,0,1,,,,,,,,0,,,94,0
47388,note_on,48,0,4,,,,,,,,0,,,42,0
47400,note_on,12,0,4,,,,,,,,0,,,47,80
47400,note_on,0,0,1,,,,,,,,0,,,94,80
47400,note_on,0,0,1,,,,,,,,0,,,99,80
47400,note_on,24,0,1,,,,,,,,0,,,90,80
47448,note_on,48,0,4,,,,,,,,0,,,47,0
47460,note_on,12,0,4,,,,,,,,0,,,54,80
47496,note_on,0,0,1,,,,,,,,0,,,94,0
47496,note_on,0,0,1,,,,,,,,0,,,90,0
47496,note_on,96,0,1,,,,,,,,0,,,99,0
47508,note_on,48,0,4,,,,,,,,0,,,54,0
47520,note_on,0,0,1,,,,,,,,0,,,88,80
47520,note_on,12,0,4,,,,,,,,0,,,54,80
47520,note_on,24,0,1,,,,,,,,0,,,97,80
47520,note_on,0,0,1,,,,,,,,0,,,94,80
47568,note_on,48,0,4,,,,,,,,0,,,54,0
47580,note_on,12,0,4,,,,,,,,0,,,47,80
47616,note_on,96,0,1,,,,,,,,0,,,94,0
47616,note_on,0,0,1,,,,,,,,0,,,97,0
47616,note_on,0,0,1,,,,,,,,0,,,88,0
47628,note_on,48,0,4,,,,,,,,0,,,47,0
47640,note_on,24,0,1,,,,,,,,0,,,99,80
47640,note_on,12,0,4,,,,,,,,0,,,42,80
47640,note_on,0,0,1,,,,,,,,0,,,94,80
47640,note_on,0,0,1,,,,,,,,0,,,90,80
47688,note_on,48,0,4,,,,,,,,0,,,42,0
47700,note_on,12,0,4,,,,,,,,0,,,35,80
47736,note_on,96,0,1,,,,,,,,0,,,94,0
47736,note_on,0,0,1,,,,,,,,0,,,90,0
47736,note_on,0,0,1,,,,,,,,0,,,99,0
47748,note_on,48,0,4,,,,,,,,0,,,35,0
47760,note_on,0,0,1,,,,,,,,0,,,90,80
47760,note_on,12,0,4,,,,,,,,0,,,35,80
47760,note_on,24,0,1,,,,,,,,0,,,87,80
47760,note_on,0,0,1,,,,,,,,0,,,95,80
47765,control_change,5,0,4,,,,,,,,0,64,0,,
47771,control_change,6,0,4,,,,,,,,0,64,0,,
47801,control_change,30,0,4,,,,,,,,0,64,127,,
47808,note_on,7,0,4,,,,,,,,0,,,35,0
47820,note_on,12,0,4,,,,,,,,0,,,42,80
47856,note_on,96,0,1,,,,,,,,0,,,95,0
47856,note_on,0,0,1,,,,,,,,0,,,87,0
47856,note_on,0,0,1,,,,,,,,0,,,90,0
47868,note_on,48,0,4,,,,,,,,0,,,42,0
47880,note_on,12,0,4,,,,,,,,0,,,47,80
47880,note_on,0,0,1,,,,,,,,0,,,91,80
47880,note_on,0,0,1,,,,,,,,0,,,83,80
47880,note_on,24,0,1,,,,,,,,0,,,87,80
47928,note_on,48,0,4,,,,,,,,0,,,47,0
47940,note_on,12,0,4,,,,,,,,0,,,54,80
47976,note_on,0,0,1,,,,,,,,0,,,87,0
47976,note_on,0,0,1,,,,,,,,0,,,91,0
47976,note_on,96,0,1,,,,,,,,0,,,83,0
47988,note_on,48,0,4,,,,,,,,0,,,54,0
48000,note_on,24,0,1,,,,,,,,0,,,90,80
48000,note_on,0,0,1,,,,,,,,0,,,83,80
48000,note_on,0,0,1,,,,,,,,0,,,87,80
48000,note_on,12,0,4,,,,,,,,0,,,54,80
48048,note_on,48,0,4,,,,,,,,0,,,54,0
48060,note_on,12,0,4,,,,,,,,0,,,47,80
48096,note_on,96,0,1,,,,,,,,0,,,87,0
48096,note_on,0,0,1,,,,,,,,0,,,83,0
48096,note_on,0,0,1,,,,,,,,0,,,90,0
48108,note_on,48,0,4,,,,,,,,0,,,47,0
48120,note_on,0,0,1,,,,,,,,0,,,87,80
48120,note_on,0,0,1,,,,,,,,0,,,78,80
48120,note_on,24,0,1,,,,,,,,0,,,83,80
48120,note_on,12,0,4,,,,,,,,0,,,42,80
48168,note_on,48,0,4,,,,,,,,0,,,42,0
48180,note_on,12,0,4,,,,,,,,0,,,35,80
48216,note_on,96,0,1,,,,,,,,0,,,87,0
48216,note_on,0,0,1,,,,,,,,0,,,78,0
48216,note_on,0,0,1,,,,,,,,0,,,83,0
48225,control_change,45,0,4,,,,,,,,0,64,0,,
48228,note_on,3,0,4,,,,,,,,0,,,35,0
48240,note_on,24,0,1,,,,,,,,0,,,79,80
48240,note_on,12,0,4,,,,,,,,0,,,35,80
48240,note_on,0,0,1,,,,,,,,0,,,75,80
48240,note_on,0,0,1,,,,,,,,0,,,83,80
48251,control_change,11,0,4,,,,,,,,0,64,127,,
48288,note_on,37,0,4,,,,,,,,0,,,35,0
48300,note_on,12,0,4,,,,,,,,0,,,42,80
48348,note_on,48,0,4,,,,,,,,0,,,42,0
48360,note_on,12,0,4,,,,,,,,0,,,47,80
48408,note_on,48,0,4,,,,,,,,0,,,47,0
48420,note_on,12,0,4,,,,,,,,0,,,54,80
48432,note_on,0,0,1,,,,,,,,0,,,79,0
48432,note_on,192,0,1,,,,,,,,0,,,75,0
48432,note_on,0,0,1,,,,,,,,0,,,83,0
48468,note_on,48,0,4,,,,,,,,0,,,54,0
48480,note_on,0,0,1,,,,,,,,0,,,78,80
48480,note_on,0,0,1,,,,,,,,0,,,71,80
48480,note_on,12,0,4,,,,,,,,0,,,54,80
48480,note_on,48,0,1,,,,,,,,0,,,75,80
48528,note_on,48,0,4,,,,,,,,0,,,54,0
48540,note_on,12,0,4,,,,,,,,0,,,47,80
48588,note_on,48,0,4,,,,,,,,0,,,47,0
48600,note_on,12,0,4,,,,,,,,0,,,42,80
48648,note_on,48,0,4,,,,,,,,0,,,42,0
48660,note_on,12,0,4,,,,,,,,0,,,35,80
48672,note_on,0,0,1,,,,,,,,0,,,75,0
48672,note_on,192,0,1,,,,,,,,0,,,71,0
48672,note_on,0,0,1,,,,,,,,0,,,78,0
48708,note_on,48,0,4,,,,,,,,0,,,35,0
48720,note_on,12,0,4,,,,,,,,0,,,35,80
48720,control_change,0,0,4,,,,,,,,0,64,0,,
48726,control_change,6,0,4,,,,,,,,0,64,0,,
48756,control_change,30,0,4,,,,,,,,0,64,127,,
48768,note_on,12,0,4,,,,,,,,0,,,35,0
48780,note_on,12,0,4,,,,,,,,0,,,42,80
48828,note_on,48,0,4,,,,,,,,0,,,42,0
48840,note_on,0,0,1,,,,,,,,0,,,87,80
48840,note_on,0,0,1,,,,,,,,0,,,78,80
48840,note_on,168,0,1,,,,,,,,0,,,82,80
48840,note_on,12,0,4,,,,,,,,0,,,47,80
48888,note_on,48,0,4,,,,,,,,0,,,47,0
48900,note_on,12,0,4,,,,,,,,0,,,54,80
48936,note_on,96,0,1,,,,,,,,0,,,87,0
48936,note_on,0,0,1,,,,,,,,0,,,78,0
48936,note_on,0,0,1,,,,,,,,0,,,82,0
48948,note_on,48,0,4,,,,,,,,0,,,54,0
48960,note_on,0,0,1,,,,,,,,0,,,76,80
48960,note_on,12,0,4,,,,,,,,0,,,54,80
48960,note_on,24,0,1,,,,,,,,0,,,82,80
48960,note_on,0,0,1,,,,,,,,0,,,85,80
49008,note_on,48,0,4,,,,,,,,0,,,54,0
49020,note_on,12,0,4,,,,,,,,0,,,47,80
49056,note_on,0,0,1,,,,,,,,0,,,85,0
49056,note_on,0,0,1,,,,,,,,0,,,82,0
49056,note_on,96,0,1,,,,,,,,0,,,76,0
49068,note_on,48,0,4,,,,,,,,0,,,47,0
49080,note_on,0,0,1,,,,,,,,0,,,78,80
49080,note_on,24,0,1,,,,,,,,0,,,87,80
49080,note_on,12,0,4,,,,,,,,0,,,42,80
49080,note_on,0,0,1,,,,,,,,0,,,82,80
49128,note_on,48,0,4,,,,,,,,0,,,42,0
49140,note_on,12,0,4,,,,,,,,0,,,35,80
49176,note_on,0,0,1,,,,,,,,0,,,87,0
49176,note_on,96,0,1,,,,,,,,0,,,78,0
49176,note_on,0,0,1,,,,,,,,0,,,82,0
49180,control_change,40,0,4,,,,,,,,0,64,0,,
49188,note_on,8,0,4,,,,,,,,0,,,35,0
49200,note_on,0,0,1,,,,,,,,0,,,82,80
49200,note_on,0,0,1,,,,,,,,0,,,88,80
49200,note_on,24,0,1,,,,,,,,0,,,79,80
49200,note_on,12,0,4,,,,,,,,0,,,35,80
49206,control_change,6,0,4,,,,,,,,0,64,127,,
49248,note_on,42,0,4,,,,,,,,0,,,35,0
49260,note_on,12,0,4,,,,,,,,0,,,42,80
49296,note_on,0,0,1,,,,,,,,0,,,82,0
49296,note_on,0,0,1,,,,,,,,0,,,79,0
49296,note_on,96,0,1,,,,,,,,0,,,88,0
49308,note_on,48,0,4,,,,,,,,0,,,42,0
49320,note_on,12,0,4,,,,,,,,0,,,47,80
49320,note_on,0,0,1,,,,,,,,0,,,82,80
49320,note_on,24,0,1,,,,,,,,0,,,78,80
49320,note_on,0,0,1,,,,,,,,0,,,87,80
49368,note_on,48,0,4,,,,,,,,0,,,47,0
49380,note_on,12,0,4,,,,,,,,0,,,54,80
49416,note_on,96,0,1,,,,,,,,0,,,87,0
49416,note_on,0,0,1,,,,,,,,0,,,78,0
49416,note_on,0,0,1,,,,,,,,0,,,82,0
49428,note_on,48,0,4,,,,,,,,0,,,54,0
49440,note_on,24,0,1,,,,,,,,0,,,82,80
49440,note_on,12,0,4,,,,,,,,0,,,54,80
49440,note_on,0,0,1,,,,,,,,0,,,76,80
49440,note_on,0,0,1,,,,,,,,0,,,85,80
49488,note_on,48,0,4,,,,,,,,0,,,54,0
49500,note_on,12,0,4,,,,,,,,0,,,47,80
49536,note_on,96,0,1,,,,,,,,0,,,76,0
49536,note_on,0,0,1,,,,,,,,0,,,82,0
49536,note_on,0,0,1,,,,,,,,0,,,85,0
49548,note_on,48,0,4,,,,,,,,0,,,47,0
49560,note_on,24,0,1,,,,,,,,0,,,78,80
49560,note_on,12,0,4,,,,,,,,0,,,42,80
49560,note_on,0,0,1,,,,,,,,0,,,87,80
49560,note_on,0,0,1,,,,,,,,0,,,82,80
49608,note_on,48,0,4,,,,,,,,0,,,42,0
49620,note_on,12,0,4,,,,,,,,0,,,35,80
49656,note_on,0,0,1,,,,,,,,0,,,87,0
49656,note_on,96,0,1,,,,,,,,0,,,82,0
49656,note_on,0,0,1,,,,,,,,0,,,78,0
49668,note_on,48,0,4,,,,,,,,0,,,35,0
49680,note_on,0,0,4,,,,,,,,0,,,35,80
49680,control_change,12,0,4,,,,,,,,0,64,0,,
49680,note_on,24,0,1,,,,,,,,0,,,83,80
49680,note_on,0,0,1,,,,,,,,0,,,75,80
49680,note_on,0,0,1,,,,,,,,0,,,78,80
49686,control_change,6,0,4,,,,,,,,0,64,0,,
49716,control_change,30,0,4,,,,,,,,0,64,127,,
49728,note_on,12,0,4,,,,,,,,0,,,35,0
49740,note_on,12,0,4,,,,,,,,0,,,42,80
49776,note_on,0,0,1,,,,,,,,0,,,75,0
49776,note_on,0,0,1,,,,,,,,0,,,83,0
49776,note_on,96,0,1,,,,,,,,0,,,78,0
49788,note_on,48,0,4,,,,,,,,0,,,42,0
49800,note_on,24,0,1,,,,,,,,0,,,75,80
49800,note_on,0,0,1,,,,,,,,0,,,79,80
49800,note_on,12,0,4,,,,,,,,0,,,47,80
49800,note_on,0,0,1,,,,,,,,0,,,71,80
49848,note_on,48,0,4,,,,,,,,0,,,47,0
49860,note_on,12,0,4,,,,,,,,0,,,54,80
49896,note_on,0,0,1,,,,,,,,0,,,79,0
49896,note_on,0,0,1,,,,,,,,0,,,75,0
49896,note_on,96,0,1,,,,,,,,0,,,71,0
49908,note_on,48,0,4,,,,,,,,0,,,54,0
49920,note_on,0,0,1,,,,,,,,0,,,71,80
49920,note_on,24,0,1,,,,,,,,0,,,78,80
49920,note_on,12,0,4,,,,,,,,0,,,54,80
49920,note_on,0,0,1,,,,,,,,0,,,75,80
49968,note_on,48,0,4,,,,,,,,0,,,54,0
49980,note_on,12,0,4,,,,,,,,0,,,47,80
50016,note_on,0,0,1,,,,,,,,0,,,78,0
50016,note_on,0,0,1,,,,,,,,0,,,71,0
50016,note_on,96,0,1,,,,,,,,0,,,75,0
50028,note_on,48,0,4,,,,,,,,0,,,47,0
50040,note_on,12,0,4,,,,,,,,0,,,42,80
50040,note_on,24,0,1,,,,,,,,0,,,71,80
50040,note_on,0,0,1,,,,,,,,0,,,75,80
50040,note_on,0,0,1,,,,,,,,0,,,66,80
50088,note_on,48,0,4,,,,,,,,0,,,42,0
50100,note_on,12,0,4,,,,,,,,0,,,35,80
50136,note_on,96,0,1,,,,,,,,0,,,75,0
50136,note_on,0,0,1,,,,,,,,0,,,71,0
50136,note_on,0,0,1,,,,,,,,0,,,66,0
50140,control_change,40,0,4,,,,,,,,0,64,0,,
50148,note_on,8,0,4,,,,,,,,0,,,35,0
50160,note_on,12,0,4,,,,,,,,0,,,35,80
50160,note_on,24,0,1,,,,,,,,0,,,74,80
50160,note_on,0,0,1,,,,,,,,0,,,67,80
50160,note_on,0,0,1,,,,,,,,0,,,71,80
50166,control_change,6,0,4,,,,,,,,0,64,127,,
50208,note_on,42,0,4,,,,,,,,0,,,35,0
50220,note_on,12,0,4,,,,,,,,0,,,42,80
50256,note_on,0,0,1,,,,,,,,0,,,71,0
50256,note_on,96,0,1,,,,,,,,0,,,67,0
50256,note_on,0,0,1,,,,,,,,0,,,74,0
50268,note_on,48,0,4,,,,,,,,0,,,42,0
50280,note_on,24,0,1,,,,,,,,0,,,71,80
50280,note_on,12,0,4,,,,,,,,0,,,47,80
50280,note_on,0,0,1,,,,,,,,0,,,67,80
50280,note_on,0,0,1,,,,,,,,0,,,64,80
50328,note_on,48,0,4,,,,,,,,0,,,47,0
50340,note_on,12,0,4,,,,,,,,0,,,54,80
50376,note_on,0,0,1,,,,,,,,0,,,67,0
50376,note_on,96,0,1,,,,,,,,0,,,64,0
50376,note_on,0,0,1,,,,,,,,0,,,71,0
50388,note_on,48,0,4,,,,,,,,0,,,54,0
50400,note_on,24,0,1,,,,,,,,0,,,62,80
50400,note_on,0,0,1,,,,,,,,0,,,71,80
50400,note_on,12,0,4,,,,,,,,0,,,54,80
50400,note_on,0,0,1,,,,,,,,0,,,67,80
50448,note_on,48,0,4,,,,,,,,0,,,54,0
50460,note_on,12,0,4,,,,,,,,0,,,47,80
50496,note_on,0,0,1,,,,,,,,0,,,71,0
50496,note_on,0,0,1,,,,,,,,0,,,62,0
50496,note_on,96,0,1,,,,,,,,0,,,67,0
50508,note_on,48,0,4,,,,,,,,0,,,47,0
50520,note_on,0,0,1,,,,,,,,0,,,62,80
50520,note_on,12,0,4,,,,,,,,0,,,42,80
50520,note_on,0,0,1,,,,,,,,0,,,67,80
50520,note_on,24,0,1,,,,,,,,0,,,59,80
50568,note_on,48,0,4,,,,,,,,0,,,42,0
50580,note_on,12,0,4,,,,,,,,0,,,35,80
50616,note_on,96,0,1,,,,,,,,0,,,62,0
50616,note_on,0,0,1,,,,,,,,0,,,59,0
50616,note_on,0,0,1,,,,,,,,0,,,67,0
50628,note_on,48,0,4,,,,,,,,0,,,35,0
50640,note_on,0,0,3,,,,,,,,0,,,63,80
50640,note_on,18048,0,3,,,,,,,,0,,,71,80
50640,note_on,12,0,4,,,,,,,,0,,,35,80
50640,note_on,0,0,3,,,,,,,,0,,,66,80
50645,control_change,5,0,4,,,,,,,,0,64,0,,
50651,control_change,6,0,4,,,,,,,,0,64,0,,
50681,control_change,30,0,4,,,,,,,,0,64,127,,
50688,note_on,7,0,4,,,,,,,,0,,,35,0
50700,note_on,12,0,4,,,,,,,,0,,,42,80
50736,note_on,0,0,3,,,,,,,,0,,,63,0
50736,note_on,0,0,3,,,,,,,,0,,,71,0
50736,note_on,96,0,3,,,,,,,,0,,,66,0
50748,note_on,48,0,4,,,,,,,,0,,,42,0
50760,note_on,0,0,3,,,,,,,,0,,,63,80
50760,note_on,0,0,3,,,,,,,,0,,,67,80
50760,note_on,12,0,4,,,,,,,,0,,,47,80
50760,note_on,24,0,3,,,,,,,,0,,,59,80
50808,note_on,48,0,4,,,,,,,,0,,,47,0
50820,note_on,12,0,4,,,,,,,,0,,,54,80
50856,note_on,96,0,3,,,,,,,,0,,,63,0
50856,note_on,0,0,3,,,,,,,,0,,,59,0
50856,note_on,0,0,3,,,,,,,,0,,,67,0
50868,note_on,48,0,4,,,,,,,,0,,,54,0
50880,note_on,12,0,4,,,,,,,,0,,,54,80
50880,note_on,24,0,3,,,,,,,,0,,,59,80
50880,note_on,0,0,3,,,,,,,,0,,,66,80
50880,note_on,0,0,3,,,,,,,,0,,,63,80
50928,note_on,48,0,4,,,,,,,,0,,,54,0
50940,note_on,12,0,4,,,,,,,,0,,,47,80
50976,note_on,0,0,3,,,,,,,,0,,,63,0
50976,note_on,0,0,3,,,,,,,,0,,,59,0
50976,note_on,96,0,3,,,,,,,,0,,,66,0
50988,note_on,48,0,4,,,,,,,,0,,,47,0
51000,note_on,0,0,3,,,,,,,,0,,,59,80
51000,note_on,0,0,3,,,,,,,,0,,,63,80
51000,note_on,12,0,4,,,,,,,,0,,,42,80
51000,note_on,24,0,3,,,,,,,,0,,,54,80
51048,note_on,48,0,4,,,,,,,,0,,,42,0
51060,note_on,12,0,4,,,,,,,,0,,,35,80
51096,note_on,0,0,3,,,,,,,,0,,,54,0
51096,note_on,0,0,3,,,,,,,,0,,,63,0
51096,note_on,96,0,3,,,,,,,,0,,,59,0
51105,control_change,45,0,4,,,,,,,,0,64,0,,
51108,note_on,3,0,4,,,,,,,,0,,,35,0
51120,note_on,0,0,3,,,,,,,,0,,,59,80
51120,note_on,0,0,3,,,,,,,,0,,,55,80
51120,note_on,12,0,4,,,,,,,,0,,,35,80
51120,note_on,24,0,3,,,,,,,,0,,,62,80
51131,control_change,11,0,4,,,,,,,,0,64,127,,
51168,note_on,37,0,4,,,,,,,,0,,,35,0
51180,note_on,12,0,4,,,,,,,,0,,,42,80
51216,note_on,0,0,3,,,,,,,,0,,,62,0
51216,note_on,0,0,3,,,,,,,,0,,,55,0
51216,note_on,96,0,3,,,,,,,,0,,,59,0
51228,note_on,48,0,4,,,,,,,,0,,,42,0
51240,note_on,0,0,3,,,,,,,,0,,,59,80
51240,note_on,24,0,3,,,,,,,,0,,,50,80
51240,note_on,12,0,4,,,,,,,,0,,,47,80
51288,note_on,48,0,4,,,,,,,,0,,,47,0
51300,note_on,12,0,4,,,,,,,,0,,,54,80
51336,note_on,0,0,3,,,,,,,,0,,,50,0
51336,note_on,96,0,3,,,,,,,,0,,,59,0
51348,note_on,48,0,4,,,,,,,,0,,,54,0
51360,note_on,0,0,3,,,,,,,,0,,,55,80
51360,note_on,0,0,3,,,,,,,,0,,,50,80
51360,note_on,24,0,3,,,,,,,,0,,,59,80
51360,note_on,12,0,4,,,,,,,,0,,,54,80
51408,note_on,48,0,4,,,,,,,,0,,,54,0
51420,note_on,12,0,4,,,,,,,,0,,,47,80
51456,note_on,0,0,3,,,,,,,,0,,,59,0
51456,note_on,0,0,3,,,,,,,,0,,,55,0
51456,note_on,96,0,3,,,,,,,,0,,,50,0
51468,note_on,48,0,4,,,,,,,,0,,,47,0
51480,note_on,24,0,3,,,,,,,,0,,,50,80
51480,note_on,0,0,3,,,,,,,,0,,,47,80
51480,note_on,0,0,3,,,,,,,,0,,,55,80
51480,note_on,12,0,4,,,,,,,,0,,,42,80
51528,note_on,48,0,4,,,,,,,,0,,,42,0
51540,note_on,12,0,4,,,,,,,,0,,,35,80
51576,note_on,0,0,3,,,,,,,,0,,,47,0
51576,note_on,0,0,3,,,,,,,,0,,,50,0
51576,note_on,96,0,3,,,,,,,,0,,,55,0
51588,note_on,48,0,4,,,,,,,,0,,,35,0
51600,note_on,0,0,4,,,,,,,,0,,,35,80
51600,control_change,12,0,4,,,,,,,,0,64,0,,
51600,note_on,24,0,3,,,,,,,,0,,,59,80
51600,note_on,0,0,3,,,,,,,,0,,,51,80
51632,control_change,32,0,4,,,,,,,,0,64,127,,
51648,note_on,16,0,4,,,,,,,,0,,,35,0
51660,note_on,12,0,4,,,,,,,,0,,,42,64
51708,note_on,48,0,4,,,,,,,,0,,,42,0
51720,note_on,12,0,4,,,,,,,,0,,,47,64
51768,note_on,48,0,4,,,,,,,,0,,,47,0
51780,note_on,12,0,4,,,,,,,,0,,,54,80
51792,note_on,0,0,3,,,,,,,,0,,,59,0
51792,note_on,192,0,3,,,,,,,,0,,,51,0
51828,note_on,48,0,4,,,,,,,,0,,,54,0
51840,note_on,12,0,4,,,,,,,,0,,,54,80
51888,note_on,48,0,4,,,,,,,,0,,,54,0
51900,note_on,12,0,4,,,,,,,,0,,,47,64
51948,note_on,48,0,4,,,,,,,,0,,,47,0
51960,note_on,12,0,4,,,,,,,,0,,,42,64
52008,note_on,48,0,4,,,,,,,,0,,,42,0
52020,note_on,12,0,4,,,,,,,,0,,,35,64
52068,note_on,48,0,4,,,,,,,,0,,,35,0
52075,control_change,7,0,4,,,,,,,,0,64,0,,
52080,note_on,5,0,4,,,,,,,,0,,,35,80
52101,control_change,21,0,4,,,,,,,,0,64,127,,
52128,note_on,27,0,4,,,,,,,,0,,,35,0
52140,note_on,12,0,4,,,,,,,,0,,,42,64
52188,note_on,48,0,4,,,,,,,,0,,,42,0
52200,note_on,12,0,4,,,,,,,,0,,,47,64
52248,note_on,48,0,4,,,,,,,,0,,,47,0
52260,note_on,12,0,4,,,,,,,,0,,,59,80
52308,note_on,48,0,4,,,,,,,,0,,,59,0
52320,note_on,12,0,4,,,,,,,,0,,,59,80
52368,note_on,48,0,4,,,,,,,,0,,,59,0
52380,note_on,12,0,4,,,,,,,,0,,,47,64
52428,note_on,48,0,4,,,,,,,,0,,,47,0
52440,note_on,12,0,4,,,,,,,,0,,,42,64
52488,note_on,48,0,4,,,,,,,,0,,,42,0
52500,note_on,12,0,4,,,,,,,,0,,,35,64
52548,note_on,48,0,4,,,,,,,,0,,,35,0
52560,note_on,12,0,4,,,,,,,,0,,,35,80
52570,control_change,10,0,4,,,,,,,,0,64,0,,
52576,control_change,6,0,4,,,,,,,,0,64,0,,
52606,control_change,30,0,4,,,,,,,,0,64,127,,
52608,note_on,2,0,4,,,,,,,,0,,,35,0
52620,note_on,12,0,4,,,,,,,,0,,,42,64
52668,note_on,48,0,4,,,,,,,,0,,,42,0
52680,note_on,12,0,4,,,,,,,,0,,,47,64
52728,note_on,48,0,4,,,,,,,,0,,,47,0
52740,note_on,12,0,4,,,,,,,,0,,,54,80
52788,note_on,48,0,4,,,,,,,,0,,,54,0
52800,note_on,12,0,4,,,,,,,,0,,,54,80
52848,note_on,48,0,4,,,,,,,,0,,,54,0
52860,note_on,12,0,4,,,,,,,,0,,,47,64
52908,note_on,48,0,4,,,,,,,,0,,,47,0
52920,note_on,12,0,4,,,,,,,,0,,,42,64
52968,note_on,48,0,4,,,,,,,,0,,,42,0
52980,note_on,12,0,4,,,,,,,,0,,,35,64
53028,note_on,48,0,4,,,,,,,,0,,,35,0
53030,control_change,2,0,4,,,,,,,,0,64,0,,
53040,note_on,10,0,4,,,,,,,,0,,,35,80
53056,control_change,16,0,4,,,,,,,,0,64,127,,
53088,note_on,32,0,4,,,,,,,,0,,,35,0
53100,note_on,12,0,4,,,,,,,,0,,,42,64
53148,note_on,48,0,4,,,,,,,,0,,,42,0
53160,note_on,12,0,4,,,,,,,,0,,,47,64
53208,note_on,48,0,4,,,,,,,,0,,,47,0
53220,note_on,12,0,4,,,,,,,,0,,,59,80
53268,note_on,48,0,4,,,,,,,,0,,,59,0
53280,note_on,12,0,4,,,,,,,,0,,,59,80
53328,note_on,48,0,4,,,,,,,,0,,,59,0
53340,note_on,12,0,4,,,,,,,,0,,,47,64
53388,note_on,48,0,4,,,,,,,,0,,,47,0
53400,note_on,12,0,4,,,,,,,,0,,,42,64
53448,note_on,48,0,4,,,,,,,,0,,,42,0
53460,note_on,12,0,4,,,,,,,,0,,,35,64
53508,note_on,48,0,4,,,,,,,,0,,,35,0
53520,control_change,12,0,4,,,,,,,,0,64,0,,
53520,note_on,0,0,4,,,,,,,,0,,,35,80
53526,control_change,6,0,4,,,,,,,,0,64,0,,
53556,control_change,30,0,4,,,,,,,,0,64,127,,
53568,note_on,12,0,4,,,,,,,,0,,,35,0
53580,note_on,12,0,4,,,,,,,,0,,,42,64
53628,note_on,48,0,4,,,,,,,,0,,,42,0
53640,note_on,12,0,4,,,,,,,,0,,,47,64
53688,note_on,48,0,4,,,,,,,,0,,,47,0
53700,note_on,12,0,4,,,,,,,,0,,,59,80
53748,note_on,48,0,4,,,,,,,,0,,,59,0
53760,note_on,12,0,4,,,,,,,,0,,,59,80
53808,note_on,48,0,4,,,,,,,,0,,,59,0
53820,note_on,12,0,4,,,,,,,,0,,,47,64
53868,note_on,48,0,4,,,,,,,,0,,,47,0
53880,note_on,12,0,4,,,,,,,,0,,,42,64
53928,note_on,48,0,4,,,,,,,,0,,,42,0
53940,note_on,12,0,4,,,,,,,,0,,,35,64
53980,control_change,40,0,4,,,,,,,,0,64,0,,
53988,note_on,8,0,4,,,,,,,,0,,,35,0
54000,note_on,12,0,4,,,,,,,,0,,,35,80
54006,control_change,6,0,4,,,,,,,,0,64,127,,
54048,note_on,42,0,4,,,,,,,,0,,,35,0
54060,note_on,12,0,4,,,,,,,,0,,,42,64
54108,note_on,48,0,4,,,,,,,,0,,,42,0
54120,note_on,12,0,4,,,,,,,,0,,,47,64
54168,note_on,48,0,4,,,,,,,,0,,,47,0
54180,note_on,12,0,4,,,,,,,,0,,,59,80
54228,note_on,48,0,4,,,,,,,,0,,,59,0
54240,note_on,12,0,4,,,,,,,,0,,,59,80
54288,note_on,48,0,4,,,,,,,,0,,,59,0
54300,note_on,12,0,4,,,,,,,,0,,,47,64
54348,note_on,48,0,4,,,,,,,,0,,,47,0
54360,note_on,12,0,4,,,,,,,,0,,,42,64
54408,note_on,48,0,4,,,,,,,,0,,,42,0
54420,note_on,12,0,4,,,,,,,,0,,,35,64
54468,note_on,48,0,4,,,,,,,,0,,,35,0
54479,set_tempo,8635,1,0,,,,,,591133,,,,,,
54480,control_change,12,0,4,,,,,,,,0,64,0,,
54480,note_on,0,0,4,,,,,,,,0,,,35,80
54527,set_tempo,48,1,0,,,,,,596956,,,,,,
54533,control_change,53,0,4,,,,,,,,0,64,127,,
54571,set_tempo,44,1,0,,,,,,602894,,,,,,
54576,note_on,43,0,4,,,,,,,,0,,,35,0
54600,note_on,24,0,4,,,,,,,,0,,,47,80
54615,set_tempo,44,1,0,,,,,,608952,,,,,,
54658,set_tempo,43,1,0,,,,,,615132,,,,,,
54696,note_on,96,0,4,,,,,,,,0,,,47,0
54702,set_tempo,44,1,0,,,,,,621440,,,,,,
54720,note_on,24,0,4,,,,,,,,0,,,59,80
54746,set_tempo,44,1,0,,,,,,627878,,,,,,
54789,set_tempo,43,1,0,,,,,,634451,,,,,,
54816,note_on,96,0,4,,,,,,,,0,,,59,0
54833,set_tempo,44,1,0,,,,,,641163,,,,,,
54840,note_on,24024,0,2,,,,,,,,0,,,71,80
54876,set_tempo,43,1,0,,,,,,648018,,,,,,
54920,set_tempo,44,1,0,,,,,,655022,,,,,,
54936,note_on,96,0,2,,,,,,,,0,,,71,0
54960,note_on,24,0,2,,,,,,,,0,,,83,80
54964,set_tempo,44,1,0,,,,,,662179,,,,,,
55007,set_tempo,43,1,0,,,,,,669493,,,,,,
55051,set_tempo,44,1,0,,,,,,676972,,,,,,
55056,note_on,96,0,2,,,,,,,,0,,,83,0
55080,note_on,24,0,2,,,,,,,,0,,,95,80
55095,set_tempo,44,1,0,,,,,,684619,,,,,,
55138,set_tempo,43,1,0,,,,,,692441,,,,,,
55176,note_on,96,0,2,,,,,,,,0,,,95,0
55182,set_tempo,44,1,0,,,,,,700444,,,,,,
55226,set_tempo,44,1,0,,,,,,708634,,,,,,
55269,set_tempo,43,1,0,,,,,,717017,,,,,,
55313,set_tempo,44,1,0,,,,,,725602,,,,,,
55320,note_on,144,0,2,,,,,,,,0,,,59,80
55356,set_tempo,43,1,0,,,,,,734394,,,,,,
55400,set_tempo,44,1,0,,,,,,743402,,,,,,
55416,note_on,96,0,2,,,,,,,,0,,,59,0
55444,set_tempo,44,1,0,,,,,,752634,,,,,,
55560,note_on,4944,0,1,,,,,,,,0,,,59,80
55656,note_on,96,0,1,,,,,,,,0,,,59,0
55800,note_on,144,0,1,,,,,,,,0,,,59,80
55896,note_on,96,0,1,,,,,,,,0,,,59,0
55920,note_on,24,0,1,,,,,,,,0,,,59,80
56016,note_on,96,0,1,,,,,,,,0,,,59,0
56040,note_on,24,0,1,,,,,,,,0,,,59,80
56136,note_on,96,0,1,,,,,,,,0,,,59,0
56280,note_on,144,0,1,,,,,,,,0,,,59,80
56371,set_tempo,927,1,0,,,,,,743402,,,,,,
56376,note_on,96,0,1,,,,,,,,0,,,59,0
56400,note_on,24,0,1,,,,,,,,0,,,68,73
56400,control_change,0,0,4,,,,,,,,0,64,0,,
56400,note_on,1584,0,4,,,,,,,,0,,,40,69
56410,set_tempo,39,1,0,,,,,,655022,,,,,,
56435,control_change,35,0,4,,,,,,,,0,64,127,,
56464,note_on,29,0,4,,,,,,,,0,,,40,0
56480,note_on,16,0,4,,,,,,,,0,,,47,69
56520,note_on,0,0,2,,,,,,,,0,,,59,55
56520,note_on,1104,0,2,,,,,,,,0,,,56,55
56544,note_on,64,0,4,,,,,,,,0,,,47,0
56560,note_on,16,0,4,,,,,,,,0,,,44,69
56616,note_on,0,0,2,,,,,,,,0,,,56,0
56616,note_on,96,0,2,,,,,,,,0,,,59,0
56624,note_on,64,0,4,,,,,,,,0,,,44,0
56640,note_on,24,0,2,,,,,,,,0,,,56,55
56640,note_on,16,0,4,,,,,,,,0,,,47,69
56640,note_on,0,0,2,,,,,,,,0,,,59,55
56704,note_on,64,0,4,,,,,,,,0,,,47,0
56720,note_on,16,0,4,,,,,,,,0,,,49,69
56736,note_on,0,0,2,,,,,,,,0,,,56,0
56736,note_on,96,0,2,,,,,,,,0,,,59,0
56760,note_on,24,0,2,,,,,,,,0,,,56,55
56760,note_on,0,0,2,,,,,,,,0,,,59,55
56784,note_on,384,0,1,,,,,,,,0,,,68,0
56784,note_on,64,0,4,,,,,,,,0,,,49,0
56800,note_on,16,0,4,,,,,,,,0,,,52,69
56856,note_on,96,0,2,,,,,,,,0,,,59,0
56856,note_on,0,0,2,,,,,,,,0,,,56,0
56864,note_on,64,0,4,,,,,,,,0,,,52,0
56880,note_on,16,0,4,,,,,,,,0,,,40,69
56880,note_on,96,0,1,,,,,,,,0,,,69,73
56881,set_tempo,471,1,0,,,,,,662179,,,,,,
56890,control_change,10,0,4,,,,,,,,0,64,0,,
56920,control_change,30,0,4,,,,,,,,0,64,127,,
56920,set_tempo,39,1,0,,,,,,655022,,,,,,
56944,note_on,24,0,4,,,,,,,,0,,,40,0
56959,set_tempo,39,1,0,,,,,,648018,,,,,,
56960,note_on,16,0,4,,,,,,,,0,,,49,69
56999,set_tempo,40,1,0,,,,,,641163,,,,,,
57000,note_on,0,0,2,,,,,,,,0,,,59,55
57000,note_on,144,0,2,,,,,,,,0,,,57,55
57024,note_on,64,0,4,,,,,,,,0,,,49,0
57038,set_tempo,39,1,0,,,,,,634451,,,,,,
57040,note_on,16,0,4,,,,,,,,0,,,47,69
57077,set_tempo,39,1,0,,,,,,627878,,,,,,
57096,note_on,96,0,2,,,,,,,,0,,,59,0
57096,note_on,0,0,2,,,,,,,,0,,,57,0
57104,note_on,64,0,4,,,,,,,,0,,,47,0
57112,set_tempo,35,1,0,,,,,,621440,,,,,,
57120,note_on,16,0,4,,,,,,,,0,,,49,69
57120,note_on,24,0,2,,,,,,,,0,,,59,55
57120,note_on,0,0,2,,,,,,,,0,,,57,55
57151,set_tempo,39,1,0,,,,,,615132,,,,,,
57184,note_on,64,0,4,,,,,,,,0,,,49,0
57191,set_tempo,40,1,0,,,,,,608952,,,,,,
57200,note_on,16,0,4,,,,,,,,0,,,52,69
57216,note_on,0,0,2,,,,,,,,0,,,59,0
57216,note_on,96,0,2,,,,,,,,0,,,57,0
57230,set_tempo,39,1,0,,,,,,602894,,,,,,
57240,note_on,24,0,2,,,,,,,,0,,,59,55
57240,note_on,0,0,2,,,,,,,,0,,,57,55
57264,note_on,64,0,4,,,,,,,,0,,,52,0
57264,note_on,384,0,1,,,,,,,,0,,,69,0
57269,set_tempo,39,1,0,,,,,,596956,,,,,,
57280,note_on,16,0,4,,,,,,,,0,,,57,69
57309,set_tempo,40,1,0,,,,,,591133,,,,,,
57336,note_on,0,0,2,,,,,,,,0,,,59,0
57336,note_on,96,0,2,,,,,,,,0,,,57,0
57343,set_tempo,34,1,0,,,,,,585423,,,,,,
57344,note_on,64,0,4,,,,,,,,0,,,57,0
57358,set_tempo,15,1,0,,,,,,591133,,,,,,
57360,note_on,96,0,1,,,,,,,,0,,,66,73
57360,control_change,0,0,4,,,,,,,,0,64,0,,
57360,note_on,16,0,4,,,,,,,,0,,,40,69
57380,set_tempo,22,1,0,,,,,,596956,,,,,,
57385,control_change,25,0,4,,,,,,,,0,64,127,,
57402,set_tempo,22,1,0,,,,,,602894,,,,,,
57424,note_on,39,0,4,,,,,,,,0,,,40,0
57424,set_tempo,22,1,0,,,,,,608952,,,,,,
57440,note_on,16,0,4,,,,,,,,0,,,46,69
57445,set_tempo,21,1,0,,,,,,615132,,,,,,
57467,set_tempo,22,1,0,,,,,,621440,,,,,,
57480,note_on,0,0,2,,,,,,,,0,,,59,55
57480,note_on,144,0,2,,,,,,,,0,,,57,55
57489,set_tempo,22,1,0,,,,,,627878,,,,,,
57504,note_on,64,0,4,,,,,,,,0,,,46,0
57511,set_tempo,22,1,0,,,,,,634451,,,,,,
57520,note_on,16,0,4,,,,,,,,0,,,47,69
57533,set_tempo,22,1,0,,,,,,641163,,,,,,
57555,set_tempo,22,1,0,,,,,,648018,,,,,,
57576,note_on,96,0,2,,,,,,,,0,,,59,0
57576,set_tempo,21,1,0,,,,,,655022,,,,,,
57576,note_on,0,0,2,,,,,,,,0,,,57,0
57584,note_on,64,0,4,,,,,,,,0,,,47,0
57598,set_tempo,22,1,0,,,,,,662179,,,,,,
57600,note_on,0,0,2,,,,,,,,0,,,57,55
57600,note_on,16,0,4,,,,,,,,0,,,48,69
57600,note_on,24,0,2,,,,,,,,0,,,59,55
57620,set_tempo,22,1,0,,,,,,669493,,,,,,
57642,set_tempo,22,1,0,,,,,,676972,,,,,,
57664,set_tempo,22,1,0,,,,,,684619,,,,,,
57664,note_on,64,0,4,,,,,,,,0,,,48,0
57680,note_on,16,0,4,,,,,,,,0,,,49,69
57685,set_tempo,21,1,0,,,,,,692441,,,,,,
57696,note_on,0,0,2,,,,,,,,0,,,59,0
57696,note_on,96,0,2,,,,,,,,0,,,57,0
57707,set_tempo,22,1,0,,,,,,700444,,,,,,
57720,note_on,24,0,2,,,,,,,,0,,,57,55
57720,note_on,0,0,2,,,,,,,,0,,,59,55
57729,set_tempo,22,1,0,,,,,,708634,,,,,,
57744,note_on,64,0,4,,,,,,,,0,,,49,0
57751,set_tempo,22,1,0,,,,,,717017,,,,,,
57760,note_on,16,0,4,,,,,,,,0,,,50,69
57773,set_tempo,22,1,0,,,,,,725602,,,,,,
57795,set_tempo,22,1,0,,,,,,734394,,,,,,
57816,set_tempo,21,1,0,,,,,,743402,,,,,,
57816,note_on,0,0,2,,,,,,,,0,,,57,0
57816,note_on,96,0,2,,,,,,,,0,,,59,0
57824,note_on,64,0,4,,,,,,,,0,,,50,0
57838,set_tempo,22,1,0,,,,,,752634,,,,,,
57840,note_on,24,0,2,,,,,,,,0,,,57,55
57840,note_on,16,0,4,,,,,,,,0,,,51,69
57840,note_on,0,0,2,,,,,,,,0,,,59,55
57860,set_tempo,22,1,0,,,,,,762098,,,,,,
57882,set_tempo,22,1,0,,,,,,771803,,,,,,
57904,set_tempo,22,1,0,,,,,,781759,,,,,,
57904,note_on,64,0,4,,,,,,,,0,,,51,0
57920,note_on,16,0,4,,,,,,,,0,,,48,69
57925,set_tempo,21,1,0,,,,,,791975,,,,,,
57936,note_on,0,0,2,,,,,,,,0,,,57,0
57936,note_on,96,0,2,,,,,,,,0,,,59,0
57936,note_on,576,0,1,,,,,,,,0,,,66,0
57947,set_tempo,22,1,0,,,,,,802461,,,,,,
57960,note_on,0,0,2,,,,,,,,0,,,59,55
57960,note_on,24,0,2,,,,,,,,0,,,57,55
57969,set_tempo,22,1,0,,,,,,813229,,,,,,
57984,note_on,64,0,4,,,,,,,,0,,,48,0
57991,set_tempo,22,1,0,,,,,,824289,,,,,,
58000,note_on,16,0,4,,,,,,,,0,,,47,69
58013,set_tempo,22,1,0,,,,,,835655,,,,,,
58035,set_tempo,22,1,0,,,,,,847338,,,,,,
58056,note_on,0,0,2,,,,,,,,0,,,57,0
58056,set_tempo,21,1,0,,,,,,859353,,,,,,
58056,note_on,96,0,2,,,,,,,,0,,,59,0
58064,note_on,64,0,4,,,,,,,,0,,,47,0
58074,set_tempo,18,1,0,,,,,,871713,,,,,,
58078,set_tempo,4,1,0,,,,,,871713,,,,,,
58080,note_on,16,0,4,,,,,,,,0,,,40,69
58080,control_change,0,0,4,,,,,,,,0,64,0,,
58080,note_on,144,0,1,,,,,,,,0,,,68,73
58091,set_tempo,13,1,0,,,,,,859353,,,,,,
58104,set_tempo,13,1,0,,,,,,847338,,,,,,
58113,set_tempo,9,1,0,,,,,,835655,,,,,,
58125,control_change,45,0,4,,,,,,,,0,64,127,,
58126,set_tempo,13,1,0,,,,,,824289,,,,,,
58135,set_tempo,9,1,0,,,,,,813229,,,,,,
58144,note_on,19,0,4,,,,,,,,0,,,40,0
58148,set_tempo,13,1,0,,,,,,802461,,,,,,
58157,set_tempo,9,1,0,,,,,,791975,,,,,,
58160,note_on,16,0,4,,,,,,,,0,,,47,69
58170,set_tempo,13,1,0,,,,,,781759,,,,,,
58179,set_tempo,9,1,0,,,,,,771803,,,,,,
58192,set_tempo,13,1,0,,,,,,762098,,,,,,
58200,set_tempo,8,1,0,,,,,,752634,,,,,,
58200,note_on,0,0,2,,,,,,,,0,,,56,55
58200,note_on,144,0,2,,,,,,,,0,,,59,55
58213,set_tempo,13,1,0,,,,,,743402,,,,,,
58222,set_tempo,9,1,0,,,,,,734394,,,,,,
58224,note_on,64,0,4,,,,,,,,0,,,47,0
58235,set_tempo,13,1,0,,,,,,725602,,,,,,
58240,note_on,16,0,4,,,,,,,,0,,,52,69
58244,set_tempo,9,1,0,,,,,,717017,,,,,,
58257,set_tempo,13,1,0,,,,,,708634,,,,,,
58266,set_tempo,9,1,0,,,,,,700444,,,,,,
58272,note_on,192,0,1,,,,,,,,0,,,68,0
58279,set_tempo,13,1,0,,,,,,692441,,,,,,
58288,set_tempo,9,1,0,,,,,,684619,,,,,,
58296,note_on,96,0,2,,,,,,,,0,,,56,0
58296,note_on,0,0,2,,,,,,,,0,,,59,0
58301,set_tempo,13,1,0,,,,,,676972,,,,,,
58304,note_on,64,0,4,,,,,,,,0,,,52,0
58309,set_tempo,8,1,0,,,,,,669493,,,,,,
58310,set_tempo,1,1,0,,,,,,662179,,,,,,
58320,note_on,48,0,1,,,,,,,,0,,,69,73
58320,control_change,0,0,4,,,,,,,,0,64,0,,
58320,note_on,16,0,4,,,,,,,,0,,,40,69
58343,control_change,23,0,4,,,,,,,,0,64,127,,
58384,note_on,41,0,4,,,,,,,,0,,,40,0
58400,note_on,16,0,4,,,,,,,,0,,,49,69
58440,note_on,144,0,2,,,,,,,,0,,,57,55
58440,note_on,0,0,2,,,,,,,,0,,,59,55
58464,note_on,64,0,4,,,,,,,,0,,,49,0
58480,note_on,16,0,4,,,,,,,,0,,,47,69
58536,note_on,0,0,2,,,,,,,,0,,,57,0
58536,note_on,96,0,2,,,,,,,,0,,,59,0
58544,note_on,64,0,4,,,,,,,,0,,,47,0
58560,note_on,16,0,4,,,,,,,,0,,,49,69
58560,note_on,0,0,2,,,,,,,,0,,,57,55
58560,note_on,24,0,2,,,,,,,,0,,,59,55
58624,note_on,64,0,4,,,,,,,,0,,,49,0
58640,note_on,16,0,4,,,,,,,,0,,,52,69
58656,note_on,0,0,2,,,,,,,,0,,,59,0
58656,note_on,336,0,1,,,,,,,,0,,,69,0
58656,note_on,96,0,2,,,,,,,,0,,,57,0
58680,note_on,0,0,2,,,,,,,,0,,,57,55
58680,note_on,24,0,2,,,,,,,,0,,,59,55
58704,note_on,64,0,4,,,,,,,,0,,,52,0
58720,note_on,16,0,4,,,,,,,,0,,,57,69
58740,note_on,84,0,1,,,,,,,,0,,,69,73
58764,note_on,24,0,1,,,,,,,,0,,,69,0
58770,note_on,6,0,1,,,,,,,,0,,,69,73
58776,note_on,96,0,2,,,,,,,,0,,,57,0
58776,note_on,0,0,2,,,,,,,,0,,,59,0
58784,note_on,64,0,4,,,,,,,,0,,,57,0
58792,set_tempo,482,1,0,,,,,,662179,,,,,,
58794,note_on,24,0,1,,,,,,,,0,,,69,0
58796,set_tempo,4,1,0,,,,,,669493,,,,,,
58797,control_change,13,0,4,,,,,,,,0,64,0,,
58800,note_on,6,0,1,,,,,,,,0,,,73,73
58800,note_on,3,0,4,,,,,,,,0,,,40,69
58820,control_change,20,0,4,,,,,,,,0,64,127,,
58827,set_tempo,31,1,0,,,,,,676972,,,,,,
58857,set_tempo,30,1,0,,,,,,684619,,,,,,
58864,note_on,44,0,4,,,,,,,,0,,,40,0
58880,note_on,16,0,4,,,,,,,,0,,,51,69
58888,set_tempo,31,1,0,,,,,,692441,,,,,,
58918,set_tempo,30,1,0,,,,,,700444,,,,,,
58920,note_on,0,0,2,,,,,,,,0,,,66,55
58920,note_on,0,0,2,,,,,,,,0,,,57,55
58920,note_on,144,0,2,,,,,,,,0,,,59,55
58944,note_on,64,0,4,,,,,,,,0,,,51,0
58949,set_tempo,31,1,0,,,,,,708634,,,,,,
58960,note_on,16,0,4,,,,,,,,0,,,49,69
58980,set_tempo,31,1,0,,,,,,717017,,,,,,
59010,set_tempo,30,1,0,,,,,,725602,,,,,,
59016,note_on,0,0,2,,,,,,,,0,,,57,0
59016,note_on,0,0,2,,,,,,,,0,,,59,0
59016,note_on,96,0,2,,,,,,,,0,,,66,0
59024,note_on,64,0,4,,,,,,,,0,,,49,0
59040,note_on,0,0,2,,,,,,,,0,,,57,55
59040,note_on,16,0,4,,,,,,,,0,,,51,69
59040,note_on,24,0,2,,,,,,,,0,,,66,55
59040,note_on,0,0,2,,,,,,,,0,,,59,55
59041,set_tempo,31,1,0,,,,,,734394,,,,,,
59076,set_tempo,35,1,0,,,,,,743402,,,,,,
59088,note_on,288,0,1,,,,,,,,0,,,73,0
59104,note_on,64,0,4,,,,,,,,0,,,51,0
59106,set_tempo,30,1,0,,,,,,752634,,,,,,
59120,note_on,16,0,4,,,,,,,,0,,,54,69
59136,note_on,0,0,2,,,,,,,,0,,,66,0
59136,note_on,0,0,2,,,,,,,,0,,,59,0
59136,note_on,96,0,2,,,,,,,,0,,,57,0
59137,set_tempo,31,1,0,,,,,,762098,,,,,,
59160,note_on,24,0,2,,,,,,,,0,,,57,55
59160,note_on,0,0,2,,,,,,,,0,,,59,55
59160,note_on,72,0,1,,,,,,,,0,,,71,73
59160,note_on,0,0,2,,,,,,,,0,,,66,55
59167,set_tempo,30,1,0,,,,,,771803,,,,,,
59184,note_on,64,0,4,,,,,,,,0,,,54,0
59198,set_tempo,31,1,0,,,,,,781759,,,,,,
59200,note_on,16,0,4,,,,,,,,0,,,59,69
59228,set_tempo,30,1,0,,,,,,791975,,,,,,
59256,note_on,96,0,1,,,,,,,,0,,,71,0
59256,note_on,96,0,2,,,,,,,,0,,,66,0
59256,note_on,0,0,2,,,,,,,,0,,,57,0
59256,note_on,0,0,2,,,,,,,,0,,,59,0
59259,set_tempo,31,1,0,,,,,,802461,,,,,,
59264,note_on,64,0,4,,,,,,,,0,,,59,0
59271,set_tempo,12,1,0,,,,,,669493,,,,,,
59280,control_change,0,0,4,,,,,,,,0,64,0,,
59280,note_on,24,0,1,,,,,,,,0,,,68,73
59280,note_on,16,0,4,,,,,,,,0,,,40,69
59310,set_tempo,39,1,0,,,,,,676972,,,,,,
59315,control_change,35,0,4,,,,,,,,0,64,127,,
59344,note_on,29,0,4,,,,,,,,0,,,40,0
59345,set_tempo,35,1,0,,,,,,684619,,,,,,
59360,note_on,16,0,4,,,,,,,,0,,,47,69
59380,set_tempo,35,1,0,,,,,,692441,,,,,,
59400,note_on,0,0,2,,,,,,,,0,,,56,55
59400,note_on,144,0,2,,,,,,,,0,,,59,55
59415,set_tempo,35,1,0,,,,,,700444,,,,,,
59424,note_on,64,0,4,,,,,,,,0,,,47,0
59440,note_on,16,0,4,,,,,,,,0,,,48,69
59454,set_tempo,39,1,0,,,,,,708634,,,,,,
59489,set_tempo,35,1,0,,,,,,717017,,,,,,
59496,note_on,0,0,2,,,,,,,,0,,,59,0
59496,note_on,96,0,2,,,,,,,,0,,,56,0
59504,note_on,64,0,4,,,,,,,,0,,,48,0
59520,note_on,16,0,4,,,,,,,,0,,,49,69
59520,note_on,0,0,2,,,,,,,,0,,,56,55
59520,note_on,24,0,2,,,,,,,,0,,,59,55
59524,set_tempo,35,1,0,,,,,,725602,,,,,,
59559,set_tempo,35,1,0,,,,,,734394,,,,,,
59584,note_on,64,0,4,,,,,,,,0,,,49,0
59598,set_tempo,39,1,0,,,,,,743402,,,,,,
59600,note_on,16,0,4,,,,,,,,0,,,50,69
59616,note_on,96,0,2,,,,,,,,0,,,56,0
59616,note_on,0,0,2,,,,,,,,0,,,59,0
59633,set_tempo,35,1,0,,,,,,752634,,,,,,
59640,note_on,24,0,2,,,,,,,,0,,,59,55
59640,note_on,0,0,2,,,,,,,,0,,,56,55
59664,note_on,64,0,4,,,,,,,,0,,,50,0
59668,set_tempo,35,1,0,,,,,,762098,,,,,,
59680,note_on,16,0,4,,,,,,,,0,,,51,69
59703,set_tempo,35,1,0,,,,,,771803,,,,,,
59736,note_on,96,0,2,,,,,,,,0,,,56,0
59736,note_on,0,0,2,,,,,,,,0,,,59,0
59742,set_tempo,39,1,0,,,,,,781759,,,,,,
59744,note_on,64,0,4,,,,,,,,0,,,51,0
59760,note_on,16,0,4,,,,,,,,0,,,52,69
59760,note_on,24,0,2,,,,,,,,0,,,56,55
59760,note_on,0,0,2,,,,,,,,0,,,59,55
59777,set_tempo,35,1,0,,,,,,791975,,,,,,
59812,set_tempo,35,1,0,,,,,,802461,,,,,,
59824,note_on,64,0,4,,,,,,,,0,,,52,0
59840,note_on,16,0,4,,,,,,,,0,,,48,69
59847,set_tempo,35,1,0,,,,,,813229,,,,,,
59856,note_on,576,0,1,,,,,,,,0,,,68,0
59856,note_on,0,0,2,,,,,,,,0,,,56,0
59856,note_on,96,0,2,,,,,,,,0,,,59,0
59880,note_on,24,0,2,,,,,,,,0,,,59,55
59880,note_on,0,0,2,,,,,,,,0,,,56,55
59886,set_tempo,39,1,0,,,,,,824289,,,,,,
59904,note_on,64,0,4,,,,,,,,0,,,48,0
59920,note_on,16,0,4,,,,,,,,0,,,47,69
59921,set_tempo,35,1,0,,,,,,835655,,,,,,
59956,set_tempo,35,1,0,,,,,,847338,,,,,,
59976,note_on,0,0,2,,,,,,,,0,,,59,0
59976,note_on,96,0,2,,,,,,,,0,,,56,0
59984,note_on,64,0,4,,,,,,,,0,,,47,0
59991,set_tempo,35,1,0,,,,,,859353,,,,,,
60000,note_on,144,0,1,,,,,,,,0,,,68,73
60000,note_on,16,0,4,,,,,,,,0,,,40,69
60004,set_tempo,13,1,0,,,,,,847338,,,,,,
60005,control_change,5,0,4,,,,,,,,0,64,0,,
60017,set_tempo,13,1,0,,,,,,835655,,,,,,
60026,set_tempo,9,1,0,,,,,,824289,,,,,,
60039,set_tempo,13,1,0,,,,,,813229,,,,,,
60050,control_change,45,0,4,,,,,,,,0,64,127,,
60052,set_tempo,13,1,0,,,,,,802461,,,,,,
60061,set_tempo,9,1,0,,,,,,791975,,,,,,
60064,note_on,14,0,4,,,,,,,,0,,,40,0
60074,set_tempo,13,1,0,,,,,,781759,,,,,,
60080,note_on,16,0,4,,,,,,,,0,,,47,69
60087,set_tempo,13,1,0,,,,,,771803,,,,,,
60096,set_tempo,9,1,0,,,,,,762098,,,,,,
60109,set_tempo,13,1,0,,,,,,752634,,,,,,
60120,note_on,144,0,2,,,,,,,,0,,,59,55
60120,note_on,0,0,2,,,,,,,,0,,,56,55
60122,set_tempo,13,1,0,,,,,,743402,,,,,,
60131,set_tempo,9,1,0,,,,,,734394,,,,,,
60144,set_tempo,13,1,0,,,,,,725602,,,,,,
60144,note_on,64,0,4,,,,,,,,0,,,47,0
60157,set_tempo,13,1,0,,,,,,717017,,,,,,
60160,note_on,16,0,4,,,,,,,,0,,,52,69
60166,set_tempo,9,1,0,,,,,,708634,,,,,,
60179,set_tempo,13,1,0,,,,,,700444,,,,,,
60192,note_on,192,0,1,,,,,,,,0,,,68,0
60192,set_tempo,13,1,0,,,,,,692441,,,,,,
60200,set_tempo,8,1,0,,,,,,684619,,,,,,
60214,set_tempo,14,1,0,,,,,,676972,,,,,,
60216,note_on,0,0,2,,,,,,,,0,,,59,0
60216,note_on,96,0,2,,,,,,,,0,,,56,0
60222,set_tempo,8,1,0,,,,,,669493,,,,,,
60224,note_on,64,0,4,,,,,,,,0,,,52,0
60236,set_tempo,14,1,0,,,,,,669493,,,,,,
60240,note_on,16,0,4,,,,,,,,0,,,40,69
60240,note_on,48,0,1,,,,,,,,0,,,68,73
60240,control_change,0,0,4,,,,,,,,0,64,0,,
60280,control_change,40,0,4,,,,,,,,0,64,127,,
60304,note_on,24,0,4,,,,,,,,0,,,40,0
60320,note_on,16,0,4,,,,,,,,0,,,52,69
60360,note_on,144,0,2,,,,,,,,0,,,59,55
60360,note_on,0,0,2,,,,,,,,0,,,56,55
60384,note_on,64,0,4,,,,,,,,0,,,52,0
60400,note_on,16,0,4,,,,,,,,0,,,47,69
60432,note_on,192,0,1,,,,,,,,0,,,68,0
60456,note_on,96,0,2,,,,,,,,0,,,56,0
60456,note_on,0,0,2,,,,,,,,0,,,59,0
60464,note_on,64,0,4,,,,,,,,0,,,47,0
60480,note_on,16,0,4,,,,,,,,0,,,49,69
60480,note_on,48,0,1,,,,,,,,0,,,68,73
60544,note_on,64,0,4,,,,,,,,0,,,49,0
60560,note_on,16,0,4,,,,,,,,0,,,52,69
60600,note_on,0,0,2,,,,,,,,0,,,59,55
60600,note_on,144,0,2,,,,,,,,0,,,56,55
60624,note_on,64,0,4,,,,,,,,0,,,52,0
60640,note_on,16,0,4,,,,,,,,0,,,56,69
60672,note_on,192,0,1,,,,,,,,0,,,68,0
60696,note_on,0,0,2,,,,,,,,0,,,56,0
60696,note_on,96,0,2,,,,,,,,0,,,59,0
60704,note_on,64,0,4,,,,,,,,0,,,56,0
60720,note_on,48,0,1,,,,,,,,0,,,71,73
60720,note_on,0,0,4,,,,,,,,0,,,40,69
60720,control_change,16,0,4,,,,,,,,0,64,0,,
60745,control_change,25,0,4,,,,,,,,0,64,127,,
60784,note_on,39,0,4,,,,,,,,0,,,40,0
60800,note_on,16,0,4,,,,,,,,0,,,52,69
60840,note_on,0,0,2,,,,,,,,0,,,58,55
60840,note_on,144,0,2,,,,,,,,0,,,64,55
60864,note_on,64,0,4,,,,,,,,0,,,52,0
60880,note_on,16,0,4,,,,,,,,0,,,48,69
60912,note_on,192,0,1,,,,,,,,0,,,71,0
60936,note_on,0,0,2,,,,,,,,0,,,64,0
60936,note_on,96,0,2,,,,,,,,0,,,58,0
60944,note_on,64,0,4,,,,,,,,0,,,48,0
60960,note_on,16,0,4,,,,,,,,0,,,49,69
60960,note_on,48,0,1,,,,,,,,0,,,70,73
61024,note_on,64,0,4,,,,,,,,0,,,49,0
61040,note_on,16,0,4,,,,,,,,0,,,52,69
61080,note_on,144,0,2,,,,,,,,0,,,64,55
61080,note_on,0,0,2,,,,,,,,0,,,61,55
61104,note_on,64,0,4,,,,,,,,0,,,52,0
61120,note_on,16,0,4,,,,,,,,0,,,58,69
61152,note_on,192,0,1,,,,,,,,0,,,70,0
61176,note_on,0,0,2,,,,,,,,0,,,64,0
61176,note_on,96,0,2,,,,,,,,0,,,61,0
61184,note_on,64,0,4,,,,,,,,0,,,58,0
61200,note_on,48,0,1,,,,,,,,0,,,63,73
61200,note_on,0,0,4,,,,,,,,0,,,39,69
61200,control_change,16,0,4,,,,,,,,0,64,0,,
61200,set_tempo,964,1,0,,,,,,676972,,,,,,
61240,control_change,40,0,4,,,,,,,,0,64,127,,
61252,set_tempo,52,1,0,,,,,,684619,,,,,,
61264,note_on,24,0,4,,,,,,,,0,,,39,0
61280,note_on,16,0,4,,,,,,,,0,,,50,69
61305,set_tempo,53,1,0,,,,,,692441,,,,,,
61320,note_on,0,0,2,,,,,,,,0,,,58,55
61320,note_on,144,0,2,,,,,,,,0,,,61,55
61344,note_on,64,0,4,,,,,,,,0,,,50,0
61357,set_tempo,52,1,0,,,,,,700444,,,,,,
61360,note_on,16,0,4,,,,,,,,0,,,51,69
61410,set_tempo,53,1,0,,,,,,708634,,,,,,
61416,note_on,0,0,2,,,,,,,,0,,,61,0
61416,note_on,96,0,2,,,,,,,,0,,,58,0
61424,note_on,64,0,4,,,,,,,,0,,,51,0
61440,note_on,16,0,4,,,,,,,,0,,,52,69
61440,note_on,0,0,2,,,,,,,,0,,,61,55
61440,note_on,24,0,2,,,,,,,,0,,,58,55
61458,set_tempo,48,1,0,,,,,,717017,,,,,,
61504,note_on,64,0,4,,,,,,,,0,,,52,0
61510,set_tempo,52,1,0,,,,,,725602,,,,,,
61520,note_on,16,0,4,,,,,,,,0,,,53,69
61536,note_on,0,0,2,,,,,,,,0,,,58,0
61536,note_on,96,0,2,,,,,,,,0,,,61,0
61560,note_on,24,0,2,,,,,,,,0,,,58,55
61560,note_on,0,0,2,,,,,,,,0,,,61,55
61562,set_tempo,52,1,0,,,,,,734394,,,,,,
61584,note_on,64,0,4,,,,,,,,0,,,53,0
61600,note_on,16,0,4,,,,,,,,0,,,54,69
61615,set_tempo,53,1,0,,,,,,743402,,,,,,
61656,note_on,0,0,2,,,,,,,,0,,,58,0
61656,note_on,96,0,2,,,,,,,,0,,,61,0
61664,note_on,64,0,4,,,,,,,,0,,,54,0
61667,set_tempo,52,1,0,,,,,,752634,,,,,,
61680,note_on,24,0,2,,,,,,,,0,,,61,55
61680,note_on,0,0,2,,,,,,,,0,,,58,55
61680,note_on,16,0,4,,,,,,,,0,,,55,69
61715,set_tempo,48,1,0,,,,,,762098,,,,,,
61744,note_on,64,0,4,,,,,,,,0,,,55,0
61760,note_on,16,0,4,,,,,,,,0,,,52,69
61767,set_tempo,52,1,0,,,,,,771803,,,,,,
61776,note_on,576,0,1,,,,,,,,0,,,63,0
61776,note_on,96,0,2,,,,,,,,0,,,58,0
61776,note_on,0,0,2,,,,,,,,0,,,61,0
61800,note_on,24,0,2,,,,,,,,0,,,61,55
61800,note_on,0,0,2,,,,,,,,0,,,58,55
61820,set_tempo,53,1,0,,,,,,781759,,,,,,
61824,note_on,64,0,4,,,,,,,,0,,,52,0
61840,note_on,16,0,4,,,,,,,,0,,,51,69
61872,set_tempo,52,1,0,,,,,,791975,,,,,,
61896,note_on,0,0,2,,,,,,,,0,,,61,0
61896,note_on,96,0,2,,,,,,,,0,,,58,0
61904,note_on,64,0,4,,,,,,,,0,,,51,0
61920,set_tempo,48,1,0,,,,,,802461,,,,,,
61920,note_on,16,0,4,,,,,,,,0,,,39,69
61920,control_change,0,0,4,,,,,,,,0,64,0,,
61920,note_on,144,0,1,,,,,,,,0,,,63,73
61925,set_tempo,5,1,0,,,,,,771803,,,,,,
61945,control_change,25,0,4,,,,,,,,0,64,127,,
61964,set_tempo,39,1,0,,,,,,762098,,,,,,
61984,note_on,39,0,4,,,,,,,,0,,,39,0
62000,note_on,16,0,4,,,,,,,,0,,,51,69
62003,set_tempo,39,1,0,,,,,,752634,,,,,,
62040,note_on,144,0,2,,,,,,,,0,,,61,55
62040,note_on,0,0,2,,,,,,,,0,,,58,55
62043,set_tempo,40,1,0,,,,,,743402,,,,,,
62064,note_on,64,0,4,,,,,,,,0,,,51,0
62080,note_on,16,0,4,,,,,,,,0,,,54,69
62082,set_tempo,39,1,0,,,,,,734394,,,,,,
62112,note_on,192,0,1,,,,,,,,0,,,63,0
62121,set_tempo,39,1,0,,,,,,725602,,,,,,
62136,note_on,96,0,2,,,,,,,,0,,,58,0
62136,note_on,0,0,2,,,,,,,,0,,,61,0
62144,note_on,64,0,4,,,,,,,,0,,,54,0
62160,note_on,0,0,4,,,,,,,,0,,,44,69
62160,set_tempo,39,1,0,,,,,,717017,,,,,,
62160,note_on,48,0,1,,,,,,,,0,,,71,73
62160,control_change,16,0,4,,,,,,,,0,64,0,,
62195,control_change,35,0,4,,,,,,,,0,64,127,,
62200,set_tempo,40,1,0,,,,,,708634,,,,,,
62224,note_on,29,0,4,,,,,,,,0,,,44,0
62239,set_tempo,39,1,0,,,,,,700444,,,,,,
62240,note_on,16,0,4,,,,,,,,0,,,56,69
62278,set_tempo,39,1,0,,,,,,692441,,,,,,
62280,note_on,144,0,2,,,,,,,,0,,,59,55
62280,note_on,0,0,2,,,,,,,,0,,,63,55
62304,note_on,64,0,4,,,,,,,,0,,,56,0
62318,set_tempo,40,1,0,,,,,,684619,,,,,,
62320,note_on,16,0,4,,,,,,,,0,,,50,69
62352,note_on,192,0,1,,,,,,,,0,,,71,0
62357,set_tempo,39,1,0,,,,,,676972,,,,,,
62376,note_on,0,0,2,,,,,,,,0,,,59,0
62376,note_on,96,0,2,,,,,,,,0,,,63,0
62384,note_on,64,0,4,,,,,,,,0,,,50,0
62392,set_tempo,35,1,0,,,,,,669493,,,,,,
62400,note_on,48,0,1,,,,,,,,0,,,71,73
62400,note_on,16,0,4,,,,,,,,0,,,51,69
62464,note_on,64,0,4,,,,,,,,0,,,51,0
62480,note_on,16,0,4,,,,,,,,0,,,56,69
62520,note_on,144,0,2,,,,,,,,0,,,63,55
62520,note_on,0,0,2,,,,,,,,0,,,59,55
62544,note_on,64,0,4,,,,,,,,0,,,56,0
62560,note_on,16,0,4,,,,,,,,0,,,59,69
62592,note_on,192,0,1,,,,,,,,0,,,71,0
62616,note_on,0,0,2,,,,,,,,0,,,63,0
62616,note_on,96,0,2,,,,,,,,0,,,59,0
62624,note_on,64,0,4,,,,,,,,0,,,59,0
62640,note_on,48,0,1,,,,,,,,0,,,75,73
62640,note_on,16,0,4,,,,,,,,0,,,43,69
62645,control_change,5,0,4,,,,,,,,0,64,0,,
62670,control_change,25,0,4,,,,,,,,0,64,127,,
62704,note_on,34,0,4,,,,,,,,0,,,43,0
62720,note_on,16,0,4,,,,,,,,0,,,55,69
62760,note_on,0,0,2,,,,,,,,0,,,60,55
62760,note_on,144,0,2,,,,,,,,0,,,64,55
62784,note_on,64,0,4,,,,,,,,0,,,55,0
62800,note_on,16,0,4,,,,,,,,0,,,48,69
62832,note_on,192,0,1,,,,,,,,0,,,75,0
62856,note_on,96,0,2,,,,,,,,0,,,60,0
62856,note_on,0,0,2,,,,,,,,0,,,64,0
62864,note_on,64,0,4,,,,,,,,0,,,48,0
62880,note_on,48,0,1,,,,,,,,0,,,73,73
62880,note_on,16,0,4,,,,,,,,0,,,49,69
62944,note_on,64,0,4,,,,,,,,0,,,49,0
62960,note_on,16,0,4,,,,,,,,0,,,55,69
63000,note_on,144,0,2,,,,,,,,0,,,65,55
63000,note_on,0,0,2,,,,,,,,0,,,61,55
63024,note_on,64,0,4,,,,,,,,0,,,55,0
63040,note_on,16,0,4,,,,,,,,0,,,59,69
63072,note_on,192,0,1,,,,,,,,0,,,73,0
63096,note_on,0,0,2,,,,,,,,0,,,65,0
63096,note_on,96,0,2,,,,,,,,0,,,61,0
63104,note_on,64,0,4,,,,,,,,0,,,59,0
63116,set_tempo,724,1,0,,,,,,684619,,,,,,
63120,control_change,16,0,4,,,,,,,,0,64,0,,
63120,note_on,0,0,4,,,,,,,,0,,,42,69
63120,note_on,48,0,1,,,,,,,,0,,,66,73
63164,set_tempo,48,1,0,,,,,,692441,,,,,,
63165,control_change,45,0,4,,,,,,,,0,64,127,,
63184,note_on,19,0,4,,,,,,,,0,,,42,0
63200,note_on,16,0,4,,,,,,,,0,,,53,69
63207,set_tempo,43,1,0,,,,,,700444,,,,,,
63240,note_on,144,0,2,,,,,,,,0,,,64,55
63240,note_on,0,0,2,,,,,,,,0,,,61,55
63251,set_tempo,44,1,0,,,,,,708634,,,,,,
63264,note_on,64,0,4,,,,,,,,0,,,53,0
63280,note_on,16,0,4,,,,,,,,0,,,54,69
63295,set_tempo,44,1,0,,,,,,717017,,,,,,
63336,note_on,96,0,2,,,,,,,,0,,,61,0
63336,note_on,0,0,2,,,,,,,,0,,,64,0
63338,set_tempo,43,1,0,,,,,,725602,,,,,,
63344,note_on,64,0,4,,,,,,,,0,,,54,0
63360,note_on,16,0,4,,,,,,,,0,,,55,69
63360,note_on,24,0,2,,,,,,,,0,,,61,55
63360,note_on,0,0,2,,,,,,,,0,,,64,55
63386,set_tempo,48,1,0,,,,,,734394,,,,,,
63424,note_on,64,0,4,,,,,,,,0,,,55,0
63430,set_tempo,44,1,0,,,,,,743402,,,,,,
63440,note_on,16,0,4,,,,,,,,0,,,56,69
63456,note_on,0,0,2,,,,,,,,0,,,61,0
63456,note_on,96,0,2,,,,,,,,0,,,64,0
63474,set_tempo,44,1,0,,,,,,752634,,,,,,
63480,note_on,24,0,2,,,,,,,,0,,,64,55
63480,note_on,0,0,2,,,,,,,,0,,,61,55
63504,note_on,64,0,4,,,,,,,,0,,,56,0
63517,set_tempo,43,1,0,,,,,,762098,,,,,,
63520,note_on,16,0,4,,,,,,,,0,,,57,69
63561,set_tempo,44,1,0,,,,,,771803,,,,,,
63576,note_on,0,0,2,,,,,,,,0,,,64,0
63576,note_on,96,0,2,,,,,,,,0,,,61,0
63584,note_on,64,0,4,,,,,,,,0,,,57,0
63600,note_on,16,0,4,,,,,,,,0,,,58,69
63600,note_on,0,0,2,,,,,,,,0,,,61,55
63600,note_on,24,0,2,,,,,,,,0,,,64,55
63609,set_tempo,48,1,0,,,,,,781759,,,,,,
63652,set_tempo,43,1,0,,,,,,791975,,,,,,
63664,note_on,64,0,4,,,,,,,,0,,,58,0
63680,note_on,16,0,4,,,,,,,,0,,,55,69
63696,note_on,0,0,2,,,,,,,,0,,,64,0
63696,note_on,576,0,1,,,,,,,,0,,,66,0
63696,note_on,96,0,2,,,,,,,,0,,,61,0
63696,set_tempo,44,1,0,,,,,,802461,,,,,,
63720,note_on,0,0,2,,,,,,,,0,,,61,55
63720,note_on,24,0,2,,,,,,,,0,,,64,55
63740,set_tempo,44,1,0,,,,,,813229,,,,,,
63744,note_on,64,0,4,,,,,,,,0,,,55,0
63760,note_on,16,0,4,,,,,,,,0,,,54,69
63783,set_tempo,43,1,0,,,,,,824289,,,,,,
63816,note_on,96,0,2,,,,,,,,0,,,61,0
63816,note_on,0,0,2,,,,,,,,0,,,64,0
63824,note_on,64,0,4,,,,,,,,0,,,54,0
63827,set_tempo,44,1,0,,,,,,835655,,,,,,
63830,control_change,6,0,4,,,,,,,,0,64,0,,
63840,note_on,10,0,4,,,,,,,,0,,,42,69
63840,note_on,144,0,1,,,,,,,,0,,,66,73
63844,set_tempo,17,1,0,,,,,,824289,,,,,,
63855,control_change,15,0,4,,,,,,,,0,64,127,,
63858,set_tempo,14,1,0,,,,,,813229,,,,,,
63875,set_tempo,17,1,0,,,,,,802461,,,,,,
63888,set_tempo,13,1,0,,,,,,791975,,,,,,
63904,note_on,49,0,4,,,,,,,,0,,,42,0
63906,set_tempo,18,1,0,,,,,,781759,,,,,,
63919,set_tempo,13,1,0,,,,,,771803,,,,,,
63920,note_on,16,0,4,,,,,,,,0,,,54,69
63936,set_tempo,17,1,0,,,,,,762098,,,,,,
63949,set_tempo,13,1,0,,,,,,752634,,,,,,
63960,note_on,0,0,2,,,,,,,,0,,,61,55
63960,note_on,144,0,2,,,,,,,,0,,,64,55
63962,set_tempo,13,1,0,,,,,,743402,,,,,,
63980,set_tempo,18,1,0,,,,,,734394,,,,,,
63984,note_on,64,0,4,,,,,,,,0,,,54,0
63993,set_tempo,13,1,0,,,,,,725602,,,,,,
64000,note_on,16,0,4,,,,,,,,0,,,58,69
64010,set_tempo,17,1,0,,,,,,717017,,,,,,
64023,set_tempo,13,1,0,,,,,,708634,,,,,,
64032,note_on,192,0,1,,,,,,,,0,,,66,0
64041,set_tempo,18,1,0,,,,,,700444,,,,,,
64054,set_tempo,13,1,0,,,,,,692441,,,,,,
64056,note_on,0,0,2,,,,,,,,0,,,64,0
64056,note_on,96,0,2,,,,,,,,0,,,61,0
64064,note_on,64,0,4,,,,,,,,0,,,58,0
64071,set_tempo,17,1,0,,,,,,684619,,,,,,
64080,note_on,16,0,4,,,,,,,,0,,,47,69
64080,control_change,0,0,4,,,,,,,,0,64,0,,
64080,note_on,48,0,1,,,,,,,,0,,,78,73
64084,set_tempo,13,1,0,,,,,,676972,,,,,,
64098,set_tempo,14,1,0,,,,,,669493,,,,,,
64107,control_change,27,0,4,,,,,,,,0,64,127,,
64144,note_on,37,0,4,,,,,,,,0,,,47,0
64160,note_on,16,0,4,,,,,,,,0,,,60,69
64200,note_on,0,0,2,,,,,,,,0,,,69,55
64200,note_on,0,0,2,,,,,,,,0,,,66,55
64200,note_on,144,0,2,,,,,,,,0,,,64,55
64224,note_on,64,0,4,,,,,,,,0,,,60,0
64240,note_on,16,0,4,,,,,,,,0,,,57,69
64296,note_on,0,0,2,,,,,,,,0,,,64,0
64296,note_on,96,0,2,,,,,,,,0,,,66,0
64296,note_on,0,0,2,,,,,,,,0,,,69,0
64304,note_on,64,0,4,,,,,,,,0,,,57,0
64320,note_on,24,0,2,,,,,,,,0,,,69,55
64320,note_on,0,0,2,,,,,,,,0,,,66,55
64320,note_on,0,0,2,,,,,,,,0,,,64,55
64320,note_on,16,0,4,,,,,,,,0,,,60,69
64384,note_on,64,0,4,,,,,,,,0,,,60,0
64400,note_on,16,0,4,,,,,,,,0,,,62,69
64416,note_on,96,0,2,,,,,,,,0,,,66,0
64416,note_on,0,0,2,,,,,,,,0,,,69,0
64416,note_on,0,0,2,,,,,,,,0,,,64,0
64440,note_on,0,0,2,,,,,,,,0,,,69,55
64440,note_on,0,0,2,,,,,,,,0,,,66,55
64440,note_on,24,0,2,,,,,,,,0,,,64,55
64464,note_on,384,0,1,,,,,,,,0,,,78,0
64464,note_on,64,0,4,,,,,,,,0,,,62,0
64480,note_on,16,0,4,,,,,,,,0,,,60,69
64536,note_on,0,0,2,,,,,,,,0,,,64,0
64536,note_on,0,0,2,,,,,,,,0,,,69,0
64536,note_on,96,0,2,,,,,,,,0,,,66,0
64544,note_on,64,0,4,,,,,,,,0,,,60,0
64553,control_change,9,0,4,,,,,,,,0,64,0,,
64560,note_on,96,0,1,,,,,,,,0,,,76,73
64560,note_on,7,0,4,,,,,,,,0,,,47,69
64577,control_change,17,0,4,,,,,,,,0,64,127,,
64624,note_on,47,0,4,,,,,,,,0,,,47,0
64640,note_on,16,0,4,,,,,,,,0,,,57,69
64680,note_on,0,0,2,,,,,,,,0,,,66,55
64680,note_on,144,0,2,,,,,,,,0,,,64,55
64680,note_on,0,0,2,,,,,,,,0,,,60,55
64704,note_on,64,0,4,,,,,,,,0,,,57,0
64720,note_on,16,0,4,,,,,,,,0,,,54,69
64776,note_on,96,0,2,,,,,,,,0,,,60,0
64776,note_on,0,0,2,,,,,,,,0,,,64,0
64776,note_on,0,0,2,,,,,,,,0,,,66,0
64784,note_on,64,0,4,,,,,,,,0,,,54,0
64800,note_on,0,0,2,,,,,,,,0,,,64,55
64800,note_on,0,0,2,,,,,,,,0,,,60,55
64800,note_on,24,0,2,,,,,,,,0,,,66,55
64800,note_on,16,0,4,,,,,,,,0,,,57,69
64848,note_on,288,0,1,,,,,,,,0,,,76,0
64864,note_on,64,0,4,,,,,,,,0,,,57,0
64880,note_on,16,0,4,,,,,,,,0,,,59,69
64896,note_on,0,0,2,,,,,,,,0,,,66,0
64896,note_on,96,0,2,,,,,,,,0,,,60,0
64896,note_on,0,0,2,,,,,,,,0,,,64,0
64920,note_on,72,0,1,,,,,,,,0,,,72,73
64920,note_on,24,0,2,,,,,,,,0,,,66,55
64920,note_on,0,0,2,,,,,,,,0,,,64,55
64920,note_on,0,0,2,,,,,,,,0,,,60,55
64944,note_on,64,0,4,,,,,,,,0,,,59,0
64960,note_on,16,0,4,,,,,,,,0,,,57,69
65016,note_on,0,0,2,,,,,,,,0,,,66,0
65016,note_on,96,0,1,,,,,,,,0,,,72,0
65016,note_on,96,0,2,,,,,,,,0,,,60,0
65016,note_on,0,0,2,,,,,,,,0,,,64,0
65024,note_on,64,0,4,,,,,,,,0,,,57,0
65038,set_tempo,940,1,0,,,,,,676972,,,,,,
65040,note_on,16,0,4,,,,,,,,0,,,35,69
65040,note_on,24,0,1,,,,,,,,0,,,72,73
65040,control_change,0,0,4,,,,,,,,0,64,0,,
65060,control_change,20,0,4,,,,,,,,0,64,127,,
65104,note_on,44,0,4,,,,,,,,0,,,35,0
65112,set_tempo,74,1,0,,,,,,684619,,,,,,
65120,note_on,16,0,4,,,,,,,,0,,,54,69
65160,note_on,0,0,2,,,,,,,,0,,,66,55
65160,note_on,0,0,2,,,,,,,,0,,,63,55
65160,note_on,0,0,2,,,,,,,,0,,,57,55
65160,note_on,144,0,2,,,,,,,,0,,,59,55
65184,note_on,64,0,4,,,,,,,,0,,,54,0
65186,set_tempo,74,1,0,,,,,,692441,,,,,,
65200,note_on,16,0,4,,,,,,,,0,,,53,69
65256,note_on,96,0,2,,,,,,,,0,,,66,0
65256,note_on,0,0,2,,,,,,,,0,,,59,0
65256,note_on,0,0,2,,,,,,,,0,,,63,0
65256,note_on,0,0,2,,,,,,,,0,,,57,0
65260,set_tempo,74,1,0,,,,,,700444,,,,,,
65264,note_on,64,0,4,,,,,,,,0,,,53,0
65280,note_on,0,0,2,,,,,,,,0,,,59,55
65280,note_on,24,0,2,,,,,,,,0,,,57,55
65280,note_on,0,0,2,,,,,,,,0,,,63,55
65280,note_on,16,0,4,,,,,,,,0,,,52,69
65280,note_on,0,0,2,,,,,,,,0,,,66,55
65334,set_tempo,74,1,0,,,,,,708634,,,,,,
65344,note_on,64,0,4,,,,,,,,0,,,52,0
65360,note_on,16,0,4,,,,,,,,0,,,51,69
65376,note_on,96,0,2,,,,,,,,0,,,59,0
65376,note_on,0,0,2,,,,,,,,0,,,57,0
65376,note_on,0,0,2,,,,,,,,0,,,66,0
65376,note_on,0,0,2,,,,,,,,0,,,63,0
65400,note_on,0,0,2,,,,,,,,0,,,57,55
65400,note_on,0,0,2,,,,,,,,0,,,59,55
65400,note_on,0,0,2,,,,,,,,0,,,63,55
65400,note_on,24,0,2,,,,,,,,0,,,66,55
65408,set_tempo,74,1,0,,,,,,717017,,,,,,
65424,note_on,64,0,4,,,,,,,,0,,,51,0
65424,note_on,384,0,1,,,,,,,,0,,,72,0
65440,note_on,16,0,4,,,,,,,,0,,,50,69
65483,set_tempo,75,1,0,,,,,,725602,,,,,,
65496,note_on,0,0,2,,,,,,,,0,,,57,0
65496,note_on,0,0,2,,,,,,,,0,,,66,0
65496,note_on,0,0,2,,,,,,,,0,,,59,0
65496,note_on,96,0,2,,,,,,,,0,,,63,0
65504,note_on,64,0,4,,,,,,,,0,,,50,0
65520,note_on,24,0,2,,,,,,,,0,,,63,55
65520,note_on,0,0,2,,,,,,,,0,,,59,55
65520,note_on,0,0,2,,,,,,,,0,,,57,55
65520,note_on,96,0,1,,,,,,,,0,,,71,73
65520,note_on,16,0,4,,,,,,,,0,,,49,69
65520,note_on,0,0,2,,,,,,,,0,,,66,55
65557,set_tempo,74,1,0,,,,,,734394,,,,,,
65584,note_on,64,0,4,,,,,,,,0,,,49,0
65600,note_on,16,0,4,,,,,,,,0,,,48,69
65616,note_on,0,0,2,,,,,,,,0,,,57,0
65616,note_on,0,0,2,,,,,,,,0,,,59,0
65616,note_on,0,0,2,,,,,,,,0,,,63,0
65616,note_on,96,0,2,,,,,,,,0,,,66,0
65631,set_tempo,74,1,0,,,,,,743402,,,,,,
65640,note_on,24,0,2,,,,,,,,0,,,66,55
65640,note_on,0,0,2,,,,,,,,0,,,63,55
65640,note_on,0,0,2,,,,,,,,0,,,59,55
65640,note_on,0,0,2,,,,,,,,0,,,57,55
65664,note_on,64,0,4,,,,,,,,0,,,48,0
65680,note_on,16,0,4,,,,,,,,0,,,47,69
65688,note_on,168,0,1,,,,,,,,0,,,71,0
65705,set_tempo,74,1,0,,,,,,752634,,,,,,
65730,note_on,42,0,1,,,,,,,,0,,,69,73
65736,note_on,0,0,2,,,,,,,,0,,,66,0
65736,note_on,0,0,2,,,,,,,,0,,,63,0
65736,note_on,0,0,2,,,,,,,,0,,,57,0
65736,note_on,96,0,2,,,,,,,,0,,,59,0
65744,note_on,64,0,4,,,,,,,,0,,,47,0
65753,control_change,9,0,4,,,,,,,,0,64,0,,
65754,note_on,24,0,1,,,,,,,,0,,,69,0
65760,note_on,0,0,2,,,,,,,,0,,,63,55
65760,note_on,0,0,2,,,,,,,,0,,,57,55
65760,note_on,6,0,1,,,,,,,,0,,,68,73
65760,note_on,24,0,2,,,,,,,,0,,,59,55
65760,note_on,7,0,4,,,,,,,,0,,,35,69
65777,control_change,17,0,4,,,,,,,,0,64,127,,
65779,set_tempo,74,1,0,,,,,,762098,,,,,,
65824,note_on,47,0,4,,,,,,,,0,,,35,0
65840,note_on,16,0,4,,,,,,,,0,,,47,69
65854,set_tempo,75,1,0,,,,,,771803,,,,,,
65856,note_on,96,0,1,,,,,,,,0,,,68,0
65856,note_on,96,0,2,,,,,,,,0,,,63,0
65856,note_on,0,0,2,,,,,,,,0,,,57,0
65856,note_on,0,0,2,,,,,,,,0,,,59,0
65880,note_on,0,0,2,,,,,,,,0,,,57,55
65880,note_on,24,0,1,,,,,,,,0,,,66,73
65880,note_on,0,0,2,,,,,,,,0,,,63,55
65880,note_on,24,0,2,,,,,,,,0,,,59,55
65904,note_on,64,0,4,,,,,,,,0,,,47,0
65920,note_on,16,0,4,,,,,,,,0,,,54,69
65928,set_tempo,74,1,0,,,,,,781759,,,,,,
65976,note_on,0,0,2,,,,,,,,0,,,63,0
65976,note_on,96,0,1,,,,,,,,0,,,66,0
65976,note_on,96,0,2,,,,,,,,0,,,57,0
65976,note_on,0,0,2,,,,,,,,0,,,59,0
65984,note_on,64,0,4,,,,,,,,0,,,54,0
65998,set_tempo,70,1,0,,,,,,791975,,,,,,
66000,note_on,24,0,1,,,,,,,,0,,,78,73
66000,note_on,0,0,4,,,,,,,,0,,,48,69
66000,control_change,16,0,4,,,,,,,,0,64,0,,
66012,set_tempo,14,1,0,,,,,,791975,,,,,,
66030,control_change,30,0,4,,,,,,,,0,64,127,,
66051,set_tempo,39,1,0,,,,,,781759,,,,,,
66064,note_on,34,0,4,,,,,,,,0,,,48,0
66080,note_on,16,0,4,,,,,,,,0,,,60,69
66086,set_tempo,35,1,0,,,,,,771803,,,,,,
66120,note_on,144,0,2,,,,,,,,0,,,69,55
66120,note_on,0,0,2,,,,,,,,0,,,66,55
66120,note_on,0,0,2,,,,,,,,0,,,64,55
66121,set_tempo,35,1,0,,,,,,762098,,,,,,
66144,note_on,64,0,4,,,,,,,,0,,,60,0
66156,set_tempo,35,1,0,,,,,,752634,,,,,,
66160,note_on,16,0,4,,,,,,,,0,,,57,69
66191,set_tempo,35,1,0,,,,,,743402,,,,,,
66216,note_on,0,0,2,,,,,,,,0,,,66,0
66216,note_on,0,0,2,,,,,,,,0,,,69,0
66216,note_on,96,0,2,,,,,,,,0,,,64,0
66224,note_on,64,0,4,,,,,,,,0,,,57,0
66226,set_tempo,35,1,0,,,,,,734394,,,,,,
66240,note_on,0,0,2,,,,,,,,0,,,64,55
66240,note_on,16,0,4,,,,,,,,0,,,60,69
66240,note_on,0,0,2,,,,,,,,0,,,66,55
66240,note_on,24,0,2,,,,,,,,0,,,69,55
66265,set_tempo,39,1,0,,,,,,725602,,,,,,
66300,set_tempo,35,1,0,,,,,,717017,,,,,,
66304,note_on,64,0,4,,,,,,,,0,,,60,0
66320,note_on,16,0,4,,,,,,,,0,,,62,69
66335,set_tempo,35,1,0,,,,,,708634,,,,,,
66336,note_on,96,0,2,,,,,,,,0,,,66,0
66336,note_on,0,0,2,,,,,,,,0,,,69,0
66336,note_on,0,0,2,,,,,,,,0,,,64,0
66360,note_on,0,0,2,,,,,,,,0,,,66,55
66360,note_on,0,0,2,,,,,,,,0,,,64,55
66360,note_on,24,0,2,,,,,,,,0,,,69,55
66370,set_tempo,35,1,0,,,,,,700444,,,,,,
66384,note_on,384,0,1,,,,,,,,0,,,78,0
66384,note_on,64,0,4,,,,,,,,0,,,62,0
66400,note_on,16,0,4,,,,,,,,0,,,60,69
66405,set_tempo,35,1,0,,,,,,692441,,,,,,
66440,set_tempo,35,1,0,,,,,,684619,,,,,,
66456,note_on,96,0,2,,,,,,,,0,,,64,0
66456,note_on,0,0,2,,,,,,,,0,,,69,0
66456,note_on,0,0,2,,,,,,,,0,,,66,0
66464,note_on,64,0,4,,,,,,,,0,,,60,0
66475,set_tempo,35,1,0,,,,,,676972,,,,,,
66480,note_on,96,0,1,,,,,,,,0,,,76,73
66480,note_on,0,0,4,,,,,,,,0,,,45,69
66480,control_change,16,0,4,,,,,,,,0,64,0,,
66507,control_change,27,0,4,,,,,,,,0,64,127,,
66544,note_on,37,0,4,,,,,,,,0,,,45,0
66560,note_on,16,0,4,,,,,,,,0,,,57,69
66600,note_on,0,0,2,,,,,,,,0,,,64,55
66600,note_on,0,0,2,,,,,,,,0,,,66,55
66600,note_on,144,0,2,,,,,,,,0,,,60,55
66624,note_on,64,0,4,,,,,,,,0,,,57,0
66640,note_on,16,0,4,,,,,,,,0,,,54,69
66672,note_on,192,0,1,,,,,,,,0,,,76,0
66696,note_on,96,0,2,,,,,,,,0,,,64,0
66696,note_on,0,0,2,,,,,,,,0,,,60,0
66696,note_on,0,0,2,,,,,,,,0,,,66,0
66704,note_on,64,0,4,,,,,,,,0,,,54,0
66720,note_on,48,0,1,,,,,,,,0,,,74,73
66720,note_on,16,0,4,,,,,,,,0,,,57,69
66784,note_on,64,0,4,,,,,,,,0,,,57,0
66800,note_on,16,0,4,,,,,,,,0,,,59,69
66840,note_on,0,0,2,,,,,,,,0,,,60,55
66840,note_on,0,0,2,,,,,,,,0,,,66,55
66840,note_on,144,0,2,,,,,,,,0,,,64,55
66864,note_on,64,0,4,,,,,,,,0,,,59,0
66864,note_on,144,0,1,,,,,,,,0,,,74,0
66880,note_on,16,0,4,,,,,,,,0,,,57,69
66900,note_on,36,0,1,,,,,,,,0,,,72,73
66936,note_on,0,0,2,,,,,,,,0,,,64,0
66936,note_on,96,0,2,,,,,,,,0,,,66,0
66936,note_on,0,0,2,,,,,,,,0,,,60,0
66944,note_on,64,0,4,,,,,,,,0,,,57,0
66948,note_on,48,0,1,,,,,,,,0,,,72,0
66960,note_on,12,0,1,,,,,,,,0,,,72,73
66960,control_change,0,0,4,,,,,,,,0,64,0,,
66960,note_on,16,0,4,,,,,,,,0,,,35,69
66995,control_change,35,0,4,,,,,,,,0,64,127,,
67024,note_on,29,0,4,,,,,,,,0,,,35,0
67040,note_on,16,0,4,,,,,,,,0,,,47,69
67080,note_on,0,0,2,,,,,,,,0,,,63,55
67080,note_on,0,0,2,,,,,,,,0,,,66,55
67080,note_on,0,0,2,,,,,,,,0,,,59,55
67080,note_on,144,0,2,,,,,,,,0,,,57,55
67104,note_on,64,0,4,,,,,,,,0,,,47,0
67120,note_on,16,0,4,,,,,,,,0,,,48,69
67176,note_on,0,0,2,,,,,,,,0,,,57,0
67176,note_on,0,0,2,,,,,,,,0,,,59,0
67176,note_on,96,0,2,,,,,,,,0,,,63,0
67176,note_on,0,0,2,,,,,,,,0,,,66,0
67184,note_on,64,0,4,,,,,,,,0,,,48,0
67200,note_on,0,0,2,,,,,,,,0,,,63,55
67200,note_on,0,0,2,,,,,,,,0,,,57,55
67200,note_on,0,0,2,,,,,,,,0,,,59,55
67200,note_on,24,0,2,,,,,,,,0,,,66,55
67200,note_on,16,0,4,,,,,,,,0,,,49,69
67212,set_tempo,737,1,0,,,,,,676972,,,,,,
67247,set_tempo,35,1,0,,,,,,684619,,,,,,
67264,note_on,64,0,4,,,,,,,,0,,,49,0
67280,note_on,16,0,4,,,,,,,,0,,,50,69
67282,set_tempo,35,1,0,,,,,,692441,,,,,,
67296,note_on,0,0,2,,,,,,,,0,,,59,0
67296,note_on,0,0,2,,,,,,,,0,,,63,0
67296,note_on,0,0,2,,,,,,,,0,,,66,0
67296,note_on,96,0,2,,,,,,,,0,,,57,0
67317,set_tempo,35,1,0,,,,,,700444,,,,,,
67320,note_on,24,0,2,,,,,,,,0,,,66,55
67320,note_on,0,0,2,,,,,,,,0,,,63,55
67320,note_on,0,0,2,,,,,,,,0,,,59,55
67320,note_on,0,0,2,,,,,,,,0,,,57,55
67344,note_on,64,0,4,,,,,,,,0,,,50,0
67347,set_tempo,30,1,0,,,,,,708634,,,,,,
67360,note_on,16,0,4,,,,,,,,0,,,51,69
67382,set_tempo,35,1,0,,,,,,717017,,,,,,
67416,note_on,0,0,2,,,,,,,,0,,,63,0
67416,note_on,0,0,2,,,,,,,,0,,,66,0
67416,note_on,96,0,2,,,,,,,,0,,,57,0
67416,note_on,0,0,2,,,,,,,,0,,,59,0
67417,set_tempo,35,1,0,,,,,,725602,,,,,,
67424,note_on,64,0,4,,,,,,,,0,,,51,0
67440,note_on,24,0,2,,,,,,,,0,,,63,55
67440,note_on,16,0,4,,,,,,,,0,,,52,69
67440,note_on,0,0,2,,,,,,,,0,,,57,55
67440,note_on,0,0,2,,,,,,,,0,,,59,55
67440,note_on,0,0,2,,,,,,,,0,,,66,55
67448,set_tempo,31,1,0,,,,,,734394,,,,,,
67483,set_tempo,35,1,0,,,,,,743402,,,,,,
67504,note_on,64,0,4,,,,,,,,0,,,52,0
67518,set_tempo,35,1,0,,,,,,752634,,,,,,
67520,note_on,16,0,4,,,,,,,,0,,,53,69
67536,note_on,576,0,1,,,,,,,,0,,,72,0
67536,note_on,96,0,2,,,,,,,,0,,,57,0
67536,note_on,0,0,2,,,,,,,,0,,,66,0
67536,note_on,0,0,2,,,,,,,,0,,,63,0
67536,note_on,0,0,2,,,,,,,,0,,,59,0
67552,set_tempo,34,1,0,,,,,,762098,,,,,,
67560,note_on,24,0,2,,,,,,,,0,,,66,55
67560,note_on,0,0,2,,,,,,,,0,,,63,55
67560,note_on,24,0,1,,,,,,,,0,,,71,73
67560,note_on,0,0,2,,,,,,,,0,,,57,55
67560,note_on,0,0,2,,,,,,,,0,,,59,55
67583,set_tempo,31,1,0,,,,,,771803,,,,,,
67584,note_on,64,0,4,,,,,,,,0,,,53,0
67600,note_on,16,0,4,,,,,,,,0,,,54,69
67618,set_tempo,35,1,0,,,,,,781759,,,,,,
67653,set_tempo,35,1,0,,,,,,791975,,,,,,
67656,note_on,0,0,2,,,,,,,,0,,,63,0
67656,note_on,0,0,2,,,,,,,,0,,,66,0
67656,note_on,0,0,2,,,,,,,,0,,,57,0
67656,note_on,96,0,1,,,,,,,,0,,,71,0
67656,note_on,96,0,2,,,,,,,,0,,,59,0
67664,note_on,64,0,4,,,,,,,,0,,,54,0
67680,note_on,24,0,1,,,,,,,,0,,,73,73
67680,note_on,0,0,2,,,,,,,,0,,,59,55
67680,note_on,16,0,4,,,,,,,,0,,,51,69
67680,note_on,24,0,2,,,,,,,,0,,,57,55
67680,note_on,0,0,2,,,,,,,,0,,,66,55
67680,note_on,0,0,2,,,,,,,,0,,,63,55
67683,set_tempo,30,1,0,,,,,,802461,,,,,,
67718,set_tempo,35,1,0,,,,,,813229,,,,,,
67744,note_on,64,0,4,,,,,,,,0,,,51,0
67753,set_tempo,35,1,0,,,,,,824289,,,,,,
67760,note_on,16,0,4,,,,,,,,0,,,49,69
67776,note_on,96,0,1,,,,,,,,0,,,73,0
67776,note_on,0,0,2,,,,,,,,0,,,57,0
67776,note_on,96,0,2,,,,,,,,0,,,66,0
67776,note_on,0,0,2,,,,,,,,0,,,63,0
67776,note_on,0,0,2,,,,,,,,0,,,59,0
67788,set_tempo,35,1,0,,,,,,835655,,,,,,
67800,note_on,24,0,2,,,,,,,,0,,,57,55
67800,note_on,0,0,2,,,,,,,,0,,,66,55
67800,note_on,0,0,2,,,,,,,,0,,,63,55
67800,note_on,0,0,2,,,,,,,,0,,,59,55
67800,note_on,24,0,1,,,,,,,,0,,,71,73
67819,set_tempo,31,1,0,,,,,,847338,,,,,,
67824,note_on,64,0,4,,,,,,,,0,,,49,0
67840,note_on,16,0,4,,,,,,,,0,,,47,69
67854,set_tempo,35,1,0,,,,,,859353,,,,,,
67888,set_tempo,34,1,0,,,,,,871713,,,,,,
67896,note_on,96,0,2,,,,,,,,0,,,63,0
67896,note_on,0,0,2,,,,,,,,0,,,59,0
67896,note_on,0,0,2,,,,,,,,0,,,66,0
67896,note_on,0,0,2,,,,,,,,0,,,57,0
67896,note_on,96,0,1,,,,,,,,0,,,71,0
67904,note_on,64,0,4,,,,,,,,0,,,47,0
67919,set_tempo,31,1,0,,,,,,743402,,,,,,
67920,note_on,16,0,4,,,,,,,,0,,,40,69
67920,note_on,24,0,1,,,,,,,,0,,,80,73
67923,control_change,3,0,4,,,,,,,,0,64,0,,
67950,control_change,27,0,4,,,,,,,,0,64,127,,
67984,note_on,34,0,4,,,,,,,,0,,,40,0
68000,note_on,16,0,4,,,,,,,,0,,,59,69
68019,set_tempo,100,1,0,,,,,,734394,,,,,,
68040,note_on,144,0,2,,,,,,,,0,,,71,69
68040,note_on,0,0,2,,,,,,,,0,,,68,69
68064,note_on,64,0,4,,,,,,,,0,,,59,0
68080,note_on,16,0,4,,,,,,,,0,,,56,69
68115,set_tempo,96,1,0,,,,,,725602,,,,,,
68136,note_on,0,0,2,,,,,,,,0,,,71,0
68136,note_on,96,0,2,,,,,,,,0,,,68,0
68144,note_on,64,0,4,,,,,,,,0,,,56,0
68160,note_on,24,0,2,,,,,,,,0,,,68,69
68160,note_on,16,0,4,,,,,,,,0,,,59,69
68160,note_on,0,0,2,,,,,,,,0,,,71,69
68211,set_tempo,96,1,0,,,,,,717017,,,,,,
68224,note_on,64,0,4,,,,,,,,0,,,59,0
68240,note_on,16,0,4,,,,,,,,0,,,61,69
68256,note_on,0,0,2,,,,,,,,0,,,68,0
68256,note_on,96,0,2,,,,,,,,0,,,71,0
68280,note_on,0,0,2,,,,,,,,0,,,68,69
68280,note_on,24,0,2,,,,,,,,0,,,71,69
68304,note_on,384,0,1,,,,,,,,0,,,80,0
68304,note_on,64,0,4,,,,,,,,0,,,61,0
68307,set_tempo,96,1,0,,,,,,708634,,,,,,
68320,note_on,16,0,4,,,,,,,,0,,,64,69
68376,note_on,0,0,2,,,,,,,,0,,,71,0
68376,note_on,96,0,2,,,,,,,,0,,,68,0
68384,note_on,64,0,4,,,,,,,,0,,,64,0
68400,note_on,16,0,4,,,,,,,,0,,,44,69
68400,note_on,96,0,1,,,,,,,,0,,,76,73
68403,set_tempo,96,1,0,,,,,,700444,,,,,,
68403,control_change,3,0,4,,,,,,,,0,64,0,,
68420,control_change,17,0,4,,,,,,,,0,64,127,,
68464,note_on,44,0,4,,,,,,,,0,,,44,0
68480,note_on,16,0,4,,,,,,,,0,,,56,69
68499,set_tempo,96,1,0,,,,,,692441,,,,,,
68520,note_on,144,0,2,,,,,,,,0,,,64,69
68520,note_on,0,0,2,,,,,,,,0,,,68,69
68544,note_on,64,0,4,,,,,,,,0,,,56,0
68560,note_on,16,0,4,,,,,,,,0,,,52,69
68592,note_on,192,0,1,,,,,,,,0,,,76,0
68595,set_tempo,96,1,0,,,,,,684619,,,,,,
68616,note_on,0,0,2,,,,,,,,0,,,64,0
68616,note_on,96,0,2,,,,,,,,0,,,68,0
68624,note_on,64,0,4,,,,,,,,0,,,52,0
68640,note_on,16,0,4,,,,,,,,0,,,56,69
68640,note_on,48,0,1,,,,,,,,0,,,72,73
68691,set_tempo,96,1,0,,,,,,676972,,,,,,
68704,note_on,64,0,4,,,,,,,,0,,,56,0
68720,note_on,16,0,4,,,,,,,,0,,,59,69
68760,note_on,0,0,2,,,,,,,,0,,,64,69
68760,note_on,144,0,2,,,,,,,,0,,,68,69
68784,note_on,64,0,4,,,,,,,,0,,,59,0
68800,note_on,16,0,4,,,,,,,,0,,,60,69
68832,note_on,192,0,1,,,,,,,,0,,,72,0
68856,note_on,0,0,2,,,,,,,,0,,,68,0
68856,note_on,96,0,2,,,,,,,,0,,,64,0
68864,note_on,64,0,4,,,,,,,,0,,,60,0
68880,control_change,16,0,4,,,,,,,,0,64,0,,
68880,note_on,0,0,4,,,,,,,,0,,,46,69
68880,note_on,48,0,1,,,,,,,,0,,,75,73
68895,control_change,15,0,4,,,,,,,,0,64,127,,
68944,note_on,49,0,4,,,,,,,,0,,,46,0
68960,note_on,16,0,4,,,,,,,,0,,,55,69
69000,note_on,0,0,2,,,,,,,,0,,,67,69
69000,note_on,144,0,2,,,,,,,,0,,,64,69
69024,note_on,64,0,4,,,,,,,,0,,,55,0
69040,note_on,16,0,4,,,,,,,,0,,,57,69
69096,note_on,96,0,2,,,,,,,,0,,,67,0
69096,note_on,0,0,2,,,,,,,,0,,,64,0
69104,note_on,64,0,4,,,,,,,,0,,,57,0
69120,note_on,24,0,2,,,,,,,,0,,,64,69
69120,note_on,0,0,2,,,,,,,,0,,,67,69
69120,note_on,16,0,4,,,,,,,,0,,,58,69
69184,note_on,64,0,4,,,,,,,,0,,,58,0
69200,note_on,16,0,4,,,,,,,,0,,,59,69
69216,note_on,0,0,2,,,,,,,,0,,,64,0
69216,note_on,96,0,2,,,,,,,,0,,,67,0
69240,note_on,24,0,2,,,,,,,,0,,,64,69
69240,note_on,0,0,2,,,,,,,,0,,,67,69
69264,note_on,384,0,1,,,,,,,,0,,,75,0
69264,note_on,64,0,4,,,,,,,,0,,,59,0
69280,note_on,16,0,4,,,,,,,,0,,,60,69
69336,note_on,0,0,2,,,,,,,,0,,,64,0
69336,note_on,96,0,2,,,,,,,,0,,,67,0
69344,note_on,64,0,4,,,,,,,,0,,,60,0
69360,note_on,96,0,1,,,,,,,,0,,,73,73
69360,note_on,0,0,4,,,,,,,,0,,,63,69
69360,control_change,16,0,4,,,,,,,,0,64,0,,
69375,control_change,15,0,4,,,,,,,,0,64,127,,
69424,note_on,49,0,4,,,,,,,,0,,,63,0
69440,note_on,16,0,4,,,,,,,,0,,,61,69
69480,note_on,144,0,2,,,,,,,,0,,,64,69
69480,note_on,0,0,2,,,,,,,,0,,,67,69
69504,note_on,64,0,4,,,,,,,,0,,,61,0
69520,note_on,16,0,4,,,,,,,,0,,,58,69
69552,note_on,192,0,1,,,,,,,,0,,,73,0
69576,note_on,96,0,2,,,,,,,,0,,,67,0
69576,note_on,0,0,2,,,,,,,,0,,,64,0
69584,note_on,64,0,4,,,,,,,,0,,,58,0
69600,note_on,16,0,4,,,,,,,,0,,,55,69
69600,note_on,24,0,2,,,,,,,,0,,,64,69
69600,note_on,0,0,2,,,,,,,,0,,,67,69
69664,note_on,64,0,4,,,,,,,,0,,,55,0
69680,note_on,16,0,4,,,,,,,,0,,,52,69
69696,note_on,96,0,2,,,,,,,,0,,,67,0
69696,note_on,0,0,2,,,,,,,,0,,,64,0
69720,note_on,24,0,2,,,,,,,,0,,,64,69
69720,note_on,168,0,1,,,,,,,,0,,,67,73
69720,note_on,0,0,2,,,,,,,,0,,,61,69
69744,note_on,64,0,4,,,,,,,,0,,,52,0
69760,note_on,16,0,4,,,,,,,,0,,,46,69
69816,note_on,96,0,2,,,,,,,,0,,,61,0
69816,note_on,0,0,2,,,,,,,,0,,,64,0
69816,note_on,96,0,1,,,,,,,,0,,,67,0
69824,note_on,64,0,4,,,,,,,,0,,,46,0
69840,note_on,16,0,4,,,,,,,,0,,,35,69
69840,note_on,24,0,1,,,,,,,,0,,,68,73
69855,control_change,15,0,4,,,,,,,,0,64,0,,
69890,control_change,35,0,4,,,,,,,,0,64,127,,
69904,note_on,14,0,4,,,,,,,,0,,,35,0
69920,note_on,16,0,4,,,,,,,,0,,,47,69
69960,note_on,144,0,2,,,,,,,,0,,,59,69
69960,note_on,0,0,2,,,,,,,,0,,,64,69
69984,note_on,64,0,4,,,,,,,,0,,,47,0
70000,note_on,16,0,4,,,,,,,,0,,,49,69
70032,note_on,192,0,1,,,,,,,,0,,,68,0
70056,note_on,0,0,2,,,,,,,,0,,,59,0
70056,note_on,96,0,2,,,,,,,,0,,,64,0
70064,note_on,64,0,4,,,,,,,,0,,,49,0
70080,note_on,16,0,4,,,,,,,,0,,,52,69
70080,note_on,48,0,1,,,,,,,,0,,,68,73
70144,note_on,64,0,4,,,,,,,,0,,,52,0
70160,note_on,16,0,4,,,,,,,,0,,,56,69
70200,note_on,0,0,2,,,,,,,,0,,,59,69
70200,note_on,144,0,2,,,,,,,,0,,,64,69
70224,note_on,64,0,4,,,,,,,,0,,,56,0
70240,note_on,16,0,4,,,,,,,,0,,,47,69
70272,note_on,192,0,1,,,,,,,,0,,,68,0
70296,note_on,96,0,2,,,,,,,,0,,,59,0
70296,note_on,0,0,2,,,,,,,,0,,,64,0
70304,note_on,64,0,4,,,,,,,,0,,,47,0
70315,control_change,11,0,4,,,,,,,,0,64,0,,
70320,note_on,5,0,4,,,,,,,,0,,,35,69
70320,note_on,48,0,1,,,,,,,,0,,,71,73
70355,control_change,35,0,4,,,,,,,,0,64,127,,
70384,note_on,29,0,4,,,,,,,,0,,,35,0
70400,note_on,16,0,4,,,,,,,,0,,,49,69
70440,note_on,0,0,2,,,,,,,,0,,,63,69
70440,note_on,0,0,2,,,,,,,,0,,,59,69
70440,note_on,144,0,2,,,,,,,,0,,,57,69
70464,note_on,64,0,4,,,,,,,,0,,,49,0
70480,note_on,16,0,4,,,,,,,,0,,,51,69
70512,note_on,192,0,1,,,,,,,,0,,,71,0
70536,note_on,96,0,2,,,,,,,,0,,,63,0
70536,note_on,0,0,2,,,,,,,,0,,,57,0
70536,note_on,0,0,2,,,,,,,,0,,,59,0
70544,note_on,64,0,4,,,,,,,,0,,,51,0
70560,note_on,16,0,4,,,,,,,,0,,,54,69
70560,note_on,48,0,1,,,,,,,,0,,,69,73
70624,note_on,64,0,4,,,,,,,,0,,,54,0
70640,note_on,16,0,4,,,,,,,,0,,,59,69
70680,note_on,0,0,2,,,,,,,,0,,,59,69
70680,note_on,144,0,2,,,,,,,,0,,,63,69
70680,note_on,0,0,2,,,,,,,,0,,,57,69
70704,note_on,64,0,4,,,,,,,,0,,,59,0
70720,note_on,16,0,4,,,,,,,,0,,,47,69
70752,note_on,192,0,1,,,,,,,,0,,,69,0
70776,note_on,0,0,2,,,,,,,,0,,,57,0
70776,note_on,0,0,2,,,,,,,,0,,,63,0
70776,note_on,96,0,2,,,,,,,,0,,,59,0
70784,note_on,64,0,4,,,,,,,,0,,,47,0
70796,set_tempo,2105,1,0,,,,,,791975,,,,,,
70800,note_on,48,0,1,,,,,,,,0,,,69,73
70800,note_on,0,0,4,,,,,,,,0,,,36,69
70800,control_change,16,0,4,,,,,,,,0,64,0,,
70835,control_change,35,0,4,,,,,,,,0,64,127,,
70844,set_tempo,48,1,0,,,,,,781759,,,,,,
70864,note_on,29,0,4,,,,,,,,0,,,36,0
70880,note_on,16,0,4,,,,,,,,0,,,48,69
70887,set_tempo,43,1,0,,,,,,771803,,,,,,
70920,note_on,0,0,2,,,,,,,,0,,,63,69
70920,note_on,144,0,2,,,,,,,,0,,,66,69
70931,set_tempo,44,1,0,,,,,,762098,,,,,,
70944,note_on,64,0,4,,,,,,,,0,,,48,0
70960,note_on,16,0,4,,,,,,,,0,,,57,69
70974,set_tempo,43,1,0,,,,,,752634,,,,,,
71016,note_on,0,0,2,,,,,,,,0,,,66,0
71016,note_on,96,0,2,,,,,,,,0,,,63,0
71018,set_tempo,44,1,0,,,,,,743402,,,,,,
71024,note_on,64,0,4,,,,,,,,0,,,57,0
71040,note_on,16,0,4,,,,,,,,0,,,56,69
71040,note_on,0,0,2,,,,,,,,0,,,66,69
71040,note_on,24,0,2,,,,,,,,0,,,63,69
71062,set_tempo,44,1,0,,,,,,734394,,,,,,
71104,note_on,64,0,4,,,,,,,,0,,,56,0
71105,set_tempo,43,1,0,,,,,,725602,,,,,,
71120,note_on,16,0,4,,,,,,,,0,,,55,69
71136,note_on,96,0,2,,,,,,,,0,,,66,0
71136,note_on,0,0,2,,,,,,,,0,,,63,0
71149,set_tempo,44,1,0,,,,,,717017,,,,,,
71160,note_on,0,0,2,,,,,,,,0,,,63,69
71160,note_on,24,0,2,,,,,,,,0,,,66,69
71184,note_on,64,0,4,,,,,,,,0,,,55,0
71197,set_tempo,48,1,0,,,,,,708634,,,,,,
71200,note_on,16,0,4,,,,,,,,0,,,54,69
71241,set_tempo,44,1,0,,,,,,700444,,,,,,
71256,note_on,0,0,2,,,,,,,,0,,,66,0
71256,note_on,96,0,2,,,,,,,,0,,,63,0
71264,note_on,64,0,4,,,,,,,,0,,,54,0
71275,control_change,11,0,4,,,,,,,,0,64,0,,
71280,note_on,5,0,4,,,,,,,,0,,,53,69
71284,set_tempo,43,1,0,,,,,,692441,,,,,,
71295,control_change,15,0,4,,,,,,,,0,64,127,,
71328,set_tempo,44,1,0,,,,,,684619,,,,,,
71344,note_on,49,0,4,,,,,,,,0,,,53,0
71360,note_on,16,0,4,,,,,,,,0,,,52,69
71372,set_tempo,44,1,0,,,,,,676972,,,,,,
71400,note_on,0,0,2,,,,,,,,0,,,66,69
71400,note_on,144,0,2,,,,,,,,0,,,63,69
71415,set_tempo,43,1,0,,,,,,669493,,,,,,
71424,note_on,64,0,4,,,,,,,,0,,,52,0
71440,note_on,16,0,4,,,,,,,,0,,,51,69
71459,set_tempo,44,1,0,,,,,,662179,,,,,,
71472,note_on,672,0,1,,,,,,,,0,,,69,0
71496,note_on,0,0,2,,,,,,,,0,,,63,0
71496,note_on,96,0,2,,,,,,,,0,,,66,0
71502,set_tempo,43,1,0,,,,,,655022,,,,,,
71504,note_on,64,0,4,,,,,,,,0,,,51,0
71520,set_tempo,18,1,0,,,,,,662179,,,,,,
71520,note_on,48,0,1,,,,,,,,0,,,68,73
71520,note_on,16,0,4,,,,,,,,0,,,48,69
71533,set_tempo,13,1,0,,,,,,669493,,,,,,
71550,set_tempo,17,1,0,,,,,,676972,,,,,,
71564,set_tempo,14,1,0,,,,,,684619,,,,,,
71577,set_tempo,13,1,0,,,,,,692441,,,,,,
71584,note_on,64,0,4,,,,,,,,0,,,48,0
71594,set_tempo,17,1,0,,,,,,700444,,,,,,
71600,note_on,16,0,4,,,,,,,,0,,,45,69
71607,set_tempo,13,1,0,,,,,,708634,,,,,,
71620,set_tempo,13,1,0,,,,,,717017,,,,,,
71638,set_tempo,18,1,0,,,,,,725602,,,,,,
71640,note_on,0,0,2,,,,,,,,0,,,56,69
71640,note_on,0,0,2,,,,,,,,0,,,66,69
71640,note_on,144,0,2,,,,,,,,0,,,63,69
71651,set_tempo,13,1,0,,,,,,734394,,,,,,
71664,note_on,64,0,4,,,,,,,,0,,,45,0
71664,set_tempo,13,1,0,,,,,,743402,,,,,,
71680,note_on,16,0,4,,,,,,,,0,,,44,69
71681,set_tempo,17,1,0,,,,,,752634,,,,,,
71694,set_tempo,13,1,0,,,,,,762098,,,,,,
71708,set_tempo,14,1,0,,,,,,771803,,,,,,
71712,note_on,192,0,1,,,,,,,,0,,,68,0
71725,set_tempo,17,1,0,,,,,,781759,,,,,,
71736,note_on,0,0,2,,,,,,,,0,,,66,0
71736,note_on,96,0,2,,,,,,,,0,,,56,0
71736,note_on,0,0,2,,,,,,,,0,,,63,0
71738,set_tempo,13,1,0,,,,,,791975,,,,,,
71744,note_on,64,0,4,,,,,,,,0,,,44,0
71751,set_tempo,13,1,0,,,,,,824289,,,,,,
71756,set_tempo,5,1,0,,,,,,802461,,,,,,
71760,note_on,16,0,4,,,,,,,,0,,,37,69
71760,note_on,48,0,1,,,,,,,,0,,,80,73
71775,control_change,15,0,4,,,,,,,,0,64,0,,
71800,control_change,25,0,4,,,,,,,,0,64,127,,
71808,set_tempo,52,1,0,,,,,,791975,,,,,,
71840,note_on,0,0,4,,,,,,,,0,,,53,69
71840,note_on,40,0,4,,,,,,,,0,,,37,0
71856,set_tempo,48,1,0,,,,,,781759,,,,,,
71880,note_on,0,0,2,,,,,,,,0,,,65,69
71880,note_on,144,0,2,,,,,,,,0,,,68,69
71880,note_on,0,0,2,,,,,,,,0,,,71,69
71904,note_on,64,0,4,,,,,,,,0,,,53,0
71904,set_tempo,48,1,0,,,,,,771803,,,,,,
71920,note_on,16,0,4,,,,,,,,0,,,62,69
71952,set_tempo,48,1,0,,,,,,762098,,,,,,
71976,note_on,0,0,2,,,,,,,,0,,,68,0
71976,note_on,0,0,2,,,,,,,,0,,,65,0
71976,note_on,96,0,2,,,,,,,,0,,,71,0
71984,note_on,64,0,4,,,,,,,,0,,,62,0
72000,note_on,0,0,2,,,,,,,,0,,,71,69
72000,note_on,0,0,2,,,,,,,,0,,,65,69
72000,note_on,24,0,2,,,,,,,,0,,,68,69
72000,note_on,16,0,4,,,,,,,,0,,,61,69
72000,set_tempo,48,1,0,,,,,,752634,,,,,,
72048,set_tempo,48,1,0,,,,,,743402,,,,,,
72064,note_on,64,0,4,,,,,,,,0,,,61,0
72080,note_on,16,0,4,,,,,,,,0,,,59,69
72096,note_on,0,0,2,,,,,,,,0,,,71,0
72096,set_tempo,48,1,0,,,,,,734394,,,,,,
72096,note_on,0,0,2,,,,,,,,0,,,68,0
72096,note_on,96,0,2,,,,,,,,0,,,65,0
72120,note_on,0,0,2,,,,,,,,0,,,71,69
72120,note_on,24,0,2,,,,,,,,0,,,68,69
72120,note_on,0,0,2,,,,,,,,0,,,65,69
72144,set_tempo,48,1,0,,,,,,725602,,,,,,
72144,note_on,384,0,1,,,,,,,,0,,,80,0
72144,note_on,64,0,4,,,,,,,,0,,,59,0
72160,note_on,16,0,4,,,,,,,,0,,,56,69
72192,set_tempo,48,1,0,,,,,,717017,,,,,,
72216,note_on,0,0,2,,,,,,,,0,,,68,0
72216,note_on,96,0,2,,,,,,,,0,,,71,0
72216,note_on,0,0,2,,,,,,,,0,,,65,0
72224,note_on,64,0,4,,,,,,,,0,,,56,0
72240,note_on,96,0,1,,,,,,,,0,,,74,73
72240,note_on,16,0,4,,,,,,,,0,,,42,69
72240,set_tempo,48,1,0,,,,,,708634,,,,,,
72247,control_change,7,0,4,,,,,,,,0,64,0,,
72270,control_change,23,0,4,,,,,,,,0,64,127,,
72288,set_tempo,48,1,0,,,,,,700444,,,,,,
72304,note_on,34,0,4,,,,,,,,0,,,42,0
72320,note_on,16,0,4,,,,,,,,0,,,52,69
72336,set_tempo,48,1,0,,,,,,692441,,,,,,
72360,note_on,144,0,2,,,,,,,,0,,,64,69
72360,note_on,0,0,2,,,,,,,,0,,,70,69
72360,note_on,0,0,2,,,,,,,,0,,,67,69
72384,note_on,64,0,4,,,,,,,,0,,,52,0
72384,set_tempo,48,1,0,,,,,,684619,,,,,,
72400,note_on,16,0,4,,,,,,,,0,,,62,69
72432,set_tempo,48,1,0,,,,,,676972,,,,,,
72456,note_on,96,0,2,,,,,,,,0,,,67,0
72456,note_on,0,0,2,,,,,,,,0,,,64,0
72456,note_on,0,0,2,,,,,,,,0,,,70,0
72464,note_on,64,0,4,,,,,,,,0,,,62,0
72480,note_on,16,0,4,,,,,,,,0,,,61,69
72480,note_on,24,0,2,,,,,,,,0,,,64,69
72480,note_on,0,0,2,,,,,,,,0,,,67,69
72480,set_tempo,48,1,0,,,,,,669493,,,,,,
72480,note_on,0,0,2,,,,,,,,0,,,70,69
72528,set_tempo,48,1,0,,,,,,662179,,,,,,
72528,note_on,288,0,1,,,,,,,,0,,,74,0
72544,note_on,64,0,4,,,,,,,,0,,,61,0
72560,note_on,16,0,4,,,,,,,,0,,,55,69
72576,note_on,0,0,2,,,,,,,,0,,,64,0
72576,note_on,0,0,2,,,,,,,,0,,,67,0
72576,note_on,96,0,2,,,,,,,,0,,,70,0
72600,note_on,72,0,1,,,,,,,,0,,,73,73
72600,note_on,24,0,2,,,,,,,,0,,,70,69
72600,note_on,0,0,2,,,,,,,,0,,,64,69
72600,note_on,0,0,2,,,,,,,,0,,,67,69
72624,note_on,64,0,4,,,,,,,,0,,,55,0
72640,note_on,16,0,4,,,,,,,,0,,,54,69
72696,note_on,0,0,2,,,,,,,,0,,,64,0
72696,note_on,0,0,2,,,,,,,,0,,,70,0
72696,note_on,96,0,1,,,,,,,,0,,,73,0
72696,note_on,96,0,2,,,,,,,,0,,,67,0
72704,note_on,64,0,4,,,,,,,,0,,,54,0
72720,note_on,0,0,4,,,,,,,,0,,,35,69
72720,control_change,16,0,4,,,,,,,,0,64,0,,
72720,note_on,24,0,1,,,,,,,,0,,,78,73
72738,control_change,18,0,4,,,,,,,,0,64,127,,
72784,note_on,46,0,4,,,,,,,,0,,,35,0
72800,note_on,16,0,4,,,,,,,,0,,,51,69
72840,note_on,0,0,2,,,,,,,,0,,,69,69
72840,note_on,144,0,2,,,,,,,,0,,,63,69
72840,note_on,0,0,2,,,,,,,,0,,,66,69
72864,note_on,64,0,4,,,,,,,,0,,,51,0
72880,note_on,16,0,4,,,,,,,,0,,,60,69
72936,note_on,0,0,2,,,,,,,,0,,,66,0
72936,note_on,0,0,2,,,,,,,,0,,,63,0
72936,note_on,96,0,2,,,,,,,,0,,,69,0
72944,note_on,64,0,4,,,,,,,,0,,,60,0
72960,note_on,0,0,2,,,,,,,,0,,,63,69
72960,note_on,0,0,2,,,,,,,,0,,,69,69
72960,note_on,24,0,2,,,,,,,,0,,,66,69
72960,note_on,16,0,4,,,,,,,,0,,,59,69
73024,note_on,64,0,4,,,,,,,,0,,,59,0
73040,note_on,16,0,4,,,,,,,,0,,,57,69
73056,note_on,96,0,2,,,,,,,,0,,,69,0
73056,note_on,0,0,2,,,,,,,,0,,,63,0
73056,note_on,0,0,2,,,,,,,,0,,,66,0
73080,note_on,0,0,2,,,,,,,,0,,,69,69
73080,note_on,0,0,2,,,,,,,,0,,,66,69
73080,note_on,24,0,2,,,,,,,,0,,,63,69
73104,note_on,64,0,4,,,,,,,,0,,,57,0
73104,note_on,384,0,1,,,,,,,,0,,,78,0
73120,note_on,16,0,4,,,,,,,,0,,,54,69
73176,note_on,0,0,2,,,,,,,,0,,,66,0
73176,note_on,0,0,2,,,,,,,,0,,,63,0
73176,note_on,96,0,2,,,,,,,,0,,,69,0
73184,note_on,64,0,4,,,,,,,,0,,,54,0
73200,control_change,0,0,4,,,,,,,,0,64,0,,
73200,note_on,96,0,1,,,,,,,,0,,,72,73
73200,note_on,16,0,4,,,,,,,,0,,,40,69
73215,control_change,15,0,4,,,,,,,,0,64,127,,
73264,note_on,49,0,4,,,,,,,,0,,,40,0
73280,note_on,16,0,4,,,,,,,,0,,,50,69
73320,note_on,0,0,2,,,,,,,,0,,,62,69
73320,note_on,0,0,2,,,,,,,,0,,,68,69
73320,note_on,144,0,2,,,,,,,,0,,,65,69
73344,note_on,64,0,4,,,,,,,,0,,,50,0
73360,note_on,16,0,4,,,,,,,,0,,,60,69
73416,note_on,96,0,2,,,,,,,,0,,,62,0
73416,note_on,0,0,2,,,,,,,,0,,,65,0
73416,note_on,0,0,2,,,,,,,,0,,,68,0
73424,note_on,64,0,4,,,,,,,,0,,,60,0
73440,note_on,0,0,2,,,,,,,,0,,,62,69
73440,note_on,0,0,2,,,,,,,,0,,,65,69
73440,note_on,24,0,2,,,,,,,,0,,,68,69
73440,note_on,16,0,4,,,,,,,,0,,,59,69
73488,note_on,288,0,1,,,,,,,,0,,,72,0
73504,note_on,64,0,4,,,,,,,,0,,,59,0
73520,note_on,16,0,4,,,,,,,,0,,,53,69
73536,note_on,0,0,2,,,,,,,,0,,,62,0
73536,note_on,0,0,2,,,,,,,,0,,,68,0
73536,note_on,96,0,2,,,,,,,,0,,,65,0
73560,note_on,72,0,1,,,,,,,,0,,,71,73
73560,note_on,0,0,2,,,,,,,,0,,,62,69
73560,note_on,24,0,2,,,,,,,,0,,,68,69
73560,note_on,0,0,2,,,,,,,,0,,,65,69
73584,note_on,64,0,4,,,,,,,,0,,,53,0
73600,note_on,16,0,4,,,,,,,,0,,,52,69
73656,note_on,96,0,2,,,,,,,,0,,,62,0
73656,note_on,96,0,1,,,,,,,,0,,,71,0
73656,note_on,0,0,2,,,,,,,,0,,,65,0
73656,note_on,0,0,2,,,,,,,,0,,,68,0
73664,note_on,64,0,4,,,,,,,,0,,,52,0
73680,note_on,24,0,1,,,,,,,,0,,,77,73
73680,note_on,16,0,4,,,,,,,,0,,,33,69
73695,control_change,15,0,4,,,,,,,,0,64,0,,
73713,control_change,18,0,4,,,,,,,,0,64,127,,
73744,note_on,31,0,4,,,,,,,,0,,,33,0
73760,note_on,16,0,4,,,,,,,,0,,,48,69
73800,note_on,0,0,2,,,,,,,,0,,,60,69
73800,note_on,0,0,2,,,,,,,,0,,,65,69
73800,note_on,144,0,2,,,,,,,,0,,,69,69
73824,note_on,64,0,4,,,,,,,,0,,,48,0
73840,note_on,16,0,4,,,,,,,,0,,,53,69
73872,note_on,192,0,1,,,,,,,,0,,,77,0
73896,note_on,0,0,2,,,,,,,,0,,,69,0
73896,note_on,0,0,2,,,,,,,,0,,,65,0
73896,note_on,96,0,2,,,,,,,,0,,,60,0
73904,note_on,64,0,4,,,,,,,,0,,,53,0
73920,note_on,0,0,2,,,,,,,,0,,,60,69
73920,note_on,16,0,4,,,,,,,,0,,,57,69
73920,note_on,48,0,1,,,,,,,,0,,,72,73
73920,note_on,24,0,2,,,,,,,,0,,,65,69
73920,note_on,0,0,2,,,,,,,,0,,,69,69
73984,note_on,64,0,4,,,,,,,,0,,,57,0
74000,note_on,16,0,4,,,,,,,,0,,,58,69
74016,note_on,0,0,2,,,,,,,,0,,,65,0
74016,note_on,96,0,2,,,,,,,,0,,,69,0
74016,note_on,0,0,2,,,,,,,,0,,,60,0
74040,note_on,0,0,2,,,,,,,,0,,,69,69
74040,note_on,24,0,2,,,,,,,,0,,,65,69
74064,note_on,64,0,4,,,,,,,,0,,,58,0
74080,note_on,16,0,4,,,,,,,,0,,,59,69
74136,note_on,0,0,2,,,,,,,,0,,,65,0
74136,note_on,96,0,2,,,,,,,,0,,,69,0
74144,note_on,64,0,4,,,,,,,,0,,,59,0
74160,note_on,16,0,4,,,,,,,,0,,,62,69
74160,note_on,0,0,2,,,,,,,,0,,,69,69
74160,note_on,24,0,2,,,,,,,,0,,,65,69
74167,control_change,7,0,4,,,,,,,,0,64,0,,
74190,control_change,23,0,4,,,,,,,,0,64,127,,
74208,note_on,288,0,1,,,,,,,,0,,,72,0
74224,note_on,34,0,4,,,,,,,,0,,,62,0
74240,note_on,16,0,4,,,,,,,,0,,,60,69
74256,note_on,96,0,2,,,,,,,,0,,,69,0
74256,note_on,0,0,2,,,,,,,,0,,,65,0
74280,note_on,24,0,2,,,,,,,,0,,,65,69
74280,note_on,0,0,2,,,,,,,,0,,,69,69
74280,note_on,72,0,1,,,,,,,,0,,,71,73
74304,note_on,64,0,4,,,,,,,,0,,,60,0
74320,note_on,16,0,4,,,,,,,,0,,,57,69
74376,note_on,96,0,2,,,,,,,,0,,,69,0
74376,note_on,0,0,2,,,,,,,,0,,,65,0
74376,note_on,96,0,1,,,,,,,,0,,,71,0
74384,note_on,64,0,4,,,,,,,,0,,,57,0
74400,note_on,16,0,4,,,,,,,,0,,,53,69
74400,note_on,0,0,2,,,,,,,,0,,,65,69
74400,note_on,24,0,2,,,,,,,,0,,,69,69
74400,note_on,24,0,1,,,,,,,,0,,,74,73
74464,note_on,64,0,4,,,,,,,,0,,,53,0
74480,note_on,16,0,4,,,,,,,,0,,,48,69
74496,note_on,96,0,1,,,,,,,,0,,,74,0
74496,note_on,0,0,2,,,,,,,,0,,,69,0
74496,note_on,96,0,2,,,,,,,,0,,,65,0
74520,note_on,24,0,2,,,,,,,,0,,,65,69
74520,note_on,24,0,1,,,,,,,,0,,,72,73
74520,note_on,0,0,2,,,,,,,,0,,,69,69
74544,note_on,64,0,4,,,,,,,,0,,,48,0
74560,note_on,16,0,4,,,,,,,,0,,,45,69
74616,note_on,96,0,1,,,,,,,,0,,,72,0
74616,note_on,0,0,2,,,,,,,,0,,,65,0
74616,note_on,96,0,2,,,,,,,,0,,,69,0
74624,note_on,64,0,4,,,,,,,,0,,,45,0
74638,set_tempo,2110,1,0,,,,,,662179,,,,,,
74640,control_change,16,0,4,,,,,,,,0,64,0,,
74640,note_on,0,0,1,,,,,,,,0,,,60,73
74640,note_on,0,0,4,,,,,,,,0,,,41,69
74640,note_on,24,0,1,,,,,,,,0,,,65,73
74640,note_on,0,0,1,,,,,,,,0,,,69,73
74673,control_change,33,0,4,,,,,,,,0,64,127,,
74681,set_tempo,43,1,0,,,,,,669493,,,,,,
74704,note_on,31,0,4,,,,,,,,0,,,41,0
74720,note_on,16,0,4,,,,,,,,0,,,36,69
74721,set_tempo,40,1,0,,,,,,676972,,,,,,
74736,note_on,96,0,1,,,,,,,,0,,,69,0
74736,note_on,0,0,1,,,,,,,,0,,,65,0
74736,note_on,0,0,1,,,,,,,,0,,,60,0
74760,note_on,0,0,1,,,,,,,,0,,,57,73
74760,note_on,24,0,1,,,,,,,,0,,,65,73
74760,note_on,0,0,1,,,,,,,,0,,,60,73
74764,set_tempo,43,1,0,,,,,,684619,,,,,,
74784,note_on,64,0,4,,,,,,,,0,,,36,0
74800,note_on,16,0,4,,,,,,,,0,,,33,69
74804,set_tempo,40,1,0,,,,,,692441,,,,,,
74847,set_tempo,43,1,0,,,,,,700444,,,,,,
74856,note_on,0,0,1,,,,,,,,0,,,65,0
74856,note_on,0,0,1,,,,,,,,0,,,57,0
74856,note_on,96,0,1,,,,,,,,0,,,60,0
74864,note_on,64,0,4,,,,,,,,0,,,33,0
74880,note_on,24,0,1,,,,,,,,0,,,60,73
74880,note_on,16,0,4,,,,,,,,0,,,36,69
74880,note_on,0,0,1,,,,,,,,0,,,57,73
74880,note_on,0,0,1,,,,,,,,0,,,53,73
74886,set_tempo,39,1,0,,,,,,708634,,,,,,
74930,set_tempo,44,1,0,,,,,,717017,,,,,,
74944,note_on,64,0,4,,,,,,,,0,,,36,0
74960,note_on,16,0,4,,,,,,,,0,,,41,69
74969,set_tempo,39,1,0,,,,,,725602,,,,,,
74976,note_on,96,0,1,,,,,,,,0,,,57,0
74976,note_on,0,0,1,,,,,,,,0,,,60,0
74976,note_on,0,0,1,,,,,,,,0,,,53,0
75000,note_on,24,0,1,,,,,,,,0,,,57,73
75000,note_on,0,0,1,,,,,,,,0,,,65,73
75000,note_on,0,0,1,,,,,,,,0,,,60,73
75013,set_tempo,44,1,0,,,,,,734394,,,,,,
75024,note_on,64,0,4,,,,,,,,0,,,41,0
75040,note_on,16,0,4,,,,,,,,0,,,45,69
75052,set_tempo,39,1,0,,,,,,743402,,,,,,
75096,note_on,96,0,1,,,,,,,,0,,,65,0
75096,set_tempo,44,1,0,,,,,,752634,,,,,,
75096,note_on,0,0,1,,,,,,,,0,,,57,0
75096,note_on,0,0,1,,,,,,,,0,,,60,0
75104,note_on,64,0,4,,,,,,,,0,,,45,0
75120,note_on,24,0,1,,,,,,,,0,,,65,73
75120,note_on,0,0,1,,,,,,,,0,,,60,73
75120,note_on,16,0,4,,,,,,,,0,,,48,69
75120,note_on,0,0,1,,,,,,,,0,,,69,73
75127,control_change,7,0,4,,,,,,,,0,64,0,,
75135,set_tempo,39,1,0,,,,,,762098,,,,,,
75153,control_change,26,0,4,,,,,,,,0,64,127,,
75179,set_tempo,44,1,0,,,,,,771803,,,,,,
75184,note_on,31,0,4,,,,,,,,0,,,48,0
75200,note_on,16,0,4,,,,,,,,0,,,53,69
75216,note_on,0,0,1,,,,,,,,0,,,60,0
75216,note_on,0,0,1,,,,,,,,0,,,65,0
75216,note_on,96,0,1,,,,,,,,0,,,69,0
75218,set_tempo,39,1,0,,,,,,781759,,,,,,
75240,note_on,0,0,1,,,,,,,,0,,,69,73
75240,note_on,0,0,1,,,,,,,,0,,,71,73
75240,note_on,24,0,1,,,,,,,,0,,,65,73
75262,set_tempo,44,1,0,,,,,,791975,,,,,,
75264,note_on,64,0,4,,,,,,,,0,,,53,0
75280,note_on,16,0,4,,,,,,,,0,,,57,69
75301,set_tempo,39,1,0,,,,,,802461,,,,,,
75336,note_on,96,0,1,,,,,,,,0,,,69,0
75336,note_on,0,0,1,,,,,,,,0,,,65,0
75336,note_on,0,0,1,,,,,,,,0,,,71,0
75344,note_on,64,0,4,,,,,,,,0,,,57,0
75345,set_tempo,44,1,0,,,,,,813229,,,,,,
75360,note_on,0,0,1,,,,,,,,0,,,65,73
75360,note_on,24,0,1,,,,,,,,0,,,69,73
75360,note_on,0,0,1,,,,,,,,0,,,74,73
75360,note_on,16,0,4,,,,,,,,0,,,59,69
75384,set_tempo,39,1,0,,,,,,824289,,,,,,
75424,note_on,64,0,4,,,,,,,,0,,,59,0
75428,set_tempo,44,1,0,,,,,,835655,,,,,,
75440,note_on,16,0,4,,,,,,,,0,,,62,69
75456,note_on,96,0,1,,,,,,,,0,,,74,0
75456,note_on,0,0,1,,,,,,,,0,,,69,0
75456,note_on,0,0,1,,,,,,,,0,,,65,0
75467,set_tempo,39,1,0,,,,,,847338,,,,,,
75480,note_on,24,0,1,,,,,,,,0,,,65,73
75480,note_on,0,0,1,,,,,,,,0,,,72,73
75480,note_on,0,0,1,,,,,,,,0,,,69,73
75504,note_on,64,0,4,,,,,,,,0,,,62,0
75510,set_tempo,43,1,0,,,,,,859353,,,,,,
75520,note_on,16,0,4,,,,,,,,0,,,60,69
75550,set_tempo,40,1,0,,,,,,871713,,,,,,
75576,note_on,96,0,1,,,,,,,,0,,,69,0
75576,note_on,0,0,1,,,,,,,,0,,,72,0
75576,note_on,0,0,1,,,,,,,,0,,,65,0
75584,note_on,64,0,4,,,,,,,,0,,,60,0
75589,set_tempo,39,1,0,,,,,,884434,,,,,,
75598,set_tempo,9,1,0,,,,,,884434,,,,,,
75600,control_change,16,0,4,,,,,,,,0,64,0,,
75600,note_on,0,0,4,,,,,,,,0,,,47,69
75600,note_on,0,0,1,,,,,,,,0,,,72,73
75600,note_on,0,0,1,,,,,,,,0,,,68,73
75600,note_on,24,0,1,,,,,,,,0,,,64,73
75620,control_change,20,0,4,,,,,,,,0,64,127,,
75624,set_tempo,26,1,0,,,,,,871713,,,,,,
75646,set_tempo,22,1,0,,,,,,859353,,,,,,
75664,note_on,44,0,4,,,,,,,,0,,,47,0
75672,set_tempo,26,1,0,,,,,,847338,,,,,,
75680,note_on,16,0,4,,,,,,,,0,,,56,69
75694,set_tempo,22,1,0,,,,,,835655,,,,,,
75696,note_on,0,0,1,,,,,,,,0,,,64,0
75696,note_on,0,0,1,,,,,,,,0,,,68,0
75696,note_on,96,0,1,,,,,,,,0,,,72,0
75716,set_tempo,22,1,0,,,,,,824289,,,,,,
75742,set_tempo,26,1,0,,,,,,813229,,,,,,
75744,note_on,64,0,4,,,,,,,,0,,,56,0
75760,note_on,16,0,4,,,,,,,,0,,,57,69
75764,set_tempo,22,1,0,,,,,,802461,,,,,,
75780,note_on,84,0,1,,,,,,,,0,,,64,73
75790,set_tempo,26,1,0,,,,,,791975,,,,,,
75804,note_on,24,0,1,,,,,,,,0,,,64,0
75810,note_on,6,0,1,,,,,,,,0,,,64,73
75812,set_tempo,22,1,0,,,,,,781759,,,,,,
75824,note_on,64,0,4,,,,,,,,0,,,57,0
75833,set_tempo,21,1,0,,,,,,771803,,,,,,
75840,note_on,30,0,1,,,,,,,,0,,,68,73
75840,note_on,16,0,4,,,,,,,,0,,,58,69
75860,set_tempo,27,1,0,,,,,,762098,,,,,,
75881,set_tempo,21,1,0,,,,,,752634,,,,,,
75904,note_on,64,0,4,,,,,,,,0,,,58,0
75908,set_tempo,27,1,0,,,,,,743402,,,,,,
75920,note_on,16,0,4,,,,,,,,0,,,60,69
75929,set_tempo,21,1,0,,,,,,734394,,,,,,
75951,set_tempo,22,1,0,,,,,,725602,,,,,,
75977,set_tempo,26,1,0,,,,,,717017,,,,,,
75984,note_on,64,0,4,,,,,,,,0,,,60,0
75999,set_tempo,22,1,0,,,,,,708634,,,,,,
76000,note_on,16,0,4,,,,,,,,0,,,59,69
76025,set_tempo,26,1,0,,,,,,700444,,,,,,
76032,note_on,0,0,1,,,,,,,,0,,,64,0
76032,note_on,192,0,1,,,,,,,,0,,,68,0
76047,set_tempo,22,1,0,,,,,,692441,,,,,,
76064,note_on,64,0,4,,,,,,,,0,,,59,0
76069,set_tempo,22,1,0,,,,,,684619,,,,,,
76078,set_tempo,9,1,0,,,,,,596956,,,,,,
76080,note_on,0,0,4,,,,,,,,0,,,35,69
76080,note_on,1464,0,2,,,,,,,,0,,,59,69
76080,control_change,16,0,4,,,,,,,,0,64,0,,
76080,note_on,0,0,2,,,,,,,,0,,,57,69
76080,note_on,0,0,2,,,,,,,,0,,,63,69
76086,set_tempo,8,1,0,,,,,,602894,,,,,,
76095,set_tempo,9,1,0,,,,,,608952,,,,,,
76103,control_change,23,0,4,,,,,,,,0,64,127,,
76104,set_tempo,9,1,0,,,,,,615132,,,,,,
76113,set_tempo,9,1,0,,,,,,621440,,,,,,
76121,set_tempo,8,1,0,,,,,,627878,,,,,,
76130,set_tempo,9,1,0,,,,,,634451,,,,,,
76139,set_tempo,9,1,0,,,,,,641163,,,,,,
76144,note_on,41,0,4,,,,,,,,0,,,35,0
76148,set_tempo,9,1,0,,,,,,648018,,,,,,
76156,set_tempo,8,1,0,,,,,,655022,,,,,,
76160,note_on,16,0,4,,,,,,,,0,,,44,69
76165,set_tempo,9,1,0,,,,,,662179,,,,,,
76169,set_tempo,4,1,0,,,,,,669493,,,,,,
76178,set_tempo,9,1,0,,,,,,676972,,,,,,
76187,set_tempo,9,1,0,,,,,,684619,,,,,,
76196,set_tempo,9,1,0,,,,,,692441,,,,,,
76200,note_on,168,0,1,,,,,,,,0,,,66,73
76204,set_tempo,8,1,0,,,,,,700444,,,,,,
76213,set_tempo,9,1,0,,,,,,708634,,,,,,
76222,set_tempo,9,1,0,,,,,,717017,,,,,,
76224,note_on,64,0,4,,,,,,,,0,,,44,0
76230,set_tempo,8,1,0,,,,,,725602,,,,,,
76239,set_tempo,9,1,0,,,,,,734394,,,,,,
76240,note_on,16,0,4,,,,,,,,0,,,45,69
76248,set_tempo,9,1,0,,,,,,743402,,,,,,
76257,set_tempo,9,1,0,,,,,,752634,,,,,,
76261,set_tempo,4,1,0,,,,,,762098,,,,,,
76270,set_tempo,9,1,0,,,,,,771803,,,,,,
76272,note_on,0,0,2,,,,,,,,0,,,59,0
76272,note_on,192,0,2,,,,,,,,0,,,57,0
76272,note_on,0,0,2,,,,,,,,0,,,63,0
76278,set_tempo,8,1,0,,,,,,781759,,,,,,
76287,set_tempo,9,1,0,,,,,,791975,,,,,,
76296,set_tempo,9,1,0,,,,,,802461,,,,,,
76296,note_on,96,0,1,,,,,,,,0,,,66,0
76304,note_on,64,0,4,,,,,,,,0,,,45,0
76305,set_tempo,9,1,0,,,,,,813229,,,,,,
76313,set_tempo,8,1,0,,,,,,824289,,,,,,
76320,note_on,0,0,2,,,,,,,,0,,,59,69
76320,note_on,0,0,2,,,,,,,,0,,,57,69
76320,note_on,16,0,4,,,,,,,,0,,,46,69
76320,note_on,48,0,2,,,,,,,,0,,,63,69
76320,note_on,24,0,1,,,,,,,,0,,,69,73
76322,set_tempo,9,1,0,,,,,,835655,,,,,,
76331,set_tempo,9,1,0,,,,,,847338,,,,,,
76340,set_tempo,9,1,0,,,,,,859353,,,,,,
76348,set_tempo,8,1,0,,,,,,871713,,,,,,
76353,set_tempo,5,1,0,,,,,,884434,,,,,,
76361,set_tempo,8,1,0,,,,,,897532,,,,,,
76370,set_tempo,9,1,0,,,,,,911023,,,,,,
76379,set_tempo,9,1,0,,,,,,924927,,,,,,
76384,note_on,64,0,4,,,,,,,,0,,,46,0
76388,set_tempo,9,1,0,,,,,,939261,,,,,,
76396,set_tempo,8,1,0,,,,,,954047,,,,,,
76400,note_on,16,0,4,,,,,,,,0,,,48,69
76405,set_tempo,9,1,0,,,,,,969305,,,,,,
76414,set_tempo,9,1,0,,,,,,985060,,,,,,
76422,set_tempo,8,1,0,,,,,,1001335,,,,,,
76431,set_tempo,9,1,0,,,,,,1018157,,,,,,
76436,set_tempo,5,1,0,,,,,,1035554,,,,,,
76464,note_on,144,0,1,,,,,,,,0,,,69,0
76464,note_on,144,0,2,,,,,,,,0,,,57,0
76464,note_on,64,0,4,,,,,,,,0,,,48,0
76464,note_on,0,0,2,,,,,,,,0,,,63,0
76464,note_on,0,0,2,,,,,,,,0,,,59,0
76480,note_on,16,0,4,,,,,,,,0,,,47,69
76500,note_on,36,0,1,,,,,,,,0,,,68,73
76500,note_on,36,0,2,,,,,,,,0,,,57,69
76500,note_on,0,0,2,,,,,,,,0,,,63,69
76500,note_on,0,0,2,,,,,,,,0,,,59,69
76544,note_on,64,0,4,,,,,,,,0,,,47,0
76548,note_on,48,0,2,,,,,,,,0,,,63,0
76548,note_on,0,0,2,,,,,,,,0,,,57,0
76548,note_on,0,0,2,,,,,,,,0,,,59,0
76548,note_on,48,0,1,,,,,,,,0,,,68,0
76549,set_tempo,113,1,0,,,,,,897532,,,,,,
76558,set_tempo,9,1,0,,,,,,662179,,,,,,
76560,note_on,0,0,1,,,,,,,,0,,,56,80
76560,control_change,0,0,4,,,,,,,,0,64,0,,
76560,note_on,16,0,4,,,,,,,,0,,,40,80
76560,note_on,12,0,1,,,,,,,,0,,,64,80
76608,note_on,48,0,4,,,,,,,,0,,,40,0
76608,control_change,0,0,4,,,,,,,,0,64,127,,
76610,set_tempo,52,1,0,,,,,,655022,,,,,,
76620,note_on,12,0,4,,,,,,,,0,,,47,64
76656,note_on,96,0,1,,,,,,,,0,,,56,0
76656,note_on,0,0,1,,,,,,,,0,,,64,0
76658,set_tempo,48,1,0,,,,,,648018,,,,,,
76668,note_on,48,0,4,,,,,,,,0,,,47,0
76680,note_on,24,0,1,,,,,,,,0,,,68,80
76680,note_on,12,0,4,,,,,,,,0,,,52,64
76680,note_on,0,0,1,,,,,,,,0,,,80,80
76680,note_on,0,0,1,,,,,,,,0,,,76,80
76680,note_on,0,0,1,,,,,,,,0,,,71,80
76710,set_tempo,52,1,0,,,,,,641163,,,,,,
76728,note_on,48,0,4,,,,,,,,0,,,52,0
76740,note_on,12,0,4,,,,,,,,0,,,59,80
76758,set_tempo,48,1,0,,,,,,634451,,,,,,
76776,note_on,0,0,1,,,,,,,,0,,,80,0
76776,note_on,0,0,1,,,,,,,,0,,,68,0
76776,note_on,0,0,1,,,,,,,,0,,,76,0
76776,note_on,96,0,1,,,,,,,,0,,,71,0
76788,note_on,48,0,4,,,,,,,,0,,,59,0
76800,note_on,24,0,1,,,,,,,,0,,,71,80
76800,note_on,0,0,1,,,,,,,,0,,,64,80
76800,note_on,0,0,1,,,,,,,,0,,,68,80
76800,note_on,0,0,1,,,,,,,,0,,,76,80
76800,note_on,12,0,4,,,,,,,,0,,,59,80
76811,set_tempo,53,1,0,,,,,,627878,,,,,,
76848,note_on,48,0,4,,,,,,,,0,,,59,0
76859,set_tempo,48,1,0,,,,,,621440,,,,,,
76860,note_on,12,0,4,,,,,,,,0,,,52,64
76896,note_on,0,0,1,,,,,,,,0,,,71,0
76896,note_on,0,0,1,,,,,,,,0,,,68,0
76896,note_on,0,0,1,,,,,,,,0,,,64,0
76896,note_on,96,0,1,,,,,,,,0,,,76,0
76908,note_on,48,0,4,,,,,,,,0,,,52,0
76911,set_tempo,52,1,0,,,,,,615132,,,,,,
76920,note_on,0,0,1,,,,,,,,0,,,71,80
76920,note_on,0,0,1,,,,,,,,0,,,76,80
76920,note_on,12,0,4,,,,,,,,0,,,47,64
76920,note_on,24,0,1,,,,,,,,0,,,68,80
76920,note_on,0,0,1,,,,,,,,0,,,80,80
76959,set_tempo,48,1,0,,,,,,608952,,,,,,
76968,note_on,48,0,4,,,,,,,,0,,,47,0
76980,note_on,12,0,4,,,,,,,,0,,,40,80
77012,set_tempo,53,1,0,,,,,,602894,,,,,,
77016,note_on,0,0,1,,,,,,,,0,,,80,0
77016,note_on,0,0,1,,,,,,,,0,,,76,0
77016,note_on,0,0,1,,,,,,,,0,,,68,0
77016,note_on,96,0,1,,,,,,,,0,,,71,0
77022,control_change,42,0,4,,,,,,,,0,64,0,,
77028,note_on,6,0,4,,,,,,,,0,,,40,0
77040,note_on,12,0,4,,,,,,,,0,,,40,80
77040,note_on,24,0,1,,,,,,,,0,,,76,80
77040,note_on,0,0,1,,,,,,,,0,,,83,80
77040,note_on,0,0,1,,,,,,,,0,,,80,80
77040,note_on,0,0,1,,,,,,,,0,,,71,80
77046,control_change,6,0,4,,,,,,,,0,64,127,,
77060,set_tempo,48,1,0,,,,,,596956,,,,,,
77088,note_on,42,0,4,,,,,,,,0,,,40,0
77100,note_on,12,0,4,,,,,,,,0,,,47,64
77112,set_tempo,52,1,0,,,,,,591133,,,,,,
77136,note_on,96,0,1,,,,,,,,0,,,71,0
77136,note_on,0,0,1,,,,,,,,0,,,80,0
77136,note_on,0,0,1,,,,,,,,0,,,76,0
77136,note_on,0,0,1,,,,,,,,0,,,83,0
77148,note_on,48,0,4,,,,,,,,0,,,47,0
77160,set_tempo,48,1,0,,,,,,585423,,,,,,
77160,note_on,12,0,4,,,,,,,,0,,,52,64
77160,note_on,24,0,1,,,,,,,,0,,,76,80
77160,note_on,0,0,1,,,,,,,,0,,,85,80
77160,note_on,0,0,1,,,,,,,,0,,,80,80
77160,note_on,0,0,1,,,,,,,,0,,,73,80
77208,note_on,48,0,4,,,,,,,,0,,,52,0
77212,set_tempo,52,1,0,,,,,,579822,,,,,,
77220,note_on,12,0,4,,,,,,,,0,,,59,80
77256,note_on,0,0,1,,,,,,,,0,,,76,0
77256,note_on,0,0,1,,,,,,,,0,,,85,0
77256,note_on,96,0,1,,,,,,,,0,,,73,0
77256,note_on,0,0,1,,,,,,,,0,,,80,0
77260,set_tempo,48,1,0,,,,,,574328,,,,,,
77268,note_on,48,0,4,,,,,,,,0,,,59,0
77269,set_tempo,9,1,0,,,,,,574328,,,,,,
77280,note_on,0,0,1,,,,,,,,0,,,80,80
77280,note_on,0,0,1,,,,,,,,0,,,83,80
77280,note_on,0,0,1,,,,,,,,0,,,76,80
77280,note_on,24,0,1,,,,,,,,0,,,71,80
77280,note_on,12,0,4,,,,,,,,0,,,59,80
77328,note_on,48,0,4,,,,,,,,0,,,59,0
77340,note_on,12,0,4,,,,,,,,0,,,52,64
77376,note_on,0,0,1,,,,,,,,0,,,71,0
77376,note_on,0,0,1,,,,,,,,0,,,76,0
77376,note_on,0,0,1,,,,,,,,0,,,80,0
77376,note_on,96,0,1,,,,,,,,0,,,83,0
77388,note_on,48,0,4,,,,,,,,0,,,52,0
77400,note_on,12,0,4,,,,,,,,0,,,47,64
77400,note_on,0,0,1,,,,,,,,0,,,80,80
77400,note_on,0,0,1,,,,,,,,0,,,71,80
77400,note_on,0,0,1,,,,,,,,0,,,76,80
77400,note_on,24,0,1,,,,,,,,0,,,68,80
77448,note_on,48,0,4,,,,,,,,0,,,47,0
77460,note_on,12,0,4,,,,,,,,0,,,40,80
77496,note_on,96,0,1,,,,,,,,0,,,76,0
77496,note_on,0,0,1,,,,,,,,0,,,68,0
77496,note_on,0,0,1,,,,,,,,0,,,71,0
77496,note_on,0,0,1,,,,,,,,0,,,80,0
77508,note_on,48,0,4,,,,,,,,0,,,40,0
77520,note_on,24,0,1,,,,,,,,0,,,71,80
77520,note_on,12,0,4,,,,,,,,0,,,40,80
77520,note_on,0,0,1,,,,,,,,0,,,76,80
77520,note_on,0,0,1,,,,,,,,0,,,64,80
77520,note_on,0,0,1,,,,,,,,0,,,68,80
77526,control_change,6,0,4,,,,,,,,0,64,0,,
77550,control_change,24,0,4,,,,,,,,0,64,127,,
77568,note_on,18,0,4,,,,,,,,0,,,40,0
77580,note_on,12,0,4,,,,,,,,0,,,47,64
77616,note_on,0,0,1,,,,,,,,0,,,68,0
77616,note_on,0,0,1,,,,,,,,0,,,71,0
77616,note_on,0,0,1,,,,,,,,0,,,76,0
77616,note_on,96,0,1,,,,,,,,0,,,64,0
77628,note_on,48,0,4,,,,,,,,0,,,47,0
77640,note_on,12,0,4,,,,,,,,0,,,52,64
77640,note_on,24,0,1,,,,,,,,0,,,71,80
77640,note_on,0,0,1,,,,,,,,0,,,68,80
77640,note_on,0,0,1,,,,,,,,0,,,76,80
77640,note_on,0,0,1,,,,,,,,0,,,80,80
77688,note_on,48,0,4,,,,,,,,0,,,52,0
77700,note_on,12,0,4,,,,,,,,0,,,59,80
77736,note_on,0,0,1,,,,,,,,0,,,80,0
77736,note_on,0,0,1,,,,,,,,0,,,71,0
77736,note_on,0,0,1,,,,,,,,0,,,76,0
77736,note_on,96,0,1,,,,,,,,0,,,68,0
77748,note_on,48,0,4,,,,,,,,0,,,59,0
77760,note_on,24,0,1,,,,,,,,0,,,76,80
77760,note_on,12,0,4,,,,,,,,0,,,59,80
77760,note_on,0,0,1,,,,,,,,0,,,71,80
77760,note_on,0,0,1,,,,,,,,0,,,83,80
77760,note_on,0,0,1,,,,,,,,0,,,80,80
77808,note_on,48,0,4,,,,,,,,0,,,59,0
77820,note_on,12,0,4,,,,,,,,0,,,52,64
77856,note_on,96,0,1,,,,,,,,0,,,83,0
77856,note_on,0,0,1,,,,,,,,0,,,80,0
77856,note_on,0,0,1,,,,,,,,0,,,76,0
77856,note_on,0,0,1,,,,,,,,0,,,71,0
77868,note_on,48,0,4,,,,,,,,0,,,52,0
77880,note_on,12,0,4,,,,,,,,0,,,47,64
77880,note_on,0,0,1,,,,,,,,0,,,85,80
77880,note_on,0,0,1,,,,,,,,0,,,73,80
77880,note_on,24,0,1,,,,,,,,0,,,80,80
77880,note_on,0,0,1,,,,,,,,0,,,76,80
77928,note_on,48,0,4,,,,,,,,0,,,47,0
77940,note_on,12,0,4,,,,,,,,0,,,40,80
77952,control_change,12,0,4,,,,,,,,0,64,0,,
77976,note_on,0,0,1,,,,,,,,0,,,80,0
77976,note_on,0,0,1,,,,,,,,0,,,73,0
77976,note_on,0,0,1,,,,,,,,0,,,76,0
77976,note_on,96,0,1,,,,,,,,0,,,85,0
77988,note_on,36,0,4,,,,,,,,0,,,40,0
78000,note_on,12,0,4,,,,,,,,0,,,40,80
78000,control_change,0,0,4,,,,,,,,0,64,127,,
78000,note_on,0,0,1,,,,,,,,0,,,76,80
78000,note_on,24,0,1,,,,,,,,0,,,88,80
78000,note_on,0,0,1,,,,,,,,0,,,80,80
78000,note_on,0,0,1,,,,,,,,0,,,83,80
78048,note_on,48,0,4,,,,,,,,0,,,40,0
78060,note_on,12,0,4,,,,,,,,0,,,47,64
78096,note_on,96,0,1,,,,,,,,0,,,83,0
78096,note_on,0,0,1,,,,,,,,0,,,88,0
78096,note_on,0,0,1,,,,,,,,0,,,80,0
78096,note_on,0,0,1,,,,,,,,0,,,76,0
78108,note_on,48,0,4,,,,,,,,0,,,47,0
78120,note_on,0,0,1,,,,,,,,0,,,80,80
78120,note_on,0,0,1,,,,,,,,0,,,83,80
78120,note_on,0,0,1,,,,,,,,0,,,92,80
78120,note_on,12,0,4,,,,,,,,0,,,52,64
78120,note_on,24,0,1,,,,,,,,0,,,88,80
78168,note_on,48,0,4,,,,,,,,0,,,52,0
78180,note_on,12,0,4,,,,,,,,0,,,59,80
78216,note_on,0,0,1,,,,,,,,0,,,88,0
78216,note_on,0,0,1,,,,,,,,0,,,83,0
78216,note_on,0,0,1,,,,,,,,0,,,80,0
78216,note_on,96,0,1,,,,,,,,0,,,92,0
78228,note_on,48,0,4,,,,,,,,0,,,59,0
78240,note_on,0,0,1,,,,,,,,0,,,95,80
78240,note_on,12,0,4,,,,,,,,0,,,59,80
78240,note_on,0,0,1,,,,,,,,0,,,92,80
78240,note_on,24,0,1,,,,,,,,0,,,83,80
78240,note_on,0,0,1,,,,,,,,0,,,88,80
78288,note_on,48,0,4,,,,,,,,0,,,59,0
78300,note_on,12,0,4,,,,,,,,0,,,52,64
78336,note_on,96,0,1,,,,,,,,0,,,92,0
78336,note_on,0,0,1,,,,,,,,0,,,83,0
78336,note_on,0,0,1,,,,,,,,0,,,88,0
78336,note_on,0,0,1,,,,,,,,0,,,95,0
78348,note_on,48,0,4,,,,,,,,0,,,52,0
78360,note_on,24,0,1,,,,,,,,0,,,97,80
78360,note_on,0,0,1,,,,,,,,0,,,92,80
78360,note_on,0,0,1,,,,,,,,0,,,88,80
78360,note_on,0,0,1,,,,,,,,0,,,85,80
78360,note_on,12,0,4,,,,,,,,0,,,47,64
78408,note_on,48,0,4,,,,,,,,0,,,47,0
78420,note_on,12,0,4,,,,,,,,0,,,40,80
78456,note_on,96,0,1,,,,,,,,0,,,92,0
78456,note_on,0,0,1,,,,,,,,0,,,97,0
78456,note_on,0,0,1,,,,,,,,0,,,88,0
78456,note_on,0,0,1,,,,,,,,0,,,85,0
78468,note_on,48,0,4,,,,,,,,0,,,40,0
78480,note_on,24,0,1,,,,,,,,0,,,95,80
78480,note_on,0,0,4,,,,,,,,0,,,35,80
78480,control_change,12,0,4,,,,,,,,0,64,0,,
78480,note_on,0,0,1,,,,,,,,0,,,99,80
78480,note_on,0,0,1,,,,,,,,0,,,90,80
78480,note_on,0,0,1,,,,,,,,0,,,87,80
78507,control_change,27,0,4,,,,,,,,0,64,127,,
78528,note_on,21,0,4,,,,,,,,0,,,35,0
78540,note_on,12,0,4,,,,,,,,0,,,42,68
78588,note_on,48,0,4,,,,,,,,0,,,42,0
78600,note_on,12,0,4,,,,,,,,0,,,47,68
78648,note_on,48,0,4,,,,,,,,0,,,47,0
78660,note_on,12,0,4,,,,,,,,0,,,54,84
78708,note_on,48,0,4,,,,,,,,0,,,54,0
78720,note_on,12,0,4,,,,,,,,0,,,54,84
78768,note_on,48,0,4,,,,,,,,0,,,54,0
78780,note_on,12,0,4,,,,,,,,0,,,47,68
78828,note_on,48,0,4,,,,,,,,0,,,47,0
78840,note_on,12,0,4,,,,,,,,0,,,42,68
78864,note_on,0,0,1,,,,,,,,0,,,90,0
78864,note_on,0,0,1,,,,,,,,0,,,99,0
78864,note_on,384,0,1,,,,,,,,0,,,87,0
78864,note_on,0,0,1,,,,,,,,0,,,95,0
78888,note_on,48,0,4,,,,,,,,0,,,42,0
78900,note_on,12,0,4,,,,,,,,0,,,35,68
78927,control_change,27,0,4,,,,,,,,0,64,0,,
78948,note_on,21,0,4,,,,,,,,0,,,35,0
78960,note_on,0,0,1,,,,,,,,0,,,83,80
78960,note_on,0,0,1,,,,,,,,0,,,87,80
78960,note_on,0,0,1,,,,,,,,0,,,90,80
78960,note_on,0,0,4,,,,,,,,0,,,35,80
78960,control_change,12,0,4,,,,,,,,0,64,127,,
78960,note_on,96,0,1,,,,,,,,0,,,95,80
79008,note_on,48,0,4,,,,,,,,0,,,35,0
79020,note_on,12,0,4,,,,,,,,0,,,42,68
79068,note_on,48,0,4,,,,,,,,0,,,42,0
79080,note_on,12,0,4,,,,,,,,0,,,47,68
79128,note_on,48,0,4,,,,,,,,0,,,47,0
79140,note_on,12,0,4,,,,,,,,0,,,54,84
79152,note_on,192,0,1,,,,,,,,0,,,83,0
79152,note_on,0,0,1,,,,,,,,0,,,95,0
79152,note_on,0,0,1,,,,,,,,0,,,90,0
79152,note_on,0,0,1,,,,,,,,0,,,87,0
79188,note_on,48,0,4,,,,,,,,0,,,54,0
79200,note_on,12,0,4,,,,,,,,0,,,54,84
79248,note_on,48,0,4,,,,,,,,0,,,54,0
79260,note_on,12,0,4,,,,,,,,0,,,47,68
79308,note_on,48,0,4,,,,,,,,0,,,47,0
79320,note_on,12,0,4,,,,,,,,0,,,42,68
79368,note_on,48,0,4,,,,,,,,0,,,42,0
79380,note_on,0,0,1,,,,,,,,0,,,71,80
79380,note_on,0,0,1,,,,,,,,0,,,66,80
79380,note_on,12,0,4,,,,,,,,0,,,35,80
79380,note_on,228,0,1,,,,,,,,0,,,63,80
79380,note_on,0,0,1,,,,,,,,0,,,75,80
79428,note_on,48,0,4,,,,,,,,0,,,35,0
79428,note_on,48,0,1,,,,,,,,0,,,75,0
79428,note_on,0,0,1,,,,,,,,0,,,71,0
79428,note_on,0,0,1,,,,,,,,0,,,66,0
79428,note_on,0,0,1,,,,,,,,0,,,63,0
79440,note_on,12,0,1,,,,,,,,0,,,63,80
79440,control_change,0,0,4,,,,,,,,0,64,0,,
79440,note_on,0,0,1,,,,,,,,0,,,71,80
79440,note_on,0,0,1,,,,,,,,0,,,66,80
79440,note_on,0,0,1,,,,,,,,0,,,75,80
79440,note_on,12,0,4,,,,,,,,0,,,35,80
79480,control_change,40,0,4,,,,,,,,0,64,127,,
79488,note_on,8,0,4,,,,,,,,0,,,35,0
79500,note_on,12,0,4,,,,,,,,0,,,42,68
79548,note_on,48,0,4,,,,,,,,0,,,42,0
79560,note_on,12,0,4,,,,,,,,0,,,47,68
79608,note_on,48,0,4,,,,,,,,0,,,47,0
79620,note_on,12,0,4,,,,,,,,0,,,54,88
79668,note_on,48,0,4,,,,,,,,0,,,54,0
79680,note_on,12,0,4,,,,,,,,0,,,54,88
79728,note_on,48,0,4,,,,,,,,0,,,54,0
79740,note_on,12,0,4,,,,,,,,0,,,47,68
79788,note_on,48,0,4,,,,,,,,0,,,47,0
79800,note_on,12,0,4,,,,,,,,0,,,42,68
79824,note_on,0,0,1,,,,,,,,0,,,63,0
79824,note_on,0,0,1,,,,,,,,0,,,75,0
79824,note_on,384,0,1,,,,,,,,0,,,66,0
79824,note_on,0,0,1,,,,,,,,0,,,71,0
79848,note_on,48,0,4,,,,,,,,0,,,42,0
79860,note_on,12,0,4,,,,,,,,0,,,35,68
79908,note_on,48,0,4,,,,,,,,0,,,35,0
79913,control_change,5,0,4,,,,,,,,0,64,0,,
79920,note_on,0,0,1,,,,,,,,0,,,71,80
79920,note_on,0,0,1,,,,,,,,0,,,63,80
79920,note_on,0,0,1,,,,,,,,0,,,59,80
79920,note_on,96,0,1,,,,,,,,0,,,66,80
79920,note_on,7,0,4,,,,,,,,0,,,35,80
79940,control_change,20,0,4,,,,,,,,0,64,127,,
79968,note_on,28,0,4,,,,,,,,0,,,35,0
79980,note_on,12,0,4,,,,,,,,0,,,42,68
80028,note_on,48,0,4,,,,,,,,0,,,42,0
80040,note_on,12,0,4,,,,,,,,0,,,47,68
80088,note_on,48,0,4,,,,,,,,0,,,47,0
80100,note_on,12,0,4,,,,,,,,0,,,54,88
80112,note_on,0,0,1,,,,,,,,0,,,63,0
80112,note_on,192,0,1,,,,,,,,0,,,59,0
80112,note_on,0,0,1,,,,,,,,0,,,66,0
80112,note_on,0,0,1,,,,,,,,0,,,71,0
80148,note_on,48,0,4,,,,,,,,0,,,54,0
80160,note_on,12,0,4,,,,,,,,0,,,54,88
80208,note_on,48,0,4,,,,,,,,0,,,54,0
80220,note_on,12,0,4,,,,,,,,0,,,47,68
80268,note_on,48,0,4,,,,,,,,0,,,47,0
80280,note_on,12,0,4,,,,,,,,0,,,42,68
80328,note_on,48,0,4,,,,,,,,0,,,42,0
80340,note_on,12,0,4,,,,,,,,0,,,35,68
80388,note_on,48,0,4,,,,,,,,0,,,35,0
80400,note_on,0,0,4,,,,,,,,0,,,38,80
80400,control_change,12,0,4,,,,,,,,0,64,0,,
80440,control_change,40,0,4,,,,,,,,0,64,127,,
80448,note_on,8,0,4,,,,,,,,0,,,38,0
80460,note_on,12,0,4,,,,,,,,0,,,45,80
80508,note_on,48,0,4,,,,,,,,0,,,45,0
80520,note_on,12,0,4,,,,,,,,0,,,50,80
80520,note_on,408,0,1,,,,,,,,0,,,66,80
80520,note_on,0,0,1,,,,,,,,0,,,69,80
80520,note_on,0,0,1,,,,,,,,0,,,74,80
80520,note_on,0,0,1,,,,,,,,0,,,78,80
80568,note_on,48,0,4,,,,,,,,0,,,50,0
80580,note_on,12,0,4,,,,,,,,0,,,57,80
80616,note_on,0,0,1,,,,,,,,0,,,66,0
80616,note_on,0,0,1,,,,,,,,0,,,74,0
80616,note_on,0,0,1,,,,,,,,0,,,78,0
80616,note_on,96,0,1,,,,,,,,0,,,69,0
80628,note_on,48,0,4,,,,,,,,0,,,57,0
80640,note_on,0,0,1,,,,,,,,0,,,74,80
80640,note_on,0,0,1,,,,,,,,0,,,69,80
80640,note_on,24,0,1,,,,,,,,0,,,66,80
80640,note_on,0,0,1,,,,,,,,0,,,62,80
80640,note_on,12,0,4,,,,,,,,0,,,57,80
80688,note_on,48,0,4,,,,,,,,0,,,57,0
80700,note_on,12,0,4,,,,,,,,0,,,50,80
80736,note_on,0,0,1,,,,,,,,0,,,69,0
80736,note_on,0,0,1,,,,,,,,0,,,66,0
80736,note_on,0,0,1,,,,,,,,0,,,62,0
80736,note_on,96,0,1,,,,,,,,0,,,74,0
80748,note_on,48,0,4,,,,,,,,0,,,50,0
80760,note_on,0,0,1,,,,,,,,0,,,66,80
80760,note_on,0,0,1,,,,,,,,0,,,74,80
80760,note_on,0,0,1,,,,,,,,0,,,69,80
80760,note_on,12,0,4,,,,,,,,0,,,45,80
80760,note_on,24,0,1,,,,,,,,0,,,78,80
80808,note_on,48,0,4,,,,,,,,0,,,45,0
80820,note_on,12,0,4,,,,,,,,0,,,38,80
80856,note_on,0,0,1,,,,,,,,0,,,69,0
80856,note_on,0,0,1,,,,,,,,0,,,74,0
80856,note_on,0,0,1,,,,,,,,0,,,78,0
80856,note_on,96,0,1,,,,,,,,0,,,66,0
80868,note_on,48,0,4,,,,,,,,0,,,38,0
80880,note_on,0,0,1,,,,,,,,0,,,74,80
80880,note_on,12,0,4,,,,,,,,0,,,38,80
80880,control_change,0,0,4,,,,,,,,0,64,0,,
80880,note_on,0,0,1,,,,,,,,0,,,81,80
80880,note_on,0,0,1,,,,,,,,0,,,78,80
80880,note_on,24,0,1,,,,,,,,0,,,69,80
80927,control_change,47,0,4,,,,,,,,0,64,127,,
80928,note_on,1,0,4,,,,,,,,0,,,38,0
80940,note_on,12,0,4,,,,,,,,0,,,45,80
80976,note_on,0,0,1,,,,,,,,0,,,74,0
80976,note_on,96,0,1,,,,,,,,0,,,78,0
80976,note_on,0,0,1,,,,,,,,0,,,81,0
80976,note_on,0,0,1,,,,,,,,0,,,69,0
80988,note_on,48,0,4,,,,,,,,0,,,45,0
81000,note_on,12,0,4,,,,,,,,0,,,50,80
81000,note_on,24,0,1,,,,,,,,0,,,71,80
81000,note_on,0,0,1,,,,,,,,0,,,74,80
81000,note_on,0,0,1,,,,,,,,0,,,83,80
81000,note_on,0,0,1,,,,,,,,0,,,78,80
81048,note_on,48,0,4,,,,,,,,0,,,50,0
81060,note_on,12,0,4,,,,,,,,0,,,57,80
81096,note_on,0,0,1,,,,,,,,0,,,83,0
81096,note_on,0,0,1,,,,,,,,0,,,78,0
81096,note_on,96,0,1,,,,,,,,0,,,74,0
81096,note_on,0,0,1,,,,,,,,0,,,71,0
81108,note_on,48,0,4,,,,,,,,0,,,57,0
81120,note_on,12,0,4,,,,,,,,0,,,57,80
81120,note_on,0,0,1,,,,,,,,0,,,69,80
81120,note_on,24,0,1,,,,,,,,0,,,81,80
81120,note_on,0,0,1,,,,,,,,0,,,74,80
81120,note_on,0,0,1,,,,,,,,0,,,78,80
81168,note_on,48,0,4,,,,,,,,0,,,57,0
81180,note_on,12,0,4,,,,,,,,0,,,50,80
81216,note_on,0,0,1,,,,,,,,0,,,78,0
81216,note_on,0,0,1,,,,,,,,0,,,81,0
81216,note_on,96,0,1,,,,,,,,0,,,69,0
81216,note_on,0,0,1,,,,,,,,0,,,74,0
81228,note_on,48,0,4,,,,,,,,0,,,50,0
81240,note_on,12,0,4,,,,,,,,0,,,45,80
81240,note_on,0,0,1,,,,,,,,0,,,66,80
81240,note_on,0,0,1,,,,,,,,0,,,74,80
81240,note_on,24,0,1,,,,,,,,0,,,69,80
81240,note_on,0,0,1,,,,,,,,0,,,78,80
81288,note_on,48,0,4,,,,,,,,0,,,45,0
81300,note_on,12,0,4,,,,,,,,0,,,38,80
81336,note_on,96,0,1,,,,,,,,0,,,74,0
81336,note_on,0,0,1,,,,,,,,0,,,78,0
81336,note_on,0,0,1,,,,,,,,0,,,66,0
81336,note_on,0,0,1,,,,,,,,0,,,69,0
81348,note_on,48,0,4,,,,,,,,0,,,38,0
81360,control_change,12,0,4,,,,,,,,0,64,0,,
81360,note_on,0,0,4,,,,,,,,0,,,38,80
81360,note_on,0,0,1,,,,,,,,0,,,62,80
81360,note_on,0,0,1,,,,,,,,0,,,74,80
81360,note_on,24,0,1,,,,,,,,0,,,69,80
81360,note_on,0,0,1,,,,,,,,0,,,66,80
81407,control_change,47,0,4,,,,,,,,0,64,127,,
81408,note_on,1,0,4,,,,,,,,0,,,38,0
81420,note_on,12,0,4,,,,,,,,0,,,45,80
81456,note_on,0,0,1,,,,,,,,0,,,62,0
81456,note_on,0,0,1,,,,,,,,0,,,66,0
81456,note_on,0,0,1,,,,,,,,0,,,69,0
81456,note_on,96,0,1,,,,,,,,0,,,74,0
81468,note_on,48,0,4,,,,,,,,0,,,45,0
81480,note_on,0,0,1,,,,,,,,0,,,69,80
81480,note_on,0,0,1,,,,,,,,0,,,78,80
81480,note_on,24,0,1,,,,,,,,0,,,74,80
81480,note_on,0,0,1,,,,,,,,0,,,66,80
81480,note_on,12,0,4,,,,,,,,0,,,50,80
81528,note_on,48,0,4,,,,,,,,0,,,50,0
81540,note_on,12,0,4,,,,,,,,0,,,57,80
81576,note_on,96,0,1,,,,,,,,0,,,66,0
81576,note_on,0,0,1,,,,,,,,0,,,74,0
81576,note_on,0,0,1,,,,,,,,0,,,78,0
81576,note_on,0,0,1,,,,,,,,0,,,69,0
81588,note_on,48,0,4,,,,,,,,0,,,57,0
81600,note_on,24,0,1,,,,,,,,0,,,81,80
81600,note_on,0,0,1,,,,,,,,0,,,74,80
81600,note_on,0,0,1,,,,,,,,0,,,78,80
81600,note_on,12,0,4,,,,,,,,0,,,57,80
81600,note_on,0,0,1,,,,,,,,0,,,69,80
81648,note_on,48,0,4,,,,,,,,0,,,57,0
81660,note_on,12,0,4,,,,,,,,0,,,50,80
81696,note_on,96,0,1,,,,,,,,0,,,78,0
81696,note_on,0,0,1,,,,,,,,0,,,69,0
81696,note_on,0,0,1,,,,,,,,0,,,74,0
81696,note_on,0,0,1,,,,,,,,0,,,81,0
81708,note_on,48,0,4,,,,,,,,0,,,50,0
81720,note_on,24,0,1,,,,,,,,0,,,74,80
81720,note_on,12,0,4,,,,,,,,0,,,45,80
81720,note_on,0,0,1,,,,,,,,0,,,71,80
81720,note_on,0,0,1,,,,,,,,0,,,83,80
81720,note_on,0,0,1,,,,,,,,0,,,78,80
81768,note_on,48,0,4,,,,,,,,0,,,45,0
81780,note_on,12,0,4,,,,,,,,0,,,38,80
81816,note_on,0,0,1,,,,,,,,0,,,74,0
81816,note_on,0,0,1,,,,,,,,0,,,78,0
81816,note_on,0,0,1,,,,,,,,0,,,83,0
81816,note_on,96,0,1,,,,,,,,0,,,71,0
81828,note_on,48,0,4,,,,,,,,0,,,38,0
81840,note_on,0,0,4,,,,,,,,0,,,38,80
81840,note_on,0,0,1,,,,,,,,0,,,78,80
81840,note_on,0,0,1,,,,,,,,0,,,81,80
81840,note_on,0,0,1,,,,,,,,0,,,86,80
81840,note_on,24,0,1,,,,,,,,0,,,74,80
81840,control_change,12,0,4,,,,,,,,0,64,0,,
81888,note_on,48,0,4,,,,,,,,0,,,38,0
81900,note_on,12,0,4,,,,,,,,0,,,45,80
81900,control_change,0,0,4,,,,,,,,0,64,127,,
81936,note_on,0,0,1,,,,,,,,0,,,74,0
81936,note_on,0,0,1,,,,,,,,0,,,86,0
81936,note_on,96,0,1,,,,,,,,0,,,78,0
81936,note_on,0,0,1,,,,,,,,0,,,81,0
81948,note_on,48,0,4,,,,,,,,0,,,45,0
81960,note_on,24,0,1,,,,,,,,0,,,81,80
81960,note_on,12,0,4,,,,,,,,0,,,50,80
81960,note_on,0,0,1,,,,,,,,0,,,78,80
81960,note_on,0,0,1,,,,,,,,0,,,86,80
81960,note_on,0,0,1,,,,,,,,0,,,90,80
82008,note_on,48,0,4,,,,,,,,0,,,50,0
82020,note_on,12,0,4,,,,,,,,0,,,57,80
82056,note_on,96,0,1,,,,,,,,0,,,86,0
82056,note_on,0,0,1,,,,,,,,0,,,78,0
82056,note_on,0,0,1,,,,,,,,0,,,81,0
82056,note_on,0,0,1,,,,,,,,0,,,90,0
82068,note_on,48,0,4,,,,,,,,0,,,57,0
82080,note_on,0,0,1,,,,,,,,0,,,90,80
82080,note_on,12,0,4,,,,,,,,0,,,57,80
82080,note_on,0,0,1,,,,,,,,0,,,81,80
82080,note_on,0,0,1,,,,,,,,0,,,86,80
82080,note_on,24,0,1,,,,,,,,0,,,93,80
82128,note_on,48,0,4,,,,,,,,0,,,57,0
82140,note_on,12,0,4,,,,,,,,0,,,50,80
82176,note_on,0,0,1,,,,,,,,0,,,86,0
82176,note_on,0,0,1,,,,,,,,0,,,93,0
82176,note_on,0,0,1,,,,,,,,0,,,81,0
82176,note_on,96,0,1,,,,,,,,0,,,90,0
82188,note_on,48,0,4,,,,,,,,0,,,50,0
82200,note_on,12,0,4,,,,,,,,0,,,45,80
82200,note_on,0,0,1,,,,,,,,0,,,95,80
82200,note_on,0,0,1,,,,,,,,0,,,90,80
82200,note_on,0,0,1,,,,,,,,0,,,83,80
82200,note_on,24,0,1,,,,,,,,0,,,86,80
82248,note_on,48,0,4,,,,,,,,0,,,45,0
82260,note_on,12,0,4,,,,,,,,0,,,38,80
82296,note_on,0,0,1,,,,,,,,0,,,86,0
82296,note_on,96,0,1,,,,,,,,0,,,95,0
82296,note_on,0,0,1,,,,,,,,0,,,83,0
82296,note_on,0,0,1,,,,,,,,0,,,90,0
82308,note_on,48,0,4,,,,,,,,0,,,38,0
82320,note_on,0,0,1,,,,,,,,0,,,93,80
82320,control_change,0,0,4,,,,,,,,0,64,0,,
82320,note_on,12,0,4,,,,,,,,0,,,33,80
82320,note_on,0,0,1,,,,,,,,0,,,97,80
82320,note_on,24,0,1,,,,,,,,0,,,88,80
82320,note_on,0,0,1,,,,,,,,0,,,85,80
82341,control_change,21,0,4,,,,,,,,0,64,127,,
82368,note_on,27,0,4,,,,,,,,0,,,33,0
82380,note_on,12,0,4,,,,,,,,0,,,40,80
82428,note_on,48,0,4,,,,,,,,0,,,40,0
82440,note_on,12,0,4,,,,,,,,0,,,45,80
82488,note_on,48,0,4,,,,,,,,0,,,45,0
82500,note_on,12,0,4,,,,,,,,0,,,52,80
82548,note_on,48,0,4,,,,,,,,0,,,52,0
82560,note_on,12,0,4,,,,,,,,0,,,52,80
82608,note_on,48,0,4,,,,,,,,0,,,52,0
82620,note_on,12,0,4,,,,,,,,0,,,45,80
82668,note_on,48,0,4,,,,,,,,0,,,45,0
82680,note_on,12,0,4,,,,,,,,0,,,40,80
82704,note_on,0,0,1,,,,,,,,0,,,85,0
82704,note_on,0,0,1,,,,,,,,0,,,97,0
82704,note_on,0,0,1,,,,,,,,0,,,88,0
82704,note_on,384,0,1,,,,,,,,0,,,93,0
82728,note_on,48,0,4,,,,,,,,0,,,40,0
82740,note_on,12,0,4,,,,,,,,0,,,33,80
82788,note_on,48,0,4,,,,,,,,0,,,33,0
82791,control_change,3,0,4,,,,,,,,0,64,0,,
82800,note_on,0,0,1,,,,,,,,0,,,88,80
82800,note_on,0,0,1,,,,,,,,0,,,93,80
82800,note_on,96,0,1,,,,,,,,0,,,85,80
82800,note_on,9,0,4,,,,,,,,0,,,33,80
82800,note_on,0,0,1,,,,,,,,0,,,81,80
82818,control_change,18,0,4,,,,,,,,0,64,127,,
82848,note_on,30,0,4,,,,,,,,0,,,33,0
82860,note_on,12,0,4,,,,,,,,0,,,40,80
82908,note_on,48,0,4,,,,,,,,0,,,40,0
82920,note_on,12,0,4,,,,,,,,0,,,45,80
82968,note_on,48,0,4,,,,,,,,0,,,45,0
82980,note_on,12,0,4,,,,,,,,0,,,52,80
82992,note_on,0,0,1,,,,,,,,0,,,81,0
82992,note_on,0,0,1,,,,,,,,0,,,85,0
82992,note_on,0,0,1,,,,,,,,0,,,93,0
82992,note_on,192,0,1,,,,,,,,0,,,88,0
83028,note_on,48,0,4,,,,,,,,0,,,52,0
83040,note_on,12,0,4,,,,,,,,0,,,52,80
83088,note_on,48,0,4,,,,,,,,0,,,52,0
83100,note_on,12,0,4,,,,,,,,0,,,45,80
83148,note_on,48,0,4,,,,,,,,0,,,45,0
83160,note_on,12,0,4,,,,,,,,0,,,40,80
83208,note_on,48,0,4,,,,,,,,0,,,40,0
83220,note_on,12,0,4,,,,,,,,0,,,33,80
83220,note_on,0,0,1,,,,,,,,0,,,61,80
83220,note_on,228,0,1,,,,,,,,0,,,64,80
83220,note_on,0,0,1,,,,,,,,0,,,69,80
83220,note_on,0,0,1,,,,,,,,0,,,73,80
83268,note_on,48,0,4,,,,,,,,0,,,33,0
83268,note_on,0,0,1,,,,,,,,0,,,64,0
83268,note_on,48,0,1,,,,,,,,0,,,61,0
83268,note_on,0,0,1,,,,,,,,0,,,73,0
83268,note_on,0,0,1,,,,,,,,0,,,69,0
83280,note_on,0,0,1,,,,,,,,0,,,73,80
83280,control_change,0,0,4,,,,,,,,0,64,0,,
83280,note_on,0,0,1,,,,,,,,0,,,61,80
83280,note_on,0,0,1,,,,,,,,0,,,69,80
83280,note_on,12,0,1,,,,,,,,0,,,64,80
83280,note_on,12,0,4,,,,,,,,0,,,33,80
83327,control_change,47,0,4,,,,,,,,0,64,127,,
83328,note_on,1,0,4,,,,,,,,0,,,33,0
83340,note_on,12,0,4,,,,,,,,0,,,40,80
83388,note_on,48,0,4,,,,,,,,0,,,40,0
83400,note_on,12,0,4,,,,,,,,0,,,45,80
83448,note_on,48,0,4,,,,,,,,0,,,45,0
83460,note_on,12,0,4,,,,,,,,0,,,52,80
83508,note_on,48,0,4,,,,,,,,0,,,52,0
83520,note_on,12,0,4,,,,,,,,0,,,52,80
83568,note_on,48,0,4,,,,,,,,0,,,52,0
83580,note_on,12,0,4,,,,,,,,0,,,45,80
83628,note_on,48,0,4,,,,,,,,0,,,45,0
83640,note_on,12,0,4,,,,,,,,0,,,40,80
83664,note_on,384,0,1,,,,,,,,0,,,61,0
83664,note_on,0,0,1,,,,,,,,0,,,73,0
83664,note_on,0,0,1,,,,,,,,0,,,69,0
83664,note_on,0,0,1,,,,,,,,0,,,64,0
83688,note_on,48,0,4,,,,,,,,0,,,40,0
83700,note_on,12,0,4,,,,,,,,0,,,33,80
83748,note_on,48,0,4,,,,,,,,0,,,33,0
83760,note_on,12,0,4,,,,,,,,0,,,33,80
83760,note_on,96,0,1,,,,,,,,0,,,61,80
83760,note_on,0,0,1,,,,,,,,0,,,69,80
83760,note_on,0,0,1,,,,,,,,0,,,57,80
83760,note_on,0,0,1,,,,,,,,0,,,64,80
83773,control_change,13,0,4,,,,,,,,0,64,0,,
83808,note_on,35,0,4,,,,,,,,0,,,33,0
83820,note_on,12,0,4,,,,,,,,0,,,40,80
83820,control_change,0,0,4,,,,,,,,0,64,127,,
83868,note_on,48,0,4,,,,,,,,0,,,40,0
83880,note_on,12,0,4,,,,,,,,0,,,45,80
83928,note_on,48,0,4,,,,,,,,0,,,45,0
83940,note_on,12,0,4,,,,,,,,0,,,52,80
83952,note_on,192,0,1,,,,,,,,0,,,57,0
83952,note_on,0,0,1,,,,,,,,0,,,61,0
83952,note_on,0,0,1,,,,,,,,0,,,69,0
83952,note_on,0,0,1,,,,,,,,0,,,64,0
83988,note_on,48,0,4,,,,,,,,0,,,52,0
84000,note_on,12,0,4,,,,,,,,0,,,52,80
84048,note_on,48,0,4,,,,,,,,0,,,52,0
84060,note_on,12,0,4,,,,,,,,0,,,45,80
84108,note_on,48,0,4,,,,,,,,0,,,45,0
84120,note_on,12,0,4,,,,,,,,0,,,40,80
84168,note_on,48,0,4,,,,,,,,0,,,40,0
84180,note_on,12,0,4,,,,,,,,0,,,33,80
84228,note_on,48,0,4,,,,,,,,0,,,33,0
84240,note_on,0,0,4,,,,,,,,0,,,36,80
84240,control_change,12,0,4,,,,,,,,0,64,0,,
84280,control_change,40,0,4,,,,,,,,0,64,127,,
84288,note_on,8,0,4,,,,,,,,0,,,36,0
84300,note_on,12,0,4,,,,,,,,0,,,43,80
84348,note_on,48,0,4,,,,,,,,0,,,43,0
84360,note_on,408,0,1,,,,,,,,0,,,67,80
84360,note_on,12,0,4,,,,,,,,0,,,48,80
84360,note_on,0,0,1,,,,,,,,0,,,76,80
84360,note_on,0,0,1,,,,,,,,0,,,72,80
84360,note_on,0,0,1,,,,,,,,0,,,64,80
84408,note_on,48,0,4,,,,,,,,0,,,48,0
84420,note_on,12,0,4,,,,,,,,0,,,55,80
84456,note_on,0,0,1,,,,,,,,0,,,72,0
84456,note_on,0,0,1,,,,,,,,0,,,67,0
84456,note_on,96,0,1,,,,,,,,0,,,64,0
84456,note_on,0,0,1,,,,,,,,0,,,76,0
84468,note_on,48,0,4,,,,,,,,0,,,55,0
84480,note_on,12,0,4,,,,,,,,0,,,55,80
84480,note_on,0,0,1,,,,,,,,0,,,72,80
84480,note_on,0,0,1,,,,,,,,0,,,67,80
84480,note_on,0,0,1,,,,,,,,0,,,60,80
84480,note_on,24,0,1,,,,,,,,0,,,64,80
84528,note_on,48,0,4,,,,,,,,0,,,55,0
84540,note_on,12,0,4,,,,,,,,0,,,48,80
84576,note_on,0,0,1,,,,,,,,0,,,60,0
84576,note_on,0,0,1,,,,,,,,0,,,67,0
84576,note_on,0,0,1,,,,,,,,0,,,64,0
84576,note_on,96,0,1,,,,,,,,0,,,72,0
84588,note_on,48,0,4,,,,,,,,0,,,48,0
84600,note_on,12,0,4,,,,,,,,0,,,43,80
84600,note_on,0,0,1,,,,,,,,0,,,76,80
84600,note_on,0,0,1,,,,,,,,0,,,64,80
84600,note_on,24,0,1,,,,,,,,0,,,72,80
84600,note_on,0,0,1,,,,,,,,0,,,67,80
84648,note_on,48,0,4,,,,,,,,0,,,43,0
84660,note_on,12,0,4,,,,,,,,0,,,36,80
84696,note_on,0,0,1,,,,,,,,0,,,64,0
84696,note_on,96,0,1,,,,,,,,0,,,76,0
84696,note_on,0,0,1,,,,,,,,0,,,72,0
84696,note_on,0,0,1,,,,,,,,0,,,67,0
84708,note_on,48,0,4,,,,,,,,0,,,36,0
84720,note_on,12,0,4,,,,,,,,0,,,36,80
84720,note_on,0,0,1,,,,,,,,0,,,79,80
84720,control_change,0,0,4,,,,,,,,0,64,0,,
84720,note_on,0,0,1,,,,,,,,0,,,72,80
84720,note_on,0,0,1,,,,,,,,0,,,76,80
84720,note_on,24,0,1,,,,,,,,0,,,67,80
84767,control_change,47,0,4,,,,,,,,0,64,127,,
84768,note_on,1,0,4,,,,,,,,0,,,36,0
84780,note_on,12,0,4,,,,,,,,0,,,43,80
84816,note_on,0,0,1,,,,,,,,0,,,67,0
84816,note_on,0,0,1,,,,,,,,0,,,76,0
84816,note_on,96,0,1,,,,,,,,0,,,79,0
84816,note_on,0,0,1,,,,,,,,0,,,72,0
84828,note_on,48,0,4,,,,,,,,0,,,43,0
84840,note_on,12,0,4,,,,,,,,0,,,48,80
84840,note_on,0,0,1,,,,,,,,0,,,72,80
84840,note_on,0,0,1,,,,,,,,0,,,69,80
84840,note_on,24,0,1,,,,,,,,0,,,81,80
84840,note_on,0,0,1,,,,,,,,0,,,76,80
84888,note_on,48,0,4,,,,,,,,0,,,48,0
84900,note_on,12,0,4,,,,,,,,0,,,55,80
84936,note_on,0,0,1,,,,,,,,0,,,72,0
84936,note_on,0,0,1,,,,,,,,0,,,81,0
84936,note_on,96,0,1,,,,,,,,0,,,76,0
84936,note_on,0,0,1,,,,,,,,0,,,69,0
84948,note_on,48,0,4,,,,,,,,0,,,55,0
84960,note_on,12,0,4,,,,,,,,0,,,55,80
84960,note_on,0,0,1,,,,,,,,0,,,72,80
84960,note_on,0,0,1,,,,,,,,0,,,76,80
84960,note_on,0,0,1,,,,,,,,0,,,79,80
84960,note_on,24,0,1,,,,,,,,0,,,67,80
85008,note_on,48,0,4,,,,,,,,0,,,55,0
85020,note_on,12,0,4,,,,,,,,0,,,48,80
85056,note_on,96,0,1,,,,,,,,0,,,79,0
85056,note_on,0,0,1,,,,,,,,0,,,76,0
85056,note_on,0,0,1,,,,,,,,0,,,72,0
85056,note_on,0,0,1,,,,,,,,0,,,67,0
85068,note_on,48,0,4,,,,,,,,0,,,48,0
85080,note_on,12,0,4,,,,,,,,0,,,43,80
85080,note_on,0,0,1,,,,,,,,0,,,72,80
85080,note_on,0,0,1,,,,,,,,0,,,76,80
85080,note_on,24,0,1,,,,,,,,0,,,67,80
85080,note_on,0,0,1,,,,,,,,0,,,64,80
85128,note_on,48,0,4,,,,,,,,0,,,43,0
85140,note_on,12,0,4,,,,,,,,0,,,36,80
85176,note_on,0,0,1,,,,,,,,0,,,67,0
85176,note_on,0,0,1,,,,,,,,0,,,64,0
85176,note_on,96,0,1,,,,,,,,0,,,72,0
85176,note_on,0,0,1,,,,,,,,0,,,76,0
85188,note_on,48,0,4,,,,,,,,0,,,36,0
85200,note_on,24,0,1,,,,,,,,0,,,67,80
85200,note_on,0,0,1,,,,,,,,0,,,64,80
85200,note_on,12,0,4,,,,,,,,0,,,36,80
85200,note_on,0,0,1,,,,,,,,0,,,72,80
85200,note_on,0,0,1,,,,,,,,0,,,60,80
85200,control_change,0,0,4,,,,,,,,0,64,0,,
85240,control_change,40,0,4,,,,,,,,0,64,127,,
85248,note_on,8,0,4,,,,,,,,0,,,36,0
85260,note_on,12,0,4,,,,,,,,0,,,43,80
85296,note_on,0,0,1,,,,,,,,0,,,64,0
85296,note_on,0,0,1,,,,,,,,0,,,67,0
85296,note_on,0,0,1,,,,,,,,0,,,72,0
85296,note_on,96,0,1,,,,,,,,0,,,60,0
85308,note_on,48,0,4,,,,,,,,0,,,43,0
85320,note_on,0,0,1,,,,,,,,0,,,67,80
85320,note_on,0,0,1,,,,,,,,0,,,76,80
85320,note_on,0,0,1,,,,,,,,0,,,72,80
85320,note_on,12,0,4,,,,,,,,0,,,48,80
85320,note_on,24,0,1,,,,,,,,0,,,64,80
85368,note_on,48,0,4,,,,,,,,0,,,48,0
85380,note_on,12,0,4,,,,,,,,0,,,55,80
85416,note_on,0,0,1,,,,,,,,0,,,64,0
85416,note_on,0,0,1,,,,,,,,0,,,72,0
85416,note_on,0,0,1,,,,,,,,0,,,76,0
85416,note_on,96,0,1,,,,,,,,0,,,67,0
85428,note_on,48,0,4,,,,,,,,0,,,55,0
85440,note_on,0,0,1,,,,,,,,0,,,76,80
85440,note_on,24,0,1,,,,,,,,0,,,72,80
85440,note_on,0,0,1,,,,,,,,0,,,67,80
85440,note_on,0,0,1,,,,,,,,0,,,79,80
85440,note_on,12,0,4,,,,,,,,0,,,55,80
85488,note_on,48,0,4,,,,,,,,0,,,55,0
85500,note_on,12,0,4,,,,,,,,0,,,48,80
85536,note_on,96,0,1,,,,,,,,0,,,67,0
85536,note_on,0,0,1,,,,,,,,0,,,72,0
85536,note_on,0,0,1,,,,,,,,0,,,76,0
85536,note_on,0,0,1,,,,,,,,0,,,79,0
85548,note_on,48,0,4,,,,,,,,0,,,48,0
85560,note_on,0,0,1,,,,,,,,0,,,79,80
85560,note_on,12,0,4,,,,,,,,0,,,43,80
85560,note_on,0,0,1,,,,,,,,0,,,83,80
85560,note_on,0,0,1,,,,,,,,0,,,76,80
85560,note_on,24,0,1,,,,,,,,0,,,71,80
85608,note_on,48,0,4,,,,,,,,0,,,43,0
85620,note_on,12,0,4,,,,,,,,0,,,36,80
85656,note_on,0,0,1,,,,,,,,0,,,71,0
85656,note_on,96,0,1,,,,,,,,0,,,76,0
85656,note_on,0,0,1,,,,,,,,0,,,79,0
85656,note_on,0,0,1,,,,,,,,0,,,83,0
85668,note_on,48,0,4,,,,,,,,0,,,36,0
85674,set_tempo,8405,1,0,,,,,,579822,,,,,,
85680,note_on,0,0,1,,,,,,,,0,,,79,80
85680,note_on,0,0,1,,,,,,,,0,,,72,80
85680,note_on,12,0,4,,,,,,,,0,,,36,80
85680,note_on,24,0,1,,,,,,,,0,,,76,80
85680,control_change,0,0,4,,,,,,,,0,64,0,,
85680,note_on,0,0,1,,,,,,,,0,,,84,80
85713,set_tempo,39,1,0,,,,,,585423,,,,,,
85727,control_change,47,0,4,,,,,,,,0,64,127,,
85728,note_on,1,0,4,,,,,,,,0,,,36,0
85740,note_on,12,0,4,,,,,,,,0,,,43,80
85748,set_tempo,35,1,0,,,,,,591133,,,,,,
85776,note_on,0,0,1,,,,,,,,0,,,79,0
85776,note_on,0,0,1,,,,,,,,0,,,72,0
85776,note_on,0,0,1,,,,,,,,0,,,76,0
85776,note_on,96,0,1,,,,,,,,0,,,84,0
85788,note_on,48,0,4,,,,,,,,0,,,43,0
85788,set_tempo,40,1,0,,,,,,596956,,,,,,
85800,note_on,12,0,4,,,,,,,,0,,,48,80
85800,note_on,24,0,1,,,,,,,,0,,,88,80
85800,note_on,0,0,1,,,,,,,,0,,,84,80
85800,note_on,0,0,1,,,,,,,,0,,,76,80
85800,note_on,0,0,1,,,,,,,,0,,,79,80
85822,set_tempo,34,1,0,,,,,,602894,,,,,,
85848,note_on,48,0,4,,,,,,,,0,,,48,0
85857,set_tempo,35,1,0,,,,,,608952,,,,,,
85860,note_on,12,0,4,,,,,,,,0,,,55,80
85896,note_on,0,0,1,,,,,,,,0,,,76,0
85896,note_on,0,0,1,,,,,,,,0,,,84,0
85896,note_on,96,0,1,,,,,,,,0,,,79,0
85896,note_on,0,0,1,,,,,,,,0,,,88,0
85897,set_tempo,40,1,0,,,,,,615132,,,,,,
85908,note_on,48,0,4,,,,,,,,0,,,55,0
85920,note_on,0,0,1,,,,,,,,0,,,88,80
85920,note_on,0,0,1,,,,,,,,0,,,91,80
85920,note_on,12,0,4,,,,,,,,0,,,55,80
85920,note_on,0,0,1,,,,,,,,0,,,84,80
85920,note_on,24,0,1,,,,,,,,0,,,79,80
85932,set_tempo,35,1,0,,,,,,621440,,,,,,
85968,note_on,48,0,4,,,,,,,,0,,,55,0
85971,set_tempo,39,1,0,,,,,,627878,,,,,,
85980,note_on,12,0,4,,,,,,,,0,,,48,80
86006,set_tempo,35,1,0,,,,,,634451,,,,,,
86016,note_on,96,0,1,,,,,,,,0,,,84,0
86016,note_on,0,0,1,,,,,,,,0,,,91,0
86016,note_on,0,0,1,,,,,,,,0,,,88,0
86016,note_on,0,0,1,,,,,,,,0,,,79,0
86028,note_on,48,0,4,,,,,,,,0,,,48,0
86040,note_on,0,0,1,,,,,,,,0,,,84,88
86040,note_on,0,0,1,,,,,,,,0,,,88,88
86040,note_on,12,0,4,,,,,,,,0,,,43,80
86040,note_on,24,0,1,,,,,,,,0,,,96,88
86040,note_on,0,0,1,,,,,,,,0,,,91,88
86041,set_tempo,35,1,0,,,,,,641163,,,,,,
86080,set_tempo,39,1,0,,,,,,648018,,,,,,
86088,note_on,48,0,4,,,,,,,,0,,,43,0
86100,note_on,12,0,4,,,,,,,,0,,,36,80
86110,set_tempo,30,1,0,,,,,,662179,,,,,,
86136,note_on,0,0,1,,,,,,,,0,,,88,0
86136,note_on,0,0,1,,,,,,,,0,,,84,0
86136,note_on,96,0,1,,,,,,,,0,,,91,0
86136,note_on,0,0,1,,,,,,,,0,,,96,0
86148,note_on,48,0,4,,,,,,,,0,,,36,0
86154,set_tempo,44,1,0,,,,,,655022,,,,,,
86158,set_tempo,4,1,0,,,,,,641163,,,,,,
86160,note_on,0,0,1,,,,,,,,0,,,92,88
86160,note_on,0,0,1,,,,,,,,0,,,96,88
86160,control_change,12,0,4,,,,,,,,0,64,0,,
86160,note_on,0,0,1,,,,,,,,0,,,89,88
86160,note_on,0,0,4,,,,,,,,0,,,29,100
86160,note_on,24,0,1,,,,,,,,0,,,84,88
86167,set_tempo,9,1,0,,,,,,634451,,,,,,
86176,set_tempo,9,1,0,,,,,,627878,,,,,,
86185,set_tempo,9,1,0,,,,,,621440,,,,,,
86190,control_change,30,0,4,,,,,,,,0,64,127,,
86193,set_tempo,8,1,0,,,,,,615132,,,,,,
86198,set_tempo,5,1,0,,,,,,608952,,,,,,
86206,set_tempo,8,1,0,,,,,,602894,,,,,,
86208,note_on,18,0,4,,,,,,,,0,,,29,0
86215,set_tempo,9,1,0,,,,,,596956,,,,,,
86220,note_on,12,0,4,,,,,,,,0,,,36,88
86224,set_tempo,9,1,0,,,,,,591133,,,,,,
86233,set_tempo,9,1,0,,,,,,585423,,,,,,
86237,set_tempo,4,1,0,,,,,,579822,,,,,,
86246,set_tempo,9,1,0,,,,,,574328,,,,,,
86254,set_tempo,8,1,0,,,,,,568936,,,,,,
86263,set_tempo,9,1,0,,,,,,563645,,,,,,
86268,note_on,48,0,4,,,,,,,,0,,,36,0
86268,set_tempo,5,1,0,,,,,,558451,,,,,,
86280,note_on,12,0,4,,,,,,,,0,,,41,88
86328,note_on,48,0,4,,,,,,,,0,,,41,0
86340,note_on,12,0,4,,,,,,,,0,,,44,88
86388,note_on,48,0,4,,,,,,,,0,,,44,0
86400,note_on,12,0,4,,,,,,,,0,,,44,88
86448,note_on,48,0,4,,,,,,,,0,,,44,0
86460,note_on,12,0,4,,,,,,,,0,,,41,88
86508,note_on,48,0,4,,,,,,,,0,,,41,0
86520,note_on,12,0,4,,,,,,,,0,,,36,88
86544,note_on,384,0,1,,,,,,,,0,,,96,0
86544,note_on,0,0,1,,,,,,,,0,,,84,0
86544,note_on,0,0,1,,,,,,,,0,,,92,0
86544,note_on,0,0,1,,,,,,,,0,,,89,0
86568,note_on,48,0,4,,,,,,,,0,,,36,0
86580,note_on,12,0,4,,,,,,,,0,,,29,88
86628,note_on,48,0,4,,,,,,,,0,,,29,0
86629,control_change,1,0,4,,,,,,,,0,64,0,,
86640,note_on,0,0,1,,,,,,,,0,,,80,89
86640,note_on,0,0,1,,,,,,,,0,,,84,89
86640,note_on,0,0,1,,,,,,,,0,,,92,89
86640,note_on,96,0,1,,,,,,,,0,,,89,89
86640,note_on,11,0,4,,,,,,,,0,,,29,100
86659,control_change,19,0,4,,,,,,,,0,64,127,,
86688,note_on,29,0,4,,,,,,,,0,,,29,0
86700,note_on,12,0,4,,,,,,,,0,,,36,89
86748,note_on,48,0,4,,,,,,,,0,,,36,0
86760,note_on,12,0,4,,,,,,,,0,,,41,89
86808,note_on,48,0,4,,,,,,,,0,,,41,0
86820,note_on,12,0,4,,,,,,,,0,,,44,89
86832,note_on,192,0,1,,,,,,,,0,,,84,0
86832,note_on,0,0,1,,,,,,,,0,,,80,0
86832,note_on,0,0,1,,,,,,,,0,,,89,0
86832,note_on,0,0,1,,,,,,,,0,,,92,0
86868,note_on,48,0,4,,,,,,,,0,,,44,0
86880,note_on,12,0,4,,,,,,,,0,,,44,90
86928,note_on,48,0,4,,,,,,,,0,,,44,0
86940,note_on,12,0,4,,,,,,,,0,,,41,90
86988,note_on,48,0,4,,,,,,,,0,,,41,0
87000,note_on,12,0,4,,,,,,,,0,,,36,90
87048,note_on,48,0,4,,,,,,,,0,,,36,0
87060,note_on,0,0,1,,,,,,,,0,,,60,91
87060,note_on,0,0,1,,,,,,,,0,,,65,91
87060,note_on,12,0,4,,,,,,,,0,,,29,91
87060,note_on,0,0,1,,,,,,,,0,,,72,91
87060,note_on,228,0,1,,,,,,,,0,,,68,91
87108,note_on,48,0,4,,,,,,,,0,,,29,0
87108,note_on,48,0,1,,,,,,,,0,,,72,0
87108,note_on,0,0,1,,,,,,,,0,,,60,0
87108,note_on,0,0,1,,,,,,,,0,,,65,0
87108,note_on,0,0,1,,,,,,,,0,,,68,0
87120,note_on,0,0,1,,,,,,,,0,,,73,91
87120,note_on,0,0,1,,,,,,,,0,,,65,91
87120,note_on,0,0,4,,,,,,,,0,,,37,100
87120,note_on,12,0,1,,,,,,,,0,,,68,91
87120,control_change,12,0,4,,,,,,,,0,64,0,,
87120,note_on,0,0,1,,,,,,,,0,,,61,91
87146,control_change,26,0,4,,,,,,,,0,64,127,,
87168,note_on,22,0,4,,,,,,,,0,,,37,0
87180,note_on,12,0,4,,,,,,,,0,,,44,91
87228,note_on,48,0,4,,,,,,,,0,,,44,0
87240,note_on,12,0,4,,,,,,,,0,,,49,91
87288,note_on,48,0,4,,,,,,,,0,,,49,0
87300,note_on,12,0,4,,,,,,,,0,,,53,92
87348,note_on,48,0,4,,,,,,,,0,,,53,0
87360,note_on,12,0,4,,,,,,,,0,,,53,92
87408,note_on,48,0,4,,,,,,,,0,,,53,0
87420,note_on,12,0,4,,,,,,,,0,,,49,92
87468,note_on,48,0,4,,,,,,,,0,,,49,0
87480,note_on,12,0,4,,,,,,,,0,,,44,92
87504,note_on,0,0,1,,,,,,,,0,,,65,0
87504,note_on,0,0,1,,,,,,,,0,,,73,0
87504,note_on,0,0,1,,,,,,,,0,,,68,0
87504,note_on,384,0,1,,,,,,,,0,,,61,0
87528,note_on,48,0,4,,,,,,,,0,,,44,0
87540,note_on,12,0,4,,,,,,,,0,,,37,92
87588,note_on,48,0,4,,,,,,,,0,,,37,0
87600,note_on,0,0,1,,,,,,,,0,,,65,92
87600,note_on,0,0,1,,,,,,,,0,,,61,92
87600,note_on,0,0,1,,,,,,,,0,,,56,92
87600,note_on,12,0,4,,,,,,,,0,,,37,100
87600,note_on,96,0,1,,,,,,,,0,,,68,92
87604,control_change,4,0,4,,,,,,,,0,64,0,,
87626,control_change,22,0,4,,,,,,,,0,64,127,,
87648,note_on,22,0,4,,,,,,,,0,,,37,0
87660,note_on,12,0,4,,,,,,,,0,,,44,92
87708,note_on,48,0,4,,,,,,,,0,,,44,0
87720,note_on,12,0,4,,,,,,,,0,,,49,92
87768,note_on,48,0,4,,,,,,,,0,,,49,0
87780,note_on,12,0,4,,,,,,,,0,,,53,93
87792,note_on,192,0,1,,,,,,,,0,,,56,0
87792,note_on,0,0,1,,,,,,,,0,,,65,0
87792,note_on,0,0,1,,,,,,,,0,,,68,0
87792,note_on,0,0,1,,,,,,,,0,,,61,0
87828,note_on,48,0,4,,,,,,,,0,,,53,0
87840,note_on,12,0,4,,,,,,,,0,,,53,93
87888,note_on,48,0,4,,,,,,,,0,,,53,0
87900,note_on,12,0,4,,,,,,,,0,,,49,93
87948,note_on,48,0,4,,,,,,,,0,,,49,0
87960,note_on,12,0,4,,,,,,,,0,,,44,94
88008,note_on,48,0,4,,,,,,,,0,,,44,0
88020,note_on,0,0,1,,,,,,,,0,,,89,94
88020,note_on,0,0,1,,,,,,,,0,,,92,94
88020,note_on,228,0,1,,,,,,,,0,,,97,94
88020,note_on,12,0,4,,,,,,,,0,,,37,94
88020,note_on,0,0,1,,,,,,,,0,,,85,94
88068,note_on,0,0,1,,,,,,,,0,,,92,0
88068,note_on,0,0,1,,,,,,,,0,,,97,0
88068,note_on,0,0,1,,,,,,,,0,,,89,0
88068,note_on,48,0,4,,,,,,,,0,,,37,0
88068,note_on,48,0,1,,,,,,,,0,,,85,0
88073,set_tempo,1805,1,0,,,,,,507057,,,,,,
88080,note_on,0,0,1,,,,,,,,0,,,97,94
88080,note_on,12,0,1,,,,,,,,0,,,85,94
88080,note_on,0,0,1,,,,,,,,0,,,93,94
88080,note_on,0,0,4,,,,,,,,0,,,30,110
88080,note_on,0,0,1,,,,,,,,0,,,90,94
88080,control_change,12,0,4,,,,,,,,0,64,0,,
88110,control_change,30,0,4,,,,,,,,0,64,127,,
88128,note_on,18,0,4,,,,,,,,0,,,30,0
88140,note_on,12,0,4,,,,,,,,0,,,37,94
88188,note_on,48,0,4,,,,,,,,0,,,37,0
88200,note_on,12,0,4,,,,,,,,0,,,42,95
88248,note_on,48,0,4,,,,,,,,0,,,42,0
88260,note_on,12,0,4,,,,,,,,0,,,45,95
88308,note_on,48,0,4,,,,,,,,0,,,45,0
88320,note_on,12,0,4,,,,,,,,0,,,45,95
88368,note_on,48,0,4,,,,,,,,0,,,45,0
88380,note_on,12,0,4,,,,,,,,0,,,42,95
88428,note_on,48,0,4,,,,,,,,0,,,42,0
88440,note_on,12,0,4,,,,,,,,0,,,37,96
88464,note_on,0,0,1,,,,,,,,0,,,97,0
88464,note_on,0,0,1,,,,,,,,0,,,93,0
88464,note_on,0,0,1,,,,,,,,0,,,85,0
88464,note_on,384,0,1,,,,,,,,0,,,90,0
88488,note_on,48,0,4,,,,,,,,0,,,37,0
88500,note_on,12,0,4,,,,,,,,0,,,30,96
88548,note_on,48,0,4,,,,,,,,0,,,30,0
88560,note_on,12,0,4,,,,,,,,0,,,30,110
88560,note_on,0,0,1,,,,,,,,0,,,90,96
88560,note_on,0,0,1,,,,,,,,0,,,81,96
88560,note_on,0,0,1,,,,,,,,0,,,85,96
88560,note_on,96,0,1,,,,,,,,0,,,93,96
88570,control_change,10,0,4,,,,,,,,0,64,0,,
88605,control_change,35,0,4,,,,,,,,0,64,127,,
88608,note_on,3,0,4,,,,,,,,0,,,30,0
88620,note_on,12,0,4,,,,,,,,0,,,37,96
88668,note_on,48,0,4,,,,,,,,0,,,37,0
88680,note_on,12,0,4,,,,,,,,0,,,42,96
88728,note_on,48,0,4,,,,,,,,0,,,42,0
88740,note_on,12,0,4,,,,,,,,0,,,45,96
88752,note_on,0,0,1,,,,,,,,0,,,81,0
88752,note_on,0,0,1,,,,,,,,0,,,90,0
88752,note_on,0,0,1,,,,,,,,0,,,93,0
88752,note_on,192,0,1,,,,,,,,0,,,85,0
88788,note_on,48,0,4,,,,,,,,0,,,45,0
88800,note_on,12,0,4,,,,,,,,0,,,45,96
88848,note_on,48,0,4,,,,,,,,0,,,45,0
88860,note_on,12,0,4,,,,,,,,0,,,42,97
88908,note_on,48,0,4,,,,,,,,0,,,42,0
88920,note_on,12,0,4,,,,,,,,0,,,37,97
88968,note_on,48,0,4,,,,,,,,0,,,37,0
88980,note_on,0,0,1,,,,,,,,0,,,69,97
88980,note_on,228,0,1,,,,,,,,0,,,61,97
88980,note_on,0,0,1,,,,,,,,0,,,66,97
88980,note_on,12,0,4,,,,,,,,0,,,30,97
88980,note_on,0,0,1,,,,,,,,0,,,73,97
89028,note_on,48,0,4,,,,,,,,0,,,30,0
89028,note_on,0,0,1,,,,,,,,0,,,61,0
89028,note_on,0,0,1,,,,,,,,0,,,69,0
89028,note_on,0,0,1,,,,,,,,0,,,66,0
89028,note_on,48,0,1,,,,,,,,0,,,73,0
89040,note_on,0,0,4,,,,,,,,0,,,38,110
89040,note_on,0,0,1,,,,,,,,0,,,66,97
89040,note_on,0,0,1,,,,,,,,0,,,62,97
89040,note_on,0,0,1,,,,,,,,0,,,69,97
89040,note_on,12,0,1,,,,,,,,0,,,74,97
89040,control_change,12,0,4,,,,,,,,0,64,0,,
89070,control_change,30,0,4,,,,,,,,0,64,127,,
89088,note_on,18,0,4,,,,,,,,0,,,38,0
89100,note_on,12,0,4,,,,,,,,0,,,45,98
89148,note_on,48,0,4,,,,,,,,0,,,45,0
89160,note_on,12,0,4,,,,,,,,0,,,50,98
89208,note_on,48,0,4,,,,,,,,0,,,50,0
89220,note_on,12,0,4,,,,,,,,0,,,54,98
89268,note_on,48,0,4,,,,,,,,0,,,54,0
89280,note_on,12,0,4,,,,,,,,0,,,54,98
89328,note_on,48,0,4,,,,,,,,0,,,54,0
89340,note_on,12,0,4,,,,,,,,0,,,50,99
89388,note_on,48,0,4,,,,,,,,0,,,50,0
89400,note_on,12,0,4,,,,,,,,0,,,45,99
89424,note_on,384,0,1,,,,,,,,0,,,62,0
89424,note_on,0,0,1,,,,,,,,0,,,74,0
89424,note_on,0,0,1,,,,,,,,0,,,69,0
89424,note_on,0,0,1,,,,,,,,0,,,66,0
89448,note_on,48,0,4,,,,,,,,0,,,45,0
89460,note_on,12,0,4,,,,,,,,0,,,38,99
89508,note_on,48,0,4,,,,,,,,0,,,38,0
89515,control_change,7,0,4,,,,,,,,0,64,0,,
89520,note_on,96,0,1,,,,,,,,0,,,69,99
89520,note_on,0,0,1,,,,,,,,0,,,66,99
89520,note_on,0,0,1,,,,,,,,0,,,62,99
89520,note_on,0,0,1,,,,,,,,0,,,57,99
89520,note_on,5,0,4,,,,,,,,0,,,38,110
89550,control_change,30,0,4,,,,,,,,0,64,127,,
89568,note_on,18,0,4,,,,,,,,0,,,38,0
89580,note_on,12,0,4,,,,,,,,0,,,45,100
89628,note_on,48,0,4,,,,,,,,0,,,45,0
89640,note_on,12,0,4,,,,,,,,0,,,50,100
89688,note_on,48,0,4,,,,,,,,0,,,50,0
89700,note_on,12,0,4,,,,,,,,0,,,54,100
89712,note_on,192,0,1,,,,,,,,0,,,57,0
89712,note_on,0,0,1,,,,,,,,0,,,66,0
89712,note_on,0,0,1,,,,,,,,0,,,62,0
89712,note_on,0,0,1,,,,,,,,0,,,69,0
89748,note_on,48,0,4,,,,,,,,0,,,54,0
89760,note_on,12,0,4,,,,,,,,0,,,54,100
89808,note_on,48,0,4,,,,,,,,0,,,54,0
89820,note_on,12,0,4,,,,,,,,0,,,50,100
89868,note_on,48,0,4,,,,,,,,0,,,50,0
89880,note_on,12,0,4,,,,,,,,0,,,45,100
89928,note_on,48,0,4,,,,,,,,0,,,45,0
89940,note_on,228,0,1,,,,,,,,0,,,86,100
89940,note_on,0,0,1,,,,,,,,0,,,74,100
89940,note_on,12,0,4,,,,,,,,0,,,38,100
89988,note_on,0,0,1,,,,,,,,0,,,86,0
89988,note_on,48,0,1,,,,,,,,0,,,74,0
89988,note_on,48,0,4,,,,,,,,0,,,38,0
89995,set_tempo,1922,1,0,,,,,,475248,,,,,,
90000,note_on,12,0,1,,,,,,,,0,,,86,101
90000,note_on,0,0,1,,,,,,,,0,,,74,101
90000,control_change,0,0,4,,,,,,,,0,64,0,,
90000,note_on,0,0,1,,,,,,,,0,,,82,101
90000,note_on,0,0,1,,,,,,,,0,,,79,101
90000,note_on,12,0,4,,,,,,,,0,,,31,115
90025,control_change,25,0,4,,,,,,,,0,64,127,,
90048,note_on,23,0,4,,,,,,,,0,,,31,0
90060,note_on,12,0,4,,,,,,,,0,,,38,101
90108,note_on,48,0,4,,,,,,,,0,,,38,0
90120,note_on,12,0,4,,,,,,,,0,,,43,101
90168,note_on,48,0,4,,,,,,,,0,,,43,0
90180,note_on,12,0,4,,,,,,,,0,,,46,101
90192,note_on,0,0,1,,,,,,,,0,,,79,0
90192,note_on,192,0,1,,,,,,,,0,,,74,0
90192,note_on,0,0,1,,,,,,,,0,,,82,0
90192,note_on,0,0,1,,,,,,,,0,,,86,0
90228,note_on,48,0,4,,,,,,,,0,,,46,0
90240,note_on,48,0,1,,,,,,,,0,,,82,102
90240,note_on,0,0,1,,,,,,,,0,,,70,102
90240,note_on,12,0,4,,,,,,,,0,,,46,102
90288,note_on,48,0,4,,,,,,,,0,,,46,0
90300,note_on,12,0,4,,,,,,,,0,,,43,102
90318,set_tempo,323,1,0,,,,,,471550,,,,,,
90336,note_on,96,0,1,,,,,,,,0,,,70,0
90336,note_on,0,0,1,,,,,,,,0,,,82,0
90348,note_on,48,0,4,,,,,,,,0,,,43,0
90360,note_on,12,0,4,,,,,,,,0,,,38,102
90408,note_on,48,0,4,,,,,,,,0,,,38,0
90420,note_on,84,0,1,,,,,,,,0,,,62,103
90420,note_on,12,0,4,,,,,,,,0,,,31,103
90420,note_on,0,0,1,,,,,,,,0,,,74,103
90468,note_on,48,0,4,,,,,,,,0,,,31,0
90468,note_on,48,0,1,,,,,,,,0,,,74,0
90468,note_on,0,0,1,,,,,,,,0,,,62,0
90480,note_on,12,0,1,,,,,,,,0,,,67,103
90480,note_on,12,0,4,,,,,,,,0,,,31,115
90480,note_on,0,0,1,,,,,,,,0,,,70,103
90480,note_on,0,0,1,,,,,,,,0,,,75,103
90480,control_change,0,0,4,,,,,,,,0,64,0,,
90480,note_on,0,0,1,,,,,,,,0,,,63,103
90510,control_change,30,0,4,,,,,,,,0,64,127,,
90528,note_on,18,0,4,,,,,,,,0,,,31,0
90540,note_on,12,0,4,,,,,,,,0,,,39,103
90588,note_on,48,0,4,,,,,,,,0,,,39,0
90600,note_on,12,0,4,,,,,,,,0,,,43,103
90641,set_tempo,323,1,0,,,,,,467909,,,,,,
90648,note_on,48,0,4,,,,,,,,0,,,43,0
90660,note_on,12,0,4,,,,,,,,0,,,46,104
90672,note_on,192,0,1,,,,,,,,0,,,63,0
90672,note_on,0,0,1,,,,,,,,0,,,70,0
90672,note_on,0,0,1,,,,,,,,0,,,75,0
90672,note_on,0,0,1,,,,,,,,0,,,67,0
90708,note_on,48,0,4,,,,,,,,0,,,46,0
90720,note_on,0,0,1,,,,,,,,0,,,58,104
90720,note_on,48,0,1,,,,,,,,0,,,70,104
90720,note_on,12,0,4,,,,,,,,0,,,46,104
90768,note_on,48,0,4,,,,,,,,0,,,46,0
90780,note_on,12,0,4,,,,,,,,0,,,43,104
90816,note_on,96,0,1,,,,,,,,0,,,58,0
90816,note_on,0,0,1,,,,,,,,0,,,70,0
90828,note_on,48,0,4,,,,,,,,0,,,43,0
90840,note_on,12,0,4,,,,,,,,0,,,39,104
90888,note_on,48,0,4,,,,,,,,0,,,39,0
90900,note_on,0,0,1,,,,,,,,0,,,75,104
90900,note_on,12,0,4,,,,,,,,0,,,31,104
90900,note_on,84,0,1,,,,,,,,0,,,87,104
90948,note_on,0,0,1,,,,,,,,0,,,87,0
90948,note_on,48,0,4,,,,,,,,0,,,31,0
90948,note_on,48,0,1,,,,,,,,0,,,75,0
90960,note_on,0,0,1,,,,,,,,0,,,85,104
90960,control_change,12,0,4,,,,,,,,0,64,0,,
90960,note_on,0,0,1,,,,,,,,0,,,76,104
90960,note_on,0,0,4,,,,,,,,0,,,31,120
90960,note_on,12,0,1,,,,,,,,0,,,88,104
90964,set_tempo,323,1,0,,,,,,464324,,,,,,
90984,set_tempo,20,1,0,,,,,,460794,,,,,,
90990,control_change,30,0,4,,,,,,,,0,64,127,,
91008,note_on,18,0,4,,,,,,,,0,,,31,0
91020,note_on,12,0,4,,,,,,,,0,,,40,104
91054,set_tempo,70,1,0,,,,,,457317,,,,,,
91068,note_on,48,0,4,,,,,,,,0,,,40,0
91080,note_on,12,0,4,,,,,,,,0,,,43,104
91124,set_tempo,70,1,0,,,,,,453892,,,,,,
91128,note_on,48,0,4,,,,,,,,0,,,43,0
91140,note_on,12,0,4,,,,,,,,0,,,49,105
91152,note_on,0,0,1,,,,,,,,0,,,88,0
91152,note_on,0,0,1,,,,,,,,0,,,85,0
91152,note_on,192,0,1,,,,,,,,0,,,76,0
91188,note_on,48,0,4,,,,,,,,0,,,49,0
91194,set_tempo,70,1,0,,,,,,450518,,,,,,
91200,note_on,0,0,1,,,,,,,,0,,,85,105
91200,note_on,12,0,4,,,,,,,,0,,,49,105
91200,note_on,48,0,1,,,,,,,,0,,,73,105
91204,set_tempo,10,1,0,,,,,,428235,,,,,,
91248,note_on,48,0,4,,,,,,,,0,,,49,0
91260,note_on,12,0,4,,,,,,,,0,,,43,105
91296,note_on,96,0,1,,,,,,,,0,,,85,0
91296,note_on,0,0,1,,,,,,,,0,,,73,0
91308,note_on,48,0,4,,,,,,,,0,,,43,0
91320,note_on,12,0,4,,,,,,,,0,,,40,106
91368,note_on,48,0,4,,,,,,,,0,,,40,0
91380,note_on,12,0,4,,,,,,,,0,,,31,106
91380,note_on,0,0,1,,,,,,,,0,,,76,106
91380,note_on,84,0,1,,,,,,,,0,,,64,106
91428,note_on,48,0,4,,,,,,,,0,,,31,0
91428,note_on,0,0,1,,,,,,,,0,,,64,0
91428,note_on,48,0,1,,,,,,,,0,,,76,0
91440,note_on,0,0,1,,,,,,,,0,,,73,106
91440,note_on,0,0,1,,,,,,,,0,,,76,106
91440,note_on,12,0,1,,,,,,,,0,,,64,106
91440,note_on,12,0,4,,,,,,,,0,,,32,127
91445,control_change,5,0,4,,,,,,,,0,64,0,,
91480,control_change,35,0,4,,,,,,,,0,64,127,,
91488,note_on,8,0,4,,,,,,,,0,,,32,0
91500,note_on,12,0,4,,,,,,,,0,,,40,106
91548,note_on,48,0,4,,,,,,,,0,,,40,0
91560,note_on,12,0,4,,,,,,,,0,,,44,107
91608,note_on,48,0,4,,,,,,,,0,,,44,0
91620,note_on,12,0,4,,,,,,,,0,,,49,107
91632,note_on,0,0,1,,,,,,,,0,,,73,0
91632,note_on,0,0,1,,,,,,,,0,,,64,0
91632,note_on,192,0,1,,,,,,,,0,,,76,0
91668,note_on,48,0,4,,,,,,,,0,,,49,0
91680,note_on,0,0,1,,,,,,,,0,,,73,107
91680,note_on,12,0,4,,,,,,,,0,,,33,127
91680,note_on,48,0,1,,,,,,,,0,,,61,107
91690,control_change,10,0,4,,,,,,,,0,64,0,,
91710,control_change,20,0,4,,,,,,,,0,64,127,,
91728,note_on,18,0,4,,,,,,,,0,,,33,0
91740,note_on,12,0,4,,,,,,,,0,,,40,107
91776,note_on,0,0,1,,,,,,,,0,,,61,0
91776,note_on,96,0,1,,,,,,,,0,,,73,0
91788,note_on,48,0,4,,,,,,,,0,,,40,0
91800,note_on,12,0,4,,,,,,,,0,,,45,108
91848,note_on,48,0,4,,,,,,,,0,,,45,0
91860,note_on,84,0,1,,,,,,,,0,,,88,108
91860,note_on,12,0,4,,,,,,,,0,,,49,108
91860,note_on,0,0,1,,,,,,,,0,,,76,108
91908,note_on,48,0,4,,,,,,,,0,,,49,0
91908,note_on,48,0,1,,,,,,,,0,,,76,0
91908,note_on,0,0,1,,,,,,,,0,,,88,0
91920,note_on,0,0,1,,,,,,,,0,,,79,108
91920,note_on,0,0,1,,,,,,,,0,,,88,108
91920,note_on,12,0,1,,,,,,,,0,,,91,108
91920,control_change,12,0,4,,,,,,,,0,64,0,,
91920,note_on,0,0,4,,,,,,,,0,,,34,127
91950,control_change,30,0,4,,,,,,,,0,64,127,,
91968,note_on,18,0,4,,,,,,,,0,,,34,0
91980,note_on,12,0,4,,,,,,,,0,,,43,108
92028,note_on,48,0,4,,,,,,,,0,,,43,0
92040,note_on,12,0,4,,,,,,,,0,,,46,108
92088,note_on,48,0,4,,,,,,,,0,,,46,0
92100,note_on,12,0,4,,,,,,,,0,,,52,108
92112,note_on,0,0,1,,,,,,,,0,,,88,0
92112,note_on,0,0,1,,,,,,,,0,,,91,0
92112,note_on,192,0,1,,,,,,,,0,,,79,0
92148,note_on,48,0,4,,,,,,,,0,,,52,0
92155,control_change,7,0,4,,,,,,,,0,64,0,,
92160,note_on,5,0,4,,,,,,,,0,,,35,127
92160,note_on,0,0,1,,,,,,,,0,,,88,108
92160,note_on,48,0,1,,,,,,,,0,,,76,108
92195,control_change,35,0,4,,,,,,,,0,64,127,,
92208,note_on,13,0,4,,,,,,,,0,,,35,0
92220,note_on,12,0,4,,,,,,,,0,,,43,109
92256,note_on,96,0,1,,,,,,,,0,,,88,0
92256,note_on,0,0,1,,,,,,,,0,,,76,0
92268,note_on,48,0,4,,,,,,,,0,,,43,0
92280,note_on,12,0,4,,,,,,,,0,,,47,109
92328,note_on,48,0,4,,,,,,,,0,,,47,0
92340,note_on,0,0,1,,,,,,,,0,,,76,109
92340,note_on,84,0,1,,,,,,,,0,,,64,109
92340,note_on,12,0,4,,,,,,,,0,,,52,109
92388,note_on,48,0,1,,,,,,,,0,,,76,0
92388,note_on,48,0,4,,,,,,,,0,,,52,0
92388,note_on,0,0,1,,,,,,,,0,,,64,0
92395,control_change,7,0,4,,,,,,,,0,64,0,,
92400,note_on,5,0,4,,,,,,,,0,,,36,127
92400,note_on,0,0,1,,,,,,,,0,,,67,109
92400,note_on,12,0,1,,,,,,,,0,,,79,109
92400,note_on,0,0,1,,,,,,,,0,,,76,109
92420,control_change,20,0,4,,,,,,,,0,64,127,,
92448,note_on,28,0,4,,,,,,,,0,,,36,0
92460,note_on,12,0,4,,,,,,,,0,,,46,110
92508,note_on,48,0,4,,,,,,,,0,,,46,0
92520,note_on,12,0,4,,,,,,,,0,,,48,110
92568,note_on,48,0,4,,,,,,,,0,,,48,0
92580,note_on,12,0,4,,,,,,,,0,,,55,110
92592,note_on,192,0,1,,,,,,,,0,,,67,0
92592,note_on,0,0,1,,,,,,,,0,,,76,0
92592,note_on,0,0,1,,,,,,,,0,,,79,0
92628,note_on,48,0,4,,,,,,,,0,,,55,0
92640,note_on,12,0,4,,,,,,,,0,,,37,127
92640,note_on,48,0,1,,,,,,,,0,,,64,110
92640,note_on,0,0,1,,,,,,,,0,,,76,110
92645,control_change,5,0,4,,,,,,,,0,64,0,,
92670,control_change,25,0,4,,,,,,,,0,64,127,,
92688,note_on,18,0,4,,,,,,,,0,,,37,0
92700,note_on,12,0,4,,,,,,,,0,,,46,111
92736,note_on,0,0,1,,,,,,,,0,,,64,0
92736,note_on,96,0,1,,,,,,,,0,,,76,0
92748,note_on,48,0,4,,,,,,,,0,,,46,0
92760,note_on,12,0,4,,,,,,,,0,,,49,111
92808,note_on,48,0,4,,,,,,,,0,,,49,0
92820,note_on,12,0,4,,,,,,,,0,,,55,111
92868,note_on,48,0,4,,,,,,,,0,,,55,0
92875,set_tempo,1671,1,0,,,,,,431282,,,,,,
92880,note_on,12,0,4,,,,,,,,0,,,38,110
92880,set_tempo,5,1,0,,,,,,498712,,,,,,
92880,note_on,144,0,1,,,,,,,,0,,,83,110
92880,control_change,0,0,4,,,,,,,,0,64,0,,
92880,note_on,0,0,1,,,,,,,,0,,,95,110
92880,note_on,0,0,1,,,,,,,,0,,,91,110
92880,note_on,0,0,4,,,,,,,,0,,,47,110
92880,note_on,0,0,4,,,,,,,,0,,,50,110
92893,set_tempo,13,1,0,,,,,,494641,,,,,,
92906,set_tempo,13,1,0,,,,,,490637,,,,,,
92910,control_change,30,0,4,,,,,,,,0,64,127,,
92915,set_tempo,9,1,0,,,,,,486697,,,,,,
92928,set_tempo,13,1,0,,,,,,482820,,,,,,
92941,set_tempo,13,1,0,,,,,,479004,,,,,,
92949,set_tempo,8,1,0,,,,,,475248,,,,,,
92963,set_tempo,14,1,0,,,,,,471550,,,,,,
92971,set_tempo,8,1,0,,,,,,467909,,,,,,
92976,note_on,0,0,1,,,,,,,,0,,,83,0
92976,note_on,0,0,1,,,,,,,,0,,,95,0
92976,note_on,96,0,1,,,,,,,,0,,,91,0
92976,note_on,66,0,4,,,,,,,,0,,,47,0
92976,note_on,0,0,4,,,,,,,,0,,,38,0
92976,note_on,0,0,4,,,,,,,,0,,,50,0
92984,set_tempo,13,1,0,,,,,,464324,,,,,,
92997,set_tempo,13,1,0,,,,,,460794,,,,,,
93000,note_on,0,0,4,,,,,,,,0,,,62,110
93000,note_on,24,0,4,,,,,,,,0,,,59,110
93000,note_on,0,0,4,,,,,,,,0,,,67,110
93006,set_tempo,9,1,0,,,,,,457317,,,,,,
93019,set_tempo,13,1,0,,,,,,453892,,,,,,
93028,set_tempo,9,1,0,,,,,,450518,,,,,,
93041,set_tempo,13,1,0,,,,,,447194,,,,,,
93054,set_tempo,13,1,0,,,,,,443918,,,,,,
93060,note_on,84,0,1,,,,,,,,0,,,91,110
93060,note_on,0,0,1,,,,,,,,0,,,83,110
93060,note_on,0,0,1,,,,,,,,0,,,79,110
93063,set_tempo,9,1,0,,,,,,440690,,,,,,
93076,set_tempo,13,1,0,,,,,,437509,,,,,,
93085,set_tempo,9,1,0,,,,,,434373,,,,,,
93096,note_on,96,0,4,,,,,,,,0,,,67,0
93096,note_on,0,0,4,,,,,,,,0,,,62,0
93096,note_on,0,0,4,,,,,,,,0,,,59,0
93098,set_tempo,13,1,0,,,,,,431282,,,,,,
93111,set_tempo,13,1,0,,,,,,428235,,,,,,
93120,note_on,0,0,4,,,,,,,,0,,,55,110
93120,note_on,24,0,4,,,,,,,,0,,,62,110
93120,set_tempo,9,1,0,,,,,,425230,,,,,,
93120,note_on,0,0,4,,,,,,,,0,,,59,110
93133,set_tempo,13,1,0,,,,,,422268,,,,,,
93146,set_tempo,13,1,0,,,,,,419346,,,,,,
93155,set_tempo,9,1,0,,,,,,416464,,,,,,
93156,note_on,0,0,1,,,,,,,,0,,,83,0
93156,note_on,96,0,1,,,,,,,,0,,,79,0
93156,note_on,0,0,1,,,,,,,,0,,,91,0
93168,set_tempo,13,1,0,,,,,,413622,,,,,,
93176,set_tempo,8,1,0,,,,,,410818,,,,,,
93180,note_on,0,0,1,,,,,,,,0,,,86,110
93180,note_on,0,0,1,,,,,,,,0,,,83,110
93180,note_on,24,0,1,,,,,,,,0,,,74,110
93189,set_tempo,13,1,0,,,,,,408052,,,,,,
93203,set_tempo,14,1,0,,,,,,405323,,,,,,
93211,set_tempo,8,1,0,,,,,,402631,,,,,,
93216,note_on,96,0,4,,,,,,,,0,,,55,0
93216,note_on,0,0,4,,,,,,,,0,,,62,0
93216,note_on,0,0,4,,,,,,,,0,,,59,0
93224,set_tempo,13,1,0,,,,,,399973,,,,,,
93233,set_tempo,9,1,0,,,,,,397351,,,,,,
93240,note_on,0,0,4,,,,,,,,0,,,55,110
93240,note_on,0,0,4,,,,,,,,0,,,50,110
93240,note_on,24,0,4,,,,,,,,0,,,59,110
93246,set_tempo,13,1,0,,,,,,394763,,,,,,
93259,set_tempo,13,1,0,,,,,,392208,,,,,,
93268,set_tempo,9,1,0,,,,,,389686,,,,,,
93276,note_on,0,0,1,,,,,,,,0,,,74,0
93276,note_on,96,0,1,,,,,,,,0,,,86,0
93276,note_on,0,0,1,,,,,,,,0,,,83,0
93281,set_tempo,13,1,0,,,,,,387197,,,,,,
93290,set_tempo,9,1,0,,,,,,384739,,,,,,
93300,note_on,24,0,1,,,,,,,,0,,,83,110
93300,note_on,0,0,1,,,,,,,,0,,,71,110
93300,note_on,0,0,1,,,,,,,,0,,,79,110
93303,set_tempo,13,1,0,,,,,,382312,,,,,,
93316,set_tempo,13,1,0,,,,,,379915,,,,,,
93325,set_tempo,9,1,0,,,,,,377548,,,,,,
93336,note_on,96,0,4,,,,,,,,0,,,55,0
93336,note_on,0,0,4,,,,,,,,0,,,59,0
93336,note_on,0,0,4,,,,,,,,0,,,50,0
93338,set_tempo,13,1,0,,,,,,375211,,,,,,
93347,set_tempo,9,1,0,,,,,,372902,,,,,,
93360,note_on,0,0,4,,,,,,,,0,,,58,110
93360,note_on,24,0,4,,,,,,,,0,,,54,110
93360,note_on,0,0,4,,,,,,,,0,,,50,110
93396,note_on,0,0,1,,,,,,,,0,,,83,0
93396,note_on,0,0,1,,,,,,,,0,,,71,0
93396,note_on,96,0,1,,,,,,,,0,,,79,0
93420,note_on,24,0,1,,,,,,,,0,,,78,110
93420,note_on,0,0,1,,,,,,,,0,,,70,110
93420,note_on,0,0,1,,,,,,,,0,,,82,110
93456,note_on,96,0,4,,,,,,,,0,,,58,0
93456,note_on,0,0,4,,,,,,,,0,,,54,0
93456,note_on,0,0,4,,,,,,,,0,,,50,0
93480,note_on,0,0,4,,,,,,,,0,,,59,110
93480,note_on,0,0,4,,,,,,,,0,,,55,110
93480,note_on,24,0,4,,,,,,,,0,,,50,110
93516,note_on,96,0,1,,,,,,,,0,,,70,0
93516,note_on,0,0,1,,,,,,,,0,,,82,0
93516,note_on,0,0,1,,,,,,,,0,,,78,0
93540,note_on,24,0,1,,,,,,,,0,,,71,110
93540,note_on,0,0,1,,,,,,,,0,,,83,110
93540,note_on,0,0,1,,,,,,,,0,,,79,110
93576,note_on,0,0,4,,,,,,,,0,,,50,0
93576,note_on,0,0,4,,,,,,,,0,,,55,0
93576,note_on,96,0,4,,,,,,,,0,,,59,0
93600,note_on,0,0,4,,,,,,,,0,,,50,110
93600,note_on,24,0,4,,,,,,,,0,,,60,110
93600,note_on,0,0,4,,,,,,,,0,,,57,110
93636,note_on,0,0,1,,,,,,,,0,,,79,0
93636,note_on,96,0,1,,,,,,,,0,,,83,0
93636,note_on,0,0,1,,,,,,,,0,,,71,0
93660,note_on,24,0,1,,,,,,,,0,,,84,110
93660,note_on,0,0,1,,,,,,,,0,,,81,110
93660,note_on,0,0,1,,,,,,,,0,,,72,110
93696,note_on,0,0,4,,,,,,,,0,,,60,0
93696,note_on,0,0,4,,,,,,,,0,,,50,0
93696,note_on,96,0,4,,,,,,,,0,,,57,0
93720,note_on,0,0,4,,,,,,,,0,,,61,110
93720,note_on,0,0,4,,,,,,,,0,,,58,110
93720,note_on,24,0,4,,,,,,,,0,,,50,110
93756,note_on,96,0,1,,,,,,,,0,,,72,0
93756,note_on,0,0,1,,,,,,,,0,,,84,0
93756,note_on,0,0,1,,,,,,,,0,,,81,0
93780,note_on,24,0,1,,,,,,,,0,,,82,110
93780,note_on,0,0,1,,,,,,,,0,,,73,110
93780,note_on,0,0,1,,,,,,,,0,,,85,110
93816,note_on,0,0,4,,,,,,,,0,,,50,0
93816,note_on,0,0,4,,,,,,,,0,,,61,0
93816,note_on,96,0,4,,,,,,,,0,,,58,0
93840,note_on,0,0,4,,,,,,,,0,,,62,110
93840,note_on,24,0,4,,,,,,,,0,,,59,110
93840,set_tempo,493,1,0,,,,,,370622,,,,,,
93840,note_on,0,0,4,,,,,,,,0,,,50,110
93853,set_tempo,13,1,0,,,,,,377548,,,,,,
93879,set_tempo,26,1,0,,,,,,379915,,,,,,
93888,note_on,108,0,1,,,,,,,,0,,,85,0
93888,note_on,0,0,1,,,,,,,,0,,,73,0
93888,note_on,0,0,1,,,,,,,,0,,,82,0
93900,note_on,12,0,1,,,,,,,,0,,,86,110
93900,note_on,0,0,1,,,,,,,,0,,,74,110
93900,note_on,0,0,1,,,,,,,,0,,,83,110
93901,set_tempo,22,1,0,,,,,,382312,,,,,,
93927,set_tempo,26,1,0,,,,,,384739,,,,,,
93936,note_on,0,0,4,,,,,,,,0,,,59,0
93936,note_on,0,0,4,,,,,,,,0,,,50,0
93936,note_on,96,0,4,,,,,,,,0,,,62,0
93949,set_tempo,22,1,0,,,,,,387197,,,,,,
93960,note_on,0,0,4,,,,,,,,0,,,64,110
93960,note_on,24,0,4,,,,,,,,0,,,50,110
93960,note_on,0,0,4,,,,,,,,0,,,60,110
93975,set_tempo,26,1,0,,,,,,389686,,,,,,
93996,note_on,96,0,1,,,,,,,,0,,,83,0
93996,note_on,0,0,1,,,,,,,,0,,,74,0
93996,note_on,0,0,1,,,,,,,,0,,,86,0
93997,set_tempo,22,1,0,,,,,,392208,,,,,,
94020,note_on,24,0,1,,,,,,,,0,,,84,110
94020,note_on,0,0,1,,,,,,,,0,,,88,110
94020,note_on,0,0,1,,,,,,,,0,,,76,110
94023,set_tempo,26,1,0,,,,,,394763,,,,,,
94045,set_tempo,22,1,0,,,,,,397351,,,,,,
94056,note_on,96,0,4,,,,,,,,0,,,64,0
94056,note_on,0,0,4,,,,,,,,0,,,60,0
94056,note_on,0,0,4,,,,,,,,0,,,50,0
94071,set_tempo,26,1,0,,,,,,399973,,,,,,
94080,note_on,0,0,2,,,,,,,,0,,,62,110
94080,note_on,17532,0,2,,,,,,,,0,,,66,110
94097,set_tempo,26,1,0,,,,,,402631,,,,,,
94116,note_on,0,0,1,,,,,,,,0,,,76,0
94116,note_on,96,0,1,,,,,,,,0,,,88,0
94116,note_on,0,0,1,,,,,,,,0,,,84,0
94119,set_tempo,22,1,0,,,,,,405323,,,,,,
94140,note_on,0,0,1,,,,,,,,0,,,86,110
94140,note_on,0,0,1,,,,,,,,0,,,78,110
94140,note_on,24,0,1,,,,,,,,0,,,90,110
94145,set_tempo,26,1,0,,,,,,408052,,,,,,
94167,set_tempo,22,1,0,,,,,,410818,,,,,,
94176,note_on,96,0,2,,,,,,,,0,,,62,0
94176,note_on,0,0,2,,,,,,,,0,,,66,0
94193,set_tempo,26,1,0,,,,,,413622,,,,,,
94200,note_on,24,0,2,,,,,,,,0,,,62,110
94200,note_on,0,0,2,,,,,,,,0,,,64,110
94200,note_on,0,0,2,,,,,,,,0,,,67,110
94215,set_tempo,22,1,0,,,,,,416464,,,,,,
94236,note_on,0,0,1,,,,,,,,0,,,78,0
94236,note_on,0,0,1,,,,,,,,0,,,90,0
94236,note_on,96,0,1,,,,,,,,0,,,86,0
94241,set_tempo,26,1,0,,,,,,419346,,,,,,
94260,note_on,0,0,1,,,,,,,,0,,,79,110
94260,note_on,0,0,1,,,,,,,,0,,,91,110
94260,note_on,24,0,1,,,,,,,,0,,,88,110
94263,set_tempo,22,1,0,,,,,,422268,,,,,,
94289,set_tempo,26,1,0,,,,,,425230,,,,,,
94296,note_on,0,0,2,,,,,,,,0,,,62,0
94296,note_on,0,0,2,,,,,,,,0,,,67,0
94296,note_on,96,0,2,,,,,,,,0,,,64,0
94311,set_tempo,22,1,0,,,,,,428235,,,,,,
94320,note_on,0,0,2,,,,,,,,0,,,62,110
94320,note_on,0,0,2,,,,,,,,0,,,66,110
94320,note_on,24,0,2,,,,,,,,0,,,69,110
94324,set_tempo,13,1,0,,,,,,425230,,,,,,
94337,set_tempo,13,1,0,,,,,,428235,,,,,,
94346,set_tempo,9,1,0,,,,,,431282,,,,,,
94355,set_tempo,9,1,0,,,,,,434373,,,,,,
94356,note_on,96,0,1,,,,,,,,0,,,79,0
94356,note_on,0,0,1,,,,,,,,0,,,88,0
94356,note_on,0,0,1,,,,,,,,0,,,91,0
94363,set_tempo,8,1,0,,,,,,437509,,,,,,
94372,set_tempo,9,1,0,,,,,,440690,,,,,,
94380,note_on,0,0,1,,,,,,,,0,,,93,110
94380,note_on,0,0,1,,,,,,,,0,,,90,110
94380,note_on,24,0,1,,,,,,,,0,,,81,110
94381,set_tempo,9,1,0,,,,,,443918,,,,,,
94389,set_tempo,8,1,0,,,,,,447194,,,,,,
94398,set_tempo,9,1,0,,,,,,450518,,,,,,
94407,set_tempo,9,1,0,,,,,,453892,,,,,,
94416,note_on,96,0,2,,,,,,,,0,,,62,0
94416,note_on,0,0,2,,,,,,,,0,,,69,0
94416,note_on,0,0,2,,,,,,,,0,,,66,0
94420,set_tempo,13,1,0,,,,,,457317,,,,,,
94429,set_tempo,9,1,0,,,,,,460794,,,,,,
94437,set_tempo,8,1,0,,,,,,464324,,,,,,
94440,note_on,24,0,2,,,,,,,,0,,,62,110
94440,note_on,0,0,2,,,,,,,,0,,,67,110
94440,note_on,0,0,2,,,,,,,,0,,,71,110
94446,set_tempo,9,1,0,,,,,,467909,,,,,,
94455,set_tempo,9,1,0,,,,,,471550,,,,,,
94464,set_tempo,9,1,0,,,,,,475248,,,,,,
94472,set_tempo,8,1,0,,,,,,479004,,,,,,
94476,note_on,96,0,1,,,,,,,,0,,,90,0
94476,note_on,0,0,1,,,,,,,,0,,,81,0
94476,note_on,0,0,1,,,,,,,,0,,,93,0
94481,set_tempo,9,1,0,,,,,,482820,,,,,,
94490,set_tempo,9,1,0,,,,,,486697,,,,,,
94500,note_on,0,0,1,,,,,,,,0,,,95,110
94500,note_on,24,0,1,,,,,,,,0,,,83,110
94500,note_on,0,0,1,,,,,,,,0,,,91,110
94503,set_tempo,13,1,0,,,,,,490637,,,,,,
94512,set_tempo,9,1,0,,,,,,494641,,,,,,
94520,set_tempo,8,1,0,,,,,,498712,,,,,,
94529,set_tempo,9,1,0,,,,,,502849,,,,,,
94536,note_on,96,0,2,,,,,,,,0,,,71,0
94536,note_on,0,0,2,,,,,,,,0,,,62,0
94536,note_on,0,0,2,,,,,,,,0,,,67,0
94538,set_tempo,9,1,0,,,,,,507057,,,,,,
94547,set_tempo,9,1,0,,,,,,511335,,,,,,
94555,set_tempo,8,1,0,,,,,,515685,,,,,,
94560,note_on,24,0,2,,,,,,,,0,,,69,110
94560,note_on,0,0,2,,,,,,,,0,,,62,110
94560,note_on,0,0,2,,,,,,,,0,,,72,110
94564,set_tempo,9,1,0,,,,,,520111,,,,,,
94573,set_tempo,9,1,0,,,,,,524613,,,,,,
94586,set_tempo,13,1,0,,,,,,529194,,,,,,
94595,set_tempo,9,1,0,,,,,,533855,,,,,,
94596,note_on,96,0,1,,,,,,,,0,,,95,0
94596,note_on,0,0,1,,,,,,,,0,,,83,0
94596,note_on,0,0,1,,,,,,,,0,,,91,0
94603,set_tempo,8,1,0,,,,,,538600,,,,,,
94612,set_tempo,9,1,0,,,,,,543429,,,,,,
94620,note_on,0,0,1,,,,,,,,0,,,96,110
94620,note_on,24,0,1,,,,,,,,0,,,93,110
94620,note_on,0,0,1,,,,,,,,0,,,84,110
94621,set_tempo,9,1,0,,,,,,548346,,,,,,
94629,set_tempo,8,1,0,,,,,,553352,,,,,,
94638,set_tempo,9,1,0,,,,,,558451,,,,,,
94647,set_tempo,9,1,0,,,,,,563645,,,,,,
94656,set_tempo,9,1,0,,,,,,568936,,,,,,
94656,note_on,0,0,2,,,,,,,,0,,,72,0
94656,note_on,0,0,2,,,,,,,,0,,,69,0
94656,note_on,96,0,2,,,,,,,,0,,,62,0
94669,set_tempo,13,1,0,,,,,,574328,,,,,,
94677,set_tempo,8,1,0,,,,,,579822,,,,,,
94680,note_on,624,0,4,,,,,,,,0,,,38,127
94680,note_on,0,0,4,,,,,,,,0,,,50,127
94686,set_tempo,9,1,0,,,,,,585423,,,,,,
94695,set_tempo,9,1,0,,,,,,591133,,,,,,
94704,set_tempo,9,1,0,,,,,,596956,,,,,,
94712,set_tempo,8,1,0,,,,,,602894,,,,,,
94716,note_on,0,0,1,,,,,,,,0,,,93,0
94716,note_on,0,0,1,,,,,,,,0,,,84,0
94716,note_on,96,0,1,,,,,,,,0,,,96,0
94721,set_tempo,9,1,0,,,,,,608952,,,,,,
94730,set_tempo,9,1,0,,,,,,615132,,,,,,
94739,set_tempo,9,1,0,,,,,,621440,,,,,,
94747,set_tempo,8,1,0,,,,,,627878,,,,,,
94776,note_on,96,0,4,,,,,,,,0,,,50,0
94776,note_on,0,0,4,,,,,,,,0,,,38,0
94800,control_change,24,0,4,,,,,,,,0,64,0,,
94800,note_on,0,0,4,,,,,,,,0,,,39,127
94800,note_on,0,0,4,,,,,,,,0,,,51,127
94827,control_change,27,0,4,,,,,,,,0,64,127,,
94860,note_on,0,0,1,,,,,,,,0,,,92,110
94860,note_on,0,0,1,,,,,,,,0,,,84,110
94860,note_on,144,0,1,,,,,,,,0,,,96,110
94865,set_tempo,118,1,0,,,,,,615132,,,,,,
94874,set_tempo,9,1,0,,,,,,608952,,,,,,
94883,set_tempo,9,1,0,,,,,,602894,,,,,,
94891,set_tempo,8,1,0,,,,,,596956,,,,,,
94896,note_on,0,0,4,,,,,,,,0,,,39,0
94896,note_on,69,0,4,,,,,,,,0,,,51,0
94900,set_tempo,9,1,0,,,,,,591133,,,,,,
94909,set_tempo,9,1,0,,,,,,585423,,,,,,
94913,set_tempo,4,1,0,,,,,,579822,,,,,,
94920,note_on,24,0,4,,,,,,,,0,,,63,110
94920,note_on,0,0,4,,,,,,,,0,,,68,110
94920,note_on,0,0,4,,,,,,,,0,,,60,110
94922,set_tempo,9,1,0,,,,,,574328,,,,,,
94931,set_tempo,9,1,0,,,,,,568936,,,,,,
94939,set_tempo,8,1,0,,,,,,563645,,,,,,
94948,set_tempo,9,1,0,,,,,,558451,,,,,,
94956,note_on,0,0,1,,,,,,,,0,,,96,0
94956,note_on,0,0,1,,,,,,,,0,,,92,0
94956,note_on,96,0,1,,,,,,,,0,,,84,0
94957,set_tempo,9,1,0,,,,,,553352,,,,,,
94961,set_tempo,4,1,0,,,,,,548346,,,,,,
94970,set_tempo,9,1,0,,,,,,543429,,,,,,
94979,set_tempo,9,1,0,,,,,,538600,,,,,,
94980,note_on,24,0,1,,,,,,,,0,,,92,110
94980,note_on,0,0,1,,,,,,,,0,,,84,110
94980,note_on,0,0,1,,,,,,,,0,,,80,110
94987,set_tempo,8,1,0,,,,,,533855,,,,,,
94996,set_tempo,9,1,0,,,,,,529194,,,,,,
95000,set_tempo,4,1,0,,,,,,524613,,,,,,
95009,set_tempo,9,1,0,,,,,,520111,,,,,,
95016,note_on,0,0,4,,,,,,,,0,,,60,0
95016,note_on,0,0,4,,,,,,,,0,,,63,0
95016,note_on,96,0,4,,,,,,,,0,,,68,0
95018,set_tempo,9,1,0,,,,,,515685,,,,,,
95027,set_tempo,9,1,0,,,,,,511335,,,,,,
95035,set_tempo,8,1,0,,,,,,507057,,,,,,
95040,note_on,24,0,4,,,,,,,,0,,,63,110
95040,note_on,0,0,4,,,,,,,,0,,,56,110
95040,note_on,0,0,4,,,,,,,,0,,,60,110
95044,set_tempo,9,1,0,,,,,,502849,,,,,,
95048,set_tempo,4,1,0,,,,,,498712,,,,,,
95057,set_tempo,9,1,0,,,,,,494641,,,,,,
95066,set_tempo,9,1,0,,,,,,490637,,,,,,
95075,set_tempo,9,1,0,,,,,,486697,,,,,,
95076,note_on,0,0,1,,,,,,,,0,,,92,0
95076,note_on,0,0,1,,,,,,,,0,,,80,0
95076,note_on,96,0,1,,,,,,,,0,,,84,0
95083,set_tempo,8,1,0,,,,,,482820,,,,,,
95088,set_tempo,5,1,0,,,,,,479004,,,,,,
95096,set_tempo,8,1,0,,,,,,475248,,,,,,
95100,note_on,0,0,1,,,,,,,,0,,,87,110
95100,note_on,24,0,1,,,,,,,,0,,,75,110
95100,note_on,0,0,1,,,,,,,,0,,,84,110
95105,set_tempo,9,1,0,,,,,,471550,,,,,,
95114,set_tempo,9,1,0,,,,,,467909,,,,,,
95123,set_tempo,9,1,0,,,,,,464324,,,,,,
95131,set_tempo,8,1,0,,,,,,460794,,,,,,
95136,note_on,0,0,4,,,,,,,,0,,,60,0
95136,note_on,0,0,4,,,,,,,,0,,,63,0
95136,set_tempo,5,1,0,,,,,,457317,,,,,,
95136,note_on,96,0,4,,,,,,,,0,,,56,0
95144,set_tempo,8,1,0,,,,,,453892,,,,,,
95153,set_tempo,9,1,0,,,,,,450518,,,,,,
95160,note_on,24,0,4,,,,,,,,0,,,56,110
95160,note_on,0,0,4,,,,,,,,0,,,60,110
95160,note_on,0,0,4,,,,,,,,0,,,51,110
95162,set_tempo,9,1,0,,,,,,447194,,,,,,
95171,set_tempo,9,1,0,,,,,,443918,,,,,,
95175,set_tempo,4,1,0,,,,,,440690,,,,,,
95184,set_tempo,9,1,0,,,,,,437509,,,,,,
95188,set_tempo,4,1,0,,,,,,434373,,,,,,
95192,set_tempo,4,1,0,,,,,,431282,,,,,,
95196,note_on,96,0,1,,,,,,,,0,,,87,0
95196,note_on,0,0,1,,,,,,,,0,,,75,0
95196,note_on,0,0,1,,,,,,,,0,,,84,0
95197,set_tempo,5,1,0,,,,,,425230,,,,,,
95201,set_tempo,4,1,0,,,,,,422268,,,,,,
95205,set_tempo,4,1,0,,,,,,416464,,,,,,
95210,set_tempo,5,1,0,,,,,,413622,,,,,,
95214,set_tempo,4,1,0,,,,,,410818,,,,,,
95219,set_tempo,5,1,0,,,,,,405323,,,,,,
95220,note_on,24,0,1,,,,,,,,0,,,84,110
95220,note_on,0,0,1,,,,,,,,0,,,72,110
95220,note_on,0,0,1,,,,,,,,0,,,80,110
95223,set_tempo,4,1,0,,,,,,402631,,,,,,
95227,set_tempo,4,1,0,,,,,,397351,,,,,,
95232,set_tempo,5,1,0,,,,,,394763,,,,,,
95236,set_tempo,4,1,0,,,,,,392208,,,,,,
95240,set_tempo,4,1,0,,,,,,387197,,,,,,
95245,set_tempo,5,1,0,,,,,,384739,,,,,,
95249,set_tempo,4,1,0,,,,,,379915,,,,,,
95256,note_on,0,0,4,,,,,,,,0,,,51,0
95256,note_on,96,0,4,,,,,,,,0,,,60,0
95256,note_on,0,0,4,,,,,,,,0,,,56,0
95280,note_on,0,0,4,,,,,,,,0,,,51,110
95280,note_on,0,0,4,,,,,,,,0,,,59,110
95280,note_on,24,0,4,,,,,,,,0,,,55,110
95316,note_on,96,0,1,,,,,,,,0,,,80,0
95316,note_on,0,0,1,,,,,,,,0,,,84,0
95316,note_on,0,0,1,,,,,,,,0,,,72,0
95340,note_on,0,0,1,,,,,,,,0,,,83,110
95340,note_on,0,0,1,,,,,,,,0,,,79,110
95340,note_on,24,0,1,,,,,,,,0,,,71,110
95376,note_on,96,0,4,,,,,,,,0,,,51,0
95376,note_on,0,0,4,,,,,,,,0,,,59,0
95376,note_on,0,0,4,,,,,,,,0,,,55,0
95400,note_on,0,0,4,,,,,,,,0,,,56,110
95400,note_on,24,0,4,,,,,,,,0,,,51,110
95400,note_on,0,0,4,,,,,,,,0,,,60,110
95419,set_tempo,170,1,0,,,,,,377548,,,,,,
95436,note_on,96,0,1,,,,,,,,0,,,83,0
95436,note_on,0,0,1,,,,,,,,0,,,79,0
95436,note_on,0,0,1,,,,,,,,0,,,71,0
95460,note_on,0,0,1,,,,,,,,0,,,72,110
95460,note_on,0,0,1,,,,,,,,0,,,80,110
95460,note_on,24,0,1,,,,,,,,0,,,84,110
95496,note_on,0,0,4,,,,,,,,0,,,56,0
95496,note_on,96,0,4,,,,,,,,0,,,60,0
95496,note_on,0,0,4,,,,,,,,0,,,51,0
95520,note_on,24,0,4,,,,,,,,0,,,51,110
95520,note_on,0,0,4,,,,,,,,0,,,58,110
95520,note_on,0,0,4,,,,,,,,0,,,61,110
95556,note_on,96,0,1,,,,,,,,0,,,72,0
95556,note_on,0,0,1,,,,,,,,0,,,84,0
95556,note_on,0,0,1,,,,,,,,0,,,80,0
95580,note_on,24,0,1,,,,,,,,0,,,73,110
95580,note_on,0,0,1,,,,,,,,0,,,82,110
95580,note_on,0,0,1,,,,,,,,0,,,85,110
95589,set_tempo,170,1,0,,,,,,375211,,,,,,
95616,note_on,0,0,4,,,,,,,,0,,,61,0
95616,note_on,96,0,4,,,,,,,,0,,,58,0
95616,note_on,0,0,4,,,,,,,,0,,,51,0
95640,note_on,0,0,4,,,,,,,,0,,,59,110
95640,note_on,24,0,4,,,,,,,,0,,,62,110
95640,note_on,0,0,4,,,,,,,,0,,,51,110
95676,note_on,96,0,1,,,,,,,,0,,,82,0
95676,note_on,0,0,1,,,,,,,,0,,,73,0
95676,note_on,0,0,1,,,,,,,,0,,,85,0
95700,note_on,0,0,1,,,,,,,,0,,,86,110
95700,note_on,0,0,1,,,,,,,,0,,,74,110
95700,note_on,24,0,1,,,,,,,,0,,,83,110
95736,note_on,96,0,4,,,,,,,,0,,,51,0
95736,note_on,0,0,4,,,,,,,,0,,,62,0
95736,note_on,0,0,4,,,,,,,,0,,,59,0
95760,note_on,0,0,4,,,,,,,,0,,,51,110
95760,note_on,24,0,4,,,,,,,,0,,,63,110
95760,set_tempo,171,1,0,,,,,,372902,,,,,,
95760,note_on,0,0,4,,,,,,,,0,,,60,110
95768,set_tempo,8,1,0,,,,,,375211,,,,,,
95790,set_tempo,22,1,0,,,,,,377548,,,,,,
95808,note_on,108,0,1,,,,,,,,0,,,74,0
95808,note_on,0,0,1,,,,,,,,0,,,86,0
95808,note_on,0,0,1,,,,,,,,0,,,83,0
95816,set_tempo,26,1,0,,,,,,379915,,,,,,
95820,note_on,0,0,1,,,,,,,,0,,,75,110
95820,note_on,12,0,1,,,,,,,,0,,,87,110
95820,note_on,0,0,1,,,,,,,,0,,,84,110
95838,set_tempo,22,1,0,,,,,,382312,,,,,,
95856,note_on,0,0,4,,,,,,,,0,,,51,0
95856,note_on,0,0,4,,,,,,,,0,,,63,0
95856,note_on,96,0,4,,,,,,,,0,,,60,0
95860,set_tempo,22,1,0,,,,,,384739,,,,,,
95880,note_on,0,0,4,,,,,,,,0,,,65,110
95880,note_on,24,0,4,,,,,,,,0,,,51,110
95880,note_on,0,0,4,,,,,,,,0,,,61,110
95886,set_tempo,26,1,0,,,,,,387197,,,,,,
95908,set_tempo,22,1,0,,,,,,389686,,,,,,
95916,note_on,96,0,1,,,,,,,,0,,,84,0
95916,note_on,0,0,1,,,,,,,,0,,,87,0
95916,note_on,0,0,1,,,,,,,,0,,,75,0
95930,set_tempo,22,1,0,,,,,,392208,,,,,,
95940,note_on,24,0,1,,,,,,,,0,,,85,110
95940,note_on,0,0,1,,,,,,,,0,,,77,110
95940,note_on,0,0,1,,,,,,,,0,,,89,110
95956,set_tempo,26,1,0,,,,,,394763,,,,,,
95976,note_on,96,0,4,,,,,,,,0,,,65,0
95976,note_on,0,0,4,,,,,,,,0,,,51,0
95976,note_on,0,0,4,,,,,,,,0,,,61,0
95978,set_tempo,22,1,0,,,,,,397351,,,,,,
96000,note_on,0,0,2,,,,,,,,0,,,67,110
96000,note_on,1344,0,2,,,,,,,,0,,,63,110
96004,set_tempo,26,1,0,,,,,,399973,,,,,,
96026,set_tempo,22,1,0,,,,,,402631,,,,,,
96036,note_on,0,0,1,,,,,,,,0,,,77,0
96036,note_on,96,0,1,,,,,,,,0,,,89,0
96036,note_on,0,0,1,,,,,,,,0,,,85,0
96048,set_tempo,22,1,0,,,,,,405323,,,,,,
96060,note_on,0,0,1,,,,,,,,0,,,87,110
96060,note_on,24,0,1,,,,,,,,0,,,79,110
96060,note_on,0,0,1,,,,,,,,0,,,91,110
96074,set_tempo,26,1,0,,,,,,408052,,,,,,
96096,note_on,0,0,2,,,,,,,,0,,,63,0
96096,note_on,96,0,2,,,,,,,,0,,,67,0
96096,set_tempo,22,1,0,,,,,,410818,,,,,,
96117,set_tempo,21,1,0,,,,,,413622,,,,,,
96120,note_on,24,0,2,,,,,,,,0,,,65,110
96120,note_on,0,0,2,,,,,,,,0,,,68,110
96120,note_on,0,0,2,,,,,,,,0,,,63,110
96144,set_tempo,27,1,0,,,,,,416464,,,,,,
96156,note_on,0,0,1,,,,,,,,0,,,87,0
96156,note_on,0,0,1,,,,,,,,0,,,79,0
96156,note_on,96,0,1,,,,,,,,0,,,91,0
96165,set_tempo,21,1,0,,,,,,419346,,,,,,
96180,note_on,0,0,1,,,,,,,,0,,,89,110
96180,note_on,0,0,1,,,,,,,,0,,,80,110
96180,note_on,24,0,1,,,,,,,,0,,,92,110
96187,set_tempo,22,1,0,,,,,,422268,,,,,,
96213,set_tempo,26,1,0,,,,,,425230,,,,,,
96216,note_on,96,0,2,,,,,,,,0,,,68,0
96216,note_on,0,0,2,,,,,,,,0,,,63,0
96216,note_on,0,0,2,,,,,,,,0,,,65,0
96218,set_tempo,5,1,0,,,,,,428235,,,,,,
96231,set_tempo,13,1,0,,,,,,431282,,,,,,
96240,note_on,0,0,2,,,,,,,,0,,,67,110
96240,note_on,24,0,2,,,,,,,,0,,,63,110
96240,set_tempo,9,1,0,,,,,,434373,,,,,,
96240,note_on,0,0,2,,,,,,,,0,,,70,110
96248,set_tempo,8,1,0,,,,,,437509,,,,,,
96257,set_tempo,9,1,0,,,,,,440690,,,,,,
96270,set_tempo,13,1,0,,,,,,443918,,,,,,
96276,note_on,96,0,1,,,,,,,,0,,,80,0
96276,note_on,0,0,1,,,,,,,,0,,,89,0
96276,note_on,0,0,1,,,,,,,,0,,,92,0
96279,set_tempo,9,1,0,,,,,,447194,,,,,,
96288,set_tempo,9,1,0,,,,,,450518,,,,,,
96296,set_tempo,8,1,0,,,,,,453892,,,,,,
96300,note_on,0,0,1,,,,,,,,0,,,94,110
96300,note_on,24,0,1,,,,,,,,0,,,91,110
96300,note_on,0,0,1,,,,,,,,0,,,82,110
96305,set_tempo,9,1,0,,,,,,457317,,,,,,
96318,set_tempo,13,1,0,,,,,,460794,,,,,,
96327,set_tempo,9,1,0,,,,,,464324,,,,,,
96336,note_on,96,0,2,,,,,,,,0,,,67,0
96336,set_tempo,9,1,0,,,,,,467909,,,,,,
96336,note_on,0,0,2,,,,,,,,0,,,70,0
96336,note_on,0,0,2,,,,,,,,0,,,63,0
96344,set_tempo,8,1,0,,,,,,471550,,,,,,
96353,set_tempo,9,1,0,,,,,,475248,,,,,,
96360,note_on,0,0,2,,,,,,,,0,,,63,110
96360,note_on,0,0,2,,,,,,,,0,,,72,110
96360,note_on,24,0,2,,,,,,,,0,,,68,110
96366,set_tempo,13,1,0,,,,,,479004,,,,,,
96375,set_tempo,9,1,0,,,,,,482820,,,,,,
96384,set_tempo,9,1,0,,,,,,486697,,,,,,
96392,set_tempo,8,1,0,,,,,,490637,,,,,,
96396,note_on,96,0,1,,,,,,,,0,,,94,0
96396,note_on,0,0,1,,,,,,,,0,,,82,0
96396,note_on,0,0,1,,,,,,,,0,,,91,0
96401,set_tempo,9,1,0,,,,,,494641,,,,,,
96414,set_tempo,13,1,0,,,,,,498712,,,,,,
96420,note_on,24,0,1,,,,,,,,0,,,92,110
96420,note_on,0,0,1,,,,,,,,0,,,84,110
96420,note_on,0,0,1,,,,,,,,0,,,96,110
96423,set_tempo,9,1,0,,,,,,502849,,,,,,
96432,set_tempo,9,1,0,,,,,,507057,,,,,,
96440,set_tempo,8,1,0,,,,,,511335,,,,,,
96453,set_tempo,13,1,0,,,,,,515685,,,,,,
96456,note_on,0,0,2,,,,,,,,0,,,63,0
96456,note_on,0,0,2,,,,,,,,0,,,68,0
96456,note_on,96,0,2,,,,,,,,0,,,72,0
96462,set_tempo,9,1,0,,,,,,520111,,,,,,
96471,set_tempo,9,1,0,,,,,,524613,,,,,,
96480,set_tempo,9,1,0,,,,,,529194,,,,,,
96480,note_on,24,0,2,,,,,,,,0,,,70,110
96480,note_on,0,0,2,,,,,,,,0,,,63,110
96480,note_on,0,0,2,,,,,,,,0,,,73,110
96488,set_tempo,8,1,0,,,,,,533855,,,,,,
96501,set_tempo,13,1,0,,,,,,538600,,,,,,
96510,set_tempo,9,1,0,,,,,,543429,,,,,,
96516,note_on,0,0,1,,,,,,,,0,,,92,0
96516,note_on,0,0,1,,,,,,,,0,,,84,0
96516,note_on,96,0,1,,,,,,,,0,,,96,0
96519,set_tempo,9,1,0,,,,,,548346,,,,,,
96528,set_tempo,9,1,0,,,,,,553352,,,,,,
96536,set_tempo,8,1,0,,,,,,558451,,,,,,
96540,note_on,0,0,1,,,,,,,,0,,,97,110
96540,note_on,24,0,1,,,,,,,,0,,,94,110
96540,note_on,0,0,1,,,,,,,,0,,,85,110
96549,set_tempo,13,1,0,,,,,,563645,,,,,,
96558,set_tempo,9,1,0,,,,,,568936,,,,,,
96567,set_tempo,9,1,0,,,,,,574328,,,,,,
96576,note_on,96,0,2,,,,,,,,0,,,73,0
96576,note_on,0,0,2,,,,,,,,0,,,70,0
96576,set_tempo,9,1,0,,,,,,579822,,,,,,
96576,note_on,0,0,2,,,,,,,,0,,,63,0
96584,set_tempo,8,1,0,,,,,,585423,,,,,,
96597,set_tempo,13,1,0,,,,,,591133,,,,,,
96600,note_on,624,0,4,,,,,,,,0,,,39,127
96600,note_on,0,0,4,,,,,,,,0,,,51,127
96606,set_tempo,9,1,0,,,,,,596956,,,,,,
96615,set_tempo,9,1,0,,,,,,602894,,,,,,
96624,set_tempo,9,1,0,,,,,,608952,,,,,,
96632,set_tempo,8,1,0,,,,,,615132,,,,,,
96636,note_on,0,0,1,,,,,,,,0,,,94,0
96636,note_on,96,0,1,,,,,,,,0,,,97,0
96636,note_on,0,0,1,,,,,,,,0,,,85,0
96696,note_on,96,0,4,,,,,,,,0,,,51,0
96696,note_on,0,0,4,,,,,,,,0,,,39,0
96720,control_change,24,0,4,,,,,,,,0,64,0,,
96720,note_on,0,0,4,,,,,,,,0,,,52,127
96720,note_on,0,0,4,,,,,,,,0,,,40,127
96759,control_change,39,0,4,,,,,,,,0,64,127,,
96780,note_on,144,0,1,,,,,,,,0,,,97,110
96780,note_on,0,0,1,,,,,,,,0,,,85,110
96780,note_on,0,0,1,,,,,,,,0,,,93,110
96785,set_tempo,153,1,0,,,,,,615132,,,,,,
96794,set_tempo,9,1,0,,,,,,608952,,,,,,
96803,set_tempo,9,1,0,,,,,,602894,,,,,,
96811,set_tempo,8,1,0,,,,,,596956,,,,,,
96816,note_on,0,0,4,,,,,,,,0,,,40,0
96816,note_on,57,0,4,,,,,,,,0,,,52,0
96820,set_tempo,9,1,0,,,,,,591133,,,,,,
96824,set_tempo,4,1,0,,,,,,585423,,,,,,
96833,set_tempo,9,1,0,,,,,,579822,,,,,,
96840,note_on,24,0,4,,,,,,,,0,,,69,110
96840,note_on,0,0,4,,,,,,,,0,,,64,110
96840,note_on,0,0,4,,,,,,,,0,,,61,110
96842,set_tempo,9,1,0,,,,,,574328,,,,,,
96851,set_tempo,9,1,0,,,,,,568936,,,,,,
96855,set_tempo,4,1,0,,,,,,563645,,,,,,
96864,set_tempo,9,1,0,,,,,,558451,,,,,,
96872,set_tempo,8,1,0,,,,,,553352,,,,,,
96876,note_on,96,0,1,,,,,,,,0,,,93,0
96876,note_on,0,0,1,,,,,,,,0,,,85,0
96876,note_on,0,0,1,,,,,,,,0,,,97,0
96881,set_tempo,9,1,0,,,,,,548346,,,,,,
96885,set_tempo,4,1,0,,,,,,543429,,,,,,
96894,set_tempo,9,1,0,,,,,,538600,,,,,,
96900,note_on,24,0,1,,,,,,,,0,,,85,110
96900,note_on,0,0,1,,,,,,,,0,,,93,110
96900,note_on,0,0,1,,,,,,,,0,,,81,110
96903,set_tempo,9,1,0,,,,,,533855,,,,,,
96912,set_tempo,9,1,0,,,,,,529194,,,,,,
96916,set_tempo,4,1,0,,,,,,524613,,,,,,
96925,set_tempo,9,1,0,,,,,,520111,,,,,,
96933,set_tempo,8,1,0,,,,,,515685,,,,,,
96936,note_on,0,0,4,,,,,,,,0,,,64,0
96936,note_on,0,0,4,,,,,,,,0,,,69,0
96936,note_on,96,0,4,,,,,,,,0,,,61,0
96942,set_tempo,9,1,0,,,,,,511335,,,,,,
96947,set_tempo,5,1,0,,,,,,507057,,,,,,
96955,set_tempo,8,1,0,,,,,,502849,,,,,,
96960,note_on,0,0,4,,,,,,,,0,,,64,110
96960,note_on,0,0,4,,,,,,,,0,,,57,110
96960,note_on,24,0,4,,,,,,,,0,,,61,110
96964,set_tempo,9,1,0,,,,,,498712,,,,,,
96973,set_tempo,9,1,0,,,,,,494641,,,,,,
96981,set_tempo,8,1,0,,,,,,490637,,,,,,
96986,set_tempo,5,1,0,,,,,,486697,,,,,,
96995,set_tempo,9,1,0,,,,,,482820,,,,,,
96996,note_on,0,0,1,,,,,,,,0,,,85,0
96996,note_on,0,0,1,,,,,,,,0,,,93,0
96996,note_on,96,0,1,,,,,,,,0,,,81,0
97003,set_tempo,8,1,0,,,,,,479004,,,,,,
97012,set_tempo,9,1,0,,,,,,475248,,,,,,
97016,set_tempo,4,1,0,,,,,,471550,,,,,,
97020,note_on,0,0,1,,,,,,,,0,,,85,110
97020,note_on,0,0,1,,,,,,,,0,,,76,110
97020,note_on,24,0,1,,,,,,,,0,,,88,110
97025,set_tempo,9,1,0,,,,,,467909,,,,,,
97034,set_tempo,9,1,0,,,,,,464324,,,,,,
97043,set_tempo,9,1,0,,,,,,460794,,,,,,
97047,set_tempo,4,1,0,,,,,,457317,,,,,,
97056,note_on,96,0,4,,,,,,,,0,,,57,0
97056,set_tempo,9,1,0,,,,,,453892,,,,,,
97056,note_on,0,0,4,,,,,,,,0,,,61,0
97056,note_on,0,0,4,,,,,,,,0,,,64,0
97064,set_tempo,8,1,0,,,,,,450518,,,,,,
97073,set_tempo,9,1,0,,,,,,447194,,,,,,
97077,set_tempo,4,1,0,,,,,,443918,,,,,,
97080,note_on,24,0,4,,,,,,,,0,,,57,110
97080,note_on,0,0,4,,,,,,,,0,,,61,110
97080,note_on,0,0,4,,,,,,,,0,,,52,110
97086,set_tempo,9,1,0,,,,,,440690,,,,,,
97095,set_tempo,9,1,0,,,,,,437509,,,,,,
97104,set_tempo,9,1,0,,,,,,434373,,,,,,
97105,set_tempo,1,1,0,,,,,,431282,,,,,,
97114,set_tempo,9,1,0,,,,,,428235,,,,,,
97116,note_on,96,0,1,,,,,,,,0,,,76,0
97116,note_on,0,0,1,,,,,,,,0,,,88,0
97116,note_on,0,0,1,,,,,,,,0,,,85,0
97118,set_tempo,4,1,0,,,,,,425230,,,,,,
97123,set_tempo,5,1,0,,,,,,422268,,,,,,
97131,set_tempo,8,1,0,,,,,,419346,,,,,,
97136,set_tempo,5,1,0,,,,,,416464,,,,,,
97140,note_on,0,0,1,,,,,,,,0,,,81,110
97140,set_tempo,4,1,0,,,,,,413622,,,,,,
97140,note_on,0,0,1,,,,,,,,0,,,85,110
97140,note_on,24,0,1,,,,,,,,0,,,73,110
97149,set_tempo,9,1,0,,,,,,410818,,,,,,
97153,set_tempo,4,1,0,,,,,,408052,,,,,,
97158,set_tempo,5,1,0,,,,,,405323,,,,,,
97166,set_tempo,8,1,0,,,,,,402631,,,,,,
97171,set_tempo,5,1,0,,,,,,399973,,,,,,
97175,set_tempo,4,1,0,,,,,,397351,,,,,,
97176,note_on,0,0,4,,,,,,,,0,,,61,0
97176,note_on,0,0,4,,,,,,,,0,,,57,0
97176,note_on,96,0,4,,,,,,,,0,,,52,0
97184,set_tempo,9,1,0,,,,,,394763,,,,,,
97188,set_tempo,4,1,0,,,,,,392208,,,,,,
97192,set_tempo,4,1,0,,,,,,389686,,,,,,
97200,note_on,0,0,4,,,,,,,,0,,,52,110
97200,note_on,0,0,4,,,,,,,,0,,,56,110
97200,note_on,24,0,4,,,,,,,,0,,,60,110
97201,set_tempo,9,1,0,,,,,,387197,,,,,,
97206,set_tempo,5,1,0,,,,,,384739,,,,,,
97210,set_tempo,4,1,0,,,,,,382312,,,,,,
97214,set_tempo,4,1,0,,,,,,379915,,,,,,
97236,note_on,0,0,1,,,,,,,,0,,,85,0
97236,note_on,0,0,1,,,,,,,,0,,,73,0
97236,note_on,96,0,1,,,,,,,,0,,,81,0
97260,note_on,24,0,1,,,,,,,,0,,,72,110
97260,note_on,0,0,1,,,,,,,,0,,,84,110
97260,note_on,0,0,1,,,,,,,,0,,,80,110
97296,note_on,0,0,4,,,,,,,,0,,,52,0
97296,note_on,0,0,4,,,,,,,,0,,,60,0
97296,note_on,96,0,4,,,,,,,,0,,,56,0
97320,note_on,24,0,4,,,,,,,,0,,,61,110
97320,note_on,0,0,4,,,,,,,,0,,,57,110
97320,note_on,0,0,4,,,,,,,,0,,,52,110
97356,note_on,96,0,1,,,,,,,,0,,,84,0
97356,note_on,0,0,1,,,,,,,,0,,,80,0
97356,note_on,0,0,1,,,,,,,,0,,,72,0
97380,note_on,0,0,1,,,,,,,,0,,,73,110
97380,note_on,0,0,1,,,,,,,,0,,,81,110
97380,note_on,24,0,1,,,,,,,,0,,,85,110
97416,note_on,0,0,4,,,,,,,,0,,,52,0
97416,note_on,0,0,4,,,,,,,,0,,,61,0
97416,note_on,96,0,4,,,,,,,,0,,,57,0
97437,set_tempo,223,1,0,,,,,,379915,,,,,,
97440,note_on,0,0,4,,,,,,,,0,,,59,110
97440,note_on,24,0,4,,,,,,,,0,,,52,110
97440,note_on,0,0,4,,,,,,,,0,,,62,110
97441,set_tempo,4,1,0,,,,,,382312,,,,,,
97446,set_tempo,5,1,0,,,,,,384739,,,,,,
97450,set_tempo,4,1,0,,,,,,387197,,,,,,
97454,set_tempo,4,1,0,,,,,,389686,,,,,,
97459,set_tempo,5,1,0,,,,,,392208,,,,,,
97463,set_tempo,4,1,0,,,,,,394763,,,,,,
97467,set_tempo,4,1,0,,,,,,397351,,,,,,
97472,set_tempo,5,1,0,,,,,,399973,,,,,,
97476,note_on,0,0,1,,,,,,,,0,,,85,0
97476,set_tempo,4,1,0,,,,,,402631,,,,,,
97476,note_on,96,0,1,,,,,,,,0,,,73,0
97476,note_on,0,0,1,,,,,,,,0,,,81,0
97480,set_tempo,4,1,0,,,,,,405323,,,,,,
97485,set_tempo,5,1,0,,,,,,410818,,,,,,
97489,set_tempo,4,1,0,,,,,,413622,,,,,,
97494,set_tempo,5,1,0,,,,,,416464,,,,,,
97498,set_tempo,4,1,0,,,,,,419346,,,,,,
97500,note_on,24,0,1,,,,,,,,0,,,86,110
97500,note_on,0,0,1,,,,,,,,0,,,74,110
97500,note_on,0,0,1,,,,,,,,0,,,83,110
97502,set_tempo,4,1,0,,,,,,422268,,,,,,
97507,set_tempo,5,1,0,,,,,,425230,,,,,,
97511,set_tempo,4,1,0,,,,,,428235,,,,,,
97515,set_tempo,4,1,0,,,,,,431282,,,,,,
97520,set_tempo,5,1,0,,,,,,434373,,,,,,
97524,set_tempo,4,1,0,,,,,,437509,,,,,,
97528,set_tempo,4,1,0,,,,,,440690,,,,,,
97533,set_tempo,5,1,0,,,,,,447194,,,,,,
97536,note_on,0,0,4,,,,,,,,0,,,62,0
97536,note_on,0,0,4,,,,,,,,0,,,52,0
97536,note_on,96,0,4,,,,,,,,0,,,59,0
97537,set_tempo,4,1,0,,,,,,450518,,,,,,
97542,set_tempo,5,1,0,,,,,,453892,,,,,,
97546,set_tempo,4,1,0,,,,,,457317,,,,,,
97550,set_tempo,4,1,0,,,,,,460794,,,,,,
97555,set_tempo,5,1,0,,,,,,464324,,,,,,
97559,set_tempo,4,1,0,,,,,,467909,,,,,,
97560,note_on,0,0,4,,,,,,,,0,,,40,127
97560,note_on,24,0,4,,,,,,,,0,,,52,127
97563,set_tempo,4,1,0,,,,,,471550,,,,,,
97568,set_tempo,5,1,0,,,,,,475248,,,,,,
97572,set_tempo,4,1,0,,,,,,479004,,,,,,
97576,set_tempo,4,1,0,,,,,,482820,,,,,,
97581,set_tempo,5,1,0,,,,,,490637,,,,,,
97585,set_tempo,4,1,0,,,,,,494641,,,,,,
97590,set_tempo,5,1,0,,,,,,498712,,,,,,
97594,set_tempo,4,1,0,,,,,,502849,,,,,,
97596,note_on,96,0,1,,,,,,,,0,,,83,0
97596,note_on,0,0,1,,,,,,,,0,,,74,0
97596,note_on,0,0,1,,,,,,,,0,,,86,0
97598,set_tempo,4,1,0,,,,,,507057,,,,,,
97603,set_tempo,5,1,0,,,,,,511335,,,,,,
97607,set_tempo,4,1,0,,,,,,515685,,,,,,
97611,set_tempo,4,1,0,,,,,,520111,,,,,,
97616,set_tempo,5,1,0,,,,,,524613,,,,,,
97620,note_on,0,0,1,,,,,,,,0,,,86,110
97620,note_on,24,0,1,,,,,,,,0,,,98,110
97620,set_tempo,4,1,0,,,,,,529194,,,,,,
97620,note_on,0,0,1,,,,,,,,0,,,95,110
97624,set_tempo,4,1,0,,,,,,533855,,,,,,
97629,set_tempo,5,1,0,,,,,,543429,,,,,,
97633,set_tempo,4,1,0,,,,,,548346,,,,,,
97638,set_tempo,5,1,0,,,,,,553352,,,,,,
97642,set_tempo,4,1,0,,,,,,558451,,,,,,
97646,set_tempo,4,1,0,,,,,,563645,,,,,,
97651,set_tempo,5,1,0,,,,,,568936,,,,,,
97655,set_tempo,4,1,0,,,,,,574328,,,,,,
97656,note_on,96,0,4,,,,,,,,0,,,40,0
97656,note_on,0,0,4,,,,,,,,0,,,52,0
97659,set_tempo,4,1,0,,,,,,579822,,,,,,
97664,set_tempo,5,1,0,,,,,,585423,,,,,,
97668,set_tempo,4,1,0,,,,,,591133,,,,,,
97672,set_tempo,4,1,0,,,,,,591133,,,,,,
97680,note_on,0,0,4,,,,,,,,0,,,41,127
97680,note_on,0,0,4,,,,,,,,0,,,53,127
97680,control_change,24,0,4,,,,,,,,0,64,0,,
97686,set_tempo,14,1,0,,,,,,585423,,,,,,
97699,set_tempo,13,1,0,,,,,,579822,,,,,,
97712,set_tempo,13,1,0,,,,,,574328,,,,,,
97716,control_change,36,0,4,,,,,,,,0,64,127,,
97725,set_tempo,13,1,0,,,,,,568936,,,,,,
97728,note_on,0,0,1,,,,,,,,0,,,95,0
97728,note_on,0,0,1,,,,,,,,0,,,98,0
97728,note_on,108,0,1,,,,,,,,0,,,86,0
97738,set_tempo,13,1,0,,,,,,563645,,,,,,
97740,note_on,12,0,1,,,,,,,,0,,,94,110
97740,note_on,0,0,1,,,,,,,,0,,,86,110
97740,note_on,0,0,1,,,,,,,,0,,,98,110
97751,set_tempo,13,1,0,,,,,,558451,,,,,,
97760,set_tempo,9,1,0,,,,,,553352,,,,,,
97773,set_tempo,13,1,0,,,,,,548346,,,,,,
97776,note_on,60,0,4,,,,,,,,0,,,41,0
97776,note_on,0,0,4,,,,,,,,0,,,53,0
97786,set_tempo,13,1,0,,,,,,543429,,,,,,
97799,set_tempo,13,1,0,,,,,,538600,,,,,,
97800,note_on,0,0,4,,,,,,,,0,,,70,110
97800,note_on,0,0,4,,,,,,,,0,,,65,110
97800,note_on,24,0,4,,,,,,,,0,,,62,110
97812,set_tempo,13,1,0,,,,,,533855,,,,,,
97825,set_tempo,13,1,0,,,,,,529194,,,,,,
97834,set_tempo,9,1,0,,,,,,524613,,,,,,
97836,note_on,0,0,1,,,,,,,,0,,,86,0
97836,note_on,96,0,1,,,,,,,,0,,,98,0
97836,note_on,0,0,1,,,,,,,,0,,,94,0
97847,set_tempo,13,1,0,,,,,,520111,,,,,,
97860,note_on,0,0,1,,,,,,,,0,,,86,110
97860,set_tempo,13,1,0,,,,,,515685,,,,,,
97860,note_on,24,0,1,,,,,,,,0,,,94,110
97860,note_on,0,0,1,,,,,,,,0,,,82,110
97873,set_tempo,13,1,0,,,,,,511335,,,,,,
97886,set_tempo,13,1,0,,,,,,507057,,,,,,
97896,note_on,96,0,4,,,,,,,,0,,,65,0
97896,note_on,0,0,4,,,,,,,,0,,,62,0
97896,note_on,0,0,4,,,,,,,,0,,,70,0
97899,set_tempo,13,1,0,,,,,,502849,,,,,,
97908,set_tempo,9,1,0,,,,,,498712,,,,,,
97917,set_tempo,9,1,0,,,,,,494641,,,,,,
97920,note_on,24,0,4,,,,,,,,0,,,62,110
97920,note_on,0,0,4,,,,,,,,0,,,58,110
97920,note_on,0,0,4,,,,,,,,0,,,65,110
97921,set_tempo,4,1,0,,,,,,490637,,,,,,
97926,set_tempo,5,1,0,,,,,,486697,,,,,,
97934,set_tempo,8,1,0,,,,,,482820,,,,,,
97939,set_tempo,5,1,0,,,,,,479004,,,,,,
97943,set_tempo,4,1,0,,,,,,475248,,,,,,
97952,set_tempo,9,1,0,,,,,,471550,,,,,,
97956,note_on,0,0,1,,,,,,,,0,,,82,0
97956,note_on,0,0,1,,,,,,,,0,,,94,0
97956,note_on,96,0,1,,,,,,,,0,,,86,0
97956,set_tempo,4,1,0,,,,,,467909,,,,,,
97960,set_tempo,4,1,0,,,,,,464324,,,,,,
97965,set_tempo,5,1,0,,,,,,460794,,,,,,
97974,set_tempo,9,1,0,,,,,,457317,,,,,,
97978,set_tempo,4,1,0,,,,,,453892,,,,,,
97980,note_on,0,0,1,,,,,,,,0,,,86,110
97980,note_on,0,0,1,,,,,,,,0,,,77,110
97980,note_on,24,0,1,,,,,,,,0,,,89,110
97982,set_tempo,4,1,0,,,,,,450518,,,,,,
97991,set_tempo,9,1,0,,,,,,447194,,,,,,
97995,set_tempo,4,1,0,,,,,,443918,,,,,,
98000,set_tempo,5,1,0,,,,,,440690,,,,,,
98008,set_tempo,8,1,0,,,,,,437509,,,,,,
98013,set_tempo,5,1,0,,,,,,434373,,,,,,
98016,note_on,0,0,4,,,,,,,,0,,,65,0
98016,note_on,0,0,4,,,,,,,,0,,,62,0
98016,note_on,96,0,4,,,,,,,,0,,,58,0
98017,set_tempo,4,1,0,,,,,,431282,,,,,,
98022,set_tempo,5,1,0,,,,,,428235,,,,,,
98030,set_tempo,8,1,0,,,,,,425230,,,,,,
98035,set_tempo,5,1,0,,,,,,422268,,,,,,
98039,set_tempo,4,1,0,,,,,,419346,,,,,,
98040,note_on,0,0,4,,,,,,,,0,,,62,110
98040,note_on,0,0,4,,,,,,,,0,,,53,110
98040,note_on,24,0,4,,,,,,,,0,,,58,110
98048,set_tempo,9,1,0,,,,,,416464,,,,,,
98052,set_tempo,4,1,0,,,,,,413622,,,,,,
98056,set_tempo,4,1,0,,,,,,410818,,,,,,
98065,set_tempo,9,1,0,,,,,,408052,,,,,,
98070,set_tempo,5,1,0,,,,,,405323,,,,,,
98074,set_tempo,4,1,0,,,,,,402631,,,,,,
98076,note_on,0,0,1,,,,,,,,0,,,89,0
98076,note_on,0,0,1,,,,,,,,0,,,77,0
98076,note_on,96,0,1,,,,,,,,0,,,86,0
98078,set_tempo,4,1,0,,,,,,399973,,,,,,
98087,set_tempo,9,1,0,,,,,,397351,,,,,,
98091,set_tempo,4,1,0,,,,,,394763,,,,,,
98096,set_tempo,5,1,0,,,,,,392208,,,,,,
98100,note_on,24,0,1,,,,,,,,0,,,86,110
98100,note_on,0,0,1,,,,,,,,0,,,82,110
98100,note_on,0,0,1,,,,,,,,0,,,74,110
98104,set_tempo,8,1,0,,,,,,389686,,,,,,
98109,set_tempo,5,1,0,,,,,,387197,,,,,,
98113,set_tempo,4,1,0,,,,,,384739,,,,,,
98122,set_tempo,9,1,0,,,,,,382312,,,,,,
98126,set_tempo,4,1,0,,,,,,379915,,,,,,
98131,set_tempo,5,1,0,,,,,,377548,,,,,,
98135,set_tempo,4,1,0,,,,,,375211,,,,,,
98136,note_on,0,0,4,,,,,,,,0,,,62,0
98136,note_on,0,0,4,,,,,,,,0,,,58,0
98136,note_on,96,0,4,,,,,,,,0,,,53,0
98148,set_tempo,13,1,0,,,,,,377548,,,,,,
98160,note_on,24,0,4,,,,,,,,0,,,61,110
98160,note_on,0,0,4,,,,,,,,0,,,53,110
98160,note_on,0,0,4,,,,,,,,0,,,57,110
98161,set_tempo,13,1,0,,,,,,379915,,,,,,
98170,set_tempo,9,1,0,,,,,,382312,,,,,,
98183,set_tempo,13,1,0,,,,,,384739,,,,,,
98192,set_tempo,9,1,0,,,,,,387197,,,,,,
98196,note_on,0,0,1,,,,,,,,0,,,74,0
98196,note_on,0,0,1,,,,,,,,0,,,86,0
98196,note_on,96,0,1,,,,,,,,0,,,82,0
98205,set_tempo,13,1,0,,,,,,389686,,,,,,
98214,set_tempo,9,1,0,,,,,,392208,,,,,,
98220,note_on,24,0,1,,,,,,,,0,,,81,110
98220,note_on,0,0,1,,,,,,,,0,,,73,110
98220,note_on,0,0,1,,,,,,,,0,,,85,110
98227,set_tempo,13,1,0,,,,,,394763,,,,,,
98235,set_tempo,8,1,0,,,,,,397351,,,,,,
98248,set_tempo,13,1,0,,,,,,399973,,,,,,
98256,note_on,96,0,4,,,,,,,,0,,,57,0
98256,note_on,0,0,4,,,,,,,,0,,,53,0
98256,note_on,0,0,4,,,,,,,,0,,,61,0
98257,set_tempo,9,1,0,,,,,,402631,,,,,,
98270,set_tempo,13,1,0,,,,,,405323,,,,,,
98279,set_tempo,9,1,0,,,,,,408052,,,,,,
98280,note_on,24,0,4,,,,,,,,0,,,62,110
98280,note_on,0,0,4,,,,,,,,0,,,58,110
98280,note_on,0,0,4,,,,,,,,0,,,53,110
98292,set_tempo,13,1,0,,,,,,410818,,,,,,
98301,set_tempo,9,1,0,,,,,,413622,,,,,,
98314,set_tempo,13,1,0,,,,,,416464,,,,,,
98316,note_on,96,0,1,,,,,,,,0,,,73,0
98316,note_on,0,0,1,,,,,,,,0,,,85,0
98316,note_on,0,0,1,,,,,,,,0,,,81,0
98327,set_tempo,13,1,0,,,,,,419346,,,,,,
98336,set_tempo,9,1,0,,,,,,422268,,,,,,
98340,note_on,24,0,1,,,,,,,,0,,,82,110
98340,note_on,0,0,1,,,,,,,,0,,,86,110
98340,note_on,0,0,1,,,,,,,,0,,,74,110
98349,set_tempo,13,1,0,,,,,,425230,,,,,,
98358,set_tempo,9,1,0,,,,,,428235,,,,,,
98371,set_tempo,13,1,0,,,,,,431282,,,,,,
98376,note_on,96,0,4,,,,,,,,0,,,53,0
98376,note_on,0,0,4,,,,,,,,0,,,62,0
98376,note_on,0,0,4,,,,,,,,0,,,58,0
98379,set_tempo,8,1,0,,,,,,434373,,,,,,
98392,set_tempo,13,1,0,,,,,,437509,,,,,,
98400,note_on,0,0,4,,,,,,,,0,,,63,110
98400,note_on,0,0,4,,,,,,,,0,,,53,110
98400,note_on,24,0,4,,,,,,,,0,,,60,110
98401,set_tempo,9,1,0,,,,,,440690,,,,,,
98414,set_tempo,13,1,0,,,,,,443918,,,,,,
98423,set_tempo,9,1,0,,,,,,447194,,,,,,
98436,note_on,0,0,1,,,,,,,,0,,,74,0
98436,note_on,0,0,1,,,,,,,,0,,,82,0
98436,set_tempo,13,1,0,,,,,,450518,,,,,,
98436,note_on,96,0,1,,,,,,,,0,,,86,0
98445,set_tempo,9,1,0,,,,,,453892,,,,,,
98458,set_tempo,13,1,0,,,,,,457317,,,,,,
98460,note_on,24,0,1,,,,,,,,0,,,75,110
98460,note_on,0,0,1,,,,,,,,0,,,84,110
98460,note_on,0,0,1,,,,,,,,0,,,87,110
98467,set_tempo,9,1,0,,,,,,460794,,,,,,
98480,set_tempo,13,1,0,,,,,,464324,,,,,,
98493,set_tempo,13,1,0,,,,,,467909,,,,,,
98496,note_on,0,0,4,,,,,,,,0,,,53,0
98496,note_on,96,0,4,,,,,,,,0,,,63,0
98496,note_on,0,0,4,,,,,,,,0,,,60,0
98502,set_tempo,9,1,0,,,,,,471550,,,,,,
98515,set_tempo,13,1,0,,,,,,475248,,,,,,
98520,note_on,0,0,4,,,,,,,,0,,,41,127
98520,note_on,24,0,4,,,,,,,,0,,,53,127
98523,set_tempo,8,1,0,,,,,,479004,,,,,,
98536,set_tempo,13,1,0,,,,,,482820,,,,,,
98545,set_tempo,9,1,0,,,,,,486697,,,,,,
98556,note_on,0,0,1,,,,,,,,0,,,87,0
98556,note_on,0,0,1,,,,,,,,0,,,75,0
98556,note_on,96,0,1,,,,,,,,0,,,84,0
98558,set_tempo,13,1,0,,,,,,490637,,,,,,
98567,set_tempo,9,1,0,,,,,,494641,,,,,,
98580,note_on,0,0,1,,,,,,,,0,,,87,110
98580,set_tempo,13,1,0,,,,,,498712,,,,,,
98580,note_on,24,0,1,,,,,,,,0,,,96,110
98580,note_on,0,0,1,,,,,,,,0,,,99,110
98589,set_tempo,9,1,0,,,,,,502849,,,,,,
98602,set_tempo,13,1,0,,,,,,507057,,,,,,
98611,set_tempo,9,1,0,,,,,,511335,,,,,,
98616,note_on,0,0,4,,,,,,,,0,,,53,0
98616,note_on,96,0,4,,,,,,,,0,,,41,0
98624,set_tempo,13,1,0,,,,,,515685,,,,,,
98628,set_tempo,4,1,0,,,,,,524613,,,,,,
98630,set_tempo,2,1,0,,,,,,520111,,,,,,
98638,set_tempo,8,1,0,,,,,,515685,,,,,,
98640,note_on,0,0,4,,,,,,,,0,,,54,127
98640,control_change,0,0,4,,,,,,,,0,64,0,,
98640,note_on,24,0,4,,,,,,,,0,,,42,127
98647,set_tempo,9,1,0,,,,,,511335,,,,,,
98656,set_tempo,9,1,0,,,,,,507057,,,,,,
98660,set_tempo,4,1,0,,,,,,502849,,,,,,
98669,set_tempo,9,1,0,,,,,,498712,,,,,,
98678,set_tempo,9,1,0,,,,,,494641,,,,,,
98684,control_change,44,0,4,,,,,,,,0,64,127,,
98686,set_tempo,8,1,0,,,,,,490637,,,,,,
98688,note_on,108,0,1,,,,,,,,0,,,99,0
98688,note_on,0,0,1,,,,,,,,0,,,87,0
98688,note_on,0,0,1,,,,,,,,0,,,96,0
98691,set_tempo,5,1,0,,,,,,486697,,,,,,
98699,set_tempo,8,1,0,,,,,,482820,,,,,,
98700,note_on,12,0,1,,,,,,,,0,,,99,110
98700,note_on,0,0,1,,,,,,,,0,,,87,110
98700,note_on,0,0,1,,,,,,,,0,,,95,110
98708,set_tempo,9,1,0,,,,,,479004,,,,,,
98712,set_tempo,4,1,0,,,,,,475248,,,,,,
98721,set_tempo,9,1,0,,,,,,471550,,,,,,
98730,set_tempo,9,1,0,,,,,,467909,,,,,,
98736,note_on,52,0,4,,,,,,,,0,,,54,0
98736,note_on,0,0,4,,,,,,,,0,,,42,0
98739,set_tempo,9,1,0,,,,,,464324,,,,,,
98743,set_tempo,4,1,0,,,,,,460794,,,,,,
98752,set_tempo,9,1,0,,,,,,457317,,,,,,
98760,note_on,0,0,2,,,,,,,,0,,,71,110
98760,set_tempo,8,1,0,,,,,,453892,,,,,,
98760,note_on,0,0,2,,,,,,,,0,,,63,110
98760,note_on,2184,0,2,,,,,,,,0,,,66,110
98765,set_tempo,5,1,0,,,,,,450518,,,,,,
98774,set_tempo,9,1,0,,,,,,447194,,,,,,
98782,set_tempo,8,1,0,,,,,,443918,,,,,,
98791,set_tempo,9,1,0,,,,,,440690,,,,,,
98795,set_tempo,4,1,0,,,,,,437509,,,,,,
98796,note_on,0,0,1,,,,,,,,0,,,87,0
98796,note_on,0,0,1,,,,,,,,0,,,99,0
98796,note_on,96,0,1,,,,,,,,0,,,95,0
98804,set_tempo,9,1,0,,,,,,434373,,,,,,
98813,set_tempo,9,1,0,,,,,,431282,,,,,,
98817,set_tempo,4,1,0,,,,,,428235,,,,,,
98820,note_on,24,0,1,,,,,,,,0,,,87,110
98820,note_on,0,0,1,,,,,,,,0,,,95,110
98820,note_on,0,0,1,,,,,,,,0,,,83,110
98826,set_tempo,9,1,0,,,,,,425230,,,,,,
98835,set_tempo,9,1,0,,,,,,422268,,,,,,
98843,set_tempo,8,1,0,,,,,,419346,,,,,,
98848,set_tempo,5,1,0,,,,,,416464,,,,,,
98856,note_on,0,0,2,,,,,,,,0,,,71,0
98856,note_on,0,0,2,,,,,,,,0,,,66,0
98856,note_on,96,0,2,,,,,,,,0,,,63,0
98856,set_tempo,8,1,0,,,,,,413622,,,,,,
98865,set_tempo,9,1,0,,,,,,410818,,,,,,
98870,set_tempo,5,1,0,,,,,,408052,,,,,,
98878,set_tempo,8,1,0,,,,,,410818,,,,,,
98880,note_on,0,0,2,,,,,,,,0,,,63,110
98880,note_on,24,0,2,,,,,,,,0,,,59,110
98880,note_on,0,0,2,,,,,,,,0,,,66,110
98887,set_tempo,9,1,0,,,,,,413622,,,,,,
98896,set_tempo,9,1,0,,,,,,416464,,,,,,
98904,set_tempo,8,1,0,,,,,,419346,,,,,,
98913,set_tempo,9,1,0,,,,,,422268,,,,,,
98916,note_on,0,0,1,,,,,,,,0,,,83,0
98916,note_on,0,0,1,,,,,,,,0,,,87,0
98916,note_on,96,0,1,,,,,,,,0,,,95,0
98918,set_tempo,5,1,0,,,,,,425230,,,,,,
98926,set_tempo,8,1,0,,,,,,428235,,,,,,
98935,set_tempo,9,1,0,,,,,,431282,,,,,,
98940,note_on,24,0,1,,,,,,,,0,,,90,110
98940,note_on,0,0,1,,,,,,,,0,,,87,110
98940,note_on,0,0,1,,,,,,,,0,,,78,110
98944,set_tempo,9,1,0,,,,,,434373,,,,,,
98952,set_tempo,8,1,0,,,,,,437509,,,,,,
98961,set_tempo,9,1,0,,,,,,440690,,,,,,
98966,set_tempo,5,1,0,,,,,,443918,,,,,,
98974,set_tempo,8,1,0,,,,,,447194,,,,,,
98976,note_on,96,0,2,,,,,,,,0,,,63,0
98976,note_on,0,0,2,,,,,,,,0,,,59,0
98976,note_on,0,0,2,,,,,,,,0,,,66,0
98983,set_tempo,9,1,0,,,,,,450518,,,,,,
98992,set_tempo,9,1,0,,,,,,453892,,,,,,
99000,note_on,0,0,2,,,,,,,,0,,,59,110
99000,note_on,24,0,2,,,,,,,,0,,,54,110
99000,note_on,0,0,2,,,,,,,,0,,,63,110
99000,set_tempo,8,1,0,,,,,,457317,,,,,,
99009,set_tempo,9,1,0,,,,,,460794,,,,,,
99014,set_tempo,5,1,0,,,,,,464324,,,,,,
99022,set_tempo,8,1,0,,,,,,467909,,,,,,
99031,set_tempo,9,1,0,,,,,,471550,,,,,,
99036,note_on,0,0,1,,,,,,,,0,,,78,0
99036,note_on,96,0,1,,,,,,,,0,,,87,0
99036,note_on,0,0,1,,,,,,,,0,,,90,0
99040,set_tempo,9,1,0,,,,,,475248,,,,,,
99048,set_tempo,8,1,0,,,,,,479004,,,,,,
99057,set_tempo,9,1,0,,,,,,482820,,,,,,
99060,note_on,0,0,1,,,,,,,,0,,,83,110
99060,note_on,0,0,1,,,,,,,,0,,,87,110
99060,note_on,24,0,1,,,,,,,,0,,,75,110
99062,set_tempo,5,1,0,,,,,,486697,,,,,,
99070,set_tempo,8,1,0,,,,,,490637,,,,,,
99079,set_tempo,9,1,0,,,,,,494641,,,,,,
99088,set_tempo,9,1,0,,,,,,498712,,,,,,
99096,set_tempo,8,1,0,,,,,,502849,,,,,,
99096,note_on,0,0,2,,,,,,,,0,,,54,0
99096,note_on,0,0,2,,,,,,,,0,,,59,0
99096,note_on,96,0,2,,,,,,,,0,,,63,0
99101,set_tempo,5,1,0,,,,,,507057,,,,,,
99105,set_tempo,4,1,0,,,,,,507057,,,,,,
99114,set_tempo,9,1,0,,,,,,502849,,,,,,
99120,note_on,384,0,4,,,,,,,,0,,,55,127
99120,note_on,0,0,4,,,,,,,,0,,,43,127
99123,set_tempo,9,1,0,,,,,,498712,,,,,,
99124,control_change,4,0,4,,,,,,,,0,64,0,,
99131,set_tempo,8,1,0,,,,,,494641,,,,,,
99140,set_tempo,9,1,0,,,,,,490637,,,,,,
99144,set_tempo,4,1,0,,,,,,486697,,,,,,
99152,control_change,28,0,4,,,,,,,,0,64,127,,
99153,set_tempo,9,1,0,,,,,,482820,,,,,,
99156,note_on,0,0,1,,,,,,,,0,,,75,0
99156,note_on,0,0,1,,,,,,,,0,,,87,0
99156,note_on,96,0,1,,,,,,,,0,,,83,0
99162,set_tempo,9,1,0,,,,,,479004,,,,,,
99171,set_tempo,9,1,0,,,,,,475248,,,,,,
99175,set_tempo,4,1,0,,,,,,471550,,,,,,
99180,note_on,0,0,1,,,,,,,,0,,,96,110
99180,note_on,0,0,1,,,,,,,,0,,,87,110
99180,note_on,24,0,1,,,,,,,,0,,,99,110
99184,set_tempo,9,1,0,,,,,,467909,,,,,,
99192,set_tempo,8,1,0,,,,,,464324,,,,,,
99201,set_tempo,9,1,0,,,,,,460794,,,,,,
99210,set_tempo,9,1,0,,,,,,457317,,,,,,
99214,set_tempo,4,1,0,,,,,,453892,,,,,,
99216,note_on,64,0,4,,,,,,,,0,,,43,0
99216,note_on,0,0,4,,,,,,,,0,,,55,0
99223,set_tempo,9,1,0,,,,,,450518,,,,,,
99232,set_tempo,9,1,0,,,,,,447194,,,,,,
99240,set_tempo,8,1,0,,,,,,443918,,,,,,
99240,note_on,0,0,2,,,,,,,,0,,,72,110
99240,note_on,0,0,2,,,,,,,,0,,,63,110
99240,note_on,144,0,2,,,,,,,,0,,,67,110
99245,set_tempo,5,1,0,,,,,,440690,,,,,,
99254,set_tempo,9,1,0,,,,,,437509,,,,,,
99262,set_tempo,8,1,0,,,,,,434373,,,,,,
99271,set_tempo,9,1,0,,,,,,431282,,,,,,
99276,note_on,0,0,1,,,,,,,,0,,,87,0
99276,note_on,96,0,1,,,,,,,,0,,,96,0
99276,note_on,0,0,1,,,,,,,,0,,,99,0
99280,set_tempo,9,1,0,,,,,,428235,,,,,,
99284,set_tempo,4,1,0,,,,,,425230,,,,,,
99293,set_tempo,9,1,0,,,,,,422268,,,,,,
99300,note_on,24,0,1,,,,,,,,0,,,96,110
99300,note_on,0,0,1,,,,,,,,0,,,87,110
99300,note_on,0,0,1,,,,,,,,0,,,84,110
99302,set_tempo,9,1,0,,,,,,419346,,,,,,
99310,set_tempo,8,1,0,,,,,,416464,,,,,,
99315,set_tempo,5,1,0,,,,,,413622,,,,,,
99323,set_tempo,8,1,0,,,,,,410818,,,,,,
99332,set_tempo,9,1,0,,,,,,408052,,,,,,
99336,note_on,0,0,2,,,,,,,,0,,,72,0
99336,note_on,0,0,2,,,,,,,,0,,,67,0
99336,note_on,96,0,2,,,,,,,,0,,,63,0
99341,set_tempo,9,1,0,,,,,,405323,,,,,,
99345,set_tempo,4,1,0,,,,,,402631,,,,,,
99354,set_tempo,9,1,0,,,,,,405323,,,,,,
99360,note_on,24,0,2,,,,,,,,0,,,63,110
99360,note_on,0,0,2,,,,,,,,0,,,67,110
99360,note_on,0,0,2,,,,,,,,0,,,60,110
99363,set_tempo,9,1,0,,,,,,408052,,,,,,
99367,set_tempo,4,1,0,,,,,,410818,,,,,,
99376,set_tempo,9,1,0,,,,,,413622,,,,,,
99384,set_tempo,8,1,0,,,,,,416464,,,,,,
99389,set_tempo,5,1,0,,,,,,419346,,,,,,
99396,note_on,0,0,1,,,,,,,,0,,,96,0
99396,note_on,96,0,1,,,,,,,,0,,,87,0
99396,note_on,0,0,1,,,,,,,,0,,,84,0
99398,set_tempo,9,1,0,,,,,,422268,,,,,,
99406,set_tempo,8,1,0,,,,,,425230,,,,,,
99411,set_tempo,5,1,0,,,,,,428235,,,,,,
99419,set_tempo,8,1,0,,,,,,431282,,,,,,
99420,note_on,0,0,1,,,,,,,,0,,,79,110
99420,note_on,0,0,1,,,,,,,,0,,,91,110
99420,note_on,24,0,1,,,,,,,,0,,,87,110
99428,set_tempo,9,1,0,,,,,,434373,,,,,,
99432,set_tempo,4,1,0,,,,,,437509,,,,,,
99441,set_tempo,9,1,0,,,,,,440690,,,,,,
99450,set_tempo,9,1,0,,,,,,443918,,,,,,
99454,set_tempo,4,1,0,,,,,,447194,,,,,,
99456,note_on,0,0,2,,,,,,,,0,,,67,0
99456,note_on,0,0,2,,,,,,,,0,,,63,0
99456,note_on,96,0,2,,,,,,,,0,,,60,0
99463,set_tempo,9,1,0,,,,,,450518,,,,,,
99467,set_tempo,4,1,0,,,,,,453892,,,,,,
99476,set_tempo,9,1,0,,,,,,457317,,,,,,
99480,note_on,0,0,2,,,,,,,,0,,,55,110
99480,note_on,24,0,2,,,,,,,,0,,,60,110
99480,note_on,0,0,2,,,,,,,,0,,,63,110
99485,set_tempo,9,1,0,,,,,,460794,,,,,,
99489,set_tempo,4,1,0,,,,,,464324,,,,,,
99498,set_tempo,9,1,0,,,,,,467909,,,,,,
99507,set_tempo,9,1,0,,,,,,471550,,,,,,
99511,set_tempo,4,1,0,,,,,,475248,,,,,,
99516,note_on,0,0,1,,,,,,,,0,,,87,0
99516,note_on,0,0,1,,,,,,,,0,,,79,0
99516,note_on,96,0,1,,,,,,,,0,,,91,0
99520,set_tempo,9,1,0,,,,,,479004,,,,,,
99528,set_tempo,8,1,0,,,,,,482820,,,,,,
99533,set_tempo,5,1,0,,,,,,486697,,,,,,
99540,note_on,0,0,1,,,,,,,,0,,,87,110
99540,note_on,0,0,1,,,,,,,,0,,,84,110
99540,note_on,24,0,1,,,,,,,,0,,,75,110
99542,set_tempo,9,1,0,,,,,,490637,,,,,,
99550,set_tempo,8,1,0,,,,,,494641,,,,,,
99555,set_tempo,5,1,0,,,,,,498712,,,,,,
99563,set_tempo,8,1,0,,,,,,502849,,,,,,
99572,set_tempo,9,1,0,,,,,,507057,,,,,,
99576,note_on,0,0,2,,,,,,,,0,,,60,0
99576,note_on,0,0,2,,,,,,,,0,,,55,0
99576,note_on,96,0,2,,,,,,,,0,,,63,0
99576,set_tempo,4,1,0,,,,,,511335,,,,,,
99585,set_tempo,9,1,0,,,,,,515685,,,,,,
99590,set_tempo,5,1,0,,,,,,515685,,,,,,
99598,set_tempo,8,1,0,,,,,,511335,,,,,,
99600,note_on,384,0,4,,,,,,,,0,,,43,127
99600,control_change,0,0,4,,,,,,,,0,64,0,,
99600,note_on,0,0,4,,,,,,,,0,,,55,127
99607,set_tempo,9,1,0,,,,,,507057,,,,,,
99616,set_tempo,9,1,0,,,,,,502849,,,,,,
99624,set_tempo,8,1,0,,,,,,498712,,,,,,
99629,set_tempo,5,1,0,,,,,,494641,,,,,,
99638,set_tempo,9,1,0,,,,,,490637,,,,,,
99641,control_change,41,0,4,,,,,,,,0,64,127,,
99646,set_tempo,8,1,0,,,,,,486697,,,,,,
99648,note_on,0,0,1,,,,,,,,0,,,84,0
99648,note_on,108,0,1,,,,,,,,0,,,87,0
99648,note_on,0,0,1,,,,,,,,0,,,75,0
99655,set_tempo,9,1,0,,,,,,482820,,,,,,
99659,set_tempo,4,1,0,,,,,,479004,,,,,,
99660,note_on,12,0,1,,,,,,,,0,,,96,110
99660,note_on,0,0,1,,,,,,,,0,,,88,110
99660,note_on,0,0,1,,,,,,,,0,,,100,110
99668,set_tempo,9,1,0,,,,,,475248,,,,,,
99677,set_tempo,9,1,0,,,,,,471550,,,,,,
99686,set_tempo,9,1,0,,,,,,467909,,,,,,
99690,set_tempo,4,1,0,,,,,,464324,,,,,,
99696,note_on,55,0,4,,,,,,,,0,,,55,0
99696,note_on,0,0,4,,,,,,,,0,,,43,0
99699,set_tempo,9,1,0,,,,,,460794,,,,,,
99707,set_tempo,8,1,0,,,,,,457317,,,,,,
99716,set_tempo,9,1,0,,,,,,453892,,,,,,
99720,note_on,144,0,2,,,,,,,,0,,,64,110
99720,note_on,0,0,2,,,,,,,,0,,,67,110
99720,note_on,0,0,2,,,,,,,,0,,,72,110
99720,set_tempo,4,1,0,,,,,,450518,,,,,,
99729,set_tempo,9,1,0,,,,,,447194,,,,,,
99738,set_tempo,9,1,0,,,,,,443918,,,,,,
99747,set_tempo,9,1,0,,,,,,440690,,,,,,
99751,set_tempo,4,1,0,,,,,,437509,,,,,,
99756,note_on,96,0,1,,,,,,,,0,,,100,0
99756,note_on,0,0,1,,,,,,,,0,,,88,0
99756,note_on,0,0,1,,,,,,,,0,,,96,0
99760,set_tempo,9,1,0,,,,,,434373,,,,,,
99768,set_tempo,8,1,0,,,,,,431282,,,,,,
99777,set_tempo,9,1,0,,,,,,428235,,,,,,
99780,note_on,24,0,1,,,,,,,,0,,,84,110
99780,note_on,0,0,1,,,,,,,,0,,,96,110
99780,note_on,0,0,1,,,,,,,,0,,,88,110
99782,set_tempo,5,1,0,,,,,,425230,,,,,,
99790,set_tempo,8,1,0,,,,,,422268,,,,,,
99799,set_tempo,9,1,0,,,,,,419346,,,,,,
99808,set_tempo,9,1,0,,,,,,416464,,,,,,
99812,set_tempo,4,1,0,,,,,,413622,,,,,,
99816,note_on,96,0,2,,,,,,,,0,,,67,0
99816,note_on,0,0,2,,,,,,,,0,,,72,0
99816,note_on,0,0,2,,,,,,,,0,,,64,0
99821,set_tempo,9,1,0,,,,,,410818,,,,,,
99830,set_tempo,9,1,0,,,,,,408052,,,,,,
99838,set_tempo,8,1,0,,,,,,405323,,,,,,
99840,note_on,0,0,2,,,,,,,,0,,,60,110
99840,note_on,0,0,2,,,,,,,,0,,,64,110
99840,note_on,24,0,2,,,,,,,,0,,,67,110
99843,set_tempo,5,1,0,,,,,,402631,,,,,,
99851,set_tempo,8,1,0,,,,,,405323,,,,,,
99860,set_tempo,9,1,0,,,,,,408052,,,,,,
99869,set_tempo,9,1,0,,,,,,410818,,,,,,
99873,set_tempo,4,1,0,,,,,,413622,,,,,,
99876,note_on,96,0,1,,,,,,,,0,,,88,0
99876,note_on,0,0,1,,,,,,,,0,,,84,0
99876,note_on,0,0,1,,,,,,,,0,,,96,0
99882,set_tempo,9,1,0,,,,,,416464,,,,,,
99891,set_tempo,9,1,0,,,,,,419346,,,,,,
99895,set_tempo,4,1,0,,,,,,422268,,,,,,
99900,note_on,24,0,1,,,,,,,,0,,,79,110
99900,note_on,0,0,1,,,,,,,,0,,,88,110
99900,note_on,0,0,1,,,,,,,,0,,,91,110
99904,set_tempo,9,1,0,,,,,,425230,,,,,,
99912,set_tempo,8,1,0,,,,,,428235,,,,,,
99917,set_tempo,5,1,0,,,,,,431282,,,,,,
99926,set_tempo,9,1,0,,,,,,434373,,,,,,
99934,set_tempo,8,1,0,,,,,,437509,,,,,,
99936,note_on,0,0,2,,,,,,,,0,,,64,0
99936,note_on,0,0,2,,,,,,,,0,,,67,0
99936,note_on,96,0,2,,,,,,,,0,,,60,0
99939,set_tempo,5,1,0,,,,,,440690,,,,,,
99947,set_tempo,8,1,0,,,,,,443918,,,,,,
99956,set_tempo,9,1,0,,,,,,447194,,,,,,
99960,note_on,0,0,2,,,,,,,,0,,,60,110
99960,note_on,24,0,2,,,,,,,,0,,,55,110
99960,note_on,0,0,2,,,,,,,,0,,,64,110
99960,set_tempo,4,1,0,,,,,,450518,,,,,,
99969,set_tempo,9,1,0,,,,,,453892,,,,,,
99978,set_tempo,9,1,0,,,,,,457317,,,,,,
99982,set_tempo,4,1,0,,,,,,460794,,,,,,
99991,set_tempo,9,1,0,,,,,,464324,,,,,,
99996,note_on,0,0,1,,,,,,,,0,,,79,0
99996,note_on,0,0,1,,,,,,,,0,,,88,0
99996,note_on,96,0,1,,,,,,,,0,,,91,0
100000,set_tempo,9,1,0,,,,,,467909,,,,,,
100004,set_tempo,4,1,0,,,,,,471550,,,,,,
100013,set_tempo,9,1,0,,,,,,475248,,,,,,
100020,note_on,0,0,1,,,,,,,,0,,,88,110
100020,note_on,0,0,1,,,,,,,,0,,,84,110
100020,note_on,24,0,1,,,,,,,,0,,,76,110
100022,set_tempo,9,1,0,,,,,,479004,,,,,,
100026,set_tempo,4,1,0,,,,,,482820,,,,,,
100035,set_tempo,9,1,0,,,,,,486697,,,,,,
100043,set_tempo,8,1,0,,,,,,490637,,,,,,
100048,set_tempo,5,1,0,,,,,,494641,,,,,,
100056,note_on,0,0,2,,,,,,,,0,,,55,0
100056,note_on,0,0,2,,,,,,,,0,,,60,0
100056,set_tempo,8,1,0,,,,,,498712,,,,,,
100056,note_on,96,0,2,,,,,,,,0,,,64,0
100065,set_tempo,9,1,0,,,,,,502849,,,,,,
100070,set_tempo,5,1,0,,,,,,507057,,,,,,
100078,set_tempo,8,1,0,,,,,,511335,,,,,,
100078,control_change,382,0,4,,,,,,,,0,64,0,,
100080,note_on,0,0,4,,,,,,,,0,,,43,127
100080,note_on,2,0,4,,,,,,,,0,,,55,127
100083,set_tempo,5,1,0,,,,,,515685,,,,,,
100087,set_tempo,4,1,0,,,,,,717017,,,,,,
100094,control_change,14,0,4,,,,,,,,0,64,127,,
100116,note_on,0,0,1,,,,,,,,0,,,76,0
100116,note_on,0,0,1,,,,,,,,0,,,84,0
100116,note_on,96,0,1,,,,,,,,0,,,88,0
100131,set_tempo,44,1,0,,,,,,684619,,,,,,
100139,set_tempo,8,1,0,,,,,,676972,,,,,,
100140,note_on,24,0,1,,,,,,,,0,,,88,110
100140,note_on,0,0,1,,,,,,,,0,,,97,110
100140,note_on,0,0,1,,,,,,,,0,,,100,110
100144,set_tempo,5,1,0,,,,,,669493,,,,,,
100152,set_tempo,8,1,0,,,,,,662179,,,,,,
100161,set_tempo,9,1,0,,,,,,655022,,,,,,
100170,set_tempo,9,1,0,,,,,,648018,,,,,,
100179,set_tempo,9,1,0,,,,,,641163,,,,,,
100187,set_tempo,8,1,0,,,,,,634451,,,,,,
100192,set_tempo,5,1,0,,,,,,627878,,,,,,
100200,set_tempo,8,1,0,,,,,,621440,,,,,,
100200,note_on,0,0,2,,,,,,,,0,,,76,110
100200,note_on,0,0,2,,,,,,,,0,,,70,110
100200,note_on,144,0,2,,,,,,,,0,,,73,110
100200,note_on,0,0,2,,,,,,,,0,,,67,110
100209,set_tempo,9,1,0,,,,,,615132,,,,,,
100218,set_tempo,9,1,0,,,,,,608952,,,,,,
100227,set_tempo,9,1,0,,,,,,602894,,,,,,
100235,set_tempo,8,1,0,,,,,,596956,,,,,,
100236,note_on,0,0,1,,,,,,,,0,,,88,0
100236,note_on,96,0,1,,,,,,,,0,,,100,0
100236,note_on,0,0,1,,,,,,,,0,,,97,0
100240,set_tempo,5,1,0,,,,,,591133,,,,,,
100248,set_tempo,8,1,0,,,,,,585423,,,,,,
100257,set_tempo,9,1,0,,,,,,579822,,,,,,
100260,note_on,24,0,1,,,,,,,,0,,,97,110
100260,note_on,0,0,1,,,,,,,,0,,,85,110
100260,note_on,0,0,1,,,,,,,,0,,,88,110
100266,set_tempo,9,1,0,,,,,,574328,,,,,,
100275,set_tempo,9,1,0,,,,,,568936,,,,,,
100283,set_tempo,8,1,0,,,,,,563645,,,,,,
100292,set_tempo,9,1,0,,,,,,558451,,,,,,
100296,note_on,0,0,2,,,,,,,,0,,,67,0
100296,note_on,0,0,2,,,,,,,,0,,,70,0
100296,note_on,0,0,2,,,,,,,,0,,,73,0
100296,note_on,96,0,2,,,,,,,,0,,,76,0
100296,set_tempo,4,1,0,,,,,,553352,,,,,,
100305,set_tempo,9,1,0,,,,,,548346,,,,,,
100314,set_tempo,9,1,0,,,,,,543429,,,,,,
100320,note_on,24,0,2,,,,,,,,0,,,67,110
100320,note_on,0,0,2,,,,,,,,0,,,64,110
100320,note_on,0,0,2,,,,,,,,0,,,73,110
100320,note_on,0,0,2,,,,,,,,0,,,70,110
100323,set_tempo,9,1,0,,,,,,538600,,,,,,
100331,set_tempo,8,1,0,,,,,,533855,,,,,,
100340,set_tempo,9,1,0,,,,,,529194,,,,,,
100344,set_tempo,4,1,0,,,,,,524613,,,,,,
100353,set_tempo,9,1,0,,,,,,520111,,,,,,
100356,note_on,96,0,1,,,,,,,,0,,,85,0
100356,note_on,0,0,1,,,,,,,,0,,,97,0
100356,note_on,0,0,1,,,,,,,,0,,,88,0
100362,set_tempo,9,1,0,,,,,,515685,,,,,,
100371,set_tempo,9,1,0,,,,,,511335,,,,,,
100379,set_tempo,8,1,0,,,,,,507057,,,,,,
100380,note_on,0,0,1,,,,,,,,0,,,94,110
100380,note_on,0,0,1,,,,,,,,0,,,85,110
100380,note_on,24,0,1,,,,,,,,0,,,82,110
100388,set_tempo,9,1,0,,,,,,502849,,,,,,
100392,set_tempo,4,1,0,,,,,,498712,,,,,,
100401,set_tempo,9,1,0,,,,,,494641,,,,,,
100410,set_tempo,9,1,0,,,,,,490637,,,,,,
100416,note_on,96,0,2,,,,,,,,0,,,64,0
100416,note_on,0,0,2,,,,,,,,0,,,67,0
100416,note_on,0,0,2,,,,,,,,0,,,70,0
100416,note_on,0,0,2,,,,,,,,0,,,73,0
100419,set_tempo,9,1,0,,,,,,486697,,,,,,
100427,set_tempo,8,1,0,,,,,,482820,,,,,,
100436,set_tempo,9,1,0,,,,,,479004,,,,,,
100440,note_on,0,0,2,,,,,,,,0,,,61,110
100440,note_on,24,0,2,,,,,,,,0,,,67,110
100440,note_on,0,0,2,,,,,,,,0,,,70,110
100440,note_on,0,0,2,,,,,,,,0,,,64,110
100445,set_tempo,9,1,0,,,,,,475248,,,,,,
100449,set_tempo,4,1,0,,,,,,471550,,,,,,
100458,set_tempo,9,1,0,,,,,,467909,,,,,,
100467,set_tempo,9,1,0,,,,,,464324,,,,,,
100475,set_tempo,8,1,0,,,,,,460794,,,,,,
100476,note_on,96,0,1,,,,,,,,0,,,94,0
100476,note_on,0,0,1,,,,,,,,0,,,82,0
100476,note_on,0,0,1,,,,,,,,0,,,85,0
100484,set_tempo,9,1,0,,,,,,457317,,,,,,
100493,set_tempo,9,1,0,,,,,,453892,,,,,,
100497,set_tempo,4,1,0,,,,,,450518,,,,,,
100500,note_on,0,0,1,,,,,,,,0,,,91,110
100500,note_on,24,0,1,,,,,,,,0,,,82,110
100500,note_on,0,0,1,,,,,,,,0,,,79,110
100506,set_tempo,9,1,0,,,,,,447194,,,,,,
100515,set_tempo,9,1,0,,,,,,443918,,,,,,
100523,set_tempo,8,1,0,,,,,,440690,,,,,,
100532,set_tempo,9,1,0,,,,,,437509,,,,,,
100536,note_on,0,0,2,,,,,,,,0,,,67,0
100536,note_on,0,0,2,,,,,,,,0,,,64,0
100536,note_on,0,0,2,,,,,,,,0,,,61,0
100536,note_on,96,0,2,,,,,,,,0,,,70,0
100541,set_tempo,9,1,0,,,,,,434373,,,,,,
100545,set_tempo,4,1,0,,,,,,431282,,,,,,
100557,set_tempo,12,1,0,,,,,,431282,,,,,,
100560,note_on,0,0,2,,,,,,,,0,,,64,110
100560,note_on,0,0,2,,,,,,,,0,,,67,110
100560,note_on,0,0,2,,,,,,,,0,,,61,110
100560,note_on,24,0,2,,,,,,,,0,,,58,110
100574,control_change,480,0,4,,,,,,,,0,64,0,,
100579,control_change,5,0,4,,,,,,,,0,64,127,,
100583,set_tempo,26,1,0,,,,,,434373,,,,,,
100605,set_tempo,22,1,0,,,,,,437509,,,,,,
100608,note_on,108,0,1,,,,,,,,0,,,79,0
100608,note_on,0,0,1,,,,,,,,0,,,91,0
100608,note_on,0,0,1,,,,,,,,0,,,82,0
100620,note_on,0,0,1,,,,,,,,0,,,88,110
100620,note_on,0,0,1,,,,,,,,0,,,76,110
100620,note_on,12,0,1,,,,,,,,0,,,79,110
100627,set_tempo,22,1,0,,,,,,440690,,,,,,
100648,set_tempo,21,1,0,,,,,,443918,,,,,,
100656,note_on,0,0,2,,,,,,,,0,,,64,0
100656,note_on,0,0,2,,,,,,,,0,,,58,0
100656,note_on,96,0,2,,,,,,,,0,,,67,0
100656,note_on,0,0,2,,,,,,,,0,,,61,0
100670,set_tempo,22,1,0,,,,,,447194,,,,,,
100680,note_on,0,0,4,,,,,,,,0,,,64,110
100680,note_on,0,0,4,,,,,,,,0,,,61,110
100680,note_on,101,0,4,,,,,,,,0,,,58,110
100680,note_on,0,0,4,,,,,,,,0,,,55,110
100696,set_tempo,26,1,0,,,,,,450518,,,,,,
100716,note_on,96,0,1,,,,,,,,0,,,88,0
100716,note_on,0,0,1,,,,,,,,0,,,76,0
100716,note_on,0,0,1,,,,,,,,0,,,79,0
100718,set_tempo,22,1,0,,,,,,453892,,,,,,
100740,note_on,0,0,1,,,,,,,,0,,,73,110
100740,note_on,0,0,1,,,,,,,,0,,,76,110
100740,set_tempo,22,1,0,,,,,,457317,,,,,,
100740,note_on,24,0,1,,,,,,,,0,,,85,110
100762,set_tempo,22,1,0,,,,,,460794,,,,,,
100776,note_on,0,0,4,,,,,,,,0,,,55,0
100776,note_on,0,0,4,,,,,,,,0,,,58,0
100776,note_on,0,0,4,,,,,,,,0,,,61,0
100776,note_on,96,0,4,,,,,,,,0,,,64,0
100784,set_tempo,22,1,0,,,,,,464324,,,,,,
100800,note_on,0,0,4,,,,,,,,0,,,52,110
100800,note_on,0,0,4,,,,,,,,0,,,55,110
100800,note_on,0,0,4,,,,,,,,0,,,58,110
100800,note_on,24,0,4,,,,,,,,0,,,61,110
100810,set_tempo,26,1,0,,,,,,467909,,,,,,
100832,set_tempo,22,1,0,,,,,,471550,,,,,,
100836,note_on,96,0,1,,,,,,,,0,,,73,0
100836,note_on,0,0,1,,,,,,,,0,,,85,0
100836,note_on,0,0,1,,,,,,,,0,,,76,0
100848,note_on,0,0,4,,,,,,,,0,,,55,0
100848,note_on,48,0,4,,,,,,,,0,,,43,0
100854,set_tempo,22,1,0,,,,,,475248,,,,,,
100860,note_on,24,0,1,,,,,,,,0,,,70,110
100860,note_on,0,0,1,,,,,,,,0,,,82,110
100860,note_on,0,0,1,,,,,,,,0,,,73,110
100875,set_tempo,21,1,0,,,,,,479004,,,,,,
100896,note_on,48,0,4,,,,,,,,0,,,55,0
100896,note_on,0,0,4,,,,,,,,0,,,52,0
100896,note_on,0,0,4,,,,,,,,0,,,58,0
100896,note_on,0,0,4,,,,,,,,0,,,61,0
100897,set_tempo,22,1,0,,,,,,482820,,,,,,
100920,note_on,0,0,4,,,,,,,,0,,,49,110
100920,note_on,0,0,4,,,,,,,,0,,,52,110
100920,note_on,0,0,4,,,,,,,,0,,,55,110
100920,note_on,24,0,4,,,,,,,,0,,,58,110
100923,set_tempo,26,1,0,,,,,,486697,,,,,,
100945,set_tempo,22,1,0,,,,,,490637,,,,,,
100956,note_on,0,0,1,,,,,,,,0,,,70,0
100956,note_on,0,0,1,,,,,,,,0,,,73,0
100956,note_on,96,0,1,,,,,,,,0,,,82,0
100967,set_tempo,22,1,0,,,,,,494641,,,,,,
100980,note_on,0,0,1,,,,,,,,0,,,79,110
100980,note_on,24,0,1,,,,,,,,0,,,70,110
100980,note_on,0,0,1,,,,,,,,0,,,67,110
100989,set_tempo,22,1,0,,,,,,498712,,,,,,
101011,set_tempo,22,1,0,,,,,,502849,,,,,,
101016,note_on,0,0,4,,,,,,,,0,,,58,0
101016,note_on,0,0,4,,,,,,,,0,,,55,0
101016,note_on,0,0,4,,,,,,,,0,,,49,0
101016,note_on,96,0,4,,,,,,,,0,,,52,0
101032,set_tempo,21,1,0,,,,,,507057,,,,,,
101040,note_on,0,0,4,,,,,,,,0,,,52,110
101040,note_on,0,0,4,,,,,,,,0,,,58,110
101040,note_on,24,0,4,,,,,,,,0,,,61,110
101059,set_tempo,27,1,0,,,,,,511335,,,,,,
101076,note_on,0,0,1,,,,,,,,0,,,79,0
101076,note_on,0,0,1,,,,,,,,0,,,70,0
101076,note_on,96,0,1,,,,,,,,0,,,67,0
101080,set_tempo,21,1,0,,,,,,515685,,,,,,
101100,note_on,24,0,1,,,,,,,,0,,,67,110
101100,note_on,0,0,1,,,,,,,,0,,,64,110
101100,note_on,0,0,1,,,,,,,,0,,,76,110
101102,set_tempo,22,1,0,,,,,,520111,,,,,,
101124,set_tempo,22,1,0,,,,,,524613,,,,,,
101136,note_on,96,0,4,,,,,,,,0,,,52,0
101136,note_on,0,0,4,,,,,,,,0,,,58,0
101136,note_on,0,0,4,,,,,,,,0,,,61,0
101146,set_tempo,22,1,0,,,,,,529194,,,,,,
101160,note_on,24,0,4,,,,,,,,0,,,58,110
101160,note_on,0,0,4,,,,,,,,0,,,49,110
101160,note_on,0,0,4,,,,,,,,0,,,55,110
101172,set_tempo,26,1,0,,,,,,533855,,,,,,
101194,set_tempo,22,1,0,,,,,,538600,,,,,,
101196,note_on,96,0,1,,,,,,,,0,,,76,0
101196,note_on,0,0,1,,,,,,,,0,,,64,0
101196,note_on,0,0,1,,,,,,,,0,,,67,0
101216,set_tempo,22,1,0,,,,,,543429,,,,,,
101220,note_on,0,0,1,,,,,,,,0,,,64,110
101220,note_on,0,0,1,,,,,,,,0,,,73,110
101220,note_on,24,0,1,,,,,,,,0,,,61,110
101238,set_tempo,22,1,0,,,,,,548346,,,,,,
101256,note_on,0,0,4,,,,,,,,0,,,58,0
101256,note_on,96,0,4,,,,,,,,0,,,55,0
101256,note_on,0,0,4,,,,,,,,0,,,49,0
101259,set_tempo,21,1,0,,,,,,553352,,,,,,
101280,note_on,24,0,4,,,,,,,,0,,,52,110
101280,note_on,0,0,4,,,,,,,,0,,,46,110
101280,note_on,0,0,4,,,,,,,,0,,,55,110
101286,set_tempo,27,1,0,,,,,,558451,,,,,,
101307,set_tempo,21,1,0,,,,,,563645,,,,,,
101316,note_on,0,0,1,,,,,,,,0,,,73,0
101316,note_on,96,0,1,,,,,,,,0,,,64,0
101316,note_on,0,0,1,,,,,,,,0,,,61,0
101329,set_tempo,22,1,0,,,,,,568936,,,,,,
101340,note_on,0,0,1,,,,,,,,0,,,58,110
101340,note_on,24,0,1,,,,,,,,0,,,70,110
101340,note_on,0,0,1,,,,,,,,0,,,61,110
101351,set_tempo,22,1,0,,,,,,574328,,,,,,
101373,set_tempo,22,1,0,,,,,,579822,,,,,,
101376,note_on,0,0,4,,,,,,,,0,,,46,0
101376,note_on,96,0,4,,,,,,,,0,,,55,0
101376,note_on,0,0,4,,,,,,,,0,,,52,0
101399,set_tempo,26,1,0,,,,,,585423,,,,,,
101400,note_on,0,0,4,,,,,,,,0,,,49,110
101400,note_on,24,0,4,,,,,,,,0,,,52,110
101400,note_on,0,0,4,,,,,,,,0,,,43,110
101421,set_tempo,22,1,0,,,,,,591133,,,,,,
101436,note_on,0,0,1,,,,,,,,0,,,61,0
101436,note_on,0,0,1,,,,,,,,0,,,70,0
101436,note_on,96,0,1,,,,,,,,0,,,58,0
101443,set_tempo,22,1,0,,,,,,596956,,,,,,
101460,note_on,0,0,1,,,,,,,,0,,,58,110
101460,note_on,0,0,1,,,,,,,,0,,,67,110
101460,note_on,24,0,1,,,,,,,,0,,,55,110
101464,set_tempo,21,1,0,,,,,,602894,,,,,,
101486,set_tempo,22,1,0,,,,,,608952,,,,,,
101496,note_on,96,0,4,,,,,,,,0,,,49,0
101496,note_on,0,0,4,,,,,,,,0,,,43,0
101496,note_on,0,0,4,,,,,,,,0,,,52,0
101508,set_tempo,22,1,0,,,,,,608952,,,,,,
101520,note_on,0,0,4,,,,,,,,0,,,48,110
101520,note_on,24,0,4,,,,,,,,0,,,42,110
101520,control_change,0,0,4,,,,,,,,0,64,0,,
101520,note_on,0,0,4,,,,,,,,0,,,51,110
101534,set_tempo,26,1,0,,,,,,602894,,,,,,
101551,control_change,31,0,4,,,,,,,,0,64,127,,
101556,set_tempo,22,1,0,,,,,,596956,,,,,,
101568,note_on,108,0,1,,,,,,,,0,,,58,0
101568,note_on,0,0,1,,,,,,,,0,,,55,0
101568,note_on,0,0,1,,,,,,,,0,,,67,0
101580,note_on,0,0,1,,,,,,,,0,,,57,110
101580,note_on,0,0,1,,,,,,,,0,,,54,110
101580,note_on,12,0,1,,,,,,,,0,,,66,110
101582,set_tempo,26,1,0,,,,,,591133,,,,,,
101604,set_tempo,22,1,0,,,,,,585423,,,,,,
101616,note_on,0,0,4,,,,,,,,0,,,51,0
101616,note_on,65,0,4,,,,,,,,0,,,48,0
101616,note_on,0,0,4,,,,,,,,0,,,42,0
101630,set_tempo,26,1,0,,,,,,579822,,,,,,
101640,note_on,0,0,4,,,,,,,,0,,,43,110
101640,note_on,24,0,4,,,,,,,,0,,,49,110
101640,note_on,0,0,4,,,,,,,,0,,,52,110
101652,set_tempo,22,1,0,,,,,,574328,,,,,,
101674,set_tempo,22,1,0,,,,,,568936,,,,,,
101676,note_on,96,0,1,,,,,,,,0,,,57,0
101676,note_on,0,0,1,,,,,,,,0,,,54,0
101676,note_on,0,0,1,,,,,,,,0,,,66,0
101700,note_on,0,0,1,,,,,,,,0,,,58,110
101700,note_on,0,0,1,,,,,,,,0,,,67,110
101700,note_on,24,0,1,,,,,,,,0,,,55,110
101700,set_tempo,26,1,0,,,,,,563645,,,,,,
101722,set_tempo,22,1,0,,,,,,558451,,,,,,
101736,note_on,96,0,4,,,,,,,,0,,,43,0
101736,note_on,0,0,4,,,,,,,,0,,,49,0
101736,note_on,0,0,4,,,,,,,,0,,,52,0
101748,set_tempo,26,1,0,,,,,,553352,,,,,,
101760,note_on,24,0,4,,,,,,,,0,,,53,110
101760,note_on,0,0,4,,,,,,,,0,,,50,110
101760,note_on,0,0,4,,,,,,,,0,,,44,110
101770,set_tempo,22,1,0,,,,,,548346,,,,,,
101792,set_tempo,22,1,0,,,,,,543429,,,,,,
101796,note_on,0,0,1,,,,,,,,0,,,67,0
101796,note_on,0,0,1,,,,,,,,0,,,55,0
101796,note_on,96,0,1,,,,,,,,0,,,58,0
101818,set_tempo,26,1,0,,,,,,538600,,,,,,
101820,note_on,0,0,1,,,,,,,,0,,,68,110
101820,note_on,0,0,1,,,,,,,,0,,,59,110
101820,note_on,24,0,1,,,,,,,,0,,,56,110
101840,set_tempo,22,1,0,,,,,,533855,,,,,,
101856,note_on,0,0,4,,,,,,,,0,,,50,0
101856,note_on,0,0,4,,,,,,,,0,,,53,0
101856,note_on,96,0,4,,,,,,,,0,,,44,0
101866,set_tempo,26,1,0,,,,,,529194,,,,,,
101880,note_on,0,0,4,,,,,,,,0,,,51,110
101880,note_on,0,0,4,,,,,,,,0,,,54,110
101880,note_on,24,0,4,,,,,,,,0,,,45,110
101888,set_tempo,22,1,0,,,,,,524613,,,,,,
101914,set_tempo,26,1,0,,,,,,520111,,,,,,
101916,note_on,0,0,1,,,,,,,,0,,,56,0
101916,note_on,0,0,1,,,,,,,,0,,,59,0
101916,note_on,96,0,1,,,,,,,,0,,,68,0
101936,set_tempo,22,1,0,,,,,,515685,,,,,,
101940,note_on,24,0,1,,,,,,,,0,,,57,110
101940,note_on,0,0,1,,,,,,,,0,,,60,110
101940,note_on,0,0,1,,,,,,,,0,,,69,110
101958,set_tempo,22,1,0,,,,,,511335,,,,,,
101976,note_on,96,0,4,,,,,,,,0,,,54,0
101976,note_on,0,0,4,,,,,,,,0,,,51,0
101976,note_on,0,0,4,,,,,,,,0,,,45,0
101984,set_tempo,26,1,0,,,,,,507057,,,,,,
102000,note_on,24,0,4,,,,,,,,0,,,46,110
102000,note_on,0,0,4,,,,,,,,0,,,55,110
102000,note_on,0,0,4,,,,,,,,0,,,52,110
102006,set_tempo,22,1,0,,,,,,502849,,,,,,
102031,control_change,31,0,4,,,,,,,,0,64,0,,
102032,set_tempo,26,1,0,,,,,,498712,,,,,,
102036,note_on,96,0,1,,,,,,,,0,,,60,0
102036,note_on,0,0,1,,,,,,,,0,,,69,0
102036,note_on,0,0,1,,,,,,,,0,,,57,0
102050,control_change,19,0,4,,,,,,,,0,64,127,,
102054,set_tempo,22,1,0,,,,,,494641,,,,,,
102060,note_on,0,0,1,,,,,,,,0,,,61,110
102060,note_on,0,0,1,,,,,,,,0,,,70,110
102060,note_on,24,0,1,,,,,,,,0,,,58,110
102075,set_tempo,21,1,0,,,,,,490637,,,,,,
102096,note_on,0,0,4,,,,,,,,0,,,52,0
102096,note_on,0,0,4,,,,,,,,0,,,46,0
102096,note_on,46,0,4,,,,,,,,0,,,55,0
102102,set_tempo,27,1,0,,,,,,486697,,,,,,
102120,note_on,24,0,4,,,,,,,,0,,,53,110
102120,note_on,0,0,4,,,,,,,,0,,,56,110
102120,note_on,0,0,4,,,,,,,,0,,,47,110
102123,set_tempo,21,1,0,,,,,,482820,,,,,,
102150,set_tempo,27,1,0,,,,,,479004,,,,,,
102156,note_on,96,0,1,,,,,,,,0,,,70,0
102156,note_on,0,0,1,,,,,,,,0,,,61,0
102156,note_on,0,0,1,,,,,,,,0,,,58,0
102171,set_tempo,21,1,0,,,,,,475248,,,,,,
102180,note_on,0,0,1,,,,,,,,0,,,62,110
102180,note_on,24,0,1,,,,,,,,0,,,59,110
102180,note_on,0,0,1,,,,,,,,0,,,71,110
102198,set_tempo,27,1,0,,,,,,471550,,,,,,
102216,note_on,0,0,4,,,,,,,,0,,,53,0
102216,note_on,96,0,4,,,,,,,,0,,,56,0
102216,note_on,0,0,4,,,,,,,,0,,,47,0
102219,set_tempo,21,1,0,,,,,,467909,,,,,,
102240,note_on,24,0,4,,,,,,,,0,,,54,110
102240,note_on,0,0,4,,,,,,,,0,,,57,110
102240,note_on,0,0,4,,,,,,,,0,,,48,110
102241,set_tempo,22,1,0,,,,,,464324,,,,,,
102267,set_tempo,26,1,0,,,,,,460794,,,,,,
102276,note_on,0,0,1,,,,,,,,0,,,71,0
102276,note_on,96,0,1,,,,,,,,0,,,62,0
102276,note_on,0,0,1,,,,,,,,0,,,59,0
102289,set_tempo,22,1,0,,,,,,457317,,,,,,
102300,note_on,0,0,1,,,,,,,,0,,,60,110
102300,note_on,0,0,1,,,,,,,,0,,,72,110
102300,note_on,24,0,1,,,,,,,,0,,,63,110
102315,set_tempo,26,1,0,,,,,,453892,,,,,,
102336,note_on,96,0,4,,,,,,,,0,,,48,0
102336,note_on,0,0,4,,,,,,,,0,,,57,0
102336,note_on,0,0,4,,,,,,,,0,,,54,0
102337,set_tempo,22,1,0,,,,,,450518,,,,,,
102359,set_tempo,22,1,0,,,,,,447194,,,,,,
102360,note_on,24,0,4,,,,,,,,0,,,55,110
102360,note_on,0,0,4,,,,,,,,0,,,58,110
102360,note_on,0,0,4,,,,,,,,0,,,49,110
102385,set_tempo,26,1,0,,,,,,443918,,,,,,
102396,note_on,0,0,1,,,,,,,,0,,,72,0
102396,note_on,0,0,1,,,,,,,,0,,,63,0
102396,note_on,96,0,1,,,,,,,,0,,,60,0
102407,set_tempo,22,1,0,,,,,,440690,,,,,,
102420,note_on,24,0,1,,,,,,,,0,,,64,110
102420,note_on,0,0,1,,,,,,,,0,,,61,110
102420,note_on,0,0,1,,,,,,,,0,,,73,110
102433,set_tempo,26,1,0,,,,,,437509,,,,,,
102455,set_tempo,22,1,0,,,,,,434373,,,,,,
102456,note_on,0,0,4,,,,,,,,0,,,55,0
102456,note_on,96,0,4,,,,,,,,0,,,58,0
102456,note_on,0,0,4,,,,,,,,0,,,49,0
102477,set_tempo,22,1,0,,,,,,431282,,,,,,
102480,note_on,0,0,4,,,,,,,,0,,,57,110
102480,note_on,0,0,4,,,,,,,,0,,,48,110
102480,note_on,0,0,4,,,,,,,,0,,,54,110
102480,control_change,24,0,4,,,,,,,,0,64,0,,
102503,set_tempo,26,1,0,,,,,,434373,,,,,,
102506,control_change,26,0,4,,,,,,,,0,64,127,,
102525,set_tempo,22,1,0,,,,,,437509,,,,,,
102528,note_on,108,0,1,,,,,,,,0,,,73,0
102528,note_on,0,0,1,,,,,,,,0,,,61,0
102528,note_on,0,0,1,,,,,,,,0,,,64,0
102540,note_on,12,0,1,,,,,,,,0,,,60,110
102540,note_on,0,0,1,,,,,,,,0,,,63,110
102540,note_on,0,0,1,,,,,,,,0,,,72,110
102551,set_tempo,26,1,0,,,,,,440690,,,,,,
102573,set_tempo,22,1,0,,,,,,443918,,,,,,
102576,note_on,70,0,4,,,,,,,,0,,,54,0
102576,note_on,0,0,4,,,,,,,,0,,,57,0
102576,note_on,0,0,4,,,,,,,,0,,,48,0
102595,set_tempo,22,1,0,,,,,,447194,,,,,,
102600,note_on,0,0,4,,,,,,,,0,,,56,110
102600,note_on,0,0,4,,,,,,,,0,,,53,110
102600,note_on,24,0,4,,,,,,,,0,,,47,110
102621,set_tempo,26,1,0,,,,,,450518,,,,,,
102636,note_on,0,0,1,,,,,,,,0,,,72,0
102636,note_on,0,0,1,,,,,,,,0,,,60,0
102636,note_on,96,0,1,,,,,,,,0,,,63,0
102643,set_tempo,22,1,0,,,,,,453892,,,,,,
102660,note_on,24,0,1,,,,,,,,0,,,59,110
102660,note_on,0,0,1,,,,,,,,0,,,71,110
102660,note_on,0,0,1,,,,,,,,0,,,62,110
102669,set_tempo,26,1,0,,,,,,457317,,,,,,
102691,set_tempo,22,1,0,,,,,,460794,,,,,,
102696,note_on,0,0,4,,,,,,,,0,,,47,0
102696,note_on,0,0,4,,,,,,,,0,,,53,0
102696,note_on,96,0,4,,,,,,,,0,,,56,0
102712,set_tempo,21,1,0,,,,,,464324,,,,,,
102720,note_on,24,0,4,,,,,,,,0,,,55,110
102720,note_on,0,0,4,,,,,,,,0,,,46,110
102720,note_on,0,0,4,,,,,,,,0,,,52,110
102739,set_tempo,27,1,0,,,,,,467909,,,,,,
102756,note_on,96,0,1,,,,,,,,0,,,62,0
102756,note_on,0,0,1,,,,,,,,0,,,59,0
102756,note_on,0,0,1,,,,,,,,0,,,71,0
102760,set_tempo,21,1,0,,,,,,471550,,,,,,
102780,note_on,0,0,1,,,,,,,,0,,,58,110
102780,note_on,0,0,1,,,,,,,,0,,,70,110
102780,note_on,24,0,1,,,,,,,,0,,,61,110
102787,set_tempo,27,1,0,,,,,,475248,,,,,,
102808,set_tempo,21,1,0,,,,,,479004,,,,,,
102816,note_on,0,0,4,,,,,,,,0,,,46,0
102816,note_on,0,0,4,,,,,,,,0,,,55,0
102816,note_on,96,0,4,,,,,,,,0,,,52,0
102830,set_tempo,22,1,0,,,,,,482820,,,,,,
102840,note_on,24,0,4,,,,,,,,0,,,54,110
102840,note_on,0,0,4,,,,,,,,0,,,51,110
102840,note_on,0,0,4,,,,,,,,0,,,45,110
102856,set_tempo,26,1,0,,,,,,486697,,,,,,
102876,note_on,0,0,1,,,,,,,,0,,,61,0
102876,note_on,96,0,1,,,,,,,,0,,,70,0
102876,note_on,0,0,1,,,,,,,,0,,,58,0
102878,set_tempo,22,1,0,,,,,,490637,,,,,,
102900,note_on,0,0,1,,,,,,,,0,,,57,110
102900,note_on,0,0,1,,,,,,,,0,,,60,110
102900,note_on,24,0,1,,,,,,,,0,,,69,110
102904,set_tempo,26,1,0,,,,,,494641,,,,,,
102926,set_tempo,22,1,0,,,,,,498712,,,,,,
102936,note_on,0,0,4,,,,,,,,0,,,54,0
102936,note_on,96,0,4,,,,,,,,0,,,45,0
102936,note_on,0,0,4,,,,,,,,0,,,51,0
102948,set_tempo,22,1,0,,,,,,502849,,,,,,
102954,set_tempo,6,1,0,,,,,,498712,,,,,,
102960,note_on,24,0,4,,,,,,,,0,,,50,110
102960,note_on,0,0,4,,,,,,,,0,,,44,110
102960,note_on,0,0,4,,,,,,,,0,,,53,110
102967,set_tempo,13,1,0,,,,,,502849,,,,,,
102975,set_tempo,8,1,0,,,,,,507057,,,,,,
102986,control_change,26,0,4,,,,,,,,0,64,0,,
102989,set_tempo,14,1,0,,,,,,511335,,,,,,
102996,note_on,0,0,1,,,,,,,,0,,,57,0
102996,note_on,0,0,1,,,,,,,,0,,,69,0
102996,note_on,96,0,1,,,,,,,,0,,,60,0
102997,set_tempo,8,1,0,,,,,,515685,,,,,,
103003,control_change,17,0,4,,,,,,,,0,64,127,,
103010,set_tempo,13,1,0,,,,,,520111,,,,,,
103019,set_tempo,9,1,0,,,,,,524613,,,,,,
103020,note_on,24,0,1,,,,,,,,0,,,68,110
103020,note_on,0,0,1,,,,,,,,0,,,59,110
103020,note_on,0,0,1,,,,,,,,0,,,56,110
103032,set_tempo,13,1,0,,,,,,529194,,,,,,
103041,set_tempo,9,1,0,,,,,,533855,,,,,,
103050,set_tempo,9,1,0,,,,,,538600,,,,,,
103056,note_on,53,0,4,,,,,,,,0,,,53,0
103056,note_on,0,0,4,,,,,,,,0,,,50,0
103056,note_on,0,0,4,,,,,,,,0,,,44,0
103063,set_tempo,13,1,0,,,,,,543429,,,,,,
103071,set_tempo,8,1,0,,,,,,548346,,,,,,
103080,note_on,24,0,4,,,,,,,,0,,,52,110
103080,note_on,0,0,4,,,,,,,,0,,,49,110
103080,note_on,0,0,4,,,,,,,,0,,,43,110
103085,set_tempo,14,1,0,,,,,,553352,,,,,,
103093,set_tempo,8,1,0,,,,,,558451,,,,,,
103106,set_tempo,13,1,0,,,,,,563645,,,,,,
103115,set_tempo,9,1,0,,,,,,568936,,,,,,
103116,note_on,0,0,1,,,,,,,,0,,,68,0
103116,note_on,96,0,1,,,,,,,,0,,,56,0
103116,note_on,0,0,1,,,,,,,,0,,,59,0
103124,set_tempo,9,1,0,,,,,,574328,,,,,,
103137,set_tempo,13,1,0,,,,,,579822,,,,,,
103140,note_on,0,0,1,,,,,,,,0,,,58,110
103140,note_on,0,0,1,,,,,,,,0,,,67,110
103140,note_on,24,0,1,,,,,,,,0,,,55,110
103146,set_tempo,9,1,0,,,,,,585423,,,,,,
103159,set_tempo,13,1,0,,,,,,591133,,,,,,
103167,set_tempo,8,1,0,,,,,,596956,,,,,,
103176,note_on,96,0,4,,,,,,,,0,,,49,0
103176,note_on,0,0,4,,,,,,,,0,,,43,0
103176,note_on,0,0,4,,,,,,,,0,,,52,0
103181,set_tempo,14,1,0,,,,,,602894,,,,,,
103189,set_tempo,8,1,0,,,,,,608952,,,,,,
103198,set_tempo,9,1,0,,,,,,608952,,,,,,
103200,note_on,0,0,4,,,,,,,,0,,,40,110
103200,note_on,0,0,4,,,,,,,,0,,,49,110
103200,note_on,24,0,4,,,,,,,,0,,,46,110
103207,set_tempo,9,1,0,,,,,,615132,,,,,,
103211,set_tempo,4,1,0,,,,,,621440,,,,,,
103220,set_tempo,9,1,0,,,,,,627878,,,,,,
103224,set_tempo,4,1,0,,,,,,634451,,,,,,
103233,set_tempo,9,1,0,,,,,,641163,,,,,,
103236,note_on,96,0,1,,,,,,,,0,,,58,0
103236,note_on,0,0,1,,,,,,,,0,,,67,0
103236,note_on,0,0,1,,,,,,,,0,,,55,0
103237,set_tempo,4,1,0,,,,,,648018,,,,,,
103246,set_tempo,9,1,0,,,,,,655022,,,,,,
103250,set_tempo,4,1,0,,,,,,662179,,,,,,
103259,set_tempo,9,1,0,,,,,,669493,,,,,,
103260,note_on,0,0,1,,,,,,,,0,,,64,110
103260,note_on,24,0,1,,,,,,,,0,,,52,110
103260,note_on,0,0,1,,,,,,,,0,,,55,110
103263,set_tempo,4,1,0,,,,,,676972,,,,,,
103272,set_tempo,9,1,0,,,,,,684619,,,,,,
103277,set_tempo,5,1,0,,,,,,692441,,,,,,
103285,set_tempo,8,1,0,,,,,,700444,,,,,,
103290,set_tempo,5,1,0,,,,,,708634,,,,,,
103296,note_on,96,0,4,,,,,,,,0,,,40,0
103296,note_on,0,0,4,,,,,,,,0,,,46,0
103296,note_on,0,0,4,,,,,,,,0,,,49,0
103298,set_tempo,8,1,0,,,,,,717017,,,,,,
103303,set_tempo,5,1,0,,,,,,725602,,,,,,
103311,set_tempo,8,1,0,,,,,,734394,,,,,,
103316,set_tempo,5,1,0,,,,,,743402,,,,,,
103320,set_tempo,4,1,0,,,,,,752634,,,,,,
103320,note_on,0,0,4,,,,,,,,0,,,43,110
103320,note_on,24,0,4,,,,,,,,0,,,37,110
103320,note_on,0,0,4,,,,,,,,0,,,46,110
103329,set_tempo,9,1,0,,,,,,762098,,,,,,
103333,set_tempo,4,1,0,,,,,,771803,,,,,,
103342,set_tempo,9,1,0,,,,,,781759,,,,,,
103346,set_tempo,4,1,0,,,,,,791975,,,,,,
103355,set_tempo,9,1,0,,,,,,802461,,,,,,
103356,note_on,96,0,1,,,,,,,,0,,,64,0
103356,note_on,0,0,1,,,,,,,,0,,,52,0
103356,note_on,0,0,1,,,,,,,,0,,,55,0
103359,set_tempo,4,1,0,,,,,,813229,,,,,,
103368,set_tempo,9,1,0,,,,,,824289,,,,,,
103373,set_tempo,5,1,0,,,,,,835655,,,,,,
103380,note_on,0,0,1,,,,,,,,0,,,52,110
103380,note_on,0,0,1,,,,,,,,0,,,49,110
103380,note_on,24,0,1,,,,,,,,0,,,61,110
103381,set_tempo,8,1,0,,,,,,847338,,,,,,
103386,set_tempo,5,1,0,,,,,,859353,,,,,,
103394,set_tempo,8,1,0,,,,,,871713,,,,,,
103399,set_tempo,5,1,0,,,,,,884434,,,,,,
103407,set_tempo,8,1,0,,,,,,897532,,,,,,
103412,set_tempo,5,1,0,,,,,,911023,,,,,,
103416,note_on,0,0,4,,,,,,,,0,,,37,0
103416,note_on,0,0,4,,,,,,,,0,,,43,0
103416,note_on,96,0,4,,,,,,,,0,,,46,0
103421,set_tempo,9,1,0,,,,,,924927,,,,,,
103425,set_tempo,4,1,0,,,,,,939261,,,,,,
103428,note_on,48,0,1,,,,,,,,0,,,52,0
103428,note_on,0,0,1,,,,,,,,0,,,61,0
103428,note_on,0,0,1,,,,,,,,0,,,49,0
103434,set_tempo,9,1,0,,,,,,954047,,,,,,
103438,set_tempo,4,1,0,,,,,,985060,,,,,,
103440,note_on,0,0,4,,,,,,,,0,,,68,110
103440,note_on,0,0,4,,,,,,,,0,,,60,110
103440,note_on,0,0,4,,,,,,,,0,,,44,110
103440,note_on,24,0,4,,,,,,,,0,,,56,110
103440,note_on,0,0,4,,,,,,,,0,,,39,110
103440,control_change,0,0,4,,,,,,,,0,64,0,,
103440,note_on,0,0,4,,,,,,,,0,,,32,110
103482,set_tempo,44,1,0,,,,,,734394,,,,,,
103491,set_tempo,9,1,0,,,,,,725602,,,,,,
103492,control_change,52,0,4,,,,,,,,0,64,127,,
103499,set_tempo,8,1,0,,,,,,717017,,,,,,
103504,set_tempo,5,1,0,,,,,,708634,,,,,,
103512,set_tempo,8,1,0,,,,,,700444,,,,,,
103521,set_tempo,9,1,0,,,,,,692441,,,,,,
103526,set_tempo,5,1,0,,,,,,684619,,,,,,
103534,set_tempo,8,1,0,,,,,,676972,,,,,,
103543,set_tempo,9,1,0,,,,,,669493,,,,,,
103547,set_tempo,4,1,0,,,,,,662179,,,,,,
103556,set_tempo,9,1,0,,,,,,655022,,,,,,
103560,note_on,51768,0,3,,,,,,,,0,,,51,100
103565,set_tempo,9,1,0,,,,,,648018,,,,,,
103569,set_tempo,4,1,0,,,,,,641163,,,,,,
103578,set_tempo,9,1,0,,,,,,634451,,,,,,
103587,set_tempo,9,1,0,,,,,,627878,,,,,,
103591,set_tempo,4,1,0,,,,,,621440,,,,,,
103600,set_tempo,9,1,0,,,,,,615132,,,,,,
103608,set_tempo,8,1,0,,,,,,608952,,,,,,
103613,set_tempo,5,1,0,,,,,,602894,,,,,,
103620,note_on,2964,0,2,,,,,,,,0,,,63,100
103622,set_tempo,9,1,0,,,,,,596956,,,,,,
103630,set_tempo,8,1,0,,,,,,591133,,,,,,
103639,set_tempo,9,1,0,,,,,,585423,,,,,,
103643,set_tempo,4,1,0,,,,,,579822,,,,,,
103652,set_tempo,9,1,0,,,,,,574328,,,,,,
103656,note_on,96,0,3,,,,,,,,0,,,51,0
103661,set_tempo,9,1,0,,,,,,568936,,,,,,
103665,set_tempo,4,1,0,,,,,,563645,,,,,,
103674,set_tempo,9,1,0,,,,,,558451,,,,,,
103680,note_on,252,0,1,,,,,,,,0,,,92,100
103680,note_on,24,0,3,,,,,,,,0,,,48,100
103680,note_on,0,0,1,,,,,,,,0,,,84,100
103680,note_on,0,0,1,,,,,,,,0,,,80,100
103683,set_tempo,9,1,0,,,,,,553352,,,,,,
103687,set_tempo,4,1,0,,,,,,548346,,,,,,
103696,set_tempo,9,1,0,,,,,,543429,,,,,,
103704,set_tempo,8,1,0,,,,,,538600,,,,,,
103709,set_tempo,5,1,0,,,,,,533855,,,,,,
103716,note_on,96,0,2,,,,,,,,0,,,63,0
103718,set_tempo,9,1,0,,,,,,529194,,,,,,
103726,set_tempo,8,1,0,,,,,,524613,,,,,,
103731,set_tempo,5,1,0,,,,,,520111,,,,,,
103739,set_tempo,8,1,0,,,,,,515685,,,,,,
103740,note_on,24,0,2,,,,,,,,0,,,60,100
103748,set_tempo,9,1,0,,,,,,511335,,,,,,
103752,set_tempo,4,1,0,,,,,,507057,,,,,,
103761,set_tempo,9,1,0,,,,,,502849,,,,,,
103770,set_tempo,9,1,0,,,,,,498712,,,,,,
103776,note_on,96,0,3,,,,,,,,0,,,48,0
103779,set_tempo,9,1,0,,,,,,494641,,,,,,
103783,set_tempo,4,1,0,,,,,,490637,,,,,,
103792,set_tempo,9,1,0,,,,,,486697,,,,,,
103800,set_tempo,8,1,0,,,,,,482820,,,,,,
103800,note_on,24,0,3,,,,,,,,0,,,51,100
103805,set_tempo,5,1,0,,,,,,479004,,,,,,
103814,set_tempo,9,1,0,,,,,,475248,,,,,,
103822,set_tempo,8,1,0,,,,,,471550,,,,,,
103827,set_tempo,5,1,0,,,,,,467909,,,,,,
103835,set_tempo,8,1,0,,,,,,464324,,,,,,
103836,note_on,96,0,2,,,,,,,,0,,,60,0
103844,set_tempo,9,1,0,,,,,,460794,,,,,,
103848,set_tempo,4,1,0,,,,,,457317,,,,,,
103857,set_tempo,9,1,0,,,,,,453892,,,,,,
103860,note_on,24,0,2,,,,,,,,0,,,63,100
103866,set_tempo,9,1,0,,,,,,450518,,,,,,
103870,set_tempo,4,1,0,,,,,,447194,,,,,,
103872,note_on,0,0,1,,,,,,,,0,,,92,0
103872,note_on,0,0,1,,,,,,,,0,,,80,0
103872,note_on,192,0,1,,,,,,,,0,,,84,0
103879,set_tempo,9,1,0,,,,,,443918,,,,,,
103888,set_tempo,9,1,0,,,,,,440690,,,,,,
103892,set_tempo,4,1,0,,,,,,437509,,,,,,
103896,set_tempo,4,1,0,,,,,,434373,,,,,,
103896,note_on,96,0,3,,,,,,,,0,,,51,0
103905,set_tempo,9,1,0,,,,,,431282,,,,,,
103920,note_on,24,0,3,,,,,,,,0,,,53,100
103920,note_on,0,0,1,,,,,,,,0,,,84,100
103920,note_on,48,0,1,,,,,,,,0,,,92,100
103920,note_on,0,0,1,,,,,,,,0,,,80,100
103956,note_on,96,0,2,,,,,,,,0,,,63,0
103980,note_on,24,0,2,,,,,,,,0,,,65,100
104016,note_on,96,0,3,,,,,,,,0,,,53,0
104040,note_on,24,0,3,,,,,,,,0,,,56,100
104076,note_on,96,0,2,,,,,,,,0,,,65,0
104100,note_on,24,0,2,,,,,,,,0,,,68,100
104112,note_on,192,0,1,,,,,,,,0,,,84,0
104112,note_on,0,0,1,,,,,,,,0,,,92,0
104112,note_on,0,0,1,,,,,,,,0,,,80,0
104136,note_on,96,0,3,,,,,,,,0,,,56,0
104160,note_on,24,0,3,,,,,,,,0,,,53,100
104160,note_on,48,0,1,,,,,,,,0,,,84,100
104160,note_on,0,0,1,,,,,,,,0,,,92,100
104160,note_on,0,0,1,,,,,,,,0,,,80,100
104196,note_on,96,0,2,,,,,,,,0,,,68,0
104208,note_on,0,0,4,,,,,,,,0,,,39,0
104208,note_on,0,0,4,,,,,,,,0,,,32,0
104208,note_on,0,0,4,,,,,,,,0,,,60,0
104208,note_on,0,0,4,,,,,,,,0,,,56,0
104208,note_on,716,0,4,,,,,,,,0,,,68,0
104208,note_on,0,0,4,,,,,,,,0,,,44,0
104220,note_on,24,0,2,,,,,,,,0,,,65,100
104256,note_on,96,0,3,,,,,,,,0,,,53,0
104280,note_on,24,0,3,,,,,,,,0,,,51,100
104316,note_on,96,0,2,,,,,,,,0,,,65,0
104340,note_on,24,0,2,,,,,,,,0,,,63,100
104352,note_on,192,0,1,,,,,,,,0,,,92,0
104352,note_on,0,0,1,,,,,,,,0,,,80,0
104352,note_on,0,0,1,,,,,,,,0,,,84,0
104376,note_on,96,0,3,,,,,,,,0,,,51,0
104388,set_tempo,483,1,0,,,,,,434373,,,,,,
104400,note_on,0,0,1,,,,,,,,0,,,92,100
104400,control_change,192,0,4,,,,,,,,0,64,0,,
104400,note_on,48,0,1,,,,,,,,0,,,84,100
104400,note_on,24,0,3,,,,,,,,0,,,48,100
104400,note_on,0,0,1,,,,,,,,0,,,80,100
104414,set_tempo,26,1,0,,,,,,437509,,,,,,
104428,control_change,28,0,4,,,,,,,,0,64,127,,
104436,note_on,96,0,2,,,,,,,,0,,,63,0
104441,set_tempo,27,1,0,,,,,,440690,,,,,,
104460,note_on,24,0,2,,,,,,,,0,,,60,102
104467,set_tempo,26,1,0,,,,,,443918,,,,,,
104489,set_tempo,22,1,0,,,,,,447194,,,,,,
104496,note_on,96,0,3,,,,,,,,0,,,48,0
104515,set_tempo,26,1,0,,,,,,450518,,,,,,
104520,note_on,24,0,3,,,,,,,,0,,,56,105
104541,set_tempo,26,1,0,,,,,,453892,,,,,,
104556,note_on,96,0,2,,,,,,,,0,,,60,0
104563,set_tempo,22,1,0,,,,,,457317,,,,,,
104580,note_on,24,0,2,,,,,,,,0,,,44,108
104589,set_tempo,26,1,0,,,,,,460794,,,,,,
104592,note_on,192,0,1,,,,,,,,0,,,80,0
104592,note_on,0,0,1,,,,,,,,0,,,92,0
104592,note_on,0,0,1,,,,,,,,0,,,84,0
104615,set_tempo,26,1,0,,,,,,464324,,,,,,
104616,note_on,96,0,3,,,,,,,,0,,,56,0
104637,set_tempo,22,1,0,,,,,,467909,,,,,,
104640,control_change,0,0,4,,,,,,,,0,64,0,,
104640,note_on,24,0,3,,,,,,,,0,,,53,111
104640,note_on,0,0,4,,,,,,,,0,,,32,111
104640,note_on,212,0,4,,,,,,,,0,,,36,111
104660,control_change,20,0,4,,,,,,,,0,64,127,,
104663,set_tempo,26,1,0,,,,,,471550,,,,,,
104676,note_on,96,0,2,,,,,,,,0,,,44,0
104689,set_tempo,26,1,0,,,,,,475248,,,,,,
104700,note_on,24,0,2,,,,,,,,0,,,44,115
104711,set_tempo,22,1,0,,,,,,479004,,,,,,
104736,note_on,96,0,3,,,,,,,,0,,,53,0
104737,set_tempo,26,1,0,,,,,,482820,,,,,,
104760,note_on,24,0,3,,,,,,,,0,,,51,118
104764,set_tempo,27,1,0,,,,,,486697,,,,,,
104790,set_tempo,26,1,0,,,,,,490637,,,,,,
104796,note_on,96,0,2,,,,,,,,0,,,44,0
104812,set_tempo,22,1,0,,,,,,494641,,,,,,
104820,note_on,24,0,2,,,,,,,,0,,,44,121
104832,note_on,172,0,4,,,,,,,,0,,,32,0
104832,note_on,0,0,4,,,,,,,,0,,,36,0
104838,set_tempo,26,1,0,,,,,,498712,,,,,,
104856,note_on,96,0,3,,,,,,,,0,,,51,0
104864,set_tempo,26,1,0,,,,,,502849,,,,,,
104880,note_on,24,0,3,,,,,,,,0,,,48,124
104880,note_on,0,0,4,,,,,,,,0,,,36,124
104880,note_on,48,0,4,,,,,,,,0,,,32,124
104886,set_tempo,22,1,0,,,,,,507057,,,,,,
104888,control_change,8,0,4,,,,,,,,0,64,0,,
104908,control_change,20,0,4,,,,,,,,0,64,127,,
104912,set_tempo,26,1,0,,,,,,511335,,,,,,
104916,note_on,96,0,2,,,,,,,,0,,,44,0
104938,set_tempo,26,1,0,,,,,,515685,,,,,,
104940,note_on,24,0,2,,,,,,,,0,,,44,127
104960,set_tempo,22,1,0,,,,,,520111,,,,,,
104976,note_on,96,0,3,,,,,,,,0,,,48,0
104986,set_tempo,26,1,0,,,,,,524613,,,,,,
105000,note_on,24,0,3,,,,,,,,0,,,41,127
105012,set_tempo,26,1,0,,,,,,529194,,,,,,
105034,set_tempo,22,1,0,,,,,,533855,,,,,,
105036,note_on,96,0,2,,,,,,,,0,,,44,0
105060,set_tempo,26,1,0,,,,,,538600,,,,,,
105060,note_on,24,0,2,,,,,,,,0,,,44,127
105072,note_on,164,0,4,,,,,,,,0,,,36,0
105072,note_on,0,0,4,,,,,,,,0,,,32,0
105086,set_tempo,26,1,0,,,,,,543429,,,,,,
105096,note_on,96,0,3,,,,,,,,0,,,41,0
105112,control_change,40,0,4,,,,,,,,0,64,0,,
105113,set_tempo,27,1,0,,,,,,548346,,,,,,
105120,note_on,0,0,4,,,,,,,,0,,,32,127
105120,note_on,24,0,3,,,,,,,,0,,,40,127
105120,note_on,8,0,4,,,,,,,,0,,,36,127
105134,set_tempo,21,1,0,,,,,,553352,,,,,,
105140,control_change,20,0,4,,,,,,,,0,64,127,,
105156,note_on,96,0,2,,,,,,,,0,,,44,0
105161,set_tempo,27,1,0,,,,,,558451,,,,,,
105180,note_on,24,0,2,,,,,,,,0,,,44,127
105187,set_tempo,26,1,0,,,,,,563645,,,,,,
105209,set_tempo,22,1,0,,,,,,568936,,,,,,
105216,note_on,96,0,3,,,,,,,,0,,,40,0
105225,set_tempo,16,1,0,,,,,,563645,,,,,,
105230,set_tempo,5,1,0,,,,,,568936,,,,,,
105234,set_tempo,4,1,0,,,,,,574328,,,,,,
105238,set_tempo,4,1,0,,,,,,579822,,,,,,
105240,note_on,24,0,3,,,,,,,,0,,,39,127
105243,set_tempo,5,1,0,,,,,,585423,,,,,,
105247,set_tempo,4,1,0,,,,,,591133,,,,,,
105252,set_tempo,5,1,0,,,,,,596956,,,,,,
105256,set_tempo,4,1,0,,,,,,602894,,,,,,
105260,set_tempo,4,1,0,,,,,,608952,,,,,,
105265,set_tempo,5,1,0,,,,,,615132,,,,,,
105269,set_tempo,4,1,0,,,,,,621440,,,,,,
105273,set_tempo,4,1,0,,,,,,627878,,,,,,
105276,note_on,96,0,2,,,,,,,,0,,,44,0
105278,set_tempo,5,1,0,,,,,,634451,,,,,,
105282,set_tempo,4,1,0,,,,,,641163,,,,,,
105286,set_tempo,4,1,0,,,,,,648018,,,,,,
105291,set_tempo,5,1,0,,,,,,655022,,,,,,
105295,set_tempo,4,1,0,,,,,,662179,,,,,,
105300,set_tempo,5,1,0,,,,,,669493,,,,,,
105300,note_on,24,0,2,,,,,,,,0,,,44,127
105304,set_tempo,4,1,0,,,,,,676972,,,,,,
105308,set_tempo,4,1,0,,,,,,684619,,,,,,
105312,note_on,0,0,4,,,,,,,,0,,,36,0
105312,note_on,172,0,4,,,,,,,,0,,,32,0
105313,set_tempo,5,1,0,,,,,,692441,,,,,,
105317,set_tempo,4,1,0,,,,,,700444,,,,,,
105321,set_tempo,4,1,0,,,,,,708634,,,,,,
105326,set_tempo,5,1,0,,,,,,717017,,,,,,
105330,set_tempo,4,1,0,,,,,,725602,,,,,,
105334,set_tempo,4,1,0,,,,,,734394,,,,,,
105336,note_on,96,0,3,,,,,,,,0,,,39,0
105339,set_tempo,5,1,0,,,,,,743402,,,,,,
105343,set_tempo,4,1,0,,,,,,752634,,,,,,
105348,set_tempo,5,1,0,,,,,,771803,,,,,,
105348,note_on,48,0,2,,,,,,,,0,,,44,0
105357,set_tempo,9,1,0,,,,,,602894,,,,,,
105360,note_on,0,0,4,,,,,,,,0,,,35,127
105360,note_on,0,0,4,,,,,,,,0,,,40,127
105360,note_on,48,0,4,,,,,,,,0,,,38,127
105360,control_change,0,0,4,,,,,,,,0,64,0,,
105360,note_on,0,0,4,,,,,,,,0,,,32,127
105361,set_tempo,4,1,0,,,,,,608952,,,,,,
105388,set_tempo,27,1,0,,,,,,602894,,,,,,
105404,control_change,44,0,4,,,,,,,,0,64,127,,
105409,set_tempo,21,1,0,,,,,,596956,,,,,,
105436,set_tempo,27,1,0,,,,,,591133,,,,,,
105457,set_tempo,21,1,0,,,,,,585423,,,,,,
105479,set_tempo,22,1,0,,,,,,579822,,,,,,
105480,note_on,132,0,2,,,,,,,,0,,,59,100
105505,set_tempo,26,1,0,,,,,,574328,,,,,,
105527,set_tempo,22,1,0,,,,,,568936,,,,,,
105540,note_on,60,0,2,,,,,,,,0,,,71,100
105549,set_tempo,22,1,0,,,,,,563645,,,,,,
105575,set_tempo,26,1,0,,,,,,558451,,,,,,
105588,note_on,48,0,2,,,,,,,,0,,,59,0
105597,set_tempo,22,1,0,,,,,,553352,,,,,,
105600,note_on,1008,0,1,,,,,,,,0,,,86,100
105600,note_on,0,0,1,,,,,,,,0,,,80,100
105600,note_on,0,0,1,,,,,,,,0,,,92,100
105600,note_on,0,0,1,,,,,,,,0,,,88,100
105600,note_on,12,0,2,,,,,,,,0,,,56,100
105623,set_tempo,26,1,0,,,,,,548346,,,,,,
105645,set_tempo,22,1,0,,,,,,543429,,,,,,
105648,note_on,48,0,2,,,,,,,,0,,,71,0
105660,note_on,12,0,2,,,,,,,,0,,,68,100
105667,set_tempo,22,1,0,,,,,,538600,,,,,,
105693,set_tempo,26,1,0,,,,,,533855,,,,,,
105708,note_on,48,0,2,,,,,,,,0,,,56,0
105715,set_tempo,22,1,0,,,,,,529194,,,,,,
105720,note_on,12,0,2,,,,,,,,0,,,59,100
105737,set_tempo,22,1,0,,,,,,524613,,,,,,
105763,set_tempo,26,1,0,,,,,,520111,,,,,,
105768,note_on,48,0,2,,,,,,,,0,,,68,0
105780,note_on,12,0,2,,,,,,,,0,,,71,100
105785,set_tempo,22,1,0,,,,,,515685,,,,,,
105792,note_on,0,0,1,,,,,,,,0,,,80,0
105792,note_on,0,0,1,,,,,,,,0,,,88,0
105792,note_on,0,0,1,,,,,,,,0,,,86,0
105792,note_on,192,0,1,,,,,,,,0,,,92,0
105806,set_tempo,21,1,0,,,,,,511335,,,,,,
105828,note_on,48,0,2,,,,,,,,0,,,59,0
105833,set_tempo,27,1,0,,,,,,507057,,,,,,
105840,note_on,0,0,1,,,,,,,,0,,,88,100
105840,note_on,48,0,1,,,,,,,,0,,,92,100
105840,note_on,0,0,1,,,,,,,,0,,,86,100
105840,note_on,0,0,1,,,,,,,,0,,,80,100
105840,note_on,12,0,2,,,,,,,,0,,,61,100
105854,set_tempo,21,1,0,,,,,,502849,,,,,,
105881,set_tempo,27,1,0,,,,,,498712,,,,,,
105888,note_on,48,0,2,,,,,,,,0,,,71,0
105900,note_on,12,0,2,,,,,,,,0,,,73,100
105902,set_tempo,21,1,0,,,,,,494641,,,,,,
105924,set_tempo,22,1,0,,,,,,490637,,,,,,
105948,note_on,48,0,2,,,,,,,,0,,,61,0
105950,set_tempo,26,1,0,,,,,,486697,,,,,,
105960,note_on,12,0,2,,,,,,,,0,,,64,100
105972,set_tempo,22,1,0,,,,,,482820,,,,,,
105994,set_tempo,22,1,0,,,,,,479004,,,,,,
106008,note_on,48,0,2,,,,,,,,0,,,73,0
106020,set_tempo,26,1,0,,,,,,475248,,,,,,
106020,note_on,12,0,2,,,,,,,,0,,,76,100
106032,note_on,0,0,1,,,,,,,,0,,,92,0
106032,note_on,192,0,1,,,,,,,,0,,,80,0
106032,note_on,0,0,1,,,,,,,,0,,,86,0
106032,note_on,0,0,1,,,,,,,,0,,,88,0
106042,set_tempo,22,1,0,,,,,,471550,,,,,,
106064,set_tempo,22,1,0,,,,,,467909,,,,,,
106068,note_on,48,0,2,,,,,,,,0,,,64,0
106080,note_on,12,0,2,,,,,,,,0,,,61,100
106080,note_on,48,0,1,,,,,,,,0,,,80,100
106080,note_on,0,0,1,,,,,,,,0,,,92,100
106080,note_on,0,0,1,,,,,,,,0,,,86,100
106080,note_on,0,0,1,,,,,,,,0,,,88,100
106090,set_tempo,26,1,0,,,,,,464324,,,,,,
106112,set_tempo,22,1,0,,,,,,460794,,,,,,
106128,note_on,0,0,4,,,,,,,,0,,,35,0
106128,note_on,0,0,4,,,,,,,,0,,,32,0
106128,note_on,48,0,2,,,,,,,,0,,,76,0
106128,note_on,0,0,4,,,,,,,,0,,,38,0
106128,note_on,724,0,4,,,,,,,,0,,,40,0
106138,set_tempo,26,1,0,,,,,,457317,,,,,,
106140,note_on,12,0,2,,,,,,,,0,,,73,100
106160,set_tempo,22,1,0,,,,,,453892,,,,,,
106182,set_tempo,22,1,0,,,,,,450518,,,,,,
106188,note_on,48,0,2,,,,,,,,0,,,61,0
106200,note_on,12,0,2,,,,,,,,0,,,59,100
106208,set_tempo,26,1,0,,,,,,447194,,,,,,
106230,set_tempo,22,1,0,,,,,,443918,,,,,,
106248,note_on,48,0,2,,,,,,,,0,,,73,0
106252,set_tempo,22,1,0,,,,,,440690,,,,,,
106260,note_on,12,0,2,,,,,,,,0,,,71,100
106272,note_on,0,0,1,,,,,,,,0,,,88,0
106272,note_on,0,0,1,,,,,,,,0,,,80,0
106272,note_on,0,0,1,,,,,,,,0,,,92,0
106272,note_on,192,0,1,,,,,,,,0,,,86,0
106278,set_tempo,26,1,0,,,,,,437509,,,,,,
106300,set_tempo,22,1,0,,,,,,434373,,,,,,
106308,note_on,48,0,2,,,,,,,,0,,,59,0
106320,note_on,0,0,1,,,,,,,,0,,,80,100
106320,note_on,48,0,1,,,,,,,,0,,,88,100
106320,note_on,12,0,2,,,,,,,,0,,,56,100
106320,note_on,0,0,1,,,,,,,,0,,,92,100
106320,note_on,0,0,1,,,,,,,,0,,,86,100
106320,control_change,192,0,4,,,,,,,,0,64,0,,
106321,set_tempo,21,1,0,,,,,,431282,,,,,,
106368,note_on,48,0,2,,,,,,,,0,,,71,0
106375,control_change,55,0,4,,,,,,,,0,64,127,,
106380,note_on,12,0,2,,,,,,,,0,,,68,100
106428,note_on,48,0,2,,,,,,,,0,,,56,0
106440,note_on,1104,0,3,,,,,,,,0,,,64,100
106488,note_on,60,0,2,,,,,,,,0,,,68,0
106500,note_on,60,0,3,,,,,,,,0,,,52,103
106512,note_on,0,0,1,,,,,,,,0,,,86,0
106512,note_on,0,0,1,,,,,,,,0,,,80,0
106512,note_on,0,0,1,,,,,,,,0,,,88,0
106512,note_on,192,0,1,,,,,,,,0,,,92,0
106548,note_on,48,0,3,,,,,,,,0,,,64,0
106553,set_tempo,232,1,0,,,,,,434373,,,,,,
106560,note_on,0,0,4,,,,,,,,0,,,40,107
106560,note_on,12,0,3,,,,,,,,0,,,61,107
106560,note_on,0,0,4,,,,,,,,0,,,35,107
106560,note_on,0,0,4,,,,,,,,0,,,32,107
106560,note_on,185,0,4,,,,,,,,0,,,38,107
106565,control_change,5,0,4,,,,,,,,0,64,0,,
106570,set_tempo,17,1,0,,,,,,437509,,,,,,
106588,set_tempo,18,1,0,,,,,,440690,,,,,,
106605,set_tempo,17,1,0,,,,,,443918,,,,,,
106608,note_on,48,0,3,,,,,,,,0,,,52,0
106609,control_change,44,0,4,,,,,,,,0,64,127,,
106620,note_on,12,0,3,,,,,,,,0,,,49,110
106622,set_tempo,17,1,0,,,,,,447194,,,,,,
106640,set_tempo,18,1,0,,,,,,450518,,,,,,
106657,set_tempo,17,1,0,,,,,,453892,,,,,,
106668,note_on,48,0,3,,,,,,,,0,,,61,0
106675,set_tempo,18,1,0,,,,,,457317,,,,,,
106680,note_on,12,0,3,,,,,,,,0,,,59,114
106692,set_tempo,17,1,0,,,,,,460794,,,,,,
106710,set_tempo,18,1,0,,,,,,464324,,,,,,
106727,set_tempo,17,1,0,,,,,,467909,,,,,,
106728,note_on,48,0,3,,,,,,,,0,,,49,0
106740,note_on,12,0,3,,,,,,,,0,,,47,117
106745,set_tempo,18,1,0,,,,,,471550,,,,,,
106752,note_on,0,0,4,,,,,,,,0,,,40,0
106752,note_on,0,0,4,,,,,,,,0,,,35,0
106752,note_on,143,0,4,,,,,,,,0,,,32,0
106752,note_on,0,0,4,,,,,,,,0,,,38,0
106762,set_tempo,17,1,0,,,,,,475248,,,,,,
106780,set_tempo,18,1,0,,,,,,479004,,,,,,
106788,note_on,48,0,3,,,,,,,,0,,,59,0
106797,set_tempo,17,1,0,,,,,,482820,,,,,,
106800,note_on,48,0,4,,,,,,,,0,,,38,121
106800,note_on,0,0,4,,,,,,,,0,,,32,121
106800,note_on,12,0,3,,,,,,,,0,,,56,121
106800,note_on,0,0,4,,,,,,,,0,,,40,121
106800,note_on,0,0,4,,,,,,,,0,,,35,121
106805,control_change,5,0,4,,,,,,,,0,64,0,,
106814,set_tempo,17,1,0,,,,,,486697,,,,,,
106832,set_tempo,18,1,0,,,,,,490637,,,,,,
106848,note_on,48,0,3,,,,,,,,0,,,47,0
106849,set_tempo,17,1,0,,,,,,494641,,,,,,
106855,control_change,50,0,4,,,,,,,,0,64,127,,
106860,note_on,12,0,3,,,,,,,,0,,,44,125
106867,set_tempo,18,1,0,,,,,,498712,,,,,,
106884,set_tempo,17,1,0,,,,,,502849,,,,,,
106902,set_tempo,18,1,0,,,,,,507057,,,,,,
106908,note_on,48,0,3,,,,,,,,0,,,56,0
106919,set_tempo,17,1,0,,,,,,511335,,,,,,
106920,note_on,12,0,3,,,,,,,,0,,,52,127
106937,set_tempo,18,1,0,,,,,,515685,,,,,,
106954,set_tempo,17,1,0,,,,,,520111,,,,,,
106968,note_on,48,0,3,,,,,,,,0,,,44,0
106972,set_tempo,18,1,0,,,,,,524613,,,,,,
106980,note_on,12,0,3,,,,,,,,0,,,44,127
106989,set_tempo,17,1,0,,,,,,529194,,,,,,
106992,note_on,0,0,4,,,,,,,,0,,,35,0
106992,note_on,0,0,4,,,,,,,,0,,,38,0
106992,note_on,0,0,4,,,,,,,,0,,,32,0
106992,note_on,137,0,4,,,,,,,,0,,,40,0
107006,set_tempo,17,1,0,,,,,,533855,,,,,,
107024,set_tempo,18,1,0,,,,,,538600,,,,,,
107028,note_on,48,0,3,,,,,,,,0,,,52,0
107040,note_on,0,0,4,,,,,,,,0,,,40,127
107040,note_on,0,0,4,,,,,,,,0,,,35,127
107040,note_on,0,0,4,,,,,,,,0,,,32,127
107040,note_on,12,0,3,,,,,,,,0,,,49,127
107040,note_on,48,0,4,,,,,,,,0,,,38,127
107041,set_tempo,17,1,0,,,,,,543429,,,,,,
107045,control_change,5,0,4,,,,,,,,0,64,0,,
107059,set_tempo,18,1,0,,,,,,548346,,,,,,
107076,set_tempo,17,1,0,,,,,,553352,,,,,,
107088,note_on,48,0,3,,,,,,,,0,,,44,0
107089,control_change,44,0,4,,,,,,,,0,64,127,,
107094,set_tempo,18,1,0,,,,,,558451,,,,,,
107100,note_on,12,0,3,,,,,,,,0,,,44,127
107111,set_tempo,17,1,0,,,,,,563645,,,,,,
107129,set_tempo,18,1,0,,,,,,568936,,,,,,
107146,set_tempo,17,1,0,,,,,,574328,,,,,,
107148,note_on,48,0,3,,,,,,,,0,,,49,0
107160,note_on,12,0,3,,,,,,,,0,,,47,127
107164,set_tempo,18,1,0,,,,,,579822,,,,,,
107181,set_tempo,17,1,0,,,,,,585423,,,,,,
107198,set_tempo,17,1,0,,,,,,591133,,,,,,
107208,note_on,48,0,3,,,,,,,,0,,,44,0
107216,set_tempo,18,1,0,,,,,,596956,,,,,,
107220,note_on,12,0,3,,,,,,,,0,,,44,127
107232,note_on,143,0,4,,,,,,,,0,,,35,0
107232,note_on,0,0,4,,,,,,,,0,,,38,0
107232,note_on,0,0,4,,,,,,,,0,,,40,0
107232,note_on,0,0,4,,,,,,,,0,,,32,0
107233,set_tempo,17,1,0,,,,,,602894,,,,,,
107251,set_tempo,18,1,0,,,,,,608952,,,,,,
107264,set_tempo,13,1,0,,,,,,615132,,,,,,
107268,note_on,0,0,3,,,,,,,,0,,,47,0
107268,note_on,48,0,3,,,,,,,,0,,,44,0
107270,set_tempo,6,1,0,,,,,,627878,,,,,,
107280,note_on,0,0,4,,,,,,,,0,,,45,127
107280,note_on,0,0,4,,,,,,,,0,,,40,127
107280,note_on,0,0,4,,,,,,,,0,,,37,127
107280,control_change,0,0,4,,,,,,,,0,64,0,,
107280,note_on,48,0,4,,,,,,,,0,,,32,127
107288,set_tempo,18,1,0,,,,,,621440,,,,,,
107305,set_tempo,17,1,0,,,,,,615132,,,,,,
107307,control_change,27,0,4,,,,,,,,0,64,127,,
107322,set_tempo,17,1,0,,,,,,608952,,,,,,
107340,set_tempo,18,1,0,,,,,,602894,,,,,,
107357,set_tempo,17,1,0,,,,,,596956,,,,,,
107375,set_tempo,18,1,0,,,,,,591133,,,,,,
107392,set_tempo,17,1,0,,,,,,585423,,,,,,
107400,note_on,912,0,2,,,,,,,,0,,,64,100
107405,set_tempo,13,1,0,,,,,,579822,,,,,,
107423,set_tempo,18,1,0,,,,,,574328,,,,,,
107440,set_tempo,17,1,0,,,,,,568936,,,,,,
107458,set_tempo,18,1,0,,,,,,563645,,,,,,
107460,note_on,60,0,2,,,,,,,,0,,,76,100
107475,set_tempo,17,1,0,,,,,,558451,,,,,,
107493,set_tempo,18,1,0,,,,,,553352,,,,,,
107508,note_on,48,0,2,,,,,,,,0,,,64,0
107510,set_tempo,17,1,0,,,,,,548346,,,,,,
107520,note_on,0,0,1,,,,,,,,0,,,93,100
107520,note_on,12,0,2,,,,,,,,0,,,61,100
107520,note_on,1008,0,1,,,,,,,,0,,,81,100
107520,note_on,0,0,1,,,,,,,,0,,,85,100
107523,set_tempo,13,1,0,,,,,,543429,,,,,,
107541,set_tempo,18,1,0,,,,,,538600,,,,,,
107558,set_tempo,17,1,0,,,,,,533855,,,,,,
107568,note_on,48,0,2,,,,,,,,0,,,76,0
107576,set_tempo,18,1,0,,,,,,529194,,,,,,
107580,note_on,12,0,2,,,,,,,,0,,,73,100
107593,set_tempo,17,1,0,,,,,,524613,,,,,,
107610,set_tempo,17,1,0,,,,,,520111,,,,,,
107628,set_tempo,18,1,0,,,,,,515685,,,,,,
107628,note_on,48,0,2,,,,,,,,0,,,61,0
107640,note_on,12,0,2,,,,,,,,0,,,64,100
107641,set_tempo,13,1,0,,,,,,511335,,,,,,
107658,set_tempo,17,1,0,,,,,,507057,,,,,,
107676,set_tempo,18,1,0,,,,,,502849,,,,,,
107688,note_on,48,0,2,,,,,,,,0,,,73,0
107693,set_tempo,17,1,0,,,,,,498712,,,,,,
107700,note_on,12,0,2,,,,,,,,0,,,76,100
107711,set_tempo,18,1,0,,,,,,494641,,,,,,
107712,note_on,192,0,1,,,,,,,,0,,,85,0
107712,note_on,0,0,1,,,,,,,,0,,,81,0
107712,note_on,0,0,1,,,,,,,,0,,,93,0
107728,set_tempo,17,1,0,,,,,,490637,,,,,,
107746,set_tempo,18,1,0,,,,,,486697,,,,,,
107748,note_on,48,0,2,,,,,,,,0,,,64,0
107759,set_tempo,13,1,0,,,,,,482820,,,,,,
107760,note_on,12,0,2,,,,,,,,0,,,66,100
107760,note_on,0,0,1,,,,,,,,0,,,85,100
107760,note_on,0,0,1,,,,,,,,0,,,81,100
107760,note_on,48,0,1,,,,,,,,0,,,93,100
107776,set_tempo,17,1,0,,,,,,479004,,,,,,
107794,set_tempo,18,1,0,,,,,,475248,,,,,,
107808,note_on,48,0,2,,,,,,,,0,,,76,0
107811,set_tempo,17,1,0,,,,,,471550,,,,,,
107820,note_on,12,0,2,,,,,,,,0,,,78,100
107829,set_tempo,18,1,0,,,,,,467909,,,,,,
107846,set_tempo,17,1,0,,,,,,464324,,,,,,
107864,set_tempo,18,1,0,,,,,,460794,,,,,,
107868,note_on,48,0,2,,,,,,,,0,,,66,0
107877,set_tempo,13,1,0,,,,,,457317,,,,,,
107880,note_on,12,0,2,,,,,,,,0,,,69,100
107894,set_tempo,17,1,0,,,,,,453892,,,,,,
107912,set_tempo,18,1,0,,,,,,450518,,,,,,
107928,note_on,48,0,2,,,,,,,,0,,,78,0
107929,set_tempo,17,1,0,,,,,,447194,,,,,,
107940,note_on,12,0,2,,,,,,,,0,,,81,100
107946,set_tempo,17,1,0,,,,,,443918,,,,,,
107952,note_on,0,0,1,,,,,,,,0,,,93,0
107952,note_on,0,0,1,,,,,,,,0,,,85,0
107952,note_on,192,0,1,,,,,,,,0,,,81,0
107964,set_tempo,18,1,0,,,,,,440690,,,,,,
107981,set_tempo,17,1,0,,,,,,437509,,,,,,
107988,note_on,48,0,2,,,,,,,,0,,,69,0
107994,set_tempo,13,1,0,,,,,,434373,,,,,,
108000,note_on,12,0,2,,,,,,,,0,,,66,100
108000,note_on,0,0,1,,,,,,,,0,,,81,100
108000,note_on,48,0,1,,,,,,,,0,,,93,100
108000,note_on,0,0,1,,,,,,,,0,,,85,100
108048,note_on,0,0,4,,,,,,,,0,,,45,0
108048,note_on,0,0,4,,,,,,,,0,,,32,0
108048,note_on,741,0,4,,,,,,,,0,,,37,0
108048,note_on,0,0,4,,,,,,,,0,,,40,0
108048,note_on,48,0,2,,,,,,,,0,,,81,0
108060,note_on,12,0,2,,,,,,,,0,,,78,100
108108,note_on,48,0,2,,,,,,,,0,,,66,0
108120,note_on,12,0,2,,,,,,,,0,,,64,100
108168,note_on,48,0,2,,,,,,,,0,,,78,0
108180,note_on,12,0,2,,,,,,,,0,,,76,100
108192,note_on,0,0,1,,,,,,,,0,,,93,0
108192,note_on,192,0,1,,,,,,,,0,,,85,0
108192,note_on,0,0,1,,,,,,,,0,,,81,0
108228,note_on,48,0,2,,,,,,,,0,,,64,0
108240,note_on,0,0,1,,,,,,,,0,,,93,100
108240,note_on,0,0,1,,,,,,,,0,,,85,100
108240,note_on,48,0,1,,,,,,,,0,,,81,100
108240,control_change,192,0,4,,,,,,,,0,64,0,,
108240,note_on,12,0,2,,,,,,,,0,,,61,100
108288,note_on,48,0,2,,,,,,,,0,,,76,0
108300,note_on,12,0,2,,,,,,,,0,,,73,100
108326,control_change,86,0,4,,,,,,,,0,64,127,,
108348,note_on,48,0,2,,,,,,,,0,,,61,0
108360,note_on,1092,0,3,,,,,,,,0,,,69,100
108408,note_on,60,0,2,,,,,,,,0,,,73,0
108420,note_on,60,0,3,,,,,,,,0,,,57,101
108432,note_on,0,0,1,,,,,,,,0,,,81,0
108432,note_on,0,0,1,,,,,,,,0,,,85,0
108432,note_on,192,0,1,,,,,,,,0,,,93,0
108461,control_change,135,0,4,,,,,,,,0,64,0,,
108468,note_on,48,0,3,,,,,,,,0,,,69,0
108479,set_tempo,485,1,0,,,,,,434373,,,,,,
108480,note_on,12,0,3,,,,,,,,0,,,66,102
108480,note_on,0,0,4,,,,,,,,0,,,32,102
108480,note_on,0,0,4,,,,,,,,0,,,37,102
108480,note_on,0,0,4,,,,,,,,0,,,40,102
108480,note_on,19,0,4,,,,,,,,0,,,45,102
108499,control_change,19,0,4,,,,,,,,0,64,127,,
108501,set_tempo,22,1,0,,,,,,437509,,,,,,
108518,set_tempo,17,1,0,,,,,,440690,,,,,,
108528,note_on,48,0,3,,,,,,,,0,,,57,0
108536,set_tempo,18,1,0,,,,,,443918,,,,,,
108540,note_on,12,0,3,,,,,,,,0,,,54,104
108553,set_tempo,17,1,0,,,,,,447194,,,,,,
108570,set_tempo,17,1,0,,,,,,450518,,,,,,
108588,note_on,48,0,3,,,,,,,,0,,,66,0
108588,set_tempo,18,1,0,,,,,,453892,,,,,,
108600,note_on,12,0,3,,,,,,,,0,,,64,105
108605,set_tempo,17,1,0,,,,,,457317,,,,,,
108623,set_tempo,18,1,0,,,,,,460794,,,,,,
108640,set_tempo,17,1,0,,,,,,464324,,,,,,
108648,note_on,48,0,3,,,,,,,,0,,,54,0
108658,set_tempo,18,1,0,,,,,,467909,,,,,,
108660,note_on,12,0,3,,,,,,,,0,,,52,107
108672,note_on,0,0,4,,,,,,,,0,,,37,0
108672,note_on,0,0,4,,,,,,,,0,,,45,0
108672,note_on,0,0,4,,,,,,,,0,,,40,0
108672,note_on,173,0,4,,,,,,,,0,,,32,0
108675,set_tempo,17,1,0,,,,,,471550,,,,,,
108693,set_tempo,18,1,0,,,,,,475248,,,,,,
108708,note_on,48,0,3,,,,,,,,0,,,64,0
108710,set_tempo,17,1,0,,,,,,479004,,,,,,
108720,note_on,0,0,4,,,,,,,,0,,,45,108
108720,note_on,0,0,4,,,,,,,,0,,,32,108
108720,note_on,0,0,4,,,,,,,,0,,,37,108
108720,note_on,48,0,4,,,,,,,,0,,,40,108
108720,note_on,12,0,3,,,,,,,,0,,,61,108
108732,set_tempo,22,1,0,,,,,,482820,,,,,,
108739,control_change,19,0,4,,,,,,,,0,64,0,,
108749,set_tempo,17,1,0,,,,,,486697,,,,,,
108767,set_tempo,18,1,0,,,,,,490637,,,,,,
108768,note_on,48,0,3,,,,,,,,0,,,52,0
108780,note_on,12,0,3,,,,,,,,0,,,49,110
108784,set_tempo,17,1,0,,,,,,494641,,,,,,
108787,control_change,48,0,4,,,,,,,,0,64,127,,
108802,set_tempo,18,1,0,,,,,,498712,,,,,,
108819,set_tempo,17,1,0,,,,,,502849,,,,,,
108828,note_on,48,0,3,,,,,,,,0,,,61,0
108837,set_tempo,18,1,0,,,,,,507057,,,,,,
108840,note_on,12,0,3,,,,,,,,0,,,57,111
108854,set_tempo,17,1,0,,,,,,511335,,,,,,
108872,set_tempo,18,1,0,,,,,,515685,,,,,,
108888,note_on,48,0,3,,,,,,,,0,,,49,0
108889,set_tempo,17,1,0,,,,,,520111,,,,,,
108900,note_on,12,0,3,,,,,,,,0,,,45,112
108906,set_tempo,17,1,0,,,,,,524613,,,,,,
108912,note_on,0,0,4,,,,,,,,0,,,37,0
108912,note_on,0,0,4,,,,,,,,0,,,40,0
108912,note_on,125,0,4,,,,,,,,0,,,45,0
108912,note_on,0,0,4,,,,,,,,0,,,32,0
108924,set_tempo,18,1,0,,,,,,529194,,,,,,
108941,set_tempo,17,1,0,,,,,,533855,,,,,,
108948,note_on,48,0,3,,,,,,,,0,,,57,0
108950,control_change,38,0,4,,,,,,,,0,64,0,,
108959,set_tempo,18,1,0,,,,,,538600,,,,,,
108960,note_on,0,0,4,,,,,,,,0,,,32,114
108960,note_on,0,0,4,,,,,,,,0,,,45,114
108960,note_on,0,0,4,,,,,,,,0,,,37,114
108960,note_on,12,0,3,,,,,,,,0,,,54,114
108960,note_on,10,0,4,,,,,,,,0,,,40,114
108981,set_tempo,22,1,0,,,,,,543429,,,,,,
108998,set_tempo,17,1,0,,,,,,548346,,,,,,
109008,note_on,48,0,3,,,,,,,,0,,,45,0
109016,set_tempo,18,1,0,,,,,,553352,,,,,,
109020,note_on,12,0,3,,,,,,,,0,,,45,115
109033,set_tempo,17,1,0,,,,,,558451,,,,,,
109037,control_change,77,0,4,,,,,,,,0,64,127,,
109050,set_tempo,17,1,0,,,,,,563645,,,,,,
109068,note_on,48,0,3,,,,,,,,0,,,54,0
109068,set_tempo,18,1,0,,,,,,568936,,,,,,
109080,note_on,12,0,3,,,,,,,,0,,,52,117
109085,set_tempo,17,1,0,,,,,,574328,,,,,,
109103,set_tempo,18,1,0,,,,,,579822,,,,,,
109120,set_tempo,17,1,0,,,,,,585423,,,,,,
109128,note_on,48,0,3,,,,,,,,0,,,45,0
109138,set_tempo,18,1,0,,,,,,591133,,,,,,
109140,note_on,12,0,3,,,,,,,,0,,,45,118
109152,note_on,115,0,4,,,,,,,,0,,,32,0
109152,note_on,0,0,4,,,,,,,,0,,,45,0
109152,note_on,0,0,4,,,,,,,,0,,,37,0
109152,note_on,0,0,4,,,,,,,,0,,,40,0
109155,set_tempo,17,1,0,,,,,,596956,,,,,,
109173,set_tempo,18,1,0,,,,,,602894,,,,,,
109188,note_on,48,0,3,,,,,,,,0,,,45,0
109188,note_on,0,0,3,,,,,,,,0,,,52,0
109190,set_tempo,17,1,0,,,,,,615132,,,,,,
109200,control_change,0,0,4,,,,,,,,0,64,0,,
109200,note_on,48,0,4,,,,,,,,0,,,42,120
109200,note_on,0,0,4,,,,,,,,0,,,32,120
109200,note_on,0,0,4,,,,,,,,0,,,38,120
109200,note_on,0,0,4,,,,,,,,0,,,50,120
109200,note_on,0,0,4,,,,,,,,0,,,45,120
109203,set_tempo,13,1,0,,,,,,608952,,,,,,
109216,set_tempo,13,1,0,,,,,,602894,,,,,,
109229,set_tempo,13,1,0,,,,,,596956,,,,,,
109242,set_tempo,13,1,0,,,,,,591133,,,,,,
109256,set_tempo,14,1,0,,,,,,585423,,,,,,
109264,set_tempo,8,1,0,,,,,,579822,,,,,,
109277,set_tempo,13,1,0,,,,,,574328,,,,,,
109290,set_tempo,13,1,0,,,,,,568936,,,,,,
109304,set_tempo,14,1,0,,,,,,563645,,,,,,
109317,set_tempo,13,1,0,,,,,,558451,,,,,,
109320,note_on,912,0,2,,,,,,,,0,,,69,100
109330,set_tempo,13,1,0,,,,,,553352,,,,,,
109338,set_tempo,8,1,0,,,,,,548346,,,,,,
109344,control_change,144,0,4,,,,,,,,0,64,127,,
109352,set_tempo,14,1,0,,,,,,543429,,,,,,
109365,set_tempo,13,1,0,,,,,,538600,,,,,,
109378,set_tempo,13,1,0,,,,,,533855,,,,,,
109380,note_on,60,0,2,,,,,,,,0,,,81,100
109391,set_tempo,13,1,0,,,,,,529194,,,,,,
109404,set_tempo,13,1,0,,,,,,524613,,,,,,
109413,set_tempo,9,1,0,,,,,,520111,,,,,,
109426,set_tempo,13,1,0,,,,,,515685,,,,,,
109428,note_on,48,0,2,,,,,,,,0,,,69,0
109439,set_tempo,13,1,0,,,,,,511335,,,,,,
109440,note_on,1008,0,1,,,,,,,,0,,,90,100
109440,note_on,0,0,1,,,,,,,,0,,,86,100
109440,note_on,12,0,2,,,,,,,,0,,,66,100
109440,note_on,0,0,1,,,,,,,,0,,,98,100
109452,set_tempo,13,1,0,,,,,,507057,,,,,,
109465,set_tempo,13,1,0,,,,,,502849,,,,,,
109474,set_tempo,9,1,0,,,,,,498712,,,,,,
109487,set_tempo,13,1,0,,,,,,494641,,,,,,
109488,note_on,48,0,2,,,,,,,,0,,,81,0
109500,set_tempo,13,1,0,,,,,,490637,,,,,,
109500,note_on,12,0,2,,,,,,,,0,,,78,100
109513,set_tempo,13,1,0,,,,,,486697,,,,,,
109526,set_tempo,13,1,0,,,,,,482820,,,,,,
109539,set_tempo,13,1,0,,,,,,479004,,,,,,
109548,note_on,48,0,2,,,,,,,,0,,,66,0
109548,set_tempo,9,1,0,,,,,,475248,,,,,,
109560,note_on,12,0,2,,,,,,,,0,,,69,100
109561,set_tempo,13,1,0,,,,,,471550,,,,,,
109574,set_tempo,13,1,0,,,,,,467909,,,,,,
109587,set_tempo,13,1,0,,,,,,464324,,,,,,
109600,set_tempo,13,1,0,,,,,,460794,,,,,,
109608,note_on,48,0,2,,,,,,,,0,,,78,0
109613,set_tempo,13,1,0,,,,,,457317,,,,,,
109620,note_on,12,0,2,,,,,,,,0,,,81,100
109622,set_tempo,9,1,0,,,,,,453892,,,,,,
109632,note_on,0,0,1,,,,,,,,0,,,98,0
109632,note_on,192,0,1,,,,,,,,0,,,86,0
109632,note_on,0,0,1,,,,,,,,0,,,90,0
109635,set_tempo,13,1,0,,,,,,450518,,,,,,
109648,set_tempo,13,1,0,,,,,,447194,,,,,,
109661,set_tempo,13,1,0,,,,,,443918,,,,,,
109668,note_on,48,0,2,,,,,,,,0,,,69,0
109674,set_tempo,13,1,0,,,,,,440690,,,,,,
109680,note_on,0,0,1,,,,,,,,0,,,86,100
109680,note_on,48,0,1,,,,,,,,0,,,90,100
109680,note_on,0,0,1,,,,,,,,0,,,98,100
109680,note_on,12,0,2,,,,,,,,0,,,71,100
109683,set_tempo,9,1,0,,,,,,437509,,,,,,
109728,note_on,48,0,2,,,,,,,,0,,,81,0
109740,note_on,12,0,2,,,,,,,,0,,,83,100
109788,note_on,48,0,2,,,,,,,,0,,,71,0
109800,note_on,12,0,2,,,,,,,,0,,,74,100
109848,note_on,48,0,2,,,,,,,,0,,,83,0
109860,note_on,12,0,2,,,,,,,,0,,,86,100
109872,note_on,192,0,1,,,,,,,,0,,,98,0
109872,note_on,0,0,1,,,,,,,,0,,,90,0
109872,note_on,0,0,1,,,,,,,,0,,,86,0
109908,note_on,48,0,2,,,,,,,,0,,,74,0
109920,note_on,0,0,1,,,,,,,,0,,,90,100
109920,note_on,48,0,1,,,,,,,,0,,,98,100
109920,note_on,0,0,1,,,,,,,,0,,,86,100
109920,note_on,12,0,2,,,,,,,,0,,,71,100
109968,note_on,624,0,4,,,,,,,,0,,,32,0
109968,note_on,48,0,2,,,,,,,,0,,,86,0
109968,note_on,0,0,4,,,,,,,,0,,,38,0
109968,note_on,0,0,4,,,,,,,,0,,,42,0
109968,note_on,0,0,4,,,,,,,,0,,,45,0
109968,note_on,0,0,4,,,,,,,,0,,,50,0
109980,note_on,12,0,2,,,,,,,,0,,,83,100
110028,note_on,48,0,2,,,,,,,,0,,,71,0
110040,note_on,12,0,2,,,,,,,,0,,,69,100
110088,note_on,48,0,2,,,,,,,,0,,,83,0
110100,note_on,12,0,2,,,,,,,,0,,,81,100
110112,note_on,0,0,1,,,,,,,,0,,,98,0
110112,note_on,192,0,1,,,,,,,,0,,,90,0
110112,note_on,0,0,1,,,,,,,,0,,,86,0
110148,note_on,48,0,2,,,,,,,,0,,,69,0
110160,note_on,12,0,2,,,,,,,,0,,,66,100
110160,note_on,0,0,1,,,,,,,,0,,,98,100
110160,control_change,192,0,4,,,,,,,,0,64,0,,
110160,note_on,0,0,1,,,,,,,,0,,,86,100
110160,note_on,48,0,1,,,,,,,,0,,,90,100
110208,note_on,48,0,2,,,,,,,,0,,,81,0
110220,note_on,12,0,2,,,,,,,,0,,,78,100
110225,control_change,65,0,4,,,,,,,,0,64,127,,
110268,note_on,48,0,2,,,,,,,,0,,,66,0
110280,note_on,1092,0,3,,,,,,,,0,,,74,100
110328,note_on,60,0,2,,,,,,,,0,,,78,0
110340,note_on,60,0,3,,,,,,,,0,,,62,100
110352,note_on,192,0,1,,,,,,,,0,,,86,0
110352,note_on,0,0,1,,,,,,,,0,,,98,0
110352,note_on,0,0,1,,,,,,,,0,,,90,0
110388,note_on,48,0,3,,,,,,,,0,,,74,0
110400,note_on,0,0,4,,,,,,,,0,,,45,100
110400,note_on,12,0,3,,,,,,,,0,,,71,100
110400,note_on,0,0,4,,,,,,,,0,,,32,100
110400,note_on,175,0,4,,,,,,,,0,,,42,100
110400,note_on,0,0,4,,,,,,,,0,,,38,100
110411,control_change,11,0,4,,,,,,,,0,64,0,,
110433,control_change,22,0,4,,,,,,,,0,64,127,,
110448,note_on,48,0,3,,,,,,,,0,,,62,0
110460,note_on,12,0,3,,,,,,,,0,,,59,100
110508,note_on,48,0,3,,,,,,,,0,,,71,0
110520,note_on,12,0,3,,,,,,,,0,,,69,100
110568,note_on,48,0,3,,,,,,,,0,,,59,0
110580,note_on,12,0,3,,,,,,,,0,,,57,100
110592,note_on,0,0,4,,,,,,,,0,,,32,0
110592,note_on,0,0,4,,,,,,,,0,,,42,0
110592,note_on,0,0,4,,,,,,,,0,,,45,0
110592,note_on,159,0,4,,,,,,,,0,,,38,0
110628,note_on,48,0,3,,,,,,,,0,,,69,0
110629,control_change,37,0,4,,,,,,,,0,64,0,,
110640,note_on,0,0,4,,,,,,,,0,,,42,100
110640,note_on,0,0,4,,,,,,,,0,,,32,100
110640,note_on,11,0,4,,,,,,,,0,,,38,100
110640,note_on,12,0,3,,,,,,,,0,,,66,100
110640,note_on,0,0,4,,,,,,,,0,,,45,100
110656,control_change,16,0,4,,,,,,,,0,64,127,,
110688,note_on,48,0,3,,,,,,,,0,,,57,0
110700,note_on,12,0,3,,,,,,,,0,,,54,100
110748,note_on,48,0,3,,,,,,,,0,,,66,0
110760,note_on,12,0,3,,,,,,,,0,,,62,100
110808,note_on,48,0,3,,,,,,,,0,,,54,0
110820,note_on,12,0,3,,,,,,,,0,,,50,100
110832,note_on,0,0,4,,,,,,,,0,,,45,0
110832,note_on,0,0,4,,,,,,,,0,,,38,0
110832,note_on,176,0,4,,,,,,,,0,,,42,0
110832,note_on,0,0,4,,,,,,,,0,,,32,0
110868,note_on,48,0,3,,,,,,,,0,,,62,0
110869,control_change,37,0,4,,,,,,,,0,64,0,,
110880,note_on,0,0,4,,,,,,,,0,,,42,100
110880,note_on,0,0,4,,,,,,,,0,,,32,100
110880,note_on,12,0,3,,,,,,,,0,,,59,100
110880,note_on,0,0,4,,,,,,,,0,,,38,100
110880,note_on,11,0,4,,,,,,,,0,,,45,100
110907,control_change,27,0,4,,,,,,,,0,64,127,,
110928,note_on,48,0,3,,,,,,,,0,,,50,0
110940,note_on,12,0,3,,,,,,,,0,,,47,100
110988,note_on,48,0,3,,,,,,,,0,,,59,0
111000,note_on,12,0,3,,,,,,,,0,,,57,100
111048,note_on,48,0,3,,,,,,,,0,,,47,0
111060,note_on,12,0,3,,,,,,,,0,,,45,100
111072,note_on,165,0,4,,,,,,,,0,,,42,0
111072,note_on,0,0,4,,,,,,,,0,,,32,0
111072,note_on,0,0,4,,,,,,,,0,,,45,0
111072,note_on,0,0,4,,,,,,,,0,,,38,0
111108,note_on,48,0,3,,,,,,,,0,,,45,0
111108,note_on,0,0,3,,,,,,,,0,,,57,0
111120,control_change,48,0,4,,,,,,,,0,64,0,,
111120,note_on,0,0,4,,,,,,,,0,,,39,100
111120,note_on,0,0,4,,,,,,,,0,,,32,100
111120,note_on,0,0,4,,,,,,,,0,,,56,100
111120,note_on,0,0,4,,,,,,,,0,,,54,100
111120,note_on,0,0,4,,,,,,,,0,,,42,100
111120,note_on,0,0,4,,,,,,,,0,,,44,100
111120,note_on,0,0,4,,,,,,,,0,,,48,100
111164,control_change,44,0,4,,,,,,,,0,64,127,,
111240,note_on,912,0,2,,,,,,,,0,,,75,100
111240,note_on,76,0,4,,,,,,,,0,,,51,100
111300,note_on,948,0,1,,,,,,,,0,,,87,100
111300,note_on,192,0,3,,,,,,,,0,,,63,100
111336,note_on,96,0,2,,,,,,,,0,,,75,0
111336,note_on,96,0,4,,,,,,,,0,,,51,0
111360,note_on,24,0,4,,,,,,,,0,,,48,100
111360,note_on,24,0,2,,,,,,,,0,,,72,100
111396,note_on,96,0,3,,,,,,,,0,,,63,0
111396,note_on,96,0,1,,,,,,,,0,,,87,0
111420,note_on,24,0,3,,,,,,,,0,,,60,100
111420,note_on,24,0,1,,,,,,,,0,,,84,100
111456,note_on,96,0,2,,,,,,,,0,,,72,0
111456,note_on,96,0,4,,,,,,,,0,,,48,0
111480,note_on,24,0,2,,,,,,,,0,,,75,100
111480,note_on,24,0,4,,,,,,,,0,,,51,100
111516,note_on,96,0,1,,,,,,,,0,,,84,0
111516,note_on,96,0,3,,,,,,,,0,,,60,0
111540,note_on,24,0,1,,,,,,,,0,,,87,100
111540,note_on,24,0,3,,,,,,,,0,,,63,100
111576,note_on,96,0,4,,,,,,,,0,,,51,0
111576,note_on,96,0,2,,,,,,,,0,,,75,0
111600,note_on,24,0,4,,,,,,,,0,,,53,100
111600,note_on,24,0,2,,,,,,,,0,,,77,100
111636,note_on,96,0,1,,,,,,,,0,,,87,0
111636,note_on,96,0,3,,,,,,,,0,,,63,0
111660,note_on,24,0,3,,,,,,,,0,,,65,100
111660,note_on,24,0,1,,,,,,,,0,,,89,100
111696,note_on,96,0,4,,,,,,,,0,,,53,0
111696,note_on,96,0,2,,,,,,,,0,,,77,0
111720,note_on,24,0,2,,,,,,,,0,,,80,100
111720,note_on,24,0,4,,,,,,,,0,,,56,100
111756,note_on,96,0,3,,,,,,,,0,,,65,0
111756,note_on,96,0,1,,,,,,,,0,,,89,0
111780,note_on,24,0,1,,,,,,,,0,,,92,100
111780,note_on,24,0,3,,,,,,,,0,,,68,100
111816,note_on,96,0,4,,,,,,,,0,,,56,0
111816,note_on,96,0,2,,,,,,,,0,,,80,0
111840,note_on,24,0,2,,,,,,,,0,,,77,100
111840,note_on,24,0,4,,,,,,,,0,,,53,100
111876,note_on,96,0,3,,,,,,,,0,,,68,0
111876,note_on,96,0,1,,,,,,,,0,,,92,0
111888,note_on,0,0,4,,,,,,,,0,,,42,0
111888,note_on,0,0,4,,,,,,,,0,,,44,0
111888,note_on,0,0,4,,,,,,,,0,,,54,0
111888,note_on,0,0,4,,,,,,,,0,,,56,0
111888,note_on,48,0,4,,,,,,,,0,,,48,0
111888,note_on,0,0,4,,,,,,,,0,,,39,0
111888,note_on,0,0,4,,,,,,,,0,,,32,0
111900,note_on,24,0,3,,,,,,,,0,,,65,100
111900,note_on,24,0,1,,,,,,,,0,,,89,100
111936,note_on,48,0,4,,,,,,,,0,,,53,0
111936,note_on,96,0,2,,,,,,,,0,,,77,0
111960,note_on,24,0,4,,,,,,,,0,,,51,100
111960,note_on,24,0,2,,,,,,,,0,,,75,100
111996,note_on,96,0,3,,,,,,,,0,,,65,0
111996,note_on,96,0,1,,,,,,,,0,,,89,0
112020,note_on,24,0,3,,,,,,,,0,,,63,100
112020,note_on,24,0,1,,,,,,,,0,,,87,100
112056,note_on,96,0,4,,,,,,,,0,,,51,0
112056,note_on,96,0,2,,,,,,,,0,,,75,0
112068,note_on,48,0,1,,,,,,,,0,,,87,0
112068,note_on,48,0,3,,,,,,,,0,,,63,0
112080,note_on,0,0,4,,,,,,,,0,,,32,100
112080,note_on,0,0,4,,,,,,,,0,,,39,100
112080,note_on,0,0,4,,,,,,,,0,,,42,100
112080,note_on,0,0,4,,,,,,,,0,,,44,100
112080,note_on,0,0,4,,,,,,,,0,,,48,100
112080,note_on,0,0,4,,,,,,,,0,,,54,100
112080,control_change,24,0,4,,,,,,,,0,64,0,,
112080,note_on,0,0,4,,,,,,,,0,,,60,100
112080,note_on,0,0,4,,,,,,,,0,,,56,100
112118,control_change,38,0,4,,,,,,,,0,64,127,,
112200,note_on,82,0,4,,,,,,,,0,,,48,100
112200,note_on,144,0,2,,,,,,,,0,,,72,100
112260,note_on,192,0,1,,,,,,,,0,,,84,100
112260,note_on,192,0,3,,,,,,,,0,,,60,100
112296,note_on,96,0,2,,,,,,,,0,,,72,0
112296,note_on,96,0,4,,,,,,,,0,,,48,0
112320,note_on,24,0,4,,,,,,,,0,,,44,100
112320,note_on,24,0,2,,,,,,,,0,,,68,100
112356,note_on,96,0,1,,,,,,,,0,,,84,0
112356,note_on,96,0,3,,,,,,,,0,,,60,0
112380,note_on,24,0,3,,,,,,,,0,,,56,100
112380,note_on,24,0,1,,,,,,,,0,,,80,100
112416,note_on,96,0,2,,,,,,,,0,,,68,0
112416,note_on,96,0,4,,,,,,,,0,,,44,0
112440,note_on,24,0,2,,,,,,,,0,,,72,100
112440,note_on,24,0,4,,,,,,,,0,,,48,100
112476,note_on,96,0,1,,,,,,,,0,,,80,0
112476,note_on,96,0,3,,,,,,,,0,,,56,0
112500,note_on,24,0,1,,,,,,,,0,,,84,100
112500,note_on,24,0,3,,,,,,,,0,,,60,100
112536,note_on,96,0,4,,,,,,,,0,,,48,0
112536,note_on,96,0,2,,,,,,,,0,,,72,0
112560,note_on,24,0,4,,,,,,,,0,,,51,100
112560,note_on,24,0,2,,,,,,,,0,,,75,100
112596,note_on,96,0,3,,,,,,,,0,,,60,0
112596,note_on,96,0,1,,,,,,,,0,,,84,0
112620,note_on,24,0,1,,,,,,,,0,,,87,100
112620,note_on,24,0,3,,,,,,,,0,,,63,100
112656,note_on,96,0,4,,,,,,,,0,,,51,0
112656,note_on,96,0,2,,,,,,,,0,,,75,0
112680,note_on,24,0,2,,,,,,,,0,,,77,100
112680,note_on,24,0,4,,,,,,,,0,,,53,100
112716,note_on,96,0,1,,,,,,,,0,,,87,0
112716,note_on,96,0,3,,,,,,,,0,,,63,0
112740,note_on,24,0,1,,,,,,,,0,,,89,100
112740,note_on,24,0,3,,,,,,,,0,,,65,100
112776,note_on,96,0,4,,,,,,,,0,,,53,0
112776,note_on,96,0,2,,,,,,,,0,,,77,0
112800,note_on,24,0,2,,,,,,,,0,,,75,100
112800,note_on,24,0,4,,,,,,,,0,,,51,100
112836,note_on,96,0,1,,,,,,,,0,,,89,0
112836,note_on,96,0,3,,,,,,,,0,,,65,0
112848,note_on,0,0,4,,,,,,,,0,,,44,0
112848,note_on,0,0,4,,,,,,,,0,,,42,0
112848,note_on,0,0,4,,,,,,,,0,,,39,0
112848,note_on,0,0,4,,,,,,,,0,,,32,0
112848,note_on,0,0,4,,,,,,,,0,,,56,0
112848,note_on,0,0,4,,,,,,,,0,,,54,0
112848,note_on,48,0,4,,,,,,,,0,,,48,0
112848,note_on,0,0,4,,,,,,,,0,,,60,0
112860,note_on,24,0,3,,,,,,,,0,,,63,100
112860,note_on,24,0,1,,,,,,,,0,,,87,100
112896,note_on,48,0,4,,,,,,,,0,,,51,0
112896,note_on,96,0,2,,,,,,,,0,,,75,0
112920,note_on,24,0,4,,,,,,,,0,,,48,100
112920,note_on,24,0,2,,,,,,,,0,,,72,100
112956,note_on,96,0,3,,,,,,,,0,,,63,0
112956,note_on,96,0,1,,,,,,,,0,,,87,0
112980,note_on,24,0,1,,,,,,,,0,,,84,100
112980,note_on,24,0,3,,,,,,,,0,,,60,100
113016,note_on,96,0,2,,,,,,,,0,,,72,0
113016,note_on,96,0,4,,,,,,,,0,,,48,0
113028,note_on,48,0,1,,,,,,,,0,,,84,0
113028,note_on,48,0,3,,,,,,,,0,,,60,0
113040,note_on,0,0,4,,,,,,,,0,,,32,100
113040,note_on,0,0,4,,,,,,,,0,,,54,100
113040,note_on,0,0,4,,,,,,,,0,,,56,100
113040,note_on,24,0,4,,,,,,,,0,,,42,100
113040,note_on,0,0,4,,,,,,,,0,,,36,100
113040,note_on,0,0,4,,,,,,,,0,,,63,100
113040,note_on,0,0,4,,,,,,,,0,,,44,100
113040,control_change,0,0,4,,,,,,,,0,64,0,,
113040,note_on,0,0,4,,,,,,,,0,,,51,100
113064,control_change,24,0,4,,,,,,,,0,64,127,,
113160,note_on,96,0,4,,,,,,,,0,,,44,100
113160,note_on,144,0,2,,,,,,,,0,,,68,100
113220,note_on,192,0,1,,,,,,,,0,,,80,100
113220,note_on,192,0,3,,,,,,,,0,,,56,100
113256,note_on,96,0,2,,,,,,,,0,,,68,0
113256,note_on,96,0,4,,,,,,,,0,,,44,0
113280,note_on,24,0,2,,,,,,,,0,,,65,100
113280,note_on,24,0,4,,,,,,,,0,,,41,100
113316,note_on,96,0,3,,,,,,,,0,,,56,0
113316,note_on,96,0,1,,,,,,,,0,,,80,0
113340,note_on,24,0,3,,,,,,,,0,,,53,100
113340,note_on,24,0,1,,,,,,,,0,,,77,100
113376,note_on,96,0,4,,,,,,,,0,,,41,0
113376,note_on,96,0,2,,,,,,,,0,,,65,0
113400,note_on,24,0,2,,,,,,,,0,,,68,100
113400,note_on,24,0,4,,,,,,,,0,,,44,100
113436,note_on,96,0,3,,,,,,,,0,,,53,0
113436,note_on,96,0,1,,,,,,,,0,,,77,0
113460,note_on,24,0,3,,,,,,,,0,,,56,100
113460,note_on,24,0,1,,,,,,,,0,,,80,100
113496,note_on,96,0,4,,,,,,,,0,,,44,0
113496,note_on,96,0,2,,,,,,,,0,,,68,0
113520,note_on,24,0,2,,,,,,,,0,,,72,100
113520,note_on,24,0,4,,,,,,,,0,,,48,100
113556,note_on,96,0,1,,,,,,,,0,,,80,0
113556,note_on,96,0,3,,,,,,,,0,,,56,0
113580,note_on,24,0,1,,,,,,,,0,,,84,100
113580,note_on,24,0,3,,,,,,,,0,,,60,100
113616,note_on,96,0,4,,,,,,,,0,,,48,0
113616,note_on,96,0,2,,,,,,,,0,,,72,0
113640,note_on,24,0,2,,,,,,,,0,,,75,100
113640,note_on,24,0,4,,,,,,,,0,,,51,100
113676,note_on,96,0,3,,,,,,,,0,,,60,0
113676,note_on,96,0,1,,,,,,,,0,,,84,0
113700,note_on,24,0,3,,,,,,,,0,,,63,100
113700,note_on,24,0,1,,,,,,,,0,,,87,100
113736,note_on,96,0,2,,,,,,,,0,,,75,0
113736,note_on,96,0,4,,,,,,,,0,,,51,0
113760,note_on,24,0,2,,,,,,,,0,,,72,100
113760,note_on,24,0,4,,,,,,,,0,,,48,100
113796,note_on,96,0,3,,,,,,,,0,,,63,0
113796,note_on,96,0,1,,,,,,,,0,,,87,0
113808,note_on,0,0,4,,,,,,,,0,,,56,0
113808,note_on,0,0,4,,,,,,,,0,,,32,0
113808,note_on,0,0,4,,,,,,,,0,,,54,0
113808,note_on,0,0,4,,,,,,,,0,,,36,0
113808,note_on,0,0,4,,,,,,,,0,,,51,0
113808,note_on,48,0,4,,,,,,,,0,,,44,0
113808,note_on,0,0,4,,,,,,,,0,,,42,0
113808,note_on,0,0,4,,,,,,,,0,,,63,0
113820,note_on,24,0,3,,,,,,,,0,,,60,100
113820,note_on,24,0,1,,,,,,,,0,,,84,100
113856,note_on,48,0,4,,,,,,,,0,,,48,0
113856,note_on,96,0,2,,,,,,,,0,,,72,0
113880,note_on,24,0,2,,,,,,,,0,,,68,100
113880,note_on,24,0,4,,,,,,,,0,,,44,100
113916,note_on,96,0,3,,,,,,,,0,,,60,0
113916,note_on,96,0,1,,,,,,,,0,,,84,0
113940,note_on,24,0,3,,,,,,,,0,,,56,100
113940,note_on,24,0,1,,,,,,,,0,,,80,100
113976,note_on,96,0,4,,,,,,,,0,,,44,0
113976,note_on,96,0,2,,,,,,,,0,,,68,0
113988,note_on,48,0,3,,,,,,,,0,,,56,0
113988,note_on,48,0,1,,,,,,,,0,,,80,0
114000,control_change,0,0,4,,,,,,,,0,64,0,,
114000,note_on,24,0,4,,,,,,,,0,,,41,100
114000,note_on,24,0,2,,,,,,,,0,,,65,100
114032,control_change,32,0,4,,,,,,,,0,64,127,,
114060,note_on,72,0,3,,,,,,,,0,,,53,100
114060,note_on,72,0,1,,,,,,,,0,,,77,100
114096,note_on,64,0,4,,,,,,,,0,,,41,0
114096,note_on,96,0,2,,,,,,,,0,,,65,0
114120,note_on,24,0,4,,,,,,,,0,,,39,100
114120,note_on,24,0,2,,,,,,,,0,,,63,100
114156,note_on,96,0,1,,,,,,,,0,,,77,0
114156,note_on,96,0,3,,,,,,,,0,,,53,0
114180,note_on,24,0,1,,,,,,,,0,,,75,100
114180,note_on,24,0,3,,,,,,,,0,,,51,100
114216,note_on,96,0,2,,,,,,,,0,,,63,0
114216,note_on,96,0,4,,,,,,,,0,,,39,0
114240,note_on,24,0,2,,,,,,,,0,,,65,100
114240,note_on,24,0,4,,,,,,,,0,,,41,100
114276,note_on,96,0,3,,,,,,,,0,,,51,0
114276,note_on,96,0,1,,,,,,,,0,,,75,0
114300,note_on,24,0,1,,,,,,,,0,,,77,100
114300,note_on,24,0,3,,,,,,,,0,,,53,100
114336,note_on,96,0,2,,,,,,,,0,,,65,0
114336,note_on,96,0,4,,,,,,,,0,,,41,0
114360,note_on,24,0,4,,,,,,,,0,,,44,100
114360,note_on,24,0,2,,,,,,,,0,,,68,100
114396,note_on,96,0,1,,,,,,,,0,,,77,0
114396,note_on,96,0,3,,,,,,,,0,,,53,0
114420,note_on,24,0,1,,,,,,,,0,,,80,100
114420,note_on,24,0,3,,,,,,,,0,,,56,100
114456,note_on,96,0,4,,,,,,,,0,,,44,0
114456,note_on,96,0,2,,,,,,,,0,,,68,0
114480,note_on,24,0,2,,,,,,,,0,,,72,100
114480,note_on,24,0,4,,,,,,,,0,,,48,100
114516,note_on,96,0,1,,,,,,,,0,,,80,0
114516,note_on,96,0,3,,,,,,,,0,,,56,0
114540,note_on,24,0,3,,,,,,,,0,,,60,100
114540,note_on,24,0,1,,,,,,,,0,,,84,100
114576,note_on,96,0,2,,,,,,,,0,,,72,0
114576,note_on,96,0,4,,,,,,,,0,,,48,0
114600,note_on,24,0,2,,,,,,,,0,,,68,100
114600,note_on,24,0,4,,,,,,,,0,,,44,100
114636,note_on,96,0,1,,,,,,,,0,,,84,0
114636,note_on,96,0,3,,,,,,,,0,,,60,0
114660,note_on,24,0,1,,,,,,,,0,,,80,100
114660,note_on,24,0,3,,,,,,,,0,,,56,100
114696,note_on,96,0,4,,,,,,,,0,,,44,0
114696,note_on,96,0,2,,,,,,,,0,,,68,0
114720,note_on,24,0,4,,,,,,,,0,,,41,100
114720,note_on,24,0,2,,,,,,,,0,,,65,100
114756,note_on,96,0,1,,,,,,,,0,,,80,0
114756,note_on,96,0,3,,,,,,,,0,,,56,0
114780,note_on,24,0,1,,,,,,,,0,,,77,100
114780,note_on,24,0,3,,,,,,,,0,,,53,100
114816,note_on,96,0,2,,,,,,,,0,,,65,0
114816,note_on,96,0,4,,,,,,,,0,,,41,0
114840,note_on,24,0,2,,,,,,,,0,,,63,100
114840,note_on,24,0,4,,,,,,,,0,,,39,100
114876,note_on,96,0,1,,,,,,,,0,,,77,0
114876,note_on,96,0,3,,,,,,,,0,,,53,0
114900,note_on,24,0,1,,,,,,,,0,,,75,100
114900,note_on,24,0,3,,,,,,,,0,,,51,100
114936,note_on,96,0,4,,,,,,,,0,,,39,0
114936,note_on,96,0,2,,,,,,,,0,,,63,0
114948,note_on,48,0,3,,,,,,,,0,,,51,0
114948,note_on,48,0,1,,,,,,,,0,,,75,0
114960,control_change,0,0,4,,,,,,,,0,64,0,,
114960,note_on,24,0,2,,,,,,,,0,,,60,100
114960,note_on,24,0,4,,,,,,,,0,,,36,100
114977,set_tempo,5294,1,0,,,,,,440690,,,,,,
114996,control_change,36,0,4,,,,,,,,0,64,127,,
115020,note_on,72,0,1,,,,,,,,0,,,72,100
115020,note_on,72,0,3,,,,,,,,0,,,48,100
115033,set_tempo,56,1,0,,,,,,443918,,,,,,
115056,note_on,96,0,2,,,,,,,,0,,,60,0
115056,note_on,60,0,4,,,,,,,,0,,,36,0
115080,note_on,24,0,2,,,,,,,,0,,,63,100
115080,note_on,24,0,4,,,,,,,,0,,,39,100
115086,set_tempo,53,1,0,,,,,,447194,,,,,,
115116,note_on,96,0,3,,,,,,,,0,,,48,0
115116,note_on,96,0,1,,,,,,,,0,,,72,0
115140,note_on,24,0,3,,,,,,,,0,,,51,100
115140,note_on,24,0,1,,,,,,,,0,,,75,100
115142,set_tempo,56,1,0,,,,,,450518,,,,,,
115176,note_on,96,0,2,,,,,,,,0,,,63,0
115176,note_on,96,0,4,,,,,,,,0,,,39,0
115195,set_tempo,53,1,0,,,,,,453892,,,,,,
115200,note_on,24,0,4,,,,,,,,0,,,41,100
115200,note_on,24,0,2,,,,,,,,0,,,65,100
115236,note_on,96,0,1,,,,,,,,0,,,75,0
115236,note_on,96,0,3,,,,,,,,0,,,51,0
115252,set_tempo,57,1,0,,,,,,457317,,,,,,
115260,note_on,24,0,3,,,,,,,,0,,,53,100
115260,note_on,24,0,1,,,,,,,,0,,,77,100
115296,note_on,96,0,2,,,,,,,,0,,,65,0
115296,note_on,96,0,4,,,,,,,,0,,,41,0
115304,set_tempo,52,1,0,,,,,,460794,,,,,,
115320,note_on,24,0,2,,,,,,,,0,,,68,100
115320,note_on,24,0,4,,,,,,,,0,,,44,100
115356,note_on,96,0,1,,,,,,,,0,,,77,0
115356,set_tempo,52,1,0,,,,,,464324,,,,,,
115356,note_on,96,0,3,,,,,,,,0,,,53,0
115380,note_on,24,0,3,,,,,,,,0,,,56,100
115380,note_on,24,0,1,,,,,,,,0,,,80,100
115413,set_tempo,57,1,0,,,,,,467909,,,,,,
115416,note_on,96,0,2,,,,,,,,0,,,68,0
115416,note_on,96,0,4,,,,,,,,0,,,44,0
115440,note_on,24,0,2,,,,,,,,0,,,65,100
115440,note_on,24,0,4,,,,,,,,0,,,41,100
115465,set_tempo,52,1,0,,,,,,471550,,,,,,
115476,note_on,96,0,1,,,,,,,,0,,,80,0
115476,note_on,96,0,3,,,,,,,,0,,,56,0
115500,note_on,24,0,3,,,,,,,,0,,,53,100
115500,note_on,24,0,1,,,,,,,,0,,,77,100
115522,set_tempo,57,1,0,,,,,,475248,,,,,,
115536,note_on,96,0,2,,,,,,,,0,,,65,0
115536,note_on,96,0,4,,,,,,,,0,,,41,0
115560,note_on,24,0,2,,,,,,,,0,,,63,100
115560,note_on,24,0,4,,,,,,,,0,,,39,100
115574,set_tempo,52,1,0,,,,,,479004,,,,,,
115596,note_on,96,0,1,,,,,,,,0,,,77,0
115596,note_on,96,0,3,,,,,,,,0,,,53,0
115620,note_on,24,0,1,,,,,,,,0,,,75,100
115620,note_on,24,0,3,,,,,,,,0,,,51,100
115631,set_tempo,57,1,0,,,,,,482820,,,,,,
115656,note_on,96,0,4,,,,,,,,0,,,39,0
115656,note_on,96,0,2,,,,,,,,0,,,63,0
115680,note_on,24,0,2,,,,,,,,0,,,60,100
115680,note_on,24,0,4,,,,,,,,0,,,36,100
115684,set_tempo,53,1,0,,,,,,486697,,,,,,
115716,note_on,96,0,3,,,,,,,,0,,,51,0
115716,note_on,96,0,1,,,,,,,,0,,,75,0
115736,set_tempo,52,1,0,,,,,,490637,,,,,,
115740,note_on,24,0,1,,,,,,,,0,,,72,100
115740,note_on,24,0,3,,,,,,,,0,,,48,100
115776,note_on,96,0,4,,,,,,,,0,,,36,0
115776,note_on,96,0,2,,,,,,,,0,,,60,0
115793,set_tempo,57,1,0,,,,,,494641,,,,,,
115800,note_on,24,0,2,,,,,,,,0,,,56,100
115800,note_on,24,0,4,,,,,,,,0,,,32,100
115836,note_on,96,0,3,,,,,,,,0,,,48,0
115836,note_on,96,0,1,,,,,,,,0,,,72,0
115845,set_tempo,52,1,0,,,,,,498712,,,,,,
115860,note_on,24,0,3,,,,,,,,0,,,44,100
115860,note_on,24,0,1,,,,,,,,0,,,68,100
115896,note_on,96,0,4,,,,,,,,0,,,32,0
115896,note_on,96,0,2,,,,,,,,0,,,56,0
115902,set_tempo,57,1,0,,,,,,502849,,,,,,
115908,note_on,48,0,1,,,,,,,,0,,,68,0
115908,note_on,48,0,3,,,,,,,,0,,,44,0
115920,note_on,24,0,2,,,,,,,,0,,,60,100
115920,note_on,0,0,4,,,,,,,,0,,,36,100
115920,control_change,24,0,4,,,,,,,,0,64,0,,
115948,control_change,28,0,4,,,,,,,,0,64,127,,
115954,set_tempo,52,1,0,,,,,,507057,,,,,,
115980,note_on,72,0,3,,,,,,,,0,,,48,100
115980,note_on,72,0,1,,,,,,,,0,,,72,100
116011,set_tempo,57,1,0,,,,,,511335,,,,,,
116016,note_on,96,0,2,,,,,,,,0,,,60,0
116016,note_on,68,0,4,,,,,,,,0,,,36,0
116040,note_on,24,0,4,,,,,,,,0,,,39,100
116040,note_on,24,0,2,,,,,,,,0,,,63,100
116063,set_tempo,52,1,0,,,,,,515685,,,,,,
116076,note_on,96,0,3,,,,,,,,0,,,48,0
116076,note_on,96,0,1,,,,,,,,0,,,72,0
116100,note_on,24,0,1,,,,,,,,0,,,75,100
116100,note_on,24,0,3,,,,,,,,0,,,51,100
116116,set_tempo,53,1,0,,,,,,520111,,,,,,
116136,note_on,96,0,2,,,,,,,,0,,,63,0
116136,note_on,96,0,4,,,,,,,,0,,,39,0
116160,note_on,24,0,4,,,,,,,,0,,,41,100
116160,note_on,24,0,2,,,,,,,,0,,,65,100
116172,set_tempo,56,1,0,,,,,,524613,,,,,,
116196,note_on,96,0,1,,,,,,,,0,,,75,0
116196,note_on,96,0,3,,,,,,,,0,,,51,0
116220,note_on,24,0,3,,,,,,,,0,,,53,100
116220,note_on,24,0,1,,,,,,,,0,,,77,100
116225,set_tempo,53,1,0,,,,,,529194,,,,,,
116256,note_on,96,0,2,,,,,,,,0,,,65,0
116256,note_on,96,0,4,,,,,,,,0,,,41,0
116280,note_on,24,0,2,,,,,,,,0,,,68,100
116280,note_on,24,0,4,,,,,,,,0,,,44,100
116281,set_tempo,56,1,0,,,,,,533855,,,,,,
116316,note_on,96,0,1,,,,,,,,0,,,77,0
116316,note_on,96,0,3,,,,,,,,0,,,53,0
116334,set_tempo,53,1,0,,,,,,538600,,,,,,
116340,note_on,24,0,1,,,,,,,,0,,,80,100
116340,note_on,24,0,3,,,,,,,,0,,,56,100
116376,note_on,96,0,4,,,,,,,,0,,,44,0
116376,note_on,96,0,2,,,,,,,,0,,,68,0
116390,set_tempo,56,1,0,,,,,,543429,,,,,,
116400,note_on,24,0,2,,,,,,,,0,,,72,100
116400,note_on,24,0,4,,,,,,,,0,,,48,100
116436,note_on,96,0,3,,,,,,,,0,,,56,0
116436,note_on,96,0,1,,,,,,,,0,,,80,0
116443,set_tempo,53,1,0,,,,,,548346,,,,,,
116460,note_on,24,0,3,,,,,,,,0,,,60,100
116460,note_on,24,0,1,,,,,,,,0,,,84,100
116495,set_tempo,52,1,0,,,,,,553352,,,,,,
116496,note_on,96,0,2,,,,,,,,0,,,72,0
116496,note_on,96,0,4,,,,,,,,0,,,48,0
116520,note_on,24,0,2,,,,,,,,0,,,75,100
116520,note_on,24,0,4,,,,,,,,0,,,51,100
116552,set_tempo,57,1,0,,,,,,558451,,,,,,
116556,note_on,96,0,3,,,,,,,,0,,,60,0
116556,note_on,96,0,1,,,,,,,,0,,,84,0
116580,note_on,24,0,3,,,,,,,,0,,,63,100
116580,note_on,24,0,1,,,,,,,,0,,,87,100
116604,set_tempo,52,1,0,,,,,,563645,,,,,,
116616,note_on,96,0,4,,,,,,,,0,,,51,0
116616,note_on,96,0,2,,,,,,,,0,,,75,0
116640,note_on,24,0,2,,,,,,,,0,,,77,100
116640,note_on,24,0,4,,,,,,,,0,,,53,100
116661,set_tempo,57,1,0,,,,,,568936,,,,,,
116676,note_on,96,0,3,,,,,,,,0,,,63,0
116676,note_on,96,0,1,,,,,,,,0,,,87,0
116700,note_on,24,0,3,,,,,,,,0,,,65,100
116700,note_on,24,0,1,,,,,,,,0,,,89,100
116713,set_tempo,52,1,0,,,,,,574328,,,,,,
116736,note_on,96,0,2,,,,,,,,0,,,77,0
116736,note_on,96,0,4,,,,,,,,0,,,53,0
116760,note_on,24,0,2,,,,,,,,0,,,80,100
116760,note_on,24,0,4,,,,,,,,0,,,56,100
116770,set_tempo,57,1,0,,,,,,579822,,,,,,
116796,note_on,96,0,3,,,,,,,,0,,,65,0
116796,note_on,96,0,1,,,,,,,,0,,,89,0
116820,note_on,24,0,3,,,,,,,,0,,,68,100
116820,note_on,24,0,1,,,,,,,,0,,,92,100
116822,set_tempo,52,1,0,,,,,,585423,,,,,,
116856,note_on,96,0,4,,,,,,,,0,,,56,0
116856,note_on,96,0,2,,,,,,,,0,,,80,0
116868,note_on,48,0,3,,,,,,,,0,,,68,0
116868,note_on,48,0,1,,,,,,,,0,,,92,0
116874,set_tempo,52,1,0,,,,,,615132,,,,,,
116880,control_change,0,0,4,,,,,,,,0,64,0,,
116880,note_on,24,0,2,,,,,,,,0,,,77,100
116880,note_on,24,0,4,,,,,,,,0,,,53,100
116891,set_tempo,17,1,0,,,,,,608952,,,,,,
116909,set_tempo,18,1,0,,,,,,602894,,,,,,
116920,control_change,40,0,4,,,,,,,,0,64,127,,
116926,set_tempo,17,1,0,,,,,,596956,,,,,,
116940,note_on,72,0,1,,,,,,,,0,,,89,100
116940,note_on,72,0,3,,,,,,,,0,,,65,100
116944,set_tempo,18,1,0,,,,,,591133,,,,,,
116957,set_tempo,13,1,0,,,,,,585423,,,,,,
116974,set_tempo,17,1,0,,,,,,579822,,,,,,
116976,note_on,56,0,4,,,,,,,,0,,,53,0
116976,note_on,96,0,2,,,,,,,,0,,,77,0
116992,set_tempo,18,1,0,,,,,,574328,,,,,,
117000,note_on,24,0,4,,,,,,,,0,,,51,100
117000,note_on,24,0,2,,,,,,,,0,,,75,100
117009,set_tempo,17,1,0,,,,,,568936,,,,,,
117022,set_tempo,13,1,0,,,,,,563645,,,,,,
117036,note_on,96,0,3,,,,,,,,0,,,65,0
117036,note_on,96,0,1,,,,,,,,0,,,89,0
117040,set_tempo,18,1,0,,,,,,558451,,,,,,
117057,set_tempo,17,1,0,,,,,,553352,,,,,,
117060,note_on,24,0,1,,,,,,,,0,,,87,100
117060,note_on,24,0,3,,,,,,,,0,,,63,100
117075,set_tempo,18,1,0,,,,,,548346,,,,,,
117092,set_tempo,17,1,0,,,,,,543429,,,,,,
117096,note_on,96,0,4,,,,,,,,0,,,51,0
117096,note_on,96,0,2,,,,,,,,0,,,75,0
117105,set_tempo,13,1,0,,,,,,538600,,,,,,
117120,note_on,24,0,2,,,,,,,,0,,,72,100
117120,note_on,24,0,4,,,,,,,,0,,,48,100
117123,set_tempo,18,1,0,,,,,,533855,,,,,,
117140,set_tempo,17,1,0,,,,,,529194,,,,,,
117156,note_on,96,0,3,,,,,,,,0,,,63,0
117156,note_on,96,0,1,,,,,,,,0,,,87,0
117158,set_tempo,18,1,0,,,,,,524613,,,,,,
117171,set_tempo,13,1,0,,,,,,520111,,,,,,
117180,note_on,24,0,1,,,,,,,,0,,,84,100
117180,note_on,24,0,3,,,,,,,,0,,,60,100
117188,set_tempo,17,1,0,,,,,,515685,,,,,,
117206,set_tempo,18,1,0,,,,,,511335,,,,,,
117216,note_on,96,0,4,,,,,,,,0,,,48,0
117216,note_on,96,0,2,,,,,,,,0,,,72,0
117223,set_tempo,17,1,0,,,,,,507057,,,,,,
117236,set_tempo,13,1,0,,,,,,502849,,,,,,
117240,note_on,24,0,4,,,,,,,,0,,,44,100
117240,note_on,24,0,2,,,,,,,,0,,,68,100
117254,set_tempo,18,1,0,,,,,,498712,,,,,,
117271,set_tempo,17,1,0,,,,,,494641,,,,,,
117276,note_on,96,0,3,,,,,,,,0,,,60,0
117276,note_on,96,0,1,,,,,,,,0,,,84,0
117288,set_tempo,17,1,0,,,,,,490637,,,,,,
117300,note_on,24,0,1,,,,,,,,0,,,80,100
117300,note_on,24,0,3,,,,,,,,0,,,56,100
117306,set_tempo,18,1,0,,,,,,486697,,,,,,
117319,set_tempo,13,1,0,,,,,,482820,,,,,,
117336,set_tempo,17,1,0,,,,,,479004,,,,,,
117336,note_on,96,0,2,,,,,,,,0,,,68,0
117336,note_on,96,0,4,,,,,,,,0,,,44,0
117354,set_tempo,18,1,0,,,,,,475248,,,,,,
117360,note_on,24,0,4,,,,,,,,0,,,41,100
117360,note_on,24,0,2,,,,,,,,0,,,65,100
117371,set_tempo,17,1,0,,,,,,471550,,,,,,
117384,set_tempo,13,1,0,,,,,,467909,,,,,,
117396,note_on,96,0,1,,,,,,,,0,,,80,0
117396,note_on,96,0,3,,,,,,,,0,,,56,0
117402,set_tempo,18,1,0,,,,,,464324,,,,,,
117419,set_tempo,17,1,0,,,,,,460794,,,,,,
117420,note_on,24,0,3,,,,,,,,0,,,53,100
117420,note_on,24,0,1,,,,,,,,0,,,77,100
117437,set_tempo,18,1,0,,,,,,457317,,,,,,
117454,set_tempo,17,1,0,,,,,,453892,,,,,,
117456,note_on,96,0,4,,,,,,,,0,,,41,0
117456,note_on,96,0,2,,,,,,,,0,,,65,0
117467,set_tempo,13,1,0,,,,,,450518,,,,,,
117480,note_on,24,0,2,,,,,,,,0,,,63,100
117480,note_on,24,0,4,,,,,,,,0,,,39,100
117485,set_tempo,18,1,0,,,,,,447194,,,,,,
117502,set_tempo,17,1,0,,,,,,443918,,,,,,
117516,note_on,96,0,1,,,,,,,,0,,,77,0
117516,note_on,96,0,3,,,,,,,,0,,,53,0
117520,set_tempo,18,1,0,,,,,,440690,,,,,,
117533,set_tempo,13,1,0,,,,,,437509,,,,,,
117540,note_on,24,0,3,,,,,,,,0,,,51,100
117540,note_on,24,0,1,,,,,,,,0,,,75,100
117550,set_tempo,17,1,0,,,,,,434373,,,,,,
117568,set_tempo,18,1,0,,,,,,431282,,,,,,
117576,note_on,96,0,4,,,,,,,,0,,,39,0
117576,note_on,96,0,2,,,,,,,,0,,,63,0
117585,set_tempo,17,1,0,,,,,,428235,,,,,,
117598,set_tempo,13,1,0,,,,,,425230,,,,,,
117600,note_on,24,0,4,,,,,,,,0,,,36,100
117600,note_on,24,0,2,,,,,,,,0,,,60,100
117636,note_on,96,0,1,,,,,,,,0,,,75,0
117636,note_on,96,0,3,,,,,,,,0,,,51,0
117660,note_on,24,0,1,,,,,,,,0,,,72,100
117660,note_on,24,0,3,,,,,,,,0,,,48,100
117696,note_on,96,0,4,,,,,,,,0,,,36,0
117696,note_on,96,0,2,,,,,,,,0,,,60,0
117720,note_on,24,0,2,,,,,,,,0,,,56,100
117720,note_on,24,0,4,,,,,,,,0,,,32,100
117756,note_on,96,0,3,,,,,,,,0,,,48,0
117756,note_on,96,0,1,,,,,,,,0,,,72,0
117780,note_on,24,0,1,,,,,,,,0,,,68,100
117780,note_on,24,0,3,,,,,,,,0,,,44,100
117816,note_on,96,0,4,,,,,,,,0,,,32,0
117816,note_on,96,0,2,,,,,,,,0,,,56,0
117828,note_on,48,0,3,,,,,,,,0,,,44,0
117828,note_on,48,0,1,,,,,,,,0,,,68,0
117840,note_on,24,0,2,,,,,,,,0,,,60,99
117840,note_on,0,0,4,,,,,,,,0,,,36,99
117840,control_change,24,0,4,,,,,,,,0,64,0,,
117864,control_change,24,0,4,,,,,,,,0,64,127,,
117900,note_on,72,0,1,,,,,,,,0,,,72,98
117900,note_on,72,0,3,,,,,,,,0,,,48,98
117936,note_on,72,0,4,,,,,,,,0,,,36,0
117936,note_on,96,0,2,,,,,,,,0,,,60,0
117960,note_on,24,0,4,,,,,,,,0,,,39,97
117960,note_on,24,0,2,,,,,,,,0,,,63,97
117996,note_on,96,0,1,,,,,,,,0,,,72,0
117996,note_on,96,0,3,,,,,,,,0,,,48,0
118020,note_on,24,0,3,,,,,,,,0,,,51,95
118020,note_on,24,0,1,,,,,,,,0,,,75,95
118056,note_on,96,0,4,,,,,,,,0,,,39,0
118056,note_on,96,0,2,,,,,,,,0,,,63,0
118061,set_tempo,463,1,0,,,,,,425230,,,,,,
118078,set_tempo,17,1,0,,,,,,428235,,,,,,
118080,note_on,24,0,2,,,,,,,,0,,,65,94
118080,note_on,24,0,4,,,,,,,,0,,,41,94
118096,set_tempo,18,1,0,,,,,,431282,,,,,,
118109,set_tempo,13,1,0,,,,,,434373,,,,,,
118116,note_on,96,0,3,,,,,,,,0,,,51,0
118116,note_on,96,0,1,,,,,,,,0,,,75,0
118126,set_tempo,17,1,0,,,,,,437509,,,,,,
118140,note_on,24,0,1,,,,,,,,0,,,77,93
118140,note_on,24,0,3,,,,,,,,0,,,53,93
118144,set_tempo,18,1,0,,,,,,440690,,,,,,
118157,set_tempo,13,1,0,,,,,,443918,,,,,,
118174,set_tempo,17,1,0,,,,,,447194,,,,,,
118176,note_on,96,0,4,,,,,,,,0,,,41,0
118176,note_on,96,0,2,,,,,,,,0,,,65,0
118192,set_tempo,18,1,0,,,,,,450518,,,,,,
118200,note_on,24,0,4,,,,,,,,0,,,44,92
118200,note_on,24,0,2,,,,,,,,0,,,68,92
118205,set_tempo,13,1,0,,,,,,453892,,,,,,
118222,set_tempo,17,1,0,,,,,,457317,,,,,,
118236,note_on,96,0,3,,,,,,,,0,,,53,0
118236,note_on,96,0,1,,,,,,,,0,,,77,0
118240,set_tempo,18,1,0,,,,,,460794,,,,,,
118253,set_tempo,13,1,0,,,,,,464324,,,,,,
118260,note_on,24,0,3,,,,,,,,0,,,56,90
118260,note_on,24,0,1,,,,,,,,0,,,80,90
118270,set_tempo,17,1,0,,,,,,467909,,,,,,
118288,set_tempo,18,1,0,,,,,,471550,,,,,,
118296,note_on,96,0,4,,,,,,,,0,,,44,0
118296,note_on,96,0,2,,,,,,,,0,,,68,0
118301,set_tempo,13,1,0,,,,,,475248,,,,,,
118318,set_tempo,17,1,0,,,,,,479004,,,,,,
118320,note_on,24,0,4,,,,,,,,0,,,48,89
118320,note_on,24,0,2,,,,,,,,0,,,72,89
118336,set_tempo,18,1,0,,,,,,482820,,,,,,
118349,set_tempo,13,1,0,,,,,,486697,,,,,,
118356,note_on,96,0,3,,,,,,,,0,,,56,0
118356,note_on,96,0,1,,,,,,,,0,,,80,0
118366,set_tempo,17,1,0,,,,,,490637,,,,,,
118380,note_on,24,0,3,,,,,,,,0,,,60,88
118380,note_on,24,0,1,,,,,,,,0,,,84,88
118384,set_tempo,18,1,0,,,,,,494641,,,,,,
118397,set_tempo,13,1,0,,,,,,498712,,,,,,
118414,set_tempo,17,1,0,,,,,,502849,,,,,,
118416,note_on,96,0,2,,,,,,,,0,,,72,0
118416,note_on,96,0,4,,,,,,,,0,,,48,0
118432,set_tempo,18,1,0,,,,,,507057,,,,,,
118440,note_on,24,0,2,,,,,,,,0,,,75,87
118440,note_on,24,0,4,,,,,,,,0,,,51,87
118445,set_tempo,13,1,0,,,,,,511335,,,,,,
118462,set_tempo,17,1,0,,,,,,515685,,,,,,
118476,note_on,96,0,3,,,,,,,,0,,,60,0
118476,note_on,96,0,1,,,,,,,,0,,,84,0
118480,set_tempo,18,1,0,,,,,,520111,,,,,,
118493,set_tempo,13,1,0,,,,,,524613,,,,,,
118500,note_on,24,0,1,,,,,,,,0,,,87,85
118500,note_on,24,0,3,,,,,,,,0,,,63,85
118510,set_tempo,17,1,0,,,,,,529194,,,,,,
118528,set_tempo,18,1,0,,,,,,533855,,,,,,
118536,note_on,96,0,2,,,,,,,,0,,,75,0
118536,note_on,96,0,4,,,,,,,,0,,,51,0
118541,set_tempo,13,1,0,,,,,,538600,,,,,,
118558,set_tempo,17,1,0,,,,,,543429,,,,,,
118560,note_on,24,0,4,,,,,,,,0,,,53,84
118560,note_on,24,0,2,,,,,,,,0,,,77,84
118576,set_tempo,18,1,0,,,,,,548346,,,,,,
118589,set_tempo,13,1,0,,,,,,553352,,,,,,
118596,note_on,96,0,1,,,,,,,,0,,,87,0
118596,note_on,96,0,3,,,,,,,,0,,,63,0
118606,set_tempo,17,1,0,,,,,,558451,,,,,,
118620,note_on,24,0,1,,,,,,,,0,,,89,83
118620,note_on,24,0,3,,,,,,,,0,,,65,83
118624,set_tempo,18,1,0,,,,,,563645,,,,,,
118637,set_tempo,13,1,0,,,,,,568936,,,,,,
118654,set_tempo,17,1,0,,,,,,574328,,,,,,
118656,note_on,96,0,4,,,,,,,,0,,,53,0
118656,note_on,96,0,2,,,,,,,,0,,,77,0
118672,set_tempo,18,1,0,,,,,,579822,,,,,,
118680,note_on,24,0,4,,,,,,,,0,,,56,82
118680,note_on,24,0,2,,,,,,,,0,,,80,82
118685,set_tempo,13,1,0,,,,,,585423,,,,,,
118702,set_tempo,17,1,0,,,,,,591133,,,,,,
118716,note_on,96,0,1,,,,,,,,0,,,89,0
118716,note_on,96,0,3,,,,,,,,0,,,65,0
118720,set_tempo,18,1,0,,,,,,596956,,,,,,
118733,set_tempo,13,1,0,,,,,,602894,,,,,,
118740,note_on,24,0,1,,,,,,,,0,,,92,80
118740,note_on,24,0,3,,,,,,,,0,,,68,80
118750,set_tempo,17,1,0,,,,,,608952,,,,,,
118768,set_tempo,18,1,0,,,,,,615132,,,,,,
118776,note_on,96,0,2,,,,,,,,0,,,80,0
118776,note_on,96,0,4,,,,,,,,0,,,56,0
118781,set_tempo,13,1,0,,,,,,621440,,,,,,
118788,note_on,48,0,1,,,,,,,,0,,,92,0
118788,note_on,48,0,3,,,,,,,,0,,,68,0
118798,set_tempo,17,1,0,,,,,,621440,,,,,,
118800,note_on,24,0,2,,,,,,,,0,,,77,100
118800,note_on,24,0,4,,,,,,,,0,,,53,100
118800,control_change,0,0,4,,,,,,,,0,64,0,,
118816,set_tempo,18,1,0,,,,,,615132,,,,,,
118832,control_change,32,0,4,,,,,,,,0,64,127,,
118833,set_tempo,17,1,0,,,,,,608952,,,,,,
118851,set_tempo,18,1,0,,,,,,602894,,,,,,
118860,note_on,72,0,3,,,,,,,,0,,,65,96
118860,note_on,72,0,1,,,,,,,,0,,,89,96
118868,set_tempo,17,1,0,,,,,,596956,,,,,,
118886,set_tempo,18,1,0,,,,,,591133,,,,,,
118896,note_on,64,0,4,,,,,,,,0,,,53,0
118896,note_on,96,0,2,,,,,,,,0,,,77,0
118899,set_tempo,13,1,0,,,,,,585423,,,,,,
118916,set_tempo,17,1,0,,,,,,579822,,,,,,
118920,note_on,24,0,4,,,,,,,,0,,,52,96
118920,note_on,24,0,2,,,,,,,,0,,,76,96
118934,set_tempo,18,1,0,,,,,,574328,,,,,,
118951,set_tempo,17,1,0,,,,,,568936,,,,,,
118956,note_on,96,0,3,,,,,,,,0,,,65,0
118956,note_on,96,0,1,,,,,,,,0,,,89,0
118968,set_tempo,17,1,0,,,,,,563645,,,,,,
118980,note_on,24,0,1,,,,,,,,0,,,88,95
118980,note_on,24,0,3,,,,,,,,0,,,64,95
118982,set_tempo,14,1,0,,,,,,558451,,,,,,
118999,set_tempo,17,1,0,,,,,,553352,,,,,,
119016,note_on,96,0,4,,,,,,,,0,,,52,0
119016,note_on,96,0,2,,,,,,,,0,,,76,0
119016,set_tempo,17,1,0,,,,,,548346,,,,,,
119034,set_tempo,18,1,0,,,,,,543429,,,,,,
119040,note_on,24,0,4,,,,,,,,0,,,48,95
119040,note_on,24,0,2,,,,,,,,0,,,72,95
119051,set_tempo,17,1,0,,,,,,538600,,,,,,
119069,set_tempo,18,1,0,,,,,,533855,,,,,,
119076,note_on,96,0,1,,,,,,,,0,,,88,0
119076,note_on,96,0,3,,,,,,,,0,,,64,0
119082,set_tempo,13,1,0,,,,,,529194,,,,,,
119099,set_tempo,17,1,0,,,,,,524613,,,,,,
119100,note_on,24,0,1,,,,,,,,0,,,84,94
119100,note_on,24,0,3,,,,,,,,0,,,60,94
119117,set_tempo,18,1,0,,,,,,520111,,,,,,
119134,set_tempo,17,1,0,,,,,,515685,,,,,,
119136,note_on,96,0,2,,,,,,,,0,,,72,0
119136,note_on,96,0,4,,,,,,,,0,,,48,0
119152,set_tempo,18,1,0,,,,,,511335,,,,,,
119160,note_on,24,0,2,,,,,,,,0,,,68,94
119160,note_on,24,0,4,,,,,,,,0,,,44,94
119165,set_tempo,13,1,0,,,,,,507057,,,,,,
119182,set_tempo,17,1,0,,,,,,502849,,,,,,
119196,note_on,96,0,3,,,,,,,,0,,,60,0
119196,note_on,96,0,1,,,,,,,,0,,,84,0
119200,set_tempo,18,1,0,,,,,,498712,,,,,,
119217,set_tempo,17,1,0,,,,,,494641,,,,,,
119220,note_on,24,0,1,,,,,,,,0,,,80,93
119220,note_on,24,0,3,,,,,,,,0,,,56,93
119235,set_tempo,18,1,0,,,,,,490637,,,,,,
119248,set_tempo,13,1,0,,,,,,486697,,,,,,
119256,note_on,96,0,2,,,,,,,,0,,,68,0
119256,note_on,96,0,4,,,,,,,,0,,,44,0
119265,set_tempo,17,1,0,,,,,,482820,,,,,,
119280,note_on,24,0,4,,,,,,,,0,,,41,93
119280,note_on,24,0,2,,,,,,,,0,,,65,93
119283,set_tempo,18,1,0,,,,,,479004,,,,,,
119300,set_tempo,17,1,0,,,,,,475248,,,,,,
119316,note_on,96,0,3,,,,,,,,0,,,56,0
119316,note_on,96,0,1,,,,,,,,0,,,80,0
119318,set_tempo,18,1,0,,,,,,471550,,,,,,
119335,set_tempo,17,1,0,,,,,,467909,,,,,,
119340,note_on,24,0,3,,,,,,,,0,,,53,92
119340,note_on,24,0,1,,,,,,,,0,,,77,92
119348,set_tempo,13,1,0,,,,,,464324,,,,,,
119366,set_tempo,18,1,0,,,,,,460794,,,,,,
119376,note_on,96,0,4,,,,,,,,0,,,41,0
119376,note_on,96,0,2,,,,,,,,0,,,65,0
119383,set_tempo,17,1,0,,,,,,457317,,,,,,
119400,note_on,24,0,2,,,,,,,,0,,,64,92
119400,note_on,24,0,4,,,,,,,,0,,,40,92
119400,set_tempo,17,1,0,,,,,,453892,,,,,,
119418,set_tempo,18,1,0,,,,,,450518,,,,,,
119431,set_tempo,13,1,0,,,,,,447194,,,,,,
119436,note_on,96,0,1,,,,,,,,0,,,77,0
119436,note_on,96,0,3,,,,,,,,0,,,53,0
119448,set_tempo,17,1,0,,,,,,443918,,,,,,
119460,note_on,24,0,3,,,,,,,,0,,,52,91
119460,note_on,24,0,1,,,,,,,,0,,,76,91
119466,set_tempo,18,1,0,,,,,,440690,,,,,,
119483,set_tempo,17,1,0,,,,,,437509,,,,,,
119496,note_on,96,0,4,,,,,,,,0,,,40,0
119496,note_on,96,0,2,,,,,,,,0,,,64,0
119501,set_tempo,18,1,0,,,,,,434373,,,,,,
119514,set_tempo,13,1,0,,,,,,431282,,,,,,
119520,note_on,24,0,4,,,,,,,,0,,,36,91
119520,note_on,24,0,2,,,,,,,,0,,,60,91
119556,note_on,96,0,1,,,,,,,,0,,,76,0
119556,note_on,96,0,3,,,,,,,,0,,,52,0
119580,note_on,24,0,1,,,,,,,,0,,,72,90
119580,note_on,24,0,3,,,,,,,,0,,,48,90
119616,note_on,96,0,4,,,,,,,,0,,,36,0
119616,note_on,96,0,2,,,,,,,,0,,,60,0
119640,note_on,24,0,4,,,,,,,,0,,,32,90
119640,note_on,24,0,2,,,,,,,,0,,,56,90
119676,note_on,96,0,3,,,,,,,,0,,,48,0
119676,note_on,96,0,1,,,,,,,,0,,,72,0
119700,note_on,24,0,1,,,,,,,,0,,,68,89
119700,note_on,24,0,3,,,,,,,,0,,,44,89
119736,note_on,96,0,4,,,,,,,,0,,,32,0
119736,note_on,96,0,2,,,,,,,,0,,,56,0
119748,note_on,48,0,1,,,,,,,,0,,,68,0
119748,note_on,48,0,3,,,,,,,,0,,,44,0
119760,control_change,24,0,4,,,,,,,,0,64,0,,
119760,note_on,24,0,2,,,,,,,,0,,,60,89
119760,note_on,0,0,4,,,,,,,,0,,,36,89
119800,control_change,40,0,4,,,,,,,,0,64,127,,
119820,note_on,72,0,3,,,,,,,,0,,,48,88
119820,note_on,72,0,1,,,,,,,,0,,,72,88
119856,note_on,56,0,4,,,,,,,,0,,,36,0
119856,note_on,96,0,2,,,,,,,,0,,,60,0
119880,note_on,24,0,4,,,,,,,,0,,,40,88
119880,note_on,24,0,2,,,,,,,,0,,,64,88
119916,note_on,96,0,3,,,,,,,,0,,,48,0
119916,note_on,96,0,1,,,,,,,,0,,,72,0
119940,note_on,24,0,1,,,,,,,,0,,,76,87
119940,note_on,24,0,3,,,,,,,,0,,,52,87
119976,note_on,96,0,2,,,,,,,,0,,,64,0
119976,note_on,96,0,4,,,,,,,,0,,,40,0
120000,note_on,24,0,4,,,,,,,,0,,,41,87
120000,note_on,24,0,2,,,,,,,,0,,,65,87
120036,note_on,96,0,3,,,,,,,,0,,,52,0
120036,note_on,96,0,1,,,,,,,,0,,,76,0
120060,note_on,24,0,3,,,,,,,,0,,,53,86
120060,note_on,24,0,1,,,,,,,,0,,,77,86
120096,note_on,96,0,4,,,,,,,,0,,,41,0
120096,note_on,96,0,2,,,,,,,,0,,,65,0
120120,note_on,24,0,2,,,,,,,,0,,,68,86
120120,note_on,24,0,4,,,,,,,,0,,,44,86
120156,note_on,96,0,3,,,,,,,,0,,,53,0
120156,note_on,96,0,1,,,,,,,,0,,,77,0
120180,note_on,24,0,3,,,,,,,,0,,,56,85
120180,note_on,24,0,1,,,,,,,,0,,,80,85
120216,note_on,96,0,2,,,,,,,,0,,,68,0
120216,note_on,96,0,4,,,,,,,,0,,,44,0
120240,note_on,24,0,4,,,,,,,,0,,,48,85
120240,note_on,24,0,2,,,,,,,,0,,,72,85
120276,note_on,96,0,1,,,,,,,,0,,,80,0
120276,note_on,96,0,3,,,,,,,,0,,,56,0
120300,note_on,24,0,3,,,,,,,,0,,,60,84
120300,note_on,24,0,1,,,,,,,,0,,,84,84
120336,note_on,96,0,2,,,,,,,,0,,,72,0
120336,note_on,96,0,4,,,,,,,,0,,,48,0
120360,note_on,24,0,2,,,,,,,,0,,,76,83
120360,note_on,24,0,4,,,,,,,,0,,,52,83
120396,note_on,96,0,3,,,,,,,,0,,,60,0
120396,note_on,96,0,1,,,,,,,,0,,,84,0
120420,note_on,24,0,1,,,,,,,,0,,,88,83
120420,note_on,24,0,3,,,,,,,,0,,,64,83
120456,note_on,96,0,2,,,,,,,,0,,,76,0
120456,note_on,96,0,4,,,,,,,,0,,,52,0
120480,note_on,24,0,2,,,,,,,,0,,,77,82
120480,note_on,24,0,4,,,,,,,,0,,,53,82
120516,note_on,96,0,1,,,,,,,,0,,,88,0
120516,note_on,96,0,3,,,,,,,,0,,,64,0
120540,note_on,24,0,1,,,,,,,,0,,,89,82
120540,note_on,24,0,3,,,,,,,,0,,,65,82
120576,note_on,96,0,2,,,,,,,,0,,,77,0
120576,note_on,96,0,4,,,,,,,,0,,,53,0
120600,note_on,24,0,2,,,,,,,,0,,,80,81
120600,note_on,24,0,4,,,,,,,,0,,,56,81
120636,note_on,96,0,3,,,,,,,,0,,,65,0
120636,note_on,96,0,1,,,,,,,,0,,,89,0
120660,note_on,24,0,3,,,,,,,,0,,,68,81
120660,note_on,24,0,1,,,,,,,,0,,,92,81
120696,note_on,96,0,4,,,,,,,,0,,,56,0
120696,note_on,96,0,2,,,,,,,,0,,,80,0
120708,note_on,48,0,3,,,,,,,,0,,,68,0
120708,note_on,48,0,1,,,,,,,,0,,,92,0
120720,note_on,24,0,2,,,,,,,,0,,,80,80
120720,control_change,24,0,4,,,,,,,,0,64,0,,
120720,note_on,0,0,4,,,,,,,,0,,,56,80
120769,control_change,49,0,4,,,,,,,,0,64,127,,
120780,note_on,72,0,1,,,,,,,,0,,,92,80
120780,note_on,72,0,3,,,,,,,,0,,,68,80
120816,note_on,96,0,2,,,,,,,,0,,,80,0
120816,note_on,47,0,4,,,,,,,,0,,,56,0
120840,note_on,24,0,4,,,,,,,,0,,,56,80
120840,note_on,24,0,2,,,,,,,,0,,,80,80
120876,note_on,96,0,1,,,,,,,,0,,,92,0
120876,note_on,96,0,3,,,,,,,,0,,,68,0
120900,note_on,24,0,1,,,,,,,,0,,,92,80
120900,note_on,24,0,3,,,,,,,,0,,,68,80
120936,note_on,96,0,2,,,,,,,,0,,,80,0
120936,note_on,96,0,4,,,,,,,,0,,,56,0
120960,note_on,24,0,4,,,,,,,,0,,,56,80
120960,note_on,24,0,2,,,,,,,,0,,,80,80
120996,note_on,96,0,3,,,,,,,,0,,,68,0
120996,note_on,96,0,1,,,,,,,,0,,,92,0
121020,note_on,24,0,3,,,,,,,,0,,,68,80
121020,note_on,24,0,1,,,,,,,,0,,,92,80
121056,note_on,96,0,2,,,,,,,,0,,,80,0
121056,note_on,96,0,4,,,,,,,,0,,,56,0
121080,note_on,24,0,2,,,,,,,,0,,,80,80
121080,note_on,24,0,4,,,,,,,,0,,,56,80
121116,note_on,96,0,1,,,,,,,,0,,,92,0
121116,note_on,96,0,3,,,,,,,,0,,,68,0
121140,note_on,24,0,1,,,,,,,,0,,,92,80
121140,note_on,24,0,3,,,,,,,,0,,,68,80
121176,note_on,96,0,4,,,,,,,,0,,,56,0
121176,note_on,96,0,2,,,,,,,,0,,,80,0
121200,note_on,24,0,4,,,,,,,,0,,,56,80
121200,note_on,24,0,2,,,,,,,,0,,,80,80
121236,note_on,96,0,1,,,,,,,,0,,,92,0
121236,note_on,96,0,3,,,,,,,,0,,,68,0
121260,note_on,24,0,1,,,,,,,,0,,,92,80
121260,note_on,24,0,3,,,,,,,,0,,,68,80
121296,note_on,96,0,4,,,,,,,,0,,,56,0
121296,note_on,96,0,2,,,,,,,,0,,,80,0
121320,note_on,24,0,4,,,,,,,,0,,,56,80
121320,note_on,24,0,2,,,,,,,,0,,,80,80
121356,note_on,96,0,3,,,,,,,,0,,,68,0
121356,note_on,96,0,1,,,,,,,,0,,,92,0
121380,note_on,24,0,3,,,,,,,,0,,,68,80
121380,note_on,24,0,1,,,,,,,,0,,,92,80
121416,note_on,96,0,4,,,,,,,,0,,,56,0
121416,note_on,96,0,2,,,,,,,,0,,,80,0
121440,note_on,24,0,4,,,,,,,,0,,,56,80
121440,note_on,24,0,2,,,,,,,,0,,,80,80
121476,note_on,96,0,3,,,,,,,,0,,,68,0
121476,note_on,96,0,1,,,,,,,,0,,,92,0
121500,note_on,24,0,1,,,,,,,,0,,,92,80
121500,note_on,24,0,3,,,,,,,,0,,,68,80
121536,note_on,96,0,4,,,,,,,,0,,,56,0
121536,note_on,96,0,2,,,,,,,,0,,,80,0
121560,note_on,24,0,2,,,,,,,,0,,,80,80
121560,note_on,24,0,4,,,,,,,,0,,,56,80
121596,note_on,96,0,3,,,,,,,,0,,,68,0
121596,note_on,96,0,1,,,,,,,,0,,,92,0
121620,note_on,24,0,3,,,,,,,,0,,,68,80
121620,note_on,24,0,1,,,,,,,,0,,,92,80
121656,note_on,96,0,4,,,,,,,,0,,,56,0
121656,note_on,96,0,2,,,,,,,,0,,,80,0
121668,note_on,48,0,3,,,,,,,,0,,,68,0
121668,note_on,48,0,1,,,,,,,,0,,,92,0
121669,set_tempo,2155,1,0,,,,,,428235,,,,,,
121680,note_on,12,0,3,,,,,,,,0,,,44,80
121680,note_on,24,0,2,,,,,,,,0,,,80,80
121680,control_change,24,0,4,,,,,,,,0,64,0,,
121695,set_tempo,26,1,0,,,,,,431282,,,,,,
121717,set_tempo,22,1,0,,,,,,434373,,,,,,
121724,control_change,44,0,4,,,,,,,,0,64,127,,
121728,note_on,48,0,3,,,,,,,,0,,,44,0
121728,note_on,48,0,2,,,,,,,,0,,,80,0
121739,set_tempo,22,1,0,,,,,,437509,,,,,,
121740,note_on,12,0,2,,,,,,,,0,,,92,80
121740,note_on,12,0,3,,,,,,,,0,,,56,80
121761,set_tempo,22,1,0,,,,,,440690,,,,,,
121782,set_tempo,21,1,0,,,,,,443918,,,,,,
121788,note_on,48,0,3,,,,,,,,0,,,56,0
121788,note_on,48,0,2,,,,,,,,0,,,92,0
121800,note_on,12,0,3,,,,,,,,0,,,44,80
121800,note_on,12,0,2,,,,,,,,0,,,80,80
121804,set_tempo,22,1,0,,,,,,447194,,,,,,
121826,set_tempo,22,1,0,,,,,,450518,,,,,,
121848,note_on,48,0,3,,,,,,,,0,,,44,0
121848,note_on,48,0,2,,,,,,,,0,,,80,0
121852,set_tempo,26,1,0,,,,,,453892,,,,,,
121860,note_on,12,0,2,,,,,,,,0,,,92,80
121860,note_on,12,0,3,,,,,,,,0,,,56,80
121874,set_tempo,22,1,0,,,,,,457317,,,,,,
121896,set_tempo,22,1,0,,,,,,460794,,,,,,
121908,note_on,48,0,3,,,,,,,,0,,,56,0
121908,note_on,48,0,2,,,,,,,,0,,,92,0
121918,set_tempo,22,1,0,,,,,,464324,,,,,,
121920,note_on,12,0,2,,,,,,,,0,,,80,80
121920,note_on,12,0,3,,,,,,,,0,,,44,80
121940,set_tempo,22,1,0,,,,,,467909,,,,,,
121961,set_tempo,21,1,0,,,,,,471550,,,,,,
121968,note_on,48,0,2,,,,,,,,0,,,80,0
121968,note_on,48,0,3,,,,,,,,0,,,44,0
121980,note_on,12,0,3,,,,,,,,0,,,56,80
121980,note_on,12,0,2,,,,,,,,0,,,92,80
121983,set_tempo,22,1,0,,,,,,475248,,,,,,
122009,set_tempo,26,1,0,,,,,,479004,,,,,,
122028,note_on,48,0,3,,,,,,,,0,,,56,0
122028,note_on,48,0,2,,,,,,,,0,,,92,0
122031,set_tempo,22,1,0,,,,,,482820,,,,,,
122040,note_on,12,0,2,,,,,,,,0,,,80,80
122040,note_on,12,0,3,,,,,,,,0,,,44,80
122053,set_tempo,22,1,0,,,,,,486697,,,,,,
122075,set_tempo,22,1,0,,,,,,490637,,,,,,
122088,note_on,48,0,3,,,,,,,,0,,,44,0
122088,note_on,48,0,2,,,,,,,,0,,,80,0
122097,set_tempo,22,1,0,,,,,,494641,,,,,,
122100,note_on,12,0,3,,,,,,,,0,,,56,80
122100,note_on,12,0,2,,,,,,,,0,,,92,80
122118,set_tempo,21,1,0,,,,,,498712,,,,,,
122140,set_tempo,22,1,0,,,,,,502849,,,,,,
122148,note_on,48,0,3,,,,,,,,0,,,56,0
122148,note_on,48,0,2,,,,,,,,0,,,92,0
122160,note_on,12,0,3,,,,,,,,0,,,32,80
122160,note_on,12,0,2,,,,,,,,0,,,80,80
122166,set_tempo,26,1,0,,,,,,507057,,,,,,
122188,set_tempo,22,1,0,,,,,,511335,,,,,,
122208,note_on,48,0,2,,,,,,,,0,,,80,0
122208,note_on,48,0,3,,,,,,,,0,,,32,0
122210,set_tempo,22,1,0,,,,,,515685,,,,,,
122220,note_on,12,0,2,,,,,,,,0,,,92,80
122220,note_on,12,0,3,,,,,,,,0,,,44,80
122232,set_tempo,22,1,0,,,,,,520111,,,,,,
122254,set_tempo,22,1,0,,,,,,524613,,,,,,
122268,note_on,48,0,3,,,,,,,,0,,,44,0
122268,note_on,48,0,2,,,,,,,,0,,,92,0
122276,set_tempo,22,1,0,,,,,,529194,,,,,,
122280,note_on,12,0,2,,,,,,,,0,,,80,80
122280,note_on,12,0,3,,,,,,,,0,,,32,80
122297,set_tempo,21,1,0,,,,,,533855,,,,,,
122324,set_tempo,27,1,0,,,,,,538600,,,,,,
122328,note_on,48,0,3,,,,,,,,0,,,32,0
122328,note_on,48,0,2,,,,,,,,0,,,80,0
122340,note_on,12,0,2,,,,,,,,0,,,92,80
122340,note_on,12,0,3,,,,,,,,0,,,44,80
122345,set_tempo,21,1,0,,,,,,543429,,,,,,
122367,set_tempo,22,1,0,,,,,,548346,,,,,,
122388,note_on,48,0,3,,,,,,,,0,,,44,0
122388,note_on,48,0,2,,,,,,,,0,,,92,0
122389,set_tempo,22,1,0,,,,,,553352,,,,,,
122400,note_on,12,0,3,,,,,,,,0,,,32,80
122400,note_on,12,0,2,,,,,,,,0,,,80,80
122411,set_tempo,22,1,0,,,,,,558451,,,,,,
122433,set_tempo,22,1,0,,,,,,563645,,,,,,
122448,note_on,48,0,2,,,,,,,,0,,,80,0
122448,note_on,48,0,3,,,,,,,,0,,,32,0
122454,set_tempo,21,1,0,,,,,,568936,,,,,,
122460,note_on,12,0,3,,,,,,,,0,,,44,80
122460,note_on,12,0,2,,,,,,,,0,,,92,80
122481,set_tempo,27,1,0,,,,,,574328,,,,,,
122502,set_tempo,21,1,0,,,,,,579822,,,,,,
122508,note_on,48,0,3,,,,,,,,0,,,44,0
122508,note_on,48,0,2,,,,,,,,0,,,92,0
122520,note_on,12,0,2,,,,,,,,0,,,80,80
122520,note_on,12,0,3,,,,,,,,0,,,32,80
122524,set_tempo,22,1,0,,,,,,585423,,,,,,
122546,set_tempo,22,1,0,,,,,,591133,,,,,,
122568,note_on,48,0,2,,,,,,,,0,,,80,0
122568,note_on,48,0,3,,,,,,,,0,,,32,0
122568,set_tempo,22,1,0,,,,,,596956,,,,,,
122580,note_on,12,0,2,,,,,,,,0,,,92,80
122580,note_on,12,0,3,,,,,,,,0,,,44,80
122590,set_tempo,22,1,0,,,,,,602894,,,,,,
122612,set_tempo,22,1,0,,,,,,608952,,,,,,
122628,note_on,48,0,2,,,,,,,,0,,,92,0
122628,note_on,48,0,3,,,,,,,,0,,,44,0
122633,set_tempo,21,1,0,,,,,,615132,,,,,,
122640,time_signature,7,1,0,1,16,6,8,,,,,,,,
122640,control_change,916,0,4,,,,,,,,0,64,0,,
122640,note_on,972,0,1,,,,,,,,0,,,77,80
122641,set_tempo,1,1,0,,,,,,662179,,,,,,
122655,note_on,15,0,4,,,,,,,,0,,,37,80
122660,note_on,20,0,1,,,,,,,,0,,,80,80
122670,note_on,15,0,4,,,,,,,,0,,,44,80
122673,control_change,3,0,4,,,,,,,,0,64,127,,
122675,note_on,15,0,1,,,,,,,,0,,,89,80
122685,note_on,12,0,4,,,,,,,,0,,,49,80
122698,set_tempo,57,1,0,,,,,,662179,,,,,,
122700,note_on,25,0,1,,,,,,,,0,,,92,80
122700,time_signature,2,1,0,2,4,24,8,,,,,,,,
122700,note_on,15,0,4,,,,,,,,0,,,53,80
122704,set_tempo,4,1,0,,,,,,835655,,,,,,
122734,set_tempo,30,1,0,,,,,,824289,,,,,,
122761,set_tempo,27,1,0,,,,,,813229,,,,,,
122780,note_on,0,0,3,,,,,,,,0,,,49,80
122780,note_on,0,0,2,,,,,,,,0,,,77,80
122780,note_on,0,0,2,,,,,,,,0,,,68,80
122780,note_on,0,0,3,,,,,,,,0,,,56,80
122780,note_on,152,0,2,,,,,,,,0,,,65,80
122780,note_on,152,0,3,,,,,,,,0,,,61,80
122787,set_tempo,26,1,0,,,,,,802461,,,,,,
122813,set_tempo,26,1,0,,,,,,791975,,,,,,
122839,set_tempo,26,1,0,,,,,,781759,,,,,,
122844,note_on,0,0,3,,,,,,,,0,,,56,0
122844,note_on,0,0,3,,,,,,,,0,,,61,0
122844,note_on,64,0,3,,,,,,,,0,,,49,0
122844,note_on,64,0,2,,,,,,,,0,,,77,0
122844,note_on,0,0,2,,,,,,,,0,,,65,0
122844,note_on,0,0,2,,,,,,,,0,,,68,0
122860,note_on,16,0,3,,,,,,,,0,,,49,80
122860,note_on,0,0,3,,,,,,,,0,,,56,80
122860,note_on,0,0,3,,,,,,,,0,,,61,80
122860,note_on,0,0,2,,,,,,,,0,,,65,80
122860,note_on,16,0,2,,,,,,,,0,,,77,80
122860,note_on,0,0,2,,,,,,,,0,,,68,80
122865,set_tempo,26,1,0,,,,,,771803,,,,,,
122896,set_tempo,31,1,0,,,,,,762098,,,,,,
122922,set_tempo,26,1,0,,,,,,752634,,,,,,
122924,note_on,64,0,2,,,,,,,,0,,,65,0
122924,note_on,0,0,2,,,,,,,,0,,,68,0
122924,note_on,0,0,2,,,,,,,,0,,,77,0
122924,note_on,64,0,3,,,,,,,,0,,,56,0
122924,note_on,0,0,3,,,,,,,,0,,,49,0
122924,note_on,0,0,3,,,,,,,,0,,,61,0
122940,note_on,16,0,3,,,,,,,,0,,,61,80
122940,note_on,0,0,2,,,,,,,,0,,,68,80
122940,note_on,0,0,2,,,,,,,,0,,,65,80
122940,note_on,0,0,3,,,,,,,,0,,,56,80
122940,note_on,0,0,3,,,,,,,,0,,,49,80
122940,note_on,16,0,2,,,,,,,,0,,,77,80
122948,set_tempo,26,1,0,,,,,,743402,,,,,,
122974,set_tempo,26,1,0,,,,,,734394,,,,,,
123001,set_tempo,27,1,0,,,,,,725602,,,,,,
123004,note_on,0,0,2,,,,,,,,0,,,77,0
123004,note_on,0,0,2,,,,,,,,0,,,65,0
123004,note_on,64,0,2,,,,,,,,0,,,68,0
123004,note_on,64,0,3,,,,,,,,0,,,56,0
123004,note_on,0,0,3,,,,,,,,0,,,49,0
123004,note_on,0,0,3,,,,,,,,0,,,61,0
123020,note_on,0,0,2,,,,,,,,0,,,68,80
123020,note_on,16,0,3,,,,,,,,0,,,61,80
123020,note_on,0,0,2,,,,,,,,0,,,65,80
123020,note_on,0,0,3,,,,,,,,0,,,49,80
123020,note_on,16,0,2,,,,,,,,0,,,77,80
123020,note_on,0,0,3,,,,,,,,0,,,56,80
123027,set_tempo,26,1,0,,,,,,717017,,,,,,
123038,note_on,0,0,1,,,,,,,,0,,,89,0
123038,note_on,0,0,1,,,,,,,,0,,,80,0
123038,note_on,338,0,1,,,,,,,,0,,,92,0
123038,note_on,0,0,1,,,,,,,,0,,,77,0
123053,set_tempo,26,1,0,,,,,,708634,,,,,,
123066,set_tempo,13,1,0,,,,,,717017,,,,,,
123075,set_tempo,9,1,0,,,,,,725602,,,,,,
123084,note_on,0,0,4,,,,,,,,0,,,37,0
123084,note_on,64,0,2,,,,,,,,0,,,68,0
123084,set_tempo,9,1,0,,,,,,734394,,,,,,
123084,note_on,0,0,2,,,,,,,,0,,,65,0
123084,note_on,64,0,3,,,,,,,,0,,,56,0
123084,note_on,0,0,4,,,,,,,,0,,,49,0
123084,note_on,384,0,4,,,,,,,,0,,,53,0
123084,note_on,0,0,3,,,,,,,,0,,,61,0
123084,note_on,0,0,4,,,,,,,,0,,,44,0
123084,note_on,0,0,2,,,,,,,,0,,,77,0
123084,note_on,0,0,3,,,,,,,,0,,,49,0
123092,set_tempo,8,1,0,,,,,,743402,,,,,,
123100,note_on,16,0,3,,,,,,,,0,,,56,80
123100,note_on,0,0,2,,,,,,,,0,,,77,80
123100,note_on,16,0,2,,,,,,,,0,,,65,80
123100,note_on,0,0,3,,,,,,,,0,,,49,80
123100,note_on,0,0,3,,,,,,,,0,,,61,80
123100,note_on,0,0,2,,,,,,,,0,,,68,80
123101,set_tempo,9,1,0,,,,,,752634,,,,,,
123110,set_tempo,9,1,0,,,,,,762098,,,,,,
123118,set_tempo,8,1,0,,,,,,771803,,,,,,
123127,set_tempo,9,1,0,,,,,,781759,,,,,,
123136,set_tempo,9,1,0,,,,,,791975,,,,,,
123145,set_tempo,9,1,0,,,,,,802461,,,,,,
123153,set_tempo,8,1,0,,,,,,813229,,,,,,
123162,set_tempo,9,1,0,,,,,,824289,,,,,,
123164,note_on,0,0,2,,,,,,,,0,,,65,0
123164,note_on,64,0,3,,,,,,,,0,,,61,0
123164,note_on,64,0,2,,,,,,,,0,,,68,0
123164,note_on,0,0,2,,,,,,,,0,,,77,0
123164,note_on,0,0,3,,,,,,,,0,,,49,0
123164,note_on,0,0,3,,,,,,,,0,,,56,0
123171,set_tempo,9,1,0,,,,,,835655,,,,,,
123178,set_tempo,7,1,0,,,,,,608952,,,,,,
123180,note_on,96,0,4,,,,,,,,0,,,37,80
123180,note_on,142,0,1,,,,,,,,0,,,78,80
123180,time_signature,2,1,0,1,16,6,8,,,,,,,,
123180,control_change,0,0,4,,,,,,,,0,64,0,,
123195,note_on,15,0,4,,,,,,,,0,,,46,80
123195,note_on,15,0,1,,,,,,,,0,,,80,80
123210,note_on,15,0,1,,,,,,,,0,,,90,80
123210,note_on,15,0,4,,,,,,,,0,,,49,80
123225,note_on,15,0,4,,,,,,,,0,,,54,80
123240,time_signature,60,1,0,2,4,24,8,,,,,,,,
123240,control_change,15,0,4,,,,,,,,0,64,127,,
123243,set_tempo,3,1,0,,,,,,752634,,,,,,
123245,set_tempo,2,1,0,,,,,,813229,,,,,,
123262,set_tempo,17,1,0,,,,,,802461,,,,,,
123276,set_tempo,14,1,0,,,,,,791975,,,,,,
123289,set_tempo,13,1,0,,,,,,781759,,,,,,
123302,set_tempo,13,1,0,,,,,,771803,,,,,,
123315,set_tempo,13,1,0,,,,,,762098,,,,,,
123320,note_on,0,0,2,,,,,,,,0,,,66,80
123320,note_on,0,0,2,,,,,,,,0,,,78,80
123320,note_on,156,0,3,,,,,,,,0,,,61,80
123320,note_on,156,0,2,,,,,,,,0,,,68,80
123320,note_on,0,0,3,,,,,,,,0,,,49,80
123320,note_on,0,0,3,,,,,,,,0,,,58,80
123321,note_on,0,0,4,,,,,,,,0,,,37,0
123321,note_on,0,0,4,,,,,,,,0,,,46,0
123321,note_on,0,0,1,,,,,,,,0,,,80,0
123321,note_on,0,0,4,,,,,,,,0,,,49,0
123321,note_on,111,0,1,,,,,,,,0,,,90,0
123321,note_on,81,0,4,,,,,,,,0,,,54,0
123321,note_on,0,0,1,,,,,,,,0,,,78,0
123328,set_tempo,13,1,0,,,,,,752634,,,,,,
123341,set_tempo,13,1,0,,,,,,743402,,,,,,
123354,set_tempo,13,1,0,,,,,,734394,,,,,,
123367,set_tempo,13,1,0,,,,,,725602,,,,,,
123380,set_tempo,13,1,0,,,,,,717017,,,,,,
123384,note_on,0,0,2,,,,,,,,0,,,78,0
123384,note_on,0,0,2,,,,,,,,0,,,68,0
123384,note_on,0,0,3,,,,,,,,0,,,61,0
123384,note_on,64,0,2,,,,,,,,0,,,66,0
123384,note_on,64,0,3,,,,,,,,0,,,49,0
123384,note_on,0,0,3,,,,,,,,0,,,58,0
123398,set_tempo,18,1,0,,,,,,708634,,,,,,
123400,note_on,16,0,3,,,,,,,,0,,,49,80
123400,note_on,0,0,3,,,,,,,,0,,,61,80
123400,note_on,16,0,2,,,,,,,,0,,,78,80
123400,note_on,0,0,2,,,,,,,,0,,,66,80
123400,note_on,0,0,3,,,,,,,,0,,,58,80
123400,note_on,0,0,2,,,,,,,,0,,,68,80
123411,set_tempo,13,1,0,,,,,,700444,,,,,,
123424,set_tempo,13,1,0,,,,,,692441,,,,,,
123437,set_tempo,13,1,0,,,,,,684619,,,,,,
123450,set_tempo,13,1,0,,,,,,676972,,,,,,
123463,set_tempo,13,1,0,,,,,,669493,,,,,,
123464,note_on,0,0,2,,,,,,,,0,,,78,0
123464,note_on,64,0,2,,,,,,,,0,,,66,0
123464,note_on,0,0,3,,,,,,,,0,,,58,0
123464,note_on,0,0,3,,,,,,,,0,,,49,0
123464,note_on,64,0,3,,,,,,,,0,,,61,0
123464,note_on,0,0,2,,,,,,,,0,,,68,0
123476,set_tempo,13,1,0,,,,,,662179,,,,,,
123480,note_on,16,0,3,,,,,,,,0,,,49,80
123480,note_on,0,0,3,,,,,,,,0,,,61,80
123480,note_on,0,0,3,,,,,,,,0,,,58,80
123480,note_on,0,0,2,,,,,,,,0,,,68,80
123480,note_on,16,0,2,,,,,,,,0,,,66,80
123480,note_on,0,0,2,,,,,,,,0,,,78,80
123489,set_tempo,13,1,0,,,,,,655022,,,,,,
123502,set_tempo,13,1,0,,,,,,648018,,,,,,
123516,set_tempo,14,1,0,,,,,,641163,,,,,,
123522,set_tempo,6,1,0,,,,,,648018,,,,,,
123527,set_tempo,5,1,0,,,,,,627878,,,,,,
123540,set_tempo,13,1,0,,,,,,634451,,,,,,
123544,note_on,0,0,2,,,,,,,,0,,,68,0
123544,note_on,0,0,2,,,,,,,,0,,,66,0
123544,note_on,0,0,3,,,,,,,,0,,,49,0
123544,note_on,64,0,2,,,,,,,,0,,,78,0
123544,note_on,64,0,3,,,,,,,,0,,,61,0
123544,note_on,0,0,3,,,,,,,,0,,,58,0
123549,set_tempo,9,1,0,,,,,,641163,,,,,,
123557,set_tempo,8,1,0,,,,,,648018,,,,,,
123560,note_on,0,0,2,,,,,,,,0,,,78,80
123560,note_on,16,0,3,,,,,,,,0,,,61,80
123560,note_on,0,0,2,,,,,,,,0,,,66,80
123560,note_on,16,0,2,,,,,,,,0,,,68,80
123560,note_on,0,0,3,,,,,,,,0,,,58,80
123560,note_on,0,0,3,,,,,,,,0,,,49,80
123570,set_tempo,13,1,0,,,,,,655022,,,,,,
123579,set_tempo,9,1,0,,,,,,662179,,,,,,
123588,set_tempo,9,1,0,,,,,,669493,,,,,,
123601,set_tempo,13,1,0,,,,,,676972,,,,,,
123610,set_tempo,9,1,0,,,,,,684619,,,,,,
123618,set_tempo,8,1,0,,,,,,692441,,,,,,
123624,note_on,64,0,3,,,,,,,,0,,,58,0
123624,note_on,0,0,2,,,,,,,,0,,,66,0
123624,note_on,64,0,2,,,,,,,,0,,,78,0
123624,note_on,0,0,3,,,,,,,,0,,,49,0
123624,note_on,0,0,3,,,,,,,,0,,,61,0
123624,note_on,0,0,2,,,,,,,,0,,,68,0
123632,set_tempo,14,1,0,,,,,,743402,,,,,,
123640,note_on,0,0,2,,,,,,,,0,,,68,80
123640,note_on,0,0,3,,,,,,,,0,,,49,80
123640,note_on,16,0,3,,,,,,,,0,,,58,80
123640,note_on,0,0,3,,,,,,,,0,,,61,80
123640,note_on,16,0,2,,,,,,,,0,,,66,80
123640,note_on,0,0,2,,,,,,,,0,,,78,80
123697,set_tempo,65,1,0,,,,,,752634,,,,,,
123701,set_tempo,4,1,0,,,,,,762098,,,,,,
123704,note_on,64,0,2,,,,,,,,0,,,68,0
123704,note_on,0,0,2,,,,,,,,0,,,78,0
123704,note_on,0,0,2,,,,,,,,0,,,66,0
123704,note_on,64,0,3,,,,,,,,0,,,61,0
123704,note_on,0,0,3,,,,,,,,0,,,58,0
123704,note_on,0,0,3,,,,,,,,0,,,49,0
123710,set_tempo,9,1,0,,,,,,771803,,,,,,
123719,set_tempo,9,1,0,,,,,,596956,,,,,,
123720,note_on,399,0,1,,,,,,,,0,,,75,80
123720,time_signature,1,1,0,1,16,6,8,,,,,,,,
123720,note_on,0,0,4,,,,,,,,0,,,37,80
123720,control_change,399,0,4,,,,,,,,0,64,0,,
123740,note_on,20,0,1,,,,,,,,0,,,80,80
123750,note_on,30,0,4,,,,,,,,0,,,44,80
123756,control_change,6,0,4,,,,,,,,0,64,127,,
123760,note_on,20,0,1,,,,,,,,0,,,87,80
123765,note_on,9,0,4,,,,,,,,0,,,48,80
123771,set_tempo,51,1,0,,,,,,591133,,,,,,
123776,set_tempo,5,1,0,,,,,,634451,,,,,,
123780,time_signature,4,1,0,3,4,24,8,,,,,,,,
123780,note_on,15,0,4,,,,,,,,0,,,51,80
123780,note_on,20,0,1,,,,,,,,0,,,92,80
123780,set_tempo,0,1,0,,,,,,692441,,,,,,
123782,set_tempo,2,1,0,,,,,,835655,,,,,,
123804,set_tempo,22,1,0,,,,,,824289,,,,,,
123821,set_tempo,17,1,0,,,,,,813229,,,,,,
123838,set_tempo,17,1,0,,,,,,802461,,,,,,
123860,note_on,156,0,2,,,,,,,,0,,,63,80
123860,note_on,0,0,2,,,,,,,,0,,,75,80
123860,note_on,156,0,3,,,,,,,,0,,,56,80
123860,note_on,0,0,2,,,,,,,,0,,,68,80
123860,note_on,0,0,3,,,,,,,,0,,,60,80
123860,note_on,0,0,3,,,,,,,,0,,,49,80
123860,set_tempo,22,1,0,,,,,,791975,,,,,,
123878,set_tempo,18,1,0,,,,,,781759,,,,,,
123895,set_tempo,17,1,0,,,,,,771803,,,,,,
123917,set_tempo,22,1,0,,,,,,762098,,,,,,
123924,note_on,0,0,3,,,,,,,,0,,,56,0
123924,note_on,64,0,2,,,,,,,,0,,,68,0
123924,note_on,0,0,2,,,,,,,,0,,,63,0
123924,note_on,0,0,2,,,,,,,,0,,,75,0
123924,note_on,64,0,3,,,,,,,,0,,,49,0
123924,note_on,0,0,3,,,,,,,,0,,,60,0
123934,set_tempo,17,1,0,,,,,,752634,,,,,,
123940,note_on,0,0,2,,,,,,,,0,,,63,80
123940,note_on,0,0,2,,,,,,,,0,,,75,80
123940,note_on,16,0,2,,,,,,,,0,,,68,80
123940,note_on,0,0,3,,,,,,,,0,,,60,80
123940,note_on,0,0,3,,,,,,,,0,,,56,80
123940,note_on,16,0,3,,,,,,,,0,,,49,80
123952,set_tempo,18,1,0,,,,,,743402,,,,,,
123974,set_tempo,22,1,0,,,,,,734394,,,,,,
123991,set_tempo,17,1,0,,,,,,725602,,,,,,
124004,note_on,0,0,3,,,,,,,,0,,,56,0
124004,note_on,0,0,3,,,,,,,,0,,,49,0
124004,note_on,64,0,3,,,,,,,,0,,,60,0
124004,note_on,0,0,2,,,,,,,,0,,,68,0
124004,note_on,0,0,2,,,,,,,,0,,,63,0
124004,note_on,64,0,2,,,,,,,,0,,,75,0
124009,set_tempo,18,1,0,,,,,,717017,,,,,,
124020,note_on,0,0,3,,,,,,,,0,,,49,80
124020,note_on,16,0,2,,,,,,,,0,,,68,80
124020,note_on,0,0,3,,,,,,,,0,,,56,80
124020,note_on,0,0,2,,,,,,,,0,,,63,80
124020,note_on,0,0,2,,,,,,,,0,,,75,80
124020,note_on,16,0,3,,,,,,,,0,,,60,80
124030,set_tempo,21,1,0,,,,,,708634,,,,,,
124048,set_tempo,18,1,0,,,,,,700444,,,,,,
124065,set_tempo,17,1,0,,,,,,692441,,,,,,
124083,set_tempo,18,1,0,,,,,,684619,,,,,,
124084,note_on,0,0,3,,,,,,,,0,,,49,0
124084,note_on,64,0,2,,,,,,,,0,,,63,0
124084,note_on,0,0,2,,,,,,,,0,,,68,0
124084,note_on,0,0,2,,,,,,,,0,,,75,0
124084,note_on,0,0,3,,,,,,,,0,,,60,0
124084,note_on,64,0,3,,,,,,,,0,,,56,0
124100,note_on,0,0,2,,,,,,,,0,,,63,80
124100,note_on,0,0,2,,,,,,,,0,,,75,80
124100,note_on,0,0,3,,,,,,,,0,,,56,80
124100,note_on,0,0,3,,,,,,,,0,,,49,80
124100,note_on,16,0,3,,,,,,,,0,,,60,80
124100,note_on,16,0,2,,,,,,,,0,,,68,80
124109,set_tempo,26,1,0,,,,,,669493,,,,,,
124131,set_tempo,22,1,0,,,,,,676972,,,,,,
124153,set_tempo,22,1,0,,,,,,684619,,,,,,
124164,note_on,0,0,1,,,,,,,,0,,,87,0
124164,note_on,64,0,2,,,,,,,,0,,,75,0
124164,note_on,0,0,3,,,,,,,,0,,,60,0
124164,note_on,384,0,1,,,,,,,,0,,,92,0
124164,note_on,384,0,4,,,,,,,,0,,,51,0
124164,note_on,0,0,1,,,,,,,,0,,,75,0
124164,note_on,0,0,2,,,,,,,,0,,,63,0
124164,note_on,0,0,2,,,,,,,,0,,,68,0
124164,note_on,0,0,3,,,,,,,,0,,,49,0
124164,note_on,64,0,3,,,,,,,,0,,,56,0
124164,note_on,0,0,4,,,,,,,,0,,,37,0
124164,note_on,0,0,4,,,,,,,,0,,,44,0
124164,note_on,0,0,4,,,,,,,,0,,,48,0
124164,note_on,0,0,1,,,,,,,,0,,,80,0
124174,set_tempo,21,1,0,,,,,,692441,,,,,,
124180,note_on,16,0,2,,,,,,,,0,,,68,80
124180,note_on,0,0,3,,,,,,,,0,,,60,80
124180,note_on,0,0,2,,,,,,,,0,,,75,80
124180,note_on,16,0,3,,,,,,,,0,,,56,80
124180,note_on,0,0,2,,,,,,,,0,,,63,80
124180,note_on,0,0,3,,,,,,,,0,,,49,80
124196,set_tempo,22,1,0,,,,,,700444,,,,,,
124214,set_tempo,18,1,0,,,,,,708634,,,,,,
124236,set_tempo,22,1,0,,,,,,717017,,,,,,
124244,note_on,0,0,3,,,,,,,,0,,,56,0
124244,note_on,0,0,2,,,,,,,,0,,,75,0
124244,note_on,0,0,2,,,,,,,,0,,,68,0
124244,note_on,0,0,3,,,,,,,,0,,,49,0
124244,note_on,64,0,2,,,,,,,,0,,,63,0
124244,note_on,64,0,3,,,,,,,,0,,,60,0
124257,set_tempo,21,1,0,,,,,,725602,,,,,,
124260,note_on,16,0,2,,,,,,,,0,,,68,80
124260,note_on,0,0,3,,,,,,,,0,,,49,80
124260,note_on,16,0,3,,,,,,,,0,,,56,80
124260,note_on,0,0,3,,,,,,,,0,,,60,80
124260,note_on,0,0,2,,,,,,,,0,,,63,80
124260,note_on,0,0,2,,,,,,,,0,,,75,80
124279,set_tempo,22,1,0,,,,,,734394,,,,,,
124297,set_tempo,18,1,0,,,,,,743402,,,,,,
124318,set_tempo,21,1,0,,,,,,752634,,,,,,
124324,note_on,64,0,2,,,,,,,,0,,,75,0
124324,note_on,0,0,3,,,,,,,,0,,,49,0
124324,note_on,0,0,2,,,,,,,,0,,,63,0
124324,note_on,0,0,2,,,,,,,,0,,,68,0
124324,note_on,64,0,3,,,,,,,,0,,,60,0
124324,note_on,0,0,3,,,,,,,,0,,,56,0
124340,note_on,16,0,2,,,,,,,,0,,,68,80
124340,note_on,0,0,3,,,,,,,,0,,,60,80
124340,note_on,0,0,2,,,,,,,,0,,,63,80
124340,note_on,0,0,3,,,,,,,,0,,,49,80
124340,note_on,0,0,2,,,,,,,,0,,,75,80
124340,set_tempo,22,1,0,,,,,,762098,,,,,,
124340,note_on,16,0,3,,,,,,,,0,,,56,80
124362,set_tempo,22,1,0,,,,,,771803,,,,,,
124384,set_tempo,22,1,0,,,,,,781759,,,,,,
124401,set_tempo,17,1,0,,,,,,791975,,,,,,
124404,note_on,0,0,2,,,,,,,,0,,,68,0
124404,note_on,0,0,3,,,,,,,,0,,,49,0
124404,note_on,0,0,3,,,,,,,,0,,,56,0
124404,note_on,0,0,2,,,,,,,,0,,,75,0
124404,note_on,64,0,3,,,,,,,,0,,,60,0
124404,note_on,64,0,2,,,,,,,,0,,,63,0
124420,note_on,0,0,3,,,,,,,,0,,,49,80
124420,note_on,0,0,2,,,,,,,,0,,,68,80
124420,note_on,16,0,3,,,,,,,,0,,,56,80
124420,note_on,0,0,3,,,,,,,,0,,,60,80
124420,note_on,0,0,2,,,,,,,,0,,,75,80
124420,note_on,16,0,2,,,,,,,,0,,,63,80
124423,set_tempo,22,1,0,,,,,,802461,,,,,,
124445,set_tempo,22,1,0,,,,,,813229,,,,,,
124467,set_tempo,22,1,0,,,,,,824289,,,,,,
124484,note_on,0,0,2,,,,,,,,0,,,75,0
124484,note_on,64,0,3,,,,,,,,0,,,60,0
124484,set_tempo,17,1,0,,,,,,835655,,,,,,
124484,note_on,0,0,2,,,,,,,,0,,,63,0
124484,note_on,0,0,3,,,,,,,,0,,,56,0
124484,note_on,0,0,3,,,,,,,,0,,,49,0
124484,note_on,64,0,2,,,,,,,,0,,,68,0
124493,set_tempo,9,1,0,,,,,,743402,,,,,,
124500,time_signature,7,1,0,1,16,6,8,,,,,,,,
124500,note_on,336,0,1,,,,,,,,0,,,77,80
124515,note_on,351,0,4,,,,,,,,0,,,37,80
124520,note_on,20,0,1,,,,,,,,0,,,80,80
124530,note_on,15,0,4,,,,,,,,0,,,44,80
124535,note_on,15,0,1,,,,,,,,0,,,89,80
124545,note_on,15,0,4,,,,,,,,0,,,49,80
124548,control_change,3,0,4,,,,,,,,0,64,0,,
124555,set_tempo,55,1,0,,,,,,847338,,,,,,
124560,note_on,0,0,4,,,,,,,,0,,,53,80
124560,control_change,12,0,4,,,,,,,,0,64,127,,
124560,note_on,25,0,1,,,,,,,,0,,,92,80
124560,time_signature,5,1,0,1,4,24,8,,,,,,,,
124573,set_tempo,13,1,0,,,,,,835655,,,,,,
124590,set_tempo,17,1,0,,,,,,824289,,,,,,
124608,set_tempo,18,1,0,,,,,,813229,,,,,,
124625,set_tempo,17,1,0,,,,,,802461,,,,,,
124640,note_on,156,0,2,,,,,,,,0,,,68,80
124640,note_on,0,0,3,,,,,,,,0,,,61,80
124640,note_on,0,0,3,,,,,,,,0,,,56,80
124640,note_on,0,0,2,,,,,,,,0,,,77,80
124640,note_on,0,0,2,,,,,,,,0,,,65,80
124640,note_on,156,0,3,,,,,,,,0,,,49,80
124643,set_tempo,18,1,0,,,,,,791975,,,,,,
124660,set_tempo,17,1,0,,,,,,781759,,,,,,
124678,set_tempo,18,1,0,,,,,,771803,,,,,,
124695,set_tempo,17,1,0,,,,,,762098,,,,,,
124704,note_on,0,0,3,,,,,,,,0,,,56,0
124704,note_on,64,0,3,,,,,,,,0,,,61,0
124704,note_on,0,0,3,,,,,,,,0,,,49,0
124704,note_on,64,0,2,,,,,,,,0,,,77,0
124704,note_on,0,0,2,,,,,,,,0,,,65,0
124704,note_on,0,0,2,,,,,,,,0,,,68,0
124713,set_tempo,18,1,0,,,,,,752634,,,,,,
124720,note_on,16,0,3,,,,,,,,0,,,49,80
124720,note_on,0,0,3,,,,,,,,0,,,61,80
124720,note_on,0,0,2,,,,,,,,0,,,65,80
124720,note_on,16,0,2,,,,,,,,0,,,77,80
124720,note_on,0,0,2,,,,,,,,0,,,68,80
124720,note_on,0,0,3,,,,,,,,0,,,56,80
124730,set_tempo,17,1,0,,,,,,743402,,,,,,
124747,set_tempo,17,1,0,,,,,,734394,,,,,,
124765,set_tempo,18,1,0,,,,,,725602,,,,,,
124782,set_tempo,17,1,0,,,,,,717017,,,,,,
124784,note_on,64,0,2,,,,,,,,0,,,65,0
124784,note_on,0,0,2,,,,,,,,0,,,77,0
124784,note_on,0,0,2,,,,,,,,0,,,68,0
124784,note_on,64,0,3,,,,,,,,0,,,56,0
124784,note_on,0,0,3,,,,,,,,0,,,61,0
124784,note_on,0,0,3,,,,,,,,0,,,49,0
124785,note_on,0,0,1,,,,,,,,0,,,89,0
124785,note_on,225,0,4,,,,,,,,0,,,53,0
124785,note_on,0,0,1,,,,,,,,0,,,77,0
124785,note_on,0,0,1,,,,,,,,0,,,80,0
124785,note_on,0,0,4,,,,,,,,0,,,49,0
124785,note_on,0,0,4,,,,,,,,0,,,37,0
124785,note_on,225,0,1,,,,,,,,0,,,92,0
124785,note_on,0,0,4,,,,,,,,0,,,44,0
124800,time_signature,18,1,0,1,16,6,8,,,,,,,,
124800,note_on,15,0,4,,,,,,,,0,,,37,80
124800,note_on,15,0,1,,,,,,,,0,,,78,80
124800,set_tempo,0,1,0,,,,,,676972,,,,,,
124815,note_on,15,0,4,,,,,,,,0,,,46,80
124815,note_on,15,0,1,,,,,,,,0,,,80,80
124830,note_on,15,0,4,,,,,,,,0,,,49,80
124830,note_on,15,0,1,,,,,,,,0,,,90,80
124845,note_on,15,0,4,,,,,,,,0,,,54,80
124852,set_tempo,52,1,0,,,,,,847338,,,,,,
124860,time_signature,8,1,0,2,4,24,8,,,,,,,,
124860,control_change,15,0,4,,,,,,,,0,64,0,,
124861,set_tempo,1,1,0,,,,,,1018157,,,,,,
124866,set_tempo,5,1,0,,,,,,954047,,,,,,
124889,control_change,29,0,4,,,,,,,,0,64,127,,
124896,set_tempo,30,1,0,,,,,,969305,,,,,,
124909,set_tempo,13,1,0,,,,,,954047,,,,,,
124918,set_tempo,9,1,0,,,,,,939261,,,,,,
124931,set_tempo,13,1,0,,,,,,924927,,,,,,
124940,note_on,156,0,3,,,,,,,,0,,,61,80
124940,note_on,0,0,3,,,,,,,,0,,,58,80
124940,note_on,0,0,3,,,,,,,,0,,,49,80
124940,note_on,156,0,2,,,,,,,,0,,,68,80
124940,set_tempo,9,1,0,,,,,,911023,,,,,,
124940,note_on,0,0,2,,,,,,,,0,,,66,80
124940,note_on,0,0,2,,,,,,,,0,,,78,80
124941,note_on,0,0,1,,,,,,,,0,,,80,0
124941,note_on,111,0,1,,,,,,,,0,,,90,0
124941,note_on,0,0,4,,,,,,,,0,,,49,0
124941,note_on,52,0,4,,,,,,,,0,,,54,0
124941,note_on,0,0,4,,,,,,,,0,,,46,0
124941,note_on,0,0,4,,,,,,,,0,,,37,0
124941,note_on,0,0,1,,,,,,,,0,,,78,0
124953,set_tempo,13,1,0,,,,,,897532,,,,,,
124962,set_tempo,9,1,0,,,,,,884434,,,,,,
124975,set_tempo,13,1,0,,,,,,871713,,,,,,
124988,set_tempo,13,1,0,,,,,,859353,,,,,,
124997,set_tempo,9,1,0,,,,,,847338,,,,,,
125004,note_on,64,0,2,,,,,,,,0,,,66,0
125004,note_on,0,0,2,,,,,,,,0,,,78,0
125004,note_on,0,0,2,,,,,,,,0,,,68,0
125010,set_tempo,13,1,0,,,,,,835655,,,,,,
125018,set_tempo,8,1,0,,,,,,824289,,,,,,
125020,note_on,0,0,3,,,,,,,,0,,,61,0
125020,note_on,0,0,3,,,,,,,,0,,,58,80
125020,note_on,16,0,2,,,,,,,,0,,,78,80
125020,note_on,0,0,2,,,,,,,,0,,,66,80
125020,note_on,0,0,3,,,,,,,,0,,,49,80
125020,note_on,0,0,2,,,,,,,,0,,,68,80
125020,note_on,80,0,3,,,,,,,,0,,,49,0
125020,note_on,0,0,3,,,,,,,,0,,,61,80
125020,note_on,0,0,3,,,,,,,,0,,,58,0
125031,set_tempo,13,1,0,,,,,,813229,,,,,,
125040,set_tempo,9,1,0,,,,,,802461,,,,,,
125053,set_tempo,13,1,0,,,,,,791975,,,,,,
125062,set_tempo,9,1,0,,,,,,781759,,,,,,
125075,set_tempo,13,1,0,,,,,,771803,,,,,,
125084,note_on,64,0,2,,,,,,,,0,,,68,0
125084,note_on,0,0,2,,,,,,,,0,,,78,0
125084,set_tempo,9,1,0,,,,,,762098,,,,,,
125084,note_on,0,0,2,,,,,,,,0,,,66,0
125097,set_tempo,13,1,0,,,,,,752634,,,,,,
125100,note_on,0,0,3,,,,,,,,0,,,49,80
125100,note_on,0,0,2,,,,,,,,0,,,66,80
125100,note_on,16,0,2,,,,,,,,0,,,68,80
125100,note_on,0,0,3,,,,,,,,0,,,49,0
125100,note_on,0,0,2,,,,,,,,0,,,78,80
125100,note_on,0,0,3,,,,,,,,0,,,61,80
125100,note_on,0,0,3,,,,,,,,0,,,58,80
125100,note_on,0,0,3,,,,,,,,0,,,58,0
125100,note_on,80,0,3,,,,,,,,0,,,61,0
125110,set_tempo,13,1,0,,,,,,743402,,,,,,
125119,set_tempo,9,1,0,,,,,,734394,,,,,,
125132,set_tempo,13,1,0,,,,,,725602,,,,,,
125141,set_tempo,9,1,0,,,,,,717017,,,,,,
125154,set_tempo,13,1,0,,,,,,708634,,,,,,
125162,set_tempo,8,1,0,,,,,,700444,,,,,,
125164,note_on,0,0,2,,,,,,,,0,,,78,0
125164,note_on,0,0,2,,,,,,,,0,,,68,0
125164,note_on,64,0,2,,,,,,,,0,,,66,0
125175,set_tempo,13,1,0,,,,,,692441,,,,,,
125180,note_on,0,0,3,,,,,,,,0,,,49,80
125180,note_on,0,0,3,,,,,,,,0,,,49,0
125180,note_on,80,0,3,,,,,,,,0,,,61,0
125180,note_on,0,0,3,,,,,,,,0,,,58,0
125180,note_on,0,0,3,,,,,,,,0,,,61,80
125180,note_on,0,0,3,,,,,,,,0,,,58,80
125180,note_on,0,0,2,,,,,,,,0,,,66,80
125180,note_on,0,0,2,,,,,,,,0,,,78,80
125180,note_on,16,0,2,,,,,,,,0,,,68,80
125184,set_tempo,9,1,0,,,,,,684619,,,,,,
125197,set_tempo,13,1,0,,,,,,676972,,,,,,
125206,set_tempo,9,1,0,,,,,,669493,,,,,,
125219,set_tempo,13,1,0,,,,,,662179,,,,,,
125232,set_tempo,13,1,0,,,,,,655022,,,,,,
125241,set_tempo,9,1,0,,,,,,648018,,,,,,
125244,note_on,0,0,2,,,,,,,,0,,,68,0
125244,note_on,64,0,2,,,,,,,,0,,,78,0
125244,note_on,0,0,2,,,,,,,,0,,,66,0
125254,set_tempo,13,1,0,,,,,,641163,,,,,,
125260,note_on,80,0,3,,,,,,,,0,,,58,0
125260,note_on,0,0,2,,,,,,,,0,,,68,80
125260,note_on,16,0,2,,,,,,,,0,,,66,80
125260,note_on,0,0,3,,,,,,,,0,,,61,80
125260,note_on,0,0,2,,,,,,,,0,,,78,80
125260,note_on,0,0,3,,,,,,,,0,,,61,0
125260,note_on,0,0,3,,,,,,,,0,,,49,0
125260,note_on,0,0,3,,,,,,,,0,,,58,80
125260,note_on,0,0,3,,,,,,,,0,,,49,80
125263,set_tempo,9,1,0,,,,,,634451,,,,,,
125276,set_tempo,13,1,0,,,,,,627878,,,,,,
125285,set_tempo,9,1,0,,,,,,621440,,,,,,
125298,set_tempo,13,1,0,,,,,,615132,,,,,,
125306,set_tempo,8,1,0,,,,,,608952,,,,,,
125319,set_tempo,13,1,0,,,,,,602894,,,,,,
125324,note_on,0,0,2,,,,,,,,0,,,66,0
125324,note_on,64,0,2,,,,,,,,0,,,68,0
125324,note_on,0,0,2,,,,,,,,0,,,78,0
125328,set_tempo,9,1,0,,,,,,596956,,,,,,
125332,set_tempo,4,1,0,,,,,,615132,,,,,,
125340,note_on,399,0,1,,,,,,,,0,,,78,80
125340,note_on,0,0,3,,,,,,,,0,,,58,0
125340,time_signature,8,1,0,1,16,6,8,,,,,,,,
125340,note_on,80,0,3,,,,,,,,0,,,61,0
125340,note_on,399,0,4,,,,,,,,0,,,37,80
125340,note_on,0,0,3,,,,,,,,0,,,49,0
125354,control_change,14,0,4,,,,,,,,0,64,0,,
125355,note_on,15,0,1,,,,,,,,0,,,82,80
125355,note_on,1,0,4,,,,,,,,0,,,48,80
125366,control_change,11,0,4,,,,,,,,0,64,127,,
125370,note_on,4,0,4,,,,,,,,0,,,51,80
125370,note_on,15,0,1,,,,,,,,0,,,90,80
125385,note_on,15,0,4,,,,,,,,0,,,58,80
125385,note_on,15,0,1,,,,,,,,0,,,94,80
125398,set_tempo,58,1,0,,,,,,684619,,,,,,
125400,time_signature,2,1,0,2,4,24,8,,,,,,,,
125480,note_on,0,0,2,,,,,,,,0,,,78,80
125480,note_on,140,0,3,,,,,,,,0,,,49,80
125480,note_on,156,0,2,,,,,,,,0,,,68,80
125480,note_on,0,0,3,,,,,,,,0,,,60,80
125480,note_on,0,0,3,,,,,,,,0,,,63,80
125480,note_on,0,0,2,,,,,,,,0,,,82,80
125481,note_on,0,0,4,,,,,,,,0,,,48,0
125481,note_on,96,0,1,,,,,,,,0,,,94,0
125481,note_on,0,0,4,,,,,,,,0,,,51,0
125481,note_on,0,0,1,,,,,,,,0,,,90,0
125481,note_on,0,0,1,,,,,,,,0,,,82,0
125481,note_on,96,0,4,,,,,,,,0,,,58,0
125481,note_on,0,0,1,,,,,,,,0,,,78,0
125481,note_on,0,0,4,,,,,,,,0,,,37,0
125544,note_on,0,0,3,,,,,,,,0,,,60,0
125544,note_on,0,0,2,,,,,,,,0,,,82,0
125544,note_on,0,0,3,,,,,,,,0,,,49,0
125544,note_on,64,0,2,,,,,,,,0,,,78,0
125544,note_on,64,0,3,,,,,,,,0,,,63,0
125544,note_on,0,0,2,,,,,,,,0,,,68,0
125560,note_on,0,0,2,,,,,,,,0,,,78,80
125560,note_on,0,0,3,,,,,,,,0,,,49,80
125560,note_on,0,0,3,,,,,,,,0,,,60,80
125560,note_on,16,0,2,,,,,,,,0,,,82,80
125560,note_on,16,0,3,,,,,,,,0,,,63,80
125560,note_on,0,0,2,,,,,,,,0,,,68,80
125624,note_on,0,0,2,,,,,,,,0,,,82,0
125624,note_on,0,0,3,,,,,,,,0,,,60,0
125624,note_on,0,0,3,,,,,,,,0,,,63,0
125624,note_on,64,0,3,,,,,,,,0,,,49,0
125624,note_on,0,0,2,,,,,,,,0,,,78,0
125624,note_on,64,0,2,,,,,,,,0,,,68,0
125640,note_on,16,0,3,,,,,,,,0,,,63,80
125640,note_on,0,0,2,,,,,,,,0,,,68,80
125640,note_on,0,0,2,,,,,,,,0,,,82,80
125640,note_on,0,0,3,,,,,,,,0,,,60,80
125640,note_on,0,0,3,,,,,,,,0,,,49,80
125640,note_on,16,0,2,,,,,,,,0,,,78,80
125704,note_on,0,0,2,,,,,,,,0,,,78,0
125704,note_on,0,0,2,,,,,,,,0,,,68,0
125704,note_on,64,0,2,,,,,,,,0,,,82,0
125704,note_on,64,0,3,,,,,,,,0,,,49,0
125704,note_on,0,0,3,,,,,,,,0,,,63,0
125704,note_on,0,0,3,,,,,,,,0,,,60,0
125720,note_on,16,0,3,,,,,,,,0,,,63,80
125720,note_on,0,0,2,,,,,,,,0,,,78,80
125720,note_on,0,0,3,,,,,,,,0,,,60,80
125720,note_on,0,0,2,,,,,,,,0,,,82,80
125720,note_on,16,0,2,,,,,,,,0,,,68,80
125720,note_on,0,0,3,,,,,,,,0,,,49,80
125784,note_on,0,0,3,,,,,,,,0,,,63,0
125784,note_on,0,0,3,,,,,,,,0,,,60,0
125784,note_on,64,0,3,,,,,,,,0,,,49,0
125784,note_on,0,0,2,,,,,,,,0,,,68,0
125784,note_on,0,0,2,,,,,,,,0,,,78,0
125784,note_on,64,0,2,,,,,,,,0,,,82,0
125800,note_on,0,0,2,,,,,,,,0,,,80,80
125800,note_on,16,0,3,,,,,,,,0,,,56,80
125800,note_on,16,0,2,,,,,,,,0,,,92,80
125864,note_on,0,0,2,,,,,,,,0,,,92,0
125864,note_on,64,0,2,,,,,,,,0,,,80,0
125864,note_on,64,0,3,,,,,,,,0,,,56,0
125880,time_signature,480,1,0,1,16,6,8,,,,,,,,
125880,note_on,399,0,1,,,,,,,,0,,,77,80
125880,note_on,399,0,4,,,,,,,,0,,,37,80
125890,note_on,10,0,4,,,,,,,,0,,,44,80
125895,note_on,15,0,1,,,,,,,,0,,,80,80
125900,note_on,10,0,4,,,,,,,,0,,,49,80
125903,control_change,3,0,4,,,,,,,,0,64,0,,
125910,note_on,15,0,1,,,,,,,,0,,,89,80
125910,note_on,7,0,4,,,,,,,,0,,,53,80
125939,set_tempo,59,1,0,,,,,,1053556,,,,,,
125940,control_change,30,0,4,,,,,,,,0,64,127,,
125940,time_signature,1,1,0,4,4,24,8,,,,,,,,
125948,set_tempo,8,1,0,,,,,,1035554,,,,,,
125957,set_tempo,9,1,0,,,,,,1018157,,,,,,
125966,set_tempo,9,1,0,,,,,,1001335,,,,,,
125974,set_tempo,8,1,0,,,,,,985060,,,,,,
125979,set_tempo,5,1,0,,,,,,969305,,,,,,
125987,set_tempo,8,1,0,,,,,,954047,,,,,,
125996,set_tempo,9,1,0,,,,,,939261,,,,,,
126005,set_tempo,9,1,0,,,,,,924927,,,,,,
126006,note_on,0,0,4,,,,,,,,0,,,37,0
126006,note_on,0,0,1,,,,,,,,0,,,80,0
126006,note_on,0,0,4,,,,,,,,0,,,44,0
126006,note_on,96,0,1,,,,,,,,0,,,89,0
126006,note_on,0,0,4,,,,,,,,0,,,49,0
126006,note_on,66,0,4,,,,,,,,0,,,53,0
126006,note_on,0,0,1,,,,,,,,0,,,77,0
126014,set_tempo,9,1,0,,,,,,911023,,,,,,
126018,set_tempo,4,1,0,,,,,,897532,,,,,,
126020,note_on,0,0,3,,,,,,,,0,,,61,72
126020,note_on,0,0,1,,,,,,,,0,,,65,80
126020,note_on,14,0,1,,,,,,,,0,,,68,80
126020,note_on,156,0,3,,,,,,,,0,,,49,72
126020,note_on,0,0,3,,,,,,,,0,,,56,72
126020,note_on,0,0,1,,,,,,,,0,,,77,80
126027,set_tempo,9,1,0,,,,,,884434,,,,,,
126035,set_tempo,8,1,0,,,,,,871713,,,,,,
126044,set_tempo,9,1,0,,,,,,859353,,,,,,
126049,set_tempo,5,1,0,,,,,,847338,,,,,,
126057,set_tempo,8,1,0,,,,,,835655,,,,,,
126066,set_tempo,9,1,0,,,,,,824289,,,,,,
126075,set_tempo,9,1,0,,,,,,813229,,,,,,
126083,set_tempo,8,1,0,,,,,,802461,,,,,,
126084,note_on,0,0,1,,,,,,,,0,,,68,0
126084,note_on,0,0,1,,,,,,,,0,,,65,0
126084,note_on,64,0,3,,,,,,,,0,,,61,0
126084,note_on,64,0,1,,,,,,,,0,,,77,0
126084,note_on,0,0,3,,,,,,,,0,,,49,0
126084,note_on,0,0,3,,,,,,,,0,,,56,0
126088,set_tempo,5,1,0,,,,,,791975,,,,,,
126097,set_tempo,9,1,0,,,,,,781759,,,,,,
126100,note_on,0,0,3,,,,,,,,0,,,49,72
126100,note_on,16,0,3,,,,,,,,0,,,56,72
126100,note_on,16,0,1,,,,,,,,0,,,65,80
126100,note_on,0,0,3,,,,,,,,0,,,61,72
126100,note_on,0,0,1,,,,,,,,0,,,68,80
126100,note_on,0,0,1,,,,,,,,0,,,77,80
126105,set_tempo,8,1,0,,,,,,771803,,,,,,
126114,set_tempo,9,1,0,,,,,,762098,,,,,,
126118,set_tempo,4,1,0,,,,,,752634,,,,,,
126127,set_tempo,9,1,0,,,,,,743402,,,,,,
126136,set_tempo,9,1,0,,,,,,734394,,,,,,
126145,set_tempo,9,1,0,,,,,,725602,,,,,,
126153,set_tempo,8,1,0,,,,,,717017,,,,,,
126158,set_tempo,5,1,0,,,,,,708634,,,,,,
126164,note_on,64,0,1,,,,,,,,0,,,77,0
126164,note_on,0,0,1,,,,,,,,0,,,68,0
126164,note_on,0,0,1,,,,,,,,0,,,65,0
126164,note_on,0,0,3,,,,,,,,0,,,61,0
126164,note_on,64,0,3,,,,,,,,0,,,49,0
126164,note_on,0,0,3,,,,,,,,0,,,56,0
126166,set_tempo,8,1,0,,,,,,700444,,,,,,
126175,set_tempo,9,1,0,,,,,,692441,,,,,,
126180,note_on,0,0,3,,,,,,,,0,,,56,72
126180,note_on,0,0,1,,,,,,,,0,,,77,80
126180,note_on,16,0,3,,,,,,,,0,,,61,72
126180,note_on,0,0,3,,,,,,,,0,,,49,72
126180,note_on,0,0,1,,,,,,,,0,,,65,80
126180,note_on,16,0,1,,,,,,,,0,,,68,80
126184,set_tempo,9,1,0,,,,,,684619,,,,,,
126188,set_tempo,4,1,0,,,,,,676972,,,,,,
126244,note_on,64,0,3,,,,,,,,0,,,49,0
126244,note_on,0,0,3,,,,,,,,0,,,56,0
126244,note_on,0,0,3,,,,,,,,0,,,61,0
126244,note_on,0,0,1,,,,,,,,0,,,77,0
126244,note_on,64,0,1,,,,,,,,0,,,65,0
126244,note_on,0,0,1,,,,,,,,0,,,68,0
126260,note_on,0,0,3,,,,,,,,0,,,61,72
126260,note_on,16,0,1,,,,,,,,0,,,68,80
126260,note_on,16,0,3,,,,,,,,0,,,49,72
126260,note_on,0,0,3,,,,,,,,0,,,56,72
126260,note_on,0,0,1,,,,,,,,0,,,77,80
126260,note_on,0,0,1,,,,,,,,0,,,65,80
126324,note_on,0,0,3,,,,,,,,0,,,49,0
126324,note_on,0,0,3,,,,,,,,0,,,61,0
126324,note_on,0,0,1,,,,,,,,0,,,65,0
126324,note_on,0,0,1,,,,,,,,0,,,68,0
126324,note_on,64,0,3,,,,,,,,0,,,56,0
126324,note_on,64,0,1,,,,,,,,0,,,77,0
126340,note_on,0,0,3,,,,,,,,0,,,49,72
126340,note_on,0,0,1,,,,,,,,0,,,65,80
126340,note_on,0,0,1,,,,,,,,0,,,77,80
126340,note_on,0,0,3,,,,,,,,0,,,56,72
126340,note_on,16,0,3,,,,,,,,0,,,61,72
126340,note_on,16,0,1,,,,,,,,0,,,68,80
126404,note_on,0,0,3,,,,,,,,0,,,56,0
126404,note_on,0,0,3,,,,,,,,0,,,61,0
126404,note_on,64,0,3,,,,,,,,0,,,49,0
126404,note_on,0,0,1,,,,,,,,0,,,68,0
126404,note_on,0,0,1,,,,,,,,0,,,77,0
126404,note_on,64,0,1,,,,,,,,0,,,65,0
126420,note_on,16,0,1,,,,,,,,0,,,68,80
126420,note_on,0,0,1,,,,,,,,0,,,77,80
126420,note_on,16,0,3,,,,,,,,0,,,61,72
126420,note_on,0,0,3,,,,,,,,0,,,56,72
126420,note_on,0,0,3,,,,,,,,0,,,49,72
126420,note_on,0,0,1,,,,,,,,0,,,65,80
126484,note_on,0,0,3,,,,,,,,0,,,56,0
126484,note_on,0,0,1,,,,,,,,0,,,65,0
126484,note_on,64,0,1,,,,,,,,0,,,77,0
126484,note_on,0,0,1,,,,,,,,0,,,68,0
126484,note_on,64,0,3,,,,,,,,0,,,49,0
126484,note_on,0,0,3,,,,,,,,0,,,61,0
126500,note_on,16,0,3,,,,,,,,0,,,56,72
126500,note_on,0,0,1,,,,,,,,0,,,68,80
126500,note_on,0,0,1,,,,,,,,0,,,65,80
126500,note_on,0,0,3,,,,,,,,0,,,49,72
126500,note_on,0,0,3,,,,,,,,0,,,61,72
126500,note_on,16,0,1,,,,,,,,0,,,77,80
126564,note_on,64,0,3,,,,,,,,0,,,61,0
126564,note_on,0,0,3,,,,,,,,0,,,49,0
126564,note_on,64,0,1,,,,,,,,0,,,68,0
126564,note_on,0,0,3,,,,,,,,0,,,56,0
126564,note_on,0,0,1,,,,,,,,0,,,65,0
126564,note_on,0,0,1,,,,,,,,0,,,77,0
126580,note_on,0,0,1,,,,,,,,0,,,65,80
126580,note_on,16,0,3,,,,,,,,0,,,56,72
126580,note_on,0,0,1,,,,,,,,0,,,77,80
126580,note_on,16,0,1,,,,,,,,0,,,68,80
126580,note_on,0,0,3,,,,,,,,0,,,61,72
126580,note_on,0,0,3,,,,,,,,0,,,49,72
126644,note_on,0,0,3,,,,,,,,0,,,56,0
126644,note_on,0,0,3,,,,,,,,0,,,49,0
126644,note_on,64,0,3,,,,,,,,0,,,61,0
126644,note_on,0,0,1,,,,,,,,0,,,68,0
126644,note_on,0,0,1,,,,,,,,0,,,77,0
126644,note_on,64,0,1,,,,,,,,0,,,65,0
126645,control_change,639,0,4,,,,,,,,0,64,0,,
126660,control_change,15,0,4,,,,,,,,0,64,127,,
126660,note_on,0,0,3,,,,,,,,0,,,44,72
126660,note_on,0,0,1,,,,,,,,0,,,77,80
126660,note_on,0,0,3,,,,,,,,0,,,49,72
126660,note_on,16,0,3,,,,,,,,0,,,37,72
126660,note_on,16,0,1,,,,,,,,0,,,89,80
126660,note_on,0,0,1,,,,,,,,0,,,80,80
126724,note_on,0,0,3,,,,,,,,0,,,37,0
126724,note_on,64,0,1,,,,,,,,0,,,80,0
126724,note_on,0,0,3,,,,,,,,0,,,44,0
126724,note_on,0,0,1,,,,,,,,0,,,77,0
126724,note_on,0,0,1,,,,,,,,0,,,89,0
126724,note_on,64,0,3,,,,,,,,0,,,49,0
126740,note_on,0,0,3,,,,,,,,0,,,56,72
126740,note_on,0,0,3,,,,,,,,0,,,61,72
126740,note_on,0,0,1,,,,,,,,0,,,68,80
126740,note_on,0,0,1,,,,,,,,0,,,77,80
126740,note_on,16,0,3,,,,,,,,0,,,49,72
126740,note_on,16,0,1,,,,,,,,0,,,65,80
126804,note_on,0,0,1,,,,,,,,0,,,68,0
126804,note_on,0,0,1,,,,,,,,0,,,65,0
126804,note_on,0,0,3,,,,,,,,0,,,61,0
126804,note_on,0,0,3,,,,,,,,0,,,49,0
126804,note_on,64,0,3,,,,,,,,0,,,56,0
126804,note_on,64,0,1,,,,,,,,0,,,77,0
126820,note_on,0,0,1,,,,,,,,0,,,68,80
126820,note_on,0,0,3,,,,,,,,0,,,49,72
126820,note_on,16,0,1,,,,,,,,0,,,65,80
126820,note_on,16,0,3,,,,,,,,0,,,61,72
126820,note_on,0,0,3,,,,,,,,0,,,56,72
126820,note_on,0,0,1,,,,,,,,0,,,77,80
126884,note_on,64,0,3,,,,,,,,0,,,49,0
126884,note_on,0,0,1,,,,,,,,0,,,65,0
126884,note_on,0,0,1,,,,,,,,0,,,68,0
126884,note_on,64,0,1,,,,,,,,0,,,77,0
126884,note_on,0,0,3,,,,,,,,0,,,61,0
126884,note_on,0,0,3,,,,,,,,0,,,56,0
126890,set_tempo,702,1,0,,,,,,684619,,,,,,
126900,note_on,0,0,4,,,,,,,,0,,,49,80
126900,note_on,16,0,1,,,,,,,,0,,,89,80
126900,note_on,0,0,4,,,,,,,,0,,,44,80
126900,note_on,0,0,4,,,,,,,,0,,,37,80
126900,note_on,0,0,1,,,,,,,,0,,,80,80
126900,control_change,240,0,4,,,,,,,,0,64,0,,
126900,note_on,0,0,1,,,,,,,,0,,,77,80
126921,control_change,21,0,4,,,,,,,,0,64,127,,
126964,note_on,43,0,4,,,,,,,,0,,,37,0
126964,note_on,64,0,1,,,,,,,,0,,,77,0
126964,note_on,0,0,1,,,,,,,,0,,,80,0
126964,note_on,0,0,4,,,,,,,,0,,,44,0
126964,note_on,0,0,1,,,,,,,,0,,,89,0
126964,note_on,0,0,4,,,,,,,,0,,,49,0
126980,note_on,0,0,4,,,,,,,,0,,,49,80
126980,note_on,0,0,4,,,,,,,,0,,,56,80
126980,note_on,16,0,1,,,,,,,,0,,,77,80
126980,note_on,0,0,1,,,,,,,,0,,,65,80
126980,note_on,0,0,1,,,,,,,,0,,,68,80
126980,note_on,16,0,4,,,,,,,,0,,,61,80
127044,note_on,64,0,4,,,,,,,,0,,,56,0
127044,note_on,0,0,1,,,,,,,,0,,,77,0
127044,note_on,0,0,4,,,,,,,,0,,,49,0
127044,note_on,0,0,4,,,,,,,,0,,,61,0
127044,note_on,64,0,1,,,,,,,,0,,,68,0
127044,note_on,0,0,1,,,,,,,,0,,,65,0
127060,note_on,0,0,4,,,,,,,,0,,,49,80
127060,note_on,16,0,4,,,,,,,,0,,,61,80
127060,note_on,16,0,1,,,,,,,,0,,,65,80
127060,note_on,0,0,1,,,,,,,,0,,,77,80
127060,note_on,0,0,1,,,,,,,,0,,,68,80
127060,note_on,0,0,4,,,,,,,,0,,,56,80
127124,note_on,0,0,4,,,,,,,,0,,,49,0
127124,note_on,64,0,1,,,,,,,,0,,,68,0
127124,note_on,0,0,1,,,,,,,,0,,,77,0
127124,note_on,64,0,4,,,,,,,,0,,,56,0
127124,note_on,0,0,4,,,,,,,,0,,,61,0
127124,note_on,0,0,1,,,,,,,,0,,,65,0
127137,control_change,13,0,4,,,,,,,,0,64,0,,
127140,note_on,16,0,1,,,,,,,,0,,,89,80
127140,note_on,0,0,4,,,,,,,,0,,,37,80
127140,note_on,3,0,4,,,,,,,,0,,,49,80
127140,note_on,0,0,4,,,,,,,,0,,,44,80
127140,note_on,0,0,1,,,,,,,,0,,,80,80
127140,note_on,0,0,1,,,,,,,,0,,,77,80
127161,control_change,21,0,4,,,,,,,,0,64,127,,
127204,note_on,0,0,1,,,,,,,,0,,,89,0
127204,note_on,0,0,4,,,,,,,,0,,,37,0
127204,note_on,0,0,4,,,,,,,,0,,,49,0
127204,note_on,64,0,1,,,,,,,,0,,,77,0
127204,note_on,0,0,1,,,,,,,,0,,,80,0
127204,note_on,43,0,4,,,,,,,,0,,,44,0
127220,note_on,16,0,4,,,,,,,,0,,,61,80
127220,note_on,16,0,1,,,,,,,,0,,,65,80
127220,note_on,0,0,4,,,,,,,,0,,,49,80
127220,note_on,0,0,4,,,,,,,,0,,,56,80
127220,note_on,0,0,1,,,,,,,,0,,,68,80
127220,note_on,0,0,1,,,,,,,,0,,,77,80
127284,note_on,64,0,1,,,,,,,,0,,,68,0
127284,note_on,0,0,1,,,,,,,,0,,,65,0
127284,note_on,0,0,4,,,,,,,,0,,,61,0
127284,note_on,0,0,4,,,,,,,,0,,,56,0
127284,note_on,0,0,1,,,,,,,,0,,,77,0
127284,note_on,64,0,4,,,,,,,,0,,,49,0
127300,note_on,16,0,1,,,,,,,,0,,,77,80
127300,note_on,0,0,4,,,,,,,,0,,,56,80
127300,note_on,0,0,4,,,,,,,,0,,,49,80
127300,note_on,0,0,1,,,,,,,,0,,,68,80
127300,note_on,16,0,4,,,,,,,,0,,,61,80
127300,note_on,0,0,1,,,,,,,,0,,,65,80
127364,note_on,64,0,1,,,,,,,,0,,,65,0
127364,note_on,0,0,4,,,,,,,,0,,,61,0
127364,note_on,0,0,1,,,,,,,,0,,,77,0
127364,note_on,0,0,4,,,,,,,,0,,,49,0
127364,note_on,64,0,4,,,,,,,,0,,,56,0
127364,note_on,0,0,1,,,,,,,,0,,,68,0
127380,note_on,0,0,1,,,,,,,,0,,,80,80
127380,note_on,16,0,1,,,,,,,,0,,,85,80
127380,note_on,0,0,4,,,,,,,,0,,,41,80
127380,note_on,0,0,4,,,,,,,,0,,,34,80
127380,note_on,0,0,1,,,,,,,,0,,,92,80
127380,note_on,16,0,4,,,,,,,,0,,,46,80
127383,control_change,3,0,4,,,,,,,,0,64,0,,
127413,control_change,30,0,4,,,,,,,,0,64,127,,
127444,note_on,0,0,4,,,,,,,,0,,,46,0
127444,note_on,31,0,4,,,,,,,,0,,,34,0
127444,note_on,64,0,1,,,,,,,,0,,,80,0
127444,note_on,0,0,4,,,,,,,,0,,,41,0
127444,note_on,0,0,1,,,,,,,,0,,,85,0
127444,note_on,0,0,1,,,,,,,,0,,,92,0
127460,note_on,16,0,4,,,,,,,,0,,,46,80
127460,note_on,0,0,1,,,,,,,,0,,,68,80
127460,note_on,16,0,1,,,,,,,,0,,,80,80
127460,note_on,0,0,1,,,,,,,,0,,,73,80
127460,note_on,0,0,4,,,,,,,,0,,,58,80
127460,note_on,0,0,4,,,,,,,,0,,,53,80
127524,note_on,0,0,1,,,,,,,,0,,,73,0
127524,note_on,0,0,1,,,,,,,,0,,,80,0
127524,note_on,0,0,4,,,,,,,,0,,,53,0
127524,note_on,64,0,1,,,,,,,,0,,,68,0
127524,note_on,64,0,4,,,,,,,,0,,,58,0
127524,note_on,0,0,4,,,,,,,,0,,,46,0
127540,note_on,16,0,1,,,,,,,,0,,,68,80
127540,note_on,0,0,1,,,,,,,,0,,,73,80
127540,note_on,0,0,1,,,,,,,,0,,,80,80
127540,note_on,16,0,4,,,,,,,,0,,,53,80
127540,note_on,0,0,4,,,,,,,,0,,,58,80
127540,note_on,0,0,4,,,,,,,,0,,,46,80
127604,note_on,0,0,4,,,,,,,,0,,,53,0
127604,note_on,64,0,4,,,,,,,,0,,,58,0
127604,note_on,0,0,4,,,,,,,,0,,,46,0
127604,note_on,0,0,1,,,,,,,,0,,,68,0
127604,note_on,64,0,1,,,,,,,,0,,,80,0
127604,note_on,0,0,1,,,,,,,,0,,,73,0
127617,control_change,13,0,4,,,,,,,,0,64,0,,
127620,note_on,3,0,4,,,,,,,,0,,,34,80
127620,note_on,0,0,1,,,,,,,,0,,,85,80
127620,note_on,16,0,1,,,,,,,,0,,,91,80
127620,note_on,0,0,1,,,,,,,,0,,,79,80
127620,note_on,0,0,4,,,,,,,,0,,,41,80
127620,note_on,0,0,4,,,,,,,,0,,,46,80
127632,control_change,12,0,4,,,,,,,,0,64,127,,
127684,note_on,64,0,1,,,,,,,,0,,,79,0
127684,note_on,0,0,1,,,,,,,,0,,,85,0
127684,note_on,0,0,1,,,,,,,,0,,,91,0
127684,note_on,52,0,4,,,,,,,,0,,,46,0
127684,note_on,0,0,4,,,,,,,,0,,,34,0
127684,note_on,0,0,4,,,,,,,,0,,,41,0
127700,note_on,0,0,1,,,,,,,,0,,,79,80
127700,note_on,0,0,1,,,,,,,,0,,,67,80
127700,note_on,16,0,4,,,,,,,,0,,,46,80
127700,note_on,16,0,1,,,,,,,,0,,,73,80
127700,note_on,0,0,4,,,,,,,,0,,,53,80
127700,note_on,0,0,4,,,,,,,,0,,,58,80
127764,note_on,0,0,1,,,,,,,,0,,,67,0
127764,note_on,0,0,4,,,,,,,,0,,,58,0
127764,note_on,0,0,1,,,,,,,,0,,,73,0
127764,note_on,64,0,4,,,,,,,,0,,,53,0
127764,note_on,0,0,4,,,,,,,,0,,,46,0
127764,note_on,64,0,1,,,,,,,,0,,,79,0
127780,note_on,0,0,1,,,,,,,,0,,,73,80
127780,note_on,0,0,4,,,,,,,,0,,,58,80
127780,note_on,0,0,1,,,,,,,,0,,,67,80
127780,note_on,16,0,4,,,,,,,,0,,,53,80
127780,note_on,0,0,4,,,,,,,,0,,,46,80
127780,note_on,16,0,1,,,,,,,,0,,,79,80
127844,note_on,0,0,1,,,,,,,,0,,,79,0
127844,note_on,0,0,1,,,,,,,,0,,,73,0
127844,note_on,64,0,4,,,,,,,,0,,,58,0
127844,note_on,0,0,4,,,,,,,,0,,,53,0
127844,note_on,64,0,1,,,,,,,,0,,,67,0
127844,note_on,0,0,4,,,,,,,,0,,,46,0
127853,set_tempo,963,1,0,,,,,,669493,,,,,,
127860,note_on,0,0,4,,,,,,,,0,,,48,80
127860,note_on,16,0,4,,,,,,,,0,,,40,80
127860,note_on,0,0,4,,,,,,,,0,,,36,80
127860,note_on,0,0,4,,,,,,,,0,,,43,80
127860,control_change,0,0,4,,,,,,,,0,64,0,,
127860,note_on,0,0,1,,,,,,,,0,,,76,80
127860,note_on,0,0,1,,,,,,,,0,,,84,80
127860,note_on,16,0,1,,,,,,,,0,,,72,80
127879,set_tempo,26,1,0,,,,,,662179,,,,,,
127884,control_change,24,0,4,,,,,,,,0,64,127,,
127901,set_tempo,22,1,0,,,,,,655022,,,,,,
127922,set_tempo,21,1,0,,,,,,648018,,,,,,
127940,note_on,0,0,3,,,,,,,,0,,,52,72
127940,note_on,0,0,3,,,,,,,,0,,,48,72
127940,note_on,0,0,2,,,,,,,,0,,,72,72
127940,note_on,0,0,2,,,,,,,,0,,,60,72
127940,note_on,1056,0,3,,,,,,,,0,,,55,72
127940,note_on,2076,0,2,,,,,,,,0,,,64,72
127944,set_tempo,22,1,0,,,,,,641163,,,,,,
127966,set_tempo,22,1,0,,,,,,634451,,,,,,
127992,set_tempo,26,1,0,,,,,,627878,,,,,,
128004,note_on,0,0,3,,,,,,,,0,,,48,0
128004,note_on,64,0,3,,,,,,,,0,,,52,0
128004,note_on,0,0,3,,,,,,,,0,,,55,0
128014,set_tempo,22,1,0,,,,,,621440,,,,,,
128020,note_on,0,0,2,,,,,,,,0,,,72,0
128020,note_on,0,0,2,,,,,,,,0,,,65,72
128020,note_on,16,0,3,,,,,,,,0,,,48,72
128020,note_on,0,0,2,,,,,,,,0,,,64,0
128020,note_on,0,0,2,,,,,,,,0,,,61,72
128020,note_on,0,0,3,,,,,,,,0,,,56,72
128020,note_on,0,0,2,,,,,,,,0,,,73,72
128020,note_on,80,0,2,,,,,,,,0,,,60,0
128020,note_on,0,0,3,,,,,,,,0,,,53,72
128036,set_tempo,22,1,0,,,,,,615132,,,,,,
128058,set_tempo,22,1,0,,,,,,608952,,,,,,
128079,set_tempo,21,1,0,,,,,,602894,,,,,,
128084,note_on,0,0,3,,,,,,,,0,,,48,0
128084,note_on,0,0,3,,,,,,,,0,,,56,0
128084,note_on,64,0,3,,,,,,,,0,,,53,0
128100,note_on,0,0,2,,,,,,,,0,,,74,72
128100,note_on,0,0,2,,,,,,,,0,,,73,0
128100,note_on,0,0,2,,,,,,,,0,,,66,72
128100,note_on,0,0,2,,,,,,,,0,,,62,72
128100,note_on,80,0,2,,,,,,,,0,,,65,0
128100,note_on,16,0,3,,,,,,,,0,,,48,72
128100,note_on,0,0,3,,,,,,,,0,,,54,72
128100,note_on,0,0,3,,,,,,,,0,,,57,72
128100,note_on,0,0,2,,,,,,,,0,,,61,0
128106,set_tempo,27,1,0,,,,,,596956,,,,,,
128127,set_tempo,21,1,0,,,,,,591133,,,,,,
128149,set_tempo,22,1,0,,,,,,585423,,,,,,
128164,note_on,0,0,3,,,,,,,,0,,,48,0
128164,note_on,0,0,3,,,,,,,,0,,,57,0
128164,note_on,64,0,3,,,,,,,,0,,,54,0
128171,set_tempo,22,1,0,,,,,,579822,,,,,,
128180,note_on,0,0,3,,,,,,,,0,,,48,72
128180,note_on,0,0,3,,,,,,,,0,,,58,72
128180,note_on,80,0,2,,,,,,,,0,,,66,0
128180,note_on,0,0,2,,,,,,,,0,,,63,72
128180,note_on,0,0,2,,,,,,,,0,,,75,72
128180,note_on,0,0,2,,,,,,,,0,,,74,0
128180,note_on,0,0,2,,,,,,,,0,,,67,72
128180,note_on,0,0,2,,,,,,,,0,,,62,0
128180,note_on,16,0,3,,,,,,,,0,,,55,72
128193,set_tempo,22,1,0,,,,,,574328,,,,,,
128219,set_tempo,26,1,0,,,,,,568936,,,,,,
128241,set_tempo,22,1,0,,,,,,563645,,,,,,
128244,note_on,0,0,4,,,,,,,,0,,,40,0
128244,note_on,0,0,3,,,,,,,,0,,,58,0
128244,note_on,0,0,3,,,,,,,,0,,,55,0
128244,note_on,360,0,4,,,,,,,,0,,,36,0
128244,note_on,0,0,1,,,,,,,,0,,,84,0
128244,note_on,0,0,4,,,,,,,,0,,,43,0
128244,note_on,0,0,1,,,,,,,,0,,,72,0
128244,note_on,384,0,1,,,,,,,,0,,,76,0
128244,note_on,64,0,3,,,,,,,,0,,,48,0
128244,note_on,0,0,4,,,,,,,,0,,,48,0
128260,note_on,80,0,2,,,,,,,,0,,,63,0
128260,note_on,16,0,3,,,,,,,,0,,,59,72
128260,note_on,0,0,3,,,,,,,,0,,,48,72
128260,note_on,0,0,2,,,,,,,,0,,,76,72
128260,note_on,0,0,2,,,,,,,,0,,,64,72
128260,note_on,0,0,3,,,,,,,,0,,,56,72
128260,note_on,0,0,2,,,,,,,,0,,,67,0
128260,note_on,0,0,2,,,,,,,,0,,,68,72
128260,note_on,0,0,2,,,,,,,,0,,,75,0
128263,set_tempo,22,1,0,,,,,,558451,,,,,,
128285,set_tempo,22,1,0,,,,,,553352,,,,,,
128306,set_tempo,21,1,0,,,,,,548346,,,,,,
128324,note_on,0,0,3,,,,,,,,0,,,59,0
128324,note_on,64,0,3,,,,,,,,0,,,48,0
128324,note_on,0,0,3,,,,,,,,0,,,56,0
128328,set_tempo,22,1,0,,,,,,543429,,,,,,
128340,note_on,80,0,2,,,,,,,,0,,,68,0
128340,note_on,0,0,3,,,,,,,,0,,,57,72
128340,note_on,0,0,2,,,,,,,,0,,,64,0
128340,note_on,16,0,3,,,,,,,,0,,,48,72
128340,note_on,0,0,2,,,,,,,,0,,,77,72
128340,note_on,0,0,2,,,,,,,,0,,,76,0
128340,note_on,0,0,2,,,,,,,,0,,,69,72
128340,note_on,0,0,3,,,,,,,,0,,,60,72
128340,note_on,0,0,2,,,,,,,,0,,,65,72
128347,control_change,103,0,4,,,,,,,,0,64,0,,
128354,set_tempo,26,1,0,,,,,,548346,,,,,,
128359,control_change,12,0,4,,,,,,,,0,64,127,,
128376,set_tempo,22,1,0,,,,,,553352,,,,,,
128398,set_tempo,22,1,0,,,,,,558451,,,,,,
128404,note_on,64,0,3,,,,,,,,0,,,60,0
128404,note_on,0,0,3,,,,,,,,0,,,48,0
128404,note_on,0,0,3,,,,,,,,0,,,57,0
128420,note_on,0,0,2,,,,,,,,0,,,65,0
128420,note_on,0,0,2,,,,,,,,0,,,69,0
128420,note_on,0,0,2,,,,,,,,0,,,76,72
128420,note_on,0,0,2,,,,,,,,0,,,64,72
128420,note_on,0,0,2,,,,,,,,0,,,68,72
128420,note_on,80,0,2,,,,,,,,0,,,77,0
128420,set_tempo,22,1,0,,,,,,563645,,,,,,
128420,note_on,16,0,3,,,,,,,,0,,,56,72
128420,note_on,0,0,3,,,,,,,,0,,,48,72
128420,note_on,0,0,3,,,,,,,,0,,,59,72
128442,set_tempo,22,1,0,,,,,,568936,,,,,,
128463,set_tempo,21,1,0,,,,,,574328,,,,,,
128484,note_on,0,0,3,,,,,,,,0,,,56,0
128484,note_on,0,0,3,,,,,,,,0,,,48,0
128484,note_on,64,0,3,,,,,,,,0,,,59,0
128485,set_tempo,22,1,0,,,,,,579822,,,,,,
128500,note_on,0,0,2,,,,,,,,0,,,68,0
128500,note_on,0,0,3,,,,,,,,0,,,58,72
128500,note_on,0,0,2,,,,,,,,0,,,63,72
128500,note_on,16,0,3,,,,,,,,0,,,55,72
128500,note_on,0,0,2,,,,,,,,0,,,75,72
128500,note_on,0,0,2,,,,,,,,0,,,64,0
128500,note_on,80,0,2,,,,,,,,0,,,76,0
128500,note_on,0,0,2,,,,,,,,0,,,67,72
128500,note_on,0,0,3,,,,,,,,0,,,48,72
128507,set_tempo,22,1,0,,,,,,585423,,,,,,
128529,set_tempo,22,1,0,,,,,,591133,,,,,,
128551,set_tempo,22,1,0,,,,,,596956,,,,,,
128564,note_on,64,0,3,,,,,,,,0,,,48,0
128564,note_on,0,0,3,,,,,,,,0,,,58,0
128564,note_on,0,0,3,,,,,,,,0,,,55,0
128573,set_tempo,22,1,0,,,,,,602894,,,,,,
128580,note_on,0,0,2,,,,,,,,0,,,63,0
128580,note_on,0,0,2,,,,,,,,0,,,62,72
128580,note_on,0,0,2,,,,,,,,0,,,66,72
128580,note_on,16,0,3,,,,,,,,0,,,48,72
128580,note_on,0,0,2,,,,,,,,0,,,74,72
128580,note_on,0,0,3,,,,,,,,0,,,54,72
128580,note_on,0,0,3,,,,,,,,0,,,57,72
128580,note_on,80,0,2,,,,,,,,0,,,67,0
128580,note_on,0,0,2,,,,,,,,0,,,75,0
128594,set_tempo,21,1,0,,,,,,608952,,,,,,
128616,set_tempo,22,1,0,,,,,,615132,,,,,,
128638,set_tempo,22,1,0,,,,,,621440,,,,,,
128644,note_on,64,0,3,,,,,,,,0,,,57,0
128644,note_on,0,0,3,,,,,,,,0,,,48,0
128644,note_on,0,0,3,,,,,,,,0,,,54,0
128660,note_on,0,0,3,,,,,,,,0,,,53,72
128660,note_on,0,0,3,,,,,,,,0,,,56,72
128660,note_on,0,0,2,,,,,,,,0,,,61,72
128660,note_on,16,0,3,,,,,,,,0,,,48,72
128660,note_on,0,0,2,,,,,,,,0,,,65,72
128660,note_on,0,0,2,,,,,,,,0,,,62,0
128660,note_on,80,0,2,,,,,,,,0,,,74,0
128660,set_tempo,22,1,0,,,,,,627878,,,,,,
128660,note_on,0,0,2,,,,,,,,0,,,73,72
128660,note_on,0,0,2,,,,,,,,0,,,66,0
128682,set_tempo,22,1,0,,,,,,634451,,,,,,
128703,set_tempo,21,1,0,,,,,,641163,,,,,,
128724,note_on,0,0,3,,,,,,,,0,,,53,0
128724,note_on,0,0,3,,,,,,,,0,,,48,0
128724,note_on,64,0,3,,,,,,,,0,,,56,0
128725,set_tempo,22,1,0,,,,,,648018,,,,,,
128740,note_on,80,0,2,,,,,,,,0,,,65,0
128740,note_on,0,0,2,,,,,,,,0,,,73,0
128740,note_on,0,0,3,,,,,,,,0,,,55,72
128740,note_on,0,0,3,,,,,,,,0,,,48,72
128740,note_on,0,0,2,,,,,,,,0,,,60,72
128740,note_on,0,0,2,,,,,,,,0,,,61,0
128740,note_on,0,0,2,,,,,,,,0,,,64,72
128740,note_on,16,0,3,,,,,,,,0,,,52,72
128740,note_on,0,0,2,,,,,,,,0,,,72,72
128747,set_tempo,22,1,0,,,,,,655022,,,,,,
128769,set_tempo,22,1,0,,,,,,662179,,,,,,
128791,set_tempo,22,1,0,,,,,,669493,,,,,,
128804,set_tempo,13,1,0,,,,,,684619,,,,,,
128804,note_on,64,0,3,,,,,,,,0,,,48,0
128804,note_on,0,0,3,,,,,,,,0,,,55,0
128804,note_on,0,0,3,,,,,,,,0,,,52,0
128820,note_on,0,0,2,,,,,,,,0,,,64,0
128820,note_on,0,0,2,,,,,,,,0,,,60,0
128820,note_on,0,0,1,,,,,,,,0,,,84,80
128820,note_on,0,0,1,,,,,,,,0,,,92,80
128820,note_on,576,0,1,,,,,,,,0,,,80,80
128820,note_on,461,0,4,,,,,,,,0,,,48,80
128820,note_on,80,0,2,,,,,,,,0,,,72,0
128820,note_on,0,0,4,,,,,,,,0,,,41,80
128820,control_change,0,0,4,,,,,,,,0,64,0,,
128820,note_on,0,0,4,,,,,,,,0,,,53,80
128843,set_tempo,39,1,0,,,,,,676972,,,,,,
128844,control_change,24,0,4,,,,,,,,0,64,127,,
128882,set_tempo,39,1,0,,,,,,669493,,,,,,
128884,note_on,0,0,4,,,,,,,,0,,,41,0
128884,note_on,0,0,1,,,,,,,,0,,,80,0
128884,note_on,0,0,1,,,,,,,,0,,,92,0
128884,note_on,64,0,1,,,,,,,,0,,,84,0
128884,note_on,40,0,4,,,,,,,,0,,,53,0
128884,note_on,0,0,4,,,,,,,,0,,,48,0
128900,note_on,0,0,1,,,,,,,,0,,,72,80
128900,note_on,0,0,1,,,,,,,,0,,,68,80
128900,note_on,16,0,1,,,,,,,,0,,,80,80
128900,note_on,0,0,4,,,,,,,,0,,,56,80
128900,note_on,16,0,4,,,,,,,,0,,,60,80
128900,note_on,0,0,4,,,,,,,,0,,,65,80
128922,set_tempo,40,1,0,,,,,,662179,,,,,,
128957,set_tempo,35,1,0,,,,,,655022,,,,,,
128964,note_on,64,0,1,,,,,,,,0,,,68,0
128964,note_on,0,0,4,,,,,,,,0,,,60,0
128964,note_on,0,0,1,,,,,,,,0,,,72,0
128964,note_on,0,0,1,,,,,,,,0,,,80,0
128964,note_on,64,0,4,,,,,,,,0,,,56,0
128964,note_on,0,0,4,,,,,,,,0,,,65,0
128980,note_on,0,0,4,,,,,,,,0,,,65,80
128980,note_on,0,0,1,,,,,,,,0,,,80,80
128980,note_on,0,0,1,,,,,,,,0,,,72,80
128980,note_on,16,0,1,,,,,,,,0,,,68,80
128980,note_on,16,0,4,,,,,,,,0,,,60,80
128980,note_on,0,0,4,,,,,,,,0,,,56,80
128996,set_tempo,39,1,0,,,,,,648018,,,,,,
129035,set_tempo,39,1,0,,,,,,641163,,,,,,
129044,note_on,64,0,4,,,,,,,,0,,,56,0
129044,note_on,0,0,1,,,,,,,,0,,,68,0
129044,note_on,0,0,1,,,,,,,,0,,,80,0
129044,note_on,0,0,4,,,,,,,,0,,,65,0
129044,note_on,0,0,4,,,,,,,,0,,,60,0
129044,note_on,64,0,1,,,,,,,,0,,,72,0
129060,note_on,0,0,4,,,,,,,,0,,,48,80
129060,note_on,0,0,4,,,,,,,,0,,,53,80
129060,note_on,0,0,1,,,,,,,,0,,,92,80
129060,note_on,0,0,1,,,,,,,,0,,,80,80
129060,note_on,16,0,1,,,,,,,,0,,,84,80
129060,control_change,0,0,4,,,,,,,,0,64,0,,
129060,note_on,16,0,4,,,,,,,,0,,,41,80
129070,set_tempo,35,1,0,,,,,,634451,,,,,,
129092,control_change,32,0,4,,,,,,,,0,64,127,,
129109,set_tempo,39,1,0,,,,,,627878,,,,,,
129124,note_on,64,0,1,,,,,,,,0,,,92,0
129124,note_on,0,0,1,,,,,,,,0,,,80,0
129124,note_on,0,0,1,,,,,,,,0,,,84,0
129124,note_on,32,0,4,,,,,,,,0,,,48,0
129124,note_on,0,0,4,,,,,,,,0,,,41,0
129124,note_on,0,0,4,,,,,,,,0,,,53,0
129140,note_on,0,0,4,,,,,,,,0,,,65,80
129140,note_on,0,0,4,,,,,,,,0,,,56,80
129140,note_on,0,0,1,,,,,,,,0,,,80,80
129140,note_on,16,0,4,,,,,,,,0,,,60,80
129140,note_on,0,0,1,,,,,,,,0,,,68,80
129140,note_on,16,0,1,,,,,,,,0,,,72,80
129149,set_tempo,40,1,0,,,,,,621440,,,,,,
129183,set_tempo,34,1,0,,,,,,615132,,,,,,
129204,note_on,0,0,1,,,,,,,,0,,,72,0
129204,note_on,64,0,4,,,,,,,,0,,,65,0
129204,note_on,0,0,4,,,,,,,,0,,,56,0
129204,note_on,0,0,4,,,,,,,,0,,,60,0
129204,note_on,64,0,1,,,,,,,,0,,,68,0
129204,note_on,0,0,1,,,,,,,,0,,,80,0
129220,note_on,0,0,4,,,,,,,,0,,,65,80
129220,note_on,0,0,1,,,,,,,,0,,,80,80
129220,note_on,0,0,1,,,,,,,,0,,,72,80
129220,note_on,16,0,1,,,,,,,,0,,,68,80
129220,note_on,0,0,4,,,,,,,,0,,,60,80
129220,note_on,16,0,4,,,,,,,,0,,,56,80
129223,set_tempo,40,1,0,,,,,,608952,,,,,,
129262,set_tempo,39,1,0,,,,,,602894,,,,,,
129284,note_on,0,0,4,,,,,,,,0,,,60,0
129284,note_on,0,0,4,,,,,,,,0,,,56,0
129284,note_on,0,0,1,,,,,,,,0,,,68,0
129284,note_on,64,0,1,,,,,,,,0,,,80,0
129284,note_on,0,0,1,,,,,,,,0,,,72,0
129284,note_on,64,0,4,,,,,,,,0,,,65,0
129297,set_tempo,35,1,0,,,,,,596956,,,,,,
129300,note_on,0,0,4,,,,,,,,0,,,49,80
129300,note_on,0,0,4,,,,,,,,0,,,37,80
129300,control_change,0,0,4,,,,,,,,0,64,0,,
129300,note_on,16,0,1,,,,,,,,0,,,96,80
129300,note_on,16,0,4,,,,,,,,0,,,46,80
129300,note_on,0,0,1,,,,,,,,0,,,80,80
129300,note_on,0,0,1,,,,,,,,0,,,88,80
129320,control_change,20,0,4,,,,,,,,0,64,127,,
129332,set_tempo,35,1,0,,,,,,602894,,,,,,
129364,note_on,44,0,4,,,,,,,,0,,,49,0
129364,note_on,0,0,4,,,,,,,,0,,,46,0
129364,note_on,0,0,4,,,,,,,,0,,,37,0
129364,note_on,0,0,1,,,,,,,,0,,,96,0
129364,note_on,0,0,1,,,,,,,,0,,,80,0
129364,note_on,64,0,1,,,,,,,,0,,,88,0
129367,set_tempo,35,1,0,,,,,,608952,,,,,,
129380,note_on,0,0,4,,,,,,,,0,,,56,80
129380,note_on,0,0,4,,,,,,,,0,,,58,80
129380,note_on,0,0,1,,,,,,,,0,,,76,80
129380,note_on,16,0,4,,,,,,,,0,,,64,80
129380,note_on,16,0,1,,,,,,,,0,,,72,80
129380,note_on,0,0,1,,,,,,,,0,,,84,80
129402,set_tempo,35,1,0,,,,,,615132,,,,,,
129437,set_tempo,35,1,0,,,,,,621440,,,,,,
129444,note_on,0,0,1,,,,,,,,0,,,76,0
129444,note_on,64,0,1,,,,,,,,0,,,84,0
129444,note_on,64,0,4,,,,,,,,0,,,56,0
129444,note_on,0,0,1,,,,,,,,0,,,72,0
129444,note_on,0,0,4,,,,,,,,0,,,64,0
129444,note_on,0,0,4,,,,,,,,0,,,58,0
129460,note_on,16,0,4,,,,,,,,0,,,58,80
129460,note_on,0,0,4,,,,,,,,0,,,64,80
129460,note_on,0,0,1,,,,,,,,0,,,84,80
129460,note_on,0,0,1,,,,,,,,0,,,76,80
129460,note_on,0,0,4,,,,,,,,0,,,56,80
129460,note_on,16,0,1,,,,,,,,0,,,72,80
129467,set_tempo,30,1,0,,,,,,627878,,,,,,
129502,set_tempo,35,1,0,,,,,,634451,,,,,,
129524,note_on,64,0,1,,,,,,,,0,,,84,0
129524,note_on,64,0,4,,,,,,,,0,,,56,0
129524,note_on,0,0,1,,,,,,,,0,,,76,0
129524,note_on,0,0,1,,,,,,,,0,,,72,0
129524,note_on,0,0,4,,,,,,,,0,,,58,0
129524,note_on,0,0,4,,,,,,,,0,,,64,0
129537,set_tempo,35,1,0,,,,,,641163,,,,,,
129540,note_on,0,0,4,,,,,,,,0,,,49,80
129540,note_on,0,0,1,,,,,,,,0,,,82,80
129540,note_on,0,0,4,,,,,,,,0,,,46,80
129540,note_on,0,0,1,,,,,,,,0,,,94,80
129540,note_on,16,0,1,,,,,,,,0,,,88,80
129540,note_on,16,0,4,,,,,,,,0,,,37,80
129544,control_change,4,0,4,,,,,,,,0,64,0,,
129572,control_change,28,0,4,,,,,,,,0,64,127,,
129572,set_tempo,35,1,0,,,,,,648018,,,,,,
129604,note_on,32,0,4,,,,,,,,0,,,49,0
129604,note_on,64,0,1,,,,,,,,0,,,82,0
129604,note_on,0,0,4,,,,,,,,0,,,37,0
129604,note_on,0,0,4,,,,,,,,0,,,46,0
129604,note_on,0,0,1,,,,,,,,0,,,94,0
129604,note_on,0,0,1,,,,,,,,0,,,88,0
129607,set_tempo,35,1,0,,,,,,655022,,,,,,
129620,note_on,0,0,1,,,,,,,,0,,,82,80
129620,note_on,16,0,1,,,,,,,,0,,,76,80
129620,note_on,0,0,1,,,,,,,,0,,,70,80
129620,note_on,0,0,4,,,,,,,,0,,,56,80
129620,note_on,16,0,4,,,,,,,,0,,,64,80
129620,note_on,0,0,4,,,,,,,,0,,,58,80
129637,set_tempo,30,1,0,,,,,,662179,,,,,,
129672,set_tempo,35,1,0,,,,,,669493,,,,,,
129684,note_on,64,0,4,,,,,,,,0,,,58,0
129684,note_on,0,0,4,,,,,,,,0,,,64,0
129684,note_on,0,0,4,,,,,,,,0,,,56,0
129684,note_on,64,0,1,,,,,,,,0,,,82,0
129684,note_on,0,0,1,,,,,,,,0,,,76,0
129684,note_on,0,0,1,,,,,,,,0,,,70,0
129700,note_on,16,0,4,,,,,,,,0,,,56,80
129700,note_on,0,0,1,,,,,,,,0,,,82,80
129700,note_on,0,0,1,,,,,,,,0,,,70,80
129700,note_on,0,0,4,,,,,,,,0,,,58,80
129700,note_on,16,0,1,,,,,,,,0,,,76,80
129700,note_on,0,0,4,,,,,,,,0,,,64,80
129707,set_tempo,35,1,0,,,,,,676972,,,,,,
129742,set_tempo,35,1,0,,,,,,684619,,,,,,
129764,note_on,64,0,4,,,,,,,,0,,,58,0
129764,note_on,0,0,4,,,,,,,,0,,,56,0
129764,note_on,0,0,1,,,,,,,,0,,,70,0
129764,note_on,0,0,4,,,,,,,,0,,,64,0
129764,note_on,64,0,1,,,,,,,,0,,,82,0
129764,note_on,0,0,1,,,,,,,,0,,,76,0
129773,set_tempo,31,1,0,,,,,,692441,,,,,,
129780,note_on,0,0,4,,,,,,,,0,,,39,80
129780,note_on,0,0,1,,,,,,,,0,,,79,80
129780,note_on,0,0,1,,,,,,,,0,,,75,80
129780,note_on,0,0,4,,,,,,,,0,,,46,80
129780,note_on,16,0,4,,,,,,,,0,,,51,80
129780,note_on,16,0,1,,,,,,,,0,,,87,80
129786,set_tempo,13,1,0,,,,,,717017,,,,,,
129788,control_change,8,0,4,,,,,,,,0,64,0,,
129812,set_tempo,26,1,0,,,,,,708634,,,,,,
129832,control_change,44,0,4,,,,,,,,0,64,127,,
129838,set_tempo,26,1,0,,,,,,700444,,,,,,
129860,note_on,0,0,3,,,,,,,,0,,,58,72
129860,note_on,0,0,3,,,,,,,,0,,,55,72
129860,note_on,1040,0,2,,,,,,,,0,,,75,72
129860,note_on,0,0,2,,,,,,,,0,,,67,72
129860,note_on,1056,0,3,,,,,,,,0,,,51,72
129860,note_on,0,0,2,,,,,,,,0,,,63,72
129864,set_tempo,26,1,0,,,,,,692441,,,,,,
129890,set_tempo,26,1,0,,,,,,684619,,,,,,
129917,set_tempo,27,1,0,,,,,,676972,,,,,,
129924,note_on,0,0,2,,,,,,,,0,,,67,0
129924,note_on,64,0,3,,,,,,,,0,,,55,0
129924,note_on,64,0,2,,,,,,,,0,,,63,0
129924,note_on,0,0,3,,,,,,,,0,,,58,0
129924,note_on,0,0,2,,,,,,,,0,,,75,0
129924,note_on,0,0,3,,,,,,,,0,,,51,0
129940,note_on,16,0,2,,,,,,,,0,,,68,72
129940,note_on,16,0,3,,,,,,,,0,,,51,72
129940,note_on,0,0,3,,,,,,,,0,,,56,72
129940,note_on,0,0,3,,,,,,,,0,,,59,72
129940,note_on,0,0,2,,,,,,,,0,,,64,72
129940,note_on,0,0,2,,,,,,,,0,,,76,72
129943,set_tempo,26,1,0,,,,,,669493,,,,,,
129969,set_tempo,26,1,0,,,,,,662179,,,,,,
129995,set_tempo,26,1,0,,,,,,655022,,,,,,
130004,note_on,0,0,2,,,,,,,,0,,,68,0
130004,note_on,0,0,2,,,,,,,,0,,,64,0
130004,note_on,0,0,3,,,,,,,,0,,,56,0
130004,note_on,64,0,2,,,,,,,,0,,,76,0
130004,note_on,64,0,3,,,,,,,,0,,,59,0
130004,note_on,0,0,3,,,,,,,,0,,,51,0
130020,note_on,16,0,2,,,,,,,,0,,,69,72
130020,note_on,0,0,3,,,,,,,,0,,,60,72
130020,note_on,16,0,3,,,,,,,,0,,,51,72
130020,note_on,0,0,2,,,,,,,,0,,,65,72
130020,note_on,0,0,3,,,,,,,,0,,,57,72
130020,note_on,0,0,2,,,,,,,,0,,,77,72
130021,set_tempo,26,1,0,,,,,,648018,,,,,,
130048,set_tempo,27,1,0,,,,,,641163,,,,,,
130074,set_tempo,26,1,0,,,,,,634451,,,,,,
130084,note_on,0,0,2,,,,,,,,0,,,65,0
130084,note_on,0,0,2,,,,,,,,0,,,69,0
130084,note_on,64,0,3,,,,,,,,0,,,57,0
130084,note_on,0,0,3,,,,,,,,0,,,60,0
130084,note_on,0,0,3,,,,,,,,0,,,51,0
130084,note_on,64,0,2,,,,,,,,0,,,77,0
130100,set_tempo,26,1,0,,,,,,627878,,,,,,
130100,note_on,16,0,2,,,,,,,,0,,,78,72
130100,note_on,0,0,3,,,,,,,,0,,,61,72
130100,note_on,16,0,3,,,,,,,,0,,,51,72
130100,note_on,0,0,3,,,,,,,,0,,,58,72
130100,note_on,0,0,2,,,,,,,,0,,,70,72
130100,note_on,0,0,2,,,,,,,,0,,,66,72
130126,set_tempo,26,1,0,,,,,,621440,,,,,,
130152,set_tempo,26,1,0,,,,,,615132,,,,,,
130164,note_on,64,0,3,,,,,,,,0,,,61,0
130164,note_on,0,0,2,,,,,,,,0,,,70,0
130164,note_on,0,0,2,,,,,,,,0,,,78,0
130164,note_on,0,0,3,,,,,,,,0,,,58,0
130164,note_on,0,0,3,,,,,,,,0,,,51,0
130164,note_on,0,0,4,,,,,,,,0,,,51,0
130164,note_on,0,0,4,,,,,,,,0,,,39,0
130164,note_on,384,0,1,,,,,,,,0,,,75,0
130164,note_on,0,0,1,,,,,,,,0,,,87,0
130164,note_on,0,0,1,,,,,,,,0,,,79,0
130164,note_on,64,0,2,,,,,,,,0,,,66,0
130164,note_on,332,0,4,,,,,,,,0,,,46,0
130178,set_tempo,26,1,0,,,,,,608952,,,,,,
130180,note_on,16,0,3,,,,,,,,0,,,62,72
130180,note_on,16,0,2,,,,,,,,0,,,71,72
130180,note_on,0,0,2,,,,,,,,0,,,79,72
130180,note_on,0,0,3,,,,,,,,0,,,51,72
130180,note_on,0,0,3,,,,,,,,0,,,59,72
130180,note_on,0,0,2,,,,,,,,0,,,67,72
130205,set_tempo,27,1,0,,,,,,602894,,,,,,
130231,set_tempo,26,1,0,,,,,,596956,,,,,,
130244,note_on,0,0,2,,,,,,,,0,,,79,0
130244,note_on,64,0,2,,,,,,,,0,,,67,0
130244,note_on,64,0,3,,,,,,,,0,,,51,0
130244,note_on,0,0,3,,,,,,,,0,,,59,0
130244,note_on,0,0,2,,,,,,,,0,,,71,0
130244,note_on,0,0,3,,,,,,,,0,,,62,0
130257,set_tempo,26,1,0,,,,,,591133,,,,,,
130260,note_on,16,0,2,,,,,,,,0,,,72,72
130260,note_on,16,0,3,,,,,,,,0,,,60,72
130260,note_on,0,0,2,,,,,,,,0,,,80,72
130260,note_on,0,0,2,,,,,,,,0,,,68,72
130260,note_on,0,0,3,,,,,,,,0,,,51,72
130260,note_on,0,0,3,,,,,,,,0,,,63,72
130288,set_tempo,31,1,0,,,,,,596956,,,,,,
130314,set_tempo,26,1,0,,,,,,602894,,,,,,
130324,note_on,64,0,3,,,,,,,,0,,,51,0
130324,note_on,0,0,3,,,,,,,,0,,,63,0
130324,note_on,0,0,3,,,,,,,,0,,,60,0
130324,note_on,0,0,2,,,,,,,,0,,,72,0
130324,note_on,0,0,2,,,,,,,,0,,,80,0
130324,note_on,64,0,2,,,,,,,,0,,,68,0
130340,note_on,16,0,2,,,,,,,,0,,,67,72
130340,note_on,0,0,3,,,,,,,,0,,,59,72
130340,note_on,0,0,3,,,,,,,,0,,,51,72
130340,note_on,0,0,2,,,,,,,,0,,,79,72
130340,note_on,16,0,3,,,,,,,,0,,,62,72
130340,note_on,0,0,2,,,,,,,,0,,,71,72
130344,set_tempo,30,1,0,,,,,,608952,,,,,,
130370,set_tempo,26,1,0,,,,,,615132,,,,,,
130401,set_tempo,31,1,0,,,,,,621440,,,,,,
130404,note_on,0,0,2,,,,,,,,0,,,67,0
130404,note_on,0,0,2,,,,,,,,0,,,79,0
130404,note_on,0,0,3,,,,,,,,0,,,51,0
130404,note_on,64,0,2,,,,,,,,0,,,71,0
130404,note_on,64,0,3,,,,,,,,0,,,59,0
130404,note_on,0,0,3,,,,,,,,0,,,62,0
130420,note_on,0,0,2,,,,,,,,0,,,66,72
130420,note_on,16,0,3,,,,,,,,0,,,51,72
130420,note_on,0,0,3,,,,,,,,0,,,61,72
130420,note_on,16,0,2,,,,,,,,0,,,70,72
130420,note_on,0,0,2,,,,,,,,0,,,78,72
130420,note_on,0,0,3,,,,,,,,0,,,58,72
130427,set_tempo,26,1,0,,,,,,627878,,,,,,
130453,set_tempo,26,1,0,,,,,,634451,,,,,,
130484,note_on,64,0,3,,,,,,,,0,,,61,0
130484,note_on,0,0,3,,,,,,,,0,,,51,0
130484,set_tempo,31,1,0,,,,,,641163,,,,,,
130484,note_on,0,0,3,,,,,,,,0,,,58,0
130484,note_on,0,0,2,,,,,,,,0,,,66,0
130484,note_on,0,0,2,,,,,,,,0,,,70,0
130484,note_on,64,0,2,,,,,,,,0,,,78,0
130500,note_on,0,0,2,,,,,,,,0,,,69,72
130500,note_on,0,0,3,,,,,,,,0,,,60,72
130500,note_on,0,0,3,,,,,,,,0,,,57,72
130500,note_on,16,0,2,,,,,,,,0,,,77,72
130500,note_on,16,0,3,,,,,,,,0,,,51,72
130500,note_on,0,0,2,,,,,,,,0,,,65,72
130510,set_tempo,26,1,0,,,,,,648018,,,,,,
130541,set_tempo,31,1,0,,,,,,655022,,,,,,
130564,note_on,0,0,2,,,,,,,,0,,,65,0
130564,note_on,0,0,2,,,,,,,,0,,,77,0
130564,note_on,64,0,2,,,,,,,,0,,,69,0
130564,note_on,0,0,3,,,,,,,,0,,,51,0
130564,note_on,0,0,3,,,,,,,,0,,,57,0
130564,note_on,64,0,3,,,,,,,,0,,,60,0
130567,set_tempo,26,1,0,,,,,,662179,,,,,,
130580,note_on,0,0,3,,,,,,,,0,,,59,72
130580,note_on,16,0,3,,,,,,,,0,,,51,72
130580,note_on,16,0,2,,,,,,,,0,,,68,72
130580,note_on,0,0,2,,,,,,,,0,,,64,72
130580,note_on,0,0,2,,,,,,,,0,,,76,72
130580,note_on,0,0,3,,,,,,,,0,,,56,72
130593,set_tempo,26,1,0,,,,,,669493,,,,,,
130624,set_tempo,31,1,0,,,,,,676972,,,,,,
130644,note_on,64,0,3,,,,,,,,0,,,59,0
130644,note_on,0,0,3,,,,,,,,0,,,51,0
130644,note_on,0,0,2,,,,,,,,0,,,64,0
130644,note_on,0,0,2,,,,,,,,0,,,68,0
130644,note_on,64,0,2,,,,,,,,0,,,76,0
130644,note_on,0,0,3,,,,,,,,0,,,56,0
130650,set_tempo,26,1,0,,,,,,684619,,,,,,
130660,note_on,0,0,3,,,,,,,,0,,,58,72
130660,note_on,0,0,3,,,,,,,,0,,,55,72
130660,note_on,0,0,2,,,,,,,,0,,,75,72
130660,note_on,0,0,2,,,,,,,,0,,,63,72
130660,note_on,16,0,3,,,,,,,,0,,,51,72
130660,note_on,16,0,2,,,,,,,,0,,,67,72
130680,set_tempo,30,1,0,,,,,,692441,,,,,,
130706,set_tempo,26,1,0,,,,,,700444,,,,,,
130724,note_on,64,0,2,,,,,,,,0,,,63,0
130724,note_on,64,0,3,,,,,,,,0,,,58,0
130724,note_on,0,0,3,,,,,,,,0,,,55,0
130724,note_on,0,0,2,,,,,,,,0,,,67,0
130724,note_on,0,0,2,,,,,,,,0,,,75,0
130724,note_on,0,0,3,,,,,,,,0,,,51,0
130733,set_tempo,27,1,0,,,,,,708634,,,,,,
130740,note_on,576,0,1,,,,,,,,0,,,99,80
130740,note_on,0,0,4,,,,,,,,0,,,45,80
130740,note_on,0,0,4,,,,,,,,0,,,54,80
130740,note_on,0,0,4,,,,,,,,0,,,57,80
130740,control_change,576,0,4,,,,,,,,0,64,0,,
130740,note_on,0,0,1,,,,,,,,0,,,85,80
130740,note_on,0,0,1,,,,,,,,0,,,87,80
130740,note_on,0,0,1,,,,,,,,0,,,90,80
130740,note_on,0,0,4,,,,,,,,0,,,51,80
130741,set_tempo,8,1,0,,,,,,734394,,,,,,
130772,control_change,32,0,4,,,,,,,,0,64,127,,
130781,set_tempo,40,1,0,,,,,,725602,,,,,,
130816,set_tempo,35,1,0,,,,,,717017,,,,,,
130820,note_on,0,0,3,,,,,,,,0,,,66,72
130820,note_on,0,0,3,,,,,,,,0,,,69,72
130820,note_on,0,0,2,,,,,,,,0,,,78,72
130820,note_on,0,0,2,,,,,,,,0,,,75,72
130820,note_on,0,0,2,,,,,,,,0,,,73,72
130820,note_on,0,0,3,,,,,,,,0,,,61,72
130820,note_on,96,0,2,,,,,,,,0,,,87,72
130820,note_on,96,0,3,,,,,,,,0,,,63,72
130855,set_tempo,39,1,0,,,,,,708634,,,,,,
130884,note_on,0,0,3,,,,,,,,0,,,63,0
130884,note_on,64,0,3,,,,,,,,0,,,69,0
130884,note_on,0,0,2,,,,,,,,0,,,73,0
130884,note_on,64,0,2,,,,,,,,0,,,75,0
130884,note_on,0,0,3,,,,,,,,0,,,61,0
130884,note_on,0,0,2,,,,,,,,0,,,87,0
130884,note_on,0,0,2,,,,,,,,0,,,78,0
130884,note_on,0,0,3,,,,,,,,0,,,66,0
130890,set_tempo,35,1,0,,,,,,700444,,,,,,
130900,note_on,0,0,3,,,,,,,,0,,,66,72
130900,note_on,0,0,3,,,,,,,,0,,,69,72
130900,note_on,16,0,3,,,,,,,,0,,,63,72
130900,note_on,0,0,2,,,,,,,,0,,,78,72
130900,note_on,0,0,3,,,,,,,,0,,,61,72
130900,note_on,16,0,2,,,,,,,,0,,,75,72
130900,note_on,0,0,2,,,,,,,,0,,,73,72
130900,note_on,0,0,2,,,,,,,,0,,,87,72
130925,set_tempo,35,1,0,,,,,,692441,,,,,,
130964,set_tempo,39,1,0,,,,,,684619,,,,,,
130964,note_on,0,0,3,,,,,,,,0,,,66,0
130964,note_on,0,0,3,,,,,,,,0,,,69,0
130964,note_on,64,0,2,,,,,,,,0,,,87,0
130964,note_on,64,0,3,,,,,,,,0,,,61,0
130964,note_on,0,0,2,,,,,,,,0,,,73,0
130964,note_on,0,0,2,,,,,,,,0,,,75,0
130964,note_on,0,0,2,,,,,,,,0,,,78,0
130964,note_on,0,0,3,,,,,,,,0,,,63,0
130980,note_on,16,0,3,,,,,,,,0,,,63,72
130980,note_on,16,0,2,,,,,,,,0,,,75,72
130980,note_on,0,0,2,,,,,,,,0,,,73,72
130980,note_on,0,0,3,,,,,,,,0,,,69,72
130980,note_on,0,0,3,,,,,,,,0,,,66,72
130980,note_on,0,0,3,,,,,,,,0,,,61,72
130980,note_on,0,0,2,,,,,,,,0,,,87,72
130980,note_on,0,0,2,,,,,,,,0,,,78,72
130999,set_tempo,35,1,0,,,,,,676972,,,,,,
131038,set_tempo,39,1,0,,,,,,669493,,,,,,
131044,note_on,64,0,3,,,,,,,,0,,,61,0
131044,note_on,0,0,3,,,,,,,,0,,,66,0
131044,note_on,0,0,3,,,,,,,,0,,,69,0
131044,note_on,64,0,2,,,,,,,,0,,,73,0
131044,note_on,0,0,2,,,,,,,,0,,,87,0
131044,note_on,0,0,2,,,,,,,,0,,,78,0
131044,note_on,0,0,2,,,,,,,,0,,,75,0
131044,note_on,0,0,3,,,,,,,,0,,,63,0
131060,note_on,16,0,3,,,,,,,,0,,,66,72
131060,note_on,0,0,2,,,,,,,,0,,,87,72
131060,note_on,0,0,2,,,,,,,,0,,,75,72
131060,note_on,0,0,2,,,,,,,,0,,,78,72
131060,note_on,16,0,2,,,,,,,,0,,,73,72
131060,note_on,0,0,3,,,,,,,,0,,,61,72
131060,note_on,0,0,3,,,,,,,,0,,,63,72
131060,note_on,0,0,3,,,,,,,,0,,,69,72
131073,set_tempo,35,1,0,,,,,,662179,,,,,,
131108,set_tempo,35,1,0,,,,,,655022,,,,,,
131124,note_on,0,0,2,,,,,,,,0,,,78,0
131124,note_on,0,0,2,,,,,,,,0,,,73,0
131124,note_on,0,0,4,,,,,,,,0,,,54,0
131124,note_on,0,0,4,,,,,,,,0,,,57,0
131124,note_on,0,0,3,,,,,,,,0,,,61,0
131124,note_on,0,0,1,,,,,,,,0,,,85,0
131124,note_on,0,0,1,,,,,,,,0,,,87,0
131124,note_on,0,0,1,,,,,,,,0,,,99,0
131124,note_on,0,0,2,,,,,,,,0,,,75,0
131124,note_on,0,0,4,,,,,,,,0,,,51,0
131124,note_on,64,0,3,,,,,,,,0,,,69,0
131124,note_on,384,0,1,,,,,,,,0,,,90,0
131124,note_on,0,0,3,,,,,,,,0,,,63,0
131124,note_on,0,0,3,,,,,,,,0,,,66,0
131124,note_on,64,0,2,,,,,,,,0,,,87,0
131124,note_on,352,0,4,,,,,,,,0,,,45,0
131140,note_on,0,0,2,,,,,,,,0,,,75,72
131140,note_on,0,0,2,,,,,,,,0,,,78,72
131140,note_on,0,0,3,,,,,,,,0,,,61,72
131140,note_on,0,0,3,,,,,,,,0,,,66,72
131140,note_on,0,0,3,,,,,,,,0,,,69,72
131140,note_on,16,0,2,,,,,,,,0,,,87,72
131140,note_on,16,0,3,,,,,,,,0,,,63,72
131140,note_on,0,0,2,,,,,,,,0,,,73,72
131147,set_tempo,39,1,0,,,,,,648018,,,,,,
131182,set_tempo,35,1,0,,,,,,641163,,,,,,
131204,note_on,0,0,2,,,,,,,,0,,,75,0
131204,note_on,0,0,2,,,,,,,,0,,,87,0
131204,note_on,0,0,3,,,,,,,,0,,,63,0
131204,note_on,0,0,3,,,,,,,,0,,,61,0
131204,note_on,0,0,2,,,,,,,,0,,,73,0
131204,note_on,0,0,3,,,,,,,,0,,,66,0
131204,note_on,64,0,2,,,,,,,,0,,,78,0
131204,note_on,64,0,3,,,,,,,,0,,,69,0
131217,set_tempo,35,1,0,,,,,,743402,,,,,,
131218,control_change,94,0,4,,,,,,,,0,64,0,,
131220,note_on,2,0,4,,,,,,,,0,,,54,80
131220,note_on,0,0,4,,,,,,,,0,,,45,80
131220,note_on,0,0,4,,,,,,,,0,,,51,80
131220,note_on,0,0,1,,,,,,,,0,,,90,80
131220,note_on,0,0,1,,,,,,,,0,,,99,80
131220,note_on,0,0,4,,,,,,,,0,,,57,80
131220,note_on,96,0,1,,,,,,,,0,,,85,80
131220,note_on,0,0,1,,,,,,,,0,,,87,80
131236,control_change,16,0,4,,,,,,,,0,64,127,,
131252,set_tempo,35,1,0,,,,,,734394,,,,,,
131287,set_tempo,35,1,0,,,,,,725602,,,,,,
131300,note_on,96,0,2,,,,,,,,0,,,78,72
131300,note_on,0,0,3,,,,,,,,0,,,61,72
131300,note_on,96,0,3,,,,,,,,0,,,63,72
131300,note_on,0,0,2,,,,,,,,0,,,87,72
131300,note_on,0,0,2,,,,,,,,0,,,75,72
131300,note_on,0,0,3,,,,,,,,0,,,66,72
131300,note_on,0,0,2,,,,,,,,0,,,73,72
131300,note_on,0,0,3,,,,,,,,0,,,69,72
131322,set_tempo,35,1,0,,,,,,717017,,,,,,
131357,set_tempo,35,1,0,,,,,,708634,,,,,,
131364,note_on,0,0,2,,,,,,,,0,,,78,0
131364,note_on,64,0,2,,,,,,,,0,,,73,0
131364,note_on,0,0,2,,,,,,,,0,,,75,0
131364,note_on,0,0,2,,,,,,,,0,,,87,0
131364,note_on,0,0,3,,,,,,,,0,,,69,0
131364,note_on,0,0,3,,,,,,,,0,,,63,0
131364,note_on,0,0,3,,,,,,,,0,,,61,0
131364,note_on,64,0,3,,,,,,,,0,,,66,0
131380,note_on,0,0,3,,,,,,,,0,,,66,72
131380,note_on,0,0,3,,,,,,,,0,,,63,72
131380,note_on,16,0,3,,,,,,,,0,,,61,72
131380,note_on,0,0,3,,,,,,,,0,,,69,72
131380,note_on,0,0,2,,,,,,,,0,,,87,72
131380,note_on,0,0,2,,,,,,,,0,,,78,72
131380,note_on,0,0,2,,,,,,,,0,,,73,72
131380,note_on,16,0,2,,,,,,,,0,,,75,72
131392,set_tempo,35,1,0,,,,,,700444,,,,,,
131426,set_tempo,34,1,0,,,,,,692441,,,,,,
131444,note_on,0,0,2,,,,,,,,0,,,78,0
131444,note_on,0,0,2,,,,,,,,0,,,87,0
131444,note_on,0,0,3,,,,,,,,0,,,66,0
131444,note_on,0,0,3,,,,,,,,0,,,61,0
131444,note_on,64,0,2,,,,,,,,0,,,73,0
131444,note_on,0,0,2,,,,,,,,0,,,75,0
131444,note_on,64,0,3,,,,,,,,0,,,69,0
131444,note_on,0,0,3,,,,,,,,0,,,63,0
131457,set_tempo,31,1,0,,,,,,684619,,,,,,
131460,note_on,0,0,2,,,,,,,,0,,,73,72
131460,note_on,0,0,2,,,,,,,,0,,,78,72
131460,note_on,0,0,2,,,,,,,,0,,,87,72
131460,note_on,16,0,3,,,,,,,,0,,,61,72
131460,note_on,0,0,3,,,,,,,,0,,,63,72
131460,note_on,0,0,3,,,,,,,,0,,,66,72
131460,note_on,16,0,2,,,,,,,,0,,,75,72
131460,note_on,0,0,3,,,,,,,,0,,,69,72
131492,set_tempo,35,1,0,,,,,,676972,,,,,,
131524,note_on,0,0,3,,,,,,,,0,,,66,0
131524,note_on,64,0,3,,,,,,,,0,,,69,0
131524,note_on,0,0,3,,,,,,,,0,,,61,0
131524,note_on,0,0,3,,,,,,,,0,,,63,0
131524,note_on,64,0,2,,,,,,,,0,,,78,0
131524,note_on,0,0,2,,,,,,,,0,,,87,0
131524,note_on,0,0,2,,,,,,,,0,,,75,0
131524,note_on,0,0,2,,,,,,,,0,,,73,0
131527,set_tempo,35,1,0,,,,,,669493,,,,,,
131540,note_on,16,0,3,,,,,,,,0,,,63,72
131540,note_on,0,0,3,,,,,,,,0,,,66,72
131540,note_on,0,0,2,,,,,,,,0,,,87,72
131540,note_on,0,0,3,,,,,,,,0,,,69,72
131540,note_on,0,0,2,,,,,,,,0,,,75,72
131540,note_on,0,0,2,,,,,,,,0,,,73,72
131540,note_on,16,0,2,,,,,,,,0,,,78,72
131540,note_on,0,0,3,,,,,,,,0,,,61,72
131562,set_tempo,35,1,0,,,,,,662179,,,,,,
131588,note_on,0,0,4,,,,,,,,0,,,51,0
131588,note_on,352,0,4,,,,,,,,0,,,45,0
131588,note_on,0,0,1,,,,,,,,0,,,85,0
131588,note_on,0,0,4,,,,,,,,0,,,54,0
131588,note_on,0,0,1,,,,,,,,0,,,87,0
131588,note_on,0,0,1,,,,,,,,0,,,99,0
131588,note_on,0,0,4,,,,,,,,0,,,57,0
131588,note_on,368,0,1,,,,,,,,0,,,90,0
131597,set_tempo,35,1,0,,,,,,655022,,,,,,
131604,note_on,0,0,2,,,,,,,,0,,,78,0
131604,note_on,0,0,2,,,,,,,,0,,,75,0
131604,note_on,64,0,2,,,,,,,,0,,,87,0
131604,note_on,0,0,3,,,,,,,,0,,,69,0
131604,note_on,64,0,3,,,,,,,,0,,,66,0
131604,note_on,0,0,3,,,,,,,,0,,,63,0
131604,note_on,0,0,3,,,,,,,,0,,,61,0
131604,note_on,0,0,2,,,,,,,,0,,,73,0
131620,note_on,0,0,3,,,,,,,,0,,,63,72
131620,note_on,0,0,4,,,,,,,,0,,,57,80
131620,note_on,0,0,4,,,,,,,,0,,,45,80
131620,note_on,0,0,3,,,,,,,,0,,,66,72
131620,note_on,0,0,1,,,,,,,,0,,,97,80
131620,note_on,0,0,1,,,,,,,,0,,,85,80
131620,note_on,16,0,3,,,,,,,,0,,,61,72
131620,note_on,32,0,1,,,,,,,,0,,,90,80
131620,note_on,32,0,4,,,,,,,,0,,,51,80
131620,note_on,0,0,3,,,,,,,,0,,,69,72
131632,set_tempo,35,1,0,,,,,,648018,,,,,,
131639,set_tempo,7,1,0,,,,,,771803,,,,,,
131684,note_on,64,0,1,,,,,,,,0,,,97,0
131684,note_on,0,0,3,,,,,,,,0,,,66,0
131684,note_on,64,0,3,,,,,,,,0,,,63,0
131684,note_on,0,0,3,,,,,,,,0,,,69,0
131684,note_on,64,0,4,,,,,,,,0,,,57,0
131684,note_on,0,0,3,,,,,,,,0,,,61,0
131684,note_on,0,0,4,,,,,,,,0,,,45,0
131684,note_on,0,0,1,,,,,,,,0,,,85,0
131684,note_on,0,0,4,,,,,,,,0,,,51,0
131684,note_on,0,0,1,,,,,,,,0,,,90,0
131700,note_on,0,0,1,,,,,,,,0,,,84,80
131700,note_on,16,0,1,,,,,,,,0,,,96,80
131700,note_on,16,0,4,,,,,,,,0,,,51,80
131700,note_on,0,0,4,,,,,,,,0,,,56,80
131700,note_on,0,0,4,,,,,,,,0,,,44,80
131700,note_on,0,0,1,,,,,,,,0,,,90,80
131709,set_tempo,70,1,0,,,,,,762098,,,,,,
131714,set_tempo,5,1,0,,,,,,743402,,,,,,
131716,control_change,16,0,4,,,,,,,,0,64,0,,
131732,set_tempo,18,1,0,,,,,,734394,,,,,,
131749,set_tempo,17,1,0,,,,,,725602,,,,,,
131756,control_change,40,0,4,,,,,,,,0,64,127,,
131764,note_on,0,0,1,,,,,,,,0,,,96,0
131764,note_on,64,0,1,,,,,,,,0,,,90,0
131764,note_on,8,0,4,,,,,,,,0,,,56,0
131764,note_on,0,0,4,,,,,,,,0,,,51,0
131764,note_on,0,0,4,,,,,,,,0,,,44,0
131764,note_on,0,0,1,,,,,,,,0,,,84,0
131767,set_tempo,18,1,0,,,,,,717017,,,,,,
131780,note_on,16,0,4,,,,,,,,0,,,60,80
131780,note_on,0,0,4,,,,,,,,0,,,48,80
131780,note_on,0,0,1,,,,,,,,0,,,84,80
131780,note_on,16,0,1,,,,,,,,0,,,72,80
131784,set_tempo,17,1,0,,,,,,708634,,,,,,
131802,set_tempo,18,1,0,,,,,,700444,,,,,,
131819,set_tempo,17,1,0,,,,,,692441,,,,,,
131837,set_tempo,18,1,0,,,,,,684619,,,,,,
131844,note_on,0,0,1,,,,,,,,0,,,72,0
131844,note_on,64,0,4,,,,,,,,0,,,48,0
131844,note_on,64,0,1,,,,,,,,0,,,84,0
131844,note_on,0,0,4,,,,,,,,0,,,60,0
131854,set_tempo,17,1,0,,,,,,676972,,,,,,
131860,note_on,0,0,1,,,,,,,,0,,,73,80
131860,note_on,0,0,4,,,,,,,,0,,,49,80
131860,note_on,16,0,1,,,,,,,,0,,,85,80
131860,note_on,16,0,4,,,,,,,,0,,,61,80
131872,set_tempo,18,1,0,,,,,,669493,,,,,,
131889,set_tempo,17,1,0,,,,,,662179,,,,,,
131906,set_tempo,17,1,0,,,,,,655022,,,,,,
131924,set_tempo,18,1,0,,,,,,648018,,,,,,
131924,note_on,64,0,1,,,,,,,,0,,,73,0
131924,note_on,64,0,4,,,,,,,,0,,,49,0
131924,note_on,0,0,4,,,,,,,,0,,,61,0
131924,note_on,0,0,1,,,,,,,,0,,,85,0
131940,note_on,0,0,1,,,,,,,,0,,,74,80
131940,note_on,16,0,4,,,,,,,,0,,,62,80
131940,note_on,16,0,1,,,,,,,,0,,,86,80
131940,note_on,0,0,4,,,,,,,,0,,,50,80
131941,set_tempo,17,1,0,,,,,,641163,,,,,,
131959,set_tempo,18,1,0,,,,,,634451,,,,,,
131976,set_tempo,17,1,0,,,,,,627878,,,,,,
131994,set_tempo,18,1,0,,,,,,621440,,,,,,
132004,note_on,0,0,1,,,,,,,,0,,,86,0
132004,note_on,64,0,1,,,,,,,,0,,,74,0
132004,note_on,64,0,4,,,,,,,,0,,,50,0
132004,note_on,0,0,4,,,,,,,,0,,,62,0
132011,set_tempo,17,1,0,,,,,,615132,,,,,,
132020,note_on,0,0,4,,,,,,,,0,,,63,80
132020,note_on,16,0,4,,,,,,,,0,,,51,80
132020,note_on,16,0,1,,,,,,,,0,,,75,80
132020,note_on,0,0,1,,,,,,,,0,,,87,80
132029,set_tempo,18,1,0,,,,,,608952,,,,,,
132046,set_tempo,17,1,0,,,,,,602894,,,,,,
132064,set_tempo,18,1,0,,,,,,596956,,,,,,
132081,set_tempo,17,1,0,,,,,,591133,,,,,,
132084,note_on,0,0,4,,,,,,,,0,,,51,0
132084,note_on,64,0,4,,,,,,,,0,,,63,0
132084,note_on,64,0,1,,,,,,,,0,,,87,0
132084,note_on,0,0,1,,,,,,,,0,,,75,0
132098,set_tempo,17,1,0,,,,,,585423,,,,,,
132100,note_on,0,0,1,,,,,,,,0,,,88,80
132100,note_on,16,0,1,,,,,,,,0,,,76,80
132100,note_on,16,0,4,,,,,,,,0,,,52,80
132100,note_on,0,0,4,,,,,,,,0,,,64,80
132116,set_tempo,18,1,0,,,,,,579822,,,,,,
132133,set_tempo,17,1,0,,,,,,574328,,,,,,
132151,set_tempo,18,1,0,,,,,,568936,,,,,,
132164,note_on,0,0,1,,,,,,,,0,,,76,0
132164,note_on,0,0,4,,,,,,,,0,,,52,0
132164,note_on,64,0,1,,,,,,,,0,,,88,0
132164,note_on,64,0,4,,,,,,,,0,,,64,0
132168,set_tempo,17,1,0,,,,,,563645,,,,,,
132180,note_on,0,0,4,,,,,,,,0,,,63,80
132180,note_on,16,0,1,,,,,,,,0,,,87,80
132180,note_on,16,0,4,,,,,,,,0,,,51,80
132180,note_on,0,0,1,,,,,,,,0,,,75,80
132181,set_tempo,13,1,0,,,,,,558451,,,,,,
132199,set_tempo,18,1,0,,,,,,563645,,,,,,
132212,set_tempo,13,1,0,,,,,,568936,,,,,,
132229,set_tempo,17,1,0,,,,,,574328,,,,,,
132242,set_tempo,13,1,0,,,,,,579822,,,,,,
132244,note_on,0,0,4,,,,,,,,0,,,51,0
132244,note_on,64,0,1,,,,,,,,0,,,75,0
132244,note_on,64,0,4,,,,,,,,0,,,63,0
132244,note_on,0,0,1,,,,,,,,0,,,87,0
132260,note_on,16,0,1,,,,,,,,0,,,86,80
132260,note_on,0,0,1,,,,,,,,0,,,74,80
132260,note_on,16,0,4,,,,,,,,0,,,50,80
132260,note_on,0,0,4,,,,,,,,0,,,62,80
132260,set_tempo,18,1,0,,,,,,585423,,,,,,
132273,set_tempo,13,1,0,,,,,,591133,,,,,,
132286,set_tempo,13,1,0,,,,,,596956,,,,,,
132304,set_tempo,18,1,0,,,,,,602894,,,,,,
132317,set_tempo,13,1,0,,,,,,608952,,,,,,
132324,note_on,0,0,4,,,,,,,,0,,,50,0
132324,note_on,0,0,1,,,,,,,,0,,,86,0
132324,note_on,64,0,4,,,,,,,,0,,,62,0
132324,note_on,64,0,1,,,,,,,,0,,,74,0
132334,set_tempo,17,1,0,,,,,,615132,,,,,,
132340,note_on,0,0,4,,,,,,,,0,,,49,80
132340,note_on,0,0,1,,,,,,,,0,,,85,80
132340,note_on,16,0,1,,,,,,,,0,,,73,80
132340,note_on,16,0,4,,,,,,,,0,,,61,80
132347,set_tempo,13,1,0,,,,,,621440,,,,,,
132360,set_tempo,13,1,0,,,,,,627878,,,,,,
132378,set_tempo,18,1,0,,,,,,634451,,,,,,
132391,set_tempo,13,1,0,,,,,,641163,,,,,,
132404,note_on,0,0,4,,,,,,,,0,,,61,0
132404,note_on,64,0,1,,,,,,,,0,,,85,0
132404,note_on,64,0,4,,,,,,,,0,,,49,0
132404,note_on,0,0,1,,,,,,,,0,,,73,0
132408,set_tempo,17,1,0,,,,,,648018,,,,,,
132420,note_on,0,0,1,,,,,,,,0,,,84,80
132420,note_on,16,0,1,,,,,,,,0,,,72,80
132420,note_on,0,0,4,,,,,,,,0,,,60,80
132420,note_on,16,0,4,,,,,,,,0,,,48,80
132421,set_tempo,13,1,0,,,,,,655022,,,,,,
132434,set_tempo,13,1,0,,,,,,662179,,,,,,
132452,set_tempo,18,1,0,,,,,,669493,,,,,,
132465,set_tempo,13,1,0,,,,,,676972,,,,,,
132482,set_tempo,17,1,0,,,,,,684619,,,,,,
132484,note_on,64,0,1,,,,,,,,0,,,84,0
132484,note_on,0,0,4,,,,,,,,0,,,48,0
132484,note_on,64,0,4,,,,,,,,0,,,60,0
132484,note_on,0,0,1,,,,,,,,0,,,72,0
132496,set_tempo,14,1,0,,,,,,692441,,,,,,
132500,note_on,16,0,1,,,,,,,,0,,,71,80
132500,note_on,0,0,4,,,,,,,,0,,,59,80
132500,note_on,16,0,4,,,,,,,,0,,,47,80
132500,note_on,0,0,1,,,,,,,,0,,,83,80
132509,set_tempo,13,1,0,,,,,,700444,,,,,,
132526,set_tempo,17,1,0,,,,,,708634,,,,,,
132539,set_tempo,13,1,0,,,,,,717017,,,,,,
132557,set_tempo,18,1,0,,,,,,725602,,,,,,
132564,note_on,0,0,4,,,,,,,,0,,,47,0
132564,note_on,64,0,4,,,,,,,,0,,,59,0
132564,note_on,64,0,1,,,,,,,,0,,,83,0
132564,note_on,0,0,1,,,,,,,,0,,,71,0
132570,set_tempo,13,1,0,,,,,,734394,,,,,,
132580,note_on,16,0,1,,,,,,,,0,,,82,80
132580,note_on,16,0,4,,,,,,,,0,,,58,80
132580,note_on,0,0,4,,,,,,,,0,,,46,80
132580,note_on,0,0,1,,,,,,,,0,,,70,80
132583,set_tempo,13,1,0,,,,,,743402,,,,,,
132600,set_tempo,17,1,0,,,,,,752634,,,,,,
132613,set_tempo,13,1,0,,,,,,762098,,,,,,
132631,set_tempo,18,1,0,,,,,,771803,,,,,,
132644,note_on,0,0,4,,,,,,,,0,,,58,0
132644,note_on,0,0,1,,,,,,,,0,,,82,0
132644,note_on,64,0,4,,,,,,,,0,,,46,0
132644,note_on,64,0,1,,,,,,,,0,,,70,0
132644,set_tempo,13,1,0,,,,,,781759,,,,,,
132652,set_tempo,8,1,0,,,,,,771803,,,,,,
132660,note_on,0,0,1,,,,,,,,0,,,87,80
132660,note_on,0,0,1,,,,,,,,0,,,85,80
132660,note_on,16,0,1,,,,,,,,0,,,99,80
132660,control_change,16,0,4,,,,,,,,0,64,0,,
132660,note_on,0,0,1,,,,,,,,0,,,90,80
132660,note_on,0,0,4,,,,,,,,0,,,45,80
132660,note_on,0,0,4,,,,,,,,0,,,51,80
132660,note_on,0,0,4,,,,,,,,0,,,57,80
132660,note_on,0,0,4,,,,,,,,0,,,54,80
132678,set_tempo,26,1,0,,,,,,762098,,,,,,
132681,control_change,21,0,4,,,,,,,,0,64,127,,
132704,set_tempo,26,1,0,,,,,,752634,,,,,,
132726,set_tempo,22,1,0,,,,,,743402,,,,,,
132740,note_on,0,0,3,,,,,,,,0,,,61,72
132740,note_on,0,0,2,,,,,,,,0,,,73,72
132740,note_on,0,0,3,,,,,,,,0,,,63,72
132740,note_on,0,0,2,,,,,,,,0,,,87,72
132740,note_on,0,0,3,,,,,,,,0,,,66,72
132740,note_on,0,0,2,,,,,,,,0,,,78,72
132740,note_on,1136,0,2,,,,,,,,0,,,75,72
132740,note_on,1056,0,3,,,,,,,,0,,,69,72
132752,set_tempo,26,1,0,,,,,,734394,,,,,,
132774,set_tempo,22,1,0,,,,,,725602,,,,,,
132800,set_tempo,26,1,0,,,,,,717017,,,,,,
132804,note_on,64,0,2,,,,,,,,0,,,87,0
132804,note_on,0,0,3,,,,,,,,0,,,69,0
132804,note_on,0,0,3,,,,,,,,0,,,66,0
132804,note_on,0,0,3,,,,,,,,0,,,61,0
132804,note_on,64,0,3,,,,,,,,0,,,63,0
132804,note_on,0,0,2,,,,,,,,0,,,78,0
132804,note_on,0,0,2,,,,,,,,0,,,75,0
132804,note_on,0,0,2,,,,,,,,0,,,73,0
132820,note_on,0,0,2,,,,,,,,0,,,78,72
132820,note_on,16,0,2,,,,,,,,0,,,87,72
132820,note_on,0,0,3,,,,,,,,0,,,63,72
132820,note_on,0,0,3,,,,,,,,0,,,69,72
132820,note_on,16,0,3,,,,,,,,0,,,61,72
132820,note_on,0,0,2,,,,,,,,0,,,75,72
132820,note_on,0,0,2,,,,,,,,0,,,73,72
132820,note_on,0,0,3,,,,,,,,0,,,66,72
132826,set_tempo,26,1,0,,,,,,708634,,,,,,
132848,set_tempo,22,1,0,,,,,,700444,,,,,,
132874,set_tempo,26,1,0,,,,,,692441,,,,,,
132884,note_on,0,0,2,,,,,,,,0,,,78,0
132884,note_on,0,0,2,,,,,,,,0,,,87,0
132884,note_on,0,0,2,,,,,,,,0,,,73,0
132884,note_on,0,0,3,,,,,,,,0,,,66,0
132884,note_on,0,0,3,,,,,,,,0,,,69,0
132884,note_on,0,0,3,,,,,,,,0,,,61,0
132884,note_on,64,0,3,,,,,,,,0,,,63,0
132884,note_on,64,0,2,,,,,,,,0,,,75,0
132896,set_tempo,22,1,0,,,,,,684619,,,,,,
132900,note_on,0,0,3,,,,,,,,0,,,66,72
132900,note_on,0,0,3,,,,,,,,0,,,69,72
132900,note_on,0,0,2,,,,,,,,0,,,87,72
132900,note_on,0,0,2,,,,,,,,0,,,78,72
132900,note_on,0,0,2,,,,,,,,0,,,75,72
132900,note_on,16,0,3,,,,,,,,0,,,61,72
132900,note_on,0,0,3,,,,,,,,0,,,63,72
132900,note_on,16,0,2,,,,,,,,0,,,73,72
132922,set_tempo,26,1,0,,,,,,676972,,,,,,
132944,set_tempo,22,1,0,,,,,,669493,,,,,,
132964,note_on,0,0,2,,,,,,,,0,,,87,0
132964,note_on,64,0,3,,,,,,,,0,,,63,0
132964,note_on,64,0,2,,,,,,,,0,,,75,0
132964,note_on,0,0,2,,,,,,,,0,,,78,0
132964,note_on,0,0,3,,,,,,,,0,,,69,0
132964,note_on,0,0,3,,,,,,,,0,,,66,0
132964,note_on,0,0,3,,,,,,,,0,,,61,0
132964,note_on,0,0,2,,,,,,,,0,,,73,0
132970,set_tempo,26,1,0,,,,,,662179,,,,,,
132980,note_on,16,0,3,,,,,,,,0,,,69,72
132980,note_on,0,0,2,,,,,,,,0,,,75,72
132980,note_on,0,0,3,,,,,,,,0,,,61,72
132980,note_on,0,0,3,,,,,,,,0,,,63,72
132980,note_on,0,0,2,,,,,,,,0,,,73,72
132980,note_on,0,0,3,,,,,,,,0,,,66,72
132980,note_on,16,0,2,,,,,,,,0,,,87,72
132980,note_on,0,0,2,,,,,,,,0,,,78,72
132996,set_tempo,26,1,0,,,,,,655022,,,,,,
133018,set_tempo,22,1,0,,,,,,648018,,,,,,
133044,note_on,0,0,3,,,,,,,,0,,,69,0
133044,note_on,0,0,3,,,,,,,,0,,,63,0
133044,note_on,0,0,3,,,,,,,,0,,,61,0
133044,note_on,363,0,4,,,,,,,,0,,,51,0
133044,note_on,0,0,1,,,,,,,,0,,,99,0
133044,note_on,384,0,1,,,,,,,,0,,,85,0
133044,note_on,0,0,1,,,,,,,,0,,,90,0
133044,note_on,0,0,1,,,,,,,,0,,,87,0
133044,note_on,64,0,3,,,,,,,,0,,,66,0
133044,set_tempo,26,1,0,,,,,,641163,,,,,,
133044,note_on,0,0,4,,,,,,,,0,,,57,0
133044,note_on,0,0,4,,,,,,,,0,,,54,0
133044,note_on,0,0,4,,,,,,,,0,,,45,0
133044,note_on,64,0,2,,,,,,,,0,,,73,0
133044,note_on,0,0,2,,,,,,,,0,,,75,0
133044,note_on,0,0,2,,,,,,,,0,,,78,0
133044,note_on,0,0,2,,,,,,,,0,,,87,0
133060,note_on,0,0,3,,,,,,,,0,,,61,72
133060,note_on,0,0,2,,,,,,,,0,,,87,72
133060,note_on,0,0,3,,,,,,,,0,,,63,72
133060,note_on,0,0,2,,,,,,,,0,,,75,72
133060,note_on,0,0,3,,,,,,,,0,,,66,72
133060,note_on,16,0,3,,,,,,,,0,,,69,72
133060,note_on,16,0,2,,,,,,,,0,,,78,72
133060,note_on,0,0,2,,,,,,,,0,,,73,72
133066,set_tempo,22,1,0,,,,,,634451,,,,,,
133092,set_tempo,26,1,0,,,,,,627878,,,,,,
133114,set_tempo,22,1,0,,,,,,621440,,,,,,
133119,set_tempo,5,1,0,,,,,,762098,,,,,,
133124,note_on,0,0,3,,,,,,,,0,,,69,0
133124,note_on,0,0,2,,,,,,,,0,,,78,0
133124,note_on,0,0,2,,,,,,,,0,,,75,0
133124,note_on,0,0,3,,,,,,,,0,,,66,0
133124,note_on,0,0,2,,,,,,,,0,,,73,0
133124,note_on,64,0,3,,,,,,,,0,,,63,0
133124,note_on,64,0,2,,,,,,,,0,,,87,0
133124,note_on,0,0,3,,,,,,,,0,,,61,0
133140,note_on,0,0,1,,,,,,,,0,,,90,80
133140,note_on,0,0,4,,,,,,,,0,,,51,80
133140,note_on,96,0,4,,,,,,,,0,,,54,80
133140,note_on,0,0,4,,,,,,,,0,,,45,80
133140,note_on,0,0,1,,,,,,,,0,,,87,80
133140,note_on,0,0,4,,,,,,,,0,,,57,80
133140,note_on,0,0,1,,,,,,,,0,,,99,80
133140,note_on,96,0,1,,,,,,,,0,,,85,80
133140,control_change,0,0,4,,,,,,,,0,64,0,,
133145,set_tempo,26,1,0,,,,,,752634,,,,,,
133152,control_change,12,0,4,,,,,,,,0,64,127,,
133171,set_tempo,26,1,0,,,,,,743402,,,,,,
133193,set_tempo,22,1,0,,,,,,734394,,,,,,
133219,set_tempo,26,1,0,,,,,,725602,,,,,,
133220,note_on,0,0,3,,,,,,,,0,,,66,72
133220,note_on,96,0,2,,,,,,,,0,,,78,72
133220,note_on,0,0,2,,,,,,,,0,,,73,72
133220,note_on,0,0,2,,,,,,,,0,,,75,72
133220,note_on,0,0,3,,,,,,,,0,,,69,72
133220,note_on,0,0,2,,,,,,,,0,,,87,72
133220,note_on,96,0,3,,,,,,,,0,,,63,72
133220,note_on,0,0,3,,,,,,,,0,,,61,72
133245,set_tempo,26,1,0,,,,,,717017,,,,,,
133267,set_tempo,22,1,0,,,,,,708634,,,,,,
133284,note_on,64,0,2,,,,,,,,0,,,73,0
133284,note_on,64,0,3,,,,,,,,0,,,66,0
133284,note_on,0,0,3,,,,,,,,0,,,61,0
133284,note_on,0,0,2,,,,,,,,0,,,78,0
133284,note_on,0,0,3,,,,,,,,0,,,69,0
133284,note_on,0,0,3,,,,,,,,0,,,63,0
133284,note_on,0,0,2,,,,,,,,0,,,87,0
133284,note_on,0,0,2,,,,,,,,0,,,75,0
133293,set_tempo,26,1,0,,,,,,700444,,,,,,
133300,note_on,0,0,2,,,,,,,,0,,,73,72
133300,note_on,16,0,3,,,,,,,,0,,,61,72
133300,note_on,0,0,3,,,,,,,,0,,,66,72
133300,note_on,0,0,3,,,,,,,,0,,,69,72
133300,note_on,0,0,2,,,,,,,,0,,,87,72
133300,note_on,0,0,3,,,,,,,,0,,,63,72
133300,note_on,0,0,2,,,,,,,,0,,,78,72
133300,note_on,16,0,2,,,,,,,,0,,,75,72
133319,set_tempo,26,1,0,,,,,,692441,,,,,,
133341,set_tempo,22,1,0,,,,,,684619,,,,,,
133364,note_on,0,0,2,,,,,,,,0,,,75,0
133364,note_on,0,0,3,,,,,,,,0,,,61,0
133364,note_on,0,0,3,,,,,,,,0,,,63,0
133364,note_on,64,0,2,,,,,,,,0,,,73,0
133364,note_on,0,0,2,,,,,,,,0,,,78,0
133364,note_on,64,0,3,,,,,,,,0,,,69,0
133364,note_on,0,0,2,,,,,,,,0,,,87,0
133364,note_on,0,0,3,,,,,,,,0,,,66,0
133367,set_tempo,26,1,0,,,,,,676972,,,,,,
133380,note_on,0,0,3,,,,,,,,0,,,69,72
133380,note_on,0,0,2,,,,,,,,0,,,73,72
133380,note_on,0,0,3,,,,,,,,0,,,66,72
133380,note_on,0,0,3,,,,,,,,0,,,63,72
133380,note_on,0,0,2,,,,,,,,0,,,78,72
133380,note_on,0,0,2,,,,,,,,0,,,87,72
133380,note_on,16,0,3,,,,,,,,0,,,61,72
133380,note_on,16,0,2,,,,,,,,0,,,75,72
133394,set_tempo,27,1,0,,,,,,669493,,,,,,
133415,set_tempo,21,1,0,,,,,,662179,,,,,,
133442,set_tempo,27,1,0,,,,,,655022,,,,,,
133444,note_on,0,0,3,,,,,,,,0,,,63,0
133444,note_on,0,0,3,,,,,,,,0,,,66,0
133444,note_on,64,0,3,,,,,,,,0,,,69,0
133444,note_on,64,0,2,,,,,,,,0,,,78,0
133444,note_on,0,0,2,,,,,,,,0,,,73,0
133444,note_on,0,0,2,,,,,,,,0,,,75,0
133444,note_on,0,0,2,,,,,,,,0,,,87,0
133444,note_on,0,0,3,,,,,,,,0,,,61,0
133460,note_on,16,0,3,,,,,,,,0,,,63,72
133460,note_on,0,0,2,,,,,,,,0,,,73,72
133460,note_on,0,0,3,,,,,,,,0,,,69,72
133460,note_on,0,0,3,,,,,,,,0,,,66,72
133460,note_on,0,0,3,,,,,,,,0,,,61,72
133460,note_on,0,0,2,,,,,,,,0,,,75,72
133460,note_on,0,0,2,,,,,,,,0,,,87,72
133460,note_on,16,0,2,,,,,,,,0,,,78,72
133468,set_tempo,26,1,0,,,,,,648018,,,,,,
133490,set_tempo,22,1,0,,,,,,641163,,,,,,
133508,note_on,368,0,1,,,,,,,,0,,,90,0
133508,note_on,356,0,4,,,,,,,,0,,,51,0
133508,note_on,0,0,1,,,,,,,,0,,,99,0
133508,note_on,0,0,4,,,,,,,,0,,,45,0
133508,note_on,0,0,4,,,,,,,,0,,,57,0
133508,note_on,0,0,1,,,,,,,,0,,,85,0
133508,note_on,0,0,1,,,,,,,,0,,,87,0
133508,note_on,0,0,4,,,,,,,,0,,,54,0
133516,set_tempo,26,1,0,,,,,,634451,,,,,,
133524,note_on,64,0,3,,,,,,,,0,,,66,0
133524,note_on,0,0,2,,,,,,,,0,,,78,0
133524,note_on,0,0,2,,,,,,,,0,,,75,0
133524,note_on,0,0,2,,,,,,,,0,,,73,0
133524,note_on,0,0,3,,,,,,,,0,,,61,0
133524,note_on,0,0,3,,,,,,,,0,,,63,0
133524,note_on,0,0,3,,,,,,,,0,,,69,0
133524,note_on,64,0,2,,,,,,,,0,,,87,0
133540,note_on,0,0,3,,,,,,,,0,,,66,72
133540,note_on,0,0,3,,,,,,,,0,,,63,72
133540,note_on,0,0,4,,,,,,,,0,,,51,80
133540,note_on,0,0,1,,,,,,,,0,,,85,80
133540,note_on,0,0,3,,,,,,,,0,,,69,72
133540,note_on,16,0,3,,,,,,,,0,,,61,72
133540,note_on,0,0,1,,,,,,,,0,,,97,80
133540,note_on,32,0,1,,,,,,,,0,,,90,80
133540,note_on,32,0,4,,,,,,,,0,,,57,80
133540,note_on,0,0,4,,,,,,,,0,,,45,80
133542,set_tempo,26,1,0,,,,,,627878,,,,,,
133564,set_tempo,22,1,0,,,,,,621440,,,,,,
133590,set_tempo,26,1,0,,,,,,615132,,,,,,
133604,note_on,0,0,1,,,,,,,,0,,,90,0
133604,note_on,0,0,3,,,,,,,,0,,,66,0
133604,note_on,0,0,3,,,,,,,,0,,,69,0
133604,note_on,64,0,1,,,,,,,,0,,,97,0
133604,note_on,0,0,1,,,,,,,,0,,,85,0
133604,note_on,0,0,3,,,,,,,,0,,,61,0
133604,note_on,0,0,4,,,,,,,,0,,,57,0
133604,note_on,0,0,4,,,,,,,,0,,,51,0
133604,note_on,64,0,3,,,,,,,,0,,,63,0
133604,note_on,64,0,4,,,,,,,,0,,,45,0
133612,set_tempo,22,1,0,,,,,,608952,,,,,,
133616,set_tempo,4,1,0,,,,,,743402,,,,,,
133620,note_on,0,0,1,,,,,,,,0,,,90,80
133620,note_on,16,0,4,,,,,,,,0,,,44,80
133620,note_on,16,0,1,,,,,,,,0,,,96,80
133620,note_on,0,0,1,,,,,,,,0,,,84,80
133620,note_on,0,0,4,,,,,,,,0,,,51,80
133620,note_on,0,0,4,,,,,,,,0,,,56,80
133632,control_change,12,0,4,,,,,,,,0,64,0,,
133638,set_tempo,22,1,0,,,,,,734394,,,,,,
133644,control_change,12,0,4,,,,,,,,0,64,127,,
133660,set_tempo,22,1,0,,,,,,725602,,,,,,
133677,set_tempo,17,1,0,,,,,,717017,,,,,,
133684,note_on,0,0,4,,,,,,,,0,,,44,0
133684,note_on,0,0,4,,,,,,,,0,,,51,0
133684,note_on,0,0,1,,,,,,,,0,,,96,0
133684,note_on,64,0,1,,,,,,,,0,,,84,0
133684,note_on,0,0,1,,,,,,,,0,,,90,0
133684,note_on,40,0,4,,,,,,,,0,,,56,0
133699,set_tempo,22,1,0,,,,,,708634,,,,,,
133700,note_on,16,0,1,,,,,,,,0,,,72,80
133700,note_on,0,0,1,,,,,,,,0,,,84,80
133700,note_on,16,0,4,,,,,,,,0,,,48,80
133700,note_on,0,0,4,,,,,,,,0,,,60,80
133716,set_tempo,17,1,0,,,,,,700444,,,,,,
133738,set_tempo,22,1,0,,,,,,692441,,,,,,
133756,set_tempo,18,1,0,,,,,,684619,,,,,,
133764,note_on,0,0,1,,,,,,,,0,,,72,0
133764,note_on,0,0,4,,,,,,,,0,,,48,0
133764,note_on,64,0,1,,,,,,,,0,,,84,0
133764,note_on,64,0,4,,,,,,,,0,,,60,0
133778,set_tempo,22,1,0,,,,,,676972,,,,,,
133780,note_on,0,0,1,,,,,,,,0,,,85,80
133780,note_on,0,0,4,,,,,,,,0,,,49,80
133780,note_on,16,0,4,,,,,,,,0,,,61,80
133780,note_on,16,0,1,,,,,,,,0,,,73,80
133795,set_tempo,17,1,0,,,,,,669493,,,,,,
133817,set_tempo,22,1,0,,,,,,662179,,,,,,
133834,set_tempo,17,1,0,,,,,,655022,,,,,,
133844,note_on,64,0,4,,,,,,,,0,,,49,0
133844,note_on,0,0,4,,,,,,,,0,,,61,0
133844,note_on,64,0,1,,,,,,,,0,,,85,0
133844,note_on,0,0,1,,,,,,,,0,,,73,0
133856,set_tempo,22,1,0,,,,,,648018,,,,,,
133860,note_on,16,0,4,,,,,,,,0,,,62,80
133860,note_on,0,0,4,,,,,,,,0,,,50,80
133860,note_on,0,0,1,,,,,,,,0,,,74,80
133860,note_on,16,0,1,,,,,,,,0,,,86,80
133878,set_tempo,22,1,0,,,,,,641163,,,,,,
133895,set_tempo,17,1,0,,,,,,634451,,,,,,
133917,set_tempo,22,1,0,,,,,,627878,,,,,,
133924,note_on,64,0,1,,,,,,,,0,,,74,0
133924,note_on,64,0,4,,,,,,,,0,,,50,0
133924,note_on,0,0,4,,,,,,,,0,,,62,0
133924,note_on,0,0,1,,,,,,,,0,,,86,0
133935,set_tempo,18,1,0,,,,,,621440,,,,,,
133940,note_on,0,0,4,,,,,,,,0,,,51,80
133940,note_on,16,0,4,,,,,,,,0,,,63,80
133940,note_on,0,0,1,,,,,,,,0,,,87,80
133940,note_on,16,0,1,,,,,,,,0,,,75,80
133956,set_tempo,21,1,0,,,,,,615132,,,,,,
133974,set_tempo,18,1,0,,,,,,608952,,,,,,
133996,set_tempo,22,1,0,,,,,,602894,,,,,,
134004,note_on,0,0,4,,,,,,,,0,,,63,0
134004,note_on,64,0,1,,,,,,,,0,,,87,0
134004,note_on,0,0,1,,,,,,,,0,,,75,0
134004,note_on,64,0,4,,,,,,,,0,,,51,0
134013,set_tempo,17,1,0,,,,,,596956,,,,,,
134020,note_on,16,0,1,,,,,,,,0,,,88,80
134020,note_on,0,0,4,,,,,,,,0,,,64,80
134020,note_on,16,0,4,,,,,,,,0,,,52,80
134020,note_on,0,0,1,,,,,,,,0,,,76,80
134035,set_tempo,22,1,0,,,,,,591133,,,,,,
134052,set_tempo,17,1,0,,,,,,585423,,,,,,
134074,set_tempo,22,1,0,,,,,,579822,,,,,,
134084,note_on,64,0,1,,,,,,,,0,,,76,0
134084,note_on,0,0,4,,,,,,,,0,,,52,0
134084,note_on,64,0,4,,,,,,,,0,,,64,0
134084,note_on,0,0,1,,,,,,,,0,,,88,0
134092,set_tempo,18,1,0,,,,,,574328,,,,,,
134092,control_change,8,0,4,,,,,,,,0,64,0,,
134100,note_on,8,0,4,,,,,,,,0,,,53,80
134100,note_on,0,0,1,,,,,,,,0,,,77,80
134100,note_on,0,0,4,,,,,,,,0,,,65,80
134100,note_on,16,0,1,,,,,,,,0,,,89,80
134109,set_tempo,17,1,0,,,,,,579822,,,,,,
134124,control_change,24,0,4,,,,,,,,0,64,127,,
134127,set_tempo,18,1,0,,,,,,585423,,,,,,
134144,set_tempo,17,1,0,,,,,,591133,,,,,,
134162,set_tempo,18,1,0,,,,,,596956,,,,,,
134164,note_on,40,0,4,,,,,,,,0,,,65,0
134164,note_on,64,0,1,,,,,,,,0,,,77,0
134164,note_on,0,0,4,,,,,,,,0,,,53,0
134164,note_on,0,0,1,,,,,,,,0,,,89,0
134179,set_tempo,17,1,0,,,,,,602894,,,,,,
134180,note_on,0,0,4,,,,,,,,0,,,63,80
134180,note_on,16,0,1,,,,,,,,0,,,75,80
134180,note_on,0,0,1,,,,,,,,0,,,87,80
134180,note_on,16,0,4,,,,,,,,0,,,51,80
134196,set_tempo,17,1,0,,,,,,608952,,,,,,
134214,set_tempo,18,1,0,,,,,,615132,,,,,,
134231,set_tempo,17,1,0,,,,,,621440,,,,,,
134244,note_on,64,0,4,,,,,,,,0,,,63,0
134244,note_on,0,0,4,,,,,,,,0,,,51,0
134244,note_on,0,0,1,,,,,,,,0,,,75,0
134244,note_on,64,0,1,,,,,,,,0,,,87,0
134249,set_tempo,18,1,0,,,,,,627878,,,,,,
134260,note_on,0,0,1,,,,,,,,0,,,85,80
134260,note_on,0,0,4,,,,,,,,0,,,61,80
134260,note_on,16,0,1,,,,,,,,0,,,73,80
134260,note_on,16,0,4,,,,,,,,0,,,49,80
134266,set_tempo,17,1,0,,,,,,634451,,,,,,
134284,set_tempo,18,1,0,,,,,,641163,,,,,,
134301,set_tempo,17,1,0,,,,,,648018,,,,,,
134319,set_tempo,18,1,0,,,,,,655022,,,,,,
134324,note_on,0,0,4,,,,,,,,0,,,49,0
134324,note_on,0,0,1,,,,,,,,0,,,73,0
134324,note_on,64,0,4,,,,,,,,0,,,61,0
134324,note_on,64,0,1,,,,,,,,0,,,85,0
134336,set_tempo,17,1,0,,,,,,662179,,,,,,
134340,note_on,16,0,4,,,,,,,,0,,,60,80
134340,note_on,16,0,1,,,,,,,,0,,,72,80
134340,note_on,0,0,4,,,,,,,,0,,,48,80
134340,note_on,0,0,1,,,,,,,,0,,,84,80
134354,set_tempo,18,1,0,,,,,,669493,,,,,,
134371,set_tempo,17,1,0,,,,,,676972,,,,,,
134388,set_tempo,17,1,0,,,,,,684619,,,,,,
134404,note_on,64,0,1,,,,,,,,0,,,84,0
134404,note_on,0,0,4,,,,,,,,0,,,60,0
134404,note_on,0,0,1,,,,,,,,0,,,72,0
134404,note_on,64,0,4,,,,,,,,0,,,48,0
134406,set_tempo,18,1,0,,,,,,692441,,,,,,
134420,note_on,0,0,1,,,,,,,,0,,,69,80
134420,note_on,16,0,1,,,,,,,,0,,,81,80
134420,note_on,16,0,4,,,,,,,,0,,,57,80
134420,note_on,0,0,4,,,,,,,,0,,,45,80
134423,set_tempo,17,1,0,,,,,,700444,,,,,,
134441,set_tempo,18,1,0,,,,,,708634,,,,,,
134458,set_tempo,17,1,0,,,,,,717017,,,,,,
134476,set_tempo,18,1,0,,,,,,725602,,,,,,
134484,note_on,64,0,4,,,,,,,,0,,,45,0
134484,note_on,0,0,4,,,,,,,,0,,,57,0
134484,note_on,0,0,1,,,,,,,,0,,,81,0
134484,note_on,64,0,1,,,,,,,,0,,,69,0
134493,set_tempo,17,1,0,,,,,,734394,,,,,,
134500,note_on,0,0,1,,,,,,,,0,,,68,80
134500,note_on,16,0,4,,,,,,,,0,,,44,80
134500,note_on,0,0,4,,,,,,,,0,,,56,80
134500,note_on,16,0,1,,,,,,,,0,,,80,80
134511,set_tempo,18,1,0,,,,,,743402,,,,,,
134528,set_tempo,17,1,0,,,,,,752634,,,,,,
134546,set_tempo,18,1,0,,,,,,762098,,,,,,
134547,set_tempo,1,1,0,,,,,,762098,,,,,,
134564,note_on,0,0,4,,,,,,,,0,,,44,0
134564,note_on,64,0,1,,,,,,,,0,,,68,0
134564,note_on,64,0,4,,,,,,,,0,,,56,0
134564,note_on,0,0,1,,,,,,,,0,,,80,0
134580,note_on,16,0,1,,,,,,,,0,,,101,80
134580,note_on,0,0,1,,,,,,,,0,,,92,80
134580,note_on,0,0,1,,,,,,,,0,,,89,80
134580,note_on,0,0,4,,,,,,,,0,,,37,80
134580,note_on,0,0,4,,,,,,,,0,,,44,80
134580,control_change,16,0,4,,,,,,,,0,64,0,,
134580,note_on,0,0,4,,,,,,,,0,,,49,80
134604,control_change,24,0,4,,,,,,,,0,64,127,,
134621,set_tempo,74,1,0,,,,,,752634,,,,,,
134660,note_on,1136,0,2,,,,,,,,0,,,77,72
134660,note_on,1056,0,3,,,,,,,,0,,,56,72
134660,note_on,0,0,3,,,,,,,,0,,,61,72
134660,note_on,0,0,2,,,,,,,,0,,,80,72
134660,note_on,0,0,3,,,,,,,,0,,,65,72
134660,note_on,0,0,2,,,,,,,,0,,,89,80
134691,set_tempo,70,1,0,,,,,,743402,,,,,,
134724,note_on,0,0,3,,,,,,,,0,,,56,0
134724,note_on,0,0,3,,,,,,,,0,,,65,0
134724,note_on,64,0,2,,,,,,,,0,,,80,0
134724,note_on,0,0,2,,,,,,,,0,,,77,0
134724,note_on,64,0,3,,,,,,,,0,,,61,0
134724,note_on,0,0,2,,,,,,,,0,,,89,0
134740,note_on,16,0,3,,,,,,,,0,,,56,72
134740,note_on,0,0,2,,,,,,,,0,,,77,72
134740,note_on,0,0,2,,,,,,,,0,,,80,72
134740,note_on,16,0,2,,,,,,,,0,,,89,80
134740,note_on,0,0,3,,,,,,,,0,,,65,72
134740,note_on,0,0,3,,,,,,,,0,,,61,72
134760,set_tempo,69,1,0,,,,,,734394,,,,,,
134804,note_on,64,0,2,,,,,,,,0,,,77,0
134804,note_on,64,0,3,,,,,,,,0,,,61,0
134804,note_on,0,0,2,,,,,,,,0,,,80,0
134804,note_on,0,0,2,,,,,,,,0,,,89,0
134804,note_on,0,0,3,,,,,,,,0,,,65,0
134804,note_on,0,0,3,,,,,,,,0,,,56,0
134820,note_on,16,0,2,,,,,,,,0,,,80,72
134820,note_on,16,0,3,,,,,,,,0,,,61,72
134820,note_on,0,0,3,,,,,,,,0,,,65,72
134820,note_on,0,0,3,,,,,,,,0,,,56,72
134820,note_on,0,0,2,,,,,,,,0,,,89,80
134820,note_on,0,0,2,,,,,,,,0,,,77,72
134835,set_tempo,75,1,0,,,,,,725602,,,,,,
134884,note_on,64,0,2,,,,,,,,0,,,77,0
134884,note_on,0,0,2,,,,,,,,0,,,89,0
134884,note_on,0,0,2,,,,,,,,0,,,80,0
134884,note_on,64,0,3,,,,,,,,0,,,65,0
134884,note_on,0,0,3,,,,,,,,0,,,61,0
134884,note_on,0,0,3,,,,,,,,0,,,56,0
134900,note_on,0,0,2,,,,,,,,0,,,77,72
134900,note_on,0,0,2,,,,,,,,0,,,89,80
134900,note_on,16,0,3,,,,,,,,0,,,65,72
134900,note_on,0,0,3,,,,,,,,0,,,61,72
134900,note_on,0,0,3,,,,,,,,0,,,56,72
134900,note_on,16,0,2,,,,,,,,0,,,80,72
134904,set_tempo,69,1,0,,,,,,717017,,,,,,
134964,note_on,0,0,2,,,,,,,,0,,,80,0
134964,note_on,64,0,3,,,,,,,,0,,,56,0
134964,note_on,64,0,2,,,,,,,,0,,,77,0
134964,note_on,0,0,2,,,,,,,,0,,,89,0
134964,note_on,0,0,1,,,,,,,,0,,,92,0
134964,note_on,0,0,3,,,,,,,,0,,,65,0
134964,note_on,0,0,3,,,,,,,,0,,,61,0
134964,note_on,384,0,1,,,,,,,,0,,,89,0
134964,note_on,360,0,4,,,,,,,,0,,,49,0
134964,note_on,0,0,4,,,,,,,,0,,,44,0
134964,note_on,0,0,4,,,,,,,,0,,,37,0
134964,note_on,0,0,1,,,,,,,,0,,,101,0
134974,set_tempo,70,1,0,,,,,,708634,,,,,,
134980,note_on,0,0,3,,,,,,,,0,,,65,72
134980,note_on,0,0,3,,,,,,,,0,,,56,72
134980,note_on,0,0,2,,,,,,,,0,,,80,72
134980,note_on,16,0,2,,,,,,,,0,,,77,72
134980,note_on,16,0,3,,,,,,,,0,,,61,72
134980,note_on,0,0,2,,,,,,,,0,,,89,80
135044,note_on,64,0,3,,,,,,,,0,,,65,0
135044,note_on,64,0,2,,,,,,,,0,,,89,0
135044,note_on,0,0,2,,,,,,,,0,,,80,0
135044,note_on,0,0,3,,,,,,,,0,,,61,0
135044,set_tempo,70,1,0,,,,,,700444,,,,,,
135044,note_on,0,0,3,,,,,,,,0,,,56,0
135044,note_on,0,0,2,,,,,,,,0,,,77,0
135060,note_on,0,0,1,,,,,,,,0,,,97,80
135060,note_on,0,0,4,,,,,,,,0,,,37,80
135060,note_on,96,0,1,,,,,,,,0,,,89,80
135060,note_on,0,0,1,,,,,,,,0,,,85,80
135060,note_on,96,0,4,,,,,,,,0,,,44,80
135060,note_on,0,0,4,,,,,,,,0,,,49,80
135066,control_change,6,0,4,,,,,,,,0,64,0,,
135081,control_change,15,0,4,,,,,,,,0,64,127,,
135118,set_tempo,74,1,0,,,,,,692441,,,,,,
135140,note_on,0,0,2,,,,,,,,0,,,85,72
135140,note_on,0,0,3,,,,,,,,0,,,65,72
135140,note_on,0,0,2,,,,,,,,0,,,77,72
135140,note_on,0,0,3,,,,,,,,0,,,61,72
135140,note_on,96,0,3,,,,,,,,0,,,56,72
135140,note_on,96,0,2,,,,,,,,0,,,73,72
135188,set_tempo,70,1,0,,,,,,684619,,,,,,
135204,note_on,0,0,3,,,,,,,,0,,,56,0
135204,note_on,0,0,3,,,,,,,,0,,,65,0
135204,note_on,0,0,2,,,,,,,,0,,,73,0
135204,note_on,64,0,2,,,,,,,,0,,,85,0
135204,note_on,0,0,2,,,,,,,,0,,,77,0
135204,note_on,64,0,3,,,,,,,,0,,,61,0
135220,note_on,0,0,3,,,,,,,,0,,,65,72
135220,note_on,16,0,3,,,,,,,,0,,,56,72
135220,note_on,0,0,2,,,,,,,,0,,,85,72
135220,note_on,0,0,2,,,,,,,,0,,,73,72
135220,note_on,0,0,3,,,,,,,,0,,,61,72
135220,note_on,16,0,2,,,,,,,,0,,,77,72
135252,note_on,192,0,1,,,,,,,,0,,,85,0
135252,note_on,0,0,4,,,,,,,,0,,,49,0
135252,note_on,0,0,1,,,,,,,,0,,,97,0
135252,note_on,171,0,4,,,,,,,,0,,,37,0
135252,note_on,0,0,4,,,,,,,,0,,,44,0
135252,note_on,0,0,1,,,,,,,,0,,,89,0
135258,set_tempo,70,1,0,,,,,,676972,,,,,,
135284,note_on,0,0,2,,,,,,,,0,,,73,0
135284,note_on,0,0,3,,,,,,,,0,,,61,0
135284,note_on,64,0,3,,,,,,,,0,,,65,0
135284,note_on,64,0,2,,,,,,,,0,,,85,0
135284,note_on,0,0,3,,,,,,,,0,,,56,0
135284,note_on,0,0,2,,,,,,,,0,,,77,0
135300,note_on,48,0,1,,,,,,,,0,,,92,80
135300,note_on,48,0,4,,,,,,,,0,,,49,80
135300,note_on,0,0,4,,,,,,,,0,,,41,80
135300,note_on,0,0,4,,,,,,,,0,,,53,80
135300,note_on,0,0,1,,,,,,,,0,,,85,80
135300,note_on,0,0,1,,,,,,,,0,,,80,80
135309,control_change,9,0,4,,,,,,,,0,64,0,,
135327,control_change,18,0,4,,,,,,,,0,64,127,,
135332,set_tempo,74,1,0,,,,,,669493,,,,,,
135380,note_on,96,0,3,,,,,,,,0,,,65,72
135380,note_on,0,0,3,,,,,,,,0,,,61,72
135380,note_on,0,0,3,,,,,,,,0,,,56,72
135380,note_on,96,0,2,,,,,,,,0,,,68,72
135380,note_on,0,0,2,,,,,,,,0,,,80,72
135380,note_on,0,0,2,,,,,,,,0,,,73,72
135402,set_tempo,70,1,0,,,,,,662179,,,,,,
135444,note_on,0,0,3,,,,,,,,0,,,65,0
135444,note_on,0,0,3,,,,,,,,0,,,56,0
135444,note_on,64,0,3,,,,,,,,0,,,61,0
135444,note_on,0,0,2,,,,,,,,0,,,80,0
135444,note_on,0,0,2,,,,,,,,0,,,68,0
135444,note_on,64,0,2,,,,,,,,0,,,73,0
135460,note_on,0,0,2,,,,,,,,0,,,73,72
135460,note_on,16,0,2,,,,,,,,0,,,68,72
135460,note_on,0,0,3,,,,,,,,0,,,65,72
135460,note_on,16,0,3,,,,,,,,0,,,61,72
135460,note_on,0,0,2,,,,,,,,0,,,80,72
135460,note_on,0,0,3,,,,,,,,0,,,56,72
135472,set_tempo,70,1,0,,,,,,655022,,,,,,
135492,note_on,192,0,1,,,,,,,,0,,,85,0
135492,note_on,165,0,4,,,,,,,,0,,,41,0
135492,note_on,0,0,1,,,,,,,,0,,,92,0
135492,note_on,0,0,4,,,,,,,,0,,,49,0
135492,note_on,0,0,4,,,,,,,,0,,,53,0
135492,note_on,0,0,1,,,,,,,,0,,,80,0
135524,note_on,64,0,2,,,,,,,,0,,,80,0
135524,note_on,64,0,3,,,,,,,,0,,,65,0
135524,note_on,0,0,2,,,,,,,,0,,,68,0
135524,note_on,0,0,2,,,,,,,,0,,,73,0
135524,note_on,0,0,3,,,,,,,,0,,,61,0
135524,note_on,0,0,3,,,,,,,,0,,,56,0
135540,note_on,0,0,1,,,,,,,,0,,,96,80
135540,note_on,48,0,1,,,,,,,,0,,,88,80
135540,note_on,48,0,4,,,,,,,,0,,,55,80
135540,note_on,0,0,1,,,,,,,,0,,,84,80
135540,control_change,0,0,4,,,,,,,,0,64,0,,
135540,note_on,0,0,4,,,,,,,,0,,,43,80
135540,note_on,0,0,4,,,,,,,,0,,,49,80
135542,set_tempo,70,1,0,,,,,,648018,,,,,,
135565,control_change,25,0,4,,,,,,,,0,64,127,,
135620,note_on,96,0,2,,,,,,,,0,,,84,72
135620,note_on,96,0,3,,,,,,,,0,,,55,72
135620,note_on,0,0,3,,,,,,,,0,,,64,72
135620,note_on,0,0,3,,,,,,,,0,,,61,72
135620,note_on,0,0,2,,,,,,,,0,,,72,72
135620,note_on,0,0,2,,,,,,,,0,,,76,72
135684,note_on,64,0,3,,,,,,,,0,,,61,0
135684,note_on,0,0,3,,,,,,,,0,,,64,0
135684,note_on,0,0,2,,,,,,,,0,,,84,0
135684,note_on,0,0,2,,,,,,,,0,,,72,0
135684,note_on,0,0,3,,,,,,,,0,,,55,0
135684,note_on,64,0,2,,,,,,,,0,,,76,0
135700,note_on,16,0,3,,,,,,,,0,,,61,72
135700,note_on,16,0,2,,,,,,,,0,,,72,72
135700,note_on,0,0,3,,,,,,,,0,,,55,72
135700,note_on,0,0,3,,,,,,,,0,,,64,72
135700,note_on,0,0,2,,,,,,,,0,,,84,72
135700,note_on,0,0,2,,,,,,,,0,,,76,72
135764,note_on,0,0,3,,,,,,,,0,,,55,0
135764,note_on,0,0,3,,,,,,,,0,,,61,0
135764,note_on,64,0,2,,,,,,,,0,,,76,0
135764,note_on,64,0,3,,,,,,,,0,,,64,0
135764,note_on,0,0,2,,,,,,,,0,,,72,0
135764,note_on,0,0,2,,,,,,,,0,,,84,0
135780,note_on,0,0,3,,,,,,,,0,,,61,72
135780,note_on,0,0,2,,,,,,,,0,,,72,72
135780,note_on,0,0,2,,,,,,,,0,,,76,72
135780,note_on,16,0,2,,,,,,,,0,,,84,72
135780,note_on,0,0,3,,,,,,,,0,,,64,72
135780,note_on,16,0,3,,,,,,,,0,,,55,72
135844,note_on,0,0,3,,,,,,,,0,,,61,0
135844,note_on,64,0,2,,,,,,,,0,,,72,0
135844,note_on,0,0,2,,,,,,,,0,,,84,0
135844,note_on,0,0,2,,,,,,,,0,,,76,0
135844,note_on,0,0,3,,,,,,,,0,,,55,0
135844,note_on,64,0,3,,,,,,,,0,,,64,0
135860,note_on,16,0,2,,,,,,,,0,,,72,72
135860,note_on,0,0,2,,,,,,,,0,,,76,72
135860,note_on,0,0,2,,,,,,,,0,,,84,72
135860,note_on,0,0,3,,,,,,,,0,,,61,72
135860,note_on,16,0,3,,,,,,,,0,,,64,72
135860,note_on,0,0,3,,,,,,,,0,,,55,72
135924,note_on,0,0,4,,,,,,,,0,,,55,0
135924,note_on,0,0,4,,,,,,,,0,,,49,0
135924,note_on,0,0,1,,,,,,,,0,,,96,0
135924,note_on,64,0,2,,,,,,,,0,,,76,0
135924,note_on,0,0,3,,,,,,,,0,,,61,0
135924,note_on,0,0,1,,,,,,,,0,,,88,0
135924,note_on,0,0,3,,,,,,,,0,,,64,0
135924,note_on,64,0,3,,,,,,,,0,,,55,0
135924,note_on,0,0,2,,,,,,,,0,,,72,0
135924,note_on,0,0,2,,,,,,,,0,,,84,0
135924,note_on,384,0,1,,,,,,,,0,,,84,0
135924,note_on,359,0,4,,,,,,,,0,,,43,0
135940,note_on,0,0,3,,,,,,,,0,,,55,72
135940,note_on,0,0,2,,,,,,,,0,,,76,72
135940,note_on,16,0,3,,,,,,,,0,,,61,72
135940,note_on,16,0,2,,,,,,,,0,,,72,72
135940,note_on,0,0,3,,,,,,,,0,,,64,72
135940,note_on,0,0,2,,,,,,,,0,,,84,72
136004,note_on,0,0,2,,,,,,,,0,,,84,0
136004,note_on,0,0,2,,,,,,,,0,,,72,0
136004,note_on,64,0,3,,,,,,,,0,,,64,0
136004,note_on,0,0,3,,,,,,,,0,,,55,0
136004,note_on,64,0,2,,,,,,,,0,,,76,0
136004,note_on,0,0,3,,,,,,,,0,,,61,0
136020,note_on,0,0,4,,,,,,,,0,,,52,80
136020,note_on,0,0,1,,,,,,,,0,,,94,80
136020,note_on,96,0,4,,,,,,,,0,,,55,80
136020,note_on,0,0,4,,,,,,,,0,,,43,80
136020,note_on,0,0,1,,,,,,,,0,,,82,80
136020,note_on,96,0,1,,,,,,,,0,,,85,80
136022,control_change,2,0,4,,,,,,,,0,64,0,,
136041,control_change,19,0,4,,,,,,,,0,64,127,,
136100,note_on,0,0,2,,,,,,,,0,,,82,72
136100,note_on,0,0,3,,,,,,,,0,,,61,72
136100,note_on,0,0,2,,,,,,,,0,,,73,72
136100,note_on,96,0,2,,,,,,,,0,,,70,72
136100,note_on,96,0,3,,,,,,,,0,,,55,72
136100,note_on,0,0,3,,,,,,,,0,,,64,72
136164,note_on,0,0,2,,,,,,,,0,,,73,0
136164,note_on,0,0,2,,,,,,,,0,,,70,0
136164,note_on,0,0,3,,,,,,,,0,,,61,0
136164,note_on,64,0,3,,,,,,,,0,,,64,0
136164,note_on,64,0,2,,,,,,,,0,,,82,0
136164,note_on,0,0,3,,,,,,,,0,,,55,0
136180,note_on,0,0,3,,,,,,,,0,,,61,72
136180,note_on,16,0,2,,,,,,,,0,,,82,72
136180,note_on,0,0,3,,,,,,,,0,,,55,72
136180,note_on,16,0,3,,,,,,,,0,,,64,72
136180,note_on,0,0,2,,,,,,,,0,,,73,72
136180,note_on,0,0,2,,,,,,,,0,,,70,72
136244,note_on,0,0,3,,,,,,,,0,,,55,0
136244,note_on,64,0,2,,,,,,,,0,,,73,0
136244,note_on,0,0,2,,,,,,,,0,,,70,0
136244,note_on,0,0,2,,,,,,,,0,,,82,0
136244,note_on,64,0,3,,,,,,,,0,,,61,0
136244,note_on,0,0,3,,,,,,,,0,,,64,0
136260,note_on,16,0,2,,,,,,,,0,,,73,72
136260,note_on,16,0,3,,,,,,,,0,,,64,72
136260,note_on,0,0,2,,,,,,,,0,,,70,72
136260,note_on,0,0,3,,,,,,,,0,,,61,72
136260,note_on,0,0,2,,,,,,,,0,,,82,72
136260,note_on,0,0,3,,,,,,,,0,,,55,72
136324,note_on,64,0,3,,,,,,,,0,,,61,0
136324,note_on,0,0,3,,,,,,,,0,,,64,0
136324,note_on,0,0,2,,,,,,,,0,,,82,0
136324,note_on,64,0,2,,,,,,,,0,,,70,0
136324,note_on,0,0,2,,,,,,,,0,,,73,0
136324,note_on,0,0,3,,,,,,,,0,,,55,0
136340,note_on,16,0,3,,,,,,,,0,,,64,72
136340,note_on,0,0,2,,,,,,,,0,,,70,72
136340,note_on,0,0,3,,,,,,,,0,,,55,72
136340,note_on,0,0,3,,,,,,,,0,,,61,72
136340,note_on,0,0,2,,,,,,,,0,,,82,72
136340,note_on,16,0,2,,,,,,,,0,,,73,72
136388,note_on,368,0,1,,,,,,,,0,,,94,0
136388,note_on,347,0,4,,,,,,,,0,,,52,0
136388,note_on,0,0,4,,,,,,,,0,,,55,0
136388,note_on,0,0,4,,,,,,,,0,,,43,0
136388,note_on,0,0,1,,,,,,,,0,,,82,0
136388,note_on,0,0,1,,,,,,,,0,,,85,0
136404,note_on,0,0,3,,,,,,,,0,,,55,0
136404,note_on,0,0,3,,,,,,,,0,,,64,0
136404,note_on,64,0,2,,,,,,,,0,,,70,0
136404,note_on,0,0,2,,,,,,,,0,,,73,0
136404,note_on,64,0,3,,,,,,,,0,,,61,0
136404,note_on,0,0,2,,,,,,,,0,,,82,0
136420,note_on,0,0,1,,,,,,,,0,,,94,80
136420,note_on,32,0,4,,,,,,,,0,,,43,80
136420,note_on,0,0,4,,,,,,,,0,,,55,80
136420,note_on,0,0,4,,,,,,,,0,,,52,80
136420,note_on,0,0,1,,,,,,,,0,,,85,80
136420,note_on,32,0,1,,,,,,,,0,,,82,80
136484,note_on,0,0,1,,,,,,,,0,,,85,0
136484,note_on,0,0,4,,,,,,,,0,,,52,0
136484,note_on,64,0,4,,,,,,,,0,,,55,0
136484,note_on,0,0,4,,,,,,,,0,,,43,0
136484,note_on,64,0,1,,,,,,,,0,,,94,0
136484,note_on,0,0,1,,,,,,,,0,,,82,0
136500,control_change,16,0,4,,,,,,,,0,64,0,,
136500,note_on,0,0,1,,,,,,,,0,,,85,80
136500,note_on,0,0,1,,,,,,,,0,,,89,80
136500,note_on,16,0,1,,,,,,,,0,,,77,80
136500,note_on,0,0,4,,,,,,,,0,,,56,80
136500,note_on,0,0,4,,,,,,,,0,,,53,80
136500,note_on,0,0,4,,,,,,,,0,,,44,80
136524,control_change,24,0,4,,,,,,,,0,64,127,,
136580,note_on,176,0,2,,,,,,,,0,,,73,80
136580,note_on,0,0,3,,,,,,,,0,,,61,80
136580,note_on,176,0,3,,,,,,,,0,,,65,80
136580,note_on,0,0,2,,,,,,,,0,,,77,80
136644,note_on,64,0,2,,,,,,,,0,,,77,0
136644,note_on,0,0,2,,,,,,,,0,,,73,0
136644,note_on,0,0,3,,,,,,,,0,,,65,0
136644,note_on,64,0,3,,,,,,,,0,,,61,0
136660,note_on,16,0,3,,,,,,,,0,,,65,80
136660,note_on,16,0,2,,,,,,,,0,,,73,80
136660,note_on,0,0,2,,,,,,,,0,,,77,80
136660,note_on,0,0,3,,,,,,,,0,,,61,80
136692,note_on,0,0,1,,,,,,,,0,,,77,0
136692,note_on,0,0,4,,,,,,,,0,,,56,0
136692,note_on,0,0,4,,,,,,,,0,,,53,0
136692,note_on,0,0,1,,,,,,,,0,,,85,0
136692,note_on,192,0,1,,,,,,,,0,,,89,0
136692,note_on,168,0,4,,,,,,,,0,,,44,0
136724,note_on,64,0,3,,,,,,,,0,,,61,0
136724,note_on,0,0,3,,,,,,,,0,,,65,0
136724,note_on,0,0,2,,,,,,,,0,,,73,0
136724,note_on,64,0,2,,,,,,,,0,,,77,0
136740,note_on,0,0,1,,,,,,,,0,,,89,80
136740,note_on,0,0,1,,,,,,,,0,,,77,80
136740,note_on,48,0,1,,,,,,,,0,,,85,80
136740,note_on,0,0,4,,,,,,,,0,,,44,80
136740,note_on,48,0,4,,,,,,,,0,,,53,80
136740,note_on,0,0,4,,,,,,,,0,,,56,80
136748,control_change,8,0,4,,,,,,,,0,64,0,,
136776,control_change,28,0,4,,,,,,,,0,64,127,,
136820,note_on,96,0,2,,,,,,,,0,,,73,80
136820,note_on,96,0,3,,,,,,,,0,,,65,80
136820,note_on,0,0,3,,,,,,,,0,,,61,80
136820,note_on,0,0,2,,,,,,,,0,,,77,80
136884,note_on,0,0,2,,,,,,,,0,,,73,0
136884,note_on,64,0,3,,,,,,,,0,,,61,0
136884,note_on,64,0,2,,,,,,,,0,,,77,0
136884,note_on,0,0,3,,,,,,,,0,,,65,0
136900,note_on,16,0,2,,,,,,,,0,,,77,80
136900,note_on,0,0,2,,,,,,,,0,,,73,80
136900,note_on,0,0,3,,,,,,,,0,,,61,80
136900,note_on,16,0,3,,,,,,,,0,,,65,80
136932,note_on,0,0,1,,,,,,,,0,,,77,0
136932,note_on,0,0,1,,,,,,,,0,,,85,0
136932,note_on,192,0,1,,,,,,,,0,,,89,0
136932,note_on,0,0,4,,,,,,,,0,,,44,0
136932,note_on,156,0,4,,,,,,,,0,,,56,0
136932,note_on,0,0,4,,,,,,,,0,,,53,0
136964,note_on,0,0,3,,,,,,,,0,,,65,0
136964,note_on,64,0,3,,,,,,,,0,,,61,0
136964,note_on,0,0,2,,,,,,,,0,,,77,0
136964,note_on,64,0,2,,,,,,,,0,,,73,0
136977,set_tempo,1435,1,0,,,,,,648018,,,,,,
136980,note_on,48,0,4,,,,,,,,0,,,44,80
136980,note_on,0,0,4,,,,,,,,0,,,51,80
136980,note_on,0,0,1,,,,,,,,0,,,80,80
136980,note_on,48,0,1,,,,,,,,0,,,84,80
136980,note_on,0,0,4,,,,,,,,0,,,56,80
136980,note_on,0,0,1,,,,,,,,0,,,92,80
136988,control_change,8,0,4,,,,,,,,0,64,0,,
137012,set_tempo,35,1,0,,,,,,655022,,,,,,
137016,control_change,28,0,4,,,,,,,,0,64,127,,
137047,set_tempo,35,1,0,,,,,,662179,,,,,,
137060,note_on,0,0,3,,,,,,,,0,,,63,80
137060,note_on,96,0,2,,,,,,,,0,,,72,80
137060,note_on,0,0,2,,,,,,,,0,,,75,80
137060,note_on,96,0,3,,,,,,,,0,,,60,80
137082,set_tempo,35,1,0,,,,,,669493,,,,,,
137117,set_tempo,35,1,0,,,,,,676972,,,,,,
137124,note_on,0,0,3,,,,,,,,0,,,60,0
137124,note_on,0,0,2,,,,,,,,0,,,72,0
137124,note_on,64,0,3,,,,,,,,0,,,63,0
137124,note_on,64,0,2,,,,,,,,0,,,75,0
137140,note_on,0,0,3,,,,,,,,0,,,63,80
137140,note_on,16,0,2,,,,,,,,0,,,75,80
137140,note_on,0,0,2,,,,,,,,0,,,72,80
137140,note_on,16,0,3,,,,,,,,0,,,60,80
137152,set_tempo,35,1,0,,,,,,684619,,,,,,
137172,note_on,0,0,4,,,,,,,,0,,,56,0
137172,note_on,0,0,4,,,,,,,,0,,,44,0
137172,note_on,192,0,1,,,,,,,,0,,,80,0
137172,note_on,156,0,4,,,,,,,,0,,,51,0
137172,note_on,0,0,1,,,,,,,,0,,,92,0
137172,note_on,0,0,1,,,,,,,,0,,,84,0
137187,set_tempo,35,1,0,,,,,,692441,,,,,,
137204,note_on,64,0,3,,,,,,,,0,,,63,0
137204,note_on,64,0,2,,,,,,,,0,,,72,0
137204,note_on,0,0,2,,,,,,,,0,,,75,0
137204,note_on,0,0,3,,,,,,,,0,,,60,0
137220,note_on,0,0,4,,,,,,,,0,,,56,80
137220,note_on,0,0,1,,,,,,,,0,,,78,80
137220,note_on,0,0,1,,,,,,,,0,,,84,80
137220,note_on,48,0,4,,,,,,,,0,,,44,80
137220,note_on,0,0,4,,,,,,,,0,,,51,80
137220,note_on,48,0,1,,,,,,,,0,,,90,80
137222,set_tempo,35,1,0,,,,,,700444,,,,,,
137232,control_change,12,0,4,,,,,,,,0,64,0,,
137256,set_tempo,34,1,0,,,,,,708634,,,,,,
137268,control_change,36,0,4,,,,,,,,0,64,127,,
137291,set_tempo,35,1,0,,,,,,717017,,,,,,
137300,note_on,96,0,3,,,,,,,,0,,,63,80
137300,note_on,96,0,2,,,,,,,,0,,,75,80
137300,note_on,0,0,2,,,,,,,,0,,,72,80
137300,note_on,0,0,3,,,,,,,,0,,,60,80
137326,set_tempo,35,1,0,,,,,,725602,,,,,,
137361,set_tempo,35,1,0,,,,,,734394,,,,,,
137364,note_on,0,0,3,,,,,,,,0,,,63,0
137364,note_on,64,0,2,,,,,,,,0,,,72,0
137364,note_on,64,0,3,,,,,,,,0,,,60,0
137364,note_on,0,0,2,,,,,,,,0,,,75,0
137380,note_on,16,0,2,,,,,,,,0,,,75,80
137380,note_on,0,0,3,,,,,,,,0,,,60,80
137380,note_on,16,0,3,,,,,,,,0,,,63,80
137380,note_on,0,0,2,,,,,,,,0,,,72,80
137396,set_tempo,35,1,0,,,,,,743402,,,,,,
137412,note_on,144,0,4,,,,,,,,0,,,56,0
137412,note_on,0,0,1,,,,,,,,0,,,90,0
137412,note_on,0,0,1,,,,,,,,0,,,84,0
137412,note_on,192,0,1,,,,,,,,0,,,78,0
137412,note_on,0,0,4,,,,,,,,0,,,44,0
137412,note_on,0,0,4,,,,,,,,0,,,51,0
137431,set_tempo,35,1,0,,,,,,752634,,,,,,
137444,note_on,64,0,3,,,,,,,,0,,,60,0
137444,note_on,0,0,3,,,,,,,,0,,,63,0
137444,note_on,64,0,2,,,,,,,,0,,,72,0
137444,note_on,0,0,2,,,,,,,,0,,,75,0
137453,set_tempo,22,1,0,,,,,,627878,,,,,,
137460,note_on,0,0,4,,,,,,,,0,,,57,80
137460,note_on,0,0,4,,,,,,,,0,,,51,80
137460,control_change,48,0,4,,,,,,,,0,64,0,,
137460,note_on,48,0,1,,,,,,,,0,,,90,80
137460,note_on,0,0,1,,,,,,,,0,,,84,80
137460,note_on,0,0,4,,,,,,,,0,,,45,80
137460,note_on,0,0,1,,,,,,,,0,,,78,80
137472,control_change,12,0,4,,,,,,,,0,64,127,,
137476,set_tempo,23,1,0,,,,,,608952,,,,,,
137480,set_tempo,4,1,0,,,,,,615132,,,,,,
137528,set_tempo,48,1,0,,,,,,621440,,,,,,
137540,note_on,0,0,3,,,,,,,,0,,,66,80
137540,note_on,96,0,2,,,,,,,,0,,,78,80
137540,note_on,0,0,2,,,,,,,,0,,,75,80
137540,note_on,96,0,3,,,,,,,,0,,,63,80
137576,set_tempo,48,1,0,,,,,,627878,,,,,,
137604,note_on,64,0,3,,,,,,,,0,,,66,0
137604,note_on,0,0,3,,,,,,,,0,,,63,0
137604,note_on,0,0,2,,,,,,,,0,,,78,0
137604,note_on,64,0,2,,,,,,,,0,,,75,0
137620,note_on,16,0,2,,,,,,,,0,,,75,80
137620,note_on,16,0,3,,,,,,,,0,,,62,80
137620,note_on,0,0,2,,,,,,,,0,,,74,80
137620,note_on,0,0,3,,,,,,,,0,,,63,80
137620,note_on,0,0,3,,,,,,,,0,,,66,80
137620,note_on,0,0,2,,,,,,,,0,,,78,80
137629,set_tempo,53,1,0,,,,,,634451,,,,,,
137677,set_tempo,48,1,0,,,,,,641163,,,,,,
137684,note_on,64,0,2,,,,,,,,0,,,74,0
137684,note_on,0,0,2,,,,,,,,0,,,78,0
137684,note_on,0,0,3,,,,,,,,0,,,62,0
137684,note_on,0,0,3,,,,,,,,0,,,66,0
137684,note_on,0,0,2,,,,,,,,0,,,75,0
137684,note_on,64,0,3,,,,,,,,0,,,63,0
137700,note_on,0,0,3,,,,,,,,0,,,66,80
137700,note_on,0,0,2,,,,,,,,0,,,75,80
137700,note_on,16,0,3,,,,,,,,0,,,63,80
137700,note_on,0,0,2,,,,,,,,0,,,73,80
137700,note_on,16,0,2,,,,,,,,0,,,78,80
137700,note_on,0,0,3,,,,,,,,0,,,61,80
137725,set_tempo,48,1,0,,,,,,648018,,,,,,
137764,note_on,64,0,2,,,,,,,,0,,,75,0
137764,note_on,0,0,3,,,,,,,,0,,,63,0
137764,note_on,0,0,3,,,,,,,,0,,,61,0
137764,note_on,0,0,2,,,,,,,,0,,,73,0
137764,note_on,0,0,2,,,,,,,,0,,,78,0
137764,note_on,64,0,3,,,,,,,,0,,,66,0
137777,set_tempo,52,1,0,,,,,,655022,,,,,,
137780,note_on,0,0,3,,,,,,,,0,,,66,80
137780,note_on,0,0,3,,,,,,,,0,,,63,80
137780,note_on,0,0,2,,,,,,,,0,,,72,80
137780,note_on,16,0,2,,,,,,,,0,,,75,80
137780,note_on,0,0,2,,,,,,,,0,,,78,80
137780,note_on,16,0,3,,,,,,,,0,,,60,80
137825,set_tempo,48,1,0,,,,,,662179,,,,,,
137844,note_on,0,0,1,,,,,,,,0,,,90,0
137844,note_on,0,0,2,,,,,,,,0,,,72,0
137844,note_on,0,0,2,,,,,,,,0,,,75,0
137844,note_on,384,0,1,,,,,,,,0,,,78,0
137844,note_on,372,0,4,,,,,,,,0,,,51,0
137844,note_on,0,0,3,,,,,,,,0,,,60,0
137844,note_on,0,0,3,,,,,,,,0,,,66,0
137844,note_on,64,0,2,,,,,,,,0,,,78,0
137844,note_on,0,0,1,,,,,,,,0,,,84,0
137844,note_on,0,0,4,,,,,,,,0,,,57,0
137844,note_on,0,0,4,,,,,,,,0,,,45,0
137844,note_on,64,0,3,,,,,,,,0,,,63,0
137860,note_on,0,0,3,,,,,,,,0,,,59,80
137860,note_on,0,0,3,,,,,,,,0,,,66,80
137860,note_on,16,0,2,,,,,,,,0,,,78,80
137860,note_on,0,0,2,,,,,,,,0,,,75,80
137860,note_on,0,0,2,,,,,,,,0,,,71,80
137860,note_on,16,0,3,,,,,,,,0,,,63,80
137873,set_tempo,48,1,0,,,,,,669493,,,,,,
137924,note_on,0,0,3,,,,,,,,0,,,59,0
137924,note_on,0,0,2,,,,,,,,0,,,78,0
137924,note_on,0,0,2,,,,,,,,0,,,71,0
137924,note_on,64,0,2,,,,,,,,0,,,75,0
137924,note_on,64,0,3,,,,,,,,0,,,66,0
137924,note_on,0,0,3,,,,,,,,0,,,63,0
137926,set_tempo,53,1,0,,,,,,676972,,,,,,
137940,note_on,16,0,3,,,,,,,,0,,,58,80
137940,note_on,0,0,2,,,,,,,,0,,,78,80
137940,note_on,0,0,2,,,,,,,,0,,,75,80
137940,note_on,0,0,3,,,,,,,,0,,,66,80
137940,note_on,0,0,3,,,,,,,,0,,,63,80
137940,note_on,16,0,2,,,,,,,,0,,,70,80
137974,set_tempo,48,1,0,,,,,,684619,,,,,,
138004,note_on,64,0,2,,,,,,,,0,,,78,0
138004,note_on,0,0,2,,,,,,,,0,,,75,0
138004,note_on,0,0,2,,,,,,,,0,,,70,0
138004,note_on,0,0,3,,,,,,,,0,,,63,0
138004,note_on,0,0,3,,,,,,,,0,,,58,0
138004,note_on,64,0,3,,,,,,,,0,,,66,0
138020,note_on,0,0,3,,,,,,,,0,,,57,80
138020,note_on,0,0,3,,,,,,,,0,,,63,80
138020,note_on,16,0,3,,,,,,,,0,,,66,80
138020,note_on,0,0,2,,,,,,,,0,,,75,80
138020,note_on,0,0,2,,,,,,,,0,,,78,80
138020,note_on,16,0,2,,,,,,,,0,,,69,80
138026,set_tempo,52,1,0,,,,,,692441,,,,,,
138074,set_tempo,48,1,0,,,,,,700444,,,,,,
138084,note_on,0,0,2,,,,,,,,0,,,78,0
138084,note_on,0,0,3,,,,,,,,0,,,66,0
138084,note_on,0,0,2,,,,,,,,0,,,69,0
138084,note_on,0,0,3,,,,,,,,0,,,57,0
138084,note_on,64,0,2,,,,,,,,0,,,75,0
138084,note_on,64,0,3,,,,,,,,0,,,63,0
138100,note_on,16,0,2,,,,,,,,0,,,66,80
138100,note_on,16,0,3,,,,,,,,0,,,54,80
138100,note_on,0,0,3,,,,,,,,0,,,63,80
138100,note_on,0,0,2,,,,,,,,0,,,75,80
138100,note_on,0,0,2,,,,,,,,0,,,78,80
138122,set_tempo,48,1,0,,,,,,708634,,,,,,
138164,note_on,64,0,2,,,,,,,,0,,,78,0
138164,note_on,0,0,2,,,,,,,,0,,,66,0
138164,note_on,64,0,3,,,,,,,,0,,,63,0
138164,note_on,0,0,2,,,,,,,,0,,,75,0
138164,note_on,0,0,3,,,,,,,,0,,,54,0
138174,set_tempo,52,1,0,,,,,,717017,,,,,,
138180,note_on,0,0,3,,,,,,,,0,,,54,80
138180,note_on,0,0,2,,,,,,,,0,,,78,80
138180,note_on,0,0,2,,,,,,,,0,,,75,80
138180,note_on,16,0,3,,,,,,,,0,,,63,80
138180,note_on,16,0,2,,,,,,,,0,,,66,80
138222,set_tempo,48,1,0,,,,,,725602,,,,,,
138244,note_on,64,0,2,,,,,,,,0,,,75,0
138244,note_on,0,0,3,,,,,,,,0,,,63,0
138244,note_on,0,0,2,,,,,,,,0,,,78,0
138244,note_on,0,0,2,,,,,,,,0,,,66,0
138244,note_on,64,0,3,,,,,,,,0,,,54,0
138260,note_on,16,0,2,,,,,,,,0,,,75,80
138260,note_on,0,0,3,,,,,,,,0,,,63,80
138260,note_on,0,0,2,,,,,,,,0,,,77,80
138260,note_on,0,0,2,,,,,,,,0,,,65,80
138260,note_on,16,0,3,,,,,,,,0,,,53,80
138270,set_tempo,48,1,0,,,,,,734394,,,,,,
138323,set_tempo,53,1,0,,,,,,743402,,,,,,
138324,note_on,0,0,3,,,,,,,,0,,,53,0
138324,note_on,64,0,3,,,,,,,,0,,,63,0
138324,note_on,64,0,2,,,,,,,,0,,,65,0
138324,note_on,0,0,2,,,,,,,,0,,,77,0
138324,note_on,0,0,2,,,,,,,,0,,,75,0
138340,note_on,16,0,3,,,,,,,,0,,,41,80
138340,note_on,0,0,3,,,,,,,,0,,,53,80
138340,note_on,0,0,2,,,,,,,,0,,,77,80
138340,note_on,16,0,2,,,,,,,,0,,,89,80
138371,set_tempo,48,1,0,,,,,,752634,,,,,,
138404,note_on,64,0,3,,,,,,,,0,,,53,0
138404,note_on,0,0,3,,,,,,,,0,,,41,0
138419,set_tempo,48,1,0,,,,,,621440,,,,,,
138420,note_on,0,0,1,,,,,,,,0,,,89,80
138420,note_on,576,0,1,,,,,,,,0,,,101,80
138420,note_on,0,0,4,,,,,,,,0,,,44,80
138420,note_on,0,0,4,,,,,,,,0,,,47,80
138420,control_change,0,0,4,,,,,,,,0,64,0,,
138420,note_on,576,0,4,,,,,,,,0,,,34,80
138420,note_on,0,0,1,,,,,,,,0,,,98,80
138436,note_on,0,0,2,,,,,,,,0,,,89,0
138436,note_on,96,0,2,,,,,,,,0,,,77,0
138449,set_tempo,30,1,0,,,,,,627878,,,,,,
138452,control_change,32,0,4,,,,,,,,0,64,127,,
138475,set_tempo,26,1,0,,,,,,634451,,,,,,
138500,note_on,0,0,3,,,,,,,,0,,,65,72
138500,note_on,0,0,2,,,,,,,,0,,,83,72
138500,note_on,96,0,3,,,,,,,,0,,,68,72
138500,note_on,0,0,2,,,,,,,,0,,,80,72
138500,note_on,64,0,2,,,,,,,,0,,,71,72
138500,note_on,0,0,3,,,,,,,,0,,,59,72
138506,set_tempo,31,1,0,,,,,,641163,,,,,,
138532,set_tempo,26,1,0,,,,,,648018,,,,,,
138563,set_tempo,31,1,0,,,,,,655022,,,,,,
138564,note_on,0,0,3,,,,,,,,0,,,59,0
138564,note_on,64,0,3,,,,,,,,0,,,65,0
138564,note_on,0,0,2,,,,,,,,0,,,83,0
138564,note_on,0,0,2,,,,,,,,0,,,71,0
138564,note_on,0,0,3,,,,,,,,0,,,68,0
138564,note_on,64,0,2,,,,,,,,0,,,80,0
138580,note_on,0,0,2,,,,,,,,0,,,83,72
138580,note_on,0,0,3,,,,,,,,0,,,68,72
138580,note_on,0,0,3,,,,,,,,0,,,60,72
138580,note_on,16,0,3,,,,,,,,0,,,65,72
138580,note_on,0,0,2,,,,,,,,0,,,80,72
138580,note_on,16,0,2,,,,,,,,0,,,72,72
138589,set_tempo,26,1,0,,,,,,662179,,,,,,
138615,set_tempo,26,1,0,,,,,,669493,,,,,,
138644,note_on,0,0,3,,,,,,,,0,,,68,0
138644,note_on,0,0,2,,,,,,,,0,,,72,0
138644,note_on,0,0,2,,,,,,,,0,,,83,0
138644,note_on,0,0,3,,,,,,,,0,,,65,0
138644,note_on,64,0,3,,,,,,,,0,,,60,0
138644,note_on,64,0,2,,,,,,,,0,,,80,0
138646,set_tempo,31,1,0,,,,,,676972,,,,,,
138660,note_on,0,0,3,,,,,,,,0,,,68,72
138660,note_on,0,0,3,,,,,,,,0,,,61,72
138660,note_on,16,0,3,,,,,,,,0,,,65,72
138660,note_on,0,0,2,,,,,,,,0,,,80,72
138660,note_on,0,0,2,,,,,,,,0,,,83,72
138660,note_on,16,0,2,,,,,,,,0,,,73,72
138672,set_tempo,26,1,0,,,,,,684619,,,,,,
138702,set_tempo,30,1,0,,,,,,692441,,,,,,
138724,note_on,64,0,2,,,,,,,,0,,,83,0
138724,note_on,0,0,3,,,,,,,,0,,,68,0
138724,note_on,0,0,3,,,,,,,,0,,,65,0
138724,note_on,0,0,2,,,,,,,,0,,,80,0
138724,note_on,64,0,3,,,,,,,,0,,,61,0
138724,note_on,0,0,2,,,,,,,,0,,,73,0
138728,set_tempo,26,1,0,,,,,,700444,,,,,,
138740,note_on,16,0,2,,,,,,,,0,,,74,72
138740,note_on,0,0,2,,,,,,,,0,,,83,72
138740,note_on,0,0,2,,,,,,,,0,,,80,72
138740,note_on,0,0,3,,,,,,,,0,,,62,72
138740,note_on,0,0,3,,,,,,,,0,,,68,72
138740,note_on,16,0,3,,,,,,,,0,,,65,72
138755,set_tempo,27,1,0,,,,,,708634,,,,,,
138785,set_tempo,30,1,0,,,,,,717017,,,,,,
138804,note_on,352,0,4,,,,,,,,0,,,44,0
138804,note_on,0,0,2,,,,,,,,0,,,74,0
138804,note_on,0,0,2,,,,,,,,0,,,83,0
138804,note_on,64,0,3,,,,,,,,0,,,68,0
138804,note_on,0,0,3,,,,,,,,0,,,65,0
138804,note_on,0,0,3,,,,,,,,0,,,62,0
138804,note_on,0,0,1,,,,,,,,0,,,98,0
138804,note_on,0,0,4,,,,,,,,0,,,47,0
138804,note_on,0,0,4,,,,,,,,0,,,34,0
138804,note_on,64,0,2,,,,,,,,0,,,80,0
138804,note_on,0,0,1,,,,,,,,0,,,101,0
138804,note_on,384,0,1,,,,,,,,0,,,89,0
138811,set_tempo,26,1,0,,,,,,725602,,,,,,
138820,note_on,16,0,2,,,,,,,,0,,,83,72
138820,note_on,0,0,3,,,,,,,,0,,,65,72
138820,note_on,16,0,3,,,,,,,,0,,,68,72
138820,note_on,0,0,3,,,,,,,,0,,,59,72
138820,note_on,0,0,2,,,,,,,,0,,,71,72
138820,note_on,0,0,2,,,,,,,,0,,,80,72
138842,set_tempo,31,1,0,,,,,,734394,,,,,,
138868,set_tempo,26,1,0,,,,,,743402,,,,,,
138884,note_on,64,0,3,,,,,,,,0,,,65,0
138884,note_on,0,0,2,,,,,,,,0,,,80,0
138884,note_on,0,0,2,,,,,,,,0,,,83,0
138884,note_on,0,0,3,,,,,,,,0,,,59,0
138884,note_on,64,0,2,,,,,,,,0,,,71,0
138884,note_on,0,0,3,,,,,,,,0,,,68,0
138894,set_tempo,26,1,0,,,,,,752634,,,,,,
138899,set_tempo,5,1,0,,,,,,627878,,,,,,
138900,note_on,96,0,1,,,,,,,,0,,,91,80
138900,note_on,0,0,1,,,,,,,,0,,,83,80
138900,note_on,0,0,4,,,,,,,,0,,,39,80
138900,note_on,96,0,4,,,,,,,,0,,,52,80
138900,note_on,0,0,4,,,,,,,,0,,,49,80
138900,note_on,0,0,1,,,,,,,,0,,,95,80
138907,control_change,7,0,4,,,,,,,,0,64,0,,
138921,control_change,14,0,4,,,,,,,,0,64,127,,
138929,set_tempo,30,1,0,,,,,,634451,,,,,,
138960,set_tempo,31,1,0,,,,,,641163,,,,,,
138980,note_on,0,0,3,,,,,,,,0,,,64,72
138980,note_on,96,0,2,,,,,,,,0,,,83,72
138980,note_on,0,0,3,,,,,,,,0,,,59,72
138980,note_on,96,0,3,,,,,,,,0,,,67,72
138980,note_on,0,0,2,,,,,,,,0,,,79,72
138980,note_on,0,0,2,,,,,,,,0,,,71,72
138990,set_tempo,30,1,0,,,,,,648018,,,,,,
139021,set_tempo,31,1,0,,,,,,655022,,,,,,
139044,note_on,0,0,2,,,,,,,,0,,,83,0
139044,note_on,0,0,3,,,,,,,,0,,,64,0
139044,note_on,64,0,3,,,,,,,,0,,,59,0
139044,note_on,0,0,2,,,,,,,,0,,,79,0
139044,note_on,64,0,2,,,,,,,,0,,,71,0
139044,note_on,0,0,3,,,,,,,,0,,,67,0
139051,set_tempo,30,1,0,,,,,,662179,,,,,,
139060,note_on,0,0,3,,,,,,,,0,,,64,72
139060,note_on,0,0,3,,,,,,,,0,,,67,72
139060,note_on,16,0,3,,,,,,,,0,,,60,72
139060,note_on,16,0,2,,,,,,,,0,,,83,72
139060,note_on,0,0,2,,,,,,,,0,,,79,72
139060,note_on,0,0,2,,,,,,,,0,,,72,72
139078,set_tempo,27,1,0,,,,,,669493,,,,,,
139108,set_tempo,30,1,0,,,,,,676972,,,,,,
139124,note_on,0,0,2,,,,,,,,0,,,72,0
139124,note_on,64,0,3,,,,,,,,0,,,67,0
139124,note_on,0,0,2,,,,,,,,0,,,83,0
139124,note_on,64,0,2,,,,,,,,0,,,79,0
139124,note_on,0,0,3,,,,,,,,0,,,60,0
139124,note_on,0,0,3,,,,,,,,0,,,64,0
139139,set_tempo,31,1,0,,,,,,684619,,,,,,
139140,note_on,16,0,3,,,,,,,,0,,,61,72
139140,note_on,0,0,2,,,,,,,,0,,,73,72
139140,note_on,0,0,3,,,,,,,,0,,,67,72
139140,note_on,0,0,3,,,,,,,,0,,,64,72
139140,note_on,0,0,2,,,,,,,,0,,,79,72
139140,note_on,16,0,2,,,,,,,,0,,,83,72
139169,set_tempo,30,1,0,,,,,,692441,,,,,,
139200,set_tempo,31,1,0,,,,,,700444,,,,,,
139204,note_on,0,0,2,,,,,,,,0,,,79,0
139204,note_on,0,0,3,,,,,,,,0,,,61,0
139204,note_on,0,0,3,,,,,,,,0,,,67,0
139204,note_on,0,0,2,,,,,,,,0,,,83,0
139204,note_on,64,0,3,,,,,,,,0,,,64,0
139204,note_on,64,0,2,,,,,,,,0,,,73,0
139220,note_on,0,0,2,,,,,,,,0,,,79,72
139220,note_on,16,0,3,,,,,,,,0,,,64,72
139220,note_on,0,0,3,,,,,,,,0,,,67,72
139220,note_on,0,0,2,,,,,,,,0,,,83,72
139220,note_on,16,0,2,,,,,,,,0,,,76,72
139226,set_tempo,26,1,0,,,,,,708634,,,,,,
139256,set_tempo,30,1,0,,,,,,717017,,,,,,
139268,note_on,0,0,1,,,,,,,,0,,,95,0
139268,note_on,0,0,4,,,,,,,,0,,,52,0
139268,note_on,368,0,1,,,,,,,,0,,,83,0
139268,note_on,0,0,1,,,,,,,,0,,,91,0
139268,note_on,347,0,4,,,,,,,,0,,,39,0
139268,note_on,0,0,4,,,,,,,,0,,,49,0
139284,note_on,64,0,3,,,,,,,,0,,,67,0
139284,note_on,0,0,3,,,,,,,,0,,,64,0
139284,note_on,64,0,2,,,,,,,,0,,,79,0
139284,note_on,0,0,2,,,,,,,,0,,,83,0
139284,note_on,0,0,2,,,,,,,,0,,,76,0
139287,set_tempo,31,1,0,,,,,,725602,,,,,,
139300,note_on,0,0,4,,,,,,,,0,,,51,80
139300,note_on,32,0,1,,,,,,,,0,,,94,80
139300,note_on,32,0,4,,,,,,,,0,,,39,80
139300,note_on,0,0,1,,,,,,,,0,,,82,80
139300,note_on,0,0,1,,,,,,,,0,,,91,80
139318,set_tempo,31,1,0,,,,,,734394,,,,,,
139348,set_tempo,30,1,0,,,,,,743402,,,,,,
139364,note_on,0,0,1,,,,,,,,0,,,82,0
139364,note_on,0,0,1,,,,,,,,0,,,94,0
139364,note_on,64,0,1,,,,,,,,0,,,91,0
139374,set_tempo,26,1,0,,,,,,608952,,,,,,
139379,set_tempo,5,1,0,,,,,,835655,,,,,,
139380,note_on,80,0,4,,,,,,,,0,,,45,80
139380,note_on,16,0,1,,,,,,,,0,,,99,80
139380,note_on,0,0,1,,,,,,,,0,,,96,80
139380,control_change,0,0,4,,,,,,,,0,64,0,,
139380,note_on,0,0,4,,,,,,,,0,,,42,80
139380,note_on,0,0,4,,,,,,,,0,,,32,80
139380,note_on,0,0,1,,,,,,,,0,,,87,80
139396,note_on,16,0,4,,,,,,,,0,,,51,0
139396,set_tempo,17,1,0,,,,,,824289,,,,,,
139396,note_on,0,0,4,,,,,,,,0,,,39,0
139399,control_change,3,0,4,,,,,,,,0,64,127,,
139414,set_tempo,18,1,0,,,,,,813229,,,,,,
139427,set_tempo,13,1,0,,,,,,802461,,,,,,
139444,set_tempo,17,1,0,,,,,,791975,,,,,,
139457,set_tempo,13,1,0,,,,,,781759,,,,,,
139460,note_on,176,0,3,,,,,,,,0,,,57,72
139460,note_on,176,0,2,,,,,,,,0,,,69,72
139460,note_on,0,0,3,,,,,,,,0,,,63,72
139460,note_on,0,0,2,,,,,,,,0,,,78,72
139460,note_on,0,0,2,,,,,,,,0,,,81,72
139460,note_on,0,0,3,,,,,,,,0,,,66,72
139475,set_tempo,18,1,0,,,,,,771803,,,,,,
139488,set_tempo,13,1,0,,,,,,762098,,,,,,
139505,set_tempo,17,1,0,,,,,,752634,,,,,,
139523,set_tempo,18,1,0,,,,,,743402,,,,,,
139524,note_on,0,0,2,,,,,,,,0,,,69,0
139524,note_on,0,0,3,,,,,,,,0,,,63,0
139524,note_on,0,0,2,,,,,,,,0,,,81,0
139524,note_on,0,0,3,,,,,,,,0,,,57,0
139524,note_on,64,0,2,,,,,,,,0,,,78,0
139524,note_on,64,0,3,,,,,,,,0,,,66,0
139536,set_tempo,13,1,0,,,,,,734394,,,,,,
139540,note_on,0,0,2,,,,,,,,0,,,81,72
139540,note_on,16,0,2,,,,,,,,0,,,78,72
139540,note_on,16,0,3,,,,,,,,0,,,58,72
139540,note_on,0,0,2,,,,,,,,0,,,70,72
139540,note_on,0,0,3,,,,,,,,0,,,63,72
139540,note_on,0,0,3,,,,,,,,0,,,66,72
139553,set_tempo,17,1,0,,,,,,725602,,,,,,
139566,set_tempo,13,1,0,,,,,,717017,,,,,,
139584,set_tempo,18,1,0,,,,,,708634,,,,,,
139597,set_tempo,13,1,0,,,,,,700444,,,,,,
139604,note_on,0,0,3,,,,,,,,0,,,58,0
139604,note_on,0,0,3,,,,,,,,0,,,66,0
139604,note_on,64,0,3,,,,,,,,0,,,63,0
139604,note_on,64,0,2,,,,,,,,0,,,70,0
139604,note_on,0,0,2,,,,,,,,0,,,81,0
139604,note_on,0,0,2,,,,,,,,0,,,78,0
139614,set_tempo,17,1,0,,,,,,692441,,,,,,
139620,note_on,0,0,2,,,,,,,,0,,,71,72
139620,note_on,0,0,2,,,,,,,,0,,,81,72
139620,note_on,16,0,3,,,,,,,,0,,,59,72
139620,note_on,0,0,3,,,,,,,,0,,,63,72
139620,note_on,0,0,3,,,,,,,,0,,,66,72
139620,note_on,16,0,2,,,,,,,,0,,,78,72
139632,set_tempo,18,1,0,,,,,,684619,,,,,,
139645,set_tempo,13,1,0,,,,,,676972,,,,,,
139662,set_tempo,17,1,0,,,,,,669493,,,,,,
139675,set_tempo,13,1,0,,,,,,662179,,,,,,
139684,note_on,64,0,2,,,,,,,,0,,,81,0
139684,note_on,0,0,2,,,,,,,,0,,,71,0
139684,note_on,0,0,2,,,,,,,,0,,,78,0
139684,note_on,0,0,3,,,,,,,,0,,,66,0
139684,note_on,0,0,3,,,,,,,,0,,,59,0
139684,note_on,64,0,3,,,,,,,,0,,,63,0
139693,set_tempo,18,1,0,,,,,,655022,,,,,,
139700,note_on,16,0,2,,,,,,,,0,,,72,72
139700,note_on,16,0,3,,,,,,,,0,,,60,72
139700,note_on,0,0,3,,,,,,,,0,,,66,72
139700,note_on,0,0,2,,,,,,,,0,,,81,72
139700,note_on,0,0,2,,,,,,,,0,,,78,72
139700,note_on,0,0,3,,,,,,,,0,,,63,72
139706,set_tempo,13,1,0,,,,,,648018,,,,,,
139723,set_tempo,17,1,0,,,,,,641163,,,,,,
139741,set_tempo,18,1,0,,,,,,634451,,,,,,
139754,set_tempo,13,1,0,,,,,,627878,,,,,,
139764,note_on,365,0,4,,,,,,,,0,,,32,0
139764,note_on,0,0,1,,,,,,,,0,,,96,0
139764,note_on,0,0,4,,,,,,,,0,,,45,0
139764,note_on,0,0,3,,,,,,,,0,,,60,0
139764,note_on,0,0,3,,,,,,,,0,,,63,0
139764,note_on,0,0,2,,,,,,,,0,,,78,0
139764,note_on,0,0,2,,,,,,,,0,,,72,0
139764,note_on,0,0,4,,,,,,,,0,,,42,0
139764,note_on,384,0,1,,,,,,,,0,,,87,0
139764,note_on,0,0,1,,,,,,,,0,,,99,0
139764,note_on,64,0,2,,,,,,,,0,,,81,0
139764,note_on,64,0,3,,,,,,,,0,,,66,0
139771,set_tempo,17,1,0,,,,,,621440,,,,,,
139780,note_on,0,0,2,,,,,,,,0,,,69,72
139780,note_on,0,0,2,,,,,,,,0,,,78,72
139780,note_on,16,0,2,,,,,,,,0,,,81,72
139780,note_on,0,0,3,,,,,,,,0,,,57,72
139780,note_on,0,0,3,,,,,,,,0,,,63,72
139780,note_on,16,0,3,,,,,,,,0,,,66,72
139784,set_tempo,13,1,0,,,,,,615132,,,,,,
139802,set_tempo,18,1,0,,,,,,608952,,,,,,
139815,set_tempo,13,1,0,,,,,,602894,,,,,,
139832,set_tempo,17,1,0,,,,,,596956,,,,,,
139844,note_on,64,0,2,,,,,,,,0,,,78,0
139844,note_on,0,0,2,,,,,,,,0,,,81,0
139844,note_on,0,0,3,,,,,,,,0,,,57,0
139844,note_on,0,0,2,,,,,,,,0,,,69,0
139844,note_on,64,0,3,,,,,,,,0,,,63,0
139844,note_on,0,0,3,,,,,,,,0,,,66,0
139846,set_tempo,14,1,0,,,,,,591133,,,,,,
139850,set_tempo,4,1,0,,,,,,608952,,,,,,
139854,set_tempo,4,1,0,,,,,,985060,,,,,,
139859,set_tempo,5,1,0,,,,,,859353,,,,,,
139860,note_on,96,0,4,,,,,,,,0,,,47,80
139860,note_on,0,0,4,,,,,,,,0,,,37,80
139860,note_on,0,0,4,,,,,,,,0,,,50,80
139860,note_on,0,0,1,,,,,,,,0,,,81,80
139860,note_on,96,0,1,,,,,,,,0,,,89,80
139860,note_on,0,0,1,,,,,,,,0,,,93,80
139865,control_change,5,0,4,,,,,,,,0,64,0,,
139876,set_tempo,17,1,0,,,,,,847338,,,,,,
139882,control_change,17,0,4,,,,,,,,0,64,127,,
139894,set_tempo,18,1,0,,,,,,835655,,,,,,
139911,set_tempo,17,1,0,,,,,,824289,,,,,,
139928,set_tempo,17,1,0,,,,,,813229,,,,,,
139940,note_on,0,0,3,,,,,,,,0,,,62,72
139940,note_on,96,0,2,,,,,,,,0,,,81,72
139940,note_on,0,0,2,,,,,,,,0,,,69,72
139940,note_on,0,0,3,,,,,,,,0,,,65,72
139940,note_on,96,0,3,,,,,,,,0,,,57,72
139940,note_on,0,0,2,,,,,,,,0,,,77,72
139942,set_tempo,14,1,0,,,,,,802461,,,,,,
139959,set_tempo,17,1,0,,,,,,791975,,,,,,
139976,set_tempo,17,1,0,,,,,,781759,,,,,,
139994,set_tempo,18,1,0,,,,,,771803,,,,,,
140004,note_on,0,0,3,,,,,,,,0,,,65,0
140004,note_on,64,0,2,,,,,,,,0,,,69,0
140004,note_on,0,0,3,,,,,,,,0,,,57,0
140004,note_on,0,0,2,,,,,,,,0,,,77,0
140004,note_on,64,0,3,,,,,,,,0,,,62,0
140004,note_on,0,0,2,,,,,,,,0,,,81,0
140007,set_tempo,13,1,0,,,,,,762098,,,,,,
140020,note_on,0,0,2,,,,,,,,0,,,77,72
140020,note_on,0,0,3,,,,,,,,0,,,62,72
140020,note_on,0,0,3,,,,,,,,0,,,65,72
140020,note_on,0,0,2,,,,,,,,0,,,70,72
140020,note_on,16,0,3,,,,,,,,0,,,58,72
140020,note_on,16,0,2,,,,,,,,0,,,81,72
140024,set_tempo,17,1,0,,,,,,752634,,,,,,
140042,set_tempo,18,1,0,,,,,,743402,,,,,,
140059,set_tempo,17,1,0,,,,,,734394,,,,,,
140072,set_tempo,13,1,0,,,,,,725602,,,,,,
140084,note_on,64,0,2,,,,,,,,0,,,77,0
140084,note_on,64,0,3,,,,,,,,0,,,65,0
140084,note_on,0,0,3,,,,,,,,0,,,58,0
140084,note_on,0,0,3,,,,,,,,0,,,62,0
140084,note_on,0,0,2,,,,,,,,0,,,70,0
140084,note_on,0,0,2,,,,,,,,0,,,81,0
140090,set_tempo,18,1,0,,,,,,717017,,,,,,
140100,note_on,0,0,3,,,,,,,,0,,,62,72
140100,note_on,0,0,3,,,,,,,,0,,,65,72
140100,note_on,0,0,2,,,,,,,,0,,,71,72
140100,note_on,0,0,2,,,,,,,,0,,,81,72
140100,note_on,16,0,3,,,,,,,,0,,,59,72
140100,note_on,16,0,2,,,,,,,,0,,,77,72
140107,set_tempo,17,1,0,,,,,,708634,,,,,,
140125,set_tempo,18,1,0,,,,,,700444,,,,,,
140138,set_tempo,13,1,0,,,,,,692441,,,,,,
140155,set_tempo,17,1,0,,,,,,684619,,,,,,
140164,note_on,0,0,3,,,,,,,,0,,,59,0
140164,note_on,0,0,2,,,,,,,,0,,,81,0
140164,note_on,64,0,2,,,,,,,,0,,,71,0
140164,note_on,0,0,3,,,,,,,,0,,,65,0
140164,note_on,64,0,3,,,,,,,,0,,,62,0
140164,note_on,0,0,2,,,,,,,,0,,,77,0
140173,set_tempo,18,1,0,,,,,,676972,,,,,,
140180,note_on,16,0,2,,,,,,,,0,,,74,72
140180,note_on,0,0,2,,,,,,,,0,,,81,72
140180,note_on,16,0,3,,,,,,,,0,,,65,72
140180,note_on,0,0,2,,,,,,,,0,,,77,72
140180,note_on,0,0,3,,,,,,,,0,,,62,72
140190,set_tempo,17,1,0,,,,,,669493,,,,,,
140203,set_tempo,13,1,0,,,,,,662179,,,,,,
140221,set_tempo,18,1,0,,,,,,655022,,,,,,
140228,note_on,0,0,1,,,,,,,,0,,,89,0
140228,note_on,368,0,1,,,,,,,,0,,,81,0
140228,note_on,0,0,1,,,,,,,,0,,,93,0
140228,note_on,346,0,4,,,,,,,,0,,,50,0
140228,note_on,0,0,4,,,,,,,,0,,,47,0
140228,note_on,0,0,4,,,,,,,,0,,,37,0
140238,set_tempo,17,1,0,,,,,,648018,,,,,,
140244,note_on,64,0,2,,,,,,,,0,,,77,0
140244,note_on,0,0,3,,,,,,,,0,,,65,0
140244,note_on,64,0,3,,,,,,,,0,,,62,0
140244,note_on,0,0,2,,,,,,,,0,,,74,0
140244,note_on,0,0,2,,,,,,,,0,,,81,0
140256,set_tempo,18,1,0,,,,,,641163,,,,,,
140260,note_on,0,0,1,,,,,,,,0,,,92,80
140260,note_on,0,0,1,,,,,,,,0,,,89,80
140260,note_on,32,0,1,,,,,,,,0,,,80,80
140260,note_on,32,0,4,,,,,,,,0,,,49,80
140260,note_on,0,0,4,,,,,,,,0,,,37,80
140269,set_tempo,13,1,0,,,,,,634451,,,,,,
140286,set_tempo,17,1,0,,,,,,627878,,,,,,
140304,set_tempo,18,1,0,,,,,,621440,,,,,,
140321,set_tempo,17,1,0,,,,,,615132,,,,,,
140324,note_on,0,0,1,,,,,,,,0,,,80,0
140324,note_on,0,0,1,,,,,,,,0,,,92,0
140324,note_on,0,0,4,,,,,,,,0,,,49,0
140324,note_on,64,0,4,,,,,,,,0,,,37,0
140324,note_on,64,0,1,,,,,,,,0,,,89,0
140332,set_tempo,11,1,0,,,,,,669493,,,,,,
140340,note_on,16,0,4,,,,,,,,0,,,42,80
140340,control_change,0,0,4,,,,,,,,0,64,0,,
140340,note_on,0,0,1,,,,,,,,0,,,93,80
140340,note_on,0,0,1,,,,,,,,0,,,97,80
140340,note_on,16,0,1,,,,,,,,0,,,85,80
140340,note_on,0,0,4,,,,,,,,0,,,30,80
140358,set_tempo,26,1,0,,,,,,662179,,,,,,
140361,control_change,21,0,4,,,,,,,,0,64,127,,
140380,set_tempo,22,1,0,,,,,,655022,,,,,,
140402,set_tempo,22,1,0,,,,,,648018,,,,,,
140420,note_on,176,0,3,,,,,,,,0,,,69,80
140420,note_on,176,0,2,,,,,,,,0,,,90,80
140420,note_on,0,0,2,,,,,,,,0,,,81,80
140420,note_on,0,0,3,,,,,,,,0,,,57,80
140420,note_on,0,0,3,,,,,,,,0,,,66,80
140420,note_on,0,0,2,,,,,,,,0,,,93,80
140423,set_tempo,21,1,0,,,,,,641163,,,,,,
140445,set_tempo,22,1,0,,,,,,634451,,,,,,
140467,set_tempo,22,1,0,,,,,,627878,,,,,,
140484,note_on,0,0,2,,,,,,,,0,,,90,0
140484,note_on,0,0,2,,,,,,,,0,,,81,0
140484,note_on,0,0,3,,,,,,,,0,,,66,0
140484,note_on,0,0,3,,,,,,,,0,,,69,0
140484,note_on,64,0,3,,,,,,,,0,,,57,0
140484,note_on,64,0,2,,,,,,,,0,,,93,0
140489,set_tempo,22,1,0,,,,,,621440,,,,,,
140500,note_on,0,0,3,,,,,,,,0,,,57,80
140500,note_on,16,0,3,,,,,,,,0,,,69,80
140500,note_on,0,0,2,,,,,,,,0,,,84,80
140500,note_on,0,0,2,,,,,,,,0,,,90,80
140500,note_on,0,0,2,,,,,,,,0,,,93,80
140500,note_on,0,0,3,,,,,,,,0,,,60,80
140500,note_on,16,0,2,,,,,,,,0,,,81,80
140500,note_on,0,0,3,,,,,,,,0,,,66,80
140511,set_tempo,22,1,0,,,,,,615132,,,,,,
140532,set_tempo,21,1,0,,,,,,608952,,,,,,
140554,set_tempo,22,1,0,,,,,,602894,,,,,,
140564,note_on,0,0,2,,,,,,,,0,,,81,0
140564,note_on,64,0,2,,,,,,,,0,,,93,0
140564,note_on,0,0,3,,,,,,,,0,,,69,0
140564,note_on,0,0,3,,,,,,,,0,,,60,0
140564,note_on,0,0,2,,,,,,,,0,,,84,0
140564,note_on,0,0,3,,,,,,,,0,,,57,0
140564,note_on,0,0,2,,,,,,,,0,,,90,0
140564,note_on,64,0,3,,,,,,,,0,,,66,0
140576,set_tempo,22,1,0,,,,,,596956,,,,,,
140580,note_on,0,0,3,,,,,,,,0,,,66,80
140580,note_on,0,0,2,,,,,,,,0,,,81,80
140580,note_on,0,0,2,,,,,,,,0,,,85,80
140580,note_on,0,0,2,,,,,,,,0,,,90,80
140580,note_on,16,0,3,,,,,,,,0,,,57,80
140580,note_on,0,0,3,,,,,,,,0,,,61,80
140580,note_on,16,0,2,,,,,,,,0,,,93,80
140580,note_on,0,0,3,,,,,,,,0,,,69,80
140586,control_change,225,0,4,,,,,,,,0,64,0,,
140607,control_change,21,0,4,,,,,,,,0,64,127,,
140644,note_on,64,0,2,,,,,,,,0,,,81,0
140644,note_on,64,0,3,,,,,,,,0,,,66,0
140644,note_on,0,0,3,,,,,,,,0,,,61,0
140644,note_on,0,0,3,,,,,,,,0,,,57,0
140644,note_on,0,0,2,,,,,,,,0,,,93,0
140644,note_on,0,0,2,,,,,,,,0,,,90,0
140644,note_on,0,0,2,,,,,,,,0,,,85,0
140644,note_on,0,0,3,,,,,,,,0,,,69,0
140660,note_on,16,0,3,,,,,,,,0,,,54,80
140660,note_on,0,0,3,,,,,,,,0,,,66,80
140660,note_on,0,0,3,,,,,,,,0,,,61,80
140660,note_on,16,0,2,,,,,,,,0,,,78,80
140660,note_on,0,0,2,,,,,,,,0,,,85,80
140660,note_on,0,0,2,,,,,,,,0,,,90,80
140724,note_on,0,0,2,,,,,,,,0,,,78,0
140724,note_on,0,0,3,,,,,,,,0,,,61,0
140724,note_on,0,0,3,,,,,,,,0,,,54,0
140724,note_on,64,0,3,,,,,,,,0,,,66,0
140724,note_on,64,0,2,,,,,,,,0,,,85,0
140724,note_on,0,0,2,,,,,,,,0,,,90,0
140740,note_on,0,0,3,,,,,,,,0,,,54,80
140740,note_on,0,0,3,,,,,,,,0,,,61,80
140740,note_on,0,0,3,,,,,,,,0,,,56,80
140740,note_on,16,0,3,,,,,,,,0,,,66,80
140740,note_on,16,0,2,,,,,,,,0,,,90,80
140740,note_on,0,0,2,,,,,,,,0,,,78,80
140740,note_on,0,0,2,,,,,,,,0,,,80,80
140740,note_on,0,0,2,,,,,,,,0,,,85,80
140804,note_on,0,0,3,,,,,,,,0,,,54,0
140804,note_on,0,0,3,,,,,,,,0,,,61,0
140804,note_on,64,0,3,,,,,,,,0,,,56,0
140804,note_on,64,0,2,,,,,,,,0,,,80,0
140804,note_on,0,0,2,,,,,,,,0,,,85,0
140804,note_on,0,0,2,,,,,,,,0,,,90,0
140804,note_on,0,0,2,,,,,,,,0,,,78,0
140804,note_on,0,0,3,,,,,,,,0,,,66,0
140820,note_on,0,0,2,,,,,,,,0,,,81,80
140820,note_on,0,0,2,,,,,,,,0,,,78,80
140820,note_on,0,0,3,,,,,,,,0,,,66,80
140820,note_on,0,0,3,,,,,,,,0,,,61,80
140820,note_on,0,0,3,,,,,,,,0,,,57,80
140820,note_on,16,0,2,,,,,,,,0,,,85,80
140820,note_on,16,0,3,,,,,,,,0,,,54,80
140820,note_on,0,0,2,,,,,,,,0,,,90,80
140823,control_change,216,0,4,,,,,,,,0,64,0,,
140838,control_change,15,0,4,,,,,,,,0,64,127,,
140884,note_on,0,0,2,,,,,,,,0,,,85,0
140884,note_on,0,0,3,,,,,,,,0,,,66,0
140884,note_on,0,0,3,,,,,,,,0,,,57,0
140884,note_on,0,0,3,,,,,,,,0,,,54,0
140884,note_on,0,0,2,,,,,,,,0,,,81,0
140884,note_on,0,0,2,,,,,,,,0,,,78,0
140884,note_on,64,0,3,,,,,,,,0,,,61,0
140884,note_on,64,0,2,,,,,,,,0,,,90,0
140900,note_on,0,0,3,,,,,,,,0,,,49,80
140900,note_on,0,0,3,,,,,,,,0,,,57,80
140900,note_on,0,0,2,,,,,,,,0,,,85,80
140900,note_on,16,0,3,,,,,,,,0,,,61,80
140900,note_on,0,0,2,,,,,,,,0,,,81,80
140900,note_on,16,0,2,,,,,,,,0,,,73,80
140964,note_on,0,0,2,,,,,,,,0,,,73,0
140964,note_on,64,0,3,,,,,,,,0,,,49,0
140964,note_on,0,0,3,,,,,,,,0,,,57,0
140964,note_on,64,0,2,,,,,,,,0,,,81,0
140964,note_on,0,0,2,,,,,,,,0,,,85,0
140964,note_on,0,0,3,,,,,,,,0,,,61,0
140980,note_on,0,0,3,,,,,,,,0,,,49,80
140980,note_on,0,0,2,,,,,,,,0,,,73,80
140980,note_on,0,0,2,,,,,,,,0,,,77,80
140980,note_on,0,0,3,,,,,,,,0,,,53,80
140980,note_on,16,0,2,,,,,,,,0,,,85,80
140980,note_on,0,0,3,,,,,,,,0,,,61,80
140980,note_on,16,0,3,,,,,,,,0,,,57,80
140980,note_on,0,0,2,,,,,,,,0,,,81,80
141044,note_on,0,0,2,,,,,,,,0,,,85,0
141044,note_on,0,0,2,,,,,,,,0,,,81,0
141044,note_on,0,0,2,,,,,,,,0,,,77,0
141044,note_on,64,0,2,,,,,,,,0,,,73,0
141044,note_on,0,0,3,,,,,,,,0,,,57,0
141044,note_on,0,0,3,,,,,,,,0,,,49,0
141044,note_on,64,0,3,,,,,,,,0,,,53,0
141044,note_on,0,0,3,,,,,,,,0,,,61,0
141060,note_on,0,0,3,,,,,,,,0,,,54,80
141060,note_on,0,0,3,,,,,,,,0,,,57,80
141060,note_on,0,0,2,,,,,,,,0,,,73,80
141060,note_on,0,0,2,,,,,,,,0,,,81,80
141060,note_on,0,0,2,,,,,,,,0,,,85,80
141060,note_on,16,0,3,,,,,,,,0,,,61,80
141060,note_on,16,0,2,,,,,,,,0,,,78,80
141060,note_on,0,0,3,,,,,,,,0,,,49,80
141066,control_change,228,0,4,,,,,,,,0,64,0,,
141078,control_change,12,0,4,,,,,,,,0,64,127,,
141108,note_on,0,0,4,,,,,,,,0,,,42,0
141108,note_on,0,0,1,,,,,,,,0,,,93,0
141108,note_on,0,0,1,,,,,,,,0,,,85,0
141108,note_on,30,0,4,,,,,,,,0,,,30,0
141108,note_on,768,0,1,,,,,,,,0,,,97,0
141124,note_on,0,0,2,,,,,,,,0,,,85,0
141124,note_on,0,0,2,,,,,,,,0,,,78,0
141124,note_on,0,0,2,,,,,,,,0,,,73,0
141124,note_on,64,0,2,,,,,,,,0,,,81,0
141124,note_on,0,0,3,,,,,,,,0,,,61,0
141124,note_on,0,0,3,,,,,,,,0,,,57,0
141124,note_on,0,0,3,,,,,,,,0,,,54,0
141124,note_on,64,0,3,,,,,,,,0,,,49,0
141140,note_on,0,0,3,,,,,,,,0,,,45,80
141140,note_on,0,0,2,,,,,,,,0,,,69,80
141140,note_on,0,0,2,,,,,,,,0,,,81,80
141140,note_on,16,0,3,,,,,,,,0,,,54,80
141140,note_on,16,0,2,,,,,,,,0,,,78,80
141140,note_on,0,0,3,,,,,,,,0,,,57,80
141204,note_on,0,0,3,,,,,,,,0,,,54,0
141204,note_on,0,0,3,,,,,,,,0,,,57,0
141204,note_on,0,0,2,,,,,,,,0,,,78,0
141204,note_on,0,0,2,,,,,,,,0,,,81,0
141204,note_on,64,0,3,,,,,,,,0,,,45,0
141204,note_on,64,0,2,,,,,,,,0,,,69,0
141220,note_on,0,0,2,,,,,,,,0,,,81,80
141220,note_on,0,0,2,,,,,,,,0,,,73,80
141220,note_on,0,0,2,,,,,,,,0,,,69,80
141220,note_on,0,0,3,,,,,,,,0,,,45,80
141220,note_on,0,0,3,,,,,,,,0,,,49,80
141220,note_on,16,0,2,,,,,,,,0,,,78,80
141220,note_on,0,0,3,,,,,,,,0,,,57,80
141220,note_on,16,0,3,,,,,,,,0,,,54,80
141284,note_on,0,0,2,,,,,,,,0,,,69,0
141284,note_on,64,0,2,,,,,,,,0,,,81,0
141284,note_on,0,0,2,,,,,,,,0,,,78,0
141284,note_on,0,0,3,,,,,,,,0,,,54,0
141284,note_on,0,0,3,,,,,,,,0,,,49,0
141284,note_on,0,0,2,,,,,,,,0,,,73,0
141284,note_on,64,0,3,,,,,,,,0,,,57,0
141284,note_on,0,0,3,,,,,,,,0,,,45,0
141300,note_on,0,0,3,,,,,,,,0,,,50,80
141300,note_on,0,0,3,,,,,,,,0,,,57,80
141300,note_on,0,0,2,,,,,,,,0,,,81,80
141300,note_on,0,0,2,,,,,,,,0,,,74,80
141300,control_change,192,0,4,,,,,,,,0,64,0,,
141300,note_on,16,0,3,,,,,,,,0,,,54,80
141300,note_on,0,0,3,,,,,,,,0,,,45,80
141300,note_on,16,0,2,,,,,,,,0,,,78,80
141300,note_on,0,0,2,,,,,,,,0,,,69,80
141324,control_change,24,0,4,,,,,,,,0,64,127,,
141364,note_on,0,0,3,,,,,,,,0,,,54,0
141364,note_on,0,0,2,,,,,,,,0,,,81,0
141364,note_on,0,0,3,,,,,,,,0,,,57,0
141364,note_on,0,0,2,,,,,,,,0,,,69,0
141364,note_on,0,0,3,,,,,,,,0,,,50,0
141364,note_on,64,0,3,,,,,,,,0,,,45,0
141364,note_on,0,0,2,,,,,,,,0,,,78,0
141364,note_on,64,0,2,,,,,,,,0,,,74,0
141380,note_on,16,0,3,,,,,,,,0,,,42,80
141380,note_on,0,0,2,,,,,,,,0,,,66,80
141380,note_on,0,0,2,,,,,,,,0,,,74,80
141380,note_on,16,0,2,,,,,,,,0,,,78,80
141380,note_on,0,0,3,,,,,,,,0,,,50,80
141380,note_on,0,0,3,,,,,,,,0,,,54,80
141444,note_on,64,0,2,,,,,,,,0,,,74,0
141444,note_on,0,0,2,,,,,,,,0,,,66,0
141444,note_on,0,0,2,,,,,,,,0,,,78,0
141444,note_on,0,0,3,,,,,,,,0,,,50,0
141444,note_on,64,0,3,,,,,,,,0,,,54,0
141444,note_on,0,0,3,,,,,,,,0,,,42,0
141460,note_on,0,0,3,,,,,,,,0,,,42,80
141460,note_on,0,0,3,,,,,,,,0,,,50,80
141460,note_on,0,0,3,,,,,,,,0,,,54,80
141460,note_on,0,0,2,,,,,,,,0,,,74,80
141460,note_on,0,0,2,,,,,,,,0,,,66,80
141460,note_on,16,0,2,,,,,,,,0,,,68,80
141460,note_on,0,0,2,,,,,,,,0,,,78,80
141460,note_on,16,0,3,,,,,,,,0,,,44,80
141524,note_on,0,0,2,,,,,,,,0,,,78,0
141524,note_on,0,0,2,,,,,,,,0,,,74,0
141524,note_on,0,0,2,,,,,,,,0,,,68,0
141524,note_on,0,0,3,,,,,,,,0,,,44,0
141524,note_on,64,0,2,,,,,,,,0,,,66,0
141524,note_on,0,0,3,,,,,,,,0,,,54,0
141524,note_on,0,0,3,,,,,,,,0,,,50,0
141524,note_on,64,0,3,,,,,,,,0,,,42,0
141540,note_on,0,0,3,,,,,,,,0,,,54,80
141540,control_change,216,0,4,,,,,,,,0,64,0,,
141540,note_on,0,0,3,,,,,,,,0,,,50,80
141540,note_on,0,0,3,,,,,,,,0,,,45,80
141540,note_on,16,0,3,,,,,,,,0,,,42,80
141540,note_on,0,0,2,,,,,,,,0,,,78,80
141540,note_on,16,0,2,,,,,,,,0,,,69,80
141540,note_on,0,0,2,,,,,,,,0,,,66,80
141540,note_on,0,0,2,,,,,,,,0,,,74,80
141558,control_change,18,0,4,,,,,,,,0,64,127,,
141604,note_on,0,0,2,,,,,,,,0,,,66,0
141604,note_on,64,0,2,,,,,,,,0,,,78,0
141604,note_on,0,0,2,,,,,,,,0,,,69,0
141604,note_on,0,0,2,,,,,,,,0,,,74,0
141604,note_on,64,0,3,,,,,,,,0,,,45,0
141604,note_on,0,0,3,,,,,,,,0,,,54,0
141604,note_on,0,0,3,,,,,,,,0,,,50,0
141604,note_on,0,0,3,,,,,,,,0,,,42,0
141620,note_on,16,0,3,,,,,,,,0,,,50,80
141620,note_on,0,0,3,,,,,,,,0,,,45,80
141620,note_on,0,0,3,,,,,,,,0,,,38,80
141620,note_on,0,0,2,,,,,,,,0,,,69,80
141620,note_on,16,0,2,,,,,,,,0,,,62,80
141620,note_on,0,0,2,,,,,,,,0,,,74,80
141684,note_on,0,0,3,,,,,,,,0,,,45,0
141684,note_on,64,0,2,,,,,,,,0,,,69,0
141684,note_on,0,0,2,,,,,,,,0,,,74,0
141684,note_on,0,0,3,,,,,,,,0,,,50,0
141684,note_on,0,0,2,,,,,,,,0,,,62,0
141684,note_on,64,0,3,,,,,,,,0,,,38,0
141700,note_on,0,0,3,,,,,,,,0,,,50,80
141700,note_on,0,0,2,,,,,,,,0,,,65,80
141700,note_on,0,0,2,,,,,,,,0,,,62,80
141700,note_on,0,0,3,,,,,,,,0,,,45,80
141700,note_on,0,0,2,,,,,,,,0,,,69,80
141700,note_on,16,0,2,,,,,,,,0,,,74,80
141700,note_on,16,0,3,,,,,,,,0,,,41,80
141700,note_on,0,0,3,,,,,,,,0,,,38,80
141764,note_on,0,0,2,,,,,,,,0,,,69,0
141764,note_on,0,0,2,,,,,,,,0,,,74,0
141764,note_on,64,0,3,,,,,,,,0,,,38,0
141764,note_on,0,0,2,,,,,,,,0,,,62,0
141764,note_on,64,0,2,,,,,,,,0,,,65,0
141764,note_on,0,0,3,,,,,,,,0,,,50,0
141764,note_on,0,0,3,,,,,,,,0,,,45,0
141764,note_on,0,0,3,,,,,,,,0,,,41,0
141780,note_on,0,0,3,,,,,,,,0,,,50,80
141780,note_on,0,0,3,,,,,,,,0,,,38,80
141780,note_on,16,0,2,,,,,,,,0,,,62,80
141780,note_on,16,0,3,,,,,,,,0,,,42,80
141780,note_on,0,0,2,,,,,,,,0,,,74,80
141780,note_on,0,0,2,,,,,,,,0,,,69,80
141780,note_on,0,0,2,,,,,,,,0,,,66,80
141780,note_on,0,0,3,,,,,,,,0,,,45,80
141783,control_change,225,0,4,,,,,,,,0,64,0,,
141795,control_change,12,0,4,,,,,,,,0,64,127,,
141844,note_on,0,0,3,,,,,,,,0,,,38,0
141844,note_on,0,0,2,,,,,,,,0,,,74,0
141844,note_on,0,0,2,,,,,,,,0,,,62,0
141844,note_on,0,0,2,,,,,,,,0,,,69,0
141844,note_on,0,0,3,,,,,,,,0,,,45,0
141844,note_on,0,0,3,,,,,,,,0,,,42,0
141844,note_on,64,0,3,,,,,,,,0,,,50,0
141844,note_on,64,0,2,,,,,,,,0,,,66,0
141860,note_on,0,0,2,,,,,,,,0,,,66,80
141860,note_on,0,0,3,,,,,,,,0,,,42,80
141860,note_on,0,0,3,,,,,,,,0,,,45,80
141860,note_on,0,0,2,,,,,,,,0,,,69,80
141860,note_on,16,0,3,,,,,,,,0,,,33,80
141860,note_on,16,0,2,,,,,,,,0,,,57,80
141924,note_on,64,0,3,,,,,,,,0,,,45,0
141924,note_on,0,0,3,,,,,,,,0,,,42,0
141924,note_on,0,0,3,,,,,,,,0,,,33,0
141924,note_on,0,0,2,,,,,,,,0,,,66,0
141924,note_on,0,0,2,,,,,,,,0,,,57,0
141924,note_on,64,0,2,,,,,,,,0,,,69,0
141940,note_on,0,0,2,,,,,,,,0,,,69,80
141940,note_on,16,0,2,,,,,,,,0,,,61,80
141940,note_on,16,0,3,,,,,,,,0,,,45,80
141940,note_on,0,0,2,,,,,,,,0,,,66,80
141940,note_on,0,0,2,,,,,,,,0,,,57,80
141940,note_on,0,0,3,,,,,,,,0,,,37,80
141940,note_on,0,0,3,,,,,,,,0,,,33,80
141940,note_on,0,0,3,,,,,,,,0,,,42,80
142004,note_on,0,0,3,,,,,,,,0,,,42,0
142004,note_on,0,0,2,,,,,,,,0,,,61,0
142004,note_on,0,0,2,,,,,,,,0,,,66,0
142004,note_on,0,0,2,,,,,,,,0,,,69,0
142004,note_on,64,0,3,,,,,,,,0,,,33,0
142004,note_on,0,0,3,,,,,,,,0,,,37,0
142004,note_on,0,0,3,,,,,,,,0,,,45,0
142004,note_on,64,0,2,,,,,,,,0,,,57,0
142020,note_on,0,0,2,,,,,,,,0,,,69,80
142020,note_on,16,0,3,,,,,,,,0,,,38,80
142020,note_on,0,0,2,,,,,,,,0,,,62,80
142020,note_on,0,0,3,,,,,,,,0,,,45,80
142020,note_on,0,0,2,,,,,,,,0,,,57,80
142020,note_on,0,0,3,,,,,,,,0,,,42,80
142020,note_on,0,0,3,,,,,,,,0,,,33,80
142020,note_on,16,0,2,,,,,,,,0,,,66,80
142023,control_change,228,0,4,,,,,,,,0,64,0,,
142050,control_change,27,0,4,,,,,,,,0,64,127,,
142084,note_on,0,0,2,,,,,,,,0,,,69,0
142084,note_on,0,0,2,,,,,,,,0,,,66,0
142084,note_on,0,0,2,,,,,,,,0,,,57,0
142084,note_on,0,0,3,,,,,,,,0,,,45,0
142084,note_on,64,0,3,,,,,,,,0,,,42,0
142084,note_on,64,0,2,,,,,,,,0,,,62,0
142084,note_on,0,0,3,,,,,,,,0,,,33,0
142084,note_on,0,0,3,,,,,,,,0,,,38,0
142100,note_on,0,0,2,,,,,,,,0,,,57,80
142100,note_on,0,0,2,,,,,,,,0,,,62,80
142100,note_on,16,0,3,,,,,,,,0,,,33,80
142100,note_on,0,0,2,,,,,,,,0,,,54,80
142100,note_on,0,0,3,,,,,,,,0,,,30,80
142100,note_on,0,0,3,,,,,,,,0,,,38,80
142100,note_on,0,0,3,,,,,,,,0,,,42,80
142100,note_on,16,0,2,,,,,,,,0,,,66,80
142164,note_on,0,0,2,,,,,,,,0,,,62,0
142164,note_on,0,0,3,,,,,,,,0,,,42,0
142164,note_on,64,0,2,,,,,,,,0,,,57,0
142164,note_on,64,0,3,,,,,,,,0,,,38,0
142164,note_on,0,0,2,,,,,,,,0,,,66,0
142164,note_on,0,0,3,,,,,,,,0,,,33,0
142164,note_on,0,0,2,,,,,,,,0,,,54,0
142164,note_on,0,0,3,,,,,,,,0,,,30,0
142180,note_on,0,0,3,,,,,,,,0,,,42,80
142180,note_on,0,0,3,,,,,,,,0,,,33,80
142180,note_on,0,0,2,,,,,,,,0,,,57,80
142180,note_on,0,0,2,,,,,,,,0,,,62,80
142180,note_on,0,0,2,,,,,,,,0,,,66,80
142180,note_on,16,0,2,,,,,,,,0,,,54,80
142180,note_on,0,0,3,,,,,,,,0,,,38,80
142180,note_on,16,0,3,,,,,,,,0,,,30,80
142244,note_on,0,0,2,,,,,,,,0,,,66,0
142244,note_on,0,0,2,,,,,,,,0,,,54,0
142244,note_on,64,0,3,,,,,,,,0,,,42,0
142244,note_on,0,0,2,,,,,,,,0,,,57,0
142244,note_on,64,0,2,,,,,,,,0,,,62,0
142244,note_on,0,0,3,,,,,,,,0,,,33,0
142244,note_on,0,0,3,,,,,,,,0,,,38,0
142244,note_on,0,0,3,,,,,,,,0,,,30,0
142260,note_on,0,0,3,,,,,,,,0,,,53,72
142260,control_change,0,0,4,,,,,,,,0,64,0,,
142260,note_on,0,0,4,,,,,,,,0,,,32,88
142260,note_on,0,0,4,,,,,,,,0,,,37,88
142260,note_on,0,0,4,,,,,,,,0,,,41,88
142260,note_on,0,0,1,,,,,,,,0,,,65,72
142260,note_on,1152,0,1,,,,,,,,0,,,61,72
142260,note_on,16,0,3,,,,,,,,0,,,56,72
142260,note_on,210,0,4,,,,,,,,0,,,44,88
142287,control_change,27,0,4,,,,,,,,0,64,127,,
142324,note_on,64,0,3,,,,,,,,0,,,53,0
142324,note_on,37,0,4,,,,,,,,0,,,37,0
142324,note_on,64,0,1,,,,,,,,0,,,65,0
142324,note_on,0,0,1,,,,,,,,0,,,61,0
142324,note_on,0,0,3,,,,,,,,0,,,56,0
142324,note_on,0,0,4,,,,,,,,0,,,32,0
142324,note_on,0,0,4,,,,,,,,0,,,44,0
142324,note_on,0,0,4,,,,,,,,0,,,41,0
142340,note_on,16,0,1,,,,,,,,0,,,61,72
142340,note_on,0,0,3,,,,,,,,0,,,56,72
142340,note_on,0,0,4,,,,,,,,0,,,31,89
142340,note_on,16,0,3,,,,,,,,0,,,53,72
142340,note_on,0,0,1,,,,,,,,0,,,65,72
142340,note_on,16,0,4,,,,,,,,0,,,43,89
142404,note_on,0,0,1,,,,,,,,0,,,61,0
142404,note_on,0,0,3,,,,,,,,0,,,53,0
142404,note_on,64,0,3,,,,,,,,0,,,56,0
142404,note_on,0,0,4,,,,,,,,0,,,43,0
142404,note_on,64,0,4,,,,,,,,0,,,31,0
142404,note_on,64,0,1,,,,,,,,0,,,65,0
142420,note_on,16,0,3,,,,,,,,0,,,53,72
142420,note_on,0,0,1,,,,,,,,0,,,61,72
142420,note_on,0,0,3,,,,,,,,0,,,56,72
142420,note_on,16,0,4,,,,,,,,0,,,44,91
142420,note_on,0,0,4,,,,,,,,0,,,32,91
142420,note_on,16,0,1,,,,,,,,0,,,65,72
142484,note_on,64,0,1,,,,,,,,0,,,61,0
142484,note_on,64,0,4,,,,,,,,0,,,32,0
142484,note_on,64,0,3,,,,,,,,0,,,56,0
142484,note_on,0,0,1,,,,,,,,0,,,65,0
142484,note_on,0,0,3,,,,,,,,0,,,53,0
142484,note_on,0,0,4,,,,,,,,0,,,44,0
142500,note_on,0,0,1,,,,,,,,0,,,61,72
142500,note_on,16,0,3,,,,,,,,0,,,56,72
142500,note_on,0,0,4,,,,,,,,0,,,33,92
142500,note_on,0,0,3,,,,,,,,0,,,53,72
142500,note_on,16,0,4,,,,,,,,0,,,45,92
142500,note_on,16,0,1,,,,,,,,0,,,65,72
142564,note_on,64,0,4,,,,,,,,0,,,33,0
142564,note_on,0,0,3,,,,,,,,0,,,56,0
142564,note_on,0,0,1,,,,,,,,0,,,65,0
142564,note_on,0,0,4,,,,,,,,0,,,45,0
142564,note_on,64,0,1,,,,,,,,0,,,61,0
142564,note_on,64,0,3,,,,,,,,0,,,53,0
142580,note_on,16,0,1,,,,,,,,0,,,61,72
142580,note_on,16,0,3,,,,,,,,0,,,56,72
142580,note_on,0,0,3,,,,,,,,0,,,53,72
142580,note_on,0,0,1,,,,,,,,0,,,65,72
142580,note_on,16,0,4,,,,,,,,0,,,46,94
142580,note_on,0,0,4,,,,,,,,0,,,34,94
142644,note_on,64,0,4,,,,,,,,0,,,34,0
142644,note_on,0,0,3,,,,,,,,0,,,56,0
142644,note_on,64,0,3,,,,,,,,0,,,53,0
142644,note_on,64,0,1,,,,,,,,0,,,65,0
142644,note_on,0,0,1,,,,,,,,0,,,61,0
142644,note_on,0,0,4,,,,,,,,0,,,46,0
142660,note_on,0,0,4,,,,,,,,0,,,35,96
142660,note_on,0,0,3,,,,,,,,0,,,56,72
142660,note_on,16,0,1,,,,,,,,0,,,65,72
142660,note_on,16,0,4,,,,,,,,0,,,47,96
142660,note_on,0,0,1,,,,,,,,0,,,61,72
142660,note_on,16,0,3,,,,,,,,0,,,53,72
142724,note_on,64,0,1,,,,,,,,0,,,61,0
142724,note_on,64,0,4,,,,,,,,0,,,35,0
142724,note_on,0,0,4,,,,,,,,0,,,47,0
142724,note_on,0,0,3,,,,,,,,0,,,53,0
142724,note_on,64,0,3,,,,,,,,0,,,56,0
142724,note_on,0,0,1,,,,,,,,0,,,65,0
142740,note_on,0,0,3,,,,,,,,0,,,58,72
142740,note_on,0,0,3,,,,,,,,0,,,53,72
142740,note_on,0,0,4,,,,,,,,0,,,48,96
142740,note_on,0,0,4,,,,,,,,0,,,36,96
142740,note_on,16,0,3,,,,,,,,0,,,55,72
142740,note_on,16,0,1,,,,,,,,0,,,65,72
142740,note_on,0,0,1,,,,,,,,0,,,61,72
142740,control_change,16,0,4,,,,,,,,0,64,0,,
142758,control_change,18,0,4,,,,,,,,0,64,127,,
142804,note_on,0,0,1,,,,,,,,0,,,65,0
142804,note_on,64,0,3,,,,,,,,0,,,58,0
142804,note_on,0,0,4,,,,,,,,0,,,36,0
142804,note_on,46,0,4,,,,,,,,0,,,48,0
142804,note_on,0,0,3,,,,,,,,0,,,53,0
142804,note_on,0,0,3,,,,,,,,0,,,55,0
142804,note_on,64,0,1,,,,,,,,0,,,61,0
142820,note_on,0,0,3,,,,,,,,0,,,53,72
142820,note_on,0,0,1,,,,,,,,0,,,65,72
142820,note_on,0,0,3,,,,,,,,0,,,55,72
142820,note_on,0,0,4,,,,,,,,0,,,49,94
142820,note_on,16,0,3,,,,,,,,0,,,58,72
142820,note_on,16,0,4,,,,,,,,0,,,37,94
142820,note_on,16,0,1,,,,,,,,0,,,61,72
142884,note_on,0,0,4,,,,,,,,0,,,37,0
142884,note_on,64,0,1,,,,,,,,0,,,65,0
142884,note_on,0,0,3,,,,,,,,0,,,55,0
142884,note_on,0,0,3,,,,,,,,0,,,58,0
142884,note_on,64,0,4,,,,,,,,0,,,49,0
142884,note_on,0,0,1,,,,,,,,0,,,61,0
142884,note_on,64,0,3,,,,,,,,0,,,53,0
142900,note_on,16,0,4,,,,,,,,0,,,48,92
142900,note_on,16,0,1,,,,,,,,0,,,61,72
142900,note_on,0,0,3,,,,,,,,0,,,55,72
142900,note_on,16,0,3,,,,,,,,0,,,53,72
142900,note_on,0,0,1,,,,,,,,0,,,65,72
142900,note_on,0,0,3,,,,,,,,0,,,58,72
142900,note_on,0,0,4,,,,,,,,0,,,36,92
142964,note_on,0,0,1,,,,,,,,0,,,61,0
142964,note_on,0,0,3,,,,,,,,0,,,53,0
142964,note_on,64,0,3,,,,,,,,0,,,55,0
142964,note_on,64,0,4,,,,,,,,0,,,36,0
142964,note_on,0,0,4,,,,,,,,0,,,48,0
142964,note_on,64,0,1,,,,,,,,0,,,65,0
142964,note_on,0,0,3,,,,,,,,0,,,58,0
142980,note_on,0,0,3,,,,,,,,0,,,53,72
142980,note_on,16,0,3,,,,,,,,0,,,58,72
142980,note_on,0,0,3,,,,,,,,0,,,55,72
142980,note_on,0,0,1,,,,,,,,0,,,61,72
142980,note_on,16,0,1,,,,,,,,0,,,65,72
142980,note_on,16,0,4,,,,,,,,0,,,35,91
142980,note_on,0,0,4,,,,,,,,0,,,47,91
143044,note_on,0,0,3,,,,,,,,0,,,53,0
143044,note_on,0,0,3,,,,,,,,0,,,58,0
143044,note_on,64,0,1,,,,,,,,0,,,61,0
143044,note_on,64,0,3,,,,,,,,0,,,55,0
143044,note_on,0,0,1,,,,,,,,0,,,65,0
143044,note_on,64,0,4,,,,,,,,0,,,47,0
143044,note_on,0,0,4,,,,,,,,0,,,35,0
143060,note_on,0,0,3,,,,,,,,0,,,55,72
143060,note_on,0,0,1,,,,,,,,0,,,61,72
143060,note_on,16,0,1,,,,,,,,0,,,65,72
143060,note_on,0,0,4,,,,,,,,0,,,46,89
143060,note_on,16,0,4,,,,,,,,0,,,34,89
143060,note_on,0,0,3,,,,,,,,0,,,53,72
143060,note_on,16,0,3,,,,,,,,0,,,58,72
143124,note_on,0,0,3,,,,,,,,0,,,58,0
143124,note_on,0,0,3,,,,,,,,0,,,55,0
143124,note_on,0,0,4,,,,,,,,0,,,34,0
143124,note_on,64,0,1,,,,,,,,0,,,61,0
143124,note_on,0,0,1,,,,,,,,0,,,65,0
143124,note_on,64,0,4,,,,,,,,0,,,46,0
143124,note_on,64,0,3,,,,,,,,0,,,53,0
143140,note_on,0,0,3,,,,,,,,0,,,58,72
143140,note_on,16,0,3,,,,,,,,0,,,53,72
143140,note_on,16,0,1,,,,,,,,0,,,61,72
143140,note_on,0,0,1,,,,,,,,0,,,65,72
143140,note_on,0,0,4,,,,,,,,0,,,45,88
143140,note_on,16,0,4,,,,,,,,0,,,33,88
143140,note_on,0,0,3,,,,,,,,0,,,55,72
143204,note_on,0,0,3,,,,,,,,0,,,55,0
143204,note_on,64,0,4,,,,,,,,0,,,45,0
143204,note_on,0,0,4,,,,,,,,0,,,33,0
143204,note_on,64,0,1,,,,,,,,0,,,65,0
143204,note_on,64,0,3,,,,,,,,0,,,58,0
143204,note_on,0,0,1,,,,,,,,0,,,61,0
143204,note_on,0,0,3,,,,,,,,0,,,53,0
143211,set_tempo,2635,1,0,,,,,,591133,,,,,,
143220,note_on,0,0,3,,,,,,,,0,,,54,80
143220,note_on,16,0,3,,,,,,,,0,,,57,80
143220,control_change,16,0,4,,,,,,,,0,64,0,,
143220,note_on,0,0,1,,,,,,,,0,,,65,80
143220,note_on,0,0,4,,,,,,,,0,,,44,80
143220,note_on,0,0,4,,,,,,,,0,,,32,80
143220,note_on,16,0,1,,,,,,,,0,,,60,80
143239,control_change,19,0,4,,,,,,,,0,64,127,,
143259,set_tempo,48,1,0,,,,,,596956,,,,,,
143284,note_on,0,0,4,,,,,,,,0,,,44,0
143284,note_on,0,0,1,,,,,,,,0,,,60,0
143284,note_on,45,0,4,,,,,,,,0,,,32,0
143284,note_on,64,0,1,,,,,,,,0,,,65,0
143300,note_on,0,0,4,,,,,,,,0,,,44,80
143300,note_on,0,0,3,,,,,,,,0,,,57,0
143300,note_on,0,0,3,,,,,,,,0,,,57,80
143300,note_on,16,0,1,,,,,,,,0,,,65,80
143300,note_on,0,0,3,,,,,,,,0,,,54,80
143300,note_on,80,0,3,,,,,,,,0,,,54,0
143300,note_on,0,0,1,,,,,,,,0,,,60,80
143300,note_on,16,0,4,,,,,,,,0,,,32,80
143307,set_tempo,48,1,0,,,,,,602894,,,,,,
143355,set_tempo,48,1,0,,,,,,608952,,,,,,
143364,note_on,0,0,4,,,,,,,,0,,,32,0
143364,note_on,64,0,1,,,,,,,,0,,,60,0
143364,note_on,64,0,4,,,,,,,,0,,,44,0
143364,note_on,0,0,1,,,,,,,,0,,,65,0
143380,note_on,0,0,1,,,,,,,,0,,,60,80
143380,note_on,16,0,1,,,,,,,,0,,,65,80
143380,note_on,16,0,4,,,,,,,,0,,,44,80
143380,note_on,0,0,3,,,,,,,,0,,,57,80
143380,note_on,0,0,3,,,,,,,,0,,,57,0
143380,note_on,0,0,3,,,,,,,,0,,,54,80
143380,note_on,0,0,4,,,,,,,,0,,,32,80
143380,note_on,80,0,3,,,,,,,,0,,,54,0
143403,set_tempo,48,1,0,,,,,,615132,,,,,,
143444,note_on,64,0,4,,,,,,,,0,,,32,0
143444,note_on,0,0,4,,,,,,,,0,,,44,0
143444,note_on,64,0,1,,,,,,,,0,,,60,0
143444,note_on,0,0,1,,,,,,,,0,,,65,0
143451,set_tempo,48,1,0,,,,,,621440,,,,,,
143460,note_on,0,0,3,,,,,,,,0,,,54,80
143460,note_on,0,0,4,,,,,,,,0,,,32,80
143460,note_on,16,0,4,,,,,,,,0,,,44,80
143460,note_on,0,0,3,,,,,,,,0,,,54,0
143460,note_on,0,0,1,,,,,,,,0,,,60,80
143460,note_on,80,0,3,,,,,,,,0,,,57,0
143460,note_on,0,0,3,,,,,,,,0,,,57,80
143460,note_on,16,0,1,,,,,,,,0,,,65,80
143499,set_tempo,48,1,0,,,,,,627878,,,,,,
143524,note_on,64,0,4,,,,,,,,0,,,32,0
143524,note_on,0,0,1,,,,,,,,0,,,65,0
143524,note_on,64,0,1,,,,,,,,0,,,60,0
143524,note_on,0,0,4,,,,,,,,0,,,44,0
143540,note_on,0,0,3,,,,,,,,0,,,57,80
143540,note_on,16,0,4,,,,,,,,0,,,44,80
143540,note_on,0,0,3,,,,,,,,0,,,57,0
143540,note_on,0,0,4,,,,,,,,0,,,32,80
143540,note_on,16,0,1,,,,,,,,0,,,60,80
143540,note_on,0,0,3,,,,,,,,0,,,54,80
143540,note_on,0,0,1,,,,,,,,0,,,65,80
143540,note_on,80,0,3,,,,,,,,0,,,54,0
143547,set_tempo,48,1,0,,,,,,634451,,,,,,
143595,set_tempo,48,1,0,,,,,,641163,,,,,,
143604,note_on,0,0,4,,,,,,,,0,,,44,0
143604,note_on,64,0,1,,,,,,,,0,,,65,0
143604,note_on,0,0,1,,,,,,,,0,,,60,0
143604,note_on,64,0,4,,,,,,,,0,,,32,0
143620,note_on,0,0,4,,,,,,,,0,,,32,80
143620,note_on,16,0,1,,,,,,,,0,,,60,80
143620,note_on,80,0,3,,,,,,,,0,,,54,0
143620,note_on,0,0,3,,,,,,,,0,,,57,80
143620,note_on,0,0,1,,,,,,,,0,,,65,80
143620,note_on,0,0,3,,,,,,,,0,,,57,0
143620,note_on,0,0,3,,,,,,,,0,,,54,80
143620,note_on,16,0,4,,,,,,,,0,,,44,80
143643,set_tempo,48,1,0,,,,,,648018,,,,,,
143684,note_on,64,0,1,,,,,,,,0,,,65,0
143684,note_on,64,0,4,,,,,,,,0,,,32,0
143684,note_on,0,0,4,,,,,,,,0,,,44,0
143684,note_on,0,0,1,,,,,,,,0,,,60,0
143687,set_tempo,44,1,0,,,,,,655022,,,,,,
143698,control_change,14,0,4,,,,,,,,0,64,0,,
143700,note_on,0,0,4,,,,,,,,0,,,32,80
143700,note_on,0,0,4,,,,,,,,0,,,42,80
143700,note_on,0,0,4,,,,,,,,0,,,44,80
143700,note_on,16,0,1,,,,,,,,0,,,60,80
143700,note_on,80,0,3,,,,,,,,0,,,54,0
143700,note_on,0,0,1,,,,,,,,0,,,65,80
143700,note_on,0,0,3,,,,,,,,0,,,54,80
143700,note_on,0,0,3,,,,,,,,0,,,56,80
143700,note_on,0,0,3,,,,,,,,0,,,57,0
143700,note_on,2,0,4,,,,,,,,0,,,36,80
143717,control_change,17,0,4,,,,,,,,0,64,127,,
143735,set_tempo,48,1,0,,,,,,662179,,,,,,
143764,note_on,0,0,1,,,,,,,,0,,,60,0
143764,note_on,64,0,1,,,,,,,,0,,,65,0
143764,note_on,47,0,4,,,,,,,,0,,,32,0
143764,note_on,0,0,4,,,,,,,,0,,,44,0
143764,note_on,0,0,4,,,,,,,,0,,,42,0
143764,note_on,64,0,3,,,,,,,,0,,,54,0
143764,note_on,0,0,4,,,,,,,,0,,,36,0
143764,note_on,0,0,3,,,,,,,,0,,,56,0
143780,note_on,0,0,3,,,,,,,,0,,,56,80
143780,note_on,0,0,4,,,,,,,,0,,,44,80
143780,note_on,0,0,4,,,,,,,,0,,,42,80
143780,note_on,0,0,4,,,,,,,,0,,,32,80
143780,note_on,16,0,3,,,,,,,,0,,,54,80
143780,note_on,0,0,1,,,,,,,,0,,,60,80
143780,note_on,16,0,1,,,,,,,,0,,,65,80
143780,note_on,16,0,4,,,,,,,,0,,,36,80
143783,set_tempo,48,1,0,,,,,,669493,,,,,,
143831,set_tempo,48,1,0,,,,,,676972,,,,,,
143844,note_on,64,0,3,,,,,,,,0,,,56,0
143844,note_on,0,0,4,,,,,,,,0,,,32,0
143844,note_on,0,0,1,,,,,,,,0,,,65,0
143844,note_on,0,0,3,,,,,,,,0,,,54,0
143844,note_on,0,0,4,,,,,,,,0,,,36,0
143844,note_on,64,0,1,,,,,,,,0,,,60,0
143844,note_on,64,0,4,,,,,,,,0,,,44,0
143844,note_on,0,0,4,,,,,,,,0,,,42,0
143860,note_on,0,0,3,,,,,,,,0,,,56,80
143860,note_on,0,0,1,,,,,,,,0,,,60,80
143860,note_on,16,0,1,,,,,,,,0,,,65,80
143860,note_on,16,0,3,,,,,,,,0,,,54,80
143860,note_on,16,0,4,,,,,,,,0,,,42,80
143860,note_on,0,0,4,,,,,,,,0,,,44,80
143860,note_on,0,0,4,,,,,,,,0,,,36,80
143860,note_on,0,0,4,,,,,,,,0,,,32,80
143879,set_tempo,48,1,0,,,,,,684619,,,,,,
143924,note_on,0,0,4,,,,,,,,0,,,42,0
143924,note_on,0,0,1,,,,,,,,0,,,65,0
143924,note_on,0,0,4,,,,,,,,0,,,36,0
143924,note_on,64,0,4,,,,,,,,0,,,32,0
143924,note_on,64,0,3,,,,,,,,0,,,56,0
143924,note_on,0,0,3,,,,,,,,0,,,54,0
143924,note_on,64,0,1,,,,,,,,0,,,60,0
143924,note_on,0,0,4,,,,,,,,0,,,44,0
143927,set_tempo,48,1,0,,,,,,692441,,,,,,
143940,note_on,0,0,4,,,,,,,,0,,,42,80
143940,note_on,0,0,4,,,,,,,,0,,,36,80
143940,note_on,0,0,4,,,,,,,,0,,,32,80
143940,note_on,16,0,4,,,,,,,,0,,,44,80
143940,note_on,0,0,3,,,,,,,,0,,,56,80
143940,note_on,0,0,1,,,,,,,,0,,,63,80
143940,note_on,16,0,3,,,,,,,,0,,,54,80
143940,note_on,16,0,1,,,,,,,,0,,,60,80
143975,set_tempo,48,1,0,,,,,,700444,,,,,,
144004,note_on,64,0,1,,,,,,,,0,,,63,0
144004,note_on,64,0,4,,,,,,,,0,,,32,0
144004,note_on,0,0,1,,,,,,,,0,,,60,0
144004,note_on,0,0,4,,,,,,,,0,,,44,0
144004,note_on,0,0,4,,,,,,,,0,,,42,0
144004,note_on,64,0,3,,,,,,,,0,,,56,0
144004,note_on,0,0,4,,,,,,,,0,,,36,0
144004,note_on,0,0,3,,,,,,,,0,,,54,0
144020,note_on,0,0,4,,,,,,,,0,,,42,80
144020,note_on,0,0,1,,,,,,,,0,,,63,80
144020,note_on,16,0,4,,,,,,,,0,,,44,80
144020,note_on,16,0,1,,,,,,,,0,,,60,80
144020,note_on,0,0,4,,,,,,,,0,,,32,80
144020,note_on,0,0,3,,,,,,,,0,,,54,80
144020,note_on,16,0,3,,,,,,,,0,,,56,80
144020,note_on,0,0,4,,,,,,,,0,,,36,80
144023,set_tempo,48,1,0,,,,,,708634,,,,,,
144071,set_tempo,48,1,0,,,,,,717017,,,,,,
144084,note_on,64,0,3,,,,,,,,0,,,54,0
144084,note_on,64,0,4,,,,,,,,0,,,32,0
144084,note_on,0,0,4,,,,,,,,0,,,44,0
144084,note_on,0,0,4,,,,,,,,0,,,36,0
144084,note_on,0,0,1,,,,,,,,0,,,60,0
144084,note_on,0,0,4,,,,,,,,0,,,42,0
144084,note_on,0,0,3,,,,,,,,0,,,56,0
144084,note_on,64,0,1,,,,,,,,0,,,63,0
144100,note_on,16,0,1,,,,,,,,0,,,63,80
144100,note_on,0,0,4,,,,,,,,0,,,36,80
144100,note_on,0,0,4,,,,,,,,0,,,44,80
144100,note_on,0,0,1,,,,,,,,0,,,60,80
144100,note_on,16,0,4,,,,,,,,0,,,42,80
144100,note_on,0,0,3,,,,,,,,0,,,54,80
144100,note_on,0,0,4,,,,,,,,0,,,32,80
144100,note_on,16,0,3,,,,,,,,0,,,56,80
144119,set_tempo,48,1,0,,,,,,725602,,,,,,
144162,set_tempo,43,1,0,,,,,,734394,,,,,,
144164,note_on,0,0,4,,,,,,,,0,,,42,0
144164,note_on,64,0,4,,,,,,,,0,,,32,0
144164,note_on,64,0,1,,,,,,,,0,,,60,0
144164,note_on,0,0,4,,,,,,,,0,,,36,0
144164,note_on,0,0,4,,,,,,,,0,,,44,0
144164,note_on,0,0,3,,,,,,,,0,,,56,0
144164,note_on,64,0,3,,,,,,,,0,,,54,0
144164,note_on,0,0,1,,,,,,,,0,,,63,0
144170,set_tempo,8,1,0,,,,,,655022,,,,,,
144180,control_change,0,0,4,,,,,,,,0,64,0,,
144180,note_on,1936,0,2,,,,,,,,0,,,53,90
144180,note_on,0,0,2,,,,,,,,0,,,56,90
144180,note_on,0,0,2,,,,,,,,0,,,61,95
144180,note_on,16,0,4,,,,,,,,0,,,37,90
144204,control_change,24,0,4,,,,,,,,0,64,127,,
144228,note_on,24,0,4,,,,,,,,0,,,37,0
144240,note_on,12,0,4,,,,,,,,0,,,44,64
144240,set_tempo,70,1,0,,,,,,648018,,,,,,
144276,note_on,0,0,2,,,,,,,,0,,,53,0
144276,note_on,0,0,2,,,,,,,,0,,,56,0
144276,note_on,96,0,2,,,,,,,,0,,,61,0
144288,note_on,48,0,4,,,,,,,,0,,,44,0
144300,note_on,0,0,1,,,,,,,,0,,,65,80
144300,note_on,0,0,1,,,,,,,,0,,,68,80
144300,note_on,12,0,4,,,,,,,,0,,,49,64
144300,note_on,0,0,1,,,,,,,,0,,,73,80
144300,note_on,136,0,1,,,,,,,,0,,,77,80
144310,set_tempo,70,1,0,,,,,,641163,,,,,,
144348,note_on,48,0,4,,,,,,,,0,,,49,0
144360,note_on,12,0,4,,,,,,,,0,,,56,80
144380,set_tempo,70,1,0,,,,,,634451,,,,,,
144396,note_on,0,0,1,,,,,,,,0,,,68,0
144396,note_on,96,0,1,,,,,,,,0,,,73,0
144396,note_on,0,0,1,,,,,,,,0,,,77,0
144396,note_on,0,0,1,,,,,,,,0,,,65,0
144408,note_on,48,0,4,,,,,,,,0,,,56,0
144420,note_on,12,0,4,,,,,,,,0,,,56,80
144420,note_on,24,0,1,,,,,,,,0,,,73,80
144420,note_on,0,0,1,,,,,,,,0,,,61,80
144420,note_on,0,0,1,,,,,,,,0,,,65,80
144420,note_on,0,0,1,,,,,,,,0,,,68,80
144450,set_tempo,70,1,0,,,,,,627878,,,,,,
144468,note_on,48,0,4,,,,,,,,0,,,56,0
144480,note_on,12,0,4,,,,,,,,0,,,49,64
144516,note_on,0,0,1,,,,,,,,0,,,73,0
144516,note_on,0,0,1,,,,,,,,0,,,65,0
144516,note_on,96,0,1,,,,,,,,0,,,68,0
144516,note_on,0,0,1,,,,,,,,0,,,61,0
144519,set_tempo,69,1,0,,,,,,621440,,,,,,
144528,note_on,48,0,4,,,,,,,,0,,,49,0
144540,note_on,0,0,1,,,,,,,,0,,,77,80
144540,note_on,0,0,1,,,,,,,,0,,,68,80
144540,note_on,24,0,1,,,,,,,,0,,,65,80
144540,note_on,0,0,1,,,,,,,,0,,,73,80
144540,note_on,12,0,4,,,,,,,,0,,,44,64
144588,note_on,48,0,4,,,,,,,,0,,,44,0
144589,set_tempo,70,1,0,,,,,,615132,,,,,,
144600,note_on,12,0,4,,,,,,,,0,,,37,80
144636,note_on,0,0,1,,,,,,,,0,,,68,0
144636,note_on,96,0,1,,,,,,,,0,,,77,0
144636,note_on,0,0,1,,,,,,,,0,,,65,0
144636,note_on,0,0,1,,,,,,,,0,,,73,0
144648,note_on,48,0,4,,,,,,,,0,,,37,0
144659,set_tempo,70,1,0,,,,,,608952,,,,,,
144660,note_on,0,0,1,,,,,,,,0,,,77,80
144660,note_on,24,0,1,,,,,,,,0,,,73,80
144660,note_on,0,0,1,,,,,,,,0,,,68,80
144660,note_on,0,0,1,,,,,,,,0,,,80,80
144660,note_on,12,0,4,,,,,,,,0,,,37,80
144664,control_change,4,0,4,,,,,,,,0,64,0,,
144688,control_change,24,0,4,,,,,,,,0,64,127,,
144708,note_on,20,0,4,,,,,,,,0,,,37,0
144720,note_on,12,0,4,,,,,,,,0,,,44,64
144729,set_tempo,70,1,0,,,,,,602894,,,,,,
144756,note_on,0,0,1,,,,,,,,0,,,73,0
144756,note_on,96,0,1,,,,,,,,0,,,80,0
144756,note_on,0,0,1,,,,,,,,0,,,77,0
144756,note_on,0,0,1,,,,,,,,0,,,68,0
144768,note_on,48,0,4,,,,,,,,0,,,44,0
144780,note_on,24,0,1,,,,,,,,0,,,73,80
144780,note_on,0,0,1,,,,,,,,0,,,77,80
144780,note_on,0,0,1,,,,,,,,0,,,70,80
144780,note_on,0,0,1,,,,,,,,0,,,82,80
144780,note_on,12,0,4,,,,,,,,0,,,49,64
144799,set_tempo,70,1,0,,,,,,596956,,,,,,
144828,note_on,48,0,4,,,,,,,,0,,,49,0
144840,note_on,12,0,4,,,,,,,,0,,,56,80
144868,set_tempo,69,1,0,,,,,,591133,,,,,,
144876,note_on,0,0,1,,,,,,,,0,,,73,0
144876,note_on,0,0,1,,,,,,,,0,,,82,0
144876,note_on,0,0,1,,,,,,,,0,,,70,0
144876,note_on,96,0,1,,,,,,,,0,,,77,0
144888,note_on,48,0,4,,,,,,,,0,,,56,0
144900,note_on,0,0,1,,,,,,,,0,,,73,80
144900,note_on,0,0,1,,,,,,,,0,,,80,80
144900,note_on,0,0,1,,,,,,,,0,,,77,80
144900,note_on,12,0,4,,,,,,,,0,,,56,80
144900,note_on,24,0,1,,,,,,,,0,,,68,80
144938,set_tempo,70,1,0,,,,,,585423,,,,,,
144948,note_on,48,0,4,,,,,,,,0,,,56,0
144960,note_on,12,0,4,,,,,,,,0,,,49,64
144996,note_on,0,0,1,,,,,,,,0,,,73,0
144996,note_on,0,0,1,,,,,,,,0,,,68,0
144996,note_on,0,0,1,,,,,,,,0,,,80,0
144996,note_on,96,0,1,,,,,,,,0,,,77,0
145008,set_tempo,70,1,0,,,,,,579822,,,,,,
145008,note_on,48,0,4,,,,,,,,0,,,49,0
145020,note_on,24,0,1,,,,,,,,0,,,77,80
145020,note_on,0,0,1,,,,,,,,0,,,73,80
145020,note_on,0,0,1,,,,,,,,0,,,68,80
145020,note_on,0,0,1,,,,,,,,0,,,65,80
145020,note_on,12,0,4,,,,,,,,0,,,44,64
145068,note_on,48,0,4,,,,,,,,0,,,44,0
145078,set_tempo,70,1,0,,,,,,574328,,,,,,
145080,note_on,12,0,4,,,,,,,,0,,,37,80
145116,note_on,0,0,1,,,,,,,,0,,,77,0
145116,note_on,0,0,1,,,,,,,,0,,,68,0
145116,note_on,0,0,1,,,,,,,,0,,,65,0
145116,note_on,96,0,1,,,,,,,,0,,,73,0
145128,note_on,48,0,4,,,,,,,,0,,,37,0
145140,note_on,0,0,1,,,,,,,,0,,,65,80
145140,control_change,0,0,4,,,,,,,,0,64,0,,
145140,note_on,12,0,4,,,,,,,,0,,,37,80
145140,note_on,24,0,1,,,,,,,,0,,,68,80
145140,note_on,0,0,1,,,,,,,,0,,,73,80
145140,note_on,0,0,1,,,,,,,,0,,,61,80
145148,set_tempo,70,1,0,,,,,,568936,,,,,,
145172,control_change,32,0,4,,,,,,,,0,64,127,,
145188,note_on,16,0,4,,,,,,,,0,,,37,0
145200,note_on,12,0,4,,,,,,,,0,,,44,64
145236,note_on,96,0,1,,,,,,,,0,,,61,0
145236,note_on,0,0,1,,,,,,,,0,,,73,0
145236,note_on,0,0,1,,,,,,,,0,,,68,0
145236,note_on,0,0,1,,,,,,,,0,,,65,0
145248,note_on,48,0,4,,,,,,,,0,,,44,0
145260,note_on,0,0,1,,,,,,,,0,,,73,80
145260,note_on,0,0,1,,,,,,,,0,,,68,80
145260,note_on,0,0,1,,,,,,,,0,,,65,80
145260,note_on,12,0,4,,,,,,,,0,,,49,64
145260,note_on,24,0,1,,,,,,,,0,,,77,80
145308,note_on,48,0,4,,,,,,,,0,,,49,0
145320,note_on,12,0,4,,,,,,,,0,,,56,80
145356,note_on,0,0,1,,,,,,,,0,,,65,0
145356,note_on,96,0,1,,,,,,,,0,,,68,0
145356,note_on,0,0,1,,,,,,,,0,,,73,0
145356,note_on,0,0,1,,,,,,,,0,,,77,0
145368,note_on,48,0,4,,,,,,,,0,,,56,0
145380,note_on,0,0,1,,,,,,,,0,,,77,80
145380,note_on,0,0,1,,,,,,,,0,,,73,80
145380,note_on,0,0,1,,,,,,,,0,,,80,80
145380,note_on,24,0,1,,,,,,,,0,,,68,80
145380,note_on,12,0,4,,,,,,,,0,,,56,80
145428,note_on,48,0,4,,,,,,,,0,,,56,0
145440,note_on,12,0,4,,,,,,,,0,,,49,64
145476,note_on,0,0,1,,,,,,,,0,,,68,0
145476,note_on,0,0,1,,,,,,,,0,,,73,0
145476,note_on,0,0,1,,,,,,,,0,,,80,0
145476,note_on,96,0,1,,,,,,,,0,,,77,0
145488,note_on,48,0,4,,,,,,,,0,,,49,0
145500,note_on,12,0,4,,,,,,,,0,,,44,64
145500,note_on,24,0,1,,,,,,,,0,,,77,80
145500,note_on,0,0,1,,,,,,,,0,,,70,80
145500,note_on,0,0,1,,,,,,,,0,,,73,80
145500,note_on,0,0,1,,,,,,,,0,,,82,80
145548,note_on,48,0,4,,,,,,,,0,,,44,0
145560,note_on,12,0,4,,,,,,,,0,,,37,80
145596,note_on,0,0,1,,,,,,,,0,,,77,0
145596,note_on,0,0,1,,,,,,,,0,,,82,0
145596,note_on,96,0,1,,,,,,,,0,,,73,0
145596,note_on,0,0,1,,,,,,,,0,,,70,0
145608,note_on,48,0,4,,,,,,,,0,,,37,0
145620,note_on,24,0,1,,,,,,,,0,,,85,80
145620,note_on,12,0,4,,,,,,,,0,,,37,80
145620,control_change,0,0,4,,,,,,,,0,64,0,,
145620,note_on,0,0,1,,,,,,,,0,,,73,80
145620,note_on,0,0,1,,,,,,,,0,,,77,80
145620,note_on,0,0,1,,,,,,,,0,,,80,80
145644,control_change,24,0,4,,,,,,,,0,64,127,,
145668,note_on,24,0,4,,,,,,,,0,,,37,0
145680,note_on,12,0,4,,,,,,,,0,,,44,64
145716,note_on,96,0,1,,,,,,,,0,,,77,0
145716,note_on,0,0,1,,,,,,,,0,,,80,0
145716,note_on,0,0,1,,,,,,,,0,,,85,0
145716,note_on,0,0,1,,,,,,,,0,,,73,0
145728,note_on,48,0,4,,,,,,,,0,,,44,0
145740,note_on,12,0,4,,,,,,,,0,,,49,64
145740,note_on,0,0,1,,,,,,,,0,,,77,80
145740,note_on,0,0,1,,,,,,,,0,,,80,80
145740,note_on,0,0,1,,,,,,,,0,,,89,80
145740,note_on,24,0,1,,,,,,,,0,,,85,80
145788,note_on,48,0,4,,,,,,,,0,,,49,0
145800,note_on,12,0,4,,,,,,,,0,,,56,80
145836,note_on,0,0,1,,,,,,,,0,,,77,0
145836,note_on,0,0,1,,,,,,,,0,,,85,0
145836,note_on,0,0,1,,,,,,,,0,,,80,0
145836,note_on,96,0,1,,,,,,,,0,,,89,0
145848,note_on,48,0,4,,,,,,,,0,,,56,0
145860,note_on,12,0,4,,,,,,,,0,,,56,80
145860,note_on,0,0,1,,,,,,,,0,,,85,80
145860,note_on,0,0,1,,,,,,,,0,,,89,80
145860,note_on,0,0,1,,,,,,,,0,,,92,80
145860,note_on,24,0,1,,,,,,,,0,,,80,80
145908,note_on,48,0,4,,,,,,,,0,,,56,0
145920,note_on,12,0,4,,,,,,,,0,,,49,64
145956,note_on,0,0,1,,,,,,,,0,,,85,0
145956,note_on,0,0,1,,,,,,,,0,,,92,0
145956,note_on,96,0,1,,,,,,,,0,,,89,0
145956,note_on,0,0,1,,,,,,,,0,,,80,0
145968,note_on,48,0,4,,,,,,,,0,,,49,0
145980,note_on,0,0,1,,,,,,,,0,,,82,80
145980,note_on,0,0,1,,,,,,,,0,,,85,80
145980,note_on,0,0,1,,,,,,,,0,,,94,80
145980,note_on,24,0,1,,,,,,,,0,,,89,80
145980,note_on,12,0,4,,,,,,,,0,,,44,64
146028,note_on,48,0,4,,,,,,,,0,,,44,0
146040,note_on,12,0,4,,,,,,,,0,,,37,80
146076,note_on,96,0,1,,,,,,,,0,,,94,0
146076,note_on,0,0,1,,,,,,,,0,,,89,0
146076,note_on,0,0,1,,,,,,,,0,,,82,0
146076,note_on,0,0,1,,,,,,,,0,,,85,0
146088,note_on,48,0,4,,,,,,,,0,,,37,0
146100,control_change,0,0,4,,,,,,,,0,64,0,,
146100,note_on,24,0,1,,,,,,,,0,,,92,80
146100,note_on,0,0,1,,,,,,,,0,,,87,80
146100,note_on,0,0,1,,,,,,,,0,,,96,80
146100,note_on,0,0,1,,,,,,,,0,,,84,80
146100,note_on,12,0,4,,,,,,,,0,,,32,80
146128,control_change,28,0,4,,,,,,,,0,64,127,,
146148,note_on,20,0,4,,,,,,,,0,,,32,0
146160,note_on,12,0,4,,,,,,,,0,,,39,64
146208,note_on,48,0,4,,,,,,,,0,,,39,0
146220,note_on,12,0,4,,,,,,,,0,,,44,64
146268,note_on,48,0,4,,,,,,,,0,,,44,0
146280,note_on,12,0,4,,,,,,,,0,,,51,80
146328,note_on,48,0,4,,,,,,,,0,,,51,0
146340,note_on,12,0,4,,,,,,,,0,,,51,80
146388,note_on,48,0,4,,,,,,,,0,,,51,0
146400,note_on,12,0,4,,,,,,,,0,,,44,64
146448,note_on,48,0,4,,,,,,,,0,,,44,0
146460,note_on,12,0,4,,,,,,,,0,,,39,64
146484,note_on,0,0,1,,,,,,,,0,,,92,0
146484,note_on,384,0,1,,,,,,,,0,,,84,0
146484,note_on,0,0,1,,,,,,,,0,,,96,0
146484,note_on,0,0,1,,,,,,,,0,,,87,0
146508,note_on,48,0,4,,,,,,,,0,,,39,0
146520,note_on,12,0,4,,,,,,,,0,,,32,64
146568,note_on,48,0,4,,,,,,,,0,,,32,0
146580,note_on,96,0,1,,,,,,,,0,,,87,80
146580,note_on,0,0,1,,,,,,,,0,,,99,80
146580,note_on,0,0,1,,,,,,,,0,,,96,80
146580,note_on,0,0,1,,,,,,,,0,,,92,80
146580,note_on,12,0,4,,,,,,,,0,,,32,80
146580,control_change,0,0,4,,,,,,,,0,64,0,,
146619,control_change,39,0,4,,,,,,,,0,64,127,,
146628,note_on,9,0,4,,,,,,,,0,,,32,0
146640,note_on,12,0,4,,,,,,,,0,,,39,64
146688,note_on,48,0,4,,,,,,,,0,,,39,0
146700,note_on,12,0,4,,,,,,,,0,,,44,64
146748,note_on,48,0,4,,,,,,,,0,,,44,0
146760,note_on,12,0,4,,,,,,,,0,,,51,80
146772,note_on,0,0,1,,,,,,,,0,,,99,0
146772,note_on,0,0,1,,,,,,,,0,,,96,0
146772,note_on,0,0,1,,,,,,,,0,,,87,0
146772,note_on,192,0,1,,,,,,,,0,,,92,0
146808,note_on,48,0,4,,,,,,,,0,,,51,0
146820,note_on,12,0,4,,,,,,,,0,,,51,80
146868,note_on,48,0,4,,,,,,,,0,,,51,0
146880,note_on,12,0,4,,,,,,,,0,,,44,64
146928,note_on,48,0,4,,,,,,,,0,,,44,0
146940,note_on,12,0,4,,,,,,,,0,,,39,64
146988,note_on,48,0,4,,,,,,,,0,,,39,0
147000,note_on,0,0,1,,,,,,,,0,,,60,80
147000,note_on,0,0,1,,,,,,,,0,,,63,80
147000,note_on,0,0,1,,,,,,,,0,,,72,80
147000,note_on,12,0,4,,,,,,,,0,,,32,64
147000,note_on,228,0,1,,,,,,,,0,,,68,80
147048,note_on,48,0,1,,,,,,,,0,,,63,0
147048,note_on,48,0,4,,,,,,,,0,,,32,0
147048,note_on,0,0,1,,,,,,,,0,,,68,0
147048,note_on,0,0,1,,,,,,,,0,,,72,0
147048,note_on,0,0,1,,,,,,,,0,,,60,0
147060,note_on,12,0,1,,,,,,,,0,,,60,80
147060,note_on,0,0,1,,,,,,,,0,,,72,80
147060,note_on,0,0,1,,,,,,,,0,,,68,80
147060,note_on,0,0,1,,,,,,,,0,,,63,80
147060,note_on,12,0,4,,,,,,,,0,,,32,80
147068,control_change,8,0,4,,,,,,,,0,64,0,,
147086,control_change,18,0,4,,,,,,,,0,64,127,,
147108,note_on,22,0,4,,,,,,,,0,,,32,0
147120,note_on,12,0,4,,,,,,,,0,,,39,64
147168,note_on,48,0,4,,,,,,,,0,,,39,0
147180,note_on,12,0,4,,,,,,,,0,,,44,64
147228,note_on,48,0,4,,,,,,,,0,,,44,0
147240,note_on,12,0,4,,,,,,,,0,,,51,80
147288,note_on,48,0,4,,,,,,,,0,,,51,0
147300,note_on,12,0,4,,,,,,,,0,,,51,80
147348,note_on,48,0,4,,,,,,,,0,,,51,0
147360,note_on,12,0,4,,,,,,,,0,,,44,64
147408,note_on,48,0,4,,,,,,,,0,,,44,0
147420,note_on,12,0,4,,,,,,,,0,,,39,64
147444,note_on,384,0,1,,,,,,,,0,,,63,0
147444,note_on,0,0,1,,,,,,,,0,,,72,0
147444,note_on,0,0,1,,,,,,,,0,,,60,0
147444,note_on,0,0,1,,,,,,,,0,,,68,0
147468,note_on,48,0,4,,,,,,,,0,,,39,0
147480,note_on,12,0,4,,,,,,,,0,,,32,64
147528,note_on,48,0,4,,,,,,,,0,,,32,0
147540,note_on,96,0,1,,,,,,,,0,,,60,80
147540,note_on,0,0,1,,,,,,,,0,,,68,80
147540,note_on,0,0,1,,,,,,,,0,,,63,80
147540,note_on,0,0,1,,,,,,,,0,,,56,80
147540,note_on,12,0,4,,,,,,,,0,,,32,80
147542,control_change,2,0,4,,,,,,,,0,64,0,,
147556,control_change,14,0,4,,,,,,,,0,64,127,,
147588,note_on,32,0,4,,,,,,,,0,,,32,0
147600,note_on,12,0,4,,,,,,,,0,,,39,64
147648,note_on,48,0,4,,,,,,,,0,,,39,0
147660,note_on,12,0,4,,,,,,,,0,,,44,64
147708,note_on,48,0,4,,,,,,,,0,,,44,0
147720,note_on,12,0,4,,,,,,,,0,,,51,80
147732,note_on,0,0,1,,,,,,,,0,,,56,0
147732,note_on,192,0,1,,,,,,,,0,,,68,0
147732,note_on,0,0,1,,,,,,,,0,,,60,0
147732,note_on,0,0,1,,,,,,,,0,,,63,0
147768,note_on,48,0,4,,,,,,,,0,,,51,0
147780,note_on,12,0,4,,,,,,,,0,,,51,80
147828,note_on,48,0,4,,,,,,,,0,,,51,0
147840,note_on,12,0,4,,,,,,,,0,,,44,64
147888,note_on,48,0,4,,,,,,,,0,,,44,0
147900,note_on,12,0,4,,,,,,,,0,,,39,64
147948,note_on,48,0,4,,,,,,,,0,,,39,0
147960,note_on,12,0,4,,,,,,,,0,,,32,80
148008,note_on,48,0,4,,,,,,,,0,,,32,0
148020,control_change,0,0,4,,,,,,,,0,64,0,,
148020,note_on,12,0,4,,,,,,,,0,,,39,80
148040,control_change,20,0,4,,,,,,,,0,64,127,,
148068,note_on,28,0,4,,,,,,,,0,,,39,0
148080,note_on,12,0,4,,,,,,,,0,,,46,64
148128,note_on,48,0,4,,,,,,,,0,,,46,0
148140,note_on,0,0,1,,,,,,,,0,,,66,80
148140,note_on,0,0,1,,,,,,,,0,,,70,80
148140,note_on,12,0,4,,,,,,,,0,,,51,64
148140,note_on,0,0,1,,,,,,,,0,,,78,80
148140,note_on,408,0,1,,,,,,,,0,,,75,80
148188,note_on,48,0,4,,,,,,,,0,,,51,0
148200,note_on,12,0,4,,,,,,,,0,,,58,80
148236,note_on,0,0,1,,,,,,,,0,,,78,0
148236,note_on,96,0,1,,,,,,,,0,,,70,0
148236,note_on,0,0,1,,,,,,,,0,,,75,0
148236,note_on,0,0,1,,,,,,,,0,,,66,0
148248,note_on,48,0,4,,,,,,,,0,,,58,0
148260,note_on,12,0,4,,,,,,,,0,,,58,80
148260,note_on,24,0,1,,,,,,,,0,,,70,80
148260,note_on,0,0,1,,,,,,,,0,,,75,80
148260,note_on,0,0,1,,,,,,,,0,,,66,80
148260,note_on,0,0,1,,,,,,,,0,,,63,80
148308,note_on,48,0,4,,,,,,,,0,,,58,0
148320,note_on,12,0,4,,,,,,,,0,,,51,64
148356,note_on,0,0,1,,,,,,,,0,,,70,0
148356,note_on,0,0,1,,,,,,,,0,,,66,0
148356,note_on,96,0,1,,,,,,,,0,,,75,0
148356,note_on,0,0,1,,,,,,,,0,,,63,0
148368,note_on,48,0,4,,,,,,,,0,,,51,0
148380,note_on,12,0,4,,,,,,,,0,,,46,64
148380,note_on,24,0,1,,,,,,,,0,,,75,80
148380,note_on,0,0,1,,,,,,,,0,,,78,80
148380,note_on,0,0,1,,,,,,,,0,,,66,80
148380,note_on,0,0,1,,,,,,,,0,,,70,80
148428,note_on,48,0,4,,,,,,,,0,,,46,0
148440,note_on,12,0,4,,,,,,,,0,,,39,80
148476,note_on,0,0,1,,,,,,,,0,,,75,0
148476,note_on,96,0,1,,,,,,,,0,,,78,0
148476,note_on,0,0,1,,,,,,,,0,,,66,0
148476,note_on,0,0,1,,,,,,,,0,,,70,0
148484,control_change,44,0,4,,,,,,,,0,64,0,,
148488,note_on,4,0,4,,,,,,,,0,,,39,0
148500,note_on,0,0,1,,,,,,,,0,,,70,80
148500,note_on,0,0,1,,,,,,,,0,,,78,80
148500,note_on,12,0,4,,,,,,,,0,,,39,80
148500,note_on,0,0,1,,,,,,,,0,,,82,80
148500,note_on,24,0,1,,,,,,,,0,,,75,80
148516,control_change,16,0,4,,,,,,,,0,64,127,,
148548,note_on,32,0,4,,,,,,,,0,,,39,0
148560,note_on,12,0,4,,,,,,,,0,,,46,64
148596,note_on,0,0,1,,,,,,,,0,,,70,0
148596,note_on,0,0,1,,,,,,,,0,,,75,0
148596,note_on,0,0,1,,,,,,,,0,,,82,0
148596,note_on,96,0,1,,,,,,,,0,,,78,0
148608,note_on,48,0,4,,,,,,,,0,,,46,0
148620,note_on,0,0,1,,,,,,,,0,,,78,80
148620,note_on,24,0,1,,,,,,,,0,,,83,80
148620,note_on,0,0,1,,,,,,,,0,,,75,80
148620,note_on,12,0,4,,,,,,,,0,,,51,64
148620,note_on,0,0,1,,,,,,,,0,,,71,80
148668,note_on,48,0,4,,,,,,,,0,,,51,0
148680,note_on,12,0,4,,,,,,,,0,,,58,80
148716,note_on,0,0,1,,,,,,,,0,,,83,0
148716,note_on,96,0,1,,,,,,,,0,,,75,0
148716,note_on,0,0,1,,,,,,,,0,,,78,0
148716,note_on,0,0,1,,,,,,,,0,,,71,0
148728,note_on,48,0,4,,,,,,,,0,,,58,0
148740,note_on,0,0,1,,,,,,,,0,,,82,80
148740,note_on,0,0,1,,,,,,,,0,,,75,80
148740,note_on,12,0,4,,,,,,,,0,,,58,80
148740,note_on,24,0,1,,,,,,,,0,,,70,80
148740,note_on,0,0,1,,,,,,,,0,,,78,80
148788,note_on,48,0,4,,,,,,,,0,,,58,0
148800,note_on,12,0,4,,,,,,,,0,,,51,64
148836,note_on,0,0,1,,,,,,,,0,,,78,0
148836,note_on,0,0,1,,,,,,,,0,,,82,0
148836,note_on,0,0,1,,,,,,,,0,,,70,0
148836,note_on,96,0,1,,,,,,,,0,,,75,0
148848,note_on,48,0,4,,,,,,,,0,,,51,0
148860,note_on,0,0,1,,,,,,,,0,,,75,80
148860,note_on,0,0,1,,,,,,,,0,,,70,80
148860,note_on,12,0,4,,,,,,,,0,,,46,64
148860,note_on,0,0,1,,,,,,,,0,,,66,80
148860,note_on,24,0,1,,,,,,,,0,,,78,80
148908,note_on,48,0,4,,,,,,,,0,,,46,0
148920,note_on,12,0,4,,,,,,,,0,,,39,80
148956,note_on,96,0,1,,,,,,,,0,,,75,0
148956,note_on,0,0,1,,,,,,,,0,,,66,0
148956,note_on,0,0,1,,,,,,,,0,,,78,0
148956,note_on,0,0,1,,,,,,,,0,,,70,0
148968,note_on,48,0,4,,,,,,,,0,,,39,0
148980,control_change,0,0,4,,,,,,,,0,64,0,,
148980,note_on,0,0,1,,,,,,,,0,,,75,80
148980,note_on,12,0,4,,,,,,,,0,,,39,80
148980,note_on,0,0,1,,,,,,,,0,,,66,80
148980,note_on,24,0,1,,,,,,,,0,,,70,80
148980,note_on,0,0,1,,,,,,,,0,,,63,80
149008,control_change,28,0,4,,,,,,,,0,64,127,,
149028,note_on,20,0,4,,,,,,,,0,,,39,0
149040,note_on,12,0,4,,,,,,,,0,,,46,64
149076,note_on,0,0,1,,,,,,,,0,,,70,0
149076,note_on,96,0,1,,,,,,,,0,,,63,0
149076,note_on,0,0,1,,,,,,,,0,,,75,0
149076,note_on,0,0,1,,,,,,,,0,,,66,0
149088,note_on,48,0,4,,,,,,,,0,,,46,0
149100,note_on,0,0,1,,,,,,,,0,,,66,80
149100,note_on,12,0,4,,,,,,,,0,,,51,64
149100,note_on,24,0,1,,,,,,,,0,,,78,80
149100,note_on,0,0,1,,,,,,,,0,,,70,80
149100,note_on,0,0,1,,,,,,,,0,,,75,80
149148,note_on,48,0,4,,,,,,,,0,,,51,0
149160,note_on,12,0,4,,,,,,,,0,,,58,80
149196,note_on,96,0,1,,,,,,,,0,,,70,0
149196,note_on,0,0,1,,,,,,,,0,,,66,0
149196,note_on,0,0,1,,,,,,,,0,,,75,0
149196,note_on,0,0,1,,,,,,,,0,,,78,0
149208,note_on,48,0,4,,,,,,,,0,,,58,0
149220,note_on,12,0,4,,,,,,,,0,,,58,80
149220,note_on,0,0,1,,,,,,,,0,,,75,80
149220,note_on,0,0,1,,,,,,,,0,,,82,80
149220,note_on,0,0,1,,,,,,,,0,,,78,80
149220,note_on,24,0,1,,,,,,,,0,,,70,80
149268,note_on,48,0,4,,,,,,,,0,,,58,0
149280,note_on,12,0,4,,,,,,,,0,,,51,64
149316,note_on,0,0,1,,,,,,,,0,,,82,0
149316,note_on,0,0,1,,,,,,,,0,,,75,0
149316,note_on,0,0,1,,,,,,,,0,,,70,0
149316,note_on,96,0,1,,,,,,,,0,,,78,0
149328,note_on,48,0,4,,,,,,,,0,,,51,0
149340,note_on,0,0,1,,,,,,,,0,,,83,80
149340,note_on,0,0,1,,,,,,,,0,,,78,80
149340,note_on,0,0,1,,,,,,,,0,,,71,80
149340,note_on,12,0,4,,,,,,,,0,,,46,64
149340,note_on,24,0,1,,,,,,,,0,,,75,80
149388,note_on,48,0,4,,,,,,,,0,,,46,0
149400,note_on,12,0,4,,,,,,,,0,,,39,80
149436,note_on,96,0,1,,,,,,,,0,,,78,0
149436,note_on,0,0,1,,,,,,,,0,,,71,0
149436,note_on,0,0,1,,,,,,,,0,,,83,0
149436,note_on,0,0,1,,,,,,,,0,,,75,0
149448,note_on,48,0,4,,,,,,,,0,,,39,0
149460,note_on,12,0,4,,,,,,,,0,,,39,80
149460,note_on,24,0,1,,,,,,,,0,,,82,80
149460,note_on,0,0,1,,,,,,,,0,,,87,80
149460,note_on,0,0,1,,,,,,,,0,,,78,80
149460,note_on,0,0,1,,,,,,,,0,,,75,80
149464,control_change,4,0,4,,,,,,,,0,64,0,,
149492,control_change,28,0,4,,,,,,,,0,64,127,,
149508,note_on,16,0,4,,,,,,,,0,,,39,0
149520,note_on,12,0,4,,,,,,,,0,,,46,64
149556,note_on,0,0,1,,,,,,,,0,,,78,0
149556,note_on,0,0,1,,,,,,,,0,,,82,0
149556,note_on,0,0,1,,,,,,,,0,,,87,0
149556,note_on,96,0,1,,,,,,,,0,,,75,0
149568,note_on,48,0,4,,,,,,,,0,,,46,0
149580,note_on,24,0,1,,,,,,,,0,,,78,80
149580,note_on,12,0,4,,,,,,,,0,,,51,64
149580,note_on,0,0,1,,,,,,,,0,,,82,80
149580,note_on,0,0,1,,,,,,,,0,,,87,80
149580,note_on,0,0,1,,,,,,,,0,,,90,80
149628,note_on,48,0,4,,,,,,,,0,,,51,0
149640,note_on,12,0,4,,,,,,,,0,,,58,80
149676,note_on,0,0,1,,,,,,,,0,,,78,0
149676,note_on,0,0,1,,,,,,,,0,,,87,0
149676,note_on,0,0,1,,,,,,,,0,,,90,0
149676,note_on,96,0,1,,,,,,,,0,,,82,0
149688,note_on,48,0,4,,,,,,,,0,,,58,0
149700,note_on,12,0,4,,,,,,,,0,,,58,80
149700,note_on,24,0,1,,,,,,,,0,,,82,80
149700,note_on,0,0,1,,,,,,,,0,,,94,80
149700,note_on,0,0,1,,,,,,,,0,,,90,80
149700,note_on,0,0,1,,,,,,,,0,,,87,80
149748,note_on,48,0,4,,,,,,,,0,,,58,0
149760,note_on,12,0,4,,,,,,,,0,,,51,64
149796,note_on,96,0,1,,,,,,,,0,,,90,0
149796,note_on,0,0,1,,,,,,,,0,,,87,0
149796,note_on,0,0,1,,,,,,,,0,,,82,0
149796,note_on,0,0,1,,,,,,,,0,,,94,0
149808,note_on,48,0,4,,,,,,,,0,,,51,0
149820,note_on,0,0,1,,,,,,,,0,,,90,80
149820,note_on,12,0,4,,,,,,,,0,,,46,64
149820,note_on,24,0,1,,,,,,,,0,,,84,80
149820,note_on,0,0,1,,,,,,,,0,,,87,80
149820,note_on,0,0,1,,,,,,,,0,,,96,80
149868,note_on,48,0,4,,,,,,,,0,,,46,0
149880,note_on,12,0,4,,,,,,,,0,,,39,80
149916,note_on,96,0,1,,,,,,,,0,,,90,0
149916,note_on,0,0,1,,,,,,,,0,,,87,0
149916,note_on,0,0,1,,,,,,,,0,,,84,0
149916,note_on,0,0,1,,,,,,,,0,,,96,0
149928,note_on,48,0,4,,,,,,,,0,,,39,0
149940,note_on,0,0,4,,,,,,,,0,,,34,56
149940,note_on,0,0,1,,,,,,,,0,,,86,80
149940,control_change,12,0,4,,,,,,,,0,64,0,,
149940,note_on,0,0,1,,,,,,,,0,,,89,80
149940,note_on,24,0,1,,,,,,,,0,,,98,80
149940,note_on,0,0,1,,,,,,,,0,,,94,80
149960,control_change,20,0,4,,,,,,,,0,64,127,,
149988,note_on,28,0,4,,,,,,,,0,,,34,0
150000,note_on,12,0,4,,,,,,,,0,,,41,56
150048,note_on,48,0,4,,,,,,,,0,,,41,0
150060,note_on,12,0,4,,,,,,,,0,,,46,56
150108,note_on,48,0,4,,,,,,,,0,,,46,0
150120,note_on,12,0,4,,,,,,,,0,,,53,84
150168,note_on,48,0,4,,,,,,,,0,,,53,0
150180,note_on,12,0,4,,,,,,,,0,,,53,84
150228,note_on,48,0,4,,,,,,,,0,,,53,0
150240,note_on,12,0,4,,,,,,,,0,,,46,56
150288,note_on,48,0,4,,,,,,,,0,,,46,0
150300,note_on,12,0,4,,,,,,,,0,,,41,56
150324,note_on,0,0,1,,,,,,,,0,,,98,0
150324,note_on,0,0,1,,,,,,,,0,,,89,0
150324,note_on,0,0,1,,,,,,,,0,,,86,0
150324,note_on,384,0,1,,,,,,,,0,,,94,0
150348,note_on,48,0,4,,,,,,,,0,,,41,0
150360,note_on,12,0,4,,,,,,,,0,,,34,56
150408,note_on,48,0,4,,,,,,,,0,,,34,0
150416,control_change,8,0,4,,,,,,,,0,64,0,,
150420,note_on,96,0,1,,,,,,,,0,,,98,80
150420,note_on,0,0,1,,,,,,,,0,,,101,80
150420,note_on,0,0,1,,,,,,,,0,,,94,80
150420,note_on,4,0,4,,,,,,,,0,,,34,56
150420,note_on,0,0,1,,,,,,,,0,,,89,80
150432,control_change,12,0,4,,,,,,,,0,64,127,,
150468,note_on,36,0,4,,,,,,,,0,,,34,0
150480,note_on,12,0,4,,,,,,,,0,,,41,56
150528,note_on,48,0,4,,,,,,,,0,,,41,0
150540,note_on,12,0,4,,,,,,,,0,,,46,56
150588,note_on,48,0,4,,,,,,,,0,,,46,0
150600,note_on,12,0,4,,,,,,,,0,,,53,84
150612,note_on,192,0,1,,,,,,,,0,,,89,0
150612,note_on,0,0,1,,,,,,,,0,,,94,0
150612,note_on,0,0,1,,,,,,,,0,,,98,0
150612,note_on,0,0,1,,,,,,,,0,,,101,0
150648,note_on,48,0,4,,,,,,,,0,,,53,0
150660,note_on,12,0,4,,,,,,,,0,,,53,84
150708,note_on,48,0,4,,,,,,,,0,,,53,0
150720,note_on,12,0,4,,,,,,,,0,,,46,56
150768,note_on,48,0,4,,,,,,,,0,,,46,0
150780,note_on,12,0,4,,,,,,,,0,,,41,56
150828,note_on,48,0,4,,,,,,,,0,,,41,0
150840,note_on,0,0,1,,,,,,,,0,,,74,80
150840,note_on,0,0,1,,,,,,,,0,,,70,80
150840,note_on,12,0,4,,,,,,,,0,,,34,56
150840,note_on,0,0,1,,,,,,,,0,,,62,80
150840,note_on,228,0,1,,,,,,,,0,,,65,80
150888,note_on,0,0,1,,,,,,,,0,,,70,0
150888,note_on,48,0,1,,,,,,,,0,,,74,0
150888,note_on,0,0,1,,,,,,,,0,,,62,0
150888,note_on,48,0,4,,,,,,,,0,,,34,0
150888,note_on,0,0,1,,,,,,,,0,,,65,0
150900,note_on,12,0,1,,,,,,,,0,,,62,80
150900,note_on,12,0,4,,,,,,,,0,,,34,56
150900,note_on,0,0,1,,,,,,,,0,,,70,80
150900,note_on,0,0,1,,,,,,,,0,,,65,80
150900,note_on,0,0,1,,,,,,,,0,,,74,80
150912,control_change,12,0,4,,,,,,,,0,64,0,,
150928,control_change,16,0,4,,,,,,,,0,64,127,,
150948,note_on,20,0,4,,,,,,,,0,,,34,0
150960,note_on,12,0,4,,,,,,,,0,,,41,56
151008,note_on,48,0,4,,,,,,,,0,,,41,0
151020,note_on,12,0,4,,,,,,,,0,,,46,56
151068,note_on,48,0,4,,,,,,,,0,,,46,0
151080,note_on,12,0,4,,,,,,,,0,,,53,84
151128,note_on,48,0,4,,,,,,,,0,,,53,0
151140,note_on,12,0,4,,,,,,,,0,,,53,84
151188,note_on,48,0,4,,,,,,,,0,,,53,0
151200,note_on,12,0,4,,,,,,,,0,,,46,56
151248,note_on,48,0,4,,,,,,,,0,,,46,0
151260,note_on,12,0,4,,,,,,,,0,,,41,56
151284,note_on,0,0,1,,,,,,,,0,,,74,0
151284,note_on,0,0,1,,,,,,,,0,,,65,0
151284,note_on,0,0,1,,,,,,,,0,,,62,0
151284,note_on,384,0,1,,,,,,,,0,,,70,0
151308,note_on,48,0,4,,,,,,,,0,,,41,0
151320,note_on,12,0,4,,,,,,,,0,,,34,56
151368,control_change,0,0,4,,,,,,,,0,64,0,,
151368,note_on,48,0,4,,,,,,,,0,,,34,0
151380,note_on,0,0,1,,,,,,,,0,,,58,80
151380,note_on,12,0,4,,,,,,,,0,,,34,56
151380,note_on,96,0,1,,,,,,,,0,,,70,80
151380,note_on,0,0,1,,,,,,,,0,,,62,80
151380,note_on,0,0,1,,,,,,,,0,,,65,80
151404,control_change,24,0,4,,,,,,,,0,64,127,,
151428,note_on,24,0,4,,,,,,,,0,,,34,0
151440,note_on,12,0,4,,,,,,,,0,,,41,56
151488,note_on,48,0,4,,,,,,,,0,,,41,0
151500,note_on,12,0,4,,,,,,,,0,,,46,56
151548,note_on,48,0,4,,,,,,,,0,,,46,0
151560,note_on,12,0,4,,,,,,,,0,,,53,84
151572,note_on,0,0,1,,,,,,,,0,,,65,0
151572,note_on,0,0,1,,,,,,,,0,,,70,0
151572,note_on,192,0,1,,,,,,,,0,,,58,0
151572,note_on,0,0,1,,,,,,,,0,,,62,0
151608,note_on,48,0,4,,,,,,,,0,,,53,0
151620,note_on,12,0,4,,,,,,,,0,,,53,84
151668,note_on,48,0,4,,,,,,,,0,,,53,0
151680,note_on,12,0,4,,,,,,,,0,,,46,56
151728,note_on,48,0,4,,,,,,,,0,,,46,0
151740,note_on,12,0,4,,,,,,,,0,,,41,56
151788,note_on,48,0,4,,,,,,,,0,,,41,0
151800,note_on,12,0,4,,,,,,,,0,,,34,56
151848,note_on,48,0,4,,,,,,,,0,,,34,0
151860,control_change,0,0,4,,,,,,,,0,64,0,,
151860,note_on,12,0,4,,,,,,,,0,,,42,60
151900,control_change,40,0,4,,,,,,,,0,64,127,,
151908,note_on,8,0,4,,,,,,,,0,,,42,0
151920,note_on,12,0,4,,,,,,,,0,,,49,60
151968,note_on,48,0,4,,,,,,,,0,,,49,0
151980,note_on,0,0,1,,,,,,,,0,,,70,80
151980,note_on,408,0,1,,,,,,,,0,,,78,80
151980,note_on,0,0,1,,,,,,,,0,,,73,80
151980,note_on,12,0,4,,,,,,,,0,,,54,60
151980,note_on,0,0,1,,,,,,,,0,,,82,80
152028,note_on,48,0,4,,,,,,,,0,,,54,0
152040,note_on,12,0,4,,,,,,,,0,,,61,80
152076,note_on,0,0,1,,,,,,,,0,,,70,0
152076,note_on,0,0,1,,,,,,,,0,,,78,0
152076,note_on,0,0,1,,,,,,,,0,,,82,0
152076,note_on,96,0,1,,,,,,,,0,,,73,0
152088,note_on,48,0,4,,,,,,,,0,,,61,0
152100,note_on,24,0,1,,,,,,,,0,,,73,80
152100,note_on,0,0,1,,,,,,,,0,,,70,80
152100,note_on,0,0,1,,,,,,,,0,,,66,80
152100,note_on,12,0,4,,,,,,,,0,,,61,80
152100,note_on,0,0,1,,,,,,,,0,,,78,80
152148,note_on,48,0,4,,,,,,,,0,,,61,0
152160,note_on,12,0,4,,,,,,,,0,,,54,60
152196,note_on,0,0,1,,,,,,,,0,,,66,0
152196,note_on,0,0,1,,,,,,,,0,,,70,0
152196,note_on,96,0,1,,,,,,,,0,,,78,0
152196,note_on,0,0,1,,,,,,,,0,,,73,0
152208,note_on,48,0,4,,,,,,,,0,,,54,0
152220,note_on,0,0,1,,,,,,,,0,,,82,80
152220,note_on,24,0,1,,,,,,,,0,,,78,80
152220,note_on,0,0,1,,,,,,,,0,,,70,80
152220,note_on,0,0,1,,,,,,,,0,,,73,80
152220,note_on,12,0,4,,,,,,,,0,,,49,60
152268,note_on,48,0,4,,,,,,,,0,,,49,0
152280,note_on,12,0,4,,,,,,,,0,,,42,60
152316,note_on,0,0,1,,,,,,,,0,,,78,0
152316,note_on,0,0,1,,,,,,,,0,,,73,0
152316,note_on,0,0,1,,,,,,,,0,,,70,0
152316,note_on,96,0,1,,,,,,,,0,,,82,0
152328,note_on,48,0,4,,,,,,,,0,,,42,0
152336,control_change,8,0,4,,,,,,,,0,64,0,,
152340,note_on,4,0,4,,,,,,,,0,,,42,60
152340,note_on,0,0,1,,,,,,,,0,,,82,80
152340,note_on,0,0,1,,,,,,,,0,,,73,80
152340,note_on,0,0,1,,,,,,,,0,,,85,80
152340,note_on,24,0,1,,,,,,,,0,,,78,80
152364,control_change,24,0,4,,,,,,,,0,64,127,,
152388,note_on,24,0,4,,,,,,,,0,,,42,0
152400,note_on,12,0,4,,,,,,,,0,,,49,60
152436,note_on,96,0,1,,,,,,,,0,,,82,0
152436,note_on,0,0,1,,,,,,,,0,,,73,0
152436,note_on,0,0,1,,,,,,,,0,,,85,0
152436,note_on,0,0,1,,,,,,,,0,,,78,0
152448,note_on,48,0,4,,,,,,,,0,,,49,0
152460,note_on,0,0,1,,,,,,,,0,,,82,80
152460,note_on,0,0,1,,,,,,,,0,,,78,80
152460,note_on,0,0,1,,,,,,,,0,,,75,80
152460,note_on,24,0,1,,,,,,,,0,,,87,80
152460,note_on,12,0,4,,,,,,,,0,,,54,60
152508,note_on,48,0,4,,,,,,,,0,,,54,0
152520,note_on,12,0,4,,,,,,,,0,,,61,80
152556,note_on,96,0,1,,,,,,,,0,,,82,0
152556,note_on,0,0,1,,,,,,,,0,,,78,0
152556,note_on,0,0,1,,,,,,,,0,,,75,0
152556,note_on,0,0,1,,,,,,,,0,,,87,0
152568,note_on,48,0,4,,,,,,,,0,,,61,0
152580,note_on,0,0,1,,,,,,,,0,,,78,80
152580,note_on,12,0,4,,,,,,,,0,,,61,80
152580,note_on,0,0,1,,,,,,,,0,,,82,80
152580,note_on,0,0,1,,,,,,,,0,,,85,80
152580,note_on,24,0,1,,,,,,,,0,,,73,80
152628,note_on,48,0,4,,,,,,,,0,,,61,0
152640,note_on,12,0,4,,,,,,,,0,,,54,60
152676,note_on,0,0,1,,,,,,,,0,,,85,0
152676,note_on,0,0,1,,,,,,,,0,,,82,0
152676,note_on,0,0,1,,,,,,,,0,,,73,0
152676,note_on,96,0,1,,,,,,,,0,,,78,0
152688,note_on,48,0,4,,,,,,,,0,,,54,0
152700,note_on,0,0,1,,,,,,,,0,,,70,80
152700,note_on,0,0,1,,,,,,,,0,,,73,80
152700,note_on,0,0,1,,,,,,,,0,,,78,80
152700,note_on,12,0,4,,,,,,,,0,,,49,60
152700,note_on,24,0,1,,,,,,,,0,,,82,80
152748,note_on,48,0,4,,,,,,,,0,,,49,0
152760,note_on,12,0,4,,,,,,,,0,,,42,60
152796,note_on,0,0,1,,,,,,,,0,,,70,0
152796,note_on,0,0,1,,,,,,,,0,,,82,0
152796,note_on,0,0,1,,,,,,,,0,,,73,0
152796,note_on,96,0,1,,,,,,,,0,,,78,0
152808,note_on,48,0,4,,,,,,,,0,,,42,0
152820,note_on,24,0,1,,,,,,,,0,,,73,80
152820,note_on,0,0,1,,,,,,,,0,,,70,80
152820,note_on,0,0,1,,,,,,,,0,,,66,80
152820,note_on,12,0,4,,,,,,,,0,,,42,60
152820,note_on,0,0,1,,,,,,,,0,,,78,80
152820,control_change,0,0,4,,,,,,,,0,64,0,,
152844,control_change,24,0,4,,,,,,,,0,64,127,,
152868,note_on,24,0,4,,,,,,,,0,,,42,0
152880,note_on,12,0,4,,,,,,,,0,,,49,60
152916,note_on,96,0,1,,,,,,,,0,,,66,0
152916,note_on,0,0,1,,,,,,,,0,,,70,0
152916,note_on,0,0,1,,,,,,,,0,,,73,0
152916,note_on,0,0,1,,,,,,,,0,,,78,0
152928,note_on,48,0,4,,,,,,,,0,,,49,0
152940,note_on,12,0,4,,,,,,,,0,,,54,60
152940,note_on,0,0,1,,,,,,,,0,,,70,80
152940,note_on,0,0,1,,,,,,,,0,,,73,80
152940,note_on,0,0,1,,,,,,,,0,,,78,80
152940,note_on,24,0,1,,,,,,,,0,,,82,80
152988,note_on,48,0,4,,,,,,,,0,,,54,0
153000,note_on,12,0,4,,,,,,,,0,,,61,80
153036,note_on,0,0,1,,,,,,,,0,,,78,0
153036,note_on,0,0,1,,,,,,,,0,,,70,0
153036,note_on,0,0,1,,,,,,,,0,,,82,0
153036,note_on,96,0,1,,,,,,,,0,,,73,0
153048,note_on,48,0,4,,,,,,,,0,,,61,0
153060,note_on,24,0,1,,,,,,,,0,,,73,80
153060,note_on,0,0,1,,,,,,,,0,,,85,80
153060,note_on,0,0,1,,,,,,,,0,,,78,80
153060,note_on,0,0,1,,,,,,,,0,,,82,80
153060,note_on,12,0,4,,,,,,,,0,,,61,80
153108,note_on,48,0,4,,,,,,,,0,,,61,0
153120,note_on,12,0,4,,,,,,,,0,,,54,60
153156,note_on,96,0,1,,,,,,,,0,,,82,0
153156,note_on,0,0,1,,,,,,,,0,,,85,0
153156,note_on,0,0,1,,,,,,,,0,,,78,0
153156,note_on,0,0,1,,,,,,,,0,,,73,0
153168,note_on,48,0,4,,,,,,,,0,,,54,0
153180,note_on,0,0,1,,,,,,,,0,,,75,80
153180,note_on,24,0,1,,,,,,,,0,,,78,80
153180,note_on,12,0,4,,,,,,,,0,,,49,60
153180,note_on,0,0,1,,,,,,,,0,,,87,80
153180,note_on,0,0,1,,,,,,,,0,,,82,80
153228,note_on,48,0,4,,,,,,,,0,,,49,0
153240,note_on,12,0,4,,,,,,,,0,,,42,60
153276,note_on,0,0,1,,,,,,,,0,,,87,0
153276,note_on,96,0,1,,,,,,,,0,,,82,0
153276,note_on,0,0,1,,,,,,,,0,,,75,0
153276,note_on,0,0,1,,,,,,,,0,,,78,0
153288,note_on,48,0,4,,,,,,,,0,,,42,0
153300,note_on,0,0,1,,,,,,,,0,,,82,80
153300,note_on,0,0,1,,,,,,,,0,,,85,80
153300,note_on,0,0,1,,,,,,,,0,,,78,80
153300,note_on,24,0,1,,,,,,,,0,,,90,80
153300,note_on,12,0,4,,,,,,,,0,,,42,60
153302,set_tempo,8154,1,0,,,,,,563645,,,,,,
153304,control_change,4,0,4,,,,,,,,0,64,0,,
153332,set_tempo,30,1,0,,,,,,568936,,,,,,
153336,control_change,32,0,4,,,,,,,,0,64,127,,
153348,note_on,12,0,4,,,,,,,,0,,,42,0
153358,set_tempo,26,1,0,,,,,,574328,,,,,,
153360,note_on,12,0,4,,,,,,,,0,,,49,60
153389,set_tempo,31,1,0,,,,,,579822,,,,,,
153396,note_on,96,0,1,,,,,,,,0,,,82,0
153396,note_on,0,0,1,,,,,,,,0,,,85,0
153396,note_on,0,0,1,,,,,,,,0,,,90,0
153396,note_on,0,0,1,,,,,,,,0,,,78,0
153408,note_on,48,0,4,,,,,,,,0,,,49,0
153415,set_tempo,26,1,0,,,,,,585423,,,,,,
153420,note_on,12,0,4,,,,,,,,0,,,54,60
153420,note_on,0,0,1,,,,,,,,0,,,82,80
153420,note_on,0,0,1,,,,,,,,0,,,85,80
153420,note_on,0,0,1,,,,,,,,0,,,94,80
153420,note_on,24,0,1,,,,,,,,0,,,90,80
153441,set_tempo,26,1,0,,,,,,591133,,,,,,
153468,note_on,48,0,4,,,,,,,,0,,,54,0
153472,set_tempo,31,1,0,,,,,,596956,,,,,,
153480,note_on,12,0,4,,,,,,,,0,,,61,80
153498,set_tempo,26,1,0,,,,,,602894,,,,,,
153516,note_on,0,0,1,,,,,,,,0,,,90,0
153516,note_on,96,0,1,,,,,,,,0,,,94,0
153516,note_on,0,0,1,,,,,,,,0,,,82,0
153516,note_on,0,0,1,,,,,,,,0,,,85,0
153524,set_tempo,26,1,0,,,,,,608952,,,,,,
153528,note_on,48,0,4,,,,,,,,0,,,61,0
153540,note_on,24,0,1,,,,,,,,0,,,85,80
153540,note_on,12,0,4,,,,,,,,0,,,61,80
153540,note_on,0,0,1,,,,,,,,0,,,90,80
153540,note_on,0,0,1,,,,,,,,0,,,94,80
153540,note_on,0,0,1,,,,,,,,0,,,97,80
153555,set_tempo,31,1,0,,,,,,615132,,,,,,
153581,set_tempo,26,1,0,,,,,,621440,,,,,,
153588,note_on,48,0,4,,,,,,,,0,,,61,0
153600,note_on,12,0,4,,,,,,,,0,,,54,60
153607,set_tempo,26,1,0,,,,,,627878,,,,,,
153636,note_on,0,0,1,,,,,,,,0,,,97,0
153636,note_on,0,0,1,,,,,,,,0,,,90,0
153636,note_on,96,0,1,,,,,,,,0,,,94,0
153636,note_on,0,0,1,,,,,,,,0,,,85,0
153638,set_tempo,31,1,0,,,,,,634451,,,,,,
153648,note_on,48,0,4,,,,,,,,0,,,54,0
153660,note_on,0,0,1,,,,,,,,0,,,99,80
153660,note_on,12,0,4,,,,,,,,0,,,49,60
153660,note_on,24,0,1,,,,,,,,0,,,90,80
153660,note_on,0,0,1,,,,,,,,0,,,94,80
153660,note_on,0,0,1,,,,,,,,0,,,87,80
153664,set_tempo,26,1,0,,,,,,641163,,,,,,
153690,set_tempo,26,1,0,,,,,,648018,,,,,,
153708,note_on,48,0,4,,,,,,,,0,,,49,0
153720,set_tempo,30,1,0,,,,,,655022,,,,,,
153720,note_on,12,0,4,,,,,,,,0,,,42,60
153747,set_tempo,27,1,0,,,,,,662179,,,,,,
153756,note_on,0,0,1,,,,,,,,0,,,94,0
153756,note_on,96,0,1,,,,,,,,0,,,99,0
153756,note_on,0,0,1,,,,,,,,0,,,90,0
153756,note_on,0,0,1,,,,,,,,0,,,87,0
153768,note_on,48,0,4,,,,,,,,0,,,42,0
153773,set_tempo,26,1,0,,,,,,669493,,,,,,
153777,set_tempo,4,1,0,,,,,,662179,,,,,,
153780,note_on,0,0,1,,,,,,,,0,,,90,80
153780,note_on,0,0,1,,,,,,,,0,,,93,80
153780,note_on,0,0,1,,,,,,,,0,,,85,80
153780,note_on,0,0,4,,,,,,,,0,,,42,60
153780,control_change,12,0,4,,,,,,,,0,64,0,,
153780,note_on,24,0,1,,,,,,,,0,,,97,80
153799,set_tempo,22,1,0,,,,,,655022,,,,,,
153808,control_change,28,0,4,,,,,,,,0,64,127,,
153816,set_tempo,17,1,0,,,,,,648018,,,,,,
153828,note_on,20,0,4,,,,,,,,0,,,42,0
153834,set_tempo,18,1,0,,,,,,641163,,,,,,
153840,note_on,12,0,4,,,,,,,,0,,,49,60
153851,set_tempo,17,1,0,,,,,,634451,,,,,,
153869,set_tempo,18,1,0,,,,,,627878,,,,,,
153876,note_on,0,0,1,,,,,,,,0,,,90,0
153876,note_on,96,0,1,,,,,,,,0,,,93,0
153876,note_on,0,0,1,,,,,,,,0,,,97,0
153876,note_on,0,0,1,,,,,,,,0,,,85,0
153886,set_tempo,17,1,0,,,,,,621440,,,,,,
153888,note_on,48,0,4,,,,,,,,0,,,49,0
153900,note_on,0,0,1,,,,,,,,0,,,99,80
153900,note_on,0,0,1,,,,,,,,0,,,90,80
153900,note_on,24,0,1,,,,,,,,0,,,93,80
153900,note_on,12,0,4,,,,,,,,0,,,54,60
153904,set_tempo,18,1,0,,,,,,615132,,,,,,
153921,set_tempo,17,1,0,,,,,,608952,,,,,,
153939,set_tempo,18,1,0,,,,,,602894,,,,,,
153948,note_on,48,0,4,,,,,,,,0,,,54,0
153956,set_tempo,17,1,0,,,,,,596956,,,,,,
153960,note_on,12,0,4,,,,,,,,0,,,61,80
153974,set_tempo,18,1,0,,,,,,591133,,,,,,
153991,set_tempo,17,1,0,,,,,,585423,,,,,,
153996,note_on,96,0,1,,,,,,,,0,,,90,0
153996,note_on,0,0,1,,,,,,,,0,,,93,0
153996,note_on,0,0,1,,,,,,,,0,,,99,0
154008,note_on,48,0,4,,,,,,,,0,,,61,0
154008,set_tempo,17,1,0,,,,,,579822,,,,,,
154020,note_on,0,0,1,,,,,,,,0,,,97,80
154020,note_on,24,0,1,,,,,,,,0,,,93,80
154020,note_on,0,0,1,,,,,,,,0,,,90,80
154020,note_on,12,0,4,,,,,,,,0,,,61,80
154026,set_tempo,18,1,0,,,,,,574328,,,,,,
154068,note_on,48,0,4,,,,,,,,0,,,61,0
154080,note_on,12,0,4,,,,,,,,0,,,54,60
154116,note_on,96,0,1,,,,,,,,0,,,90,0
154116,note_on,0,0,1,,,,,,,,0,,,97,0
154116,note_on,0,0,1,,,,,,,,0,,,93,0
154128,note_on,48,0,4,,,,,,,,0,,,54,0
154140,note_on,0,0,1,,,,,,,,0,,,93,80
154140,note_on,0,0,1,,,,,,,,0,,,90,80
154140,note_on,12,0,4,,,,,,,,0,,,49,60
154140,note_on,24,0,1,,,,,,,,0,,,85,80
154188,note_on,48,0,4,,,,,,,,0,,,49,0
154200,note_on,12,0,4,,,,,,,,0,,,42,60
154236,note_on,0,0,1,,,,,,,,0,,,85,0
154236,note_on,96,0,1,,,,,,,,0,,,93,0
154236,note_on,0,0,1,,,,,,,,0,,,90,0
154248,control_change,0,0,4,,,,,,,,0,64,0,,
154248,note_on,48,0,4,,,,,,,,0,,,42,0
154260,note_on,24,0,1,,,,,,,,0,,,90,80
154260,note_on,12,0,4,,,,,,,,0,,,42,60
154260,note_on,0,0,1,,,,,,,,0,,,85,80
154260,note_on,0,0,1,,,,,,,,0,,,81,80
154272,control_change,12,0,4,,,,,,,,0,64,127,,
154308,note_on,36,0,4,,,,,,,,0,,,42,0
154320,note_on,12,0,4,,,,,,,,0,,,49,60
154356,note_on,0,0,1,,,,,,,,0,,,85,0
154356,note_on,96,0,1,,,,,,,,0,,,81,0
154356,note_on,0,0,1,,,,,,,,0,,,90,0
154368,note_on,48,0,4,,,,,,,,0,,,49,0
154380,note_on,24,0,1,,,,,,,,0,,,81,80
154380,note_on,0,0,1,,,,,,,,0,,,87,80
154380,note_on,0,0,1,,,,,,,,0,,,78,80
154380,note_on,12,0,4,,,,,,,,0,,,54,60
154428,note_on,48,0,4,,,,,,,,0,,,54,0
154440,note_on,12,0,4,,,,,,,,0,,,61,80
154476,note_on,96,0,1,,,,,,,,0,,,87,0
154476,note_on,0,0,1,,,,,,,,0,,,81,0
154476,note_on,0,0,1,,,,,,,,0,,,78,0
154488,note_on,48,0,4,,,,,,,,0,,,61,0
154500,note_on,0,0,1,,,,,,,,0,,,85,80
154500,note_on,24,0,1,,,,,,,,0,,,78,80
154500,note_on,0,0,1,,,,,,,,0,,,81,80
154500,note_on,12,0,4,,,,,,,,0,,,61,80
154548,note_on,48,0,4,,,,,,,,0,,,61,0
154560,note_on,12,0,4,,,,,,,,0,,,54,60
154596,note_on,0,0,1,,,,,,,,0,,,81,0
154596,note_on,96,0,1,,,,,,,,0,,,85,0
154596,note_on,0,0,1,,,,,,,,0,,,78,0
154608,note_on,48,0,4,,,,,,,,0,,,54,0
154620,note_on,12,0,4,,,,,,,,0,,,49,60
154620,note_on,0,0,1,,,,,,,,0,,,78,80
154620,note_on,0,0,1,,,,,,,,0,,,81,80
154620,note_on,24,0,1,,,,,,,,0,,,87,80
154668,note_on,48,0,4,,,,,,,,0,,,49,0
154680,note_on,12,0,4,,,,,,,,0,,,42,60
154716,note_on,0,0,1,,,,,,,,0,,,81,0
154716,note_on,0,0,1,,,,,,,,0,,,87,0
154716,note_on,96,0,1,,,,,,,,0,,,78,0
154728,note_on,48,0,4,,,,,,,,0,,,42,0
154740,note_on,24,0,1,,,,,,,,0,,,78,80
154740,note_on,12,0,4,,,,,,,,0,,,42,60
154740,note_on,0,0,1,,,,,,,,0,,,81,80
154740,note_on,0,0,1,,,,,,,,0,,,85,80
154752,control_change,12,0,4,,,,,,,,0,64,0,,
154764,control_change,12,0,4,,,,,,,,0,64,127,,
154788,note_on,24,0,4,,,,,,,,0,,,42,0
154800,note_on,12,0,4,,,,,,,,0,,,49,60
154836,note_on,0,0,1,,,,,,,,0,,,81,0
154836,note_on,0,0,1,,,,,,,,0,,,78,0
154836,note_on,96,0,1,,,,,,,,0,,,85,0
154848,note_on,48,0,4,,,,,,,,0,,,49,0
154860,note_on,24,0,1,,,,,,,,0,,,73,80
154860,note_on,12,0,4,,,,,,,,0,,,54,60
154860,note_on,0,0,1,,,,,,,,0,,,78,80
154860,note_on,0,0,1,,,,,,,,0,,,81,80
154908,note_on,48,0,4,,,,,,,,0,,,54,0
154920,note_on,12,0,4,,,,,,,,0,,,61,80
154956,note_on,0,0,1,,,,,,,,0,,,81,0
154956,note_on,96,0,1,,,,,,,,0,,,78,0
154956,note_on,0,0,1,,,,,,,,0,,,73,0
154968,note_on,48,0,4,,,,,,,,0,,,61,0
154980,note_on,12,0,4,,,,,,,,0,,,61,80
154980,note_on,0,0,1,,,,,,,,0,,,78,80
154980,note_on,24,0,1,,,,,,,,0,,,69,80
154980,note_on,0,0,1,,,,,,,,0,,,73,80
155028,note_on,48,0,4,,,,,,,,0,,,61,0
155040,note_on,12,0,4,,,,,,,,0,,,54,60
155076,note_on,0,0,1,,,,,,,,0,,,73,0
155076,note_on,0,0,1,,,,,,,,0,,,69,0
155076,note_on,96,0,1,,,,,,,,0,,,78,0
155088,note_on,48,0,4,,,,,,,,0,,,54,0
155100,note_on,24,0,1,,,,,,,,0,,,69,80
155100,note_on,12,0,4,,,,,,,,0,,,49,60
155100,note_on,0,0,1,,,,,,,,0,,,75,80
155100,note_on,0,0,1,,,,,,,,0,,,66,80
155148,note_on,48,0,4,,,,,,,,0,,,49,0
155160,note_on,12,0,4,,,,,,,,0,,,42,60
155196,note_on,96,0,1,,,,,,,,0,,,75,0
155196,note_on,0,0,1,,,,,,,,0,,,66,0
155196,note_on,0,0,1,,,,,,,,0,,,69,0
155208,note_on,48,0,4,,,,,,,,0,,,42,0
155216,control_change,8,0,4,,,,,,,,0,64,0,,
155220,note_on,24,0,1,,,,,,,,0,,,66,80
155220,note_on,4,0,4,,,,,,,,0,,,42,60
155220,note_on,0,0,1,,,,,,,,0,,,73,80
155220,note_on,0,0,1,,,,,,,,0,,,69,80
155248,control_change,28,0,4,,,,,,,,0,64,127,,
155268,note_on,20,0,4,,,,,,,,0,,,42,0
155280,note_on,12,0,4,,,,,,,,0,,,49,60
155316,note_on,0,0,1,,,,,,,,0,,,69,0
155316,note_on,96,0,1,,,,,,,,0,,,73,0
155316,note_on,0,0,1,,,,,,,,0,,,66,0
155328,note_on,48,0,4,,,,,,,,0,,,49,0
155340,note_on,0,0,1,,,,,,,,0,,,69,80
155340,note_on,0,0,1,,,,,,,,0,,,66,80
155340,note_on,12,0,4,,,,,,,,0,,,54,60
155340,note_on,24,0,1,,,,,,,,0,,,75,80
155388,note_on,48,0,4,,,,,,,,0,,,54,0
155400,note_on,12,0,4,,,,,,,,0,,,61,80
155436,note_on,96,0,1,,,,,,,,0,,,69,0
155436,note_on,0,0,1,,,,,,,,0,,,75,0
155436,note_on,0,0,1,,,,,,,,0,,,66,0
155448,note_on,48,0,4,,,,,,,,0,,,61,0
155460,note_on,24,0,1,,,,,,,,0,,,69,80
155460,note_on,12,0,4,,,,,,,,0,,,61,80
155460,note_on,0,0,1,,,,,,,,0,,,73,80
155460,note_on,0,0,1,,,,,,,,0,,,66,80
155508,note_on,48,0,4,,,,,,,,0,,,61,0
155520,note_on,12,0,4,,,,,,,,0,,,54,60
155556,note_on,0,0,1,,,,,,,,0,,,69,0
155556,note_on,0,0,1,,,,,,,,0,,,66,0
155556,note_on,96,0,1,,,,,,,,0,,,73,0
155568,note_on,48,0,4,,,,,,,,0,,,54,0
155580,note_on,0,0,1,,,,,,,,0,,,61,80
155580,note_on,0,0,1,,,,,,,,0,,,66,80
155580,note_on,24,0,1,,,,,,,,0,,,69,80
155580,note_on,12,0,4,,,,,,,,0,,,49,60
155628,note_on,48,0,4,,,,,,,,0,,,49,0
155640,note_on,12,0,4,,,,,,,,0,,,42,60
155676,note_on,0,0,1,,,,,,,,0,,,61,0
155676,note_on,0,0,1,,,,,,,,0,,,69,0
155676,note_on,96,0,1,,,,,,,,0,,,66,0
155688,note_on,48,0,4,,,,,,,,0,,,42,0
155700,note_on,0,0,1,,,,,,,,0,,,65,72
155700,note_on,24,0,1,,,,,,,,0,,,68,72
155700,note_on,0,0,1,,,,,,,,0,,,56,72
155700,note_on,0,0,4,,,,,,,,0,,,37,72
155700,control_change,12,0,4,,,,,,,,0,64,0,,
155712,control_change,12,0,4,,,,,,,,0,64,0,,
155724,control_change,12,0,4,,,,,,,,0,64,127,,
155748,note_on,24,0,4,,,,,,,,0,,,37,0
155760,note_on,12,0,4,,,,,,,,0,,,44,57
155808,note_on,48,0,4,,,,,,,,0,,,44,0
155820,note_on,12,0,4,,,,,,,,0,,,49,57
155868,note_on,48,0,4,,,,,,,,0,,,49,0
155880,note_on,12,0,4,,,,,,,,0,,,56,72
155928,note_on,48,0,4,,,,,,,,0,,,56,0
155940,note_on,12,0,4,,,,,,,,0,,,56,72
155988,note_on,48,0,4,,,,,,,,0,,,56,0
156000,note_on,12,0,4,,,,,,,,0,,,49,57
156048,note_on,48,0,4,,,,,,,,0,,,49,0
156060,note_on,12,0,4,,,,,,,,0,,,44,57
156084,note_on,384,0,1,,,,,,,,0,,,56,0
156084,note_on,0,0,1,,,,,,,,0,,,65,0
156084,note_on,0,0,1,,,,,,,,0,,,68,0
156108,note_on,48,0,4,,,,,,,,0,,,44,0
156120,note_on,12,0,4,,,,,,,,0,,,37,57
156168,note_on,48,0,4,,,,,,,,0,,,37,0
156176,control_change,8,0,4,,,,,,,,0,64,0,,
156180,note_on,96,0,1,,,,,,,,0,,,56,72
156180,note_on,0,0,1,,,,,,,,0,,,68,72
156180,note_on,0,0,1,,,,,,,,0,,,66,72
156180,note_on,4,0,4,,,,,,,,0,,,37,72
156208,control_change,28,0,4,,,,,,,,0,64,127,,
156228,note_on,20,0,4,,,,,,,,0,,,37,0
156240,note_on,12,0,4,,,,,,,,0,,,44,57
156288,note_on,48,0,4,,,,,,,,0,,,44,0
156300,note_on,12,0,4,,,,,,,,0,,,46,57
156348,note_on,48,0,4,,,,,,,,0,,,46,0
156360,note_on,12,0,4,,,,,,,,0,,,56,72
156408,note_on,48,0,4,,,,,,,,0,,,56,0
156420,note_on,12,0,4,,,,,,,,0,,,56,72
156468,note_on,48,0,4,,,,,,,,0,,,56,0
156480,note_on,12,0,4,,,,,,,,0,,,46,57
156528,note_on,48,0,4,,,,,,,,0,,,46,0
156540,note_on,12,0,4,,,,,,,,0,,,44,57
156564,note_on,384,0,1,,,,,,,,0,,,68,0
156564,note_on,0,0,1,,,,,,,,0,,,66,0
156564,note_on,0,0,1,,,,,,,,0,,,56,0
156588,note_on,48,0,4,,,,,,,,0,,,44,0
156600,note_on,12,0,4,,,,,,,,0,,,37,57
156648,note_on,48,0,4,,,,,,,,0,,,37,0
156660,note_on,0,0,4,,,,,,,,0,,,37,72
156660,note_on,0,0,1,,,,,,,,0,,,63,72
156660,control_change,12,0,4,,,,,,,,0,64,0,,
156660,note_on,0,0,1,,,,,,,,0,,,68,72
156660,note_on,96,0,1,,,,,,,,0,,,56,72
156684,control_change,24,0,4,,,,,,,,0,64,127,,
156708,note_on,24,0,4,,,,,,,,0,,,37,0
156720,note_on,12,0,4,,,,,,,,0,,,44,57
156768,note_on,48,0,4,,,,,,,,0,,,44,0
156780,note_on,12,0,4,,,,,,,,0,,,48,57
156828,note_on,48,0,4,,,,,,,,0,,,48,0
156840,note_on,12,0,4,,,,,,,,0,,,56,72
156888,note_on,48,0,4,,,,,,,,0,,,56,0
156900,note_on,12,0,4,,,,,,,,0,,,56,72
156948,note_on,48,0,4,,,,,,,,0,,,56,0
156960,note_on,12,0,4,,,,,,,,0,,,48,57
157008,note_on,48,0,4,,,,,,,,0,,,48,0
157020,note_on,12,0,4,,,,,,,,0,,,44,57
157044,note_on,0,0,1,,,,,,,,0,,,68,0
157044,note_on,0,0,1,,,,,,,,0,,,56,0
157044,note_on,384,0,1,,,,,,,,0,,,63,0
157068,note_on,48,0,4,,,,,,,,0,,,44,0
157080,note_on,12,0,4,,,,,,,,0,,,37,57
157128,note_on,48,0,4,,,,,,,,0,,,37,0
157132,control_change,4,0,4,,,,,,,,0,64,0,,
157140,note_on,8,0,4,,,,,,,,0,,,37,72
157168,control_change,28,0,4,,,,,,,,0,64,127,,
157188,note_on,20,0,4,,,,,,,,0,,,37,0
157200,note_on,12,0,4,,,,,,,,0,,,44,57
157248,note_on,48,0,4,,,,,,,,0,,,44,0
157260,note_on,12,0,4,,,,,,,,0,,,48,57
157308,note_on,48,0,4,,,,,,,,0,,,48,0
157320,note_on,12,0,4,,,,,,,,0,,,56,72
157368,note_on,48,0,4,,,,,,,,0,,,56,0
157376,control_change,8,0,4,,,,,,,,0,64,0,,
157380,note_on,336,0,1,,,,,,,,0,,,65,72
157380,note_on,0,0,1,,,,,,,,0,,,56,72
157380,note_on,4,0,4,,,,,,,,0,,,37,72
157380,note_on,0,0,1,,,,,,,,0,,,68,72
157412,control_change,32,0,4,,,,,,,,0,64,127,,
157428,note_on,16,0,4,,,,,,,,0,,,37,0
157440,note_on,12,0,4,,,,,,,,0,,,44,57
157488,note_on,48,0,4,,,,,,,,0,,,44,0
157500,note_on,12,0,4,,,,,,,,0,,,49,57
157548,note_on,48,0,4,,,,,,,,0,,,49,0
157560,note_on,12,0,4,,,,,,,,0,,,56,72
157572,note_on,192,0,1,,,,,,,,0,,,68,0
157572,note_on,0,0,1,,,,,,,,0,,,56,0
157572,note_on,0,0,1,,,,,,,,0,,,65,0
157608,note_on,48,0,4,,,,,,,,0,,,56,0
157620,note_on,13344,0,2,,,,,,,,0,,,68,72
157620,control_change,12,0,4,,,,,,,,0,64,0,,
157620,note_on,0,0,2,,,,,,,,0,,,66,72
157620,note_on,0,0,2,,,,,,,,0,,,56,72
157620,note_on,0,0,4,,,,,,,,0,,,37,72
157648,control_change,28,0,4,,,,,,,,0,64,127,,
157668,note_on,20,0,4,,,,,,,,0,,,37,0
157680,note_on,12,0,4,,,,,,,,0,,,44,57
157728,note_on,48,0,4,,,,,,,,0,,,44,0
157740,note_on,12,0,4,,,,,,,,0,,,46,57
157788,note_on,48,0,4,,,,,,,,0,,,46,0
157800,note_on,12,0,4,,,,,,,,0,,,56,72
157848,note_on,48,0,4,,,,,,,,0,,,56,0
157860,note_on,12,0,4,,,,,,,,0,,,56,72
157908,note_on,48,0,4,,,,,,,,0,,,56,0
157920,note_on,12,0,4,,,,,,,,0,,,46,57
157968,note_on,48,0,4,,,,,,,,0,,,46,0
157980,note_on,12,0,4,,,,,,,,0,,,44,57
158004,note_on,384,0,2,,,,,,,,0,,,66,0
158004,note_on,0,0,2,,,,,,,,0,,,68,0
158004,note_on,0,0,2,,,,,,,,0,,,56,0
158028,note_on,48,0,4,,,,,,,,0,,,44,0
158040,note_on,12,0,4,,,,,,,,0,,,37,57
158088,note_on,48,0,4,,,,,,,,0,,,37,0
158100,note_on,96,0,2,,,,,,,,0,,,66,72
158100,note_on,0,0,2,,,,,,,,0,,,56,72
158100,control_change,12,0,4,,,,,,,,0,64,0,,
158100,note_on,528,0,1,,,,,,,,0,,,70,72
158100,note_on,0,0,4,,,,,,,,0,,,37,72
158124,control_change,24,0,4,,,,,,,,0,64,127,,
158148,note_on,24,0,4,,,,,,,,0,,,37,0
158160,note_on,12,0,4,,,,,,,,0,,,44,57
158208,note_on,48,0,4,,,,,,,,0,,,44,0
158220,note_on,12,0,4,,,,,,,,0,,,48,57
158268,note_on,48,0,4,,,,,,,,0,,,48,0
158280,note_on,12,0,4,,,,,,,,0,,,56,72
158325,note_on,225,0,1,,,,,,,,0,,,70,0
158328,note_on,48,0,4,,,,,,,,0,,,56,0
158340,note_on,12,0,4,,,,,,,,0,,,56,72
158388,note_on,48,0,4,,,,,,,,0,,,56,0
158400,note_on,12,0,4,,,,,,,,0,,,48,57
158448,note_on,48,0,4,,,,,,,,0,,,48,0
158460,note_on,12,0,4,,,,,,,,0,,,44,57
158460,note_on,135,0,1,,,,,,,,0,,,68,72
158484,note_on,384,0,2,,,,,,,,0,,,56,0
158484,note_on,0,0,2,,,,,,,,0,,,66,0
158508,note_on,48,0,4,,,,,,,,0,,,44,0
158520,note_on,12,0,4,,,,,,,,0,,,37,72
158556,note_on,96,0,1,,,,,,,,0,,,68,0
158568,note_on,48,0,4,,,,,,,,0,,,37,0
158580,note_on,0,0,1,,,,,,,,0,,,56,72
158580,note_on,0,0,1,,,,,,,,0,,,65,72
158580,control_change,12,0,4,,,,,,,,0,64,0,,
158580,note_on,24,0,1,,,,,,,,0,,,53,72
158580,note_on,0,0,4,,,,,,,,0,,,37,72
158596,control_change,16,0,4,,,,,,,,0,64,127,,
158628,note_on,32,0,4,,,,,,,,0,,,37,0
158640,note_on,12,0,4,,,,,,,,0,,,44,57
158676,note_on,96,0,1,,,,,,,,0,,,65,0
158676,note_on,0,0,1,,,,,,,,0,,,53,0
158676,note_on,0,0,1,,,,,,,,0,,,56,0
158688,note_on,48,0,4,,,,,,,,0,,,44,0
158700,note_on,24,0,1,,,,,,,,0,,,62,72
158700,note_on,12,0,4,,,,,,,,0,,,47,57
158748,note_on,48,0,4,,,,,,,,0,,,47,0
158760,note_on,12,0,4,,,,,,,,0,,,50,72
158796,note_on,96,0,1,,,,,,,,0,,,62,0
158808,note_on,48,0,4,,,,,,,,0,,,50,0
158820,note_on,24,0,1,,,,,,,,0,,,59,72
158820,note_on,12,0,4,,,,,,,,0,,,50,72
158868,note_on,48,0,4,,,,,,,,0,,,50,0
158880,note_on,12,0,4,,,,,,,,0,,,47,57
158916,note_on,96,0,1,,,,,,,,0,,,59,0
158928,note_on,48,0,4,,,,,,,,0,,,47,0
158940,note_on,12,0,4,,,,,,,,0,,,44,57
158940,note_on,0,0,1,,,,,,,,0,,,56,72
158940,note_on,24,0,1,,,,,,,,0,,,53,72
158988,note_on,48,0,4,,,,,,,,0,,,44,0
159000,note_on,12,0,4,,,,,,,,0,,,37,57
159036,note_on,0,0,1,,,,,,,,0,,,53,0
159036,note_on,96,0,1,,,,,,,,0,,,56,0
159048,note_on,48,0,4,,,,,,,,0,,,37,0
159056,control_change,8,0,4,,,,,,,,0,64,0,,
159060,note_on,4,0,4,,,,,,,,0,,,37,72
159060,note_on,24,0,1,,,,,,,,0,,,55,72
159060,note_on,0,0,1,,,,,,,,0,,,53,72
159076,control_change,16,0,4,,,,,,,,0,64,127,,
159108,note_on,32,0,4,,,,,,,,0,,,37,0
159120,note_on,12,0,4,,,,,,,,0,,,44,57
159156,note_on,0,0,1,,,,,,,,0,,,55,0
159156,note_on,96,0,1,,,,,,,,0,,,53,0
159168,note_on,48,0,4,,,,,,,,0,,,44,0
159180,note_on,12,0,4,,,,,,,,0,,,47,57
159180,note_on,24,0,1,,,,,,,,0,,,53,72
159180,note_on,0,0,1,,,,,,,,0,,,56,72
159228,note_on,48,0,4,,,,,,,,0,,,47,0
159240,note_on,12,0,4,,,,,,,,0,,,50,72
159276,note_on,96,0,1,,,,,,,,0,,,56,0
159276,note_on,0,0,1,,,,,,,,0,,,53,0
159288,note_on,48,0,4,,,,,,,,0,,,50,0
159300,note_on,24,0,1,,,,,,,,0,,,53,72
159300,note_on,12,0,4,,,,,,,,0,,,50,72
159300,note_on,0,0,1,,,,,,,,0,,,56,72
159300,note_on,0,0,1,,,,,,,,0,,,58,72
159348,note_on,48,0,4,,,,,,,,0,,,50,0
159360,note_on,12,0,4,,,,,,,,0,,,47,57
159396,note_on,0,0,1,,,,,,,,0,,,53,0
159396,note_on,0,0,1,,,,,,,,0,,,56,0
159396,note_on,96,0,1,,,,,,,,0,,,58,0
159408,note_on,48,0,4,,,,,,,,0,,,47,0
159420,note_on,12,0,4,,,,,,,,0,,,44,57
159420,note_on,24,0,1,,,,,,,,0,,,59,72
159420,note_on,0,0,1,,,,,,,,0,,,56,72
159420,note_on,0,0,1,,,,,,,,0,,,53,72
159468,note_on,48,0,4,,,,,,,,0,,,44,0
159480,note_on,12,0,4,,,,,,,,0,,,37,57
159516,note_on,0,0,1,,,,,,,,0,,,59,0
159516,note_on,0,0,1,,,,,,,,0,,,56,0
159516,note_on,96,0,1,,,,,,,,0,,,53,0
159528,note_on,48,0,4,,,,,,,,0,,,37,0
159540,note_on,0,0,1,,,,,,,,0,,,61,72
159540,note_on,0,0,4,,,,,,,,0,,,37,72
159540,control_change,12,0,4,,,,,,,,0,64,0,,
159540,note_on,0,0,1,,,,,,,,0,,,56,72
159540,note_on,0,0,1,,,,,,,,0,,,59,72
159540,note_on,24,0,1,,,,,,,,0,,,53,72
159568,control_change,28,0,4,,,,,,,,0,64,127,,
159588,note_on,20,0,4,,,,,,,,0,,,37,0
159600,note_on,12,0,4,,,,,,,,0,,,44,57
159636,note_on,0,0,1,,,,,,,,0,,,59,0
159636,note_on,0,0,1,,,,,,,,0,,,56,0
159636,note_on,0,0,1,,,,,,,,0,,,53,0
159636,note_on,96,0,1,,,,,,,,0,,,61,0
159648,note_on,48,0,4,,,,,,,,0,,,44,0
159660,note_on,12,0,4,,,,,,,,0,,,47,57
159660,note_on,0,0,1,,,,,,,,0,,,53,72
159660,note_on,0,0,1,,,,,,,,0,,,56,72
159660,note_on,0,0,1,,,,,,,,0,,,62,72
159660,note_on,24,0,1,,,,,,,,0,,,59,72
159708,note_on,48,0,4,,,,,,,,0,,,47,0
159720,note_on,12,0,4,,,,,,,,0,,,50,72
159756,note_on,0,0,1,,,,,,,,0,,,59,0
159756,note_on,0,0,1,,,,,,,,0,,,62,0
159756,note_on,0,0,1,,,,,,,,0,,,56,0
159756,note_on,96,0,1,,,,,,,,0,,,53,0
159768,note_on,48,0,4,,,,,,,,0,,,50,0
159780,note_on,24,0,1,,,,,,,,0,,,56,72
159780,note_on,12,0,4,,,,,,,,0,,,50,72
159780,note_on,0,0,1,,,,,,,,0,,,64,72
159780,note_on,0,0,1,,,,,,,,0,,,53,72
159780,note_on,0,0,1,,,,,,,,0,,,59,72
159828,note_on,48,0,4,,,,,,,,0,,,50,0
159840,note_on,12,0,4,,,,,,,,0,,,47,57
159876,note_on,96,0,1,,,,,,,,0,,,59,0
159876,note_on,0,0,1,,,,,,,,0,,,56,0
159876,note_on,0,0,1,,,,,,,,0,,,64,0
159876,note_on,0,0,1,,,,,,,,0,,,53,0
159888,note_on,48,0,4,,,,,,,,0,,,47,0
159900,note_on,0,0,1,,,,,,,,0,,,65,72
159900,note_on,24,0,1,,,,,,,,0,,,56,72
159900,note_on,0,0,1,,,,,,,,0,,,59,72
159900,note_on,12,0,4,,,,,,,,0,,,44,57
159900,note_on,0,0,1,,,,,,,,0,,,53,72
159920,control_change,20,0,4,,,,,,,,0,64,0,,
159948,note_on,28,0,4,,,,,,,,0,,,44,0
159956,control_change,8,0,4,,,,,,,,0,64,127,,
159960,note_on,4,0,4,,,,,,,,0,,,37,57
159996,note_on,96,0,1,,,,,,,,0,,,65,0
160008,note_on,48,0,4,,,,,,,,0,,,37,0
160020,note_on,24,0,1,,,,,,,,0,,,67,72
160020,note_on,12,0,4,,,,,,,,0,,,37,72
160068,note_on,48,0,4,,,,,,,,0,,,37,0
160080,note_on,12,0,4,,,,,,,,0,,,44,57
160116,note_on,96,0,1,,,,,,,,0,,,67,0
160128,note_on,48,0,4,,,,,,,,0,,,44,0
160140,note_on,12,0,4,,,,,,,,0,,,47,57
160140,note_on,24,0,1,,,,,,,,0,,,68,72
160188,note_on,48,0,4,,,,,,,,0,,,47,0
160200,note_on,12,0,4,,,,,,,,0,,,50,72
160236,note_on,96,0,1,,,,,,,,0,,,68,0
160248,note_on,48,0,4,,,,,,,,0,,,50,0
160260,note_on,12,0,4,,,,,,,,0,,,50,72
160260,note_on,24,0,1,,,,,,,,0,,,70,72
160284,note_on,0,0,1,,,,,,,,0,,,59,0
160284,note_on,0,0,1,,,,,,,,0,,,53,0
160284,note_on,24,0,1,,,,,,,,0,,,56,0
160308,note_on,48,0,4,,,,,,,,0,,,50,0
160320,note_on,12,0,4,,,,,,,,0,,,47,57
160356,note_on,72,0,1,,,,,,,,0,,,70,0
160368,note_on,48,0,4,,,,,,,,0,,,47,0
160380,note_on,24,0,1,,,,,,,,0,,,71,72
160380,note_on,12,0,4,,,,,,,,0,,,44,57
160428,note_on,48,0,4,,,,,,,,0,,,44,0
160440,note_on,12,0,4,,,,,,,,0,,,37,57
160476,note_on,96,0,1,,,,,,,,0,,,71,0
160488,note_on,48,0,4,,,,,,,,0,,,37,0
160500,note_on,0,0,1,,,,,,,,0,,,73,72
160500,control_change,12,0,4,,,,,,,,0,64,0,,
160500,note_on,0,0,4,,,,,,,,0,,,37,57
160500,note_on,0,0,1,,,,,,,,0,,,64,72
160500,note_on,24,0,1,,,,,,,,0,,,61,72
160532,control_change,32,0,4,,,,,,,,0,64,127,,
160548,note_on,16,0,4,,,,,,,,0,,,37,0
160560,note_on,12,0,4,,,,,,,,0,,,45,45
160596,note_on,96,0,1,,,,,,,,0,,,73,0
160596,note_on,0,0,1,,,,,,,,0,,,61,0
160596,note_on,0,0,1,,,,,,,,0,,,64,0
160608,note_on,48,0,4,,,,,,,,0,,,45,0
160620,note_on,12,0,4,,,,,,,,0,,,49,45
160620,note_on,24,0,1,,,,,,,,0,,,69,72
160668,note_on,48,0,4,,,,,,,,0,,,49,0
160680,note_on,12,0,4,,,,,,,,0,,,52,72
160716,note_on,96,0,1,,,,,,,,0,,,69,0
160728,note_on,48,0,4,,,,,,,,0,,,52,0
160740,note_on,12,0,4,,,,,,,,0,,,52,72
160740,note_on,24,0,1,,,,,,,,0,,,64,72
160788,note_on,48,0,4,,,,,,,,0,,,52,0
160800,note_on,12,0,4,,,,,,,,0,,,49,45
160836,note_on,96,0,1,,,,,,,,0,,,64,0
160848,note_on,48,0,4,,,,,,,,0,,,49,0
160860,note_on,0,0,1,,,,,,,,0,,,57,72
160860,note_on,12,0,4,,,,,,,,0,,,45,45
160860,note_on,24,0,1,,,,,,,,0,,,61,72
160908,note_on,48,0,4,,,,,,,,0,,,45,0
160920,note_on,12,0,4,,,,,,,,0,,,37,45
160956,note_on,0,0,1,,,,,,,,0,,,61,0
160956,note_on,96,0,1,,,,,,,,0,,,57,0
160968,note_on,48,0,4,,,,,,,,0,,,37,0
160980,note_on,0,0,1,,,,,,,,0,,,57,72
160980,note_on,24,0,1,,,,,,,,0,,,60,72
160980,note_on,12,0,4,,,,,,,,0,,,37,57
160984,control_change,4,0,4,,,,,,,,0,64,0,,
161008,control_change,24,0,4,,,,,,,,0,64,127,,
161028,note_on,20,0,4,,,,,,,,0,,,37,0
161040,note_on,12,0,4,,,,,,,,0,,,45,45
161076,note_on,96,0,1,,,,,,,,0,,,57,0
161076,note_on,0,0,1,,,,,,,,0,,,60,0
161088,note_on,48,0,4,,,,,,,,0,,,45,0
161100,note_on,12,0,4,,,,,,,,0,,,49,45
161100,note_on,0,0,1,,,,,,,,0,,,61,72
161100,note_on,24,0,1,,,,,,,,0,,,57,72
161148,note_on,48,0,4,,,,,,,,0,,,49,0
161160,note_on,12,0,4,,,,,,,,0,,,52,72
161196,note_on,0,0,1,,,,,,,,0,,,57,0
161196,note_on,96,0,1,,,,,,,,0,,,61,0
161208,note_on,48,0,4,,,,,,,,0,,,52,0
161220,note_on,0,0,1,,,,,,,,0,,,61,72
161220,note_on,0,0,1,,,,,,,,0,,,57,72
161220,note_on,24,0,1,,,,,,,,0,,,63,72
161220,note_on,12,0,4,,,,,,,,0,,,52,72
161268,note_on,48,0,4,,,,,,,,0,,,52,0
161280,note_on,12,0,4,,,,,,,,0,,,49,45
161316,note_on,0,0,1,,,,,,,,0,,,57,0
161316,note_on,0,0,1,,,,,,,,0,,,63,0
161316,note_on,96,0,1,,,,,,,,0,,,61,0
161328,note_on,48,0,4,,,,,,,,0,,,49,0
161340,note_on,24,0,1,,,,,,,,0,,,57,72
161340,note_on,0,0,1,,,,,,,,0,,,61,72
161340,note_on,12,0,4,,,,,,,,0,,,45,45
161340,note_on,0,0,1,,,,,,,,0,,,64,72
161388,note_on,48,0,4,,,,,,,,0,,,45,0
161400,note_on,12,0,4,,,,,,,,0,,,37,45
161436,note_on,96,0,1,,,,,,,,0,,,61,0
161436,note_on,0,0,1,,,,,,,,0,,,57,0
161436,note_on,0,0,1,,,,,,,,0,,,64,0
161448,note_on,48,0,4,,,,,,,,0,,,37,0
161460,note_on,0,0,1,,,,,,,,0,,,61,72
161460,note_on,0,0,1,,,,,,,,0,,,57,72
161460,control_change,12,0,4,,,,,,,,0,64,0,,
161460,note_on,0,0,4,,,,,,,,0,,,37,57
161460,note_on,24,0,1,,,,,,,,0,,,66,72
161484,control_change,24,0,4,,,,,,,,0,64,127,,
161508,note_on,24,0,4,,,,,,,,0,,,37,0
161520,note_on,12,0,4,,,,,,,,0,,,45,57
161556,note_on,96,0,1,,,,,,,,0,,,57,0
161556,note_on,0,0,1,,,,,,,,0,,,61,0
161556,note_on,0,0,1,,,,,,,,0,,,66,0
161568,note_on,48,0,4,,,,,,,,0,,,45,0
161580,note_on,12,0,4,,,,,,,,0,,,49,57
161580,note_on,0,0,1,,,,,,,,0,,,61,72
161580,note_on,0,0,1,,,,,,,,0,,,57,72
161580,note_on,24,0,1,,,,,,,,0,,,68,72
161628,note_on,48,0,4,,,,,,,,0,,,49,0
161640,note_on,12,0,4,,,,,,,,0,,,52,72
161676,note_on,96,0,1,,,,,,,,0,,,57,0
161676,note_on,0,0,1,,,,,,,,0,,,61,0
161676,note_on,0,0,1,,,,,,,,0,,,68,0
161688,note_on,48,0,4,,,,,,,,0,,,52,0
161700,note_on,24,0,1,,,,,,,,0,,,69,72
161700,note_on,12,0,4,,,,,,,,0,,,52,72
161700,note_on,0,0,1,,,,,,,,0,,,61,72
161700,note_on,0,0,1,,,,,,,,0,,,57,72
161748,note_on,48,0,4,,,,,,,,0,,,52,0
161760,note_on,12,0,4,,,,,,,,0,,,49,57
161808,note_on,48,0,4,,,,,,,,0,,,49,0
161820,note_on,12,0,4,,,,,,,,0,,,45,57
161820,note_on,120,0,1,,,,,,,,0,,,71,72
161868,note_on,48,0,4,,,,,,,,0,,,45,0
161880,note_on,12,0,4,,,,,,,,0,,,37,57
161900,control_change,20,0,4,,,,,,,,0,64,0,,
161916,note_on,96,0,1,,,,,,,,0,,,71,0
161928,note_on,28,0,4,,,,,,,,0,,,37,0
161940,note_on,24,0,1,,,,,,,,0,,,73,72
161940,note_on,12,0,4,,,,,,,,0,,,37,57
161956,control_change,16,0,4,,,,,,,,0,64,127,,
161988,note_on,32,0,4,,,,,,,,0,,,37,0
162000,note_on,12,0,4,,,,,,,,0,,,45,57
162036,note_on,96,0,1,,,,,,,,0,,,73,0
162048,note_on,48,0,4,,,,,,,,0,,,45,0
162060,note_on,24,0,1,,,,,,,,0,,,74,72
162060,note_on,12,0,4,,,,,,,,0,,,49,57
162108,note_on,48,0,4,,,,,,,,0,,,49,0
162120,note_on,12,0,4,,,,,,,,0,,,52,72
162156,note_on,96,0,1,,,,,,,,0,,,74,0
162168,note_on,48,0,4,,,,,,,,0,,,52,0
162180,note_on,12,0,4,,,,,,,,0,,,52,72
162180,note_on,24,0,1,,,,,,,,0,,,75,72
162228,note_on,48,0,4,,,,,,,,0,,,52,0
162240,note_on,12,0,4,,,,,,,,0,,,49,57
162276,note_on,96,0,1,,,,,,,,0,,,75,0
162288,note_on,48,0,4,,,,,,,,0,,,49,0
162300,note_on,12,0,4,,,,,,,,0,,,45,57
162300,note_on,24,0,1,,,,,,,,0,,,76,72
162348,note_on,48,0,4,,,,,,,,0,,,45,0
162360,note_on,12,0,4,,,,,,,,0,,,37,57
162396,note_on,96,0,1,,,,,,,,0,,,76,0
162408,note_on,48,0,4,,,,,,,,0,,,37,0
162420,control_change,0,0,4,,,,,,,,0,64,0,,
162420,note_on,12,0,4,,,,,,,,0,,,37,57
162420,note_on,0,0,1,,,,,,,,0,,,66,72
162420,note_on,0,0,1,,,,,,,,0,,,69,72
162420,note_on,24,0,1,,,,,,,,0,,,78,72
162444,control_change,24,0,4,,,,,,,,0,64,127,,
162468,note_on,48,0,1,,,,,,,,0,,,69,0
162468,note_on,0,0,1,,,,,,,,0,,,57,0
162468,note_on,0,0,1,,,,,,,,0,,,61,0
162468,note_on,24,0,4,,,,,,,,0,,,37,0
162480,note_on,12,0,4,,,,,,,,0,,,45,57
162516,note_on,48,0,1,,,,,,,,0,,,78,0
162516,note_on,0,0,1,,,,,,,,0,,,66,0
162516,note_on,0,0,1,,,,,,,,0,,,69,0
162528,note_on,48,0,4,,,,,,,,0,,,45,0
162540,note_on,12,0,4,,,,,,,,0,,,50,57
162540,note_on,24,0,1,,,,,,,,0,,,74,72
162588,note_on,48,0,4,,,,,,,,0,,,50,0
162600,note_on,12,0,4,,,,,,,,0,,,54,72
162636,note_on,96,0,1,,,,,,,,0,,,74,0
162648,note_on,48,0,4,,,,,,,,0,,,54,0
162660,note_on,12,0,4,,,,,,,,0,,,54,72
162660,note_on,24,0,1,,,,,,,,0,,,69,72
162708,note_on,48,0,4,,,,,,,,0,,,54,0
162720,note_on,12,0,4,,,,,,,,0,,,50,57
162756,note_on,96,0,1,,,,,,,,0,,,69,0
162768,note_on,48,0,4,,,,,,,,0,,,50,0
162780,note_on,12,0,4,,,,,,,,0,,,45,57
162780,note_on,24,0,1,,,,,,,,0,,,66,72
162780,note_on,0,0,1,,,,,,,,0,,,62,72
162828,note_on,48,0,4,,,,,,,,0,,,45,0
162840,note_on,12,0,4,,,,,,,,0,,,37,57
162876,note_on,96,0,1,,,,,,,,0,,,62,0
162876,note_on,0,0,1,,,,,,,,0,,,66,0
162888,note_on,48,0,4,,,,,,,,0,,,37,0
162900,note_on,0,0,1,,,,,,,,0,,,62,72
162900,note_on,12,0,4,,,,,,,,0,,,37,57
162900,control_change,0,0,4,,,,,,,,0,64,0,,
162900,note_on,24,0,1,,,,,,,,0,,,65,72
162924,control_change,24,0,4,,,,,,,,0,64,127,,
162948,note_on,24,0,4,,,,,,,,0,,,37,0
162960,note_on,12,0,4,,,,,,,,0,,,45,57
162996,note_on,0,0,1,,,,,,,,0,,,65,0
162996,note_on,96,0,1,,,,,,,,0,,,62,0
163008,note_on,48,0,4,,,,,,,,0,,,45,0
163020,note_on,24,0,1,,,,,,,,0,,,62,72
163020,note_on,0,0,1,,,,,,,,0,,,66,72
163020,note_on,12,0,4,,,,,,,,0,,,50,57
163068,note_on,48,0,4,,,,,,,,0,,,50,0
163080,note_on,12,0,4,,,,,,,,0,,,54,72
163116,note_on,96,0,1,,,,,,,,0,,,66,0
163116,note_on,0,0,1,,,,,,,,0,,,62,0
163128,note_on,48,0,4,,,,,,,,0,,,54,0
163140,note_on,0,0,1,,,,,,,,0,,,68,72
163140,note_on,0,0,1,,,,,,,,0,,,66,72
163140,note_on,12,0,4,,,,,,,,0,,,54,72
163140,note_on,24,0,1,,,,,,,,0,,,62,72
163188,note_on,48,0,4,,,,,,,,0,,,54,0
163200,note_on,12,0,4,,,,,,,,0,,,50,57
163236,note_on,96,0,1,,,,,,,,0,,,68,0
163236,note_on,0,0,1,,,,,,,,0,,,62,0
163236,note_on,0,0,1,,,,,,,,0,,,66,0
163248,note_on,48,0,4,,,,,,,,0,,,50,0
163260,note_on,0,0,1,,,,,,,,0,,,62,72
163260,note_on,12,0,4,,,,,,,,0,,,45,57
163260,note_on,0,0,1,,,,,,,,0,,,66,72
163260,note_on,24,0,1,,,,,,,,0,,,69,72
163308,note_on,48,0,4,,,,,,,,0,,,45,0
163320,note_on,12,0,4,,,,,,,,0,,,37,57
163356,note_on,0,0,1,,,,,,,,0,,,66,0
163356,note_on,96,0,1,,,,,,,,0,,,62,0
163356,note_on,0,0,1,,,,,,,,0,,,69,0
163368,note_on,48,0,4,,,,,,,,0,,,37,0
163380,note_on,0,0,1,,,,,,,,0,,,62,72
163380,note_on,0,0,1,,,,,,,,0,,,66,72
163380,control_change,0,0,4,,,,,,,,0,64,0,,
163380,note_on,12,0,4,,,,,,,,0,,,37,57
163380,note_on,24,0,1,,,,,,,,0,,,71,72
163412,control_change,32,0,4,,,,,,,,0,64,127,,
163428,note_on,16,0,4,,,,,,,,0,,,37,0
163440,note_on,12,0,4,,,,,,,,0,,,45,57
163476,note_on,0,0,1,,,,,,,,0,,,71,0
163476,note_on,0,0,1,,,,,,,,0,,,62,0
163476,note_on,96,0,1,,,,,,,,0,,,66,0
163488,note_on,48,0,4,,,,,,,,0,,,45,0
163500,note_on,0,0,1,,,,,,,,0,,,66,72
163500,note_on,0,0,1,,,,,,,,0,,,62,72
163500,note_on,12,0,4,,,,,,,,0,,,50,56
163500,note_on,24,0,1,,,,,,,,0,,,73,72
163548,note_on,48,0,4,,,,,,,,0,,,50,0
163560,note_on,12,0,4,,,,,,,,0,,,54,70
163596,note_on,96,0,1,,,,,,,,0,,,62,0
163596,note_on,0,0,1,,,,,,,,0,,,73,0
163596,note_on,0,0,1,,,,,,,,0,,,66,0
163608,note_on,48,0,4,,,,,,,,0,,,54,0
163620,note_on,0,0,1,,,,,,,,0,,,66,72
163620,note_on,24,0,1,,,,,,,,0,,,74,72
163620,note_on,0,0,1,,,,,,,,0,,,62,72
163620,note_on,12,0,4,,,,,,,,0,,,54,69
163668,note_on,48,0,4,,,,,,,,0,,,54,0
163680,note_on,12,0,4,,,,,,,,0,,,50,54
163728,note_on,48,0,4,,,,,,,,0,,,50,0
163740,note_on,120,0,1,,,,,,,,0,,,76,72
163740,note_on,12,0,4,,,,,,,,0,,,45,54
163788,note_on,48,0,4,,,,,,,,0,,,45,0
163800,note_on,12,0,4,,,,,,,,0,,,37,53
163836,note_on,96,0,1,,,,,,,,0,,,76,0
163848,note_on,48,0,4,,,,,,,,0,,,37,0
163860,note_on,24,0,1,,,,,,,,0,,,77,69
163860,note_on,0,0,4,,,,,,,,0,,,37,53
163860,control_change,12,0,4,,,,,,,,0,64,0,,
163888,control_change,28,0,4,,,,,,,,0,64,127,,
163908,note_on,20,0,4,,,,,,,,0,,,37,0
163920,note_on,12,0,4,,,,,,,,0,,,45,53
163956,note_on,96,0,1,,,,,,,,0,,,77,0
163968,note_on,48,0,4,,,,,,,,0,,,45,0
163980,note_on,24,0,1,,,,,,,,0,,,78,66
163980,note_on,12,0,4,,,,,,,,0,,,50,52
164028,note_on,48,0,4,,,,,,,,0,,,50,0
164040,note_on,12,0,4,,,,,,,,0,,,54,65
164076,note_on,96,0,1,,,,,,,,0,,,78,0
164088,note_on,48,0,4,,,,,,,,0,,,54,0
164100,note_on,24,0,1,,,,,,,,0,,,79,64
164100,note_on,12,0,4,,,,,,,,0,,,54,64
164148,note_on,48,0,4,,,,,,,,0,,,54,0
164160,note_on,12,0,4,,,,,,,,0,,,50,50
164196,note_on,96,0,1,,,,,,,,0,,,79,0
164208,note_on,48,0,4,,,,,,,,0,,,50,0
164220,note_on,24,0,1,,,,,,,,0,,,80,61
164220,note_on,12,0,4,,,,,,,,0,,,45,50
164268,note_on,48,0,4,,,,,,,,0,,,45,0
164280,note_on,12,0,4,,,,,,,,0,,,37,49
164316,note_on,96,0,1,,,,,,,,0,,,80,0
164328,note_on,48,0,4,,,,,,,,0,,,37,0
164340,note_on,5856,0,2,,,,,,,,0,,,72,59
164340,control_change,12,0,4,,,,,,,,0,64,0,,
164340,note_on,24,0,1,,,,,,,,0,,,81,59
164340,note_on,0,0,4,,,,,,,,0,,,37,62
164340,note_on,0,0,2,,,,,,,,0,,,69,59
164372,control_change,32,0,4,,,,,,,,0,64,127,,
164388,note_on,0,0,1,,,,,,,,0,,,62,0
164388,note_on,0,0,1,,,,,,,,0,,,66,0
164388,note_on,48,0,1,,,,,,,,0,,,74,0
164388,note_on,16,0,4,,,,,,,,0,,,37,0
164400,note_on,12,0,4,,,,,,,,0,,,45,61
164436,note_on,48,0,1,,,,,,,,0,,,81,0
164448,note_on,48,0,4,,,,,,,,0,,,45,0
164460,note_on,24,0,1,,,,,,,,0,,,78,56
164460,note_on,12,0,4,,,,,,,,0,,,48,61
164508,note_on,48,0,4,,,,,,,,0,,,48,0
164520,note_on,12,0,4,,,,,,,,0,,,54,60
164532,note_on,0,0,2,,,,,,,,0,,,72,0
164532,note_on,192,0,2,,,,,,,,0,,,69,0
164556,note_on,96,0,1,,,,,,,,0,,,78,0
164568,note_on,48,0,4,,,,,,,,0,,,54,0
164580,note_on,24,0,1,,,,,,,,0,,,75,53
164580,note_on,12,0,4,,,,,,,,0,,,54,59
164628,note_on,48,0,4,,,,,,,,0,,,54,0
164640,note_on,12,0,4,,,,,,,,0,,,48,59
164676,note_on,96,0,1,,,,,,,,0,,,75,0
164688,note_on,48,0,4,,,,,,,,0,,,48,0
164700,note_on,12,0,4,,,,,,,,0,,,45,58
164700,note_on,0,0,1,,,,,,,,0,,,63,50
164700,note_on,0,0,1,,,,,,,,0,,,66,50
164700,note_on,24,0,1,,,,,,,,0,,,69,50
164700,note_on,0,0,1,,,,,,,,0,,,72,50
164748,note_on,48,0,4,,,,,,,,0,,,45,0
164760,note_on,12,0,4,,,,,,,,0,,,37,57
164796,note_on,0,0,1,,,,,,,,0,,,66,0
164796,note_on,0,0,1,,,,,,,,0,,,72,0
164796,note_on,0,0,1,,,,,,,,0,,,69,0
164796,note_on,96,0,1,,,,,,,,0,,,63,0
164808,note_on,48,0,4,,,,,,,,0,,,37,0
164820,note_on,24,0,1,,,,,,,,0,,,63,51
164820,note_on,0,0,1,,,,,,,,0,,,66,51
164820,note_on,0,0,1,,,,,,,,0,,,71,51
164820,note_on,12,0,4,,,,,,,,0,,,37,72
164820,control_change,0,0,4,,,,,,,,0,64,0,,
164856,control_change,36,0,4,,,,,,,,0,64,127,,
164868,note_on,12,0,4,,,,,,,,0,,,37,0
164880,note_on,12,0,4,,,,,,,,0,,,45,72
164916,note_on,0,0,1,,,,,,,,0,,,71,0
164916,note_on,0,0,1,,,,,,,,0,,,63,0
164916,note_on,96,0,1,,,,,,,,0,,,66,0
164928,note_on,48,0,4,,,,,,,,0,,,45,0
164940,note_on,24,0,1,,,,,,,,0,,,63,51
164940,note_on,12,0,4,,,,,,,,0,,,48,72
164940,note_on,0,0,1,,,,,,,,0,,,66,51
164940,note_on,0,0,1,,,,,,,,0,,,69,51
164940,note_on,0,0,1,,,,,,,,0,,,72,51
164988,note_on,48,0,4,,,,,,,,0,,,48,0
165000,note_on,12,0,4,,,,,,,,0,,,54,72
165036,note_on,96,0,1,,,,,,,,0,,,72,0
165036,note_on,0,0,1,,,,,,,,0,,,63,0
165036,note_on,0,0,1,,,,,,,,0,,,66,0
165036,note_on,0,0,1,,,,,,,,0,,,69,0
165048,note_on,48,0,4,,,,,,,,0,,,54,0
165060,note_on,0,0,1,,,,,,,,0,,,72,52
165060,note_on,12,0,4,,,,,,,,0,,,54,72
165060,note_on,0,0,1,,,,,,,,0,,,66,52
165060,note_on,24,0,1,,,,,,,,0,,,69,52
165060,note_on,0,0,1,,,,,,,,0,,,74,52
165108,note_on,48,0,4,,,,,,,,0,,,54,0
165120,note_on,12,0,4,,,,,,,,0,,,48,72
165156,note_on,0,0,1,,,,,,,,0,,,66,0
165156,note_on,0,0,1,,,,,,,,0,,,74,0
165156,note_on,96,0,1,,,,,,,,0,,,72,0
165156,note_on,0,0,1,,,,,,,,0,,,69,0
165168,note_on,48,0,4,,,,,,,,0,,,48,0
165180,note_on,0,0,1,,,,,,,,0,,,69,53
165180,note_on,0,0,1,,,,,,,,0,,,75,53
165180,note_on,0,0,1,,,,,,,,0,,,72,53
165180,note_on,12,0,4,,,,,,,,0,,,45,72
165180,note_on,24,0,1,,,,,,,,0,,,66,53
165228,note_on,48,0,4,,,,,,,,0,,,45,0
165240,note_on,12,0,4,,,,,,,,0,,,37,72
165276,note_on,96,0,1,,,,,,,,0,,,72,0
165276,note_on,0,0,1,,,,,,,,0,,,75,0
165276,note_on,0,0,1,,,,,,,,0,,,66,0
165276,note_on,0,0,1,,,,,,,,0,,,69,0
165288,note_on,48,0,4,,,,,,,,0,,,37,0
165300,note_on,24,0,1,,,,,,,,0,,,69,59
165300,control_change,0,0,4,,,,,,,,0,64,0,,
165300,note_on,0,0,1,,,,,,,,0,,,77,59
165300,note_on,12,0,4,,,,,,,,0,,,37,80
165300,note_on,0,0,1,,,,,,,,0,,,75,59
165300,note_on,0,0,1,,,,,,,,0,,,72,59
165316,control_change,16,0,4,,,,,,,,0,64,127,,
165318,set_tempo,11292,1,0,,,,,,602894,,,,,,
165323,set_tempo,5,1,0,,,,,,608952,,,,,,
165348,note_on,32,0,4,,,,,,,,0,,,37,0
165360,note_on,12,0,4,,,,,,,,0,,,45,80
165388,set_tempo,65,1,0,,,,,,615132,,,,,,
165396,note_on,0,0,1,,,,,,,,0,,,69,0
165396,note_on,96,0,1,,,,,,,,0,,,75,0
165396,note_on,0,0,1,,,,,,,,0,,,77,0
165396,note_on,0,0,1,,,,,,,,0,,,72,0
165408,note_on,48,0,4,,,,,,,,0,,,45,0
165420,note_on,12,0,4,,,,,,,,0,,,48,80
165420,note_on,0,0,1,,,,,,,,0,,,69,60
165420,note_on,0,0,1,,,,,,,,0,,,75,60
165420,note_on,0,0,1,,,,,,,,0,,,78,60
165420,note_on,24,0,1,,,,,,,,0,,,72,60
165454,set_tempo,66,1,0,,,,,,621440,,,,,,
165468,note_on,48,0,4,,,,,,,,0,,,48,0
165480,note_on,12,0,4,,,,,,,,0,,,54,80
165516,note_on,96,0,1,,,,,,,,0,,,69,0
165516,note_on,0,0,1,,,,,,,,0,,,78,0
165516,note_on,0,0,1,,,,,,,,0,,,75,0
165516,note_on,0,0,1,,,,,,,,0,,,72,0
165524,set_tempo,70,1,0,,,,,,627878,,,,,,
165528,note_on,48,0,4,,,,,,,,0,,,54,0
165540,note_on,24,0,1,,,,,,,,0,,,75,60
165540,note_on,0,0,1,,,,,,,,0,,,80,60
165540,note_on,0,0,1,,,,,,,,0,,,78,60
165540,note_on,0,0,1,,,,,,,,0,,,72,60
165540,note_on,12,0,4,,,,,,,,0,,,54,80
165588,note_on,48,0,4,,,,,,,,0,,,54,0
165589,set_tempo,65,1,0,,,,,,634451,,,,,,
165600,note_on,12,0,4,,,,,,,,0,,,48,80
165636,note_on,0,0,1,,,,,,,,0,,,78,0
165636,note_on,0,0,1,,,,,,,,0,,,75,0
165636,note_on,96,0,1,,,,,,,,0,,,80,0
165636,note_on,0,0,1,,,,,,,,0,,,72,0
165648,note_on,48,0,4,,,,,,,,0,,,48,0
165654,set_tempo,65,1,0,,,,,,641163,,,,,,
165660,note_on,24,0,1,,,,,,,,0,,,75,61
165660,note_on,0,0,1,,,,,,,,0,,,72,61
165660,note_on,0,0,1,,,,,,,,0,,,78,61
165660,note_on,0,0,1,,,,,,,,0,,,81,61
165660,note_on,12,0,4,,,,,,,,0,,,45,80
165708,note_on,48,0,4,,,,,,,,0,,,45,0
165720,note_on,12,0,4,,,,,,,,0,,,37,80
165724,set_tempo,70,1,0,,,,,,648018,,,,,,
165756,note_on,96,0,1,,,,,,,,0,,,72,0
165756,note_on,0,0,1,,,,,,,,0,,,81,0
165756,note_on,0,0,1,,,,,,,,0,,,78,0
165756,note_on,0,0,1,,,,,,,,0,,,75,0
165768,note_on,48,0,4,,,,,,,,0,,,37,0
165778,control_change,10,0,4,,,,,,,,0,64,0,,
165780,note_on,0,0,1,,,,,,,,0,,,75,61
165780,note_on,2,0,4,,,,,,,,0,,,37,80
165780,note_on,0,0,1,,,,,,,,0,,,78,61
165780,note_on,0,0,1,,,,,,,,0,,,81,61
165780,note_on,24,0,1,,,,,,,,0,,,83,61
165790,set_tempo,66,1,0,,,,,,655022,,,,,,
165792,control_change,12,0,4,,,,,,,,0,64,127,,
165828,note_on,36,0,4,,,,,,,,0,,,37,0
165840,note_on,12,0,4,,,,,,,,0,,,45,80
165855,set_tempo,65,1,0,,,,,,662179,,,,,,
165876,note_on,0,0,1,,,,,,,,0,,,75,0
165876,note_on,0,0,1,,,,,,,,0,,,78,0
165876,note_on,0,0,1,,,,,,,,0,,,83,0
165876,note_on,96,0,1,,,,,,,,0,,,81,0
165888,note_on,48,0,4,,,,,,,,0,,,45,0
165900,note_on,12,0,4,,,,,,,,0,,,48,80
165900,note_on,24,0,1,,,,,,,,0,,,81,62
165900,note_on,0,0,1,,,,,,,,0,,,75,62
165900,note_on,0,0,1,,,,,,,,0,,,78,62
165900,note_on,0,0,1,,,,,,,,0,,,84,62
165925,set_tempo,70,1,0,,,,,,669493,,,,,,
165948,note_on,48,0,4,,,,,,,,0,,,48,0
165960,note_on,12,0,4,,,,,,,,0,,,54,80
165990,set_tempo,65,1,0,,,,,,676972,,,,,,
165996,note_on,0,0,1,,,,,,,,0,,,81,0
165996,note_on,96,0,1,,,,,,,,0,,,78,0
165996,note_on,0,0,1,,,,,,,,0,,,84,0
165996,note_on,0,0,1,,,,,,,,0,,,75,0
166008,note_on,48,0,4,,,,,,,,0,,,54,0
166020,note_on,12,0,4,,,,,,,,0,,,54,80
166020,note_on,0,0,1,,,,,,,,0,,,81,63
166020,note_on,0,0,1,,,,,,,,0,,,78,63
166020,note_on,0,0,1,,,,,,,,0,,,84,63
166020,note_on,24,0,1,,,,,,,,0,,,86,63
166056,set_tempo,66,1,0,,,,,,684619,,,,,,
166068,note_on,48,0,4,,,,,,,,0,,,54,0
166080,note_on,12,0,4,,,,,,,,0,,,48,80
166116,note_on,0,0,1,,,,,,,,0,,,84,0
166116,note_on,0,0,1,,,,,,,,0,,,86,0
166116,note_on,96,0,1,,,,,,,,0,,,78,0
166116,note_on,0,0,1,,,,,,,,0,,,81,0
166126,set_tempo,70,1,0,,,,,,692441,,,,,,
166128,note_on,48,0,4,,,,,,,,0,,,48,0
166140,note_on,24,0,1,,,,,,,,0,,,87,64
166140,note_on,0,0,1,,,,,,,,0,,,81,64
166140,note_on,12,0,4,,,,,,,,0,,,45,80
166140,note_on,0,0,1,,,,,,,,0,,,84,64
166140,note_on,0,0,1,,,,,,,,0,,,78,64
166188,note_on,48,0,4,,,,,,,,0,,,45,0
166191,set_tempo,65,1,0,,,,,,700444,,,,,,
166200,note_on,12,0,4,,,,,,,,0,,,37,80
166215,note_on,22051,0,3,,,,,,,,0,,,37,64
166230,note_on,15,0,3,,,,,,,,0,,,44,64
166236,note_on,0,0,1,,,,,,,,0,,,81,0
166236,note_on,0,0,1,,,,,,,,0,,,78,0
166236,note_on,96,0,1,,,,,,,,0,,,84,0
166236,note_on,0,0,1,,,,,,,,0,,,87,0
166245,note_on,15,0,3,,,,,,,,0,,,53,64
166248,note_on,48,0,4,,,,,,,,0,,,37,0
166260,note_on,1728,0,2,,,,,,,,0,,,77,64
166272,control_change,24,0,4,,,,,,,,0,64,0,,
166275,note_on,15,0,2,,,,,,,,0,,,80,64
166280,control_change,8,0,4,,,,,,,,0,64,127,,
166290,note_on,15,0,2,,,,,,,,0,,,89,64
166452,note_on,0,0,3,,,,,,,,0,,,44,0
166452,note_on,207,0,3,,,,,,,,0,,,53,0
166452,note_on,0,0,3,,,,,,,,0,,,37,0
166455,note_on,175,0,4,,,,,,,,0,,,41,64
166470,note_on,15,0,4,,,,,,,,0,,,49,64
166476,note_on,0,0,2,,,,,,,,0,,,77,0
166476,note_on,186,0,2,,,,,,,,0,,,89,0
166476,note_on,0,0,2,,,,,,,,0,,,80,0
166485,note_on,15,0,4,,,,,,,,0,,,56,64
166500,note_on,24,0,2,,,,,,,,0,,,73,63
166515,note_on,15,0,2,,,,,,,,0,,,77,63
166530,note_on,15,0,2,,,,,,,,0,,,85,63
166644,note_on,159,0,4,,,,,,,,0,,,56,0
166644,note_on,0,0,4,,,,,,,,0,,,49,0
166644,note_on,0,0,4,,,,,,,,0,,,41,0
166695,note_on,51,0,4,,,,,,,,0,,,44,63
166710,note_on,15,0,4,,,,,,,,0,,,53,63
166716,note_on,0,0,2,,,,,,,,0,,,77,0
166716,note_on,186,0,2,,,,,,,,0,,,85,0
166716,note_on,0,0,2,,,,,,,,0,,,73,0
166725,note_on,15,0,4,,,,,,,,0,,,61,63
166740,note_on,24,0,2,,,,,,,,0,,,68,63
166755,note_on,15,0,2,,,,,,,,0,,,73,63
166770,note_on,15,0,2,,,,,,,,0,,,80,63
166884,note_on,159,0,4,,,,,,,,0,,,61,0
166884,note_on,0,0,4,,,,,,,,0,,,44,0
166884,note_on,0,0,4,,,,,,,,0,,,53,0
166935,note_on,51,0,4,,,,,,,,0,,,49,62
166950,note_on,15,0,4,,,,,,,,0,,,56,62
166956,note_on,186,0,2,,,,,,,,0,,,80,0
166956,note_on,0,0,2,,,,,,,,0,,,73,0
166956,note_on,0,0,2,,,,,,,,0,,,68,0
166965,note_on,15,0,4,,,,,,,,0,,,61,62
166980,note_on,24,0,2,,,,,,,,0,,,65,62
166995,note_on,15,0,2,,,,,,,,0,,,68,62
167010,note_on,15,0,2,,,,,,,,0,,,77,62
167124,note_on,159,0,4,,,,,,,,0,,,61,0
167124,note_on,0,0,4,,,,,,,,0,,,49,0
167124,note_on,0,0,4,,,,,,,,0,,,56,0
167175,note_on,723,0,3,,,,,,,,0,,,49,61
167190,note_on,15,0,3,,,,,,,,0,,,55,61
167196,note_on,0,0,2,,,,,,,,0,,,65,0
167196,note_on,186,0,2,,,,,,,,0,,,77,0
167196,note_on,0,0,2,,,,,,,,0,,,68,0
167205,note_on,15,0,3,,,,,,,,0,,,61,61
167220,control_change,96,0,4,,,,,,,,0,64,0,,
167220,note_on,24,0,2,,,,,,,,0,,,64,61
167235,note_on,15,0,2,,,,,,,,0,,,67,61
167242,control_change,22,0,4,,,,,,,,0,64,127,,
167250,note_on,15,0,2,,,,,,,,0,,,76,61
167364,note_on,159,0,3,,,,,,,,0,,,61,0
167364,note_on,0,0,3,,,,,,,,0,,,49,0
167364,note_on,0,0,3,,,,,,,,0,,,55,0
167415,note_on,51,0,3,,,,,,,,0,,,49,60
167430,note_on,15,0,3,,,,,,,,0,,,56,60
167436,note_on,0,0,2,,,,,,,,0,,,64,0
167436,note_on,186,0,2,,,,,,,,0,,,76,0
167436,note_on,0,0,2,,,,,,,,0,,,67,0
167445,note_on,15,0,3,,,,,,,,0,,,61,60
167460,note_on,24,0,2,,,,,,,,0,,,65,60
167475,note_on,15,0,2,,,,,,,,0,,,68,60
167490,note_on,15,0,2,,,,,,,,0,,,77,60
167604,note_on,0,0,3,,,,,,,,0,,,56,0
167604,note_on,0,0,3,,,,,,,,0,,,49,0
167604,note_on,159,0,3,,,,,,,,0,,,61,0
167655,note_on,51,0,3,,,,,,,,0,,,49,60
167670,note_on,15,0,3,,,,,,,,0,,,58,60
167676,note_on,0,0,2,,,,,,,,0,,,68,0
167676,note_on,186,0,2,,,,,,,,0,,,77,0
167676,note_on,0,0,2,,,,,,,,0,,,65,0
167685,note_on,15,0,3,,,,,,,,0,,,61,60
167700,note_on,24,0,2,,,,,,,,0,,,66,60
167715,note_on,15,0,2,,,,,,,,0,,,70,60
167730,note_on,15,0,2,,,,,,,,0,,,78,60
167844,note_on,159,0,3,,,,,,,,0,,,61,0
167844,note_on,0,0,3,,,,,,,,0,,,49,0
167844,note_on,0,0,3,,,,,,,,0,,,58,0
167895,note_on,51,0,3,,,,,,,,0,,,49,59
167910,note_on,15,0,3,,,,,,,,0,,,57,59
167916,note_on,0,0,2,,,,,,,,0,,,70,0
167916,note_on,0,0,2,,,,,,,,0,,,66,0
167916,note_on,186,0,2,,,,,,,,0,,,78,0
167925,note_on,15,0,3,,,,,,,,0,,,64,59
167940,note_on,24,0,2,,,,,,,,0,,,67,59
167955,note_on,15,0,2,,,,,,,,0,,,73,59
167970,note_on,15,0,2,,,,,,,,0,,,79,59
168084,note_on,0,0,3,,,,,,,,0,,,49,0
168084,note_on,0,0,3,,,,,,,,0,,,57,0
168084,note_on,159,0,3,,,,,,,,0,,,64,0
168135,note_on,893,0,4,,,,,,,,0,,,49,59
168150,note_on,15,0,4,,,,,,,,0,,,56,59
168156,note_on,0,0,2,,,,,,,,0,,,73,0
168156,note_on,186,0,2,,,,,,,,0,,,79,0
168156,note_on,0,0,2,,,,,,,,0,,,67,0
168165,note_on,15,0,4,,,,,,,,0,,,65,59
168180,note_on,24,0,2,,,,,,,,0,,,68,58
168180,control_change,15,0,4,,,,,,,,0,64,0,,
168195,note_on,15,0,2,,,,,,,,0,,,73,58
168198,control_change,18,0,4,,,,,,,,0,64,127,,
168210,note_on,15,0,2,,,,,,,,0,,,80,58
168324,note_on,0,0,4,,,,,,,,0,,,56,0
168324,note_on,0,0,4,,,,,,,,0,,,49,0
168324,note_on,126,0,4,,,,,,,,0,,,65,0
168360,note_on,36,0,4,,,,,,,,0,,,49,58
168375,note_on,15,0,4,,,,,,,,0,,,55,58
168390,note_on,15,0,4,,,,,,,,0,,,58,58
168396,note_on,0,0,2,,,,,,,,0,,,68,0
168396,note_on,0,0,2,,,,,,,,0,,,73,0
168396,note_on,186,0,2,,,,,,,,0,,,80,0
168405,note_on,15,0,4,,,,,,,,0,,,64,58
168420,note_on,24,0,2,,,,,,,,0,,,67,58
168435,note_on,15,0,2,,,,,,,,0,,,73,58
168450,note_on,15,0,2,,,,,,,,0,,,76,58
168465,note_on,15,0,2,,,,,,,,0,,,82,57
168564,note_on,159,0,4,,,,,,,,0,,,64,0
168564,note_on,0,0,4,,,,,,,,0,,,55,0
168564,note_on,0,0,4,,,,,,,,0,,,49,0
168564,note_on,0,0,4,,,,,,,,0,,,58,0
168600,note_on,36,0,4,,,,,,,,0,,,49,57
168615,note_on,15,0,4,,,,,,,,0,,,54,57
168624,note_on,159,0,2,,,,,,,,0,,,82,0
168624,note_on,0,0,2,,,,,,,,0,,,76,0
168624,note_on,0,0,2,,,,,,,,0,,,73,0
168624,note_on,0,0,2,,,,,,,,0,,,67,0
168630,note_on,15,0,4,,,,,,,,0,,,57,57
168645,note_on,15,0,4,,,,,,,,0,,,63,57
168660,note_on,36,0,2,,,,,,,,0,,,69,57
168675,note_on,15,0,2,,,,,,,,0,,,75,57
168690,note_on,15,0,2,,,,,,,,0,,,78,57
168705,note_on,15,0,2,,,,,,,,0,,,84,57
168804,note_on,159,0,4,,,,,,,,0,,,63,0
168804,note_on,0,0,4,,,,,,,,0,,,57,0
168804,note_on,0,0,4,,,,,,,,0,,,54,0
168804,note_on,0,0,4,,,,,,,,0,,,49,0
168840,note_on,36,0,4,,,,,,,,0,,,49,56
168855,note_on,15,0,4,,,,,,,,0,,,53,56
168870,note_on,15,0,4,,,,,,,,0,,,56,56
168885,note_on,15,0,4,,,,,,,,0,,,61,56
168888,note_on,183,0,2,,,,,,,,0,,,84,0
168888,note_on,0,0,2,,,,,,,,0,,,75,0
168888,note_on,0,0,2,,,,,,,,0,,,69,0
168888,note_on,0,0,2,,,,,,,,0,,,78,0
168900,note_on,12,0,2,,,,,,,,0,,,68,56
168915,note_on,15,0,2,,,,,,,,0,,,77,56
168930,note_on,15,0,2,,,,,,,,0,,,80,56
168945,note_on,15,0,2,,,,,,,,0,,,85,56
169044,note_on,0,0,4,,,,,,,,0,,,56,0
169044,note_on,159,0,4,,,,,,,,0,,,61,0
169044,note_on,0,0,4,,,,,,,,0,,,49,0
169044,note_on,0,0,4,,,,,,,,0,,,53,0
169080,note_on,996,0,3,,,,,,,,0,,,49,56
169095,note_on,15,0,3,,,,,,,,0,,,51,56
169104,note_on,0,0,2,,,,,,,,0,,,77,0
169104,note_on,0,0,2,,,,,,,,0,,,80,0
169104,note_on,0,0,2,,,,,,,,0,,,68,0
169104,note_on,159,0,2,,,,,,,,0,,,85,0
169110,note_on,15,0,3,,,,,,,,0,,,56,56
169125,note_on,15,0,3,,,,,,,,0,,,60,56
169140,control_change,96,0,4,,,,,,,,0,64,0,,
169140,note_on,36,0,2,,,,,,,,0,,,72,56
169155,note_on,15,0,2,,,,,,,,0,,,78,56
169163,control_change,23,0,4,,,,,,,,0,64,127,,
169170,note_on,15,0,2,,,,,,,,0,,,80,56
169185,note_on,15,0,2,,,,,,,,0,,,87,56
169284,note_on,159,0,3,,,,,,,,0,,,60,0
169284,note_on,0,0,3,,,,,,,,0,,,56,0
169284,note_on,0,0,3,,,,,,,,0,,,51,0
169284,note_on,0,0,3,,,,,,,,0,,,49,0
169320,note_on,36,0,3,,,,,,,,0,,,49,55
169335,note_on,15,0,3,,,,,,,,0,,,53,55
169344,note_on,0,0,2,,,,,,,,0,,,72,0
169344,note_on,0,0,2,,,,,,,,0,,,80,0
169344,note_on,0,0,2,,,,,,,,0,,,78,0
169344,note_on,159,0,2,,,,,,,,0,,,87,0
169350,note_on,15,0,3,,,,,,,,0,,,56,55
169365,note_on,15,0,3,,,,,,,,0,,,61,55
169380,note_on,36,0,2,,,,,,,,0,,,73,55
169395,note_on,15,0,2,,,,,,,,0,,,77,55
169410,note_on,15,0,2,,,,,,,,0,,,80,55
169425,note_on,15,0,2,,,,,,,,0,,,89,55
169524,note_on,0,0,3,,,,,,,,0,,,56,0
169524,note_on,0,0,3,,,,,,,,0,,,53,0
169524,note_on,0,0,3,,,,,,,,0,,,49,0
169524,note_on,159,0,3,,,,,,,,0,,,61,0
169560,note_on,36,0,3,,,,,,,,0,,,49,55
169575,note_on,15,0,3,,,,,,,,0,,,54,54
169584,note_on,159,0,2,,,,,,,,0,,,89,0
169584,note_on,0,0,2,,,,,,,,0,,,80,0
169584,note_on,0,0,2,,,,,,,,0,,,77,0
169584,note_on,0,0,2,,,,,,,,0,,,73,0
169590,note_on,15,0,3,,,,,,,,0,,,56,54
169605,note_on,15,0,3,,,,,,,,0,,,63,54
169620,note_on,36,0,2,,,,,,,,0,,,75,54
169635,note_on,15,0,2,,,,,,,,0,,,80,54
169650,note_on,15,0,2,,,,,,,,0,,,84,54
169665,note_on,15,0,2,,,,,,,,0,,,90,54
169764,note_on,159,0,3,,,,,,,,0,,,63,0
169764,note_on,0,0,3,,,,,,,,0,,,54,0
169764,note_on,0,0,3,,,,,,,,0,,,56,0
169764,note_on,0,0,3,,,,,,,,0,,,49,0
169800,note_on,36,0,3,,,,,,,,0,,,49,54
169815,note_on,15,0,3,,,,,,,,0,,,56,54
169824,note_on,159,0,2,,,,,,,,0,,,90,0
169824,note_on,0,0,2,,,,,,,,0,,,80,0
169824,note_on,0,0,2,,,,,,,,0,,,84,0
169824,note_on,0,0,2,,,,,,,,0,,,75,0
169830,note_on,15,0,3,,,,,,,,0,,,60,54
169845,note_on,15,0,3,,,,,,,,0,,,66,54
169860,note_on,36,0,2,,,,,,,,0,,,72,53
169875,note_on,15,0,2,,,,,,,,0,,,78,53
169890,note_on,15,0,2,,,,,,,,0,,,80,53
169905,note_on,15,0,2,,,,,,,,0,,,87,53
170004,note_on,0,0,3,,,,,,,,0,,,56,0
170004,note_on,0,0,3,,,,,,,,0,,,60,0
170004,note_on,159,0,3,,,,,,,,0,,,66,0
170004,note_on,0,0,3,,,,,,,,0,,,49,0
170055,note_on,892,0,4,,,,,,,,0,,,37,53
170064,note_on,0,0,2,,,,,,,,0,,,72,0
170064,note_on,0,0,2,,,,,,,,0,,,78,0
170064,note_on,0,0,2,,,,,,,,0,,,80,0
170064,note_on,159,0,2,,,,,,,,0,,,87,0
170070,note_on,15,0,4,,,,,,,,0,,,44,53
170085,note_on,15,0,4,,,,,,,,0,,,53,53
170100,note_on,36,0,2,,,,,,,,0,,,77,53
170100,control_change,15,0,4,,,,,,,,0,64,0,,
170115,note_on,15,0,2,,,,,,,,0,,,80,53
170130,note_on,15,0,2,,,,,,,,0,,,89,53
170158,control_change,58,0,4,,,,,,,,0,64,127,,
170292,note_on,0,0,4,,,,,,,,0,,,37,0
170292,note_on,0,0,4,,,,,,,,0,,,44,0
170292,note_on,134,0,4,,,,,,,,0,,,53,0
170295,note_on,291,0,3,,,,,,,,0,,,41,52
170310,note_on,15,0,3,,,,,,,,0,,,49,52
170316,note_on,0,0,2,,,,,,,,0,,,80,0
170316,note_on,0,0,2,,,,,,,,0,,,77,0
170316,note_on,186,0,2,,,,,,,,0,,,89,0
170325,note_on,15,0,3,,,,,,,,0,,,56,52
170340,note_on,24,0,2,,,,,,,,0,,,73,52
170355,note_on,15,0,2,,,,,,,,0,,,77,52
170370,note_on,15,0,2,,,,,,,,0,,,85,52
170484,note_on,159,0,3,,,,,,,,0,,,56,0
170484,note_on,0,0,3,,,,,,,,0,,,49,0
170484,note_on,0,0,3,,,,,,,,0,,,41,0
170535,note_on,51,0,3,,,,,,,,0,,,44,52
170550,note_on,15,0,3,,,,,,,,0,,,53,52
170556,note_on,0,0,2,,,,,,,,0,,,77,0
170556,note_on,186,0,2,,,,,,,,0,,,85,0
170556,note_on,0,0,2,,,,,,,,0,,,73,0
170565,note_on,15,0,3,,,,,,,,0,,,61,52
170580,note_on,24,0,2,,,,,,,,0,,,68,52
170595,note_on,15,0,2,,,,,,,,0,,,73,52
170610,note_on,15,0,2,,,,,,,,0,,,80,52
170724,note_on,159,0,3,,,,,,,,0,,,61,0
170724,note_on,0,0,3,,,,,,,,0,,,44,0
170724,note_on,0,0,3,,,,,,,,0,,,53,0
170775,note_on,51,0,3,,,,,,,,0,,,49,51
170790,note_on,15,0,3,,,,,,,,0,,,56,51
170796,note_on,0,0,2,,,,,,,,0,,,68,0
170796,note_on,186,0,2,,,,,,,,0,,,80,0
170796,note_on,0,0,2,,,,,,,,0,,,73,0
170805,note_on,15,0,3,,,,,,,,0,,,61,51
170820,note_on,24,0,2,,,,,,,,0,,,65,51
170835,note_on,15,0,2,,,,,,,,0,,,68,51
170850,note_on,15,0,2,,,,,,,,0,,,77,51
170964,note_on,0,0,3,,,,,,,,0,,,56,0
170964,note_on,0,0,3,,,,,,,,0,,,49,0
170964,note_on,159,0,3,,,,,,,,0,,,61,0
171015,note_on,723,0,4,,,,,,,,0,,,49,50
171030,note_on,15,0,4,,,,,,,,0,,,55,50
171036,note_on,186,0,2,,,,,,,,0,,,77,0
171036,note_on,0,0,2,,,,,,,,0,,,68,0
171036,note_on,0,0,2,,,,,,,,0,,,65,0
171045,note_on,15,0,4,,,,,,,,0,,,61,50
171060,control_change,15,0,4,,,,,,,,0,64,0,,
171060,note_on,24,0,2,,,,,,,,0,,,64,50
171060,set_tempo,4869,1,0,,,,,,708634,,,,,,
171075,note_on,15,0,2,,,,,,,,0,,,67,50
171090,note_on,15,0,2,,,,,,,,0,,,76,50
171118,control_change,58,0,4,,,,,,,,0,64,127,,
171156,set_tempo,96,1,0,,,,,,717017,,,,,,
171204,note_on,0,0,4,,,,,,,,0,,,55,0
171204,note_on,86,0,4,,,,,,,,0,,,61,0
171204,note_on,0,0,4,,,,,,,,0,,,49,0
171252,set_tempo,96,1,0,,,,,,725602,,,,,,
171255,note_on,51,0,4,,,,,,,,0,,,49,49
171270,note_on,15,0,4,,,,,,,,0,,,56,49
171276,note_on,0,0,2,,,,,,,,0,,,64,0
171276,note_on,0,0,2,,,,,,,,0,,,67,0
171276,note_on,186,0,2,,,,,,,,0,,,76,0
171285,note_on,15,0,4,,,,,,,,0,,,61,49
171300,note_on,24,0,2,,,,,,,,0,,,65,49
171315,note_on,15,0,2,,,,,,,,0,,,68,49
171330,note_on,15,0,2,,,,,,,,0,,,77,49
171348,set_tempo,96,1,0,,,,,,734394,,,,,,
171444,set_tempo,96,1,0,,,,,,743402,,,,,,
171444,note_on,159,0,4,,,,,,,,0,,,61,0
171444,note_on,0,0,4,,,,,,,,0,,,49,0
171444,note_on,0,0,4,,,,,,,,0,,,56,0
171495,note_on,51,0,4,,,,,,,,0,,,49,49
171510,note_on,15,0,4,,,,,,,,0,,,58,49
171516,note_on,186,0,2,,,,,,,,0,,,77,0
171516,note_on,0,0,2,,,,,,,,0,,,68,0
171516,note_on,0,0,2,,,,,,,,0,,,65,0
171525,note_on,15,0,4,,,,,,,,0,,,61,49
171536,set_tempo,92,1,0,,,,,,752634,,,,,,
171540,note_on,24,0,2,,,,,,,,0,,,66,48
171555,note_on,15,0,2,,,,,,,,0,,,70,48
171570,note_on,15,0,2,,,,,,,,0,,,78,48
171632,set_tempo,96,1,0,,,,,,762098,,,,,,
171684,note_on,0,0,4,,,,,,,,0,,,58,0
171684,note_on,159,0,4,,,,,,,,0,,,61,0
171684,note_on,0,0,4,,,,,,,,0,,,49,0
171728,set_tempo,96,1,0,,,,,,771803,,,,,,
171735,note_on,51,0,4,,,,,,,,0,,,49,48
171750,note_on,15,0,4,,,,,,,,0,,,57,48
171756,note_on,0,0,2,,,,,,,,0,,,70,0
171756,note_on,186,0,2,,,,,,,,0,,,78,0
171756,note_on,0,0,2,,,,,,,,0,,,66,0
171765,note_on,15,0,4,,,,,,,,0,,,64,48
171780,note_on,24,0,2,,,,,,,,0,,,67,48
171795,note_on,15,0,2,,,,,,,,0,,,73,48
171810,note_on,15,0,2,,,,,,,,0,,,79,48
171824,set_tempo,96,1,0,,,,,,781759,,,,,,
171920,set_tempo,96,1,0,,,,,,791975,,,,,,
171924,note_on,0,0,4,,,,,,,,0,,,49,0
171924,note_on,0,0,4,,,,,,,,0,,,57,0
171924,note_on,159,0,4,,,,,,,,0,,,64,0
171975,note_on,1011,0,3,,,,,,,,0,,,49,48
171990,note_on,15,0,3,,,,,,,,0,,,56,48
171996,note_on,186,0,2,,,,,,,,0,,,79,0
171996,note_on,0,0,2,,,,,,,,0,,,73,0
171996,note_on,0,0,2,,,,,,,,0,,,67,0
172005,note_on,15,0,3,,,,,,,,0,,,65,48
172011,set_tempo,91,1,0,,,,,,802461,,,,,,
172020,note_on,5784,0,1,,,,,,,,0,,,68,48
172020,control_change,96,0,4,,,,,,,,0,64,0,,
172035,note_on,15,0,1,,,,,,,,0,,,73,48
172050,note_on,15,0,1,,,,,,,,0,,,80,48
172056,control_change,36,0,4,,,,,,,,0,64,127,,
172626,note_on,0,0,1,,,,,,,,0,,,73,0
172626,note_on,576,0,1,,,,,,,,0,,,80,0
172626,note_on,0,0,1,,,,,,,,0,,,68,0
172788,note_on,0,0,3,,,,,,,,0,,,49,0
172788,note_on,783,0,3,,,,,,,,0,,,65,0
172788,note_on,0,0,3,,,,,,,,0,,,56,0
172890,note_on,834,0,4,,,,,,,,0,,,46,48
172920,note_on,30,0,4,,,,,,,,0,,,53,48
172950,note_on,30,0,4,,,,,,,,0,,,61,48
172980,control_change,30,0,4,,,,,,,,0,64,0,,
172980,note_on,354,0,1,,,,,,,,0,,,70,48
172995,note_on,15,0,1,,,,,,,,0,,,77,48
173002,control_change,22,0,4,,,,,,,,0,64,127,,
173010,note_on,15,0,1,,,,,,,,0,,,85,48
173586,note_on,0,0,1,,,,,,,,0,,,70,0
173586,note_on,0,0,1,,,,,,,,0,,,77,0
173586,note_on,576,0,1,,,,,,,,0,,,85,0
173748,note_on,0,0,4,,,,,,,,0,,,53,0
173748,note_on,0,0,4,,,,,,,,0,,,46,0
173748,note_on,746,0,4,,,,,,,,0,,,61,0
173820,note_on,1032,0,3,,,,,,,,0,,,41,48
173850,note_on,30,0,3,,,,,,,,0,,,48,48
173880,note_on,30,0,3,,,,,,,,0,,,53,48
173910,note_on,30,0,3,,,,,,,,0,,,56,48
173940,note_on,354,0,1,,,,,,,,0,,,72,48
173940,control_change,192,0,4,,,,,,,,0,64,0,,
173955,note_on,15,0,1,,,,,,,,0,,,77,48
173970,note_on,15,0,1,,,,,,,,0,,,80,48
173981,control_change,41,0,4,,,,,,,,0,64,127,,
173985,note_on,15,0,1,,,,,,,,0,,,89,48
174561,note_on,0,0,1,,,,,,,,0,,,72,0
174561,note_on,0,0,1,,,,,,,,0,,,77,0
174561,note_on,0,0,1,,,,,,,,0,,,80,0
174561,note_on,576,0,1,,,,,,,,0,,,89,0
174561,end_of_track,0,1,1,,,,,,,,,,,,
174708,note_on,0,0,3,,,,,,,,0,,,53,0
174708,note_on,0,0,3,,,,,,,,0,,,48,0
174708,end_of_track,0,1,3,,,,,,,,,,,,
174708,note_on,798,0,3,,,,,,,,0,,,56,0
174708,note_on,0,0,3,,,,,,,,0,,,41,0
174897,set_tempo,2886,1,0,,,,,,669493,,,,,,
174900,note_on,919,0,4,,,,,,,,0,,,32,48
174902,control_change,2,0,4,,,,,,,,0,64,0,,
174918,control_change,16,0,4,,,,,,,,0,64,127,,
174996,note_on,78,0,4,,,,,,,,0,,,32,0
175020,note_on,24,0,4,,,,,,,,0,,,36,48
175116,note_on,96,0,4,,,,,,,,0,,,36,0
175140,note_on,24,0,4,,,,,,,,0,,,42,48
175204,note_on,64,0,4,,,,,,,,0,,,42,0
175220,note_on,16,0,4,,,,,,,,0,,,44,48
175284,note_on,64,0,4,,,,,,,,0,,,44,0
175300,note_on,16,0,4,,,,,,,,0,,,48,48
175348,note_on,48,0,4,,,,,,,,0,,,48,0
175360,note_on,12,0,4,,,,,,,,0,,,51,48
175408,note_on,48,0,4,,,,,,,,0,,,51,0
175420,note_on,12,0,4,,,,,,,,0,,,56,48
175452,note_on,32,0,4,,,,,,,,0,,,56,0
175460,note_on,8,0,4,,,,,,,,0,,,60,48
175492,note_on,32,0,4,,,,,,,,0,,,60,0
175500,note_on,8,0,4,,,,,,,,0,,,63,48
175532,note_on,32,0,4,,,,,,,,0,,,63,0
175540,note_on,8,0,4,,,,,,,,0,,,66,48
175572,note_on,32,0,4,,,,,,,,0,,,66,0
175580,note_on,8,0,4,,,,,,,,0,,,68,48
175604,note_on,24,0,4,,,,,,,,0,,,68,0
175610,note_on,6,0,4,,,,,,,,0,,,72,48
175634,note_on,24,0,4,,,,,,,,0,,,72,0
175640,note_on,6,0,4,,,,,,,,0,,,78,48
175664,note_on,24,0,4,,,,,,,,0,,,78,0
175670,note_on,6,0,4,,,,,,,,0,,,80,48
175694,note_on,24,0,4,,,,,,,,0,,,80,0
175700,note_on,6,0,4,,,,,,,,0,,,84,48
175724,note_on,24,0,4,,,,,,,,0,,,84,0
175730,note_on,6,0,4,,,,,,,,0,,,92,48
176820,control_change,1090,0,4,,,,,,,,0,64,0,,
176820,note_on,0,0,4,,,,,,,,0,,,25,48
176842,control_change,22,0,4,,,,,,,,0,64,127,,
176916,note_on,74,0,4,,,,,,,,0,,,25,0
176940,note_on,24,0,4,,,,,,,,0,,,37,48
177012,note_on,72,0,4,,,,,,,,0,,,92,0
177036,note_on,24,0,4,,,,,,,,0,,,37,0
177060,note_on,24,0,4,,,,,,,,0,,,41,48
177156,note_on,96,0,4,,,,,,,,0,,,41,0
177180,note_on,24,0,4,,,,,,,,0,,,49,48
177276,note_on,96,0,4,,,,,,,,0,,,49,0
177300,note_on,24,0,4,,,,,,,,0,,,53,48
177364,note_on,64,0,4,,,,,,,,0,,,53,0
177380,note_on,16,0,4,,,,,,,,0,,,56,48
177444,note_on,64,0,4,,,,,,,,0,,,56,0
177460,note_on,16,0,4,,,,,,,,0,,,61,48
177508,note_on,48,0,4,,,,,,,,0,,,61,0
177520,note_on,12,0,4,,,,,,,,0,,,65,48
177568,note_on,48,0,4,,,,,,,,0,,,65,0
177580,note_on,12,0,4,,,,,,,,0,,,68,48
177628,note_on,48,0,4,,,,,,,,0,,,68,0
177640,note_on,12,0,4,,,,,,,,0,,,73,48
177688,note_on,48,0,4,,,,,,,,0,,,73,0
177700,note_on,12,0,4,,,,,,,,0,,,77,48
177740,note_on,40,0,4,,,,,,,,0,,,77,0
177740,note_on,0,0,4,,,,,,,,0,,,80,48
177780,note_on,5784,0,2,,,,,,,,0,,,85,48
177780,note_on,40,0,4,,,,,,,,0,,,80,0
177795,note_on,15,0,2,,,,,,,,0,,,89,48
177810,note_on,15,0,2,,,,,,,,0,,,92,48
177825,note_on,15,0,2,,,,,,,,0,,,97,48
178593,end_of_track,0,1,2,,,,,,,,,,,,
178593,note_on,0,0,2,,,,,,,,0,,,85,0
178593,note_on,0,0,2,,,,,,,,0,,,92,0
178593,note_on,768,0,2,,,,,,,,0,,,97,0
178593,note_on,0,0,2,,,,,,,,0,,,89,0
178677,control_change,897,0,4,,,,,,,,0,64,0,,
178732,set_tempo,3835,1,0,,,,,,1018157,,,,,,
178740,control_change,63,0,4,,,,,,,,0,64,127,,
178980,note_on,0,0,4,,,,,,,,0,,,44,48
178980,note_on,240,0,4,,,,,,,,0,,,37,48
178980,note_on,0,0,4,,,,,,,,0,,,49,48
178980,note_on,0,0,4,,,,,,,,0,,,53,48
178982,set_tempo,250,1,0,,,,,,1018157,,,,,,
179025,set_tempo,43,1,0,,,,,,1035554,,,,,,
179064,set_tempo,39,1,0,,,,,,1053556,,,,,,
179104,set_tempo,40,1,0,,,,,,1072194,,,,,,
179143,set_tempo,39,1,0,,,,,,1091504,,,,,,
179172,note_on,192,0,4,,,,,,,,0,,,53,0
179172,note_on,0,0,4,,,,,,,,0,,,37,0
179172,note_on,0,0,4,,,,,,,,0,,,44,0
179172,note_on,0,0,4,,,,,,,,0,,,49,0
179182,set_tempo,39,1,0,,,,,,1111523,,,,,,
179220,note_on,0,0,4,,,,,,,,0,,,37,48
179220,note_on,0,0,4,,,,,,,,0,,,49,48
179220,note_on,0,0,4,,,,,,,,0,,,53,48
179220,note_on,48,0,4,,,,,,,,0,,,44,48
179222,set_tempo,40,1,0,,,,,,1132289,,,,,,
179265,set_tempo,43,1,0,,,,,,1153846,,,,,,
179304,set_tempo,39,1,0,,,,,,1176240,,,,,,
179344,set_tempo,40,1,0,,,,,,1199520,,,,,,
179383,set_tempo,39,1,0,,,,,,1223741,,,,,,
179412,note_on,192,0,4,,,,,,,,0,,,37,0
179412,note_on,0,0,4,,,,,,,,0,,,49,0
179412,note_on,0,0,4,,,,,,,,0,,,53,0
179412,note_on,0,0,4,,,,,,,,0,,,44,0
179422,set_tempo,39,1,0,,,,,,1248959,,,,,,
179460,note_on,0,0,4,,,,,,,,0,,,37,48
179460,note_on,48,0,4,,,,,,,,0,,,44,48
179460,note_on,0,0,4,,,,,,,,0,,,53,48
179460,note_on,0,0,4,,,,,,,,0,,,49,48
179462,set_tempo,40,1,0,,,,,,1275239,,,,,,
179505,set_tempo,43,1,0,,,,,,1302649,,,,,,
179544,set_tempo,39,1,0,,,,,,1331262,,,,,,
179584,set_tempo,40,1,0,,,,,,1361162,,,,,,
179623,set_tempo,39,1,0,,,,,,1392434,,,,,,
179652,note_on,0,0,4,,,,,,,,0,,,44,0
179652,note_on,192,0,4,,,,,,,,0,,,37,0
179652,note_on,0,0,4,,,,,,,,0,,,49,0
179652,note_on,0,0,4,,,,,,,,0,,,53,0
179662,set_tempo,39,1,0,,,,,,1425178,,,,,,
179700,note_on,0,0,4,,,,,,,,0,,,53,48
179700,note_on,48,0,4,,,,,,,,0,,,44,48
179700,note_on,0,0,4,,,,,,,,0,,,37,48
179700,note_on,0,0,4,,,,,,,,0,,,49,48
179702,set_tempo,40,1,0,,,,,,1459499,,,,,,
179707,set_tempo,5,1,0,,,,,,1018157,,,,,,
179900,control_change,200,0,4,,,,,,,,0,64,0,,
180468,note_on,0,0,4,,,,,,,,0,,,49,0
180468,note_on,568,0,4,,,,,,,,0,,,53,0
180468,end_of_track,0,1,4,,,,,,,,,,,,
180468,note_on,0,0,4,,,,,,,,0,,,37,0
180468,note_on,0,0,4,,,,,,,,0,,,44,0
180677,end_of_track,0,1,0,,,,,,,,,,,,
180677,set_tempo,970,1,0,,,,,,1302649,,,,,,
