tick,type,time,meta,track,numerator,denominator,clocks_per_click,notated_32nd_notes_per_beat,key,tempo,program,channel,control,value,note,velocity
0,control_change,0,0,1,,,,,,,,0,7,127,,
0,track_name,0,1,2,,,,,,,,,,,,
0,track_name,0,1,1,,,,,,,,,,,,
0,track_name,0,1,0,,,,,,,,,,,,
0,time_signature,0,1,0,2,4,24,8,,,,,,,,
0,set_tempo,0,1,0,,,,,,571646,,,,,,
0,program_change,0,0,4,,,,,,,0,0,,,,
0,program_change,0,0,3,,,,,,,0,0,,,,
0,program_change,0,0,2,,,,,,,0,0,,,,
0,program_change,0,0,1,,,,,,,0,0,,,,
0,track_name,0,1,3,,,,,,,,,,,,
0,key_signature,0,1,0,,,,,C,,,,,,,
0,track_name,0,1,4,,,,,,,,,,,,
0,control_change,0,0,3,,,,,,,,0,7,127,,
0,control_change,0,0,1,,,,,,,,0,10,63,,
0,control_change,0,0,2,,,,,,,,0,7,127,,
0,control_change,0,0,2,,,,,,,,0,10,63,,
0,control_change,0,0,3,,,,,,,,0,10,63,,
0,control_change,0,0,4,,,,,,,,0,7,127,,
0,control_change,0,0,4,,,,,,,,0,10,63,,
4,set_tempo,4,1,0,,,,,,575705,,,,,,
95,control_change,95,0,4,,,,,,,,0,64,127,,
120,note_on,120,0,1,,,,,,,,0,,,68,64
120,note_on,0,0,1,,,,,,,,0,,,77,64
120,note_on,0,0,1,,,,,,,,0,,,72,64
152,note_on,0,0,1,,,,,,,,0,,,77,0
152,note_on,0,0,1,,,,,,,,0,,,68,0
152,note_on,32,0,1,,,,,,,,0,,,72,0
160,note_on,0,0,1,,,,,,,,0,,,70,64
160,note_on,0,0,1,,,,,,,,0,,,79,64
160,note_on,8,0,1,,,,,,,,0,,,73,64
192,note_on,0,0,1,,,,,,,,0,,,73,0
192,note_on,32,0,1,,,,,,,,0,,,79,0
192,note_on,0,0,1,,,,,,,,0,,,70,0
200,note_on,8,0,1,,,,,,,,0,,,72,64
200,note_on,0,0,1,,,,,,,,0,,,77,64
200,note_on,0,0,1,,,,,,,,0,,,68,64
232,note_on,0,0,1,,,,,,,,0,,,68,0
232,note_on,32,0,1,,,,,,,,0,,,77,0
232,note_on,0,0,1,,,,,,,,0,,,72,0
240,note_on,0,0,1,,,,,,,,0,,,75,64
240,note_on,0,0,1,,,,,,,,0,,,70,64
240,note_on,8,0,1,,,,,,,,0,,,67,64
254,set_tempo,250,1,0,,,,,,571646,,,,,,
258,set_tempo,4,1,0,,,,,,575705,,,,,,
272,note_on,0,0,1,,,,,,,,0,,,67,0
272,note_on,0,0,1,,,,,,,,0,,,70,0
272,note_on,32,0,1,,,,,,,,0,,,75,0
280,note_on,0,0,1,,,,,,,,0,,,72,64
280,note_on,0,0,1,,,,,,,,0,,,77,64
280,note_on,8,0,1,,,,,,,,0,,,68,64
312,note_on,0,0,1,,,,,,,,0,,,68,0
312,note_on,0,0,1,,,,,,,,0,,,72,0
312,note_on,32,0,1,,,,,,,,0,,,77,0
320,note_on,0,0,1,,,,,,,,0,,,70,64
320,note_on,0,0,1,,,,,,,,0,,,75,64
320,note_on,8,0,1,,,,,,,,0,,,67,64
352,note_on,0,0,1,,,,,,,,0,,,67,0
352,note_on,0,0,1,,,,,,,,0,,,70,0
352,note_on,32,0,1,,,,,,,,0,,,75,0
360,note_on,8,0,1,,,,,,,,0,,,65,64
360,note_on,0,0,1,,,,,,,,0,,,73,64
360,note_on,0,0,1,,,,,,,,0,,,68,64
392,note_on,0,0,1,,,,,,,,0,,,68,0
392,note_on,32,0,1,,,,,,,,0,,,73,0
392,note_on,0,0,1,,,,,,,,0,,,65,0
400,note_on,8,0,1,,,,,,,,0,,,67,64
400,note_on,0,0,1,,,,,,,,0,,,70,64
400,note_on,0,0,1,,,,,,,,0,,,75,64
432,note_on,0,0,1,,,,,,,,0,,,67,0
432,note_on,0,0,1,,,,,,,,0,,,70,0
432,note_on,32,0,1,,,,,,,,0,,,75,0
440,note_on,8,0,1,,,,,,,,0,,,65,64
440,note_on,0,0,1,,,,,,,,0,,,68,64
440,note_on,0,0,1,,,,,,,,0,,,73,64
472,note_on,0,0,1,,,,,,,,0,,,65,0
472,note_on,0,0,1,,,,,,,,0,,,68,0
472,note_on,32,0,1,,,,,,,,0,,,73,0
480,note_on,0,0,1,,,,,,,,0,,,63,64
480,note_on,8,0,1,,,,,,,,0,,,67,64
480,note_on,0,0,1,,,,,,,,0,,,72,64
512,note_on,32,0,1,,,,,,,,0,,,72,0
512,note_on,0,0,1,,,,,,,,0,,,67,0
512,note_on,0,0,1,,,,,,,,0,,,63,0
520,note_on,0,0,1,,,,,,,,0,,,68,64
520,note_on,0,0,1,,,,,,,,0,,,65,64
520,note_on,8,0,1,,,,,,,,0,,,73,64
552,note_on,0,0,1,,,,,,,,0,,,73,0
552,note_on,32,0,1,,,,,,,,0,,,65,0
552,note_on,0,0,1,,,,,,,,0,,,68,0
560,note_on,0,0,1,,,,,,,,0,,,67,64
560,note_on,8,0,1,,,,,,,,0,,,63,64
560,note_on,0,0,1,,,,,,,,0,,,72,64
592,note_on,0,0,1,,,,,,,,0,,,72,0
592,note_on,0,0,1,,,,,,,,0,,,63,0
592,note_on,32,0,1,,,,,,,,0,,,67,0
600,note_on,8,0,1,,,,,,,,0,,,65,64
600,note_on,0,0,1,,,,,,,,0,,,61,64
600,note_on,0,0,1,,,,,,,,0,,,70,64
632,note_on,32,0,1,,,,,,,,0,,,70,0
632,note_on,0,0,1,,,,,,,,0,,,61,0
632,note_on,0,0,1,,,,,,,,0,,,65,0
640,note_on,8,0,1,,,,,,,,0,,,72,64
640,note_on,0,0,1,,,,,,,,0,,,67,64
640,note_on,0,0,1,,,,,,,,0,,,63,64
672,note_on,0,0,1,,,,,,,,0,,,72,0
672,note_on,32,0,1,,,,,,,,0,,,63,0
672,note_on,0,0,1,,,,,,,,0,,,67,0
680,note_on,8,0,1,,,,,,,,0,,,70,64
680,note_on,0,0,1,,,,,,,,0,,,65,64
680,note_on,0,0,1,,,,,,,,0,,,61,64
691,control_change,596,0,4,,,,,,,,0,64,0,,
712,note_on,0,0,1,,,,,,,,0,,,70,0
712,note_on,0,0,1,,,,,,,,0,,,65,0
712,note_on,32,0,1,,,,,,,,0,,,61,0
720,note_on,0,0,1,,,,,,,,0,,,68,64
720,note_on,0,0,1,,,,,,,,0,,,63,64
720,note_on,8,0,1,,,,,,,,0,,,60,64
752,note_on,0,0,1,,,,,,,,0,,,63,0
752,note_on,0,0,1,,,,,,,,0,,,60,0
752,note_on,32,0,1,,,,,,,,0,,,68,0
760,note_on,8,0,1,,,,,,,,0,,,65,64
760,note_on,0,0,1,,,,,,,,0,,,70,64
760,note_on,0,0,1,,,,,,,,0,,,61,64
792,note_on,0,0,1,,,,,,,,0,,,65,0
792,note_on,0,0,1,,,,,,,,0,,,61,0
792,note_on,32,0,1,,,,,,,,0,,,70,0
800,note_on,0,0,1,,,,,,,,0,,,68,64
800,note_on,0,0,1,,,,,,,,0,,,63,64
800,note_on,8,0,1,,,,,,,,0,,,60,64
832,note_on,32,0,1,,,,,,,,0,,,68,0
832,note_on,0,0,1,,,,,,,,0,,,60,0
832,note_on,0,0,1,,,,,,,,0,,,63,0
840,note_on,8,0,1,,,,,,,,0,,,58,64
840,note_on,0,0,1,,,,,,,,0,,,61,64
840,note_on,0,0,1,,,,,,,,0,,,67,64
872,note_on,32,0,1,,,,,,,,0,,,67,0
872,note_on,0,0,1,,,,,,,,0,,,58,0
872,note_on,0,0,1,,,,,,,,0,,,61,0
880,note_on,8,0,1,,,,,,,,0,,,60,64
880,note_on,0,0,1,,,,,,,,0,,,68,64
880,note_on,0,0,1,,,,,,,,0,,,63,64
912,note_on,32,0,1,,,,,,,,0,,,68,0
912,note_on,0,0,1,,,,,,,,0,,,60,0
912,note_on,0,0,1,,,,,,,,0,,,63,0
920,note_on,8,0,1,,,,,,,,0,,,58,64
920,note_on,0,0,1,,,,,,,,0,,,67,64
920,note_on,0,0,1,,,,,,,,0,,,61,64
952,note_on,32,0,1,,,,,,,,0,,,67,0
952,note_on,0,0,1,,,,,,,,0,,,58,0
952,note_on,0,0,1,,,,,,,,0,,,61,0
960,control_change,269,0,4,,,,,,,,0,64,127,,
960,note_on,960,0,3,,,,,,,,0,,,41,68
960,note_on,0,0,3,,,,,,,,0,,,48,68
960,note_on,0,0,3,,,,,,,,0,,,53,68
1000,note_on,48,0,1,,,,,,,,0,,,56,56
1000,note_on,0,0,1,,,,,,,,0,,,65,56
1020,note_on,0,0,3,,,,,,,,0,,,48,0
1020,note_on,0,0,3,,,,,,,,0,,,41,0
1020,note_on,60,0,3,,,,,,,,0,,,53,0
1032,note_on,0,0,1,,,,,,,,0,,,56,0
1032,note_on,32,0,1,,,,,,,,0,,,65,0
1040,note_on,8,0,1,,,,,,,,0,,,58,56
1040,note_on,0,0,1,,,,,,,,0,,,67,56
1040,note_on,1040,0,2,,,,,,,,0,,,71,80
1072,note_on,32,0,1,,,,,,,,0,,,67,0
1072,note_on,0,0,1,,,,,,,,0,,,58,0
1104,note_on,64,0,2,,,,,,,,0,,,71,0
1120,note_on,0,0,1,,,,,,,,0,,,68,56
1120,note_on,48,0,1,,,,,,,,0,,,60,56
1120,note_on,16,0,2,,,,,,,,0,,,72,80
1152,note_on,0,0,1,,,,,,,,0,,,60,0
1152,note_on,32,0,1,,,,,,,,0,,,68,0
1160,note_on,8,0,1,,,,,,,,0,,,65,56
1160,note_on,0,0,1,,,,,,,,0,,,56,56
1184,note_on,64,0,2,,,,,,,,0,,,72,0
1192,note_on,32,0,1,,,,,,,,0,,,56,0
1192,note_on,0,0,1,,,,,,,,0,,,65,0
1200,note_on,0,0,3,,,,,,,,0,,,52,68
1200,note_on,180,0,3,,,,,,,,0,,,41,68
1200,note_on,0,0,3,,,,,,,,0,,,49,68
1205,control_change,245,0,4,,,,,,,,0,64,0,,
1219,control_change,14,0,4,,,,,,,,0,64,127,,
1240,note_on,48,0,1,,,,,,,,0,,,55,56
1240,note_on,0,0,1,,,,,,,,0,,,64,56
1260,note_on,60,0,3,,,,,,,,0,,,49,0
1260,note_on,0,0,3,,,,,,,,0,,,52,0
1260,note_on,0,0,3,,,,,,,,0,,,41,0
1272,note_on,0,0,1,,,,,,,,0,,,55,0
1272,note_on,32,0,1,,,,,,,,0,,,64,0
1280,note_on,8,0,1,,,,,,,,0,,,65,56
1280,note_on,0,0,1,,,,,,,,0,,,56,56
1280,note_on,96,0,2,,,,,,,,0,,,73,80
1312,note_on,32,0,1,,,,,,,,0,,,56,0
1312,note_on,0,0,1,,,,,,,,0,,,65,0
1344,note_on,64,0,2,,,,,,,,0,,,73,0
1360,note_on,48,0,1,,,,,,,,0,,,58,56
1360,note_on,0,0,1,,,,,,,,0,,,67,56
1360,note_on,16,0,2,,,,,,,,0,,,72,80
1392,note_on,32,0,1,,,,,,,,0,,,67,0
1392,note_on,0,0,1,,,,,,,,0,,,58,0
1400,note_on,8,0,1,,,,,,,,0,,,55,56
1400,note_on,0,0,1,,,,,,,,0,,,64,56
1424,note_on,64,0,2,,,,,,,,0,,,72,0
1432,note_on,32,0,1,,,,,,,,0,,,64,0
1432,note_on,0,0,1,,,,,,,,0,,,55,0
1440,note_on,0,0,3,,,,,,,,0,,,53,68
1440,note_on,0,0,3,,,,,,,,0,,,41,68
1440,control_change,221,0,4,,,,,,,,0,64,0,,
1440,note_on,180,0,3,,,,,,,,0,,,48,68
1480,note_on,48,0,1,,,,,,,,0,,,56,80
1480,note_on,0,0,1,,,,,,,,0,,,65,80
1512,note_on,32,0,1,,,,,,,,0,,,65,0
1512,note_on,0,0,1,,,,,,,,0,,,56,0
1520,note_on,8,0,1,,,,,,,,0,,,68,80
1520,note_on,0,0,1,,,,,,,,0,,,60,80
1536,note_on,0,0,3,,,,,,,,0,,,48,0
1536,note_on,96,0,3,,,,,,,,0,,,41,0
1536,note_on,0,0,3,,,,,,,,0,,,53,0
1552,note_on,0,0,1,,,,,,,,0,,,68,0
1552,note_on,32,0,1,,,,,,,,0,,,60,0
1552,control_change,112,0,4,,,,,,,,0,64,127,,
1560,note_on,0,0,1,,,,,,,,0,,,72,80
1560,note_on,8,0,1,,,,,,,,0,,,68,80
1560,note_on,0,0,1,,,,,,,,0,,,77,80
1592,note_on,0,0,1,,,,,,,,0,,,72,0
1592,note_on,32,0,1,,,,,,,,0,,,77,0
1592,note_on,0,0,1,,,,,,,,0,,,68,0
1600,note_on,0,0,1,,,,,,,,0,,,79,80
1600,note_on,8,0,1,,,,,,,,0,,,70,80
1600,note_on,0,0,1,,,,,,,,0,,,73,80
1632,note_on,0,0,1,,,,,,,,0,,,79,0
1632,note_on,32,0,1,,,,,,,,0,,,73,0
1632,note_on,0,0,1,,,,,,,,0,,,70,0
1640,note_on,0,0,1,,,,,,,,0,,,72,80
1640,note_on,0,0,1,,,,,,,,0,,,77,80
1640,note_on,8,0,1,,,,,,,,0,,,68,80
1672,note_on,0,0,1,,,,,,,,0,,,68,0
1672,note_on,0,0,1,,,,,,,,0,,,77,0
1672,note_on,32,0,1,,,,,,,,0,,,72,0
1680,note_on,8,0,1,,,,,,,,0,,,75,80
1680,note_on,0,0,1,,,,,,,,0,,,67,80
1680,note_on,0,0,1,,,,,,,,0,,,70,80
1712,note_on,32,0,1,,,,,,,,0,,,70,0
1712,note_on,0,0,1,,,,,,,,0,,,67,0
1712,note_on,0,0,1,,,,,,,,0,,,75,0
1720,note_on,0,0,1,,,,,,,,0,,,72,80
1720,note_on,8,0,1,,,,,,,,0,,,68,80
1720,note_on,0,0,1,,,,,,,,0,,,77,80
1752,note_on,0,0,1,,,,,,,,0,,,72,0
1752,note_on,0,0,1,,,,,,,,0,,,68,0
1752,note_on,32,0,1,,,,,,,,0,,,77,0
1760,note_on,0,0,1,,,,,,,,0,,,70,80
1760,note_on,0,0,1,,,,,,,,0,,,75,80
1760,note_on,8,0,1,,,,,,,,0,,,67,80
1792,note_on,32,0,1,,,,,,,,0,,,75,0
1792,note_on,0,0,1,,,,,,,,0,,,67,0
1792,note_on,0,0,1,,,,,,,,0,,,70,0
1800,note_on,8,0,1,,,,,,,,0,,,73,80
1800,note_on,0,0,1,,,,,,,,0,,,65,80
1800,note_on,0,0,1,,,,,,,,0,,,68,80
1832,note_on,32,0,1,,,,,,,,0,,,65,0
1832,note_on,0,0,1,,,,,,,,0,,,68,0
1832,note_on,0,0,1,,,,,,,,0,,,73,0
1840,note_on,8,0,1,,,,,,,,0,,,67,80
1840,note_on,0,0,1,,,,,,,,0,,,75,80
1840,note_on,0,0,1,,,,,,,,0,,,70,80
1872,note_on,0,0,1,,,,,,,,0,,,70,0
1872,note_on,32,0,1,,,,,,,,0,,,75,0
1872,note_on,0,0,1,,,,,,,,0,,,67,0
1880,note_on,8,0,1,,,,,,,,0,,,65,80
1880,note_on,0,0,1,,,,,,,,0,,,68,80
1880,note_on,0,0,1,,,,,,,,0,,,73,80
1912,note_on,32,0,1,,,,,,,,0,,,73,0
1912,note_on,0,0,1,,,,,,,,0,,,65,0
1912,note_on,0,0,1,,,,,,,,0,,,68,0
1920,note_on,0,0,1,,,,,,,,0,,,63,80
1920,note_on,0,0,1,,,,,,,,0,,,67,80
1920,note_on,8,0,1,,,,,,,,0,,,72,80
1952,note_on,0,0,1,,,,,,,,0,,,67,0
1952,note_on,0,0,1,,,,,,,,0,,,72,0
1952,note_on,32,0,1,,,,,,,,0,,,63,0
1960,note_on,8,0,1,,,,,,,,0,,,65,80
1960,note_on,0,0,1,,,,,,,,0,,,73,80
1960,note_on,0,0,1,,,,,,,,0,,,68,80
1992,note_on,32,0,1,,,,,,,,0,,,68,0
1992,note_on,0,0,1,,,,,,,,0,,,65,0
1992,note_on,0,0,1,,,,,,,,0,,,73,0
2000,note_on,8,0,1,,,,,,,,0,,,67,80
2000,note_on,0,0,1,,,,,,,,0,,,72,80
2000,note_on,0,0,1,,,,,,,,0,,,63,80
2032,note_on,0,0,1,,,,,,,,0,,,63,0
2032,note_on,32,0,1,,,,,,,,0,,,72,0
2032,note_on,0,0,1,,,,,,,,0,,,67,0
2040,note_on,0,0,1,,,,,,,,0,,,65,80
2040,note_on,8,0,1,,,,,,,,0,,,70,80
2040,note_on,0,0,1,,,,,,,,0,,,61,80
2072,note_on,32,0,1,,,,,,,,0,,,61,0
2072,note_on,0,0,1,,,,,,,,0,,,65,0
2072,note_on,0,0,1,,,,,,,,0,,,70,0
2080,note_on,0,0,1,,,,,,,,0,,,67,80
2080,note_on,0,0,1,,,,,,,,0,,,72,80
2080,note_on,8,0,1,,,,,,,,0,,,63,80
2112,note_on,32,0,1,,,,,,,,0,,,67,0
2112,note_on,0,0,1,,,,,,,,0,,,72,0
2112,note_on,0,0,1,,,,,,,,0,,,63,0
2120,note_on,8,0,1,,,,,,,,0,,,61,80
2120,note_on,0,0,1,,,,,,,,0,,,70,80
2120,note_on,0,0,1,,,,,,,,0,,,65,80
2140,control_change,588,0,4,,,,,,,,0,64,0,,
2152,note_on,32,0,1,,,,,,,,0,,,65,0
2152,note_on,0,0,1,,,,,,,,0,,,61,0
2152,note_on,0,0,1,,,,,,,,0,,,70,0
2160,note_on,8,0,1,,,,,,,,0,,,60,80
2160,note_on,0,0,1,,,,,,,,0,,,63,80
2160,note_on,0,0,1,,,,,,,,0,,,68,80
2192,note_on,0,0,1,,,,,,,,0,,,60,0
2192,note_on,32,0,1,,,,,,,,0,,,68,0
2192,note_on,0,0,1,,,,,,,,0,,,63,0
2200,note_on,0,0,1,,,,,,,,0,,,61,80
2200,note_on,0,0,1,,,,,,,,0,,,70,80
2200,note_on,8,0,1,,,,,,,,0,,,65,80
2232,note_on,0,0,1,,,,,,,,0,,,61,0
2232,note_on,0,0,1,,,,,,,,0,,,65,0
2232,note_on,32,0,1,,,,,,,,0,,,70,0
2240,note_on,0,0,1,,,,,,,,0,,,63,80
2240,note_on,0,0,1,,,,,,,,0,,,68,80
2240,note_on,8,0,1,,,,,,,,0,,,60,80
2272,note_on,32,0,1,,,,,,,,0,,,68,0
2272,note_on,0,0,1,,,,,,,,0,,,60,0
2272,note_on,0,0,1,,,,,,,,0,,,63,0
2280,note_on,0,0,1,,,,,,,,0,,,61,80
2280,note_on,8,0,1,,,,,,,,0,,,58,80
2280,note_on,0,0,1,,,,,,,,0,,,67,80
2312,note_on,0,0,1,,,,,,,,0,,,58,0
2312,note_on,0,0,1,,,,,,,,0,,,61,0
2312,note_on,32,0,1,,,,,,,,0,,,67,0
2320,note_on,0,0,1,,,,,,,,0,,,63,80
2320,note_on,0,0,1,,,,,,,,0,,,68,80
2320,note_on,8,0,1,,,,,,,,0,,,60,80
2352,note_on,0,0,1,,,,,,,,0,,,60,0
2352,note_on,0,0,1,,,,,,,,0,,,63,0
2352,note_on,32,0,1,,,,,,,,0,,,68,0
2360,note_on,8,0,1,,,,,,,,0,,,58,80
2360,note_on,0,0,1,,,,,,,,0,,,67,80
2360,note_on,0,0,1,,,,,,,,0,,,61,80
2392,note_on,0,0,1,,,,,,,,0,,,61,0
2392,note_on,0,0,1,,,,,,,,0,,,58,0
2392,note_on,32,0,1,,,,,,,,0,,,67,0
2400,note_on,0,0,3,,,,,,,,0,,,41,68
2400,control_change,260,0,4,,,,,,,,0,64,127,,
2400,note_on,864,0,3,,,,,,,,0,,,53,68
2400,note_on,0,0,3,,,,,,,,0,,,48,68
2440,note_on,48,0,1,,,,,,,,0,,,56,56
2440,note_on,0,0,1,,,,,,,,0,,,65,56
2448,note_on,48,0,3,,,,,,,,0,,,41,0
2448,note_on,0,0,3,,,,,,,,0,,,53,0
2448,note_on,0,0,3,,,,,,,,0,,,48,0
2472,note_on,0,0,1,,,,,,,,0,,,56,0
2472,note_on,32,0,1,,,,,,,,0,,,65,0
2480,note_on,8,0,1,,,,,,,,0,,,67,56
2480,note_on,0,0,1,,,,,,,,0,,,58,56
2480,note_on,1056,0,2,,,,,,,,0,,,71,80
2512,note_on,0,0,1,,,,,,,,0,,,67,0
2512,note_on,32,0,1,,,,,,,,0,,,58,0
2544,note_on,64,0,2,,,,,,,,0,,,71,0
2560,note_on,16,0,2,,,,,,,,0,,,72,80
2560,note_on,0,0,1,,,,,,,,0,,,60,56
2560,note_on,48,0,1,,,,,,,,0,,,68,56
2592,note_on,0,0,1,,,,,,,,0,,,68,0
2592,note_on,32,0,1,,,,,,,,0,,,60,0
2600,note_on,0,0,1,,,,,,,,0,,,65,56
2600,note_on,8,0,1,,,,,,,,0,,,56,56
2624,note_on,64,0,2,,,,,,,,0,,,72,0
2632,note_on,32,0,1,,,,,,,,0,,,65,0
2632,note_on,0,0,1,,,,,,,,0,,,56,0
2640,note_on,0,0,3,,,,,,,,0,,,41,68
2640,note_on,0,0,3,,,,,,,,0,,,52,68
2640,note_on,192,0,3,,,,,,,,0,,,49,68
2642,control_change,242,0,4,,,,,,,,0,64,0,,
2659,control_change,17,0,4,,,,,,,,0,64,127,,
2680,note_on,48,0,1,,,,,,,,0,,,64,56
2680,note_on,0,0,1,,,,,,,,0,,,55,56
2688,note_on,48,0,3,,,,,,,,0,,,41,0
2688,note_on,0,0,3,,,,,,,,0,,,52,0
2688,note_on,0,0,3,,,,,,,,0,,,49,0
2712,note_on,32,0,1,,,,,,,,0,,,55,0
2712,note_on,0,0,1,,,,,,,,0,,,64,0
2720,note_on,96,0,2,,,,,,,,0,,,73,80
2720,note_on,8,0,1,,,,,,,,0,,,56,56
2720,note_on,0,0,1,,,,,,,,0,,,65,56
2752,note_on,0,0,1,,,,,,,,0,,,56,0
2752,note_on,32,0,1,,,,,,,,0,,,65,0
2784,note_on,64,0,2,,,,,,,,0,,,73,0
2800,note_on,0,0,1,,,,,,,,0,,,67,56
2800,note_on,16,0,2,,,,,,,,0,,,72,80
2800,note_on,48,0,1,,,,,,,,0,,,58,56
2832,note_on,32,0,1,,,,,,,,0,,,67,0
2832,note_on,0,0,1,,,,,,,,0,,,58,0
2840,note_on,0,0,1,,,,,,,,0,,,64,56
2840,note_on,8,0,1,,,,,,,,0,,,55,56
2864,note_on,64,0,2,,,,,,,,0,,,72,0
2872,note_on,32,0,1,,,,,,,,0,,,64,0
2872,note_on,0,0,1,,,,,,,,0,,,55,0
2880,note_on,0,0,4,,,,,,,,0,,,48,68
2880,note_on,0,0,4,,,,,,,,0,,,53,68
2880,note_on,221,0,4,,,,,,,,0,,,41,68
2884,control_change,4,0,4,,,,,,,,0,64,0,,
2899,control_change,15,0,4,,,,,,,,0,64,127,,
2920,note_on,48,0,1,,,,,,,,0,,,56,54
2920,note_on,0,0,1,,,,,,,,0,,,65,54
2952,note_on,32,0,1,,,,,,,,0,,,65,0
2952,note_on,0,0,1,,,,,,,,0,,,56,0
2960,note_on,96,0,2,,,,,,,,0,,,71,80
2960,note_on,8,0,1,,,,,,,,0,,,58,54
2960,note_on,0,0,1,,,,,,,,0,,,67,54
2976,note_on,0,0,4,,,,,,,,0,,,41,0
2976,note_on,77,0,4,,,,,,,,0,,,53,0
2976,note_on,0,0,4,,,,,,,,0,,,48,0
2992,note_on,32,0,1,,,,,,,,0,,,67,0
2992,note_on,0,0,1,,,,,,,,0,,,58,0
3024,note_on,64,0,2,,,,,,,,0,,,71,0
3040,note_on,0,0,1,,,,,,,,0,,,60,54
3040,note_on,48,0,1,,,,,,,,0,,,68,54
3040,note_on,16,0,2,,,,,,,,0,,,73,80
3072,note_on,0,0,1,,,,,,,,0,,,68,0
3072,note_on,32,0,1,,,,,,,,0,,,60,0
3080,note_on,8,0,1,,,,,,,,0,,,58,54
3080,note_on,0,0,1,,,,,,,,0,,,67,54
3104,note_on,64,0,2,,,,,,,,0,,,73,0
3112,note_on,0,0,1,,,,,,,,0,,,58,0
3112,note_on,32,0,1,,,,,,,,0,,,67,0
3120,note_on,16,0,2,,,,,,,,0,,,72,80
3122,control_change,146,0,4,,,,,,,,0,64,0,,
3160,note_on,0,0,1,,,,,,,,0,,,65,54
3160,note_on,48,0,1,,,,,,,,0,,,56,54
3184,note_on,64,0,2,,,,,,,,0,,,72,0
3192,note_on,32,0,1,,,,,,,,0,,,65,0
3192,note_on,0,0,1,,,,,,,,0,,,56,0
3200,note_on,0,0,1,,,,,,,,0,,,58,54
3200,note_on,8,0,1,,,,,,,,0,,,67,54
3200,note_on,16,0,2,,,,,,,,0,,,80,80
3232,note_on,32,0,1,,,,,,,,0,,,58,0
3232,note_on,0,0,1,,,,,,,,0,,,67,0
3264,note_on,64,0,2,,,,,,,,0,,,80,0
3280,note_on,16,0,2,,,,,,,,0,,,77,80
3280,note_on,0,0,1,,,,,,,,0,,,68,54
3280,note_on,48,0,1,,,,,,,,0,,,60,54
3312,note_on,32,0,1,,,,,,,,0,,,68,0
3312,note_on,0,0,1,,,,,,,,0,,,60,0
3320,note_on,0,0,1,,,,,,,,0,,,65,54
3320,note_on,8,0,1,,,,,,,,0,,,56,54
3344,note_on,64,0,2,,,,,,,,0,,,77,0
3352,note_on,0,0,1,,,,,,,,0,,,56,0
3352,note_on,32,0,1,,,,,,,,0,,,65,0
3355,set_tempo,3097,1,0,,,,,,575705,,,,,,
3360,control_change,238,0,4,,,,,,,,0,64,127,,
3360,note_on,0,0,4,,,,,,,,0,,,48,68
3360,note_on,0,0,4,,,,,,,,0,,,51,68
3360,note_on,0,0,4,,,,,,,,0,,,39,68
3400,note_on,0,0,1,,,,,,,,0,,,68,68
3400,note_on,48,0,1,,,,,,,,0,,,60,68
3424,note_on,0,0,4,,,,,,,,0,,,48,0
3424,note_on,0,0,4,,,,,,,,0,,,51,0
3424,note_on,64,0,4,,,,,,,,0,,,39,0
3432,note_on,0,0,1,,,,,,,,0,,,60,0
3432,note_on,32,0,1,,,,,,,,0,,,68,0
3440,note_on,0,0,1,,,,,,,,0,,,61,68
3440,note_on,8,0,1,,,,,,,,0,,,70,68
3440,note_on,96,0,2,,,,,,,,0,,,74,80
3472,note_on,32,0,1,,,,,,,,0,,,61,0
3472,note_on,0,0,1,,,,,,,,0,,,70,0
3504,note_on,64,0,2,,,,,,,,0,,,74,0
3520,note_on,16,0,2,,,,,,,,0,,,75,80
3520,note_on,0,0,1,,,,,,,,0,,,63,68
3520,note_on,48,0,1,,,,,,,,0,,,72,68
3552,note_on,0,0,1,,,,,,,,0,,,72,0
3552,note_on,32,0,1,,,,,,,,0,,,63,0
3560,note_on,8,0,1,,,,,,,,0,,,60,68
3560,note_on,0,0,1,,,,,,,,0,,,68,68
3584,note_on,64,0,2,,,,,,,,0,,,75,0
3592,note_on,0,0,1,,,,,,,,0,,,60,0
3592,note_on,32,0,1,,,,,,,,0,,,68,0
3600,set_tempo,245,1,0,,,,,,571646,,,,,,
3600,note_on,176,0,4,,,,,,,,0,,,39,68
3600,note_on,0,0,4,,,,,,,,0,,,51,68
3600,note_on,0,0,4,,,,,,,,0,,,49,68
3602,control_change,2,0,4,,,,,,,,0,64,0,,
3623,control_change,21,0,4,,,,,,,,0,64,127,,
3640,note_on,48,0,1,,,,,,,,0,,,67,68
3640,note_on,0,0,1,,,,,,,,0,,,58,68
3664,note_on,0,0,4,,,,,,,,0,,,39,0
3664,note_on,0,0,4,,,,,,,,0,,,51,0
3664,note_on,41,0,4,,,,,,,,0,,,49,0
3672,note_on,32,0,1,,,,,,,,0,,,58,0
3672,note_on,0,0,1,,,,,,,,0,,,67,0
3680,note_on,8,0,1,,,,,,,,0,,,60,68
3680,note_on,0,0,1,,,,,,,,0,,,68,68
3680,note_on,96,0,2,,,,,,,,0,,,76,80
3712,note_on,32,0,1,,,,,,,,0,,,68,0
3712,note_on,0,0,1,,,,,,,,0,,,60,0
3744,note_on,64,0,2,,,,,,,,0,,,76,0
3760,note_on,16,0,2,,,,,,,,0,,,75,80
3760,note_on,0,0,1,,,,,,,,0,,,70,68
3760,note_on,48,0,1,,,,,,,,0,,,61,68
3792,note_on,32,0,1,,,,,,,,0,,,70,0
3792,note_on,0,0,1,,,,,,,,0,,,61,0
3800,note_on,0,0,1,,,,,,,,0,,,67,68
3800,note_on,8,0,1,,,,,,,,0,,,58,68
3824,note_on,64,0,2,,,,,,,,0,,,75,0
3832,note_on,0,0,1,,,,,,,,0,,,58,0
3832,note_on,32,0,1,,,,,,,,0,,,67,0
3840,note_on,0,0,4,,,,,,,,0,,,56,68
3840,control_change,176,0,4,,,,,,,,0,64,0,,
3840,note_on,0,0,4,,,,,,,,0,,,48,68
3840,note_on,0,0,4,,,,,,,,0,,,44,68
3844,set_tempo,244,1,0,,,,,,567644,,,,,,
3870,control_change,30,0,4,,,,,,,,0,64,127,,
3880,note_on,0,0,1,,,,,,,,0,,,68,68
3880,note_on,48,0,1,,,,,,,,0,,,60,68
3904,note_on,0,0,4,,,,,,,,0,,,48,0
3904,note_on,0,0,4,,,,,,,,0,,,56,0
3904,note_on,34,0,4,,,,,,,,0,,,44,0
3912,note_on,32,0,1,,,,,,,,0,,,68,0
3912,note_on,0,0,1,,,,,,,,0,,,60,0
3920,note_on,8,0,1,,,,,,,,0,,,61,68
3920,note_on,96,0,2,,,,,,,,0,,,74,80
3920,note_on,0,0,1,,,,,,,,0,,,70,68
3952,note_on,0,0,1,,,,,,,,0,,,61,0
3952,note_on,32,0,1,,,,,,,,0,,,70,0
3984,note_on,64,0,2,,,,,,,,0,,,74,0
4000,note_on,48,0,1,,,,,,,,0,,,72,68
4000,note_on,0,0,1,,,,,,,,0,,,63,68
4000,note_on,16,0,2,,,,,,,,0,,,77,80
4032,note_on,0,0,1,,,,,,,,0,,,72,0
4032,note_on,32,0,1,,,,,,,,0,,,63,0
4040,note_on,8,0,1,,,,,,,,0,,,61,68
4040,note_on,0,0,1,,,,,,,,0,,,70,68
4064,note_on,64,0,2,,,,,,,,0,,,77,0
4072,note_on,32,0,1,,,,,,,,0,,,70,0
4072,note_on,0,0,1,,,,,,,,0,,,61,0
4080,note_on,16,0,2,,,,,,,,0,,,75,80
4088,set_tempo,244,1,0,,,,,,563698,,,,,,
4092,control_change,188,0,4,,,,,,,,0,64,0,,
4120,note_on,48,0,1,,,,,,,,0,,,60,68
4120,note_on,0,0,1,,,,,,,,0,,,68,68
4144,note_on,64,0,2,,,,,,,,0,,,75,0
4152,note_on,32,0,1,,,,,,,,0,,,68,0
4152,note_on,0,0,1,,,,,,,,0,,,60,0
4160,note_on,16,0,2,,,,,,,,0,,,84,80
4160,note_on,8,0,1,,,,,,,,0,,,70,68
4160,note_on,0,0,1,,,,,,,,0,,,61,68
4192,note_on,32,0,1,,,,,,,,0,,,61,0
4192,note_on,0,0,1,,,,,,,,0,,,70,0
4224,note_on,64,0,2,,,,,,,,0,,,84,0
4240,note_on,48,0,1,,,,,,,,0,,,63,68
4240,note_on,0,0,1,,,,,,,,0,,,72,68
4240,note_on,16,0,2,,,,,,,,0,,,80,80
4272,note_on,0,0,1,,,,,,,,0,,,63,0
4272,note_on,32,0,1,,,,,,,,0,,,72,0
4280,note_on,8,0,1,,,,,,,,0,,,60,68
4280,note_on,0,0,1,,,,,,,,0,,,68,68
4304,note_on,64,0,2,,,,,,,,0,,,80,0
4312,note_on,0,0,1,,,,,,,,0,,,60,0
4312,note_on,32,0,1,,,,,,,,0,,,68,0
4320,note_on,0,0,4,,,,,,,,0,,,56,68
4320,control_change,228,0,4,,,,,,,,0,64,127,,
4320,note_on,0,0,4,,,,,,,,0,,,44,68
4320,note_on,0,0,4,,,,,,,,0,,,52,68
4328,set_tempo,240,1,0,,,,,,559806,,,,,,
4360,note_on,48,0,1,,,,,,,,0,,,63,68
4360,note_on,0,0,1,,,,,,,,0,,,73,68
4384,note_on,64,0,4,,,,,,,,0,,,44,0
4384,note_on,0,0,4,,,,,,,,0,,,56,0
4384,note_on,0,0,4,,,,,,,,0,,,52,0
4392,note_on,32,0,1,,,,,,,,0,,,73,0
4392,note_on,0,0,1,,,,,,,,0,,,63,0
4400,note_on,8,0,1,,,,,,,,0,,,75,68
4400,note_on,0,0,1,,,,,,,,0,,,66,68
4400,note_on,96,0,2,,,,,,,,0,,,79,80
4432,note_on,32,0,1,,,,,,,,0,,,66,0
4432,note_on,0,0,1,,,,,,,,0,,,75,0
4464,note_on,64,0,2,,,,,,,,0,,,79,0
4480,note_on,48,0,1,,,,,,,,0,,,76,68
4480,note_on,0,0,1,,,,,,,,0,,,68,68
4480,note_on,16,0,2,,,,,,,,0,,,80,80
4512,note_on,0,0,1,,,,,,,,0,,,76,0
4512,note_on,32,0,1,,,,,,,,0,,,68,0
4520,note_on,8,0,1,,,,,,,,0,,,63,68
4520,note_on,0,0,1,,,,,,,,0,,,73,68
4544,note_on,64,0,2,,,,,,,,0,,,80,0
4552,note_on,32,0,1,,,,,,,,0,,,73,0
4552,note_on,0,0,1,,,,,,,,0,,,63,0
4560,note_on,0,0,4,,,,,,,,0,,,44,68
4560,note_on,0,0,4,,,,,,,,0,,,56,68
4560,note_on,176,0,4,,,,,,,,0,,,54,68
4569,control_change,9,0,4,,,,,,,,0,64,0,,
4599,control_change,30,0,4,,,,,,,,0,64,127,,
4600,note_on,0,0,1,,,,,,,,0,,,63,68
4600,note_on,48,0,1,,,,,,,,0,,,72,68
4624,note_on,0,0,4,,,,,,,,0,,,54,0
4624,note_on,0,0,4,,,,,,,,0,,,44,0
4624,note_on,25,0,4,,,,,,,,0,,,56,0
4632,note_on,32,0,1,,,,,,,,0,,,63,0
4632,note_on,0,0,1,,,,,,,,0,,,72,0
4640,note_on,8,0,1,,,,,,,,0,,,63,68
4640,note_on,0,0,1,,,,,,,,0,,,73,68
4640,note_on,96,0,2,,,,,,,,0,,,81,80
4672,note_on,0,0,1,,,,,,,,0,,,63,0
4672,note_on,32,0,1,,,,,,,,0,,,73,0
4704,note_on,64,0,2,,,,,,,,0,,,81,0
4720,note_on,0,0,1,,,,,,,,0,,,75,68
4720,note_on,48,0,1,,,,,,,,0,,,66,68
4720,note_on,16,0,2,,,,,,,,0,,,80,80
4752,note_on,32,0,1,,,,,,,,0,,,75,0
4752,note_on,0,0,1,,,,,,,,0,,,66,0
4760,note_on,8,0,1,,,,,,,,0,,,63,68
4760,note_on,0,0,1,,,,,,,,0,,,72,68
4784,note_on,64,0,2,,,,,,,,0,,,80,0
4792,note_on,32,0,1,,,,,,,,0,,,72,0
4792,note_on,0,0,1,,,,,,,,0,,,63,0
4800,note_on,0,0,4,,,,,,,,0,,,56,68
4800,note_on,0,0,4,,,,,,,,0,,,52,68
4800,note_on,0,0,4,,,,,,,,0,,,44,68
4800,control_change,176,0,4,,,,,,,,0,64,0,,
4826,control_change,26,0,4,,,,,,,,0,64,127,,
4840,note_on,48,0,1,,,,,,,,0,,,73,68
4840,note_on,0,0,1,,,,,,,,0,,,64,68
4864,note_on,0,0,4,,,,,,,,0,,,52,0
4864,note_on,0,0,4,,,,,,,,0,,,44,0
4864,note_on,38,0,4,,,,,,,,0,,,56,0
4872,note_on,32,0,1,,,,,,,,0,,,64,0
4872,note_on,0,0,1,,,,,,,,0,,,73,0
4880,note_on,8,0,1,,,,,,,,0,,,75,68
4880,note_on,0,0,1,,,,,,,,0,,,66,68
4880,note_on,96,0,2,,,,,,,,0,,,79,80
4912,note_on,32,0,1,,,,,,,,0,,,66,0
4912,note_on,0,0,1,,,,,,,,0,,,75,0
4944,note_on,64,0,2,,,,,,,,0,,,79,0
4960,note_on,0,0,1,,,,,,,,0,,,76,68
4960,note_on,16,0,2,,,,,,,,0,,,81,80
4960,note_on,48,0,1,,,,,,,,0,,,68,68
4992,note_on,32,0,1,,,,,,,,0,,,76,0
4992,note_on,0,0,1,,,,,,,,0,,,68,0
5000,note_on,0,0,1,,,,,,,,0,,,75,68
5000,note_on,8,0,1,,,,,,,,0,,,66,68
5008,note_on,48,0,2,,,,,,,,0,,,81,0
5020,note_on,12,0,2,,,,,,,,0,,,80,80
5032,note_on,32,0,1,,,,,,,,0,,,75,0
5032,note_on,0,0,1,,,,,,,,0,,,66,0
5036,note_on,16,0,2,,,,,,,,0,,,80,0
5040,note_on,4,0,2,,,,,,,,0,,,92,80
5040,control_change,176,0,4,,,,,,,,0,64,0,,
5080,note_on,0,0,1,,,,,,,,0,,,73,68
5080,note_on,48,0,1,,,,,,,,0,,,64,68
5104,note_on,64,0,2,,,,,,,,0,,,92,0
5112,note_on,0,0,1,,,,,,,,0,,,64,0
5112,note_on,32,0,1,,,,,,,,0,,,73,0
5120,note_on,8,0,1,,,,,,,,0,,,66,68
5120,note_on,0,0,1,,,,,,,,0,,,75,68
5152,note_on,32,0,1,,,,,,,,0,,,75,0
5152,note_on,0,0,1,,,,,,,,0,,,66,0
5160,note_on,56,0,2,,,,,,,,0,,,88,80
5192,note_on,32,0,2,,,,,,,,0,,,88,0
5200,note_on,8,0,2,,,,,,,,0,,,85,80
5200,note_on,0,0,1,,,,,,,,0,,,68,68
5200,note_on,48,0,1,,,,,,,,0,,,76,68
5232,note_on,32,0,1,,,,,,,,0,,,68,0
5232,note_on,0,0,1,,,,,,,,0,,,76,0
5240,note_on,8,0,1,,,,,,,,0,,,64,68
5240,note_on,0,0,1,,,,,,,,0,,,73,68
5264,note_on,64,0,2,,,,,,,,0,,,85,0
5272,note_on,0,0,1,,,,,,,,0,,,64,0
5272,note_on,32,0,1,,,,,,,,0,,,73,0
5280,control_change,240,0,4,,,,,,,,0,64,127,,
5280,note_on,0,0,4,,,,,,,,0,,,56,68
5280,note_on,0,0,4,,,,,,,,0,,,52,68
5280,note_on,0,0,4,,,,,,,,0,,,44,68
5320,note_on,0,0,1,,,,,,,,0,,,73,68
5320,note_on,48,0,1,,,,,,,,0,,,64,68
5344,note_on,0,0,4,,,,,,,,0,,,52,0
5344,note_on,0,0,4,,,,,,,,0,,,44,0
5344,note_on,64,0,4,,,,,,,,0,,,56,0
5352,note_on,0,0,1,,,,,,,,0,,,64,0
5352,note_on,32,0,1,,,,,,,,0,,,73,0
5360,note_on,8,0,1,,,,,,,,0,,,75,68
5360,note_on,0,0,1,,,,,,,,0,,,66,68
5360,note_on,96,0,2,,,,,,,,0,,,79,80
5392,note_on,0,0,1,,,,,,,,0,,,75,0
5392,note_on,32,0,1,,,,,,,,0,,,66,0
5424,note_on,64,0,2,,,,,,,,0,,,79,0
5440,note_on,48,0,1,,,,,,,,0,,,68,68
5440,note_on,16,0,2,,,,,,,,0,,,80,80
5440,note_on,0,0,1,,,,,,,,0,,,76,68
5472,note_on,32,0,1,,,,,,,,0,,,76,0
5472,note_on,0,0,1,,,,,,,,0,,,68,0
5480,note_on,0,0,1,,,,,,,,0,,,73,68
5480,note_on,8,0,1,,,,,,,,0,,,64,68
5504,note_on,64,0,2,,,,,,,,0,,,80,0
5512,note_on,32,0,1,,,,,,,,0,,,73,0
5512,note_on,0,0,1,,,,,,,,0,,,64,0
5520,note_on,176,0,4,,,,,,,,0,,,54,68
5520,note_on,0,0,4,,,,,,,,0,,,44,68
5520,note_on,0,0,4,,,,,,,,0,,,56,68
5522,control_change,2,0,4,,,,,,,,0,64,0,,
5534,control_change,12,0,4,,,,,,,,0,64,127,,
5560,note_on,48,0,1,,,,,,,,0,,,72,68
5560,note_on,0,0,1,,,,,,,,0,,,63,68
5584,note_on,0,0,4,,,,,,,,0,,,44,0
5584,note_on,0,0,4,,,,,,,,0,,,54,0
5584,note_on,50,0,4,,,,,,,,0,,,56,0
5592,note_on,32,0,1,,,,,,,,0,,,63,0
5592,note_on,0,0,1,,,,,,,,0,,,72,0
5600,note_on,96,0,2,,,,,,,,0,,,81,80
5600,note_on,8,0,1,,,,,,,,0,,,64,68
5600,note_on,0,0,1,,,,,,,,0,,,73,68
5632,note_on,32,0,1,,,,,,,,0,,,73,0
5632,note_on,0,0,1,,,,,,,,0,,,64,0
5664,note_on,64,0,2,,,,,,,,0,,,81,0
5680,note_on,16,0,2,,,,,,,,0,,,80,80
5680,note_on,48,0,1,,,,,,,,0,,,75,68
5680,note_on,0,0,1,,,,,,,,0,,,66,68
5712,note_on,32,0,1,,,,,,,,0,,,66,0
5712,note_on,0,0,1,,,,,,,,0,,,75,0
5720,note_on,8,0,1,,,,,,,,0,,,63,68
5720,note_on,0,0,1,,,,,,,,0,,,72,68
5744,note_on,64,0,2,,,,,,,,0,,,80,0
5752,note_on,0,0,1,,,,,,,,0,,,63,0
5752,note_on,32,0,1,,,,,,,,0,,,72,0
5760,note_on,0,0,1,,,,,,,,0,,,80,80
5760,note_on,0,0,1,,,,,,,,0,,,86,80
5760,control_change,176,0,4,,,,,,,,0,64,0,,
5760,note_on,0,0,4,,,,,,,,0,,,56,80
5760,note_on,0,0,4,,,,,,,,0,,,53,80
5760,note_on,8,0,1,,,,,,,,0,,,92,80
5760,note_on,0,0,4,,,,,,,,0,,,47,80
5760,note_on,0,0,4,,,,,,,,0,,,59,80
5809,control_change,49,0,4,,,,,,,,0,64,127,,
5856,note_on,0,0,1,,,,,,,,0,,,86,0
5856,note_on,0,0,4,,,,,,,,0,,,56,0
5856,note_on,0,0,1,,,,,,,,0,,,92,0
5856,note_on,96,0,1,,,,,,,,0,,,80,0
5856,note_on,0,0,4,,,,,,,,0,,,59,0
5856,note_on,0,0,4,,,,,,,,0,,,53,0
5856,note_on,47,0,4,,,,,,,,0,,,47,0
5880,note_on,0,0,1,,,,,,,,0,,,80,80
5880,note_on,0,0,2,,,,,,,,0,,,74,80
5880,note_on,24,0,1,,,,,,,,0,,,83,80
5880,note_on,136,0,2,,,,,,,,0,,,89,80
5912,note_on,32,0,2,,,,,,,,0,,,74,0
5912,note_on,0,0,2,,,,,,,,0,,,89,0
5920,note_on,8,0,2,,,,,,,,0,,,91,80
5920,note_on,0,0,2,,,,,,,,0,,,75,80
5952,note_on,32,0,2,,,,,,,,0,,,75,0
5952,note_on,0,0,2,,,,,,,,0,,,91,0
5960,note_on,8,0,2,,,,,,,,0,,,74,80
5960,note_on,0,0,2,,,,,,,,0,,,89,80
5976,note_on,0,0,1,,,,,,,,0,,,83,0
5976,note_on,96,0,1,,,,,,,,0,,,80,0
5992,note_on,32,0,2,,,,,,,,0,,,89,0
5992,note_on,0,0,2,,,,,,,,0,,,74,0
6000,note_on,8,0,2,,,,,,,,0,,,71,80
6000,note_on,0,0,2,,,,,,,,0,,,86,80
6000,note_on,0,0,1,,,,,,,,0,,,77,80
6000,note_on,24,0,1,,,,,,,,0,,,80,80
6032,note_on,32,0,2,,,,,,,,0,,,86,0
6032,note_on,0,0,2,,,,,,,,0,,,71,0
6040,note_on,8,0,2,,,,,,,,0,,,87,80
6040,note_on,0,0,2,,,,,,,,0,,,72,80
6072,note_on,0,0,2,,,,,,,,0,,,87,0
6072,note_on,32,0,2,,,,,,,,0,,,72,0
6080,note_on,8,0,2,,,,,,,,0,,,71,80
6080,note_on,0,0,2,,,,,,,,0,,,86,80
6096,note_on,96,0,1,,,,,,,,0,,,77,0
6096,note_on,0,0,1,,,,,,,,0,,,80,0
6112,note_on,32,0,2,,,,,,,,0,,,86,0
6112,note_on,0,0,2,,,,,,,,0,,,71,0
6120,note_on,8,0,2,,,,,,,,0,,,68,80
6120,note_on,0,0,1,,,,,,,,0,,,77,80
6120,note_on,24,0,1,,,,,,,,0,,,74,80
6120,note_on,0,0,2,,,,,,,,0,,,83,80
6152,note_on,32,0,2,,,,,,,,0,,,83,0
6152,note_on,0,0,2,,,,,,,,0,,,68,0
6160,note_on,8,0,2,,,,,,,,0,,,71,80
6160,note_on,0,0,2,,,,,,,,0,,,84,80
6192,note_on,0,0,2,,,,,,,,0,,,71,0
6192,note_on,32,0,2,,,,,,,,0,,,84,0
6200,note_on,0,0,2,,,,,,,,0,,,83,80
6200,note_on,8,0,2,,,,,,,,0,,,68,80
6216,note_on,0,0,1,,,,,,,,0,,,74,0
6216,note_on,96,0,1,,,,,,,,0,,,77,0
6232,note_on,32,0,2,,,,,,,,0,,,83,0
6232,note_on,0,0,2,,,,,,,,0,,,68,0
6240,note_on,8,0,2,,,,,,,,0,,,65,80
6240,note_on,24,0,1,,,,,,,,0,,,80,80
6240,note_on,0,0,2,,,,,,,,0,,,71,80
6240,control_change,384,0,4,,,,,,,,0,64,0,,
6240,note_on,0,0,1,,,,,,,,0,,,74,80
6268,control_change,28,0,4,,,,,,,,0,64,127,,
6336,note_on,96,0,2,,,,,,,,0,,,71,0
6336,note_on,0,0,2,,,,,,,,0,,,65,0
6336,note_on,0,0,1,,,,,,,,0,,,80,0
6336,note_on,96,0,1,,,,,,,,0,,,74,0
6360,note_on,0,0,4,,,,,,,,0,,,47,60
6360,note_on,0,0,4,,,,,,,,0,,,44,60
6360,note_on,3672,0,3,,,,,,,,0,,,53,60
6360,note_on,92,0,4,,,,,,,,0,,,41,60
6360,note_on,0,0,4,,,,,,,,0,,,35,60
6392,note_on,32,0,3,,,,,,,,0,,,53,0
6400,note_on,8,0,3,,,,,,,,0,,,55,63
6432,note_on,32,0,3,,,,,,,,0,,,55,0
6440,note_on,8,0,3,,,,,,,,0,,,53,66
6456,note_on,0,0,4,,,,,,,,0,,,47,0
6456,note_on,0,0,4,,,,,,,,0,,,41,0
6456,note_on,96,0,4,,,,,,,,0,,,35,0
6456,note_on,0,0,4,,,,,,,,0,,,44,0
6472,note_on,32,0,3,,,,,,,,0,,,53,0
6480,note_on,0,0,4,,,,,,,,0,,,47,68
6480,note_on,0,0,4,,,,,,,,0,,,41,68
6480,note_on,144,0,2,,,,,,,,0,,,65,68
6480,note_on,0,0,4,,,,,,,,0,,,35,68
6480,note_on,24,0,4,,,,,,,,0,,,44,68
6512,note_on,32,0,2,,,,,,,,0,,,65,0
6520,note_on,8,0,2,,,,,,,,0,,,67,71
6552,note_on,32,0,2,,,,,,,,0,,,67,0
6560,note_on,8,0,2,,,,,,,,0,,,65,73
6576,note_on,0,0,4,,,,,,,,0,,,35,0
6576,note_on,0,0,4,,,,,,,,0,,,44,0
6576,note_on,96,0,4,,,,,,,,0,,,41,0
6576,note_on,0,0,4,,,,,,,,0,,,47,0
6592,note_on,32,0,2,,,,,,,,0,,,65,0
6600,note_on,8,0,2,,,,,,,,0,,,77,76
6600,note_on,0,0,4,,,,,,,,0,,,44,76
6600,note_on,0,0,4,,,,,,,,0,,,47,76
6600,note_on,24,0,4,,,,,,,,0,,,41,76
6600,note_on,0,0,4,,,,,,,,0,,,35,76
6632,note_on,32,0,2,,,,,,,,0,,,77,0
6640,note_on,8,0,2,,,,,,,,0,,,79,78
6672,note_on,32,0,2,,,,,,,,0,,,79,0
6680,note_on,8,0,2,,,,,,,,0,,,77,81
6696,note_on,0,0,4,,,,,,,,0,,,41,0
6696,note_on,0,0,4,,,,,,,,0,,,47,0
6696,note_on,0,0,4,,,,,,,,0,,,44,0
6696,note_on,96,0,4,,,,,,,,0,,,35,0
6712,note_on,32,0,2,,,,,,,,0,,,77,0
6720,note_on,0,0,4,,,,,,,,0,,,44,80
6720,note_on,0,0,4,,,,,,,,0,,,36,80
6720,note_on,384,0,1,,,,,,,,0,,,92,80
6720,note_on,0,0,4,,,,,,,,0,,,48,80
6720,control_change,24,0,4,,,,,,,,0,64,0,,
6720,note_on,0,0,4,,,,,,,,0,,,41,80
6759,control_change,39,0,4,,,,,,,,0,64,127,,
6816,note_on,0,0,4,,,,,,,,0,,,48,0
6816,note_on,96,0,1,,,,,,,,0,,,92,0
6816,note_on,0,0,4,,,,,,,,0,,,36,0
6816,note_on,57,0,4,,,,,,,,0,,,41,0
6816,note_on,0,0,4,,,,,,,,0,,,44,0
6840,note_on,0,0,1,,,,,,,,0,,,80,80
6840,note_on,0,0,2,,,,,,,,0,,,72,80
6840,note_on,24,0,1,,,,,,,,0,,,77,80
6840,note_on,128,0,2,,,,,,,,0,,,89,80
6872,note_on,32,0,2,,,,,,,,0,,,72,0
6872,note_on,0,0,2,,,,,,,,0,,,89,0
6880,note_on,0,0,2,,,,,,,,0,,,71,80
6880,note_on,8,0,2,,,,,,,,0,,,91,80
6912,note_on,32,0,2,,,,,,,,0,,,71,0
6912,note_on,0,0,2,,,,,,,,0,,,91,0
6920,note_on,0,0,2,,,,,,,,0,,,89,80
6920,note_on,8,0,2,,,,,,,,0,,,72,80
6936,note_on,96,0,1,,,,,,,,0,,,80,0
6936,note_on,0,0,1,,,,,,,,0,,,77,0
6952,note_on,32,0,2,,,,,,,,0,,,89,0
6952,note_on,0,0,2,,,,,,,,0,,,72,0
6960,note_on,0,0,1,,,,,,,,0,,,72,80
6960,note_on,8,0,2,,,,,,,,0,,,68,80
6960,note_on,0,0,2,,,,,,,,0,,,84,80
6960,note_on,24,0,1,,,,,,,,0,,,77,80
6992,note_on,0,0,2,,,,,,,,0,,,68,0
6992,note_on,32,0,2,,,,,,,,0,,,84,0
7000,note_on,0,0,2,,,,,,,,0,,,67,80
7000,note_on,8,0,2,,,,,,,,0,,,85,80
7032,note_on,32,0,2,,,,,,,,0,,,67,0
7032,note_on,0,0,2,,,,,,,,0,,,85,0
7040,note_on,0,0,2,,,,,,,,0,,,84,80
7040,note_on,8,0,2,,,,,,,,0,,,68,80
7056,note_on,0,0,1,,,,,,,,0,,,77,0
7056,note_on,96,0,1,,,,,,,,0,,,72,0
7072,note_on,32,0,2,,,,,,,,0,,,84,0
7072,note_on,0,0,2,,,,,,,,0,,,68,0
7080,note_on,24,0,1,,,,,,,,0,,,68,80
7080,note_on,0,0,2,,,,,,,,0,,,80,80
7080,note_on,0,0,1,,,,,,,,0,,,72,80
7080,note_on,8,0,2,,,,,,,,0,,,65,80
7112,note_on,32,0,2,,,,,,,,0,,,80,0
7112,note_on,0,0,2,,,,,,,,0,,,65,0
7120,note_on,8,0,2,,,,,,,,0,,,64,80
7120,note_on,0,0,2,,,,,,,,0,,,82,80
7152,note_on,0,0,2,,,,,,,,0,,,64,0
7152,note_on,32,0,2,,,,,,,,0,,,82,0
7160,note_on,0,0,2,,,,,,,,0,,,80,80
7160,note_on,8,0,2,,,,,,,,0,,,65,80
7176,note_on,0,0,1,,,,,,,,0,,,68,0
7176,note_on,96,0,1,,,,,,,,0,,,72,0
7192,note_on,32,0,2,,,,,,,,0,,,80,0
7192,note_on,0,0,2,,,,,,,,0,,,65,0
7200,note_on,8,0,2,,,,,,,,0,,,60,80
7200,note_on,24,0,1,,,,,,,,0,,,77,80
7200,note_on,0,0,1,,,,,,,,0,,,68,80
7207,control_change,391,0,4,,,,,,,,0,64,0,,
7296,note_on,96,0,2,,,,,,,,0,,,60,0
7296,note_on,0,0,1,,,,,,,,0,,,77,0
7296,note_on,96,0,1,,,,,,,,0,,,68,0
7320,note_on,0,0,4,,,,,,,,0,,,36,61
7320,note_on,0,0,4,,,,,,,,0,,,41,61
7320,note_on,113,0,4,,,,,,,,0,,,44,61
7320,note_on,0,0,4,,,,,,,,0,,,48,61
7320,note_on,848,0,3,,,,,,,,0,,,53,61
7352,note_on,32,0,3,,,,,,,,0,,,53,0
7360,note_on,8,0,3,,,,,,,,0,,,55,63
7392,note_on,32,0,3,,,,,,,,0,,,55,0
7400,note_on,8,0,3,,,,,,,,0,,,53,66
7416,note_on,0,0,4,,,,,,,,0,,,44,0
7416,note_on,0,0,4,,,,,,,,0,,,36,0
7416,note_on,96,0,4,,,,,,,,0,,,48,0
7416,note_on,0,0,4,,,,,,,,0,,,41,0
7432,note_on,32,0,3,,,,,,,,0,,,53,0
7440,note_on,0,0,4,,,,,,,,0,,,36,68
7440,note_on,0,0,4,,,,,,,,0,,,41,68
7440,note_on,24,0,4,,,,,,,,0,,,48,68
7440,note_on,144,0,1,,,,,,,,0,,,65,68
7440,note_on,0,0,4,,,,,,,,0,,,44,68
7472,note_on,32,0,1,,,,,,,,0,,,65,0
7480,note_on,8,0,1,,,,,,,,0,,,67,70
7512,note_on,32,0,1,,,,,,,,0,,,67,0
7520,note_on,8,0,1,,,,,,,,0,,,65,72
7536,note_on,96,0,4,,,,,,,,0,,,41,0
7536,note_on,0,0,4,,,,,,,,0,,,36,0
7536,note_on,0,0,4,,,,,,,,0,,,44,0
7536,note_on,0,0,4,,,,,,,,0,,,48,0
7552,note_on,32,0,1,,,,,,,,0,,,65,0
7560,note_on,24,0,4,,,,,,,,0,,,41,74
7560,note_on,8,0,1,,,,,,,,0,,,77,74
7560,note_on,0,0,4,,,,,,,,0,,,48,74
7560,note_on,0,0,4,,,,,,,,0,,,44,74
7560,note_on,0,0,4,,,,,,,,0,,,36,74
7592,note_on,32,0,1,,,,,,,,0,,,77,0
7600,note_on,8,0,1,,,,,,,,0,,,79,77
7632,note_on,32,0,1,,,,,,,,0,,,79,0
7640,note_on,8,0,1,,,,,,,,0,,,77,79
7643,set_tempo,3315,1,0,,,,,,559806,,,,,,
7648,set_tempo,5,1,0,,,,,,563698,,,,,,
7656,note_on,0,0,4,,,,,,,,0,,,41,0
7656,note_on,96,0,4,,,,,,,,0,,,36,0
7656,note_on,0,0,4,,,,,,,,0,,,48,0
7656,note_on,0,0,4,,,,,,,,0,,,44,0
7672,note_on,32,0,1,,,,,,,,0,,,77,0
7680,note_on,24,0,4,,,,,,,,0,,,47,81
7680,note_on,0,0,4,,,,,,,,0,,,49,81
7680,note_on,8,0,1,,,,,,,,0,,,92,81
7680,note_on,0,0,4,,,,,,,,0,,,37,81
7680,note_on,0,0,4,,,,,,,,0,,,41,81
7717,set_tempo,69,1,0,,,,,,567644,,,,,,
7776,note_on,96,0,4,,,,,,,,0,,,49,0
7776,note_on,96,0,1,,,,,,,,0,,,92,0
7776,note_on,0,0,4,,,,,,,,0,,,37,0
7776,note_on,0,0,4,,,,,,,,0,,,41,0
7776,note_on,0,0,4,,,,,,,,0,,,47,0
7787,set_tempo,70,1,0,,,,,,718563,,,,,,
7796,control_change,20,0,4,,,,,,,,0,64,127,,
7796,set_tempo,9,1,0,,,,,,731529,,,,,,
7800,note_on,504,0,2,,,,,,,,0,,,68,85
7800,note_on,0,0,2,,,,,,,,0,,,71,85
7800,note_on,24,0,1,,,,,,,,0,,,77,85
7800,note_on,4,0,4,,,,,,,,0,,,61,80
7826,set_tempo,30,1,0,,,,,,724988,,,,,,
7832,note_on,32,0,1,,,,,,,,0,,,77,0
7840,note_on,8,0,1,,,,,,,,0,,,90,84
7848,note_on,0,0,2,,,,,,,,0,,,68,0
7848,note_on,48,0,2,,,,,,,,0,,,71,0
7857,set_tempo,31,1,0,,,,,,718563,,,,,,
7860,note_on,12,0,2,,,,,,,,0,,,70,84
7860,note_on,0,0,2,,,,,,,,0,,,73,84
7872,note_on,32,0,1,,,,,,,,0,,,90,0
7880,note_on,8,0,1,,,,,,,,0,,,89,84
7888,set_tempo,31,1,0,,,,,,712251,,,,,,
7908,note_on,48,0,2,,,,,,,,0,,,73,0
7908,note_on,0,0,2,,,,,,,,0,,,70,0
7912,note_on,32,0,1,,,,,,,,0,,,89,0
7918,set_tempo,30,1,0,,,,,,706048,,,,,,
7920,note_on,8,0,1,,,,,,,,0,,,87,83
7920,note_on,0,0,2,,,,,,,,0,,,66,83
7920,note_on,12,0,2,,,,,,,,0,,,70,83
7949,set_tempo,31,1,0,,,,,,699953,,,,,,
7952,note_on,32,0,1,,,,,,,,0,,,87,0
7960,note_on,8,0,1,,,,,,,,0,,,77,82
7968,note_on,0,0,2,,,,,,,,0,,,70,0
7968,note_on,48,0,2,,,,,,,,0,,,66,0
7979,set_tempo,30,1,0,,,,,,693963,,,,,,
7980,note_on,0,0,2,,,,,,,,0,,,71,82
7980,note_on,12,0,2,,,,,,,,0,,,68,82
7992,note_on,32,0,1,,,,,,,,0,,,77,0
7992,note_on,192,0,4,,,,,,,,0,,,61,0
8000,note_on,8,0,1,,,,,,,,0,,,75,82
8010,set_tempo,31,1,0,,,,,,688073,,,,,,
8028,note_on,48,0,2,,,,,,,,0,,,71,0
8028,note_on,0,0,2,,,,,,,,0,,,68,0
8032,note_on,32,0,1,,,,,,,,0,,,75,0
8040,note_on,0,0,2,,,,,,,,0,,,68,81
8040,note_on,12,0,2,,,,,,,,0,,,65,81
8040,set_tempo,30,1,0,,,,,,682283,,,,,,
8040,note_on,8,0,1,,,,,,,,0,,,73,81
8071,set_tempo,31,1,0,,,,,,676590,,,,,,
8072,note_on,32,0,1,,,,,,,,0,,,73,0
8080,note_on,8,0,1,,,,,,,,0,,,87,80
8088,note_on,0,0,2,,,,,,,,0,,,65,0
8088,note_on,48,0,2,,,,,,,,0,,,68,0
8100,note_on,0,0,2,,,,,,,,0,,,66,80
8100,note_on,12,0,2,,,,,,,,0,,,70,80
8101,set_tempo,30,1,0,,,,,,670991,,,,,,
8112,note_on,32,0,1,,,,,,,,0,,,87,0
8120,note_on,8,0,1,,,,,,,,0,,,85,79
8132,set_tempo,31,1,0,,,,,,665484,,,,,,
8148,note_on,48,0,2,,,,,,,,0,,,66,0
8148,note_on,0,0,2,,,,,,,,0,,,70,0
8152,note_on,32,0,1,,,,,,,,0,,,85,0
8160,note_on,8,0,1,,,,,,,,0,,,83,79
8160,note_on,0,0,2,,,,,,,,0,,,66,79
8160,note_on,12,0,2,,,,,,,,0,,,63,79
8162,set_tempo,30,1,0,,,,,,660066,,,,,,
8192,note_on,32,0,1,,,,,,,,0,,,83,0
8193,set_tempo,31,1,0,,,,,,654736,,,,,,
8200,note_on,8,0,1,,,,,,,,0,,,73,78
8208,note_on,0,0,2,,,,,,,,0,,,63,0
8208,note_on,48,0,2,,,,,,,,0,,,66,0
8220,note_on,12,0,2,,,,,,,,0,,,68,78
8220,note_on,0,0,2,,,,,,,,0,,,65,78
8224,set_tempo,31,1,0,,,,,,649491,,,,,,
8232,note_on,32,0,1,,,,,,,,0,,,73,0
8240,note_on,8,0,1,,,,,,,,0,,,71,77
8254,set_tempo,30,1,0,,,,,,644330,,,,,,
8268,note_on,0,0,2,,,,,,,,0,,,68,0
8268,note_on,48,0,2,,,,,,,,0,,,65,0
8272,note_on,32,0,1,,,,,,,,0,,,71,0
8276,control_change,284,0,4,,,,,,,,0,64,0,,
8280,note_on,0,0,2,,,,,,,,0,,,65,76
8280,note_on,12,0,2,,,,,,,,0,,,61,76
8280,note_on,8,0,1,,,,,,,,0,,,70,76
8285,set_tempo,31,1,0,,,,,,639250,,,,,,
8312,note_on,32,0,1,,,,,,,,0,,,70,0
8315,set_tempo,30,1,0,,,,,,634249,,,,,,
8320,note_on,8,0,1,,,,,,,,0,,,83,76
8328,note_on,0,0,2,,,,,,,,0,,,61,0
8328,note_on,48,0,2,,,,,,,,0,,,65,0
8340,note_on,12,0,2,,,,,,,,0,,,66,75
8340,note_on,0,0,2,,,,,,,,0,,,63,75
8346,set_tempo,31,1,0,,,,,,629327,,,,,,
8352,note_on,32,0,1,,,,,,,,0,,,83,0
8360,note_on,8,0,1,,,,,,,,0,,,82,75
8376,set_tempo,30,1,0,,,,,,624480,,,,,,
8388,note_on,48,0,2,,,,,,,,0,,,63,0
8388,note_on,0,0,2,,,,,,,,0,,,66,0
8392,note_on,32,0,1,,,,,,,,0,,,82,0
8400,note_on,8,0,1,,,,,,,,0,,,80,74
8400,note_on,0,0,2,,,,,,,,0,,,63,74
8400,note_on,12,0,2,,,,,,,,0,,,59,74
8407,set_tempo,31,1,0,,,,,,619707,,,,,,
8432,note_on,32,0,1,,,,,,,,0,,,80,0
8437,set_tempo,30,1,0,,,,,,615006,,,,,,
8440,note_on,8,0,1,,,,,,,,0,,,70,74
8448,note_on,0,0,2,,,,,,,,0,,,59,0
8448,note_on,48,0,2,,,,,,,,0,,,63,0
8460,note_on,0,0,2,,,,,,,,0,,,65,73
8460,note_on,12,0,2,,,,,,,,0,,,61,73
8468,set_tempo,31,1,0,,,,,,610376,,,,,,
8472,note_on,32,0,1,,,,,,,,0,,,70,0
8480,note_on,8,0,1,,,,,,,,0,,,68,73
8498,set_tempo,30,1,0,,,,,,605816,,,,,,
8508,note_on,0,0,2,,,,,,,,0,,,61,0
8508,note_on,48,0,2,,,,,,,,0,,,65,0
8512,note_on,32,0,1,,,,,,,,0,,,68,0
8520,note_on,0,0,2,,,,,,,,0,,,61,72
8520,note_on,8,0,1,,,,,,,,0,,,66,72
8520,note_on,12,0,2,,,,,,,,0,,,58,72
8529,set_tempo,31,1,0,,,,,,601323,,,,,,
8552,note_on,32,0,1,,,,,,,,0,,,66,0
8560,set_tempo,31,1,0,,,,,,596896,,,,,,
8560,note_on,8,0,1,,,,,,,,0,,,80,71
8568,note_on,48,0,2,,,,,,,,0,,,61,0
8568,note_on,0,0,2,,,,,,,,0,,,58,0
8580,note_on,0,0,2,,,,,,,,0,,,59,71
8580,note_on,12,0,2,,,,,,,,0,,,63,71
8590,set_tempo,30,1,0,,,,,,592534,,,,,,
8592,note_on,32,0,1,,,,,,,,0,,,80,0
8600,note_on,8,0,1,,,,,,,,0,,,79,71
8621,set_tempo,31,1,0,,,,,,588235,,,,,,
8628,note_on,0,0,2,,,,,,,,0,,,63,0
8628,note_on,48,0,2,,,,,,,,0,,,59,0
8632,note_on,32,0,1,,,,,,,,0,,,79,0
8634,set_tempo,13,1,0,,,,,,583998,,,,,,
8640,note_on,8,0,1,,,,,,,,0,,,77,70
8640,note_on,0,0,2,,,,,,,,0,,,59,70
8640,note_on,12,0,2,,,,,,,,0,,,56,70
8672,note_on,32,0,1,,,,,,,,0,,,77,0
8680,note_on,8,0,1,,,,,,,,0,,,66,69
8712,note_on,32,0,1,,,,,,,,0,,,66,0
8720,note_on,8,0,1,,,,,,,,0,,,65,68
8736,note_on,0,0,2,,,,,,,,0,,,56,0
8736,note_on,96,0,2,,,,,,,,0,,,59,0
8752,note_on,32,0,1,,,,,,,,0,,,65,0
8760,note_on,484,0,4,,,,,,,,0,,,49,67
8760,note_on,1328,0,3,,,,,,,,0,,,58,67
8760,note_on,0,0,3,,,,,,,,0,,,55,67
8760,note_on,24,0,2,,,,,,,,0,,,64,67
8800,note_on,48,0,1,,,,,,,,0,,,75,67
8832,note_on,32,0,1,,,,,,,,0,,,75,0
8840,note_on,8,0,1,,,,,,,,0,,,76,66
8856,note_on,0,0,3,,,,,,,,0,,,58,0
8856,note_on,96,0,3,,,,,,,,0,,,55,0
8856,note_on,96,0,2,,,,,,,,0,,,64,0
8872,note_on,32,0,1,,,,,,,,0,,,76,0
8880,note_on,24,0,2,,,,,,,,0,,,65,65
8880,note_on,24,0,3,,,,,,,,0,,,59,65
8880,note_on,0,0,3,,,,,,,,0,,,56,65
8920,note_on,48,0,1,,,,,,,,0,,,79,64
8952,note_on,192,0,4,,,,,,,,0,,,49,0
8952,note_on,32,0,1,,,,,,,,0,,,79,0
8960,note_on,8,0,1,,,,,,,,0,,,77,63
8976,note_on,96,0,3,,,,,,,,0,,,56,0
8976,note_on,96,0,2,,,,,,,,0,,,65,0
8976,note_on,0,0,3,,,,,,,,0,,,59,0
8992,note_on,32,0,1,,,,,,,,0,,,77,0
9000,note_on,48,0,4,,,,,,,,0,,,37,62
9000,note_on,0,0,3,,,,,,,,0,,,53,62
9000,note_on,24,0,3,,,,,,,,0,,,55,62
9000,note_on,24,0,2,,,,,,,,0,,,59,62
9040,note_on,48,0,1,,,,,,,,0,,,70,62
9072,note_on,32,0,1,,,,,,,,0,,,70,0
9080,note_on,8,0,1,,,,,,,,0,,,71,61
9096,note_on,96,0,2,,,,,,,,0,,,59,0
9096,note_on,0,0,3,,,,,,,,0,,,55,0
9096,note_on,96,0,4,,,,,,,,0,,,37,0
9096,note_on,96,0,3,,,,,,,,0,,,53,0
9112,note_on,32,0,1,,,,,,,,0,,,71,0
9120,note_on,24,0,4,,,,,,,,0,,,36,80
9120,note_on,8,0,1,,,,,,,,0,,,72,80
9120,note_on,0,0,3,,,,,,,,0,,,55,80
9120,note_on,24,0,2,,,,,,,,0,,,60,80
9120,note_on,24,0,3,,,,,,,,0,,,52,80
9216,note_on,96,0,2,,,,,,,,0,,,60,0
9216,note_on,96,0,4,,,,,,,,0,,,36,0
9216,note_on,96,0,1,,,,,,,,0,,,72,0
9216,note_on,96,0,3,,,,,,,,0,,,55,0
9216,note_on,0,0,3,,,,,,,,0,,,52,0
9240,note_on,24,0,1,,,,,,,,0,,,65,80
9240,note_on,0,0,1,,,,,,,,0,,,73,80
9240,note_on,0,0,1,,,,,,,,0,,,68,80
9272,note_on,32,0,1,,,,,,,,0,,,73,0
9272,note_on,0,0,1,,,,,,,,0,,,68,0
9272,note_on,0,0,1,,,,,,,,0,,,65,0
9280,note_on,8,0,1,,,,,,,,0,,,75,80
9280,note_on,0,0,1,,,,,,,,0,,,67,80
9280,note_on,0,0,1,,,,,,,,0,,,70,80
9312,note_on,0,0,1,,,,,,,,0,,,75,0
9312,note_on,0,0,1,,,,,,,,0,,,67,0
9312,note_on,32,0,1,,,,,,,,0,,,70,0
9320,note_on,0,0,1,,,,,,,,0,,,73,80
9320,note_on,0,0,1,,,,,,,,0,,,65,80
9320,note_on,8,0,1,,,,,,,,0,,,68,80
9352,note_on,0,0,1,,,,,,,,0,,,68,0
9352,note_on,0,0,1,,,,,,,,0,,,73,0
9352,note_on,32,0,1,,,,,,,,0,,,65,0
9360,note_on,0,0,1,,,,,,,,0,,,64,80
9360,note_on,0,0,1,,,,,,,,0,,,67,80
9360,note_on,8,0,1,,,,,,,,0,,,72,80
9368,control_change,152,0,4,,,,,,,,0,64,127,,
9392,note_on,0,0,1,,,,,,,,0,,,72,0
9392,note_on,0,0,1,,,,,,,,0,,,67,0
9392,note_on,32,0,1,,,,,,,,0,,,64,0
9400,note_on,8,0,1,,,,,,,,0,,,73,80
9400,note_on,0,0,1,,,,,,,,0,,,65,80
9400,note_on,0,0,1,,,,,,,,0,,,68,80
9432,note_on,32,0,1,,,,,,,,0,,,65,0
9432,note_on,0,0,1,,,,,,,,0,,,68,0
9432,note_on,0,0,1,,,,,,,,0,,,73,0
9440,note_on,0,0,1,,,,,,,,0,,,64,80
9440,note_on,0,0,1,,,,,,,,0,,,67,80
9440,note_on,8,0,1,,,,,,,,0,,,72,80
9472,note_on,0,0,1,,,,,,,,0,,,67,0
9472,note_on,0,0,1,,,,,,,,0,,,72,0
9472,note_on,32,0,1,,,,,,,,0,,,64,0
9480,note_on,8,0,1,,,,,,,,0,,,70,80
9480,note_on,0,0,1,,,,,,,,0,,,65,80
9480,note_on,0,0,1,,,,,,,,0,,,61,80
9512,note_on,0,0,1,,,,,,,,0,,,65,0
9512,note_on,0,0,1,,,,,,,,0,,,70,0
9512,note_on,32,0,1,,,,,,,,0,,,61,0
9520,note_on,0,0,1,,,,,,,,0,,,63,80
9520,note_on,0,0,1,,,,,,,,0,,,67,80
9520,note_on,8,0,1,,,,,,,,0,,,72,80
9552,note_on,32,0,1,,,,,,,,0,,,63,0
9552,note_on,0,0,1,,,,,,,,0,,,67,0
9552,note_on,0,0,1,,,,,,,,0,,,72,0
9560,note_on,8,0,1,,,,,,,,0,,,70,80
9560,note_on,0,0,1,,,,,,,,0,,,61,80
9560,note_on,0,0,1,,,,,,,,0,,,65,80
9592,note_on,32,0,1,,,,,,,,0,,,61,0
9592,note_on,0,0,1,,,,,,,,0,,,65,0
9592,note_on,0,0,1,,,,,,,,0,,,70,0
9600,note_on,0,0,1,,,,,,,,0,,,58,86
9600,note_on,0,0,1,,,,,,,,0,,,67,86
9600,note_on,8,0,1,,,,,,,,0,,,61,86
9632,note_on,0,0,1,,,,,,,,0,,,67,0
9632,note_on,0,0,1,,,,,,,,0,,,61,0
9632,note_on,32,0,1,,,,,,,,0,,,58,0
9640,note_on,0,0,1,,,,,,,,0,,,60,84
9640,note_on,0,0,1,,,,,,,,0,,,63,84
9640,note_on,8,0,1,,,,,,,,0,,,68,84
9672,note_on,0,0,1,,,,,,,,0,,,68,0
9672,note_on,0,0,1,,,,,,,,0,,,63,0
9672,note_on,32,0,1,,,,,,,,0,,,60,0
9680,note_on,0,0,1,,,,,,,,0,,,58,83
9680,note_on,0,0,1,,,,,,,,0,,,67,83
9680,note_on,8,0,1,,,,,,,,0,,,61,83
9712,note_on,0,0,1,,,,,,,,0,,,58,0
9712,note_on,32,0,1,,,,,,,,0,,,67,0
9712,note_on,0,0,1,,,,,,,,0,,,61,0
9720,note_on,8,0,1,,,,,,,,0,,,58,81
9720,note_on,0,0,1,,,,,,,,0,,,64,81
9720,note_on,0,0,1,,,,,,,,0,,,55,81
9752,note_on,0,0,1,,,,,,,,0,,,58,0
9752,note_on,32,0,1,,,,,,,,0,,,64,0
9752,note_on,0,0,1,,,,,,,,0,,,55,0
9760,note_on,0,0,1,,,,,,,,0,,,60,80
9760,note_on,8,0,1,,,,,,,,0,,,56,80
9760,note_on,0,0,1,,,,,,,,0,,,65,80
9792,note_on,0,0,1,,,,,,,,0,,,65,0
9792,note_on,0,0,1,,,,,,,,0,,,56,0
9792,note_on,32,0,1,,,,,,,,0,,,60,0
9800,note_on,0,0,1,,,,,,,,0,,,55,78
9800,note_on,0,0,1,,,,,,,,0,,,58,78
9800,note_on,8,0,1,,,,,,,,0,,,64,78
9832,note_on,0,0,1,,,,,,,,0,,,58,0
9832,note_on,0,0,1,,,,,,,,0,,,64,0
9832,note_on,32,0,1,,,,,,,,0,,,55,0
9840,note_on,0,0,3,,,,,,,,0,,,53,77
9840,note_on,0,0,3,,,,,,,,0,,,56,77
9840,note_on,624,0,3,,,,,,,,0,,,61,77
9843,set_tempo,1209,1,0,,,,,,583998,,,,,,
9848,control_change,480,0,4,,,,,,,,0,64,0,,
9856,set_tempo,13,1,0,,,,,,588235,,,,,,
9869,set_tempo,13,1,0,,,,,,592534,,,,,,
9872,note_on,32,0,3,,,,,,,,0,,,56,0
9872,note_on,0,0,3,,,,,,,,0,,,61,0
9872,note_on,0,0,3,,,,,,,,0,,,53,0
9880,note_on,8,0,3,,,,,,,,0,,,63,75
9880,note_on,0,0,3,,,,,,,,0,,,55,75
9880,note_on,0,0,3,,,,,,,,0,,,58,75
9882,set_tempo,13,1,0,,,,,,596896,,,,,,
9891,set_tempo,9,1,0,,,,,,601323,,,,,,
9904,set_tempo,13,1,0,,,,,,605816,,,,,,
9912,note_on,32,0,3,,,,,,,,0,,,55,0
9912,note_on,0,0,3,,,,,,,,0,,,58,0
9912,note_on,0,0,3,,,,,,,,0,,,63,0
9917,set_tempo,13,1,0,,,,,,610376,,,,,,
9920,note_on,0,0,3,,,,,,,,0,,,53,74
9920,note_on,0,0,3,,,,,,,,0,,,56,74
9920,note_on,8,0,3,,,,,,,,0,,,61,74
9930,set_tempo,13,1,0,,,,,,615006,,,,,,
9939,set_tempo,9,1,0,,,,,,619707,,,,,,
9952,note_on,0,0,3,,,,,,,,0,,,61,0
9952,note_on,32,0,3,,,,,,,,0,,,53,0
9952,set_tempo,13,1,0,,,,,,624480,,,,,,
9952,note_on,0,0,3,,,,,,,,0,,,56,0
9960,note_on,0,0,3,,,,,,,,0,,,52,72
9960,note_on,0,0,3,,,,,,,,0,,,55,72
9960,note_on,8,0,3,,,,,,,,0,,,60,72
9965,set_tempo,13,1,0,,,,,,629327,,,,,,
9978,set_tempo,13,1,0,,,,,,634249,,,,,,
9987,set_tempo,9,1,0,,,,,,639250,,,,,,
9992,note_on,0,0,3,,,,,,,,0,,,60,0
9992,note_on,0,0,3,,,,,,,,0,,,55,0
9992,note_on,32,0,3,,,,,,,,0,,,52,0
10000,note_on,0,0,3,,,,,,,,0,,,56,71
10000,note_on,8,0,3,,,,,,,,0,,,61,71
10000,set_tempo,13,1,0,,,,,,644330,,,,,,
10000,note_on,0,0,3,,,,,,,,0,,,53,71
10013,set_tempo,13,1,0,,,,,,649491,,,,,,
10026,set_tempo,13,1,0,,,,,,654736,,,,,,
10032,note_on,0,0,3,,,,,,,,0,,,61,0
10032,note_on,0,0,3,,,,,,,,0,,,56,0
10032,note_on,32,0,3,,,,,,,,0,,,53,0
10035,set_tempo,9,1,0,,,,,,660066,,,,,,
10040,note_on,8,0,3,,,,,,,,0,,,60,69
10040,note_on,0,0,3,,,,,,,,0,,,52,69
10040,note_on,0,0,3,,,,,,,,0,,,55,69
10048,set_tempo,13,1,0,,,,,,665484,,,,,,
10061,set_tempo,13,1,0,,,,,,670991,,,,,,
10070,set_tempo,9,1,0,,,,,,676590,,,,,,
10072,note_on,0,0,3,,,,,,,,0,,,60,0
10072,note_on,32,0,3,,,,,,,,0,,,52,0
10072,note_on,0,0,3,,,,,,,,0,,,55,0
10080,note_on,232,0,4,,,,,,,,0,,,41,72
10081,control_change,1,0,4,,,,,,,,0,64,127,,
10092,set_tempo,22,1,0,,,,,,575705,,,,,,
10112,note_on,31,0,4,,,,,,,,0,,,41,0
10120,note_on,8,0,4,,,,,,,,0,,,48,72
10152,note_on,32,0,4,,,,,,,,0,,,48,0
10160,note_on,328,0,1,,,,,,,,0,,,71,80
10160,note_on,0,0,1,,,,,,,,0,,,83,80
10160,note_on,8,0,4,,,,,,,,0,,,56,72
10160,note_on,0,0,4,,,,,,,,0,,,53,72
10192,note_on,32,0,4,,,,,,,,0,,,53,0
10192,note_on,0,0,4,,,,,,,,0,,,56,0
10200,note_on,8,0,4,,,,,,,,0,,,59,72
10224,note_on,0,0,1,,,,,,,,0,,,71,0
10224,note_on,64,0,1,,,,,,,,0,,,83,0
10232,note_on,32,0,4,,,,,,,,0,,,59,0
10240,note_on,0,0,1,,,,,,,,0,,,84,80
10240,note_on,16,0,1,,,,,,,,0,,,72,80
10240,note_on,8,0,4,,,,,,,,0,,,60,72
10272,note_on,32,0,4,,,,,,,,0,,,60,0
10280,note_on,8,0,4,,,,,,,,0,,,56,72
10280,note_on,0,0,4,,,,,,,,0,,,53,72
10304,note_on,0,0,1,,,,,,,,0,,,72,0
10304,note_on,64,0,1,,,,,,,,0,,,84,0
10312,note_on,0,0,4,,,,,,,,0,,,56,0
10312,note_on,32,0,4,,,,,,,,0,,,53,0
10315,control_change,3,0,4,,,,,,,,0,64,0,,
10320,note_on,5,0,4,,,,,,,,0,,,41,72
10324,control_change,4,0,4,,,,,,,,0,64,127,,
10352,note_on,28,0,4,,,,,,,,0,,,41,0
10360,note_on,8,0,4,,,,,,,,0,,,52,72
10392,note_on,32,0,4,,,,,,,,0,,,52,0
10400,note_on,8,0,4,,,,,,,,0,,,58,72
10400,note_on,0,0,1,,,,,,,,0,,,85,80
10400,note_on,96,0,1,,,,,,,,0,,,73,80
10400,note_on,0,0,4,,,,,,,,0,,,55,72
10432,note_on,32,0,4,,,,,,,,0,,,55,0
10432,note_on,0,0,4,,,,,,,,0,,,58,0
10440,note_on,8,0,4,,,,,,,,0,,,61,72
10464,note_on,0,0,1,,,,,,,,0,,,73,0
10464,note_on,64,0,1,,,,,,,,0,,,85,0
10472,note_on,32,0,4,,,,,,,,0,,,61,0
10480,note_on,0,0,1,,,,,,,,0,,,72,80
10480,note_on,16,0,1,,,,,,,,0,,,84,80
10480,note_on,8,0,4,,,,,,,,0,,,60,72
10512,note_on,32,0,4,,,,,,,,0,,,60,0
10520,note_on,8,0,4,,,,,,,,0,,,52,72
10520,note_on,0,0,4,,,,,,,,0,,,55,72
10544,note_on,0,0,1,,,,,,,,0,,,84,0
10544,note_on,64,0,1,,,,,,,,0,,,72,0
10552,note_on,32,0,4,,,,,,,,0,,,55,0
10552,note_on,0,0,4,,,,,,,,0,,,52,0
10560,control_change,8,0,4,,,,,,,,0,64,0,,
10560,note_on,0,0,4,,,,,,,,0,,,41,72
10573,control_change,13,0,4,,,,,,,,0,64,127,,
10592,note_on,19,0,4,,,,,,,,0,,,41,0
10600,note_on,8,0,4,,,,,,,,0,,,48,72
10632,note_on,32,0,4,,,,,,,,0,,,48,0
10640,note_on,8,0,4,,,,,,,,0,,,56,72
10640,note_on,0,0,4,,,,,,,,0,,,53,72
10640,note_on,96,0,1,,,,,,,,0,,,71,80
10640,note_on,0,0,1,,,,,,,,0,,,83,80
10672,note_on,32,0,4,,,,,,,,0,,,53,0
10672,note_on,0,0,4,,,,,,,,0,,,56,0
10680,note_on,0,0,4,,,,,,,,0,,,60,72
10680,note_on,8,0,4,,,,,,,,0,,,56,72
10704,note_on,0,0,1,,,,,,,,0,,,71,0
10704,note_on,64,0,1,,,,,,,,0,,,83,0
10712,note_on,0,0,4,,,,,,,,0,,,56,0
10712,note_on,32,0,4,,,,,,,,0,,,60,0
10720,note_on,16,0,1,,,,,,,,0,,,73,80
10720,note_on,0,0,1,,,,,,,,0,,,85,80
10720,note_on,8,0,4,,,,,,,,0,,,67,72
10752,note_on,32,0,4,,,,,,,,0,,,67,0
10760,note_on,8,0,4,,,,,,,,0,,,65,72
10784,note_on,64,0,1,,,,,,,,0,,,85,0
10784,note_on,0,0,1,,,,,,,,0,,,73,0
10792,note_on,32,0,4,,,,,,,,0,,,65,0
10800,note_on,0,0,4,,,,,,,,0,,,55,72
10800,note_on,0,0,4,,,,,,,,0,,,58,72
10800,note_on,0,0,1,,,,,,,,0,,,72,80
10800,note_on,16,0,1,,,,,,,,0,,,84,80
10800,control_change,8,0,4,,,,,,,,0,64,0,,
10807,control_change,7,0,4,,,,,,,,0,64,127,,
10832,note_on,25,0,4,,,,,,,,0,,,55,0
10832,note_on,0,0,4,,,,,,,,0,,,58,0
10840,note_on,8,0,4,,,,,,,,0,,,65,72
10864,note_on,0,0,1,,,,,,,,0,,,84,0
10864,note_on,64,0,1,,,,,,,,0,,,72,0
10872,note_on,32,0,4,,,,,,,,0,,,65,0
10880,note_on,8,0,4,,,,,,,,0,,,63,72
10880,note_on,0,0,1,,,,,,,,0,,,92,80
10880,note_on,16,0,1,,,,,,,,0,,,80,80
10912,note_on,32,0,4,,,,,,,,0,,,63,0
10920,note_on,0,0,4,,,,,,,,0,,,53,72
10920,note_on,8,0,4,,,,,,,,0,,,56,72
10944,note_on,64,0,1,,,,,,,,0,,,92,0
10944,note_on,0,0,1,,,,,,,,0,,,80,0
10952,note_on,32,0,4,,,,,,,,0,,,53,0
10952,note_on,0,0,4,,,,,,,,0,,,56,0
10960,note_on,16,0,1,,,,,,,,0,,,89,80
10960,note_on,0,0,1,,,,,,,,0,,,77,80
10960,note_on,8,0,4,,,,,,,,0,,,63,72
10992,note_on,32,0,4,,,,,,,,0,,,63,0
11000,note_on,8,0,4,,,,,,,,0,,,61,72
11024,note_on,64,0,1,,,,,,,,0,,,77,0
11024,note_on,0,0,1,,,,,,,,0,,,89,0
11032,note_on,32,0,4,,,,,,,,0,,,61,0
11033,set_tempo,941,1,0,,,,,,588235,,,,,,
11040,control_change,8,0,4,,,,,,,,0,64,0,,
11040,note_on,0,0,4,,,,,,,,0,,,51,81
11040,note_on,0,0,4,,,,,,,,0,,,55,81
11052,control_change,12,0,4,,,,,,,,0,64,127,,
11063,set_tempo,30,1,0,,,,,,592534,,,,,,
11072,note_on,20,0,4,,,,,,,,0,,,55,0
11072,note_on,0,0,4,,,,,,,,0,,,51,0
11080,note_on,8,0,4,,,,,,,,0,,,61,79
11090,set_tempo,27,1,0,,,,,,596896,,,,,,
11112,note_on,32,0,4,,,,,,,,0,,,61,0
11116,set_tempo,26,1,0,,,,,,601323,,,,,,
11120,note_on,8,0,4,,,,,,,,0,,,60,78
11142,set_tempo,26,1,0,,,,,,605816,,,,,,
11152,note_on,32,0,4,,,,,,,,0,,,60,0
11160,note_on,0,0,4,,,,,,,,0,,,53,76
11160,note_on,8,0,4,,,,,,,,0,,,49,76
11168,set_tempo,26,1,0,,,,,,610376,,,,,,
11192,note_on,0,0,4,,,,,,,,0,,,49,0
11192,note_on,32,0,4,,,,,,,,0,,,53,0
11194,set_tempo,26,1,0,,,,,,615006,,,,,,
11200,note_on,8,0,4,,,,,,,,0,,,60,74
11220,set_tempo,26,1,0,,,,,,619707,,,,,,
11232,note_on,32,0,4,,,,,,,,0,,,60,0
11240,note_on,8,0,4,,,,,,,,0,,,58,72
11247,set_tempo,27,1,0,,,,,,624480,,,,,,
11272,note_on,32,0,4,,,,,,,,0,,,58,0
11273,set_tempo,26,1,0,,,,,,629327,,,,,,
11280,note_on,0,0,4,,,,,,,,0,,,51,71
11280,note_on,8,0,4,,,,,,,,0,,,48,71
11282,control_change,2,0,4,,,,,,,,0,64,0,,
11303,set_tempo,30,1,0,,,,,,634249,,,,,,
11312,note_on,0,0,4,,,,,,,,0,,,48,0
11312,note_on,30,0,4,,,,,,,,0,,,51,0
11320,note_on,8,0,4,,,,,,,,0,,,58,69
11330,set_tempo,27,1,0,,,,,,639250,,,,,,
11352,note_on,32,0,4,,,,,,,,0,,,58,0
11356,set_tempo,26,1,0,,,,,,644330,,,,,,
11360,note_on,8,0,4,,,,,,,,0,,,56,67
11382,set_tempo,26,1,0,,,,,,649491,,,,,,
11392,note_on,32,0,4,,,,,,,,0,,,56,0
11400,note_on,8,0,4,,,,,,,,0,,,46,65
11400,note_on,0,0,4,,,,,,,,0,,,49,65
11408,set_tempo,26,1,0,,,,,,654736,,,,,,
11432,note_on,32,0,4,,,,,,,,0,,,49,0
11432,note_on,0,0,4,,,,,,,,0,,,46,0
11434,set_tempo,26,1,0,,,,,,660066,,,,,,
11440,note_on,8,0,4,,,,,,,,0,,,56,64
11460,set_tempo,26,1,0,,,,,,665484,,,,,,
11472,note_on,32,0,4,,,,,,,,0,,,56,0
11480,note_on,8,0,4,,,,,,,,0,,,55,62
11487,set_tempo,27,1,0,,,,,,670991,,,,,,
11512,note_on,32,0,4,,,,,,,,0,,,55,0
11513,set_tempo,26,1,0,,,,,,676590,,,,,,
11517,set_tempo,4,1,0,,,,,,583998,,,,,,
11520,control_change,8,0,4,,,,,,,,0,64,127,,
11520,note_on,0,0,4,,,,,,,,0,,,41,72
11552,note_on,32,0,4,,,,,,,,0,,,41,0
11560,note_on,8,0,4,,,,,,,,0,,,48,72
11592,note_on,32,0,4,,,,,,,,0,,,48,0
11600,note_on,0,0,4,,,,,,,,0,,,56,72
11600,note_on,8,0,4,,,,,,,,0,,,53,72
11600,note_on,0,0,1,,,,,,,,0,,,71,80
11600,note_on,576,0,1,,,,,,,,0,,,83,80
11632,note_on,0,0,4,,,,,,,,0,,,53,0
11632,note_on,32,0,4,,,,,,,,0,,,56,0
11640,note_on,8,0,4,,,,,,,,0,,,59,72
11664,note_on,0,0,1,,,,,,,,0,,,83,0
11664,note_on,64,0,1,,,,,,,,0,,,71,0
11672,note_on,32,0,4,,,,,,,,0,,,59,0
11680,note_on,0,0,1,,,,,,,,0,,,84,80
11680,note_on,8,0,4,,,,,,,,0,,,60,72
11680,note_on,16,0,1,,,,,,,,0,,,72,80
11712,note_on,32,0,4,,,,,,,,0,,,60,0
11720,note_on,0,0,4,,,,,,,,0,,,53,72
11720,note_on,8,0,4,,,,,,,,0,,,56,72
11744,note_on,64,0,1,,,,,,,,0,,,84,0
11744,note_on,0,0,1,,,,,,,,0,,,72,0
11751,control_change,31,0,4,,,,,,,,0,64,0,,
11752,note_on,1,0,4,,,,,,,,0,,,53,0
11752,note_on,0,0,4,,,,,,,,0,,,56,0
11760,note_on,8,0,4,,,,,,,,0,,,41,72
11761,control_change,1,0,4,,,,,,,,0,64,127,,
11792,note_on,31,0,4,,,,,,,,0,,,41,0
11800,note_on,8,0,4,,,,,,,,0,,,52,72
11832,note_on,32,0,4,,,,,,,,0,,,52,0
11840,note_on,0,0,1,,,,,,,,0,,,85,80
11840,note_on,8,0,4,,,,,,,,0,,,58,72
11840,note_on,0,0,4,,,,,,,,0,,,55,72
11840,note_on,96,0,1,,,,,,,,0,,,73,80
11872,note_on,0,0,4,,,,,,,,0,,,58,0
11872,note_on,32,0,4,,,,,,,,0,,,55,0
11880,note_on,8,0,4,,,,,,,,0,,,61,72
11904,note_on,0,0,1,,,,,,,,0,,,73,0
11904,note_on,64,0,1,,,,,,,,0,,,85,0
11912,note_on,32,0,4,,,,,,,,0,,,61,0
11920,note_on,0,0,1,,,,,,,,0,,,84,80
11920,note_on,16,0,1,,,,,,,,0,,,72,80
11920,note_on,8,0,4,,,,,,,,0,,,60,72
11952,note_on,32,0,4,,,,,,,,0,,,60,0
11960,note_on,8,0,4,,,,,,,,0,,,55,72
11960,note_on,0,0,4,,,,,,,,0,,,52,72
11984,note_on,64,0,1,,,,,,,,0,,,84,0
11984,note_on,0,0,1,,,,,,,,0,,,72,0
11992,note_on,32,0,4,,,,,,,,0,,,52,0
11992,note_on,0,0,4,,,,,,,,0,,,55,0
12000,note_on,0,0,4,,,,,,,,0,,,41,72
12000,control_change,8,0,4,,,,,,,,0,64,0,,
12014,control_change,14,0,4,,,,,,,,0,64,127,,
12032,note_on,18,0,4,,,,,,,,0,,,41,0
12040,note_on,8,0,4,,,,,,,,0,,,48,72
12072,note_on,32,0,4,,,,,,,,0,,,48,0
12080,note_on,0,0,4,,,,,,,,0,,,53,72
12080,note_on,8,0,4,,,,,,,,0,,,56,72
12080,note_on,96,0,1,,,,,,,,0,,,83,80
12080,note_on,0,0,1,,,,,,,,0,,,71,80
12112,note_on,32,0,4,,,,,,,,0,,,53,0
12112,note_on,0,0,4,,,,,,,,0,,,56,0
12120,note_on,8,0,4,,,,,,,,0,,,56,72
12120,note_on,0,0,4,,,,,,,,0,,,60,72
12144,note_on,0,0,1,,,,,,,,0,,,83,0
12144,note_on,64,0,1,,,,,,,,0,,,71,0
12152,note_on,32,0,4,,,,,,,,0,,,60,0
12152,note_on,0,0,4,,,,,,,,0,,,56,0
12160,note_on,8,0,4,,,,,,,,0,,,67,72
12160,note_on,16,0,1,,,,,,,,0,,,73,80
12160,note_on,0,0,1,,,,,,,,0,,,85,80
12192,note_on,32,0,4,,,,,,,,0,,,67,0
12200,note_on,8,0,4,,,,,,,,0,,,65,72
12224,note_on,64,0,1,,,,,,,,0,,,85,0
12224,note_on,0,0,1,,,,,,,,0,,,73,0
12232,note_on,32,0,4,,,,,,,,0,,,65,0
12239,control_change,7,0,4,,,,,,,,0,64,0,,
12240,note_on,1,0,4,,,,,,,,0,,,55,72
12240,note_on,16,0,1,,,,,,,,0,,,72,80
12240,note_on,0,0,1,,,,,,,,0,,,84,80
12240,note_on,0,0,4,,,,,,,,0,,,58,72
12247,control_change,7,0,4,,,,,,,,0,64,127,,
12272,note_on,25,0,4,,,,,,,,0,,,58,0
12272,note_on,0,0,4,,,,,,,,0,,,55,0
12280,note_on,8,0,4,,,,,,,,0,,,65,72
12304,note_on,64,0,1,,,,,,,,0,,,84,0
12304,note_on,0,0,1,,,,,,,,0,,,72,0
12312,note_on,32,0,4,,,,,,,,0,,,65,0
12320,note_on,8,0,4,,,,,,,,0,,,63,72
12320,note_on,16,0,1,,,,,,,,0,,,92,80
12320,note_on,0,0,1,,,,,,,,0,,,80,80
12352,note_on,32,0,4,,,,,,,,0,,,63,0
12360,note_on,0,0,4,,,,,,,,0,,,56,72
12360,note_on,8,0,4,,,,,,,,0,,,53,72
12384,note_on,64,0,1,,,,,,,,0,,,80,0
12384,note_on,0,0,1,,,,,,,,0,,,92,0
12392,note_on,32,0,4,,,,,,,,0,,,56,0
12392,note_on,0,0,4,,,,,,,,0,,,53,0
12400,note_on,8,0,4,,,,,,,,0,,,63,72
12400,note_on,0,0,1,,,,,,,,0,,,89,80
12400,note_on,16,0,1,,,,,,,,0,,,77,80
12432,note_on,32,0,4,,,,,,,,0,,,63,0
12440,note_on,8,0,4,,,,,,,,0,,,61,72
12464,note_on,0,0,1,,,,,,,,0,,,77,0
12464,note_on,64,0,1,,,,,,,,0,,,89,0
12472,note_on,32,0,4,,,,,,,,0,,,61,0
12480,note_on,0,0,4,,,,,,,,0,,,39,72
12480,control_change,8,0,4,,,,,,,,0,64,0,,
12496,control_change,16,0,4,,,,,,,,0,64,127,,
12512,note_on,16,0,4,,,,,,,,0,,,39,0
12520,note_on,8,0,4,,,,,,,,0,,,47,72
12552,note_on,32,0,4,,,,,,,,0,,,47,0
12560,note_on,8,0,4,,,,,,,,0,,,56,72
12560,note_on,0,0,1,,,,,,,,0,,,86,80
12560,note_on,96,0,1,,,,,,,,0,,,74,80
12592,note_on,32,0,4,,,,,,,,0,,,56,0
12600,note_on,8,0,4,,,,,,,,0,,,51,72
12624,note_on,0,0,1,,,,,,,,0,,,74,0
12624,note_on,64,0,1,,,,,,,,0,,,86,0
12632,note_on,32,0,4,,,,,,,,0,,,51,0
12640,note_on,16,0,1,,,,,,,,0,,,87,80
12640,note_on,8,0,4,,,,,,,,0,,,59,72
12640,note_on,0,0,1,,,,,,,,0,,,75,80
12672,note_on,32,0,4,,,,,,,,0,,,59,0
12680,note_on,8,0,4,,,,,,,,0,,,56,72
12704,note_on,0,0,1,,,,,,,,0,,,87,0
12704,note_on,64,0,1,,,,,,,,0,,,75,0
12712,note_on,32,0,4,,,,,,,,0,,,56,0
12716,control_change,4,0,4,,,,,,,,0,64,0,,
12720,note_on,4,0,4,,,,,,,,0,,,39,72
12731,control_change,11,0,4,,,,,,,,0,64,127,,
12752,note_on,21,0,4,,,,,,,,0,,,39,0
12760,note_on,0,0,4,,,,,,,,0,,,49,72
12760,note_on,8,0,4,,,,,,,,0,,,46,72
12792,note_on,0,0,4,,,,,,,,0,,,46,0
12792,note_on,32,0,4,,,,,,,,0,,,49,0
12800,note_on,96,0,1,,,,,,,,0,,,76,80
12800,note_on,8,0,4,,,,,,,,0,,,55,72
12800,note_on,0,0,1,,,,,,,,0,,,88,80
12832,note_on,32,0,4,,,,,,,,0,,,55,0
12840,note_on,8,0,4,,,,,,,,0,,,51,72
12864,note_on,0,0,1,,,,,,,,0,,,76,0
12864,note_on,64,0,1,,,,,,,,0,,,88,0
12872,note_on,32,0,4,,,,,,,,0,,,51,0
12880,note_on,8,0,4,,,,,,,,0,,,61,72
12880,note_on,16,0,1,,,,,,,,0,,,87,80
12880,note_on,0,0,1,,,,,,,,0,,,75,80
12912,note_on,32,0,4,,,,,,,,0,,,61,0
12920,note_on,8,0,4,,,,,,,,0,,,55,72
12944,note_on,0,0,1,,,,,,,,0,,,87,0
12944,note_on,64,0,1,,,,,,,,0,,,75,0
12948,control_change,28,0,4,,,,,,,,0,64,0,,
12948,set_tempo,1431,1,0,,,,,,579822,,,,,,
12952,note_on,4,0,4,,,,,,,,0,,,55,0
12960,note_on,8,0,4,,,,,,,,0,,,44,72
12974,control_change,14,0,4,,,,,,,,0,64,127,,
12992,note_on,18,0,4,,,,,,,,0,,,44,0
13000,note_on,8,0,4,,,,,,,,0,,,51,72
13032,note_on,32,0,4,,,,,,,,0,,,51,0
13040,note_on,0,0,1,,,,,,,,0,,,86,80
13040,note_on,96,0,1,,,,,,,,0,,,74,80
13040,note_on,0,0,4,,,,,,,,0,,,56,72
13040,note_on,8,0,4,,,,,,,,0,,,59,72
13072,note_on,0,0,4,,,,,,,,0,,,59,0
13072,note_on,32,0,4,,,,,,,,0,,,56,0
13080,note_on,0,0,4,,,,,,,,0,,,63,72
13080,note_on,8,0,4,,,,,,,,0,,,59,72
13104,note_on,0,0,1,,,,,,,,0,,,74,0
13104,note_on,64,0,1,,,,,,,,0,,,86,0
13112,note_on,32,0,4,,,,,,,,0,,,63,0
13112,note_on,0,0,4,,,,,,,,0,,,59,0
13120,note_on,8,0,4,,,,,,,,0,,,70,72
13120,note_on,16,0,1,,,,,,,,0,,,88,80
13120,note_on,0,0,1,,,,,,,,0,,,76,80
13152,note_on,32,0,4,,,,,,,,0,,,70,0
13160,note_on,8,0,4,,,,,,,,0,,,68,72
13184,note_on,0,0,1,,,,,,,,0,,,88,0
13184,note_on,64,0,1,,,,,,,,0,,,76,0
13192,note_on,32,0,4,,,,,,,,0,,,68,0
13200,note_on,16,0,1,,,,,,,,0,,,87,80
13200,note_on,8,0,4,,,,,,,,0,,,61,72
13200,note_on,0,0,1,,,,,,,,0,,,75,80
13200,note_on,0,0,4,,,,,,,,0,,,58,72
13204,control_change,4,0,4,,,,,,,,0,64,0,,
13212,control_change,8,0,4,,,,,,,,0,64,127,,
13232,note_on,20,0,4,,,,,,,,0,,,58,0
13232,note_on,0,0,4,,,,,,,,0,,,61,0
13240,note_on,8,0,4,,,,,,,,0,,,68,72
13264,note_on,64,0,1,,,,,,,,0,,,75,0
13264,note_on,0,0,1,,,,,,,,0,,,87,0
13272,note_on,32,0,4,,,,,,,,0,,,68,0
13280,note_on,16,0,1,,,,,,,,0,,,83,80
13280,note_on,0,0,1,,,,,,,,0,,,95,80
13280,note_on,8,0,4,,,,,,,,0,,,66,72
13312,note_on,32,0,4,,,,,,,,0,,,66,0
13320,note_on,8,0,4,,,,,,,,0,,,59,72
13320,note_on,0,0,4,,,,,,,,0,,,56,72
13344,note_on,0,0,1,,,,,,,,0,,,83,0
13344,note_on,64,0,1,,,,,,,,0,,,95,0
13352,note_on,0,0,4,,,,,,,,0,,,59,0
13352,note_on,32,0,4,,,,,,,,0,,,56,0
13360,note_on,8,0,4,,,,,,,,0,,,66,72
13360,note_on,16,0,1,,,,,,,,0,,,80,80
13360,note_on,0,0,1,,,,,,,,0,,,92,80
13392,note_on,32,0,4,,,,,,,,0,,,66,0
13400,note_on,8,0,4,,,,,,,,0,,,64,72
13424,note_on,0,0,1,,,,,,,,0,,,80,0
13424,note_on,64,0,1,,,,,,,,0,,,92,0
13432,note_on,32,0,4,,,,,,,,0,,,64,0
13432,set_tempo,484,1,0,,,,,,579822,,,,,,
13440,control_change,8,0,4,,,,,,,,0,64,0,,
13440,note_on,0,0,4,,,,,,,,0,,,42,72
13448,control_change,8,0,4,,,,,,,,0,64,127,,
13472,note_on,24,0,4,,,,,,,,0,,,42,0
13480,note_on,8,0,4,,,,,,,,0,,,51,72
13512,note_on,32,0,4,,,,,,,,0,,,51,0
13520,note_on,0,0,1,,,,,,,,0,,,89,80
13520,note_on,8,0,4,,,,,,,,0,,,59,72
13520,note_on,96,0,1,,,,,,,,0,,,77,80
13541,set_tempo,109,1,0,,,,,,583998,,,,,,
13552,note_on,32,0,4,,,,,,,,0,,,59,0
13560,note_on,8,0,4,,,,,,,,0,,,54,72
13584,note_on,64,0,1,,,,,,,,0,,,89,0
13584,note_on,0,0,1,,,,,,,,0,,,77,0
13592,note_on,32,0,4,,,,,,,,0,,,54,0
13600,note_on,0,0,1,,,,,,,,0,,,78,80
13600,note_on,16,0,1,,,,,,,,0,,,90,80
13600,note_on,8,0,4,,,,,,,,0,,,63,72
13632,note_on,32,0,4,,,,,,,,0,,,63,0
13640,note_on,8,0,4,,,,,,,,0,,,59,72
13646,set_tempo,105,1,0,,,,,,588235,,,,,,
13664,note_on,0,0,1,,,,,,,,0,,,90,0
13664,note_on,64,0,1,,,,,,,,0,,,78,0
13672,note_on,32,0,4,,,,,,,,0,,,59,0
13678,control_change,6,0,4,,,,,,,,0,64,0,,
13680,note_on,2,0,4,,,,,,,,0,,,42,72
13685,control_change,5,0,4,,,,,,,,0,64,127,,
13712,note_on,27,0,4,,,,,,,,0,,,42,0
13720,note_on,8,0,4,,,,,,,,0,,,49,72
13720,note_on,0,0,4,,,,,,,,0,,,52,72
13750,set_tempo,104,1,0,,,,,,592534,,,,,,
13752,note_on,32,0,4,,,,,,,,0,,,52,0
13752,note_on,0,0,4,,,,,,,,0,,,49,0
13760,note_on,96,0,1,,,,,,,,0,,,91,80
13760,note_on,8,0,4,,,,,,,,0,,,58,72
13760,note_on,0,0,1,,,,,,,,0,,,79,80
13792,note_on,32,0,4,,,,,,,,0,,,58,0
13800,note_on,8,0,4,,,,,,,,0,,,54,72
13824,note_on,0,0,1,,,,,,,,0,,,91,0
13824,note_on,64,0,1,,,,,,,,0,,,79,0
13832,note_on,32,0,4,,,,,,,,0,,,54,0
13840,note_on,8,0,4,,,,,,,,0,,,64,72
13840,note_on,0,0,1,,,,,,,,0,,,78,80
13840,note_on,16,0,1,,,,,,,,0,,,90,80
13860,set_tempo,110,1,0,,,,,,596896,,,,,,
13872,note_on,32,0,4,,,,,,,,0,,,64,0
13880,note_on,8,0,4,,,,,,,,0,,,58,72
13904,note_on,0,0,1,,,,,,,,0,,,90,0
13904,note_on,64,0,1,,,,,,,,0,,,78,0
13912,note_on,32,0,4,,,,,,,,0,,,58,0
13918,set_tempo,58,1,0,,,,,,579822,,,,,,
13920,control_change,8,0,4,,,,,,,,0,64,0,,
13920,note_on,0,0,4,,,,,,,,0,,,42,72
13928,control_change,8,0,4,,,,,,,,0,64,127,,
13936,set_tempo,18,1,0,,,,,,583998,,,,,,
13949,set_tempo,13,1,0,,,,,,588235,,,,,,
13952,note_on,24,0,4,,,,,,,,0,,,42,0
13960,note_on,8,0,4,,,,,,,,0,,,51,72
13962,set_tempo,13,1,0,,,,,,592534,,,,,,
13975,set_tempo,13,1,0,,,,,,596896,,,,,,
13988,set_tempo,13,1,0,,,,,,601323,,,,,,
13992,note_on,32,0,4,,,,,,,,0,,,51,0
14000,note_on,96,0,1,,,,,,,,0,,,77,80
14000,note_on,0,0,1,,,,,,,,0,,,89,80
14000,note_on,8,0,4,,,,,,,,0,,,59,72
14001,set_tempo,13,1,0,,,,,,605816,,,,,,
14014,set_tempo,13,1,0,,,,,,610376,,,,,,
14027,set_tempo,13,1,0,,,,,,615006,,,,,,
14032,note_on,32,0,4,,,,,,,,0,,,59,0
14040,set_tempo,13,1,0,,,,,,619707,,,,,,
14040,note_on,8,0,4,,,,,,,,0,,,54,72
14054,set_tempo,14,1,0,,,,,,624480,,,,,,
14064,note_on,0,0,1,,,,,,,,0,,,77,0
14064,note_on,64,0,1,,,,,,,,0,,,89,0
14067,set_tempo,13,1,0,,,,,,629327,,,,,,
14072,note_on,32,0,4,,,,,,,,0,,,54,0
14080,note_on,16,0,1,,,,,,,,0,,,78,80
14080,note_on,8,0,4,,,,,,,,0,,,63,72
14080,note_on,0,0,1,,,,,,,,0,,,90,80
14080,set_tempo,13,1,0,,,,,,634249,,,,,,
14093,set_tempo,13,1,0,,,,,,639250,,,,,,
14106,set_tempo,13,1,0,,,,,,644330,,,,,,
14112,note_on,32,0,4,,,,,,,,0,,,63,0
14119,set_tempo,13,1,0,,,,,,649491,,,,,,
14120,note_on,8,0,4,,,,,,,,0,,,59,72
14132,set_tempo,13,1,0,,,,,,654736,,,,,,
14144,note_on,64,0,1,,,,,,,,0,,,90,0
14144,note_on,0,0,1,,,,,,,,0,,,78,0
14145,set_tempo,13,1,0,,,,,,660066,,,,,,
14152,note_on,32,0,4,,,,,,,,0,,,59,0
14157,control_change,5,0,4,,,,,,,,0,64,0,,
14158,set_tempo,13,1,0,,,,,,665484,,,,,,
14160,note_on,3,0,4,,,,,,,,0,,,42,72
14160,note_on,16,0,1,,,,,,,,0,,,79,80
14160,note_on,0,0,1,,,,,,,,0,,,91,80
14166,control_change,6,0,4,,,,,,,,0,64,127,,
14171,set_tempo,13,1,0,,,,,,670991,,,,,,
14184,set_tempo,13,1,0,,,,,,676590,,,,,,
14192,note_on,26,0,4,,,,,,,,0,,,42,0
14198,set_tempo,14,1,0,,,,,,682283,,,,,,
14200,note_on,0,0,4,,,,,,,,0,,,52,72
14200,note_on,8,0,4,,,,,,,,0,,,49,72
14208,note_on,48,0,1,,,,,,,,0,,,91,0
14208,note_on,0,0,1,,,,,,,,0,,,79,0
14211,set_tempo,13,1,0,,,,,,688073,,,,,,
14220,note_on,0,0,1,,,,,,,,0,,,78,80
14220,note_on,12,0,1,,,,,,,,0,,,90,80
14224,set_tempo,13,1,0,,,,,,693963,,,,,,
14232,note_on,0,0,4,,,,,,,,0,,,49,0
14232,note_on,32,0,4,,,,,,,,0,,,52,0
14237,set_tempo,13,1,0,,,,,,699953,,,,,,
14240,note_on,8,0,4,,,,,,,,0,,,58,72
14250,set_tempo,13,1,0,,,,,,706048,,,,,,
14256,note_on,0,0,1,,,,,,,,0,,,90,0
14256,note_on,36,0,1,,,,,,,,0,,,78,0
14263,set_tempo,13,1,0,,,,,,712251,,,,,,
14265,note_on,0,0,1,,,,,,,,0,,,93,80
14265,note_on,9,0,1,,,,,,,,0,,,81,80
14272,note_on,32,0,4,,,,,,,,0,,,58,0
14276,set_tempo,13,1,0,,,,,,718563,,,,,,
14277,note_on,12,0,1,,,,,,,,0,,,93,0
14277,note_on,0,0,1,,,,,,,,0,,,81,0
14280,note_on,3,0,1,,,,,,,,0,,,79,80
14280,note_on,0,0,1,,,,,,,,0,,,91,80
14280,note_on,8,0,4,,,,,,,,0,,,54,72
14289,set_tempo,13,1,0,,,,,,724988,,,,,,
14302,set_tempo,13,1,0,,,,,,731529,,,,,,
14307,set_tempo,5,1,0,,,,,,1003009,,,,,,
14312,note_on,32,0,4,,,,,,,,0,,,54,0
14320,note_on,8,0,4,,,,,,,,0,,,64,72
14328,note_on,48,0,1,,,,,,,,0,,,91,0
14328,note_on,0,0,1,,,,,,,,0,,,79,0
14352,note_on,32,0,4,,,,,,,,0,,,64,0
14360,note_on,8,0,4,,,,,,,,0,,,58,72
14370,note_on,42,0,1,,,,,,,,0,,,78,80
14370,note_on,0,0,1,,,,,,,,0,,,90,80
14385,set_tempo,78,1,0,,,,,,978793,,,,,,
14389,control_change,29,0,4,,,,,,,,0,64,0,,
14392,note_on,3,0,4,,,,,,,,0,,,58,0
14394,note_on,0,0,1,,,,,,,,0,,,78,0
14394,note_on,24,0,1,,,,,,,,0,,,90,0
14400,note_on,6,0,1,,,,,,,,0,,,99,80
14400,note_on,0,0,1,,,,,,,,0,,,87,80
14400,note_on,4328,0,3,,,,,,,,0,,,47,72
14416,control_change,24,0,4,,,,,,,,0,64,127,,
14432,note_on,32,0,3,,,,,,,,0,,,47,0
14438,set_tempo,53,1,0,,,,,,967118,,,,,,
14440,note_on,8,0,3,,,,,,,,0,,,57,72
14440,note_on,0,0,3,,,,,,,,0,,,54,72
14446,set_tempo,8,1,0,,,,,,758917,,,,,,
14464,set_tempo,18,1,0,,,,,,751880,,,,,,
14472,note_on,32,0,3,,,,,,,,0,,,54,0
14472,note_on,0,0,3,,,,,,,,0,,,57,0
14480,note_on,8,0,3,,,,,,,,0,,,60,72
14481,set_tempo,17,1,0,,,,,,744971,,,,,,
14499,set_tempo,18,1,0,,,,,,738189,,,,,,
14512,note_on,32,0,3,,,,,,,,0,,,60,0
14516,set_tempo,17,1,0,,,,,,731529,,,,,,
14520,note_on,8,0,3,,,,,,,,0,,,59,72
14534,set_tempo,18,1,0,,,,,,724988,,,,,,
14551,set_tempo,17,1,0,,,,,,718563,,,,,,
14552,note_on,32,0,3,,,,,,,,0,,,59,0
14560,note_on,0,0,2,,,,,,,,0,,,69,72
14560,note_on,5344,0,2,,,,,,,,0,,,66,72
14564,set_tempo,13,1,0,,,,,,712251,,,,,,
14582,set_tempo,18,1,0,,,,,,706048,,,,,,
14592,note_on,192,0,1,,,,,,,,0,,,87,0
14592,note_on,32,0,2,,,,,,,,0,,,69,0
14592,note_on,0,0,2,,,,,,,,0,,,66,0
14592,note_on,0,0,1,,,,,,,,0,,,99,0
14599,set_tempo,17,1,0,,,,,,699953,,,,,,
14600,note_on,8,0,2,,,,,,,,0,,,72,72
14616,set_tempo,17,1,0,,,,,,693963,,,,,,
14632,note_on,32,0,2,,,,,,,,0,,,72,0
14634,set_tempo,18,1,0,,,,,,688073,,,,,,
14640,note_on,0,0,1,,,,,,,,0,,,99,80
14640,note_on,48,0,1,,,,,,,,0,,,87,80
14640,note_on,8,0,2,,,,,,,,0,,,71,72
14651,set_tempo,17,1,0,,,,,,682283,,,,,,
14669,set_tempo,18,1,0,,,,,,676590,,,,,,
14672,note_on,32,0,2,,,,,,,,0,,,71,0
14680,note_on,0,0,2,,,,,,,,0,,,69,72
14680,note_on,8,0,2,,,,,,,,0,,,66,72
14686,set_tempo,17,1,0,,,,,,670991,,,,,,
14704,set_tempo,18,1,0,,,,,,665484,,,,,,
14712,note_on,0,0,2,,,,,,,,0,,,66,0
14712,note_on,32,0,2,,,,,,,,0,,,69,0
14717,set_tempo,13,1,0,,,,,,660066,,,,,,
14720,note_on,168,0,3,,,,,,,,0,,,60,72
14734,set_tempo,17,1,0,,,,,,654736,,,,,,
14752,note_on,32,0,3,,,,,,,,0,,,60,0
14752,set_tempo,18,1,0,,,,,,649491,,,,,,
14760,note_on,8,0,3,,,,,,,,0,,,59,72
14769,set_tempo,17,1,0,,,,,,644330,,,,,,
14784,note_on,144,0,1,,,,,,,,0,,,99,0
14784,note_on,0,0,1,,,,,,,,0,,,87,0
14787,set_tempo,18,1,0,,,,,,639250,,,,,,
14792,note_on,32,0,3,,,,,,,,0,,,59,0
14800,note_on,8,0,3,,,,,,,,0,,,57,72
14800,note_on,0,0,3,,,,,,,,0,,,54,72
14804,set_tempo,17,1,0,,,,,,634249,,,,,,
14820,note_on,36,0,1,,,,,,,,0,,,87,80
14820,note_on,0,0,1,,,,,,,,0,,,99,80
14822,set_tempo,18,1,0,,,,,,629327,,,,,,
14832,note_on,32,0,3,,,,,,,,0,,,54,0
14832,note_on,0,0,3,,,,,,,,0,,,57,0
14839,set_tempo,17,1,0,,,,,,624480,,,,,,
14840,note_on,8,0,3,,,,,,,,0,,,48,72
14856,set_tempo,17,1,0,,,,,,619707,,,,,,
14868,note_on,48,0,1,,,,,,,,0,,,99,0
14868,note_on,0,0,1,,,,,,,,0,,,87,0
14870,set_tempo,14,1,0,,,,,,615006,,,,,,
14872,note_on,32,0,3,,,,,,,,0,,,48,0
14880,control_change,464,0,4,,,,,,,,0,64,0,,
14880,note_on,0,0,1,,,,,,,,0,,,87,80
14880,note_on,12,0,1,,,,,,,,0,,,99,80
14880,note_on,8,0,3,,,,,,,,0,,,47,72
14894,control_change,14,0,4,,,,,,,,0,64,127,,
14912,note_on,32,0,3,,,,,,,,0,,,47,0
14920,note_on,0,0,3,,,,,,,,0,,,56,72
14920,note_on,8,0,3,,,,,,,,0,,,53,72
14952,note_on,32,0,3,,,,,,,,0,,,56,0
14952,note_on,0,0,3,,,,,,,,0,,,53,0
14960,note_on,8,0,3,,,,,,,,0,,,60,72
14992,note_on,32,0,3,,,,,,,,0,,,60,0
15000,note_on,8,0,3,,,,,,,,0,,,59,72
15032,note_on,32,0,3,,,,,,,,0,,,59,0
15040,note_on,328,0,2,,,,,,,,0,,,65,72
15040,note_on,0,0,2,,,,,,,,0,,,68,72
15072,note_on,32,0,2,,,,,,,,0,,,68,0
15072,note_on,192,0,1,,,,,,,,0,,,87,0
15072,note_on,0,0,1,,,,,,,,0,,,99,0
15072,note_on,0,0,2,,,,,,,,0,,,65,0
15080,note_on,8,0,2,,,,,,,,0,,,72,72
15112,note_on,32,0,2,,,,,,,,0,,,72,0
15120,note_on,0,0,1,,,,,,,,0,,,98,80
15120,note_on,48,0,1,,,,,,,,0,,,86,80
15120,note_on,8,0,2,,,,,,,,0,,,71,72
15152,note_on,32,0,2,,,,,,,,0,,,71,0
15160,note_on,8,0,2,,,,,,,,0,,,65,72
15160,note_on,0,0,2,,,,,,,,0,,,68,72
15192,note_on,0,0,2,,,,,,,,0,,,65,0
15192,note_on,32,0,2,,,,,,,,0,,,68,0
15200,note_on,168,0,3,,,,,,,,0,,,60,72
15232,note_on,32,0,3,,,,,,,,0,,,60,0
15240,note_on,8,0,3,,,,,,,,0,,,59,72
15272,note_on,32,0,3,,,,,,,,0,,,59,0
15280,note_on,8,0,3,,,,,,,,0,,,53,72
15280,note_on,0,0,3,,,,,,,,0,,,56,72
15312,note_on,0,0,3,,,,,,,,0,,,53,0
15312,note_on,32,0,3,,,,,,,,0,,,56,0
15320,note_on,8,0,3,,,,,,,,0,,,48,72
15352,note_on,32,0,3,,,,,,,,0,,,48,0
15360,note_on,8,0,3,,,,,,,,0,,,47,72
15360,control_change,466,0,4,,,,,,,,0,64,0,,
15376,control_change,16,0,4,,,,,,,,0,64,127,,
15392,note_on,32,0,3,,,,,,,,0,,,47,0
15400,note_on,8,0,3,,,,,,,,0,,,55,72
15400,note_on,0,0,3,,,,,,,,0,,,52,72
15432,note_on,0,0,3,,,,,,,,0,,,55,0
15432,note_on,32,0,3,,,,,,,,0,,,52,0
15440,note_on,8,0,3,,,,,,,,0,,,59,72
15456,note_on,336,0,1,,,,,,,,0,,,98,0
15456,note_on,0,0,1,,,,,,,,0,,,86,0
15472,note_on,32,0,3,,,,,,,,0,,,59,0
15480,note_on,8,0,3,,,,,,,,0,,,58,72
15480,note_on,0,0,1,,,,,,,,0,,,97,80
15480,note_on,24,0,1,,,,,,,,0,,,85,80
15512,note_on,32,0,3,,,,,,,,0,,,58,0
15520,note_on,0,0,2,,,,,,,,0,,,64,72
15520,note_on,328,0,2,,,,,,,,0,,,67,72
15552,note_on,32,0,2,,,,,,,,0,,,64,0
15552,note_on,0,0,2,,,,,,,,0,,,67,0
15560,note_on,8,0,2,,,,,,,,0,,,71,72
15576,note_on,96,0,1,,,,,,,,0,,,97,0
15576,note_on,0,0,1,,,,,,,,0,,,85,0
15592,note_on,32,0,2,,,,,,,,0,,,71,0
15600,note_on,0,0,1,,,,,,,,0,,,99,80
15600,note_on,8,0,2,,,,,,,,0,,,70,72
15600,note_on,24,0,1,,,,,,,,0,,,87,80
15632,note_on,32,0,2,,,,,,,,0,,,70,0
15640,note_on,8,0,2,,,,,,,,0,,,64,72
15640,note_on,0,0,2,,,,,,,,0,,,67,72
15672,note_on,32,0,2,,,,,,,,0,,,67,0
15672,note_on,0,0,2,,,,,,,,0,,,64,0
15680,note_on,168,0,3,,,,,,,,0,,,59,72
15696,note_on,96,0,1,,,,,,,,0,,,99,0
15696,note_on,0,0,1,,,,,,,,0,,,87,0
15712,note_on,32,0,3,,,,,,,,0,,,59,0
15720,note_on,8,0,3,,,,,,,,0,,,58,72
15720,note_on,24,0,1,,,,,,,,0,,,100,80
15720,note_on,0,0,1,,,,,,,,0,,,88,80
15752,note_on,32,0,3,,,,,,,,0,,,58,0
15760,note_on,0,0,3,,,,,,,,0,,,55,72
15760,note_on,8,0,3,,,,,,,,0,,,52,72
15792,note_on,32,0,3,,,,,,,,0,,,55,0
15792,note_on,0,0,3,,,,,,,,0,,,52,0
15800,note_on,8,0,3,,,,,,,,0,,,49,72
15816,note_on,96,0,1,,,,,,,,0,,,88,0
15816,note_on,0,0,1,,,,,,,,0,,,100,0
15832,note_on,32,0,3,,,,,,,,0,,,49,0
15840,note_on,24,0,1,,,,,,,,0,,,102,80
15840,note_on,8,0,3,,,,,,,,0,,,47,72
15840,note_on,0,0,1,,,,,,,,0,,,90,80
15849,control_change,473,0,4,,,,,,,,0,64,0,,
15860,control_change,11,0,4,,,,,,,,0,64,127,,
15872,note_on,32,0,3,,,,,,,,0,,,47,0
15880,note_on,0,0,3,,,,,,,,0,,,51,72
15880,note_on,8,0,3,,,,,,,,0,,,54,72
15912,note_on,0,0,3,,,,,,,,0,,,54,0
15912,note_on,32,0,3,,,,,,,,0,,,51,0
15920,note_on,8,0,3,,,,,,,,0,,,60,72
15952,note_on,32,0,3,,,,,,,,0,,,60,0
15960,note_on,8,0,3,,,,,,,,0,,,59,72
15984,note_on,144,0,1,,,,,,,,0,,,90,0
15984,note_on,0,0,1,,,,,,,,0,,,102,0
15992,note_on,32,0,3,,,,,,,,0,,,59,0
16000,note_on,328,0,2,,,,,,,,0,,,63,72
16000,note_on,0,0,2,,,,,,,,0,,,66,72
16020,note_on,0,0,1,,,,,,,,0,,,87,80
16020,note_on,36,0,1,,,,,,,,0,,,99,80
16032,note_on,0,0,2,,,,,,,,0,,,63,0
16032,note_on,32,0,2,,,,,,,,0,,,66,0
16040,note_on,8,0,2,,,,,,,,0,,,72,72
16068,note_on,48,0,1,,,,,,,,0,,,87,0
16068,note_on,0,0,1,,,,,,,,0,,,99,0
16072,note_on,32,0,2,,,,,,,,0,,,72,0
16080,note_on,0,0,1,,,,,,,,0,,,83,80
16080,note_on,8,0,2,,,,,,,,0,,,71,72
16080,note_on,12,0,1,,,,,,,,0,,,95,80
16112,note_on,32,0,2,,,,,,,,0,,,71,0
16120,note_on,0,0,2,,,,,,,,0,,,66,72
16120,note_on,8,0,2,,,,,,,,0,,,63,72
16152,note_on,0,0,2,,,,,,,,0,,,63,0
16152,note_on,32,0,2,,,,,,,,0,,,66,0
16160,note_on,168,0,3,,,,,,,,0,,,60,72
16192,note_on,32,0,3,,,,,,,,0,,,60,0
16200,note_on,8,0,3,,,,,,,,0,,,59,72
16232,note_on,32,0,3,,,,,,,,0,,,59,0
16240,note_on,0,0,3,,,,,,,,0,,,54,72
16240,note_on,8,0,3,,,,,,,,0,,,51,72
16272,note_on,192,0,1,,,,,,,,0,,,83,0
16272,note_on,32,0,3,,,,,,,,0,,,54,0
16272,note_on,0,0,1,,,,,,,,0,,,95,0
16272,note_on,0,0,3,,,,,,,,0,,,51,0
16280,note_on,8,0,3,,,,,,,,0,,,48,72
16312,note_on,32,0,3,,,,,,,,0,,,48,0
16320,note_on,8,0,3,,,,,,,,0,,,47,72
16320,note_on,48,0,1,,,,,,,,0,,,75,80
16320,control_change,460,0,4,,,,,,,,0,64,0,,
16320,note_on,0,0,1,,,,,,,,0,,,87,80
16341,control_change,21,0,4,,,,,,,,0,64,127,,
16352,note_on,32,0,3,,,,,,,,0,,,47,0
16360,note_on,0,0,3,,,,,,,,0,,,57,72
16360,note_on,8,0,3,,,,,,,,0,,,54,72
16392,note_on,32,0,3,,,,,,,,0,,,57,0
16392,note_on,0,0,3,,,,,,,,0,,,54,0
16400,note_on,8,0,3,,,,,,,,0,,,60,72
16432,note_on,32,0,3,,,,,,,,0,,,60,0
16440,note_on,8,0,3,,,,,,,,0,,,59,72
16472,note_on,32,0,3,,,,,,,,0,,,59,0
16480,note_on,0,0,2,,,,,,,,0,,,69,72
16480,note_on,328,0,2,,,,,,,,0,,,66,72
16512,note_on,0,0,1,,,,,,,,0,,,75,0
16512,note_on,0,0,2,,,,,,,,0,,,66,0
16512,note_on,192,0,1,,,,,,,,0,,,87,0
16512,note_on,32,0,2,,,,,,,,0,,,69,0
16520,note_on,8,0,2,,,,,,,,0,,,72,72
16552,note_on,32,0,2,,,,,,,,0,,,72,0
16560,note_on,0,0,1,,,,,,,,0,,,75,80
16560,note_on,48,0,1,,,,,,,,0,,,87,80
16560,note_on,8,0,2,,,,,,,,0,,,72,72
16592,note_on,32,0,2,,,,,,,,0,,,72,0
16600,note_on,8,0,2,,,,,,,,0,,,66,72
16600,note_on,0,0,2,,,,,,,,0,,,69,72
16632,note_on,0,0,2,,,,,,,,0,,,66,0
16632,note_on,32,0,2,,,,,,,,0,,,69,0
16640,note_on,168,0,3,,,,,,,,0,,,60,72
16672,note_on,32,0,3,,,,,,,,0,,,60,0
16680,note_on,8,0,3,,,,,,,,0,,,59,72
16704,note_on,144,0,1,,,,,,,,0,,,75,0
16704,note_on,0,0,1,,,,,,,,0,,,87,0
16712,note_on,32,0,3,,,,,,,,0,,,59,0
16720,note_on,0,0,3,,,,,,,,0,,,57,72
16720,note_on,8,0,3,,,,,,,,0,,,54,72
16740,note_on,36,0,1,,,,,,,,0,,,75,80
16740,note_on,0,0,1,,,,,,,,0,,,87,80
16752,note_on,0,0,3,,,,,,,,0,,,54,0
16752,note_on,32,0,3,,,,,,,,0,,,57,0
16760,note_on,8,0,3,,,,,,,,0,,,48,72
16788,note_on,0,0,1,,,,,,,,0,,,75,0
16788,note_on,48,0,1,,,,,,,,0,,,87,0
16792,note_on,32,0,3,,,,,,,,0,,,48,0
16800,note_on,12,0,1,,,,,,,,0,,,87,80
16800,note_on,8,0,3,,,,,,,,0,,,47,72
16800,note_on,0,0,1,,,,,,,,0,,,75,80
16800,control_change,459,0,4,,,,,,,,0,64,0,,
16822,control_change,22,0,4,,,,,,,,0,64,127,,
16832,note_on,32,0,3,,,,,,,,0,,,47,0
16840,note_on,0,0,3,,,,,,,,0,,,56,72
16840,note_on,8,0,3,,,,,,,,0,,,53,72
16872,note_on,0,0,3,,,,,,,,0,,,53,0
16872,note_on,32,0,3,,,,,,,,0,,,56,0
16880,note_on,8,0,3,,,,,,,,0,,,60,72
16912,note_on,32,0,3,,,,,,,,0,,,60,0
16920,note_on,8,0,3,,,,,,,,0,,,59,72
16952,note_on,32,0,3,,,,,,,,0,,,59,0
16960,note_on,328,0,2,,,,,,,,0,,,68,72
16960,note_on,0,0,2,,,,,,,,0,,,65,72
16992,note_on,192,0,1,,,,,,,,0,,,75,0
16992,note_on,0,0,2,,,,,,,,0,,,68,0
16992,note_on,32,0,2,,,,,,,,0,,,65,0
16992,note_on,0,0,1,,,,,,,,0,,,87,0
17000,note_on,8,0,2,,,,,,,,0,,,72,72
17032,note_on,32,0,2,,,,,,,,0,,,72,0
17040,note_on,48,0,1,,,,,,,,0,,,74,80
17040,note_on,8,0,2,,,,,,,,0,,,71,72
17040,note_on,0,0,1,,,,,,,,0,,,86,80
17072,note_on,32,0,2,,,,,,,,0,,,71,0
17080,note_on,0,0,2,,,,,,,,0,,,65,72
17080,note_on,8,0,2,,,,,,,,0,,,68,72
17112,note_on,0,0,2,,,,,,,,0,,,68,0
17112,note_on,32,0,2,,,,,,,,0,,,65,0
17120,note_on,168,0,3,,,,,,,,0,,,60,72
17152,note_on,32,0,3,,,,,,,,0,,,60,0
17160,note_on,8,0,3,,,,,,,,0,,,59,72
17192,note_on,32,0,3,,,,,,,,0,,,59,0
17200,note_on,0,0,3,,,,,,,,0,,,56,72
17200,note_on,8,0,3,,,,,,,,0,,,53,72
17232,note_on,32,0,3,,,,,,,,0,,,56,0
17232,note_on,0,0,3,,,,,,,,0,,,53,0
17240,note_on,8,0,3,,,,,,,,0,,,47,72
17272,note_on,32,0,3,,,,,,,,0,,,47,0
17280,note_on,8,0,3,,,,,,,,0,,,46,80
17280,control_change,458,0,4,,,,,,,,0,64,0,,
17290,control_change,10,0,4,,,,,,,,0,64,127,,
17312,note_on,32,0,3,,,,,,,,0,,,46,0
17320,note_on,0,0,3,,,,,,,,0,,,53,80
17320,note_on,8,0,3,,,,,,,,0,,,56,80
17352,note_on,0,0,3,,,,,,,,0,,,56,0
17352,note_on,32,0,3,,,,,,,,0,,,53,0
17360,note_on,8,0,3,,,,,,,,0,,,58,80
17376,note_on,336,0,1,,,,,,,,0,,,86,0
17376,note_on,0,0,1,,,,,,,,0,,,74,0
17392,note_on,32,0,3,,,,,,,,0,,,58,0
17400,note_on,24,0,1,,,,,,,,0,,,74,80
17400,note_on,0,0,1,,,,,,,,0,,,86,80
17400,note_on,8,0,3,,,,,,,,0,,,58,80
17432,note_on,32,0,3,,,,,,,,0,,,58,0
17440,note_on,8,0,3,,,,,,,,0,,,68,80
17440,note_on,0,0,3,,,,,,,,0,,,65,80
17472,note_on,32,0,3,,,,,,,,0,,,65,0
17472,note_on,0,0,3,,,,,,,,0,,,68,0
17480,note_on,8,0,3,,,,,,,,0,,,70,80
17496,note_on,96,0,1,,,,,,,,0,,,86,0
17496,note_on,0,0,1,,,,,,,,0,,,74,0
17512,note_on,32,0,3,,,,,,,,0,,,70,0
17520,note_on,0,0,1,,,,,,,,0,,,87,80
17520,note_on,24,0,1,,,,,,,,0,,,75,80
17520,note_on,8,0,3,,,,,,,,0,,,44,80
17552,note_on,32,0,3,,,,,,,,0,,,44,0
17560,note_on,8,0,3,,,,,,,,0,,,53,80
17560,note_on,0,0,3,,,,,,,,0,,,50,80
17592,note_on,32,0,3,,,,,,,,0,,,50,0
17592,note_on,0,0,3,,,,,,,,0,,,53,0
17600,note_on,8,0,3,,,,,,,,0,,,58,80
17616,note_on,96,0,1,,,,,,,,0,,,87,0
17616,note_on,0,0,1,,,,,,,,0,,,75,0
17632,note_on,32,0,3,,,,,,,,0,,,58,0
17640,note_on,8,0,3,,,,,,,,0,,,56,80
17640,note_on,24,0,1,,,,,,,,0,,,77,80
17640,note_on,0,0,1,,,,,,,,0,,,89,80
17672,note_on,32,0,3,,,,,,,,0,,,56,0
17680,note_on,8,0,3,,,,,,,,0,,,62,80
17680,note_on,0,0,3,,,,,,,,0,,,58,80
17712,note_on,0,0,3,,,,,,,,0,,,62,0
17712,note_on,32,0,3,,,,,,,,0,,,58,0
17720,note_on,8,0,3,,,,,,,,0,,,70,80
17736,note_on,0,0,1,,,,,,,,0,,,77,0
17736,note_on,96,0,1,,,,,,,,0,,,89,0
17752,note_on,32,0,3,,,,,,,,0,,,70,0
17760,note_on,8,0,3,,,,,,,,0,,,42,80
17760,note_on,24,0,1,,,,,,,,0,,,92,80
17760,note_on,0,0,1,,,,,,,,0,,,80,80
17770,control_change,480,0,4,,,,,,,,0,64,0,,
17774,control_change,4,0,4,,,,,,,,0,64,127,,
17792,note_on,32,0,3,,,,,,,,0,,,42,0
17800,note_on,8,0,3,,,,,,,,0,,,51,80
17832,note_on,32,0,3,,,,,,,,0,,,51,0
17840,note_on,8,0,3,,,,,,,,0,,,58,80
17856,note_on,96,0,1,,,,,,,,0,,,80,0
17856,note_on,0,0,1,,,,,,,,0,,,92,0
17872,note_on,32,0,3,,,,,,,,0,,,58,0
17880,note_on,8,0,3,,,,,,,,0,,,46,80
17880,note_on,24,0,1,,,,,,,,0,,,90,80
17880,note_on,0,0,1,,,,,,,,0,,,78,80
17912,note_on,32,0,3,,,,,,,,0,,,46,0
17920,note_on,8,0,3,,,,,,,,0,,,54,80
17952,note_on,32,0,3,,,,,,,,0,,,54,0
17960,note_on,8,0,3,,,,,,,,0,,,63,80
17992,note_on,32,0,3,,,,,,,,0,,,63,0
18000,note_on,8,0,3,,,,,,,,0,,,44,80
18032,note_on,32,0,3,,,,,,,,0,,,44,0
18040,note_on,8,0,3,,,,,,,,0,,,52,80
18072,note_on,32,0,3,,,,,,,,0,,,52,0
18072,note_on,192,0,1,,,,,,,,0,,,78,0
18072,note_on,0,0,1,,,,,,,,0,,,90,0
18080,note_on,8,0,3,,,,,,,,0,,,59,80
18112,note_on,32,0,3,,,,,,,,0,,,59,0
18120,note_on,48,0,1,,,,,,,,0,,,88,80
18120,note_on,8,0,3,,,,,,,,0,,,47,80
18120,note_on,0,0,1,,,,,,,,0,,,76,80
18152,note_on,32,0,3,,,,,,,,0,,,47,0
18160,note_on,8,0,3,,,,,,,,0,,,56,80
18192,note_on,32,0,3,,,,,,,,0,,,56,0
18200,note_on,8,0,3,,,,,,,,0,,,64,80
18232,note_on,32,0,3,,,,,,,,0,,,64,0
18240,note_on,8,0,3,,,,,,,,0,,,46,80
18240,control_change,466,0,4,,,,,,,,0,64,0,,
18256,control_change,16,0,4,,,,,,,,0,64,127,,
18272,note_on,32,0,3,,,,,,,,0,,,46,0
18280,note_on,8,0,3,,,,,,,,0,,,54,80
18312,note_on,32,0,3,,,,,,,,0,,,54,0
18320,note_on,8,0,3,,,,,,,,0,,,63,80
18336,note_on,216,0,1,,,,,,,,0,,,76,0
18336,note_on,0,0,1,,,,,,,,0,,,88,0
18352,note_on,32,0,3,,,,,,,,0,,,63,0
18360,note_on,8,0,3,,,,,,,,0,,,51,80
18360,note_on,24,0,1,,,,,,,,0,,,87,80
18360,note_on,0,0,1,,,,,,,,0,,,75,80
18392,note_on,32,0,3,,,,,,,,0,,,51,0
18400,note_on,8,0,3,,,,,,,,0,,,58,80
18432,note_on,32,0,3,,,,,,,,0,,,58,0
18440,note_on,8,0,3,,,,,,,,0,,,66,80
18472,note_on,32,0,3,,,,,,,,0,,,66,0
18480,note_on,8,0,3,,,,,,,,0,,,46,80
18504,note_on,0,0,1,,,,,,,,0,,,87,0
18504,note_on,144,0,1,,,,,,,,0,,,75,0
18512,note_on,32,0,3,,,,,,,,0,,,46,0
18520,note_on,8,0,3,,,,,,,,0,,,56,80
18520,note_on,0,0,3,,,,,,,,0,,,53,80
18540,note_on,0,0,1,,,,,,,,0,,,74,80
18540,note_on,36,0,1,,,,,,,,0,,,86,80
18552,note_on,32,0,3,,,,,,,,0,,,53,0
18552,note_on,0,0,3,,,,,,,,0,,,56,0
18560,note_on,8,0,3,,,,,,,,0,,,62,80
18588,note_on,48,0,1,,,,,,,,0,,,74,0
18588,note_on,0,0,1,,,,,,,,0,,,86,0
18592,note_on,32,0,3,,,,,,,,0,,,62,0
18600,note_on,12,0,1,,,,,,,,0,,,75,80
18600,note_on,8,0,3,,,,,,,,0,,,50,80
18600,note_on,0,0,1,,,,,,,,0,,,87,80
18632,note_on,32,0,3,,,,,,,,0,,,50,0
18640,note_on,8,0,3,,,,,,,,0,,,58,80
18640,note_on,0,0,3,,,,,,,,0,,,56,80
18648,note_on,0,0,1,,,,,,,,0,,,75,0
18648,note_on,48,0,1,,,,,,,,0,,,87,0
18660,note_on,12,0,1,,,,,,,,0,,,77,80
18660,note_on,0,0,1,,,,,,,,0,,,89,80
18672,note_on,32,0,3,,,,,,,,0,,,56,0
18672,note_on,0,0,3,,,,,,,,0,,,58,0
18680,note_on,8,0,3,,,,,,,,0,,,65,80
18708,note_on,0,0,1,,,,,,,,0,,,77,0
18708,note_on,48,0,1,,,,,,,,0,,,89,0
18712,note_on,32,0,3,,,,,,,,0,,,65,0
18718,set_tempo,3848,1,0,,,,,,624480,,,,,,
18720,note_on,0,0,1,,,,,,,,0,,,92,80
18720,note_on,12,0,1,,,,,,,,0,,,80,80
18720,note_on,8,0,3,,,,,,,,0,,,42,80
18720,control_change,464,0,4,,,,,,,,0,64,0,,
18744,control_change,24,0,4,,,,,,,,0,64,127,,
18752,note_on,32,0,3,,,,,,,,0,,,42,0
18760,note_on,8,0,3,,,,,,,,0,,,51,80
18784,note_on,64,0,1,,,,,,,,0,,,92,0
18784,note_on,0,0,1,,,,,,,,0,,,80,0
18792,note_on,32,0,3,,,,,,,,0,,,51,0
18800,note_on,8,0,3,,,,,,,,0,,,58,80
18800,note_on,16,0,1,,,,,,,,0,,,78,80
18800,note_on,0,0,1,,,,,,,,0,,,90,80
18827,set_tempo,109,1,0,,,,,,619707,,,,,,
18832,note_on,32,0,3,,,,,,,,0,,,58,0
18840,note_on,8,0,3,,,,,,,,0,,,46,80
18864,note_on,0,0,1,,,,,,,,0,,,78,0
18864,note_on,64,0,1,,,,,,,,0,,,90,0
18872,note_on,32,0,3,,,,,,,,0,,,46,0
18880,note_on,16,0,1,,,,,,,,0,,,83,80
18880,note_on,0,0,1,,,,,,,,0,,,95,80
18880,note_on,8,0,3,,,,,,,,0,,,54,80
18912,note_on,32,0,3,,,,,,,,0,,,54,0
18920,note_on,8,0,3,,,,,,,,0,,,63,80
18932,set_tempo,105,1,0,,,,,,615006,,,,,,
18952,note_on,32,0,3,,,,,,,,0,,,63,0
18960,note_on,8,0,3,,,,,,,,0,,,44,80
18992,note_on,32,0,3,,,,,,,,0,,,44,0
19000,note_on,8,0,3,,,,,,,,0,,,52,80
19024,note_on,0,0,1,,,,,,,,0,,,83,0
19024,note_on,144,0,1,,,,,,,,0,,,95,0
19032,note_on,32,0,3,,,,,,,,0,,,52,0
19036,set_tempo,104,1,0,,,,,,610376,,,,,,
19040,note_on,16,0,1,,,,,,,,0,,,76,80
19040,note_on,0,0,1,,,,,,,,0,,,88,80
19040,note_on,8,0,3,,,,,,,,0,,,59,80
19072,note_on,32,0,3,,,,,,,,0,,,59,0
19080,note_on,8,0,3,,,,,,,,0,,,47,80
19104,note_on,0,0,1,,,,,,,,0,,,76,0
19104,note_on,64,0,1,,,,,,,,0,,,88,0
19112,note_on,32,0,3,,,,,,,,0,,,47,0
19120,note_on,16,0,1,,,,,,,,0,,,95,80
19120,note_on,0,0,1,,,,,,,,0,,,83,80
19120,note_on,8,0,3,,,,,,,,0,,,56,80
19141,set_tempo,105,1,0,,,,,,605816,,,,,,
19152,note_on,32,0,3,,,,,,,,0,,,56,0
19160,note_on,8,0,3,,,,,,,,0,,,64,80
19192,note_on,32,0,3,,,,,,,,0,,,64,0
19200,note_on,8,0,3,,,,,,,,0,,,46,80
19206,control_change,462,0,4,,,,,,,,0,64,0,,
19224,control_change,18,0,4,,,,,,,,0,64,127,,
19232,note_on,32,0,3,,,,,,,,0,,,46,0
19240,note_on,8,0,3,,,,,,,,0,,,54,80
19250,set_tempo,109,1,0,,,,,,601323,,,,,,
19264,note_on,0,0,1,,,,,,,,0,,,95,0
19264,note_on,144,0,1,,,,,,,,0,,,83,0
19272,note_on,32,0,3,,,,,,,,0,,,54,0
19280,note_on,8,0,3,,,,,,,,0,,,63,80
19280,note_on,0,0,1,,,,,,,,0,,,75,80
19280,note_on,16,0,1,,,,,,,,0,,,87,80
19312,note_on,32,0,3,,,,,,,,0,,,63,0
19320,note_on,8,0,3,,,,,,,,0,,,51,80
19344,note_on,0,0,1,,,,,,,,0,,,87,0
19344,note_on,64,0,1,,,,,,,,0,,,75,0
19352,note_on,32,0,3,,,,,,,,0,,,51,0
19355,set_tempo,105,1,0,,,,,,596896,,,,,,
19360,note_on,0,0,1,,,,,,,,0,,,95,80
19360,note_on,16,0,1,,,,,,,,0,,,83,80
19360,note_on,8,0,3,,,,,,,,0,,,58,80
19392,note_on,32,0,3,,,,,,,,0,,,58,0
19400,note_on,8,0,3,,,,,,,,0,,,66,80
19432,note_on,32,0,3,,,,,,,,0,,,66,0
19440,note_on,8,0,3,,,,,,,,0,,,46,80
19460,set_tempo,105,1,0,,,,,,592534,,,,,,
19472,note_on,32,0,3,,,,,,,,0,,,46,0
19480,note_on,0,0,3,,,,,,,,0,,,53,80
19480,note_on,8,0,3,,,,,,,,0,,,56,80
19488,note_on,0,0,1,,,,,,,,0,,,83,0
19488,note_on,128,0,1,,,,,,,,0,,,95,0
19500,note_on,0,0,1,,,,,,,,0,,,86,80
19500,note_on,12,0,1,,,,,,,,0,,,74,80
19512,note_on,0,0,3,,,,,,,,0,,,56,0
19512,note_on,32,0,3,,,,,,,,0,,,53,0
19520,note_on,8,0,3,,,,,,,,0,,,62,80
19548,note_on,48,0,1,,,,,,,,0,,,86,0
19548,note_on,0,0,1,,,,,,,,0,,,74,0
19552,note_on,32,0,3,,,,,,,,0,,,62,0
19560,note_on,12,0,1,,,,,,,,0,,,95,80
19560,note_on,8,0,3,,,,,,,,0,,,50,80
19560,note_on,0,0,1,,,,,,,,0,,,83,80
19564,set_tempo,104,1,0,,,,,,588235,,,,,,
19592,note_on,32,0,3,,,,,,,,0,,,50,0
19600,note_on,0,0,3,,,,,,,,0,,,58,80
19600,note_on,8,0,3,,,,,,,,0,,,56,80
19608,note_on,0,0,1,,,,,,,,0,,,95,0
19608,note_on,48,0,1,,,,,,,,0,,,83,0
19620,note_on,12,0,1,,,,,,,,0,,,82,80
19620,note_on,0,0,1,,,,,,,,0,,,94,80
19632,note_on,32,0,3,,,,,,,,0,,,58,0
19632,note_on,0,0,3,,,,,,,,0,,,56,0
19640,note_on,8,0,3,,,,,,,,0,,,65,80
19656,note_on,16,0,3,,,,,,,,0,,,65,0
19660,note_on,4,0,3,,,,,,,,0,,,51,80
19668,note_on,0,0,1,,,,,,,,0,,,82,0
19668,note_on,48,0,1,,,,,,,,0,,,94,0
19669,set_tempo,105,1,0,,,,,,583998,,,,,,
19670,note_on,10,0,3,,,,,,,,0,,,54,80
19674,set_tempo,5,1,0,,,,,,579822,,,,,,
19680,note_on,0,0,1,,,,,,,,0,,,75,80
19680,note_on,10,0,3,,,,,,,,0,,,58,80
19680,note_on,12,0,1,,,,,,,,0,,,87,80
19680,control_change,456,0,4,,,,,,,,0,64,0,,
19690,note_on,10,0,3,,,,,,,,0,,,63,80
19776,note_on,96,0,1,,,,,,,,0,,,75,0
19776,note_on,0,0,1,,,,,,,,0,,,87,0
19784,note_on,0,0,3,,,,,,,,0,,,51,0
19784,note_on,0,0,3,,,,,,,,0,,,54,0
19784,note_on,94,0,3,,,,,,,,0,,,63,0
19784,note_on,0,0,3,,,,,,,,0,,,58,0
19791,control_change,111,0,4,,,,,,,,0,64,127,,
19800,note_on,0,0,2,,,,,,,,0,,,75,80
19800,note_on,24,0,1,,,,,,,,0,,,84,80
19800,note_on,0,0,1,,,,,,,,0,,,81,80
19800,note_on,2688,0,2,,,,,,,,0,,,90,80
19832,note_on,0,0,2,,,,,,,,0,,,90,0
19832,note_on,32,0,2,,,,,,,,0,,,75,0
19840,note_on,0,0,2,,,,,,,,0,,,77,80
19840,note_on,8,0,2,,,,,,,,0,,,92,80
19872,note_on,32,0,2,,,,,,,,0,,,77,0
19872,note_on,0,0,2,,,,,,,,0,,,92,0
19880,note_on,0,0,2,,,,,,,,0,,,75,80
19880,note_on,8,0,2,,,,,,,,0,,,90,80
19896,note_on,0,0,1,,,,,,,,0,,,84,0
19896,note_on,96,0,1,,,,,,,,0,,,81,0
19912,note_on,0,0,2,,,,,,,,0,,,90,0
19912,note_on,32,0,2,,,,,,,,0,,,75,0
19920,note_on,0,0,1,,,,,,,,0,,,81,80
19920,note_on,0,0,2,,,,,,,,0,,,87,80
19920,note_on,24,0,1,,,,,,,,0,,,78,80
19920,note_on,8,0,2,,,,,,,,0,,,72,80
19952,note_on,0,0,2,,,,,,,,0,,,72,0
19952,note_on,32,0,2,,,,,,,,0,,,87,0
19960,note_on,8,0,2,,,,,,,,0,,,89,80
19960,note_on,0,0,2,,,,,,,,0,,,74,80
19992,note_on,0,0,2,,,,,,,,0,,,89,0
19992,note_on,32,0,2,,,,,,,,0,,,74,0
20000,note_on,8,0,2,,,,,,,,0,,,72,80
20000,note_on,0,0,2,,,,,,,,0,,,87,80
20016,note_on,0,0,1,,,,,,,,0,,,78,0
20016,note_on,96,0,1,,,,,,,,0,,,81,0
20032,note_on,32,0,2,,,,,,,,0,,,87,0
20032,note_on,0,0,2,,,,,,,,0,,,72,0
20040,note_on,8,0,2,,,,,,,,0,,,69,80
20040,note_on,0,0,1,,,,,,,,0,,,78,80
20040,note_on,24,0,1,,,,,,,,0,,,75,80
20040,note_on,0,0,2,,,,,,,,0,,,84,80
20072,note_on,0,0,2,,,,,,,,0,,,69,0
20072,note_on,32,0,2,,,,,,,,0,,,84,0
20080,note_on,0,0,2,,,,,,,,0,,,86,80
20080,note_on,8,0,2,,,,,,,,0,,,71,80
20112,note_on,32,0,2,,,,,,,,0,,,86,0
20112,note_on,0,0,2,,,,,,,,0,,,71,0
20120,note_on,8,0,2,,,,,,,,0,,,69,80
20120,note_on,0,0,2,,,,,,,,0,,,84,80
20136,note_on,0,0,1,,,,,,,,0,,,75,0
20136,note_on,96,0,1,,,,,,,,0,,,78,0
20152,note_on,32,0,2,,,,,,,,0,,,84,0
20152,note_on,0,0,2,,,,,,,,0,,,69,0
20160,note_on,0,0,1,,,,,,,,0,,,75,80
20160,note_on,8,0,2,,,,,,,,0,,,66,80
20160,note_on,24,0,1,,,,,,,,0,,,81,80
20160,note_on,0,0,2,,,,,,,,0,,,72,80
20256,note_on,0,0,2,,,,,,,,0,,,66,0
20256,note_on,96,0,1,,,,,,,,0,,,75,0
20256,note_on,96,0,2,,,,,,,,0,,,72,0
20256,note_on,0,0,1,,,,,,,,0,,,81,0
20271,control_change,480,0,4,,,,,,,,0,64,0,,
20280,note_on,9,0,4,,,,,,,,0,,,39,70
20280,note_on,0,0,4,,,,,,,,0,,,45,70
20280,note_on,496,0,3,,,,,,,,0,,,54,70
20280,note_on,0,0,4,,,,,,,,0,,,48,70
20280,note_on,0,0,4,,,,,,,,0,,,51,70
20291,control_change,11,0,4,,,,,,,,0,64,127,,
20312,note_on,32,0,3,,,,,,,,0,,,54,0
20320,note_on,8,0,3,,,,,,,,0,,,56,73
20352,note_on,32,0,3,,,,,,,,0,,,56,0
20360,note_on,8,0,3,,,,,,,,0,,,54,76
20376,note_on,85,0,4,,,,,,,,0,,,48,0
20376,note_on,0,0,4,,,,,,,,0,,,39,0
20376,note_on,0,0,4,,,,,,,,0,,,45,0
20376,note_on,0,0,4,,,,,,,,0,,,51,0
20392,note_on,32,0,3,,,,,,,,0,,,54,0
20400,note_on,0,0,4,,,,,,,,0,,,51,79
20400,note_on,24,0,4,,,,,,,,0,,,48,79
20400,note_on,0,0,4,,,,,,,,0,,,39,79
20400,note_on,144,0,1,,,,,,,,0,,,66,79
20400,note_on,0,0,4,,,,,,,,0,,,45,79
20432,note_on,32,0,1,,,,,,,,0,,,66,0
20440,note_on,8,0,1,,,,,,,,0,,,68,83
20472,note_on,32,0,1,,,,,,,,0,,,68,0
20480,note_on,8,0,1,,,,,,,,0,,,66,86
20496,note_on,96,0,4,,,,,,,,0,,,39,0
20496,note_on,0,0,4,,,,,,,,0,,,48,0
20496,note_on,0,0,4,,,,,,,,0,,,51,0
20496,note_on,0,0,4,,,,,,,,0,,,45,0
20512,note_on,32,0,1,,,,,,,,0,,,66,0
20520,note_on,0,0,4,,,,,,,,0,,,39,89
20520,note_on,0,0,4,,,,,,,,0,,,48,89
20520,note_on,0,0,4,,,,,,,,0,,,51,89
20520,note_on,8,0,1,,,,,,,,0,,,78,89
20520,note_on,24,0,4,,,,,,,,0,,,45,89
20552,note_on,32,0,1,,,,,,,,0,,,78,0
20560,note_on,8,0,1,,,,,,,,0,,,80,92
20592,note_on,32,0,1,,,,,,,,0,,,80,0
20600,note_on,8,0,1,,,,,,,,0,,,78,95
20616,note_on,0,0,4,,,,,,,,0,,,45,0
20616,note_on,0,0,4,,,,,,,,0,,,51,0
20616,note_on,96,0,4,,,,,,,,0,,,39,0
20616,note_on,0,0,4,,,,,,,,0,,,48,0
20632,note_on,32,0,1,,,,,,,,0,,,78,0
20640,note_on,0,0,4,,,,,,,,0,,,39,80
20640,note_on,8,0,1,,,,,,,,0,,,90,100
20640,note_on,24,0,4,,,,,,,,0,,,51,80
20640,note_on,0,0,4,,,,,,,,0,,,46,80
20736,note_on,0,0,4,,,,,,,,0,,,51,0
20736,note_on,0,0,4,,,,,,,,0,,,39,0
20736,note_on,96,0,1,,,,,,,,0,,,90,0
20736,note_on,96,0,4,,,,,,,,0,,,46,0
20760,note_on,0,0,2,,,,,,,,0,,,75,80
20760,note_on,0,0,1,,,,,,,,0,,,84,80
20760,note_on,504,0,2,,,,,,,,0,,,90,80
20760,note_on,24,0,1,,,,,,,,0,,,81,80
20771,control_change,35,0,4,,,,,,,,0,64,0,,
20788,control_change,17,0,4,,,,,,,,0,64,127,,
20792,note_on,32,0,2,,,,,,,,0,,,75,0
20792,note_on,0,0,2,,,,,,,,0,,,90,0
20800,note_on,8,0,2,,,,,,,,0,,,77,80
20800,note_on,0,0,2,,,,,,,,0,,,92,80
20832,note_on,32,0,2,,,,,,,,0,,,92,0
20832,note_on,0,0,2,,,,,,,,0,,,77,0
20840,note_on,0,0,2,,,,,,,,0,,,90,80
20840,note_on,8,0,2,,,,,,,,0,,,75,80
20856,note_on,0,0,1,,,,,,,,0,,,81,0
20856,note_on,96,0,1,,,,,,,,0,,,84,0
20872,note_on,0,0,2,,,,,,,,0,,,75,0
20872,note_on,32,0,2,,,,,,,,0,,,90,0
20880,note_on,8,0,2,,,,,,,,0,,,72,80
20880,note_on,0,0,1,,,,,,,,0,,,78,80
20880,note_on,0,0,2,,,,,,,,0,,,87,80
20880,note_on,24,0,1,,,,,,,,0,,,81,80
20912,note_on,0,0,2,,,,,,,,0,,,72,0
20912,note_on,32,0,2,,,,,,,,0,,,87,0
20920,note_on,8,0,2,,,,,,,,0,,,89,80
20920,note_on,0,0,2,,,,,,,,0,,,74,80
20952,note_on,0,0,2,,,,,,,,0,,,89,0
20952,note_on,32,0,2,,,,,,,,0,,,74,0
20960,note_on,0,0,2,,,,,,,,0,,,87,80
20960,note_on,8,0,2,,,,,,,,0,,,72,80
20976,note_on,0,0,1,,,,,,,,0,,,81,0
20976,note_on,96,0,1,,,,,,,,0,,,78,0
20992,note_on,32,0,2,,,,,,,,0,,,87,0
20992,note_on,0,0,2,,,,,,,,0,,,72,0
21000,note_on,0,0,2,,,,,,,,0,,,84,80
21000,note_on,24,0,1,,,,,,,,0,,,75,80
21000,note_on,0,0,1,,,,,,,,0,,,78,80
21000,note_on,8,0,2,,,,,,,,0,,,69,80
21032,note_on,0,0,2,,,,,,,,0,,,69,0
21032,note_on,32,0,2,,,,,,,,0,,,84,0
21040,note_on,8,0,2,,,,,,,,0,,,86,80
21040,note_on,0,0,2,,,,,,,,0,,,71,80
21072,note_on,32,0,2,,,,,,,,0,,,71,0
21072,note_on,0,0,2,,,,,,,,0,,,86,0
21080,note_on,0,0,2,,,,,,,,0,,,69,80
21080,note_on,8,0,2,,,,,,,,0,,,84,80
21096,note_on,96,0,1,,,,,,,,0,,,78,0
21096,note_on,0,0,1,,,,,,,,0,,,75,0
21112,note_on,0,0,2,,,,,,,,0,,,84,0
21112,note_on,32,0,2,,,,,,,,0,,,69,0
21120,note_on,0,0,2,,,,,,,,0,,,66,80
21120,note_on,24,0,1,,,,,,,,0,,,75,80
21120,note_on,0,0,1,,,,,,,,0,,,81,80
21120,note_on,8,0,2,,,,,,,,0,,,72,80
21216,note_on,0,0,1,,,,,,,,0,,,75,0
21216,note_on,96,0,2,,,,,,,,0,,,66,0
21216,note_on,0,0,2,,,,,,,,0,,,72,0
21216,note_on,96,0,1,,,,,,,,0,,,81,0
21240,note_on,452,0,4,,,,,,,,0,,,39,71
21240,note_on,848,0,3,,,,,,,,0,,,54,71
21240,note_on,0,0,4,,,,,,,,0,,,48,71
21240,note_on,0,0,4,,,,,,,,0,,,51,71
21240,note_on,0,0,4,,,,,,,,0,,,45,71
21268,control_change,28,0,4,,,,,,,,0,64,0,,
21272,note_on,32,0,3,,,,,,,,0,,,54,0
21280,note_on,8,0,3,,,,,,,,0,,,56,71
21312,note_on,32,0,3,,,,,,,,0,,,56,0
21320,note_on,8,0,3,,,,,,,,0,,,54,72
21336,note_on,68,0,4,,,,,,,,0,,,48,0
21336,note_on,0,0,4,,,,,,,,0,,,39,0
21336,note_on,0,0,4,,,,,,,,0,,,45,0
21336,note_on,0,0,4,,,,,,,,0,,,51,0
21352,note_on,32,0,3,,,,,,,,0,,,54,0
21360,note_on,0,0,4,,,,,,,,0,,,39,73
21360,note_on,0,0,4,,,,,,,,0,,,51,73
21360,note_on,0,0,4,,,,,,,,0,,,48,73
21360,note_on,144,0,1,,,,,,,,0,,,66,73
21360,note_on,24,0,4,,,,,,,,0,,,45,73
21392,note_on,32,0,1,,,,,,,,0,,,66,0
21400,note_on,8,0,1,,,,,,,,0,,,68,73
21432,note_on,32,0,1,,,,,,,,0,,,68,0
21440,note_on,8,0,1,,,,,,,,0,,,66,74
21456,note_on,0,0,4,,,,,,,,0,,,39,0
21456,note_on,0,0,4,,,,,,,,0,,,45,0
21456,note_on,0,0,4,,,,,,,,0,,,48,0
21456,note_on,96,0,4,,,,,,,,0,,,51,0
21472,note_on,32,0,1,,,,,,,,0,,,66,0
21480,note_on,24,0,4,,,,,,,,0,,,48,75
21480,note_on,8,0,1,,,,,,,,0,,,78,75
21480,note_on,0,0,4,,,,,,,,0,,,51,75
21480,note_on,0,0,4,,,,,,,,0,,,45,75
21480,note_on,0,0,4,,,,,,,,0,,,39,75
21512,note_on,32,0,1,,,,,,,,0,,,78,0
21520,note_on,8,0,1,,,,,,,,0,,,80,75
21552,note_on,32,0,1,,,,,,,,0,,,80,0
21560,note_on,8,0,1,,,,,,,,0,,,78,76
21576,note_on,0,0,4,,,,,,,,0,,,48,0
21576,note_on,0,0,4,,,,,,,,0,,,45,0
21576,note_on,0,0,4,,,,,,,,0,,,39,0
21576,note_on,96,0,4,,,,,,,,0,,,51,0
21592,note_on,32,0,1,,,,,,,,0,,,78,0
21600,note_on,0,0,4,,,,,,,,0,,,46,80
21600,note_on,8,0,1,,,,,,,,0,,,90,80
21600,note_on,24,0,4,,,,,,,,0,,,51,80
21600,note_on,0,0,4,,,,,,,,0,,,42,80
21600,control_change,0,0,4,,,,,,,,0,64,127,,
21600,note_on,0,0,4,,,,,,,,0,,,39,80
21632,note_on,32,0,1,,,,,,,,0,,,90,0
21640,note_on,8,0,1,,,,,,,,0,,,92,80
21672,note_on,32,0,1,,,,,,,,0,,,92,0
21680,note_on,8,0,1,,,,,,,,0,,,90,80
21696,note_on,0,0,4,,,,,,,,0,,,46,0
21696,note_on,0,0,4,,,,,,,,0,,,42,0
21696,note_on,0,0,4,,,,,,,,0,,,51,0
21696,note_on,96,0,4,,,,,,,,0,,,39,0
21712,note_on,32,0,1,,,,,,,,0,,,90,0
21720,note_on,8,0,1,,,,,,,,0,,,78,80
21752,note_on,32,0,1,,,,,,,,0,,,78,0
21760,note_on,8,0,1,,,,,,,,0,,,80,80
21792,note_on,32,0,1,,,,,,,,0,,,80,0
21800,note_on,8,0,1,,,,,,,,0,,,78,80
21832,note_on,32,0,1,,,,,,,,0,,,78,0
21833,control_change,137,0,4,,,,,,,,0,64,0,,
21840,note_on,7,0,4,,,,,,,,0,,,37,80
21840,note_on,0,0,4,,,,,,,,0,,,49,80
21840,note_on,0,0,4,,,,,,,,0,,,47,80
21840,note_on,8,0,1,,,,,,,,0,,,92,80
21840,note_on,0,0,4,,,,,,,,0,,,41,80
21861,control_change,21,0,4,,,,,,,,0,64,127,,
21872,note_on,32,0,1,,,,,,,,0,,,92,0
21880,note_on,8,0,1,,,,,,,,0,,,94,80
21912,note_on,32,0,1,,,,,,,,0,,,94,0
21920,note_on,8,0,1,,,,,,,,0,,,92,80
21936,note_on,0,0,4,,,,,,,,0,,,37,0
21936,note_on,0,0,4,,,,,,,,0,,,41,0
21936,note_on,75,0,4,,,,,,,,0,,,47,0
21936,note_on,0,0,4,,,,,,,,0,,,49,0
21952,note_on,32,0,1,,,,,,,,0,,,92,0
21960,note_on,8,0,1,,,,,,,,0,,,80,80
21992,note_on,32,0,1,,,,,,,,0,,,80,0
22000,note_on,8,0,1,,,,,,,,0,,,82,80
22032,note_on,32,0,1,,,,,,,,0,,,82,0
22040,note_on,8,0,1,,,,,,,,0,,,80,80
22072,note_on,32,0,1,,,,,,,,0,,,80,0
22080,note_on,0,0,4,,,,,,,,0,,,49,80
22080,control_change,0,0,4,,,,,,,,0,64,127,,
22080,note_on,8,0,1,,,,,,,,0,,,95,80
22080,note_on,0,0,4,,,,,,,,0,,,46,80
22080,control_change,144,0,4,,,,,,,,0,64,0,,
22080,note_on,0,0,4,,,,,,,,0,,,54,80
22080,note_on,0,0,4,,,,,,,,0,,,42,80
22112,note_on,32,0,1,,,,,,,,0,,,95,0
22120,note_on,8,0,1,,,,,,,,0,,,94,80
22152,note_on,32,0,1,,,,,,,,0,,,94,0
22160,note_on,8,0,1,,,,,,,,0,,,82,80
22176,note_on,0,0,4,,,,,,,,0,,,49,0
22176,note_on,0,0,4,,,,,,,,0,,,54,0
22176,note_on,96,0,4,,,,,,,,0,,,46,0
22176,note_on,0,0,4,,,,,,,,0,,,42,0
22192,note_on,32,0,1,,,,,,,,0,,,82,0
22200,note_on,0,0,4,,,,,,,,0,,,56,80
22200,note_on,8,0,1,,,,,,,,0,,,94,80
22200,note_on,0,0,4,,,,,,,,0,,,47,80
22200,note_on,0,0,4,,,,,,,,0,,,53,80
22200,note_on,24,0,4,,,,,,,,0,,,44,80
22232,note_on,32,0,1,,,,,,,,0,,,94,0
22240,note_on,8,0,1,,,,,,,,0,,,92,80
22272,note_on,32,0,1,,,,,,,,0,,,92,0
22280,note_on,8,0,1,,,,,,,,0,,,80,80
22296,note_on,0,0,4,,,,,,,,0,,,47,0
22296,note_on,96,0,4,,,,,,,,0,,,53,0
22296,note_on,0,0,4,,,,,,,,0,,,56,0
22296,note_on,0,0,4,,,,,,,,0,,,44,0
22312,note_on,32,0,1,,,,,,,,0,,,80,0
22320,note_on,8,0,1,,,,,,,,0,,,92,80
22320,note_on,0,0,4,,,,,,,,0,,,58,80
22320,note_on,0,0,4,,,,,,,,0,,,51,80
22320,note_on,0,0,4,,,,,,,,0,,,46,80
22320,note_on,24,0,4,,,,,,,,0,,,54,80
22352,note_on,32,0,1,,,,,,,,0,,,92,0
22360,note_on,8,0,1,,,,,,,,0,,,90,80
22392,note_on,32,0,1,,,,,,,,0,,,90,0
22400,note_on,8,0,1,,,,,,,,0,,,78,80
22416,note_on,96,0,4,,,,,,,,0,,,46,0
22416,note_on,0,0,4,,,,,,,,0,,,54,0
22416,note_on,0,0,4,,,,,,,,0,,,51,0
22416,note_on,0,0,4,,,,,,,,0,,,58,0
22432,note_on,32,0,1,,,,,,,,0,,,78,0
22440,note_on,0,0,4,,,,,,,,0,,,56,80
22440,note_on,0,0,4,,,,,,,,0,,,46,80
22440,note_on,0,0,4,,,,,,,,0,,,50,80
22440,note_on,24,0,4,,,,,,,,0,,,58,80
22440,note_on,8,0,1,,,,,,,,0,,,90,80
22472,note_on,32,0,1,,,,,,,,0,,,90,0
22480,note_on,8,0,1,,,,,,,,0,,,89,80
22512,note_on,32,0,1,,,,,,,,0,,,89,0
22520,note_on,8,0,1,,,,,,,,0,,,78,80
22536,note_on,0,0,4,,,,,,,,0,,,46,0
22536,note_on,96,0,4,,,,,,,,0,,,56,0
22536,note_on,0,0,4,,,,,,,,0,,,50,0
22536,note_on,16,0,1,,,,,,,,0,,,78,0
22536,note_on,0,0,4,,,,,,,,0,,,58,0
22540,note_on,4,0,1,,,,,,,,0,,,75,80
22560,note_on,20,0,1,,,,,,,,0,,,87,80
22560,note_on,0,0,4,,,,,,,,0,,,51,80
22560,note_on,0,0,4,,,,,,,,0,,,54,80
22560,note_on,0,0,4,,,,,,,,0,,,58,80
22560,control_change,24,0,4,,,,,,,,0,64,0,,
22560,note_on,0,0,4,,,,,,,,0,,,63,80
22586,control_change,26,0,4,,,,,,,,0,64,127,,
22656,note_on,0,0,1,,,,,,,,0,,,75,0
22656,note_on,70,0,4,,,,,,,,0,,,58,0
22656,note_on,0,0,4,,,,,,,,0,,,63,0
22656,note_on,0,0,4,,,,,,,,0,,,54,0
22656,note_on,96,0,1,,,,,,,,0,,,87,0
22656,note_on,0,0,4,,,,,,,,0,,,51,0
22680,note_on,1464,0,2,,,,,,,,0,,,63,80
22680,note_on,0,0,1,,,,,,,,0,,,69,80
22680,note_on,24,0,1,,,,,,,,0,,,72,80
22680,note_on,0,0,2,,,,,,,,0,,,78,80
22712,note_on,0,0,2,,,,,,,,0,,,63,0
22712,note_on,32,0,2,,,,,,,,0,,,78,0
22720,note_on,0,0,2,,,,,,,,0,,,65,80
22720,note_on,8,0,2,,,,,,,,0,,,80,80
22752,note_on,32,0,2,,,,,,,,0,,,65,0
22752,note_on,0,0,2,,,,,,,,0,,,80,0
22760,note_on,0,0,2,,,,,,,,0,,,78,80
22760,note_on,8,0,2,,,,,,,,0,,,63,80
22776,note_on,96,0,1,,,,,,,,0,,,69,0
22776,note_on,0,0,1,,,,,,,,0,,,72,0
22792,note_on,32,0,2,,,,,,,,0,,,78,0
22792,note_on,0,0,2,,,,,,,,0,,,63,0
22800,note_on,0,0,1,,,,,,,,0,,,69,80
22800,note_on,8,0,2,,,,,,,,0,,,75,80
22800,note_on,24,0,1,,,,,,,,0,,,66,80
22800,note_on,0,0,2,,,,,,,,0,,,60,80
22832,note_on,0,0,2,,,,,,,,0,,,75,0
22832,note_on,32,0,2,,,,,,,,0,,,60,0
22840,note_on,8,0,2,,,,,,,,0,,,62,80
22840,note_on,0,0,2,,,,,,,,0,,,77,80
22872,note_on,32,0,2,,,,,,,,0,,,77,0
22872,note_on,0,0,2,,,,,,,,0,,,62,0
22880,note_on,0,0,2,,,,,,,,0,,,60,80
22880,note_on,8,0,2,,,,,,,,0,,,75,80
22896,note_on,0,0,1,,,,,,,,0,,,66,0
22896,note_on,96,0,1,,,,,,,,0,,,69,0
22912,note_on,32,0,2,,,,,,,,0,,,60,0
22912,note_on,0,0,2,,,,,,,,0,,,75,0
22920,note_on,0,0,2,,,,,,,,0,,,72,80
22920,note_on,0,0,1,,,,,,,,0,,,63,80
22920,note_on,24,0,1,,,,,,,,0,,,66,80
22920,note_on,8,0,2,,,,,,,,0,,,57,80
22952,note_on,0,0,2,,,,,,,,0,,,57,0
22952,note_on,32,0,2,,,,,,,,0,,,72,0
22960,note_on,8,0,2,,,,,,,,0,,,59,80
22960,note_on,0,0,2,,,,,,,,0,,,74,80
22992,note_on,32,0,2,,,,,,,,0,,,74,0
22992,note_on,0,0,2,,,,,,,,0,,,59,0
23000,note_on,8,0,2,,,,,,,,0,,,72,80
23000,note_on,0,0,2,,,,,,,,0,,,57,80
23016,note_on,96,0,1,,,,,,,,0,,,63,0
23016,note_on,0,0,1,,,,,,,,0,,,66,0
23032,note_on,32,0,2,,,,,,,,0,,,57,0
23032,note_on,0,0,2,,,,,,,,0,,,72,0
23040,note_on,24,0,1,,,,,,,,0,,,63,80
23040,note_on,8,0,2,,,,,,,,0,,,60,80
23040,note_on,0,0,1,,,,,,,,0,,,69,80
23040,note_on,0,0,2,,,,,,,,0,,,54,80
23066,control_change,410,0,4,,,,,,,,0,64,0,,
23080,control_change,14,0,4,,,,,,,,0,64,127,,
23136,note_on,96,0,1,,,,,,,,0,,,69,0
23136,note_on,0,0,1,,,,,,,,0,,,63,0
23136,note_on,0,0,2,,,,,,,,0,,,60,0
23136,note_on,96,0,2,,,,,,,,0,,,54,0
23160,note_on,0,0,4,,,,,,,,0,,,39,61
23160,note_on,0,0,4,,,,,,,,0,,,45,61
23160,note_on,0,0,4,,,,,,,,0,,,48,61
23160,note_on,0,0,4,,,,,,,,0,,,51,61
23160,note_on,80,0,4,,,,,,,,0,,,42,61
23160,note_on,24,0,1,,,,,,,,0,,,63,61
23192,note_on,32,0,1,,,,,,,,0,,,63,0
23200,note_on,8,0,1,,,,,,,,0,,,65,62
23232,note_on,32,0,1,,,,,,,,0,,,65,0
23240,note_on,8,0,1,,,,,,,,0,,,63,62
23256,note_on,96,0,4,,,,,,,,0,,,51,0
23256,note_on,0,0,4,,,,,,,,0,,,39,0
23256,note_on,0,0,4,,,,,,,,0,,,42,0
23256,note_on,0,0,4,,,,,,,,0,,,45,0
23256,note_on,0,0,4,,,,,,,,0,,,48,0
23272,note_on,32,0,1,,,,,,,,0,,,63,0
23280,note_on,0,0,4,,,,,,,,0,,,51,63
23280,note_on,24,0,4,,,,,,,,0,,,39,63
23280,note_on,0,0,4,,,,,,,,0,,,42,63
23280,note_on,0,0,4,,,,,,,,0,,,45,63
23280,note_on,0,0,4,,,,,,,,0,,,48,63
23280,note_on,8,0,1,,,,,,,,0,,,75,63
23312,note_on,32,0,1,,,,,,,,0,,,75,0
23320,note_on,8,0,1,,,,,,,,0,,,77,64
23352,note_on,32,0,1,,,,,,,,0,,,77,0
23360,note_on,8,0,1,,,,,,,,0,,,75,65
23376,note_on,0,0,4,,,,,,,,0,,,39,0
23376,note_on,96,0,4,,,,,,,,0,,,51,0
23376,note_on,0,0,4,,,,,,,,0,,,45,0
23376,note_on,0,0,4,,,,,,,,0,,,48,0
23376,note_on,0,0,4,,,,,,,,0,,,42,0
23392,note_on,32,0,1,,,,,,,,0,,,75,0
23400,note_on,0,0,4,,,,,,,,0,,,51,66
23400,note_on,8,0,1,,,,,,,,0,,,87,66
23400,note_on,24,0,4,,,,,,,,0,,,42,66
23400,note_on,0,0,4,,,,,,,,0,,,39,66
23400,note_on,0,0,4,,,,,,,,0,,,48,66
23400,note_on,0,0,4,,,,,,,,0,,,45,66
23432,note_on,32,0,1,,,,,,,,0,,,87,0
23440,note_on,8,0,1,,,,,,,,0,,,89,67
23472,note_on,32,0,1,,,,,,,,0,,,89,0
23480,note_on,8,0,1,,,,,,,,0,,,87,67
23490,note_on,2138,0,3,,,,,,,,0,,,39,68
23499,note_on,0,0,4,,,,,,,,0,,,48,0
23499,note_on,0,0,4,,,,,,,,0,,,39,0
23499,note_on,0,0,4,,,,,,,,0,,,51,0
23499,note_on,0,0,4,,,,,,,,0,,,42,0
23499,note_on,99,0,4,,,,,,,,0,,,45,0
23500,note_on,10,0,3,,,,,,,,0,,,42,68
23510,note_on,10,0,3,,,,,,,,0,,,46,68
23512,note_on,32,0,1,,,,,,,,0,,,87,0
23520,note_on,10,0,3,,,,,,,,0,,,51,68
23520,note_on,8,0,1,,,,,,,,0,,,99,68
23520,note_on,0,0,1,,,,,,,,0,,,87,68
23560,control_change,61,0,4,,,,,,,,0,64,0,,
23585,control_change,25,0,4,,,,,,,,0,64,127,,
23616,note_on,0,0,1,,,,,,,,0,,,99,0
23616,note_on,0,0,3,,,,,,,,0,,,46,0
23616,note_on,0,0,3,,,,,,,,0,,,42,0
23616,note_on,96,0,3,,,,,,,,0,,,51,0
23616,note_on,96,0,1,,,,,,,,0,,,87,0
23616,note_on,0,0,3,,,,,,,,0,,,39,0
23640,note_on,0,0,2,,,,,,,,0,,,63,71
23640,note_on,0,0,1,,,,,,,,0,,,72,80
23640,note_on,24,0,1,,,,,,,,0,,,68,80
23640,note_on,504,0,2,,,,,,,,0,,,78,71
23672,note_on,0,0,2,,,,,,,,0,,,78,0
23672,note_on,32,0,2,,,,,,,,0,,,63,0
23680,note_on,0,0,2,,,,,,,,0,,,80,80
23680,note_on,8,0,2,,,,,,,,0,,,65,80
23712,note_on,0,0,2,,,,,,,,0,,,65,0
23712,note_on,32,0,2,,,,,,,,0,,,80,0
23720,note_on,0,0,2,,,,,,,,0,,,63,80
23720,note_on,8,0,2,,,,,,,,0,,,78,80
23736,note_on,0,0,1,,,,,,,,0,,,68,0
23736,note_on,96,0,1,,,,,,,,0,,,72,0
23752,note_on,0,0,2,,,,,,,,0,,,78,0
23752,note_on,32,0,2,,,,,,,,0,,,63,0
23760,note_on,24,0,1,,,,,,,,0,,,69,80
23760,note_on,8,0,2,,,,,,,,0,,,75,80
23760,note_on,0,0,1,,,,,,,,0,,,66,80
23760,note_on,0,0,2,,,,,,,,0,,,60,80
23792,note_on,32,0,2,,,,,,,,0,,,60,0
23792,note_on,0,0,2,,,,,,,,0,,,75,0
23800,note_on,8,0,2,,,,,,,,0,,,77,80
23800,note_on,0,0,2,,,,,,,,0,,,62,80
23832,note_on,32,0,2,,,,,,,,0,,,62,0
23832,note_on,0,0,2,,,,,,,,0,,,77,0
23840,note_on,0,0,2,,,,,,,,0,,,60,80
23840,note_on,8,0,2,,,,,,,,0,,,75,80
23856,note_on,0,0,1,,,,,,,,0,,,69,0
23856,note_on,96,0,1,,,,,,,,0,,,66,0
23872,note_on,0,0,2,,,,,,,,0,,,75,0
23872,note_on,32,0,2,,,,,,,,0,,,60,0
23880,note_on,0,0,2,,,,,,,,0,,,72,80
23880,note_on,24,0,1,,,,,,,,0,,,63,80
23880,note_on,0,0,1,,,,,,,,0,,,66,80
23880,note_on,8,0,2,,,,,,,,0,,,57,80
23912,note_on,0,0,2,,,,,,,,0,,,57,0
23912,note_on,32,0,2,,,,,,,,0,,,72,0
23920,note_on,0,0,2,,,,,,,,0,,,59,80
23920,note_on,8,0,2,,,,,,,,0,,,74,80
23952,note_on,32,0,2,,,,,,,,0,,,59,0
23952,note_on,0,0,2,,,,,,,,0,,,74,0
23960,note_on,8,0,2,,,,,,,,0,,,57,80
23960,note_on,0,0,2,,,,,,,,0,,,72,80
23976,note_on,96,0,1,,,,,,,,0,,,66,0
23976,note_on,0,0,1,,,,,,,,0,,,63,0
23992,note_on,32,0,2,,,,,,,,0,,,72,0
23992,note_on,0,0,2,,,,,,,,0,,,57,0
24000,note_on,0,0,2,,,,,,,,0,,,60,80
24000,note_on,8,0,2,,,,,,,,0,,,54,80
24000,note_on,24,0,1,,,,,,,,0,,,63,80
24000,note_on,0,0,1,,,,,,,,0,,,69,80
24065,control_change,480,0,4,,,,,,,,0,64,0,,
24087,control_change,22,0,4,,,,,,,,0,64,127,,
24096,note_on,0,0,1,,,,,,,,0,,,63,0
24096,note_on,96,0,2,,,,,,,,0,,,60,0
24096,note_on,0,0,2,,,,,,,,0,,,54,0
24096,note_on,96,0,1,,,,,,,,0,,,69,0
24120,note_on,24,0,1,,,,,,,,0,,,63,61
24120,note_on,0,0,4,,,,,,,,0,,,45,61
24120,note_on,33,0,4,,,,,,,,0,,,42,61
24120,note_on,0,0,4,,,,,,,,0,,,39,61
24120,note_on,0,0,4,,,,,,,,0,,,48,61
24120,note_on,0,0,4,,,,,,,,0,,,51,61
24152,note_on,32,0,1,,,,,,,,0,,,63,0
24160,note_on,8,0,1,,,,,,,,0,,,65,62
24192,note_on,32,0,1,,,,,,,,0,,,65,0
24200,note_on,8,0,1,,,,,,,,0,,,63,63
24216,note_on,0,0,4,,,,,,,,0,,,48,0
24216,note_on,0,0,4,,,,,,,,0,,,42,0
24216,note_on,0,0,4,,,,,,,,0,,,51,0
24216,note_on,0,0,4,,,,,,,,0,,,39,0
24216,note_on,96,0,4,,,,,,,,0,,,45,0
24232,note_on,32,0,1,,,,,,,,0,,,63,0
24240,note_on,8,0,1,,,,,,,,0,,,75,64
24240,note_on,24,0,4,,,,,,,,0,,,42,64
24240,note_on,0,0,4,,,,,,,,0,,,48,64
24240,note_on,0,0,4,,,,,,,,0,,,45,64
24240,note_on,0,0,4,,,,,,,,0,,,51,64
24240,note_on,0,0,4,,,,,,,,0,,,39,64
24272,note_on,32,0,1,,,,,,,,0,,,75,0
24280,note_on,8,0,1,,,,,,,,0,,,77,64
24312,note_on,32,0,1,,,,,,,,0,,,77,0
24320,note_on,8,0,1,,,,,,,,0,,,75,65
24336,note_on,96,0,4,,,,,,,,0,,,51,0
24336,note_on,0,0,4,,,,,,,,0,,,39,0
24336,note_on,0,0,4,,,,,,,,0,,,42,0
24336,note_on,0,0,4,,,,,,,,0,,,45,0
24336,note_on,0,0,4,,,,,,,,0,,,48,0
24352,note_on,32,0,1,,,,,,,,0,,,75,0
24360,note_on,0,0,4,,,,,,,,0,,,45,66
24360,note_on,0,0,4,,,,,,,,0,,,42,66
24360,note_on,24,0,4,,,,,,,,0,,,48,66
24360,note_on,8,0,1,,,,,,,,0,,,87,66
24360,note_on,0,0,4,,,,,,,,0,,,39,66
24360,note_on,0,0,4,,,,,,,,0,,,51,66
24392,note_on,32,0,1,,,,,,,,0,,,87,0
24400,note_on,8,0,1,,,,,,,,0,,,89,67
24432,note_on,32,0,1,,,,,,,,0,,,89,0
24440,note_on,8,0,1,,,,,,,,0,,,87,68
24450,note_on,834,0,3,,,,,,,,0,,,39,68
24459,note_on,99,0,4,,,,,,,,0,,,45,0
24459,note_on,0,0,4,,,,,,,,0,,,39,0
24459,note_on,0,0,4,,,,,,,,0,,,42,0
24459,note_on,0,0,4,,,,,,,,0,,,48,0
24459,note_on,0,0,4,,,,,,,,0,,,51,0
24460,note_on,10,0,3,,,,,,,,0,,,42,68
24470,note_on,10,0,3,,,,,,,,0,,,46,69
24472,note_on,32,0,1,,,,,,,,0,,,87,0
24480,control_change,21,0,4,,,,,,,,0,64,0,,
24480,note_on,10,0,3,,,,,,,,0,,,51,80
24480,note_on,8,0,1,,,,,,,,0,,,99,80
24506,control_change,26,0,4,,,,,,,,0,64,127,,
24512,note_on,32,0,1,,,,,,,,0,,,99,0
24520,note_on,8,0,1,,,,,,,,0,,,101,80
24552,note_on,32,0,1,,,,,,,,0,,,101,0
24560,note_on,8,0,1,,,,,,,,0,,,99,80
24576,note_on,0,0,3,,,,,,,,0,,,46,0
24576,note_on,96,0,3,,,,,,,,0,,,51,0
24576,note_on,0,0,3,,,,,,,,0,,,39,0
24576,note_on,0,0,3,,,,,,,,0,,,42,0
24592,note_on,32,0,1,,,,,,,,0,,,99,0
24600,note_on,8,0,1,,,,,,,,0,,,87,80
24632,note_on,32,0,1,,,,,,,,0,,,87,0
24640,note_on,8,0,1,,,,,,,,0,,,89,80
24672,note_on,32,0,1,,,,,,,,0,,,89,0
24680,note_on,8,0,1,,,,,,,,0,,,87,80
24712,note_on,32,0,1,,,,,,,,0,,,87,0
24720,note_on,0,0,3,,,,,,,,0,,,41,80
24720,note_on,0,0,3,,,,,,,,0,,,44,80
24720,note_on,0,0,3,,,,,,,,0,,,47,80
24720,note_on,144,0,3,,,,,,,,0,,,53,80
24720,control_change,214,0,4,,,,,,,,0,64,0,,
24720,note_on,8,0,1,,,,,,,,0,,,97,80
24720,note_on,0,0,3,,,,,,,,0,,,49,80
24738,control_change,18,0,4,,,,,,,,0,64,127,,
24752,note_on,32,0,1,,,,,,,,0,,,97,0
24760,note_on,8,0,1,,,,,,,,0,,,99,80
24792,note_on,32,0,1,,,,,,,,0,,,99,0
24800,note_on,8,0,1,,,,,,,,0,,,97,80
24816,note_on,0,0,3,,,,,,,,0,,,47,0
24816,note_on,0,0,3,,,,,,,,0,,,41,0
24816,note_on,0,0,3,,,,,,,,0,,,53,0
24816,note_on,0,0,3,,,,,,,,0,,,49,0
24816,note_on,96,0,3,,,,,,,,0,,,44,0
24832,note_on,32,0,1,,,,,,,,0,,,97,0
24840,note_on,8,0,1,,,,,,,,0,,,85,80
24872,note_on,32,0,1,,,,,,,,0,,,85,0
24880,note_on,8,0,1,,,,,,,,0,,,87,80
24912,note_on,32,0,1,,,,,,,,0,,,87,0
24920,note_on,8,0,1,,,,,,,,0,,,85,80
24952,note_on,32,0,1,,,,,,,,0,,,85,0
24960,note_on,0,0,4,,,,,,,,0,,,54,80
24960,note_on,8,0,1,,,,,,,,0,,,95,80
24960,note_on,0,0,4,,,,,,,,0,,,49,80
24960,note_on,0,0,4,,,,,,,,0,,,46,80
24960,note_on,0,0,4,,,,,,,,0,,,42,80
24960,control_change,222,0,4,,,,,,,,0,64,0,,
24969,control_change,9,0,4,,,,,,,,0,64,127,,
24992,note_on,32,0,1,,,,,,,,0,,,95,0
25000,note_on,8,0,1,,,,,,,,0,,,94,80
25032,note_on,32,0,1,,,,,,,,0,,,94,0
25040,note_on,8,0,1,,,,,,,,0,,,82,80
25056,note_on,0,0,4,,,,,,,,0,,,54,0
25056,note_on,87,0,4,,,,,,,,0,,,42,0
25056,note_on,0,0,4,,,,,,,,0,,,46,0
25056,note_on,0,0,4,,,,,,,,0,,,49,0
25072,note_on,32,0,1,,,,,,,,0,,,82,0
25080,note_on,24,0,4,,,,,,,,0,,,53,80
25080,note_on,0,0,4,,,,,,,,0,,,47,80
25080,note_on,0,0,4,,,,,,,,0,,,44,80
25080,note_on,0,0,4,,,,,,,,0,,,56,80
25080,note_on,8,0,1,,,,,,,,0,,,94,80
25112,note_on,32,0,1,,,,,,,,0,,,94,0
25120,note_on,8,0,1,,,,,,,,0,,,92,80
25152,note_on,32,0,1,,,,,,,,0,,,92,0
25160,note_on,8,0,1,,,,,,,,0,,,80,80
25176,note_on,0,0,4,,,,,,,,0,,,44,0
25176,note_on,0,0,4,,,,,,,,0,,,56,0
25176,note_on,0,0,4,,,,,,,,0,,,53,0
25176,note_on,96,0,4,,,,,,,,0,,,47,0
25192,note_on,32,0,1,,,,,,,,0,,,80,0
25200,note_on,8,0,1,,,,,,,,0,,,92,80
25200,note_on,0,0,4,,,,,,,,0,,,46,80
25200,note_on,0,0,4,,,,,,,,0,,,58,80
25200,note_on,24,0,4,,,,,,,,0,,,51,80
25200,note_on,0,0,4,,,,,,,,0,,,54,80
25232,note_on,32,0,1,,,,,,,,0,,,92,0
25240,note_on,8,0,1,,,,,,,,0,,,90,80
25272,note_on,32,0,1,,,,,,,,0,,,90,0
25280,note_on,8,0,1,,,,,,,,0,,,78,80
25296,note_on,0,0,4,,,,,,,,0,,,51,0
25296,note_on,0,0,4,,,,,,,,0,,,54,0
25296,note_on,0,0,4,,,,,,,,0,,,58,0
25296,note_on,96,0,4,,,,,,,,0,,,46,0
25312,note_on,32,0,1,,,,,,,,0,,,78,0
25320,note_on,0,0,4,,,,,,,,0,,,38,80
25320,note_on,8,0,1,,,,,,,,0,,,90,80
25320,note_on,0,0,4,,,,,,,,0,,,46,80
25320,note_on,24,0,4,,,,,,,,0,,,34,80
25352,note_on,32,0,1,,,,,,,,0,,,90,0
25360,note_on,8,0,1,,,,,,,,0,,,89,80
25392,note_on,32,0,1,,,,,,,,0,,,89,0
25400,note_on,8,0,1,,,,,,,,0,,,77,80
25410,note_on,594,0,3,,,,,,,,0,,,39,72
25419,note_on,0,0,4,,,,,,,,0,,,34,0
25419,note_on,99,0,4,,,,,,,,0,,,46,0
25419,note_on,0,0,4,,,,,,,,0,,,38,0
25420,note_on,10,0,3,,,,,,,,0,,,42,72
25430,note_on,10,0,3,,,,,,,,0,,,46,72
25432,note_on,32,0,1,,,,,,,,0,,,77,0
25440,note_on,8,0,1,,,,,,,,0,,,87,80
25440,note_on,10,0,3,,,,,,,,0,,,51,96
25440,control_change,21,0,4,,,,,,,,0,64,127,,
25472,note_on,32,0,1,,,,,,,,0,,,87,0
25480,note_on,8,0,1,,,,,,,,0,,,89,80
25512,note_on,32,0,1,,,,,,,,0,,,89,0
25520,note_on,8,0,1,,,,,,,,0,,,87,80
25536,note_on,0,0,3,,,,,,,,0,,,39,0
25536,note_on,0,0,3,,,,,,,,0,,,42,0
25536,note_on,96,0,3,,,,,,,,0,,,51,0
25536,note_on,0,0,3,,,,,,,,0,,,46,0
25552,note_on,32,0,1,,,,,,,,0,,,87,0
25560,note_on,8,0,1,,,,,,,,0,,,75,80
25592,note_on,32,0,1,,,,,,,,0,,,75,0
25600,note_on,8,0,1,,,,,,,,0,,,77,80
25632,note_on,32,0,1,,,,,,,,0,,,77,0
25640,note_on,8,0,1,,,,,,,,0,,,75,80
25672,note_on,32,0,1,,,,,,,,0,,,75,0
25680,note_on,240,0,4,,,,,,,,0,,,46,64
25680,note_on,0,0,4,,,,,,,,0,,,42,64
25680,note_on,0,0,4,,,,,,,,0,,,39,64
25680,note_on,144,0,3,,,,,,,,0,,,51,120
25680,note_on,8,0,1,,,,,,,,0,,,63,80
25712,note_on,32,0,1,,,,,,,,0,,,63,0
25720,note_on,8,0,1,,,,,,,,0,,,65,80
25752,note_on,32,0,1,,,,,,,,0,,,65,0
25760,note_on,8,0,1,,,,,,,,0,,,63,80
25776,note_on,0,0,4,,,,,,,,0,,,46,0
25776,note_on,0,0,4,,,,,,,,0,,,39,0
25776,note_on,96,0,4,,,,,,,,0,,,42,0
25792,note_on,32,0,1,,,,,,,,0,,,63,0
25824,note_on,144,0,3,,,,,,,,0,,,51,0
25860,note_on,84,0,4,,,,,,,,0,,,39,64
25860,note_on,36,0,3,,,,,,,,0,,,51,120
25880,note_on,20,0,4,,,,,,,,0,,,41,64
25900,note_on,20,0,4,,,,,,,,0,,,44,64
25908,note_on,48,0,3,,,,,,,,0,,,51,0
25920,note_on,12,0,3,,,,,,,,0,,,50,120
25920,note_on,128,0,1,,,,,,,,0,,,86,80
25920,control_change,20,0,4,,,,,,,,0,64,0,,
25920,note_on,0,0,4,,,,,,,,0,,,47,64
25952,note_on,32,0,1,,,,,,,,0,,,86,0
25957,control_change,37,0,4,,,,,,,,0,64,127,,
25960,note_on,8,0,1,,,,,,,,0,,,87,80
25992,note_on,32,0,1,,,,,,,,0,,,87,0
26000,note_on,8,0,1,,,,,,,,0,,,86,80
26016,note_on,59,0,4,,,,,,,,0,,,47,0
26016,note_on,0,0,4,,,,,,,,0,,,39,0
26016,note_on,0,0,4,,,,,,,,0,,,41,0
26016,note_on,0,0,4,,,,,,,,0,,,44,0
26032,note_on,32,0,1,,,,,,,,0,,,86,0
26040,note_on,8,0,1,,,,,,,,0,,,74,80
26072,note_on,32,0,1,,,,,,,,0,,,74,0
26080,note_on,8,0,1,,,,,,,,0,,,75,80
26112,note_on,32,0,1,,,,,,,,0,,,75,0
26120,note_on,8,0,1,,,,,,,,0,,,74,80
26152,note_on,32,0,1,,,,,,,,0,,,74,0
26160,note_on,8,0,1,,,,,,,,0,,,62,80
26192,note_on,32,0,1,,,,,,,,0,,,62,0
26200,note_on,8,0,1,,,,,,,,0,,,63,80
26208,note_on,288,0,3,,,,,,,,0,,,50,0
26232,note_on,32,0,1,,,,,,,,0,,,63,0
26240,note_on,8,0,1,,,,,,,,0,,,62,80
26272,note_on,32,0,1,,,,,,,,0,,,62,0
26280,note_on,72,0,3,,,,,,,,0,,,50,120
26370,note_on,354,0,4,,,,,,,,0,,,39,80
26376,note_on,96,0,3,,,,,,,,0,,,50,0
26378,note_on,8,0,4,,,,,,,,0,,,39,0
26380,note_on,2,0,4,,,,,,,,0,,,41,80
26380,note_on,0,0,4,,,,,,,,0,,,39,80
26390,note_on,10,0,4,,,,,,,,0,,,43,80
26400,control_change,0,0,4,,,,,,,,0,64,0,,
26400,note_on,10,0,4,,,,,,,,0,,,46,80
26400,note_on,24,0,3,,,,,,,,0,,,49,120
26400,note_on,128,0,1,,,,,,,,0,,,85,80
26432,note_on,32,0,1,,,,,,,,0,,,85,0
26440,note_on,8,0,1,,,,,,,,0,,,87,80
26452,control_change,52,0,4,,,,,,,,0,64,127,,
26472,note_on,32,0,1,,,,,,,,0,,,87,0
26480,note_on,8,0,1,,,,,,,,0,,,85,80
26496,note_on,0,0,4,,,,,,,,0,,,41,0
26496,note_on,96,0,3,,,,,,,,0,,,49,0
26496,note_on,44,0,4,,,,,,,,0,,,46,0
26496,note_on,0,0,4,,,,,,,,0,,,43,0
26496,note_on,0,0,4,,,,,,,,0,,,39,0
26512,note_on,32,0,1,,,,,,,,0,,,85,0
26520,note_on,8,0,1,,,,,,,,0,,,73,80
26520,note_on,24,0,3,,,,,,,,0,,,49,120
26552,note_on,32,0,1,,,,,,,,0,,,73,0
26560,note_on,8,0,1,,,,,,,,0,,,75,80
26580,note_on,84,0,4,,,,,,,,0,,,39,80
26592,note_on,32,0,1,,,,,,,,0,,,75,0
26600,note_on,8,0,1,,,,,,,,0,,,73,80
26610,note_on,30,0,4,,,,,,,,0,,,43,80
26616,note_on,96,0,3,,,,,,,,0,,,49,0
26632,note_on,32,0,1,,,,,,,,0,,,73,0
26640,note_on,24,0,3,,,,,,,,0,,,51,120
26640,note_on,30,0,4,,,,,,,,0,,,46,80
26640,note_on,8,0,1,,,,,,,,0,,,61,80
26640,control_change,0,0,4,,,,,,,,0,64,0,,
26672,note_on,32,0,1,,,,,,,,0,,,61,0
26679,control_change,39,0,4,,,,,,,,0,64,127,,
26680,note_on,8,0,1,,,,,,,,0,,,63,80
26712,note_on,32,0,1,,,,,,,,0,,,63,0
26720,note_on,8,0,1,,,,,,,,0,,,61,80
26736,note_on,0,0,4,,,,,,,,0,,,39,0
26736,note_on,96,0,3,,,,,,,,0,,,51,0
26736,note_on,0,0,4,,,,,,,,0,,,43,0
26736,note_on,57,0,4,,,,,,,,0,,,46,0
26752,note_on,32,0,1,,,,,,,,0,,,61,0
26760,note_on,24,0,3,,,,,,,,0,,,52,120
26856,note_on,96,0,3,,,,,,,,0,,,52,0
26880,note_on,128,0,1,,,,,,,,0,,,84,80
26880,note_on,24,0,3,,,,,,,,0,,,54,120
26880,note_on,144,0,4,,,,,,,,0,,,48,80
26880,control_change,0,0,4,,,,,,,,0,64,0,,
26880,note_on,0,0,4,,,,,,,,0,,,39,80
26880,note_on,0,0,4,,,,,,,,0,,,42,80
26880,note_on,0,0,4,,,,,,,,0,,,45,80
26912,note_on,32,0,1,,,,,,,,0,,,84,0
26914,control_change,34,0,4,,,,,,,,0,64,127,,
26920,note_on,8,0,1,,,,,,,,0,,,85,80
26952,note_on,32,0,1,,,,,,,,0,,,85,0
26960,note_on,8,0,1,,,,,,,,0,,,84,80
26976,note_on,0,0,4,,,,,,,,0,,,48,0
26976,note_on,62,0,4,,,,,,,,0,,,39,0
26976,note_on,0,0,4,,,,,,,,0,,,45,0
26976,note_on,0,0,4,,,,,,,,0,,,42,0
26992,note_on,32,0,1,,,,,,,,0,,,84,0
27000,note_on,8,0,1,,,,,,,,0,,,72,80
27024,note_on,144,0,3,,,,,,,,0,,,54,0
27032,note_on,32,0,1,,,,,,,,0,,,72,0
27040,note_on,8,0,1,,,,,,,,0,,,73,80
27060,note_on,36,0,3,,,,,,,,0,,,51,120
27072,note_on,32,0,1,,,,,,,,0,,,73,0
27080,note_on,8,0,1,,,,,,,,0,,,72,80
27108,note_on,48,0,3,,,,,,,,0,,,51,0
27112,note_on,32,0,1,,,,,,,,0,,,72,0
27120,note_on,12,0,3,,,,,,,,0,,,48,120
27120,note_on,8,0,1,,,,,,,,0,,,60,80
27152,note_on,32,0,1,,,,,,,,0,,,60,0
27160,note_on,8,0,1,,,,,,,,0,,,61,80
27192,note_on,32,0,1,,,,,,,,0,,,61,0
27200,note_on,8,0,1,,,,,,,,0,,,60,80
27232,note_on,32,0,1,,,,,,,,0,,,60,0
27312,note_on,192,0,3,,,,,,,,0,,,48,0
27330,note_on,354,0,4,,,,,,,,0,,,38,80
27345,note_on,15,0,4,,,,,,,,0,,,41,80
27360,control_change,0,0,4,,,,,,,,0,64,0,,
27360,note_on,15,0,4,,,,,,,,0,,,44,80
27360,note_on,128,0,1,,,,,,,,0,,,83,80
27360,note_on,48,0,3,,,,,,,,0,,,47,120
27392,note_on,32,0,1,,,,,,,,0,,,83,0
27400,note_on,8,0,1,,,,,,,,0,,,84,80
27412,control_change,52,0,4,,,,,,,,0,64,127,,
27432,note_on,32,0,1,,,,,,,,0,,,84,0
27440,note_on,8,0,1,,,,,,,,0,,,83,80
27456,note_on,44,0,4,,,,,,,,0,,,44,0
27456,note_on,0,0,4,,,,,,,,0,,,38,0
27456,note_on,0,0,4,,,,,,,,0,,,41,0
27472,note_on,32,0,1,,,,,,,,0,,,83,0
27480,note_on,8,0,1,,,,,,,,0,,,71,80
27512,note_on,32,0,1,,,,,,,,0,,,71,0
27520,note_on,8,0,1,,,,,,,,0,,,72,80
27552,note_on,32,0,1,,,,,,,,0,,,72,0
27552,note_on,192,0,3,,,,,,,,0,,,47,0
27560,note_on,8,0,1,,,,,,,,0,,,71,80
27592,note_on,32,0,1,,,,,,,,0,,,71,0
27592,control_change,136,0,4,,,,,,,,0,64,0,,
27600,note_on,8,0,1,,,,,,,,0,,,59,80
27600,note_on,0,0,4,,,,,,,,0,,,44,80
27600,note_on,48,0,3,,,,,,,,0,,,47,120
27600,note_on,0,0,4,,,,,,,,0,,,37,80
27600,note_on,8,0,4,,,,,,,,0,,,41,80
27632,note_on,32,0,1,,,,,,,,0,,,59,0
27636,control_change,36,0,4,,,,,,,,0,64,127,,
27640,note_on,8,0,1,,,,,,,,0,,,60,80
27672,note_on,32,0,1,,,,,,,,0,,,60,0
27680,note_on,8,0,1,,,,,,,,0,,,59,80
27696,note_on,0,0,4,,,,,,,,0,,,41,0
27696,note_on,0,0,4,,,,,,,,0,,,37,0
27696,note_on,60,0,4,,,,,,,,0,,,44,0
27712,note_on,32,0,1,,,,,,,,0,,,59,0
27744,note_on,144,0,3,,,,,,,,0,,,47,0
27780,note_on,36,0,3,,,,,,,,0,,,47,120
27810,note_on,114,0,4,,,,,,,,0,,,37,80
27825,note_on,15,0,4,,,,,,,,0,,,40,80
27828,note_on,48,0,3,,,,,,,,0,,,47,0
27840,control_change,0,0,4,,,,,,,,0,64,0,,
27840,note_on,12,0,3,,,,,,,,0,,,46,120
27840,note_on,15,0,4,,,,,,,,0,,,43,80
27840,note_on,128,0,1,,,,,,,,0,,,82,80
27863,control_change,23,0,4,,,,,,,,0,64,127,,
27872,note_on,32,0,1,,,,,,,,0,,,82,0
27880,note_on,8,0,1,,,,,,,,0,,,84,80
27912,note_on,32,0,1,,,,,,,,0,,,84,0
27920,note_on,8,0,1,,,,,,,,0,,,82,80
27936,note_on,0,0,4,,,,,,,,0,,,37,0
27936,note_on,0,0,4,,,,,,,,0,,,40,0
27936,note_on,73,0,4,,,,,,,,0,,,43,0
27952,note_on,32,0,1,,,,,,,,0,,,82,0
27960,note_on,8,0,1,,,,,,,,0,,,70,80
27992,note_on,32,0,1,,,,,,,,0,,,70,0
28000,note_on,8,0,1,,,,,,,,0,,,72,80
28032,note_on,32,0,1,,,,,,,,0,,,72,0
28040,note_on,8,0,1,,,,,,,,0,,,70,80
28072,note_on,32,0,1,,,,,,,,0,,,70,0
28080,note_on,8,0,1,,,,,,,,0,,,58,80
28112,note_on,32,0,1,,,,,,,,0,,,58,0
28120,note_on,8,0,1,,,,,,,,0,,,60,80
28128,note_on,288,0,3,,,,,,,,0,,,46,0
28152,note_on,32,0,1,,,,,,,,0,,,60,0
28160,note_on,8,0,1,,,,,,,,0,,,58,80
28192,note_on,32,0,1,,,,,,,,0,,,58,0
28200,note_on,72,0,3,,,,,,,,0,,,46,120
28290,note_on,354,0,4,,,,,,,,0,,,36,80
28296,note_on,96,0,3,,,,,,,,0,,,46,0
28305,note_on,15,0,4,,,,,,,,0,,,39,80
28320,note_on,24,0,3,,,,,,,,0,,,45,120
28320,note_on,128,0,1,,,,,,,,0,,,81,80
28320,control_change,15,0,4,,,,,,,,0,64,0,,
28320,note_on,0,0,4,,,,,,,,0,,,42,80
28334,control_change,14,0,4,,,,,,,,0,64,127,,
28352,note_on,32,0,1,,,,,,,,0,,,81,0
28360,note_on,8,0,1,,,,,,,,0,,,82,80
28392,note_on,32,0,1,,,,,,,,0,,,82,0
28400,note_on,8,0,1,,,,,,,,0,,,81,80
28416,note_on,82,0,4,,,,,,,,0,,,42,0
28416,note_on,96,0,3,,,,,,,,0,,,45,0
28416,note_on,0,0,4,,,,,,,,0,,,36,0
28416,note_on,0,0,4,,,,,,,,0,,,39,0
28432,note_on,32,0,1,,,,,,,,0,,,81,0
28440,note_on,24,0,3,,,,,,,,0,,,45,120
28440,note_on,8,0,1,,,,,,,,0,,,69,80
28472,note_on,32,0,1,,,,,,,,0,,,69,0
28480,note_on,8,0,1,,,,,,,,0,,,70,80
28512,note_on,32,0,1,,,,,,,,0,,,70,0
28520,note_on,8,0,1,,,,,,,,0,,,69,80
28530,note_on,114,0,4,,,,,,,,0,,,36,80
28536,note_on,96,0,3,,,,,,,,0,,,45,0
28545,note_on,15,0,4,,,,,,,,0,,,39,80
28552,note_on,32,0,1,,,,,,,,0,,,69,0
28560,note_on,8,0,1,,,,,,,,0,,,57,80
28560,note_on,24,0,3,,,,,,,,0,,,46,120
28560,note_on,15,0,4,,,,,,,,0,,,42,80
28563,control_change,3,0,4,,,,,,,,0,64,0,,
28592,note_on,32,0,1,,,,,,,,0,,,57,0
28599,control_change,36,0,4,,,,,,,,0,64,127,,
28600,note_on,8,0,1,,,,,,,,0,,,58,80
28632,note_on,32,0,1,,,,,,,,0,,,58,0
28640,note_on,8,0,1,,,,,,,,0,,,57,80
28656,note_on,96,0,3,,,,,,,,0,,,46,0
28656,note_on,0,0,4,,,,,,,,0,,,39,0
28656,note_on,0,0,4,,,,,,,,0,,,36,0
28656,note_on,57,0,4,,,,,,,,0,,,42,0
28672,note_on,32,0,1,,,,,,,,0,,,57,0
28680,note_on,24,0,3,,,,,,,,0,,,48,120
28770,note_on,114,0,4,,,,,,,,0,,,35,80
28776,note_on,96,0,3,,,,,,,,0,,,48,0
28800,note_on,24,0,3,,,,,,,,0,,,50,127
28800,note_on,30,0,4,,,,,,,,0,,,43,80
28800,control_change,0,0,4,,,,,,,,0,64,0,,
28800,note_on,128,0,1,,,,,,,,0,,,79,80
28814,control_change,14,0,4,,,,,,,,0,64,127,,
28832,note_on,32,0,1,,,,,,,,0,,,79,0
28840,note_on,8,0,1,,,,,,,,0,,,80,80
28872,note_on,32,0,1,,,,,,,,0,,,80,0
28880,note_on,8,0,1,,,,,,,,0,,,79,80
28896,note_on,82,0,4,,,,,,,,0,,,43,0
28896,note_on,0,0,4,,,,,,,,0,,,35,0
28912,note_on,32,0,1,,,,,,,,0,,,79,0
28920,note_on,8,0,1,,,,,,,,0,,,67,80
28944,note_on,144,0,3,,,,,,,,0,,,50,0
28952,note_on,32,0,1,,,,,,,,0,,,67,0
28960,note_on,8,0,1,,,,,,,,0,,,68,80
28980,note_on,36,0,3,,,,,,,,0,,,47,87
28992,note_on,32,0,1,,,,,,,,0,,,68,0
29000,note_on,8,0,1,,,,,,,,0,,,67,80
29028,note_on,48,0,3,,,,,,,,0,,,47,0
29032,note_on,32,0,1,,,,,,,,0,,,67,0
29040,note_on,12,0,3,,,,,,,,0,,,43,82
29040,note_on,8,0,1,,,,,,,,0,,,55,80
29072,note_on,32,0,1,,,,,,,,0,,,55,0
29080,note_on,8,0,1,,,,,,,,0,,,56,80
29112,note_on,32,0,1,,,,,,,,0,,,56,0
29120,note_on,8,0,1,,,,,,,,0,,,55,80
29152,note_on,32,0,1,,,,,,,,0,,,55,0
29160,note_on,8,0,1,,,,,,,,0,,,67,80
29192,note_on,32,0,1,,,,,,,,0,,,67,0
29200,note_on,8,0,1,,,,,,,,0,,,68,80
29232,note_on,32,0,1,,,,,,,,0,,,68,0
29232,note_on,192,0,3,,,,,,,,0,,,43,0
29240,note_on,8,0,1,,,,,,,,0,,,67,80
29272,note_on,32,0,1,,,,,,,,0,,,67,0
29280,note_on,0,0,4,,,,,,,,0,,,36,80
29280,note_on,0,0,4,,,,,,,,0,,,51,88
29280,note_on,384,0,4,,,,,,,,0,,,43,80
29280,note_on,8,0,1,,,,,,,,0,,,79,80
29280,control_change,0,0,4,,,,,,,,0,64,0,,
29296,control_change,16,0,4,,,,,,,,0,64,127,,
29312,note_on,32,0,1,,,,,,,,0,,,79,0
29320,note_on,8,0,1,,,,,,,,0,,,80,80
29352,note_on,32,0,1,,,,,,,,0,,,80,0
29360,note_on,128,0,3,,,,,,,,0,,,54,80
29360,note_on,8,0,1,,,,,,,,0,,,79,80
29392,note_on,32,0,1,,,,,,,,0,,,79,0
29400,note_on,8,0,1,,,,,,,,0,,,91,80
29424,note_on,0,0,4,,,,,,,,0,,,36,0
29424,note_on,0,0,4,,,,,,,,0,,,43,0
29424,note_on,128,0,4,,,,,,,,0,,,51,0
29424,note_on,64,0,3,,,,,,,,0,,,54,0
29432,note_on,32,0,1,,,,,,,,0,,,91,0
29440,note_on,8,0,1,,,,,,,,0,,,92,80
29440,note_on,16,0,3,,,,,,,,0,,,55,80
29460,note_on,36,0,4,,,,,,,,0,,,48,88
29472,note_on,32,0,1,,,,,,,,0,,,92,0
29480,note_on,8,0,1,,,,,,,,0,,,91,80
29504,note_on,64,0,3,,,,,,,,0,,,55,0
29508,note_on,48,0,4,,,,,,,,0,,,48,0
29512,note_on,32,0,1,,,,,,,,0,,,91,0
29520,note_on,8,0,1,,,,,,,,0,,,79,80
29520,note_on,12,0,4,,,,,,,,0,,,43,80
29522,control_change,2,0,4,,,,,,,,0,64,0,,
29547,control_change,25,0,4,,,,,,,,0,64,127,,
29552,note_on,32,0,1,,,,,,,,0,,,79,0
29560,note_on,8,0,1,,,,,,,,0,,,80,80
29592,note_on,32,0,1,,,,,,,,0,,,80,0
29600,note_on,8,0,1,,,,,,,,0,,,79,80
29600,note_on,96,0,3,,,,,,,,0,,,56,80
29616,note_on,69,0,4,,,,,,,,0,,,43,0
29632,note_on,32,0,1,,,,,,,,0,,,79,0
29640,note_on,8,0,1,,,,,,,,0,,,67,80
29664,note_on,64,0,3,,,,,,,,0,,,56,0
29672,note_on,32,0,1,,,,,,,,0,,,67,0
29680,note_on,8,0,1,,,,,,,,0,,,68,80
29680,note_on,16,0,3,,,,,,,,0,,,55,80
29712,note_on,32,0,1,,,,,,,,0,,,68,0
29720,note_on,8,0,1,,,,,,,,0,,,67,80
29744,note_on,64,0,3,,,,,,,,0,,,55,0
29752,note_on,32,0,1,,,,,,,,0,,,67,0
29760,note_on,144,0,4,,,,,,,,0,,,53,88
29760,control_change,0,0,4,,,,,,,,0,64,0,,
29760,note_on,0,0,4,,,,,,,,0,,,43,80
29760,note_on,0,0,4,,,,,,,,0,,,38,80
29760,note_on,8,0,1,,,,,,,,0,,,79,80
29791,control_change,31,0,4,,,,,,,,0,64,127,,
29792,note_on,32,0,1,,,,,,,,0,,,79,0
29800,note_on,8,0,1,,,,,,,,0,,,80,80
29832,note_on,32,0,1,,,,,,,,0,,,80,0
29840,note_on,8,0,1,,,,,,,,0,,,79,80
29872,note_on,32,0,1,,,,,,,,0,,,79,0
29880,note_on,8,0,1,,,,,,,,0,,,67,80
29904,note_on,113,0,4,,,,,,,,0,,,43,0
29904,note_on,0,0,4,,,,,,,,0,,,38,0
29904,note_on,0,0,4,,,,,,,,0,,,53,0
29912,note_on,32,0,1,,,,,,,,0,,,67,0
29920,note_on,8,0,1,,,,,,,,0,,,68,80
29940,note_on,36,0,4,,,,,,,,0,,,47,88
29952,note_on,32,0,1,,,,,,,,0,,,68,0
29960,note_on,8,0,1,,,,,,,,0,,,67,80
29988,note_on,48,0,4,,,,,,,,0,,,47,0
29992,note_on,32,0,1,,,,,,,,0,,,67,0
30000,note_on,12,0,4,,,,,,,,0,,,43,80
30000,note_on,8,0,1,,,,,,,,0,,,55,80
30002,control_change,2,0,4,,,,,,,,0,64,0,,
30031,control_change,29,0,4,,,,,,,,0,64,127,,
30032,note_on,32,0,1,,,,,,,,0,,,55,0
30040,note_on,8,0,1,,,,,,,,0,,,56,80
30072,note_on,32,0,1,,,,,,,,0,,,56,0
30080,note_on,8,0,1,,,,,,,,0,,,55,80
30096,note_on,65,0,4,,,,,,,,0,,,43,0
30112,note_on,32,0,1,,,,,,,,0,,,55,0
30120,note_on,8,0,1,,,,,,,,0,,,67,80
30152,note_on,32,0,1,,,,,,,,0,,,67,0
30160,note_on,8,0,1,,,,,,,,0,,,68,80
30192,note_on,32,0,1,,,,,,,,0,,,68,0
30200,note_on,8,0,1,,,,,,,,0,,,67,80
30232,note_on,32,0,1,,,,,,,,0,,,67,0
30240,note_on,8,0,1,,,,,,,,0,,,72,80
30240,note_on,0,0,4,,,,,,,,0,,,55,88
30240,note_on,0,0,4,,,,,,,,0,,,48,80
30240,note_on,144,0,4,,,,,,,,0,,,40,80
30243,control_change,3,0,4,,,,,,,,0,64,0,,
30265,control_change,22,0,4,,,,,,,,0,64,127,,
30272,note_on,32,0,1,,,,,,,,0,,,72,0
30280,note_on,8,0,1,,,,,,,,0,,,73,80
30312,note_on,32,0,1,,,,,,,,0,,,73,0
30320,note_on,8,0,1,,,,,,,,0,,,72,80
30320,note_on,576,0,3,,,,,,,,0,,,59,80
30352,note_on,32,0,1,,,,,,,,0,,,72,0
30360,note_on,8,0,1,,,,,,,,0,,,84,80
30384,note_on,64,0,3,,,,,,,,0,,,59,0
30384,note_on,0,0,4,,,,,,,,0,,,55,0
30384,note_on,0,0,4,,,,,,,,0,,,40,0
30384,note_on,119,0,4,,,,,,,,0,,,48,0
30392,note_on,32,0,1,,,,,,,,0,,,84,0
30400,note_on,8,0,1,,,,,,,,0,,,85,80
30400,note_on,16,0,3,,,,,,,,0,,,60,80
30420,note_on,36,0,4,,,,,,,,0,,,52,88
30432,note_on,32,0,1,,,,,,,,0,,,85,0
30440,note_on,8,0,1,,,,,,,,0,,,84,80
30464,note_on,64,0,3,,,,,,,,0,,,60,0
30468,note_on,48,0,4,,,,,,,,0,,,52,0
30472,note_on,32,0,1,,,,,,,,0,,,84,0
30480,note_on,8,0,1,,,,,,,,0,,,96,80
30480,control_change,0,0,4,,,,,,,,0,64,0,,
30480,note_on,12,0,4,,,,,,,,0,,,48,80
30496,control_change,16,0,4,,,,,,,,0,64,127,,
30512,note_on,32,0,1,,,,,,,,0,,,96,0
30520,note_on,8,0,1,,,,,,,,0,,,97,80
30552,note_on,32,0,1,,,,,,,,0,,,97,0
30560,note_on,8,0,1,,,,,,,,0,,,96,80
30560,note_on,96,0,3,,,,,,,,0,,,61,80
30576,note_on,80,0,4,,,,,,,,0,,,48,0
30592,note_on,32,0,1,,,,,,,,0,,,96,0
30600,note_on,8,0,1,,,,,,,,0,,,84,80
30624,note_on,64,0,3,,,,,,,,0,,,61,0
30632,note_on,32,0,1,,,,,,,,0,,,84,0
30640,note_on,8,0,1,,,,,,,,0,,,85,80
30640,note_on,16,0,3,,,,,,,,0,,,60,80
30672,note_on,32,0,1,,,,,,,,0,,,85,0
30680,note_on,8,0,1,,,,,,,,0,,,84,80
30704,note_on,64,0,3,,,,,,,,0,,,60,0
30712,note_on,32,0,1,,,,,,,,0,,,84,0
30720,note_on,8,0,1,,,,,,,,0,,,72,80
30720,note_on,0,0,4,,,,,,,,0,,,41,80
30720,note_on,0,0,4,,,,,,,,0,,,56,88
30720,control_change,0,0,4,,,,,,,,0,64,0,,
30720,note_on,144,0,4,,,,,,,,0,,,48,80
30743,control_change,23,0,4,,,,,,,,0,64,127,,
30752,note_on,32,0,1,,,,,,,,0,,,72,0
30760,note_on,8,0,1,,,,,,,,0,,,73,80
30792,note_on,32,0,1,,,,,,,,0,,,73,0
30800,note_on,8,0,1,,,,,,,,0,,,72,80
30832,note_on,32,0,1,,,,,,,,0,,,72,0
30840,note_on,8,0,1,,,,,,,,0,,,60,80
30864,note_on,0,0,4,,,,,,,,0,,,41,0
30864,note_on,0,0,4,,,,,,,,0,,,48,0
30864,note_on,121,0,4,,,,,,,,0,,,56,0
30872,note_on,32,0,1,,,,,,,,0,,,60,0
30880,note_on,8,0,1,,,,,,,,0,,,61,80
30900,note_on,36,0,4,,,,,,,,0,,,53,88
30912,note_on,32,0,1,,,,,,,,0,,,61,0
30920,note_on,8,0,1,,,,,,,,0,,,60,80
30948,note_on,48,0,4,,,,,,,,0,,,53,0
30952,note_on,32,0,1,,,,,,,,0,,,60,0
30960,note_on,8,0,1,,,,,,,,0,,,72,80
30960,note_on,12,0,4,,,,,,,,0,,,48,80
30960,control_change,0,0,4,,,,,,,,0,64,0,,
30992,note_on,32,0,1,,,,,,,,0,,,72,0
31000,note_on,8,0,1,,,,,,,,0,,,73,80
31032,note_on,32,0,1,,,,,,,,0,,,73,0
31040,note_on,8,0,1,,,,,,,,0,,,72,80
31056,note_on,96,0,4,,,,,,,,0,,,48,0
31072,note_on,32,0,1,,,,,,,,0,,,72,0
31080,note_on,8,0,1,,,,,,,,0,,,84,80
31112,note_on,32,0,1,,,,,,,,0,,,84,0
31120,note_on,8,0,1,,,,,,,,0,,,85,80
31152,note_on,32,0,1,,,,,,,,0,,,85,0
31160,note_on,8,0,1,,,,,,,,0,,,84,80
31192,note_on,32,0,1,,,,,,,,0,,,84,0
31200,note_on,0,0,4,,,,,,,,0,,,51,80
31200,note_on,144,0,4,,,,,,,,0,,,58,80
31200,note_on,8,0,1,,,,,,,,0,,,96,80
31200,note_on,0,0,4,,,,,,,,0,,,43,80
31232,note_on,32,0,1,,,,,,,,0,,,96,0
31240,note_on,8,0,1,,,,,,,,0,,,97,80
31264,note_on,64,0,4,,,,,,,,0,,,43,0
31264,note_on,0,0,4,,,,,,,,0,,,58,0
31264,note_on,0,0,4,,,,,,,,0,,,51,0
31272,note_on,32,0,1,,,,,,,,0,,,97,0
31280,note_on,576,0,3,,,,,,,,0,,,59,80
31280,note_on,8,0,1,,,,,,,,0,,,96,80
31280,note_on,16,0,4,,,,,,,,0,,,52,80
31312,note_on,32,0,1,,,,,,,,0,,,96,0
31320,note_on,8,0,1,,,,,,,,0,,,84,80
31344,note_on,64,0,4,,,,,,,,0,,,52,0
31344,note_on,64,0,3,,,,,,,,0,,,59,0
31352,note_on,32,0,1,,,,,,,,0,,,84,0
31360,note_on,16,0,3,,,,,,,,0,,,60,80
31360,note_on,8,0,1,,,,,,,,0,,,85,80
31360,note_on,16,0,4,,,,,,,,0,,,48,80
31392,note_on,32,0,1,,,,,,,,0,,,85,0
31400,note_on,8,0,1,,,,,,,,0,,,84,80
31424,note_on,64,0,4,,,,,,,,0,,,48,0
31424,note_on,64,0,3,,,,,,,,0,,,60,0
31432,note_on,32,0,1,,,,,,,,0,,,84,0
31440,note_on,16,0,4,,,,,,,,0,,,44,80
31440,note_on,8,0,1,,,,,,,,0,,,96,80
31472,note_on,32,0,1,,,,,,,,0,,,96,0
31480,note_on,8,0,1,,,,,,,,0,,,97,80
31504,note_on,64,0,4,,,,,,,,0,,,44,0
31512,note_on,32,0,1,,,,,,,,0,,,97,0
31520,note_on,8,0,1,,,,,,,,0,,,96,80
31520,note_on,96,0,3,,,,,,,,0,,,61,80
31520,note_on,16,0,4,,,,,,,,0,,,53,80
31552,note_on,32,0,1,,,,,,,,0,,,96,0
31560,note_on,8,0,1,,,,,,,,0,,,84,80
31584,note_on,64,0,4,,,,,,,,0,,,53,0
31584,note_on,64,0,3,,,,,,,,0,,,61,0
31592,note_on,32,0,1,,,,,,,,0,,,84,0
31600,note_on,16,0,3,,,,,,,,0,,,60,80
31600,note_on,8,0,1,,,,,,,,0,,,85,80
31600,note_on,16,0,4,,,,,,,,0,,,48,80
31632,note_on,32,0,1,,,,,,,,0,,,85,0
31640,note_on,8,0,1,,,,,,,,0,,,84,80
31664,note_on,64,0,3,,,,,,,,0,,,60,0
31664,note_on,64,0,4,,,,,,,,0,,,48,0
31672,note_on,32,0,1,,,,,,,,0,,,84,0
31680,note_on,0,0,3,,,,,,,,0,,,54,110
31680,note_on,16,0,3,,,,,,,,0,,,61,110
31680,note_on,0,0,4,,,,,,,,0,,,46,110
31680,note_on,16,0,4,,,,,,,,0,,,49,110
31776,note_on,96,0,3,,,,,,,,0,,,54,0
31776,note_on,0,0,3,,,,,,,,0,,,61,0
31776,note_on,0,0,4,,,,,,,,0,,,49,0
31776,note_on,96,0,4,,,,,,,,0,,,46,0
31791,control_change,15,0,4,,,,,,,,0,64,127,,
31800,note_on,0,0,2,,,,,,,,0,,,97,107
31800,note_on,128,0,1,,,,,,,,0,,,90,107
31800,note_on,7704,0,2,,,,,,,,0,,,82,107
31832,note_on,32,0,2,,,,,,,,0,,,97,0
31832,note_on,0,0,2,,,,,,,,0,,,82,0
31840,note_on,0,0,2,,,,,,,,0,,,83,106
31840,note_on,8,0,2,,,,,,,,0,,,99,106
31872,note_on,32,0,2,,,,,,,,0,,,83,0
31872,note_on,0,0,2,,,,,,,,0,,,99,0
31880,note_on,8,0,2,,,,,,,,0,,,82,105
31880,note_on,0,0,2,,,,,,,,0,,,97,105
31896,note_on,96,0,1,,,,,,,,0,,,90,0
31912,note_on,32,0,2,,,,,,,,0,,,97,0
31912,note_on,0,0,2,,,,,,,,0,,,82,0
31920,note_on,8,0,2,,,,,,,,0,,,94,104
31920,note_on,24,0,1,,,,,,,,0,,,85,104
31920,note_on,0,0,2,,,,,,,,0,,,78,104
31952,note_on,32,0,2,,,,,,,,0,,,78,0
31952,note_on,0,0,2,,,,,,,,0,,,94,0
31960,note_on,0,0,2,,,,,,,,0,,,95,103
31960,note_on,8,0,2,,,,,,,,0,,,80,103
31992,note_on,0,0,2,,,,,,,,0,,,80,0
31992,note_on,32,0,2,,,,,,,,0,,,95,0
32000,note_on,0,0,2,,,,,,,,0,,,78,101
32000,note_on,8,0,2,,,,,,,,0,,,94,101
32016,note_on,96,0,1,,,,,,,,0,,,85,0
32032,note_on,0,0,2,,,,,,,,0,,,94,0
32032,note_on,32,0,2,,,,,,,,0,,,78,0
32040,note_on,8,0,2,,,,,,,,0,,,73,100
32040,note_on,24,0,1,,,,,,,,0,,,82,100
32040,note_on,0,0,2,,,,,,,,0,,,90,100
32072,note_on,32,0,2,,,,,,,,0,,,90,0
32072,note_on,0,0,2,,,,,,,,0,,,73,0
32080,note_on,8,0,2,,,,,,,,0,,,75,99
32080,note_on,0,0,2,,,,,,,,0,,,92,99
32112,note_on,32,0,2,,,,,,,,0,,,92,0
32112,note_on,0,0,2,,,,,,,,0,,,75,0
32120,note_on,8,0,2,,,,,,,,0,,,73,98
32120,note_on,0,0,2,,,,,,,,0,,,90,98
32136,note_on,96,0,1,,,,,,,,0,,,82,0
32152,note_on,0,0,2,,,,,,,,0,,,73,0
32152,note_on,32,0,2,,,,,,,,0,,,90,0
32160,note_on,24,0,1,,,,,,,,0,,,78,97
32160,note_on,8,0,2,,,,,,,,0,,,85,97
32160,note_on,0,0,2,,,,,,,,0,,,70,97
32192,note_on,32,0,2,,,,,,,,0,,,70,0
32192,note_on,0,0,2,,,,,,,,0,,,85,0
32200,note_on,8,0,2,,,,,,,,0,,,87,96
32200,note_on,0,0,2,,,,,,,,0,,,71,96
32232,note_on,0,0,2,,,,,,,,0,,,87,0
32232,note_on,32,0,2,,,,,,,,0,,,71,0
32240,note_on,0,0,2,,,,,,,,0,,,85,95
32240,note_on,8,0,2,,,,,,,,0,,,70,95
32256,note_on,96,0,1,,,,,,,,0,,,78,0
32271,control_change,480,0,4,,,,,,,,0,64,0,,
32272,note_on,0,0,2,,,,,,,,0,,,70,0
32272,note_on,32,0,2,,,,,,,,0,,,85,0
32280,note_on,0,0,2,,,,,,,,0,,,82,94
32280,note_on,8,0,2,,,,,,,,0,,,66,94
32280,note_on,24,0,1,,,,,,,,0,,,73,94
32312,note_on,32,0,2,,,,,,,,0,,,82,0
32312,note_on,0,0,2,,,,,,,,0,,,66,0
32320,note_on,0,0,2,,,,,,,,0,,,83,92
32320,note_on,8,0,2,,,,,,,,0,,,68,92
32352,note_on,0,0,2,,,,,,,,0,,,68,0
32352,note_on,32,0,2,,,,,,,,0,,,83,0
32360,note_on,0,0,2,,,,,,,,0,,,66,91
32360,note_on,8,0,2,,,,,,,,0,,,82,91
32376,note_on,96,0,1,,,,,,,,0,,,73,0
32392,note_on,32,0,2,,,,,,,,0,,,66,0
32392,note_on,0,0,2,,,,,,,,0,,,82,0
32400,note_on,24,0,1,,,,,,,,0,,,70,90
32400,note_on,0,0,2,,,,,,,,0,,,78,90
32400,note_on,8,0,2,,,,,,,,0,,,61,90
32432,note_on,32,0,2,,,,,,,,0,,,78,0
32432,note_on,0,0,2,,,,,,,,0,,,61,0
32440,note_on,8,0,2,,,,,,,,0,,,80,89
32440,note_on,0,0,2,,,,,,,,0,,,63,89
32472,note_on,32,0,2,,,,,,,,0,,,63,0
32472,note_on,0,0,2,,,,,,,,0,,,80,0
32480,note_on,0,0,2,,,,,,,,0,,,78,88
32480,note_on,8,0,2,,,,,,,,0,,,61,88
32496,note_on,96,0,1,,,,,,,,0,,,70,0
32512,note_on,32,0,2,,,,,,,,0,,,78,0
32512,note_on,0,0,2,,,,,,,,0,,,61,0
32520,note_on,24,0,1,,,,,,,,0,,,66,87
32520,note_on,8,0,2,,,,,,,,0,,,58,87
32520,note_on,0,0,2,,,,,,,,0,,,73,87
32552,note_on,0,0,2,,,,,,,,0,,,58,0
32552,note_on,32,0,2,,,,,,,,0,,,73,0
32560,note_on,8,0,2,,,,,,,,0,,,59,86
32560,note_on,0,0,2,,,,,,,,0,,,75,86
32592,note_on,32,0,2,,,,,,,,0,,,75,0
32592,note_on,0,0,2,,,,,,,,0,,,59,0
32600,note_on,0,0,2,,,,,,,,0,,,73,85
32600,note_on,8,0,2,,,,,,,,0,,,58,85
32616,note_on,96,0,1,,,,,,,,0,,,66,0
32632,note_on,32,0,2,,,,,,,,0,,,73,0
32632,note_on,0,0,2,,,,,,,,0,,,58,0
32640,note_on,864,0,3,,,,,,,,0,,,46,83
32672,note_on,32,0,3,,,,,,,,0,,,46,0
32680,note_on,8,0,3,,,,,,,,0,,,58,82
32680,note_on,48,0,2,,,,,,,,0,,,61,82
32712,note_on,32,0,3,,,,,,,,0,,,58,0
32712,note_on,32,0,2,,,,,,,,0,,,61,0
32720,note_on,8,0,2,,,,,,,,0,,,66,81
32720,note_on,8,0,3,,,,,,,,0,,,54,81
32720,note_on,104,0,1,,,,,,,,0,,,72,81
32752,note_on,32,0,3,,,,,,,,0,,,54,0
32752,note_on,32,0,2,,,,,,,,0,,,66,0
32760,note_on,8,0,3,,,,,,,,0,,,49,80
32760,note_on,8,0,2,,,,,,,,0,,,61,80
32784,note_on,64,0,1,,,,,,,,0,,,72,0
32792,note_on,32,0,3,,,,,,,,0,,,49,0
32792,note_on,32,0,2,,,,,,,,0,,,61,0
32800,note_on,8,0,3,,,,,,,,0,,,58,79
32800,note_on,8,0,2,,,,,,,,0,,,66,79
32800,note_on,16,0,1,,,,,,,,0,,,73,79
32832,note_on,32,0,2,,,,,,,,0,,,66,0
32832,note_on,32,0,3,,,,,,,,0,,,58,0
32840,note_on,8,0,2,,,,,,,,0,,,61,78
32840,note_on,8,0,3,,,,,,,,0,,,54,78
32864,note_on,64,0,1,,,,,,,,0,,,73,0
32872,note_on,32,0,2,,,,,,,,0,,,61,0
32872,note_on,32,0,3,,,,,,,,0,,,54,0
32880,note_on,8,0,3,,,,,,,,0,,,47,77
32912,note_on,32,0,3,,,,,,,,0,,,47,0
32920,note_on,8,0,3,,,,,,,,0,,,59,76
32920,note_on,48,0,2,,,,,,,,0,,,61,76
32952,note_on,32,0,3,,,,,,,,0,,,59,0
32952,note_on,32,0,2,,,,,,,,0,,,61,0
32960,note_on,8,0,2,,,,,,,,0,,,65,74
32960,note_on,8,0,3,,,,,,,,0,,,56,74
32960,note_on,96,0,1,,,,,,,,0,,,74,74
32992,note_on,32,0,2,,,,,,,,0,,,65,0
32992,note_on,32,0,3,,,,,,,,0,,,56,0
33000,note_on,8,0,3,,,,,,,,0,,,49,73
33000,note_on,8,0,2,,,,,,,,0,,,61,73
33024,note_on,64,0,1,,,,,,,,0,,,74,0
33032,note_on,32,0,3,,,,,,,,0,,,49,0
33032,note_on,32,0,2,,,,,,,,0,,,61,0
33040,note_on,8,0,2,,,,,,,,0,,,65,72
33040,note_on,8,0,3,,,,,,,,0,,,59,72
33040,note_on,16,0,1,,,,,,,,0,,,73,72
33072,note_on,32,0,3,,,,,,,,0,,,59,0
33072,note_on,32,0,2,,,,,,,,0,,,65,0
33080,note_on,8,0,2,,,,,,,,0,,,61,71
33080,note_on,8,0,3,,,,,,,,0,,,56,71
33104,note_on,64,0,1,,,,,,,,0,,,73,0
33112,note_on,32,0,2,,,,,,,,0,,,61,0
33112,note_on,32,0,3,,,,,,,,0,,,56,0
33120,note_on,8,0,3,,,,,,,,0,,,46,100
33120,note_on,16,0,1,,,,,,,,0,,,66,100
33135,note_on,15,0,3,,,,,,,,0,,,54,99
33135,note_on,15,0,1,,,,,,,,0,,,73,99
33150,note_on,15,0,1,,,,,,,,0,,,82,99
33150,note_on,15,0,3,,,,,,,,0,,,58,99
33205,control_change,934,0,4,,,,,,,,0,64,127,,
33222,note_on,0,0,3,,,,,,,,0,,,54,0
33222,note_on,0,0,3,,,,,,,,0,,,46,0
33222,note_on,72,0,1,,,,,,,,0,,,82,0
33222,note_on,72,0,3,,,,,,,,0,,,58,0
33222,note_on,0,0,1,,,,,,,,0,,,66,0
33222,note_on,0,0,1,,,,,,,,0,,,73,0
33240,note_on,128,0,2,,,,,,,,0,,,70,96
33240,note_on,0,0,2,,,,,,,,0,,,85,96
33240,note_on,18,0,1,,,,,,,,0,,,78,96
33272,note_on,32,0,2,,,,,,,,0,,,85,0
33272,note_on,0,0,2,,,,,,,,0,,,70,0
33280,note_on,0,0,2,,,,,,,,0,,,87,94
33280,note_on,8,0,2,,,,,,,,0,,,71,94
33312,note_on,32,0,2,,,,,,,,0,,,87,0
33312,note_on,0,0,2,,,,,,,,0,,,71,0
33320,note_on,0,0,2,,,,,,,,0,,,85,93
33320,note_on,8,0,2,,,,,,,,0,,,70,93
33336,note_on,96,0,1,,,,,,,,0,,,78,0
33352,note_on,0,0,2,,,,,,,,0,,,70,0
33352,note_on,32,0,2,,,,,,,,0,,,85,0
33360,note_on,8,0,2,,,,,,,,0,,,66,92
33360,note_on,24,0,1,,,,,,,,0,,,73,92
33360,note_on,0,0,2,,,,,,,,0,,,82,92
33392,note_on,0,0,2,,,,,,,,0,,,66,0
33392,note_on,32,0,2,,,,,,,,0,,,82,0
33400,note_on,8,0,2,,,,,,,,0,,,83,90
33400,note_on,0,0,2,,,,,,,,0,,,68,90
33432,note_on,0,0,2,,,,,,,,0,,,83,0
33432,note_on,32,0,2,,,,,,,,0,,,68,0
33440,note_on,0,0,2,,,,,,,,0,,,82,89
33440,note_on,8,0,2,,,,,,,,0,,,66,89
33456,note_on,96,0,1,,,,,,,,0,,,73,0
33472,note_on,32,0,2,,,,,,,,0,,,82,0
33472,note_on,0,0,2,,,,,,,,0,,,66,0
33480,note_on,24,0,1,,,,,,,,0,,,70,87
33480,note_on,8,0,2,,,,,,,,0,,,61,87
33480,note_on,0,0,2,,,,,,,,0,,,78,87
33512,note_on,0,0,2,,,,,,,,0,,,61,0
33512,note_on,32,0,2,,,,,,,,0,,,78,0
33520,note_on,0,0,2,,,,,,,,0,,,80,86
33520,note_on,8,0,2,,,,,,,,0,,,63,86
33552,note_on,0,0,2,,,,,,,,0,,,63,0
33552,note_on,32,0,2,,,,,,,,0,,,80,0
33560,note_on,0,0,2,,,,,,,,0,,,78,85
33560,note_on,8,0,2,,,,,,,,0,,,61,85
33576,note_on,96,0,1,,,,,,,,0,,,70,0
33592,note_on,0,0,2,,,,,,,,0,,,61,0
33592,note_on,32,0,2,,,,,,,,0,,,78,0
33600,note_on,0,0,2,,,,,,,,0,,,58,83
33600,note_on,24,0,1,,,,,,,,0,,,66,83
33600,note_on,8,0,2,,,,,,,,0,,,73,83
33632,note_on,0,0,2,,,,,,,,0,,,73,0
33632,note_on,32,0,2,,,,,,,,0,,,58,0
33640,note_on,0,0,2,,,,,,,,0,,,75,82
33640,note_on,8,0,2,,,,,,,,0,,,59,82
33672,note_on,0,0,2,,,,,,,,0,,,59,0
33672,note_on,32,0,2,,,,,,,,0,,,75,0
33680,note_on,8,0,2,,,,,,,,0,,,73,81
33680,note_on,0,0,2,,,,,,,,0,,,58,81
33696,note_on,96,0,1,,,,,,,,0,,,66,0
33712,note_on,0,0,2,,,,,,,,0,,,73,0
33712,note_on,32,0,2,,,,,,,,0,,,58,0
33720,note_on,8,0,2,,,,,,,,0,,,54,79
33720,note_on,0,0,2,,,,,,,,0,,,70,79
33720,note_on,24,0,1,,,,,,,,0,,,61,79
33752,note_on,0,0,2,,,,,,,,0,,,54,0
33752,note_on,32,0,2,,,,,,,,0,,,70,0
33760,note_on,8,0,2,,,,,,,,0,,,71,78
33760,note_on,0,0,2,,,,,,,,0,,,56,78
33792,note_on,32,0,2,,,,,,,,0,,,56,0
33792,note_on,0,0,2,,,,,,,,0,,,71,0
33800,note_on,0,0,2,,,,,,,,0,,,54,76
33800,note_on,8,0,2,,,,,,,,0,,,70,76
33816,note_on,96,0,1,,,,,,,,0,,,61,0
33832,note_on,32,0,2,,,,,,,,0,,,54,0
33832,control_change,627,0,4,,,,,,,,0,64,0,,
33832,note_on,0,0,2,,,,,,,,0,,,70,0
33840,note_on,24,0,1,,,,,,,,0,,,58,75
33840,note_on,8,0,2,,,,,,,,0,,,49,75
33840,note_on,0,0,2,,,,,,,,0,,,66,75
33872,note_on,32,0,2,,,,,,,,0,,,66,0
33872,note_on,0,0,2,,,,,,,,0,,,49,0
33880,note_on,8,0,2,,,,,,,,0,,,68,74
33880,note_on,0,0,2,,,,,,,,0,,,51,74
33912,note_on,32,0,2,,,,,,,,0,,,51,0
33912,note_on,0,0,2,,,,,,,,0,,,68,0
33920,note_on,0,0,2,,,,,,,,0,,,66,72
33920,note_on,8,0,2,,,,,,,,0,,,49,72
33936,note_on,96,0,1,,,,,,,,0,,,58,0
33952,note_on,0,0,2,,,,,,,,0,,,49,0
33952,note_on,32,0,2,,,,,,,,0,,,66,0
33960,note_on,0,0,2,,,,,,,,0,,,61,71
33960,note_on,8,0,2,,,,,,,,0,,,46,71
33960,note_on,24,0,1,,,,,,,,0,,,54,71
33992,note_on,0,0,2,,,,,,,,0,,,46,0
33992,note_on,32,0,2,,,,,,,,0,,,61,0
34000,note_on,8,0,2,,,,,,,,0,,,63,69
34000,note_on,0,0,2,,,,,,,,0,,,47,69
34032,note_on,32,0,2,,,,,,,,0,,,47,0
34032,note_on,0,0,2,,,,,,,,0,,,63,0
34040,note_on,0,0,2,,,,,,,,0,,,46,68
34040,note_on,8,0,2,,,,,,,,0,,,61,68
34056,note_on,96,0,1,,,,,,,,0,,,54,0
34072,note_on,0,0,2,,,,,,,,0,,,61,0
34072,note_on,32,0,2,,,,,,,,0,,,46,0
34080,note_on,858,0,3,,,,,,,,0,,,34,67
34112,note_on,32,0,3,,,,,,,,0,,,34,0
34120,note_on,48,0,2,,,,,,,,0,,,60,65
34120,note_on,8,0,3,,,,,,,,0,,,54,65
34152,note_on,32,0,2,,,,,,,,0,,,60,0
34152,note_on,32,0,3,,,,,,,,0,,,54,0
34160,note_on,8,0,3,,,,,,,,0,,,49,64
34160,note_on,8,0,2,,,,,,,,0,,,66,64
34160,note_on,104,0,1,,,,,,,,0,,,72,64
34192,note_on,32,0,2,,,,,,,,0,,,66,0
34192,note_on,32,0,3,,,,,,,,0,,,49,0
34200,note_on,8,0,2,,,,,,,,0,,,61,62
34200,note_on,8,0,3,,,,,,,,0,,,46,62
34224,note_on,64,0,1,,,,,,,,0,,,72,0
34232,note_on,32,0,2,,,,,,,,0,,,61,0
34232,note_on,32,0,3,,,,,,,,0,,,46,0
34240,note_on,8,0,3,,,,,,,,0,,,54,61
34240,note_on,8,0,2,,,,,,,,0,,,66,61
34240,note_on,16,0,1,,,,,,,,0,,,73,61
34272,note_on,32,0,3,,,,,,,,0,,,54,0
34272,note_on,32,0,2,,,,,,,,0,,,66,0
34280,note_on,8,0,3,,,,,,,,0,,,49,60
34280,note_on,8,0,2,,,,,,,,0,,,61,60
34304,note_on,64,0,1,,,,,,,,0,,,73,0
34312,note_on,32,0,3,,,,,,,,0,,,49,0
34312,note_on,32,0,2,,,,,,,,0,,,61,0
34320,note_on,8,0,3,,,,,,,,0,,,35,58
34352,note_on,32,0,3,,,,,,,,0,,,35,0
34360,note_on,48,0,2,,,,,,,,0,,,62,57
34360,note_on,8,0,3,,,,,,,,0,,,56,57
34392,note_on,32,0,2,,,,,,,,0,,,62,0
34392,note_on,32,0,3,,,,,,,,0,,,56,0
34400,note_on,96,0,1,,,,,,,,0,,,74,56
34400,note_on,8,0,2,,,,,,,,0,,,65,56
34400,note_on,8,0,3,,,,,,,,0,,,50,56
34432,note_on,32,0,3,,,,,,,,0,,,50,0
34432,note_on,32,0,2,,,,,,,,0,,,65,0
34440,note_on,8,0,3,,,,,,,,0,,,47,54
34440,note_on,8,0,2,,,,,,,,0,,,61,54
34464,note_on,64,0,1,,,,,,,,0,,,74,0
34472,note_on,32,0,3,,,,,,,,0,,,47,0
34472,note_on,32,0,2,,,,,,,,0,,,61,0
34480,note_on,16,0,1,,,,,,,,0,,,73,53
34480,note_on,8,0,2,,,,,,,,0,,,65,53
34480,note_on,8,0,3,,,,,,,,0,,,56,53
34512,note_on,32,0,2,,,,,,,,0,,,65,0
34512,note_on,32,0,3,,,,,,,,0,,,56,0
34520,note_on,8,0,3,,,,,,,,0,,,49,51
34520,note_on,8,0,2,,,,,,,,0,,,61,51
34544,note_on,64,0,1,,,,,,,,0,,,73,0
34552,note_on,32,0,2,,,,,,,,0,,,61,0
34552,note_on,32,0,3,,,,,,,,0,,,49,0
34560,note_on,728,0,4,,,,,,,,0,,,34,50
34592,note_on,32,0,4,,,,,,,,0,,,34,0
34600,note_on,48,0,2,,,,,,,,0,,,60,51
34600,note_on,8,0,4,,,,,,,,0,,,54,51
34632,note_on,32,0,2,,,,,,,,0,,,60,0
34632,note_on,32,0,4,,,,,,,,0,,,54,0
34640,note_on,8,0,4,,,,,,,,0,,,49,51
34640,note_on,96,0,1,,,,,,,,0,,,72,51
34640,note_on,8,0,2,,,,,,,,0,,,66,51
34672,note_on,32,0,4,,,,,,,,0,,,49,0
34672,note_on,32,0,2,,,,,,,,0,,,66,0
34680,note_on,8,0,2,,,,,,,,0,,,61,52
34680,note_on,8,0,4,,,,,,,,0,,,46,52
34704,note_on,64,0,1,,,,,,,,0,,,72,0
34712,note_on,32,0,4,,,,,,,,0,,,46,0
34712,note_on,32,0,2,,,,,,,,0,,,61,0
34720,note_on,16,0,1,,,,,,,,0,,,73,52
34720,note_on,8,0,2,,,,,,,,0,,,66,52
34720,note_on,8,0,4,,,,,,,,0,,,54,52
34752,note_on,32,0,2,,,,,,,,0,,,66,0
34752,note_on,32,0,4,,,,,,,,0,,,54,0
34760,note_on,8,0,2,,,,,,,,0,,,61,53
34760,note_on,8,0,4,,,,,,,,0,,,49,53
34784,note_on,64,0,1,,,,,,,,0,,,73,0
34792,note_on,32,0,2,,,,,,,,0,,,61,0
34792,note_on,32,0,4,,,,,,,,0,,,49,0
34800,note_on,8,0,4,,,,,,,,0,,,37,53
34832,note_on,32,0,4,,,,,,,,0,,,37,0
34840,note_on,8,0,4,,,,,,,,0,,,58,54
34840,note_on,48,0,2,,,,,,,,0,,,64,54
34872,note_on,32,0,2,,,,,,,,0,,,64,0
34872,note_on,32,0,4,,,,,,,,0,,,58,0
34880,note_on,96,0,1,,,,,,,,0,,,76,54
34880,note_on,8,0,2,,,,,,,,0,,,67,54
34880,note_on,8,0,4,,,,,,,,0,,,52,54
34912,note_on,32,0,4,,,,,,,,0,,,52,0
34912,note_on,32,0,2,,,,,,,,0,,,67,0
34920,note_on,8,0,4,,,,,,,,0,,,49,55
34920,note_on,8,0,2,,,,,,,,0,,,63,55
34944,note_on,64,0,1,,,,,,,,0,,,76,0
34952,note_on,32,0,2,,,,,,,,0,,,63,0
34952,note_on,32,0,4,,,,,,,,0,,,49,0
34960,note_on,8,0,2,,,,,,,,0,,,67,56
34960,note_on,8,0,4,,,,,,,,0,,,58,56
34960,note_on,16,0,1,,,,,,,,0,,,75,56
34992,note_on,32,0,2,,,,,,,,0,,,67,0
34992,note_on,32,0,4,,,,,,,,0,,,58,0
35000,note_on,8,0,4,,,,,,,,0,,,51,56
35000,note_on,8,0,2,,,,,,,,0,,,63,56
35024,note_on,64,0,1,,,,,,,,0,,,75,0
35032,note_on,32,0,4,,,,,,,,0,,,51,0
35032,note_on,32,0,2,,,,,,,,0,,,63,0
35040,note_on,8,0,4,,,,,,,,0,,,36,57
35072,note_on,32,0,4,,,,,,,,0,,,36,0
35080,note_on,48,0,2,,,,,,,,0,,,62,57
35080,note_on,8,0,4,,,,,,,,0,,,56,57
35112,note_on,32,0,4,,,,,,,,0,,,56,0
35112,note_on,32,0,2,,,,,,,,0,,,62,0
35120,note_on,96,0,1,,,,,,,,0,,,74,58
35120,note_on,8,0,4,,,,,,,,0,,,51,58
35120,note_on,8,0,2,,,,,,,,0,,,68,58
35152,note_on,32,0,4,,,,,,,,0,,,51,0
35152,note_on,32,0,2,,,,,,,,0,,,68,0
35160,note_on,8,0,4,,,,,,,,0,,,48,58
35160,note_on,8,0,2,,,,,,,,0,,,63,58
35184,note_on,64,0,1,,,,,,,,0,,,74,0
35192,note_on,32,0,2,,,,,,,,0,,,63,0
35192,note_on,32,0,4,,,,,,,,0,,,48,0
35200,note_on,8,0,4,,,,,,,,0,,,56,59
35200,note_on,16,0,1,,,,,,,,0,,,75,59
35200,note_on,8,0,2,,,,,,,,0,,,68,59
35232,note_on,32,0,4,,,,,,,,0,,,56,0
35232,note_on,32,0,2,,,,,,,,0,,,68,0
35240,note_on,8,0,2,,,,,,,,0,,,63,59
35240,note_on,8,0,4,,,,,,,,0,,,51,59
35264,note_on,64,0,1,,,,,,,,0,,,75,0
35272,note_on,32,0,4,,,,,,,,0,,,51,0
35272,note_on,32,0,2,,,,,,,,0,,,63,0
35280,note_on,8,0,4,,,,,,,,0,,,39,60
35312,note_on,32,0,4,,,,,,,,0,,,39,0
35320,note_on,8,0,4,,,,,,,,0,,,60,61
35320,note_on,48,0,2,,,,,,,,0,,,66,61
35352,note_on,32,0,2,,,,,,,,0,,,66,0
35352,note_on,32,0,4,,,,,,,,0,,,60,0
35360,note_on,8,0,4,,,,,,,,0,,,54,61
35360,note_on,8,0,2,,,,,,,,0,,,69,61
35360,note_on,96,0,1,,,,,,,,0,,,78,61
35392,note_on,32,0,2,,,,,,,,0,,,69,0
35392,note_on,32,0,4,,,,,,,,0,,,54,0
35400,note_on,8,0,2,,,,,,,,0,,,65,62
35400,note_on,8,0,4,,,,,,,,0,,,51,62
35424,note_on,64,0,1,,,,,,,,0,,,78,0
35432,note_on,32,0,2,,,,,,,,0,,,65,0
35432,note_on,32,0,4,,,,,,,,0,,,51,0
35440,note_on,8,0,4,,,,,,,,0,,,60,62
35440,note_on,16,0,1,,,,,,,,0,,,77,62
35440,note_on,8,0,2,,,,,,,,0,,,69,62
35472,note_on,32,0,4,,,,,,,,0,,,60,0
35472,note_on,32,0,2,,,,,,,,0,,,69,0
35480,note_on,8,0,2,,,,,,,,0,,,65,63
35480,note_on,8,0,4,,,,,,,,0,,,53,63
35504,note_on,64,0,1,,,,,,,,0,,,77,0
35512,note_on,32,0,4,,,,,,,,0,,,53,0
35512,note_on,32,0,2,,,,,,,,0,,,65,0
35520,control_change,0,0,4,,,,,,,,0,64,127,,
35520,note_on,8,0,4,,,,,,,,0,,,37,63
35552,note_on,32,0,4,,,,,,,,0,,,37,0
35560,note_on,48,0,2,,,,,,,,0,,,65,64
35560,note_on,8,0,4,,,,,,,,0,,,61,64
35592,note_on,32,0,4,,,,,,,,0,,,61,0
35592,note_on,32,0,2,,,,,,,,0,,,65,0
35600,note_on,96,0,1,,,,,,,,0,,,76,64
35600,note_on,8,0,2,,,,,,,,0,,,70,64
35600,note_on,8,0,4,,,,,,,,0,,,58,64
35632,note_on,32,0,2,,,,,,,,0,,,70,0
35632,note_on,32,0,4,,,,,,,,0,,,58,0
35640,note_on,8,0,4,,,,,,,,0,,,53,65
35640,note_on,8,0,2,,,,,,,,0,,,65,65
35664,note_on,64,0,1,,,,,,,,0,,,76,0
35672,note_on,32,0,4,,,,,,,,0,,,53,0
35672,note_on,32,0,2,,,,,,,,0,,,65,0
35680,note_on,16,0,1,,,,,,,,0,,,79,66
35680,note_on,8,0,4,,,,,,,,0,,,61,66
35680,note_on,8,0,2,,,,,,,,0,,,70,66
35712,note_on,32,0,4,,,,,,,,0,,,61,0
35712,note_on,32,0,2,,,,,,,,0,,,70,0
35720,note_on,8,0,2,,,,,,,,0,,,65,66
35720,note_on,8,0,4,,,,,,,,0,,,58,66
35744,note_on,64,0,1,,,,,,,,0,,,79,0
35752,note_on,32,0,2,,,,,,,,0,,,65,0
35752,note_on,32,0,4,,,,,,,,0,,,58,0
35760,note_on,8,0,2,,,,,,,,0,,,70,67
35760,note_on,16,0,1,,,,,,,,0,,,77,67
35760,note_on,8,0,4,,,,,,,,0,,,49,67
35792,note_on,32,0,4,,,,,,,,0,,,49,0
35792,note_on,32,0,2,,,,,,,,0,,,70,0
35800,note_on,8,0,2,,,,,,,,0,,,65,67
35800,note_on,8,0,4,,,,,,,,0,,,61,67
35824,note_on,64,0,1,,,,,,,,0,,,77,0
35832,note_on,32,0,4,,,,,,,,0,,,61,0
35832,note_on,32,0,2,,,,,,,,0,,,65,0
35840,note_on,16,0,1,,,,,,,,0,,,85,68
35840,note_on,8,0,4,,,,,,,,0,,,58,68
35872,note_on,32,0,4,,,,,,,,0,,,58,0
35880,note_on,8,0,4,,,,,,,,0,,,53,68
35880,note_on,48,0,2,,,,,,,,0,,,65,68
35904,note_on,64,0,1,,,,,,,,0,,,85,0
35912,note_on,32,0,4,,,,,,,,0,,,53,0
35912,note_on,32,0,2,,,,,,,,0,,,65,0
35920,note_on,8,0,4,,,,,,,,0,,,61,69
35920,note_on,16,0,1,,,,,,,,0,,,82,69
35952,note_on,32,0,4,,,,,,,,0,,,61,0
35960,note_on,8,0,4,,,,,,,,0,,,58,69
35960,note_on,48,0,2,,,,,,,,0,,,65,69
35984,note_on,64,0,1,,,,,,,,0,,,82,0
35992,note_on,32,0,2,,,,,,,,0,,,65,0
35992,note_on,32,0,4,,,,,,,,0,,,58,0
36000,control_change,8,0,4,,,,,,,,0,64,0,,
36000,note_on,0,0,4,,,,,,,,0,,,43,70
36010,control_change,10,0,4,,,,,,,,0,64,127,,
36032,note_on,22,0,4,,,,,,,,0,,,43,0
36040,note_on,48,0,2,,,,,,,,0,,,65,71
36040,note_on,8,0,4,,,,,,,,0,,,61,71
36072,note_on,32,0,2,,,,,,,,0,,,65,0
36072,note_on,32,0,4,,,,,,,,0,,,61,0
36080,note_on,96,0,1,,,,,,,,0,,,76,71
36080,note_on,0,0,4,,,,,,,,0,,,55,71
36080,note_on,8,0,2,,,,,,,,0,,,70,71
36080,note_on,0,0,4,,,,,,,,0,,,58,71
36080,note_on,8,0,4,,,,,,,,0,,,53,71
36112,note_on,32,0,4,,,,,,,,0,,,58,0
36112,note_on,0,0,4,,,,,,,,0,,,55,0
36112,note_on,0,0,4,,,,,,,,0,,,53,0
36112,note_on,32,0,2,,,,,,,,0,,,70,0
36120,note_on,8,0,4,,,,,,,,0,,,61,72
36120,note_on,8,0,2,,,,,,,,0,,,65,72
36144,note_on,64,0,1,,,,,,,,0,,,76,0
36152,note_on,32,0,4,,,,,,,,0,,,61,0
36152,note_on,32,0,2,,,,,,,,0,,,65,0
36160,note_on,0,0,4,,,,,,,,0,,,55,72
36160,note_on,0,0,4,,,,,,,,0,,,58,72
36160,note_on,8,0,4,,,,,,,,0,,,53,72
36160,note_on,8,0,2,,,,,,,,0,,,70,72
36160,note_on,16,0,1,,,,,,,,0,,,79,72
36192,note_on,32,0,2,,,,,,,,0,,,70,0
36192,note_on,0,0,4,,,,,,,,0,,,53,0
36192,note_on,32,0,4,,,,,,,,0,,,58,0
36192,note_on,0,0,4,,,,,,,,0,,,55,0
36200,note_on,8,0,2,,,,,,,,0,,,65,73
36200,note_on,8,0,4,,,,,,,,0,,,61,73
36224,note_on,64,0,1,,,,,,,,0,,,79,0
36232,note_on,32,0,4,,,,,,,,0,,,61,0
36232,note_on,32,0,2,,,,,,,,0,,,65,0
36240,note_on,8,0,2,,,,,,,,0,,,70,73
36240,note_on,16,0,1,,,,,,,,0,,,77,73
36240,note_on,8,0,4,,,,,,,,0,,,53,73
36240,note_on,0,0,4,,,,,,,,0,,,58,73
36240,note_on,0,0,4,,,,,,,,0,,,55,73
36272,note_on,32,0,4,,,,,,,,0,,,58,0
36272,note_on,0,0,4,,,,,,,,0,,,55,0
36272,note_on,32,0,2,,,,,,,,0,,,70,0
36272,note_on,0,0,4,,,,,,,,0,,,53,0
36280,note_on,8,0,4,,,,,,,,0,,,61,74
36280,note_on,8,0,2,,,,,,,,0,,,65,74
36304,note_on,64,0,1,,,,,,,,0,,,77,0
36312,note_on,32,0,2,,,,,,,,0,,,65,0
36312,note_on,32,0,4,,,,,,,,0,,,61,0
36320,note_on,0,0,4,,,,,,,,0,,,53,74
36320,note_on,0,0,4,,,,,,,,0,,,58,74
36320,note_on,16,0,1,,,,,,,,0,,,89,74
36320,note_on,8,0,4,,,,,,,,0,,,55,74
36352,note_on,0,0,4,,,,,,,,0,,,58,0
36352,note_on,32,0,4,,,,,,,,0,,,53,0
36352,note_on,0,0,4,,,,,,,,0,,,55,0
36360,note_on,8,0,4,,,,,,,,0,,,61,75
36360,note_on,48,0,2,,,,,,,,0,,,65,75
36384,note_on,64,0,1,,,,,,,,0,,,89,0
36392,note_on,32,0,4,,,,,,,,0,,,61,0
36392,note_on,32,0,2,,,,,,,,0,,,65,0
36400,note_on,8,0,4,,,,,,,,0,,,53,76
36400,note_on,0,0,4,,,,,,,,0,,,58,76
36400,note_on,16,0,1,,,,,,,,0,,,85,76
36400,note_on,0,0,4,,,,,,,,0,,,55,76
36432,note_on,0,0,4,,,,,,,,0,,,53,0
36432,note_on,0,0,4,,,,,,,,0,,,58,0
36432,note_on,32,0,4,,,,,,,,0,,,55,0
36440,note_on,8,0,4,,,,,,,,0,,,61,76
36440,note_on,48,0,2,,,,,,,,0,,,65,76
36464,note_on,64,0,1,,,,,,,,0,,,85,0
36472,note_on,32,0,2,,,,,,,,0,,,65,0
36472,note_on,32,0,4,,,,,,,,0,,,61,0
36480,note_on,1928,0,3,,,,,,,,0,,,38,77
36490,control_change,18,0,4,,,,,,,,0,64,0,,
36520,note_on,30,0,4,,,,,,,,0,,,62,77
36520,note_on,48,0,2,,,,,,,,0,,,65,77
36552,note_on,32,0,4,,,,,,,,0,,,62,0
36552,note_on,32,0,2,,,,,,,,0,,,65,0
36560,note_on,8,0,4,,,,,,,,0,,,59,78
36560,note_on,96,0,1,,,,,,,,0,,,76,78
36560,note_on,0,0,4,,,,,,,,0,,,56,78
36560,note_on,8,0,2,,,,,,,,0,,,71,78
36576,note_on,96,0,3,,,,,,,,0,,,38,0
36592,note_on,0,0,4,,,,,,,,0,,,59,0
36592,note_on,32,0,4,,,,,,,,0,,,56,0
36592,note_on,32,0,2,,,,,,,,0,,,71,0
36600,note_on,8,0,4,,,,,,,,0,,,53,78
36600,note_on,8,0,2,,,,,,,,0,,,65,78
36624,note_on,64,0,1,,,,,,,,0,,,76,0
36632,note_on,32,0,2,,,,,,,,0,,,65,0
36632,note_on,32,0,4,,,,,,,,0,,,53,0
36640,note_on,8,0,4,,,,,,,,0,,,62,79
36640,note_on,8,0,2,,,,,,,,0,,,71,79
36640,note_on,16,0,1,,,,,,,,0,,,79,94
36672,note_on,32,0,4,,,,,,,,0,,,62,0
36672,note_on,32,0,2,,,,,,,,0,,,71,0
36680,note_on,8,0,2,,,,,,,,0,,,65,79
36680,note_on,8,0,4,,,,,,,,0,,,56,79
36680,note_on,0,0,4,,,,,,,,0,,,59,79
36704,note_on,64,0,1,,,,,,,,0,,,79,0
36712,note_on,32,0,4,,,,,,,,0,,,59,0
36712,note_on,0,0,4,,,,,,,,0,,,56,0
36712,note_on,32,0,2,,,,,,,,0,,,65,0
36720,note_on,16,0,1,,,,,,,,0,,,77,96
36720,note_on,144,0,3,,,,,,,,0,,,50,80
36720,note_on,8,0,2,,,,,,,,0,,,71,80
36752,note_on,32,0,2,,,,,,,,0,,,71,0
36760,note_on,8,0,2,,,,,,,,0,,,65,81
36760,note_on,48,0,4,,,,,,,,0,,,62,81
36784,note_on,64,0,1,,,,,,,,0,,,77,0
36792,note_on,32,0,2,,,,,,,,0,,,65,0
36792,note_on,32,0,4,,,,,,,,0,,,62,0
36800,note_on,8,0,4,,,,,,,,0,,,59,81
36800,note_on,0,0,4,,,,,,,,0,,,56,81
36800,note_on,16,0,1,,,,,,,,0,,,86,97
36816,note_on,96,0,3,,,,,,,,0,,,50,0
36832,note_on,0,0,4,,,,,,,,0,,,59,0
36832,note_on,32,0,4,,,,,,,,0,,,56,0
36840,note_on,48,0,2,,,,,,,,0,,,65,82
36840,note_on,8,0,4,,,,,,,,0,,,53,82
36864,note_on,64,0,1,,,,,,,,0,,,86,0
36872,note_on,32,0,2,,,,,,,,0,,,65,0
36872,note_on,32,0,4,,,,,,,,0,,,53,0
36880,note_on,16,0,1,,,,,,,,0,,,83,98
36880,note_on,8,0,4,,,,,,,,0,,,62,82
36912,note_on,32,0,4,,,,,,,,0,,,62,0
36920,note_on,8,0,4,,,,,,,,0,,,56,83
36920,note_on,48,0,2,,,,,,,,0,,,65,83
36920,note_on,0,0,4,,,,,,,,0,,,59,83
36944,note_on,64,0,1,,,,,,,,0,,,83,0
36952,note_on,32,0,2,,,,,,,,0,,,65,0
36952,note_on,32,0,4,,,,,,,,0,,,59,0
36952,note_on,0,0,4,,,,,,,,0,,,56,0
36960,note_on,144,0,3,,,,,,,,0,,,43,83
36965,control_change,13,0,4,,,,,,,,0,64,127,,
37000,note_on,35,0,4,,,,,,,,0,,,62,84
37000,note_on,48,0,2,,,,,,,,0,,,65,84
37032,note_on,32,0,2,,,,,,,,0,,,65,0
37032,note_on,32,0,4,,,,,,,,0,,,62,0
37040,note_on,0,0,4,,,,,,,,0,,,56,84
37040,note_on,0,0,4,,,,,,,,0,,,59,84
37040,note_on,8,0,2,,,,,,,,0,,,71,84
37040,note_on,96,0,1,,,,,,,,0,,,76,100
37040,note_on,8,0,4,,,,,,,,0,,,53,84
37056,note_on,96,0,3,,,,,,,,0,,,43,0
37072,note_on,0,0,4,,,,,,,,0,,,53,0
37072,note_on,32,0,4,,,,,,,,0,,,56,0
37072,note_on,0,0,4,,,,,,,,0,,,59,0
37072,note_on,32,0,2,,,,,,,,0,,,71,0
37080,note_on,8,0,2,,,,,,,,0,,,65,85
37080,note_on,8,0,4,,,,,,,,0,,,62,85
37104,note_on,64,0,1,,,,,,,,0,,,76,0
37112,note_on,32,0,4,,,,,,,,0,,,62,0
37112,note_on,32,0,2,,,,,,,,0,,,65,0
37120,note_on,8,0,2,,,,,,,,0,,,71,86
37120,note_on,16,0,1,,,,,,,,0,,,79,103
37120,note_on,0,0,4,,,,,,,,0,,,53,86
37120,note_on,0,0,4,,,,,,,,0,,,56,86
37120,note_on,8,0,4,,,,,,,,0,,,59,86
37152,note_on,32,0,2,,,,,,,,0,,,71,0
37152,note_on,32,0,4,,,,,,,,0,,,53,0
37152,note_on,0,0,4,,,,,,,,0,,,56,0
37152,note_on,0,0,4,,,,,,,,0,,,59,0
37160,note_on,8,0,4,,,,,,,,0,,,62,86
37160,note_on,8,0,2,,,,,,,,0,,,65,86
37184,note_on,64,0,1,,,,,,,,0,,,79,0
37192,note_on,32,0,4,,,,,,,,0,,,62,0
37192,note_on,32,0,2,,,,,,,,0,,,65,0
37200,note_on,8,0,2,,,,,,,,0,,,71,87
37200,note_on,16,0,1,,,,,,,,0,,,77,104
37200,note_on,8,0,4,,,,,,,,0,,,53,87
37200,note_on,0,0,4,,,,,,,,0,,,56,87
37200,note_on,0,0,4,,,,,,,,0,,,59,87
37232,note_on,0,0,4,,,,,,,,0,,,53,0
37232,note_on,32,0,4,,,,,,,,0,,,59,0
37232,note_on,0,0,4,,,,,,,,0,,,56,0
37232,note_on,32,0,2,,,,,,,,0,,,71,0
37240,note_on,8,0,4,,,,,,,,0,,,62,87
37240,note_on,8,0,2,,,,,,,,0,,,65,87
37264,note_on,64,0,1,,,,,,,,0,,,77,0
37272,note_on,32,0,2,,,,,,,,0,,,65,0
37272,note_on,32,0,4,,,,,,,,0,,,62,0
37280,note_on,8,0,4,,,,,,,,0,,,53,88
37280,note_on,16,0,1,,,,,,,,0,,,92,105
37280,note_on,0,0,4,,,,,,,,0,,,56,88
37280,note_on,0,0,4,,,,,,,,0,,,59,88
37312,note_on,0,0,4,,,,,,,,0,,,59,0
37312,note_on,32,0,4,,,,,,,,0,,,56,0
37312,note_on,0,0,4,,,,,,,,0,,,53,0
37320,note_on,48,0,2,,,,,,,,0,,,77,88
37320,note_on,8,0,4,,,,,,,,0,,,62,88
37344,note_on,64,0,1,,,,,,,,0,,,92,0
37352,note_on,32,0,2,,,,,,,,0,,,77,0
37352,note_on,32,0,4,,,,,,,,0,,,62,0
37360,note_on,8,0,4,,,,,,,,0,,,56,89
37360,note_on,0,0,4,,,,,,,,0,,,53,89
37360,note_on,0,0,4,,,,,,,,0,,,59,89
37360,note_on,16,0,1,,,,,,,,0,,,89,106
37392,note_on,32,0,4,,,,,,,,0,,,59,0
37392,note_on,0,0,4,,,,,,,,0,,,53,0
37392,note_on,0,0,4,,,,,,,,0,,,56,0
37400,note_on,48,0,2,,,,,,,,0,,,74,89
37400,note_on,8,0,4,,,,,,,,0,,,62,89
37424,note_on,64,0,1,,,,,,,,0,,,89,0
37432,note_on,32,0,4,,,,,,,,0,,,62,0
37432,note_on,32,0,2,,,,,,,,0,,,74,0
37440,note_on,0,0,4,,,,,,,,0,,,56,80
37440,note_on,0,0,4,,,,,,,,0,,,59,80
37440,note_on,16,0,1,,,,,,,,0,,,86,96
37440,note_on,8,0,4,,,,,,,,0,,,53,80
37445,control_change,5,0,4,,,,,,,,0,64,0,,
37461,control_change,16,0,4,,,,,,,,0,64,127,,
37472,note_on,0,0,4,,,,,,,,0,,,53,0
37472,note_on,11,0,4,,,,,,,,0,,,56,0
37472,note_on,0,0,4,,,,,,,,0,,,59,0
37480,note_on,8,0,4,,,,,,,,0,,,62,80
37480,note_on,48,0,2,,,,,,,,0,,,71,80
37504,note_on,64,0,1,,,,,,,,0,,,86,0
37512,note_on,32,0,2,,,,,,,,0,,,71,0
37512,note_on,32,0,4,,,,,,,,0,,,62,0
37520,note_on,8,0,4,,,,,,,,0,,,53,80
37520,note_on,0,0,4,,,,,,,,0,,,56,80
37520,note_on,0,0,4,,,,,,,,0,,,59,80
37520,note_on,16,0,1,,,,,,,,0,,,83,96
37552,note_on,0,0,4,,,,,,,,0,,,56,0
37552,note_on,32,0,4,,,,,,,,0,,,59,0
37552,note_on,0,0,4,,,,,,,,0,,,53,0
37560,note_on,48,0,2,,,,,,,,0,,,68,80
37560,note_on,8,0,4,,,,,,,,0,,,62,80
37584,note_on,64,0,1,,,,,,,,0,,,83,0
37592,note_on,32,0,2,,,,,,,,0,,,68,0
37592,note_on,32,0,4,,,,,,,,0,,,62,0
37600,note_on,0,0,4,,,,,,,,0,,,53,80
37600,note_on,8,0,4,,,,,,,,0,,,56,80
37600,note_on,0,0,4,,,,,,,,0,,,59,80
37600,note_on,16,0,1,,,,,,,,0,,,80,96
37632,note_on,0,0,4,,,,,,,,0,,,53,0
37632,note_on,32,0,4,,,,,,,,0,,,59,0
37632,note_on,0,0,4,,,,,,,,0,,,56,0
37640,note_on,48,0,2,,,,,,,,0,,,65,80
37640,note_on,8,0,4,,,,,,,,0,,,62,80
37664,note_on,64,0,1,,,,,,,,0,,,80,0
37672,note_on,32,0,2,,,,,,,,0,,,65,0
37672,note_on,32,0,4,,,,,,,,0,,,62,0
37680,note_on,16,0,1,,,,,,,,0,,,77,96
37680,note_on,624,0,3,,,,,,,,0,,,53,80
37720,note_on,0,0,2,,,,,,,,0,,,65,80
37720,note_on,48,0,2,,,,,,,,0,,,68,80
37720,note_on,0,0,4,,,,,,,,0,,,59,80
37720,note_on,48,0,4,,,,,,,,0,,,56,80
37720,note_on,0,0,4,,,,,,,,0,,,62,80
37744,note_on,64,0,3,,,,,,,,0,,,53,0
37744,note_on,64,0,1,,,,,,,,0,,,77,0
37752,note_on,32,0,2,,,,,,,,0,,,65,0
37752,note_on,32,0,4,,,,,,,,0,,,62,0
37752,note_on,0,0,4,,,,,,,,0,,,56,0
37752,note_on,0,0,4,,,,,,,,0,,,59,0
37752,note_on,0,0,2,,,,,,,,0,,,68,0
37760,note_on,16,0,3,,,,,,,,0,,,50,80
37760,note_on,16,0,1,,,,,,,,0,,,74,96
37800,note_on,48,0,2,,,,,,,,0,,,62,80
37800,note_on,0,0,2,,,,,,,,0,,,65,80
37800,note_on,48,0,4,,,,,,,,0,,,53,80
37800,note_on,0,0,4,,,,,,,,0,,,59,80
37800,note_on,0,0,4,,,,,,,,0,,,56,80
37824,note_on,64,0,1,,,,,,,,0,,,74,0
37824,note_on,64,0,3,,,,,,,,0,,,50,0
37832,note_on,32,0,2,,,,,,,,0,,,65,0
37832,note_on,0,0,2,,,,,,,,0,,,62,0
37832,note_on,0,0,4,,,,,,,,0,,,56,0
37832,note_on,0,0,4,,,,,,,,0,,,53,0
37832,note_on,32,0,4,,,,,,,,0,,,59,0
37840,note_on,16,0,3,,,,,,,,0,,,47,80
37840,note_on,16,0,1,,,,,,,,0,,,71,96
37880,note_on,0,0,4,,,,,,,,0,,,50,80
37880,note_on,48,0,2,,,,,,,,0,,,59,80
37880,note_on,0,0,2,,,,,,,,0,,,62,80
37880,note_on,0,0,4,,,,,,,,0,,,53,80
37880,note_on,48,0,4,,,,,,,,0,,,56,80
37904,note_on,64,0,1,,,,,,,,0,,,71,0
37904,note_on,64,0,3,,,,,,,,0,,,47,0
37912,note_on,0,0,4,,,,,,,,0,,,50,0
37912,note_on,0,0,4,,,,,,,,0,,,56,0
37912,note_on,32,0,2,,,,,,,,0,,,62,0
37912,note_on,0,0,2,,,,,,,,0,,,59,0
37912,note_on,32,0,4,,,,,,,,0,,,53,0
37920,note_on,16,0,1,,,,,,,,0,,,68,96
37920,note_on,16,0,3,,,,,,,,0,,,44,80
37941,control_change,29,0,4,,,,,,,,0,64,0,,
37960,note_on,0,0,4,,,,,,,,0,,,47,80
37960,note_on,0,0,4,,,,,,,,0,,,53,80
37960,note_on,0,0,2,,,,,,,,0,,,59,80
37960,note_on,48,0,2,,,,,,,,0,,,56,80
37960,note_on,19,0,4,,,,,,,,0,,,50,80
37984,note_on,64,0,3,,,,,,,,0,,,44,0
37984,note_on,64,0,1,,,,,,,,0,,,68,0
37992,note_on,0,0,2,,,,,,,,0,,,56,0
37992,note_on,32,0,2,,,,,,,,0,,,59,0
37992,note_on,0,0,4,,,,,,,,0,,,50,0
37992,note_on,0,0,4,,,,,,,,0,,,53,0
37992,note_on,32,0,4,,,,,,,,0,,,47,0
38000,note_on,16,0,1,,,,,,,,0,,,64,96
38000,note_on,16,0,3,,,,,,,,0,,,40,80
38040,note_on,48,0,4,,,,,,,,0,,,44,80
38040,note_on,48,0,2,,,,,,,,0,,,52,80
38040,note_on,0,0,2,,,,,,,,0,,,56,80
38040,note_on,0,0,4,,,,,,,,0,,,47,80
38040,note_on,0,0,4,,,,,,,,0,,,50,80
38064,note_on,64,0,1,,,,,,,,0,,,64,0
38064,note_on,64,0,3,,,,,,,,0,,,40,0
38072,note_on,32,0,4,,,,,,,,0,,,50,0
38072,note_on,0,0,2,,,,,,,,0,,,52,0
38072,note_on,0,0,4,,,,,,,,0,,,44,0
38072,note_on,32,0,2,,,,,,,,0,,,56,0
38072,note_on,0,0,4,,,,,,,,0,,,47,0
38080,note_on,16,0,1,,,,,,,,0,,,67,96
38080,note_on,16,0,3,,,,,,,,0,,,43,80
38120,note_on,0,0,4,,,,,,,,0,,,47,80
38120,note_on,48,0,2,,,,,,,,0,,,55,80
38120,note_on,0,0,4,,,,,,,,0,,,50,80
38120,note_on,0,0,2,,,,,,,,0,,,56,80
38120,note_on,48,0,4,,,,,,,,0,,,44,80
38144,note_on,64,0,3,,,,,,,,0,,,43,0
38144,note_on,64,0,1,,,,,,,,0,,,67,0
38152,note_on,32,0,4,,,,,,,,0,,,50,0
38152,note_on,0,0,4,,,,,,,,0,,,44,0
38152,note_on,32,0,2,,,,,,,,0,,,56,0
38152,note_on,0,0,2,,,,,,,,0,,,55,0
38152,note_on,0,0,4,,,,,,,,0,,,47,0
38160,note_on,16,0,1,,,,,,,,0,,,65,80
38160,note_on,16,0,3,,,,,,,,0,,,41,80
38200,note_on,0,0,4,,,,,,,,0,,,44,80
38200,note_on,48,0,4,,,,,,,,0,,,50,80
38200,note_on,0,0,2,,,,,,,,0,,,53,80
38200,note_on,0,0,4,,,,,,,,0,,,47,80
38200,note_on,48,0,2,,,,,,,,0,,,56,80
38224,note_on,64,0,1,,,,,,,,0,,,65,0
38224,note_on,64,0,3,,,,,,,,0,,,41,0
38232,note_on,0,0,2,,,,,,,,0,,,56,0
38232,note_on,0,0,4,,,,,,,,0,,,50,0
38232,note_on,0,0,4,,,,,,,,0,,,44,0
38232,note_on,32,0,4,,,,,,,,0,,,47,0
38232,note_on,32,0,2,,,,,,,,0,,,53,0
38240,note_on,16,0,3,,,,,,,,0,,,38,80
38240,note_on,16,0,1,,,,,,,,0,,,68,80
38280,note_on,0,0,2,,,,,,,,0,,,53,80
38280,note_on,0,0,4,,,,,,,,0,,,47,80
38280,note_on,48,0,4,,,,,,,,0,,,44,80
38280,note_on,48,0,2,,,,,,,,0,,,56,80
38280,note_on,0,0,4,,,,,,,,0,,,50,80
38304,note_on,64,0,3,,,,,,,,0,,,38,0
38304,note_on,64,0,1,,,,,,,,0,,,68,0
38312,note_on,32,0,2,,,,,,,,0,,,53,0
38312,note_on,0,0,2,,,,,,,,0,,,56,0
38312,note_on,0,0,4,,,,,,,,0,,,44,0
38312,note_on,0,0,4,,,,,,,,0,,,50,0
38312,note_on,32,0,4,,,,,,,,0,,,47,0
38320,note_on,16,0,1,,,,,,,,0,,,59,80
38320,note_on,16,0,3,,,,,,,,0,,,37,80
38360,note_on,48,0,4,,,,,,,,0,,,43,80
38360,note_on,0,0,4,,,,,,,,0,,,49,80
38360,note_on,48,0,2,,,,,,,,0,,,55,80
38360,note_on,0,0,2,,,,,,,,0,,,53,80
38360,note_on,0,0,4,,,,,,,,0,,,47,80
38384,note_on,64,0,1,,,,,,,,0,,,59,0
38384,note_on,64,0,3,,,,,,,,0,,,37,0
38392,note_on,0,0,2,,,,,,,,0,,,55,0
38392,note_on,32,0,4,,,,,,,,0,,,47,0
38392,note_on,0,0,4,,,,,,,,0,,,49,0
38392,note_on,32,0,2,,,,,,,,0,,,53,0
38392,note_on,0,0,4,,,,,,,,0,,,43,0
38400,note_on,16,0,1,,,,,,,,0,,,60,80
38400,note_on,0,0,3,,,,,,,,0,,,48,80
38400,note_on,16,0,3,,,,,,,,0,,,52,80
38400,note_on,0,0,3,,,,,,,,0,,,36,80
38400,note_on,0,0,3,,,,,,,,0,,,43,80
38496,note_on,0,0,3,,,,,,,,0,,,52,0
38496,note_on,0,0,3,,,,,,,,0,,,48,0
38496,note_on,96,0,1,,,,,,,,0,,,60,0
38496,note_on,0,0,3,,,,,,,,0,,,43,0
38496,note_on,96,0,3,,,,,,,,0,,,36,0
38520,note_on,128,0,2,,,,,,,,0,,,68,80
38520,note_on,24,0,1,,,,,,,,0,,,73,80
38520,note_on,0,0,2,,,,,,,,0,,,65,80
38552,note_on,32,0,1,,,,,,,,0,,,73,0
38560,note_on,8,0,1,,,,,,,,0,,,87,80
38568,note_on,0,0,2,,,,,,,,0,,,68,0
38568,note_on,48,0,2,,,,,,,,0,,,65,0
38580,note_on,12,0,2,,,,,,,,0,,,67,80
38580,note_on,0,0,2,,,,,,,,0,,,70,80
38592,note_on,32,0,1,,,,,,,,0,,,87,0
38600,note_on,8,0,1,,,,,,,,0,,,85,80
38628,note_on,0,0,2,,,,,,,,0,,,67,0
38628,note_on,48,0,2,,,,,,,,0,,,70,0
38632,note_on,32,0,1,,,,,,,,0,,,85,0
38640,note_on,8,0,1,,,,,,,,0,,,84,80
38640,note_on,0,0,2,,,,,,,,0,,,67,80
38640,note_on,12,0,2,,,,,,,,0,,,63,80
38672,note_on,32,0,1,,,,,,,,0,,,84,0
38680,note_on,8,0,1,,,,,,,,0,,,73,80
38688,note_on,48,0,2,,,,,,,,0,,,67,0
38688,note_on,0,0,2,,,,,,,,0,,,63,0
38700,note_on,0,0,2,,,,,,,,0,,,65,80
38700,note_on,12,0,2,,,,,,,,0,,,68,80
38712,note_on,32,0,1,,,,,,,,0,,,73,0
38720,note_on,8,0,1,,,,,,,,0,,,72,80
38748,note_on,0,0,2,,,,,,,,0,,,68,0
38748,note_on,48,0,2,,,,,,,,0,,,65,0
38752,note_on,32,0,1,,,,,,,,0,,,72,0
38760,note_on,8,0,1,,,,,,,,0,,,70,80
38760,note_on,0,0,2,,,,,,,,0,,,65,80
38760,note_on,12,0,2,,,,,,,,0,,,61,80
38792,note_on,32,0,1,,,,,,,,0,,,70,0
38800,note_on,8,0,1,,,,,,,,0,,,84,80
38808,note_on,0,0,2,,,,,,,,0,,,61,0
38808,note_on,48,0,2,,,,,,,,0,,,65,0
38820,note_on,12,0,2,,,,,,,,0,,,67,80
38820,note_on,0,0,2,,,,,,,,0,,,63,80
38832,note_on,32,0,1,,,,,,,,0,,,84,0
38840,note_on,8,0,1,,,,,,,,0,,,82,80
38868,note_on,0,0,2,,,,,,,,0,,,67,0
38868,note_on,48,0,2,,,,,,,,0,,,63,0
38872,note_on,32,0,1,,,,,,,,0,,,82,0
38880,note_on,12,0,2,,,,,,,,0,,,60,80
38880,note_on,8,0,1,,,,,,,,0,,,80,80
38880,note_on,0,0,2,,,,,,,,0,,,63,80
38912,note_on,32,0,1,,,,,,,,0,,,80,0
38920,note_on,8,0,1,,,,,,,,0,,,70,80
38928,note_on,48,0,2,,,,,,,,0,,,63,0
38928,note_on,0,0,2,,,,,,,,0,,,60,0
38940,note_on,12,0,2,,,,,,,,0,,,65,80
38940,note_on,0,0,2,,,,,,,,0,,,61,80
38952,note_on,32,0,1,,,,,,,,0,,,70,0
38960,note_on,8,0,1,,,,,,,,0,,,68,80
38988,note_on,0,0,2,,,,,,,,0,,,65,0
38988,note_on,48,0,2,,,,,,,,0,,,61,0
38992,note_on,32,0,1,,,,,,,,0,,,68,0
39000,note_on,12,0,2,,,,,,,,0,,,58,80
39000,note_on,0,0,2,,,,,,,,0,,,61,80
39000,note_on,8,0,1,,,,,,,,0,,,67,80
39032,note_on,32,0,1,,,,,,,,0,,,67,0
39040,note_on,8,0,1,,,,,,,,0,,,80,80
39048,note_on,0,0,2,,,,,,,,0,,,58,0
39048,note_on,48,0,2,,,,,,,,0,,,61,0
39060,note_on,0,0,2,,,,,,,,0,,,60,80
39060,note_on,12,0,2,,,,,,,,0,,,63,80
39072,note_on,32,0,1,,,,,,,,0,,,80,0
39080,note_on,8,0,1,,,,,,,,0,,,79,80
39108,note_on,0,0,2,,,,,,,,0,,,63,0
39108,note_on,48,0,2,,,,,,,,0,,,60,0
39112,note_on,32,0,1,,,,,,,,0,,,79,0
39120,note_on,12,0,2,,,,,,,,0,,,60,80
39120,note_on,8,0,1,,,,,,,,0,,,77,80
39120,note_on,0,0,2,,,,,,,,0,,,56,80
39152,note_on,32,0,1,,,,,,,,0,,,77,0
39160,note_on,8,0,1,,,,,,,,0,,,67,80
39168,note_on,48,0,2,,,,,,,,0,,,56,0
39168,note_on,0,0,2,,,,,,,,0,,,60,0
39180,note_on,0,0,2,,,,,,,,0,,,61,80
39180,note_on,12,0,2,,,,,,,,0,,,58,80
39192,note_on,32,0,1,,,,,,,,0,,,67,0
39200,note_on,8,0,1,,,,,,,,0,,,65,80
39228,note_on,48,0,2,,,,,,,,0,,,61,0
39228,note_on,0,0,2,,,,,,,,0,,,58,0
39232,note_on,32,0,1,,,,,,,,0,,,65,0
39240,note_on,12,0,2,,,,,,,,0,,,55,80
39240,note_on,8,0,1,,,,,,,,0,,,63,80
39240,note_on,0,0,2,,,,,,,,0,,,58,80
39272,note_on,32,0,1,,,,,,,,0,,,63,0
39280,note_on,8,0,1,,,,,,,,0,,,77,80
39288,note_on,48,0,2,,,,,,,,0,,,58,0
39288,note_on,0,0,2,,,,,,,,0,,,55,0
39300,note_on,12,0,2,,,,,,,,0,,,56,80
39300,note_on,0,0,2,,,,,,,,0,,,60,80
39312,note_on,32,0,1,,,,,,,,0,,,77,0
39320,note_on,8,0,1,,,,,,,,0,,,75,80
39348,note_on,48,0,2,,,,,,,,0,,,60,0
39348,note_on,0,0,2,,,,,,,,0,,,56,0
39352,note_on,32,0,1,,,,,,,,0,,,75,0
39360,control_change,968,0,4,,,,,,,,0,64,127,,
39360,note_on,0,0,4,,,,,,,,0,,,56,80
39360,note_on,8,0,1,,,,,,,,0,,,73,80
39360,note_on,0,0,4,,,,,,,,0,,,53,80
39392,note_on,32,0,1,,,,,,,,0,,,73,0
39400,note_on,8,0,1,,,,,,,,0,,,61,80
39432,note_on,32,0,1,,,,,,,,0,,,61,0
39440,note_on,92,0,2,,,,,,,,0,,,60,80
39456,note_on,96,0,4,,,,,,,,0,,,53,0
39456,note_on,0,0,4,,,,,,,,0,,,56,0
39480,note_on,24,0,4,,,,,,,,0,,,36,80
39480,note_on,48,0,1,,,,,,,,0,,,72,80
39504,note_on,64,0,2,,,,,,,,0,,,60,0
39512,note_on,32,0,1,,,,,,,,0,,,72,0
39520,note_on,16,0,2,,,,,,,,0,,,73,80
39560,note_on,48,0,1,,,,,,,,0,,,61,80
39576,note_on,96,0,4,,,,,,,,0,,,36,0
39584,note_on,64,0,2,,,,,,,,0,,,73,0
39592,note_on,32,0,1,,,,,,,,0,,,61,0
39600,note_on,16,0,2,,,,,,,,0,,,64,80
39600,note_on,0,0,4,,,,,,,,0,,,49,80
39600,note_on,0,0,4,,,,,,,,0,,,53,80
39600,note_on,24,0,4,,,,,,,,0,,,55,80
39640,note_on,48,0,1,,,,,,,,0,,,76,80
39664,note_on,64,0,2,,,,,,,,0,,,64,0
39672,note_on,32,0,1,,,,,,,,0,,,76,0
39680,note_on,16,0,2,,,,,,,,0,,,77,80
39696,note_on,0,0,4,,,,,,,,0,,,55,0
39696,note_on,96,0,4,,,,,,,,0,,,53,0
39696,note_on,0,0,4,,,,,,,,0,,,49,0
39720,note_on,24,0,4,,,,,,,,0,,,36,80
39720,note_on,48,0,1,,,,,,,,0,,,65,80
39744,note_on,64,0,2,,,,,,,,0,,,77,0
39752,note_on,32,0,1,,,,,,,,0,,,65,0
39760,note_on,16,0,2,,,,,,,,0,,,60,80
39800,note_on,48,0,1,,,,,,,,0,,,71,80
39816,note_on,96,0,4,,,,,,,,0,,,36,0
39824,note_on,64,0,2,,,,,,,,0,,,60,0
39832,note_on,32,0,1,,,,,,,,0,,,71,0
39840,note_on,24,0,4,,,,,,,,0,,,48,80
39840,control_change,0,0,4,,,,,,,,0,64,0,,
39840,note_on,0,0,4,,,,,,,,0,,,52,80
39840,note_on,0,0,4,,,,,,,,0,,,55,80
39840,note_on,8,0,1,,,,,,,,0,,,64,80
39840,note_on,0,0,1,,,,,,,,0,,,60,80
39840,note_on,0,0,1,,,,,,,,0,,,72,80
39936,note_on,0,0,4,,,,,,,,0,,,48,0
39936,note_on,0,0,1,,,,,,,,0,,,72,0
39936,note_on,0,0,1,,,,,,,,0,,,64,0
39936,note_on,96,0,4,,,,,,,,0,,,55,0
39936,note_on,96,0,1,,,,,,,,0,,,60,0
39936,note_on,0,0,4,,,,,,,,0,,,52,0
39960,note_on,0,0,2,,,,,,,,0,,,65,80
39960,note_on,136,0,2,,,,,,,,0,,,68,80
39960,note_on,24,0,1,,,,,,,,0,,,73,80
39992,note_on,32,0,1,,,,,,,,0,,,73,0
40000,note_on,8,0,1,,,,,,,,0,,,87,80
40008,note_on,0,0,2,,,,,,,,0,,,68,0
40008,note_on,48,0,2,,,,,,,,0,,,65,0
40020,note_on,0,0,2,,,,,,,,0,,,67,80
40020,note_on,12,0,2,,,,,,,,0,,,70,80
40032,note_on,32,0,1,,,,,,,,0,,,87,0
40040,note_on,8,0,1,,,,,,,,0,,,85,80
40068,note_on,48,0,2,,,,,,,,0,,,67,0
40068,note_on,0,0,2,,,,,,,,0,,,70,0
40072,note_on,32,0,1,,,,,,,,0,,,85,0
40080,note_on,12,0,2,,,,,,,,0,,,67,80
40080,note_on,0,0,2,,,,,,,,0,,,63,80
40080,note_on,8,0,1,,,,,,,,0,,,84,80
40112,note_on,32,0,1,,,,,,,,0,,,84,0
40120,note_on,8,0,1,,,,,,,,0,,,73,80
40128,note_on,48,0,2,,,,,,,,0,,,63,0
40128,note_on,0,0,2,,,,,,,,0,,,67,0
40140,note_on,0,0,2,,,,,,,,0,,,68,80
40140,note_on,12,0,2,,,,,,,,0,,,65,80
40152,note_on,32,0,1,,,,,,,,0,,,73,0
40160,note_on,8,0,1,,,,,,,,0,,,72,80
40188,note_on,48,0,2,,,,,,,,0,,,68,0
40188,note_on,0,0,2,,,,,,,,0,,,65,0
40192,note_on,32,0,1,,,,,,,,0,,,72,0
40200,note_on,8,0,1,,,,,,,,0,,,70,80
40200,note_on,0,0,2,,,,,,,,0,,,61,80
40200,note_on,12,0,2,,,,,,,,0,,,65,80
40232,note_on,32,0,1,,,,,,,,0,,,70,0
40240,note_on,8,0,1,,,,,,,,0,,,84,80
40248,note_on,48,0,2,,,,,,,,0,,,61,0
40248,note_on,0,0,2,,,,,,,,0,,,65,0
40260,note_on,0,0,2,,,,,,,,0,,,67,80
40260,note_on,12,0,2,,,,,,,,0,,,63,80
40272,note_on,32,0,1,,,,,,,,0,,,84,0
40280,note_on,8,0,1,,,,,,,,0,,,82,80
40308,note_on,48,0,2,,,,,,,,0,,,67,0
40308,note_on,0,0,2,,,,,,,,0,,,63,0
40312,note_on,32,0,1,,,,,,,,0,,,82,0
40320,note_on,12,0,2,,,,,,,,0,,,63,80
40320,note_on,8,0,1,,,,,,,,0,,,80,80
40320,note_on,0,0,2,,,,,,,,0,,,60,80
40352,note_on,32,0,1,,,,,,,,0,,,80,0
40360,note_on,8,0,1,,,,,,,,0,,,70,80
40368,note_on,48,0,2,,,,,,,,0,,,60,0
40368,note_on,0,0,2,,,,,,,,0,,,63,0
40380,note_on,0,0,2,,,,,,,,0,,,65,80
40380,note_on,12,0,2,,,,,,,,0,,,61,80
40392,note_on,32,0,1,,,,,,,,0,,,70,0
40400,note_on,8,0,1,,,,,,,,0,,,68,80
40428,note_on,48,0,2,,,,,,,,0,,,65,0
40428,note_on,0,0,2,,,,,,,,0,,,61,0
40432,note_on,32,0,1,,,,,,,,0,,,68,0
40440,note_on,0,0,2,,,,,,,,0,,,58,80
40440,note_on,12,0,2,,,,,,,,0,,,61,80
40440,note_on,8,0,1,,,,,,,,0,,,67,80
40472,note_on,32,0,1,,,,,,,,0,,,67,0
40480,note_on,8,0,1,,,,,,,,0,,,80,80
40488,note_on,0,0,2,,,,,,,,0,,,61,0
40488,note_on,48,0,2,,,,,,,,0,,,58,0
40500,note_on,12,0,2,,,,,,,,0,,,60,80
40500,note_on,0,0,2,,,,,,,,0,,,63,80
40512,note_on,32,0,1,,,,,,,,0,,,80,0
40520,note_on,8,0,1,,,,,,,,0,,,79,80
40548,note_on,0,0,2,,,,,,,,0,,,60,0
40548,note_on,48,0,2,,,,,,,,0,,,63,0
40552,note_on,32,0,1,,,,,,,,0,,,79,0
40560,note_on,0,0,2,,,,,,,,0,,,56,80
40560,note_on,8,0,1,,,,,,,,0,,,77,80
40560,note_on,12,0,2,,,,,,,,0,,,60,80
40592,note_on,32,0,1,,,,,,,,0,,,77,0
40600,note_on,8,0,1,,,,,,,,0,,,67,80
40608,note_on,0,0,2,,,,,,,,0,,,60,0
40608,note_on,48,0,2,,,,,,,,0,,,56,0
40620,note_on,0,0,2,,,,,,,,0,,,61,80
40620,note_on,12,0,2,,,,,,,,0,,,58,80
40632,note_on,32,0,1,,,,,,,,0,,,67,0
40640,note_on,8,0,1,,,,,,,,0,,,65,80
40668,note_on,48,0,2,,,,,,,,0,,,61,0
40668,note_on,0,0,2,,,,,,,,0,,,58,0
40672,note_on,32,0,1,,,,,,,,0,,,65,0
40680,note_on,8,0,1,,,,,,,,0,,,63,80
40680,note_on,12,0,2,,,,,,,,0,,,55,80
40680,note_on,0,0,2,,,,,,,,0,,,58,80
40712,note_on,32,0,1,,,,,,,,0,,,63,0
40720,note_on,8,0,1,,,,,,,,0,,,77,80
40728,note_on,48,0,2,,,,,,,,0,,,58,0
40728,note_on,0,0,2,,,,,,,,0,,,55,0
40740,note_on,0,0,2,,,,,,,,0,,,60,80
40740,note_on,12,0,2,,,,,,,,0,,,56,80
40752,note_on,32,0,1,,,,,,,,0,,,77,0
40760,note_on,8,0,1,,,,,,,,0,,,75,80
40788,note_on,48,0,2,,,,,,,,0,,,60,0
40788,note_on,0,0,2,,,,,,,,0,,,56,0
40792,note_on,32,0,1,,,,,,,,0,,,75,0
40800,note_on,8,0,1,,,,,,,,0,,,73,80
40800,control_change,0,0,4,,,,,,,,0,64,127,,
40800,note_on,864,0,4,,,,,,,,0,,,65,80
40800,note_on,0,0,4,,,,,,,,0,,,68,80
40807,set_tempo,21133,1,0,,,,,,571646,,,,,,
40832,note_on,32,0,1,,,,,,,,0,,,73,0
40840,note_on,8,0,1,,,,,,,,0,,,61,80
40864,set_tempo,57,1,0,,,,,,567644,,,,,,
40872,note_on,32,0,1,,,,,,,,0,,,61,0
40880,note_on,92,0,2,,,,,,,,0,,,60,80
40896,note_on,96,0,4,,,,,,,,0,,,68,0
40896,note_on,0,0,4,,,,,,,,0,,,65,0
40920,note_on,24,0,4,,,,,,,,0,,,48,80
40920,note_on,48,0,1,,,,,,,,0,,,72,80
40920,set_tempo,56,1,0,,,,,,563698,,,,,,
40944,note_on,64,0,2,,,,,,,,0,,,60,0
40952,note_on,32,0,1,,,,,,,,0,,,72,0
40960,note_on,16,0,2,,,,,,,,0,,,73,80
40977,set_tempo,57,1,0,,,,,,559806,,,,,,
41000,note_on,48,0,1,,,,,,,,0,,,61,80
41016,note_on,96,0,4,,,,,,,,0,,,48,0
41024,note_on,64,0,2,,,,,,,,0,,,73,0
41030,set_tempo,53,1,0,,,,,,555967,,,,,,
41032,note_on,32,0,1,,,,,,,,0,,,61,0
41040,note_on,24,0,4,,,,,,,,0,,,68,80
41040,note_on,0,0,4,,,,,,,,0,,,61,80
41040,note_on,0,0,4,,,,,,,,0,,,65,80
41040,note_on,0,0,4,,,,,,,,0,,,71,80
41040,note_on,16,0,2,,,,,,,,0,,,65,80
41080,note_on,48,0,1,,,,,,,,0,,,77,80
41086,set_tempo,56,1,0,,,,,,552181,,,,,,
41104,note_on,64,0,2,,,,,,,,0,,,65,0
41112,note_on,32,0,1,,,,,,,,0,,,77,0
41120,note_on,16,0,2,,,,,,,,0,,,80,80
41136,note_on,96,0,4,,,,,,,,0,,,71,0
41136,note_on,0,0,4,,,,,,,,0,,,68,0
41136,note_on,0,0,4,,,,,,,,0,,,65,0
41136,note_on,0,0,4,,,,,,,,0,,,61,0
41143,set_tempo,57,1,0,,,,,,548446,,,,,,
41160,note_on,48,0,1,,,,,,,,0,,,68,80
41160,note_on,24,0,4,,,,,,,,0,,,48,80
41184,note_on,64,0,2,,,,,,,,0,,,80,0
41192,note_on,32,0,1,,,,,,,,0,,,68,0
41195,set_tempo,52,1,0,,,,,,544761,,,,,,
41200,note_on,16,0,2,,,,,,,,0,,,71,80
41240,note_on,48,0,1,,,,,,,,0,,,83,80
41252,set_tempo,57,1,0,,,,,,541126,,,,,,
41256,note_on,96,0,4,,,,,,,,0,,,48,0
41264,note_on,64,0,2,,,,,,,,0,,,71,0
41272,note_on,32,0,1,,,,,,,,0,,,83,0
41280,note_on,0,0,4,,,,,,,,0,,,67,80
41280,note_on,0,0,1,,,,,,,,0,,,84,80
41280,note_on,0,0,1,,,,,,,,0,,,72,80
41280,note_on,24,0,4,,,,,,,,0,,,64,80
41280,control_change,0,0,4,,,,,,,,0,64,0,,
41280,note_on,0,0,4,,,,,,,,0,,,60,80
41280,note_on,8,0,1,,,,,,,,0,,,76,80
41309,set_tempo,57,1,0,,,,,,537538,,,,,,
41344,note_on,0,0,4,,,,,,,,0,,,60,0
41344,note_on,64,0,4,,,,,,,,0,,,67,0
41344,note_on,0,0,4,,,,,,,,0,,,64,0
41360,note_on,0,0,1,,,,,,,,0,,,76,0
41360,note_on,0,0,1,,,,,,,,0,,,72,0
41360,note_on,0,0,1,,,,,,,,0,,,59,60
41360,note_on,80,0,1,,,,,,,,0,,,84,0
41360,note_on,16,0,4,,,,,,,,0,,,54,60
41360,note_on,0,0,4,,,,,,,,0,,,39,60
41366,set_tempo,57,1,0,,,,,,533998,,,,,,
41400,note_on,136,0,2,,,,,,,,0,,,71,61
41418,set_tempo,52,1,0,,,,,,530504,,,,,,
41424,note_on,64,0,1,,,,,,,,0,,,59,0
41424,note_on,0,0,4,,,,,,,,0,,,54,0
41424,note_on,64,0,4,,,,,,,,0,,,39,0
41432,note_on,32,0,2,,,,,,,,0,,,71,0
41440,note_on,16,0,4,,,,,,,,0,,,40,62
41440,note_on,0,0,4,,,,,,,,0,,,55,62
41440,note_on,16,0,1,,,,,,,,0,,,60,62
41475,set_tempo,57,1,0,,,,,,527056,,,,,,
41480,note_on,48,0,2,,,,,,,,0,,,72,63
41504,note_on,0,0,4,,,,,,,,0,,,40,0
41504,note_on,64,0,1,,,,,,,,0,,,60,0
41504,note_on,64,0,4,,,,,,,,0,,,55,0
41512,note_on,32,0,2,,,,,,,,0,,,72,0
41520,note_on,0,0,4,,,,,,,,0,,,56,64
41520,note_on,16,0,4,,,,,,,,0,,,41,64
41520,note_on,16,0,1,,,,,,,,0,,,61,64
41531,set_tempo,56,1,0,,,,,,523652,,,,,,
41560,note_on,48,0,2,,,,,,,,0,,,73,65
41584,set_tempo,53,1,0,,,,,,520291,,,,,,
41584,note_on,64,0,4,,,,,,,,0,,,56,0
41584,note_on,0,0,4,,,,,,,,0,,,41,0
41584,note_on,64,0,1,,,,,,,,0,,,61,0
41592,note_on,32,0,2,,,,,,,,0,,,73,0
41600,note_on,16,0,4,,,,,,,,0,,,55,66
41600,note_on,0,0,4,,,,,,,,0,,,40,66
41600,note_on,16,0,1,,,,,,,,0,,,60,66
41640,set_tempo,56,1,0,,,,,,516974,,,,,,
41640,note_on,48,0,2,,,,,,,,0,,,72,67
41664,note_on,0,0,4,,,,,,,,0,,,55,0
41664,note_on,64,0,4,,,,,,,,0,,,40,0
41664,note_on,64,0,1,,,,,,,,0,,,60,0
41672,note_on,32,0,2,,,,,,,,0,,,72,0
41680,note_on,0,0,4,,,,,,,,0,,,56,68
41680,note_on,16,0,1,,,,,,,,0,,,61,68
41680,note_on,16,0,4,,,,,,,,0,,,41,68
41697,set_tempo,57,1,0,,,,,,513699,,,,,,
41720,note_on,48,0,2,,,,,,,,0,,,73,69
41744,note_on,64,0,1,,,,,,,,0,,,61,0
41744,note_on,0,0,4,,,,,,,,0,,,41,0
41744,note_on,64,0,4,,,,,,,,0,,,56,0
41750,set_tempo,53,1,0,,,,,,510465,,,,,,
41752,note_on,32,0,2,,,,,,,,0,,,73,0
41760,note_on,16,0,1,,,,,,,,0,,,62,70
41760,note_on,0,0,4,,,,,,,,0,,,42,70
41760,note_on,16,0,4,,,,,,,,0,,,57,70
41800,note_on,48,0,2,,,,,,,,0,,,74,71
41824,note_on,64,0,1,,,,,,,,0,,,62,0
41832,note_on,32,0,2,,,,,,,,0,,,74,0
41840,note_on,16,0,1,,,,,,,,0,,,63,71
41840,note_on,80,0,4,,,,,,,,0,,,42,0
41840,note_on,0,0,4,,,,,,,,0,,,43,71
41840,note_on,0,0,4,,,,,,,,0,,,57,0
41840,note_on,0,0,4,,,,,,,,0,,,58,71
41880,note_on,48,0,2,,,,,,,,0,,,75,72
41904,note_on,64,0,1,,,,,,,,0,,,63,0
41912,note_on,32,0,2,,,,,,,,0,,,75,0
41920,note_on,16,0,1,,,,,,,,0,,,62,72
41920,note_on,0,0,4,,,,,,,,0,,,42,72
41920,note_on,0,0,4,,,,,,,,0,,,43,0
41920,note_on,0,0,4,,,,,,,,0,,,57,72
41920,note_on,80,0,4,,,,,,,,0,,,58,0
41960,note_on,48,0,2,,,,,,,,0,,,74,73
41984,note_on,64,0,1,,,,,,,,0,,,62,0
41992,note_on,32,0,2,,,,,,,,0,,,74,0
42000,note_on,0,0,4,,,,,,,,0,,,43,73
42000,note_on,0,0,4,,,,,,,,0,,,57,0
42000,note_on,0,0,4,,,,,,,,0,,,58,73
42000,note_on,80,0,4,,,,,,,,0,,,42,0
42000,note_on,16,0,1,,,,,,,,0,,,63,73
42040,note_on,48,0,2,,,,,,,,0,,,75,74
42064,note_on,64,0,1,,,,,,,,0,,,63,0
42072,note_on,32,0,2,,,,,,,,0,,,75,0
42080,note_on,0,0,4,,,,,,,,0,,,44,74
42080,note_on,0,0,4,,,,,,,,0,,,58,0
42080,note_on,80,0,4,,,,,,,,0,,,43,0
42080,note_on,0,0,4,,,,,,,,0,,,59,74
42080,note_on,16,0,1,,,,,,,,0,,,64,74
42120,note_on,48,0,2,,,,,,,,0,,,76,75
42144,note_on,64,0,1,,,,,,,,0,,,64,0
42144,note_on,64,0,4,,,,,,,,0,,,59,0
42144,note_on,0,0,4,,,,,,,,0,,,44,0
42152,note_on,32,0,2,,,,,,,,0,,,76,0
42160,note_on,16,0,4,,,,,,,,0,,,45,76
42160,note_on,16,0,1,,,,,,,,0,,,65,76
42160,note_on,0,0,4,,,,,,,,0,,,60,76
42200,note_on,48,0,2,,,,,,,,0,,,77,76
42224,note_on,64,0,4,,,,,,,,0,,,60,0
42224,note_on,0,0,4,,,,,,,,0,,,45,0
42224,note_on,64,0,1,,,,,,,,0,,,65,0
42232,note_on,32,0,2,,,,,,,,0,,,77,0
42240,note_on,16,0,4,,,,,,,,0,,,59,77
42240,note_on,0,0,4,,,,,,,,0,,,44,77
42240,note_on,16,0,1,,,,,,,,0,,,64,77
42280,note_on,48,0,2,,,,,,,,0,,,76,77
42304,note_on,64,0,1,,,,,,,,0,,,64,0
42304,note_on,0,0,4,,,,,,,,0,,,59,0
42304,note_on,64,0,4,,,,,,,,0,,,44,0
42312,note_on,32,0,2,,,,,,,,0,,,76,0
42320,note_on,16,0,4,,,,,,,,0,,,45,78
42320,note_on,0,0,4,,,,,,,,0,,,60,78
42320,note_on,16,0,1,,,,,,,,0,,,65,78
42360,note_on,48,0,2,,,,,,,,0,,,77,78
42384,note_on,0,0,4,,,,,,,,0,,,45,0
42384,note_on,64,0,1,,,,,,,,0,,,65,0
42384,note_on,64,0,4,,,,,,,,0,,,60,0
42392,note_on,32,0,2,,,,,,,,0,,,77,0
42400,note_on,16,0,1,,,,,,,,0,,,66,79
42400,note_on,0,0,4,,,,,,,,0,,,61,79
42400,note_on,16,0,4,,,,,,,,0,,,46,79
42440,note_on,48,0,2,,,,,,,,0,,,78,79
42464,note_on,64,0,4,,,,,,,,0,,,61,0
42464,note_on,0,0,4,,,,,,,,0,,,46,0
42464,note_on,64,0,1,,,,,,,,0,,,66,0
42472,note_on,32,0,2,,,,,,,,0,,,78,0
42480,note_on,16,0,4,,,,,,,,0,,,62,80
42480,note_on,16,0,1,,,,,,,,0,,,67,80
42480,note_on,0,0,4,,,,,,,,0,,,47,80
42520,note_on,48,0,2,,,,,,,,0,,,79,81
42544,note_on,64,0,4,,,,,,,,0,,,47,0
42544,note_on,0,0,4,,,,,,,,0,,,62,0
42544,note_on,64,0,1,,,,,,,,0,,,67,0
42552,note_on,32,0,2,,,,,,,,0,,,79,0
42560,note_on,16,0,1,,,,,,,,0,,,66,81
42560,note_on,0,0,4,,,,,,,,0,,,46,81
42560,note_on,16,0,4,,,,,,,,0,,,61,81
42600,note_on,48,0,2,,,,,,,,0,,,78,82
42624,note_on,64,0,4,,,,,,,,0,,,46,0
42624,note_on,0,0,4,,,,,,,,0,,,61,0
42624,note_on,64,0,1,,,,,,,,0,,,66,0
42632,note_on,32,0,2,,,,,,,,0,,,78,0
42640,note_on,16,0,1,,,,,,,,0,,,67,82
42640,note_on,0,0,4,,,,,,,,0,,,62,82
42640,note_on,16,0,4,,,,,,,,0,,,47,82
42680,note_on,48,0,2,,,,,,,,0,,,79,83
42704,note_on,0,0,4,,,,,,,,0,,,47,0
42704,note_on,64,0,1,,,,,,,,0,,,67,0
42704,note_on,64,0,4,,,,,,,,0,,,62,0
42710,set_tempo,960,1,0,,,,,,516974,,,,,,
42712,note_on,32,0,2,,,,,,,,0,,,79,0
42720,note_on,0,0,4,,,,,,,,0,,,48,83
42720,note_on,16,0,4,,,,,,,,0,,,63,83
42720,note_on,16,0,1,,,,,,,,0,,,68,83
42760,note_on,48,0,2,,,,,,,,0,,,80,84
42779,set_tempo,69,1,0,,,,,,513699,,,,,,
42784,note_on,0,0,4,,,,,,,,0,,,63,0
42784,note_on,64,0,1,,,,,,,,0,,,68,0
42784,note_on,64,0,4,,,,,,,,0,,,48,0
42792,note_on,32,0,2,,,,,,,,0,,,80,0
42800,note_on,0,0,4,,,,,,,,0,,,62,84
42800,note_on,16,0,1,,,,,,,,0,,,67,84
42800,note_on,16,0,4,,,,,,,,0,,,47,84
42840,note_on,48,0,2,,,,,,,,0,,,79,85
42849,set_tempo,70,1,0,,,,,,510465,,,,,,
42864,note_on,0,0,4,,,,,,,,0,,,47,0
42864,note_on,64,0,1,,,,,,,,0,,,67,0
42864,note_on,64,0,4,,,,,,,,0,,,62,0
42872,note_on,32,0,2,,,,,,,,0,,,79,0
42880,note_on,0,0,4,,,,,,,,0,,,48,86
42880,note_on,16,0,1,,,,,,,,0,,,68,86
42880,note_on,16,0,4,,,,,,,,0,,,63,86
42919,set_tempo,70,1,0,,,,,,507271,,,,,,
42920,note_on,48,0,2,,,,,,,,0,,,80,86
42944,note_on,0,0,4,,,,,,,,0,,,63,0
42944,note_on,64,0,4,,,,,,,,0,,,48,0
42944,note_on,64,0,1,,,,,,,,0,,,68,0
42952,note_on,32,0,2,,,,,,,,0,,,80,0
42960,note_on,16,0,4,,,,,,,,0,,,49,87
42960,note_on,0,0,4,,,,,,,,0,,,64,87
42960,note_on,16,0,1,,,,,,,,0,,,69,87
42989,set_tempo,70,1,0,,,,,,504117,,,,,,
43000,note_on,48,0,2,,,,,,,,0,,,81,87
43024,note_on,64,0,1,,,,,,,,0,,,69,0
43024,note_on,0,0,4,,,,,,,,0,,,49,0
43024,note_on,64,0,4,,,,,,,,0,,,64,0
43032,note_on,32,0,2,,,,,,,,0,,,81,0
43040,note_on,16,0,4,,,,,,,,0,,,48,88
43040,note_on,16,0,1,,,,,,,,0,,,68,88
43040,note_on,0,0,4,,,,,,,,0,,,63,88
43059,set_tempo,70,1,0,,,,,,501002,,,,,,
43080,note_on,48,0,2,,,,,,,,0,,,80,88
43104,note_on,64,0,1,,,,,,,,0,,,68,0
43104,note_on,64,0,4,,,,,,,,0,,,63,0
43104,note_on,0,0,4,,,,,,,,0,,,48,0
43112,note_on,32,0,2,,,,,,,,0,,,80,0
43120,note_on,0,0,4,,,,,,,,0,,,49,89
43120,note_on,16,0,4,,,,,,,,0,,,64,89
43120,note_on,16,0,1,,,,,,,,0,,,69,89
43128,set_tempo,69,1,0,,,,,,497925,,,,,,
43160,note_on,48,0,2,,,,,,,,0,,,81,89
43184,note_on,64,0,1,,,,,,,,0,,,69,0
43184,note_on,64,0,4,,,,,,,,0,,,49,0
43184,note_on,0,0,4,,,,,,,,0,,,64,0
43192,note_on,32,0,2,,,,,,,,0,,,81,0
43194,set_tempo,66,1,0,,,,,,494886,,,,,,
43200,note_on,16,0,1,,,,,,,,0,,,70,90
43200,note_on,16,0,4,,,,,,,,0,,,65,90
43200,note_on,0,0,4,,,,,,,,0,,,50,90
43240,note_on,48,0,2,,,,,,,,0,,,82,91
43264,note_on,0,0,4,,,,,,,,0,,,65,0
43264,set_tempo,70,1,0,,,,,,491884,,,,,,
43264,note_on,64,0,4,,,,,,,,0,,,50,0
43272,note_on,32,0,2,,,,,,,,0,,,82,0
43280,note_on,16,0,4,,,,,,,,0,,,66,91
43280,note_on,8,0,2,,,,,,,,0,,,71,91
43280,note_on,0,0,4,,,,,,,,0,,,51,91
43296,note_on,96,0,1,,,,,,,,0,,,70,0
43312,note_on,32,0,2,,,,,,,,0,,,71,0
43320,note_on,8,0,2,,,,,,,,0,,,83,92
43334,set_tempo,70,1,0,,,,,,488918,,,,,,
43344,note_on,64,0,4,,,,,,,,0,,,51,0
43344,note_on,0,0,4,,,,,,,,0,,,66,0
43352,note_on,32,0,2,,,,,,,,0,,,83,0
43360,note_on,16,0,4,,,,,,,,0,,,52,92
43360,note_on,0,0,4,,,,,,,,0,,,67,92
43360,note_on,8,0,2,,,,,,,,0,,,72,92
43392,note_on,32,0,2,,,,,,,,0,,,72,0
43400,note_on,8,0,2,,,,,,,,0,,,84,93
43403,set_tempo,69,1,0,,,,,,485987,,,,,,
43424,note_on,64,0,4,,,,,,,,0,,,67,0
43424,note_on,0,0,4,,,,,,,,0,,,52,0
43432,note_on,32,0,2,,,,,,,,0,,,84,0
43440,note_on,0,0,4,,,,,,,,0,,,68,93
43440,note_on,16,0,4,,,,,,,,0,,,53,93
43440,note_on,8,0,2,,,,,,,,0,,,73,93
43472,note_on,32,0,2,,,,,,,,0,,,73,0
43473,set_tempo,70,1,0,,,,,,483092,,,,,,
43480,note_on,8,0,2,,,,,,,,0,,,85,94
43504,note_on,64,0,4,,,,,,,,0,,,68,0
43504,note_on,0,0,4,,,,,,,,0,,,53,0
43512,note_on,32,0,2,,,,,,,,0,,,85,0
43520,note_on,8,0,2,,,,,,,,0,,,74,94
43520,note_on,16,0,4,,,,,,,,0,,,69,94
43520,note_on,0,0,4,,,,,,,,0,,,54,94
43543,set_tempo,70,1,0,,,,,,480231,,,,,,
43552,note_on,32,0,2,,,,,,,,0,,,74,0
43560,note_on,8,0,2,,,,,,,,0,,,86,95
43584,note_on,64,0,4,,,,,,,,0,,,54,0
43584,note_on,0,0,4,,,,,,,,0,,,69,0
43592,note_on,32,0,2,,,,,,,,0,,,86,0
43600,note_on,8,0,2,,,,,,,,0,,,75,96
43600,note_on,16,0,4,,,,,,,,0,,,55,96
43600,note_on,0,0,4,,,,,,,,0,,,70,96
43613,set_tempo,70,1,0,,,,,,477403,,,,,,
43632,note_on,32,0,2,,,,,,,,0,,,75,0
43640,note_on,8,0,2,,,,,,,,0,,,87,96
43664,note_on,0,0,4,,,,,,,,0,,,55,0
43664,note_on,64,0,4,,,,,,,,0,,,70,0
43672,note_on,32,0,2,,,,,,,,0,,,87,0
43678,set_tempo,65,1,0,,,,,,474608,,,,,,
43680,note_on,0,0,2,,,,,,,,0,,,71,97
43680,note_on,8,0,2,,,,,,,,0,,,56,97
43680,note_on,384,0,1,,,,,,,,0,,,76,97
43712,note_on,32,0,1,,,,,,,,0,,,76,0
43720,note_on,8,0,1,,,,,,,,0,,,88,97
43744,note_on,64,0,2,,,,,,,,0,,,71,0
43744,note_on,0,0,2,,,,,,,,0,,,56,0
43752,note_on,32,0,1,,,,,,,,0,,,88,0
43760,note_on,8,0,1,,,,,,,,0,,,77,98
43760,note_on,16,0,2,,,,,,,,0,,,57,98
43760,note_on,0,0,2,,,,,,,,0,,,72,98
43792,note_on,32,0,1,,,,,,,,0,,,77,0
43800,note_on,8,0,1,,,,,,,,0,,,89,98
43824,note_on,64,0,2,,,,,,,,0,,,72,0
43824,note_on,0,0,2,,,,,,,,0,,,57,0
43832,note_on,32,0,1,,,,,,,,0,,,89,0
43840,note_on,16,0,2,,,,,,,,0,,,73,99
43840,note_on,0,0,2,,,,,,,,0,,,58,99
43840,note_on,8,0,1,,,,,,,,0,,,78,99
43872,note_on,32,0,1,,,,,,,,0,,,78,0
43880,note_on,8,0,1,,,,,,,,0,,,90,99
43904,note_on,64,0,2,,,,,,,,0,,,58,0
43904,note_on,0,0,2,,,,,,,,0,,,73,0
43912,note_on,32,0,1,,,,,,,,0,,,90,0
43920,note_on,0,0,2,,,,,,,,0,,,73,100
43920,note_on,8,0,1,,,,,,,,0,,,78,100
43920,note_on,16,0,2,,,,,,,,0,,,58,100
43952,note_on,32,0,1,,,,,,,,0,,,78,0
43960,note_on,8,0,1,,,,,,,,0,,,90,101
43984,note_on,64,0,2,,,,,,,,0,,,73,0
43984,note_on,0,0,2,,,,,,,,0,,,58,0
43992,note_on,32,0,1,,,,,,,,0,,,90,0
44000,note_on,0,0,2,,,,,,,,0,,,58,101
44000,note_on,8,0,1,,,,,,,,0,,,78,101
44000,note_on,16,0,2,,,,,,,,0,,,73,101
44032,note_on,32,0,1,,,,,,,,0,,,78,0
44040,note_on,8,0,1,,,,,,,,0,,,90,102
44064,note_on,64,0,2,,,,,,,,0,,,58,0
44064,note_on,0,0,2,,,,,,,,0,,,73,0
44072,note_on,32,0,1,,,,,,,,0,,,90,0
44080,note_on,16,0,2,,,,,,,,0,,,58,102
44080,note_on,0,0,2,,,,,,,,0,,,73,102
44080,note_on,8,0,1,,,,,,,,0,,,78,102
44112,note_on,32,0,1,,,,,,,,0,,,78,0
44120,note_on,8,0,1,,,,,,,,0,,,90,103
44144,note_on,0,0,2,,,,,,,,0,,,58,0
44144,note_on,64,0,2,,,,,,,,0,,,73,0
44152,note_on,32,0,1,,,,,,,,0,,,90,0
44160,note_on,16,0,2,,,,,,,,0,,,58,103
44160,note_on,0,0,2,,,,,,,,0,,,73,103
44160,note_on,8,0,1,,,,,,,,0,,,78,103
44160,control_change,496,0,4,,,,,,,,0,64,127,,
44192,note_on,32,0,1,,,,,,,,0,,,78,0
44200,note_on,8,0,1,,,,,,,,0,,,90,104
44224,note_on,64,0,2,,,,,,,,0,,,73,0
44224,note_on,0,0,2,,,,,,,,0,,,58,0
44232,note_on,32,0,1,,,,,,,,0,,,90,0
44240,note_on,16,0,2,,,,,,,,0,,,73,83
44240,note_on,0,0,2,,,,,,,,0,,,61,83
44240,note_on,0,0,2,,,,,,,,0,,,58,83
44240,note_on,8,0,1,,,,,,,,0,,,79,104
44240,note_on,0,0,1,,,,,,,,0,,,77,104
44240,note_on,0,0,2,,,,,,,,0,,,67,83
44272,note_on,32,0,1,,,,,,,,0,,,77,0
44272,note_on,0,0,1,,,,,,,,0,,,79,0
44280,note_on,8,0,1,,,,,,,,0,,,91,105
44304,note_on,0,0,2,,,,,,,,0,,,73,0
44304,note_on,0,0,2,,,,,,,,0,,,61,0
44304,note_on,0,0,2,,,,,,,,0,,,58,0
44304,note_on,64,0,2,,,,,,,,0,,,67,0
44312,note_on,32,0,1,,,,,,,,0,,,91,0
44320,note_on,0,0,1,,,,,,,,0,,,77,106
44320,note_on,16,0,2,,,,,,,,0,,,67,85
44320,note_on,0,0,2,,,,,,,,0,,,58,85
44320,note_on,0,0,2,,,,,,,,0,,,73,85
44320,note_on,8,0,1,,,,,,,,0,,,79,106
44320,note_on,0,0,2,,,,,,,,0,,,61,85
44352,note_on,32,0,1,,,,,,,,0,,,77,0
44352,note_on,0,0,1,,,,,,,,0,,,79,0
44360,note_on,8,0,1,,,,,,,,0,,,91,106
44384,note_on,0,0,2,,,,,,,,0,,,73,0
44384,note_on,64,0,2,,,,,,,,0,,,61,0
44384,note_on,0,0,2,,,,,,,,0,,,67,0
44384,note_on,0,0,2,,,,,,,,0,,,58,0
44392,note_on,32,0,1,,,,,,,,0,,,91,0
44400,note_on,16,0,2,,,,,,,,0,,,67,86
44400,note_on,0,0,2,,,,,,,,0,,,58,86
44400,note_on,0,0,2,,,,,,,,0,,,61,86
44400,note_on,0,0,2,,,,,,,,0,,,73,86
44400,note_on,0,0,1,,,,,,,,0,,,77,107
44400,note_on,8,0,1,,,,,,,,0,,,79,107
44432,note_on,0,0,1,,,,,,,,0,,,79,0
44432,note_on,32,0,1,,,,,,,,0,,,77,0
44440,note_on,8,0,1,,,,,,,,0,,,91,107
44464,note_on,0,0,2,,,,,,,,0,,,67,0
44464,note_on,0,0,2,,,,,,,,0,,,61,0
44464,note_on,0,0,2,,,,,,,,0,,,58,0
44464,note_on,64,0,2,,,,,,,,0,,,73,0
44472,note_on,32,0,1,,,,,,,,0,,,91,0
44480,note_on,0,0,2,,,,,,,,0,,,65,87
44480,note_on,16,0,2,,,,,,,,0,,,61,87
44480,note_on,0,0,2,,,,,,,,0,,,70,87
44480,note_on,0,0,2,,,,,,,,0,,,55,87
44480,note_on,8,0,1,,,,,,,,0,,,77,108
44480,note_on,0,0,1,,,,,,,,0,,,79,108
44512,note_on,0,0,1,,,,,,,,0,,,77,0
44512,note_on,32,0,1,,,,,,,,0,,,79,0
44520,note_on,8,0,1,,,,,,,,0,,,94,108
44544,note_on,0,0,2,,,,,,,,0,,,70,0
44544,note_on,64,0,2,,,,,,,,0,,,65,0
44544,note_on,0,0,2,,,,,,,,0,,,61,0
44544,note_on,0,0,2,,,,,,,,0,,,55,0
44552,note_on,32,0,1,,,,,,,,0,,,94,0
44560,note_on,0,0,2,,,,,,,,0,,,65,88
44560,note_on,16,0,2,,,,,,,,0,,,70,88
44560,note_on,8,0,1,,,,,,,,0,,,79,109
44560,note_on,0,0,2,,,,,,,,0,,,61,88
44560,note_on,0,0,1,,,,,,,,0,,,77,109
44560,note_on,0,0,2,,,,,,,,0,,,55,88
44592,note_on,0,0,1,,,,,,,,0,,,79,0
44592,note_on,32,0,1,,,,,,,,0,,,77,0
44600,note_on,8,0,1,,,,,,,,0,,,94,109
44624,note_on,0,0,2,,,,,,,,0,,,65,0
44624,note_on,0,0,2,,,,,,,,0,,,70,0
44624,note_on,64,0,2,,,,,,,,0,,,61,0
44624,note_on,0,0,2,,,,,,,,0,,,55,0
44629,set_tempo,951,1,0,,,,,,471846,,,,,,
44632,note_on,32,0,1,,,,,,,,0,,,94,0
44640,note_on,0,0,2,,,,,,,,0,,,65,100
44640,note_on,0,0,1,,,,,,,,0,,,79,100
44640,note_on,16,0,2,,,,,,,,0,,,55,100
44640,note_on,0,0,2,,,,,,,,0,,,70,100
44640,note_on,8,0,1,,,,,,,,0,,,77,100
44640,control_change,480,0,4,,,,,,,,0,64,0,,
44640,note_on,0,0,2,,,,,,,,0,,,61,100
44654,control_change,14,0,4,,,,,,,,0,64,127,,
44668,set_tempo,39,1,0,,,,,,474608,,,,,,
44672,note_on,0,0,1,,,,,,,,0,,,77,0
44672,note_on,32,0,1,,,,,,,,0,,,79,0
44680,note_on,8,0,1,,,,,,,,0,,,94,100
44703,set_tempo,35,1,0,,,,,,477403,,,,,,
44704,note_on,0,0,2,,,,,,,,0,,,55,0
44704,note_on,64,0,2,,,,,,,,0,,,70,0
44704,note_on,0,0,2,,,,,,,,0,,,65,0
44704,note_on,0,0,2,,,,,,,,0,,,61,0
44712,note_on,32,0,1,,,,,,,,0,,,94,0
44720,note_on,8,0,1,,,,,,,,0,,,82,100
44720,note_on,66,0,4,,,,,,,,0,,,61,100
44720,note_on,0,0,4,,,,,,,,0,,,53,100
44720,note_on,0,0,4,,,,,,,,0,,,58,100
44720,note_on,0,0,4,,,,,,,,0,,,67,100
44738,set_tempo,35,1,0,,,,,,480231,,,,,,
44752,note_on,32,0,1,,,,,,,,0,,,82,0
44760,note_on,8,0,1,,,,,,,,0,,,97,100
44773,set_tempo,35,1,0,,,,,,483092,,,,,,
44784,note_on,0,0,4,,,,,,,,0,,,67,0
44784,note_on,0,0,4,,,,,,,,0,,,61,0
44784,note_on,0,0,4,,,,,,,,0,,,58,0
44784,note_on,64,0,4,,,,,,,,0,,,53,0
44792,note_on,32,0,1,,,,,,,,0,,,97,0
44800,note_on,0,0,4,,,,,,,,0,,,61,100
44800,note_on,0,0,4,,,,,,,,0,,,67,100
44800,note_on,8,0,1,,,,,,,,0,,,82,100
44800,note_on,16,0,4,,,,,,,,0,,,53,100
44800,note_on,0,0,4,,,,,,,,0,,,58,100
44812,set_tempo,39,1,0,,,,,,485987,,,,,,
44832,note_on,32,0,1,,,,,,,,0,,,82,0
44840,note_on,8,0,1,,,,,,,,0,,,97,100
44847,set_tempo,35,1,0,,,,,,488918,,,,,,
44864,note_on,0,0,4,,,,,,,,0,,,67,0
44864,note_on,64,0,4,,,,,,,,0,,,61,0
44864,note_on,0,0,4,,,,,,,,0,,,53,0
44864,note_on,0,0,4,,,,,,,,0,,,58,0
44872,note_on,32,0,1,,,,,,,,0,,,97,0
44880,note_on,8,0,1,,,,,,,,0,,,82,100
44880,note_on,0,0,4,,,,,,,,0,,,61,100
44880,note_on,0,0,4,,,,,,,,0,,,67,100
44880,note_on,0,0,4,,,,,,,,0,,,58,100
44880,note_on,16,0,4,,,,,,,,0,,,53,100
44882,set_tempo,35,1,0,,,,,,491884,,,,,,
44912,note_on,32,0,1,,,,,,,,0,,,82,0
44917,set_tempo,35,1,0,,,,,,494886,,,,,,
44920,note_on,8,0,1,,,,,,,,0,,,97,100
44944,note_on,0,0,4,,,,,,,,0,,,58,0
44944,note_on,64,0,4,,,,,,,,0,,,67,0
44944,note_on,0,0,4,,,,,,,,0,,,61,0
44944,note_on,0,0,4,,,,,,,,0,,,53,0
44952,set_tempo,35,1,0,,,,,,497925,,,,,,
44952,note_on,32,0,1,,,,,,,,0,,,97,0
44960,note_on,0,0,4,,,,,,,,0,,,65,100
44960,note_on,0,0,4,,,,,,,,0,,,58,100
44960,note_on,8,0,1,,,,,,,,0,,,82,100
44960,note_on,0,0,4,,,,,,,,0,,,49,100
44960,note_on,16,0,4,,,,,,,,0,,,55,100
44991,set_tempo,39,1,0,,,,,,501002,,,,,,
44992,note_on,32,0,1,,,,,,,,0,,,82,0
45000,note_on,8,0,1,,,,,,,,0,,,97,100
45024,note_on,0,0,4,,,,,,,,0,,,65,0
45024,note_on,0,0,4,,,,,,,,0,,,55,0
45024,note_on,64,0,4,,,,,,,,0,,,58,0
45024,note_on,0,0,4,,,,,,,,0,,,49,0
45026,set_tempo,35,1,0,,,,,,504117,,,,,,
45032,note_on,32,0,1,,,,,,,,0,,,97,0
45040,note_on,8,0,1,,,,,,,,0,,,82,100
45040,note_on,16,0,4,,,,,,,,0,,,58,100
45040,note_on,0,0,4,,,,,,,,0,,,49,100
45040,note_on,0,0,4,,,,,,,,0,,,55,100
45040,note_on,0,0,4,,,,,,,,0,,,65,100
45061,set_tempo,35,1,0,,,,,,507271,,,,,,
45072,note_on,32,0,1,,,,,,,,0,,,82,0
45080,note_on,8,0,1,,,,,,,,0,,,97,100
45096,set_tempo,35,1,0,,,,,,510465,,,,,,
45104,note_on,0,0,4,,,,,,,,0,,,49,0
45104,note_on,64,0,4,,,,,,,,0,,,55,0
45104,note_on,0,0,4,,,,,,,,0,,,58,0
45104,note_on,0,0,4,,,,,,,,0,,,65,0
45112,note_on,32,0,1,,,,,,,,0,,,97,0
45120,note_on,16,0,4,,,,,,,,0,,,64,109
45120,control_change,0,0,4,,,,,,,,0,64,0,,
45120,note_on,8,0,1,,,,,,,,0,,,82,109
45120,note_on,0,0,4,,,,,,,,0,,,55,109
45120,note_on,0,0,4,,,,,,,,0,,,58,109
45120,note_on,0,0,4,,,,,,,,0,,,48,109
45135,set_tempo,39,1,0,,,,,,513699,,,,,,
45139,control_change,19,0,4,,,,,,,,0,64,127,,
45152,note_on,32,0,1,,,,,,,,0,,,82,0
45160,note_on,8,0,1,,,,,,,,0,,,97,106
45170,set_tempo,35,1,0,,,,,,516974,,,,,,
45184,note_on,45,0,4,,,,,,,,0,,,58,0
45184,note_on,0,0,4,,,,,,,,0,,,64,0
45184,note_on,0,0,4,,,,,,,,0,,,48,0
45184,note_on,0,0,4,,,,,,,,0,,,55,0
45192,note_on,32,0,1,,,,,,,,0,,,97,0
45200,note_on,8,0,1,,,,,,,,0,,,79,103
45200,note_on,0,0,4,,,,,,,,0,,,35,103
45200,note_on,16,0,4,,,,,,,,0,,,47,103
45205,set_tempo,35,1,0,,,,,,520291,,,,,,
45232,note_on,32,0,1,,,,,,,,0,,,79,0
45240,note_on,8,0,1,,,,,,,,0,,,94,99
45240,set_tempo,35,1,0,,,,,,523652,,,,,,
45264,note_on,0,0,4,,,,,,,,0,,,47,0
45264,note_on,64,0,4,,,,,,,,0,,,35,0
45272,note_on,32,0,1,,,,,,,,0,,,94,0
45275,set_tempo,35,1,0,,,,,,527056,,,,,,
45280,note_on,8,0,1,,,,,,,,0,,,76,96
45280,note_on,0,0,4,,,,,,,,0,,,36,96
45280,note_on,16,0,4,,,,,,,,0,,,48,96
45312,note_on,32,0,1,,,,,,,,0,,,76,0
45314,set_tempo,39,1,0,,,,,,530504,,,,,,
45320,note_on,8,0,1,,,,,,,,0,,,91,93
45344,note_on,64,0,4,,,,,,,,0,,,36,0
45344,note_on,0,0,4,,,,,,,,0,,,48,0
45349,set_tempo,35,1,0,,,,,,533998,,,,,,
45352,note_on,32,0,1,,,,,,,,0,,,91,0
45360,note_on,0,0,4,,,,,,,,0,,,49,90
45360,note_on,8,0,1,,,,,,,,0,,,73,90
45360,note_on,16,0,4,,,,,,,,0,,,61,90
45384,set_tempo,35,1,0,,,,,,537538,,,,,,
45392,note_on,32,0,1,,,,,,,,0,,,73,0
45400,note_on,8,0,1,,,,,,,,0,,,88,87
45419,set_tempo,35,1,0,,,,,,541126,,,,,,
45424,note_on,64,0,4,,,,,,,,0,,,49,0
45424,note_on,0,0,4,,,,,,,,0,,,61,0
45432,note_on,32,0,1,,,,,,,,0,,,88,0
45440,note_on,8,0,1,,,,,,,,0,,,70,83
45440,note_on,0,0,4,,,,,,,,0,,,60,83
45440,note_on,16,0,4,,,,,,,,0,,,48,83
45458,set_tempo,39,1,0,,,,,,544761,,,,,,
45472,note_on,32,0,1,,,,,,,,0,,,70,0
45480,note_on,8,0,1,,,,,,,,0,,,85,80
45493,set_tempo,35,1,0,,,,,,548446,,,,,,
45504,note_on,0,0,4,,,,,,,,0,,,48,0
45504,note_on,64,0,4,,,,,,,,0,,,60,0
45512,note_on,32,0,1,,,,,,,,0,,,85,0
45520,note_on,8,0,1,,,,,,,,0,,,67,77
45520,note_on,0,0,4,,,,,,,,0,,,48,77
45520,note_on,16,0,4,,,,,,,,0,,,36,77
45528,set_tempo,35,1,0,,,,,,552181,,,,,,
45552,note_on,32,0,1,,,,,,,,0,,,67,0
45560,note_on,8,0,1,,,,,,,,0,,,82,74
45563,set_tempo,35,1,0,,,,,,555967,,,,,,
45584,note_on,0,0,4,,,,,,,,0,,,36,0
45584,note_on,64,0,4,,,,,,,,0,,,48,0
45592,note_on,32,0,1,,,,,,,,0,,,82,0
45593,set_tempo,30,1,0,,,,,,567644,,,,,,
45600,note_on,0,0,4,,,,,,,,0,,,49,100
45600,note_on,0,0,4,,,,,,,,0,,,55,100
45600,note_on,0,0,4,,,,,,,,0,,,58,100
45600,note_on,0,0,4,,,,,,,,0,,,61,100
45600,control_change,16,0,4,,,,,,,,0,64,0,,
45600,note_on,0,0,1,,,,,,,,0,,,67,100
45600,note_on,8,0,1,,,,,,,,0,,,65,100
45618,control_change,18,0,4,,,,,,,,0,64,127,,
45619,set_tempo,26,1,0,,,,,,563698,,,,,,
45632,note_on,0,0,1,,,,,,,,0,,,65,0
45632,note_on,32,0,1,,,,,,,,0,,,67,0
45640,note_on,8,0,1,,,,,,,,0,,,82,101
45641,set_tempo,22,1,0,,,,,,559806,,,,,,
45664,note_on,0,0,4,,,,,,,,0,,,49,0
45664,note_on,46,0,4,,,,,,,,0,,,58,0
45664,note_on,0,0,4,,,,,,,,0,,,55,0
45664,note_on,0,0,4,,,,,,,,0,,,61,0
45667,set_tempo,26,1,0,,,,,,555967,,,,,,
45672,note_on,32,0,1,,,,,,,,0,,,82,0
45680,note_on,8,0,1,,,,,,,,0,,,70,102
45680,note_on,16,0,4,,,,,,,,0,,,36,102
45680,note_on,0,0,4,,,,,,,,0,,,48,102
45689,set_tempo,22,1,0,,,,,,552181,,,,,,
45712,note_on,32,0,1,,,,,,,,0,,,70,0
45715,set_tempo,26,1,0,,,,,,548446,,,,,,
45720,note_on,8,0,1,,,,,,,,0,,,85,103
45737,set_tempo,22,1,0,,,,,,544761,,,,,,
45744,note_on,0,0,4,,,,,,,,0,,,36,0
45744,note_on,64,0,4,,,,,,,,0,,,48,0
45752,note_on,32,0,1,,,,,,,,0,,,85,0
45760,note_on,8,0,1,,,,,,,,0,,,73,103
45760,note_on,0,0,4,,,,,,,,0,,,37,103
45760,note_on,16,0,4,,,,,,,,0,,,49,103
45763,set_tempo,26,1,0,,,,,,541126,,,,,,
45785,set_tempo,22,1,0,,,,,,537538,,,,,,
45792,note_on,32,0,1,,,,,,,,0,,,73,0
45800,note_on,8,0,1,,,,,,,,0,,,89,104
45811,set_tempo,26,1,0,,,,,,533998,,,,,,
45824,note_on,64,0,4,,,,,,,,0,,,37,0
45824,note_on,0,0,4,,,,,,,,0,,,49,0
45832,note_on,32,0,1,,,,,,,,0,,,89,0
45833,set_tempo,22,1,0,,,,,,530504,,,,,,
45840,note_on,0,0,4,,,,,,,,0,,,51,105
45840,note_on,8,0,1,,,,,,,,0,,,77,105
45840,note_on,16,0,4,,,,,,,,0,,,63,105
45855,set_tempo,22,1,0,,,,,,527056,,,,,,
45872,note_on,32,0,1,,,,,,,,0,,,77,0
45880,note_on,8,0,1,,,,,,,,0,,,91,106
45881,set_tempo,26,1,0,,,,,,523652,,,,,,
45903,set_tempo,22,1,0,,,,,,520291,,,,,,
45904,note_on,64,0,4,,,,,,,,0,,,51,0
45904,note_on,0,0,4,,,,,,,,0,,,63,0
45912,note_on,32,0,1,,,,,,,,0,,,91,0
45920,note_on,8,0,1,,,,,,,,0,,,79,107
45920,note_on,16,0,4,,,,,,,,0,,,49,107
45920,note_on,0,0,4,,,,,,,,0,,,61,107
45929,set_tempo,26,1,0,,,,,,516974,,,,,,
45951,set_tempo,22,1,0,,,,,,513699,,,,,,
45952,note_on,32,0,1,,,,,,,,0,,,79,0
45960,note_on,8,0,1,,,,,,,,0,,,94,108
45977,set_tempo,26,1,0,,,,,,510465,,,,,,
45984,note_on,64,0,4,,,,,,,,0,,,61,0
45984,note_on,0,0,4,,,,,,,,0,,,49,0
45992,note_on,32,0,1,,,,,,,,0,,,94,0
45999,set_tempo,22,1,0,,,,,,507271,,,,,,
46000,note_on,0,0,4,,,,,,,,0,,,37,108
46000,note_on,8,0,1,,,,,,,,0,,,82,108
46000,note_on,16,0,4,,,,,,,,0,,,49,108
46025,set_tempo,26,1,0,,,,,,504117,,,,,,
46032,note_on,32,0,1,,,,,,,,0,,,82,0
46040,note_on,8,0,1,,,,,,,,0,,,97,109
46047,set_tempo,22,1,0,,,,,,501002,,,,,,
46064,note_on,0,0,4,,,,,,,,0,,,49,0
46064,note_on,64,0,4,,,,,,,,0,,,37,0
46068,set_tempo,21,1,0,,,,,,497925,,,,,,
46072,note_on,32,0,1,,,,,,,,0,,,97,0
46080,note_on,0,0,4,,,,,,,,0,,,55,110
46080,note_on,0,0,4,,,,,,,,0,,,48,110
46080,note_on,0,0,4,,,,,,,,0,,,64,110
46080,note_on,0,0,4,,,,,,,,0,,,58,110
46080,control_change,16,0,4,,,,,,,,0,64,0,,
46080,note_on,8,0,1,,,,,,,,0,,,82,110
46090,set_tempo,22,1,0,,,,,,501002,,,,,,
46099,control_change,19,0,4,,,,,,,,0,64,127,,
46112,note_on,32,0,1,,,,,,,,0,,,82,0
46112,set_tempo,22,1,0,,,,,,504117,,,,,,
46120,note_on,8,0,1,,,,,,,,0,,,97,107
46134,set_tempo,22,1,0,,,,,,507271,,,,,,
46144,note_on,0,0,4,,,,,,,,0,,,48,0
46144,note_on,0,0,4,,,,,,,,0,,,58,0
46144,note_on,45,0,4,,,,,,,,0,,,55,0
46144,note_on,0,0,4,,,,,,,,0,,,64,0
46152,note_on,32,0,1,,,,,,,,0,,,97,0
46156,set_tempo,22,1,0,,,,,,510465,,,,,,
46160,note_on,16,0,4,,,,,,,,0,,,47,105
46160,note_on,8,0,1,,,,,,,,0,,,79,105
46160,note_on,0,0,4,,,,,,,,0,,,35,105
46178,set_tempo,22,1,0,,,,,,513699,,,,,,
46192,note_on,32,0,1,,,,,,,,0,,,79,0
46195,set_tempo,17,1,0,,,,,,516974,,,,,,
46200,note_on,8,0,1,,,,,,,,0,,,94,102
46217,set_tempo,22,1,0,,,,,,520291,,,,,,
46224,note_on,0,0,4,,,,,,,,0,,,47,0
46224,note_on,64,0,4,,,,,,,,0,,,35,0
46232,note_on,32,0,1,,,,,,,,0,,,94,0
46239,set_tempo,22,1,0,,,,,,523652,,,,,,
46240,note_on,16,0,4,,,,,,,,0,,,48,99
46240,note_on,0,0,4,,,,,,,,0,,,36,99
46240,note_on,8,0,1,,,,,,,,0,,,76,99
46260,set_tempo,21,1,0,,,,,,527056,,,,,,
46272,note_on,32,0,1,,,,,,,,0,,,76,0
46280,note_on,8,0,1,,,,,,,,0,,,91,97
46282,set_tempo,22,1,0,,,,,,530504,,,,,,
46304,note_on,0,0,4,,,,,,,,0,,,48,0
46304,set_tempo,22,1,0,,,,,,533998,,,,,,
46304,note_on,64,0,4,,,,,,,,0,,,36,0
46312,note_on,32,0,1,,,,,,,,0,,,91,0
46320,note_on,0,0,4,,,,,,,,0,,,61,94
46320,note_on,16,0,4,,,,,,,,0,,,49,94
46320,note_on,8,0,1,,,,,,,,0,,,73,94
46322,set_tempo,18,1,0,,,,,,537538,,,,,,
46343,set_tempo,21,1,0,,,,,,541126,,,,,,
46352,note_on,32,0,1,,,,,,,,0,,,73,0
46360,note_on,8,0,1,,,,,,,,0,,,88,92
46365,set_tempo,22,1,0,,,,,,544761,,,,,,
46384,note_on,64,0,4,,,,,,,,0,,,61,0
46384,note_on,0,0,4,,,,,,,,0,,,49,0
46387,set_tempo,22,1,0,,,,,,548446,,,,,,
46392,note_on,32,0,1,,,,,,,,0,,,88,0
46400,note_on,0,0,4,,,,,,,,0,,,48,89
46400,note_on,8,0,1,,,,,,,,0,,,70,89
46400,note_on,16,0,4,,,,,,,,0,,,60,89
46409,set_tempo,22,1,0,,,,,,552181,,,,,,
46431,set_tempo,22,1,0,,,,,,555967,,,,,,
46432,note_on,32,0,1,,,,,,,,0,,,70,0
46440,note_on,8,0,1,,,,,,,,0,,,85,86
46448,set_tempo,17,1,0,,,,,,559806,,,,,,
46464,note_on,0,0,4,,,,,,,,0,,,60,0
46464,note_on,64,0,4,,,,,,,,0,,,48,0
46470,set_tempo,22,1,0,,,,,,563698,,,,,,
46472,note_on,32,0,1,,,,,,,,0,,,85,0
46480,note_on,16,0,4,,,,,,,,0,,,36,84
46480,note_on,8,0,1,,,,,,,,0,,,67,84
46480,note_on,0,0,4,,,,,,,,0,,,48,84
46492,set_tempo,22,1,0,,,,,,567644,,,,,,
46512,note_on,32,0,1,,,,,,,,0,,,67,0
46514,set_tempo,22,1,0,,,,,,571646,,,,,,
46520,note_on,8,0,1,,,,,,,,0,,,82,81
46535,set_tempo,21,1,0,,,,,,575705,,,,,,
46544,note_on,0,0,4,,,,,,,,0,,,36,0
46544,note_on,64,0,4,,,,,,,,0,,,48,0
46552,note_on,32,0,1,,,,,,,,0,,,82,0
46553,set_tempo,18,1,0,,,,,,579822,,,,,,
46560,control_change,0,0,4,,,,,,,,0,64,0,,
46560,note_on,0,0,1,,,,,,,,0,,,65,81
46560,note_on,16,0,4,,,,,,,,0,,,58,81
46560,note_on,0,0,4,,,,,,,,0,,,49,81
46560,note_on,0,0,4,,,,,,,,0,,,55,81
46560,note_on,0,0,4,,,,,,,,0,,,61,81
46560,note_on,8,0,1,,,,,,,,0,,,67,81
46578,control_change,18,0,4,,,,,,,,0,64,127,,
46579,set_tempo,26,1,0,,,,,,575705,,,,,,
46592,note_on,32,0,1,,,,,,,,0,,,65,0
46592,note_on,0,0,1,,,,,,,,0,,,67,0
46600,note_on,8,0,1,,,,,,,,0,,,82,83
46601,set_tempo,22,1,0,,,,,,571646,,,,,,
46624,note_on,46,0,4,,,,,,,,0,,,61,0
46624,note_on,0,0,4,,,,,,,,0,,,49,0
46624,note_on,0,0,4,,,,,,,,0,,,58,0
46624,note_on,0,0,4,,,,,,,,0,,,55,0
46627,set_tempo,26,1,0,,,,,,567644,,,,,,
46632,note_on,32,0,1,,,,,,,,0,,,82,0
46640,note_on,0,0,4,,,,,,,,0,,,36,86
46640,note_on,8,0,1,,,,,,,,0,,,70,86
46640,note_on,16,0,4,,,,,,,,0,,,48,86
46649,set_tempo,22,1,0,,,,,,563698,,,,,,
46671,set_tempo,22,1,0,,,,,,559806,,,,,,
46672,note_on,32,0,1,,,,,,,,0,,,70,0
46680,note_on,8,0,1,,,,,,,,0,,,85,88
46697,set_tempo,26,1,0,,,,,,555967,,,,,,
46704,note_on,0,0,4,,,,,,,,0,,,48,0
46704,note_on,64,0,4,,,,,,,,0,,,36,0
46712,note_on,32,0,1,,,,,,,,0,,,85,0
46719,set_tempo,22,1,0,,,,,,552181,,,,,,
46720,note_on,16,0,4,,,,,,,,0,,,37,91
46720,note_on,0,0,4,,,,,,,,0,,,49,91
46720,note_on,8,0,1,,,,,,,,0,,,73,91
46745,set_tempo,26,1,0,,,,,,548446,,,,,,
46752,note_on,32,0,1,,,,,,,,0,,,73,0
46760,note_on,8,0,1,,,,,,,,0,,,89,93
46767,set_tempo,22,1,0,,,,,,544761,,,,,,
46784,note_on,64,0,4,,,,,,,,0,,,49,0
46784,note_on,0,0,4,,,,,,,,0,,,37,0
46788,set_tempo,21,1,0,,,,,,541126,,,,,,
46792,note_on,32,0,1,,,,,,,,0,,,89,0
46800,note_on,16,0,4,,,,,,,,0,,,51,96
46800,note_on,8,0,1,,,,,,,,0,,,77,96
46800,note_on,0,0,4,,,,,,,,0,,,63,96
46815,set_tempo,27,1,0,,,,,,537538,,,,,,
46832,note_on,32,0,1,,,,,,,,0,,,77,0
46836,set_tempo,21,1,0,,,,,,533998,,,,,,
46840,note_on,8,0,1,,,,,,,,0,,,91,98
46863,set_tempo,27,1,0,,,,,,530504,,,,,,
46864,note_on,0,0,4,,,,,,,,0,,,51,0
46864,note_on,64,0,4,,,,,,,,0,,,63,0
46872,note_on,32,0,1,,,,,,,,0,,,91,0
46880,note_on,8,0,1,,,,,,,,0,,,79,101
46880,note_on,0,0,4,,,,,,,,0,,,61,101
46880,note_on,16,0,4,,,,,,,,0,,,49,101
46884,set_tempo,21,1,0,,,,,,527056,,,,,,
46906,set_tempo,22,1,0,,,,,,523652,,,,,,
46912,note_on,32,0,1,,,,,,,,0,,,79,0
46920,note_on,8,0,1,,,,,,,,0,,,94,103
46932,set_tempo,26,1,0,,,,,,520291,,,,,,
46944,note_on,64,0,4,,,,,,,,0,,,61,0
46944,note_on,0,0,4,,,,,,,,0,,,49,0
46952,note_on,32,0,1,,,,,,,,0,,,94,0
46954,set_tempo,22,1,0,,,,,,516974,,,,,,
46960,note_on,0,0,4,,,,,,,,0,,,49,106
46960,note_on,16,0,4,,,,,,,,0,,,37,106
46960,note_on,8,0,1,,,,,,,,0,,,82,106
46980,set_tempo,26,1,0,,,,,,513699,,,,,,
46992,note_on,32,0,1,,,,,,,,0,,,82,0
47000,note_on,8,0,1,,,,,,,,0,,,97,108
47002,set_tempo,22,1,0,,,,,,510465,,,,,,
47024,set_tempo,22,1,0,,,,,,507271,,,,,,
47024,note_on,64,0,4,,,,,,,,0,,,49,0
47024,note_on,0,0,4,,,,,,,,0,,,37,0
47032,note_on,32,0,1,,,,,,,,0,,,97,0
47037,set_tempo,13,1,0,,,,,,507271,,,,,,
47040,note_on,8,0,1,,,,,,,,0,,,82,88
47040,note_on,16,0,4,,,,,,,,0,,,36,80
47070,control_change,30,0,4,,,,,,,,0,64,0,,
47072,note_on,32,0,1,,,,,,,,0,,,82,0
47072,note_on,2,0,4,,,,,,,,0,,,36,0
47080,note_on,8,0,4,,,,,,,,0,,,43,80
47080,note_on,8,0,1,,,,,,,,0,,,97,88
47080,note_on,0,0,4,,,,,,,,0,,,46,80
47080,note_on,0,0,4,,,,,,,,0,,,52,80
47085,set_tempo,48,1,0,,,,,,510465,,,,,,
47094,control_change,14,0,4,,,,,,,,0,64,127,,
47112,note_on,32,0,1,,,,,,,,0,,,97,0
47112,note_on,0,0,4,,,,,,,,0,,,52,0
47112,note_on,18,0,4,,,,,,,,0,,,46,0
47112,note_on,0,0,4,,,,,,,,0,,,43,0
47120,note_on,8,0,4,,,,,,,,0,,,36,80
47120,note_on,8,0,1,,,,,,,,0,,,79,88
47129,set_tempo,44,1,0,,,,,,513699,,,,,,
47152,note_on,32,0,4,,,,,,,,0,,,36,0
47152,note_on,32,0,1,,,,,,,,0,,,79,0
47160,note_on,8,0,1,,,,,,,,0,,,94,88
47160,note_on,0,0,4,,,,,,,,0,,,52,80
47160,note_on,0,0,4,,,,,,,,0,,,43,80
47160,note_on,8,0,4,,,,,,,,0,,,46,80
47172,set_tempo,43,1,0,,,,,,516974,,,,,,
47192,note_on,32,0,4,,,,,,,,0,,,52,0
47192,note_on,32,0,1,,,,,,,,0,,,94,0
47192,note_on,0,0,4,,,,,,,,0,,,46,0
47192,note_on,0,0,4,,,,,,,,0,,,43,0
47200,note_on,8,0,4,,,,,,,,0,,,36,80
47200,note_on,8,0,1,,,,,,,,0,,,76,88
47220,set_tempo,48,1,0,,,,,,520291,,,,,,
47232,note_on,32,0,4,,,,,,,,0,,,36,0
47232,note_on,32,0,1,,,,,,,,0,,,76,0
47240,note_on,8,0,4,,,,,,,,0,,,52,80
47240,note_on,8,0,1,,,,,,,,0,,,91,88
47240,note_on,0,0,4,,,,,,,,0,,,43,80
47240,note_on,0,0,4,,,,,,,,0,,,46,80
47264,set_tempo,44,1,0,,,,,,523652,,,,,,
47272,note_on,32,0,1,,,,,,,,0,,,91,0
47272,note_on,0,0,4,,,,,,,,0,,,46,0
47272,note_on,0,0,4,,,,,,,,0,,,52,0
47272,note_on,32,0,4,,,,,,,,0,,,43,0
47280,note_on,8,0,1,,,,,,,,0,,,77,88
47280,note_on,8,0,4,,,,,,,,0,,,37,80
47308,set_tempo,44,1,0,,,,,,527056,,,,,,
47312,note_on,32,0,1,,,,,,,,0,,,77,0
47312,note_on,32,0,4,,,,,,,,0,,,37,0
47320,note_on,8,0,4,,,,,,,,0,,,43,80
47320,note_on,0,0,4,,,,,,,,0,,,53,80
47320,note_on,0,0,4,,,,,,,,0,,,46,80
47320,note_on,8,0,1,,,,,,,,0,,,91,88
47351,set_tempo,43,1,0,,,,,,530504,,,,,,
47352,note_on,32,0,1,,,,,,,,0,,,91,0
47352,note_on,0,0,4,,,,,,,,0,,,46,0
47352,note_on,0,0,4,,,,,,,,0,,,43,0
47352,note_on,32,0,4,,,,,,,,0,,,53,0
47360,note_on,8,0,1,,,,,,,,0,,,73,88
47360,note_on,8,0,4,,,,,,,,0,,,37,80
47392,note_on,32,0,1,,,,,,,,0,,,73,0
47392,note_on,32,0,4,,,,,,,,0,,,37,0
47399,set_tempo,48,1,0,,,,,,533998,,,,,,
47400,note_on,0,0,4,,,,,,,,0,,,43,80
47400,note_on,0,0,4,,,,,,,,0,,,46,80
47400,note_on,8,0,4,,,,,,,,0,,,53,80
47400,note_on,8,0,1,,,,,,,,0,,,89,88
47432,note_on,32,0,1,,,,,,,,0,,,89,0
47432,note_on,32,0,4,,,,,,,,0,,,46,0
47432,note_on,0,0,4,,,,,,,,0,,,43,0
47432,note_on,0,0,4,,,,,,,,0,,,53,0
47440,note_on,8,0,4,,,,,,,,0,,,37,80
47440,note_on,8,0,1,,,,,,,,0,,,70,88
47443,set_tempo,44,1,0,,,,,,537538,,,,,,
47472,note_on,32,0,4,,,,,,,,0,,,37,0
47472,note_on,32,0,1,,,,,,,,0,,,70,0
47480,note_on,0,0,4,,,,,,,,0,,,43,80
47480,note_on,0,0,4,,,,,,,,0,,,46,80
47480,note_on,8,0,4,,,,,,,,0,,,53,80
47480,note_on,8,0,1,,,,,,,,0,,,85,88
47487,set_tempo,44,1,0,,,,,,541126,,,,,,
47512,note_on,0,0,4,,,,,,,,0,,,53,0
47512,note_on,32,0,1,,,,,,,,0,,,85,0
47512,note_on,0,0,4,,,,,,,,0,,,46,0
47512,note_on,32,0,4,,,,,,,,0,,,43,0
47520,control_change,8,0,4,,,,,,,,0,64,0,,
47520,note_on,0,0,4,,,,,,,,0,,,36,80
47520,note_on,8,0,1,,,,,,,,0,,,70,80
47534,control_change,14,0,4,,,,,,,,0,64,127,,
47535,set_tempo,48,1,0,,,,,,544761,,,,,,
47552,note_on,18,0,4,,,,,,,,0,,,36,0
47552,note_on,32,0,1,,,,,,,,0,,,70,0
47560,note_on,8,0,4,,,,,,,,0,,,43,80
47560,note_on,0,0,4,,,,,,,,0,,,46,80
47560,note_on,8,0,1,,,,,,,,0,,,85,80
47560,note_on,0,0,4,,,,,,,,0,,,52,80
47578,set_tempo,43,1,0,,,,,,548446,,,,,,
47592,note_on,32,0,1,,,,,,,,0,,,85,0
47592,note_on,0,0,4,,,,,,,,0,,,43,0
47592,note_on,32,0,4,,,,,,,,0,,,52,0
47592,note_on,0,0,4,,,,,,,,0,,,46,0
47600,note_on,8,0,1,,,,,,,,0,,,67,80
47600,note_on,8,0,4,,,,,,,,0,,,36,80
47622,set_tempo,44,1,0,,,,,,552181,,,,,,
47632,note_on,32,0,1,,,,,,,,0,,,67,0
47632,note_on,32,0,4,,,,,,,,0,,,36,0
47640,note_on,8,0,1,,,,,,,,0,,,82,80
47640,note_on,0,0,4,,,,,,,,0,,,43,80
47640,note_on,8,0,4,,,,,,,,0,,,46,80
47640,note_on,0,0,4,,,,,,,,0,,,52,80
47666,set_tempo,44,1,0,,,,,,555967,,,,,,
47672,note_on,0,0,4,,,,,,,,0,,,43,0
47672,note_on,0,0,4,,,,,,,,0,,,46,0
47672,note_on,32,0,1,,,,,,,,0,,,82,0
47672,note_on,32,0,4,,,,,,,,0,,,52,0
47680,note_on,8,0,4,,,,,,,,0,,,36,80
47680,note_on,8,0,1,,,,,,,,0,,,64,80
47712,note_on,32,0,4,,,,,,,,0,,,36,0
47712,note_on,32,0,1,,,,,,,,0,,,64,0
47714,set_tempo,48,1,0,,,,,,559806,,,,,,
47720,note_on,0,0,4,,,,,,,,0,,,43,80
47720,note_on,0,0,4,,,,,,,,0,,,52,80
47720,note_on,8,0,1,,,,,,,,0,,,79,80
47720,note_on,8,0,4,,,,,,,,0,,,46,80
47752,note_on,0,0,4,,,,,,,,0,,,43,0
47752,note_on,0,0,4,,,,,,,,0,,,46,0
47752,note_on,32,0,1,,,,,,,,0,,,79,0
47752,note_on,32,0,4,,,,,,,,0,,,52,0
47757,set_tempo,43,1,0,,,,,,563698,,,,,,
47760,note_on,8,0,4,,,,,,,,0,,,37,80
47760,note_on,8,0,1,,,,,,,,0,,,65,80
47792,note_on,32,0,4,,,,,,,,0,,,37,0
47792,note_on,32,0,1,,,,,,,,0,,,65,0
47800,note_on,0,0,4,,,,,,,,0,,,53,80
47800,note_on,0,0,4,,,,,,,,0,,,43,80
47800,note_on,8,0,4,,,,,,,,0,,,46,80
47800,note_on,8,0,1,,,,,,,,0,,,79,80
47801,set_tempo,44,1,0,,,,,,567644,,,,,,
47832,note_on,0,0,4,,,,,,,,0,,,46,0
47832,note_on,32,0,1,,,,,,,,0,,,79,0
47832,note_on,0,0,4,,,,,,,,0,,,43,0
47832,note_on,32,0,4,,,,,,,,0,,,53,0
47840,note_on,8,0,4,,,,,,,,0,,,37,80
47840,note_on,8,0,1,,,,,,,,0,,,61,80
47849,set_tempo,48,1,0,,,,,,571646,,,,,,
47872,note_on,32,0,1,,,,,,,,0,,,61,0
47872,note_on,32,0,4,,,,,,,,0,,,37,0
47880,note_on,0,0,4,,,,,,,,0,,,46,80
47880,note_on,8,0,4,,,,,,,,0,,,53,80
47880,note_on,8,0,1,,,,,,,,0,,,77,80
47880,note_on,0,0,4,,,,,,,,0,,,43,80
47892,set_tempo,43,1,0,,,,,,575705,,,,,,
47912,note_on,0,0,4,,,,,,,,0,,,53,0
47912,note_on,32,0,4,,,,,,,,0,,,46,0
47912,note_on,0,0,4,,,,,,,,0,,,43,0
47912,note_on,32,0,1,,,,,,,,0,,,77,0
47920,note_on,8,0,1,,,,,,,,0,,,58,80
47920,note_on,8,0,4,,,,,,,,0,,,37,80
47936,set_tempo,44,1,0,,,,,,579822,,,,,,
47952,note_on,32,0,1,,,,,,,,0,,,58,0
47952,note_on,32,0,4,,,,,,,,0,,,37,0
47960,note_on,0,0,4,,,,,,,,0,,,46,80
47960,note_on,0,0,4,,,,,,,,0,,,43,80
47960,note_on,8,0,4,,,,,,,,0,,,53,80
47960,note_on,8,0,1,,,,,,,,0,,,73,80
47980,set_tempo,44,1,0,,,,,,583998,,,,,,
47992,note_on,32,0,1,,,,,,,,0,,,73,0
47992,note_on,0,0,4,,,,,,,,0,,,46,0
47992,note_on,0,0,4,,,,,,,,0,,,53,0
47992,note_on,32,0,4,,,,,,,,0,,,43,0
48000,note_on,8,0,1,,,,,,,,0,,,58,80
48000,note_on,8,0,4,,,,,,,,0,,,36,80
48010,note_on,10,0,4,,,,,,,,0,,,43,80
48014,control_change,4,0,4,,,,,,,,0,64,0,,
48015,note_on,15,0,1,,,,,,,,0,,,64,80
48020,note_on,6,0,4,,,,,,,,0,,,46,80
48030,note_on,10,0,4,,,,,,,,0,,,52,80
48030,note_on,15,0,1,,,,,,,,0,,,73,80
48102,note_on,72,0,4,,,,,,,,0,,,52,0
48102,note_on,0,0,4,,,,,,,,0,,,46,0
48102,note_on,0,0,4,,,,,,,,0,,,36,0
48102,note_on,0,0,4,,,,,,,,0,,,43,0
48102,note_on,72,0,1,,,,,,,,0,,,73,0
48102,note_on,0,0,1,,,,,,,,0,,,64,0
48102,note_on,0,0,1,,,,,,,,0,,,58,0
48120,note_on,18,0,1,,,,,,,,0,,,61,80
48120,note_on,9624,0,3,,,,,,,,0,,,49,80
48152,note_on,32,0,3,,,,,,,,0,,,49,0
48152,note_on,32,0,1,,,,,,,,0,,,61,0
48160,note_on,8,0,1,,,,,,,,0,,,63,80
48160,note_on,8,0,3,,,,,,,,0,,,51,80
48192,note_on,32,0,1,,,,,,,,0,,,63,0
48192,note_on,32,0,3,,,,,,,,0,,,51,0
48200,note_on,8,0,1,,,,,,,,0,,,61,80
48200,note_on,8,0,3,,,,,,,,0,,,49,80
48232,note_on,32,0,1,,,,,,,,0,,,61,0
48232,note_on,32,0,3,,,,,,,,0,,,49,0
48240,note_on,8,0,3,,,,,,,,0,,,48,80
48240,note_on,8,0,1,,,,,,,,0,,,60,80
48272,note_on,32,0,1,,,,,,,,0,,,60,0
48272,note_on,32,0,3,,,,,,,,0,,,48,0
48280,note_on,8,0,3,,,,,,,,0,,,49,80
48280,note_on,8,0,1,,,,,,,,0,,,61,80
48312,note_on,32,0,3,,,,,,,,0,,,49,0
48312,note_on,32,0,1,,,,,,,,0,,,61,0
48320,note_on,8,0,3,,,,,,,,0,,,48,80
48320,note_on,8,0,1,,,,,,,,0,,,60,80
48352,note_on,32,0,1,,,,,,,,0,,,60,0
48352,note_on,32,0,3,,,,,,,,0,,,48,0
48360,note_on,8,0,3,,,,,,,,0,,,58,80
48360,note_on,0,0,3,,,,,,,,0,,,46,80
48392,note_on,32,0,3,,,,,,,,0,,,46,0
48392,note_on,0,0,3,,,,,,,,0,,,58,0
48400,note_on,8,0,3,,,,,,,,0,,,60,80
48400,note_on,0,0,3,,,,,,,,0,,,48,80
48432,note_on,32,0,3,,,,,,,,0,,,48,0
48432,note_on,0,0,3,,,,,,,,0,,,60,0
48440,note_on,0,0,3,,,,,,,,0,,,46,80
48440,note_on,8,0,3,,,,,,,,0,,,58,80
48472,note_on,0,0,3,,,,,,,,0,,,58,0
48472,note_on,32,0,3,,,,,,,,0,,,46,0
48480,note_on,8,0,3,,,,,,,,0,,,44,81
48480,note_on,0,0,3,,,,,,,,0,,,56,81
48512,note_on,0,0,3,,,,,,,,0,,,44,0
48512,note_on,32,0,3,,,,,,,,0,,,56,0
48520,note_on,8,0,3,,,,,,,,0,,,58,80
48520,note_on,0,0,3,,,,,,,,0,,,46,80
48552,note_on,0,0,3,,,,,,,,0,,,58,0
48552,note_on,32,0,3,,,,,,,,0,,,46,0
48560,note_on,0,0,3,,,,,,,,0,,,56,79
48560,note_on,8,0,3,,,,,,,,0,,,44,79
48592,note_on,32,0,3,,,,,,,,0,,,56,0
48592,note_on,0,0,3,,,,,,,,0,,,44,0
48600,note_on,0,0,3,,,,,,,,0,,,43,78
48600,note_on,8,0,3,,,,,,,,0,,,55,78
48632,note_on,32,0,3,,,,,,,,0,,,43,0
48632,note_on,0,0,3,,,,,,,,0,,,55,0
48640,note_on,0,0,3,,,,,,,,0,,,56,77
48640,note_on,8,0,3,,,,,,,,0,,,44,77
48672,note_on,0,0,3,,,,,,,,0,,,44,0
48672,note_on,32,0,3,,,,,,,,0,,,56,0
48680,note_on,0,0,3,,,,,,,,0,,,43,76
48680,note_on,8,0,3,,,,,,,,0,,,56,76
48712,note_on,0,0,3,,,,,,,,0,,,56,0
48712,note_on,32,0,3,,,,,,,,0,,,43,0
48720,note_on,0,0,3,,,,,,,,0,,,53,75
48720,note_on,8,0,3,,,,,,,,0,,,41,75
48752,note_on,0,0,3,,,,,,,,0,,,41,0
48752,note_on,32,0,3,,,,,,,,0,,,53,0
48760,note_on,0,0,3,,,,,,,,0,,,55,74
48760,note_on,8,0,3,,,,,,,,0,,,43,74
48792,note_on,32,0,3,,,,,,,,0,,,55,0
48792,note_on,0,0,3,,,,,,,,0,,,43,0
48800,note_on,8,0,3,,,,,,,,0,,,41,74
48800,note_on,0,0,3,,,,,,,,0,,,53,74
48832,note_on,32,0,3,,,,,,,,0,,,53,0
48832,note_on,0,0,3,,,,,,,,0,,,41,0
48840,note_on,8,0,3,,,,,,,,0,,,40,73
48840,note_on,0,0,3,,,,,,,,0,,,52,73
48872,note_on,32,0,3,,,,,,,,0,,,52,0
48872,note_on,0,0,3,,,,,,,,0,,,40,0
48880,note_on,8,0,3,,,,,,,,0,,,41,72
48880,note_on,0,0,3,,,,,,,,0,,,53,72
48912,note_on,32,0,3,,,,,,,,0,,,53,0
48912,note_on,0,0,3,,,,,,,,0,,,41,0
48920,note_on,8,0,3,,,,,,,,0,,,40,71
48920,note_on,0,0,3,,,,,,,,0,,,52,71
48952,note_on,0,0,3,,,,,,,,0,,,40,0
48952,note_on,32,0,3,,,,,,,,0,,,52,0
48960,note_on,8,0,3,,,,,,,,0,,,37,70
48960,note_on,0,0,3,,,,,,,,0,,,49,70
48992,note_on,32,0,3,,,,,,,,0,,,49,0
48992,note_on,0,0,3,,,,,,,,0,,,37,0
49000,note_on,0,0,3,,,,,,,,0,,,39,69
49000,note_on,8,0,3,,,,,,,,0,,,51,69
49032,note_on,32,0,3,,,,,,,,0,,,39,0
49032,note_on,0,0,3,,,,,,,,0,,,51,0
49040,note_on,0,0,3,,,,,,,,0,,,49,68
49040,note_on,8,0,3,,,,,,,,0,,,37,68
49072,note_on,32,0,3,,,,,,,,0,,,49,0
49072,note_on,0,0,3,,,,,,,,0,,,37,0
49080,note_on,8,0,3,,,,,,,,0,,,48,67
49080,note_on,0,0,3,,,,,,,,0,,,36,67
49112,note_on,32,0,3,,,,,,,,0,,,36,0
49112,note_on,0,0,3,,,,,,,,0,,,48,0
49120,note_on,8,0,3,,,,,,,,0,,,37,67
49120,note_on,0,0,3,,,,,,,,0,,,49,67
49152,note_on,32,0,3,,,,,,,,0,,,49,0
49152,note_on,0,0,3,,,,,,,,0,,,37,0
49160,note_on,8,0,3,,,,,,,,0,,,48,66
49160,note_on,0,0,3,,,,,,,,0,,,36,66
49192,note_on,32,0,3,,,,,,,,0,,,36,0
49192,note_on,0,0,3,,,,,,,,0,,,48,0
49200,note_on,8,0,3,,,,,,,,0,,,34,65
49200,note_on,0,0,3,,,,,,,,0,,,46,65
49232,note_on,32,0,3,,,,,,,,0,,,46,0
49232,note_on,0,0,3,,,,,,,,0,,,34,0
49240,note_on,0,0,3,,,,,,,,0,,,48,64
49240,note_on,8,0,3,,,,,,,,0,,,36,64
49272,note_on,0,0,3,,,,,,,,0,,,36,0
49272,note_on,32,0,3,,,,,,,,0,,,48,0
49280,note_on,0,0,3,,,,,,,,0,,,46,63
49280,note_on,8,0,3,,,,,,,,0,,,34,63
49312,note_on,0,0,3,,,,,,,,0,,,34,0
49312,note_on,32,0,3,,,,,,,,0,,,46,0
49320,note_on,8,0,3,,,,,,,,0,,,32,62
49320,note_on,0,0,3,,,,,,,,0,,,44,62
49352,note_on,0,0,3,,,,,,,,0,,,32,0
49352,note_on,32,0,3,,,,,,,,0,,,44,0
49360,note_on,0,0,3,,,,,,,,0,,,46,62
49360,note_on,8,0,3,,,,,,,,0,,,34,62
49392,note_on,32,0,3,,,,,,,,0,,,46,0
49392,note_on,0,0,3,,,,,,,,0,,,34,0
49400,note_on,0,0,3,,,,,,,,0,,,44,61
49400,note_on,8,0,3,,,,,,,,0,,,32,61
49432,note_on,32,0,3,,,,,,,,0,,,44,0
49432,note_on,0,0,3,,,,,,,,0,,,32,0
49440,note_on,8,0,3,,,,,,,,0,,,31,59
49440,note_on,0,0,3,,,,,,,,0,,,43,59
49472,note_on,0,0,3,,,,,,,,0,,,31,0
49472,note_on,32,0,3,,,,,,,,0,,,43,0
49480,note_on,8,0,3,,,,,,,,0,,,42,60
49480,note_on,0,0,3,,,,,,,,0,,,30,60
49512,note_on,32,0,3,,,,,,,,0,,,30,0
49512,note_on,0,0,3,,,,,,,,0,,,42,0
49520,note_on,8,0,3,,,,,,,,0,,,31,61
49520,note_on,0,0,3,,,,,,,,0,,,43,61
49552,note_on,0,0,3,,,,,,,,0,,,31,0
49552,note_on,32,0,3,,,,,,,,0,,,43,0
49560,note_on,8,0,3,,,,,,,,0,,,44,62
49560,note_on,0,0,3,,,,,,,,0,,,32,62
49592,note_on,32,0,3,,,,,,,,0,,,32,0
49592,note_on,0,0,3,,,,,,,,0,,,44,0
49600,note_on,8,0,3,,,,,,,,0,,,31,63
49600,note_on,0,0,3,,,,,,,,0,,,43,63
49632,note_on,32,0,3,,,,,,,,0,,,43,0
49632,note_on,0,0,3,,,,,,,,0,,,31,0
49640,note_on,8,0,3,,,,,,,,0,,,44,64
49640,note_on,0,0,3,,,,,,,,0,,,32,64
49672,note_on,0,0,3,,,,,,,,0,,,44,0
49672,note_on,32,0,3,,,,,,,,0,,,32,0
49680,note_on,0,0,3,,,,,,,,0,,,45,65
49680,note_on,8,0,3,,,,,,,,0,,,33,65
49712,note_on,0,0,3,,,,,,,,0,,,33,0
49712,note_on,32,0,3,,,,,,,,0,,,45,0
49720,note_on,0,0,3,,,,,,,,0,,,44,65
49720,note_on,8,0,3,,,,,,,,0,,,32,65
49752,note_on,0,0,3,,,,,,,,0,,,32,0
49752,note_on,32,0,3,,,,,,,,0,,,44,0
49760,note_on,8,0,3,,,,,,,,0,,,33,66
49760,note_on,0,0,3,,,,,,,,0,,,45,66
49792,note_on,0,0,3,,,,,,,,0,,,33,0
49792,note_on,32,0,3,,,,,,,,0,,,45,0
49800,note_on,8,0,3,,,,,,,,0,,,34,67
49800,note_on,0,0,3,,,,,,,,0,,,46,67
49832,note_on,32,0,3,,,,,,,,0,,,46,0
49832,note_on,0,0,3,,,,,,,,0,,,34,0
49840,note_on,0,0,3,,,,,,,,0,,,45,68
49840,note_on,8,0,3,,,,,,,,0,,,33,68
49872,note_on,0,0,3,,,,,,,,0,,,33,0
49872,note_on,32,0,3,,,,,,,,0,,,45,0
49880,note_on,0,0,3,,,,,,,,0,,,46,69
49880,note_on,8,0,3,,,,,,,,0,,,34,69
49912,note_on,32,0,3,,,,,,,,0,,,46,0
49912,note_on,0,0,3,,,,,,,,0,,,34,0
49920,note_on,0,0,3,,,,,,,,0,,,47,70
49920,note_on,8,0,3,,,,,,,,0,,,35,70
49952,note_on,32,0,3,,,,,,,,0,,,47,0
49952,note_on,0,0,3,,,,,,,,0,,,35,0
49960,note_on,0,0,3,,,,,,,,0,,,34,71
49960,note_on,8,0,3,,,,,,,,0,,,46,71
49992,note_on,0,0,3,,,,,,,,0,,,46,0
49992,note_on,32,0,3,,,,,,,,0,,,34,0
50000,note_on,0,0,3,,,,,,,,0,,,47,71
50000,note_on,8,0,3,,,,,,,,0,,,35,71
50032,note_on,32,0,3,,,,,,,,0,,,47,0
50032,note_on,0,0,3,,,,,,,,0,,,35,0
50040,note_on,8,0,3,,,,,,,,0,,,48,72
50040,note_on,0,0,3,,,,,,,,0,,,36,72
50072,note_on,32,0,3,,,,,,,,0,,,36,0
50072,note_on,0,0,3,,,,,,,,0,,,48,0
50080,note_on,0,0,3,,,,,,,,0,,,47,73
50080,note_on,8,0,3,,,,,,,,0,,,35,73
50112,note_on,0,0,3,,,,,,,,0,,,35,0
50112,note_on,32,0,3,,,,,,,,0,,,47,0
50120,note_on,8,0,3,,,,,,,,0,,,48,74
50120,note_on,0,0,3,,,,,,,,0,,,36,74
50152,note_on,0,0,3,,,,,,,,0,,,48,0
50152,note_on,32,0,3,,,,,,,,0,,,36,0
50160,note_on,0,0,3,,,,,,,,0,,,49,75
50160,note_on,8,0,3,,,,,,,,0,,,37,75
50192,note_on,0,0,3,,,,,,,,0,,,37,0
50192,note_on,32,0,3,,,,,,,,0,,,49,0
50200,note_on,8,0,3,,,,,,,,0,,,39,76
50200,note_on,0,0,3,,,,,,,,0,,,51,76
50232,note_on,32,0,3,,,,,,,,0,,,51,0
50232,note_on,0,0,3,,,,,,,,0,,,39,0
50240,note_on,8,0,3,,,,,,,,0,,,37,77
50240,note_on,0,0,3,,,,,,,,0,,,49,77
50272,note_on,32,0,3,,,,,,,,0,,,49,0
50272,note_on,0,0,3,,,,,,,,0,,,37,0
50280,note_on,8,0,3,,,,,,,,0,,,36,77
50280,note_on,0,0,3,,,,,,,,0,,,48,77
50312,note_on,32,0,3,,,,,,,,0,,,48,0
50312,note_on,0,0,3,,,,,,,,0,,,36,0
50320,note_on,8,0,3,,,,,,,,0,,,37,78
50320,note_on,0,0,3,,,,,,,,0,,,49,78
50352,note_on,0,0,3,,,,,,,,0,,,37,0
50352,note_on,32,0,3,,,,,,,,0,,,49,0
50360,note_on,0,0,3,,,,,,,,0,,,48,79
50360,note_on,8,0,3,,,,,,,,0,,,36,79
50392,note_on,0,0,3,,,,,,,,0,,,36,0
50392,note_on,32,0,3,,,,,,,,0,,,48,0
50400,note_on,0,0,4,,,,,,,,0,,,41,72
50400,control_change,2298,0,4,,,,,,,,0,64,127,,
50432,note_on,32,0,4,,,,,,,,0,,,41,0
50440,note_on,8,0,4,,,,,,,,0,,,48,72
50472,note_on,32,0,4,,,,,,,,0,,,48,0
50480,note_on,8,0,4,,,,,,,,0,,,53,72
50480,note_on,0,0,1,,,,,,,,0,,,83,80
50480,note_on,0,0,4,,,,,,,,0,,,56,72
50480,note_on,2128,0,1,,,,,,,,0,,,71,80
50512,note_on,32,0,4,,,,,,,,0,,,56,0
50512,note_on,0,0,4,,,,,,,,0,,,53,0
50520,note_on,8,0,4,,,,,,,,0,,,59,72
50544,note_on,64,0,1,,,,,,,,0,,,83,0
50544,note_on,0,0,1,,,,,,,,0,,,71,0
50552,note_on,32,0,4,,,,,,,,0,,,59,0
50560,note_on,8,0,4,,,,,,,,0,,,60,72
50560,note_on,16,0,1,,,,,,,,0,,,72,80
50560,note_on,0,0,1,,,,,,,,0,,,84,80
50592,note_on,32,0,4,,,,,,,,0,,,60,0
50600,note_on,8,0,4,,,,,,,,0,,,56,72
50600,note_on,0,0,4,,,,,,,,0,,,53,72
50624,note_on,64,0,1,,,,,,,,0,,,84,0
50624,note_on,0,0,1,,,,,,,,0,,,72,0
50632,note_on,32,0,4,,,,,,,,0,,,53,0
50632,note_on,0,0,4,,,,,,,,0,,,56,0
50640,control_change,0,0,4,,,,,,,,0,64,0,,
50640,note_on,8,0,4,,,,,,,,0,,,41,72
50644,control_change,4,0,4,,,,,,,,0,64,127,,
50672,note_on,28,0,4,,,,,,,,0,,,41,0
50680,note_on,8,0,4,,,,,,,,0,,,52,72
50712,note_on,32,0,4,,,,,,,,0,,,52,0
50720,note_on,0,0,4,,,,,,,,0,,,55,72
50720,note_on,0,0,1,,,,,,,,0,,,85,80
50720,note_on,8,0,4,,,,,,,,0,,,58,72
50720,note_on,96,0,1,,,,,,,,0,,,73,80
50752,note_on,32,0,4,,,,,,,,0,,,55,0
50752,note_on,0,0,4,,,,,,,,0,,,58,0
50760,note_on,8,0,4,,,,,,,,0,,,61,72
50784,note_on,0,0,1,,,,,,,,0,,,73,0
50784,note_on,64,0,1,,,,,,,,0,,,85,0
50792,note_on,32,0,4,,,,,,,,0,,,61,0
50800,note_on,8,0,4,,,,,,,,0,,,60,72
50800,note_on,0,0,1,,,,,,,,0,,,84,80
50800,note_on,16,0,1,,,,,,,,0,,,72,80
50832,note_on,32,0,4,,,,,,,,0,,,60,0
50840,note_on,0,0,4,,,,,,,,0,,,52,72
50840,note_on,8,0,4,,,,,,,,0,,,55,72
50864,note_on,64,0,1,,,,,,,,0,,,84,0
50864,note_on,0,0,1,,,,,,,,0,,,72,0
50872,note_on,32,0,4,,,,,,,,0,,,52,0
50872,note_on,0,0,4,,,,,,,,0,,,55,0
50880,note_on,0,0,4,,,,,,,,0,,,41,72
50880,control_change,0,0,4,,,,,,,,0,64,127,,
50880,control_change,8,0,4,,,,,,,,0,64,0,,
50912,note_on,32,0,4,,,,,,,,0,,,41,0
50920,note_on,8,0,4,,,,,,,,0,,,48,72
50952,note_on,32,0,4,,,,,,,,0,,,48,0
50960,note_on,96,0,1,,,,,,,,0,,,71,80
50960,note_on,0,0,1,,,,,,,,0,,,83,80
50960,note_on,0,0,4,,,,,,,,0,,,56,72
50960,note_on,8,0,4,,,,,,,,0,,,53,72
50992,note_on,0,0,4,,,,,,,,0,,,53,0
50992,note_on,32,0,4,,,,,,,,0,,,56,0
51000,note_on,8,0,4,,,,,,,,0,,,60,72
51000,note_on,0,0,4,,,,,,,,0,,,56,72
51024,note_on,64,0,1,,,,,,,,0,,,83,0
51024,note_on,0,0,1,,,,,,,,0,,,71,0
51032,note_on,32,0,4,,,,,,,,0,,,56,0
51032,note_on,0,0,4,,,,,,,,0,,,60,0
51040,note_on,0,0,1,,,,,,,,0,,,85,80
51040,note_on,16,0,1,,,,,,,,0,,,73,80
51040,note_on,8,0,4,,,,,,,,0,,,67,72
51072,note_on,32,0,4,,,,,,,,0,,,67,0
51080,note_on,8,0,4,,,,,,,,0,,,65,72
51104,note_on,0,0,1,,,,,,,,0,,,73,0
51104,note_on,64,0,1,,,,,,,,0,,,85,0
51112,note_on,32,0,4,,,,,,,,0,,,65,0
51120,note_on,0,0,4,,,,,,,,0,,,55,72
51120,note_on,0,0,1,,,,,,,,0,,,84,80
51120,note_on,16,0,1,,,,,,,,0,,,72,80
51120,note_on,8,0,4,,,,,,,,0,,,58,72
51152,note_on,32,0,4,,,,,,,,0,,,55,0
51152,note_on,0,0,4,,,,,,,,0,,,58,0
51160,note_on,8,0,4,,,,,,,,0,,,65,72
51184,note_on,0,0,1,,,,,,,,0,,,72,0
51184,note_on,64,0,1,,,,,,,,0,,,84,0
51192,note_on,32,0,4,,,,,,,,0,,,65,0
51200,note_on,16,0,1,,,,,,,,0,,,92,80
51200,note_on,0,0,1,,,,,,,,0,,,80,80
51200,note_on,8,0,4,,,,,,,,0,,,63,72
51232,note_on,32,0,4,,,,,,,,0,,,63,0
51240,note_on,8,0,4,,,,,,,,0,,,56,72
51240,note_on,0,0,4,,,,,,,,0,,,53,72
51264,note_on,0,0,1,,,,,,,,0,,,92,0
51264,note_on,64,0,1,,,,,,,,0,,,80,0
51272,note_on,32,0,4,,,,,,,,0,,,53,0
51272,note_on,0,0,4,,,,,,,,0,,,56,0
51280,note_on,16,0,1,,,,,,,,0,,,77,80
51280,note_on,8,0,4,,,,,,,,0,,,63,72
51280,note_on,0,0,1,,,,,,,,0,,,89,80
51312,note_on,32,0,4,,,,,,,,0,,,63,0
51320,note_on,8,0,4,,,,,,,,0,,,61,72
51344,note_on,0,0,1,,,,,,,,0,,,77,0
51344,note_on,64,0,1,,,,,,,,0,,,89,0
51352,note_on,32,0,4,,,,,,,,0,,,61,0
51355,control_change,3,0,4,,,,,,,,0,64,0,,
51360,note_on,0,0,4,,,,,,,,0,,,51,72
51360,note_on,5,0,4,,,,,,,,0,,,55,72
51371,control_change,11,0,4,,,,,,,,0,64,127,,
51392,note_on,21,0,4,,,,,,,,0,,,51,0
51392,note_on,0,0,4,,,,,,,,0,,,55,0
51400,note_on,8,0,4,,,,,,,,0,,,61,72
51432,note_on,32,0,4,,,,,,,,0,,,61,0
51440,note_on,8,0,4,,,,,,,,0,,,60,72
51472,note_on,32,0,4,,,,,,,,0,,,60,0
51480,note_on,0,0,4,,,,,,,,0,,,53,72
51480,note_on,8,0,4,,,,,,,,0,,,49,72
51512,note_on,0,0,4,,,,,,,,0,,,49,0
51512,note_on,32,0,4,,,,,,,,0,,,53,0
51520,note_on,8,0,4,,,,,,,,0,,,60,72
51552,note_on,32,0,4,,,,,,,,0,,,60,0
51560,note_on,8,0,4,,,,,,,,0,,,58,72
51592,note_on,32,0,4,,,,,,,,0,,,58,0
51600,note_on,0,0,4,,,,,,,,0,,,48,72
51600,note_on,8,0,4,,,,,,,,0,,,51,72
51632,note_on,0,0,4,,,,,,,,0,,,51,0
51632,note_on,32,0,4,,,,,,,,0,,,48,0
51640,note_on,8,0,4,,,,,,,,0,,,58,72
51672,note_on,32,0,4,,,,,,,,0,,,58,0
51680,note_on,8,0,4,,,,,,,,0,,,56,72
51712,note_on,32,0,4,,,,,,,,0,,,56,0
51720,note_on,8,0,4,,,,,,,,0,,,49,72
51720,note_on,0,0,4,,,,,,,,0,,,46,72
51752,note_on,32,0,4,,,,,,,,0,,,46,0
51752,note_on,0,0,4,,,,,,,,0,,,49,0
51760,note_on,8,0,4,,,,,,,,0,,,56,72
51792,note_on,32,0,4,,,,,,,,0,,,56,0
51800,note_on,8,0,4,,,,,,,,0,,,55,72
51832,note_on,32,0,4,,,,,,,,0,,,55,0
51840,control_change,0,0,4,,,,,,,,0,64,0,,
51840,note_on,8,0,4,,,,,,,,0,,,41,72
51852,control_change,12,0,4,,,,,,,,0,64,127,,
51872,note_on,20,0,4,,,,,,,,0,,,41,0
51880,note_on,8,0,4,,,,,,,,0,,,48,72
51912,note_on,32,0,4,,,,,,,,0,,,48,0
51920,note_on,576,0,1,,,,,,,,0,,,83,80
51920,note_on,8,0,4,,,,,,,,0,,,53,72
51920,note_on,0,0,1,,,,,,,,0,,,71,80
51920,note_on,0,0,4,,,,,,,,0,,,56,72
51952,note_on,0,0,4,,,,,,,,0,,,53,0
51952,note_on,32,0,4,,,,,,,,0,,,56,0
51960,note_on,8,0,4,,,,,,,,0,,,59,72
51984,note_on,64,0,1,,,,,,,,0,,,71,0
51984,note_on,0,0,1,,,,,,,,0,,,83,0
51992,note_on,32,0,4,,,,,,,,0,,,59,0
52000,note_on,0,0,1,,,,,,,,0,,,84,80
52000,note_on,16,0,1,,,,,,,,0,,,72,80
52000,note_on,8,0,4,,,,,,,,0,,,60,72
52032,note_on,32,0,4,,,,,,,,0,,,60,0
52040,note_on,8,0,4,,,,,,,,0,,,53,72
52040,note_on,0,0,4,,,,,,,,0,,,56,72
52064,note_on,64,0,1,,,,,,,,0,,,84,0
52064,note_on,0,0,1,,,,,,,,0,,,72,0
52072,note_on,32,0,4,,,,,,,,0,,,56,0
52072,note_on,0,0,4,,,,,,,,0,,,53,0
52080,note_on,8,0,4,,,,,,,,0,,,41,72
52084,control_change,4,0,4,,,,,,,,0,64,0,,
52096,control_change,12,0,4,,,,,,,,0,64,127,,
52112,note_on,16,0,4,,,,,,,,0,,,41,0
52120,note_on,8,0,4,,,,,,,,0,,,52,72
52152,note_on,32,0,4,,,,,,,,0,,,52,0
52160,note_on,8,0,4,,,,,,,,0,,,58,72
52160,note_on,0,0,4,,,,,,,,0,,,55,72
52160,note_on,0,0,1,,,,,,,,0,,,85,80
52160,note_on,96,0,1,,,,,,,,0,,,73,80
52192,note_on,0,0,4,,,,,,,,0,,,58,0
52192,note_on,32,0,4,,,,,,,,0,,,55,0
52200,note_on,8,0,4,,,,,,,,0,,,61,72
52224,note_on,64,0,1,,,,,,,,0,,,85,0
52224,note_on,0,0,1,,,,,,,,0,,,73,0
52232,note_on,32,0,4,,,,,,,,0,,,61,0
52240,note_on,8,0,4,,,,,,,,0,,,60,72
52240,note_on,0,0,1,,,,,,,,0,,,72,80
52240,note_on,16,0,1,,,,,,,,0,,,84,80
52272,note_on,32,0,4,,,,,,,,0,,,60,0
52280,note_on,0,0,4,,,,,,,,0,,,55,72
52280,note_on,8,0,4,,,,,,,,0,,,52,72
52304,note_on,64,0,1,,,,,,,,0,,,72,0
52304,note_on,0,0,1,,,,,,,,0,,,84,0
52312,note_on,0,0,4,,,,,,,,0,,,52,0
52312,note_on,32,0,4,,,,,,,,0,,,55,0
52320,note_on,8,0,4,,,,,,,,0,,,41,72
52320,control_change,0,0,4,,,,,,,,0,64,0,,
52343,control_change,23,0,4,,,,,,,,0,64,127,,
52352,note_on,9,0,4,,,,,,,,0,,,41,0
52360,note_on,8,0,4,,,,,,,,0,,,48,72
52392,note_on,32,0,4,,,,,,,,0,,,48,0
52400,note_on,8,0,4,,,,,,,,0,,,56,72
52400,note_on,0,0,4,,,,,,,,0,,,53,72
52400,note_on,0,0,1,,,,,,,,0,,,71,80
52400,note_on,96,0,1,,,,,,,,0,,,83,80
52432,note_on,0,0,4,,,,,,,,0,,,56,0
52432,note_on,32,0,4,,,,,,,,0,,,53,0
52440,note_on,0,0,4,,,,,,,,0,,,60,72
52440,note_on,8,0,4,,,,,,,,0,,,56,72
52464,note_on,0,0,1,,,,,,,,0,,,83,0
52464,note_on,64,0,1,,,,,,,,0,,,71,0
52472,note_on,0,0,4,,,,,,,,0,,,56,0
52472,note_on,32,0,4,,,,,,,,0,,,60,0
52480,note_on,8,0,4,,,,,,,,0,,,67,72
52480,note_on,16,0,1,,,,,,,,0,,,73,80
52480,note_on,0,0,1,,,,,,,,0,,,85,80
52512,note_on,32,0,4,,,,,,,,0,,,67,0
52520,note_on,8,0,4,,,,,,,,0,,,65,72
52544,note_on,0,0,1,,,,,,,,0,,,73,0
52544,note_on,64,0,1,,,,,,,,0,,,85,0
52552,note_on,32,0,4,,,,,,,,0,,,65,0
52560,note_on,8,0,4,,,,,,,,0,,,55,72
52560,note_on,16,0,1,,,,,,,,0,,,84,80
52560,note_on,0,0,4,,,,,,,,0,,,58,72
52560,note_on,0,0,1,,,,,,,,0,,,72,80
52592,note_on,32,0,4,,,,,,,,0,,,58,0
52592,note_on,0,0,4,,,,,,,,0,,,55,0
52600,note_on,8,0,4,,,,,,,,0,,,65,72
52624,note_on,64,0,1,,,,,,,,0,,,72,0
52624,note_on,0,0,1,,,,,,,,0,,,84,0
52632,note_on,32,0,4,,,,,,,,0,,,65,0
52640,note_on,16,0,1,,,,,,,,0,,,80,80
52640,note_on,8,0,4,,,,,,,,0,,,63,72
52640,note_on,0,0,1,,,,,,,,0,,,92,80
52672,note_on,32,0,4,,,,,,,,0,,,63,0
52680,note_on,8,0,4,,,,,,,,0,,,53,72
52680,note_on,0,0,4,,,,,,,,0,,,56,72
52704,note_on,64,0,1,,,,,,,,0,,,92,0
52704,note_on,0,0,1,,,,,,,,0,,,80,0
52712,note_on,32,0,4,,,,,,,,0,,,56,0
52712,note_on,0,0,4,,,,,,,,0,,,53,0
52720,note_on,8,0,4,,,,,,,,0,,,63,72
52720,note_on,0,0,1,,,,,,,,0,,,77,80
52720,note_on,16,0,1,,,,,,,,0,,,89,80
52752,note_on,32,0,4,,,,,,,,0,,,63,0
52760,note_on,8,0,4,,,,,,,,0,,,61,72
52784,note_on,64,0,1,,,,,,,,0,,,77,0
52784,note_on,0,0,1,,,,,,,,0,,,89,0
52792,note_on,32,0,4,,,,,,,,0,,,61,0
52800,note_on,8,0,4,,,,,,,,0,,,39,72
52812,control_change,12,0,4,,,,,,,,0,64,0,,
52818,control_change,6,0,4,,,,,,,,0,64,127,,
52832,note_on,14,0,4,,,,,,,,0,,,39,0
52840,note_on,8,0,4,,,,,,,,0,,,48,72
52872,note_on,32,0,4,,,,,,,,0,,,48,0
52880,note_on,0,0,1,,,,,,,,0,,,74,80
52880,note_on,8,0,4,,,,,,,,0,,,56,72
52880,note_on,96,0,1,,,,,,,,0,,,86,80
52912,note_on,32,0,4,,,,,,,,0,,,56,0
52920,note_on,8,0,4,,,,,,,,0,,,51,72
52944,note_on,0,0,1,,,,,,,,0,,,86,0
52944,note_on,64,0,1,,,,,,,,0,,,74,0
52952,note_on,32,0,4,,,,,,,,0,,,51,0
52960,note_on,16,0,1,,,,,,,,0,,,75,80
52960,note_on,0,0,1,,,,,,,,0,,,87,80
52960,note_on,8,0,4,,,,,,,,0,,,60,72
52992,note_on,32,0,4,,,,,,,,0,,,60,0
53000,note_on,8,0,4,,,,,,,,0,,,56,72
53024,note_on,64,0,1,,,,,,,,0,,,87,0
53024,note_on,0,0,1,,,,,,,,0,,,75,0
53032,note_on,32,0,4,,,,,,,,0,,,56,0
53040,control_change,0,0,4,,,,,,,,0,64,0,,
53040,note_on,8,0,4,,,,,,,,0,,,39,72
53063,control_change,23,0,4,,,,,,,,0,64,127,,
53072,note_on,9,0,4,,,,,,,,0,,,39,0
53080,note_on,0,0,4,,,,,,,,0,,,49,72
53080,note_on,8,0,4,,,,,,,,0,,,46,72
53112,note_on,32,0,4,,,,,,,,0,,,49,0
53112,note_on,0,0,4,,,,,,,,0,,,46,0
53120,note_on,8,0,4,,,,,,,,0,,,55,72
53120,note_on,0,0,1,,,,,,,,0,,,88,80
53120,note_on,96,0,1,,,,,,,,0,,,76,80
53152,note_on,32,0,4,,,,,,,,0,,,55,0
53160,note_on,8,0,4,,,,,,,,0,,,51,72
53184,note_on,64,0,1,,,,,,,,0,,,88,0
53184,note_on,0,0,1,,,,,,,,0,,,76,0
53192,note_on,32,0,4,,,,,,,,0,,,51,0
53200,note_on,16,0,1,,,,,,,,0,,,75,80
53200,note_on,8,0,4,,,,,,,,0,,,61,72
53200,note_on,0,0,1,,,,,,,,0,,,87,80
53232,note_on,32,0,4,,,,,,,,0,,,61,0
53240,note_on,8,0,4,,,,,,,,0,,,55,72
53264,note_on,64,0,1,,,,,,,,0,,,87,0
53264,note_on,0,0,1,,,,,,,,0,,,75,0
53272,note_on,32,0,4,,,,,,,,0,,,55,0
53280,control_change,8,0,4,,,,,,,,0,64,0,,
53280,note_on,0,0,4,,,,,,,,0,,,44,72
53306,control_change,26,0,4,,,,,,,,0,64,127,,
53312,note_on,6,0,4,,,,,,,,0,,,44,0
53320,note_on,8,0,4,,,,,,,,0,,,51,72
53352,note_on,32,0,4,,,,,,,,0,,,51,0
53360,note_on,0,0,4,,,,,,,,0,,,60,72
53360,note_on,96,0,1,,,,,,,,0,,,74,80
53360,note_on,0,0,1,,,,,,,,0,,,86,80
53360,note_on,8,0,4,,,,,,,,0,,,56,72
53392,note_on,0,0,4,,,,,,,,0,,,56,0
53392,note_on,32,0,4,,,,,,,,0,,,60,0
53400,note_on,0,0,2,,,,,,,,0,,,63,72
53400,note_on,8696,0,2,,,,,,,,0,,,60,72
53424,note_on,64,0,1,,,,,,,,0,,,86,0
53424,note_on,0,0,1,,,,,,,,0,,,74,0
53432,note_on,0,0,2,,,,,,,,0,,,60,0
53432,note_on,32,0,2,,,,,,,,0,,,63,0
53440,note_on,16,0,1,,,,,,,,0,,,77,80
53440,note_on,0,0,1,,,,,,,,0,,,89,80
53440,note_on,8,0,2,,,,,,,,0,,,70,72
53472,note_on,32,0,2,,,,,,,,0,,,70,0
53480,note_on,8,0,2,,,,,,,,0,,,68,72
53504,note_on,64,0,1,,,,,,,,0,,,89,0
53504,note_on,0,0,1,,,,,,,,0,,,77,0
53512,note_on,32,0,2,,,,,,,,0,,,68,0
53520,note_on,0,0,2,,,,,,,,0,,,61,72
53520,note_on,0,0,1,,,,,,,,0,,,87,80
53520,note_on,8,0,2,,,,,,,,0,,,58,72
53520,note_on,16,0,1,,,,,,,,0,,,75,80
53552,note_on,32,0,2,,,,,,,,0,,,61,0
53552,note_on,0,0,2,,,,,,,,0,,,58,0
53560,note_on,8,0,2,,,,,,,,0,,,68,72
53584,note_on,64,0,1,,,,,,,,0,,,87,0
53584,note_on,0,0,1,,,,,,,,0,,,75,0
53592,note_on,32,0,2,,,,,,,,0,,,68,0
53600,note_on,8,0,2,,,,,,,,0,,,67,72
53600,note_on,16,0,1,,,,,,,,0,,,96,80
53600,note_on,0,0,1,,,,,,,,0,,,84,80
53632,note_on,32,0,2,,,,,,,,0,,,67,0
53640,note_on,8,0,2,,,,,,,,0,,,60,72
53640,note_on,0,0,2,,,,,,,,0,,,56,72
53664,note_on,64,0,1,,,,,,,,0,,,84,0
53664,note_on,0,0,1,,,,,,,,0,,,96,0
53672,note_on,32,0,2,,,,,,,,0,,,56,0
53672,note_on,0,0,2,,,,,,,,0,,,60,0
53680,note_on,16,0,1,,,,,,,,0,,,92,80
53680,note_on,8,0,2,,,,,,,,0,,,67,72
53680,note_on,0,0,1,,,,,,,,0,,,80,80
53712,note_on,32,0,2,,,,,,,,0,,,67,0
53720,note_on,8,0,2,,,,,,,,0,,,65,72
53744,note_on,0,0,1,,,,,,,,0,,,92,0
53744,note_on,64,0,1,,,,,,,,0,,,80,0
53752,note_on,32,0,2,,,,,,,,0,,,65,0
53760,control_change,0,0,4,,,,,,,,0,64,0,,
53760,note_on,368,0,4,,,,,,,,0,,,43,72
53776,control_change,16,0,4,,,,,,,,0,64,127,,
53792,note_on,16,0,4,,,,,,,,0,,,43,0
53800,note_on,8,0,4,,,,,,,,0,,,52,72
53832,note_on,32,0,4,,,,,,,,0,,,52,0
53840,note_on,8,0,4,,,,,,,,0,,,60,72
53840,note_on,96,0,1,,,,,,,,0,,,78,80
53840,note_on,0,0,1,,,,,,,,0,,,90,80
53872,note_on,32,0,4,,,,,,,,0,,,60,0
53880,note_on,8,0,4,,,,,,,,0,,,55,72
53904,note_on,64,0,1,,,,,,,,0,,,90,0
53904,note_on,0,0,1,,,,,,,,0,,,78,0
53912,note_on,32,0,4,,,,,,,,0,,,55,0
53920,note_on,8,0,4,,,,,,,,0,,,64,72
53920,note_on,16,0,1,,,,,,,,0,,,91,80
53920,note_on,0,0,1,,,,,,,,0,,,79,80
53952,note_on,32,0,4,,,,,,,,0,,,64,0
53960,note_on,8,0,4,,,,,,,,0,,,60,72
53984,note_on,0,0,1,,,,,,,,0,,,91,0
53984,note_on,64,0,1,,,,,,,,0,,,79,0
53992,note_on,32,0,4,,,,,,,,0,,,60,0
53998,control_change,6,0,4,,,,,,,,0,64,0,,
54000,note_on,2,0,4,,,,,,,,0,,,43,72
54016,control_change,16,0,4,,,,,,,,0,64,127,,
54032,note_on,16,0,4,,,,,,,,0,,,43,0
54040,note_on,8,0,4,,,,,,,,0,,,50,72
54072,note_on,32,0,4,,,,,,,,0,,,50,0
54080,note_on,0,0,1,,,,,,,,0,,,92,80
54080,note_on,8,0,4,,,,,,,,0,,,59,72
54080,note_on,96,0,1,,,,,,,,0,,,80,80
54112,note_on,32,0,4,,,,,,,,0,,,59,0
54120,note_on,8,0,4,,,,,,,,0,,,53,72
54144,note_on,0,0,1,,,,,,,,0,,,80,0
54144,note_on,64,0,1,,,,,,,,0,,,92,0
54152,note_on,32,0,4,,,,,,,,0,,,53,0
54160,note_on,8,0,4,,,,,,,,0,,,62,72
54160,note_on,0,0,1,,,,,,,,0,,,79,80
54160,note_on,16,0,1,,,,,,,,0,,,91,80
54192,note_on,32,0,4,,,,,,,,0,,,62,0
54200,note_on,8,0,4,,,,,,,,0,,,59,72
54224,note_on,64,0,1,,,,,,,,0,,,79,0
54224,note_on,0,0,1,,,,,,,,0,,,91,0
54226,set_tempo,6246,1,0,,,,,,571646,,,,,,
54232,note_on,32,0,4,,,,,,,,0,,,59,0
54235,set_tempo,9,1,0,,,,,,567644,,,,,,
54240,note_on,0,0,4,,,,,,,,0,,,43,72
54240,set_tempo,5,1,0,,,,,,571646,,,,,,
54240,control_change,8,0,4,,,,,,,,0,64,0,,
54244,set_tempo,4,1,0,,,,,,575705,,,,,,
54253,set_tempo,9,1,0,,,,,,579822,,,,,,
54258,control_change,18,0,4,,,,,,,,0,64,127,,
54261,set_tempo,8,1,0,,,,,,583998,,,,,,
54270,set_tempo,9,1,0,,,,,,588235,,,,,,
54272,note_on,14,0,4,,,,,,,,0,,,43,0
54279,set_tempo,9,1,0,,,,,,592534,,,,,,
54280,note_on,8,0,4,,,,,,,,0,,,52,72
54288,set_tempo,9,1,0,,,,,,596896,,,,,,
54296,set_tempo,8,1,0,,,,,,601323,,,,,,
54305,set_tempo,9,1,0,,,,,,605816,,,,,,
54312,note_on,32,0,4,,,,,,,,0,,,52,0
54314,set_tempo,9,1,0,,,,,,610376,,,,,,
54320,note_on,96,0,1,,,,,,,,0,,,90,80
54320,note_on,8,0,4,,,,,,,,0,,,60,72
54320,note_on,0,0,1,,,,,,,,0,,,78,80
54322,set_tempo,8,1,0,,,,,,615006,,,,,,
54331,set_tempo,9,1,0,,,,,,619707,,,,,,
54340,set_tempo,9,1,0,,,,,,624480,,,,,,
54349,set_tempo,9,1,0,,,,,,629327,,,,,,
54352,note_on,32,0,4,,,,,,,,0,,,60,0
54357,set_tempo,8,1,0,,,,,,634249,,,,,,
54360,note_on,8,0,4,,,,,,,,0,,,55,72
54366,set_tempo,9,1,0,,,,,,639250,,,,,,
54375,set_tempo,9,1,0,,,,,,644330,,,,,,
54384,note_on,0,0,1,,,,,,,,0,,,90,0
54384,note_on,64,0,1,,,,,,,,0,,,78,0
54384,set_tempo,9,1,0,,,,,,649491,,,,,,
54392,note_on,32,0,4,,,,,,,,0,,,55,0
54392,set_tempo,8,1,0,,,,,,654736,,,,,,
54400,note_on,16,0,1,,,,,,,,0,,,79,80
54400,note_on,8,0,4,,,,,,,,0,,,64,72
54400,note_on,0,0,1,,,,,,,,0,,,91,80
54401,set_tempo,9,1,0,,,,,,660066,,,,,,
54410,set_tempo,9,1,0,,,,,,665484,,,,,,
54418,set_tempo,8,1,0,,,,,,670991,,,,,,
54427,set_tempo,9,1,0,,,,,,676590,,,,,,
54432,set_tempo,5,1,0,,,,,,682283,,,,,,
54432,note_on,32,0,4,,,,,,,,0,,,64,0
54440,set_tempo,8,1,0,,,,,,688073,,,,,,
54440,note_on,8,0,4,,,,,,,,0,,,60,72
54449,set_tempo,9,1,0,,,,,,693963,,,,,,
54458,set_tempo,9,1,0,,,,,,699953,,,,,,
54464,note_on,64,0,1,,,,,,,,0,,,91,0
54464,note_on,0,0,1,,,,,,,,0,,,79,0
54466,set_tempo,8,1,0,,,,,,706048,,,,,,
54472,note_on,32,0,4,,,,,,,,0,,,60,0
54475,set_tempo,9,1,0,,,,,,712251,,,,,,
54480,note_on,0,0,1,,,,,,,,0,,,92,80
54480,control_change,8,0,4,,,,,,,,0,64,0,,
54480,note_on,16,0,1,,,,,,,,0,,,80,80
54480,note_on,0,0,4,,,,,,,,0,,,43,72
54484,set_tempo,9,1,0,,,,,,718563,,,,,,
54493,set_tempo,9,1,0,,,,,,724988,,,,,,
54501,control_change,21,0,4,,,,,,,,0,64,127,,
54501,set_tempo,8,1,0,,,,,,731529,,,,,,
54510,set_tempo,9,1,0,,,,,,738189,,,,,,
54512,note_on,11,0,4,,,,,,,,0,,,43,0
54519,set_tempo,9,1,0,,,,,,744971,,,,,,
54520,note_on,8,0,4,,,,,,,,0,,,53,72
54528,note_on,0,0,1,,,,,,,,0,,,80,0
54528,set_tempo,9,1,0,,,,,,751880,,,,,,
54528,note_on,48,0,1,,,,,,,,0,,,92,0
54536,set_tempo,8,1,0,,,,,,758917,,,,,,
54540,note_on,12,0,1,,,,,,,,0,,,91,80
54540,note_on,0,0,1,,,,,,,,0,,,79,80
54545,set_tempo,9,1,0,,,,,,766088,,,,,,
54552,note_on,32,0,4,,,,,,,,0,,,53,0
54554,set_tempo,9,1,0,,,,,,773395,,,,,,
54560,note_on,8,0,4,,,,,,,,0,,,59,72
54562,set_tempo,8,1,0,,,,,,780843,,,,,,
54571,set_tempo,9,1,0,,,,,,788436,,,,,,
54576,set_tempo,5,1,0,,,,,,796178,,,,,,
54580,set_tempo,4,1,0,,,,,,804074,,,,,,
54588,note_on,48,0,1,,,,,,,,0,,,79,0
54588,note_on,0,0,1,,,,,,,,0,,,91,0
54589,set_tempo,9,1,0,,,,,,812128,,,,,,
54592,note_on,32,0,4,,,,,,,,0,,,59,0
54597,set_tempo,8,1,0,,,,,,820345,,,,,,
54600,note_on,8,0,4,,,,,,,,0,,,55,72
54600,note_on,0,0,1,,,,,,,,0,,,101,80
54600,note_on,12,0,1,,,,,,,,0,,,89,80
54606,set_tempo,9,1,0,,,,,,828729,,,,,,
54611,set_tempo,5,1,0,,,,,,654736,,,,,,
54615,set_tempo,4,1,0,,,,,,1311189,,,,,,
54632,note_on,32,0,4,,,,,,,,0,,,55,0
54640,note_on,8,0,4,,,,,,,,0,,,65,72
54648,note_on,0,0,1,,,,,,,,0,,,89,0
54648,note_on,48,0,1,,,,,,,,0,,,101,0
54672,note_on,32,0,4,,,,,,,,0,,,65,0
54680,note_on,8,0,4,,,,,,,,0,,,59,72
54690,note_on,42,0,1,,,,,,,,0,,,100,80
54690,note_on,0,0,1,,,,,,,,0,,,88,80
54712,note_on,32,0,4,,,,,,,,0,,,59,0
54714,note_on,0,0,1,,,,,,,,0,,,100,0
54714,note_on,24,0,1,,,,,,,,0,,,88,0
54715,set_tempo,100,1,0,,,,,,1290323,,,,,,
54720,control_change,8,0,4,,,,,,,,0,64,0,,
54720,note_on,4328,0,3,,,,,,,,0,,,48,88
54720,note_on,6,0,1,,,,,,,,0,,,96,80
54720,note_on,0,0,1,,,,,,,,0,,,84,80
54741,set_tempo,26,1,0,,,,,,1270110,,,,,,
54745,control_change,25,0,4,,,,,,,,0,64,127,,
54752,note_on,32,0,3,,,,,,,,0,,,48,0
54760,note_on,8,0,3,,,,,,,,0,,,52,88
54763,set_tempo,22,1,0,,,,,,1250521,,,,,,
54785,set_tempo,22,1,0,,,,,,1231527,,,,,,
54789,set_tempo,4,1,0,,,,,,1290323,,,,,,
54792,note_on,32,0,3,,,,,,,,0,,,52,0
54794,set_tempo,5,1,0,,,,,,1195219,,,,,,
54798,set_tempo,4,1,0,,,,,,1160991,,,,,,
54800,note_on,8,0,3,,,,,,,,0,,,60,88
54802,set_tempo,4,1,0,,,,,,1144601,,,,,,
54807,set_tempo,5,1,0,,,,,,1113173,,,,,,
54811,set_tempo,4,1,0,,,,,,1098097,,,,,,
54816,set_tempo,5,1,0,,,,,,1069138,,,,,,
54820,set_tempo,4,1,0,,,,,,1041667,,,,,,
54824,set_tempo,4,1,0,,,,,,1028454,,,,,,
54829,set_tempo,5,1,0,,,,,,1003009,,,,,,
54832,note_on,32,0,3,,,,,,,,0,,,60,0
54833,set_tempo,4,1,0,,,,,,990753,,,,,,
54837,set_tempo,4,1,0,,,,,,967118,,,,,,
54840,note_on,8,0,3,,,,,,,,0,,,64,88
54842,set_tempo,5,1,0,,,,,,944584,,,,,,
54846,set_tempo,4,1,0,,,,,,933707,,,,,,
54850,set_tempo,4,1,0,,,,,,912686,,,,,,
54855,set_tempo,5,1,0,,,,,,902527,,,,,,
54859,set_tempo,4,1,0,,,,,,882872,,,,,,
54864,set_tempo,5,1,0,,,,,,864055,,,,,,
54868,set_tempo,4,1,0,,,,,,854944,,,,,,
54872,set_tempo,4,1,0,,,,,,837287,,,,,,
54872,note_on,32,0,3,,,,,,,,0,,,64,0
54877,set_tempo,5,1,0,,,,,,820345,,,,,,
54880,note_on,1128,0,2,,,,,,,,0,,,67,88
54881,set_tempo,4,1,0,,,,,,812128,,,,,,
54885,set_tempo,4,1,0,,,,,,796178,,,,,,
54890,set_tempo,5,1,0,,,,,,788436,,,,,,
54894,set_tempo,4,1,0,,,,,,773395,,,,,,
54898,set_tempo,4,1,0,,,,,,758917,,,,,,
54903,set_tempo,5,1,0,,,,,,751880,,,,,,
54907,set_tempo,4,1,0,,,,,,738189,,,,,,
54912,note_on,32,0,2,,,,,,,,0,,,67,0
54912,note_on,192,0,1,,,,,,,,0,,,84,0
54912,note_on,0,0,1,,,,,,,,0,,,96,0
54912,set_tempo,5,1,0,,,,,,731529,,,,,,
54916,set_tempo,4,1,0,,,,,,718563,,,,,,
54920,set_tempo,4,1,0,,,,,,706048,,,,,,
54920,note_on,8,0,2,,,,,,,,0,,,71,88
54925,set_tempo,5,1,0,,,,,,699953,,,,,,
54929,set_tempo,4,1,0,,,,,,688073,,,,,,
54933,set_tempo,4,1,0,,,,,,682283,,,,,,
54938,set_tempo,5,1,0,,,,,,670991,,,,,,
54942,set_tempo,4,1,0,,,,,,660066,,,,,,
54946,set_tempo,4,1,0,,,,,,654736,,,,,,
54951,set_tempo,5,1,0,,,,,,644330,,,,,,
54952,note_on,32,0,2,,,,,,,,0,,,71,0
54960,set_tempo,9,1,0,,,,,,649491,,,,,,
54960,note_on,8,0,2,,,,,,,,0,,,72,96
54968,set_tempo,8,1,0,,,,,,654736,,,,,,
54977,set_tempo,9,1,0,,,,,,660066,,,,,,
54986,set_tempo,9,1,0,,,,,,665484,,,,,,
54992,note_on,32,0,2,,,,,,,,0,,,72,0
54994,set_tempo,8,1,0,,,,,,670991,,,,,,
55000,note_on,8,0,2,,,,,,,,0,,,67,88
55003,set_tempo,9,1,0,,,,,,676590,,,,,,
55012,set_tempo,9,1,0,,,,,,682283,,,,,,
55021,set_tempo,9,1,0,,,,,,688073,,,,,,
55029,set_tempo,8,1,0,,,,,,693963,,,,,,
55032,note_on,32,0,2,,,,,,,,0,,,67,0
55038,set_tempo,9,1,0,,,,,,699953,,,,,,
55040,note_on,8,0,2,,,,,,,,0,,,64,88
55047,set_tempo,9,1,0,,,,,,706048,,,,,,
55056,set_tempo,9,1,0,,,,,,712251,,,,,,
55064,set_tempo,8,1,0,,,,,,718563,,,,,,
55072,note_on,32,0,2,,,,,,,,0,,,64,0
55073,set_tempo,9,1,0,,,,,,724988,,,,,,
55080,note_on,8,0,2,,,,,,,,0,,,60,88
55082,set_tempo,9,1,0,,,,,,731529,,,,,,
55090,set_tempo,8,1,0,,,,,,738189,,,,,,
55099,set_tempo,9,1,0,,,,,,744971,,,,,,
55108,set_tempo,9,1,0,,,,,,751880,,,,,,
55112,note_on,32,0,2,,,,,,,,0,,,60,0
55117,set_tempo,9,1,0,,,,,,758917,,,,,,
55120,note_on,8,0,2,,,,,,,,0,,,59,88
55125,set_tempo,8,1,0,,,,,,766088,,,,,,
55134,set_tempo,9,1,0,,,,,,773395,,,,,,
55143,set_tempo,9,1,0,,,,,,780843,,,,,,
55152,note_on,32,0,2,,,,,,,,0,,,59,0
55152,set_tempo,9,1,0,,,,,,788436,,,,,,
55160,set_tempo,8,1,0,,,,,,796178,,,,,,
55160,note_on,8,0,2,,,,,,,,0,,,55,88
55169,set_tempo,9,1,0,,,,,,804074,,,,,,
55178,set_tempo,9,1,0,,,,,,812128,,,,,,
55186,set_tempo,8,1,0,,,,,,820345,,,,,,
55191,set_tempo,5,1,0,,,,,,670991,,,,,,
55192,note_on,32,0,2,,,,,,,,0,,,55,0
55195,set_tempo,4,1,0,,,,,,676590,,,,,,
55200,note_on,0,0,1,,,,,,,,0,,,84,80
55200,note_on,328,0,3,,,,,,,,0,,,45,72
55200,control_change,455,0,4,,,,,,,,0,64,0,,
55200,set_tempo,5,1,0,,,,,,990753,,,,,,
55200,note_on,288,0,1,,,,,,,,0,,,96,80
55205,control_change,5,0,4,,,,,,,,0,64,127,,
55232,note_on,32,0,3,,,,,,,,0,,,45,0
55240,note_on,8,0,3,,,,,,,,0,,,52,72
55272,note_on,32,0,3,,,,,,,,0,,,52,0
55280,note_on,8,0,3,,,,,,,,0,,,57,72
55291,set_tempo,91,1,0,,,,,,1003009,,,,,,
55300,set_tempo,9,1,0,,,,,,990753,,,,,,
55309,set_tempo,9,1,0,,,,,,978793,,,,,,
55312,note_on,32,0,3,,,,,,,,0,,,57,0
55313,set_tempo,4,1,0,,,,,,967118,,,,,,
55317,set_tempo,4,1,0,,,,,,944584,,,,,,
55320,note_on,8,0,3,,,,,,,,0,,,60,72
55322,set_tempo,5,1,0,,,,,,933707,,,,,,
55326,set_tempo,4,1,0,,,,,,912686,,,,,,
55330,set_tempo,4,1,0,,,,,,902527,,,,,,
55335,set_tempo,5,1,0,,,,,,882872,,,,,,
55339,set_tempo,4,1,0,,,,,,873362,,,,,,
55344,set_tempo,5,1,0,,,,,,854944,,,,,,
55348,set_tempo,4,1,0,,,,,,846024,,,,,,
55352,set_tempo,4,1,0,,,,,,828729,,,,,,
55352,note_on,32,0,3,,,,,,,,0,,,60,0
55357,set_tempo,5,1,0,,,,,,820345,,,,,,
55360,note_on,168,0,2,,,,,,,,0,,,64,72
55361,set_tempo,4,1,0,,,,,,804074,,,,,,
55365,set_tempo,4,1,0,,,,,,796178,,,,,,
55370,set_tempo,5,1,0,,,,,,780843,,,,,,
55374,set_tempo,4,1,0,,,,,,773395,,,,,,
55378,set_tempo,4,1,0,,,,,,758917,,,,,,
55383,set_tempo,5,1,0,,,,,,751880,,,,,,
55387,set_tempo,4,1,0,,,,,,738189,,,,,,
55392,note_on,32,0,2,,,,,,,,0,,,64,0
55392,note_on,192,0,1,,,,,,,,0,,,84,0
55392,note_on,0,0,1,,,,,,,,0,,,96,0
55392,set_tempo,5,1,0,,,,,,731529,,,,,,
55396,set_tempo,4,1,0,,,,,,718563,,,,,,
55400,set_tempo,4,1,0,,,,,,712251,,,,,,
55400,note_on,8,0,2,,,,,,,,0,,,69,72
55405,set_tempo,5,1,0,,,,,,699953,,,,,,
55409,set_tempo,4,1,0,,,,,,693963,,,,,,
55413,set_tempo,4,1,0,,,,,,682283,,,,,,
55418,set_tempo,5,1,0,,,,,,676590,,,,,,
55422,set_tempo,4,1,0,,,,,,665484,,,,,,
55426,set_tempo,4,1,0,,,,,,660066,,,,,,
55431,set_tempo,5,1,0,,,,,,649491,,,,,,
55432,note_on,32,0,2,,,,,,,,0,,,69,0
55435,set_tempo,4,1,0,,,,,,644330,,,,,,
55440,note_on,48,0,1,,,,,,,,0,,,96,80
55440,set_tempo,5,1,0,,,,,,629327,,,,,,
55440,note_on,8,0,2,,,,,,,,0,,,72,72
55440,note_on,0,0,1,,,,,,,,0,,,84,80
55448,set_tempo,8,1,0,,,,,,634249,,,,,,
55457,set_tempo,9,1,0,,,,,,639250,,,,,,
55466,set_tempo,9,1,0,,,,,,644330,,,,,,
55472,note_on,32,0,2,,,,,,,,0,,,72,0
55474,set_tempo,8,1,0,,,,,,649491,,,,,,
55479,set_tempo,5,1,0,,,,,,654736,,,,,,
55480,note_on,8,0,2,,,,,,,,0,,,69,72
55488,set_tempo,9,1,0,,,,,,660066,,,,,,
55496,set_tempo,8,1,0,,,,,,665484,,,,,,
55505,set_tempo,9,1,0,,,,,,670991,,,,,,
55509,set_tempo,4,1,0,,,,,,676590,,,,,,
55512,note_on,32,0,2,,,,,,,,0,,,69,0
55518,set_tempo,9,1,0,,,,,,682283,,,,,,
55520,note_on,168,0,3,,,,,,,,0,,,64,72
55527,set_tempo,9,1,0,,,,,,688073,,,,,,
55536,set_tempo,9,1,0,,,,,,693963,,,,,,
55540,set_tempo,4,1,0,,,,,,699953,,,,,,
55549,set_tempo,9,1,0,,,,,,706048,,,,,,
55552,note_on,32,0,3,,,,,,,,0,,,64,0
55557,set_tempo,8,1,0,,,,,,712251,,,,,,
55560,note_on,8,0,3,,,,,,,,0,,,60,72
55566,set_tempo,9,1,0,,,,,,718563,,,,,,
55575,set_tempo,9,1,0,,,,,,724988,,,,,,
55579,set_tempo,4,1,0,,,,,,731529,,,,,,
55584,note_on,0,0,1,,,,,,,,0,,,96,0
55584,note_on,144,0,1,,,,,,,,0,,,84,0
55588,set_tempo,9,1,0,,,,,,738189,,,,,,
55592,note_on,32,0,3,,,,,,,,0,,,60,0
55597,set_tempo,9,1,0,,,,,,744971,,,,,,
55600,note_on,8,0,3,,,,,,,,0,,,57,72
55605,set_tempo,8,1,0,,,,,,751880,,,,,,
55610,set_tempo,5,1,0,,,,,,758917,,,,,,
55618,set_tempo,8,1,0,,,,,,766088,,,,,,
55620,note_on,36,0,1,,,,,,,,0,,,84,80
55620,note_on,0,0,1,,,,,,,,0,,,96,80
55627,set_tempo,9,1,0,,,,,,773395,,,,,,
55632,note_on,32,0,3,,,,,,,,0,,,57,0
55636,set_tempo,9,1,0,,,,,,780843,,,,,,
55640,note_on,8,0,3,,,,,,,,0,,,52,72
55640,set_tempo,4,1,0,,,,,,788436,,,,,,
55649,set_tempo,9,1,0,,,,,,796178,,,,,,
55658,set_tempo,9,1,0,,,,,,804074,,,,,,
55662,set_tempo,4,1,0,,,,,,820345,,,,,,
55668,note_on,48,0,1,,,,,,,,0,,,96,0
55668,note_on,0,0,1,,,,,,,,0,,,84,0
55672,note_on,32,0,3,,,,,,,,0,,,52,0
55680,note_on,12,0,1,,,,,,,,0,,,96,80
55680,note_on,0,0,1,,,,,,,,0,,,84,80
55680,control_change,475,0,4,,,,,,,,0,64,0,,
55680,note_on,8,0,3,,,,,,,,0,,,45,72
55680,set_tempo,18,1,0,,,,,,812128,,,,,,
55693,set_tempo,13,1,0,,,,,,804074,,,,,,
55701,set_tempo,8,1,0,,,,,,796178,,,,,,
55708,control_change,28,0,4,,,,,,,,0,64,127,,
55710,set_tempo,9,1,0,,,,,,788436,,,,,,
55712,note_on,32,0,3,,,,,,,,0,,,45,0
55719,set_tempo,9,1,0,,,,,,780843,,,,,,
55720,note_on,8,0,3,,,,,,,,0,,,51,72
55728,set_tempo,9,1,0,,,,,,773395,,,,,,
55736,set_tempo,8,1,0,,,,,,766088,,,,,,
55745,set_tempo,9,1,0,,,,,,758917,,,,,,
55752,note_on,32,0,3,,,,,,,,0,,,51,0
55754,set_tempo,9,1,0,,,,,,751880,,,,,,
55760,note_on,8,0,3,,,,,,,,0,,,54,72
55767,set_tempo,13,1,0,,,,,,744971,,,,,,
55776,set_tempo,9,1,0,,,,,,738189,,,,,,
55784,set_tempo,8,1,0,,,,,,731529,,,,,,
55792,note_on,32,0,3,,,,,,,,0,,,54,0
55793,set_tempo,9,1,0,,,,,,724988,,,,,,
55800,note_on,8,0,3,,,,,,,,0,,,60,72
55802,set_tempo,9,1,0,,,,,,718563,,,,,,
55810,set_tempo,8,1,0,,,,,,712251,,,,,,
55819,set_tempo,9,1,0,,,,,,706048,,,,,,
55828,set_tempo,9,1,0,,,,,,699953,,,,,,
55832,note_on,32,0,3,,,,,,,,0,,,60,0
55840,note_on,328,0,2,,,,,,,,0,,,63,72
55841,set_tempo,13,1,0,,,,,,693963,,,,,,
55850,set_tempo,9,1,0,,,,,,688073,,,,,,
55858,set_tempo,8,1,0,,,,,,682283,,,,,,
55867,set_tempo,9,1,0,,,,,,676590,,,,,,
55872,note_on,32,0,2,,,,,,,,0,,,63,0
55876,set_tempo,9,1,0,,,,,,670991,,,,,,
55880,note_on,8,0,2,,,,,,,,0,,,66,72
55885,set_tempo,9,1,0,,,,,,665484,,,,,,
55893,set_tempo,8,1,0,,,,,,660066,,,,,,
55902,set_tempo,9,1,0,,,,,,654736,,,,,,
55911,set_tempo,9,1,0,,,,,,649491,,,,,,
55912,note_on,32,0,2,,,,,,,,0,,,66,0
55915,set_tempo,4,1,0,,,,,,644330,,,,,,
55920,note_on,8,0,2,,,,,,,,0,,,72,72
55920,set_tempo,5,1,0,,,,,,644330,,,,,,
55928,set_tempo,8,1,0,,,,,,649491,,,,,,
55937,set_tempo,9,1,0,,,,,,654736,,,,,,
55946,set_tempo,9,1,0,,,,,,660066,,,,,,
55952,note_on,32,0,2,,,,,,,,0,,,72,0
55954,set_tempo,8,1,0,,,,,,665484,,,,,,
55960,note_on,8,0,2,,,,,,,,0,,,66,72
55963,set_tempo,9,1,0,,,,,,670991,,,,,,
55968,note_on,0,0,1,,,,,,,,0,,,96,0
55968,note_on,288,0,1,,,,,,,,0,,,84,0
55972,set_tempo,9,1,0,,,,,,676590,,,,,,
55981,set_tempo,9,1,0,,,,,,682283,,,,,,
55989,set_tempo,8,1,0,,,,,,688073,,,,,,
55992,note_on,32,0,2,,,,,,,,0,,,66,0
55998,set_tempo,9,1,0,,,,,,693963,,,,,,
56000,note_on,168,0,3,,,,,,,,0,,,63,72
56007,set_tempo,9,1,0,,,,,,699953,,,,,,
56016,set_tempo,9,1,0,,,,,,706048,,,,,,
56024,set_tempo,8,1,0,,,,,,712251,,,,,,
56032,note_on,32,0,3,,,,,,,,0,,,63,0
56033,set_tempo,9,1,0,,,,,,718563,,,,,,
56040,note_on,72,0,1,,,,,,,,0,,,83,80
56040,note_on,0,0,1,,,,,,,,0,,,95,80
56040,note_on,8,0,3,,,,,,,,0,,,59,72
56042,set_tempo,9,1,0,,,,,,724988,,,,,,
56050,set_tempo,8,1,0,,,,,,731529,,,,,,
56059,set_tempo,9,1,0,,,,,,738189,,,,,,
56068,set_tempo,9,1,0,,,,,,744971,,,,,,
56072,note_on,32,0,3,,,,,,,,0,,,59,0
56077,set_tempo,9,1,0,,,,,,751880,,,,,,
56080,note_on,8,0,3,,,,,,,,0,,,54,72
56085,set_tempo,8,1,0,,,,,,758917,,,,,,
56094,set_tempo,9,1,0,,,,,,766088,,,,,,
56103,set_tempo,9,1,0,,,,,,773395,,,,,,
56112,set_tempo,9,1,0,,,,,,780843,,,,,,
56112,note_on,32,0,3,,,,,,,,0,,,54,0
56120,set_tempo,8,1,0,,,,,,788436,,,,,,
56120,note_on,8,0,3,,,,,,,,0,,,51,72
56129,set_tempo,9,1,0,,,,,,796178,,,,,,
56136,note_on,96,0,1,,,,,,,,0,,,95,0
56136,note_on,0,0,1,,,,,,,,0,,,83,0
56138,set_tempo,9,1,0,,,,,,804074,,,,,,
56142,set_tempo,4,1,0,,,,,,820345,,,,,,
56152,note_on,32,0,3,,,,,,,,0,,,51,0
56155,set_tempo,13,1,0,,,,,,812128,,,,,,
56160,note_on,8,0,3,,,,,,,,0,,,45,72
56160,control_change,452,0,4,,,,,,,,0,64,0,,
56164,set_tempo,9,1,0,,,,,,804074,,,,,,
56173,set_tempo,9,1,0,,,,,,796178,,,,,,
56181,set_tempo,8,1,0,,,,,,788436,,,,,,
56186,control_change,26,0,4,,,,,,,,0,64,127,,
56190,set_tempo,9,1,0,,,,,,780843,,,,,,
56192,note_on,32,0,3,,,,,,,,0,,,45,0
56199,set_tempo,9,1,0,,,,,,773395,,,,,,
56200,note_on,8,0,3,,,,,,,,0,,,50,72
56208,set_tempo,9,1,0,,,,,,766088,,,,,,
56216,set_tempo,8,1,0,,,,,,758917,,,,,,
56225,set_tempo,9,1,0,,,,,,751880,,,,,,
56232,note_on,32,0,3,,,,,,,,0,,,50,0
56234,set_tempo,9,1,0,,,,,,744971,,,,,,
56240,note_on,0,0,3,,,,,,,,0,,,53,72
56240,note_on,8,0,3,,,,,,,,0,,,56,72
56242,set_tempo,8,1,0,,,,,,738189,,,,,,
56251,set_tempo,9,1,0,,,,,,731529,,,,,,
56260,set_tempo,9,1,0,,,,,,724988,,,,,,
56272,note_on,0,0,3,,,,,,,,0,,,56,0
56272,note_on,32,0,3,,,,,,,,0,,,53,0
56273,set_tempo,13,1,0,,,,,,718563,,,,,,
56280,note_on,0,0,1,,,,,,,,0,,,83,80
56280,note_on,144,0,1,,,,,,,,0,,,95,80
56280,note_on,8,0,3,,,,,,,,0,,,59,72
56282,set_tempo,9,1,0,,,,,,712251,,,,,,
56290,set_tempo,8,1,0,,,,,,706048,,,,,,
56299,set_tempo,9,1,0,,,,,,699953,,,,,,
56308,set_tempo,9,1,0,,,,,,693963,,,,,,
56312,note_on,32,0,3,,,,,,,,0,,,59,0
56317,set_tempo,9,1,0,,,,,,688073,,,,,,
56320,note_on,328,0,2,,,,,,,,0,,,62,72
56325,set_tempo,8,1,0,,,,,,682283,,,,,,
56334,set_tempo,9,1,0,,,,,,676590,,,,,,
56343,set_tempo,9,1,0,,,,,,670991,,,,,,
56352,note_on,32,0,2,,,,,,,,0,,,62,0
56352,set_tempo,9,1,0,,,,,,665484,,,,,,
56360,set_tempo,8,1,0,,,,,,660066,,,,,,
56360,note_on,8,0,2,,,,,,,,0,,,65,72
56369,set_tempo,9,1,0,,,,,,654736,,,,,,
56376,note_on,0,0,1,,,,,,,,0,,,95,0
56376,note_on,96,0,1,,,,,,,,0,,,83,0
56378,set_tempo,9,1,0,,,,,,649491,,,,,,
56386,set_tempo,8,1,0,,,,,,644330,,,,,,
56392,note_on,32,0,2,,,,,,,,0,,,65,0
56400,note_on,8,0,2,,,,,,,,0,,,71,72
56400,set_tempo,14,1,0,,,,,,649491,,,,,,
56400,note_on,0,0,2,,,,,,,,0,,,68,72
56400,note_on,0,0,1,,,,,,,,0,,,96,80
56400,note_on,24,0,1,,,,,,,,0,,,84,80
56408,set_tempo,8,1,0,,,,,,654736,,,,,,
56417,set_tempo,9,1,0,,,,,,660066,,,,,,
56430,set_tempo,13,1,0,,,,,,665484,,,,,,
56432,note_on,32,0,2,,,,,,,,0,,,68,0
56432,note_on,0,0,2,,,,,,,,0,,,71,0
56439,set_tempo,9,1,0,,,,,,670991,,,,,,
56440,note_on,8,0,2,,,,,,,,0,,,65,72
56448,set_tempo,9,1,0,,,,,,676590,,,,,,
56456,set_tempo,8,1,0,,,,,,682283,,,,,,
56469,set_tempo,13,1,0,,,,,,688073,,,,,,
56472,note_on,32,0,2,,,,,,,,0,,,65,0
56478,set_tempo,9,1,0,,,,,,693963,,,,,,
56480,note_on,168,0,3,,,,,,,,0,,,62,72
56487,set_tempo,9,1,0,,,,,,699953,,,,,,
56496,note_on,0,0,1,,,,,,,,0,,,84,0
56496,note_on,96,0,1,,,,,,,,0,,,96,0
56500,set_tempo,13,1,0,,,,,,706048,,,,,,
56509,set_tempo,9,1,0,,,,,,712251,,,,,,
56512,note_on,32,0,3,,,,,,,,0,,,62,0
56517,set_tempo,8,1,0,,,,,,718563,,,,,,
56520,note_on,24,0,1,,,,,,,,0,,,98,80
56520,note_on,8,0,3,,,,,,,,0,,,59,72
56520,note_on,0,0,1,,,,,,,,0,,,86,80
56526,set_tempo,9,1,0,,,,,,724988,,,,,,
56539,set_tempo,13,1,0,,,,,,731529,,,,,,
56548,set_tempo,9,1,0,,,,,,738189,,,,,,
56552,note_on,32,0,3,,,,,,,,0,,,59,0
56557,set_tempo,9,1,0,,,,,,744971,,,,,,
56560,note_on,8,0,3,,,,,,,,0,,,56,72
56570,set_tempo,13,1,0,,,,,,751880,,,,,,
56578,set_tempo,8,1,0,,,,,,758917,,,,,,
56587,set_tempo,9,1,0,,,,,,766088,,,,,,
56592,note_on,32,0,3,,,,,,,,0,,,56,0
56596,set_tempo,9,1,0,,,,,,773395,,,,,,
56600,note_on,8,0,3,,,,,,,,0,,,53,72
56609,set_tempo,13,1,0,,,,,,780843,,,,,,
56616,note_on,0,0,1,,,,,,,,0,,,98,0
56616,note_on,96,0,1,,,,,,,,0,,,86,0
56618,set_tempo,9,1,0,,,,,,788436,,,,,,
56626,set_tempo,8,1,0,,,,,,796178,,,,,,
56632,note_on,32,0,3,,,,,,,,0,,,53,0
56635,set_tempo,9,1,0,,,,,,804074,,,,,,
56640,note_on,0,0,1,,,,,,,,0,,,100,80
56640,note_on,24,0,1,,,,,,,,0,,,88,80
56640,note_on,8,0,3,,,,,,,,0,,,45,72
56644,set_tempo,9,1,0,,,,,,796178,,,,,,
56653,set_tempo,9,1,0,,,,,,788436,,,,,,
56661,set_tempo,8,1,0,,,,,,780843,,,,,,
56666,control_change,480,0,4,,,,,,,,0,64,0,,
56668,control_change,2,0,4,,,,,,,,0,64,127,,
56670,set_tempo,9,1,0,,,,,,773395,,,,,,
56672,note_on,32,0,3,,,,,,,,0,,,45,0
56679,set_tempo,9,1,0,,,,,,766088,,,,,,
56680,note_on,8,0,3,,,,,,,,0,,,48,72
56680,note_on,0,0,3,,,,,,,,0,,,52,72
56688,set_tempo,9,1,0,,,,,,758917,,,,,,
56696,set_tempo,8,1,0,,,,,,751880,,,,,,
56705,set_tempo,9,1,0,,,,,,744971,,,,,,
56712,note_on,0,0,3,,,,,,,,0,,,48,0
56712,note_on,32,0,3,,,,,,,,0,,,52,0
56714,set_tempo,9,1,0,,,,,,738189,,,,,,
56720,note_on,8,0,3,,,,,,,,0,,,57,72
56722,set_tempo,8,1,0,,,,,,731529,,,,,,
56731,set_tempo,9,1,0,,,,,,724988,,,,,,
56740,set_tempo,9,1,0,,,,,,718563,,,,,,
56749,set_tempo,9,1,0,,,,,,712251,,,,,,
56752,note_on,32,0,3,,,,,,,,0,,,57,0
56757,set_tempo,8,1,0,,,,,,706048,,,,,,
56760,note_on,8,0,3,,,,,,,,0,,,60,72
56766,set_tempo,9,1,0,,,,,,699953,,,,,,
56775,set_tempo,9,1,0,,,,,,693963,,,,,,
56784,note_on,144,0,1,,,,,,,,0,,,100,0
56784,note_on,0,0,1,,,,,,,,0,,,88,0
56784,set_tempo,9,1,0,,,,,,688073,,,,,,
56792,set_tempo,8,1,0,,,,,,682283,,,,,,
56792,note_on,32,0,3,,,,,,,,0,,,60,0
56800,note_on,328,0,2,,,,,,,,0,,,64,72
56801,set_tempo,9,1,0,,,,,,676590,,,,,,
56810,set_tempo,9,1,0,,,,,,670991,,,,,,
56818,set_tempo,8,1,0,,,,,,665484,,,,,,
56820,note_on,0,0,1,,,,,,,,0,,,96,80
56820,note_on,36,0,1,,,,,,,,0,,,84,80
56827,set_tempo,9,1,0,,,,,,660066,,,,,,
56832,note_on,32,0,2,,,,,,,,0,,,64,0
56836,set_tempo,9,1,0,,,,,,654736,,,,,,
56840,note_on,8,0,2,,,,,,,,0,,,69,72
56845,set_tempo,9,1,0,,,,,,649491,,,,,,
56853,set_tempo,8,1,0,,,,,,644330,,,,,,
56862,set_tempo,9,1,0,,,,,,639250,,,,,,
56868,note_on,48,0,1,,,,,,,,0,,,96,0
56868,note_on,0,0,1,,,,,,,,0,,,84,0
56871,set_tempo,9,1,0,,,,,,634249,,,,,,
56872,note_on,32,0,2,,,,,,,,0,,,69,0
56873,set_tempo,2,1,0,,,,,,619707,,,,,,
56880,note_on,12,0,1,,,,,,,,0,,,93,80
56880,note_on,0,0,1,,,,,,,,0,,,81,80
56880,note_on,8,0,2,,,,,,,,0,,,72,72
56886,set_tempo,13,1,0,,,,,,624480,,,,,,
56899,set_tempo,13,1,0,,,,,,629327,,,,,,
56912,note_on,32,0,2,,,,,,,,0,,,72,0
56912,set_tempo,13,1,0,,,,,,634249,,,,,,
56920,note_on,8,0,2,,,,,,,,0,,,69,72
56921,set_tempo,9,1,0,,,,,,639250,,,,,,
56934,set_tempo,13,1,0,,,,,,644330,,,,,,
56947,set_tempo,13,1,0,,,,,,649491,,,,,,
56952,note_on,32,0,2,,,,,,,,0,,,69,0
56956,set_tempo,9,1,0,,,,,,654736,,,,,,
56960,note_on,168,0,3,,,,,,,,0,,,64,72
56969,set_tempo,13,1,0,,,,,,660066,,,,,,
56976,note_on,0,0,1,,,,,,,,0,,,93,0
56976,note_on,96,0,1,,,,,,,,0,,,81,0
56982,set_tempo,13,1,0,,,,,,665484,,,,,,
56990,set_tempo,8,1,0,,,,,,670991,,,,,,
56992,note_on,32,0,3,,,,,,,,0,,,64,0
57000,note_on,8,0,3,,,,,,,,0,,,60,72
57004,set_tempo,14,1,0,,,,,,676590,,,,,,
57017,set_tempo,13,1,0,,,,,,682283,,,,,,
57025,set_tempo,8,1,0,,,,,,688073,,,,,,
57032,note_on,32,0,3,,,,,,,,0,,,60,0
57038,set_tempo,13,1,0,,,,,,693963,,,,,,
57040,note_on,8,0,3,,,,,,,,0,,,57,72
57052,set_tempo,14,1,0,,,,,,699953,,,,,,
57060,set_tempo,8,1,0,,,,,,706048,,,,,,
57072,note_on,32,0,3,,,,,,,,0,,,57,0
57073,set_tempo,13,1,0,,,,,,712251,,,,,,
57080,note_on,8,0,3,,,,,,,,0,,,52,72
57086,set_tempo,13,1,0,,,,,,718563,,,,,,
57095,set_tempo,9,1,0,,,,,,724988,,,,,,
57108,set_tempo,13,1,0,,,,,,731529,,,,,,
57112,note_on,32,0,3,,,,,,,,0,,,52,0
57120,note_on,8,0,3,,,,,,,,0,,,45,72
57120,note_on,144,0,1,,,,,,,,0,,,84,80
57120,note_on,0,0,1,,,,,,,,0,,,72,80
57120,control_change,452,0,4,,,,,,,,0,64,0,,
57121,set_tempo,13,1,0,,,,,,738189,,,,,,
57130,set_tempo,9,1,0,,,,,,744971,,,,,,
57139,set_tempo,9,1,0,,,,,,738189,,,,,,
57143,set_tempo,4,1,0,,,,,,731529,,,,,,
57143,control_change,23,0,4,,,,,,,,0,64,127,,
57152,note_on,32,0,3,,,,,,,,0,,,45,0
57152,set_tempo,9,1,0,,,,,,724988,,,,,,
57156,set_tempo,4,1,0,,,,,,718563,,,,,,
57160,note_on,8,0,3,,,,,,,,0,,,48,72
57165,set_tempo,9,1,0,,,,,,712251,,,,,,
57169,set_tempo,4,1,0,,,,,,706048,,,,,,
57174,set_tempo,5,1,0,,,,,,699953,,,,,,
57182,set_tempo,8,1,0,,,,,,693963,,,,,,
57187,set_tempo,5,1,0,,,,,,688073,,,,,,
57192,note_on,32,0,3,,,,,,,,0,,,48,0
57196,set_tempo,9,1,0,,,,,,682283,,,,,,
57200,set_tempo,4,1,0,,,,,,676590,,,,,,
57200,note_on,8,0,3,,,,,,,,0,,,52,72
57209,set_tempo,9,1,0,,,,,,670991,,,,,,
57213,set_tempo,4,1,0,,,,,,665484,,,,,,
57217,set_tempo,4,1,0,,,,,,660066,,,,,,
57226,set_tempo,9,1,0,,,,,,654736,,,,,,
57230,set_tempo,4,1,0,,,,,,649491,,,,,,
57232,note_on,32,0,3,,,,,,,,0,,,52,0
57239,set_tempo,9,1,0,,,,,,644330,,,,,,
57240,note_on,8,0,3,,,,,,,,0,,,57,72
57244,set_tempo,5,1,0,,,,,,639250,,,,,,
57252,set_tempo,8,1,0,,,,,,634249,,,,,,
57257,set_tempo,5,1,0,,,,,,629327,,,,,,
57261,set_tempo,4,1,0,,,,,,624480,,,,,,
57270,set_tempo,9,1,0,,,,,,619707,,,,,,
57272,note_on,32,0,3,,,,,,,,0,,,57,0
57274,set_tempo,4,1,0,,,,,,615006,,,,,,
57280,note_on,8,0,3,,,,,,,,0,,,60,72
57283,set_tempo,9,1,0,,,,,,610376,,,,,,
57287,set_tempo,4,1,0,,,,,,605816,,,,,,
57296,set_tempo,9,1,0,,,,,,601323,,,,,,
57300,set_tempo,4,1,0,,,,,,596896,,,,,,
57305,set_tempo,5,1,0,,,,,,592534,,,,,,
57312,note_on,32,0,3,,,,,,,,0,,,60,0
57312,note_on,0,0,1,,,,,,,,0,,,84,0
57312,note_on,192,0,1,,,,,,,,0,,,72,0
57313,set_tempo,8,1,0,,,,,,588235,,,,,,
57318,set_tempo,5,1,0,,,,,,583998,,,,,,
57320,note_on,8,0,3,,,,,,,,0,,,64,72
57326,set_tempo,8,1,0,,,,,,579822,,,,,,
57331,set_tempo,5,1,0,,,,,,575705,,,,,,
57340,set_tempo,9,1,0,,,,,,571646,,,,,,
57344,set_tempo,4,1,0,,,,,,567644,,,,,,
57348,set_tempo,4,1,0,,,,,,563698,,,,,,
57352,note_on,32,0,3,,,,,,,,0,,,64,0
57357,set_tempo,9,1,0,,,,,,567644,,,,,,
57360,note_on,8,0,3,,,,,,,,0,,,69,72
57360,note_on,0,0,1,,,,,,,,0,,,72,80
57360,note_on,48,0,1,,,,,,,,0,,,84,80
57366,set_tempo,9,1,0,,,,,,571646,,,,,,
57374,set_tempo,8,1,0,,,,,,575705,,,,,,
57379,set_tempo,5,1,0,,,,,,579822,,,,,,
57388,set_tempo,9,1,0,,,,,,583998,,,,,,
57392,note_on,32,0,3,,,,,,,,0,,,69,0
57396,set_tempo,8,1,0,,,,,,588235,,,,,,
57400,note_on,8,0,3,,,,,,,,0,,,64,72
57405,set_tempo,9,1,0,,,,,,592534,,,,,,
57409,set_tempo,4,1,0,,,,,,596896,,,,,,
57418,set_tempo,9,1,0,,,,,,601323,,,,,,
57427,set_tempo,9,1,0,,,,,,605816,,,,,,
57431,set_tempo,4,1,0,,,,,,610376,,,,,,
57432,note_on,32,0,3,,,,,,,,0,,,64,0
57440,note_on,8,0,3,,,,,,,,0,,,60,72
57440,set_tempo,9,1,0,,,,,,615006,,,,,,
57449,set_tempo,9,1,0,,,,,,619707,,,,,,
57457,set_tempo,8,1,0,,,,,,624480,,,,,,
57462,set_tempo,5,1,0,,,,,,629327,,,,,,
57470,set_tempo,8,1,0,,,,,,634249,,,,,,
57472,note_on,32,0,3,,,,,,,,0,,,60,0
57479,set_tempo,9,1,0,,,,,,639250,,,,,,
57480,note_on,8,0,3,,,,,,,,0,,,57,72
57488,set_tempo,9,1,0,,,,,,644330,,,,,,
57492,set_tempo,4,1,0,,,,,,649491,,,,,,
57501,set_tempo,9,1,0,,,,,,654736,,,,,,
57504,note_on,144,0,1,,,,,,,,0,,,72,0
57504,note_on,0,0,1,,,,,,,,0,,,84,0
57510,set_tempo,9,1,0,,,,,,660066,,,,,,
57512,note_on,32,0,3,,,,,,,,0,,,57,0
57514,set_tempo,4,1,0,,,,,,665484,,,,,,
57520,note_on,8,0,3,,,,,,,,0,,,52,72
57523,set_tempo,9,1,0,,,,,,670991,,,,,,
57532,set_tempo,9,1,0,,,,,,676590,,,,,,
57540,note_on,36,0,1,,,,,,,,0,,,84,80
57540,note_on,0,0,1,,,,,,,,0,,,72,80
57540,set_tempo,8,1,0,,,,,,682283,,,,,,
57545,set_tempo,5,1,0,,,,,,688073,,,,,,
57552,note_on,32,0,3,,,,,,,,0,,,52,0
57553,set_tempo,8,1,0,,,,,,693963,,,,,,
57560,note_on,8,0,3,,,,,,,,0,,,48,72
57562,set_tempo,9,1,0,,,,,,699953,,,,,,
57571,set_tempo,9,1,0,,,,,,706048,,,,,,
57575,set_tempo,4,1,0,,,,,,712251,,,,,,
57584,set_tempo,9,1,0,,,,,,718563,,,,,,
57588,note_on,48,0,1,,,,,,,,0,,,72,0
57588,note_on,0,0,1,,,,,,,,0,,,84,0
57592,note_on,32,0,3,,,,,,,,0,,,48,0
57593,set_tempo,9,1,0,,,,,,724988,,,,,,
57597,set_tempo,4,1,0,,,,,,731529,,,,,,
57600,note_on,8,0,3,,,,,,,,0,,,45,72
57600,note_on,12,0,1,,,,,,,,0,,,72,80
57600,control_change,457,0,4,,,,,,,,0,64,0,,
57600,note_on,0,0,1,,,,,,,,0,,,84,80
57606,set_tempo,9,1,0,,,,,,724988,,,,,,
57614,set_tempo,8,1,0,,,,,,718563,,,,,,
57618,control_change,18,0,4,,,,,,,,0,64,127,,
57623,set_tempo,9,1,0,,,,,,712251,,,,,,
57632,note_on,32,0,3,,,,,,,,0,,,45,0
57632,set_tempo,9,1,0,,,,,,706048,,,,,,
57640,note_on,8,0,3,,,,,,,,0,,,51,72
57641,set_tempo,9,1,0,,,,,,699953,,,,,,
57649,set_tempo,8,1,0,,,,,,693963,,,,,,
57658,set_tempo,9,1,0,,,,,,688073,,,,,,
57662,set_tempo,4,1,0,,,,,,682283,,,,,,
57671,set_tempo,9,1,0,,,,,,676590,,,,,,
57672,note_on,32,0,3,,,,,,,,0,,,51,0
57680,set_tempo,9,1,0,,,,,,670991,,,,,,
57680,note_on,8,0,3,,,,,,,,0,,,54,72
57689,set_tempo,9,1,0,,,,,,665484,,,,,,
57697,set_tempo,8,1,0,,,,,,660066,,,,,,
57706,set_tempo,9,1,0,,,,,,654736,,,,,,
57712,note_on,32,0,3,,,,,,,,0,,,54,0
57715,set_tempo,9,1,0,,,,,,649491,,,,,,
57719,set_tempo,4,1,0,,,,,,644330,,,,,,
57720,note_on,8,0,3,,,,,,,,0,,,57,72
57728,set_tempo,9,1,0,,,,,,639250,,,,,,
57737,set_tempo,9,1,0,,,,,,634249,,,,,,
57745,set_tempo,8,1,0,,,,,,629327,,,,,,
57752,note_on,32,0,3,,,,,,,,0,,,57,0
57754,set_tempo,9,1,0,,,,,,624480,,,,,,
57760,note_on,8,0,3,,,,,,,,0,,,63,72
57763,set_tempo,9,1,0,,,,,,619707,,,,,,
57772,set_tempo,9,1,0,,,,,,615006,,,,,,
57776,set_tempo,4,1,0,,,,,,610376,,,,,,
57785,set_tempo,9,1,0,,,,,,605816,,,,,,
57792,note_on,32,0,3,,,,,,,,0,,,63,0
57793,set_tempo,8,1,0,,,,,,601323,,,,,,
57800,note_on,8,0,3,,,,,,,,0,,,66,72
57802,set_tempo,9,1,0,,,,,,596896,,,,,,
57811,set_tempo,9,1,0,,,,,,592534,,,,,,
57820,set_tempo,9,1,0,,,,,,588235,,,,,,
57828,set_tempo,8,1,0,,,,,,583998,,,,,,
57832,note_on,32,0,3,,,,,,,,0,,,66,0
57833,set_tempo,5,1,0,,,,,,579822,,,,,,
57840,note_on,8,0,3,,,,,,,,0,,,69,72
57846,set_tempo,13,1,0,,,,,,583998,,,,,,
57854,set_tempo,8,1,0,,,,,,588235,,,,,,
57863,set_tempo,9,1,0,,,,,,592534,,,,,,
57872,note_on,32,0,3,,,,,,,,0,,,69,0
57872,set_tempo,9,1,0,,,,,,596896,,,,,,
57880,note_on,8,0,3,,,,,,,,0,,,66,72
57881,set_tempo,9,1,0,,,,,,601323,,,,,,
57888,note_on,288,0,1,,,,,,,,0,,,84,0
57888,note_on,0,0,1,,,,,,,,0,,,72,0
57889,set_tempo,8,1,0,,,,,,605816,,,,,,
57902,set_tempo,13,1,0,,,,,,610376,,,,,,
57911,set_tempo,9,1,0,,,,,,615006,,,,,,
57912,note_on,32,0,3,,,,,,,,0,,,66,0
57920,set_tempo,9,1,0,,,,,,619707,,,,,,
57920,note_on,8,0,3,,,,,,,,0,,,63,72
57929,set_tempo,9,1,0,,,,,,624480,,,,,,
57937,set_tempo,8,1,0,,,,,,629327,,,,,,
57946,set_tempo,9,1,0,,,,,,634249,,,,,,
57952,note_on,32,0,3,,,,,,,,0,,,63,0
57955,set_tempo,9,1,0,,,,,,639250,,,,,,
57960,note_on,72,0,1,,,,,,,,0,,,83,80
57960,note_on,8,0,3,,,,,,,,0,,,57,72
57960,note_on,0,0,1,,,,,,,,0,,,71,80
57968,set_tempo,13,1,0,,,,,,644330,,,,,,
57977,set_tempo,9,1,0,,,,,,649491,,,,,,
57985,set_tempo,8,1,0,,,,,,654736,,,,,,
57992,note_on,32,0,3,,,,,,,,0,,,57,0
57994,set_tempo,9,1,0,,,,,,660066,,,,,,
58000,note_on,8,0,3,,,,,,,,0,,,54,72
58003,set_tempo,9,1,0,,,,,,665484,,,,,,
58012,set_tempo,9,1,0,,,,,,670991,,,,,,
58025,set_tempo,13,1,0,,,,,,676590,,,,,,
58032,note_on,32,0,3,,,,,,,,0,,,54,0
58033,set_tempo,8,1,0,,,,,,682283,,,,,,
58040,note_on,8,0,3,,,,,,,,0,,,51,72
58042,set_tempo,9,1,0,,,,,,688073,,,,,,
58051,set_tempo,9,1,0,,,,,,693963,,,,,,
58060,set_tempo,9,1,0,,,,,,699953,,,,,,
58068,set_tempo,8,1,0,,,,,,706048,,,,,,
58072,note_on,32,0,3,,,,,,,,0,,,51,0
58077,set_tempo,9,1,0,,,,,,712251,,,,,,
58080,control_change,462,0,4,,,,,,,,0,64,0,,
58080,note_on,8,0,3,,,,,,,,0,,,44,72
58090,control_change,10,0,4,,,,,,,,0,64,127,,
58090,set_tempo,13,1,0,,,,,,706048,,,,,,
58103,set_tempo,13,1,0,,,,,,699953,,,,,,
58112,note_on,32,0,3,,,,,,,,0,,,44,0
58116,set_tempo,13,1,0,,,,,,693963,,,,,,
58120,note_on,8,0,3,,,,,,,,0,,,51,72
58129,set_tempo,13,1,0,,,,,,688073,,,,,,
58142,set_tempo,13,1,0,,,,,,682283,,,,,,
58152,note_on,32,0,3,,,,,,,,0,,,51,0
58156,set_tempo,14,1,0,,,,,,676590,,,,,,
58160,note_on,8,0,3,,,,,,,,0,,,54,72
58169,set_tempo,13,1,0,,,,,,670991,,,,,,
58176,note_on,0,0,1,,,,,,,,0,,,83,0
58176,note_on,216,0,1,,,,,,,,0,,,71,0
58182,set_tempo,13,1,0,,,,,,665484,,,,,,
58192,note_on,32,0,3,,,,,,,,0,,,54,0
58195,set_tempo,13,1,0,,,,,,660066,,,,,,
58200,note_on,24,0,1,,,,,,,,0,,,72,80
58200,note_on,8,0,3,,,,,,,,0,,,57,72
58200,note_on,0,0,1,,,,,,,,0,,,84,80
58204,set_tempo,9,1,0,,,,,,654736,,,,,,
58217,set_tempo,13,1,0,,,,,,649491,,,,,,
58230,set_tempo,13,1,0,,,,,,644330,,,,,,
58232,note_on,32,0,3,,,,,,,,0,,,57,0
58240,note_on,8,0,3,,,,,,,,0,,,63,72
58243,set_tempo,13,1,0,,,,,,639250,,,,,,
58256,set_tempo,13,1,0,,,,,,634249,,,,,,
58269,set_tempo,13,1,0,,,,,,629327,,,,,,
58272,note_on,32,0,3,,,,,,,,0,,,63,0
58280,note_on,8,0,3,,,,,,,,0,,,66,72
58282,set_tempo,13,1,0,,,,,,624480,,,,,,
58295,set_tempo,13,1,0,,,,,,619707,,,,,,
58296,note_on,96,0,1,,,,,,,,0,,,84,0
58296,note_on,0,0,1,,,,,,,,0,,,72,0
58308,set_tempo,13,1,0,,,,,,615006,,,,,,
58312,note_on,32,0,3,,,,,,,,0,,,66,0
58317,set_tempo,9,1,0,,,,,,610376,,,,,,
58320,note_on,0,0,1,,,,,,,,0,,,73,80
58320,note_on,8,0,3,,,,,,,,0,,,68,72
58320,note_on,24,0,1,,,,,,,,0,,,85,80
58326,set_tempo,9,1,0,,,,,,601323,,,,,,
58339,set_tempo,13,1,0,,,,,,605816,,,,,,
58348,set_tempo,9,1,0,,,,,,610376,,,,,,
58352,note_on,32,0,3,,,,,,,,0,,,68,0
58356,set_tempo,8,1,0,,,,,,615006,,,,,,
58360,note_on,8,0,3,,,,,,,,0,,,66,72
58369,set_tempo,13,1,0,,,,,,619707,,,,,,
58378,set_tempo,9,1,0,,,,,,624480,,,,,,
58387,set_tempo,9,1,0,,,,,,629327,,,,,,
58392,note_on,32,0,3,,,,,,,,0,,,66,0
58400,note_on,8,0,3,,,,,,,,0,,,60,72
58400,set_tempo,13,1,0,,,,,,634249,,,,,,
58409,set_tempo,9,1,0,,,,,,639250,,,,,,
58416,note_on,96,0,1,,,,,,,,0,,,73,0
58416,note_on,0,0,1,,,,,,,,0,,,85,0
58417,set_tempo,8,1,0,,,,,,644330,,,,,,
58430,set_tempo,13,1,0,,,,,,649491,,,,,,
58432,note_on,32,0,3,,,,,,,,0,,,60,0
58439,set_tempo,9,1,0,,,,,,654736,,,,,,
58440,note_on,8,0,3,,,,,,,,0,,,56,72
58440,note_on,24,0,1,,,,,,,,0,,,75,80
58440,note_on,0,0,1,,,,,,,,0,,,87,80
58448,set_tempo,9,1,0,,,,,,660066,,,,,,
58457,set_tempo,9,1,0,,,,,,665484,,,,,,
58470,set_tempo,13,1,0,,,,,,670991,,,,,,
58472,note_on,32,0,3,,,,,,,,0,,,56,0
58478,set_tempo,8,1,0,,,,,,676590,,,,,,
58480,note_on,8,0,3,,,,,,,,0,,,54,72
58487,set_tempo,9,1,0,,,,,,682283,,,,,,
58500,set_tempo,13,1,0,,,,,,688073,,,,,,
58509,set_tempo,9,1,0,,,,,,693963,,,,,,
58512,note_on,32,0,3,,,,,,,,0,,,54,0
58518,set_tempo,9,1,0,,,,,,699953,,,,,,
58520,note_on,8,0,3,,,,,,,,0,,,48,72
58531,set_tempo,13,1,0,,,,,,706048,,,,,,
58536,note_on,96,0,1,,,,,,,,0,,,87,0
58536,note_on,0,0,1,,,,,,,,0,,,75,0
58540,set_tempo,9,1,0,,,,,,712251,,,,,,
58548,set_tempo,8,1,0,,,,,,718563,,,,,,
58552,note_on,32,0,3,,,,,,,,0,,,48,0
58557,set_tempo,9,1,0,,,,,,724988,,,,,,
58560,note_on,0,0,1,,,,,,,,0,,,77,80
58560,note_on,24,0,1,,,,,,,,0,,,89,80
58560,control_change,470,0,4,,,,,,,,0,64,0,,
58560,note_on,8,0,3,,,,,,,,0,,,37,72
58570,set_tempo,13,1,0,,,,,,718563,,,,,,
58578,control_change,18,0,4,,,,,,,,0,64,127,,
58579,set_tempo,9,1,0,,,,,,712251,,,,,,
58588,set_tempo,9,1,0,,,,,,706048,,,,,,
58592,note_on,32,0,3,,,,,,,,0,,,37,0
58596,set_tempo,8,1,0,,,,,,699953,,,,,,
58600,note_on,8,0,3,,,,,,,,0,,,44,72
58605,set_tempo,9,1,0,,,,,,693963,,,,,,
58618,set_tempo,13,1,0,,,,,,688073,,,,,,
58627,set_tempo,9,1,0,,,,,,682283,,,,,,
58632,note_on,32,0,3,,,,,,,,0,,,44,0
58636,set_tempo,9,1,0,,,,,,676590,,,,,,
58640,note_on,8,0,3,,,,,,,,0,,,49,72
58644,set_tempo,8,1,0,,,,,,670991,,,,,,
58653,set_tempo,9,1,0,,,,,,665484,,,,,,
58666,set_tempo,13,1,0,,,,,,660066,,,,,,
58672,note_on,32,0,3,,,,,,,,0,,,49,0
58675,set_tempo,9,1,0,,,,,,654736,,,,,,
58680,note_on,8,0,3,,,,,,,,0,,,53,72
58684,set_tempo,9,1,0,,,,,,649491,,,,,,
58692,set_tempo,8,1,0,,,,,,644330,,,,,,
58701,set_tempo,9,1,0,,,,,,639250,,,,,,
58704,note_on,0,0,1,,,,,,,,0,,,89,0
58704,note_on,144,0,1,,,,,,,,0,,,77,0
58712,note_on,32,0,3,,,,,,,,0,,,53,0
58714,set_tempo,13,1,0,,,,,,634249,,,,,,
58720,note_on,8,0,3,,,,,,,,0,,,56,72
58723,set_tempo,9,1,0,,,,,,629327,,,,,,
58732,set_tempo,9,1,0,,,,,,624480,,,,,,
58740,note_on,36,0,1,,,,,,,,0,,,85,80
58740,set_tempo,8,1,0,,,,,,619707,,,,,,
58740,note_on,0,0,1,,,,,,,,0,,,73,80
58749,set_tempo,9,1,0,,,,,,615006,,,,,,
58752,note_on,32,0,3,,,,,,,,0,,,56,0
58760,note_on,8,0,3,,,,,,,,0,,,61,72
58762,set_tempo,13,1,0,,,,,,610376,,,,,,
58771,set_tempo,9,1,0,,,,,,605816,,,,,,
58780,set_tempo,9,1,0,,,,,,601323,,,,,,
58788,set_tempo,8,1,0,,,,,,596896,,,,,,
58788,note_on,48,0,1,,,,,,,,0,,,73,0
58788,note_on,0,0,1,,,,,,,,0,,,85,0
58792,note_on,32,0,3,,,,,,,,0,,,61,0
58797,set_tempo,9,1,0,,,,,,592534,,,,,,
58800,note_on,12,0,1,,,,,,,,0,,,80,80
58800,note_on,8,0,3,,,,,,,,0,,,65,72
58800,note_on,0,0,1,,,,,,,,0,,,68,80
58810,set_tempo,13,1,0,,,,,,596896,,,,,,
58819,set_tempo,9,1,0,,,,,,601323,,,,,,
58828,set_tempo,9,1,0,,,,,,605816,,,,,,
58832,note_on,32,0,3,,,,,,,,0,,,65,0
58836,set_tempo,8,1,0,,,,,,610376,,,,,,
58840,note_on,8,0,3,,,,,,,,0,,,61,72
58845,set_tempo,9,1,0,,,,,,615006,,,,,,
58858,set_tempo,13,1,0,,,,,,619707,,,,,,
58867,set_tempo,9,1,0,,,,,,624480,,,,,,
58872,note_on,32,0,3,,,,,,,,0,,,61,0
58876,set_tempo,9,1,0,,,,,,629327,,,,,,
58880,note_on,8,0,3,,,,,,,,0,,,56,72
58884,set_tempo,8,1,0,,,,,,634249,,,,,,
58893,set_tempo,9,1,0,,,,,,639250,,,,,,
58906,set_tempo,13,1,0,,,,,,644330,,,,,,
58912,note_on,32,0,3,,,,,,,,0,,,56,0
58915,set_tempo,9,1,0,,,,,,649491,,,,,,
58920,note_on,8,0,3,,,,,,,,0,,,53,72
58924,set_tempo,9,1,0,,,,,,654736,,,,,,
58932,set_tempo,8,1,0,,,,,,660066,,,,,,
58941,set_tempo,9,1,0,,,,,,665484,,,,,,
58952,note_on,32,0,3,,,,,,,,0,,,53,0
58954,set_tempo,13,1,0,,,,,,670991,,,,,,
58960,note_on,8,0,3,,,,,,,,0,,,49,72
58963,set_tempo,9,1,0,,,,,,676590,,,,,,
58972,set_tempo,9,1,0,,,,,,682283,,,,,,
58980,set_tempo,8,1,0,,,,,,688073,,,,,,
58989,set_tempo,9,1,0,,,,,,693963,,,,,,
58992,note_on,192,0,1,,,,,,,,0,,,68,0
58992,note_on,0,0,1,,,,,,,,0,,,80,0
58992,note_on,32,0,3,,,,,,,,0,,,49,0
59000,note_on,8,0,3,,,,,,,,0,,,44,72
59002,set_tempo,13,1,0,,,,,,699953,,,,,,
59011,set_tempo,9,1,0,,,,,,706048,,,,,,
59020,set_tempo,9,1,0,,,,,,712251,,,,,,
59022,control_change,444,0,4,,,,,,,,0,64,0,,
59028,set_tempo,8,1,0,,,,,,718563,,,,,,
59032,note_on,32,0,3,,,,,,,,0,,,44,0
59037,set_tempo,9,1,0,,,,,,724988,,,,,,
59040,note_on,8,0,3,,,,,,,,0,,,37,72
59040,note_on,48,0,1,,,,,,,,0,,,94,80
59040,note_on,0,0,1,,,,,,,,0,,,82,80
59050,set_tempo,13,1,0,,,,,,718563,,,,,,
59059,set_tempo,9,1,0,,,,,,712251,,,,,,
59061,control_change,39,0,4,,,,,,,,0,64,127,,
59072,note_on,32,0,3,,,,,,,,0,,,37,0
59072,set_tempo,13,1,0,,,,,,706048,,,,,,
59080,note_on,8,0,3,,,,,,,,0,,,43,72
59081,set_tempo,9,1,0,,,,,,699953,,,,,,
59089,set_tempo,8,1,0,,,,,,693963,,,,,,
59102,set_tempo,13,1,0,,,,,,688073,,,,,,
59111,set_tempo,9,1,0,,,,,,682283,,,,,,
59112,note_on,32,0,3,,,,,,,,0,,,43,0
59120,set_tempo,9,1,0,,,,,,676590,,,,,,
59120,note_on,8,0,3,,,,,,,,0,,,46,72
59133,set_tempo,13,1,0,,,,,,670991,,,,,,
59142,set_tempo,9,1,0,,,,,,665484,,,,,,
59150,set_tempo,8,1,0,,,,,,660066,,,,,,
59152,note_on,32,0,3,,,,,,,,0,,,46,0
59160,note_on,8,0,3,,,,,,,,0,,,52,72
59164,set_tempo,14,1,0,,,,,,654736,,,,,,
59172,set_tempo,8,1,0,,,,,,649491,,,,,,
59181,set_tempo,9,1,0,,,,,,644330,,,,,,
59192,note_on,32,0,3,,,,,,,,0,,,52,0
59194,set_tempo,13,1,0,,,,,,639250,,,,,,
59200,note_on,8,0,3,,,,,,,,0,,,55,72
59203,set_tempo,9,1,0,,,,,,634249,,,,,,
59212,set_tempo,9,1,0,,,,,,629327,,,,,,
59225,set_tempo,13,1,0,,,,,,624480,,,,,,
59232,note_on,192,0,1,,,,,,,,0,,,82,0
59232,note_on,0,0,1,,,,,,,,0,,,94,0
59232,note_on,32,0,3,,,,,,,,0,,,55,0
59233,set_tempo,8,1,0,,,,,,619707,,,,,,
59240,note_on,8,0,3,,,,,,,,0,,,58,72
59242,set_tempo,9,1,0,,,,,,615006,,,,,,
59255,set_tempo,13,1,0,,,,,,610376,,,,,,
59264,set_tempo,9,1,0,,,,,,605816,,,,,,
59272,note_on,32,0,3,,,,,,,,0,,,58,0
59273,set_tempo,9,1,0,,,,,,601323,,,,,,
59274,set_tempo,1,1,0,,,,,,601323,,,,,,
59280,note_on,0,0,1,,,,,,,,0,,,82,85
59280,note_on,48,0,1,,,,,,,,0,,,94,85
59280,note_on,8,0,3,,,,,,,,0,,,64,72
59287,set_tempo,13,1,0,,,,,,605816,,,,,,
59296,set_tempo,9,1,0,,,,,,610376,,,,,,
59309,set_tempo,13,1,0,,,,,,615006,,,,,,
59312,note_on,32,0,3,,,,,,,,0,,,64,0
59318,set_tempo,9,1,0,,,,,,619707,,,,,,
59320,note_on,8,0,3,,,,,,,,0,,,58,72
59326,set_tempo,8,1,0,,,,,,624480,,,,,,
59340,set_tempo,14,1,0,,,,,,629327,,,,,,
59348,set_tempo,8,1,0,,,,,,634249,,,,,,
59352,note_on,32,0,3,,,,,,,,0,,,58,0
59360,note_on,8,0,3,,,,,,,,0,,,55,72
59361,set_tempo,13,1,0,,,,,,639250,,,,,,
59370,set_tempo,9,1,0,,,,,,644330,,,,,,
59379,set_tempo,9,1,0,,,,,,649491,,,,,,
59392,set_tempo,13,1,0,,,,,,654736,,,,,,
59392,note_on,32,0,3,,,,,,,,0,,,55,0
59400,note_on,8,0,3,,,,,,,,0,,,52,72
59401,set_tempo,9,1,0,,,,,,660066,,,,,,
59414,set_tempo,13,1,0,,,,,,665484,,,,,,
59422,set_tempo,8,1,0,,,,,,670991,,,,,,
59424,note_on,0,0,1,,,,,,,,0,,,94,0
59424,note_on,144,0,1,,,,,,,,0,,,82,0
59431,set_tempo,9,1,0,,,,,,676590,,,,,,
59432,note_on,32,0,3,,,,,,,,0,,,52,0
59440,note_on,8,0,3,,,,,,,,0,,,46,72
59444,set_tempo,13,1,0,,,,,,682283,,,,,,
59453,set_tempo,9,1,0,,,,,,688073,,,,,,
59460,note_on,36,0,1,,,,,,,,0,,,94,89
59460,note_on,0,0,1,,,,,,,,0,,,82,89
59466,set_tempo,13,1,0,,,,,,693963,,,,,,
59472,note_on,32,0,3,,,,,,,,0,,,46,0
59475,set_tempo,9,1,0,,,,,,699953,,,,,,
59480,note_on,8,0,3,,,,,,,,0,,,43,72
59484,set_tempo,9,1,0,,,,,,706048,,,,,,
59497,set_tempo,13,1,0,,,,,,712251,,,,,,
59505,set_tempo,8,1,0,,,,,,718563,,,,,,
59508,note_on,48,0,1,,,,,,,,0,,,82,0
59508,note_on,0,0,1,,,,,,,,0,,,94,0
59512,note_on,32,0,3,,,,,,,,0,,,43,0
59514,set_tempo,9,1,0,,,,,,724988,,,,,,
59520,note_on,0,0,1,,,,,,,,0,,,94,90
59520,note_on,12,0,1,,,,,,,,0,,,82,90
59520,control_change,459,0,4,,,,,,,,0,64,0,,
59520,note_on,8,0,3,,,,,,,,0,,,37,72
59527,set_tempo,13,1,0,,,,,,718563,,,,,,
59536,set_tempo,9,1,0,,,,,,712251,,,,,,
59541,control_change,21,0,4,,,,,,,,0,64,127,,
59545,set_tempo,9,1,0,,,,,,706048,,,,,,
59552,note_on,32,0,3,,,,,,,,0,,,37,0
59558,set_tempo,13,1,0,,,,,,699953,,,,,,
59560,note_on,8,0,3,,,,,,,,0,,,44,72
59566,set_tempo,8,1,0,,,,,,693963,,,,,,
59575,set_tempo,9,1,0,,,,,,688073,,,,,,
59588,set_tempo,13,1,0,,,,,,682283,,,,,,
59592,note_on,32,0,3,,,,,,,,0,,,44,0
59597,set_tempo,9,1,0,,,,,,676590,,,,,,
59600,note_on,8,0,3,,,,,,,,0,,,49,72
59606,set_tempo,9,1,0,,,,,,670991,,,,,,
59614,set_tempo,8,1,0,,,,,,665484,,,,,,
59628,set_tempo,14,1,0,,,,,,660066,,,,,,
59632,note_on,32,0,3,,,,,,,,0,,,49,0
59636,set_tempo,8,1,0,,,,,,654736,,,,,,
59640,note_on,8,0,3,,,,,,,,0,,,53,72
59645,set_tempo,9,1,0,,,,,,649491,,,,,,
59658,set_tempo,13,1,0,,,,,,644330,,,,,,
59667,set_tempo,9,1,0,,,,,,639250,,,,,,
59672,note_on,32,0,3,,,,,,,,0,,,53,0
59676,set_tempo,9,1,0,,,,,,634249,,,,,,
59680,note_on,8,0,3,,,,,,,,0,,,56,72
59684,set_tempo,8,1,0,,,,,,629327,,,,,,
59697,set_tempo,13,1,0,,,,,,624480,,,,,,
59706,set_tempo,9,1,0,,,,,,619707,,,,,,
59712,note_on,32,0,3,,,,,,,,0,,,56,0
59715,set_tempo,9,1,0,,,,,,615006,,,,,,
59720,note_on,8,0,3,,,,,,,,0,,,61,72
59728,set_tempo,13,1,0,,,,,,610376,,,,,,
59737,set_tempo,9,1,0,,,,,,605816,,,,,,
59745,set_tempo,8,1,0,,,,,,601323,,,,,,
59752,note_on,32,0,3,,,,,,,,0,,,61,0
59754,set_tempo,9,1,0,,,,,,596896,,,,,,
59760,note_on,8,0,3,,,,,,,,0,,,65,72
59767,set_tempo,13,1,0,,,,,,601323,,,,,,
59776,set_tempo,9,1,0,,,,,,605816,,,,,,
59785,set_tempo,9,1,0,,,,,,610376,,,,,,
59792,note_on,32,0,3,,,,,,,,0,,,65,0
59793,set_tempo,8,1,0,,,,,,615006,,,,,,
59800,note_on,8,0,3,,,,,,,,0,,,61,72
59802,set_tempo,9,1,0,,,,,,619707,,,,,,
59811,set_tempo,9,1,0,,,,,,624480,,,,,,
59824,set_tempo,13,1,0,,,,,,629327,,,,,,
59824,note_on,304,0,1,,,,,,,,0,,,94,0
59824,note_on,0,0,1,,,,,,,,0,,,82,0
59832,note_on,32,0,3,,,,,,,,0,,,61,0
59833,set_tempo,9,1,0,,,,,,634249,,,,,,
59840,note_on,16,0,1,,,,,,,,0,,,80,97
59840,note_on,0,0,1,,,,,,,,0,,,92,97
59840,note_on,8,0,3,,,,,,,,0,,,56,72
59841,set_tempo,8,1,0,,,,,,639250,,,,,,
59850,set_tempo,9,1,0,,,,,,644330,,,,,,
59859,set_tempo,9,1,0,,,,,,649491,,,,,,
59868,set_tempo,9,1,0,,,,,,654736,,,,,,
59872,note_on,32,0,3,,,,,,,,0,,,56,0
59880,note_on,8,0,3,,,,,,,,0,,,53,72
59881,set_tempo,13,1,0,,,,,,660066,,,,,,
59889,set_tempo,8,1,0,,,,,,665484,,,,,,
59898,set_tempo,9,1,0,,,,,,670991,,,,,,
59904,note_on,0,0,1,,,,,,,,0,,,80,0
59904,note_on,64,0,1,,,,,,,,0,,,92,0
59907,set_tempo,9,1,0,,,,,,676590,,,,,,
59912,note_on,32,0,3,,,,,,,,0,,,53,0
59916,set_tempo,9,1,0,,,,,,682283,,,,,,
59920,note_on,0,0,1,,,,,,,,0,,,77,99
59920,note_on,16,0,1,,,,,,,,0,,,89,99
59920,note_on,8,0,3,,,,,,,,0,,,49,72
59924,set_tempo,8,1,0,,,,,,688073,,,,,,
59937,set_tempo,13,1,0,,,,,,693963,,,,,,
59946,set_tempo,9,1,0,,,,,,699953,,,,,,
59952,note_on,32,0,3,,,,,,,,0,,,49,0
59955,set_tempo,9,1,0,,,,,,706048,,,,,,
59960,note_on,8,0,3,,,,,,,,0,,,44,72
59964,set_tempo,9,1,0,,,,,,712251,,,,,,
59972,set_tempo,8,1,0,,,,,,718563,,,,,,
59981,set_tempo,9,1,0,,,,,,724988,,,,,,
59984,note_on,64,0,1,,,,,,,,0,,,77,0
59984,note_on,0,0,1,,,,,,,,0,,,89,0
59990,set_tempo,9,1,0,,,,,,731529,,,,,,
59992,note_on,32,0,3,,,,,,,,0,,,44,0
60000,note_on,16,0,1,,,,,,,,0,,,89,100
60000,note_on,8,0,3,,,,,,,,0,,,37,72
60000,note_on,0,0,1,,,,,,,,0,,,77,100
60003,set_tempo,13,1,0,,,,,,724988,,,,,,
60012,set_tempo,9,1,0,,,,,,718563,,,,,,
60021,control_change,480,0,4,,,,,,,,0,64,0,,
60025,set_tempo,13,1,0,,,,,,712251,,,,,,
60028,control_change,7,0,4,,,,,,,,0,64,127,,
60032,note_on,32,0,3,,,,,,,,0,,,37,0
60033,set_tempo,8,1,0,,,,,,706048,,,,,,
60040,note_on,8,0,3,,,,,,,,0,,,45,72
60042,set_tempo,9,1,0,,,,,,699953,,,,,,
60055,set_tempo,13,1,0,,,,,,693963,,,,,,
60064,set_tempo,9,1,0,,,,,,688073,,,,,,
60072,note_on,32,0,3,,,,,,,,0,,,45,0
60073,set_tempo,9,1,0,,,,,,682283,,,,,,
60080,note_on,8,0,3,,,,,,,,0,,,48,72
60086,set_tempo,13,1,0,,,,,,676590,,,,,,
60094,set_tempo,8,1,0,,,,,,670991,,,,,,
60103,set_tempo,9,1,0,,,,,,665484,,,,,,
60112,note_on,32,0,3,,,,,,,,0,,,48,0
60116,set_tempo,13,1,0,,,,,,660066,,,,,,
60120,note_on,8,0,3,,,,,,,,0,,,54,72
60125,set_tempo,9,1,0,,,,,,654736,,,,,,
60134,set_tempo,9,1,0,,,,,,649491,,,,,,
60147,set_tempo,13,1,0,,,,,,644330,,,,,,
60152,note_on,32,0,3,,,,,,,,0,,,54,0
60156,set_tempo,9,1,0,,,,,,639250,,,,,,
60160,note_on,8,0,3,,,,,,,,0,,,57,72
60164,set_tempo,8,1,0,,,,,,634249,,,,,,
60177,set_tempo,13,1,0,,,,,,629327,,,,,,
60186,set_tempo,9,1,0,,,,,,624480,,,,,,
60192,note_on,32,0,3,,,,,,,,0,,,57,0
60195,set_tempo,9,1,0,,,,,,619707,,,,,,
60200,note_on,8,0,3,,,,,,,,0,,,60,72
60208,set_tempo,13,1,0,,,,,,615006,,,,,,
60217,set_tempo,9,1,0,,,,,,610376,,,,,,
60225,set_tempo,8,1,0,,,,,,605816,,,,,,
60232,note_on,32,0,3,,,,,,,,0,,,60,0
60238,set_tempo,13,1,0,,,,,,610376,,,,,,
60240,note_on,8,0,3,,,,,,,,0,,,66,72
60252,set_tempo,14,1,0,,,,,,615006,,,,,,
60260,set_tempo,8,1,0,,,,,,619707,,,,,,
60272,note_on,32,0,3,,,,,,,,0,,,66,0
60273,set_tempo,13,1,0,,,,,,624480,,,,,,
60280,note_on,8,0,3,,,,,,,,0,,,60,72
60282,set_tempo,9,1,0,,,,,,629327,,,,,,
60288,note_on,0,0,1,,,,,,,,0,,,89,0
60288,note_on,288,0,1,,,,,,,,0,,,77,0
60295,set_tempo,13,1,0,,,,,,634249,,,,,,
60300,note_on,0,0,1,,,,,,,,0,,,75,87
60300,note_on,12,0,1,,,,,,,,0,,,87,87
60308,set_tempo,13,1,0,,,,,,639250,,,,,,
60312,note_on,32,0,3,,,,,,,,0,,,60,0
60317,set_tempo,9,1,0,,,,,,644330,,,,,,
60320,note_on,8,0,3,,,,,,,,0,,,57,72
60330,set_tempo,13,1,0,,,,,,649491,,,,,,
60339,set_tempo,9,1,0,,,,,,654736,,,,,,
60348,note_on,0,0,1,,,,,,,,0,,,87,0
60348,note_on,48,0,1,,,,,,,,0,,,75,0
60352,note_on,32,0,3,,,,,,,,0,,,57,0
60352,set_tempo,13,1,0,,,,,,660066,,,,,,
60360,note_on,12,0,1,,,,,,,,0,,,72,85
60360,note_on,8,0,3,,,,,,,,0,,,54,72
60360,note_on,0,0,1,,,,,,,,0,,,84,85
60365,set_tempo,13,1,0,,,,,,665484,,,,,,
60374,set_tempo,9,1,0,,,,,,670991,,,,,,
60387,set_tempo,13,1,0,,,,,,676590,,,,,,
60392,note_on,32,0,3,,,,,,,,0,,,54,0
60396,set_tempo,9,1,0,,,,,,682283,,,,,,
60400,note_on,8,0,3,,,,,,,,0,,,48,72
60408,note_on,48,0,1,,,,,,,,0,,,84,0
60408,note_on,0,0,1,,,,,,,,0,,,72,0
60409,set_tempo,13,1,0,,,,,,688073,,,,,,
60420,note_on,12,0,1,,,,,,,,0,,,81,82
60420,note_on,0,0,1,,,,,,,,0,,,69,82
60422,set_tempo,13,1,0,,,,,,693963,,,,,,
60430,set_tempo,8,1,0,,,,,,699953,,,,,,
60432,note_on,32,0,3,,,,,,,,0,,,48,0
60440,note_on,8,0,3,,,,,,,,0,,,45,72
60444,set_tempo,14,1,0,,,,,,706048,,,,,,
60452,set_tempo,8,1,0,,,,,,712251,,,,,,
60465,set_tempo,13,1,0,,,,,,718563,,,,,,
60466,control_change,438,0,4,,,,,,,,0,64,0,,
60468,note_on,48,0,1,,,,,,,,0,,,69,0
60468,note_on,0,0,1,,,,,,,,0,,,81,0
60472,note_on,32,0,3,,,,,,,,0,,,45,0
60474,set_tempo,9,1,0,,,,,,724988,,,,,,
60480,note_on,0,0,1,,,,,,,,0,,,69,80
60480,note_on,8,0,3,,,,,,,,0,,,37,72
60480,note_on,12,0,1,,,,,,,,0,,,81,80
60487,control_change,21,0,4,,,,,,,,0,64,127,,
60487,set_tempo,13,1,0,,,,,,718563,,,,,,
60496,set_tempo,9,1,0,,,,,,712251,,,,,,
60505,set_tempo,9,1,0,,,,,,706048,,,,,,
60512,note_on,32,0,3,,,,,,,,0,,,37,0
60513,set_tempo,8,1,0,,,,,,699953,,,,,,
60520,note_on,8,0,3,,,,,,,,0,,,44,72
60526,set_tempo,13,1,0,,,,,,693963,,,,,,
60535,set_tempo,9,1,0,,,,,,688073,,,,,,
60544,set_tempo,9,1,0,,,,,,682283,,,,,,
60552,note_on,32,0,3,,,,,,,,0,,,44,0
60553,set_tempo,9,1,0,,,,,,676590,,,,,,
60560,note_on,8,0,3,,,,,,,,0,,,49,72
60566,set_tempo,13,1,0,,,,,,670991,,,,,,
60574,set_tempo,8,1,0,,,,,,665484,,,,,,
60583,set_tempo,9,1,0,,,,,,660066,,,,,,
60592,note_on,32,0,3,,,,,,,,0,,,49,0
60592,set_tempo,9,1,0,,,,,,654736,,,,,,
60600,note_on,8,0,3,,,,,,,,0,,,53,72
60605,set_tempo,13,1,0,,,,,,649491,,,,,,
60614,set_tempo,9,1,0,,,,,,644330,,,,,,
60622,set_tempo,8,1,0,,,,,,639250,,,,,,
60631,set_tempo,9,1,0,,,,,,634249,,,,,,
60632,note_on,32,0,3,,,,,,,,0,,,53,0
60640,note_on,8,0,3,,,,,,,,0,,,56,72
60644,set_tempo,13,1,0,,,,,,629327,,,,,,
60653,set_tempo,9,1,0,,,,,,624480,,,,,,
60662,set_tempo,9,1,0,,,,,,619707,,,,,,
60670,set_tempo,8,1,0,,,,,,615006,,,,,,
60672,note_on,32,0,3,,,,,,,,0,,,56,0
60680,note_on,8,0,3,,,,,,,,0,,,61,72
60684,set_tempo,14,1,0,,,,,,610376,,,,,,
60692,set_tempo,8,1,0,,,,,,605816,,,,,,
60701,set_tempo,9,1,0,,,,,,601323,,,,,,
60710,set_tempo,9,1,0,,,,,,596896,,,,,,
60712,note_on,32,0,3,,,,,,,,0,,,61,0
60718,set_tempo,8,1,0,,,,,,592534,,,,,,
60720,note_on,8,0,3,,,,,,,,0,,,65,72
60732,set_tempo,14,1,0,,,,,,596896,,,,,,
60740,set_tempo,8,1,0,,,,,,601323,,,,,,
60752,note_on,32,0,3,,,,,,,,0,,,65,0
60753,set_tempo,13,1,0,,,,,,605816,,,,,,
60760,note_on,8,0,3,,,,,,,,0,,,61,72
60762,set_tempo,9,1,0,,,,,,610376,,,,,,
60768,note_on,288,0,1,,,,,,,,0,,,69,0
60768,note_on,0,0,1,,,,,,,,0,,,81,0
60771,set_tempo,9,1,0,,,,,,615006,,,,,,
60780,note_on,12,0,1,,,,,,,,0,,,80,74
60780,note_on,0,0,1,,,,,,,,0,,,68,74
60784,set_tempo,13,1,0,,,,,,619707,,,,,,
60792,note_on,32,0,3,,,,,,,,0,,,61,0
60793,set_tempo,9,1,0,,,,,,624480,,,,,,
60800,note_on,8,0,3,,,,,,,,0,,,56,72
60801,set_tempo,8,1,0,,,,,,629327,,,,,,
60814,set_tempo,13,1,0,,,,,,634249,,,,,,
60823,set_tempo,9,1,0,,,,,,639250,,,,,,
60828,note_on,0,0,1,,,,,,,,0,,,80,0
60828,note_on,48,0,1,,,,,,,,0,,,68,0
60832,set_tempo,9,1,0,,,,,,644330,,,,,,
60832,note_on,32,0,3,,,,,,,,0,,,56,0
60840,note_on,0,0,1,,,,,,,,0,,,73,73
60840,note_on,8,0,3,,,,,,,,0,,,53,72
60840,note_on,12,0,1,,,,,,,,0,,,85,73
60845,set_tempo,13,1,0,,,,,,649491,,,,,,
60854,set_tempo,9,1,0,,,,,,654736,,,,,,
60862,set_tempo,8,1,0,,,,,,660066,,,,,,
60872,note_on,32,0,3,,,,,,,,0,,,53,0
60876,set_tempo,14,1,0,,,,,,665484,,,,,,
60880,note_on,8,0,3,,,,,,,,0,,,49,72
60884,set_tempo,8,1,0,,,,,,670991,,,,,,
60888,note_on,48,0,1,,,,,,,,0,,,73,0
60888,note_on,0,0,1,,,,,,,,0,,,85,0
60893,set_tempo,9,1,0,,,,,,676590,,,,,,
60900,note_on,12,0,1,,,,,,,,0,,,77,71
60900,note_on,0,0,1,,,,,,,,0,,,89,71
60906,set_tempo,13,1,0,,,,,,682283,,,,,,
60912,note_on,32,0,3,,,,,,,,0,,,49,0
60915,set_tempo,9,1,0,,,,,,688073,,,,,,
60920,note_on,8,0,3,,,,,,,,0,,,44,72
60924,set_tempo,9,1,0,,,,,,693963,,,,,,
60937,set_tempo,13,1,0,,,,,,699953,,,,,,
60945,set_tempo,8,1,0,,,,,,706048,,,,,,
60948,note_on,48,0,1,,,,,,,,0,,,89,0
60948,note_on,0,0,1,,,,,,,,0,,,77,0
60952,note_on,32,0,3,,,,,,,,0,,,44,0
60954,set_tempo,9,1,0,,,,,,712251,,,,,,
60960,note_on,0,0,1,,,,,,,,0,,,82,70
60960,note_on,8,0,3,,,,,,,,0,,,37,72
60960,control_change,473,0,4,,,,,,,,0,64,0,,
60960,note_on,12,0,1,,,,,,,,0,,,94,70
60967,set_tempo,13,1,0,,,,,,706048,,,,,,
60976,set_tempo,9,1,0,,,,,,699953,,,,,,
60989,set_tempo,13,1,0,,,,,,693963,,,,,,
60992,note_on,32,0,3,,,,,,,,0,,,37,0
60995,control_change,35,0,4,,,,,,,,0,64,127,,
60998,set_tempo,9,1,0,,,,,,688073,,,,,,
61000,note_on,8,0,3,,,,,,,,0,,,43,72
61011,set_tempo,13,1,0,,,,,,682283,,,,,,
61020,set_tempo,9,1,0,,,,,,676590,,,,,,
61032,note_on,32,0,3,,,,,,,,0,,,43,0
61033,set_tempo,13,1,0,,,,,,670991,,,,,,
61040,note_on,8,0,3,,,,,,,,0,,,46,72
61041,set_tempo,8,1,0,,,,,,665484,,,,,,
61054,set_tempo,13,1,0,,,,,,660066,,,,,,
61063,set_tempo,9,1,0,,,,,,654736,,,,,,
61072,note_on,32,0,3,,,,,,,,0,,,46,0
61076,set_tempo,13,1,0,,,,,,649491,,,,,,
61080,note_on,8,0,3,,,,,,,,0,,,52,72
61085,set_tempo,9,1,0,,,,,,644330,,,,,,
61098,set_tempo,13,1,0,,,,,,639250,,,,,,
61107,set_tempo,9,1,0,,,,,,634249,,,,,,
61112,note_on,32,0,3,,,,,,,,0,,,52,0
61120,set_tempo,13,1,0,,,,,,629327,,,,,,
61120,note_on,8,0,3,,,,,,,,0,,,55,72
61129,set_tempo,9,1,0,,,,,,624480,,,,,,
61142,set_tempo,13,1,0,,,,,,619707,,,,,,
61150,set_tempo,8,1,0,,,,,,615006,,,,,,
61152,note_on,192,0,1,,,,,,,,0,,,82,0
61152,note_on,32,0,3,,,,,,,,0,,,55,0
61152,note_on,0,0,1,,,,,,,,0,,,94,0
61160,note_on,8,0,3,,,,,,,,0,,,58,72
61164,set_tempo,14,1,0,,,,,,610376,,,,,,
61172,set_tempo,8,1,0,,,,,,605816,,,,,,
61185,set_tempo,13,1,0,,,,,,601323,,,,,,
61192,note_on,32,0,3,,,,,,,,0,,,58,0
61194,set_tempo,9,1,0,,,,,,596896,,,,,,
61200,note_on,48,0,1,,,,,,,,0,,,82,72
61200,note_on,8,0,3,,,,,,,,0,,,64,72
61200,note_on,0,0,1,,,,,,,,0,,,94,72
61207,set_tempo,13,1,0,,,,,,601323,,,,,,
61216,set_tempo,9,1,0,,,,,,605816,,,,,,
61229,set_tempo,13,1,0,,,,,,610376,,,,,,
61232,note_on,32,0,3,,,,,,,,0,,,64,0
61238,set_tempo,9,1,0,,,,,,615006,,,,,,
61240,note_on,8,0,3,,,,,,,,0,,,58,72
61251,set_tempo,13,1,0,,,,,,619707,,,,,,
61260,set_tempo,9,1,0,,,,,,624480,,,,,,
61272,note_on,32,0,3,,,,,,,,0,,,58,0
61273,set_tempo,13,1,0,,,,,,629327,,,,,,
61280,note_on,8,0,3,,,,,,,,0,,,55,72
61281,set_tempo,8,1,0,,,,,,634249,,,,,,
61290,set_tempo,9,1,0,,,,,,639250,,,,,,
61303,set_tempo,13,1,0,,,,,,644330,,,,,,
61312,set_tempo,9,1,0,,,,,,649491,,,,,,
61312,note_on,32,0,3,,,,,,,,0,,,55,0
61320,note_on,8,0,3,,,,,,,,0,,,52,72
61325,set_tempo,13,1,0,,,,,,654736,,,,,,
61334,set_tempo,9,1,0,,,,,,660066,,,,,,
61344,note_on,0,0,1,,,,,,,,0,,,82,0
61344,note_on,144,0,1,,,,,,,,0,,,94,0
61347,set_tempo,13,1,0,,,,,,665484,,,,,,
61352,note_on,32,0,3,,,,,,,,0,,,52,0
61356,set_tempo,9,1,0,,,,,,670991,,,,,,
61360,note_on,8,0,3,,,,,,,,0,,,46,72
61364,set_tempo,8,1,0,,,,,,676590,,,,,,
61377,set_tempo,13,1,0,,,,,,682283,,,,,,
61380,note_on,36,0,1,,,,,,,,0,,,82,74
61380,note_on,0,0,1,,,,,,,,0,,,94,74
61386,set_tempo,9,1,0,,,,,,688073,,,,,,
61392,note_on,32,0,3,,,,,,,,0,,,46,0
61399,set_tempo,13,1,0,,,,,,693963,,,,,,
61400,note_on,8,0,3,,,,,,,,0,,,43,72
61408,set_tempo,9,1,0,,,,,,699953,,,,,,
61421,set_tempo,13,1,0,,,,,,706048,,,,,,
61428,note_on,0,0,1,,,,,,,,0,,,82,0
61428,note_on,48,0,1,,,,,,,,0,,,94,0
61430,set_tempo,9,1,0,,,,,,712251,,,,,,
61432,note_on,32,0,3,,,,,,,,0,,,43,0
61438,set_tempo,8,1,0,,,,,,718563,,,,,,
61440,control_change,445,0,4,,,,,,,,0,64,0,,
61440,note_on,8,0,3,,,,,,,,0,,,37,72
61440,note_on,0,0,1,,,,,,,,0,,,82,75
61440,note_on,12,0,1,,,,,,,,0,,,94,75
61451,control_change,11,0,4,,,,,,,,0,64,127,,
61452,set_tempo,14,1,0,,,,,,712251,,,,,,
61460,set_tempo,8,1,0,,,,,,706048,,,,,,
61469,set_tempo,9,1,0,,,,,,699953,,,,,,
61472,note_on,32,0,3,,,,,,,,0,,,37,0
61478,set_tempo,9,1,0,,,,,,693963,,,,,,
61480,note_on,8,0,3,,,,,,,,0,,,44,72
61491,set_tempo,13,1,0,,,,,,688073,,,,,,
61500,set_tempo,9,1,0,,,,,,682283,,,,,,
61508,set_tempo,8,1,0,,,,,,676590,,,,,,
61512,note_on,32,0,3,,,,,,,,0,,,44,0
61517,set_tempo,9,1,0,,,,,,670991,,,,,,
61520,note_on,8,0,3,,,,,,,,0,,,49,72
61526,set_tempo,9,1,0,,,,,,665484,,,,,,
61539,set_tempo,13,1,0,,,,,,660066,,,,,,
61548,set_tempo,9,1,0,,,,,,654736,,,,,,
61552,note_on,32,0,3,,,,,,,,0,,,49,0
61556,set_tempo,8,1,0,,,,,,649491,,,,,,
61560,note_on,8,0,3,,,,,,,,0,,,53,72
61565,set_tempo,9,1,0,,,,,,644330,,,,,,
61574,set_tempo,9,1,0,,,,,,639250,,,,,,
61587,set_tempo,13,1,0,,,,,,634249,,,,,,
61592,note_on,32,0,3,,,,,,,,0,,,53,0
61596,set_tempo,9,1,0,,,,,,629327,,,,,,
61600,note_on,8,0,3,,,,,,,,0,,,56,72
61604,set_tempo,8,1,0,,,,,,624480,,,,,,
61613,set_tempo,9,1,0,,,,,,619707,,,,,,
61622,set_tempo,9,1,0,,,,,,615006,,,,,,
61632,note_on,32,0,3,,,,,,,,0,,,56,0
61635,set_tempo,13,1,0,,,,,,610376,,,,,,
61640,note_on,8,0,3,,,,,,,,0,,,61,72
61644,set_tempo,9,1,0,,,,,,605816,,,,,,
61652,set_tempo,8,1,0,,,,,,601323,,,,,,
61661,set_tempo,9,1,0,,,,,,596896,,,,,,
61670,set_tempo,9,1,0,,,,,,592534,,,,,,
61672,note_on,32,0,3,,,,,,,,0,,,61,0
61680,note_on,8,0,3,,,,,,,,0,,,65,72
61712,note_on,32,0,3,,,,,,,,0,,,65,0
61720,note_on,8,0,3,,,,,,,,0,,,61,72
61744,note_on,304,0,1,,,,,,,,0,,,82,0
61744,note_on,0,0,1,,,,,,,,0,,,94,0
61752,note_on,32,0,3,,,,,,,,0,,,61,0
61760,note_on,8,0,3,,,,,,,,0,,,56,72
61760,note_on,0,0,1,,,,,,,,0,,,80,78
61760,note_on,16,0,1,,,,,,,,0,,,92,78
61792,note_on,32,0,3,,,,,,,,0,,,56,0
61800,note_on,8,0,3,,,,,,,,0,,,53,72
61824,note_on,64,0,1,,,,,,,,0,,,80,0
61824,note_on,0,0,1,,,,,,,,0,,,92,0
61832,note_on,32,0,3,,,,,,,,0,,,53,0
61840,note_on,16,0,1,,,,,,,,0,,,77,79
61840,note_on,0,0,1,,,,,,,,0,,,89,79
61840,note_on,8,0,3,,,,,,,,0,,,49,72
61872,note_on,32,0,3,,,,,,,,0,,,49,0
61880,note_on,8,0,3,,,,,,,,0,,,44,72
61904,note_on,64,0,1,,,,,,,,0,,,89,0
61904,note_on,0,0,1,,,,,,,,0,,,77,0
61912,note_on,32,0,3,,,,,,,,0,,,44,0
61920,control_change,469,0,4,,,,,,,,0,64,0,,
61920,note_on,16,0,1,,,,,,,,0,,,77,80
61920,note_on,8,0,3,,,,,,,,0,,,37,72
61920,note_on,0,0,1,,,,,,,,0,,,89,80
61931,control_change,11,0,4,,,,,,,,0,64,127,,
61952,note_on,32,0,3,,,,,,,,0,,,37,0
61960,note_on,8,0,3,,,,,,,,0,,,45,72
61992,note_on,32,0,3,,,,,,,,0,,,45,0
62000,note_on,8,0,3,,,,,,,,0,,,48,72
62032,note_on,32,0,3,,,,,,,,0,,,48,0
62040,note_on,8,0,3,,,,,,,,0,,,54,72
62072,note_on,32,0,3,,,,,,,,0,,,54,0
62080,note_on,8,0,3,,,,,,,,0,,,57,72
62112,note_on,32,0,3,,,,,,,,0,,,57,0
62120,note_on,8,0,3,,,,,,,,0,,,60,72
62152,note_on,32,0,3,,,,,,,,0,,,60,0
62160,note_on,8,0,3,,,,,,,,0,,,66,72
62192,note_on,32,0,3,,,,,,,,0,,,66,0
62200,note_on,8,0,3,,,,,,,,0,,,60,72
62208,note_on,288,0,1,,,,,,,,0,,,89,0
62208,note_on,0,0,1,,,,,,,,0,,,77,0
62220,note_on,12,0,1,,,,,,,,0,,,75,83
62220,note_on,0,0,1,,,,,,,,0,,,87,83
62232,note_on,32,0,3,,,,,,,,0,,,60,0
62240,note_on,8,0,3,,,,,,,,0,,,57,72
62268,note_on,0,0,1,,,,,,,,0,,,75,0
62268,note_on,48,0,1,,,,,,,,0,,,87,0
62272,note_on,32,0,3,,,,,,,,0,,,57,0
62280,note_on,12,0,1,,,,,,,,0,,,72,84
62280,note_on,8,0,3,,,,,,,,0,,,54,72
62280,note_on,0,0,1,,,,,,,,0,,,84,84
62312,note_on,32,0,3,,,,,,,,0,,,54,0
62320,note_on,8,0,3,,,,,,,,0,,,48,72
62328,note_on,0,0,1,,,,,,,,0,,,72,0
62328,note_on,48,0,1,,,,,,,,0,,,84,0
62340,note_on,12,0,1,,,,,,,,0,,,81,84
62340,note_on,0,0,1,,,,,,,,0,,,69,84
62352,note_on,32,0,3,,,,,,,,0,,,48,0
62360,note_on,8,0,3,,,,,,,,0,,,45,72
62388,note_on,48,0,1,,,,,,,,0,,,69,0
62388,note_on,0,0,1,,,,,,,,0,,,81,0
62392,note_on,32,0,3,,,,,,,,0,,,45,0
62400,note_on,12,0,1,,,,,,,,0,,,81,85
62400,note_on,8,0,3,,,,,,,,0,,,37,72
62400,note_on,0,0,1,,,,,,,,0,,,69,85
62411,control_change,480,0,4,,,,,,,,0,64,0,,
62422,control_change,11,0,4,,,,,,,,0,64,127,,
62432,note_on,32,0,3,,,,,,,,0,,,37,0
62440,note_on,8,0,3,,,,,,,,0,,,46,72
62472,note_on,32,0,3,,,,,,,,0,,,46,0
62480,note_on,8,0,3,,,,,,,,0,,,49,72
62512,note_on,32,0,3,,,,,,,,0,,,49,0
62520,note_on,8,0,3,,,,,,,,0,,,53,72
62552,note_on,32,0,3,,,,,,,,0,,,53,0
62560,note_on,8,0,3,,,,,,,,0,,,58,72
62592,note_on,32,0,3,,,,,,,,0,,,58,0
62600,note_on,8,0,3,,,,,,,,0,,,61,72
62632,note_on,32,0,3,,,,,,,,0,,,61,0
62640,note_on,8,0,3,,,,,,,,0,,,65,72
62672,note_on,32,0,3,,,,,,,,0,,,65,0
62680,note_on,8,0,3,,,,,,,,0,,,61,72
62688,note_on,0,0,1,,,,,,,,0,,,81,0
62688,note_on,288,0,1,,,,,,,,0,,,69,0
62700,note_on,0,0,1,,,,,,,,0,,,70,88
62700,note_on,12,0,1,,,,,,,,0,,,82,88
62712,note_on,32,0,3,,,,,,,,0,,,61,0
62720,note_on,8,0,3,,,,,,,,0,,,58,72
62748,note_on,0,0,1,,,,,,,,0,,,82,0
62748,note_on,48,0,1,,,,,,,,0,,,70,0
62752,note_on,32,0,3,,,,,,,,0,,,58,0
62760,note_on,8,0,3,,,,,,,,0,,,53,72
62760,note_on,12,0,1,,,,,,,,0,,,85,89
62760,note_on,0,0,1,,,,,,,,0,,,73,89
62792,note_on,32,0,3,,,,,,,,0,,,53,0
62800,note_on,8,0,3,,,,,,,,0,,,49,72
62808,note_on,48,0,1,,,,,,,,0,,,73,0
62808,note_on,0,0,1,,,,,,,,0,,,85,0
62820,note_on,12,0,1,,,,,,,,0,,,77,89
62820,note_on,0,0,1,,,,,,,,0,,,89,89
62832,note_on,32,0,3,,,,,,,,0,,,49,0
62840,note_on,8,0,3,,,,,,,,0,,,46,72
62868,note_on,48,0,1,,,,,,,,0,,,89,0
62868,note_on,0,0,1,,,,,,,,0,,,77,0
62872,note_on,32,0,3,,,,,,,,0,,,46,0
62880,note_on,8,0,3,,,,,,,,0,,,37,72
62880,note_on,12,0,1,,,,,,,,0,,,94,80
62880,note_on,0,0,1,,,,,,,,0,,,82,80
62894,control_change,472,0,4,,,,,,,,0,64,0,,
62905,control_change,11,0,4,,,,,,,,0,64,127,,
62912,note_on,32,0,3,,,,,,,,0,,,37,0
62920,note_on,8,0,3,,,,,,,,0,,,43,72
62952,note_on,32,0,3,,,,,,,,0,,,43,0
62960,note_on,8,0,3,,,,,,,,0,,,46,72
62992,note_on,32,0,3,,,,,,,,0,,,46,0
63000,note_on,8,0,3,,,,,,,,0,,,53,72
63032,note_on,32,0,3,,,,,,,,0,,,53,0
63040,note_on,8,0,3,,,,,,,,0,,,55,72
63072,note_on,32,0,3,,,,,,,,0,,,55,0
63072,note_on,192,0,1,,,,,,,,0,,,82,0
63072,note_on,0,0,1,,,,,,,,0,,,94,0
63080,note_on,8,0,3,,,,,,,,0,,,58,72
63112,note_on,32,0,3,,,,,,,,0,,,58,0
63120,note_on,48,0,1,,,,,,,,0,,,94,80
63120,note_on,8,0,3,,,,,,,,0,,,65,72
63120,note_on,0,0,1,,,,,,,,0,,,82,80
63152,note_on,32,0,3,,,,,,,,0,,,65,0
63160,note_on,8,0,3,,,,,,,,0,,,58,72
63192,note_on,32,0,3,,,,,,,,0,,,58,0
63200,note_on,8,0,3,,,,,,,,0,,,55,72
63232,note_on,32,0,3,,,,,,,,0,,,55,0
63240,note_on,8,0,3,,,,,,,,0,,,53,72
63264,note_on,144,0,1,,,,,,,,0,,,82,0
63264,note_on,0,0,1,,,,,,,,0,,,94,0
63272,note_on,32,0,3,,,,,,,,0,,,53,0
63280,note_on,8,0,3,,,,,,,,0,,,46,72
63300,note_on,0,0,1,,,,,,,,0,,,82,80
63300,note_on,36,0,1,,,,,,,,0,,,94,80
63312,note_on,32,0,3,,,,,,,,0,,,46,0
63320,note_on,8,0,3,,,,,,,,0,,,43,72
63348,note_on,48,0,1,,,,,,,,0,,,82,0
63348,note_on,0,0,1,,,,,,,,0,,,94,0
63352,note_on,32,0,3,,,,,,,,0,,,43,0
63360,note_on,8,0,3,,,,,,,,0,,,36,80
63360,note_on,12,0,1,,,,,,,,0,,,82,90
63360,note_on,0,0,1,,,,,,,,0,,,94,90
63367,control_change,462,0,4,,,,,,,,0,64,0,,
63378,control_change,11,0,4,,,,,,,,0,64,127,,
63392,note_on,32,0,3,,,,,,,,0,,,36,0
63400,note_on,8,0,3,,,,,,,,0,,,43,80
63432,note_on,32,0,3,,,,,,,,0,,,43,0
63440,note_on,8,0,3,,,,,,,,0,,,46,80
63472,note_on,32,0,3,,,,,,,,0,,,46,0
63480,note_on,8,0,3,,,,,,,,0,,,52,80
63512,note_on,32,0,3,,,,,,,,0,,,52,0
63520,note_on,8,0,3,,,,,,,,0,,,55,80
63552,note_on,32,0,3,,,,,,,,0,,,55,0
63560,note_on,8,0,3,,,,,,,,0,,,58,80
63592,note_on,32,0,3,,,,,,,,0,,,58,0
63600,note_on,8,0,3,,,,,,,,0,,,64,80
63632,note_on,32,0,3,,,,,,,,0,,,64,0
63640,note_on,8,0,3,,,,,,,,0,,,58,80
63648,note_on,288,0,1,,,,,,,,0,,,94,0
63648,note_on,0,0,1,,,,,,,,0,,,82,0
63660,note_on,12,0,1,,,,,,,,0,,,91,92
63660,note_on,0,0,1,,,,,,,,0,,,79,92
63672,note_on,32,0,3,,,,,,,,0,,,58,0
63680,note_on,8,0,3,,,,,,,,0,,,55,80
63708,note_on,48,0,1,,,,,,,,0,,,79,0
63708,note_on,0,0,1,,,,,,,,0,,,91,0
63712,note_on,32,0,3,,,,,,,,0,,,55,0
63720,note_on,12,0,1,,,,,,,,0,,,88,93
63720,note_on,8,0,3,,,,,,,,0,,,52,80
63720,note_on,0,0,1,,,,,,,,0,,,76,93
63752,note_on,32,0,3,,,,,,,,0,,,52,0
63760,note_on,8,0,3,,,,,,,,0,,,46,80
63768,note_on,48,0,1,,,,,,,,0,,,76,0
63768,note_on,0,0,1,,,,,,,,0,,,88,0
63780,note_on,12,0,1,,,,,,,,0,,,85,93
63780,note_on,0,0,1,,,,,,,,0,,,73,93
63792,note_on,32,0,3,,,,,,,,0,,,46,0
63800,note_on,8,0,3,,,,,,,,0,,,43,80
63828,note_on,0,0,1,,,,,,,,0,,,85,0
63828,note_on,48,0,1,,,,,,,,0,,,73,0
63832,note_on,32,0,3,,,,,,,,0,,,43,0
63840,note_on,8,0,3,,,,,,,,0,,,34,80
63840,note_on,12,0,1,,,,,,,,0,,,97,93
63840,note_on,0,0,1,,,,,,,,0,,,85,93
63851,control_change,473,0,4,,,,,,,,0,64,0,,
63862,control_change,11,0,4,,,,,,,,0,64,127,,
63872,note_on,32,0,3,,,,,,,,0,,,34,0
63880,note_on,8,0,3,,,,,,,,0,,,41,80
63912,note_on,32,0,3,,,,,,,,0,,,41,0
63920,note_on,8,0,3,,,,,,,,0,,,43,80
63952,note_on,32,0,3,,,,,,,,0,,,43,0
63960,note_on,8,0,3,,,,,,,,0,,,49,80
63992,note_on,32,0,3,,,,,,,,0,,,49,0
64000,note_on,8,0,3,,,,,,,,0,,,53,80
64032,note_on,32,0,3,,,,,,,,0,,,53,0
64032,note_on,0,0,1,,,,,,,,0,,,97,0
64032,note_on,192,0,1,,,,,,,,0,,,85,0
64040,note_on,8,0,3,,,,,,,,0,,,55,80
64072,note_on,32,0,3,,,,,,,,0,,,55,0
64080,note_on,0,0,1,,,,,,,,0,,,85,95
64080,note_on,8,0,3,,,,,,,,0,,,61,80
64080,note_on,48,0,1,,,,,,,,0,,,97,95
64112,note_on,32,0,3,,,,,,,,0,,,61,0
64120,note_on,8,0,3,,,,,,,,0,,,55,80
64152,note_on,32,0,3,,,,,,,,0,,,55,0
64160,note_on,8,0,3,,,,,,,,0,,,53,80
64192,note_on,32,0,3,,,,,,,,0,,,53,0
64200,note_on,8,0,3,,,,,,,,0,,,49,80
64224,note_on,144,0,1,,,,,,,,0,,,85,0
64224,note_on,0,0,1,,,,,,,,0,,,97,0
64232,note_on,32,0,3,,,,,,,,0,,,49,0
64240,note_on,8,0,3,,,,,,,,0,,,43,80
64260,note_on,36,0,1,,,,,,,,0,,,85,96
64260,note_on,0,0,1,,,,,,,,0,,,97,96
64272,note_on,32,0,3,,,,,,,,0,,,43,0
64280,note_on,8,0,3,,,,,,,,0,,,41,80
64308,note_on,48,0,1,,,,,,,,0,,,97,0
64308,note_on,0,0,1,,,,,,,,0,,,85,0
64312,note_on,32,0,3,,,,,,,,0,,,41,0
64320,note_on,0,0,1,,,,,,,,0,,,85,97
64320,note_on,12,0,1,,,,,,,,0,,,97,97
64320,note_on,8,0,3,,,,,,,,0,,,36,80
64324,control_change,462,0,4,,,,,,,,0,64,0,,
64335,control_change,11,0,4,,,,,,,,0,64,127,,
64352,note_on,32,0,3,,,,,,,,0,,,36,0
64360,note_on,8,0,3,,,,,,,,0,,,43,80
64392,note_on,32,0,3,,,,,,,,0,,,43,0
64400,note_on,8,0,3,,,,,,,,0,,,46,80
64432,note_on,32,0,3,,,,,,,,0,,,46,0
64440,note_on,8,0,3,,,,,,,,0,,,52,80
64472,note_on,32,0,3,,,,,,,,0,,,52,0
64480,note_on,8,0,3,,,,,,,,0,,,55,80
64512,note_on,32,0,3,,,,,,,,0,,,55,0
64520,note_on,8,0,3,,,,,,,,0,,,58,80
64552,note_on,32,0,3,,,,,,,,0,,,58,0
64560,note_on,8,0,3,,,,,,,,0,,,61,80
64592,note_on,32,0,3,,,,,,,,0,,,61,0
64600,note_on,8,0,3,,,,,,,,0,,,58,80
64605,note_on,0,0,1,,,,,,,,0,,,97,0
64605,note_on,285,0,1,,,,,,,,0,,,85,0
64608,note_on,3,0,1,,,,,,,,0,,,94,99
64608,note_on,0,0,1,,,,,,,,0,,,82,99
64632,note_on,32,0,3,,,,,,,,0,,,58,0
64640,note_on,8,0,3,,,,,,,,0,,,55,80
64653,note_on,45,0,1,,,,,,,,0,,,82,0
64653,note_on,0,0,1,,,,,,,,0,,,94,0
64656,note_on,3,0,1,,,,,,,,0,,,91,99
64656,note_on,0,0,1,,,,,,,,0,,,79,99
64672,note_on,32,0,3,,,,,,,,0,,,55,0
64680,note_on,8,0,3,,,,,,,,0,,,52,80
64701,note_on,45,0,1,,,,,,,,0,,,79,0
64701,note_on,0,0,1,,,,,,,,0,,,91,0
64704,note_on,0,0,1,,,,,,,,0,,,76,99
64704,note_on,3,0,1,,,,,,,,0,,,88,99
64712,note_on,32,0,3,,,,,,,,0,,,52,0
64720,note_on,8,0,3,,,,,,,,0,,,46,80
64749,note_on,45,0,1,,,,,,,,0,,,76,0
64749,note_on,0,0,1,,,,,,,,0,,,88,0
64752,note_on,3,0,1,,,,,,,,0,,,85,100
64752,note_on,32,0,3,,,,,,,,0,,,46,0
64752,note_on,0,0,1,,,,,,,,0,,,73,100
64760,note_on,8,0,3,,,,,,,,0,,,43,80
64784,note_on,0,0,1,,,,,,,,0,,,85,0
64784,note_on,32,0,1,,,,,,,,0,,,73,0
64792,note_on,32,0,3,,,,,,,,0,,,43,0
64800,note_on,16,0,1,,,,,,,,0,,,94,80
64800,note_on,0,0,1,,,,,,,,0,,,82,80
64800,note_on,8,0,3,,,,,,,,0,,,37,80
64814,control_change,479,0,4,,,,,,,,0,64,0,,
64825,control_change,11,0,4,,,,,,,,0,64,127,,
64832,note_on,32,0,3,,,,,,,,0,,,37,0
64840,note_on,8,0,3,,,,,,,,0,,,46,80
64872,note_on,32,0,3,,,,,,,,0,,,46,0
64880,note_on,8,0,3,,,,,,,,0,,,49,80
64912,note_on,32,0,3,,,,,,,,0,,,49,0
64920,note_on,8,0,3,,,,,,,,0,,,54,80
64952,note_on,32,0,3,,,,,,,,0,,,54,0
64960,note_on,8,0,3,,,,,,,,0,,,58,80
64992,note_on,0,0,1,,,,,,,,0,,,94,0
64992,note_on,32,0,3,,,,,,,,0,,,58,0
64992,note_on,192,0,1,,,,,,,,0,,,82,0
65000,note_on,8,0,3,,,,,,,,0,,,61,80
65032,note_on,32,0,3,,,,,,,,0,,,61,0
65040,note_on,48,0,1,,,,,,,,0,,,94,80
65040,note_on,0,0,1,,,,,,,,0,,,82,80
65040,note_on,8,0,3,,,,,,,,0,,,66,80
65072,note_on,32,0,3,,,,,,,,0,,,66,0
65080,note_on,8,0,3,,,,,,,,0,,,61,80
65112,note_on,32,0,3,,,,,,,,0,,,61,0
65120,note_on,8,0,3,,,,,,,,0,,,58,80
65152,note_on,32,0,3,,,,,,,,0,,,58,0
65160,note_on,8,0,3,,,,,,,,0,,,54,80
65184,note_on,144,0,1,,,,,,,,0,,,82,0
65184,note_on,0,0,1,,,,,,,,0,,,94,0
65192,note_on,32,0,3,,,,,,,,0,,,54,0
65200,note_on,8,0,3,,,,,,,,0,,,49,80
65220,note_on,36,0,1,,,,,,,,0,,,82,80
65220,note_on,0,0,1,,,,,,,,0,,,94,80
65232,note_on,32,0,3,,,,,,,,0,,,49,0
65240,note_on,8,0,3,,,,,,,,0,,,46,80
65268,note_on,48,0,1,,,,,,,,0,,,94,0
65268,note_on,0,0,1,,,,,,,,0,,,82,0
65272,note_on,32,0,3,,,,,,,,0,,,46,0
65280,note_on,8,0,3,,,,,,,,0,,,36,80
65280,control_change,455,0,4,,,,,,,,0,64,0,,
65280,note_on,12,0,1,,,,,,,,0,,,94,80
65280,note_on,0,0,1,,,,,,,,0,,,82,80
65291,control_change,11,0,4,,,,,,,,0,64,127,,
65312,note_on,32,0,3,,,,,,,,0,,,36,0
65320,note_on,8,0,3,,,,,,,,0,,,43,80
65352,note_on,32,0,3,,,,,,,,0,,,43,0
65360,note_on,8,0,3,,,,,,,,0,,,46,80
65392,note_on,32,0,3,,,,,,,,0,,,46,0
65400,note_on,8,0,3,,,,,,,,0,,,52,80
65432,note_on,32,0,3,,,,,,,,0,,,52,0
65440,note_on,8,0,3,,,,,,,,0,,,55,80
65472,note_on,32,0,3,,,,,,,,0,,,55,0
65480,note_on,8,0,3,,,,,,,,0,,,58,80
65512,note_on,32,0,3,,,,,,,,0,,,58,0
65520,note_on,8,0,3,,,,,,,,0,,,64,80
65552,note_on,32,0,3,,,,,,,,0,,,64,0
65560,note_on,8,0,3,,,,,,,,0,,,58,80
65565,note_on,0,0,1,,,,,,,,0,,,94,0
65565,note_on,285,0,1,,,,,,,,0,,,82,0
65568,note_on,3,0,1,,,,,,,,0,,,91,80
65568,note_on,0,0,1,,,,,,,,0,,,79,80
65592,note_on,32,0,3,,,,,,,,0,,,58,0
65600,note_on,8,0,3,,,,,,,,0,,,55,80
65613,note_on,0,0,1,,,,,,,,0,,,91,0
65613,note_on,45,0,1,,,,,,,,0,,,79,0
65616,note_on,0,0,1,,,,,,,,0,,,76,80
65616,note_on,3,0,1,,,,,,,,0,,,88,80
65632,note_on,32,0,3,,,,,,,,0,,,55,0
65640,note_on,8,0,3,,,,,,,,0,,,52,80
65661,note_on,45,0,1,,,,,,,,0,,,76,0
65661,note_on,0,0,1,,,,,,,,0,,,88,0
65664,note_on,3,0,1,,,,,,,,0,,,85,80
65664,note_on,0,0,1,,,,,,,,0,,,73,80
65672,note_on,32,0,3,,,,,,,,0,,,52,0
65680,note_on,8,0,3,,,,,,,,0,,,46,80
65709,note_on,45,0,1,,,,,,,,0,,,73,0
65709,note_on,0,0,1,,,,,,,,0,,,85,0
65712,note_on,0,0,1,,,,,,,,0,,,82,80
65712,note_on,3,0,1,,,,,,,,0,,,70,80
65712,note_on,32,0,3,,,,,,,,0,,,46,0
65720,note_on,8,0,3,,,,,,,,0,,,43,80
65744,note_on,32,0,1,,,,,,,,0,,,82,0
65744,note_on,0,0,1,,,,,,,,0,,,70,0
65752,note_on,32,0,3,,,,,,,,0,,,43,0
65760,note_on,8,0,3,,,,,,,,0,,,34,80
65760,note_on,16,0,1,,,,,,,,0,,,97,80
65760,control_change,469,0,4,,,,,,,,0,64,0,,
65760,note_on,0,0,1,,,,,,,,0,,,85,80
65771,control_change,11,0,4,,,,,,,,0,64,127,,
65792,note_on,32,0,3,,,,,,,,0,,,34,0
65800,note_on,8,0,3,,,,,,,,0,,,42,80
65832,note_on,32,0,3,,,,,,,,0,,,42,0
65840,note_on,8,0,3,,,,,,,,0,,,46,80
65872,note_on,32,0,3,,,,,,,,0,,,46,0
65880,note_on,8,0,3,,,,,,,,0,,,49,80
65912,note_on,32,0,3,,,,,,,,0,,,49,0
65920,note_on,8,0,3,,,,,,,,0,,,54,80
65952,note_on,32,0,3,,,,,,,,0,,,54,0
65952,note_on,0,0,1,,,,,,,,0,,,97,0
65952,note_on,192,0,1,,,,,,,,0,,,85,0
65960,note_on,8,0,3,,,,,,,,0,,,58,80
65967,set_tempo,4297,1,0,,,,,,634249,,,,,,
65992,note_on,32,0,3,,,,,,,,0,,,58,0
66000,note_on,8,0,3,,,,,,,,0,,,61,80
66000,note_on,48,0,1,,,,,,,,0,,,97,80
66000,note_on,0,0,1,,,,,,,,0,,,85,80
66023,set_tempo,56,1,0,,,,,,629327,,,,,,
66032,note_on,32,0,3,,,,,,,,0,,,61,0
66040,note_on,8,0,3,,,,,,,,0,,,58,80
66072,note_on,32,0,3,,,,,,,,0,,,58,0
66076,set_tempo,53,1,0,,,,,,624480,,,,,,
66080,note_on,8,0,3,,,,,,,,0,,,54,80
66112,note_on,32,0,3,,,,,,,,0,,,54,0
66120,note_on,8,0,3,,,,,,,,0,,,49,80
66128,set_tempo,52,1,0,,,,,,619707,,,,,,
66144,note_on,144,0,1,,,,,,,,0,,,85,0
66144,note_on,0,0,1,,,,,,,,0,,,97,0
66152,note_on,32,0,3,,,,,,,,0,,,49,0
66160,note_on,8,0,3,,,,,,,,0,,,46,80
66180,set_tempo,52,1,0,,,,,,615006,,,,,,
66180,note_on,0,0,1,,,,,,,,0,,,85,80
66180,note_on,36,0,1,,,,,,,,0,,,97,80
66192,note_on,32,0,3,,,,,,,,0,,,46,0
66200,note_on,8,0,3,,,,,,,,0,,,42,80
66228,note_on,48,0,1,,,,,,,,0,,,85,0
66228,note_on,0,0,1,,,,,,,,0,,,97,0
66232,note_on,32,0,3,,,,,,,,0,,,42,0
66233,set_tempo,53,1,0,,,,,,610376,,,,,,
66240,note_on,8,0,3,,,,,,,,0,,,33,80
66240,control_change,469,0,4,,,,,,,,0,64,0,,
66240,note_on,0,0,1,,,,,,,,0,,,85,100
66240,note_on,12,0,1,,,,,,,,0,,,97,100
66251,control_change,11,0,4,,,,,,,,0,64,127,,
66272,note_on,32,0,3,,,,,,,,0,,,33,0
66280,note_on,8,0,3,,,,,,,,0,,,45,80
66285,set_tempo,52,1,0,,,,,,605816,,,,,,
66312,note_on,32,0,3,,,,,,,,0,,,45,0
66320,note_on,8,0,3,,,,,,,,0,,,49,80
66336,note_on,96,0,1,,,,,,,,0,,,85,0
66336,note_on,0,0,1,,,,,,,,0,,,97,0
66337,set_tempo,52,1,0,,,,,,601323,,,,,,
66352,note_on,32,0,3,,,,,,,,0,,,49,0
66360,note_on,8,0,3,,,,,,,,0,,,52,80
66360,note_on,24,0,1,,,,,,,,0,,,85,102
66360,note_on,0,0,1,,,,,,,,0,,,97,102
66390,set_tempo,53,1,0,,,,,,596896,,,,,,
66392,note_on,32,0,3,,,,,,,,0,,,52,0
66400,note_on,8,0,3,,,,,,,,0,,,55,80
66432,note_on,32,0,3,,,,,,,,0,,,55,0
66440,note_on,8,0,3,,,,,,,,0,,,61,80
66442,set_tempo,52,1,0,,,,,,592534,,,,,,
66472,note_on,32,0,3,,,,,,,,0,,,61,0
66480,note_on,8,0,3,,,,,,,,0,,,32,80
66495,set_tempo,53,1,0,,,,,,588235,,,,,,
66512,note_on,32,0,3,,,,,,,,0,,,32,0
66520,note_on,8,0,3,,,,,,,,0,,,44,80
66547,set_tempo,52,1,0,,,,,,583998,,,,,,
66552,note_on,192,0,1,,,,,,,,0,,,97,0
66552,note_on,0,0,1,,,,,,,,0,,,85,0
66552,note_on,32,0,3,,,,,,,,0,,,44,0
66560,note_on,8,0,3,,,,,,,,0,,,49,80
66592,note_on,32,0,3,,,,,,,,0,,,49,0
66600,note_on,0,0,1,,,,,,,,0,,,85,107
66600,note_on,48,0,1,,,,,,,,0,,,97,107
66600,note_on,8,0,3,,,,,,,,0,,,52,80
66604,set_tempo,57,1,0,,,,,,579822,,,,,,
66632,note_on,32,0,3,,,,,,,,0,,,52,0
66640,note_on,8,0,3,,,,,,,,0,,,56,80
66656,set_tempo,52,1,0,,,,,,575705,,,,,,
66672,note_on,32,0,3,,,,,,,,0,,,56,0
66680,note_on,8,0,3,,,,,,,,0,,,61,80
66704,set_tempo,48,1,0,,,,,,571646,,,,,,
66708,set_tempo,4,1,0,,,,,,567644,,,,,,
66712,note_on,32,0,3,,,,,,,,0,,,61,0
66720,note_on,8,0,3,,,,,,,,0,,,31,80
66720,control_change,469,0,4,,,,,,,,0,64,0,,
66731,control_change,11,0,4,,,,,,,,0,64,127,,
66752,note_on,32,0,3,,,,,,,,0,,,31,0
66760,note_on,8,0,3,,,,,,,,0,,,43,80
66792,note_on,32,0,3,,,,,,,,0,,,43,0
66800,note_on,8,0,3,,,,,,,,0,,,49,80
66816,note_on,0,0,1,,,,,,,,0,,,97,0
66816,note_on,216,0,1,,,,,,,,0,,,85,0
66832,note_on,32,0,3,,,,,,,,0,,,49,0
66840,note_on,8,0,3,,,,,,,,0,,,52,80
66840,note_on,24,0,1,,,,,,,,0,,,97,111
66840,note_on,0,0,1,,,,,,,,0,,,85,111
66872,note_on,32,0,3,,,,,,,,0,,,52,0
66880,note_on,8,0,3,,,,,,,,0,,,57,80
66912,note_on,32,0,3,,,,,,,,0,,,57,0
66920,note_on,8,0,3,,,,,,,,0,,,61,80
66936,note_on,0,0,1,,,,,,,,0,,,97,0
66936,note_on,96,0,1,,,,,,,,0,,,85,0
66952,note_on,32,0,3,,,,,,,,0,,,61,0
66960,note_on,0,0,1,,,,,,,,0,,,85,114
66960,note_on,8,0,3,,,,,,,,0,,,30,80
66960,note_on,24,0,1,,,,,,,,0,,,97,114
66992,note_on,32,0,3,,,,,,,,0,,,30,0
67000,note_on,8,0,3,,,,,,,,0,,,42,80
67032,note_on,32,0,3,,,,,,,,0,,,42,0
67040,note_on,8,0,3,,,,,,,,0,,,49,80
67072,note_on,32,0,3,,,,,,,,0,,,49,0
67080,note_on,8,0,3,,,,,,,,0,,,52,80
67104,note_on,144,0,1,,,,,,,,0,,,85,0
67104,note_on,0,0,1,,,,,,,,0,,,97,0
67112,note_on,32,0,3,,,,,,,,0,,,52,0
67120,note_on,8,0,3,,,,,,,,0,,,58,80
67140,note_on,0,0,1,,,,,,,,0,,,97,117
67140,note_on,36,0,1,,,,,,,,0,,,85,117
67152,note_on,32,0,3,,,,,,,,0,,,58,0
67160,note_on,8,0,3,,,,,,,,0,,,61,80
67188,note_on,48,0,1,,,,,,,,0,,,97,0
67188,note_on,0,0,1,,,,,,,,0,,,85,0
67192,note_on,32,0,3,,,,,,,,0,,,61,0
67200,note_on,12,0,1,,,,,,,,0,,,85,118
67200,note_on,0,0,1,,,,,,,,0,,,97,118
67200,note_on,469,0,4,,,,,,,,0,,,29,80
67204,control_change,4,0,4,,,,,,,,0,64,0,,
67215,control_change,11,0,4,,,,,,,,0,64,127,,
67240,note_on,48,0,3,,,,,,,,0,,,41,80
67264,note_on,64,0,1,,,,,,,,0,,,97,0
67264,note_on,0,0,1,,,,,,,,0,,,85,0
67272,note_on,32,0,3,,,,,,,,0,,,41,0
67280,note_on,16,0,1,,,,,,,,0,,,85,120
67280,note_on,8,0,3,,,,,,,,0,,,49,80
67280,note_on,0,0,1,,,,,,,,0,,,97,120
67296,note_on,81,0,4,,,,,,,,0,,,29,0
67312,note_on,32,0,3,,,,,,,,0,,,49,0
67320,note_on,8,0,3,,,,,,,,0,,,53,80
67344,note_on,0,0,1,,,,,,,,0,,,85,0
67344,note_on,64,0,1,,,,,,,,0,,,97,0
67352,note_on,32,0,3,,,,,,,,0,,,53,0
67360,note_on,16,0,1,,,,,,,,0,,,97,121
67360,note_on,0,0,1,,,,,,,,0,,,85,121
67360,note_on,8,0,3,,,,,,,,0,,,58,80
67392,note_on,32,0,3,,,,,,,,0,,,58,0
67400,note_on,8,0,3,,,,,,,,0,,,61,80
67424,note_on,64,0,1,,,,,,,,0,,,85,0
67424,note_on,0,0,1,,,,,,,,0,,,97,0
67432,note_on,32,0,3,,,,,,,,0,,,61,0
67440,note_on,0,0,4,,,,,,,,0,,,28,80
67440,control_change,144,0,4,,,,,,,,0,64,0,,
67440,note_on,16,0,1,,,,,,,,0,,,97,123
67440,note_on,0,0,1,,,,,,,,0,,,85,123
67451,control_change,11,0,4,,,,,,,,0,64,127,,
67480,note_on,48,0,3,,,,,,,,0,,,40,80
67504,note_on,64,0,1,,,,,,,,0,,,85,0
67504,note_on,0,0,1,,,,,,,,0,,,97,0
67512,note_on,32,0,3,,,,,,,,0,,,40,0
67520,note_on,16,0,1,,,,,,,,0,,,97,124
67520,note_on,0,0,1,,,,,,,,0,,,85,124
67520,note_on,8,0,3,,,,,,,,0,,,49,80
67536,note_on,85,0,4,,,,,,,,0,,,28,0
67552,note_on,32,0,3,,,,,,,,0,,,49,0
67560,note_on,8,0,3,,,,,,,,0,,,55,80
67584,note_on,64,0,1,,,,,,,,0,,,85,0
67584,note_on,0,0,1,,,,,,,,0,,,97,0
67592,note_on,32,0,3,,,,,,,,0,,,55,0
67600,note_on,0,0,1,,,,,,,,0,,,97,126
67600,note_on,8,0,3,,,,,,,,0,,,58,80
67600,note_on,16,0,1,,,,,,,,0,,,85,126
67632,note_on,32,0,3,,,,,,,,0,,,58,0
67640,note_on,8,0,3,,,,,,,,0,,,61,80
67664,note_on,0,0,1,,,,,,,,0,,,85,0
67664,note_on,64,0,1,,,,,,,,0,,,97,0
67672,note_on,32,0,3,,,,,,,,0,,,61,0
67680,note_on,0,0,4,,,,,,,,0,,,29,97
67680,control_change,144,0,4,,,,,,,,0,64,0,,
67680,note_on,16,0,1,,,,,,,,0,,,97,105
67680,note_on,0,0,1,,,,,,,,0,,,85,105
67691,control_change,11,0,4,,,,,,,,0,64,127,,
67720,note_on,48,0,3,,,,,,,,0,,,41,80
67740,note_on,49,0,4,,,,,,,,0,,,29,0
67752,note_on,32,0,3,,,,,,,,0,,,41,0
67760,note_on,8,0,3,,,,,,,,0,,,48,80
67776,note_on,96,0,1,,,,,,,,0,,,85,0
67776,note_on,0,0,1,,,,,,,,0,,,97,0
67792,note_on,32,0,3,,,,,,,,0,,,48,0
67800,note_on,8,0,3,,,,,,,,0,,,53,80
67800,note_on,24,0,1,,,,,,,,0,,,84,103
67800,note_on,0,0,1,,,,,,,,0,,,96,103
67832,note_on,32,0,3,,,,,,,,0,,,53,0
67840,note_on,8,0,3,,,,,,,,0,,,56,80
67872,note_on,32,0,3,,,,,,,,0,,,56,0
67880,note_on,8,0,3,,,,,,,,0,,,60,80
67896,note_on,0,0,1,,,,,,,,0,,,84,0
67896,note_on,96,0,1,,,,,,,,0,,,96,0
67912,note_on,32,0,3,,,,,,,,0,,,60,0
67916,control_change,176,0,4,,,,,,,,0,64,0,,
67920,note_on,0,0,1,,,,,,,,0,,,82,101
67920,note_on,24,0,1,,,,,,,,0,,,94,101
67920,note_on,4,0,4,,,,,,,,0,,,32,97
67927,control_change,7,0,4,,,,,,,,0,64,127,,
67960,note_on,48,0,3,,,,,,,,0,,,44,80
67980,note_on,53,0,4,,,,,,,,0,,,32,0
67992,note_on,32,0,3,,,,,,,,0,,,44,0
68000,note_on,8,0,3,,,,,,,,0,,,48,80
68016,note_on,96,0,1,,,,,,,,0,,,82,0
68016,note_on,0,0,1,,,,,,,,0,,,94,0
68032,note_on,32,0,3,,,,,,,,0,,,48,0
68040,note_on,0,0,1,,,,,,,,0,,,92,99
68040,note_on,8,0,3,,,,,,,,0,,,53,80
68040,note_on,24,0,1,,,,,,,,0,,,80,99
68072,note_on,32,0,3,,,,,,,,0,,,53,0
68080,note_on,8,0,3,,,,,,,,0,,,56,80
68112,note_on,32,0,3,,,,,,,,0,,,56,0
68120,note_on,8,0,3,,,,,,,,0,,,60,80
68136,note_on,96,0,1,,,,,,,,0,,,92,0
68136,note_on,0,0,1,,,,,,,,0,,,80,0
68152,note_on,32,0,3,,,,,,,,0,,,60,0
68160,note_on,0,0,1,,,,,,,,0,,,79,97
68160,note_on,24,0,1,,,,,,,,0,,,91,97
68160,note_on,0,0,4,,,,,,,,0,,,34,88
68160,control_change,180,0,4,,,,,,,,0,64,0,,
68171,control_change,11,0,4,,,,,,,,0,64,127,,
68188,set_tempo,1480,1,0,,,,,,575705,,,,,,
68200,note_on,48,0,3,,,,,,,,0,,,46,80
68210,set_tempo,22,1,0,,,,,,579822,,,,,,
68232,note_on,32,0,3,,,,,,,,0,,,46,0
68236,set_tempo,26,1,0,,,,,,583998,,,,,,
68240,note_on,8,0,3,,,,,,,,0,,,49,80
68256,note_on,85,0,4,,,,,,,,0,,,34,0
68256,note_on,96,0,1,,,,,,,,0,,,79,0
68256,note_on,0,0,1,,,,,,,,0,,,91,0
68262,set_tempo,26,1,0,,,,,,588235,,,,,,
68272,note_on,32,0,3,,,,,,,,0,,,49,0
68280,note_on,8,0,3,,,,,,,,0,,,53,80
68280,note_on,24,0,1,,,,,,,,0,,,77,95
68280,note_on,0,0,1,,,,,,,,0,,,89,95
68284,set_tempo,22,1,0,,,,,,592534,,,,,,
68310,set_tempo,26,1,0,,,,,,596896,,,,,,
68312,note_on,32,0,3,,,,,,,,0,,,53,0
68320,note_on,8,0,3,,,,,,,,0,,,55,80
68337,set_tempo,27,1,0,,,,,,601323,,,,,,
68352,note_on,32,0,3,,,,,,,,0,,,55,0
68358,set_tempo,21,1,0,,,,,,605816,,,,,,
68360,note_on,8,0,3,,,,,,,,0,,,61,80
68376,note_on,0,0,1,,,,,,,,0,,,77,0
68376,note_on,96,0,1,,,,,,,,0,,,89,0
68385,set_tempo,27,1,0,,,,,,610376,,,,,,
68392,note_on,32,0,3,,,,,,,,0,,,61,0
68400,note_on,24,0,1,,,,,,,,0,,,87,94
68400,note_on,144,0,4,,,,,,,,0,,,37,88
68400,note_on,0,0,1,,,,,,,,0,,,75,94
68404,control_change,4,0,4,,,,,,,,0,64,0,,
68406,set_tempo,21,1,0,,,,,,615006,,,,,,
68415,control_change,11,0,4,,,,,,,,0,64,127,,
68424,set_tempo,18,1,0,,,,,,610376,,,,,,
68440,note_on,48,0,3,,,,,,,,0,,,49,80
68441,set_tempo,17,1,0,,,,,,605816,,,,,,
68459,set_tempo,18,1,0,,,,,,601323,,,,,,
68472,note_on,32,0,3,,,,,,,,0,,,49,0
68476,set_tempo,17,1,0,,,,,,596896,,,,,,
68480,note_on,8,0,3,,,,,,,,0,,,53,80
68494,set_tempo,18,1,0,,,,,,592534,,,,,,
68496,note_on,96,0,1,,,,,,,,0,,,75,0
68496,note_on,81,0,4,,,,,,,,0,,,37,0
68496,note_on,0,0,1,,,,,,,,0,,,87,0
68511,set_tempo,17,1,0,,,,,,588235,,,,,,
68512,note_on,32,0,3,,,,,,,,0,,,53,0
68520,note_on,24,0,1,,,,,,,,0,,,73,92
68520,note_on,0,0,1,,,,,,,,0,,,85,92
68520,note_on,8,0,3,,,,,,,,0,,,55,80
68529,set_tempo,18,1,0,,,,,,583998,,,,,,
68546,set_tempo,17,1,0,,,,,,579822,,,,,,
68552,note_on,32,0,3,,,,,,,,0,,,55,0
68560,note_on,8,0,3,,,,,,,,0,,,58,80
68564,set_tempo,18,1,0,,,,,,575705,,,,,,
68581,set_tempo,17,1,0,,,,,,571646,,,,,,
68592,note_on,32,0,3,,,,,,,,0,,,58,0
68598,set_tempo,17,1,0,,,,,,567644,,,,,,
68600,note_on,8,0,3,,,,,,,,0,,,65,80
68616,note_on,96,0,1,,,,,,,,0,,,85,0
68616,note_on,0,0,1,,,,,,,,0,,,73,0
68616,set_tempo,18,1,0,,,,,,563698,,,,,,
68632,note_on,32,0,3,,,,,,,,0,,,65,0
68633,set_tempo,17,1,0,,,,,,559806,,,,,,
68640,note_on,144,0,4,,,,,,,,0,,,36,80
68643,control_change,3,0,4,,,,,,,,0,64,0,,
68646,set_tempo,13,1,0,,,,,,555967,,,,,,
68654,control_change,11,0,4,,,,,,,,0,64,127,,
68680,note_on,48,0,3,,,,,,,,0,,,48,80
68681,set_tempo,35,1,0,,,,,,555967,,,,,,
68712,note_on,32,0,3,,,,,,,,0,,,48,0
68720,note_on,0,0,1,,,,,,,,0,,,85,80
68720,note_on,104,0,1,,,,,,,,0,,,73,80
68720,note_on,8,0,3,,,,,,,,0,,,53,80
68725,set_tempo,44,1,0,,,,,,559806,,,,,,
68736,note_on,82,0,4,,,,,,,,0,,,36,0
68752,note_on,32,0,3,,,,,,,,0,,,53,0
68760,note_on,8,0,3,,,,,,,,0,,,56,80
68769,set_tempo,44,1,0,,,,,,563698,,,,,,
68784,note_on,64,0,1,,,,,,,,0,,,85,0
68784,note_on,0,0,1,,,,,,,,0,,,73,0
68792,note_on,32,0,3,,,,,,,,0,,,56,0
68800,note_on,8,0,3,,,,,,,,0,,,60,80
68800,note_on,0,0,1,,,,,,,,0,,,72,80
68800,note_on,16,0,1,,,,,,,,0,,,84,80
68812,set_tempo,43,1,0,,,,,,567644,,,,,,
68832,note_on,32,0,3,,,,,,,,0,,,60,0
68840,note_on,8,0,3,,,,,,,,0,,,65,80
68856,set_tempo,44,1,0,,,,,,571646,,,,,,
68864,note_on,0,0,1,,,,,,,,0,,,84,0
68864,note_on,64,0,1,,,,,,,,0,,,72,0
68872,note_on,32,0,3,,,,,,,,0,,,65,0
68875,control_change,139,0,4,,,,,,,,0,64,0,,
68880,note_on,5,0,4,,,,,,,,0,,,36,80
68886,control_change,6,0,4,,,,,,,,0,64,127,,
68900,set_tempo,44,1,0,,,,,,575705,,,,,,
68920,note_on,48,0,3,,,,,,,,0,,,48,80
68943,set_tempo,43,1,0,,,,,,579822,,,,,,
68952,note_on,32,0,3,,,,,,,,0,,,48,0
68960,note_on,8,0,3,,,,,,,,0,,,56,80
68960,note_on,96,0,1,,,,,,,,0,,,71,80
68960,note_on,0,0,1,,,,,,,,0,,,83,80
68976,note_on,90,0,4,,,,,,,,0,,,36,0
68987,set_tempo,44,1,0,,,,,,583998,,,,,,
68992,note_on,32,0,3,,,,,,,,0,,,56,0
69000,note_on,8,0,3,,,,,,,,0,,,60,80
69024,note_on,64,0,1,,,,,,,,0,,,83,0
69024,note_on,0,0,1,,,,,,,,0,,,71,0
69030,set_tempo,43,1,0,,,,,,588235,,,,,,
69032,note_on,32,0,3,,,,,,,,0,,,60,0
69040,note_on,8,0,3,,,,,,,,0,,,65,80
69040,note_on,16,0,1,,,,,,,,0,,,84,80
69040,note_on,0,0,1,,,,,,,,0,,,72,80
69072,note_on,32,0,3,,,,,,,,0,,,65,0
69074,set_tempo,44,1,0,,,,,,592534,,,,,,
69080,note_on,8,0,3,,,,,,,,0,,,68,80
69104,note_on,0,0,1,,,,,,,,0,,,84,0
69104,note_on,64,0,1,,,,,,,,0,,,72,0
69112,note_on,32,0,3,,,,,,,,0,,,68,0
69113,set_tempo,39,1,0,,,,,,596896,,,,,,
69120,control_change,144,0,4,,,,,,,,0,64,0,,
69120,note_on,8,0,3,,,,,,,,0,,,36,80
69131,control_change,11,0,4,,,,,,,,0,64,127,,
69152,note_on,32,0,3,,,,,,,,0,,,36,0
69157,set_tempo,44,1,0,,,,,,601323,,,,,,
69160,note_on,8,0,3,,,,,,,,0,,,48,80
69192,note_on,32,0,3,,,,,,,,0,,,48,0
69200,note_on,8,0,3,,,,,,,,0,,,55,80
69200,note_on,96,0,1,,,,,,,,0,,,73,80
69200,note_on,0,0,1,,,,,,,,0,,,85,80
69201,set_tempo,44,1,0,,,,,,605816,,,,,,
69232,note_on,32,0,3,,,,,,,,0,,,55,0
69240,note_on,8,0,3,,,,,,,,0,,,58,80
69244,set_tempo,43,1,0,,,,,,610376,,,,,,
69264,note_on,64,0,1,,,,,,,,0,,,85,0
69264,note_on,0,0,1,,,,,,,,0,,,73,0
69272,note_on,32,0,3,,,,,,,,0,,,58,0
69280,note_on,0,0,1,,,,,,,,0,,,84,80
69280,note_on,8,0,3,,,,,,,,0,,,64,80
69280,note_on,16,0,1,,,,,,,,0,,,72,80
69288,set_tempo,44,1,0,,,,,,615006,,,,,,
69312,note_on,32,0,3,,,,,,,,0,,,64,0
69320,note_on,8,0,3,,,,,,,,0,,,67,80
69332,set_tempo,44,1,0,,,,,,619707,,,,,,
69337,control_change,206,0,4,,,,,,,,0,64,0,,
69344,note_on,64,0,1,,,,,,,,0,,,84,0
69344,note_on,0,0,1,,,,,,,,0,,,72,0
69348,control_change,11,0,4,,,,,,,,0,64,127,,
69352,note_on,32,0,3,,,,,,,,0,,,67,0
69360,note_on,8,0,3,,,,,,,,0,,,36,80
69375,set_tempo,43,1,0,,,,,,624480,,,,,,
69392,note_on,32,0,3,,,,,,,,0,,,36,0
69400,note_on,8,0,3,,,,,,,,0,,,48,80
69419,set_tempo,44,1,0,,,,,,629327,,,,,,
69432,note_on,32,0,3,,,,,,,,0,,,48,0
69440,note_on,8,0,3,,,,,,,,0,,,52,80
69440,note_on,96,0,1,,,,,,,,0,,,71,80
69440,note_on,0,0,1,,,,,,,,0,,,83,80
69462,set_tempo,43,1,0,,,,,,634249,,,,,,
69472,note_on,32,0,3,,,,,,,,0,,,52,0
69480,note_on,8,0,3,,,,,,,,0,,,55,80
69504,note_on,0,0,1,,,,,,,,0,,,71,0
69504,note_on,64,0,1,,,,,,,,0,,,83,0
69506,set_tempo,44,1,0,,,,,,639250,,,,,,
69512,note_on,32,0,3,,,,,,,,0,,,55,0
69520,note_on,16,0,1,,,,,,,,0,,,72,80
69520,note_on,0,0,1,,,,,,,,0,,,84,80
69520,note_on,8,0,3,,,,,,,,0,,,58,80
69550,set_tempo,44,1,0,,,,,,644330,,,,,,
69552,note_on,32,0,3,,,,,,,,0,,,58,0
69560,note_on,8,0,3,,,,,,,,0,,,64,80
69584,note_on,64,0,1,,,,,,,,0,,,84,0
69584,note_on,0,0,1,,,,,,,,0,,,72,0
69589,set_tempo,39,1,0,,,,,,649491,,,,,,
69592,note_on,32,0,3,,,,,,,,0,,,64,0
69600,note_on,252,0,4,,,,,,,,0,,,29,97
69600,note_on,16,0,1,,,,,,,,0,,,85,127
69600,note_on,0,0,1,,,,,,,,0,,,97,127
69602,set_tempo,13,1,0,,,,,,510465,,,,,,
69618,control_change,18,0,4,,,,,,,,0,64,0,,
69629,control_change,11,0,4,,,,,,,,0,64,127,,
69640,note_on,48,0,3,,,,,,,,0,,,41,80
69641,set_tempo,39,1,0,,,,,,513699,,,,,,
69660,note_on,31,0,4,,,,,,,,0,,,29,0
69672,note_on,32,0,3,,,,,,,,0,,,41,0
69680,note_on,8,0,3,,,,,,,,0,,,44,80
69681,set_tempo,40,1,0,,,,,,516974,,,,,,
69712,note_on,32,0,3,,,,,,,,0,,,44,0
69720,note_on,8,0,3,,,,,,,,0,,,48,80
69720,set_tempo,39,1,0,,,,,,520291,,,,,,
69744,note_on,144,0,1,,,,,,,,0,,,97,0
69744,note_on,0,0,1,,,,,,,,0,,,85,0
69752,note_on,32,0,3,,,,,,,,0,,,48,0
69755,set_tempo,35,1,0,,,,,,523652,,,,,,
69760,note_on,8,0,3,,,,,,,,0,,,53,80
69780,note_on,36,0,1,,,,,,,,0,,,84,120
69780,note_on,0,0,1,,,,,,,,0,,,96,120
69792,note_on,32,0,3,,,,,,,,0,,,53,0
69794,set_tempo,39,1,0,,,,,,527056,,,,,,
69800,note_on,8,0,3,,,,,,,,0,,,56,80
69832,note_on,32,0,3,,,,,,,,0,,,56,0
69833,set_tempo,39,1,0,,,,,,530504,,,,,,
69833,control_change,173,0,4,,,,,,,,0,64,0,,
69840,note_on,7,0,4,,,,,,,,0,,,32,97
69844,control_change,4,0,4,,,,,,,,0,64,127,,
69873,set_tempo,40,1,0,,,,,,533998,,,,,,
69876,note_on,0,0,1,,,,,,,,0,,,84,0
69876,note_on,96,0,1,,,,,,,,0,,,96,0
69880,note_on,48,0,3,,,,,,,,0,,,44,80
69900,note_on,0,0,1,,,,,,,,0,,,82,116
69900,note_on,24,0,1,,,,,,,,0,,,94,116
69900,note_on,56,0,4,,,,,,,,0,,,32,0
69908,set_tempo,35,1,0,,,,,,537538,,,,,,
69912,note_on,32,0,3,,,,,,,,0,,,44,0
69920,note_on,8,0,3,,,,,,,,0,,,48,80
69947,set_tempo,39,1,0,,,,,,541126,,,,,,
69952,note_on,32,0,3,,,,,,,,0,,,48,0
69960,note_on,8,0,3,,,,,,,,0,,,53,80
69986,set_tempo,39,1,0,,,,,,544761,,,,,,
69992,note_on,32,0,3,,,,,,,,0,,,53,0
69996,note_on,0,0,1,,,,,,,,0,,,94,0
69996,note_on,96,0,1,,,,,,,,0,,,82,0
70000,note_on,8,0,3,,,,,,,,0,,,56,80
70020,note_on,24,0,1,,,,,,,,0,,,92,111
70020,note_on,0,0,1,,,,,,,,0,,,80,111
70021,set_tempo,35,1,0,,,,,,548446,,,,,,
70032,note_on,32,0,3,,,,,,,,0,,,56,0
70040,note_on,8,0,3,,,,,,,,0,,,60,80
70060,set_tempo,39,1,0,,,,,,552181,,,,,,
70072,note_on,32,0,3,,,,,,,,0,,,60,0
70080,note_on,180,0,4,,,,,,,,0,,,34,88
70098,control_change,18,0,4,,,,,,,,0,64,0,,
70100,set_tempo,40,1,0,,,,,,555967,,,,,,
70109,control_change,11,0,4,,,,,,,,0,64,127,,
70120,note_on,48,0,3,,,,,,,,0,,,46,80
70128,note_on,0,0,1,,,,,,,,0,,,92,0
70128,note_on,108,0,1,,,,,,,,0,,,80,0
70139,set_tempo,39,1,0,,,,,,559806,,,,,,
70140,note_on,12,0,1,,,,,,,,0,,,79,106
70140,note_on,0,0,1,,,,,,,,0,,,91,106
70152,note_on,32,0,3,,,,,,,,0,,,46,0
70160,note_on,8,0,3,,,,,,,,0,,,49,80
70174,set_tempo,35,1,0,,,,,,563698,,,,,,
70176,note_on,67,0,4,,,,,,,,0,,,34,0
70192,note_on,32,0,3,,,,,,,,0,,,49,0
70200,note_on,8,0,3,,,,,,,,0,,,53,80
70213,set_tempo,39,1,0,,,,,,567644,,,,,,
70232,note_on,32,0,3,,,,,,,,0,,,53,0
70236,note_on,96,0,1,,,,,,,,0,,,91,0
70236,note_on,0,0,1,,,,,,,,0,,,79,0
70240,note_on,8,0,3,,,,,,,,0,,,55,80
70252,set_tempo,39,1,0,,,,,,571646,,,,,,
70260,note_on,0,0,1,,,,,,,,0,,,89,102
70260,note_on,24,0,1,,,,,,,,0,,,77,102
70272,note_on,32,0,3,,,,,,,,0,,,55,0
70280,note_on,8,0,3,,,,,,,,0,,,61,80
70287,set_tempo,35,1,0,,,,,,575705,,,,,,
70312,note_on,32,0,3,,,,,,,,0,,,61,0
70320,note_on,144,0,4,,,,,,,,0,,,37,88
70324,control_change,4,0,4,,,,,,,,0,64,0,,
70326,set_tempo,39,1,0,,,,,,571646,,,,,,
70335,control_change,11,0,4,,,,,,,,0,64,127,,
70356,note_on,96,0,1,,,,,,,,0,,,89,0
70356,note_on,0,0,1,,,,,,,,0,,,77,0
70360,note_on,48,0,3,,,,,,,,0,,,49,80
70366,set_tempo,40,1,0,,,,,,567644,,,,,,
70380,note_on,24,0,1,,,,,,,,0,,,87,97
70380,note_on,0,0,1,,,,,,,,0,,,75,97
70392,note_on,32,0,3,,,,,,,,0,,,49,0
70400,note_on,8,0,3,,,,,,,,0,,,53,80
70405,set_tempo,39,1,0,,,,,,563698,,,,,,
70416,note_on,81,0,4,,,,,,,,0,,,37,0
70432,note_on,32,0,3,,,,,,,,0,,,53,0
70440,note_on,8,0,3,,,,,,,,0,,,55,80
70444,set_tempo,39,1,0,,,,,,559806,,,,,,
70472,note_on,32,0,3,,,,,,,,0,,,55,0
70476,note_on,96,0,1,,,,,,,,0,,,75,0
70476,note_on,0,0,1,,,,,,,,0,,,87,0
70480,note_on,8,0,3,,,,,,,,0,,,58,80
70484,set_tempo,40,1,0,,,,,,555967,,,,,,
70500,note_on,24,0,1,,,,,,,,0,,,85,92
70500,note_on,0,0,1,,,,,,,,0,,,73,92
70512,note_on,32,0,3,,,,,,,,0,,,58,0
70520,note_on,8,0,3,,,,,,,,0,,,65,80
70523,set_tempo,39,1,0,,,,,,552181,,,,,,
70548,note_on,0,0,1,,,,,,,,0,,,85,0
70548,note_on,48,0,1,,,,,,,,0,,,73,0
70552,note_on,32,0,3,,,,,,,,0,,,65,0
70558,set_tempo,35,1,0,,,,,,548446,,,,,,
70560,note_on,12,0,1,,,,,,,,0,,,73,80
70560,note_on,0,0,1,,,,,,,,0,,,85,80
70560,note_on,144,0,4,,,,,,,,0,,,36,80
70567,control_change,7,0,4,,,,,,,,0,64,0,,
70578,control_change,11,0,4,,,,,,,,0,64,127,,
70600,note_on,48,0,3,,,,,,,,0,,,48,80
70624,note_on,64,0,1,,,,,,,,0,,,85,0
70624,note_on,0,0,1,,,,,,,,0,,,73,0
70632,note_on,32,0,3,,,,,,,,0,,,48,0
70640,note_on,0,0,1,,,,,,,,0,,,72,80
70640,note_on,8,0,3,,,,,,,,0,,,53,80
70640,note_on,16,0,1,,,,,,,,0,,,84,80
70656,note_on,78,0,4,,,,,,,,0,,,36,0
70672,note_on,32,0,3,,,,,,,,0,,,53,0
70680,note_on,8,0,3,,,,,,,,0,,,56,80
70704,note_on,64,0,1,,,,,,,,0,,,72,0
70704,note_on,0,0,1,,,,,,,,0,,,84,0
70712,note_on,32,0,3,,,,,,,,0,,,56,0
70720,note_on,16,0,1,,,,,,,,0,,,73,80
70720,note_on,8,0,3,,,,,,,,0,,,60,80
70720,note_on,0,0,1,,,,,,,,0,,,85,80
70752,note_on,32,0,3,,,,,,,,0,,,60,0
70760,note_on,8,0,3,,,,,,,,0,,,65,80
70784,note_on,64,0,1,,,,,,,,0,,,85,0
70784,note_on,0,0,1,,,,,,,,0,,,73,0
70792,note_on,32,0,3,,,,,,,,0,,,65,0
70800,note_on,144,0,4,,,,,,,,0,,,36,80
70800,note_on,16,0,1,,,,,,,,0,,,71,80
70800,note_on,0,0,1,,,,,,,,0,,,83,80
70840,note_on,48,0,3,,,,,,,,0,,,48,80
70864,note_on,0,0,1,,,,,,,,0,,,71,0
70864,note_on,64,0,1,,,,,,,,0,,,83,0
70872,note_on,32,0,3,,,,,,,,0,,,48,0
70880,note_on,0,0,1,,,,,,,,0,,,85,80
70880,note_on,16,0,1,,,,,,,,0,,,73,80
70880,note_on,8,0,3,,,,,,,,0,,,53,80
70896,note_on,96,0,4,,,,,,,,0,,,36,0
70912,note_on,32,0,3,,,,,,,,0,,,53,0
70920,note_on,8,0,3,,,,,,,,0,,,56,80
70944,note_on,64,0,1,,,,,,,,0,,,85,0
70944,note_on,0,0,1,,,,,,,,0,,,73,0
70952,note_on,32,0,3,,,,,,,,0,,,56,0
70960,note_on,16,0,1,,,,,,,,0,,,82,80
70960,note_on,0,0,1,,,,,,,,0,,,70,80
70960,note_on,8,0,3,,,,,,,,0,,,59,80
70992,note_on,32,0,3,,,,,,,,0,,,59,0
71000,note_on,8,0,3,,,,,,,,0,,,65,80
71024,note_on,64,0,1,,,,,,,,0,,,70,0
71024,note_on,0,0,1,,,,,,,,0,,,82,0
71032,note_on,32,0,3,,,,,,,,0,,,65,0
71040,note_on,8,0,3,,,,,,,,0,,,36,80
71040,note_on,16,0,1,,,,,,,,0,,,85,80
71040,note_on,0,0,1,,,,,,,,0,,,73,80
71058,control_change,162,0,4,,,,,,,,0,64,0,,
71069,control_change,11,0,4,,,,,,,,0,64,127,,
71080,note_on,40,0,3,,,,,,,,0,,,48,80
71088,note_on,48,0,1,,,,,,,,0,,,73,0
71088,note_on,0,0,1,,,,,,,,0,,,85,0
71100,note_on,0,0,1,,,,,,,,0,,,69,80
71100,note_on,12,0,1,,,,,,,,0,,,81,80
71104,note_on,24,0,3,,,,,,,,0,,,36,0
71112,note_on,8,0,3,,,,,,,,0,,,48,0
71120,note_on,8,0,3,,,,,,,,0,,,53,80
71148,note_on,48,0,1,,,,,,,,0,,,69,0
71148,note_on,0,0,1,,,,,,,,0,,,81,0
71152,note_on,32,0,3,,,,,,,,0,,,53,0
71160,note_on,0,0,1,,,,,,,,0,,,85,80
71160,note_on,12,0,1,,,,,,,,0,,,73,80
71160,note_on,8,0,3,,,,,,,,0,,,55,80
71192,note_on,32,0,3,,,,,,,,0,,,55,0
71200,note_on,8,0,3,,,,,,,,0,,,58,80
71208,note_on,48,0,1,,,,,,,,0,,,85,0
71208,note_on,0,0,1,,,,,,,,0,,,73,0
71220,note_on,0,0,1,,,,,,,,0,,,68,80
71220,note_on,12,0,1,,,,,,,,0,,,80,80
71232,note_on,32,0,3,,,,,,,,0,,,58,0
71240,note_on,8,0,3,,,,,,,,0,,,65,80
71268,note_on,48,0,1,,,,,,,,0,,,68,0
71268,note_on,0,0,1,,,,,,,,0,,,80,0
71272,note_on,32,0,3,,,,,,,,0,,,65,0
71280,note_on,0,0,1,,,,,,,,0,,,73,80
71280,note_on,12,0,1,,,,,,,,0,,,85,80
71280,note_on,8,0,3,,,,,,,,0,,,36,80
71320,note_on,40,0,3,,,,,,,,0,,,48,80
71328,note_on,48,0,1,,,,,,,,0,,,73,0
71328,note_on,0,0,1,,,,,,,,0,,,85,0
71340,note_on,12,0,1,,,,,,,,0,,,67,80
71340,note_on,0,0,1,,,,,,,,0,,,79,80
71344,note_on,24,0,3,,,,,,,,0,,,36,0
71352,note_on,8,0,3,,,,,,,,0,,,48,0
71360,note_on,8,0,3,,,,,,,,0,,,53,80
71388,note_on,0,0,1,,,,,,,,0,,,67,0
71388,note_on,48,0,1,,,,,,,,0,,,79,0
71392,note_on,32,0,3,,,,,,,,0,,,53,0
71400,note_on,8,0,3,,,,,,,,0,,,55,80
71400,note_on,0,0,1,,,,,,,,0,,,73,80
71400,note_on,12,0,1,,,,,,,,0,,,85,80
71432,note_on,32,0,3,,,,,,,,0,,,55,0
71440,note_on,8,0,3,,,,,,,,0,,,58,80
71448,note_on,0,0,1,,,,,,,,0,,,85,0
71448,note_on,48,0,1,,,,,,,,0,,,73,0
71460,note_on,0,0,1,,,,,,,,0,,,77,80
71460,note_on,12,0,1,,,,,,,,0,,,65,80
71472,note_on,32,0,3,,,,,,,,0,,,58,0
71480,note_on,8,0,3,,,,,,,,0,,,61,80
71508,note_on,48,0,1,,,,,,,,0,,,77,0
71508,note_on,0,0,1,,,,,,,,0,,,65,0
71512,note_on,32,0,3,,,,,,,,0,,,61,0
71520,note_on,8,0,3,,,,,,,,0,,,36,80
71520,note_on,0,0,1,,,,,,,,0,,,73,89
71520,note_on,12,0,1,,,,,,,,0,,,85,89
71524,control_change,455,0,4,,,,,,,,0,64,0,,
71535,control_change,11,0,4,,,,,,,,0,64,127,,
71552,note_on,32,0,3,,,,,,,,0,,,36,0
71560,note_on,8,0,3,,,,,,,,0,,,48,80
71592,note_on,32,0,3,,,,,,,,0,,,48,0
71600,note_on,8,0,3,,,,,,,,0,,,52,80
71616,note_on,96,0,1,,,,,,,,0,,,73,0
71616,note_on,0,0,1,,,,,,,,0,,,85,0
71632,note_on,32,0,3,,,,,,,,0,,,52,0
71640,note_on,8,0,3,,,,,,,,0,,,55,80
71640,note_on,24,0,1,,,,,,,,0,,,64,95
71640,note_on,0,0,1,,,,,,,,0,,,76,95
71672,note_on,32,0,3,,,,,,,,0,,,55,0
71680,note_on,8,0,3,,,,,,,,0,,,58,80
71712,note_on,32,0,3,,,,,,,,0,,,58,0
71720,note_on,8,0,3,,,,,,,,0,,,61,80
71736,note_on,0,0,1,,,,,,,,0,,,64,0
71736,note_on,96,0,1,,,,,,,,0,,,76,0
71752,note_on,32,0,3,,,,,,,,0,,,61,0
71760,note_on,8,0,3,,,,,,,,0,,,58,80
71760,note_on,0,0,1,,,,,,,,0,,,85,100
71760,note_on,24,0,1,,,,,,,,0,,,73,100
71792,note_on,32,0,3,,,,,,,,0,,,58,0
71800,note_on,8,0,3,,,,,,,,0,,,55,80
71832,note_on,32,0,3,,,,,,,,0,,,55,0
71840,note_on,8,0,3,,,,,,,,0,,,52,80
71872,note_on,32,0,3,,,,,,,,0,,,52,0
71880,note_on,8,0,3,,,,,,,,0,,,49,80
71912,note_on,32,0,3,,,,,,,,0,,,49,0
71920,note_on,8,0,3,,,,,,,,0,,,46,80
71952,note_on,32,0,3,,,,,,,,0,,,46,0
71960,note_on,8,0,3,,,,,,,,0,,,43,80
71992,note_on,32,0,3,,,,,,,,0,,,43,0
72000,control_change,465,0,4,,,,,,,,0,64,0,,
72000,note_on,8,0,3,,,,,,,,0,,,36,80
72032,note_on,32,0,3,,,,,,,,0,,,36,0
72040,note_on,8,0,3,,,,,,,,0,,,43,80
72072,note_on,32,0,3,,,,,,,,0,,,43,0
72080,note_on,8,0,3,,,,,,,,0,,,46,80
72112,note_on,32,0,3,,,,,,,,0,,,46,0
72120,note_on,8,0,3,,,,,,,,0,,,52,80
72152,note_on,32,0,3,,,,,,,,0,,,52,0
72160,note_on,8,0,3,,,,,,,,0,,,55,80
72192,note_on,32,0,3,,,,,,,,0,,,55,0
72200,note_on,8,0,3,,,,,,,,0,,,58,80
72232,note_on,32,0,3,,,,,,,,0,,,58,0
72240,note_on,15288,0,2,,,,,,,,0,,,61,88
72280,note_on,48,0,3,,,,,,,,0,,,58,80
72288,note_on,528,0,1,,,,,,,,0,,,85,0
72288,note_on,0,0,1,,,,,,,,0,,,73,0
72312,note_on,32,0,3,,,,,,,,0,,,58,0
72320,note_on,8,0,3,,,,,,,,0,,,52,80
72352,note_on,32,0,3,,,,,,,,0,,,52,0
72360,note_on,8,0,3,,,,,,,,0,,,48,80
72360,note_on,72,0,1,,,,,,,,0,,,84,80
72360,note_on,0,0,1,,,,,,,,0,,,72,80
72392,note_on,32,0,3,,,,,,,,0,,,48,0
72400,note_on,8,0,3,,,,,,,,0,,,52,80
72424,note_on,184,0,2,,,,,,,,0,,,61,0
72432,note_on,32,0,3,,,,,,,,0,,,52,0
72440,note_on,16,0,2,,,,,,,,0,,,60,88
72456,note_on,96,0,1,,,,,,,,0,,,72,0
72456,note_on,0,0,1,,,,,,,,0,,,84,0
72472,set_tempo,1914,1,0,,,,,,579822,,,,,,
72472,note_on,32,0,2,,,,,,,,0,,,60,0
72480,note_on,24,0,1,,,,,,,,0,,,65,80
72480,note_on,48,0,3,,,,,,,,0,,,53,80
72480,note_on,0,0,3,,,,,,,,0,,,56,80
72480,note_on,0,0,1,,,,,,,,0,,,77,80
72576,note_on,0,0,3,,,,,,,,0,,,53,0
72576,note_on,96,0,1,,,,,,,,0,,,77,0
72576,note_on,96,0,3,,,,,,,,0,,,56,0
72576,note_on,0,0,1,,,,,,,,0,,,65,0
72600,note_on,0,0,2,,,,,,,,0,,,74,80
72600,note_on,24,0,3,,,,,,,,0,,,65,80
72600,note_on,24,0,1,,,,,,,,0,,,80,80
72600,note_on,128,0,2,,,,,,,,0,,,71,80
72632,note_on,32,0,1,,,,,,,,0,,,80,0
72640,note_on,8,0,1,,,,,,,,0,,,94,80
72648,note_on,48,0,3,,,,,,,,0,,,65,0
72660,note_on,12,0,3,,,,,,,,0,,,67,80
72672,note_on,32,0,1,,,,,,,,0,,,94,0
72680,note_on,8,0,1,,,,,,,,0,,,92,80
72696,note_on,96,0,2,,,,,,,,0,,,74,0
72696,note_on,0,0,2,,,,,,,,0,,,71,0
72708,note_on,48,0,3,,,,,,,,0,,,67,0
72712,note_on,32,0,1,,,,,,,,0,,,92,0
72720,note_on,0,0,2,,,,,,,,0,,,71,80
72720,note_on,24,0,2,,,,,,,,0,,,68,80
72720,note_on,8,0,1,,,,,,,,0,,,89,80
72720,note_on,12,0,3,,,,,,,,0,,,62,80
72752,note_on,32,0,1,,,,,,,,0,,,89,0
72760,note_on,8,0,1,,,,,,,,0,,,79,80
72768,note_on,48,0,3,,,,,,,,0,,,62,0
72780,note_on,12,0,3,,,,,,,,0,,,64,80
72792,note_on,32,0,1,,,,,,,,0,,,79,0
72800,note_on,8,0,1,,,,,,,,0,,,77,80
72816,note_on,96,0,2,,,,,,,,0,,,71,0
72816,note_on,0,0,2,,,,,,,,0,,,68,0
72828,note_on,48,0,3,,,,,,,,0,,,64,0
72832,note_on,32,0,1,,,,,,,,0,,,77,0
72840,note_on,8,0,1,,,,,,,,0,,,74,80
72840,note_on,12,0,3,,,,,,,,0,,,59,80
72840,note_on,0,0,2,,,,,,,,0,,,65,80
72840,note_on,24,0,2,,,,,,,,0,,,68,80
72872,note_on,32,0,1,,,,,,,,0,,,74,0
72880,note_on,8,0,1,,,,,,,,0,,,88,80
72888,note_on,48,0,3,,,,,,,,0,,,59,0
72900,note_on,12,0,3,,,,,,,,0,,,60,80
72912,note_on,32,0,1,,,,,,,,0,,,88,0
72920,note_on,8,0,1,,,,,,,,0,,,86,80
72936,note_on,96,0,2,,,,,,,,0,,,65,0
72936,note_on,0,0,2,,,,,,,,0,,,68,0
72948,note_on,48,0,3,,,,,,,,0,,,60,0
72952,note_on,32,0,1,,,,,,,,0,,,86,0
72960,note_on,8,0,1,,,,,,,,0,,,83,80
72960,note_on,0,0,2,,,,,,,,0,,,56,80
72960,note_on,0,0,2,,,,,,,,0,,,62,80
72960,note_on,0,0,1,,,,,,,,0,,,71,80
72960,note_on,24,0,2,,,,,,,,0,,,65,80
72960,control_change,960,0,4,,,,,,,,0,64,127,,
73056,note_on,96,0,2,,,,,,,,0,,,56,0
73056,note_on,0,0,1,,,,,,,,0,,,83,0
73056,note_on,96,0,1,,,,,,,,0,,,71,0
73056,note_on,0,0,2,,,,,,,,0,,,62,0
73056,note_on,0,0,2,,,,,,,,0,,,65,0
73080,note_on,0,0,4,,,,,,,,0,,,53,70
73080,note_on,132,0,3,,,,,,,,0,,,56,70
73080,note_on,0,0,4,,,,,,,,0,,,50,70
73080,note_on,120,0,4,,,,,,,,0,,,41,70
73080,note_on,0,0,4,,,,,,,,0,,,47,70
73112,note_on,32,0,3,,,,,,,,0,,,56,0
73120,note_on,8,0,3,,,,,,,,0,,,58,73
73152,note_on,32,0,3,,,,,,,,0,,,58,0
73160,note_on,8,0,3,,,,,,,,0,,,56,76
73176,note_on,96,0,4,,,,,,,,0,,,53,0
73176,note_on,0,0,4,,,,,,,,0,,,50,0
73176,note_on,0,0,4,,,,,,,,0,,,41,0
73176,note_on,0,0,4,,,,,,,,0,,,47,0
73192,note_on,32,0,3,,,,,,,,0,,,56,0
73200,note_on,0,0,4,,,,,,,,0,,,50,80
73200,note_on,0,0,4,,,,,,,,0,,,47,80
73200,note_on,144,0,1,,,,,,,,0,,,68,80
73200,note_on,24,0,4,,,,,,,,0,,,53,80
73200,note_on,0,0,4,,,,,,,,0,,,41,80
73232,note_on,32,0,1,,,,,,,,0,,,68,0
73240,note_on,8,0,1,,,,,,,,0,,,70,83
73272,note_on,32,0,1,,,,,,,,0,,,70,0
73280,note_on,8,0,1,,,,,,,,0,,,68,87
73296,note_on,96,0,4,,,,,,,,0,,,47,0
73296,note_on,0,0,4,,,,,,,,0,,,41,0
73296,note_on,0,0,4,,,,,,,,0,,,53,0
73296,note_on,0,0,4,,,,,,,,0,,,50,0
73312,note_on,32,0,1,,,,,,,,0,,,68,0
73320,note_on,0,0,4,,,,,,,,0,,,50,90
73320,note_on,0,0,4,,,,,,,,0,,,53,90
73320,note_on,8,0,1,,,,,,,,0,,,80,90
73320,note_on,0,0,4,,,,,,,,0,,,41,90
73320,note_on,24,0,4,,,,,,,,0,,,47,90
73352,note_on,32,0,1,,,,,,,,0,,,80,0
73360,note_on,8,0,1,,,,,,,,0,,,82,93
73392,note_on,32,0,1,,,,,,,,0,,,82,0
73400,note_on,8,0,1,,,,,,,,0,,,80,97
73416,note_on,96,0,4,,,,,,,,0,,,50,0
73416,note_on,0,0,4,,,,,,,,0,,,41,0
73416,note_on,0,0,4,,,,,,,,0,,,53,0
73416,note_on,0,0,4,,,,,,,,0,,,47,0
73440,note_on,0,0,3,,,,,,,,0,,,48,100
73440,note_on,248,0,3,,,,,,,,0,,,41,100
73440,control_change,24,0,4,,,,,,,,0,64,0,,
73440,note_on,0,0,3,,,,,,,,0,,,53,100
73440,note_on,40,0,1,,,,,,,,0,,,92,100
73536,note_on,96,0,3,,,,,,,,0,,,53,0
73536,note_on,0,0,1,,,,,,,,0,,,80,0
73536,note_on,0,0,3,,,,,,,,0,,,41,0
73536,note_on,0,0,3,,,,,,,,0,,,48,0
73536,note_on,96,0,1,,,,,,,,0,,,92,0
73560,note_on,24,0,3,,,,,,,,0,,,65,80
73560,note_on,24,0,1,,,,,,,,0,,,80,80
73560,note_on,0,0,2,,,,,,,,0,,,74,80
73560,note_on,504,0,2,,,,,,,,0,,,71,80
73592,note_on,32,0,1,,,,,,,,0,,,80,0
73600,note_on,8,0,1,,,,,,,,0,,,94,80
73608,note_on,48,0,3,,,,,,,,0,,,65,0
73620,note_on,12,0,3,,,,,,,,0,,,67,80
73632,note_on,32,0,1,,,,,,,,0,,,94,0
73640,note_on,8,0,1,,,,,,,,0,,,92,80
73656,note_on,0,0,2,,,,,,,,0,,,71,0
73656,note_on,96,0,2,,,,,,,,0,,,74,0
73668,note_on,48,0,3,,,,,,,,0,,,67,0
73672,note_on,32,0,1,,,,,,,,0,,,92,0
73680,note_on,24,0,2,,,,,,,,0,,,71,80
73680,note_on,8,0,1,,,,,,,,0,,,89,80
73680,note_on,0,0,2,,,,,,,,0,,,68,80
73680,note_on,12,0,3,,,,,,,,0,,,62,80
73712,note_on,32,0,1,,,,,,,,0,,,89,0
73720,note_on,8,0,1,,,,,,,,0,,,79,80
73728,note_on,48,0,3,,,,,,,,0,,,62,0
73740,note_on,12,0,3,,,,,,,,0,,,64,80
73752,note_on,32,0,1,,,,,,,,0,,,79,0
73760,note_on,8,0,1,,,,,,,,0,,,77,80
73776,note_on,0,0,2,,,,,,,,0,,,71,0
73776,note_on,96,0,2,,,,,,,,0,,,68,0
73788,note_on,48,0,3,,,,,,,,0,,,64,0
73792,note_on,32,0,1,,,,,,,,0,,,77,0
73800,note_on,24,0,2,,,,,,,,0,,,65,80
73800,note_on,0,0,2,,,,,,,,0,,,68,80
73800,note_on,8,0,1,,,,,,,,0,,,74,80
73800,note_on,12,0,3,,,,,,,,0,,,59,80
73832,note_on,32,0,1,,,,,,,,0,,,74,0
73840,note_on,8,0,1,,,,,,,,0,,,88,80
73848,note_on,48,0,3,,,,,,,,0,,,59,0
73860,note_on,12,0,3,,,,,,,,0,,,60,80
73872,note_on,32,0,1,,,,,,,,0,,,88,0
73880,note_on,8,0,1,,,,,,,,0,,,86,80
73896,note_on,0,0,2,,,,,,,,0,,,65,0
73896,note_on,96,0,2,,,,,,,,0,,,68,0
73908,note_on,48,0,3,,,,,,,,0,,,60,0
73912,note_on,32,0,1,,,,,,,,0,,,86,0
73920,note_on,0,0,1,,,,,,,,0,,,83,80
73920,note_on,24,0,2,,,,,,,,0,,,65,80
73920,note_on,0,0,2,,,,,,,,0,,,56,80
73920,note_on,0,0,2,,,,,,,,0,,,62,80
73920,control_change,480,0,4,,,,,,,,0,64,127,,
73920,note_on,8,0,1,,,,,,,,0,,,71,80
74016,note_on,96,0,2,,,,,,,,0,,,56,0
74016,note_on,0,0,2,,,,,,,,0,,,65,0
74016,note_on,96,0,1,,,,,,,,0,,,83,0
74016,note_on,0,0,1,,,,,,,,0,,,71,0
74016,note_on,0,0,2,,,,,,,,0,,,62,0
74040,note_on,120,0,4,,,,,,,,0,,,53,73
74040,note_on,0,0,4,,,,,,,,0,,,41,73
74040,note_on,0,0,4,,,,,,,,0,,,47,73
74040,note_on,132,0,3,,,,,,,,0,,,56,73
74040,note_on,0,0,4,,,,,,,,0,,,50,73
74072,note_on,32,0,3,,,,,,,,0,,,56,0
74080,note_on,8,0,3,,,,,,,,0,,,58,76
74112,note_on,32,0,3,,,,,,,,0,,,58,0
74120,note_on,8,0,3,,,,,,,,0,,,56,78
74136,note_on,0,0,4,,,,,,,,0,,,47,0
74136,note_on,96,0,4,,,,,,,,0,,,50,0
74136,note_on,0,0,4,,,,,,,,0,,,53,0
74136,note_on,0,0,4,,,,,,,,0,,,41,0
74152,note_on,32,0,3,,,,,,,,0,,,56,0
74160,note_on,0,0,4,,,,,,,,0,,,53,81
74160,note_on,0,0,4,,,,,,,,0,,,50,81
74160,note_on,0,0,4,,,,,,,,0,,,41,81
74160,note_on,24,0,4,,,,,,,,0,,,47,81
74160,note_on,144,0,1,,,,,,,,0,,,68,81
74192,note_on,32,0,1,,,,,,,,0,,,68,0
74200,note_on,8,0,1,,,,,,,,0,,,70,84
74232,note_on,32,0,1,,,,,,,,0,,,70,0
74240,note_on,8,0,1,,,,,,,,0,,,68,87
74256,note_on,96,0,4,,,,,,,,0,,,41,0
74256,note_on,0,0,4,,,,,,,,0,,,47,0
74256,note_on,0,0,4,,,,,,,,0,,,50,0
74256,note_on,0,0,4,,,,,,,,0,,,53,0
74272,note_on,32,0,1,,,,,,,,0,,,68,0
74280,note_on,8,0,1,,,,,,,,0,,,80,90
74280,note_on,24,0,4,,,,,,,,0,,,47,90
74280,note_on,0,0,4,,,,,,,,0,,,53,90
74280,note_on,0,0,4,,,,,,,,0,,,50,90
74280,note_on,0,0,4,,,,,,,,0,,,41,90
74312,note_on,32,0,1,,,,,,,,0,,,80,0
74320,note_on,8,0,1,,,,,,,,0,,,82,93
74352,note_on,32,0,1,,,,,,,,0,,,82,0
74360,note_on,8,0,1,,,,,,,,0,,,80,96
74376,note_on,96,0,4,,,,,,,,0,,,53,0
74376,note_on,0,0,4,,,,,,,,0,,,50,0
74376,note_on,0,0,4,,,,,,,,0,,,41,0
74376,note_on,0,0,4,,,,,,,,0,,,47,0
74392,note_on,32,0,1,,,,,,,,0,,,80,0
74400,control_change,0,0,4,,,,,,,,0,64,0,,
74400,note_on,24,0,4,,,,,,,,0,,,41,100
74400,note_on,8,0,1,,,,,,,,0,,,92,100
74400,note_on,0,0,4,,,,,,,,0,,,53,100
74400,note_on,0,0,4,,,,,,,,0,,,44,100
74400,note_on,0,0,4,,,,,,,,0,,,48,100
74425,control_change,25,0,4,,,,,,,,0,64,127,,
74432,note_on,32,0,1,,,,,,,,0,,,92,0
74440,note_on,8,0,1,,,,,,,,0,,,94,100
74472,note_on,32,0,1,,,,,,,,0,,,94,0
74480,note_on,8,0,1,,,,,,,,0,,,92,100
74496,note_on,0,0,4,,,,,,,,0,,,53,0
74496,note_on,0,0,4,,,,,,,,0,,,44,0
74496,note_on,0,0,4,,,,,,,,0,,,41,0
74496,note_on,71,0,4,,,,,,,,0,,,48,0
74512,note_on,32,0,1,,,,,,,,0,,,92,0
74520,note_on,8,0,1,,,,,,,,0,,,80,100
74552,note_on,32,0,1,,,,,,,,0,,,80,0
74560,note_on,8,0,1,,,,,,,,0,,,82,100
74592,note_on,32,0,1,,,,,,,,0,,,82,0
74600,note_on,8,0,1,,,,,,,,0,,,80,100
74632,note_on,32,0,1,,,,,,,,0,,,80,0
74640,note_on,144,0,4,,,,,,,,0,,,51,100
74640,note_on,0,0,4,,,,,,,,0,,,49,100
74640,note_on,0,0,4,,,,,,,,0,,,43,100
74640,note_on,0,0,4,,,,,,,,0,,,39,100
74640,note_on,8,0,1,,,,,,,,0,,,94,100
74645,control_change,5,0,4,,,,,,,,0,64,0,,
74665,control_change,20,0,4,,,,,,,,0,64,127,,
74672,note_on,32,0,1,,,,,,,,0,,,94,0
74680,note_on,8,0,1,,,,,,,,0,,,96,100
74712,note_on,32,0,1,,,,,,,,0,,,96,0
74720,note_on,8,0,1,,,,,,,,0,,,94,100
74736,note_on,71,0,4,,,,,,,,0,,,39,0
74736,note_on,0,0,4,,,,,,,,0,,,49,0
74736,note_on,0,0,4,,,,,,,,0,,,51,0
74736,note_on,0,0,4,,,,,,,,0,,,43,0
74752,note_on,32,0,1,,,,,,,,0,,,94,0
74760,note_on,8,0,1,,,,,,,,0,,,82,100
74792,note_on,32,0,1,,,,,,,,0,,,82,0
74800,note_on,8,0,1,,,,,,,,0,,,84,100
74832,note_on,32,0,1,,,,,,,,0,,,84,0
74840,note_on,8,0,1,,,,,,,,0,,,82,100
74872,note_on,32,0,1,,,,,,,,0,,,82,0
74880,control_change,0,0,4,,,,,,,,0,64,0,,
74880,note_on,8,0,1,,,,,,,,0,,,97,100
74880,note_on,0,0,4,,,,,,,,0,,,48,100
74880,note_on,0,0,4,,,,,,,,0,,,51,100
74880,note_on,144,0,4,,,,,,,,0,,,56,100
74880,note_on,0,0,4,,,,,,,,0,,,44,100
74899,control_change,19,0,4,,,,,,,,0,64,127,,
74912,note_on,32,0,1,,,,,,,,0,,,97,0
74920,note_on,8,0,1,,,,,,,,0,,,96,98
74952,note_on,32,0,1,,,,,,,,0,,,96,0
74960,note_on,8,0,1,,,,,,,,0,,,84,97
74976,note_on,0,0,4,,,,,,,,0,,,44,0
74976,note_on,0,0,4,,,,,,,,0,,,56,0
74976,note_on,0,0,4,,,,,,,,0,,,48,0
74976,note_on,77,0,4,,,,,,,,0,,,51,0
74992,note_on,32,0,1,,,,,,,,0,,,84,0
75000,note_on,0,0,4,,,,,,,,0,,,58,95
75000,note_on,24,0,4,,,,,,,,0,,,54,95
75000,note_on,0,0,4,,,,,,,,0,,,46,95
75000,note_on,0,0,4,,,,,,,,0,,,49,95
75000,note_on,8,0,1,,,,,,,,0,,,96,95
75032,note_on,32,0,1,,,,,,,,0,,,96,0
75040,note_on,8,0,1,,,,,,,,0,,,94,93
75072,note_on,32,0,1,,,,,,,,0,,,94,0
75080,note_on,8,0,1,,,,,,,,0,,,82,92
75096,note_on,0,0,4,,,,,,,,0,,,58,0
75096,note_on,96,0,4,,,,,,,,0,,,49,0
75096,note_on,0,0,4,,,,,,,,0,,,46,0
75096,note_on,0,0,4,,,,,,,,0,,,54,0
75112,note_on,32,0,1,,,,,,,,0,,,82,0
75120,note_on,0,0,4,,,,,,,,0,,,48,90
75120,note_on,0,0,4,,,,,,,,0,,,53,90
75120,note_on,0,0,4,,,,,,,,0,,,60,90
75120,note_on,24,0,4,,,,,,,,0,,,56,90
75120,note_on,8,0,1,,,,,,,,0,,,94,90
75152,note_on,32,0,1,,,,,,,,0,,,94,0
75160,note_on,8,0,1,,,,,,,,0,,,92,88
75192,note_on,32,0,1,,,,,,,,0,,,92,0
75200,note_on,8,0,1,,,,,,,,0,,,80,87
75216,note_on,0,0,4,,,,,,,,0,,,60,0
75216,note_on,0,0,4,,,,,,,,0,,,56,0
75216,note_on,0,0,4,,,,,,,,0,,,48,0
75216,note_on,96,0,4,,,,,,,,0,,,53,0
75232,note_on,32,0,1,,,,,,,,0,,,80,0
75240,note_on,24,0,4,,,,,,,,0,,,58,85
75240,note_on,0,0,4,,,,,,,,0,,,60,85
75240,note_on,0,0,4,,,,,,,,0,,,52,85
75240,note_on,0,0,4,,,,,,,,0,,,48,85
75240,note_on,8,0,1,,,,,,,,0,,,92,85
75272,note_on,32,0,1,,,,,,,,0,,,92,0
75280,note_on,8,0,1,,,,,,,,0,,,91,83
75312,note_on,32,0,1,,,,,,,,0,,,91,0
75320,note_on,8,0,1,,,,,,,,0,,,79,82
75336,note_on,0,0,4,,,,,,,,0,,,58,0
75336,note_on,96,0,4,,,,,,,,0,,,52,0
75336,note_on,0,0,4,,,,,,,,0,,,48,0
75336,note_on,0,0,4,,,,,,,,0,,,60,0
75352,note_on,32,0,1,,,,,,,,0,,,79,0
75360,control_change,0,0,4,,,,,,,,0,64,0,,
75360,note_on,0,0,4,,,,,,,,0,,,56,80
75360,note_on,0,0,4,,,,,,,,0,,,41,80
75360,note_on,24,0,4,,,,,,,,0,,,48,80
75360,note_on,8,0,1,,,,,,,,0,,,92,80
75456,note_on,0,0,1,,,,,,,,0,,,80,64
75456,note_on,0,0,1,,,,,,,,0,,,80,0
75456,note_on,96,0,4,,,,,,,,0,,,41,0
75456,note_on,0,0,4,,,,,,,,0,,,56,0
75456,note_on,0,0,4,,,,,,,,0,,,48,0
75456,note_on,96,0,1,,,,,,,,0,,,92,0
75480,note_on,0,0,2,,,,,,,,0,,,74,80
75480,note_on,1328,0,3,,,,,,,,0,,,65,80
75480,note_on,24,0,1,,,,,,,,0,,,68,80
75480,note_on,1464,0,2,,,,,,,,0,,,71,80
75512,note_on,32,0,1,,,,,,,,0,,,68,0
75520,note_on,8,0,1,,,,,,,,0,,,82,80
75528,note_on,48,0,3,,,,,,,,0,,,65,0
75540,note_on,12,0,3,,,,,,,,0,,,67,80
75552,note_on,32,0,1,,,,,,,,0,,,82,0
75560,note_on,8,0,1,,,,,,,,0,,,80,80
75576,note_on,0,0,2,,,,,,,,0,,,71,0
75576,note_on,96,0,2,,,,,,,,0,,,74,0
75588,note_on,48,0,3,,,,,,,,0,,,67,0
75592,note_on,32,0,1,,,,,,,,0,,,80,0
75600,note_on,24,0,2,,,,,,,,0,,,68,80
75600,note_on,12,0,3,,,,,,,,0,,,62,80
75600,note_on,8,0,1,,,,,,,,0,,,77,80
75600,note_on,0,0,2,,,,,,,,0,,,71,80
75632,note_on,32,0,1,,,,,,,,0,,,77,0
75640,note_on,8,0,1,,,,,,,,0,,,67,80
75648,note_on,48,0,3,,,,,,,,0,,,62,0
75660,note_on,12,0,3,,,,,,,,0,,,64,80
75672,note_on,32,0,1,,,,,,,,0,,,67,0
75680,note_on,8,0,1,,,,,,,,0,,,65,80
75696,note_on,96,0,2,,,,,,,,0,,,71,0
75696,note_on,0,0,2,,,,,,,,0,,,68,0
75708,note_on,48,0,3,,,,,,,,0,,,64,0
75712,note_on,32,0,1,,,,,,,,0,,,65,0
75720,note_on,0,0,2,,,,,,,,0,,,65,80
75720,note_on,12,0,3,,,,,,,,0,,,59,80
75720,note_on,24,0,2,,,,,,,,0,,,68,80
75720,note_on,8,0,1,,,,,,,,0,,,62,80
75752,note_on,32,0,1,,,,,,,,0,,,62,0
75760,note_on,8,0,1,,,,,,,,0,,,76,80
75768,note_on,48,0,3,,,,,,,,0,,,59,0
75780,note_on,12,0,3,,,,,,,,0,,,60,80
75792,note_on,32,0,1,,,,,,,,0,,,76,0
75800,note_on,8,0,1,,,,,,,,0,,,74,80
75816,note_on,0,0,2,,,,,,,,0,,,68,0
75816,note_on,96,0,2,,,,,,,,0,,,65,0
75828,note_on,48,0,3,,,,,,,,0,,,60,0
75832,note_on,32,0,1,,,,,,,,0,,,74,0
75840,note_on,384,0,4,,,,,,,,0,,,44,80
75840,note_on,8,0,1,,,,,,,,0,,,59,80
75840,note_on,0,0,4,,,,,,,,0,,,50,80
75840,note_on,0,0,4,,,,,,,,0,,,53,80
75840,control_change,0,0,4,,,,,,,,0,64,127,,
75840,note_on,0,0,1,,,,,,,,0,,,71,80
75936,note_on,0,0,1,,,,,,,,0,,,59,0
75936,note_on,96,0,4,,,,,,,,0,,,50,0
75936,note_on,96,0,1,,,,,,,,0,,,71,0
75936,note_on,0,0,4,,,,,,,,0,,,44,0
75936,note_on,0,0,4,,,,,,,,0,,,53,0
75960,note_on,24,0,4,,,,,,,,0,,,35,84
75960,note_on,0,0,4,,,,,,,,0,,,29,84
75960,note_on,0,0,4,,,,,,,,0,,,32,84
75960,note_on,0,0,4,,,,,,,,0,,,38,84
75960,note_on,0,0,4,,,,,,,,0,,,41,84
75960,note_on,24,0,1,,,,,,,,0,,,65,84
75992,note_on,32,0,1,,,,,,,,0,,,65,0
76000,note_on,8,0,1,,,,,,,,0,,,67,85
76032,note_on,32,0,1,,,,,,,,0,,,67,0
76040,note_on,8,0,1,,,,,,,,0,,,65,86
76056,note_on,0,0,4,,,,,,,,0,,,35,0
76056,note_on,0,0,4,,,,,,,,0,,,41,0
76056,note_on,96,0,4,,,,,,,,0,,,38,0
76056,note_on,0,0,4,,,,,,,,0,,,29,0
76056,note_on,0,0,4,,,,,,,,0,,,32,0
76072,note_on,32,0,1,,,,,,,,0,,,65,0
76080,note_on,0,0,4,,,,,,,,0,,,38,88
76080,note_on,0,0,4,,,,,,,,0,,,35,88
76080,note_on,24,0,4,,,,,,,,0,,,29,88
76080,note_on,0,0,4,,,,,,,,0,,,41,88
76080,note_on,0,0,4,,,,,,,,0,,,32,88
76080,note_on,8,0,1,,,,,,,,0,,,77,88
76112,note_on,32,0,1,,,,,,,,0,,,77,0
76120,note_on,8,0,1,,,,,,,,0,,,79,89
76152,note_on,32,0,1,,,,,,,,0,,,79,0
76160,note_on,8,0,1,,,,,,,,0,,,77,90
76176,note_on,0,0,4,,,,,,,,0,,,38,0
76176,note_on,0,0,4,,,,,,,,0,,,29,0
76176,note_on,0,0,4,,,,,,,,0,,,41,0
76176,note_on,0,0,4,,,,,,,,0,,,35,0
76176,note_on,96,0,4,,,,,,,,0,,,32,0
76192,note_on,32,0,1,,,,,,,,0,,,77,0
76200,note_on,0,0,4,,,,,,,,0,,,29,91
76200,note_on,0,0,4,,,,,,,,0,,,35,91
76200,note_on,0,0,4,,,,,,,,0,,,41,91
76200,note_on,24,0,4,,,,,,,,0,,,32,91
76200,note_on,8,0,1,,,,,,,,0,,,89,91
76200,note_on,0,0,4,,,,,,,,0,,,38,91
76232,note_on,32,0,1,,,,,,,,0,,,89,0
76240,note_on,8,0,1,,,,,,,,0,,,91,93
76272,note_on,32,0,1,,,,,,,,0,,,91,0
76280,note_on,8,0,1,,,,,,,,0,,,89,94
76296,note_on,0,0,4,,,,,,,,0,,,38,0
76296,note_on,0,0,4,,,,,,,,0,,,35,0
76296,note_on,96,0,4,,,,,,,,0,,,41,0
76296,note_on,0,0,4,,,,,,,,0,,,29,0
76296,note_on,0,0,4,,,,,,,,0,,,32,0
76320,note_on,0,0,4,,,,,,,,0,,,32,80
76320,note_on,24,0,4,,,,,,,,0,,,29,80
76320,note_on,0,0,4,,,,,,,,0,,,41,80
76320,control_change,0,0,4,,,,,,,,0,64,0,,
76320,note_on,0,0,4,,,,,,,,0,,,36,80
76320,note_on,40,0,1,,,,,,,,0,,,101,95
76416,note_on,96,0,1,,,,,,,,0,,,101,0
76416,note_on,0,0,4,,,,,,,,0,,,36,0
76416,note_on,0,0,4,,,,,,,,0,,,29,0
76416,note_on,0,0,4,,,,,,,,0,,,32,0
76416,note_on,0,0,1,,,,,,,,0,,,89,0
76416,note_on,96,0,4,,,,,,,,0,,,41,0
76440,note_on,0,0,2,,,,,,,,0,,,71,80
76440,note_on,612,0,3,,,,,,,,0,,,65,80
76440,note_on,24,0,1,,,,,,,,0,,,68,80
76440,note_on,624,0,2,,,,,,,,0,,,74,80
76472,note_on,32,0,1,,,,,,,,0,,,68,0
76480,note_on,8,0,1,,,,,,,,0,,,82,80
76488,note_on,48,0,3,,,,,,,,0,,,65,0
76500,note_on,12,0,3,,,,,,,,0,,,67,80
76512,note_on,32,0,1,,,,,,,,0,,,82,0
76520,note_on,8,0,1,,,,,,,,0,,,80,80
76536,note_on,96,0,2,,,,,,,,0,,,71,0
76536,note_on,0,0,2,,,,,,,,0,,,74,0
76548,note_on,48,0,3,,,,,,,,0,,,67,0
76552,note_on,32,0,1,,,,,,,,0,,,80,0
76560,note_on,24,0,2,,,,,,,,0,,,68,80
76560,note_on,12,0,3,,,,,,,,0,,,62,80
76560,note_on,0,0,2,,,,,,,,0,,,71,80
76560,note_on,8,0,1,,,,,,,,0,,,77,80
76592,note_on,32,0,1,,,,,,,,0,,,77,0
76600,note_on,8,0,1,,,,,,,,0,,,67,80
76608,note_on,48,0,3,,,,,,,,0,,,62,0
76620,note_on,12,0,3,,,,,,,,0,,,64,80
76632,note_on,32,0,1,,,,,,,,0,,,67,0
76640,note_on,8,0,1,,,,,,,,0,,,65,80
76656,note_on,0,0,2,,,,,,,,0,,,68,0
76656,note_on,96,0,2,,,,,,,,0,,,71,0
76668,note_on,48,0,3,,,,,,,,0,,,64,0
76672,note_on,32,0,1,,,,,,,,0,,,65,0
76680,note_on,12,0,3,,,,,,,,0,,,59,80
76680,note_on,0,0,2,,,,,,,,0,,,65,80
76680,note_on,24,0,2,,,,,,,,0,,,68,80
76680,note_on,8,0,1,,,,,,,,0,,,62,80
76712,note_on,32,0,1,,,,,,,,0,,,62,0
76720,note_on,8,0,1,,,,,,,,0,,,76,80
76728,note_on,48,0,3,,,,,,,,0,,,59,0
76740,note_on,12,0,3,,,,,,,,0,,,60,80
76752,note_on,32,0,1,,,,,,,,0,,,76,0
76760,note_on,8,0,1,,,,,,,,0,,,74,80
76776,note_on,96,0,2,,,,,,,,0,,,65,0
76776,note_on,0,0,2,,,,,,,,0,,,68,0
76788,note_on,48,0,3,,,,,,,,0,,,60,0
76792,note_on,32,0,1,,,,,,,,0,,,74,0
76800,note_on,8,0,1,,,,,,,,0,,,59,80
76800,control_change,0,0,4,,,,,,,,0,64,127,,
76800,note_on,0,0,4,,,,,,,,0,,,53,80
76800,note_on,384,0,4,,,,,,,,0,,,44,80
76800,note_on,0,0,1,,,,,,,,0,,,71,80
76800,note_on,0,0,4,,,,,,,,0,,,50,80
76896,note_on,0,0,1,,,,,,,,0,,,59,0
76896,note_on,96,0,4,,,,,,,,0,,,53,0
76896,note_on,0,0,4,,,,,,,,0,,,50,0
76896,note_on,0,0,4,,,,,,,,0,,,44,0
76896,note_on,96,0,1,,,,,,,,0,,,71,0
76920,note_on,0,0,4,,,,,,,,0,,,41,84
76920,note_on,0,0,4,,,,,,,,0,,,35,84
76920,note_on,0,0,4,,,,,,,,0,,,32,84
76920,note_on,0,0,4,,,,,,,,0,,,29,84
76920,note_on,24,0,4,,,,,,,,0,,,38,84
76920,note_on,24,0,1,,,,,,,,0,,,65,84
76952,note_on,32,0,1,,,,,,,,0,,,65,0
76960,note_on,8,0,1,,,,,,,,0,,,67,85
76992,note_on,32,0,1,,,,,,,,0,,,67,0
77000,note_on,8,0,1,,,,,,,,0,,,65,86
77016,note_on,0,0,4,,,,,,,,0,,,32,0
77016,note_on,0,0,4,,,,,,,,0,,,38,0
77016,note_on,0,0,4,,,,,,,,0,,,41,0
77016,note_on,96,0,4,,,,,,,,0,,,35,0
77016,note_on,0,0,4,,,,,,,,0,,,29,0
77032,note_on,32,0,1,,,,,,,,0,,,65,0
77040,note_on,0,0,4,,,,,,,,0,,,29,88
77040,note_on,24,0,4,,,,,,,,0,,,38,88
77040,note_on,0,0,4,,,,,,,,0,,,35,88
77040,note_on,0,0,4,,,,,,,,0,,,41,88
77040,note_on,8,0,1,,,,,,,,0,,,77,88
77040,note_on,0,0,4,,,,,,,,0,,,32,88
77072,note_on,32,0,1,,,,,,,,0,,,77,0
77080,note_on,8,0,1,,,,,,,,0,,,79,89
77112,note_on,32,0,1,,,,,,,,0,,,79,0
77120,note_on,8,0,1,,,,,,,,0,,,77,90
77136,note_on,0,0,4,,,,,,,,0,,,32,0
77136,note_on,96,0,4,,,,,,,,0,,,35,0
77136,note_on,0,0,4,,,,,,,,0,,,41,0
77136,note_on,0,0,4,,,,,,,,0,,,38,0
77136,note_on,0,0,4,,,,,,,,0,,,29,0
77152,note_on,32,0,1,,,,,,,,0,,,77,0
77160,note_on,24,0,4,,,,,,,,0,,,29,91
77160,note_on,0,0,4,,,,,,,,0,,,41,91
77160,note_on,0,0,4,,,,,,,,0,,,35,91
77160,note_on,8,0,1,,,,,,,,0,,,89,91
77160,note_on,0,0,4,,,,,,,,0,,,32,91
77160,note_on,0,0,4,,,,,,,,0,,,38,91
77192,note_on,32,0,1,,,,,,,,0,,,89,0
77200,note_on,8,0,1,,,,,,,,0,,,91,93
77232,note_on,32,0,1,,,,,,,,0,,,91,0
77240,note_on,8,0,1,,,,,,,,0,,,89,94
77256,note_on,96,0,4,,,,,,,,0,,,32,0
77256,note_on,0,0,4,,,,,,,,0,,,41,0
77256,note_on,0,0,4,,,,,,,,0,,,38,0
77256,note_on,0,0,4,,,,,,,,0,,,35,0
77256,note_on,0,0,4,,,,,,,,0,,,29,0
77280,note_on,0,0,4,,,,,,,,0,,,41,80
77280,note_on,0,0,4,,,,,,,,0,,,36,80
77280,note_on,40,0,1,,,,,,,,0,,,101,100
77280,note_on,0,0,4,,,,,,,,0,,,29,80
77280,note_on,0,0,4,,,,,,,,0,,,32,80
77280,control_change,24,0,4,,,,,,,,0,64,0,,
77299,control_change,19,0,4,,,,,,,,0,64,127,,
77312,note_on,32,0,1,,,,,,,,0,,,101,0
77320,note_on,8,0,1,,,,,,,,0,,,100,100
77352,note_on,32,0,1,,,,,,,,0,,,100,0
77360,note_on,8,0,1,,,,,,,,0,,,101,100
77376,note_on,0,0,4,,,,,,,,0,,,29,0
77376,note_on,77,0,4,,,,,,,,0,,,41,0
77376,note_on,0,0,4,,,,,,,,0,,,36,0
77376,note_on,0,0,4,,,,,,,,0,,,32,0
77392,note_on,32,0,1,,,,,,,,0,,,101,0
77400,note_on,8,0,1,,,,,,,,0,,,89,100
77432,note_on,32,0,1,,,,,,,,0,,,89,0
77440,note_on,8,0,1,,,,,,,,0,,,91,100
77472,note_on,32,0,1,,,,,,,,0,,,91,0
77480,note_on,8,0,1,,,,,,,,0,,,89,100
77502,note_on,22,0,1,,,,,,,,0,,,89,0
77512,note_on,10,0,1,,,,,,,,0,,,89,0
77520,note_on,144,0,4,,,,,,,,0,,,34,80
77520,note_on,0,0,4,,,,,,,,0,,,31,80
77520,note_on,0,0,4,,,,,,,,0,,,43,80
77520,note_on,0,0,4,,,,,,,,0,,,39,80
77520,note_on,8,0,1,,,,,,,,0,,,99,100
77520,note_on,0,0,4,,,,,,,,0,,,37,80
77522,control_change,2,0,4,,,,,,,,0,64,0,,
77531,control_change,9,0,4,,,,,,,,0,64,127,,
77552,note_on,32,0,1,,,,,,,,0,,,99,0
77560,note_on,8,0,1,,,,,,,,0,,,101,100
77592,note_on,32,0,1,,,,,,,,0,,,101,0
77600,note_on,8,0,1,,,,,,,,0,,,99,100
77616,note_on,85,0,4,,,,,,,,0,,,39,0
77616,note_on,0,0,4,,,,,,,,0,,,43,0
77616,note_on,0,0,4,,,,,,,,0,,,31,0
77616,note_on,0,0,4,,,,,,,,0,,,34,0
77616,note_on,0,0,4,,,,,,,,0,,,37,0
77632,note_on,32,0,1,,,,,,,,0,,,99,0
77640,note_on,8,0,1,,,,,,,,0,,,87,100
77672,note_on,32,0,1,,,,,,,,0,,,87,0
77680,note_on,8,0,1,,,,,,,,0,,,89,100
77720,note_on,40,0,1,,,,,,,,0,,,87,100
77752,note_on,32,0,1,,,,,,,,0,,,87,0
77760,note_on,0,0,4,,,,,,,,0,,,32,100
77760,control_change,144,0,4,,,,,,,,0,64,0,,
77760,note_on,0,0,4,,,,,,,,0,,,36,100
77760,note_on,0,0,4,,,,,,,,0,,,39,100
77760,note_on,0,0,4,,,,,,,,0,,,44,100
77760,note_on,8,0,1,,,,,,,,0,,,97,100
77781,control_change,21,0,4,,,,,,,,0,64,127,,
77792,note_on,0,0,1,,,,,,,,0,,,89,0
77792,note_on,32,0,1,,,,,,,,0,,,97,0
77800,note_on,8,0,1,,,,,,,,0,,,96,100
77832,note_on,32,0,1,,,,,,,,0,,,96,0
77840,note_on,8,0,1,,,,,,,,0,,,84,100
77856,note_on,75,0,4,,,,,,,,0,,,39,0
77856,note_on,0,0,4,,,,,,,,0,,,32,0
77856,note_on,0,0,4,,,,,,,,0,,,36,0
77856,note_on,0,0,4,,,,,,,,0,,,44,0
77872,note_on,32,0,1,,,,,,,,0,,,84,0
77880,note_on,0,0,4,,,,,,,,0,,,42,100
77880,note_on,0,0,4,,,,,,,,0,,,37,100
77880,note_on,0,0,4,,,,,,,,0,,,34,100
77880,note_on,24,0,4,,,,,,,,0,,,46,100
77880,note_on,8,0,1,,,,,,,,0,,,99,100
77912,note_on,32,0,1,,,,,,,,0,,,99,0
77920,note_on,8,0,1,,,,,,,,0,,,97,100
77952,note_on,32,0,1,,,,,,,,0,,,97,0
77960,note_on,8,0,1,,,,,,,,0,,,85,100
77976,note_on,0,0,4,,,,,,,,0,,,37,0
77976,note_on,96,0,4,,,,,,,,0,,,34,0
77976,note_on,0,0,4,,,,,,,,0,,,46,0
77976,note_on,0,0,4,,,,,,,,0,,,42,0
77992,note_on,32,0,1,,,,,,,,0,,,85,0
78000,note_on,0,0,4,,,,,,,,0,,,41,100
78000,note_on,0,0,4,,,,,,,,0,,,44,100
78000,note_on,24,0,4,,,,,,,,0,,,48,100
78000,note_on,0,0,4,,,,,,,,0,,,36,100
78000,note_on,8,0,1,,,,,,,,0,,,97,100
78032,note_on,32,0,1,,,,,,,,0,,,97,0
78040,note_on,8,0,1,,,,,,,,0,,,96,100
78072,note_on,32,0,1,,,,,,,,0,,,96,0
78080,note_on,8,0,1,,,,,,,,0,,,84,100
78096,note_on,96,0,4,,,,,,,,0,,,41,0
78096,note_on,0,0,4,,,,,,,,0,,,36,0
78096,note_on,0,0,4,,,,,,,,0,,,44,0
78096,note_on,0,0,4,,,,,,,,0,,,48,0
78112,note_on,32,0,1,,,,,,,,0,,,84,0
78120,note_on,24,0,4,,,,,,,,0,,,36,100
78120,note_on,0,0,4,,,,,,,,0,,,43,100
78120,note_on,0,0,4,,,,,,,,0,,,48,100
78120,note_on,8,0,1,,,,,,,,0,,,100,100
78120,note_on,0,0,4,,,,,,,,0,,,40,100
78152,note_on,32,0,1,,,,,,,,0,,,100,0
78160,note_on,8,0,1,,,,,,,,0,,,96,100
78192,note_on,32,0,1,,,,,,,,0,,,96,0
78200,note_on,8,0,1,,,,,,,,0,,,88,100
78216,note_on,0,0,4,,,,,,,,0,,,36,0
78216,note_on,0,0,4,,,,,,,,0,,,40,0
78216,note_on,0,0,4,,,,,,,,0,,,43,0
78216,note_on,96,0,4,,,,,,,,0,,,48,0
78232,note_on,32,0,1,,,,,,,,0,,,88,0
78240,note_on,8,0,1,,,,,,,,0,,,101,100
78240,control_change,24,0,4,,,,,,,,0,64,0,,
78240,note_on,0,0,4,,,,,,,,0,,,41,100
78240,note_on,0,0,4,,,,,,,,0,,,48,100
78240,note_on,0,0,4,,,,,,,,0,,,53,100
78240,note_on,0,0,1,,,,,,,,0,,,89,100
78240,note_on,0,0,4,,,,,,,,0,,,44,100
78263,control_change,23,0,4,,,,,,,,0,64,127,,
78272,note_on,32,0,1,,,,,,,,0,,,101,0
78280,note_on,8,0,1,,,,,,,,0,,,100,100
78312,note_on,32,0,1,,,,,,,,0,,,100,0
78320,note_on,8,0,1,,,,,,,,0,,,101,100
78352,note_on,32,0,1,,,,,,,,0,,,101,0
78360,note_on,8,0,1,,,,,,,,0,,,89,100
78392,note_on,32,0,1,,,,,,,,0,,,89,0
78400,note_on,8,0,1,,,,,,,,0,,,88,100
78432,note_on,0,0,4,,,,,,,,0,,,53,0
78432,note_on,0,0,4,,,,,,,,0,,,44,0
78432,note_on,0,0,4,,,,,,,,0,,,41,0
78432,note_on,32,0,1,,,,,,,,0,,,88,0
78432,note_on,169,0,4,,,,,,,,0,,,48,0
78440,note_on,8,0,1,,,,,,,,0,,,89,100
78472,note_on,32,0,1,,,,,,,,0,,,89,0
78480,note_on,48,0,4,,,,,,,,0,,,41,100
78480,note_on,0,0,4,,,,,,,,0,,,53,100
78480,note_on,0,0,4,,,,,,,,0,,,48,100
78480,note_on,0,0,4,,,,,,,,0,,,44,100
78480,note_on,8,0,1,,,,,,,,0,,,77,100
78512,note_on,0,0,1,,,,,,,,0,,,89,0
78512,note_on,32,0,1,,,,,,,,0,,,77,0
78520,note_on,8,0,1,,,,,,,,0,,,76,100
78552,note_on,32,0,1,,,,,,,,0,,,76,0
78560,note_on,8,0,1,,,,,,,,0,,,77,100
78592,note_on,32,0,1,,,,,,,,0,,,77,0
78600,note_on,8,0,1,,,,,,,,0,,,65,100
78624,note_on,144,0,4,,,,,,,,0,,,48,0
78624,note_on,0,0,4,,,,,,,,0,,,41,0
78624,note_on,0,0,4,,,,,,,,0,,,53,0
78624,note_on,0,0,4,,,,,,,,0,,,44,0
78660,note_on,0,0,4,,,,,,,,0,,,41,100
78660,note_on,36,0,4,,,,,,,,0,,,44,100
78660,note_on,0,0,4,,,,,,,,0,,,48,100
78660,note_on,0,0,4,,,,,,,,0,,,53,100
78696,note_on,96,0,1,,,,,,,,0,,,65,0
78708,note_on,0,0,4,,,,,,,,0,,,41,0
78708,note_on,0,0,4,,,,,,,,0,,,44,0
78708,note_on,0,0,4,,,,,,,,0,,,53,0
78708,note_on,48,0,4,,,,,,,,0,,,48,0
78720,note_on,24,0,1,,,,,,,,0,,,100,100
78720,control_change,12,0,4,,,,,,,,0,64,0,,
78720,note_on,0,0,4,,,,,,,,0,,,52,100
78720,note_on,0,0,4,,,,,,,,0,,,49,100
78720,note_on,0,0,4,,,,,,,,0,,,46,100
78720,note_on,0,0,4,,,,,,,,0,,,43,100
78720,note_on,0,0,1,,,,,,,,0,,,88,100
78720,note_on,0,0,4,,,,,,,,0,,,41,100
78732,control_change,12,0,4,,,,,,,,0,64,127,,
78752,note_on,0,0,1,,,,,,,,0,,,100,0
78752,note_on,32,0,1,,,,,,,,0,,,88,0
78760,note_on,8,0,1,,,,,,,,0,,,99,100
78792,note_on,32,0,1,,,,,,,,0,,,99,0
78800,note_on,8,0,1,,,,,,,,0,,,100,100
78832,note_on,32,0,1,,,,,,,,0,,,100,0
78840,note_on,8,0,1,,,,,,,,0,,,88,100
78872,note_on,32,0,1,,,,,,,,0,,,88,0
78880,note_on,8,0,1,,,,,,,,0,,,87,100
78912,note_on,32,0,1,,,,,,,,0,,,87,0
78920,note_on,8,0,1,,,,,,,,0,,,88,100
78952,note_on,32,0,1,,,,,,,,0,,,88,0
78960,note_on,8,0,1,,,,,,,,0,,,76,100
78960,note_on,2172,0,3,,,,,,,,0,,,29,80
78992,note_on,32,0,1,,,,,,,,0,,,76,0
79000,note_on,8,0,1,,,,,,,,0,,,75,100
79008,note_on,0,0,4,,,,,,,,0,,,43,0
79008,note_on,0,0,4,,,,,,,,0,,,52,0
79008,note_on,0,0,4,,,,,,,,0,,,46,0
79008,note_on,0,0,4,,,,,,,,0,,,41,0
79008,note_on,276,0,4,,,,,,,,0,,,49,0
79032,note_on,32,0,1,,,,,,,,0,,,75,0
79040,note_on,8,0,1,,,,,,,,0,,,76,100
79072,note_on,32,0,1,,,,,,,,0,,,76,0
79080,note_on,72,0,4,,,,,,,,0,,,49,100
79080,note_on,0,0,4,,,,,,,,0,,,41,100
79080,note_on,0,0,4,,,,,,,,0,,,43,100
79080,note_on,0,0,4,,,,,,,,0,,,52,100
79080,note_on,8,0,1,,,,,,,,0,,,64,100
79080,note_on,0,0,4,,,,,,,,0,,,46,100
79152,note_on,192,0,3,,,,,,,,0,,,29,0
79176,note_on,0,0,4,,,,,,,,0,,,49,0
79176,note_on,96,0,1,,,,,,,,0,,,64,0
79176,note_on,96,0,4,,,,,,,,0,,,43,0
79176,note_on,0,0,4,,,,,,,,0,,,52,0
79176,note_on,0,0,4,,,,,,,,0,,,46,0
79176,note_on,0,0,4,,,,,,,,0,,,41,0
79200,note_on,0,0,4,,,,,,,,0,,,42,100
79200,note_on,0,0,4,,,,,,,,0,,,41,100
79200,note_on,0,0,4,,,,,,,,0,,,45,100
79200,note_on,24,0,1,,,,,,,,0,,,99,100
79200,control_change,0,0,4,,,,,,,,0,64,0,,
79200,note_on,0,0,4,,,,,,,,0,,,51,100
79200,note_on,0,0,1,,,,,,,,0,,,87,100
79200,note_on,24,0,4,,,,,,,,0,,,48,100
79218,control_change,18,0,4,,,,,,,,0,64,127,,
79232,note_on,32,0,1,,,,,,,,0,,,87,0
79232,note_on,0,0,1,,,,,,,,0,,,99,0
79240,note_on,8,0,1,,,,,,,,0,,,98,100
79272,note_on,32,0,1,,,,,,,,0,,,98,0
79280,note_on,8,0,1,,,,,,,,0,,,99,100
79296,note_on,0,0,4,,,,,,,,0,,,41,0
79296,note_on,0,0,4,,,,,,,,0,,,45,0
79296,note_on,0,0,4,,,,,,,,0,,,48,0
79296,note_on,0,0,4,,,,,,,,0,,,51,0
79296,note_on,78,0,4,,,,,,,,0,,,42,0
79312,note_on,32,0,1,,,,,,,,0,,,99,0
79320,note_on,24,0,4,,,,,,,,0,,,41,100
79320,note_on,0,0,4,,,,,,,,0,,,48,100
79320,note_on,0,0,4,,,,,,,,0,,,51,100
79320,note_on,0,0,4,,,,,,,,0,,,45,100
79320,note_on,0,0,4,,,,,,,,0,,,42,100
79320,note_on,8,0,1,,,,,,,,0,,,87,100
79352,note_on,32,0,1,,,,,,,,0,,,87,0
79360,note_on,8,0,1,,,,,,,,0,,,86,100
79392,note_on,32,0,1,,,,,,,,0,,,86,0
79400,note_on,8,0,1,,,,,,,,0,,,87,100
79416,note_on,0,0,4,,,,,,,,0,,,48,0
79416,note_on,0,0,4,,,,,,,,0,,,41,0
79416,note_on,96,0,4,,,,,,,,0,,,42,0
79416,note_on,0,0,4,,,,,,,,0,,,51,0
79416,note_on,0,0,4,,,,,,,,0,,,45,0
79432,note_on,32,0,1,,,,,,,,0,,,87,0
79440,note_on,0,0,4,,,,,,,,0,,,41,100
79440,note_on,0,0,4,,,,,,,,0,,,45,100
79440,note_on,0,0,4,,,,,,,,0,,,48,100
79440,note_on,24,0,4,,,,,,,,0,,,53,100
79440,note_on,8,0,1,,,,,,,,0,,,75,100
79472,note_on,32,0,1,,,,,,,,0,,,75,0
79480,note_on,8,0,1,,,,,,,,0,,,74,100
79512,note_on,32,0,1,,,,,,,,0,,,74,0
79520,note_on,8,0,1,,,,,,,,0,,,75,100
79536,note_on,96,0,4,,,,,,,,0,,,45,0
79536,note_on,0,0,4,,,,,,,,0,,,53,0
79536,note_on,0,0,4,,,,,,,,0,,,48,0
79536,note_on,0,0,4,,,,,,,,0,,,41,0
79552,note_on,32,0,1,,,,,,,,0,,,75,0
79560,note_on,8,0,1,,,,,,,,0,,,63,100
79560,note_on,0,0,4,,,,,,,,0,,,54,100
79560,note_on,0,0,4,,,,,,,,0,,,48,100
79560,note_on,0,0,4,,,,,,,,0,,,41,100
79560,note_on,24,0,4,,,,,,,,0,,,45,100
79656,note_on,0,0,4,,,,,,,,0,,,41,0
79656,note_on,0,0,4,,,,,,,,0,,,45,0
79656,note_on,0,0,4,,,,,,,,0,,,54,0
79656,note_on,96,0,1,,,,,,,,0,,,63,0
79656,note_on,96,0,4,,,,,,,,0,,,48,0
79680,note_on,0,0,1,,,,,,,,0,,,86,100
79680,note_on,24,0,1,,,,,,,,0,,,98,100
79680,control_change,24,0,4,,,,,,,,0,64,0,,
79680,note_on,0,0,4,,,,,,,,0,,,41,100
79680,note_on,0,0,4,,,,,,,,0,,,47,100
79680,note_on,0,0,4,,,,,,,,0,,,56,100
79696,control_change,16,0,4,,,,,,,,0,64,127,,
79710,note_on,14,0,4,,,,,,,,0,,,50,100
79712,note_on,32,0,1,,,,,,,,0,,,86,0
79712,note_on,0,0,1,,,,,,,,0,,,98,0
79720,note_on,8,0,1,,,,,,,,0,,,97,100
79734,note_on,24,0,4,,,,,,,,0,,,50,0
79734,note_on,0,0,4,,,,,,,,0,,,47,0
79740,note_on,6,0,4,,,,,,,,0,,,47,100
79752,note_on,32,0,1,,,,,,,,0,,,97,0
79760,note_on,8,0,1,,,,,,,,0,,,98,100
79788,note_on,0,0,4,,,,,,,,0,,,41,0
79788,note_on,0,0,4,,,,,,,,0,,,56,0
79788,note_on,48,0,4,,,,,,,,0,,,47,0
79792,note_on,32,0,1,,,,,,,,0,,,98,0
79800,note_on,8,0,1,,,,,,,,0,,,86,100
79832,note_on,32,0,1,,,,,,,,0,,,86,0
79840,note_on,8,0,1,,,,,,,,0,,,85,100
79872,note_on,32,0,1,,,,,,,,0,,,85,0
79880,note_on,8,0,1,,,,,,,,0,,,86,100
79912,note_on,32,0,1,,,,,,,,0,,,86,0
79920,note_on,768,0,3,,,,,,,,0,,,29,80
79920,note_on,8,0,1,,,,,,,,0,,,74,100
79952,note_on,32,0,1,,,,,,,,0,,,74,0
79960,note_on,8,0,1,,,,,,,,0,,,73,100
79992,note_on,32,0,1,,,,,,,,0,,,73,0
80000,note_on,8,0,1,,,,,,,,0,,,74,100
80032,note_on,32,0,1,,,,,,,,0,,,74,0
80040,note_on,8,0,1,,,,,,,,0,,,62,100
80112,note_on,192,0,3,,,,,,,,0,,,29,0
80136,note_on,96,0,1,,,,,,,,0,,,62,0
80160,note_on,24,0,1,,,,,,,,0,,,85,100
80160,note_on,0,0,4,,,,,,,,0,,,46,100
80160,note_on,0,0,4,,,,,,,,0,,,40,100
80160,control_change,372,0,4,,,,,,,,0,64,0,,
80160,note_on,0,0,1,,,,,,,,0,,,97,100
80160,note_on,0,0,4,,,,,,,,0,,,49,100
80160,note_on,0,0,4,,,,,,,,0,,,43,100
80169,control_change,9,0,4,,,,,,,,0,64,127,,
80192,note_on,0,0,1,,,,,,,,0,,,85,0
80192,note_on,32,0,1,,,,,,,,0,,,97,0
80200,note_on,8,0,1,,,,,,,,0,,,96,100
80232,note_on,32,0,1,,,,,,,,0,,,96,0
80240,note_on,8,0,1,,,,,,,,0,,,97,100
80272,note_on,32,0,1,,,,,,,,0,,,97,0
80280,note_on,8,0,1,,,,,,,,0,,,85,100
80312,note_on,32,0,1,,,,,,,,0,,,85,0
80320,note_on,8,0,1,,,,,,,,0,,,84,100
80352,note_on,0,0,4,,,,,,,,0,,,40,0
80352,note_on,183,0,4,,,,,,,,0,,,46,0
80352,note_on,32,0,1,,,,,,,,0,,,84,0
80352,note_on,0,0,4,,,,,,,,0,,,43,0
80352,note_on,0,0,4,,,,,,,,0,,,49,0
80360,note_on,8,0,1,,,,,,,,0,,,85,100
80392,note_on,32,0,1,,,,,,,,0,,,85,0
80400,note_on,0,0,4,,,,,,,,0,,,46,100
80400,note_on,0,0,4,,,,,,,,0,,,43,100
80400,note_on,0,0,4,,,,,,,,0,,,40,100
80400,note_on,8,0,1,,,,,,,,0,,,73,100
80400,note_on,48,0,4,,,,,,,,0,,,49,100
80432,note_on,32,0,1,,,,,,,,0,,,73,0
80440,note_on,8,0,1,,,,,,,,0,,,72,100
80472,note_on,32,0,1,,,,,,,,0,,,72,0
80480,note_on,8,0,1,,,,,,,,0,,,73,100
80512,note_on,32,0,1,,,,,,,,0,,,73,0
80520,note_on,8,0,1,,,,,,,,0,,,61,100
80544,note_on,0,0,4,,,,,,,,0,,,49,0
80544,note_on,0,0,4,,,,,,,,0,,,46,0
80544,note_on,0,0,4,,,,,,,,0,,,40,0
80544,note_on,144,0,4,,,,,,,,0,,,43,0
80580,note_on,0,0,4,,,,,,,,0,,,46,100
80580,note_on,36,0,4,,,,,,,,0,,,49,100
80580,note_on,0,0,4,,,,,,,,0,,,40,100
80580,note_on,0,0,4,,,,,,,,0,,,43,100
80616,note_on,96,0,1,,,,,,,,0,,,61,0
80628,note_on,0,0,4,,,,,,,,0,,,49,0
80628,note_on,48,0,4,,,,,,,,0,,,40,0
80628,note_on,0,0,4,,,,,,,,0,,,43,0
80628,note_on,0,0,4,,,,,,,,0,,,46,0
80640,note_on,0,0,4,,,,,,,,0,,,42,100
80640,note_on,0,0,1,,,,,,,,0,,,96,100
80640,note_on,0,0,4,,,,,,,,0,,,45,100
80640,note_on,12,0,4,,,,,,,,0,,,48,100
80640,note_on,0,0,4,,,,,,,,0,,,39,100
80640,note_on,24,0,1,,,,,,,,0,,,84,100
80649,control_change,9,0,4,,,,,,,,0,64,0,,
80652,control_change,3,0,4,,,,,,,,0,64,127,,
80672,note_on,0,0,1,,,,,,,,0,,,84,0
80672,note_on,32,0,1,,,,,,,,0,,,96,0
80680,note_on,8,0,1,,,,,,,,0,,,95,100
80712,note_on,32,0,1,,,,,,,,0,,,95,0
80720,note_on,8,0,1,,,,,,,,0,,,96,100
80752,note_on,32,0,1,,,,,,,,0,,,96,0
80760,note_on,8,0,1,,,,,,,,0,,,84,100
80792,note_on,32,0,1,,,,,,,,0,,,84,0
80800,note_on,8,0,1,,,,,,,,0,,,83,100
80832,note_on,32,0,1,,,,,,,,0,,,83,0
80832,note_on,0,0,4,,,,,,,,0,,,39,0
80832,note_on,0,0,4,,,,,,,,0,,,48,0
80832,note_on,180,0,4,,,,,,,,0,,,45,0
80832,note_on,0,0,4,,,,,,,,0,,,42,0
80840,note_on,8,0,1,,,,,,,,0,,,84,100
80872,note_on,32,0,1,,,,,,,,0,,,84,0
80880,note_on,768,0,3,,,,,,,,0,,,29,100
80880,note_on,8,0,1,,,,,,,,0,,,72,100
80912,note_on,32,0,1,,,,,,,,0,,,72,0
80920,note_on,8,0,1,,,,,,,,0,,,71,100
80952,note_on,32,0,1,,,,,,,,0,,,71,0
80960,note_on,8,0,1,,,,,,,,0,,,72,100
80992,note_on,32,0,1,,,,,,,,0,,,72,0
81000,note_on,168,0,4,,,,,,,,0,,,48,100
81000,note_on,8,0,1,,,,,,,,0,,,60,100
81000,note_on,0,0,4,,,,,,,,0,,,39,100
81000,note_on,0,0,4,,,,,,,,0,,,42,100
81000,note_on,0,0,4,,,,,,,,0,,,45,100
81072,note_on,192,0,3,,,,,,,,0,,,29,0
81096,note_on,96,0,4,,,,,,,,0,,,39,0
81096,note_on,0,0,4,,,,,,,,0,,,42,0
81096,note_on,0,0,4,,,,,,,,0,,,45,0
81096,note_on,0,0,4,,,,,,,,0,,,48,0
81096,note_on,96,0,1,,,,,,,,0,,,60,0
81120,note_on,0,0,1,,,,,,,,0,,,95,100
81120,note_on,0,0,4,,,,,,,,0,,,38,100
81120,note_on,0,0,4,,,,,,,,0,,,41,100
81120,note_on,24,0,1,,,,,,,,0,,,83,100
81120,note_on,24,0,4,,,,,,,,0,,,44,100
81120,note_on,0,0,4,,,,,,,,0,,,47,100
81129,control_change,9,0,4,,,,,,,,0,64,127,,
81132,control_change,3,0,4,,,,,,,,0,64,0,,
81152,note_on,32,0,1,,,,,,,,0,,,95,0
81152,note_on,0,0,1,,,,,,,,0,,,83,0
81160,note_on,8,0,1,,,,,,,,0,,,94,100
81192,note_on,32,0,1,,,,,,,,0,,,94,0
81200,note_on,8,0,1,,,,,,,,0,,,95,100
81216,note_on,0,0,4,,,,,,,,0,,,44,0
81216,note_on,84,0,4,,,,,,,,0,,,47,0
81216,note_on,0,0,4,,,,,,,,0,,,38,0
81216,note_on,0,0,4,,,,,,,,0,,,41,0
81232,note_on,32,0,1,,,,,,,,0,,,95,0
81240,note_on,0,0,4,,,,,,,,0,,,41,100
81240,note_on,8,0,1,,,,,,,,0,,,83,100
81240,note_on,24,0,4,,,,,,,,0,,,44,100
81240,note_on,0,0,4,,,,,,,,0,,,47,100
81240,note_on,0,0,4,,,,,,,,0,,,38,100
81272,note_on,32,0,1,,,,,,,,0,,,83,0
81280,note_on,8,0,1,,,,,,,,0,,,82,100
81312,note_on,32,0,1,,,,,,,,0,,,82,0
81320,note_on,8,0,1,,,,,,,,0,,,83,100
81336,note_on,0,0,4,,,,,,,,0,,,44,0
81336,note_on,96,0,4,,,,,,,,0,,,38,0
81336,note_on,0,0,4,,,,,,,,0,,,47,0
81336,note_on,0,0,4,,,,,,,,0,,,41,0
81352,note_on,32,0,1,,,,,,,,0,,,83,0
81360,note_on,0,0,4,,,,,,,,0,,,41,100
81360,note_on,0,0,4,,,,,,,,0,,,44,100
81360,note_on,8,0,1,,,,,,,,0,,,71,100
81360,note_on,24,0,4,,,,,,,,0,,,48,100
81360,note_on,0,0,4,,,,,,,,0,,,38,100
81392,note_on,32,0,1,,,,,,,,0,,,71,0
81400,note_on,8,0,1,,,,,,,,0,,,70,100
81432,note_on,32,0,1,,,,,,,,0,,,70,0
81440,note_on,8,0,1,,,,,,,,0,,,71,100
81456,note_on,0,0,4,,,,,,,,0,,,44,0
81456,note_on,0,0,4,,,,,,,,0,,,48,0
81456,note_on,96,0,4,,,,,,,,0,,,41,0
81456,note_on,0,0,4,,,,,,,,0,,,38,0
81472,note_on,32,0,1,,,,,,,,0,,,71,0
81480,note_on,0,0,4,,,,,,,,0,,,50,100
81480,note_on,0,0,4,,,,,,,,0,,,41,100
81480,note_on,0,0,4,,,,,,,,0,,,44,100
81480,note_on,8,0,1,,,,,,,,0,,,59,100
81480,note_on,24,0,4,,,,,,,,0,,,38,100
81576,note_on,0,0,4,,,,,,,,0,,,44,0
81576,note_on,96,0,4,,,,,,,,0,,,41,0
81576,note_on,96,0,1,,,,,,,,0,,,59,0
81576,note_on,0,0,4,,,,,,,,0,,,50,0
81576,note_on,0,0,4,,,,,,,,0,,,38,0
81600,note_on,24,0,4,,,,,,,,0,,,37,100
81600,note_on,24,0,1,,,,,,,,0,,,94,100
81600,note_on,0,0,4,,,,,,,,0,,,52,100
81600,note_on,0,0,1,,,,,,,,0,,,82,100
81600,note_on,0,0,4,,,,,,,,0,,,43,100
81609,control_change,9,0,4,,,,,,,,0,64,0,,
81611,control_change,2,0,4,,,,,,,,0,64,127,,
81630,note_on,19,0,4,,,,,,,,0,,,46,100
81632,note_on,32,0,1,,,,,,,,0,,,82,0
81632,note_on,0,0,1,,,,,,,,0,,,94,0
81640,note_on,8,0,1,,,,,,,,0,,,93,100
81654,note_on,24,0,4,,,,,,,,0,,,43,0
81660,note_on,6,0,4,,,,,,,,0,,,43,100
81672,note_on,32,0,1,,,,,,,,0,,,93,0
81680,note_on,8,0,1,,,,,,,,0,,,94,100
81684,note_on,0,0,4,,,,,,,,0,,,52,0
81684,note_on,0,0,4,,,,,,,,0,,,46,0
81684,note_on,0,0,4,,,,,,,,0,,,37,0
81684,note_on,24,0,4,,,,,,,,0,,,43,0
81712,note_on,32,0,1,,,,,,,,0,,,94,0
81720,note_on,8,0,1,,,,,,,,0,,,82,100
81752,note_on,32,0,1,,,,,,,,0,,,82,0
81760,note_on,8,0,1,,,,,,,,0,,,81,100
81792,note_on,32,0,1,,,,,,,,0,,,81,0
81800,note_on,8,0,1,,,,,,,,0,,,82,100
81832,note_on,32,0,1,,,,,,,,0,,,82,0
81840,note_on,8,0,1,,,,,,,,0,,,70,100
81840,note_on,768,0,3,,,,,,,,0,,,29,100
81872,note_on,32,0,1,,,,,,,,0,,,70,0
81880,note_on,8,0,1,,,,,,,,0,,,69,100
81912,note_on,32,0,1,,,,,,,,0,,,69,0
81920,note_on,8,0,1,,,,,,,,0,,,70,100
81952,note_on,32,0,1,,,,,,,,0,,,70,0
81960,note_on,8,0,1,,,,,,,,0,,,58,100
82032,note_on,192,0,3,,,,,,,,0,,,29,0
82056,note_on,96,0,1,,,,,,,,0,,,58,0
82080,note_on,0,0,4,,,,,,,,0,,,39,100
82080,note_on,24,0,1,,,,,,,,0,,,93,100
82080,note_on,0,0,4,,,,,,,,0,,,36,100
82080,note_on,0,0,4,,,,,,,,0,,,45,100
82080,note_on,0,0,1,,,,,,,,0,,,81,100
82080,control_change,0,0,4,,,,,,,,0,64,0,,
82080,note_on,396,0,4,,,,,,,,0,,,42,100
82089,control_change,9,0,4,,,,,,,,0,64,127,,
82112,note_on,32,0,1,,,,,,,,0,,,81,0
82112,note_on,0,0,1,,,,,,,,0,,,93,0
82120,note_on,8,0,1,,,,,,,,0,,,92,100
82152,note_on,32,0,1,,,,,,,,0,,,92,0
82160,note_on,8,0,1,,,,,,,,0,,,93,100
82176,note_on,0,0,4,,,,,,,,0,,,36,0
82176,note_on,0,0,4,,,,,,,,0,,,39,0
82176,note_on,0,0,4,,,,,,,,0,,,42,0
82176,note_on,87,0,4,,,,,,,,0,,,45,0
82192,note_on,32,0,1,,,,,,,,0,,,93,0
82200,note_on,8,0,1,,,,,,,,0,,,81,100
82200,note_on,0,0,4,,,,,,,,0,,,45,100
82200,note_on,0,0,4,,,,,,,,0,,,36,100
82200,note_on,0,0,4,,,,,,,,0,,,39,100
82200,note_on,24,0,4,,,,,,,,0,,,42,100
82232,note_on,32,0,1,,,,,,,,0,,,81,0
82240,note_on,8,0,1,,,,,,,,0,,,80,100
82272,note_on,32,0,1,,,,,,,,0,,,80,0
82280,note_on,8,0,1,,,,,,,,0,,,81,100
82296,note_on,0,0,4,,,,,,,,0,,,42,0
82296,note_on,0,0,4,,,,,,,,0,,,36,0
82296,note_on,0,0,4,,,,,,,,0,,,45,0
82296,note_on,96,0,4,,,,,,,,0,,,39,0
82312,note_on,32,0,1,,,,,,,,0,,,81,0
82320,note_on,8,0,1,,,,,,,,0,,,69,100
82320,note_on,0,0,4,,,,,,,,0,,,36,100
82320,note_on,24,0,4,,,,,,,,0,,,39,100
82320,note_on,0,0,4,,,,,,,,0,,,42,100
82320,note_on,0,0,4,,,,,,,,0,,,47,100
82352,note_on,32,0,1,,,,,,,,0,,,69,0
82360,note_on,8,0,1,,,,,,,,0,,,68,100
82392,note_on,32,0,1,,,,,,,,0,,,68,0
82400,note_on,8,0,1,,,,,,,,0,,,69,100
82416,note_on,0,0,4,,,,,,,,0,,,39,0
82416,note_on,0,0,4,,,,,,,,0,,,36,0
82416,note_on,0,0,4,,,,,,,,0,,,47,0
82416,note_on,96,0,4,,,,,,,,0,,,42,0
82432,note_on,32,0,1,,,,,,,,0,,,69,0
82440,note_on,0,0,4,,,,,,,,0,,,42,100
82440,note_on,0,0,4,,,,,,,,0,,,39,100
82440,note_on,24,0,4,,,,,,,,0,,,48,100
82440,note_on,0,0,4,,,,,,,,0,,,36,100
82440,note_on,8,0,1,,,,,,,,0,,,57,100
82536,note_on,0,0,4,,,,,,,,0,,,36,0
82536,note_on,0,0,4,,,,,,,,0,,,42,0
82536,note_on,0,0,4,,,,,,,,0,,,48,0
82536,note_on,96,0,1,,,,,,,,0,,,57,0
82536,note_on,96,0,4,,,,,,,,0,,,39,0
82560,note_on,24,0,1,,,,,,,,0,,,92,100
82560,note_on,24,0,4,,,,,,,,0,,,50,100
82560,note_on,0,0,4,,,,,,,,0,,,35,100
82560,note_on,0,0,4,,,,,,,,0,,,41,100
82560,control_change,0,0,4,,,,,,,,0,64,0,,
82560,note_on,0,0,1,,,,,,,,0,,,80,100
82572,control_change,12,0,4,,,,,,,,0,64,127,,
82584,note_on,12,0,4,,,,,,,,0,,,41,0
82590,note_on,6,0,4,,,,,,,,0,,,44,100
82592,note_on,32,0,1,,,,,,,,0,,,80,0
82592,note_on,0,0,1,,,,,,,,0,,,92,0
82600,note_on,8,0,1,,,,,,,,0,,,91,100
82614,note_on,24,0,4,,,,,,,,0,,,44,0
82620,note_on,6,0,4,,,,,,,,0,,,41,100
82632,note_on,32,0,1,,,,,,,,0,,,91,0
82640,note_on,8,0,1,,,,,,,,0,,,92,100
82668,note_on,0,0,4,,,,,,,,0,,,35,0
82668,note_on,48,0,4,,,,,,,,0,,,41,0
82668,note_on,0,0,4,,,,,,,,0,,,50,0
82672,note_on,32,0,1,,,,,,,,0,,,92,0
82680,note_on,8,0,1,,,,,,,,0,,,80,100
82728,note_on,48,0,1,,,,,,,,0,,,80,0
82740,note_on,12,0,1,,,,,,,,0,,,68,100
82788,note_on,48,0,1,,,,,,,,0,,,68,0
82800,note_on,12,0,1,,,,,,,,0,,,89,100
82800,note_on,768,0,3,,,,,,,,0,,,29,100
82800,note_on,0,0,1,,,,,,,,0,,,77,100
82809,control_change,141,0,4,,,,,,,,0,64,0,,
82832,note_on,32,0,1,,,,,,,,0,,,77,0
82840,note_on,8,0,1,,,,,,,,0,,,88,100
82872,note_on,32,0,1,,,,,,,,0,,,88,0
82880,note_on,8,0,1,,,,,,,,0,,,89,100
82912,note_on,0,0,1,,,,,,,,0,,,89,0
82912,note_on,32,0,1,,,,,,,,0,,,89,0
82920,note_on,8,0,1,,,,,,,,0,,,77,100
82968,note_on,48,0,1,,,,,,,,0,,,77,0
82980,note_on,12,0,1,,,,,,,,0,,,65,100
82992,note_on,192,0,3,,,,,,,,0,,,29,0
83028,note_on,48,0,1,,,,,,,,0,,,65,0
83040,note_on,12,0,1,,,,,,,,0,,,86,100
83040,note_on,231,0,4,,,,,,,,0,,,38,100
83040,note_on,0,0,1,,,,,,,,0,,,74,100
83040,note_on,0,0,4,,,,,,,,0,,,47,100
83040,note_on,0,0,4,,,,,,,,0,,,41,100
83047,control_change,7,0,4,,,,,,,,0,64,127,,
83064,note_on,17,0,4,,,,,,,,0,,,41,0
83070,note_on,6,0,4,,,,,,,,0,,,44,100
83072,note_on,0,0,1,,,,,,,,0,,,86,0
83072,note_on,32,0,1,,,,,,,,0,,,74,0
83080,note_on,8,0,1,,,,,,,,0,,,85,100
83094,note_on,24,0,4,,,,,,,,0,,,44,0
83100,note_on,6,0,4,,,,,,,,0,,,41,100
83112,note_on,32,0,1,,,,,,,,0,,,85,0
83120,note_on,8,0,1,,,,,,,,0,,,86,100
83152,note_on,32,0,1,,,,,,,,0,,,86,0
83160,note_on,8,0,1,,,,,,,,0,,,74,100
83196,note_on,0,0,4,,,,,,,,0,,,38,0
83196,note_on,96,0,4,,,,,,,,0,,,41,0
83196,note_on,0,0,4,,,,,,,,0,,,47,0
83208,note_on,48,0,1,,,,,,,,0,,,74,0
83220,note_on,12,0,1,,,,,,,,0,,,62,100
83268,note_on,48,0,1,,,,,,,,0,,,62,0
83280,note_on,288,0,3,,,,,,,,0,,,29,100
83280,note_on,12,0,1,,,,,,,,0,,,71,100
83280,note_on,0,0,1,,,,,,,,0,,,83,100
83284,control_change,88,0,4,,,,,,,,0,64,0,,
83312,note_on,0,0,1,,,,,,,,0,,,71,0
83312,note_on,32,0,1,,,,,,,,0,,,83,0
83320,note_on,8,0,1,,,,,,,,0,,,82,100
83352,note_on,32,0,1,,,,,,,,0,,,82,0
83360,note_on,8,0,1,,,,,,,,0,,,83,100
83392,note_on,32,0,1,,,,,,,,0,,,83,0
83400,note_on,8,0,1,,,,,,,,0,,,71,100
83448,note_on,48,0,1,,,,,,,,0,,,71,0
83460,note_on,12,0,1,,,,,,,,0,,,59,100
83472,note_on,192,0,3,,,,,,,,0,,,29,0
83508,note_on,48,0,1,,,,,,,,0,,,59,0
83520,note_on,0,0,4,,,,,,,,0,,,44,100
83520,note_on,0,0,1,,,,,,,,0,,,80,100
83520,note_on,0,0,4,,,,,,,,0,,,38,100
83520,note_on,12,0,1,,,,,,,,0,,,68,100
83520,note_on,236,0,4,,,,,,,,0,,,35,100
83531,control_change,11,0,4,,,,,,,,0,64,127,,
83544,note_on,0,0,4,,,,,,,,0,,,38,0
83544,note_on,13,0,4,,,,,,,,0,,,44,0
83544,note_on,0,0,4,,,,,,,,0,,,35,0
83550,note_on,6,0,4,,,,,,,,0,,,41,100
83574,note_on,24,0,4,,,,,,,,0,,,41,0
83580,note_on,6,0,4,,,,,,,,0,,,38,99
83584,note_on,64,0,1,,,,,,,,0,,,80,0
83584,note_on,0,0,1,,,,,,,,0,,,68,0
83600,note_on,128,0,3,,,,,,,,0,,,56,99
83628,note_on,48,0,4,,,,,,,,0,,,38,0
83664,note_on,64,0,3,,,,,,,,0,,,56,0
83680,note_on,96,0,1,,,,,,,,0,,,77,98
83680,note_on,0,0,1,,,,,,,,0,,,65,98
83744,note_on,0,0,1,,,,,,,,0,,,77,0
83744,note_on,64,0,1,,,,,,,,0,,,65,0
83760,note_on,0,0,4,,,,,,,,0,,,32,97
83760,note_on,0,0,4,,,,,,,,0,,,36,97
83760,control_change,132,0,4,,,,,,,,0,64,0,,
83760,note_on,0,0,4,,,,,,,,0,,,41,97
83760,note_on,96,0,3,,,,,,,,0,,,53,97
83778,control_change,18,0,4,,,,,,,,0,64,127,,
83784,note_on,0,0,4,,,,,,,,0,,,41,0
83784,note_on,0,0,4,,,,,,,,0,,,36,0
83784,note_on,6,0,4,,,,,,,,0,,,32,0
83790,note_on,6,0,4,,,,,,,,0,,,38,97
83814,note_on,24,0,4,,,,,,,,0,,,38,0
83820,note_on,6,0,4,,,,,,,,0,,,35,97
83824,note_on,64,0,3,,,,,,,,0,,,53,0
83840,note_on,0,0,1,,,,,,,,0,,,62,97
83840,note_on,96,0,1,,,,,,,,0,,,74,97
83868,note_on,48,0,4,,,,,,,,0,,,35,0
83904,note_on,64,0,1,,,,,,,,0,,,62,0
83904,note_on,0,0,1,,,,,,,,0,,,74,0
83920,note_on,96,0,3,,,,,,,,0,,,50,96
83984,note_on,64,0,3,,,,,,,,0,,,50,0
84000,control_change,0,0,4,,,,,,,,0,64,0,,
84000,note_on,0,0,1,,,,,,,,0,,,71,95
84000,note_on,96,0,1,,,,,,,,0,,,59,95
84000,note_on,132,0,4,,,,,,,,0,,,32,95
84000,note_on,0,0,4,,,,,,,,0,,,41,95
84000,note_on,0,0,4,,,,,,,,0,,,29,95
84017,control_change,17,0,4,,,,,,,,0,64,127,,
84024,note_on,0,0,4,,,,,,,,0,,,32,0
84024,note_on,0,0,4,,,,,,,,0,,,29,0
84024,note_on,7,0,4,,,,,,,,0,,,41,0
84030,note_on,6,0,4,,,,,,,,0,,,38,95
84054,note_on,24,0,4,,,,,,,,0,,,38,0
84060,note_on,6,0,4,,,,,,,,0,,,35,94
84064,note_on,0,0,1,,,,,,,,0,,,59,0
84064,note_on,64,0,1,,,,,,,,0,,,71,0
84080,note_on,96,0,3,,,,,,,,0,,,47,94
84108,note_on,48,0,4,,,,,,,,0,,,35,0
84144,note_on,64,0,3,,,,,,,,0,,,47,0
84160,note_on,96,0,1,,,,,,,,0,,,56,93
84160,note_on,0,0,1,,,,,,,,0,,,68,93
84224,note_on,64,0,1,,,,,,,,0,,,68,0
84224,note_on,0,0,1,,,,,,,,0,,,56,0
84240,note_on,132,0,4,,,,,,,,0,,,29,92
84240,note_on,0,0,4,,,,,,,,0,,,41,92
84240,note_on,96,0,3,,,,,,,,0,,,44,92
84240,note_on,0,0,4,,,,,,,,0,,,32,92
84244,control_change,4,0,4,,,,,,,,0,64,0,,
84256,control_change,12,0,4,,,,,,,,0,64,127,,
84264,note_on,0,0,4,,,,,,,,0,,,32,0
84264,note_on,8,0,4,,,,,,,,0,,,41,0
84264,note_on,0,0,4,,,,,,,,0,,,29,0
84270,note_on,6,0,4,,,,,,,,0,,,38,92
84294,note_on,24,0,4,,,,,,,,0,,,38,0
84300,note_on,6,0,4,,,,,,,,0,,,35,92
84304,note_on,64,0,3,,,,,,,,0,,,44,0
84320,note_on,0,0,1,,,,,,,,0,,,65,92
84320,note_on,96,0,1,,,,,,,,0,,,53,92
84348,note_on,48,0,4,,,,,,,,0,,,35,0
84384,note_on,64,0,1,,,,,,,,0,,,65,0
84384,note_on,0,0,1,,,,,,,,0,,,53,0
84400,note_on,96,0,3,,,,,,,,0,,,44,91
84464,note_on,64,0,3,,,,,,,,0,,,44,0
84478,set_tempo,12006,1,0,,,,,,579822,,,,,,
84480,note_on,0,0,4,,,,,,,,0,,,29,81
84480,note_on,0,0,3,,,,,,,,0,,,62,90
84480,control_change,132,0,4,,,,,,,,0,64,0,,
84480,note_on,16,0,3,,,,,,,,0,,,50,90
84495,note_on,15,0,4,,,,,,,,0,,,32,81
84504,set_tempo,26,1,0,,,,,,583998,,,,,,
84505,control_change,10,0,4,,,,,,,,0,64,127,,
84510,note_on,0,0,4,,,,,,,,0,,,38,81
84510,note_on,0,0,4,,,,,,,,0,,,35,81
84510,note_on,5,0,4,,,,,,,,0,,,39,81
84513,set_tempo,9,1,0,,,,,,575705,,,,,,
84544,note_on,0,0,3,,,,,,,,0,,,50,0
84544,note_on,64,0,3,,,,,,,,0,,,62,0
84560,note_on,16,0,3,,,,,,,,0,,,44,89
84561,set_tempo,48,1,0,,,,,,579822,,,,,,
84582,note_on,0,0,4,,,,,,,,0,,,29,0
84582,note_on,0,0,4,,,,,,,,0,,,32,0
84582,note_on,0,0,4,,,,,,,,0,,,38,0
84582,note_on,0,0,4,,,,,,,,0,,,39,0
84582,note_on,72,0,4,,,,,,,,0,,,35,0
84604,set_tempo,43,1,0,,,,,,583998,,,,,,
84624,note_on,64,0,3,,,,,,,,0,,,44,0
84640,note_on,16,0,3,,,,,,,,0,,,47,88
84640,note_on,0,0,3,,,,,,,,0,,,59,88
84652,set_tempo,48,1,0,,,,,,588235,,,,,,
84696,set_tempo,44,1,0,,,,,,592534,,,,,,
84704,note_on,64,0,3,,,,,,,,0,,,59,0
84704,note_on,0,0,3,,,,,,,,0,,,47,0
84720,note_on,16,0,3,,,,,,,,0,,,44,87
84720,note_on,0,0,4,,,,,,,,0,,,29,78
84720,control_change,138,0,4,,,,,,,,0,64,0,,
84735,note_on,15,0,4,,,,,,,,0,,,32,78
84736,control_change,1,0,4,,,,,,,,0,64,127,,
84744,set_tempo,48,1,0,,,,,,596896,,,,,,
84750,note_on,0,0,4,,,,,,,,0,,,39,78
84750,note_on,14,0,4,,,,,,,,0,,,35,78
84750,note_on,0,0,4,,,,,,,,0,,,38,78
84784,note_on,64,0,3,,,,,,,,0,,,44,0
84788,set_tempo,44,1,0,,,,,,601323,,,,,,
84800,note_on,16,0,3,,,,,,,,0,,,56,87
84800,note_on,0,0,3,,,,,,,,0,,,68,87
84822,note_on,0,0,4,,,,,,,,0,,,35,0
84822,note_on,0,0,4,,,,,,,,0,,,32,0
84822,note_on,0,0,4,,,,,,,,0,,,39,0
84822,note_on,0,0,4,,,,,,,,0,,,29,0
84822,note_on,72,0,4,,,,,,,,0,,,38,0
84836,set_tempo,48,1,0,,,,,,605816,,,,,,
84864,note_on,64,0,3,,,,,,,,0,,,68,0
84864,note_on,0,0,3,,,,,,,,0,,,56,0
84879,set_tempo,43,1,0,,,,,,610376,,,,,,
84880,note_on,16,0,3,,,,,,,,0,,,44,86
84927,set_tempo,48,1,0,,,,,,615006,,,,,,
84944,note_on,64,0,3,,,,,,,,0,,,44,0
84960,control_change,138,0,4,,,,,,,,0,64,0,,
84960,note_on,0,0,3,,,,,,,,0,,,53,85
84960,note_on,16,0,3,,,,,,,,0,,,65,85
84960,note_on,0,0,4,,,,,,,,0,,,29,77
84971,set_tempo,44,1,0,,,,,,619707,,,,,,
84975,note_on,15,0,4,,,,,,,,0,,,32,77
84988,control_change,13,0,4,,,,,,,,0,64,127,,
84990,note_on,0,0,4,,,,,,,,0,,,38,77
84990,note_on,2,0,4,,,,,,,,0,,,35,77
84990,note_on,0,0,4,,,,,,,,0,,,39,77
85015,set_tempo,44,1,0,,,,,,624480,,,,,,
85024,note_on,64,0,3,,,,,,,,0,,,53,0
85024,note_on,0,0,3,,,,,,,,0,,,65,0
85040,note_on,16,0,3,,,,,,,,0,,,44,84
85062,note_on,0,0,4,,,,,,,,0,,,35,0
85062,note_on,72,0,4,,,,,,,,0,,,38,0
85062,note_on,0,0,4,,,,,,,,0,,,29,0
85062,note_on,0,0,4,,,,,,,,0,,,39,0
85062,note_on,0,0,4,,,,,,,,0,,,32,0
85063,set_tempo,48,1,0,,,,,,629327,,,,,,
85104,note_on,64,0,3,,,,,,,,0,,,44,0
85106,set_tempo,43,1,0,,,,,,634249,,,,,,
85120,note_on,16,0,3,,,,,,,,0,,,50,83
85120,note_on,0,0,3,,,,,,,,0,,,62,83
85154,set_tempo,48,1,0,,,,,,639250,,,,,,
85184,note_on,0,0,3,,,,,,,,0,,,50,0
85184,note_on,64,0,3,,,,,,,,0,,,62,0
85195,control_change,133,0,4,,,,,,,,0,64,0,,
85198,set_tempo,44,1,0,,,,,,644330,,,,,,
85200,note_on,5,0,4,,,,,,,,0,,,29,74
85200,note_on,16,0,3,,,,,,,,0,,,44,82
85215,note_on,15,0,4,,,,,,,,0,,,32,74
85218,control_change,3,0,4,,,,,,,,0,64,127,,
85230,note_on,0,0,4,,,,,,,,0,,,35,74
85230,note_on,12,0,4,,,,,,,,0,,,38,74
85230,note_on,0,0,4,,,,,,,,0,,,39,74
85246,set_tempo,48,1,0,,,,,,649491,,,,,,
85264,note_on,64,0,3,,,,,,,,0,,,44,0
85280,note_on,16,0,3,,,,,,,,0,,,47,82
85280,note_on,0,0,3,,,,,,,,0,,,59,82
85290,set_tempo,44,1,0,,,,,,654736,,,,,,
85302,note_on,72,0,4,,,,,,,,0,,,39,0
85302,note_on,0,0,4,,,,,,,,0,,,35,0
85302,note_on,0,0,4,,,,,,,,0,,,38,0
85302,note_on,0,0,4,,,,,,,,0,,,29,0
85302,note_on,0,0,4,,,,,,,,0,,,32,0
85338,set_tempo,48,1,0,,,,,,660066,,,,,,
85344,note_on,64,0,3,,,,,,,,0,,,59,0
85344,note_on,0,0,3,,,,,,,,0,,,47,0
85360,note_on,16,0,3,,,,,,,,0,,,44,81
85381,set_tempo,43,1,0,,,,,,665484,,,,,,
85424,note_on,64,0,3,,,,,,,,0,,,44,0
85425,set_tempo,44,1,0,,,,,,670991,,,,,,
85429,set_tempo,4,1,0,,,,,,820345,,,,,,
85431,set_tempo,2,1,0,,,,,,377548,,,,,,
85435,set_tempo,4,1,0,,,,,,510465,,,,,,
85439,set_tempo,4,1,0,,,,,,377548,,,,,,
85440,note_on,0,0,4,,,,,,,,0,,,41,100
85440,note_on,0,0,4,,,,,,,,0,,,29,100
85440,note_on,0,0,1,,,,,,,,0,,,56,100
85440,note_on,1056,0,1,,,,,,,,0,,,60,100
85440,note_on,0,0,1,,,,,,,,0,,,68,100
85440,time_signature,1,1,0,3,4,24,8,,,,,,,,
85440,note_on,0,0,4,,,,,,,,0,,,32,100
85440,control_change,138,0,4,,,,,,,,0,64,0,,
85440,note_on,0,0,4,,,,,,,,0,,,36,100
85632,note_on,192,0,4,,,,,,,,0,,,32,0
85632,note_on,0,0,1,,,,,,,,0,,,56,0
85632,note_on,0,0,1,,,,,,,,0,,,60,0
85632,note_on,0,0,4,,,,,,,,0,,,29,0
85632,note_on,0,0,4,,,,,,,,0,,,41,0
85632,note_on,192,0,1,,,,,,,,0,,,68,0
85632,note_on,0,0,4,,,,,,,,0,,,36,0
85680,note_on,0,0,1,,,,,,,,0,,,59,100
85680,note_on,0,0,1,,,,,,,,0,,,62,100
85680,note_on,0,0,4,,,,,,,,0,,,41,100
85680,note_on,48,0,4,,,,,,,,0,,,29,100
85680,note_on,0,0,1,,,,,,,,0,,,68,100
85680,note_on,0,0,4,,,,,,,,0,,,38,100
85680,note_on,0,0,4,,,,,,,,0,,,35,100
85680,note_on,48,0,1,,,,,,,,0,,,56,100
85824,note_on,0,0,1,,,,,,,,0,,,56,0
85824,note_on,0,0,1,,,,,,,,0,,,59,0
85824,note_on,144,0,4,,,,,,,,0,,,41,0
85824,note_on,0,0,1,,,,,,,,0,,,62,0
85824,note_on,0,0,4,,,,,,,,0,,,29,0
85824,note_on,0,0,4,,,,,,,,0,,,38,0
85824,note_on,144,0,1,,,,,,,,0,,,68,0
85824,note_on,0,0,4,,,,,,,,0,,,35,0
85860,note_on,0,0,4,,,,,,,,0,,,35,100
85860,note_on,0,0,1,,,,,,,,0,,,62,100
85860,note_on,0,0,4,,,,,,,,0,,,29,100
85860,note_on,0,0,4,,,,,,,,0,,,41,100
85860,note_on,36,0,1,,,,,,,,0,,,59,100
85860,note_on,0,0,1,,,,,,,,0,,,68,100
85860,note_on,36,0,4,,,,,,,,0,,,38,100
85860,note_on,0,0,1,,,,,,,,0,,,56,100
85908,note_on,0,0,1,,,,,,,,0,,,56,0
85908,note_on,48,0,1,,,,,,,,0,,,68,0
85908,note_on,0,0,1,,,,,,,,0,,,59,0
85908,note_on,0,0,4,,,,,,,,0,,,38,0
85908,note_on,0,0,4,,,,,,,,0,,,35,0
85908,note_on,0,0,1,,,,,,,,0,,,62,0
85908,note_on,48,0,4,,,,,,,,0,,,41,0
85908,note_on,0,0,4,,,,,,,,0,,,29,0
85920,note_on,12,0,1,,,,,,,,0,,,58,100
85920,note_on,12,0,4,,,,,,,,0,,,34,100
85920,note_on,0,0,4,,,,,,,,0,,,40,100
85920,note_on,0,0,4,,,,,,,,0,,,37,100
85920,note_on,0,0,1,,,,,,,,0,,,56,100
85920,note_on,0,0,1,,,,,,,,0,,,61,100
85920,note_on,0,0,1,,,,,,,,0,,,68,100
85920,note_on,0,0,4,,,,,,,,0,,,29,100
86112,note_on,0,0,1,,,,,,,,0,,,61,0
86112,note_on,192,0,1,,,,,,,,0,,,56,0
86112,note_on,0,0,1,,,,,,,,0,,,58,0
86112,note_on,192,0,4,,,,,,,,0,,,37,0
86112,note_on,0,0,4,,,,,,,,0,,,40,0
86112,note_on,0,0,4,,,,,,,,0,,,29,0
86112,note_on,0,0,4,,,,,,,,0,,,34,0
86112,note_on,0,0,1,,,,,,,,0,,,68,0
86280,note_on,0,0,4,,,,,,,,0,,,41,100
86280,note_on,168,0,4,,,,,,,,0,,,52,100
86280,note_on,0,0,4,,,,,,,,0,,,46,100
86280,note_on,0,0,1,,,,,,,,0,,,67,100
86280,note_on,168,0,1,,,,,,,,0,,,55,100
86280,note_on,0,0,4,,,,,,,,0,,,49,100
86376,note_on,96,0,1,,,,,,,,0,,,67,0
86376,note_on,0,0,4,,,,,,,,0,,,52,0
86376,note_on,0,0,4,,,,,,,,0,,,49,0
86376,note_on,0,0,1,,,,,,,,0,,,55,0
86376,note_on,0,0,4,,,,,,,,0,,,46,0
86376,note_on,96,0,4,,,,,,,,0,,,41,0
86400,note_on,0,0,1,,,,,,,,0,,,56,100
86400,note_on,0,0,4,,,,,,,,0,,,41,100
86400,note_on,0,0,4,,,,,,,,0,,,46,100
86400,note_on,24,0,4,,,,,,,,0,,,52,100
86400,note_on,24,0,1,,,,,,,,0,,,68,100
86400,note_on,0,0,4,,,,,,,,0,,,49,100
86496,note_on,0,0,1,,,,,,,,0,,,68,0
86496,note_on,96,0,4,,,,,,,,0,,,49,0
86496,note_on,0,0,4,,,,,,,,0,,,41,0
86496,note_on,0,0,4,,,,,,,,0,,,46,0
86496,note_on,96,0,1,,,,,,,,0,,,56,0
86496,note_on,0,0,4,,,,,,,,0,,,52,0
86520,note_on,24,0,1,,,,,,,,0,,,58,100
86520,note_on,24,0,4,,,,,,,,0,,,46,100
86520,note_on,0,0,1,,,,,,,,0,,,70,100
86520,note_on,0,0,4,,,,,,,,0,,,52,100
86520,note_on,0,0,4,,,,,,,,0,,,41,100
86520,note_on,0,0,4,,,,,,,,0,,,49,100
86616,note_on,0,0,4,,,,,,,,0,,,52,0
86616,note_on,0,0,4,,,,,,,,0,,,46,0
86616,note_on,0,0,4,,,,,,,,0,,,41,0
86616,control_change,0,0,1,,,,,,,,0,64,127,,
86616,note_on,0,0,1,,,,,,,,0,,,58,0
86616,note_on,96,0,1,,,,,,,,0,,,70,0
86616,note_on,96,0,4,,,,,,,,0,,,49,0
86640,note_on,0,0,1,,,,,,,,0,,,72,100
86640,note_on,24,0,4,,,,,,,,0,,,53,100
86640,note_on,0,0,4,,,,,,,,0,,,48,100
86640,note_on,0,0,4,,,,,,,,0,,,41,100
86640,note_on,24,0,1,,,,,,,,0,,,60,100
86640,note_on,0,0,4,,,,,,,,0,,,44,100
86664,note_on,0,0,1,,,,,,,,0,,,60,0
86664,note_on,24,0,1,,,,,,,,0,,,72,0
86670,note_on,6,0,1,,,,,,,,0,,,68,100
86694,note_on,24,0,1,,,,,,,,0,,,68,0
86700,note_on,6,0,1,,,,,,,,0,,,65,100
86748,note_on,48,0,1,,,,,,,,0,,,65,0
86832,note_on,192,0,4,,,,,,,,0,,,44,0
86832,note_on,0,0,4,,,,,,,,0,,,53,0
86832,note_on,0,0,4,,,,,,,,0,,,48,0
86832,note_on,0,0,4,,,,,,,,0,,,41,0
86880,control_change,132,0,1,,,,,,,,0,64,0,,
86880,note_on,0,0,1,,,,,,,,0,,,68,100
86880,note_on,0,0,1,,,,,,,,0,,,60,100
86880,note_on,0,0,4,,,,,,,,0,,,36,100
86880,note_on,48,0,4,,,,,,,,0,,,41,100
86880,note_on,0,0,4,,,,,,,,0,,,32,100
86880,note_on,0,0,4,,,,,,,,0,,,29,100
86880,note_on,0,0,1,,,,,,,,0,,,56,100
87072,note_on,192,0,4,,,,,,,,0,,,36,0
87072,note_on,0,0,1,,,,,,,,0,,,56,0
87072,note_on,0,0,1,,,,,,,,0,,,60,0
87072,note_on,0,0,4,,,,,,,,0,,,41,0
87072,note_on,0,0,4,,,,,,,,0,,,32,0
87072,note_on,0,0,4,,,,,,,,0,,,29,0
87072,note_on,192,0,1,,,,,,,,0,,,68,0
87120,note_on,0,0,1,,,,,,,,0,,,59,100
87120,note_on,0,0,1,,,,,,,,0,,,62,100
87120,note_on,48,0,1,,,,,,,,0,,,68,100
87120,note_on,0,0,4,,,,,,,,0,,,29,100
87120,note_on,0,0,4,,,,,,,,0,,,35,100
87120,note_on,0,0,1,,,,,,,,0,,,56,100
87120,note_on,0,0,4,,,,,,,,0,,,38,100
87120,note_on,48,0,4,,,,,,,,0,,,41,100
87264,note_on,144,0,4,,,,,,,,0,,,29,0
87264,note_on,0,0,1,,,,,,,,0,,,68,0
87264,note_on,144,0,1,,,,,,,,0,,,56,0
87264,note_on,0,0,1,,,,,,,,0,,,62,0
87264,note_on,0,0,1,,,,,,,,0,,,59,0
87264,note_on,0,0,4,,,,,,,,0,,,35,0
87264,note_on,0,0,4,,,,,,,,0,,,38,0
87264,note_on,0,0,4,,,,,,,,0,,,41,0
87300,note_on,36,0,4,,,,,,,,0,,,38,100
87300,note_on,36,0,1,,,,,,,,0,,,68,100
87300,note_on,0,0,4,,,,,,,,0,,,41,100
87300,note_on,0,0,4,,,,,,,,0,,,29,100
87300,note_on,0,0,1,,,,,,,,0,,,59,100
87300,note_on,0,0,1,,,,,,,,0,,,56,100
87300,note_on,0,0,1,,,,,,,,0,,,62,100
87300,note_on,0,0,4,,,,,,,,0,,,35,100
87348,note_on,48,0,1,,,,,,,,0,,,59,0
87348,note_on,0,0,4,,,,,,,,0,,,41,0
87348,note_on,48,0,4,,,,,,,,0,,,35,0
87348,note_on,0,0,1,,,,,,,,0,,,68,0
87348,note_on,0,0,4,,,,,,,,0,,,29,0
87348,note_on,0,0,1,,,,,,,,0,,,62,0
87348,note_on,0,0,1,,,,,,,,0,,,56,0
87348,note_on,0,0,4,,,,,,,,0,,,38,0
87360,note_on,0,0,4,,,,,,,,0,,,34,100
87360,note_on,0,0,4,,,,,,,,0,,,40,100
87360,note_on,0,0,4,,,,,,,,0,,,37,100
87360,note_on,0,0,1,,,,,,,,0,,,68,100
87360,note_on,0,0,1,,,,,,,,0,,,58,100
87360,note_on,0,0,1,,,,,,,,0,,,56,100
87360,note_on,12,0,1,,,,,,,,0,,,61,100
87360,note_on,12,0,4,,,,,,,,0,,,29,100
87552,note_on,0,0,1,,,,,,,,0,,,68,0
87552,note_on,0,0,1,,,,,,,,0,,,61,0
87552,note_on,0,0,4,,,,,,,,0,,,29,0
87552,note_on,192,0,4,,,,,,,,0,,,40,0
87552,note_on,0,0,4,,,,,,,,0,,,34,0
87552,note_on,0,0,4,,,,,,,,0,,,37,0
87552,note_on,192,0,1,,,,,,,,0,,,58,0
87552,note_on,0,0,1,,,,,,,,0,,,56,0
87720,note_on,168,0,1,,,,,,,,0,,,67,100
87720,note_on,0,0,4,,,,,,,,0,,,39,100
87720,note_on,168,0,4,,,,,,,,0,,,51,100
87720,note_on,0,0,1,,,,,,,,0,,,55,100
87720,note_on,0,0,4,,,,,,,,0,,,49,100
87720,note_on,0,0,4,,,,,,,,0,,,46,100
87816,note_on,96,0,4,,,,,,,,0,,,49,0
87816,note_on,0,0,1,,,,,,,,0,,,67,0
87816,note_on,96,0,1,,,,,,,,0,,,55,0
87816,note_on,0,0,4,,,,,,,,0,,,51,0
87816,note_on,0,0,4,,,,,,,,0,,,46,0
87816,note_on,0,0,4,,,,,,,,0,,,39,0
87840,note_on,24,0,4,,,,,,,,0,,,49,100
87840,note_on,0,0,4,,,,,,,,0,,,44,100
87840,note_on,0,0,4,,,,,,,,0,,,51,100
87840,note_on,24,0,1,,,,,,,,0,,,68,100
87840,note_on,0,0,4,,,,,,,,0,,,39,100
87840,note_on,0,0,1,,,,,,,,0,,,56,100
87936,note_on,0,0,4,,,,,,,,0,,,39,0
87936,note_on,0,0,4,,,,,,,,0,,,49,0
87936,note_on,0,0,4,,,,,,,,0,,,51,0
87936,note_on,96,0,1,,,,,,,,0,,,56,0
87936,note_on,0,0,1,,,,,,,,0,,,68,0
87936,note_on,96,0,4,,,,,,,,0,,,44,0
87960,note_on,0,0,4,,,,,,,,0,,,49,100
87960,note_on,0,0,4,,,,,,,,0,,,51,100
87960,note_on,0,0,4,,,,,,,,0,,,43,100
87960,note_on,0,0,1,,,,,,,,0,,,58,100
87960,note_on,24,0,4,,,,,,,,0,,,39,100
87960,note_on,24,0,1,,,,,,,,0,,,70,100
88056,note_on,0,0,4,,,,,,,,0,,,39,0
88056,note_on,0,0,4,,,,,,,,0,,,43,0
88056,note_on,0,0,4,,,,,,,,0,,,51,0
88056,note_on,96,0,1,,,,,,,,0,,,58,0
88056,note_on,0,0,1,,,,,,,,0,,,70,0
88056,note_on,96,0,4,,,,,,,,0,,,49,0
88068,control_change,12,0,1,,,,,,,,0,64,127,,
88080,note_on,0,0,4,,,,,,,,0,,,56,100
88080,note_on,0,0,1,,,,,,,,0,,,60,100
88080,note_on,24,0,4,,,,,,,,0,,,51,100
88080,note_on,0,0,4,,,,,,,,0,,,44,100
88080,note_on,0,0,4,,,,,,,,0,,,48,100
88080,note_on,12,0,1,,,,,,,,0,,,72,100
88104,note_on,0,0,1,,,,,,,,0,,,72,0
88104,note_on,24,0,1,,,,,,,,0,,,60,0
88110,note_on,6,0,1,,,,,,,,0,,,68,100
88134,note_on,24,0,1,,,,,,,,0,,,68,0
88140,note_on,6,0,1,,,,,,,,0,,,63,100
88188,note_on,48,0,1,,,,,,,,0,,,63,0
88272,note_on,0,0,4,,,,,,,,0,,,51,0
88272,note_on,192,0,4,,,,,,,,0,,,44,0
88272,note_on,0,0,4,,,,,,,,0,,,56,0
88272,note_on,0,0,4,,,,,,,,0,,,48,0
88320,note_on,0,0,4,,,,,,,,0,,,32,100
88320,note_on,0,0,4,,,,,,,,0,,,39,100
88320,note_on,0,0,4,,,,,,,,0,,,44,100
88320,note_on,48,0,4,,,,,,,,0,,,36,100
88320,control_change,132,0,1,,,,,,,,0,64,0,,
88320,note_on,0,0,1,,,,,,,,0,,,60,100
88320,note_on,0,0,1,,,,,,,,0,,,63,100
88320,note_on,0,0,1,,,,,,,,0,,,72,100
88512,note_on,0,0,1,,,,,,,,0,,,60,0
88512,note_on,0,0,4,,,,,,,,0,,,32,0
88512,note_on,0,0,4,,,,,,,,0,,,36,0
88512,note_on,0,0,4,,,,,,,,0,,,39,0
88512,note_on,192,0,1,,,,,,,,0,,,63,0
88512,note_on,192,0,4,,,,,,,,0,,,44,0
88512,note_on,0,0,1,,,,,,,,0,,,72,0
88560,note_on,48,0,4,,,,,,,,0,,,32,100
88560,note_on,48,0,1,,,,,,,,0,,,60,100
88560,note_on,0,0,1,,,,,,,,0,,,65,100
88560,note_on,0,0,1,,,,,,,,0,,,62,100
88560,note_on,0,0,4,,,,,,,,0,,,44,100
88560,note_on,0,0,4,,,,,,,,0,,,41,100
88560,note_on,0,0,4,,,,,,,,0,,,38,100
88560,note_on,0,0,1,,,,,,,,0,,,72,100
88704,note_on,0,0,4,,,,,,,,0,,,44,0
88704,note_on,0,0,4,,,,,,,,0,,,38,0
88704,note_on,144,0,4,,,,,,,,0,,,41,0
88704,note_on,0,0,4,,,,,,,,0,,,32,0
88704,note_on,0,0,1,,,,,,,,0,,,72,0
88704,note_on,144,0,1,,,,,,,,0,,,65,0
88704,note_on,0,0,1,,,,,,,,0,,,62,0
88704,note_on,0,0,1,,,,,,,,0,,,60,0
88740,note_on,36,0,1,,,,,,,,0,,,72,100
88740,note_on,0,0,1,,,,,,,,0,,,62,100
88740,note_on,36,0,4,,,,,,,,0,,,44,100
88740,note_on,0,0,1,,,,,,,,0,,,65,100
88740,note_on,0,0,1,,,,,,,,0,,,60,100
88740,note_on,0,0,4,,,,,,,,0,,,41,100
88740,note_on,0,0,4,,,,,,,,0,,,38,100
88740,note_on,0,0,4,,,,,,,,0,,,32,100
88788,note_on,48,0,4,,,,,,,,0,,,32,0
88788,note_on,0,0,4,,,,,,,,0,,,44,0
88788,note_on,0,0,4,,,,,,,,0,,,41,0
88788,note_on,0,0,4,,,,,,,,0,,,38,0
88788,note_on,0,0,1,,,,,,,,0,,,72,0
88788,note_on,0,0,1,,,,,,,,0,,,62,0
88788,note_on,0,0,1,,,,,,,,0,,,60,0
88788,note_on,48,0,1,,,,,,,,0,,,65,0
88800,note_on,0,0,4,,,,,,,,0,,,44,100
88800,note_on,12,0,1,,,,,,,,0,,,60,100
88800,note_on,0,0,1,,,,,,,,0,,,72,100
88800,note_on,12,0,4,,,,,,,,0,,,37,100
88800,note_on,0,0,4,,,,,,,,0,,,40,100
88800,note_on,0,0,4,,,,,,,,0,,,32,100
88800,note_on,0,0,1,,,,,,,,0,,,64,100
88992,note_on,0,0,1,,,,,,,,0,,,64,0
88992,note_on,0,0,1,,,,,,,,0,,,60,0
88992,note_on,192,0,4,,,,,,,,0,,,32,0
88992,note_on,0,0,4,,,,,,,,0,,,37,0
88992,note_on,0,0,4,,,,,,,,0,,,44,0
88992,note_on,192,0,1,,,,,,,,0,,,72,0
88992,note_on,0,0,4,,,,,,,,0,,,40,0
89160,note_on,168,0,1,,,,,,,,0,,,70,100
89160,note_on,0,0,4,,,,,,,,0,,,44,100
89160,note_on,0,0,4,,,,,,,,0,,,49,100
89160,note_on,0,0,4,,,,,,,,0,,,55,100
89160,note_on,168,0,4,,,,,,,,0,,,52,100
89160,note_on,0,0,1,,,,,,,,0,,,58,100
89256,note_on,0,0,1,,,,,,,,0,,,70,0
89256,note_on,96,0,4,,,,,,,,0,,,49,0
89256,note_on,0,0,4,,,,,,,,0,,,55,0
89256,note_on,0,0,4,,,,,,,,0,,,52,0
89256,note_on,0,0,4,,,,,,,,0,,,44,0
89256,note_on,96,0,1,,,,,,,,0,,,58,0
89280,note_on,0,0,4,,,,,,,,0,,,44,100
89280,note_on,0,0,1,,,,,,,,0,,,60,100
89280,note_on,24,0,1,,,,,,,,0,,,72,100
89280,note_on,0,0,4,,,,,,,,0,,,49,100
89280,note_on,0,0,4,,,,,,,,0,,,55,100
89280,note_on,24,0,4,,,,,,,,0,,,52,100
89376,note_on,0,0,4,,,,,,,,0,,,55,0
89376,note_on,0,0,4,,,,,,,,0,,,49,0
89376,note_on,96,0,1,,,,,,,,0,,,60,0
89376,note_on,0,0,4,,,,,,,,0,,,52,0
89376,note_on,0,0,1,,,,,,,,0,,,72,0
89376,note_on,96,0,4,,,,,,,,0,,,44,0
89400,note_on,0,0,4,,,,,,,,0,,,52,100
89400,note_on,24,0,4,,,,,,,,0,,,49,100
89400,note_on,0,0,4,,,,,,,,0,,,55,100
89400,note_on,0,0,1,,,,,,,,0,,,73,100
89400,note_on,24,0,1,,,,,,,,0,,,61,100
89400,note_on,0,0,4,,,,,,,,0,,,44,100
89496,note_on,0,0,1,,,,,,,,0,,,61,0
89496,note_on,0,0,4,,,,,,,,0,,,52,0
89496,note_on,0,0,4,,,,,,,,0,,,49,0
89496,note_on,0,0,4,,,,,,,,0,,,44,0
89496,note_on,96,0,1,,,,,,,,0,,,73,0
89496,note_on,96,0,4,,,,,,,,0,,,55,0
89501,control_change,5,0,1,,,,,,,,0,64,127,,
89520,note_on,24,0,4,,,,,,,,0,,,44,100
89520,note_on,0,0,1,,,,,,,,0,,,75,100
89520,note_on,0,0,4,,,,,,,,0,,,56,100
89520,note_on,0,0,4,,,,,,,,0,,,51,100
89520,note_on,0,0,4,,,,,,,,0,,,48,100
89520,note_on,19,0,1,,,,,,,,0,,,63,100
89544,note_on,24,0,1,,,,,,,,0,,,75,0
89544,note_on,0,0,1,,,,,,,,0,,,63,0
89550,note_on,6,0,1,,,,,,,,0,,,72,100
89574,note_on,24,0,1,,,,,,,,0,,,72,0
89580,note_on,6,0,1,,,,,,,,0,,,68,100
89628,note_on,48,0,1,,,,,,,,0,,,68,0
89712,note_on,0,0,4,,,,,,,,0,,,56,0
89712,note_on,0,0,4,,,,,,,,0,,,51,0
89712,note_on,192,0,4,,,,,,,,0,,,48,0
89712,note_on,0,0,4,,,,,,,,0,,,44,0
89760,note_on,0,0,4,,,,,,,,0,,,36,100
89760,note_on,0,0,4,,,,,,,,0,,,32,100
89760,note_on,48,0,4,,,,,,,,0,,,39,100
89760,control_change,132,0,1,,,,,,,,0,64,0,,
89760,note_on,0,0,4,,,,,,,,0,,,44,100
89760,note_on,0,0,1,,,,,,,,0,,,60,100
89760,note_on,0,0,1,,,,,,,,0,,,63,100
89760,note_on,0,0,1,,,,,,,,0,,,72,100
89952,note_on,0,0,4,,,,,,,,0,,,36,0
89952,note_on,0,0,4,,,,,,,,0,,,39,0
89952,note_on,0,0,1,,,,,,,,0,,,72,0
89952,note_on,0,0,4,,,,,,,,0,,,32,0
89952,note_on,192,0,1,,,,,,,,0,,,63,0
89952,note_on,192,0,4,,,,,,,,0,,,44,0
89952,note_on,0,0,1,,,,,,,,0,,,60,0
90000,note_on,0,0,1,,,,,,,,0,,,60,100
90000,note_on,48,0,1,,,,,,,,0,,,62,100
90000,note_on,0,0,1,,,,,,,,0,,,72,100
90000,note_on,48,0,4,,,,,,,,0,,,32,100
90000,note_on,0,0,1,,,,,,,,0,,,65,100
90000,note_on,0,0,4,,,,,,,,0,,,38,100
90000,note_on,0,0,4,,,,,,,,0,,,41,100
90000,note_on,0,0,4,,,,,,,,0,,,44,100
90144,note_on,0,0,1,,,,,,,,0,,,65,0
90144,note_on,144,0,4,,,,,,,,0,,,41,0
90144,note_on,0,0,1,,,,,,,,0,,,60,0
90144,note_on,144,0,1,,,,,,,,0,,,72,0
90144,note_on,0,0,4,,,,,,,,0,,,38,0
90144,note_on,0,0,1,,,,,,,,0,,,62,0
90144,note_on,0,0,4,,,,,,,,0,,,44,0
90144,note_on,0,0,4,,,,,,,,0,,,32,0
90180,note_on,36,0,1,,,,,,,,0,,,60,100
90180,note_on,0,0,1,,,,,,,,0,,,62,100
90180,note_on,0,0,4,,,,,,,,0,,,41,100
90180,note_on,0,0,4,,,,,,,,0,,,32,100
90180,note_on,36,0,4,,,,,,,,0,,,38,100
90180,note_on,0,0,1,,,,,,,,0,,,65,100
90180,note_on,0,0,1,,,,,,,,0,,,72,100
90180,note_on,0,0,4,,,,,,,,0,,,44,100
90228,note_on,48,0,4,,,,,,,,0,,,32,0
90228,note_on,48,0,1,,,,,,,,0,,,72,0
90228,note_on,0,0,4,,,,,,,,0,,,41,0
90228,note_on,0,0,1,,,,,,,,0,,,65,0
90228,note_on,0,0,1,,,,,,,,0,,,62,0
90228,note_on,0,0,4,,,,,,,,0,,,38,0
90228,note_on,0,0,4,,,,,,,,0,,,44,0
90228,note_on,0,0,1,,,,,,,,0,,,60,0
90240,note_on,12,0,1,,,,,,,,0,,,60,100
90240,note_on,0,0,1,,,,,,,,0,,,66,100
90240,note_on,0,0,1,,,,,,,,0,,,63,100
90240,note_on,0,0,4,,,,,,,,0,,,32,100
90240,note_on,12,0,4,,,,,,,,0,,,42,100
90240,note_on,0,0,4,,,,,,,,0,,,39,100
90240,note_on,0,0,4,,,,,,,,0,,,44,100
90240,note_on,0,0,1,,,,,,,,0,,,72,100
90432,note_on,0,0,1,,,,,,,,0,,,60,0
90432,note_on,192,0,1,,,,,,,,0,,,66,0
90432,note_on,0,0,1,,,,,,,,0,,,63,0
90432,note_on,0,0,4,,,,,,,,0,,,32,0
90432,note_on,0,0,4,,,,,,,,0,,,39,0
90432,note_on,0,0,4,,,,,,,,0,,,42,0
90432,note_on,192,0,4,,,,,,,,0,,,44,0
90432,note_on,0,0,1,,,,,,,,0,,,72,0
90600,note_on,0,0,1,,,,,,,,0,,,72,100
90600,note_on,0,0,4,,,,,,,,0,,,36,100
90600,note_on,168,0,1,,,,,,,,0,,,60,100
90600,note_on,0,0,4,,,,,,,,0,,,31,100
90600,note_on,168,0,4,,,,,,,,0,,,43,100
90600,note_on,0,0,4,,,,,,,,0,,,39,100
90696,note_on,0,0,1,,,,,,,,0,,,60,0
90696,note_on,96,0,1,,,,,,,,0,,,72,0
90696,note_on,0,0,4,,,,,,,,0,,,43,0
90696,note_on,0,0,4,,,,,,,,0,,,39,0
90696,note_on,96,0,4,,,,,,,,0,,,36,0
90696,note_on,0,0,4,,,,,,,,0,,,31,0
90720,note_on,24,0,4,,,,,,,,0,,,43,100
90720,note_on,24,0,1,,,,,,,,0,,,67,100
90720,note_on,0,0,4,,,,,,,,0,,,31,100
90720,note_on,0,0,1,,,,,,,,0,,,79,100
90720,note_on,0,0,4,,,,,,,,0,,,39,100
90720,note_on,0,0,4,,,,,,,,0,,,36,100
90816,note_on,96,0,4,,,,,,,,0,,,39,0
90816,note_on,0,0,1,,,,,,,,0,,,67,0
90816,note_on,0,0,4,,,,,,,,0,,,31,0
90816,note_on,0,0,4,,,,,,,,0,,,36,0
90816,note_on,0,0,4,,,,,,,,0,,,43,0
90816,note_on,96,0,1,,,,,,,,0,,,79,0
90840,note_on,24,0,1,,,,,,,,0,,,59,100
90840,note_on,0,0,4,,,,,,,,0,,,43,100
90840,note_on,0,0,4,,,,,,,,0,,,31,100
90840,note_on,24,0,4,,,,,,,,0,,,38,100
90840,note_on,0,0,1,,,,,,,,0,,,71,100
90840,note_on,0,0,4,,,,,,,,0,,,41,100
90936,note_on,0,0,4,,,,,,,,0,,,31,0
90936,note_on,0,0,4,,,,,,,,0,,,38,0
90936,note_on,0,0,4,,,,,,,,0,,,41,0
90936,note_on,96,0,1,,,,,,,,0,,,71,0
90936,note_on,0,0,1,,,,,,,,0,,,59,0
90936,note_on,96,0,4,,,,,,,,0,,,43,0
90946,control_change,10,0,1,,,,,,,,0,64,127,,
90960,note_on,0,0,1,,,,,,,,0,,,60,100
90960,note_on,24,0,4,,,,,,,,0,,,43,100
90960,note_on,0,0,4,,,,,,,,0,,,48,100
90960,note_on,0,0,4,,,,,,,,0,,,40,100
90960,note_on,14,0,1,,,,,,,,0,,,72,100
90960,note_on,0,0,4,,,,,,,,0,,,36,100
90984,note_on,0,0,1,,,,,,,,0,,,72,0
90984,note_on,24,0,1,,,,,,,,0,,,60,0
90990,note_on,6,0,1,,,,,,,,0,,,67,100
91014,note_on,24,0,1,,,,,,,,0,,,67,0
91020,note_on,6,0,1,,,,,,,,0,,,64,100
91056,note_on,96,0,4,,,,,,,,0,,,36,0
91056,note_on,0,0,4,,,,,,,,0,,,48,0
91056,note_on,0,0,4,,,,,,,,0,,,43,0
91056,note_on,0,0,4,,,,,,,,0,,,40,0
91068,note_on,48,0,1,,,,,,,,0,,,64,0
91200,note_on,144,0,4,,,,,,,,0,,,49,110
91200,note_on,0,0,1,,,,,,,,0,,,85,110
91200,note_on,0,0,1,,,,,,,,0,,,73,110
91200,note_on,0,0,4,,,,,,,,0,,,61,110
91200,control_change,132,0,1,,,,,,,,0,64,0,,
91392,note_on,0,0,1,,,,,,,,0,,,85,0
91392,note_on,192,0,4,,,,,,,,0,,,61,0
91392,note_on,0,0,4,,,,,,,,0,,,49,0
91392,note_on,192,0,1,,,,,,,,0,,,73,0
91440,note_on,48,0,4,,,,,,,,0,,,61,110
91440,note_on,48,0,1,,,,,,,,0,,,85,110
91440,note_on,0,0,1,,,,,,,,0,,,73,110
91440,note_on,0,0,4,,,,,,,,0,,,49,110
91584,note_on,144,0,4,,,,,,,,0,,,49,0
91584,note_on,144,0,1,,,,,,,,0,,,73,0
91584,note_on,0,0,1,,,,,,,,0,,,85,0
91584,note_on,0,0,4,,,,,,,,0,,,61,0
91620,note_on,0,0,1,,,,,,,,0,,,73,110
91620,note_on,36,0,1,,,,,,,,0,,,85,110
91620,note_on,36,0,4,,,,,,,,0,,,61,110
91620,note_on,0,0,4,,,,,,,,0,,,49,110
91668,note_on,48,0,4,,,,,,,,0,,,49,0
91668,note_on,48,0,1,,,,,,,,0,,,73,0
91668,note_on,0,0,1,,,,,,,,0,,,85,0
91668,note_on,0,0,4,,,,,,,,0,,,61,0
91680,note_on,0,0,1,,,,,,,,0,,,64,110
91680,note_on,12,0,4,,,,,,,,0,,,40,110
91680,note_on,12,0,1,,,,,,,,0,,,76,110
91680,note_on,0,0,4,,,,,,,,0,,,52,110
91920,control_change,240,0,4,,,,,,,,0,64,127,,
91984,note_on,304,0,1,,,,,,,,0,,,64,0
91984,note_on,0,0,1,,,,,,,,0,,,76,0
91984,note_on,64,0,4,,,,,,,,0,,,52,0
91984,note_on,0,0,4,,,,,,,,0,,,40,0
92000,note_on,16,0,4,,,,,,,,0,,,41,110
92000,note_on,0,0,1,,,,,,,,0,,,65,110
92000,note_on,16,0,1,,,,,,,,0,,,77,110
92000,note_on,0,0,4,,,,,,,,0,,,53,110
92064,note_on,0,0,4,,,,,,,,0,,,41,0
92064,note_on,0,0,1,,,,,,,,0,,,77,0
92064,note_on,64,0,1,,,,,,,,0,,,65,0
92064,note_on,64,0,4,,,,,,,,0,,,53,0
92080,note_on,0,0,4,,,,,,,,0,,,42,110
92080,note_on,16,0,1,,,,,,,,0,,,66,110
92080,note_on,0,0,1,,,,,,,,0,,,78,110
92080,note_on,16,0,4,,,,,,,,0,,,54,110
92144,note_on,64,0,1,,,,,,,,0,,,78,0
92144,note_on,0,0,4,,,,,,,,0,,,54,0
92144,note_on,64,0,4,,,,,,,,0,,,42,0
92144,note_on,0,0,1,,,,,,,,0,,,66,0
92160,note_on,16,0,4,,,,,,,,0,,,43,110
92160,note_on,16,0,1,,,,,,,,0,,,79,110
92160,note_on,0,0,1,,,,,,,,0,,,67,110
92160,note_on,0,0,4,,,,,,,,0,,,55,110
92224,note_on,64,0,4,,,,,,,,0,,,55,0
92224,note_on,64,0,1,,,,,,,,0,,,67,0
92224,note_on,0,0,1,,,,,,,,0,,,79,0
92224,note_on,0,0,4,,,,,,,,0,,,43,0
92240,note_on,16,0,1,,,,,,,,0,,,80,110
92240,note_on,0,0,4,,,,,,,,0,,,44,110
92240,note_on,16,0,4,,,,,,,,0,,,56,110
92240,note_on,0,0,1,,,,,,,,0,,,68,110
92304,note_on,0,0,1,,,,,,,,0,,,80,0
92304,note_on,0,0,4,,,,,,,,0,,,56,0
92304,note_on,64,0,1,,,,,,,,0,,,68,0
92304,note_on,64,0,4,,,,,,,,0,,,44,0
92320,note_on,16,0,1,,,,,,,,0,,,81,110
92320,note_on,16,0,4,,,,,,,,0,,,45,110
92320,note_on,0,0,4,,,,,,,,0,,,57,110
92320,note_on,0,0,1,,,,,,,,0,,,69,110
92384,note_on,64,0,1,,,,,,,,0,,,69,0
92384,note_on,0,0,4,,,,,,,,0,,,45,0
92384,note_on,64,0,4,,,,,,,,0,,,57,0
92384,note_on,0,0,1,,,,,,,,0,,,81,0
92400,note_on,16,0,4,,,,,,,,0,,,46,110
92400,note_on,0,0,1,,,,,,,,0,,,82,110
92400,note_on,0,0,4,,,,,,,,0,,,58,110
92400,note_on,16,0,1,,,,,,,,0,,,70,110
92432,note_on,32,0,4,,,,,,,,0,,,58,0
92432,note_on,0,0,1,,,,,,,,0,,,70,0
92432,note_on,32,0,1,,,,,,,,0,,,82,0
92432,note_on,0,0,4,,,,,,,,0,,,46,0
92440,note_on,8,0,4,,,,,,,,0,,,55,127
92440,note_on,8,0,1,,,,,,,,0,,,79,127
92472,note_on,32,0,4,,,,,,,,0,,,55,0
92472,note_on,32,0,1,,,,,,,,0,,,79,0
92480,note_on,8,0,4,,,,,,,,0,,,52,127
92480,note_on,8,0,1,,,,,,,,0,,,76,127
92512,note_on,32,0,4,,,,,,,,0,,,52,0
92512,note_on,32,0,1,,,,,,,,0,,,76,0
92520,note_on,8,0,1,,,,,,,,0,,,73,127
92520,note_on,8,0,4,,,,,,,,0,,,49,127
92616,note_on,96,0,1,,,,,,,,0,,,73,0
92616,note_on,96,0,4,,,,,,,,0,,,49,0
92640,note_on,0,0,1,,,,,,,,0,,,73,110
92640,note_on,0,0,4,,,,,,,,0,,,49,110
92640,note_on,24,0,1,,,,,,,,0,,,85,110
92640,control_change,24,0,4,,,,,,,,0,64,0,,
92640,note_on,0,0,4,,,,,,,,0,,,61,110
92832,note_on,192,0,1,,,,,,,,0,,,73,0
92832,note_on,0,0,1,,,,,,,,0,,,85,0
92832,note_on,192,0,4,,,,,,,,0,,,61,0
92832,note_on,0,0,4,,,,,,,,0,,,49,0
92880,note_on,48,0,4,,,,,,,,0,,,49,110
92880,note_on,0,0,1,,,,,,,,0,,,85,110
92880,note_on,48,0,1,,,,,,,,0,,,73,110
92880,note_on,0,0,4,,,,,,,,0,,,61,110
93024,note_on,144,0,4,,,,,,,,0,,,61,0
93024,note_on,0,0,4,,,,,,,,0,,,49,0
93024,note_on,0,0,1,,,,,,,,0,,,73,0
93024,note_on,144,0,1,,,,,,,,0,,,85,0
93060,note_on,0,0,4,,,,,,,,0,,,49,110
93060,note_on,0,0,1,,,,,,,,0,,,73,110
93060,note_on,36,0,4,,,,,,,,0,,,61,110
93060,note_on,36,0,1,,,,,,,,0,,,85,110
93108,note_on,0,0,1,,,,,,,,0,,,85,0
93108,note_on,48,0,4,,,,,,,,0,,,49,0
93108,note_on,0,0,4,,,,,,,,0,,,61,0
93108,note_on,48,0,1,,,,,,,,0,,,73,0
93120,note_on,12,0,1,,,,,,,,0,,,65,110
93120,note_on,12,0,4,,,,,,,,0,,,41,110
93120,note_on,0,0,4,,,,,,,,0,,,53,110
93120,note_on,0,0,1,,,,,,,,0,,,77,110
93362,control_change,242,0,4,,,,,,,,0,64,127,,
93424,note_on,0,0,4,,,,,,,,0,,,41,0
93424,note_on,304,0,1,,,,,,,,0,,,77,0
93424,note_on,0,0,1,,,,,,,,0,,,65,0
93424,note_on,62,0,4,,,,,,,,0,,,53,0
93440,note_on,16,0,1,,,,,,,,0,,,65,110
93440,note_on,0,0,1,,,,,,,,0,,,77,110
93440,note_on,16,0,4,,,,,,,,0,,,41,110
93440,note_on,0,0,4,,,,,,,,0,,,53,110
93504,note_on,64,0,4,,,,,,,,0,,,53,0
93504,note_on,0,0,4,,,,,,,,0,,,41,0
93504,note_on,0,0,1,,,,,,,,0,,,65,0
93504,note_on,64,0,1,,,,,,,,0,,,77,0
93520,note_on,0,0,4,,,,,,,,0,,,42,110
93520,note_on,0,0,1,,,,,,,,0,,,66,110
93520,note_on,16,0,4,,,,,,,,0,,,54,110
93520,note_on,16,0,1,,,,,,,,0,,,78,110
93584,note_on,0,0,4,,,,,,,,0,,,54,0
93584,note_on,0,0,1,,,,,,,,0,,,78,0
93584,note_on,64,0,4,,,,,,,,0,,,42,0
93584,note_on,64,0,1,,,,,,,,0,,,66,0
93600,note_on,0,0,4,,,,,,,,0,,,55,110
93600,note_on,0,0,1,,,,,,,,0,,,67,110
93600,note_on,16,0,4,,,,,,,,0,,,43,110
93600,note_on,16,0,1,,,,,,,,0,,,79,110
93664,note_on,64,0,1,,,,,,,,0,,,67,0
93664,note_on,64,0,4,,,,,,,,0,,,55,0
93664,note_on,0,0,4,,,,,,,,0,,,43,0
93664,note_on,0,0,1,,,,,,,,0,,,79,0
93680,note_on,16,0,4,,,,,,,,0,,,56,110
93680,note_on,0,0,1,,,,,,,,0,,,80,110
93680,note_on,0,0,4,,,,,,,,0,,,44,110
93680,note_on,16,0,1,,,,,,,,0,,,68,110
93744,note_on,0,0,1,,,,,,,,0,,,68,0
93744,note_on,64,0,4,,,,,,,,0,,,44,0
93744,note_on,64,0,1,,,,,,,,0,,,80,0
93744,note_on,0,0,4,,,,,,,,0,,,56,0
93760,note_on,16,0,4,,,,,,,,0,,,57,110
93760,note_on,0,0,1,,,,,,,,0,,,81,110
93760,note_on,16,0,1,,,,,,,,0,,,69,110
93760,note_on,0,0,4,,,,,,,,0,,,45,110
93824,note_on,0,0,4,,,,,,,,0,,,57,0
93824,note_on,64,0,4,,,,,,,,0,,,45,0
93824,note_on,0,0,1,,,,,,,,0,,,69,0
93824,note_on,64,0,1,,,,,,,,0,,,81,0
93840,note_on,16,0,4,,,,,,,,0,,,58,110
93840,note_on,0,0,4,,,,,,,,0,,,46,110
93840,note_on,16,0,1,,,,,,,,0,,,82,110
93840,note_on,0,0,1,,,,,,,,0,,,70,110
93864,note_on,24,0,1,,,,,,,,0,,,70,0
93864,note_on,0,0,4,,,,,,,,0,,,58,0
93864,note_on,24,0,4,,,,,,,,0,,,46,0
93864,note_on,0,0,1,,,,,,,,0,,,82,0
93870,note_on,6,0,1,,,,,,,,0,,,77,110
93870,note_on,6,0,4,,,,,,,,0,,,53,110
93894,note_on,24,0,1,,,,,,,,0,,,77,0
93894,note_on,24,0,4,,,,,,,,0,,,53,0
93900,note_on,6,0,1,,,,,,,,0,,,73,110
93900,note_on,6,0,4,,,,,,,,0,,,49,110
93948,note_on,48,0,4,,,,,,,,0,,,49,0
93948,note_on,48,0,1,,,,,,,,0,,,73,0
94080,time_signature,8640,1,0,2,4,24,8,,,,,,,,
94080,control_change,0,0,4,,,,,,,,0,64,0,,
94080,note_on,0,0,1,,,,,,,,0,,,85,110
94080,note_on,132,0,4,,,,,,,,0,,,49,110
94080,note_on,132,0,1,,,,,,,,0,,,73,110
94080,note_on,0,0,4,,,,,,,,0,,,61,110
94272,note_on,192,0,4,,,,,,,,0,,,61,0
94272,note_on,0,0,1,,,,,,,,0,,,73,0
94272,note_on,192,0,1,,,,,,,,0,,,85,0
94272,note_on,0,0,4,,,,,,,,0,,,49,0
94320,note_on,0,0,4,,,,,,,,0,,,61,110
94320,note_on,48,0,1,,,,,,,,0,,,73,110
94320,note_on,48,0,4,,,,,,,,0,,,49,110
94320,note_on,0,0,1,,,,,,,,0,,,85,110
94464,note_on,0,0,4,,,,,,,,0,,,49,0
94464,note_on,144,0,1,,,,,,,,0,,,85,0
94464,note_on,0,0,1,,,,,,,,0,,,73,0
94464,note_on,144,0,4,,,,,,,,0,,,61,0
94500,note_on,0,0,4,,,,,,,,0,,,61,110
94500,note_on,36,0,4,,,,,,,,0,,,49,110
94500,note_on,36,0,1,,,,,,,,0,,,73,110
94500,note_on,0,0,1,,,,,,,,0,,,85,110
94547,set_tempo,467,1,0,,,,,,399734,,,,,,
94548,note_on,0,0,1,,,,,,,,0,,,73,0
94548,note_on,0,0,4,,,,,,,,0,,,49,0
94548,note_on,48,0,1,,,,,,,,0,,,85,0
94548,note_on,48,0,4,,,,,,,,0,,,61,0
94559,set_tempo,12,1,0,,,,,,670991,,,,,,
94560,note_on,0,0,1,,,,,,,,0,,,78,110
94560,note_on,0,0,1,,,,,,,,0,,,70,110
94560,control_change,12,0,1,,,,,,,,0,64,127,,
94560,note_on,12,0,4,,,,,,,,0,,,54,110
94560,note_on,0,0,4,,,,,,,,0,,,42,110
94560,note_on,0,0,1,,,,,,,,0,,,66,110
94560,note_on,0,0,4,,,,,,,,0,,,49,110
94608,note_on,0,0,1,,,,,,,,0,,,78,0
94608,note_on,0,0,1,,,,,,,,0,,,66,0
94608,note_on,48,0,4,,,,,,,,0,,,49,0
94608,note_on,0,0,4,,,,,,,,0,,,42,0
94608,note_on,0,0,4,,,,,,,,0,,,54,0
94608,note_on,48,0,1,,,,,,,,0,,,70,0
94616,set_tempo,57,1,0,,,,,,504117,,,,,,
94618,set_tempo,2,1,0,,,,,,388249,,,,,,
94620,note_on,0,0,4,,,,,,,,0,,,55,110
94620,note_on,12,0,4,,,,,,,,0,,,43,110
94620,note_on,12,0,1,,,,,,,,0,,,79,110
94620,note_on,0,0,1,,,,,,,,0,,,67,110
94631,set_tempo,13,1,0,,,,,,386399,,,,,,
94640,set_tempo,9,1,0,,,,,,384566,,,,,,
94653,set_tempo,13,1,0,,,,,,382751,,,,,,
94666,set_tempo,13,1,0,,,,,,380952,,,,,,
94668,note_on,48,0,1,,,,,,,,0,,,67,0
94668,note_on,48,0,4,,,,,,,,0,,,55,0
94668,note_on,0,0,1,,,,,,,,0,,,79,0
94668,note_on,0,0,4,,,,,,,,0,,,43,0
94675,set_tempo,9,1,0,,,,,,379171,,,,,,
94680,note_on,12,0,1,,,,,,,,0,,,80,110
94680,note_on,12,0,4,,,,,,,,0,,,56,110
94680,note_on,0,0,4,,,,,,,,0,,,44,110
94680,note_on,0,0,1,,,,,,,,0,,,68,110
94688,set_tempo,13,1,0,,,,,,377406,,,,,,
94701,set_tempo,13,1,0,,,,,,375657,,,,,,
94714,set_tempo,13,1,0,,,,,,373925,,,,,,
94723,set_tempo,9,1,0,,,,,,372208,,,,,,
94728,note_on,0,0,4,,,,,,,,0,,,56,0
94728,note_on,48,0,4,,,,,,,,0,,,44,0
94728,note_on,48,0,1,,,,,,,,0,,,68,0
94728,note_on,0,0,1,,,,,,,,0,,,80,0
94736,set_tempo,13,1,0,,,,,,370508,,,,,,
94740,note_on,12,0,1,,,,,,,,0,,,69,110
94740,note_on,12,0,4,,,,,,,,0,,,57,110
94740,note_on,0,0,4,,,,,,,,0,,,45,110
94740,note_on,0,0,1,,,,,,,,0,,,81,110
94749,set_tempo,13,1,0,,,,,,368822,,,,,,
94758,set_tempo,9,1,0,,,,,,367152,,,,,,
94771,set_tempo,13,1,0,,,,,,365497,,,,,,
94784,set_tempo,13,1,0,,,,,,363857,,,,,,
94788,note_on,48,0,1,,,,,,,,0,,,81,0
94788,note_on,48,0,4,,,,,,,,0,,,45,0
94788,note_on,0,0,4,,,,,,,,0,,,57,0
94788,note_on,0,0,1,,,,,,,,0,,,69,0
94793,set_tempo,9,1,0,,,,,,362231,,,,,,
94800,note_on,0,0,1,,,,,,,,0,,,82,110
94800,note_on,0,0,4,,,,,,,,0,,,58,110
94800,note_on,12,0,1,,,,,,,,0,,,70,110
94800,note_on,12,0,4,,,,,,,,0,,,46,110
94806,set_tempo,13,1,0,,,,,,360620,,,,,,
94819,set_tempo,13,1,0,,,,,,359023,,,,,,
94832,set_tempo,13,1,0,,,,,,357441,,,,,,
94841,set_tempo,9,1,0,,,,,,355872,,,,,,
94848,note_on,48,0,4,,,,,,,,0,,,58,0
94848,note_on,0,0,1,,,,,,,,0,,,70,0
94848,note_on,48,0,1,,,,,,,,0,,,82,0
94848,note_on,0,0,4,,,,,,,,0,,,46,0
94854,set_tempo,13,1,0,,,,,,354317,,,,,,
94860,note_on,0,0,1,,,,,,,,0,,,71,110
94860,note_on,12,0,4,,,,,,,,0,,,47,110
94860,note_on,0,0,4,,,,,,,,0,,,59,110
94860,note_on,12,0,1,,,,,,,,0,,,83,110
94867,set_tempo,13,1,0,,,,,,352775,,,,,,
94876,set_tempo,9,1,0,,,,,,351247,,,,,,
94889,set_tempo,13,1,0,,,,,,349732,,,,,,
94902,set_tempo,13,1,0,,,,,,348230,,,,,,
94908,note_on,0,0,1,,,,,,,,0,,,83,0
94908,note_on,48,0,4,,,,,,,,0,,,59,0
94908,note_on,0,0,4,,,,,,,,0,,,47,0
94908,note_on,48,0,1,,,,,,,,0,,,71,0
94911,set_tempo,9,1,0,,,,,,346741,,,,,,
94920,note_on,12,0,1,,,,,,,,0,,,84,110
94920,note_on,0,0,1,,,,,,,,0,,,72,110
94920,note_on,0,0,4,,,,,,,,0,,,48,110
94920,note_on,12,0,4,,,,,,,,0,,,60,110
94924,set_tempo,13,1,0,,,,,,345264,,,,,,
94937,set_tempo,13,1,0,,,,,,343800,,,,,,
94950,set_tempo,13,1,0,,,,,,342349,,,,,,
94959,set_tempo,9,1,0,,,,,,340909,,,,,,
94968,note_on,48,0,4,,,,,,,,0,,,48,0
94968,note_on,0,0,1,,,,,,,,0,,,84,0
94968,note_on,48,0,1,,,,,,,,0,,,72,0
94968,note_on,0,0,4,,,,,,,,0,,,60,0
94972,set_tempo,13,1,0,,,,,,339482,,,,,,
94980,note_on,12,0,1,,,,,,,,0,,,73,110
94980,note_on,0,0,4,,,,,,,,0,,,61,110
94980,note_on,12,0,4,,,,,,,,0,,,49,110
94980,note_on,0,0,1,,,,,,,,0,,,85,110
94985,set_tempo,13,1,0,,,,,,338066,,,,,,
94994,set_tempo,9,1,0,,,,,,336663,,,,,,
95007,set_tempo,13,1,0,,,,,,335270,,,,,,
95020,set_tempo,13,1,0,,,,,,333890,,,,,,
95028,note_on,48,0,4,,,,,,,,0,,,61,0
95028,note_on,0,0,4,,,,,,,,0,,,49,0
95028,note_on,0,0,1,,,,,,,,0,,,73,0
95028,note_on,48,0,1,,,,,,,,0,,,85,0
95028,set_tempo,8,1,0,,,,,,332521,,,,,,
95037,set_tempo,9,1,0,,,,,,338066,,,,,,
95040,note_on,12,0,4,,,,,,,,0,,,62,110
95040,control_change,12,0,1,,,,,,,,0,64,0,,
95040,note_on,0,0,4,,,,,,,,0,,,50,110
95040,note_on,0,0,1,,,,,,,,0,,,74,110
95040,note_on,0,0,1,,,,,,,,0,,,86,110
95042,set_tempo,5,1,0,,,,,,336663,,,,,,
95232,note_on,192,0,4,,,,,,,,0,,,50,0
95232,note_on,0,0,4,,,,,,,,0,,,62,0
95232,note_on,192,0,1,,,,,,,,0,,,86,0
95232,note_on,0,0,1,,,,,,,,0,,,74,0
95280,note_on,0,0,4,,,,,,,,0,,,50,110
95280,note_on,48,0,1,,,,,,,,0,,,74,110
95280,note_on,48,0,4,,,,,,,,0,,,62,110
95280,note_on,0,0,1,,,,,,,,0,,,86,110
95424,note_on,0,0,1,,,,,,,,0,,,74,0
95424,note_on,0,0,4,,,,,,,,0,,,62,0
95424,note_on,144,0,4,,,,,,,,0,,,50,0
95424,note_on,144,0,1,,,,,,,,0,,,86,0
95440,set_tempo,398,1,0,,,,,,335270,,,,,,
95460,note_on,0,0,4,,,,,,,,0,,,50,110
95460,note_on,36,0,1,,,,,,,,0,,,74,110
95460,note_on,36,0,4,,,,,,,,0,,,62,110
95460,note_on,0,0,1,,,,,,,,0,,,86,110
95508,note_on,48,0,1,,,,,,,,0,,,86,0
95508,note_on,48,0,4,,,,,,,,0,,,50,0
95508,note_on,0,0,4,,,,,,,,0,,,62,0
95508,note_on,0,0,1,,,,,,,,0,,,74,0
95515,set_tempo,75,1,0,,,,,,670991,,,,,,
95520,note_on,0,0,1,,,,,,,,0,,,78,110
95520,note_on,0,0,4,,,,,,,,0,,,50,110
95520,note_on,0,0,4,,,,,,,,0,,,42,110
95520,control_change,12,0,1,,,,,,,,0,64,127,,
95520,note_on,12,0,4,,,,,,,,0,,,54,110
95520,note_on,0,0,1,,,,,,,,0,,,66,110
95520,note_on,0,0,1,,,,,,,,0,,,71,110
95568,note_on,0,0,1,,,,,,,,0,,,66,0
95568,note_on,0,0,1,,,,,,,,0,,,78,0
95568,note_on,48,0,4,,,,,,,,0,,,50,0
95568,note_on,0,0,4,,,,,,,,0,,,54,0
95568,note_on,48,0,1,,,,,,,,0,,,71,0
95568,note_on,0,0,4,,,,,,,,0,,,42,0
95574,set_tempo,59,1,0,,,,,,397772,,,,,,
95580,note_on,0,0,1,,,,,,,,0,,,67,110
95580,note_on,0,0,4,,,,,,,,0,,,55,110
95580,note_on,12,0,1,,,,,,,,0,,,79,110
95580,note_on,12,0,4,,,,,,,,0,,,43,110
95587,set_tempo,13,1,0,,,,,,395831,,,,,,
95596,set_tempo,9,1,0,,,,,,393908,,,,,,
95609,set_tempo,13,1,0,,,,,,392003,,,,,,
95622,set_tempo,13,1,0,,,,,,390117,,,,,,
95628,note_on,0,0,4,,,,,,,,0,,,43,0
95628,note_on,48,0,1,,,,,,,,0,,,67,0
95628,note_on,48,0,4,,,,,,,,0,,,55,0
95628,note_on,0,0,1,,,,,,,,0,,,79,0
95631,set_tempo,9,1,0,,,,,,388249,,,,,,
95640,note_on,0,0,4,,,,,,,,0,,,56,110
95640,note_on,0,0,1,,,,,,,,0,,,80,110
95640,note_on,12,0,1,,,,,,,,0,,,68,110
95640,note_on,12,0,4,,,,,,,,0,,,44,110
95644,set_tempo,13,1,0,,,,,,386399,,,,,,
95652,set_tempo,8,1,0,,,,,,384566,,,,,,
95666,set_tempo,14,1,0,,,,,,382751,,,,,,
95679,set_tempo,13,1,0,,,,,,380952,,,,,,
95687,set_tempo,8,1,0,,,,,,379171,,,,,,
95688,note_on,48,0,1,,,,,,,,0,,,80,0
95688,note_on,0,0,1,,,,,,,,0,,,68,0
95688,note_on,48,0,4,,,,,,,,0,,,56,0
95688,note_on,0,0,4,,,,,,,,0,,,44,0
95700,note_on,0,0,1,,,,,,,,0,,,69,110
95700,note_on,12,0,4,,,,,,,,0,,,45,110
95700,note_on,0,0,4,,,,,,,,0,,,57,110
95700,note_on,12,0,1,,,,,,,,0,,,81,110
95700,set_tempo,13,1,0,,,,,,377406,,,,,,
95709,set_tempo,9,1,0,,,,,,375657,,,,,,
95722,set_tempo,13,1,0,,,,,,373925,,,,,,
95735,set_tempo,13,1,0,,,,,,372208,,,,,,
95744,set_tempo,9,1,0,,,,,,370508,,,,,,
95748,note_on,0,0,4,,,,,,,,0,,,45,0
95748,note_on,0,0,1,,,,,,,,0,,,81,0
95748,note_on,48,0,1,,,,,,,,0,,,69,0
95748,note_on,48,0,4,,,,,,,,0,,,57,0
95757,set_tempo,13,1,0,,,,,,368822,,,,,,
95760,note_on,12,0,4,,,,,,,,0,,,46,110
95760,note_on,0,0,4,,,,,,,,0,,,58,110
95760,note_on,0,0,1,,,,,,,,0,,,70,110
95760,note_on,12,0,1,,,,,,,,0,,,82,110
95770,set_tempo,13,1,0,,,,,,367152,,,,,,
95779,set_tempo,9,1,0,,,,,,365497,,,,,,
95792,set_tempo,13,1,0,,,,,,363857,,,,,,
95801,set_tempo,9,1,0,,,,,,362231,,,,,,
95808,note_on,0,0,4,,,,,,,,0,,,46,0
95808,note_on,48,0,1,,,,,,,,0,,,70,0
95808,note_on,0,0,1,,,,,,,,0,,,82,0
95808,note_on,48,0,4,,,,,,,,0,,,58,0
95814,set_tempo,13,1,0,,,,,,360620,,,,,,
95820,note_on,0,0,4,,,,,,,,0,,,47,110
95820,note_on,12,0,1,,,,,,,,0,,,71,110
95820,note_on,12,0,4,,,,,,,,0,,,59,110
95820,note_on,0,0,1,,,,,,,,0,,,83,110
95827,set_tempo,13,1,0,,,,,,359023,,,,,,
95836,set_tempo,9,1,0,,,,,,357441,,,,,,
95849,set_tempo,13,1,0,,,,,,355872,,,,,,
95858,set_tempo,9,1,0,,,,,,354317,,,,,,
95868,note_on,48,0,4,,,,,,,,0,,,47,0
95868,note_on,0,0,4,,,,,,,,0,,,59,0
95868,note_on,0,0,1,,,,,,,,0,,,71,0
95868,note_on,48,0,1,,,,,,,,0,,,83,0
95871,set_tempo,13,1,0,,,,,,352775,,,,,,
95880,note_on,0,0,4,,,,,,,,0,,,48,110
95880,note_on,12,0,1,,,,,,,,0,,,84,110
95880,note_on,0,0,1,,,,,,,,0,,,72,110
95880,note_on,12,0,4,,,,,,,,0,,,60,110
95884,set_tempo,13,1,0,,,,,,351247,,,,,,
95892,set_tempo,8,1,0,,,,,,349732,,,,,,
95906,set_tempo,14,1,0,,,,,,348230,,,,,,
95914,set_tempo,8,1,0,,,,,,346741,,,,,,
95927,set_tempo,13,1,0,,,,,,345264,,,,,,
95928,note_on,0,0,4,,,,,,,,0,,,60,0
95928,note_on,48,0,1,,,,,,,,0,,,72,0
95928,note_on,0,0,1,,,,,,,,0,,,84,0
95928,note_on,48,0,4,,,,,,,,0,,,48,0
95940,note_on,12,0,1,,,,,,,,0,,,73,110
95940,note_on,12,0,4,,,,,,,,0,,,49,110
95940,set_tempo,13,1,0,,,,,,343800,,,,,,
95940,note_on,0,0,1,,,,,,,,0,,,85,110
95940,note_on,0,0,4,,,,,,,,0,,,61,110
95949,set_tempo,9,1,0,,,,,,342349,,,,,,
95962,set_tempo,13,1,0,,,,,,340909,,,,,,
95971,set_tempo,9,1,0,,,,,,339482,,,,,,
95980,set_tempo,9,1,0,,,,,,336663,,,,,,
95988,note_on,48,0,4,,,,,,,,0,,,61,0
95988,note_on,0,0,4,,,,,,,,0,,,49,0
95988,note_on,48,0,1,,,,,,,,0,,,85,0
95988,note_on,0,0,1,,,,,,,,0,,,73,0
95991,set_tempo,11,1,0,,,,,,335270,,,,,,
95996,set_tempo,5,1,0,,,,,,336663,,,,,,
96000,set_tempo,4,1,0,,,,,,338066,,,,,,
96000,note_on,0,0,4,,,,,,,,0,,,62,110
96000,note_on,12,0,4,,,,,,,,0,,,50,110
96000,note_on,0,0,1,,,,,,,,0,,,86,110
96000,note_on,0,0,1,,,,,,,,0,,,74,110
96000,control_change,12,0,1,,,,,,,,0,64,0,,
96009,set_tempo,9,1,0,,,,,,339482,,,,,,
96018,set_tempo,9,1,0,,,,,,340909,,,,,,
96026,set_tempo,8,1,0,,,,,,342349,,,,,,
96035,set_tempo,9,1,0,,,,,,343800,,,,,,
96039,set_tempo,4,1,0,,,,,,345264,,,,,,
96048,set_tempo,9,1,0,,,,,,346741,,,,,,
96057,set_tempo,9,1,0,,,,,,348230,,,,,,
96066,set_tempo,9,1,0,,,,,,349732,,,,,,
96074,set_tempo,8,1,0,,,,,,351247,,,,,,
96083,set_tempo,9,1,0,,,,,,352775,,,,,,
96087,set_tempo,4,1,0,,,,,,354317,,,,,,
96096,set_tempo,9,1,0,,,,,,355872,,,,,,
96105,set_tempo,9,1,0,,,,,,357441,,,,,,
96114,set_tempo,9,1,0,,,,,,359023,,,,,,
96122,set_tempo,8,1,0,,,,,,360620,,,,,,
96127,set_tempo,5,1,0,,,,,,362231,,,,,,
96135,set_tempo,8,1,0,,,,,,363857,,,,,,
96144,set_tempo,9,1,0,,,,,,365497,,,,,,
96153,set_tempo,9,1,0,,,,,,367152,,,,,,
96162,set_tempo,9,1,0,,,,,,368822,,,,,,
96170,set_tempo,8,1,0,,,,,,370508,,,,,,
96175,set_tempo,5,1,0,,,,,,372208,,,,,,
96183,set_tempo,8,1,0,,,,,,373925,,,,,,
96192,note_on,192,0,4,,,,,,,,0,,,62,0
96192,note_on,0,0,4,,,,,,,,0,,,50,0
96192,note_on,0,0,1,,,,,,,,0,,,74,0
96192,note_on,192,0,1,,,,,,,,0,,,86,0
96192,set_tempo,9,1,0,,,,,,375657,,,,,,
96201,set_tempo,9,1,0,,,,,,377406,,,,,,
96210,set_tempo,9,1,0,,,,,,379171,,,,,,
96214,set_tempo,4,1,0,,,,,,380952,,,,,,
96223,set_tempo,9,1,0,,,,,,382751,,,,,,
96231,set_tempo,8,1,0,,,,,,384566,,,,,,
96240,note_on,0,0,1,,,,,,,,0,,,86,110
96240,note_on,48,0,1,,,,,,,,0,,,74,110
96240,note_on,0,0,4,,,,,,,,0,,,50,110
96240,set_tempo,9,1,0,,,,,,384566,,,,,,
96240,note_on,48,0,4,,,,,,,,0,,,62,110
96244,set_tempo,4,1,0,,,,,,386399,,,,,,
96249,set_tempo,5,1,0,,,,,,388249,,,,,,
96253,set_tempo,4,1,0,,,,,,390117,,,,,,
96258,set_tempo,5,1,0,,,,,,393908,,,,,,
96262,set_tempo,4,1,0,,,,,,395831,,,,,,
96266,set_tempo,4,1,0,,,,,,397772,,,,,,
96271,set_tempo,5,1,0,,,,,,399734,,,,,,
96275,set_tempo,4,1,0,,,,,,403714,,,,,,
96279,set_tempo,4,1,0,,,,,,405734,,,,,,
96284,set_tempo,5,1,0,,,,,,407775,,,,,,
96288,set_tempo,4,1,0,,,,,,409836,,,,,,
96292,set_tempo,4,1,0,,,,,,414022,,,,,,
96297,set_tempo,5,1,0,,,,,,416146,,,,,,
96301,set_tempo,4,1,0,,,,,,418293,,,,,,
96306,set_tempo,5,1,0,,,,,,422654,,,,,,
96310,set_tempo,4,1,0,,,,,,424869,,,,,,
96314,set_tempo,4,1,0,,,,,,427107,,,,,,
96319,set_tempo,5,1,0,,,,,,429369,,,,,,
96323,set_tempo,4,1,0,,,,,,433965,,,,,,
96327,set_tempo,4,1,0,,,,,,436300,,,,,,
96332,set_tempo,5,1,0,,,,,,438661,,,,,,
96336,set_tempo,4,1,0,,,,,,441047,,,,,,
96340,set_tempo,4,1,0,,,,,,445898,,,,,,
96345,set_tempo,5,1,0,,,,,,448363,,,,,,
96349,set_tempo,4,1,0,,,,,,450857,,,,,,
96354,set_tempo,5,1,0,,,,,,455927,,,,,,
96358,set_tempo,4,1,0,,,,,,458505,,,,,,
96362,set_tempo,4,1,0,,,,,,461113,,,,,,
96367,set_tempo,5,1,0,,,,,,463750,,,,,,
96371,set_tempo,4,1,0,,,,,,469116,,,,,,
96375,set_tempo,4,1,0,,,,,,471846,,,,,,
96380,set_tempo,5,1,0,,,,,,474608,,,,,,
96384,note_on,0,0,1,,,,,,,,0,,,74,0
96384,note_on,144,0,1,,,,,,,,0,,,86,0
96384,set_tempo,4,1,0,,,,,,477403,,,,,,
96384,note_on,0,0,4,,,,,,,,0,,,62,0
96384,note_on,144,0,4,,,,,,,,0,,,50,0
96388,set_tempo,4,1,0,,,,,,483092,,,,,,
96393,set_tempo,5,1,0,,,,,,485987,,,,,,
96397,set_tempo,4,1,0,,,,,,488918,,,,,,
96402,set_tempo,5,1,0,,,,,,491884,,,,,,
96406,set_tempo,4,1,0,,,,,,497925,,,,,,
96410,set_tempo,4,1,0,,,,,,501002,,,,,,
96415,set_tempo,5,1,0,,,,,,504117,,,,,,
96419,set_tempo,4,1,0,,,,,,510465,,,,,,
96420,note_on,0,0,1,,,,,,,,0,,,86,110
96420,note_on,36,0,4,,,,,,,,0,,,50,110
96420,note_on,0,0,4,,,,,,,,0,,,62,110
96420,note_on,36,0,1,,,,,,,,0,,,74,110
96423,set_tempo,4,1,0,,,,,,513699,,,,,,
96428,set_tempo,5,1,0,,,,,,516974,,,,,,
96432,set_tempo,4,1,0,,,,,,520291,,,,,,
96436,set_tempo,4,1,0,,,,,,527056,,,,,,
96441,set_tempo,5,1,0,,,,,,530504,,,,,,
96445,set_tempo,4,1,0,,,,,,533998,,,,,,
96450,set_tempo,5,1,0,,,,,,537538,,,,,,
96454,set_tempo,4,1,0,,,,,,544761,,,,,,
96458,set_tempo,4,1,0,,,,,,548446,,,,,,
96463,set_tempo,5,1,0,,,,,,552181,,,,,,
96467,set_tempo,4,1,0,,,,,,571646,,,,,,
96468,note_on,48,0,4,,,,,,,,0,,,62,0
96468,note_on,0,0,1,,,,,,,,0,,,74,0
96468,note_on,48,0,1,,,,,,,,0,,,86,0
96468,note_on,0,0,4,,,,,,,,0,,,50,0
96480,note_on,0,0,4,,,,,,,,0,,,43,110
96480,note_on,0,0,1,,,,,,,,0,,,65,110
96480,note_on,0,0,4,,,,,,,,0,,,55,110
96480,note_on,12,0,4,,,,,,,,0,,,50,110
96480,note_on,0,0,1,,,,,,,,0,,,67,110
96480,note_on,12,0,1,,,,,,,,0,,,79,110
96480,note_on,0,0,1,,,,,,,,0,,,71,110
96489,set_tempo,22,1,0,,,,,,567644,,,,,,
96576,note_on,0,0,4,,,,,,,,0,,,43,0
96576,note_on,96,0,1,,,,,,,,0,,,65,0
96576,note_on,96,0,4,,,,,,,,0,,,55,0
96576,note_on,0,0,1,,,,,,,,0,,,79,0
96576,note_on,0,0,1,,,,,,,,0,,,71,0
96576,note_on,0,0,1,,,,,,,,0,,,67,0
96576,note_on,0,0,4,,,,,,,,0,,,50,0
96712,set_tempo,223,1,0,,,,,,665484,,,,,,
96720,note_on,144,0,1,,,,,,,,0,,,83,110
96720,note_on,0,0,1,,,,,,,,0,,,77,110
96720,note_on,0,0,1,,,,,,,,0,,,79,110
96720,note_on,0,0,4,,,,,,,,0,,,55,110
96720,note_on,0,0,4,,,,,,,,0,,,62,110
96720,note_on,0,0,4,,,,,,,,0,,,67,110
96720,note_on,144,0,4,,,,,,,,0,,,59,110
96720,note_on,0,0,1,,,,,,,,0,,,91,110
96816,note_on,0,0,4,,,,,,,,0,,,55,0
96816,note_on,0,0,4,,,,,,,,0,,,59,0
96816,note_on,0,0,4,,,,,,,,0,,,67,0
96816,note_on,96,0,4,,,,,,,,0,,,62,0
96816,note_on,0,0,1,,,,,,,,0,,,91,0
96816,note_on,0,0,1,,,,,,,,0,,,83,0
96816,note_on,0,0,1,,,,,,,,0,,,79,0
96816,note_on,96,0,1,,,,,,,,0,,,77,0
96952,set_tempo,240,1,0,,,,,,670991,,,,,,
96960,note_on,0,0,4,,,,,,,,0,,,38,127
96960,note_on,0,0,4,,,,,,,,0,,,49,127
96960,note_on,0,0,4,,,,,,,,0,,,52,127
96960,note_on,0,0,4,,,,,,,,0,,,55,127
96960,note_on,0,0,4,,,,,,,,0,,,61,127
96960,note_on,144,0,4,,,,,,,,0,,,46,127
96962,set_tempo,10,1,0,,,,,,571646,,,,,,
96967,control_change,7,0,4,,,,,,,,0,64,127,,
97056,note_on,89,0,4,,,,,,,,0,,,55,0
97056,note_on,0,0,4,,,,,,,,0,,,38,0
97056,note_on,0,0,4,,,,,,,,0,,,46,0
97056,note_on,0,0,4,,,,,,,,0,,,49,0
97056,note_on,0,0,4,,,,,,,,0,,,52,0
97056,note_on,0,0,4,,,,,,,,0,,,61,0
97070,set_tempo,108,1,0,,,,,,407775,,,,,,
97200,note_on,0,0,2,,,,,,,,0,,,85,80
97200,note_on,20424,0,2,,,,,,,,0,,,73,80
97232,note_on,0,0,2,,,,,,,,0,,,73,0
97232,note_on,32,0,2,,,,,,,,0,,,85,0
97240,note_on,0,0,1,,,,,,,,0,,,99,80
97240,note_on,424,0,1,,,,,,,,0,,,87,80
97272,note_on,0,0,1,,,,,,,,0,,,87,0
97272,note_on,32,0,1,,,,,,,,0,,,99,0
97280,note_on,0,0,2,,,,,,,,0,,,84,80
97280,note_on,48,0,2,,,,,,,,0,,,72,80
97312,note_on,0,0,2,,,,,,,,0,,,72,0
97312,note_on,32,0,2,,,,,,,,0,,,84,0
97320,note_on,0,0,1,,,,,,,,0,,,85,80
97320,note_on,48,0,1,,,,,,,,0,,,97,80
97352,note_on,32,0,1,,,,,,,,0,,,85,0
97352,note_on,0,0,1,,,,,,,,0,,,97,0
97360,note_on,0,0,2,,,,,,,,0,,,82,80
97360,note_on,48,0,2,,,,,,,,0,,,70,80
97392,note_on,32,0,2,,,,,,,,0,,,82,0
97392,note_on,0,0,2,,,,,,,,0,,,70,0
97400,note_on,0,0,1,,,,,,,,0,,,84,80
97400,note_on,48,0,1,,,,,,,,0,,,96,80
97432,note_on,0,0,1,,,,,,,,0,,,96,0
97432,note_on,32,0,1,,,,,,,,0,,,84,0
97440,note_on,48,0,2,,,,,,,,0,,,68,80
97440,note_on,0,0,2,,,,,,,,0,,,80,80
97472,note_on,0,0,2,,,,,,,,0,,,68,0
97472,note_on,32,0,2,,,,,,,,0,,,80,0
97480,note_on,0,0,1,,,,,,,,0,,,94,80
97480,note_on,48,0,1,,,,,,,,0,,,82,80
97512,note_on,32,0,1,,,,,,,,0,,,94,0
97512,note_on,0,0,1,,,,,,,,0,,,82,0
97520,note_on,48,0,2,,,,,,,,0,,,67,80
97520,note_on,0,0,2,,,,,,,,0,,,79,80
97546,set_tempo,476,1,0,,,,,,403714,,,,,,
97552,note_on,32,0,2,,,,,,,,0,,,79,0
97552,note_on,0,0,2,,,,,,,,0,,,67,0
97560,note_on,48,0,1,,,,,,,,0,,,80,80
97560,note_on,0,0,1,,,,,,,,0,,,92,80
97592,note_on,0,0,1,,,,,,,,0,,,80,0
97592,note_on,32,0,1,,,,,,,,0,,,92,0
97600,note_on,0,0,2,,,,,,,,0,,,65,80
97600,note_on,48,0,2,,,,,,,,0,,,77,80
97632,note_on,0,0,2,,,,,,,,0,,,77,0
97632,note_on,32,0,2,,,,,,,,0,,,65,0
97640,note_on,0,0,1,,,,,,,,0,,,79,80
97640,note_on,48,0,1,,,,,,,,0,,,91,80
97672,note_on,32,0,1,,,,,,,,0,,,79,0
97672,note_on,0,0,1,,,,,,,,0,,,91,0
97680,note_on,0,0,2,,,,,,,,0,,,76,80
97680,note_on,48,0,2,,,,,,,,0,,,64,80
97712,note_on,32,0,2,,,,,,,,0,,,76,0
97712,note_on,0,0,2,,,,,,,,0,,,64,0
97720,note_on,48,0,1,,,,,,,,0,,,89,80
97720,note_on,0,0,1,,,,,,,,0,,,77,80
97752,note_on,32,0,1,,,,,,,,0,,,77,0
97752,note_on,0,0,1,,,,,,,,0,,,89,0
97760,note_on,0,0,2,,,,,,,,0,,,61,80
97760,note_on,48,0,2,,,,,,,,0,,,73,80
97792,note_on,0,0,2,,,,,,,,0,,,73,0
97792,note_on,32,0,2,,,,,,,,0,,,61,0
97800,note_on,0,0,1,,,,,,,,0,,,75,80
97800,note_on,48,0,1,,,,,,,,0,,,87,80
97832,note_on,0,0,1,,,,,,,,0,,,87,0
97832,note_on,32,0,1,,,,,,,,0,,,75,0
97840,note_on,48,0,2,,,,,,,,0,,,60,80
97840,note_on,0,0,2,,,,,,,,0,,,72,80
97872,note_on,32,0,2,,,,,,,,0,,,72,0
97872,note_on,0,0,2,,,,,,,,0,,,60,0
97880,note_on,0,0,1,,,,,,,,0,,,73,80
97880,note_on,48,0,1,,,,,,,,0,,,85,80
97912,note_on,32,0,1,,,,,,,,0,,,73,0
97912,note_on,0,0,1,,,,,,,,0,,,85,0
97920,note_on,48,0,2,,,,,,,,0,,,58,80
97920,note_on,0,0,2,,,,,,,,0,,,70,80
97952,note_on,0,0,2,,,,,,,,0,,,58,0
97952,note_on,32,0,2,,,,,,,,0,,,70,0
97960,note_on,0,0,1,,,,,,,,0,,,84,80
97960,note_on,48,0,1,,,,,,,,0,,,72,80
97992,note_on,32,0,1,,,,,,,,0,,,84,0
97992,note_on,0,0,1,,,,,,,,0,,,72,0
98000,note_on,48,0,2,,,,,,,,0,,,56,80
98000,note_on,0,0,2,,,,,,,,0,,,68,80
98032,note_on,0,0,2,,,,,,,,0,,,56,0
98032,note_on,32,0,2,,,,,,,,0,,,68,0
98040,note_on,48,0,1,,,,,,,,0,,,82,80
98040,note_on,0,0,1,,,,,,,,0,,,70,80
98072,note_on,32,0,1,,,,,,,,0,,,70,0
98072,note_on,0,0,1,,,,,,,,0,,,82,0
98080,note_on,0,0,2,,,,,,,,0,,,55,80
98080,note_on,48,0,2,,,,,,,,0,,,67,80
98112,note_on,32,0,2,,,,,,,,0,,,55,0
98112,note_on,0,0,2,,,,,,,,0,,,67,0
98120,note_on,48,0,1,,,,,,,,0,,,80,80
98120,note_on,0,0,1,,,,,,,,0,,,68,80
98152,note_on,32,0,1,,,,,,,,0,,,68,0
98152,note_on,0,0,1,,,,,,,,0,,,80,0
98160,note_on,0,0,2,,,,,,,,0,,,65,80
98160,note_on,48,0,2,,,,,,,,0,,,53,80
98192,note_on,0,0,2,,,,,,,,0,,,53,0
98192,note_on,32,0,2,,,,,,,,0,,,65,0
98200,note_on,0,0,1,,,,,,,,0,,,67,80
98200,note_on,48,0,1,,,,,,,,0,,,79,80
98232,note_on,32,0,1,,,,,,,,0,,,67,0
98232,note_on,0,0,1,,,,,,,,0,,,79,0
98240,note_on,48,0,2,,,,,,,,0,,,52,80
98240,note_on,0,0,2,,,,,,,,0,,,64,80
98269,control_change,1213,0,4,,,,,,,,0,64,0,,
98272,note_on,32,0,2,,,,,,,,0,,,64,0
98272,note_on,0,0,2,,,,,,,,0,,,52,0
98280,note_on,0,0,1,,,,,,,,0,,,65,80
98280,note_on,48,0,1,,,,,,,,0,,,77,80
98312,note_on,0,0,1,,,,,,,,0,,,77,0
98312,note_on,32,0,1,,,,,,,,0,,,65,0
98320,note_on,0,0,2,,,,,,,,0,,,49,80
98320,note_on,48,0,2,,,,,,,,0,,,61,80
98352,note_on,32,0,2,,,,,,,,0,,,49,0
98352,note_on,0,0,2,,,,,,,,0,,,61,0
98360,note_on,0,0,1,,,,,,,,0,,,75,80
98360,note_on,48,0,1,,,,,,,,0,,,63,80
98392,note_on,0,0,1,,,,,,,,0,,,63,0
98392,note_on,32,0,1,,,,,,,,0,,,75,0
98400,note_on,0,0,3,,,,,,,,0,,,60,80
98400,note_on,12976,0,3,,,,,,,,0,,,48,80
98432,note_on,32,0,3,,,,,,,,0,,,60,0
98432,note_on,0,0,3,,,,,,,,0,,,48,0
98440,note_on,48,0,1,,,,,,,,0,,,61,80
98440,note_on,0,0,1,,,,,,,,0,,,73,80
98472,note_on,32,0,1,,,,,,,,0,,,73,0
98472,note_on,0,0,1,,,,,,,,0,,,61,0
98480,note_on,48,0,3,,,,,,,,0,,,46,80
98480,note_on,0,0,3,,,,,,,,0,,,58,80
98512,note_on,0,0,3,,,,,,,,0,,,46,0
98512,note_on,32,0,3,,,,,,,,0,,,58,0
98520,note_on,48,0,1,,,,,,,,0,,,60,80
98520,note_on,0,0,1,,,,,,,,0,,,72,80
98552,note_on,32,0,1,,,,,,,,0,,,72,0
98552,note_on,0,0,1,,,,,,,,0,,,60,0
98560,note_on,48,0,3,,,,,,,,0,,,44,80
98560,note_on,0,0,3,,,,,,,,0,,,56,80
98592,note_on,0,0,3,,,,,,,,0,,,44,0
98592,note_on,32,0,3,,,,,,,,0,,,56,0
98600,note_on,48,0,1,,,,,,,,0,,,70,80
98600,note_on,0,0,1,,,,,,,,0,,,58,80
98632,note_on,0,0,1,,,,,,,,0,,,70,0
98632,note_on,32,0,1,,,,,,,,0,,,58,0
98640,note_on,0,0,3,,,,,,,,0,,,43,80
98640,note_on,48,0,3,,,,,,,,0,,,55,80
98672,note_on,32,0,3,,,,,,,,0,,,43,0
98672,note_on,0,0,3,,,,,,,,0,,,55,0
98680,note_on,48,0,1,,,,,,,,0,,,56,80
98680,note_on,0,0,1,,,,,,,,0,,,68,80
98712,note_on,32,0,1,,,,,,,,0,,,68,0
98712,note_on,0,0,1,,,,,,,,0,,,56,0
98720,note_on,48,0,3,,,,,,,,0,,,53,80
98720,note_on,0,0,3,,,,,,,,0,,,41,80
98752,note_on,0,0,3,,,,,,,,0,,,53,0
98752,note_on,32,0,3,,,,,,,,0,,,41,0
98760,note_on,0,0,1,,,,,,,,0,,,67,80
98760,note_on,48,0,1,,,,,,,,0,,,55,80
98792,note_on,0,0,1,,,,,,,,0,,,55,0
98792,note_on,32,0,1,,,,,,,,0,,,67,0
98800,note_on,48,0,3,,,,,,,,0,,,40,80
98800,note_on,0,0,3,,,,,,,,0,,,52,80
98832,note_on,32,0,3,,,,,,,,0,,,52,0
98832,note_on,0,0,3,,,,,,,,0,,,40,0
98840,note_on,0,0,1,,,,,,,,0,,,65,80
98840,note_on,48,0,1,,,,,,,,0,,,53,80
98872,note_on,0,0,1,,,,,,,,0,,,53,0
98872,note_on,32,0,1,,,,,,,,0,,,65,0
98880,note_on,0,0,3,,,,,,,,0,,,49,80
98880,note_on,48,0,3,,,,,,,,0,,,37,80
98912,note_on,32,0,3,,,,,,,,0,,,49,0
98912,note_on,0,0,3,,,,,,,,0,,,37,0
98920,note_on,48,0,1,,,,,,,,0,,,51,80
98920,note_on,0,0,1,,,,,,,,0,,,63,80
98952,note_on,0,0,1,,,,,,,,0,,,51,0
98952,note_on,32,0,1,,,,,,,,0,,,63,0
98960,note_on,48,0,3,,,,,,,,0,,,48,80
98960,note_on,0,0,3,,,,,,,,0,,,36,80
98992,note_on,0,0,3,,,,,,,,0,,,48,0
98992,note_on,32,0,3,,,,,,,,0,,,36,0
99000,note_on,0,0,1,,,,,,,,0,,,61,80
99000,note_on,48,0,1,,,,,,,,0,,,49,80
99032,note_on,0,0,1,,,,,,,,0,,,49,0
99032,note_on,32,0,1,,,,,,,,0,,,61,0
99040,note_on,0,0,3,,,,,,,,0,,,46,80
99040,note_on,48,0,3,,,,,,,,0,,,34,80
99072,note_on,32,0,3,,,,,,,,0,,,46,0
99072,note_on,0,0,3,,,,,,,,0,,,34,0
99080,note_on,48,0,1,,,,,,,,0,,,48,80
99080,note_on,0,0,1,,,,,,,,0,,,60,80
99112,note_on,32,0,1,,,,,,,,0,,,60,0
99112,note_on,0,0,1,,,,,,,,0,,,48,0
99120,note_on,48,0,3,,,,,,,,0,,,44,80
99120,note_on,0,0,3,,,,,,,,0,,,32,80
99152,note_on,32,0,3,,,,,,,,0,,,32,0
99152,note_on,0,0,3,,,,,,,,0,,,44,0
99160,note_on,48,0,1,,,,,,,,0,,,46,80
99160,note_on,0,0,1,,,,,,,,0,,,58,80
99192,note_on,0,0,1,,,,,,,,0,,,46,0
99192,note_on,32,0,1,,,,,,,,0,,,58,0
99200,note_on,0,0,3,,,,,,,,0,,,43,80
99200,note_on,48,0,3,,,,,,,,0,,,31,80
99232,note_on,32,0,3,,,,,,,,0,,,43,0
99232,note_on,0,0,3,,,,,,,,0,,,31,0
99240,note_on,48,0,1,,,,,,,,0,,,56,80
99240,note_on,0,0,1,,,,,,,,0,,,44,80
99272,note_on,32,0,1,,,,,,,,0,,,44,0
99272,note_on,0,0,1,,,,,,,,0,,,56,0
99280,note_on,0,0,3,,,,,,,,0,,,30,80
99280,note_on,48,0,3,,,,,,,,0,,,42,80
99312,note_on,32,0,3,,,,,,,,0,,,30,0
99312,note_on,0,0,3,,,,,,,,0,,,42,0
99320,note_on,48,0,1,,,,,,,,0,,,43,80
99320,note_on,0,0,1,,,,,,,,0,,,55,80
99352,note_on,32,0,1,,,,,,,,0,,,55,0
99352,note_on,0,0,1,,,,,,,,0,,,43,0
99360,note_on,0,0,4,,,,,,,,0,,,43,80
99360,note_on,1091,0,4,,,,,,,,0,,,31,80
99392,note_on,32,0,4,,,,,,,,0,,,43,0
99392,note_on,0,0,4,,,,,,,,0,,,31,0
99400,note_on,0,0,2,,,,,,,,0,,,56,80
99400,note_on,1048,0,2,,,,,,,,0,,,44,80
99432,note_on,0,0,2,,,,,,,,0,,,44,0
99432,note_on,32,0,2,,,,,,,,0,,,56,0
99440,note_on,48,0,4,,,,,,,,0,,,44,80
99440,note_on,0,0,4,,,,,,,,0,,,32,80
99472,note_on,0,0,4,,,,,,,,0,,,44,0
99472,note_on,32,0,4,,,,,,,,0,,,32,0
99480,note_on,0,0,2,,,,,,,,0,,,57,80
99480,note_on,48,0,2,,,,,,,,0,,,45,80
99512,note_on,0,0,2,,,,,,,,0,,,45,0
99512,note_on,32,0,2,,,,,,,,0,,,57,0
99520,note_on,0,0,4,,,,,,,,0,,,45,80
99520,note_on,48,0,4,,,,,,,,0,,,33,80
99552,note_on,32,0,4,,,,,,,,0,,,45,0
99552,note_on,0,0,4,,,,,,,,0,,,33,0
99560,note_on,0,0,2,,,,,,,,0,,,58,80
99560,note_on,48,0,2,,,,,,,,0,,,46,80
99592,note_on,0,0,2,,,,,,,,0,,,46,0
99592,note_on,32,0,2,,,,,,,,0,,,58,0
99600,note_on,48,0,4,,,,,,,,0,,,34,80
99600,note_on,0,0,4,,,,,,,,0,,,46,80
99632,note_on,0,0,4,,,,,,,,0,,,34,0
99632,note_on,32,0,4,,,,,,,,0,,,46,0
99640,note_on,0,0,2,,,,,,,,0,,,59,80
99640,note_on,48,0,2,,,,,,,,0,,,47,80
99672,note_on,32,0,2,,,,,,,,0,,,59,0
99672,note_on,0,0,2,,,,,,,,0,,,47,0
99680,note_on,0,0,4,,,,,,,,0,,,47,80
99680,note_on,48,0,4,,,,,,,,0,,,35,80
99712,note_on,32,0,4,,,,,,,,0,,,47,0
99712,note_on,0,0,4,,,,,,,,0,,,35,0
99720,note_on,48,0,2,,,,,,,,0,,,60,80
99720,note_on,0,0,2,,,,,,,,0,,,48,80
99752,note_on,0,0,2,,,,,,,,0,,,60,0
99752,note_on,32,0,2,,,,,,,,0,,,48,0
99760,note_on,48,0,4,,,,,,,,0,,,48,80
99760,note_on,0,0,4,,,,,,,,0,,,36,80
99792,note_on,32,0,4,,,,,,,,0,,,36,0
99792,note_on,0,0,4,,,,,,,,0,,,48,0
99800,note_on,0,0,2,,,,,,,,0,,,61,80
99800,note_on,48,0,2,,,,,,,,0,,,49,80
99832,note_on,32,0,2,,,,,,,,0,,,61,0
99832,note_on,0,0,2,,,,,,,,0,,,49,0
99840,note_on,48,0,4,,,,,,,,0,,,48,80
99840,note_on,0,0,4,,,,,,,,0,,,36,80
99872,note_on,0,0,4,,,,,,,,0,,,48,0
99872,note_on,32,0,4,,,,,,,,0,,,36,0
99880,note_on,0,0,2,,,,,,,,0,,,61,82
99880,note_on,48,0,2,,,,,,,,0,,,49,82
99912,note_on,0,0,2,,,,,,,,0,,,49,0
99912,note_on,32,0,2,,,,,,,,0,,,61,0
99920,note_on,0,0,4,,,,,,,,0,,,36,83
99920,note_on,48,0,4,,,,,,,,0,,,48,83
99952,note_on,0,0,4,,,,,,,,0,,,48,0
99952,note_on,32,0,4,,,,,,,,0,,,36,0
99960,note_on,0,0,2,,,,,,,,0,,,61,84
99960,note_on,48,0,2,,,,,,,,0,,,49,84
99992,note_on,0,0,2,,,,,,,,0,,,49,0
99992,note_on,32,0,2,,,,,,,,0,,,61,0
100000,note_on,48,0,4,,,,,,,,0,,,48,85
100000,note_on,0,0,4,,,,,,,,0,,,36,85
100032,note_on,0,0,4,,,,,,,,0,,,48,0
100032,note_on,32,0,4,,,,,,,,0,,,36,0
100040,note_on,48,0,2,,,,,,,,0,,,49,86
100040,note_on,0,0,2,,,,,,,,0,,,61,86
100072,note_on,0,0,2,,,,,,,,0,,,49,0
100072,note_on,32,0,2,,,,,,,,0,,,61,0
100080,note_on,0,0,4,,,,,,,,0,,,36,87
100080,note_on,48,0,4,,,,,,,,0,,,48,87
100112,note_on,32,0,4,,,,,,,,0,,,36,0
100112,note_on,0,0,4,,,,,,,,0,,,48,0
100120,note_on,0,0,2,,,,,,,,0,,,61,88
100120,note_on,48,0,2,,,,,,,,0,,,49,88
100152,note_on,0,0,2,,,,,,,,0,,,49,0
100152,note_on,32,0,2,,,,,,,,0,,,61,0
100160,note_on,48,0,4,,,,,,,,0,,,48,90
100160,note_on,0,0,4,,,,,,,,0,,,36,90
100192,note_on,0,0,4,,,,,,,,0,,,48,0
100192,note_on,32,0,4,,,,,,,,0,,,36,0
100200,note_on,48,0,2,,,,,,,,0,,,61,91
100200,note_on,0,0,2,,,,,,,,0,,,49,91
100232,note_on,32,0,2,,,,,,,,0,,,49,0
100232,note_on,0,0,2,,,,,,,,0,,,61,0
100240,note_on,48,0,4,,,,,,,,0,,,36,92
100240,note_on,0,0,4,,,,,,,,0,,,48,92
100272,note_on,0,0,4,,,,,,,,0,,,36,0
100272,note_on,32,0,4,,,,,,,,0,,,48,0
100280,note_on,0,0,2,,,,,,,,0,,,61,93
100280,note_on,48,0,2,,,,,,,,0,,,49,93
100312,note_on,32,0,2,,,,,,,,0,,,61,0
100312,note_on,0,0,2,,,,,,,,0,,,49,0
100313,set_tempo,2767,1,0,,,,,,403714,,,,,,
100320,note_on,0,0,4,,,,,,,,0,,,48,94
100320,note_on,48,0,4,,,,,,,,0,,,36,94
100512,note_on,192,0,4,,,,,,,,0,,,48,0
100512,note_on,0,0,4,,,,,,,,0,,,36,0
100793,set_tempo,480,1,0,,,,,,555967,,,,,,
100795,set_tempo,2,1,0,,,,,,504117,,,,,,
100799,set_tempo,4,1,0,,,,,,507271,,,,,,
100800,note_on,288,0,4,,,,,,,,0,,,41,110
100800,time_signature,1,1,0,3,4,24,8,,,,,,,,
100800,note_on,1488,0,3,,,,,,,,0,,,56,110
100800,note_on,0,0,1,,,,,,,,0,,,89,110
100800,control_change,0,0,4,,,,,,,,0,64,127,,
100800,note_on,0,0,3,,,,,,,,0,,,48,110
100800,note_on,1448,0,1,,,,,,,,0,,,101,110
100808,set_tempo,8,1,0,,,,,,507271,,,,,,
100812,set_tempo,4,1,0,,,,,,510465,,,,,,
100824,note_on,24,0,1,,,,,,,,0,,,89,0
100830,set_tempo,18,1,0,,,,,,513699,,,,,,
100847,set_tempo,17,1,0,,,,,,516974,,,,,,
100864,set_tempo,17,1,0,,,,,,520291,,,,,,
100864,note_on,40,0,1,,,,,,,,0,,,101,0
100880,note_on,16,0,1,,,,,,,,0,,,77,110
100886,set_tempo,22,1,0,,,,,,523652,,,,,,
100896,note_on,96,0,4,,,,,,,,0,,,41,0
100904,set_tempo,18,1,0,,,,,,527056,,,,,,
100921,set_tempo,17,1,0,,,,,,530504,,,,,,
100943,set_tempo,22,1,0,,,,,,533998,,,,,,
100944,note_on,64,0,1,,,,,,,,0,,,77,0
100960,note_on,16,0,1,,,,,,,,0,,,77,110
100960,set_tempo,17,1,0,,,,,,537538,,,,,,
100960,note_on,0,0,1,,,,,,,,0,,,89,110
100978,set_tempo,18,1,0,,,,,,541126,,,,,,
100992,note_on,0,0,3,,,,,,,,0,,,56,0
100992,note_on,192,0,3,,,,,,,,0,,,48,0
101000,set_tempo,22,1,0,,,,,,544761,,,,,,
101017,set_tempo,17,1,0,,,,,,548446,,,,,,
101024,note_on,64,0,1,,,,,,,,0,,,77,0
101035,set_tempo,18,1,0,,,,,,552181,,,,,,
101040,note_on,144,0,4,,,,,,,,0,,,29,110
101040,note_on,48,0,3,,,,,,,,0,,,44,110
101040,note_on,0,0,4,,,,,,,,0,,,36,110
101040,note_on,16,0,1,,,,,,,,0,,,65,110
101056,set_tempo,21,1,0,,,,,,555967,,,,,,
101074,set_tempo,18,1,0,,,,,,559806,,,,,,
101091,set_tempo,17,1,0,,,,,,563698,,,,,,
101104,note_on,64,0,1,,,,,,,,0,,,65,0
101113,set_tempo,22,1,0,,,,,,567644,,,,,,
101120,note_on,16,0,1,,,,,,,,0,,,65,110
101120,note_on,0,0,1,,,,,,,,0,,,77,110
101131,set_tempo,18,1,0,,,,,,571646,,,,,,
101136,note_on,96,0,4,,,,,,,,0,,,36,0
101136,note_on,0,0,4,,,,,,,,0,,,29,0
101148,set_tempo,17,1,0,,,,,,575705,,,,,,
101152,note_on,32,0,1,,,,,,,,0,,,89,0
101170,set_tempo,22,1,0,,,,,,579822,,,,,,
101184,note_on,0,0,1,,,,,,,,0,,,65,0
101184,note_on,32,0,1,,,,,,,,0,,,77,0
101184,note_on,144,0,3,,,,,,,,0,,,44,0
101187,set_tempo,17,1,0,,,,,,583998,,,,,,
101200,note_on,16,0,1,,,,,,,,0,,,53,110
101205,set_tempo,18,1,0,,,,,,588235,,,,,,
101220,note_on,36,0,3,,,,,,,,0,,,44,110
101222,set_tempo,17,1,0,,,,,,592534,,,,,,
101244,set_tempo,22,1,0,,,,,,596896,,,,,,
101250,note_on,938,0,2,,,,,,,,0,,,65,110
101250,note_on,114,0,4,,,,,,,,0,,,29,110
101260,note_on,10,0,4,,,,,,,,0,,,35,110
101260,note_on,10,0,2,,,,,,,,0,,,62,110
101262,set_tempo,18,1,0,,,,,,601323,,,,,,
101264,note_on,64,0,1,,,,,,,,0,,,53,0
101268,note_on,48,0,3,,,,,,,,0,,,44,0
101270,note_on,10,0,4,,,,,,,,0,,,38,110
101270,note_on,10,0,2,,,,,,,,0,,,56,110
101279,set_tempo,17,1,0,,,,,,605816,,,,,,
101280,note_on,10,0,2,,,,,,,,0,,,53,110
101280,control_change,10,0,4,,,,,,,,0,64,0,,
101280,note_on,0,0,4,,,,,,,,0,,,44,110
101288,set_tempo,9,1,0,,,,,,579822,,,,,,
101352,note_on,0,0,2,,,,,,,,0,,,56,0
101352,note_on,72,0,2,,,,,,,,0,,,53,0
101352,note_on,0,0,4,,,,,,,,0,,,38,0
101352,note_on,72,0,4,,,,,,,,0,,,44,0
101352,note_on,0,0,4,,,,,,,,0,,,29,0
101352,note_on,0,0,2,,,,,,,,0,,,62,0
101352,note_on,0,0,4,,,,,,,,0,,,35,0
101352,note_on,0,0,2,,,,,,,,0,,,65,0
101500,note_on,148,0,4,,,,,,,,0,,,41,110
101510,note_on,10,0,4,,,,,,,,0,,,46,110
101520,note_on,0,0,4,,,,,,,,0,,,55,110
101520,note_on,0,0,1,,,,,,,,0,,,88,110
101520,note_on,10,0,4,,,,,,,,0,,,49,110
101520,control_change,0,0,4,,,,,,,,0,64,127,,
101520,note_on,256,0,1,,,,,,,,0,,,100,110
101532,set_tempo,244,1,0,,,,,,510465,,,,,,
101550,set_tempo,18,1,0,,,,,,513699,,,,,,
101567,set_tempo,17,1,0,,,,,,516974,,,,,,
101584,note_on,0,0,1,,,,,,,,0,,,100,0
101584,set_tempo,17,1,0,,,,,,520291,,,,,,
101584,note_on,64,0,1,,,,,,,,0,,,88,0
101592,note_on,0,0,4,,,,,,,,0,,,46,0
101592,note_on,0,0,4,,,,,,,,0,,,49,0
101592,note_on,72,0,4,,,,,,,,0,,,55,0
101598,set_tempo,14,1,0,,,,,,523652,,,,,,
101600,note_on,16,0,1,,,,,,,,0,,,76,110
101615,set_tempo,17,1,0,,,,,,527056,,,,,,
101618,note_on,26,0,4,,,,,,,,0,,,41,0
101620,note_on,2,0,4,,,,,,,,0,,,29,110
101630,note_on,10,0,4,,,,,,,,0,,,34,110
101632,set_tempo,17,1,0,,,,,,530504,,,,,,
101640,note_on,10,0,4,,,,,,,,0,,,43,110
101640,note_on,0,0,4,,,,,,,,0,,,37,110
101650,set_tempo,18,1,0,,,,,,533998,,,,,,
101664,note_on,64,0,1,,,,,,,,0,,,76,0
101667,set_tempo,17,1,0,,,,,,537538,,,,,,
101680,note_on,16,0,1,,,,,,,,0,,,88,110
101680,set_tempo,13,1,0,,,,,,541126,,,,,,
101680,note_on,0,0,1,,,,,,,,0,,,76,110
101698,set_tempo,18,1,0,,,,,,544761,,,,,,
101712,note_on,72,0,4,,,,,,,,0,,,37,0
101712,note_on,0,0,4,,,,,,,,0,,,43,0
101712,note_on,0,0,4,,,,,,,,0,,,34,0
101715,set_tempo,17,1,0,,,,,,548446,,,,,,
101733,set_tempo,18,1,0,,,,,,552181,,,,,,
101738,note_on,26,0,4,,,,,,,,0,,,29,0
101740,note_on,2,0,4,,,,,,,,0,,,29,110
101744,note_on,64,0,1,,,,,,,,0,,,76,0
101744,note_on,0,0,1,,,,,,,,0,,,88,0
101750,set_tempo,17,1,0,,,,,,555967,,,,,,
101750,note_on,10,0,4,,,,,,,,0,,,34,110
101760,note_on,0,0,4,,,,,,,,0,,,37,110
101760,note_on,10,0,4,,,,,,,,0,,,44,110
101760,note_on,16,0,1,,,,,,,,0,,,64,110
101763,set_tempo,13,1,0,,,,,,559806,,,,,,
101781,set_tempo,18,1,0,,,,,,563698,,,,,,
101798,set_tempo,17,1,0,,,,,,567644,,,,,,
101816,set_tempo,18,1,0,,,,,,571646,,,,,,
101824,note_on,64,0,1,,,,,,,,0,,,64,0
101832,note_on,72,0,4,,,,,,,,0,,,37,0
101832,note_on,0,0,4,,,,,,,,0,,,34,0
101832,note_on,0,0,4,,,,,,,,0,,,44,0
101833,set_tempo,17,1,0,,,,,,575705,,,,,,
101840,note_on,16,0,1,,,,,,,,0,,,64,110
101840,note_on,0,0,1,,,,,,,,0,,,76,110
101846,set_tempo,13,1,0,,,,,,579822,,,,,,
101858,note_on,26,0,4,,,,,,,,0,,,29,0
101860,note_on,2,0,4,,,,,,,,0,,,29,110
101864,set_tempo,18,1,0,,,,,,583998,,,,,,
101870,note_on,10,0,4,,,,,,,,0,,,34,110
101880,note_on,0,0,4,,,,,,,,0,,,46,110
101880,note_on,10,0,4,,,,,,,,0,,,37,110
101881,set_tempo,17,1,0,,,,,,588235,,,,,,
101899,set_tempo,18,1,0,,,,,,592534,,,,,,
101904,note_on,64,0,1,,,,,,,,0,,,76,0
101904,note_on,0,0,1,,,,,,,,0,,,64,0
101916,set_tempo,17,1,0,,,,,,596896,,,,,,
101920,note_on,16,0,1,,,,,,,,0,,,52,110
101929,set_tempo,13,1,0,,,,,,601323,,,,,,
101947,set_tempo,18,1,0,,,,,,605816,,,,,,
101952,note_on,0,0,4,,,,,,,,0,,,29,0
101952,note_on,0,0,4,,,,,,,,0,,,34,0
101952,note_on,0,0,4,,,,,,,,0,,,37,0
101952,note_on,72,0,4,,,,,,,,0,,,46,0
101964,set_tempo,17,1,0,,,,,,610376,,,,,,
101970,note_on,0,0,4,,,,,,,,0,,,48,110
101970,note_on,18,0,4,,,,,,,,0,,,41,110
101970,note_on,702,0,3,,,,,,,,0,,,63,110
101980,note_on,10,0,3,,,,,,,,0,,,60,110
101982,note_on,0,0,4,,,,,,,,0,,,41,0
101982,note_on,12,0,4,,,,,,,,0,,,48,0
101982,set_tempo,18,1,0,,,,,,615006,,,,,,
101984,note_on,64,0,1,,,,,,,,0,,,52,0
101985,note_on,3,0,4,,,,,,,,0,,,45,110
101990,note_on,10,0,3,,,,,,,,0,,,54,110
101997,note_on,12,0,4,,,,,,,,0,,,45,0
101999,set_tempo,17,1,0,,,,,,575705,,,,,,
102000,control_change,3,0,4,,,,,,,,0,64,0,,
102000,note_on,10,0,3,,,,,,,,0,,,51,110
102000,note_on,0,0,4,,,,,,,,0,,,42,110
102096,note_on,96,0,3,,,,,,,,0,,,51,0
102096,note_on,96,0,4,,,,,,,,0,,,42,0
102096,note_on,0,0,3,,,,,,,,0,,,54,0
102096,note_on,0,0,3,,,,,,,,0,,,60,0
102096,note_on,0,0,3,,,,,,,,0,,,63,0
102117,set_tempo,118,1,0,,,,,,579822,,,,,,
102231,set_tempo,114,1,0,,,,,,583998,,,,,,
102239,set_tempo,8,1,0,,,,,,504117,,,,,,
102240,note_on,0,0,1,,,,,,,,0,,,86,110
102240,note_on,256,0,1,,,,,,,,0,,,98,110
102240,control_change,0,0,4,,,,,,,,0,64,127,,
102240,note_on,144,0,4,,,,,,,,0,,,44,110
102240,note_on,0,0,4,,,,,,,,0,,,41,110
102240,note_on,144,0,3,,,,,,,,0,,,47,110
102240,note_on,0,0,3,,,,,,,,0,,,53,110
102256,set_tempo,17,1,0,,,,,,507271,,,,,,
102274,set_tempo,18,1,0,,,,,,510465,,,,,,
102291,set_tempo,17,1,0,,,,,,513699,,,,,,
102304,note_on,0,0,1,,,,,,,,0,,,98,0
102304,note_on,64,0,1,,,,,,,,0,,,86,0
102309,set_tempo,18,1,0,,,,,,516974,,,,,,
102320,note_on,16,0,1,,,,,,,,0,,,74,110
102326,set_tempo,17,1,0,,,,,,520291,,,,,,
102336,note_on,96,0,4,,,,,,,,0,,,41,0
102336,note_on,0,0,4,,,,,,,,0,,,44,0
102344,set_tempo,18,1,0,,,,,,523652,,,,,,
102361,set_tempo,17,1,0,,,,,,527056,,,,,,
102379,set_tempo,18,1,0,,,,,,530504,,,,,,
102384,note_on,64,0,1,,,,,,,,0,,,74,0
102396,set_tempo,17,1,0,,,,,,533998,,,,,,
102400,note_on,0,0,1,,,,,,,,0,,,74,110
102400,note_on,16,0,1,,,,,,,,0,,,86,110
102414,set_tempo,18,1,0,,,,,,537538,,,,,,
102431,set_tempo,17,1,0,,,,,,541126,,,,,,
102432,note_on,192,0,3,,,,,,,,0,,,53,0
102432,note_on,0,0,3,,,,,,,,0,,,47,0
102448,set_tempo,17,1,0,,,,,,544761,,,,,,
102464,note_on,0,0,1,,,,,,,,0,,,86,0
102464,note_on,64,0,1,,,,,,,,0,,,74,0
102466,set_tempo,18,1,0,,,,,,548446,,,,,,
102479,set_tempo,13,1,0,,,,,,552181,,,,,,
102480,note_on,144,0,4,,,,,,,,0,,,35,110
102480,note_on,0,0,4,,,,,,,,0,,,29,110
102480,note_on,0,0,4,,,,,,,,0,,,32,110
102480,note_on,48,0,3,,,,,,,,0,,,41,110
102480,note_on,16,0,1,,,,,,,,0,,,62,110
102496,set_tempo,17,1,0,,,,,,555967,,,,,,
102514,set_tempo,18,1,0,,,,,,559806,,,,,,
102531,set_tempo,17,1,0,,,,,,563698,,,,,,
102544,note_on,64,0,1,,,,,,,,0,,,62,0
102549,set_tempo,18,1,0,,,,,,567644,,,,,,
102560,note_on,16,0,1,,,,,,,,0,,,62,110
102560,note_on,0,0,1,,,,,,,,0,,,74,110
102566,set_tempo,17,1,0,,,,,,571646,,,,,,
102576,note_on,96,0,4,,,,,,,,0,,,32,0
102576,note_on,0,0,4,,,,,,,,0,,,35,0
102576,note_on,0,0,4,,,,,,,,0,,,29,0
102584,set_tempo,18,1,0,,,,,,575705,,,,,,
102601,set_tempo,17,1,0,,,,,,579822,,,,,,
102619,set_tempo,18,1,0,,,,,,583998,,,,,,
102624,note_on,64,0,1,,,,,,,,0,,,74,0
102624,note_on,0,0,1,,,,,,,,0,,,62,0
102624,note_on,144,0,3,,,,,,,,0,,,41,0
102636,set_tempo,17,1,0,,,,,,588235,,,,,,
102640,note_on,16,0,1,,,,,,,,0,,,50,110
102654,set_tempo,18,1,0,,,,,,592534,,,,,,
102660,note_on,36,0,3,,,,,,,,0,,,41,110
102671,set_tempo,17,1,0,,,,,,596896,,,,,,
102688,set_tempo,17,1,0,,,,,,601323,,,,,,
102690,note_on,1338,0,2,,,,,,,,0,,,61,110
102690,note_on,114,0,4,,,,,,,,0,,,29,110
102700,note_on,10,0,2,,,,,,,,0,,,58,110
102704,note_on,64,0,1,,,,,,,,0,,,50,0
102705,note_on,15,0,4,,,,,,,,0,,,31,110
102706,set_tempo,18,1,0,,,,,,605816,,,,,,
102708,note_on,48,0,3,,,,,,,,0,,,41,0
102710,note_on,10,0,2,,,,,,,,0,,,52,110
102711,set_tempo,5,1,0,,,,,,615006,,,,,,
102719,set_tempo,8,1,0,,,,,,610376,,,,,,
102720,note_on,0,0,4,,,,,,,,0,,,40,110
102720,control_change,15,0,4,,,,,,,,0,64,0,,
102720,note_on,0,0,4,,,,,,,,0,,,34,110
102720,note_on,10,0,2,,,,,,,,0,,,49,110
102750,set_tempo,31,1,0,,,,,,605816,,,,,,
102780,set_tempo,30,1,0,,,,,,601323,,,,,,
102811,set_tempo,31,1,0,,,,,,596896,,,,,,
102816,note_on,0,0,4,,,,,,,,0,,,31,0
102816,note_on,96,0,4,,,,,,,,0,,,40,0
102816,note_on,96,0,2,,,,,,,,0,,,49,0
102816,note_on,0,0,2,,,,,,,,0,,,61,0
102816,note_on,0,0,2,,,,,,,,0,,,58,0
102816,note_on,0,0,2,,,,,,,,0,,,52,0
102816,note_on,0,0,4,,,,,,,,0,,,29,0
102816,note_on,0,0,4,,,,,,,,0,,,34,0
102841,set_tempo,30,1,0,,,,,,592534,,,,,,
102872,set_tempo,31,1,0,,,,,,588235,,,,,,
102903,set_tempo,31,1,0,,,,,,583998,,,,,,
102933,set_tempo,30,1,0,,,,,,579822,,,,,,
102959,set_tempo,26,1,0,,,,,,575705,,,,,,
102960,note_on,256,0,1,,,,,,,,0,,,84,110
102960,control_change,0,0,4,,,,,,,,0,64,127,,
102960,note_on,144,0,4,,,,,,,,0,,,41,110
102960,note_on,0,0,4,,,,,,,,0,,,42,110
102960,note_on,0,0,4,,,,,,,,0,,,45,110
102960,note_on,0,0,4,,,,,,,,0,,,51,110
102960,note_on,0,0,1,,,,,,,,0,,,96,110
102964,set_tempo,5,1,0,,,,,,619707,,,,,,
102968,set_tempo,4,1,0,,,,,,497925,,,,,,
102985,set_tempo,17,1,0,,,,,,501002,,,,,,
103003,set_tempo,18,1,0,,,,,,504117,,,,,,
103016,set_tempo,13,1,0,,,,,,507271,,,,,,
103024,note_on,64,0,1,,,,,,,,0,,,96,0
103024,note_on,0,0,1,,,,,,,,0,,,84,0
103033,set_tempo,17,1,0,,,,,,510465,,,,,,
103040,note_on,16,0,1,,,,,,,,0,,,72,110
103051,set_tempo,18,1,0,,,,,,513699,,,,,,
103056,note_on,0,0,4,,,,,,,,0,,,51,0
103056,note_on,0,0,4,,,,,,,,0,,,42,0
103056,note_on,0,0,4,,,,,,,,0,,,41,0
103056,note_on,96,0,4,,,,,,,,0,,,45,0
103064,set_tempo,13,1,0,,,,,,516974,,,,,,
103080,note_on,0,0,4,,,,,,,,0,,,39,110
103080,note_on,0,0,4,,,,,,,,0,,,29,110
103080,note_on,0,0,4,,,,,,,,0,,,33,110
103080,note_on,24,0,4,,,,,,,,0,,,30,110
103081,set_tempo,17,1,0,,,,,,520291,,,,,,
103099,set_tempo,18,1,0,,,,,,523652,,,,,,
103104,note_on,64,0,1,,,,,,,,0,,,72,0
103112,set_tempo,13,1,0,,,,,,527056,,,,,,
103120,note_on,16,0,1,,,,,,,,0,,,84,110
103120,note_on,0,0,1,,,,,,,,0,,,72,110
103129,set_tempo,17,1,0,,,,,,530504,,,,,,
103147,set_tempo,18,1,0,,,,,,533998,,,,,,
103160,set_tempo,13,1,0,,,,,,537538,,,,,,
103176,note_on,96,0,4,,,,,,,,0,,,33,0
103176,note_on,0,0,4,,,,,,,,0,,,29,0
103176,note_on,0,0,4,,,,,,,,0,,,30,0
103176,note_on,0,0,4,,,,,,,,0,,,39,0
103177,set_tempo,17,1,0,,,,,,541126,,,,,,
103184,note_on,0,0,1,,,,,,,,0,,,84,0
103184,note_on,64,0,1,,,,,,,,0,,,72,0
103195,set_tempo,18,1,0,,,,,,544761,,,,,,
103200,note_on,0,0,4,,,,,,,,0,,,30,110
103200,note_on,0,0,4,,,,,,,,0,,,29,110
103200,note_on,24,0,4,,,,,,,,0,,,33,110
103200,note_on,0,0,4,,,,,,,,0,,,41,110
103200,note_on,16,0,1,,,,,,,,0,,,60,110
103208,set_tempo,13,1,0,,,,,,548446,,,,,,
103225,set_tempo,17,1,0,,,,,,552181,,,,,,
103243,set_tempo,18,1,0,,,,,,555967,,,,,,
103256,set_tempo,13,1,0,,,,,,559806,,,,,,
103264,note_on,64,0,1,,,,,,,,0,,,60,0
103273,set_tempo,17,1,0,,,,,,563698,,,,,,
103280,note_on,0,0,1,,,,,,,,0,,,72,110
103280,note_on,16,0,1,,,,,,,,0,,,60,110
103291,set_tempo,18,1,0,,,,,,567644,,,,,,
103296,note_on,0,0,4,,,,,,,,0,,,29,0
103296,note_on,0,0,4,,,,,,,,0,,,33,0
103296,note_on,96,0,4,,,,,,,,0,,,30,0
103296,note_on,0,0,4,,,,,,,,0,,,41,0
103304,set_tempo,13,1,0,,,,,,571646,,,,,,
103320,note_on,24,0,4,,,,,,,,0,,,33,110
103320,note_on,0,0,4,,,,,,,,0,,,30,110
103320,note_on,0,0,4,,,,,,,,0,,,42,110
103320,note_on,0,0,4,,,,,,,,0,,,29,110
103321,set_tempo,17,1,0,,,,,,575705,,,,,,
103339,set_tempo,18,1,0,,,,,,579822,,,,,,
103344,note_on,64,0,1,,,,,,,,0,,,72,0
103344,note_on,0,0,1,,,,,,,,0,,,60,0
103352,set_tempo,13,1,0,,,,,,583998,,,,,,
103360,note_on,16,0,1,,,,,,,,0,,,48,110
103369,set_tempo,17,1,0,,,,,,588235,,,,,,
103387,set_tempo,18,1,0,,,,,,592534,,,,,,
103392,note_on,72,0,4,,,,,,,,0,,,30,0
103392,note_on,0,0,4,,,,,,,,0,,,42,0
103392,note_on,0,0,4,,,,,,,,0,,,33,0
103392,note_on,0,0,4,,,,,,,,0,,,29,0
103400,set_tempo,13,1,0,,,,,,596896,,,,,,
103410,note_on,0,0,4,,,,,,,,0,,,44,110
103410,note_on,18,0,4,,,,,,,,0,,,35,110
103410,note_on,0,0,4,,,,,,,,0,,,29,110
103410,note_on,702,0,3,,,,,,,,0,,,59,110
103417,set_tempo,17,1,0,,,,,,601323,,,,,,
103420,note_on,10,0,3,,,,,,,,0,,,56,110
103422,note_on,0,0,4,,,,,,,,0,,,35,0
103422,note_on,0,0,4,,,,,,,,0,,,44,0
103422,note_on,12,0,4,,,,,,,,0,,,29,0
103424,note_on,64,0,1,,,,,,,,0,,,48,0
103425,note_on,3,0,4,,,,,,,,0,,,41,110
103430,note_on,10,0,3,,,,,,,,0,,,50,110
103435,set_tempo,18,1,0,,,,,,605816,,,,,,
103437,note_on,12,0,4,,,,,,,,0,,,41,0
103440,note_on,0,0,4,,,,,,,,0,,,38,110
103440,control_change,3,0,4,,,,,,,,0,64,0,,
103440,note_on,10,0,3,,,,,,,,0,,,47,110
103444,set_tempo,9,1,0,,,,,,579822,,,,,,
103536,note_on,0,0,3,,,,,,,,0,,,56,0
103536,note_on,0,0,3,,,,,,,,0,,,50,0
103536,note_on,96,0,4,,,,,,,,0,,,38,0
103536,note_on,96,0,3,,,,,,,,0,,,47,0
103536,note_on,0,0,3,,,,,,,,0,,,59,0
103670,set_tempo,226,1,0,,,,,,682283,,,,,,
103675,set_tempo,5,1,0,,,,,,501002,,,,,,
103680,note_on,0,0,3,,,,,,,,0,,,40,110
103680,note_on,0,0,1,,,,,,,,0,,,94,110
103680,note_on,256,0,1,,,,,,,,0,,,82,110
103680,note_on,144,0,4,,,,,,,,0,,,46,110
103680,note_on,144,0,3,,,,,,,,0,,,43,110
103680,note_on,0,0,4,,,,,,,,0,,,49,110
103740,set_tempo,65,1,0,,,,,,504117,,,,,,
103744,note_on,64,0,1,,,,,,,,0,,,94,0
103744,note_on,0,0,1,,,,,,,,0,,,82,0
103760,note_on,16,0,1,,,,,,,,0,,,70,110
103776,note_on,0,0,3,,,,,,,,0,,,43,0
103776,note_on,96,0,3,,,,,,,,0,,,40,0
103800,note_on,24,0,3,,,,,,,,0,,,32,110
103806,set_tempo,66,1,0,,,,,,507271,,,,,,
103824,note_on,64,0,1,,,,,,,,0,,,70,0
103840,note_on,0,0,1,,,,,,,,0,,,70,110
103840,note_on,16,0,1,,,,,,,,0,,,82,110
103871,set_tempo,65,1,0,,,,,,510465,,,,,,
103872,note_on,0,0,4,,,,,,,,0,,,46,0
103872,note_on,192,0,4,,,,,,,,0,,,49,0
103896,note_on,96,0,3,,,,,,,,0,,,32,0
103904,note_on,64,0,1,,,,,,,,0,,,70,0
103904,note_on,0,0,1,,,,,,,,0,,,82,0
103920,note_on,0,0,4,,,,,,,,0,,,48,110
103920,note_on,0,0,4,,,,,,,,0,,,45,110
103920,note_on,0,0,4,,,,,,,,0,,,42,110
103920,note_on,48,0,4,,,,,,,,0,,,39,110
103920,note_on,16,0,1,,,,,,,,0,,,69,110
103936,set_tempo,65,1,0,,,,,,513699,,,,,,
103984,note_on,64,0,1,,,,,,,,0,,,69,0
104000,note_on,16,0,1,,,,,,,,0,,,81,110
104000,note_on,0,0,1,,,,,,,,0,,,69,110
104002,set_tempo,66,1,0,,,,,,516974,,,,,,
104064,note_on,144,0,4,,,,,,,,0,,,45,0
104064,note_on,0,0,1,,,,,,,,0,,,81,0
104064,note_on,0,0,4,,,,,,,,0,,,39,0
104064,note_on,0,0,4,,,,,,,,0,,,42,0
104064,note_on,0,0,4,,,,,,,,0,,,48,0
104064,note_on,64,0,1,,,,,,,,0,,,69,0
104067,set_tempo,65,1,0,,,,,,520291,,,,,,
104080,note_on,16,0,1,,,,,,,,0,,,57,110
104100,note_on,0,0,4,,,,,,,,0,,,42,110
104100,note_on,0,0,4,,,,,,,,0,,,45,110
104100,note_on,0,0,4,,,,,,,,0,,,48,110
104100,note_on,36,0,4,,,,,,,,0,,,39,110
104130,note_on,1314,0,2,,,,,,,,0,,,68,110
104130,note_on,234,0,3,,,,,,,,0,,,38,110
104133,set_tempo,66,1,0,,,,,,523652,,,,,,
104140,note_on,10,0,2,,,,,,,,0,,,65,110
104144,note_on,64,0,1,,,,,,,,0,,,57,0
104145,note_on,15,0,3,,,,,,,,0,,,41,110
104148,note_on,0,0,4,,,,,,,,0,,,42,0
104148,note_on,0,0,4,,,,,,,,0,,,45,0
104148,note_on,0,0,4,,,,,,,,0,,,39,0
104148,note_on,48,0,4,,,,,,,,0,,,48,0
104150,note_on,10,0,2,,,,,,,,0,,,59,110
104160,note_on,12,0,4,,,,,,,,0,,,47,110
104160,note_on,10,0,2,,,,,,,,0,,,56,110
104160,note_on,15,0,3,,,,,,,,0,,,44,110
104198,set_tempo,65,1,0,,,,,,527056,,,,,,
104232,note_on,72,0,2,,,,,,,,0,,,56,0
104232,note_on,72,0,3,,,,,,,,0,,,44,0
104232,note_on,0,0,2,,,,,,,,0,,,65,0
104232,note_on,0,0,2,,,,,,,,0,,,68,0
104232,note_on,0,0,2,,,,,,,,0,,,59,0
104232,note_on,0,0,3,,,,,,,,0,,,38,0
104232,note_on,0,0,3,,,,,,,,0,,,41,0
104264,set_tempo,66,1,0,,,,,,530504,,,,,,
104280,note_on,48,0,3,,,,,,,,0,,,29,120
104329,set_tempo,65,1,0,,,,,,533998,,,,,,
104352,note_on,192,0,4,,,,,,,,0,,,47,0
104376,note_on,96,0,3,,,,,,,,0,,,29,0
104390,set_tempo,61,1,0,,,,,,537538,,,,,,
104400,note_on,48,0,4,,,,,,,,0,,,37,110
104400,note_on,24,0,3,,,,,,,,0,,,46,110
104400,note_on,0,0,4,,,,,,,,0,,,40,110
104400,note_on,0,0,1,,,,,,,,0,,,91,110
104400,note_on,0,0,3,,,,,,,,0,,,43,110
104400,note_on,256,0,1,,,,,,,,0,,,79,110
104451,set_tempo,61,1,0,,,,,,541126,,,,,,
104464,note_on,64,0,1,,,,,,,,0,,,91,0
104464,note_on,0,0,1,,,,,,,,0,,,79,0
104480,note_on,16,0,1,,,,,,,,0,,,67,110
104496,note_on,0,0,4,,,,,,,,0,,,37,0
104496,note_on,96,0,4,,,,,,,,0,,,40,0
104512,set_tempo,61,1,0,,,,,,544761,,,,,,
104520,note_on,24,0,4,,,,,,,,0,,,29,127
104544,note_on,64,0,1,,,,,,,,0,,,67,0
104560,note_on,0,0,1,,,,,,,,0,,,67,110
104560,note_on,16,0,1,,,,,,,,0,,,79,110
104569,set_tempo,57,1,0,,,,,,548446,,,,,,
104592,note_on,0,0,3,,,,,,,,0,,,46,0
104592,note_on,192,0,3,,,,,,,,0,,,43,0
104616,note_on,96,0,4,,,,,,,,0,,,29,0
104624,note_on,64,0,1,,,,,,,,0,,,67,0
104624,note_on,0,0,1,,,,,,,,0,,,79,0
104630,set_tempo,61,1,0,,,,,,552181,,,,,,
104640,note_on,16,0,1,,,,,,,,0,,,66,110
104640,note_on,0,0,4,,,,,,,,0,,,45,110
104640,note_on,0,0,4,,,,,,,,0,,,39,110
104640,note_on,0,0,4,,,,,,,,0,,,36,110
104640,note_on,24,0,4,,,,,,,,0,,,42,110
104691,set_tempo,61,1,0,,,,,,555967,,,,,,
104704,note_on,64,0,1,,,,,,,,0,,,66,0
104720,note_on,0,0,1,,,,,,,,0,,,78,110
104720,note_on,16,0,1,,,,,,,,0,,,66,110
104748,set_tempo,57,1,0,,,,,,559806,,,,,,
104784,note_on,0,0,4,,,,,,,,0,,,45,0
104784,note_on,0,0,4,,,,,,,,0,,,42,0
104784,note_on,64,0,1,,,,,,,,0,,,78,0
104784,note_on,0,0,4,,,,,,,,0,,,39,0
104784,note_on,144,0,4,,,,,,,,0,,,36,0
104784,note_on,0,0,1,,,,,,,,0,,,66,0
104800,note_on,16,0,1,,,,,,,,0,,,54,110
104809,set_tempo,61,1,0,,,,,,563698,,,,,,
104820,note_on,0,0,4,,,,,,,,0,,,36,110
104820,note_on,36,0,4,,,,,,,,0,,,42,110
104820,note_on,0,0,4,,,,,,,,0,,,45,110
104820,note_on,0,0,4,,,,,,,,0,,,39,110
104850,note_on,618,0,2,,,,,,,,0,,,65,110
104860,note_on,10,0,2,,,,,,,,0,,,62,110
104864,note_on,64,0,1,,,,,,,,0,,,54,0
104868,note_on,48,0,4,,,,,,,,0,,,36,0
104868,note_on,0,0,4,,,,,,,,0,,,39,0
104868,note_on,0,0,4,,,,,,,,0,,,45,0
104868,note_on,0,0,4,,,,,,,,0,,,42,0
104870,set_tempo,61,1,0,,,,,,567644,,,,,,
104870,note_on,10,0,2,,,,,,,,0,,,56,110
104880,note_on,288,0,3,,,,,,,,0,,,44,110
104880,note_on,12,0,4,,,,,,,,0,,,35,110
104880,note_on,0,0,4,,,,,,,,0,,,41,110
104880,note_on,10,0,2,,,,,,,,0,,,53,110
104880,note_on,0,0,4,,,,,,,,0,,,38,110
104927,set_tempo,57,1,0,,,,,,571646,,,,,,
104976,note_on,96,0,4,,,,,,,,0,,,38,0
104976,note_on,96,0,2,,,,,,,,0,,,53,0
104976,note_on,0,0,2,,,,,,,,0,,,65,0
104976,note_on,0,0,2,,,,,,,,0,,,62,0
104976,note_on,0,0,4,,,,,,,,0,,,35,0
104976,note_on,0,0,2,,,,,,,,0,,,56,0
104976,note_on,0,0,4,,,,,,,,0,,,41,0
104988,set_tempo,61,1,0,,,,,,575705,,,,,,
105000,note_on,24,0,4,,,,,,,,0,,,29,127
105049,set_tempo,61,1,0,,,,,,579822,,,,,,
105072,note_on,192,0,3,,,,,,,,0,,,44,0
105096,note_on,96,0,4,,,,,,,,0,,,29,0
105106,set_tempo,57,1,0,,,,,,583998,,,,,,
105120,note_on,0,0,4,,,,,,,,0,,,34,110
105120,note_on,0,0,1,,,,,,,,0,,,76,110
105120,note_on,256,0,1,,,,,,,,0,,,88,110
105120,note_on,24,0,4,,,,,,,,0,,,40,110
105120,note_on,0,0,4,,,,,,,,0,,,37,110
105120,note_on,0,0,4,,,,,,,,0,,,43,110
105120,control_change,0,0,4,,,,,,,,0,64,127,,
105184,note_on,64,0,1,,,,,,,,0,,,76,0
105184,note_on,0,0,1,,,,,,,,0,,,88,0
105200,note_on,16,0,1,,,,,,,,0,,,64,110
105216,note_on,0,0,4,,,,,,,,0,,,37,0
105216,note_on,0,0,4,,,,,,,,0,,,34,0
105216,note_on,96,0,4,,,,,,,,0,,,43,0
105216,note_on,0,0,4,,,,,,,,0,,,40,0
105240,note_on,0,0,4,,,,,,,,0,,,31,110
105240,note_on,24,0,4,,,,,,,,0,,,29,110
105264,note_on,64,0,1,,,,,,,,0,,,64,0
105280,note_on,16,0,1,,,,,,,,0,,,85,110
105280,note_on,0,0,1,,,,,,,,0,,,73,110
105336,note_on,0,0,4,,,,,,,,0,,,29,0
105336,note_on,96,0,4,,,,,,,,0,,,31,0
105344,note_on,0,0,1,,,,,,,,0,,,85,0
105344,note_on,64,0,1,,,,,,,,0,,,73,0
105360,note_on,24,0,4,,,,,,,,0,,,34,110
105360,note_on,16,0,1,,,,,,,,0,,,61,110
105360,note_on,0,0,4,,,,,,,,0,,,31,110
105360,note_on,0,0,4,,,,,,,,0,,,29,110
105424,note_on,64,0,1,,,,,,,,0,,,61,0
105440,note_on,16,0,1,,,,,,,,0,,,70,110
105440,note_on,0,0,1,,,,,,,,0,,,82,110
105456,note_on,0,0,4,,,,,,,,0,,,34,0
105456,note_on,96,0,4,,,,,,,,0,,,31,0
105456,note_on,0,0,4,,,,,,,,0,,,29,0
105480,note_on,0,0,4,,,,,,,,0,,,29,110
105480,note_on,24,0,4,,,,,,,,0,,,36,110
105504,note_on,64,0,1,,,,,,,,0,,,82,0
105504,note_on,0,0,1,,,,,,,,0,,,70,0
105520,note_on,16,0,1,,,,,,,,0,,,58,110
105576,note_on,0,0,4,,,,,,,,0,,,36,0
105576,note_on,96,0,4,,,,,,,,0,,,29,0
105584,note_on,64,0,1,,,,,,,,0,,,58,0
105600,note_on,0,0,4,,,,,,,,0,,,31,110
105600,note_on,16,0,1,,,,,,,,0,,,79,110
105600,note_on,24,0,4,,,,,,,,0,,,37,110
105600,note_on,0,0,4,,,,,,,,0,,,29,110
105600,note_on,0,0,1,,,,,,,,0,,,67,110
105600,control_change,0,0,4,,,,,,,,0,64,0,,
105625,control_change,25,0,4,,,,,,,,0,64,127,,
105664,note_on,64,0,1,,,,,,,,0,,,67,0
105664,note_on,0,0,1,,,,,,,,0,,,79,0
105680,note_on,16,0,1,,,,,,,,0,,,55,110
105696,note_on,71,0,4,,,,,,,,0,,,29,0
105696,note_on,0,0,4,,,,,,,,0,,,31,0
105696,note_on,0,0,4,,,,,,,,0,,,37,0
105720,note_on,24,0,4,,,,,,,,0,,,36,110
105720,note_on,0,0,4,,,,,,,,0,,,29,110
105720,note_on,0,0,4,,,,,,,,0,,,31,110
105744,note_on,64,0,1,,,,,,,,0,,,55,0
105760,note_on,16,0,1,,,,,,,,0,,,76,110
105760,note_on,0,0,1,,,,,,,,0,,,64,110
105816,note_on,0,0,4,,,,,,,,0,,,29,0
105816,note_on,0,0,4,,,,,,,,0,,,36,0
105816,note_on,96,0,4,,,,,,,,0,,,31,0
105824,note_on,64,0,1,,,,,,,,0,,,64,0
105824,note_on,0,0,1,,,,,,,,0,,,76,0
105840,note_on,0,0,4,,,,,,,,0,,,29,88
105840,note_on,0,0,4,,,,,,,,0,,,34,88
105840,note_on,0,0,4,,,,,,,,0,,,40,88
105840,note_on,24,0,4,,,,,,,,0,,,37,88
105840,note_on,768,0,3,,,,,,,,0,,,52,110
105840,control_change,0,0,4,,,,,,,,0,64,0,,
105840,note_on,0,0,4,,,,,,,,0,,,31,88
105868,control_change,28,0,4,,,,,,,,0,64,127,,
105904,note_on,64,0,3,,,,,,,,0,,,52,0
105920,note_on,0,0,3,,,,,,,,0,,,73,110
105920,note_on,16,0,3,,,,,,,,0,,,61,110
105936,note_on,0,0,4,,,,,,,,0,,,37,0
105936,note_on,0,0,4,,,,,,,,0,,,31,0
105936,note_on,68,0,4,,,,,,,,0,,,29,0
105936,note_on,0,0,4,,,,,,,,0,,,34,0
105936,note_on,0,0,4,,,,,,,,0,,,40,0
105960,note_on,0,0,4,,,,,,,,0,,,29,88
105960,note_on,0,0,4,,,,,,,,0,,,31,88
105960,note_on,0,0,4,,,,,,,,0,,,37,88
105960,note_on,0,0,4,,,,,,,,0,,,40,88
105960,note_on,24,0,4,,,,,,,,0,,,34,88
105984,note_on,0,0,3,,,,,,,,0,,,61,0
105984,note_on,64,0,3,,,,,,,,0,,,73,0
106000,note_on,16,0,3,,,,,,,,0,,,49,110
106056,note_on,0,0,4,,,,,,,,0,,,34,0
106056,note_on,0,0,4,,,,,,,,0,,,31,0
106056,note_on,0,0,4,,,,,,,,0,,,29,0
106056,note_on,0,0,4,,,,,,,,0,,,40,0
106056,note_on,96,0,4,,,,,,,,0,,,37,0
106064,note_on,64,0,3,,,,,,,,0,,,49,0
106080,note_on,0,0,4,,,,,,,,0,,,40,88
106080,note_on,0,0,4,,,,,,,,0,,,36,88
106080,note_on,0,0,4,,,,,,,,0,,,31,88
106080,note_on,0,0,4,,,,,,,,0,,,34,88
106080,note_on,24,0,4,,,,,,,,0,,,29,88
106080,note_on,16,0,3,,,,,,,,0,,,58,110
106080,note_on,0,0,3,,,,,,,,0,,,70,110
106144,note_on,0,0,3,,,,,,,,0,,,58,0
106144,note_on,64,0,3,,,,,,,,0,,,70,0
106160,note_on,0,0,3,,,,,,,,0,,,46,110
106160,note_on,16,0,3,,,,,,,,0,,,49,110
106176,note_on,96,0,4,,,,,,,,0,,,34,0
106176,note_on,0,0,4,,,,,,,,0,,,29,0
106176,note_on,0,0,4,,,,,,,,0,,,31,0
106176,note_on,0,0,4,,,,,,,,0,,,36,0
106176,note_on,0,0,4,,,,,,,,0,,,40,0
106200,note_on,0,0,4,,,,,,,,0,,,36,88
106200,note_on,0,0,4,,,,,,,,0,,,29,88
106200,note_on,0,0,4,,,,,,,,0,,,34,88
106200,note_on,0,0,4,,,,,,,,0,,,40,88
106200,note_on,24,0,4,,,,,,,,0,,,31,88
106214,control_change,14,0,4,,,,,,,,0,64,0,,
106224,note_on,0,0,3,,,,,,,,0,,,49,0
106224,note_on,64,0,3,,,,,,,,0,,,46,0
106240,note_on,0,0,3,,,,,,,,0,,,67,110
106240,note_on,16,0,3,,,,,,,,0,,,55,110
106246,control_change,32,0,4,,,,,,,,0,64,127,,
106296,note_on,0,0,4,,,,,,,,0,,,31,0
106296,note_on,0,0,4,,,,,,,,0,,,36,0
106296,note_on,0,0,4,,,,,,,,0,,,40,0
106296,note_on,50,0,4,,,,,,,,0,,,29,0
106296,note_on,0,0,4,,,,,,,,0,,,34,0
106304,note_on,0,0,3,,,,,,,,0,,,55,0
106304,note_on,64,0,3,,,,,,,,0,,,67,0
106320,note_on,0,0,3,,,,,,,,0,,,49,110
106320,note_on,16,0,3,,,,,,,,0,,,46,110
106320,note_on,24,0,4,,,,,,,,0,,,37,88
106320,note_on,0,0,4,,,,,,,,0,,,40,88
106320,note_on,0,0,4,,,,,,,,0,,,34,88
106320,note_on,0,0,4,,,,,,,,0,,,31,88
106320,note_on,0,0,4,,,,,,,,0,,,29,88
106384,note_on,64,0,3,,,,,,,,0,,,49,0
106384,note_on,0,0,3,,,,,,,,0,,,46,0
106400,note_on,0,0,3,,,,,,,,0,,,64,110
106400,note_on,16,0,3,,,,,,,,0,,,52,110
106416,note_on,0,0,4,,,,,,,,0,,,40,0
106416,note_on,0,0,4,,,,,,,,0,,,37,0
106416,note_on,0,0,4,,,,,,,,0,,,31,0
106416,note_on,96,0,4,,,,,,,,0,,,34,0
106416,note_on,0,0,4,,,,,,,,0,,,29,0
106440,note_on,24,0,4,,,,,,,,0,,,29,88
106440,note_on,0,0,4,,,,,,,,0,,,34,88
106440,note_on,0,0,4,,,,,,,,0,,,36,88
106440,note_on,0,0,4,,,,,,,,0,,,40,88
106440,note_on,0,0,4,,,,,,,,0,,,31,88
106464,note_on,0,0,3,,,,,,,,0,,,52,0
106464,note_on,64,0,3,,,,,,,,0,,,64,0
106480,note_on,0,0,3,,,,,,,,0,,,46,110
106480,note_on,16,0,3,,,,,,,,0,,,49,110
106536,note_on,0,0,4,,,,,,,,0,,,29,0
106536,note_on,0,0,4,,,,,,,,0,,,34,0
106536,note_on,96,0,4,,,,,,,,0,,,31,0
106536,note_on,0,0,4,,,,,,,,0,,,36,0
106536,note_on,0,0,4,,,,,,,,0,,,40,0
106544,note_on,0,0,3,,,,,,,,0,,,49,0
106544,note_on,64,0,3,,,,,,,,0,,,46,0
106558,set_tempo,1452,1,0,,,,,,368822,,,,,,
106560,note_on,24,0,4,,,,,,,,0,,,49,80
106560,control_change,0,0,4,,,,,,,,0,64,0,,
106560,note_on,0,0,4,,,,,,,,0,,,37,80
106560,note_on,736,0,1,,,,,,,,0,,,61,80
106560,time_signature,2,1,0,2,4,24,8,,,,,,,,
106624,note_on,64,0,4,,,,,,,,0,,,37,0
106624,note_on,64,0,1,,,,,,,,0,,,61,0
106624,note_on,0,0,4,,,,,,,,0,,,49,0
106640,note_on,0,0,4,,,,,,,,0,,,36,80
106640,note_on,16,0,4,,,,,,,,0,,,48,80
106640,note_on,16,0,1,,,,,,,,0,,,60,80
106704,note_on,0,0,4,,,,,,,,0,,,48,0
106704,note_on,64,0,1,,,,,,,,0,,,60,0
106704,note_on,64,0,4,,,,,,,,0,,,36,0
106720,note_on,0,0,4,,,,,,,,0,,,47,80
106720,note_on,16,0,4,,,,,,,,0,,,35,80
106720,note_on,16,0,1,,,,,,,,0,,,59,80
106784,note_on,0,0,4,,,,,,,,0,,,35,0
106784,note_on,64,0,1,,,,,,,,0,,,59,0
106784,note_on,64,0,4,,,,,,,,0,,,47,0
106800,note_on,16,0,4,,,,,,,,0,,,36,80
106800,note_on,16,0,1,,,,,,,,0,,,60,80
106800,note_on,0,0,4,,,,,,,,0,,,48,80
106864,note_on,64,0,1,,,,,,,,0,,,60,0
106864,note_on,64,0,4,,,,,,,,0,,,48,0
106864,note_on,0,0,4,,,,,,,,0,,,36,0
106880,note_on,16,0,4,,,,,,,,0,,,37,80
106880,note_on,0,0,4,,,,,,,,0,,,49,80
106880,note_on,16,0,1,,,,,,,,0,,,61,80
106944,note_on,64,0,1,,,,,,,,0,,,61,0
106944,note_on,0,0,4,,,,,,,,0,,,37,0
106944,note_on,64,0,4,,,,,,,,0,,,49,0
106960,note_on,16,0,4,,,,,,,,0,,,36,80
106960,note_on,16,0,1,,,,,,,,0,,,60,80
106960,note_on,0,0,4,,,,,,,,0,,,48,80
107024,note_on,0,0,4,,,,,,,,0,,,36,0
107024,note_on,64,0,1,,,,,,,,0,,,60,0
107024,note_on,64,0,4,,,,,,,,0,,,48,0
107040,note_on,0,0,4,,,,,,,,0,,,35,80
107040,note_on,16,0,4,,,,,,,,0,,,47,80
107040,note_on,16,0,1,,,,,,,,0,,,59,80
107104,note_on,64,0,4,,,,,,,,0,,,35,0
107104,note_on,64,0,1,,,,,,,,0,,,59,0
107104,note_on,0,0,4,,,,,,,,0,,,47,0
107120,note_on,16,0,1,,,,,,,,0,,,60,80
107120,note_on,0,0,4,,,,,,,,0,,,48,80
107120,note_on,16,0,4,,,,,,,,0,,,36,80
107184,note_on,64,0,1,,,,,,,,0,,,60,0
107184,note_on,64,0,4,,,,,,,,0,,,48,0
107184,note_on,0,0,4,,,,,,,,0,,,36,0
107200,note_on,0,0,4,,,,,,,,0,,,49,80
107200,note_on,16,0,1,,,,,,,,0,,,61,80
107200,note_on,16,0,4,,,,,,,,0,,,37,80
107264,note_on,64,0,1,,,,,,,,0,,,61,0
107264,note_on,64,0,4,,,,,,,,0,,,49,0
107264,note_on,0,0,4,,,,,,,,0,,,37,0
107280,note_on,0,0,4,,,,,,,,0,,,48,80
107280,note_on,16,0,4,,,,,,,,0,,,36,80
107280,note_on,16,0,1,,,,,,,,0,,,60,80
107344,note_on,64,0,4,,,,,,,,0,,,48,0
107344,note_on,0,0,4,,,,,,,,0,,,36,0
107344,note_on,64,0,1,,,,,,,,0,,,60,0
107360,note_on,0,0,4,,,,,,,,0,,,47,80
107360,note_on,16,0,4,,,,,,,,0,,,35,80
107360,note_on,16,0,1,,,,,,,,0,,,59,80
107424,note_on,64,0,4,,,,,,,,0,,,47,0
107424,note_on,64,0,1,,,,,,,,0,,,59,0
107424,note_on,0,0,4,,,,,,,,0,,,35,0
107440,note_on,0,0,4,,,,,,,,0,,,36,80
107440,note_on,16,0,4,,,,,,,,0,,,48,80
107440,note_on,16,0,1,,,,,,,,0,,,60,80
107504,note_on,0,0,4,,,,,,,,0,,,48,0
107504,note_on,64,0,4,,,,,,,,0,,,36,0
107504,note_on,64,0,1,,,,,,,,0,,,60,0
107514,set_tempo,954,1,0,,,,,,370508,,,,,,
107517,set_tempo,3,1,0,,,,,,310849,,,,,,
107520,note_on,16,0,4,,,,,,,,0,,,32,80
107520,note_on,0,0,4,,,,,,,,0,,,29,80
107520,note_on,0,0,4,,,,,,,,0,,,36,80
107520,note_on,0,0,4,,,,,,,,0,,,41,80
107600,note_on,1056,0,3,,,,,,,,0,,,59,80
107600,note_on,0,0,3,,,,,,,,0,,,47,80
107616,note_on,0,0,4,,,,,,,,0,,,32,0
107616,note_on,0,0,4,,,,,,,,0,,,36,0
107616,note_on,96,0,4,,,,,,,,0,,,29,0
107616,note_on,0,0,4,,,,,,,,0,,,41,0
107664,note_on,0,0,3,,,,,,,,0,,,59,0
107664,note_on,64,0,3,,,,,,,,0,,,47,0
107680,note_on,16,0,3,,,,,,,,0,,,48,80
107680,note_on,0,0,3,,,,,,,,0,,,60,80
107744,note_on,0,0,3,,,,,,,,0,,,48,0
107744,note_on,64,0,3,,,,,,,,0,,,60,0
107760,note_on,144,0,4,,,,,,,,0,,,43,80
107760,note_on,0,0,4,,,,,,,,0,,,34,80
107760,note_on,0,0,4,,,,,,,,0,,,40,80
107760,note_on,0,0,4,,,,,,,,0,,,31,80
107840,note_on,0,0,3,,,,,,,,0,,,61,80
107840,note_on,96,0,3,,,,,,,,0,,,49,80
107856,note_on,96,0,4,,,,,,,,0,,,31,0
107856,note_on,0,0,4,,,,,,,,0,,,34,0
107856,note_on,0,0,4,,,,,,,,0,,,40,0
107856,note_on,0,0,4,,,,,,,,0,,,43,0
107904,note_on,64,0,3,,,,,,,,0,,,61,0
107904,note_on,0,0,3,,,,,,,,0,,,49,0
107920,note_on,0,0,3,,,,,,,,0,,,60,80
107920,note_on,16,0,3,,,,,,,,0,,,48,80
107984,note_on,64,0,3,,,,,,,,0,,,60,0
107984,note_on,0,0,3,,,,,,,,0,,,48,0
108000,note_on,0,0,4,,,,,,,,0,,,36,80
108000,note_on,0,0,4,,,,,,,,0,,,32,80
108000,note_on,0,0,4,,,,,,,,0,,,44,80
108000,note_on,144,0,4,,,,,,,,0,,,41,80
108080,note_on,0,0,3,,,,,,,,0,,,47,80
108080,note_on,96,0,3,,,,,,,,0,,,59,80
108096,note_on,0,0,4,,,,,,,,0,,,32,0
108096,note_on,0,0,4,,,,,,,,0,,,44,0
108096,note_on,0,0,4,,,,,,,,0,,,41,0
108096,note_on,96,0,4,,,,,,,,0,,,36,0
108144,note_on,64,0,3,,,,,,,,0,,,47,0
108144,note_on,0,0,3,,,,,,,,0,,,59,0
108160,note_on,0,0,3,,,,,,,,0,,,60,80
108160,note_on,16,0,3,,,,,,,,0,,,48,80
108224,note_on,64,0,3,,,,,,,,0,,,60,0
108224,note_on,0,0,3,,,,,,,,0,,,48,0
108240,note_on,0,0,4,,,,,,,,0,,,40,80
108240,note_on,144,0,4,,,,,,,,0,,,28,80
108240,note_on,0,0,4,,,,,,,,0,,,31,80
108240,note_on,0,0,4,,,,,,,,0,,,36,80
108320,note_on,0,0,3,,,,,,,,0,,,61,80
108320,note_on,96,0,3,,,,,,,,0,,,49,80
108336,note_on,0,0,4,,,,,,,,0,,,28,0
108336,note_on,0,0,4,,,,,,,,0,,,36,0
108336,note_on,0,0,4,,,,,,,,0,,,31,0
108336,note_on,96,0,4,,,,,,,,0,,,40,0
108384,note_on,0,0,3,,,,,,,,0,,,49,0
108384,note_on,64,0,3,,,,,,,,0,,,61,0
108400,note_on,16,0,3,,,,,,,,0,,,48,80
108400,note_on,0,0,3,,,,,,,,0,,,60,80
108464,note_on,0,0,3,,,,,,,,0,,,48,0
108464,note_on,64,0,3,,,,,,,,0,,,60,0
108480,note_on,0,0,4,,,,,,,,0,,,36,80
108480,note_on,0,0,4,,,,,,,,0,,,41,80
108480,note_on,0,0,4,,,,,,,,0,,,29,80
108480,note_on,144,0,4,,,,,,,,0,,,32,80
108560,note_on,96,0,3,,,,,,,,0,,,59,80
108560,note_on,0,0,3,,,,,,,,0,,,47,80
108576,note_on,0,0,4,,,,,,,,0,,,29,0
108576,note_on,0,0,4,,,,,,,,0,,,32,0
108576,note_on,0,0,4,,,,,,,,0,,,36,0
108576,note_on,96,0,4,,,,,,,,0,,,41,0
108624,note_on,0,0,3,,,,,,,,0,,,59,0
108624,note_on,64,0,3,,,,,,,,0,,,47,0
108640,note_on,0,0,3,,,,,,,,0,,,60,80
108640,note_on,16,0,3,,,,,,,,0,,,48,80
108704,note_on,64,0,3,,,,,,,,0,,,60,0
108704,note_on,0,0,3,,,,,,,,0,,,48,0
108720,note_on,0,0,4,,,,,,,,0,,,41,80
108720,note_on,144,0,4,,,,,,,,0,,,44,80
108720,note_on,0,0,4,,,,,,,,0,,,36,80
108720,note_on,0,0,4,,,,,,,,0,,,32,80
108800,note_on,96,0,3,,,,,,,,0,,,55,80
108800,note_on,0,0,3,,,,,,,,0,,,67,80
108816,note_on,0,0,4,,,,,,,,0,,,41,0
108816,note_on,0,0,4,,,,,,,,0,,,44,0
108816,note_on,0,0,4,,,,,,,,0,,,36,0
108816,note_on,96,0,4,,,,,,,,0,,,32,0
108864,note_on,0,0,3,,,,,,,,0,,,55,0
108864,note_on,64,0,3,,,,,,,,0,,,67,0
108880,note_on,16,0,3,,,,,,,,0,,,53,80
108880,note_on,0,0,3,,,,,,,,0,,,65,80
108944,note_on,0,0,3,,,,,,,,0,,,53,0
108944,note_on,64,0,3,,,,,,,,0,,,65,0
108960,note_on,0,0,4,,,,,,,,0,,,43,80
108960,note_on,0,0,4,,,,,,,,0,,,34,80
108960,note_on,144,0,4,,,,,,,,0,,,41,80
109040,note_on,96,0,3,,,,,,,,0,,,63,80
109040,note_on,0,0,3,,,,,,,,0,,,51,80
109056,note_on,0,0,4,,,,,,,,0,,,41,0
109056,note_on,0,0,4,,,,,,,,0,,,43,0
109056,note_on,96,0,4,,,,,,,,0,,,34,0
109104,note_on,0,0,3,,,,,,,,0,,,63,0
109104,note_on,64,0,3,,,,,,,,0,,,51,0
109120,note_on,0,0,3,,,,,,,,0,,,49,80
109120,note_on,16,0,3,,,,,,,,0,,,61,80
109184,note_on,64,0,3,,,,,,,,0,,,49,0
109184,note_on,0,0,3,,,,,,,,0,,,61,0
109200,note_on,0,0,4,,,,,,,,0,,,41,80
109200,note_on,144,0,4,,,,,,,,0,,,37,80
109200,note_on,0,0,4,,,,,,,,0,,,43,80
109280,note_on,0,0,3,,,,,,,,0,,,60,80
109280,note_on,96,0,3,,,,,,,,0,,,48,80
109296,note_on,0,0,4,,,,,,,,0,,,37,0
109296,note_on,0,0,4,,,,,,,,0,,,43,0
109296,note_on,96,0,4,,,,,,,,0,,,41,0
109344,note_on,0,0,3,,,,,,,,0,,,48,0
109344,note_on,64,0,3,,,,,,,,0,,,60,0
109360,note_on,0,0,3,,,,,,,,0,,,58,80
109360,note_on,16,0,3,,,,,,,,0,,,46,80
109424,note_on,64,0,3,,,,,,,,0,,,58,0
109424,note_on,0,0,3,,,,,,,,0,,,46,0
109440,note_on,0,0,4,,,,,,,,0,,,41,80
109440,note_on,144,0,4,,,,,,,,0,,,36,80
109520,note_on,0,0,3,,,,,,,,0,,,58,80
109520,note_on,96,0,3,,,,,,,,0,,,46,80
109536,note_on,96,0,4,,,,,,,,0,,,41,0
109536,note_on,0,0,4,,,,,,,,0,,,36,0
109584,note_on,0,0,3,,,,,,,,0,,,46,0
109584,note_on,64,0,3,,,,,,,,0,,,58,0
109600,note_on,0,0,3,,,,,,,,0,,,44,80
109600,note_on,16,0,3,,,,,,,,0,,,56,80
109664,note_on,64,0,3,,,,,,,,0,,,44,0
109664,note_on,0,0,3,,,,,,,,0,,,56,0
109680,note_on,144,0,4,,,,,,,,0,,,36,80
109680,note_on,0,0,4,,,,,,,,0,,,44,80
109680,note_on,0,0,4,,,,,,,,0,,,41,80
109760,note_on,0,0,3,,,,,,,,0,,,61,80
109760,note_on,96,0,3,,,,,,,,0,,,49,80
109776,note_on,0,0,4,,,,,,,,0,,,44,0
109776,note_on,0,0,4,,,,,,,,0,,,36,0
109776,note_on,96,0,4,,,,,,,,0,,,41,0
109824,note_on,64,0,3,,,,,,,,0,,,61,0
109824,note_on,0,0,3,,,,,,,,0,,,49,0
109840,note_on,16,0,3,,,,,,,,0,,,48,80
109840,note_on,0,0,3,,,,,,,,0,,,60,80
109904,note_on,0,0,3,,,,,,,,0,,,48,0
109904,note_on,64,0,3,,,,,,,,0,,,60,0
109920,note_on,0,0,4,,,,,,,,0,,,36,80
109920,note_on,144,0,4,,,,,,,,0,,,40,80
110000,note_on,96,0,3,,,,,,,,0,,,56,80
110000,note_on,0,0,3,,,,,,,,0,,,44,80
110016,note_on,96,0,4,,,,,,,,0,,,36,0
110016,note_on,0,0,4,,,,,,,,0,,,40,0
110064,note_on,0,0,3,,,,,,,,0,,,56,0
110064,note_on,64,0,3,,,,,,,,0,,,44,0
110080,note_on,16,0,3,,,,,,,,0,,,43,80
110080,note_on,0,0,3,,,,,,,,0,,,55,80
110144,note_on,0,0,3,,,,,,,,0,,,43,0
110144,note_on,64,0,3,,,,,,,,0,,,55,0
110160,note_on,144,0,4,,,,,,,,0,,,46,80
110160,note_on,0,0,4,,,,,,,,0,,,40,80
110160,note_on,0,0,4,,,,,,,,0,,,36,80
110240,note_on,96,0,3,,,,,,,,0,,,49,80
110240,note_on,0,0,3,,,,,,,,0,,,61,80
110256,note_on,96,0,4,,,,,,,,0,,,36,0
110256,note_on,0,0,4,,,,,,,,0,,,46,0
110256,note_on,0,0,4,,,,,,,,0,,,40,0
110304,note_on,64,0,3,,,,,,,,0,,,61,0
110304,note_on,0,0,3,,,,,,,,0,,,49,0
110320,note_on,0,0,3,,,,,,,,0,,,60,80
110320,note_on,16,0,3,,,,,,,,0,,,48,80
110384,note_on,64,0,3,,,,,,,,0,,,60,0
110384,note_on,0,0,3,,,,,,,,0,,,48,0
110400,note_on,0,0,4,,,,,,,,0,,,48,80
110400,note_on,0,0,4,,,,,,,,0,,,53,80
110400,note_on,0,0,4,,,,,,,,0,,,41,80
110400,note_on,144,0,4,,,,,,,,0,,,44,80
110480,note_on,0,0,2,,,,,,,,0,,,59,100
110480,note_on,5504,0,2,,,,,,,,0,,,71,100
110496,note_on,0,0,4,,,,,,,,0,,,53,0
110496,note_on,0,0,4,,,,,,,,0,,,44,0
110496,note_on,96,0,4,,,,,,,,0,,,48,0
110496,note_on,0,0,4,,,,,,,,0,,,41,0
110544,note_on,0,0,2,,,,,,,,0,,,71,0
110544,note_on,64,0,2,,,,,,,,0,,,59,0
110560,note_on,0,0,2,,,,,,,,0,,,60,100
110560,note_on,16,0,2,,,,,,,,0,,,72,100
110624,note_on,0,0,2,,,,,,,,0,,,72,0
110624,note_on,64,0,2,,,,,,,,0,,,60,0
110640,note_on,0,0,4,,,,,,,,0,,,52,80
110640,note_on,0,0,4,,,,,,,,0,,,46,80
110640,note_on,0,0,4,,,,,,,,0,,,43,80
110640,note_on,144,0,4,,,,,,,,0,,,55,80
110720,note_on,0,0,2,,,,,,,,0,,,61,100
110720,note_on,96,0,2,,,,,,,,0,,,73,100
110736,note_on,96,0,4,,,,,,,,0,,,52,0
110736,note_on,0,0,4,,,,,,,,0,,,55,0
110736,note_on,0,0,4,,,,,,,,0,,,46,0
110736,note_on,0,0,4,,,,,,,,0,,,43,0
110784,note_on,64,0,2,,,,,,,,0,,,61,0
110784,note_on,0,0,2,,,,,,,,0,,,73,0
110800,note_on,16,0,2,,,,,,,,0,,,72,100
110800,note_on,0,0,2,,,,,,,,0,,,60,100
110864,note_on,64,0,2,,,,,,,,0,,,60,0
110864,note_on,0,0,2,,,,,,,,0,,,72,0
110880,note_on,0,0,4,,,,,,,,0,,,44,80
110880,note_on,0,0,4,,,,,,,,0,,,56,80
110880,note_on,144,0,4,,,,,,,,0,,,48,80
110880,note_on,0,0,4,,,,,,,,0,,,53,80
110960,note_on,96,0,2,,,,,,,,0,,,71,100
110960,note_on,0,0,2,,,,,,,,0,,,59,100
110976,note_on,0,0,4,,,,,,,,0,,,48,0
110976,note_on,0,0,4,,,,,,,,0,,,56,0
110976,note_on,96,0,4,,,,,,,,0,,,44,0
110976,note_on,0,0,4,,,,,,,,0,,,53,0
111024,note_on,64,0,2,,,,,,,,0,,,59,0
111024,note_on,0,0,2,,,,,,,,0,,,71,0
111040,note_on,0,0,2,,,,,,,,0,,,72,100
111040,note_on,16,0,2,,,,,,,,0,,,60,100
111104,note_on,64,0,2,,,,,,,,0,,,72,0
111104,note_on,0,0,2,,,,,,,,0,,,60,0
111120,note_on,0,0,4,,,,,,,,0,,,43,80
111120,note_on,144,0,4,,,,,,,,0,,,48,80
111120,note_on,0,0,4,,,,,,,,0,,,52,80
111120,note_on,0,0,4,,,,,,,,0,,,46,80
111120,note_on,0,0,4,,,,,,,,0,,,40,80
111200,note_on,96,0,2,,,,,,,,0,,,61,100
111200,note_on,0,0,2,,,,,,,,0,,,73,100
111216,note_on,0,0,4,,,,,,,,0,,,40,0
111216,note_on,0,0,4,,,,,,,,0,,,43,0
111216,note_on,0,0,4,,,,,,,,0,,,48,0
111216,note_on,96,0,4,,,,,,,,0,,,52,0
111216,note_on,0,0,4,,,,,,,,0,,,46,0
111264,note_on,64,0,2,,,,,,,,0,,,73,0
111264,note_on,0,0,2,,,,,,,,0,,,61,0
111280,note_on,0,0,2,,,,,,,,0,,,72,100
111280,note_on,16,0,2,,,,,,,,0,,,60,100
111344,note_on,0,0,2,,,,,,,,0,,,60,0
111344,note_on,64,0,2,,,,,,,,0,,,72,0
111360,note_on,0,0,4,,,,,,,,0,,,53,80
111360,note_on,0,0,4,,,,,,,,0,,,44,80
111360,note_on,144,0,4,,,,,,,,0,,,48,80
111360,note_on,0,0,4,,,,,,,,0,,,41,80
111440,note_on,96,0,2,,,,,,,,0,,,71,100
111440,note_on,0,0,2,,,,,,,,0,,,59,100
111456,note_on,0,0,4,,,,,,,,0,,,44,0
111456,note_on,0,0,4,,,,,,,,0,,,53,0
111456,note_on,0,0,4,,,,,,,,0,,,48,0
111456,note_on,96,0,4,,,,,,,,0,,,41,0
111504,note_on,64,0,2,,,,,,,,0,,,59,0
111504,note_on,0,0,2,,,,,,,,0,,,71,0
111520,note_on,16,0,2,,,,,,,,0,,,60,100
111520,note_on,0,0,2,,,,,,,,0,,,72,100
111584,note_on,0,0,2,,,,,,,,0,,,60,0
111584,note_on,64,0,2,,,,,,,,0,,,72,0
111600,note_on,0,0,4,,,,,,,,0,,,56,80
111600,note_on,0,0,4,,,,,,,,0,,,53,80
111600,note_on,0,0,4,,,,,,,,0,,,44,80
111600,note_on,144,0,4,,,,,,,,0,,,48,80
111680,note_on,0,0,2,,,,,,,,0,,,82,100
111680,note_on,96,0,2,,,,,,,,0,,,70,100
111696,note_on,96,0,4,,,,,,,,0,,,44,0
111696,note_on,0,0,4,,,,,,,,0,,,53,0
111696,note_on,0,0,4,,,,,,,,0,,,56,0
111696,note_on,0,0,4,,,,,,,,0,,,48,0
111744,note_on,0,0,2,,,,,,,,0,,,70,0
111744,note_on,64,0,2,,,,,,,,0,,,82,0
111760,note_on,0,0,2,,,,,,,,0,,,80,100
111760,note_on,16,0,2,,,,,,,,0,,,68,100
111824,note_on,0,0,2,,,,,,,,0,,,68,0
111824,note_on,64,0,2,,,,,,,,0,,,80,0
111840,note_on,0,0,4,,,,,,,,0,,,46,80
111840,note_on,0,0,4,,,,,,,,0,,,53,80
111840,note_on,0,0,4,,,,,,,,0,,,61,80
111840,note_on,144,0,4,,,,,,,,0,,,55,80
111920,note_on,96,0,2,,,,,,,,0,,,79,100
111920,note_on,0,0,2,,,,,,,,0,,,67,100
111936,note_on,0,0,4,,,,,,,,0,,,46,0
111936,note_on,0,0,4,,,,,,,,0,,,55,0
111936,note_on,0,0,4,,,,,,,,0,,,61,0
111936,note_on,96,0,4,,,,,,,,0,,,53,0
111984,note_on,64,0,2,,,,,,,,0,,,67,0
111984,note_on,0,0,2,,,,,,,,0,,,79,0
112000,note_on,0,0,2,,,,,,,,0,,,77,100
112000,note_on,16,0,2,,,,,,,,0,,,65,100
112064,note_on,64,0,2,,,,,,,,0,,,77,0
112064,note_on,0,0,2,,,,,,,,0,,,65,0
112080,note_on,0,0,4,,,,,,,,0,,,58,80
112080,note_on,0,0,4,,,,,,,,0,,,55,80
112080,note_on,0,0,4,,,,,,,,0,,,53,80
112080,note_on,144,0,4,,,,,,,,0,,,49,80
112160,note_on,96,0,2,,,,,,,,0,,,63,100
112160,note_on,0,0,2,,,,,,,,0,,,75,100
112176,note_on,0,0,4,,,,,,,,0,,,49,0
112176,note_on,0,0,4,,,,,,,,0,,,58,0
112176,note_on,0,0,4,,,,,,,,0,,,55,0
112176,note_on,96,0,4,,,,,,,,0,,,53,0
112224,note_on,0,0,2,,,,,,,,0,,,63,0
112224,note_on,64,0,2,,,,,,,,0,,,75,0
112240,note_on,16,0,2,,,,,,,,0,,,61,100
112240,note_on,0,0,2,,,,,,,,0,,,73,100
112304,note_on,0,0,2,,,,,,,,0,,,61,0
112304,note_on,64,0,2,,,,,,,,0,,,73,0
112320,note_on,0,0,4,,,,,,,,0,,,56,80
112320,note_on,0,0,4,,,,,,,,0,,,48,80
112320,note_on,144,0,4,,,,,,,,0,,,53,80
112325,set_tempo,4808,1,0,,,,,,307314,,,,,,
112341,control_change,21,0,4,,,,,,,,0,64,127,,
112400,note_on,0,0,2,,,,,,,,0,,,61,80
112400,note_on,96,0,2,,,,,,,,0,,,73,80
112416,note_on,0,0,4,,,,,,,,0,,,48,0
112416,note_on,0,0,4,,,,,,,,0,,,53,0
112416,note_on,75,0,4,,,,,,,,0,,,56,0
112434,set_tempo,109,1,0,,,,,,306154,,,,,,
112464,note_on,0,0,2,,,,,,,,0,,,73,0
112464,note_on,64,0,2,,,,,,,,0,,,61,0
112480,note_on,0,0,2,,,,,,,,0,,,72,80
112480,note_on,16,0,2,,,,,,,,0,,,60,80
112539,set_tempo,105,1,0,,,,,,305002,,,,,,
112544,note_on,0,0,2,,,,,,,,0,,,60,0
112544,note_on,64,0,2,,,,,,,,0,,,72,0
112560,note_on,0,0,4,,,,,,,,0,,,44,80
112560,note_on,144,0,4,,,,,,,,0,,,41,80
112560,note_on,0,0,4,,,,,,,,0,,,48,80
112560,note_on,0,0,4,,,,,,,,0,,,36,80
112562,control_change,2,0,4,,,,,,,,0,64,0,,
112578,control_change,16,0,4,,,,,,,,0,64,127,,
112640,note_on,0,0,2,,,,,,,,0,,,71,80
112640,note_on,96,0,2,,,,,,,,0,,,59,80
112643,set_tempo,104,1,0,,,,,,303859,,,,,,
112656,note_on,0,0,4,,,,,,,,0,,,41,0
112656,note_on,0,0,4,,,,,,,,0,,,44,0
112656,note_on,0,0,4,,,,,,,,0,,,48,0
112656,note_on,78,0,4,,,,,,,,0,,,36,0
112704,note_on,64,0,2,,,,,,,,0,,,71,0
112704,note_on,0,0,2,,,,,,,,0,,,59,0
112720,note_on,16,0,2,,,,,,,,0,,,60,80
112720,note_on,0,0,2,,,,,,,,0,,,72,80
112748,set_tempo,105,1,0,,,,,,302725,,,,,,
112784,note_on,64,0,2,,,,,,,,0,,,72,0
112784,note_on,0,0,2,,,,,,,,0,,,60,0
112800,note_on,0,0,4,,,,,,,,0,,,58,80
112800,control_change,144,0,4,,,,,,,,0,64,0,,
112800,note_on,0,0,4,,,,,,,,0,,,48,80
112800,note_on,0,0,4,,,,,,,,0,,,55,80
112800,note_on,0,0,4,,,,,,,,0,,,52,80
112821,control_change,21,0,4,,,,,,,,0,64,127,,
112853,set_tempo,105,1,0,,,,,,301598,,,,,,
112880,note_on,96,0,2,,,,,,,,0,,,73,100
112880,note_on,0,0,2,,,,,,,,0,,,61,100
112896,note_on,0,0,4,,,,,,,,0,,,48,0
112896,note_on,0,0,4,,,,,,,,0,,,55,0
112896,note_on,0,0,4,,,,,,,,0,,,58,0
112896,note_on,75,0,4,,,,,,,,0,,,52,0
112944,note_on,64,0,2,,,,,,,,0,,,61,0
112944,note_on,0,0,2,,,,,,,,0,,,73,0
112958,set_tempo,105,1,0,,,,,,300481,,,,,,
112960,note_on,0,0,2,,,,,,,,0,,,72,100
112960,note_on,16,0,2,,,,,,,,0,,,60,100
113024,note_on,0,0,2,,,,,,,,0,,,60,0
113024,note_on,64,0,2,,,,,,,,0,,,72,0
113040,control_change,0,0,4,,,,,,,,0,64,0,,
113040,note_on,0,0,4,,,,,,,,0,,,40,80
113040,note_on,144,0,4,,,,,,,,0,,,46,80
113040,note_on,0,0,4,,,,,,,,0,,,48,80
113040,note_on,0,0,4,,,,,,,,0,,,36,80
113058,control_change,18,0,4,,,,,,,,0,64,127,,
113062,set_tempo,104,1,0,,,,,,299371,,,,,,
113120,note_on,96,0,2,,,,,,,,0,,,73,101
113120,note_on,0,0,2,,,,,,,,0,,,85,101
113136,note_on,0,0,4,,,,,,,,0,,,48,0
113136,note_on,0,0,4,,,,,,,,0,,,46,0
113136,note_on,0,0,4,,,,,,,,0,,,40,0
113136,note_on,78,0,4,,,,,,,,0,,,36,0
113167,set_tempo,105,1,0,,,,,,298270,,,,,,
113184,note_on,0,0,2,,,,,,,,0,,,73,0
113184,note_on,64,0,2,,,,,,,,0,,,85,0
113200,note_on,0,0,2,,,,,,,,0,,,84,101
113200,note_on,16,0,2,,,,,,,,0,,,72,101
113264,note_on,0,0,2,,,,,,,,0,,,72,0
113264,note_on,64,0,2,,,,,,,,0,,,84,0
113272,set_tempo,105,1,0,,,,,,297177,,,,,,
113280,control_change,0,0,4,,,,,,,,0,64,0,,
113280,note_on,0,0,4,,,,,,,,0,,,56,80
113280,note_on,144,0,4,,,,,,,,0,,,41,80
113280,note_on,0,0,4,,,,,,,,0,,,48,80
113298,control_change,18,0,4,,,,,,,,0,64,127,,
113360,note_on,0,0,2,,,,,,,,0,,,97,102
113360,note_on,96,0,2,,,,,,,,0,,,85,102
113376,note_on,0,0,4,,,,,,,,0,,,41,0
113376,note_on,0,0,4,,,,,,,,0,,,56,0
113376,note_on,78,0,4,,,,,,,,0,,,48,0
113376,set_tempo,104,1,0,,,,,,296092,,,,,,
113424,note_on,64,0,2,,,,,,,,0,,,97,0
113424,note_on,0,0,2,,,,,,,,0,,,85,0
113440,note_on,0,0,2,,,,,,,,0,,,96,103
113440,note_on,16,0,2,,,,,,,,0,,,84,103
113481,set_tempo,105,1,0,,,,,,295014,,,,,,
113504,note_on,0,0,2,,,,,,,,0,,,84,0
113504,note_on,64,0,2,,,,,,,,0,,,96,0
113513,control_change,137,0,4,,,,,,,,0,64,0,,
113520,note_on,0,0,4,,,,,,,,0,,,53,80
113520,note_on,0,0,4,,,,,,,,0,,,60,80
113520,note_on,7,0,4,,,,,,,,0,,,44,80
113531,control_change,11,0,4,,,,,,,,0,64,127,,
113586,set_tempo,105,1,0,,,,,,293945,,,,,,
113600,note_on,96,0,2,,,,,,,,0,,,82,104
113600,note_on,0,0,2,,,,,,,,0,,,94,104
113616,note_on,0,0,4,,,,,,,,0,,,44,0
113616,note_on,85,0,4,,,,,,,,0,,,60,0
113616,note_on,0,0,4,,,,,,,,0,,,53,0
113664,note_on,0,0,2,,,,,,,,0,,,82,0
113664,note_on,64,0,2,,,,,,,,0,,,94,0
113680,note_on,16,0,2,,,,,,,,0,,,80,104
113680,note_on,0,0,2,,,,,,,,0,,,92,104
113691,set_tempo,105,1,0,,,,,,292883,,,,,,
113744,note_on,64,0,2,,,,,,,,0,,,92,0
113744,note_on,0,0,2,,,,,,,,0,,,80,0
113760,note_on,0,0,4,,,,,,,,0,,,46,80
113760,control_change,0,0,4,,,,,,,,0,64,0,,
113760,note_on,144,0,4,,,,,,,,0,,,61,80
113760,note_on,0,0,4,,,,,,,,0,,,53,80
113778,control_change,18,0,4,,,,,,,,0,64,127,,
113795,set_tempo,104,1,0,,,,,,291829,,,,,,
113840,note_on,96,0,2,,,,,,,,0,,,91,105
113840,note_on,0,0,2,,,,,,,,0,,,79,105
113856,note_on,0,0,4,,,,,,,,0,,,53,0
113856,note_on,78,0,4,,,,,,,,0,,,46,0
113856,note_on,0,0,4,,,,,,,,0,,,61,0
113900,set_tempo,105,1,0,,,,,,290782,,,,,,
113904,note_on,64,0,2,,,,,,,,0,,,79,0
113904,note_on,0,0,2,,,,,,,,0,,,91,0
113920,note_on,0,0,2,,,,,,,,0,,,77,105
113920,note_on,16,0,2,,,,,,,,0,,,89,105
113984,note_on,0,0,2,,,,,,,,0,,,89,0
113984,note_on,64,0,2,,,,,,,,0,,,77,0
113993,control_change,137,0,4,,,,,,,,0,64,0,,
114000,note_on,7,0,4,,,,,,,,0,,,65,80
114000,note_on,0,0,4,,,,,,,,0,,,49,80
114000,note_on,0,0,4,,,,,,,,0,,,58,80
114005,set_tempo,105,1,0,,,,,,289743,,,,,,
114014,control_change,14,0,4,,,,,,,,0,64,127,,
114080,note_on,0,0,2,,,,,,,,0,,,87,106
114080,note_on,96,0,2,,,,,,,,0,,,75,106
114096,note_on,0,0,4,,,,,,,,0,,,65,0
114096,note_on,82,0,4,,,,,,,,0,,,49,0
114096,note_on,0,0,4,,,,,,,,0,,,58,0
114110,set_tempo,105,1,0,,,,,,288711,,,,,,
114144,note_on,64,0,2,,,,,,,,0,,,87,0
114144,note_on,0,0,2,,,,,,,,0,,,75,0
114160,note_on,16,0,2,,,,,,,,0,,,73,107
114160,note_on,0,0,2,,,,,,,,0,,,85,107
114214,set_tempo,104,1,0,,,,,,287687,,,,,,
114224,note_on,64,0,2,,,,,,,,0,,,85,0
114224,note_on,0,0,2,,,,,,,,0,,,73,0
114240,note_on,0,0,4,,,,,,,,0,,,56,80
114240,note_on,0,0,4,,,,,,,,0,,,48,80
114240,control_change,0,0,4,,,,,,,,0,64,0,,
114240,note_on,0,0,4,,,,,,,,0,,,60,80
114240,note_on,144,0,4,,,,,,,,0,,,53,80
114240,set_tempo,26,1,0,,,,,,288711,,,,,,
114268,control_change,28,0,4,,,,,,,,0,64,127,,
114320,note_on,96,0,2,,,,,,,,0,,,73,108
114320,note_on,0,0,2,,,,,,,,0,,,85,108
114336,note_on,0,0,4,,,,,,,,0,,,48,0
114336,note_on,0,0,4,,,,,,,,0,,,53,0
114336,note_on,0,0,4,,,,,,,,0,,,60,0
114336,note_on,68,0,4,,,,,,,,0,,,56,0
114384,note_on,64,0,2,,,,,,,,0,,,85,0
114384,note_on,0,0,2,,,,,,,,0,,,73,0
114400,note_on,16,0,2,,,,,,,,0,,,72,108
114400,note_on,0,0,2,,,,,,,,0,,,84,108
114464,note_on,64,0,2,,,,,,,,0,,,84,0
114464,note_on,0,0,2,,,,,,,,0,,,72,0
114473,control_change,137,0,4,,,,,,,,0,64,0,,
114480,note_on,0,0,4,,,,,,,,0,,,48,80
114480,note_on,0,0,4,,,,,,,,0,,,36,80
114480,note_on,7,0,4,,,,,,,,0,,,41,80
114480,note_on,0,0,4,,,,,,,,0,,,44,80
114494,control_change,14,0,4,,,,,,,,0,64,127,,
114560,note_on,96,0,2,,,,,,,,0,,,71,109
114560,note_on,0,0,2,,,,,,,,0,,,83,109
114576,note_on,0,0,4,,,,,,,,0,,,48,0
114576,note_on,0,0,4,,,,,,,,0,,,41,0
114576,note_on,82,0,4,,,,,,,,0,,,36,0
114576,note_on,0,0,4,,,,,,,,0,,,44,0
114624,note_on,0,0,2,,,,,,,,0,,,71,0
114624,note_on,64,0,2,,,,,,,,0,,,83,0
114640,note_on,16,0,2,,,,,,,,0,,,84,110
114640,note_on,0,0,2,,,,,,,,0,,,72,110
114704,note_on,0,0,2,,,,,,,,0,,,84,0
114704,note_on,64,0,2,,,,,,,,0,,,72,0
114720,note_on,0,0,4,,,,,,,,0,,,58,80
114720,control_change,144,0,4,,,,,,,,0,64,0,,
114720,note_on,0,0,4,,,,,,,,0,,,60,80
114720,note_on,0,0,4,,,,,,,,0,,,48,80
114720,note_on,0,0,4,,,,,,,,0,,,52,80
114734,control_change,14,0,4,,,,,,,,0,64,127,,
114800,note_on,96,0,2,,,,,,,,0,,,61,100
114800,note_on,0,0,2,,,,,,,,0,,,73,100
114816,note_on,0,0,4,,,,,,,,0,,,58,0
114816,note_on,0,0,4,,,,,,,,0,,,52,0
114816,note_on,0,0,4,,,,,,,,0,,,60,0
114816,note_on,82,0,4,,,,,,,,0,,,48,0
114864,note_on,64,0,2,,,,,,,,0,,,73,0
114864,note_on,0,0,2,,,,,,,,0,,,61,0
114880,note_on,0,0,2,,,,,,,,0,,,60,100
114880,note_on,16,0,2,,,,,,,,0,,,72,100
114944,note_on,64,0,2,,,,,,,,0,,,60,0
114944,note_on,0,0,2,,,,,,,,0,,,72,0
114960,note_on,0,0,4,,,,,,,,0,,,43,80
114960,note_on,0,0,4,,,,,,,,0,,,36,80
114960,control_change,0,0,4,,,,,,,,0,64,0,,
114960,note_on,144,0,4,,,,,,,,0,,,48,80
114960,note_on,0,0,4,,,,,,,,0,,,40,80
114971,control_change,11,0,4,,,,,,,,0,64,127,,
115040,note_on,96,0,2,,,,,,,,0,,,70,101
115040,note_on,0,0,2,,,,,,,,0,,,58,101
115056,note_on,85,0,4,,,,,,,,0,,,40,0
115056,note_on,0,0,4,,,,,,,,0,,,48,0
115056,note_on,0,0,4,,,,,,,,0,,,43,0
115056,note_on,0,0,4,,,,,,,,0,,,36,0
115104,note_on,0,0,2,,,,,,,,0,,,70,0
115104,note_on,64,0,2,,,,,,,,0,,,58,0
115120,note_on,0,0,2,,,,,,,,0,,,60,101
115120,note_on,16,0,2,,,,,,,,0,,,72,101
115184,note_on,64,0,2,,,,,,,,0,,,60,0
115184,note_on,0,0,2,,,,,,,,0,,,72,0
115200,note_on,0,0,4,,,,,,,,0,,,56,80
115200,note_on,144,0,4,,,,,,,,0,,,41,80
115200,note_on,0,0,4,,,,,,,,0,,,48,80
115205,set_tempo,965,1,0,,,,,,286670,,,,,,
115214,control_change,14,0,4,,,,,,,,0,64,0,,
115228,control_change,14,0,4,,,,,,,,0,64,127,,
115266,set_tempo,61,1,0,,,,,,285660,,,,,,
115280,note_on,0,0,2,,,,,,,,0,,,89,102
115280,note_on,96,0,2,,,,,,,,0,,,101,102
115296,note_on,68,0,4,,,,,,,,0,,,56,0
115296,note_on,0,0,4,,,,,,,,0,,,41,0
115296,note_on,0,0,4,,,,,,,,0,,,48,0
115327,set_tempo,61,1,0,,,,,,284657,,,,,,
115344,note_on,64,0,2,,,,,,,,0,,,89,0
115344,note_on,0,0,2,,,,,,,,0,,,101,0
115360,note_on,16,0,2,,,,,,,,0,,,85,102
115360,note_on,0,0,2,,,,,,,,0,,,97,102
115384,set_tempo,57,1,0,,,,,,283661,,,,,,
115424,note_on,0,0,2,,,,,,,,0,,,85,0
115424,note_on,64,0,2,,,,,,,,0,,,97,0
115440,note_on,0,0,4,,,,,,,,0,,,44,80
115440,note_on,0,0,4,,,,,,,,0,,,60,80
115440,note_on,144,0,4,,,,,,,,0,,,53,80
115445,set_tempo,61,1,0,,,,,,282672,,,,,,
115451,control_change,11,0,4,,,,,,,,0,64,0,,
115477,control_change,26,0,4,,,,,,,,0,64,127,,
115506,set_tempo,61,1,0,,,,,,281690,,,,,,
115520,note_on,96,0,2,,,,,,,,0,,,84,103
115520,note_on,0,0,2,,,,,,,,0,,,96,103
115536,note_on,0,0,4,,,,,,,,0,,,44,0
115536,note_on,59,0,4,,,,,,,,0,,,60,0
115536,note_on,0,0,4,,,,,,,,0,,,53,0
115563,set_tempo,57,1,0,,,,,,280715,,,,,,
115584,note_on,64,0,2,,,,,,,,0,,,96,0
115584,note_on,0,0,2,,,,,,,,0,,,84,0
115600,note_on,16,0,2,,,,,,,,0,,,80,103
115600,note_on,0,0,2,,,,,,,,0,,,92,103
115624,set_tempo,61,1,0,,,,,,279746,,,,,,
115664,note_on,64,0,2,,,,,,,,0,,,92,0
115664,note_on,0,0,2,,,,,,,,0,,,80,0
115680,note_on,0,0,4,,,,,,,,0,,,46,80
115680,note_on,0,0,4,,,,,,,,0,,,53,80
115680,set_tempo,56,1,0,,,,,,278784,,,,,,
115680,note_on,144,0,4,,,,,,,,0,,,61,80
115680,control_change,0,0,4,,,,,,,,0,64,0,,
115694,control_change,14,0,4,,,,,,,,0,64,127,,
115742,set_tempo,62,1,0,,,,,,277829,,,,,,
115760,note_on,0,0,2,,,,,,,,0,,,78,104
115760,note_on,96,0,2,,,,,,,,0,,,90,104
115776,note_on,82,0,4,,,,,,,,0,,,53,0
115776,note_on,0,0,4,,,,,,,,0,,,46,0
115776,note_on,0,0,4,,,,,,,,0,,,61,0
115803,set_tempo,61,1,0,,,,,,276880,,,,,,
115824,note_on,0,0,2,,,,,,,,0,,,90,0
115824,note_on,64,0,2,,,,,,,,0,,,78,0
115840,note_on,16,0,2,,,,,,,,0,,,89,104
115840,note_on,0,0,2,,,,,,,,0,,,77,104
115859,set_tempo,56,1,0,,,,,,275938,,,,,,
115904,note_on,0,0,2,,,,,,,,0,,,89,0
115904,note_on,64,0,2,,,,,,,,0,,,77,0
115920,note_on,0,0,4,,,,,,,,0,,,65,80
115920,note_on,0,0,4,,,,,,,,0,,,58,80
115920,note_on,144,0,4,,,,,,,,0,,,49,80
115920,set_tempo,61,1,0,,,,,,275002,,,,,,
115927,control_change,7,0,4,,,,,,,,0,64,0,,
115948,control_change,21,0,4,,,,,,,,0,64,127,,
115982,set_tempo,62,1,0,,,,,,274073,,,,,,
116000,note_on,0,0,2,,,,,,,,0,,,85,105
116000,note_on,96,0,2,,,,,,,,0,,,73,105
116016,note_on,0,0,4,,,,,,,,0,,,65,0
116016,note_on,68,0,4,,,,,,,,0,,,58,0
116016,note_on,0,0,4,,,,,,,,0,,,49,0
116038,set_tempo,56,1,0,,,,,,273149,,,,,,
116064,note_on,64,0,2,,,,,,,,0,,,85,0
116064,note_on,0,0,2,,,,,,,,0,,,73,0
116080,note_on,0,0,2,,,,,,,,0,,,82,105
116080,note_on,16,0,2,,,,,,,,0,,,70,105
116099,set_tempo,61,1,0,,,,,,272232,,,,,,
116144,note_on,0,0,2,,,,,,,,0,,,70,0
116144,note_on,64,0,2,,,,,,,,0,,,82,0
116156,set_tempo,57,1,0,,,,,,271321,,,,,,
116160,note_on,0,0,4,,,,,,,,0,,,48,80
116160,note_on,0,0,4,,,,,,,,0,,,65,80
116160,note_on,144,0,4,,,,,,,,0,,,56,80
116174,control_change,14,0,4,,,,,,,,0,64,0,,
116178,control_change,4,0,4,,,,,,,,0,64,127,,
116240,note_on,0,0,2,,,,,,,,0,,,85,106
116240,note_on,96,0,2,,,,,,,,0,,,73,106
116256,note_on,0,0,4,,,,,,,,0,,,56,0
116256,note_on,78,0,4,,,,,,,,0,,,65,0
116256,note_on,0,0,4,,,,,,,,0,,,48,0
116304,note_on,0,0,2,,,,,,,,0,,,73,0
116304,note_on,64,0,2,,,,,,,,0,,,85,0
116320,note_on,0,0,2,,,,,,,,0,,,84,106
116320,note_on,16,0,2,,,,,,,,0,,,72,106
116384,note_on,0,0,2,,,,,,,,0,,,72,0
116384,note_on,64,0,2,,,,,,,,0,,,84,0
116400,note_on,0,0,4,,,,,,,,0,,,36,80
116400,note_on,0,0,4,,,,,,,,0,,,44,80
116400,note_on,0,0,4,,,,,,,,0,,,48,80
116400,note_on,144,0,4,,,,,,,,0,,,41,80
116407,control_change,7,0,4,,,,,,,,0,64,0,,
116432,control_change,25,0,4,,,,,,,,0,64,127,,
116480,note_on,0,0,2,,,,,,,,0,,,68,107
116480,note_on,96,0,2,,,,,,,,0,,,80,107
116496,note_on,64,0,4,,,,,,,,0,,,44,0
116496,note_on,0,0,4,,,,,,,,0,,,41,0
116496,note_on,0,0,4,,,,,,,,0,,,36,0
116496,note_on,0,0,4,,,,,,,,0,,,48,0
116544,note_on,0,0,2,,,,,,,,0,,,80,0
116544,note_on,64,0,2,,,,,,,,0,,,68,0
116560,note_on,0,0,2,,,,,,,,0,,,77,107
116560,note_on,16,0,2,,,,,,,,0,,,65,107
116624,note_on,64,0,2,,,,,,,,0,,,77,0
116624,note_on,0,0,2,,,,,,,,0,,,65,0
116640,control_change,0,0,4,,,,,,,,0,64,0,,
116640,note_on,0,0,4,,,,,,,,0,,,55,80
116640,note_on,0,0,4,,,,,,,,0,,,64,80
116640,note_on,144,0,4,,,,,,,,0,,,48,80
116640,note_on,0,0,4,,,,,,,,0,,,58,80
116668,control_change,28,0,4,,,,,,,,0,64,127,,
116720,note_on,0,0,2,,,,,,,,0,,,61,108
116720,note_on,96,0,2,,,,,,,,0,,,73,108
116736,note_on,68,0,4,,,,,,,,0,,,55,0
116736,note_on,0,0,4,,,,,,,,0,,,64,0
116736,note_on,0,0,4,,,,,,,,0,,,58,0
116736,note_on,0,0,4,,,,,,,,0,,,48,0
116784,note_on,0,0,2,,,,,,,,0,,,73,0
116784,note_on,64,0,2,,,,,,,,0,,,61,0
116800,note_on,0,0,2,,,,,,,,0,,,60,108
116800,note_on,16,0,2,,,,,,,,0,,,72,108
116864,note_on,0,0,2,,,,,,,,0,,,72,0
116864,note_on,64,0,2,,,,,,,,0,,,60,0
116880,note_on,0,0,4,,,,,,,,0,,,48,80
116880,note_on,0,0,4,,,,,,,,0,,,46,80
116880,note_on,0,0,4,,,,,,,,0,,,36,80
116880,note_on,144,0,4,,,,,,,,0,,,40,80
116884,control_change,4,0,4,,,,,,,,0,64,0,,
116901,control_change,17,0,4,,,,,,,,0,64,127,,
116960,note_on,0,0,2,,,,,,,,0,,,80,109
116960,note_on,96,0,2,,,,,,,,0,,,68,109
116976,note_on,0,0,4,,,,,,,,0,,,48,0
116976,note_on,0,0,4,,,,,,,,0,,,46,0
116976,note_on,75,0,4,,,,,,,,0,,,36,0
116976,note_on,0,0,4,,,,,,,,0,,,40,0
117024,note_on,64,0,2,,,,,,,,0,,,80,0
117024,note_on,0,0,2,,,,,,,,0,,,68,0
117040,note_on,16,0,2,,,,,,,,0,,,79,110
117040,note_on,0,0,2,,,,,,,,0,,,67,110
117104,note_on,0,0,2,,,,,,,,0,,,79,0
117104,note_on,64,0,2,,,,,,,,0,,,67,0
117104,end_of_track,0,1,2,,,,,,,,,,,,
117113,set_tempo,957,1,0,,,,,,336663,,,,,,
117120,control_change,0,0,4,,,,,,,,0,64,0,,
117120,note_on,144,0,4,,,,,,,,0,,,44,110
117120,note_on,0,0,4,,,,,,,,0,,,41,110
117120,note_on,9616,0,1,,,,,,,,0,,,65,110
117120,note_on,0,0,4,,,,,,,,0,,,53,110
117120,note_on,0,0,4,,,,,,,,0,,,48,110
117126,set_tempo,13,1,0,,,,,,368822,,,,,,
117145,control_change,25,0,4,,,,,,,,0,64,127,,
117168,note_on,48,0,1,,,,,,,,0,,,65,0
117180,note_on,12,0,1,,,,,,,,0,,,77,110
117228,note_on,48,0,1,,,,,,,,0,,,77,0
117240,note_on,12,0,1,,,,,,,,0,,,65,110
117288,note_on,48,0,1,,,,,,,,0,,,65,0
117300,note_on,12,0,1,,,,,,,,0,,,77,110
117312,note_on,0,0,4,,,,,,,,0,,,41,0
117312,note_on,0,0,4,,,,,,,,0,,,44,0
117312,note_on,0,0,4,,,,,,,,0,,,48,0
117312,note_on,167,0,4,,,,,,,,0,,,53,0
117348,note_on,48,0,1,,,,,,,,0,,,77,0
117360,note_on,0,0,4,,,,,,,,0,,,44,110
117360,note_on,0,0,4,,,,,,,,0,,,41,110
117360,note_on,0,0,4,,,,,,,,0,,,53,110
117360,note_on,48,0,4,,,,,,,,0,,,48,110
117360,note_on,12,0,1,,,,,,,,0,,,65,110
117392,note_on,32,0,1,,,,,,,,0,,,65,0
117400,note_on,8,0,1,,,,,,,,0,,,77,110
117432,note_on,32,0,1,,,,,,,,0,,,77,0
117440,note_on,8,0,1,,,,,,,,0,,,89,110
117472,note_on,32,0,1,,,,,,,,0,,,89,0
117480,note_on,8,0,1,,,,,,,,0,,,101,80
117504,note_on,144,0,4,,,,,,,,0,,,44,0
117504,note_on,0,0,4,,,,,,,,0,,,41,0
117504,note_on,0,0,4,,,,,,,,0,,,48,0
117504,note_on,0,0,4,,,,,,,,0,,,53,0
117540,note_on,0,0,4,,,,,,,,0,,,53,110
117540,note_on,0,0,4,,,,,,,,0,,,48,110
117540,note_on,36,0,4,,,,,,,,0,,,41,110
117540,note_on,0,0,4,,,,,,,,0,,,44,110
117576,note_on,96,0,1,,,,,,,,0,,,101,0
117588,note_on,0,0,4,,,,,,,,0,,,41,0
117588,note_on,0,0,4,,,,,,,,0,,,48,0
117588,note_on,48,0,4,,,,,,,,0,,,53,0
117588,note_on,0,0,4,,,,,,,,0,,,44,0
117600,control_change,0,0,4,,,,,,,,0,64,0,,
117600,note_on,7216,0,3,,,,,,,,0,,,59,80
117600,control_change,0,0,4,,,,,,,,0,64,127,,
117600,note_on,0,0,4,,,,,,,,0,,,47,110
117600,note_on,0,0,3,,,,,,,,0,,,53,80
117600,note_on,0,0,3,,,,,,,,0,,,62,80
117600,note_on,12,0,4,,,,,,,,0,,,35,110
117648,note_on,48,0,3,,,,,,,,0,,,53,0
117648,note_on,0,0,3,,,,,,,,0,,,62,0
117648,note_on,0,0,3,,,,,,,,0,,,59,0
117660,note_on,12,0,3,,,,,,,,0,,,65,80
117664,note_on,64,0,4,,,,,,,,0,,,47,0
117664,note_on,0,0,4,,,,,,,,0,,,35,0
117680,note_on,16,0,4,,,,,,,,0,,,48,110
117680,note_on,0,0,4,,,,,,,,0,,,36,110
117708,note_on,48,0,3,,,,,,,,0,,,65,0
117720,note_on,12,0,3,,,,,,,,0,,,59,80
117720,note_on,0,0,3,,,,,,,,0,,,62,80
117720,note_on,0,0,3,,,,,,,,0,,,53,80
117744,note_on,64,0,4,,,,,,,,0,,,36,0
117744,note_on,0,0,4,,,,,,,,0,,,48,0
117760,note_on,16,0,4,,,,,,,,0,,,37,110
117760,note_on,0,0,4,,,,,,,,0,,,49,110
117768,note_on,0,0,3,,,,,,,,0,,,53,0
117768,note_on,0,0,3,,,,,,,,0,,,59,0
117768,note_on,48,0,3,,,,,,,,0,,,62,0
117780,note_on,12,0,3,,,,,,,,0,,,65,80
117824,note_on,0,0,4,,,,,,,,0,,,37,0
117824,note_on,64,0,4,,,,,,,,0,,,49,0
117828,note_on,48,0,3,,,,,,,,0,,,65,0
117840,note_on,0,0,4,,,,,,,,0,,,50,110
117840,note_on,0,0,3,,,,,,,,0,,,59,80
117840,note_on,0,0,3,,,,,,,,0,,,62,80
117840,note_on,12,0,3,,,,,,,,0,,,53,80
117840,note_on,16,0,4,,,,,,,,0,,,38,110
117888,note_on,0,0,3,,,,,,,,0,,,53,0
117888,note_on,0,0,3,,,,,,,,0,,,59,0
117888,note_on,48,0,3,,,,,,,,0,,,62,0
117900,note_on,12,0,3,,,,,,,,0,,,65,80
117904,note_on,0,0,4,,,,,,,,0,,,38,0
117904,note_on,64,0,4,,,,,,,,0,,,50,0
117920,note_on,16,0,4,,,,,,,,0,,,39,110
117920,note_on,0,0,4,,,,,,,,0,,,51,110
117948,note_on,48,0,3,,,,,,,,0,,,65,0
117960,note_on,0,0,3,,,,,,,,0,,,62,80
117960,note_on,0,0,3,,,,,,,,0,,,59,80
117960,note_on,12,0,3,,,,,,,,0,,,53,80
117984,note_on,0,0,4,,,,,,,,0,,,39,0
117984,note_on,64,0,4,,,,,,,,0,,,51,0
118000,note_on,16,0,4,,,,,,,,0,,,52,110
118000,note_on,0,0,4,,,,,,,,0,,,40,110
118008,note_on,48,0,3,,,,,,,,0,,,62,0
118008,note_on,0,0,3,,,,,,,,0,,,53,0
118008,note_on,0,0,3,,,,,,,,0,,,59,0
118020,note_on,12,0,3,,,,,,,,0,,,65,80
118064,note_on,64,0,4,,,,,,,,0,,,40,0
118064,note_on,0,0,4,,,,,,,,0,,,52,0
118068,note_on,48,0,3,,,,,,,,0,,,65,0
118080,note_on,0,0,4,,,,,,,,0,,,41,110
118080,note_on,504,0,1,,,,,,,,0,,,65,110
118080,control_change,16,0,4,,,,,,,,0,64,0,,
118080,note_on,0,0,4,,,,,,,,0,,,53,110
118092,control_change,12,0,4,,,,,,,,0,64,127,,
118128,note_on,48,0,1,,,,,,,,0,,,65,0
118140,note_on,12,0,1,,,,,,,,0,,,77,110
118188,note_on,48,0,1,,,,,,,,0,,,77,0
118200,note_on,12,0,1,,,,,,,,0,,,65,110
118248,note_on,48,0,1,,,,,,,,0,,,65,0
118260,note_on,12,0,1,,,,,,,,0,,,77,110
118272,note_on,0,0,4,,,,,,,,0,,,53,0
118272,note_on,180,0,4,,,,,,,,0,,,41,0
118308,note_on,48,0,1,,,,,,,,0,,,77,0
118320,note_on,12,0,1,,,,,,,,0,,,65,110
118320,note_on,0,0,4,,,,,,,,0,,,41,80
118320,note_on,48,0,4,,,,,,,,0,,,53,80
118352,note_on,32,0,1,,,,,,,,0,,,65,0
118360,note_on,8,0,1,,,,,,,,0,,,77,110
118392,note_on,32,0,1,,,,,,,,0,,,77,0
118400,note_on,8,0,1,,,,,,,,0,,,89,110
118440,note_on,40,0,1,,,,,,,,0,,,101,80
118464,note_on,0,0,4,,,,,,,,0,,,53,0
118464,note_on,144,0,4,,,,,,,,0,,,41,0
118488,note_on,48,0,1,,,,,,,,0,,,89,0
118500,note_on,36,0,4,,,,,,,,0,,,53,80
118500,note_on,0,0,4,,,,,,,,0,,,41,80
118536,note_on,48,0,1,,,,,,,,0,,,101,0
118548,note_on,0,0,4,,,,,,,,0,,,53,0
118548,note_on,48,0,4,,,,,,,,0,,,41,0
118560,note_on,0,0,4,,,,,,,,0,,,46,110
118560,note_on,0,0,3,,,,,,,,0,,,61,80
118560,note_on,0,0,3,,,,,,,,0,,,53,80
118560,note_on,492,0,3,,,,,,,,0,,,58,80
118560,note_on,12,0,4,,,,,,,,0,,,34,110
118572,control_change,12,0,4,,,,,,,,0,64,0,,
118608,note_on,48,0,3,,,,,,,,0,,,53,0
118608,note_on,0,0,3,,,,,,,,0,,,58,0
118608,note_on,0,0,3,,,,,,,,0,,,61,0
118617,control_change,45,0,4,,,,,,,,0,64,127,,
118620,note_on,12,0,3,,,,,,,,0,,,65,80
118624,note_on,0,0,4,,,,,,,,0,,,34,0
118624,note_on,7,0,4,,,,,,,,0,,,46,0
118640,note_on,16,0,4,,,,,,,,0,,,35,110
118640,note_on,0,0,4,,,,,,,,0,,,47,110
118668,note_on,48,0,3,,,,,,,,0,,,65,0
118680,note_on,12,0,3,,,,,,,,0,,,61,80
118680,note_on,0,0,3,,,,,,,,0,,,58,80
118680,note_on,0,0,3,,,,,,,,0,,,53,80
118704,note_on,64,0,4,,,,,,,,0,,,47,0
118704,note_on,0,0,4,,,,,,,,0,,,35,0
118720,note_on,16,0,4,,,,,,,,0,,,36,110
118720,note_on,0,0,4,,,,,,,,0,,,48,110
118728,note_on,0,0,3,,,,,,,,0,,,61,0
118728,note_on,48,0,3,,,,,,,,0,,,58,0
118728,note_on,0,0,3,,,,,,,,0,,,53,0
118740,note_on,12,0,3,,,,,,,,0,,,65,80
118784,note_on,0,0,4,,,,,,,,0,,,36,0
118784,note_on,64,0,4,,,,,,,,0,,,48,0
118788,note_on,48,0,3,,,,,,,,0,,,65,0
118800,note_on,16,0,4,,,,,,,,0,,,49,110
118800,note_on,0,0,4,,,,,,,,0,,,37,110
118800,note_on,12,0,3,,,,,,,,0,,,53,80
118800,note_on,0,0,3,,,,,,,,0,,,61,80
118800,note_on,0,0,3,,,,,,,,0,,,58,80
118848,note_on,48,0,3,,,,,,,,0,,,58,0
118848,note_on,48,0,4,,,,,,,,0,,,37,0
118848,note_on,0,0,3,,,,,,,,0,,,61,0
118848,note_on,0,0,4,,,,,,,,0,,,49,0
118848,note_on,0,0,3,,,,,,,,0,,,53,0
118860,note_on,0,0,4,,,,,,,,0,,,50,110
118860,note_on,12,0,3,,,,,,,,0,,,65,80
118860,note_on,12,0,4,,,,,,,,0,,,38,110
118908,note_on,48,0,4,,,,,,,,0,,,50,0
118908,note_on,48,0,3,,,,,,,,0,,,65,0
118908,note_on,0,0,4,,,,,,,,0,,,38,0
118920,note_on,0,0,3,,,,,,,,0,,,58,80
118920,note_on,12,0,4,,,,,,,,0,,,39,110
118920,note_on,12,0,3,,,,,,,,0,,,61,80
118920,note_on,0,0,3,,,,,,,,0,,,53,80
118920,note_on,0,0,4,,,,,,,,0,,,51,110
118968,note_on,48,0,3,,,,,,,,0,,,53,0
118968,note_on,0,0,3,,,,,,,,0,,,58,0
118968,note_on,0,0,4,,,,,,,,0,,,39,0
118968,note_on,0,0,3,,,,,,,,0,,,61,0
118968,note_on,48,0,4,,,,,,,,0,,,51,0
118980,note_on,0,0,4,,,,,,,,0,,,40,110
118980,note_on,12,0,3,,,,,,,,0,,,65,80
118980,note_on,12,0,4,,,,,,,,0,,,52,110
119016,set_tempo,1890,1,0,,,,,,338066,,,,,,
119028,end_of_track,0,1,3,,,,,,,,,,,,
119028,note_on,48,0,3,,,,,,,,0,,,65,0
119028,note_on,0,0,4,,,,,,,,0,,,52,0
119028,note_on,48,0,4,,,,,,,,0,,,40,0
119040,note_on,0,0,4,,,,,,,,0,,,45,110
119040,note_on,0,0,4,,,,,,,,0,,,33,110
119040,note_on,0,0,1,,,,,,,,0,,,65,110
119040,note_on,504,0,1,,,,,,,,0,,,60,110
119040,control_change,0,0,4,,,,,,,,0,64,0,,
119040,note_on,12,0,4,,,,,,,,0,,,53,110
119232,note_on,192,0,1,,,,,,,,0,,,65,0
119232,note_on,0,0,1,,,,,,,,0,,,60,0
119232,note_on,0,0,4,,,,,,,,0,,,53,0
119232,note_on,0,0,4,,,,,,,,0,,,33,0
119232,note_on,192,0,4,,,,,,,,0,,,45,0
119280,note_on,0,0,4,,,,,,,,0,,,53,111
119280,note_on,48,0,4,,,,,,,,0,,,41,111
119280,note_on,48,0,1,,,,,,,,0,,,65,111
119328,note_on,48,0,1,,,,,,,,0,,,65,0
119340,note_on,12,0,1,,,,,,,,0,,,77,111
119388,note_on,48,0,1,,,,,,,,0,,,77,0
119400,note_on,12,0,1,,,,,,,,0,,,89,111
119424,note_on,144,0,4,,,,,,,,0,,,53,0
119424,note_on,0,0,4,,,,,,,,0,,,41,0
119460,note_on,0,0,4,,,,,,,,0,,,53,112
119460,note_on,36,0,4,,,,,,,,0,,,41,112
119460,note_on,60,0,1,,,,,,,,0,,,101,80
119508,note_on,48,0,1,,,,,,,,0,,,101,0
119508,note_on,48,0,4,,,,,,,,0,,,53,0
119508,note_on,0,0,4,,,,,,,,0,,,41,0
119520,note_on,12,0,1,,,,,,,,0,,,59,112
119520,note_on,0,0,4,,,,,,,,0,,,32,112
119520,note_on,0,0,4,,,,,,,,0,,,53,112
119520,note_on,12,0,4,,,,,,,,0,,,44,112
119520,note_on,0,0,1,,,,,,,,0,,,65,112
119712,note_on,0,0,4,,,,,,,,0,,,44,0
119712,note_on,192,0,1,,,,,,,,0,,,65,0
119712,note_on,0,0,4,,,,,,,,0,,,53,0
119712,note_on,0,0,1,,,,,,,,0,,,59,0
119712,note_on,192,0,4,,,,,,,,0,,,32,0
119760,note_on,0,0,4,,,,,,,,0,,,53,113
119760,note_on,48,0,1,,,,,,,,0,,,65,113
119760,note_on,48,0,4,,,,,,,,0,,,41,113
119808,note_on,48,0,1,,,,,,,,0,,,65,0
119820,note_on,12,0,1,,,,,,,,0,,,77,113
119868,note_on,48,0,1,,,,,,,,0,,,77,0
119880,note_on,12,0,1,,,,,,,,0,,,89,114
119904,note_on,144,0,4,,,,,,,,0,,,53,0
119904,note_on,0,0,4,,,,,,,,0,,,41,0
119928,note_on,48,0,1,,,,,,,,0,,,89,0
119940,note_on,0,0,4,,,,,,,,0,,,53,114
119940,note_on,12,0,1,,,,,,,,0,,,101,80
119940,note_on,36,0,4,,,,,,,,0,,,41,114
119952,note_on,12,0,1,,,,,,,,0,,,89,0
119988,note_on,48,0,4,,,,,,,,0,,,53,0
119988,note_on,36,0,1,,,,,,,,0,,,101,0
119988,note_on,0,0,4,,,,,,,,0,,,41,0
120000,note_on,0,0,4,,,,,,,,0,,,53,114
120000,note_on,0,0,1,,,,,,,,0,,,65,114
120000,note_on,0,0,4,,,,,,,,0,,,31,114
120000,note_on,12,0,1,,,,,,,,0,,,58,114
120000,note_on,12,0,4,,,,,,,,0,,,43,114
120192,note_on,192,0,4,,,,,,,,0,,,53,0
120192,note_on,192,0,1,,,,,,,,0,,,65,0
120192,note_on,0,0,4,,,,,,,,0,,,43,0
120192,note_on,0,0,1,,,,,,,,0,,,58,0
120192,note_on,0,0,4,,,,,,,,0,,,31,0
120240,note_on,0,0,4,,,,,,,,0,,,42,116
120240,note_on,48,0,1,,,,,,,,0,,,65,116
120240,note_on,0,0,1,,,,,,,,0,,,70,116
120240,note_on,0,0,1,,,,,,,,0,,,75,116
120240,note_on,48,0,4,,,,,,,,0,,,30,116
120432,note_on,0,0,4,,,,,,,,0,,,30,0
120432,note_on,192,0,1,,,,,,,,0,,,75,0
120432,note_on,0,0,1,,,,,,,,0,,,70,0
120432,note_on,192,0,4,,,,,,,,0,,,42,0
120432,note_on,0,0,1,,,,,,,,0,,,65,0
120480,note_on,0,0,4,,,,,,,,0,,,29,117
120480,note_on,0,0,1,,,,,,,,0,,,77,117
120480,note_on,48,0,1,,,,,,,,0,,,89,117
120480,note_on,0,0,1,,,,,,,,0,,,80,117
120480,note_on,48,0,4,,,,,,,,0,,,41,117
120672,note_on,0,0,1,,,,,,,,0,,,80,0
120672,note_on,192,0,1,,,,,,,,0,,,77,0
120672,note_on,0,0,1,,,,,,,,0,,,89,0
120672,note_on,192,0,4,,,,,,,,0,,,29,0
120672,note_on,0,0,4,,,,,,,,0,,,41,0
120960,note_on,0,0,4,,,,,,,,0,,,48,119
120960,note_on,0,0,4,,,,,,,,0,,,40,119
120960,note_on,0,0,4,,,,,,,,0,,,36,119
120960,note_on,0,0,1,,,,,,,,0,,,84,119
120960,note_on,0,0,1,,,,,,,,0,,,79,119
120960,note_on,288,0,1,,,,,,,,0,,,91,119
120960,note_on,288,0,4,,,,,,,,0,,,43,119
120960,note_on,0,0,1,,,,,,,,0,,,88,119
121152,note_on,0,0,1,,,,,,,,0,,,88,0
121152,note_on,192,0,4,,,,,,,,0,,,40,0
121152,note_on,0,0,4,,,,,,,,0,,,48,0
121152,note_on,0,0,4,,,,,,,,0,,,43,0
121152,note_on,0,0,1,,,,,,,,0,,,84,0
121152,note_on,0,0,4,,,,,,,,0,,,36,0
121152,note_on,0,0,1,,,,,,,,0,,,91,0
121152,note_on,192,0,1,,,,,,,,0,,,79,0
121440,note_on,0,0,1,,,,,,,,0,,,92,122
121440,note_on,288,0,4,,,,,,,,0,,,41,122
121440,note_on,0,0,1,,,,,,,,0,,,80,122
121440,note_on,0,0,4,,,,,,,,0,,,44,122
121440,note_on,0,0,4,,,,,,,,0,,,48,122
121440,note_on,288,0,1,,,,,,,,0,,,89,122
121440,note_on,0,0,4,,,,,,,,0,,,53,122
121440,note_on,0,0,1,,,,,,,,0,,,84,122
121441,note_on,1,0,1,,,,,,,,0,,,89,0
121632,note_on,191,0,1,,,,,,,,0,,,80,0
121632,note_on,192,0,4,,,,,,,,0,,,48,0
121632,note_on,0,0,4,,,,,,,,0,,,41,0
121632,note_on,0,0,4,,,,,,,,0,,,44,0
121632,note_on,0,0,4,,,,,,,,0,,,53,0
121632,note_on,0,0,1,,,,,,,,0,,,84,0
121632,note_on,0,0,1,,,,,,,,0,,,92,0
121680,note_on,0,0,1,,,,,,,,0,,,85,123
121680,note_on,48,0,1,,,,,,,,0,,,97,123
121680,note_on,0,0,1,,,,,,,,0,,,94,123
121680,note_on,0,0,1,,,,,,,,0,,,89,123
121680,note_on,48,0,4,,,,,,,,0,,,49,123
121680,note_on,0,0,4,,,,,,,,0,,,37,123
121680,note_on,0,0,4,,,,,,,,0,,,41,123
121680,note_on,0,0,4,,,,,,,,0,,,46,123
121683,note_on,3,0,1,,,,,,,,0,,,89,0
121872,note_on,0,0,4,,,,,,,,0,,,49,0
121872,note_on,0,0,1,,,,,,,,0,,,85,0
121872,note_on,0,0,1,,,,,,,,0,,,94,0
121872,note_on,192,0,4,,,,,,,,0,,,46,0
121872,note_on,0,0,4,,,,,,,,0,,,37,0
121872,note_on,0,0,4,,,,,,,,0,,,41,0
121872,note_on,189,0,1,,,,,,,,0,,,97,0
122160,note_on,0,0,1,,,,,,,,0,,,91,125
122160,note_on,0,0,4,,,,,,,,0,,,36,125
122160,note_on,0,0,1,,,,,,,,0,,,84,125
122160,note_on,0,0,4,,,,,,,,0,,,43,125
122160,note_on,0,0,1,,,,,,,,0,,,88,125
122160,note_on,288,0,1,,,,,,,,0,,,96,125
122160,note_on,0,0,4,,,,,,,,0,,,40,125
122160,note_on,288,0,4,,,,,,,,0,,,48,125
122352,note_on,0,0,4,,,,,,,,0,,,43,0
122352,note_on,0,0,4,,,,,,,,0,,,48,0
122352,note_on,0,0,1,,,,,,,,0,,,91,0
122352,note_on,192,0,4,,,,,,,,0,,,36,0
122352,note_on,192,0,1,,,,,,,,0,,,84,0
122352,note_on,0,0,1,,,,,,,,0,,,88,0
122352,note_on,0,0,1,,,,,,,,0,,,96,0
122352,note_on,0,0,4,,,,,,,,0,,,40,0
122400,note_on,0,0,4,,,,,,,,0,,,41,127
122400,note_on,0,0,4,,,,,,,,0,,,36,127
122400,note_on,0,0,4,,,,,,,,0,,,32,127
122400,note_on,48,0,1,,,,,,,,0,,,101,80
122400,note_on,0,0,1,,,,,,,,0,,,89,127
122400,note_on,0,0,1,,,,,,,,0,,,92,127
122400,note_on,0,0,1,,,,,,,,0,,,96,127
122400,note_on,48,0,4,,,,,,,,0,,,29,127
122592,note_on,0,0,1,,,,,,,,0,,,92,0
122592,note_on,0,0,1,,,,,,,,0,,,96,0
122592,note_on,0,0,1,,,,,,,,0,,,101,0
122592,end_of_track,0,1,1,,,,,,,,,,,,
122592,end_of_track,0,1,4,,,,,,,,,,,,
122592,note_on,192,0,1,,,,,,,,0,,,89,0
122592,note_on,0,0,4,,,,,,,,0,,,41,0
122592,note_on,192,0,4,,,,,,,,0,,,32,0
122592,note_on,0,0,4,,,,,,,,0,,,29,0
122592,note_on,0,0,4,,,,,,,,0,,,36,0
124331,set_tempo,5315,1,0,,,,,,402631,,,,,,
124344,set_tempo,13,1,0,,,,,,399973,,,,,,
124358,set_tempo,14,1,0,,,,,,397351,,,,,,
124371,set_tempo,13,1,0,,,,,,394763,,,,,,
124384,set_tempo,13,1,0,,,,,,392208,,,,,,
124397,set_tempo,13,1,0,,,,,,389686,,,,,,
124410,set_tempo,13,1,0,,,,,,387197,,,,,,
124419,set_tempo,9,1,0,,,,,,384739,,,,,,
124432,set_tempo,13,1,0,,,,,,382312,,,,,,
124445,set_tempo,13,1,0,,,,,,379915,,,,,,
124458,set_tempo,13,1,0,,,,,,377548,,,,,,
124471,set_tempo,13,1,0,,,,,,375211,,,,,,
124484,set_tempo,13,1,0,,,,,,372902,,,,,,
124497,set_tempo,13,1,0,,,,,,370622,,,,,,
124506,set_tempo,9,1,0,,,,,,368369,,,,,,
124519,set_tempo,13,1,0,,,,,,366144,,,,,,
124532,set_tempo,13,1,0,,,,,,363945,,,,,,
124545,set_tempo,13,1,0,,,,,,361773,,,,,,
124558,set_tempo,13,1,0,,,,,,359626,,,,,,
124571,set_tempo,13,1,0,,,,,,357505,,,,,,
124584,set_tempo,13,1,0,,,,,,355408,,,,,,
124593,set_tempo,9,1,0,,,,,,353336,,,,,,
124606,set_tempo,13,1,0,,,,,,351288,,,,,,
124619,set_tempo,13,1,0,,,,,,349264,,,,,,
124632,set_tempo,13,1,0,,,,,,347262,,,,,,
124646,set_tempo,14,1,0,,,,,,345284,,,,,,
124659,set_tempo,13,1,0,,,,,,343328,,,,,,
124672,set_tempo,13,1,0,,,,,,341394,,,,,,
124680,set_tempo,8,1,0,,,,,,339482,,,,,,
124694,set_tempo,14,1,0,,,,,,337591,,,,,,
124707,set_tempo,13,1,0,,,,,,335721,,,,,,
124720,set_tempo,13,1,0,,,,,,333871,,,,,,
124733,set_tempo,13,1,0,,,,,,332042,,,,,,
124746,set_tempo,13,1,0,,,,,,330233,,,,,,
124759,set_tempo,13,1,0,,,,,,328443,,,,,,
124768,set_tempo,9,1,0,,,,,,326673,,,,,,
124781,set_tempo,13,1,0,,,,,,324921,,,,,,
124794,set_tempo,13,1,0,,,,,,323189,,,,,,
124807,set_tempo,13,1,0,,,,,,321474,,,,,,
124820,set_tempo,13,1,0,,,,,,319778,,,,,,
124833,set_tempo,13,1,0,,,,,,318100,,,,,,
124842,end_of_track,0,1,0,,,,,,,,,,,,
124842,set_tempo,9,1,0,,,,,,316439,,,,,,
