tick,type,time,meta,track,numerator,denominator,clocks_per_click,notated_32nd_notes_per_beat,key,tempo,port,program,channel,control,value,note,velocity
0,control_change,0,0,1,,,,,,,,,0,7,127,,
0,track_name,0,1,2,,,,,,,,,,,,,
0,track_name,0,1,1,,,,,,,,,,,,,
0,track_name,0,1,0,,,,,,,,,,,,,
0,time_signature,0,1,0,3,4,24,8,,,,,,,,,
0,set_tempo,0,1,0,,,,,,500000,,,,,,,
0,program_change,0,0,4,,,,,,,,0,0,,,,
0,program_change,0,0,3,,,,,,,,0,0,,,,
0,program_change,0,0,2,,,,,,,,0,0,,,,
0,program_change,0,0,1,,,,,,,,0,0,,,,
0,track_name,0,1,3,,,,,,,,,,,,,
0,midi_port,0,1,4,,,,,,,0,,,,,,
0,midi_port,0,1,3,,,,,,,0,,,,,,
0,midi_port,0,1,2,,,,,,,0,,,,,,
0,midi_port,0,1,1,,,,,,,0,,,,,,
0,key_signature,0,1,0,,,,,C,,,,,,,,
0,track_name,0,1,4,,,,,,,,,,,,,
0,control_change,0,0,2,,,,,,,,,0,7,127,,
0,control_change,0,0,3,,,,,,,,,0,10,62,,
0,control_change,0,0,4,,,,,,,,,0,7,127,,
0,control_change,0,0,1,,,,,,,,,0,10,62,,
0,control_change,0,0,3,,,,,,,,,0,7,127,,
0,control_change,0,0,4,,,,,,,,,0,10,62,,
0,control_change,0,0,2,,,,,,,,,0,10,62,,
360,note_on,360,0,1,,,,,,,,,0,,,64,96
420,note_on,60,0,1,,,,,,,,,0,,,64,0
480,note_on,60,0,1,,,,,,,,,0,,,64,96
540,note_on,60,0,1,,,,,,,,,0,,,64,0
600,note_on,60,0,1,,,,,,,,,0,,,64,96
660,note_on,60,0,1,,,,,,,,,0,,,64,0
720,note_on,60,0,1,,,,,,,,,0,,,64,96
1080,note_on,0,0,1,,,,,,,,,0,,,64,96
1080,note_on,0,0,1,,,,,,,,,0,,,65,96
1080,note_on,360,0,1,,,,,,,,,0,,,64,0
1140,note_on,0,0,1,,,,,,,,,0,,,65,0
1140,note_on,60,0,1,,,,,,,,,0,,,64,0
1200,note_on,60,0,1,,,,,,,,,0,,,65,96
1200,note_on,0,0,1,,,,,,,,,0,,,64,96
1260,note_on,0,0,1,,,,,,,,,0,,,65,0
1260,note_on,60,0,1,,,,,,,,,0,,,64,0
1320,note_on,60,0,1,,,,,,,,,0,,,65,96
1320,note_on,0,0,1,,,,,,,,,0,,,64,96
1380,note_on,60,0,1,,,,,,,,,0,,,64,0
1380,note_on,0,0,1,,,,,,,,,0,,,65,0
1440,note_on,0,0,1,,,,,,,,,0,,,64,96
1440,note_on,60,0,1,,,,,,,,,0,,,65,96
1728,note_on,288,0,1,,,,,,,,,0,,,64,0
1728,note_on,0,0,1,,,,,,,,,0,,,65,0
1733,control_change,5,0,1,,,,,,,,,0,64,127,,
1800,note_on,67,0,1,,,,,,,,,0,,,62,96
1800,note_on,0,0,1,,,,,,,,,0,,,70,96
1860,note_on,0,0,2,,,,,,,,,0,,,64,80
1860,note_on,1860,0,2,,,,,,,,,0,,,65,80
1896,note_on,0,0,1,,,,,,,,,0,,,62,0
1896,note_on,96,0,1,,,,,,,,,0,,,70,0
1908,note_on,0,0,2,,,,,,,,,0,,,65,0
1908,note_on,48,0,2,,,,,,,,,0,,,64,0
1920,note_on,0,0,1,,,,,,,,,0,,,62,96
1920,note_on,24,0,1,,,,,,,,,0,,,70,96
1980,note_on,72,0,2,,,,,,,,,0,,,65,80
1980,note_on,0,0,2,,,,,,,,,0,,,64,80
2016,note_on,0,0,1,,,,,,,,,0,,,70,0
2016,note_on,96,0,1,,,,,,,,,0,,,62,0
2028,note_on,0,0,2,,,,,,,,,0,,,65,0
2028,note_on,48,0,2,,,,,,,,,0,,,64,0
2040,note_on,0,0,1,,,,,,,,,0,,,70,96
2040,note_on,24,0,1,,,,,,,,,0,,,62,96
2100,note_on,0,0,2,,,,,,,,,0,,,65,80
2100,note_on,72,0,2,,,,,,,,,0,,,64,80
2136,note_on,0,0,1,,,,,,,,,0,,,62,0
2136,note_on,96,0,1,,,,,,,,,0,,,70,0
2160,note_on,0,0,1,,,,,,,,,0,,,62,80
2160,note_on,0,0,1,,,,,,,,,0,,,70,80
2160,control_change,24,0,1,,,,,,,,,0,64,0,,
2243,control_change,83,0,1,,,,,,,,,0,64,127,,
2448,note_on,0,0,2,,,,,,,,,0,,,64,0
2448,note_on,348,0,2,,,,,,,,,0,,,65,0
2448,note_on,205,0,1,,,,,,,,,0,,,70,0
2448,note_on,0,0,1,,,,,,,,,0,,,62,0
2520,note_on,0,0,1,,,,,,,,,0,,,71,80
2520,note_on,72,0,1,,,,,,,,,0,,,62,80
2580,note_on,0,0,2,,,,,,,,,0,,,64,80
2580,note_on,0,0,2,,,,,,,,,0,,,68,80
2580,note_on,132,0,2,,,,,,,,,0,,,65,80
2616,note_on,0,0,1,,,,,,,,,0,,,62,0
2616,note_on,96,0,1,,,,,,,,,0,,,71,0
2628,note_on,0,0,2,,,,,,,,,0,,,68,0
2628,note_on,48,0,2,,,,,,,,,0,,,64,0
2628,note_on,0,0,2,,,,,,,,,0,,,65,0
2640,note_on,0,0,1,,,,,,,,,0,,,71,80
2640,note_on,24,0,1,,,,,,,,,0,,,62,80
2642,set_tempo,2642,1,0,,,,,,497512,,,,,,,
2658,set_tempo,16,1,0,,,,,,495050,,,,,,,
2675,set_tempo,17,1,0,,,,,,492611,,,,,,,
2692,set_tempo,17,1,0,,,,,,490196,,,,,,,
2700,note_on,0,0,2,,,,,,,,,0,,,68,80
2700,note_on,0,0,2,,,,,,,,,0,,,64,80
2700,note_on,72,0,2,,,,,,,,,0,,,65,80
2709,set_tempo,17,1,0,,,,,,487805,,,,,,,
2726,set_tempo,17,1,0,,,,,,485437,,,,,,,
2736,note_on,0,0,1,,,,,,,,,0,,,62,0
2736,note_on,96,0,1,,,,,,,,,0,,,71,0
2742,set_tempo,16,1,0,,,,,,483092,,,,,,,
2748,note_on,0,0,2,,,,,,,,,0,,,68,0
2748,note_on,0,0,2,,,,,,,,,0,,,65,0
2748,note_on,48,0,2,,,,,,,,,0,,,64,0
2759,set_tempo,17,1,0,,,,,,480769,,,,,,,
2760,note_on,24,0,1,,,,,,,,,0,,,62,80
2760,note_on,0,0,1,,,,,,,,,0,,,71,80
2776,set_tempo,17,1,0,,,,,,478469,,,,,,,
2790,set_tempo,14,1,0,,,,,,476190,,,,,,,
2807,set_tempo,17,1,0,,,,,,473934,,,,,,,
2820,note_on,0,0,2,,,,,,,,,0,,,68,80
2820,note_on,72,0,2,,,,,,,,,0,,,64,80
2820,note_on,0,0,2,,,,,,,,,0,,,65,80
2824,set_tempo,17,1,0,,,,,,471698,,,,,,,
2841,set_tempo,17,1,0,,,,,,469484,,,,,,,
2856,note_on,96,0,1,,,,,,,,,0,,,71,0
2856,note_on,0,0,1,,,,,,,,,0,,,62,0
2858,set_tempo,17,1,0,,,,,,467290,,,,,,,
2868,note_on,0,0,2,,,,,,,,,0,,,65,0
2868,note_on,48,0,2,,,,,,,,,0,,,68,0
2868,note_on,0,0,2,,,,,,,,,0,,,64,0
2874,set_tempo,16,1,0,,,,,,465116,,,,,,,
2880,control_change,24,0,1,,,,,,,,,0,64,0,,
2880,note_on,0,0,1,,,,,,,,,0,,,71,80
2880,note_on,0,0,1,,,,,,,,,0,,,62,80
2891,set_tempo,17,1,0,,,,,,462963,,,,,,,
2908,set_tempo,17,1,0,,,,,,460829,,,,,,,
2922,set_tempo,14,1,0,,,,,,458716,,,,,,,
2939,set_tempo,17,1,0,,,,,,456621,,,,,,,
2940,note_on,72,0,2,,,,,,,,,0,,,68,80
2940,note_on,0,0,2,,,,,,,,,0,,,65,80
2940,note_on,0,0,2,,,,,,,,,0,,,64,80
2956,set_tempo,17,1,0,,,,,,454545,,,,,,,
2973,set_tempo,17,1,0,,,,,,452489,,,,,,,
2976,note_on,96,0,1,,,,,,,,,0,,,62,0
2976,note_on,0,0,1,,,,,,,,,0,,,71,0
2988,note_on,0,0,2,,,,,,,,,0,,,68,0
2988,note_on,0,0,2,,,,,,,,,0,,,64,0
2988,note_on,48,0,2,,,,,,,,,0,,,65,0
2990,set_tempo,17,1,0,,,,,,450450,,,,,,,
3000,control_change,24,0,1,,,,,,,,,0,64,127,,
3000,note_on,0,0,1,,,,,,,,,0,,,62,80
3000,note_on,0,0,1,,,,,,,,,0,,,71,80
3006,set_tempo,16,1,0,,,,,,448430,,,,,,,
3023,set_tempo,17,1,0,,,,,,446429,,,,,,,
3040,set_tempo,17,1,0,,,,,,444444,,,,,,,
3054,set_tempo,14,1,0,,,,,,442478,,,,,,,
3060,note_on,72,0,2,,,,,,,,,0,,,64,80
3060,note_on,0,0,2,,,,,,,,,0,,,68,80
3060,note_on,0,0,2,,,,,,,,,0,,,65,80
3071,set_tempo,17,1,0,,,,,,440529,,,,,,,
3088,set_tempo,17,1,0,,,,,,438596,,,,,,,
3096,note_on,0,0,1,,,,,,,,,0,,,71,0
3096,note_on,96,0,1,,,,,,,,,0,,,62,0
3105,set_tempo,17,1,0,,,,,,436681,,,,,,,
3108,note_on,48,0,2,,,,,,,,,0,,,65,0
3108,note_on,0,0,2,,,,,,,,,0,,,68,0
3108,note_on,0,0,2,,,,,,,,,0,,,64,0
3120,note_on,24,0,1,,,,,,,,,0,,,71,96
3120,note_on,0,0,1,,,,,,,,,0,,,62,96
3122,set_tempo,17,1,0,,,,,,434783,,,,,,,
3138,set_tempo,16,1,0,,,,,,432900,,,,,,,
3155,set_tempo,17,1,0,,,,,,431034,,,,,,,
3172,set_tempo,17,1,0,,,,,,429185,,,,,,,
3180,note_on,0,0,2,,,,,,,,,0,,,64,80
3180,note_on,0,0,2,,,,,,,,,0,,,68,80
3180,note_on,72,0,2,,,,,,,,,0,,,65,80
3189,set_tempo,17,1,0,,,,,,427350,,,,,,,
3203,set_tempo,14,1,0,,,,,,425532,,,,,,,
3216,note_on,0,0,1,,,,,,,,,0,,,71,0
3216,note_on,96,0,1,,,,,,,,,0,,,62,0
3220,set_tempo,17,1,0,,,,,,423729,,,,,,,
3228,note_on,0,0,2,,,,,,,,,0,,,68,0
3228,note_on,0,0,2,,,,,,,,,0,,,65,0
3228,note_on,48,0,2,,,,,,,,,0,,,64,0
3237,set_tempo,17,1,0,,,,,,421941,,,,,,,
3240,note_on,24,0,1,,,,,,,,,0,,,71,96
3240,note_on,0,0,1,,,,,,,,,0,,,63,96
3254,set_tempo,17,1,0,,,,,,420168,,,,,,,
3270,set_tempo,16,1,0,,,,,,418410,,,,,,,
3287,set_tempo,17,1,0,,,,,,416667,,,,,,,
3300,note_on,0,0,2,,,,,,,,,0,,,66,80
3300,note_on,0,0,2,,,,,,,,,0,,,64,80
3300,note_on,72,0,2,,,,,,,,,0,,,69,80
3304,set_tempo,17,1,0,,,,,,414938,,,,,,,
3321,set_tempo,17,1,0,,,,,,413223,,,,,,,
3335,set_tempo,14,1,0,,,,,,411523,,,,,,,
3336,note_on,0,0,1,,,,,,,,,0,,,71,0
3336,note_on,96,0,1,,,,,,,,,0,,,63,0
3348,note_on,0,0,2,,,,,,,,,0,,,69,0
3348,note_on,48,0,2,,,,,,,,,0,,,66,0
3348,note_on,0,0,2,,,,,,,,,0,,,64,0
3352,set_tempo,17,1,0,,,,,,409836,,,,,,,
3360,note_on,0,0,1,,,,,,,,,0,,,71,96
3360,note_on,24,0,1,,,,,,,,,0,,,63,96
3369,set_tempo,17,1,0,,,,,,408163,,,,,,,
3386,set_tempo,17,1,0,,,,,,406504,,,,,,,
3402,set_tempo,16,1,0,,,,,,404858,,,,,,,
3419,set_tempo,17,1,0,,,,,,403226,,,,,,,
3420,note_on,0,0,2,,,,,,,,,0,,,64,80
3420,note_on,0,0,2,,,,,,,,,0,,,66,80
3420,note_on,72,0,2,,,,,,,,,0,,,69,80
3436,set_tempo,17,1,0,,,,,,401606,,,,,,,
3453,set_tempo,17,1,0,,,,,,400000,,,,,,,
3456,note_on,96,0,1,,,,,,,,,0,,,71,0
3456,note_on,0,0,1,,,,,,,,,0,,,63,0
3467,set_tempo,14,1,0,,,,,,398406,,,,,,,
3468,note_on,48,0,2,,,,,,,,,0,,,66,0
3468,note_on,0,0,2,,,,,,,,,0,,,64,0
3468,note_on,0,0,2,,,,,,,,,0,,,69,0
3480,note_on,24,0,1,,,,,,,,,0,,,63,96
3480,note_on,0,0,1,,,,,,,,,0,,,71,96
3484,set_tempo,17,1,0,,,,,,396825,,,,,,,
3501,set_tempo,17,1,0,,,,,,395257,,,,,,,
3518,set_tempo,17,1,0,,,,,,393701,,,,,,,
3534,set_tempo,16,1,0,,,,,,392157,,,,,,,
3540,note_on,0,0,2,,,,,,,,,0,,,69,80
3540,note_on,72,0,2,,,,,,,,,0,,,64,80
3540,note_on,0,0,2,,,,,,,,,0,,,66,80
3551,set_tempo,17,1,0,,,,,,390625,,,,,,,
3568,set_tempo,17,1,0,,,,,,389105,,,,,,,
3576,note_on,96,0,1,,,,,,,,,0,,,71,0
3576,note_on,0,0,1,,,,,,,,,0,,,63,0
3585,set_tempo,17,1,0,,,,,,387597,,,,,,,
3588,note_on,0,0,2,,,,,,,,,0,,,66,0
3588,note_on,0,0,2,,,,,,,,,0,,,64,0
3588,note_on,48,0,2,,,,,,,,,0,,,69,0
3597,set_tempo,12,1,0,,,,,,497512,,,,,,,
3600,note_on,0,0,1,,,,,,,,,0,,,63,96
3600,note_on,0,0,1,,,,,,,,,0,,,71,96
3600,control_change,24,0,1,,,,,,,,,0,64,0,,
3616,set_tempo,19,1,0,,,,,,500000,,,,,,,
3816,note_on,0,0,1,,,,,,,,,0,,,71,0
3816,note_on,216,0,1,,,,,,,,,0,,,63,0
4080,note_on,0,0,1,,,,,,,,,0,,,80,104
4080,note_on,0,0,1,,,,,,,,,0,,,76,104
4080,note_on,4080,0,3,,,,,,,,,0,,,52,104
4080,note_on,0,0,3,,,,,,,,,0,,,40,104
4080,note_on,0,0,3,,,,,,,,,0,,,44,104
4080,note_on,0,0,3,,,,,,,,,0,,,47,104
4080,note_on,264,0,1,,,,,,,,,0,,,88,104
4080,note_on,0,0,1,,,,,,,,,0,,,83,104
4176,note_on,96,0,3,,,,,,,,,0,,,44,0
4176,note_on,96,0,1,,,,,,,,,0,,,80,0
4176,note_on,0,0,1,,,,,,,,,0,,,76,0
4176,note_on,0,0,1,,,,,,,,,0,,,88,0
4176,note_on,0,0,3,,,,,,,,,0,,,40,0
4176,note_on,0,0,3,,,,,,,,,0,,,47,0
4176,note_on,0,0,3,,,,,,,,,0,,,52,0
4176,note_on,0,0,1,,,,,,,,,0,,,83,0
4317,set_tempo,701,1,0,,,,,,552486,,,,,,,
4444,set_tempo,127,1,0,,,,,,502513,,,,,,,
4680,note_on,504,0,3,,,,,,,,,0,,,52,80
4680,note_on,0,0,3,,,,,,,,,0,,,64,80
4740,note_on,564,0,1,,,,,,,,,0,,,76,80
4740,note_on,0,0,1,,,,,,,,,0,,,64,80
4776,note_on,0,0,3,,,,,,,,,0,,,52,0
4776,note_on,96,0,3,,,,,,,,,0,,,64,0
4788,note_on,48,0,1,,,,,,,,,0,,,64,0
4788,note_on,0,0,1,,,,,,,,,0,,,76,0
4800,note_on,24,0,3,,,,,,,,,0,,,51,80
4800,note_on,0,0,3,,,,,,,,,0,,,64,80
4800,note_on,12,0,1,,,,,,,,,0,,,66,80
4848,note_on,48,0,1,,,,,,,,,0,,,66,0
4860,note_on,12,0,1,,,,,,,,,0,,,78,80
4860,note_on,0,0,1,,,,,,,,,0,,,66,80
4896,note_on,0,0,3,,,,,,,,,0,,,51,0
4896,note_on,96,0,3,,,,,,,,,0,,,64,0
4908,note_on,48,0,1,,,,,,,,,0,,,66,0
4908,note_on,0,0,1,,,,,,,,,0,,,78,0
4920,note_on,12,0,1,,,,,,,,,0,,,68,80
4920,note_on,24,0,3,,,,,,,,,0,,,64,80
4920,note_on,0,0,3,,,,,,,,,0,,,50,80
4968,note_on,48,0,1,,,,,,,,,0,,,68,0
4980,note_on,0,0,1,,,,,,,,,0,,,68,80
4980,note_on,12,0,1,,,,,,,,,0,,,80,80
5016,note_on,96,0,3,,,,,,,,,0,,,50,0
5016,note_on,0,0,3,,,,,,,,,0,,,64,0
5028,note_on,0,0,1,,,,,,,,,0,,,80,0
5028,note_on,48,0,1,,,,,,,,,0,,,68,0
5040,note_on,12,0,1,,,,,,,,,0,,,69,80
5040,note_on,24,0,3,,,,,,,,,0,,,64,72
5040,note_on,5040,0,4,,,,,,,,,0,,,48,72
5088,note_on,48,0,1,,,,,,,,,0,,,69,0
5100,note_on,0,0,1,,,,,,,,,0,,,69,80
5100,note_on,12,0,1,,,,,,,,,0,,,81,80
5136,note_on,96,0,4,,,,,,,,,0,,,48,0
5148,note_on,0,0,1,,,,,,,,,0,,,81,0
5148,note_on,48,0,1,,,,,,,,,0,,,69,0
5160,note_on,24,0,4,,,,,,,,,0,,,47,72
5160,note_on,12,0,1,,,,,,,,,0,,,71,80
5208,note_on,48,0,1,,,,,,,,,0,,,71,0
5220,note_on,0,0,1,,,,,,,,,0,,,83,80
5220,note_on,12,0,1,,,,,,,,,0,,,71,80
5256,note_on,96,0,4,,,,,,,,,0,,,47,0
5268,note_on,48,0,1,,,,,,,,,0,,,83,0
5268,note_on,0,0,1,,,,,,,,,0,,,71,0
5280,note_on,12,0,1,,,,,,,,,0,,,72,80
5280,note_on,24,0,4,,,,,,,,,0,,,45,72
5328,note_on,288,0,3,,,,,,,,,0,,,64,0
5328,note_on,48,0,1,,,,,,,,,0,,,72,0
5340,note_on,0,0,1,,,,,,,,,0,,,72,80
5340,note_on,12,0,1,,,,,,,,,0,,,84,80
5376,note_on,96,0,4,,,,,,,,,0,,,45,0
5388,note_on,0,0,1,,,,,,,,,0,,,84,0
5388,note_on,48,0,1,,,,,,,,,0,,,72,0
5400,note_on,0,0,3,,,,,,,,,0,,,52,72
5400,note_on,12,0,1,,,,,,,,,0,,,69,80
5400,note_on,72,0,3,,,,,,,,,0,,,48,72
5448,note_on,48,0,1,,,,,,,,,0,,,69,0
5460,note_on,12,0,1,,,,,,,,,0,,,69,80
5460,note_on,0,0,1,,,,,,,,,0,,,81,80
5496,note_on,96,0,3,,,,,,,,,0,,,52,0
5496,note_on,0,0,3,,,,,,,,,0,,,48,0
5508,note_on,48,0,1,,,,,,,,,0,,,81,0
5508,note_on,0,0,1,,,,,,,,,0,,,69,0
5520,note_on,0,0,3,,,,,,,,,0,,,52,72
5520,note_on,12,0,1,,,,,,,,,0,,,71,80
5520,note_on,24,0,3,,,,,,,,,0,,,47,72
5568,note_on,48,0,1,,,,,,,,,0,,,71,0
5580,note_on,12,0,1,,,,,,,,,0,,,71,80
5580,note_on,0,0,1,,,,,,,,,0,,,83,80
5616,note_on,96,0,3,,,,,,,,,0,,,52,0
5616,note_on,0,0,3,,,,,,,,,0,,,47,0
5628,note_on,0,0,1,,,,,,,,,0,,,71,0
5628,note_on,48,0,1,,,,,,,,,0,,,83,0
5640,note_on,24,0,3,,,,,,,,,0,,,52,72
5640,note_on,0,0,3,,,,,,,,,0,,,45,72
5640,note_on,12,0,1,,,,,,,,,0,,,72,80
5688,note_on,48,0,1,,,,,,,,,0,,,72,0
5700,note_on,0,0,1,,,,,,,,,0,,,72,80
5700,note_on,12,0,1,,,,,,,,,0,,,84,80
5736,note_on,0,0,3,,,,,,,,,0,,,52,0
5736,note_on,96,0,3,,,,,,,,,0,,,45,0
5748,note_on,0,0,1,,,,,,,,,0,,,84,0
5748,note_on,48,0,1,,,,,,,,,0,,,72,0
5760,note_on,24,0,3,,,,,,,,,0,,,44,72
5760,note_on,12,0,1,,,,,,,,,0,,,71,80
5760,note_on,384,0,4,,,,,,,,,0,,,52,72
5808,note_on,48,0,1,,,,,,,,,0,,,71,0
5820,note_on,12,0,1,,,,,,,,,0,,,83,80
5820,note_on,0,0,1,,,,,,,,,0,,,71,80
5856,note_on,96,0,3,,,,,,,,,0,,,44,0
5868,note_on,0,0,1,,,,,,,,,0,,,83,0
5868,note_on,48,0,1,,,,,,,,,0,,,71,0
5880,note_on,12,0,1,,,,,,,,,0,,,69,80
5880,note_on,24,0,3,,,,,,,,,0,,,41,72
5928,note_on,48,0,1,,,,,,,,,0,,,69,0
5940,note_on,12,0,1,,,,,,,,,0,,,69,80
5940,note_on,0,0,1,,,,,,,,,0,,,81,80
5976,note_on,96,0,3,,,,,,,,,0,,,41,0
5988,note_on,0,0,1,,,,,,,,,0,,,69,0
5988,note_on,48,0,1,,,,,,,,,0,,,81,0
6000,note_on,12,0,1,,,,,,,,,0,,,68,80
6000,note_on,24,0,3,,,,,,,,,0,,,40,72
6048,note_on,48,0,1,,,,,,,,,0,,,68,0
6048,note_on,288,0,4,,,,,,,,,0,,,52,0
6060,note_on,12,0,1,,,,,,,,,0,,,80,80
6060,note_on,0,0,1,,,,,,,,,0,,,68,80
6096,note_on,96,0,3,,,,,,,,,0,,,40,0
6108,note_on,0,0,1,,,,,,,,,0,,,80,0
6108,note_on,48,0,1,,,,,,,,,0,,,68,0
6120,note_on,72,0,4,,,,,,,,,0,,,52,72
6120,note_on,24,0,3,,,,,,,,,0,,,42,72
6120,note_on,12,0,1,,,,,,,,,0,,,65,80
6168,note_on,48,0,1,,,,,,,,,0,,,65,0
6180,note_on,12,0,1,,,,,,,,,0,,,65,80
6180,note_on,0,0,1,,,,,,,,,0,,,77,80
6216,note_on,96,0,4,,,,,,,,,0,,,52,0
6216,note_on,96,0,3,,,,,,,,,0,,,42,0
6228,note_on,48,0,1,,,,,,,,,0,,,77,0
6228,note_on,0,0,1,,,,,,,,,0,,,65,0
6240,note_on,12,0,1,,,,,,,,,0,,,64,80
6240,note_on,24,0,3,,,,,,,,,0,,,43,72
6240,note_on,24,0,4,,,,,,,,,0,,,52,72
6288,note_on,48,0,1,,,,,,,,,0,,,64,0
6300,note_on,12,0,1,,,,,,,,,0,,,76,80
6300,note_on,0,0,1,,,,,,,,,0,,,64,80
6336,note_on,96,0,3,,,,,,,,,0,,,43,0
6336,note_on,96,0,4,,,,,,,,,0,,,52,0
6348,note_on,48,0,1,,,,,,,,,0,,,64,0
6348,note_on,0,0,1,,,,,,,,,0,,,76,0
6360,note_on,24,0,4,,,,,,,,,0,,,52,72
6360,note_on,12,0,1,,,,,,,,,0,,,62,80
6360,note_on,24,0,3,,,,,,,,,0,,,44,72
6408,note_on,48,0,1,,,,,,,,,0,,,62,0
6420,note_on,0,0,1,,,,,,,,,0,,,62,80
6420,note_on,12,0,1,,,,,,,,,0,,,74,80
6456,note_on,96,0,3,,,,,,,,,0,,,44,0
6456,note_on,96,0,4,,,,,,,,,0,,,52,0
6468,note_on,48,0,1,,,,,,,,,0,,,62,0
6468,note_on,0,0,1,,,,,,,,,0,,,74,0
6480,note_on,24,0,4,,,,,,,,,0,,,52,72
6480,note_on,24,0,3,,,,,,,,,0,,,45,72
6480,note_on,12,0,1,,,,,,,,,0,,,60,80
6528,note_on,48,0,1,,,,,,,,,0,,,60,0
6540,note_on,0,0,1,,,,,,,,,0,,,60,80
6540,note_on,12,0,1,,,,,,,,,0,,,72,80
6576,note_on,96,0,3,,,,,,,,,0,,,45,0
6588,note_on,0,0,1,,,,,,,,,0,,,72,0
6588,note_on,48,0,1,,,,,,,,,0,,,60,0
6600,note_on,24,0,3,,,,,,,,,0,,,47,72
6600,note_on,12,0,1,,,,,,,,,0,,,59,80
6648,note_on,48,0,1,,,,,,,,,0,,,59,0
6660,note_on,0,0,1,,,,,,,,,0,,,71,80
6660,note_on,12,0,1,,,,,,,,,0,,,59,80
6696,note_on,96,0,3,,,,,,,,,0,,,47,0
6708,note_on,0,0,1,,,,,,,,,0,,,59,0
6708,note_on,48,0,1,,,,,,,,,0,,,71,0
6720,note_on,12,0,1,,,,,,,,,0,,,57,80
6720,note_on,24,0,3,,,,,,,,,0,,,48,72
6768,note_on,48,0,1,,,,,,,,,0,,,57,0
6768,note_on,288,0,4,,,,,,,,,0,,,52,0
6780,note_on,12,0,1,,,,,,,,,0,,,69,80
6780,note_on,0,0,1,,,,,,,,,0,,,57,80
6816,note_on,96,0,3,,,,,,,,,0,,,48,0
6828,note_on,48,0,1,,,,,,,,,0,,,57,0
6828,note_on,0,0,1,,,,,,,,,0,,,69,0
6840,note_on,72,0,4,,,,,,,,,0,,,52,72
6840,note_on,24,0,3,,,,,,,,,0,,,45,72
6840,note_on,12,0,1,,,,,,,,,0,,,60,80
6840,note_on,0,0,4,,,,,,,,,0,,,40,72
6888,note_on,48,0,1,,,,,,,,,0,,,60,0
6900,note_on,12,0,1,,,,,,,,,0,,,72,80
6900,note_on,0,0,1,,,,,,,,,0,,,60,80
6936,note_on,96,0,3,,,,,,,,,0,,,45,0
6936,note_on,96,0,4,,,,,,,,,0,,,40,0
6936,note_on,0,0,4,,,,,,,,,0,,,52,0
6948,note_on,48,0,1,,,,,,,,,0,,,60,0
6948,note_on,0,0,1,,,,,,,,,0,,,72,0
6960,note_on,0,0,4,,,,,,,,,0,,,52,72
6960,note_on,12,0,1,,,,,,,,,0,,,59,80
6960,note_on,24,0,3,,,,,,,,,0,,,44,72
6960,note_on,24,0,4,,,,,,,,,0,,,40,72
7008,note_on,48,0,1,,,,,,,,,0,,,59,0
7020,note_on,0,0,1,,,,,,,,,0,,,59,80
7020,note_on,12,0,1,,,,,,,,,0,,,71,80
7056,note_on,0,0,4,,,,,,,,,0,,,40,0
7056,note_on,96,0,3,,,,,,,,,0,,,44,0
7056,note_on,96,0,4,,,,,,,,,0,,,52,0
7068,note_on,0,0,1,,,,,,,,,0,,,71,0
7068,note_on,48,0,1,,,,,,,,,0,,,59,0
7080,note_on,0,0,4,,,,,,,,,0,,,52,72
7080,note_on,24,0,4,,,,,,,,,0,,,40,72
7080,note_on,12,0,1,,,,,,,,,0,,,57,80
7080,note_on,24,0,3,,,,,,,,,0,,,41,72
7128,note_on,48,0,1,,,,,,,,,0,,,57,0
7140,note_on,12,0,1,,,,,,,,,0,,,69,80
7140,note_on,0,0,1,,,,,,,,,0,,,57,80
7176,note_on,0,0,4,,,,,,,,,0,,,40,0
7176,note_on,96,0,3,,,,,,,,,0,,,41,0
7176,note_on,96,0,4,,,,,,,,,0,,,52,0
7188,note_on,0,0,1,,,,,,,,,0,,,69,0
7188,note_on,48,0,1,,,,,,,,,0,,,57,0
7200,note_on,0,0,4,,,,,,,,,0,,,52,72
7200,note_on,12,0,1,,,,,,,,,0,,,68,80
7200,note_on,24,0,4,,,,,,,,,0,,,40,72
7200,note_on,0,0,1,,,,,,,,,0,,,56,80
7296,note_on,96,0,1,,,,,,,,,0,,,56,0
7296,note_on,0,0,1,,,,,,,,,0,,,68,0
7296,note_on,0,0,4,,,,,,,,,0,,,40,0
7296,note_on,96,0,4,,,,,,,,,0,,,52,0
7320,note_on,24,0,1,,,,,,,,,0,,,65,78
7320,note_on,144,0,3,,,,,,,,,0,,,62,72
7320,note_on,0,0,3,,,,,,,,,0,,,59,72
7320,note_on,24,0,4,,,,,,,,,0,,,52,72
7352,note_on,32,0,1,,,,,,,,,0,,,65,0
7360,note_on,8,0,1,,,,,,,,,0,,,64,77
7392,note_on,32,0,1,,,,,,,,,0,,,64,0
7400,note_on,8,0,1,,,,,,,,,0,,,63,75
7416,note_on,96,0,3,,,,,,,,,0,,,59,0
7416,note_on,0,0,3,,,,,,,,,0,,,62,0
7432,note_on,32,0,1,,,,,,,,,0,,,63,0
7440,note_on,0,0,3,,,,,,,,,0,,,61,72
7440,note_on,8,0,1,,,,,,,,,0,,,65,74
7440,note_on,24,0,3,,,,,,,,,0,,,58,72
7472,note_on,32,0,1,,,,,,,,,0,,,65,0
7480,note_on,8,0,1,,,,,,,,,0,,,64,72
7512,note_on,32,0,1,,,,,,,,,0,,,64,0
7520,note_on,8,0,1,,,,,,,,,0,,,63,71
7536,note_on,96,0,3,,,,,,,,,0,,,61,0
7536,note_on,0,0,3,,,,,,,,,0,,,58,0
7552,note_on,32,0,1,,,,,,,,,0,,,63,0
7560,note_on,24,0,3,,,,,,,,,0,,,60,72
7560,note_on,0,0,3,,,,,,,,,0,,,57,72
7560,note_on,8,0,1,,,,,,,,,0,,,65,69
7592,note_on,32,0,1,,,,,,,,,0,,,65,0
7600,note_on,8,0,1,,,,,,,,,0,,,64,68
7608,note_on,288,0,4,,,,,,,,,0,,,52,0
7632,note_on,32,0,1,,,,,,,,,0,,,64,0
7640,note_on,8,0,1,,,,,,,,,0,,,63,66
7656,note_on,96,0,3,,,,,,,,,0,,,57,0
7656,note_on,0,0,3,,,,,,,,,0,,,60,0
7672,note_on,32,0,1,,,,,,,,,0,,,63,0
7680,note_on,8,0,1,,,,,,,,,0,,,64,65
7680,note_on,72,0,4,,,,,,,,,0,,,57,72
7680,note_on,0,0,4,,,,,,,,,0,,,40,72
7680,note_on,24,0,3,,,,,,,,,0,,,59,72
7712,note_on,32,0,1,,,,,,,,,0,,,64,0
7720,note_on,8,0,1,,,,,,,,,0,,,64,63
7752,note_on,32,0,1,,,,,,,,,0,,,64,0
7760,note_on,8,0,1,,,,,,,,,0,,,64,61
7776,note_on,96,0,4,,,,,,,,,0,,,40,0
7776,note_on,0,0,4,,,,,,,,,0,,,57,0
7792,note_on,32,0,1,,,,,,,,,0,,,64,0
7800,note_on,8,0,1,,,,,,,,,0,,,64,60
7800,note_on,24,0,4,,,,,,,,,0,,,56,72
7832,note_on,32,0,1,,,,,,,,,0,,,64,0
7840,note_on,8,0,1,,,,,,,,,0,,,64,58
7872,note_on,32,0,1,,,,,,,,,0,,,64,0
7872,note_on,192,0,3,,,,,,,,,0,,,59,0
7880,note_on,8,0,1,,,,,,,,,0,,,64,57
7896,note_on,96,0,4,,,,,,,,,0,,,56,0
7900,note_on,4312,0,2,,,,,,,,,0,,,60,60
7912,note_on,32,0,1,,,,,,,,,0,,,64,0
7920,note_on,8,0,1,,,,,,,,,0,,,64,55
7920,note_on,0,0,4,,,,,,,,,0,,,52,72
7920,note_on,24,0,4,,,,,,,,,0,,,45,72
7952,note_on,32,0,1,,,,,,,,,0,,,64,0
7952,note_on,52,0,2,,,,,,,,,0,,,60,0
7960,note_on,8,0,1,,,,,,,,,0,,,69,56
7992,note_on,32,0,1,,,,,,,,,0,,,69,0
8000,note_on,8,0,1,,,,,,,,,0,,,68,56
8016,note_on,96,0,4,,,,,,,,,0,,,52,0
8016,note_on,0,0,4,,,,,,,,,0,,,45,0
8020,note_on,68,0,2,,,,,,,,,0,,,64,64
8032,note_on,32,0,1,,,,,,,,,0,,,68,0
8040,note_on,24,0,4,,,,,,,,,0,,,57,58
8040,note_on,8,0,1,,,,,,,,,0,,,69,57
8040,note_on,0,0,4,,,,,,,,,0,,,48,58
8072,note_on,32,0,1,,,,,,,,,0,,,69,0
8072,note_on,52,0,2,,,,,,,,,0,,,64,0
8080,note_on,8,0,1,,,,,,,,,0,,,72,58
8088,note_on,48,0,4,,,,,,,,,0,,,48,0
8088,note_on,0,0,4,,,,,,,,,0,,,57,0
8100,note_on,12,0,4,,,,,,,,,0,,,59,58
8100,note_on,0,0,4,,,,,,,,,0,,,52,58
8112,note_on,32,0,1,,,,,,,,,0,,,72,0
8120,note_on,8,0,1,,,,,,,,,0,,,71,58
8140,note_on,68,0,2,,,,,,,,,0,,,69,67
8148,note_on,48,0,4,,,,,,,,,0,,,52,0
8148,note_on,0,0,4,,,,,,,,,0,,,59,0
8152,note_on,32,0,1,,,,,,,,,0,,,71,0
8160,note_on,12,0,4,,,,,,,,,0,,,60,72
8160,note_on,8,0,1,,,,,,,,,0,,,72,59
8160,note_on,0,0,4,,,,,,,,,0,,,57,72
8192,note_on,32,0,1,,,,,,,,,0,,,72,0
8192,note_on,52,0,2,,,,,,,,,0,,,69,0
8200,note_on,8,0,1,,,,,,,,,0,,,76,60
8232,note_on,32,0,1,,,,,,,,,0,,,76,0
8240,note_on,8,0,1,,,,,,,,,0,,,75,61
8256,note_on,96,0,4,,,,,,,,,0,,,57,0
8256,note_on,0,0,4,,,,,,,,,0,,,60,0
8260,note_on,68,0,2,,,,,,,,,0,,,72,70
8272,note_on,32,0,1,,,,,,,,,0,,,75,0
8280,note_on,24,0,4,,,,,,,,,0,,,40,58
8280,note_on,8,0,1,,,,,,,,,0,,,76,61
8280,note_on,0,0,4,,,,,,,,,0,,,33,58
8312,note_on,32,0,1,,,,,,,,,0,,,76,0
8312,note_on,52,0,2,,,,,,,,,0,,,72,0
8320,note_on,8,0,1,,,,,,,,,0,,,81,62
8352,note_on,32,0,1,,,,,,,,,0,,,81,0
8360,note_on,8,0,1,,,,,,,,,0,,,80,63
8376,note_on,0,0,4,,,,,,,,,0,,,40,0
8376,note_on,96,0,4,,,,,,,,,0,,,33,0
8380,note_on,68,0,2,,,,,,,,,0,,,76,73
8392,note_on,32,0,1,,,,,,,,,0,,,80,0
8400,note_on,0,0,4,,,,,,,,,0,,,40,58
8400,note_on,24,0,4,,,,,,,,,0,,,33,58
8400,note_on,8,0,1,,,,,,,,,0,,,81,63
8432,note_on,52,0,2,,,,,,,,,0,,,76,0
8432,note_on,32,0,1,,,,,,,,,0,,,81,0
8440,note_on,8,0,1,,,,,,,,,0,,,84,64
8472,note_on,32,0,1,,,,,,,,,0,,,84,0
8480,note_on,8,0,1,,,,,,,,,0,,,83,65
8496,note_on,96,0,4,,,,,,,,,0,,,40,0
8496,note_on,0,0,4,,,,,,,,,0,,,33,0
8500,note_on,68,0,2,,,,,,,,,0,,,81,76
8512,note_on,32,0,1,,,,,,,,,0,,,83,0
8520,note_on,24,0,4,,,,,,,,,0,,,33,58
8520,note_on,8,0,1,,,,,,,,,0,,,84,65
8520,note_on,0,0,4,,,,,,,,,0,,,40,58
8552,note_on,32,0,1,,,,,,,,,0,,,84,0
8560,note_on,8,0,1,,,,,,,,,0,,,88,66
8568,note_on,68,0,2,,,,,,,,,0,,,81,0
8592,note_on,32,0,1,,,,,,,,,0,,,88,0
8600,note_on,8,0,1,,,,,,,,,0,,,87,67
8616,note_on,0,0,4,,,,,,,,,0,,,33,0
8616,note_on,96,0,4,,,,,,,,,0,,,40,0
8632,note_on,32,0,1,,,,,,,,,0,,,87,0
8640,note_on,24,0,4,,,,,,,,,0,,,57,72
8640,note_on,0,0,1,,,,,,,,,0,,,84,68
8640,note_on,0,0,4,,,,,,,,,0,,,48,72
8640,note_on,0,0,4,,,,,,,,,0,,,45,72
8640,note_on,8,0,1,,,,,,,,,0,,,88,68
8672,note_on,0,0,1,,,,,,,,,0,,,88,0
8672,note_on,32,0,1,,,,,,,,,0,,,84,0
8680,note_on,8,0,1,,,,,,,,,0,,,93,68
8712,note_on,32,0,1,,,,,,,,,0,,,93,0
8720,note_on,8,0,1,,,,,,,,,0,,,92,69
8736,note_on,0,0,4,,,,,,,,,0,,,45,0
8736,note_on,0,0,4,,,,,,,,,0,,,57,0
8736,note_on,96,0,4,,,,,,,,,0,,,48,0
8752,note_on,32,0,1,,,,,,,,,0,,,92,0
8760,note_on,8,0,1,,,,,,,,,0,,,88,70
8760,note_on,0,0,4,,,,,,,,,0,,,60,72
8760,note_on,0,0,4,,,,,,,,,0,,,52,72
8760,note_on,24,0,4,,,,,,,,,0,,,57,72
8760,note_on,0,0,1,,,,,,,,,0,,,93,70
8792,note_on,32,0,1,,,,,,,,,0,,,93,0
8792,note_on,0,0,1,,,,,,,,,0,,,88,0
8800,note_on,8,0,1,,,,,,,,,0,,,96,70
8808,note_on,0,0,4,,,,,,,,,0,,,52,0
8808,note_on,48,0,4,,,,,,,,,0,,,60,0
8808,note_on,0,0,4,,,,,,,,,0,,,57,0
8820,note_on,0,0,4,,,,,,,,,0,,,52,72
8820,note_on,12,0,4,,,,,,,,,0,,,62,72
8820,note_on,0,0,4,,,,,,,,,0,,,59,72
8832,note_on,32,0,1,,,,,,,,,0,,,96,0
8840,note_on,8,0,1,,,,,,,,,0,,,95,71
8868,note_on,48,0,4,,,,,,,,,0,,,52,0
8868,note_on,0,0,4,,,,,,,,,0,,,59,0
8868,note_on,0,0,4,,,,,,,,,0,,,62,0
8872,note_on,32,0,1,,,,,,,,,0,,,95,0
8880,note_on,0,0,4,,,,,,,,,0,,,64,72
8880,note_on,8,0,1,,,,,,,,,0,,,96,72
8880,note_on,12,0,4,,,,,,,,,0,,,60,72
8880,note_on,0,0,1,,,,,,,,,0,,,93,72
8880,note_on,0,0,4,,,,,,,,,0,,,57,72
8912,note_on,0,0,1,,,,,,,,,0,,,96,0
8912,note_on,32,0,1,,,,,,,,,0,,,93,0
8920,note_on,8,0,1,,,,,,,,,0,,,100,72
8952,note_on,32,0,1,,,,,,,,,0,,,100,0
8960,note_on,8,0,1,,,,,,,,,0,,,99,73
8976,note_on,0,0,4,,,,,,,,,0,,,64,0
8976,note_on,0,0,4,,,,,,,,,0,,,60,0
8976,note_on,96,0,4,,,,,,,,,0,,,57,0
8992,note_on,32,0,1,,,,,,,,,0,,,99,0
9000,note_on,24,0,4,,,,,,,,,0,,,45,72
9000,note_on,0,0,1,,,,,,,,,0,,,93,74
9000,note_on,0,0,1,,,,,,,,,0,,,101,74
9000,note_on,0,0,4,,,,,,,,,0,,,40,72
9000,note_on,0,0,4,,,,,,,,,0,,,33,72
9000,note_on,8,0,1,,,,,,,,,0,,,96,74
9032,note_on,32,0,1,,,,,,,,,0,,,101,0
9032,note_on,0,0,1,,,,,,,,,0,,,96,0
9032,note_on,0,0,1,,,,,,,,,0,,,93,0
9040,note_on,8,0,1,,,,,,,,,0,,,100,74
9072,note_on,32,0,1,,,,,,,,,0,,,100,0
9080,note_on,8,0,1,,,,,,,,,0,,,99,75
9096,note_on,0,0,4,,,,,,,,,0,,,45,0
9096,note_on,96,0,4,,,,,,,,,0,,,33,0
9096,note_on,0,0,4,,,,,,,,,0,,,40,0
9112,note_on,32,0,1,,,,,,,,,0,,,99,0
9120,note_on,0,0,1,,,,,,,,,0,,,96,76
9120,note_on,0,0,4,,,,,,,,,0,,,40,72
9120,note_on,0,0,4,,,,,,,,,0,,,33,72
9120,note_on,0,0,1,,,,,,,,,0,,,93,76
9120,note_on,24,0,4,,,,,,,,,0,,,45,72
9120,note_on,8,0,1,,,,,,,,,0,,,101,76
9152,note_on,32,0,1,,,,,,,,,0,,,93,0
9152,note_on,0,0,1,,,,,,,,,0,,,101,0
9152,note_on,0,0,1,,,,,,,,,0,,,96,0
9160,note_on,8,0,1,,,,,,,,,0,,,100,77
9192,note_on,32,0,1,,,,,,,,,0,,,100,0
9200,note_on,8,0,1,,,,,,,,,0,,,99,77
9216,note_on,0,0,4,,,,,,,,,0,,,33,0
9216,note_on,0,0,4,,,,,,,,,0,,,45,0
9216,note_on,96,0,4,,,,,,,,,0,,,40,0
9232,note_on,32,0,1,,,,,,,,,0,,,99,0
9240,note_on,8,0,1,,,,,,,,,0,,,101,78
9240,note_on,0,0,1,,,,,,,,,0,,,93,78
9240,note_on,0,0,1,,,,,,,,,0,,,96,78
9240,note_on,24,0,4,,,,,,,,,0,,,40,72
9240,note_on,0,0,4,,,,,,,,,0,,,45,72
9240,note_on,0,0,4,,,,,,,,,0,,,33,72
9272,note_on,0,0,1,,,,,,,,,0,,,96,0
9272,note_on,32,0,1,,,,,,,,,0,,,93,0
9272,note_on,0,0,1,,,,,,,,,0,,,101,0
9280,note_on,8,0,1,,,,,,,,,0,,,100,79
9312,note_on,32,0,1,,,,,,,,,0,,,100,0
9320,note_on,8,0,1,,,,,,,,,0,,,99,79
9336,note_on,96,0,4,,,,,,,,,0,,,33,0
9336,note_on,0,0,4,,,,,,,,,0,,,45,0
9336,note_on,0,0,4,,,,,,,,,0,,,40,0
9352,note_on,32,0,1,,,,,,,,,0,,,99,0
9360,note_on,792,0,2,,,,,,,,,0,,,89,80
9360,note_on,24,0,4,,,,,,,,,0,,,38,72
9360,note_on,8,0,1,,,,,,,,,0,,,101,80
9360,note_on,0,0,4,,,,,,,,,0,,,45,72
9360,note_on,0,0,2,,,,,,,,,0,,,94,80
9392,note_on,32,0,1,,,,,,,,,0,,,101,0
9400,note_on,8,0,1,,,,,,,,,0,,,100,80
9432,note_on,32,0,1,,,,,,,,,0,,,100,0
9440,note_on,8,0,1,,,,,,,,,0,,,99,80
9456,note_on,0,0,4,,,,,,,,,0,,,38,0
9456,note_on,96,0,4,,,,,,,,,0,,,45,0
9456,note_on,96,0,2,,,,,,,,,0,,,94,0
9456,note_on,0,0,2,,,,,,,,,0,,,89,0
9472,note_on,32,0,1,,,,,,,,,0,,,99,0
9480,note_on,24,0,4,,,,,,,,,0,,,53,72
9480,note_on,0,0,4,,,,,,,,,0,,,58,72
9480,note_on,8,0,1,,,,,,,,,0,,,98,80
9480,note_on,0,0,4,,,,,,,,,0,,,50,72
9512,note_on,32,0,1,,,,,,,,,0,,,98,0
9520,note_on,8,0,1,,,,,,,,,0,,,97,80
9552,note_on,32,0,1,,,,,,,,,0,,,97,0
9560,note_on,8,0,1,,,,,,,,,0,,,96,80
9576,note_on,0,0,4,,,,,,,,,0,,,50,0
9576,note_on,96,0,4,,,,,,,,,0,,,58,0
9576,note_on,0,0,4,,,,,,,,,0,,,53,0
9592,note_on,32,0,1,,,,,,,,,0,,,96,0
9600,note_on,8,0,1,,,,,,,,,0,,,93,80
9600,note_on,0,0,1,,,,,,,,,0,,,89,80
9600,note_on,24,0,4,,,,,,,,,0,,,62,72
9600,note_on,144,0,2,,,,,,,,,0,,,95,80
9600,note_on,0,0,4,,,,,,,,,0,,,53,72
9600,note_on,0,0,4,,,,,,,,,0,,,59,72
9632,note_on,32,0,1,,,,,,,,,0,,,89,0
9632,note_on,0,0,1,,,,,,,,,0,,,93,0
9640,note_on,8,0,1,,,,,,,,,0,,,88,80
9648,note_on,0,0,4,,,,,,,,,0,,,53,0
9648,note_on,0,0,4,,,,,,,,,0,,,62,0
9648,note_on,48,0,4,,,,,,,,,0,,,59,0
9660,note_on,12,0,4,,,,,,,,,0,,,64,72
9660,note_on,0,0,4,,,,,,,,,0,,,53,72
9660,note_on,0,0,4,,,,,,,,,0,,,59,72
9672,note_on,32,0,1,,,,,,,,,0,,,88,0
9680,note_on,8,0,1,,,,,,,,,0,,,87,80
9696,note_on,96,0,2,,,,,,,,,0,,,95,0
9708,note_on,48,0,4,,,,,,,,,0,,,59,0
9708,note_on,0,0,4,,,,,,,,,0,,,53,0
9708,note_on,0,0,4,,,,,,,,,0,,,64,0
9712,note_on,32,0,1,,,,,,,,,0,,,87,0
9720,note_on,0,0,4,,,,,,,,,0,,,59,72
9720,note_on,0,0,4,,,,,,,,,0,,,57,72
9720,note_on,8,0,1,,,,,,,,,0,,,86,80
9720,note_on,12,0,4,,,,,,,,,0,,,65,72
9752,note_on,32,0,1,,,,,,,,,0,,,86,0
9760,note_on,8,0,1,,,,,,,,,0,,,85,80
9792,note_on,32,0,1,,,,,,,,,0,,,85,0
9800,note_on,8,0,1,,,,,,,,,0,,,84,80
9816,note_on,0,0,4,,,,,,,,,0,,,59,0
9816,note_on,96,0,4,,,,,,,,,0,,,57,0
9816,note_on,0,0,4,,,,,,,,,0,,,65,0
9832,note_on,32,0,1,,,,,,,,,0,,,84,0
9840,note_on,0,0,4,,,,,,,,,0,,,52,72
9840,note_on,8,0,1,,,,,,,,,0,,,80,80
9840,note_on,144,0,2,,,,,,,,,0,,,83,80
9840,note_on,24,0,4,,,,,,,,,0,,,40,72
9872,note_on,32,0,1,,,,,,,,,0,,,80,0
9880,note_on,8,0,1,,,,,,,,,0,,,77,80
9912,note_on,32,0,1,,,,,,,,,0,,,77,0
9920,note_on,8,0,1,,,,,,,,,0,,,75,80
9936,note_on,96,0,2,,,,,,,,,0,,,83,0
9936,note_on,0,0,4,,,,,,,,,0,,,40,0
9936,note_on,96,0,4,,,,,,,,,0,,,52,0
9952,note_on,32,0,1,,,,,,,,,0,,,75,0
9960,note_on,24,0,2,,,,,,,,,0,,,88,80
9960,note_on,0,0,1,,,,,,,,,0,,,74,80
9960,note_on,24,0,4,,,,,,,,,0,,,64,72
9960,note_on,0,0,4,,,,,,,,,0,,,59,72
9960,note_on,0,0,4,,,,,,,,,0,,,56,72
9960,note_on,8,0,1,,,,,,,,,0,,,76,80
9992,note_on,32,0,1,,,,,,,,,0,,,74,0
9992,note_on,0,0,1,,,,,,,,,0,,,76,0
10000,note_on,8,0,1,,,,,,,,,0,,,71,80
10032,note_on,32,0,1,,,,,,,,,0,,,71,0
10040,note_on,8,0,1,,,,,,,,,0,,,72,80
10056,note_on,96,0,2,,,,,,,,,0,,,88,0
10056,note_on,0,0,4,,,,,,,,,0,,,59,0
10056,note_on,0,0,4,,,,,,,,,0,,,64,0
10056,note_on,96,0,4,,,,,,,,,0,,,56,0
10072,note_on,32,0,1,,,,,,,,,0,,,72,0
10080,control_change,8,0,1,,,,,,,,,0,64,127,,
10080,note_on,0,0,4,,,,,,,,,0,,,52,72
10080,note_on,24,0,4,,,,,,,,,0,,,60,72
10080,note_on,0,0,4,,,,,,,,,0,,,45,72
10080,note_on,0,0,1,,,,,,,,,0,,,69,80
10112,note_on,32,0,1,,,,,,,,,0,,,69,0
10120,note_on,8,0,1,,,,,,,,,0,,,81,80
10152,note_on,32,0,1,,,,,,,,,0,,,81,0
10160,note_on,8,0,1,,,,,,,,,0,,,81,80
10176,note_on,96,0,4,,,,,,,,,0,,,45,0
10176,note_on,0,0,4,,,,,,,,,0,,,52,0
10176,note_on,0,0,4,,,,,,,,,0,,,60,0
10192,note_on,32,0,1,,,,,,,,,0,,,81,0
10200,note_on,0,0,4,,,,,,,,,0,,,60,72
10200,note_on,0,0,4,,,,,,,,,0,,,69,72
10200,note_on,24,0,4,,,,,,,,,0,,,64,72
10200,note_on,8,0,1,,,,,,,,,0,,,93,80
10232,note_on,32,0,1,,,,,,,,,0,,,93,0
10240,note_on,8,0,1,,,,,,,,,0,,,81,80
10272,note_on,32,0,1,,,,,,,,,0,,,81,0
10280,note_on,8,0,1,,,,,,,,,0,,,69,80
10296,note_on,96,0,4,,,,,,,,,0,,,60,0
10296,note_on,0,0,4,,,,,,,,,0,,,64,0
10296,note_on,0,0,4,,,,,,,,,0,,,69,0
10312,note_on,32,0,1,,,,,,,,,0,,,69,0
10320,note_on,8,0,1,,,,,,,,,0,,,57,80
10440,note_on,384,0,2,,,,,,,,,0,,,69,65
10440,note_on,120,0,1,,,,,,,,,0,,,60,80
10448,control_change,8,0,1,,,,,,,,,0,64,0,,
10488,note_on,40,0,1,,,,,,,,,0,,,60,0
10488,note_on,0,0,1,,,,,,,,,0,,,57,0
10500,note_on,0,0,4,,,,,,,,,0,,,60,65
10500,note_on,204,0,4,,,,,,,,,0,,,57,65
10536,note_on,96,0,2,,,,,,,,,0,,,69,0
10548,note_on,48,0,4,,,,,,,,,0,,,60,0
10548,note_on,0,0,4,,,,,,,,,0,,,57,0
10560,note_on,0,0,4,,,,,,,,,0,,,62,65
10560,note_on,12,0,4,,,,,,,,,0,,,59,65
10560,note_on,24,0,2,,,,,,,,,0,,,69,65
10608,note_on,48,0,4,,,,,,,,,0,,,62,0
10608,note_on,0,0,4,,,,,,,,,0,,,59,0
10620,note_on,12,0,4,,,,,,,,,0,,,59,65
10620,note_on,0,0,4,,,,,,,,,0,,,62,65
10656,note_on,96,0,2,,,,,,,,,0,,,69,0
10668,note_on,0,0,4,,,,,,,,,0,,,59,0
10668,note_on,48,0,4,,,,,,,,,0,,,62,0
10680,note_on,24,0,2,,,,,,,,,0,,,69,65
10680,note_on,12,0,4,,,,,,,,,0,,,64,65
10680,note_on,0,0,4,,,,,,,,,0,,,60,65
10728,note_on,0,0,4,,,,,,,,,0,,,64,0
10728,note_on,48,0,4,,,,,,,,,0,,,60,0
10740,note_on,12,0,4,,,,,,,,,0,,,64,65
10740,note_on,0,0,4,,,,,,,,,0,,,60,65
10776,note_on,96,0,2,,,,,,,,,0,,,69,0
10788,note_on,48,0,4,,,,,,,,,0,,,60,0
10788,note_on,0,0,4,,,,,,,,,0,,,64,0
10800,note_on,24,0,2,,,,,,,,,0,,,69,65
10800,note_on,12,0,4,,,,,,,,,0,,,65,72
10800,note_on,0,0,4,,,,,,,,,0,,,62,72
10848,note_on,48,0,4,,,,,,,,,0,,,62,0
10848,note_on,0,0,4,,,,,,,,,0,,,65,0
10860,note_on,12,0,4,,,,,,,,,0,,,62,72
10860,note_on,0,0,4,,,,,,,,,0,,,65,72
10908,note_on,48,0,4,,,,,,,,,0,,,65,0
10908,note_on,0,0,4,,,,,,,,,0,,,62,0
10920,note_on,12,0,4,,,,,,,,,0,,,64,72
10920,note_on,0,0,4,,,,,,,,,0,,,60,72
10968,note_on,48,0,4,,,,,,,,,0,,,60,0
10968,note_on,0,0,4,,,,,,,,,0,,,64,0
10980,note_on,12,0,4,,,,,,,,,0,,,60,72
10980,note_on,0,0,4,,,,,,,,,0,,,64,72
11028,note_on,48,0,4,,,,,,,,,0,,,64,0
11028,note_on,0,0,4,,,,,,,,,0,,,60,0
11040,note_on,0,0,4,,,,,,,,,0,,,59,72
11040,note_on,12,0,4,,,,,,,,,0,,,63,72
11088,note_on,48,0,4,,,,,,,,,0,,,59,0
11088,note_on,0,0,4,,,,,,,,,0,,,63,0
11088,note_on,288,0,2,,,,,,,,,0,,,69,0
11100,note_on,12,0,4,,,,,,,,,0,,,63,72
11100,note_on,0,0,4,,,,,,,,,0,,,59,72
11148,note_on,48,0,4,,,,,,,,,0,,,59,0
11148,note_on,0,0,4,,,,,,,,,0,,,63,0
11160,note_on,0,0,4,,,,,,,,,0,,,62,72
11160,note_on,72,0,2,,,,,,,,,0,,,69,65
11160,note_on,12,0,4,,,,,,,,,0,,,65,72
11208,note_on,48,0,4,,,,,,,,,0,,,62,0
11208,note_on,0,0,4,,,,,,,,,0,,,65,0
11220,note_on,0,0,4,,,,,,,,,0,,,65,72
11220,note_on,12,0,4,,,,,,,,,0,,,62,72
11256,note_on,96,0,2,,,,,,,,,0,,,69,0
11268,note_on,48,0,4,,,,,,,,,0,,,65,0
11268,note_on,0,0,4,,,,,,,,,0,,,62,0
11280,note_on,24,0,2,,,,,,,,,0,,,69,65
11280,note_on,12,0,4,,,,,,,,,0,,,64,72
11280,note_on,0,0,4,,,,,,,,,0,,,61,72
11328,note_on,0,0,4,,,,,,,,,0,,,64,0
11328,note_on,48,0,4,,,,,,,,,0,,,61,0
11340,note_on,0,0,4,,,,,,,,,0,,,61,72
11340,note_on,12,0,4,,,,,,,,,0,,,64,72
11376,note_on,96,0,2,,,,,,,,,0,,,69,0
11388,note_on,0,0,4,,,,,,,,,0,,,64,0
11388,note_on,48,0,4,,,,,,,,,0,,,61,0
11400,note_on,0,0,4,,,,,,,,,0,,,62,72
11400,note_on,12,0,4,,,,,,,,,0,,,59,72
11400,note_on,24,0,2,,,,,,,,,0,,,69,65
11448,note_on,0,0,4,,,,,,,,,0,,,59,0
11448,note_on,48,0,4,,,,,,,,,0,,,62,0
11460,note_on,0,0,4,,,,,,,,,0,,,62,72
11460,note_on,12,0,4,,,,,,,,,0,,,59,72
11496,note_on,96,0,2,,,,,,,,,0,,,69,0
11508,note_on,48,0,4,,,,,,,,,0,,,62,0
11508,note_on,0,0,4,,,,,,,,,0,,,59,0
11520,note_on,0,0,4,,,,,,,,,0,,,52,76
11520,note_on,0,0,4,,,,,,,,,0,,,60,76
11520,note_on,0,0,1,,,,,,,,,0,,,69,80
11520,note_on,12,0,4,,,,,,,,,0,,,45,76
11520,control_change,1032,0,1,,,,,,,,,0,64,127,,
11552,note_on,32,0,1,,,,,,,,,0,,,69,0
11560,note_on,8,0,1,,,,,,,,,0,,,81,80
11592,note_on,32,0,1,,,,,,,,,0,,,81,0
11600,note_on,8,0,1,,,,,,,,,0,,,81,80
11616,note_on,0,0,4,,,,,,,,,0,,,52,0
11616,note_on,0,0,4,,,,,,,,,0,,,45,0
11616,note_on,96,0,4,,,,,,,,,0,,,60,0
11632,note_on,32,0,1,,,,,,,,,0,,,81,0
11640,note_on,0,0,4,,,,,,,,,0,,,64,76
11640,note_on,0,0,4,,,,,,,,,0,,,69,76
11640,note_on,24,0,4,,,,,,,,,0,,,60,76
11640,note_on,8,0,1,,,,,,,,,0,,,93,80
11672,note_on,32,0,1,,,,,,,,,0,,,93,0
11680,note_on,8,0,1,,,,,,,,,0,,,81,80
11712,note_on,32,0,1,,,,,,,,,0,,,81,0
11720,note_on,8,0,1,,,,,,,,,0,,,69,80
11736,note_on,0,0,4,,,,,,,,,0,,,60,0
11736,note_on,96,0,4,,,,,,,,,0,,,64,0
11736,note_on,0,0,4,,,,,,,,,0,,,69,0
11752,note_on,32,0,1,,,,,,,,,0,,,69,0
11760,control_change,8,0,1,,,,,,,,,0,64,0,,
11760,note_on,0,0,1,,,,,,,,,0,,,57,80
11880,note_on,384,0,2,,,,,,,,,0,,,69,65
11880,note_on,120,0,1,,,,,,,,,0,,,60,80
11928,note_on,48,0,1,,,,,,,,,0,,,60,0
11928,note_on,0,0,1,,,,,,,,,0,,,57,0
11940,note_on,0,0,4,,,,,,,,,0,,,57,72
11940,note_on,204,0,4,,,,,,,,,0,,,60,72
11976,note_on,96,0,2,,,,,,,,,0,,,69,0
11988,note_on,0,0,4,,,,,,,,,0,,,60,0
11988,note_on,48,0,4,,,,,,,,,0,,,57,0
12000,note_on,24,0,2,,,,,,,,,0,,,69,65
12000,note_on,0,0,4,,,,,,,,,0,,,62,72
12000,note_on,12,0,4,,,,,,,,,0,,,59,72
12048,note_on,48,0,4,,,,,,,,,0,,,62,0
12048,note_on,0,0,4,,,,,,,,,0,,,59,0
12060,note_on,12,0,4,,,,,,,,,0,,,59,72
12060,note_on,0,0,4,,,,,,,,,0,,,62,72
12096,note_on,96,0,2,,,,,,,,,0,,,69,0
12108,note_on,48,0,4,,,,,,,,,0,,,62,0
12108,note_on,0,0,4,,,,,,,,,0,,,59,0
12120,note_on,12,0,4,,,,,,,,,0,,,64,72
12120,note_on,24,0,2,,,,,,,,,0,,,69,65
12120,note_on,0,0,4,,,,,,,,,0,,,60,72
12168,note_on,48,0,4,,,,,,,,,0,,,60,0
12168,note_on,0,0,4,,,,,,,,,0,,,64,0
12180,note_on,12,0,4,,,,,,,,,0,,,64,72
12180,note_on,0,0,4,,,,,,,,,0,,,60,72
12216,note_on,96,0,2,,,,,,,,,0,,,69,0
12228,note_on,0,0,4,,,,,,,,,0,,,64,0
12228,note_on,48,0,4,,,,,,,,,0,,,60,0
12240,note_on,12,0,4,,,,,,,,,0,,,65,72
12240,note_on,0,0,4,,,,,,,,,0,,,62,72
12240,note_on,24,0,2,,,,,,,,,0,,,69,65
12288,note_on,48,0,4,,,,,,,,,0,,,62,0
12288,note_on,0,0,4,,,,,,,,,0,,,65,0
12300,note_on,12,0,4,,,,,,,,,0,,,65,72
12300,note_on,0,0,4,,,,,,,,,0,,,62,72
12348,note_on,48,0,4,,,,,,,,,0,,,62,0
12348,note_on,0,0,4,,,,,,,,,0,,,65,0
12360,note_on,12,0,4,,,,,,,,,0,,,60,72
12360,note_on,0,0,4,,,,,,,,,0,,,64,72
12408,note_on,0,0,4,,,,,,,,,0,,,60,0
12408,note_on,48,0,4,,,,,,,,,0,,,64,0
12420,note_on,0,0,4,,,,,,,,,0,,,60,72
12420,note_on,12,0,4,,,,,,,,,0,,,64,72
12468,note_on,0,0,4,,,,,,,,,0,,,64,0
12468,note_on,48,0,4,,,,,,,,,0,,,60,0
12480,note_on,12,0,4,,,,,,,,,0,,,63,72
12480,note_on,0,0,4,,,,,,,,,0,,,59,72
12528,note_on,288,0,2,,,,,,,,,0,,,69,0
12528,note_on,0,0,4,,,,,,,,,0,,,63,0
12528,note_on,48,0,4,,,,,,,,,0,,,59,0
12540,note_on,12,0,4,,,,,,,,,0,,,59,72
12540,note_on,0,0,4,,,,,,,,,0,,,63,72
12588,note_on,0,0,4,,,,,,,,,0,,,59,0
12588,note_on,48,0,4,,,,,,,,,0,,,63,0
12600,note_on,0,0,4,,,,,,,,,0,,,65,72
12600,note_on,12,0,4,,,,,,,,,0,,,62,72
12600,note_on,72,0,2,,,,,,,,,0,,,69,65
12648,note_on,0,0,4,,,,,,,,,0,,,62,0
12648,note_on,48,0,4,,,,,,,,,0,,,65,0
12660,note_on,0,0,4,,,,,,,,,0,,,65,72
12660,note_on,12,0,4,,,,,,,,,0,,,62,72
12696,note_on,96,0,2,,,,,,,,,0,,,69,0
12708,note_on,48,0,4,,,,,,,,,0,,,65,0
12708,note_on,0,0,4,,,,,,,,,0,,,62,0
12720,note_on,24,0,2,,,,,,,,,0,,,69,65
12720,note_on,0,0,4,,,,,,,,,0,,,61,72
12720,note_on,12,0,4,,,,,,,,,0,,,64,72
12768,note_on,0,0,4,,,,,,,,,0,,,64,0
12768,note_on,48,0,4,,,,,,,,,0,,,61,0
12780,note_on,0,0,4,,,,,,,,,0,,,61,72
12780,note_on,12,0,4,,,,,,,,,0,,,64,72
12816,note_on,96,0,2,,,,,,,,,0,,,69,0
12828,note_on,48,0,4,,,,,,,,,0,,,61,0
12828,note_on,0,0,4,,,,,,,,,0,,,64,0
12840,note_on,0,0,4,,,,,,,,,0,,,63,72
12840,note_on,24,0,2,,,,,,,,,0,,,69,65
12840,note_on,12,0,4,,,,,,,,,0,,,60,72
12888,note_on,0,0,4,,,,,,,,,0,,,60,0
12888,note_on,48,0,4,,,,,,,,,0,,,63,0
12900,note_on,0,0,4,,,,,,,,,0,,,63,72
12900,note_on,12,0,4,,,,,,,,,0,,,60,72
12936,note_on,96,0,2,,,,,,,,,0,,,69,0
12948,note_on,0,0,4,,,,,,,,,0,,,60,0
12948,note_on,48,0,4,,,,,,,,,0,,,63,0
12960,note_on,0,0,4,,,,,,,,,0,,,46,80
12960,note_on,0,0,4,,,,,,,,,0,,,53,80
12960,note_on,0,0,1,,,,,,,,,0,,,70,80
12960,control_change,1032,0,1,,,,,,,,,0,64,127,,
12960,note_on,12,0,4,,,,,,,,,0,,,62,80
12992,note_on,32,0,1,,,,,,,,,0,,,70,0
13000,note_on,8,0,1,,,,,,,,,0,,,82,80
13032,note_on,32,0,1,,,,,,,,,0,,,82,0
13040,note_on,8,0,1,,,,,,,,,0,,,82,80
13056,note_on,0,0,4,,,,,,,,,0,,,53,0
13056,note_on,96,0,4,,,,,,,,,0,,,46,0
13056,note_on,0,0,4,,,,,,,,,0,,,62,0
13072,note_on,32,0,1,,,,,,,,,0,,,82,0
13080,note_on,0,0,4,,,,,,,,,0,,,62,80
13080,note_on,24,0,4,,,,,,,,,0,,,70,80
13080,note_on,8,0,1,,,,,,,,,0,,,94,80
13080,note_on,0,0,4,,,,,,,,,0,,,65,80
13112,note_on,32,0,1,,,,,,,,,0,,,94,0
13120,note_on,8,0,1,,,,,,,,,0,,,82,80
13152,note_on,32,0,1,,,,,,,,,0,,,82,0
13160,note_on,8,0,1,,,,,,,,,0,,,70,80
13176,note_on,96,0,4,,,,,,,,,0,,,65,0
13176,note_on,0,0,4,,,,,,,,,0,,,62,0
13176,note_on,0,0,4,,,,,,,,,0,,,70,0
13192,note_on,32,0,1,,,,,,,,,0,,,70,0
13200,note_on,8,0,1,,,,,,,,,0,,,58,80
13206,control_change,6,0,1,,,,,,,,,0,64,0,,
13320,note_on,384,0,2,,,,,,,,,0,,,70,80
13320,note_on,114,0,1,,,,,,,,,0,,,62,80
13368,note_on,0,0,1,,,,,,,,,0,,,58,0
13368,note_on,48,0,1,,,,,,,,,0,,,62,0
13380,note_on,0,0,4,,,,,,,,,0,,,62,72
13380,note_on,204,0,4,,,,,,,,,0,,,58,72
13416,note_on,96,0,2,,,,,,,,,0,,,70,0
13428,note_on,48,0,4,,,,,,,,,0,,,62,0
13428,note_on,0,0,4,,,,,,,,,0,,,58,0
13440,note_on,24,0,2,,,,,,,,,0,,,70,80
13440,note_on,0,0,4,,,,,,,,,0,,,60,72
13440,note_on,12,0,4,,,,,,,,,0,,,63,72
13488,note_on,48,0,4,,,,,,,,,0,,,60,0
13488,note_on,0,0,4,,,,,,,,,0,,,63,0
13500,note_on,0,0,4,,,,,,,,,0,,,63,72
13500,note_on,12,0,4,,,,,,,,,0,,,60,72
13536,note_on,96,0,2,,,,,,,,,0,,,70,0
13548,note_on,48,0,4,,,,,,,,,0,,,63,0
13548,note_on,0,0,4,,,,,,,,,0,,,60,0
13560,note_on,24,0,2,,,,,,,,,0,,,70,80
13560,note_on,12,0,4,,,,,,,,,0,,,62,72
13560,note_on,0,0,4,,,,,,,,,0,,,65,72
13608,note_on,48,0,4,,,,,,,,,0,,,65,0
13608,note_on,0,0,4,,,,,,,,,0,,,62,0
13620,note_on,12,0,4,,,,,,,,,0,,,62,72
13620,note_on,0,0,4,,,,,,,,,0,,,65,72
13656,note_on,96,0,2,,,,,,,,,0,,,70,0
13668,note_on,48,0,4,,,,,,,,,0,,,65,0
13668,note_on,0,0,4,,,,,,,,,0,,,62,0
13680,note_on,0,0,4,,,,,,,,,0,,,63,72
13680,note_on,12,0,4,,,,,,,,,0,,,66,72
13680,note_on,24,0,2,,,,,,,,,0,,,70,80
13728,note_on,48,0,4,,,,,,,,,0,,,63,0
13728,note_on,0,0,4,,,,,,,,,0,,,66,0
13740,note_on,12,0,4,,,,,,,,,0,,,63,72
13740,note_on,0,0,4,,,,,,,,,0,,,66,72
13788,note_on,0,0,4,,,,,,,,,0,,,63,0
13788,note_on,48,0,4,,,,,,,,,0,,,66,0
13800,note_on,12,0,4,,,,,,,,,0,,,62,72
13800,note_on,0,0,4,,,,,,,,,0,,,65,72
13848,note_on,48,0,4,,,,,,,,,0,,,65,0
13848,note_on,0,0,4,,,,,,,,,0,,,62,0
13860,note_on,12,0,4,,,,,,,,,0,,,62,72
13860,note_on,0,0,4,,,,,,,,,0,,,65,72
13908,note_on,0,0,4,,,,,,,,,0,,,62,0
13908,note_on,48,0,4,,,,,,,,,0,,,65,0
13920,note_on,12,0,4,,,,,,,,,0,,,63,72
13920,note_on,0,0,4,,,,,,,,,0,,,60,72
13968,note_on,48,0,4,,,,,,,,,0,,,60,0
13968,note_on,288,0,2,,,,,,,,,0,,,70,0
13968,note_on,0,0,4,,,,,,,,,0,,,63,0
13980,note_on,12,0,4,,,,,,,,,0,,,60,72
13980,note_on,0,0,4,,,,,,,,,0,,,63,72
14028,note_on,0,0,4,,,,,,,,,0,,,60,0
14028,note_on,48,0,4,,,,,,,,,0,,,63,0
14040,note_on,72,0,2,,,,,,,,,0,,,70,80
14040,note_on,12,0,4,,,,,,,,,0,,,63,72
14040,note_on,0,0,4,,,,,,,,,0,,,66,72
14088,note_on,0,0,4,,,,,,,,,0,,,63,0
14088,note_on,48,0,4,,,,,,,,,0,,,66,0
14100,note_on,0,0,4,,,,,,,,,0,,,66,72
14100,note_on,12,0,4,,,,,,,,,0,,,63,72
14136,note_on,96,0,2,,,,,,,,,0,,,70,0
14148,note_on,0,0,4,,,,,,,,,0,,,63,0
14148,note_on,48,0,4,,,,,,,,,0,,,66,0
14160,note_on,12,0,4,,,,,,,,,0,,,65,72
14160,note_on,24,0,2,,,,,,,,,0,,,70,80
14160,note_on,0,0,4,,,,,,,,,0,,,62,72
14208,note_on,48,0,4,,,,,,,,,0,,,62,0
14208,note_on,0,0,4,,,,,,,,,0,,,65,0
14220,note_on,0,0,4,,,,,,,,,0,,,65,72
14220,note_on,12,0,4,,,,,,,,,0,,,62,72
14256,note_on,96,0,2,,,,,,,,,0,,,70,0
14268,note_on,0,0,4,,,,,,,,,0,,,62,0
14268,note_on,48,0,4,,,,,,,,,0,,,65,0
14280,note_on,12,0,4,,,,,,,,,0,,,64,72
14280,note_on,0,0,4,,,,,,,,,0,,,61,72
14280,note_on,24,0,2,,,,,,,,,0,,,70,80
14328,note_on,48,0,4,,,,,,,,,0,,,61,0
14328,note_on,0,0,4,,,,,,,,,0,,,64,0
14340,note_on,12,0,4,,,,,,,,,0,,,64,72
14340,note_on,0,0,4,,,,,,,,,0,,,61,72
14376,note_on,96,0,2,,,,,,,,,0,,,70,0
14388,note_on,0,0,4,,,,,,,,,0,,,64,0
14388,note_on,48,0,4,,,,,,,,,0,,,61,0
14400,note_on,24,0,2,,,,,,,,,0,,,71,80
14400,note_on,0,0,4,,,,,,,,,0,,,63,72
14400,note_on,12,0,4,,,,,,,,,0,,,59,72
14448,note_on,0,0,4,,,,,,,,,0,,,59,0
14448,note_on,48,0,4,,,,,,,,,0,,,63,0
14460,note_on,0,0,4,,,,,,,,,0,,,59,72
14460,note_on,12,0,4,,,,,,,,,0,,,63,72
14508,note_on,48,0,4,,,,,,,,,0,,,59,0
14508,note_on,0,0,4,,,,,,,,,0,,,63,0
14520,note_on,0,0,4,,,,,,,,,0,,,61,72
14520,note_on,12,0,4,,,,,,,,,0,,,64,72
14568,note_on,0,0,4,,,,,,,,,0,,,64,0
14568,note_on,48,0,4,,,,,,,,,0,,,61,0
14580,note_on,12,0,4,,,,,,,,,0,,,64,72
14580,note_on,0,0,4,,,,,,,,,0,,,61,72
14628,note_on,48,0,4,,,,,,,,,0,,,61,0
14628,note_on,0,0,4,,,,,,,,,0,,,64,0
14640,note_on,12,0,4,,,,,,,,,0,,,63,72
14640,note_on,0,0,4,,,,,,,,,0,,,66,72
14688,note_on,48,0,4,,,,,,,,,0,,,66,0
14688,note_on,288,0,2,,,,,,,,,0,,,71,0
14688,note_on,0,0,4,,,,,,,,,0,,,63,0
14700,note_on,0,0,4,,,,,,,,,0,,,66,72
14700,note_on,12,0,4,,,,,,,,,0,,,63,72
14748,note_on,0,0,4,,,,,,,,,0,,,63,0
14748,note_on,48,0,4,,,,,,,,,0,,,66,0
14760,note_on,0,0,4,,,,,,,,,0,,,64,72
14760,note_on,12,0,4,,,,,,,,,0,,,67,72
14760,note_on,72,0,2,,,,,,,,,0,,,71,80
14808,note_on,0,0,4,,,,,,,,,0,,,67,0
14808,note_on,48,0,4,,,,,,,,,0,,,64,0
14820,note_on,0,0,4,,,,,,,,,0,,,67,72
14820,note_on,12,0,4,,,,,,,,,0,,,64,72
14856,note_on,96,0,2,,,,,,,,,0,,,71,0
14868,note_on,48,0,4,,,,,,,,,0,,,67,0
14868,note_on,0,0,4,,,,,,,,,0,,,64,0
14880,note_on,0,0,4,,,,,,,,,0,,,63,72
14880,note_on,24,0,2,,,,,,,,,0,,,71,80
14880,note_on,12,0,4,,,,,,,,,0,,,66,72
14928,note_on,48,0,4,,,,,,,,,0,,,63,0
14928,note_on,0,0,4,,,,,,,,,0,,,66,0
14940,note_on,0,0,4,,,,,,,,,0,,,66,72
14940,note_on,12,0,4,,,,,,,,,0,,,63,72
14976,note_on,96,0,2,,,,,,,,,0,,,71,0
14988,note_on,0,0,4,,,,,,,,,0,,,63,0
14988,note_on,48,0,4,,,,,,,,,0,,,66,0
15000,note_on,0,0,4,,,,,,,,,0,,,62,72
15000,note_on,24,0,2,,,,,,,,,0,,,71,80
15000,note_on,12,0,4,,,,,,,,,0,,,65,72
15048,note_on,0,0,4,,,,,,,,,0,,,65,0
15048,note_on,48,0,4,,,,,,,,,0,,,62,0
15060,note_on,12,0,4,,,,,,,,,0,,,65,72
15060,note_on,0,0,4,,,,,,,,,0,,,62,72
15096,note_on,96,0,2,,,,,,,,,0,,,71,0
15108,note_on,0,0,4,,,,,,,,,0,,,65,0
15108,note_on,48,0,4,,,,,,,,,0,,,62,0
15120,note_on,0,0,4,,,,,,,,,0,,,64,72
15120,note_on,24,0,2,,,,,,,,,0,,,72,80
15120,note_on,12,0,4,,,,,,,,,0,,,60,72
15168,note_on,0,0,4,,,,,,,,,0,,,60,0
15168,note_on,48,0,4,,,,,,,,,0,,,64,0
15180,note_on,0,0,4,,,,,,,,,0,,,60,72
15180,note_on,12,0,4,,,,,,,,,0,,,64,72
15228,note_on,48,0,4,,,,,,,,,0,,,60,0
15228,note_on,0,0,4,,,,,,,,,0,,,64,0
15240,note_on,12,0,4,,,,,,,,,0,,,65,72
15240,note_on,0,0,4,,,,,,,,,0,,,62,72
15288,note_on,0,0,4,,,,,,,,,0,,,65,0
15288,note_on,48,0,4,,,,,,,,,0,,,62,0
15300,note_on,12,0,4,,,,,,,,,0,,,65,72
15300,note_on,0,0,4,,,,,,,,,0,,,62,72
15348,note_on,48,0,4,,,,,,,,,0,,,62,0
15348,note_on,0,0,4,,,,,,,,,0,,,65,0
15360,note_on,12,0,4,,,,,,,,,0,,,64,72
15360,note_on,0,0,4,,,,,,,,,0,,,67,72
15408,note_on,0,0,4,,,,,,,,,0,,,64,0
15408,note_on,48,0,4,,,,,,,,,0,,,67,0
15408,note_on,288,0,2,,,,,,,,,0,,,72,0
15420,note_on,12,0,4,,,,,,,,,0,,,64,72
15420,note_on,0,0,4,,,,,,,,,0,,,67,72
15468,note_on,0,0,4,,,,,,,,,0,,,64,0
15468,note_on,48,0,4,,,,,,,,,0,,,67,0
15480,note_on,0,0,4,,,,,,,,,0,,,68,72
15480,note_on,72,0,2,,,,,,,,,0,,,72,80
15480,note_on,12,0,4,,,,,,,,,0,,,65,72
15528,note_on,48,0,4,,,,,,,,,0,,,68,0
15528,note_on,0,0,4,,,,,,,,,0,,,65,0
15540,note_on,12,0,4,,,,,,,,,0,,,68,72
15540,note_on,0,0,4,,,,,,,,,0,,,65,72
15576,note_on,96,0,2,,,,,,,,,0,,,72,0
15588,note_on,0,0,4,,,,,,,,,0,,,68,0
15588,note_on,48,0,4,,,,,,,,,0,,,65,0
15600,note_on,12,0,4,,,,,,,,,0,,,64,72
15600,note_on,0,0,4,,,,,,,,,0,,,67,72
15600,note_on,24,0,2,,,,,,,,,0,,,72,80
15648,note_on,0,0,4,,,,,,,,,0,,,64,0
15648,note_on,48,0,4,,,,,,,,,0,,,67,0
15660,note_on,0,0,4,,,,,,,,,0,,,64,72
15660,note_on,12,0,4,,,,,,,,,0,,,67,72
15696,note_on,96,0,2,,,,,,,,,0,,,72,0
15708,note_on,0,0,4,,,,,,,,,0,,,67,0
15708,note_on,48,0,4,,,,,,,,,0,,,64,0
15720,note_on,24,0,2,,,,,,,,,0,,,72,80
15720,note_on,0,0,4,,,,,,,,,0,,,66,72
15720,note_on,12,0,4,,,,,,,,,0,,,63,72
15768,note_on,0,0,4,,,,,,,,,0,,,63,0
15768,note_on,48,0,4,,,,,,,,,0,,,66,0
15780,note_on,0,0,4,,,,,,,,,0,,,66,72
15780,note_on,12,0,4,,,,,,,,,0,,,63,72
15816,note_on,96,0,2,,,,,,,,,0,,,72,0
15828,note_on,0,0,4,,,,,,,,,0,,,63,0
15828,note_on,48,0,4,,,,,,,,,0,,,66,0
15840,note_on,0,0,1,,,,,,,,,0,,,73,80
15840,note_on,12,0,4,,,,,,,,,0,,,65,72
15840,note_on,0,0,4,,,,,,,,,0,,,61,72
15840,control_change,2472,0,1,,,,,,,,,0,64,127,,
15872,note_on,32,0,1,,,,,,,,,0,,,73,0
15880,note_on,8,0,1,,,,,,,,,0,,,85,80
15888,note_on,0,0,4,,,,,,,,,0,,,65,0
15888,note_on,48,0,4,,,,,,,,,0,,,61,0
15900,note_on,12,0,4,,,,,,,,,0,,,65,72
15912,note_on,32,0,1,,,,,,,,,0,,,85,0
15920,note_on,8,0,1,,,,,,,,,0,,,85,80
15948,note_on,48,0,4,,,,,,,,,0,,,65,0
15952,note_on,32,0,1,,,,,,,,,0,,,85,0
15960,note_on,12,0,4,,,,,,,,,0,,,66,72
15960,note_on,0,0,4,,,,,,,,,0,,,62,72
15960,note_on,8,0,1,,,,,,,,,0,,,97,80
15992,note_on,32,0,1,,,,,,,,,0,,,97,0
16000,note_on,8,0,1,,,,,,,,,0,,,85,80
16008,note_on,0,0,4,,,,,,,,,0,,,66,0
16008,note_on,48,0,4,,,,,,,,,0,,,62,0
16020,note_on,12,0,4,,,,,,,,,0,,,66,72
16032,note_on,32,0,1,,,,,,,,,0,,,85,0
16040,note_on,8,0,1,,,,,,,,,0,,,85,80
16068,note_on,48,0,4,,,,,,,,,0,,,66,0
16072,note_on,32,0,1,,,,,,,,,0,,,85,0
16080,note_on,12,0,4,,,,,,,,,0,,,68,72
16080,note_on,0,0,4,,,,,,,,,0,,,65,72
16080,note_on,8,0,1,,,,,,,,,0,,,73,80
16082,control_change,2,0,1,,,,,,,,,0,64,0,,
16128,note_on,0,0,4,,,,,,,,,0,,,68,0
16128,note_on,48,0,4,,,,,,,,,0,,,65,0
16140,note_on,12,0,4,,,,,,,,,0,,,68,72
16176,note_on,94,0,1,,,,,,,,,0,,,73,0
16188,note_on,48,0,4,,,,,,,,,0,,,68,0
16200,note_on,12,0,4,,,,,,,,,0,,,69,72
16200,note_on,384,0,2,,,,,,,,,0,,,73,80
16200,note_on,0,0,4,,,,,,,,,0,,,66,72
16248,note_on,48,0,4,,,,,,,,,0,,,66,0
16248,note_on,0,0,4,,,,,,,,,0,,,69,0
16260,note_on,12,0,4,,,,,,,,,0,,,69,72
16260,note_on,0,0,4,,,,,,,,,0,,,66,72
16296,note_on,96,0,2,,,,,,,,,0,,,73,0
16308,note_on,48,0,4,,,,,,,,,0,,,66,0
16308,note_on,0,0,4,,,,,,,,,0,,,69,0
16320,note_on,12,0,4,,,,,,,,,0,,,65,72
16320,note_on,0,0,4,,,,,,,,,0,,,68,72
16320,note_on,24,0,2,,,,,,,,,0,,,73,80
16368,note_on,0,0,4,,,,,,,,,0,,,65,0
16368,note_on,48,0,4,,,,,,,,,0,,,68,0
16380,note_on,12,0,4,,,,,,,,,0,,,68,72
16380,note_on,0,0,4,,,,,,,,,0,,,65,72
16416,note_on,96,0,2,,,,,,,,,0,,,73,0
16428,note_on,48,0,4,,,,,,,,,0,,,65,0
16428,note_on,0,0,4,,,,,,,,,0,,,68,0
16440,note_on,24,0,2,,,,,,,,,0,,,73,80
16440,note_on,0,0,4,,,,,,,,,0,,,66,72
16440,note_on,12,0,4,,,,,,,,,0,,,62,72
16488,note_on,48,0,4,,,,,,,,,0,,,66,0
16488,note_on,0,0,4,,,,,,,,,0,,,62,0
16500,note_on,0,0,4,,,,,,,,,0,,,66,72
16500,note_on,12,0,4,,,,,,,,,0,,,62,72
16536,note_on,96,0,2,,,,,,,,,0,,,73,0
16548,note_on,0,0,4,,,,,,,,,0,,,62,0
16548,note_on,48,0,4,,,,,,,,,0,,,66,0
16560,note_on,384,0,1,,,,,,,,,0,,,65,80
16560,note_on,12,0,4,,,,,,,,,0,,,61,88
16560,note_on,24,0,2,,,,,,,,,0,,,73,80
16592,note_on,32,0,4,,,,,,,,,0,,,61,0
16600,note_on,8,0,4,,,,,,,,,0,,,73,88
16608,note_on,48,0,1,,,,,,,,,0,,,65,0
16620,note_on,12,0,1,,,,,,,,,0,,,65,80
16632,note_on,32,0,4,,,,,,,,,0,,,73,0
16640,note_on,8,0,4,,,,,,,,,0,,,73,88
16656,note_on,96,0,2,,,,,,,,,0,,,73,0
16668,note_on,48,0,1,,,,,,,,,0,,,65,0
16672,note_on,32,0,4,,,,,,,,,0,,,73,0
16680,note_on,8,0,4,,,,,,,,,0,,,85,88
16680,note_on,12,0,1,,,,,,,,,0,,,62,80
16680,note_on,24,0,2,,,,,,,,,0,,,66,80
16712,note_on,32,0,4,,,,,,,,,0,,,85,0
16720,note_on,8,0,4,,,,,,,,,0,,,73,88
16728,note_on,48,0,1,,,,,,,,,0,,,62,0
16740,note_on,12,0,1,,,,,,,,,0,,,62,80
16752,note_on,32,0,4,,,,,,,,,0,,,73,0
16760,note_on,8,0,4,,,,,,,,,0,,,73,88
16776,note_on,96,0,2,,,,,,,,,0,,,66,0
16788,note_on,48,0,1,,,,,,,,,0,,,62,0
16792,note_on,32,0,4,,,,,,,,,0,,,73,0
16800,note_on,24,0,2,,,,,,,,,0,,,68,80
16800,note_on,8,0,4,,,,,,,,,0,,,61,80
16800,note_on,12,0,1,,,,,,,,,0,,,65,80
16848,note_on,48,0,1,,,,,,,,,0,,,65,0
16860,note_on,12,0,1,,,,,,,,,0,,,65,80
16896,note_on,96,0,4,,,,,,,,,0,,,61,0
16896,note_on,96,0,2,,,,,,,,,0,,,68,0
16908,note_on,48,0,1,,,,,,,,,0,,,65,0
16920,note_on,24,0,2,,,,,,,,,0,,,69,80
16920,note_on,24,0,4,,,,,,,,,0,,,61,80
16920,note_on,0,0,4,,,,,,,,,0,,,73,80
16920,note_on,12,0,1,,,,,,,,,0,,,66,80
16968,note_on,48,0,1,,,,,,,,,0,,,66,0
16980,note_on,12,0,1,,,,,,,,,0,,,66,80
17016,note_on,0,0,4,,,,,,,,,0,,,61,0
17016,note_on,96,0,2,,,,,,,,,0,,,69,0
17016,note_on,96,0,4,,,,,,,,,0,,,73,0
17028,note_on,48,0,1,,,,,,,,,0,,,66,0
17040,note_on,24,0,2,,,,,,,,,0,,,68,80
17040,note_on,24,0,4,,,,,,,,,0,,,61,80
17040,note_on,12,0,1,,,,,,,,,0,,,65,80
17040,note_on,0,0,4,,,,,,,,,0,,,73,80
17088,note_on,48,0,1,,,,,,,,,0,,,65,0
17100,note_on,12,0,1,,,,,,,,,0,,,65,80
17136,note_on,96,0,4,,,,,,,,,0,,,73,0
17136,note_on,96,0,2,,,,,,,,,0,,,68,0
17136,note_on,0,0,4,,,,,,,,,0,,,61,0
17148,note_on,48,0,1,,,,,,,,,0,,,65,0
17160,note_on,24,0,2,,,,,,,,,0,,,66,80
17160,note_on,24,0,4,,,,,,,,,0,,,73,80
17160,note_on,0,0,4,,,,,,,,,0,,,61,80
17160,note_on,12,0,1,,,,,,,,,0,,,62,80
17208,note_on,48,0,1,,,,,,,,,0,,,62,0
17220,note_on,12,0,1,,,,,,,,,0,,,62,80
17256,note_on,96,0,2,,,,,,,,,0,,,66,0
17256,note_on,0,0,4,,,,,,,,,0,,,73,0
17256,note_on,96,0,4,,,,,,,,,0,,,61,0
17268,note_on,48,0,1,,,,,,,,,0,,,62,0
17280,note_on,0,0,2,,,,,,,,,0,,,73,80
17280,note_on,24,0,4,,,,,,,,,0,,,61,80
17280,note_on,24,0,2,,,,,,,,,0,,,65,80
17282,set_tempo,12838,1,0,,,,,,510204,,,,,,,
17328,note_on,48,0,4,,,,,,,,,0,,,61,0
17335,set_tempo,53,1,0,,,,,,507614,,,,,,,
17340,note_on,12,0,4,,,,,,,,,0,,,49,80
17376,note_on,96,0,2,,,,,,,,,0,,,73,0
17376,note_on,0,0,2,,,,,,,,,0,,,65,0
17388,set_tempo,53,1,0,,,,,,505051,,,,,,,
17388,note_on,48,0,4,,,,,,,,,0,,,49,0
17400,note_on,0,0,2,,,,,,,,,0,,,62,80
17400,note_on,12,0,4,,,,,,,,,0,,,49,80
17400,note_on,0,0,2,,,,,,,,,0,,,74,80
17400,note_on,24,0,2,,,,,,,,,0,,,66,80
17438,set_tempo,50,1,0,,,,,,502513,,,,,,,
17448,note_on,48,0,4,,,,,,,,,0,,,49,0
17460,note_on,12,0,4,,,,,,,,,0,,,37,80
17491,set_tempo,53,1,0,,,,,,500000,,,,,,,
17496,note_on,0,0,2,,,,,,,,,0,,,74,0
17496,note_on,0,0,2,,,,,,,,,0,,,66,0
17496,note_on,96,0,2,,,,,,,,,0,,,62,0
17508,note_on,48,0,4,,,,,,,,,0,,,37,0
17520,note_on,24,0,2,,,,,,,,,0,,,66,80
17520,note_on,0,0,2,,,,,,,,,0,,,74,80
17520,note_on,12,0,4,,,,,,,,,0,,,49,80
17520,note_on,0,0,2,,,,,,,,,0,,,62,80
17544,set_tempo,53,1,0,,,,,,497512,,,,,,,
17568,note_on,48,0,4,,,,,,,,,0,,,49,0
17580,note_on,12,0,4,,,,,,,,,0,,,49,80
17594,set_tempo,50,1,0,,,,,,495050,,,,,,,
17616,note_on,96,0,2,,,,,,,,,0,,,62,0
17616,note_on,0,0,2,,,,,,,,,0,,,66,0
17616,note_on,0,0,2,,,,,,,,,0,,,74,0
17628,note_on,48,0,4,,,,,,,,,0,,,49,0
17640,note_on,12,0,4,,,,,,,,,0,,,61,80
17640,note_on,24,0,2,,,,,,,,,0,,,62,80
17640,note_on,0,0,2,,,,,,,,,0,,,74,80
17640,note_on,0,0,2,,,,,,,,,0,,,66,80
17647,set_tempo,53,1,0,,,,,,492611,,,,,,,
17688,note_on,48,0,4,,,,,,,,,0,,,61,0
17697,set_tempo,50,1,0,,,,,,490196,,,,,,,
17700,note_on,12,0,4,,,,,,,,,0,,,49,80
17736,note_on,96,0,2,,,,,,,,,0,,,66,0
17736,note_on,0,0,2,,,,,,,,,0,,,74,0
17736,note_on,0,0,2,,,,,,,,,0,,,62,0
17748,note_on,48,0,4,,,,,,,,,0,,,49,0
17750,set_tempo,53,1,0,,,,,,487805,,,,,,,
17760,note_on,0,0,2,,,,,,,,,0,,,62,80
17760,note_on,24,0,2,,,,,,,,,0,,,66,80
17760,note_on,12,0,4,,,,,,,,,0,,,49,80
17760,note_on,0,0,2,,,,,,,,,0,,,74,80
17803,set_tempo,53,1,0,,,,,,485437,,,,,,,
17808,note_on,48,0,4,,,,,,,,,0,,,49,0
17820,note_on,12,0,4,,,,,,,,,0,,,37,80
17853,set_tempo,50,1,0,,,,,,483092,,,,,,,
17856,note_on,0,0,2,,,,,,,,,0,,,66,0
17856,note_on,96,0,2,,,,,,,,,0,,,74,0
17856,note_on,0,0,2,,,,,,,,,0,,,62,0
17868,note_on,48,0,4,,,,,,,,,0,,,37,0
17880,note_on,12,0,4,,,,,,,,,0,,,49,80
17880,note_on,24,0,2,,,,,,,,,0,,,74,80
17880,note_on,0,0,2,,,,,,,,,0,,,86,80
17880,note_on,0,0,2,,,,,,,,,0,,,78,80
17906,set_tempo,53,1,0,,,,,,480769,,,,,,,
17928,note_on,48,0,4,,,,,,,,,0,,,49,0
17940,note_on,12,0,4,,,,,,,,,0,,,49,80
17956,set_tempo,50,1,0,,,,,,478469,,,,,,,
17976,note_on,0,0,2,,,,,,,,,0,,,74,0
17976,note_on,0,0,2,,,,,,,,,0,,,78,0
17976,note_on,96,0,2,,,,,,,,,0,,,86,0
17988,note_on,48,0,4,,,,,,,,,0,,,49,0
18000,note_on,24,0,2,,,,,,,,,0,,,86,80
18000,note_on,12,0,4,,,,,,,,,0,,,61,80
18000,note_on,0,0,2,,,,,,,,,0,,,78,80
18000,note_on,0,0,2,,,,,,,,,0,,,74,80
18009,set_tempo,53,1,0,,,,,,476190,,,,,,,
18048,note_on,48,0,4,,,,,,,,,0,,,61,0
18060,note_on,12,0,4,,,,,,,,,0,,,49,80
18062,set_tempo,53,1,0,,,,,,473934,,,,,,,
18096,note_on,96,0,2,,,,,,,,,0,,,74,0
18096,note_on,0,0,2,,,,,,,,,0,,,78,0
18096,note_on,0,0,2,,,,,,,,,0,,,86,0
18108,note_on,48,0,4,,,,,,,,,0,,,49,0
18112,set_tempo,50,1,0,,,,,,471698,,,,,,,
18120,note_on,0,0,2,,,,,,,,,0,,,90,80
18120,note_on,24,0,2,,,,,,,,,0,,,98,80
18120,note_on,12,0,4,,,,,,,,,0,,,49,80
18120,note_on,0,0,2,,,,,,,,,0,,,86,80
18165,set_tempo,53,1,0,,,,,,469484,,,,,,,
18168,note_on,48,0,4,,,,,,,,,0,,,49,0
18180,note_on,12,0,4,,,,,,,,,0,,,37,80
18216,note_on,0,0,2,,,,,,,,,0,,,86,0
18216,note_on,96,0,2,,,,,,,,,0,,,90,0
18216,note_on,0,0,2,,,,,,,,,0,,,98,0
18218,set_tempo,53,1,0,,,,,,467290,,,,,,,
18228,note_on,48,0,4,,,,,,,,,0,,,37,0
18240,note_on,0,0,2,,,,,,,,,0,,,90,80
18240,note_on,24,0,2,,,,,,,,,0,,,86,80
18240,note_on,12,0,4,,,,,,,,,0,,,36,80
18240,note_on,0,0,2,,,,,,,,,0,,,98,80
18268,set_tempo,50,1,0,,,,,,465116,,,,,,,
18288,note_on,48,0,4,,,,,,,,,0,,,36,0
18300,note_on,12,0,4,,,,,,,,,0,,,48,80
18321,set_tempo,53,1,0,,,,,,462963,,,,,,,
18336,note_on,96,0,2,,,,,,,,,0,,,98,0
18336,note_on,0,0,2,,,,,,,,,0,,,90,0
18336,note_on,0,0,2,,,,,,,,,0,,,86,0
18348,note_on,48,0,4,,,,,,,,,0,,,48,0
18360,note_on,24,0,2,,,,,,,,,0,,,90,80
18360,note_on,0,0,2,,,,,,,,,0,,,86,80
18360,note_on,0,0,2,,,,,,,,,0,,,98,80
18360,note_on,12,0,4,,,,,,,,,0,,,48,80
18372,set_tempo,51,1,0,,,,,,460829,,,,,,,
18408,note_on,48,0,4,,,,,,,,,0,,,48,0
18420,note_on,0,0,4,,,,,,,,,0,,,60,80
18420,note_on,12,0,4,,,,,,,,,0,,,62,80
18424,set_tempo,52,1,0,,,,,,458716,,,,,,,
18456,note_on,0,0,2,,,,,,,,,0,,,90,0
18456,note_on,0,0,2,,,,,,,,,0,,,98,0
18456,note_on,96,0,2,,,,,,,,,0,,,86,0
18468,note_on,48,0,4,,,,,,,,,0,,,60,0
18468,note_on,0,0,4,,,,,,,,,0,,,62,0
18477,set_tempo,53,1,0,,,,,,456621,,,,,,,
18480,note_on,24,0,2,,,,,,,,,0,,,84,80
18480,note_on,12,0,4,,,,,,,,,0,,,32,80
18480,note_on,0,0,2,,,,,,,,,0,,,98,80
18480,note_on,0,0,2,,,,,,,,,0,,,96,80
18480,note_on,0,0,2,,,,,,,,,0,,,90,80
18480,note_on,0,0,2,,,,,,,,,0,,,86,80
18528,set_tempo,51,1,0,,,,,,454545,,,,,,,
18528,note_on,48,0,4,,,,,,,,,0,,,32,0
18540,note_on,12,0,4,,,,,,,,,0,,,44,80
18576,note_on,0,0,2,,,,,,,,,0,,,86,0
18576,note_on,0,0,2,,,,,,,,,0,,,98,0
18576,note_on,0,0,2,,,,,,,,,0,,,96,0
18576,note_on,0,0,2,,,,,,,,,0,,,84,0
18576,note_on,96,0,2,,,,,,,,,0,,,90,0
18580,set_tempo,52,1,0,,,,,,452489,,,,,,,
18588,note_on,48,0,4,,,,,,,,,0,,,44,0
18600,note_on,0,0,2,,,,,,,,,0,,,90,80
18600,note_on,0,0,2,,,,,,,,,0,,,96,80
18600,note_on,12,0,4,,,,,,,,,0,,,44,80
18600,note_on,0,0,2,,,,,,,,,0,,,84,80
18600,note_on,24,0,2,,,,,,,,,0,,,98,80
18600,note_on,0,0,2,,,,,,,,,0,,,86,80
18631,set_tempo,51,1,0,,,,,,454545,,,,,,,
18642,set_tempo,11,1,0,,,,,,502513,,,,,,,
18648,note_on,48,0,4,,,,,,,,,0,,,44,0
18660,note_on,12,0,4,,,,,,,,,0,,,60,80
18660,note_on,0,0,4,,,,,,,,,0,,,62,80
18696,note_on,0,0,2,,,,,,,,,0,,,90,0
18696,note_on,96,0,2,,,,,,,,,0,,,96,0
18696,note_on,0,0,2,,,,,,,,,0,,,84,0
18696,note_on,0,0,2,,,,,,,,,0,,,86,0
18696,note_on,0,0,2,,,,,,,,,0,,,98,0
18708,note_on,0,0,4,,,,,,,,,0,,,60,0
18708,note_on,48,0,4,,,,,,,,,0,,,62,0
18712,set_tempo,70,1,0,,,,,,500000,,,,,,,
18720,note_on,0,0,2,,,,,,,,,0,,,98,80
18720,time_signature,8,1,0,4,4,24,8,,,,,,,,,
18720,note_on,0,0,4,,,,,,,,,0,,,44,80
18720,note_on,0,0,2,,,,,,,,,0,,,96,80
18720,note_on,0,0,2,,,,,,,,,0,,,90,80
18720,note_on,0,0,2,,,,,,,,,0,,,86,80
18720,note_on,24,0,2,,,,,,,,,0,,,84,80
18720,note_on,12,0,4,,,,,,,,,0,,,32,80
18723,set_tempo,3,1,0,,,,,,719424,,,,,,,
18816,note_on,96,0,4,,,,,,,,,0,,,44,0
18816,note_on,0,0,2,,,,,,,,,0,,,96,0
18816,note_on,0,0,2,,,,,,,,,0,,,98,0
18816,note_on,0,0,4,,,,,,,,,0,,,32,0
18816,note_on,0,0,2,,,,,,,,,0,,,84,0
18816,note_on,96,0,2,,,,,,,,,0,,,90,0
18816,note_on,0,0,2,,,,,,,,,0,,,86,0
18960,note_on,0,0,4,,,,,,,,,0,,,43,80
18960,note_on,0,0,2,,,,,,,,,0,,,95,120
18960,note_on,0,0,2,,,,,,,,,0,,,91,120
18960,note_on,0,0,2,,,,,,,,,0,,,103,127
18960,note_on,144,0,4,,,,,,,,,0,,,31,80
18960,note_on,144,0,2,,,,,,,,,0,,,89,120
19056,note_on,96,0,2,,,,,,,,,0,,,103,0
19056,note_on,0,0,2,,,,,,,,,0,,,95,0
19056,note_on,0,0,4,,,,,,,,,0,,,31,0
19056,note_on,0,0,2,,,,,,,,,0,,,91,0
19056,note_on,96,0,4,,,,,,,,,0,,,43,0
19056,note_on,0,0,2,,,,,,,,,0,,,89,0
19201,set_tempo,478,1,0,,,,,,500000,,,,,,,
19320,note_on,0,0,4,,,,,,,,,0,,,55,64
19320,note_on,264,0,4,,,,,,,,,0,,,67,64
19380,note_on,0,0,2,,,,,,,,,0,,,67,68
19380,note_on,324,0,2,,,,,,,,,0,,,79,68
19416,note_on,0,0,4,,,,,,,,,0,,,67,0
19416,note_on,96,0,4,,,,,,,,,0,,,55,0
19428,note_on,0,0,2,,,,,,,,,0,,,79,0
19428,note_on,48,0,2,,,,,,,,,0,,,67,0
19440,note_on,12,0,2,,,,,,,,,0,,,69,68
19440,note_on,0,0,4,,,,,,,,,0,,,54,64
19440,note_on,24,0,4,,,,,,,,,0,,,67,64
19488,note_on,48,0,2,,,,,,,,,0,,,69,0
19500,note_on,12,0,2,,,,,,,,,0,,,69,68
19500,note_on,0,0,2,,,,,,,,,0,,,81,68
19536,note_on,0,0,4,,,,,,,,,0,,,67,0
19536,note_on,96,0,4,,,,,,,,,0,,,54,0
19548,note_on,48,0,2,,,,,,,,,0,,,81,0
19548,note_on,0,0,2,,,,,,,,,0,,,69,0
19560,note_on,12,0,2,,,,,,,,,0,,,71,68
19560,note_on,0,0,4,,,,,,,,,0,,,53,64
19560,note_on,24,0,4,,,,,,,,,0,,,67,64
19608,note_on,48,0,2,,,,,,,,,0,,,71,0
19620,note_on,0,0,2,,,,,,,,,0,,,71,68
19620,note_on,12,0,2,,,,,,,,,0,,,83,68
19656,note_on,0,0,4,,,,,,,,,0,,,67,0
19656,note_on,96,0,4,,,,,,,,,0,,,53,0
19668,note_on,0,0,2,,,,,,,,,0,,,83,0
19668,note_on,48,0,2,,,,,,,,,0,,,71,0
19680,note_on,24,0,4,,,,,,,,,0,,,52,64
19680,note_on,11808,0,3,,,,,,,,,0,,,67,64
19680,note_on,12,0,2,,,,,,,,,0,,,72,68
19680,time_signature,479,1,0,3,4,24,8,,,,,,,,,
19728,note_on,48,0,2,,,,,,,,,0,,,72,0
19740,note_on,0,0,2,,,,,,,,,0,,,72,68
19740,note_on,12,0,2,,,,,,,,,0,,,84,68
19776,note_on,96,0,4,,,,,,,,,0,,,52,0
19788,note_on,0,0,2,,,,,,,,,0,,,84,0
19788,note_on,48,0,2,,,,,,,,,0,,,72,0
19800,note_on,12,0,2,,,,,,,,,0,,,74,68
19800,note_on,24,0,4,,,,,,,,,0,,,50,64
19848,note_on,48,0,2,,,,,,,,,0,,,74,0
19860,note_on,0,0,2,,,,,,,,,0,,,86,68
19860,note_on,12,0,2,,,,,,,,,0,,,74,68
19896,note_on,96,0,4,,,,,,,,,0,,,50,0
19908,note_on,0,0,2,,,,,,,,,0,,,74,0
19908,note_on,48,0,2,,,,,,,,,0,,,86,0
19920,note_on,24,0,4,,,,,,,,,0,,,48,64
19920,note_on,12,0,2,,,,,,,,,0,,,76,68
19968,note_on,48,0,2,,,,,,,,,0,,,76,0
19968,note_on,288,0,3,,,,,,,,,0,,,67,0
19980,note_on,12,0,2,,,,,,,,,0,,,88,68
19980,note_on,0,0,2,,,,,,,,,0,,,76,68
20016,note_on,96,0,4,,,,,,,,,0,,,48,0
20028,note_on,48,0,2,,,,,,,,,0,,,76,0
20028,note_on,0,0,2,,,,,,,,,0,,,88,0
20040,note_on,0,0,3,,,,,,,,,0,,,55,64
20040,note_on,0,0,3,,,,,,,,,0,,,60,64
20040,note_on,72,0,3,,,,,,,,,0,,,52,64
20040,note_on,12,0,2,,,,,,,,,0,,,72,68
20088,note_on,48,0,2,,,,,,,,,0,,,72,0
20100,note_on,0,0,2,,,,,,,,,0,,,84,68
20100,note_on,12,0,2,,,,,,,,,0,,,72,68
20136,note_on,0,0,3,,,,,,,,,0,,,52,0
20136,note_on,96,0,3,,,,,,,,,0,,,55,0
20136,note_on,0,0,3,,,,,,,,,0,,,60,0
20148,note_on,0,0,2,,,,,,,,,0,,,72,0
20148,note_on,48,0,2,,,,,,,,,0,,,84,0
20160,note_on,0,0,3,,,,,,,,,0,,,62,64
20160,note_on,0,0,3,,,,,,,,,0,,,50,64
20160,note_on,12,0,2,,,,,,,,,0,,,74,68
20160,note_on,24,0,3,,,,,,,,,0,,,55,64
20208,note_on,48,0,2,,,,,,,,,0,,,74,0
20220,note_on,12,0,2,,,,,,,,,0,,,86,68
20220,note_on,0,0,2,,,,,,,,,0,,,74,68
20256,note_on,0,0,3,,,,,,,,,0,,,62,0
20256,note_on,0,0,3,,,,,,,,,0,,,55,0
20256,note_on,96,0,3,,,,,,,,,0,,,50,0
20268,note_on,0,0,2,,,,,,,,,0,,,86,0
20268,note_on,48,0,2,,,,,,,,,0,,,74,0
20280,note_on,0,0,3,,,,,,,,,0,,,55,64
20280,note_on,12,0,2,,,,,,,,,0,,,76,68
20280,note_on,24,0,3,,,,,,,,,0,,,64,64
20280,note_on,0,0,3,,,,,,,,,0,,,48,64
20328,note_on,48,0,2,,,,,,,,,0,,,76,0
20340,note_on,0,0,2,,,,,,,,,0,,,88,68
20340,note_on,324,0,4,,,,,,,,,0,,,56,64
20340,note_on,12,0,2,,,,,,,,,0,,,76,68
20360,note_on,20,0,4,,,,,,,,,0,,,59,64
20376,note_on,0,0,3,,,,,,,,,0,,,48,0
20376,note_on,96,0,3,,,,,,,,,0,,,55,0
20376,note_on,0,0,3,,,,,,,,,0,,,64,0
20380,note_on,20,0,4,,,,,,,,,0,,,62,64
20388,note_on,0,0,2,,,,,,,,,0,,,76,0
20388,note_on,48,0,2,,,,,,,,,0,,,88,0
20400,note_on,0,0,4,,,,,,,,,0,,,68,64
20400,note_on,12,0,2,,,,,,,,,0,,,80,68
20400,note_on,20,0,4,,,,,,,,,0,,,65,64
20448,note_on,48,0,2,,,,,,,,,0,,,80,0
20460,note_on,12,0,2,,,,,,,,,0,,,80,68
20460,note_on,0,0,2,,,,,,,,,0,,,92,68
20496,note_on,96,0,4,,,,,,,,,0,,,68,0
20496,note_on,0,0,4,,,,,,,,,0,,,56,0
20508,note_on,0,0,2,,,,,,,,,0,,,80,0
20508,note_on,48,0,2,,,,,,,,,0,,,92,0
20520,note_on,0,0,4,,,,,,,,,0,,,67,64
20520,note_on,24,0,4,,,,,,,,,0,,,55,64
20520,note_on,12,0,2,,,,,,,,,0,,,79,68
20568,note_on,48,0,2,,,,,,,,,0,,,79,0
20580,note_on,12,0,2,,,,,,,,,0,,,91,68
20580,note_on,0,0,2,,,,,,,,,0,,,79,68
20628,note_on,48,0,2,,,,,,,,,0,,,79,0
20628,note_on,0,0,2,,,,,,,,,0,,,91,0
20640,note_on,12,0,2,,,,,,,,,0,,,77,68
20688,note_on,0,0,4,,,,,,,,,0,,,55,0
20688,note_on,168,0,4,,,,,,,,,0,,,67,0
20688,note_on,48,0,2,,,,,,,,,0,,,77,0
20688,note_on,0,0,4,,,,,,,,,0,,,65,0
20688,note_on,0,0,4,,,,,,,,,0,,,59,0
20688,note_on,0,0,4,,,,,,,,,0,,,62,0
20700,note_on,12,0,2,,,,,,,,,0,,,77,68
20700,note_on,0,0,2,,,,,,,,,0,,,89,68
20748,note_on,0,0,2,,,,,,,,,0,,,77,0
20748,note_on,48,0,2,,,,,,,,,0,,,89,0
20760,note_on,12,0,2,,,,,,,,,0,,,74,68
20760,note_on,72,0,4,,,,,,,,,0,,,41,64
20760,note_on,0,0,4,,,,,,,,,0,,,44,64
20760,note_on,0,0,4,,,,,,,,,0,,,35,64
20808,note_on,48,0,2,,,,,,,,,0,,,74,0
20820,note_on,12,0,2,,,,,,,,,0,,,86,68
20820,note_on,0,0,2,,,,,,,,,0,,,74,68
20856,note_on,0,0,4,,,,,,,,,0,,,41,0
20856,note_on,0,0,4,,,,,,,,,0,,,35,0
20856,note_on,96,0,4,,,,,,,,,0,,,44,0
20868,note_on,0,0,2,,,,,,,,,0,,,86,0
20868,note_on,48,0,2,,,,,,,,,0,,,74,0
20880,note_on,0,0,4,,,,,,,,,0,,,41,64
20880,note_on,12,0,2,,,,,,,,,0,,,71,68
20880,note_on,0,0,4,,,,,,,,,0,,,44,64
20880,note_on,24,0,4,,,,,,,,,0,,,35,64
20928,note_on,48,0,2,,,,,,,,,0,,,71,0
20940,note_on,0,0,2,,,,,,,,,0,,,83,68
20940,note_on,12,0,2,,,,,,,,,0,,,71,68
20976,note_on,96,0,4,,,,,,,,,0,,,44,0
20976,note_on,0,0,4,,,,,,,,,0,,,35,0
20976,note_on,0,0,4,,,,,,,,,0,,,41,0
20988,note_on,48,0,2,,,,,,,,,0,,,83,0
20988,note_on,0,0,2,,,,,,,,,0,,,71,0
21000,note_on,24,0,4,,,,,,,,,0,,,35,64
21000,note_on,12,0,2,,,,,,,,,0,,,68,68
21000,note_on,0,0,4,,,,,,,,,0,,,41,64
21000,note_on,0,0,4,,,,,,,,,0,,,44,64
21048,note_on,48,0,2,,,,,,,,,0,,,68,0
21060,note_on,12,0,2,,,,,,,,,0,,,68,68
21060,note_on,0,0,2,,,,,,,,,0,,,80,68
21096,note_on,0,0,4,,,,,,,,,0,,,35,0
21096,note_on,96,0,4,,,,,,,,,0,,,41,0
21096,note_on,0,0,4,,,,,,,,,0,,,44,0
21108,note_on,48,0,2,,,,,,,,,0,,,80,0
21108,note_on,0,0,2,,,,,,,,,0,,,68,0
21120,note_on,744,0,3,,,,,,,,,0,,,67,64
21120,note_on,12,0,2,,,,,,,,,0,,,72,68
21120,note_on,24,0,4,,,,,,,,,0,,,52,64
21168,note_on,48,0,2,,,,,,,,,0,,,72,0
21180,note_on,0,0,2,,,,,,,,,0,,,72,68
21180,note_on,12,0,2,,,,,,,,,0,,,84,68
21216,note_on,96,0,4,,,,,,,,,0,,,52,0
21228,note_on,0,0,2,,,,,,,,,0,,,84,0
21228,note_on,48,0,2,,,,,,,,,0,,,72,0
21240,note_on,12,0,2,,,,,,,,,0,,,74,68
21240,note_on,24,0,4,,,,,,,,,0,,,50,64
21288,note_on,48,0,2,,,,,,,,,0,,,74,0
21300,note_on,0,0,2,,,,,,,,,0,,,86,68
21300,note_on,12,0,2,,,,,,,,,0,,,74,68
21336,note_on,96,0,4,,,,,,,,,0,,,50,0
21348,note_on,48,0,2,,,,,,,,,0,,,86,0
21348,note_on,0,0,2,,,,,,,,,0,,,74,0
21360,note_on,12,0,2,,,,,,,,,0,,,76,68
21360,note_on,24,0,4,,,,,,,,,0,,,48,64
21408,note_on,288,0,3,,,,,,,,,0,,,67,0
21408,note_on,48,0,2,,,,,,,,,0,,,76,0
21420,note_on,0,0,2,,,,,,,,,0,,,76,68
21420,note_on,12,0,2,,,,,,,,,0,,,88,68
21456,note_on,96,0,4,,,,,,,,,0,,,48,0
21468,note_on,0,0,2,,,,,,,,,0,,,88,0
21468,note_on,48,0,2,,,,,,,,,0,,,76,0
21480,note_on,0,0,3,,,,,,,,,0,,,60,64
21480,note_on,12,0,2,,,,,,,,,0,,,72,68
21480,note_on,0,0,3,,,,,,,,,0,,,52,64
21480,note_on,72,0,3,,,,,,,,,0,,,55,64
21528,note_on,48,0,2,,,,,,,,,0,,,72,0
21540,note_on,12,0,2,,,,,,,,,0,,,84,68
21540,note_on,0,0,2,,,,,,,,,0,,,72,68
21576,note_on,0,0,3,,,,,,,,,0,,,55,0
21576,note_on,0,0,3,,,,,,,,,0,,,60,0
21576,note_on,96,0,3,,,,,,,,,0,,,52,0
21588,note_on,48,0,2,,,,,,,,,0,,,72,0
21588,note_on,0,0,2,,,,,,,,,0,,,84,0
21600,note_on,0,0,3,,,,,,,,,0,,,62,64
21600,note_on,0,0,3,,,,,,,,,0,,,55,64
21600,note_on,24,0,3,,,,,,,,,0,,,50,64
21600,note_on,12,0,2,,,,,,,,,0,,,74,68
21648,note_on,48,0,2,,,,,,,,,0,,,74,0
21660,note_on,0,0,2,,,,,,,,,0,,,74,68
21660,note_on,12,0,2,,,,,,,,,0,,,86,68
21696,note_on,0,0,3,,,,,,,,,0,,,62,0
21696,note_on,0,0,3,,,,,,,,,0,,,50,0
21696,note_on,96,0,3,,,,,,,,,0,,,55,0
21708,note_on,48,0,2,,,,,,,,,0,,,74,0
21708,note_on,0,0,2,,,,,,,,,0,,,86,0
21720,note_on,12,0,2,,,,,,,,,0,,,76,68
21720,note_on,0,0,3,,,,,,,,,0,,,64,64
21720,note_on,0,0,3,,,,,,,,,0,,,48,64
21720,note_on,24,0,3,,,,,,,,,0,,,55,64
21768,note_on,48,0,2,,,,,,,,,0,,,76,0
21780,note_on,324,0,4,,,,,,,,,0,,,56,64
21780,note_on,0,0,2,,,,,,,,,0,,,76,68
21780,note_on,12,0,2,,,,,,,,,0,,,88,68
21800,note_on,20,0,4,,,,,,,,,0,,,59,64
21816,note_on,96,0,3,,,,,,,,,0,,,64,0
21816,note_on,0,0,3,,,,,,,,,0,,,55,0
21816,note_on,0,0,3,,,,,,,,,0,,,48,0
21820,note_on,20,0,4,,,,,,,,,0,,,62,64
21828,note_on,0,0,2,,,,,,,,,0,,,88,0
21828,note_on,48,0,2,,,,,,,,,0,,,76,0
21840,note_on,0,0,4,,,,,,,,,0,,,68,64
21840,note_on,12,0,2,,,,,,,,,0,,,80,68
21840,note_on,20,0,4,,,,,,,,,0,,,65,64
21888,note_on,48,0,2,,,,,,,,,0,,,80,0
21900,note_on,12,0,2,,,,,,,,,0,,,80,68
21900,note_on,0,0,2,,,,,,,,,0,,,92,68
21936,note_on,0,0,4,,,,,,,,,0,,,56,0
21936,note_on,96,0,4,,,,,,,,,0,,,68,0
21948,note_on,48,0,2,,,,,,,,,0,,,92,0
21948,note_on,0,0,2,,,,,,,,,0,,,80,0
21960,note_on,24,0,4,,,,,,,,,0,,,67,64
21960,note_on,12,0,2,,,,,,,,,0,,,79,68
21960,note_on,0,0,4,,,,,,,,,0,,,55,64
22008,note_on,48,0,2,,,,,,,,,0,,,79,0
22020,note_on,12,0,2,,,,,,,,,0,,,79,68
22020,note_on,0,0,2,,,,,,,,,0,,,91,68
22068,note_on,0,0,2,,,,,,,,,0,,,79,0
22068,note_on,48,0,2,,,,,,,,,0,,,91,0
22080,note_on,12,0,2,,,,,,,,,0,,,77,68
22128,note_on,0,0,4,,,,,,,,,0,,,67,0
22128,note_on,168,0,4,,,,,,,,,0,,,55,0
22128,note_on,0,0,4,,,,,,,,,0,,,65,0
22128,note_on,0,0,4,,,,,,,,,0,,,62,0
22128,note_on,48,0,2,,,,,,,,,0,,,77,0
22128,note_on,0,0,4,,,,,,,,,0,,,59,0
22140,note_on,12,0,2,,,,,,,,,0,,,89,68
22140,note_on,0,0,2,,,,,,,,,0,,,77,68
22188,note_on,0,0,2,,,,,,,,,0,,,89,0
22188,note_on,48,0,2,,,,,,,,,0,,,77,0
22200,note_on,12,0,2,,,,,,,,,0,,,74,68
22200,note_on,0,0,4,,,,,,,,,0,,,35,64
22200,note_on,72,0,4,,,,,,,,,0,,,44,64
22200,note_on,0,0,4,,,,,,,,,0,,,41,64
22248,note_on,48,0,2,,,,,,,,,0,,,74,0
22260,note_on,12,0,2,,,,,,,,,0,,,74,68
22260,note_on,0,0,2,,,,,,,,,0,,,86,68
22296,note_on,96,0,4,,,,,,,,,0,,,35,0
22296,note_on,0,0,4,,,,,,,,,0,,,41,0
22296,note_on,0,0,4,,,,,,,,,0,,,44,0
22308,note_on,0,0,2,,,,,,,,,0,,,74,0
22308,note_on,48,0,2,,,,,,,,,0,,,86,0
22320,note_on,0,0,4,,,,,,,,,0,,,41,64
22320,note_on,0,0,4,,,,,,,,,0,,,35,64
22320,note_on,12,0,2,,,,,,,,,0,,,71,68
22320,note_on,24,0,4,,,,,,,,,0,,,44,64
22368,note_on,48,0,2,,,,,,,,,0,,,71,0
22380,note_on,12,0,2,,,,,,,,,0,,,71,68
22380,note_on,0,0,2,,,,,,,,,0,,,83,68
22416,note_on,0,0,4,,,,,,,,,0,,,44,0
22416,note_on,96,0,4,,,,,,,,,0,,,41,0
22416,note_on,0,0,4,,,,,,,,,0,,,35,0
22428,note_on,48,0,2,,,,,,,,,0,,,83,0
22428,note_on,0,0,2,,,,,,,,,0,,,71,0
22440,note_on,24,0,4,,,,,,,,,0,,,41,64
22440,note_on,12,0,2,,,,,,,,,0,,,68,68
22440,note_on,0,0,4,,,,,,,,,0,,,35,64
22440,note_on,0,0,4,,,,,,,,,0,,,44,64
22488,note_on,48,0,2,,,,,,,,,0,,,68,0
22500,note_on,684,0,3,,,,,,,,,0,,,58,64
22500,note_on,12,0,2,,,,,,,,,0,,,68,68
22500,note_on,0,0,2,,,,,,,,,0,,,80,68
22520,note_on,20,0,3,,,,,,,,,0,,,61,64
22536,note_on,0,0,4,,,,,,,,,0,,,44,0
22536,note_on,96,0,4,,,,,,,,,0,,,35,0
22536,note_on,0,0,4,,,,,,,,,0,,,41,0
22540,note_on,20,0,3,,,,,,,,,0,,,64,64
22548,note_on,48,0,2,,,,,,,,,0,,,80,0
22548,note_on,0,0,2,,,,,,,,,0,,,68,0
22560,note_on,20,0,3,,,,,,,,,0,,,70,64
22560,note_on,0,0,3,,,,,,,,,0,,,67,64
22560,note_on,12,0,2,,,,,,,,,0,,,82,68
22608,note_on,48,0,2,,,,,,,,,0,,,82,0
22620,note_on,0,0,2,,,,,,,,,0,,,94,68
22620,note_on,12,0,2,,,,,,,,,0,,,82,68
22656,note_on,96,0,3,,,,,,,,,0,,,70,0
22656,note_on,0,0,3,,,,,,,,,0,,,58,0
22668,note_on,0,0,2,,,,,,,,,0,,,82,0
22668,note_on,48,0,2,,,,,,,,,0,,,94,0
22680,note_on,24,0,3,,,,,,,,,0,,,69,64
22680,note_on,0,0,3,,,,,,,,,0,,,57,64
22680,note_on,12,0,2,,,,,,,,,0,,,81,68
22728,note_on,48,0,2,,,,,,,,,0,,,81,0
22740,note_on,12,0,2,,,,,,,,,0,,,93,68
22740,note_on,0,0,2,,,,,,,,,0,,,81,68
22788,note_on,48,0,2,,,,,,,,,0,,,81,0
22788,note_on,0,0,2,,,,,,,,,0,,,93,0
22800,note_on,12,0,2,,,,,,,,,0,,,79,68
22848,note_on,0,0,3,,,,,,,,,0,,,69,0
22848,note_on,48,0,2,,,,,,,,,0,,,79,0
22848,note_on,0,0,3,,,,,,,,,0,,,61,0
22848,note_on,0,0,3,,,,,,,,,0,,,64,0
22848,note_on,0,0,3,,,,,,,,,0,,,67,0
22848,note_on,168,0,3,,,,,,,,,0,,,57,0
22860,note_on,12,0,2,,,,,,,,,0,,,91,68
22860,note_on,0,0,2,,,,,,,,,0,,,79,68
22908,note_on,0,0,2,,,,,,,,,0,,,91,0
22908,note_on,48,0,2,,,,,,,,,0,,,79,0
22920,note_on,0,0,4,,,,,,,,,0,,,43,64
22920,note_on,0,0,4,,,,,,,,,0,,,46,64
22920,note_on,12,0,2,,,,,,,,,0,,,76,68
22920,note_on,384,0,4,,,,,,,,,0,,,37,64
22968,note_on,48,0,2,,,,,,,,,0,,,76,0
22980,note_on,12,0,2,,,,,,,,,0,,,76,68
22980,note_on,0,0,2,,,,,,,,,0,,,88,68
23016,note_on,0,0,4,,,,,,,,,0,,,43,0
23016,note_on,96,0,4,,,,,,,,,0,,,46,0
23016,note_on,0,0,4,,,,,,,,,0,,,37,0
23028,note_on,48,0,2,,,,,,,,,0,,,88,0
23028,note_on,0,0,2,,,,,,,,,0,,,76,0
23040,note_on,12,0,2,,,,,,,,,0,,,73,68
23040,note_on,24,0,4,,,,,,,,,0,,,46,64
23040,note_on,0,0,4,,,,,,,,,0,,,43,64
23040,note_on,0,0,4,,,,,,,,,0,,,37,64
23088,note_on,48,0,2,,,,,,,,,0,,,73,0
23100,note_on,12,0,2,,,,,,,,,0,,,85,68
23100,note_on,0,0,2,,,,,,,,,0,,,73,68
23136,note_on,0,0,4,,,,,,,,,0,,,46,0
23136,note_on,0,0,4,,,,,,,,,0,,,37,0
23136,note_on,96,0,4,,,,,,,,,0,,,43,0
23148,note_on,48,0,2,,,,,,,,,0,,,73,0
23148,note_on,0,0,2,,,,,,,,,0,,,85,0
23160,note_on,0,0,4,,,,,,,,,0,,,43,64
23160,note_on,0,0,4,,,,,,,,,0,,,37,64
23160,note_on,24,0,4,,,,,,,,,0,,,46,64
23160,note_on,12,0,2,,,,,,,,,0,,,70,68
23208,note_on,48,0,2,,,,,,,,,0,,,70,0
23220,note_on,12,0,2,,,,,,,,,0,,,70,68
23220,note_on,372,0,3,,,,,,,,,0,,,60,64
23220,note_on,0,0,2,,,,,,,,,0,,,82,68
23240,note_on,20,0,3,,,,,,,,,0,,,63,64
23256,note_on,96,0,4,,,,,,,,,0,,,43,0
23256,note_on,0,0,4,,,,,,,,,0,,,46,0
23256,note_on,0,0,4,,,,,,,,,0,,,37,0
23260,note_on,20,0,3,,,,,,,,,0,,,66,64
23268,note_on,48,0,2,,,,,,,,,0,,,82,0
23268,note_on,0,0,2,,,,,,,,,0,,,70,0
23280,note_on,12,0,2,,,,,,,,,0,,,84,68
23280,note_on,20,0,3,,,,,,,,,0,,,72,64
23280,note_on,0,0,3,,,,,,,,,0,,,69,64
23328,note_on,48,0,2,,,,,,,,,0,,,84,0
23340,note_on,12,0,2,,,,,,,,,0,,,84,68
23340,note_on,0,0,2,,,,,,,,,0,,,96,68
23376,note_on,0,0,3,,,,,,,,,0,,,60,0
23376,note_on,96,0,3,,,,,,,,,0,,,72,0
23388,note_on,48,0,2,,,,,,,,,0,,,96,0
23388,note_on,0,0,2,,,,,,,,,0,,,84,0
23400,note_on,24,0,3,,,,,,,,,0,,,59,64
23400,note_on,0,0,3,,,,,,,,,0,,,71,64
23400,note_on,12,0,2,,,,,,,,,0,,,83,68
23448,note_on,48,0,2,,,,,,,,,0,,,83,0
23460,note_on,12,0,2,,,,,,,,,0,,,83,68
23460,note_on,0,0,2,,,,,,,,,0,,,95,68
23508,note_on,48,0,2,,,,,,,,,0,,,95,0
23508,note_on,0,0,2,,,,,,,,,0,,,83,0
23520,note_on,12,0,2,,,,,,,,,0,,,81,68
23568,note_on,0,0,3,,,,,,,,,0,,,66,0
23568,note_on,0,0,3,,,,,,,,,0,,,59,0
23568,note_on,0,0,3,,,,,,,,,0,,,63,0
23568,note_on,48,0,2,,,,,,,,,0,,,81,0
23568,note_on,0,0,3,,,,,,,,,0,,,69,0
23568,note_on,168,0,3,,,,,,,,,0,,,71,0
23580,note_on,12,0,2,,,,,,,,,0,,,81,68
23580,note_on,0,0,2,,,,,,,,,0,,,93,68
23628,note_on,48,0,2,,,,,,,,,0,,,93,0
23628,note_on,0,0,2,,,,,,,,,0,,,81,0
23640,note_on,0,0,4,,,,,,,,,0,,,48,64
23640,note_on,384,0,4,,,,,,,,,0,,,45,64
23640,note_on,0,0,4,,,,,,,,,0,,,39,64
23640,note_on,12,0,2,,,,,,,,,0,,,78,68
23688,note_on,48,0,2,,,,,,,,,0,,,78,0
23700,note_on,0,0,2,,,,,,,,,0,,,90,68
23700,note_on,12,0,2,,,,,,,,,0,,,78,68
23736,note_on,0,0,4,,,,,,,,,0,,,39,0
23736,note_on,96,0,4,,,,,,,,,0,,,48,0
23736,note_on,0,0,4,,,,,,,,,0,,,45,0
23748,note_on,0,0,2,,,,,,,,,0,,,78,0
23748,note_on,48,0,2,,,,,,,,,0,,,90,0
23760,note_on,12,0,2,,,,,,,,,0,,,75,68
23760,note_on,0,0,4,,,,,,,,,0,,,45,64
23760,note_on,0,0,4,,,,,,,,,0,,,39,64
23760,note_on,24,0,4,,,,,,,,,0,,,48,64
23808,note_on,48,0,2,,,,,,,,,0,,,75,0
23820,note_on,12,0,2,,,,,,,,,0,,,87,68
23820,note_on,0,0,2,,,,,,,,,0,,,75,68
23856,note_on,96,0,4,,,,,,,,,0,,,45,0
23856,note_on,0,0,4,,,,,,,,,0,,,48,0
23856,note_on,0,0,4,,,,,,,,,0,,,39,0
23868,note_on,0,0,2,,,,,,,,,0,,,87,0
23868,note_on,48,0,2,,,,,,,,,0,,,75,0
23880,note_on,0,0,4,,,,,,,,,0,,,48,64
23880,note_on,12,0,2,,,,,,,,,0,,,72,68
23880,note_on,24,0,4,,,,,,,,,0,,,39,64
23880,note_on,0,0,4,,,,,,,,,0,,,45,64
23928,note_on,48,0,2,,,,,,,,,0,,,72,0
23940,note_on,372,0,3,,,,,,,,,0,,,65,64
23940,note_on,0,0,2,,,,,,,,,0,,,72,68
23940,note_on,12,0,2,,,,,,,,,0,,,84,68
23960,note_on,20,0,3,,,,,,,,,0,,,68,64
23976,note_on,0,0,4,,,,,,,,,0,,,39,0
23976,note_on,0,0,4,,,,,,,,,0,,,45,0
23976,note_on,96,0,4,,,,,,,,,0,,,48,0
23980,note_on,20,0,3,,,,,,,,,0,,,71,64
23988,note_on,0,0,2,,,,,,,,,0,,,84,0
23988,note_on,48,0,2,,,,,,,,,0,,,72,0
24000,note_on,20,0,3,,,,,,,,,0,,,77,60
24000,note_on,12,0,2,,,,,,,,,0,,,89,60
24000,note_on,0,0,3,,,,,,,,,0,,,74,60
24048,note_on,48,0,2,,,,,,,,,0,,,89,0
24060,note_on,12,0,2,,,,,,,,,0,,,101,61
24060,note_on,0,0,2,,,,,,,,,0,,,89,61
24096,note_on,0,0,3,,,,,,,,,0,,,65,0
24096,note_on,96,0,3,,,,,,,,,0,,,74,0
24096,note_on,0,0,3,,,,,,,,,0,,,68,0
24096,note_on,0,0,3,,,,,,,,,0,,,71,0
24096,note_on,0,0,3,,,,,,,,,0,,,77,0
24108,note_on,48,0,2,,,,,,,,,0,,,89,0
24108,note_on,0,0,2,,,,,,,,,0,,,101,0
24120,note_on,12,0,2,,,,,,,,,0,,,88,62
24120,note_on,24,0,3,,,,,,,,,0,,,64,62
24120,note_on,0,0,3,,,,,,,,,0,,,76,62
24168,note_on,48,0,2,,,,,,,,,0,,,88,0
24180,note_on,0,0,2,,,,,,,,,0,,,100,63
24180,note_on,12,0,2,,,,,,,,,0,,,88,63
24216,note_on,0,0,3,,,,,,,,,0,,,64,0
24216,note_on,96,0,3,,,,,,,,,0,,,76,0
24228,note_on,0,0,2,,,,,,,,,0,,,88,0
24228,note_on,48,0,2,,,,,,,,,0,,,100,0
24240,note_on,12,0,2,,,,,,,,,0,,,86,63
24240,note_on,0,0,3,,,,,,,,,0,,,74,63
24240,note_on,24,0,3,,,,,,,,,0,,,62,63
24288,note_on,48,0,2,,,,,,,,,0,,,86,0
24300,note_on,12,0,2,,,,,,,,,0,,,98,64
24300,note_on,0,0,2,,,,,,,,,0,,,86,64
24330,note_on,354,0,4,,,,,,,,,0,,,59,65
24336,note_on,0,0,3,,,,,,,,,0,,,62,0
24336,note_on,96,0,3,,,,,,,,,0,,,74,0
24345,note_on,15,0,4,,,,,,,,,0,,,62,65
24348,note_on,0,0,2,,,,,,,,,0,,,98,0
24348,note_on,48,0,2,,,,,,,,,0,,,86,0
24360,note_on,0,0,4,,,,,,,,,0,,,71,65
24360,note_on,0,0,4,,,,,,,,,0,,,65,65
24360,note_on,12,0,2,,,,,,,,,0,,,83,65
24360,note_on,15,0,4,,,,,,,,,0,,,68,65
24408,note_on,48,0,2,,,,,,,,,0,,,83,0
24420,note_on,0,0,2,,,,,,,,,0,,,83,66
24420,note_on,12,0,2,,,,,,,,,0,,,95,66
24450,note_on,114,0,3,,,,,,,,,0,,,60,66
24456,note_on,96,0,4,,,,,,,,,0,,,71,0
24456,note_on,0,0,4,,,,,,,,,0,,,59,0
24456,note_on,0,0,4,,,,,,,,,0,,,62,0
24456,note_on,0,0,4,,,,,,,,,0,,,65,0
24456,note_on,0,0,4,,,,,,,,,0,,,68,0
24460,note_on,10,0,3,,,,,,,,,0,,,63,66
24468,note_on,0,0,2,,,,,,,,,0,,,95,0
24468,note_on,48,0,2,,,,,,,,,0,,,83,0
24470,note_on,10,0,3,,,,,,,,,0,,,66,67
24480,note_on,12,0,2,,,,,,,,,0,,,84,67
24480,note_on,10,0,3,,,,,,,,,0,,,69,67
24480,note_on,0,0,3,,,,,,,,,0,,,72,67
24528,note_on,48,0,2,,,,,,,,,0,,,84,0
24540,note_on,0,0,2,,,,,,,,,0,,,84,68
24540,note_on,12,0,2,,,,,,,,,0,,,96,68
24576,note_on,96,0,3,,,,,,,,,0,,,72,0
24576,note_on,0,0,3,,,,,,,,,0,,,60,0
24576,note_on,0,0,3,,,,,,,,,0,,,63,0
24576,note_on,0,0,3,,,,,,,,,0,,,66,0
24576,note_on,0,0,3,,,,,,,,,0,,,69,0
24588,note_on,0,0,2,,,,,,,,,0,,,96,0
24588,note_on,48,0,2,,,,,,,,,0,,,84,0
24600,note_on,24,0,3,,,,,,,,,0,,,69,68
24600,note_on,12,0,2,,,,,,,,,0,,,81,68
24600,note_on,0,0,3,,,,,,,,,0,,,57,68
24648,note_on,48,0,2,,,,,,,,,0,,,81,0
24660,note_on,0,0,2,,,,,,,,,0,,,93,69
24660,note_on,12,0,2,,,,,,,,,0,,,81,69
24690,note_on,234,0,4,,,,,,,,,0,,,53,70
24696,note_on,96,0,3,,,,,,,,,0,,,57,0
24696,note_on,0,0,3,,,,,,,,,0,,,69,0
24700,note_on,10,0,4,,,,,,,,,0,,,56,70
24708,note_on,0,0,2,,,,,,,,,0,,,81,0
24708,note_on,48,0,2,,,,,,,,,0,,,93,0
24710,note_on,10,0,4,,,,,,,,,0,,,59,70
24720,note_on,10,0,4,,,,,,,,,0,,,65,70
24720,note_on,0,0,4,,,,,,,,,0,,,62,70
24720,note_on,12,0,2,,,,,,,,,0,,,77,70
24768,note_on,48,0,2,,,,,,,,,0,,,77,0
24780,note_on,0,0,2,,,,,,,,,0,,,77,71
24780,note_on,12,0,2,,,,,,,,,0,,,89,71
24816,note_on,96,0,4,,,,,,,,,0,,,65,0
24816,note_on,0,0,4,,,,,,,,,0,,,53,0
24828,note_on,0,0,2,,,,,,,,,0,,,89,0
24828,note_on,48,0,2,,,,,,,,,0,,,77,0
24840,note_on,0,0,3,,,,,,,,,0,,,52,72
24840,note_on,12,0,2,,,,,,,,,0,,,76,72
24840,note_on,144,0,3,,,,,,,,,0,,,64,72
24888,note_on,48,0,2,,,,,,,,,0,,,76,0
24900,note_on,0,0,2,,,,,,,,,0,,,88,73
24900,note_on,12,0,2,,,,,,,,,0,,,76,73
24936,note_on,96,0,3,,,,,,,,,0,,,52,0
24936,note_on,120,0,4,,,,,,,,,0,,,56,0
24936,note_on,0,0,3,,,,,,,,,0,,,64,0
24936,note_on,0,0,4,,,,,,,,,0,,,62,0
24936,note_on,0,0,4,,,,,,,,,0,,,59,0
24948,note_on,0,0,2,,,,,,,,,0,,,76,0
24948,note_on,48,0,2,,,,,,,,,0,,,88,0
24960,note_on,24,0,3,,,,,,,,,0,,,62,73
24960,note_on,12,0,2,,,,,,,,,0,,,74,73
24960,note_on,0,0,3,,,,,,,,,0,,,50,73
25008,note_on,48,0,2,,,,,,,,,0,,,74,0
25020,note_on,0,0,2,,,,,,,,,0,,,74,74
25020,note_on,12,0,2,,,,,,,,,0,,,86,74
25050,note_on,114,0,4,,,,,,,,,0,,,47,75
25056,note_on,0,0,3,,,,,,,,,0,,,62,0
25056,note_on,96,0,3,,,,,,,,,0,,,50,0
25060,note_on,10,0,4,,,,,,,,,0,,,50,75
25068,note_on,48,0,2,,,,,,,,,0,,,74,0
25068,note_on,0,0,2,,,,,,,,,0,,,86,0
25070,note_on,10,0,4,,,,,,,,,0,,,53,75
25080,note_on,0,0,4,,,,,,,,,0,,,56,75
25080,note_on,10,0,4,,,,,,,,,0,,,59,75
25080,note_on,12,0,2,,,,,,,,,0,,,71,75
25128,note_on,48,0,2,,,,,,,,,0,,,71,0
25140,note_on,12,0,2,,,,,,,,,0,,,71,76
25140,note_on,0,0,2,,,,,,,,,0,,,83,76
25170,note_on,114,0,3,,,,,,,,,0,,,48,76
25176,note_on,0,0,4,,,,,,,,,0,,,53,0
25176,note_on,96,0,4,,,,,,,,,0,,,56,0
25176,note_on,0,0,4,,,,,,,,,0,,,59,0
25176,note_on,0,0,4,,,,,,,,,0,,,47,0
25176,note_on,0,0,4,,,,,,,,,0,,,50,0
25180,note_on,10,0,3,,,,,,,,,0,,,51,76
25188,note_on,48,0,2,,,,,,,,,0,,,83,0
25188,note_on,0,0,2,,,,,,,,,0,,,71,0
25190,note_on,10,0,3,,,,,,,,,0,,,54,77
25200,note_on,0,0,3,,,,,,,,,0,,,60,77
25200,note_on,12,0,2,,,,,,,,,0,,,72,77
25200,note_on,10,0,3,,,,,,,,,0,,,57,77
25248,note_on,48,0,2,,,,,,,,,0,,,72,0
25260,note_on,12,0,2,,,,,,,,,0,,,84,78
25260,note_on,0,0,2,,,,,,,,,0,,,72,78
25296,note_on,0,0,3,,,,,,,,,0,,,57,0
25296,note_on,96,0,3,,,,,,,,,0,,,60,0
25296,note_on,0,0,3,,,,,,,,,0,,,54,0
25296,note_on,0,0,3,,,,,,,,,0,,,48,0
25296,note_on,0,0,3,,,,,,,,,0,,,51,0
25308,note_on,48,0,2,,,,,,,,,0,,,72,0
25308,note_on,0,0,2,,,,,,,,,0,,,84,0
25320,note_on,12,0,2,,,,,,,,,0,,,69,78
25320,note_on,24,0,3,,,,,,,,,0,,,45,78
25320,note_on,0,0,3,,,,,,,,,0,,,57,78
25368,note_on,48,0,2,,,,,,,,,0,,,69,0
25380,note_on,12,0,2,,,,,,,,,0,,,69,79
25380,note_on,0,0,2,,,,,,,,,0,,,81,79
25416,note_on,96,0,3,,,,,,,,,0,,,57,0
25416,note_on,0,0,3,,,,,,,,,0,,,45,0
25428,note_on,0,0,2,,,,,,,,,0,,,69,0
25428,note_on,48,0,2,,,,,,,,,0,,,81,0
25437,set_tempo,5757,1,0,,,,,,500000,,,,,,,
25440,time_signature,3,1,0,9,8,12,8,,,,,,,,,
25440,note_on,0,0,4,,,,,,,,,0,,,41,80
25440,note_on,12,0,2,,,,,,,,,0,,,65,80
25440,note_on,0,0,4,,,,,,,,,0,,,44,80
25440,note_on,0,0,4,,,,,,,,,0,,,50,80
25440,note_on,0,0,4,,,,,,,,,0,,,53,80
25440,note_on,264,0,4,,,,,,,,,0,,,47,80
25452,set_tempo,12,1,0,,,,,,502513,,,,,,,
25466,set_tempo,14,1,0,,,,,,505051,,,,,,,
25481,set_tempo,15,1,0,,,,,,507614,,,,,,,
25488,note_on,48,0,2,,,,,,,,,0,,,65,0
25493,set_tempo,12,1,0,,,,,,510204,,,,,,,
25500,note_on,0,0,2,,,,,,,,,0,,,65,80
25500,note_on,12,0,2,,,,,,,,,0,,,77,80
25507,set_tempo,14,1,0,,,,,,512821,,,,,,,
25521,set_tempo,14,1,0,,,,,,515464,,,,,,,
25536,note_on,0,0,4,,,,,,,,,0,,,53,0
25536,note_on,96,0,4,,,,,,,,,0,,,41,0
25536,set_tempo,15,1,0,,,,,,518135,,,,,,,
25548,note_on,0,0,2,,,,,,,,,0,,,77,0
25548,note_on,48,0,2,,,,,,,,,0,,,65,0
25548,set_tempo,12,1,0,,,,,,520833,,,,,,,
25560,note_on,12,0,2,,,,,,,,,0,,,64,81
25560,note_on,0,0,4,,,,,,,,,0,,,40,81
25560,note_on,24,0,4,,,,,,,,,0,,,52,81
25562,set_tempo,14,1,0,,,,,,523560,,,,,,,
25577,set_tempo,15,1,0,,,,,,526316,,,,,,,
25591,set_tempo,14,1,0,,,,,,529101,,,,,,,
25603,set_tempo,12,1,0,,,,,,531915,,,,,,,
25608,note_on,48,0,2,,,,,,,,,0,,,64,0
25617,set_tempo,14,1,0,,,,,,534759,,,,,,,
25620,note_on,12,0,2,,,,,,,,,0,,,76,81
25620,note_on,0,0,2,,,,,,,,,0,,,64,81
25632,set_tempo,15,1,0,,,,,,537634,,,,,,,
25646,set_tempo,14,1,0,,,,,,540541,,,,,,,
25656,note_on,96,0,4,,,,,,,,,0,,,40,0
25656,note_on,0,0,4,,,,,,,,,0,,,52,0
25656,note_on,0,0,4,,,,,,,,,0,,,47,0
25656,note_on,0,0,4,,,,,,,,,0,,,50,0
25656,note_on,0,0,4,,,,,,,,,0,,,44,0
25658,set_tempo,12,1,0,,,,,,543478,,,,,,,
25668,note_on,48,0,2,,,,,,,,,0,,,64,0
25668,note_on,0,0,2,,,,,,,,,0,,,76,0
25673,set_tempo,15,1,0,,,,,,546448,,,,,,,
25680,note_on,0,0,4,,,,,,,,,0,,,39,81
25680,note_on,12,0,2,,,,,,,,,0,,,63,81
25680,note_on,24,0,4,,,,,,,,,0,,,51,81
25687,set_tempo,14,1,0,,,,,,549451,,,,,,,
25699,set_tempo,12,1,0,,,,,,552486,,,,,,,
25713,set_tempo,14,1,0,,,,,,555556,,,,,,,
25728,set_tempo,15,1,0,,,,,,558659,,,,,,,
25728,note_on,48,0,2,,,,,,,,,0,,,63,0
25740,note_on,12,0,2,,,,,,,,,0,,,63,81
25740,note_on,0,0,2,,,,,,,,,0,,,75,81
25742,set_tempo,14,1,0,,,,,,561798,,,,,,,
25754,set_tempo,12,1,0,,,,,,564972,,,,,,,
25769,set_tempo,15,1,0,,,,,,568182,,,,,,,
25776,note_on,0,0,4,,,,,,,,,0,,,51,0
25776,note_on,96,0,4,,,,,,,,,0,,,39,0
25783,set_tempo,14,1,0,,,,,,571429,,,,,,,
25788,note_on,48,0,2,,,,,,,,,0,,,75,0
25788,note_on,0,0,2,,,,,,,,,0,,,63,0
25797,set_tempo,14,1,0,,,,,,574713,,,,,,,
25800,note_on,24,0,4,,,,,,,,,0,,,50,82
25800,note_on,384,0,3,,,,,,,,,0,,,47,82
25800,note_on,0,0,4,,,,,,,,,0,,,38,82
25800,note_on,12,0,2,,,,,,,,,0,,,62,82
25800,note_on,0,0,3,,,,,,,,,0,,,44,82
25800,note_on,0,0,3,,,,,,,,,0,,,41,82
25809,set_tempo,12,1,0,,,,,,578035,,,,,,,
25824,set_tempo,15,1,0,,,,,,581395,,,,,,,
25838,set_tempo,14,1,0,,,,,,584795,,,,,,,
25848,note_on,48,0,2,,,,,,,,,0,,,62,0
25853,set_tempo,15,1,0,,,,,,588235,,,,,,,
25860,note_on,0,0,2,,,,,,,,,0,,,62,82
25860,note_on,12,0,2,,,,,,,,,0,,,74,82
25865,set_tempo,12,1,0,,,,,,591716,,,,,,,
25879,set_tempo,14,1,0,,,,,,595238,,,,,,,
25893,set_tempo,14,1,0,,,,,,598802,,,,,,,
25896,note_on,96,0,4,,,,,,,,,0,,,38,0
25896,note_on,0,0,4,,,,,,,,,0,,,50,0
25905,set_tempo,12,1,0,,,,,,602410,,,,,,,
25908,note_on,0,0,2,,,,,,,,,0,,,74,0
25908,note_on,48,0,2,,,,,,,,,0,,,62,0
25920,note_on,12,0,2,,,,,,,,,0,,,61,82
25920,note_on,24,0,4,,,,,,,,,0,,,37,82
25920,note_on,0,0,4,,,,,,,,,0,,,49,82
25920,set_tempo,15,1,0,,,,,,606061,,,,,,,
25934,set_tempo,14,1,0,,,,,,609756,,,,,,,
25949,set_tempo,15,1,0,,,,,,613497,,,,,,,
25961,set_tempo,12,1,0,,,,,,617284,,,,,,,
25968,note_on,48,0,2,,,,,,,,,0,,,61,0
25975,set_tempo,14,1,0,,,,,,621118,,,,,,,
25980,note_on,0,0,2,,,,,,,,,0,,,73,83
25980,note_on,12,0,2,,,,,,,,,0,,,61,83
25989,set_tempo,14,1,0,,,,,,625000,,,,,,,
25992,note_on,0,0,3,,,,,,,,,0,,,44,0
25992,note_on,0,0,3,,,,,,,,,0,,,47,0
25992,note_on,192,0,3,,,,,,,,,0,,,41,0
26004,set_tempo,15,1,0,,,,,,628931,,,,,,,
26016,note_on,96,0,4,,,,,,,,,0,,,49,0
26016,set_tempo,12,1,0,,,,,,632911,,,,,,,
26016,note_on,0,0,4,,,,,,,,,0,,,37,0
26028,note_on,0,0,2,,,,,,,,,0,,,61,0
26028,note_on,48,0,2,,,,,,,,,0,,,73,0
26030,set_tempo,14,1,0,,,,,,636943,,,,,,,
26040,note_on,12,0,2,,,,,,,,,0,,,60,83
26040,note_on,48,0,3,,,,,,,,,0,,,45,83
26040,note_on,0,0,3,,,,,,,,,0,,,39,83
26040,note_on,0,0,3,,,,,,,,,0,,,42,83
26040,note_on,24,0,4,,,,,,,,,0,,,48,83
26040,note_on,0,0,4,,,,,,,,,0,,,36,83
26045,set_tempo,15,1,0,,,,,,641026,,,,,,,
26059,set_tempo,14,1,0,,,,,,645161,,,,,,,
26071,set_tempo,12,1,0,,,,,,649351,,,,,,,
26085,set_tempo,14,1,0,,,,,,653595,,,,,,,
26088,note_on,48,0,2,,,,,,,,,0,,,60,0
26100,set_tempo,15,1,0,,,,,,657895,,,,,,,
26100,note_on,0,0,2,,,,,,,,,0,,,72,83
26100,note_on,12,0,2,,,,,,,,,0,,,60,83
26112,set_tempo,12,1,0,,,,,,662252,,,,,,,
26126,set_tempo,14,1,0,,,,,,666667,,,,,,,
26136,note_on,0,0,4,,,,,,,,,0,,,48,0
26136,note_on,96,0,4,,,,,,,,,0,,,36,0
26141,set_tempo,15,1,0,,,,,,671141,,,,,,,
26148,note_on,0,0,2,,,,,,,,,0,,,60,0
26148,note_on,48,0,2,,,,,,,,,0,,,72,0
26155,set_tempo,14,1,0,,,,,,675676,,,,,,,
26160,note_on,24,0,4,,,,,,,,,0,,,47,83
26160,note_on,0,0,4,,,,,,,,,0,,,35,83
26160,note_on,12,0,2,,,,,,,,,0,,,59,83
26167,set_tempo,12,1,0,,,,,,680272,,,,,,,
26181,set_tempo,14,1,0,,,,,,684932,,,,,,,
26196,set_tempo,15,1,0,,,,,,689655,,,,,,,
26208,note_on,48,0,2,,,,,,,,,0,,,59,0
26210,set_tempo,14,1,0,,,,,,694444,,,,,,,
26220,note_on,12,0,2,,,,,,,,,0,,,59,84
26220,note_on,0,0,2,,,,,,,,,0,,,71,84
26222,set_tempo,12,1,0,,,,,,699301,,,,,,,
26232,note_on,0,0,3,,,,,,,,,0,,,45,0
26232,note_on,192,0,3,,,,,,,,,0,,,39,0
26232,note_on,0,0,3,,,,,,,,,0,,,42,0
26237,set_tempo,15,1,0,,,,,,704225,,,,,,,
26251,set_tempo,14,1,0,,,,,,709220,,,,,,,
26256,note_on,0,0,4,,,,,,,,,0,,,47,0
26256,note_on,96,0,4,,,,,,,,,0,,,35,0
26265,set_tempo,14,1,0,,,,,,714286,,,,,,,
26268,note_on,48,0,2,,,,,,,,,0,,,71,0
26268,note_on,0,0,2,,,,,,,,,0,,,59,0
26277,set_tempo,12,1,0,,,,,,719424,,,,,,,
26280,note_on,12,0,2,,,,,,,,,0,,,58,84
26280,note_on,0,0,4,,,,,,,,,0,,,46,84
26280,note_on,48,0,3,,,,,,,,,0,,,36,84
26280,note_on,0,0,3,,,,,,,,,0,,,42,84
26280,note_on,0,0,3,,,,,,,,,0,,,39,84
26280,note_on,24,0,4,,,,,,,,,0,,,34,84
26292,set_tempo,15,1,0,,,,,,724638,,,,,,,
26306,set_tempo,14,1,0,,,,,,729927,,,,,,,
26318,set_tempo,12,1,0,,,,,,735294,,,,,,,
26328,note_on,48,0,2,,,,,,,,,0,,,58,0
26333,set_tempo,15,1,0,,,,,,740741,,,,,,,
26340,note_on,0,0,2,,,,,,,,,0,,,70,84
26340,note_on,12,0,2,,,,,,,,,0,,,58,84
26347,set_tempo,14,1,0,,,,,,746269,,,,,,,
26361,set_tempo,14,1,0,,,,,,751880,,,,,,,
26373,set_tempo,12,1,0,,,,,,757576,,,,,,,
26376,note_on,0,0,3,,,,,,,,,0,,,39,0
26376,note_on,96,0,4,,,,,,,,,0,,,46,0
26376,note_on,96,0,3,,,,,,,,,0,,,42,0
26376,note_on,0,0,3,,,,,,,,,0,,,36,0
26376,note_on,0,0,4,,,,,,,,,0,,,34,0
26388,set_tempo,15,1,0,,,,,,763359,,,,,,,
26388,note_on,48,0,2,,,,,,,,,0,,,70,0
26388,note_on,0,0,2,,,,,,,,,0,,,58,0
26400,note_on,12,0,2,,,,,,,,,0,,,57,84
26400,note_on,24,0,4,,,,,,,,,0,,,33,84
26400,note_on,0,0,4,,,,,,,,,0,,,45,84
26402,set_tempo,14,1,0,,,,,,769231,,,,,,,
26417,set_tempo,15,1,0,,,,,,775194,,,,,,,
26429,set_tempo,12,1,0,,,,,,781250,,,,,,,
26443,set_tempo,14,1,0,,,,,,787402,,,,,,,
26448,note_on,48,0,2,,,,,,,,,0,,,57,0
26457,set_tempo,14,1,0,,,,,,793651,,,,,,,
26460,note_on,12,0,2,,,,,,,,,0,,,57,85
26460,note_on,0,0,2,,,,,,,,,0,,,69,85
26472,set_tempo,15,1,0,,,,,,800000,,,,,,,
26484,set_tempo,12,1,0,,,,,,806452,,,,,,,
26496,note_on,0,0,4,,,,,,,,,0,,,33,0
26496,note_on,96,0,4,,,,,,,,,0,,,45,0
26498,set_tempo,14,1,0,,,,,,813008,,,,,,,
26508,note_on,0,0,2,,,,,,,,,0,,,57,0
26508,note_on,48,0,2,,,,,,,,,0,,,69,0
26510,set_tempo,12,1,0,,,,,,826446,,,,,,,
26520,note_on,0,0,4,,,,,,,,,0,,,47,80
26520,note_on,0,0,1,,,,,,,,,0,,,64,80
26520,note_on,0,0,4,,,,,,,,,0,,,40,80
26520,control_change,9252,0,1,,,,,,,,,0,64,127,,
26520,note_on,24,0,4,,,,,,,,,0,,,52,80
26520,note_on,0,0,4,,,,,,,,,0,,,44,80
26520,time_signature,10,1,0,3,4,24,8,,,,,,,,,
26552,note_on,32,0,1,,,,,,,,,0,,,64,0
26560,note_on,8,0,1,,,,,,,,,0,,,68,80
26560,note_on,0,0,1,,,,,,,,,0,,,76,80
26560,note_on,0,0,1,,,,,,,,,0,,,71,80
26592,note_on,32,0,1,,,,,,,,,0,,,76,0
26592,note_on,0,0,1,,,,,,,,,0,,,68,0
26592,note_on,0,0,1,,,,,,,,,0,,,71,0
26600,note_on,8,0,1,,,,,,,,,0,,,76,80
26616,note_on,0,0,4,,,,,,,,,0,,,44,0
26616,note_on,0,0,4,,,,,,,,,0,,,47,0
26616,note_on,96,0,4,,,,,,,,,0,,,40,0
26616,note_on,0,0,4,,,,,,,,,0,,,52,0
26632,note_on,32,0,1,,,,,,,,,0,,,76,0
26640,note_on,0,0,4,,,,,,,,,0,,,44,80
26640,note_on,0,0,1,,,,,,,,,0,,,83,80
26640,note_on,24,0,4,,,,,,,,,0,,,56,80
26640,note_on,0,0,1,,,,,,,,,0,,,80,80
26640,note_on,8,0,1,,,,,,,,,0,,,88,80
26672,note_on,32,0,1,,,,,,,,,0,,,83,0
26672,note_on,0,0,1,,,,,,,,,0,,,88,0
26672,note_on,0,0,1,,,,,,,,,0,,,80,0
26680,note_on,8,0,1,,,,,,,,,0,,,76,80
26688,note_on,48,0,4,,,,,,,,,0,,,44,0
26688,note_on,0,0,4,,,,,,,,,0,,,56,0
26700,note_on,12,0,4,,,,,,,,,0,,,57,80
26700,note_on,0,0,4,,,,,,,,,0,,,45,80
26712,note_on,32,0,1,,,,,,,,,0,,,76,0
26720,note_on,0,0,1,,,,,,,,,0,,,71,80
26720,note_on,0,0,1,,,,,,,,,0,,,68,80
26720,note_on,8,0,1,,,,,,,,,0,,,76,80
26748,note_on,0,0,4,,,,,,,,,0,,,57,0
26748,note_on,48,0,4,,,,,,,,,0,,,45,0
26752,note_on,32,0,1,,,,,,,,,0,,,68,0
26752,note_on,0,0,1,,,,,,,,,0,,,76,0
26752,note_on,0,0,1,,,,,,,,,0,,,71,0
26758,set_tempo,238,1,0,,,,,,833333,,,,,,,
26760,note_on,0,0,4,,,,,,,,,0,,,59,80
26760,note_on,12,0,4,,,,,,,,,0,,,47,80
26760,note_on,8,0,1,,,,,,,,,0,,,64,80
26762,set_tempo,4,1,0,,,,,,558659,,,,,,,
26856,note_on,96,0,4,,,,,,,,,0,,,59,0
26856,note_on,96,0,1,,,,,,,,,0,,,64,0
26856,note_on,0,0,4,,,,,,,,,0,,,47,0
26880,note_on,0,0,1,,,,,,,,,0,,,64,80
26880,note_on,24,0,4,,,,,,,,,0,,,52,80
26880,note_on,24,0,1,,,,,,,,,0,,,76,80
26886,control_change,6,0,1,,,,,,,,,0,64,0,,
26976,note_on,90,0,1,,,,,,,,,0,,,64,0
26976,note_on,96,0,4,,,,,,,,,0,,,52,0
26976,note_on,0,0,1,,,,,,,,,0,,,76,0
27000,note_on,0,0,4,,,,,,,,,0,,,52,80
27000,note_on,24,0,1,,,,,,,,,0,,,64,80
27000,note_on,0,0,1,,,,,,,,,0,,,76,80
27000,note_on,492,0,2,,,,,,,,,0,,,68,80
27000,note_on,24,0,4,,,,,,,,,0,,,56,80
27048,note_on,48,0,4,,,,,,,,,0,,,56,0
27048,note_on,48,0,2,,,,,,,,,0,,,68,0
27060,note_on,12,0,2,,,,,,,,,0,,,69,80
27060,note_on,12,0,4,,,,,,,,,0,,,57,80
27096,note_on,96,0,1,,,,,,,,,0,,,76,0
27096,note_on,0,0,1,,,,,,,,,0,,,64,0
27108,note_on,48,0,2,,,,,,,,,0,,,69,0
27108,note_on,0,0,4,,,,,,,,,0,,,52,0
27108,note_on,48,0,4,,,,,,,,,0,,,57,0
27120,note_on,0,0,1,,,,,,,,,0,,,76,80
27120,note_on,0,0,1,,,,,,,,,0,,,64,80
27120,note_on,0,0,1,,,,,,,,,0,,,68,80
27120,note_on,24,0,1,,,,,,,,,0,,,71,80
27120,note_on,12,0,4,,,,,,,,,0,,,56,80
27120,note_on,0,0,4,,,,,,,,,0,,,52,80
27120,note_on,0,0,4,,,,,,,,,0,,,59,80
27180,note_on,804,0,3,,,,,,,,,0,,,40,80
27200,note_on,20,0,3,,,,,,,,,0,,,45,80
27216,note_on,0,0,1,,,,,,,,,0,,,68,0
27216,note_on,0,0,1,,,,,,,,,0,,,71,0
27216,note_on,0,0,1,,,,,,,,,0,,,76,0
27216,note_on,96,0,1,,,,,,,,,0,,,64,0
27216,note_on,0,0,4,,,,,,,,,0,,,56,0
27216,note_on,96,0,4,,,,,,,,,0,,,52,0
27216,note_on,0,0,4,,,,,,,,,0,,,59,0
27220,note_on,20,0,3,,,,,,,,,0,,,48,80
27238,set_tempo,476,1,0,,,,,,709220,,,,,,,
27240,note_on,0,0,3,,,,,,,,,0,,,52,80
27240,control_change,24,0,1,,,,,,,,,0,64,127,,
27240,note_on,20,0,3,,,,,,,,,0,,,53,80
27240,note_on,0,0,1,,,,,,,,,0,,,64,80
27240,note_on,0,0,1,,,,,,,,,0,,,65,80
27272,note_on,32,0,1,,,,,,,,,0,,,65,0
27272,note_on,0,0,1,,,,,,,,,0,,,64,0
27280,note_on,0,0,1,,,,,,,,,0,,,72,80
27280,note_on,8,0,1,,,,,,,,,0,,,69,80
27280,note_on,0,0,1,,,,,,,,,0,,,77,80
27312,note_on,0,0,1,,,,,,,,,0,,,77,0
27312,note_on,32,0,1,,,,,,,,,0,,,72,0
27312,note_on,0,0,1,,,,,,,,,0,,,69,0
27320,note_on,8,0,1,,,,,,,,,0,,,77,80
27336,note_on,0,0,3,,,,,,,,,0,,,40,0
27336,note_on,96,0,3,,,,,,,,,0,,,52,0
27336,note_on,0,0,3,,,,,,,,,0,,,48,0
27336,note_on,0,0,3,,,,,,,,,0,,,53,0
27336,note_on,0,0,3,,,,,,,,,0,,,45,0
27352,note_on,32,0,1,,,,,,,,,0,,,77,0
27360,note_on,0,0,1,,,,,,,,,0,,,89,80
27360,note_on,0,0,1,,,,,,,,,0,,,81,80
27360,note_on,8,0,1,,,,,,,,,0,,,84,80
27360,note_on,0,0,3,,,,,,,,,0,,,45,80
27360,note_on,24,0,3,,,,,,,,,0,,,57,80
27392,note_on,32,0,1,,,,,,,,,0,,,89,0
27392,note_on,0,0,1,,,,,,,,,0,,,84,0
27392,note_on,0,0,1,,,,,,,,,0,,,81,0
27400,note_on,8,0,1,,,,,,,,,0,,,77,80
27408,note_on,48,0,3,,,,,,,,,0,,,45,0
27408,note_on,0,0,3,,,,,,,,,0,,,57,0
27420,note_on,12,0,3,,,,,,,,,0,,,59,80
27420,note_on,0,0,3,,,,,,,,,0,,,47,80
27432,note_on,32,0,1,,,,,,,,,0,,,77,0
27440,note_on,0,0,1,,,,,,,,,0,,,69,80
27440,note_on,8,0,1,,,,,,,,,0,,,77,80
27440,note_on,0,0,1,,,,,,,,,0,,,72,80
27468,note_on,48,0,3,,,,,,,,,0,,,47,0
27468,note_on,0,0,3,,,,,,,,,0,,,59,0
27472,note_on,32,0,1,,,,,,,,,0,,,69,0
27472,note_on,0,0,1,,,,,,,,,0,,,72,0
27472,note_on,0,0,1,,,,,,,,,0,,,77,0
27476,set_tempo,238,1,0,,,,,,558659,,,,,,,
27480,note_on,8,0,1,,,,,,,,,0,,,64,80
27480,note_on,12,0,3,,,,,,,,,0,,,60,80
27480,note_on,0,0,1,,,,,,,,,0,,,65,80
27480,note_on,0,0,3,,,,,,,,,0,,,48,80
27576,note_on,0,0,3,,,,,,,,,0,,,60,0
27576,note_on,0,0,1,,,,,,,,,0,,,64,0
27576,note_on,96,0,1,,,,,,,,,0,,,65,0
27576,note_on,96,0,3,,,,,,,,,0,,,48,0
27600,note_on,0,0,3,,,,,,,,,0,,,53,80
27600,note_on,0,0,1,,,,,,,,,0,,,77,80
27600,note_on,0,0,1,,,,,,,,,0,,,64,80
27600,note_on,24,0,1,,,,,,,,,0,,,65,80
27600,note_on,24,0,3,,,,,,,,,0,,,52,80
27615,control_change,15,0,1,,,,,,,,,0,64,0,,
27696,note_on,96,0,3,,,,,,,,,0,,,53,0
27696,note_on,0,0,1,,,,,,,,,0,,,64,0
27696,note_on,0,0,1,,,,,,,,,0,,,65,0
27696,note_on,0,0,3,,,,,,,,,0,,,52,0
27696,note_on,81,0,1,,,,,,,,,0,,,77,0
27720,note_on,0,0,3,,,,,,,,,0,,,53,80
27720,note_on,612,0,2,,,,,,,,,0,,,69,80
27720,note_on,0,0,3,,,,,,,,,0,,,52,80
27720,note_on,0,0,1,,,,,,,,,0,,,65,80
27720,note_on,24,0,1,,,,,,,,,0,,,64,80
27720,note_on,24,0,3,,,,,,,,,0,,,57,80
27768,note_on,48,0,2,,,,,,,,,0,,,69,0
27768,note_on,48,0,3,,,,,,,,,0,,,57,0
27780,note_on,12,0,3,,,,,,,,,0,,,59,80
27780,note_on,12,0,2,,,,,,,,,0,,,71,80
27816,note_on,0,0,1,,,,,,,,,0,,,64,0
27816,note_on,96,0,1,,,,,,,,,0,,,65,0
27828,note_on,48,0,2,,,,,,,,,0,,,71,0
27828,note_on,48,0,3,,,,,,,,,0,,,59,0
27828,note_on,0,0,3,,,,,,,,,0,,,53,0
27828,note_on,0,0,3,,,,,,,,,0,,,52,0
27840,note_on,12,0,3,,,,,,,,,0,,,60,80
27840,note_on,0,0,3,,,,,,,,,0,,,52,80
27840,note_on,0,0,1,,,,,,,,,0,,,77,80
27840,note_on,0,0,1,,,,,,,,,0,,,65,80
27840,note_on,0,0,3,,,,,,,,,0,,,53,80
27840,note_on,0,0,3,,,,,,,,,0,,,57,80
27840,note_on,24,0,1,,,,,,,,,0,,,64,80
27900,note_on,684,0,4,,,,,,,,,0,,,40,80
27920,note_on,20,0,4,,,,,,,,,0,,,46,80
27936,note_on,0,0,3,,,,,,,,,0,,,57,0
27936,note_on,0,0,1,,,,,,,,,0,,,77,0
27936,note_on,0,0,3,,,,,,,,,0,,,53,0
27936,note_on,0,0,3,,,,,,,,,0,,,60,0
27936,note_on,96,0,1,,,,,,,,,0,,,65,0
27936,note_on,0,0,1,,,,,,,,,0,,,64,0
27936,note_on,96,0,3,,,,,,,,,0,,,52,0
27940,note_on,20,0,4,,,,,,,,,0,,,50,80
27956,set_tempo,480,1,0,,,,,,714286,,,,,,,
27960,note_on,0,0,4,,,,,,,,,0,,,52,80
27960,control_change,24,0,1,,,,,,,,,0,64,127,,
27960,note_on,0,0,1,,,,,,,,,0,,,70,80
27960,note_on,20,0,4,,,,,,,,,0,,,53,80
27992,note_on,32,0,1,,,,,,,,,0,,,70,0
28000,note_on,8,0,1,,,,,,,,,0,,,82,80
28000,note_on,0,0,1,,,,,,,,,0,,,74,80
28000,note_on,0,0,1,,,,,,,,,0,,,77,80
28032,note_on,32,0,1,,,,,,,,,0,,,77,0
28032,note_on,0,0,1,,,,,,,,,0,,,82,0
28032,note_on,0,0,1,,,,,,,,,0,,,74,0
28040,note_on,8,0,1,,,,,,,,,0,,,82,80
28056,note_on,0,0,4,,,,,,,,,0,,,40,0
28056,note_on,0,0,4,,,,,,,,,0,,,46,0
28056,note_on,0,0,4,,,,,,,,,0,,,53,0
28056,note_on,0,0,4,,,,,,,,,0,,,50,0
28056,note_on,96,0,4,,,,,,,,,0,,,52,0
28072,note_on,32,0,1,,,,,,,,,0,,,82,0
28080,note_on,24,0,4,,,,,,,,,0,,,46,80
28080,note_on,8,0,1,,,,,,,,,0,,,89,80
28080,note_on,0,0,1,,,,,,,,,0,,,86,80
28080,note_on,0,0,1,,,,,,,,,0,,,94,80
28080,note_on,0,0,4,,,,,,,,,0,,,58,80
28112,note_on,32,0,1,,,,,,,,,0,,,94,0
28112,note_on,0,0,1,,,,,,,,,0,,,89,0
28112,note_on,0,0,1,,,,,,,,,0,,,86,0
28120,note_on,8,0,1,,,,,,,,,0,,,82,80
28128,note_on,0,0,4,,,,,,,,,0,,,46,0
28128,note_on,48,0,4,,,,,,,,,0,,,58,0
28140,note_on,0,0,4,,,,,,,,,0,,,48,80
28140,note_on,12,0,4,,,,,,,,,0,,,60,80
28152,note_on,32,0,1,,,,,,,,,0,,,82,0
28160,note_on,8,0,1,,,,,,,,,0,,,77,80
28160,note_on,0,0,1,,,,,,,,,0,,,82,80
28160,note_on,0,0,1,,,,,,,,,0,,,74,80
28188,note_on,0,0,4,,,,,,,,,0,,,60,0
28188,note_on,48,0,4,,,,,,,,,0,,,48,0
28192,note_on,32,0,1,,,,,,,,,0,,,74,0
28192,note_on,0,0,1,,,,,,,,,0,,,82,0
28192,note_on,0,0,1,,,,,,,,,0,,,77,0
28196,set_tempo,240,1,0,,,,,,555556,,,,,,,
28200,note_on,12,0,4,,,,,,,,,0,,,50,80
28200,note_on,8,0,1,,,,,,,,,0,,,70,80
28200,note_on,0,0,4,,,,,,,,,0,,,62,80
28296,note_on,96,0,4,,,,,,,,,0,,,62,0
28296,note_on,96,0,1,,,,,,,,,0,,,70,0
28296,note_on,0,0,4,,,,,,,,,0,,,50,0
28320,note_on,0,0,1,,,,,,,,,0,,,70,80
28320,note_on,24,0,1,,,,,,,,,0,,,82,80
28320,note_on,24,0,4,,,,,,,,,0,,,58,80
28326,control_change,6,0,1,,,,,,,,,0,64,0,,
28416,note_on,96,0,4,,,,,,,,,0,,,58,0
28416,note_on,0,0,1,,,,,,,,,0,,,82,0
28416,note_on,90,0,1,,,,,,,,,0,,,70,0
28440,note_on,612,0,2,,,,,,,,,0,,,74,80
28440,note_on,24,0,1,,,,,,,,,0,,,70,80
28440,note_on,0,0,1,,,,,,,,,0,,,82,80
28440,note_on,24,0,4,,,,,,,,,0,,,58,80
28440,note_on,0,0,4,,,,,,,,,0,,,62,80
28488,note_on,48,0,2,,,,,,,,,0,,,74,0
28488,note_on,48,0,4,,,,,,,,,0,,,62,0
28500,note_on,12,0,2,,,,,,,,,0,,,76,80
28500,note_on,12,0,4,,,,,,,,,0,,,64,80
28536,note_on,0,0,1,,,,,,,,,0,,,70,0
28536,note_on,96,0,1,,,,,,,,,0,,,82,0
28548,note_on,0,0,4,,,,,,,,,0,,,58,0
28548,note_on,48,0,2,,,,,,,,,0,,,76,0
28548,note_on,48,0,4,,,,,,,,,0,,,64,0
28560,note_on,0,0,1,,,,,,,,,0,,,74,80
28560,note_on,0,0,1,,,,,,,,,0,,,77,80
28560,note_on,0,0,4,,,,,,,,,0,,,62,80
28560,note_on,24,0,1,,,,,,,,,0,,,70,80
28560,note_on,0,0,4,,,,,,,,,0,,,65,80
28560,note_on,0,0,1,,,,,,,,,0,,,82,80
28560,note_on,12,0,4,,,,,,,,,0,,,58,80
28620,note_on,684,0,3,,,,,,,,,0,,,40,80
28640,note_on,20,0,3,,,,,,,,,0,,,44,80
28656,note_on,0,0,4,,,,,,,,,0,,,65,0
28656,note_on,96,0,4,,,,,,,,,0,,,62,0
28656,note_on,0,0,1,,,,,,,,,0,,,82,0
28656,note_on,96,0,1,,,,,,,,,0,,,77,0
28656,note_on,0,0,1,,,,,,,,,0,,,70,0
28656,note_on,0,0,1,,,,,,,,,0,,,74,0
28656,note_on,0,0,4,,,,,,,,,0,,,58,0
28660,note_on,20,0,3,,,,,,,,,0,,,47,80
28678,set_tempo,482,1,0,,,,,,714286,,,,,,,
28680,note_on,0,0,3,,,,,,,,,0,,,53,80
28680,control_change,24,0,1,,,,,,,,,0,64,127,,
28680,note_on,0,0,3,,,,,,,,,0,,,50,80
28680,note_on,20,0,3,,,,,,,,,0,,,52,80
28680,note_on,0,0,1,,,,,,,,,0,,,71,80
28712,note_on,32,0,1,,,,,,,,,0,,,71,0
28720,note_on,8,0,1,,,,,,,,,0,,,80,80
28720,note_on,0,0,1,,,,,,,,,0,,,83,80
28720,note_on,0,0,1,,,,,,,,,0,,,77,80
28720,note_on,0,0,1,,,,,,,,,0,,,74,80
28752,note_on,32,0,1,,,,,,,,,0,,,77,0
28752,note_on,0,0,1,,,,,,,,,0,,,83,0
28752,note_on,0,0,1,,,,,,,,,0,,,80,0
28752,note_on,0,0,1,,,,,,,,,0,,,74,0
28760,note_on,8,0,1,,,,,,,,,0,,,83,80
28776,note_on,0,0,3,,,,,,,,,0,,,40,0
28776,note_on,0,0,3,,,,,,,,,0,,,47,0
28776,note_on,0,0,3,,,,,,,,,0,,,52,0
28776,note_on,0,0,3,,,,,,,,,0,,,53,0
28776,note_on,0,0,3,,,,,,,,,0,,,44,0
28776,note_on,96,0,3,,,,,,,,,0,,,50,0
28792,note_on,32,0,1,,,,,,,,,0,,,83,0
28800,note_on,0,0,3,,,,,,,,,0,,,59,80
28800,note_on,8,0,1,,,,,,,,,0,,,92,80
28800,note_on,0,0,1,,,,,,,,,0,,,95,80
28800,note_on,0,0,1,,,,,,,,,0,,,89,80
28800,note_on,24,0,3,,,,,,,,,0,,,47,80
28800,note_on,0,0,1,,,,,,,,,0,,,86,80
28832,note_on,0,0,1,,,,,,,,,0,,,92,0
28832,note_on,0,0,1,,,,,,,,,0,,,89,0
28832,note_on,0,0,1,,,,,,,,,0,,,95,0
28832,note_on,32,0,1,,,,,,,,,0,,,86,0
28840,note_on,8,0,1,,,,,,,,,0,,,83,80
28848,note_on,48,0,3,,,,,,,,,0,,,59,0
28848,note_on,0,0,3,,,,,,,,,0,,,47,0
28860,note_on,12,0,3,,,,,,,,,0,,,60,80
28860,note_on,0,0,3,,,,,,,,,0,,,48,80
28872,note_on,32,0,1,,,,,,,,,0,,,83,0
28880,note_on,0,0,1,,,,,,,,,0,,,83,80
28880,note_on,0,0,1,,,,,,,,,0,,,80,80
28880,note_on,0,0,1,,,,,,,,,0,,,74,80
28880,note_on,8,0,1,,,,,,,,,0,,,77,80
28908,note_on,0,0,3,,,,,,,,,0,,,60,0
28908,note_on,48,0,3,,,,,,,,,0,,,48,0
28912,note_on,32,0,1,,,,,,,,,0,,,80,0
28912,note_on,0,0,1,,,,,,,,,0,,,74,0
28912,note_on,0,0,1,,,,,,,,,0,,,77,0
28912,note_on,0,0,1,,,,,,,,,0,,,83,0
28915,set_tempo,237,1,0,,,,,,552486,,,,,,,
28920,note_on,0,0,3,,,,,,,,,0,,,62,80
28920,note_on,8,0,1,,,,,,,,,0,,,71,80
28920,note_on,12,0,3,,,,,,,,,0,,,50,80
29016,note_on,96,0,1,,,,,,,,,0,,,71,0
29016,note_on,0,0,3,,,,,,,,,0,,,50,0
29016,note_on,96,0,3,,,,,,,,,0,,,62,0
29040,note_on,24,0,1,,,,,,,,,0,,,83,80
29040,note_on,0,0,1,,,,,,,,,0,,,71,80
29040,note_on,24,0,3,,,,,,,,,0,,,59,80
29043,control_change,3,0,1,,,,,,,,,0,64,0,,
29136,note_on,0,0,1,,,,,,,,,0,,,83,0
29136,note_on,93,0,1,,,,,,,,,0,,,71,0
29136,note_on,96,0,3,,,,,,,,,0,,,59,0
29160,note_on,24,0,1,,,,,,,,,0,,,71,80
29160,note_on,0,0,1,,,,,,,,,0,,,83,80
29160,note_on,612,0,2,,,,,,,,,0,,,74,80
29160,note_on,24,0,3,,,,,,,,,0,,,59,80
29160,note_on,0,0,3,,,,,,,,,0,,,62,80
29208,note_on,48,0,2,,,,,,,,,0,,,74,0
29208,note_on,48,0,3,,,,,,,,,0,,,62,0
29220,note_on,12,0,2,,,,,,,,,0,,,77,80
29220,note_on,12,0,3,,,,,,,,,0,,,65,80
29256,note_on,96,0,1,,,,,,,,,0,,,83,0
29256,note_on,0,0,1,,,,,,,,,0,,,71,0
29268,note_on,0,0,3,,,,,,,,,0,,,59,0
29268,note_on,48,0,2,,,,,,,,,0,,,77,0
29268,note_on,48,0,3,,,,,,,,,0,,,65,0
29280,note_on,24,0,1,,,,,,,,,0,,,83,80
29280,note_on,0,0,3,,,,,,,,,0,,,69,80
29280,note_on,0,0,1,,,,,,,,,0,,,71,80
29280,note_on,0,0,1,,,,,,,,,0,,,75,80
29280,note_on,0,0,1,,,,,,,,,0,,,78,80
29280,note_on,12,0,3,,,,,,,,,0,,,66,80
29280,note_on,0,0,3,,,,,,,,,0,,,59,80
29280,note_on,0,0,3,,,,,,,,,0,,,63,80
29376,note_on,0,0,3,,,,,,,,,0,,,69,0
29376,note_on,96,0,1,,,,,,,,,0,,,75,0
29376,note_on,0,0,3,,,,,,,,,0,,,66,0
29376,note_on,0,0,1,,,,,,,,,0,,,78,0
29376,note_on,0,0,3,,,,,,,,,0,,,59,0
29376,note_on,96,0,3,,,,,,,,,0,,,63,0
29376,note_on,0,0,1,,,,,,,,,0,,,83,0
29376,note_on,0,0,1,,,,,,,,,0,,,71,0
29394,control_change,18,0,1,,,,,,,,,0,64,127,,
29400,set_tempo,485,1,0,,,,,,709220,,,,,,,
29400,note_on,6,0,1,,,,,,,,,0,,,76,80
29400,note_on,24,0,3,,,,,,,,,0,,,64,80
29432,note_on,32,0,3,,,,,,,,,0,,,64,0
29432,note_on,32,0,1,,,,,,,,,0,,,76,0
29440,note_on,0,0,1,,,,,,,,,0,,,88,80
29440,note_on,0,0,1,,,,,,,,,0,,,83,80
29440,note_on,8,0,1,,,,,,,,,0,,,80,80
29440,note_on,8,0,3,,,,,,,,,0,,,52,80
29440,note_on,0,0,3,,,,,,,,,0,,,56,80
29440,note_on,0,0,3,,,,,,,,,0,,,59,80
29472,note_on,0,0,3,,,,,,,,,0,,,59,0
29472,note_on,0,0,1,,,,,,,,,0,,,83,0
29472,note_on,0,0,1,,,,,,,,,0,,,80,0
29472,note_on,32,0,1,,,,,,,,,0,,,88,0
29472,note_on,32,0,3,,,,,,,,,0,,,56,0
29472,note_on,0,0,3,,,,,,,,,0,,,52,0
29480,note_on,8,0,1,,,,,,,,,0,,,88,80
29480,note_on,8,0,3,,,,,,,,,0,,,52,80
29512,note_on,32,0,1,,,,,,,,,0,,,88,0
29512,note_on,32,0,3,,,,,,,,,0,,,52,0
29520,note_on,0,0,1,,,,,,,,,0,,,92,80
29520,note_on,0,0,3,,,,,,,,,0,,,44,80
29520,note_on,0,0,3,,,,,,,,,0,,,40,80
29520,note_on,8,0,3,,,,,,,,,0,,,47,80
29520,note_on,0,0,1,,,,,,,,,0,,,95,80
29520,note_on,8,0,1,,,,,,,,,0,,,100,80
29552,note_on,32,0,1,,,,,,,,,0,,,95,0
29552,note_on,32,0,3,,,,,,,,,0,,,44,0
29552,note_on,0,0,3,,,,,,,,,0,,,47,0
29552,note_on,0,0,3,,,,,,,,,0,,,40,0
29552,note_on,0,0,1,,,,,,,,,0,,,100,0
29552,note_on,0,0,1,,,,,,,,,0,,,92,0
29560,note_on,8,0,1,,,,,,,,,0,,,88,80
29560,note_on,8,0,3,,,,,,,,,0,,,52,80
29592,note_on,32,0,3,,,,,,,,,0,,,52,0
29592,note_on,32,0,1,,,,,,,,,0,,,88,0
29600,note_on,8,0,3,,,,,,,,,0,,,52,80
29600,note_on,0,0,3,,,,,,,,,0,,,56,80
29600,note_on,0,0,1,,,,,,,,,0,,,83,80
29600,note_on,0,0,1,,,,,,,,,0,,,88,80
29600,note_on,8,0,1,,,,,,,,,0,,,80,80
29600,note_on,0,0,3,,,,,,,,,0,,,59,80
29632,note_on,32,0,1,,,,,,,,,0,,,83,0
29632,note_on,0,0,1,,,,,,,,,0,,,80,0
29632,note_on,0,0,1,,,,,,,,,0,,,88,0
29636,set_tempo,236,1,0,,,,,,552486,,,,,,,
29640,note_on,40,0,3,,,,,,,,,0,,,64,80
29640,note_on,8,0,1,,,,,,,,,0,,,76,80
29736,note_on,96,0,1,,,,,,,,,0,,,76,0
29736,note_on,0,0,3,,,,,,,,,0,,,52,0
29736,note_on,0,0,3,,,,,,,,,0,,,56,0
29736,note_on,0,0,3,,,,,,,,,0,,,59,0
29736,note_on,96,0,3,,,,,,,,,0,,,64,0
29760,note_on,0,0,1,,,,,,,,,0,,,88,80
29760,note_on,24,0,3,,,,,,,,,0,,,64,80
29760,note_on,24,0,1,,,,,,,,,0,,,76,80
29856,note_on,0,0,1,,,,,,,,,0,,,76,0
29856,note_on,96,0,1,,,,,,,,,0,,,88,0
29856,note_on,96,0,3,,,,,,,,,0,,,64,0
29867,control_change,11,0,1,,,,,,,,,0,64,0,,
29880,note_on,0,0,1,,,,,,,,,0,,,80,80
29880,note_on,0,0,3,,,,,,,,,0,,,52,80
29880,note_on,24,0,3,,,,,,,,,0,,,64,80
29880,note_on,0,0,1,,,,,,,,,0,,,88,80
29880,note_on,13,0,1,,,,,,,,,0,,,92,80
29880,note_on,0,0,3,,,,,,,,,0,,,59,80
29928,note_on,48,0,3,,,,,,,,,0,,,59,0
29928,note_on,48,0,1,,,,,,,,,0,,,80,0
29928,note_on,0,0,1,,,,,,,,,0,,,92,0
29940,note_on,12,0,1,,,,,,,,,0,,,93,80
29940,note_on,12,0,3,,,,,,,,,0,,,57,80
29940,note_on,0,0,1,,,,,,,,,0,,,81,80
29988,note_on,48,0,1,,,,,,,,,0,,,81,0
29988,note_on,0,0,1,,,,,,,,,0,,,88,0
29988,note_on,48,0,3,,,,,,,,,0,,,57,0
29988,note_on,0,0,1,,,,,,,,,0,,,93,0
29988,note_on,0,0,3,,,,,,,,,0,,,64,0
29988,note_on,0,0,3,,,,,,,,,0,,,52,0
30000,note_on,0,0,3,,,,,,,,,0,,,52,80
30000,note_on,0,0,1,,,,,,,,,0,,,83,80
30000,note_on,12,0,3,,,,,,,,,0,,,64,80
30000,note_on,12,0,1,,,,,,,,,0,,,95,80
30000,note_on,0,0,1,,,,,,,,,0,,,88,80
30000,note_on,0,0,3,,,,,,,,,0,,,56,80
30096,note_on,0,0,3,,,,,,,,,0,,,52,0
30096,note_on,96,0,1,,,,,,,,,0,,,88,0
30096,note_on,0,0,3,,,,,,,,,0,,,64,0
30096,note_on,96,0,3,,,,,,,,,0,,,56,0
30096,note_on,0,0,1,,,,,,,,,0,,,95,0
30096,note_on,0,0,1,,,,,,,,,0,,,83,0
30116,set_tempo,480,1,0,,,,,,757576,,,,,,,
30120,note_on,0,0,1,,,,,,,,,0,,,77,80
30120,note_on,0,0,1,,,,,,,,,0,,,76,80
30120,note_on,0,0,3,,,,,,,,,0,,,64,80
30120,control_change,24,0,1,,,,,,,,,0,64,127,,
30120,note_on,24,0,3,,,,,,,,,0,,,65,80
30152,note_on,0,0,1,,,,,,,,,0,,,77,0
30152,note_on,32,0,1,,,,,,,,,0,,,76,0
30152,note_on,0,0,3,,,,,,,,,0,,,65,0
30152,note_on,32,0,3,,,,,,,,,0,,,64,0
30160,note_on,0,0,1,,,,,,,,,0,,,84,80
30160,note_on,0,0,3,,,,,,,,,0,,,52,80
30160,note_on,0,0,3,,,,,,,,,0,,,60,80
30160,note_on,8,0,1,,,,,,,,,0,,,81,80
30160,note_on,0,0,1,,,,,,,,,0,,,89,80
30160,note_on,8,0,3,,,,,,,,,0,,,57,80
30192,note_on,0,0,3,,,,,,,,,0,,,57,0
30192,note_on,0,0,1,,,,,,,,,0,,,84,0
30192,note_on,0,0,1,,,,,,,,,0,,,81,0
30192,note_on,32,0,1,,,,,,,,,0,,,89,0
30192,note_on,0,0,3,,,,,,,,,0,,,52,0
30192,note_on,32,0,3,,,,,,,,,0,,,60,0
30200,note_on,8,0,1,,,,,,,,,0,,,88,80
30200,note_on,0,0,3,,,,,,,,,0,,,53,80
30200,note_on,8,0,3,,,,,,,,,0,,,52,80
30232,note_on,32,0,1,,,,,,,,,0,,,88,0
30232,note_on,32,0,3,,,,,,,,,0,,,53,0
30232,note_on,0,0,3,,,,,,,,,0,,,52,0
30240,note_on,8,0,1,,,,,,,,,0,,,96,80
30240,note_on,8,0,3,,,,,,,,,0,,,40,80
30240,note_on,0,0,1,,,,,,,,,0,,,93,80
30240,note_on,0,0,3,,,,,,,,,0,,,48,80
30240,note_on,0,0,1,,,,,,,,,0,,,101,80
30240,note_on,0,0,3,,,,,,,,,0,,,45,80
30272,note_on,32,0,3,,,,,,,,,0,,,45,0
30272,note_on,0,0,3,,,,,,,,,0,,,40,0
30272,note_on,0,0,1,,,,,,,,,0,,,101,0
30272,note_on,0,0,1,,,,,,,,,0,,,96,0
30272,note_on,32,0,1,,,,,,,,,0,,,93,0
30272,note_on,0,0,3,,,,,,,,,0,,,48,0
30280,note_on,8,0,1,,,,,,,,,0,,,88,80
30280,note_on,8,0,3,,,,,,,,,0,,,53,80
30280,note_on,0,0,3,,,,,,,,,0,,,52,80
30312,note_on,32,0,1,,,,,,,,,0,,,88,0
30312,note_on,32,0,3,,,,,,,,,0,,,52,0
30312,note_on,0,0,3,,,,,,,,,0,,,53,0
30320,note_on,8,0,3,,,,,,,,,0,,,57,80
30320,note_on,0,0,3,,,,,,,,,0,,,60,80
30320,note_on,0,0,3,,,,,,,,,0,,,52,80
30320,note_on,0,0,1,,,,,,,,,0,,,89,80
30320,note_on,8,0,1,,,,,,,,,0,,,81,80
30320,note_on,0,0,1,,,,,,,,,0,,,84,80
30352,note_on,0,0,1,,,,,,,,,0,,,81,0
30352,note_on,0,0,3,,,,,,,,,0,,,52,0
30352,note_on,0,0,3,,,,,,,,,0,,,57,0
30352,note_on,0,0,1,,,,,,,,,0,,,84,0
30352,note_on,32,0,3,,,,,,,,,0,,,60,0
30352,note_on,32,0,1,,,,,,,,,0,,,89,0
30356,set_tempo,240,1,0,,,,,,751880,,,,,,,
30360,note_on,0,0,1,,,,,,,,,0,,,77,80
30360,note_on,0,0,3,,,,,,,,,0,,,65,80
30360,note_on,8,0,3,,,,,,,,,0,,,64,80
30360,note_on,8,0,1,,,,,,,,,0,,,76,80
30360,set_tempo,4,1,0,,,,,,558659,,,,,,,
30456,note_on,0,0,3,,,,,,,,,0,,,64,0
30456,note_on,0,0,1,,,,,,,,,0,,,76,0
30456,note_on,96,0,3,,,,,,,,,0,,,65,0
30456,note_on,96,0,1,,,,,,,,,0,,,77,0
30480,note_on,24,0,1,,,,,,,,,0,,,88,80
30480,note_on,0,0,1,,,,,,,,,0,,,77,80
30480,note_on,0,0,1,,,,,,,,,0,,,89,80
30480,note_on,0,0,3,,,,,,,,,0,,,65,80
30480,note_on,0,0,3,,,,,,,,,0,,,52,80
30480,note_on,24,0,3,,,,,,,,,0,,,64,80
30576,note_on,0,0,3,,,,,,,,,0,,,64,0
30576,note_on,0,0,3,,,,,,,,,0,,,65,0
30576,note_on,96,0,1,,,,,,,,,0,,,77,0
30576,note_on,0,0,1,,,,,,,,,0,,,89,0
30576,note_on,0,0,1,,,,,,,,,0,,,88,0
30576,note_on,96,0,3,,,,,,,,,0,,,52,0
30600,note_on,0,0,1,,,,,,,,,0,,,81,80
30600,note_on,0,0,1,,,,,,,,,0,,,89,80
30600,note_on,0,0,1,,,,,,,,,0,,,88,80
30600,note_on,24,0,3,,,,,,,,,0,,,60,80
30600,control_change,24,0,1,,,,,,,,,0,64,0,,
30600,note_on,0,0,3,,,,,,,,,0,,,65,80
30600,note_on,0,0,3,,,,,,,,,0,,,64,80
30600,note_on,0,0,3,,,,,,,,,0,,,52,80
30600,note_on,0,0,1,,,,,,,,,0,,,93,80
30648,note_on,0,0,1,,,,,,,,,0,,,81,0
30648,note_on,48,0,3,,,,,,,,,0,,,60,0
30648,note_on,48,0,1,,,,,,,,,0,,,93,0
30660,note_on,0,0,1,,,,,,,,,0,,,83,80
30660,note_on,12,0,1,,,,,,,,,0,,,95,80
30660,note_on,12,0,3,,,,,,,,,0,,,59,80
30708,note_on,0,0,1,,,,,,,,,0,,,88,0
30708,note_on,0,0,1,,,,,,,,,0,,,95,0
30708,note_on,48,0,3,,,,,,,,,0,,,59,0
30708,note_on,48,0,1,,,,,,,,,0,,,83,0
30708,note_on,0,0,3,,,,,,,,,0,,,65,0
30708,note_on,0,0,3,,,,,,,,,0,,,64,0
30708,note_on,0,0,3,,,,,,,,,0,,,52,0
30708,note_on,0,0,1,,,,,,,,,0,,,89,0
30720,note_on,12,0,3,,,,,,,,,0,,,57,80
30720,note_on,0,0,1,,,,,,,,,0,,,89,80
30720,note_on,0,0,3,,,,,,,,,0,,,52,80
30720,note_on,0,0,3,,,,,,,,,0,,,60,80
30720,note_on,0,0,3,,,,,,,,,0,,,64,80
30720,note_on,0,0,1,,,,,,,,,0,,,88,80
30720,note_on,12,0,1,,,,,,,,,0,,,84,80
30720,note_on,0,0,3,,,,,,,,,0,,,65,80
30720,note_on,0,0,1,,,,,,,,,0,,,96,80
30816,note_on,96,0,3,,,,,,,,,0,,,60,0
30816,note_on,0,0,1,,,,,,,,,0,,,84,0
30816,note_on,96,0,1,,,,,,,,,0,,,89,0
30816,note_on,0,0,1,,,,,,,,,0,,,96,0
30816,note_on,0,0,1,,,,,,,,,0,,,88,0
30816,note_on,0,0,3,,,,,,,,,0,,,65,0
30816,note_on,0,0,3,,,,,,,,,0,,,64,0
30816,note_on,0,0,3,,,,,,,,,0,,,57,0
30816,note_on,0,0,3,,,,,,,,,0,,,52,0
30831,control_change,15,0,1,,,,,,,,,0,64,127,,
30836,set_tempo,476,1,0,,,,,,746269,,,,,,,
30840,note_on,24,0,3,,,,,,,,,0,,,62,80
30840,note_on,9,0,1,,,,,,,,,0,,,77,80
30872,note_on,32,0,3,,,,,,,,,0,,,62,0
30872,note_on,32,0,1,,,,,,,,,0,,,77,0
30880,note_on,8,0,3,,,,,,,,,0,,,52,80
30880,note_on,0,0,1,,,,,,,,,0,,,89,80
30880,note_on,0,0,3,,,,,,,,,0,,,58,80
30880,note_on,0,0,1,,,,,,,,,0,,,86,80
30880,note_on,8,0,1,,,,,,,,,0,,,82,80
30880,note_on,0,0,3,,,,,,,,,0,,,53,80
30912,note_on,32,0,1,,,,,,,,,0,,,89,0
30912,note_on,0,0,3,,,,,,,,,0,,,58,0
30912,note_on,0,0,3,,,,,,,,,0,,,52,0
30912,note_on,0,0,1,,,,,,,,,0,,,86,0
30912,note_on,0,0,1,,,,,,,,,0,,,82,0
30912,note_on,32,0,3,,,,,,,,,0,,,53,0
30920,note_on,8,0,1,,,,,,,,,0,,,89,80
30920,note_on,8,0,3,,,,,,,,,0,,,50,80
30952,note_on,32,0,1,,,,,,,,,0,,,89,0
30952,note_on,32,0,3,,,,,,,,,0,,,50,0
30960,note_on,8,0,3,,,,,,,,,0,,,46,80
30960,note_on,0,0,1,,,,,,,,,0,,,101,80
30960,note_on,0,0,1,,,,,,,,,0,,,94,80
30960,note_on,0,0,3,,,,,,,,,0,,,41,80
30960,note_on,0,0,3,,,,,,,,,0,,,40,80
30960,note_on,8,0,1,,,,,,,,,0,,,98,80
30992,note_on,32,0,1,,,,,,,,,0,,,94,0
30992,note_on,0,0,1,,,,,,,,,0,,,101,0
30992,note_on,32,0,3,,,,,,,,,0,,,40,0
30992,note_on,0,0,1,,,,,,,,,0,,,98,0
30992,note_on,0,0,3,,,,,,,,,0,,,46,0
30992,note_on,0,0,3,,,,,,,,,0,,,41,0
31000,note_on,8,0,1,,,,,,,,,0,,,89,80
31000,note_on,8,0,3,,,,,,,,,0,,,50,80
31032,note_on,32,0,3,,,,,,,,,0,,,50,0
31032,note_on,32,0,1,,,,,,,,,0,,,89,0
31040,note_on,0,0,3,,,,,,,,,0,,,52,80
31040,note_on,0,0,1,,,,,,,,,0,,,89,80
31040,note_on,0,0,1,,,,,,,,,0,,,82,80
31040,note_on,8,0,3,,,,,,,,,0,,,58,80
31040,note_on,0,0,3,,,,,,,,,0,,,53,80
31040,note_on,8,0,1,,,,,,,,,0,,,86,80
31072,note_on,32,0,3,,,,,,,,,0,,,52,0
31072,note_on,0,0,3,,,,,,,,,0,,,53,0
31072,note_on,32,0,1,,,,,,,,,0,,,89,0
31072,note_on,0,0,1,,,,,,,,,0,,,86,0
31072,note_on,0,0,1,,,,,,,,,0,,,82,0
31072,note_on,0,0,3,,,,,,,,,0,,,58,0
31073,set_tempo,237,1,0,,,,,,549451,,,,,,,
31076,set_tempo,3,1,0,,,,,,552486,,,,,,,
31080,note_on,0,0,3,,,,,,,,,0,,,52,80
31080,note_on,0,0,3,,,,,,,,,0,,,53,80
31080,note_on,8,0,1,,,,,,,,,0,,,77,80
31080,note_on,8,0,3,,,,,,,,,0,,,62,80
31080,note_on,0,0,3,,,,,,,,,0,,,58,80
31176,note_on,0,0,3,,,,,,,,,0,,,58,0
31176,note_on,0,0,3,,,,,,,,,0,,,62,0
31176,note_on,96,0,1,,,,,,,,,0,,,77,0
31176,note_on,96,0,3,,,,,,,,,0,,,52,0
31176,note_on,0,0,3,,,,,,,,,0,,,53,0
31200,note_on,24,0,1,,,,,,,,,0,,,89,80
31200,note_on,24,0,3,,,,,,,,,0,,,52,80
31200,note_on,0,0,1,,,,,,,,,0,,,77,80
31200,note_on,0,0,3,,,,,,,,,0,,,65,80
31296,note_on,96,0,1,,,,,,,,,0,,,77,0
31296,note_on,0,0,1,,,,,,,,,0,,,89,0
31296,note_on,96,0,3,,,,,,,,,0,,,65,0
31296,note_on,0,0,3,,,,,,,,,0,,,52,0
31311,control_change,15,0,1,,,,,,,,,0,64,0,,
31320,note_on,0,0,3,,,,,,,,,0,,,52,80
31320,note_on,0,0,1,,,,,,,,,0,,,89,80
31320,note_on,0,0,3,,,,,,,,,0,,,62,80
31320,note_on,0,0,1,,,,,,,,,0,,,82,80
31320,note_on,24,0,3,,,,,,,,,0,,,65,80
31320,note_on,9,0,1,,,,,,,,,0,,,94,80
31368,note_on,48,0,3,,,,,,,,,0,,,62,0
31368,note_on,0,0,1,,,,,,,,,0,,,94,0
31368,note_on,48,0,1,,,,,,,,,0,,,82,0
31380,note_on,12,0,3,,,,,,,,,0,,,60,80
31380,note_on,0,0,1,,,,,,,,,0,,,84,80
31380,note_on,12,0,1,,,,,,,,,0,,,96,80
31428,note_on,0,0,1,,,,,,,,,0,,,96,0
31428,note_on,0,0,1,,,,,,,,,0,,,89,0
31428,note_on,48,0,3,,,,,,,,,0,,,60,0
31428,note_on,0,0,3,,,,,,,,,0,,,65,0
31428,note_on,48,0,1,,,,,,,,,0,,,84,0
31428,note_on,0,0,3,,,,,,,,,0,,,52,0
31440,note_on,0,0,1,,,,,,,,,0,,,86,80
31440,note_on,12,0,1,,,,,,,,,0,,,89,80
31440,note_on,0,0,3,,,,,,,,,0,,,52,80
31440,note_on,0,0,3,,,,,,,,,0,,,62,80
31440,note_on,0,0,3,,,,,,,,,0,,,65,80
31440,note_on,12,0,3,,,,,,,,,0,,,58,80
31440,note_on,0,0,1,,,,,,,,,0,,,98,80
31536,note_on,0,0,1,,,,,,,,,0,,,89,0
31536,note_on,0,0,1,,,,,,,,,0,,,86,0
31536,note_on,96,0,3,,,,,,,,,0,,,52,0
31536,note_on,0,0,3,,,,,,,,,0,,,62,0
31536,note_on,96,0,1,,,,,,,,,0,,,98,0
31536,note_on,0,0,3,,,,,,,,,0,,,58,0
31536,note_on,0,0,3,,,,,,,,,0,,,65,0
31560,note_on,0,0,1,,,,,,,,,0,,,77,80
31560,note_on,24,0,3,,,,,,,,,0,,,62,80
31560,control_change,24,0,1,,,,,,,,,0,64,127,,
31560,set_tempo,484,1,0,,,,,,787402,,,,,,,
31592,note_on,32,0,1,,,,,,,,,0,,,77,0
31592,note_on,32,0,3,,,,,,,,,0,,,62,0
31600,note_on,0,0,3,,,,,,,,,0,,,53,80
31600,note_on,0,0,3,,,,,,,,,0,,,56,80
31600,note_on,8,0,1,,,,,,,,,0,,,83,80
31600,note_on,8,0,3,,,,,,,,,0,,,52,80
31600,note_on,0,0,1,,,,,,,,,0,,,89,80
31600,note_on,0,0,1,,,,,,,,,0,,,80,80
31600,note_on,0,0,3,,,,,,,,,0,,,59,80
31632,note_on,0,0,3,,,,,,,,,0,,,52,0
31632,note_on,0,0,3,,,,,,,,,0,,,53,0
31632,note_on,32,0,1,,,,,,,,,0,,,89,0
31632,note_on,0,0,3,,,,,,,,,0,,,56,0
31632,note_on,0,0,1,,,,,,,,,0,,,83,0
31632,note_on,32,0,3,,,,,,,,,0,,,59,0
31632,note_on,0,0,1,,,,,,,,,0,,,80,0
31640,note_on,8,0,1,,,,,,,,,0,,,89,80
31640,note_on,8,0,3,,,,,,,,,0,,,50,80
31672,note_on,32,0,1,,,,,,,,,0,,,89,0
31672,note_on,32,0,3,,,,,,,,,0,,,50,0
31680,note_on,0,0,3,,,,,,,,,0,,,47,80
31680,note_on,8,0,3,,,,,,,,,0,,,40,80
31680,note_on,0,0,1,,,,,,,,,0,,,95,80
31680,note_on,0,0,1,,,,,,,,,0,,,92,80
31680,note_on,8,0,1,,,,,,,,,0,,,101,80
31680,note_on,0,0,3,,,,,,,,,0,,,44,80
31680,note_on,0,0,3,,,,,,,,,0,,,45,80
31712,note_on,0,0,1,,,,,,,,,0,,,101,0
31712,note_on,0,0,1,,,,,,,,,0,,,95,0
31712,note_on,0,0,3,,,,,,,,,0,,,45,0
31712,note_on,0,0,3,,,,,,,,,0,,,40,0
31712,note_on,32,0,3,,,,,,,,,0,,,44,0
31712,note_on,32,0,1,,,,,,,,,0,,,92,0
31712,note_on,0,0,3,,,,,,,,,0,,,47,0
31720,note_on,8,0,3,,,,,,,,,0,,,50,80
31720,note_on,8,0,1,,,,,,,,,0,,,89,80
31752,note_on,32,0,3,,,,,,,,,0,,,50,0
31752,note_on,32,0,1,,,,,,,,,0,,,89,0
31760,note_on,0,0,3,,,,,,,,,0,,,53,80
31760,note_on,8,0,1,,,,,,,,,0,,,89,80
31760,note_on,0,0,3,,,,,,,,,0,,,59,80
31760,note_on,0,0,1,,,,,,,,,0,,,83,80
31760,note_on,0,0,1,,,,,,,,,0,,,80,80
31760,note_on,8,0,3,,,,,,,,,0,,,52,80
31760,note_on,0,0,3,,,,,,,,,0,,,56,80
31791,set_tempo,231,1,0,,,,,,781250,,,,,,,
31792,note_on,0,0,1,,,,,,,,,0,,,89,0
31792,note_on,0,0,1,,,,,,,,,0,,,80,0
31792,note_on,0,0,3,,,,,,,,,0,,,52,0
31792,note_on,0,0,3,,,,,,,,,0,,,53,0
31792,note_on,32,0,1,,,,,,,,,0,,,83,0
31792,note_on,0,0,3,,,,,,,,,0,,,56,0
31792,note_on,32,0,3,,,,,,,,,0,,,59,0
31796,set_tempo,5,1,0,,,,,,555556,,,,,,,
31800,note_on,8,0,3,,,,,,,,,0,,,62,80
31800,note_on,8,0,1,,,,,,,,,0,,,77,80
31896,note_on,96,0,3,,,,,,,,,0,,,62,0
31896,note_on,96,0,1,,,,,,,,,0,,,77,0
31920,note_on,0,0,3,,,,,,,,,0,,,53,80
31920,note_on,0,0,1,,,,,,,,,0,,,95,80
31920,note_on,0,0,3,,,,,,,,,0,,,59,80
31920,note_on,0,0,3,,,,,,,,,0,,,62,80
31920,note_on,24,0,3,,,,,,,,,0,,,56,80
31920,note_on,24,0,1,,,,,,,,,0,,,89,80
31920,note_on,0,0,1,,,,,,,,,0,,,83,80
31920,note_on,0,0,1,,,,,,,,,0,,,92,80
31920,note_on,0,0,3,,,,,,,,,0,,,52,80
32016,note_on,0,0,1,,,,,,,,,0,,,92,0
32016,note_on,96,0,3,,,,,,,,,0,,,62,0
32016,note_on,0,0,3,,,,,,,,,0,,,59,0
32016,note_on,0,0,3,,,,,,,,,0,,,53,0
32016,note_on,96,0,1,,,,,,,,,0,,,95,0
32016,note_on,0,0,3,,,,,,,,,0,,,52,0
32016,note_on,0,0,1,,,,,,,,,0,,,83,0
32016,note_on,0,0,1,,,,,,,,,0,,,89,0
32016,note_on,0,0,3,,,,,,,,,0,,,56,0
32040,note_on,0,0,3,,,,,,,,,0,,,52,80
32040,note_on,0,0,3,,,,,,,,,0,,,54,80
32040,note_on,0,0,3,,,,,,,,,0,,,59,80
32040,note_on,24,0,3,,,,,,,,,0,,,57,80
32040,note_on,0,0,3,,,,,,,,,0,,,63,80
32040,note_on,0,0,1,,,,,,,,,0,,,93,80
32040,control_change,24,0,1,,,,,,,,,0,64,0,,
32040,note_on,0,0,1,,,,,,,,,0,,,95,80
32040,note_on,0,0,1,,,,,,,,,0,,,83,80
32040,note_on,0,0,1,,,,,,,,,0,,,90,80
32088,note_on,48,0,1,,,,,,,,,0,,,83,0
32088,note_on,0,0,3,,,,,,,,,0,,,57,0
32088,note_on,0,0,3,,,,,,,,,0,,,59,0
32088,note_on,0,0,3,,,,,,,,,0,,,54,0
32088,note_on,0,0,3,,,,,,,,,0,,,63,0
32088,note_on,0,0,1,,,,,,,,,0,,,95,0
32088,note_on,0,0,1,,,,,,,,,0,,,93,0
32088,note_on,0,0,1,,,,,,,,,0,,,90,0
32088,note_on,48,0,3,,,,,,,,,0,,,52,0
32100,note_on,12,0,1,,,,,,,,,0,,,97,80
32100,note_on,0,0,1,,,,,,,,,0,,,85,80
32100,note_on,12,0,3,,,,,,,,,0,,,54,80
32100,note_on,0,0,3,,,,,,,,,0,,,63,80
32100,note_on,0,0,3,,,,,,,,,0,,,52,80
32100,note_on,0,0,3,,,,,,,,,0,,,57,80
32100,note_on,0,0,3,,,,,,,,,0,,,59,80
32148,note_on,48,0,3,,,,,,,,,0,,,57,0
32148,note_on,0,0,1,,,,,,,,,0,,,97,0
32148,note_on,0,0,3,,,,,,,,,0,,,54,0
32148,note_on,48,0,1,,,,,,,,,0,,,85,0
32148,note_on,0,0,3,,,,,,,,,0,,,59,0
32148,note_on,0,0,3,,,,,,,,,0,,,63,0
32148,note_on,0,0,3,,,,,,,,,0,,,52,0
32160,note_on,0,0,3,,,,,,,,,0,,,57,80
32160,note_on,0,0,3,,,,,,,,,0,,,52,80
32160,note_on,0,0,3,,,,,,,,,0,,,63,80
32160,note_on,12,0,1,,,,,,,,,0,,,99,80
32160,note_on,0,0,1,,,,,,,,,0,,,87,80
32160,note_on,0,0,3,,,,,,,,,0,,,59,80
32160,note_on,12,0,3,,,,,,,,,0,,,54,80
32256,note_on,96,0,3,,,,,,,,,0,,,52,0
32256,note_on,0,0,3,,,,,,,,,0,,,59,0
32256,note_on,0,0,3,,,,,,,,,0,,,57,0
32256,note_on,0,0,1,,,,,,,,,0,,,99,0
32256,note_on,0,0,3,,,,,,,,,0,,,54,0
32256,note_on,0,0,3,,,,,,,,,0,,,63,0
32256,note_on,96,0,1,,,,,,,,,0,,,87,0
32280,control_change,24,0,1,,,,,,,,,0,64,127,,
32396,set_tempo,600,1,0,,,,,,558659,,,,,,,
32399,set_tempo,3,1,0,,,,,,632911,,,,,,,
32400,note_on,0,0,3,,,,,,,,,0,,,52,80
32400,note_on,0,0,1,,,,,,,,,0,,,88,80
32400,note_on,144,0,3,,,,,,,,,0,,,40,80
32400,note_on,120,0,1,,,,,,,,,0,,,100,80
32425,set_tempo,26,1,0,,,,,,628931,,,,,,,
32448,note_on,0,0,3,,,,,,,,,0,,,40,0
32448,note_on,0,0,1,,,,,,,,,0,,,100,0
32448,note_on,48,0,1,,,,,,,,,0,,,88,0
32448,note_on,48,0,3,,,,,,,,,0,,,52,0
32449,set_tempo,24,1,0,,,,,,625000,,,,,,,
32460,note_on,12,0,1,,,,,,,,,0,,,88,80
32460,note_on,12,0,3,,,,,,,,,0,,,52,80
32476,set_tempo,27,1,0,,,,,,621118,,,,,,,
32500,set_tempo,24,1,0,,,,,,617284,,,,,,,
32508,note_on,48,0,3,,,,,,,,,0,,,52,0
32508,note_on,48,0,1,,,,,,,,,0,,,88,0
32520,note_on,0,0,3,,,,,,,,,0,,,54,80
32520,note_on,12,0,1,,,,,,,,,0,,,99,80
32520,note_on,0,0,1,,,,,,,,,0,,,87,80
32520,note_on,12,0,3,,,,,,,,,0,,,42,80
32524,set_tempo,24,1,0,,,,,,613497,,,,,,,
32550,set_tempo,26,1,0,,,,,,609756,,,,,,,
32568,note_on,0,0,1,,,,,,,,,0,,,99,0
32568,note_on,48,0,3,,,,,,,,,0,,,54,0
32568,note_on,48,0,1,,,,,,,,,0,,,87,0
32568,note_on,0,0,3,,,,,,,,,0,,,42,0
32574,set_tempo,24,1,0,,,,,,606061,,,,,,,
32580,note_on,12,0,1,,,,,,,,,0,,,88,80
32580,note_on,12,0,3,,,,,,,,,0,,,52,80
32598,set_tempo,24,1,0,,,,,,602410,,,,,,,
32624,set_tempo,26,1,0,,,,,,598802,,,,,,,
32628,note_on,48,0,3,,,,,,,,,0,,,52,0
32628,note_on,48,0,1,,,,,,,,,0,,,88,0
32640,note_on,0,0,1,,,,,,,,,0,,,86,80
32640,note_on,12,0,1,,,,,,,,,0,,,98,80
32640,note_on,12,0,3,,,,,,,,,0,,,44,80
32640,note_on,0,0,3,,,,,,,,,0,,,56,80
32648,set_tempo,24,1,0,,,,,,595238,,,,,,,
32675,set_tempo,27,1,0,,,,,,591716,,,,,,,
32688,note_on,48,0,3,,,,,,,,,0,,,56,0
32688,note_on,0,0,1,,,,,,,,,0,,,98,0
32688,note_on,0,0,3,,,,,,,,,0,,,44,0
32688,note_on,48,0,1,,,,,,,,,0,,,86,0
32699,set_tempo,24,1,0,,,,,,588235,,,,,,,
32700,note_on,12,0,3,,,,,,,,,0,,,52,80
32700,note_on,12,0,1,,,,,,,,,0,,,88,80
32723,set_tempo,24,1,0,,,,,,584795,,,,,,,
32748,note_on,48,0,1,,,,,,,,,0,,,88,0
32748,note_on,48,0,3,,,,,,,,,0,,,52,0
32749,set_tempo,26,1,0,,,,,,581395,,,,,,,
32760,note_on,0,0,1,,,,,,,,,0,,,84,80
32760,note_on,12,0,1,,,,,,,,,0,,,96,80
32760,note_on,12,0,3,,,,,,,,,0,,,45,80
32760,note_on,0,0,3,,,,,,,,,0,,,57,80
32773,set_tempo,24,1,0,,,,,,578035,,,,,,,
32797,set_tempo,24,1,0,,,,,,574713,,,,,,,
32808,note_on,48,0,3,,,,,,,,,0,,,57,0
32808,note_on,0,0,1,,,,,,,,,0,,,96,0
32808,note_on,48,0,1,,,,,,,,,0,,,84,0
32808,note_on,0,0,3,,,,,,,,,0,,,45,0
32820,note_on,12,0,1,,,,,,,,,0,,,88,80
32820,note_on,12,0,3,,,,,,,,,0,,,52,80
32824,set_tempo,27,1,0,,,,,,571429,,,,,,,
32848,set_tempo,24,1,0,,,,,,568182,,,,,,,
32868,note_on,48,0,3,,,,,,,,,0,,,52,0
32868,note_on,48,0,1,,,,,,,,,0,,,88,0
32874,set_tempo,26,1,0,,,,,,564972,,,,,,,
32880,note_on,0,0,1,,,,,,,,,0,,,95,80
32880,note_on,12,0,3,,,,,,,,,0,,,59,80
32880,note_on,0,0,3,,,,,,,,,0,,,47,80
32880,note_on,12,0,1,,,,,,,,,0,,,83,80
32898,set_tempo,24,1,0,,,,,,561798,,,,,,,
32922,set_tempo,24,1,0,,,,,,558659,,,,,,,
32928,note_on,48,0,3,,,,,,,,,0,,,47,0
32928,note_on,48,0,1,,,,,,,,,0,,,95,0
32928,note_on,0,0,3,,,,,,,,,0,,,59,0
32928,note_on,0,0,1,,,,,,,,,0,,,83,0
32940,note_on,12,0,3,,,,,,,,,0,,,52,80
32940,note_on,12,0,1,,,,,,,,,0,,,88,80
32948,set_tempo,26,1,0,,,,,,555556,,,,,,,
32972,set_tempo,24,1,0,,,,,,552486,,,,,,,
32988,note_on,48,0,3,,,,,,,,,0,,,52,0
32988,note_on,48,0,1,,,,,,,,,0,,,88,0
32996,set_tempo,24,1,0,,,,,,549451,,,,,,,
32997,set_tempo,1,1,0,,,,,,549451,,,,,,,
33000,note_on,12,0,3,,,,,,,,,0,,,60,80
33000,note_on,0,0,1,,,,,,,,,0,,,93,80
33000,note_on,0,0,3,,,,,,,,,0,,,48,80
33000,note_on,0,0,1,,,,,,,,,0,,,81,80
33000,control_change,12,0,1,,,,,,,,,0,64,0,,
33011,set_tempo,14,1,0,,,,,,546448,,,,,,,
33026,set_tempo,15,1,0,,,,,,543478,,,,,,,
33040,set_tempo,14,1,0,,,,,,540541,,,,,,,
33048,note_on,48,0,3,,,,,,,,,0,,,48,0
33048,note_on,48,0,1,,,,,,,,,0,,,93,0
33048,note_on,0,0,1,,,,,,,,,0,,,81,0
33048,note_on,0,0,3,,,,,,,,,0,,,60,0
33054,set_tempo,14,1,0,,,,,,537634,,,,,,,
33056,control_change,8,0,1,,,,,,,,,0,64,127,,
33060,note_on,12,0,3,,,,,,,,,0,,,52,80
33060,note_on,4,0,1,,,,,,,,,0,,,88,80
33069,set_tempo,15,1,0,,,,,,534759,,,,,,,
33083,set_tempo,14,1,0,,,,,,531915,,,,,,,
33098,set_tempo,15,1,0,,,,,,529101,,,,,,,
33108,note_on,48,0,3,,,,,,,,,0,,,52,0
33108,note_on,48,0,1,,,,,,,,,0,,,88,0
33112,set_tempo,14,1,0,,,,,,526316,,,,,,,
33120,note_on,0,0,1,,,,,,,,,0,,,80,80
33120,note_on,0,0,3,,,,,,,,,0,,,47,80
33120,note_on,12,0,1,,,,,,,,,0,,,92,80
33120,note_on,12,0,3,,,,,,,,,0,,,59,80
33124,set_tempo,12,1,0,,,,,,523560,,,,,,,
33138,set_tempo,14,1,0,,,,,,520833,,,,,,,
33153,set_tempo,15,1,0,,,,,,518135,,,,,,,
33167,set_tempo,14,1,0,,,,,,515464,,,,,,,
33168,note_on,48,0,1,,,,,,,,,0,,,80,0
33168,note_on,48,0,3,,,,,,,,,0,,,47,0
33168,note_on,0,0,3,,,,,,,,,0,,,59,0
33168,note_on,0,0,1,,,,,,,,,0,,,92,0
33180,note_on,12,0,3,,,,,,,,,0,,,52,80
33180,note_on,12,0,1,,,,,,,,,0,,,88,80
33182,set_tempo,15,1,0,,,,,,512821,,,,,,,
33196,set_tempo,14,1,0,,,,,,510204,,,,,,,
33210,set_tempo,14,1,0,,,,,,507614,,,,,,,
33225,set_tempo,15,1,0,,,,,,505051,,,,,,,
33228,note_on,48,0,1,,,,,,,,,0,,,88,0
33228,note_on,48,0,3,,,,,,,,,0,,,52,0
33237,set_tempo,12,1,0,,,,,,502513,,,,,,,
33240,note_on,0,0,3,,,,,,,,,0,,,60,80
33240,note_on,0,0,1,,,,,,,,,0,,,81,80
33240,note_on,12,0,1,,,,,,,,,0,,,93,80
33240,note_on,12,0,3,,,,,,,,,0,,,48,80
33288,note_on,48,0,3,,,,,,,,,0,,,60,0
33288,note_on,48,0,1,,,,,,,,,0,,,81,0
33288,note_on,0,0,3,,,,,,,,,0,,,48,0
33288,note_on,0,0,1,,,,,,,,,0,,,93,0
33300,note_on,12,0,1,,,,,,,,,0,,,88,80
33300,note_on,12,0,3,,,,,,,,,0,,,52,80
33348,note_on,48,0,1,,,,,,,,,0,,,88,0
33348,note_on,48,0,3,,,,,,,,,0,,,52,0
33360,note_on,12,0,1,,,,,,,,,0,,,84,80
33360,note_on,0,0,3,,,,,,,,,0,,,57,80
33360,note_on,12,0,3,,,,,,,,,0,,,45,80
33360,note_on,0,0,1,,,,,,,,,0,,,96,80
33408,note_on,48,0,1,,,,,,,,,0,,,96,0
33408,note_on,0,0,1,,,,,,,,,0,,,84,0
33408,note_on,48,0,3,,,,,,,,,0,,,57,0
33408,note_on,0,0,3,,,,,,,,,0,,,45,0
33420,note_on,12,0,1,,,,,,,,,0,,,88,80
33420,note_on,12,0,3,,,,,,,,,0,,,52,80
33468,note_on,48,0,3,,,,,,,,,0,,,52,0
33468,note_on,48,0,1,,,,,,,,,0,,,88,0
33480,note_on,0,0,1,,,,,,,,,0,,,95,80
33480,note_on,0,0,3,,,,,,,,,0,,,59,80
33480,note_on,12,0,3,,,,,,,,,0,,,47,80
33480,note_on,12,0,1,,,,,,,,,0,,,83,80
33528,note_on,0,0,1,,,,,,,,,0,,,83,0
33528,note_on,48,0,3,,,,,,,,,0,,,59,0
33528,note_on,48,0,1,,,,,,,,,0,,,95,0
33528,note_on,0,0,3,,,,,,,,,0,,,47,0
33540,note_on,12,0,1,,,,,,,,,0,,,88,80
33540,note_on,12,0,3,,,,,,,,,0,,,52,80
33588,note_on,48,0,3,,,,,,,,,0,,,52,0
33588,note_on,48,0,1,,,,,,,,,0,,,88,0
33600,note_on,12,0,1,,,,,,,,,0,,,93,80
33600,note_on,0,0,1,,,,,,,,,0,,,81,80
33600,note_on,0,0,3,,,,,,,,,0,,,48,80
33600,note_on,12,0,3,,,,,,,,,0,,,60,80
33648,note_on,0,0,3,,,,,,,,,0,,,60,0
33648,note_on,48,0,3,,,,,,,,,0,,,48,0
33648,note_on,48,0,1,,,,,,,,,0,,,81,0
33648,note_on,0,0,1,,,,,,,,,0,,,93,0
33660,note_on,12,0,3,,,,,,,,,0,,,52,80
33660,note_on,12,0,1,,,,,,,,,0,,,88,80
33708,note_on,48,0,1,,,,,,,,,0,,,88,0
33708,note_on,48,0,3,,,,,,,,,0,,,52,0
33720,note_on,0,0,1,,,,,,,,,0,,,80,80
33720,note_on,0,0,1,,,,,,,,,0,,,92,80
33720,note_on,12,0,3,,,,,,,,,0,,,47,80
33720,note_on,0,0,3,,,,,,,,,0,,,59,80
33720,control_change,12,0,1,,,,,,,,,0,64,0,,
33768,note_on,0,0,3,,,,,,,,,0,,,47,0
33768,note_on,48,0,1,,,,,,,,,0,,,80,0
33768,note_on,48,0,3,,,,,,,,,0,,,59,0
33768,note_on,0,0,1,,,,,,,,,0,,,92,0
33780,control_change,12,0,1,,,,,,,,,0,64,127,,
33780,note_on,12,0,3,,,,,,,,,0,,,52,80
33780,note_on,0,0,1,,,,,,,,,0,,,88,80
33828,note_on,48,0,3,,,,,,,,,0,,,52,0
33828,note_on,48,0,1,,,,,,,,,0,,,88,0
33840,note_on,12,0,1,,,,,,,,,0,,,89,80
33840,note_on,0,0,1,,,,,,,,,0,,,77,80
33840,note_on,12,0,3,,,,,,,,,0,,,57,80
33840,note_on,0,0,3,,,,,,,,,0,,,45,80
33888,note_on,0,0,1,,,,,,,,,0,,,89,0
33888,note_on,48,0,1,,,,,,,,,0,,,77,0
33888,note_on,0,0,3,,,,,,,,,0,,,57,0
33888,note_on,48,0,3,,,,,,,,,0,,,45,0
33900,note_on,12,0,1,,,,,,,,,0,,,88,80
33900,note_on,12,0,3,,,,,,,,,0,,,52,80
33948,note_on,48,0,1,,,,,,,,,0,,,88,0
33948,note_on,48,0,3,,,,,,,,,0,,,52,0
33960,note_on,12,0,1,,,,,,,,,0,,,88,80
33960,note_on,12,0,3,,,,,,,,,0,,,56,80
33960,note_on,0,0,3,,,,,,,,,0,,,44,80
33960,note_on,0,0,1,,,,,,,,,0,,,76,80
34008,note_on,0,0,3,,,,,,,,,0,,,56,0
34008,note_on,48,0,3,,,,,,,,,0,,,44,0
34008,note_on,48,0,1,,,,,,,,,0,,,76,0
34008,note_on,0,0,1,,,,,,,,,0,,,88,0
34020,note_on,12,0,3,,,,,,,,,0,,,52,80
34020,note_on,12,0,1,,,,,,,,,0,,,76,80
34068,note_on,48,0,1,,,,,,,,,0,,,76,0
34068,note_on,48,0,3,,,,,,,,,0,,,52,0
34080,note_on,12,0,3,,,,,,,,,0,,,40,80
34080,note_on,0,0,1,,,,,,,,,0,,,88,80
34080,note_on,0,0,3,,,,,,,,,0,,,52,80
34080,note_on,12,0,1,,,,,,,,,0,,,76,80
34128,note_on,0,0,3,,,,,,,,,0,,,40,0
34128,note_on,48,0,1,,,,,,,,,0,,,88,0
34128,note_on,0,0,1,,,,,,,,,0,,,76,0
34128,note_on,48,0,3,,,,,,,,,0,,,52,0
34140,note_on,12,0,1,,,,,,,,,0,,,76,80
34140,note_on,12,0,3,,,,,,,,,0,,,52,80
34188,note_on,48,0,1,,,,,,,,,0,,,76,0
34188,note_on,48,0,3,,,,,,,,,0,,,52,0
34200,note_on,0,0,3,,,,,,,,,0,,,53,80
34200,note_on,12,0,1,,,,,,,,,0,,,87,80
34200,note_on,12,0,3,,,,,,,,,0,,,41,80
34200,note_on,0,0,1,,,,,,,,,0,,,75,80
34248,note_on,48,0,3,,,,,,,,,0,,,53,0
34248,note_on,0,0,3,,,,,,,,,0,,,41,0
34248,note_on,48,0,1,,,,,,,,,0,,,75,0
34248,note_on,0,0,1,,,,,,,,,0,,,87,0
34260,note_on,12,0,3,,,,,,,,,0,,,52,80
34260,note_on,12,0,1,,,,,,,,,0,,,76,80
34308,note_on,48,0,3,,,,,,,,,0,,,52,0
34308,note_on,48,0,1,,,,,,,,,0,,,76,0
34320,note_on,0,0,1,,,,,,,,,0,,,86,80
34320,note_on,12,0,3,,,,,,,,,0,,,44,80
34320,note_on,0,0,3,,,,,,,,,0,,,56,80
34320,note_on,12,0,1,,,,,,,,,0,,,74,80
34368,note_on,0,0,1,,,,,,,,,0,,,74,0
34368,note_on,0,0,3,,,,,,,,,0,,,44,0
34368,note_on,48,0,1,,,,,,,,,0,,,86,0
34368,note_on,48,0,3,,,,,,,,,0,,,56,0
34380,note_on,12,0,1,,,,,,,,,0,,,76,80
34380,note_on,12,0,3,,,,,,,,,0,,,52,80
34428,note_on,48,0,3,,,,,,,,,0,,,52,0
34428,note_on,48,0,1,,,,,,,,,0,,,76,0
34440,note_on,0,0,3,,,,,,,,,0,,,45,80
34440,control_change,12,0,1,,,,,,,,,0,64,0,,
34440,note_on,0,0,1,,,,,,,,,0,,,84,80
34440,note_on,0,0,1,,,,,,,,,0,,,72,80
34440,note_on,12,0,3,,,,,,,,,0,,,57,80
34488,note_on,48,0,3,,,,,,,,,0,,,45,0
34488,note_on,0,0,3,,,,,,,,,0,,,57,0
34488,note_on,0,0,1,,,,,,,,,0,,,84,0
34488,note_on,48,0,1,,,,,,,,,0,,,72,0
34500,note_on,12,0,3,,,,,,,,,0,,,52,80
34500,control_change,12,0,1,,,,,,,,,0,64,127,,
34500,note_on,0,0,1,,,,,,,,,0,,,76,80
34548,note_on,48,0,3,,,,,,,,,0,,,52,0
34548,note_on,48,0,1,,,,,,,,,0,,,76,0
34560,note_on,12,0,3,,,,,,,,,0,,,47,80
34560,note_on,0,0,3,,,,,,,,,0,,,59,80
34560,note_on,12,0,1,,,,,,,,,0,,,71,80
34560,note_on,0,0,1,,,,,,,,,0,,,83,80
34608,note_on,48,0,3,,,,,,,,,0,,,59,0
34608,note_on,0,0,3,,,,,,,,,0,,,47,0
34608,note_on,0,0,1,,,,,,,,,0,,,71,0
34608,note_on,48,0,1,,,,,,,,,0,,,83,0
34620,note_on,12,0,3,,,,,,,,,0,,,52,80
34620,note_on,12,0,1,,,,,,,,,0,,,76,80
34668,note_on,48,0,1,,,,,,,,,0,,,76,0
34668,note_on,48,0,3,,,,,,,,,0,,,52,0
34680,note_on,12,0,3,,,,,,,,,0,,,48,80
34680,note_on,0,0,3,,,,,,,,,0,,,60,80
34680,note_on,0,0,1,,,,,,,,,0,,,69,80
34680,note_on,12,0,1,,,,,,,,,0,,,81,80
34728,note_on,48,0,3,,,,,,,,,0,,,60,0
34728,note_on,0,0,1,,,,,,,,,0,,,81,0
34728,note_on,48,0,1,,,,,,,,,0,,,69,0
34728,note_on,0,0,3,,,,,,,,,0,,,48,0
34740,note_on,12,0,3,,,,,,,,,0,,,52,80
34740,note_on,12,0,1,,,,,,,,,0,,,76,80
34788,note_on,48,0,1,,,,,,,,,0,,,76,0
34788,note_on,48,0,3,,,,,,,,,0,,,52,0
34800,note_on,0,0,1,,,,,,,,,0,,,84,80
34800,note_on,0,0,3,,,,,,,,,0,,,45,80
34800,note_on,12,0,3,,,,,,,,,0,,,57,80
34800,note_on,12,0,1,,,,,,,,,0,,,72,80
34848,note_on,48,0,3,,,,,,,,,0,,,45,0
34848,note_on,0,0,1,,,,,,,,,0,,,72,0
34848,note_on,48,0,1,,,,,,,,,0,,,84,0
34848,note_on,0,0,3,,,,,,,,,0,,,57,0
34860,note_on,12,0,1,,,,,,,,,0,,,76,80
34860,note_on,12,0,3,,,,,,,,,0,,,52,80
34908,note_on,48,0,3,,,,,,,,,0,,,52,0
34908,note_on,48,0,1,,,,,,,,,0,,,76,0
34920,note_on,12,0,3,,,,,,,,,0,,,44,80
34920,note_on,0,0,1,,,,,,,,,0,,,71,80
34920,note_on,12,0,1,,,,,,,,,0,,,83,80
34920,note_on,0,0,3,,,,,,,,,0,,,56,80
34968,note_on,0,0,3,,,,,,,,,0,,,44,0
34968,note_on,0,0,1,,,,,,,,,0,,,83,0
34968,note_on,48,0,1,,,,,,,,,0,,,71,0
34968,note_on,48,0,3,,,,,,,,,0,,,56,0
34980,note_on,12,0,1,,,,,,,,,0,,,76,80
34980,note_on,12,0,3,,,,,,,,,0,,,52,80
35028,note_on,48,0,1,,,,,,,,,0,,,76,0
35028,note_on,48,0,3,,,,,,,,,0,,,52,0
35040,note_on,12,0,1,,,,,,,,,0,,,69,80
35040,note_on,12,0,3,,,,,,,,,0,,,41,80
35040,note_on,0,0,1,,,,,,,,,0,,,81,80
35040,note_on,0,0,3,,,,,,,,,0,,,53,80
35088,note_on,0,0,1,,,,,,,,,0,,,69,0
35088,note_on,0,0,3,,,,,,,,,0,,,41,0
35088,note_on,48,0,1,,,,,,,,,0,,,81,0
35088,note_on,48,0,3,,,,,,,,,0,,,53,0
35100,note_on,12,0,1,,,,,,,,,0,,,76,80
35100,note_on,12,0,3,,,,,,,,,0,,,52,80
35148,note_on,48,0,3,,,,,,,,,0,,,52,0
35160,note_on,0,0,1,,,,,,,,,0,,,68,80
35160,control_change,60,0,1,,,,,,,,,0,64,0,,
35160,note_on,0,0,3,,,,,,,,,0,,,40,80
35160,note_on,12,0,3,,,,,,,,,0,,,52,80
35160,note_on,0,0,1,,,,,,,,,0,,,80,80
35256,note_on,96,0,3,,,,,,,,,0,,,40,0
35256,note_on,96,0,1,,,,,,,,,0,,,80,0
35256,note_on,0,0,1,,,,,,,,,0,,,68,0
35256,note_on,0,0,1,,,,,,,,,0,,,76,0
35256,note_on,0,0,3,,,,,,,,,0,,,52,0
35280,note_on,24,0,3,,,,,,,,,0,,,64,80
35280,note_on,0,0,3,,,,,,,,,0,,,52,80
35340,note_on,0,0,1,,,,,,,,,0,,,68,63
35340,note_on,84,0,1,,,,,,,,,0,,,71,63
35340,note_on,0,0,1,,,,,,,,,0,,,76,63
35376,note_on,96,0,3,,,,,,,,,0,,,52,0
35376,note_on,0,0,3,,,,,,,,,0,,,64,0
35388,note_on,0,0,1,,,,,,,,,0,,,71,0
35388,note_on,48,0,1,,,,,,,,,0,,,76,0
35388,note_on,0,0,1,,,,,,,,,0,,,68,0
35400,note_on,0,0,3,,,,,,,,,0,,,63,80
35400,note_on,24,0,3,,,,,,,,,0,,,52,80
35460,note_on,0,0,1,,,,,,,,,0,,,72,66
35460,note_on,72,0,1,,,,,,,,,0,,,69,66
35460,note_on,0,0,1,,,,,,,,,0,,,77,66
35496,note_on,96,0,3,,,,,,,,,0,,,63,0
35496,note_on,0,0,3,,,,,,,,,0,,,52,0
35508,note_on,0,0,1,,,,,,,,,0,,,69,0
35508,note_on,48,0,1,,,,,,,,,0,,,72,0
35508,note_on,0,0,1,,,,,,,,,0,,,77,0
35520,note_on,0,0,3,,,,,,,,,0,,,62,80
35520,note_on,24,0,3,,,,,,,,,0,,,52,80
35580,note_on,0,0,1,,,,,,,,,0,,,74,69
35580,note_on,0,0,1,,,,,,,,,0,,,77,69
35580,note_on,72,0,1,,,,,,,,,0,,,82,69
35616,note_on,0,0,3,,,,,,,,,0,,,52,0
35616,note_on,96,0,3,,,,,,,,,0,,,62,0
35628,note_on,0,0,1,,,,,,,,,0,,,82,0
35628,note_on,0,0,1,,,,,,,,,0,,,77,0
35628,note_on,48,0,1,,,,,,,,,0,,,74,0
35640,note_on,24,0,3,,,,,,,,,0,,,52,80
35640,note_on,0,0,3,,,,,,,,,0,,,62,80
35700,note_on,0,0,1,,,,,,,,,0,,,83,72
35700,note_on,0,0,1,,,,,,,,,0,,,88,72
35700,note_on,72,0,1,,,,,,,,,0,,,80,72
35736,note_on,96,0,3,,,,,,,,,0,,,62,0
35736,note_on,0,0,3,,,,,,,,,0,,,52,0
35748,note_on,48,0,1,,,,,,,,,0,,,88,0
35748,note_on,0,0,1,,,,,,,,,0,,,83,0
35748,note_on,0,0,1,,,,,,,,,0,,,80,0
35760,note_on,0,0,3,,,,,,,,,0,,,52,80
35760,note_on,24,0,3,,,,,,,,,0,,,61,80
35820,note_on,72,0,1,,,,,,,,,0,,,93,75
35820,note_on,0,0,1,,,,,,,,,0,,,85,75
35820,note_on,0,0,1,,,,,,,,,0,,,88,75
35856,note_on,96,0,3,,,,,,,,,0,,,52,0
35856,note_on,0,0,3,,,,,,,,,0,,,61,0
35868,note_on,0,0,1,,,,,,,,,0,,,88,0
35868,note_on,0,0,1,,,,,,,,,0,,,93,0
35868,note_on,48,0,1,,,,,,,,,0,,,85,0
35880,note_on,24,0,3,,,,,,,,,0,,,60,80
35880,note_on,0,0,3,,,,,,,,,0,,,52,80
35940,note_on,0,0,1,,,,,,,,,0,,,98,78
35940,note_on,72,0,1,,,,,,,,,0,,,90,78
35940,note_on,0,0,1,,,,,,,,,0,,,93,78
35976,note_on,96,0,3,,,,,,,,,0,,,52,0
35976,note_on,0,0,3,,,,,,,,,0,,,60,0
35988,note_on,0,0,1,,,,,,,,,0,,,93,0
35988,note_on,0,0,1,,,,,,,,,0,,,90,0
35988,note_on,48,0,1,,,,,,,,,0,,,98,0
36000,note_on,24,0,3,,,,,,,,,0,,,60,80
36000,note_on,0,0,3,,,,,,,,,0,,,52,80
36060,note_on,72,0,1,,,,,,,,,0,,,66,61
36060,note_on,0,0,1,,,,,,,,,0,,,69,61
36060,note_on,0,0,1,,,,,,,,,0,,,74,61
36096,note_on,96,0,3,,,,,,,,,0,,,52,0
36096,note_on,0,0,3,,,,,,,,,0,,,60,0
36108,note_on,0,0,1,,,,,,,,,0,,,74,0
36108,note_on,0,0,1,,,,,,,,,0,,,66,0
36108,note_on,48,0,1,,,,,,,,,0,,,69,0
36120,note_on,24,0,3,,,,,,,,,0,,,52,80
36120,note_on,0,0,3,,,,,,,,,0,,,59,80
36180,note_on,72,0,1,,,,,,,,,0,,,74,64
36180,note_on,0,0,1,,,,,,,,,0,,,79,64
36180,note_on,0,0,1,,,,,,,,,0,,,71,64
36216,note_on,96,0,3,,,,,,,,,0,,,59,0
36216,note_on,0,0,3,,,,,,,,,0,,,52,0
36228,note_on,0,0,1,,,,,,,,,0,,,79,0
36228,note_on,0,0,1,,,,,,,,,0,,,74,0
36228,note_on,48,0,1,,,,,,,,,0,,,71,0
36240,note_on,0,0,3,,,,,,,,,0,,,52,80
36240,note_on,24,0,3,,,,,,,,,0,,,58,80
36300,note_on,72,0,1,,,,,,,,,0,,,84,68
36300,note_on,0,0,1,,,,,,,,,0,,,79,68
36300,note_on,0,0,1,,,,,,,,,0,,,76,68
36336,note_on,0,0,3,,,,,,,,,0,,,58,0
36336,note_on,96,0,3,,,,,,,,,0,,,52,0
36348,note_on,48,0,1,,,,,,,,,0,,,76,0
36348,note_on,0,0,1,,,,,,,,,0,,,84,0
36348,note_on,0,0,1,,,,,,,,,0,,,79,0
36360,note_on,24,0,3,,,,,,,,,0,,,57,80
36360,note_on,0,0,3,,,,,,,,,0,,,52,80
36420,note_on,72,0,1,,,,,,,,,0,,,89,71
36420,note_on,0,0,1,,,,,,,,,0,,,84,71
36420,note_on,0,0,1,,,,,,,,,0,,,81,71
36456,note_on,96,0,3,,,,,,,,,0,,,52,0
36456,note_on,0,0,3,,,,,,,,,0,,,57,0
36468,note_on,48,0,1,,,,,,,,,0,,,81,0
36468,note_on,0,0,1,,,,,,,,,0,,,89,0
36468,note_on,0,0,1,,,,,,,,,0,,,84,0
36480,note_on,24,0,3,,,,,,,,,0,,,57,80
36480,note_on,0,0,3,,,,,,,,,0,,,52,80
36540,note_on,72,0,1,,,,,,,,,0,,,95,74
36540,note_on,0,0,1,,,,,,,,,0,,,90,74
36540,note_on,0,0,1,,,,,,,,,0,,,87,74
36576,note_on,0,0,3,,,,,,,,,0,,,57,0
36576,note_on,96,0,3,,,,,,,,,0,,,52,0
36588,note_on,48,0,1,,,,,,,,,0,,,90,0
36588,note_on,0,0,1,,,,,,,,,0,,,95,0
36588,note_on,0,0,1,,,,,,,,,0,,,87,0
36600,note_on,0,0,3,,,,,,,,,0,,,52,80
36600,note_on,24,0,3,,,,,,,,,0,,,56,80
36660,note_on,0,0,1,,,,,,,,,0,,,95,78
36660,note_on,0,0,1,,,,,,,,,0,,,88,78
36660,note_on,72,0,1,,,,,,,,,0,,,100,78
36696,note_on,96,0,3,,,,,,,,,0,,,52,0
36696,note_on,0,0,3,,,,,,,,,0,,,56,0
36708,note_on,0,0,1,,,,,,,,,0,,,88,0
36708,note_on,48,0,1,,,,,,,,,0,,,95,0
36708,note_on,0,0,1,,,,,,,,,0,,,100,0
36720,note_on,0,0,3,,,,,,,,,0,,,40,80
36720,note_on,24,0,3,,,,,,,,,0,,,55,80
36780,note_on,0,0,1,,,,,,,,,0,,,61,60
36780,note_on,0,0,1,,,,,,,,,0,,,69,60
36780,note_on,72,0,1,,,,,,,,,0,,,64,60
36816,note_on,96,0,3,,,,,,,,,0,,,40,0
36816,note_on,0,0,3,,,,,,,,,0,,,55,0
36828,note_on,0,0,1,,,,,,,,,0,,,64,0
36828,note_on,0,0,1,,,,,,,,,0,,,69,0
36828,note_on,48,0,1,,,,,,,,,0,,,61,0
36840,note_on,24,0,3,,,,,,,,,0,,,40,80
36840,note_on,0,0,3,,,,,,,,,0,,,54,80
36900,note_on,72,0,1,,,,,,,,,0,,,74,64
36900,note_on,0,0,1,,,,,,,,,0,,,66,64
36900,note_on,0,0,1,,,,,,,,,0,,,69,64
36936,note_on,96,0,3,,,,,,,,,0,,,54,0
36936,note_on,0,0,3,,,,,,,,,0,,,40,0
36948,note_on,48,0,1,,,,,,,,,0,,,66,0
36948,note_on,0,0,1,,,,,,,,,0,,,74,0
36948,note_on,0,0,1,,,,,,,,,0,,,69,0
36960,note_on,0,0,3,,,,,,,,,0,,,40,80
36960,note_on,24,0,3,,,,,,,,,0,,,53,80
37020,note_on,0,0,1,,,,,,,,,0,,,79,69
37020,note_on,72,0,1,,,,,,,,,0,,,74,69
37020,note_on,0,0,1,,,,,,,,,0,,,71,69
37056,note_on,0,0,3,,,,,,,,,0,,,53,0
37056,note_on,96,0,3,,,,,,,,,0,,,40,0
37068,note_on,48,0,1,,,,,,,,,0,,,71,0
37068,note_on,0,0,1,,,,,,,,,0,,,74,0
37068,note_on,0,0,1,,,,,,,,,0,,,79,0
37080,note_on,0,0,3,,,,,,,,,0,,,52,80
37080,note_on,24,0,3,,,,,,,,,0,,,40,80
37140,note_on,0,0,1,,,,,,,,,0,,,84,73
37140,note_on,0,0,1,,,,,,,,,0,,,76,73
37140,note_on,72,0,1,,,,,,,,,0,,,79,73
37176,note_on,0,0,3,,,,,,,,,0,,,40,0
37176,note_on,96,0,3,,,,,,,,,0,,,52,0
37188,note_on,0,0,1,,,,,,,,,0,,,76,0
37188,note_on,48,0,1,,,,,,,,,0,,,84,0
37188,note_on,0,0,1,,,,,,,,,0,,,79,0
37200,note_on,24,0,3,,,,,,,,,0,,,51,80
37200,note_on,0,0,3,,,,,,,,,0,,,40,80
37260,note_on,0,0,1,,,,,,,,,0,,,84,78
37260,note_on,72,0,1,,,,,,,,,0,,,89,78
37260,note_on,0,0,1,,,,,,,,,0,,,81,78
37296,note_on,96,0,3,,,,,,,,,0,,,40,0
37296,note_on,0,0,3,,,,,,,,,0,,,51,0
37308,note_on,48,0,1,,,,,,,,,0,,,81,0
37308,note_on,0,0,1,,,,,,,,,0,,,89,0
37308,note_on,0,0,1,,,,,,,,,0,,,84,0
37320,note_on,24,0,3,,,,,,,,,0,,,50,80
37320,note_on,0,0,3,,,,,,,,,0,,,40,80
37380,note_on,0,0,1,,,,,,,,,0,,,89,80
37380,note_on,0,0,1,,,,,,,,,0,,,82,80
37380,note_on,72,0,1,,,,,,,,,0,,,94,80
37416,note_on,96,0,3,,,,,,,,,0,,,40,0
37416,note_on,0,0,3,,,,,,,,,0,,,50,0
37428,note_on,0,0,1,,,,,,,,,0,,,94,0
37428,note_on,0,0,1,,,,,,,,,0,,,89,0
37428,note_on,48,0,1,,,,,,,,,0,,,82,0
37440,note_on,0,0,3,,,,,,,,,0,,,40,80
37440,note_on,24,0,3,,,,,,,,,0,,,50,80
37500,note_on,0,0,1,,,,,,,,,0,,,64,61
37500,note_on,72,0,1,,,,,,,,,0,,,56,61
37500,note_on,0,0,1,,,,,,,,,0,,,59,61
37536,note_on,96,0,3,,,,,,,,,0,,,40,0
37536,note_on,0,0,3,,,,,,,,,0,,,50,0
37548,note_on,0,0,1,,,,,,,,,0,,,59,0
37548,note_on,0,0,1,,,,,,,,,0,,,56,0
37548,note_on,48,0,1,,,,,,,,,0,,,64,0
37560,note_on,24,0,3,,,,,,,,,0,,,49,80
37560,note_on,0,0,3,,,,,,,,,0,,,40,80
37620,note_on,0,0,1,,,,,,,,,0,,,64,64
37620,note_on,0,0,1,,,,,,,,,0,,,61,64
37620,note_on,72,0,1,,,,,,,,,0,,,69,64
37656,note_on,0,0,3,,,,,,,,,0,,,49,0
37656,note_on,96,0,3,,,,,,,,,0,,,40,0
37668,note_on,48,0,1,,,,,,,,,0,,,61,0
37668,note_on,0,0,1,,,,,,,,,0,,,69,0
37668,note_on,0,0,1,,,,,,,,,0,,,64,0
37680,note_on,24,0,3,,,,,,,,,0,,,40,80
37680,note_on,0,0,3,,,,,,,,,0,,,48,80
37740,note_on,72,0,1,,,,,,,,,0,,,66,68
37740,note_on,0,0,1,,,,,,,,,0,,,74,68
37740,note_on,0,0,1,,,,,,,,,0,,,69,68
37776,note_on,0,0,3,,,,,,,,,0,,,40,0
37776,note_on,96,0,3,,,,,,,,,0,,,48,0
37788,note_on,0,0,1,,,,,,,,,0,,,74,0
37788,note_on,0,0,1,,,,,,,,,0,,,66,0
37788,note_on,48,0,1,,,,,,,,,0,,,69,0
37800,note_on,0,0,3,,,,,,,,,0,,,47,80
37800,note_on,24,0,3,,,,,,,,,0,,,40,80
37860,note_on,0,0,1,,,,,,,,,0,,,74,71
37860,note_on,0,0,1,,,,,,,,,0,,,71,71
37860,note_on,72,0,1,,,,,,,,,0,,,79,71
37896,note_on,0,0,3,,,,,,,,,0,,,40,0
37896,note_on,96,0,3,,,,,,,,,0,,,47,0
37908,note_on,0,0,1,,,,,,,,,0,,,71,0
37908,note_on,0,0,1,,,,,,,,,0,,,79,0
37908,note_on,48,0,1,,,,,,,,,0,,,74,0
37920,note_on,24,0,3,,,,,,,,,0,,,46,80
37920,note_on,0,0,3,,,,,,,,,0,,,40,80
37980,note_on,0,0,1,,,,,,,,,0,,,76,75
37980,note_on,0,0,1,,,,,,,,,0,,,79,75
37980,note_on,72,0,1,,,,,,,,,0,,,84,75
38016,note_on,0,0,3,,,,,,,,,0,,,46,0
38016,note_on,96,0,3,,,,,,,,,0,,,40,0
38028,note_on,0,0,1,,,,,,,,,0,,,79,0
38028,note_on,0,0,1,,,,,,,,,0,,,84,0
38028,note_on,48,0,1,,,,,,,,,0,,,76,0
38040,note_on,24,0,3,,,,,,,,,0,,,40,80
38040,note_on,0,0,3,,,,,,,,,0,,,45,80
38100,note_on,72,0,1,,,,,,,,,0,,,89,78
38100,note_on,0,0,1,,,,,,,,,0,,,84,78
38100,note_on,0,0,1,,,,,,,,,0,,,77,78
38136,note_on,0,0,3,,,,,,,,,0,,,40,0
38136,note_on,96,0,3,,,,,,,,,0,,,45,0
38148,note_on,0,0,1,,,,,,,,,0,,,89,0
38148,note_on,0,0,1,,,,,,,,,0,,,84,0
38148,note_on,48,0,1,,,,,,,,,0,,,77,0
38160,note_on,0,0,3,,,,,,,,,0,,,40,80
38160,note_on,24,0,3,,,,,,,,,0,,,45,80
38220,note_on,72,0,1,,,,,,,,,0,,,83,80
38220,note_on,0,0,1,,,,,,,,,0,,,78,80
38220,note_on,0,0,1,,,,,,,,,0,,,75,80
38256,note_on,0,0,3,,,,,,,,,0,,,45,0
38256,note_on,96,0,3,,,,,,,,,0,,,40,0
38268,note_on,0,0,1,,,,,,,,,0,,,75,0
38268,note_on,0,0,1,,,,,,,,,0,,,83,0
38268,note_on,48,0,1,,,,,,,,,0,,,78,0
38280,note_on,24,0,3,,,,,,,,,0,,,44,80
38280,note_on,0,0,3,,,,,,,,,0,,,40,80
38340,note_on,0,0,1,,,,,,,,,0,,,76,80
38340,note_on,0,0,1,,,,,,,,,0,,,83,80
38340,note_on,72,0,1,,,,,,,,,0,,,88,80
38376,note_on,96,0,3,,,,,,,,,0,,,40,0
38376,note_on,0,0,3,,,,,,,,,0,,,44,0
38388,note_on,0,0,1,,,,,,,,,0,,,83,0
38388,note_on,48,0,1,,,,,,,,,0,,,76,0
38388,note_on,0,0,1,,,,,,,,,0,,,88,0
38400,note_on,24,0,3,,,,,,,,,0,,,40,80
38400,note_on,0,0,3,,,,,,,,,0,,,43,80
38460,note_on,0,0,1,,,,,,,,,0,,,81,80
38460,note_on,72,0,1,,,,,,,,,0,,,76,80
38460,note_on,0,0,1,,,,,,,,,0,,,73,80
38496,note_on,0,0,3,,,,,,,,,0,,,40,0
38496,note_on,96,0,3,,,,,,,,,0,,,43,0
38508,note_on,48,0,1,,,,,,,,,0,,,73,0
38508,note_on,0,0,1,,,,,,,,,0,,,76,0
38508,note_on,0,0,1,,,,,,,,,0,,,81,0
38520,note_on,0,0,3,,,,,,,,,0,,,42,80
38520,note_on,24,0,3,,,,,,,,,0,,,40,80
38580,note_on,0,0,1,,,,,,,,,0,,,81,80
38580,note_on,72,0,1,,,,,,,,,0,,,86,80
38580,note_on,0,0,1,,,,,,,,,0,,,74,80
38616,note_on,0,0,3,,,,,,,,,0,,,40,0
38616,note_on,96,0,3,,,,,,,,,0,,,42,0
38628,note_on,48,0,1,,,,,,,,,0,,,81,0
38628,note_on,0,0,1,,,,,,,,,0,,,74,0
38628,note_on,0,0,1,,,,,,,,,0,,,86,0
38640,note_on,0,0,3,,,,,,,,,0,,,40,80
38640,note_on,24,0,3,,,,,,,,,0,,,41,80
38700,note_on,0,0,1,,,,,,,,,0,,,74,80
38700,note_on,0,0,1,,,,,,,,,0,,,71,80
38700,note_on,72,0,1,,,,,,,,,0,,,79,80
38736,note_on,96,0,3,,,,,,,,,0,,,40,0
38736,note_on,0,0,3,,,,,,,,,0,,,41,0
38748,note_on,0,0,1,,,,,,,,,0,,,74,0
38748,note_on,0,0,1,,,,,,,,,0,,,79,0
38748,note_on,48,0,1,,,,,,,,,0,,,71,0
38760,note_on,24,0,3,,,,,,,,,0,,,40,80
38820,note_on,72,0,1,,,,,,,,,0,,,84,80
38820,note_on,0,0,1,,,,,,,,,0,,,79,80
38820,note_on,0,0,1,,,,,,,,,0,,,72,80
38856,note_on,96,0,3,,,,,,,,,0,,,40,0
38868,note_on,0,0,1,,,,,,,,,0,,,79,0
38868,note_on,48,0,1,,,,,,,,,0,,,72,0
38868,note_on,0,0,1,,,,,,,,,0,,,84,0
38880,note_on,24,0,3,,,,,,,,,0,,,40,80
38880,note_on,0,0,3,,,,,,,,,0,,,39,80
38940,note_on,72,0,1,,,,,,,,,0,,,72,80
38940,note_on,0,0,1,,,,,,,,,0,,,69,80
38940,note_on,0,0,1,,,,,,,,,0,,,77,80
38976,note_on,0,0,3,,,,,,,,,0,,,40,0
38976,note_on,96,0,3,,,,,,,,,0,,,39,0
38988,note_on,0,0,1,,,,,,,,,0,,,77,0
38988,note_on,48,0,1,,,,,,,,,0,,,69,0
38988,note_on,0,0,1,,,,,,,,,0,,,72,0
39000,note_on,24,0,3,,,,,,,,,0,,,38,80
39000,note_on,0,0,3,,,,,,,,,0,,,40,80
39055,control_change,67,0,1,,,,,,,,,0,64,127,,
39060,note_on,5,0,1,,,,,,,,,0,,,70,80
39060,note_on,0,0,1,,,,,,,,,0,,,77,80
39060,note_on,0,0,1,,,,,,,,,0,,,82,80
39096,note_on,96,0,3,,,,,,,,,0,,,40,0
39096,note_on,0,0,3,,,,,,,,,0,,,38,0
39108,note_on,0,0,1,,,,,,,,,0,,,82,0
39108,note_on,0,0,1,,,,,,,,,0,,,70,0
39108,note_on,48,0,1,,,,,,,,,0,,,77,0
39120,note_on,0,0,3,,,,,,,,,0,,,40,80
39120,note_on,24,0,3,,,,,,,,,0,,,38,80
39180,note_on,72,0,1,,,,,,,,,0,,,65,80
39180,note_on,0,0,1,,,,,,,,,0,,,70,80
39180,note_on,0,0,1,,,,,,,,,0,,,77,80
39216,note_on,0,0,3,,,,,,,,,0,,,38,0
39216,note_on,96,0,3,,,,,,,,,0,,,40,0
39228,note_on,0,0,1,,,,,,,,,0,,,65,0
39228,note_on,0,0,1,,,,,,,,,0,,,77,0
39228,note_on,48,0,1,,,,,,,,,0,,,70,0
39240,note_on,0,0,3,,,,,,,,,0,,,38,80
39240,note_on,0,0,3,,,,,,,,,0,,,40,80
39240,note_on,24,0,3,,,,,,,,,0,,,34,80
39300,note_on,72,0,1,,,,,,,,,0,,,65,80
39300,note_on,0,0,1,,,,,,,,,0,,,62,80
39300,note_on,0,0,1,,,,,,,,,0,,,74,80
39336,note_on,0,0,3,,,,,,,,,0,,,40,0
39336,note_on,96,0,3,,,,,,,,,0,,,38,0
39348,note_on,0,0,1,,,,,,,,,0,,,74,0
39348,note_on,0,0,1,,,,,,,,,0,,,65,0
39348,note_on,48,0,1,,,,,,,,,0,,,62,0
39360,note_on,24,0,3,,,,,,,,,0,,,40,80
39360,note_on,0,0,3,,,,,,,,,0,,,38,80
39420,note_on,72,0,1,,,,,,,,,0,,,62,80
39420,note_on,0,0,1,,,,,,,,,0,,,65,80
39420,note_on,0,0,1,,,,,,,,,0,,,70,80
39456,note_on,96,0,3,,,,,,,,,0,,,38,0
39456,note_on,0,0,3,,,,,,,,,0,,,40,0
39456,note_on,0,0,3,,,,,,,,,0,,,34,0
39468,note_on,0,0,1,,,,,,,,,0,,,65,0
39468,note_on,48,0,1,,,,,,,,,0,,,70,0
39468,note_on,0,0,1,,,,,,,,,0,,,62,0
39476,set_tempo,6239,1,0,,,,,,497512,,,,,,,
39480,note_on,0,0,3,,,,,,,,,0,,,38,48
39480,note_on,24,0,3,,,,,,,,,0,,,40,48
39480,note_on,10824,0,4,,,,,,,,,0,,,29,88
39480,control_change,12,0,1,,,,,,,,,0,64,0,,
39495,set_tempo,19,1,0,,,,,,495050,,,,,,,
39521,control_change,41,0,1,,,,,,,,,0,64,127,,
39531,set_tempo,36,1,0,,,,,,497512,,,,,,,
39540,note_on,0,0,1,,,,,,,,,0,,,65,80
39540,note_on,0,0,1,,,,,,,,,0,,,62,80
39540,note_on,19,0,1,,,,,,,,,0,,,58,80
39564,set_tempo,33,1,0,,,,,,500000,,,,,,,
39576,note_on,0,0,3,,,,,,,,,0,,,40,0
39576,note_on,96,0,3,,,,,,,,,0,,,38,0
39588,note_on,0,0,1,,,,,,,,,0,,,65,0
39588,note_on,0,0,1,,,,,,,,,0,,,58,0
39588,note_on,48,0,1,,,,,,,,,0,,,62,0
39600,set_tempo,36,1,0,,,,,,502513,,,,,,,
39600,note_on,24,0,3,,,,,,,,,0,,,40,48
39634,set_tempo,34,1,0,,,,,,505051,,,,,,,
39660,note_on,0,0,1,,,,,,,,,0,,,53,80
39660,note_on,0,0,1,,,,,,,,,0,,,62,80
39660,note_on,72,0,1,,,,,,,,,0,,,58,80
39670,set_tempo,36,1,0,,,,,,507614,,,,,,,
39672,note_on,192,0,4,,,,,,,,,0,,,29,0
39696,note_on,96,0,3,,,,,,,,,0,,,40,0
39704,set_tempo,34,1,0,,,,,,510204,,,,,,,
39708,note_on,48,0,1,,,,,,,,,0,,,53,0
39708,note_on,0,0,1,,,,,,,,,0,,,58,0
39708,note_on,0,0,1,,,,,,,,,0,,,62,0
39720,note_on,48,0,4,,,,,,,,,0,,,34,88
39720,note_on,24,0,3,,,,,,,,,0,,,40,48
39720,note_on,0,0,3,,,,,,,,,0,,,38,48
39740,set_tempo,36,1,0,,,,,,512821,,,,,,,
39773,set_tempo,33,1,0,,,,,,515464,,,,,,,
39780,note_on,0,0,1,,,,,,,,,0,,,58,80
39780,note_on,72,0,1,,,,,,,,,0,,,53,80
39780,note_on,0,0,1,,,,,,,,,0,,,50,80
39809,set_tempo,36,1,0,,,,,,518135,,,,,,,
39816,note_on,96,0,3,,,,,,,,,0,,,38,0
39816,note_on,0,0,3,,,,,,,,,0,,,40,0
39828,note_on,0,0,1,,,,,,,,,0,,,53,0
39828,note_on,0,0,1,,,,,,,,,0,,,58,0
39828,note_on,48,0,1,,,,,,,,,0,,,50,0
39840,note_on,24,0,3,,,,,,,,,0,,,38,48
39840,note_on,0,0,3,,,,,,,,,0,,,40,48
39843,set_tempo,34,1,0,,,,,,520833,,,,,,,
39879,set_tempo,36,1,0,,,,,,523560,,,,,,,
39900,note_on,0,0,1,,,,,,,,,0,,,53,80
39900,note_on,72,0,1,,,,,,,,,0,,,50,80
39900,note_on,0,0,1,,,,,,,,,0,,,46,80
39912,note_on,192,0,4,,,,,,,,,0,,,34,0
39912,set_tempo,33,1,0,,,,,,526316,,,,,,,
39936,note_on,96,0,3,,,,,,,,,0,,,40,0
39936,note_on,0,0,3,,,,,,,,,0,,,38,0
39948,set_tempo,36,1,0,,,,,,529101,,,,,,,
39948,note_on,0,0,1,,,,,,,,,0,,,53,0
39948,note_on,48,0,1,,,,,,,,,0,,,46,0
39948,note_on,0,0,1,,,,,,,,,0,,,50,0
39960,note_on,48,0,4,,,,,,,,,0,,,29,88
39960,note_on,0,0,3,,,,,,,,,0,,,40,48
39960,note_on,24,0,3,,,,,,,,,0,,,38,48
39982,set_tempo,34,1,0,,,,,,531915,,,,,,,
40016,set_tempo,34,1,0,,,,,,534759,,,,,,,
40020,note_on,0,0,1,,,,,,,,,0,,,50,80
40020,note_on,0,0,1,,,,,,,,,0,,,58,80
40020,note_on,72,0,1,,,,,,,,,0,,,46,80
40052,set_tempo,36,1,0,,,,,,537634,,,,,,,
40056,note_on,0,0,3,,,,,,,,,0,,,38,0
40056,note_on,96,0,3,,,,,,,,,0,,,40,0
40068,note_on,0,0,1,,,,,,,,,0,,,46,0
40068,note_on,0,0,1,,,,,,,,,0,,,50,0
40068,note_on,48,0,1,,,,,,,,,0,,,58,0
40080,note_on,24,0,3,,,,,,,,,0,,,38,48
40080,note_on,0,0,3,,,,,,,,,0,,,40,48
40085,set_tempo,33,1,0,,,,,,540541,,,,,,,
40121,set_tempo,36,1,0,,,,,,543478,,,,,,,
40140,note_on,72,0,1,,,,,,,,,0,,,53,80
40140,note_on,0,0,1,,,,,,,,,0,,,50,80
40140,note_on,0,0,1,,,,,,,,,0,,,46,80
40152,note_on,192,0,4,,,,,,,,,0,,,29,0
40155,set_tempo,34,1,0,,,,,,546448,,,,,,,
40176,note_on,0,0,3,,,,,,,,,0,,,38,0
40176,note_on,96,0,3,,,,,,,,,0,,,40,0
40188,note_on,0,0,1,,,,,,,,,0,,,53,0
40188,note_on,0,0,1,,,,,,,,,0,,,46,0
40188,note_on,48,0,1,,,,,,,,,0,,,50,0
40191,set_tempo,36,1,0,,,,,,549451,,,,,,,
40200,note_on,24,0,3,,,,,,,,,0,,,40,48
40200,note_on,0,0,3,,,,,,,,,0,,,38,48
40200,note_on,48,0,4,,,,,,,,,0,,,35,88
40200,control_change,12,0,1,,,,,,,,,0,64,0,,
40224,set_tempo,33,1,0,,,,,,552486,,,,,,,
40260,note_on,0,0,1,,,,,,,,,0,,,59,80
40260,note_on,60,0,1,,,,,,,,,0,,,47,80
40260,set_tempo,36,1,0,,,,,,555556,,,,,,,
40260,note_on,0,0,1,,,,,,,,,0,,,56,80
40260,note_on,0,0,1,,,,,,,,,0,,,50,80
40282,control_change,22,0,1,,,,,,,,,0,64,127,,
40294,set_tempo,34,1,0,,,,,,558659,,,,,,,
40296,note_on,96,0,3,,,,,,,,,0,,,38,0
40296,note_on,0,0,3,,,,,,,,,0,,,40,0
40308,note_on,0,0,1,,,,,,,,,0,,,59,0
40308,note_on,0,0,1,,,,,,,,,0,,,50,0
40308,note_on,0,0,1,,,,,,,,,0,,,47,0
40308,note_on,26,0,1,,,,,,,,,0,,,56,0
40320,note_on,24,0,3,,,,,,,,,0,,,38,48
40320,note_on,0,0,3,,,,,,,,,0,,,40,48
40330,set_tempo,36,1,0,,,,,,561798,,,,,,,
40364,set_tempo,34,1,0,,,,,,564972,,,,,,,
40380,note_on,0,0,1,,,,,,,,,0,,,50,80
40380,note_on,0,0,1,,,,,,,,,0,,,53,80
40380,note_on,72,0,1,,,,,,,,,0,,,47,80
40392,note_on,192,0,4,,,,,,,,,0,,,35,0
40400,set_tempo,36,1,0,,,,,,568182,,,,,,,
40416,note_on,0,0,3,,,,,,,,,0,,,38,0
40416,note_on,96,0,3,,,,,,,,,0,,,40,0
40428,note_on,0,0,1,,,,,,,,,0,,,47,0
40428,note_on,0,0,1,,,,,,,,,0,,,50,0
40428,note_on,48,0,1,,,,,,,,,0,,,53,0
40433,set_tempo,33,1,0,,,,,,571429,,,,,,,
40440,note_on,0,0,3,,,,,,,,,0,,,40,48
40440,note_on,48,0,4,,,,,,,,,0,,,29,88
40440,note_on,24,0,3,,,,,,,,,0,,,38,48
40467,set_tempo,34,1,0,,,,,,574713,,,,,,,
40495,control_change,67,0,1,,,,,,,,,0,64,0,,
40500,note_on,0,0,1,,,,,,,,,0,,,57,80
40500,note_on,0,0,1,,,,,,,,,0,,,50,80
40500,note_on,0,0,1,,,,,,,,,0,,,47,80
40500,note_on,5,0,1,,,,,,,,,0,,,59,80
40503,set_tempo,36,1,0,,,,,,578035,,,,,,,
40536,note_on,0,0,3,,,,,,,,,0,,,38,0
40536,set_tempo,33,1,0,,,,,,581395,,,,,,,
40536,note_on,96,0,3,,,,,,,,,0,,,40,0
40548,note_on,0,0,1,,,,,,,,,0,,,50,0
40548,note_on,0,0,1,,,,,,,,,0,,,47,0
40548,note_on,0,0,1,,,,,,,,,0,,,59,0
40548,note_on,48,0,1,,,,,,,,,0,,,57,0
40549,control_change,1,0,1,,,,,,,,,0,64,127,,
40560,note_on,24,0,3,,,,,,,,,0,,,40,48
40560,note_on,0,0,3,,,,,,,,,0,,,38,48
40572,set_tempo,36,1,0,,,,,,584795,,,,,,,
40606,set_tempo,34,1,0,,,,,,588235,,,,,,,
40620,note_on,71,0,1,,,,,,,,,0,,,47,80
40620,note_on,0,0,1,,,,,,,,,0,,,50,80
40620,note_on,0,0,1,,,,,,,,,0,,,53,80
40632,note_on,192,0,4,,,,,,,,,0,,,29,0
40642,set_tempo,36,1,0,,,,,,591716,,,,,,,
40656,note_on,96,0,3,,,,,,,,,0,,,38,0
40656,note_on,0,0,3,,,,,,,,,0,,,40,0
40668,note_on,48,0,1,,,,,,,,,0,,,50,0
40668,note_on,0,0,1,,,,,,,,,0,,,53,0
40668,note_on,0,0,1,,,,,,,,,0,,,47,0
40676,set_tempo,34,1,0,,,,,,595238,,,,,,,
40680,note_on,48,0,4,,,,,,,,,0,,,29,88
40680,note_on,0,0,3,,,,,,,,,0,,,35,48
40680,note_on,0,0,3,,,,,,,,,0,,,39,48
40680,note_on,24,0,3,,,,,,,,,0,,,40,48
40712,set_tempo,36,1,0,,,,,,598802,,,,,,,
40735,control_change,67,0,1,,,,,,,,,0,64,0,,
40740,note_on,0,0,1,,,,,,,,,0,,,47,80
40740,note_on,0,0,1,,,,,,,,,0,,,57,80
40740,note_on,0,0,1,,,,,,,,,0,,,59,80
40740,note_on,5,0,1,,,,,,,,,0,,,51,80
40745,set_tempo,33,1,0,,,,,,602410,,,,,,,
40773,control_change,33,0,1,,,,,,,,,0,64,127,,
40776,note_on,96,0,3,,,,,,,,,0,,,35,0
40776,note_on,0,0,3,,,,,,,,,0,,,39,0
40776,note_on,0,0,3,,,,,,,,,0,,,40,0
40781,set_tempo,36,1,0,,,,,,606061,,,,,,,
40788,note_on,0,0,1,,,,,,,,,0,,,51,0
40788,note_on,15,0,1,,,,,,,,,0,,,57,0
40788,note_on,0,0,1,,,,,,,,,0,,,47,0
40788,note_on,0,0,1,,,,,,,,,0,,,59,0
40800,note_on,24,0,3,,,,,,,,,0,,,40,48
40800,note_on,0,0,3,,,,,,,,,0,,,39,48
40815,set_tempo,34,1,0,,,,,,609756,,,,,,,
40851,set_tempo,36,1,0,,,,,,613497,,,,,,,
40860,note_on,72,0,1,,,,,,,,,0,,,47,80
40860,note_on,0,0,1,,,,,,,,,0,,,53,80
40860,note_on,0,0,1,,,,,,,,,0,,,50,80
40872,note_on,192,0,4,,,,,,,,,0,,,29,0
40884,set_tempo,33,1,0,,,,,,617284,,,,,,,
40896,note_on,0,0,3,,,,,,,,,0,,,40,0
40896,note_on,96,0,3,,,,,,,,,0,,,39,0
40908,note_on,0,0,1,,,,,,,,,0,,,47,0
40908,note_on,0,0,1,,,,,,,,,0,,,50,0
40908,note_on,48,0,1,,,,,,,,,0,,,53,0
40913,set_tempo,29,1,0,,,,,,386100,,,,,,,
40920,note_on,0,0,1,,,,,,,,,0,,,52,80
40920,note_on,0,0,1,,,,,,,,,0,,,56,80
40920,note_on,0,0,1,,,,,,,,,0,,,64,80
40920,control_change,12,0,1,,,,,,,,,0,64,0,,
40920,note_on,48,0,4,,,,,,,,,0,,,28,80
40920,note_on,0,0,4,,,,,,,,,0,,,40,80
40920,note_on,0,0,4,,,,,,,,,0,,,35,80
41016,note_on,96,0,4,,,,,,,,,0,,,40,0
41016,note_on,0,0,4,,,,,,,,,0,,,35,0
41016,note_on,0,0,1,,,,,,,,,0,,,64,0
41016,note_on,0,0,1,,,,,,,,,0,,,52,0
41016,note_on,0,0,4,,,,,,,,,0,,,28,0
41016,note_on,96,0,1,,,,,,,,,0,,,56,0
41040,note_on,24,0,4,,,,,,,,,0,,,40,80
41070,control_change,54,0,1,,,,,,,,,0,64,127,,
41088,note_on,48,0,4,,,,,,,,,0,,,40,0
41100,note_on,12,0,4,,,,,,,,,0,,,52,80
41148,note_on,48,0,4,,,,,,,,,0,,,52,0
41160,note_on,12,0,4,,,,,,,,,0,,,52,80
41208,note_on,48,0,4,,,,,,,,,0,,,52,0
41220,note_on,12,0,4,,,,,,,,,0,,,64,80
41268,note_on,48,0,4,,,,,,,,,0,,,64,0
41280,note_on,12,0,4,,,,,,,,,0,,,64,80
41328,note_on,48,0,4,,,,,,,,,0,,,64,0
41340,note_on,12072,0,2,,,,,,,,,0,,,76,80
41388,note_on,48,0,2,,,,,,,,,0,,,76,0
41400,note_on,12,0,2,,,,,,,,,0,,,76,80
41448,note_on,48,0,2,,,,,,,,,0,,,76,0
41460,note_on,12,0,2,,,,,,,,,0,,,88,80
41508,note_on,48,0,2,,,,,,,,,0,,,88,0
41520,note_on,12,0,2,,,,,,,,,0,,,88,80
41568,note_on,48,0,2,,,,,,,,,0,,,88,0
41580,note_on,12,0,2,,,,,,,,,0,,,100,80
41628,note_on,48,0,2,,,,,,,,,0,,,100,0
41640,note_on,0,0,1,,,,,,,,,0,,,88,80
41640,control_change,570,0,1,,,,,,,,,0,64,0,,
41640,note_on,0,0,1,,,,,,,,,0,,,86,80
41688,note_on,0,0,1,,,,,,,,,0,,,88,0
41688,note_on,48,0,1,,,,,,,,,0,,,86,0
41691,control_change,3,0,1,,,,,,,,,0,64,127,,
41700,note_on,9,0,1,,,,,,,,,0,,,100,80
41700,note_on,0,0,1,,,,,,,,,0,,,98,80
41748,note_on,48,0,1,,,,,,,,,0,,,98,0
41748,note_on,0,0,1,,,,,,,,,0,,,100,0
41760,note_on,0,0,1,,,,,,,,,0,,,76,80
41760,note_on,12,0,1,,,,,,,,,0,,,74,80
41808,note_on,0,0,1,,,,,,,,,0,,,74,0
41808,note_on,48,0,1,,,,,,,,,0,,,76,0
41820,note_on,0,0,1,,,,,,,,,0,,,86,80
41820,note_on,12,0,1,,,,,,,,,0,,,88,80
41868,note_on,0,0,1,,,,,,,,,0,,,88,0
41868,note_on,48,0,1,,,,,,,,,0,,,86,0
41880,note_on,0,0,1,,,,,,,,,0,,,64,80
41880,note_on,12,0,1,,,,,,,,,0,,,62,80
41928,note_on,48,0,1,,,,,,,,,0,,,64,0
41928,note_on,0,0,1,,,,,,,,,0,,,62,0
41940,note_on,0,0,1,,,,,,,,,0,,,74,80
41940,note_on,12,0,1,,,,,,,,,0,,,76,80
41988,note_on,0,0,1,,,,,,,,,0,,,76,0
41988,note_on,48,0,1,,,,,,,,,0,,,74,0
42000,note_on,1104,0,3,,,,,,,,,0,,,50,80
42000,note_on,0,0,3,,,,,,,,,0,,,52,80
42048,note_on,0,0,3,,,,,,,,,0,,,50,0
42048,note_on,48,0,3,,,,,,,,,0,,,52,0
42060,note_on,0,0,3,,,,,,,,,0,,,64,80
42060,note_on,12,0,3,,,,,,,,,0,,,62,80
42108,note_on,0,0,3,,,,,,,,,0,,,62,0
42108,note_on,48,0,3,,,,,,,,,0,,,64,0
42120,note_on,12,0,3,,,,,,,,,0,,,40,80
42120,note_on,0,0,3,,,,,,,,,0,,,38,80
42168,note_on,48,0,3,,,,,,,,,0,,,38,0
42168,note_on,0,0,3,,,,,,,,,0,,,40,0
42180,note_on,12,0,3,,,,,,,,,0,,,50,80
42180,note_on,0,0,3,,,,,,,,,0,,,52,80
42228,note_on,0,0,3,,,,,,,,,0,,,50,0
42228,note_on,48,0,3,,,,,,,,,0,,,52,0
42240,note_on,12,0,3,,,,,,,,,0,,,52,80
42240,note_on,0,0,3,,,,,,,,,0,,,50,80
42288,note_on,0,0,3,,,,,,,,,0,,,52,0
42288,note_on,48,0,3,,,,,,,,,0,,,50,0
42300,note_on,0,0,3,,,,,,,,,0,,,62,80
42300,note_on,12,0,3,,,,,,,,,0,,,64,80
42348,note_on,48,0,3,,,,,,,,,0,,,62,0
42348,note_on,0,0,3,,,,,,,,,0,,,64,0
42360,note_on,1032,0,4,,,,,,,,,0,,,36,80
42360,note_on,0,0,4,,,,,,,,,0,,,40,80
42360,control_change,372,0,1,,,,,,,,,0,64,0,,
42408,note_on,48,0,4,,,,,,,,,0,,,40,0
42408,note_on,0,0,4,,,,,,,,,0,,,36,0
42420,control_change,60,0,1,,,,,,,,,0,64,127,,
42420,note_on,0,0,1,,,,,,,,,0,,,52,80
42420,note_on,0,0,1,,,,,,,,,0,,,48,80
42468,note_on,0,0,1,,,,,,,,,0,,,52,0
42468,note_on,48,0,1,,,,,,,,,0,,,48,0
42480,note_on,72,0,4,,,,,,,,,0,,,52,80
42480,note_on,0,0,4,,,,,,,,,0,,,48,80
42528,note_on,0,0,4,,,,,,,,,0,,,52,0
42528,note_on,48,0,4,,,,,,,,,0,,,48,0
42540,note_on,72,0,1,,,,,,,,,0,,,64,80
42540,note_on,0,0,1,,,,,,,,,0,,,60,80
42588,note_on,48,0,1,,,,,,,,,0,,,60,0
42588,note_on,0,0,1,,,,,,,,,0,,,64,0
42600,note_on,0,0,4,,,,,,,,,0,,,64,80
42600,note_on,72,0,4,,,,,,,,,0,,,60,80
42648,note_on,0,0,4,,,,,,,,,0,,,60,0
42648,note_on,48,0,4,,,,,,,,,0,,,64,0
42660,note_on,0,0,1,,,,,,,,,0,,,76,80
42660,note_on,72,0,1,,,,,,,,,0,,,72,80
42708,note_on,0,0,1,,,,,,,,,0,,,72,0
42708,note_on,48,0,1,,,,,,,,,0,,,76,0
42720,note_on,1092,0,2,,,,,,,,,0,,,72,80
42720,note_on,0,0,2,,,,,,,,,0,,,76,80
42768,note_on,0,0,2,,,,,,,,,0,,,72,0
42768,note_on,48,0,2,,,,,,,,,0,,,76,0
42780,note_on,0,0,1,,,,,,,,,0,,,84,80
42780,note_on,72,0,1,,,,,,,,,0,,,88,80
42828,note_on,0,0,1,,,,,,,,,0,,,88,0
42828,note_on,48,0,1,,,,,,,,,0,,,84,0
42840,note_on,0,0,2,,,,,,,,,0,,,88,80
42840,note_on,72,0,2,,,,,,,,,0,,,84,80
42888,note_on,0,0,2,,,,,,,,,0,,,84,0
42888,note_on,48,0,2,,,,,,,,,0,,,88,0
42900,note_on,0,0,1,,,,,,,,,0,,,96,80
42900,note_on,72,0,1,,,,,,,,,0,,,100,80
42948,note_on,0,0,1,,,,,,,,,0,,,100,0
42948,note_on,48,0,1,,,,,,,,,0,,,96,0
42960,note_on,0,0,2,,,,,,,,,0,,,76,80
42960,note_on,72,0,2,,,,,,,,,0,,,72,80
43008,note_on,48,0,2,,,,,,,,,0,,,76,0
43008,note_on,0,0,2,,,,,,,,,0,,,72,0
43020,note_on,0,0,1,,,,,,,,,0,,,84,80
43020,note_on,72,0,1,,,,,,,,,0,,,88,80
43068,note_on,48,0,1,,,,,,,,,0,,,84,0
43068,note_on,0,0,1,,,,,,,,,0,,,88,0
43078,set_tempo,2165,1,0,,,,,,381679,,,,,,,
43080,control_change,12,0,1,,,,,,,,,0,64,0,,
43080,note_on,72,0,2,,,,,,,,,0,,,71,80
43080,note_on,0,0,2,,,,,,,,,0,,,76,80
43090,set_tempo,12,1,0,,,,,,383142,,,,,,,
43102,set_tempo,12,1,0,,,,,,384615,,,,,,,
43114,set_tempo,12,1,0,,,,,,386100,,,,,,,
43124,control_change,44,0,1,,,,,,,,,0,64,127,,
43126,set_tempo,12,1,0,,,,,,387597,,,,,,,
43128,note_on,0,0,2,,,,,,,,,0,,,71,0
43128,note_on,48,0,2,,,,,,,,,0,,,76,0
43135,set_tempo,9,1,0,,,,,,389105,,,,,,,
43140,note_on,0,0,1,,,,,,,,,0,,,88,80
43140,note_on,16,0,1,,,,,,,,,0,,,83,80
43147,set_tempo,12,1,0,,,,,,390625,,,,,,,
43159,set_tempo,12,1,0,,,,,,392157,,,,,,,
43171,set_tempo,12,1,0,,,,,,393701,,,,,,,
43183,set_tempo,12,1,0,,,,,,395257,,,,,,,
43188,note_on,48,0,1,,,,,,,,,0,,,88,0
43188,note_on,0,0,1,,,,,,,,,0,,,83,0
43193,set_tempo,10,1,0,,,,,,396825,,,,,,,
43200,note_on,0,0,3,,,,,,,,,0,,,64,80
43200,note_on,852,0,3,,,,,,,,,0,,,59,80
43205,set_tempo,12,1,0,,,,,,398406,,,,,,,
43217,set_tempo,12,1,0,,,,,,400000,,,,,,,
43229,set_tempo,12,1,0,,,,,,401606,,,,,,,
43241,set_tempo,12,1,0,,,,,,403226,,,,,,,
43248,note_on,48,0,3,,,,,,,,,0,,,64,0
43248,note_on,0,0,3,,,,,,,,,0,,,59,0
43250,set_tempo,9,1,0,,,,,,404858,,,,,,,
43260,note_on,72,0,1,,,,,,,,,0,,,76,80
43260,note_on,0,0,1,,,,,,,,,0,,,71,80
43262,set_tempo,12,1,0,,,,,,406504,,,,,,,
43274,set_tempo,12,1,0,,,,,,408163,,,,,,,
43286,set_tempo,12,1,0,,,,,,409836,,,,,,,
43298,set_tempo,12,1,0,,,,,,411523,,,,,,,
43308,note_on,0,0,1,,,,,,,,,0,,,76,0
43308,set_tempo,10,1,0,,,,,,413223,,,,,,,
43308,note_on,48,0,1,,,,,,,,,0,,,71,0
43320,note_on,72,0,3,,,,,,,,,0,,,47,80
43320,set_tempo,12,1,0,,,,,,414938,,,,,,,
43320,note_on,0,0,3,,,,,,,,,0,,,52,80
43332,set_tempo,12,1,0,,,,,,416667,,,,,,,
43344,set_tempo,12,1,0,,,,,,418410,,,,,,,
43354,set_tempo,10,1,0,,,,,,420168,,,,,,,
43366,set_tempo,12,1,0,,,,,,421941,,,,,,,
43368,note_on,48,0,3,,,,,,,,,0,,,52,0
43368,note_on,0,0,3,,,,,,,,,0,,,47,0
43378,set_tempo,12,1,0,,,,,,423729,,,,,,,
43380,note_on,0,0,1,,,,,,,,,0,,,59,80
43380,note_on,72,0,1,,,,,,,,,0,,,64,80
43390,set_tempo,12,1,0,,,,,,425532,,,,,,,
43402,set_tempo,12,1,0,,,,,,427350,,,,,,,
43411,set_tempo,9,1,0,,,,,,429185,,,,,,,
43423,set_tempo,12,1,0,,,,,,431034,,,,,,,
43428,note_on,0,0,1,,,,,,,,,0,,,64,0
43428,note_on,48,0,1,,,,,,,,,0,,,59,0
43435,set_tempo,12,1,0,,,,,,432900,,,,,,,
43440,note_on,0,0,3,,,,,,,,,0,,,40,80
43440,note_on,72,0,3,,,,,,,,,0,,,35,80
43447,set_tempo,12,1,0,,,,,,434783,,,,,,,
43459,set_tempo,12,1,0,,,,,,436681,,,,,,,
43469,set_tempo,10,1,0,,,,,,438596,,,,,,,
43481,set_tempo,12,1,0,,,,,,440529,,,,,,,
43488,note_on,0,0,3,,,,,,,,,0,,,35,0
43488,note_on,48,0,3,,,,,,,,,0,,,40,0
43493,set_tempo,12,1,0,,,,,,442478,,,,,,,
43500,note_on,0,0,4,,,,,,,,,0,,,52,80
43500,note_on,852,0,4,,,,,,,,,0,,,47,80
43505,set_tempo,12,1,0,,,,,,444444,,,,,,,
43517,set_tempo,12,1,0,,,,,,446429,,,,,,,
43526,set_tempo,9,1,0,,,,,,448430,,,,,,,
43538,set_tempo,12,1,0,,,,,,450450,,,,,,,
43548,note_on,48,0,4,,,,,,,,,0,,,52,0
43548,note_on,0,0,4,,,,,,,,,0,,,47,0
43550,set_tempo,12,1,0,,,,,,452489,,,,,,,
43555,set_tempo,5,1,0,,,,,,452489,,,,,,,
43560,note_on,0,0,3,,,,,,,,,0,,,40,80
43560,note_on,72,0,3,,,,,,,,,0,,,34,80
43560,set_tempo,5,1,0,,,,,,454545,,,,,,,
43562,set_tempo,2,1,0,,,,,,456621,,,,,,,
43565,set_tempo,3,1,0,,,,,,458716,,,,,,,
43570,set_tempo,5,1,0,,,,,,460829,,,,,,,
43572,set_tempo,2,1,0,,,,,,462963,,,,,,,
43574,set_tempo,2,1,0,,,,,,465116,,,,,,,
43577,set_tempo,3,1,0,,,,,,467290,,,,,,,
43582,set_tempo,5,1,0,,,,,,469484,,,,,,,
43584,set_tempo,2,1,0,,,,,,471698,,,,,,,
43586,set_tempo,2,1,0,,,,,,473934,,,,,,,
43589,set_tempo,3,1,0,,,,,,476190,,,,,,,
43594,set_tempo,5,1,0,,,,,,478469,,,,,,,
43596,set_tempo,2,1,0,,,,,,480769,,,,,,,
43598,set_tempo,2,1,0,,,,,,483092,,,,,,,
43603,set_tempo,5,1,0,,,,,,485437,,,,,,,
43606,set_tempo,3,1,0,,,,,,487805,,,,,,,
43608,note_on,48,0,3,,,,,,,,,0,,,40,0
43608,note_on,0,0,3,,,,,,,,,0,,,34,0
43608,set_tempo,2,1,0,,,,,,490196,,,,,,,
43610,set_tempo,2,1,0,,,,,,492611,,,,,,,
43615,set_tempo,5,1,0,,,,,,495050,,,,,,,
43618,set_tempo,3,1,0,,,,,,497512,,,,,,,
43620,note_on,0,0,4,,,,,,,,,0,,,46,80
43620,note_on,72,0,4,,,,,,,,,0,,,52,80
43620,set_tempo,2,1,0,,,,,,500000,,,,,,,
43622,set_tempo,2,1,0,,,,,,502513,,,,,,,
43627,set_tempo,5,1,0,,,,,,505051,,,,,,,
43630,set_tempo,3,1,0,,,,,,507614,,,,,,,
43632,set_tempo,2,1,0,,,,,,510204,,,,,,,
43637,set_tempo,5,1,0,,,,,,512821,,,,,,,
43639,set_tempo,2,1,0,,,,,,515464,,,,,,,
43642,set_tempo,3,1,0,,,,,,518135,,,,,,,
43644,set_tempo,2,1,0,,,,,,520833,,,,,,,
43649,set_tempo,5,1,0,,,,,,523560,,,,,,,
43651,set_tempo,2,1,0,,,,,,526316,,,,,,,
43654,set_tempo,3,1,0,,,,,,529101,,,,,,,
43656,set_tempo,2,1,0,,,,,,531915,,,,,,,
43661,set_tempo,5,1,0,,,,,,534759,,,,,,,
43663,set_tempo,2,1,0,,,,,,537634,,,,,,,
43666,set_tempo,3,1,0,,,,,,540541,,,,,,,
43668,note_on,48,0,4,,,,,,,,,0,,,46,0
43668,note_on,0,0,4,,,,,,,,,0,,,52,0
43668,set_tempo,2,1,0,,,,,,543478,,,,,,,
43673,set_tempo,5,1,0,,,,,,546448,,,,,,,
43675,set_tempo,2,1,0,,,,,,549451,,,,,,,
43678,set_tempo,3,1,0,,,,,,552486,,,,,,,
43680,note_on,72,0,3,,,,,,,,,0,,,46,80
43680,note_on,0,0,3,,,,,,,,,0,,,52,80
43682,set_tempo,4,1,0,,,,,,555556,,,,,,,
43685,set_tempo,3,1,0,,,,,,558659,,,,,,,
43687,set_tempo,2,1,0,,,,,,561798,,,,,,,
43690,set_tempo,3,1,0,,,,,,564972,,,,,,,
43694,set_tempo,4,1,0,,,,,,568182,,,,,,,
43697,set_tempo,3,1,0,,,,,,571429,,,,,,,
43699,set_tempo,2,1,0,,,,,,574713,,,,,,,
43702,set_tempo,3,1,0,,,,,,578035,,,,,,,
43706,set_tempo,4,1,0,,,,,,581395,,,,,,,
43709,set_tempo,3,1,0,,,,,,584795,,,,,,,
43711,set_tempo,2,1,0,,,,,,588235,,,,,,,
43716,set_tempo,5,1,0,,,,,,591716,,,,,,,
43718,set_tempo,2,1,0,,,,,,595238,,,,,,,
43721,set_tempo,3,1,0,,,,,,598802,,,,,,,
43723,set_tempo,2,1,0,,,,,,602410,,,,,,,
43728,note_on,0,0,3,,,,,,,,,0,,,46,0
43728,set_tempo,5,1,0,,,,,,606061,,,,,,,
43728,note_on,48,0,3,,,,,,,,,0,,,52,0
43730,set_tempo,2,1,0,,,,,,609756,,,,,,,
43733,set_tempo,3,1,0,,,,,,613497,,,,,,,
43735,set_tempo,2,1,0,,,,,,617284,,,,,,,
43740,note_on,0,0,4,,,,,,,,,0,,,58,80
43740,set_tempo,5,1,0,,,,,,625000,,,,,,,
43740,note_on,72,0,4,,,,,,,,,0,,,64,80
43752,set_tempo,12,1,0,,,,,,628931,,,,,,,
43759,set_tempo,7,1,0,,,,,,628931,,,,,,,
43760,note_on,632,0,2,,,,,,,,,0,,,57,55
43769,set_tempo,10,1,0,,,,,,625000,,,,,,,
43772,set_tempo,3,1,0,,,,,,2500000,,,,,,,
43780,note_on,20,0,2,,,,,,,,,0,,,60,55
43788,note_on,0,0,4,,,,,,,,,0,,,64,0
43788,note_on,48,0,4,,,,,,,,,0,,,58,0
43796,set_tempo,24,1,0,,,,,,2439024,,,,,,,
43798,set_tempo,2,1,0,,,,,,641026,,,,,,,
43800,control_change,372,0,1,,,,,,,,,0,64,0,,
43800,note_on,12,0,4,,,,,,,,,0,,,40,68
43800,note_on,0,0,1,,,,,,,,,0,,,64,55
43800,set_tempo,2,1,0,,,,,,561798,,,,,,,
43800,note_on,0,0,4,,,,,,,,,0,,,33,68
43800,note_on,0,0,4,,,,,,,,,0,,,45,68
43802,set_tempo,2,1,0,,,,,,500000,,,,,,,
43832,note_on,0,0,2,,,,,,,,,0,,,57,0
43832,note_on,32,0,1,,,,,,,,,0,,,64,0
43832,note_on,52,0,2,,,,,,,,,0,,,60,0
43840,note_on,8,0,1,,,,,,,,,0,,,69,56
43872,note_on,32,0,1,,,,,,,,,0,,,69,0
43880,note_on,8,0,1,,,,,,,,,0,,,68,56
43896,note_on,0,0,4,,,,,,,,,0,,,45,0
43896,note_on,96,0,4,,,,,,,,,0,,,33,0
43896,note_on,0,0,4,,,,,,,,,0,,,40,0
43900,note_on,68,0,2,,,,,,,,,0,,,64,58
43912,note_on,32,0,1,,,,,,,,,0,,,68,0
43920,note_on,8,0,1,,,,,,,,,0,,,69,57
43920,note_on,24,0,4,,,,,,,,,0,,,48,54
43920,note_on,0,0,4,,,,,,,,,0,,,57,54
43952,note_on,32,0,1,,,,,,,,,0,,,69,0
43952,note_on,52,0,2,,,,,,,,,0,,,64,0
43960,note_on,8,0,1,,,,,,,,,0,,,72,58
43968,note_on,0,0,4,,,,,,,,,0,,,48,0
43968,note_on,48,0,4,,,,,,,,,0,,,57,0
43980,note_on,0,0,4,,,,,,,,,0,,,59,54
43980,note_on,12,0,4,,,,,,,,,0,,,52,54
43992,note_on,32,0,1,,,,,,,,,0,,,72,0
44000,note_on,8,0,1,,,,,,,,,0,,,71,58
44020,note_on,68,0,2,,,,,,,,,0,,,69,63
44028,note_on,0,0,4,,,,,,,,,0,,,52,0
44028,note_on,48,0,4,,,,,,,,,0,,,59,0
44032,note_on,32,0,1,,,,,,,,,0,,,71,0
44040,note_on,8,0,1,,,,,,,,,0,,,72,59
44040,note_on,12,0,4,,,,,,,,,0,,,57,68
44040,note_on,0,0,4,,,,,,,,,0,,,60,68
44072,note_on,52,0,2,,,,,,,,,0,,,69,0
44072,note_on,32,0,1,,,,,,,,,0,,,72,0
44080,note_on,8,0,1,,,,,,,,,0,,,76,60
44112,note_on,32,0,1,,,,,,,,,0,,,76,0
44120,note_on,8,0,1,,,,,,,,,0,,,75,61
44136,note_on,0,0,4,,,,,,,,,0,,,57,0
44136,note_on,96,0,4,,,,,,,,,0,,,60,0
44140,note_on,68,0,2,,,,,,,,,0,,,72,67
44152,note_on,32,0,1,,,,,,,,,0,,,75,0
44160,note_on,8,0,1,,,,,,,,,0,,,76,61
44160,note_on,24,0,4,,,,,,,,,0,,,33,54
44160,note_on,0,0,4,,,,,,,,,0,,,40,54
44192,note_on,32,0,1,,,,,,,,,0,,,76,0
44192,note_on,52,0,2,,,,,,,,,0,,,72,0
44200,note_on,8,0,1,,,,,,,,,0,,,81,62
44232,note_on,32,0,1,,,,,,,,,0,,,81,0
44240,note_on,8,0,1,,,,,,,,,0,,,80,63
44256,note_on,0,0,4,,,,,,,,,0,,,33,0
44256,note_on,96,0,4,,,,,,,,,0,,,40,0
44260,note_on,68,0,2,,,,,,,,,0,,,76,71
44272,note_on,32,0,1,,,,,,,,,0,,,80,0
44280,note_on,0,0,4,,,,,,,,,0,,,33,54
44280,note_on,24,0,4,,,,,,,,,0,,,40,54
44280,note_on,8,0,1,,,,,,,,,0,,,81,63
44312,note_on,52,0,2,,,,,,,,,0,,,76,0
44312,note_on,32,0,1,,,,,,,,,0,,,81,0
44320,note_on,8,0,1,,,,,,,,,0,,,84,64
44352,note_on,32,0,1,,,,,,,,,0,,,84,0
44360,note_on,8,0,1,,,,,,,,,0,,,83,65
44376,note_on,0,0,4,,,,,,,,,0,,,40,0
44376,note_on,96,0,4,,,,,,,,,0,,,33,0
44380,note_on,68,0,2,,,,,,,,,0,,,81,75
44392,note_on,32,0,1,,,,,,,,,0,,,83,0
44400,note_on,0,0,4,,,,,,,,,0,,,40,54
44400,note_on,24,0,4,,,,,,,,,0,,,33,54
44400,note_on,8,0,1,,,,,,,,,0,,,84,65
44432,note_on,32,0,1,,,,,,,,,0,,,84,0
44440,note_on,8,0,1,,,,,,,,,0,,,88,66
44448,note_on,68,0,2,,,,,,,,,0,,,81,0
44472,note_on,32,0,1,,,,,,,,,0,,,88,0
44480,note_on,8,0,1,,,,,,,,,0,,,87,67
44496,note_on,96,0,4,,,,,,,,,0,,,40,0
44496,note_on,0,0,4,,,,,,,,,0,,,33,0
44512,note_on,32,0,1,,,,,,,,,0,,,87,0
44520,note_on,8,0,1,,,,,,,,,0,,,88,68
44520,note_on,24,0,4,,,,,,,,,0,,,57,68
44520,note_on,0,0,4,,,,,,,,,0,,,45,68
44520,note_on,0,0,1,,,,,,,,,0,,,84,68
44520,note_on,0,0,4,,,,,,,,,0,,,48,68
44552,note_on,32,0,1,,,,,,,,,0,,,84,0
44552,note_on,0,0,1,,,,,,,,,0,,,88,0
44560,note_on,8,0,1,,,,,,,,,0,,,93,68
44592,note_on,32,0,1,,,,,,,,,0,,,93,0
44600,note_on,8,0,1,,,,,,,,,0,,,92,69
44616,note_on,0,0,4,,,,,,,,,0,,,48,0
44616,note_on,0,0,4,,,,,,,,,0,,,57,0
44616,note_on,96,0,4,,,,,,,,,0,,,45,0
44632,note_on,32,0,1,,,,,,,,,0,,,92,0
44640,note_on,0,0,4,,,,,,,,,0,,,57,68
44640,note_on,8,0,1,,,,,,,,,0,,,88,70
44640,note_on,0,0,1,,,,,,,,,0,,,93,70
44640,note_on,24,0,4,,,,,,,,,0,,,52,68
44640,note_on,0,0,4,,,,,,,,,0,,,60,68
44672,note_on,32,0,1,,,,,,,,,0,,,93,0
44672,note_on,0,0,1,,,,,,,,,0,,,88,0
44680,note_on,8,0,1,,,,,,,,,0,,,96,70
44688,note_on,0,0,4,,,,,,,,,0,,,52,0
44688,note_on,0,0,4,,,,,,,,,0,,,57,0
44688,note_on,48,0,4,,,,,,,,,0,,,60,0
44700,note_on,12,0,4,,,,,,,,,0,,,62,68
44700,note_on,0,0,4,,,,,,,,,0,,,52,68
44700,note_on,0,0,4,,,,,,,,,0,,,59,68
44712,note_on,32,0,1,,,,,,,,,0,,,96,0
44720,note_on,8,0,1,,,,,,,,,0,,,95,71
44748,note_on,0,0,4,,,,,,,,,0,,,52,0
44748,note_on,0,0,4,,,,,,,,,0,,,62,0
44748,note_on,48,0,4,,,,,,,,,0,,,59,0
44752,note_on,32,0,1,,,,,,,,,0,,,95,0
44760,note_on,0,0,1,,,,,,,,,0,,,93,72
44760,note_on,8,0,1,,,,,,,,,0,,,96,72
44760,note_on,0,0,4,,,,,,,,,0,,,60,68
44760,note_on,12,0,4,,,,,,,,,0,,,57,68
44760,note_on,0,0,4,,,,,,,,,0,,,64,68
44792,note_on,32,0,1,,,,,,,,,0,,,93,0
44792,note_on,0,0,1,,,,,,,,,0,,,96,0
44800,note_on,8,0,1,,,,,,,,,0,,,100,72
44832,note_on,32,0,1,,,,,,,,,0,,,100,0
44840,note_on,8,0,1,,,,,,,,,0,,,99,73
44856,note_on,0,0,4,,,,,,,,,0,,,60,0
44856,note_on,96,0,4,,,,,,,,,0,,,64,0
44856,note_on,0,0,4,,,,,,,,,0,,,57,0
44872,note_on,32,0,1,,,,,,,,,0,,,99,0
44880,note_on,0,0,4,,,,,,,,,0,,,33,68
44880,note_on,0,0,4,,,,,,,,,0,,,40,68
44880,note_on,0,0,1,,,,,,,,,0,,,96,74
44880,note_on,8,0,1,,,,,,,,,0,,,93,74
44880,note_on,24,0,4,,,,,,,,,0,,,45,68
44880,note_on,0,0,1,,,,,,,,,0,,,101,74
44912,note_on,0,0,1,,,,,,,,,0,,,101,0
44912,note_on,0,0,1,,,,,,,,,0,,,93,0
44912,note_on,32,0,1,,,,,,,,,0,,,96,0
44920,note_on,8,0,1,,,,,,,,,0,,,100,74
44952,note_on,32,0,1,,,,,,,,,0,,,100,0
44960,note_on,8,0,1,,,,,,,,,0,,,99,75
44976,note_on,0,0,4,,,,,,,,,0,,,33,0
44976,note_on,0,0,4,,,,,,,,,0,,,45,0
44976,note_on,96,0,4,,,,,,,,,0,,,40,0
44992,note_on,32,0,1,,,,,,,,,0,,,99,0
45000,note_on,0,0,1,,,,,,,,,0,,,101,76
45000,note_on,0,0,1,,,,,,,,,0,,,93,76
45000,note_on,8,0,1,,,,,,,,,0,,,96,76
45000,note_on,24,0,4,,,,,,,,,0,,,45,68
45000,note_on,0,0,4,,,,,,,,,0,,,33,68
45000,note_on,0,0,4,,,,,,,,,0,,,40,68
45032,note_on,0,0,1,,,,,,,,,0,,,96,0
45032,note_on,32,0,1,,,,,,,,,0,,,101,0
45032,note_on,0,0,1,,,,,,,,,0,,,93,0
45040,note_on,8,0,1,,,,,,,,,0,,,100,77
45072,note_on,32,0,1,,,,,,,,,0,,,100,0
45080,note_on,8,0,1,,,,,,,,,0,,,99,77
45096,note_on,0,0,4,,,,,,,,,0,,,40,0
45096,note_on,96,0,4,,,,,,,,,0,,,33,0
45096,note_on,0,0,4,,,,,,,,,0,,,45,0
45112,note_on,32,0,1,,,,,,,,,0,,,99,0
45120,note_on,0,0,1,,,,,,,,,0,,,96,78
45120,note_on,0,0,1,,,,,,,,,0,,,93,78
45120,note_on,8,0,1,,,,,,,,,0,,,101,78
45120,note_on,24,0,4,,,,,,,,,0,,,33,68
45120,note_on,0,0,4,,,,,,,,,0,,,45,68
45120,note_on,0,0,4,,,,,,,,,0,,,40,68
45152,note_on,0,0,1,,,,,,,,,0,,,101,0
45152,note_on,0,0,1,,,,,,,,,0,,,96,0
45152,note_on,32,0,1,,,,,,,,,0,,,93,0
45160,note_on,8,0,1,,,,,,,,,0,,,100,79
45192,note_on,32,0,1,,,,,,,,,0,,,100,0
45200,note_on,8,0,1,,,,,,,,,0,,,99,79
45216,note_on,96,0,4,,,,,,,,,0,,,40,0
45216,note_on,0,0,4,,,,,,,,,0,,,45,0
45216,note_on,0,0,4,,,,,,,,,0,,,33,0
45232,note_on,32,0,1,,,,,,,,,0,,,99,0
45240,note_on,0,0,4,,,,,,,,,0,,,45,68
45240,note_on,24,0,4,,,,,,,,,0,,,38,68
45240,note_on,0,0,2,,,,,,,,,0,,,94,80
45240,note_on,792,0,2,,,,,,,,,0,,,89,80
45240,note_on,8,0,1,,,,,,,,,0,,,101,80
45272,note_on,32,0,1,,,,,,,,,0,,,101,0
45280,note_on,8,0,1,,,,,,,,,0,,,100,80
45312,note_on,32,0,1,,,,,,,,,0,,,100,0
45320,note_on,8,0,1,,,,,,,,,0,,,99,80
45336,note_on,0,0,2,,,,,,,,,0,,,89,0
45336,note_on,96,0,2,,,,,,,,,0,,,94,0
45336,note_on,96,0,4,,,,,,,,,0,,,45,0
45336,note_on,0,0,4,,,,,,,,,0,,,38,0
45352,note_on,32,0,1,,,,,,,,,0,,,99,0
45360,note_on,0,0,4,,,,,,,,,0,,,50,68
45360,note_on,24,0,4,,,,,,,,,0,,,53,68
45360,note_on,8,0,1,,,,,,,,,0,,,98,80
45360,note_on,0,0,4,,,,,,,,,0,,,58,68
45392,note_on,32,0,1,,,,,,,,,0,,,98,0
45400,note_on,8,0,1,,,,,,,,,0,,,97,80
45432,note_on,32,0,1,,,,,,,,,0,,,97,0
45440,note_on,8,0,1,,,,,,,,,0,,,96,80
45456,note_on,96,0,4,,,,,,,,,0,,,58,0
45456,note_on,0,0,4,,,,,,,,,0,,,50,0
45456,note_on,0,0,4,,,,,,,,,0,,,53,0
45472,note_on,32,0,1,,,,,,,,,0,,,96,0
45480,note_on,0,0,4,,,,,,,,,0,,,59,68
45480,note_on,0,0,4,,,,,,,,,0,,,57,68
45480,note_on,0,0,4,,,,,,,,,0,,,53,68
45480,note_on,24,0,4,,,,,,,,,0,,,62,68
45480,note_on,8,0,1,,,,,,,,,0,,,93,80
45480,note_on,0,0,1,,,,,,,,,0,,,89,80
45480,note_on,144,0,2,,,,,,,,,0,,,95,80
45512,note_on,0,0,1,,,,,,,,,0,,,93,0
45512,note_on,32,0,1,,,,,,,,,0,,,89,0
45520,note_on,8,0,1,,,,,,,,,0,,,88,80
45528,note_on,0,0,4,,,,,,,,,0,,,59,0
45528,note_on,48,0,4,,,,,,,,,0,,,53,0
45528,note_on,0,0,4,,,,,,,,,0,,,57,0
45528,note_on,0,0,4,,,,,,,,,0,,,62,0
45540,note_on,0,0,4,,,,,,,,,0,,,64,68
45540,note_on,12,0,4,,,,,,,,,0,,,59,68
45540,note_on,0,0,4,,,,,,,,,0,,,57,68
45540,note_on,0,0,4,,,,,,,,,0,,,53,68
45552,note_on,32,0,1,,,,,,,,,0,,,88,0
45560,note_on,8,0,1,,,,,,,,,0,,,87,80
45576,note_on,96,0,2,,,,,,,,,0,,,95,0
45588,note_on,0,0,4,,,,,,,,,0,,,59,0
45588,note_on,0,0,4,,,,,,,,,0,,,64,0
45588,note_on,48,0,4,,,,,,,,,0,,,53,0
45588,note_on,0,0,4,,,,,,,,,0,,,57,0
45592,note_on,32,0,1,,,,,,,,,0,,,87,0
45600,note_on,0,0,4,,,,,,,,,0,,,57,68
45600,note_on,8,0,1,,,,,,,,,0,,,86,80
45600,note_on,0,0,4,,,,,,,,,0,,,59,68
45600,note_on,12,0,4,,,,,,,,,0,,,65,68
45632,note_on,32,0,1,,,,,,,,,0,,,86,0
45640,note_on,8,0,1,,,,,,,,,0,,,85,80
45672,note_on,32,0,1,,,,,,,,,0,,,85,0
45680,note_on,8,0,1,,,,,,,,,0,,,84,80
45696,note_on,0,0,4,,,,,,,,,0,,,65,0
45696,note_on,96,0,4,,,,,,,,,0,,,59,0
45696,note_on,0,0,4,,,,,,,,,0,,,57,0
45712,note_on,32,0,1,,,,,,,,,0,,,84,0
45720,note_on,144,0,2,,,,,,,,,0,,,83,80
45720,note_on,8,0,1,,,,,,,,,0,,,80,80
45720,note_on,24,0,4,,,,,,,,,0,,,40,68
45720,note_on,0,0,4,,,,,,,,,0,,,52,68
45752,note_on,32,0,1,,,,,,,,,0,,,80,0
45760,note_on,8,0,1,,,,,,,,,0,,,77,80
45792,note_on,32,0,1,,,,,,,,,0,,,77,0
45800,note_on,8,0,1,,,,,,,,,0,,,75,80
45816,note_on,96,0,4,,,,,,,,,0,,,52,0
45816,note_on,96,0,2,,,,,,,,,0,,,83,0
45816,note_on,0,0,4,,,,,,,,,0,,,40,0
45832,note_on,32,0,1,,,,,,,,,0,,,75,0
45840,note_on,24,0,2,,,,,,,,,0,,,88,80
45840,note_on,0,0,4,,,,,,,,,0,,,59,68
45840,note_on,0,0,4,,,,,,,,,0,,,64,68
45840,note_on,8,0,1,,,,,,,,,0,,,76,80
45840,note_on,0,0,1,,,,,,,,,0,,,74,80
45840,note_on,24,0,4,,,,,,,,,0,,,56,68
45872,note_on,32,0,1,,,,,,,,,0,,,74,0
45872,note_on,0,0,1,,,,,,,,,0,,,76,0
45880,note_on,8,0,1,,,,,,,,,0,,,71,80
45912,note_on,32,0,1,,,,,,,,,0,,,71,0
45920,note_on,8,0,1,,,,,,,,,0,,,72,80
45936,note_on,96,0,2,,,,,,,,,0,,,88,0
45936,note_on,0,0,4,,,,,,,,,0,,,64,0
45936,note_on,0,0,4,,,,,,,,,0,,,56,0
45936,note_on,96,0,4,,,,,,,,,0,,,59,0
45952,note_on,32,0,1,,,,,,,,,0,,,72,0
45960,control_change,8,0,1,,,,,,,,,0,64,127,,
45960,note_on,0,0,4,,,,,,,,,0,,,60,68
45960,note_on,0,0,4,,,,,,,,,0,,,45,68
45960,note_on,24,0,4,,,,,,,,,0,,,52,68
45960,note_on,0,0,1,,,,,,,,,0,,,69,80
45992,note_on,32,0,1,,,,,,,,,0,,,69,0
46000,note_on,8,0,1,,,,,,,,,0,,,81,80
46032,note_on,32,0,1,,,,,,,,,0,,,81,0
46040,note_on,8,0,1,,,,,,,,,0,,,81,80
46056,note_on,96,0,4,,,,,,,,,0,,,45,0
46056,note_on,0,0,4,,,,,,,,,0,,,60,0
46056,note_on,0,0,4,,,,,,,,,0,,,52,0
46072,note_on,32,0,1,,,,,,,,,0,,,81,0
46080,note_on,0,0,4,,,,,,,,,0,,,64,68
46080,note_on,0,0,4,,,,,,,,,0,,,69,68
46080,note_on,24,0,4,,,,,,,,,0,,,60,68
46080,note_on,8,0,1,,,,,,,,,0,,,93,80
46112,note_on,32,0,1,,,,,,,,,0,,,93,0
46120,note_on,8,0,1,,,,,,,,,0,,,81,80
46152,note_on,32,0,1,,,,,,,,,0,,,81,0
46160,note_on,8,0,1,,,,,,,,,0,,,69,80
46176,note_on,96,0,4,,,,,,,,,0,,,64,0
46176,note_on,0,0,4,,,,,,,,,0,,,60,0
46176,note_on,0,0,4,,,,,,,,,0,,,69,0
46192,note_on,32,0,1,,,,,,,,,0,,,69,0
46200,note_on,8,0,1,,,,,,,,,0,,,57,80
46222,control_change,22,0,1,,,,,,,,,0,64,0,,
46296,note_on,74,0,1,,,,,,,,,0,,,57,0
46320,note_on,0,0,1,,,,,,,,,0,,,57,80
46320,note_on,144,0,4,,,,,,,,,0,,,33,80
46320,note_on,0,0,1,,,,,,,,,0,,,60,80
46320,note_on,0,0,4,,,,,,,,,0,,,45,80
46320,note_on,24,0,1,,,,,,,,,0,,,69,80
46416,note_on,96,0,4,,,,,,,,,0,,,45,0
46416,note_on,0,0,4,,,,,,,,,0,,,33,0
46416,note_on,96,0,1,,,,,,,,,0,,,57,0
46416,note_on,0,0,1,,,,,,,,,0,,,60,0
46416,note_on,0,0,1,,,,,,,,,0,,,69,0
46440,note_on,0,0,1,,,,,,,,,0,,,57,80
46440,note_on,0,0,1,,,,,,,,,0,,,62,80
46440,note_on,0,0,4,,,,,,,,,0,,,35,80
46440,note_on,24,0,1,,,,,,,,,0,,,69,80
46440,note_on,24,0,4,,,,,,,,,0,,,47,80
46536,note_on,0,0,1,,,,,,,,,0,,,69,0
46536,note_on,0,0,4,,,,,,,,,0,,,47,0
46536,note_on,96,0,4,,,,,,,,,0,,,35,0
46536,note_on,96,0,1,,,,,,,,,0,,,62,0
46536,note_on,0,0,1,,,,,,,,,0,,,57,0
46560,note_on,0,0,4,,,,,,,,,0,,,48,80
46560,note_on,0,0,1,,,,,,,,,0,,,64,80
46560,note_on,0,0,1,,,,,,,,,0,,,57,80
46560,note_on,24,0,4,,,,,,,,,0,,,36,80
46560,note_on,24,0,1,,,,,,,,,0,,,69,80
46656,note_on,96,0,1,,,,,,,,,0,,,57,0
46656,note_on,0,0,1,,,,,,,,,0,,,69,0
46656,note_on,0,0,1,,,,,,,,,0,,,64,0
46656,note_on,0,0,4,,,,,,,,,0,,,36,0
46656,note_on,96,0,4,,,,,,,,,0,,,48,0
46680,note_on,744,0,2,,,,,,,,,0,,,65,80
46680,note_on,0,0,4,,,,,,,,,0,,,50,80
46680,note_on,24,0,4,,,,,,,,,0,,,38,80
46680,note_on,24,0,1,,,,,,,,,0,,,57,80
46680,note_on,0,0,1,,,,,,,,,0,,,69,80
46776,note_on,96,0,4,,,,,,,,,0,,,50,0
46776,note_on,96,0,2,,,,,,,,,0,,,65,0
46776,note_on,0,0,4,,,,,,,,,0,,,38,0
46800,note_on,24,0,4,,,,,,,,,0,,,36,80
46800,note_on,24,0,2,,,,,,,,,0,,,64,80
46800,note_on,0,0,4,,,,,,,,,0,,,48,80
46896,note_on,0,0,4,,,,,,,,,0,,,36,0
46896,note_on,96,0,2,,,,,,,,,0,,,64,0
46896,note_on,96,0,4,,,,,,,,,0,,,48,0
46920,note_on,0,0,4,,,,,,,,,0,,,35,80
46920,note_on,24,0,4,,,,,,,,,0,,,47,80
46920,note_on,24,0,2,,,,,,,,,0,,,62,57
46968,note_on,0,0,1,,,,,,,,,0,,,57,0
46968,note_on,288,0,1,,,,,,,,,0,,,69,0
47016,note_on,0,0,4,,,,,,,,,0,,,47,0
47016,note_on,96,0,4,,,,,,,,,0,,,35,0
47016,note_on,96,0,2,,,,,,,,,0,,,62,0
47040,note_on,0,0,4,,,,,,,,,0,,,50,63
47040,note_on,0,0,1,,,,,,,,,0,,,57,63
47040,note_on,0,0,1,,,,,,,,,0,,,65,63
47040,note_on,24,0,4,,,,,,,,,0,,,38,63
47040,note_on,72,0,1,,,,,,,,,0,,,69,63
47136,note_on,0,0,4,,,,,,,,,0,,,38,0
47136,note_on,96,0,4,,,,,,,,,0,,,50,0
47136,note_on,0,0,1,,,,,,,,,0,,,57,0
47136,note_on,0,0,1,,,,,,,,,0,,,69,0
47136,note_on,96,0,1,,,,,,,,,0,,,65,0
47160,note_on,0,0,1,,,,,,,,,0,,,64,70
47160,note_on,24,0,4,,,,,,,,,0,,,36,70
47160,note_on,24,0,1,,,,,,,,,0,,,69,70
47160,note_on,0,0,1,,,,,,,,,0,,,57,70
47160,note_on,0,0,4,,,,,,,,,0,,,48,70
47256,note_on,96,0,1,,,,,,,,,0,,,64,0
47256,note_on,0,0,1,,,,,,,,,0,,,69,0
47256,note_on,0,0,4,,,,,,,,,0,,,36,0
47256,note_on,0,0,1,,,,,,,,,0,,,57,0
47256,note_on,96,0,4,,,,,,,,,0,,,48,0
47280,note_on,24,0,1,,,,,,,,,0,,,62,76
47280,note_on,0,0,1,,,,,,,,,0,,,57,76
47280,note_on,0,0,4,,,,,,,,,0,,,47,76
47280,note_on,0,0,1,,,,,,,,,0,,,69,76
47280,note_on,24,0,4,,,,,,,,,0,,,35,76
47376,note_on,96,0,1,,,,,,,,,0,,,69,0
47376,note_on,0,0,1,,,,,,,,,0,,,62,0
47376,note_on,0,0,4,,,,,,,,,0,,,35,0
47376,note_on,0,0,1,,,,,,,,,0,,,57,0
47376,note_on,96,0,4,,,,,,,,,0,,,47,0
47400,note_on,0,0,1,,,,,,,,,0,,,57,80
47400,control_change,24,0,1,,,,,,,,,0,64,127,,
47400,note_on,0,0,4,,,,,,,,,0,,,45,80
47400,note_on,24,0,4,,,,,,,,,0,,,33,80
47432,note_on,32,0,1,,,,,,,,,0,,,57,0
47440,note_on,8,0,1,,,,,,,,,0,,,69,80
47472,note_on,32,0,1,,,,,,,,,0,,,69,0
47480,note_on,8,0,1,,,,,,,,,0,,,81,80
47496,note_on,96,0,4,,,,,,,,,0,,,45,0
47496,note_on,0,0,4,,,,,,,,,0,,,33,0
47512,note_on,32,0,1,,,,,,,,,0,,,81,0
47520,note_on,0,0,4,,,,,,,,,0,,,52,80
47520,note_on,8,0,1,,,,,,,,,0,,,93,80
47520,note_on,24,0,4,,,,,,,,,0,,,60,80
47552,note_on,32,0,1,,,,,,,,,0,,,93,0
47560,note_on,8,0,1,,,,,,,,,0,,,81,80
47592,note_on,32,0,1,,,,,,,,,0,,,81,0
47600,note_on,8,0,1,,,,,,,,,0,,,69,80
47616,note_on,96,0,4,,,,,,,,,0,,,52,0
47616,note_on,0,0,4,,,,,,,,,0,,,60,0
47632,note_on,32,0,1,,,,,,,,,0,,,69,0
47640,note_on,8,0,1,,,,,,,,,0,,,57,80
47736,note_on,96,0,1,,,,,,,,,0,,,57,0
47746,control_change,10,0,1,,,,,,,,,0,64,0,,
47760,note_on,0,0,4,,,,,,,,,0,,,45,80
47760,note_on,144,0,4,,,,,,,,,0,,,33,80
47760,note_on,14,0,1,,,,,,,,,0,,,69,80
47760,note_on,0,0,1,,,,,,,,,0,,,57,80
47760,note_on,0,0,1,,,,,,,,,0,,,72,80
47856,note_on,0,0,1,,,,,,,,,0,,,69,0
47856,note_on,0,0,1,,,,,,,,,0,,,72,0
47856,note_on,0,0,4,,,,,,,,,0,,,33,0
47856,note_on,96,0,4,,,,,,,,,0,,,45,0
47856,note_on,96,0,1,,,,,,,,,0,,,57,0
47880,note_on,0,0,4,,,,,,,,,0,,,47,80
47880,note_on,24,0,4,,,,,,,,,0,,,35,80
47880,note_on,24,0,1,,,,,,,,,0,,,69,80
47880,note_on,0,0,1,,,,,,,,,0,,,72,80
47880,note_on,0,0,1,,,,,,,,,0,,,59,80
47976,note_on,0,0,1,,,,,,,,,0,,,69,0
47976,note_on,0,0,1,,,,,,,,,0,,,59,0
47976,note_on,96,0,4,,,,,,,,,0,,,47,0
47976,note_on,0,0,4,,,,,,,,,0,,,35,0
47976,note_on,96,0,1,,,,,,,,,0,,,72,0
48000,note_on,0,0,4,,,,,,,,,0,,,48,80
48000,note_on,24,0,1,,,,,,,,,0,,,69,80
48000,note_on,0,0,1,,,,,,,,,0,,,60,80
48000,note_on,0,0,1,,,,,,,,,0,,,72,80
48000,note_on,24,0,4,,,,,,,,,0,,,36,80
48096,note_on,96,0,4,,,,,,,,,0,,,48,0
48096,note_on,0,0,1,,,,,,,,,0,,,69,0
48096,note_on,0,0,1,,,,,,,,,0,,,72,0
48096,note_on,96,0,1,,,,,,,,,0,,,60,0
48096,note_on,0,0,4,,,,,,,,,0,,,36,0
48120,note_on,0,0,4,,,,,,,,,0,,,50,80
48120,note_on,24,0,1,,,,,,,,,0,,,65,80
48120,note_on,0,0,2,,,,,,,,,0,,,72,80
48120,note_on,24,0,4,,,,,,,,,0,,,38,80
48120,note_on,1104,0,2,,,,,,,,,0,,,69,80
48216,note_on,96,0,1,,,,,,,,,0,,,65,0
48216,note_on,0,0,4,,,,,,,,,0,,,38,0
48216,note_on,96,0,4,,,,,,,,,0,,,50,0
48240,note_on,0,0,4,,,,,,,,,0,,,36,80
48240,note_on,24,0,4,,,,,,,,,0,,,48,80
48240,note_on,24,0,1,,,,,,,,,0,,,64,80
48336,note_on,96,0,4,,,,,,,,,0,,,36,0
48336,note_on,0,0,4,,,,,,,,,0,,,48,0
48336,note_on,96,0,1,,,,,,,,,0,,,64,0
48360,note_on,24,0,1,,,,,,,,,0,,,62,57
48360,note_on,24,0,4,,,,,,,,,0,,,47,80
48360,note_on,0,0,4,,,,,,,,,0,,,35,80
48408,note_on,0,0,2,,,,,,,,,0,,,69,0
48408,note_on,288,0,2,,,,,,,,,0,,,72,0
48456,note_on,0,0,4,,,,,,,,,0,,,47,0
48456,note_on,96,0,1,,,,,,,,,0,,,62,0
48456,note_on,96,0,4,,,,,,,,,0,,,35,0
48480,note_on,0,0,4,,,,,,,,,0,,,38,62
48480,note_on,72,0,2,,,,,,,,,0,,,72,62
48480,note_on,0,0,2,,,,,,,,,0,,,69,62
48480,note_on,24,0,4,,,,,,,,,0,,,50,62
48480,note_on,0,0,2,,,,,,,,,0,,,65,62
48576,note_on,0,0,2,,,,,,,,,0,,,69,0
48576,note_on,96,0,2,,,,,,,,,0,,,65,0
48576,note_on,96,0,4,,,,,,,,,0,,,38,0
48576,note_on,0,0,4,,,,,,,,,0,,,50,0
48576,note_on,0,0,2,,,,,,,,,0,,,72,0
48600,note_on,0,0,2,,,,,,,,,0,,,72,68
48600,note_on,0,0,4,,,,,,,,,0,,,36,68
48600,note_on,24,0,2,,,,,,,,,0,,,69,68
48600,note_on,24,0,4,,,,,,,,,0,,,48,68
48600,note_on,0,0,2,,,,,,,,,0,,,64,68
48696,note_on,0,0,2,,,,,,,,,0,,,72,0
48696,note_on,96,0,2,,,,,,,,,0,,,64,0
48696,note_on,0,0,4,,,,,,,,,0,,,48,0
48696,note_on,0,0,2,,,,,,,,,0,,,69,0
48696,note_on,96,0,4,,,,,,,,,0,,,36,0
48720,note_on,0,0,2,,,,,,,,,0,,,69,74
48720,note_on,24,0,4,,,,,,,,,0,,,35,74
48720,note_on,0,0,4,,,,,,,,,0,,,47,74
48720,note_on,24,0,2,,,,,,,,,0,,,62,74
48720,note_on,0,0,2,,,,,,,,,0,,,72,74
48816,note_on,96,0,2,,,,,,,,,0,,,72,0
48816,note_on,0,0,4,,,,,,,,,0,,,35,0
48816,note_on,96,0,4,,,,,,,,,0,,,47,0
48816,note_on,0,0,2,,,,,,,,,0,,,62,0
48816,note_on,0,0,2,,,,,,,,,0,,,69,0
48840,note_on,24,0,4,,,,,,,,,0,,,33,80
48840,note_on,0,0,1,,,,,,,,,0,,,60,80
48840,note_on,0,0,4,,,,,,,,,0,,,45,80
48840,control_change,384,0,1,,,,,,,,,0,64,127,,
48872,note_on,32,0,1,,,,,,,,,0,,,60,0
48880,note_on,8,0,1,,,,,,,,,0,,,69,80
48880,note_on,0,0,1,,,,,,,,,0,,,72,80
48912,note_on,32,0,1,,,,,,,,,0,,,72,0
48912,note_on,0,0,1,,,,,,,,,0,,,69,0
48920,note_on,8,0,1,,,,,,,,,0,,,84,80
48936,note_on,0,0,4,,,,,,,,,0,,,33,0
48936,note_on,96,0,4,,,,,,,,,0,,,45,0
48952,note_on,32,0,1,,,,,,,,,0,,,84,0
48960,note_on,24,0,4,,,,,,,,,0,,,64,80
48960,note_on,0,0,4,,,,,,,,,0,,,57,80
48960,note_on,0,0,4,,,,,,,,,0,,,52,80
48960,note_on,0,0,1,,,,,,,,,0,,,93,80
48960,note_on,8,0,1,,,,,,,,,0,,,96,80
48992,note_on,32,0,1,,,,,,,,,0,,,93,0
48992,note_on,0,0,1,,,,,,,,,0,,,96,0
49000,note_on,8,0,1,,,,,,,,,0,,,84,80
49032,note_on,32,0,1,,,,,,,,,0,,,84,0
49040,note_on,8,0,1,,,,,,,,,0,,,72,80
49040,note_on,0,0,1,,,,,,,,,0,,,69,80
49056,note_on,0,0,4,,,,,,,,,0,,,57,0
49056,note_on,0,0,4,,,,,,,,,0,,,64,0
49056,note_on,96,0,4,,,,,,,,,0,,,52,0
49072,note_on,32,0,1,,,,,,,,,0,,,69,0
49072,note_on,0,0,1,,,,,,,,,0,,,72,0
49080,note_on,8,0,1,,,,,,,,,0,,,60,80
49094,control_change,14,0,1,,,,,,,,,0,64,0,,
49176,note_on,82,0,1,,,,,,,,,0,,,60,0
49200,note_on,0,0,4,,,,,,,,,0,,,33,80
49200,note_on,24,0,1,,,,,,,,,0,,,76,80
49200,note_on,0,0,1,,,,,,,,,0,,,60,80
49200,note_on,0,0,1,,,,,,,,,0,,,72,80
49200,note_on,144,0,4,,,,,,,,,0,,,45,80
49296,note_on,0,0,4,,,,,,,,,0,,,45,0
49296,note_on,0,0,1,,,,,,,,,0,,,76,0
49296,note_on,96,0,1,,,,,,,,,0,,,72,0
49296,note_on,0,0,1,,,,,,,,,0,,,60,0
49296,note_on,96,0,4,,,,,,,,,0,,,33,0
49320,note_on,24,0,4,,,,,,,,,0,,,35,80
49320,note_on,0,0,4,,,,,,,,,0,,,47,80
49320,note_on,24,0,1,,,,,,,,,0,,,72,80
49320,note_on,0,0,1,,,,,,,,,0,,,62,80
49320,note_on,0,0,1,,,,,,,,,0,,,76,80
49416,note_on,0,0,4,,,,,,,,,0,,,35,0
49416,note_on,0,0,1,,,,,,,,,0,,,72,0
49416,note_on,0,0,1,,,,,,,,,0,,,76,0
49416,note_on,96,0,1,,,,,,,,,0,,,62,0
49416,note_on,96,0,4,,,,,,,,,0,,,47,0
49440,note_on,0,0,4,,,,,,,,,0,,,48,80
49440,note_on,24,0,1,,,,,,,,,0,,,76,80
49440,note_on,0,0,1,,,,,,,,,0,,,72,80
49440,note_on,0,0,1,,,,,,,,,0,,,64,80
49440,note_on,24,0,4,,,,,,,,,0,,,36,80
49536,note_on,0,0,4,,,,,,,,,0,,,36,0
49536,note_on,96,0,4,,,,,,,,,0,,,48,0
49536,note_on,0,0,1,,,,,,,,,0,,,76,0
49536,note_on,0,0,1,,,,,,,,,0,,,64,0
49536,note_on,96,0,1,,,,,,,,,0,,,72,0
49555,set_tempo,5753,1,0,,,,,,497512,,,,,,,
49560,note_on,24,0,1,,,,,,,,,0,,,76,80
49560,note_on,744,0,2,,,,,,,,,0,,,65,80
49560,note_on,0,0,4,,,,,,,,,0,,,50,80
49560,note_on,24,0,4,,,,,,,,,0,,,38,80
49560,note_on,0,0,1,,,,,,,,,0,,,72,80
49565,set_tempo,10,1,0,,,,,,500000,,,,,,,
49618,set_tempo,53,1,0,,,,,,497512,,,,,,,
49656,note_on,0,0,4,,,,,,,,,0,,,38,0
49656,note_on,96,0,4,,,,,,,,,0,,,50,0
49656,note_on,96,0,2,,,,,,,,,0,,,65,0
49668,set_tempo,50,1,0,,,,,,495050,,,,,,,
49680,note_on,24,0,2,,,,,,,,,0,,,64,80
49680,note_on,0,0,4,,,,,,,,,0,,,36,80
49680,note_on,24,0,4,,,,,,,,,0,,,48,80
49719,set_tempo,51,1,0,,,,,,492611,,,,,,,
49772,set_tempo,53,1,0,,,,,,490196,,,,,,,
49776,note_on,0,0,4,,,,,,,,,0,,,48,0
49776,note_on,96,0,2,,,,,,,,,0,,,64,0
49776,note_on,96,0,4,,,,,,,,,0,,,36,0
49800,note_on,24,0,4,,,,,,,,,0,,,47,80
49800,note_on,24,0,2,,,,,,,,,0,,,62,80
49800,note_on,0,0,4,,,,,,,,,0,,,35,80
49822,set_tempo,50,1,0,,,,,,487805,,,,,,,
49848,note_on,288,0,1,,,,,,,,,0,,,72,0
49848,note_on,0,0,1,,,,,,,,,0,,,76,0
49872,set_tempo,50,1,0,,,,,,485437,,,,,,,
49896,note_on,96,0,2,,,,,,,,,0,,,62,0
49896,note_on,96,0,4,,,,,,,,,0,,,35,0
49896,note_on,0,0,4,,,,,,,,,0,,,47,0
49920,note_on,0,0,4,,,,,,,,,0,,,50,80
49920,note_on,0,0,1,,,,,,,,,0,,,72,80
49920,note_on,0,0,1,,,,,,,,,0,,,76,80
49920,note_on,72,0,1,,,,,,,,,0,,,65,80
49920,note_on,24,0,4,,,,,,,,,0,,,38,80
49925,set_tempo,53,1,0,,,,,,483092,,,,,,,
49976,set_tempo,51,1,0,,,,,,480769,,,,,,,
50016,note_on,0,0,1,,,,,,,,,0,,,65,0
50016,note_on,96,0,4,,,,,,,,,0,,,50,0
50016,note_on,0,0,4,,,,,,,,,0,,,38,0
50016,note_on,0,0,1,,,,,,,,,0,,,76,0
50016,note_on,96,0,1,,,,,,,,,0,,,72,0
50026,set_tempo,50,1,0,,,,,,478469,,,,,,,
50040,note_on,24,0,1,,,,,,,,,0,,,76,80
50040,note_on,24,0,4,,,,,,,,,0,,,36,80
50040,note_on,0,0,4,,,,,,,,,0,,,48,80
50040,note_on,0,0,1,,,,,,,,,0,,,64,80
50040,note_on,0,0,1,,,,,,,,,0,,,72,80
50079,set_tempo,53,1,0,,,,,,476190,,,,,,,
50129,set_tempo,50,1,0,,,,,,473934,,,,,,,
50136,note_on,0,0,1,,,,,,,,,0,,,72,0
50136,note_on,0,0,1,,,,,,,,,0,,,76,0
50136,note_on,96,0,4,,,,,,,,,0,,,48,0
50136,note_on,96,0,1,,,,,,,,,0,,,64,0
50136,note_on,0,0,4,,,,,,,,,0,,,36,0
50160,note_on,24,0,1,,,,,,,,,0,,,62,80
50160,note_on,0,0,1,,,,,,,,,0,,,72,80
50160,note_on,0,0,4,,,,,,,,,0,,,47,80
50160,note_on,0,0,1,,,,,,,,,0,,,76,80
50160,note_on,24,0,4,,,,,,,,,0,,,35,80
50180,set_tempo,51,1,0,,,,,,471698,,,,,,,
50232,set_tempo,52,1,0,,,,,,469484,,,,,,,
50256,note_on,0,0,1,,,,,,,,,0,,,62,0
50256,note_on,0,0,1,,,,,,,,,0,,,72,0
50256,note_on,0,0,4,,,,,,,,,0,,,35,0
50256,note_on,96,0,4,,,,,,,,,0,,,47,0
50256,note_on,96,0,1,,,,,,,,,0,,,76,0
50280,note_on,0,0,4,,,,,,,,,0,,,45,80
50280,note_on,384,0,2,,,,,,,,,0,,,72,80
50280,note_on,24,0,1,,,,,,,,,0,,,81,80
50280,note_on,24,0,4,,,,,,,,,0,,,33,80
50280,note_on,0,0,1,,,,,,,,,0,,,69,80
50283,set_tempo,51,1,0,,,,,,467290,,,,,,,
50333,set_tempo,50,1,0,,,,,,465116,,,,,,,
50376,note_on,96,0,2,,,,,,,,,0,,,72,0
50376,note_on,96,0,4,,,,,,,,,0,,,45,0
50376,note_on,0,0,4,,,,,,,,,0,,,33,0
50384,set_tempo,51,1,0,,,,,,462963,,,,,,,
50400,note_on,0,0,4,,,,,,,,,0,,,47,80
50400,note_on,24,0,2,,,,,,,,,0,,,74,80
50400,note_on,24,0,4,,,,,,,,,0,,,35,80
50436,set_tempo,52,1,0,,,,,,460829,,,,,,,
50487,set_tempo,51,1,0,,,,,,458716,,,,,,,
50496,note_on,96,0,2,,,,,,,,,0,,,74,0
50496,note_on,96,0,4,,,,,,,,,0,,,47,0
50496,note_on,0,0,4,,,,,,,,,0,,,35,0
50520,note_on,24,0,4,,,,,,,,,0,,,36,80
50520,note_on,24,0,2,,,,,,,,,0,,,76,80
50520,note_on,0,0,4,,,,,,,,,0,,,48,80
50537,set_tempo,50,1,0,,,,,,456621,,,,,,,
50568,note_on,288,0,1,,,,,,,,,0,,,69,0
50568,note_on,0,0,1,,,,,,,,,0,,,81,0
50590,set_tempo,53,1,0,,,,,,454545,,,,,,,
50616,note_on,96,0,4,,,,,,,,,0,,,48,0
50616,note_on,0,0,4,,,,,,,,,0,,,36,0
50616,note_on,96,0,2,,,,,,,,,0,,,76,0
50640,note_on,24,0,2,,,,,,,,,0,,,77,80
50640,note_on,0,0,1,,,,,,,,,0,,,84,80
50640,set_tempo,50,1,0,,,,,,452489,,,,,,,
50640,note_on,72,0,1,,,,,,,,,0,,,81,80
50640,note_on,24,0,4,,,,,,,,,0,,,50,80
50640,note_on,0,0,4,,,,,,,,,0,,,38,80
50691,set_tempo,51,1,0,,,,,,450450,,,,,,,
50736,note_on,96,0,1,,,,,,,,,0,,,84,0
50736,note_on,0,0,4,,,,,,,,,0,,,50,0
50736,note_on,96,0,2,,,,,,,,,0,,,77,0
50736,note_on,0,0,1,,,,,,,,,0,,,81,0
50736,note_on,96,0,4,,,,,,,,,0,,,38,0
50744,set_tempo,53,1,0,,,,,,448430,,,,,,,
50760,note_on,0,0,4,,,,,,,,,0,,,48,80
50760,note_on,0,0,1,,,,,,,,,0,,,84,80
50760,note_on,24,0,2,,,,,,,,,0,,,76,80
50760,note_on,24,0,1,,,,,,,,,0,,,81,80
50760,note_on,24,0,4,,,,,,,,,0,,,36,80
50794,set_tempo,50,1,0,,,,,,446429,,,,,,,
50844,set_tempo,50,1,0,,,,,,444444,,,,,,,
50856,note_on,96,0,2,,,,,,,,,0,,,76,0
50856,note_on,0,0,1,,,,,,,,,0,,,81,0
50856,note_on,96,0,4,,,,,,,,,0,,,48,0
50856,note_on,96,0,1,,,,,,,,,0,,,84,0
50856,note_on,0,0,4,,,,,,,,,0,,,36,0
50880,note_on,24,0,4,,,,,,,,,0,,,35,80
50880,note_on,0,0,4,,,,,,,,,0,,,47,80
50880,note_on,24,0,1,,,,,,,,,0,,,84,80
50880,note_on,24,0,2,,,,,,,,,0,,,74,80
50880,note_on,0,0,1,,,,,,,,,0,,,81,80
50897,set_tempo,53,1,0,,,,,,442478,,,,,,,
50948,set_tempo,51,1,0,,,,,,440529,,,,,,,
50976,note_on,0,0,4,,,,,,,,,0,,,35,0
50976,note_on,96,0,4,,,,,,,,,0,,,47,0
50976,note_on,96,0,2,,,,,,,,,0,,,74,0
50976,note_on,96,0,1,,,,,,,,,0,,,81,0
50976,note_on,0,0,1,,,,,,,,,0,,,84,0
50998,set_tempo,50,1,0,,,,,,438596,,,,,,,
51000,note_on,0,0,1,,,,,,,,,0,,,88,80
51000,note_on,24,0,4,,,,,,,,,0,,,33,80
51000,note_on,24,0,1,,,,,,,,,0,,,84,80
51000,note_on,24,0,2,,,,,,,,,0,,,72,80
51000,note_on,0,0,4,,,,,,,,,0,,,45,80
51048,set_tempo,50,1,0,,,,,,436681,,,,,,,
51096,note_on,96,0,4,,,,,,,,,0,,,45,0
51096,note_on,96,0,2,,,,,,,,,0,,,72,0
51096,note_on,0,0,4,,,,,,,,,0,,,33,0
51101,set_tempo,53,1,0,,,,,,434783,,,,,,,
51120,note_on,24,0,4,,,,,,,,,0,,,35,80
51120,note_on,0,0,4,,,,,,,,,0,,,47,80
51120,note_on,24,0,2,,,,,,,,,0,,,74,80
51152,set_tempo,51,1,0,,,,,,432900,,,,,,,
51202,set_tempo,50,1,0,,,,,,431034,,,,,,,
51216,note_on,96,0,2,,,,,,,,,0,,,74,0
51216,note_on,0,0,4,,,,,,,,,0,,,35,0
51216,note_on,96,0,4,,,,,,,,,0,,,47,0
51240,note_on,0,0,4,,,,,,,,,0,,,48,80
51240,note_on,24,0,2,,,,,,,,,0,,,76,80
51240,note_on,24,0,4,,,,,,,,,0,,,36,80
51255,set_tempo,53,1,0,,,,,,429185,,,,,,,
51288,note_on,288,0,1,,,,,,,,,0,,,88,0
51288,note_on,0,0,1,,,,,,,,,0,,,84,0
51305,set_tempo,50,1,0,,,,,,427350,,,,,,,
51336,note_on,96,0,2,,,,,,,,,0,,,76,0
51336,note_on,96,0,4,,,,,,,,,0,,,48,0
51336,note_on,0,0,4,,,,,,,,,0,,,36,0
51356,set_tempo,51,1,0,,,,,,425532,,,,,,,
51360,note_on,0,0,1,,,,,,,,,0,,,81,80
51360,note_on,24,0,4,,,,,,,,,0,,,38,80
51360,note_on,72,0,1,,,,,,,,,0,,,89,80
51360,note_on,0,0,4,,,,,,,,,0,,,50,80
51360,note_on,0,0,1,,,,,,,,,0,,,93,80
51408,set_tempo,52,1,0,,,,,,423729,,,,,,,
51456,note_on,96,0,4,,,,,,,,,0,,,50,0
51456,note_on,0,0,1,,,,,,,,,0,,,81,0
51456,note_on,0,0,1,,,,,,,,,0,,,89,0
51456,note_on,0,0,4,,,,,,,,,0,,,38,0
51456,note_on,96,0,1,,,,,,,,,0,,,93,0
51459,set_tempo,51,1,0,,,,,,421941,,,,,,,
51480,note_on,24,0,4,,,,,,,,,0,,,48,80
51480,note_on,24,0,1,,,,,,,,,0,,,88,80
51480,note_on,0,0,1,,,,,,,,,0,,,81,80
51480,note_on,0,0,4,,,,,,,,,0,,,36,80
51480,note_on,0,0,1,,,,,,,,,0,,,93,80
51509,set_tempo,50,1,0,,,,,,420168,,,,,,,
51562,set_tempo,53,1,0,,,,,,418410,,,,,,,
51576,note_on,96,0,1,,,,,,,,,0,,,93,0
51576,note_on,0,0,4,,,,,,,,,0,,,48,0
51576,note_on,0,0,1,,,,,,,,,0,,,88,0
51576,note_on,96,0,4,,,,,,,,,0,,,36,0
51576,note_on,0,0,1,,,,,,,,,0,,,81,0
51600,note_on,0,0,1,,,,,,,,,0,,,81,80
51600,note_on,0,0,1,,,,,,,,,0,,,86,80
51600,note_on,0,0,4,,,,,,,,,0,,,47,80
51600,note_on,24,0,1,,,,,,,,,0,,,93,80
51600,note_on,24,0,4,,,,,,,,,0,,,35,80
51612,set_tempo,50,1,0,,,,,,416667,,,,,,,
51663,set_tempo,51,1,0,,,,,,414938,,,,,,,
51696,note_on,96,0,4,,,,,,,,,0,,,47,0
51696,note_on,0,0,4,,,,,,,,,0,,,35,0
51696,note_on,0,0,1,,,,,,,,,0,,,81,0
51696,note_on,96,0,1,,,,,,,,,0,,,86,0
51696,note_on,0,0,1,,,,,,,,,0,,,93,0
51713,set_tempo,50,1,0,,,,,,413223,,,,,,,
51720,note_on,0,0,1,,,,,,,,,0,,,96,80
51720,note_on,0,0,1,,,,,,,,,0,,,93,80
51720,note_on,24,0,4,,,,,,,,,0,,,33,80
51720,control_change,24,0,1,,,,,,,,,0,64,127,,
51720,note_on,0,0,4,,,,,,,,,0,,,45,80
51720,note_on,0,0,4,,,,,,,,,0,,,40,80
51720,note_on,0,0,1,,,,,,,,,0,,,84,80
51816,note_on,96,0,4,,,,,,,,,0,,,40,0
51816,note_on,0,0,1,,,,,,,,,0,,,93,0
51816,note_on,0,0,1,,,,,,,,,0,,,96,0
51816,note_on,96,0,1,,,,,,,,,0,,,84,0
51816,note_on,0,0,4,,,,,,,,,0,,,33,0
51816,note_on,0,0,4,,,,,,,,,0,,,45,0
51840,note_on,504,0,2,,,,,,,,,0,,,76,64
51840,note_on,24,0,4,,,,,,,,,0,,,64,64
51936,note_on,96,0,4,,,,,,,,,0,,,64,0
51936,note_on,96,0,2,,,,,,,,,0,,,76,0
51960,note_on,24,0,2,,,,,,,,,0,,,76,64
51960,note_on,24,0,4,,,,,,,,,0,,,64,64
52056,note_on,96,0,2,,,,,,,,,0,,,76,0
52056,note_on,96,0,4,,,,,,,,,0,,,64,0
52080,note_on,0,0,4,,,,,,,,,0,,,64,64
52080,note_on,24,0,2,,,,,,,,,0,,,77,64
52080,note_on,24,0,4,,,,,,,,,0,,,65,64
52080,note_on,0,0,2,,,,,,,,,0,,,76,64
52176,note_on,96,0,4,,,,,,,,,0,,,64,0
52176,note_on,0,0,4,,,,,,,,,0,,,65,0
52176,note_on,96,0,2,,,,,,,,,0,,,76,0
52176,note_on,0,0,2,,,,,,,,,0,,,77,0
52200,note_on,24,0,2,,,,,,,,,0,,,76,64
52200,note_on,0,0,4,,,,,,,,,0,,,64,64
52200,note_on,0,0,2,,,,,,,,,0,,,77,64
52200,note_on,24,0,4,,,,,,,,,0,,,65,64
52296,note_on,96,0,4,,,,,,,,,0,,,64,0
52296,note_on,0,0,4,,,,,,,,,0,,,65,0
52296,note_on,0,0,2,,,,,,,,,0,,,76,0
52296,note_on,96,0,2,,,,,,,,,0,,,77,0
52320,note_on,0,0,2,,,,,,,,,0,,,77,64
52320,note_on,24,0,2,,,,,,,,,0,,,75,64
52320,note_on,0,0,4,,,,,,,,,0,,,63,64
52320,note_on,24,0,4,,,,,,,,,0,,,65,64
52416,note_on,0,0,2,,,,,,,,,0,,,75,0
52416,note_on,0,0,4,,,,,,,,,0,,,65,0
52416,note_on,96,0,2,,,,,,,,,0,,,77,0
52416,note_on,96,0,4,,,,,,,,,0,,,63,0
52420,note_on,8692,0,3,,,,,,,,,0,,,40,80
52440,note_on,0,0,3,,,,,,,,,0,,,50,80
52440,note_on,0,0,1,,,,,,,,,0,,,101,80
52440,note_on,20,0,3,,,,,,,,,0,,,53,80
52440,control_change,624,0,1,,,,,,,,,0,64,0,,
52440,note_on,0,0,1,,,,,,,,,0,,,89,80
52440,note_on,0,0,1,,,,,,,,,0,,,94,80
52503,control_change,63,0,1,,,,,,,,,0,64,127,,
52536,note_on,33,0,1,,,,,,,,,0,,,101,0
52536,note_on,0,0,3,,,,,,,,,0,,,40,0
52536,note_on,0,0,1,,,,,,,,,0,,,94,0
52536,note_on,0,0,3,,,,,,,,,0,,,53,0
52536,note_on,96,0,3,,,,,,,,,0,,,50,0
52536,note_on,0,0,1,,,,,,,,,0,,,89,0
52560,note_on,144,0,2,,,,,,,,,0,,,65,64
52560,note_on,0,0,2,,,,,,,,,0,,,62,64
52560,note_on,24,0,1,,,,,,,,,0,,,77,64
52560,note_on,0,0,1,,,,,,,,,0,,,74,64
52656,note_on,96,0,2,,,,,,,,,0,,,62,0
52656,note_on,0,0,2,,,,,,,,,0,,,65,0
52656,note_on,0,0,1,,,,,,,,,0,,,77,0
52656,note_on,96,0,1,,,,,,,,,0,,,74,0
52680,note_on,0,0,2,,,,,,,,,0,,,70,64
52680,note_on,24,0,2,,,,,,,,,0,,,62,64
52680,note_on,0,0,1,,,,,,,,,0,,,77,64
52680,note_on,0,0,1,,,,,,,,,0,,,82,64
52680,note_on,0,0,2,,,,,,,,,0,,,65,64
52680,note_on,24,0,1,,,,,,,,,0,,,74,64
52776,note_on,96,0,1,,,,,,,,,0,,,77,0
52776,note_on,96,0,2,,,,,,,,,0,,,65,0
52776,note_on,0,0,1,,,,,,,,,0,,,74,0
52776,note_on,0,0,1,,,,,,,,,0,,,82,0
52776,note_on,0,0,2,,,,,,,,,0,,,70,0
52776,note_on,0,0,2,,,,,,,,,0,,,62,0
52800,note_on,0,0,1,,,,,,,,,0,,,77,64
52800,note_on,0,0,2,,,,,,,,,0,,,60,64
52800,note_on,24,0,2,,,,,,,,,0,,,65,64
52800,note_on,0,0,1,,,,,,,,,0,,,72,64
52800,note_on,24,0,1,,,,,,,,,0,,,81,64
52800,note_on,0,0,2,,,,,,,,,0,,,69,64
52896,note_on,0,0,1,,,,,,,,,0,,,77,0
52896,note_on,0,0,2,,,,,,,,,0,,,69,0
52896,note_on,0,0,2,,,,,,,,,0,,,65,0
52896,note_on,0,0,1,,,,,,,,,0,,,81,0
52896,note_on,96,0,2,,,,,,,,,0,,,60,0
52896,note_on,96,0,1,,,,,,,,,0,,,72,0
52920,note_on,0,0,1,,,,,,,,,0,,,71,64
52920,note_on,0,0,1,,,,,,,,,0,,,74,64
52920,note_on,0,0,1,,,,,,,,,0,,,80,64
52920,note_on,0,0,2,,,,,,,,,0,,,68,64
52920,note_on,0,0,2,,,,,,,,,0,,,65,64
52920,note_on,24,0,2,,,,,,,,,0,,,62,64
52920,note_on,0,0,2,,,,,,,,,0,,,59,64
52920,note_on,24,0,1,,,,,,,,,0,,,77,64
53016,note_on,96,0,1,,,,,,,,,0,,,71,0
53016,note_on,96,0,2,,,,,,,,,0,,,68,0
53016,note_on,0,0,1,,,,,,,,,0,,,77,0
53016,note_on,0,0,1,,,,,,,,,0,,,80,0
53016,note_on,0,0,2,,,,,,,,,0,,,65,0
53016,note_on,0,0,1,,,,,,,,,0,,,74,0
53016,note_on,0,0,2,,,,,,,,,0,,,59,0
53016,note_on,0,0,2,,,,,,,,,0,,,62,0
53040,note_on,0,0,1,,,,,,,,,0,,,68,64
53040,note_on,24,0,2,,,,,,,,,0,,,59,64
53040,note_on,0,0,2,,,,,,,,,0,,,64,64
53040,note_on,24,0,1,,,,,,,,,0,,,76,64
53040,note_on,0,0,2,,,,,,,,,0,,,56,64
53040,note_on,0,0,1,,,,,,,,,0,,,71,64
53136,note_on,0,0,1,,,,,,,,,0,,,68,0
53136,note_on,0,0,1,,,,,,,,,0,,,76,0
53136,note_on,96,0,1,,,,,,,,,0,,,71,0
53136,note_on,0,0,2,,,,,,,,,0,,,59,0
53136,note_on,0,0,2,,,,,,,,,0,,,64,0
53136,note_on,96,0,2,,,,,,,,,0,,,56,0
53160,note_on,0,0,1,,,,,,,,,0,,,93,80
53160,control_change,24,0,1,,,,,,,,,0,64,0,,
53160,note_on,744,0,4,,,,,,,,,0,,,45,80
53160,note_on,0,0,4,,,,,,,,,0,,,52,80
53160,note_on,0,0,4,,,,,,,,,0,,,57,80
53160,note_on,0,0,1,,,,,,,,,0,,,84,80
53160,note_on,0,0,1,,,,,,,,,0,,,96,80
53195,control_change,35,0,1,,,,,,,,,0,64,127,,
53256,note_on,96,0,4,,,,,,,,,0,,,52,0
53256,note_on,0,0,1,,,,,,,,,0,,,84,0
53256,note_on,0,0,1,,,,,,,,,0,,,96,0
53256,note_on,0,0,4,,,,,,,,,0,,,57,0
53256,note_on,0,0,4,,,,,,,,,0,,,45,0
53256,note_on,61,0,1,,,,,,,,,0,,,93,0
53280,note_on,24,0,4,,,,,,,,,0,,,64,64
53280,note_on,144,0,2,,,,,,,,,0,,,76,64
53376,note_on,96,0,4,,,,,,,,,0,,,64,0
53376,note_on,96,0,2,,,,,,,,,0,,,76,0
53400,note_on,24,0,2,,,,,,,,,0,,,76,64
53400,note_on,24,0,4,,,,,,,,,0,,,64,64
53496,note_on,96,0,2,,,,,,,,,0,,,76,0
53496,note_on,96,0,4,,,,,,,,,0,,,64,0
53520,note_on,24,0,4,,,,,,,,,0,,,64,64
53520,note_on,0,0,4,,,,,,,,,0,,,65,64
53520,note_on,24,0,2,,,,,,,,,0,,,76,64
53520,note_on,0,0,2,,,,,,,,,0,,,77,64
53616,note_on,96,0,2,,,,,,,,,0,,,77,0
53616,note_on,96,0,4,,,,,,,,,0,,,65,0
53616,note_on,0,0,4,,,,,,,,,0,,,64,0
53616,note_on,0,0,2,,,,,,,,,0,,,76,0
53640,note_on,0,0,2,,,,,,,,,0,,,76,64
53640,note_on,24,0,4,,,,,,,,,0,,,64,64
53640,note_on,24,0,2,,,,,,,,,0,,,77,64
53640,note_on,0,0,4,,,,,,,,,0,,,65,64
53736,note_on,96,0,2,,,,,,,,,0,,,76,0
53736,note_on,0,0,4,,,,,,,,,0,,,64,0
53736,note_on,0,0,2,,,,,,,,,0,,,77,0
53736,note_on,96,0,4,,,,,,,,,0,,,65,0
53760,note_on,0,0,4,,,,,,,,,0,,,63,64
53760,note_on,0,0,2,,,,,,,,,0,,,77,64
53760,note_on,24,0,2,,,,,,,,,0,,,75,64
53760,note_on,24,0,4,,,,,,,,,0,,,65,64
53856,note_on,0,0,2,,,,,,,,,0,,,75,0
53856,note_on,96,0,2,,,,,,,,,0,,,77,0
53856,note_on,96,0,4,,,,,,,,,0,,,63,0
53856,note_on,0,0,4,,,,,,,,,0,,,65,0
53860,note_on,1324,0,3,,,,,,,,,0,,,40,80
53880,note_on,0,0,1,,,,,,,,,0,,,101,80
53880,control_change,624,0,1,,,,,,,,,0,64,0,,
53880,note_on,0,0,3,,,,,,,,,0,,,50,80
53880,note_on,0,0,1,,,,,,,,,0,,,94,80
53880,note_on,0,0,1,,,,,,,,,0,,,89,80
53880,note_on,20,0,3,,,,,,,,,0,,,53,80
53917,control_change,37,0,1,,,,,,,,,0,64,127,,
53976,note_on,0,0,3,,,,,,,,,0,,,53,0
53976,note_on,96,0,3,,,,,,,,,0,,,50,0
53976,note_on,0,0,3,,,,,,,,,0,,,40,0
53976,note_on,0,0,1,,,,,,,,,0,,,89,0
53976,note_on,59,0,1,,,,,,,,,0,,,94,0
53976,note_on,0,0,1,,,,,,,,,0,,,101,0
54000,note_on,144,0,2,,,,,,,,,0,,,62,80
54000,note_on,0,0,2,,,,,,,,,0,,,65,80
54000,note_on,24,0,1,,,,,,,,,0,,,77,80
54000,note_on,0,0,1,,,,,,,,,0,,,74,80
54096,note_on,96,0,2,,,,,,,,,0,,,65,0
54096,note_on,0,0,1,,,,,,,,,0,,,77,0
54096,note_on,96,0,1,,,,,,,,,0,,,74,0
54096,note_on,0,0,2,,,,,,,,,0,,,62,0
54120,note_on,24,0,1,,,,,,,,,0,,,77,80
54120,note_on,0,0,1,,,,,,,,,0,,,74,80
54120,note_on,0,0,1,,,,,,,,,0,,,82,80
54120,note_on,24,0,2,,,,,,,,,0,,,62,80
54120,note_on,0,0,2,,,,,,,,,0,,,65,80
54120,note_on,0,0,2,,,,,,,,,0,,,70,80
54216,note_on,0,0,2,,,,,,,,,0,,,62,0
54216,note_on,96,0,1,,,,,,,,,0,,,74,0
54216,note_on,0,0,1,,,,,,,,,0,,,77,0
54216,note_on,0,0,1,,,,,,,,,0,,,82,0
54216,note_on,0,0,2,,,,,,,,,0,,,70,0
54216,note_on,96,0,2,,,,,,,,,0,,,65,0
54240,note_on,0,0,1,,,,,,,,,0,,,81,80
54240,note_on,24,0,1,,,,,,,,,0,,,72,80
54240,note_on,0,0,2,,,,,,,,,0,,,65,80
54240,note_on,0,0,2,,,,,,,,,0,,,60,80
54240,note_on,24,0,2,,,,,,,,,0,,,69,80
54240,note_on,0,0,1,,,,,,,,,0,,,77,80
54336,note_on,0,0,1,,,,,,,,,0,,,77,0
54336,note_on,0,0,1,,,,,,,,,0,,,72,0
54336,note_on,96,0,1,,,,,,,,,0,,,81,0
54336,note_on,96,0,2,,,,,,,,,0,,,65,0
54336,note_on,0,0,2,,,,,,,,,0,,,60,0
54336,note_on,0,0,2,,,,,,,,,0,,,69,0
54360,note_on,0,0,1,,,,,,,,,0,,,71,80
54360,note_on,0,0,1,,,,,,,,,0,,,74,80
54360,note_on,24,0,1,,,,,,,,,0,,,80,80
54360,note_on,0,0,1,,,,,,,,,0,,,77,80
54360,note_on,0,0,2,,,,,,,,,0,,,59,80
54360,note_on,24,0,2,,,,,,,,,0,,,68,80
54360,note_on,0,0,2,,,,,,,,,0,,,65,80
54360,note_on,0,0,2,,,,,,,,,0,,,62,80
54456,note_on,96,0,2,,,,,,,,,0,,,62,0
54456,note_on,0,0,1,,,,,,,,,0,,,74,0
54456,note_on,0,0,2,,,,,,,,,0,,,68,0
54456,note_on,0,0,2,,,,,,,,,0,,,65,0
54456,note_on,0,0,2,,,,,,,,,0,,,59,0
54456,note_on,96,0,1,,,,,,,,,0,,,77,0
54456,note_on,0,0,1,,,,,,,,,0,,,71,0
54456,note_on,0,0,1,,,,,,,,,0,,,80,0
54480,note_on,0,0,2,,,,,,,,,0,,,64,80
54480,note_on,0,0,2,,,,,,,,,0,,,56,80
54480,note_on,24,0,1,,,,,,,,,0,,,76,80
54480,note_on,24,0,2,,,,,,,,,0,,,59,80
54480,note_on,0,0,1,,,,,,,,,0,,,68,80
54480,note_on,0,0,1,,,,,,,,,0,,,71,80
54576,note_on,96,0,1,,,,,,,,,0,,,71,0
54576,note_on,0,0,2,,,,,,,,,0,,,59,0
54576,note_on,0,0,2,,,,,,,,,0,,,56,0
54576,note_on,96,0,2,,,,,,,,,0,,,64,0
54576,note_on,0,0,1,,,,,,,,,0,,,68,0
54576,note_on,0,0,1,,,,,,,,,0,,,76,0
54590,set_tempo,2877,1,0,,,,,,450450,,,,,,,
54600,note_on,0,0,1,,,,,,,,,0,,,88,80
54600,note_on,624,0,3,,,,,,,,,0,,,52,80
54600,set_tempo,10,1,0,,,,,,452489,,,,,,,
54600,note_on,0,0,3,,,,,,,,,0,,,45,80
54600,note_on,0,0,3,,,,,,,,,0,,,57,80
54600,note_on,0,0,1,,,,,,,,,0,,,96,80
54600,note_on,0,0,1,,,,,,,,,0,,,84,80
54600,control_change,24,0,1,,,,,,,,,0,64,0,,
54642,control_change,42,0,1,,,,,,,,,0,64,127,,
54696,note_on,0,0,1,,,,,,,,,0,,,84,0
54696,note_on,0,0,3,,,,,,,,,0,,,45,0
54696,note_on,0,0,3,,,,,,,,,0,,,52,0
54696,note_on,96,0,3,,,,,,,,,0,,,57,0
54696,note_on,0,0,1,,,,,,,,,0,,,88,0
54696,note_on,54,0,1,,,,,,,,,0,,,96,0
54720,note_on,24,0,1,,,,,,,,,0,,,76,80
54720,note_on,0,0,1,,,,,,,,,0,,,72,80
54720,note_on,24,0,3,,,,,,,,,0,,,69,80
54720,note_on,0,0,3,,,,,,,,,0,,,64,80
54816,note_on,0,0,1,,,,,,,,,0,,,76,0
54816,note_on,96,0,3,,,,,,,,,0,,,64,0
54816,note_on,96,0,1,,,,,,,,,0,,,72,0
54816,note_on,0,0,3,,,,,,,,,0,,,69,0
54818,control_change,2,0,1,,,,,,,,,0,64,0,,
54840,note_on,0,0,1,,,,,,,,,0,,,97,80
54840,note_on,0,0,3,,,,,,,,,0,,,58,80
54840,note_on,22,0,1,,,,,,,,,0,,,85,80
54840,note_on,0,0,1,,,,,,,,,0,,,88,80
54840,note_on,24,0,3,,,,,,,,,0,,,55,80
54840,note_on,0,0,3,,,,,,,,,0,,,45,80
54880,control_change,40,0,1,,,,,,,,,0,64,127,,
54936,note_on,0,0,3,,,,,,,,,0,,,55,0
54936,note_on,0,0,1,,,,,,,,,0,,,88,0
54936,note_on,96,0,3,,,,,,,,,0,,,58,0
54936,note_on,0,0,3,,,,,,,,,0,,,45,0
54936,note_on,0,0,1,,,,,,,,,0,,,85,0
54936,note_on,56,0,1,,,,,,,,,0,,,97,0
54960,note_on,24,0,3,,,,,,,,,0,,,70,80
54960,note_on,0,0,1,,,,,,,,,0,,,73,80
54960,note_on,0,0,1,,,,,,,,,0,,,76,80
54960,note_on,24,0,1,,,,,,,,,0,,,82,80
54960,note_on,0,0,3,,,,,,,,,0,,,67,80
54960,note_on,0,0,3,,,,,,,,,0,,,61,80
55056,note_on,0,0,3,,,,,,,,,0,,,67,0
55056,note_on,0,0,3,,,,,,,,,0,,,70,0
55056,note_on,96,0,3,,,,,,,,,0,,,61,0
55056,note_on,0,0,1,,,,,,,,,0,,,76,0
55056,note_on,0,0,1,,,,,,,,,0,,,82,0
55056,note_on,96,0,1,,,,,,,,,0,,,73,0
55067,control_change,11,0,1,,,,,,,,,0,64,0,,
55080,note_on,0,0,3,,,,,,,,,0,,,57,80
55080,note_on,0,0,3,,,,,,,,,0,,,45,80
55080,note_on,13,0,1,,,,,,,,,0,,,90,80
55080,note_on,0,0,1,,,,,,,,,0,,,86,80
55080,note_on,0,0,1,,,,,,,,,0,,,98,80
55080,note_on,24,0,3,,,,,,,,,0,,,54,80
55100,control_change,20,0,1,,,,,,,,,0,64,127,,
55176,note_on,76,0,1,,,,,,,,,0,,,86,0
55176,note_on,0,0,1,,,,,,,,,0,,,90,0
55176,note_on,0,0,1,,,,,,,,,0,,,98,0
55176,note_on,0,0,3,,,,,,,,,0,,,45,0
55176,note_on,96,0,3,,,,,,,,,0,,,57,0
55176,note_on,0,0,3,,,,,,,,,0,,,54,0
55200,note_on,24,0,1,,,,,,,,,0,,,81,80
55200,note_on,0,0,1,,,,,,,,,0,,,74,80
55200,note_on,24,0,3,,,,,,,,,0,,,69,80
55200,note_on,0,0,3,,,,,,,,,0,,,66,80
55200,note_on,0,0,3,,,,,,,,,0,,,62,80
55200,note_on,0,0,1,,,,,,,,,0,,,78,80
55296,note_on,0,0,1,,,,,,,,,0,,,81,0
55296,note_on,0,0,3,,,,,,,,,0,,,69,0
55296,note_on,0,0,3,,,,,,,,,0,,,66,0
55296,note_on,96,0,1,,,,,,,,,0,,,78,0
55296,note_on,96,0,3,,,,,,,,,0,,,62,0
55296,note_on,0,0,1,,,,,,,,,0,,,74,0
55320,note_on,0,0,3,,,,,,,,,0,,,45,80
55320,note_on,0,0,3,,,,,,,,,0,,,56,80
55320,control_change,24,0,1,,,,,,,,,0,64,0,,
55320,note_on,24,0,3,,,,,,,,,0,,,53,80
55320,note_on,0,0,1,,,,,,,,,0,,,95,80
55320,note_on,0,0,1,,,,,,,,,0,,,83,80
55320,note_on,0,0,1,,,,,,,,,0,,,86,80
55380,control_change,60,0,1,,,,,,,,,0,64,127,,
55416,note_on,0,0,1,,,,,,,,,0,,,83,0
55416,note_on,36,0,1,,,,,,,,,0,,,86,0
55416,note_on,0,0,1,,,,,,,,,0,,,95,0
55416,note_on,0,0,3,,,,,,,,,0,,,56,0
55416,note_on,0,0,3,,,,,,,,,0,,,53,0
55416,note_on,96,0,3,,,,,,,,,0,,,45,0
55440,note_on,0,0,1,,,,,,,,,0,,,74,80
55440,note_on,0,0,1,,,,,,,,,0,,,80,80
55440,note_on,24,0,1,,,,,,,,,0,,,71,80
55440,note_on,24,0,3,,,,,,,,,0,,,68,80
55440,note_on,0,0,3,,,,,,,,,0,,,65,80
55440,note_on,0,0,3,,,,,,,,,0,,,59,80
55536,note_on,0,0,3,,,,,,,,,0,,,65,0
55536,note_on,0,0,3,,,,,,,,,0,,,68,0
55536,note_on,0,0,1,,,,,,,,,0,,,74,0
55536,note_on,0,0,1,,,,,,,,,0,,,71,0
55536,note_on,96,0,1,,,,,,,,,0,,,80,0
55536,note_on,96,0,3,,,,,,,,,0,,,59,0
55560,note_on,0,0,3,,,,,,,,,0,,,45,80
55560,note_on,0,0,3,,,,,,,,,0,,,52,80
55560,note_on,0,0,1,,,,,,,,,0,,,88,80
55560,note_on,0,0,1,,,,,,,,,0,,,96,80
55560,note_on,24,0,3,,,,,,,,,0,,,55,80
55560,note_on,24,0,1,,,,,,,,,0,,,84,80
55568,control_change,8,0,1,,,,,,,,,0,64,0,,
55644,control_change,76,0,1,,,,,,,,,0,64,127,,
55656,note_on,0,0,1,,,,,,,,,0,,,96,0
55656,note_on,0,0,1,,,,,,,,,0,,,84,0
55656,note_on,96,0,3,,,,,,,,,0,,,52,0
55656,note_on,0,0,3,,,,,,,,,0,,,55,0
55656,note_on,0,0,3,,,,,,,,,0,,,45,0
55656,note_on,12,0,1,,,,,,,,,0,,,88,0
55680,note_on,0,0,3,,,,,,,,,0,,,64,80
55680,note_on,0,0,1,,,,,,,,,0,,,76,80
55680,note_on,24,0,1,,,,,,,,,0,,,72,80
55680,note_on,24,0,3,,,,,,,,,0,,,67,80
55680,note_on,0,0,3,,,,,,,,,0,,,60,80
55680,note_on,0,0,1,,,,,,,,,0,,,79,80
55776,note_on,0,0,1,,,,,,,,,0,,,72,0
55776,note_on,0,0,1,,,,,,,,,0,,,79,0
55776,note_on,0,0,3,,,,,,,,,0,,,64,0
55776,note_on,0,0,3,,,,,,,,,0,,,67,0
55776,note_on,96,0,3,,,,,,,,,0,,,60,0
55776,note_on,96,0,1,,,,,,,,,0,,,76,0
55800,note_on,24,0,1,,,,,,,,,0,,,81,80
55800,note_on,0,0,1,,,,,,,,,0,,,84,80
55800,note_on,0,0,3,,,,,,,,,0,,,45,80
55800,note_on,0,0,3,,,,,,,,,0,,,54,80
55800,note_on,24,0,3,,,,,,,,,0,,,51,80
55800,note_on,0,0,1,,,,,,,,,0,,,93,80
55812,control_change,12,0,1,,,,,,,,,0,64,0,,
55880,control_change,68,0,1,,,,,,,,,0,64,127,,
55896,note_on,0,0,3,,,,,,,,,0,,,51,0
55896,note_on,0,0,3,,,,,,,,,0,,,45,0
55896,note_on,0,0,1,,,,,,,,,0,,,81,0
55896,note_on,96,0,3,,,,,,,,,0,,,54,0
55896,note_on,0,0,1,,,,,,,,,0,,,84,0
55896,note_on,16,0,1,,,,,,,,,0,,,93,0
55920,note_on,24,0,1,,,,,,,,,0,,,78,80
55920,note_on,0,0,3,,,,,,,,,0,,,63,80
55920,note_on,0,0,3,,,,,,,,,0,,,57,80
55920,note_on,0,0,1,,,,,,,,,0,,,69,80
55920,note_on,24,0,3,,,,,,,,,0,,,66,80
55920,note_on,0,0,1,,,,,,,,,0,,,72,80
56016,note_on,0,0,1,,,,,,,,,0,,,72,0
56016,note_on,0,0,3,,,,,,,,,0,,,66,0
56016,note_on,0,0,3,,,,,,,,,0,,,63,0
56016,note_on,96,0,3,,,,,,,,,0,,,57,0
56016,note_on,96,0,1,,,,,,,,,0,,,69,0
56016,note_on,0,0,1,,,,,,,,,0,,,78,0
56031,set_tempo,1431,1,0,,,,,,465116,,,,,,,
56040,note_on,0,0,1,,,,,,,,,0,,,86,80
56040,note_on,0,0,3,,,,,,,,,0,,,45,80
56040,note_on,0,0,1,,,,,,,,,0,,,82,80
56040,note_on,0,0,1,,,,,,,,,0,,,94,80
56040,note_on,0,0,3,,,,,,,,,0,,,50,80
56040,note_on,0,0,3,,,,,,,,,0,,,53,80
56040,control_change,24,0,1,,,,,,,,,0,64,0,,
56040,note_on,24,0,3,,,,,,,,,0,,,58,80
56055,set_tempo,24,1,0,,,,,,461538,,,,,,,
56077,set_tempo,22,1,0,,,,,,458015,,,,,,,
56098,set_tempo,21,1,0,,,,,,454545,,,,,,,
56120,set_tempo,22,1,0,,,,,,451128,,,,,,,
56128,control_change,88,0,1,,,,,,,,,0,64,127,,
56136,note_on,8,0,1,,,,,,,,,0,,,86,0
56136,note_on,0,0,3,,,,,,,,,0,,,50,0
56136,note_on,0,0,3,,,,,,,,,0,,,53,0
56136,note_on,0,0,1,,,,,,,,,0,,,94,0
56136,note_on,0,0,1,,,,,,,,,0,,,82,0
56136,note_on,0,0,3,,,,,,,,,0,,,58,0
56136,note_on,96,0,3,,,,,,,,,0,,,45,0
56141,set_tempo,21,1,0,,,,,,447761,,,,,,,
56160,note_on,24,0,3,,,,,,,,,0,,,45,80
56160,note_on,0,0,3,,,,,,,,,0,,,53,80
56160,note_on,0,0,1,,,,,,,,,0,,,93,80
56160,note_on,0,0,3,,,,,,,,,0,,,58,80
56160,note_on,0,0,3,,,,,,,,,0,,,50,80
56160,note_on,24,0,1,,,,,,,,,0,,,81,80
56163,set_tempo,22,1,0,,,,,,444444,,,,,,,
56185,set_tempo,22,1,0,,,,,,441176,,,,,,,
56206,set_tempo,21,1,0,,,,,,437956,,,,,,,
56228,set_tempo,22,1,0,,,,,,434783,,,,,,,
56249,set_tempo,21,1,0,,,,,,431655,,,,,,,
56256,note_on,0,0,1,,,,,,,,,0,,,81,0
56256,note_on,96,0,1,,,,,,,,,0,,,93,0
56256,note_on,0,0,3,,,,,,,,,0,,,50,0
56256,note_on,0,0,3,,,,,,,,,0,,,53,0
56256,note_on,0,0,3,,,,,,,,,0,,,45,0
56256,note_on,96,0,3,,,,,,,,,0,,,58,0
56271,set_tempo,22,1,0,,,,,,428571,,,,,,,
56280,note_on,0,0,3,,,,,,,,,0,,,58,80
56280,note_on,24,0,1,,,,,,,,,0,,,77,80
56280,note_on,0,0,3,,,,,,,,,0,,,50,80
56280,note_on,0,0,3,,,,,,,,,0,,,53,80
56280,note_on,24,0,3,,,,,,,,,0,,,45,80
56280,note_on,0,0,1,,,,,,,,,0,,,89,80
56293,set_tempo,22,1,0,,,,,,425532,,,,,,,
56314,set_tempo,21,1,0,,,,,,422535,,,,,,,
56338,set_tempo,24,1,0,,,,,,419580,,,,,,,
56360,set_tempo,22,1,0,,,,,,416667,,,,,,,
56376,note_on,0,0,3,,,,,,,,,0,,,45,0
56376,note_on,96,0,3,,,,,,,,,0,,,58,0
56376,note_on,0,0,3,,,,,,,,,0,,,50,0
56376,note_on,96,0,1,,,,,,,,,0,,,89,0
56376,note_on,0,0,3,,,,,,,,,0,,,53,0
56376,note_on,0,0,1,,,,,,,,,0,,,77,0
56381,set_tempo,21,1,0,,,,,,413793,,,,,,,
56400,note_on,0,0,1,,,,,,,,,0,,,74,80
56400,note_on,0,0,3,,,,,,,,,0,,,53,80
56400,note_on,0,0,3,,,,,,,,,0,,,50,80
56400,note_on,24,0,3,,,,,,,,,0,,,58,80
56400,note_on,0,0,3,,,,,,,,,0,,,45,80
56400,note_on,24,0,1,,,,,,,,,0,,,86,80
56403,set_tempo,22,1,0,,,,,,410959,,,,,,,
56425,set_tempo,22,1,0,,,,,,408163,,,,,,,
56446,set_tempo,21,1,0,,,,,,405405,,,,,,,
56468,set_tempo,22,1,0,,,,,,402685,,,,,,,
56489,set_tempo,21,1,0,,,,,,400000,,,,,,,
56496,note_on,96,0,3,,,,,,,,,0,,,50,0
56496,note_on,0,0,3,,,,,,,,,0,,,53,0
56496,note_on,0,0,3,,,,,,,,,0,,,58,0
56496,note_on,96,0,1,,,,,,,,,0,,,74,0
56496,note_on,0,0,1,,,,,,,,,0,,,86,0
56496,note_on,0,0,3,,,,,,,,,0,,,45,0
56511,set_tempo,22,1,0,,,,,,397351,,,,,,,
56520,note_on,0,0,3,,,,,,,,,0,,,50,80
56520,note_on,0,0,3,,,,,,,,,0,,,53,80
56520,note_on,0,0,1,,,,,,,,,0,,,82,80
56520,note_on,0,0,3,,,,,,,,,0,,,58,80
56520,note_on,24,0,3,,,,,,,,,0,,,45,80
56520,note_on,24,0,1,,,,,,,,,0,,,70,80
56533,set_tempo,22,1,0,,,,,,394737,,,,,,,
56554,set_tempo,21,1,0,,,,,,392157,,,,,,,
56576,set_tempo,22,1,0,,,,,,389610,,,,,,,
56597,set_tempo,21,1,0,,,,,,387097,,,,,,,
56616,note_on,0,0,3,,,,,,,,,0,,,45,0
56616,note_on,0,0,3,,,,,,,,,0,,,58,0
56616,note_on,0,0,3,,,,,,,,,0,,,50,0
56616,note_on,96,0,3,,,,,,,,,0,,,53,0
56616,note_on,0,0,1,,,,,,,,,0,,,70,0
56616,note_on,96,0,1,,,,,,,,,0,,,82,0
56621,set_tempo,24,1,0,,,,,,384615,,,,,,,
56640,note_on,0,0,3,,,,,,,,,0,,,50,80
56640,note_on,0,0,1,,,,,,,,,0,,,81,80
56640,note_on,0,0,3,,,,,,,,,0,,,57,80
56640,note_on,24,0,1,,,,,,,,,0,,,69,80
56640,note_on,0,0,3,,,,,,,,,0,,,45,80
56640,note_on,24,0,3,,,,,,,,,0,,,53,80
56643,set_tempo,22,1,0,,,,,,382166,,,,,,,
56665,set_tempo,22,1,0,,,,,,379747,,,,,,,
56686,set_tempo,21,1,0,,,,,,377358,,,,,,,
56708,set_tempo,22,1,0,,,,,,375000,,,,,,,
56729,set_tempo,21,1,0,,,,,,372671,,,,,,,
56736,note_on,0,0,3,,,,,,,,,0,,,53,0
56736,note_on,0,0,3,,,,,,,,,0,,,57,0
56736,note_on,0,0,3,,,,,,,,,0,,,50,0
56736,note_on,0,0,1,,,,,,,,,0,,,69,0
56736,note_on,96,0,3,,,,,,,,,0,,,45,0
56736,note_on,96,0,1,,,,,,,,,0,,,81,0
56751,set_tempo,22,1,0,,,,,,370370,,,,,,,
56760,note_on,0,0,3,,,,,,,,,0,,,52,80
56760,note_on,0,0,3,,,,,,,,,0,,,47,80
56760,note_on,24,0,3,,,,,,,,,0,,,56,80
56760,note_on,0,0,1,,,,,,,,,0,,,68,80
56760,note_on,0,0,3,,,,,,,,,0,,,50,80
56760,control_change,24,0,1,,,,,,,,,0,64,0,,
56760,note_on,0,0,3,,,,,,,,,0,,,45,80
56760,note_on,0,0,1,,,,,,,,,0,,,80,80
56773,set_tempo,22,1,0,,,,,,368098,,,,,,,
56794,set_tempo,21,1,0,,,,,,365854,,,,,,,
56816,set_tempo,22,1,0,,,,,,363636,,,,,,,
56837,set_tempo,21,1,0,,,,,,361446,,,,,,,
56856,note_on,0,0,3,,,,,,,,,0,,,45,0
56856,note_on,0,0,3,,,,,,,,,0,,,50,0
56856,note_on,0,0,1,,,,,,,,,0,,,68,0
56856,note_on,0,0,3,,,,,,,,,0,,,56,0
56856,control_change,0,0,1,,,,,,,,,0,64,127,,
56856,note_on,96,0,3,,,,,,,,,0,,,52,0
56856,note_on,96,0,1,,,,,,,,,0,,,80,0
56856,note_on,0,0,3,,,,,,,,,0,,,47,0
56859,set_tempo,22,1,0,,,,,,359281,,,,,,,
56880,note_on,24,0,1,,,,,,,,,0,,,65,80
56880,note_on,24,0,3,,,,,,,,,0,,,47,80
56880,note_on,0,0,3,,,,,,,,,0,,,45,80
56880,note_on,0,0,3,,,,,,,,,0,,,50,80
56880,note_on,0,0,3,,,,,,,,,0,,,52,80
56880,note_on,0,0,3,,,,,,,,,0,,,56,80
56880,note_on,0,0,1,,,,,,,,,0,,,77,80
56881,set_tempo,22,1,0,,,,,,357143,,,,,,,
56897,set_tempo,16,1,0,,,,,,359281,,,,,,,
56914,set_tempo,17,1,0,,,,,,361446,,,,,,,
56931,set_tempo,17,1,0,,,,,,363636,,,,,,,
56948,set_tempo,17,1,0,,,,,,365854,,,,,,,
56965,set_tempo,17,1,0,,,,,,368098,,,,,,,
56976,note_on,0,0,3,,,,,,,,,0,,,45,0
56976,note_on,0,0,3,,,,,,,,,0,,,47,0
56976,note_on,96,0,3,,,,,,,,,0,,,56,0
56976,note_on,0,0,3,,,,,,,,,0,,,50,0
56976,note_on,0,0,3,,,,,,,,,0,,,52,0
56976,note_on,0,0,1,,,,,,,,,0,,,65,0
56976,note_on,96,0,1,,,,,,,,,0,,,77,0
56981,set_tempo,16,1,0,,,,,,370370,,,,,,,
56998,set_tempo,17,1,0,,,,,,372671,,,,,,,
57000,note_on,24,0,3,,,,,,,,,0,,,56,80
57000,note_on,0,0,3,,,,,,,,,0,,,50,80
57000,note_on,24,0,1,,,,,,,,,0,,,64,80
57000,note_on,0,0,3,,,,,,,,,0,,,52,80
57000,note_on,0,0,3,,,,,,,,,0,,,45,80
57000,note_on,0,0,3,,,,,,,,,0,,,47,80
57000,note_on,0,0,1,,,,,,,,,0,,,76,80
57015,set_tempo,17,1,0,,,,,,375000,,,,,,,
57032,set_tempo,17,1,0,,,,,,377358,,,,,,,
57049,set_tempo,17,1,0,,,,,,379747,,,,,,,
57065,set_tempo,16,1,0,,,,,,382166,,,,,,,
57082,set_tempo,17,1,0,,,,,,384615,,,,,,,
57096,note_on,0,0,3,,,,,,,,,0,,,45,0
57096,note_on,96,0,1,,,,,,,,,0,,,76,0
57096,note_on,0,0,1,,,,,,,,,0,,,64,0
57096,note_on,0,0,3,,,,,,,,,0,,,52,0
57096,note_on,0,0,3,,,,,,,,,0,,,56,0
57096,note_on,0,0,3,,,,,,,,,0,,,50,0
57096,note_on,96,0,3,,,,,,,,,0,,,47,0
57099,set_tempo,17,1,0,,,,,,387097,,,,,,,
57116,set_tempo,17,1,0,,,,,,389610,,,,,,,
57120,note_on,0,0,3,,,,,,,,,0,,,45,80
57120,note_on,0,0,3,,,,,,,,,0,,,47,80
57120,note_on,24,0,3,,,,,,,,,0,,,56,80
57120,note_on,0,0,3,,,,,,,,,0,,,50,80
57120,note_on,0,0,3,,,,,,,,,0,,,52,80
57120,note_on,24,0,1,,,,,,,,,0,,,62,80
57120,note_on,0,0,1,,,,,,,,,0,,,74,80
57133,set_tempo,17,1,0,,,,,,392157,,,,,,,
57149,set_tempo,16,1,0,,,,,,394737,,,,,,,
57166,set_tempo,17,1,0,,,,,,397351,,,,,,,
57183,set_tempo,17,1,0,,,,,,400000,,,,,,,
57200,set_tempo,17,1,0,,,,,,402685,,,,,,,
57216,note_on,0,0,1,,,,,,,,,0,,,62,0
57216,note_on,0,0,3,,,,,,,,,0,,,45,0
57216,note_on,0,0,3,,,,,,,,,0,,,50,0
57216,note_on,0,0,3,,,,,,,,,0,,,52,0
57216,note_on,96,0,1,,,,,,,,,0,,,74,0
57216,note_on,96,0,3,,,,,,,,,0,,,47,0
57216,note_on,0,0,3,,,,,,,,,0,,,56,0
57217,set_tempo,17,1,0,,,,,,405405,,,,,,,
57233,set_tempo,16,1,0,,,,,,408163,,,,,,,
57240,note_on,0,0,3,,,,,,,,,0,,,50,80
57240,note_on,0,0,3,,,,,,,,,0,,,52,80
57240,note_on,0,0,3,,,,,,,,,0,,,56,80
57240,note_on,24,0,3,,,,,,,,,0,,,47,80
57240,note_on,0,0,3,,,,,,,,,0,,,45,80
57240,note_on,0,0,1,,,,,,,,,0,,,71,80
57240,note_on,24,0,1,,,,,,,,,0,,,59,80
57250,set_tempo,17,1,0,,,,,,410959,,,,,,,
57267,set_tempo,17,1,0,,,,,,413793,,,,,,,
57284,set_tempo,17,1,0,,,,,,416667,,,,,,,
57301,set_tempo,17,1,0,,,,,,419580,,,,,,,
57317,set_tempo,16,1,0,,,,,,422535,,,,,,,
57334,set_tempo,17,1,0,,,,,,425532,,,,,,,
57336,note_on,96,0,3,,,,,,,,,0,,,50,0
57336,note_on,0,0,1,,,,,,,,,0,,,59,0
57336,note_on,0,0,3,,,,,,,,,0,,,45,0
57336,note_on,0,0,3,,,,,,,,,0,,,52,0
57336,note_on,0,0,3,,,,,,,,,0,,,56,0
57336,note_on,0,0,3,,,,,,,,,0,,,47,0
57336,note_on,96,0,1,,,,,,,,,0,,,71,0
57351,set_tempo,17,1,0,,,,,,428571,,,,,,,
57360,note_on,24,0,1,,,,,,,,,0,,,64,80
57360,note_on,0,0,3,,,,,,,,,0,,,45,80
57360,note_on,0,0,3,,,,,,,,,0,,,56,80
57360,note_on,0,0,1,,,,,,,,,0,,,76,80
57360,note_on,24,0,3,,,,,,,,,0,,,50,80
57360,note_on,0,0,3,,,,,,,,,0,,,52,80
57360,note_on,0,0,3,,,,,,,,,0,,,47,80
57368,set_tempo,17,1,0,,,,,,431655,,,,,,,
57385,set_tempo,17,1,0,,,,,,434783,,,,,,,
57401,set_tempo,16,1,0,,,,,,437956,,,,,,,
57418,set_tempo,17,1,0,,,,,,441176,,,,,,,
57435,set_tempo,17,1,0,,,,,,444444,,,,,,,
57452,set_tempo,17,1,0,,,,,,447761,,,,,,,
57456,note_on,96,0,3,,,,,,,,,0,,,45,0
57456,note_on,0,0,3,,,,,,,,,0,,,50,0
57456,note_on,0,0,3,,,,,,,,,0,,,52,0
57456,note_on,0,0,3,,,,,,,,,0,,,56,0
57456,note_on,0,0,1,,,,,,,,,0,,,64,0
57456,note_on,96,0,1,,,,,,,,,0,,,76,0
57456,note_on,0,0,3,,,,,,,,,0,,,47,0
57469,set_tempo,17,1,0,,,,,,451128,,,,,,,
57480,note_on,0,0,3,,,,,,,,,0,,,45,110
57480,note_on,0,0,1,,,,,,,,,0,,,72,80
57480,note_on,0,0,1,,,,,,,,,0,,,84,80
57480,note_on,24,0,1,,,,,,,,,0,,,76,80
57480,control_change,0,0,1,,,,,,,,,0,64,0,,
57480,note_on,24,0,3,,,,,,,,,0,,,33,110
57485,set_tempo,16,1,0,,,,,,454545,,,,,,,
57529,control_change,49,0,1,,,,,,,,,0,64,127,,
57576,note_on,0,0,3,,,,,,,,,0,,,33,0
57576,note_on,47,0,1,,,,,,,,,0,,,84,0
57576,note_on,96,0,3,,,,,,,,,0,,,45,0
57576,note_on,0,0,1,,,,,,,,,0,,,72,0
57576,note_on,0,0,1,,,,,,,,,0,,,76,0
57600,note_on,24,0,1,,,,,,,,,0,,,60,80
57600,note_on,0,0,3,,,,,,,,,0,,,57,80
57600,note_on,24,0,3,,,,,,,,,0,,,52,100
57600,note_on,0,0,1,,,,,,,,,0,,,64,80
57696,note_on,96,0,1,,,,,,,,,0,,,64,0
57696,note_on,0,0,3,,,,,,,,,0,,,52,0
57696,note_on,96,0,3,,,,,,,,,0,,,57,0
57696,note_on,0,0,1,,,,,,,,,0,,,60,0
57707,control_change,11,0,1,,,,,,,,,0,64,0,,
57720,note_on,24,0,3,,,,,,,,,0,,,43,80
57720,note_on,0,0,1,,,,,,,,,0,,,85,80
57720,note_on,0,0,1,,,,,,,,,0,,,73,80
57720,note_on,13,0,1,,,,,,,,,0,,,76,80
57720,note_on,0,0,3,,,,,,,,,0,,,33,80
57720,note_on,0,0,3,,,,,,,,,0,,,46,80
57751,control_change,31,0,1,,,,,,,,,0,64,127,,
57816,note_on,0,0,3,,,,,,,,,0,,,46,0
57816,note_on,0,0,1,,,,,,,,,0,,,76,0
57816,note_on,0,0,1,,,,,,,,,0,,,85,0
57816,note_on,65,0,1,,,,,,,,,0,,,73,0
57816,note_on,96,0,3,,,,,,,,,0,,,33,0
57816,note_on,0,0,3,,,,,,,,,0,,,43,0
57840,note_on,24,0,3,,,,,,,,,0,,,55,80
57840,note_on,0,0,3,,,,,,,,,0,,,49,80
57840,note_on,0,0,1,,,,,,,,,0,,,70,80
57840,note_on,0,0,1,,,,,,,,,0,,,61,80
57840,note_on,0,0,3,,,,,,,,,0,,,58,80
57840,note_on,24,0,1,,,,,,,,,0,,,64,80
57936,note_on,0,0,1,,,,,,,,,0,,,64,0
57936,note_on,0,0,1,,,,,,,,,0,,,61,0
57936,note_on,0,0,3,,,,,,,,,0,,,58,0
57936,note_on,96,0,1,,,,,,,,,0,,,70,0
57936,note_on,96,0,3,,,,,,,,,0,,,49,0
57936,note_on,0,0,3,,,,,,,,,0,,,55,0
57942,control_change,6,0,1,,,,,,,,,0,64,0,,
57960,note_on,18,0,1,,,,,,,,,0,,,78,80
57960,note_on,24,0,3,,,,,,,,,0,,,42,80
57960,note_on,0,0,1,,,,,,,,,0,,,74,80
57960,note_on,0,0,3,,,,,,,,,0,,,33,80
57960,note_on,0,0,3,,,,,,,,,0,,,45,80
57960,note_on,0,0,1,,,,,,,,,0,,,86,80
57984,control_change,24,0,1,,,,,,,,,0,64,127,,
58056,note_on,0,0,1,,,,,,,,,0,,,78,0
58056,note_on,72,0,1,,,,,,,,,0,,,74,0
58056,note_on,0,0,1,,,,,,,,,0,,,86,0
58056,note_on,96,0,3,,,,,,,,,0,,,45,0
58056,note_on,0,0,3,,,,,,,,,0,,,42,0
58056,note_on,0,0,3,,,,,,,,,0,,,33,0
58080,note_on,0,0,1,,,,,,,,,0,,,69,80
58080,note_on,0,0,3,,,,,,,,,0,,,50,80
58080,note_on,24,0,3,,,,,,,,,0,,,54,80
58080,note_on,24,0,1,,,,,,,,,0,,,66,80
58080,note_on,0,0,1,,,,,,,,,0,,,62,80
58080,note_on,0,0,3,,,,,,,,,0,,,57,80
58176,note_on,0,0,1,,,,,,,,,0,,,62,0
58176,note_on,96,0,3,,,,,,,,,0,,,50,0
58176,note_on,96,0,1,,,,,,,,,0,,,69,0
58176,note_on,0,0,3,,,,,,,,,0,,,57,0
58176,note_on,0,0,3,,,,,,,,,0,,,54,0
58176,note_on,0,0,1,,,,,,,,,0,,,66,0
58194,set_tempo,709,1,0,,,,,,454545,,,,,,,
58200,note_on,24,0,3,,,,,,,,,0,,,41,80
58200,note_on,24,0,1,,,,,,,,,0,,,74,80
58200,note_on,0,0,1,,,,,,,,,0,,,83,80
58200,note_on,0,0,3,,,,,,,,,0,,,44,80
58200,note_on,0,0,3,,,,,,,,,0,,,33,80
58200,note_on,0,0,1,,,,,,,,,0,,,71,80
58204,control_change,4,0,1,,,,,,,,,0,64,0,,
58292,control_change,88,0,1,,,,,,,,,0,64,127,,
58296,note_on,0,0,3,,,,,,,,,0,,,41,0
58296,note_on,0,0,1,,,,,,,,,0,,,74,0
58296,note_on,4,0,1,,,,,,,,,0,,,83,0
58296,note_on,0,0,1,,,,,,,,,0,,,71,0
58296,note_on,0,0,3,,,,,,,,,0,,,44,0
58296,note_on,96,0,3,,,,,,,,,0,,,33,0
58320,note_on,24,0,3,,,,,,,,,0,,,47,80
58320,note_on,24,0,1,,,,,,,,,0,,,62,80
58320,note_on,0,0,1,,,,,,,,,0,,,68,80
58320,note_on,0,0,1,,,,,,,,,0,,,59,80
58320,note_on,0,0,3,,,,,,,,,0,,,53,80
58320,note_on,0,0,3,,,,,,,,,0,,,56,80
58412,control_change,92,0,1,,,,,,,,,0,64,0,,
58416,note_on,0,0,3,,,,,,,,,0,,,47,0
58416,note_on,0,0,3,,,,,,,,,0,,,53,0
58416,note_on,96,0,3,,,,,,,,,0,,,56,0
58416,note_on,4,0,1,,,,,,,,,0,,,59,0
58416,note_on,0,0,1,,,,,,,,,0,,,68,0
58416,note_on,0,0,1,,,,,,,,,0,,,62,0
58440,note_on,0,0,3,,,,,,,,,0,,,33,80
58440,note_on,0,0,3,,,,,,,,,0,,,43,80
58440,note_on,24,0,3,,,,,,,,,0,,,40,80
58440,note_on,0,0,1,,,,,,,,,0,,,84,80
58440,note_on,0,0,1,,,,,,,,,0,,,76,80
58440,note_on,24,0,1,,,,,,,,,0,,,72,80
58484,control_change,44,0,1,,,,,,,,,0,64,127,,
58536,note_on,0,0,3,,,,,,,,,0,,,33,0
58536,note_on,96,0,3,,,,,,,,,0,,,43,0
58536,note_on,0,0,1,,,,,,,,,0,,,72,0
58536,note_on,0,0,1,,,,,,,,,0,,,84,0
58536,note_on,0,0,3,,,,,,,,,0,,,40,0
58536,note_on,52,0,1,,,,,,,,,0,,,76,0
58560,note_on,0,0,3,,,,,,,,,0,,,52,80
58560,note_on,24,0,1,,,,,,,,,0,,,64,80
58560,note_on,0,0,1,,,,,,,,,0,,,67,80
58560,note_on,0,0,1,,,,,,,,,0,,,60,80
58560,note_on,0,0,3,,,,,,,,,0,,,55,80
58560,note_on,24,0,3,,,,,,,,,0,,,48,80
58656,note_on,96,0,3,,,,,,,,,0,,,55,0
58656,note_on,0,0,1,,,,,,,,,0,,,64,0
58656,note_on,0,0,1,,,,,,,,,0,,,67,0
58656,note_on,0,0,3,,,,,,,,,0,,,48,0
58656,note_on,0,0,3,,,,,,,,,0,,,52,0
58656,note_on,96,0,1,,,,,,,,,0,,,60,0
58680,note_on,24,0,3,,,,,,,,,0,,,39,80
58680,note_on,0,0,3,,,,,,,,,0,,,42,80
58680,note_on,0,0,1,,,,,,,,,0,,,72,80
58680,note_on,0,0,1,,,,,,,,,0,,,69,80
58680,note_on,0,0,3,,,,,,,,,0,,,33,80
58680,control_change,24,0,1,,,,,,,,,0,64,0,,
58680,note_on,0,0,1,,,,,,,,,0,,,81,80
58772,control_change,92,0,1,,,,,,,,,0,64,127,,
58776,note_on,0,0,3,,,,,,,,,0,,,39,0
58776,note_on,0,0,3,,,,,,,,,0,,,33,0
58776,note_on,96,0,3,,,,,,,,,0,,,42,0
58776,note_on,0,0,1,,,,,,,,,0,,,69,0
58776,note_on,0,0,1,,,,,,,,,0,,,72,0
58776,note_on,4,0,1,,,,,,,,,0,,,81,0
58800,note_on,24,0,1,,,,,,,,,0,,,66,80
58800,note_on,0,0,3,,,,,,,,,0,,,45,80
58800,note_on,0,0,3,,,,,,,,,0,,,54,80
58800,note_on,0,0,1,,,,,,,,,0,,,57,80
58800,note_on,0,0,1,,,,,,,,,0,,,60,80
58800,note_on,24,0,3,,,,,,,,,0,,,51,80
58894,set_tempo,700,1,0,,,,,,451128,,,,,,,
58896,note_on,96,0,3,,,,,,,,,0,,,45,0
58896,note_on,0,0,3,,,,,,,,,0,,,54,0
58896,note_on,0,0,3,,,,,,,,,0,,,51,0
58896,note_on,96,0,1,,,,,,,,,0,,,57,0
58896,note_on,0,0,1,,,,,,,,,0,,,60,0
58896,note_on,0,0,1,,,,,,,,,0,,,66,0
58920,note_on,24,0,1,,,,,,,,,0,,,74,80
58920,control_change,0,0,1,,,,,,,,,0,64,0,,
58920,note_on,0,0,3,,,,,,,,,0,,,46,80
58920,note_on,0,0,3,,,,,,,,,0,,,41,80
58920,note_on,0,0,3,,,,,,,,,0,,,38,80
58920,note_on,24,0,3,,,,,,,,,0,,,33,80
58920,note_on,0,0,1,,,,,,,,,0,,,82,80
58920,note_on,0,0,1,,,,,,,,,0,,,70,80
58925,set_tempo,31,1,0,,,,,,447761,,,,,,,
58954,set_tempo,29,1,0,,,,,,444444,,,,,,,
58983,set_tempo,29,1,0,,,,,,441176,,,,,,,
59008,control_change,88,0,1,,,,,,,,,0,64,127,,
59012,set_tempo,29,1,0,,,,,,437956,,,,,,,
59016,note_on,0,0,1,,,,,,,,,0,,,70,0
59016,note_on,0,0,1,,,,,,,,,0,,,74,0
59016,note_on,96,0,3,,,,,,,,,0,,,38,0
59016,note_on,0,0,3,,,,,,,,,0,,,33,0
59016,note_on,8,0,1,,,,,,,,,0,,,82,0
59016,note_on,0,0,3,,,,,,,,,0,,,41,0
59016,note_on,0,0,3,,,,,,,,,0,,,46,0
59040,note_on,0,0,3,,,,,,,,,0,,,38,80
59040,note_on,0,0,3,,,,,,,,,0,,,33,80
59040,note_on,0,0,3,,,,,,,,,0,,,46,80
59040,note_on,24,0,3,,,,,,,,,0,,,41,80
59040,note_on,0,0,1,,,,,,,,,0,,,77,80
59040,set_tempo,28,1,0,,,,,,434783,,,,,,,
59040,note_on,24,0,1,,,,,,,,,0,,,89,80
59069,set_tempo,29,1,0,,,,,,431655,,,,,,,
59098,set_tempo,29,1,0,,,,,,428571,,,,,,,
59127,set_tempo,29,1,0,,,,,,425532,,,,,,,
59136,note_on,96,0,1,,,,,,,,,0,,,77,0
59136,note_on,96,0,3,,,,,,,,,0,,,38,0
59136,note_on,0,0,3,,,,,,,,,0,,,46,0
59136,note_on,0,0,1,,,,,,,,,0,,,89,0
59136,note_on,0,0,3,,,,,,,,,0,,,41,0
59136,note_on,0,0,3,,,,,,,,,0,,,33,0
59156,set_tempo,29,1,0,,,,,,422535,,,,,,,
59160,note_on,0,0,3,,,,,,,,,0,,,38,80
59160,note_on,0,0,3,,,,,,,,,0,,,41,80
59160,note_on,0,0,3,,,,,,,,,0,,,46,80
59160,note_on,0,0,1,,,,,,,,,0,,,86,80
59160,note_on,24,0,1,,,,,,,,,0,,,74,80
59160,note_on,24,0,3,,,,,,,,,0,,,33,80
59184,set_tempo,28,1,0,,,,,,419580,,,,,,,
59213,set_tempo,29,1,0,,,,,,416667,,,,,,,
59242,set_tempo,29,1,0,,,,,,413793,,,,,,,
59256,note_on,0,0,3,,,,,,,,,0,,,41,0
59256,note_on,96,0,3,,,,,,,,,0,,,38,0
59256,note_on,0,0,1,,,,,,,,,0,,,74,0
59256,note_on,96,0,1,,,,,,,,,0,,,86,0
59256,note_on,0,0,3,,,,,,,,,0,,,46,0
59256,note_on,0,0,3,,,,,,,,,0,,,33,0
59271,set_tempo,29,1,0,,,,,,410959,,,,,,,
59280,note_on,0,0,3,,,,,,,,,0,,,38,80
59280,note_on,24,0,1,,,,,,,,,0,,,70,80
59280,note_on,0,0,3,,,,,,,,,0,,,33,80
59280,note_on,0,0,1,,,,,,,,,0,,,82,80
59280,note_on,24,0,3,,,,,,,,,0,,,46,80
59280,note_on,0,0,3,,,,,,,,,0,,,41,80
59300,set_tempo,29,1,0,,,,,,408163,,,,,,,
59328,set_tempo,28,1,0,,,,,,405405,,,,,,,
59357,set_tempo,29,1,0,,,,,,402685,,,,,,,
59376,note_on,0,0,3,,,,,,,,,0,,,46,0
59376,note_on,96,0,3,,,,,,,,,0,,,33,0
59376,note_on,96,0,1,,,,,,,,,0,,,82,0
59376,note_on,0,0,1,,,,,,,,,0,,,70,0
59376,note_on,0,0,3,,,,,,,,,0,,,38,0
59376,note_on,0,0,3,,,,,,,,,0,,,41,0
59386,set_tempo,29,1,0,,,,,,400000,,,,,,,
59400,note_on,24,0,1,,,,,,,,,0,,,69,80
59400,note_on,0,0,3,,,,,,,,,0,,,33,80
59400,note_on,0,0,3,,,,,,,,,0,,,41,80
59400,note_on,0,0,1,,,,,,,,,0,,,81,80
59400,note_on,0,0,3,,,,,,,,,0,,,45,80
59400,note_on,24,0,3,,,,,,,,,0,,,38,80
59415,set_tempo,29,1,0,,,,,,397351,,,,,,,
59444,set_tempo,29,1,0,,,,,,394737,,,,,,,
59472,set_tempo,28,1,0,,,,,,392157,,,,,,,
59496,note_on,0,0,1,,,,,,,,,0,,,69,0
59496,note_on,96,0,1,,,,,,,,,0,,,81,0
59496,note_on,0,0,3,,,,,,,,,0,,,33,0
59496,note_on,0,0,3,,,,,,,,,0,,,41,0
59496,note_on,0,0,3,,,,,,,,,0,,,38,0
59496,note_on,96,0,3,,,,,,,,,0,,,45,0
59501,set_tempo,29,1,0,,,,,,389610,,,,,,,
59520,note_on,0,0,3,,,,,,,,,0,,,41,80
59520,note_on,0,0,3,,,,,,,,,0,,,33,80
59520,note_on,24,0,3,,,,,,,,,0,,,38,80
59520,note_on,0,0,1,,,,,,,,,0,,,65,80
59520,note_on,24,0,1,,,,,,,,,0,,,77,80
59520,note_on,0,0,3,,,,,,,,,0,,,45,80
59530,set_tempo,29,1,0,,,,,,387097,,,,,,,
59559,set_tempo,29,1,0,,,,,,384615,,,,,,,
59588,set_tempo,29,1,0,,,,,,382166,,,,,,,
59616,note_on,0,0,3,,,,,,,,,0,,,38,0
59616,set_tempo,28,1,0,,,,,,379747,,,,,,,
59616,note_on,0,0,1,,,,,,,,,0,,,77,0
59616,note_on,0,0,3,,,,,,,,,0,,,45,0
59616,note_on,96,0,3,,,,,,,,,0,,,41,0
59616,note_on,0,0,3,,,,,,,,,0,,,33,0
59616,note_on,96,0,1,,,,,,,,,0,,,65,0
59640,control_change,24,0,1,,,,,,,,,0,64,0,,
59640,note_on,0,0,3,,,,,,,,,0,,,33,80
59640,note_on,0,0,1,,,,,,,,,0,,,64,80
59640,note_on,0,0,3,,,,,,,,,0,,,35,80
59640,note_on,0,0,3,,,,,,,,,0,,,38,80
59640,note_on,0,0,3,,,,,,,,,0,,,44,80
59640,note_on,24,0,3,,,,,,,,,0,,,40,80
59640,note_on,0,0,1,,,,,,,,,0,,,76,80
59645,set_tempo,29,1,0,,,,,,377358,,,,,,,
59674,set_tempo,29,1,0,,,,,,375000,,,,,,,
59703,set_tempo,29,1,0,,,,,,372671,,,,,,,
59716,control_change,76,0,1,,,,,,,,,0,64,127,,
59732,set_tempo,29,1,0,,,,,,370370,,,,,,,
59736,note_on,0,0,1,,,,,,,,,0,,,64,0
59736,note_on,20,0,1,,,,,,,,,0,,,76,0
59736,note_on,0,0,3,,,,,,,,,0,,,40,0
59736,note_on,0,0,3,,,,,,,,,0,,,38,0
59736,note_on,96,0,3,,,,,,,,,0,,,33,0
59736,note_on,0,0,3,,,,,,,,,0,,,44,0
59736,note_on,0,0,3,,,,,,,,,0,,,35,0
59760,note_on,0,0,3,,,,,,,,,0,,,38,80
59760,note_on,24,0,1,,,,,,,,,0,,,62,80
59760,note_on,0,0,1,,,,,,,,,0,,,74,80
59760,note_on,24,0,3,,,,,,,,,0,,,44,80
59760,set_tempo,28,1,0,,,,,,368098,,,,,,,
59760,note_on,0,0,3,,,,,,,,,0,,,33,80
59760,note_on,0,0,3,,,,,,,,,0,,,35,80
59760,note_on,0,0,3,,,,,,,,,0,,,40,80
59789,set_tempo,29,1,0,,,,,,365854,,,,,,,
59818,set_tempo,29,1,0,,,,,,363636,,,,,,,
59847,set_tempo,29,1,0,,,,,,361446,,,,,,,
59856,note_on,0,0,1,,,,,,,,,0,,,62,0
59856,note_on,96,0,1,,,,,,,,,0,,,74,0
59856,note_on,0,0,3,,,,,,,,,0,,,38,0
59856,note_on,0,0,3,,,,,,,,,0,,,35,0
59856,note_on,0,0,3,,,,,,,,,0,,,40,0
59856,note_on,0,0,3,,,,,,,,,0,,,44,0
59856,note_on,96,0,3,,,,,,,,,0,,,33,0
59876,set_tempo,29,1,0,,,,,,359281,,,,,,,
59880,note_on,24,0,1,,,,,,,,,0,,,59,80
59880,note_on,24,0,3,,,,,,,,,0,,,40,80
59880,note_on,0,0,1,,,,,,,,,0,,,71,80
59880,note_on,0,0,3,,,,,,,,,0,,,44,80
59880,note_on,0,0,3,,,,,,,,,0,,,33,80
59880,note_on,0,0,3,,,,,,,,,0,,,38,80
59880,note_on,0,0,3,,,,,,,,,0,,,35,80
59895,set_tempo,19,1,0,,,,,,361446,,,,,,,
59912,set_tempo,17,1,0,,,,,,363636,,,,,,,
59931,set_tempo,19,1,0,,,,,,365854,,,,,,,
59948,set_tempo,17,1,0,,,,,,368098,,,,,,,
59964,set_tempo,16,1,0,,,,,,370370,,,,,,,
59976,note_on,96,0,3,,,,,,,,,0,,,38,0
59976,note_on,0,0,3,,,,,,,,,0,,,44,0
59976,note_on,0,0,3,,,,,,,,,0,,,40,0
59976,note_on,0,0,3,,,,,,,,,0,,,35,0
59976,note_on,0,0,3,,,,,,,,,0,,,33,0
59976,note_on,0,0,1,,,,,,,,,0,,,59,0
59976,note_on,96,0,1,,,,,,,,,0,,,71,0
59984,set_tempo,20,1,0,,,,,,372671,,,,,,,
60000,set_tempo,16,1,0,,,,,,375000,,,,,,,
60000,note_on,24,0,1,,,,,,,,,0,,,56,80
60000,note_on,24,0,3,,,,,,,,,0,,,33,80
60000,note_on,0,0,1,,,,,,,,,0,,,68,80
60000,note_on,0,0,3,,,,,,,,,0,,,35,80
60000,note_on,0,0,3,,,,,,,,,0,,,38,80
60000,note_on,0,0,3,,,,,,,,,0,,,40,80
60000,note_on,0,0,3,,,,,,,,,0,,,44,80
60017,set_tempo,17,1,0,,,,,,377358,,,,,,,
60036,set_tempo,19,1,0,,,,,,379747,,,,,,,
60053,set_tempo,17,1,0,,,,,,382166,,,,,,,
60072,set_tempo,19,1,0,,,,,,384615,,,,,,,
60089,set_tempo,17,1,0,,,,,,387097,,,,,,,
60096,note_on,0,0,3,,,,,,,,,0,,,33,0
60096,note_on,0,0,1,,,,,,,,,0,,,56,0
60096,note_on,96,0,1,,,,,,,,,0,,,68,0
60096,note_on,0,0,3,,,,,,,,,0,,,38,0
60096,note_on,0,0,3,,,,,,,,,0,,,40,0
60096,note_on,96,0,3,,,,,,,,,0,,,44,0
60096,note_on,0,0,3,,,,,,,,,0,,,35,0
60106,set_tempo,17,1,0,,,,,,389610,,,,,,,
60120,note_on,24,0,3,,,,,,,,,0,,,38,80
60120,note_on,0,0,3,,,,,,,,,0,,,35,80
60120,note_on,24,0,1,,,,,,,,,0,,,53,80
60120,note_on,0,0,3,,,,,,,,,0,,,44,80
60120,note_on,0,0,3,,,,,,,,,0,,,40,80
60120,note_on,0,0,3,,,,,,,,,0,,,33,80
60120,note_on,0,0,1,,,,,,,,,0,,,65,80
60125,set_tempo,19,1,0,,,,,,392157,,,,,,,
60142,set_tempo,17,1,0,,,,,,394737,,,,,,,
60159,set_tempo,17,1,0,,,,,,397351,,,,,,,
60178,set_tempo,19,1,0,,,,,,400000,,,,,,,
60195,set_tempo,17,1,0,,,,,,402685,,,,,,,
60214,set_tempo,19,1,0,,,,,,405405,,,,,,,
60216,note_on,0,0,3,,,,,,,,,0,,,44,0
60216,note_on,0,0,1,,,,,,,,,0,,,53,0
60216,note_on,0,0,3,,,,,,,,,0,,,38,0
60216,note_on,96,0,3,,,,,,,,,0,,,33,0
60216,note_on,0,0,3,,,,,,,,,0,,,40,0
60216,note_on,96,0,1,,,,,,,,,0,,,65,0
60216,note_on,0,0,3,,,,,,,,,0,,,35,0
60231,set_tempo,17,1,0,,,,,,408163,,,,,,,
60240,note_on,0,0,3,,,,,,,,,0,,,38,80
60240,note_on,0,0,3,,,,,,,,,0,,,33,80
60240,note_on,0,0,3,,,,,,,,,0,,,40,80
60240,note_on,0,0,3,,,,,,,,,0,,,35,80
60240,note_on,24,0,3,,,,,,,,,0,,,44,80
60240,note_on,24,0,1,,,,,,,,,0,,,52,80
60240,note_on,0,0,1,,,,,,,,,0,,,64,80
60248,set_tempo,17,1,0,,,,,,410959,,,,,,,
60267,set_tempo,19,1,0,,,,,,413793,,,,,,,
60284,set_tempo,17,1,0,,,,,,416667,,,,,,,
60300,set_tempo,16,1,0,,,,,,419580,,,,,,,
60320,set_tempo,20,1,0,,,,,,422535,,,,,,,
60336,note_on,0,0,1,,,,,,,,,0,,,52,0
60336,note_on,96,0,3,,,,,,,,,0,,,38,0
60336,note_on,0,0,3,,,,,,,,,0,,,40,0
60336,note_on,0,0,3,,,,,,,,,0,,,44,0
60336,set_tempo,16,1,0,,,,,,425532,,,,,,,
60336,note_on,0,0,3,,,,,,,,,0,,,33,0
60336,note_on,96,0,1,,,,,,,,,0,,,64,0
60336,note_on,0,0,3,,,,,,,,,0,,,35,0
60353,set_tempo,17,1,0,,,,,,428571,,,,,,,
60354,set_tempo,1,1,0,,,,,,425532,,,,,,,
60355,set_tempo,1,1,0,,,,,,416667,,,,,,,
60360,note_on,0,0,3,,,,,,,,,0,,,45,80
60360,note_on,24,0,3,,,,,,,,,0,,,36,80
60360,note_on,24,0,1,,,,,,,,,0,,,60,80
60360,note_on,0,0,3,,,,,,,,,0,,,33,80
60360,note_on,0,0,3,,,,,,,,,0,,,40,80
60360,control_change,0,0,1,,,,,,,,,0,64,0,,
60360,note_on,0,0,1,,,,,,,,,0,,,57,80
60360,note_on,0,0,1,,,,,,,,,0,,,69,80
60456,note_on,0,0,3,,,,,,,,,0,,,33,0
60456,note_on,0,0,3,,,,,,,,,0,,,36,0
60456,note_on,0,0,3,,,,,,,,,0,,,40,0
60456,end_of_track,0,1,1,,,,,,,,,,,,,
60456,note_on,0,0,1,,,,,,,,,0,,,60,0
60456,note_on,0,0,1,,,,,,,,,0,,,69,0
60456,note_on,96,0,3,,,,,,,,,0,,,45,0
60456,note_on,96,0,1,,,,,,,,,0,,,57,0
60480,note_on,0,0,3,,,,,,,,,0,,,45,56
60480,note_on,24,0,3,,,,,,,,,0,,,57,56
60576,note_on,0,0,3,,,,,,,,,0,,,57,0
60576,note_on,96,0,3,,,,,,,,,0,,,45,0
60600,note_on,24,0,3,,,,,,,,,0,,,57,56
60600,note_on,0,0,3,,,,,,,,,0,,,45,56
60696,note_on,0,0,3,,,,,,,,,0,,,57,0
60696,note_on,96,0,3,,,,,,,,,0,,,45,0
60720,note_on,24,0,3,,,,,,,,,0,,,57,56
60720,note_on,0,0,3,,,,,,,,,0,,,45,56
60816,note_on,0,0,3,,,,,,,,,0,,,57,0
60816,note_on,96,0,3,,,,,,,,,0,,,45,0
60840,note_on,0,0,3,,,,,,,,,0,,,57,56
60840,note_on,0,0,3,,,,,,,,,0,,,45,56
60840,note_on,0,0,3,,,,,,,,,0,,,38,56
60840,note_on,0,0,4,,,,,,,,,0,,,46,80
60840,note_on,24,0,3,,,,,,,,,0,,,53,56
60840,note_on,6984,0,4,,,,,,,,,0,,,58,80
60936,note_on,96,0,3,,,,,,,,,0,,,45,0
60936,note_on,0,0,3,,,,,,,,,0,,,38,0
60936,note_on,0,0,3,,,,,,,,,0,,,53,0
60936,note_on,0,0,3,,,,,,,,,0,,,57,0
60960,note_on,0,0,3,,,,,,,,,0,,,53,56
60960,note_on,24,0,3,,,,,,,,,0,,,45,56
60960,note_on,0,0,3,,,,,,,,,0,,,38,56
60960,note_on,0,0,3,,,,,,,,,0,,,57,56
61056,note_on,0,0,3,,,,,,,,,0,,,53,0
61056,note_on,0,0,3,,,,,,,,,0,,,45,0
61056,note_on,0,0,3,,,,,,,,,0,,,38,0
61056,note_on,96,0,3,,,,,,,,,0,,,57,0
61080,note_on,24,0,3,,,,,,,,,0,,,38,56
61080,note_on,0,0,3,,,,,,,,,0,,,45,56
61080,note_on,0,0,3,,,,,,,,,0,,,53,56
61080,note_on,0,0,3,,,,,,,,,0,,,57,56
61176,note_on,0,0,3,,,,,,,,,0,,,53,0
61176,note_on,0,0,3,,,,,,,,,0,,,38,0
61176,note_on,0,0,3,,,,,,,,,0,,,45,0
61176,note_on,96,0,3,,,,,,,,,0,,,57,0
61200,note_on,24,0,3,,,,,,,,,0,,,45,56
61200,note_on,0,0,3,,,,,,,,,0,,,53,56
61200,note_on,0,0,3,,,,,,,,,0,,,38,56
61200,note_on,0,0,3,,,,,,,,,0,,,57,56
61272,note_on,0,0,4,,,,,,,,,0,,,58,0
61272,note_on,432,0,4,,,,,,,,,0,,,46,0
61296,note_on,0,0,3,,,,,,,,,0,,,45,0
61296,note_on,96,0,3,,,,,,,,,0,,,38,0
61296,note_on,0,0,3,,,,,,,,,0,,,53,0
61296,note_on,0,0,3,,,,,,,,,0,,,57,0
61320,note_on,0,0,4,,,,,,,,,0,,,47,80
61320,note_on,0,0,3,,,,,,,,,0,,,45,56
61320,note_on,0,0,3,,,,,,,,,0,,,54,56
61320,note_on,24,0,3,,,,,,,,,0,,,57,56
61320,note_on,0,0,3,,,,,,,,,0,,,39,56
61320,note_on,48,0,4,,,,,,,,,0,,,59,80
61416,note_on,0,0,3,,,,,,,,,0,,,45,0
61416,note_on,0,0,3,,,,,,,,,0,,,39,0
61416,note_on,96,0,3,,,,,,,,,0,,,54,0
61416,note_on,0,0,3,,,,,,,,,0,,,57,0
61440,note_on,0,0,3,,,,,,,,,0,,,39,56
61440,note_on,24,0,3,,,,,,,,,0,,,45,56
61440,note_on,0,0,3,,,,,,,,,0,,,57,56
61440,note_on,0,0,3,,,,,,,,,0,,,53,56
61464,note_on,144,0,4,,,,,,,,,0,,,47,0
61464,note_on,0,0,4,,,,,,,,,0,,,59,0
61500,note_on,0,0,4,,,,,,,,,0,,,48,68
61500,note_on,36,0,4,,,,,,,,,0,,,33,68
61520,note_on,20,0,4,,,,,,,,,0,,,52,68
61520,note_on,0,0,4,,,,,,,,,0,,,36,68
61536,note_on,0,0,3,,,,,,,,,0,,,53,0
61536,note_on,0,0,3,,,,,,,,,0,,,57,0
61536,note_on,0,0,3,,,,,,,,,0,,,45,0
61536,note_on,96,0,3,,,,,,,,,0,,,39,0
61540,note_on,0,0,4,,,,,,,,,0,,,40,68
61540,note_on,20,0,4,,,,,,,,,0,,,57,68
61560,note_on,20,0,4,,,,,,,,,0,,,60,97
61560,note_on,0,0,4,,,,,,,,,0,,,45,97
61656,note_on,0,0,4,,,,,,,,,0,,,52,0
61656,note_on,0,0,4,,,,,,,,,0,,,33,0
61656,note_on,0,0,4,,,,,,,,,0,,,36,0
61656,note_on,0,0,4,,,,,,,,,0,,,40,0
61656,note_on,0,0,4,,,,,,,,,0,,,48,0
61656,note_on,0,0,4,,,,,,,,,0,,,57,0
61656,note_on,0,0,4,,,,,,,,,0,,,60,0
61656,note_on,96,0,4,,,,,,,,,0,,,45,0
61680,note_on,144,0,3,,,,,,,,,0,,,57,56
61776,note_on,96,0,3,,,,,,,,,0,,,57,0
61800,note_on,24,0,3,,,,,,,,,0,,,45,55
61800,note_on,0,0,3,,,,,,,,,0,,,57,55
61896,note_on,0,0,3,,,,,,,,,0,,,45,0
61896,note_on,96,0,3,,,,,,,,,0,,,57,0
61920,note_on,0,0,3,,,,,,,,,0,,,57,55
61920,note_on,24,0,3,,,,,,,,,0,,,45,55
62016,note_on,0,0,3,,,,,,,,,0,,,45,0
62016,note_on,96,0,3,,,,,,,,,0,,,57,0
62040,note_on,24,0,3,,,,,,,,,0,,,45,55
62040,note_on,0,0,3,,,,,,,,,0,,,38,55
62040,note_on,0,0,3,,,,,,,,,0,,,53,55
62040,note_on,384,0,4,,,,,,,,,0,,,58,55
62040,note_on,0,0,3,,,,,,,,,0,,,57,55
62040,note_on,0,0,4,,,,,,,,,0,,,46,55
62136,note_on,0,0,3,,,,,,,,,0,,,38,0
62136,note_on,96,0,3,,,,,,,,,0,,,53,0
62136,note_on,0,0,3,,,,,,,,,0,,,45,0
62136,note_on,0,0,3,,,,,,,,,0,,,57,0
62160,note_on,0,0,3,,,,,,,,,0,,,53,55
62160,note_on,0,0,3,,,,,,,,,0,,,45,55
62160,note_on,0,0,3,,,,,,,,,0,,,38,55
62160,note_on,24,0,3,,,,,,,,,0,,,57,55
62232,note_on,192,0,4,,,,,,,,,0,,,46,0
62232,note_on,0,0,4,,,,,,,,,0,,,58,0
62256,note_on,96,0,3,,,,,,,,,0,,,53,0
62256,note_on,0,0,3,,,,,,,,,0,,,38,0
62256,note_on,0,0,3,,,,,,,,,0,,,45,0
62256,note_on,0,0,3,,,,,,,,,0,,,57,0
62280,note_on,24,0,3,,,,,,,,,0,,,45,55
62280,note_on,48,0,4,,,,,,,,,0,,,59,55
62280,note_on,0,0,4,,,,,,,,,0,,,47,55
62280,note_on,0,0,3,,,,,,,,,0,,,57,55
62280,note_on,0,0,3,,,,,,,,,0,,,54,55
62280,note_on,0,0,3,,,,,,,,,0,,,39,55
62376,note_on,96,0,3,,,,,,,,,0,,,39,0
62376,note_on,0,0,3,,,,,,,,,0,,,45,0
62376,note_on,0,0,3,,,,,,,,,0,,,54,0
62376,note_on,0,0,3,,,,,,,,,0,,,57,0
62400,note_on,0,0,3,,,,,,,,,0,,,45,55
62400,note_on,0,0,3,,,,,,,,,0,,,54,55
62400,note_on,0,0,3,,,,,,,,,0,,,57,55
62400,note_on,24,0,3,,,,,,,,,0,,,39,55
62472,note_on,0,0,4,,,,,,,,,0,,,59,0
62472,note_on,192,0,4,,,,,,,,,0,,,47,0
62496,note_on,0,0,3,,,,,,,,,0,,,54,0
62496,note_on,0,0,3,,,,,,,,,0,,,45,0
62496,note_on,0,0,3,,,,,,,,,0,,,39,0
62496,note_on,96,0,3,,,,,,,,,0,,,57,0
62520,note_on,0,0,4,,,,,,,,,0,,,57,76
62520,note_on,48,0,4,,,,,,,,,0,,,45,76
62520,note_on,0,0,4,,,,,,,,,0,,,52,76
62520,note_on,0,0,4,,,,,,,,,0,,,48,76
62520,note_on,0,0,4,,,,,,,,,0,,,40,76
62520,note_on,0,0,4,,,,,,,,,0,,,36,76
62520,note_on,0,0,4,,,,,,,,,0,,,60,76
62520,note_on,0,0,4,,,,,,,,,0,,,33,76
62616,note_on,0,0,4,,,,,,,,,0,,,52,0
62616,note_on,0,0,4,,,,,,,,,0,,,40,0
62616,note_on,96,0,4,,,,,,,,,0,,,36,0
62616,note_on,0,0,4,,,,,,,,,0,,,60,0
62616,note_on,0,0,4,,,,,,,,,0,,,57,0
62616,note_on,0,0,4,,,,,,,,,0,,,33,0
62616,note_on,0,0,4,,,,,,,,,0,,,48,0
62616,note_on,0,0,4,,,,,,,,,0,,,45,0
62640,note_on,24,0,4,,,,,,,,,0,,,57,55
62640,note_on,0,0,4,,,,,,,,,0,,,45,55
62736,note_on,96,0,4,,,,,,,,,0,,,45,0
62736,note_on,0,0,4,,,,,,,,,0,,,57,0
62760,note_on,0,0,4,,,,,,,,,0,,,53,55
62760,note_on,0,0,4,,,,,,,,,0,,,38,55
62760,note_on,0,0,4,,,,,,,,,0,,,45,55
62760,note_on,0,0,4,,,,,,,,,0,,,58,55
62760,note_on,24,0,4,,,,,,,,,0,,,57,55
62856,note_on,0,0,4,,,,,,,,,0,,,38,0
62856,note_on,0,0,4,,,,,,,,,0,,,45,0
62856,note_on,0,0,4,,,,,,,,,0,,,57,0
62856,note_on,0,0,4,,,,,,,,,0,,,53,0
62856,note_on,96,0,4,,,,,,,,,0,,,58,0
62880,note_on,24,0,4,,,,,,,,,0,,,57,55
62880,note_on,0,0,4,,,,,,,,,0,,,54,55
62880,note_on,0,0,4,,,,,,,,,0,,,39,55
62880,note_on,0,0,4,,,,,,,,,0,,,59,55
62880,note_on,0,0,4,,,,,,,,,0,,,45,55
62976,note_on,96,0,4,,,,,,,,,0,,,39,0
62976,note_on,0,0,4,,,,,,,,,0,,,45,0
62976,note_on,0,0,4,,,,,,,,,0,,,54,0
62976,note_on,0,0,4,,,,,,,,,0,,,57,0
62976,note_on,0,0,4,,,,,,,,,0,,,59,0
63000,note_on,0,0,4,,,,,,,,,0,,,45,55
63000,note_on,0,0,4,,,,,,,,,0,,,52,55
63000,note_on,0,0,4,,,,,,,,,0,,,57,55
63000,note_on,0,0,4,,,,,,,,,0,,,33,55
63000,note_on,24,0,4,,,,,,,,,0,,,60,55
63096,note_on,0,0,4,,,,,,,,,0,,,60,0
63096,note_on,0,0,4,,,,,,,,,0,,,57,0
63096,note_on,0,0,4,,,,,,,,,0,,,52,0
63096,note_on,0,0,4,,,,,,,,,0,,,33,0
63096,note_on,96,0,4,,,,,,,,,0,,,45,0
63120,note_on,0,0,4,,,,,,,,,0,,,58,55
63120,note_on,0,0,4,,,,,,,,,0,,,53,55
63120,note_on,0,0,4,,,,,,,,,0,,,38,55
63120,note_on,0,0,4,,,,,,,,,0,,,57,55
63120,note_on,0,0,4,,,,,,,,,0,,,45,55
63120,note_on,24,0,4,,,,,,,,,0,,,62,55
63216,note_on,96,0,4,,,,,,,,,0,,,45,0
63216,note_on,0,0,4,,,,,,,,,0,,,53,0
63216,note_on,0,0,4,,,,,,,,,0,,,38,0
63216,note_on,0,0,4,,,,,,,,,0,,,57,0
63216,note_on,0,0,4,,,,,,,,,0,,,58,0
63216,note_on,0,0,4,,,,,,,,,0,,,62,0
63240,note_on,0,0,4,,,,,,,,,0,,,39,55
63240,note_on,0,0,3,,,,,,,,,0,,,54,55
63240,note_on,0,0,3,,,,,,,,,0,,,57,55
63240,note_on,24,0,4,,,,,,,,,0,,,45,55
63240,note_on,0,0,3,,,,,,,,,0,,,59,55
63240,note_on,744,0,3,,,,,,,,,0,,,63,55
63240,set_tempo,2885,1,0,,,,,,414938,,,,,,,
63278,set_tempo,38,1,0,,,,,,413223,,,,,,,
63317,set_tempo,39,1,0,,,,,,411523,,,,,,,
63336,end_of_track,0,1,3,,,,,,,,,,,,,
63336,note_on,96,0,3,,,,,,,,,0,,,59,0
63336,note_on,0,0,4,,,,,,,,,0,,,45,0
63336,note_on,0,0,3,,,,,,,,,0,,,54,0
63336,note_on,0,0,3,,,,,,,,,0,,,57,0
63336,note_on,0,0,3,,,,,,,,,0,,,63,0
63336,note_on,96,0,4,,,,,,,,,0,,,39,0
63355,set_tempo,38,1,0,,,,,,409836,,,,,,,
63360,note_on,0,0,2,,,,,,,,,0,,,64,58
63360,note_on,24,0,4,,,,,,,,,0,,,45,58
63360,note_on,0,0,4,,,,,,,,,0,,,33,58
63360,note_on,8784,0,2,,,,,,,,,0,,,57,58
63360,note_on,0,0,2,,,,,,,,,0,,,60,58
63391,set_tempo,36,1,0,,,,,,408163,,,,,,,
63430,set_tempo,39,1,0,,,,,,406504,,,,,,,
63456,note_on,96,0,2,,,,,,,,,0,,,60,0
63456,note_on,0,0,2,,,,,,,,,0,,,57,0
63456,note_on,0,0,2,,,,,,,,,0,,,64,0
63456,note_on,0,0,4,,,,,,,,,0,,,45,0
63456,note_on,96,0,4,,,,,,,,,0,,,33,0
63468,set_tempo,38,1,0,,,,,,404858,,,,,,,
63480,note_on,0,0,2,,,,,,,,,0,,,57,61
63480,note_on,24,0,4,,,,,,,,,0,,,38,61
63480,note_on,24,0,2,,,,,,,,,0,,,58,61
63480,note_on,0,0,4,,,,,,,,,0,,,50,61
63480,note_on,0,0,2,,,,,,,,,0,,,65,61
63506,set_tempo,38,1,0,,,,,,403226,,,,,,,
63542,set_tempo,36,1,0,,,,,,401606,,,,,,,
63576,note_on,0,0,2,,,,,,,,,0,,,65,0
63576,note_on,96,0,2,,,,,,,,,0,,,57,0
63576,note_on,96,0,4,,,,,,,,,0,,,50,0
63576,note_on,0,0,2,,,,,,,,,0,,,58,0
63576,note_on,0,0,4,,,,,,,,,0,,,38,0
63581,set_tempo,39,1,0,,,,,,400000,,,,,,,
63600,note_on,0,0,2,,,,,,,,,0,,,57,63
63600,note_on,0,0,2,,,,,,,,,0,,,59,63
63600,note_on,24,0,2,,,,,,,,,0,,,66,63
63600,note_on,24,0,4,,,,,,,,,0,,,51,63
63600,note_on,0,0,4,,,,,,,,,0,,,39,63
63619,set_tempo,38,1,0,,,,,,398406,,,,,,,
63658,set_tempo,39,1,0,,,,,,396825,,,,,,,
63694,set_tempo,36,1,0,,,,,,395257,,,,,,,
63696,note_on,0,0,2,,,,,,,,,0,,,57,0
63696,note_on,0,0,2,,,,,,,,,0,,,66,0
63696,note_on,0,0,4,,,,,,,,,0,,,51,0
63696,note_on,96,0,2,,,,,,,,,0,,,59,0
63696,note_on,96,0,4,,,,,,,,,0,,,39,0
63720,note_on,24,0,4,,,,,,,,,0,,,45,66
63720,note_on,0,0,4,,,,,,,,,0,,,33,66
63720,note_on,0,0,2,,,,,,,,,0,,,69,66
63720,note_on,0,0,2,,,,,,,,,0,,,60,66
63720,note_on,24,0,2,,,,,,,,,0,,,64,66
63732,set_tempo,38,1,0,,,,,,393701,,,,,,,
63770,set_tempo,38,1,0,,,,,,392157,,,,,,,
63809,set_tempo,39,1,0,,,,,,390625,,,,,,,
63816,note_on,0,0,4,,,,,,,,,0,,,45,0
63816,note_on,96,0,4,,,,,,,,,0,,,33,0
63816,note_on,0,0,2,,,,,,,,,0,,,64,0
63816,note_on,0,0,2,,,,,,,,,0,,,69,0
63816,note_on,96,0,2,,,,,,,,,0,,,60,0
63840,note_on,0,0,2,,,,,,,,,0,,,69,69
63840,note_on,0,0,2,,,,,,,,,0,,,70,69
63840,note_on,24,0,4,,,,,,,,,0,,,50,69
63840,note_on,24,0,2,,,,,,,,,0,,,65,69
63840,note_on,0,0,4,,,,,,,,,0,,,38,69
63845,set_tempo,36,1,0,,,,,,389105,,,,,,,
63883,set_tempo,38,1,0,,,,,,387597,,,,,,,
63922,set_tempo,39,1,0,,,,,,386100,,,,,,,
63936,note_on,96,0,4,,,,,,,,,0,,,38,0
63936,note_on,0,0,2,,,,,,,,,0,,,65,0
63936,note_on,0,0,2,,,,,,,,,0,,,69,0
63936,note_on,0,0,4,,,,,,,,,0,,,50,0
63936,note_on,96,0,2,,,,,,,,,0,,,70,0
63958,set_tempo,36,1,0,,,,,,384615,,,,,,,
63960,note_on,0,0,4,,,,,,,,,0,,,51,72
63960,note_on,0,0,2,,,,,,,,,0,,,69,72
63960,note_on,0,0,2,,,,,,,,,0,,,71,72
63960,note_on,24,0,4,,,,,,,,,0,,,39,72
63960,note_on,24,0,2,,,,,,,,,0,,,66,72
63996,set_tempo,38,1,0,,,,,,383142,,,,,,,
64034,set_tempo,38,1,0,,,,,,381679,,,,,,,
64056,note_on,0,0,4,,,,,,,,,0,,,39,0
64056,note_on,96,0,2,,,,,,,,,0,,,71,0
64056,note_on,0,0,2,,,,,,,,,0,,,66,0
64056,note_on,0,0,2,,,,,,,,,0,,,69,0
64056,note_on,96,0,4,,,,,,,,,0,,,51,0
64073,set_tempo,39,1,0,,,,,,380228,,,,,,,
64080,note_on,0,0,4,,,,,,,,,0,,,45,74
64080,note_on,0,0,2,,,,,,,,,0,,,69,74
64080,note_on,0,0,2,,,,,,,,,0,,,64,74
64080,note_on,24,0,2,,,,,,,,,0,,,72,74
64080,note_on,24,0,4,,,,,,,,,0,,,33,74
64109,set_tempo,36,1,0,,,,,,378788,,,,,,,
64147,set_tempo,38,1,0,,,,,,377358,,,,,,,
64176,note_on,0,0,4,,,,,,,,,0,,,33,0
64176,note_on,96,0,2,,,,,,,,,0,,,69,0
64176,note_on,96,0,4,,,,,,,,,0,,,45,0
64176,note_on,0,0,2,,,,,,,,,0,,,64,0
64176,note_on,0,0,2,,,,,,,,,0,,,72,0
64186,set_tempo,39,1,0,,,,,,375940,,,,,,,
64200,note_on,24,0,4,,,,,,,,,0,,,38,77
64200,note_on,0,0,4,,,,,,,,,0,,,50,77
64200,note_on,0,0,2,,,,,,,,,0,,,70,77
64200,note_on,0,0,2,,,,,,,,,0,,,77,77
64200,note_on,24,0,2,,,,,,,,,0,,,69,77
64224,set_tempo,38,1,0,,,,,,374532,,,,,,,
64260,set_tempo,36,1,0,,,,,,373134,,,,,,,
64296,note_on,0,0,2,,,,,,,,,0,,,70,0
64296,note_on,96,0,4,,,,,,,,,0,,,50,0
64296,note_on,96,0,2,,,,,,,,,0,,,77,0
64296,note_on,0,0,4,,,,,,,,,0,,,38,0
64296,note_on,0,0,2,,,,,,,,,0,,,69,0
64298,set_tempo,38,1,0,,,,,,371747,,,,,,,
64320,note_on,0,0,4,,,,,,,,,0,,,39,80
64320,note_on,0,0,2,,,,,,,,,0,,,71,80
64320,note_on,0,0,2,,,,,,,,,0,,,69,80
64320,note_on,24,0,2,,,,,,,,,0,,,78,80
64320,note_on,24,0,4,,,,,,,,,0,,,51,80
64337,set_tempo,39,1,0,,,,,,370370,,,,,,,
64375,set_tempo,38,1,0,,,,,,369004,,,,,,,
64411,set_tempo,36,1,0,,,,,,367647,,,,,,,
64416,note_on,96,0,2,,,,,,,,,0,,,69,0
64416,note_on,0,0,4,,,,,,,,,0,,,51,0
64416,note_on,0,0,2,,,,,,,,,0,,,78,0
64416,note_on,0,0,2,,,,,,,,,0,,,71,0
64416,note_on,96,0,4,,,,,,,,,0,,,39,0
64440,note_on,0,0,2,,,,,,,,,0,,,76,83
64440,note_on,0,0,2,,,,,,,,,0,,,72,83
64440,note_on,24,0,2,,,,,,,,,0,,,81,83
64440,note_on,24,0,4,,,,,,,,,0,,,33,83
64440,note_on,0,0,2,,,,,,,,,0,,,69,83
64440,note_on,0,0,4,,,,,,,,,0,,,45,83
64450,set_tempo,39,1,0,,,,,,366300,,,,,,,
64488,set_tempo,38,1,0,,,,,,364964,,,,,,,
64526,set_tempo,38,1,0,,,,,,363636,,,,,,,
64536,note_on,0,0,2,,,,,,,,,0,,,69,0
64536,note_on,0,0,2,,,,,,,,,0,,,81,0
64536,note_on,0,0,2,,,,,,,,,0,,,72,0
64536,note_on,96,0,2,,,,,,,,,0,,,76,0
64536,note_on,0,0,4,,,,,,,,,0,,,33,0
64536,note_on,96,0,4,,,,,,,,,0,,,45,0
64560,note_on,0,0,2,,,,,,,,,0,,,81,86
64560,note_on,24,0,4,,,,,,,,,0,,,38,86
64560,note_on,0,0,2,,,,,,,,,0,,,77,86
64560,note_on,24,0,2,,,,,,,,,0,,,82,86
64560,note_on,0,0,4,,,,,,,,,0,,,50,86
64562,set_tempo,36,1,0,,,,,,362319,,,,,,,
64601,set_tempo,39,1,0,,,,,,361011,,,,,,,
64639,set_tempo,38,1,0,,,,,,359712,,,,,,,
64656,note_on,96,0,2,,,,,,,,,0,,,77,0
64656,note_on,0,0,2,,,,,,,,,0,,,82,0
64656,note_on,0,0,4,,,,,,,,,0,,,38,0
64656,note_on,0,0,2,,,,,,,,,0,,,81,0
64656,note_on,96,0,4,,,,,,,,,0,,,50,0
64675,set_tempo,36,1,0,,,,,,358423,,,,,,,
64680,note_on,0,0,2,,,,,,,,,0,,,81,88
64680,note_on,0,0,2,,,,,,,,,0,,,78,88
64680,note_on,24,0,4,,,,,,,,,0,,,39,88
64680,note_on,0,0,4,,,,,,,,,0,,,51,88
64680,note_on,24,0,2,,,,,,,,,0,,,83,88
64776,note_on,0,0,2,,,,,,,,,0,,,81,0
64776,note_on,0,0,2,,,,,,,,,0,,,83,0
64776,note_on,0,0,4,,,,,,,,,0,,,39,0
64776,note_on,96,0,4,,,,,,,,,0,,,51,0
64776,note_on,96,0,2,,,,,,,,,0,,,78,0
64800,note_on,0,0,2,,,,,,,,,0,,,81,91
64800,note_on,24,0,4,,,,,,,,,0,,,33,91
64800,note_on,0,0,4,,,,,,,,,0,,,45,91
64800,note_on,0,0,2,,,,,,,,,0,,,76,91
64800,note_on,24,0,2,,,,,,,,,0,,,84,91
64896,note_on,0,0,2,,,,,,,,,0,,,84,0
64896,note_on,0,0,2,,,,,,,,,0,,,81,0
64896,note_on,96,0,4,,,,,,,,,0,,,45,0
64896,note_on,96,0,2,,,,,,,,,0,,,76,0
64896,note_on,0,0,4,,,,,,,,,0,,,33,0
64920,note_on,24,0,2,,,,,,,,,0,,,82,94
64920,note_on,24,0,4,,,,,,,,,0,,,50,94
64920,note_on,0,0,4,,,,,,,,,0,,,38,94
64920,note_on,0,0,2,,,,,,,,,0,,,81,94
64920,note_on,0,0,2,,,,,,,,,0,,,89,94
65016,note_on,0,0,4,,,,,,,,,0,,,50,0
65016,note_on,96,0,2,,,,,,,,,0,,,89,0
65016,note_on,0,0,2,,,,,,,,,0,,,81,0
65016,note_on,0,0,2,,,,,,,,,0,,,82,0
65016,note_on,96,0,4,,,,,,,,,0,,,38,0
65040,note_on,24,0,4,,,,,,,,,0,,,39,97
65040,note_on,24,0,2,,,,,,,,,0,,,83,97
65040,note_on,0,0,2,,,,,,,,,0,,,81,97
65040,note_on,0,0,2,,,,,,,,,0,,,90,97
65040,note_on,0,0,4,,,,,,,,,0,,,51,97
65136,note_on,0,0,4,,,,,,,,,0,,,39,0
65136,note_on,0,0,2,,,,,,,,,0,,,83,0
65136,note_on,0,0,2,,,,,,,,,0,,,81,0
65136,note_on,96,0,2,,,,,,,,,0,,,90,0
65136,note_on,96,0,4,,,,,,,,,0,,,51,0
65160,note_on,0,0,2,,,,,,,,,0,,,88,80
65160,note_on,24,0,2,,,,,,,,,0,,,81,80
65160,note_on,0,0,2,,,,,,,,,0,,,84,80
65160,note_on,24,0,4,,,,,,,,,0,,,33,80
65160,note_on,0,0,2,,,,,,,,,0,,,93,80
65160,note_on,0,0,4,,,,,,,,,0,,,45,80
65352,note_on,192,0,2,,,,,,,,,0,,,93,0
65352,note_on,192,0,4,,,,,,,,,0,,,45,0
65352,note_on,0,0,4,,,,,,,,,0,,,33,0
65352,note_on,0,0,2,,,,,,,,,0,,,81,0
65352,note_on,0,0,2,,,,,,,,,0,,,84,0
65352,note_on,0,0,2,,,,,,,,,0,,,88,0
65400,note_on,0,0,4,,,,,,,,,0,,,45,100
65400,note_on,0,0,4,,,,,,,,,0,,,50,100
65400,note_on,48,0,2,,,,,,,,,0,,,94,100
65400,note_on,0,0,2,,,,,,,,,0,,,89,100
65400,note_on,0,0,2,,,,,,,,,0,,,82,100
65400,note_on,48,0,4,,,,,,,,,0,,,38,100
65400,note_on,0,0,2,,,,,,,,,0,,,93,100
65592,note_on,0,0,2,,,,,,,,,0,,,89,0
65592,note_on,0,0,2,,,,,,,,,0,,,93,0
65592,note_on,192,0,4,,,,,,,,,0,,,50,0
65592,note_on,0,0,4,,,,,,,,,0,,,38,0
65592,note_on,0,0,2,,,,,,,,,0,,,94,0
65592,note_on,0,0,4,,,,,,,,,0,,,45,0
65592,note_on,192,0,2,,,,,,,,,0,,,82,0
65640,note_on,48,0,4,,,,,,,,,0,,,45,106
65640,note_on,0,0,4,,,,,,,,,0,,,51,106
65640,note_on,0,0,4,,,,,,,,,0,,,39,106
65640,note_on,0,0,2,,,,,,,,,0,,,95,106
65640,note_on,48,0,2,,,,,,,,,0,,,83,106
65640,note_on,0,0,2,,,,,,,,,0,,,93,106
65640,note_on,0,0,2,,,,,,,,,0,,,90,106
65832,note_on,0,0,4,,,,,,,,,0,,,51,0
65832,note_on,0,0,2,,,,,,,,,0,,,83,0
65832,note_on,192,0,2,,,,,,,,,0,,,90,0
65832,note_on,0,0,4,,,,,,,,,0,,,45,0
65832,note_on,192,0,4,,,,,,,,,0,,,39,0
65832,note_on,0,0,2,,,,,,,,,0,,,93,0
65832,note_on,0,0,2,,,,,,,,,0,,,95,0
65880,note_on,48,0,4,,,,,,,,,0,,,33,113
65880,note_on,0,0,2,,,,,,,,,0,,,84,113
65880,note_on,48,0,2,,,,,,,,,0,,,96,113
65880,note_on,0,0,2,,,,,,,,,0,,,88,113
65880,note_on,0,0,2,,,,,,,,,0,,,93,113
65880,note_on,0,0,4,,,,,,,,,0,,,45,113
66072,note_on,0,0,2,,,,,,,,,0,,,88,0
66072,note_on,0,0,2,,,,,,,,,0,,,93,0
66072,note_on,0,0,4,,,,,,,,,0,,,33,0
66072,note_on,192,0,4,,,,,,,,,0,,,45,0
66072,note_on,192,0,2,,,,,,,,,0,,,84,0
66072,note_on,0,0,2,,,,,,,,,0,,,96,0
66119,set_tempo,1444,1,0,,,,,,450450,,,,,,,
66120,note_on,0,0,4,,,,,,,,,0,,,46,119
66120,note_on,0,0,4,,,,,,,,,0,,,50,119
66120,note_on,0,0,4,,,,,,,,,0,,,38,119
66120,note_on,48,0,4,,,,,,,,,0,,,41,119
66120,note_on,0,0,4,,,,,,,,,0,,,45,119
66120,note_on,48,0,2,,,,,,,,,0,,,93,119
66120,note_on,0,0,2,,,,,,,,,0,,,89,119
66120,note_on,0,0,2,,,,,,,,,0,,,94,119
66120,note_on,0,0,2,,,,,,,,,0,,,101,119
66312,note_on,0,0,2,,,,,,,,,0,,,93,0
66312,note_on,0,0,4,,,,,,,,,0,,,41,0
66312,note_on,0,0,4,,,,,,,,,0,,,45,0
66312,note_on,192,0,4,,,,,,,,,0,,,38,0
66312,note_on,0,0,4,,,,,,,,,0,,,46,0
66312,note_on,0,0,4,,,,,,,,,0,,,50,0
66312,note_on,192,0,2,,,,,,,,,0,,,94,0
66312,note_on,0,0,2,,,,,,,,,0,,,101,0
66312,note_on,0,0,2,,,,,,,,,0,,,89,0
66839,set_tempo,720,1,0,,,,,,452489,,,,,,,
66840,note_on,0,0,2,,,,,,,,,0,,,86,127
66840,note_on,0,0,2,,,,,,,,,0,,,88,127
66840,note_on,0,0,2,,,,,,,,,0,,,92,127
66840,note_on,0,0,2,,,,,,,,,0,,,95,127
66840,note_on,528,0,4,,,,,,,,,0,,,40,127
66840,note_on,528,0,2,,,,,,,,,0,,,100,127
66840,note_on,0,0,4,,,,,,,,,0,,,52,127
66840,end_of_track,0,1,0,,,,,,,,,,,,,
66840,set_tempo,1,1,0,,,,,,606061,,,,,,,
66840,note_on,0,0,4,,,,,,,,,0,,,47,127
66840,note_on,0,0,4,,,,,,,,,0,,,44,127
67032,note_on,0,0,4,,,,,,,,,0,,,40,0
67032,note_on,192,0,2,,,,,,,,,0,,,95,0
67032,note_on,192,0,4,,,,,,,,,0,,,44,0
67032,note_on,0,0,4,,,,,,,,,0,,,47,0
67032,note_on,0,0,4,,,,,,,,,0,,,52,0
67032,note_on,0,0,2,,,,,,,,,0,,,86,0
67032,note_on,0,0,2,,,,,,,,,0,,,100,0
67032,note_on,0,0,2,,,,,,,,,0,,,92,0
67032,note_on,0,0,2,,,,,,,,,0,,,88,0
67182,control_change,150,0,4,,,,,,,,,0,64,127,,
67200,note_on,18,0,4,,,,,,,,,0,,,52,80
67200,note_on,168,0,2,,,,,,,,,0,,,76,80
67200,note_on,0,0,2,,,,,,,,,0,,,64,80
67296,note_on,96,0,2,,,,,,,,,0,,,64,0
67296,note_on,0,0,2,,,,,,,,,0,,,76,0
67296,note_on,96,0,4,,,,,,,,,0,,,52,0
67320,note_on,0,0,2,,,,,,,,,0,,,76,80
67320,note_on,24,0,2,,,,,,,,,0,,,64,80
67320,note_on,24,0,4,,,,,,,,,0,,,52,80
67416,note_on,96,0,2,,,,,,,,,0,,,76,0
67416,note_on,96,0,4,,,,,,,,,0,,,52,0
67416,note_on,0,0,2,,,,,,,,,0,,,64,0
67440,note_on,24,0,2,,,,,,,,,0,,,76,80
67440,note_on,0,0,2,,,,,,,,,0,,,64,80
67440,note_on,24,0,4,,,,,,,,,0,,,52,80
67536,note_on,96,0,2,,,,,,,,,0,,,64,0
67536,note_on,96,0,4,,,,,,,,,0,,,52,0
67536,note_on,0,0,2,,,,,,,,,0,,,76,0
67560,note_on,24,0,2,,,,,,,,,0,,,64,80
67560,note_on,0,0,4,,,,,,,,,0,,,52,80
67560,note_on,0,0,2,,,,,,,,,0,,,76,80
67560,note_on,0,0,2,,,,,,,,,0,,,72,80
67560,note_on,24,0,4,,,,,,,,,0,,,45,80
68537,control_change,977,0,4,,,,,,,,,0,64,0,,
68856,note_on,0,0,2,,,,,,,,,0,,,64,0
68856,note_on,0,0,2,,,,,,,,,0,,,72,0
68856,note_on,0,0,4,,,,,,,,,0,,,45,0
68856,note_on,319,0,4,,,,,,,,,0,,,52,0
68856,end_of_track,0,1,4,,,,,,,,,,,,,
68856,end_of_track,0,1,2,,,,,,,,,,,,,
68856,note_on,1296,0,2,,,,,,,,,0,,,76,0
