tick,type,time,meta,track,numerator,denominator,clocks_per_click,notated_32nd_notes_per_beat,key,tempo,control,value,channel,program,port,note,velocity
0,control_change,0,0,0,,,,,,,7,100,0,,,,
0,time_signature,0,1,0,4,4,24,8,,,,,,,,,
0,set_tempo,0,1,0,,,,,,600000,,,,,,,
0,program_change,0,0,0,,,,,,,,,0,0,,,
0,track_name,0,1,0,,,,,,,,,,,,,
0,note_on,0,0,1,,,,,,,,,0,,,51,49
0,midi_port,0,1,1,,,,,,,,,,,0,,
0,midi_port,0,1,0,,,,,,,,,,,0,,
0,key_signature,0,1,1,,,,,Ab,,,,,,,,
0,key_signature,0,1,0,,,,,Ab,,,,,,,,
0,track_name,0,1,1,,,,,,,,,,,,,
0,control_change,0,0,0,,,,,,,121,0,0,,,,
0,control_change,0,0,0,,,,,,,10,64,0,,,,
0,control_change,0,0,0,,,,,,,93,0,0,,,,
0,control_change,0,0,0,,,,,,,91,0,0,,,,
227,note_on,227,0,1,,,,,,,,,0,,,51,0
240,note_on,13,0,1,,,,,,,,,0,,,51,49
391,note_on,151,0,1,,,,,,,,,0,,,51,0
400,note_on,9,0,1,,,,,,,,,0,,,53,49
551,note_on,151,0,1,,,,,,,,,0,,,53,0
560,note_on,9,0,1,,,,,,,,,0,,,51,49
711,note_on,151,0,1,,,,,,,,,0,,,51,0
720,note_on,9,0,1,,,,,,,,,0,,,50,49
947,note_on,227,0,1,,,,,,,,,0,,,50,0
960,note_on,13,0,1,,,,,,,,,0,,,51,49
1187,note_on,227,0,1,,,,,,,,,0,,,51,0
1200,note_on,13,0,1,,,,,,,,,0,,,55,49
1439,note_on,239,0,1,,,,,,,,,0,,,55,0
1440,note_on,1,0,1,,,,,,,,,0,,,58,49
1679,note_on,239,0,1,,,,,,,,,0,,,58,0
1680,note_on,1,0,1,,,,,,,,,0,,,61,49
1907,note_on,227,0,1,,,,,,,,,0,,,61,0
1920,time_signature,1920,1,0,6,4,24,8,,,,,,,,,
1920,note_on,0,0,0,,,,,,,,,0,,,65,73
1922,control_change,15,0,1,,,,,,,64,127,0,,,,
2400,note_on,0,0,1,,,,,,,,,0,,,61,49
2400,note_on,0,0,1,,,,,,,,,0,,,55,49
2400,note_on,478,0,1,,,,,,,,,0,,,51,49
2478,note_on,78,0,1,,,,,,,,,0,,,51,0
2478,note_on,0,0,1,,,,,,,,,0,,,55,0
2478,note_on,0,0,1,,,,,,,,,0,,,61,0
2639,note_on,719,0,0,,,,,,,,,0,,,65,0
2640,note_on,1,0,0,,,,,,,,,0,,,63,49
2879,note_on,239,0,0,,,,,,,,,0,,,63,0
2880,note_on,1,0,0,,,,,,,,,0,,,57,49
2881,control_change,403,0,1,,,,,,,64,0,0,,,,
3119,note_on,239,0,0,,,,,,,,,0,,,57,0
3120,note_on,1,0,0,,,,,,,,,0,,,58,49
3347,note_on,227,0,0,,,,,,,,,0,,,58,0
3360,note_on,13,0,0,,,,,,,,,0,,,61,73
3362,control_change,2,0,0,,,,,,,64,127,0,,,,
3840,note_on,959,0,1,,,,,,,,,0,,,51,49
3840,note_on,0,0,1,,,,,,,,,0,,,56,49
4067,note_on,227,0,1,,,,,,,,,0,,,51,0
4067,note_on,0,0,1,,,,,,,,,0,,,56,0
4079,note_on,717,0,0,,,,,,,,,0,,,61,0
4080,note_on,1,0,0,,,,,,,,,0,,,60,49
4307,note_on,227,0,0,,,,,,,,,0,,,60,0
4320,note_on,13,0,0,,,,,,,,,0,,,52,49
4321,control_change,1,0,0,,,,,,,64,0,0,,,,
4547,note_on,226,0,0,,,,,,,,,0,,,52,0
4560,note_on,13,0,0,,,,,,,,,0,,,53,49
4787,note_on,227,0,0,,,,,,,,,0,,,53,0
4800,note_on,0,0,0,,,,,,,,,0,,,56,49
4800,set_tempo,13,1,0,,,,,,631579,,,,,,,
4802,control_change,735,0,1,,,,,,,64,127,0,,,,
5280,note_on,0,0,1,,,,,,,,,0,,,50,49
5280,note_on,0,0,1,,,,,,,,,0,,,53,49
5280,note_on,478,0,1,,,,,,,,,0,,,47,49
5507,note_on,0,0,1,,,,,,,,,0,,,50,0
5507,note_on,0,0,1,,,,,,,,,0,,,53,0
5507,note_on,227,0,1,,,,,,,,,0,,,47,0
5760,note_on,253,0,1,,,,,,,,,0,,,46,49
5760,note_on,0,0,1,,,,,,,,,0,,,49,49
5760,note_on,0,0,1,,,,,,,,,0,,,52,49
5987,note_on,227,0,1,,,,,,,,,0,,,46,0
5987,note_on,0,0,1,,,,,,,,,0,,,49,0
5987,note_on,0,0,1,,,,,,,,,0,,,52,0
6053,note_on,1253,0,0,,,,,,,,,0,,,56,0
6120,note_on,67,0,0,,,,,,,,,0,,,55,49
6233,note_on,113,0,0,,,,,,,,,0,,,55,0
6240,note_on,0,0,0,,,,,,,,,0,,,58,73
6240,set_tempo,7,1,0,,,,,,947368,,,,,,,
6240,note_on,253,0,1,,,,,,,,,0,,,43,49
6273,note_on,33,0,1,,,,,,,,,0,,,49,49
6307,note_on,34,0,1,,,,,,,,,0,,,52,49
6478,note_on,0,0,1,,,,,,,,,0,,,52,0
6478,note_on,171,0,1,,,,,,,,,0,,,49,0
6479,note_on,1,0,1,,,,,,,,,0,,,43,0
6479,set_tempo,239,1,0,,,,,,631579,,,,,,,
6720,set_tempo,241,1,0,,,,,,2526316,,,,,,,
6959,set_tempo,239,1,0,,,,,,631579,,,,,,,
6961,control_change,482,0,1,,,,,,,64,0,0,,,,
7631,note_on,672,0,0,,,,,,,,,0,,,58,0
7680,note_on,0,0,0,,,,,,,,,0,,,58,49
7680,set_tempo,49,1,0,,,,,,600000,,,,,,,
8160,note_on,1199,0,1,,,,,,,,,0,,,42,49
8162,control_change,2,0,1,,,,,,,64,127,0,,,,
8212,note_on,50,0,1,,,,,,,,,0,,,49,49
8266,note_on,54,0,1,,,,,,,,,0,,,52,49
8638,note_on,0,0,1,,,,,,,,,0,,,52,0
8638,note_on,372,0,1,,,,,,,,,0,,,49,0
8639,note_on,1,0,1,,,,,,,,,0,,,42,0
8640,note_on,1,0,1,,,,,,,,,0,,,42,49
8692,note_on,52,0,1,,,,,,,,,0,,,49,49
8746,note_on,54,0,1,,,,,,,,,0,,,52,49
8933,note_on,1253,0,0,,,,,,,,,0,,,58,0
9000,set_tempo,67,1,0,,,,,,631579,,,,,,,
9000,note_on,0,0,0,,,,,,,,,0,,,58,49
9113,note_on,113,0,0,,,,,,,,,0,,,58,0
9118,note_on,372,0,1,,,,,,,,,0,,,49,0
9118,note_on,0,0,1,,,,,,,,,0,,,52,0
9119,note_on,1,0,1,,,,,,,,,0,,,42,0
9120,note_on,7,0,0,,,,,,,,,0,,,58,49
9121,control_change,2,0,1,,,,,,,64,0,0,,,,
9215,note_on,95,0,0,,,,,,,,,0,,,58,0
9216,note_on,1,0,0,,,,,,,,,0,,,59,49
9311,note_on,95,0,0,,,,,,,,,0,,,59,0
9312,note_on,1,0,0,,,,,,,,,0,,,58,49
9407,note_on,95,0,0,,,,,,,,,0,,,58,0
9408,note_on,1,0,0,,,,,,,,,0,,,57,49
9503,note_on,95,0,0,,,,,,,,,0,,,57,0
9504,note_on,1,0,0,,,,,,,,,0,,,58,49
9594,note_on,90,0,0,,,,,,,,,0,,,58,0
9600,set_tempo,6,1,0,,,,,,600000,,,,,,,
9600,note_on,479,0,1,,,,,,,,,0,,,42,49
9600,note_on,0,0,1,,,,,,,,,0,,,46,49
9600,note_on,0,0,0,,,,,,,,,0,,,68,49
9600,note_on,0,0,1,,,,,,,,,0,,,52,49
10079,note_on,0,0,1,,,,,,,,,0,,,46,0
10079,note_on,0,0,1,,,,,,,,,0,,,52,0
10079,note_on,479,0,1,,,,,,,,,0,,,42,0
10080,note_on,0,0,1,,,,,,,,,0,,,52,49
10080,note_on,0,0,1,,,,,,,,,0,,,46,49
10080,note_on,1,0,1,,,,,,,,,0,,,42,49
10397,note_on,797,0,0,,,,,,,,,0,,,68,0
10440,note_on,43,0,0,,,,,,,,,0,,,66,49
10535,note_on,455,0,1,,,,,,,,,0,,,42,0
10535,note_on,0,0,1,,,,,,,,,0,,,46,0
10535,note_on,0,0,1,,,,,,,,,0,,,52,0
10553,note_on,113,0,0,,,,,,,,,0,,,66,0
10560,note_on,7,0,0,,,,,,,,,0,,,66,73
11040,note_on,0,0,1,,,,,,,,,0,,,51,49
11040,note_on,0,0,1,,,,,,,,,0,,,47,49
11040,note_on,505,0,1,,,,,,,,,0,,,42,49
11519,note_on,0,0,1,,,,,,,,,0,,,51,0
11519,note_on,0,0,1,,,,,,,,,0,,,47,0
11519,note_on,479,0,1,,,,,,,,,0,,,42,0
11520,note_on,1,0,1,,,,,,,,,0,,,42,49
11520,note_on,0,0,1,,,,,,,,,0,,,51,49
11520,note_on,0,0,1,,,,,,,,,0,,,47,49
11975,note_on,0,0,1,,,,,,,,,0,,,51,0
11975,note_on,0,0,1,,,,,,,,,0,,,47,0
11975,note_on,455,0,1,,,,,,,,,0,,,42,0
11999,note_on,1439,0,0,,,,,,,,,0,,,66,0
12000,note_on,1,0,0,,,,,,,,,0,,,63,49
12455,note_on,455,0,0,,,,,,,,,0,,,63,0
12480,note_on,505,0,1,,,,,,,,,0,,,42,49
12480,note_on,0,0,1,,,,,,,,,0,,,47,49
12480,note_on,0,0,1,,,,,,,,,0,,,51,49
12482,control_change,2,0,1,,,,,,,64,127,0,,,,
12935,note_on,453,0,1,,,,,,,,,0,,,42,0
12935,note_on,0,0,1,,,,,,,,,0,,,47,0
12935,note_on,0,0,1,,,,,,,,,0,,,51,0
12960,note_on,25,0,1,,,,,,,,,0,,,42,49
12960,note_on,0,0,1,,,,,,,,,0,,,47,49
12960,note_on,0,0,1,,,,,,,,,0,,,51,49
13200,set_tempo,745,1,0,,,,,,690000,,,,,,,
13200,note_on,0,0,0,,,,,,,,,0,,,59,49
13415,note_on,0,0,1,,,,,,,,,0,,,47,0
13415,note_on,0,0,1,,,,,,,,,0,,,51,0
13415,note_on,455,0,1,,,,,,,,,0,,,42,0
13427,note_on,227,0,0,,,,,,,,,0,,,59,0
13439,set_tempo,12,1,0,,,,,,600000,,,,,,,
13440,note_on,1,0,0,,,,,,,,,0,,,58,49
13441,control_change,26,0,1,,,,,,,64,0,0,,,,
13920,note_on,479,0,1,,,,,,,,,0,,,43,49
13920,note_on,0,0,1,,,,,,,,,0,,,52,49
13920,note_on,0,0,1,,,,,,,,,0,,,49,49
14375,note_on,0,0,1,,,,,,,,,0,,,49,0
14375,note_on,0,0,1,,,,,,,,,0,,,52,0
14375,note_on,455,0,1,,,,,,,,,0,,,43,0
14400,note_on,0,0,1,,,,,,,,,0,,,49,49
14400,note_on,0,0,1,,,,,,,,,0,,,52,49
14400,note_on,25,0,1,,,,,,,,,0,,,43,49
14693,note_on,1253,0,0,,,,,,,,,0,,,58,0
14760,set_tempo,67,1,0,,,,,,631579,,,,,,,
14760,note_on,0,0,0,,,,,,,,,0,,,58,49
14855,note_on,455,0,1,,,,,,,,,0,,,43,0
14855,note_on,0,0,1,,,,,,,,,0,,,52,0
14855,note_on,0,0,1,,,,,,,,,0,,,49,0
14873,note_on,113,0,0,,,,,,,,,0,,,58,0
14880,note_on,7,0,0,,,,,,,,,0,,,58,49
14975,note_on,95,0,0,,,,,,,,,0,,,58,0
14976,note_on,1,0,0,,,,,,,,,0,,,59,49
15071,note_on,95,0,0,,,,,,,,,0,,,59,0
15072,note_on,1,0,0,,,,,,,,,0,,,58,49
15167,note_on,95,0,0,,,,,,,,,0,,,58,0
15168,note_on,1,0,0,,,,,,,,,0,,,57,49
15263,note_on,95,0,0,,,,,,,,,0,,,57,0
15264,note_on,1,0,0,,,,,,,,,0,,,58,49
15354,note_on,90,0,0,,,,,,,,,0,,,58,0
15360,note_on,0,0,1,,,,,,,,,0,,,52,49
15360,note_on,505,0,1,,,,,,,,,0,,,43,49
15360,note_on,6,0,0,,,,,,,,,0,,,64,49
15360,note_on,0,0,1,,,,,,,,,0,,,46,49
15679,note_on,319,0,0,,,,,,,,,0,,,64,0
15680,note_on,1,0,0,,,,,,,,,0,,,63,49
15815,note_on,455,0,1,,,,,,,,,0,,,43,0
15815,note_on,0,0,1,,,,,,,,,0,,,52,0
15815,note_on,0,0,1,,,,,,,,,0,,,46,0
15840,note_on,25,0,1,,,,,,,,,0,,,43,49
15840,note_on,0,0,1,,,,,,,,,0,,,46,49
15840,note_on,0,0,1,,,,,,,,,0,,,52,49
16159,note_on,479,0,0,,,,,,,,,0,,,63,0
16160,note_on,1,0,0,,,,,,,,,0,,,61,49
16295,note_on,455,0,1,,,,,,,,,0,,,43,0
16295,note_on,0,0,1,,,,,,,,,0,,,46,0
16295,note_on,0,0,1,,,,,,,,,0,,,52,0
16311,note_on,151,0,0,,,,,,,,,0,,,61,0
16320,note_on,9,0,0,,,,,,,,,0,,,61,49
16800,note_on,0,0,1,,,,,,,,,0,,,51,49
16800,note_on,505,0,1,,,,,,,,,0,,,44,49
17255,note_on,455,0,1,,,,,,,,,0,,,44,0
17255,note_on,0,0,1,,,,,,,,,0,,,51,0
17280,note_on,0,0,1,,,,,,,,,0,,,51,49
17280,note_on,25,0,1,,,,,,,,,0,,,44,49
17573,note_on,1253,0,0,,,,,,,,,0,,,61,0
17640,note_on,67,0,0,,,,,,,,,0,,,60,49
17735,note_on,455,0,1,,,,,,,,,0,,,44,0
17735,note_on,0,0,1,,,,,,,,,0,,,51,0
17753,note_on,113,0,0,,,,,,,,,0,,,60,0
17760,note_on,0,0,0,,,,,,,,,0,,,59,49
17760,set_tempo,7,1,0,,,,,,600000,,,,,,,
18240,note_on,505,0,1,,,,,,,,,0,,,44,59
18240,note_on,0,0,1,,,,,,,,,0,,,51,59
18443,note_on,683,0,0,,,,,,,,,0,,,59,0
18480,note_on,37,0,0,,,,,,,,,0,,,59,96
18695,note_on,0,0,1,,,,,,,,,0,,,51,0
18695,note_on,455,0,1,,,,,,,,,0,,,44,0
18720,note_on,25,0,1,,,,,,,,,0,,,44,69
18720,note_on,0,0,1,,,,,,,,,0,,,51,69
18959,note_on,479,0,0,,,,,,,,,0,,,59,0
18960,note_on,1,0,0,,,,,,,,,0,,,59,74
19175,note_on,0,0,1,,,,,,,,,0,,,51,0
19175,note_on,455,0,1,,,,,,,,,0,,,44,0
19187,note_on,227,0,0,,,,,,,,,0,,,59,0
19200,note_on,25,0,1,,,,,,,,,0,,,37,80
19202,control_change,2,0,1,,,,,,,64,127,0,,,,
19263,note_on,61,0,1,,,,,,,,,0,,,52,80
19326,note_on,63,0,1,,,,,,,,,0,,,59,80
20158,note_on,832,0,1,,,,,,,,,0,,,52,0
20159,note_on,1,0,1,,,,,,,,,0,,,37,0
20160,set_tempo,973,1,0,,,,,,1200000,,,,,,,
20386,note_on,227,0,1,,,,,,,,,0,,,59,0
20399,set_tempo,239,1,0,,,,,,600000,,,,,,,
20400,note_on,14,0,1,,,,,,,,,0,,,57,80
20400,set_tempo,1,1,0,,,,,,631579,,,,,,,
20627,note_on,227,0,1,,,,,,,,,0,,,57,0
20640,set_tempo,240,1,0,,,,,,514139,,,,,,,
20640,note_on,13,0,1,,,,,,,,,0,,,56,80
20641,control_change,1,0,1,,,,,,,64,0,0,,,,
20867,note_on,226,0,1,,,,,,,,,0,,,56,0
20880,set_tempo,240,1,0,,,,,,462606,,,,,,,
20880,note_on,13,0,1,,,,,,,,,0,,,57,80
21107,note_on,227,0,1,,,,,,,,,0,,,57,0
21120,note_on,13,0,1,,,,,,,,,0,,,51,80
21120,set_tempo,240,1,0,,,,,,426439,,,,,,,
21347,note_on,227,0,1,,,,,,,,,0,,,51,0
21360,note_on,13,0,1,,,,,,,,,0,,,52,80
21360,set_tempo,240,1,0,,,,,,398406,,,,,,,
21587,note_on,227,0,1,,,,,,,,,0,,,52,0
21600,note_on,13,0,1,,,,,,,,,0,,,48,80
21600,set_tempo,240,1,0,,,,,,375940,,,,,,,
21827,note_on,227,0,1,,,,,,,,,0,,,48,0
21840,set_tempo,240,1,0,,,,,,356718,,,,,,,
21840,note_on,13,0,1,,,,,,,,,0,,,49,80
22079,note_on,239,0,1,,,,,,,,,0,,,49,0
22080,set_tempo,240,1,0,,,,,,340522,,,,,,,
22080,note_on,1,0,1,,,,,,,,,0,,,51,80
22319,note_on,239,0,1,,,,,,,,,0,,,51,0
22320,note_on,1,0,1,,,,,,,,,0,,,57,80
22320,set_tempo,240,1,0,,,,,,326264,,,,,,,
22559,note_on,239,0,1,,,,,,,,,0,,,57,0
22560,note_on,1,0,1,,,,,,,,,0,,,61,80
22560,set_tempo,240,1,0,,,,,,313643,,,,,,,
22799,note_on,239,0,1,,,,,,,,,0,,,61,0
22800,set_tempo,240,1,0,,,,,,302267,,,,,,,
22800,note_on,1,0,1,,,,,,,,,0,,,64,80
23039,note_on,239,0,1,,,,,,,,,0,,,64,0
23040,note_on,1,0,1,,,,,,,,,0,,,69,80
23040,set_tempo,240,1,0,,,,,,292113,,,,,,,
23279,note_on,239,0,1,,,,,,,,,0,,,69,0
23280,note_on,1,0,1,,,,,,,,,0,,,73,80
23280,set_tempo,240,1,0,,,,,,282885,,,,,,,
23519,note_on,239,0,1,,,,,,,,,0,,,73,0
23520,note_on,1,0,1,,,,,,,,,0,,,76,80
23520,set_tempo,240,1,0,,,,,,274474,,,,,,,
23759,note_on,239,0,1,,,,,,,,,0,,,76,0
23760,set_tempo,240,1,0,,,,,,266667,,,,,,,
23760,note_on,1,0,1,,,,,,,,,0,,,85,80
24239,note_on,479,0,1,,,,,,,,,0,,,85,0
24240,set_tempo,480,1,0,,,,,,333333,,,,,,,
24240,note_on,1,0,1,,,,,,,,,0,,,80,80
24923,note_on,683,0,1,,,,,,,,,0,,,80,0
24960,note_on,37,0,1,,,,,,,,,0,,,83,96
24960,set_tempo,720,1,0,,,,,,571429,,,,,,,
25679,note_on,719,0,1,,,,,,,,,0,,,83,0
25680,note_on,1,0,1,,,,,,,,,0,,,81,64
25907,note_on,227,0,1,,,,,,,,,0,,,81,0
25920,note_on,13,0,1,,,,,,,,,0,,,74,64
26147,note_on,227,0,1,,,,,,,,,0,,,74,0
26160,note_on,13,0,1,,,,,,,,,0,,,75,64
26387,note_on,227,0,1,,,,,,,,,0,,,75,0
26400,note_on,13,0,1,,,,,,,,,0,,,78,70
27083,note_on,683,0,1,,,,,,,,,0,,,78,0
27120,set_tempo,2160,1,0,,,,,,705882,,,,,,,
27120,note_on,37,0,1,,,,,,,,,0,,,76,64
27347,note_on,227,0,1,,,,,,,,,0,,,76,0
27360,note_on,13,0,1,,,,,,,,,0,,,75,64
27360,set_tempo,240,1,0,,,,,,697674,,,,,,,
27587,note_on,227,0,1,,,,,,,,,0,,,75,0
27600,set_tempo,240,1,0,,,,,,742574,,,,,,,
27600,note_on,13,0,1,,,,,,,,,0,,,73,64
27827,note_on,227,0,1,,,,,,,,,0,,,73,0
27840,note_on,0,0,1,,,,,,,,,0,,,65,64
27840,note_on,13,0,1,,,,,,,,,0,,,50,64
27840,set_tempo,240,1,0,,,,,,1600000,,,,,,,
27840,note_on,0,0,0,,,,,,,,,0,,,68,64
27840,note_on,0,0,0,,,,,,,,,0,,,73,64
27842,control_change,2,0,1,,,,,,,64,127,0,,,,
28295,note_on,0,0,1,,,,,,,,,0,,,65,0
28295,note_on,453,0,1,,,,,,,,,0,,,50,0
28319,set_tempo,479,1,0,,,,,,800000,,,,,,,
28523,note_on,204,0,0,,,,,,,,,0,,,68,0
28523,note_on,0,0,0,,,,,,,,,0,,,73,0
28560,note_on,0,0,0,,,,,,,,,0,,,71,64
28560,set_tempo,37,1,0,,,,,,631579,,,,,,,
28787,note_on,227,0,0,,,,,,,,,0,,,71,0
28800,note_on,0,0,0,,,,,,,,,0,,,67,64
28800,set_tempo,13,1,0,,,,,,504202,,,,,,,
28801,control_change,506,0,1,,,,,,,64,0,0,,,,
29027,note_on,227,0,0,,,,,,,,,0,,,67,0
29040,note_on,0,0,0,,,,,,,,,0,,,68,64
29040,set_tempo,13,1,0,,,,,,453172,,,,,,,
29267,note_on,227,0,0,,,,,,,,,0,,,68,0
29280,set_tempo,13,1,0,,,,,,418118,,,,,,,
29280,note_on,0,0,0,,,,,,,,,0,,,64,64
29507,note_on,227,0,0,,,,,,,,,0,,,64,0
29520,note_on,0,0,0,,,,,,,,,0,,,65,64
29520,set_tempo,13,1,0,,,,,,391134,,,,,,,
29747,note_on,227,0,0,,,,,,,,,0,,,65,0
29760,note_on,0,0,0,,,,,,,,,0,,,61,64
29760,set_tempo,13,1,0,,,,,,369686,,,,,,,
29987,note_on,227,0,0,,,,,,,,,0,,,61,0
30000,note_on,0,0,0,,,,,,,,,0,,,62,64
30000,set_tempo,13,1,0,,,,,,351494,,,,,,,
30227,note_on,227,0,0,,,,,,,,,0,,,62,0
30240,set_tempo,13,1,0,,,,,,336134,,,,,,,
30240,note_on,0,0,0,,,,,,,,,0,,,65,64
30467,note_on,227,0,0,,,,,,,,,0,,,65,0
30480,set_tempo,13,1,0,,,,,,322581,,,,,,,
30480,note_on,0,0,0,,,,,,,,,0,,,68,64
30707,note_on,227,0,0,,,,,,,,,0,,,68,0
30720,note_on,0,0,0,,,,,,,,,0,,,71,64
30720,set_tempo,13,1,0,,,,,,310720,,,,,,,
30947,note_on,227,0,0,,,,,,,,,0,,,71,0
30960,note_on,0,0,0,,,,,,,,,0,,,74,64
30960,set_tempo,13,1,0,,,,,,300000,,,,,,,
31187,note_on,227,0,0,,,,,,,,,0,,,74,0
31200,note_on,0,0,0,,,,,,,,,0,,,77,64
31200,set_tempo,13,1,0,,,,,,288046,,,,,,,
31427,note_on,227,0,0,,,,,,,,,0,,,77,0
31440,note_on,0,0,0,,,,,,,,,0,,,80,65
31440,set_tempo,13,1,0,,,,,,276880,,,,,,,
31667,note_on,227,0,0,,,,,,,,,0,,,80,0
31680,set_tempo,13,1,0,,,,,,266667,,,,,,,
31680,note_on,0,0,0,,,,,,,,,0,,,83,65
31907,note_on,227,0,0,,,,,,,,,0,,,83,0
31920,set_tempo,13,1,0,,,,,,257180,,,,,,,
31920,note_on,0,0,0,,,,,,,,,0,,,86,65
32147,note_on,227,0,0,,,,,,,,,0,,,86,0
32160,set_tempo,13,1,0,,,,,,248242,,,,,,,
32160,note_on,0,0,0,,,,,,,,,0,,,89,66
32387,note_on,227,0,0,,,,,,,,,0,,,89,0
32400,note_on,13,0,0,,,,,,,,,0,,,92,66
32627,note_on,227,0,0,,,,,,,,,0,,,92,0
32640,note_on,13,0,0,,,,,,,,,0,,,95,66
32867,note_on,227,0,0,,,,,,,,,0,,,95,0
32880,set_tempo,13,1,0,,,,,,240000,,,,,,,
32880,note_on,0,0,0,,,,,,,,,0,,,91,67
33107,note_on,227,0,0,,,,,,,,,0,,,91,0
33120,set_tempo,13,1,0,,,,,,218182,,,,,,,
33120,note_on,0,0,0,,,,,,,,,0,,,94,100
33600,set_tempo,480,1,0,,,,,,545455,,,,,,,
33827,note_on,227,0,0,,,,,,,,,0,,,94,0
33839,set_tempo,12,1,0,,,,,,218182,,,,,,,
33840,note_on,0,0,0,,,,,,,,,0,,,92,68
33840,set_tempo,1,1,0,,,,,,360000,,,,,,,
34067,note_on,227,0,0,,,,,,,,,0,,,92,0
34079,set_tempo,12,1,0,,,,,,300000,,,,,,,
34080,set_tempo,1,1,0,,,,,,298805,,,,,,,
34080,note_on,0,0,0,,,,,,,,,0,,,86,68
34231,note_on,151,0,0,,,,,,,,,0,,,86,0
34240,note_on,0,0,0,,,,,,,,,0,,,87,68
34240,set_tempo,9,1,0,,,,,,297324,,,,,,,
34391,note_on,151,0,0,,,,,,,,,0,,,87,0
34400,set_tempo,9,1,0,,,,,,295567,,,,,,,
34400,note_on,0,0,0,,,,,,,,,0,,,88,68
34551,note_on,151,0,0,,,,,,,,,0,,,88,0
34560,set_tempo,9,1,0,,,,,,293399,,,,,,,
34560,note_on,0,0,0,,,,,,,,,0,,,91,102
35279,note_on,719,0,0,,,,,,,,,0,,,91,0
35280,note_on,0,0,0,,,,,,,,,0,,,89,68
35280,set_tempo,1,1,0,,,,,,281162,,,,,,,
35507,note_on,227,0,0,,,,,,,,,0,,,89,0
35520,note_on,0,0,0,,,,,,,,,0,,,83,68
35520,set_tempo,13,1,0,,,,,,276370,,,,,,,
35671,note_on,151,0,0,,,,,,,,,0,,,83,0
35680,note_on,0,0,0,,,,,,,,,0,,,84,68
35680,set_tempo,9,1,0,,,,,,272975,,,,,,,
35831,note_on,151,0,0,,,,,,,,,0,,,84,0
35840,note_on,0,0,0,,,,,,,,,0,,,85,68
35840,set_tempo,9,1,0,,,,,,269542,,,,,,,
36000,set_tempo,160,1,0,,,,,,26608,,,,,,,
36447,note_on,447,0,0,,,,,,,,,0,,,85,0
36479,set_tempo,32,1,0,,,,,,266075,,,,,,,
36480,note_on,0,0,0,,,,,,,,,0,,,87,68
36480,set_tempo,1,1,0,,,,,,255319,,,,,,,
36661,note_on,181,0,0,,,,,,,,,0,,,87,0
36672,note_on,11,0,0,,,,,,,,,0,,,85,68
36853,note_on,181,0,0,,,,,,,,,0,,,85,0
36864,note_on,11,0,0,,,,,,,,,0,,,80,68
37045,note_on,181,0,0,,,,,,,,,0,,,80,0
37056,note_on,11,0,0,,,,,,,,,0,,,81,68
37237,note_on,181,0,0,,,,,,,,,0,,,81,0
37248,note_on,11,0,0,,,,,,,,,0,,,82,68
37429,note_on,181,0,0,,,,,,,,,0,,,82,0
37440,set_tempo,11,1,0,,,,,,244898,,,,,,,
37440,note_on,0,0,0,,,,,,,,,0,,,85,68
37621,note_on,181,0,0,,,,,,,,,0,,,85,0
37632,note_on,11,0,0,,,,,,,,,0,,,83,68
37813,note_on,181,0,0,,,,,,,,,0,,,83,0
37824,note_on,11,0,0,,,,,,,,,0,,,73,68
38005,note_on,181,0,0,,,,,,,,,0,,,73,0
38016,note_on,11,0,0,,,,,,,,,0,,,75,68
38197,note_on,181,0,0,,,,,,,,,0,,,75,0
38208,note_on,11,0,0,,,,,,,,,0,,,76,68
38389,note_on,181,0,0,,,,,,,,,0,,,76,0
38400,note_on,11,0,0,,,,,,,,,0,,,79,68
38581,note_on,181,0,0,,,,,,,,,0,,,79,0
38592,note_on,11,0,0,,,,,,,,,0,,,77,68
38773,note_on,181,0,0,,,,,,,,,0,,,77,0
38784,note_on,11,0,0,,,,,,,,,0,,,71,68
38965,note_on,181,0,0,,,,,,,,,0,,,71,0
38976,note_on,11,0,0,,,,,,,,,0,,,72,68
39157,note_on,181,0,0,,,,,,,,,0,,,72,0
39168,note_on,11,0,0,,,,,,,,,0,,,73,68
39349,note_on,181,0,0,,,,,,,,,0,,,73,0
39360,note_on,0,0,0,,,,,,,,,0,,,75,68
39360,set_tempo,11,1,0,,,,,,244898,,,,,,,
39541,note_on,181,0,0,,,,,,,,,0,,,75,0
39552,set_tempo,11,1,0,,,,,,244998,,,,,,,
39552,note_on,0,0,0,,,,,,,,,0,,,74,68
39733,note_on,181,0,0,,,,,,,,,0,,,74,0
39744,note_on,0,0,0,,,,,,,,,0,,,68,68
39744,set_tempo,11,1,0,,,,,,245298,,,,,,,
39925,note_on,181,0,0,,,,,,,,,0,,,68,0
39936,set_tempo,11,1,0,,,,,,245902,,,,,,,
39936,note_on,0,0,0,,,,,,,,,0,,,69,68
40117,note_on,181,0,0,,,,,,,,,0,,,69,0
40128,set_tempo,11,1,0,,,,,,246711,,,,,,,
40128,note_on,0,0,0,,,,,,,,,0,,,70,68
40309,note_on,181,0,0,,,,,,,,,0,,,70,0
40320,note_on,0,0,0,,,,,,,,,0,,,73,68
40320,set_tempo,11,1,0,,,,,,247729,,,,,,,
40501,note_on,181,0,0,,,,,,,,,0,,,73,0
40512,set_tempo,11,1,0,,,,,,248963,,,,,,,
40512,note_on,0,0,0,,,,,,,,,0,,,71,68
40693,note_on,181,0,0,,,,,,,,,0,,,71,0
40704,set_tempo,11,1,0,,,,,,250522,,,,,,,
40704,note_on,0,0,0,,,,,,,,,0,,,62,68
40885,note_on,181,0,0,,,,,,,,,0,,,62,0
40896,note_on,0,0,0,,,,,,,,,0,,,63,68
40896,set_tempo,11,1,0,,,,,,252313,,,,,,,
41077,note_on,181,0,0,,,,,,,,,0,,,63,0
41088,set_tempo,11,1,0,,,,,,254345,,,,,,,
41088,note_on,0,0,0,,,,,,,,,0,,,64,68
41269,note_on,181,0,0,,,,,,,,,0,,,64,0
41280,note_on,0,0,0,,,,,,,,,0,,,67,102
41280,set_tempo,11,1,0,,,,,,256630,,,,,,,
41471,note_on,191,0,0,,,,,,,,,0,,,67,0
41472,set_tempo,1,1,0,,,,,,259291,,,,,,,
41472,note_on,0,0,0,,,,,,,,,0,,,65,68
41653,note_on,181,0,0,,,,,,,,,0,,,65,0
41664,note_on,0,0,0,,,,,,,,,0,,,59,68
41664,set_tempo,11,1,0,,,,,,262123,,,,,,,
41845,note_on,181,0,0,,,,,,,,,0,,,59,0
41856,set_tempo,11,1,0,,,,,,265487,,,,,,,
41856,note_on,0,0,0,,,,,,,,,0,,,60,68
42037,note_on,181,0,0,,,,,,,,,0,,,60,0
42048,set_tempo,11,1,0,,,,,,269058,,,,,,,
42048,note_on,0,0,0,,,,,,,,,0,,,61,68
42229,note_on,181,0,0,,,,,,,,,0,,,61,0
42240,note_on,0,0,0,,,,,,,,,0,,,63,102
42240,set_tempo,11,1,0,,,,,,273100,,,,,,,
42431,note_on,191,0,0,,,,,,,,,0,,,63,0
42432,set_tempo,1,1,0,,,,,,277521,,,,,,,
42432,note_on,0,0,0,,,,,,,,,0,,,62,68
42613,note_on,181,0,0,,,,,,,,,0,,,62,0
42624,set_tempo,11,1,0,,,,,,282353,,,,,,,
42624,note_on,0,0,0,,,,,,,,,0,,,56,68
42805,note_on,181,0,0,,,,,,,,,0,,,56,0
42816,note_on,11,0,0,,,,,,,,,0,,,57,68
42997,note_on,181,0,0,,,,,,,,,0,,,57,0
43008,note_on,11,0,0,,,,,,,,,0,,,58,68
43189,note_on,181,0,0,,,,,,,,,0,,,58,0
43200,note_on,0,0,0,,,,,,,,,0,,,61,81
43200,set_tempo,11,1,0,,,,,,324706,,,,,,,
43359,note_on,159,0,0,,,,,,,,,0,,,61,0
43439,set_tempo,80,1,0,,,,,,282353,,,,,,,
43440,note_on,0,0,0,,,,,,,,,0,,,59,68
43440,set_tempo,1,1,0,,,,,,390000,,,,,,,
43667,note_on,227,0,0,,,,,,,,,0,,,59,0
43679,set_tempo,12,1,0,,,,,,300000,,,,,,,
43680,note_on,14879,0,1,,,,,,,,,0,,,50,68
43680,set_tempo,1,1,0,,,,,,333333,,,,,,,
43799,note_on,119,0,1,,,,,,,,,0,,,50,0
43920,set_tempo,240,1,0,,,,,,351288,,,,,,,
43920,note_on,121,0,1,,,,,,,,,0,,,53,68
44039,note_on,119,0,1,,,,,,,,,0,,,53,0
44160,note_on,121,0,1,,,,,,,,,0,,,57,68
44160,set_tempo,240,1,0,,,,,,366300,,,,,,,
44279,note_on,119,0,1,,,,,,,,,0,,,57,0
44400,set_tempo,240,1,0,,,,,,381194,,,,,,,
44400,note_on,121,0,1,,,,,,,,,0,,,60,69
44519,note_on,119,0,1,,,,,,,,,0,,,60,0
44640,note_on,0,0,0,,,,,,,,,0,,,61,70
44640,set_tempo,240,1,0,,,,,,396563,,,,,,,
44759,note_on,119,0,0,,,,,,,,,0,,,61,0
44880,note_on,121,0,0,,,,,,,,,0,,,65,71
44999,note_on,119,0,0,,,,,,,,,0,,,65,0
45120,note_on,0,0,0,,,,,,,,,0,,,65,108
45120,set_tempo,121,1,0,,,,,,375000,,,,,,,
45600,note_on,1081,0,1,,,,,,,,,0,,,39,72
45701,note_on,101,0,1,,,,,,,,,0,,,48,72
45804,note_on,103,0,1,,,,,,,,,0,,,56,72
45839,note_on,719,0,0,,,,,,,,,0,,,65,0
45840,note_on,1,0,0,,,,,,,,,0,,,63,72
46078,note_on,274,0,1,,,,,,,,,0,,,48,0
46079,note_on,239,0,0,,,,,,,,,0,,,63,0
46079,note_on,1,0,1,,,,,,,,,0,,,39,0
46079,note_on,0,0,1,,,,,,,,,0,,,56,0
46080,note_on,1,0,0,,,,,,,,,0,,,60,72
46319,note_on,239,0,0,,,,,,,,,0,,,60,0
46320,note_on,1,0,0,,,,,,,,,0,,,56,72
46547,note_on,227,0,0,,,,,,,,,0,,,56,0
46560,note_on,13,0,0,,,,,,,,,0,,,53,108
47040,note_on,961,0,1,,,,,,,,,0,,,39,72
47146,note_on,106,0,1,,,,,,,,,0,,,48,72
47252,note_on,106,0,1,,,,,,,,,0,,,57,72
47279,note_on,719,0,0,,,,,,,,,0,,,53,0
47280,note_on,1,0,0,,,,,,,,,0,,,51,72
47518,note_on,266,0,1,,,,,,,,,0,,,48,0
47518,note_on,0,0,1,,,,,,,,,0,,,57,0
47519,note_on,1,0,1,,,,,,,,,0,,,39,0
47519,note_on,239,0,0,,,,,,,,,0,,,51,0
47520,note_on,1,0,0,,,,,,,,,0,,,48,72
47759,note_on,239,0,0,,,,,,,,,0,,,48,0
47760,note_on,1,0,0,,,,,,,,,0,,,45,72
47987,note_on,227,0,0,,,,,,,,,0,,,45,0
48000,note_on,0,0,0,,,,,,,,,0,,,67,108
48000,set_tempo,13,1,0,,,,,,375000,,,,,,,
48480,note_on,961,0,1,,,,,,,,,0,,,39,72
48586,note_on,106,0,1,,,,,,,,,0,,,49,72
48692,note_on,106,0,1,,,,,,,,,0,,,58,72
48719,note_on,719,0,0,,,,,,,,,0,,,67,0
48720,note_on,0,0,0,,,,,,,,,0,,,65,72
48720,set_tempo,1,1,0,,,,,,365631,,,,,,,
48958,note_on,0,0,1,,,,,,,,,0,,,58,0
48958,note_on,266,0,1,,,,,,,,,0,,,49,0
48959,note_on,239,0,0,,,,,,,,,0,,,65,0
48959,note_on,1,0,1,,,,,,,,,0,,,39,0
48960,note_on,0,0,0,,,,,,,,,0,,,61,73
48960,set_tempo,1,1,0,,,,,,362538,,,,,,,
49199,note_on,239,0,0,,,,,,,,,0,,,61,0
49200,set_tempo,1,1,0,,,,,,359712,,,,,,,
49200,note_on,0,0,0,,,,,,,,,0,,,58,73
49427,note_on,227,0,0,,,,,,,,,0,,,58,0
49440,note_on,0,0,0,,,,,,,,,0,,,55,109
49440,set_tempo,13,1,0,,,,,,356718,,,,,,,
49920,note_on,961,0,1,,,,,,,,,0,,,39,74
49920,note_on,0,0,1,,,,,,,,,0,,,50,74
49920,note_on,0,0,1,,,,,,,,,0,,,59,74
50159,note_on,719,0,0,,,,,,,,,0,,,55,0
50160,note_on,0,0,0,,,,,,,,,0,,,53,74
50160,set_tempo,1,1,0,,,,,,348230,,,,,,,
50399,note_on,239,0,0,,,,,,,,,0,,,53,0
50400,note_on,0,0,0,,,,,,,,,0,,,50,74
50400,set_tempo,1,1,0,,,,,,345622,,,,,,,
50400,note_on,480,0,1,,,,,,,,,0,,,50,0
50603,note_on,203,0,1,,,,,,,,,0,,,39,0
50603,note_on,0,0,1,,,,,,,,,0,,,59,0
50639,note_on,239,0,0,,,,,,,,,0,,,50,0
50640,note_on,0,0,0,,,,,,,,,0,,,47,74
50640,set_tempo,1,1,0,,,,,,342857,,,,,,,
50867,note_on,227,0,0,,,,,,,,,0,,,47,0
50880,note_on,0,0,0,,,,,,,,,0,,,68,112
50880,set_tempo,13,1,0,,,,,,340136,,,,,,,
51360,note_on,757,0,1,,,,,,,,,0,,,39,75
51360,set_tempo,480,1,0,,,,,,335008,,,,,,,
51479,note_on,119,0,1,,,,,,,,,0,,,51,75
51598,note_on,119,0,1,,,,,,,,,0,,,60,75
51599,note_on,239,0,0,,,,,,,,,0,,,68,0
51600,note_on,1,0,0,,,,,,,,,0,,,67,75
51838,note_on,240,0,1,,,,,,,,,0,,,51,0
51838,note_on,0,0,1,,,,,,,,,0,,,60,0
51839,note_on,239,0,0,,,,,,,,,0,,,67,0
51839,note_on,1,0,1,,,,,,,,,0,,,39,0
51840,note_on,0,0,0,,,,,,,,,0,,,63,76
51840,set_tempo,1,1,0,,,,,,330033,,,,,,,
52079,note_on,239,0,0,,,,,,,,,0,,,63,0
52080,note_on,1,0,0,,,,,,,,,0,,,60,76
52307,note_on,227,0,0,,,,,,,,,0,,,60,0
52320,note_on,0,0,0,,,,,,,,,0,,,69,114
52320,note_on,0,0,0,,,,,,,,,0,,,56,114
52320,set_tempo,13,1,0,,,,,,325203,,,,,,,
52800,note_on,961,0,1,,,,,,,,,0,,,39,77
52927,note_on,127,0,1,,,,,,,,,0,,,51,77
53039,note_on,719,0,0,,,,,,,,,0,,,56,0
53039,note_on,0,0,0,,,,,,,,,0,,,69,0
53040,note_on,1,0,0,,,,,,,,,0,,,68,77
53054,note_on,127,0,1,,,,,,,,,0,,,60,77
53278,note_on,0,0,1,,,,,,,,,0,,,60,0
53278,note_on,224,0,1,,,,,,,,,0,,,51,0
53279,note_on,1,0,1,,,,,,,,,0,,,39,0
53279,note_on,239,0,0,,,,,,,,,0,,,68,0
53280,note_on,0,0,0,,,,,,,,,0,,,66,77
53280,set_tempo,1,1,0,,,,,,315789,,,,,,,
53519,note_on,239,0,0,,,,,,,,,0,,,66,0
53520,note_on,1,0,0,,,,,,,,,0,,,63,78
53747,note_on,227,0,0,,,,,,,,,0,,,63,0
53760,set_tempo,13,1,0,,,,,,352941,,,,,,,
53760,note_on,0,0,0,,,,,,,,,0,,,56,120
53762,control_change,483,0,1,,,,,,,64,127,0,,,,
53855,note_on,95,0,0,,,,,,,,,0,,,69,120
54239,note_on,384,0,0,,,,,,,,,0,,,56,0
54240,note_on,478,0,1,,,,,,,,,0,,,39,80
54366,note_on,126,0,1,,,,,,,,,0,,,52,80
54390,note_on,151,0,0,,,,,,,,,0,,,69,0
54400,note_on,0,0,0,,,,,,,,,0,,,68,80
54400,set_tempo,10,1,0,,,,,,352941,,,,,,,
54492,note_on,126,0,1,,,,,,,,,0,,,61,80
54551,note_on,151,0,0,,,,,,,,,0,,,68,0
54560,note_on,0,0,0,,,,,,,,,0,,,64,80
54560,set_tempo,9,1,0,,,,,,341686,,,,,,,
54711,note_on,151,0,0,,,,,,,,,0,,,64,0
54718,note_on,226,0,1,,,,,,,,,0,,,52,0
54718,note_on,0,0,1,,,,,,,,,0,,,61,0
54719,note_on,1,0,1,,,,,,,,,0,,,39,0
54720,set_tempo,9,1,0,,,,,,335758,,,,,,,
54720,note_on,0,0,0,,,,,,,,,0,,,61,80
54871,note_on,151,0,0,,,,,,,,,0,,,61,0
54880,set_tempo,9,1,0,,,,,,331126,,,,,,,
54880,note_on,0,0,0,,,,,,,,,0,,,75,80
55031,note_on,151,0,0,,,,,,,,,0,,,75,0
55040,set_tempo,9,1,0,,,,,,327154,,,,,,,
55040,note_on,0,0,0,,,,,,,,,0,,,73,80
55191,note_on,151,0,0,,,,,,,,,0,,,73,0
55200,set_tempo,9,1,0,,,,,,323450,,,,,,,
55200,note_on,0,0,0,,,,,,,,,0,,,68,80
55351,note_on,151,0,0,,,,,,,,,0,,,68,0
55360,note_on,0,0,0,,,,,,,,,0,,,64,80
55360,set_tempo,9,1,0,,,,,,320171,,,,,,,
55511,note_on,151,0,0,,,,,,,,,0,,,64,0
55520,note_on,0,0,0,,,,,,,,,0,,,78,80
55520,set_tempo,9,1,0,,,,,,317292,,,,,,,
55671,note_on,151,0,0,,,,,,,,,0,,,78,0
55680,note_on,0,0,0,,,,,,,,,0,,,76,80
55680,set_tempo,9,1,0,,,,,,314465,,,,,,,
55793,note_on,113,0,0,,,,,,,,,0,,,76,0
55800,note_on,0,0,0,,,,,,,,,0,,,73,80
55800,set_tempo,7,1,0,,,,,,312500,,,,,,,
55913,note_on,113,0,0,,,,,,,,,0,,,73,0
55920,set_tempo,7,1,0,,,,,,310559,,,,,,,
55920,note_on,0,0,0,,,,,,,,,0,,,68,80
56033,note_on,113,0,0,,,,,,,,,0,,,68,0
56040,set_tempo,7,1,0,,,,,,308801,,,,,,,
56040,note_on,0,0,0,,,,,,,,,0,,,81,80
56153,note_on,113,0,0,,,,,,,,,0,,,81,0
56160,set_tempo,7,1,0,,,,,,306905,,,,,,,
56160,note_on,0,0,0,,,,,,,,,0,,,80,80
56273,note_on,113,0,0,,,,,,,,,0,,,80,0
56280,set_tempo,7,1,0,,,,,,305344,,,,,,,
56280,note_on,0,0,0,,,,,,,,,0,,,76,80
56393,note_on,113,0,0,,,,,,,,,0,,,76,0
56400,note_on,0,0,0,,,,,,,,,0,,,73,80
56400,set_tempo,7,1,0,,,,,,303644,,,,,,,
56513,note_on,113,0,0,,,,,,,,,0,,,73,0
56520,set_tempo,7,1,0,,,,,,302115,,,,,,,
56520,note_on,0,0,0,,,,,,,,,0,,,87,80
56633,note_on,113,0,0,,,,,,,,,0,,,87,0
56640,note_on,0,0,0,,,,,,,,,0,,,85,80
56640,set_tempo,7,1,0,,,,,,300451,,,,,,,
56641,control_change,1922,0,1,,,,,,,64,0,0,,,,
56753,note_on,113,0,0,,,,,,,,,0,,,85,0
56760,set_tempo,7,1,0,,,,,,299103,,,,,,,
56760,note_on,0,0,0,,,,,,,,,0,,,80,80
56873,note_on,113,0,0,,,,,,,,,0,,,80,0
56880,set_tempo,7,1,0,,,,,,297619,,,,,,,
56880,note_on,0,0,0,,,,,,,,,0,,,76,80
56993,note_on,113,0,0,,,,,,,,,0,,,76,0
57000,set_tempo,7,1,0,,,,,,296150,,,,,,,
57000,note_on,0,0,0,,,,,,,,,0,,,90,80
57113,note_on,113,0,0,,,,,,,,,0,,,90,0
57120,note_on,0,0,0,,,,,,,,,0,,,88,80
57120,set_tempo,7,1,0,,,,,,294840,,,,,,,
57233,note_on,113,0,0,,,,,,,,,0,,,88,0
57240,note_on,0,0,0,,,,,,,,,0,,,85,80
57240,set_tempo,7,1,0,,,,,,293542,,,,,,,
57353,note_on,113,0,0,,,,,,,,,0,,,85,0
57360,note_on,0,0,0,,,,,,,,,0,,,80,80
57360,set_tempo,7,1,0,,,,,,292113,,,,,,,
57473,note_on,113,0,0,,,,,,,,,0,,,80,0
57480,set_tempo,7,1,0,,,,,,290839,,,,,,,
57480,note_on,0,0,0,,,,,,,,,0,,,93,80
57593,note_on,113,0,0,,,,,,,,,0,,,93,0
57600,set_tempo,7,1,0,,,,,,289715,,,,,,,
57600,note_on,0,0,0,,,,,,,,,0,,,92,80
57713,note_on,113,0,0,,,,,,,,,0,,,92,0
57720,note_on,0,0,0,,,,,,,,,0,,,88,80
57720,set_tempo,7,1,0,,,,,,288462,,,,,,,
57833,note_on,113,0,0,,,,,,,,,0,,,88,0
57840,note_on,0,0,0,,,,,,,,,0,,,85,80
57840,set_tempo,7,1,0,,,,,,287219,,,,,,,
57953,note_on,113,0,0,,,,,,,,,0,,,85,0
57960,set_tempo,7,1,0,,,,,,286123,,,,,,,
57960,note_on,0,0,0,,,,,,,,,0,,,99,80
58073,note_on,113,0,0,,,,,,,,,0,,,99,0
58080,set_tempo,7,1,0,,,,,,284900,,,,,,,
58080,note_on,0,0,0,,,,,,,,,0,,,97,80
58193,note_on,113,0,0,,,,,,,,,0,,,97,0
58200,note_on,0,0,0,,,,,,,,,0,,,92,80
58200,set_tempo,7,1,0,,,,,,283822,,,,,,,
58313,note_on,113,0,0,,,,,,,,,0,,,92,0
58320,set_tempo,7,1,0,,,,,,282752,,,,,,,
58320,note_on,0,0,0,,,,,,,,,0,,,88,80
58433,note_on,113,0,0,,,,,,,,,0,,,88,0
58440,note_on,0,0,0,,,,,,,,,0,,,100,80
58440,set_tempo,7,1,0,,,,,,281690,,,,,,,
58553,note_on,113,0,0,,,,,,,,,0,,,100,0
58560,set_tempo,7,1,0,,,,,,280505,,,,,,,
58560,note_on,0,0,0,,,,,,,,,0,,,99,80
58673,note_on,113,0,0,,,,,,,,,0,,,99,0
58680,note_on,0,0,0,,,,,,,,,0,,,97,80
58680,set_tempo,7,1,0,,,,,,279590,,,,,,,
58793,note_on,113,0,0,,,,,,,,,0,,,97,0
58800,note_on,0,0,0,,,,,,,,,0,,,91,80
58800,set_tempo,7,1,0,,,,,,278552,,,,,,,
58913,note_on,113,0,0,,,,,,,,,0,,,91,0
58920,set_tempo,7,1,0,,,,,,277521,,,,,,,
58920,note_on,0,0,0,,,,,,,,,0,,,92,80
59033,note_on,113,0,0,,,,,,,,,0,,,92,0
59040,note_on,0,0,0,,,,,,,,,0,,,100,80
59040,set_tempo,7,1,0,,,,,,276498,,,,,,,
59130,note_on,90,0,0,,,,,,,,,0,,,100,0
59136,note_on,0,0,0,,,,,,,,,0,,,99,80
59136,set_tempo,6,1,0,,,,,,275735,,,,,,,
59226,note_on,90,0,0,,,,,,,,,0,,,99,0
59232,note_on,0,0,0,,,,,,,,,0,,,97,80
59232,set_tempo,6,1,0,,,,,,274977,,,,,,,
59322,note_on,90,0,0,,,,,,,,,0,,,97,0
59328,set_tempo,6,1,0,,,,,,274223,,,,,,,
59328,note_on,0,0,0,,,,,,,,,0,,,91,80
59418,note_on,90,0,0,,,,,,,,,0,,,91,0
59424,set_tempo,6,1,0,,,,,,273473,,,,,,,
59424,note_on,0,0,0,,,,,,,,,0,,,92,80
59514,note_on,90,0,0,,,,,,,,,0,,,92,0
59520,set_tempo,6,1,0,,,,,,444444,,,,,,,
59520,note_on,0,0,0,,,,,,,,,0,,,100,80
59576,note_on,56,0,0,,,,,,,,,0,,,100,0
59580,note_on,4,0,0,,,,,,,,,0,,,99,80
59636,note_on,56,0,0,,,,,,,,,0,,,99,0
59640,note_on,4,0,0,,,,,,,,,0,,,97,80
59696,note_on,56,0,0,,,,,,,,,0,,,97,0
59700,note_on,4,0,0,,,,,,,,,0,,,91,80
59756,note_on,56,0,0,,,,,,,,,0,,,91,0
59760,note_on,4,0,0,,,,,,,,,0,,,92,80
59816,note_on,56,0,0,,,,,,,,,0,,,92,0
59820,note_on,4,0,0,,,,,,,,,0,,,100,80
59876,note_on,56,0,0,,,,,,,,,0,,,100,0
59880,note_on,4,0,0,,,,,,,,,0,,,99,80
59936,note_on,56,0,0,,,,,,,,,0,,,99,0
59940,note_on,4,0,0,,,,,,,,,0,,,97,80
59996,note_on,56,0,0,,,,,,,,,0,,,97,0
60000,note_on,4,0,0,,,,,,,,,0,,,91,80
60056,note_on,56,0,0,,,,,,,,,0,,,91,0
60060,note_on,4,0,0,,,,,,,,,0,,,92,80
60116,note_on,56,0,0,,,,,,,,,0,,,92,0
60120,note_on,4,0,0,,,,,,,,,0,,,100,80
60176,note_on,56,0,0,,,,,,,,,0,,,100,0
60180,note_on,4,0,0,,,,,,,,,0,,,99,80
60236,note_on,56,0,0,,,,,,,,,0,,,99,0
60240,note_on,4,0,0,,,,,,,,,0,,,97,80
60296,note_on,56,0,0,,,,,,,,,0,,,97,0
60300,note_on,4,0,0,,,,,,,,,0,,,91,80
60356,note_on,56,0,0,,,,,,,,,0,,,91,0
60360,note_on,4,0,0,,,,,,,,,0,,,92,80
60416,note_on,56,0,0,,,,,,,,,0,,,92,0
60420,note_on,4,0,0,,,,,,,,,0,,,100,80
60476,note_on,56,0,0,,,,,,,,,0,,,100,0
60480,note_on,4,0,0,,,,,,,,,0,,,99,80
60536,note_on,56,0,0,,,,,,,,,0,,,99,0
60540,note_on,4,0,0,,,,,,,,,0,,,97,80
60596,note_on,56,0,0,,,,,,,,,0,,,97,0
60600,note_on,4,0,0,,,,,,,,,0,,,91,80
60656,note_on,56,0,0,,,,,,,,,0,,,91,0
60660,note_on,4,0,0,,,,,,,,,0,,,92,80
60716,note_on,56,0,0,,,,,,,,,0,,,92,0
60720,note_on,4,0,0,,,,,,,,,0,,,100,80
60776,note_on,56,0,0,,,,,,,,,0,,,100,0
60780,note_on,4,0,0,,,,,,,,,0,,,99,80
60836,note_on,56,0,0,,,,,,,,,0,,,99,0
60840,note_on,4,0,0,,,,,,,,,0,,,97,80
60896,note_on,56,0,0,,,,,,,,,0,,,97,0
60900,note_on,4,0,0,,,,,,,,,0,,,91,80
60956,note_on,56,0,0,,,,,,,,,0,,,91,0
60960,note_on,4,0,0,,,,,,,,,0,,,92,80
61016,note_on,56,0,0,,,,,,,,,0,,,92,0
61020,note_on,4,0,0,,,,,,,,,0,,,100,80
61076,note_on,56,0,0,,,,,,,,,0,,,100,0
61080,note_on,4,0,0,,,,,,,,,0,,,99,80
61136,note_on,56,0,0,,,,,,,,,0,,,99,0
61140,note_on,4,0,0,,,,,,,,,0,,,97,80
61196,note_on,56,0,0,,,,,,,,,0,,,97,0
61200,note_on,4,0,0,,,,,,,,,0,,,91,80
61256,note_on,56,0,0,,,,,,,,,0,,,91,0
61260,note_on,4,0,0,,,,,,,,,0,,,92,80
61316,note_on,56,0,0,,,,,,,,,0,,,92,0
61320,note_on,4,0,0,,,,,,,,,0,,,100,80
61379,note_on,59,0,0,,,,,,,,,0,,,100,0
61380,note_on,1,0,0,,,,,,,,,0,,,99,80
61439,note_on,59,0,0,,,,,,,,,0,,,99,0
61440,note_on,1,0,0,,,,,,,,,0,,,97,80
61499,note_on,59,0,0,,,,,,,,,0,,,97,0
61500,note_on,1,0,0,,,,,,,,,0,,,91,80
61559,note_on,59,0,0,,,,,,,,,0,,,91,0
61560,note_on,1,0,0,,,,,,,,,0,,,92,80
61616,note_on,56,0,0,,,,,,,,,0,,,92,0
61620,note_on,4,0,0,,,,,,,,,0,,,100,80
61679,note_on,59,0,0,,,,,,,,,0,,,100,0
61680,note_on,1,0,0,,,,,,,,,0,,,99,80
61739,note_on,59,0,0,,,,,,,,,0,,,99,0
61740,note_on,1,0,0,,,,,,,,,0,,,97,80
61799,note_on,59,0,0,,,,,,,,,0,,,97,0
61800,note_on,1,0,0,,,,,,,,,0,,,91,79
61859,note_on,59,0,0,,,,,,,,,0,,,91,0
61860,note_on,1,0,0,,,,,,,,,0,,,92,79
61916,note_on,56,0,0,,,,,,,,,0,,,92,0
61920,note_on,4,0,0,,,,,,,,,0,,,100,79
61979,note_on,59,0,0,,,,,,,,,0,,,100,0
61980,note_on,1,0,0,,,,,,,,,0,,,99,77
62039,note_on,59,0,0,,,,,,,,,0,,,99,0
62040,note_on,1,0,0,,,,,,,,,0,,,97,75
62099,note_on,59,0,0,,,,,,,,,0,,,97,0
62100,note_on,1,0,0,,,,,,,,,0,,,91,73
62159,note_on,59,0,0,,,,,,,,,0,,,91,0
62160,note_on,1,0,0,,,,,,,,,0,,,92,71
62216,note_on,56,0,0,,,,,,,,,0,,,92,0
62220,set_tempo,4,1,0,,,,,,44444,,,,,,,
62399,set_tempo,179,1,0,,,,,,444444,,,,,,,
62400,note_on,5759,0,1,,,,,,,,,0,,,39,75
62400,note_on,1,0,0,,,,,,,,,0,,,100,104
62402,control_change,2,0,0,,,,,,,64,127,0,,,,
62459,note_on,57,0,0,,,,,,,,,0,,,100,0
62460,note_on,1,0,0,,,,,,,,,0,,,99,69
62513,note_on,113,0,1,,,,,,,,,0,,,39,0
62519,note_on,59,0,0,,,,,,,,,0,,,99,0
62520,note_on,1,0,0,,,,,,,,,0,,,97,67
62520,note_on,7,0,1,,,,,,,,,0,,,46,75
62579,note_on,59,0,0,,,,,,,,,0,,,97,0
62580,note_on,1,0,0,,,,,,,,,0,,,93,66
62633,note_on,113,0,1,,,,,,,,,0,,,46,0
62639,note_on,59,0,0,,,,,,,,,0,,,93,0
62640,note_on,7,0,1,,,,,,,,,0,,,49,75
62640,note_on,1,0,0,,,,,,,,,0,,,94,64
62696,note_on,56,0,0,,,,,,,,,0,,,94,0
62700,note_on,4,0,0,,,,,,,,,0,,,100,90
62753,note_on,113,0,1,,,,,,,,,0,,,49,0
62759,note_on,59,0,0,,,,,,,,,0,,,100,0
62760,note_on,1,0,0,,,,,,,,,0,,,99,60
62760,note_on,7,0,1,,,,,,,,,0,,,55,75
62819,note_on,59,0,0,,,,,,,,,0,,,99,0
62820,note_on,1,0,0,,,,,,,,,0,,,97,60
62873,note_on,113,0,1,,,,,,,,,0,,,55,0
62879,note_on,59,0,0,,,,,,,,,0,,,97,0
62880,note_on,1,0,0,,,,,,,,,0,,,93,60
62880,note_on,7,0,1,,,,,,,,,0,,,58,75
62939,note_on,59,0,0,,,,,,,,,0,,,93,0
62940,note_on,1,0,0,,,,,,,,,0,,,94,60
62993,note_on,113,0,1,,,,,,,,,0,,,58,0
62996,note_on,56,0,0,,,,,,,,,0,,,94,0
63000,note_on,4,0,0,,,,,,,,,0,,,100,90
63000,note_on,7,0,1,,,,,,,,,0,,,61,75
63059,note_on,59,0,0,,,,,,,,,0,,,100,0
63060,note_on,1,0,0,,,,,,,,,0,,,99,60
63113,note_on,113,0,1,,,,,,,,,0,,,61,0
63119,note_on,59,0,0,,,,,,,,,0,,,99,0
63120,note_on,7,0,1,,,,,,,,,0,,,67,75
63120,note_on,1,0,0,,,,,,,,,0,,,97,60
63179,note_on,59,0,0,,,,,,,,,0,,,97,0
63180,note_on,1,0,0,,,,,,,,,0,,,93,60
63233,note_on,113,0,1,,,,,,,,,0,,,67,0
63239,note_on,59,0,0,,,,,,,,,0,,,93,0
63240,note_on,7,0,1,,,,,,,,,0,,,70,75
63240,note_on,1,0,0,,,,,,,,,0,,,94,60
63296,note_on,56,0,0,,,,,,,,,0,,,94,0
63300,note_on,4,0,0,,,,,,,,,0,,,100,90
63353,note_on,113,0,1,,,,,,,,,0,,,70,0
63359,note_on,59,0,0,,,,,,,,,0,,,100,0
63360,note_on,7,0,1,,,,,,,,,0,,,73,75
63360,note_on,1,0,0,,,,,,,,,0,,,99,60
63419,note_on,59,0,0,,,,,,,,,0,,,99,0
63420,note_on,1,0,0,,,,,,,,,0,,,97,60
63473,note_on,113,0,1,,,,,,,,,0,,,73,0
63479,note_on,59,0,0,,,,,,,,,0,,,97,0
63480,note_on,7,0,1,,,,,,,,,0,,,79,75
63480,note_on,1,0,0,,,,,,,,,0,,,93,60
63539,note_on,59,0,0,,,,,,,,,0,,,93,0
63540,note_on,1,0,0,,,,,,,,,0,,,94,60
63593,note_on,113,0,1,,,,,,,,,0,,,79,0
63596,note_on,56,0,0,,,,,,,,,0,,,94,0
63600,note_on,4,0,0,,,,,,,,,0,,,101,90
63600,note_on,7,0,1,,,,,,,,,0,,,82,75
63659,note_on,59,0,0,,,,,,,,,0,,,101,0
63660,note_on,1,0,0,,,,,,,,,0,,,99,60
63713,note_on,113,0,1,,,,,,,,,0,,,82,0
63719,note_on,59,0,0,,,,,,,,,0,,,99,0
63720,note_on,1,0,0,,,,,,,,,0,,,97,60
63720,note_on,7,0,1,,,,,,,,,0,,,85,75
63779,note_on,59,0,0,,,,,,,,,0,,,97,0
63780,note_on,1,0,0,,,,,,,,,0,,,93,60
63839,note_on,59,0,0,,,,,,,,,0,,,93,0
63840,note_on,1,0,0,,,,,,,,,0,,,96,60
63890,note_on,170,0,1,,,,,,,,,0,,,85,0
63896,note_on,56,0,0,,,,,,,,,0,,,96,0
63900,note_on,4,0,0,,,,,,,,,0,,,101,91
63900,note_on,10,0,1,,,,,,,,,0,,,91,75
63959,note_on,59,0,0,,,,,,,,,0,,,101,0
63960,note_on,1,0,0,,,,,,,,,0,,,99,64
64019,note_on,59,0,0,,,,,,,,,0,,,99,0
64020,note_on,1,0,0,,,,,,,,,0,,,97,66
64079,note_on,59,0,0,,,,,,,,,0,,,97,0
64080,note_on,1,0,0,,,,,,,,,0,,,93,70
64127,note_on,227,0,1,,,,,,,,,0,,,91,0
64139,note_on,59,0,0,,,,,,,,,0,,,93,0
64140,note_on,1,0,0,,,,,,,,,0,,,94,73
64196,note_on,56,0,0,,,,,,,,,0,,,94,0
64200,note_on,4,0,0,,,,,,,,,0,,,101,112
64259,note_on,59,0,0,,,,,,,,,0,,,101,0
64260,note_on,1,0,0,,,,,,,,,0,,,99,75
64319,note_on,59,0,0,,,,,,,,,0,,,99,0
64320,note_on,1,0,0,,,,,,,,,0,,,97,75
64379,note_on,59,0,0,,,,,,,,,0,,,97,0
64380,note_on,1,0,0,,,,,,,,,0,,,93,75
64439,note_on,59,0,0,,,,,,,,,0,,,93,0
64440,note_on,1,0,0,,,,,,,,,0,,,94,75
64496,note_on,56,0,0,,,,,,,,,0,,,94,0
64500,note_on,4,0,0,,,,,,,,,0,,,101,112
64559,note_on,59,0,0,,,,,,,,,0,,,101,0
64560,note_on,1,0,0,,,,,,,,,0,,,99,75
64619,note_on,59,0,0,,,,,,,,,0,,,99,0
64620,note_on,1,0,0,,,,,,,,,0,,,97,75
64679,note_on,59,0,0,,,,,,,,,0,,,97,0
64680,note_on,1,0,0,,,,,,,,,0,,,93,75
64736,note_on,56,0,0,,,,,,,,,0,,,93,0
64740,note_on,4,0,0,,,,,,,,,0,,,94,75
64796,note_on,56,0,0,,,,,,,,,0,,,94,0
64800,set_tempo,4,1,0,,,,,,12000,,,,,,,
65279,set_tempo,479,1,0,,,,,,120000,,,,,,,
65280,note_on,0,0,0,,,,,,,,,0,,,101,112
65280,set_tempo,1,1,0,,,,,,444444,,,,,,,
65281,control_change,1,0,0,,,,,,,64,0,0,,,,
65339,note_on,58,0,0,,,,,,,,,0,,,101,0
65340,set_tempo,1,1,0,,,,,,447761,,,,,,,
65340,note_on,0,0,0,,,,,,,,,0,,,99,75
65396,note_on,56,0,0,,,,,,,,,0,,,99,0
65400,note_on,0,0,0,,,,,,,,,0,,,97,75
65400,set_tempo,4,1,0,,,,,,448430,,,,,,,
65456,note_on,56,0,0,,,,,,,,,0,,,97,0
65460,set_tempo,4,1,0,,,,,,449438,,,,,,,
65460,note_on,0,0,0,,,,,,,,,0,,,93,75
65516,note_on,56,0,0,,,,,,,,,0,,,93,0
65520,note_on,0,0,0,,,,,,,,,0,,,94,75
65520,set_tempo,4,1,0,,,,,,450450,,,,,,,
65576,note_on,56,0,0,,,,,,,,,0,,,94,0
65580,note_on,0,0,0,,,,,,,,,0,,,101,112
65580,set_tempo,4,1,0,,,,,,451467,,,,,,,
65639,note_on,59,0,0,,,,,,,,,0,,,101,0
65640,note_on,0,0,0,,,,,,,,,0,,,99,75
65640,set_tempo,1,1,0,,,,,,452830,,,,,,,
65696,note_on,56,0,0,,,,,,,,,0,,,99,0
65700,set_tempo,4,1,0,,,,,,453858,,,,,,,
65700,note_on,0,0,0,,,,,,,,,0,,,97,75
65756,note_on,56,0,0,,,,,,,,,0,,,97,0
65760,note_on,0,0,0,,,,,,,,,0,,,93,75
65760,set_tempo,4,1,0,,,,,,455235,,,,,,,
65816,note_on,56,0,0,,,,,,,,,0,,,93,0
65820,note_on,0,0,0,,,,,,,,,0,,,94,75
65820,set_tempo,4,1,0,,,,,,456274,,,,,,,
65876,note_on,56,0,0,,,,,,,,,0,,,94,0
65880,set_tempo,4,1,0,,,,,,2059497,,,,,,,
65880,note_on,0,0,0,,,,,,,,,0,,,97,117
65939,note_on,0,0,0,,,,,,,,,0,,,97,0
65939,set_tempo,59,1,0,,,,,,457666,,,,,,,
65940,note_on,0,0,0,,,,,,,,,0,,,96,75
65940,set_tempo,1,1,0,,,,,,459067,,,,,,,
65996,note_on,56,0,0,,,,,,,,,0,,,96,0
66000,note_on,0,0,0,,,,,,,,,0,,,94,75
66000,set_tempo,4,1,0,,,,,,460476,,,,,,,
66056,note_on,56,0,0,,,,,,,,,0,,,94,0
66060,note_on,0,0,0,,,,,,,,,0,,,90,75
66060,set_tempo,4,1,0,,,,,,461894,,,,,,,
66116,note_on,56,0,0,,,,,,,,,0,,,90,0
66120,note_on,0,0,0,,,,,,,,,0,,,91,75
66120,set_tempo,4,1,0,,,,,,463320,,,,,,,
66176,note_on,56,0,0,,,,,,,,,0,,,91,0
66180,note_on,0,0,0,,,,,,,,,0,,,94,75
66180,set_tempo,4,1,0,,,,,,464756,,,,,,,
66236,note_on,56,0,0,,,,,,,,,0,,,94,0
66240,set_tempo,4,1,0,,,,,,466200,,,,,,,
66240,note_on,0,0,0,,,,,,,,,0,,,92,75
66296,note_on,56,0,0,,,,,,,,,0,,,92,0
66300,note_on,0,0,0,,,,,,,,,0,,,91,75
66300,set_tempo,4,1,0,,,,,,467654,,,,,,,
66356,note_on,56,0,0,,,,,,,,,0,,,91,0
66360,note_on,0,0,0,,,,,,,,,0,,,86,75
66360,set_tempo,4,1,0,,,,,,469116,,,,,,,
66416,note_on,56,0,0,,,,,,,,,0,,,86,0
66420,note_on,0,0,0,,,,,,,,,0,,,87,75
66420,set_tempo,4,1,0,,,,,,470588,,,,,,,
66476,note_on,56,0,0,,,,,,,,,0,,,87,0
66480,note_on,0,0,0,,,,,,,,,0,,,91,74
66480,set_tempo,4,1,0,,,,,,472069,,,,,,,
66536,note_on,56,0,0,,,,,,,,,0,,,91,0
66540,set_tempo,4,1,0,,,,,,473560,,,,,,,
66540,note_on,0,0,0,,,,,,,,,0,,,89,74
66596,note_on,56,0,0,,,,,,,,,0,,,89,0
66600,set_tempo,4,1,0,,,,,,475436,,,,,,,
66600,note_on,0,0,0,,,,,,,,,0,,,87,74
66656,note_on,56,0,0,,,,,,,,,0,,,87,0
66660,set_tempo,4,1,0,,,,,,476948,,,,,,,
66660,note_on,0,0,0,,,,,,,,,0,,,84,74
66716,note_on,56,0,0,,,,,,,,,0,,,84,0
66720,note_on,0,0,0,,,,,,,,,0,,,85,74
66720,set_tempo,4,1,0,,,,,,478469,,,,,,,
66776,note_on,56,0,0,,,,,,,,,0,,,85,0
66780,note_on,0,0,0,,,,,,,,,0,,,89,74
66780,set_tempo,4,1,0,,,,,,480384,,,,,,,
66836,note_on,56,0,0,,,,,,,,,0,,,89,0
66840,set_tempo,4,1,0,,,,,,481928,,,,,,,
66840,note_on,0,0,0,,,,,,,,,0,,,87,74
66896,note_on,56,0,0,,,,,,,,,0,,,87,0
66900,note_on,0,0,0,,,,,,,,,0,,,85,74
66900,set_tempo,4,1,0,,,,,,483481,,,,,,,
66956,note_on,56,0,0,,,,,,,,,0,,,85,0
66960,set_tempo,4,1,0,,,,,,485437,,,,,,,
66960,note_on,0,0,0,,,,,,,,,0,,,81,74
67016,note_on,56,0,0,,,,,,,,,0,,,81,0
67020,note_on,0,0,0,,,,,,,,,0,,,82,74
67020,set_tempo,4,1,0,,,,,,487013,,,,,,,
67076,note_on,56,0,0,,,,,,,,,0,,,82,0
67080,note_on,0,0,0,,,,,,,,,0,,,85,74
67080,set_tempo,4,1,0,,,,,,488998,,,,,,,
67136,note_on,56,0,0,,,,,,,,,0,,,85,0
67140,set_tempo,4,1,0,,,,,,490597,,,,,,,
67140,note_on,0,0,0,,,,,,,,,0,,,84,74
67196,note_on,56,0,0,,,,,,,,,0,,,84,0
67200,note_on,0,0,0,,,,,,,,,0,,,82,74
67200,set_tempo,4,1,0,,,,,,492611,,,,,,,
67256,note_on,56,0,0,,,,,,,,,0,,,82,0
67260,set_tempo,4,1,0,,,,,,494234,,,,,,,
67260,note_on,0,0,0,,,,,,,,,0,,,78,74
67316,note_on,56,0,0,,,,,,,,,0,,,78,0
67320,set_tempo,4,1,0,,,,,,496278,,,,,,,
67320,note_on,0,0,0,,,,,,,,,0,,,79,73
67376,note_on,56,0,0,,,,,,,,,0,,,79,0
67380,set_tempo,4,1,0,,,,,,497925,,,,,,,
67380,note_on,0,0,0,,,,,,,,,0,,,82,73
67436,note_on,56,0,0,,,,,,,,,0,,,82,0
67440,set_tempo,4,1,0,,,,,,500000,,,,,,,
67440,note_on,0,0,0,,,,,,,,,0,,,80,73
67496,note_on,56,0,0,,,,,,,,,0,,,80,0
67500,note_on,4,0,0,,,,,,,,,0,,,79,73
67556,note_on,56,0,0,,,,,,,,,0,,,79,0
67560,note_on,4,0,0,,,,,,,,,0,,,74,73
67616,note_on,56,0,0,,,,,,,,,0,,,74,0
67620,note_on,4,0,0,,,,,,,,,0,,,75,73
67676,note_on,56,0,0,,,,,,,,,0,,,75,0
67680,note_on,4,0,0,,,,,,,,,0,,,79,80
67736,note_on,56,0,0,,,,,,,,,0,,,79,0
67740,note_on,4,0,0,,,,,,,,,0,,,77,73
67796,note_on,56,0,0,,,,,,,,,0,,,77,0
67800,note_on,4,0,0,,,,,,,,,0,,,75,73
67856,note_on,56,0,0,,,,,,,,,0,,,75,0
67860,note_on,4,0,0,,,,,,,,,0,,,69,73
67916,note_on,56,0,0,,,,,,,,,0,,,69,0
67920,note_on,4,0,0,,,,,,,,,0,,,70,73
67976,note_on,56,0,0,,,,,,,,,0,,,70,0
67980,set_tempo,4,1,0,,,,,,12000,,,,,,,
68159,set_tempo,179,1,0,,,,,,120000,,,,,,,
68160,set_tempo,1,1,0,,,,,,500000,,,,,,,
68160,note_on,0,0,0,,,,,,,,,0,,,77,72
68216,note_on,56,0,0,,,,,,,,,0,,,77,0
68220,note_on,0,0,0,,,,,,,,,0,,,75,72
68220,set_tempo,4,1,0,,,,,,501253,,,,,,,
68276,note_on,56,0,0,,,,,,,,,0,,,75,0
68280,note_on,0,0,0,,,,,,,,,0,,,73,72
68280,set_tempo,4,1,0,,,,,,503778,,,,,,,
68336,note_on,56,0,0,,,,,,,,,0,,,73,0
68340,set_tempo,4,1,0,,,,,,507185,,,,,,,
68340,note_on,0,0,0,,,,,,,,,0,,,69,72
68396,note_on,56,0,0,,,,,,,,,0,,,69,0
68400,note_on,0,0,0,,,,,,,,,0,,,70,71
68400,set_tempo,4,1,0,,,,,,511073,,,,,,,
68456,note_on,56,0,0,,,,,,,,,0,,,70,0
68460,set_tempo,4,1,0,,,,,,515464,,,,,,,
68460,note_on,0,0,0,,,,,,,,,0,,,73,69
68516,note_on,56,0,0,,,,,,,,,0,,,73,0
68520,note_on,0,0,0,,,,,,,,,0,,,72,67
68520,set_tempo,4,1,0,,,,,,520833,,,,,,,
68576,note_on,56,0,0,,,,,,,,,0,,,72,0
68580,note_on,0,0,0,,,,,,,,,0,,,70,66
68580,set_tempo,4,1,0,,,,,,526316,,,,,,,
68636,note_on,56,0,0,,,,,,,,,0,,,70,0
68640,note_on,0,0,0,,,,,,,,,0,,,66,64
68640,set_tempo,4,1,0,,,,,,532860,,,,,,,
68696,note_on,56,0,0,,,,,,,,,0,,,66,0
68700,note_on,0,0,0,,,,,,,,,0,,,67,62
68700,set_tempo,4,1,0,,,,,,540054,,,,,,,
68756,note_on,56,0,0,,,,,,,,,0,,,67,0
68760,set_tempo,4,1,0,,,,,,547445,,,,,,,
68760,note_on,0,0,0,,,,,,,,,0,,,70,61
68816,note_on,56,0,0,,,,,,,,,0,,,70,0
68820,set_tempo,4,1,0,,,,,,555556,,,,,,,
68820,note_on,0,0,0,,,,,,,,,0,,,69,59
68876,note_on,56,0,0,,,,,,,,,0,,,69,0
68880,note_on,0,0,0,,,,,,,,,0,,,67,57
68880,set_tempo,4,1,0,,,,,,564972,,,,,,,
68936,note_on,56,0,0,,,,,,,,,0,,,67,0
68940,note_on,0,0,0,,,,,,,,,0,,,62,56
68940,set_tempo,4,1,0,,,,,,574163,,,,,,,
68996,note_on,56,0,0,,,,,,,,,0,,,62,0
69000,note_on,0,0,0,,,,,,,,,0,,,63,54
69000,set_tempo,4,1,0,,,,,,584795,,,,,,,
69056,note_on,56,0,0,,,,,,,,,0,,,63,0
69060,note_on,0,0,0,,,,,,,,,0,,,67,52
69060,set_tempo,4,1,0,,,,,,595829,,,,,,,
69116,note_on,56,0,0,,,,,,,,,0,,,67,0
69120,note_on,0,0,0,,,,,,,,,0,,,65,50
69120,set_tempo,4,1,0,,,,,,607903,,,,,,,
69176,note_on,56,0,0,,,,,,,,,0,,,65,0
69180,note_on,0,0,0,,,,,,,,,0,,,64,50
69180,set_tempo,4,1,0,,,,,,621118,,,,,,,
69236,note_on,56,0,0,,,,,,,,,0,,,64,0
69240,set_tempo,4,1,0,,,,,,634921,,,,,,,
69240,note_on,0,0,0,,,,,,,,,0,,,62,50
69242,control_change,2,0,0,,,,,,,64,127,0,,,,
69296,note_on,54,0,0,,,,,,,,,0,,,62,0
69300,set_tempo,4,1,0,,,,,,650054,,,,,,,
69300,note_on,0,0,0,,,,,,,,,0,,,63,50
69356,note_on,56,0,0,,,,,,,,,0,,,63,0
69360,note_on,4,0,0,,,,,,,,,0,,,67,50
69416,note_on,56,0,0,,,,,,,,,0,,,67,0
69420,note_on,4,0,0,,,,,,,,,0,,,65,50
69476,note_on,56,0,0,,,,,,,,,0,,,65,0
69480,set_tempo,4,1,0,,,,,,666667,,,,,,,
69480,note_on,0,0,0,,,,,,,,,0,,,64,50
69536,note_on,56,0,0,,,,,,,,,0,,,64,0
69540,set_tempo,4,1,0,,,,,,686499,,,,,,,
69540,note_on,0,0,0,,,,,,,,,0,,,62,50
69596,note_on,56,0,0,,,,,,,,,0,,,62,0
69600,set_tempo,4,1,0,,,,,,727273,,,,,,,
69600,note_on,0,0,0,,,,,,,,,0,,,63,50
69656,note_on,56,0,0,,,,,,,,,0,,,63,0
69660,set_tempo,4,1,0,,,,,,788436,,,,,,,
69660,note_on,0,0,0,,,,,,,,,0,,,67,50
69716,note_on,56,0,0,,,,,,,,,0,,,67,0
69720,set_tempo,4,1,0,,,,,,875912,,,,,,,
69720,note_on,0,0,0,,,,,,,,,0,,,65,50
69721,control_change,1,0,0,,,,,,,64,0,0,,,,
69722,control_change,1,0,0,,,,,,,64,127,0,,,,
69776,note_on,54,0,0,,,,,,,,,0,,,65,0
69780,note_on,4,0,0,,,,,,,,,0,,,64,50
69836,note_on,56,0,0,,,,,,,,,0,,,64,0
69840,note_on,4,0,0,,,,,,,,,0,,,62,50
69899,note_on,59,0,0,,,,,,,,,0,,,62,0
69900,note_on,0,0,0,,,,,,,,,0,,,63,50
69900,set_tempo,1,1,0,,,,,,882353,,,,,,,
69959,note_on,59,0,0,,,,,,,,,0,,,63,0
69960,set_tempo,1,1,0,,,,,,824176,,,,,,,
69960,note_on,0,0,0,,,,,,,,,0,,,67,50
70019,note_on,59,0,0,,,,,,,,,0,,,67,0
70020,note_on,0,0,0,,,,,,,,,0,,,70,50
70020,set_tempo,1,1,0,,,,,,796813,,,,,,,
70079,note_on,59,0,0,,,,,,,,,0,,,70,0
70080,note_on,0,0,0,,,,,,,,,0,,,73,50
70080,set_tempo,1,1,0,,,,,,775194,,,,,,,
70139,note_on,59,0,0,,,,,,,,,0,,,73,0
70140,note_on,0,0,0,,,,,,,,,0,,,75,50
70140,set_tempo,1,1,0,,,,,,757576,,,,,,,
70199,note_on,59,0,0,,,,,,,,,0,,,75,0
70200,note_on,0,0,0,,,,,,,,,0,,,79,50
70200,set_tempo,1,1,0,,,,,,742574,,,,,,,
70259,note_on,59,0,0,,,,,,,,,0,,,79,0
70260,note_on,0,0,0,,,,,,,,,0,,,82,50
70260,set_tempo,1,1,0,,,,,,729040,,,,,,,
70319,note_on,59,0,0,,,,,,,,,0,,,82,0
70320,note_on,0,0,0,,,,,,,,,0,,,85,50
70320,set_tempo,1,1,0,,,,,,716846,,,,,,,
70379,note_on,59,0,0,,,,,,,,,0,,,85,0
70380,note_on,0,0,0,,,,,,,,,0,,,89,50
70380,set_tempo,1,1,0,,,,,,705882,,,,,,,
70607,note_on,227,0,0,,,,,,,,,0,,,89,0
70620,note_on,0,0,0,,,,,,,,,0,,,63,40
70620,set_tempo,13,1,0,,,,,,2823529,,,,,,,
70632,note_on,12,0,0,,,,,,,,,0,,,70,40
70644,note_on,12,0,0,,,,,,,,,0,,,73,40
70657,note_on,13,0,0,,,,,,,,,0,,,79,40
70738,note_on,81,0,0,,,,,,,,,0,,,70,0
70738,note_on,0,0,0,,,,,,,,,0,,,79,0
70738,note_on,0,0,0,,,,,,,,,0,,,73,0
70739,note_on,0,0,0,,,,,,,,,0,,,63,0
70739,set_tempo,1,1,0,,,,,,705882,,,,,,,
70740,note_on,0,0,0,,,,,,,,,0,,,87,50
70740,set_tempo,1,1,0,,,,,,1500000,,,,,,,
70859,note_on,119,0,0,,,,,,,,,0,,,87,0
70860,note_on,0,0,0,,,,,,,,,0,,,81,50
70860,set_tempo,1,1,0,,,,,,1650000,,,,,,,
70979,set_tempo,119,1,0,,,,,,1500000,,,,,,,
70979,note_on,0,0,0,,,,,,,,,0,,,81,0
70980,set_tempo,1,1,0,,,,,,12000000,,,,,,,
70980,note_on,0,0,0,,,,,,,,,0,,,82,50
71036,note_on,56,0,0,,,,,,,,,0,,,82,0
71039,set_tempo,3,1,0,,,,,,1500000,,,,,,,
71040,set_tempo,1,1,0,,,,,,923077,,,,,,,
71040,note_on,0,0,0,,,,,,,,,0,,,62,39
71041,control_change,1,0,0,,,,,,,64,0,0,,,,
71042,control_change,1,0,0,,,,,,,64,127,0,,,,
71159,note_on,117,0,0,,,,,,,,,0,,,62,0
71160,note_on,1,0,0,,,,,,,,,0,,,63,39
71279,note_on,119,0,0,,,,,,,,,0,,,63,0
71280,note_on,1,0,0,,,,,,,,,0,,,67,39
71399,note_on,119,0,0,,,,,,,,,0,,,67,0
71400,note_on,1,0,0,,,,,,,,,0,,,71,39
71459,note_on,59,0,0,,,,,,,,,0,,,71,0
71460,note_on,1,0,0,,,,,,,,,0,,,73,39
71519,note_on,59,0,0,,,,,,,,,0,,,73,0
71520,note_on,1,0,0,,,,,,,,,0,,,75,39
71579,note_on,59,0,0,,,,,,,,,0,,,75,0
71580,note_on,1,0,0,,,,,,,,,0,,,79,39
71699,note_on,119,0,0,,,,,,,,,0,,,79,0
71700,note_on,1,0,0,,,,,,,,,0,,,83,39
71759,note_on,59,0,0,,,,,,,,,0,,,83,0
71760,note_on,1,0,0,,,,,,,,,0,,,85,39
71819,note_on,59,0,0,,,,,,,,,0,,,85,0
71820,set_tempo,1,1,0,,,,,,1200000,,,,,,,
71820,note_on,0,0,0,,,,,,,,,0,,,89,39
72047,note_on,227,0,0,,,,,,,,,0,,,89,0
72059,set_tempo,12,1,0,,,,,,923077,,,,,,,
72060,note_on,0,0,0,,,,,,,,,0,,,63,32
72060,set_tempo,1,1,0,,,,,,5333333,,,,,,,
72067,note_on,7,0,0,,,,,,,,,0,,,71,32
72075,note_on,8,0,0,,,,,,,,,0,,,73,32
72083,note_on,8,0,0,,,,,,,,,0,,,79,32
72178,note_on,95,0,0,,,,,,,,,0,,,71,0
72178,note_on,0,0,0,,,,,,,,,0,,,79,0
72178,note_on,0,0,0,,,,,,,,,0,,,73,0
72179,note_on,0,0,0,,,,,,,,,0,,,63,0
72179,set_tempo,1,1,0,,,,,,1333333,,,,,,,
72180,note_on,0,0,0,,,,,,,,,0,,,87,39
72180,set_tempo,1,1,0,,,,,,1714286,,,,,,,
72299,note_on,119,0,0,,,,,,,,,0,,,87,0
72300,note_on,0,0,0,,,,,,,,,0,,,82,39
72300,set_tempo,1,1,0,,,,,,3000000,,,,,,,
72419,note_on,119,0,0,,,,,,,,,0,,,82,0
72420,note_on,0,0,0,,,,,,,,,0,,,83,39
72420,set_tempo,1,1,0,,,,,,1222784,,,,,,,
72533,note_on,113,0,0,,,,,,,,,0,,,83,0
72539,set_tempo,6,1,0,,,,,,3000000,,,,,,,
72540,set_tempo,1,1,0,,,,,,3333333,,,,,,,
72541,control_change,1,0,0,,,,,,,64,0,0,,,,
73019,set_tempo,478,1,0,,,,,,1333333,,,,,,,
73020,note_on,0,0,0,,,,,,,,,0,,,75,49
73020,set_tempo,1,1,0,,,,,,2000000,,,,,,,
73022,control_change,2,0,0,,,,,,,64,127,0,,,,
73076,note_on,54,0,0,,,,,,,,,0,,,75,0
73080,note_on,0,0,0,,,,,,,,,0,,,75,49
73080,set_tempo,4,1,0,,,,,,1775148,,,,,,,
73136,note_on,56,0,0,,,,,,,,,0,,,75,0
73140,set_tempo,4,1,0,,,,,,1562500,,,,,,,
73140,note_on,0,0,0,,,,,,,,,0,,,77,49
73196,note_on,56,0,0,,,,,,,,,0,,,77,0
73200,note_on,0,0,0,,,,,,,,,0,,,75,49
73200,set_tempo,4,1,0,,,,,,1379310,,,,,,,
73256,note_on,56,0,0,,,,,,,,,0,,,75,0
73260,note_on,0,0,0,,,,,,,,,0,,,74,49
73260,set_tempo,4,1,0,,,,,,1229508,,,,,,,
73316,note_on,56,0,0,,,,,,,,,0,,,74,0
73320,set_tempo,4,1,0,,,,,,1104972,,,,,,,
73320,note_on,0,0,0,,,,,,,,,0,,,75,49
73376,note_on,56,0,0,,,,,,,,,0,,,75,0
73380,note_on,0,0,0,,,,,,,,,0,,,84,49
73380,set_tempo,4,1,0,,,,,,1000000,,,,,,,
73607,note_on,227,0,0,,,,,,,,,0,,,84,0
73620,note_on,13,0,0,,,,,,,,,0,,,79,49
73904,note_on,284,0,0,,,,,,,,,0,,,79,0
73920,note_on,0,0,0,,,,,,,,,0,,,82,48
73920,note_on,9793,0,1,,,,,,,,,0,,,32,44
73920,set_tempo,16,1,0,,,,,,571429,,,,,,,
73921,control_change,1,0,0,,,,,,,64,0,0,,,,
73922,control_change,2,0,1,,,,,,,64,127,0,,,,
74147,note_on,225,0,1,,,,,,,,,0,,,32,0
74160,note_on,0,0,1,,,,,,,,,0,,,51,44
74160,note_on,13,0,1,,,,,,,,,0,,,44,44
74160,note_on,239,0,0,,,,,,,,,0,,,72,44
74399,note_on,239,0,0,,,,,,,,,0,,,72,0
74399,note_on,239,0,1,,,,,,,,,0,,,44,0
74399,note_on,0,0,1,,,,,,,,,0,,,51,0
74400,note_on,1,0,1,,,,,,,,,0,,,48,44
74400,note_on,0,0,1,,,,,,,,,0,,,56,44
74400,note_on,1,0,0,,,,,,,,,0,,,63,44
74639,note_on,239,0,0,,,,,,,,,0,,,82,0
74639,note_on,239,0,1,,,,,,,,,0,,,48,0
74639,note_on,0,0,1,,,,,,,,,0,,,56,0
74639,note_on,0,0,0,,,,,,,,,0,,,63,0
74640,note_on,0,0,0,,,,,,,,,0,,,80,48
74640,note_on,0,0,1,,,,,,,,,0,,,60,44
74640,note_on,1,0,1,,,,,,,,,0,,,51,44
74640,note_on,1,0,0,,,,,,,,,0,,,68,44
74867,note_on,0,0,1,,,,,,,,,0,,,60,0
74867,note_on,227,0,1,,,,,,,,,0,,,51,0
74879,note_on,239,0,0,,,,,,,,,0,,,68,0
74879,note_on,0,0,0,,,,,,,,,0,,,80,0
74880,note_on,1,0,0,,,,,,,,,0,,,72,48
75119,note_on,239,0,0,,,,,,,,,0,,,72,0
75120,note_on,1,0,0,,,,,,,,,0,,,73,48
75347,note_on,227,0,0,,,,,,,,,0,,,73,0
75360,note_on,493,0,1,,,,,,,,,0,,,32,44
75360,note_on,13,0,0,,,,,,,,,0,,,77,48
75361,control_change,1,0,1,,,,,,,64,0,0,,,,
75362,control_change,1,0,1,,,,,,,64,127,0,,,,
75587,note_on,225,0,1,,,,,,,,,0,,,32,0
75600,note_on,13,0,1,,,,,,,,,0,,,44,44
75600,note_on,0,0,1,,,,,,,,,0,,,51,44
75600,note_on,240,0,0,,,,,,,,,0,,,60,44
75839,note_on,0,0,1,,,,,,,,,0,,,51,0
75839,note_on,239,0,0,,,,,,,,,0,,,60,0
75839,note_on,239,0,1,,,,,,,,,0,,,44,0
75840,note_on,1,0,0,,,,,,,,,0,,,63,44
75840,note_on,1,0,1,,,,,,,,,0,,,48,44
75840,note_on,0,0,1,,,,,,,,,0,,,56,44
76079,note_on,239,0,0,,,,,,,,,0,,,77,0
76079,note_on,0,0,0,,,,,,,,,0,,,63,0
76079,note_on,0,0,1,,,,,,,,,0,,,56,0
76079,note_on,239,0,1,,,,,,,,,0,,,48,0
76080,note_on,0,0,1,,,,,,,,,0,,,60,44
76080,note_on,0,0,0,,,,,,,,,0,,,75,48
76080,note_on,1,0,0,,,,,,,,,0,,,68,44
76080,note_on,1,0,1,,,,,,,,,0,,,51,44
76307,note_on,227,0,1,,,,,,,,,0,,,51,0
76307,note_on,0,0,1,,,,,,,,,0,,,60,0
76319,note_on,239,0,0,,,,,,,,,0,,,68,0
76319,note_on,0,0,0,,,,,,,,,0,,,75,0
76320,note_on,1,0,0,,,,,,,,,0,,,73,48
76559,note_on,239,0,0,,,,,,,,,0,,,73,0
76560,note_on,1,0,0,,,,,,,,,0,,,72,48
76787,note_on,227,0,0,,,,,,,,,0,,,72,0
76800,note_on,493,0,1,,,,,,,,,0,,,32,44
76800,note_on,13,0,0,,,,,,,,,0,,,72,48
76801,control_change,1,0,1,,,,,,,64,0,0,,,,
76802,control_change,1,0,1,,,,,,,64,127,0,,,,
77027,note_on,225,0,1,,,,,,,,,0,,,32,0
77040,note_on,0,0,0,,,,,,,,,0,,,68,44
77040,note_on,240,0,0,,,,,,,,,0,,,65,44
77040,note_on,13,0,1,,,,,,,,,0,,,50,44
77040,note_on,0,0,1,,,,,,,,,0,,,58,44
77279,note_on,0,0,1,,,,,,,,,0,,,58,0
77279,note_on,239,0,1,,,,,,,,,0,,,50,0
77279,note_on,0,0,0,,,,,,,,,0,,,68,0
77279,note_on,239,0,0,,,,,,,,,0,,,65,0
77280,note_on,1,0,1,,,,,,,,,0,,,53,44
77280,note_on,0,0,1,,,,,,,,,0,,,62,44
77280,note_on,1,0,0,,,,,,,,,0,,,58,44
77483,note_on,203,0,0,,,,,,,,,0,,,72,0
77519,note_on,36,0,0,,,,,,,,,0,,,58,0
77519,note_on,239,0,1,,,,,,,,,0,,,53,0
77519,note_on,0,0,1,,,,,,,,,0,,,62,0
77520,note_on,0,0,1,,,,,,,,,0,,,65,44
77520,note_on,1,0,0,,,,,,,,,0,,,70,48
77520,note_on,1,0,1,,,,,,,,,0,,,56,44
77520,note_on,0,0,0,,,,,,,,,0,,,62,44
77747,note_on,0,0,0,,,,,,,,,0,,,62,0
77747,note_on,227,0,1,,,,,,,,,0,,,56,0
77747,note_on,227,0,0,,,,,,,,,0,,,70,0
77747,note_on,0,0,1,,,,,,,,,0,,,65,0
77760,note_on,13,0,0,,,,,,,,,0,,,69,48
77987,note_on,227,0,0,,,,,,,,,0,,,69,0
78000,note_on,13,0,0,,,,,,,,,0,,,70,48
78227,note_on,227,0,0,,,,,,,,,0,,,70,0
78240,note_on,493,0,1,,,,,,,,,0,,,32,44
78240,note_on,13,0,0,,,,,,,,,0,,,69,44
78241,control_change,1,0,1,,,,,,,64,0,0,,,,
78242,control_change,1,0,1,,,,,,,64,127,0,,,,
78295,note_on,55,0,0,,,,,,,,,0,,,69,0
78299,note_on,4,0,0,,,,,,,,,0,,,70,44
78354,note_on,55,0,0,,,,,,,,,0,,,70,0
78359,note_on,5,0,0,,,,,,,,,0,,,72,44
78414,note_on,55,0,0,,,,,,,,,0,,,72,0
78420,note_on,6,0,0,,,,,,,,,0,,,70,44
78467,note_on,225,0,1,,,,,,,,,0,,,32,0
78475,note_on,55,0,0,,,,,,,,,0,,,70,0
78479,note_on,4,0,0,,,,,,,,,0,,,72,44
78480,note_on,13,0,1,,,,,,,,,0,,,50,44
78480,note_on,0,0,0,,,,,,,,,0,,,68,44
78480,note_on,0,0,1,,,,,,,,,0,,,58,44
78480,note_on,1,0,0,,,,,,,,,0,,,65,44
78534,note_on,54,0,0,,,,,,,,,0,,,72,0
78539,note_on,5,0,0,,,,,,,,,0,,,70,44
78594,note_on,55,0,0,,,,,,,,,0,,,70,0
78600,note_on,6,0,0,,,,,,,,,0,,,72,44
78655,note_on,55,0,0,,,,,,,,,0,,,72,0
78659,note_on,4,0,0,,,,,,,,,0,,,70,44
78714,note_on,55,0,0,,,,,,,,,0,,,70,0
78719,note_on,0,0,0,,,,,,,,,0,,,68,0
78719,note_on,239,0,1,,,,,,,,,0,,,50,0
78719,note_on,0,0,1,,,,,,,,,0,,,58,0
78719,note_on,5,0,0,,,,,,,,,0,,,72,44
78719,note_on,0,0,0,,,,,,,,,0,,,65,0
78720,note_on,1,0,1,,,,,,,,,0,,,53,44
78720,note_on,0,0,1,,,,,,,,,0,,,62,44
78720,note_on,1,0,0,,,,,,,,,0,,,58,44
78774,note_on,54,0,0,,,,,,,,,0,,,72,0
78780,note_on,6,0,0,,,,,,,,,0,,,70,44
78835,note_on,55,0,0,,,,,,,,,0,,,70,0
78839,note_on,4,0,0,,,,,,,,,0,,,72,44
78951,note_on,112,0,0,,,,,,,,,0,,,72,0
78959,note_on,8,0,0,,,,,,,,,0,,,58,0
78959,note_on,239,0,1,,,,,,,,,0,,,53,0
78959,note_on,0,0,1,,,,,,,,,0,,,62,0
78960,note_on,0,0,0,,,,,,,,,0,,,62,44
78960,note_on,1,0,0,,,,,,,,,0,,,69,44
78960,note_on,0,0,1,,,,,,,,,0,,,65,44
78960,note_on,1,0,1,,,,,,,,,0,,,56,44
79016,note_on,56,0,0,,,,,,,,,0,,,69,0
79020,note_on,4,0,0,,,,,,,,,0,,,70,44
79076,note_on,56,0,0,,,,,,,,,0,,,70,0
79080,note_on,4,0,0,,,,,,,,,0,,,73,44
79136,note_on,56,0,0,,,,,,,,,0,,,73,0
79140,note_on,4,0,0,,,,,,,,,0,,,74,44
79187,note_on,0,0,1,,,,,,,,,0,,,65,0
79187,note_on,227,0,1,,,,,,,,,0,,,56,0
79187,note_on,47,0,0,,,,,,,,,0,,,62,0
79196,note_on,9,0,0,,,,,,,,,0,,,74,0
79200,note_on,4,0,0,,,,,,,,,0,,,76,44
79256,note_on,56,0,0,,,,,,,,,0,,,76,0
79260,note_on,4,0,0,,,,,,,,,0,,,77,44
79316,note_on,56,0,0,,,,,,,,,0,,,77,0
79320,note_on,4,0,0,,,,,,,,,0,,,79,44
79376,note_on,56,0,0,,,,,,,,,0,,,79,0
79380,note_on,4,0,0,,,,,,,,,0,,,80,44
79436,note_on,56,0,0,,,,,,,,,0,,,80,0
79440,note_on,4,0,0,,,,,,,,,0,,,81,44
79496,note_on,56,0,0,,,,,,,,,0,,,81,0
79500,note_on,4,0,0,,,,,,,,,0,,,82,44
79556,note_on,56,0,0,,,,,,,,,0,,,82,0
79560,note_on,4,0,0,,,,,,,,,0,,,85,44
79616,note_on,56,0,0,,,,,,,,,0,,,85,0
79620,note_on,4,0,0,,,,,,,,,0,,,86,44
79676,note_on,56,0,0,,,,,,,,,0,,,86,0
79680,note_on,493,0,1,,,,,,,,,0,,,32,44
79680,note_on,4,0,0,,,,,,,,,0,,,89,48
79681,control_change,1,0,1,,,,,,,64,0,0,,,,
79682,control_change,1,0,1,,,,,,,64,127,0,,,,
79907,note_on,225,0,1,,,,,,,,,0,,,32,0
79920,note_on,0,0,1,,,,,,,,,0,,,61,44
79920,note_on,240,0,0,,,,,,,,,0,,,79,42
79920,note_on,13,0,1,,,,,,,,,0,,,51,44
79920,note_on,0,0,0,,,,,,,,,0,,,82,42
80159,note_on,0,0,0,,,,,,,,,0,,,82,0
80159,note_on,0,0,1,,,,,,,,,0,,,61,0
80159,note_on,239,0,0,,,,,,,,,0,,,79,0
80159,note_on,239,0,1,,,,,,,,,0,,,51,0
80160,note_on,1,0,1,,,,,,,,,0,,,55,44
80160,note_on,1,0,0,,,,,,,,,0,,,75,42
80160,note_on,0,0,1,,,,,,,,,0,,,63,44
80399,note_on,239,0,1,,,,,,,,,0,,,55,0
80399,note_on,0,0,0,,,,,,,,,0,,,75,0
80399,note_on,239,0,0,,,,,,,,,0,,,89,0
80399,note_on,0,0,1,,,,,,,,,0,,,63,0
80400,note_on,0,0,0,,,,,,,,,0,,,73,42
80400,note_on,1,0,1,,,,,,,,,0,,,58,44
80400,note_on,1,0,0,,,,,,,,,0,,,87,48
80400,note_on,0,0,1,,,,,,,,,0,,,67,44
80627,note_on,227,0,1,,,,,,,,,0,,,58,0
80627,note_on,0,0,1,,,,,,,,,0,,,67,0
80639,note_on,0,0,0,,,,,,,,,0,,,73,0
80639,note_on,239,0,0,,,,,,,,,0,,,87,0
80640,note_on,1,0,0,,,,,,,,,0,,,85,48
80879,note_on,239,0,0,,,,,,,,,0,,,85,0
80880,note_on,1,0,0,,,,,,,,,0,,,82,48
81107,note_on,227,0,0,,,,,,,,,0,,,82,0
81120,note_on,13,0,0,,,,,,,,,0,,,77,48
81120,note_on,493,0,1,,,,,,,,,0,,,32,44
81121,control_change,1,0,1,,,,,,,64,0,0,,,,
81122,control_change,1,0,1,,,,,,,64,127,0,,,,
81359,note_on,237,0,1,,,,,,,,,0,,,32,0
81360,note_on,1,0,1,,,,,,,,,0,,,49,44
81360,note_on,240,0,0,,,,,,,,,0,,,67,42
81360,note_on,0,0,0,,,,,,,,,0,,,70,42
81360,note_on,0,0,1,,,,,,,,,0,,,51,44
81599,note_on,0,0,0,,,,,,,,,0,,,70,0
81599,note_on,239,0,0,,,,,,,,,0,,,67,0
81599,note_on,0,0,1,,,,,,,,,0,,,51,0
81599,note_on,239,0,1,,,,,,,,,0,,,49,0
81600,note_on,1,0,0,,,,,,,,,0,,,61,42
81600,note_on,0,0,0,,,,,,,,,0,,,63,42
81600,note_on,0,0,1,,,,,,,,,0,,,58,44
81600,note_on,1,0,1,,,,,,,,,0,,,55,44
81839,note_on,0,0,0,,,,,,,,,0,,,63,0
81839,note_on,239,0,0,,,,,,,,,0,,,77,0
81839,note_on,239,0,1,,,,,,,,,0,,,55,0
81839,note_on,0,0,1,,,,,,,,,0,,,58,0
81839,note_on,0,0,0,,,,,,,,,0,,,61,0
81840,note_on,0,0,1,,,,,,,,,0,,,61,44
81840,note_on,1,0,1,,,,,,,,,0,,,51,44
81840,note_on,1,0,0,,,,,,,,,0,,,75,48
81840,note_on,0,0,0,,,,,,,,,0,,,67,42
82067,note_on,227,0,1,,,,,,,,,0,,,51,0
82067,note_on,0,0,1,,,,,,,,,0,,,61,0
82079,note_on,239,0,0,,,,,,,,,0,,,75,0
82079,note_on,0,0,0,,,,,,,,,0,,,67,0
82080,note_on,1,0,0,,,,,,,,,0,,,73,48
82319,note_on,239,0,0,,,,,,,,,0,,,73,0
82320,note_on,1,0,0,,,,,,,,,0,,,70,48
82547,note_on,227,0,0,,,,,,,,,0,,,70,0
82560,note_on,493,0,1,,,,,,,,,0,,,32,44
82560,note_on,13,0,0,,,,,,,,,0,,,67,50
82561,control_change,1,0,1,,,,,,,64,0,0,,,,
82562,control_change,1,0,1,,,,,,,64,127,0,,,,
82787,note_on,225,0,1,,,,,,,,,0,,,32,0
82799,note_on,239,0,0,,,,,,,,,0,,,67,0
82800,note_on,13,0,1,,,,,,,,,0,,,48,44
82800,note_on,0,0,1,,,,,,,,,0,,,51,44
82800,note_on,0,0,1,,,,,,,,,0,,,56,44
82800,note_on,0,0,0,,,,,,,,,0,,,63,44
82800,note_on,0,0,0,,,,,,,,,0,,,68,44
82800,note_on,1,0,0,,,,,,,,,0,,,60,44
83039,note_on,0,0,0,,,,,,,,,0,,,63,0
83039,note_on,0,0,0,,,,,,,,,0,,,68,0
83039,note_on,0,0,1,,,,,,,,,0,,,51,0
83039,note_on,0,0,1,,,,,,,,,0,,,56,0
83039,note_on,239,0,1,,,,,,,,,0,,,48,0
83039,note_on,239,0,0,,,,,,,,,0,,,60,0
83040,note_on,1,0,1,,,,,,,,,0,,,51,44
83040,note_on,0,0,1,,,,,,,,,0,,,56,44
83040,note_on,0,0,1,,,,,,,,,0,,,60,44
83040,note_on,0,0,0,,,,,,,,,0,,,68,44
83040,note_on,0,0,0,,,,,,,,,0,,,72,44
83040,note_on,1,0,0,,,,,,,,,0,,,63,44
83279,note_on,0,0,1,,,,,,,,,0,,,60,0
83279,note_on,239,0,0,,,,,,,,,0,,,63,0
83279,note_on,0,0,0,,,,,,,,,0,,,68,0
83279,note_on,0,0,0,,,,,,,,,0,,,72,0
83279,note_on,239,0,1,,,,,,,,,0,,,51,0
83279,note_on,0,0,1,,,,,,,,,0,,,56,0
83280,note_on,1,0,0,,,,,,,,,0,,,68,44
83280,note_on,0,0,0,,,,,,,,,0,,,75,44
83280,note_on,0,0,0,,,,,,,,,0,,,72,44
83280,note_on,0,0,1,,,,,,,,,0,,,60,44
83280,note_on,1,0,1,,,,,,,,,0,,,56,44
83280,note_on,0,0,1,,,,,,,,,0,,,63,44
83507,note_on,0,0,1,,,,,,,,,0,,,60,0
83507,note_on,227,0,1,,,,,,,,,0,,,56,0
83507,note_on,0,0,1,,,,,,,,,0,,,63,0
83519,note_on,239,0,0,,,,,,,,,0,,,68,0
83519,note_on,0,0,0,,,,,,,,,0,,,72,0
83519,note_on,0,0,0,,,,,,,,,0,,,75,0
83520,note_on,0,0,0,,,,,,,,,0,,,79,45
83520,note_on,1,0,0,,,,,,,,,0,,,72,45
83520,note_on,0,0,0,,,,,,,,,0,,,75,45
83711,note_on,0,0,0,,,,,,,,,0,,,75,0
83711,note_on,0,0,0,,,,,,,,,0,,,79,0
83711,note_on,191,0,0,,,,,,,,,0,,,72,0
83712,note_on,0,0,0,,,,,,,,,0,,,80,45
83712,note_on,1,0,0,,,,,,,,,0,,,72,45
83712,note_on,0,0,0,,,,,,,,,0,,,75,45
83760,set_tempo,48,1,0,,,,,,750000,,,,,,,
83807,note_on,0,0,0,,,,,,,,,0,,,80,0
83807,note_on,0,0,0,,,,,,,,,0,,,75,0
83807,note_on,47,0,0,,,,,,,,,0,,,72,0
83808,note_on,0,0,0,,,,,,,,,0,,,84,46
83808,note_on,0,0,0,,,,,,,,,0,,,80,46
83808,note_on,0,0,0,,,,,,,,,0,,,75,46
83808,set_tempo,1,1,0,,,,,,800000,,,,,,,
83903,note_on,0,0,0,,,,,,,,,0,,,84,0
83903,note_on,0,0,0,,,,,,,,,0,,,80,0
83903,note_on,95,0,0,,,,,,,,,0,,,75,0
83904,note_on,0,0,0,,,,,,,,,0,,,87,46
83904,note_on,1,0,0,,,,,,,,,0,,,84,46
83999,note_on,0,0,0,,,,,,,,,0,,,87,0
83999,note_on,95,0,0,,,,,,,,,0,,,84,0
84000,set_tempo,1,1,0,,,,,,923077,,,,,,,
84000,note_on,0,0,0,,,,,,,,,0,,,96,46
84000,note_on,493,0,1,,,,,,,,,0,,,32,46
84000,note_on,0,0,0,,,,,,,,,0,,,87,46
84001,control_change,1,0,1,,,,,,,64,0,0,,,,
84002,control_change,1,0,1,,,,,,,64,127,0,,,,
84113,note_on,113,0,0,,,,,,,,,0,,,87,0
84113,note_on,0,0,0,,,,,,,,,0,,,96,0
84120,note_on,0,0,0,,,,,,,,,0,,,87,47
84120,note_on,0,0,0,,,,,,,,,0,,,92,47
84120,note_on,7,0,0,,,,,,,,,0,,,84,47
84227,note_on,225,0,1,,,,,,,,,0,,,32,0
84240,set_tempo,120,1,0,,,,,,631579,,,,,,,
84240,note_on,13,0,1,,,,,,,,,0,,,48,47
84240,note_on,0,0,1,,,,,,,,,0,,,51,47
84240,note_on,0,0,1,,,,,,,,,0,,,56,47
84479,note_on,239,0,1,,,,,,,,,0,,,48,0
84479,note_on,0,0,1,,,,,,,,,0,,,51,0
84479,note_on,0,0,1,,,,,,,,,0,,,56,0
84480,note_on,0,0,1,,,,,,,,,0,,,60,47
84480,note_on,1,0,1,,,,,,,,,0,,,51,47
84480,note_on,0,0,1,,,,,,,,,0,,,56,47
84575,note_on,335,0,0,,,,,,,,,0,,,84,0
84575,note_on,0,0,0,,,,,,,,,0,,,87,0
84575,note_on,0,0,0,,,,,,,,,0,,,92,0
84719,note_on,239,0,1,,,,,,,,,0,,,51,0
84719,note_on,0,0,1,,,,,,,,,0,,,56,0
84719,note_on,0,0,1,,,,,,,,,0,,,60,0
84720,note_on,0,0,1,,,,,,,,,0,,,63,47
84720,note_on,1,0,1,,,,,,,,,0,,,56,47
84720,note_on,0,0,1,,,,,,,,,0,,,60,47
84947,note_on,227,0,1,,,,,,,,,0,,,56,0
84947,note_on,0,0,1,,,,,,,,,0,,,60,0
84947,note_on,0,0,1,,,,,,,,,0,,,63,0
85020,note_on,0,0,0,,,,,,,,,0,,,75,47
85020,set_tempo,445,1,0,,,,,,1333333,,,,,,,
85076,note_on,56,0,0,,,,,,,,,0,,,75,0
85080,note_on,4,0,0,,,,,,,,,0,,,75,47
85136,note_on,56,0,0,,,,,,,,,0,,,75,0
85140,note_on,4,0,0,,,,,,,,,0,,,77,47
85196,note_on,56,0,0,,,,,,,,,0,,,77,0
85200,note_on,4,0,0,,,,,,,,,0,,,75,47
85237,note_on,37,0,0,,,,,,,,,0,,,75,0
85240,note_on,3,0,0,,,,,,,,,0,,,74,47
85277,note_on,37,0,0,,,,,,,,,0,,,74,0
85280,note_on,3,0,0,,,,,,,,,0,,,75,47
85317,note_on,37,0,0,,,,,,,,,0,,,75,0
85320,set_tempo,3,1,0,,,,,,5454545,,,,,,,
85320,note_on,0,0,0,,,,,,,,,0,,,84,47
85376,note_on,56,0,0,,,,,,,,,0,,,84,0
85380,note_on,4,0,0,,,,,,,,,0,,,79,47
85436,note_on,56,0,0,,,,,,,,,0,,,79,0
85440,note_on,493,0,1,,,,,,,,,0,,,32,44
85440,set_tempo,4,1,0,,,,,,571429,,,,,,,
85440,note_on,0,0,0,,,,,,,,,0,,,82,72
85441,control_change,1,0,1,,,,,,,64,0,0,,,,
85442,control_change,1,0,1,,,,,,,64,127,0,,,,
85667,note_on,225,0,1,,,,,,,,,0,,,32,0
85680,note_on,240,0,0,,,,,,,,,0,,,72,44
85680,note_on,0,0,1,,,,,,,,,0,,,51,44
85680,note_on,13,0,1,,,,,,,,,0,,,44,44
85919,note_on,239,0,1,,,,,,,,,0,,,44,0
85919,note_on,239,0,0,,,,,,,,,0,,,72,0
85919,note_on,0,0,1,,,,,,,,,0,,,51,0
85920,note_on,1,0,1,,,,,,,,,0,,,48,44
85920,note_on,0,0,1,,,,,,,,,0,,,56,44
85920,note_on,1,0,0,,,,,,,,,0,,,63,44
86159,note_on,0,0,0,,,,,,,,,0,,,63,0
86159,note_on,0,0,1,,,,,,,,,0,,,56,0
86159,note_on,239,0,1,,,,,,,,,0,,,48,0
86159,note_on,239,0,0,,,,,,,,,0,,,82,0
86160,note_on,0,0,0,,,,,,,,,0,,,80,48
86160,note_on,0,0,1,,,,,,,,,0,,,60,44
86160,note_on,1,0,1,,,,,,,,,0,,,51,44
86160,note_on,1,0,0,,,,,,,,,0,,,68,44
86387,note_on,227,0,1,,,,,,,,,0,,,51,0
86387,note_on,0,0,1,,,,,,,,,0,,,60,0
86399,note_on,0,0,0,,,,,,,,,0,,,80,0
86399,note_on,239,0,0,,,,,,,,,0,,,68,0
86400,note_on,1,0,0,,,,,,,,,0,,,72,48
86639,note_on,239,0,0,,,,,,,,,0,,,72,0
86640,note_on,1,0,0,,,,,,,,,0,,,73,48
86867,note_on,227,0,0,,,,,,,,,0,,,73,0
86880,note_on,493,0,1,,,,,,,,,0,,,32,44
86880,note_on,13,0,0,,,,,,,,,0,,,77,72
86881,control_change,1,0,1,,,,,,,64,0,0,,,,
86882,control_change,1,0,1,,,,,,,64,127,0,,,,
87107,note_on,225,0,1,,,,,,,,,0,,,32,0
87120,note_on,0,0,1,,,,,,,,,0,,,51,44
87120,note_on,240,0,0,,,,,,,,,0,,,60,44
87120,note_on,13,0,1,,,,,,,,,0,,,44,44
87359,note_on,239,0,1,,,,,,,,,0,,,44,0
87359,note_on,239,0,0,,,,,,,,,0,,,60,0
87359,note_on,0,0,1,,,,,,,,,0,,,51,0
87360,note_on,1,0,0,,,,,,,,,0,,,63,44
87360,note_on,0,0,1,,,,,,,,,0,,,56,44
87360,note_on,1,0,1,,,,,,,,,0,,,48,44
87599,note_on,0,0,0,,,,,,,,,0,,,63,0
87599,note_on,239,0,0,,,,,,,,,0,,,77,0
87599,note_on,239,0,1,,,,,,,,,0,,,48,0
87599,note_on,0,0,1,,,,,,,,,0,,,56,0
87600,note_on,1,0,1,,,,,,,,,0,,,51,44
87600,note_on,0,0,0,,,,,,,,,0,,,75,48
87600,note_on,1,0,0,,,,,,,,,0,,,68,44
87600,note_on,0,0,1,,,,,,,,,0,,,60,44
87827,note_on,0,0,1,,,,,,,,,0,,,60,0
87827,note_on,227,0,1,,,,,,,,,0,,,51,0
87839,note_on,0,0,0,,,,,,,,,0,,,75,0
87839,note_on,239,0,0,,,,,,,,,0,,,68,0
87840,note_on,1,0,0,,,,,,,,,0,,,73,48
88079,note_on,239,0,0,,,,,,,,,0,,,73,0
88080,note_on,1,0,0,,,,,,,,,0,,,72,48
88307,note_on,227,0,0,,,,,,,,,0,,,72,0
88320,note_on,13,0,0,,,,,,,,,0,,,72,57
88320,note_on,493,0,1,,,,,,,,,0,,,38,44
88321,control_change,1,0,1,,,,,,,64,0,0,,,,
88322,control_change,1,0,1,,,,,,,64,127,0,,,,
88547,note_on,225,0,1,,,,,,,,,0,,,38,0
88560,note_on,0,0,0,,,,,,,,,0,,,68,44
88560,note_on,0,0,1,,,,,,,,,0,,,58,44
88560,note_on,13,0,1,,,,,,,,,0,,,50,44
88560,note_on,240,0,0,,,,,,,,,0,,,65,44
88799,note_on,0,0,1,,,,,,,,,0,,,58,0
88799,note_on,239,0,1,,,,,,,,,0,,,50,0
88799,note_on,239,0,0,,,,,,,,,0,,,65,0
88799,note_on,0,0,0,,,,,,,,,0,,,68,0
88800,note_on,0,0,1,,,,,,,,,0,,,62,44
88800,note_on,1,0,0,,,,,,,,,0,,,58,44
88800,note_on,1,0,1,,,,,,,,,0,,,53,44
88801,note_on,1,0,0,,,,,,,,,0,,,72,0
89039,note_on,0,0,1,,,,,,,,,0,,,62,0
89039,note_on,239,0,1,,,,,,,,,0,,,53,0
89039,note_on,238,0,0,,,,,,,,,0,,,58,0
89040,note_on,0,0,1,,,,,,,,,0,,,65,44
89040,note_on,0,0,0,,,,,,,,,0,,,62,44
89040,note_on,1,0,1,,,,,,,,,0,,,56,44
89040,note_on,1,0,0,,,,,,,,,0,,,70,48
89267,note_on,227,0,0,,,,,,,,,0,,,70,0
89267,note_on,227,0,1,,,,,,,,,0,,,56,0
89267,note_on,0,0,1,,,,,,,,,0,,,65,0
89267,note_on,0,0,0,,,,,,,,,0,,,62,0
89280,note_on,13,0,0,,,,,,,,,0,,,69,48
89507,note_on,227,0,0,,,,,,,,,0,,,69,0
89520,note_on,13,0,0,,,,,,,,,0,,,70,48
89747,note_on,227,0,0,,,,,,,,,0,,,70,0
89760,note_on,13,0,0,,,,,,,,,0,,,69,44
89760,note_on,493,0,1,,,,,,,,,0,,,34,44
89761,control_change,1,0,1,,,,,,,64,0,0,,,,
89762,control_change,1,0,1,,,,,,,64,127,0,,,,
89815,note_on,55,0,0,,,,,,,,,0,,,69,0
89819,note_on,4,0,0,,,,,,,,,0,,,70,44
89874,note_on,55,0,0,,,,,,,,,0,,,70,0
89879,note_on,5,0,0,,,,,,,,,0,,,72,44
89934,note_on,55,0,0,,,,,,,,,0,,,72,0
89940,note_on,6,0,0,,,,,,,,,0,,,70,44
89987,note_on,225,0,1,,,,,,,,,0,,,34,0
89995,note_on,55,0,0,,,,,,,,,0,,,70,0
89999,note_on,4,0,0,,,,,,,,,0,,,72,44
90000,note_on,13,0,1,,,,,,,,,0,,,50,44
90000,note_on,1,0,0,,,,,,,,,0,,,65,44
90000,note_on,0,0,1,,,,,,,,,0,,,58,44
90000,note_on,0,0,0,,,,,,,,,0,,,68,44
90054,note_on,54,0,0,,,,,,,,,0,,,72,0
90059,note_on,5,0,0,,,,,,,,,0,,,70,44
90114,note_on,55,0,0,,,,,,,,,0,,,70,0
90120,note_on,6,0,0,,,,,,,,,0,,,72,44
90175,note_on,55,0,0,,,,,,,,,0,,,72,0
90179,note_on,4,0,0,,,,,,,,,0,,,70,44
90234,note_on,55,0,0,,,,,,,,,0,,,70,0
90239,note_on,239,0,1,,,,,,,,,0,,,50,0
90239,note_on,0,0,0,,,,,,,,,0,,,65,0
90239,note_on,5,0,0,,,,,,,,,0,,,72,44
90239,note_on,0,0,0,,,,,,,,,0,,,68,0
90239,note_on,0,0,1,,,,,,,,,0,,,58,0
90240,note_on,0,0,1,,,,,,,,,0,,,62,44
90240,note_on,1,0,1,,,,,,,,,0,,,53,44
90240,note_on,1,0,0,,,,,,,,,0,,,58,44
90294,note_on,54,0,0,,,,,,,,,0,,,72,0
90300,note_on,6,0,0,,,,,,,,,0,,,70,44
90355,note_on,55,0,0,,,,,,,,,0,,,70,0
90359,note_on,4,0,0,,,,,,,,,0,,,72,44
90471,note_on,112,0,0,,,,,,,,,0,,,72,0
90479,note_on,239,0,1,,,,,,,,,0,,,53,0
90479,note_on,0,0,1,,,,,,,,,0,,,62,0
90479,note_on,8,0,0,,,,,,,,,0,,,58,0
90480,note_on,1,0,0,,,,,,,,,0,,,69,44
90480,note_on,1,0,1,,,,,,,,,0,,,56,44
90480,note_on,0,0,1,,,,,,,,,0,,,65,44
90480,note_on,0,0,0,,,,,,,,,0,,,62,44
90539,note_on,59,0,0,,,,,,,,,0,,,69,0
90540,note_on,1,0,0,,,,,,,,,0,,,70,44
90599,note_on,59,0,0,,,,,,,,,0,,,70,0
90600,note_on,1,0,0,,,,,,,,,0,,,73,44
90659,note_on,59,0,0,,,,,,,,,0,,,73,0
90660,note_on,1,0,0,,,,,,,,,0,,,74,44
90707,note_on,0,0,1,,,,,,,,,0,,,65,0
90707,note_on,227,0,1,,,,,,,,,0,,,56,0
90719,note_on,59,0,0,,,,,,,,,0,,,62,0
90719,note_on,0,0,0,,,,,,,,,0,,,74,0
90720,note_on,1,0,0,,,,,,,,,0,,,76,44
90779,note_on,59,0,0,,,,,,,,,0,,,76,0
90780,note_on,1,0,0,,,,,,,,,0,,,77,44
90839,note_on,59,0,0,,,,,,,,,0,,,77,0
90840,note_on,1,0,0,,,,,,,,,0,,,79,45
90899,note_on,59,0,0,,,,,,,,,0,,,79,0
90900,note_on,1,0,0,,,,,,,,,0,,,80,45
90959,note_on,59,0,0,,,,,,,,,0,,,80,0
90960,note_on,1,0,0,,,,,,,,,0,,,81,45
91019,note_on,59,0,0,,,,,,,,,0,,,81,0
91020,note_on,1,0,0,,,,,,,,,0,,,82,45
91079,note_on,59,0,0,,,,,,,,,0,,,82,0
91080,note_on,1,0,0,,,,,,,,,0,,,85,45
91139,note_on,59,0,0,,,,,,,,,0,,,85,0
91140,note_on,1,0,0,,,,,,,,,0,,,86,45
91196,note_on,56,0,0,,,,,,,,,0,,,86,0
91200,note_on,4,0,0,,,,,,,,,0,,,89,60
91200,note_on,493,0,1,,,,,,,,,0,,,39,46
91201,control_change,1,0,1,,,,,,,64,0,0,,,,
91202,control_change,1,0,1,,,,,,,64,127,0,,,,
91427,note_on,225,0,1,,,,,,,,,0,,,39,0
91440,note_on,13,0,1,,,,,,,,,0,,,51,46
91440,note_on,0,0,0,,,,,,,,,0,,,82,44
91440,note_on,240,0,0,,,,,,,,,0,,,79,44
91440,note_on,0,0,1,,,,,,,,,0,,,56,46
91440,note_on,0,0,1,,,,,,,,,0,,,60,46
91679,note_on,0,0,1,,,,,,,,,0,,,56,0
91679,note_on,239,0,0,,,,,,,,,0,,,79,0
91679,note_on,239,0,1,,,,,,,,,0,,,51,0
91679,note_on,0,0,1,,,,,,,,,0,,,60,0
91679,note_on,0,0,0,,,,,,,,,0,,,82,0
91680,note_on,0,0,1,,,,,,,,,0,,,60,46
91680,note_on,1,0,0,,,,,,,,,0,,,75,44
91680,note_on,1,0,1,,,,,,,,,0,,,55,46
91680,note_on,0,0,1,,,,,,,,,0,,,63,46
91681,note_on,1,0,0,,,,,,,,,0,,,89,0
91919,note_on,238,0,0,,,,,,,,,0,,,75,0
91919,note_on,0,0,1,,,,,,,,,0,,,63,0
91919,note_on,239,0,1,,,,,,,,,0,,,55,0
91919,note_on,0,0,1,,,,,,,,,0,,,60,0
91920,note_on,1,0,0,,,,,,,,,0,,,87,50
91920,note_on,0,0,1,,,,,,,,,0,,,68,46
91920,note_on,0,0,1,,,,,,,,,0,,,63,46
91920,note_on,1,0,1,,,,,,,,,0,,,60,46
91920,note_on,0,0,0,,,,,,,,,0,,,72,44
92147,note_on,0,0,1,,,,,,,,,0,,,63,0
92147,note_on,227,0,1,,,,,,,,,0,,,60,0
92147,note_on,0,0,1,,,,,,,,,0,,,68,0
92159,note_on,239,0,0,,,,,,,,,0,,,87,0
92159,note_on,0,0,0,,,,,,,,,0,,,72,0
92160,note_on,1,0,0,,,,,,,,,0,,,84,50
92399,note_on,239,0,0,,,,,,,,,0,,,84,0
92400,note_on,1,0,0,,,,,,,,,0,,,80,50
92627,note_on,227,0,0,,,,,,,,,0,,,80,0
92640,note_on,13,0,0,,,,,,,,,0,,,77,50
92640,note_on,493,0,1,,,,,,,,,0,,,39,46
92641,control_change,1,0,1,,,,,,,64,0,0,,,,
92642,control_change,1,0,1,,,,,,,64,127,0,,,,
92879,note_on,237,0,1,,,,,,,,,0,,,39,0
92880,note_on,240,0,0,,,,,,,,,0,,,67,44
92880,note_on,1,0,1,,,,,,,,,0,,,51,46
92880,note_on,0,0,1,,,,,,,,,0,,,61,46
92880,note_on,0,0,0,,,,,,,,,0,,,70,44
93119,note_on,0,0,1,,,,,,,,,0,,,61,0
93119,note_on,0,0,0,,,,,,,,,0,,,70,0
93119,note_on,239,0,0,,,,,,,,,0,,,67,0
93119,note_on,239,0,1,,,,,,,,,0,,,51,0
93120,note_on,0,0,1,,,,,,,,,0,,,67,46
93120,note_on,1,0,0,,,,,,,,,0,,,61,44
93120,note_on,1,0,1,,,,,,,,,0,,,58,46
93120,note_on,0,0,0,,,,,,,,,0,,,63,44
93359,note_on,239,0,1,,,,,,,,,0,,,58,0
93359,note_on,0,0,1,,,,,,,,,0,,,67,0
93359,note_on,0,0,0,,,,,,,,,0,,,61,0
93359,note_on,0,0,0,,,,,,,,,0,,,63,0
93359,note_on,239,0,0,,,,,,,,,0,,,77,0
93360,note_on,1,0,1,,,,,,,,,0,,,51,46
93360,note_on,0,0,0,,,,,,,,,0,,,67,44
93360,note_on,1,0,0,,,,,,,,,0,,,75,50
93360,note_on,0,0,1,,,,,,,,,0,,,61,46
93587,note_on,227,0,1,,,,,,,,,0,,,51,0
93587,note_on,0,0,1,,,,,,,,,0,,,61,0
93599,note_on,239,0,0,,,,,,,,,0,,,75,0
93599,note_on,0,0,0,,,,,,,,,0,,,67,0
93600,note_on,1,0,0,,,,,,,,,0,,,73,50
93839,note_on,239,0,0,,,,,,,,,0,,,73,0
93840,note_on,1,0,0,,,,,,,,,0,,,70,50
94067,note_on,227,0,0,,,,,,,,,0,,,70,0
94080,note_on,13,0,0,,,,,,,,,0,,,67,52
94080,note_on,493,0,1,,,,,,,,,0,,,32,46
94081,control_change,1,0,1,,,,,,,64,0,0,,,,
94082,control_change,1,0,1,,,,,,,64,127,0,,,,
94307,note_on,225,0,1,,,,,,,,,0,,,32,0
94319,note_on,239,0,0,,,,,,,,,0,,,67,0
94320,note_on,13,0,1,,,,,,,,,0,,,48,46
94320,note_on,0,0,0,,,,,,,,,0,,,63,46
94320,note_on,0,0,1,,,,,,,,,0,,,51,46
94320,note_on,0,0,1,,,,,,,,,0,,,56,46
94320,note_on,0,0,0,,,,,,,,,0,,,68,46
94320,note_on,1,0,0,,,,,,,,,0,,,60,46
94559,note_on,0,0,1,,,,,,,,,0,,,56,0
94559,note_on,239,0,1,,,,,,,,,0,,,48,0
94559,note_on,239,0,0,,,,,,,,,0,,,60,0
94559,note_on,0,0,1,,,,,,,,,0,,,51,0
94559,note_on,0,0,0,,,,,,,,,0,,,63,0
94559,note_on,0,0,0,,,,,,,,,0,,,68,0
94560,note_on,1,0,0,,,,,,,,,0,,,63,46
94560,note_on,1,0,1,,,,,,,,,0,,,51,46
94560,note_on,0,0,1,,,,,,,,,0,,,56,46
94560,note_on,0,0,1,,,,,,,,,0,,,60,46
94560,note_on,0,0,0,,,,,,,,,0,,,68,46
94560,note_on,0,0,0,,,,,,,,,0,,,72,46
94799,note_on,0,0,0,,,,,,,,,0,,,68,0
94799,note_on,0,0,0,,,,,,,,,0,,,72,0
94799,note_on,239,0,0,,,,,,,,,0,,,63,0
94799,note_on,0,0,1,,,,,,,,,0,,,56,0
94799,note_on,0,0,1,,,,,,,,,0,,,60,0
94799,note_on,239,0,1,,,,,,,,,0,,,51,0
94800,note_on,1,0,1,,,,,,,,,0,,,56,46
94800,note_on,1,0,0,,,,,,,,,0,,,68,46
94800,note_on,0,0,0,,,,,,,,,0,,,75,46
94800,note_on,0,0,0,,,,,,,,,0,,,72,46
94800,note_on,0,0,1,,,,,,,,,0,,,63,46
94800,note_on,0,0,1,,,,,,,,,0,,,60,46
95027,note_on,0,0,1,,,,,,,,,0,,,60,0
95027,note_on,0,0,1,,,,,,,,,0,,,63,0
95027,note_on,227,0,1,,,,,,,,,0,,,56,0
95039,note_on,0,0,0,,,,,,,,,0,,,72,0
95039,note_on,0,0,0,,,,,,,,,0,,,75,0
95039,note_on,239,0,0,,,,,,,,,0,,,68,0
95040,note_on,0,0,0,,,,,,,,,0,,,75,47
95040,note_on,0,0,0,,,,,,,,,0,,,79,47
95040,note_on,1,0,0,,,,,,,,,0,,,72,47
95231,note_on,191,0,0,,,,,,,,,0,,,72,0
95231,note_on,0,0,0,,,,,,,,,0,,,75,0
95231,note_on,0,0,0,,,,,,,,,0,,,79,0
95232,note_on,0,0,0,,,,,,,,,0,,,75,47
95232,set_tempo,1,1,0,,,,,,750002,,,,,,,
95232,note_on,0,0,0,,,,,,,,,0,,,80,47
95232,note_on,0,0,0,,,,,,,,,0,,,72,47
95327,note_on,0,0,0,,,,,,,,,0,,,80,0
95327,note_on,0,0,0,,,,,,,,,0,,,75,0
95327,note_on,95,0,0,,,,,,,,,0,,,72,0
95328,set_tempo,1,1,0,,,,,,800000,,,,,,,
95328,note_on,0,0,0,,,,,,,,,0,,,80,48
95328,note_on,0,0,0,,,,,,,,,0,,,75,48
95328,note_on,0,0,0,,,,,,,,,0,,,84,48
95423,note_on,0,0,0,,,,,,,,,0,,,80,0
95423,note_on,0,0,0,,,,,,,,,0,,,84,0
95423,note_on,95,0,0,,,,,,,,,0,,,75,0
95424,note_on,1,0,0,,,,,,,,,0,,,84,48
95424,note_on,0,0,0,,,,,,,,,0,,,87,48
95519,note_on,95,0,0,,,,,,,,,0,,,84,0
95519,note_on,0,0,0,,,,,,,,,0,,,87,0
95520,note_on,0,0,0,,,,,,,,,0,,,87,48
95520,note_on,0,0,0,,,,,,,,,0,,,96,48
95520,set_tempo,1,1,0,,,,,,923077,,,,,,,
95520,note_on,493,0,1,,,,,,,,,0,,,32,48
95521,control_change,1,0,1,,,,,,,64,0,0,,,,
95522,control_change,1,0,1,,,,,,,64,127,0,,,,
95633,note_on,113,0,0,,,,,,,,,0,,,87,0
95633,note_on,0,0,0,,,,,,,,,0,,,96,0
95640,note_on,0,0,0,,,,,,,,,0,,,87,49
95640,set_tempo,7,1,0,,,,,,631579,,,,,,,
95640,note_on,0,0,0,,,,,,,,,0,,,92,49
95640,note_on,0,0,0,,,,,,,,,0,,,84,49
95747,note_on,225,0,1,,,,,,,,,0,,,32,0
95760,note_on,13,0,1,,,,,,,,,0,,,48,49
95760,set_tempo,120,1,0,,,,,,666667,,,,,,,
95760,note_on,0,0,1,,,,,,,,,0,,,56,49
95760,note_on,0,0,1,,,,,,,,,0,,,51,49
95999,note_on,0,0,1,,,,,,,,,0,,,51,0
95999,note_on,239,0,1,,,,,,,,,0,,,48,0
95999,note_on,0,0,1,,,,,,,,,0,,,56,0
96000,note_on,0,0,1,,,,,,,,,0,,,60,49
96000,set_tempo,240,1,0,,,,,,710900,,,,,,,
96000,note_on,0,0,1,,,,,,,,,0,,,56,49
96000,note_on,1,0,1,,,,,,,,,0,,,51,49
96095,note_on,0,0,0,,,,,,,,,0,,,87,0
96095,note_on,0,0,0,,,,,,,,,0,,,92,0
96095,note_on,95,0,0,,,,,,,,,0,,,84,0
96120,set_tempo,25,1,0,,,,,,740741,,,,,,,
96239,note_on,0,0,1,,,,,,,,,0,,,56,0
96239,note_on,0,0,1,,,,,,,,,0,,,60,0
96239,note_on,239,0,1,,,,,,,,,0,,,51,0
96240,note_on,1,0,1,,,,,,,,,0,,,56,49
96240,set_tempo,120,1,0,,,,,,7741935,,,,,,,
96240,note_on,0,0,1,,,,,,,,,0,,,60,49
96240,note_on,0,0,1,,,,,,,,,0,,,63,49
96353,note_on,0,0,1,,,,,,,,,0,,,60,0
96353,note_on,113,0,1,,,,,,,,,0,,,56,0
96353,note_on,0,0,1,,,,,,,,,0,,,63,0
96359,set_tempo,119,1,0,,,,,,774194,,,,,,,
96360,set_tempo,1,1,0,,,,,,3252033,,,,,,,
96361,control_change,8,0,1,,,,,,,64,0,0,,,,
96479,set_tempo,119,1,0,,,,,,813008,,,,,,,
96480,note_on,0,0,0,,,,,,,,,0,,,72,70
96480,set_tempo,1,1,0,,,,,,750000,,,,,,,
96518,note_on,38,0,0,,,,,,,,,0,,,72,0
96519,note_on,1,0,0,,,,,,,,,0,,,72,70
96557,note_on,38,0,0,,,,,,,,,0,,,72,0
96559,note_on,2,0,0,,,,,,,,,0,,,75,70
96597,note_on,38,0,0,,,,,,,,,0,,,75,0
96600,note_on,3,0,0,,,,,,,,,0,,,73,70
96713,note_on,113,0,0,,,,,,,,,0,,,73,0
96720,note_on,7,0,0,,,,,,,,,0,,,72,70
96947,note_on,227,0,0,,,,,,,,,0,,,72,0
96960,set_tempo,13,1,0,,,,,,521739,,,,,,,
96960,note_on,0,0,0,,,,,,,,,0,,,72,105
96960,note_on,599,0,1,,,,,,,,,0,,,40,67
96962,control_change,2,0,0,,,,,,,64,127,0,,,,
97020,note_on,58,0,0,,,,,,,,,0,,,84,105
97187,note_on,227,0,1,,,,,,,,,0,,,40,0
97200,note_on,0,0,1,,,,,,,,,0,,,60,67
97200,note_on,13,0,1,,,,,,,,,0,,,52,67
97200,note_on,0,0,1,,,,,,,,,0,,,58,67
97427,note_on,0,0,1,,,,,,,,,0,,,60,0
97427,note_on,227,0,1,,,,,,,,,0,,,52,0
97427,note_on,0,0,1,,,,,,,,,0,,,58,0
97440,note_on,13,0,1,,,,,,,,,0,,,52,67
97479,note_on,39,0,1,,,,,,,,,0,,,58,67
97519,note_on,40,0,1,,,,,,,,,0,,,63,67
97557,note_on,38,0,1,,,,,,,,,0,,,63,0
97560,note_on,3,0,1,,,,,,,,,0,,,61,67
97592,note_on,32,0,1,,,,,,,,,0,,,52,0
97631,note_on,39,0,1,,,,,,,,,0,,,58,0
97673,note_on,42,0,1,,,,,,,,,0,,,61,0
97680,note_on,7,0,1,,,,,,,,,0,,,60,67
97907,note_on,227,0,1,,,,,,,,,0,,,60,0
97918,note_on,898,0,0,,,,,,,,,0,,,84,0
97919,note_on,1,0,0,,,,,,,,,0,,,72,0
97920,note_on,0,0,0,,,,,,,,,0,,,79,70
97920,note_on,0,0,1,,,,,,,,,0,,,70,67
97920,note_on,13,0,1,,,,,,,,,0,,,64,67
97920,note_on,0,0,1,,,,,,,,,0,,,72,67
97920,note_on,1,0,0,,,,,,,,,0,,,67,70
98159,note_on,0,0,1,,,,,,,,,0,,,72,0
98159,note_on,239,0,1,,,,,,,,,0,,,64,0
98159,note_on,0,0,1,,,,,,,,,0,,,70,0
98160,note_on,1,0,1,,,,,,,,,0,,,60,67
98375,note_on,0,0,0,,,,,,,,,0,,,79,0
98375,note_on,455,0,0,,,,,,,,,0,,,67,0
98387,note_on,227,0,1,,,,,,,,,0,,,60,0
98400,note_on,13,0,1,,,,,,,,,0,,,40,67
98400,note_on,0,0,0,,,,,,,,,0,,,79,70
98400,note_on,25,0,0,,,,,,,,,0,,,67,70
98401,control_change,1,0,0,,,,,,,64,0,0,,,,
98402,control_change,1,0,0,,,,,,,64,127,0,,,,
98627,note_on,227,0,1,,,,,,,,,0,,,40,0
98640,note_on,0,0,1,,,,,,,,,0,,,58,67
98640,note_on,0,0,1,,,,,,,,,0,,,60,67
98640,note_on,13,0,1,,,,,,,,,0,,,52,67
98867,note_on,227,0,1,,,,,,,,,0,,,52,0
98867,note_on,0,0,1,,,,,,,,,0,,,58,0
98867,note_on,0,0,1,,,,,,,,,0,,,60,0
98879,note_on,0,0,0,,,,,,,,,0,,,79,0
98879,note_on,477,0,0,,,,,,,,,0,,,67,0
98880,note_on,1,0,0,,,,,,,,,0,,,82,70
98880,note_on,13,0,1,,,,,,,,,0,,,52,70
98919,note_on,39,0,1,,,,,,,,,0,,,58,70
98938,note_on,58,0,0,,,,,,,,,0,,,82,0
98939,note_on,1,0,0,,,,,,,,,0,,,68,70
98939,note_on,0,0,0,,,,,,,,,0,,,80,70
98959,note_on,40,0,1,,,,,,,,,0,,,63,70
98997,note_on,38,0,1,,,,,,,,,0,,,63,0
99000,note_on,3,0,1,,,,,,,,,0,,,61,67
99032,note_on,32,0,1,,,,,,,,,0,,,52,0
99071,note_on,39,0,1,,,,,,,,,0,,,58,0
99113,note_on,42,0,1,,,,,,,,,0,,,61,0
99120,note_on,7,0,1,,,,,,,,,0,,,60,67
99347,note_on,227,0,1,,,,,,,,,0,,,60,0
99360,note_on,0,0,1,,,,,,,,,0,,,72,67
99360,note_on,0,0,1,,,,,,,,,0,,,70,67
99360,note_on,13,0,1,,,,,,,,,0,,,64,67
99598,note_on,659,0,0,,,,,,,,,0,,,68,0
99598,note_on,0,0,0,,,,,,,,,0,,,80,0
99599,note_on,239,0,1,,,,,,,,,0,,,64,0
99599,note_on,0,0,1,,,,,,,,,0,,,72,0
99599,note_on,0,0,1,,,,,,,,,0,,,70,0
99600,note_on,0,0,0,,,,,,,,,0,,,79,70
99600,note_on,2,0,0,,,,,,,,,0,,,67,70
99600,note_on,1,0,1,,,,,,,,,0,,,60,67
99827,note_on,0,0,0,,,,,,,,,0,,,79,0
99827,note_on,227,0,1,,,,,,,,,0,,,60,0
99827,note_on,227,0,0,,,,,,,,,0,,,67,0
99840,note_on,0,0,0,,,,,,,,,0,,,79,70
99840,note_on,13,0,0,,,,,,,,,0,,,67,70
99840,note_on,13,0,1,,,,,,,,,0,,,41,67
99841,control_change,1,0,0,,,,,,,64,0,0,,,,
99842,control_change,2,0,1,,,,,,,64,127,0,,,,
100067,note_on,225,0,1,,,,,,,,,0,,,41,0
100080,note_on,0,0,1,,,,,,,,,0,,,56,67
100080,note_on,0,0,1,,,,,,,,,0,,,60,67
100080,note_on,13,0,1,,,,,,,,,0,,,53,67
100307,note_on,0,0,1,,,,,,,,,0,,,60,0
100307,note_on,227,0,1,,,,,,,,,0,,,53,0
100307,note_on,0,0,1,,,,,,,,,0,,,56,0
100320,note_on,13,0,1,,,,,,,,,0,,,53,67
100359,note_on,39,0,1,,,,,,,,,0,,,56,67
100399,note_on,40,0,1,,,,,,,,,0,,,63,67
100437,note_on,38,0,1,,,,,,,,,0,,,63,0
100440,note_on,3,0,1,,,,,,,,,0,,,61,67
100472,note_on,32,0,1,,,,,,,,,0,,,53,0
100511,note_on,39,0,1,,,,,,,,,0,,,56,0
100553,note_on,42,0,1,,,,,,,,,0,,,61,0
100560,note_on,7,0,1,,,,,,,,,0,,,60,67
100787,note_on,227,0,1,,,,,,,,,0,,,60,0
100800,note_on,0,0,1,,,,,,,,,0,,,68,67
100800,note_on,0,0,1,,,,,,,,,0,,,72,67
100800,note_on,13,0,1,,,,,,,,,0,,,65,67
101039,note_on,0,0,1,,,,,,,,,0,,,72,0
101039,note_on,0,0,1,,,,,,,,,0,,,68,0
101039,note_on,239,0,1,,,,,,,,,0,,,65,0
101040,note_on,1,0,1,,,,,,,,,0,,,60,67
101093,note_on,1252,0,0,,,,,,,,,0,,,67,0
101093,note_on,0,0,0,,,,,,,,,0,,,79,0
101160,note_on,67,0,0,,,,,,,,,0,,,68,70
101160,note_on,0,0,0,,,,,,,,,0,,,80,70
101267,note_on,227,0,1,,,,,,,,,0,,,60,0
101273,note_on,113,0,0,,,,,,,,,0,,,68,0
101273,note_on,0,0,0,,,,,,,,,0,,,80,0
101280,note_on,13,0,1,,,,,,,,,0,,,41,67
101280,note_on,0,0,0,,,,,,,,,0,,,77,70
101280,note_on,7,0,0,,,,,,,,,0,,,65,70
101281,control_change,1,0,1,,,,,,,64,0,0,,,,
101282,control_change,1,0,1,,,,,,,64,127,0,,,,
101507,note_on,225,0,1,,,,,,,,,0,,,41,0
101520,note_on,0,0,1,,,,,,,,,0,,,56,67
101520,note_on,0,0,1,,,,,,,,,0,,,60,67
101520,note_on,13,0,1,,,,,,,,,0,,,53,67
101747,note_on,0,0,1,,,,,,,,,0,,,56,0
101747,note_on,0,0,1,,,,,,,,,0,,,60,0
101747,note_on,227,0,1,,,,,,,,,0,,,53,0
101760,note_on,13,0,1,,,,,,,,,0,,,53,67
101760,set_tempo,480,1,0,,,,,,521739,,,,,,,
101799,note_on,39,0,1,,,,,,,,,0,,,56,67
101839,note_on,40,0,1,,,,,,,,,0,,,63,67
101877,note_on,38,0,1,,,,,,,,,0,,,63,0
101880,note_on,3,0,1,,,,,,,,,0,,,61,67
101895,note_on,135,0,0,,,,,,,,,0,,,65,0
101895,note_on,0,0,0,,,,,,,,,0,,,77,0
101912,note_on,32,0,1,,,,,,,,,0,,,53,0
101920,note_on,0,0,0,,,,,,,,,0,,,67,70
101920,set_tempo,25,1,0,,,,,,515907,,,,,,,
101920,note_on,0,0,0,,,,,,,,,0,,,79,70
101951,note_on,39,0,1,,,,,,,,,0,,,56,0
101993,note_on,42,0,1,,,,,,,,,0,,,61,0
101999,note_on,79,0,0,,,,,,,,,0,,,67,0
101999,note_on,0,0,0,,,,,,,,,0,,,79,0
102000,note_on,7,0,1,,,,,,,,,0,,,60,67
102080,note_on,0,0,0,,,,,,,,,0,,,68,71
102080,note_on,0,0,0,,,,,,,,,0,,,80,71
102080,set_tempo,81,1,0,,,,,,509338,,,,,,,
102159,note_on,79,0,0,,,,,,,,,0,,,68,0
102159,note_on,0,0,0,,,,,,,,,0,,,80,0
102227,note_on,227,0,1,,,,,,,,,0,,,60,0
102240,note_on,13,0,1,,,,,,,,,0,,,65,68
102240,note_on,0,0,1,,,,,,,,,0,,,72,68
102240,note_on,0,0,1,,,,,,,,,0,,,68,68
102240,note_on,0,0,0,,,,,,,,,0,,,81,71
102240,set_tempo,81,1,0,,,,,,502092,,,,,,,
102240,note_on,0,0,0,,,,,,,,,0,,,69,71
102319,note_on,0,0,0,,,,,,,,,0,,,81,0
102319,note_on,79,0,0,,,,,,,,,0,,,69,0
102400,note_on,0,0,0,,,,,,,,,0,,,70,72
102400,note_on,0,0,0,,,,,,,,,0,,,82,72
102400,set_tempo,81,1,0,,,,,,494641,,,,,,,
102479,note_on,79,0,0,,,,,,,,,0,,,70,0
102479,note_on,239,0,1,,,,,,,,,0,,,65,0
102479,note_on,0,0,1,,,,,,,,,0,,,68,0
102479,note_on,0,0,1,,,,,,,,,0,,,72,0
102479,note_on,0,0,0,,,,,,,,,0,,,82,0
102480,note_on,1,0,1,,,,,,,,,0,,,60,69
102560,set_tempo,81,1,0,,,,,,487409,,,,,,,
102560,note_on,0,0,0,,,,,,,,,0,,,83,72
102560,note_on,0,0,0,,,,,,,,,0,,,71,72
102639,note_on,79,0,0,,,,,,,,,0,,,71,0
102639,note_on,0,0,0,,,,,,,,,0,,,83,0
102707,note_on,227,0,1,,,,,,,,,0,,,60,0
102720,set_tempo,81,1,0,,,,,,521739,,,,,,,
102720,note_on,0,0,0,,,,,,,,,0,,,72,73
102720,note_on,13,0,1,,,,,,,,,0,,,40,70
102720,note_on,0,0,0,,,,,,,,,0,,,84,73
102721,control_change,1,0,1,,,,,,,64,0,0,,,,
102722,control_change,1,0,1,,,,,,,64,127,0,,,,
102877,note_on,157,0,0,,,,,,,,,0,,,72,0
102877,note_on,0,0,0,,,,,,,,,0,,,84,0
102947,note_on,225,0,1,,,,,,,,,0,,,40,0
102960,note_on,0,0,1,,,,,,,,,0,,,60,70
102960,note_on,0,0,1,,,,,,,,,0,,,58,70
102960,note_on,13,0,1,,,,,,,,,0,,,52,70
103187,note_on,227,0,1,,,,,,,,,0,,,52,0
103187,note_on,0,0,1,,,,,,,,,0,,,60,0
103187,note_on,0,0,1,,,,,,,,,0,,,58,0
103200,note_on,323,0,0,,,,,,,,,0,,,73,87
103200,note_on,13,0,1,,,,,,,,,0,,,52,70
103200,note_on,0,0,0,,,,,,,,,0,,,85,87
103239,note_on,39,0,1,,,,,,,,,0,,,58,70
103279,note_on,40,0,1,,,,,,,,,0,,,63,70
103317,note_on,38,0,1,,,,,,,,,0,,,63,0
103320,note_on,3,0,1,,,,,,,,,0,,,61,70
103352,note_on,32,0,1,,,,,,,,,0,,,52,0
103391,note_on,39,0,1,,,,,,,,,0,,,58,0
103433,note_on,42,0,1,,,,,,,,,0,,,61,0
103440,note_on,7,0,1,,,,,,,,,0,,,60,70
103667,note_on,227,0,1,,,,,,,,,0,,,60,0
103680,note_on,13,0,1,,,,,,,,,0,,,64,70
103680,note_on,0,0,1,,,,,,,,,0,,,73,70
103680,note_on,0,0,1,,,,,,,,,0,,,70,70
103680,note_on,480,0,0,,,,,,,,,0,,,73,0
103681,note_on,1,0,0,,,,,,,,,0,,,85,0
103919,note_on,0,0,1,,,,,,,,,0,,,73,0
103919,note_on,0,0,1,,,,,,,,,0,,,70,0
103919,note_on,239,0,1,,,,,,,,,0,,,64,0
103920,note_on,1,0,1,,,,,,,,,0,,,72,70
103920,note_on,239,0,0,,,,,,,,,0,,,72,73
103920,note_on,0,0,0,,,,,,,,,0,,,72,0
103920,note_on,0,0,0,,,,,,,,,0,,,84,73
104159,note_on,239,0,0,,,,,,,,,0,,,84,0
104159,note_on,239,0,1,,,,,,,,,0,,,72,0
104160,note_on,0,0,0,,,,,,,,,0,,,79,73
104160,note_on,1,0,0,,,,,,,,,0,,,67,73
104160,note_on,1,0,1,,,,,,,,,0,,,40,70
104161,control_change,1,0,1,,,,,,,64,0,0,,,,
104162,control_change,1,0,1,,,,,,,64,127,0,,,,
104387,note_on,225,0,1,,,,,,,,,0,,,40,0
104400,note_on,0,0,1,,,,,,,,,0,,,58,70
104400,note_on,0,0,1,,,,,,,,,0,,,60,70
104400,note_on,13,0,1,,,,,,,,,0,,,52,70
104627,note_on,0,0,1,,,,,,,,,0,,,58,0
104627,note_on,0,0,1,,,,,,,,,0,,,60,0
104627,note_on,227,0,1,,,,,,,,,0,,,52,0
104639,note_on,479,0,0,,,,,,,,,0,,,67,0
104639,note_on,0,0,0,,,,,,,,,0,,,79,0
104640,note_on,13,0,1,,,,,,,,,0,,,52,73
104640,note_on,0,0,0,,,,,,,,,0,,,82,109
104640,note_on,1,0,0,,,,,,,,,0,,,70,109
104679,note_on,39,0,1,,,,,,,,,0,,,58,73
104698,note_on,58,0,0,,,,,,,,,0,,,70,0
104698,note_on,0,0,0,,,,,,,,,0,,,82,0
104699,note_on,1,0,0,,,,,,,,,0,,,68,109
104699,note_on,0,0,0,,,,,,,,,0,,,80,109
104719,note_on,40,0,1,,,,,,,,,0,,,63,73
104757,note_on,38,0,1,,,,,,,,,0,,,63,0
104760,note_on,3,0,1,,,,,,,,,0,,,61,70
104792,note_on,32,0,1,,,,,,,,,0,,,52,0
104831,note_on,39,0,1,,,,,,,,,0,,,58,0
104873,note_on,42,0,1,,,,,,,,,0,,,61,0
104880,note_on,7,0,1,,,,,,,,,0,,,60,70
105107,note_on,227,0,1,,,,,,,,,0,,,60,0
105120,note_on,0,0,1,,,,,,,,,0,,,70,70
105120,note_on,0,0,1,,,,,,,,,0,,,73,70
105120,note_on,13,0,1,,,,,,,,,0,,,64,70
105358,note_on,659,0,0,,,,,,,,,0,,,68,0
105358,note_on,0,0,0,,,,,,,,,0,,,80,0
105359,note_on,0,0,1,,,,,,,,,0,,,73,0
105359,note_on,0,0,1,,,,,,,,,0,,,70,0
105359,note_on,239,0,1,,,,,,,,,0,,,64,0
105360,note_on,0,0,0,,,,,,,,,0,,,79,73
105360,note_on,1,0,1,,,,,,,,,0,,,72,70
105360,note_on,2,0,0,,,,,,,,,0,,,67,73
105587,note_on,227,0,1,,,,,,,,,0,,,72,0
105587,note_on,227,0,0,,,,,,,,,0,,,67,0
105587,note_on,0,0,0,,,,,,,,,0,,,79,0
105600,note_on,0,0,0,,,,,,,,,0,,,79,73
105600,note_on,13,0,1,,,,,,,,,0,,,41,70
105600,note_on,13,0,0,,,,,,,,,0,,,67,73
105601,control_change,1,0,1,,,,,,,64,0,0,,,,
105602,control_change,1,0,1,,,,,,,64,127,0,,,,
105827,note_on,225,0,1,,,,,,,,,0,,,41,0
105840,note_on,13,0,1,,,,,,,,,0,,,53,70
105840,note_on,0,0,1,,,,,,,,,0,,,60,70
105840,note_on,0,0,1,,,,,,,,,0,,,56,70
106067,note_on,0,0,1,,,,,,,,,0,,,60,0
106067,note_on,0,0,1,,,,,,,,,0,,,56,0
106067,note_on,227,0,1,,,,,,,,,0,,,53,0
106080,note_on,13,0,1,,,,,,,,,0,,,53,70
106119,note_on,39,0,1,,,,,,,,,0,,,56,70
106159,note_on,40,0,1,,,,,,,,,0,,,63,70
106197,note_on,38,0,1,,,,,,,,,0,,,63,0
106200,note_on,3,0,1,,,,,,,,,0,,,61,70
106232,note_on,32,0,1,,,,,,,,,0,,,53,0
106271,note_on,39,0,1,,,,,,,,,0,,,56,0
106313,note_on,42,0,1,,,,,,,,,0,,,61,0
106319,note_on,719,0,0,,,,,,,,,0,,,67,0
106319,note_on,0,0,0,,,,,,,,,0,,,79,0
106320,note_on,1,0,0,,,,,,,,,0,,,68,73
106320,note_on,0,0,0,,,,,,,,,0,,,80,73
106320,note_on,7,0,1,,,,,,,,,0,,,60,70
106547,note_on,227,0,1,,,,,,,,,0,,,60,0
106559,note_on,0,0,0,,,,,,,,,0,,,80,0
106559,note_on,239,0,0,,,,,,,,,0,,,68,0
106560,note_on,13,0,1,,,,,,,,,0,,,68,70
106560,note_on,0,0,0,,,,,,,,,0,,,76,73
106560,note_on,1,0,0,,,,,,,,,0,,,64,73
106560,note_on,0,0,1,,,,,,,,,0,,,73,70
106799,note_on,239,0,1,,,,,,,,,0,,,68,0
106799,note_on,0,0,1,,,,,,,,,0,,,73,0
106800,note_on,1,0,1,,,,,,,,,0,,,72,69
106919,note_on,0,0,0,,,,,,,,,0,,,76,0
106919,note_on,359,0,0,,,,,,,,,0,,,64,0
106920,note_on,1,0,0,,,,,,,,,0,,,65,72
106920,note_on,0,0,0,,,,,,,,,0,,,77,72
107027,note_on,227,0,1,,,,,,,,,0,,,72,0
107033,note_on,113,0,0,,,,,,,,,0,,,65,0
107033,note_on,0,0,0,,,,,,,,,0,,,77,0
107040,note_on,0,0,0,,,,,,,,,0,,,77,72
107040,note_on,7,0,0,,,,,,,,,0,,,65,72
107041,control_change,14,0,1,,,,,,,64,0,0,,,,
107042,control_change,1,0,1,,,,,,,64,127,0,,,,
107280,note_on,238,0,1,,,,,,,,,0,,,53,68
107280,note_on,0,0,1,,,,,,,,,0,,,56,68
107280,note_on,0,0,1,,,,,,,,,0,,,60,68
107507,note_on,227,0,1,,,,,,,,,0,,,53,0
107507,note_on,0,0,1,,,,,,,,,0,,,60,0
107507,note_on,0,0,1,,,,,,,,,0,,,56,0
107520,note_on,13,0,1,,,,,,,,,0,,,53,68
107559,note_on,39,0,1,,,,,,,,,0,,,56,68
107599,note_on,40,0,1,,,,,,,,,0,,,63,68
107637,note_on,38,0,1,,,,,,,,,0,,,63,0
107640,note_on,3,0,1,,,,,,,,,0,,,61,67
107672,note_on,32,0,1,,,,,,,,,0,,,53,0
107711,note_on,39,0,1,,,,,,,,,0,,,56,0
107753,note_on,42,0,1,,,,,,,,,0,,,61,0
107759,note_on,719,0,0,,,,,,,,,0,,,65,0
107759,note_on,0,0,0,,,,,,,,,0,,,77,0
107760,note_on,7,0,1,,,,,,,,,0,,,60,67
107760,note_on,0,0,0,,,,,,,,,0,,,79,70
107760,note_on,1,0,0,,,,,,,,,0,,,67,70
107987,note_on,227,0,1,,,,,,,,,0,,,60,0
107999,note_on,239,0,0,,,,,,,,,0,,,67,0
107999,note_on,0,0,0,,,,,,,,,0,,,79,0
108000,note_on,0,0,1,,,,,,,,,0,,,56,70
108000,note_on,0,0,1,,,,,,,,,0,,,53,70
108000,note_on,0,0,1,,,,,,,,,0,,,61,70
108000,note_on,1,0,0,,,,,,,,,0,,,68,70
108000,note_on,0,0,0,,,,,,,,,0,,,80,70
108000,note_on,13,0,1,,,,,,,,,0,,,51,70
108227,note_on,0,0,1,,,,,,,,,0,,,61,0
108227,note_on,0,0,1,,,,,,,,,0,,,53,0
108227,note_on,227,0,1,,,,,,,,,0,,,51,0
108227,note_on,0,0,1,,,,,,,,,0,,,56,0
108239,note_on,239,0,0,,,,,,,,,0,,,68,0
108239,note_on,0,0,0,,,,,,,,,0,,,80,0
108240,note_on,0,0,0,,,,,,,,,0,,,81,69
108240,note_on,1,0,0,,,,,,,,,0,,,69,69
108240,note_on,13,0,1,,,,,,,,,0,,,59,69
108467,note_on,227,0,0,,,,,,,,,0,,,69,0
108467,note_on,227,0,1,,,,,,,,,0,,,59,0
108467,note_on,0,0,0,,,,,,,,,0,,,81,0
108480,note_on,0,0,0,,,,,,,,,0,,,82,68
108480,note_on,13,0,1,,,,,,,,,0,,,53,65
108480,note_on,13,0,0,,,,,,,,,0,,,70,68
108481,control_change,1,0,1,,,,,,,64,0,0,,,,
108482,control_change,2,0,0,,,,,,,64,127,0,,,,
108707,note_on,226,0,1,,,,,,,,,0,,,53,0
108720,note_on,13,0,1,,,,,,,,,0,,,58,65
108720,note_on,0,0,1,,,,,,,,,0,,,65,65
108720,note_on,0,0,1,,,,,,,,,0,,,68,65
108839,note_on,0,0,1,,,,,,,,,0,,,68,0
108839,note_on,119,0,1,,,,,,,,,0,,,58,0
108839,note_on,0,0,1,,,,,,,,,0,,,65,0
108960,note_on,121,0,1,,,,,,,,,0,,,62,54
109018,note_on,58,0,1,,,,,,,,,0,,,62,0
109019,note_on,0,0,1,,,,,,,,,0,,,65,57
109019,note_on,1,0,1,,,,,,,,,0,,,60,57
109019,note_on,0,0,1,,,,,,,,,0,,,68,57
109049,note_on,567,0,0,,,,,,,,,0,,,70,0
109049,note_on,0,0,0,,,,,,,,,0,,,82,0
109080,note_on,0,0,0,,,,,,,,,0,,,82,60
109080,note_on,31,0,0,,,,,,,,,0,,,70,60
109108,note_on,0,0,1,,,,,,,,,0,,,65,0
109108,note_on,0,0,1,,,,,,,,,0,,,68,0
109108,note_on,89,0,1,,,,,,,,,0,,,60,0
109193,note_on,0,0,0,,,,,,,,,0,,,82,0
109193,note_on,113,0,0,,,,,,,,,0,,,70,0
109200,note_on,0,0,1,,,,,,,,,0,,,68,57
109200,note_on,0,0,1,,,,,,,,,0,,,65,57
109200,note_on,92,0,1,,,,,,,,,0,,,58,57
109200,note_on,0,0,0,,,,,,,,,0,,,82,60
109200,note_on,7,0,0,,,,,,,,,0,,,74,60
109313,note_on,0,0,0,,,,,,,,,0,,,82,0
109313,note_on,113,0,0,,,,,,,,,0,,,74,0
109319,note_on,119,0,1,,,,,,,,,0,,,58,0
109319,note_on,0,0,1,,,,,,,,,0,,,65,0
109319,note_on,0,0,1,,,,,,,,,0,,,68,0
109320,note_on,7,0,0,,,,,,,,,0,,,77,60
109320,note_on,0,0,0,,,,,,,,,0,,,82,60
109433,note_on,113,0,0,,,,,,,,,0,,,77,0
109433,note_on,0,0,0,,,,,,,,,0,,,82,0
109440,note_on,7,0,0,,,,,,,,,0,,,82,60
109553,note_on,113,0,0,,,,,,,,,0,,,82,0
109560,note_on,0,0,0,,,,,,,,,0,,,86,60
109560,note_on,7,0,0,,,,,,,,,0,,,82,60
109673,note_on,113,0,0,,,,,,,,,0,,,82,0
109673,note_on,0,0,0,,,,,,,,,0,,,86,0
109680,note_on,0,0,0,,,,,,,,,0,,,89,60
109680,note_on,7,0,0,,,,,,,,,0,,,82,60
109793,note_on,0,0,0,,,,,,,,,0,,,89,0
109793,note_on,113,0,0,,,,,,,,,0,,,82,0
109800,note_on,0,0,0,,,,,,,,,0,,,96,60
109800,note_on,7,0,0,,,,,,,,,0,,,82,60
109913,note_on,0,0,0,,,,,,,,,0,,,96,0
109913,note_on,113,0,0,,,,,,,,,0,,,82,0
109920,note_on,0,0,0,,,,,,,,,0,,,94,60
109920,note_on,7,0,0,,,,,,,,,0,,,82,60
109920,note_on,601,0,1,,,,,,,,,0,,,55,57
109921,control_change,1,0,0,,,,,,,64,0,0,,,,
109922,control_change,1,0,0,,,,,,,64,127,0,,,,
110147,note_on,227,0,1,,,,,,,,,0,,,55,0
110160,note_on,13,0,1,,,,,,,,,0,,,58,57
110160,note_on,0,0,1,,,,,,,,,0,,,67,57
110160,note_on,0,0,1,,,,,,,,,0,,,63,57
110279,note_on,0,0,1,,,,,,,,,0,,,67,0
110279,note_on,119,0,1,,,,,,,,,0,,,58,0
110279,note_on,0,0,1,,,,,,,,,0,,,63,0
110400,note_on,121,0,1,,,,,,,,,0,,,61,54
110458,note_on,58,0,1,,,,,,,,,0,,,61,0
110459,note_on,0,0,1,,,,,,,,,0,,,63,57
110459,note_on,0,0,1,,,,,,,,,0,,,67,57
110459,note_on,1,0,1,,,,,,,,,0,,,60,57
110489,note_on,0,0,0,,,,,,,,,0,,,94,0
110489,note_on,567,0,0,,,,,,,,,0,,,82,0
110520,note_on,31,0,0,,,,,,,,,0,,,91,60
110520,note_on,0,0,0,,,,,,,,,0,,,94,60
110548,note_on,89,0,1,,,,,,,,,0,,,60,0
110548,note_on,0,0,1,,,,,,,,,0,,,63,0
110548,note_on,0,0,1,,,,,,,,,0,,,67,0
110633,note_on,0,0,0,,,,,,,,,0,,,94,0
110633,note_on,113,0,0,,,,,,,,,0,,,91,0
110640,note_on,0,0,0,,,,,,,,,0,,,94,60
110640,note_on,0,0,1,,,,,,,,,0,,,63,57
110640,note_on,92,0,1,,,,,,,,,0,,,58,57
110640,note_on,7,0,0,,,,,,,,,0,,,87,60
110640,note_on,0,0,1,,,,,,,,,0,,,67,57
110753,note_on,113,0,0,,,,,,,,,0,,,87,0
110753,note_on,0,0,0,,,,,,,,,0,,,94,0
110759,note_on,0,0,1,,,,,,,,,0,,,67,0
110759,note_on,119,0,1,,,,,,,,,0,,,58,0
110759,note_on,0,0,1,,,,,,,,,0,,,63,0
110760,note_on,0,0,0,,,,,,,,,0,,,94,60
110760,note_on,7,0,0,,,,,,,,,0,,,84,60
110873,note_on,0,0,0,,,,,,,,,0,,,94,0
110873,note_on,113,0,0,,,,,,,,,0,,,84,0
110880,note_on,7,0,0,,,,,,,,,0,,,82,60
110880,note_on,0,0,0,,,,,,,,,0,,,94,60
110993,note_on,113,0,0,,,,,,,,,0,,,82,0
110993,note_on,0,0,0,,,,,,,,,0,,,94,0
111000,note_on,0,0,0,,,,,,,,,0,,,82,60
111000,note_on,7,0,0,,,,,,,,,0,,,79,60
111113,note_on,0,0,0,,,,,,,,,0,,,82,0
111113,note_on,113,0,0,,,,,,,,,0,,,79,0
111120,note_on,0,0,0,,,,,,,,,0,,,82,60
111120,note_on,7,0,0,,,,,,,,,0,,,75,60
111233,note_on,113,0,0,,,,,,,,,0,,,75,0
111233,note_on,0,0,0,,,,,,,,,0,,,82,0
111240,note_on,0,0,0,,,,,,,,,0,,,82,60
111240,note_on,7,0,0,,,,,,,,,0,,,72,60
111353,note_on,0,0,0,,,,,,,,,0,,,82,0
111353,note_on,113,0,0,,,,,,,,,0,,,72,0
111360,note_on,601,0,1,,,,,,,,,0,,,53,57
111360,note_on,7,0,0,,,,,,,,,0,,,70,60
111360,note_on,0,0,0,,,,,,,,,0,,,82,60
111361,control_change,1,0,0,,,,,,,64,0,0,,,,
111362,control_change,1,0,0,,,,,,,64,127,0,,,,
111587,note_on,227,0,1,,,,,,,,,0,,,53,0
111600,note_on,0,0,1,,,,,,,,,0,,,68,57
111600,note_on,0,0,1,,,,,,,,,0,,,65,57
111600,note_on,13,0,1,,,,,,,,,0,,,58,57
111827,note_on,0,0,1,,,,,,,,,0,,,68,0
111827,note_on,227,0,1,,,,,,,,,0,,,58,0
111827,note_on,0,0,1,,,,,,,,,0,,,65,0
111840,note_on,13,0,1,,,,,,,,,0,,,62,54
111898,note_on,58,0,1,,,,,,,,,0,,,62,0
111899,note_on,0,0,1,,,,,,,,,0,,,68,57
111899,note_on,1,0,1,,,,,,,,,0,,,59,57
111899,note_on,0,0,1,,,,,,,,,0,,,65,57
111929,note_on,0,0,0,,,,,,,,,0,,,82,0
111929,note_on,567,0,0,,,,,,,,,0,,,70,0
111960,note_on,0,0,0,,,,,,,,,0,,,82,60
111960,note_on,31,0,0,,,,,,,,,0,,,70,60
112069,note_on,170,0,1,,,,,,,,,0,,,59,0
112069,note_on,0,0,1,,,,,,,,,0,,,68,0
112069,note_on,0,0,1,,,,,,,,,0,,,65,0
112073,note_on,0,0,0,,,,,,,,,0,,,82,0
112073,note_on,113,0,0,,,,,,,,,0,,,70,0
112080,note_on,0,0,1,,,,,,,,,0,,,65,57
112080,note_on,11,0,1,,,,,,,,,0,,,58,57
112080,note_on,7,0,0,,,,,,,,,0,,,74,60
112080,note_on,0,0,0,,,,,,,,,0,,,82,60
112080,note_on,0,0,1,,,,,,,,,0,,,68,57
112193,note_on,113,0,0,,,,,,,,,0,,,74,0
112193,note_on,0,0,0,,,,,,,,,0,,,82,0
112200,note_on,7,0,0,,,,,,,,,0,,,77,60
112200,note_on,0,0,0,,,,,,,,,0,,,82,60
112307,note_on,0,0,1,,,,,,,,,0,,,68,0
112307,note_on,227,0,1,,,,,,,,,0,,,58,0
112307,note_on,0,0,1,,,,,,,,,0,,,65,0
112313,note_on,113,0,0,,,,,,,,,0,,,77,0
112313,note_on,0,0,0,,,,,,,,,0,,,82,0
112320,note_on,7,0,0,,,,,,,,,0,,,82,60
112433,note_on,113,0,0,,,,,,,,,0,,,82,0
112440,note_on,7,0,0,,,,,,,,,0,,,82,60
112440,note_on,0,0,0,,,,,,,,,0,,,86,60
112553,note_on,113,0,0,,,,,,,,,0,,,82,0
112553,note_on,0,0,0,,,,,,,,,0,,,86,0
112560,note_on,7,0,0,,,,,,,,,0,,,82,60
112560,note_on,0,0,0,,,,,,,,,0,,,89,60
112673,note_on,113,0,0,,,,,,,,,0,,,82,0
112673,note_on,0,0,0,,,,,,,,,0,,,89,0
112680,note_on,0,0,0,,,,,,,,,0,,,95,60
112680,note_on,7,0,0,,,,,,,,,0,,,82,60
112793,note_on,0,0,0,,,,,,,,,0,,,95,0
112793,note_on,113,0,0,,,,,,,,,0,,,82,0
112800,note_on,0,0,0,,,,,,,,,0,,,94,60
112800,note_on,7,0,0,,,,,,,,,0,,,82,60
112800,note_on,493,0,1,,,,,,,,,0,,,55,57
112801,control_change,1,0,0,,,,,,,64,0,0,,,,
112802,control_change,1,0,0,,,,,,,64,127,0,,,,
113027,note_on,227,0,1,,,,,,,,,0,,,55,0
113040,note_on,13,0,1,,,,,,,,,0,,,58,57
113040,note_on,0,0,1,,,,,,,,,0,,,66,57
113040,note_on,0,0,1,,,,,,,,,0,,,63,57
113267,note_on,0,0,1,,,,,,,,,0,,,66,0
113267,note_on,0,0,1,,,,,,,,,0,,,63,0
113267,note_on,227,0,1,,,,,,,,,0,,,58,0
113280,note_on,13,0,1,,,,,,,,,0,,,61,54
113338,note_on,58,0,1,,,,,,,,,0,,,61,0
113339,note_on,0,0,1,,,,,,,,,0,,,66,58
113339,note_on,0,0,1,,,,,,,,,0,,,63,58
113339,note_on,1,0,1,,,,,,,,,0,,,59,58
113369,note_on,0,0,0,,,,,,,,,0,,,94,0
113369,note_on,567,0,0,,,,,,,,,0,,,82,0
113400,set_tempo,31,1,0,,,,,,500000,,,,,,,
113400,note_on,0,0,0,,,,,,,,,0,,,94,62
113400,note_on,0,0,0,,,,,,,,,0,,,90,62
113509,note_on,0,0,1,,,,,,,,,0,,,66,0
113509,note_on,0,0,1,,,,,,,,,0,,,63,0
113509,note_on,170,0,1,,,,,,,,,0,,,59,0
113513,note_on,113,0,0,,,,,,,,,0,,,90,0
113513,note_on,0,0,0,,,,,,,,,0,,,94,0
113520,set_tempo,7,1,0,,,,,,498753,,,,,,,
113520,note_on,0,0,0,,,,,,,,,0,,,87,65
113520,note_on,0,0,0,,,,,,,,,0,,,94,65
113520,note_on,0,0,1,,,,,,,,,0,,,63,62
113520,note_on,0,0,1,,,,,,,,,0,,,66,62
113520,note_on,11,0,1,,,,,,,,,0,,,58,62
113633,note_on,0,0,0,,,,,,,,,0,,,94,0
113633,note_on,113,0,0,,,,,,,,,0,,,87,0
113640,note_on,0,0,0,,,,,,,,,0,,,94,67
113640,note_on,0,0,0,,,,,,,,,0,,,83,67
113640,set_tempo,7,1,0,,,,,,496278,,,,,,,
113747,note_on,0,0,1,,,,,,,,,0,,,63,0
113747,note_on,0,0,1,,,,,,,,,0,,,66,0
113747,note_on,227,0,1,,,,,,,,,0,,,58,0
113753,note_on,113,0,0,,,,,,,,,0,,,83,0
113753,note_on,0,0,0,,,,,,,,,0,,,94,0
113760,set_tempo,7,1,0,,,,,,493827,,,,,,,
113760,note_on,0,0,0,,,,,,,,,0,,,82,70
113760,note_on,0,0,0,,,,,,,,,0,,,94,70
113873,note_on,113,0,0,,,,,,,,,0,,,82,0
113873,note_on,0,0,0,,,,,,,,,0,,,94,0
113880,note_on,0,0,0,,,,,,,,,0,,,82,72
113880,set_tempo,7,1,0,,,,,,490597,,,,,,,
113880,note_on,0,0,0,,,,,,,,,0,,,78,72
113993,note_on,0,0,0,,,,,,,,,0,,,82,0
113993,note_on,113,0,0,,,,,,,,,0,,,78,0
114000,note_on,0,0,0,,,,,,,,,0,,,82,75
114000,note_on,0,0,0,,,,,,,,,0,,,75,75
114000,set_tempo,7,1,0,,,,,,487409,,,,,,,
114113,note_on,0,0,0,,,,,,,,,0,,,82,0
114113,note_on,113,0,0,,,,,,,,,0,,,75,0
114120,note_on,0,0,0,,,,,,,,,0,,,70,77
114120,note_on,0,0,0,,,,,,,,,0,,,82,77
114120,set_tempo,7,1,0,,,,,,483871,,,,,,,
114233,note_on,0,0,0,,,,,,,,,0,,,82,0
114233,note_on,113,0,0,,,,,,,,,0,,,70,0
114240,note_on,0,0,0,,,,,,,,,0,,,83,96
114240,note_on,0,0,1,,,,,,,,,0,,,45,76
114240,set_tempo,7,1,0,,,,,,480000,,,,,,,
114240,note_on,493,0,1,,,,,,,,,0,,,33,76
114241,control_change,1,0,0,,,,,,,64,0,0,,,,
114242,control_change,2,0,1,,,,,,,64,127,0,,,,
114308,note_on,67,0,0,,,,,,,,,0,,,99,96
114467,note_on,225,0,1,,,,,,,,,0,,,33,0
114467,note_on,0,0,1,,,,,,,,,0,,,45,0
114480,note_on,0,0,1,,,,,,,,,0,,,71,76
114480,note_on,13,0,1,,,,,,,,,0,,,57,76
114480,note_on,0,0,1,,,,,,,,,0,,,66,76
114480,note_on,0,0,1,,,,,,,,,0,,,63,76
114707,note_on,0,0,1,,,,,,,,,0,,,66,0
114707,note_on,0,0,1,,,,,,,,,0,,,63,0
114707,note_on,227,0,1,,,,,,,,,0,,,57,0
114707,note_on,0,0,1,,,,,,,,,0,,,71,0
114720,note_on,13,0,1,,,,,,,,,0,,,57,76
114750,note_on,30,0,1,,,,,,,,,0,,,63,76
114780,note_on,30,0,1,,,,,,,,,0,,,66,76
114810,note_on,30,0,1,,,,,,,,,0,,,75,76
114832,note_on,524,0,0,,,,,,,,,0,,,99,0
114833,note_on,1,0,0,,,,,,,,,0,,,83,0
114839,note_on,29,0,1,,,,,,,,,0,,,75,0
114840,note_on,1,0,1,,,,,,,,,0,,,73,76
114840,note_on,7,0,0,,,,,,,,,0,,,97,80
114840,note_on,0,0,0,,,,,,,,,0,,,99,80
114863,note_on,23,0,1,,,,,,,,,0,,,57,0
114893,note_on,30,0,1,,,,,,,,,0,,,63,0
114923,note_on,30,0,1,,,,,,,,,0,,,66,0
114953,note_on,113,0,0,,,,,,,,,0,,,97,0
114953,note_on,0,0,0,,,,,,,,,0,,,99,0
114953,note_on,30,0,1,,,,,,,,,0,,,73,0
114960,note_on,7,0,0,,,,,,,,,0,,,95,80
114960,note_on,0,0,1,,,,,,,,,0,,,66,80
114960,note_on,0,0,1,,,,,,,,,0,,,71,80
114960,note_on,7,0,1,,,,,,,,,0,,,57,80
114960,note_on,0,0,1,,,,,,,,,0,,,63,80
114960,note_on,0,0,0,,,,,,,,,0,,,99,80
115073,note_on,113,0,0,,,,,,,,,0,,,95,0
115073,note_on,0,0,0,,,,,,,,,0,,,99,0
115080,note_on,0,0,0,,,,,,,,,0,,,99,80
115080,note_on,7,0,0,,,,,,,,,0,,,92,80
115187,note_on,227,0,1,,,,,,,,,0,,,57,0
115187,note_on,0,0,1,,,,,,,,,0,,,66,0
115187,note_on,0,0,1,,,,,,,,,0,,,63,0
115187,note_on,0,0,1,,,,,,,,,0,,,71,0
115193,note_on,113,0,0,,,,,,,,,0,,,92,0
115193,note_on,0,0,0,,,,,,,,,0,,,99,0
115200,note_on,0,0,0,,,,,,,,,0,,,99,80
115200,note_on,7,0,0,,,,,,,,,0,,,90,80
115313,note_on,113,0,0,,,,,,,,,0,,,90,0
115313,note_on,0,0,0,,,,,,,,,0,,,99,0
115320,note_on,7,0,0,,,,,,,,,0,,,87,80
115320,note_on,0,0,0,,,,,,,,,0,,,99,80
115433,note_on,0,0,0,,,,,,,,,0,,,99,0
115433,note_on,113,0,0,,,,,,,,,0,,,87,0
115440,note_on,0,0,0,,,,,,,,,0,,,97,80
115440,note_on,7,0,0,,,,,,,,,0,,,87,80
115553,note_on,0,0,0,,,,,,,,,0,,,97,0
115553,note_on,113,0,0,,,,,,,,,0,,,87,0
115560,note_on,7,0,0,,,,,,,,,0,,,87,80
115560,note_on,0,0,0,,,,,,,,,0,,,95,80
115673,note_on,0,0,0,,,,,,,,,0,,,95,0
115673,note_on,113,0,0,,,,,,,,,0,,,87,0
115680,note_on,0,0,0,,,,,,,,,0,,,87,80
115680,set_tempo,7,1,0,,,,,,480000,,,,,,,
115680,note_on,0,0,0,,,,,,,,,0,,,92,80
115793,note_on,0,0,0,,,,,,,,,0,,,92,0
115793,note_on,113,0,0,,,,,,,,,0,,,87,0
115800,note_on,0,0,0,,,,,,,,,0,,,90,80
115800,note_on,0,0,0,,,,,,,,,0,,,87,80
115800,set_tempo,7,1,0,,,,,,481928,,,,,,,
115913,note_on,0,0,0,,,,,,,,,0,,,90,0
115913,note_on,113,0,0,,,,,,,,,0,,,87,0
115920,note_on,0,0,0,,,,,,,,,0,,,87,80
115920,set_tempo,7,1,0,,,,,,484653,,,,,,,
116033,note_on,113,0,0,,,,,,,,,0,,,87,0
116040,set_tempo,7,1,0,,,,,,488202,,,,,,,
116040,note_on,0,0,0,,,,,,,,,0,,,85,80
116040,note_on,0,0,0,,,,,,,,,0,,,87,80
116153,note_on,113,0,0,,,,,,,,,0,,,85,0
116153,note_on,0,0,0,,,,,,,,,0,,,87,0
116160,note_on,0,0,0,,,,,,,,,0,,,87,80
116160,note_on,0,0,0,,,,,,,,,0,,,83,80
116160,set_tempo,7,1,0,,,,,,492611,,,,,,,
116273,note_on,0,0,0,,,,,,,,,0,,,87,0
116273,note_on,113,0,0,,,,,,,,,0,,,83,0
116280,note_on,0,0,0,,,,,,,,,0,,,87,79
116280,note_on,0,0,0,,,,,,,,,0,,,80,79
116280,set_tempo,7,1,0,,,,,,497512,,,,,,,
116393,note_on,0,0,0,,,,,,,,,0,,,87,0
116393,note_on,113,0,0,,,,,,,,,0,,,80,0
116400,set_tempo,7,1,0,,,,,,502934,,,,,,,
116400,note_on,0,0,0,,,,,,,,,0,,,87,79
116400,note_on,0,0,0,,,,,,,,,0,,,78,79
116513,note_on,113,0,0,,,,,,,,,0,,,78,0
116513,note_on,0,0,0,,,,,,,,,0,,,87,0
116520,note_on,0,0,0,,,,,,,,,0,,,75,79
116520,note_on,0,0,0,,,,,,,,,0,,,87,79
116520,set_tempo,7,1,0,,,,,,508475,,,,,,,
116633,note_on,0,0,0,,,,,,,,,0,,,87,0
116633,note_on,113,0,0,,,,,,,,,0,,,75,0
116640,set_tempo,7,1,0,,,,,,515021,,,,,,,
116640,note_on,0,0,0,,,,,,,,,0,,,75,79
116640,note_on,0,0,0,,,,,,,,,0,,,85,79
116753,note_on,0,0,0,,,,,,,,,0,,,85,0
116753,note_on,113,0,0,,,,,,,,,0,,,75,0
116760,note_on,0,0,0,,,,,,,,,0,,,83,78
116760,note_on,0,0,0,,,,,,,,,0,,,75,78
116760,set_tempo,7,1,0,,,,,,521739,,,,,,,
116873,note_on,113,0,0,,,,,,,,,0,,,75,0
116873,note_on,0,0,0,,,,,,,,,0,,,83,0
116880,note_on,0,0,0,,,,,,,,,0,,,71,78
116880,note_on,0,0,0,,,,,,,,,0,,,75,78
116880,note_on,0,0,0,,,,,,,,,0,,,80,78
116880,set_tempo,7,1,0,,,,,,529101,,,,,,,
116993,note_on,0,0,0,,,,,,,,,0,,,80,0
116993,note_on,0,0,0,,,,,,,,,0,,,75,0
116993,note_on,113,0,0,,,,,,,,,0,,,71,0
117000,note_on,0,0,0,,,,,,,,,0,,,75,78
117000,set_tempo,7,1,0,,,,,,537153,,,,,,,
117000,note_on,0,0,0,,,,,,,,,0,,,78,78
117000,note_on,0,0,0,,,,,,,,,0,,,71,78
117113,note_on,0,0,0,,,,,,,,,0,,,78,0
117113,note_on,0,0,0,,,,,,,,,0,,,75,0
117113,note_on,113,0,0,,,,,,,,,0,,,71,0
117120,note_on,1933,0,1,,,,,,,,,0,,,32,77
117120,set_tempo,7,1,0,,,,,,571429,,,,,,,
117120,note_on,0,0,1,,,,,,,,,0,,,44,77
117120,note_on,0,0,0,,,,,,,,,0,,,71,77
117121,control_change,1,0,1,,,,,,,64,0,0,,,,
117122,control_change,2,0,0,,,,,,,64,127,0,,,,
117169,note_on,47,0,0,,,,,,,,,0,,,76,77
117219,note_on,50,0,0,,,,,,,,,0,,,85,77
117347,note_on,0,0,1,,,,,,,,,0,,,44,0
117347,note_on,226,0,1,,,,,,,,,0,,,32,0
117360,note_on,141,0,0,,,,,,,,,0,,,71,0
117360,note_on,0,0,1,,,,,,,,,0,,,71,77
117360,note_on,0,0,1,,,,,,,,,0,,,64,77
117360,note_on,13,0,1,,,,,,,,,0,,,56,77
117587,note_on,0,0,1,,,,,,,,,0,,,64,0
117587,note_on,227,0,1,,,,,,,,,0,,,56,0
117598,note_on,238,0,0,,,,,,,,,0,,,76,0
117599,note_on,12,0,1,,,,,,,,,0,,,71,0
117600,note_on,1,0,1,,,,,,,,,0,,,75,77
117600,note_on,0,0,1,,,,,,,,,0,,,56,77
117653,note_on,53,0,1,,,,,,,,,0,,,75,0
117655,note_on,57,0,0,,,,,,,,,0,,,85,0
117655,note_on,2,0,1,,,,,,,,,0,,,64,77
117711,note_on,56,0,1,,,,,,,,,0,,,73,77
117838,note_on,127,0,1,,,,,,,,,0,,,64,0
117838,note_on,0,0,1,,,,,,,,,0,,,73,0
117839,note_on,1,0,1,,,,,,,,,0,,,56,0
117840,note_on,185,0,0,,,,,,,,,0,,,83,77
117840,note_on,1,0,1,,,,,,,,,0,,,56,77
117840,note_on,0,0,1,,,,,,,,,0,,,71,77
117840,note_on,0,0,1,,,,,,,,,0,,,64,77
117858,note_on,18,0,0,,,,,,,,,0,,,83,0
117859,note_on,1,0,0,,,,,,,,,0,,,83,77
117877,note_on,18,0,0,,,,,,,,,0,,,83,0
117879,note_on,2,0,0,,,,,,,,,0,,,85,77
117897,note_on,18,0,0,,,,,,,,,0,,,85,0
117899,note_on,2,0,0,,,,,,,,,0,,,83,77
117917,note_on,18,0,0,,,,,,,,,0,,,83,0
117919,note_on,2,0,0,,,,,,,,,0,,,82,77
117937,note_on,18,0,0,,,,,,,,,0,,,82,0
117939,note_on,2,0,0,,,,,,,,,0,,,83,77
117957,note_on,18,0,0,,,,,,,,,0,,,83,0
117960,note_on,3,0,0,,,,,,,,,0,,,92,77
118067,note_on,0,0,1,,,,,,,,,0,,,64,0
118067,note_on,227,0,1,,,,,,,,,0,,,56,0
118067,note_on,0,0,1,,,,,,,,,0,,,71,0
118073,note_on,113,0,0,,,,,,,,,0,,,92,0
118080,note_on,7,0,0,,,,,,,,,0,,,87,77
118193,note_on,113,0,0,,,,,,,,,0,,,87,0
118200,note_on,7,0,0,,,,,,,,,0,,,90,77
118313,note_on,113,0,0,,,,,,,,,0,,,90,0
118320,note_on,7,0,0,,,,,,,,,0,,,88,77
118433,note_on,113,0,0,,,,,,,,,0,,,88,0
118440,note_on,7,0,0,,,,,,,,,0,,,80,77
118553,note_on,113,0,0,,,,,,,,,0,,,80,0
118560,note_on,7,0,0,,,,,,,,,0,,,81,77
118673,note_on,113,0,0,,,,,,,,,0,,,81,0
118680,note_on,7,0,0,,,,,,,,,0,,,85,77
118793,note_on,113,0,0,,,,,,,,,0,,,85,0
118860,note_on,67,0,0,,,,,,,,,0,,,83,77
118916,note_on,56,0,0,,,,,,,,,0,,,83,0
118920,note_on,4,0,0,,,,,,,,,0,,,75,77
119033,note_on,113,0,0,,,,,,,,,0,,,75,0
119040,note_on,7,0,0,,,,,,,,,0,,,76,77
119153,note_on,113,0,0,,,,,,,,,0,,,76,0
119160,note_on,7,0,0,,,,,,,,,0,,,81,77
119197,note_on,37,0,0,,,,,,,,,0,,,81,0
119200,note_on,3,0,0,,,,,,,,,0,,,80,77
119237,note_on,37,0,0,,,,,,,,,0,,,80,0
119240,note_on,3,0,0,,,,,,,,,0,,,81,77
119277,note_on,37,0,0,,,,,,,,,0,,,81,0
119280,note_on,3,0,0,,,,,,,,,0,,,80,77
119393,note_on,113,0,0,,,,,,,,,0,,,80,0
119400,note_on,7,0,0,,,,,,,,,0,,,78,77
119513,note_on,113,0,0,,,,,,,,,0,,,78,0
119520,note_on,7,0,0,,,,,,,,,0,,,76,77
119633,note_on,113,0,0,,,,,,,,,0,,,76,0
119640,set_tempo,7,1,0,,,,,,6006,,,,,,,
119999,set_tempo,359,1,0,,,,,,60060,,,,,,,
120000,note_on,1933,0,1,,,,,,,,,0,,,33,76
120000,note_on,0,0,0,,,,,,,,,0,,,71,96
120000,set_tempo,1,1,0,,,,,,521739,,,,,,,
120000,note_on,0,0,1,,,,,,,,,0,,,45,76
120001,control_change,1,0,0,,,,,,,64,0,0,,,,
120002,control_change,2,0,1,,,,,,,64,127,0,,,,
120063,note_on,62,0,0,,,,,,,,,0,,,87,96
120227,note_on,0,0,1,,,,,,,,,0,,,45,0
120227,note_on,225,0,1,,,,,,,,,0,,,33,0
120240,note_on,177,0,0,,,,,,,,,0,,,71,0
120240,note_on,13,0,1,,,,,,,,,0,,,57,76
120240,note_on,0,0,1,,,,,,,,,0,,,66,76
120240,note_on,0,0,1,,,,,,,,,0,,,71,76
120240,note_on,0,0,1,,,,,,,,,0,,,63,76
120467,note_on,0,0,1,,,,,,,,,0,,,66,0
120467,note_on,0,0,1,,,,,,,,,0,,,63,0
120467,note_on,227,0,1,,,,,,,,,0,,,57,0
120480,note_on,13,0,1,,,,,,,,,0,,,57,76
120510,note_on,30,0,1,,,,,,,,,0,,,63,76
120540,note_on,30,0,1,,,,,,,,,0,,,66,76
120570,note_on,30,0,1,,,,,,,,,0,,,74,76
120592,note_on,352,0,0,,,,,,,,,0,,,87,0
120593,note_on,23,0,1,,,,,,,,,0,,,71,0
120599,note_on,6,0,1,,,,,,,,,0,,,74,0
120600,note_on,8,0,0,,,,,,,,,0,,,84,80
120600,note_on,0,0,0,,,,,,,,,0,,,87,80
120600,note_on,1,0,1,,,,,,,,,0,,,72,76
120623,note_on,23,0,1,,,,,,,,,0,,,57,0
120653,note_on,30,0,1,,,,,,,,,0,,,63,0
120683,note_on,30,0,1,,,,,,,,,0,,,66,0
120713,note_on,30,0,1,,,,,,,,,0,,,72,0
120713,note_on,0,0,0,,,,,,,,,0,,,87,0
120713,note_on,113,0,0,,,,,,,,,0,,,84,0
120720,note_on,7,0,1,,,,,,,,,0,,,57,80
120720,note_on,7,0,0,,,,,,,,,0,,,83,80
120720,note_on,0,0,1,,,,,,,,,0,,,71,80
120720,note_on,0,0,1,,,,,,,,,0,,,63,80
120720,note_on,0,0,0,,,,,,,,,0,,,87,80
120720,note_on,0,0,1,,,,,,,,,0,,,66,80
120833,note_on,0,0,0,,,,,,,,,0,,,87,0
120833,note_on,113,0,0,,,,,,,,,0,,,83,0
120840,note_on,7,0,0,,,,,,,,,0,,,80,80
120840,note_on,0,0,0,,,,,,,,,0,,,87,80
120947,note_on,0,0,1,,,,,,,,,0,,,66,0
120947,note_on,227,0,1,,,,,,,,,0,,,57,0
120947,note_on,0,0,1,,,,,,,,,0,,,63,0
120947,note_on,0,0,1,,,,,,,,,0,,,71,0
120953,note_on,113,0,0,,,,,,,,,0,,,80,0
120953,note_on,0,0,0,,,,,,,,,0,,,87,0
120960,note_on,7,0,0,,,,,,,,,0,,,78,80
120960,note_on,0,0,0,,,,,,,,,0,,,87,80
121073,note_on,0,0,0,,,,,,,,,0,,,87,0
121073,note_on,113,0,0,,,,,,,,,0,,,78,0
121080,note_on,7,0,0,,,,,,,,,0,,,75,80
121080,note_on,0,0,0,,,,,,,,,0,,,87,80
121193,note_on,0,0,0,,,,,,,,,0,,,87,0
121193,note_on,113,0,0,,,,,,,,,0,,,75,0
121200,note_on,7,0,0,,,,,,,,,0,,,75,80
121200,note_on,0,0,0,,,,,,,,,0,,,84,80
121313,note_on,0,0,0,,,,,,,,,0,,,84,0
121313,note_on,113,0,0,,,,,,,,,0,,,75,0
121320,note_on,7,0,0,,,,,,,,,0,,,75,80
121320,note_on,0,0,0,,,,,,,,,0,,,83,80
121433,note_on,113,0,0,,,,,,,,,0,,,75,0
121433,note_on,0,0,0,,,,,,,,,0,,,83,0
121440,note_on,0,0,0,,,,,,,,,0,,,80,80
121440,note_on,7,0,0,,,,,,,,,0,,,75,80
121553,note_on,0,0,0,,,,,,,,,0,,,80,0
121553,note_on,113,0,0,,,,,,,,,0,,,75,0
121560,note_on,0,0,0,,,,,,,,,0,,,78,80
121560,note_on,7,0,0,,,,,,,,,0,,,75,80
121673,note_on,113,0,0,,,,,,,,,0,,,75,0
121673,note_on,0,0,0,,,,,,,,,0,,,78,0
121680,note_on,7,0,0,,,,,,,,,0,,,75,80
121793,note_on,113,0,0,,,,,,,,,0,,,75,0
121800,note_on,0,0,0,,,,,,,,,0,,,75,80
121800,note_on,0,0,0,,,,,,,,,0,,,72,80
121800,set_tempo,7,1,0,,,,,,521739,,,,,,,
121913,note_on,0,0,0,,,,,,,,,0,,,75,0
121913,note_on,113,0,0,,,,,,,,,0,,,72,0
121920,set_tempo,7,1,0,,,,,,522193,,,,,,,
121920,note_on,0,0,0,,,,,,,,,0,,,71,80
121920,note_on,0,0,0,,,,,,,,,0,,,75,80
122033,note_on,0,0,0,,,,,,,,,0,,,75,0
122033,note_on,113,0,0,,,,,,,,,0,,,71,0
122040,note_on,0,0,0,,,,,,,,,0,,,68,80
122040,note_on,0,0,0,,,,,,,,,0,,,75,80
122040,set_tempo,7,1,0,,,,,,523560,,,,,,,
122153,note_on,0,0,0,,,,,,,,,0,,,75,0
122153,note_on,113,0,0,,,,,,,,,0,,,68,0
122160,note_on,0,0,0,,,,,,,,,0,,,66,80
122160,note_on,0,0,0,,,,,,,,,0,,,75,80
122160,set_tempo,7,1,0,,,,,,525855,,,,,,,
122273,note_on,0,0,0,,,,,,,,,0,,,75,0
122273,note_on,113,0,0,,,,,,,,,0,,,66,0
122280,set_tempo,7,1,0,,,,,,529568,,,,,,,
122280,note_on,0,0,0,,,,,,,,,0,,,63,81
122280,note_on,0,0,0,,,,,,,,,0,,,75,81
122393,note_on,0,0,0,,,,,,,,,0,,,75,0
122393,note_on,113,0,0,,,,,,,,,0,,,63,0
122400,note_on,0,0,0,,,,,,,,,0,,,74,81
122400,note_on,0,0,0,,,,,,,,,0,,,62,81
122400,set_tempo,7,1,0,,,,,,534759,,,,,,,
122513,note_on,0,0,0,,,,,,,,,0,,,74,0
122513,note_on,113,0,0,,,,,,,,,0,,,62,0
122520,note_on,0,0,0,,,,,,,,,0,,,61,81
122520,set_tempo,7,1,0,,,,,,541028,,,,,,,
122520,note_on,0,0,0,,,,,,,,,0,,,73,81
122633,note_on,0,0,0,,,,,,,,,0,,,73,0
122633,note_on,113,0,0,,,,,,,,,0,,,61,0
122640,set_tempo,7,1,0,,,,,,549451,,,,,,,
122640,note_on,0,0,0,,,,,,,,,0,,,60,81
122640,note_on,0,0,0,,,,,,,,,0,,,72,81
122753,note_on,113,0,0,,,,,,,,,0,,,60,0
122753,note_on,0,0,0,,,,,,,,,0,,,72,0
122760,set_tempo,7,1,0,,,,,,559180,,,,,,,
122820,set_tempo,60,1,0,,,,,,750002,,,,,,,
122820,note_on,0,0,0,,,,,,,,,0,,,59,81
122820,note_on,0,0,0,,,,,,,,,0,,,71,81
122876,note_on,0,0,0,,,,,,,,,0,,,71,0
122876,note_on,56,0,0,,,,,,,,,0,,,59,0
122880,set_tempo,4,1,0,,,,,,571429,,,,,,,
122880,note_on,1933,0,1,,,,,,,,,0,,,34,82
122880,note_on,0,0,0,,,,,,,,,0,,,59,98
122880,note_on,0,0,0,,,,,,,,,0,,,71,98
122880,note_on,0,0,1,,,,,,,,,0,,,46,82
122881,control_change,1,0,1,,,,,,,64,0,0,,,,
122882,control_change,1,0,1,,,,,,,64,127,0,,,,
123107,note_on,225,0,1,,,,,,,,,0,,,34,0
123107,note_on,0,0,1,,,,,,,,,0,,,46,0
123120,note_on,0,0,1,,,,,,,,,0,,,67,82
123120,note_on,0,0,1,,,,,,,,,0,,,63,82
123120,note_on,13,0,1,,,,,,,,,0,,,55,82
123320,note_on,440,0,0,,,,,,,,,0,,,59,0
123320,note_on,0,0,0,,,,,,,,,0,,,71,0
123347,note_on,227,0,1,,,,,,,,,0,,,55,0
123347,note_on,0,0,1,,,,,,,,,0,,,67,0
123347,note_on,0,0,1,,,,,,,,,0,,,63,0
123360,note_on,0,0,1,,,,,,,,,0,,,55,82
123360,note_on,0,0,1,,,,,,,,,0,,,51,82
123360,note_on,13,0,1,,,,,,,,,0,,,46,82
123480,note_on,160,0,0,,,,,,,,,0,,,58,82
123480,note_on,0,0,0,,,,,,,,,0,,,70,82
123587,note_on,0,0,1,,,,,,,,,0,,,51,0
123587,note_on,0,0,1,,,,,,,,,0,,,55,0
123587,note_on,227,0,1,,,,,,,,,0,,,46,0
123599,note_on,0,0,0,,,,,,,,,0,,,70,0
123599,note_on,119,0,0,,,,,,,,,0,,,58,0
123600,note_on,1,0,0,,,,,,,,,0,,,67,82
123600,note_on,0,0,0,,,,,,,,,0,,,79,82
123719,note_on,119,0,0,,,,,,,,,0,,,67,0
123719,note_on,0,0,0,,,,,,,,,0,,,79,0
123720,note_on,0,0,0,,,,,,,,,0,,,74,82
123720,note_on,1,0,0,,,,,,,,,0,,,62,82
123839,note_on,0,0,0,,,,,,,,,0,,,74,0
123839,note_on,119,0,0,,,,,,,,,0,,,62,0
123840,note_on,1,0,0,,,,,,,,,0,,,65,82
123840,note_on,0,0,0,,,,,,,,,0,,,77,82
123959,note_on,119,0,0,,,,,,,,,0,,,65,0
123959,note_on,0,0,0,,,,,,,,,0,,,77,0
123960,note_on,1,0,0,,,,,,,,,0,,,63,82
123960,note_on,0,0,0,,,,,,,,,0,,,75,82
124079,note_on,0,0,0,,,,,,,,,0,,,75,0
124079,note_on,119,0,0,,,,,,,,,0,,,63,0
124080,note_on,0,0,0,,,,,,,,,0,,,67,82
124080,note_on,1,0,0,,,,,,,,,0,,,55,82
124259,note_on,0,0,0,,,,,,,,,0,,,67,0
124259,note_on,179,0,0,,,,,,,,,0,,,55,0
124260,note_on,0,0,0,,,,,,,,,0,,,72,82
124260,note_on,0,0,0,,,,,,,,,0,,,60,82
124260,set_tempo,1,1,0,,,,,,742857,,,,,,,
124319,set_tempo,59,1,0,,,,,,571429,,,,,,,
124319,note_on,0,0,0,,,,,,,,,0,,,60,0
124319,note_on,0,0,0,,,,,,,,,0,,,72,0
124320,note_on,0,0,1,,,,,,,,,0,,,46,82
124320,note_on,1,0,0,,,,,,,,,0,,,60,98
124320,note_on,0,0,0,,,,,,,,,0,,,72,98
124320,note_on,733,0,1,,,,,,,,,0,,,34,82
124321,control_change,1,0,1,,,,,,,64,0,0,,,,
124322,control_change,1,0,1,,,,,,,64,127,0,,,,
124547,note_on,225,0,1,,,,,,,,,0,,,34,0
124547,note_on,0,0,1,,,,,,,,,0,,,46,0
124560,note_on,0,0,1,,,,,,,,,0,,,65,82
124560,note_on,0,0,1,,,,,,,,,0,,,68,82
124560,note_on,13,0,1,,,,,,,,,0,,,62,82
124760,note_on,0,0,0,,,,,,,,,0,,,72,0
124760,note_on,440,0,0,,,,,,,,,0,,,60,0
124787,note_on,0,0,1,,,,,,,,,0,,,65,0
124787,note_on,0,0,1,,,,,,,,,0,,,68,0
124787,note_on,227,0,1,,,,,,,,,0,,,62,0
124800,note_on,13,0,1,,,,,,,,,0,,,46,82
124800,note_on,0,0,1,,,,,,,,,0,,,62,82
124800,note_on,0,0,1,,,,,,,,,0,,,56,82
124800,note_on,0,0,1,,,,,,,,,0,,,53,82
124920,note_on,0,0,0,,,,,,,,,0,,,70,82
124920,note_on,160,0,0,,,,,,,,,0,,,58,82
125027,note_on,0,0,1,,,,,,,,,0,,,56,0
125027,note_on,0,0,1,,,,,,,,,0,,,53,0
125027,note_on,227,0,1,,,,,,,,,0,,,46,0
125027,note_on,0,0,1,,,,,,,,,0,,,62,0
125039,note_on,119,0,0,,,,,,,,,0,,,58,0
125039,note_on,0,0,0,,,,,,,,,0,,,70,0
125040,note_on,0,0,0,,,,,,,,,0,,,74,82
125040,set_tempo,1,1,0,,,,,,705882,,,,,,,
125040,note_on,0,0,0,,,,,,,,,0,,,86,82
125129,note_on,0,0,0,,,,,,,,,0,,,86,0
125129,note_on,89,0,0,,,,,,,,,0,,,74,0
125130,note_on,0,0,0,,,,,,,,,0,,,72,82
125130,note_on,0,0,0,,,,,,,,,0,,,84,82
125130,set_tempo,1,1,0,,,,,,718563,,,,,,,
125219,note_on,89,0,0,,,,,,,,,0,,,72,0
125219,note_on,0,0,0,,,,,,,,,0,,,84,0
125220,note_on,0,0,0,,,,,,,,,0,,,82,82
125220,note_on,0,0,0,,,,,,,,,0,,,70,82
125220,set_tempo,1,1,0,,,,,,739827,,,,,,,
125280,set_tempo,60,1,0,,,,,,757576,,,,,,,
125309,note_on,0,0,0,,,,,,,,,0,,,82,0
125309,note_on,29,0,0,,,,,,,,,0,,,70,0
125310,note_on,0,0,0,,,,,,,,,0,,,80,82
125310,note_on,0,0,0,,,,,,,,,0,,,68,82
125310,set_tempo,1,1,0,,,,,,767263,,,,,,,
125399,note_on,0,0,0,,,,,,,,,0,,,80,0
125399,note_on,89,0,0,,,,,,,,,0,,,68,0
125400,set_tempo,1,1,0,,,,,,800000,,,,,,,
125400,note_on,0,0,0,,,,,,,,,0,,,59,82
125400,note_on,0,0,0,,,,,,,,,0,,,71,82
125489,note_on,0,0,0,,,,,,,,,0,,,71,0
125489,note_on,89,0,0,,,,,,,,,0,,,59,0
125490,note_on,0,0,0,,,,,,,,,0,,,72,82
125490,note_on,0,0,0,,,,,,,,,0,,,60,82
125490,set_tempo,1,1,0,,,,,,699301,,,,,,,
125579,note_on,0,0,0,,,,,,,,,0,,,72,0
125579,note_on,89,0,0,,,,,,,,,0,,,60,0
125580,note_on,0,0,0,,,,,,,,,0,,,73,82
125580,set_tempo,1,1,0,,,,,,689655,,,,,,,
125580,note_on,0,0,0,,,,,,,,,0,,,61,82
125669,note_on,89,0,0,,,,,,,,,0,,,61,0
125669,note_on,0,0,0,,,,,,,,,0,,,73,0
125670,set_tempo,1,1,0,,,,,,678733,,,,,,,
125670,note_on,0,0,0,,,,,,,,,0,,,62,82
125670,note_on,0,0,0,,,,,,,,,0,,,74,82
125754,note_on,0,0,0,,,,,,,,,0,,,74,0
125754,note_on,84,0,0,,,,,,,,,0,,,62,0
125760,note_on,6,0,0,,,,,,,,,0,,,63,82
125760,note_on,733,0,1,,,,,,,,,0,,,39,82
125760,note_on,0,0,1,,,,,,,,,0,,,55,82
125760,note_on,0,0,1,,,,,,,,,0,,,46,82
125760,note_on,0,0,0,,,,,,,,,0,,,75,82
125761,control_change,1,0,1,,,,,,,64,0,0,,,,
125987,note_on,0,0,1,,,,,,,,,0,,,55,0
125987,note_on,0,0,1,,,,,,,,,0,,,46,0
125987,note_on,227,0,0,,,,,,,,,0,,,63,0
125987,note_on,0,0,0,,,,,,,,,0,,,75,0
125987,note_on,226,0,1,,,,,,,,,0,,,39,0
126120,note_on,133,0,1,,,,,,,,,0,,,51,82
126122,control_change,2,0,1,,,,,,,64,127,0,,,,
126233,note_on,111,0,1,,,,,,,,,0,,,51,0
126240,set_tempo,253,1,0,,,,,,521739,,,,,,,
126240,note_on,7,0,1,,,,,,,,,0,,,51,82
126294,note_on,54,0,1,,,,,,,,,0,,,51,0
126299,note_on,5,0,1,,,,,,,,,0,,,53,82
126353,note_on,54,0,1,,,,,,,,,0,,,53,0
126360,note_on,7,0,1,,,,,,,,,0,,,51,82
126414,note_on,54,0,1,,,,,,,,,0,,,51,0
126419,note_on,5,0,1,,,,,,,,,0,,,53,82
126473,note_on,54,0,1,,,,,,,,,0,,,53,0
126480,note_on,7,0,1,,,,,,,,,0,,,51,82
126534,note_on,54,0,1,,,,,,,,,0,,,51,0
126539,note_on,5,0,1,,,,,,,,,0,,,53,82
126593,note_on,54,0,1,,,,,,,,,0,,,53,0
126600,note_on,7,0,1,,,,,,,,,0,,,51,82
126654,note_on,54,0,1,,,,,,,,,0,,,51,0
126659,note_on,5,0,1,,,,,,,,,0,,,53,82
126713,note_on,54,0,1,,,,,,,,,0,,,53,0
126720,note_on,7,0,1,,,,,,,,,0,,,51,82
126774,note_on,54,0,1,,,,,,,,,0,,,51,0
126779,note_on,5,0,1,,,,,,,,,0,,,53,82
126833,note_on,54,0,1,,,,,,,,,0,,,53,0
126840,note_on,7,0,1,,,,,,,,,0,,,51,82
126894,note_on,54,0,1,,,,,,,,,0,,,51,0
126899,note_on,5,0,1,,,,,,,,,0,,,53,82
126953,note_on,54,0,1,,,,,,,,,0,,,53,0
126960,note_on,7,0,1,,,,,,,,,0,,,51,82
127014,note_on,54,0,1,,,,,,,,,0,,,51,0
127019,note_on,5,0,1,,,,,,,,,0,,,53,82
127073,note_on,54,0,1,,,,,,,,,0,,,53,0
127080,note_on,7,0,1,,,,,,,,,0,,,51,82
127134,note_on,54,0,1,,,,,,,,,0,,,51,0
127139,note_on,5,0,1,,,,,,,,,0,,,53,82
127193,note_on,54,0,1,,,,,,,,,0,,,53,0
127200,note_on,7,0,1,,,,,,,,,0,,,50,82
127200,set_tempo,960,1,0,,,,,,375000,,,,,,,
127351,note_on,151,0,1,,,,,,,,,0,,,50,0
127360,note_on,9,0,1,,,,,,,,,0,,,51,82
127511,note_on,151,0,1,,,,,,,,,0,,,51,0
127520,note_on,9,0,1,,,,,,,,,0,,,55,82
127671,note_on,151,0,1,,,,,,,,,0,,,55,0
127680,note_on,9,0,1,,,,,,,,,0,,,58,82
127831,note_on,151,0,1,,,,,,,,,0,,,58,0
127840,note_on,9,0,1,,,,,,,,,0,,,61,82
127991,note_on,151,0,1,,,,,,,,,0,,,61,0
128000,note_on,9,0,1,,,,,,,,,0,,,63,81
128151,note_on,151,0,1,,,,,,,,,0,,,63,0
128160,note_on,9,0,1,,,,,,,,,0,,,67,81
128311,note_on,151,0,1,,,,,,,,,0,,,67,0
128320,note_on,9,0,1,,,,,,,,,0,,,70,81
128471,note_on,151,0,1,,,,,,,,,0,,,70,0
128480,note_on,9,0,1,,,,,,,,,0,,,73,81
128631,note_on,151,0,1,,,,,,,,,0,,,73,0
128640,set_tempo,1440,1,0,,,,,,500000,,,,,,,
128640,note_on,0,0,0,,,,,,,,,0,,,77,84
128641,control_change,10,0,1,,,,,,,64,0,0,,,,
128642,control_change,2,0,0,,,,,,,64,127,0,,,,
128760,note_on,119,0,1,,,,,,,,,0,,,51,76
128879,note_on,119,0,1,,,,,,,,,0,,,51,0
128880,note_on,0,0,0,,,,,,,,,0,,,67,72
128880,note_on,1,0,1,,,,,,,,,0,,,65,76
128880,note_on,238,0,0,,,,,,,,,0,,,61,72
128999,note_on,119,0,1,,,,,,,,,0,,,65,0
129000,note_on,1,0,1,,,,,,,,,0,,,63,76
129107,note_on,227,0,0,,,,,,,,,0,,,61,0
129107,note_on,0,0,0,,,,,,,,,0,,,67,0
129119,note_on,119,0,1,,,,,,,,,0,,,63,0
129120,note_on,1,0,1,,,,,,,,,0,,,60,76
129120,note_on,0,0,0,,,,,,,,,0,,,67,72
129120,note_on,13,0,0,,,,,,,,,0,,,61,72
129239,note_on,119,0,1,,,,,,,,,0,,,60,0
129240,note_on,1,0,1,,,,,,,,,0,,,58,76
129323,note_on,203,0,0,,,,,,,,,0,,,77,0
129347,note_on,24,0,0,,,,,,,,,0,,,61,0
129347,note_on,0,0,0,,,,,,,,,0,,,67,0
129359,note_on,119,0,1,,,,,,,,,0,,,58,0
129360,note_on,0,0,0,,,,,,,,,0,,,67,72
129360,note_on,0,0,0,,,,,,,,,0,,,61,72
129360,note_on,1,0,1,,,,,,,,,0,,,53,76
129360,note_on,13,0,0,,,,,,,,,0,,,75,84
129479,note_on,119,0,1,,,,,,,,,0,,,53,0
129480,note_on,1,0,1,,,,,,,,,0,,,51,76
129587,note_on,227,0,0,,,,,,,,,0,,,75,0
129587,note_on,0,0,0,,,,,,,,,0,,,61,0
129587,note_on,0,0,0,,,,,,,,,0,,,67,0
129599,note_on,119,0,1,,,,,,,,,0,,,51,0
129600,note_on,0,0,0,,,,,,,,,0,,,67,72
129600,note_on,13,0,0,,,,,,,,,0,,,69,84
129600,note_on,0,0,0,,,,,,,,,0,,,61,72
129600,note_on,1,0,1,,,,,,,,,0,,,48,76
129719,note_on,119,0,1,,,,,,,,,0,,,48,0
129720,note_on,1,0,1,,,,,,,,,0,,,46,76
129827,note_on,0,0,0,,,,,,,,,0,,,61,0
129827,note_on,0,0,0,,,,,,,,,0,,,67,0
129827,note_on,227,0,0,,,,,,,,,0,,,69,0
129839,note_on,119,0,1,,,,,,,,,0,,,46,0
129840,note_on,0,0,0,,,,,,,,,0,,,61,72
129840,note_on,0,0,0,,,,,,,,,0,,,67,72
129840,note_on,1,0,1,,,,,,,,,0,,,41,76
129840,note_on,13,0,0,,,,,,,,,0,,,70,84
129959,note_on,119,0,1,,,,,,,,,0,,,41,0
129960,note_on,1,0,1,,,,,,,,,0,,,39,76
130067,note_on,0,0,0,,,,,,,,,0,,,67,0
130067,note_on,0,0,0,,,,,,,,,0,,,61,0
130067,note_on,227,0,0,,,,,,,,,0,,,70,0
130073,note_on,113,0,1,,,,,,,,,0,,,39,0
130080,note_on,13,0,0,,,,,,,,,0,,,78,84
130081,control_change,1,0,0,,,,,,,64,0,0,,,,
130082,control_change,1,0,0,,,,,,,64,127,0,,,,
130200,note_on,127,0,1,,,,,,,,,0,,,51,80
130319,note_on,119,0,1,,,,,,,,,0,,,51,0
130320,note_on,0,0,0,,,,,,,,,0,,,67,72
130320,note_on,238,0,0,,,,,,,,,0,,,61,72
130320,note_on,1,0,1,,,,,,,,,0,,,66,80
130439,note_on,119,0,1,,,,,,,,,0,,,66,0
130440,note_on,1,0,1,,,,,,,,,0,,,65,80
130547,note_on,227,0,0,,,,,,,,,0,,,61,0
130547,note_on,0,0,0,,,,,,,,,0,,,67,0
130559,note_on,119,0,1,,,,,,,,,0,,,65,0
130560,note_on,0,0,0,,,,,,,,,0,,,67,72
130560,note_on,0,0,0,,,,,,,,,0,,,61,0
130560,note_on,13,0,0,,,,,,,,,0,,,61,72
130560,note_on,1,0,1,,,,,,,,,0,,,61,80
130680,note_on,120,0,1,,,,,,,,,0,,,60,80
130763,note_on,203,0,0,,,,,,,,,0,,,78,0
130787,note_on,107,0,1,,,,,,,,,0,,,61,0
130787,note_on,24,0,0,,,,,,,,,0,,,67,0
130799,note_on,12,0,1,,,,,,,,,0,,,60,0
130800,note_on,0,0,0,,,,,,,,,0,,,67,72
130800,note_on,1,0,1,,,,,,,,,0,,,54,80
130800,note_on,13,0,0,,,,,,,,,0,,,77,84
130800,note_on,0,0,0,,,,,,,,,0,,,61,72
130919,note_on,119,0,1,,,,,,,,,0,,,54,0
130920,note_on,1,0,1,,,,,,,,,0,,,53,80
131027,note_on,0,0,0,,,,,,,,,0,,,67,0
131027,note_on,0,0,0,,,,,,,,,0,,,61,0
131027,note_on,227,0,0,,,,,,,,,0,,,77,0
131033,note_on,113,0,1,,,,,,,,,0,,,53,0
131040,note_on,0,0,0,,,,,,,,,0,,,67,72
131040,note_on,0,0,0,,,,,,,,,0,,,61,72
131040,note_on,7,0,1,,,,,,,,,0,,,49,80
131040,note_on,13,0,0,,,,,,,,,0,,,71,84
131153,note_on,113,0,1,,,,,,,,,0,,,49,0
131160,note_on,7,0,1,,,,,,,,,0,,,48,80
131267,note_on,0,0,0,,,,,,,,,0,,,67,0
131267,note_on,0,0,0,,,,,,,,,0,,,61,0
131267,note_on,227,0,0,,,,,,,,,0,,,71,0
131273,note_on,113,0,1,,,,,,,,,0,,,48,0
131280,note_on,13,0,0,,,,,,,,,0,,,72,84
131280,note_on,0,0,0,,,,,,,,,0,,,67,72
131280,note_on,0,0,0,,,,,,,,,0,,,61,72
131280,note_on,7,0,1,,,,,,,,,0,,,42,80
131393,note_on,113,0,1,,,,,,,,,0,,,42,0
131400,note_on,7,0,1,,,,,,,,,0,,,39,80
131507,note_on,0,0,0,,,,,,,,,0,,,67,0
131507,note_on,0,0,0,,,,,,,,,0,,,61,0
131507,note_on,227,0,0,,,,,,,,,0,,,72,0
131513,note_on,113,0,1,,,,,,,,,0,,,39,0
131520,time_signature,13,1,0,7,4,24,8,,,,,,,,,
131520,note_on,0,0,0,,,,,,,,,0,,,80,84
131521,control_change,1,0,0,,,,,,,64,0,0,,,,
131640,note_on,127,0,1,,,,,,,,,0,,,51,76
131642,control_change,2,0,1,,,,,,,64,127,0,,,,
131759,note_on,117,0,1,,,,,,,,,0,,,51,0
131760,note_on,239,0,0,,,,,,,,,0,,,65,72
131760,note_on,0,0,0,,,,,,,,,0,,,71,72
131760,note_on,1,0,1,,,,,,,,,0,,,68,76
131879,note_on,119,0,1,,,,,,,,,0,,,68,0
131880,note_on,1,0,1,,,,,,,,,0,,,67,76
131987,note_on,0,0,0,,,,,,,,,0,,,71,0
131987,note_on,227,0,0,,,,,,,,,0,,,65,0
131999,note_on,119,0,1,,,,,,,,,0,,,67,0
132000,note_on,1,0,1,,,,,,,,,0,,,63,76
132000,note_on,13,0,0,,,,,,,,,0,,,65,72
132000,note_on,0,0,0,,,,,,,,,0,,,71,72
132119,note_on,119,0,1,,,,,,,,,0,,,63,0
132120,note_on,1,0,1,,,,,,,,,0,,,62,76
132227,note_on,227,0,0,,,,,,,,,0,,,65,0
132227,note_on,0,0,0,,,,,,,,,0,,,71,0
132239,note_on,119,0,1,,,,,,,,,0,,,62,0
132240,note_on,1,0,1,,,,,,,,,0,,,56,76
132240,note_on,0,0,0,,,,,,,,,0,,,71,72
132240,note_on,13,0,0,,,,,,,,,0,,,65,72
132359,note_on,119,0,1,,,,,,,,,0,,,56,0
132360,note_on,1,0,1,,,,,,,,,0,,,55,76
132431,note_on,191,0,0,,,,,,,,,0,,,80,0
132467,note_on,0,0,0,,,,,,,,,0,,,71,0
132467,note_on,36,0,0,,,,,,,,,0,,,65,0
132479,note_on,119,0,1,,,,,,,,,0,,,55,0
132480,note_on,0,0,0,,,,,,,,,0,,,71,72
132480,note_on,13,0,0,,,,,,,,,0,,,79,84
132480,note_on,1,0,1,,,,,,,,,0,,,51,76
132480,note_on,0,0,0,,,,,,,,,0,,,65,72
132599,note_on,119,0,1,,,,,,,,,0,,,51,0
132600,note_on,1,0,1,,,,,,,,,0,,,50,76
132707,note_on,0,0,0,,,,,,,,,0,,,71,0
132707,note_on,227,0,0,,,,,,,,,0,,,65,0
132719,note_on,119,0,1,,,,,,,,,0,,,50,0
132720,note_on,1,0,1,,,,,,,,,0,,,44,76
132720,note_on,13,0,0,,,,,,,,,0,,,65,72
132720,note_on,0,0,0,,,,,,,,,0,,,71,72
132839,note_on,119,0,1,,,,,,,,,0,,,44,0
132840,note_on,1,0,1,,,,,,,,,0,,,43,76
132935,note_on,215,0,0,,,,,,,,,0,,,79,0
132947,note_on,0,0,0,,,,,,,,,0,,,71,0
132947,note_on,12,0,0,,,,,,,,,0,,,65,0
132953,note_on,113,0,1,,,,,,,,,0,,,43,0
132960,note_on,0,0,0,,,,,,,,,0,,,82,88
132960,note_on,0,0,0,,,,,,,,,0,,,73,88
132960,note_on,13,0,0,,,,,,,,,0,,,67,88
132961,control_change,8,0,1,,,,,,,64,0,0,,,,
133020,set_tempo,60,1,0,,,,,,3000000,,,,,,,
133079,note_on,0,0,0,,,,,,,,,0,,,73,0
133079,set_tempo,59,1,0,,,,,,500000,,,,,,,
133079,note_on,0,0,0,,,,,,,,,0,,,67,0
133079,note_on,0,0,0,,,,,,,,,0,,,82,0
133080,note_on,119,0,1,,,,,,,,,0,,,39,80
133193,note_on,113,0,1,,,,,,,,,0,,,39,0
133200,note_on,7,0,1,,,,,,,,,0,,,39,80
133202,control_change,2,0,1,,,,,,,64,127,0,,,,
133255,note_on,53,0,1,,,,,,,,,0,,,39,0
133260,note_on,5,0,1,,,,,,,,,0,,,41,80
133315,note_on,55,0,1,,,,,,,,,0,,,41,0
133320,note_on,5,0,1,,,,,,,,,0,,,39,80
133375,note_on,55,0,1,,,,,,,,,0,,,39,0
133380,note_on,5,0,1,,,,,,,,,0,,,41,80
133435,note_on,55,0,1,,,,,,,,,0,,,41,0
133440,note_on,5,0,1,,,,,,,,,0,,,39,80
133495,note_on,55,0,1,,,,,,,,,0,,,39,0
133500,note_on,5,0,1,,,,,,,,,0,,,41,80
133555,note_on,55,0,1,,,,,,,,,0,,,41,0
133560,note_on,5,0,1,,,,,,,,,0,,,39,80
133615,note_on,55,0,1,,,,,,,,,0,,,39,0
133620,note_on,5,0,1,,,,,,,,,0,,,41,80
133675,note_on,55,0,1,,,,,,,,,0,,,41,0
133680,note_on,5,0,1,,,,,,,,,0,,,38,80
133799,note_on,119,0,1,,,,,,,,,0,,,38,0
133800,note_on,1,0,1,,,,,,,,,0,,,39,80
133919,note_on,119,0,1,,,,,,,,,0,,,39,0
133920,note_on,1,0,1,,,,,,,,,0,,,43,80
134039,note_on,119,0,1,,,,,,,,,0,,,43,0
134040,note_on,1,0,1,,,,,,,,,0,,,46,80
134159,note_on,119,0,1,,,,,,,,,0,,,46,0
134160,note_on,1,0,1,,,,,,,,,0,,,49,80
134279,note_on,119,0,1,,,,,,,,,0,,,49,0
134280,note_on,1,0,1,,,,,,,,,0,,,51,80
134399,note_on,119,0,1,,,,,,,,,0,,,51,0
134400,note_on,1,0,1,,,,,,,,,0,,,55,80
134519,note_on,119,0,1,,,,,,,,,0,,,55,0
134520,note_on,1,0,1,,,,,,,,,0,,,58,80
134639,note_on,119,0,1,,,,,,,,,0,,,58,0
134640,set_tempo,1561,1,0,,,,,,250000,,,,,,,
134640,note_on,1,0,1,,,,,,,,,0,,,61,80
134867,note_on,227,0,1,,,,,,,,,0,,,61,0
134879,set_tempo,239,1,0,,,,,,500000,,,,,,,
134880,time_signature,1,1,0,6,4,24,8,,,,,,,,,
134880,note_on,13,0,1,,,,,,,,,0,,,65,106
134881,control_change,1,0,1,,,,,,,64,0,0,,,,
134882,control_change,1,0,1,,,,,,,64,127,0,,,,
134960,note_on,80,0,0,,,,,,,,,0,,,67,65
135039,note_on,79,0,0,,,,,,,,,0,,,67,0
135040,note_on,1,0,0,,,,,,,,,0,,,70,65
135119,note_on,79,0,0,,,,,,,,,0,,,70,0
135120,note_on,1,0,0,,,,,,,,,0,,,73,65
135120,note_on,0,0,1,,,,,,,,,0,,,55,62
135120,note_on,0,0,1,,,,,,,,,0,,,61,62
135120,note_on,238,0,1,,,,,,,,,0,,,51,62
135199,note_on,79,0,0,,,,,,,,,0,,,73,0
135200,note_on,1,0,0,,,,,,,,,0,,,75,65
135279,note_on,79,0,0,,,,,,,,,0,,,75,0
135280,note_on,1,0,0,,,,,,,,,0,,,79,65
135347,note_on,0,0,1,,,,,,,,,0,,,55,0
135347,note_on,0,0,1,,,,,,,,,0,,,61,0
135347,note_on,227,0,1,,,,,,,,,0,,,51,0
135359,note_on,79,0,0,,,,,,,,,0,,,79,0
135360,note_on,13,0,1,,,,,,,,,0,,,51,62
135360,note_on,0,0,1,,,,,,,,,0,,,55,62
135360,note_on,1,0,0,,,,,,,,,0,,,82,65
135360,note_on,0,0,1,,,,,,,,,0,,,61,62
135439,note_on,79,0,0,,,,,,,,,0,,,82,0
135440,note_on,1,0,0,,,,,,,,,0,,,85,65
135519,note_on,79,0,0,,,,,,,,,0,,,85,0
135520,note_on,1,0,0,,,,,,,,,0,,,89,65
135587,note_on,227,0,1,,,,,,,,,0,,,51,0
135587,note_on,0,0,1,,,,,,,,,0,,,55,0
135587,note_on,0,0,1,,,,,,,,,0,,,61,0
135599,note_on,12,0,1,,,,,,,,,0,,,65,0
135599,note_on,79,0,0,,,,,,,,,0,,,89,0
135600,note_on,1,0,1,,,,,,,,,0,,,63,71
135600,note_on,1,0,0,,,,,,,,,0,,,87,65
135679,note_on,79,0,0,,,,,,,,,0,,,87,0
135680,note_on,1,0,0,,,,,,,,,0,,,85,65
135759,note_on,79,0,0,,,,,,,,,0,,,85,0
135760,note_on,1,0,0,,,,,,,,,0,,,82,65
135827,note_on,227,0,1,,,,,,,,,0,,,63,0
135839,note_on,79,0,0,,,,,,,,,0,,,82,0
135840,note_on,1,0,0,,,,,,,,,0,,,79,65
135840,note_on,13,0,1,,,,,,,,,0,,,57,71
135919,note_on,79,0,0,,,,,,,,,0,,,79,0
135920,note_on,1,0,0,,,,,,,,,0,,,75,65
135999,note_on,79,0,0,,,,,,,,,0,,,75,0
136000,note_on,1,0,0,,,,,,,,,0,,,73,65
136067,note_on,227,0,1,,,,,,,,,0,,,57,0
136079,note_on,79,0,0,,,,,,,,,0,,,73,0
136080,note_on,1,0,0,,,,,,,,,0,,,70,65
136080,note_on,13,0,1,,,,,,,,,0,,,58,71
136159,note_on,79,0,0,,,,,,,,,0,,,70,0
136160,note_on,1,0,0,,,,,,,,,0,,,67,65
136239,note_on,79,0,0,,,,,,,,,0,,,67,0
136240,note_on,1,0,0,,,,,,,,,0,,,63,65
136307,note_on,227,0,1,,,,,,,,,0,,,58,0
136315,note_on,75,0,0,,,,,,,,,0,,,63,0
136320,note_on,13,0,1,,,,,,,,,0,,,66,111
136321,control_change,1,0,1,,,,,,,64,0,0,,,,
136322,control_change,1,0,1,,,,,,,64,127,0,,,,
136400,note_on,85,0,0,,,,,,,,,0,,,69,65
136479,note_on,79,0,0,,,,,,,,,0,,,69,0
136480,note_on,1,0,0,,,,,,,,,0,,,72,65
136559,note_on,79,0,0,,,,,,,,,0,,,72,0
136560,note_on,0,0,1,,,,,,,,,0,,,60,62
136560,note_on,238,0,1,,,,,,,,,0,,,51,62
136560,note_on,1,0,0,,,,,,,,,0,,,75,65
136560,note_on,0,0,1,,,,,,,,,0,,,57,62
136639,note_on,79,0,0,,,,,,,,,0,,,75,0
136640,note_on,1,0,0,,,,,,,,,0,,,78,65
136719,note_on,79,0,0,,,,,,,,,0,,,78,0
136720,note_on,1,0,0,,,,,,,,,0,,,81,65
136787,note_on,0,0,1,,,,,,,,,0,,,60,0
136787,note_on,227,0,1,,,,,,,,,0,,,51,0
136787,note_on,0,0,1,,,,,,,,,0,,,57,0
136799,note_on,79,0,0,,,,,,,,,0,,,81,0
136800,note_on,1,0,0,,,,,,,,,0,,,84,65
136800,note_on,13,0,1,,,,,,,,,0,,,51,62
136800,note_on,0,0,1,,,,,,,,,0,,,57,62
136800,note_on,0,0,1,,,,,,,,,0,,,60,62
136879,note_on,79,0,0,,,,,,,,,0,,,84,0
136880,note_on,1,0,0,,,,,,,,,0,,,87,65
136959,note_on,79,0,0,,,,,,,,,0,,,87,0
136960,note_on,1,0,0,,,,,,,,,0,,,90,65
137027,note_on,0,0,1,,,,,,,,,0,,,60,0
137027,note_on,0,0,1,,,,,,,,,0,,,57,0
137027,note_on,227,0,1,,,,,,,,,0,,,51,0
137039,note_on,12,0,1,,,,,,,,,0,,,66,0
137039,note_on,79,0,0,,,,,,,,,0,,,90,0
137040,note_on,1,0,1,,,,,,,,,0,,,65,71
137040,note_on,1,0,0,,,,,,,,,0,,,89,65
137119,note_on,79,0,0,,,,,,,,,0,,,89,0
137120,note_on,1,0,0,,,,,,,,,0,,,87,65
137199,note_on,79,0,0,,,,,,,,,0,,,87,0
137200,note_on,1,0,0,,,,,,,,,0,,,84,65
137267,note_on,227,0,1,,,,,,,,,0,,,65,0
137279,note_on,79,0,0,,,,,,,,,0,,,84,0
137280,note_on,13,0,1,,,,,,,,,0,,,59,71
137280,note_on,1,0,0,,,,,,,,,0,,,81,65
137359,note_on,79,0,0,,,,,,,,,0,,,81,0
137360,note_on,1,0,0,,,,,,,,,0,,,77,65
137439,note_on,79,0,0,,,,,,,,,0,,,77,0
137440,note_on,1,0,0,,,,,,,,,0,,,75,65
137507,note_on,227,0,1,,,,,,,,,0,,,59,0
137519,note_on,79,0,0,,,,,,,,,0,,,75,0
137520,note_on,13,0,1,,,,,,,,,0,,,60,71
137520,note_on,1,0,0,,,,,,,,,0,,,72,65
137599,note_on,79,0,0,,,,,,,,,0,,,72,0
137600,note_on,1,0,0,,,,,,,,,0,,,69,65
137679,note_on,79,0,0,,,,,,,,,0,,,69,0
137680,note_on,1,0,0,,,,,,,,,0,,,65,65
137747,note_on,227,0,1,,,,,,,,,0,,,60,0
137755,note_on,75,0,0,,,,,,,,,0,,,65,0
137760,note_on,13,0,1,,,,,,,,,0,,,68,89
137761,control_change,1,0,1,,,,,,,64,0,0,,,,
137762,control_change,7,0,0,,,,,,,64,127,0,,,,
137840,note_on,78,0,0,,,,,,,,,0,,,71,65
137919,note_on,79,0,0,,,,,,,,,0,,,71,0
137920,note_on,1,0,0,,,,,,,,,0,,,74,65
137999,note_on,79,0,0,,,,,,,,,0,,,74,0
138000,note_on,239,0,1,,,,,,,,,0,,,51,59
138000,note_on,1,0,0,,,,,,,,,0,,,77,65
138000,note_on,0,0,1,,,,,,,,,0,,,62,59
138000,note_on,0,0,1,,,,,,,,,0,,,59,59
138079,note_on,79,0,0,,,,,,,,,0,,,77,0
138080,note_on,1,0,0,,,,,,,,,0,,,80,65
138159,note_on,79,0,0,,,,,,,,,0,,,80,0
138160,note_on,1,0,0,,,,,,,,,0,,,83,65
138227,note_on,0,0,1,,,,,,,,,0,,,62,0
138227,note_on,0,0,1,,,,,,,,,0,,,59,0
138227,note_on,227,0,1,,,,,,,,,0,,,51,0
138239,note_on,79,0,0,,,,,,,,,0,,,83,0
138240,note_on,0,0,1,,,,,,,,,0,,,59,59
138240,note_on,0,0,1,,,,,,,,,0,,,62,59
138240,note_on,13,0,1,,,,,,,,,0,,,51,59
138240,note_on,1,0,0,,,,,,,,,0,,,86,65
138319,note_on,79,0,0,,,,,,,,,0,,,86,0
138320,note_on,1,0,0,,,,,,,,,0,,,89,65
138399,note_on,79,0,0,,,,,,,,,0,,,89,0
138400,note_on,1,0,0,,,,,,,,,0,,,92,65
138402,note_on,162,0,1,,,,,,,,,0,,,68,0
138467,note_on,0,0,1,,,,,,,,,0,,,62,0
138467,note_on,65,0,1,,,,,,,,,0,,,51,0
138467,note_on,0,0,1,,,,,,,,,0,,,59,0
138479,note_on,79,0,0,,,,,,,,,0,,,92,0
138480,note_on,0,0,1,,,,,,,,,0,,,62,59
138480,note_on,13,0,1,,,,,,,,,0,,,51,59
138480,note_on,1,0,0,,,,,,,,,0,,,91,65
138480,note_on,0,0,1,,,,,,,,,0,,,59,59
138559,note_on,79,0,0,,,,,,,,,0,,,91,0
138560,note_on,1,0,0,,,,,,,,,0,,,89,65
138639,note_on,79,0,0,,,,,,,,,0,,,89,0
138640,note_on,1,0,0,,,,,,,,,0,,,86,65
138707,note_on,0,0,1,,,,,,,,,0,,,62,0
138707,note_on,0,0,1,,,,,,,,,0,,,59,0
138707,note_on,227,0,1,,,,,,,,,0,,,51,0
138719,note_on,79,0,0,,,,,,,,,0,,,86,0
138720,note_on,13,0,1,,,,,,,,,0,,,67,78
138720,note_on,1,0,0,,,,,,,,,0,,,83,65
138799,note_on,79,0,0,,,,,,,,,0,,,83,0
138800,note_on,1,0,0,,,,,,,,,0,,,79,65
138879,note_on,79,0,0,,,,,,,,,0,,,79,0
138880,note_on,1,0,0,,,,,,,,,0,,,77,65
138959,note_on,79,0,0,,,,,,,,,0,,,77,0
138960,note_on,0,0,1,,,,,,,,,0,,,59,59
138960,note_on,240,0,1,,,,,,,,,0,,,51,59
138960,note_on,1,0,0,,,,,,,,,0,,,74,65
138960,note_on,0,0,1,,,,,,,,,0,,,62,59
139039,note_on,79,0,0,,,,,,,,,0,,,74,0
139040,note_on,1,0,0,,,,,,,,,0,,,71,65
139119,note_on,79,0,0,,,,,,,,,0,,,71,0
139120,note_on,1,0,0,,,,,,,,,0,,,67,65
139120,note_on,160,0,1,,,,,,,,,0,,,67,0
139187,note_on,67,0,1,,,,,,,,,0,,,51,0
139187,note_on,0,0,1,,,,,,,,,0,,,59,0
139187,note_on,0,0,1,,,,,,,,,0,,,62,0
139195,note_on,75,0,0,,,,,,,,,0,,,67,0
139200,note_on,13,0,1,,,,,,,,,0,,,70,111
139201,control_change,6,0,0,,,,,,,64,0,0,,,,
139202,control_change,1,0,0,,,,,,,64,127,0,,,,
139280,note_on,78,0,0,,,,,,,,,0,,,73,65
139359,note_on,79,0,0,,,,,,,,,0,,,73,0
139360,note_on,1,0,0,,,,,,,,,0,,,76,65
139439,note_on,79,0,0,,,,,,,,,0,,,76,0
139440,note_on,0,0,1,,,,,,,,,0,,,64,59
139440,note_on,0,0,1,,,,,,,,,0,,,61,59
139440,note_on,240,0,1,,,,,,,,,0,,,51,59
139440,note_on,1,0,0,,,,,,,,,0,,,79,65
139519,note_on,79,0,0,,,,,,,,,0,,,79,0
139520,note_on,1,0,0,,,,,,,,,0,,,82,65
139599,note_on,79,0,0,,,,,,,,,0,,,82,0
139600,note_on,1,0,0,,,,,,,,,0,,,85,65
139667,note_on,0,0,1,,,,,,,,,0,,,64,0
139667,note_on,227,0,1,,,,,,,,,0,,,51,0
139667,note_on,0,0,1,,,,,,,,,0,,,61,0
139679,note_on,79,0,0,,,,,,,,,0,,,85,0
139680,note_on,13,0,1,,,,,,,,,0,,,51,59
139680,note_on,0,0,1,,,,,,,,,0,,,61,59
139680,note_on,0,0,1,,,,,,,,,0,,,64,59
139680,note_on,1,0,0,,,,,,,,,0,,,88,65
139759,note_on,79,0,0,,,,,,,,,0,,,88,0
139760,note_on,1,0,0,,,,,,,,,0,,,91,65
139839,note_on,79,0,0,,,,,,,,,0,,,91,0
139840,note_on,1,0,0,,,,,,,,,0,,,96,65
139907,note_on,0,0,1,,,,,,,,,0,,,61,0
139907,note_on,227,0,1,,,,,,,,,0,,,51,0
139907,note_on,0,0,1,,,,,,,,,0,,,64,0
139919,note_on,79,0,0,,,,,,,,,0,,,96,0
139920,note_on,0,0,1,,,,,,,,,0,,,64,59
139920,note_on,1,0,0,,,,,,,,,0,,,94,65
139920,note_on,13,0,1,,,,,,,,,0,,,51,59
139920,note_on,0,0,1,,,,,,,,,0,,,61,59
139999,note_on,79,0,0,,,,,,,,,0,,,94,0
140000,note_on,1,0,0,,,,,,,,,0,,,91,65
140079,note_on,79,0,0,,,,,,,,,0,,,91,0
140080,note_on,1,0,0,,,,,,,,,0,,,88,65
140147,note_on,0,0,1,,,,,,,,,0,,,64,0
140147,note_on,0,0,1,,,,,,,,,0,,,61,0
140147,note_on,227,0,1,,,,,,,,,0,,,51,0
140159,note_on,12,0,1,,,,,,,,,0,,,70,0
140159,note_on,79,0,0,,,,,,,,,0,,,88,0
140160,note_on,1,0,0,,,,,,,,,0,,,85,65
140239,note_on,79,0,0,,,,,,,,,0,,,85,0
140240,note_on,1,0,0,,,,,,,,,0,,,82,65
140319,note_on,79,0,0,,,,,,,,,0,,,82,0
140320,note_on,1,0,0,,,,,,,,,0,,,79,65
140399,note_on,79,0,0,,,,,,,,,0,,,79,0
140400,note_on,0,0,1,,,,,,,,,0,,,61,59
140400,note_on,241,0,1,,,,,,,,,0,,,51,59
140400,note_on,1,0,0,,,,,,,,,0,,,76,65
140400,note_on,0,0,1,,,,,,,,,0,,,64,59
140479,note_on,79,0,0,,,,,,,,,0,,,76,0
140480,note_on,1,0,0,,,,,,,,,0,,,73,65
140559,note_on,79,0,0,,,,,,,,,0,,,73,0
140560,note_on,0,0,0,,,,,,,,,0,,,70,65
140560,set_tempo,1,1,0,,,,,,1000000,,,,,,,
140599,note_on,0,0,0,,,,,,,,,0,,,70,0
140599,set_tempo,39,1,0,,,,,,500000,,,,,,,
140600,note_on,0,0,0,,,,,,,,,0,,,67,65
140600,set_tempo,1,1,0,,,,,,1000000,,,,,,,
140627,note_on,0,0,1,,,,,,,,,0,,,64,0
140627,note_on,227,0,1,,,,,,,,,0,,,51,0
140627,note_on,0,0,1,,,,,,,,,0,,,61,0
140637,note_on,37,0,0,,,,,,,,,0,,,67,0
140639,set_tempo,2,1,0,,,,,,500000,,,,,,,
140640,note_on,13,0,1,,,,,,,,,0,,,68,89
140641,control_change,2,0,0,,,,,,,64,0,0,,,,
140642,control_change,1,0,0,,,,,,,64,127,0,,,,
140720,note_on,78,0,0,,,,,,,,,0,,,71,65
140799,note_on,79,0,0,,,,,,,,,0,,,71,0
140800,note_on,1,0,0,,,,,,,,,0,,,74,65
140879,note_on,79,0,0,,,,,,,,,0,,,74,0
140880,note_on,0,0,1,,,,,,,,,0,,,59,59
140880,note_on,0,0,1,,,,,,,,,0,,,62,59
140880,note_on,1,0,0,,,,,,,,,0,,,77,65
140880,note_on,240,0,1,,,,,,,,,0,,,51,59
140959,note_on,79,0,0,,,,,,,,,0,,,77,0
140960,note_on,1,0,0,,,,,,,,,0,,,80,65
141039,note_on,79,0,0,,,,,,,,,0,,,80,0
141040,note_on,1,0,0,,,,,,,,,0,,,83,65
141107,note_on,0,0,1,,,,,,,,,0,,,59,0
141107,note_on,227,0,1,,,,,,,,,0,,,51,0
141107,note_on,0,0,1,,,,,,,,,0,,,62,0
141119,note_on,79,0,0,,,,,,,,,0,,,83,0
141120,note_on,13,0,1,,,,,,,,,0,,,51,59
141120,note_on,0,0,1,,,,,,,,,0,,,59,59
141120,note_on,0,0,1,,,,,,,,,0,,,62,59
141120,note_on,1,0,0,,,,,,,,,0,,,86,65
141199,note_on,79,0,0,,,,,,,,,0,,,86,0
141200,note_on,1,0,0,,,,,,,,,0,,,89,65
141279,note_on,79,0,0,,,,,,,,,0,,,89,0
141280,note_on,1,0,0,,,,,,,,,0,,,92,65
141282,note_on,162,0,1,,,,,,,,,0,,,68,0
141347,note_on,0,0,1,,,,,,,,,0,,,62,0
141347,note_on,0,0,1,,,,,,,,,0,,,59,0
141347,note_on,65,0,1,,,,,,,,,0,,,51,0
141359,note_on,79,0,0,,,,,,,,,0,,,92,0
141360,note_on,0,0,1,,,,,,,,,0,,,59,59
141360,note_on,1,0,0,,,,,,,,,0,,,91,65
141360,note_on,13,0,1,,,,,,,,,0,,,51,59
141360,note_on,0,0,1,,,,,,,,,0,,,62,59
141439,note_on,79,0,0,,,,,,,,,0,,,91,0
141440,note_on,1,0,0,,,,,,,,,0,,,89,65
141519,note_on,79,0,0,,,,,,,,,0,,,89,0
141520,note_on,1,0,0,,,,,,,,,0,,,86,65
141587,note_on,0,0,1,,,,,,,,,0,,,59,0
141587,note_on,0,0,1,,,,,,,,,0,,,62,0
141587,note_on,227,0,1,,,,,,,,,0,,,51,0
141599,note_on,79,0,0,,,,,,,,,0,,,86,0
141600,note_on,1,0,0,,,,,,,,,0,,,83,65
141600,note_on,13,0,1,,,,,,,,,0,,,67,78
141679,note_on,79,0,0,,,,,,,,,0,,,83,0
141680,note_on,1,0,0,,,,,,,,,0,,,79,65
141759,note_on,79,0,0,,,,,,,,,0,,,79,0
141760,note_on,1,0,0,,,,,,,,,0,,,77,65
141839,note_on,79,0,0,,,,,,,,,0,,,77,0
141840,note_on,1,0,0,,,,,,,,,0,,,74,65
141840,note_on,240,0,1,,,,,,,,,0,,,51,59
141840,note_on,0,0,1,,,,,,,,,0,,,62,59
141840,note_on,0,0,1,,,,,,,,,0,,,59,59
141919,note_on,79,0,0,,,,,,,,,0,,,74,0
141920,note_on,1,0,0,,,,,,,,,0,,,71,65
141999,note_on,79,0,0,,,,,,,,,0,,,71,0
142000,note_on,160,0,1,,,,,,,,,0,,,67,0
142000,note_on,1,0,0,,,,,,,,,0,,,67,65
142067,note_on,0,0,1,,,,,,,,,0,,,59,0
142067,note_on,67,0,1,,,,,,,,,0,,,51,0
142067,note_on,0,0,1,,,,,,,,,0,,,62,0
142075,note_on,75,0,0,,,,,,,,,0,,,67,0
142080,note_on,13,0,1,,,,,,,,,0,,,73,89
142080,set_tempo,5,1,0,,,,,,1000000,,,,,,,
142081,control_change,1,0,0,,,,,,,64,0,0,,,,
142082,control_change,1,0,0,,,,,,,64,127,0,,,,
142119,set_tempo,37,1,0,,,,,,500000,,,,,,,
142120,set_tempo,1,1,0,,,,,,1000000,,,,,,,
142120,note_on,0,0,0,,,,,,,,,0,,,64,65
142157,note_on,37,0,0,,,,,,,,,0,,,64,0
142159,set_tempo,2,1,0,,,,,,500000,,,,,,,
142160,note_on,1,0,0,,,,,,,,,0,,,79,65
142235,note_on,75,0,0,,,,,,,,,0,,,79,0
142240,note_on,5,0,0,,,,,,,,,0,,,82,65
142315,note_on,75,0,0,,,,,,,,,0,,,82,0
142320,note_on,5,0,0,,,,,,,,,0,,,85,65
142320,note_on,0,0,1,,,,,,,,,0,,,64,59
142320,note_on,0,0,1,,,,,,,,,0,,,61,59
142320,note_on,240,0,1,,,,,,,,,0,,,51,59
142395,note_on,75,0,0,,,,,,,,,0,,,85,0
142400,note_on,5,0,0,,,,,,,,,0,,,88,65
142475,note_on,75,0,0,,,,,,,,,0,,,88,0
142480,note_on,5,0,0,,,,,,,,,0,,,91,65
142547,note_on,227,0,1,,,,,,,,,0,,,51,0
142547,note_on,0,0,1,,,,,,,,,0,,,64,0
142547,note_on,0,0,1,,,,,,,,,0,,,61,0
142555,note_on,75,0,0,,,,,,,,,0,,,91,0
142560,note_on,5,0,0,,,,,,,,,0,,,94,65
142560,note_on,0,0,1,,,,,,,,,0,,,61,59
142560,note_on,0,0,1,,,,,,,,,0,,,64,59
142560,note_on,13,0,1,,,,,,,,,0,,,51,59
142635,note_on,75,0,0,,,,,,,,,0,,,94,0
142640,note_on,5,0,0,,,,,,,,,0,,,99,65
142715,note_on,75,0,0,,,,,,,,,0,,,99,0
142720,note_on,5,0,0,,,,,,,,,0,,,97,65
142722,note_on,162,0,1,,,,,,,,,0,,,73,0
142787,note_on,65,0,1,,,,,,,,,0,,,51,0
142787,note_on,0,0,1,,,,,,,,,0,,,61,0
142787,note_on,0,0,1,,,,,,,,,0,,,64,0
142795,note_on,75,0,0,,,,,,,,,0,,,97,0
142800,note_on,13,0,1,,,,,,,,,0,,,51,59
142800,note_on,5,0,0,,,,,,,,,0,,,94,65
142800,note_on,0,0,1,,,,,,,,,0,,,61,59
142800,note_on,0,0,1,,,,,,,,,0,,,64,59
142875,note_on,75,0,0,,,,,,,,,0,,,94,0
142880,note_on,5,0,0,,,,,,,,,0,,,91,65
142955,note_on,75,0,0,,,,,,,,,0,,,91,0
142960,note_on,5,0,0,,,,,,,,,0,,,88,65
143027,note_on,0,0,1,,,,,,,,,0,,,61,0
143027,note_on,0,0,1,,,,,,,,,0,,,64,0
143027,note_on,227,0,1,,,,,,,,,0,,,51,0
143035,note_on,75,0,0,,,,,,,,,0,,,88,0
143040,note_on,5,0,0,,,,,,,,,0,,,85,65
143115,note_on,75,0,0,,,,,,,,,0,,,85,0
143120,note_on,5,0,0,,,,,,,,,0,,,82,65
143195,note_on,75,0,0,,,,,,,,,0,,,82,0
143200,note_on,5,0,0,,,,,,,,,0,,,79,65
143275,note_on,75,0,0,,,,,,,,,0,,,79,0
143280,note_on,253,0,1,,,,,,,,,0,,,51,59
143280,note_on,0,0,1,,,,,,,,,0,,,61,59
143280,note_on,5,0,0,,,,,,,,,0,,,76,65
143280,note_on,0,0,1,,,,,,,,,0,,,64,59
143355,note_on,75,0,0,,,,,,,,,0,,,76,0
143360,note_on,5,0,0,,,,,,,,,0,,,73,65
143435,note_on,75,0,0,,,,,,,,,0,,,73,0
143440,set_tempo,5,1,0,,,,,,1000000,,,,,,,
143440,note_on,0,0,0,,,,,,,,,0,,,70,65
143477,note_on,37,0,0,,,,,,,,,0,,,70,0
143479,set_tempo,2,1,0,,,,,,500000,,,,,,,
143480,note_on,0,0,0,,,,,,,,,0,,,67,65
143480,set_tempo,1,1,0,,,,,,1000000,,,,,,,
143507,note_on,0,0,1,,,,,,,,,0,,,61,0
143507,note_on,227,0,1,,,,,,,,,0,,,51,0
143507,note_on,0,0,1,,,,,,,,,0,,,64,0
143517,note_on,37,0,0,,,,,,,,,0,,,67,0
143519,set_tempo,2,1,0,,,,,,500000,,,,,,,
143520,note_on,13,0,1,,,,,,,,,0,,,67,78
143521,control_change,2,0,0,,,,,,,64,0,0,,,,
143522,control_change,1,0,0,,,,,,,64,127,0,,,,
143581,note_on,61,0,1,,,,,,,,,0,,,67,0
143582,note_on,1,0,1,,,,,,,,,0,,,68,78
143600,note_on,78,0,0,,,,,,,,,0,,,71,65
143643,note_on,61,0,1,,,,,,,,,0,,,68,0
143644,note_on,1,0,1,,,,,,,,,0,,,70,78
143679,note_on,79,0,0,,,,,,,,,0,,,71,0
143680,note_on,1,0,0,,,,,,,,,0,,,74,65
143705,note_on,61,0,1,,,,,,,,,0,,,70,0
143707,note_on,2,0,1,,,,,,,,,0,,,68,89
143759,note_on,79,0,0,,,,,,,,,0,,,74,0
143760,note_on,0,0,1,,,,,,,,,0,,,59,59
143760,note_on,53,0,1,,,,,,,,,0,,,51,59
143760,note_on,0,0,1,,,,,,,,,0,,,62,59
143760,note_on,1,0,0,,,,,,,,,0,,,77,65
143839,note_on,79,0,0,,,,,,,,,0,,,77,0
143840,note_on,1,0,0,,,,,,,,,0,,,80,65
143919,note_on,79,0,0,,,,,,,,,0,,,80,0
143920,note_on,1,0,0,,,,,,,,,0,,,83,65
143987,note_on,227,0,1,,,,,,,,,0,,,51,0
143987,note_on,0,0,1,,,,,,,,,0,,,59,0
143987,note_on,0,0,1,,,,,,,,,0,,,62,0
143999,note_on,79,0,0,,,,,,,,,0,,,83,0
144000,note_on,13,0,1,,,,,,,,,0,,,51,59
144000,note_on,0,0,1,,,,,,,,,0,,,59,59
144000,note_on,0,0,1,,,,,,,,,0,,,62,59
144000,note_on,1,0,0,,,,,,,,,0,,,86,65
144079,note_on,79,0,0,,,,,,,,,0,,,86,0
144080,note_on,1,0,0,,,,,,,,,0,,,89,65
144159,note_on,79,0,0,,,,,,,,,0,,,89,0
144160,note_on,1,0,0,,,,,,,,,0,,,92,65
144223,note_on,223,0,1,,,,,,,,,0,,,68,0
144227,note_on,4,0,1,,,,,,,,,0,,,51,0
144227,note_on,0,0,1,,,,,,,,,0,,,59,0
144227,note_on,0,0,1,,,,,,,,,0,,,62,0
144239,note_on,79,0,0,,,,,,,,,0,,,92,0
144240,note_on,1,0,0,,,,,,,,,0,,,91,65
144240,note_on,0,0,1,,,,,,,,,0,,,62,59
144240,note_on,13,0,1,,,,,,,,,0,,,51,59
144240,note_on,0,0,1,,,,,,,,,0,,,59,59
144319,note_on,79,0,0,,,,,,,,,0,,,91,0
144320,note_on,1,0,0,,,,,,,,,0,,,89,65
144399,note_on,79,0,0,,,,,,,,,0,,,89,0
144400,note_on,1,0,0,,,,,,,,,0,,,86,65
144467,note_on,227,0,1,,,,,,,,,0,,,51,0
144467,note_on,0,0,1,,,,,,,,,0,,,59,0
144467,note_on,0,0,1,,,,,,,,,0,,,62,0
144479,note_on,79,0,0,,,,,,,,,0,,,86,0
144480,note_on,13,0,1,,,,,,,,,0,,,67,78
144480,note_on,1,0,0,,,,,,,,,0,,,83,65
144559,note_on,79,0,0,,,,,,,,,0,,,83,0
144560,note_on,1,0,0,,,,,,,,,0,,,79,65
144639,note_on,79,0,0,,,,,,,,,0,,,79,0
144640,note_on,1,0,0,,,,,,,,,0,,,77,65
144719,note_on,79,0,0,,,,,,,,,0,,,77,0
144720,note_on,0,0,1,,,,,,,,,0,,,62,59
144720,note_on,0,0,1,,,,,,,,,0,,,59,59
144720,note_on,1,0,0,,,,,,,,,0,,,74,65
144720,note_on,240,0,1,,,,,,,,,0,,,51,59
144799,note_on,79,0,0,,,,,,,,,0,,,74,0
144800,note_on,1,0,0,,,,,,,,,0,,,71,65
144879,note_on,79,0,0,,,,,,,,,0,,,71,0
144880,note_on,1,0,0,,,,,,,,,0,,,67,65
144880,note_on,160,0,1,,,,,,,,,0,,,67,0
144947,note_on,67,0,1,,,,,,,,,0,,,51,0
144947,note_on,0,0,1,,,,,,,,,0,,,62,0
144947,note_on,0,0,1,,,,,,,,,0,,,59,0
144955,note_on,75,0,0,,,,,,,,,0,,,67,0
144960,note_on,13,0,1,,,,,,,,,0,,,76,89
144961,control_change,6,0,0,,,,,,,64,0,0,,,,
144962,control_change,1,0,0,,,,,,,64,127,0,,,,
145040,note_on,78,0,0,,,,,,,,,0,,,79,65
145115,note_on,75,0,0,,,,,,,,,0,,,79,0
145120,note_on,5,0,0,,,,,,,,,0,,,82,65
145195,note_on,75,0,0,,,,,,,,,0,,,82,0
145200,note_on,5,0,0,,,,,,,,,0,,,85,65
145200,note_on,0,0,1,,,,,,,,,0,,,61,59
145200,note_on,0,0,1,,,,,,,,,0,,,64,59
145200,note_on,240,0,1,,,,,,,,,0,,,51,59
145275,note_on,75,0,0,,,,,,,,,0,,,85,0
145280,note_on,5,0,0,,,,,,,,,0,,,88,65
145355,note_on,75,0,0,,,,,,,,,0,,,88,0
145360,note_on,5,0,0,,,,,,,,,0,,,91,65
145427,note_on,227,0,1,,,,,,,,,0,,,51,0
145427,note_on,0,0,1,,,,,,,,,0,,,64,0
145427,note_on,0,0,1,,,,,,,,,0,,,61,0
145435,note_on,75,0,0,,,,,,,,,0,,,91,0
145440,note_on,0,0,1,,,,,,,,,0,,,61,59
145440,note_on,5,0,0,,,,,,,,,0,,,94,65
145440,note_on,0,0,1,,,,,,,,,0,,,64,59
145440,note_on,13,0,1,,,,,,,,,0,,,51,59
145515,note_on,75,0,0,,,,,,,,,0,,,94,0
145520,note_on,5,0,0,,,,,,,,,0,,,99,65
145595,note_on,75,0,0,,,,,,,,,0,,,99,0
145600,note_on,5,0,0,,,,,,,,,0,,,97,65
145602,note_on,162,0,1,,,,,,,,,0,,,76,0
145667,note_on,0,0,1,,,,,,,,,0,,,64,0
145667,note_on,0,0,1,,,,,,,,,0,,,61,0
145667,note_on,65,0,1,,,,,,,,,0,,,51,0
145675,note_on,75,0,0,,,,,,,,,0,,,97,0
145680,note_on,13,0,1,,,,,,,,,0,,,51,59
145680,note_on,0,0,1,,,,,,,,,0,,,61,59
145680,note_on,0,0,1,,,,,,,,,0,,,64,59
145680,note_on,5,0,0,,,,,,,,,0,,,94,65
145755,note_on,75,0,0,,,,,,,,,0,,,94,0
145760,note_on,5,0,0,,,,,,,,,0,,,91,65
145835,note_on,75,0,0,,,,,,,,,0,,,91,0
145840,note_on,5,0,0,,,,,,,,,0,,,88,65
145907,note_on,0,0,1,,,,,,,,,0,,,64,0
145907,note_on,227,0,1,,,,,,,,,0,,,51,0
145907,note_on,0,0,1,,,,,,,,,0,,,61,0
145915,note_on,75,0,0,,,,,,,,,0,,,88,0
145920,note_on,5,0,0,,,,,,,,,0,,,85,65
145995,note_on,75,0,0,,,,,,,,,0,,,85,0
146000,note_on,5,0,0,,,,,,,,,0,,,82,65
146075,note_on,75,0,0,,,,,,,,,0,,,82,0
146080,note_on,5,0,0,,,,,,,,,0,,,79,65
146155,note_on,75,0,0,,,,,,,,,0,,,79,0
146160,note_on,253,0,1,,,,,,,,,0,,,51,59
146160,note_on,0,0,1,,,,,,,,,0,,,61,59
146160,note_on,0,0,1,,,,,,,,,0,,,64,59
146160,note_on,5,0,0,,,,,,,,,0,,,76,65
146235,note_on,75,0,0,,,,,,,,,0,,,76,0
146240,note_on,5,0,0,,,,,,,,,0,,,73,65
146315,note_on,75,0,0,,,,,,,,,0,,,73,0
146320,set_tempo,5,1,0,,,,,,1000000,,,,,,,
146320,note_on,0,0,0,,,,,,,,,0,,,70,65
146357,note_on,37,0,0,,,,,,,,,0,,,70,0
146359,set_tempo,2,1,0,,,,,,500000,,,,,,,
146360,note_on,0,0,0,,,,,,,,,0,,,67,65
146360,set_tempo,1,1,0,,,,,,1000000,,,,,,,
146387,note_on,0,0,1,,,,,,,,,0,,,64,0
146387,note_on,0,0,1,,,,,,,,,0,,,61,0
146387,note_on,227,0,1,,,,,,,,,0,,,51,0
146397,note_on,37,0,0,,,,,,,,,0,,,67,0
146399,set_tempo,2,1,0,,,,,,500000,,,,,,,
146400,note_on,0,0,0,,,,,,,,,0,,,66,65
146400,set_tempo,1,1,0,,,,,,600000,,,,,,,
146401,control_change,1,0,0,,,,,,,64,0,0,,,,
146402,control_change,1,0,0,,,,,,,64,127,0,,,,
146456,note_on,54,0,0,,,,,,,,,0,,,66,0
146460,note_on,4,0,0,,,,,,,,,0,,,67,65
146516,note_on,56,0,0,,,,,,,,,0,,,67,0
146520,note_on,4,0,0,,,,,,,,,0,,,70,65
146576,note_on,56,0,0,,,,,,,,,0,,,70,0
146580,note_on,4,0,0,,,,,,,,,0,,,73,65
146636,note_on,56,0,0,,,,,,,,,0,,,73,0
146640,note_on,4,0,0,,,,,,,,,0,,,76,65
146696,note_on,56,0,0,,,,,,,,,0,,,76,0
146700,note_on,4,0,0,,,,,,,,,0,,,79,65
146756,note_on,56,0,0,,,,,,,,,0,,,79,0
146760,note_on,4,0,0,,,,,,,,,0,,,82,65
146816,note_on,56,0,0,,,,,,,,,0,,,82,0
146820,note_on,4,0,0,,,,,,,,,0,,,85,65
146876,note_on,56,0,0,,,,,,,,,0,,,85,0
146880,note_on,4,0,0,,,,,,,,,0,,,88,65
146936,note_on,56,0,0,,,,,,,,,0,,,88,0
146940,note_on,4,0,0,,,,,,,,,0,,,91,65
146996,note_on,56,0,0,,,,,,,,,0,,,91,0
147000,note_on,4,0,0,,,,,,,,,0,,,94,65
147056,note_on,56,0,0,,,,,,,,,0,,,94,0
147060,note_on,4,0,0,,,,,,,,,0,,,100,65
147116,note_on,56,0,0,,,,,,,,,0,,,100,0
147120,note_on,4,0,0,,,,,,,,,0,,,97,65
147176,note_on,56,0,0,,,,,,,,,0,,,97,0
147180,note_on,4,0,0,,,,,,,,,0,,,94,66
147236,note_on,56,0,0,,,,,,,,,0,,,94,0
147240,note_on,4,0,0,,,,,,,,,0,,,91,66
147296,note_on,56,0,0,,,,,,,,,0,,,91,0
147300,note_on,4,0,0,,,,,,,,,0,,,88,66
147356,note_on,56,0,0,,,,,,,,,0,,,88,0
147360,note_on,4,0,0,,,,,,,,,0,,,85,66
147416,note_on,56,0,0,,,,,,,,,0,,,85,0
147420,note_on,4,0,0,,,,,,,,,0,,,82,66
147476,note_on,56,0,0,,,,,,,,,0,,,82,0
147480,note_on,4,0,0,,,,,,,,,0,,,79,66
147536,note_on,56,0,0,,,,,,,,,0,,,79,0
147540,note_on,4,0,0,,,,,,,,,0,,,76,66
147596,note_on,56,0,0,,,,,,,,,0,,,76,0
147600,note_on,4,0,0,,,,,,,,,0,,,73,66
147656,note_on,56,0,0,,,,,,,,,0,,,73,0
147660,note_on,4,0,0,,,,,,,,,0,,,70,66
147716,note_on,56,0,0,,,,,,,,,0,,,70,0
147720,note_on,4,0,0,,,,,,,,,0,,,67,66
147776,note_on,56,0,0,,,,,,,,,0,,,67,0
147780,note_on,4,0,0,,,,,,,,,0,,,66,66
147781,control_change,1,0,0,,,,,,,64,0,0,,,,
147782,control_change,1,0,0,,,,,,,64,127,0,,,,
147836,note_on,54,0,0,,,,,,,,,0,,,66,0
147840,note_on,4,0,0,,,,,,,,,0,,,67,66
147896,note_on,56,0,0,,,,,,,,,0,,,67,0
147900,note_on,4,0,0,,,,,,,,,0,,,70,66
147956,note_on,56,0,0,,,,,,,,,0,,,70,0
147960,note_on,4,0,0,,,,,,,,,0,,,73,66
148016,note_on,56,0,0,,,,,,,,,0,,,73,0
148020,note_on,4,0,0,,,,,,,,,0,,,76,66
148076,note_on,56,0,0,,,,,,,,,0,,,76,0
148080,note_on,4,0,0,,,,,,,,,0,,,79,66
148136,note_on,56,0,0,,,,,,,,,0,,,79,0
148140,note_on,4,0,0,,,,,,,,,0,,,82,66
148196,note_on,56,0,0,,,,,,,,,0,,,82,0
148200,note_on,4,0,0,,,,,,,,,0,,,85,66
148256,note_on,56,0,0,,,,,,,,,0,,,85,0
148260,note_on,4,0,0,,,,,,,,,0,,,88,66
148316,note_on,56,0,0,,,,,,,,,0,,,88,0
148320,note_on,4,0,0,,,,,,,,,0,,,91,66
148376,note_on,56,0,0,,,,,,,,,0,,,91,0
148380,note_on,4,0,0,,,,,,,,,0,,,94,66
148436,note_on,56,0,0,,,,,,,,,0,,,94,0
148440,note_on,4,0,0,,,,,,,,,0,,,100,66
148496,note_on,56,0,0,,,,,,,,,0,,,100,0
148500,note_on,4,0,0,,,,,,,,,0,,,97,66
148556,note_on,56,0,0,,,,,,,,,0,,,97,0
148560,note_on,4,0,0,,,,,,,,,0,,,94,66
148616,note_on,56,0,0,,,,,,,,,0,,,94,0
148620,note_on,4,0,0,,,,,,,,,0,,,91,66
148676,note_on,56,0,0,,,,,,,,,0,,,91,0
148680,note_on,4,0,0,,,,,,,,,0,,,88,66
148736,note_on,56,0,0,,,,,,,,,0,,,88,0
148740,note_on,4,0,0,,,,,,,,,0,,,85,66
148796,note_on,56,0,0,,,,,,,,,0,,,85,0
148800,note_on,4,0,0,,,,,,,,,0,,,82,66
148856,note_on,56,0,0,,,,,,,,,0,,,82,0
148860,note_on,4,0,0,,,,,,,,,0,,,79,66
148916,note_on,56,0,0,,,,,,,,,0,,,79,0
148920,note_on,4,0,0,,,,,,,,,0,,,76,66
148976,note_on,56,0,0,,,,,,,,,0,,,76,0
148980,note_on,4,0,0,,,,,,,,,0,,,73,66
149036,note_on,56,0,0,,,,,,,,,0,,,73,0
149040,note_on,4,0,0,,,,,,,,,0,,,70,66
149096,note_on,56,0,0,,,,,,,,,0,,,70,0
149100,set_tempo,4,1,0,,,,,,240000,,,,,,,
149100,note_on,0,0,0,,,,,,,,,0,,,67,66
149101,control_change,1,0,0,,,,,,,64,0,0,,,,
149270,note_on,169,0,0,,,,,,,,,0,,,67,0
149279,set_tempo,9,1,0,,,,,,600000,,,,,,,
149280,note_on,1,0,0,,,,,,,,,0,,,66,66
149282,control_change,2,0,0,,,,,,,64,127,0,,,,
149336,note_on,54,0,0,,,,,,,,,0,,,66,0
149340,note_on,4,0,0,,,,,,,,,0,,,67,66
149396,note_on,56,0,0,,,,,,,,,0,,,67,0
149400,note_on,4,0,0,,,,,,,,,0,,,70,66
149456,note_on,56,0,0,,,,,,,,,0,,,70,0
149460,set_tempo,4,1,0,,,,,,600000,,,,,,,
149460,note_on,0,0,0,,,,,,,,,0,,,73,66
149516,note_on,56,0,0,,,,,,,,,0,,,73,0
149520,note_on,4,0,0,,,,,,,,,0,,,76,66
149576,note_on,56,0,0,,,,,,,,,0,,,76,0
149580,note_on,0,0,0,,,,,,,,,0,,,79,66
149580,set_tempo,4,1,0,,,,,,601805,,,,,,,
149636,note_on,56,0,0,,,,,,,,,0,,,79,0
149640,note_on,0,0,0,,,,,,,,,0,,,82,66
149640,set_tempo,4,1,0,,,,,,605449,,,,,,,
149696,note_on,56,0,0,,,,,,,,,0,,,82,0
149700,note_on,0,0,0,,,,,,,,,0,,,85,66
149700,set_tempo,4,1,0,,,,,,612245,,,,,,,
149756,note_on,56,0,0,,,,,,,,,0,,,85,0
149760,note_on,0,0,0,,,,,,,,,0,,,88,66
149760,set_tempo,4,1,0,,,,,,624350,,,,,,,
149816,note_on,56,0,0,,,,,,,,,0,,,88,0
149820,set_tempo,4,1,0,,,,,,642398,,,,,,,
149820,note_on,0,0,0,,,,,,,,,0,,,91,66
149876,note_on,56,0,0,,,,,,,,,0,,,91,0
149880,set_tempo,4,1,0,,,,,,670391,,,,,,,
149880,note_on,0,0,0,,,,,,,,,0,,,94,66
149936,note_on,56,0,0,,,,,,,,,0,,,94,0
149940,set_tempo,4,1,0,,,,,,710059,,,,,,,
149940,note_on,0,0,0,,,,,,,,,0,,,97,66
149941,control_change,1,0,0,,,,,,,64,0,0,,,,
149996,note_on,55,0,0,,,,,,,,,0,,,97,0
150000,note_on,0,0,0,,,,,,,,,0,,,100,66
150000,set_tempo,4,1,0,,,,,,705882,,,,,,,
150002,control_change,2,0,0,,,,,,,64,127,0,,,,
150056,note_on,54,0,0,,,,,,,,,0,,,100,0
150060,note_on,0,0,0,,,,,,,,,0,,,98,66
150060,set_tempo,4,1,0,,,,,,683371,,,,,,,
150116,note_on,56,0,0,,,,,,,,,0,,,98,0
150120,set_tempo,4,1,0,,,,,,650759,,,,,,,
150120,note_on,0,0,0,,,,,,,,,0,,,99,66
150176,note_on,56,0,0,,,,,,,,,0,,,99,0
150180,set_tempo,4,1,0,,,,,,615385,,,,,,,
150180,note_on,0,0,0,,,,,,,,,0,,,97,66
150236,note_on,56,0,0,,,,,,,,,0,,,97,0
150240,note_on,0,0,0,,,,,,,,,0,,,98,66
150240,set_tempo,4,1,0,,,,,,579710,,,,,,,
150296,note_on,56,0,0,,,,,,,,,0,,,98,0
150300,note_on,0,0,0,,,,,,,,,0,,,96,66
150300,set_tempo,4,1,0,,,,,,545455,,,,,,,
150356,note_on,56,0,0,,,,,,,,,0,,,96,0
150360,note_on,0,0,0,,,,,,,,,0,,,97,66
150360,set_tempo,4,1,0,,,,,,545455,,,,,,,
150416,note_on,56,0,0,,,,,,,,,0,,,97,0
150420,set_tempo,4,1,0,,,,,,549451,,,,,,,
150420,note_on,0,0,0,,,,,,,,,0,,,95,66
150476,note_on,56,0,0,,,,,,,,,0,,,95,0
150480,note_on,0,0,0,,,,,,,,,0,,,96,66
150480,set_tempo,4,1,0,,,,,,552995,,,,,,,
150536,note_on,56,0,0,,,,,,,,,0,,,96,0
150540,note_on,0,0,0,,,,,,,,,0,,,94,66
150540,set_tempo,4,1,0,,,,,,557103,,,,,,,
150596,note_on,56,0,0,,,,,,,,,0,,,94,0
150600,set_tempo,4,1,0,,,,,,561272,,,,,,,
150600,note_on,0,0,0,,,,,,,,,0,,,95,65
150656,note_on,56,0,0,,,,,,,,,0,,,95,0
150660,note_on,0,0,0,,,,,,,,,0,,,93,65
150660,set_tempo,4,1,0,,,,,,564972,,,,,,,
150716,note_on,56,0,0,,,,,,,,,0,,,93,0
150720,set_tempo,4,1,0,,,,,,569260,,,,,,,
150720,note_on,0,0,0,,,,,,,,,0,,,94,65
150776,note_on,56,0,0,,,,,,,,,0,,,94,0
150780,note_on,0,0,0,,,,,,,,,0,,,92,65
150780,set_tempo,4,1,0,,,,,,573614,,,,,,,
150836,note_on,56,0,0,,,,,,,,,0,,,92,0
150840,note_on,0,0,0,,,,,,,,,0,,,93,65
150840,set_tempo,4,1,0,,,,,,578035,,,,,,,
150896,note_on,56,0,0,,,,,,,,,0,,,93,0
150900,set_tempo,4,1,0,,,,,,581959,,,,,,,
150900,note_on,0,0,0,,,,,,,,,0,,,91,65
150956,note_on,56,0,0,,,,,,,,,0,,,91,0
150960,set_tempo,4,1,0,,,,,,586510,,,,,,,
150960,note_on,0,0,0,,,,,,,,,0,,,92,65
151016,note_on,56,0,0,,,,,,,,,0,,,92,0
151020,set_tempo,4,1,0,,,,,,591133,,,,,,,
151020,note_on,0,0,0,,,,,,,,,0,,,90,64
151076,note_on,56,0,0,,,,,,,,,0,,,90,0
151080,set_tempo,4,1,0,,,,,,595238,,,,,,,
151080,note_on,0,0,0,,,,,,,,,0,,,91,64
151136,note_on,56,0,0,,,,,,,,,0,,,91,0
151140,set_tempo,4,1,0,,,,,,600000,,,,,,,
151140,note_on,0,0,0,,,,,,,,,0,,,89,64
151196,note_on,56,0,0,,,,,,,,,0,,,89,0
151200,note_on,0,0,0,,,,,,,,,0,,,90,64
151200,set_tempo,4,1,0,,,,,,604839,,,,,,,
151256,note_on,56,0,0,,,,,,,,,0,,,90,0
151260,note_on,0,0,0,,,,,,,,,0,,,88,64
151260,set_tempo,4,1,0,,,,,,609137,,,,,,,
151316,note_on,56,0,0,,,,,,,,,0,,,88,0
151320,set_tempo,4,1,0,,,,,,614125,,,,,,,
151320,note_on,0,0,0,,,,,,,,,0,,,89,64
151376,note_on,56,0,0,,,,,,,,,0,,,89,0
151380,set_tempo,4,1,0,,,,,,619195,,,,,,,
151380,note_on,0,0,0,,,,,,,,,0,,,87,63
151436,note_on,56,0,0,,,,,,,,,0,,,87,0
151440,set_tempo,4,1,0,,,,,,623701,,,,,,,
151440,note_on,0,0,0,,,,,,,,,0,,,88,63
151496,note_on,56,0,0,,,,,,,,,0,,,88,0
151500,set_tempo,4,1,0,,,,,,628931,,,,,,,
151500,note_on,0,0,0,,,,,,,,,0,,,86,63
151556,note_on,56,0,0,,,,,,,,,0,,,86,0
151560,set_tempo,4,1,0,,,,,,634249,,,,,,,
151560,note_on,0,0,0,,,,,,,,,0,,,87,63
151616,note_on,56,0,0,,,,,,,,,0,,,87,0
151620,note_on,0,0,0,,,,,,,,,0,,,85,63
151620,set_tempo,4,1,0,,,,,,639659,,,,,,,
151676,note_on,56,0,0,,,,,,,,,0,,,85,0
151680,note_on,0,0,0,,,,,,,,,0,,,86,63
151680,set_tempo,4,1,0,,,,,,644468,,,,,,,
151736,note_on,56,0,0,,,,,,,,,0,,,86,0
151740,note_on,0,0,0,,,,,,,,,0,,,84,63
151740,set_tempo,4,1,0,,,,,,650054,,,,,,,
151796,note_on,56,0,0,,,,,,,,,0,,,84,0
151800,note_on,0,0,0,,,,,,,,,0,,,85,62
151800,set_tempo,4,1,0,,,,,,655738,,,,,,,
151856,note_on,56,0,0,,,,,,,,,0,,,85,0
151860,set_tempo,4,1,0,,,,,,660793,,,,,,,
151860,note_on,0,0,0,,,,,,,,,0,,,83,62
151916,note_on,56,0,0,,,,,,,,,0,,,83,0
151920,set_tempo,4,1,0,,,,,,60060,,,,,,,
152160,note_on,0,0,0,,,,,,,,,0,,,84,61
152160,set_tempo,240,1,0,,,,,,666667,,,,,,,
152161,control_change,1,0,0,,,,,,,64,0,0,,,,
152162,control_change,1,0,0,,,,,,,64,127,0,,,,
152216,note_on,54,0,0,,,,,,,,,0,,,84,0
152220,set_tempo,4,1,0,,,,,,666667,,,,,,,
152220,note_on,0,0,0,,,,,,,,,0,,,82,61
152276,note_on,56,0,0,,,,,,,,,0,,,82,0
152280,note_on,0,0,0,,,,,,,,,0,,,83,61
152280,set_tempo,4,1,0,,,,,,671141,,,,,,,
152336,note_on,56,0,0,,,,,,,,,0,,,83,0
152340,set_tempo,4,1,0,,,,,,674916,,,,,,,
152340,note_on,0,0,0,,,,,,,,,0,,,81,61
152396,note_on,56,0,0,,,,,,,,,0,,,81,0
152400,set_tempo,4,1,0,,,,,,679502,,,,,,,
152400,note_on,0,0,0,,,,,,,,,0,,,82,61
152456,note_on,56,0,0,,,,,,,,,0,,,82,0
152460,set_tempo,4,1,0,,,,,,683371,,,,,,,
152460,note_on,0,0,0,,,,,,,,,0,,,80,61
152516,note_on,56,0,0,,,,,,,,,0,,,80,0
152520,note_on,0,0,0,,,,,,,,,0,,,81,61
152520,set_tempo,4,1,0,,,,,,688073,,,,,,,
152576,note_on,56,0,0,,,,,,,,,0,,,81,0
152580,note_on,0,0,0,,,,,,,,,0,,,79,61
152580,set_tempo,4,1,0,,,,,,692042,,,,,,,
152636,note_on,56,0,0,,,,,,,,,0,,,79,0
152640,set_tempo,4,1,0,,,,,,696864,,,,,,,
152640,note_on,0,0,0,,,,,,,,,0,,,80,61
152696,note_on,56,0,0,,,,,,,,,0,,,80,0
152700,note_on,0,0,0,,,,,,,,,0,,,78,61
152700,set_tempo,4,1,0,,,,,,700935,,,,,,,
152756,note_on,56,0,0,,,,,,,,,0,,,78,0
152760,set_tempo,4,1,0,,,,,,705882,,,,,,,
152760,note_on,0,0,0,,,,,,,,,0,,,79,61
152816,note_on,56,0,0,,,,,,,,,0,,,79,0
152820,set_tempo,4,1,0,,,,,,710900,,,,,,,
152820,note_on,0,0,0,,,,,,,,,0,,,77,61
152876,note_on,56,0,0,,,,,,,,,0,,,77,0
152880,set_tempo,4,1,0,,,,,,715137,,,,,,,
152880,note_on,0,0,0,,,,,,,,,0,,,78,61
152936,note_on,56,0,0,,,,,,,,,0,,,78,0
152940,note_on,0,0,0,,,,,,,,,0,,,76,61
152940,set_tempo,4,1,0,,,,,,720288,,,,,,,
152996,note_on,56,0,0,,,,,,,,,0,,,76,0
153000,note_on,0,0,0,,,,,,,,,0,,,77,61
153000,set_tempo,4,1,0,,,,,,724638,,,,,,,
153056,note_on,56,0,0,,,,,,,,,0,,,77,0
153060,note_on,0,0,0,,,,,,,,,0,,,75,61
153060,set_tempo,4,1,0,,,,,,729927,,,,,,,
153116,note_on,56,0,0,,,,,,,,,0,,,75,0
153120,set_tempo,4,1,0,,,,,,734394,,,,,,,
153120,note_on,0,0,0,,,,,,,,,0,,,76,61
153121,control_change,1,0,0,,,,,,,64,0,0,,,,
153122,control_change,1,0,0,,,,,,,64,127,0,,,,
153176,note_on,54,0,0,,,,,,,,,0,,,76,0
153180,set_tempo,4,1,0,,,,,,739827,,,,,,,
153180,note_on,0,0,0,,,,,,,,,0,,,74,61
153236,note_on,56,0,0,,,,,,,,,0,,,74,0
153240,note_on,0,0,0,,,,,,,,,0,,,77,61
153240,set_tempo,4,1,0,,,,,,744417,,,,,,,
153296,note_on,56,0,0,,,,,,,,,0,,,77,0
153300,note_on,0,0,0,,,,,,,,,0,,,75,61
153300,set_tempo,4,1,0,,,,,,750000,,,,,,,
153356,note_on,56,0,0,,,,,,,,,0,,,75,0
153360,note_on,4,0,0,,,,,,,,,0,,,76,61
153416,note_on,56,0,0,,,,,,,,,0,,,76,0
153420,note_on,4,0,0,,,,,,,,,0,,,74,61
153476,note_on,56,0,0,,,,,,,,,0,,,74,0
153480,note_on,4,0,0,,,,,,,,,0,,,77,61
153536,note_on,56,0,0,,,,,,,,,0,,,77,0
153540,note_on,4,0,0,,,,,,,,,0,,,75,61
153596,note_on,56,0,0,,,,,,,,,0,,,75,0
153600,note_on,4,0,0,,,,,,,,,0,,,76,61
153656,note_on,56,0,0,,,,,,,,,0,,,76,0
153660,note_on,4,0,0,,,,,,,,,0,,,74,61
153716,note_on,56,0,0,,,,,,,,,0,,,74,0
153720,note_on,4,0,0,,,,,,,,,0,,,77,61
153776,note_on,56,0,0,,,,,,,,,0,,,77,0
153780,note_on,4,0,0,,,,,,,,,0,,,75,61
153836,note_on,56,0,0,,,,,,,,,0,,,75,0
153840,note_on,4,0,0,,,,,,,,,0,,,76,61
153896,note_on,56,0,0,,,,,,,,,0,,,76,0
153900,note_on,4,0,0,,,,,,,,,0,,,73,61
153956,note_on,56,0,0,,,,,,,,,0,,,73,0
153960,note_on,4,0,0,,,,,,,,,0,,,77,61
154016,note_on,56,0,0,,,,,,,,,0,,,77,0
154020,note_on,4,0,0,,,,,,,,,0,,,75,61
154076,note_on,56,0,0,,,,,,,,,0,,,75,0
154080,note_on,4,0,0,,,,,,,,,0,,,76,61
154136,note_on,56,0,0,,,,,,,,,0,,,76,0
154140,note_on,4,0,0,,,,,,,,,0,,,73,61
154196,note_on,56,0,0,,,,,,,,,0,,,73,0
154200,note_on,4,0,0,,,,,,,,,0,,,77,61
154256,note_on,56,0,0,,,,,,,,,0,,,77,0
154260,note_on,4,0,0,,,,,,,,,0,,,75,61
154316,note_on,56,0,0,,,,,,,,,0,,,75,0
154320,note_on,4,0,0,,,,,,,,,0,,,76,61
154376,note_on,56,0,0,,,,,,,,,0,,,76,0
154380,note_on,4,0,0,,,,,,,,,0,,,73,61
154436,note_on,56,0,0,,,,,,,,,0,,,73,0
154440,note_on,4,0,0,,,,,,,,,0,,,77,61
154496,note_on,56,0,0,,,,,,,,,0,,,77,0
154500,note_on,4,0,0,,,,,,,,,0,,,75,61
154556,note_on,56,0,0,,,,,,,,,0,,,75,0
154560,set_tempo,4,1,0,,,,,,6006,,,,,,,
155039,set_tempo,479,1,0,,,,,,60060,,,,,,,
155040,note_on,0,0,0,,,,,,,,,0,,,76,61
155040,set_tempo,1,1,0,,,,,,750000,,,,,,,
155041,control_change,1,0,0,,,,,,,64,0,0,,,,
155042,control_change,1,0,0,,,,,,,64,127,0,,,,
155096,note_on,54,0,0,,,,,,,,,0,,,76,0
155100,set_tempo,4,1,0,,,,,,749064,,,,,,,
155100,note_on,0,0,0,,,,,,,,,0,,,70,61
155156,note_on,56,0,0,,,,,,,,,0,,,70,0
155160,set_tempo,4,1,0,,,,,,748130,,,,,,,
155160,note_on,0,0,0,,,,,,,,,0,,,77,61
155216,note_on,56,0,0,,,,,,,,,0,,,77,0
155220,set_tempo,4,1,0,,,,,,745342,,,,,,,
155220,note_on,0,0,0,,,,,,,,,0,,,75,61
155276,note_on,56,0,0,,,,,,,,,0,,,75,0
155280,set_tempo,4,1,0,,,,,,741656,,,,,,,
155280,note_on,0,0,0,,,,,,,,,0,,,73,61
155336,note_on,56,0,0,,,,,,,,,0,,,73,0
155340,set_tempo,4,1,0,,,,,,738007,,,,,,,
155340,note_on,0,0,0,,,,,,,,,0,,,76,61
155396,note_on,56,0,0,,,,,,,,,0,,,76,0
155400,note_on,0,0,0,,,,,,,,,0,,,70,61
155400,set_tempo,4,1,0,,,,,,732601,,,,,,,
155456,note_on,56,0,0,,,,,,,,,0,,,70,0
155460,set_tempo,4,1,0,,,,,,726392,,,,,,,
155460,note_on,0,0,0,,,,,,,,,0,,,77,61
155516,note_on,56,0,0,,,,,,,,,0,,,77,0
155520,note_on,0,0,0,,,,,,,,,0,,,75,61
155520,set_tempo,4,1,0,,,,,,720288,,,,,,,
155576,note_on,56,0,0,,,,,,,,,0,,,75,0
155580,note_on,4,0,0,,,,,,,,,0,,,73,61
155636,note_on,56,0,0,,,,,,,,,0,,,73,0
155640,note_on,4,0,0,,,,,,,,,0,,,76,61
155696,note_on,56,0,0,,,,,,,,,0,,,76,0
155700,note_on,4,0,0,,,,,,,,,0,,,70,61
155756,note_on,56,0,0,,,,,,,,,0,,,70,0
155760,note_on,4,0,0,,,,,,,,,0,,,77,61
155816,note_on,56,0,0,,,,,,,,,0,,,77,0
155820,note_on,4,0,0,,,,,,,,,0,,,75,61
155876,note_on,56,0,0,,,,,,,,,0,,,75,0
155880,note_on,4,0,0,,,,,,,,,0,,,73,61
155936,note_on,56,0,0,,,,,,,,,0,,,73,0
155940,note_on,4,0,0,,,,,,,,,0,,,76,61
155996,note_on,56,0,0,,,,,,,,,0,,,76,0
156000,note_on,4,0,0,,,,,,,,,0,,,67,61
156056,note_on,56,0,0,,,,,,,,,0,,,67,0
156060,set_tempo,4,1,0,,,,,,792317,,,,,,,
156060,note_on,0,0,0,,,,,,,,,0,,,77,61
156116,note_on,56,0,0,,,,,,,,,0,,,77,0
156119,set_tempo,3,1,0,,,,,,720288,,,,,,,
156120,set_tempo,1,1,0,,,,,,1008403,,,,,,,
156120,note_on,0,0,0,,,,,,,,,0,,,75,61
156176,note_on,56,0,0,,,,,,,,,0,,,75,0
156179,set_tempo,3,1,0,,,,,,720288,,,,,,,
156180,set_tempo,1,1,0,,,,,,1152461,,,,,,,
156180,note_on,0,0,0,,,,,,,,,0,,,73,61
156236,note_on,56,0,0,,,,,,,,,0,,,73,0
156239,set_tempo,3,1,0,,,,,,720288,,,,,,,
156240,note_on,0,0,0,,,,,,,,,0,,,60,61
156240,set_tempo,1,1,0,,,,,,857143,,,,,,,
156241,control_change,1,0,0,,,,,,,64,0,0,,,,
156242,control_change,1,0,0,,,,,,,64,127,0,,,,
156296,note_on,54,0,0,,,,,,,,,0,,,60,0
156300,note_on,4,0,0,,,,,,,,,0,,,59,61
156356,note_on,56,0,0,,,,,,,,,0,,,59,0
156360,note_on,4,0,0,,,,,,,,,0,,,60,61
156416,note_on,56,0,0,,,,,,,,,0,,,60,0
156420,note_on,0,0,0,,,,,,,,,0,,,67,61
156420,set_tempo,4,1,0,,,,,,1000000,,,,,,,
156476,note_on,56,0,0,,,,,,,,,0,,,67,0
156480,note_on,4,0,0,,,,,,,,,0,,,70,61
156536,note_on,56,0,0,,,,,,,,,0,,,70,0
156540,note_on,4,0,0,,,,,,,,,0,,,73,61
156596,note_on,56,0,0,,,,,,,,,0,,,73,0
156600,note_on,4,0,0,,,,,,,,,0,,,75,61
156656,note_on,56,0,0,,,,,,,,,0,,,75,0
156660,note_on,4,0,0,,,,,,,,,0,,,79,61
156716,note_on,56,0,0,,,,,,,,,0,,,79,0
156720,note_on,0,0,0,,,,,,,,,0,,,82,61
156720,set_tempo,4,1,0,,,,,,15000000,,,,,,,
156776,note_on,56,0,0,,,,,,,,,0,,,82,0
156779,set_tempo,3,1,0,,,,,,1000000,,,,,,,
156780,note_on,0,0,0,,,,,,,,,0,,,60,35
156780,set_tempo,1,1,0,,,,,,750000,,,,,,,
156781,control_change,1,0,0,,,,,,,64,0,0,,,,
156782,control_change,1,0,0,,,,,,,64,127,0,,,,
156836,note_on,54,0,0,,,,,,,,,0,,,60,0
156840,note_on,4,0,0,,,,,,,,,0,,,59,35
156896,note_on,56,0,0,,,,,,,,,0,,,59,0
156900,note_on,4,0,0,,,,,,,,,0,,,60,35
156956,note_on,56,0,0,,,,,,,,,0,,,60,0
156960,note_on,0,0,0,,,,,,,,,0,,,67,35
156960,set_tempo,4,1,0,,,,,,800000,,,,,,,
157016,note_on,56,0,0,,,,,,,,,0,,,67,0
157020,note_on,0,0,0,,,,,,,,,0,,,71,35
157020,set_tempo,4,1,0,,,,,,824176,,,,,,,
157076,note_on,56,0,0,,,,,,,,,0,,,71,0
157080,note_on,0,0,0,,,,,,,,,0,,,73,35
157080,set_tempo,4,1,0,,,,,,865801,,,,,,,
157136,note_on,56,0,0,,,,,,,,,0,,,73,0
157140,set_tempo,4,1,0,,,,,,923077,,,,,,,
157140,note_on,0,0,0,,,,,,,,,0,,,75,35
157196,note_on,56,0,0,,,,,,,,,0,,,75,0
157200,set_tempo,4,1,0,,,,,,995025,,,,,,,
157200,note_on,0,0,0,,,,,,,,,0,,,79,35
157256,note_on,56,0,0,,,,,,,,,0,,,79,0
157260,set_tempo,4,1,0,,,,,,1222784,,,,,,,
157260,note_on,0,0,0,,,,,,,,,0,,,83,35
157316,note_on,56,0,0,,,,,,,,,0,,,83,0
157319,set_tempo,3,1,0,,,,,,1500000,,,,,,,
157320,note_on,1,0,0,,,,,,,,,0,,,75,40
157321,control_change,1,0,0,,,,,,,64,0,0,,,,
157322,control_change,1,0,0,,,,,,,64,127,0,,,,
157357,note_on,35,0,0,,,,,,,,,0,,,75,0
157360,note_on,3,0,0,,,,,,,,,0,,,75,40
157397,note_on,37,0,0,,,,,,,,,0,,,75,0
157400,note_on,3,0,0,,,,,,,,,0,,,77,40
157437,note_on,37,0,0,,,,,,,,,0,,,77,0
157440,note_on,3,0,0,,,,,,,,,0,,,75,40
157477,note_on,37,0,0,,,,,,,,,0,,,75,0
157480,note_on,3,0,0,,,,,,,,,0,,,74,40
157517,note_on,37,0,0,,,,,,,,,0,,,74,0
157520,note_on,3,0,0,,,,,,,,,0,,,75,40
157557,note_on,37,0,0,,,,,,,,,0,,,75,0
157560,note_on,0,0,0,,,,,,,,,0,,,84,43
157560,set_tempo,3,1,0,,,,,,2400000,,,,,,,
157673,note_on,113,0,0,,,,,,,,,0,,,84,0
157679,set_tempo,6,1,0,,,,,,1200000,,,,,,,
157680,note_on,1,0,0,,,,,,,,,0,,,79,40
157907,note_on,227,0,0,,,,,,,,,0,,,79,0
157920,note_on,11533,0,1,,,,,,,,,0,,,32,44
157920,set_tempo,13,1,0,,,,,,571429,,,,,,,
157920,note_on,0,0,0,,,,,,,,,0,,,82,48
157921,control_change,1,0,0,,,,,,,64,0,0,,,,
157922,control_change,2,0,1,,,,,,,64,127,0,,,,
158147,note_on,225,0,1,,,,,,,,,0,,,32,0
158160,note_on,13,0,1,,,,,,,,,0,,,44,44
158160,note_on,0,0,1,,,,,,,,,0,,,51,44
158160,note_on,239,0,0,,,,,,,,,0,,,72,44
158399,note_on,0,0,1,,,,,,,,,0,,,51,0
158399,note_on,239,0,0,,,,,,,,,0,,,72,0
158399,note_on,239,0,1,,,,,,,,,0,,,44,0
158400,note_on,0,0,1,,,,,,,,,0,,,56,44
158400,note_on,1,0,0,,,,,,,,,0,,,63,44
158400,note_on,1,0,1,,,,,,,,,0,,,48,44
158639,note_on,0,0,0,,,,,,,,,0,,,63,0
158639,note_on,239,0,0,,,,,,,,,0,,,82,0
158639,note_on,239,0,1,,,,,,,,,0,,,48,0
158639,note_on,0,0,1,,,,,,,,,0,,,56,0
158640,note_on,0,0,1,,,,,,,,,0,,,60,44
158640,note_on,0,0,0,,,,,,,,,0,,,80,48
158640,note_on,1,0,1,,,,,,,,,0,,,51,44
158640,note_on,1,0,0,,,,,,,,,0,,,68,44
158867,note_on,0,0,1,,,,,,,,,0,,,60,0
158867,note_on,227,0,1,,,,,,,,,0,,,51,0
158879,note_on,239,0,0,,,,,,,,,0,,,68,0
158879,note_on,0,0,0,,,,,,,,,0,,,80,0
158880,note_on,1,0,0,,,,,,,,,0,,,72,48
159119,note_on,239,0,0,,,,,,,,,0,,,72,0
159120,note_on,1,0,0,,,,,,,,,0,,,73,48
159347,note_on,227,0,0,,,,,,,,,0,,,73,0
159360,note_on,493,0,1,,,,,,,,,0,,,32,44
159360,note_on,13,0,0,,,,,,,,,0,,,77,48
159361,control_change,1,0,1,,,,,,,64,0,0,,,,
159362,control_change,1,0,1,,,,,,,64,127,0,,,,
159587,note_on,225,0,1,,,,,,,,,0,,,32,0
159600,note_on,240,0,0,,,,,,,,,0,,,60,44
159600,note_on,13,0,1,,,,,,,,,0,,,44,44
159600,note_on,0,0,1,,,,,,,,,0,,,51,44
159839,note_on,239,0,1,,,,,,,,,0,,,44,0
159839,note_on,239,0,0,,,,,,,,,0,,,60,0
159839,note_on,0,0,1,,,,,,,,,0,,,51,0
159840,note_on,0,0,1,,,,,,,,,0,,,56,44
159840,note_on,1,0,0,,,,,,,,,0,,,63,44
159840,note_on,1,0,1,,,,,,,,,0,,,48,44
160079,note_on,0,0,1,,,,,,,,,0,,,56,0
160079,note_on,239,0,0,,,,,,,,,0,,,77,0
160079,note_on,0,0,0,,,,,,,,,0,,,63,0
160079,note_on,239,0,1,,,,,,,,,0,,,48,0
160080,note_on,1,0,0,,,,,,,,,0,,,68,44
160080,note_on,0,0,1,,,,,,,,,0,,,60,44
160080,note_on,1,0,1,,,,,,,,,0,,,51,44
160080,note_on,0,0,0,,,,,,,,,0,,,75,48
160307,note_on,0,0,1,,,,,,,,,0,,,60,0
160307,note_on,227,0,1,,,,,,,,,0,,,51,0
160319,note_on,0,0,0,,,,,,,,,0,,,75,0
160319,note_on,239,0,0,,,,,,,,,0,,,68,0
160320,note_on,1,0,0,,,,,,,,,0,,,73,48
160559,note_on,239,0,0,,,,,,,,,0,,,73,0
160560,note_on,1,0,0,,,,,,,,,0,,,72,48
160787,note_on,227,0,0,,,,,,,,,0,,,72,0
160800,note_on,13,0,0,,,,,,,,,0,,,72,48
160800,note_on,493,0,1,,,,,,,,,0,,,32,44
160801,control_change,1,0,1,,,,,,,64,0,0,,,,
160802,control_change,1,0,1,,,,,,,64,127,0,,,,
161027,note_on,225,0,1,,,,,,,,,0,,,32,0
161040,note_on,0,0,0,,,,,,,,,0,,,68,44
161040,note_on,240,0,0,,,,,,,,,0,,,65,44
161040,note_on,13,0,1,,,,,,,,,0,,,50,44
161040,note_on,0,0,1,,,,,,,,,0,,,58,44
161279,note_on,0,0,0,,,,,,,,,0,,,68,0
161279,note_on,239,0,1,,,,,,,,,0,,,50,0
161279,note_on,0,0,1,,,,,,,,,0,,,58,0
161279,note_on,239,0,0,,,,,,,,,0,,,65,0
161280,note_on,1,0,1,,,,,,,,,0,,,53,44
161280,note_on,0,0,1,,,,,,,,,0,,,62,44
161280,note_on,1,0,0,,,,,,,,,0,,,58,44
161483,note_on,203,0,0,,,,,,,,,0,,,72,0
161519,note_on,239,0,1,,,,,,,,,0,,,53,0
161519,note_on,36,0,0,,,,,,,,,0,,,58,0
161519,note_on,0,0,1,,,,,,,,,0,,,62,0
161520,note_on,1,0,1,,,,,,,,,0,,,56,44
161520,note_on,0,0,1,,,,,,,,,0,,,65,44
161520,note_on,0,0,0,,,,,,,,,0,,,62,44
161520,note_on,1,0,0,,,,,,,,,0,,,70,48
161747,note_on,227,0,1,,,,,,,,,0,,,56,0
161747,note_on,0,0,1,,,,,,,,,0,,,65,0
161747,note_on,227,0,0,,,,,,,,,0,,,70,0
161747,note_on,0,0,0,,,,,,,,,0,,,62,0
161760,note_on,13,0,0,,,,,,,,,0,,,69,48
161987,note_on,227,0,0,,,,,,,,,0,,,69,0
162000,note_on,13,0,0,,,,,,,,,0,,,70,48
162227,note_on,227,0,0,,,,,,,,,0,,,70,0
162240,note_on,493,0,1,,,,,,,,,0,,,32,44
162240,note_on,13,0,0,,,,,,,,,0,,,69,44
162241,control_change,1,0,1,,,,,,,64,0,0,,,,
162242,control_change,1,0,1,,,,,,,64,127,0,,,,
162295,note_on,55,0,0,,,,,,,,,0,,,69,0
162299,note_on,4,0,0,,,,,,,,,0,,,70,44
162354,note_on,55,0,0,,,,,,,,,0,,,70,0
162359,note_on,5,0,0,,,,,,,,,0,,,72,44
162414,note_on,55,0,0,,,,,,,,,0,,,72,0
162420,note_on,6,0,0,,,,,,,,,0,,,70,44
162467,note_on,225,0,1,,,,,,,,,0,,,32,0
162475,note_on,55,0,0,,,,,,,,,0,,,70,0
162479,note_on,4,0,0,,,,,,,,,0,,,72,44
162480,note_on,0,0,0,,,,,,,,,0,,,68,44
162480,note_on,1,0,0,,,,,,,,,0,,,65,44
162480,note_on,13,0,1,,,,,,,,,0,,,50,44
162480,note_on,0,0,1,,,,,,,,,0,,,58,44
162534,note_on,54,0,0,,,,,,,,,0,,,72,0
162539,note_on,5,0,0,,,,,,,,,0,,,70,44
162594,note_on,55,0,0,,,,,,,,,0,,,70,0
162600,note_on,6,0,0,,,,,,,,,0,,,72,44
162655,note_on,55,0,0,,,,,,,,,0,,,72,0
162659,note_on,4,0,0,,,,,,,,,0,,,70,44
162714,note_on,55,0,0,,,,,,,,,0,,,70,0
162719,note_on,239,0,1,,,,,,,,,0,,,50,0
162719,note_on,0,0,1,,,,,,,,,0,,,58,0
162719,note_on,5,0,0,,,,,,,,,0,,,72,44
162719,note_on,0,0,0,,,,,,,,,0,,,65,0
162719,note_on,0,0,0,,,,,,,,,0,,,68,0
162720,note_on,1,0,0,,,,,,,,,0,,,58,44
162720,note_on,0,0,1,,,,,,,,,0,,,62,44
162720,note_on,1,0,1,,,,,,,,,0,,,53,44
162774,note_on,54,0,0,,,,,,,,,0,,,72,0
162780,note_on,6,0,0,,,,,,,,,0,,,70,44
162835,note_on,55,0,0,,,,,,,,,0,,,70,0
162839,note_on,4,0,0,,,,,,,,,0,,,72,44
162951,note_on,112,0,0,,,,,,,,,0,,,72,0
162959,note_on,239,0,1,,,,,,,,,0,,,53,0
162959,note_on,8,0,0,,,,,,,,,0,,,58,0
162959,note_on,0,0,1,,,,,,,,,0,,,62,0
162960,note_on,1,0,0,,,,,,,,,0,,,69,44
162960,note_on,0,0,0,,,,,,,,,0,,,62,44
162960,note_on,1,0,1,,,,,,,,,0,,,56,44
162960,note_on,0,0,1,,,,,,,,,0,,,65,44
163016,note_on,56,0,0,,,,,,,,,0,,,69,0
163020,note_on,4,0,0,,,,,,,,,0,,,70,44
163076,note_on,56,0,0,,,,,,,,,0,,,70,0
163080,note_on,4,0,0,,,,,,,,,0,,,73,44
163136,note_on,56,0,0,,,,,,,,,0,,,73,0
163140,note_on,4,0,0,,,,,,,,,0,,,74,44
163187,note_on,227,0,1,,,,,,,,,0,,,56,0
163187,note_on,47,0,0,,,,,,,,,0,,,62,0
163187,note_on,0,0,1,,,,,,,,,0,,,65,0
163196,note_on,9,0,0,,,,,,,,,0,,,74,0
163200,note_on,4,0,0,,,,,,,,,0,,,76,44
163256,note_on,56,0,0,,,,,,,,,0,,,76,0
163260,note_on,4,0,0,,,,,,,,,0,,,77,44
163316,note_on,56,0,0,,,,,,,,,0,,,77,0
163320,note_on,4,0,0,,,,,,,,,0,,,79,44
163376,note_on,56,0,0,,,,,,,,,0,,,79,0
163380,note_on,4,0,0,,,,,,,,,0,,,80,44
163436,note_on,56,0,0,,,,,,,,,0,,,80,0
163440,note_on,4,0,0,,,,,,,,,0,,,81,44
163496,note_on,56,0,0,,,,,,,,,0,,,81,0
163500,note_on,4,0,0,,,,,,,,,0,,,82,44
163556,note_on,56,0,0,,,,,,,,,0,,,82,0
163560,note_on,4,0,0,,,,,,,,,0,,,85,44
163616,note_on,56,0,0,,,,,,,,,0,,,85,0
163620,note_on,4,0,0,,,,,,,,,0,,,86,44
163676,note_on,56,0,0,,,,,,,,,0,,,86,0
163680,note_on,493,0,1,,,,,,,,,0,,,32,44
163680,note_on,4,0,0,,,,,,,,,0,,,89,48
163681,control_change,1,0,1,,,,,,,64,0,0,,,,
163682,control_change,1,0,1,,,,,,,64,127,0,,,,
163907,note_on,225,0,1,,,,,,,,,0,,,32,0
163920,note_on,240,0,0,,,,,,,,,0,,,79,42
163920,note_on,0,0,1,,,,,,,,,0,,,61,44
163920,note_on,0,0,0,,,,,,,,,0,,,82,42
163920,note_on,13,0,1,,,,,,,,,0,,,51,44
164159,note_on,0,0,1,,,,,,,,,0,,,61,0
164159,note_on,0,0,0,,,,,,,,,0,,,82,0
164159,note_on,239,0,1,,,,,,,,,0,,,51,0
164159,note_on,239,0,0,,,,,,,,,0,,,79,0
164160,note_on,0,0,1,,,,,,,,,0,,,63,44
164160,note_on,1,0,1,,,,,,,,,0,,,55,44
164160,note_on,1,0,0,,,,,,,,,0,,,75,42
164399,note_on,0,0,0,,,,,,,,,0,,,75,0
164399,note_on,239,0,1,,,,,,,,,0,,,55,0
164399,note_on,0,0,1,,,,,,,,,0,,,63,0
164399,note_on,239,0,0,,,,,,,,,0,,,89,0
164400,note_on,0,0,1,,,,,,,,,0,,,67,44
164400,note_on,0,0,0,,,,,,,,,0,,,73,42
164400,note_on,1,0,0,,,,,,,,,0,,,87,48
164400,note_on,1,0,1,,,,,,,,,0,,,58,44
164627,note_on,0,0,1,,,,,,,,,0,,,67,0
164627,note_on,227,0,1,,,,,,,,,0,,,58,0
164639,note_on,239,0,0,,,,,,,,,0,,,87,0
164639,note_on,0,0,0,,,,,,,,,0,,,73,0
164640,note_on,1,0,0,,,,,,,,,0,,,85,48
164879,note_on,239,0,0,,,,,,,,,0,,,85,0
164880,note_on,1,0,0,,,,,,,,,0,,,82,48
165107,note_on,227,0,0,,,,,,,,,0,,,82,0
165120,note_on,13,0,0,,,,,,,,,0,,,77,48
165120,note_on,493,0,1,,,,,,,,,0,,,32,44
165121,control_change,1,0,1,,,,,,,64,0,0,,,,
165122,control_change,1,0,1,,,,,,,64,127,0,,,,
165359,note_on,237,0,1,,,,,,,,,0,,,32,0
165360,note_on,1,0,1,,,,,,,,,0,,,49,44
165360,note_on,0,0,0,,,,,,,,,0,,,70,42
165360,note_on,0,0,1,,,,,,,,,0,,,51,44
165360,note_on,240,0,0,,,,,,,,,0,,,67,42
165599,note_on,239,0,0,,,,,,,,,0,,,67,0
165599,note_on,0,0,1,,,,,,,,,0,,,51,0
165599,note_on,239,0,1,,,,,,,,,0,,,49,0
165599,note_on,0,0,0,,,,,,,,,0,,,70,0
165600,note_on,0,0,0,,,,,,,,,0,,,63,42
165600,note_on,0,0,1,,,,,,,,,0,,,58,44
165600,note_on,1,0,0,,,,,,,,,0,,,61,42
165600,note_on,1,0,1,,,,,,,,,0,,,55,44
165839,note_on,0,0,1,,,,,,,,,0,,,58,0
165839,note_on,0,0,0,,,,,,,,,0,,,63,0
165839,note_on,0,0,0,,,,,,,,,0,,,61,0
165839,note_on,239,0,0,,,,,,,,,0,,,77,0
165839,note_on,239,0,1,,,,,,,,,0,,,55,0
165840,note_on,0,0,1,,,,,,,,,0,,,61,44
165840,note_on,1,0,1,,,,,,,,,0,,,51,44
165840,note_on,0,0,0,,,,,,,,,0,,,67,42
165840,note_on,1,0,0,,,,,,,,,0,,,75,48
166067,note_on,227,0,1,,,,,,,,,0,,,51,0
166067,note_on,0,0,1,,,,,,,,,0,,,61,0
166079,note_on,0,0,0,,,,,,,,,0,,,67,0
166079,note_on,239,0,0,,,,,,,,,0,,,75,0
166080,note_on,1,0,0,,,,,,,,,0,,,73,48
166319,note_on,239,0,0,,,,,,,,,0,,,73,0
166320,note_on,1,0,0,,,,,,,,,0,,,70,48
166547,note_on,227,0,0,,,,,,,,,0,,,70,0
166560,note_on,13,0,0,,,,,,,,,0,,,67,50
166560,note_on,493,0,1,,,,,,,,,0,,,32,44
166561,control_change,1,0,1,,,,,,,64,0,0,,,,
166562,control_change,1,0,1,,,,,,,64,127,0,,,,
166787,note_on,225,0,1,,,,,,,,,0,,,32,0
166799,note_on,239,0,0,,,,,,,,,0,,,67,0
166800,note_on,0,0,1,,,,,,,,,0,,,56,44
166800,note_on,0,0,1,,,,,,,,,0,,,51,44
166800,note_on,0,0,0,,,,,,,,,0,,,68,44
166800,note_on,0,0,0,,,,,,,,,0,,,63,44
166800,note_on,1,0,0,,,,,,,,,0,,,60,44
166800,note_on,13,0,1,,,,,,,,,0,,,48,44
167039,note_on,239,0,0,,,,,,,,,0,,,60,0
167039,note_on,0,0,0,,,,,,,,,0,,,63,0
167039,note_on,0,0,0,,,,,,,,,0,,,68,0
167039,note_on,239,0,1,,,,,,,,,0,,,48,0
167039,note_on,0,0,1,,,,,,,,,0,,,51,0
167039,note_on,0,0,1,,,,,,,,,0,,,56,0
167040,note_on,0,0,0,,,,,,,,,0,,,72,44
167040,note_on,1,0,0,,,,,,,,,0,,,63,44
167040,note_on,1,0,1,,,,,,,,,0,,,51,44
167040,note_on,0,0,1,,,,,,,,,0,,,56,44
167040,note_on,0,0,1,,,,,,,,,0,,,60,44
167040,note_on,0,0,0,,,,,,,,,0,,,68,44
167279,note_on,239,0,0,,,,,,,,,0,,,63,0
167279,note_on,239,0,1,,,,,,,,,0,,,51,0
167279,note_on,0,0,1,,,,,,,,,0,,,56,0
167279,note_on,0,0,1,,,,,,,,,0,,,60,0
167279,note_on,0,0,0,,,,,,,,,0,,,72,0
167279,note_on,0,0,0,,,,,,,,,0,,,68,0
167280,note_on,1,0,1,,,,,,,,,0,,,56,44
167280,note_on,0,0,0,,,,,,,,,0,,,75,44
167280,note_on,0,0,1,,,,,,,,,0,,,63,44
167280,note_on,0,0,1,,,,,,,,,0,,,60,44
167280,note_on,1,0,0,,,,,,,,,0,,,68,44
167280,note_on,0,0,0,,,,,,,,,0,,,72,44
167507,note_on,0,0,1,,,,,,,,,0,,,60,0
167507,note_on,0,0,1,,,,,,,,,0,,,63,0
167507,note_on,227,0,1,,,,,,,,,0,,,56,0
167519,note_on,0,0,0,,,,,,,,,0,,,75,0
167519,note_on,239,0,0,,,,,,,,,0,,,68,0
167519,note_on,0,0,0,,,,,,,,,0,,,72,0
167520,note_on,0,0,0,,,,,,,,,0,,,79,45
167520,note_on,0,0,0,,,,,,,,,0,,,72,45
167520,set_tempo,1,1,0,,,,,,750002,,,,,,,
167520,note_on,0,0,0,,,,,,,,,0,,,75,45
167711,note_on,0,0,0,,,,,,,,,0,,,79,0
167711,note_on,0,0,0,,,,,,,,,0,,,75,0
167711,note_on,191,0,0,,,,,,,,,0,,,72,0
167712,note_on,0,0,0,,,,,,,,,0,,,75,45
167712,note_on,0,0,0,,,,,,,,,0,,,72,45
167712,set_tempo,1,1,0,,,,,,800000,,,,,,,
167712,note_on,0,0,0,,,,,,,,,0,,,80,45
167807,note_on,0,0,0,,,,,,,,,0,,,75,0
167807,note_on,0,0,0,,,,,,,,,0,,,80,0
167807,note_on,95,0,0,,,,,,,,,0,,,72,0
167808,note_on,0,0,0,,,,,,,,,0,,,80,46
167808,note_on,1,0,0,,,,,,,,,0,,,75,46
167808,note_on,0,0,0,,,,,,,,,0,,,84,46
167903,note_on,95,0,0,,,,,,,,,0,,,75,0
167903,note_on,0,0,0,,,,,,,,,0,,,84,0
167903,note_on,0,0,0,,,,,,,,,0,,,80,0
167904,note_on,0,0,0,,,,,,,,,0,,,87,46
167904,note_on,1,0,0,,,,,,,,,0,,,84,46
167999,note_on,95,0,0,,,,,,,,,0,,,84,0
167999,note_on,0,0,0,,,,,,,,,0,,,87,0
168000,set_tempo,1,1,0,,,,,,923077,,,,,,,
168000,note_on,0,0,0,,,,,,,,,0,,,87,46
168000,note_on,0,0,0,,,,,,,,,0,,,96,46
168000,note_on,493,0,1,,,,,,,,,0,,,32,46
168001,control_change,1,0,1,,,,,,,64,0,0,,,,
168002,control_change,1,0,1,,,,,,,64,127,0,,,,
168113,note_on,113,0,0,,,,,,,,,0,,,87,0
168113,note_on,0,0,0,,,,,,,,,0,,,96,0
168120,note_on,0,0,0,,,,,,,,,0,,,84,47
168120,note_on,0,0,0,,,,,,,,,0,,,87,47
168120,set_tempo,7,1,0,,,,,,631579,,,,,,,
168120,note_on,0,0,0,,,,,,,,,0,,,92,47
168227,note_on,225,0,1,,,,,,,,,0,,,32,0
168240,note_on,0,0,1,,,,,,,,,0,,,51,47
168240,note_on,0,0,1,,,,,,,,,0,,,56,47
168240,note_on,13,0,1,,,,,,,,,0,,,48,47
168479,note_on,0,0,1,,,,,,,,,0,,,56,0
168479,note_on,239,0,1,,,,,,,,,0,,,48,0
168479,note_on,0,0,1,,,,,,,,,0,,,51,0
168480,note_on,0,0,1,,,,,,,,,0,,,56,47
168480,note_on,0,0,1,,,,,,,,,0,,,60,47
168480,note_on,1,0,1,,,,,,,,,0,,,51,47
168575,note_on,455,0,0,,,,,,,,,0,,,84,0
168575,note_on,0,0,0,,,,,,,,,0,,,87,0
168575,note_on,0,0,0,,,,,,,,,0,,,92,0
168719,note_on,0,0,1,,,,,,,,,0,,,60,0
168719,note_on,0,0,1,,,,,,,,,0,,,56,0
168719,note_on,239,0,1,,,,,,,,,0,,,51,0
168720,note_on,1,0,1,,,,,,,,,0,,,56,47
168720,note_on,0,0,1,,,,,,,,,0,,,63,47
168720,note_on,0,0,1,,,,,,,,,0,,,60,47
168947,note_on,0,0,1,,,,,,,,,0,,,60,0
168947,note_on,0,0,1,,,,,,,,,0,,,63,0
168947,note_on,227,0,1,,,,,,,,,0,,,56,0
169020,note_on,0,0,0,,,,,,,,,0,,,75,47
169020,set_tempo,445,1,0,,,,,,1200000,,,,,,,
169076,note_on,56,0,0,,,,,,,,,0,,,75,0
169080,note_on,4,0,0,,,,,,,,,0,,,75,47
169136,note_on,56,0,0,,,,,,,,,0,,,75,0
169140,note_on,4,0,0,,,,,,,,,0,,,77,47
169196,note_on,56,0,0,,,,,,,,,0,,,77,0
169200,note_on,4,0,0,,,,,,,,,0,,,75,47
169237,note_on,37,0,0,,,,,,,,,0,,,75,0
169240,note_on,3,0,0,,,,,,,,,0,,,74,47
169277,note_on,37,0,0,,,,,,,,,0,,,74,0
169280,note_on,3,0,0,,,,,,,,,0,,,75,47
169317,note_on,37,0,0,,,,,,,,,0,,,75,0
169320,set_tempo,3,1,0,,,,,,5040000,,,,,,,
169320,note_on,0,0,0,,,,,,,,,0,,,84,47
169376,note_on,56,0,0,,,,,,,,,0,,,84,0
169379,set_tempo,3,1,0,,,,,,1200000,,,,,,,
169380,set_tempo,1,1,0,,,,,,4800000,,,,,,,
169380,note_on,0,0,0,,,,,,,,,0,,,79,47
169436,note_on,56,0,0,,,,,,,,,0,,,79,0
169439,set_tempo,3,1,0,,,,,,1200000,,,,,,,
169440,set_tempo,1,1,0,,,,,,560748,,,,,,,
169440,note_on,493,0,1,,,,,,,,,0,,,32,44
169440,note_on,0,0,0,,,,,,,,,0,,,82,72
169441,control_change,1,0,1,,,,,,,64,0,0,,,,
169442,control_change,1,0,1,,,,,,,64,127,0,,,,
169667,note_on,225,0,1,,,,,,,,,0,,,32,0
169680,note_on,13,0,1,,,,,,,,,0,,,44,44
169680,note_on,0,0,1,,,,,,,,,0,,,51,44
169680,note_on,240,0,0,,,,,,,,,0,,,72,44
169919,note_on,239,0,1,,,,,,,,,0,,,44,0
169919,note_on,0,0,1,,,,,,,,,0,,,51,0
169919,note_on,239,0,0,,,,,,,,,0,,,72,0
169920,note_on,1,0,0,,,,,,,,,0,,,63,44
169920,note_on,0,0,1,,,,,,,,,0,,,56,44
169920,note_on,1,0,1,,,,,,,,,0,,,48,44
170159,note_on,0,0,0,,,,,,,,,0,,,63,0
170159,note_on,239,0,1,,,,,,,,,0,,,48,0
170159,note_on,239,0,0,,,,,,,,,0,,,82,0
170159,note_on,0,0,1,,,,,,,,,0,,,56,0
170160,note_on,0,0,1,,,,,,,,,0,,,60,44
170160,note_on,0,0,0,,,,,,,,,0,,,80,48
170160,note_on,1,0,0,,,,,,,,,0,,,68,44
170160,note_on,1,0,1,,,,,,,,,0,,,51,44
170387,note_on,227,0,1,,,,,,,,,0,,,51,0
170387,note_on,0,0,1,,,,,,,,,0,,,60,0
170399,note_on,0,0,0,,,,,,,,,0,,,80,0
170399,note_on,239,0,0,,,,,,,,,0,,,68,0
170400,note_on,1,0,0,,,,,,,,,0,,,72,48
170639,note_on,239,0,0,,,,,,,,,0,,,72,0
170640,note_on,1,0,0,,,,,,,,,0,,,73,48
170867,note_on,227,0,0,,,,,,,,,0,,,73,0
170880,note_on,13,0,0,,,,,,,,,0,,,77,72
170880,note_on,493,0,1,,,,,,,,,0,,,32,44
170881,control_change,1,0,1,,,,,,,64,0,0,,,,
170882,control_change,1,0,1,,,,,,,64,127,0,,,,
171107,note_on,225,0,1,,,,,,,,,0,,,32,0
171120,note_on,240,0,0,,,,,,,,,0,,,60,44
171120,note_on,0,0,1,,,,,,,,,0,,,51,44
171120,note_on,13,0,1,,,,,,,,,0,,,44,44
171359,note_on,239,0,0,,,,,,,,,0,,,60,0
171359,note_on,239,0,1,,,,,,,,,0,,,44,0
171359,note_on,0,0,1,,,,,,,,,0,,,51,0
171360,note_on,1,0,1,,,,,,,,,0,,,48,44
171360,note_on,1,0,0,,,,,,,,,0,,,63,44
171360,note_on,0,0,1,,,,,,,,,0,,,56,44
171599,note_on,0,0,1,,,,,,,,,0,,,56,0
171599,note_on,0,0,0,,,,,,,,,0,,,63,0
171599,note_on,239,0,1,,,,,,,,,0,,,48,0
171599,note_on,239,0,0,,,,,,,,,0,,,77,0
171600,note_on,1,0,1,,,,,,,,,0,,,51,44
171600,note_on,1,0,0,,,,,,,,,0,,,68,44
171600,note_on,0,0,0,,,,,,,,,0,,,75,48
171600,note_on,0,0,1,,,,,,,,,0,,,60,44
171827,note_on,0,0,1,,,,,,,,,0,,,60,0
171827,note_on,227,0,1,,,,,,,,,0,,,51,0
171839,note_on,0,0,0,,,,,,,,,0,,,75,0
171839,note_on,239,0,0,,,,,,,,,0,,,68,0
171840,note_on,1,0,0,,,,,,,,,0,,,73,48
172079,note_on,239,0,0,,,,,,,,,0,,,73,0
172080,note_on,1,0,0,,,,,,,,,0,,,72,48
172307,note_on,227,0,0,,,,,,,,,0,,,72,0
172320,note_on,13,0,0,,,,,,,,,0,,,72,57
172320,note_on,493,0,1,,,,,,,,,0,,,38,44
172321,control_change,1,0,1,,,,,,,64,0,0,,,,
172322,control_change,1,0,1,,,,,,,64,127,0,,,,
172547,note_on,225,0,1,,,,,,,,,0,,,38,0
172560,note_on,240,0,0,,,,,,,,,0,,,65,44
172560,note_on,0,0,1,,,,,,,,,0,,,58,44
172560,note_on,0,0,0,,,,,,,,,0,,,68,44
172560,note_on,13,0,1,,,,,,,,,0,,,50,44
172799,note_on,0,0,0,,,,,,,,,0,,,68,0
172799,note_on,239,0,0,,,,,,,,,0,,,65,0
172799,note_on,239,0,1,,,,,,,,,0,,,50,0
172799,note_on,0,0,1,,,,,,,,,0,,,58,0
172800,note_on,0,0,1,,,,,,,,,0,,,62,44
172800,note_on,1,0,0,,,,,,,,,0,,,58,44
172800,note_on,1,0,1,,,,,,,,,0,,,53,44
172801,note_on,1,0,0,,,,,,,,,0,,,72,0
173039,note_on,239,0,1,,,,,,,,,0,,,53,0
173039,note_on,238,0,0,,,,,,,,,0,,,58,0
173039,note_on,0,0,1,,,,,,,,,0,,,62,0
173040,note_on,0,0,1,,,,,,,,,0,,,65,44
173040,note_on,0,0,0,,,,,,,,,0,,,62,44
173040,note_on,1,0,1,,,,,,,,,0,,,56,44
173040,note_on,1,0,0,,,,,,,,,0,,,70,48
173267,note_on,0,0,1,,,,,,,,,0,,,65,0
173267,note_on,227,0,0,,,,,,,,,0,,,70,0
173267,note_on,227,0,1,,,,,,,,,0,,,56,0
173267,note_on,0,0,0,,,,,,,,,0,,,62,0
173280,note_on,13,0,0,,,,,,,,,0,,,69,48
173507,note_on,227,0,0,,,,,,,,,0,,,69,0
173520,note_on,13,0,0,,,,,,,,,0,,,70,48
173747,note_on,227,0,0,,,,,,,,,0,,,70,0
173760,note_on,13,0,0,,,,,,,,,0,,,69,44
173760,note_on,493,0,1,,,,,,,,,0,,,34,44
173761,control_change,1,0,1,,,,,,,64,0,0,,,,
173762,control_change,1,0,1,,,,,,,64,127,0,,,,
173815,note_on,55,0,0,,,,,,,,,0,,,69,0
173819,note_on,4,0,0,,,,,,,,,0,,,70,44
173874,note_on,55,0,0,,,,,,,,,0,,,70,0
173879,note_on,5,0,0,,,,,,,,,0,,,72,44
173934,note_on,55,0,0,,,,,,,,,0,,,72,0
173940,note_on,6,0,0,,,,,,,,,0,,,70,44
173987,note_on,225,0,1,,,,,,,,,0,,,34,0
173995,note_on,55,0,0,,,,,,,,,0,,,70,0
173999,note_on,4,0,0,,,,,,,,,0,,,72,44
174000,note_on,0,0,1,,,,,,,,,0,,,58,44
174000,note_on,0,0,0,,,,,,,,,0,,,68,44
174000,note_on,13,0,1,,,,,,,,,0,,,50,44
174000,note_on,1,0,0,,,,,,,,,0,,,65,44
174054,note_on,54,0,0,,,,,,,,,0,,,72,0
174059,note_on,5,0,0,,,,,,,,,0,,,70,44
174114,note_on,55,0,0,,,,,,,,,0,,,70,0
174120,note_on,6,0,0,,,,,,,,,0,,,72,44
174175,note_on,55,0,0,,,,,,,,,0,,,72,0
174179,note_on,4,0,0,,,,,,,,,0,,,70,44
174234,note_on,55,0,0,,,,,,,,,0,,,70,0
174239,note_on,239,0,1,,,,,,,,,0,,,50,0
174239,note_on,0,0,0,,,,,,,,,0,,,68,0
174239,note_on,0,0,0,,,,,,,,,0,,,65,0
174239,note_on,0,0,1,,,,,,,,,0,,,58,0
174239,note_on,5,0,0,,,,,,,,,0,,,72,44
174240,note_on,1,0,1,,,,,,,,,0,,,53,44
174240,note_on,1,0,0,,,,,,,,,0,,,58,44
174240,note_on,0,0,1,,,,,,,,,0,,,62,44
174294,note_on,54,0,0,,,,,,,,,0,,,72,0
174300,note_on,6,0,0,,,,,,,,,0,,,70,44
174355,note_on,55,0,0,,,,,,,,,0,,,70,0
174359,note_on,4,0,0,,,,,,,,,0,,,72,44
174471,note_on,112,0,0,,,,,,,,,0,,,72,0
174479,note_on,0,0,1,,,,,,,,,0,,,62,0
174479,note_on,8,0,0,,,,,,,,,0,,,58,0
174479,note_on,239,0,1,,,,,,,,,0,,,53,0
174480,note_on,1,0,1,,,,,,,,,0,,,56,44
174480,note_on,0,0,0,,,,,,,,,0,,,62,44
174480,note_on,0,0,1,,,,,,,,,0,,,65,44
174480,note_on,1,0,0,,,,,,,,,0,,,69,44
174539,note_on,59,0,0,,,,,,,,,0,,,69,0
174540,note_on,1,0,0,,,,,,,,,0,,,70,44
174599,note_on,59,0,0,,,,,,,,,0,,,70,0
174600,note_on,1,0,0,,,,,,,,,0,,,73,44
174659,note_on,59,0,0,,,,,,,,,0,,,73,0
174660,note_on,1,0,0,,,,,,,,,0,,,74,44
174707,note_on,227,0,1,,,,,,,,,0,,,56,0
174707,note_on,0,0,1,,,,,,,,,0,,,65,0
174719,note_on,59,0,0,,,,,,,,,0,,,62,0
174719,note_on,0,0,0,,,,,,,,,0,,,74,0
174720,note_on,1,0,0,,,,,,,,,0,,,76,44
174779,note_on,59,0,0,,,,,,,,,0,,,76,0
174780,note_on,1,0,0,,,,,,,,,0,,,77,44
174839,note_on,59,0,0,,,,,,,,,0,,,77,0
174840,note_on,1,0,0,,,,,,,,,0,,,79,45
174899,note_on,59,0,0,,,,,,,,,0,,,79,0
174900,note_on,1,0,0,,,,,,,,,0,,,80,45
174959,note_on,59,0,0,,,,,,,,,0,,,80,0
174960,note_on,1,0,0,,,,,,,,,0,,,81,45
175019,note_on,59,0,0,,,,,,,,,0,,,81,0
175020,note_on,1,0,0,,,,,,,,,0,,,82,45
175079,note_on,59,0,0,,,,,,,,,0,,,82,0
175080,note_on,1,0,0,,,,,,,,,0,,,85,45
175139,note_on,59,0,0,,,,,,,,,0,,,85,0
175140,note_on,1,0,0,,,,,,,,,0,,,86,45
175196,note_on,56,0,0,,,,,,,,,0,,,86,0
175200,note_on,493,0,1,,,,,,,,,0,,,39,46
175200,note_on,4,0,0,,,,,,,,,0,,,89,60
175201,control_change,1,0,1,,,,,,,64,0,0,,,,
175202,control_change,1,0,1,,,,,,,64,127,0,,,,
175427,note_on,225,0,1,,,,,,,,,0,,,39,0
175440,note_on,13,0,1,,,,,,,,,0,,,51,46
175440,note_on,0,0,1,,,,,,,,,0,,,56,46
175440,note_on,240,0,0,,,,,,,,,0,,,79,44
175440,note_on,0,0,1,,,,,,,,,0,,,60,46
175440,note_on,0,0,0,,,,,,,,,0,,,82,44
175679,note_on,239,0,0,,,,,,,,,0,,,79,0
175679,note_on,0,0,0,,,,,,,,,0,,,82,0
175679,note_on,239,0,1,,,,,,,,,0,,,51,0
175679,note_on,0,0,1,,,,,,,,,0,,,56,0
175679,note_on,0,0,1,,,,,,,,,0,,,60,0
175680,note_on,1,0,1,,,,,,,,,0,,,55,46
175680,note_on,1,0,0,,,,,,,,,0,,,75,44
175680,note_on,0,0,1,,,,,,,,,0,,,60,46
175680,note_on,0,0,1,,,,,,,,,0,,,63,46
175681,note_on,1,0,0,,,,,,,,,0,,,89,0
175919,note_on,0,0,1,,,,,,,,,0,,,63,0
175919,note_on,238,0,0,,,,,,,,,0,,,75,0
175919,note_on,239,0,1,,,,,,,,,0,,,55,0
175919,note_on,0,0,1,,,,,,,,,0,,,60,0
175920,note_on,1,0,0,,,,,,,,,0,,,87,50
175920,note_on,0,0,1,,,,,,,,,0,,,68,46
175920,note_on,0,0,0,,,,,,,,,0,,,72,44
175920,note_on,1,0,1,,,,,,,,,0,,,60,46
175920,note_on,0,0,1,,,,,,,,,0,,,63,46
176147,note_on,0,0,1,,,,,,,,,0,,,63,0
176147,note_on,227,0,1,,,,,,,,,0,,,60,0
176147,note_on,0,0,1,,,,,,,,,0,,,68,0
176159,note_on,0,0,0,,,,,,,,,0,,,72,0
176159,note_on,239,0,0,,,,,,,,,0,,,87,0
176160,note_on,1,0,0,,,,,,,,,0,,,84,50
176399,note_on,239,0,0,,,,,,,,,0,,,84,0
176400,note_on,1,0,0,,,,,,,,,0,,,80,50
176627,note_on,227,0,0,,,,,,,,,0,,,80,0
176640,note_on,493,0,1,,,,,,,,,0,,,39,46
176640,note_on,13,0,0,,,,,,,,,0,,,77,50
176641,control_change,1,0,1,,,,,,,64,0,0,,,,
176642,control_change,1,0,1,,,,,,,64,127,0,,,,
176879,note_on,237,0,1,,,,,,,,,0,,,39,0
176880,note_on,240,0,0,,,,,,,,,0,,,67,44
176880,note_on,0,0,0,,,,,,,,,0,,,70,44
176880,note_on,0,0,1,,,,,,,,,0,,,61,46
176880,note_on,1,0,1,,,,,,,,,0,,,51,46
177119,note_on,239,0,1,,,,,,,,,0,,,51,0
177119,note_on,0,0,0,,,,,,,,,0,,,70,0
177119,note_on,0,0,1,,,,,,,,,0,,,61,0
177119,note_on,239,0,0,,,,,,,,,0,,,67,0
177120,note_on,0,0,0,,,,,,,,,0,,,63,44
177120,note_on,0,0,1,,,,,,,,,0,,,67,46
177120,note_on,1,0,1,,,,,,,,,0,,,58,46
177120,note_on,1,0,0,,,,,,,,,0,,,61,44
177359,note_on,0,0,0,,,,,,,,,0,,,61,0
177359,note_on,0,0,1,,,,,,,,,0,,,67,0
177359,note_on,0,0,0,,,,,,,,,0,,,63,0
177359,note_on,239,0,0,,,,,,,,,0,,,77,0
177359,note_on,239,0,1,,,,,,,,,0,,,58,0
177360,note_on,0,0,1,,,,,,,,,0,,,61,46
177360,note_on,1,0,1,,,,,,,,,0,,,51,46
177360,note_on,1,0,0,,,,,,,,,0,,,75,50
177360,note_on,0,0,0,,,,,,,,,0,,,67,44
177587,note_on,227,0,1,,,,,,,,,0,,,51,0
177587,note_on,0,0,1,,,,,,,,,0,,,61,0
177599,note_on,0,0,0,,,,,,,,,0,,,67,0
177599,note_on,239,0,0,,,,,,,,,0,,,75,0
177600,note_on,1,0,0,,,,,,,,,0,,,73,50
177839,note_on,239,0,0,,,,,,,,,0,,,73,0
177840,note_on,1,0,0,,,,,,,,,0,,,70,50
178067,note_on,227,0,0,,,,,,,,,0,,,70,0
178080,time_signature,13,1,0,7,4,24,8,,,,,,,,,
178080,note_on,493,0,1,,,,,,,,,0,,,32,46
178080,note_on,0,0,0,,,,,,,,,0,,,67,52
178081,control_change,1,0,1,,,,,,,64,0,0,,,,
178082,control_change,1,0,1,,,,,,,64,127,0,,,,
178307,note_on,227,0,0,,,,,,,,,0,,,67,0
178307,note_on,225,0,1,,,,,,,,,0,,,32,0
178320,note_on,0,0,1,,,,,,,,,0,,,56,46
178320,note_on,0,0,1,,,,,,,,,0,,,51,46
178320,note_on,13,0,1,,,,,,,,,0,,,48,46
178320,note_on,13,0,0,,,,,,,,,0,,,60,46
178320,note_on,0,0,0,,,,,,,,,0,,,68,46
178320,note_on,0,0,0,,,,,,,,,0,,,63,46
178547,note_on,0,0,0,,,,,,,,,0,,,68,0
178547,note_on,227,0,0,,,,,,,,,0,,,60,0
178547,note_on,0,0,0,,,,,,,,,0,,,63,0
178559,note_on,0,0,1,,,,,,,,,0,,,56,0
178559,note_on,0,0,1,,,,,,,,,0,,,51,0
178559,note_on,239,0,1,,,,,,,,,0,,,48,0
178560,note_on,1,0,1,,,,,,,,,0,,,51,46
178560,note_on,13,0,0,,,,,,,,,0,,,63,46
178560,note_on,0,0,1,,,,,,,,,0,,,56,46
178560,note_on,0,0,0,,,,,,,,,0,,,72,46
178560,note_on,0,0,1,,,,,,,,,0,,,60,46
178560,note_on,0,0,0,,,,,,,,,0,,,68,46
178787,note_on,0,0,0,,,,,,,,,0,,,72,0
178787,note_on,0,0,0,,,,,,,,,0,,,68,0
178787,note_on,227,0,0,,,,,,,,,0,,,63,0
178799,note_on,239,0,1,,,,,,,,,0,,,51,0
178799,note_on,0,0,1,,,,,,,,,0,,,56,0
178799,note_on,0,0,1,,,,,,,,,0,,,60,0
178800,note_on,1,0,1,,,,,,,,,0,,,56,46
178800,note_on,13,0,0,,,,,,,,,0,,,68,46
178800,note_on,0,0,0,,,,,,,,,0,,,72,46
178800,note_on,0,0,1,,,,,,,,,0,,,60,46
178800,note_on,0,0,0,,,,,,,,,0,,,75,46
178800,note_on,0,0,1,,,,,,,,,0,,,63,46
179027,note_on,227,0,0,,,,,,,,,0,,,68,0
179027,note_on,0,0,1,,,,,,,,,0,,,60,0
179027,note_on,0,0,0,,,,,,,,,0,,,75,0
179027,note_on,0,0,1,,,,,,,,,0,,,63,0
179027,note_on,0,0,0,,,,,,,,,0,,,72,0
179027,note_on,227,0,1,,,,,,,,,0,,,56,0
179040,note_on,13,0,1,,,,,,,,,0,,,60,47
179040,note_on,0,0,0,,,,,,,,,0,,,79,47
179040,note_on,13,0,0,,,,,,,,,0,,,72,47
179040,note_on,0,0,1,,,,,,,,,0,,,67,47
179040,note_on,0,0,0,,,,,,,,,0,,,75,47
179040,note_on,0,0,1,,,,,,,,,0,,,63,47
179267,note_on,0,0,1,,,,,,,,,0,,,63,0
179267,note_on,0,0,0,,,,,,,,,0,,,79,0
179267,note_on,0,0,0,,,,,,,,,0,,,75,0
179267,note_on,0,0,1,,,,,,,,,0,,,67,0
179267,note_on,227,0,1,,,,,,,,,0,,,60,0
179267,note_on,227,0,0,,,,,,,,,0,,,72,0
179280,note_on,0,0,1,,,,,,,,,0,,,68,48
179280,note_on,0,0,0,,,,,,,,,0,,,80,48
179280,note_on,0,0,1,,,,,,,,,0,,,63,48
179280,note_on,0,0,0,,,,,,,,,0,,,75,48
179280,set_tempo,13,1,0,,,,,,521739,,,,,,,
179280,note_on,13,0,1,,,,,,,,,0,,,60,48
179280,note_on,0,0,0,,,,,,,,,0,,,72,48
179507,note_on,0,0,1,,,,,,,,,0,,,63,0
179507,note_on,227,0,0,,,,,,,,,0,,,72,0
179507,note_on,0,0,1,,,,,,,,,0,,,68,0
179507,note_on,0,0,0,,,,,,,,,0,,,80,0
179507,note_on,0,0,0,,,,,,,,,0,,,75,0
179507,note_on,227,0,1,,,,,,,,,0,,,60,0
179520,note_on,0,0,0,,,,,,,,,0,,,80,49
179520,note_on,0,0,0,,,,,,,,,0,,,84,49
179520,note_on,0,0,1,,,,,,,,,0,,,72,49
179520,note_on,0,0,1,,,,,,,,,0,,,68,49
179520,note_on,13,0,0,,,,,,,,,0,,,75,49
179520,note_on,13,0,1,,,,,,,,,0,,,63,49
179671,note_on,0,0,1,,,,,,,,,0,,,68,0
179671,note_on,0,0,1,,,,,,,,,0,,,72,0
179671,note_on,151,0,0,,,,,,,,,0,,,75,0
179671,note_on,0,0,0,,,,,,,,,0,,,80,0
179671,note_on,0,0,0,,,,,,,,,0,,,84,0
179671,note_on,151,0,1,,,,,,,,,0,,,63,0
179680,note_on,0,0,1,,,,,,,,,0,,,72,49
179680,note_on,0,0,0,,,,,,,,,0,,,87,49
179680,note_on,9,0,1,,,,,,,,,0,,,68,49
179680,note_on,9,0,0,,,,,,,,,0,,,84,49
179831,note_on,0,0,1,,,,,,,,,0,,,72,0
179831,note_on,151,0,0,,,,,,,,,0,,,84,0
179831,note_on,151,0,1,,,,,,,,,0,,,68,0
179831,note_on,0,0,0,,,,,,,,,0,,,87,0
179840,note_on,9,0,1,,,,,,,,,0,,,72,49
179840,note_on,0,0,0,,,,,,,,,0,,,96,49
179840,note_on,0,0,1,,,,,,,,,0,,,75,49
179840,note_on,9,0,0,,,,,,,,,0,,,87,49
179991,note_on,0,0,0,,,,,,,,,0,,,96,0
179991,note_on,0,0,1,,,,,,,,,0,,,75,0
179991,note_on,151,0,0,,,,,,,,,0,,,87,0
179991,note_on,151,0,1,,,,,,,,,0,,,72,0
180000,note_on,9,0,0,,,,,,,,,0,,,84,49
180000,note_on,9,0,1,,,,,,,,,0,,,68,49
180000,note_on,0,0,0,,,,,,,,,0,,,87,49
180000,note_on,0,0,1,,,,,,,,,0,,,80,49
180000,note_on,0,0,0,,,,,,,,,0,,,92,49
180000,note_on,0,0,1,,,,,,,,,0,,,75,49
180455,note_on,455,0,0,,,,,,,,,0,,,84,0
180455,note_on,455,0,1,,,,,,,,,0,,,68,0
180455,note_on,0,0,1,,,,,,,,,0,,,75,0
180455,note_on,0,0,1,,,,,,,,,0,,,80,0
180455,note_on,0,0,0,,,,,,,,,0,,,87,0
180455,note_on,0,0,0,,,,,,,,,0,,,92,0
180480,set_tempo,25,1,0,,,,,,1565217,,,,,,,
180719,set_tempo,239,1,0,,,,,,521739,,,,,,,
180720,set_tempo,1,1,0,,,,,,1565217,,,,,,,
180721,control_change,266,0,1,,,,,,,64,0,0,,,,
180959,set_tempo,239,1,0,,,,,,521739,,,,,,,
180960,note_on,239,0,1,,,,,,,,,0,,,56,49
180960,set_tempo,1,1,0,,,,,,1200000,,,,,,,
180984,note_on,24,0,1,,,,,,,,,0,,,56,0
180985,note_on,1,0,1,,,,,,,,,0,,,56,49
181009,note_on,24,0,1,,,,,,,,,0,,,56,0
181011,note_on,2,0,1,,,,,,,,,0,,,60,49
181035,note_on,24,0,1,,,,,,,,,0,,,60,0
181038,note_on,3,0,1,,,,,,,,,0,,,58,49
181190,note_on,152,0,1,,,,,,,,,0,,,58,0
181200,note_on,10,0,1,,,,,,,,,0,,,56,49
181427,note_on,227,0,1,,,,,,,,,0,,,56,0
181440,note_on,0,0,1,,,,,,,,,0,,,56,45
181440,note_on,0,0,1,,,,,,,,,0,,,53,45
181440,note_on,0,0,1,,,,,,,,,0,,,49,45
181440,note_on,0,0,1,,,,,,,,,0,,,44,45
181440,note_on,0,0,1,,,,,,,,,0,,,37,45
181440,key_signature,13,1,1,,,,,Db,,,,,,,,
181440,key_signature,0,1,0,,,,,Db,,,,,,,,
181440,note_on,0,0,0,,,,,,,,,0,,,65,61
181440,set_tempo,0,1,0,,,,,,666667,,,,,,,
181440,time_signature,480,1,0,6,4,24,8,,,,,,,,,
181442,control_change,2,0,1,,,,,,,64,127,0,,,,
181667,note_on,225,0,1,,,,,,,,,0,,,37,0
181667,note_on,0,0,1,,,,,,,,,0,,,49,0
181667,note_on,0,0,1,,,,,,,,,0,,,56,0
181667,note_on,0,0,1,,,,,,,,,0,,,53,0
181667,note_on,0,0,1,,,,,,,,,0,,,44,0
181680,note_on,0,0,1,,,,,,,,,0,,,53,45
181680,note_on,0,0,1,,,,,,,,,0,,,49,45
181680,note_on,0,0,1,,,,,,,,,0,,,44,45
181680,note_on,0,0,1,,,,,,,,,0,,,56,45
181680,note_on,13,0,1,,,,,,,,,0,,,37,45
181907,note_on,0,0,1,,,,,,,,,0,,,56,0
181907,note_on,227,0,1,,,,,,,,,0,,,37,0
181907,note_on,0,0,1,,,,,,,,,0,,,49,0
181907,note_on,0,0,1,,,,,,,,,0,,,44,0
181907,note_on,0,0,1,,,,,,,,,0,,,53,0
181920,note_on,0,0,1,,,,,,,,,0,,,56,45
181920,note_on,0,0,1,,,,,,,,,0,,,53,45
181920,note_on,13,0,1,,,,,,,,,0,,,37,45
181920,note_on,0,0,1,,,,,,,,,0,,,49,45
181920,note_on,0,0,1,,,,,,,,,0,,,44,45
182147,note_on,0,0,1,,,,,,,,,0,,,56,0
182147,note_on,227,0,1,,,,,,,,,0,,,37,0
182147,note_on,0,0,1,,,,,,,,,0,,,44,0
182147,note_on,0,0,1,,,,,,,,,0,,,49,0
182147,note_on,0,0,1,,,,,,,,,0,,,53,0
182159,note_on,719,0,0,,,,,,,,,0,,,65,0
182160,note_on,1,0,0,,,,,,,,,0,,,64,58
182160,note_on,0,0,1,,,,,,,,,0,,,56,45
182160,note_on,0,0,1,,,,,,,,,0,,,44,45
182160,note_on,0,0,1,,,,,,,,,0,,,49,45
182160,note_on,0,0,1,,,,,,,,,0,,,53,45
182160,note_on,13,0,1,,,,,,,,,0,,,37,45
182387,note_on,0,0,1,,,,,,,,,0,,,56,0
182387,note_on,0,0,1,,,,,,,,,0,,,44,0
182387,note_on,0,0,1,,,,,,,,,0,,,49,0
182387,note_on,227,0,1,,,,,,,,,0,,,37,0
182387,note_on,0,0,1,,,,,,,,,0,,,53,0
182399,note_on,239,0,0,,,,,,,,,0,,,64,0
182400,note_on,0,0,1,,,,,,,,,0,,,53,45
182400,note_on,0,0,1,,,,,,,,,0,,,56,45
182400,note_on,0,0,1,,,,,,,,,0,,,49,45
182400,set_tempo,1,1,0,,,,,,631579,,,,,,,
182400,note_on,0,0,1,,,,,,,,,0,,,44,45
182400,note_on,13,0,1,,,,,,,,,0,,,37,45
182400,note_on,0,0,0,,,,,,,,,0,,,65,58
182627,note_on,227,0,1,,,,,,,,,0,,,37,0
182627,note_on,0,0,1,,,,,,,,,0,,,53,0
182627,note_on,0,0,1,,,,,,,,,0,,,56,0
182627,note_on,0,0,1,,,,,,,,,0,,,49,0
182627,note_on,0,0,1,,,,,,,,,0,,,44,0
182639,note_on,239,0,0,,,,,,,,,0,,,65,0
182640,note_on,0,0,1,,,,,,,,,0,,,56,45
182640,note_on,0,0,0,,,,,,,,,0,,,64,58
182640,note_on,0,0,1,,,,,,,,,0,,,53,45
182640,note_on,0,0,1,,,,,,,,,0,,,49,45
182640,note_on,0,0,1,,,,,,,,,0,,,44,45
182640,note_on,13,0,1,,,,,,,,,0,,,37,45
182640,set_tempo,1,1,0,,,,,,600000,,,,,,,
182867,note_on,0,0,1,,,,,,,,,0,,,44,0
182867,note_on,0,0,1,,,,,,,,,0,,,53,0
182867,note_on,0,0,1,,,,,,,,,0,,,56,0
182867,note_on,227,0,1,,,,,,,,,0,,,37,0
182867,note_on,0,0,1,,,,,,,,,0,,,49,0
182867,note_on,227,0,0,,,,,,,,,0,,,64,0
182880,note_on,0,0,1,,,,,,,,,0,,,49,45
182880,note_on,13,0,1,,,,,,,,,0,,,37,45
182880,note_on,13,0,0,,,,,,,,,0,,,65,58
182880,note_on,0,0,1,,,,,,,,,0,,,44,45
182880,note_on,0,0,1,,,,,,,,,0,,,53,45
182880,note_on,0,0,1,,,,,,,,,0,,,56,45
183107,note_on,227,0,1,,,,,,,,,0,,,37,0
183107,note_on,0,0,1,,,,,,,,,0,,,56,0
183107,note_on,0,0,1,,,,,,,,,0,,,53,0
183107,note_on,0,0,1,,,,,,,,,0,,,49,0
183107,note_on,0,0,1,,,,,,,,,0,,,44,0
183119,note_on,239,0,0,,,,,,,,,0,,,65,0
183120,note_on,0,0,1,,,,,,,,,0,,,53,45
183120,note_on,0,0,1,,,,,,,,,0,,,49,45
183120,note_on,0,0,1,,,,,,,,,0,,,44,45
183120,note_on,13,0,1,,,,,,,,,0,,,37,45
183120,note_on,0,0,1,,,,,,,,,0,,,56,45
183120,note_on,0,0,0,,,,,,,,,0,,,64,58
183120,set_tempo,1,1,0,,,,,,571429,,,,,,,
183347,note_on,227,0,1,,,,,,,,,0,,,37,0
183347,note_on,0,0,1,,,,,,,,,0,,,44,0
183347,note_on,0,0,1,,,,,,,,,0,,,49,0
183347,note_on,0,0,1,,,,,,,,,0,,,53,0
183347,note_on,0,0,1,,,,,,,,,0,,,56,0
183359,note_on,239,0,0,,,,,,,,,0,,,64,0
183360,note_on,0,0,1,,,,,,,,,0,,,53,45
183360,note_on,0,0,1,,,,,,,,,0,,,49,45
183360,note_on,1,0,0,,,,,,,,,0,,,65,58
183360,note_on,13,0,1,,,,,,,,,0,,,37,45
183360,note_on,0,0,1,,,,,,,,,0,,,44,45
183360,note_on,0,0,1,,,,,,,,,0,,,56,45
183587,note_on,227,0,1,,,,,,,,,0,,,37,0
183587,note_on,0,0,1,,,,,,,,,0,,,44,0
183587,note_on,0,0,1,,,,,,,,,0,,,49,0
183587,note_on,0,0,1,,,,,,,,,0,,,53,0
183587,note_on,0,0,1,,,,,,,,,0,,,56,0
183599,note_on,239,0,0,,,,,,,,,0,,,65,0
183600,note_on,0,0,1,,,,,,,,,0,,,44,45
183600,note_on,0,0,1,,,,,,,,,0,,,49,45
183600,note_on,0,0,1,,,,,,,,,0,,,53,45
183600,note_on,0,0,1,,,,,,,,,0,,,56,45
183600,set_tempo,1,1,0,,,,,,600000,,,,,,,
183600,note_on,13,0,1,,,,,,,,,0,,,37,45
183600,note_on,0,0,0,,,,,,,,,0,,,63,58
183827,note_on,0,0,1,,,,,,,,,0,,,56,0
183827,note_on,227,0,1,,,,,,,,,0,,,37,0
183827,note_on,0,0,1,,,,,,,,,0,,,44,0
183827,note_on,0,0,1,,,,,,,,,0,,,49,0
183827,note_on,0,0,1,,,,,,,,,0,,,53,0
183839,note_on,239,0,0,,,,,,,,,0,,,63,0
183840,note_on,0,0,1,,,,,,,,,0,,,56,45
183840,note_on,0,0,0,,,,,,,,,0,,,61,58
183840,note_on,0,0,1,,,,,,,,,0,,,53,45
183840,set_tempo,1,1,0,,,,,,631579,,,,,,,
183840,note_on,0,0,1,,,,,,,,,0,,,44,45
183840,note_on,0,0,1,,,,,,,,,0,,,49,45
183840,note_on,13,0,1,,,,,,,,,0,,,37,45
184067,note_on,0,0,1,,,,,,,,,0,,,53,0
184067,note_on,0,0,1,,,,,,,,,0,,,49,0
184067,note_on,227,0,1,,,,,,,,,0,,,37,0
184067,note_on,0,0,1,,,,,,,,,0,,,44,0
184067,note_on,0,0,1,,,,,,,,,0,,,56,0
184079,note_on,239,0,0,,,,,,,,,0,,,61,0
184080,note_on,0,0,1,,,,,,,,,0,,,53,45
184080,note_on,0,0,1,,,,,,,,,0,,,56,45
184080,note_on,0,0,1,,,,,,,,,0,,,44,45
184080,note_on,1,0,0,,,,,,,,,0,,,60,58
184080,note_on,0,0,1,,,,,,,,,0,,,49,45
184080,note_on,13,0,1,,,,,,,,,0,,,37,45
184307,note_on,0,0,1,,,,,,,,,0,,,53,0
184307,note_on,0,0,1,,,,,,,,,0,,,49,0
184307,note_on,0,0,1,,,,,,,,,0,,,44,0
184307,note_on,227,0,0,,,,,,,,,0,,,60,0
184307,note_on,227,0,1,,,,,,,,,0,,,37,0
184307,note_on,0,0,1,,,,,,,,,0,,,56,0
184320,note_on,13,0,1,,,,,,,,,0,,,37,45
184320,note_on,0,0,1,,,,,,,,,0,,,44,45
184320,set_tempo,13,1,0,,,,,,666667,,,,,,,
184320,note_on,0,0,1,,,,,,,,,0,,,49,45
184320,note_on,0,0,1,,,,,,,,,0,,,53,45
184320,note_on,0,0,1,,,,,,,,,0,,,58,56
184321,control_change,1,0,1,,,,,,,64,0,0,,,,
184322,control_change,1,0,1,,,,,,,64,127,0,,,,
184547,note_on,0,0,1,,,,,,,,,0,,,44,0
184547,note_on,0,0,1,,,,,,,,,0,,,49,0
184547,note_on,0,0,1,,,,,,,,,0,,,53,0
184547,note_on,0,0,1,,,,,,,,,0,,,58,0
184547,note_on,225,0,1,,,,,,,,,0,,,37,0
184560,note_on,13,0,1,,,,,,,,,0,,,37,45
184560,note_on,0,0,1,,,,,,,,,0,,,44,45
184560,note_on,0,0,1,,,,,,,,,0,,,49,45
184560,note_on,0,0,1,,,,,,,,,0,,,53,45
184560,note_on,0,0,1,,,,,,,,,0,,,56,56
184787,note_on,0,0,1,,,,,,,,,0,,,44,0
184787,note_on,0,0,1,,,,,,,,,0,,,49,0
184787,note_on,0,0,1,,,,,,,,,0,,,53,0
184787,note_on,227,0,1,,,,,,,,,0,,,37,0
184787,note_on,0,0,1,,,,,,,,,0,,,56,0
184800,note_on,13,0,1,,,,,,,,,0,,,37,45
184800,note_on,0,0,1,,,,,,,,,0,,,44,45
184800,note_on,0,0,1,,,,,,,,,0,,,49,45
184800,note_on,0,0,1,,,,,,,,,0,,,53,45
184800,note_on,0,0,1,,,,,,,,,0,,,55,56
184800,set_tempo,480,1,0,,,,,,631579,,,,,,,
185027,note_on,227,0,1,,,,,,,,,0,,,37,0
185027,note_on,0,0,1,,,,,,,,,0,,,44,0
185027,note_on,0,0,1,,,,,,,,,0,,,49,0
185027,note_on,0,0,1,,,,,,,,,0,,,53,0
185027,note_on,0,0,1,,,,,,,,,0,,,55,0
185040,note_on,0,0,1,,,,,,,,,0,,,44,45
185040,note_on,0,0,1,,,,,,,,,0,,,49,45
185040,note_on,0,0,1,,,,,,,,,0,,,53,45
185040,note_on,0,0,1,,,,,,,,,0,,,56,56
185040,set_tempo,240,1,0,,,,,,620476,,,,,,,
185040,note_on,13,0,1,,,,,,,,,0,,,37,45
185267,note_on,0,0,1,,,,,,,,,0,,,44,0
185267,note_on,0,0,1,,,,,,,,,0,,,53,0
185267,note_on,0,0,1,,,,,,,,,0,,,56,0
185267,note_on,227,0,1,,,,,,,,,0,,,37,0
185267,note_on,0,0,1,,,,,,,,,0,,,49,0
185280,set_tempo,240,1,0,,,,,,604230,,,,,,,
185280,note_on,0,0,1,,,,,,,,,0,,,55,56
185280,note_on,0,0,1,,,,,,,,,0,,,44,45
185280,note_on,13,0,1,,,,,,,,,0,,,37,45
185280,note_on,0,0,1,,,,,,,,,0,,,53,45
185280,note_on,0,0,1,,,,,,,,,0,,,49,45
185507,note_on,0,0,1,,,,,,,,,0,,,44,0
185507,note_on,0,0,1,,,,,,,,,0,,,49,0
185507,note_on,227,0,1,,,,,,,,,0,,,37,0
185507,note_on,0,0,1,,,,,,,,,0,,,53,0
185507,note_on,0,0,1,,,,,,,,,0,,,55,0
185520,note_on,0,0,1,,,,,,,,,0,,,44,45
185520,note_on,0,0,1,,,,,,,,,0,,,49,45
185520,note_on,0,0,1,,,,,,,,,0,,,53,45
185520,note_on,0,0,1,,,,,,,,,0,,,56,56
185520,note_on,13,0,1,,,,,,,,,0,,,37,45
185520,set_tempo,240,1,0,,,,,,585366,,,,,,,
185747,note_on,0,0,1,,,,,,,,,0,,,44,0
185747,note_on,227,0,1,,,,,,,,,0,,,37,0
185747,note_on,0,0,1,,,,,,,,,0,,,49,0
185747,note_on,0,0,1,,,,,,,,,0,,,53,0
185747,note_on,0,0,1,,,,,,,,,0,,,56,0
185760,note_on,0,0,1,,,,,,,,,0,,,49,45
185760,note_on,0,0,1,,,,,,,,,0,,,53,45
185760,set_tempo,240,1,0,,,,,,565504,,,,,,,
185760,note_on,0,0,1,,,,,,,,,0,,,57,56
185760,note_on,13,0,1,,,,,,,,,0,,,37,45
185760,note_on,0,0,1,,,,,,,,,0,,,44,45
185987,note_on,0,0,1,,,,,,,,,0,,,49,0
185987,note_on,0,0,1,,,,,,,,,0,,,44,0
185987,note_on,227,0,1,,,,,,,,,0,,,37,0
185987,note_on,0,0,1,,,,,,,,,0,,,53,0
185987,note_on,0,0,1,,,,,,,,,0,,,57,0
186000,note_on,0,0,1,,,,,,,,,0,,,49,45
186000,note_on,0,0,1,,,,,,,,,0,,,53,45
186000,note_on,0,0,1,,,,,,,,,0,,,58,56
186000,note_on,0,0,1,,,,,,,,,0,,,44,45
186000,note_on,13,0,1,,,,,,,,,0,,,37,45
186000,set_tempo,240,1,0,,,,,,545455,,,,,,,
186227,note_on,0,0,1,,,,,,,,,0,,,53,0
186227,note_on,227,0,1,,,,,,,,,0,,,37,0
186227,note_on,0,0,1,,,,,,,,,0,,,44,0
186227,note_on,0,0,1,,,,,,,,,0,,,49,0
186227,note_on,0,0,1,,,,,,,,,0,,,58,0
186240,note_on,13,0,1,,,,,,,,,0,,,37,45
186240,note_on,0,0,1,,,,,,,,,0,,,59,56
186240,note_on,0,0,1,,,,,,,,,0,,,56,45
186240,note_on,0,0,1,,,,,,,,,0,,,44,45
186240,note_on,0,0,1,,,,,,,,,0,,,49,45
186240,note_on,0,0,1,,,,,,,,,0,,,53,45
186467,note_on,0,0,1,,,,,,,,,0,,,53,0
186467,note_on,0,0,1,,,,,,,,,0,,,49,0
186467,note_on,0,0,1,,,,,,,,,0,,,44,0
186467,note_on,227,0,1,,,,,,,,,0,,,37,0
186467,note_on,0,0,1,,,,,,,,,0,,,56,0
186467,note_on,0,0,1,,,,,,,,,0,,,59,0
186480,note_on,0,0,1,,,,,,,,,0,,,49,45
186480,note_on,0,0,1,,,,,,,,,0,,,53,45
186480,note_on,0,0,1,,,,,,,,,0,,,56,45
186480,note_on,0,0,1,,,,,,,,,0,,,60,57
186480,note_on,0,0,1,,,,,,,,,0,,,44,45
186480,note_on,13,0,1,,,,,,,,,0,,,37,45
186707,note_on,227,0,1,,,,,,,,,0,,,37,0
186707,note_on,0,0,1,,,,,,,,,0,,,44,0
186707,note_on,0,0,1,,,,,,,,,0,,,49,0
186707,note_on,0,0,1,,,,,,,,,0,,,53,0
186707,note_on,0,0,1,,,,,,,,,0,,,56,0
186707,note_on,0,0,1,,,,,,,,,0,,,60,0
186720,note_on,13,0,1,,,,,,,,,0,,,37,46
186720,note_on,0,0,1,,,,,,,,,0,,,61,58
186720,note_on,0,0,1,,,,,,,,,0,,,56,46
186720,note_on,0,0,1,,,,,,,,,0,,,53,46
186720,note_on,0,0,1,,,,,,,,,0,,,44,46
186720,note_on,0,0,1,,,,,,,,,0,,,49,46
186947,note_on,227,0,1,,,,,,,,,0,,,37,0
186947,note_on,0,0,1,,,,,,,,,0,,,44,0
186947,note_on,0,0,1,,,,,,,,,0,,,49,0
186947,note_on,0,0,1,,,,,,,,,0,,,53,0
186947,note_on,0,0,1,,,,,,,,,0,,,56,0
186947,note_on,0,0,1,,,,,,,,,0,,,61,0
186960,note_on,13,0,1,,,,,,,,,0,,,37,47
186960,note_on,0,0,1,,,,,,,,,0,,,44,47
186960,note_on,0,0,1,,,,,,,,,0,,,49,47
186960,note_on,0,0,1,,,,,,,,,0,,,56,47
186960,note_on,0,0,1,,,,,,,,,0,,,62,59
186960,note_on,0,0,1,,,,,,,,,0,,,53,47
187187,note_on,227,0,1,,,,,,,,,0,,,37,0
187187,note_on,0,0,1,,,,,,,,,0,,,44,0
187187,note_on,0,0,1,,,,,,,,,0,,,49,0
187187,note_on,0,0,1,,,,,,,,,0,,,53,0
187187,note_on,0,0,1,,,,,,,,,0,,,56,0
187187,note_on,0,0,1,,,,,,,,,0,,,62,0
187200,note_on,0,0,1,,,,,,,,,0,,,54,48
187200,note_on,1200,0,0,,,,,,,,,0,,,63,60
187200,note_on,13,0,1,,,,,,,,,0,,,37,48
187200,note_on,0,0,1,,,,,,,,,0,,,42,48
187200,note_on,0,0,1,,,,,,,,,0,,,46,48
187200,note_on,0,0,1,,,,,,,,,0,,,51,48
187201,control_change,1,0,1,,,,,,,64,0,0,,,,
187202,control_change,2,0,0,,,,,,,64,127,0,,,,
187427,note_on,0,0,1,,,,,,,,,0,,,46,0
187427,note_on,0,0,1,,,,,,,,,0,,,42,0
187427,note_on,226,0,1,,,,,,,,,0,,,37,0
187427,note_on,0,0,1,,,,,,,,,0,,,54,0
187427,note_on,0,0,1,,,,,,,,,0,,,51,0
187440,note_on,0,0,1,,,,,,,,,0,,,42,48
187440,note_on,0,0,1,,,,,,,,,0,,,46,48
187440,note_on,0,0,1,,,,,,,,,0,,,51,48
187440,note_on,0,0,1,,,,,,,,,0,,,54,48
187440,note_on,13,0,1,,,,,,,,,0,,,37,48
187667,note_on,0,0,1,,,,,,,,,0,,,54,0
187667,note_on,0,0,1,,,,,,,,,0,,,46,0
187667,note_on,0,0,1,,,,,,,,,0,,,42,0
187667,note_on,0,0,1,,,,,,,,,0,,,51,0
187667,note_on,227,0,1,,,,,,,,,0,,,37,0
187680,note_on,13,0,1,,,,,,,,,0,,,37,48
187680,note_on,0,0,1,,,,,,,,,0,,,54,48
187680,set_tempo,478,1,0,,,,,,545455,,,,,,,
187680,note_on,0,0,1,,,,,,,,,0,,,51,48
187680,note_on,0,0,1,,,,,,,,,0,,,46,48
187680,note_on,0,0,1,,,,,,,,,0,,,42,48
187907,note_on,0,0,1,,,,,,,,,0,,,42,0
187907,note_on,0,0,1,,,,,,,,,0,,,46,0
187907,note_on,0,0,1,,,,,,,,,0,,,51,0
187907,note_on,0,0,1,,,,,,,,,0,,,54,0
187907,note_on,227,0,1,,,,,,,,,0,,,37,0
187920,note_on,0,0,1,,,,,,,,,0,,,54,48
187920,note_on,0,0,1,,,,,,,,,0,,,42,48
187920,note_on,0,0,1,,,,,,,,,0,,,46,48
187920,set_tempo,240,1,0,,,,,,556586,,,,,,,
187920,note_on,0,0,1,,,,,,,,,0,,,51,48
187920,note_on,13,0,1,,,,,,,,,0,,,37,48
188111,note_on,191,0,0,,,,,,,,,0,,,63,0
188147,note_on,0,0,1,,,,,,,,,0,,,46,0
188147,note_on,0,0,1,,,,,,,,,0,,,51,0
188147,note_on,0,0,1,,,,,,,,,0,,,54,0
188147,note_on,0,0,1,,,,,,,,,0,,,42,0
188147,note_on,227,0,1,,,,,,,,,0,,,37,0
188160,note_on,0,0,0,,,,,,,,,0,,,58,60
188160,note_on,0,0,1,,,,,,,,,0,,,54,48
188160,set_tempo,49,1,0,,,,,,575264,,,,,,,
188160,note_on,0,0,1,,,,,,,,,0,,,51,48
188160,note_on,13,0,1,,,,,,,,,0,,,37,48
188160,note_on,0,0,1,,,,,,,,,0,,,46,48
188160,note_on,0,0,1,,,,,,,,,0,,,42,48
188387,note_on,227,0,1,,,,,,,,,0,,,37,0
188387,note_on,0,0,1,,,,,,,,,0,,,42,0
188387,note_on,0,0,1,,,,,,,,,0,,,46,0
188387,note_on,0,0,1,,,,,,,,,0,,,51,0
188387,note_on,0,0,1,,,,,,,,,0,,,54,0
188400,set_tempo,240,1,0,,,,,,600000,,,,,,,
188400,note_on,0,0,1,,,,,,,,,0,,,46,48
188400,note_on,0,0,1,,,,,,,,,0,,,51,48
188400,note_on,13,0,1,,,,,,,,,0,,,37,48
188400,note_on,0,0,1,,,,,,,,,0,,,54,48
188400,note_on,0,0,1,,,,,,,,,0,,,42,48
188615,note_on,215,0,0,,,,,,,,,0,,,58,0
188627,note_on,0,0,1,,,,,,,,,0,,,42,0
188627,note_on,0,0,1,,,,,,,,,0,,,46,0
188627,note_on,0,0,1,,,,,,,,,0,,,51,0
188627,note_on,0,0,1,,,,,,,,,0,,,54,0
188627,note_on,227,0,1,,,,,,,,,0,,,37,0
188640,note_on,0,0,1,,,,,,,,,0,,,42,48
188640,note_on,0,0,1,,,,,,,,,0,,,46,48
188640,note_on,13,0,1,,,,,,,,,0,,,37,48
188640,note_on,0,0,1,,,,,,,,,0,,,54,48
188640,note_on,0,0,0,,,,,,,,,0,,,66,72
188640,set_tempo,25,1,0,,,,,,545455,,,,,,,
188640,note_on,0,0,1,,,,,,,,,0,,,51,48
188867,note_on,227,0,1,,,,,,,,,0,,,37,0
188867,note_on,0,0,1,,,,,,,,,0,,,42,0
188867,note_on,0,0,1,,,,,,,,,0,,,46,0
188867,note_on,0,0,1,,,,,,,,,0,,,51,0
188867,note_on,0,0,1,,,,,,,,,0,,,54,0
188880,note_on,13,0,1,,,,,,,,,0,,,37,48
188880,set_tempo,240,1,0,,,,,,549451,,,,,,,
188880,note_on,0,0,1,,,,,,,,,0,,,54,48
188880,note_on,0,0,1,,,,,,,,,0,,,51,48
188880,note_on,0,0,1,,,,,,,,,0,,,46,48
188880,note_on,0,0,1,,,,,,,,,0,,,42,48
189107,note_on,0,0,1,,,,,,,,,0,,,54,0
189107,note_on,0,0,1,,,,,,,,,0,,,46,0
189107,note_on,0,0,1,,,,,,,,,0,,,42,0
189107,note_on,227,0,1,,,,,,,,,0,,,37,0
189107,note_on,0,0,1,,,,,,,,,0,,,51,0
189120,note_on,13,0,1,,,,,,,,,0,,,37,48
189120,set_tempo,240,1,0,,,,,,557621,,,,,,,
189120,note_on,0,0,1,,,,,,,,,0,,,54,48
189120,note_on,0,0,1,,,,,,,,,0,,,51,48
189120,note_on,0,0,1,,,,,,,,,0,,,46,48
189120,note_on,0,0,1,,,,,,,,,0,,,42,48
189121,note_on,1,0,0,,,,,,,,,0,,,66,0
189347,note_on,0,0,1,,,,,,,,,0,,,51,0
189347,note_on,0,0,1,,,,,,,,,0,,,42,0
189347,note_on,0,0,1,,,,,,,,,0,,,54,0
189347,note_on,227,0,1,,,,,,,,,0,,,37,0
189347,note_on,0,0,1,,,,,,,,,0,,,46,0
189360,note_on,0,0,1,,,,,,,,,0,,,42,48
189360,set_tempo,239,1,0,,,,,,570342,,,,,,,
189360,note_on,13,0,1,,,,,,,,,0,,,37,48
189360,note_on,0,0,1,,,,,,,,,0,,,51,48
189360,note_on,0,0,1,,,,,,,,,0,,,54,48
189360,note_on,0,0,0,,,,,,,,,0,,,65,60
189360,note_on,0,0,1,,,,,,,,,0,,,46,48
189587,note_on,0,0,1,,,,,,,,,0,,,42,0
189587,note_on,0,0,1,,,,,,,,,0,,,46,0
189587,note_on,0,0,1,,,,,,,,,0,,,51,0
189587,note_on,0,0,1,,,,,,,,,0,,,54,0
189587,note_on,227,0,1,,,,,,,,,0,,,37,0
189587,note_on,227,0,0,,,,,,,,,0,,,65,0
189600,note_on,0,0,1,,,,,,,,,0,,,54,48
189600,note_on,0,0,1,,,,,,,,,0,,,42,48
189600,set_tempo,13,1,0,,,,,,586510,,,,,,,
189600,note_on,0,0,1,,,,,,,,,0,,,46,48
189600,note_on,0,0,0,,,,,,,,,0,,,63,60
189600,note_on,0,0,1,,,,,,,,,0,,,51,48
189600,note_on,13,0,1,,,,,,,,,0,,,37,48
189827,note_on,227,0,1,,,,,,,,,0,,,37,0
189827,note_on,0,0,1,,,,,,,,,0,,,54,0
189827,note_on,0,0,1,,,,,,,,,0,,,46,0
189827,note_on,227,0,0,,,,,,,,,0,,,63,0
189827,note_on,0,0,1,,,,,,,,,0,,,42,0
189827,note_on,0,0,1,,,,,,,,,0,,,51,0
189840,note_on,0,0,0,,,,,,,,,0,,,61,60
189840,note_on,13,0,1,,,,,,,,,0,,,37,48
189840,set_tempo,13,1,0,,,,,,606673,,,,,,,
189840,note_on,0,0,1,,,,,,,,,0,,,46,48
189840,note_on,0,0,1,,,,,,,,,0,,,51,48
189840,note_on,0,0,1,,,,,,,,,0,,,54,48
189840,note_on,0,0,1,,,,,,,,,0,,,42,48
190067,note_on,0,0,1,,,,,,,,,0,,,46,0
190067,note_on,0,0,1,,,,,,,,,0,,,51,0
190067,note_on,227,0,0,,,,,,,,,0,,,61,0
190067,note_on,0,0,1,,,,,,,,,0,,,54,0
190067,note_on,227,0,1,,,,,,,,,0,,,37,0
190067,note_on,0,0,1,,,,,,,,,0,,,42,0
190080,note_on,0,0,0,,,,,,,,,0,,,61,60
190080,note_on,0,0,1,,,,,,,,,0,,,54,48
190080,note_on,13,0,1,,,,,,,,,0,,,37,48
190080,note_on,0,0,1,,,,,,,,,0,,,51,48
190080,note_on,0,0,1,,,,,,,,,0,,,48,48
190080,note_on,0,0,1,,,,,,,,,0,,,44,48
190080,set_tempo,13,1,0,,,,,,571429,,,,,,,
190081,control_change,1,0,0,,,,,,,64,0,0,,,,
190307,note_on,0,0,1,,,,,,,,,0,,,44,0
190307,note_on,227,0,1,,,,,,,,,0,,,37,0
190307,note_on,0,0,1,,,,,,,,,0,,,48,0
190307,note_on,0,0,1,,,,,,,,,0,,,51,0
190307,note_on,0,0,1,,,,,,,,,0,,,54,0
190320,note_on,0,0,1,,,,,,,,,0,,,54,48
190320,note_on,13,0,1,,,,,,,,,0,,,37,48
190320,note_on,0,0,1,,,,,,,,,0,,,44,48
190320,note_on,0,0,1,,,,,,,,,0,,,48,48
190320,note_on,0,0,1,,,,,,,,,0,,,51,48
190547,note_on,0,0,1,,,,,,,,,0,,,44,0
190547,note_on,0,0,1,,,,,,,,,0,,,48,0
190547,note_on,0,0,1,,,,,,,,,0,,,51,0
190547,note_on,0,0,1,,,,,,,,,0,,,54,0
190547,note_on,227,0,1,,,,,,,,,0,,,37,0
190560,note_on,0,0,1,,,,,,,,,0,,,54,48
190560,note_on,13,0,1,,,,,,,,,0,,,37,48
190560,note_on,0,0,1,,,,,,,,,0,,,44,48
190560,note_on,0,0,1,,,,,,,,,0,,,51,48
190560,note_on,0,0,1,,,,,,,,,0,,,48,48
190763,note_on,682,0,0,,,,,,,,,0,,,61,0
190787,note_on,227,0,1,,,,,,,,,0,,,37,0
190787,note_on,0,0,1,,,,,,,,,0,,,44,0
190787,note_on,0,0,1,,,,,,,,,0,,,48,0
190787,note_on,0,0,1,,,,,,,,,0,,,51,0
190787,note_on,0,0,1,,,,,,,,,0,,,54,0
190800,note_on,37,0,0,,,,,,,,,0,,,60,60
190800,note_on,0,0,1,,,,,,,,,0,,,48,48
190800,note_on,0,0,1,,,,,,,,,0,,,51,48
190800,note_on,0,0,1,,,,,,,,,0,,,54,48
190800,note_on,13,0,1,,,,,,,,,0,,,37,48
190800,note_on,0,0,1,,,,,,,,,0,,,44,48
191027,note_on,227,0,0,,,,,,,,,0,,,60,0
191027,note_on,227,0,1,,,,,,,,,0,,,37,0
191027,note_on,0,0,1,,,,,,,,,0,,,51,0
191027,note_on,0,0,1,,,,,,,,,0,,,48,0
191027,note_on,0,0,1,,,,,,,,,0,,,44,0
191027,note_on,0,0,1,,,,,,,,,0,,,54,0
191040,note_on,0,0,1,,,,,,,,,0,,,44,48
191040,note_on,0,0,1,,,,,,,,,0,,,51,48
191040,note_on,0,0,1,,,,,,,,,0,,,54,48
191040,note_on,13,0,1,,,,,,,,,0,,,37,48
191040,note_on,13,0,0,,,,,,,,,0,,,58,60
191040,note_on,0,0,1,,,,,,,,,0,,,48,48
191267,note_on,227,0,0,,,,,,,,,0,,,58,0
191267,note_on,227,0,1,,,,,,,,,0,,,37,0
191267,note_on,0,0,1,,,,,,,,,0,,,54,0
191267,note_on,0,0,1,,,,,,,,,0,,,48,0
191267,note_on,0,0,1,,,,,,,,,0,,,51,0
191267,note_on,0,0,1,,,,,,,,,0,,,44,0
191280,set_tempo,13,1,0,,,,,,560748,,,,,,,
191280,note_on,0,0,1,,,,,,,,,0,,,48,48
191280,note_on,0,0,1,,,,,,,,,0,,,51,48
191280,note_on,0,0,1,,,,,,,,,0,,,54,48
191280,note_on,13,0,1,,,,,,,,,0,,,37,48
191280,note_on,0,0,0,,,,,,,,,0,,,56,60
191280,note_on,0,0,1,,,,,,,,,0,,,44,48
191507,note_on,227,0,1,,,,,,,,,0,,,37,0
191507,note_on,0,0,1,,,,,,,,,0,,,44,0
191507,note_on,0,0,1,,,,,,,,,0,,,48,0
191507,note_on,0,0,1,,,,,,,,,0,,,51,0
191507,note_on,0,0,1,,,,,,,,,0,,,54,0
191507,note_on,227,0,0,,,,,,,,,0,,,56,0
191520,note_on,13,0,0,,,,,,,,,0,,,55,60
191520,note_on,13,0,1,,,,,,,,,0,,,37,48
191520,note_on,0,0,1,,,,,,,,,0,,,44,48
191520,note_on,0,0,1,,,,,,,,,0,,,48,48
191520,note_on,0,0,1,,,,,,,,,0,,,51,48
191520,note_on,0,0,1,,,,,,,,,0,,,54,48
191747,note_on,227,0,1,,,,,,,,,0,,,37,0
191747,note_on,0,0,1,,,,,,,,,0,,,54,0
191747,note_on,0,0,1,,,,,,,,,0,,,51,0
191747,note_on,0,0,1,,,,,,,,,0,,,48,0
191747,note_on,0,0,1,,,,,,,,,0,,,44,0
191747,note_on,227,0,0,,,,,,,,,0,,,55,0
191760,note_on,0,0,1,,,,,,,,,0,,,48,48
191760,note_on,0,0,1,,,,,,,,,0,,,51,48
191760,note_on,13,0,1,,,,,,,,,0,,,37,48
191760,note_on,0,0,1,,,,,,,,,0,,,54,48
191760,note_on,13,0,0,,,,,,,,,0,,,56,60
191760,note_on,0,0,1,,,,,,,,,0,,,44,48
191987,note_on,0,0,1,,,,,,,,,0,,,51,0
191987,note_on,227,0,0,,,,,,,,,0,,,56,0
191987,note_on,0,0,1,,,,,,,,,0,,,44,0
191987,note_on,0,0,1,,,,,,,,,0,,,54,0
191987,note_on,0,0,1,,,,,,,,,0,,,48,0
191987,note_on,227,0,1,,,,,,,,,0,,,37,0
192000,note_on,13,0,0,,,,,,,,,0,,,57,60
192000,note_on,0,0,1,,,,,,,,,0,,,45,48
192000,note_on,0,0,1,,,,,,,,,0,,,48,48
192000,note_on,0,0,1,,,,,,,,,0,,,51,48
192000,note_on,0,0,1,,,,,,,,,0,,,54,48
192000,note_on,13,0,1,,,,,,,,,0,,,37,48
192227,note_on,0,0,1,,,,,,,,,0,,,48,0
192227,note_on,227,0,1,,,,,,,,,0,,,37,0
192227,note_on,0,0,1,,,,,,,,,0,,,51,0
192227,note_on,0,0,1,,,,,,,,,0,,,54,0
192227,note_on,227,0,0,,,,,,,,,0,,,57,0
192227,note_on,0,0,1,,,,,,,,,0,,,45,0
192240,note_on,0,0,1,,,,,,,,,0,,,51,48
192240,set_tempo,13,1,0,,,,,,600000,,,,,,,
192240,note_on,0,0,1,,,,,,,,,0,,,44,48
192240,note_on,0,0,1,,,,,,,,,0,,,54,48
192240,note_on,0,0,0,,,,,,,,,0,,,56,60
192240,note_on,13,0,1,,,,,,,,,0,,,37,48
192240,note_on,0,0,1,,,,,,,,,0,,,48,48
192467,note_on,0,0,1,,,,,,,,,0,,,44,0
192467,note_on,0,0,1,,,,,,,,,0,,,48,0
192467,note_on,0,0,1,,,,,,,,,0,,,51,0
192467,note_on,227,0,0,,,,,,,,,0,,,56,0
192467,note_on,0,0,1,,,,,,,,,0,,,54,0
192467,note_on,227,0,1,,,,,,,,,0,,,37,0
192480,note_on,13,0,0,,,,,,,,,0,,,60,53
192480,note_on,0,0,1,,,,,,,,,0,,,48,48
192480,note_on,0,0,1,,,,,,,,,0,,,54,48
192480,note_on,13,0,1,,,,,,,,,0,,,37,48
192480,note_on,0,0,1,,,,,,,,,0,,,46,48
192480,note_on,0,0,1,,,,,,,,,0,,,51,48
192530,note_on,50,0,0,,,,,,,,,0,,,60,0
192531,note_on,1,0,0,,,,,,,,,0,,,58,60
192707,note_on,227,0,1,,,,,,,,,0,,,37,0
192707,note_on,0,0,1,,,,,,,,,0,,,48,0
192707,note_on,0,0,1,,,,,,,,,0,,,51,0
192707,note_on,0,0,1,,,,,,,,,0,,,54,0
192707,note_on,0,0,1,,,,,,,,,0,,,46,0
192708,note_on,177,0,0,,,,,,,,,0,,,58,0
192720,note_on,0,0,1,,,,,,,,,0,,,44,48
192720,note_on,0,0,1,,,,,,,,,0,,,48,48
192720,note_on,12,0,0,,,,,,,,,0,,,56,60
192720,note_on,0,0,1,,,,,,,,,0,,,51,48
192720,note_on,13,0,1,,,,,,,,,0,,,37,48
192720,note_on,0,0,1,,,,,,,,,0,,,54,48
192947,note_on,227,0,0,,,,,,,,,0,,,56,0
192947,note_on,227,0,1,,,,,,,,,0,,,37,0
192947,note_on,0,0,1,,,,,,,,,0,,,44,0
192947,note_on,0,0,1,,,,,,,,,0,,,48,0
192947,note_on,0,0,1,,,,,,,,,0,,,51,0
192947,note_on,0,0,1,,,,,,,,,0,,,54,0
192960,set_tempo,13,1,0,,,,,,600000,,,,,,,
192960,note_on,0,0,1,,,,,,,,,0,,,49,48
192960,note_on,0,0,0,,,,,,,,,0,,,68,72
192960,note_on,13,0,1,,,,,,,,,0,,,37,48
192960,note_on,0,0,1,,,,,,,,,0,,,44,48
192960,note_on,0,0,1,,,,,,,,,0,,,53,48
192960,note_on,0,0,1,,,,,,,,,0,,,56,48
193187,note_on,227,0,1,,,,,,,,,0,,,37,0
193187,note_on,0,0,1,,,,,,,,,0,,,44,0
193187,note_on,0,0,1,,,,,,,,,0,,,49,0
193187,note_on,0,0,1,,,,,,,,,0,,,53,0
193187,note_on,0,0,1,,,,,,,,,0,,,56,0
193200,set_tempo,240,1,0,,,,,,570342,,,,,,,
193200,note_on,0,0,1,,,,,,,,,0,,,56,48
193200,note_on,13,0,1,,,,,,,,,0,,,37,48
193200,note_on,0,0,1,,,,,,,,,0,,,49,48
193200,note_on,0,0,1,,,,,,,,,0,,,44,48
193200,note_on,0,0,1,,,,,,,,,0,,,53,48
193427,note_on,0,0,1,,,,,,,,,0,,,44,0
193427,note_on,0,0,1,,,,,,,,,0,,,49,0
193427,note_on,0,0,1,,,,,,,,,0,,,53,0
193427,note_on,227,0,1,,,,,,,,,0,,,37,0
193427,note_on,0,0,1,,,,,,,,,0,,,56,0
193440,note_on,0,0,1,,,,,,,,,0,,,44,48
193440,note_on,0,0,1,,,,,,,,,0,,,53,48
193440,note_on,0,0,1,,,,,,,,,0,,,56,48
193440,note_on,13,0,1,,,,,,,,,0,,,37,48
193440,note_on,0,0,1,,,,,,,,,0,,,49,48
193440,set_tempo,240,1,0,,,,,,550964,,,,,,,
193667,note_on,0,0,1,,,,,,,,,0,,,44,0
193667,note_on,0,0,1,,,,,,,,,0,,,49,0
193667,note_on,0,0,1,,,,,,,,,0,,,53,0
193667,note_on,0,0,1,,,,,,,,,0,,,56,0
193667,note_on,227,0,1,,,,,,,,,0,,,37,0
193680,set_tempo,240,1,0,,,,,,535236,,,,,,,
193680,note_on,0,0,1,,,,,,,,,0,,,44,48
193680,note_on,0,0,1,,,,,,,,,0,,,49,48
193680,note_on,0,0,1,,,,,,,,,0,,,53,48
193680,note_on,0,0,1,,,,,,,,,0,,,56,48
193680,note_on,13,0,1,,,,,,,,,0,,,37,48
193907,note_on,0,0,1,,,,,,,,,0,,,49,0
193907,note_on,0,0,1,,,,,,,,,0,,,53,0
193907,note_on,0,0,1,,,,,,,,,0,,,56,0
193907,note_on,227,0,1,,,,,,,,,0,,,37,0
193907,note_on,0,0,1,,,,,,,,,0,,,44,0
193920,note_on,0,0,1,,,,,,,,,0,,,44,48
193920,note_on,0,0,1,,,,,,,,,0,,,49,48
193920,note_on,0,0,1,,,,,,,,,0,,,53,48
193920,note_on,0,0,1,,,,,,,,,0,,,56,48
193920,note_on,13,0,1,,,,,,,,,0,,,37,48
193920,set_tempo,240,1,0,,,,,,521739,,,,,,,
193923,note_on,3,0,0,,,,,,,,,0,,,68,0
194147,note_on,227,0,1,,,,,,,,,0,,,37,0
194147,note_on,0,0,1,,,,,,,,,0,,,44,0
194147,note_on,0,0,1,,,,,,,,,0,,,49,0
194147,note_on,0,0,1,,,,,,,,,0,,,53,0
194147,note_on,0,0,1,,,,,,,,,0,,,56,0
194160,note_on,0,0,1,,,,,,,,,0,,,44,48
194160,note_on,13,0,1,,,,,,,,,0,,,37,48
194160,note_on,0,0,1,,,,,,,,,0,,,53,48
194160,note_on,0,0,1,,,,,,,,,0,,,56,48
194160,note_on,0,0,1,,,,,,,,,0,,,49,48
194387,note_on,0,0,1,,,,,,,,,0,,,49,0
194387,note_on,0,0,1,,,,,,,,,0,,,53,0
194387,note_on,227,0,1,,,,,,,,,0,,,37,0
194387,note_on,0,0,1,,,,,,,,,0,,,56,0
194387,note_on,0,0,1,,,,,,,,,0,,,44,0
194400,note_on,477,0,0,,,,,,,,,0,,,65,60
194400,note_on,0,0,1,,,,,,,,,0,,,56,48
194400,note_on,13,0,1,,,,,,,,,0,,,37,48
194400,note_on,0,0,1,,,,,,,,,0,,,49,48
194400,note_on,0,0,1,,,,,,,,,0,,,53,48
194400,note_on,0,0,1,,,,,,,,,0,,,44,48
194627,note_on,0,0,1,,,,,,,,,0,,,44,0
194627,note_on,0,0,1,,,,,,,,,0,,,56,0
194627,note_on,0,0,1,,,,,,,,,0,,,49,0
194627,note_on,227,0,1,,,,,,,,,0,,,37,0
194627,note_on,0,0,1,,,,,,,,,0,,,53,0
194640,note_on,0,0,1,,,,,,,,,0,,,56,48
194640,note_on,0,0,1,,,,,,,,,0,,,53,48
194640,note_on,0,0,1,,,,,,,,,0,,,44,48
194640,note_on,0,0,1,,,,,,,,,0,,,49,48
194640,note_on,13,0,1,,,,,,,,,0,,,37,48
194855,note_on,455,0,0,,,,,,,,,0,,,65,0
194867,note_on,0,0,1,,,,,,,,,0,,,56,0
194867,note_on,0,0,1,,,,,,,,,0,,,49,0
194867,note_on,0,0,1,,,,,,,,,0,,,53,0
194867,note_on,0,0,1,,,,,,,,,0,,,44,0
194867,note_on,227,0,1,,,,,,,,,0,,,37,0
194880,note_on,0,0,1,,,,,,,,,0,,,56,48
194880,set_tempo,25,1,0,,,,,,521739,,,,,,,
194880,note_on,0,0,1,,,,,,,,,0,,,53,48
194880,note_on,0,0,1,,,,,,,,,0,,,49,48
194880,note_on,13,0,1,,,,,,,,,0,,,37,48
194880,note_on,0,0,1,,,,,,,,,0,,,44,48
195107,note_on,0,0,1,,,,,,,,,0,,,49,0
195107,note_on,0,0,1,,,,,,,,,0,,,53,0
195107,note_on,0,0,1,,,,,,,,,0,,,56,0
195107,note_on,0,0,1,,,,,,,,,0,,,44,0
195107,note_on,227,0,1,,,,,,,,,0,,,37,0
195120,note_on,0,0,1,,,,,,,,,0,,,56,48
195120,set_tempo,240,1,0,,,,,,542005,,,,,,,
195120,note_on,13,0,1,,,,,,,,,0,,,37,48
195120,note_on,0,0,1,,,,,,,,,0,,,53,48
195120,note_on,0,0,1,,,,,,,,,0,,,49,48
195120,note_on,0,0,1,,,,,,,,,0,,,44,48
195347,note_on,0,0,1,,,,,,,,,0,,,49,0
195347,note_on,0,0,1,,,,,,,,,0,,,44,0
195347,note_on,0,0,1,,,,,,,,,0,,,56,0
195347,note_on,0,0,1,,,,,,,,,0,,,53,0
195347,note_on,227,0,1,,,,,,,,,0,,,37,0
195360,set_tempo,240,1,0,,,,,,557621,,,,,,,
195360,note_on,0,0,1,,,,,,,,,0,,,49,48
195360,note_on,0,0,1,,,,,,,,,0,,,44,48
195360,note_on,13,0,1,,,,,,,,,0,,,37,48
195360,note_on,0,0,0,,,,,,,,,0,,,65,60
195360,note_on,0,0,1,,,,,,,,,0,,,56,48
195360,note_on,0,0,1,,,,,,,,,0,,,53,48
195587,note_on,0,0,1,,,,,,,,,0,,,53,0
195587,note_on,0,0,1,,,,,,,,,0,,,44,0
195587,note_on,0,0,1,,,,,,,,,0,,,49,0
195587,note_on,0,0,1,,,,,,,,,0,,,56,0
195587,note_on,227,0,1,,,,,,,,,0,,,37,0
195600,set_tempo,240,1,0,,,,,,571429,,,,,,,
195600,note_on,0,0,1,,,,,,,,,0,,,49,48
195600,note_on,0,0,1,,,,,,,,,0,,,53,48
195600,note_on,13,0,1,,,,,,,,,0,,,37,48
195600,note_on,0,0,1,,,,,,,,,0,,,56,48
195600,note_on,0,0,1,,,,,,,,,0,,,44,48
195815,note_on,215,0,0,,,,,,,,,0,,,65,0
195827,note_on,227,0,1,,,,,,,,,0,,,37,0
195827,note_on,0,0,1,,,,,,,,,0,,,44,0
195827,note_on,0,0,1,,,,,,,,,0,,,56,0
195827,note_on,0,0,1,,,,,,,,,0,,,49,0
195827,note_on,0,0,1,,,,,,,,,0,,,53,0
195840,note_on,13,0,1,,,,,,,,,0,,,33,48
195840,note_on,0,0,1,,,,,,,,,0,,,41,48
195840,note_on,0,0,1,,,,,,,,,0,,,53,48
195840,note_on,25,0,0,,,,,,,,,0,,,65,60
195840,note_on,0,0,1,,,,,,,,,0,,,60,48
195840,note_on,0,0,1,,,,,,,,,0,,,48,48
195842,control_change,2,0,1,,,,,,,64,127,0,,,,
196067,note_on,225,0,1,,,,,,,,,0,,,33,0
196067,note_on,0,0,1,,,,,,,,,0,,,41,0
196067,note_on,0,0,1,,,,,,,,,0,,,48,0
196067,note_on,0,0,1,,,,,,,,,0,,,53,0
196067,note_on,0,0,1,,,,,,,,,0,,,60,0
196080,note_on,0,0,1,,,,,,,,,0,,,41,48
196080,note_on,0,0,1,,,,,,,,,0,,,48,48
196080,set_tempo,240,1,0,,,,,,571429,,,,,,,
196080,note_on,0,0,1,,,,,,,,,0,,,53,48
196080,note_on,0,0,1,,,,,,,,,0,,,60,48
196080,note_on,13,0,1,,,,,,,,,0,,,33,48
196307,note_on,227,0,1,,,,,,,,,0,,,33,0
196307,note_on,0,0,1,,,,,,,,,0,,,60,0
196307,note_on,0,0,1,,,,,,,,,0,,,53,0
196307,note_on,0,0,1,,,,,,,,,0,,,41,0
196307,note_on,0,0,1,,,,,,,,,0,,,48,0
196320,note_on,0,0,1,,,,,,,,,0,,,60,48
196320,note_on,13,0,1,,,,,,,,,0,,,33,48
196320,note_on,0,0,1,,,,,,,,,0,,,48,48
196320,set_tempo,240,1,0,,,,,,557621,,,,,,,
196320,note_on,0,0,1,,,,,,,,,0,,,41,48
196320,note_on,0,0,1,,,,,,,,,0,,,53,48
196547,note_on,0,0,1,,,,,,,,,0,,,41,0
196547,note_on,0,0,1,,,,,,,,,0,,,48,0
196547,note_on,0,0,1,,,,,,,,,0,,,53,0
196547,note_on,227,0,1,,,,,,,,,0,,,33,0
196547,note_on,0,0,1,,,,,,,,,0,,,60,0
196559,note_on,239,0,0,,,,,,,,,0,,,65,0
196560,note_on,0,0,1,,,,,,,,,0,,,41,49
196560,set_tempo,1,1,0,,,,,,544959,,,,,,,
196560,note_on,0,0,1,,,,,,,,,0,,,48,49
196560,note_on,0,0,1,,,,,,,,,0,,,53,49
196560,note_on,0,0,1,,,,,,,,,0,,,60,49
196560,note_on,0,0,0,,,,,,,,,0,,,64,62
196560,note_on,13,0,1,,,,,,,,,0,,,33,49
196787,note_on,0,0,1,,,,,,,,,0,,,41,0
196787,note_on,0,0,1,,,,,,,,,0,,,48,0
196787,note_on,0,0,1,,,,,,,,,0,,,60,0
196787,note_on,0,0,1,,,,,,,,,0,,,53,0
196787,note_on,227,0,1,,,,,,,,,0,,,33,0
196799,note_on,239,0,0,,,,,,,,,0,,,64,0
196800,note_on,0,0,1,,,,,,,,,0,,,53,49
196800,note_on,0,0,1,,,,,,,,,0,,,60,49
196800,note_on,0,0,1,,,,,,,,,0,,,48,49
196800,note_on,13,0,1,,,,,,,,,0,,,33,49
196800,note_on,0,0,1,,,,,,,,,0,,,41,49
196800,note_on,0,0,0,,,,,,,,,0,,,65,62
196800,set_tempo,1,1,0,,,,,,532860,,,,,,,
197027,note_on,0,0,1,,,,,,,,,0,,,41,0
197027,note_on,0,0,1,,,,,,,,,0,,,60,0
197027,note_on,0,0,1,,,,,,,,,0,,,48,0
197027,note_on,0,0,1,,,,,,,,,0,,,53,0
197027,note_on,227,0,1,,,,,,,,,0,,,33,0
197039,note_on,239,0,0,,,,,,,,,0,,,65,0
197040,set_tempo,1,1,0,,,,,,521739,,,,,,,
197040,note_on,13,0,1,,,,,,,,,0,,,33,50
197040,note_on,0,0,0,,,,,,,,,0,,,64,63
197040,note_on,0,0,1,,,,,,,,,0,,,60,50
197040,note_on,0,0,1,,,,,,,,,0,,,41,50
197040,note_on,0,0,1,,,,,,,,,0,,,48,50
197040,note_on,0,0,1,,,,,,,,,0,,,53,50
197267,note_on,227,0,0,,,,,,,,,0,,,64,0
197267,note_on,0,0,1,,,,,,,,,0,,,60,0
197267,note_on,0,0,1,,,,,,,,,0,,,48,0
197267,note_on,227,0,1,,,,,,,,,0,,,33,0
197267,note_on,0,0,1,,,,,,,,,0,,,53,0
197267,note_on,0,0,1,,,,,,,,,0,,,41,0
197280,note_on,0,0,1,,,,,,,,,0,,,41,50
197280,note_on,0,0,1,,,,,,,,,0,,,48,50
197280,note_on,0,0,1,,,,,,,,,0,,,60,50
197280,note_on,13,0,1,,,,,,,,,0,,,33,50
197280,note_on,0,0,1,,,,,,,,,0,,,53,50
197280,note_on,13,0,0,,,,,,,,,0,,,65,63
197507,note_on,0,0,1,,,,,,,,,0,,,48,0
197507,note_on,0,0,1,,,,,,,,,0,,,41,0
197507,note_on,227,0,1,,,,,,,,,0,,,33,0
197507,note_on,0,0,1,,,,,,,,,0,,,60,0
197507,note_on,0,0,1,,,,,,,,,0,,,53,0
197519,note_on,239,0,0,,,,,,,,,0,,,65,0
197520,note_on,0,0,1,,,,,,,,,0,,,41,50
197520,note_on,0,0,1,,,,,,,,,0,,,48,50
197520,note_on,0,0,1,,,,,,,,,0,,,60,50
197520,note_on,0,0,1,,,,,,,,,0,,,53,50
197520,note_on,1,0,0,,,,,,,,,0,,,64,63
197520,note_on,13,0,1,,,,,,,,,0,,,33,50
197747,note_on,0,0,1,,,,,,,,,0,,,41,0
197747,note_on,227,0,1,,,,,,,,,0,,,33,0
197747,note_on,0,0,1,,,,,,,,,0,,,60,0
197747,note_on,0,0,1,,,,,,,,,0,,,53,0
197747,note_on,0,0,1,,,,,,,,,0,,,48,0
197759,note_on,239,0,0,,,,,,,,,0,,,64,0
197760,note_on,0,0,1,,,,,,,,,0,,,60,51
197760,note_on,0,0,1,,,,,,,,,0,,,53,51
197760,note_on,0,0,1,,,,,,,,,0,,,48,51
197760,note_on,0,0,1,,,,,,,,,0,,,41,51
197760,note_on,0,0,0,,,,,,,,,0,,,65,64
197760,set_tempo,1,1,0,,,,,,521739,,,,,,,
197760,note_on,13,0,1,,,,,,,,,0,,,33,51
197987,note_on,0,0,1,,,,,,,,,0,,,60,0
197987,note_on,227,0,1,,,,,,,,,0,,,33,0
197987,note_on,0,0,1,,,,,,,,,0,,,41,0
197987,note_on,0,0,1,,,,,,,,,0,,,53,0
197987,note_on,0,0,1,,,,,,,,,0,,,48,0
197999,note_on,239,0,0,,,,,,,,,0,,,65,0
198000,set_tempo,1,1,0,,,,,,527704,,,,,,,
198000,note_on,0,0,1,,,,,,,,,0,,,60,51
198000,note_on,0,0,1,,,,,,,,,0,,,48,51
198000,note_on,0,0,1,,,,,,,,,0,,,41,51
198000,note_on,0,0,1,,,,,,,,,0,,,53,51
198000,note_on,13,0,1,,,,,,,,,0,,,33,51
198000,note_on,0,0,0,,,,,,,,,0,,,66,64
198227,note_on,0,0,1,,,,,,,,,0,,,60,0
198227,note_on,227,0,1,,,,,,,,,0,,,33,0
198227,note_on,0,0,1,,,,,,,,,0,,,41,0
198227,note_on,0,0,1,,,,,,,,,0,,,48,0
198227,note_on,0,0,1,,,,,,,,,0,,,53,0
198239,note_on,239,0,0,,,,,,,,,0,,,66,0
198240,note_on,0,0,0,,,,,,,,,0,,,65,65
198240,note_on,13,0,1,,,,,,,,,0,,,33,52
198240,note_on,0,0,1,,,,,,,,,0,,,60,52
198240,note_on,0,0,1,,,,,,,,,0,,,53,52
198240,note_on,0,0,1,,,,,,,,,0,,,48,52
198240,note_on,0,0,1,,,,,,,,,0,,,41,52
198240,set_tempo,1,1,0,,,,,,533333,,,,,,,
198467,note_on,227,0,1,,,,,,,,,0,,,33,0
198467,note_on,0,0,1,,,,,,,,,0,,,48,0
198467,note_on,0,0,1,,,,,,,,,0,,,41,0
198467,note_on,0,0,1,,,,,,,,,0,,,53,0
198467,note_on,0,0,1,,,,,,,,,0,,,60,0
198479,note_on,239,0,0,,,,,,,,,0,,,65,0
198480,note_on,0,0,0,,,,,,,,,0,,,63,65
198480,note_on,0,0,1,,,,,,,,,0,,,60,52
198480,note_on,0,0,1,,,,,,,,,0,,,48,52
198480,note_on,0,0,1,,,,,,,,,0,,,53,52
198480,note_on,13,0,1,,,,,,,,,0,,,33,52
198480,set_tempo,1,1,0,,,,,,539568,,,,,,,
198480,note_on,0,0,1,,,,,,,,,0,,,41,52
198707,note_on,227,0,0,,,,,,,,,0,,,63,0
198707,note_on,0,0,1,,,,,,,,,0,,,41,0
198707,note_on,0,0,1,,,,,,,,,0,,,48,0
198707,note_on,0,0,1,,,,,,,,,0,,,53,0
198707,note_on,0,0,1,,,,,,,,,0,,,60,0
198707,note_on,227,0,1,,,,,,,,,0,,,33,0
198720,note_on,13,0,1,,,,,,,,,0,,,34,53
198720,set_tempo,13,1,0,,,,,,545455,,,,,,,
198720,note_on,0,0,1,,,,,,,,,0,,,46,53
198720,note_on,0,0,1,,,,,,,,,0,,,53,53
198720,note_on,0,0,0,,,,,,,,,0,,,63,100
198720,note_on,0,0,1,,,,,,,,,0,,,58,53
198720,note_on,0,0,1,,,,,,,,,0,,,41,53
198721,control_change,1,0,1,,,,,,,64,0,0,,,,
198722,control_change,2,0,0,,,,,,,64,127,0,,,,
198947,note_on,0,0,1,,,,,,,,,0,,,53,0
198947,note_on,0,0,1,,,,,,,,,0,,,46,0
198947,note_on,0,0,1,,,,,,,,,0,,,41,0
198947,note_on,226,0,1,,,,,,,,,0,,,34,0
198947,note_on,0,0,1,,,,,,,,,0,,,58,0
198960,note_on,0,0,1,,,,,,,,,0,,,58,53
198960,note_on,0,0,1,,,,,,,,,0,,,46,53
198960,note_on,0,0,1,,,,,,,,,0,,,41,53
198960,note_on,0,0,1,,,,,,,,,0,,,53,53
198960,note_on,13,0,1,,,,,,,,,0,,,34,53
199187,note_on,227,0,1,,,,,,,,,0,,,34,0
199187,note_on,0,0,1,,,,,,,,,0,,,41,0
199187,note_on,0,0,1,,,,,,,,,0,,,46,0
199187,note_on,0,0,1,,,,,,,,,0,,,53,0
199187,note_on,0,0,1,,,,,,,,,0,,,58,0
199200,note_on,0,0,1,,,,,,,,,0,,,58,54
199200,note_on,0,0,1,,,,,,,,,0,,,53,54
199200,note_on,0,0,1,,,,,,,,,0,,,46,54
199200,note_on,0,0,1,,,,,,,,,0,,,41,54
199200,note_on,13,0,1,,,,,,,,,0,,,34,54
199427,note_on,0,0,1,,,,,,,,,0,,,46,0
199427,note_on,0,0,1,,,,,,,,,0,,,41,0
199427,note_on,0,0,1,,,,,,,,,0,,,58,0
199427,note_on,0,0,1,,,,,,,,,0,,,53,0
199427,note_on,227,0,1,,,,,,,,,0,,,34,0
199439,note_on,717,0,0,,,,,,,,,0,,,63,0
199440,note_on,0,0,1,,,,,,,,,0,,,46,54
199440,note_on,13,0,1,,,,,,,,,0,,,34,54
199440,note_on,0,0,1,,,,,,,,,0,,,53,54
199440,note_on,0,0,1,,,,,,,,,0,,,58,54
199440,note_on,0,0,0,,,,,,,,,0,,,60,69
199440,set_tempo,1,1,0,,,,,,533333,,,,,,,
199440,note_on,0,0,1,,,,,,,,,0,,,41,54
199667,note_on,0,0,1,,,,,,,,,0,,,46,0
199667,note_on,0,0,1,,,,,,,,,0,,,41,0
199667,note_on,0,0,1,,,,,,,,,0,,,53,0
199667,note_on,0,0,1,,,,,,,,,0,,,58,0
199667,note_on,227,0,1,,,,,,,,,0,,,34,0
199679,note_on,239,0,0,,,,,,,,,0,,,60,0
199680,set_tempo,1,1,0,,,,,,529101,,,,,,,
199680,note_on,0,0,0,,,,,,,,,0,,,63,70
199680,note_on,13,0,1,,,,,,,,,0,,,34,55
199680,note_on,0,0,1,,,,,,,,,0,,,41,55
199680,note_on,0,0,1,,,,,,,,,0,,,46,55
199680,note_on,0,0,1,,,,,,,,,0,,,53,55
199680,note_on,0,0,1,,,,,,,,,0,,,58,55
199907,note_on,0,0,1,,,,,,,,,0,,,58,0
199907,note_on,227,0,1,,,,,,,,,0,,,34,0
199907,note_on,0,0,1,,,,,,,,,0,,,41,0
199907,note_on,0,0,1,,,,,,,,,0,,,53,0
199907,note_on,0,0,1,,,,,,,,,0,,,46,0
199919,note_on,239,0,0,,,,,,,,,0,,,63,0
199920,note_on,0,0,1,,,,,,,,,0,,,41,56
199920,note_on,0,0,1,,,,,,,,,0,,,46,56
199920,set_tempo,1,1,0,,,,,,525394,,,,,,,
199920,note_on,13,0,1,,,,,,,,,0,,,34,56
199920,note_on,0,0,1,,,,,,,,,0,,,53,56
199920,note_on,0,0,1,,,,,,,,,0,,,58,56
199920,note_on,0,0,0,,,,,,,,,0,,,61,71
200147,note_on,0,0,1,,,,,,,,,0,,,41,0
200147,note_on,0,0,1,,,,,,,,,0,,,53,0
200147,note_on,227,0,0,,,,,,,,,0,,,61,0
200147,note_on,227,0,1,,,,,,,,,0,,,34,0
200147,note_on,0,0,1,,,,,,,,,0,,,46,0
200147,note_on,0,0,1,,,,,,,,,0,,,58,0
200160,note_on,0,0,1,,,,,,,,,0,,,53,57
200160,note_on,0,0,0,,,,,,,,,0,,,65,108
200160,note_on,0,0,1,,,,,,,,,0,,,58,57
200160,note_on,0,0,1,,,,,,,,,0,,,61,57
200160,set_tempo,13,1,0,,,,,,521739,,,,,,,
200160,note_on,0,0,1,,,,,,,,,0,,,46,57
200160,note_on,13,0,1,,,,,,,,,0,,,31,57
200160,note_on,0,0,1,,,,,,,,,0,,,37,57
200161,control_change,1,0,0,,,,,,,64,0,0,,,,
200162,control_change,1,0,0,,,,,,,64,127,0,,,,
200387,note_on,0,0,1,,,,,,,,,0,,,37,0
200387,note_on,0,0,1,,,,,,,,,0,,,46,0
200387,note_on,0,0,1,,,,,,,,,0,,,53,0
200387,note_on,0,0,1,,,,,,,,,0,,,58,0
200387,note_on,0,0,1,,,,,,,,,0,,,61,0
200387,note_on,227,0,1,,,,,,,,,0,,,31,0
200400,note_on,0,0,1,,,,,,,,,0,,,53,58
200400,note_on,0,0,1,,,,,,,,,0,,,46,58
200400,note_on,0,0,1,,,,,,,,,0,,,58,58
200400,note_on,0,0,1,,,,,,,,,0,,,37,58
200400,note_on,0,0,1,,,,,,,,,0,,,61,58
200400,note_on,13,0,1,,,,,,,,,0,,,31,58
200627,note_on,0,0,1,,,,,,,,,0,,,37,0
200627,note_on,0,0,1,,,,,,,,,0,,,46,0
200627,note_on,0,0,1,,,,,,,,,0,,,53,0
200627,note_on,0,0,1,,,,,,,,,0,,,58,0
200627,note_on,227,0,1,,,,,,,,,0,,,31,0
200627,note_on,0,0,1,,,,,,,,,0,,,61,0
200640,note_on,0,0,1,,,,,,,,,0,,,46,59
200640,note_on,0,0,1,,,,,,,,,0,,,58,59
200640,note_on,13,0,1,,,,,,,,,0,,,31,59
200640,note_on,0,0,1,,,,,,,,,0,,,53,59
200640,note_on,0,0,1,,,,,,,,,0,,,61,59
200640,note_on,0,0,1,,,,,,,,,0,,,37,59
200867,note_on,227,0,1,,,,,,,,,0,,,31,0
200867,note_on,0,0,1,,,,,,,,,0,,,37,0
200867,note_on,0,0,1,,,,,,,,,0,,,46,0
200867,note_on,0,0,1,,,,,,,,,0,,,61,0
200867,note_on,0,0,1,,,,,,,,,0,,,58,0
200867,note_on,0,0,1,,,,,,,,,0,,,53,0
200879,note_on,717,0,0,,,,,,,,,0,,,65,0
200880,note_on,0,0,1,,,,,,,,,0,,,61,60
200880,note_on,0,0,1,,,,,,,,,0,,,58,60
200880,note_on,1,0,0,,,,,,,,,0,,,63,75
200880,note_on,13,0,1,,,,,,,,,0,,,31,60
200880,note_on,0,0,1,,,,,,,,,0,,,37,60
200880,note_on,0,0,1,,,,,,,,,0,,,46,60
200880,note_on,0,0,1,,,,,,,,,0,,,51,66
201107,note_on,0,0,1,,,,,,,,,0,,,46,0
201107,note_on,0,0,1,,,,,,,,,0,,,51,0
201107,note_on,0,0,1,,,,,,,,,0,,,58,0
201107,note_on,0,0,1,,,,,,,,,0,,,61,0
201107,note_on,227,0,1,,,,,,,,,0,,,31,0
201107,note_on,0,0,1,,,,,,,,,0,,,37,0
201119,note_on,239,0,0,,,,,,,,,0,,,63,0
201120,note_on,0,0,1,,,,,,,,,0,,,53,67
201120,note_on,0,0,1,,,,,,,,,0,,,61,61
201120,note_on,1,0,0,,,,,,,,,0,,,65,77
201120,note_on,13,0,1,,,,,,,,,0,,,31,61
201120,note_on,0,0,1,,,,,,,,,0,,,58,61
201120,note_on,0,0,1,,,,,,,,,0,,,46,61
201120,note_on,0,0,1,,,,,,,,,0,,,37,61
201347,note_on,0,0,1,,,,,,,,,0,,,46,0
201347,note_on,0,0,1,,,,,,,,,0,,,58,0
201347,note_on,0,0,1,,,,,,,,,0,,,37,0
201347,note_on,227,0,1,,,,,,,,,0,,,31,0
201347,note_on,0,0,1,,,,,,,,,0,,,53,0
201347,note_on,0,0,1,,,,,,,,,0,,,61,0
201359,note_on,239,0,0,,,,,,,,,0,,,65,0
201360,note_on,0,0,1,,,,,,,,,0,,,37,62
201360,note_on,0,0,1,,,,,,,,,0,,,46,62
201360,note_on,0,0,1,,,,,,,,,0,,,52,68
201360,note_on,13,0,1,,,,,,,,,0,,,31,62
201360,note_on,1,0,0,,,,,,,,,0,,,64,78
201360,note_on,0,0,1,,,,,,,,,0,,,58,62
201360,note_on,0,0,1,,,,,,,,,0,,,61,62
201587,note_on,0,0,1,,,,,,,,,0,,,61,0
201587,note_on,0,0,1,,,,,,,,,0,,,58,0
201587,note_on,0,0,1,,,,,,,,,0,,,52,0
201587,note_on,0,0,1,,,,,,,,,0,,,37,0
201587,note_on,0,0,1,,,,,,,,,0,,,46,0
201587,note_on,227,0,1,,,,,,,,,0,,,31,0
201587,note_on,227,0,0,,,,,,,,,0,,,64,0
201600,note_on,13,0,1,,,,,,,,,0,,,32,63
201600,note_on,0,0,1,,,,,,,,,0,,,36,63
201600,note_on,0,0,1,,,,,,,,,0,,,44,63
201600,note_on,0,0,1,,,,,,,,,0,,,55,63
201600,note_on,13,0,0,,,,,,,,,0,,,67,94
201600,note_on,0,0,1,,,,,,,,,0,,,60,63
201601,control_change,1,0,0,,,,,,,64,0,0,,,,
201602,control_change,2,0,1,,,,,,,64,127,0,,,,
201827,note_on,0,0,1,,,,,,,,,0,,,36,0
201827,note_on,225,0,1,,,,,,,,,0,,,32,0
201827,note_on,0,0,1,,,,,,,,,0,,,60,0
201827,note_on,0,0,1,,,,,,,,,0,,,55,0
201827,note_on,0,0,1,,,,,,,,,0,,,44,0
201840,note_on,0,0,1,,,,,,,,,0,,,55,63
201840,note_on,0,0,1,,,,,,,,,0,,,44,63
201840,note_on,0,0,1,,,,,,,,,0,,,60,63
201840,note_on,13,0,1,,,,,,,,,0,,,32,63
201840,note_on,0,0,1,,,,,,,,,0,,,36,63
202067,note_on,0,0,1,,,,,,,,,0,,,36,0
202067,note_on,0,0,1,,,,,,,,,0,,,44,0
202067,note_on,0,0,1,,,,,,,,,0,,,55,0
202067,note_on,227,0,1,,,,,,,,,0,,,32,0
202067,note_on,0,0,1,,,,,,,,,0,,,60,0
202080,note_on,0,0,1,,,,,,,,,0,,,36,67
202080,note_on,0,0,1,,,,,,,,,0,,,44,67
202080,note_on,0,0,1,,,,,,,,,0,,,55,67
202080,note_on,0,0,1,,,,,,,,,0,,,60,67
202080,note_on,13,0,1,,,,,,,,,0,,,32,67
202081,note_on,480,0,0,,,,,,,,,0,,,67,0
202307,note_on,227,0,1,,,,,,,,,0,,,32,0
202307,note_on,0,0,1,,,,,,,,,0,,,36,0
202307,note_on,0,0,1,,,,,,,,,0,,,44,0
202307,note_on,0,0,1,,,,,,,,,0,,,55,0
202307,note_on,0,0,1,,,,,,,,,0,,,60,0
202320,set_tempo,239,1,0,,,,,,521739,,,,,,,
202320,note_on,13,0,1,,,,,,,,,0,,,32,68
202320,note_on,0,0,1,,,,,,,,,0,,,36,68
202320,note_on,0,0,1,,,,,,,,,0,,,44,68
202320,note_on,0,0,1,,,,,,,,,0,,,53,68
202320,note_on,0,0,0,,,,,,,,,0,,,65,81
202320,note_on,0,0,1,,,,,,,,,0,,,60,68
202547,note_on,0,0,1,,,,,,,,,0,,,60,0
202547,note_on,0,0,1,,,,,,,,,0,,,53,0
202547,note_on,0,0,1,,,,,,,,,0,,,44,0
202547,note_on,0,0,1,,,,,,,,,0,,,36,0
202547,note_on,227,0,1,,,,,,,,,0,,,32,0
202559,note_on,239,0,0,,,,,,,,,0,,,65,0
202560,note_on,0,0,0,,,,,,,,,0,,,68,82
202560,note_on,0,0,1,,,,,,,,,0,,,60,72
202560,note_on,0,0,1,,,,,,,,,0,,,56,72
202560,note_on,0,0,1,,,,,,,,,0,,,40,72
202560,note_on,0,0,1,,,,,,,,,0,,,36,72
202560,note_on,13,0,1,,,,,,,,,0,,,28,72
202560,set_tempo,1,1,0,,,,,,510204,,,,,,,
202561,control_change,1,0,1,,,,,,,64,0,0,,,,
202787,note_on,226,0,1,,,,,,,,,0,,,28,0
202787,note_on,0,0,1,,,,,,,,,0,,,60,0
202787,note_on,0,0,1,,,,,,,,,0,,,56,0
202787,note_on,0,0,1,,,,,,,,,0,,,40,0
202787,note_on,0,0,1,,,,,,,,,0,,,36,0
202799,note_on,239,0,0,,,,,,,,,0,,,68,0
202800,set_tempo,1,1,0,,,,,,499584,,,,,,,
202800,note_on,0,0,1,,,,,,,,,0,,,55,73
202800,note_on,0,0,1,,,,,,,,,0,,,40,73
202800,note_on,0,0,1,,,,,,,,,0,,,36,73
202800,note_on,13,0,1,,,,,,,,,0,,,28,73
202800,note_on,0,0,0,,,,,,,,,0,,,67,83
202800,note_on,0,0,1,,,,,,,,,0,,,60,73
203027,note_on,0,0,1,,,,,,,,,0,,,40,0
203027,note_on,227,0,0,,,,,,,,,0,,,67,0
203027,note_on,0,0,1,,,,,,,,,0,,,60,0
203027,note_on,0,0,1,,,,,,,,,0,,,55,0
203027,note_on,0,0,1,,,,,,,,,0,,,36,0
203027,note_on,227,0,1,,,,,,,,,0,,,28,0
203040,set_tempo,13,1,0,,,,,,489396,,,,,,,
203040,note_on,13,0,1,,,,,,,,,0,,,29,74
203040,note_on,0,0,1,,,,,,,,,0,,,58,74
203040,note_on,0,0,1,,,,,,,,,0,,,60,74
203040,note_on,0,0,1,,,,,,,,,0,,,36,74
203040,note_on,0,0,1,,,,,,,,,0,,,41,74
203040,note_on,0,0,0,,,,,,,,,0,,,70,85
203267,note_on,0,0,1,,,,,,,,,0,,,36,0
203267,note_on,0,0,1,,,,,,,,,0,,,41,0
203267,note_on,227,0,1,,,,,,,,,0,,,29,0
203267,note_on,0,0,1,,,,,,,,,0,,,58,0
203267,note_on,0,0,1,,,,,,,,,0,,,60,0
203267,note_on,227,0,0,,,,,,,,,0,,,70,0
203280,note_on,0,0,1,,,,,,,,,0,,,56,75
203280,note_on,0,0,1,,,,,,,,,0,,,41,75
203280,set_tempo,13,1,0,,,,,,480000,,,,,,,
203280,note_on,13,0,1,,,,,,,,,0,,,29,75
203280,note_on,0,0,0,,,,,,,,,0,,,68,86
203280,note_on,0,0,1,,,,,,,,,0,,,60,75
203280,note_on,0,0,1,,,,,,,,,0,,,36,75
203507,note_on,0,0,1,,,,,,,,,0,,,41,0
203507,note_on,0,0,1,,,,,,,,,0,,,60,0
203507,note_on,0,0,1,,,,,,,,,0,,,56,0
203507,note_on,0,0,1,,,,,,,,,0,,,36,0
203507,note_on,227,0,1,,,,,,,,,0,,,29,0
203507,note_on,227,0,0,,,,,,,,,0,,,68,0
203520,note_on,0,0,0,,,,,,,,,0,,,65,76
203520,note_on,0,0,0,,,,,,,,,0,,,72,87
203520,note_on,0,0,1,,,,,,,,,0,,,38,76
203520,note_on,13,0,1,,,,,,,,,0,,,26,76
203520,note_on,13,0,0,,,,,,,,,0,,,60,76
203747,note_on,0,0,0,,,,,,,,,0,,,65,0
203747,note_on,0,0,0,,,,,,,,,0,,,72,0
203747,note_on,227,0,1,,,,,,,,,0,,,26,0
203747,note_on,227,0,0,,,,,,,,,0,,,60,0
203747,note_on,0,0,1,,,,,,,,,0,,,38,0
203760,note_on,0,0,1,,,,,,,,,0,,,38,77
203760,note_on,13,0,1,,,,,,,,,0,,,26,77
203760,note_on,0,0,0,,,,,,,,,0,,,70,88
203760,note_on,0,0,0,,,,,,,,,0,,,65,77
203760,note_on,0,0,0,,,,,,,,,0,,,58,77
203760,set_tempo,13,1,0,,,,,,480000,,,,,,,
203987,note_on,227,0,0,,,,,,,,,0,,,58,0
203987,note_on,0,0,0,,,,,,,,,0,,,70,0
203987,note_on,0,0,1,,,,,,,,,0,,,38,0
203987,note_on,227,0,1,,,,,,,,,0,,,26,0
203987,note_on,0,0,0,,,,,,,,,0,,,65,0
204000,note_on,0,0,0,,,,,,,,,0,,,68,78
204000,set_tempo,13,1,0,,,,,,491803,,,,,,,
204000,note_on,0,0,1,,,,,,,,,0,,,37,78
204000,note_on,0,0,0,,,,,,,,,0,,,65,78
204000,note_on,0,0,0,,,,,,,,,0,,,77,89
204000,note_on,13,0,1,,,,,,,,,0,,,25,78
204227,note_on,227,0,1,,,,,,,,,0,,,25,0
204227,note_on,0,0,0,,,,,,,,,0,,,68,0
204227,note_on,0,0,0,,,,,,,,,0,,,77,0
204227,note_on,0,0,1,,,,,,,,,0,,,37,0
204227,note_on,227,0,0,,,,,,,,,0,,,65,0
204240,note_on,0,0,0,,,,,,,,,0,,,67,79
204240,note_on,13,0,1,,,,,,,,,0,,,25,79
204240,note_on,0,0,0,,,,,,,,,0,,,65,79
204240,note_on,0,0,0,,,,,,,,,0,,,71,90
204240,set_tempo,13,1,0,,,,,,514139,,,,,,,
204240,note_on,0,0,1,,,,,,,,,0,,,37,79
204467,note_on,227,0,0,,,,,,,,,0,,,65,0
204467,note_on,227,0,1,,,,,,,,,0,,,25,0
204467,note_on,0,0,1,,,,,,,,,0,,,37,0
204467,note_on,0,0,0,,,,,,,,,0,,,67,0
204467,note_on,0,0,0,,,,,,,,,0,,,71,0
204480,note_on,0,0,1,,,,,,,,,0,,,36,88
204480,note_on,0,0,0,,,,,,,,,0,,,72,88
204480,note_on,0,0,0,,,,,,,,,0,,,67,88
204480,note_on,13,0,1,,,,,,,,,0,,,24,88
204480,note_on,0,0,0,,,,,,,,,0,,,64,88
204480,set_tempo,13,1,0,,,,,,545455,,,,,,,
204482,control_change,2,0,0,,,,,,,64,127,0,,,,
204935,note_on,455,0,1,,,,,,,,,0,,,24,0
204935,note_on,0,0,0,,,,,,,,,0,,,72,0
204935,note_on,453,0,0,,,,,,,,,0,,,64,0
204935,note_on,0,0,1,,,,,,,,,0,,,36,0
204935,note_on,0,0,0,,,,,,,,,0,,,67,0
204960,note_on,25,0,1,,,,,,,,,0,,,48,88
204960,set_tempo,25,1,0,,,,,,500000,,,,,,,
205073,note_on,113,0,1,,,,,,,,,0,,,48,0
205080,note_on,7,0,1,,,,,,,,,0,,,48,92
205134,note_on,54,0,1,,,,,,,,,0,,,48,0
205139,note_on,5,0,1,,,,,,,,,0,,,49,92
205193,note_on,54,0,1,,,,,,,,,0,,,49,0
205200,note_on,7,0,1,,,,,,,,,0,,,48,92
205254,note_on,54,0,1,,,,,,,,,0,,,48,0
205259,note_on,5,0,1,,,,,,,,,0,,,49,92
205313,note_on,54,0,1,,,,,,,,,0,,,49,0
205320,note_on,7,0,1,,,,,,,,,0,,,48,92
205374,note_on,54,0,1,,,,,,,,,0,,,48,0
205379,note_on,5,0,1,,,,,,,,,0,,,49,92
205433,note_on,54,0,1,,,,,,,,,0,,,49,0
205440,note_on,7,0,1,,,,,,,,,0,,,48,92
205494,note_on,54,0,1,,,,,,,,,0,,,48,0
205499,note_on,5,0,1,,,,,,,,,0,,,49,92
205553,note_on,54,0,1,,,,,,,,,0,,,49,0
205560,note_on,7,0,1,,,,,,,,,0,,,48,92
205614,note_on,54,0,1,,,,,,,,,0,,,48,0
205619,note_on,5,0,1,,,,,,,,,0,,,49,92
205673,note_on,54,0,1,,,,,,,,,0,,,49,0
205680,note_on,7,0,1,,,,,,,,,0,,,48,92
205734,note_on,54,0,1,,,,,,,,,0,,,48,0
205739,note_on,5,0,1,,,,,,,,,0,,,49,92
205793,note_on,54,0,1,,,,,,,,,0,,,49,0
205800,note_on,7,0,1,,,,,,,,,0,,,48,92
205854,note_on,54,0,1,,,,,,,,,0,,,48,0
205859,note_on,5,0,1,,,,,,,,,0,,,49,92
205913,note_on,54,0,1,,,,,,,,,0,,,49,0
205920,note_on,7,0,1,,,,,,,,,0,,,48,92
205974,note_on,54,0,1,,,,,,,,,0,,,48,0
205979,note_on,5,0,1,,,,,,,,,0,,,49,92
206033,note_on,54,0,1,,,,,,,,,0,,,49,0
206040,note_on,7,0,1,,,,,,,,,0,,,48,92
206094,note_on,54,0,1,,,,,,,,,0,,,48,0
206099,note_on,5,0,1,,,,,,,,,0,,,49,92
206153,note_on,54,0,1,,,,,,,,,0,,,49,0
206160,note_on,7,0,1,,,,,,,,,0,,,48,92
206214,note_on,54,0,1,,,,,,,,,0,,,48,0
206219,note_on,5,0,1,,,,,,,,,0,,,49,92
206273,note_on,54,0,1,,,,,,,,,0,,,49,0
206400,note_on,127,0,1,,,,,,,,,0,,,47,88
206506,note_on,106,0,1,,,,,,,,,0,,,47,0
206507,note_on,1,0,1,,,,,,,,,0,,,48,88
206613,note_on,0,0,1,,,,,,,,,0,,,52,88
206613,note_on,106,0,1,,,,,,,,,0,,,48,0
206719,note_on,106,0,1,,,,,,,,,0,,,52,0
206720,note_on,1,0,1,,,,,,,,,0,,,55,88
206826,note_on,106,0,1,,,,,,,,,0,,,55,0
206827,note_on,1,0,1,,,,,,,,,0,,,58,88
206933,note_on,106,0,1,,,,,,,,,0,,,58,0
206933,note_on,0,0,1,,,,,,,,,0,,,60,88
207039,note_on,106,0,1,,,,,,,,,0,,,60,0
207040,note_on,1,0,1,,,,,,,,,0,,,63,88
207146,note_on,106,0,1,,,,,,,,,0,,,63,0
207147,note_on,1,0,1,,,,,,,,,0,,,66,88
207253,note_on,0,0,1,,,,,,,,,0,,,70,88
207253,note_on,106,0,1,,,,,,,,,0,,,66,0
207353,note_on,100,0,1,,,,,,,,,0,,,70,0
207360,note_on,2400,0,0,,,,,,,,,0,,,73,80
207361,control_change,1,0,0,,,,,,,64,0,0,,,,
207480,note_on,127,0,1,,,,,,,,,0,,,48,72
207599,note_on,119,0,1,,,,,,,,,0,,,48,0
207600,note_on,1,0,1,,,,,,,,,0,,,61,72
207600,note_on,239,0,0,,,,,,,,,0,,,58,72
207600,note_on,0,0,0,,,,,,,,,0,,,64,72
207719,note_on,119,0,1,,,,,,,,,0,,,61,0
207720,note_on,1,0,1,,,,,,,,,0,,,60,72
207839,note_on,119,0,1,,,,,,,,,0,,,60,0
207839,note_on,239,0,0,,,,,,,,,0,,,58,0
207839,note_on,0,0,0,,,,,,,,,0,,,64,0
207840,note_on,1,0,0,,,,,,,,,0,,,58,72
207840,note_on,1,0,1,,,,,,,,,0,,,56,72
207840,note_on,0,0,0,,,,,,,,,0,,,64,72
207959,note_on,119,0,1,,,,,,,,,0,,,56,0
207960,note_on,1,0,1,,,,,,,,,0,,,55,72
208079,note_on,0,0,0,,,,,,,,,0,,,64,0
208079,note_on,239,0,0,,,,,,,,,0,,,73,0
208079,note_on,119,0,1,,,,,,,,,0,,,55,0
208079,note_on,0,0,0,,,,,,,,,0,,,58,0
208080,note_on,0,0,0,,,,,,,,,0,,,58,72
208080,note_on,0,0,0,,,,,,,,,0,,,64,72
208080,note_on,1,0,0,,,,,,,,,0,,,72,88
208080,note_on,1,0,1,,,,,,,,,0,,,49,72
208199,note_on,119,0,1,,,,,,,,,0,,,49,0
208200,note_on,1,0,1,,,,,,,,,0,,,48,72
208319,note_on,0,0,0,,,,,,,,,0,,,64,0
208319,note_on,239,0,0,,,,,,,,,0,,,72,0
208319,note_on,0,0,0,,,,,,,,,0,,,58,0
208319,note_on,119,0,1,,,,,,,,,0,,,48,0
208320,note_on,1,0,0,,,,,,,,,0,,,66,88
208320,note_on,1,0,1,,,,,,,,,0,,,44,72
208320,note_on,0,0,0,,,,,,,,,0,,,64,72
208320,note_on,0,0,0,,,,,,,,,0,,,58,72
208439,note_on,119,0,1,,,,,,,,,0,,,44,0
208440,note_on,1,0,1,,,,,,,,,0,,,43,72
208559,note_on,0,0,0,,,,,,,,,0,,,58,0
208559,note_on,239,0,0,,,,,,,,,0,,,66,0
208559,note_on,0,0,0,,,,,,,,,0,,,64,0
208559,note_on,119,0,1,,,,,,,,,0,,,43,0
208560,note_on,1,0,0,,,,,,,,,0,,,67,88
208560,note_on,1,0,1,,,,,,,,,0,,,37,72
208560,note_on,0,0,0,,,,,,,,,0,,,64,72
208560,note_on,0,0,0,,,,,,,,,0,,,58,72
208679,note_on,119,0,1,,,,,,,,,0,,,37,0
208680,note_on,1,0,1,,,,,,,,,0,,,36,72
208787,note_on,0,0,0,,,,,,,,,0,,,64,0
208787,note_on,227,0,0,,,,,,,,,0,,,67,0
208787,note_on,0,0,0,,,,,,,,,0,,,58,0
208793,note_on,113,0,1,,,,,,,,,0,,,36,0
208800,note_on,13,0,0,,,,,,,,,0,,,75,120
208920,note_on,127,0,1,,,,,,,,,0,,,48,72
209039,note_on,119,0,1,,,,,,,,,0,,,48,0
209040,note_on,240,0,0,,,,,,,,,0,,,58,72
209040,note_on,1,0,1,,,,,,,,,0,,,63,72
209040,note_on,0,0,0,,,,,,,,,0,,,65,72
209159,note_on,119,0,1,,,,,,,,,0,,,63,0
209160,note_on,1,0,1,,,,,,,,,0,,,61,72
209279,note_on,239,0,0,,,,,,,,,0,,,58,0
209279,note_on,0,0,0,,,,,,,,,0,,,65,0
209279,note_on,119,0,1,,,,,,,,,0,,,61,0
209280,note_on,1,0,1,,,,,,,,,0,,,58,72
209280,note_on,1,0,0,,,,,,,,,0,,,58,72
209280,note_on,0,0,0,,,,,,,,,0,,,58,0
209280,note_on,0,0,0,,,,,,,,,0,,,65,72
209400,note_on,120,0,1,,,,,,,,,0,,,56,72
209519,note_on,239,0,0,,,,,,,,,0,,,75,0
209519,note_on,0,0,0,,,,,,,,,0,,,65,0
209519,note_on,119,0,1,,,,,,,,,0,,,58,0
209519,note_on,0,0,1,,,,,,,,,0,,,56,0
209520,note_on,0,0,0,,,,,,,,,0,,,65,72
209520,note_on,0,0,0,,,,,,,,,0,,,58,72
209520,note_on,1,0,0,,,,,,,,,0,,,73,88
209520,note_on,1,0,1,,,,,,,,,0,,,51,72
209639,note_on,119,0,1,,,,,,,,,0,,,51,0
209640,note_on,1,0,1,,,,,,,,,0,,,49,72
209759,note_on,119,0,1,,,,,,,,,0,,,49,0
209759,note_on,239,0,0,,,,,,,,,0,,,73,0
209759,note_on,0,0,0,,,,,,,,,0,,,58,0
209759,note_on,0,0,0,,,,,,,,,0,,,65,0
209760,note_on,1,0,1,,,,,,,,,0,,,46,72
209760,note_on,0,0,0,,,,,,,,,0,,,65,72
209760,note_on,0,0,0,,,,,,,,,0,,,58,72
209760,note_on,1,0,0,,,,,,,,,0,,,68,88
209879,note_on,119,0,1,,,,,,,,,0,,,46,0
209880,note_on,1,0,1,,,,,,,,,0,,,44,72
209999,note_on,119,0,1,,,,,,,,,0,,,44,0
209999,note_on,0,0,0,,,,,,,,,0,,,58,0
209999,note_on,239,0,0,,,,,,,,,0,,,68,0
209999,note_on,0,0,0,,,,,,,,,0,,,65,0
210000,note_on,1,0,1,,,,,,,,,0,,,39,72
210000,note_on,0,0,0,,,,,,,,,0,,,58,72
210000,note_on,0,0,0,,,,,,,,,0,,,65,72
210000,note_on,1,0,0,,,,,,,,,0,,,70,88
210119,note_on,119,0,1,,,,,,,,,0,,,39,0
210120,note_on,1,0,1,,,,,,,,,0,,,37,72
210227,note_on,227,0,0,,,,,,,,,0,,,70,0
210227,note_on,0,0,0,,,,,,,,,0,,,65,0
210227,note_on,0,0,0,,,,,,,,,0,,,58,0
210233,note_on,113,0,1,,,,,,,,,0,,,37,0
210240,note_on,0,0,0,,,,,,,,,0,,,60,92
210240,set_tempo,13,1,0,,,,,,545455,,,,,,,
210240,note_on,0,0,0,,,,,,,,,0,,,72,92
210240,note_on,0,0,0,,,,,,,,,0,,,64,92
210242,control_change,9,0,1,,,,,,,64,127,0,,,,
210467,note_on,227,0,0,,,,,,,,,0,,,60,0
210467,note_on,0,0,0,,,,,,,,,0,,,72,0
210467,note_on,0,0,0,,,,,,,,,0,,,64,0
210660,set_tempo,193,1,0,,,,,,818182,,,,,,,
210660,note_on,0,0,1,,,,,,,,,0,,,48,88
210660,note_on,418,0,1,,,,,,,,,0,,,36,88
210716,note_on,56,0,1,,,,,,,,,0,,,36,0
210716,note_on,0,0,1,,,,,,,,,0,,,48,0
210719,set_tempo,59,1,0,,,,,,545455,,,,,,,
210720,note_on,4,0,1,,,,,,,,,0,,,36,88
210720,note_on,0,0,1,,,,,,,,,0,,,48,88
210774,note_on,54,0,1,,,,,,,,,0,,,36,0
210774,note_on,0,0,1,,,,,,,,,0,,,48,0
210779,note_on,0,0,1,,,,,,,,,0,,,49,88
210779,note_on,5,0,1,,,,,,,,,0,,,37,88
210833,note_on,0,0,1,,,,,,,,,0,,,49,0
210833,note_on,54,0,1,,,,,,,,,0,,,37,0
210840,note_on,0,0,1,,,,,,,,,0,,,48,88
210840,note_on,7,0,1,,,,,,,,,0,,,36,88
210894,note_on,0,0,1,,,,,,,,,0,,,48,0
210894,note_on,54,0,1,,,,,,,,,0,,,36,0
210899,note_on,0,0,1,,,,,,,,,0,,,49,88
210899,note_on,5,0,1,,,,,,,,,0,,,37,88
210953,note_on,54,0,1,,,,,,,,,0,,,37,0
210953,note_on,0,0,1,,,,,,,,,0,,,49,0
210960,note_on,7,0,1,,,,,,,,,0,,,36,88
210960,note_on,0,0,1,,,,,,,,,0,,,48,88
211014,note_on,0,0,1,,,,,,,,,0,,,48,0
211014,note_on,54,0,1,,,,,,,,,0,,,36,0
211019,note_on,5,0,1,,,,,,,,,0,,,37,88
211019,note_on,0,0,1,,,,,,,,,0,,,49,88
211073,note_on,54,0,1,,,,,,,,,0,,,37,0
211073,note_on,0,0,1,,,,,,,,,0,,,49,0
211080,note_on,7,0,1,,,,,,,,,0,,,36,88
211080,note_on,0,0,1,,,,,,,,,0,,,48,88
211134,note_on,0,0,1,,,,,,,,,0,,,48,0
211134,note_on,54,0,1,,,,,,,,,0,,,36,0
211139,note_on,0,0,1,,,,,,,,,0,,,49,88
211139,note_on,5,0,1,,,,,,,,,0,,,37,88
211193,note_on,0,0,1,,,,,,,,,0,,,49,0
211193,note_on,54,0,1,,,,,,,,,0,,,37,0
211200,note_on,7,0,1,,,,,,,,,0,,,36,88
211200,note_on,0,0,1,,,,,,,,,0,,,48,88
211254,note_on,0,0,1,,,,,,,,,0,,,48,0
211254,note_on,54,0,1,,,,,,,,,0,,,36,0
211259,note_on,0,0,1,,,,,,,,,0,,,49,88
211259,note_on,5,0,1,,,,,,,,,0,,,37,88
211313,note_on,0,0,1,,,,,,,,,0,,,49,0
211313,note_on,54,0,1,,,,,,,,,0,,,37,0
211320,note_on,7,0,1,,,,,,,,,0,,,36,88
211320,note_on,0,0,1,,,,,,,,,0,,,48,88
211374,note_on,54,0,1,,,,,,,,,0,,,36,0
211374,note_on,0,0,1,,,,,,,,,0,,,48,0
211379,note_on,0,0,1,,,,,,,,,0,,,49,88
211379,note_on,5,0,1,,,,,,,,,0,,,37,88
211433,note_on,0,0,1,,,,,,,,,0,,,49,0
211433,note_on,54,0,1,,,,,,,,,0,,,37,0
211440,note_on,0,0,1,,,,,,,,,0,,,48,88
211440,note_on,7,0,1,,,,,,,,,0,,,36,88
211494,note_on,0,0,1,,,,,,,,,0,,,48,0
211494,note_on,54,0,1,,,,,,,,,0,,,36,0
211499,note_on,5,0,1,,,,,,,,,0,,,37,88
211499,note_on,0,0,1,,,,,,,,,0,,,49,88
211553,note_on,0,0,1,,,,,,,,,0,,,49,0
211553,note_on,54,0,1,,,,,,,,,0,,,37,0
211560,note_on,0,0,1,,,,,,,,,0,,,48,88
211560,note_on,7,0,1,,,,,,,,,0,,,36,88
211614,note_on,0,0,1,,,,,,,,,0,,,48,0
211614,note_on,54,0,1,,,,,,,,,0,,,36,0
211619,note_on,5,0,1,,,,,,,,,0,,,37,88
211619,note_on,0,0,1,,,,,,,,,0,,,49,88
211673,note_on,54,0,1,,,,,,,,,0,,,37,0
211673,note_on,0,0,1,,,,,,,,,0,,,49,0
211680,note_on,7,0,1,,,,,,,,,0,,,36,88
211680,note_on,0,0,1,,,,,,,,,0,,,48,88
211734,note_on,0,0,1,,,,,,,,,0,,,48,0
211734,note_on,54,0,1,,,,,,,,,0,,,36,0
211739,note_on,0,0,1,,,,,,,,,0,,,49,88
211739,note_on,5,0,1,,,,,,,,,0,,,37,88
211793,note_on,0,0,1,,,,,,,,,0,,,49,0
211793,note_on,54,0,1,,,,,,,,,0,,,37,0
211800,note_on,0,0,1,,,,,,,,,0,,,48,88
211800,note_on,7,0,1,,,,,,,,,0,,,36,88
211854,note_on,54,0,1,,,,,,,,,0,,,36,0
211854,note_on,0,0,1,,,,,,,,,0,,,48,0
211859,note_on,0,0,1,,,,,,,,,0,,,49,88
211859,note_on,5,0,1,,,,,,,,,0,,,37,88
211913,note_on,54,0,1,,,,,,,,,0,,,37,0
211913,note_on,0,0,1,,,,,,,,,0,,,49,0
211920,note_on,0,0,1,,,,,,,,,0,,,48,88
211920,note_on,7,0,1,,,,,,,,,0,,,36,88
211974,note_on,0,0,1,,,,,,,,,0,,,48,0
211974,note_on,54,0,1,,,,,,,,,0,,,36,0
211979,note_on,5,0,1,,,,,,,,,0,,,37,88
211979,note_on,0,0,1,,,,,,,,,0,,,49,88
212033,note_on,54,0,1,,,,,,,,,0,,,37,0
212033,note_on,0,0,1,,,,,,,,,0,,,49,0
212160,note_on,127,0,1,,,,,,,,,0,,,35,80
212160,note_on,0,0,1,,,,,,,,,0,,,47,80
212161,control_change,1,0,1,,,,,,,64,0,0,,,,
212162,control_change,1,0,1,,,,,,,64,127,0,,,,
212235,note_on,73,0,1,,,,,,,,,0,,,35,0
212235,note_on,0,0,1,,,,,,,,,0,,,47,0
212240,note_on,5,0,1,,,,,,,,,0,,,36,80
212240,note_on,0,0,1,,,,,,,,,0,,,48,80
212315,note_on,75,0,1,,,,,,,,,0,,,36,0
212315,note_on,0,0,1,,,,,,,,,0,,,48,0
212320,note_on,5,0,1,,,,,,,,,0,,,40,80
212320,note_on,0,0,1,,,,,,,,,0,,,52,80
212395,note_on,0,0,1,,,,,,,,,0,,,52,0
212395,note_on,75,0,1,,,,,,,,,0,,,40,0
212400,note_on,0,0,1,,,,,,,,,0,,,55,80
212400,note_on,5,0,1,,,,,,,,,0,,,43,80
212475,note_on,75,0,1,,,,,,,,,0,,,43,0
212475,note_on,0,0,1,,,,,,,,,0,,,55,0
212480,note_on,0,0,1,,,,,,,,,0,,,58,80
212480,note_on,5,0,1,,,,,,,,,0,,,46,80
212555,note_on,0,0,1,,,,,,,,,0,,,58,0
212555,note_on,75,0,1,,,,,,,,,0,,,46,0
212560,note_on,5,0,1,,,,,,,,,0,,,48,80
212560,note_on,0,0,1,,,,,,,,,0,,,60,80
212635,note_on,75,0,1,,,,,,,,,0,,,48,0
212635,note_on,0,0,1,,,,,,,,,0,,,60,0
212640,note_on,5,0,1,,,,,,,,,0,,,52,80
212640,note_on,0,0,1,,,,,,,,,0,,,63,80
212704,note_on,64,0,1,,,,,,,,,0,,,52,0
212704,note_on,0,0,1,,,,,,,,,0,,,63,0
212709,note_on,5,0,1,,,,,,,,,0,,,55,80
212709,note_on,0,0,1,,,,,,,,,0,,,67,80
212773,note_on,0,0,1,,,,,,,,,0,,,67,0
212773,note_on,64,0,1,,,,,,,,,0,,,55,0
212777,note_on,0,0,1,,,,,,,,,0,,,70,80
212777,note_on,4,0,1,,,,,,,,,0,,,58,80
212841,note_on,64,0,1,,,,,,,,,0,,,58,0
212841,note_on,0,0,1,,,,,,,,,0,,,70,0
212846,note_on,0,0,1,,,,,,,,,0,,,72,80
212846,note_on,5,0,1,,,,,,,,,0,,,60,80
212910,note_on,64,0,1,,,,,,,,,0,,,60,0
212910,note_on,0,0,1,,,,,,,,,0,,,72,0
212914,note_on,0,0,1,,,,,,,,,0,,,76,80
212914,note_on,4,0,1,,,,,,,,,0,,,64,80
212978,note_on,0,0,1,,,,,,,,,0,,,76,0
212978,note_on,64,0,1,,,,,,,,,0,,,64,0
212983,note_on,5,0,1,,,,,,,,,0,,,67,80
212983,note_on,0,0,1,,,,,,,,,0,,,79,80
213047,note_on,64,0,1,,,,,,,,,0,,,67,0
213047,note_on,0,0,1,,,,,,,,,0,,,79,0
213051,note_on,4,0,1,,,,,,,,,0,,,70,80
213051,note_on,0,0,1,,,,,,,,,0,,,82,80
213115,note_on,0,0,1,,,,,,,,,0,,,82,0
213115,note_on,64,0,1,,,,,,,,,0,,,70,0
213120,set_tempo,2401,1,0,,,,,,521739,,,,,,,
213120,note_on,0,0,0,,,,,,,,,0,,,85,120
213121,control_change,6,0,1,,,,,,,64,0,0,,,,
213122,control_change,2,0,0,,,,,,,64,127,0,,,,
213240,note_on,119,0,1,,,,,,,,,0,,,73,87
213319,note_on,79,0,1,,,,,,,,,0,,,73,0
213360,note_on,0,0,0,,,,,,,,,0,,,76,72
213360,note_on,238,0,0,,,,,,,,,0,,,70,72
213360,note_on,41,0,1,,,,,,,,,0,,,72,72
213473,note_on,113,0,1,,,,,,,,,0,,,72,0
213480,note_on,7,0,1,,,,,,,,,0,,,68,72
213587,note_on,227,0,0,,,,,,,,,0,,,70,0
213587,note_on,0,0,0,,,,,,,,,0,,,76,0
213593,note_on,113,0,1,,,,,,,,,0,,,68,0
213600,note_on,13,0,0,,,,,,,,,0,,,70,72
213600,note_on,7,0,1,,,,,,,,,0,,,67,72
213600,note_on,0,0,0,,,,,,,,,0,,,76,72
213713,note_on,113,0,1,,,,,,,,,0,,,67,0
213720,note_on,7,0,1,,,,,,,,,0,,,61,72
213827,note_on,227,0,0,,,,,,,,,0,,,70,0
213827,note_on,0,0,0,,,,,,,,,0,,,76,0
213833,note_on,113,0,1,,,,,,,,,0,,,61,0
213839,note_on,12,0,0,,,,,,,,,0,,,85,0
213840,note_on,0,0,0,,,,,,,,,0,,,76,72
213840,note_on,1,0,0,,,,,,,,,0,,,84,92
213840,note_on,7,0,1,,,,,,,,,0,,,60,72
213840,note_on,0,0,0,,,,,,,,,0,,,70,72
213953,note_on,113,0,1,,,,,,,,,0,,,60,0
213960,note_on,7,0,1,,,,,,,,,0,,,56,72
214067,note_on,227,0,0,,,,,,,,,0,,,84,0
214067,note_on,0,0,0,,,,,,,,,0,,,76,0
214067,note_on,0,0,0,,,,,,,,,0,,,70,0
214073,note_on,113,0,1,,,,,,,,,0,,,56,0
214080,note_on,13,0,0,,,,,,,,,0,,,78,92
214080,note_on,0,0,0,,,,,,,,,0,,,70,72
214080,note_on,7,0,1,,,,,,,,,0,,,55,72
214080,note_on,0,0,0,,,,,,,,,0,,,76,72
214193,note_on,113,0,1,,,,,,,,,0,,,55,0
214200,note_on,7,0,1,,,,,,,,,0,,,49,72
214307,note_on,227,0,0,,,,,,,,,0,,,78,0
214307,note_on,0,0,0,,,,,,,,,0,,,70,0
214307,note_on,0,0,0,,,,,,,,,0,,,76,0
214313,note_on,113,0,1,,,,,,,,,0,,,49,0
214320,note_on,13,0,0,,,,,,,,,0,,,79,92
214320,note_on,7,0,1,,,,,,,,,0,,,48,72
214320,note_on,0,0,0,,,,,,,,,0,,,70,72
214320,note_on,0,0,0,,,,,,,,,0,,,76,72
214433,note_on,113,0,1,,,,,,,,,0,,,48,0
214440,note_on,7,0,1,,,,,,,,,0,,,36,72
214547,note_on,0,0,0,,,,,,,,,0,,,70,0
214547,note_on,227,0,0,,,,,,,,,0,,,79,0
214547,note_on,0,0,0,,,,,,,,,0,,,76,0
214553,note_on,113,0,1,,,,,,,,,0,,,36,0
214560,note_on,13,0,0,,,,,,,,,0,,,87,120
214561,control_change,1,0,0,,,,,,,64,0,0,,,,
214562,control_change,1,0,0,,,,,,,64,127,0,,,,
214680,note_on,127,0,1,,,,,,,,,0,,,75,87
214759,note_on,79,0,1,,,,,,,,,0,,,75,0
214800,note_on,238,0,0,,,,,,,,,0,,,71,72
214800,note_on,0,0,0,,,,,,,,,0,,,77,72
214800,note_on,41,0,1,,,,,,,,,0,,,73,72
214913,note_on,113,0,1,,,,,,,,,0,,,73,0
214920,note_on,7,0,1,,,,,,,,,0,,,70,72
215027,note_on,227,0,0,,,,,,,,,0,,,71,0
215027,note_on,0,0,0,,,,,,,,,0,,,77,0
215033,note_on,113,0,1,,,,,,,,,0,,,70,0
215040,note_on,0,0,0,,,,,,,,,0,,,77,73
215040,note_on,7,0,1,,,,,,,,,0,,,68,73
215040,note_on,13,0,0,,,,,,,,,0,,,71,73
215153,note_on,113,0,1,,,,,,,,,0,,,68,0
215160,note_on,7,0,1,,,,,,,,,0,,,63,73
215267,note_on,0,0,0,,,,,,,,,0,,,77,0
215267,note_on,227,0,0,,,,,,,,,0,,,71,0
215273,note_on,113,0,1,,,,,,,,,0,,,63,0
215279,note_on,12,0,0,,,,,,,,,0,,,87,0
215280,note_on,1,0,0,,,,,,,,,0,,,85,93
215280,note_on,7,0,1,,,,,,,,,0,,,61,73
215280,note_on,0,0,0,,,,,,,,,0,,,71,73
215280,note_on,0,0,0,,,,,,,,,0,,,77,73
215393,note_on,113,0,1,,,,,,,,,0,,,61,0
215400,note_on,7,0,1,,,,,,,,,0,,,58,73
215507,note_on,227,0,0,,,,,,,,,0,,,85,0
215507,note_on,0,0,0,,,,,,,,,0,,,77,0
215507,note_on,0,0,0,,,,,,,,,0,,,71,0
215513,note_on,113,0,1,,,,,,,,,0,,,58,0
215520,note_on,13,0,0,,,,,,,,,0,,,92,94
215520,note_on,0,0,0,,,,,,,,,0,,,77,74
215520,note_on,0,0,0,,,,,,,,,0,,,83,74
215520,note_on,7,0,1,,,,,,,,,0,,,56,74
215633,note_on,113,0,1,,,,,,,,,0,,,56,0
215640,note_on,7,0,1,,,,,,,,,0,,,51,74
215747,note_on,0,0,0,,,,,,,,,0,,,77,0
215747,note_on,227,0,0,,,,,,,,,0,,,92,0
215747,note_on,0,0,0,,,,,,,,,0,,,83,0
215753,note_on,113,0,1,,,,,,,,,0,,,51,0
215760,note_on,7,0,1,,,,,,,,,0,,,49,74
215760,note_on,0,0,0,,,,,,,,,0,,,68,74
215760,note_on,0,0,0,,,,,,,,,0,,,77,74
215760,note_on,13,0,0,,,,,,,,,0,,,82,94
215873,note_on,113,0,1,,,,,,,,,0,,,49,0
215880,set_tempo,120,1,0,,,,,,730435,,,,,,,
215880,note_on,7,0,1,,,,,,,,,0,,,39,74
215936,note_on,56,0,1,,,,,,,,,0,,,39,0
215939,set_tempo,59,1,0,,,,,,521739,,,,,,,
215940,note_on,4,0,1,,,,,,,,,0,,,37,74
215940,set_tempo,1,1,0,,,,,,678261,,,,,,,
215987,note_on,0,0,0,,,,,,,,,0,,,77,0
215987,note_on,0,0,0,,,,,,,,,0,,,68,0
215987,note_on,47,0,0,,,,,,,,,0,,,82,0
215996,note_on,56,0,1,,,,,,,,,0,,,37,0
215999,set_tempo,12,1,0,,,,,,521739,,,,,,,
216000,note_on,0,0,0,,,,,,,,,0,,,84,91
216000,set_tempo,1,1,0,,,,,,600000,,,,,,,
216000,note_on,0,0,0,,,,,,,,,0,,,76,91
216000,note_on,0,0,0,,,,,,,,,0,,,67,91
216000,note_on,4,0,1,,,,,,,,,0,,,36,99
216001,control_change,1,0,0,,,,,,,64,0,0,,,,
216227,note_on,227,0,1,,,,,,,,,0,,,36,0
216227,note_on,0,0,0,,,,,,,,,0,,,84,0
216227,note_on,0,0,0,,,,,,,,,0,,,76,0
216227,note_on,226,0,0,,,,,,,,,0,,,67,0
216240,note_on,13,0,0,,,,,,,,,0,,,75,1
216253,note_on,13,0,0,,,,,,,,,0,,,75,0
216480,note_on,253,0,1,,,,,,,,,0,,,60,70
216480,note_on,0,0,1,,,,,,,,,0,,,67,70
216480,note_on,0,0,1,,,,,,,,,0,,,64,70
216480,note_on,227,0,0,,,,,,,,,0,,,72,70
216482,control_change,2,0,1,,,,,,,64,127,0,,,,
216535,note_on,55,0,0,,,,,,,,,0,,,72,0
216540,note_on,5,0,0,,,,,,,,,0,,,73,70
216595,note_on,55,0,0,,,,,,,,,0,,,73,0
216600,note_on,5,0,0,,,,,,,,,0,,,72,70
216655,note_on,55,0,0,,,,,,,,,0,,,72,0
216660,note_on,5,0,0,,,,,,,,,0,,,73,70
216715,note_on,55,0,0,,,,,,,,,0,,,73,0
216720,note_on,5,0,0,,,,,,,,,0,,,72,70
216775,note_on,55,0,0,,,,,,,,,0,,,72,0
216780,note_on,5,0,0,,,,,,,,,0,,,73,70
216835,note_on,55,0,0,,,,,,,,,0,,,73,0
216840,note_on,5,0,0,,,,,,,,,0,,,72,70
216895,note_on,55,0,0,,,,,,,,,0,,,72,0
216900,note_on,5,0,0,,,,,,,,,0,,,73,70
216935,note_on,0,0,1,,,,,,,,,0,,,64,0
216935,note_on,0,0,1,,,,,,,,,0,,,67,0
216935,note_on,453,0,1,,,,,,,,,0,,,60,0
216955,note_on,55,0,0,,,,,,,,,0,,,73,0
216960,note_on,25,0,1,,,,,,,,,0,,,59,70
216960,note_on,0,0,1,,,,,,,,,0,,,65,70
216960,note_on,0,0,1,,,,,,,,,0,,,68,70
216960,note_on,5,0,0,,,,,,,,,0,,,71,70
217015,note_on,55,0,0,,,,,,,,,0,,,71,0
217020,note_on,5,0,0,,,,,,,,,0,,,72,70
217075,note_on,55,0,0,,,,,,,,,0,,,72,0
217080,note_on,5,0,0,,,,,,,,,0,,,73,70
217135,note_on,55,0,0,,,,,,,,,0,,,73,0
217140,note_on,5,0,0,,,,,,,,,0,,,75,70
217195,note_on,55,0,0,,,,,,,,,0,,,75,0
217200,note_on,5,0,0,,,,,,,,,0,,,73,70
217255,note_on,55,0,0,,,,,,,,,0,,,73,0
217260,note_on,5,0,0,,,,,,,,,0,,,75,70
217315,note_on,55,0,0,,,,,,,,,0,,,75,0
217320,note_on,5,0,0,,,,,,,,,0,,,73,70
217375,note_on,55,0,0,,,,,,,,,0,,,73,0
217380,note_on,5,0,0,,,,,,,,,0,,,75,70
217415,note_on,455,0,1,,,,,,,,,0,,,59,0
217415,note_on,0,0,1,,,,,,,,,0,,,65,0
217415,note_on,0,0,1,,,,,,,,,0,,,68,0
217435,note_on,55,0,0,,,,,,,,,0,,,75,0
217440,note_on,5,0,0,,,,,,,,,0,,,72,70
217440,note_on,25,0,1,,,,,,,,,0,,,58,70
217492,note_on,52,0,1,,,,,,,,,0,,,65,70
217495,note_on,55,0,0,,,,,,,,,0,,,72,0
217499,note_on,4,0,0,,,,,,,,,0,,,73,70
217545,note_on,53,0,1,,,,,,,,,0,,,68,70
217554,note_on,55,0,0,,,,,,,,,0,,,73,0
217559,note_on,5,0,0,,,,,,,,,0,,,74,70
217599,note_on,54,0,1,,,,,,,,,0,,,72,84
217614,note_on,55,0,0,,,,,,,,,0,,,74,0
217620,note_on,6,0,0,,,,,,,,,0,,,75,70
217675,note_on,55,0,0,,,,,,,,,0,,,75,0
217679,note_on,4,0,0,,,,,,,,,0,,,74,70
217734,note_on,55,0,0,,,,,,,,,0,,,74,0
217739,note_on,5,0,0,,,,,,,,,0,,,75,70
217794,note_on,55,0,0,,,,,,,,,0,,,75,0
217800,note_on,6,0,0,,,,,,,,,0,,,74,70
217855,note_on,55,0,0,,,,,,,,,0,,,74,0
217859,note_on,4,0,0,,,,,,,,,0,,,75,70
217914,note_on,55,0,0,,,,,,,,,0,,,75,0
217919,note_on,5,0,0,,,,,,,,,0,,,74,70
217974,note_on,55,0,0,,,,,,,,,0,,,74,0
217980,note_on,6,0,0,,,,,,,,,0,,,75,70
218035,note_on,55,0,0,,,,,,,,,0,,,75,0
218039,note_on,4,0,0,,,,,,,,,0,,,74,70
218094,note_on,55,0,0,,,,,,,,,0,,,74,0
218099,note_on,5,0,0,,,,,,,,,0,,,75,70
218154,note_on,55,0,0,,,,,,,,,0,,,75,0
218158,note_on,0,0,1,,,,,,,,,0,,,68,0
218158,note_on,559,0,1,,,,,,,,,0,,,65,0
218158,note_on,0,0,1,,,,,,,,,0,,,72,0
218159,note_on,1,0,1,,,,,,,,,0,,,58,0
218160,note_on,1,0,1,,,,,,,,,0,,,70,77
218160,set_tempo,6,1,0,,,,,,666667,,,,,,,
218160,note_on,0,0,0,,,,,,,,,0,,,72,70
218189,note_on,29,0,0,,,,,,,,,0,,,72,0
218190,note_on,1,0,0,,,,,,,,,0,,,74,70
218217,note_on,27,0,0,,,,,,,,,0,,,74,0
218220,note_on,3,0,0,,,,,,,,,0,,,77,70
218276,note_on,56,0,0,,,,,,,,,0,,,77,0
218280,note_on,4,0,0,,,,,,,,,0,,,80,70
218336,note_on,56,0,0,,,,,,,,,0,,,80,0
218340,note_on,4,0,0,,,,,,,,,0,,,82,70
218387,note_on,227,0,1,,,,,,,,,0,,,70,0
218396,note_on,56,0,0,,,,,,,,,0,,,82,0
218400,note_on,4,0,0,,,,,,,,,0,,,86,70
218400,note_on,13,0,1,,,,,,,,,0,,,64,77
218456,note_on,56,0,0,,,,,,,,,0,,,86,0
218460,note_on,4,0,0,,,,,,,,,0,,,89,70
218516,note_on,56,0,0,,,,,,,,,0,,,89,0
218520,note_on,4,0,0,,,,,,,,,0,,,92,70
218576,note_on,56,0,0,,,,,,,,,0,,,92,0
218580,note_on,4,0,0,,,,,,,,,0,,,95,70
218627,note_on,227,0,1,,,,,,,,,0,,,64,0
218636,note_on,56,0,0,,,,,,,,,0,,,95,0
218640,note_on,13,0,1,,,,,,,,,0,,,65,77
218640,note_on,4,0,0,,,,,,,,,0,,,94,70
218696,note_on,56,0,0,,,,,,,,,0,,,94,0
218700,note_on,4,0,0,,,,,,,,,0,,,92,70
218756,note_on,56,0,0,,,,,,,,,0,,,92,0
218760,note_on,4,0,0,,,,,,,,,0,,,89,70
218816,note_on,56,0,0,,,,,,,,,0,,,89,0
218820,note_on,4,0,0,,,,,,,,,0,,,86,70
218867,note_on,227,0,1,,,,,,,,,0,,,65,0
218876,note_on,56,0,0,,,,,,,,,0,,,86,0
218880,set_tempo,4,1,0,,,,,,400000,,,,,,,
218880,note_on,0,0,0,,,,,,,,,0,,,82,70
218993,note_on,113,0,0,,,,,,,,,0,,,82,0
219000,note_on,7,0,0,,,,,,,,,0,,,80,70
219113,note_on,113,0,0,,,,,,,,,0,,,80,0
219120,note_on,7,0,0,,,,,,,,,0,,,77,70
219233,note_on,113,0,0,,,,,,,,,0,,,77,0
219240,note_on,7,0,0,,,,,,,,,0,,,74,70
219353,note_on,113,0,0,,,,,,,,,0,,,74,0
219360,note_on,0,0,0,,,,,,,,,0,,,76,1
219360,set_tempo,7,1,0,,,,,,631579,,,,,,,
219360,note_on,493,0,1,,,,,,,,,0,,,63,70
219360,note_on,0,0,1,,,,,,,,,0,,,70,70
219360,note_on,0,0,0,,,,,,,,,0,,,75,70
219360,note_on,0,0,1,,,,,,,,,0,,,67,70
219361,control_change,1,0,1,,,,,,,64,0,0,,,,
219362,control_change,1,0,1,,,,,,,64,127,0,,,,
219415,note_on,55,0,0,,,,,,,,,0,,,75,0
219415,note_on,0,0,0,,,,,,,,,0,,,76,0
219420,note_on,5,0,0,,,,,,,,,0,,,76,70
219420,note_on,0,0,0,,,,,,,,,0,,,78,1
219475,note_on,55,0,0,,,,,,,,,0,,,76,0
219475,note_on,0,0,0,,,,,,,,,0,,,78,0
219480,note_on,5,0,0,,,,,,,,,0,,,75,70
219480,note_on,0,0,0,,,,,,,,,0,,,76,1
219535,note_on,0,0,0,,,,,,,,,0,,,76,0
219535,note_on,55,0,0,,,,,,,,,0,,,75,0
219540,note_on,0,0,0,,,,,,,,,0,,,78,1
219540,note_on,5,0,0,,,,,,,,,0,,,76,70
219595,note_on,0,0,0,,,,,,,,,0,,,78,0
219595,note_on,55,0,0,,,,,,,,,0,,,76,0
219600,note_on,0,0,0,,,,,,,,,0,,,76,1
219600,note_on,5,0,0,,,,,,,,,0,,,75,70
219655,note_on,0,0,0,,,,,,,,,0,,,76,0
219655,note_on,55,0,0,,,,,,,,,0,,,75,0
219660,note_on,0,0,0,,,,,,,,,0,,,78,1
219660,note_on,5,0,0,,,,,,,,,0,,,76,70
219715,note_on,0,0,0,,,,,,,,,0,,,78,0
219715,note_on,55,0,0,,,,,,,,,0,,,76,0
219720,note_on,0,0,0,,,,,,,,,0,,,76,1
219720,note_on,5,0,0,,,,,,,,,0,,,75,70
219775,note_on,55,0,0,,,,,,,,,0,,,75,0
219775,note_on,0,0,0,,,,,,,,,0,,,76,0
219780,note_on,0,0,0,,,,,,,,,0,,,78,1
219780,note_on,5,0,0,,,,,,,,,0,,,76,70
219815,note_on,453,0,1,,,,,,,,,0,,,63,0
219815,note_on,0,0,1,,,,,,,,,0,,,67,0
219815,note_on,0,0,1,,,,,,,,,0,,,70,0
219835,note_on,55,0,0,,,,,,,,,0,,,76,0
219835,note_on,0,0,0,,,,,,,,,0,,,78,0
219840,note_on,25,0,1,,,,,,,,,0,,,62,70
219840,note_on,0,0,0,,,,,,,,,0,,,72,1
219840,note_on,0,0,1,,,,,,,,,0,,,71,70
219840,note_on,0,0,1,,,,,,,,,0,,,68,70
219840,note_on,0,0,0,,,,,,,,,0,,,72,0
219840,note_on,5,0,0,,,,,,,,,0,,,72,70
219895,note_on,55,0,0,,,,,,,,,0,,,72,0
219900,note_on,0,0,0,,,,,,,,,0,,,73,1
219900,note_on,0,0,0,,,,,,,,,0,,,73,0
219900,note_on,5,0,0,,,,,,,,,0,,,73,70
219955,note_on,55,0,0,,,,,,,,,0,,,73,0
219960,note_on,5,0,0,,,,,,,,,0,,,76,70
219960,note_on,0,0,0,,,,,,,,,0,,,77,1
220015,note_on,55,0,0,,,,,,,,,0,,,76,0
220015,note_on,0,0,0,,,,,,,,,0,,,77,0
220020,note_on,0,0,0,,,,,,,,,0,,,78,1
220020,note_on,5,0,0,,,,,,,,,0,,,77,70
220075,note_on,55,0,0,,,,,,,,,0,,,77,0
220075,note_on,0,0,0,,,,,,,,,0,,,78,0
220080,note_on,5,0,0,,,,,,,,,0,,,76,70
220080,note_on,0,0,0,,,,,,,,,0,,,77,1
220135,note_on,55,0,0,,,,,,,,,0,,,76,0
220135,note_on,0,0,0,,,,,,,,,0,,,77,0
220140,note_on,5,0,0,,,,,,,,,0,,,77,70
220140,note_on,0,0,0,,,,,,,,,0,,,78,1
220195,note_on,0,0,0,,,,,,,,,0,,,78,0
220195,note_on,55,0,0,,,,,,,,,0,,,77,0
220200,note_on,0,0,0,,,,,,,,,0,,,77,1
220200,note_on,5,0,0,,,,,,,,,0,,,76,70
220255,note_on,0,0,0,,,,,,,,,0,,,77,0
220255,note_on,55,0,0,,,,,,,,,0,,,76,0
220260,note_on,0,0,0,,,,,,,,,0,,,78,1
220260,note_on,5,0,0,,,,,,,,,0,,,77,70
220295,note_on,455,0,1,,,,,,,,,0,,,62,0
220295,note_on,0,0,1,,,,,,,,,0,,,71,0
220295,note_on,0,0,1,,,,,,,,,0,,,68,0
220315,note_on,55,0,0,,,,,,,,,0,,,77,0
220315,note_on,0,0,0,,,,,,,,,0,,,78,0
220320,note_on,25,0,1,,,,,,,,,0,,,61,70
220320,note_on,5,0,0,,,,,,,,,0,,,75,70
220320,note_on,0,0,0,,,,,,,,,0,,,75,1
220320,note_on,0,0,0,,,,,,,,,0,,,75,0
220359,note_on,39,0,1,,,,,,,,,0,,,68,70
220375,note_on,55,0,0,,,,,,,,,0,,,75,0
220379,note_on,0,0,0,,,,,,,,,0,,,76,0
220379,note_on,4,0,0,,,,,,,,,0,,,76,70
220379,note_on,0,0,0,,,,,,,,,0,,,76,1
220400,note_on,41,0,1,,,,,,,,,0,,,71,70
220434,note_on,55,0,0,,,,,,,,,0,,,76,0
220439,note_on,0,0,0,,,,,,,,,0,,,78,1
220439,note_on,5,0,0,,,,,,,,,0,,,77,70
220440,note_on,40,0,1,,,,,,,,,0,,,74,84
220494,note_on,0,0,0,,,,,,,,,0,,,78,0
220494,note_on,55,0,0,,,,,,,,,0,,,77,0
220500,note_on,0,0,0,,,,,,,,,0,,,78,1
220500,note_on,0,0,0,,,,,,,,,0,,,78,0
220500,note_on,6,0,0,,,,,,,,,0,,,78,70
220555,note_on,55,0,0,,,,,,,,,0,,,78,0
220559,note_on,0,0,0,,,,,,,,,0,,,78,1
220559,note_on,4,0,0,,,,,,,,,0,,,77,70
220614,note_on,55,0,0,,,,,,,,,0,,,77,0
220614,note_on,0,0,0,,,,,,,,,0,,,78,0
220619,note_on,0,0,0,,,,,,,,,0,,,78,1
220619,note_on,5,0,0,,,,,,,,,0,,,78,70
220619,note_on,0,0,0,,,,,,,,,0,,,78,0
220674,note_on,55,0,0,,,,,,,,,0,,,78,0
220680,note_on,0,0,0,,,,,,,,,0,,,78,1
220680,note_on,6,0,0,,,,,,,,,0,,,77,70
220735,note_on,55,0,0,,,,,,,,,0,,,77,0
220735,note_on,0,0,0,,,,,,,,,0,,,78,0
220739,note_on,0,0,0,,,,,,,,,0,,,78,0
220739,note_on,0,0,0,,,,,,,,,0,,,78,1
220739,note_on,4,0,0,,,,,,,,,0,,,78,70
220794,note_on,55,0,0,,,,,,,,,0,,,78,0
220799,note_on,5,0,0,,,,,,,,,0,,,77,70
220799,note_on,0,0,0,,,,,,,,,0,,,78,1
220854,note_on,55,0,0,,,,,,,,,0,,,77,0
220854,note_on,0,0,0,,,,,,,,,0,,,78,0
220860,note_on,6,0,0,,,,,,,,,0,,,78,70
220860,note_on,0,0,0,,,,,,,,,0,,,78,0
220860,note_on,0,0,0,,,,,,,,,0,,,78,1
220915,note_on,55,0,0,,,,,,,,,0,,,78,0
220919,note_on,4,0,0,,,,,,,,,0,,,77,70
220919,note_on,0,0,0,,,,,,,,,0,,,78,1
220974,note_on,55,0,0,,,,,,,,,0,,,77,0
220974,note_on,0,0,0,,,,,,,,,0,,,78,0
220979,note_on,0,0,0,,,,,,,,,0,,,78,1
220979,note_on,5,0,0,,,,,,,,,0,,,78,70
220979,note_on,0,0,0,,,,,,,,,0,,,78,0
221034,note_on,55,0,0,,,,,,,,,0,,,78,0
221038,note_on,0,0,1,,,,,,,,,0,,,74,0
221038,note_on,0,0,1,,,,,,,,,0,,,71,0
221038,note_on,598,0,1,,,,,,,,,0,,,68,0
221039,note_on,1,0,1,,,,,,,,,0,,,61,0
221040,note_on,1,0,1,,,,,,,,,0,,,73,77
221040,set_tempo,6,1,0,,,,,,666667,,,,,,,
221040,note_on,0,0,0,,,,,,,,,0,,,76,70
221069,note_on,29,0,0,,,,,,,,,0,,,76,0
221070,note_on,1,0,0,,,,,,,,,0,,,77,70
221097,note_on,27,0,0,,,,,,,,,0,,,77,0
221100,set_tempo,3,1,0,,,,,,662252,,,,,,,
221100,note_on,0,0,0,,,,,,,,,0,,,80,70
221156,note_on,56,0,0,,,,,,,,,0,,,80,0
221160,note_on,0,0,0,,,,,,,,,0,,,83,70
221160,set_tempo,4,1,0,,,,,,655022,,,,,,,
221216,note_on,56,0,0,,,,,,,,,0,,,83,0
221220,set_tempo,4,1,0,,,,,,645856,,,,,,,
221220,note_on,0,0,0,,,,,,,,,0,,,85,70
221267,note_on,227,0,1,,,,,,,,,0,,,73,0
221276,note_on,56,0,0,,,,,,,,,0,,,85,0
221280,note_on,13,0,1,,,,,,,,,0,,,67,77
221280,note_on,0,0,0,,,,,,,,,0,,,89,70
221280,set_tempo,4,1,0,,,,,,635593,,,,,,,
221336,note_on,56,0,0,,,,,,,,,0,,,89,0
221340,set_tempo,4,1,0,,,,,,624350,,,,,,,
221340,note_on,0,0,0,,,,,,,,,0,,,92,70
221396,note_on,56,0,0,,,,,,,,,0,,,92,0
221400,note_on,4,0,0,,,,,,,,,0,,,95,70
221456,note_on,56,0,0,,,,,,,,,0,,,95,0
221460,note_on,4,0,0,,,,,,,,,0,,,98,70
221507,note_on,227,0,1,,,,,,,,,0,,,67,0
221516,note_on,56,0,0,,,,,,,,,0,,,98,0
221520,note_on,4,0,0,,,,,,,,,0,,,97,70
221520,note_on,13,0,1,,,,,,,,,0,,,68,77
221576,note_on,56,0,0,,,,,,,,,0,,,97,0
221580,note_on,4,0,0,,,,,,,,,0,,,95,70
221636,note_on,56,0,0,,,,,,,,,0,,,95,0
221640,note_on,4,0,0,,,,,,,,,0,,,92,70
221696,note_on,56,0,0,,,,,,,,,0,,,92,0
221700,note_on,4,0,0,,,,,,,,,0,,,89,70
221747,note_on,227,0,1,,,,,,,,,0,,,68,0
221756,note_on,56,0,0,,,,,,,,,0,,,89,0
221760,set_tempo,4,1,0,,,,,,600000,,,,,,,
221760,note_on,0,0,0,,,,,,,,,0,,,85,70
221816,note_on,56,0,0,,,,,,,,,0,,,85,0
221820,note_on,0,0,0,,,,,,,,,0,,,83,70
221820,set_tempo,4,1,0,,,,,,607903,,,,,,,
221876,note_on,56,0,0,,,,,,,,,0,,,83,0
221880,set_tempo,4,1,0,,,,,,622407,,,,,,,
221880,note_on,0,0,0,,,,,,,,,0,,,80,70
221936,note_on,56,0,0,,,,,,,,,0,,,80,0
221940,note_on,0,0,0,,,,,,,,,0,,,77,70
221940,note_on,0,0,0,,,,,,,,,0,,,79,1
221940,set_tempo,4,1,0,,,,,,642398,,,,,,,
221996,note_on,0,0,0,,,,,,,,,0,,,79,0
221996,note_on,56,0,0,,,,,,,,,0,,,77,0
222000,note_on,0,0,0,,,,,,,,,0,,,73,70
222000,set_tempo,4,1,0,,,,,,666667,,,,,,,
222056,note_on,56,0,0,,,,,,,,,0,,,73,0
222060,note_on,0,0,1,,,,,,,,,0,,,70,70
222060,note_on,0,0,1,,,,,,,,,0,,,73,70
222060,note_on,4,0,0,,,,,,,,,0,,,78,70
222060,note_on,313,0,1,,,,,,,,,0,,,66,70
222061,control_change,1,0,1,,,,,,,64,0,0,,,,
222062,control_change,1,0,1,,,,,,,64,127,0,,,,
222115,note_on,55,0,0,,,,,,,,,0,,,78,0
222120,note_on,5,0,0,,,,,,,,,0,,,79,70
222175,note_on,55,0,0,,,,,,,,,0,,,79,0
222180,note_on,5,0,0,,,,,,,,,0,,,78,70
222235,note_on,55,0,0,,,,,,,,,0,,,78,0
222240,note_on,5,0,0,,,,,,,,,0,,,79,70
222295,note_on,55,0,0,,,,,,,,,0,,,79,0
222300,note_on,5,0,0,,,,,,,,,0,,,78,70
222355,note_on,55,0,0,,,,,,,,,0,,,78,0
222360,note_on,5,0,0,,,,,,,,,0,,,79,70
222415,note_on,55,0,0,,,,,,,,,0,,,79,0
222420,note_on,5,0,0,,,,,,,,,0,,,78,70
222475,note_on,55,0,0,,,,,,,,,0,,,78,0
222480,note_on,5,0,0,,,,,,,,,0,,,79,70
222515,note_on,0,0,1,,,,,,,,,0,,,70,0
222515,note_on,0,0,1,,,,,,,,,0,,,73,0
222515,note_on,453,0,1,,,,,,,,,0,,,66,0
222535,note_on,55,0,0,,,,,,,,,0,,,79,0
222540,note_on,25,0,1,,,,,,,,,0,,,65,70
222540,note_on,0,0,1,,,,,,,,,0,,,71,70
222540,note_on,0,0,1,,,,,,,,,0,,,74,70
222540,note_on,5,0,0,,,,,,,,,0,,,77,70
222595,note_on,55,0,0,,,,,,,,,0,,,77,0
222600,note_on,5,0,0,,,,,,,,,0,,,78,70
222655,note_on,55,0,0,,,,,,,,,0,,,78,0
222660,note_on,5,0,0,,,,,,,,,0,,,79,70
222715,note_on,55,0,0,,,,,,,,,0,,,79,0
222720,note_on,5,0,0,,,,,,,,,0,,,80,70
222775,note_on,55,0,0,,,,,,,,,0,,,80,0
222780,note_on,5,0,0,,,,,,,,,0,,,79,70
222835,note_on,55,0,0,,,,,,,,,0,,,79,0
222840,note_on,5,0,0,,,,,,,,,0,,,80,70
222895,note_on,55,0,0,,,,,,,,,0,,,80,0
222900,note_on,5,0,0,,,,,,,,,0,,,79,70
222955,note_on,55,0,0,,,,,,,,,0,,,79,0
222960,note_on,5,0,0,,,,,,,,,0,,,80,70
222995,note_on,455,0,1,,,,,,,,,0,,,65,0
222995,note_on,0,0,1,,,,,,,,,0,,,74,0
222995,note_on,0,0,1,,,,,,,,,0,,,71,0
223015,note_on,55,0,0,,,,,,,,,0,,,80,0
223020,note_on,25,0,1,,,,,,,,,0,,,64,70
223020,note_on,5,0,0,,,,,,,,,0,,,78,70
223057,note_on,37,0,1,,,,,,,,,0,,,71,70
223076,note_on,56,0,0,,,,,,,,,0,,,78,0
223080,note_on,4,0,0,,,,,,,,,0,,,79,70
223096,note_on,39,0,1,,,,,,,,,0,,,74,70
223135,note_on,55,0,0,,,,,,,,,0,,,79,0
223135,note_on,39,0,1,,,,,,,,,0,,,79,70
223140,note_on,5,0,0,,,,,,,,,0,,,80,70
223196,note_on,56,0,0,,,,,,,,,0,,,80,0
223200,note_on,4,0,0,,,,,,,,,0,,,81,70
223256,note_on,56,0,0,,,,,,,,,0,,,81,0
223260,note_on,4,0,0,,,,,,,,,0,,,80,70
223316,note_on,56,0,0,,,,,,,,,0,,,80,0
223320,note_on,185,0,1,,,,,,,,,0,,,79,0
223320,note_on,4,0,0,,,,,,,,,0,,,79,70
223380,note_on,60,0,0,,,,,,,,,0,,,80,70
223436,note_on,56,0,0,,,,,,,,,0,,,80,0
223440,note_on,4,0,0,,,,,,,,,0,,,83,70
223496,note_on,56,0,0,,,,,,,,,0,,,83,0
223500,note_on,4,0,0,,,,,,,,,0,,,86,70
223556,note_on,56,0,0,,,,,,,,,0,,,86,0
223560,note_on,4,0,0,,,,,,,,,0,,,89,70
223612,note_on,292,0,1,,,,,,,,,0,,,71,0
223612,note_on,52,0,0,,,,,,,,,0,,,79,0
223612,note_on,0,0,1,,,,,,,,,0,,,74,0
223616,note_on,4,0,0,,,,,,,,,0,,,89,0
223620,note_on,8,0,1,,,,,,,,,0,,,76,70
223620,note_on,4,0,0,,,,,,,,,0,,,92,70
223676,note_on,56,0,0,,,,,,,,,0,,,92,0
223680,note_on,4,0,0,,,,,,,,,0,,,95,70
223736,note_on,56,0,0,,,,,,,,,0,,,95,0
223740,note_on,4,0,0,,,,,,,,,0,,,98,70
223796,note_on,56,0,0,,,,,,,,,0,,,98,0
223800,note_on,4,0,0,,,,,,,,,0,,,101,70
223847,note_on,227,0,1,,,,,,,,,0,,,76,0
223856,note_on,56,0,0,,,,,,,,,0,,,101,0
223860,note_on,13,0,1,,,,,,,,,0,,,70,70
223860,note_on,4,0,0,,,,,,,,,0,,,100,70
223916,note_on,56,0,0,,,,,,,,,0,,,100,0
223920,note_on,4,0,0,,,,,,,,,0,,,98,70
223976,note_on,56,0,0,,,,,,,,,0,,,98,0
223980,note_on,4,0,0,,,,,,,,,0,,,95,70
224036,note_on,56,0,0,,,,,,,,,0,,,95,0
224040,note_on,4,0,0,,,,,,,,,0,,,92,70
224069,note_on,209,0,1,,,,,,,,,0,,,64,0
224087,note_on,18,0,1,,,,,,,,,0,,,70,0
224096,note_on,56,0,0,,,,,,,,,0,,,92,0
224100,note_on,13,0,1,,,,,,,,,0,,,71,70
224100,note_on,4,0,0,,,,,,,,,0,,,89,70
224156,note_on,56,0,0,,,,,,,,,0,,,89,0
224160,note_on,4,0,0,,,,,,,,,0,,,86,70
224216,note_on,56,0,0,,,,,,,,,0,,,86,0
224220,note_on,0,0,0,,,,,,,,,0,,,83,70
224220,set_tempo,4,1,0,,,,,,428571,,,,,,,
224333,note_on,113,0,0,,,,,,,,,0,,,83,0
224340,note_on,7,0,0,,,,,,,,,0,,,80,70
224460,set_tempo,120,1,0,,,,,,6006,,,,,,,
224510,note_on,50,0,0,,,,,,,,,0,,,80,0
224519,set_tempo,9,1,0,,,,,,60060,,,,,,,
224520,set_tempo,1,1,0,,,,,,6006,,,,,,,
224639,set_tempo,119,1,0,,,,,,60060,,,,,,,
224640,note_on,0,0,1,,,,,,,,,0,,,73,67
224640,note_on,0,0,0,,,,,,,,,0,,,79,77
224640,note_on,540,0,1,,,,,,,,,0,,,76,80
224640,set_tempo,1,1,0,,,,,,652174,,,,,,,
224641,control_change,1,0,1,,,,,,,64,0,0,,,,
224642,control_change,1,0,1,,,,,,,64,127,0,,,,
224696,note_on,56,0,0,,,,,,,,,0,,,79,0
224700,note_on,4,0,0,,,,,,,,,0,,,80,77
224756,note_on,56,0,0,,,,,,,,,0,,,80,0
224760,note_on,4,0,0,,,,,,,,,0,,,79,77
224816,note_on,56,0,0,,,,,,,,,0,,,79,0
224820,note_on,4,0,0,,,,,,,,,0,,,78,70
224876,note_on,56,0,0,,,,,,,,,0,,,78,0
224880,note_on,4,0,0,,,,,,,,,0,,,79,70
224936,note_on,56,0,0,,,,,,,,,0,,,79,0
224940,note_on,4,0,0,,,,,,,,,0,,,82,70
224996,note_on,56,0,0,,,,,,,,,0,,,82,0
225000,note_on,4,0,0,,,,,,,,,0,,,85,70
225056,note_on,56,0,0,,,,,,,,,0,,,85,0
225060,note_on,4,0,0,,,,,,,,,0,,,88,70
225116,note_on,56,0,0,,,,,,,,,0,,,88,0
225120,note_on,4,0,0,,,,,,,,,0,,,91,70
225120,note_on,478,0,1,,,,,,,,,0,,,63,80
225121,note_on,1,0,1,,,,,,,,,0,,,76,0
225176,note_on,56,0,0,,,,,,,,,0,,,91,0
225180,note_on,4,0,0,,,,,,,,,0,,,94,70
225236,note_on,56,0,0,,,,,,,,,0,,,94,0
225239,note_on,118,0,1,,,,,,,,,0,,,71,0
225240,note_on,4,0,0,,,,,,,,,0,,,97,70
225296,note_on,56,0,0,,,,,,,,,0,,,97,0
225300,note_on,4,0,0,,,,,,,,,0,,,100,70
225356,note_on,56,0,0,,,,,,,,,0,,,100,0
225360,note_on,121,0,1,,,,,,,,,0,,,75,80
225360,note_on,4,0,0,,,,,,,,,0,,,99,70
225416,note_on,56,0,0,,,,,,,,,0,,,99,0
225420,note_on,4,0,0,,,,,,,,,0,,,97,70
225476,note_on,56,0,0,,,,,,,,,0,,,97,0
225480,note_on,4,0,0,,,,,,,,,0,,,94,69
225536,note_on,56,0,0,,,,,,,,,0,,,94,0
225540,note_on,4,0,0,,,,,,,,,0,,,91,69
225551,note_on,191,0,1,,,,,,,,,0,,,73,0
225587,note_on,36,0,1,,,,,,,,,0,,,75,0
225596,note_on,56,0,0,,,,,,,,,0,,,91,0
225600,note_on,4,0,0,,,,,,,,,0,,,87,69
225600,note_on,13,0,1,,,,,,,,,0,,,69,79
225656,note_on,56,0,0,,,,,,,,,0,,,87,0
225660,note_on,4,0,0,,,,,,,,,0,,,85,69
225716,note_on,56,0,0,,,,,,,,,0,,,85,0
225720,note_on,4,0,0,,,,,,,,,0,,,82,69
225776,note_on,56,0,0,,,,,,,,,0,,,82,0
225780,note_on,4,0,0,,,,,,,,,0,,,79,69
225827,note_on,227,0,1,,,,,,,,,0,,,69,0
225836,note_on,56,0,0,,,,,,,,,0,,,79,0
225840,note_on,13,0,1,,,,,,,,,0,,,70,79
226067,note_on,227,0,1,,,,,,,,,0,,,70,0
226080,note_on,0,0,1,,,,,,,,,0,,,69,69
226080,note_on,13,0,1,,,,,,,,,0,,,75,82
226080,note_on,0,0,1,,,,,,,,,0,,,72,69
226080,note_on,244,0,0,,,,,,,,,0,,,78,69
226136,note_on,56,0,0,,,,,,,,,0,,,78,0
226140,note_on,4,0,0,,,,,,,,,0,,,79,75
226196,note_on,56,0,0,,,,,,,,,0,,,79,0
226200,note_on,4,0,0,,,,,,,,,0,,,78,75
226256,note_on,56,0,0,,,,,,,,,0,,,78,0
226260,note_on,4,0,0,,,,,,,,,0,,,77,69
226316,note_on,56,0,0,,,,,,,,,0,,,77,0
226320,note_on,4,0,0,,,,,,,,,0,,,78,68
226376,note_on,56,0,0,,,,,,,,,0,,,78,0
226380,note_on,4,0,0,,,,,,,,,0,,,81,68
226436,note_on,56,0,0,,,,,,,,,0,,,81,0
226440,note_on,4,0,0,,,,,,,,,0,,,84,68
226487,note_on,407,0,1,,,,,,,,,0,,,63,0
226496,note_on,56,0,0,,,,,,,,,0,,,84,0
226500,note_on,4,0,0,,,,,,,,,0,,,87,68
226556,note_on,56,0,0,,,,,,,,,0,,,87,0
226560,note_on,4,0,0,,,,,,,,,0,,,90,68
226560,note_on,73,0,1,,,,,,,,,0,,,62,78
226561,note_on,1,0,1,,,,,,,,,0,,,75,0
226616,note_on,56,0,0,,,,,,,,,0,,,90,0
226620,note_on,4,0,0,,,,,,,,,0,,,93,68
226676,note_on,56,0,0,,,,,,,,,0,,,93,0
226680,note_on,4,0,0,,,,,,,,,0,,,96,68
226736,note_on,56,0,0,,,,,,,,,0,,,96,0
226740,note_on,4,0,0,,,,,,,,,0,,,99,68
226796,note_on,56,0,0,,,,,,,,,0,,,99,0
226800,note_on,4,0,0,,,,,,,,,0,,,98,68
226800,note_on,239,0,1,,,,,,,,,0,,,74,78
226856,note_on,56,0,0,,,,,,,,,0,,,98,0
226860,note_on,4,0,0,,,,,,,,,0,,,96,68
226916,note_on,56,0,0,,,,,,,,,0,,,96,0
226920,note_on,4,0,0,,,,,,,,,0,,,93,68
226976,note_on,56,0,0,,,,,,,,,0,,,93,0
226980,note_on,4,0,0,,,,,,,,,0,,,90,68
226991,note_on,0,0,1,,,,,,,,,0,,,72,0
226991,note_on,191,0,1,,,,,,,,,0,,,69,0
227027,note_on,36,0,1,,,,,,,,,0,,,74,0
227036,note_on,56,0,0,,,,,,,,,0,,,90,0
227040,note_on,4,0,0,,,,,,,,,0,,,86,68
227040,note_on,13,0,1,,,,,,,,,0,,,68,78
227096,note_on,56,0,0,,,,,,,,,0,,,86,0
227100,note_on,4,0,0,,,,,,,,,0,,,84,68
227156,note_on,56,0,0,,,,,,,,,0,,,84,0
227160,note_on,4,0,0,,,,,,,,,0,,,81,67
227216,note_on,56,0,0,,,,,,,,,0,,,81,0
227220,note_on,4,0,0,,,,,,,,,0,,,78,67
227267,note_on,227,0,1,,,,,,,,,0,,,68,0
227276,note_on,56,0,0,,,,,,,,,0,,,78,0
227280,note_on,13,0,1,,,,,,,,,0,,,69,77
227507,note_on,227,0,1,,,,,,,,,0,,,69,0
227520,note_on,244,0,0,,,,,,,,,0,,,77,73
227520,note_on,0,0,1,,,,,,,,,0,,,68,67
227520,note_on,13,0,1,,,,,,,,,0,,,74,80
227520,note_on,0,0,1,,,,,,,,,0,,,71,67
227521,control_change,1,0,1,,,,,,,64,0,0,,,,
227522,control_change,1,0,1,,,,,,,64,127,0,,,,
227576,note_on,56,0,0,,,,,,,,,0,,,77,0
227580,note_on,4,0,0,,,,,,,,,0,,,78,73
227636,note_on,56,0,0,,,,,,,,,0,,,78,0
227640,note_on,4,0,0,,,,,,,,,0,,,77,73
227696,note_on,56,0,0,,,,,,,,,0,,,77,0
227700,note_on,4,0,0,,,,,,,,,0,,,76,67
227756,note_on,56,0,0,,,,,,,,,0,,,76,0
227760,note_on,4,0,0,,,,,,,,,0,,,77,67
227816,note_on,56,0,0,,,,,,,,,0,,,77,0
227820,note_on,4,0,0,,,,,,,,,0,,,80,67
227876,note_on,56,0,0,,,,,,,,,0,,,80,0
227880,note_on,4,0,0,,,,,,,,,0,,,83,67
227927,note_on,405,0,1,,,,,,,,,0,,,62,0
227936,note_on,56,0,0,,,,,,,,,0,,,83,0
227940,note_on,4,0,0,,,,,,,,,0,,,86,66
227996,note_on,56,0,0,,,,,,,,,0,,,86,0
228000,note_on,4,0,0,,,,,,,,,0,,,89,66
228000,note_on,73,0,1,,,,,,,,,0,,,61,75
228001,note_on,1,0,1,,,,,,,,,0,,,74,0
228056,note_on,56,0,0,,,,,,,,,0,,,89,0
228060,note_on,4,0,0,,,,,,,,,0,,,92,66
228116,note_on,56,0,0,,,,,,,,,0,,,92,0
228120,note_on,4,0,0,,,,,,,,,0,,,95,66
228176,note_on,56,0,0,,,,,,,,,0,,,95,0
228180,note_on,4,0,0,,,,,,,,,0,,,98,66
228236,note_on,56,0,0,,,,,,,,,0,,,98,0
228240,note_on,4,0,0,,,,,,,,,0,,,97,66
228240,note_on,239,0,1,,,,,,,,,0,,,73,75
228296,note_on,56,0,0,,,,,,,,,0,,,97,0
228300,note_on,4,0,0,,,,,,,,,0,,,95,66
228356,note_on,56,0,0,,,,,,,,,0,,,95,0
228360,note_on,4,0,0,,,,,,,,,0,,,92,66
228416,note_on,56,0,0,,,,,,,,,0,,,92,0
228420,note_on,4,0,0,,,,,,,,,0,,,89,66
228431,note_on,0,0,1,,,,,,,,,0,,,71,0
228431,note_on,191,0,1,,,,,,,,,0,,,68,0
228467,note_on,36,0,1,,,,,,,,,0,,,73,0
228476,note_on,56,0,0,,,,,,,,,0,,,89,0
228480,note_on,4,0,0,,,,,,,,,0,,,85,66
228480,note_on,13,0,1,,,,,,,,,0,,,67,75
228536,note_on,56,0,0,,,,,,,,,0,,,85,0
228540,note_on,4,0,0,,,,,,,,,0,,,83,66
228596,note_on,56,0,0,,,,,,,,,0,,,83,0
228600,note_on,4,0,0,,,,,,,,,0,,,80,66
228656,note_on,56,0,0,,,,,,,,,0,,,80,0
228660,note_on,4,0,0,,,,,,,,,0,,,77,66
228707,note_on,227,0,1,,,,,,,,,0,,,67,0
228716,note_on,56,0,0,,,,,,,,,0,,,77,0
228720,note_on,13,0,1,,,,,,,,,0,,,68,75
228720,set_tempo,4,1,0,,,,,,586957,,,,,,,
228947,note_on,227,0,1,,,,,,,,,0,,,68,0
228959,set_tempo,239,1,0,,,,,,652174,,,,,,,
228960,note_on,1,0,0,,,,,,,,,0,,,76,71
228960,note_on,0,0,1,,,,,,,,,0,,,70,65
228960,note_on,13,0,1,,,,,,,,,0,,,73,78
228960,note_on,0,0,1,,,,,,,,,0,,,67,65
229016,note_on,56,0,0,,,,,,,,,0,,,76,0
229020,note_on,4,0,0,,,,,,,,,0,,,77,71
229076,note_on,56,0,0,,,,,,,,,0,,,77,0
229080,note_on,4,0,0,,,,,,,,,0,,,76,71
229136,note_on,56,0,0,,,,,,,,,0,,,76,0
229140,note_on,4,0,0,,,,,,,,,0,,,75,65
229196,note_on,56,0,0,,,,,,,,,0,,,75,0
229200,note_on,4,0,0,,,,,,,,,0,,,76,65
229256,note_on,56,0,0,,,,,,,,,0,,,76,0
229260,note_on,4,0,0,,,,,,,,,0,,,79,65
229316,note_on,56,0,0,,,,,,,,,0,,,79,0
229320,note_on,4,0,0,,,,,,,,,0,,,82,65
229367,note_on,407,0,1,,,,,,,,,0,,,61,0
229376,note_on,56,0,0,,,,,,,,,0,,,82,0
229380,note_on,4,0,0,,,,,,,,,0,,,85,65
229436,note_on,56,0,0,,,,,,,,,0,,,85,0
229440,note_on,4,0,0,,,,,,,,,0,,,88,65
229440,note_on,73,0,1,,,,,,,,,0,,,60,74
229441,note_on,1,0,1,,,,,,,,,0,,,73,0
229496,note_on,56,0,0,,,,,,,,,0,,,88,0
229500,note_on,4,0,0,,,,,,,,,0,,,91,65
229556,note_on,56,0,0,,,,,,,,,0,,,91,0
229560,note_on,4,0,0,,,,,,,,,0,,,94,65
229616,note_on,56,0,0,,,,,,,,,0,,,94,0
229620,note_on,4,0,0,,,,,,,,,0,,,97,64
229676,note_on,56,0,0,,,,,,,,,0,,,97,0
229680,note_on,239,0,1,,,,,,,,,0,,,72,73
229680,note_on,4,0,0,,,,,,,,,0,,,96,64
229736,note_on,56,0,0,,,,,,,,,0,,,96,0
229740,note_on,4,0,0,,,,,,,,,0,,,94,64
229796,note_on,56,0,0,,,,,,,,,0,,,94,0
229800,note_on,4,0,0,,,,,,,,,0,,,91,64
229856,note_on,56,0,0,,,,,,,,,0,,,91,0
229860,note_on,4,0,0,,,,,,,,,0,,,88,64
229871,note_on,0,0,1,,,,,,,,,0,,,70,0
229871,note_on,191,0,1,,,,,,,,,0,,,67,0
229907,note_on,36,0,1,,,,,,,,,0,,,72,0
229916,note_on,56,0,0,,,,,,,,,0,,,88,0
229920,note_on,13,0,1,,,,,,,,,0,,,66,73
229920,note_on,4,0,0,,,,,,,,,0,,,84,64
229976,note_on,56,0,0,,,,,,,,,0,,,84,0
229980,note_on,4,0,0,,,,,,,,,0,,,82,64
230036,note_on,56,0,0,,,,,,,,,0,,,82,0
230040,note_on,4,0,0,,,,,,,,,0,,,79,64
230147,note_on,227,0,1,,,,,,,,,0,,,66,0
230153,note_on,113,0,0,,,,,,,,,0,,,79,0
230160,set_tempo,7,1,0,,,,,,521739,,,,,,,
230160,note_on,13,0,1,,,,,,,,,0,,,67,73
230351,note_on,191,0,1,,,,,,,,,0,,,60,0
230387,note_on,36,0,1,,,,,,,,,0,,,67,0
230399,set_tempo,239,1,0,,,,,,652174,,,,,,,
230400,note_on,1,0,0,,,,,,,,,0,,,76,63
230401,control_change,14,0,1,,,,,,,64,0,0,,,,
230402,control_change,2,0,0,,,,,,,64,127,0,,,,
230456,note_on,54,0,0,,,,,,,,,0,,,76,0
230460,note_on,4,0,0,,,,,,,,,0,,,77,63
230516,note_on,56,0,0,,,,,,,,,0,,,77,0
230520,note_on,4,0,0,,,,,,,,,0,,,76,63
230576,note_on,56,0,0,,,,,,,,,0,,,76,0
230580,note_on,4,0,0,,,,,,,,,0,,,75,63
230636,note_on,56,0,0,,,,,,,,,0,,,75,0
230640,note_on,4,0,0,,,,,,,,,0,,,76,63
230696,note_on,56,0,0,,,,,,,,,0,,,76,0
230700,note_on,4,0,0,,,,,,,,,0,,,79,63
230756,note_on,56,0,0,,,,,,,,,0,,,79,0
230760,note_on,4,0,0,,,,,,,,,0,,,82,63
230816,note_on,56,0,0,,,,,,,,,0,,,82,0
230820,note_on,4,0,0,,,,,,,,,0,,,85,63
230876,note_on,56,0,0,,,,,,,,,0,,,85,0
230880,note_on,4,0,0,,,,,,,,,0,,,88,63
230936,note_on,56,0,0,,,,,,,,,0,,,88,0
230940,note_on,4,0,0,,,,,,,,,0,,,91,63
230996,note_on,56,0,0,,,,,,,,,0,,,91,0
231000,note_on,4,0,0,,,,,,,,,0,,,94,63
231056,note_on,56,0,0,,,,,,,,,0,,,94,0
231060,note_on,4,0,0,,,,,,,,,0,,,97,63
231116,note_on,56,0,0,,,,,,,,,0,,,97,0
231120,note_on,4,0,0,,,,,,,,,0,,,96,63
231176,note_on,56,0,0,,,,,,,,,0,,,96,0
231180,note_on,4,0,0,,,,,,,,,0,,,94,63
231236,note_on,56,0,0,,,,,,,,,0,,,94,0
231240,note_on,4,0,0,,,,,,,,,0,,,91,63
231296,note_on,56,0,0,,,,,,,,,0,,,91,0
231300,note_on,4,0,0,,,,,,,,,0,,,88,63
231356,note_on,56,0,0,,,,,,,,,0,,,88,0
231360,note_on,4,0,0,,,,,,,,,0,,,85,63
231416,note_on,56,0,0,,,,,,,,,0,,,85,0
231420,note_on,4,0,0,,,,,,,,,0,,,82,63
231476,note_on,56,0,0,,,,,,,,,0,,,82,0
231480,note_on,4,0,0,,,,,,,,,0,,,79,63
231536,note_on,56,0,0,,,,,,,,,0,,,79,0
231540,note_on,4,0,0,,,,,,,,,0,,,76,63
231596,note_on,56,0,0,,,,,,,,,0,,,76,0
231600,set_tempo,4,1,0,,,,,,391304,,,,,,,
231839,set_tempo,239,1,0,,,,,,652174,,,,,,,
231840,note_on,0,0,1,,,,,,,,,0,,,61,63
231840,note_on,0,0,1,,,,,,,,,0,,,64,63
231840,note_on,1,0,0,,,,,,,,,0,,,73,63
231840,note_on,0,0,1,,,,,,,,,0,,,58,63
231840,note_on,1439,0,1,,,,,,,,,0,,,68,63
231896,note_on,56,0,0,,,,,,,,,0,,,73,0
231900,note_on,4,0,0,,,,,,,,,0,,,75,63
231956,note_on,56,0,0,,,,,,,,,0,,,75,0
231960,note_on,4,0,0,,,,,,,,,0,,,73,63
232016,note_on,56,0,0,,,,,,,,,0,,,73,0
232020,note_on,4,0,0,,,,,,,,,0,,,72,63
232076,note_on,56,0,0,,,,,,,,,0,,,72,0
232080,note_on,4,0,0,,,,,,,,,0,,,73,63
232136,note_on,56,0,0,,,,,,,,,0,,,73,0
232140,note_on,4,0,0,,,,,,,,,0,,,76,63
232196,note_on,56,0,0,,,,,,,,,0,,,76,0
232200,note_on,4,0,0,,,,,,,,,0,,,79,63
232256,note_on,56,0,0,,,,,,,,,0,,,79,0
232260,note_on,4,0,0,,,,,,,,,0,,,82,63
232316,note_on,56,0,0,,,,,,,,,0,,,82,0
232320,note_on,4,0,0,,,,,,,,,0,,,85,63
232320,note_on,480,0,1,,,,,,,,,0,,,51,72
232376,note_on,56,0,0,,,,,,,,,0,,,85,0
232380,note_on,4,0,0,,,,,,,,,0,,,89,63
232436,note_on,56,0,0,,,,,,,,,0,,,89,0
232440,note_on,4,0,0,,,,,,,,,0,,,91,63
232496,note_on,56,0,0,,,,,,,,,0,,,91,0
232500,note_on,4,0,0,,,,,,,,,0,,,96,63
232523,note_on,203,0,1,,,,,,,,,0,,,68,0
232556,note_on,56,0,0,,,,,,,,,0,,,96,0
232560,note_on,4,0,0,,,,,,,,,0,,,94,63
232560,note_on,37,0,1,,,,,,,,,0,,,67,72
232616,note_on,56,0,0,,,,,,,,,0,,,94,0
232620,note_on,4,0,0,,,,,,,,,0,,,91,63
232676,note_on,56,0,0,,,,,,,,,0,,,91,0
232680,note_on,4,0,0,,,,,,,,,0,,,89,63
232736,note_on,56,0,0,,,,,,,,,0,,,89,0
232740,note_on,4,0,0,,,,,,,,,0,,,85,63
232751,note_on,191,0,1,,,,,,,,,0,,,58,0
232751,note_on,0,0,1,,,,,,,,,0,,,64,0
232751,note_on,0,0,1,,,,,,,,,0,,,61,0
232787,note_on,36,0,1,,,,,,,,,0,,,67,0
232796,note_on,56,0,0,,,,,,,,,0,,,85,0
232800,note_on,13,0,1,,,,,,,,,0,,,60,72
232800,note_on,4,0,0,,,,,,,,,0,,,82,63
232856,note_on,56,0,0,,,,,,,,,0,,,82,0
232860,note_on,4,0,0,,,,,,,,,0,,,79,63
232916,note_on,56,0,0,,,,,,,,,0,,,79,0
232920,note_on,4,0,0,,,,,,,,,0,,,76,63
232976,note_on,56,0,0,,,,,,,,,0,,,76,0
232980,note_on,4,0,0,,,,,,,,,0,,,73,63
233027,note_on,227,0,1,,,,,,,,,0,,,60,0
233036,note_on,56,0,0,,,,,,,,,0,,,73,0
233040,note_on,13,0,1,,,,,,,,,0,,,61,72
233040,set_tempo,4,1,0,,,,,,456522,,,,,,,
233231,note_on,191,0,1,,,,,,,,,0,,,51,0
233267,note_on,36,0,1,,,,,,,,,0,,,61,0
233279,set_tempo,239,1,0,,,,,,652174,,,,,,,
233280,set_tempo,0,1,0,,,,,,978261,,,,,,,
233280,note_on,0,0,0,,,,,,,,,0,,,70,63
233280,time_signature,1,1,0,5,4,24,8,,,,,,,,,
233281,control_change,1,0,0,,,,,,,64,0,0,,,,
233282,control_change,1,0,0,,,,,,,64,127,0,,,,
233336,note_on,54,0,0,,,,,,,,,0,,,70,0
233339,set_tempo,3,1,0,,,,,,652174,,,,,,,
233340,set_tempo,1,1,0,,,,,,782609,,,,,,,
233340,note_on,0,0,0,,,,,,,,,0,,,72,63
233396,note_on,56,0,0,,,,,,,,,0,,,72,0
233399,set_tempo,3,1,0,,,,,,652174,,,,,,,
233400,note_on,1,0,0,,,,,,,,,0,,,70,63
233456,note_on,56,0,0,,,,,,,,,0,,,70,0
233460,note_on,4,0,0,,,,,,,,,0,,,69,63
233516,note_on,56,0,0,,,,,,,,,0,,,69,0
233520,note_on,4,0,0,,,,,,,,,0,,,70,63
233576,note_on,56,0,0,,,,,,,,,0,,,70,0
233580,note_on,4,0,0,,,,,,,,,0,,,73,63
233636,note_on,56,0,0,,,,,,,,,0,,,73,0
233640,note_on,4,0,0,,,,,,,,,0,,,76,63
233696,note_on,56,0,0,,,,,,,,,0,,,76,0
233700,note_on,4,0,0,,,,,,,,,0,,,79,63
233756,note_on,56,0,0,,,,,,,,,0,,,79,0
233760,note_on,4,0,0,,,,,,,,,0,,,82,63
233816,note_on,56,0,0,,,,,,,,,0,,,82,0
233820,note_on,4,0,0,,,,,,,,,0,,,85,63
233876,note_on,56,0,0,,,,,,,,,0,,,85,0
233880,note_on,4,0,0,,,,,,,,,0,,,88,63
233936,note_on,56,0,0,,,,,,,,,0,,,88,0
233940,note_on,4,0,0,,,,,,,,,0,,,92,63
233996,note_on,56,0,0,,,,,,,,,0,,,92,0
234000,note_on,4,0,0,,,,,,,,,0,,,91,63
234056,note_on,56,0,0,,,,,,,,,0,,,91,0
234060,note_on,4,0,0,,,,,,,,,0,,,88,63
234116,note_on,56,0,0,,,,,,,,,0,,,88,0
234120,note_on,4,0,0,,,,,,,,,0,,,85,63
234176,note_on,56,0,0,,,,,,,,,0,,,85,0
234180,note_on,4,0,0,,,,,,,,,0,,,82,63
234236,note_on,56,0,0,,,,,,,,,0,,,82,0
234240,note_on,4,0,0,,,,,,,,,0,,,78,63
234296,note_on,56,0,0,,,,,,,,,0,,,78,0
234300,note_on,4,0,0,,,,,,,,,0,,,76,63
234356,note_on,56,0,0,,,,,,,,,0,,,76,0
234360,note_on,0,0,0,,,,,,,,,0,,,73,63
234360,set_tempo,4,1,0,,,,,,913043,,,,,,,
234416,note_on,56,0,0,,,,,,,,,0,,,73,0
234419,set_tempo,3,1,0,,,,,,652174,,,,,,,
234420,note_on,0,0,0,,,,,,,,,0,,,70,63
234420,set_tempo,1,1,0,,,,,,1304348,,,,,,,
234476,note_on,56,0,0,,,,,,,,,0,,,70,0
234479,set_tempo,3,1,0,,,,,,652174,,,,,,,
234480,note_on,1,0,0,,,,,,,,,0,,,67,63
234481,control_change,1,0,0,,,,,,,64,0,0,,,,
234482,control_change,1,0,0,,,,,,,64,127,0,,,,
234536,note_on,54,0,0,,,,,,,,,0,,,67,0
234540,note_on,4,0,0,,,,,,,,,0,,,68,63
234596,note_on,56,0,0,,,,,,,,,0,,,68,0
234600,note_on,4,0,0,,,,,,,,,0,,,67,63
234656,note_on,56,0,0,,,,,,,,,0,,,67,0
234660,note_on,4,0,0,,,,,,,,,0,,,66,63
234716,note_on,56,0,0,,,,,,,,,0,,,66,0
234720,note_on,4,0,0,,,,,,,,,0,,,67,63
234776,note_on,56,0,0,,,,,,,,,0,,,67,0
234780,note_on,4,0,0,,,,,,,,,0,,,70,63
234836,note_on,56,0,0,,,,,,,,,0,,,70,0
234840,note_on,4,0,0,,,,,,,,,0,,,73,63
234896,note_on,56,0,0,,,,,,,,,0,,,73,0
234900,note_on,4,0,0,,,,,,,,,0,,,76,63
234956,note_on,56,0,0,,,,,,,,,0,,,76,0
234960,note_on,4,0,0,,,,,,,,,0,,,79,63
235016,note_on,56,0,0,,,,,,,,,0,,,79,0
235020,note_on,4,0,0,,,,,,,,,0,,,82,63
235076,note_on,56,0,0,,,,,,,,,0,,,82,0
235080,note_on,4,0,0,,,,,,,,,0,,,85,63
235136,note_on,56,0,0,,,,,,,,,0,,,85,0
235140,note_on,4,0,0,,,,,,,,,0,,,90,63
235196,note_on,56,0,0,,,,,,,,,0,,,90,0
235200,note_on,4,0,0,,,,,,,,,0,,,88,63
235256,note_on,56,0,0,,,,,,,,,0,,,88,0
235260,note_on,4,0,0,,,,,,,,,0,,,85,63
235316,note_on,56,0,0,,,,,,,,,0,,,85,0
235320,note_on,4,0,0,,,,,,,,,0,,,82,63
235376,note_on,56,0,0,,,,,,,,,0,,,82,0
235380,note_on,4,0,0,,,,,,,,,0,,,79,63
235436,note_on,56,0,0,,,,,,,,,0,,,79,0
235440,note_on,4,0,0,,,,,,,,,0,,,76,63
235496,note_on,56,0,0,,,,,,,,,0,,,76,0
235500,note_on,4,0,0,,,,,,,,,0,,,73,63
235556,note_on,56,0,0,,,,,,,,,0,,,73,0
235560,note_on,0,0,0,,,,,,,,,0,,,70,63
235560,set_tempo,4,1,0,,,,,,782609,,,,,,,
235616,note_on,56,0,0,,,,,,,,,0,,,70,0
235619,set_tempo,3,1,0,,,,,,652174,,,,,,,
235620,set_tempo,1,1,0,,,,,,978261,,,,,,,
235620,note_on,0,0,0,,,,,,,,,0,,,67,63
235676,note_on,56,0,0,,,,,,,,,0,,,67,0
235679,set_tempo,3,1,0,,,,,,652174,,,,,,,
235680,note_on,0,0,0,,,,,,,,,0,,,64,63
235680,time_signature,1,1,0,11,8,24,8,,,,,,,,,
235681,control_change,1,0,0,,,,,,,64,0,0,,,,
235682,control_change,1,0,0,,,,,,,64,127,0,,,,
235736,note_on,54,0,0,,,,,,,,,0,,,64,0
235740,note_on,4,0,0,,,,,,,,,0,,,66,63
235796,note_on,56,0,0,,,,,,,,,0,,,66,0
235800,note_on,4,0,0,,,,,,,,,0,,,64,63
235856,note_on,56,0,0,,,,,,,,,0,,,64,0
235860,note_on,4,0,0,,,,,,,,,0,,,63,63
235916,note_on,56,0,0,,,,,,,,,0,,,63,0
235920,note_on,4,0,0,,,,,,,,,0,,,64,63
235976,note_on,56,0,0,,,,,,,,,0,,,64,0
235980,note_on,4,0,0,,,,,,,,,0,,,67,63
236036,note_on,56,0,0,,,,,,,,,0,,,67,0
236040,note_on,4,0,0,,,,,,,,,0,,,70,63
236096,note_on,56,0,0,,,,,,,,,0,,,70,0
236100,note_on,4,0,0,,,,,,,,,0,,,73,63
236156,note_on,56,0,0,,,,,,,,,0,,,73,0
236160,note_on,4,0,0,,,,,,,,,0,,,76,63
236216,note_on,56,0,0,,,,,,,,,0,,,76,0
236220,note_on,4,0,0,,,,,,,,,0,,,79,63
236276,note_on,56,0,0,,,,,,,,,0,,,79,0
236280,note_on,4,0,0,,,,,,,,,0,,,82,63
236336,note_on,56,0,0,,,,,,,,,0,,,82,0
236340,note_on,4,0,0,,,,,,,,,0,,,87,63
236396,note_on,56,0,0,,,,,,,,,0,,,87,0
236400,note_on,4,0,0,,,,,,,,,0,,,85,63
236456,note_on,56,0,0,,,,,,,,,0,,,85,0
236460,note_on,4,0,0,,,,,,,,,0,,,82,63
236516,note_on,56,0,0,,,,,,,,,0,,,82,0
236520,note_on,4,0,0,,,,,,,,,0,,,79,63
236576,note_on,56,0,0,,,,,,,,,0,,,79,0
236580,note_on,4,0,0,,,,,,,,,0,,,76,63
236636,note_on,56,0,0,,,,,,,,,0,,,76,0
236640,note_on,4,0,0,,,,,,,,,0,,,73,63
236696,note_on,56,0,0,,,,,,,,,0,,,73,0
236700,note_on,4,0,0,,,,,,,,,0,,,70,63
236756,note_on,56,0,0,,,,,,,,,0,,,70,0
236760,note_on,4,0,0,,,,,,,,,0,,,67,63
236816,note_on,56,0,0,,,,,,,,,0,,,67,0
236820,note_on,0,0,0,,,,,,,,,0,,,64,63
236820,set_tempo,4,1,0,,,,,,782609,,,,,,,
236876,note_on,56,0,0,,,,,,,,,0,,,64,0
236879,set_tempo,3,1,0,,,,,,652174,,,,,,,
236880,note_on,1,0,0,,,,,,,,,0,,,63,63
236881,control_change,1,0,0,,,,,,,64,0,0,,,,
236882,control_change,1,0,0,,,,,,,64,127,0,,,,
236936,note_on,54,0,0,,,,,,,,,0,,,63,0
236940,note_on,4,0,0,,,,,,,,,0,,,65,63
236996,note_on,56,0,0,,,,,,,,,0,,,65,0
237000,note_on,4,0,0,,,,,,,,,0,,,63,63
237056,note_on,56,0,0,,,,,,,,,0,,,63,0
237060,note_on,4,0,0,,,,,,,,,0,,,62,63
237116,note_on,56,0,0,,,,,,,,,0,,,62,0
237120,note_on,4,0,0,,,,,,,,,0,,,63,63
237176,note_on,56,0,0,,,,,,,,,0,,,63,0
237180,note_on,4,0,0,,,,,,,,,0,,,67,64
237236,note_on,56,0,0,,,,,,,,,0,,,67,0
237240,note_on,4,0,0,,,,,,,,,0,,,70,65
237296,note_on,56,0,0,,,,,,,,,0,,,70,0
237300,set_tempo,4,1,0,,,,,,652174,,,,,,,
237300,note_on,0,0,0,,,,,,,,,0,,,73,66
237356,note_on,56,0,0,,,,,,,,,0,,,73,0
237360,note_on,0,0,0,,,,,,,,,0,,,75,67
237360,set_tempo,4,1,0,,,,,,647948,,,,,,,
237416,note_on,56,0,0,,,,,,,,,0,,,75,0
237420,note_on,0,0,0,,,,,,,,,0,,,79,68
237420,set_tempo,4,1,0,,,,,,642398,,,,,,,
237476,note_on,56,0,0,,,,,,,,,0,,,79,0
237480,set_tempo,4,1,0,,,,,,636267,,,,,,,
237480,note_on,0,0,0,,,,,,,,,0,,,82,69
237536,note_on,56,0,0,,,,,,,,,0,,,82,0
237540,note_on,0,0,0,,,,,,,,,0,,,85,70
237540,set_tempo,4,1,0,,,,,,630915,,,,,,,
237596,note_on,56,0,0,,,,,,,,,0,,,85,0
237600,set_tempo,4,1,0,,,,,,624350,,,,,,,
237600,note_on,0,0,0,,,,,,,,,0,,,86,71
237656,note_on,56,0,0,,,,,,,,,0,,,86,0
237660,set_tempo,4,1,0,,,,,,618557,,,,,,,
237660,note_on,0,0,0,,,,,,,,,0,,,87,72
237716,note_on,56,0,0,,,,,,,,,0,,,87,0
237720,note_on,4,0,0,,,,,,,,,0,,,96,73
237776,note_on,56,0,0,,,,,,,,,0,,,96,0
237780,note_on,0,0,0,,,,,,,,,0,,,94,73
237780,set_tempo,4,1,0,,,,,,625000,,,,,,,
237836,note_on,56,0,0,,,,,,,,,0,,,94,0
237840,note_on,0,0,0,,,,,,,,,0,,,91,73
237840,set_tempo,4,1,0,,,,,,630252,,,,,,,
237896,note_on,56,0,0,,,,,,,,,0,,,91,0
237900,note_on,0,0,0,,,,,,,,,0,,,87,73
237900,set_tempo,4,1,0,,,,,,636267,,,,,,,
237956,note_on,56,0,0,,,,,,,,,0,,,87,0
237960,note_on,0,0,0,,,,,,,,,0,,,85,73
237960,set_tempo,4,1,0,,,,,,643087,,,,,,,
238016,note_on,56,0,0,,,,,,,,,0,,,85,0
238020,set_tempo,4,1,0,,,,,,650759,,,,,,,
238020,note_on,0,0,0,,,,,,,,,0,,,82,73
238076,note_on,56,0,0,,,,,,,,,0,,,82,0
238080,set_tempo,4,1,0,,,,,,658617,,,,,,,
238080,note_on,0,0,0,,,,,,,,,0,,,79,73
238136,note_on,56,0,0,,,,,,,,,0,,,79,0
238140,note_on,0,0,0,,,,,,,,,0,,,75,73
238140,set_tempo,4,1,0,,,,,,666667,,,,,,,
238196,note_on,56,0,0,,,,,,,,,0,,,75,0
238200,note_on,4,0,0,,,,,,,,,0,,,73,73
238256,note_on,56,0,0,,,,,,,,,0,,,73,0
238260,note_on,4,0,0,,,,,,,,,0,,,70,73
238316,note_on,56,0,0,,,,,,,,,0,,,70,0
238320,note_on,4,0,0,,,,,,,,,0,,,64,73
238321,control_change,1,0,0,,,,,,,64,0,0,,,,
238322,control_change,1,0,0,,,,,,,64,127,0,,,,
238376,note_on,54,0,0,,,,,,,,,0,,,64,0
238380,note_on,4,0,0,,,,,,,,,0,,,66,73
238436,note_on,56,0,0,,,,,,,,,0,,,66,0
238440,note_on,4,0,0,,,,,,,,,0,,,64,73
238496,note_on,56,0,0,,,,,,,,,0,,,64,0
238500,note_on,4,0,0,,,,,,,,,0,,,63,73
238556,note_on,56,0,0,,,,,,,,,0,,,63,0
238560,note_on,4,0,0,,,,,,,,,0,,,64,73
238616,note_on,56,0,0,,,,,,,,,0,,,64,0
238620,note_on,0,0,0,,,,,,,,,0,,,67,73
238620,set_tempo,4,1,0,,,,,,645161,,,,,,,
238676,note_on,56,0,0,,,,,,,,,0,,,67,0
238680,note_on,0,0,0,,,,,,,,,0,,,70,73
238680,set_tempo,4,1,0,,,,,,635593,,,,,,,
238736,note_on,56,0,0,,,,,,,,,0,,,70,0
238740,set_tempo,4,1,0,,,,,,625000,,,,,,,
238740,note_on,0,0,0,,,,,,,,,0,,,73,73
238796,note_on,56,0,0,,,,,,,,,0,,,73,0
238800,note_on,0,0,0,,,,,,,,,0,,,76,73
238800,set_tempo,4,1,0,,,,,,613497,,,,,,,
238856,note_on,56,0,0,,,,,,,,,0,,,76,0
238860,set_tempo,4,1,0,,,,,,601805,,,,,,,
238860,note_on,0,0,0,,,,,,,,,0,,,79,73
238916,note_on,56,0,0,,,,,,,,,0,,,79,0
238920,set_tempo,4,1,0,,,,,,589971,,,,,,,
238920,note_on,0,0,0,,,,,,,,,0,,,82,73
238976,note_on,56,0,0,,,,,,,,,0,,,82,0
238980,note_on,0,0,0,,,,,,,,,0,,,85,73
238980,set_tempo,4,1,0,,,,,,578592,,,,,,,
239036,note_on,56,0,0,,,,,,,,,0,,,85,0
239040,note_on,0,0,0,,,,,,,,,0,,,88,76
239040,set_tempo,4,1,0,,,,,,567644,,,,,,,
239096,note_on,56,0,0,,,,,,,,,0,,,88,0
239100,note_on,0,0,0,,,,,,,,,0,,,91,80
239100,set_tempo,4,1,0,,,,,,556586,,,,,,,
239156,note_on,56,0,0,,,,,,,,,0,,,91,0
239160,set_tempo,4,1,0,,,,,,545455,,,,,,,
239160,note_on,0,0,0,,,,,,,,,0,,,94,83
239216,note_on,56,0,0,,,,,,,,,0,,,94,0
239220,note_on,4,0,0,,,,,,,,,0,,,99,87
239276,note_on,56,0,0,,,,,,,,,0,,,99,0
239280,note_on,4,0,0,,,,,,,,,0,,,97,83
239336,note_on,56,0,0,,,,,,,,,0,,,97,0
239340,set_tempo,4,1,0,,,,,,555556,,,,,,,
239340,note_on,0,0,0,,,,,,,,,0,,,94,80
239396,note_on,56,0,0,,,,,,,,,0,,,94,0
239400,note_on,4,0,0,,,,,,,,,0,,,91,76
239456,note_on,56,0,0,,,,,,,,,0,,,91,0
239460,note_on,0,0,0,,,,,,,,,0,,,88,73
239460,set_tempo,4,1,0,,,,,,556070,,,,,,,
239516,note_on,56,0,0,,,,,,,,,0,,,88,0
239520,note_on,0,0,0,,,,,,,,,0,,,85,73
239520,set_tempo,4,1,0,,,,,,557621,,,,,,,
239576,note_on,56,0,0,,,,,,,,,0,,,85,0
239580,set_tempo,4,1,0,,,,,,560748,,,,,,,
239580,note_on,0,0,0,,,,,,,,,0,,,82,73
239636,note_on,56,0,0,,,,,,,,,0,,,82,0
239640,set_tempo,4,1,0,,,,,,567644,,,,,,,
239640,note_on,0,0,0,,,,,,,,,0,,,79,73
239696,note_on,56,0,0,,,,,,,,,0,,,79,0
239700,set_tempo,4,1,0,,,,,,578592,,,,,,,
239700,note_on,0,0,0,,,,,,,,,0,,,76,73
239756,note_on,56,0,0,,,,,,,,,0,,,76,0
239760,note_on,0,0,0,,,,,,,,,0,,,73,73
239760,set_tempo,4,1,0,,,,,,596421,,,,,,,
239816,note_on,56,0,0,,,,,,,,,0,,,73,0
239820,note_on,0,0,0,,,,,,,,,0,,,70,73
239820,set_tempo,4,1,0,,,,,,624350,,,,,,,
239876,note_on,56,0,0,,,,,,,,,0,,,70,0
239880,set_tempo,4,1,0,,,,,,666667,,,,,,,
239880,note_on,0,0,0,,,,,,,,,0,,,67,73
239936,note_on,56,0,0,,,,,,,,,0,,,67,0
239940,note_on,4,0,0,,,,,,,,,0,,,64,73
239996,note_on,56,0,0,,,,,,,,,0,,,64,0
240000,note_on,0,0,0,,,,,,,,,0,,,63,73
240000,set_tempo,4,1,0,,,,,,600000,,,,,,,
240001,control_change,1,0,0,,,,,,,64,0,0,,,,
240002,control_change,1,0,0,,,,,,,64,127,0,,,,
240056,note_on,54,0,0,,,,,,,,,0,,,63,0
240060,note_on,4,0,0,,,,,,,,,0,,,65,73
240116,note_on,56,0,0,,,,,,,,,0,,,65,0
240120,note_on,4,0,0,,,,,,,,,0,,,63,74
240176,note_on,56,0,0,,,,,,,,,0,,,63,0
240180,set_tempo,4,1,0,,,,,,600000,,,,,,,
240180,note_on,0,0,0,,,,,,,,,0,,,62,74
240236,note_on,56,0,0,,,,,,,,,0,,,62,0
240240,set_tempo,4,1,0,,,,,,602410,,,,,,,
240240,note_on,0,0,0,,,,,,,,,0,,,63,75
240296,note_on,56,0,0,,,,,,,,,0,,,63,0
240300,note_on,0,0,0,,,,,,,,,0,,,67,76
240300,set_tempo,4,1,0,,,,,,610376,,,,,,,
240356,note_on,56,0,0,,,,,,,,,0,,,67,0
240360,set_tempo,4,1,0,,,,,,625000,,,,,,,
240360,note_on,0,0,0,,,,,,,,,0,,,70,76
240416,note_on,56,0,0,,,,,,,,,0,,,70,0
240420,note_on,0,0,0,,,,,,,,,0,,,73,77
240420,set_tempo,4,1,0,,,,,,647249,,,,,,,
240476,note_on,56,0,0,,,,,,,,,0,,,73,0
240480,note_on,0,0,0,,,,,,,,,0,,,75,78
240480,set_tempo,4,1,0,,,,,,678733,,,,,,,
240536,note_on,56,0,0,,,,,,,,,0,,,75,0
240540,note_on,0,0,0,,,,,,,,,0,,,79,78
240540,set_tempo,4,1,0,,,,,,722892,,,,,,,
240596,note_on,56,0,0,,,,,,,,,0,,,79,0
240600,note_on,0,0,0,,,,,,,,,0,,,82,79
240600,set_tempo,4,1,0,,,,,,783290,,,,,,,
240656,note_on,56,0,0,,,,,,,,,0,,,82,0
240660,note_on,4,0,0,,,,,,,,,0,,,85,79
240716,note_on,56,0,0,,,,,,,,,0,,,85,0
240720,note_on,4,0,0,,,,,,,,,0,,,87,80
240776,note_on,56,0,0,,,,,,,,,0,,,87,0
240780,note_on,4,0,0,,,,,,,,,0,,,90,81
240836,note_on,56,0,0,,,,,,,,,0,,,90,0
240840,set_tempo,4,1,0,,,,,,548303,,,,,,,
240840,note_on,0,0,0,,,,,,,,,0,,,94,81
240953,note_on,113,0,0,,,,,,,,,0,,,94,0
240959,set_tempo,6,1,0,,,,,,783290,,,,,,,
240960,time_signature,1,1,0,13,8,24,8,,,,,,,,,
240960,note_on,0,0,0,,,,,,,,,0,,,91,83
240960,note_on,0,0,0,,,,,,,,,0,,,101,83
240960,set_tempo,0,1,0,,,,,,705882,,,,,,,
240961,control_change,1,0,0,,,,,,,64,0,0,,,,
241016,note_on,55,0,0,,,,,,,,,0,,,91,0
241016,note_on,0,0,0,,,,,,,,,0,,,101,0
241020,set_tempo,4,1,0,,,,,,707547,,,,,,,
241020,note_on,0,0,0,,,,,,,,,0,,,94,83
241020,note_on,0,0,0,,,,,,,,,0,,,96,83
241076,note_on,56,0,0,,,,,,,,,0,,,94,0
241076,note_on,0,0,0,,,,,,,,,0,,,96,0
241080,note_on,0,0,0,,,,,,,,,0,,,91,83
241080,note_on,0,0,0,,,,,,,,,0,,,100,83
241080,set_tempo,4,1,0,,,,,,709220,,,,,,,
241136,note_on,56,0,0,,,,,,,,,0,,,91,0
241136,note_on,0,0,0,,,,,,,,,0,,,100,0
241140,set_tempo,4,1,0,,,,,,710900,,,,,,,
241140,note_on,0,0,0,,,,,,,,,0,,,97,83
241140,note_on,0,0,0,,,,,,,,,0,,,94,83
241196,note_on,56,0,0,,,,,,,,,0,,,94,0
241196,note_on,0,0,0,,,,,,,,,0,,,97,0
241200,note_on,0,0,0,,,,,,,,,0,,,90,83
241200,note_on,0,0,0,,,,,,,,,0,,,100,83
241200,set_tempo,4,1,0,,,,,,713436,,,,,,,
241256,note_on,56,0,0,,,,,,,,,0,,,90,0
241256,note_on,0,0,0,,,,,,,,,0,,,100,0
241260,set_tempo,4,1,0,,,,,,715137,,,,,,,
241260,note_on,0,0,0,,,,,,,,,0,,,95,83
241260,note_on,0,0,0,,,,,,,,,0,,,93,83
241316,note_on,0,0,0,,,,,,,,,0,,,95,0
241316,note_on,56,0,0,,,,,,,,,0,,,93,0
241320,note_on,0,0,0,,,,,,,,,0,,,99,83
241320,set_tempo,4,1,0,,,,,,716846,,,,,,,
241320,note_on,0,0,0,,,,,,,,,0,,,90,83
241376,note_on,0,0,0,,,,,,,,,0,,,99,0
241376,note_on,56,0,0,,,,,,,,,0,,,90,0
241380,note_on,0,0,0,,,,,,,,,0,,,96,83
241380,note_on,0,0,0,,,,,,,,,0,,,93,83
241380,set_tempo,4,1,0,,,,,,718563,,,,,,,
241436,note_on,56,0,0,,,,,,,,,0,,,93,0
241436,note_on,0,0,0,,,,,,,,,0,,,96,0
241440,set_tempo,4,1,0,,,,,,720288,,,,,,,
241440,note_on,0,0,0,,,,,,,,,0,,,89,83
241440,note_on,0,0,0,,,,,,,,,0,,,99,83
241496,note_on,0,0,0,,,,,,,,,0,,,99,0
241496,note_on,56,0,0,,,,,,,,,0,,,89,0
241500,note_on,0,0,0,,,,,,,,,0,,,92,83
241500,set_tempo,4,1,0,,,,,,722022,,,,,,,
241500,note_on,0,0,0,,,,,,,,,0,,,94,83
241556,note_on,56,0,0,,,,,,,,,0,,,92,0
241556,note_on,0,0,0,,,,,,,,,0,,,94,0
241560,set_tempo,4,1,0,,,,,,723764,,,,,,,
241560,note_on,0,0,0,,,,,,,,,0,,,89,83
241560,note_on,0,0,0,,,,,,,,,0,,,98,83
241616,note_on,0,0,0,,,,,,,,,0,,,98,0
241616,note_on,56,0,0,,,,,,,,,0,,,89,0
241620,set_tempo,4,1,0,,,,,,725514,,,,,,,
241620,note_on,0,0,0,,,,,,,,,0,,,95,83
241620,note_on,0,0,0,,,,,,,,,0,,,92,83
241676,note_on,0,0,0,,,,,,,,,0,,,95,0
241676,note_on,56,0,0,,,,,,,,,0,,,92,0
241680,note_on,0,0,0,,,,,,,,,0,,,98,83
241680,set_tempo,4,1,0,,,,,,728155,,,,,,,
241680,note_on,0,0,0,,,,,,,,,0,,,88,83
241736,note_on,0,0,0,,,,,,,,,0,,,98,0
241736,note_on,56,0,0,,,,,,,,,0,,,88,0
241740,note_on,0,0,0,,,,,,,,,0,,,93,83
241740,set_tempo,4,1,0,,,,,,729927,,,,,,,
241740,note_on,0,0,0,,,,,,,,,0,,,91,83
241796,note_on,56,0,0,,,,,,,,,0,,,91,0
241796,note_on,0,0,0,,,,,,,,,0,,,93,0
241800,set_tempo,4,1,0,,,,,,731707,,,,,,,
241800,note_on,0,0,0,,,,,,,,,0,,,97,83
241800,note_on,0,0,0,,,,,,,,,0,,,88,83
241856,note_on,0,0,0,,,,,,,,,0,,,97,0
241856,note_on,56,0,0,,,,,,,,,0,,,88,0
241860,set_tempo,4,1,0,,,,,,733496,,,,,,,
241860,note_on,0,0,0,,,,,,,,,0,,,94,83
241860,note_on,0,0,0,,,,,,,,,0,,,91,83
241916,note_on,0,0,0,,,,,,,,,0,,,94,0
241916,note_on,56,0,0,,,,,,,,,0,,,91,0
241920,set_tempo,4,1,0,,,,,,735294,,,,,,,
241920,note_on,0,0,0,,,,,,,,,0,,,87,83
241920,note_on,0,0,0,,,,,,,,,0,,,97,83
241976,note_on,0,0,0,,,,,,,,,0,,,97,0
241976,note_on,56,0,0,,,,,,,,,0,,,87,0
241980,note_on,0,0,0,,,,,,,,,0,,,92,83
241980,note_on,0,0,0,,,,,,,,,0,,,90,83
241980,set_tempo,4,1,0,,,,,,737101,,,,,,,
242036,note_on,0,0,0,,,,,,,,,0,,,92,0
242036,note_on,56,0,0,,,,,,,,,0,,,90,0
242040,note_on,0,0,0,,,,,,,,,0,,,87,83
242040,note_on,0,0,0,,,,,,,,,0,,,96,83
242040,set_tempo,4,1,0,,,,,,738916,,,,,,,
242096,note_on,0,0,0,,,,,,,,,0,,,96,0
242096,note_on,56,0,0,,,,,,,,,0,,,87,0
242100,set_tempo,4,1,0,,,,,,740741,,,,,,,
242100,note_on,0,0,0,,,,,,,,,0,,,93,83
242100,note_on,0,0,0,,,,,,,,,0,,,90,83
242156,note_on,56,0,0,,,,,,,,,0,,,90,0
242156,note_on,0,0,0,,,,,,,,,0,,,93,0
242160,note_on,0,0,0,,,,,,,,,0,,,86,83
242160,note_on,0,0,0,,,,,,,,,0,,,96,83
242160,set_tempo,4,1,0,,,,,,743494,,,,,,,
242216,note_on,56,0,0,,,,,,,,,0,,,86,0
242216,note_on,0,0,0,,,,,,,,,0,,,96,0
242220,note_on,0,0,0,,,,,,,,,0,,,91,83
242220,note_on,0,0,0,,,,,,,,,0,,,89,83
242220,set_tempo,4,1,0,,,,,,745342,,,,,,,
242276,note_on,0,0,0,,,,,,,,,0,,,91,0
242276,note_on,56,0,0,,,,,,,,,0,,,89,0
242280,set_tempo,4,1,0,,,,,,747198,,,,,,,
242280,note_on,0,0,0,,,,,,,,,0,,,86,83
242280,note_on,0,0,0,,,,,,,,,0,,,95,83
242336,note_on,0,0,0,,,,,,,,,0,,,95,0
242336,note_on,56,0,0,,,,,,,,,0,,,86,0
242340,note_on,0,0,0,,,,,,,,,0,,,92,83
242340,note_on,0,0,0,,,,,,,,,0,,,89,83
242340,set_tempo,4,1,0,,,,,,749064,,,,,,,
242396,note_on,56,0,0,,,,,,,,,0,,,89,0
242396,note_on,0,0,0,,,,,,,,,0,,,92,0
242400,note_on,0,0,0,,,,,,,,,0,,,95,83
242400,note_on,0,0,0,,,,,,,,,0,,,85,83
242400,set_tempo,4,1,0,,,,,,750939,,,,,,,
242456,note_on,56,0,0,,,,,,,,,0,,,85,0
242456,note_on,0,0,0,,,,,,,,,0,,,95,0
242460,note_on,0,0,0,,,,,,,,,0,,,90,83
242460,note_on,0,0,0,,,,,,,,,0,,,88,83
242460,set_tempo,4,1,0,,,,,,752823,,,,,,,
242516,note_on,0,0,0,,,,,,,,,0,,,90,0
242516,note_on,56,0,0,,,,,,,,,0,,,88,0
242520,set_tempo,4,1,0,,,,,,754717,,,,,,,
242520,note_on,0,0,0,,,,,,,,,0,,,85,83
242520,note_on,0,0,0,,,,,,,,,0,,,94,83
242576,note_on,0,0,0,,,,,,,,,0,,,94,0
242576,note_on,56,0,0,,,,,,,,,0,,,85,0
242580,set_tempo,4,1,0,,,,,,756620,,,,,,,
242580,note_on,0,0,0,,,,,,,,,0,,,91,83
242580,note_on,0,0,0,,,,,,,,,0,,,88,83
242636,note_on,0,0,0,,,,,,,,,0,,,91,0
242636,note_on,56,0,0,,,,,,,,,0,,,88,0
242640,set_tempo,4,1,0,,,,,,759494,,,,,,,
242640,note_on,0,0,0,,,,,,,,,0,,,94,83
242640,note_on,0,0,0,,,,,,,,,0,,,84,83
242696,note_on,56,0,0,,,,,,,,,0,,,84,0
242696,note_on,0,0,0,,,,,,,,,0,,,94,0
242700,set_tempo,4,1,0,,,,,,761421,,,,,,,
242700,note_on,0,0,0,,,,,,,,,0,,,89,83
242700,note_on,0,0,0,,,,,,,,,0,,,87,83
242756,note_on,0,0,0,,,,,,,,,0,,,89,0
242756,note_on,56,0,0,,,,,,,,,0,,,87,0
242760,set_tempo,4,1,0,,,,,,763359,,,,,,,
242760,note_on,0,0,0,,,,,,,,,0,,,93,83
242760,note_on,0,0,0,,,,,,,,,0,,,84,83
242816,note_on,0,0,0,,,,,,,,,0,,,93,0
242816,note_on,56,0,0,,,,,,,,,0,,,84,0
242820,note_on,0,0,0,,,,,,,,,0,,,87,83
242820,set_tempo,4,1,0,,,,,,765306,,,,,,,
242820,note_on,0,0,0,,,,,,,,,0,,,90,83
242876,note_on,0,0,0,,,,,,,,,0,,,90,0
242876,note_on,56,0,0,,,,,,,,,0,,,87,0
242880,note_on,0,0,0,,,,,,,,,0,,,83,83
242880,note_on,0,0,0,,,,,,,,,0,,,93,83
242880,set_tempo,4,1,0,,,,,,767263,,,,,,,
242936,note_on,56,0,0,,,,,,,,,0,,,83,0
242936,note_on,0,0,0,,,,,,,,,0,,,93,0
242940,note_on,0,0,0,,,,,,,,,0,,,86,83
242940,note_on,0,0,0,,,,,,,,,0,,,88,83
242940,set_tempo,4,1,0,,,,,,769231,,,,,,,
242996,note_on,0,0,0,,,,,,,,,0,,,88,0
242996,note_on,56,0,0,,,,,,,,,0,,,86,0
243000,note_on,0,0,0,,,,,,,,,0,,,83,83
243000,note_on,0,0,0,,,,,,,,,0,,,92,83
243000,set_tempo,4,1,0,,,,,,771208,,,,,,,
243056,note_on,56,0,0,,,,,,,,,0,,,83,0
243056,note_on,0,0,0,,,,,,,,,0,,,92,0
243060,note_on,0,0,0,,,,,,,,,0,,,89,83
243060,note_on,0,0,0,,,,,,,,,0,,,84,83
243060,set_tempo,4,1,0,,,,,,773196,,,,,,,
243116,note_on,0,0,0,,,,,,,,,0,,,89,0
243116,note_on,56,0,0,,,,,,,,,0,,,84,0
243120,note_on,0,0,0,,,,,,,,,0,,,92,83
243120,note_on,0,0,0,,,,,,,,,0,,,82,83
243120,set_tempo,4,1,0,,,,,,776197,,,,,,,
243176,note_on,0,0,0,,,,,,,,,0,,,92,0
243176,note_on,56,0,0,,,,,,,,,0,,,82,0
243180,note_on,0,0,0,,,,,,,,,0,,,87,83
243180,note_on,0,0,0,,,,,,,,,0,,,85,83
243180,set_tempo,4,1,0,,,,,,778210,,,,,,,
243236,note_on,0,0,0,,,,,,,,,0,,,87,0
243236,note_on,56,0,0,,,,,,,,,0,,,85,0
243240,note_on,0,0,0,,,,,,,,,0,,,91,83
243240,set_tempo,4,1,0,,,,,,780234,,,,,,,
243240,note_on,0,0,0,,,,,,,,,0,,,82,83
243296,note_on,0,0,0,,,,,,,,,0,,,91,0
243296,note_on,56,0,0,,,,,,,,,0,,,82,0
243300,set_tempo,4,1,0,,,,,,782269,,,,,,,
243300,note_on,0,0,0,,,,,,,,,0,,,88,83
243300,note_on,0,0,0,,,,,,,,,0,,,85,83
243356,note_on,0,0,0,,,,,,,,,0,,,88,0
243356,note_on,56,0,0,,,,,,,,,0,,,85,0
243360,note_on,0,0,0,,,,,,,,,0,,,81,83
243360,note_on,0,0,0,,,,,,,,,0,,,91,83
243360,set_tempo,4,1,0,,,,,,784314,,,,,,,
243416,note_on,0,0,0,,,,,,,,,0,,,91,0
243416,note_on,56,0,0,,,,,,,,,0,,,81,0
243420,note_on,0,0,0,,,,,,,,,0,,,86,83
243420,note_on,0,0,0,,,,,,,,,0,,,84,83
243420,set_tempo,4,1,0,,,,,,786370,,,,,,,
243476,note_on,56,0,0,,,,,,,,,0,,,84,0
243476,note_on,0,0,0,,,,,,,,,0,,,86,0
243480,note_on,0,0,0,,,,,,,,,0,,,90,83
243480,note_on,0,0,0,,,,,,,,,0,,,81,83
243480,set_tempo,4,1,0,,,,,,788436,,,,,,,
243536,note_on,0,0,0,,,,,,,,,0,,,90,0
243536,note_on,56,0,0,,,,,,,,,0,,,81,0
243540,set_tempo,4,1,0,,,,,,790514,,,,,,,
243540,note_on,0,0,0,,,,,,,,,0,,,87,83
243540,note_on,0,0,0,,,,,,,,,0,,,84,83
243596,note_on,0,0,0,,,,,,,,,0,,,87,0
243596,note_on,56,0,0,,,,,,,,,0,,,84,0
243600,set_tempo,4,1,0,,,,,,793651,,,,,,,
243600,note_on,0,0,0,,,,,,,,,0,,,80,83
243600,note_on,0,0,0,,,,,,,,,0,,,90,83
243656,note_on,0,0,0,,,,,,,,,0,,,90,0
243656,note_on,56,0,0,,,,,,,,,0,,,80,0
243660,note_on,0,0,0,,,,,,,,,0,,,83,83
243660,note_on,0,0,0,,,,,,,,,0,,,85,83
243660,set_tempo,4,1,0,,,,,,795756,,,,,,,
243716,note_on,0,0,0,,,,,,,,,0,,,85,0
243716,note_on,56,0,0,,,,,,,,,0,,,83,0
243720,set_tempo,4,1,0,,,,,,797872,,,,,,,
243720,note_on,0,0,0,,,,,,,,,0,,,89,83
243720,note_on,0,0,0,,,,,,,,,0,,,80,83
243776,note_on,56,0,0,,,,,,,,,0,,,80,0
243776,note_on,0,0,0,,,,,,,,,0,,,89,0
243780,note_on,0,0,0,,,,,,,,,0,,,86,83
243780,set_tempo,4,1,0,,,,,,800000,,,,,,,
243780,note_on,0,0,0,,,,,,,,,0,,,83,83
243836,note_on,0,0,0,,,,,,,,,0,,,86,0
243836,note_on,56,0,0,,,,,,,,,0,,,83,0
243840,note_on,0,0,0,,,,,,,,,0,,,89,83
243840,note_on,4,0,0,,,,,,,,,0,,,79,83
243896,note_on,0,0,0,,,,,,,,,0,,,89,0
243896,note_on,56,0,0,,,,,,,,,0,,,79,0
243900,note_on,4,0,0,,,,,,,,,0,,,82,83
243900,note_on,0,0,0,,,,,,,,,0,,,84,83
243956,note_on,56,0,0,,,,,,,,,0,,,82,0
243956,note_on,0,0,0,,,,,,,,,0,,,84,0
243960,note_on,0,0,0,,,,,,,,,0,,,88,83
243960,note_on,4,0,0,,,,,,,,,0,,,79,83
244016,note_on,56,0,0,,,,,,,,,0,,,79,0
244016,note_on,0,0,0,,,,,,,,,0,,,88,0
244020,note_on,4,0,0,,,,,,,,,0,,,82,83
244020,note_on,0,0,0,,,,,,,,,0,,,85,83
244076,note_on,0,0,0,,,,,,,,,0,,,85,0
244076,note_on,56,0,0,,,,,,,,,0,,,82,0
244080,note_on,0,0,0,,,,,,,,,0,,,88,83
244080,note_on,0,0,0,,,,,,,,,0,,,78,83
244080,set_tempo,4,1,0,,,,,,800000,,,,,,,
244136,note_on,0,0,0,,,,,,,,,0,,,88,0
244136,note_on,56,0,0,,,,,,,,,0,,,78,0
244140,note_on,0,0,0,,,,,,,,,0,,,83,83
244140,set_tempo,4,1,0,,,,,,796813,,,,,,,
244140,note_on,0,0,0,,,,,,,,,0,,,81,83
244196,note_on,56,0,0,,,,,,,,,0,,,81,0
244196,note_on,0,0,0,,,,,,,,,0,,,83,0
244200,set_tempo,4,1,0,,,,,,793651,,,,,,,
244200,note_on,0,0,0,,,,,,,,,0,,,87,83
244200,note_on,0,0,0,,,,,,,,,0,,,78,83
244256,note_on,0,0,0,,,,,,,,,0,,,87,0
244256,note_on,56,0,0,,,,,,,,,0,,,78,0
244260,note_on,0,0,0,,,,,,,,,0,,,81,83
244260,set_tempo,4,1,0,,,,,,790514,,,,,,,
244260,note_on,0,0,0,,,,,,,,,0,,,84,83
244316,note_on,0,0,0,,,,,,,,,0,,,84,0
244316,note_on,56,0,0,,,,,,,,,0,,,81,0
244320,note_on,0,0,0,,,,,,,,,0,,,77,83
244320,note_on,0,0,0,,,,,,,,,0,,,87,83
244320,set_tempo,4,1,0,,,,,,787402,,,,,,,
244376,note_on,0,0,0,,,,,,,,,0,,,87,0
244376,note_on,56,0,0,,,,,,,,,0,,,77,0
244380,set_tempo,4,1,0,,,,,,784314,,,,,,,
244380,note_on,0,0,0,,,,,,,,,0,,,82,83
244380,note_on,0,0,0,,,,,,,,,0,,,80,83
244436,note_on,0,0,0,,,,,,,,,0,,,82,0
244436,note_on,56,0,0,,,,,,,,,0,,,80,0
244440,set_tempo,4,1,0,,,,,,781250,,,,,,,
244440,note_on,0,0,0,,,,,,,,,0,,,77,83
244440,note_on,0,0,0,,,,,,,,,0,,,86,83
244496,note_on,0,0,0,,,,,,,,,0,,,86,0
244496,note_on,56,0,0,,,,,,,,,0,,,77,0
244500,set_tempo,4,1,0,,,,,,778210,,,,,,,
244500,note_on,0,0,0,,,,,,,,,0,,,83,83
244500,note_on,0,0,0,,,,,,,,,0,,,80,83
244556,note_on,56,0,0,,,,,,,,,0,,,80,0
244556,note_on,0,0,0,,,,,,,,,0,,,83,0
244560,set_tempo,4,1,0,,,,,,775194,,,,,,,
244560,note_on,0,0,0,,,,,,,,,0,,,76,83
244560,note_on,0,0,0,,,,,,,,,0,,,86,83
244616,note_on,0,0,0,,,,,,,,,0,,,86,0
244616,note_on,56,0,0,,,,,,,,,0,,,76,0
244620,note_on,0,0,0,,,,,,,,,0,,,79,83
244620,set_tempo,4,1,0,,,,,,773196,,,,,,,
244620,note_on,0,0,0,,,,,,,,,0,,,81,83
244676,note_on,0,0,0,,,,,,,,,0,,,81,0
244676,note_on,56,0,0,,,,,,,,,0,,,79,0
244680,note_on,0,0,0,,,,,,,,,0,,,85,83
244680,note_on,0,0,0,,,,,,,,,0,,,76,83
244680,set_tempo,4,1,0,,,,,,770218,,,,,,,
244736,note_on,56,0,0,,,,,,,,,0,,,76,0
244736,note_on,0,0,0,,,,,,,,,0,,,85,0
244740,note_on,0,0,0,,,,,,,,,0,,,79,83
244740,note_on,0,0,0,,,,,,,,,0,,,82,83
244740,set_tempo,4,1,0,,,,,,767263,,,,,,,
244796,note_on,56,0,0,,,,,,,,,0,,,79,0
244796,note_on,0,0,0,,,,,,,,,0,,,82,0
244800,note_on,0,0,0,,,,,,,,,0,,,85,83
244800,note_on,0,0,0,,,,,,,,,0,,,75,83
244800,set_tempo,4,1,0,,,,,,764331,,,,,,,
244856,note_on,56,0,0,,,,,,,,,0,,,75,0
244856,note_on,0,0,0,,,,,,,,,0,,,85,0
244860,note_on,0,0,0,,,,,,,,,0,,,80,83
244860,note_on,0,0,0,,,,,,,,,0,,,78,83
244860,set_tempo,4,1,0,,,,,,761421,,,,,,,
244916,note_on,56,0,0,,,,,,,,,0,,,78,0
244916,note_on,0,0,0,,,,,,,,,0,,,80,0
244920,note_on,0,0,0,,,,,,,,,0,,,75,83
244920,set_tempo,4,1,0,,,,,,758534,,,,,,,
244920,note_on,0,0,0,,,,,,,,,0,,,84,83
244976,note_on,0,0,0,,,,,,,,,0,,,84,0
244976,note_on,56,0,0,,,,,,,,,0,,,75,0
244980,note_on,0,0,0,,,,,,,,,0,,,81,83
244980,note_on,0,0,0,,,,,,,,,0,,,78,83
244980,set_tempo,4,1,0,,,,,,755668,,,,,,,
245036,note_on,56,0,0,,,,,,,,,0,,,78,0
245036,note_on,0,0,0,,,,,,,,,0,,,81,0
245040,set_tempo,4,1,0,,,,,,752823,,,,,,,
245040,note_on,0,0,0,,,,,,,,,0,,,74,83
245040,note_on,0,0,0,,,,,,,,,0,,,84,83
245096,note_on,0,0,0,,,,,,,,,0,,,84,0
245096,note_on,56,0,0,,,,,,,,,0,,,74,0
245100,note_on,0,0,0,,,,,,,,,0,,,77,83
245100,note_on,0,0,0,,,,,,,,,0,,,79,83
245100,set_tempo,4,1,0,,,,,,750000,,,,,,,
245156,note_on,0,0,0,,,,,,,,,0,,,79,0
245156,note_on,56,0,0,,,,,,,,,0,,,77,0
245160,note_on,0,0,0,,,,,,,,,0,,,83,83
245160,note_on,4,0,0,,,,,,,,,0,,,74,83
245216,note_on,0,0,0,,,,,,,,,0,,,83,0
245216,note_on,56,0,0,,,,,,,,,0,,,74,0
245220,note_on,0,0,0,,,,,,,,,0,,,80,83
245220,note_on,4,0,0,,,,,,,,,0,,,77,83
245276,note_on,0,0,0,,,,,,,,,0,,,80,0
245276,note_on,56,0,0,,,,,,,,,0,,,77,0
245280,note_on,4,0,0,,,,,,,,,0,,,73,83
245280,note_on,0,0,0,,,,,,,,,0,,,83,83
245336,note_on,0,0,0,,,,,,,,,0,,,83,0
245336,note_on,56,0,0,,,,,,,,,0,,,73,0
245340,note_on,0,0,0,,,,,,,,,0,,,78,83
245340,note_on,4,0,0,,,,,,,,,0,,,76,83
245396,note_on,0,0,0,,,,,,,,,0,,,78,0
245396,note_on,56,0,0,,,,,,,,,0,,,76,0
245400,note_on,4,0,0,,,,,,,,,0,,,73,83
245400,note_on,0,0,0,,,,,,,,,0,,,82,83
245456,note_on,0,0,0,,,,,,,,,0,,,82,0
245456,note_on,56,0,0,,,,,,,,,0,,,73,0
245460,note_on,0,0,0,,,,,,,,,0,,,79,83
245460,note_on,4,0,0,,,,,,,,,0,,,76,83
245516,note_on,0,0,0,,,,,,,,,0,,,79,0
245516,note_on,56,0,0,,,,,,,,,0,,,76,0
245520,note_on,0,0,0,,,,,,,,,0,,,82,83
245520,note_on,4,0,0,,,,,,,,,0,,,72,83
245576,note_on,0,0,0,,,,,,,,,0,,,82,0
245576,note_on,56,0,0,,,,,,,,,0,,,72,0
245580,note_on,4,0,0,,,,,,,,,0,,,75,83
245580,note_on,0,0,0,,,,,,,,,0,,,77,83
245636,note_on,56,0,0,,,,,,,,,0,,,75,0
245636,note_on,0,0,0,,,,,,,,,0,,,77,0
245640,note_on,0,0,0,,,,,,,,,0,,,81,83
245640,note_on,4,0,0,,,,,,,,,0,,,72,83
245696,note_on,56,0,0,,,,,,,,,0,,,72,0
245696,note_on,0,0,0,,,,,,,,,0,,,81,0
245700,note_on,0,0,0,,,,,,,,,0,,,78,83
245700,note_on,4,0,0,,,,,,,,,0,,,75,83
245756,note_on,0,0,0,,,,,,,,,0,,,78,0
245756,note_on,56,0,0,,,,,,,,,0,,,75,0
245760,note_on,4,0,0,,,,,,,,,0,,,71,83
245760,note_on,0,0,0,,,,,,,,,0,,,81,83
245816,note_on,0,0,0,,,,,,,,,0,,,81,0
245816,note_on,56,0,0,,,,,,,,,0,,,71,0
245820,note_on,0,0,0,,,,,,,,,0,,,76,83
245820,note_on,4,0,0,,,,,,,,,0,,,74,83
245876,note_on,0,0,0,,,,,,,,,0,,,76,0
245876,note_on,56,0,0,,,,,,,,,0,,,74,0
245880,note_on,0,0,0,,,,,,,,,0,,,80,83
245880,note_on,4,0,0,,,,,,,,,0,,,71,83
245936,note_on,56,0,0,,,,,,,,,0,,,71,0
245936,note_on,0,0,0,,,,,,,,,0,,,80,0
245940,note_on,0,0,0,,,,,,,,,0,,,77,83
245940,note_on,4,0,0,,,,,,,,,0,,,74,83
245996,note_on,0,0,0,,,,,,,,,0,,,77,0
245996,note_on,56,0,0,,,,,,,,,0,,,74,0
246000,note_on,0,0,0,,,,,,,,,0,,,80,83
246000,note_on,4,0,0,,,,,,,,,0,,,70,83
246056,note_on,0,0,0,,,,,,,,,0,,,80,0
246056,note_on,56,0,0,,,,,,,,,0,,,70,0
246060,note_on,4,0,0,,,,,,,,,0,,,71,83
246060,note_on,0,0,0,,,,,,,,,0,,,73,83
246116,note_on,0,0,0,,,,,,,,,0,,,73,0
246116,note_on,56,0,0,,,,,,,,,0,,,71,0
246120,note_on,4,0,0,,,,,,,,,0,,,70,83
246120,note_on,0,0,0,,,,,,,,,0,,,79,83
246176,note_on,0,0,0,,,,,,,,,0,,,79,0
246176,note_on,56,0,0,,,,,,,,,0,,,70,0
246180,note_on,4,0,0,,,,,,,,,0,,,73,83
246180,note_on,0,0,0,,,,,,,,,0,,,76,83
246236,note_on,0,0,0,,,,,,,,,0,,,76,0
246236,note_on,56,0,0,,,,,,,,,0,,,73,0
246240,note_on,0,0,0,,,,,,,,,0,,,79,83
246240,note_on,4,0,0,,,,,,,,,0,,,69,83
246296,note_on,0,0,0,,,,,,,,,0,,,79,0
246296,note_on,56,0,0,,,,,,,,,0,,,69,0
246300,note_on,0,0,0,,,,,,,,,0,,,74,83
246300,note_on,4,0,0,,,,,,,,,0,,,71,83
246356,note_on,0,0,0,,,,,,,,,0,,,74,0
246356,note_on,56,0,0,,,,,,,,,0,,,71,0
246360,note_on,0,0,0,,,,,,,,,0,,,78,83
246360,note_on,4,0,0,,,,,,,,,0,,,69,83
246416,note_on,0,0,0,,,,,,,,,0,,,78,0
246416,note_on,56,0,0,,,,,,,,,0,,,69,0
246420,note_on,4,0,0,,,,,,,,,0,,,71,83
246420,note_on,0,0,0,,,,,,,,,0,,,75,83
246476,note_on,0,0,0,,,,,,,,,0,,,75,0
246476,note_on,56,0,0,,,,,,,,,0,,,71,0
246480,note_on,4,0,0,,,,,,,,,0,,,68,83
246480,note_on,0,0,0,,,,,,,,,0,,,78,83
246536,note_on,56,0,0,,,,,,,,,0,,,68,0
246536,note_on,0,0,0,,,,,,,,,0,,,78,0
246540,note_on,0,0,0,,,,,,,,,0,,,70,83
246540,set_tempo,4,1,0,,,,,,740741,,,,,,,
246540,note_on,0,0,0,,,,,,,,,0,,,73,83
246596,note_on,56,0,0,,,,,,,,,0,,,70,0
246596,note_on,0,0,0,,,,,,,,,0,,,73,0
246600,note_on,0,0,0,,,,,,,,,0,,,68,83
246600,note_on,0,0,0,,,,,,,,,0,,,77,83
246600,set_tempo,4,1,0,,,,,,736196,,,,,,,
246656,note_on,0,0,0,,,,,,,,,0,,,77,0
246656,note_on,56,0,0,,,,,,,,,0,,,68,0
246660,note_on,0,0,0,,,,,,,,,0,,,74,83
246660,note_on,0,0,0,,,,,,,,,0,,,71,83
246660,set_tempo,4,1,0,,,,,,731707,,,,,,,
246716,note_on,0,0,0,,,,,,,,,0,,,74,0
246716,note_on,56,0,0,,,,,,,,,0,,,71,0
246720,note_on,0,0,0,,,,,,,,,0,,,67,83
246720,note_on,0,0,0,,,,,,,,,0,,,77,83
246720,set_tempo,4,1,0,,,,,,727273,,,,,,,
246776,note_on,56,0,0,,,,,,,,,0,,,67,0
246776,note_on,0,0,0,,,,,,,,,0,,,77,0
246780,set_tempo,4,1,0,,,,,,722892,,,,,,,
246780,note_on,0,0,0,,,,,,,,,0,,,72,83
246780,note_on,0,0,0,,,,,,,,,0,,,70,83
246836,note_on,0,0,0,,,,,,,,,0,,,72,0
246836,note_on,56,0,0,,,,,,,,,0,,,70,0
246840,set_tempo,4,1,0,,,,,,718563,,,,,,,
246840,note_on,0,0,0,,,,,,,,,0,,,68,83
246840,note_on,0,0,0,,,,,,,,,0,,,76,83
246896,note_on,0,0,0,,,,,,,,,0,,,76,0
246896,note_on,56,0,0,,,,,,,,,0,,,68,0
246900,note_on,0,0,0,,,,,,,,,0,,,73,83
246900,note_on,0,0,0,,,,,,,,,0,,,70,83
246900,set_tempo,4,1,0,,,,,,714286,,,,,,,
246956,note_on,56,0,0,,,,,,,,,0,,,70,0
246956,note_on,0,0,0,,,,,,,,,0,,,73,0
246960,note_on,0,0,0,,,,,,,,,0,,,77,83
246960,note_on,0,0,0,,,,,,,,,0,,,67,83
246960,set_tempo,4,1,0,,,,,,710059,,,,,,,
247016,note_on,56,0,0,,,,,,,,,0,,,67,0
247016,note_on,0,0,0,,,,,,,,,0,,,77,0
247020,note_on,0,0,0,,,,,,,,,0,,,70,83
247020,note_on,0,0,0,,,,,,,,,0,,,72,83
247020,set_tempo,4,1,0,,,,,,705882,,,,,,,
247076,note_on,0,0,0,,,,,,,,,0,,,72,0
247076,note_on,56,0,0,,,,,,,,,0,,,70,0
247080,set_tempo,4,1,0,,,,,,701754,,,,,,,
247080,note_on,0,0,0,,,,,,,,,0,,,68,83
247080,note_on,0,0,0,,,,,,,,,0,,,76,83
247136,note_on,56,0,0,,,,,,,,,0,,,68,0
247136,note_on,0,0,0,,,,,,,,,0,,,76,0
247140,note_on,0,0,0,,,,,,,,,0,,,70,83
247140,set_tempo,4,1,0,,,,,,697674,,,,,,,
247140,note_on,0,0,0,,,,,,,,,0,,,73,83
247196,note_on,0,0,0,,,,,,,,,0,,,73,0
247196,note_on,56,0,0,,,,,,,,,0,,,70,0
247200,time_signature,4,1,0,11,8,24,8,,,,,,,,,
247200,set_tempo,0,1,0,,,,,,705882,,,,,,,
247200,note_on,0,0,0,,,,,,,,,0,,,67,83
247200,note_on,0,0,0,,,,,,,,,0,,,77,83
247256,note_on,56,0,0,,,,,,,,,0,,,67,0
247256,note_on,0,0,0,,,,,,,,,0,,,77,0
247260,note_on,4,0,0,,,,,,,,,0,,,70,83
247260,note_on,0,0,0,,,,,,,,,0,,,72,83
247316,note_on,0,0,0,,,,,,,,,0,,,72,0
247316,note_on,56,0,0,,,,,,,,,0,,,70,0
247320,note_on,0,0,0,,,,,,,,,0,,,68,84
247320,set_tempo,4,1,0,,,,,,705053,,,,,,,
247320,note_on,0,0,0,,,,,,,,,0,,,76,84
247376,note_on,0,0,0,,,,,,,,,0,,,76,0
247376,note_on,56,0,0,,,,,,,,,0,,,68,0
247380,note_on,0,0,0,,,,,,,,,0,,,70,85
247380,set_tempo,4,1,0,,,,,,703400,,,,,,,
247380,note_on,0,0,0,,,,,,,,,0,,,73,85
247436,note_on,56,0,0,,,,,,,,,0,,,70,0
247436,note_on,0,0,0,,,,,,,,,0,,,73,0
247440,set_tempo,4,1,0,,,,,,702576,,,,,,,
247440,note_on,0,0,0,,,,,,,,,0,,,67,86
247440,note_on,0,0,0,,,,,,,,,0,,,77,86
247496,note_on,0,0,0,,,,,,,,,0,,,77,0
247496,note_on,56,0,0,,,,,,,,,0,,,67,0
247500,note_on,0,0,0,,,,,,,,,0,,,70,87
247500,note_on,0,0,0,,,,,,,,,0,,,72,87
247500,set_tempo,4,1,0,,,,,,700117,,,,,,,
247556,note_on,56,0,0,,,,,,,,,0,,,70,0
247556,note_on,0,0,0,,,,,,,,,0,,,72,0
247560,note_on,0,0,0,,,,,,,,,0,,,68,88
247560,set_tempo,4,1,0,,,,,,697674,,,,,,,
247560,note_on,0,0,0,,,,,,,,,0,,,76,88
247616,note_on,0,0,0,,,,,,,,,0,,,76,0
247616,note_on,56,0,0,,,,,,,,,0,,,68,0
247620,note_on,0,0,0,,,,,,,,,0,,,70,89
247620,note_on,0,0,0,,,,,,,,,0,,,73,89
247620,set_tempo,4,1,0,,,,,,694444,,,,,,,
247676,note_on,56,0,0,,,,,,,,,0,,,70,0
247676,note_on,0,0,0,,,,,,,,,0,,,73,0
247680,set_tempo,4,1,0,,,,,,691244,,,,,,,
247680,note_on,0,0,0,,,,,,,,,0,,,67,90
247680,note_on,0,0,0,,,,,,,,,0,,,70,90
247680,note_on,0,0,0,,,,,,,,,0,,,77,90
247736,note_on,0,0,0,,,,,,,,,0,,,70,0
247736,note_on,56,0,0,,,,,,,,,0,,,67,0
247736,note_on,0,0,0,,,,,,,,,0,,,77,0
247740,set_tempo,4,1,0,,,,,,687285,,,,,,,
247740,note_on,0,0,0,,,,,,,,,0,,,72,90
247796,note_on,56,0,0,,,,,,,,,0,,,72,0
247800,set_tempo,4,1,0,,,,,,683371,,,,,,,
247800,note_on,0,0,0,,,,,,,,,0,,,76,90
247856,note_on,56,0,0,,,,,,,,,0,,,76,0
247860,set_tempo,4,1,0,,,,,,678733,,,,,,,
247860,note_on,0,0,0,,,,,,,,,0,,,72,90
247916,note_on,56,0,0,,,,,,,,,0,,,72,0
247920,set_tempo,4,1,0,,,,,,673401,,,,,,,
247920,note_on,0,0,0,,,,,,,,,0,,,77,90
247976,note_on,56,0,0,,,,,,,,,0,,,77,0
247980,set_tempo,4,1,0,,,,,,668151,,,,,,,
247980,note_on,0,0,0,,,,,,,,,0,,,72,90
248036,note_on,56,0,0,,,,,,,,,0,,,72,0
248040,note_on,0,0,0,,,,,,,,,0,,,76,90
248040,set_tempo,4,1,0,,,,,,662983,,,,,,,
248096,note_on,56,0,0,,,,,,,,,0,,,76,0
248100,note_on,0,0,0,,,,,,,,,0,,,73,90
248100,set_tempo,4,1,0,,,,,,656455,,,,,,,
248156,note_on,56,0,0,,,,,,,,,0,,,73,0
248160,note_on,0,0,0,,,,,,,,,0,,,77,89
248160,set_tempo,4,1,0,,,,,,650759,,,,,,,
248216,note_on,56,0,0,,,,,,,,,0,,,77,0
248220,note_on,4,0,0,,,,,,,,,0,,,73,89
248276,note_on,56,0,0,,,,,,,,,0,,,73,0
248280,note_on,4,0,0,,,,,,,,,0,,,76,89
248336,note_on,56,0,0,,,,,,,,,0,,,76,0
248340,note_on,4,0,0,,,,,,,,,0,,,74,89
248396,note_on,56,0,0,,,,,,,,,0,,,74,0
248400,note_on,4,0,0,,,,,,,,,0,,,77,89
248456,note_on,56,0,0,,,,,,,,,0,,,77,0
248460,note_on,4,0,0,,,,,,,,,0,,,73,89
248516,note_on,56,0,0,,,,,,,,,0,,,73,0
248520,note_on,4,0,0,,,,,,,,,0,,,76,89
248576,note_on,56,0,0,,,,,,,,,0,,,76,0
248580,note_on,4,0,0,,,,,,,,,0,,,74,88
248636,note_on,56,0,0,,,,,,,,,0,,,74,0
248640,note_on,4,0,0,,,,,,,,,0,,,77,88
248696,note_on,56,0,0,,,,,,,,,0,,,77,0
248700,note_on,4,0,0,,,,,,,,,0,,,74,88
248756,note_on,56,0,0,,,,,,,,,0,,,74,0
248760,note_on,4,0,0,,,,,,,,,0,,,76,88
248816,note_on,56,0,0,,,,,,,,,0,,,76,0
248820,note_on,4,0,0,,,,,,,,,0,,,75,88
248876,note_on,56,0,0,,,,,,,,,0,,,75,0
248880,set_tempo,4,1,0,,,,,,666667,,,,,,,
248880,note_on,0,0,0,,,,,,,,,0,,,77,88
248936,note_on,56,0,0,,,,,,,,,0,,,77,0
248940,set_tempo,4,1,0,,,,,,667408,,,,,,,
248940,note_on,0,0,0,,,,,,,,,0,,,74,88
248996,note_on,56,0,0,,,,,,,,,0,,,74,0
249000,note_on,0,0,0,,,,,,,,,0,,,76,87
249000,set_tempo,4,1,0,,,,,,668896,,,,,,,
249056,note_on,56,0,0,,,,,,,,,0,,,76,0
249060,set_tempo,4,1,0,,,,,,671141,,,,,,,
249060,note_on,0,0,0,,,,,,,,,0,,,75,87
249116,note_on,56,0,0,,,,,,,,,0,,,75,0
249120,set_tempo,4,1,0,,,,,,674916,,,,,,,
249120,note_on,0,0,0,,,,,,,,,0,,,77,87
249176,note_on,56,0,0,,,,,,,,,0,,,77,0
249180,set_tempo,4,1,0,,,,,,679502,,,,,,,
249180,note_on,0,0,0,,,,,,,,,0,,,76,87
249236,note_on,56,0,0,,,,,,,,,0,,,76,0
249240,set_tempo,4,1,0,,,,,,684932,,,,,,,
249240,note_on,0,0,0,,,,,,,,,0,,,77,87
249296,note_on,56,0,0,,,,,,,,,0,,,77,0
249300,note_on,0,0,0,,,,,,,,,0,,,75,87
249300,set_tempo,4,1,0,,,,,,691244,,,,,,,
249302,control_change,2,0,0,,,,,,,64,127,0,,,,
249356,note_on,54,0,0,,,,,,,,,0,,,75,0
249360,set_tempo,4,1,0,,,,,,699301,,,,,,,
249360,note_on,0,0,0,,,,,,,,,0,,,77,87
249416,note_on,56,0,0,,,,,,,,,0,,,77,0
249420,note_on,0,0,0,,,,,,,,,0,,,76,86
249420,set_tempo,4,1,0,,,,,,709220,,,,,,,
249476,note_on,56,0,0,,,,,,,,,0,,,76,0
249480,set_tempo,4,1,0,,,,,,719424,,,,,,,
249480,note_on,0,0,0,,,,,,,,,0,,,77,86
249536,note_on,56,0,0,,,,,,,,,0,,,77,0
249540,set_tempo,4,1,0,,,,,,731707,,,,,,,
249540,note_on,0,0,0,,,,,,,,,0,,,75,86
249596,note_on,56,0,0,,,,,,,,,0,,,75,0
249600,set_tempo,4,1,0,,,,,,746269,,,,,,,
249600,note_on,0,0,0,,,,,,,,,0,,,77,86
249656,note_on,56,0,0,,,,,,,,,0,,,77,0
249660,set_tempo,4,1,0,,,,,,762389,,,,,,,
249660,note_on,0,0,0,,,,,,,,,0,,,76,86
249716,note_on,56,0,0,,,,,,,,,0,,,76,0
249720,note_on,0,0,0,,,,,,,,,0,,,77,86
249720,set_tempo,4,1,0,,,,,,780234,,,,,,,
249776,note_on,56,0,0,,,,,,,,,0,,,77,0
249780,set_tempo,4,1,0,,,,,,800000,,,,,,,
249780,note_on,0,0,0,,,,,,,,,0,,,75,86
249836,note_on,56,0,0,,,,,,,,,0,,,75,0
249840,set_tempo,0,1,0,,,,,,666667,,,,,,,
249840,time_signature,4,1,0,5,4,24,8,,,,,,,,,
249840,note_on,0,0,0,,,,,,,,,0,,,77,85
249893,note_on,53,0,0,,,,,,,,,0,,,77,0
249899,note_on,6,0,0,,,,,,,,,0,,,75,85
249952,note_on,53,0,0,,,,,,,,,0,,,75,0
249959,note_on,7,0,0,,,,,,,,,0,,,77,85
250012,note_on,53,0,0,,,,,,,,,0,,,77,0
250020,note_on,8,0,0,,,,,,,,,0,,,75,84
250073,note_on,53,0,0,,,,,,,,,0,,,75,0
250079,note_on,6,0,0,,,,,,,,,0,,,77,84
250080,set_tempo,1,1,0,,,,,,668896,,,,,,,
250132,note_on,52,0,0,,,,,,,,,0,,,77,0
250139,note_on,7,0,0,,,,,,,,,0,,,75,84
250192,note_on,53,0,0,,,,,,,,,0,,,75,0
250200,note_on,8,0,0,,,,,,,,,0,,,77,83
250253,note_on,53,0,0,,,,,,,,,0,,,77,0
250259,note_on,6,0,0,,,,,,,,,0,,,75,83
250312,note_on,53,0,0,,,,,,,,,0,,,75,0
250319,note_on,7,0,0,,,,,,,,,0,,,77,83
250320,set_tempo,1,1,0,,,,,,683371,,,,,,,
250372,note_on,52,0,0,,,,,,,,,0,,,77,0
250380,note_on,8,0,0,,,,,,,,,0,,,75,82
250433,note_on,53,0,0,,,,,,,,,0,,,75,0
250439,note_on,6,0,0,,,,,,,,,0,,,77,82
250492,note_on,53,0,0,,,,,,,,,0,,,77,0
250499,note_on,7,0,0,,,,,,,,,0,,,75,81
250552,note_on,53,0,0,,,,,,,,,0,,,75,0
250560,note_on,0,0,0,,,,,,,,,0,,,77,81
250560,set_tempo,8,1,0,,,,,,723764,,,,,,,
250613,note_on,53,0,0,,,,,,,,,0,,,77,0
250619,note_on,6,0,0,,,,,,,,,0,,,75,81
250672,note_on,53,0,0,,,,,,,,,0,,,75,0
250679,note_on,7,0,0,,,,,,,,,0,,,77,80
250732,note_on,53,0,0,,,,,,,,,0,,,77,0
250740,note_on,8,0,0,,,,,,,,,0,,,75,80
250793,note_on,53,0,0,,,,,,,,,0,,,75,0
250799,note_on,6,0,0,,,,,,,,,0,,,77,80
250800,set_tempo,1,1,0,,,,,,809717,,,,,,,
250852,note_on,52,0,0,,,,,,,,,0,,,77,0
250859,note_on,7,0,0,,,,,,,,,0,,,75,79
250912,note_on,53,0,0,,,,,,,,,0,,,75,0
250920,note_on,0,0,0,,,,,,,,,0,,,77,79
250920,set_tempo,8,1,0,,,,,,1090909,,,,,,,
250973,note_on,53,0,0,,,,,,,,,0,,,77,0
250979,note_on,6,0,0,,,,,,,,,0,,,75,78
251032,note_on,53,0,0,,,,,,,,,0,,,75,0
251039,note_on,7,0,0,,,,,,,,,0,,,77,78
251092,note_on,53,0,0,,,,,,,,,0,,,77,0
251100,note_on,8,0,0,,,,,,,,,0,,,75,78
251153,note_on,53,0,0,,,,,,,,,0,,,75,0
251159,note_on,6,0,0,,,,,,,,,0,,,77,77
251270,note_on,111,0,0,,,,,,,,,0,,,77,0
251280,note_on,0,0,0,,,,,,,,,0,,,73,61
251280,set_tempo,10,1,0,,,,,,500000,,,,,,,
251507,note_on,227,0,0,,,,,,,,,0,,,73,0
251520,note_on,13,0,0,,,,,,,,,0,,,75,68
251747,note_on,227,0,0,,,,,,,,,0,,,75,0
251760,note_on,0,0,0,,,,,,,,,0,,,84,73
251760,set_tempo,13,1,0,,,,,,1275003,,,,,,,
251987,note_on,227,0,0,,,,,,,,,0,,,84,0
251999,set_tempo,12,1,0,,,,,,750002,,,,,,,
252000,note_on,0,0,0,,,,,,,,,0,,,79,72
252000,set_tempo,1,1,0,,,,,,1500004,,,,,,,
252227,note_on,227,0,0,,,,,,,,,0,,,79,0
252239,set_tempo,12,1,0,,,,,,750002,,,,,,,
252240,time_signature,1,1,0,6,4,24,8,,,,,,,,,
252240,set_tempo,0,1,0,,,,,,600000,,,,,,,
252240,key_signature,0,1,0,,,,,Ab,,,,,,,,
252240,key_signature,18973,1,1,,,,,Ab,,,,,,,,
252240,note_on,0,0,0,,,,,,,,,0,,,82,95
252240,note_on,0,0,1,,,,,,,,,0,,,32,70
252241,control_change,1,0,0,,,,,,,64,0,0,,,,
252242,control_change,2,0,1,,,,,,,64,127,0,,,,
252467,note_on,225,0,1,,,,,,,,,0,,,32,0
252480,note_on,13,0,1,,,,,,,,,0,,,44,70
252480,note_on,239,0,0,,,,,,,,,0,,,72,70
252480,note_on,0,0,1,,,,,,,,,0,,,51,70
252719,note_on,239,0,1,,,,,,,,,0,,,44,0
252719,note_on,0,0,1,,,,,,,,,0,,,51,0
252719,note_on,239,0,0,,,,,,,,,0,,,72,0
252720,note_on,1,0,0,,,,,,,,,0,,,63,70
252720,note_on,1,0,1,,,,,,,,,0,,,48,70
252720,note_on,0,0,1,,,,,,,,,0,,,56,70
252959,note_on,0,0,1,,,,,,,,,0,,,56,0
252959,note_on,239,0,0,,,,,,,,,0,,,82,0
252959,note_on,239,0,1,,,,,,,,,0,,,48,0
252959,note_on,0,0,0,,,,,,,,,0,,,63,0
252960,note_on,0,0,1,,,,,,,,,0,,,60,70
252960,note_on,1,0,1,,,,,,,,,0,,,51,70
252960,note_on,0,0,0,,,,,,,,,0,,,80,77
252960,note_on,1,0,0,,,,,,,,,0,,,68,70
253187,note_on,0,0,1,,,,,,,,,0,,,60,0
253187,note_on,227,0,1,,,,,,,,,0,,,51,0
253199,note_on,0,0,0,,,,,,,,,0,,,80,0
253199,note_on,239,0,0,,,,,,,,,0,,,68,0
253200,note_on,1,0,0,,,,,,,,,0,,,72,77
253439,note_on,239,0,0,,,,,,,,,0,,,72,0
253440,note_on,1,0,0,,,,,,,,,0,,,73,77
253667,note_on,227,0,0,,,,,,,,,0,,,73,0
253680,note_on,493,0,1,,,,,,,,,0,,,32,70
253680,note_on,13,0,0,,,,,,,,,0,,,77,105
253681,control_change,1,0,1,,,,,,,64,0,0,,,,
253682,control_change,1,0,1,,,,,,,64,127,0,,,,
253907,note_on,225,0,1,,,,,,,,,0,,,32,0
253920,note_on,0,0,1,,,,,,,,,0,,,51,70
253920,note_on,13,0,1,,,,,,,,,0,,,44,70
253920,note_on,240,0,0,,,,,,,,,0,,,60,70
254159,note_on,239,0,0,,,,,,,,,0,,,60,0
254159,note_on,239,0,1,,,,,,,,,0,,,44,0
254159,note_on,0,0,1,,,,,,,,,0,,,51,0
254160,note_on,1,0,0,,,,,,,,,0,,,63,70
254160,note_on,1,0,1,,,,,,,,,0,,,48,70
254160,note_on,0,0,1,,,,,,,,,0,,,56,70
254399,note_on,0,0,1,,,,,,,,,0,,,56,0
254399,note_on,0,0,0,,,,,,,,,0,,,63,0
254399,note_on,239,0,1,,,,,,,,,0,,,48,0
254399,note_on,239,0,0,,,,,,,,,0,,,77,0
254400,note_on,0,0,0,,,,,,,,,0,,,75,77
254400,note_on,1,0,1,,,,,,,,,0,,,51,70
254400,note_on,0,0,1,,,,,,,,,0,,,60,70
254400,note_on,1,0,0,,,,,,,,,0,,,68,70
254627,note_on,0,0,1,,,,,,,,,0,,,60,0
254627,note_on,227,0,1,,,,,,,,,0,,,51,0
254639,note_on,239,0,0,,,,,,,,,0,,,68,0
254639,note_on,0,0,0,,,,,,,,,0,,,75,0
254640,note_on,1,0,0,,,,,,,,,0,,,73,77
254879,note_on,239,0,0,,,,,,,,,0,,,73,0
254880,note_on,1,0,0,,,,,,,,,0,,,72,77
255107,note_on,227,0,0,,,,,,,,,0,,,72,0
255120,note_on,13,0,0,,,,,,,,,0,,,72,96
255120,note_on,493,0,1,,,,,,,,,0,,,32,70
255121,control_change,1,0,1,,,,,,,64,0,0,,,,
255122,control_change,1,0,1,,,,,,,64,127,0,,,,
255347,note_on,225,0,1,,,,,,,,,0,,,32,0
255360,note_on,240,0,0,,,,,,,,,0,,,65,70
255360,note_on,13,0,1,,,,,,,,,0,,,50,70
255360,note_on,0,0,1,,,,,,,,,0,,,58,70
255360,note_on,0,0,0,,,,,,,,,0,,,68,70
255599,note_on,239,0,0,,,,,,,,,0,,,65,0
255599,note_on,0,0,1,,,,,,,,,0,,,58,0
255599,note_on,0,0,0,,,,,,,,,0,,,68,0
255599,note_on,239,0,1,,,,,,,,,0,,,50,0
255600,note_on,0,0,1,,,,,,,,,0,,,62,70
255600,note_on,1,0,1,,,,,,,,,0,,,53,70
255600,note_on,1,0,0,,,,,,,,,0,,,58,70
255601,note_on,1,0,0,,,,,,,,,0,,,72,0
255839,note_on,238,0,0,,,,,,,,,0,,,58,0
255839,note_on,0,0,1,,,,,,,,,0,,,62,0
255839,note_on,239,0,1,,,,,,,,,0,,,53,0
255840,note_on,0,0,0,,,,,,,,,0,,,62,70
255840,note_on,1,0,0,,,,,,,,,0,,,70,77
255840,note_on,0,0,1,,,,,,,,,0,,,65,70
255840,note_on,1,0,1,,,,,,,,,0,,,56,70
256067,note_on,227,0,1,,,,,,,,,0,,,56,0
256067,note_on,0,0,0,,,,,,,,,0,,,62,0
256067,note_on,227,0,0,,,,,,,,,0,,,70,0
256067,note_on,0,0,1,,,,,,,,,0,,,65,0
256080,note_on,13,0,0,,,,,,,,,0,,,69,77
256307,note_on,227,0,0,,,,,,,,,0,,,69,0
256320,note_on,13,0,0,,,,,,,,,0,,,70,77
256547,note_on,227,0,0,,,,,,,,,0,,,70,0
256560,note_on,493,0,1,,,,,,,,,0,,,32,70
256560,note_on,13,0,0,,,,,,,,,0,,,69,70
256561,control_change,1,0,1,,,,,,,64,0,0,,,,
256562,control_change,1,0,1,,,,,,,64,127,0,,,,
256615,note_on,55,0,0,,,,,,,,,0,,,69,0
256619,note_on,4,0,0,,,,,,,,,0,,,70,70
256674,note_on,55,0,0,,,,,,,,,0,,,70,0
256679,note_on,5,0,0,,,,,,,,,0,,,72,70
256734,note_on,55,0,0,,,,,,,,,0,,,72,0
256740,note_on,6,0,0,,,,,,,,,0,,,70,70
256787,note_on,225,0,1,,,,,,,,,0,,,32,0
256795,note_on,55,0,0,,,,,,,,,0,,,70,0
256799,note_on,4,0,0,,,,,,,,,0,,,72,70
256800,note_on,1,0,0,,,,,,,,,0,,,65,70
256800,note_on,0,0,1,,,,,,,,,0,,,58,70
256800,note_on,0,0,0,,,,,,,,,0,,,68,70
256800,note_on,13,0,1,,,,,,,,,0,,,50,70
256854,note_on,54,0,0,,,,,,,,,0,,,72,0
256859,note_on,5,0,0,,,,,,,,,0,,,70,70
256914,note_on,55,0,0,,,,,,,,,0,,,70,0
256920,note_on,6,0,0,,,,,,,,,0,,,72,70
256975,note_on,55,0,0,,,,,,,,,0,,,72,0
256979,note_on,4,0,0,,,,,,,,,0,,,70,70
257034,note_on,55,0,0,,,,,,,,,0,,,70,0
257039,note_on,0,0,0,,,,,,,,,0,,,68,0
257039,note_on,0,0,0,,,,,,,,,0,,,65,0
257039,note_on,5,0,0,,,,,,,,,0,,,72,70
257039,note_on,239,0,1,,,,,,,,,0,,,50,0
257039,note_on,0,0,1,,,,,,,,,0,,,58,0
257040,note_on,1,0,1,,,,,,,,,0,,,53,70
257040,note_on,1,0,0,,,,,,,,,0,,,58,70
257040,note_on,0,0,1,,,,,,,,,0,,,62,70
257094,note_on,54,0,0,,,,,,,,,0,,,72,0
257100,note_on,6,0,0,,,,,,,,,0,,,70,70
257155,note_on,55,0,0,,,,,,,,,0,,,70,0
257159,note_on,4,0,0,,,,,,,,,0,,,72,70
257271,note_on,112,0,0,,,,,,,,,0,,,72,0
257279,note_on,0,0,1,,,,,,,,,0,,,62,0
257279,note_on,239,0,1,,,,,,,,,0,,,53,0
257279,note_on,8,0,0,,,,,,,,,0,,,58,0
257280,note_on,0,0,0,,,,,,,,,0,,,62,70
257280,note_on,1,0,1,,,,,,,,,0,,,56,70
257280,note_on,0,0,1,,,,,,,,,0,,,65,70
257280,note_on,1,0,0,,,,,,,,,0,,,69,70
257339,note_on,59,0,0,,,,,,,,,0,,,69,0
257340,note_on,1,0,0,,,,,,,,,0,,,70,70
257399,note_on,59,0,0,,,,,,,,,0,,,70,0
257400,note_on,1,0,0,,,,,,,,,0,,,73,70
257459,note_on,59,0,0,,,,,,,,,0,,,73,0
257460,note_on,1,0,0,,,,,,,,,0,,,74,70
257507,note_on,0,0,1,,,,,,,,,0,,,65,0
257507,note_on,227,0,1,,,,,,,,,0,,,56,0
257519,note_on,0,0,0,,,,,,,,,0,,,74,0
257519,note_on,59,0,0,,,,,,,,,0,,,62,0
257520,note_on,1,0,0,,,,,,,,,0,,,76,70
257579,note_on,59,0,0,,,,,,,,,0,,,76,0
257580,note_on,1,0,0,,,,,,,,,0,,,77,70
257639,note_on,59,0,0,,,,,,,,,0,,,77,0
257640,note_on,1,0,0,,,,,,,,,0,,,79,71
257699,note_on,59,0,0,,,,,,,,,0,,,79,0
257700,note_on,1,0,0,,,,,,,,,0,,,80,71
257759,note_on,59,0,0,,,,,,,,,0,,,80,0
257760,note_on,1,0,0,,,,,,,,,0,,,81,71
257819,note_on,59,0,0,,,,,,,,,0,,,81,0
257820,note_on,1,0,0,,,,,,,,,0,,,82,71
257879,note_on,59,0,0,,,,,,,,,0,,,82,0
257880,note_on,1,0,0,,,,,,,,,0,,,85,71
257939,note_on,59,0,0,,,,,,,,,0,,,85,0
257940,note_on,1,0,0,,,,,,,,,0,,,86,71
257996,note_on,56,0,0,,,,,,,,,0,,,86,0
258000,note_on,493,0,1,,,,,,,,,0,,,32,72
258000,note_on,4,0,0,,,,,,,,,0,,,89,94
258001,control_change,1,0,1,,,,,,,64,0,0,,,,
258002,control_change,1,0,1,,,,,,,64,127,0,,,,
258227,note_on,225,0,1,,,,,,,,,0,,,32,0
258240,note_on,0,0,1,,,,,,,,,0,,,61,72
258240,note_on,0,0,0,,,,,,,,,0,,,82,69
258240,note_on,13,0,1,,,,,,,,,0,,,51,72
258240,note_on,240,0,0,,,,,,,,,0,,,79,69
258479,note_on,0,0,1,,,,,,,,,0,,,61,0
258479,note_on,239,0,1,,,,,,,,,0,,,51,0
258479,note_on,0,0,0,,,,,,,,,0,,,82,0
258479,note_on,239,0,0,,,,,,,,,0,,,79,0
258480,note_on,1,0,1,,,,,,,,,0,,,55,72
258480,note_on,0,0,1,,,,,,,,,0,,,63,72
258480,note_on,1,0,0,,,,,,,,,0,,,75,69
258481,note_on,1,0,0,,,,,,,,,0,,,89,0
258719,note_on,239,0,1,,,,,,,,,0,,,55,0
258719,note_on,238,0,0,,,,,,,,,0,,,75,0
258719,note_on,0,0,1,,,,,,,,,0,,,63,0
258720,note_on,0,0,0,,,,,,,,,0,,,73,69
258720,note_on,1,0,1,,,,,,,,,0,,,58,72
258720,note_on,1,0,0,,,,,,,,,0,,,87,79
258720,note_on,0,0,1,,,,,,,,,0,,,67,72
258947,note_on,0,0,1,,,,,,,,,0,,,67,0
258947,note_on,227,0,1,,,,,,,,,0,,,58,0
258959,note_on,239,0,0,,,,,,,,,0,,,87,0
258959,note_on,0,0,0,,,,,,,,,0,,,73,0
258960,note_on,1,0,0,,,,,,,,,0,,,85,79
259199,note_on,239,0,0,,,,,,,,,0,,,85,0
259200,note_on,1,0,0,,,,,,,,,0,,,82,79
259427,note_on,227,0,0,,,,,,,,,0,,,82,0
259440,note_on,493,0,1,,,,,,,,,0,,,32,72
259440,note_on,13,0,0,,,,,,,,,0,,,77,79
259441,control_change,1,0,1,,,,,,,64,0,0,,,,
259442,control_change,1,0,1,,,,,,,64,127,0,,,,
259679,note_on,237,0,1,,,,,,,,,0,,,32,0
259680,note_on,0,0,0,,,,,,,,,0,,,70,69
259680,note_on,1,0,1,,,,,,,,,0,,,49,72
259680,note_on,0,0,1,,,,,,,,,0,,,51,72
259680,note_on,240,0,0,,,,,,,,,0,,,67,69
259919,note_on,239,0,1,,,,,,,,,0,,,49,0
259919,note_on,0,0,1,,,,,,,,,0,,,51,0
259919,note_on,239,0,0,,,,,,,,,0,,,67,0
259919,note_on,0,0,0,,,,,,,,,0,,,70,0
259920,note_on,1,0,1,,,,,,,,,0,,,55,72
259920,note_on,0,0,0,,,,,,,,,0,,,63,69
259920,note_on,1,0,0,,,,,,,,,0,,,61,69
259920,note_on,0,0,1,,,,,,,,,0,,,58,72
260159,note_on,239,0,0,,,,,,,,,0,,,77,0
260159,note_on,239,0,1,,,,,,,,,0,,,55,0
260159,note_on,0,0,0,,,,,,,,,0,,,63,0
260159,note_on,0,0,0,,,,,,,,,0,,,61,0
260159,note_on,0,0,1,,,,,,,,,0,,,58,0
260160,note_on,0,0,1,,,,,,,,,0,,,61,72
260160,note_on,1,0,1,,,,,,,,,0,,,51,72
260160,note_on,0,0,0,,,,,,,,,0,,,67,69
260160,note_on,1,0,0,,,,,,,,,0,,,75,79
260387,note_on,227,0,1,,,,,,,,,0,,,51,0
260387,note_on,0,0,1,,,,,,,,,0,,,61,0
260399,note_on,239,0,0,,,,,,,,,0,,,75,0
260399,note_on,0,0,0,,,,,,,,,0,,,67,0
260400,note_on,1,0,0,,,,,,,,,0,,,73,79
260639,note_on,239,0,0,,,,,,,,,0,,,73,0
260640,note_on,1,0,0,,,,,,,,,0,,,70,79
260867,note_on,227,0,0,,,,,,,,,0,,,70,0
260880,note_on,493,0,1,,,,,,,,,0,,,32,72
260880,note_on,13,0,0,,,,,,,,,0,,,67,82
260881,control_change,1,0,1,,,,,,,64,0,0,,,,
260882,control_change,1,0,1,,,,,,,64,127,0,,,,
261107,note_on,225,0,1,,,,,,,,,0,,,32,0
261119,note_on,239,0,0,,,,,,,,,0,,,67,0
261120,note_on,13,0,1,,,,,,,,,0,,,48,72
261120,note_on,0,0,1,,,,,,,,,0,,,51,72
261120,note_on,0,0,1,,,,,,,,,0,,,56,72
261120,note_on,1,0,0,,,,,,,,,0,,,60,72
261120,note_on,0,0,0,,,,,,,,,0,,,63,72
261120,note_on,0,0,0,,,,,,,,,0,,,68,72
261359,note_on,239,0,1,,,,,,,,,0,,,48,0
261359,note_on,239,0,0,,,,,,,,,0,,,60,0
261359,note_on,0,0,1,,,,,,,,,0,,,56,0
261359,note_on,0,0,1,,,,,,,,,0,,,51,0
261359,note_on,0,0,0,,,,,,,,,0,,,68,0
261359,note_on,0,0,0,,,,,,,,,0,,,63,0
261360,note_on,0,0,0,,,,,,,,,0,,,72,72
261360,note_on,0,0,0,,,,,,,,,0,,,68,72
261360,note_on,0,0,1,,,,,,,,,0,,,56,72
261360,note_on,1,0,0,,,,,,,,,0,,,63,72
261360,note_on,1,0,1,,,,,,,,,0,,,51,72
261360,note_on,0,0,1,,,,,,,,,0,,,60,72
261599,note_on,0,0,1,,,,,,,,,0,,,56,0
261599,note_on,239,0,1,,,,,,,,,0,,,51,0
261599,note_on,0,0,1,,,,,,,,,0,,,60,0
261599,note_on,0,0,0,,,,,,,,,0,,,72,0
261599,note_on,0,0,0,,,,,,,,,0,,,68,0
261599,note_on,239,0,0,,,,,,,,,0,,,63,0
261600,note_on,0,0,1,,,,,,,,,0,,,60,72
261600,note_on,1,0,1,,,,,,,,,0,,,56,72
261600,note_on,0,0,1,,,,,,,,,0,,,63,72
261600,note_on,0,0,0,,,,,,,,,0,,,72,72
261600,note_on,1,0,0,,,,,,,,,0,,,68,72
261600,note_on,0,0,0,,,,,,,,,0,,,75,72
261827,note_on,0,0,1,,,,,,,,,0,,,63,0
261827,note_on,0,0,1,,,,,,,,,0,,,60,0
261827,note_on,227,0,1,,,,,,,,,0,,,56,0
261839,note_on,0,0,0,,,,,,,,,0,,,75,0
261839,note_on,239,0,0,,,,,,,,,0,,,68,0
261839,note_on,0,0,0,,,,,,,,,0,,,72,0
261840,note_on,1,0,0,,,,,,,,,0,,,72,73
261840,note_on,0,0,0,,,,,,,,,0,,,75,73
261840,note_on,0,0,0,,,,,,,,,0,,,79,73
262031,note_on,191,0,0,,,,,,,,,0,,,72,0
262031,note_on,0,0,0,,,,,,,,,0,,,75,0
262031,note_on,0,0,0,,,,,,,,,0,,,79,0
262032,note_on,0,0,0,,,,,,,,,0,,,75,73
262032,note_on,0,0,0,,,,,,,,,0,,,80,73
262032,set_tempo,1,1,0,,,,,,750002,,,,,,,
262032,note_on,0,0,0,,,,,,,,,0,,,72,73
262127,note_on,0,0,0,,,,,,,,,0,,,80,0
262127,note_on,0,0,0,,,,,,,,,0,,,75,0
262127,note_on,95,0,0,,,,,,,,,0,,,72,0
262128,note_on,0,0,0,,,,,,,,,0,,,80,74
262128,note_on,0,0,0,,,,,,,,,0,,,84,74
262128,note_on,1,0,0,,,,,,,,,0,,,75,74
262223,note_on,95,0,0,,,,,,,,,0,,,75,0
262223,note_on,0,0,0,,,,,,,,,0,,,80,0
262223,note_on,0,0,0,,,,,,,,,0,,,84,0
262224,note_on,1,0,0,,,,,,,,,0,,,84,74
262224,note_on,0,0,0,,,,,,,,,0,,,87,74
262319,note_on,95,0,0,,,,,,,,,0,,,84,0
262319,note_on,0,0,0,,,,,,,,,0,,,87,0
262320,note_on,0,0,0,,,,,,,,,0,,,96,74
262320,note_on,493,0,1,,,,,,,,,0,,,32,74
262320,note_on,1,0,0,,,,,,,,,0,,,87,74
262321,control_change,1,0,1,,,,,,,64,0,0,,,,
262322,control_change,1,0,1,,,,,,,64,127,0,,,,
262433,note_on,113,0,0,,,,,,,,,0,,,87,0
262433,note_on,0,0,0,,,,,,,,,0,,,96,0
262440,note_on,7,0,0,,,,,,,,,0,,,84,75
262440,note_on,0,0,0,,,,,,,,,0,,,87,75
262440,note_on,0,0,0,,,,,,,,,0,,,92,75
262547,note_on,225,0,1,,,,,,,,,0,,,32,0
262560,note_on,13,0,1,,,,,,,,,0,,,48,75
262560,note_on,0,0,1,,,,,,,,,0,,,51,75
262560,note_on,0,0,1,,,,,,,,,0,,,56,75
262799,note_on,0,0,1,,,,,,,,,0,,,51,0
262799,note_on,0,0,1,,,,,,,,,0,,,56,0
262799,note_on,239,0,1,,,,,,,,,0,,,48,0
262800,note_on,1,0,1,,,,,,,,,0,,,51,75
262800,note_on,0,0,1,,,,,,,,,0,,,56,75
262800,note_on,0,0,1,,,,,,,,,0,,,60,75
262895,note_on,0,0,0,,,,,,,,,0,,,87,0
262895,note_on,0,0,0,,,,,,,,,0,,,92,0
262895,note_on,455,0,0,,,,,,,,,0,,,84,0
263039,note_on,0,0,1,,,,,,,,,0,,,56,0
263039,note_on,0,0,1,,,,,,,,,0,,,60,0
263039,note_on,239,0,1,,,,,,,,,0,,,51,0
263040,note_on,0,0,1,,,,,,,,,0,,,60,75
263040,note_on,1,0,1,,,,,,,,,0,,,56,75
263040,set_tempo,145,1,0,,,,,,1500004,,,,,,,
263040,note_on,0,0,1,,,,,,,,,0,,,63,75
263153,note_on,113,0,1,,,,,,,,,0,,,56,0
263153,note_on,0,0,1,,,,,,,,,0,,,60,0
263153,note_on,0,0,1,,,,,,,,,0,,,63,0
263159,set_tempo,119,1,0,,,,,,750002,,,,,,,
263160,set_tempo,1,1,0,,,,,,4500011,,,,,,,
263219,set_tempo,59,1,0,,,,,,750002,,,,,,,
263280,set_tempo,61,1,0,,,,,,1000000,,,,,,,
263280,note_on,0,0,0,,,,,,,,,0,,,75,75
263281,control_change,128,0,1,,,,,,,64,0,0,,,,
263282,control_change,1,0,1,,,,,,,64,127,0,,,,
263336,note_on,56,0,0,,,,,,,,,0,,,75,0
263340,note_on,4,0,0,,,,,,,,,0,,,75,75
263396,note_on,56,0,0,,,,,,,,,0,,,75,0
263400,note_on,4,0,0,,,,,,,,,0,,,77,75
263456,note_on,56,0,0,,,,,,,,,0,,,77,0
263460,note_on,0,0,0,,,,,,,,,0,,,75,75
263460,set_tempo,4,1,0,,,,,,800000,,,,,,,
263516,note_on,56,0,0,,,,,,,,,0,,,75,0
263520,note_on,4,0,0,,,,,,,,,0,,,74,75
263576,note_on,56,0,0,,,,,,,,,0,,,74,0
263580,note_on,4,0,0,,,,,,,,,0,,,75,75
263636,note_on,56,0,0,,,,,,,,,0,,,75,0
263640,set_tempo,4,1,0,,,,,,3750009,,,,,,,
263640,note_on,0,0,0,,,,,,,,,0,,,84,75
263696,note_on,56,0,0,,,,,,,,,0,,,84,0
263699,set_tempo,3,1,0,,,,,,750002,,,,,,,
263700,set_tempo,1,1,0,,,,,,3750009,,,,,,,
263700,note_on,0,0,0,,,,,,,,,0,,,79,75
263756,note_on,56,0,0,,,,,,,,,0,,,79,0
263759,set_tempo,3,1,0,,,,,,750002,,,,,,,
263760,note_on,478,0,1,,,,,,,,,0,,,32,75
263760,set_tempo,1,1,0,,,,,,576923,,,,,,,
263760,note_on,0,0,0,,,,,,,,,0,,,82,117
263761,control_change,1,0,1,,,,,,,64,0,0,,,,
263762,control_change,1,0,1,,,,,,,64,127,0,,,,
263987,note_on,225,0,1,,,,,,,,,0,,,32,0
264000,note_on,13,0,1,,,,,,,,,0,,,44,75
264000,note_on,0,0,1,,,,,,,,,0,,,51,75
264000,note_on,240,0,0,,,,,,,,,0,,,72,72
264227,note_on,227,0,1,,,,,,,,,0,,,44,0
264227,note_on,0,0,1,,,,,,,,,0,,,51,0
264239,note_on,239,0,0,,,,,,,,,0,,,72,0
264240,note_on,13,0,1,,,,,,,,,0,,,48,75
264240,note_on,1,0,0,,,,,,,,,0,,,63,72
264240,note_on,0,0,1,,,,,,,,,0,,,56,75
264467,note_on,0,0,1,,,,,,,,,0,,,56,0
264467,note_on,227,0,1,,,,,,,,,0,,,48,0
264479,note_on,0,0,0,,,,,,,,,0,,,63,0
264479,note_on,239,0,0,,,,,,,,,0,,,82,0
264480,note_on,0,0,0,,,,,,,,,0,,,68,72
264480,note_on,13,0,1,,,,,,,,,0,,,51,75
264480,note_on,1,0,0,,,,,,,,,0,,,80,82
264480,note_on,0,0,1,,,,,,,,,0,,,60,75
264707,note_on,0,0,1,,,,,,,,,0,,,60,0
264707,note_on,227,0,1,,,,,,,,,0,,,51,0
264719,note_on,0,0,0,,,,,,,,,0,,,68,0
264719,note_on,239,0,0,,,,,,,,,0,,,80,0
264720,note_on,1,0,0,,,,,,,,,0,,,72,82
264959,note_on,239,0,0,,,,,,,,,0,,,72,0
264960,note_on,1,0,0,,,,,,,,,0,,,73,82
265187,note_on,227,0,0,,,,,,,,,0,,,73,0
265200,note_on,493,0,1,,,,,,,,,0,,,32,75
265200,note_on,13,0,0,,,,,,,,,0,,,77,117
265201,control_change,1,0,1,,,,,,,64,0,0,,,,
265202,control_change,1,0,1,,,,,,,64,127,0,,,,
265427,note_on,225,0,1,,,,,,,,,0,,,32,0
265440,note_on,240,0,0,,,,,,,,,0,,,60,72
265440,note_on,13,0,1,,,,,,,,,0,,,44,75
265440,note_on,0,0,1,,,,,,,,,0,,,51,75
265667,note_on,0,0,1,,,,,,,,,0,,,51,0
265667,note_on,227,0,1,,,,,,,,,0,,,44,0
265679,note_on,239,0,0,,,,,,,,,0,,,60,0
265680,note_on,1,0,0,,,,,,,,,0,,,63,72
265680,note_on,13,0,1,,,,,,,,,0,,,48,75
265680,note_on,0,0,1,,,,,,,,,0,,,56,75
265907,note_on,227,0,1,,,,,,,,,0,,,48,0
265907,note_on,0,0,1,,,,,,,,,0,,,56,0
265919,note_on,239,0,0,,,,,,,,,0,,,77,0
265919,note_on,0,0,0,,,,,,,,,0,,,63,0
265920,note_on,13,0,1,,,,,,,,,0,,,51,75
265920,note_on,0,0,0,,,,,,,,,0,,,68,72
265920,note_on,0,0,1,,,,,,,,,0,,,60,75
265920,note_on,1,0,0,,,,,,,,,0,,,75,82
266147,note_on,227,0,1,,,,,,,,,0,,,51,0
266147,note_on,0,0,1,,,,,,,,,0,,,60,0
266159,note_on,0,0,0,,,,,,,,,0,,,68,0
266159,note_on,239,0,0,,,,,,,,,0,,,75,0
266160,note_on,1,0,0,,,,,,,,,0,,,73,82
266399,note_on,239,0,0,,,,,,,,,0,,,73,0
266400,note_on,1,0,0,,,,,,,,,0,,,72,82
266627,note_on,227,0,0,,,,,,,,,0,,,72,0
266640,time_signature,13,1,0,7,4,24,8,,,,,,,,,
266640,note_on,0,0,0,,,,,,,,,0,,,72,117
266640,note_on,493,0,1,,,,,,,,,0,,,38,75
266641,control_change,1,0,1,,,,,,,64,0,0,,,,
266642,control_change,2,0,0,,,,,,,64,127,0,,,,
266867,note_on,226,0,1,,,,,,,,,0,,,38,0
266880,note_on,0,0,0,,,,,,,,,0,,,68,72
266880,note_on,238,0,0,,,,,,,,,0,,,65,72
266880,note_on,13,0,1,,,,,,,,,0,,,50,75
266880,note_on,0,0,1,,,,,,,,,0,,,58,75
267107,note_on,0,0,1,,,,,,,,,0,,,58,0
267107,note_on,0,0,0,,,,,,,,,0,,,68,0
267107,note_on,227,0,0,,,,,,,,,0,,,65,0
267107,note_on,227,0,1,,,,,,,,,0,,,50,0
267120,note_on,13,0,1,,,,,,,,,0,,,53,75
267120,note_on,13,0,0,,,,,,,,,0,,,58,72
267120,note_on,0,0,1,,,,,,,,,0,,,62,75
267347,note_on,227,0,0,,,,,,,,,0,,,58,0
267347,note_on,227,0,1,,,,,,,,,0,,,53,0
267347,note_on,0,0,1,,,,,,,,,0,,,62,0
267359,note_on,12,0,0,,,,,,,,,0,,,72,0
267360,note_on,1,0,0,,,,,,,,,0,,,70,83
267360,note_on,0,0,0,,,,,,,,,0,,,62,73
267360,note_on,0,0,1,,,,,,,,,0,,,65,76
267360,note_on,13,0,1,,,,,,,,,0,,,56,76
267587,note_on,0,0,1,,,,,,,,,0,,,65,0
267587,note_on,0,0,0,,,,,,,,,0,,,62,0
267587,note_on,227,0,0,,,,,,,,,0,,,70,0
267587,note_on,227,0,1,,,,,,,,,0,,,56,0
267600,note_on,13,0,0,,,,,,,,,0,,,69,83
267827,note_on,227,0,0,,,,,,,,,0,,,69,0
267840,note_on,13,0,0,,,,,,,,,0,,,70,84
268067,note_on,227,0,0,,,,,,,,,0,,,70,0
268080,set_tempo,13,1,0,,,,,,631579,,,,,,,
268080,note_on,493,0,1,,,,,,,,,0,,,34,77
268080,note_on,0,0,0,,,,,,,,,0,,,69,92
268081,control_change,1,0,0,,,,,,,64,0,0,,,,
268082,control_change,1,0,0,,,,,,,64,127,0,,,,
268134,note_on,52,0,0,,,,,,,,,0,,,69,0
268139,note_on,5,0,0,,,,,,,,,0,,,70,92
268193,note_on,54,0,0,,,,,,,,,0,,,70,0
268200,note_on,7,0,0,,,,,,,,,0,,,72,92
268254,note_on,54,0,0,,,,,,,,,0,,,72,0
268259,note_on,5,0,0,,,,,,,,,0,,,70,92
268307,note_on,227,0,1,,,,,,,,,0,,,34,0
268313,note_on,54,0,0,,,,,,,,,0,,,70,0
268320,note_on,0,0,0,,,,,,,,,0,,,68,75
268320,note_on,13,0,1,,,,,,,,,0,,,50,78
268320,note_on,0,0,0,,,,,,,,,0,,,65,75
268320,note_on,7,0,0,,,,,,,,,0,,,72,93
268320,note_on,0,0,1,,,,,,,,,0,,,58,78
268374,note_on,54,0,0,,,,,,,,,0,,,72,0
268379,note_on,5,0,0,,,,,,,,,0,,,70,93
268433,note_on,54,0,0,,,,,,,,,0,,,70,0
268440,note_on,7,0,0,,,,,,,,,0,,,72,93
268494,note_on,54,0,0,,,,,,,,,0,,,72,0
268499,note_on,5,0,0,,,,,,,,,0,,,70,93
268547,note_on,227,0,1,,,,,,,,,0,,,50,0
268547,note_on,0,0,0,,,,,,,,,0,,,68,0
268547,note_on,48,0,0,,,,,,,,,0,,,65,0
268547,note_on,0,0,1,,,,,,,,,0,,,58,0
268553,note_on,6,0,0,,,,,,,,,0,,,70,0
268560,note_on,13,0,1,,,,,,,,,0,,,53,78
268560,note_on,0,0,1,,,,,,,,,0,,,62,78
268560,note_on,0,0,0,,,,,,,,,0,,,58,75
268560,note_on,7,0,0,,,,,,,,,0,,,72,93
268614,note_on,54,0,0,,,,,,,,,0,,,72,0
268619,note_on,5,0,0,,,,,,,,,0,,,70,93
268673,note_on,54,0,0,,,,,,,,,0,,,70,0
268680,note_on,7,0,0,,,,,,,,,0,,,72,93
268734,note_on,54,0,0,,,,,,,,,0,,,72,0
268739,note_on,5,0,0,,,,,,,,,0,,,70,93
268787,note_on,0,0,1,,,,,,,,,0,,,62,0
268787,note_on,227,0,1,,,,,,,,,0,,,53,0
268787,note_on,48,0,0,,,,,,,,,0,,,58,0
268793,note_on,6,0,0,,,,,,,,,0,,,70,0
268800,note_on,13,0,1,,,,,,,,,0,,,56,78
268800,note_on,7,0,0,,,,,,,,,0,,,72,93
268800,note_on,0,0,1,,,,,,,,,0,,,65,78
268800,note_on,0,0,0,,,,,,,,,0,,,62,75
268854,note_on,54,0,0,,,,,,,,,0,,,72,0
268859,note_on,5,0,0,,,,,,,,,0,,,70,93
268913,note_on,54,0,0,,,,,,,,,0,,,70,0
268920,note_on,7,0,0,,,,,,,,,0,,,72,93
269027,note_on,0,0,1,,,,,,,,,0,,,65,0
269027,note_on,227,0,1,,,,,,,,,0,,,56,0
269027,note_on,107,0,0,,,,,,,,,0,,,62,0
269032,note_on,5,0,0,,,,,,,,,0,,,72,0
269040,set_tempo,8,1,0,,,,,,631579,,,,,,,
269040,note_on,0,0,0,,,,,,,,,0,,,69,78
269096,note_on,56,0,0,,,,,,,,,0,,,69,0
269100,set_tempo,4,1,0,,,,,,617284,,,,,,,
269100,note_on,0,0,0,,,,,,,,,0,,,70,79
269156,note_on,56,0,0,,,,,,,,,0,,,70,0
269160,note_on,0,0,0,,,,,,,,,0,,,71,80
269160,set_tempo,4,1,0,,,,,,607903,,,,,,,
269216,note_on,56,0,0,,,,,,,,,0,,,71,0
269220,set_tempo,4,1,0,,,,,,600000,,,,,,,
269220,note_on,0,0,0,,,,,,,,,0,,,72,82
269276,note_on,56,0,0,,,,,,,,,0,,,72,0
269280,note_on,0,0,0,,,,,,,,,0,,,73,83
269280,set_tempo,4,1,0,,,,,,592885,,,,,,,
269336,note_on,56,0,0,,,,,,,,,0,,,73,0
269340,set_tempo,4,1,0,,,,,,586510,,,,,,,
269340,note_on,0,0,0,,,,,,,,,0,,,74,85
269396,note_on,56,0,0,,,,,,,,,0,,,74,0
269400,note_on,0,0,0,,,,,,,,,0,,,75,86
269400,set_tempo,4,1,0,,,,,,580271,,,,,,,
269456,note_on,56,0,0,,,,,,,,,0,,,75,0
269460,note_on,0,0,0,,,,,,,,,0,,,76,88
269460,set_tempo,4,1,0,,,,,,574713,,,,,,,
269516,note_on,56,0,0,,,,,,,,,0,,,76,0
269520,set_tempo,4,1,0,,,,,,569260,,,,,,,
269520,note_on,0,0,0,,,,,,,,,0,,,77,89
269576,note_on,56,0,0,,,,,,,,,0,,,77,0
269580,set_tempo,4,1,0,,,,,,563910,,,,,,,
269580,note_on,0,0,0,,,,,,,,,0,,,78,90
269636,note_on,56,0,0,,,,,,,,,0,,,78,0
269640,set_tempo,4,1,0,,,,,,559180,,,,,,,
269640,note_on,0,0,0,,,,,,,,,0,,,79,92
269696,note_on,56,0,0,,,,,,,,,0,,,79,0
269700,set_tempo,4,1,0,,,,,,554529,,,,,,,
269700,note_on,0,0,0,,,,,,,,,0,,,80,93
269756,note_on,56,0,0,,,,,,,,,0,,,80,0
269760,set_tempo,4,1,0,,,,,,549954,,,,,,,
269760,note_on,0,0,0,,,,,,,,,0,,,81,95
269816,note_on,56,0,0,,,,,,,,,0,,,81,0
269820,note_on,0,0,0,,,,,,,,,0,,,82,96
269820,set_tempo,4,1,0,,,,,,545455,,,,,,,
269876,note_on,56,0,0,,,,,,,,,0,,,82,0
269880,note_on,4,0,0,,,,,,,,,0,,,83,98
269936,note_on,56,0,0,,,,,,,,,0,,,83,0
269940,note_on,4,0,0,,,,,,,,,0,,,84,98
269996,note_on,56,0,0,,,,,,,,,0,,,84,0
270000,note_on,0,0,0,,,,,,,,,0,,,87,113
270000,note_on,973,0,1,,,,,,,,,0,,,37,94
270000,time_signature,4,1,0,6,4,24,8,,,,,,,,,
270000,set_tempo,0,1,0,,,,,,555556,,,,,,,
270001,control_change,1,0,0,,,,,,,64,0,0,,,,
270002,control_change,2,0,1,,,,,,,64,127,0,,,,
270227,note_on,225,0,1,,,,,,,,,0,,,37,0
270240,note_on,0,0,1,,,,,,,,,0,,,58,90
270240,note_on,0,0,0,,,,,,,,,0,,,82,86
270240,note_on,239,0,0,,,,,,,,,0,,,78,86
270240,note_on,13,0,1,,,,,,,,,0,,,49,90
270240,note_on,0,0,1,,,,,,,,,0,,,54,90
270467,note_on,227,0,1,,,,,,,,,0,,,49,0
270467,note_on,0,0,1,,,,,,,,,0,,,54,0
270467,note_on,0,0,1,,,,,,,,,0,,,58,0
270479,note_on,239,0,0,,,,,,,,,0,,,78,0
270479,note_on,0,0,0,,,,,,,,,0,,,82,0
270480,note_on,0,0,1,,,,,,,,,0,,,61,90
270480,note_on,1,0,0,,,,,,,,,0,,,73,86
270480,note_on,0,0,1,,,,,,,,,0,,,58,90
270480,note_on,13,0,1,,,,,,,,,0,,,54,90
270481,note_on,1,0,0,,,,,,,,,0,,,87,0
270707,note_on,227,0,1,,,,,,,,,0,,,54,0
270707,note_on,0,0,1,,,,,,,,,0,,,58,0
270707,note_on,0,0,1,,,,,,,,,0,,,61,0
270719,note_on,238,0,0,,,,,,,,,0,,,73,0
270720,note_on,1,0,0,,,,,,,,,0,,,85,103
270720,note_on,13,0,1,,,,,,,,,0,,,58,90
270720,note_on,0,0,1,,,,,,,,,0,,,66,90
270720,note_on,0,0,0,,,,,,,,,0,,,70,86
270720,note_on,0,0,1,,,,,,,,,0,,,61,90
270947,note_on,0,0,1,,,,,,,,,0,,,61,0
270947,note_on,0,0,1,,,,,,,,,0,,,66,0
270947,note_on,227,0,1,,,,,,,,,0,,,58,0
270959,note_on,0,0,0,,,,,,,,,0,,,70,0
270959,note_on,239,0,0,,,,,,,,,0,,,85,0
270960,note_on,1,0,0,,,,,,,,,0,,,82,103
271199,note_on,239,0,0,,,,,,,,,0,,,82,0
271200,note_on,1,0,0,,,,,,,,,0,,,78,103
271427,note_on,227,0,0,,,,,,,,,0,,,78,0
271440,note_on,13,0,0,,,,,,,,,0,,,75,113
271440,note_on,493,0,1,,,,,,,,,0,,,37,94
271441,control_change,1,0,1,,,,,,,64,0,0,,,,
271442,control_change,2,0,0,,,,,,,64,127,0,,,,
271667,note_on,226,0,1,,,,,,,,,0,,,37,0
271680,note_on,0,0,0,,,,,,,,,0,,,68,86
271680,note_on,0,0,1,,,,,,,,,0,,,59,90
271680,note_on,13,0,1,,,,,,,,,0,,,49,90
271680,note_on,238,0,0,,,,,,,,,0,,,65,86
271907,note_on,227,0,1,,,,,,,,,0,,,49,0
271907,note_on,0,0,1,,,,,,,,,0,,,59,0
271919,note_on,0,0,0,,,,,,,,,0,,,68,0
271919,note_on,239,0,0,,,,,,,,,0,,,65,0
271920,note_on,1,0,0,,,,,,,,,0,,,61,86
271920,note_on,0,0,1,,,,,,,,,0,,,65,90
271920,note_on,13,0,1,,,,,,,,,0,,,56,90
271921,note_on,1,0,0,,,,,,,,,0,,,75,0
272147,note_on,227,0,1,,,,,,,,,0,,,56,0
272147,note_on,0,0,1,,,,,,,,,0,,,65,0
272159,note_on,238,0,0,,,,,,,,,0,,,61,0
272160,note_on,0,0,0,,,,,,,,,0,,,65,86
272160,note_on,0,0,1,,,,,,,,,0,,,59,90
272160,note_on,13,0,1,,,,,,,,,0,,,49,90
272160,note_on,1,0,0,,,,,,,,,0,,,73,103
272387,note_on,0,0,1,,,,,,,,,0,,,59,0
272387,note_on,227,0,1,,,,,,,,,0,,,49,0
272399,note_on,0,0,0,,,,,,,,,0,,,65,0
272399,note_on,239,0,0,,,,,,,,,0,,,73,0
272400,note_on,1,0,0,,,,,,,,,0,,,71,103
272639,note_on,239,0,0,,,,,,,,,0,,,71,0
272640,note_on,1,0,0,,,,,,,,,0,,,68,103
272867,note_on,227,0,0,,,,,,,,,0,,,68,0
272880,note_on,13,0,0,,,,,,,,,0,,,92,115
272880,note_on,493,0,1,,,,,,,,,0,,,37,96
272881,control_change,1,0,0,,,,,,,64,0,0,,,,
272882,control_change,2,0,1,,,,,,,64,127,0,,,,
273107,note_on,225,0,1,,,,,,,,,0,,,37,0
273120,note_on,13,0,1,,,,,,,,,0,,,49,90
273120,note_on,0,0,1,,,,,,,,,0,,,58,90
273120,note_on,0,0,1,,,,,,,,,0,,,54,90
273120,note_on,239,0,0,,,,,,,,,0,,,82,86
273120,note_on,0,0,0,,,,,,,,,0,,,85,86
273347,note_on,227,0,1,,,,,,,,,0,,,49,0
273347,note_on,0,0,1,,,,,,,,,0,,,54,0
273347,note_on,0,0,1,,,,,,,,,0,,,58,0
273359,note_on,0,0,0,,,,,,,,,0,,,85,0
273359,note_on,239,0,0,,,,,,,,,0,,,82,0
273360,note_on,0,0,1,,,,,,,,,0,,,58,90
273360,note_on,0,0,1,,,,,,,,,0,,,61,90
273360,note_on,1,0,0,,,,,,,,,0,,,78,86
273360,note_on,13,0,1,,,,,,,,,0,,,54,90
273361,note_on,1,0,0,,,,,,,,,0,,,92,0
273587,note_on,227,0,1,,,,,,,,,0,,,54,0
273587,note_on,0,0,1,,,,,,,,,0,,,58,0
273587,note_on,0,0,1,,,,,,,,,0,,,61,0
273599,note_on,238,0,0,,,,,,,,,0,,,78,0
273600,note_on,0,0,1,,,,,,,,,0,,,66,90
273600,note_on,0,0,1,,,,,,,,,0,,,61,90
273600,note_on,1,0,0,,,,,,,,,0,,,90,106
273600,note_on,0,0,0,,,,,,,,,0,,,73,86
273600,note_on,13,0,1,,,,,,,,,0,,,58,90
273827,note_on,227,0,1,,,,,,,,,0,,,58,0
273827,note_on,0,0,1,,,,,,,,,0,,,61,0
273827,note_on,0,0,1,,,,,,,,,0,,,66,0
273839,note_on,239,0,0,,,,,,,,,0,,,90,0
273839,note_on,0,0,0,,,,,,,,,0,,,73,0
273840,note_on,1,0,0,,,,,,,,,0,,,85,106
274079,note_on,239,0,0,,,,,,,,,0,,,85,0
274080,note_on,1,0,0,,,,,,,,,0,,,82,106
274307,note_on,227,0,0,,,,,,,,,0,,,82,0
274320,note_on,13,0,0,,,,,,,,,0,,,82,116
274320,note_on,493,0,1,,,,,,,,,0,,,38,97
274321,control_change,1,0,1,,,,,,,64,0,0,,,,
274322,control_change,1,0,1,,,,,,,64,127,0,,,,
274547,note_on,225,0,1,,,,,,,,,0,,,38,0
274560,note_on,0,0,1,,,,,,,,,0,,,59,90
274560,note_on,240,0,0,,,,,,,,,0,,,74,86
274560,note_on,0,0,1,,,,,,,,,0,,,56,90
274560,note_on,0,0,0,,,,,,,,,0,,,77,86
274560,note_on,13,0,1,,,,,,,,,0,,,50,90
274787,note_on,0,0,1,,,,,,,,,0,,,56,0
274787,note_on,227,0,1,,,,,,,,,0,,,50,0
274787,note_on,0,0,1,,,,,,,,,0,,,59,0
274799,note_on,0,0,0,,,,,,,,,0,,,77,0
274799,note_on,239,0,0,,,,,,,,,0,,,74,0
274800,note_on,13,0,1,,,,,,,,,0,,,56,90
274800,note_on,0,0,1,,,,,,,,,0,,,62,90
274800,note_on,1,0,0,,,,,,,,,0,,,71,86
274800,note_on,0,0,1,,,,,,,,,0,,,59,90
274801,note_on,1,0,0,,,,,,,,,0,,,82,0
275027,note_on,227,0,1,,,,,,,,,0,,,56,0
275027,note_on,0,0,1,,,,,,,,,0,,,62,0
275027,note_on,0,0,1,,,,,,,,,0,,,59,0
275039,note_on,238,0,0,,,,,,,,,0,,,71,0
275040,note_on,0,0,1,,,,,,,,,0,,,65,90
275040,note_on,13,0,1,,,,,,,,,0,,,59,90
275040,note_on,0,0,1,,,,,,,,,0,,,62,90
275040,note_on,0,0,0,,,,,,,,,0,,,68,99
275040,note_on,0,0,0,,,,,,,,,0,,,80,99
275040,set_tempo,1,1,0,,,,,,555556,,,,,,,
275267,note_on,0,0,1,,,,,,,,,0,,,65,0
275267,note_on,0,0,1,,,,,,,,,0,,,62,0
275267,note_on,227,0,1,,,,,,,,,0,,,59,0
275279,note_on,239,0,0,,,,,,,,,0,,,68,0
275279,note_on,0,0,0,,,,,,,,,0,,,80,0
275280,note_on,0,0,0,,,,,,,,,0,,,67,100
275280,note_on,0,0,0,,,,,,,,,0,,,79,100
275280,set_tempo,1,1,0,,,,,,576923,,,,,,,
275519,note_on,239,0,0,,,,,,,,,0,,,67,0
275519,note_on,0,0,0,,,,,,,,,0,,,79,0
275520,set_tempo,1,1,0,,,,,,600000,,,,,,,
275520,note_on,0,0,0,,,,,,,,,0,,,77,103
275520,note_on,0,0,0,,,,,,,,,0,,,65,103
275747,note_on,227,0,0,,,,,,,,,0,,,65,0
275747,note_on,0,0,0,,,,,,,,,0,,,77,0
275760,set_tempo,13,1,0,,,,,,545455,,,,,,,
275760,note_on,0,0,0,,,,,,,,,0,,,101,124
275760,note_on,0,0,0,,,,,,,,,0,,,89,124
275760,note_on,493,0,1,,,,,,,,,0,,,39,99
275761,control_change,1,0,1,,,,,,,64,0,0,,,,
275762,control_change,1,0,1,,,,,,,64,127,0,,,,
275987,note_on,225,0,1,,,,,,,,,0,,,39,0
276000,set_tempo,240,1,0,,,,,,544959,,,,,,,
276000,note_on,13,0,1,,,,,,,,,0,,,51,90
276000,note_on,0,0,1,,,,,,,,,0,,,56,90
276000,note_on,0,0,1,,,,,,,,,0,,,60,90
276227,note_on,227,0,1,,,,,,,,,0,,,51,0
276227,note_on,0,0,1,,,,,,,,,0,,,60,0
276227,note_on,0,0,1,,,,,,,,,0,,,56,0
276240,set_tempo,240,1,0,,,,,,544465,,,,,,,
276240,note_on,0,0,1,,,,,,,,,0,,,60,90
276240,note_on,0,0,1,,,,,,,,,0,,,63,90
276240,note_on,13,0,1,,,,,,,,,0,,,56,90
276241,note_on,0,0,0,,,,,,,,,0,,,101,0
276241,note_on,1,0,0,,,,,,,,,0,,,89,0
276467,note_on,0,0,1,,,,,,,,,0,,,63,0
276467,note_on,0,0,1,,,,,,,,,0,,,60,0
276467,note_on,227,0,1,,,,,,,,,0,,,56,0
276480,note_on,13,0,1,,,,,,,,,0,,,60,90
276480,set_tempo,239,1,0,,,,,,543478,,,,,,,
276480,note_on,0,0,1,,,,,,,,,0,,,63,90
276480,note_on,0,0,1,,,,,,,,,0,,,68,90
276480,note_on,0,0,0,,,,,,,,,0,,,99,103
276480,note_on,0,0,0,,,,,,,,,0,,,87,103
276707,note_on,227,0,1,,,,,,,,,0,,,60,0
276707,note_on,0,0,1,,,,,,,,,0,,,63,0
276707,note_on,0,0,1,,,,,,,,,0,,,68,0
276719,note_on,0,0,0,,,,,,,,,0,,,99,0
276719,note_on,239,0,0,,,,,,,,,0,,,87,0
276720,note_on,0,0,0,,,,,,,,,0,,,96,103
276720,note_on,0,0,0,,,,,,,,,0,,,84,103
276720,set_tempo,1,1,0,,,,,,542986,,,,,,,
276959,note_on,239,0,0,,,,,,,,,0,,,84,0
276959,note_on,0,0,0,,,,,,,,,0,,,96,0
276960,note_on,0,0,0,,,,,,,,,0,,,92,103
276960,note_on,0,0,0,,,,,,,,,0,,,80,103
276960,set_tempo,1,1,0,,,,,,542005,,,,,,,
277187,note_on,227,0,0,,,,,,,,,0,,,80,0
277187,note_on,0,0,0,,,,,,,,,0,,,92,0
277200,note_on,493,0,1,,,,,,,,,0,,,39,99
277200,note_on,0,0,0,,,,,,,,,0,,,89,118
277200,note_on,0,0,0,,,,,,,,,0,,,77,118
277200,set_tempo,13,1,0,,,,,,541028,,,,,,,
277201,control_change,1,0,1,,,,,,,64,0,0,,,,
277202,control_change,1,0,1,,,,,,,64,127,0,,,,
277427,note_on,225,0,1,,,,,,,,,0,,,39,0
277440,note_on,0,0,1,,,,,,,,,0,,,60,90
277440,note_on,0,0,1,,,,,,,,,0,,,57,90
277440,set_tempo,240,1,0,,,,,,539568,,,,,,,
277440,note_on,13,0,1,,,,,,,,,0,,,51,90
277667,note_on,0,0,1,,,,,,,,,0,,,60,0
277667,note_on,0,0,1,,,,,,,,,0,,,57,0
277667,note_on,227,0,1,,,,,,,,,0,,,51,0
277680,set_tempo,240,1,0,,,,,,538600,,,,,,,
277680,note_on,0,0,1,,,,,,,,,0,,,63,90
277680,note_on,13,0,1,,,,,,,,,0,,,57,90
277680,note_on,0,0,1,,,,,,,,,0,,,60,90
277681,note_on,1,0,0,,,,,,,,,0,,,77,0
277681,note_on,0,0,0,,,,,,,,,0,,,89,0
277907,note_on,227,0,1,,,,,,,,,0,,,57,0
277907,note_on,0,0,1,,,,,,,,,0,,,63,0
277907,note_on,0,0,1,,,,,,,,,0,,,60,0
277920,note_on,0,0,0,,,,,,,,,0,,,87,103
277920,note_on,0,0,0,,,,,,,,,0,,,75,103
277920,set_tempo,239,1,0,,,,,,537634,,,,,,,
277920,note_on,0,0,1,,,,,,,,,0,,,63,90
277920,note_on,0,0,1,,,,,,,,,0,,,69,90
277920,note_on,13,0,1,,,,,,,,,0,,,60,90
278147,note_on,227,0,1,,,,,,,,,0,,,60,0
278147,note_on,0,0,1,,,,,,,,,0,,,63,0
278147,note_on,0,0,1,,,,,,,,,0,,,69,0
278159,note_on,0,0,0,,,,,,,,,0,,,87,0
278159,note_on,239,0,0,,,,,,,,,0,,,75,0
278160,note_on,0,0,0,,,,,,,,,0,,,84,103
278160,note_on,0,0,0,,,,,,,,,0,,,72,103
278160,set_tempo,1,1,0,,,,,,536193,,,,,,,
278399,note_on,239,0,0,,,,,,,,,0,,,72,0
278399,note_on,0,0,0,,,,,,,,,0,,,84,0
278400,note_on,0,0,0,,,,,,,,,0,,,81,103
278400,note_on,0,0,0,,,,,,,,,0,,,69,103
278400,set_tempo,1,1,0,,,,,,534759,,,,,,,
278627,note_on,227,0,0,,,,,,,,,0,,,69,0
278627,note_on,0,0,0,,,,,,,,,0,,,81,0
278640,set_tempo,13,1,0,,,,,,533808,,,,,,,
278640,note_on,0,0,0,,,,,,,,,0,,,103,124
278640,note_on,0,0,0,,,,,,,,,0,,,91,124
278640,note_on,493,0,1,,,,,,,,,0,,,39,99
278641,control_change,1,0,1,,,,,,,64,0,0,,,,
278642,control_change,1,0,1,,,,,,,64,127,0,,,,
278867,note_on,225,0,1,,,,,,,,,0,,,39,0
278880,note_on,0,0,1,,,,,,,,,0,,,61,90
278880,note_on,13,0,1,,,,,,,,,0,,,51,90
278880,set_tempo,240,1,0,,,,,,532387,,,,,,,
278880,note_on,0,0,1,,,,,,,,,0,,,58,90
279107,note_on,0,0,1,,,,,,,,,0,,,58,0
279107,note_on,0,0,1,,,,,,,,,0,,,61,0
279107,note_on,227,0,1,,,,,,,,,0,,,51,0
279120,note_on,13,0,1,,,,,,,,,0,,,58,90
279120,set_tempo,240,1,0,,,,,,530973,,,,,,,
279120,note_on,0,0,1,,,,,,,,,0,,,65,90
279120,note_on,0,0,1,,,,,,,,,0,,,61,90
279121,note_on,0,0,0,,,,,,,,,0,,,103,0
279121,note_on,1,0,0,,,,,,,,,0,,,91,0
279347,note_on,227,0,1,,,,,,,,,0,,,58,0
279347,note_on,0,0,1,,,,,,,,,0,,,65,0
279347,note_on,0,0,1,,,,,,,,,0,,,61,0
279360,note_on,0,0,1,,,,,,,,,0,,,65,90
279360,note_on,0,0,1,,,,,,,,,0,,,70,90
279360,note_on,13,0,1,,,,,,,,,0,,,61,90
279360,note_on,0,0,0,,,,,,,,,0,,,89,90
279360,note_on,0,0,0,,,,,,,,,0,,,101,90
279360,set_tempo,239,1,0,,,,,,529568,,,,,,,
279587,note_on,0,0,1,,,,,,,,,0,,,70,0
279587,note_on,227,0,1,,,,,,,,,0,,,61,0
279587,note_on,0,0,1,,,,,,,,,0,,,65,0
279599,note_on,239,0,0,,,,,,,,,0,,,89,0
279599,note_on,0,0,0,,,,,,,,,0,,,101,0
279600,note_on,0,0,0,,,,,,,,,0,,,97,90
279600,note_on,0,0,0,,,,,,,,,0,,,85,90
279600,set_tempo,1,1,0,,,,,,528169,,,,,,,
279839,note_on,239,0,0,,,,,,,,,0,,,85,0
279839,note_on,0,0,0,,,,,,,,,0,,,97,0
279840,note_on,0,0,0,,,,,,,,,0,,,94,90
279840,note_on,0,0,0,,,,,,,,,0,,,82,90
279840,set_tempo,1,1,0,,,,,,526316,,,,,,,
280067,note_on,0,0,0,,,,,,,,,0,,,94,0
280067,note_on,227,0,0,,,,,,,,,0,,,82,0
280080,note_on,493,0,1,,,,,,,,,0,,,39,99
280080,note_on,0,0,0,,,,,,,,,0,,,79,108
280080,set_tempo,13,1,0,,,,,,524934,,,,,,,
280080,note_on,0,0,0,,,,,,,,,0,,,91,118
280081,control_change,1,0,1,,,,,,,64,0,0,,,,
280082,control_change,1,0,1,,,,,,,64,127,0,,,,
280307,note_on,225,0,1,,,,,,,,,0,,,39,0
280320,set_tempo,240,1,0,,,,,,523560,,,,,,,
280320,note_on,0,0,1,,,,,,,,,0,,,59,90
280320,note_on,0,0,1,,,,,,,,,0,,,62,90
280320,note_on,13,0,1,,,,,,,,,0,,,51,90
280547,note_on,227,0,1,,,,,,,,,0,,,51,0
280547,note_on,0,0,1,,,,,,,,,0,,,59,0
280547,note_on,0,0,1,,,,,,,,,0,,,62,0
280560,note_on,0,0,1,,,,,,,,,0,,,62,90
280560,note_on,13,0,1,,,,,,,,,0,,,59,90
280560,set_tempo,240,1,0,,,,,,521739,,,,,,,
280560,note_on,0,0,1,,,,,,,,,0,,,67,90
280561,note_on,0,0,0,,,,,,,,,0,,,91,0
280561,note_on,1,0,0,,,,,,,,,0,,,79,0
280787,note_on,227,0,1,,,,,,,,,0,,,59,0
280787,note_on,0,0,1,,,,,,,,,0,,,67,0
280787,note_on,0,0,1,,,,,,,,,0,,,62,0
280800,note_on,0,0,0,,,,,,,,,0,,,89,90
280800,note_on,0,0,1,,,,,,,,,0,,,67,90
280800,note_on,0,0,1,,,,,,,,,0,,,71,90
280800,note_on,0,0,0,,,,,,,,,0,,,77,90
280800,set_tempo,239,1,0,,,,,,520382,,,,,,,
280800,note_on,13,0,1,,,,,,,,,0,,,62,90
281027,note_on,227,0,1,,,,,,,,,0,,,62,0
281027,note_on,0,0,1,,,,,,,,,0,,,71,0
281027,note_on,0,0,1,,,,,,,,,0,,,67,0
281039,note_on,239,0,0,,,,,,,,,0,,,77,0
281039,note_on,0,0,0,,,,,,,,,0,,,89,0
281040,set_tempo,1,1,0,,,,,,518583,,,,,,,
281040,note_on,0,0,0,,,,,,,,,0,,,74,90
281040,note_on,0,0,0,,,,,,,,,0,,,86,90
281279,note_on,239,0,0,,,,,,,,,0,,,74,0
281279,note_on,0,0,0,,,,,,,,,0,,,86,0
281280,set_tempo,1,1,0,,,,,,517241,,,,,,,
281280,note_on,0,0,0,,,,,,,,,0,,,83,90
281280,note_on,0,0,0,,,,,,,,,0,,,71,90
281507,note_on,0,0,0,,,,,,,,,0,,,83,0
281507,note_on,227,0,0,,,,,,,,,0,,,71,0
281520,note_on,0,0,0,,,,,,,,,0,,,80,118
281520,note_on,0,0,0,,,,,,,,,0,,,92,118
281520,set_tempo,13,1,0,,,,,,515464,,,,,,,
281520,note_on,493,0,1,,,,,,,,,0,,,39,99
281521,control_change,1,0,1,,,,,,,64,0,0,,,,
281522,control_change,2,0,0,,,,,,,64,127,0,,,,
281747,note_on,226,0,1,,,,,,,,,0,,,39,0
281760,note_on,13,0,1,,,,,,,,,0,,,51,90
281760,set_tempo,238,1,0,,,,,,513699,,,,,,,
281760,note_on,0,0,1,,,,,,,,,0,,,60,90
281760,note_on,0,0,1,,,,,,,,,0,,,63,90
281987,note_on,227,0,1,,,,,,,,,0,,,51,0
281987,note_on,0,0,1,,,,,,,,,0,,,63,0
281987,note_on,0,0,1,,,,,,,,,0,,,60,0
282000,note_on,13,0,1,,,,,,,,,0,,,60,90
282000,note_on,0,0,1,,,,,,,,,0,,,67,90
282000,set_tempo,240,1,0,,,,,,511945,,,,,,,
282000,note_on,0,0,1,,,,,,,,,0,,,63,90
282001,note_on,1,0,0,,,,,,,,,0,,,80,0
282001,note_on,0,0,0,,,,,,,,,0,,,92,0
282227,note_on,0,0,1,,,,,,,,,0,,,67,0
282227,note_on,0,0,1,,,,,,,,,0,,,63,0
282227,note_on,227,0,1,,,,,,,,,0,,,60,0
282240,set_tempo,239,1,0,,,,,,510204,,,,,,,
282240,note_on,0,0,0,,,,,,,,,0,,,79,103
282240,note_on,0,0,1,,,,,,,,,0,,,67,90
282240,note_on,0,0,1,,,,,,,,,0,,,72,90
282240,note_on,13,0,1,,,,,,,,,0,,,63,90
282240,note_on,0,0,0,,,,,,,,,0,,,91,103
282467,note_on,227,0,1,,,,,,,,,0,,,63,0
282467,note_on,0,0,1,,,,,,,,,0,,,67,0
282467,note_on,0,0,1,,,,,,,,,0,,,72,0
282479,note_on,239,0,0,,,,,,,,,0,,,79,0
282479,note_on,0,0,0,,,,,,,,,0,,,91,0
282480,note_on,0,0,0,,,,,,,,,0,,,87,103
282480,set_tempo,1,1,0,,,,,,508475,,,,,,,
282480,note_on,0,0,0,,,,,,,,,0,,,75,103
282719,note_on,0,0,0,,,,,,,,,0,,,87,0
282719,note_on,239,0,0,,,,,,,,,0,,,75,0
282720,note_on,0,0,0,,,,,,,,,0,,,72,103
282720,note_on,0,0,0,,,,,,,,,0,,,84,103
282720,set_tempo,1,1,0,,,,,,506757,,,,,,,
282947,note_on,0,0,0,,,,,,,,,0,,,84,0
282947,note_on,227,0,0,,,,,,,,,0,,,72,0
282960,note_on,493,0,1,,,,,,,,,0,,,39,99
282960,set_tempo,13,1,0,,,,,,505051,,,,,,,
282960,note_on,0,0,0,,,,,,,,,0,,,81,118
282960,note_on,0,0,0,,,,,,,,,0,,,93,118
282961,control_change,1,0,0,,,,,,,64,0,0,,,,
282962,control_change,1,0,0,,,,,,,64,127,0,,,,
283187,note_on,227,0,1,,,,,,,,,0,,,39,0
283200,note_on,0,0,1,,,,,,,,,0,,,60,90
283200,note_on,0,0,1,,,,,,,,,0,,,63,90
283200,note_on,13,0,1,,,,,,,,,0,,,51,90
283427,note_on,0,0,1,,,,,,,,,0,,,63,0
283427,note_on,0,0,1,,,,,,,,,0,,,60,0
283427,note_on,227,0,1,,,,,,,,,0,,,51,0
283440,note_on,0,0,1,,,,,,,,,0,,,66,90
283440,note_on,0,0,1,,,,,,,,,0,,,63,90
283440,note_on,13,0,1,,,,,,,,,0,,,60,90
283441,note_on,479,0,0,,,,,,,,,0,,,81,0
283441,note_on,0,0,0,,,,,,,,,0,,,93,0
283667,note_on,0,0,1,,,,,,,,,0,,,66,0
283667,note_on,0,0,1,,,,,,,,,0,,,63,0
283667,note_on,227,0,1,,,,,,,,,0,,,60,0
283680,set_tempo,239,1,0,,,,,,500000,,,,,,,
283680,note_on,0,0,1,,,,,,,,,0,,,72,90
283680,note_on,0,0,1,,,,,,,,,0,,,66,90
283680,note_on,13,0,1,,,,,,,,,0,,,63,90
283680,note_on,0,0,0,,,,,,,,,0,,,80,103
283680,note_on,0,0,0,,,,,,,,,0,,,92,103
283907,note_on,0,0,1,,,,,,,,,0,,,72,0
283907,note_on,0,0,1,,,,,,,,,0,,,66,0
283907,note_on,227,0,1,,,,,,,,,0,,,63,0
283919,note_on,239,0,0,,,,,,,,,0,,,80,0
283919,note_on,0,0,0,,,,,,,,,0,,,92,0
283920,note_on,0,0,0,,,,,,,,,0,,,90,103
283920,set_tempo,1,1,0,,,,,,533333,,,,,,,
283920,note_on,0,0,0,,,,,,,,,0,,,78,103
284159,note_on,0,0,0,,,,,,,,,0,,,90,0
284159,note_on,239,0,0,,,,,,,,,0,,,78,0
284160,note_on,0,0,0,,,,,,,,,0,,,87,103
284160,note_on,0,0,0,,,,,,,,,0,,,75,103
284160,set_tempo,1,1,0,,,,,,571429,,,,,,,
284387,note_on,0,0,0,,,,,,,,,0,,,87,0
284387,note_on,227,0,0,,,,,,,,,0,,,75,0
284400,note_on,493,0,1,,,,,,,,,0,,,39,120
284400,note_on,0,0,0,,,,,,,,,0,,,93,115
284400,note_on,13,0,0,,,,,,,,,0,,,81,115
284401,control_change,1,0,0,,,,,,,64,0,0,,,,
284627,note_on,227,0,1,,,,,,,,,0,,,39,0
284640,note_on,0,0,1,,,,,,,,,0,,,56,95
284640,note_on,13,0,1,,,,,,,,,0,,,51,95
284640,note_on,0,0,1,,,,,,,,,0,,,64,95
284640,note_on,0,0,1,,,,,,,,,0,,,61,95
284867,note_on,0,0,1,,,,,,,,,0,,,64,0
284867,note_on,0,0,1,,,,,,,,,0,,,61,0
284867,note_on,0,0,1,,,,,,,,,0,,,56,0
284867,note_on,227,0,1,,,,,,,,,0,,,51,0
284880,note_on,0,0,1,,,,,,,,,0,,,56,95
284880,note_on,13,0,1,,,,,,,,,0,,,51,95
284880,note_on,0,0,1,,,,,,,,,0,,,61,95
284880,note_on,0,0,1,,,,,,,,,0,,,64,95
285083,note_on,682,0,0,,,,,,,,,0,,,81,0
285083,note_on,0,0,0,,,,,,,,,0,,,93,0
285107,note_on,227,0,1,,,,,,,,,0,,,51,0
285107,note_on,0,0,1,,,,,,,,,0,,,64,0
285107,note_on,0,0,1,,,,,,,,,0,,,61,0
285107,note_on,0,0,1,,,,,,,,,0,,,56,0
285120,note_on,37,0,0,,,,,,,,,0,,,80,115
285120,note_on,0,0,0,,,,,,,,,0,,,92,115
285120,note_on,13,0,1,,,,,,,,,0,,,51,95
285120,note_on,0,0,1,,,,,,,,,0,,,64,95
285120,note_on,0,0,1,,,,,,,,,0,,,61,95
285120,note_on,0,0,1,,,,,,,,,0,,,56,95
285347,note_on,0,0,1,,,,,,,,,0,,,56,0
285347,note_on,227,0,0,,,,,,,,,0,,,80,0
285347,note_on,227,0,1,,,,,,,,,0,,,51,0
285347,note_on,0,0,0,,,,,,,,,0,,,92,0
285347,note_on,0,0,1,,,,,,,,,0,,,64,0
285347,note_on,0,0,1,,,,,,,,,0,,,61,0
285360,note_on,13,0,1,,,,,,,,,0,,,51,95
285360,note_on,0,0,0,,,,,,,,,0,,,100,115
285360,note_on,0,0,1,,,,,,,,,0,,,61,95
285360,note_on,0,0,1,,,,,,,,,0,,,64,95
285360,set_tempo,13,1,0,,,,,,571429,,,,,,,
285360,note_on,0,0,0,,,,,,,,,0,,,88,115
285360,note_on,0,0,1,,,,,,,,,0,,,56,95
285587,note_on,0,0,1,,,,,,,,,0,,,56,0
285587,note_on,0,0,1,,,,,,,,,0,,,61,0
285587,note_on,0,0,1,,,,,,,,,0,,,64,0
285587,note_on,227,0,1,,,,,,,,,0,,,51,0
285587,note_on,0,0,0,,,,,,,,,0,,,100,0
285587,note_on,227,0,0,,,,,,,,,0,,,88,0
285600,note_on,0,0,1,,,,,,,,,0,,,61,95
285600,note_on,0,0,0,,,,,,,,,0,,,99,115
285600,note_on,0,0,0,,,,,,,,,0,,,87,115
285600,set_tempo,13,1,0,,,,,,463320,,,,,,,
285600,note_on,0,0,1,,,,,,,,,0,,,64,95
285600,note_on,0,0,1,,,,,,,,,0,,,56,95
285600,note_on,13,0,1,,,,,,,,,0,,,51,95
285827,note_on,0,0,0,,,,,,,,,0,,,99,0
285827,note_on,0,0,1,,,,,,,,,0,,,56,0
285827,note_on,0,0,1,,,,,,,,,0,,,61,0
285827,note_on,227,0,0,,,,,,,,,0,,,87,0
285827,note_on,0,0,1,,,,,,,,,0,,,64,0
285827,note_on,227,0,1,,,,,,,,,0,,,51,0
285840,note_on,0,0,1,,,,,,,,,0,,,64,95
285840,note_on,0,0,0,,,,,,,,,0,,,97,115
285840,note_on,13,0,1,,,,,,,,,0,,,51,95
285840,note_on,0,0,1,,,,,,,,,0,,,61,95
285840,note_on,0,0,0,,,,,,,,,0,,,85,115
285840,set_tempo,13,1,0,,,,,,420463,,,,,,,
285840,note_on,0,0,1,,,,,,,,,0,,,56,95
286067,note_on,227,0,1,,,,,,,,,0,,,51,0
286067,note_on,0,0,1,,,,,,,,,0,,,61,0
286067,note_on,227,0,0,,,,,,,,,0,,,85,0
286067,note_on,0,0,1,,,,,,,,,0,,,56,0
286067,note_on,0,0,1,,,,,,,,,0,,,64,0
286067,note_on,0,0,0,,,,,,,,,0,,,97,0
286080,note_on,0,0,1,,,,,,,,,0,,,64,95
286080,note_on,0,0,0,,,,,,,,,0,,,83,115
286080,note_on,0,0,1,,,,,,,,,0,,,61,95
286080,set_tempo,13,1,0,,,,,,390625,,,,,,,
286080,note_on,0,0,1,,,,,,,,,0,,,56,95
286080,note_on,0,0,0,,,,,,,,,0,,,95,115
286080,note_on,13,0,1,,,,,,,,,0,,,51,95
286307,note_on,0,0,1,,,,,,,,,0,,,64,0
286307,note_on,0,0,1,,,,,,,,,0,,,61,0
286307,note_on,227,0,0,,,,,,,,,0,,,83,0
286307,note_on,0,0,1,,,,,,,,,0,,,56,0
286307,note_on,227,0,1,,,,,,,,,0,,,51,0
286307,note_on,0,0,0,,,,,,,,,0,,,95,0
286320,note_on,0,0,1,,,,,,,,,0,,,64,95
286320,note_on,13,0,1,,,,,,,,,0,,,51,95
286320,note_on,0,0,0,,,,,,,,,0,,,81,115
286320,note_on,0,0,0,,,,,,,,,0,,,93,115
286320,set_tempo,13,1,0,,,,,,367647,,,,,,,
286320,note_on,0,0,1,,,,,,,,,0,,,56,95
286320,note_on,0,0,1,,,,,,,,,0,,,61,95
286547,note_on,0,0,1,,,,,,,,,0,,,64,0
286547,note_on,0,0,1,,,,,,,,,0,,,56,0
286547,note_on,227,0,1,,,,,,,,,0,,,51,0
286547,note_on,0,0,1,,,,,,,,,0,,,61,0
286547,note_on,0,0,0,,,,,,,,,0,,,93,0
286547,note_on,227,0,0,,,,,,,,,0,,,81,0
286560,note_on,13,0,1,,,,,,,,,0,,,51,95
286560,note_on,0,0,0,,,,,,,,,0,,,92,115
286560,note_on,0,0,1,,,,,,,,,0,,,56,95
286560,note_on,0,0,0,,,,,,,,,0,,,80,115
286560,note_on,0,0,1,,,,,,,,,0,,,64,95
286560,set_tempo,13,1,0,,,,,,349040,,,,,,,
286560,note_on,0,0,1,,,,,,,,,0,,,61,95
286787,note_on,0,0,1,,,,,,,,,0,,,61,0
286787,note_on,0,0,1,,,,,,,,,0,,,64,0
286787,note_on,0,0,1,,,,,,,,,0,,,56,0
286787,note_on,227,0,0,,,,,,,,,0,,,80,0
286787,note_on,227,0,1,,,,,,,,,0,,,51,0
286787,note_on,0,0,0,,,,,,,,,0,,,92,0
286800,note_on,0,0,0,,,,,,,,,0,,,90,115
286800,note_on,0,0,1,,,,,,,,,0,,,56,95
286800,note_on,0,0,1,,,,,,,,,0,,,61,95
286800,note_on,0,0,1,,,,,,,,,0,,,64,95
286800,note_on,13,0,1,,,,,,,,,0,,,51,95
286800,note_on,0,0,0,,,,,,,,,0,,,78,115
286800,set_tempo,13,1,0,,,,,,333333,,,,,,,
287027,note_on,227,0,0,,,,,,,,,0,,,78,0
287027,note_on,227,0,1,,,,,,,,,0,,,51,0
287027,note_on,0,0,1,,,,,,,,,0,,,64,0
287027,note_on,0,0,1,,,,,,,,,0,,,61,0
287027,note_on,0,0,1,,,,,,,,,0,,,56,0
287027,note_on,0,0,0,,,,,,,,,0,,,90,0
287040,note_on,0,0,1,,,,,,,,,0,,,56,95
287040,note_on,0,0,1,,,,,,,,,0,,,64,95
287040,note_on,0,0,1,,,,,,,,,0,,,61,95
287040,note_on,0,0,0,,,,,,,,,0,,,88,115
287040,note_on,13,0,1,,,,,,,,,0,,,51,95
287040,note_on,13,0,0,,,,,,,,,0,,,76,115
287267,note_on,227,0,0,,,,,,,,,0,,,76,0
287267,note_on,0,0,1,,,,,,,,,0,,,64,0
287267,note_on,0,0,1,,,,,,,,,0,,,61,0
287267,note_on,0,0,1,,,,,,,,,0,,,56,0
287267,note_on,227,0,1,,,,,,,,,0,,,51,0
287267,note_on,0,0,0,,,,,,,,,0,,,88,0
287280,set_tempo,13,1,0,,,,,,333333,,,,,,,
287280,note_on,13,0,1,,,,,,,,,0,,,51,95
287280,note_on,0,0,0,,,,,,,,,0,,,75,115
287280,note_on,0,0,1,,,,,,,,,0,,,64,95
287280,note_on,0,0,0,,,,,,,,,0,,,87,115
287280,note_on,0,0,1,,,,,,,,,0,,,61,95
287280,note_on,0,0,1,,,,,,,,,0,,,56,95
287507,note_on,227,0,0,,,,,,,,,0,,,75,0
287507,note_on,0,0,1,,,,,,,,,0,,,61,0
287507,note_on,0,0,1,,,,,,,,,0,,,56,0
287507,note_on,0,0,1,,,,,,,,,0,,,64,0
287507,note_on,227,0,1,,,,,,,,,0,,,51,0
287507,note_on,0,0,0,,,,,,,,,0,,,87,0
287520,set_tempo,13,1,0,,,,,,324324,,,,,,,
287520,note_on,0,0,0,,,,,,,,,0,,,88,115
287520,note_on,0,0,0,,,,,,,,,0,,,76,115
287520,note_on,0,0,1,,,,,,,,,0,,,64,95
287520,note_on,13,0,1,,,,,,,,,0,,,51,95
287520,note_on,0,0,1,,,,,,,,,0,,,56,95
287520,note_on,0,0,1,,,,,,,,,0,,,61,95
287747,note_on,0,0,1,,,,,,,,,0,,,56,0
287747,note_on,0,0,1,,,,,,,,,0,,,61,0
287747,note_on,0,0,1,,,,,,,,,0,,,64,0
287747,note_on,0,0,0,,,,,,,,,0,,,88,0
287747,note_on,227,0,0,,,,,,,,,0,,,76,0
287747,note_on,227,0,1,,,,,,,,,0,,,51,0
287760,set_tempo,13,1,0,,,,,,315789,,,,,,,
287760,note_on,0,0,1,,,,,,,,,0,,,61,95
287760,note_on,0,0,1,,,,,,,,,0,,,64,95
287760,note_on,13,0,1,,,,,,,,,0,,,51,95
287760,note_on,0,0,0,,,,,,,,,0,,,84,115
287760,note_on,0,0,1,,,,,,,,,0,,,56,95
287760,note_on,0,0,0,,,,,,,,,0,,,72,115
287987,note_on,0,0,1,,,,,,,,,0,,,56,0
287987,note_on,0,0,0,,,,,,,,,0,,,84,0
287987,note_on,227,0,0,,,,,,,,,0,,,72,0
287987,note_on,227,0,1,,,,,,,,,0,,,51,0
287987,note_on,0,0,1,,,,,,,,,0,,,64,0
287987,note_on,0,0,1,,,,,,,,,0,,,61,0
288000,note_on,0,0,0,,,,,,,,,0,,,73,115
288000,note_on,0,0,1,,,,,,,,,0,,,64,95
288000,note_on,0,0,1,,,,,,,,,0,,,56,95
288000,note_on,0,0,1,,,,,,,,,0,,,61,95
288000,note_on,0,0,0,,,,,,,,,0,,,85,115
288000,note_on,13,0,1,,,,,,,,,0,,,51,95
288000,set_tempo,13,1,0,,,,,,307692,,,,,,,
288227,note_on,0,0,0,,,,,,,,,0,,,85,0
288227,note_on,0,0,1,,,,,,,,,0,,,56,0
288227,note_on,0,0,1,,,,,,,,,0,,,61,0
288227,note_on,0,0,1,,,,,,,,,0,,,64,0
288227,note_on,227,0,1,,,,,,,,,0,,,51,0
288227,note_on,227,0,0,,,,,,,,,0,,,73,0
288240,note_on,13,0,1,,,,,,,,,0,,,51,95
288240,set_tempo,13,1,0,,,,,,300000,,,,,,,
288240,note_on,0,0,1,,,,,,,,,0,,,56,95
288240,note_on,0,0,1,,,,,,,,,0,,,61,95
288240,note_on,0,0,1,,,,,,,,,0,,,64,95
288240,note_on,0,0,0,,,,,,,,,0,,,67,115
288240,note_on,0,0,0,,,,,,,,,0,,,79,115
288467,note_on,0,0,0,,,,,,,,,0,,,79,0
288467,note_on,0,0,1,,,,,,,,,0,,,64,0
288467,note_on,227,0,0,,,,,,,,,0,,,67,0
288467,note_on,0,0,1,,,,,,,,,0,,,61,0
288467,note_on,0,0,1,,,,,,,,,0,,,56,0
288467,note_on,227,0,1,,,,,,,,,0,,,51,0
288480,note_on,13,0,1,,,,,,,,,0,,,51,95
288480,note_on,0,0,1,,,,,,,,,0,,,61,95
288480,note_on,13,0,0,,,,,,,,,0,,,68,115
288480,note_on,0,0,1,,,,,,,,,0,,,56,95
288480,note_on,0,0,1,,,,,,,,,0,,,64,95
288480,note_on,0,0,0,,,,,,,,,0,,,80,115
288707,note_on,227,0,1,,,,,,,,,0,,,51,0
288707,note_on,0,0,0,,,,,,,,,0,,,80,0
288707,note_on,0,0,1,,,,,,,,,0,,,64,0
288707,note_on,0,0,1,,,,,,,,,0,,,56,0
288707,note_on,0,0,1,,,,,,,,,0,,,61,0
288707,note_on,227,0,0,,,,,,,,,0,,,68,0
288720,note_on,0,0,0,,,,,,,,,0,,,69,115
288720,note_on,0,0,0,,,,,,,,,0,,,81,115
288720,note_on,0,0,1,,,,,,,,,0,,,56,95
288720,note_on,0,0,1,,,,,,,,,0,,,61,95
288720,note_on,13,0,1,,,,,,,,,0,,,51,95
288720,note_on,0,0,1,,,,,,,,,0,,,64,95
288720,set_tempo,13,1,0,,,,,,400000,,,,,,,
288871,note_on,151,0,0,,,,,,,,,0,,,69,0
288871,note_on,0,0,0,,,,,,,,,0,,,81,0
288880,note_on,9,0,0,,,,,,,,,0,,,70,115
288880,note_on,0,0,0,,,,,,,,,0,,,82,115
288945,note_on,225,0,1,,,,,,,,,0,,,51,0
288945,note_on,0,0,1,,,,,,,,,0,,,61,0
288945,note_on,0,0,1,,,,,,,,,0,,,64,0
288945,note_on,0,0,1,,,,,,,,,0,,,56,0
288959,note_on,0,0,1,,,,,,,,,0,,,56,95
288959,note_on,0,0,1,,,,,,,,,0,,,61,95
288959,note_on,14,0,1,,,,,,,,,0,,,51,95
288959,note_on,0,0,1,,,,,,,,,0,,,64,95
289031,note_on,151,0,0,,,,,,,,,0,,,70,0
289031,note_on,0,0,0,,,,,,,,,0,,,82,0
289040,note_on,9,0,0,,,,,,,,,0,,,71,115
289040,note_on,0,0,0,,,,,,,,,0,,,83,115
289184,note_on,0,0,1,,,,,,,,,0,,,56,0
289184,note_on,0,0,1,,,,,,,,,0,,,61,0
289184,note_on,0,0,1,,,,,,,,,0,,,64,0
289184,note_on,225,0,1,,,,,,,,,0,,,51,0
289191,note_on,151,0,0,,,,,,,,,0,,,71,0
289191,note_on,0,0,0,,,,,,,,,0,,,83,0
289198,note_on,0,0,1,,,,,,,,,0,,,56,95
289198,note_on,0,0,1,,,,,,,,,0,,,61,95
289198,note_on,0,0,1,,,,,,,,,0,,,64,95
289198,note_on,14,0,1,,,,,,,,,0,,,51,95
289200,note_on,9,0,0,,,,,,,,,0,,,72,115
289200,note_on,0,0,0,,,,,,,,,0,,,84,115
289313,note_on,0,0,0,,,,,,,,,0,,,84,0
289313,note_on,113,0,0,,,,,,,,,0,,,72,0
289320,note_on,0,0,0,,,,,,,,,0,,,85,115
289320,note_on,7,0,0,,,,,,,,,0,,,73,115
289423,note_on,0,0,1,,,,,,,,,0,,,56,0
289423,note_on,0,0,1,,,,,,,,,0,,,64,0
289423,note_on,0,0,1,,,,,,,,,0,,,61,0
289423,note_on,225,0,1,,,,,,,,,0,,,51,0
289433,note_on,0,0,0,,,,,,,,,0,,,85,0
289433,note_on,113,0,0,,,,,,,,,0,,,73,0
289437,note_on,0,0,1,,,,,,,,,0,,,64,95
289437,note_on,0,0,1,,,,,,,,,0,,,61,95
289437,note_on,0,0,1,,,,,,,,,0,,,56,95
289437,note_on,14,0,1,,,,,,,,,0,,,51,95
289440,note_on,0,0,0,,,,,,,,,0,,,86,115
289440,note_on,7,0,0,,,,,,,,,0,,,74,115
289553,note_on,113,0,0,,,,,,,,,0,,,74,0
289553,note_on,0,0,0,,,,,,,,,0,,,86,0
289560,note_on,7,0,0,,,,,,,,,0,,,75,115
289560,note_on,0,0,0,,,,,,,,,0,,,87,115
289662,note_on,225,0,1,,,,,,,,,0,,,51,0
289662,note_on,0,0,1,,,,,,,,,0,,,56,0
289662,note_on,0,0,1,,,,,,,,,0,,,61,0
289662,note_on,0,0,1,,,,,,,,,0,,,64,0
289673,note_on,0,0,0,,,,,,,,,0,,,87,0
289673,note_on,113,0,0,,,,,,,,,0,,,75,0
289676,note_on,14,0,1,,,,,,,,,0,,,51,95
289676,note_on,0,0,1,,,,,,,,,0,,,64,95
289676,note_on,0,0,1,,,,,,,,,0,,,61,95
289676,note_on,0,0,1,,,,,,,,,0,,,56,95
289680,set_tempo,7,1,0,,,,,,500000,,,,,,,
289680,note_on,0,0,0,,,,,,,,,0,,,90,115
289680,note_on,0,0,0,,,,,,,,,0,,,78,115
289901,note_on,0,0,1,,,,,,,,,0,,,56,0
289901,note_on,0,0,1,,,,,,,,,0,,,64,0
289901,note_on,0,0,1,,,,,,,,,0,,,61,0
289901,note_on,225,0,1,,,,,,,,,0,,,51,0
289907,note_on,227,0,0,,,,,,,,,0,,,78,0
289907,note_on,0,0,0,,,,,,,,,0,,,90,0
289915,note_on,0,0,1,,,,,,,,,0,,,61,95
289915,note_on,0,0,1,,,,,,,,,0,,,64,95
289915,note_on,14,0,1,,,,,,,,,0,,,51,95
289915,note_on,0,0,1,,,,,,,,,0,,,56,95
290040,note_on,0,0,0,,,,,,,,,0,,,88,115
290040,note_on,133,0,0,,,,,,,,,0,,,76,115
290140,note_on,0,0,1,,,,,,,,,0,,,56,0
290140,note_on,0,0,1,,,,,,,,,0,,,61,0
290140,note_on,0,0,1,,,,,,,,,0,,,64,0
290140,note_on,225,0,1,,,,,,,,,0,,,51,0
290153,note_on,0,0,0,,,,,,,,,0,,,88,0
290153,note_on,113,0,0,,,,,,,,,0,,,76,0
290160,note_on,0,0,0,,,,,,,,,0,,,88,127
290160,note_on,0,0,0,,,,,,,,,0,,,76,127
290160,note_on,0,0,1,,,,,,,,,0,,,58,95
290160,note_on,0,0,1,,,,,,,,,0,,,61,95
290160,note_on,0,0,1,,,,,,,,,0,,,64,95
290160,note_on,0,0,1,,,,,,,,,0,,,55,95
290160,set_tempo,7,1,0,,,,,,500000,,,,,,,
290160,note_on,20,0,1,,,,,,,,,0,,,51,95
290385,note_on,0,0,1,,,,,,,,,0,,,58,0
290385,note_on,0,0,1,,,,,,,,,0,,,61,0
290385,note_on,0,0,1,,,,,,,,,0,,,64,0
290385,note_on,0,0,1,,,,,,,,,0,,,55,0
290385,note_on,225,0,1,,,,,,,,,0,,,51,0
290399,note_on,14,0,1,,,,,,,,,0,,,51,95
290399,note_on,0,0,1,,,,,,,,,0,,,55,95
290399,note_on,0,0,1,,,,,,,,,0,,,58,95
290399,note_on,0,0,1,,,,,,,,,0,,,61,95
290399,note_on,0,0,1,,,,,,,,,0,,,64,95
290624,note_on,0,0,1,,,,,,,,,0,,,58,0
290624,note_on,0,0,1,,,,,,,,,0,,,61,0
290624,note_on,0,0,1,,,,,,,,,0,,,64,0
290624,note_on,0,0,1,,,,,,,,,0,,,55,0
290624,note_on,225,0,1,,,,,,,,,0,,,51,0
290638,note_on,0,0,1,,,,,,,,,0,,,64,95
290638,note_on,0,0,1,,,,,,,,,0,,,61,95
290638,note_on,0,0,1,,,,,,,,,0,,,58,95
290638,note_on,14,0,1,,,,,,,,,0,,,51,95
290638,note_on,0,0,1,,,,,,,,,0,,,55,95
290641,note_on,481,0,0,,,,,,,,,0,,,76,0
290641,note_on,0,0,0,,,,,,,,,0,,,88,0
290863,note_on,225,0,1,,,,,,,,,0,,,51,0
290863,note_on,0,0,1,,,,,,,,,0,,,58,0
290863,note_on,0,0,1,,,,,,,,,0,,,61,0
290863,note_on,0,0,1,,,,,,,,,0,,,55,0
290863,note_on,0,0,1,,,,,,,,,0,,,64,0
290877,note_on,0,0,1,,,,,,,,,0,,,61,94
290877,note_on,14,0,1,,,,,,,,,0,,,51,94
290877,note_on,0,0,1,,,,,,,,,0,,,64,94
290877,note_on,0,0,1,,,,,,,,,0,,,55,94
290877,note_on,0,0,1,,,,,,,,,0,,,58,94
290880,note_on,0,0,0,,,,,,,,,0,,,85,119
290880,set_tempo,239,1,0,,,,,,434783,,,,,,,
291102,note_on,0,0,1,,,,,,,,,0,,,58,0
291102,note_on,225,0,1,,,,,,,,,0,,,51,0
291102,note_on,0,0,1,,,,,,,,,0,,,61,0
291102,note_on,0,0,1,,,,,,,,,0,,,64,0
291102,note_on,0,0,1,,,,,,,,,0,,,55,0
291116,note_on,0,0,1,,,,,,,,,0,,,58,94
291116,note_on,14,0,1,,,,,,,,,0,,,51,94
291116,note_on,0,0,1,,,,,,,,,0,,,55,94
291116,note_on,0,0,1,,,,,,,,,0,,,64,94
291116,note_on,0,0,1,,,,,,,,,0,,,61,94
291119,note_on,239,0,0,,,,,,,,,0,,,85,0
291120,set_tempo,1,1,0,,,,,,416667,,,,,,,
291120,note_on,0,0,0,,,,,,,,,0,,,79,119
291341,note_on,0,0,1,,,,,,,,,0,,,61,0
291341,note_on,0,0,1,,,,,,,,,0,,,58,0
291341,note_on,0,0,1,,,,,,,,,0,,,55,0
291341,note_on,225,0,1,,,,,,,,,0,,,51,0
291341,note_on,0,0,1,,,,,,,,,0,,,64,0
291355,note_on,14,0,1,,,,,,,,,0,,,51,93
291355,note_on,0,0,1,,,,,,,,,0,,,58,93
291355,note_on,0,0,1,,,,,,,,,0,,,55,93
291355,note_on,0,0,1,,,,,,,,,0,,,61,93
291355,note_on,0,0,1,,,,,,,,,0,,,64,93
291359,note_on,239,0,0,,,,,,,,,0,,,79,0
291360,set_tempo,1,1,0,,,,,,400000,,,,,,,
291360,note_on,0,0,0,,,,,,,,,0,,,80,118
291580,note_on,0,0,1,,,,,,,,,0,,,55,0
291580,note_on,0,0,1,,,,,,,,,0,,,58,0
291580,note_on,0,0,1,,,,,,,,,0,,,61,0
291580,note_on,0,0,1,,,,,,,,,0,,,64,0
291580,note_on,225,0,1,,,,,,,,,0,,,51,0
291587,note_on,227,0,0,,,,,,,,,0,,,80,0
291600,note_on,0,0,1,,,,,,,,,0,,,58,91
291600,note_on,0,0,1,,,,,,,,,0,,,61,91
291600,note_on,0,0,1,,,,,,,,,0,,,64,91
291600,note_on,20,0,1,,,,,,,,,0,,,51,91
291600,note_on,0,0,1,,,,,,,,,0,,,55,91
291600,note_on,13,0,0,,,,,,,,,0,,,80,127
291676,note_on,76,0,0,,,,,,,,,0,,,80,0
291677,note_on,1,0,0,,,,,,,,,0,,,83,127
291825,note_on,225,0,1,,,,,,,,,0,,,51,0
291825,note_on,0,0,1,,,,,,,,,0,,,64,0
291825,note_on,0,0,1,,,,,,,,,0,,,55,0
291825,note_on,0,0,1,,,,,,,,,0,,,58,0
291825,note_on,0,0,1,,,,,,,,,0,,,61,0
291839,note_on,0,0,1,,,,,,,,,0,,,55,91
291839,note_on,0,0,1,,,,,,,,,0,,,58,91
291839,note_on,14,0,1,,,,,,,,,0,,,51,91
291839,note_on,0,0,1,,,,,,,,,0,,,64,91
291839,note_on,0,0,1,,,,,,,,,0,,,61,91
292064,note_on,0,0,1,,,,,,,,,0,,,55,0
292064,note_on,0,0,1,,,,,,,,,0,,,58,0
292064,note_on,225,0,1,,,,,,,,,0,,,51,0
292064,note_on,0,0,1,,,,,,,,,0,,,64,0
292064,note_on,0,0,1,,,,,,,,,0,,,61,0
292078,note_on,14,0,1,,,,,,,,,0,,,51,90
292078,note_on,0,0,1,,,,,,,,,0,,,58,90
292078,note_on,0,0,1,,,,,,,,,0,,,61,90
292078,note_on,0,0,1,,,,,,,,,0,,,64,90
292078,note_on,0,0,1,,,,,,,,,0,,,55,90
292105,note_on,428,0,0,,,,,,,,,0,,,83,0
292303,note_on,0,0,1,,,,,,,,,0,,,64,0
292303,note_on,0,0,1,,,,,,,,,0,,,61,0
292303,note_on,0,0,1,,,,,,,,,0,,,58,0
292303,note_on,225,0,1,,,,,,,,,0,,,51,0
292303,note_on,0,0,1,,,,,,,,,0,,,55,0
292317,note_on,14,0,1,,,,,,,,,0,,,51,90
292317,note_on,0,0,1,,,,,,,,,0,,,64,90
292317,note_on,0,0,1,,,,,,,,,0,,,61,90
292317,note_on,0,0,1,,,,,,,,,0,,,58,90
292317,note_on,0,0,1,,,,,,,,,0,,,55,90
292320,note_on,215,0,0,,,,,,,,,0,,,82,117
292542,note_on,0,0,1,,,,,,,,,0,,,58,0
292542,note_on,0,0,1,,,,,,,,,0,,,64,0
292542,note_on,0,0,1,,,,,,,,,0,,,61,0
292542,note_on,0,0,1,,,,,,,,,0,,,55,0
292542,note_on,225,0,1,,,,,,,,,0,,,51,0
292556,note_on,0,0,1,,,,,,,,,0,,,58,89
292556,note_on,0,0,1,,,,,,,,,0,,,55,89
292556,note_on,0,0,1,,,,,,,,,0,,,61,89
292556,note_on,0,0,1,,,,,,,,,0,,,64,89
292556,note_on,14,0,1,,,,,,,,,0,,,51,89
292559,note_on,239,0,0,,,,,,,,,0,,,82,0
292560,note_on,1,0,0,,,,,,,,,0,,,73,116
292719,note_on,159,0,0,,,,,,,,,0,,,73,0
292720,note_on,1,0,0,,,,,,,,,0,,,74,116
292781,note_on,225,0,1,,,,,,,,,0,,,51,0
292781,note_on,0,0,1,,,,,,,,,0,,,58,0
292781,note_on,0,0,1,,,,,,,,,0,,,55,0
292781,note_on,0,0,1,,,,,,,,,0,,,64,0
292781,note_on,0,0,1,,,,,,,,,0,,,61,0
292795,note_on,0,0,1,,,,,,,,,0,,,55,89
292795,note_on,0,0,1,,,,,,,,,0,,,58,89
292795,note_on,0,0,1,,,,,,,,,0,,,64,89
292795,note_on,0,0,1,,,,,,,,,0,,,61,89
292795,note_on,14,0,1,,,,,,,,,0,,,51,89
292879,note_on,159,0,0,,,,,,,,,0,,,74,0
292880,note_on,1,0,0,,,,,,,,,0,,,75,116
293020,note_on,0,0,1,,,,,,,,,0,,,55,0
293020,note_on,0,0,1,,,,,,,,,0,,,58,0
293020,note_on,0,0,1,,,,,,,,,0,,,61,0
293020,note_on,0,0,1,,,,,,,,,0,,,64,0
293020,note_on,225,0,1,,,,,,,,,0,,,51,0
293031,note_on,151,0,0,,,,,,,,,0,,,75,0
293040,set_tempo,0,1,0,,,,,,375000,,,,,,,
293040,note_on,0,0,1,,,,,,,,,0,,,55,85
293040,note_on,0,0,0,,,,,,,,,0,,,75,127
293040,time_signature,9,1,0,7,4,24,8,,,,,,,,,
293040,note_on,0,0,1,,,,,,,,,0,,,61,85
293040,note_on,0,0,1,,,,,,,,,0,,,64,85
293040,note_on,20,0,1,,,,,,,,,0,,,51,85
293121,note_on,81,0,0,,,,,,,,,0,,,75,0
293122,note_on,1,0,0,,,,,,,,,0,,,78,127
293264,note_on,0,0,1,,,,,,,,,0,,,55,0
293264,note_on,0,0,1,,,,,,,,,0,,,61,0
293264,note_on,0,0,1,,,,,,,,,0,,,64,0
293264,note_on,224,0,1,,,,,,,,,0,,,51,0
293278,note_on,0,0,1,,,,,,,,,0,,,55,85
293278,note_on,14,0,1,,,,,,,,,0,,,51,85
293278,note_on,0,0,1,,,,,,,,,0,,,61,85
293278,note_on,0,0,1,,,,,,,,,0,,,64,85
293502,note_on,0,0,1,,,,,,,,,0,,,55,0
293502,note_on,0,0,1,,,,,,,,,0,,,61,0
293502,note_on,224,0,1,,,,,,,,,0,,,51,0
293502,note_on,0,0,1,,,,,,,,,0,,,64,0
293517,note_on,15,0,1,,,,,,,,,0,,,51,85
293517,note_on,0,0,1,,,,,,,,,0,,,55,85
293517,note_on,0,0,1,,,,,,,,,0,,,64,85
293517,note_on,0,0,1,,,,,,,,,0,,,61,85
293547,note_on,425,0,0,,,,,,,,,0,,,78,0
293741,note_on,0,0,1,,,,,,,,,0,,,55,0
293741,note_on,224,0,1,,,,,,,,,0,,,51,0
293741,note_on,0,0,1,,,,,,,,,0,,,64,0
293741,note_on,0,0,1,,,,,,,,,0,,,61,0
293755,note_on,0,0,1,,,,,,,,,0,,,64,85
293755,note_on,0,0,1,,,,,,,,,0,,,61,85
293755,note_on,0,0,1,,,,,,,,,0,,,55,85
293755,note_on,14,0,1,,,,,,,,,0,,,51,85
293760,note_on,0,0,0,,,,,,,,,0,,,76,108
293760,set_tempo,213,1,0,,,,,,413793,,,,,,,
293979,note_on,0,0,1,,,,,,,,,0,,,55,0
293979,note_on,224,0,1,,,,,,,,,0,,,51,0
293979,note_on,0,0,1,,,,,,,,,0,,,64,0
293979,note_on,0,0,1,,,,,,,,,0,,,61,0
293994,note_on,15,0,1,,,,,,,,,0,,,51,85
293994,note_on,0,0,1,,,,,,,,,0,,,64,85
293994,note_on,0,0,1,,,,,,,,,0,,,55,85
293994,note_on,0,0,1,,,,,,,,,0,,,61,85
293999,note_on,239,0,0,,,,,,,,,0,,,76,0
294000,note_on,1,0,0,,,,,,,,,0,,,67,108
294159,note_on,159,0,0,,,,,,,,,0,,,67,0
294160,note_on,1,0,0,,,,,,,,,0,,,68,107
294218,note_on,0,0,1,,,,,,,,,0,,,64,0
294218,note_on,0,0,1,,,,,,,,,0,,,61,0
294218,note_on,0,0,1,,,,,,,,,0,,,55,0
294218,note_on,224,0,1,,,,,,,,,0,,,51,0
294232,note_on,0,0,1,,,,,,,,,0,,,64,84
294232,note_on,0,0,1,,,,,,,,,0,,,55,84
294232,note_on,0,0,1,,,,,,,,,0,,,61,84
294232,note_on,14,0,1,,,,,,,,,0,,,51,84
294319,note_on,159,0,0,,,,,,,,,0,,,68,0
294320,note_on,1,0,0,,,,,,,,,0,,,69,107
294456,note_on,0,0,1,,,,,,,,,0,,,64,0
294456,note_on,0,0,1,,,,,,,,,0,,,61,0
294456,note_on,0,0,1,,,,,,,,,0,,,55,0
294456,note_on,224,0,1,,,,,,,,,0,,,51,0
294471,note_on,0,0,1,,,,,,,,,0,,,55,84
294471,note_on,151,0,0,,,,,,,,,0,,,69,0
294471,note_on,15,0,1,,,,,,,,,0,,,51,84
294471,note_on,0,0,1,,,,,,,,,0,,,61,84
294471,note_on,0,0,1,,,,,,,,,0,,,64,84
294480,set_tempo,9,1,0,,,,,,473934,,,,,,,
294480,note_on,0,0,0,,,,,,,,,0,,,69,117
294539,note_on,59,0,0,,,,,,,,,0,,,69,0
294540,note_on,1,0,0,,,,,,,,,0,,,72,106
294579,note_on,39,0,0,,,,,,,,,0,,,72,0
294600,note_on,0,0,0,,,,,,,,,0,,,70,107
294600,set_tempo,21,1,0,,,,,,498753,,,,,,,
294695,note_on,224,0,1,,,,,,,,,0,,,51,0
294695,note_on,0,0,1,,,,,,,,,0,,,55,0
294695,note_on,0,0,1,,,,,,,,,0,,,61,0
294695,note_on,0,0,1,,,,,,,,,0,,,64,0
294719,note_on,119,0,0,,,,,,,,,0,,,70,0
294720,set_tempo,1,1,0,,,,,,520382,,,,,,,
294720,note_on,0,0,0,,,,,,,,,0,,,61,106
294839,note_on,119,0,0,,,,,,,,,0,,,61,0
294840,note_on,0,0,0,,,,,,,,,0,,,63,106
294840,set_tempo,1,1,0,,,,,,541028,,,,,,,
294953,note_on,113,0,0,,,,,,,,,0,,,63,0
294960,note_on,0,0,0,,,,,,,,,0,,,63,116
294960,set_tempo,7,1,0,,,,,,561272,,,,,,,
295014,note_on,54,0,0,,,,,,,,,0,,,63,0
295015,note_on,1,0,0,,,,,,,,,0,,,66,105
295057,note_on,42,0,0,,,,,,,,,0,,,66,0
295080,set_tempo,23,1,0,,,,,,580833,,,,,,,
295080,note_on,0,0,0,,,,,,,,,0,,,64,106
295199,note_on,119,0,0,,,,,,,,,0,,,64,0
295200,note_on,1,0,0,,,,,,,,,0,,,55,105
295319,note_on,119,0,0,,,,,,,,,0,,,55,0
295320,note_on,1,0,0,,,,,,,,,0,,,56,105
295433,note_on,113,0,0,,,,,,,,,0,,,56,0
295440,note_on,7,0,0,,,,,,,,,0,,,56,115
295492,note_on,52,0,0,,,,,,,,,0,,,56,0
295493,note_on,1,0,0,,,,,,,,,0,,,59,104
295536,note_on,43,0,0,,,,,,,,,0,,,59,0
295560,note_on,24,0,0,,,,,,,,,0,,,58,105
295679,note_on,119,0,0,,,,,,,,,0,,,58,0
295680,note_on,1,0,0,,,,,,,,,0,,,49,105
295799,note_on,119,0,0,,,,,,,,,0,,,49,0
295800,note_on,1,0,0,,,,,,,,,0,,,51,104
295913,note_on,113,0,0,,,,,,,,,0,,,51,0
295920,note_on,7,0,0,,,,,,,,,0,,,51,114
295972,note_on,52,0,0,,,,,,,,,0,,,51,0
295973,note_on,1,0,0,,,,,,,,,0,,,54,103
296016,note_on,43,0,0,,,,,,,,,0,,,54,0
296040,note_on,24,0,0,,,,,,,,,0,,,52,104
296159,note_on,119,0,0,,,,,,,,,0,,,52,0
296160,note_on,1,0,0,,,,,,,,,0,,,43,104
296279,note_on,119,0,0,,,,,,,,,0,,,43,0
296280,note_on,1,0,0,,,,,,,,,0,,,44,104
296393,note_on,113,0,0,,,,,,,,,0,,,44,0
296400,note_on,0,0,0,,,,,,,,,0,,,44,112
296400,set_tempo,0,1,0,,,,,,600000,,,,,,,
296400,time_signature,7,1,0,6,4,24,8,,,,,,,,,
296450,note_on,50,0,0,,,,,,,,,0,,,44,0
296451,note_on,1,0,0,,,,,,,,,0,,,47,96
296495,note_on,44,0,0,,,,,,,,,0,,,47,0
296520,note_on,25,0,0,,,,,,,,,0,,,46,94
296639,note_on,119,0,0,,,,,,,,,0,,,46,0
296640,note_on,1,0,0,,,,,,,,,0,,,37,94
296759,note_on,119,0,0,,,,,,,,,0,,,37,0
296760,note_on,1,0,0,,,,,,,,,0,,,39,94
296873,note_on,113,0,0,,,,,,,,,0,,,39,0
296880,note_on,2185,0,1,,,,,,,,,0,,,39,97
296880,set_tempo,7,1,0,,,,,,1000000,,,,,,,
296936,note_on,56,0,1,,,,,,,,,0,,,39,0
296940,note_on,4,0,1,,,,,,,,,0,,,42,97
296996,note_on,56,0,1,,,,,,,,,0,,,42,0
297000,set_tempo,120,1,0,,,,,,300000,,,,,,,
297000,note_on,4,0,1,,,,,,,,,0,,,40,106
297963,note_on,963,0,1,,,,,,,,,0,,,40,0
298440,note_on,477,0,1,,,,,,,,,0,,,39,93
298440,set_tempo,1440,1,0,,,,,,600000,,,,,,,
298679,note_on,239,0,1,,,,,,,,,0,,,39,0
298680,set_tempo,240,1,0,,,,,,619835,,,,,,,
298680,note_on,1,0,1,,,,,,,,,0,,,33,93
298800,set_tempo,120,1,0,,,,,,639659,,,,,,,
298919,note_on,239,0,1,,,,,,,,,0,,,33,0
298920,set_tempo,120,1,0,,,,,,545455,,,,,,,
298920,note_on,1,0,1,,,,,,,,,0,,,34,93
299261,note_on,341,0,1,,,,,,,,,0,,,34,0
299280,note_on,19,0,1,,,,,,,,,0,,,41,106
299280,set_tempo,360,1,0,,,,,,545455,,,,,,,
300483,note_on,1203,0,1,,,,,,,,,0,,,41,0
300960,note_on,477,0,1,,,,,,,,,0,,,39,93
300960,set_tempo,1680,1,0,,,,,,600000,,,,,,,
301199,note_on,239,0,1,,,,,,,,,0,,,39,0
301200,set_tempo,240,1,0,,,,,,618557,,,,,,,
301200,note_on,1,0,1,,,,,,,,,0,,,33,93
301439,note_on,239,0,1,,,,,,,,,0,,,33,0
301440,note_on,1,0,1,,,,,,,,,0,,,34,93
301440,set_tempo,240,1,0,,,,,,688073,,,,,,,
301679,note_on,239,0,1,,,,,,,,,0,,,34,0
301680,set_tempo,240,1,0,,,,,,923077,,,,,,,
301680,note_on,1,0,1,,,,,,,,,0,,,37,93
301680,note_on,0,0,0,,,,,,,,,0,,,55,80
301680,note_on,0,0,0,,,,,,,,,0,,,58,80
301680,note_on,0,0,0,,,,,,,,,0,,,63,80
301919,note_on,239,0,1,,,,,,,,,0,,,37,0
301920,note_on,1,0,1,,,,,,,,,0,,,36,93
302135,note_on,0,0,0,,,,,,,,,0,,,63,0
302135,note_on,455,0,0,,,,,,,,,0,,,55,0
302135,note_on,0,0,0,,,,,,,,,0,,,58,0
302147,note_on,227,0,1,,,,,,,,,0,,,36,0
302160,set_tempo,25,1,0,,,,,,1333333,,,,,,,
302160,note_on,13,0,1,,,,,,,,,0,,,32,78
302162,control_change,2,0,1,,,,,,,64,127,0,,,,
302189,note_on,27,0,1,,,,,,,,,0,,,60,68
302219,note_on,30,0,1,,,,,,,,,0,,,63,68
302250,note_on,31,0,1,,,,,,,,,0,,,72,82
302398,note_on,148,0,1,,,,,,,,,0,,,60,0
302398,note_on,0,0,1,,,,,,,,,0,,,63,0
302399,note_on,1,0,1,,,,,,,,,0,,,32,0
302400,set_tempo,240,1,0,,,,,,797872,,,,,,,
302400,note_on,0,0,1,,,,,,,,,0,,,56,66
302400,note_on,0,0,0,,,,,,,,,0,,,60,68
302400,note_on,0,0,0,,,,,,,,,0,,,63,68
302400,note_on,0,0,1,,,,,,,,,0,,,51,66
302400,note_on,1,0,1,,,,,,,,,0,,,44,66
302625,note_on,0,0,1,,,,,,,,,0,,,51,0
302625,note_on,225,0,1,,,,,,,,,0,,,44,0
302625,note_on,0,0,1,,,,,,,,,0,,,56,0
302627,note_on,227,0,0,,,,,,,,,0,,,60,0
302627,note_on,0,0,0,,,,,,,,,0,,,63,0
302640,note_on,0,0,1,,,,,,,,,0,,,56,66
302640,note_on,0,0,0,,,,,,,,,0,,,63,68
302640,note_on,0,0,0,,,,,,,,,0,,,60,68
302640,note_on,0,0,1,,,,,,,,,0,,,51,66
302640,set_tempo,13,1,0,,,,,,741656,,,,,,,
302640,note_on,15,0,1,,,,,,,,,0,,,44,66
302855,note_on,215,0,1,,,,,,,,,0,,,72,0
302865,note_on,0,0,1,,,,,,,,,0,,,56,0
302865,note_on,0,0,1,,,,,,,,,0,,,51,0
302865,note_on,10,0,1,,,,,,,,,0,,,44,0
302867,note_on,0,0,0,,,,,,,,,0,,,63,0
302867,note_on,227,0,0,,,,,,,,,0,,,60,0
302880,note_on,15,0,1,,,,,,,,,0,,,44,66
302880,note_on,0,0,1,,,,,,,,,0,,,56,66
302880,note_on,0,0,1,,,,,,,,,0,,,51,66
302880,note_on,0,0,0,,,,,,,,,0,,,60,68
302880,set_tempo,13,1,0,,,,,,700117,,,,,,,
302880,note_on,0,0,0,,,,,,,,,0,,,71,82
302880,note_on,0,0,0,,,,,,,,,0,,,63,68
303105,note_on,225,0,1,,,,,,,,,0,,,44,0
303105,note_on,0,0,1,,,,,,,,,0,,,51,0
303105,note_on,0,0,1,,,,,,,,,0,,,56,0
303107,note_on,0,0,0,,,,,,,,,0,,,63,0
303107,note_on,0,0,0,,,,,,,,,0,,,60,0
303107,note_on,227,0,0,,,,,,,,,0,,,71,0
303120,note_on,15,0,1,,,,,,,,,0,,,44,66
303120,set_tempo,13,1,0,,,,,,681818,,,,,,,
303120,note_on,0,0,0,,,,,,,,,0,,,72,82
303120,note_on,0,0,0,,,,,,,,,0,,,63,68
303120,note_on,0,0,0,,,,,,,,,0,,,60,68
303120,note_on,0,0,1,,,,,,,,,0,,,56,66
303120,note_on,0,0,1,,,,,,,,,0,,,51,66
303345,note_on,225,0,1,,,,,,,,,0,,,44,0
303345,note_on,0,0,1,,,,,,,,,0,,,56,0
303345,note_on,0,0,1,,,,,,,,,0,,,51,0
303347,note_on,0,0,0,,,,,,,,,0,,,60,0
303347,note_on,0,0,0,,,,,,,,,0,,,63,0
303347,note_on,227,0,0,,,,,,,,,0,,,72,0
303360,note_on,0,0,1,,,,,,,,,0,,,51,66
303360,set_tempo,13,1,0,,,,,,652174,,,,,,,
303360,note_on,0,0,0,,,,,,,,,0,,,60,68
303360,note_on,0,0,0,,,,,,,,,0,,,63,68
303360,note_on,0,0,0,,,,,,,,,0,,,71,82
303360,note_on,15,0,1,,,,,,,,,0,,,44,66
303360,note_on,0,0,1,,,,,,,,,0,,,56,66
303585,note_on,225,0,1,,,,,,,,,0,,,44,0
303585,note_on,0,0,1,,,,,,,,,0,,,51,0
303585,note_on,0,0,1,,,,,,,,,0,,,56,0
303587,note_on,227,0,0,,,,,,,,,0,,,71,0
303587,note_on,0,0,0,,,,,,,,,0,,,60,0
303587,note_on,0,0,0,,,,,,,,,0,,,63,0
303600,note_on,15,0,1,,,,,,,,,0,,,44,66
303600,set_tempo,13,1,0,,,,,,631579,,,,,,,
303600,note_on,0,0,0,,,,,,,,,0,,,60,68
303600,note_on,0,0,1,,,,,,,,,0,,,51,66
303600,note_on,0,0,0,,,,,,,,,0,,,63,68
303600,note_on,0,0,0,,,,,,,,,0,,,72,82
303600,note_on,0,0,1,,,,,,,,,0,,,56,66
303825,note_on,0,0,1,,,,,,,,,0,,,51,0
303825,note_on,0,0,1,,,,,,,,,0,,,56,0
303825,note_on,225,0,1,,,,,,,,,0,,,44,0
303827,note_on,227,0,0,,,,,,,,,0,,,72,0
303827,note_on,0,0,0,,,,,,,,,0,,,63,0
303827,note_on,0,0,0,,,,,,,,,0,,,60,0
303840,note_on,13,0,0,,,,,,,,,0,,,71,82
303840,note_on,0,0,0,,,,,,,,,0,,,60,68
303840,note_on,0,0,1,,,,,,,,,0,,,56,66
303840,note_on,15,0,1,,,,,,,,,0,,,44,66
303840,note_on,0,0,1,,,,,,,,,0,,,51,66
303840,note_on,0,0,0,,,,,,,,,0,,,63,68
304065,note_on,0,0,1,,,,,,,,,0,,,56,0
304065,note_on,225,0,1,,,,,,,,,0,,,44,0
304065,note_on,0,0,1,,,,,,,,,0,,,51,0
304067,note_on,0,0,0,,,,,,,,,0,,,60,0
304067,note_on,227,0,0,,,,,,,,,0,,,71,0
304067,note_on,0,0,0,,,,,,,,,0,,,63,0
304080,note_on,13,0,0,,,,,,,,,0,,,72,82
304080,note_on,0,0,0,,,,,,,,,0,,,63,68
304080,note_on,0,0,1,,,,,,,,,0,,,51,66
304080,note_on,0,0,1,,,,,,,,,0,,,56,66
304080,note_on,15,0,1,,,,,,,,,0,,,44,66
304080,note_on,0,0,0,,,,,,,,,0,,,60,68
304305,note_on,225,0,1,,,,,,,,,0,,,44,0
304305,note_on,0,0,1,,,,,,,,,0,,,56,0
304305,note_on,0,0,1,,,,,,,,,0,,,51,0
304307,note_on,0,0,0,,,,,,,,,0,,,63,0
304307,note_on,0,0,0,,,,,,,,,0,,,60,0
304307,note_on,227,0,0,,,,,,,,,0,,,72,0
304320,note_on,0,0,1,,,,,,,,,0,,,56,67
304320,note_on,0,0,0,,,,,,,,,0,,,63,66
304320,note_on,0,0,0,,,,,,,,,0,,,60,66
304320,note_on,0,0,1,,,,,,,,,0,,,56,67
304320,note_on,13,0,0,,,,,,,,,0,,,70,82
304320,note_on,0,0,1,,,,,,,,,0,,,56,0
304320,note_on,0,0,1,,,,,,,,,0,,,51,67
304320,note_on,0,0,1,,,,,,,,,0,,,51,67
304320,note_on,0,0,1,,,,,,,,,0,,,51,0
304320,note_on,0,0,1,,,,,,,,,0,,,44,67
304320,note_on,15,0,1,,,,,,,,,0,,,44,67
304320,note_on,0,0,1,,,,,,,,,0,,,44,0
304546,note_on,226,0,1,,,,,,,,,0,,,44,0
304546,note_on,0,0,1,,,,,,,,,0,,,56,0
304546,note_on,0,0,1,,,,,,,,,0,,,51,0
304547,note_on,227,0,0,,,,,,,,,0,,,70,0
304547,note_on,0,0,0,,,,,,,,,0,,,63,0
304547,note_on,0,0,0,,,,,,,,,0,,,60,0
304559,note_on,0,0,1,,,,,,,,,0,,,56,0
304559,note_on,0,0,1,,,,,,,,,0,,,51,0
304559,note_on,0,0,1,,,,,,,,,0,,,51,67
304559,note_on,0,0,1,,,,,,,,,0,,,51,67
304559,note_on,0,0,1,,,,,,,,,0,,,56,67
304559,note_on,0,0,1,,,,,,,,,0,,,56,67
304559,note_on,0,0,1,,,,,,,,,0,,,44,67
304559,note_on,13,0,1,,,,,,,,,0,,,44,67
304559,note_on,0,0,1,,,,,,,,,0,,,44,0
304560,note_on,0,0,0,,,,,,,,,0,,,63,66
304560,note_on,0,0,0,,,,,,,,,0,,,60,66
304560,note_on,13,0,0,,,,,,,,,0,,,68,82
304785,note_on,226,0,1,,,,,,,,,0,,,44,0
304785,note_on,0,0,1,,,,,,,,,0,,,56,0
304785,note_on,0,0,1,,,,,,,,,0,,,51,0
304787,note_on,0,0,0,,,,,,,,,0,,,60,0
304787,note_on,0,0,0,,,,,,,,,0,,,63,0
304787,note_on,227,0,0,,,,,,,,,0,,,68,0
304799,note_on,0,0,1,,,,,,,,,0,,,56,67
304799,note_on,0,0,1,,,,,,,,,0,,,56,67
304799,note_on,14,0,1,,,,,,,,,0,,,44,67
304799,note_on,0,0,1,,,,,,,,,0,,,44,0
304799,note_on,0,0,1,,,,,,,,,0,,,44,67
304799,note_on,0,0,1,,,,,,,,,0,,,51,0
304799,note_on,0,0,1,,,,,,,,,0,,,51,67
304799,note_on,0,0,1,,,,,,,,,0,,,51,67
304799,note_on,0,0,1,,,,,,,,,0,,,56,0
304800,note_on,0,0,0,,,,,,,,,0,,,60,66
304800,note_on,13,0,0,,,,,,,,,0,,,67,82
304800,note_on,0,0,0,,,,,,,,,0,,,63,66
305025,note_on,226,0,1,,,,,,,,,0,,,44,0
305025,note_on,0,0,1,,,,,,,,,0,,,56,0
305025,note_on,0,0,1,,,,,,,,,0,,,51,0
305027,note_on,0,0,0,,,,,,,,,0,,,60,0
305027,note_on,0,0,0,,,,,,,,,0,,,63,0
305027,note_on,227,0,0,,,,,,,,,0,,,67,0
305040,note_on,15,0,1,,,,,,,,,0,,,32,86
305040,note_on,13,0,0,,,,,,,,,0,,,65,82
305041,control_change,1,0,1,,,,,,,64,0,0,,,,
305042,control_change,1,0,1,,,,,,,64,127,0,,,,
305267,note_on,225,0,1,,,,,,,,,0,,,32,0
305267,note_on,227,0,0,,,,,,,,,0,,,65,0
305280,note_on,0,0,1,,,,,,,,,0,,,54,68
305280,note_on,0,0,1,,,,,,,,,0,,,51,68
305280,note_on,13,0,1,,,,,,,,,0,,,44,68
305280,note_on,0,0,0,,,,,,,,,0,,,60,68
305280,note_on,13,0,0,,,,,,,,,0,,,63,82
305280,note_on,0,0,0,,,,,,,,,0,,,56,68
305504,note_on,224,0,1,,,,,,,,,0,,,44,0
305504,note_on,0,0,1,,,,,,,,,0,,,54,0
305504,note_on,0,0,1,,,,,,,,,0,,,51,0
305506,note_on,0,0,0,,,,,,,,,0,,,60,0
305506,note_on,226,0,0,,,,,,,,,0,,,56,0
305507,note_on,1,0,0,,,,,,,,,0,,,63,0
305518,note_on,0,0,1,,,,,,,,,0,,,51,68
305518,note_on,14,0,1,,,,,,,,,0,,,44,68
305518,note_on,0,0,1,,,,,,,,,0,,,54,68
305519,note_on,0,0,0,,,,,,,,,0,,,60,68
305519,note_on,12,0,0,,,,,,,,,0,,,56,68
305520,note_on,1,0,0,,,,,,,,,0,,,62,82
305742,note_on,224,0,1,,,,,,,,,0,,,44,0
305742,note_on,0,0,1,,,,,,,,,0,,,54,0
305742,note_on,0,0,1,,,,,,,,,0,,,51,0
305745,note_on,225,0,0,,,,,,,,,0,,,56,0
305745,note_on,0,0,0,,,,,,,,,0,,,60,0
305747,note_on,2,0,0,,,,,,,,,0,,,62,0
305757,note_on,0,0,1,,,,,,,,,0,,,54,68
305757,note_on,15,0,1,,,,,,,,,0,,,44,68
305757,note_on,0,0,1,,,,,,,,,0,,,51,68
305759,note_on,12,0,0,,,,,,,,,0,,,56,68
305759,note_on,0,0,0,,,,,,,,,0,,,60,68
305760,note_on,0,0,0,,,,,,,,,0,,,63,82
305760,set_tempo,1,1,0,,,,,,631579,,,,,,,
305981,note_on,0,0,1,,,,,,,,,0,,,51,0
305981,note_on,0,0,1,,,,,,,,,0,,,54,0
305981,note_on,224,0,1,,,,,,,,,0,,,44,0
305985,note_on,0,0,0,,,,,,,,,0,,,60,0
305985,note_on,225,0,0,,,,,,,,,0,,,56,0
305987,note_on,2,0,0,,,,,,,,,0,,,63,0
305995,note_on,14,0,1,,,,,,,,,0,,,44,68
305995,note_on,0,0,1,,,,,,,,,0,,,51,68
305995,note_on,0,0,1,,,,,,,,,0,,,54,68
306000,note_on,0,0,0,,,,,,,,,0,,,56,68
306000,note_on,0,0,0,,,,,,,,,0,,,60,68
306000,note_on,0,0,0,,,,,,,,,0,,,62,82
306000,set_tempo,13,1,0,,,,,,627615,,,,,,,
306219,note_on,224,0,1,,,,,,,,,0,,,44,0
306219,note_on,0,0,1,,,,,,,,,0,,,51,0
306219,note_on,0,0,1,,,,,,,,,0,,,54,0
306225,note_on,225,0,0,,,,,,,,,0,,,56,0
306225,note_on,0,0,0,,,,,,,,,0,,,60,0
306227,note_on,2,0,0,,,,,,,,,0,,,62,0
306234,note_on,0,0,1,,,,,,,,,0,,,51,68
306234,note_on,0,0,1,,,,,,,,,0,,,54,68
306234,note_on,15,0,1,,,,,,,,,0,,,44,68
306240,note_on,0,0,0,,,,,,,,,0,,,60,68
306240,note_on,0,0,0,,,,,,,,,0,,,63,82
306240,note_on,0,0,0,,,,,,,,,0,,,56,68
306240,set_tempo,13,1,0,,,,,,619195,,,,,,,
306458,note_on,0,0,1,,,,,,,,,0,,,54,0
306458,note_on,0,0,1,,,,,,,,,0,,,51,0
306458,note_on,224,0,1,,,,,,,,,0,,,44,0
306465,note_on,0,0,0,,,,,,,,,0,,,60,0
306465,note_on,225,0,0,,,,,,,,,0,,,56,0
306467,note_on,2,0,0,,,,,,,,,0,,,63,0
306472,note_on,14,0,1,,,,,,,,,0,,,44,68
306472,note_on,0,0,1,,,,,,,,,0,,,51,68
306472,note_on,0,0,1,,,,,,,,,0,,,54,68
306480,note_on,0,0,0,,,,,,,,,0,,,64,82
306480,set_tempo,13,1,0,,,,,,607903,,,,,,,
306480,note_on,0,0,0,,,,,,,,,0,,,56,68
306480,note_on,0,0,0,,,,,,,,,0,,,60,68
306696,note_on,224,0,1,,,,,,,,,0,,,44,0
306696,note_on,0,0,1,,,,,,,,,0,,,51,0
306696,note_on,0,0,1,,,,,,,,,0,,,54,0
306705,note_on,0,0,0,,,,,,,,,0,,,60,0
306705,note_on,225,0,0,,,,,,,,,0,,,56,0
306707,note_on,2,0,0,,,,,,,,,0,,,64,0
306711,note_on,0,0,1,,,,,,,,,0,,,54,68
306711,note_on,15,0,1,,,,,,,,,0,,,44,68
306711,note_on,0,0,1,,,,,,,,,0,,,51,68
306720,note_on,0,0,0,,,,,,,,,0,,,65,82
306720,set_tempo,13,1,0,,,,,,594059,,,,,,,
306720,note_on,0,0,0,,,,,,,,,0,,,56,68
306720,note_on,0,0,0,,,,,,,,,0,,,60,68
306935,note_on,0,0,1,,,,,,,,,0,,,51,0
306935,note_on,224,0,1,,,,,,,,,0,,,44,0
306935,note_on,0,0,1,,,,,,,,,0,,,54,0
306945,note_on,225,0,0,,,,,,,,,0,,,56,0
306945,note_on,0,0,0,,,,,,,,,0,,,60,0
306947,note_on,2,0,0,,,,,,,,,0,,,65,0
306960,set_tempo,13,1,0,,,,,,579151,,,,,,,
306960,note_on,0,0,0,,,,,,,,,0,,,66,82
306960,note_on,0,0,0,,,,,,,,,0,,,60,68
306960,note_on,25,0,1,,,,,,,,,0,,,44,68
306960,note_on,0,0,1,,,,,,,,,0,,,51,68
306960,note_on,0,0,1,,,,,,,,,0,,,54,68
306960,note_on,0,0,0,,,,,,,,,0,,,56,68
307185,note_on,0,0,0,,,,,,,,,0,,,60,0
307185,note_on,225,0,0,,,,,,,,,0,,,56,0
307186,note_on,0,0,1,,,,,,,,,0,,,54,0
307186,note_on,0,0,1,,,,,,,,,0,,,51,0
307186,note_on,226,0,1,,,,,,,,,0,,,44,0
307187,note_on,2,0,0,,,,,,,,,0,,,66,0
307200,note_on,0,0,0,,,,,,,,,0,,,56,68
307200,note_on,0,0,0,,,,,,,,,0,,,60,68
307200,set_tempo,13,1,0,,,,,,562852,,,,,,,
307200,note_on,14,0,1,,,,,,,,,0,,,44,68
307200,note_on,0,0,1,,,,,,,,,0,,,51,68
307200,note_on,0,0,0,,,,,,,,,0,,,67,82
307200,note_on,0,0,1,,,,,,,,,0,,,54,68
307425,note_on,0,0,0,,,,,,,,,0,,,60,0
307425,note_on,225,0,0,,,,,,,,,0,,,56,0
307426,note_on,226,0,1,,,,,,,,,0,,,44,0
307426,note_on,0,0,1,,,,,,,,,0,,,54,0
307426,note_on,0,0,1,,,,,,,,,0,,,51,0
307427,note_on,2,0,0,,,,,,,,,0,,,67,0
307440,note_on,0,0,0,,,,,,,,,0,,,60,68
307440,note_on,0,0,0,,,,,,,,,0,,,56,68
307440,note_on,0,0,0,,,,,,,,,0,,,68,82
307440,set_tempo,13,1,0,,,,,,545455,,,,,,,
307440,note_on,14,0,1,,,,,,,,,0,,,44,68
307440,note_on,0,0,1,,,,,,,,,0,,,51,68
307440,note_on,0,0,1,,,,,,,,,0,,,54,68
307665,note_on,0,0,0,,,,,,,,,0,,,60,0
307665,note_on,225,0,0,,,,,,,,,0,,,56,0
307666,note_on,226,0,1,,,,,,,,,0,,,44,0
307666,note_on,0,0,1,,,,,,,,,0,,,51,0
307666,note_on,0,0,1,,,,,,,,,0,,,54,0
307667,note_on,2,0,0,,,,,,,,,0,,,68,0
307680,note_on,0,0,0,,,,,,,,,0,,,69,82
307680,note_on,0,0,1,,,,,,,,,0,,,51,68
307680,note_on,0,0,1,,,,,,,,,0,,,54,68
307680,note_on,13,0,0,,,,,,,,,0,,,56,68
307680,note_on,14,0,1,,,,,,,,,0,,,44,68
307680,note_on,0,0,0,,,,,,,,,0,,,60,68
307905,note_on,0,0,0,,,,,,,,,0,,,60,0
307905,note_on,225,0,0,,,,,,,,,0,,,56,0
307906,note_on,0,0,1,,,,,,,,,0,,,51,0
307906,note_on,0,0,1,,,,,,,,,0,,,54,0
307906,note_on,226,0,1,,,,,,,,,0,,,44,0
307907,note_on,2,0,0,,,,,,,,,0,,,69,0
307920,note_on,13,0,0,,,,,,,,,0,,,70,101
307920,note_on,14,0,1,,,,,,,,,0,,,32,86
307921,control_change,1,0,1,,,,,,,64,0,0,,,,
307922,control_change,2,0,0,,,,,,,64,127,0,,,,
308147,note_on,226,0,1,,,,,,,,,0,,,32,0
308160,note_on,238,0,0,,,,,,,,,0,,,56,68
308160,note_on,0,0,1,,,,,,,,,0,,,50,68
308160,note_on,13,0,1,,,,,,,,,0,,,44,68
308160,note_on,0,0,0,,,,,,,,,0,,,58,68
308160,note_on,0,0,0,,,,,,,,,0,,,62,68
308160,note_on,0,0,1,,,,,,,,,0,,,53,68
308387,note_on,0,0,1,,,,,,,,,0,,,50,0
308387,note_on,0,0,1,,,,,,,,,0,,,53,0
308387,note_on,227,0,1,,,,,,,,,0,,,44,0
308399,note_on,239,0,0,,,,,,,,,0,,,56,0
308399,note_on,0,0,0,,,,,,,,,0,,,62,0
308399,note_on,0,0,0,,,,,,,,,0,,,58,0
308400,note_on,1,0,0,,,,,,,,,0,,,56,68
308400,note_on,0,0,0,,,,,,,,,0,,,62,68
308400,note_on,0,0,0,,,,,,,,,0,,,58,68
308400,note_on,0,0,1,,,,,,,,,0,,,50,68
308400,note_on,0,0,1,,,,,,,,,0,,,53,68
308400,note_on,13,0,1,,,,,,,,,0,,,44,68
308627,note_on,227,0,1,,,,,,,,,0,,,44,0
308627,note_on,0,0,1,,,,,,,,,0,,,53,0
308627,note_on,0,0,1,,,,,,,,,0,,,50,0
308639,note_on,239,0,0,,,,,,,,,0,,,56,0
308639,note_on,0,0,0,,,,,,,,,0,,,62,0
308639,note_on,0,0,0,,,,,,,,,0,,,58,0
308640,note_on,0,0,0,,,,,,,,,0,,,62,68
308640,note_on,0,0,0,,,,,,,,,0,,,58,68
308640,note_on,13,0,1,,,,,,,,,0,,,44,68
308640,note_on,1,0,0,,,,,,,,,0,,,56,68
308640,note_on,0,0,1,,,,,,,,,0,,,53,68
308640,note_on,0,0,1,,,,,,,,,0,,,50,68
308867,note_on,0,0,1,,,,,,,,,0,,,50,0
308867,note_on,0,0,1,,,,,,,,,0,,,53,0
308867,note_on,227,0,1,,,,,,,,,0,,,44,0
308879,note_on,239,0,0,,,,,,,,,0,,,70,0
308879,note_on,0,0,0,,,,,,,,,0,,,56,0
308879,note_on,0,0,0,,,,,,,,,0,,,58,0
308879,note_on,0,0,0,,,,,,,,,0,,,62,0
308880,note_on,13,0,1,,,,,,,,,0,,,44,68
308880,note_on,0,0,0,,,,,,,,,0,,,62,68
308880,note_on,0,0,0,,,,,,,,,0,,,56,68
308880,note_on,0,0,0,,,,,,,,,0,,,58,68
308880,set_tempo,1,1,0,,,,,,545455,,,,,,,
308880,note_on,0,0,0,,,,,,,,,0,,,65,86
308880,note_on,0,0,1,,,,,,,,,0,,,50,68
308880,note_on,0,0,1,,,,,,,,,0,,,53,68
309107,note_on,0,0,0,,,,,,,,,0,,,62,0
309107,note_on,227,0,0,,,,,,,,,0,,,56,0
309107,note_on,0,0,1,,,,,,,,,0,,,53,0
309107,note_on,227,0,1,,,,,,,,,0,,,44,0
309107,note_on,0,0,0,,,,,,,,,0,,,58,0
309107,note_on,0,0,1,,,,,,,,,0,,,50,0
309120,set_tempo,13,1,0,,,,,,561798,,,,,,,
309120,note_on,0,0,0,,,,,,,,,0,,,56,68
309120,note_on,13,0,1,,,,,,,,,0,,,44,68
309120,note_on,0,0,0,,,,,,,,,0,,,62,68
309120,note_on,0,0,0,,,,,,,,,0,,,58,68
309120,note_on,0,0,1,,,,,,,,,0,,,53,68
309120,note_on,0,0,1,,,,,,,,,0,,,50,68
309335,note_on,215,0,0,,,,,,,,,0,,,65,0
309347,note_on,0,0,1,,,,,,,,,0,,,53,0
309347,note_on,0,0,1,,,,,,,,,0,,,50,0
309347,note_on,227,0,1,,,,,,,,,0,,,44,0
309347,note_on,0,0,0,,,,,,,,,0,,,62,0
309347,note_on,0,0,0,,,,,,,,,0,,,58,0
309347,note_on,12,0,0,,,,,,,,,0,,,56,0
309360,note_on,13,0,0,,,,,,,,,0,,,73,90
309360,note_on,13,0,1,,,,,,,,,0,,,44,68
309360,note_on,0,0,0,,,,,,,,,0,,,61,68
309360,note_on,0,0,0,,,,,,,,,0,,,65,68
309360,note_on,0,0,1,,,,,,,,,0,,,49,68
309360,note_on,0,0,1,,,,,,,,,0,,,53,68
309360,note_on,0,0,1,,,,,,,,,0,,,58,68
309587,note_on,0,0,1,,,,,,,,,0,,,53,0
309587,note_on,0,0,1,,,,,,,,,0,,,58,0
309587,note_on,0,0,1,,,,,,,,,0,,,49,0
309587,note_on,227,0,1,,,,,,,,,0,,,44,0
309598,note_on,238,0,0,,,,,,,,,0,,,61,0
309598,note_on,0,0,0,,,,,,,,,0,,,65,0
309599,note_on,1,0,0,,,,,,,,,0,,,61,68
309599,note_on,0,0,0,,,,,,,,,0,,,65,68
309600,note_on,13,0,1,,,,,,,,,0,,,44,68
309600,note_on,0,0,1,,,,,,,,,0,,,49,68
309600,set_tempo,1,1,0,,,,,,560748,,,,,,,
309600,note_on,0,0,1,,,,,,,,,0,,,58,68
309600,note_on,0,0,1,,,,,,,,,0,,,53,68
309827,note_on,227,0,1,,,,,,,,,0,,,44,0
309827,note_on,0,0,1,,,,,,,,,0,,,49,0
309827,note_on,0,0,1,,,,,,,,,0,,,53,0
309827,note_on,0,0,1,,,,,,,,,0,,,58,0
309837,note_on,237,0,0,,,,,,,,,0,,,61,0
309837,note_on,0,0,0,,,,,,,,,0,,,65,0
309838,note_on,1,0,0,,,,,,,,,0,,,61,68
309838,note_on,0,0,0,,,,,,,,,0,,,65,68
309840,note_on,0,0,1,,,,,,,,,0,,,49,68
309840,set_tempo,2,1,0,,,,,,564972,,,,,,,
309840,note_on,0,0,1,,,,,,,,,0,,,53,68
309840,note_on,0,0,1,,,,,,,,,0,,,58,68
309840,note_on,13,0,1,,,,,,,,,0,,,44,68
309841,note_on,1,0,0,,,,,,,,,0,,,73,0
310067,note_on,0,0,1,,,,,,,,,0,,,49,0
310067,note_on,0,0,1,,,,,,,,,0,,,53,0
310067,note_on,227,0,1,,,,,,,,,0,,,44,0
310067,note_on,0,0,1,,,,,,,,,0,,,58,0
310076,note_on,0,0,0,,,,,,,,,0,,,65,0
310076,note_on,235,0,0,,,,,,,,,0,,,61,0
310077,note_on,1,0,0,,,,,,,,,0,,,61,68
310077,note_on,0,0,0,,,,,,,,,0,,,65,68
310080,set_tempo,3,1,0,,,,,,578035,,,,,,,
310080,note_on,0,0,1,,,,,,,,,0,,,49,68
310080,note_on,0,0,0,,,,,,,,,0,,,72,82
310080,note_on,0,0,1,,,,,,,,,0,,,58,68
310080,note_on,0,0,1,,,,,,,,,0,,,53,68
310080,note_on,13,0,1,,,,,,,,,0,,,44,68
310307,note_on,227,0,1,,,,,,,,,0,,,44,0
310307,note_on,0,0,1,,,,,,,,,0,,,58,0
310307,note_on,0,0,1,,,,,,,,,0,,,53,0
310307,note_on,0,0,1,,,,,,,,,0,,,49,0
310315,note_on,0,0,0,,,,,,,,,0,,,65,0
310315,note_on,235,0,0,,,,,,,,,0,,,61,0
310316,note_on,1,0,0,,,,,,,,,0,,,61,68
310316,note_on,0,0,0,,,,,,,,,0,,,65,68
310319,note_on,3,0,0,,,,,,,,,0,,,72,0
310320,note_on,1,0,0,,,,,,,,,0,,,70,82
310320,note_on,0,0,1,,,,,,,,,0,,,58,68
310320,note_on,0,0,1,,,,,,,,,0,,,53,68
310320,note_on,0,0,1,,,,,,,,,0,,,49,68
310320,note_on,13,0,1,,,,,,,,,0,,,44,68
310547,note_on,227,0,1,,,,,,,,,0,,,44,0
310547,note_on,0,0,1,,,,,,,,,0,,,58,0
310547,note_on,0,0,1,,,,,,,,,0,,,53,0
310547,note_on,0,0,1,,,,,,,,,0,,,49,0
310554,note_on,0,0,0,,,,,,,,,0,,,65,0
310554,note_on,234,0,0,,,,,,,,,0,,,61,0
310555,note_on,0,0,0,,,,,,,,,0,,,65,68
310555,note_on,1,0,0,,,,,,,,,0,,,61,68
310559,note_on,4,0,0,,,,,,,,,0,,,70,0
310560,note_on,0,0,1,,,,,,,,,0,,,53,68
310560,note_on,1,0,0,,,,,,,,,0,,,68,82
310560,note_on,13,0,1,,,,,,,,,0,,,44,68
310560,note_on,0,0,1,,,,,,,,,0,,,49,68
310560,note_on,0,0,1,,,,,,,,,0,,,58,68
310787,note_on,227,0,1,,,,,,,,,0,,,44,0
310787,note_on,0,0,1,,,,,,,,,0,,,49,0
310787,note_on,0,0,1,,,,,,,,,0,,,53,0
310787,note_on,0,0,1,,,,,,,,,0,,,58,0
310787,note_on,227,0,0,,,,,,,,,0,,,68,0
310793,note_on,0,0,0,,,,,,,,,0,,,65,0
310793,note_on,6,0,0,,,,,,,,,0,,,61,0
310800,note_on,7,0,0,,,,,,,,,0,,,68,90
310800,note_on,13,0,1,,,,,,,,,0,,,32,86
310801,control_change,1,0,0,,,,,,,64,0,0,,,,
310802,control_change,2,0,1,,,,,,,64,127,0,,,,
311027,note_on,225,0,1,,,,,,,,,0,,,32,0
311040,note_on,0,0,1,,,,,,,,,0,,,56,66
311040,note_on,0,0,1,,,,,,,,,0,,,52,66
311040,note_on,239,0,0,,,,,,,,,0,,,58,66
311040,note_on,13,0,1,,,,,,,,,0,,,44,66
311040,note_on,0,0,0,,,,,,,,,0,,,61,66
311267,note_on,0,0,1,,,,,,,,,0,,,56,0
311267,note_on,227,0,1,,,,,,,,,0,,,44,0
311267,note_on,0,0,1,,,,,,,,,0,,,52,0
311279,note_on,0,0,0,,,,,,,,,0,,,61,0
311279,note_on,239,0,0,,,,,,,,,0,,,58,0
311280,note_on,1,0,0,,,,,,,,,0,,,58,64
311280,note_on,13,0,1,,,,,,,,,0,,,44,64
311280,note_on,0,0,1,,,,,,,,,0,,,56,64
311280,note_on,0,0,1,,,,,,,,,0,,,52,64
311280,note_on,0,0,0,,,,,,,,,0,,,61,64
311507,note_on,0,0,1,,,,,,,,,0,,,56,0
311507,note_on,0,0,1,,,,,,,,,0,,,52,0
311507,note_on,227,0,1,,,,,,,,,0,,,44,0
311519,note_on,239,0,0,,,,,,,,,0,,,68,0
311519,note_on,0,0,0,,,,,,,,,0,,,58,0
311519,note_on,0,0,0,,,,,,,,,0,,,61,0
311520,note_on,13,0,1,,,,,,,,,0,,,44,63
311520,note_on,1,0,0,,,,,,,,,0,,,67,75
311520,note_on,0,0,1,,,,,,,,,0,,,55,72
311520,note_on,0,0,1,,,,,,,,,0,,,51,63
311520,note_on,0,0,0,,,,,,,,,0,,,58,63
311520,note_on,0,0,0,,,,,,,,,0,,,61,63
311747,note_on,227,0,1,,,,,,,,,0,,,44,0
311747,note_on,0,0,1,,,,,,,,,0,,,51,0
311747,note_on,0,0,1,,,,,,,,,0,,,55,0
311759,note_on,239,0,0,,,,,,,,,0,,,67,0
311759,note_on,0,0,0,,,,,,,,,0,,,61,0
311759,note_on,0,0,0,,,,,,,,,0,,,58,0
311760,note_on,1,0,0,,,,,,,,,0,,,64,73
311760,note_on,0,0,0,,,,,,,,,0,,,58,61
311760,note_on,0,0,1,,,,,,,,,0,,,52,70
311760,note_on,0,0,1,,,,,,,,,0,,,49,61
311760,note_on,13,0,1,,,,,,,,,0,,,44,61
311760,note_on,0,0,0,,,,,,,,,0,,,55,61
311987,note_on,0,0,1,,,,,,,,,0,,,52,0
311987,note_on,227,0,1,,,,,,,,,0,,,44,0
311987,note_on,0,0,1,,,,,,,,,0,,,49,0
311999,note_on,239,0,0,,,,,,,,,0,,,64,0
311999,note_on,0,0,0,,,,,,,,,0,,,58,0
311999,note_on,0,0,0,,,,,,,,,0,,,55,0
312000,note_on,0,0,0,,,,,,,,,0,,,58,59
312000,note_on,1,0,0,,,,,,,,,0,,,55,59
312000,note_on,0,0,0,,,,,,,,,0,,,63,71
312000,note_on,0,0,1,,,,,,,,,0,,,49,59
312000,note_on,0,0,1,,,,,,,,,0,,,51,68
312000,note_on,13,0,1,,,,,,,,,0,,,44,59
312227,note_on,227,0,1,,,,,,,,,0,,,44,0
312227,note_on,227,0,0,,,,,,,,,0,,,63,0
312227,note_on,0,0,1,,,,,,,,,0,,,49,0
312227,note_on,0,0,1,,,,,,,,,0,,,51,0
312239,note_on,12,0,0,,,,,,,,,0,,,55,0
312239,note_on,0,0,0,,,,,,,,,0,,,58,0
312240,note_on,0,0,1,,,,,,,,,0,,,49,59
312240,note_on,13,0,1,,,,,,,,,0,,,44,59
312240,note_on,0,0,0,,,,,,,,,0,,,58,59
312240,note_on,0,0,0,,,,,,,,,0,,,62,71
312240,note_on,1,0,0,,,,,,,,,0,,,55,59
312240,note_on,0,0,1,,,,,,,,,0,,,50,68
312467,note_on,0,0,1,,,,,,,,,0,,,50,0
312467,note_on,227,0,1,,,,,,,,,0,,,44,0
312467,note_on,0,0,1,,,,,,,,,0,,,49,0
312479,note_on,239,0,0,,,,,,,,,0,,,55,0
312479,note_on,0,0,0,,,,,,,,,0,,,58,0
312479,note_on,0,0,0,,,,,,,,,0,,,62,0
312480,note_on,0,0,0,,,,,,,,,0,,,63,72
312480,note_on,0,0,0,,,,,,,,,0,,,58,60
312480,note_on,0,0,1,,,,,,,,,0,,,51,69
312480,note_on,0,0,1,,,,,,,,,0,,,49,60
312480,note_on,1,0,0,,,,,,,,,0,,,55,60
312480,note_on,13,0,1,,,,,,,,,0,,,44,60
312707,note_on,0,0,1,,,,,,,,,0,,,49,0
312707,note_on,227,0,1,,,,,,,,,0,,,44,0
312707,note_on,0,0,1,,,,,,,,,0,,,51,0
312719,note_on,239,0,0,,,,,,,,,0,,,55,0
312719,note_on,0,0,0,,,,,,,,,0,,,58,0
312719,note_on,0,0,0,,,,,,,,,0,,,63,0
312720,note_on,0,0,1,,,,,,,,,0,,,52,71
312720,note_on,0,0,1,,,,,,,,,0,,,49,62
312720,note_on,1,0,0,,,,,,,,,0,,,55,62
312720,note_on,13,0,1,,,,,,,,,0,,,44,62
312720,note_on,0,0,0,,,,,,,,,0,,,64,74
312720,note_on,0,0,0,,,,,,,,,0,,,58,62
312947,note_on,227,0,1,,,,,,,,,0,,,44,0
312947,note_on,0,0,1,,,,,,,,,0,,,49,0
312947,note_on,0,0,1,,,,,,,,,0,,,52,0
312959,note_on,0,0,0,,,,,,,,,0,,,64,0
312959,note_on,0,0,0,,,,,,,,,0,,,58,0
312959,note_on,239,0,0,,,,,,,,,0,,,55,0
312960,note_on,1,0,0,,,,,,,,,0,,,55,63
312960,note_on,0,0,1,,,,,,,,,0,,,49,63
312960,note_on,0,0,0,,,,,,,,,0,,,58,63
312960,note_on,0,0,0,,,,,,,,,0,,,63,77
312960,note_on,0,0,1,,,,,,,,,0,,,51,73
312960,note_on,13,0,1,,,,,,,,,0,,,44,63
313187,note_on,0,0,1,,,,,,,,,0,,,49,0
313187,note_on,227,0,1,,,,,,,,,0,,,44,0
313187,note_on,0,0,1,,,,,,,,,0,,,51,0
313199,note_on,239,0,0,,,,,,,,,0,,,55,0
313199,note_on,0,0,0,,,,,,,,,0,,,58,0
313199,note_on,0,0,0,,,,,,,,,0,,,63,0
313200,note_on,0,0,0,,,,,,,,,0,,,58,64
313200,note_on,0,0,0,,,,,,,,,0,,,67,81
313200,note_on,0,0,1,,,,,,,,,0,,,49,64
313200,note_on,13,0,1,,,,,,,,,0,,,44,64
313200,note_on,0,0,1,,,,,,,,,0,,,53,74
313200,note_on,1,0,0,,,,,,,,,0,,,55,64
313252,note_on,52,0,0,,,,,,,,,0,,,67,0
313253,note_on,1,0,0,,,,,,,,,0,,,65,79
313427,note_on,227,0,1,,,,,,,,,0,,,44,0
313427,note_on,0,0,1,,,,,,,,,0,,,49,0
313427,note_on,0,0,1,,,,,,,,,0,,,53,0
313438,note_on,185,0,0,,,,,,,,,0,,,65,0
313439,note_on,1,0,0,,,,,,,,,0,,,55,0
313439,note_on,0,0,0,,,,,,,,,0,,,58,0
313440,note_on,0,0,1,,,,,,,,,0,,,51,76
313440,note_on,0,0,0,,,,,,,,,0,,,58,66
313440,note_on,0,0,0,,,,,,,,,0,,,63,80
313440,note_on,1,0,0,,,,,,,,,0,,,55,66
313440,note_on,13,0,1,,,,,,,,,0,,,44,66
313440,note_on,0,0,1,,,,,,,,,0,,,49,66
313667,note_on,227,0,0,,,,,,,,,0,,,63,0
313667,note_on,227,0,1,,,,,,,,,0,,,44,0
313667,note_on,0,0,1,,,,,,,,,0,,,49,0
313667,note_on,0,0,1,,,,,,,,,0,,,51,0
313679,note_on,12,0,0,,,,,,,,,0,,,55,0
313679,note_on,0,0,0,,,,,,,,,0,,,58,0
313680,set_tempo,1,1,0,,,,,,576923,,,,,,,
313680,note_on,13,0,1,,,,,,,,,0,,,32,86
313680,note_on,0,0,0,,,,,,,,,0,,,75,90
313681,control_change,1,0,1,,,,,,,64,0,0,,,,
313682,control_change,1,0,1,,,,,,,64,127,0,,,,
313907,note_on,225,0,1,,,,,,,,,0,,,32,0
313920,note_on,0,0,0,,,,,,,,,0,,,60,68
313920,note_on,0,0,1,,,,,,,,,0,,,57,66
313920,note_on,0,0,0,,,,,,,,,0,,,66,68
313920,set_tempo,240,1,0,,,,,,578592,,,,,,,
313920,note_on,13,0,1,,,,,,,,,0,,,44,66
313920,note_on,0,0,1,,,,,,,,,0,,,51,66
313920,note_on,0,0,1,,,,,,,,,0,,,54,66
314147,note_on,0,0,1,,,,,,,,,0,,,57,0
314147,note_on,0,0,1,,,,,,,,,0,,,54,0
314147,note_on,0,0,0,,,,,,,,,0,,,66,0
314147,note_on,227,0,1,,,,,,,,,0,,,44,0
314147,note_on,227,0,0,,,,,,,,,0,,,60,0
314147,note_on,0,0,1,,,,,,,,,0,,,51,0
314160,set_tempo,13,1,0,,,,,,583658,,,,,,,
314160,note_on,0,0,0,,,,,,,,,0,,,60,68
314160,note_on,0,0,0,,,,,,,,,0,,,66,68
314160,note_on,0,0,1,,,,,,,,,0,,,57,66
314160,note_on,0,0,1,,,,,,,,,0,,,54,66
314160,note_on,0,0,1,,,,,,,,,0,,,51,66
314160,note_on,13,0,1,,,,,,,,,0,,,44,66
314387,note_on,0,0,1,,,,,,,,,0,,,51,0
314387,note_on,0,0,1,,,,,,,,,0,,,57,0
314387,note_on,227,0,0,,,,,,,,,0,,,60,0
314387,note_on,227,0,1,,,,,,,,,0,,,44,0
314387,note_on,0,0,1,,,,,,,,,0,,,54,0
314387,note_on,0,0,0,,,,,,,,,0,,,66,0
314400,note_on,0,0,0,,,,,,,,,0,,,66,67
314400,note_on,0,0,0,,,,,,,,,0,,,60,67
314400,set_tempo,13,1,0,,,,,,591716,,,,,,,
314400,note_on,0,0,1,,,,,,,,,0,,,54,66
314400,note_on,0,0,1,,,,,,,,,0,,,51,66
314400,note_on,0,0,1,,,,,,,,,0,,,57,66
314400,note_on,13,0,1,,,,,,,,,0,,,44,66
314627,note_on,227,0,1,,,,,,,,,0,,,44,0
314627,note_on,0,0,0,,,,,,,,,0,,,66,0
314627,note_on,0,0,1,,,,,,,,,0,,,51,0
314627,note_on,0,0,1,,,,,,,,,0,,,54,0
314627,note_on,227,0,0,,,,,,,,,0,,,60,0
314627,note_on,0,0,1,,,,,,,,,0,,,57,0
314640,note_on,0,0,1,,,,,,,,,0,,,56,66
314640,note_on,0,0,1,,,,,,,,,0,,,51,66
314640,set_tempo,13,1,0,,,,,,603015,,,,,,,
314640,note_on,13,0,1,,,,,,,,,0,,,44,66
314640,note_on,0,0,0,,,,,,,,,0,,,60,67
314640,note_on,0,0,1,,,,,,,,,0,,,54,66
314640,note_on,0,0,0,,,,,,,,,0,,,66,67
314643,note_on,3,0,0,,,,,,,,,0,,,75,0
314867,note_on,0,0,0,,,,,,,,,0,,,66,0
314867,note_on,227,0,1,,,,,,,,,0,,,44,0
314867,note_on,224,0,0,,,,,,,,,0,,,60,0
314867,note_on,0,0,1,,,,,,,,,0,,,56,0
314867,note_on,0,0,1,,,,,,,,,0,,,51,0
314867,note_on,0,0,1,,,,,,,,,0,,,54,0
314880,note_on,0,0,1,,,,,,,,,0,,,51,65
314880,note_on,13,0,1,,,,,,,,,0,,,44,65
314880,note_on,13,0,0,,,,,,,,,0,,,60,66
314880,note_on,0,0,1,,,,,,,,,0,,,56,65
314880,note_on,0,0,1,,,,,,,,,0,,,54,65
314880,note_on,0,0,0,,,,,,,,,0,,,66,66
315107,note_on,0,0,0,,,,,,,,,0,,,66,0
315107,note_on,227,0,1,,,,,,,,,0,,,44,0
315107,note_on,227,0,0,,,,,,,,,0,,,60,0
315107,note_on,0,0,1,,,,,,,,,0,,,56,0
315107,note_on,0,0,1,,,,,,,,,0,,,54,0
315107,note_on,0,0,1,,,,,,,,,0,,,51,0
315120,note_on,13,0,0,,,,,,,,,0,,,74,104
315121,control_change,14,0,1,,,,,,,64,0,0,,,,
315122,control_change,1,0,1,,,,,,,64,127,0,,,,
315360,note_on,0,0,0,,,,,,,,,0,,,66,73
315360,note_on,0,0,1,,,,,,,,,0,,,56,65
315360,note_on,0,0,1,,,,,,,,,0,,,54,65
315360,note_on,238,0,1,,,,,,,,,0,,,44,65
315360,note_on,0,0,1,,,,,,,,,0,,,50,65
315360,note_on,240,0,0,,,,,,,,,0,,,60,73
315587,note_on,0,0,0,,,,,,,,,0,,,66,0
315587,note_on,227,0,0,,,,,,,,,0,,,60,0
315587,note_on,227,0,1,,,,,,,,,0,,,44,0
315587,note_on,0,0,1,,,,,,,,,0,,,50,0
315587,note_on,0,0,1,,,,,,,,,0,,,54,0
315587,note_on,0,0,1,,,,,,,,,0,,,56,0
315600,note_on,0,0,0,,,,,,,,,0,,,66,72
315600,note_on,0,0,1,,,,,,,,,0,,,54,64
315600,note_on,13,0,1,,,,,,,,,0,,,44,64
315600,note_on,0,0,1,,,,,,,,,0,,,56,64
315600,note_on,13,0,0,,,,,,,,,0,,,60,72
315600,note_on,0,0,1,,,,,,,,,0,,,50,64
315827,note_on,0,0,1,,,,,,,,,0,,,54,0
315827,note_on,0,0,1,,,,,,,,,0,,,56,0
315827,note_on,227,0,1,,,,,,,,,0,,,44,0
315827,note_on,0,0,0,,,,,,,,,0,,,66,0
315827,note_on,227,0,0,,,,,,,,,0,,,60,0
315827,note_on,0,0,1,,,,,,,,,0,,,50,0
315840,note_on,0,0,1,,,,,,,,,0,,,50,64
315840,note_on,0,0,0,,,,,,,,,0,,,66,72
315840,note_on,0,0,1,,,,,,,,,0,,,54,64
315840,note_on,0,0,1,,,,,,,,,0,,,56,64
315840,note_on,13,0,0,,,,,,,,,0,,,60,72
315840,note_on,13,0,1,,,,,,,,,0,,,44,64
316067,note_on,0,0,1,,,,,,,,,0,,,56,0
316067,note_on,0,0,0,,,,,,,,,0,,,66,0
316067,note_on,0,0,1,,,,,,,,,0,,,50,0
316067,note_on,227,0,0,,,,,,,,,0,,,60,0
316067,note_on,0,0,1,,,,,,,,,0,,,54,0
316067,note_on,227,0,1,,,,,,,,,0,,,44,0
316080,note_on,13,0,1,,,,,,,,,0,,,44,63
316080,note_on,0,0,1,,,,,,,,,0,,,53,63
316080,note_on,0,0,0,,,,,,,,,0,,,59,71
316080,set_tempo,13,1,0,,,,,,618557,,,,,,,
316080,note_on,0,0,0,,,,,,,,,0,,,65,71
316080,note_on,0,0,1,,,,,,,,,0,,,56,63
316080,note_on,0,0,1,,,,,,,,,0,,,50,63
316307,note_on,227,0,0,,,,,,,,,0,,,59,0
316307,note_on,0,0,1,,,,,,,,,0,,,50,0
316307,note_on,0,0,1,,,,,,,,,0,,,53,0
316307,note_on,0,0,0,,,,,,,,,0,,,65,0
316307,note_on,0,0,1,,,,,,,,,0,,,56,0
316307,note_on,227,0,1,,,,,,,,,0,,,44,0
316320,set_tempo,13,1,0,,,,,,628272,,,,,,,
316320,note_on,13,0,1,,,,,,,,,0,,,44,63
316320,note_on,0,0,1,,,,,,,,,0,,,50,63
316320,note_on,0,0,1,,,,,,,,,0,,,53,63
316320,note_on,0,0,0,,,,,,,,,0,,,65,71
316320,note_on,0,0,1,,,,,,,,,0,,,56,63
316320,note_on,0,0,0,,,,,,,,,0,,,59,71
316547,note_on,0,0,0,,,,,,,,,0,,,65,0
316547,note_on,0,0,1,,,,,,,,,0,,,56,0
316547,note_on,0,0,1,,,,,,,,,0,,,53,0
316547,note_on,0,0,1,,,,,,,,,0,,,50,0
316547,note_on,227,0,0,,,,,,,,,0,,,59,0
316547,note_on,227,0,1,,,,,,,,,0,,,44,0
316559,note_on,12,0,0,,,,,,,,,0,,,74,0
316560,note_on,0,0,0,,,,,,,,,0,,,73,100
316560,set_tempo,1,1,0,,,,,,612245,,,,,,,
316561,control_change,14,0,1,,,,,,,64,0,0,,,,
316562,control_change,1,0,1,,,,,,,64,127,0,,,,
316800,note_on,0,0,1,,,,,,,,,0,,,49,63
316800,note_on,0,0,1,,,,,,,,,0,,,53,63
316800,note_on,0,0,0,,,,,,,,,0,,,59,63
316800,note_on,0,0,0,,,,,,,,,0,,,65,63
316800,set_tempo,240,1,0,,,,,,613497,,,,,,,
316800,note_on,238,0,1,,,,,,,,,0,,,44,63
316800,note_on,0,0,1,,,,,,,,,0,,,55,63
317027,note_on,0,0,1,,,,,,,,,0,,,55,0
317027,note_on,227,0,0,,,,,,,,,0,,,59,0
317027,note_on,227,0,1,,,,,,,,,0,,,44,0
317027,note_on,0,0,1,,,,,,,,,0,,,49,0
317027,note_on,0,0,1,,,,,,,,,0,,,53,0
317027,note_on,0,0,0,,,,,,,,,0,,,65,0
317040,note_on,0,0,1,,,,,,,,,0,,,53,63
317040,note_on,0,0,1,,,,,,,,,0,,,55,63
317040,note_on,0,0,1,,,,,,,,,0,,,49,63
317040,note_on,13,0,1,,,,,,,,,0,,,44,63
317040,note_on,0,0,0,,,,,,,,,0,,,65,63
317040,set_tempo,13,1,0,,,,,,616650,,,,,,,
317040,note_on,0,0,0,,,,,,,,,0,,,59,63
317267,note_on,0,0,0,,,,,,,,,0,,,65,0
317267,note_on,0,0,1,,,,,,,,,0,,,55,0
317267,note_on,0,0,1,,,,,,,,,0,,,53,0
317267,note_on,0,0,1,,,,,,,,,0,,,49,0
317267,note_on,227,0,1,,,,,,,,,0,,,44,0
317267,note_on,227,0,0,,,,,,,,,0,,,59,0
317280,note_on,0,0,0,,,,,,,,,0,,,65,63
317280,note_on,0,0,0,,,,,,,,,0,,,59,63
317280,set_tempo,13,1,0,,,,,,621762,,,,,,,
317280,note_on,0,0,1,,,,,,,,,0,,,53,63
317280,note_on,13,0,1,,,,,,,,,0,,,44,63
317280,note_on,0,0,1,,,,,,,,,0,,,49,63
317280,note_on,0,0,1,,,,,,,,,0,,,55,63
317507,note_on,227,0,0,,,,,,,,,0,,,59,0
317507,note_on,0,0,1,,,,,,,,,0,,,55,0
317507,note_on,0,0,1,,,,,,,,,0,,,49,0
317507,note_on,0,0,1,,,,,,,,,0,,,53,0
317507,note_on,227,0,1,,,,,,,,,0,,,44,0
317507,note_on,0,0,0,,,,,,,,,0,,,65,0
317520,note_on,0,0,1,,,,,,,,,0,,,49,62
317520,note_on,0,0,1,,,,,,,,,0,,,55,62
317520,note_on,0,0,1,,,,,,,,,0,,,52,62
317520,note_on,13,0,1,,,,,,,,,0,,,44,62
317520,set_tempo,13,1,0,,,,,,628931,,,,,,,
317520,note_on,0,0,0,,,,,,,,,0,,,64,62
317520,note_on,0,0,0,,,,,,,,,0,,,58,62
317747,note_on,0,0,1,,,,,,,,,0,,,55,0
317747,note_on,0,0,0,,,,,,,,,0,,,64,0
317747,note_on,227,0,0,,,,,,,,,0,,,58,0
317747,note_on,227,0,1,,,,,,,,,0,,,44,0
317747,note_on,0,0,1,,,,,,,,,0,,,49,0
317747,note_on,0,0,1,,,,,,,,,0,,,52,0
317760,note_on,0,0,1,,,,,,,,,0,,,55,62
317760,note_on,0,0,0,,,,,,,,,0,,,64,62
317760,note_on,0,0,1,,,,,,,,,0,,,49,62
317760,note_on,13,0,0,,,,,,,,,0,,,58,62
317760,note_on,0,0,1,,,,,,,,,0,,,52,62
317760,note_on,13,0,1,,,,,,,,,0,,,44,62
317987,note_on,0,0,1,,,,,,,,,0,,,49,0
317987,note_on,0,0,0,,,,,,,,,0,,,64,0
317987,note_on,227,0,0,,,,,,,,,0,,,58,0
317987,note_on,227,0,1,,,,,,,,,0,,,44,0
317987,note_on,0,0,1,,,,,,,,,0,,,55,0
317987,note_on,0,0,1,,,,,,,,,0,,,52,0
317999,note_on,12,0,0,,,,,,,,,0,,,73,0
318000,note_on,0,0,0,,,,,,,,,0,,,72,95
318000,set_tempo,1,1,0,,,,,,618557,,,,,,,
318001,control_change,14,0,1,,,,,,,64,0,0,,,,
318002,control_change,1,0,1,,,,,,,64,127,0,,,,
318240,note_on,0,0,0,,,,,,,,,0,,,64,60
318240,note_on,0,0,1,,,,,,,,,0,,,48,60
318240,note_on,240,0,0,,,,,,,,,0,,,58,60
318240,note_on,0,0,1,,,,,,,,,0,,,54,60
318240,note_on,0,0,1,,,,,,,,,0,,,52,60
318240,note_on,238,0,1,,,,,,,,,0,,,44,60
318467,note_on,0,0,1,,,,,,,,,0,,,52,0
318467,note_on,0,0,1,,,,,,,,,0,,,54,0
318467,note_on,0,0,1,,,,,,,,,0,,,48,0
318467,note_on,0,0,0,,,,,,,,,0,,,64,0
318467,note_on,227,0,1,,,,,,,,,0,,,44,0
318467,note_on,227,0,0,,,,,,,,,0,,,58,0
318480,note_on,0,0,1,,,,,,,,,0,,,48,60
318480,note_on,0,0,1,,,,,,,,,0,,,54,60
318480,note_on,0,0,0,,,,,,,,,0,,,64,60
318480,note_on,13,0,1,,,,,,,,,0,,,44,60
318480,note_on,13,0,0,,,,,,,,,0,,,58,60
318480,note_on,0,0,1,,,,,,,,,0,,,52,60
318707,note_on,227,0,1,,,,,,,,,0,,,44,0
318707,note_on,0,0,0,,,,,,,,,0,,,64,0
318707,note_on,0,0,1,,,,,,,,,0,,,48,0
318707,note_on,0,0,1,,,,,,,,,0,,,52,0
318707,note_on,0,0,1,,,,,,,,,0,,,54,0
318707,note_on,227,0,0,,,,,,,,,0,,,58,0
318720,note_on,13,0,1,,,,,,,,,0,,,44,59
318720,note_on,0,0,1,,,,,,,,,0,,,48,59
318720,note_on,0,0,1,,,,,,,,,0,,,52,59
318720,note_on,0,0,1,,,,,,,,,0,,,54,59
318720,note_on,13,0,0,,,,,,,,,0,,,58,59
318720,note_on,0,0,0,,,,,,,,,0,,,64,59
318947,note_on,227,0,1,,,,,,,,,0,,,44,0
318947,note_on,0,0,1,,,,,,,,,0,,,48,0
318947,note_on,0,0,1,,,,,,,,,0,,,54,0
318947,note_on,0,0,0,,,,,,,,,0,,,64,0
318947,note_on,227,0,0,,,,,,,,,0,,,58,0
318947,note_on,0,0,1,,,,,,,,,0,,,52,0
318960,note_on,0,0,0,,,,,,,,,0,,,63,59
318960,note_on,0,0,1,,,,,,,,,0,,,51,59
318960,note_on,13,0,0,,,,,,,,,0,,,57,59
318960,note_on,0,0,1,,,,,,,,,0,,,54,59
318960,note_on,13,0,1,,,,,,,,,0,,,44,59
318960,note_on,0,0,1,,,,,,,,,0,,,48,59
319187,note_on,0,0,1,,,,,,,,,0,,,48,0
319187,note_on,227,0,0,,,,,,,,,0,,,57,0
319187,note_on,0,0,0,,,,,,,,,0,,,63,0
319187,note_on,0,0,1,,,,,,,,,0,,,51,0
319187,note_on,0,0,1,,,,,,,,,0,,,54,0
319187,note_on,227,0,1,,,,,,,,,0,,,44,0
319200,note_on,0,0,1,,,,,,,,,0,,,51,58
319200,note_on,0,0,0,,,,,,,,,0,,,63,58
319200,note_on,13,0,0,,,,,,,,,0,,,57,58
319200,note_on,0,0,1,,,,,,,,,0,,,48,58
319200,note_on,13,0,1,,,,,,,,,0,,,44,58
319200,note_on,0,0,1,,,,,,,,,0,,,54,58
319427,note_on,0,0,1,,,,,,,,,0,,,48,0
319427,note_on,0,0,1,,,,,,,,,0,,,51,0
319427,note_on,0,0,1,,,,,,,,,0,,,54,0
319427,note_on,0,0,0,,,,,,,,,0,,,63,0
319427,note_on,227,0,0,,,,,,,,,0,,,57,0
319427,note_on,227,0,1,,,,,,,,,0,,,44,0
319439,note_on,12,0,0,,,,,,,,,0,,,72,0
319440,note_on,0,0,0,,,,,,,,,0,,,71,78
319440,set_tempo,1,1,0,,,,,,618557,,,,,,,
319441,control_change,14,0,1,,,,,,,64,0,0,,,,
319442,control_change,2,0,0,,,,,,,64,127,0,,,,
319680,note_on,0,0,1,,,,,,,,,0,,,57,57
319680,note_on,0,0,1,,,,,,,,,0,,,54,57
319680,note_on,0,0,1,,,,,,,,,0,,,51,57
319680,note_on,0,0,1,,,,,,,,,0,,,63,57
319680,set_tempo,238,1,0,,,,,,623053,,,,,,,
319680,note_on,239,0,1,,,,,,,,,0,,,44,57
319680,note_on,0,0,1,,,,,,,,,0,,,59,57
319680,note_on,0,0,1,,,,,,,,,0,,,47,57
319907,note_on,0,0,1,,,,,,,,,0,,,63,0
319907,note_on,0,0,1,,,,,,,,,0,,,59,0
319907,note_on,0,0,1,,,,,,,,,0,,,57,0
319907,note_on,0,0,1,,,,,,,,,0,,,54,0
319907,note_on,0,0,1,,,,,,,,,0,,,51,0
319907,note_on,0,0,1,,,,,,,,,0,,,47,0
319907,note_on,227,0,1,,,,,,,,,0,,,44,0
319920,set_tempo,240,1,0,,,,,,636943,,,,,,,
319920,note_on,0,0,1,,,,,,,,,0,,,47,57
319920,note_on,0,0,1,,,,,,,,,0,,,51,57
319920,note_on,0,0,1,,,,,,,,,0,,,54,57
319920,note_on,0,0,1,,,,,,,,,0,,,63,57
319920,note_on,13,0,1,,,,,,,,,0,,,44,57
319920,note_on,0,0,1,,,,,,,,,0,,,57,57
319920,note_on,0,0,1,,,,,,,,,0,,,59,57
320147,note_on,0,0,1,,,,,,,,,0,,,63,0
320147,note_on,0,0,1,,,,,,,,,0,,,59,0
320147,note_on,0,0,1,,,,,,,,,0,,,54,0
320147,note_on,0,0,1,,,,,,,,,0,,,57,0
320147,note_on,0,0,1,,,,,,,,,0,,,51,0
320147,note_on,227,0,1,,,,,,,,,0,,,44,0
320147,note_on,0,0,1,,,,,,,,,0,,,47,0
320160,note_on,0,0,1,,,,,,,,,0,,,57,57
320160,set_tempo,240,1,0,,,,,,661521,,,,,,,
320160,note_on,13,0,1,,,,,,,,,0,,,44,57
320160,note_on,0,0,1,,,,,,,,,0,,,47,57
320160,note_on,0,0,1,,,,,,,,,0,,,51,57
320160,note_on,0,0,1,,,,,,,,,0,,,54,57
320160,note_on,0,0,1,,,,,,,,,0,,,63,57
320160,note_on,0,0,1,,,,,,,,,0,,,59,57
320387,note_on,0,0,1,,,,,,,,,0,,,57,0
320387,note_on,0,0,1,,,,,,,,,0,,,54,0
320387,note_on,0,0,1,,,,,,,,,0,,,51,0
320387,note_on,0,0,1,,,,,,,,,0,,,47,0
320387,note_on,227,0,1,,,,,,,,,0,,,44,0
320387,note_on,0,0,1,,,,,,,,,0,,,59,0
320387,note_on,0,0,1,,,,,,,,,0,,,63,0
320400,note_on,13,0,1,,,,,,,,,0,,,44,58
320400,set_tempo,240,1,0,,,,,,697674,,,,,,,
320400,note_on,0,0,1,,,,,,,,,0,,,63,58
320400,note_on,0,0,1,,,,,,,,,0,,,47,58
320400,note_on,0,0,1,,,,,,,,,0,,,51,58
320400,note_on,0,0,1,,,,,,,,,0,,,54,58
320400,note_on,0,0,1,,,,,,,,,0,,,57,58
320400,note_on,0,0,1,,,,,,,,,0,,,59,58
320627,note_on,0,0,1,,,,,,,,,0,,,47,0
320627,note_on,227,0,1,,,,,,,,,0,,,44,0
320627,note_on,0,0,1,,,,,,,,,0,,,63,0
320627,note_on,0,0,1,,,,,,,,,0,,,59,0
320627,note_on,0,0,1,,,,,,,,,0,,,57,0
320627,note_on,0,0,1,,,,,,,,,0,,,54,0
320627,note_on,0,0,1,,,,,,,,,0,,,51,0
320640,note_on,0,0,1,,,,,,,,,0,,,51,60
320640,note_on,0,0,1,,,,,,,,,0,,,54,60
320640,note_on,0,0,1,,,,,,,,,0,,,59,60
320640,set_tempo,240,1,0,,,,,,750000,,,,,,,
320640,note_on,0,0,1,,,,,,,,,0,,,63,60
320640,note_on,0,0,1,,,,,,,,,0,,,47,60
320640,note_on,0,0,1,,,,,,,,,0,,,57,60
320640,note_on,13,0,1,,,,,,,,,0,,,44,60
320807,note_on,167,0,0,,,,,,,,,0,,,71,0
320867,note_on,227,0,1,,,,,,,,,0,,,44,0
320867,note_on,0,0,1,,,,,,,,,0,,,47,0
320867,note_on,0,0,1,,,,,,,,,0,,,59,0
320867,note_on,0,0,1,,,,,,,,,0,,,57,0
320867,note_on,0,0,1,,,,,,,,,0,,,54,0
320867,note_on,0,0,1,,,,,,,,,0,,,63,0
320867,note_on,0,0,1,,,,,,,,,0,,,51,0
320880,note_on,13,0,1,,,,,,,,,0,,,32,66
320880,set_tempo,73,1,0,,,,,,750000,,,,,,,
320880,note_on,0,0,0,,,,,,,,,0,,,71,72
320881,control_change,1,0,0,,,,,,,64,0,0,,,,
321107,note_on,227,0,1,,,,,,,,,0,,,32,0
321120,note_on,0,0,0,,,,,,,,,0,,,58,62
321120,note_on,13,0,1,,,,,,,,,0,,,44,62
321120,note_on,0,0,1,,,,,,,,,0,,,51,62
321120,note_on,0,0,0,,,,,,,,,0,,,56,62
321120,set_tempo,239,1,0,,,,,,683371,,,,,,,
321120,note_on,0,0,0,,,,,,,,,0,,,61,62
321120,note_on,0,0,1,,,,,,,,,0,,,54,62
321335,note_on,215,0,0,,,,,,,,,0,,,71,0
321347,note_on,0,0,0,,,,,,,,,0,,,58,0
321347,note_on,0,0,0,,,,,,,,,0,,,61,0
321347,note_on,0,0,1,,,,,,,,,0,,,54,0
321347,note_on,0,0,1,,,,,,,,,0,,,51,0
321347,note_on,227,0,1,,,,,,,,,0,,,44,0
321347,note_on,12,0,0,,,,,,,,,0,,,56,0
321360,note_on,13,0,0,,,,,,,,,0,,,71,78
321360,note_on,13,0,1,,,,,,,,,0,,,35,71
321587,note_on,227,0,1,,,,,,,,,0,,,35,0
321600,set_tempo,240,1,0,,,,,,631579,,,,,,,
321600,note_on,0,0,0,,,,,,,,,0,,,56,67
321600,note_on,13,0,1,,,,,,,,,0,,,47,67
321600,note_on,0,0,0,,,,,,,,,0,,,58,67
321600,note_on,0,0,0,,,,,,,,,0,,,61,67
321600,note_on,0,0,1,,,,,,,,,0,,,54,67
321600,note_on,0,0,1,,,,,,,,,0,,,51,67
321815,note_on,215,0,0,,,,,,,,,0,,,71,0
321827,note_on,0,0,1,,,,,,,,,0,,,54,0
321827,note_on,12,0,0,,,,,,,,,0,,,56,0
321827,note_on,0,0,0,,,,,,,,,0,,,61,0
321827,note_on,0,0,0,,,,,,,,,0,,,58,0
321827,note_on,227,0,1,,,,,,,,,0,,,47,0
321827,note_on,0,0,1,,,,,,,,,0,,,51,0
321840,note_on,13,0,0,,,,,,,,,0,,,71,83
321840,note_on,13,0,1,,,,,,,,,0,,,39,76
322067,note_on,227,0,1,,,,,,,,,0,,,39,0
322080,note_on,0,0,1,,,,,,,,,0,,,54,72
322080,note_on,0,0,0,,,,,,,,,0,,,61,72
322080,note_on,0,0,0,,,,,,,,,0,,,58,72
322080,note_on,240,0,0,,,,,,,,,0,,,56,72
322080,note_on,13,0,1,,,,,,,,,0,,,51,72
322295,note_on,215,0,0,,,,,,,,,0,,,71,0
322307,note_on,0,0,1,,,,,,,,,0,,,54,0
322307,note_on,12,0,0,,,,,,,,,0,,,56,0
322307,note_on,227,0,1,,,,,,,,,0,,,51,0
322307,note_on,0,0,0,,,,,,,,,0,,,61,0
322307,note_on,0,0,0,,,,,,,,,0,,,58,0
322320,note_on,0,0,0,,,,,,,,,0,,,71,112
322320,note_on,13,0,1,,,,,,,,,0,,,44,85
322320,set_tempo,13,1,0,,,,,,631579,,,,,,,
322547,note_on,227,0,1,,,,,,,,,0,,,44,0
322560,note_on,0,0,0,,,,,,,,,0,,,62,75
322560,note_on,0,0,0,,,,,,,,,0,,,56,75
322560,note_on,13,0,1,,,,,,,,,0,,,50,75
322560,note_on,0,0,1,,,,,,,,,0,,,53,75
322560,set_tempo,240,1,0,,,,,,632244,,,,,,,
322787,note_on,0,0,1,,,,,,,,,0,,,53,0
322787,note_on,227,0,0,,,,,,,,,0,,,56,0
322787,note_on,227,0,1,,,,,,,,,0,,,50,0
322787,note_on,0,0,0,,,,,,,,,0,,,62,0
322799,note_on,12,0,0,,,,,,,,,0,,,71,0
322800,note_on,0,0,0,,,,,,,,,0,,,70,88
322800,set_tempo,1,1,0,,,,,,634921,,,,,,,
322800,note_on,13,0,1,,,,,,,,,0,,,47,80
323027,note_on,227,0,1,,,,,,,,,0,,,47,0
323040,set_tempo,240,1,0,,,,,,639659,,,,,,,
323040,note_on,0,0,0,,,,,,,,,0,,,62,73
323040,note_on,0,0,1,,,,,,,,,0,,,53,73
323040,note_on,13,0,1,,,,,,,,,0,,,50,73
323040,note_on,0,0,0,,,,,,,,,0,,,56,73
323255,note_on,215,0,0,,,,,,,,,0,,,70,0
323267,note_on,0,0,1,,,,,,,,,0,,,53,0
323267,note_on,0,0,0,,,,,,,,,0,,,62,0
323267,note_on,12,0,0,,,,,,,,,0,,,56,0
323267,note_on,227,0,1,,,,,,,,,0,,,50,0
323280,set_tempo,13,1,0,,,,,,645856,,,,,,,
323280,note_on,0,0,0,,,,,,,,,0,,,68,86
323280,note_on,13,0,1,,,,,,,,,0,,,41,78
323507,note_on,227,0,1,,,,,,,,,0,,,41,0
323520,set_tempo,240,1,0,,,,,,654308,,,,,,,
323520,note_on,0,0,0,,,,,,,,,0,,,56,71
323520,note_on,0,0,0,,,,,,,,,0,,,59,71
323520,note_on,13,0,1,,,,,,,,,0,,,50,71
323520,note_on,0,0,1,,,,,,,,,0,,,53,71
323735,note_on,215,0,0,,,,,,,,,0,,,68,0
323747,note_on,12,0,0,,,,,,,,,0,,,56,0
323747,note_on,0,0,0,,,,,,,,,0,,,59,0
323747,note_on,0,0,1,,,,,,,,,0,,,53,0
323747,note_on,227,0,1,,,,,,,,,0,,,50,0
323760,set_tempo,13,1,0,,,,,,664452,,,,,,,
323760,note_on,13,0,1,,,,,,,,,0,,,40,76
323760,note_on,0,0,0,,,,,,,,,0,,,68,83
323987,note_on,227,0,1,,,,,,,,,0,,,40,0
324000,note_on,0,0,0,,,,,,,,,0,,,59,70
324000,set_tempo,240,1,0,,,,,,677201,,,,,,,
324000,note_on,0,0,1,,,,,,,,,0,,,52,70
324000,note_on,0,0,0,,,,,,,,,0,,,56,70
324000,note_on,13,0,1,,,,,,,,,0,,,50,70
324215,note_on,215,0,0,,,,,,,,,0,,,68,0
324227,note_on,227,0,1,,,,,,,,,0,,,50,0
324227,note_on,12,0,0,,,,,,,,,0,,,56,0
324227,note_on,0,0,1,,,,,,,,,0,,,52,0
324227,note_on,0,0,0,,,,,,,,,0,,,59,0
324240,set_tempo,13,1,0,,,,,,692042,,,,,,,
324240,note_on,13,0,1,,,,,,,,,0,,,38,75
324240,note_on,0,0,0,,,,,,,,,0,,,66,82
324467,note_on,227,0,1,,,,,,,,,0,,,38,0
324480,note_on,0,0,0,,,,,,,,,0,,,59,68
324480,note_on,0,0,0,,,,,,,,,0,,,56,68
324480,note_on,0,0,1,,,,,,,,,0,,,52,68
324480,set_tempo,240,1,0,,,,,,710059,,,,,,,
324480,note_on,13,0,1,,,,,,,,,0,,,50,68
324695,note_on,215,0,0,,,,,,,,,0,,,66,0
324707,note_on,0,0,1,,,,,,,,,0,,,52,0
324707,note_on,227,0,1,,,,,,,,,0,,,50,0
324707,note_on,0,0,0,,,,,,,,,0,,,59,0
324707,note_on,12,0,0,,,,,,,,,0,,,56,0
324720,note_on,0,0,0,,,,,,,,,0,,,64,80
324720,note_on,13,0,1,,,,,,,,,0,,,35,73
324720,set_tempo,13,1,0,,,,,,731707,,,,,,,
324947,note_on,227,0,1,,,,,,,,,0,,,35,0
324960,note_on,0,0,1,,,,,,,,,0,,,56,66
324960,note_on,13,0,1,,,,,,,,,0,,,50,66
324960,note_on,0,0,1,,,,,,,,,0,,,52,66
325175,note_on,455,0,0,,,,,,,,,0,,,64,0
325187,note_on,0,0,1,,,,,,,,,0,,,56,0
325187,note_on,227,0,1,,,,,,,,,0,,,50,0
325187,note_on,0,0,1,,,,,,,,,0,,,52,0
325200,note_on,13,0,1,,,,,,,,,0,,,32,71
325202,control_change,2,0,1,,,,,,,64,127,0,,,,
325256,note_on,54,0,1,,,,,,,,,0,,,48,71
325313,note_on,57,0,1,,,,,,,,,0,,,51,71
325370,note_on,57,0,1,,,,,,,,,0,,,63,72
325678,note_on,0,0,1,,,,,,,,,0,,,63,0
325678,note_on,0,0,1,,,,,,,,,0,,,51,0
325678,note_on,308,0,1,,,,,,,,,0,,,48,0
325679,note_on,1,0,1,,,,,,,,,0,,,32,0
325680,set_tempo,505,1,0,,,,,,1333333,,,,,,,
325920,note_on,241,0,1,,,,,,,,,0,,,51,68
325921,control_change,1,0,1,,,,,,,64,0,0,,,,
325979,note_on,58,0,1,,,,,,,,,0,,,51,0
325980,note_on,1,0,1,,,,,,,,,0,,,53,68
326039,note_on,59,0,1,,,,,,,,,0,,,53,0
326040,note_on,1,0,1,,,,,,,,,0,,,51,68
326099,note_on,59,0,1,,,,,,,,,0,,,51,0
326100,note_on,1,0,1,,,,,,,,,0,,,50,68
326159,note_on,59,0,1,,,,,,,,,0,,,50,0
326160,note_on,1,0,1,,,,,,,,,0,,,51,68
326219,note_on,59,0,1,,,,,,,,,0,,,51,0
326220,set_tempo,540,1,0,,,,,,825002,,,,,,,
326220,note_on,1,0,1,,,,,,,,,0,,,60,68
326459,set_tempo,239,1,0,,,,,,750002,,,,,,,
326459,note_on,239,0,1,,,,,,,,,0,,,60,0
326460,note_on,1,0,1,,,,,,,,,0,,,55,68
326460,set_tempo,1,1,0,,,,,,975002,,,,,,,
326639,set_tempo,179,1,0,,,,,,750002,,,,,,,
326687,note_on,227,0,1,,,,,,,,,0,,,55,0
326700,note_on,13,0,1,,,,,,,,,0,,,58,68
327419,note_on,719,0,1,,,,,,,,,0,,,58,0
327420,note_on,1,0,1,,,,,,,,,0,,,56,68
327659,note_on,239,0,1,,,,,,,,,0,,,56,0
327660,note_on,1,0,1,,,,,,,,,0,,,48,68
327899,note_on,239,0,1,,,,,,,,,0,,,48,0
327900,set_tempo,1261,1,0,,,,,,1125003,,,,,,,
327900,note_on,1,0,1,,,,,,,,,0,,,49,68
328070,note_on,170,0,1,,,,,,,,,0,,,49,0
328079,set_tempo,179,1,0,,,,,,750002,,,,,,,
328080,note_on,10,0,1,,,,,,,,,0,,,53,81
328082,control_change,2,0,1,,,,,,,64,127,0,,,,
328560,note_on,0,0,1,,,,,,,,,0,,,46,65
328560,note_on,0,0,1,,,,,,,,,0,,,49,65
328560,note_on,478,0,1,,,,,,,,,0,,,39,65
329015,note_on,0,0,1,,,,,,,,,0,,,46,0
329015,note_on,455,0,1,,,,,,,,,0,,,39,0
329015,note_on,0,0,1,,,,,,,,,0,,,49,0
329040,note_on,0,0,1,,,,,,,,,0,,,46,65
329040,note_on,25,0,1,,,,,,,,,0,,,39,65
329040,note_on,0,0,1,,,,,,,,,0,,,49,65
329109,note_on,1030,0,0,,,,,,,,,0,,,55,65
329173,note_on,64,0,0,,,,,,,,,0,,,55,0
329177,note_on,0,0,0,,,,,,,,,0,,,58,65
329177,set_tempo,4,1,0,,,,,,750000,,,,,,,
329241,note_on,64,0,0,,,,,,,,,0,,,58,0
329246,note_on,0,0,0,,,,,,,,,0,,,61,65
329246,set_tempo,5,1,0,,,,,,744417,,,,,,,
329310,note_on,64,0,0,,,,,,,,,0,,,61,0
329314,note_on,0,0,0,,,,,,,,,0,,,63,65
329314,set_tempo,4,1,0,,,,,,739827,,,,,,,
329378,note_on,64,0,0,,,,,,,,,0,,,63,0
329383,note_on,0,0,0,,,,,,,,,0,,,67,65
329383,set_tempo,5,1,0,,,,,,734394,,,,,,,
329447,note_on,64,0,0,,,,,,,,,0,,,67,0
329451,set_tempo,4,1,0,,,,,,729927,,,,,,,
329451,note_on,0,0,0,,,,,,,,,0,,,70,65
329495,note_on,455,0,1,,,,,,,,,0,,,39,0
329495,note_on,0,0,1,,,,,,,,,0,,,46,0
329495,note_on,0,0,1,,,,,,,,,0,,,49,0
329515,note_on,64,0,0,,,,,,,,,0,,,70,0
329520,note_on,0,0,1,,,,,,,,,0,,,46,65
329520,note_on,0,0,1,,,,,,,,,0,,,49,65
329520,note_on,25,0,1,,,,,,,,,0,,,39,65
329520,note_on,0,0,0,,,,,,,,,0,,,73,65
329520,set_tempo,5,1,0,,,,,,724638,,,,,,,
329584,note_on,64,0,0,,,,,,,,,0,,,73,0
329589,note_on,0,0,0,,,,,,,,,0,,,75,65
329589,set_tempo,5,1,0,,,,,,720288,,,,,,,
329653,note_on,64,0,0,,,,,,,,,0,,,75,0
329657,note_on,0,0,0,,,,,,,,,0,,,79,65
329657,set_tempo,4,1,0,,,,,,715137,,,,,,,
329675,note_on,155,0,1,,,,,,,,,0,,,53,0
329721,note_on,64,0,0,,,,,,,,,0,,,79,0
329726,set_tempo,5,1,0,,,,,,710059,,,,,,,
329726,note_on,0,0,0,,,,,,,,,0,,,82,65
329760,set_tempo,34,1,0,,,,,,708383,,,,,,,
329760,note_on,85,0,1,,,,,,,,,0,,,51,78
329790,note_on,30,0,0,,,,,,,,,0,,,82,0
329794,set_tempo,4,1,0,,,,,,705882,,,,,,,
329794,note_on,0,0,0,,,,,,,,,0,,,85,65
329858,note_on,64,0,0,,,,,,,,,0,,,85,0
329863,note_on,5,0,0,,,,,,,,,0,,,89,65
329927,note_on,64,0,0,,,,,,,,,0,,,89,0
329931,note_on,0,0,0,,,,,,,,,0,,,87,65
329931,set_tempo,4,1,0,,,,,,705882,,,,,,,
329975,note_on,0,0,1,,,,,,,,,0,,,46,0
329975,note_on,215,0,1,,,,,,,,,0,,,39,0
329975,note_on,0,0,1,,,,,,,,,0,,,49,0
329987,note_on,12,0,1,,,,,,,,,0,,,51,0
329995,note_on,64,0,0,,,,,,,,,0,,,87,0
330000,note_on,0,0,0,,,,,,,,,0,,,85,65
330000,note_on,13,0,1,,,,,,,,,0,,,45,78
330000,set_tempo,5,1,0,,,,,,707547,,,,,,,
330075,note_on,75,0,0,,,,,,,,,0,,,85,0
330080,set_tempo,5,1,0,,,,,,712589,,,,,,,
330080,note_on,0,0,0,,,,,,,,,0,,,82,65
330155,note_on,75,0,0,,,,,,,,,0,,,82,0
330160,set_tempo,5,1,0,,,,,,719424,,,,,,,
330160,note_on,0,0,0,,,,,,,,,0,,,79,65
330227,note_on,227,0,1,,,,,,,,,0,,,45,0
330235,note_on,75,0,0,,,,,,,,,0,,,79,0
330240,note_on,0,0,0,,,,,,,,,0,,,75,65
330240,set_tempo,5,1,0,,,,,,728155,,,,,,,
330240,note_on,13,0,1,,,,,,,,,0,,,46,78
330315,note_on,75,0,0,,,,,,,,,0,,,75,0
330320,set_tempo,5,1,0,,,,,,739827,,,,,,,
330320,note_on,0,0,0,,,,,,,,,0,,,73,65
330395,note_on,75,0,0,,,,,,,,,0,,,73,0
330400,note_on,0,0,0,,,,,,,,,0,,,70,65
330400,set_tempo,5,1,0,,,,,,752823,,,,,,,
330467,note_on,227,0,1,,,,,,,,,0,,,46,0
330475,note_on,75,0,0,,,,,,,,,0,,,70,0
330480,note_on,13,0,1,,,,,,,,,0,,,49,78
330480,set_tempo,5,1,0,,,,,,768246,,,,,,,
330480,note_on,0,0,0,,,,,,,,,0,,,67,65
330555,note_on,75,0,0,,,,,,,,,0,,,67,0
330560,set_tempo,5,1,0,,,,,,786370,,,,,,,
330560,note_on,0,0,0,,,,,,,,,0,,,63,65
330635,note_on,75,0,0,,,,,,,,,0,,,63,0
330640,note_on,0,0,0,,,,,,,,,0,,,61,65
330640,set_tempo,5,1,0,,,,,,806452,,,,,,,
330707,note_on,227,0,1,,,,,,,,,0,,,49,0
330715,note_on,75,0,0,,,,,,,,,0,,,61,0
330720,note_on,0,0,0,,,,,,,,,0,,,58,65
330720,set_tempo,5,1,0,,,,,,829876,,,,,,,
330720,note_on,13,0,1,,,,,,,,,0,,,48,78
330795,note_on,75,0,0,,,,,,,,,0,,,58,0
330800,note_on,0,0,0,,,,,,,,,0,,,55,65
330800,set_tempo,5,1,0,,,,,,857143,,,,,,,
330875,note_on,75,0,0,,,,,,,,,0,,,55,0
330880,note_on,5,0,0,,,,,,,,,0,,,51,65
330947,note_on,227,0,1,,,,,,,,,0,,,48,0
330955,note_on,75,0,0,,,,,,,,,0,,,51,0
330960,note_on,13,0,1,,,,,,,,,0,,,32,74
330960,set_tempo,5,1,0,,,,,,2571429,,,,,,,
330960,note_on,0,0,1,,,,,,,,,0,,,39,74
330960,note_on,0,0,1,,,,,,,,,0,,,44,74
330960,note_on,0,0,1,,,,,,,,,0,,,48,74
330961,control_change,1,0,1,,,,,,,64,0,0,,,,
331187,note_on,226,0,1,,,,,,,,,0,,,32,0
331187,note_on,0,0,1,,,,,,,,,0,,,39,0
331187,note_on,0,0,1,,,,,,,,,0,,,44,0
331187,note_on,0,0,1,,,,,,,,,0,,,48,0
331199,set_tempo,239,1,0,,,,,,857143,,,,,,,
331560,note_on,373,0,1,,,,,,,,,0,,,51,68
331679,note_on,119,0,1,,,,,,,,,0,,,51,0
331680,set_tempo,481,1,0,,,,,,1200000,,,,,,,
331680,note_on,1,0,1,,,,,,,,,0,,,51,68
331739,note_on,59,0,1,,,,,,,,,0,,,51,0
331740,note_on,1,0,1,,,,,,,,,0,,,53,68
331799,note_on,59,0,1,,,,,,,,,0,,,53,0
331800,note_on,1,0,1,,,,,,,,,0,,,51,68
331859,note_on,59,0,1,,,,,,,,,0,,,51,0
331860,note_on,1,0,1,,,,,,,,,0,,,50,68
331919,note_on,59,0,1,,,,,,,,,0,,,50,0
331920,note_on,1,0,1,,,,,,,,,0,,,51,68
331979,note_on,59,0,1,,,,,,,,,0,,,51,0
331980,note_on,1,0,1,,,,,,,,,0,,,63,68
331980,set_tempo,300,1,0,,,,,,895522,,,,,,,
332139,note_on,159,0,1,,,,,,,,,0,,,63,0
332140,note_on,1,0,1,,,,,,,,,0,,,60,68
332299,note_on,159,0,1,,,,,,,,,0,,,60,0
332300,note_on,1,0,1,,,,,,,,,0,,,55,68
332451,note_on,151,0,1,,,,,,,,,0,,,55,0
332460,set_tempo,480,1,0,,,,,,750002,,,,,,,
332460,note_on,9,0,1,,,,,,,,,0,,,58,92
333179,note_on,719,0,1,,,,,,,,,0,,,58,0
333180,note_on,1,0,1,,,,,,,,,0,,,56,68
333407,note_on,227,0,1,,,,,,,,,0,,,56,0
333420,set_tempo,960,1,0,,,,,,900002,,,,,,,
333420,note_on,13,0,1,,,,,,,,,0,,,48,68
333590,note_on,170,0,1,,,,,,,,,0,,,48,0
333599,set_tempo,179,1,0,,,,,,750002,,,,,,,
333600,note_on,10,0,1,,,,,,,,,0,,,49,68
333827,note_on,227,0,1,,,,,,,,,0,,,49,0
333840,note_on,13,0,1,,,,,,,,,0,,,53,78
333842,control_change,2,0,1,,,,,,,64,127,0,,,,
334320,note_on,0,0,1,,,,,,,,,0,,,49,65
334320,note_on,478,0,1,,,,,,,,,0,,,39,65
334320,note_on,0,0,1,,,,,,,,,0,,,46,65
334389,note_on,790,0,0,,,,,,,,,0,,,55,65
334453,note_on,64,0,0,,,,,,,,,0,,,55,0
334457,note_on,4,0,0,,,,,,,,,0,,,58,65
334521,note_on,64,0,0,,,,,,,,,0,,,58,0
334526,note_on,5,0,0,,,,,,,,,0,,,61,66
334590,note_on,64,0,0,,,,,,,,,0,,,61,0
334594,note_on,4,0,0,,,,,,,,,0,,,63,66
334658,note_on,64,0,0,,,,,,,,,0,,,63,0
334663,note_on,5,0,0,,,,,,,,,0,,,67,66
334727,note_on,64,0,0,,,,,,,,,0,,,67,0
334731,note_on,4,0,0,,,,,,,,,0,,,70,67
334775,note_on,0,0,1,,,,,,,,,0,,,49,0
334775,note_on,455,0,1,,,,,,,,,0,,,39,0
334775,note_on,0,0,1,,,,,,,,,0,,,46,0
334795,note_on,64,0,0,,,,,,,,,0,,,70,0
334800,note_on,25,0,1,,,,,,,,,0,,,39,67
334800,note_on,0,0,1,,,,,,,,,0,,,49,67
334800,note_on,0,0,1,,,,,,,,,0,,,46,67
334800,note_on,5,0,0,,,,,,,,,0,,,73,67
334864,note_on,64,0,0,,,,,,,,,0,,,73,0
334869,note_on,5,0,0,,,,,,,,,0,,,75,67
334933,note_on,64,0,0,,,,,,,,,0,,,75,0
334937,note_on,4,0,0,,,,,,,,,0,,,79,68
335001,note_on,64,0,0,,,,,,,,,0,,,79,0
335006,note_on,5,0,0,,,,,,,,,0,,,82,68
335070,note_on,64,0,0,,,,,,,,,0,,,82,0
335074,note_on,4,0,0,,,,,,,,,0,,,85,68
335138,note_on,64,0,0,,,,,,,,,0,,,85,0
335143,note_on,5,0,0,,,,,,,,,0,,,87,69
335207,note_on,64,0,0,,,,,,,,,0,,,87,0
335211,note_on,4,0,0,,,,,,,,,0,,,91,69
335255,note_on,0,0,1,,,,,,,,,0,,,49,0
335255,note_on,0,0,1,,,,,,,,,0,,,46,0
335255,note_on,455,0,1,,,,,,,,,0,,,39,0
335275,note_on,64,0,0,,,,,,,,,0,,,91,0
335280,note_on,0,0,1,,,,,,,,,0,,,46,70
335280,note_on,5,0,0,,,,,,,,,0,,,94,70
335280,note_on,25,0,1,,,,,,,,,0,,,39,70
335280,note_on,0,0,1,,,,,,,,,0,,,49,70
335344,note_on,64,0,0,,,,,,,,,0,,,94,0
335349,note_on,5,0,0,,,,,,,,,0,,,97,70
335413,note_on,64,0,0,,,,,,,,,0,,,97,0
335417,note_on,4,0,0,,,,,,,,,0,,,101,70
335435,note_on,155,0,1,,,,,,,,,0,,,53,0
335481,note_on,64,0,0,,,,,,,,,0,,,101,0
335486,note_on,5,0,0,,,,,,,,,0,,,99,70
335520,note_on,85,0,1,,,,,,,,,0,,,51,83
335550,note_on,64,0,0,,,,,,,,,0,,,99,0
335554,note_on,4,0,0,,,,,,,,,0,,,97,70
335618,note_on,64,0,0,,,,,,,,,0,,,97,0
335623,note_on,5,0,0,,,,,,,,,0,,,94,70
335687,note_on,64,0,0,,,,,,,,,0,,,94,0
335691,note_on,4,0,0,,,,,,,,,0,,,91,70
335735,note_on,215,0,1,,,,,,,,,0,,,39,0
335735,note_on,0,0,1,,,,,,,,,0,,,49,0
335735,note_on,0,0,1,,,,,,,,,0,,,46,0
335747,note_on,12,0,1,,,,,,,,,0,,,51,0
335755,note_on,64,0,0,,,,,,,,,0,,,91,0
335760,note_on,13,0,1,,,,,,,,,0,,,45,82
335760,note_on,5,0,0,,,,,,,,,0,,,87,69
335824,note_on,64,0,0,,,,,,,,,0,,,87,0
335829,note_on,5,0,0,,,,,,,,,0,,,85,69
335893,note_on,64,0,0,,,,,,,,,0,,,85,0
335897,note_on,4,0,0,,,,,,,,,0,,,82,69
335961,note_on,64,0,0,,,,,,,,,0,,,82,0
335966,note_on,5,0,0,,,,,,,,,0,,,79,69
335987,note_on,227,0,1,,,,,,,,,0,,,45,0
336000,note_on,13,0,1,,,,,,,,,0,,,46,82
336030,note_on,64,0,0,,,,,,,,,0,,,79,0
336034,note_on,4,0,0,,,,,,,,,0,,,75,69
336098,note_on,64,0,0,,,,,,,,,0,,,75,0
336103,note_on,5,0,0,,,,,,,,,0,,,73,69
336167,note_on,64,0,0,,,,,,,,,0,,,73,0
336171,note_on,4,0,0,,,,,,,,,0,,,70,69
336227,note_on,227,0,1,,,,,,,,,0,,,46,0
336235,note_on,64,0,0,,,,,,,,,0,,,70,0
336240,note_on,0,0,0,,,,,,,,,0,,,67,68
336240,set_tempo,5,1,0,,,,,,750000,,,,,,,
336240,note_on,13,0,1,,,,,,,,,0,,,49,85
336315,note_on,75,0,0,,,,,,,,,0,,,67,0
336320,note_on,0,0,0,,,,,,,,,0,,,63,68
336320,set_tempo,5,1,0,,,,,,756620,,,,,,,
336395,note_on,75,0,0,,,,,,,,,0,,,63,0
336400,note_on,0,0,0,,,,,,,,,0,,,61,68
336400,set_tempo,5,1,0,,,,,,775194,,,,,,,
336475,note_on,75,0,0,,,,,,,,,0,,,61,0
336480,note_on,0,0,0,,,,,,,,,0,,,58,68
336480,set_tempo,5,1,0,,,,,,807537,,,,,,,
336555,note_on,75,0,0,,,,,,,,,0,,,58,0
336560,set_tempo,5,1,0,,,,,,857143,,,,,,,
336560,note_on,0,0,0,,,,,,,,,0,,,55,64
336581,note_on,341,0,1,,,,,,,,,0,,,49,0
336600,set_tempo,40,1,0,,,,,,1000000,,,,,,,
336600,note_on,19,0,1,,,,,,,,,0,,,48,88
336635,note_on,35,0,0,,,,,,,,,0,,,55,0
336640,note_on,5,0,0,,,,,,,,,0,,,51,64
336713,note_on,113,0,1,,,,,,,,,0,,,48,0
336715,note_on,75,0,0,,,,,,,,,0,,,51,0
336720,set_tempo,5,1,0,,,,,,705882,,,,,,,
336720,note_on,7,0,1,,,,,,,,,0,,,44,84
336721,control_change,1,0,1,,,,,,,64,0,0,,,,
336722,control_change,1,0,1,,,,,,,64,127,0,,,,
336800,note_on,80,0,0,,,,,,,,,0,,,48,67
336875,note_on,75,0,0,,,,,,,,,0,,,48,0
336880,note_on,5,0,0,,,,,,,,,0,,,51,67
336955,note_on,75,0,0,,,,,,,,,0,,,51,0
336960,note_on,5,0,0,,,,,,,,,0,,,56,67
337035,note_on,75,0,0,,,,,,,,,0,,,56,0
337040,note_on,5,0,0,,,,,,,,,0,,,58,67
337115,note_on,75,0,0,,,,,,,,,0,,,58,0
337120,note_on,5,0,0,,,,,,,,,0,,,60,67
337195,note_on,75,0,0,,,,,,,,,0,,,60,0
337200,note_on,5,0,0,,,,,,,,,0,,,63,67
337200,note_on,478,0,1,,,,,,,,,0,,,32,67
337200,note_on,0,0,1,,,,,,,,,0,,,39,67
337275,note_on,75,0,0,,,,,,,,,0,,,63,0
337280,note_on,5,0,0,,,,,,,,,0,,,68,67
337355,note_on,75,0,0,,,,,,,,,0,,,68,0
337360,note_on,5,0,0,,,,,,,,,0,,,70,67
337435,note_on,75,0,0,,,,,,,,,0,,,70,0
337440,note_on,5,0,0,,,,,,,,,0,,,72,67
337515,note_on,75,0,0,,,,,,,,,0,,,72,0
337520,note_on,5,0,0,,,,,,,,,0,,,75,67
337595,note_on,75,0,0,,,,,,,,,0,,,75,0
337600,note_on,5,0,0,,,,,,,,,0,,,80,67
337655,note_on,455,0,1,,,,,,,,,0,,,32,0
337655,note_on,0,0,1,,,,,,,,,0,,,39,0
337675,note_on,75,0,0,,,,,,,,,0,,,80,0
337680,note_on,25,0,1,,,,,,,,,0,,,32,67
337680,note_on,0,0,1,,,,,,,,,0,,,39,67
337680,note_on,5,0,0,,,,,,,,,0,,,82,67
337755,note_on,75,0,0,,,,,,,,,0,,,82,0
337760,note_on,5,0,0,,,,,,,,,0,,,84,67
337835,note_on,75,0,0,,,,,,,,,0,,,84,0
337840,note_on,5,0,0,,,,,,,,,0,,,87,67
337915,note_on,75,0,0,,,,,,,,,0,,,87,0
337920,note_on,5,0,0,,,,,,,,,0,,,92,67
337995,note_on,75,0,0,,,,,,,,,0,,,92,0
338000,note_on,5,0,0,,,,,,,,,0,,,94,67
338075,note_on,75,0,0,,,,,,,,,0,,,94,0
338080,note_on,5,0,0,,,,,,,,,0,,,96,67
338135,note_on,0,0,1,,,,,,,,,0,,,39,0
338135,note_on,455,0,1,,,,,,,,,0,,,32,0
338155,note_on,75,0,0,,,,,,,,,0,,,96,0
338160,note_on,0,0,1,,,,,,,,,0,,,40,70
338160,note_on,25,0,1,,,,,,,,,0,,,37,70
338160,note_on,5,0,0,,,,,,,,,0,,,94,67
338235,note_on,75,0,0,,,,,,,,,0,,,94,0
338240,note_on,5,0,0,,,,,,,,,0,,,92,67
338315,note_on,155,0,1,,,,,,,,,0,,,44,0
338315,note_on,75,0,0,,,,,,,,,0,,,92,0
338320,note_on,5,0,0,,,,,,,,,0,,,88,67
338395,note_on,75,0,0,,,,,,,,,0,,,88,0
338400,note_on,5,0,0,,,,,,,,,0,,,85,67
338400,note_on,85,0,1,,,,,,,,,0,,,43,80
338475,note_on,75,0,0,,,,,,,,,0,,,85,0
338480,note_on,5,0,0,,,,,,,,,0,,,82,67
338555,note_on,75,0,0,,,,,,,,,0,,,82,0
338560,note_on,5,0,0,,,,,,,,,0,,,80,67
338615,note_on,215,0,1,,,,,,,,,0,,,37,0
338615,note_on,0,0,1,,,,,,,,,0,,,40,0
338627,note_on,12,0,1,,,,,,,,,0,,,43,0
338635,note_on,75,0,0,,,,,,,,,0,,,80,0
338640,note_on,13,0,1,,,,,,,,,0,,,46,79
338640,note_on,5,0,0,,,,,,,,,0,,,76,66
338715,note_on,75,0,0,,,,,,,,,0,,,76,0
338720,note_on,5,0,0,,,,,,,,,0,,,73,66
338795,note_on,75,0,0,,,,,,,,,0,,,73,0
338800,note_on,5,0,0,,,,,,,,,0,,,70,66
338867,note_on,227,0,1,,,,,,,,,0,,,46,0
338875,note_on,75,0,0,,,,,,,,,0,,,70,0
338880,note_on,5,0,0,,,,,,,,,0,,,68,66
338880,note_on,13,0,1,,,,,,,,,0,,,44,79
338955,note_on,75,0,0,,,,,,,,,0,,,68,0
338960,note_on,5,0,0,,,,,,,,,0,,,64,66
339035,note_on,75,0,0,,,,,,,,,0,,,64,0
339040,note_on,5,0,0,,,,,,,,,0,,,61,66
339107,note_on,227,0,1,,,,,,,,,0,,,44,0
339115,note_on,75,0,0,,,,,,,,,0,,,61,0
339120,note_on,13,0,1,,,,,,,,,0,,,49,78
339120,note_on,5,0,0,,,,,,,,,0,,,58,65
339233,note_on,113,0,0,,,,,,,,,0,,,58,0
339240,note_on,7,0,0,,,,,,,,,0,,,56,65
339347,note_on,227,0,1,,,,,,,,,0,,,49,0
339353,note_on,113,0,0,,,,,,,,,0,,,56,0
339360,note_on,7,0,0,,,,,,,,,0,,,52,65
339360,note_on,13,0,1,,,,,,,,,0,,,46,78
339473,note_on,113,0,0,,,,,,,,,0,,,52,0
339480,note_on,7,0,0,,,,,,,,,0,,,49,65
339587,note_on,227,0,1,,,,,,,,,0,,,46,0
339593,note_on,113,0,0,,,,,,,,,0,,,49,0
339600,note_on,13,0,1,,,,,,,,,0,,,44,80
339601,control_change,1,0,1,,,,,,,64,0,0,,,,
339602,control_change,1,0,1,,,,,,,64,127,0,,,,
339680,note_on,87,0,0,,,,,,,,,0,,,48,64
339755,note_on,75,0,0,,,,,,,,,0,,,48,0
339760,note_on,5,0,0,,,,,,,,,0,,,51,64
339835,note_on,75,0,0,,,,,,,,,0,,,51,0
339840,note_on,5,0,0,,,,,,,,,0,,,56,64
339915,note_on,75,0,0,,,,,,,,,0,,,56,0
339920,note_on,5,0,0,,,,,,,,,0,,,58,64
339995,note_on,75,0,0,,,,,,,,,0,,,58,0
340000,note_on,5,0,0,,,,,,,,,0,,,60,64
340075,note_on,75,0,0,,,,,,,,,0,,,60,0
340080,note_on,5,0,0,,,,,,,,,0,,,63,64
340080,note_on,0,0,1,,,,,,,,,0,,,39,64
340080,note_on,478,0,1,,,,,,,,,0,,,32,64
340155,note_on,75,0,0,,,,,,,,,0,,,63,0
340160,note_on,5,0,0,,,,,,,,,0,,,68,64
340235,note_on,75,0,0,,,,,,,,,0,,,68,0
340240,note_on,5,0,0,,,,,,,,,0,,,70,65
340315,note_on,75,0,0,,,,,,,,,0,,,70,0
340320,note_on,5,0,0,,,,,,,,,0,,,72,65
340395,note_on,75,0,0,,,,,,,,,0,,,72,0
340400,note_on,5,0,0,,,,,,,,,0,,,75,66
340475,note_on,75,0,0,,,,,,,,,0,,,75,0
340480,note_on,5,0,0,,,,,,,,,0,,,80,66
340535,note_on,455,0,1,,,,,,,,,0,,,32,0
340535,note_on,0,0,1,,,,,,,,,0,,,39,0
340555,note_on,75,0,0,,,,,,,,,0,,,80,0
340560,note_on,0,0,1,,,,,,,,,0,,,39,66
340560,note_on,5,0,0,,,,,,,,,0,,,82,66
340560,note_on,25,0,1,,,,,,,,,0,,,32,66
340635,note_on,75,0,0,,,,,,,,,0,,,82,0
340640,note_on,5,0,0,,,,,,,,,0,,,84,67
340715,note_on,75,0,0,,,,,,,,,0,,,84,0
340720,note_on,5,0,0,,,,,,,,,0,,,87,67
340795,note_on,75,0,0,,,,,,,,,0,,,87,0
340800,note_on,5,0,0,,,,,,,,,0,,,92,68
340875,note_on,75,0,0,,,,,,,,,0,,,92,0
340880,note_on,5,0,0,,,,,,,,,0,,,94,68
340955,note_on,75,0,0,,,,,,,,,0,,,94,0
340960,note_on,5,0,0,,,,,,,,,0,,,97,79
341015,note_on,455,0,1,,,,,,,,,0,,,32,0
341015,note_on,0,0,1,,,,,,,,,0,,,39,0
341035,note_on,75,0,0,,,,,,,,,0,,,97,0
341040,note_on,25,0,1,,,,,,,,,0,,,37,69
341040,note_on,0,0,1,,,,,,,,,0,,,41,69
341040,note_on,5,0,0,,,,,,,,,0,,,94,69
341115,note_on,75,0,0,,,,,,,,,0,,,94,0
341120,note_on,5,0,0,,,,,,,,,0,,,92,69
341195,note_on,155,0,1,,,,,,,,,0,,,44,0
341195,note_on,75,0,0,,,,,,,,,0,,,92,0
341200,note_on,5,0,0,,,,,,,,,0,,,89,69
341275,note_on,75,0,0,,,,,,,,,0,,,89,0
341280,note_on,85,0,1,,,,,,,,,0,,,43,81
341280,note_on,5,0,0,,,,,,,,,0,,,85,68
341355,note_on,75,0,0,,,,,,,,,0,,,85,0
341360,note_on,5,0,0,,,,,,,,,0,,,82,68
341435,note_on,75,0,0,,,,,,,,,0,,,82,0
341440,note_on,5,0,0,,,,,,,,,0,,,80,68
341495,note_on,215,0,1,,,,,,,,,0,,,37,0
341495,note_on,0,0,1,,,,,,,,,0,,,41,0
341507,note_on,12,0,1,,,,,,,,,0,,,43,0
341515,note_on,75,0,0,,,,,,,,,0,,,80,0
341520,note_on,5,0,0,,,,,,,,,0,,,77,67
341520,note_on,13,0,1,,,,,,,,,0,,,46,80
341610,note_on,90,0,0,,,,,,,,,0,,,77,0
341616,note_on,6,0,0,,,,,,,,,0,,,73,67
341706,note_on,90,0,0,,,,,,,,,0,,,73,0
341712,set_tempo,6,1,0,,,,,,705882,,,,,,,
341712,note_on,0,0,0,,,,,,,,,0,,,70,66
341747,note_on,227,0,1,,,,,,,,,0,,,46,0
341760,set_tempo,48,1,0,,,,,,706714,,,,,,,
341760,note_on,13,0,1,,,,,,,,,0,,,44,79
341802,note_on,42,0,0,,,,,,,,,0,,,70,0
341808,set_tempo,6,1,0,,,,,,710059,,,,,,,
341808,note_on,0,0,0,,,,,,,,,0,,,68,66
341898,note_on,90,0,0,,,,,,,,,0,,,68,0
341904,note_on,0,0,0,,,,,,,,,0,,,65,65
341904,set_tempo,6,1,0,,,,,,721154,,,,,,,
341987,note_on,227,0,1,,,,,,,,,0,,,44,0
341994,note_on,90,0,0,,,,,,,,,0,,,65,0
342000,note_on,0,0,0,,,,,,,,,0,,,61,65
342000,note_on,13,0,1,,,,,,,,,0,,,53,81
342000,set_tempo,6,1,0,,,,,,740741,,,,,,,
342090,note_on,90,0,0,,,,,,,,,0,,,61,0
342096,note_on,0,0,0,,,,,,,,,0,,,58,64
342096,set_tempo,6,1,0,,,,,,769231,,,,,,,
342151,note_on,151,0,1,,,,,,,,,0,,,53,0
342160,note_on,9,0,1,,,,,,,,,0,,,49,80
342186,note_on,90,0,0,,,,,,,,,0,,,58,0
342192,note_on,6,0,0,,,,,,,,,0,,,56,64
342282,note_on,90,0,0,,,,,,,,,0,,,56,0
342288,note_on,6,0,0,,,,,,,,,0,,,53,64
342311,note_on,151,0,1,,,,,,,,,0,,,49,0
342320,note_on,9,0,1,,,,,,,,,0,,,46,80
342378,note_on,90,0,0,,,,,,,,,0,,,53,0
342384,note_on,6,0,0,,,,,,,,,0,,,49,64
342471,note_on,151,0,1,,,,,,,,,0,,,46,0
342474,note_on,90,0,0,,,,,,,,,0,,,49,0
342480,note_on,9,0,1,,,,,,,,,0,,,44,80
342480,set_tempo,6,1,0,,,,,,631579,,,,,,,
342481,control_change,1,0,1,,,,,,,64,0,0,,,,
342482,control_change,1,0,1,,,,,,,64,127,0,,,,
342600,note_on,120,0,0,,,,,,,,,0,,,48,64
342713,note_on,113,0,0,,,,,,,,,0,,,48,0
342720,note_on,7,0,0,,,,,,,,,0,,,51,64
342833,note_on,113,0,0,,,,,,,,,0,,,51,0
342840,note_on,7,0,0,,,,,,,,,0,,,56,64
342953,note_on,113,0,0,,,,,,,,,0,,,56,0
342960,note_on,478,0,1,,,,,,,,,0,,,32,64
342960,note_on,7,0,0,,,,,,,,,0,,,58,64
342960,note_on,0,0,1,,,,,,,,,0,,,39,64
343073,note_on,113,0,0,,,,,,,,,0,,,58,0
343080,note_on,7,0,0,,,,,,,,,0,,,60,64
343193,note_on,113,0,0,,,,,,,,,0,,,60,0
343200,note_on,7,0,0,,,,,,,,,0,,,63,64
343313,note_on,113,0,0,,,,,,,,,0,,,63,0
343320,note_on,7,0,0,,,,,,,,,0,,,68,64
343415,note_on,455,0,1,,,,,,,,,0,,,32,0
343415,note_on,0,0,1,,,,,,,,,0,,,39,0
343433,note_on,113,0,0,,,,,,,,,0,,,68,0
343440,note_on,0,0,1,,,,,,,,,0,,,39,64
343440,note_on,7,0,0,,,,,,,,,0,,,70,64
343440,note_on,25,0,1,,,,,,,,,0,,,32,64
343553,note_on,113,0,0,,,,,,,,,0,,,70,0
343560,note_on,7,0,0,,,,,,,,,0,,,72,64
343673,note_on,113,0,0,,,,,,,,,0,,,72,0
343680,note_on,7,0,0,,,,,,,,,0,,,75,64
343793,note_on,113,0,0,,,,,,,,,0,,,75,0
343800,note_on,7,0,0,,,,,,,,,0,,,80,65
343895,note_on,455,0,1,,,,,,,,,0,,,32,0
343895,note_on,0,0,1,,,,,,,,,0,,,39,0
343913,note_on,113,0,0,,,,,,,,,0,,,80,0
343920,note_on,0,0,1,,,,,,,,,0,,,39,65
343920,note_on,7,0,0,,,,,,,,,0,,,82,65
343920,note_on,25,0,1,,,,,,,,,0,,,32,65
344033,note_on,113,0,0,,,,,,,,,0,,,82,0
344040,note_on,7,0,0,,,,,,,,,0,,,84,65
344153,note_on,113,0,0,,,,,,,,,0,,,84,0
344160,note_on,7,0,0,,,,,,,,,0,,,87,65
344273,note_on,113,0,0,,,,,,,,,0,,,87,0
344280,note_on,7,0,0,,,,,,,,,0,,,92,65
344375,note_on,0,0,1,,,,,,,,,0,,,39,0
344375,note_on,455,0,1,,,,,,,,,0,,,32,0
344393,note_on,113,0,0,,,,,,,,,0,,,92,0
344400,note_on,0,0,1,,,,,,,,,0,,,39,65
344400,note_on,7,0,0,,,,,,,,,0,,,94,65
344400,note_on,25,0,1,,,,,,,,,0,,,32,65
344513,note_on,113,0,0,,,,,,,,,0,,,94,0
344520,note_on,7,0,0,,,,,,,,,0,,,96,65
344633,note_on,113,0,0,,,,,,,,,0,,,96,0
344640,note_on,7,0,0,,,,,,,,,0,,,99,66
344753,note_on,113,0,0,,,,,,,,,0,,,99,0
344760,note_on,7,0,0,,,,,,,,,0,,,101,66
344855,note_on,0,0,1,,,,,,,,,0,,,39,0
344855,note_on,455,0,1,,,,,,,,,0,,,32,0
344873,note_on,113,0,0,,,,,,,,,0,,,101,0
344880,note_on,0,0,1,,,,,,,,,0,,,39,66
344880,note_on,25,0,1,,,,,,,,,0,,,32,66
344880,note_on,7,0,0,,,,,,,,,0,,,99,66
344970,note_on,90,0,0,,,,,,,,,0,,,99,0
344976,note_on,6,0,0,,,,,,,,,0,,,96,66
345066,note_on,90,0,0,,,,,,,,,0,,,96,0
345072,note_on,6,0,0,,,,,,,,,0,,,94,66
345162,note_on,90,0,0,,,,,,,,,0,,,94,0
345168,note_on,6,0,0,,,,,,,,,0,,,92,66
345215,note_on,335,0,1,,,,,,,,,0,,,44,0
345258,note_on,90,0,0,,,,,,,,,0,,,92,0
345264,note_on,6,0,0,,,,,,,,,0,,,87,66
345335,note_on,0,0,1,,,,,,,,,0,,,39,0
345335,note_on,120,0,1,,,,,,,,,0,,,32,0
345354,note_on,90,0,0,,,,,,,,,0,,,87,0
345360,note_on,25,0,1,,,,,,,,,0,,,48,84
345360,note_on,6,0,0,,,,,,,,,0,,,84,67
345361,control_change,1,0,1,,,,,,,64,0,0,,,,
345362,control_change,1,0,1,,,,,,,64,127,0,,,,
345473,note_on,113,0,0,,,,,,,,,0,,,84,0
345480,note_on,7,0,0,,,,,,,,,0,,,80,67
345593,note_on,113,0,0,,,,,,,,,0,,,80,0
345600,note_on,7,0,0,,,,,,,,,0,,,77,67
345713,note_on,113,0,0,,,,,,,,,0,,,77,0
345720,note_on,7,0,0,,,,,,,,,0,,,75,67
345833,note_on,113,0,0,,,,,,,,,0,,,75,0
345840,note_on,7,0,0,,,,,,,,,0,,,72,67
345840,note_on,0,0,1,,,,,,,,,0,,,39,67
345840,note_on,478,0,1,,,,,,,,,0,,,32,67
345953,note_on,113,0,0,,,,,,,,,0,,,72,0
345960,note_on,7,0,0,,,,,,,,,0,,,70,67
346073,note_on,113,0,0,,,,,,,,,0,,,70,0
346080,note_on,7,0,0,,,,,,,,,0,,,68,67
346193,note_on,113,0,0,,,,,,,,,0,,,68,0
346200,note_on,7,0,0,,,,,,,,,0,,,63,67
346295,note_on,0,0,1,,,,,,,,,0,,,39,0
346295,note_on,455,0,1,,,,,,,,,0,,,32,0
346313,note_on,113,0,0,,,,,,,,,0,,,63,0
346320,note_on,0,0,1,,,,,,,,,0,,,39,67
346320,note_on,7,0,0,,,,,,,,,0,,,60,67
346320,note_on,25,0,1,,,,,,,,,0,,,32,67
346433,note_on,113,0,0,,,,,,,,,0,,,60,0
346440,note_on,7,0,0,,,,,,,,,0,,,63,67
346553,note_on,113,0,0,,,,,,,,,0,,,63,0
346560,note_on,7,0,0,,,,,,,,,0,,,68,67
346673,note_on,113,0,0,,,,,,,,,0,,,68,0
346680,note_on,7,0,0,,,,,,,,,0,,,70,67
346727,note_on,407,0,1,,,,,,,,,0,,,48,0
346775,note_on,0,0,1,,,,,,,,,0,,,39,0
346775,note_on,48,0,1,,,,,,,,,0,,,32,0
346793,note_on,113,0,0,,,,,,,,,0,,,70,0
346800,note_on,0,0,0,,,,,,,,,0,,,72,66
346800,note_on,25,0,1,,,,,,,,,0,,,51,82
346800,set_tempo,7,1,0,,,,,,631579,,,,,,,
346913,note_on,113,0,0,,,,,,,,,0,,,72,0
346920,note_on,0,0,0,,,,,,,,,0,,,75,66
346920,set_tempo,7,1,0,,,,,,628931,,,,,,,
347033,note_on,113,0,0,,,,,,,,,0,,,75,0
347040,set_tempo,7,1,0,,,,,,624350,,,,,,,
347040,note_on,0,0,0,,,,,,,,,0,,,80,66
347153,note_on,113,0,0,,,,,,,,,0,,,80,0
347160,set_tempo,7,1,0,,,,,,618557,,,,,,,
347160,note_on,0,0,0,,,,,,,,,0,,,82,66
347273,note_on,113,0,0,,,,,,,,,0,,,82,0
347280,set_tempo,7,1,0,,,,,,612870,,,,,,,
347280,note_on,480,0,1,,,,,,,,,0,,,32,65
347280,note_on,0,0,0,,,,,,,,,0,,,84,65
347280,note_on,0,0,1,,,,,,,,,0,,,39,65
347393,note_on,113,0,0,,,,,,,,,0,,,84,0
347400,set_tempo,7,1,0,,,,,,606673,,,,,,,
347400,note_on,0,0,0,,,,,,,,,0,,,87,65
347513,note_on,113,0,0,,,,,,,,,0,,,87,0
347520,note_on,0,0,0,,,,,,,,,0,,,92,65
347520,set_tempo,7,1,0,,,,,,600000,,,,,,,
347633,note_on,113,0,0,,,,,,,,,0,,,92,0
347640,note_on,7,0,0,,,,,,,,,0,,,94,64
347735,note_on,0,0,1,,,,,,,,,0,,,39,0
347735,note_on,455,0,1,,,,,,,,,0,,,32,0
347753,note_on,113,0,0,,,,,,,,,0,,,94,0
347760,note_on,25,0,1,,,,,,,,,0,,,32,64
347760,note_on,0,0,1,,,,,,,,,0,,,39,64
347760,note_on,7,0,0,,,,,,,,,0,,,96,64
347873,note_on,113,0,0,,,,,,,,,0,,,96,0
347880,note_on,7,0,0,,,,,,,,,0,,,99,64
347993,note_on,113,0,0,,,,,,,,,0,,,99,0
348000,note_on,7,0,0,,,,,,,,,0,,,101,64
348113,note_on,113,0,0,,,,,,,,,0,,,101,0
348120,note_on,7,0,0,,,,,,,,,0,,,99,63
348167,note_on,407,0,1,,,,,,,,,0,,,51,0
348215,note_on,48,0,1,,,,,,,,,0,,,32,0
348215,note_on,0,0,1,,,,,,,,,0,,,39,0
348233,note_on,113,0,0,,,,,,,,,0,,,99,0
348240,note_on,7,0,0,,,,,,,,,0,,,96,63
348240,note_on,25,0,1,,,,,,,,,0,,,56,79
348241,control_change,1,0,1,,,,,,,64,0,0,,,,
348242,control_change,1,0,1,,,,,,,64,127,0,,,,
348353,note_on,113,0,0,,,,,,,,,0,,,96,0
348360,note_on,7,0,0,,,,,,,,,0,,,94,63
348473,note_on,113,0,0,,,,,,,,,0,,,94,0
348480,note_on,7,0,0,,,,,,,,,0,,,92,63
348593,note_on,113,0,0,,,,,,,,,0,,,92,0
348600,note_on,7,0,0,,,,,,,,,0,,,87,62
348713,note_on,113,0,0,,,,,,,,,0,,,87,0
348720,note_on,478,0,1,,,,,,,,,0,,,32,62
348720,note_on,0,0,1,,,,,,,,,0,,,39,62
348720,note_on,7,0,0,,,,,,,,,0,,,84,62
348833,note_on,113,0,0,,,,,,,,,0,,,84,0
348840,note_on,7,0,0,,,,,,,,,0,,,82,62
348953,note_on,113,0,0,,,,,,,,,0,,,82,0
348960,note_on,7,0,0,,,,,,,,,0,,,80,61
349073,note_on,113,0,0,,,,,,,,,0,,,80,0
349080,note_on,7,0,0,,,,,,,,,0,,,75,61
349175,note_on,455,0,1,,,,,,,,,0,,,32,0
349175,note_on,0,0,1,,,,,,,,,0,,,39,0
349193,note_on,113,0,0,,,,,,,,,0,,,75,0
349200,note_on,7,0,0,,,,,,,,,0,,,72,61
349200,note_on,0,0,1,,,,,,,,,0,,,39,61
349200,note_on,25,0,1,,,,,,,,,0,,,32,61
349313,note_on,113,0,0,,,,,,,,,0,,,72,0
349320,note_on,7,0,0,,,,,,,,,0,,,75,61
349433,note_on,113,0,0,,,,,,,,,0,,,75,0
349440,note_on,7,0,0,,,,,,,,,0,,,80,60
349553,note_on,113,0,0,,,,,,,,,0,,,80,0
349560,note_on,7,0,0,,,,,,,,,0,,,82,60
349655,note_on,455,0,1,,,,,,,,,0,,,32,0
349655,note_on,0,0,1,,,,,,,,,0,,,39,0
349673,note_on,113,0,0,,,,,,,,,0,,,82,0
349680,note_on,7,0,0,,,,,,,,,0,,,84,60
349793,note_on,113,0,0,,,,,,,,,0,,,84,0
349800,note_on,7,0,0,,,,,,,,,0,,,87,59
349913,note_on,113,0,0,,,,,,,,,0,,,87,0
349920,note_on,7,0,0,,,,,,,,,0,,,92,59
350033,note_on,113,0,0,,,,,,,,,0,,,92,0
350040,note_on,7,0,0,,,,,,,,,0,,,94,59
350153,note_on,113,0,0,,,,,,,,,0,,,94,0
350160,note_on,505,0,1,,,,,,,,,0,,,32,58
350160,note_on,0,0,1,,,,,,,,,0,,,39,58
350160,note_on,7,0,0,,,,,,,,,0,,,96,59
350273,note_on,113,0,0,,,,,,,,,0,,,96,0
350280,note_on,7,0,0,,,,,,,,,0,,,99,58
350393,note_on,113,0,0,,,,,,,,,0,,,99,0
350400,note_on,7,0,0,,,,,,,,,0,,,101,58
350513,note_on,113,0,0,,,,,,,,,0,,,101,0
350520,note_on,7,0,0,,,,,,,,,0,,,99,58
350615,note_on,455,0,1,,,,,,,,,0,,,32,0
350615,note_on,0,0,1,,,,,,,,,0,,,39,0
350633,note_on,113,0,0,,,,,,,,,0,,,99,0
350640,note_on,7,0,0,,,,,,,,,0,,,96,58
350640,note_on,0,0,1,,,,,,,,,0,,,39,57
350640,note_on,25,0,1,,,,,,,,,0,,,32,57
350753,note_on,113,0,0,,,,,,,,,0,,,96,0
350760,note_on,7,0,0,,,,,,,,,0,,,94,57
350873,note_on,113,0,0,,,,,,,,,0,,,94,0
350880,note_on,7,0,0,,,,,,,,,0,,,92,57
350975,note_on,335,0,1,,,,,,,,,0,,,56,0
350993,note_on,113,0,0,,,,,,,,,0,,,92,0
351000,note_on,7,0,0,,,,,,,,,0,,,87,57
351095,note_on,0,0,1,,,,,,,,,0,,,39,0
351095,note_on,120,0,1,,,,,,,,,0,,,32,0
351113,note_on,113,0,0,,,,,,,,,0,,,87,0
351120,note_on,7,0,0,,,,,,,,,0,,,84,57
351233,note_on,113,0,0,,,,,,,,,0,,,84,0
351240,note_on,0,0,0,,,,,,,,,0,,,87,57
351240,set_tempo,7,1,0,,,,,,600000,,,,,,,
351353,note_on,113,0,0,,,,,,,,,0,,,87,0
351360,set_tempo,7,1,0,,,,,,589971,,,,,,,
351360,note_on,0,0,0,,,,,,,,,0,,,92,57
351473,note_on,113,0,0,,,,,,,,,0,,,92,0
351480,set_tempo,7,1,0,,,,,,574713,,,,,,,
351480,note_on,0,0,0,,,,,,,,,0,,,94,57
351593,note_on,113,0,0,,,,,,,,,0,,,94,0
351600,set_tempo,7,1,0,,,,,,558140,,,,,,,
351600,note_on,0,0,0,,,,,,,,,0,,,96,56
351713,note_on,113,0,0,,,,,,,,,0,,,96,0
351720,note_on,0,0,0,,,,,,,,,0,,,99,56
351720,set_tempo,7,1,0,,,,,,540054,,,,,,,
351833,note_on,113,0,0,,,,,,,,,0,,,99,0
351840,note_on,0,0,0,,,,,,,,,0,,,101,56
351840,set_tempo,7,1,0,,,,,,521739,,,,,,,
351953,note_on,113,0,0,,,,,,,,,0,,,101,0
351960,note_on,0,0,0,,,,,,,,,0,,,99,56
351960,set_tempo,7,1,0,,,,,,521739,,,,,,,
352073,note_on,113,0,0,,,,,,,,,0,,,99,0
352080,note_on,0,0,0,,,,,,,,,0,,,96,55
352080,set_tempo,7,1,0,,,,,,528634,,,,,,,
352193,note_on,113,0,0,,,,,,,,,0,,,96,0
352200,set_tempo,7,1,0,,,,,,540054,,,,,,,
352200,note_on,0,0,0,,,,,,,,,0,,,94,55
352313,note_on,113,0,0,,,,,,,,,0,,,94,0
352320,set_tempo,7,1,0,,,,,,554529,,,,,,,
352320,note_on,0,0,0,,,,,,,,,0,,,92,55
352433,note_on,113,0,0,,,,,,,,,0,,,92,0
352440,set_tempo,7,1,0,,,,,,571429,,,,,,,
352440,note_on,0,0,0,,,,,,,,,0,,,87,54
352553,note_on,113,0,0,,,,,,,,,0,,,87,0
352560,note_on,7,0,0,,,,,,,,,0,,,84,54
352673,note_on,113,0,0,,,,,,,,,0,,,84,0
352680,note_on,7,0,0,,,,,,,,,0,,,87,54
352793,note_on,113,0,0,,,,,,,,,0,,,87,0
352800,note_on,7,0,0,,,,,,,,,0,,,92,54
352913,note_on,113,0,0,,,,,,,,,0,,,92,0
352920,note_on,7,0,0,,,,,,,,,0,,,94,53
353033,note_on,113,0,0,,,,,,,,,0,,,94,0
353040,note_on,7,0,0,,,,,,,,,0,,,96,53
353153,note_on,113,0,0,,,,,,,,,0,,,96,0
353160,note_on,0,0,0,,,,,,,,,0,,,99,53
353160,set_tempo,7,1,0,,,,,,571429,,,,,,,
353273,note_on,113,0,0,,,,,,,,,0,,,99,0
353280,note_on,0,0,0,,,,,,,,,0,,,101,52
353280,set_tempo,7,1,0,,,,,,581959,,,,,,,
353393,note_on,113,0,0,,,,,,,,,0,,,101,0
353400,set_tempo,7,1,0,,,,,,607287,,,,,,,
353400,note_on,0,0,0,,,,,,,,,0,,,99,52
353513,note_on,113,0,0,,,,,,,,,0,,,99,0
353520,set_tempo,7,1,0,,,,,,647249,,,,,,,
353520,note_on,0,0,0,,,,,,,,,0,,,96,52
353633,note_on,113,0,0,,,,,,,,,0,,,96,0
353640,note_on,0,0,0,,,,,,,,,0,,,94,52
353640,set_tempo,7,1,0,,,,,,705882,,,,,,,
353753,note_on,113,0,0,,,,,,,,,0,,,94,0
353760,note_on,7,0,0,,,,,,,,,0,,,92,51
353873,note_on,113,0,0,,,,,,,,,0,,,92,0
353880,note_on,7,0,0,,,,,,,,,0,,,87,51
353993,note_on,113,0,0,,,,,,,,,0,,,87,0
354000,set_tempo,7,1,0,,,,,,705882,,,,,,,
354000,note_on,0,0,0,,,,,,,,,0,,,84,51
354001,control_change,2906,0,1,,,,,,,64,0,0,,,,
354002,control_change,2,0,0,,,,,,,64,127,0,,,,
354113,note_on,111,0,0,,,,,,,,,0,,,84,0
354120,note_on,0,0,0,,,,,,,,,0,,,82,51
354120,set_tempo,7,1,0,,,,,,713436,,,,,,,
354233,note_on,113,0,0,,,,,,,,,0,,,82,0
354240,note_on,0,0,0,,,,,,,,,0,,,80,50
354240,set_tempo,7,1,0,,,,,,737101,,,,,,,
354353,note_on,113,0,0,,,,,,,,,0,,,80,0
354360,note_on,7,0,0,,,,,,,,,0,,,77,50
354473,note_on,113,0,0,,,,,,,,,0,,,77,0
354480,note_on,7,0,0,,,,,,,,,0,,,75,52
354593,note_on,113,0,0,,,,,,,,,0,,,75,0
354600,set_tempo,7,1,0,,,,,,705882,,,,,,,
354600,note_on,0,0,0,,,,,,,,,0,,,75,51
354690,note_on,90,0,0,,,,,,,,,0,,,75,0
354696,note_on,6,0,0,,,,,,,,,0,,,77,51
354786,note_on,90,0,0,,,,,,,,,0,,,77,0
354792,note_on,6,0,0,,,,,,,,,0,,,75,51
354882,note_on,90,0,0,,,,,,,,,0,,,75,0
354888,note_on,6,0,0,,,,,,,,,0,,,74,51
354978,note_on,90,0,0,,,,,,,,,0,,,74,0
354984,note_on,6,0,0,,,,,,,,,0,,,75,51
355074,note_on,90,0,0,,,,,,,,,0,,,75,0
355080,note_on,0,0,0,,,,,,,,,0,,,84,50
355080,set_tempo,6,1,0,,,,,,1058824,,,,,,,
355307,note_on,227,0,0,,,,,,,,,0,,,84,0
355319,set_tempo,12,1,0,,,,,,705882,,,,,,,
355320,note_on,0,0,0,,,,,,,,,0,,,79,50
355320,set_tempo,1,1,0,,,,,,1058824,,,,,,,
355433,note_on,113,0,0,,,,,,,,,0,,,79,0
355439,set_tempo,6,1,0,,,,,,705882,,,,,,,
355440,note_on,0,0,0,,,,,,,,,0,,,56,49
355440,set_tempo,1,1,0,,,,,,1000000,,,,,,,
355483,note_on,43,0,0,,,,,,,,,0,,,63,49
355528,note_on,45,0,0,,,,,,,,,0,,,68,49
355573,note_on,45,0,0,,,,,,,,,0,,,72,49
355618,note_on,45,0,0,,,,,,,,,0,,,75,49
355663,note_on,45,0,0,,,,,,,,,0,,,82,53
356158,note_on,0,0,0,,,,,,,,,0,,,68,0
356158,note_on,0,0,0,,,,,,,,,0,,,75,0
356158,note_on,0,0,0,,,,,,,,,0,,,82,0
356158,note_on,495,0,0,,,,,,,,,0,,,63,0
356158,note_on,0,0,0,,,,,,,,,0,,,72,0
356159,note_on,1,0,0,,,,,,,,,0,,,56,0
356160,set_tempo,1,1,0,,,,,,923077,,,,,,,
356160,note_on,0,0,0,,,,,,,,,0,,,80,49
356387,note_on,227,0,0,,,,,,,,,0,,,80,0
356400,note_on,0,0,0,,,,,,,,,0,,,72,49
356400,set_tempo,13,1,0,,,,,,821918,,,,,,,
356627,note_on,227,0,0,,,,,,,,,0,,,72,0
356640,note_on,13,0,0,,,,,,,,,0,,,73,49
356867,note_on,227,0,0,,,,,,,,,0,,,73,0
356880,note_on,2879,0,1,,,,,,,,,0,,,44,49
356880,note_on,0,0,0,,,,,,,,,0,,,63,49
356880,set_tempo,13,1,0,,,,,,821918,,,,,,,
356881,control_change,1,0,0,,,,,,,64,0,0,,,,
356882,control_change,1,0,0,,,,,,,64,127,0,,,,
356964,note_on,82,0,0,,,,,,,,,0,,,68,49
356964,note_on,84,0,1,,,,,,,,,0,,,51,49
357050,note_on,86,0,0,,,,,,,,,0,,,77,53
357050,note_on,86,0,1,,,,,,,,,0,,,60,49
357358,note_on,308,0,0,,,,,,,,,0,,,68,0
357358,note_on,0,0,0,,,,,,,,,0,,,77,0
357358,note_on,0,0,1,,,,,,,,,0,,,60,0
357358,note_on,308,0,1,,,,,,,,,0,,,51,0
357359,note_on,1,0,1,,,,,,,,,0,,,44,0
357359,note_on,1,0,0,,,,,,,,,0,,,63,0
357360,set_tempo,1,1,0,,,,,,865801,,,,,,,
357840,note_on,0,0,0,,,,,,,,,0,,,63,49
357840,note_on,481,0,1,,,,,,,,,0,,,44,49
357840,set_tempo,480,1,0,,,,,,1003344,,,,,,,
357893,note_on,53,0,1,,,,,,,,,0,,,51,49
357893,note_on,53,0,0,,,,,,,,,0,,,68,49
357948,note_on,55,0,1,,,,,,,,,0,,,60,49
357948,note_on,55,0,0,,,,,,,,,0,,,75,53
358318,note_on,370,0,0,,,,,,,,,0,,,68,0
358318,note_on,370,0,1,,,,,,,,,0,,,51,0
358319,note_on,1,0,0,,,,,,,,,0,,,63,0
358319,note_on,1,0,1,,,,,,,,,0,,,44,0
358319,note_on,0,0,1,,,,,,,,,0,,,60,0
358319,note_on,0,0,0,,,,,,,,,0,,,75,0
358320,note_on,1,0,1,,,,,,,,,0,,,44,49
358320,note_on,0,0,0,,,,,,,,,0,,,63,49
358320,set_tempo,1,1,0,,,,,,1333333,,,,,,,
358360,note_on,40,0,0,,,,,,,,,0,,,68,49
358360,note_on,40,0,1,,,,,,,,,0,,,51,49
358401,note_on,41,0,0,,,,,,,,,0,,,73,53
358401,note_on,41,0,1,,,,,,,,,0,,,60,49
358798,note_on,0,0,1,,,,,,,,,0,,,60,0
358798,note_on,397,0,0,,,,,,,,,0,,,68,0
358798,note_on,0,0,0,,,,,,,,,0,,,73,0
358798,note_on,397,0,1,,,,,,,,,0,,,51,0
358799,note_on,1,0,1,,,,,,,,,0,,,44,0
358799,note_on,1,0,0,,,,,,,,,0,,,63,0
358800,set_tempo,1,1,0,,,,,,2666667,,,,,,,
358800,note_on,0,0,0,,,,,,,,,0,,,63,49
358800,note_on,1,0,1,,,,,,,,,0,,,44,49
358823,note_on,23,0,0,,,,,,,,,0,,,68,49
358823,note_on,23,0,1,,,,,,,,,0,,,51,49
358847,note_on,24,0,0,,,,,,,,,0,,,72,53
358847,note_on,24,0,1,,,,,,,,,0,,,60,53
359758,note_on,911,0,0,,,,,,,,,0,,,68,0
359758,note_on,0,0,1,,,,,,,,,0,,,60,0
359758,note_on,0,0,0,,,,,,,,,0,,,72,0
359758,note_on,911,0,1,,,,,,,,,0,,,51,0
359759,note_on,1,0,1,,,,,,,,,0,,,44,0
359759,note_on,0,0,0,,,,,,,,,0,,,63,0
359759,set_tempo,1,1,0,,,,,,1333333,,,,,,,
359760,end_of_track,1,1,1,,,,,,,,,,,,,
359760,control_change,1,0,0,,,,,,,64,0,0,,,,
359761,end_of_track,1,1,0,,,,,,,,,,,,,
