tick,type,time,meta,track,numerator,denominator,clocks_per_click,notated_32nd_notes_per_beat,key,tempo,port,program,channel,control,value,note,velocity
0,control_change,0,0,1,,,,,,,,,0,7,127,,
0,end_of_track,0,1,7,,,,,,,,,,,,,
0,key_signature,0,1,0,,,,,Bb,,,,,,,,
0,marker,0,1,0,,,,,,,,,,,,,
0,midi_port,0,1,1,,,,,,,0,,,,,,
0,midi_port,0,1,2,,,,,,,0,,,,,,
0,midi_port,0,1,3,,,,,,,0,,,,,,
0,midi_port,0,1,4,,,,,,,0,,,,,,
0,midi_port,0,1,5,,,,,,,0,,,,,,
0,midi_port,0,1,6,,,,,,,0,,,,,,
0,midi_port,0,1,7,,,,,,,0,,,,,,
0,note_on,0,0,4,,,,,,,,,0,,,31,127
0,track_name,0,1,6,,,,,,,,,,,,,
0,end_of_track,0,1,6,,,,,,,,,,,,,
0,program_change,0,0,1,,,,,,,,0,0,,,,
0,program_change,0,0,3,,,,,,,,0,0,,,,
0,program_change,0,0,4,,,,,,,,0,0,,,,
0,program_change,0,0,5,,,,,,,,0,0,,,,
0,set_tempo,0,1,0,,,,,,750000,,,,,,,
0,text,0,1,0,,,,,,,,,,,,,
0,time_signature,0,1,0,23,16,6,8,,,,,,,,,
0,track_name,0,1,0,,,,,,,,,,,,,
0,track_name,0,1,1,,,,,,,,,,,,,
0,track_name,0,1,2,,,,,,,,,,,,,
0,track_name,0,1,3,,,,,,,,,,,,,
0,track_name,0,1,4,,,,,,,,,,,,,
0,track_name,0,1,5,,,,,,,,,,,,,
0,program_change,0,0,2,,,,,,,,0,0,,,,
0,copyright,0,1,0,,,,,,,,,,,,,
0,track_name,0,1,7,,,,,,,,,,,,,
0,control_change,0,0,5,,,,,,,,,0,10,64,,
0,control_change,0,0,5,,,,,,,,,0,64,127,,
0,control_change,0,0,1,,,,,,,,,0,10,64,,
0,control_change,0,0,2,,,,,,,,,0,10,64,,
0,control_change,0,0,3,,,,,,,,,0,7,127,,
0,control_change,0,0,3,,,,,,,,,0,10,64,,
0,control_change,0,0,2,,,,,,,,,0,7,127,,
0,control_change,0,0,4,,,,,,,,,0,10,64,,
0,control_change,0,0,5,,,,,,,,,0,7,127,,
0,control_change,0,0,4,,,,,,,,,0,7,127,,
135,note_on,135,0,4,,,,,,,,,0,,,31,0
135,note_on,0,0,4,,,,,,,,,0,,,34,100
150,note_on,15,0,4,,,,,,,,,0,,,34,0
150,note_on,0,0,4,,,,,,,,,0,,,38,100
165,note_on,15,0,4,,,,,,,,,0,,,38,0
165,note_on,0,0,4,,,,,,,,,0,,,43,100
180,note_on,15,0,4,,,,,,,,,0,,,43,0
180,note_on,0,0,4,,,,,,,,,0,,,46,100
195,note_on,0,0,4,,,,,,,,,0,,,50,100
195,note_on,15,0,4,,,,,,,,,0,,,46,0
210,note_on,0,0,4,,,,,,,,,0,,,55,100
210,note_on,15,0,4,,,,,,,,,0,,,50,0
225,note_on,0,0,4,,,,,,,,,0,,,58,100
225,note_on,15,0,4,,,,,,,,,0,,,55,0
240,note_on,15,0,4,,,,,,,,,0,,,58,0
240,note_on,0,0,4,,,,,,,,,0,,,62,100
255,note_on,15,0,4,,,,,,,,,0,,,62,0
255,control_change,255,0,5,,,,,,,,,0,64,0,,
255,note_on,0,0,4,,,,,,,,,0,,,67,127
390,note_on,0,0,4,,,,,,,,,0,,,66,100
390,note_on,135,0,4,,,,,,,,,0,,,67,0
405,note_on,0,0,4,,,,,,,,,0,,,63,100
405,note_on,15,0,4,,,,,,,,,0,,,66,0
420,note_on,15,0,4,,,,,,,,,0,,,63,0
420,note_on,0,0,4,,,,,,,,,0,,,62,100
435,note_on,15,0,4,,,,,,,,,0,,,62,0
435,note_on,0,0,4,,,,,,,,,0,,,60,100
450,note_on,15,0,4,,,,,,,,,0,,,60,0
450,note_on,0,0,4,,,,,,,,,0,,,58,100
465,note_on,15,0,4,,,,,,,,,0,,,58,0
465,note_on,0,0,4,,,,,,,,,0,,,57,100
480,note_on,15,0,4,,,,,,,,,0,,,57,0
480,note_on,0,0,4,,,,,,,,,0,,,55,100
495,note_on,15,0,4,,,,,,,,,0,,,55,0
495,note_on,0,0,4,,,,,,,,,0,,,54,100
510,note_on,15,0,4,,,,,,,,,0,,,54,0
510,note_on,0,0,4,,,,,,,,,0,,,51,100
525,note_on,0,0,4,,,,,,,,,0,,,50,100
525,note_on,15,0,4,,,,,,,,,0,,,51,0
540,note_on,15,0,4,,,,,,,,,0,,,50,0
540,note_on,0,0,4,,,,,,,,,0,,,48,100
555,note_on,0,0,4,,,,,,,,,0,,,46,100
555,note_on,15,0,4,,,,,,,,,0,,,48,0
570,note_on,0,0,4,,,,,,,,,0,,,45,100
570,note_on,15,0,4,,,,,,,,,0,,,46,0
585,note_on,0,0,4,,,,,,,,,0,,,43,100
585,note_on,15,0,4,,,,,,,,,0,,,45,0
600,note_on,0,0,4,,,,,,,,,0,,,42,100
600,note_on,15,0,4,,,,,,,,,0,,,43,0
615,note_on,0,0,4,,,,,,,,,0,,,39,100
615,note_on,15,0,4,,,,,,,,,0,,,42,0
630,note_on,15,0,4,,,,,,,,,0,,,39,0
630,note_on,0,0,4,,,,,,,,,0,,,38,100
645,note_on,0,0,4,,,,,,,,,0,,,36,100
645,note_on,15,0,4,,,,,,,,,0,,,38,0
660,note_on,0,0,4,,,,,,,,,0,,,34,100
660,note_on,15,0,4,,,,,,,,,0,,,36,0
675,note_on,0,0,4,,,,,,,,,0,,,33,100
675,note_on,15,0,4,,,,,,,,,0,,,34,0
690,note_on,15,0,4,,,,,,,,,0,,,33,0
690,control_change,435,0,5,,,,,,,,,0,64,127,,
690,note_on,690,0,2,,,,,,,,,0,,,46,127
690,time_signature,690,1,0,29,16,6,8,,,,,,,,,
690,note_on,0,0,4,,,,,,,,,0,,,31,127
825,note_on,0,0,2,,,,,,,,,0,,,50,100
825,note_on,135,0,2,,,,,,,,,0,,,46,0
825,note_on,135,0,4,,,,,,,,,0,,,31,0
825,note_on,0,0,4,,,,,,,,,0,,,34,100
840,note_on,0,0,4,,,,,,,,,0,,,38,100
840,note_on,15,0,4,,,,,,,,,0,,,34,0
840,note_on,15,0,2,,,,,,,,,0,,,50,0
840,note_on,0,0,2,,,,,,,,,0,,,55,100
855,note_on,0,0,2,,,,,,,,,0,,,58,100
855,note_on,15,0,4,,,,,,,,,0,,,38,0
855,note_on,15,0,2,,,,,,,,,0,,,55,0
855,note_on,0,0,4,,,,,,,,,0,,,43,100
870,note_on,0,0,2,,,,,,,,,0,,,62,100
870,note_on,15,0,4,,,,,,,,,0,,,43,0
870,note_on,15,0,2,,,,,,,,,0,,,58,0
870,note_on,0,0,4,,,,,,,,,0,,,46,100
885,note_on,15,0,4,,,,,,,,,0,,,46,0
885,note_on,15,0,2,,,,,,,,,0,,,62,0
885,note_on,0,0,4,,,,,,,,,0,,,50,100
885,note_on,885,0,1,,,,,,,,,0,,,67,100
900,note_on,15,0,4,,,,,,,,,0,,,50,0
900,note_on,15,0,1,,,,,,,,,0,,,67,0
900,note_on,0,0,4,,,,,,,,,0,,,55,100
900,note_on,0,0,1,,,,,,,,,0,,,70,100
915,note_on,15,0,4,,,,,,,,,0,,,55,0
915,note_on,0,0,1,,,,,,,,,0,,,74,100
915,note_on,0,0,4,,,,,,,,,0,,,58,100
915,note_on,15,0,1,,,,,,,,,0,,,70,0
930,note_on,15,0,4,,,,,,,,,0,,,58,0
930,note_on,930,0,3,,,,,,,,,0,,,62,100
930,note_on,0,0,1,,,,,,,,,0,,,79,100
930,note_on,15,0,1,,,,,,,,,0,,,74,0
945,note_on,0,0,1,,,,,,,,,0,,,82,100
945,note_on,0,0,3,,,,,,,,,0,,,67,100
945,note_on,15,0,1,,,,,,,,,0,,,79,0
945,note_on,15,0,3,,,,,,,,,0,,,62,0
960,note_on,0,0,3,,,,,,,,,0,,,70,100
960,note_on,0,0,1,,,,,,,,,0,,,86,100
960,note_on,15,0,3,,,,,,,,,0,,,67,0
960,note_on,15,0,1,,,,,,,,,0,,,82,0
975,note_on,0,0,3,,,,,,,,,0,,,74,100
975,note_on,15,0,1,,,,,,,,,0,,,86,0
975,note_on,0,0,1,,,,,,,,,0,,,91,100
975,note_on,15,0,3,,,,,,,,,0,,,70,0
990,note_on,15,0,3,,,,,,,,,0,,,74,0
990,note_on,0,0,3,,,,,,,,,0,,,79,127
990,control_change,300,0,5,,,,,,,,,0,64,0,,
990,note_on,15,0,1,,,,,,,,,0,,,91,0
990,note_on,0,0,1,,,,,,,,,0,,,94,127
1125,note_on,0,0,3,,,,,,,,,0,,,78,100
1125,note_on,135,0,3,,,,,,,,,0,,,79,0
1125,note_on,135,0,1,,,,,,,,,0,,,94,0
1125,note_on,0,0,1,,,,,,,,,0,,,93,100
1140,note_on,15,0,1,,,,,,,,,0,,,93,0
1140,note_on,0,0,1,,,,,,,,,0,,,91,100
1140,note_on,0,0,3,,,,,,,,,0,,,75,100
1140,note_on,15,0,3,,,,,,,,,0,,,78,0
1155,note_on,0,0,3,,,,,,,,,0,,,74,100
1155,note_on,0,0,1,,,,,,,,,0,,,90,100
1155,note_on,15,0,3,,,,,,,,,0,,,75,0
1155,note_on,15,0,1,,,,,,,,,0,,,91,0
1170,note_on,15,0,1,,,,,,,,,0,,,90,0
1170,note_on,0,0,3,,,,,,,,,0,,,72,100
1170,note_on,0,0,1,,,,,,,,,0,,,87,100
1170,note_on,15,0,3,,,,,,,,,0,,,74,0
1185,note_on,0,0,1,,,,,,,,,0,,,86,100
1185,note_on,15,0,3,,,,,,,,,0,,,72,0
1185,note_on,15,0,1,,,,,,,,,0,,,87,0
1185,note_on,0,0,3,,,,,,,,,0,,,70,100
1200,note_on,0,0,3,,,,,,,,,0,,,69,100
1200,note_on,15,0,1,,,,,,,,,0,,,86,0
1200,note_on,15,0,3,,,,,,,,,0,,,70,0
1200,note_on,0,0,1,,,,,,,,,0,,,84,100
1215,note_on,15,0,3,,,,,,,,,0,,,69,0
1215,note_on,0,0,1,,,,,,,,,0,,,82,100
1215,note_on,0,0,3,,,,,,,,,0,,,67,100
1215,note_on,15,0,1,,,,,,,,,0,,,84,0
1230,note_on,15,0,1,,,,,,,,,0,,,82,0
1230,note_on,0,0,3,,,,,,,,,0,,,66,100
1230,note_on,15,0,3,,,,,,,,,0,,,67,0
1230,note_on,0,0,1,,,,,,,,,0,,,81,100
1245,note_on,0,0,3,,,,,,,,,0,,,63,100
1245,note_on,0,0,1,,,,,,,,,0,,,79,100
1245,note_on,15,0,3,,,,,,,,,0,,,66,0
1245,note_on,15,0,1,,,,,,,,,0,,,81,0
1260,note_on,0,0,1,,,,,,,,,0,,,78,100
1260,note_on,15,0,1,,,,,,,,,0,,,79,0
1260,note_on,330,0,4,,,,,,,,,0,,,62,100
1260,note_on,15,0,3,,,,,,,,,0,,,63,0
1275,note_on,15,0,4,,,,,,,,,0,,,62,0
1275,note_on,0,0,1,,,,,,,,,0,,,75,100
1275,note_on,15,0,1,,,,,,,,,0,,,78,0
1275,note_on,0,0,4,,,,,,,,,0,,,60,100
1290,note_on,15,0,4,,,,,,,,,0,,,60,0
1290,note_on,15,0,1,,,,,,,,,0,,,75,0
1290,note_on,0,0,1,,,,,,,,,0,,,74,100
1290,note_on,0,0,4,,,,,,,,,0,,,58,100
1305,note_on,15,0,1,,,,,,,,,0,,,74,0
1305,note_on,0,0,1,,,,,,,,,0,,,72,100
1305,note_on,15,0,4,,,,,,,,,0,,,58,0
1305,note_on,0,0,4,,,,,,,,,0,,,57,100
1320,note_on,0,0,1,,,,,,,,,0,,,70,100
1320,note_on,15,0,4,,,,,,,,,0,,,57,0
1320,note_on,0,0,4,,,,,,,,,0,,,55,100
1320,note_on,15,0,1,,,,,,,,,0,,,72,0
1335,note_on,0,0,1,,,,,,,,,0,,,69,100
1335,note_on,15,0,1,,,,,,,,,0,,,70,0
1335,note_on,0,0,4,,,,,,,,,0,,,54,100
1335,note_on,15,0,4,,,,,,,,,0,,,55,0
1350,note_on,15,0,4,,,,,,,,,0,,,54,0
1350,note_on,0,0,1,,,,,,,,,0,,,67,100
1350,note_on,0,0,4,,,,,,,,,0,,,51,100
1350,note_on,15,0,1,,,,,,,,,0,,,69,0
1365,note_on,15,0,1,,,,,,,,,0,,,67,0
1365,note_on,0,0,4,,,,,,,,,0,,,50,100
1365,note_on,15,0,4,,,,,,,,,0,,,51,0
1365,note_on,0,0,1,,,,,,,,,0,,,66,100
1380,note_on,15,0,4,,,,,,,,,0,,,50,0
1380,note_on,15,0,1,,,,,,,,,0,,,66,0
1380,note_on,0,0,1,,,,,,,,,0,,,63,100
1380,note_on,0,0,4,,,,,,,,,0,,,48,100
1395,note_on,0,0,4,,,,,,,,,0,,,46,100
1395,note_on,15,0,1,,,,,,,,,0,,,63,0
1395,note_on,15,0,4,,,,,,,,,0,,,48,0
1395,note_on,0,0,1,,,,,,,,,0,,,62,100
1410,note_on,0,0,1,,,,,,,,,0,,,60,100
1410,note_on,0,0,4,,,,,,,,,0,,,45,100
1410,note_on,15,0,4,,,,,,,,,0,,,46,0
1410,note_on,15,0,1,,,,,,,,,0,,,62,0
1425,note_on,0,0,4,,,,,,,,,0,,,43,100
1425,note_on,540,0,2,,,,,,,,,0,,,58,100
1425,note_on,15,0,4,,,,,,,,,0,,,45,0
1425,note_on,15,0,1,,,,,,,,,0,,,60,0
1440,note_on,15,0,2,,,,,,,,,0,,,58,0
1440,note_on,0,0,2,,,,,,,,,0,,,57,100
1440,note_on,0,0,4,,,,,,,,,0,,,42,100
1440,note_on,15,0,4,,,,,,,,,0,,,43,0
1455,note_on,15,0,2,,,,,,,,,0,,,57,0
1455,note_on,0,0,2,,,,,,,,,0,,,55,100
1455,note_on,0,0,4,,,,,,,,,0,,,39,100
1455,note_on,15,0,4,,,,,,,,,0,,,42,0
1470,note_on,15,0,4,,,,,,,,,0,,,39,0
1470,note_on,0,0,4,,,,,,,,,0,,,38,100
1470,note_on,15,0,2,,,,,,,,,0,,,55,0
1470,note_on,0,0,2,,,,,,,,,0,,,54,100
1485,note_on,15,0,4,,,,,,,,,0,,,38,0
1485,note_on,0,0,2,,,,,,,,,0,,,51,100
1485,note_on,0,0,4,,,,,,,,,0,,,36,100
1485,note_on,15,0,2,,,,,,,,,0,,,54,0
1500,note_on,0,0,2,,,,,,,,,0,,,50,100
1500,note_on,15,0,2,,,,,,,,,0,,,51,0
1500,note_on,0,0,4,,,,,,,,,0,,,34,100
1500,note_on,15,0,4,,,,,,,,,0,,,36,0
1515,note_on,0,0,2,,,,,,,,,0,,,48,100
1515,note_on,15,0,2,,,,,,,,,0,,,50,0
1515,note_on,15,0,4,,,,,,,,,0,,,34,0
1515,note_on,0,0,4,,,,,,,,,0,,,33,100
1530,note_on,0,0,2,,,,,,,,,0,,,46,100
1530,note_on,0,0,4,,,,,,,,,0,,,38,100
1530,note_on,15,0,2,,,,,,,,,0,,,48,0
1530,note_on,15,0,4,,,,,,,,,0,,,33,0
1545,note_on,0,0,2,,,,,,,,,0,,,45,100
1545,note_on,15,0,2,,,,,,,,,0,,,46,0
1545,note_on,0,0,4,,,,,,,,,0,,,36,100
1545,note_on,15,0,4,,,,,,,,,0,,,38,0
1560,note_on,15,0,4,,,,,,,,,0,,,36,0
1560,note_on,15,0,2,,,,,,,,,0,,,45,0
1560,time_signature,870,1,0,31,16,6,8,,,,,,,,,
1560,note_on,0,0,4,,,,,,,,,0,,,31,127
1560,control_change,570,0,5,,,,,,,,,0,64,127,,
1560,note_on,0,0,4,,,,,,,,,0,,,34,127
1560,note_on,0,0,2,,,,,,,,,0,,,43,127
1695,note_on,0,0,4,,,,,,,,,0,,,38,100
1695,note_on,0,0,4,,,,,,,,,0,,,31,0
1695,note_on,135,0,4,,,,,,,,,0,,,34,0
1695,note_on,0,0,2,,,,,,,,,0,,,46,100
1695,note_on,135,0,2,,,,,,,,,0,,,43,0
1710,note_on,0,0,4,,,,,,,,,0,,,43,100
1710,note_on,15,0,2,,,,,,,,,0,,,46,0
1710,note_on,0,0,2,,,,,,,,,0,,,50,100
1710,note_on,15,0,4,,,,,,,,,0,,,38,0
1725,note_on,0,0,2,,,,,,,,,0,,,55,100
1725,note_on,15,0,4,,,,,,,,,0,,,43,0
1725,note_on,15,0,2,,,,,,,,,0,,,50,0
1725,note_on,0,0,4,,,,,,,,,0,,,46,100
1740,note_on,0,0,2,,,,,,,,,0,,,58,100
1740,note_on,15,0,2,,,,,,,,,0,,,55,0
1740,note_on,15,0,4,,,,,,,,,0,,,46,0
1740,note_on,0,0,4,,,,,,,,,0,,,50,100
1755,note_on,15,0,2,,,,,,,,,0,,,58,0
1755,note_on,0,0,2,,,,,,,,,0,,,62,100
1755,note_on,15,0,4,,,,,,,,,0,,,50,0
1755,note_on,0,0,4,,,,,,,,,0,,,55,100
1770,note_on,15,0,2,,,,,,,,,0,,,62,0
1770,note_on,15,0,4,,,,,,,,,0,,,55,0
1770,note_on,345,0,1,,,,,,,,,0,,,67,100
1770,note_on,510,0,3,,,,,,,,,0,,,58,100
1785,note_on,0,0,3,,,,,,,,,0,,,62,100
1785,note_on,0,0,1,,,,,,,,,0,,,70,100
1785,note_on,15,0,3,,,,,,,,,0,,,58,0
1785,note_on,15,0,1,,,,,,,,,0,,,67,0
1800,note_on,15,0,3,,,,,,,,,0,,,62,0
1800,note_on,15,0,1,,,,,,,,,0,,,70,0
1800,note_on,0,0,1,,,,,,,,,0,,,74,100
1800,note_on,0,0,3,,,,,,,,,0,,,67,100
1815,note_on,15,0,3,,,,,,,,,0,,,67,0
1815,note_on,0,0,1,,,,,,,,,0,,,79,100
1815,note_on,0,0,3,,,,,,,,,0,,,70,100
1815,note_on,15,0,1,,,,,,,,,0,,,74,0
1830,note_on,0,0,3,,,,,,,,,0,,,74,100
1830,note_on,0,0,1,,,,,,,,,0,,,82,100
1830,note_on,15,0,3,,,,,,,,,0,,,70,0
1830,note_on,15,0,1,,,,,,,,,0,,,79,0
1845,note_on,15,0,3,,,,,,,,,0,,,74,0
1845,note_on,0,0,1,,,,,,,,,0,,,86,100
1845,note_on,0,0,3,,,,,,,,,0,,,79,100
1845,note_on,15,0,1,,,,,,,,,0,,,82,0
1860,note_on,0,0,3,,,,,,,,,0,,,82,100
1860,note_on,15,0,3,,,,,,,,,0,,,79,0
1860,note_on,0,0,1,,,,,,,,,0,,,91,100
1860,note_on,15,0,1,,,,,,,,,0,,,86,0
1875,note_on,15,0,1,,,,,,,,,0,,,91,0
1875,note_on,0,0,3,,,,,,,,,0,,,86,100
1875,note_on,0,0,1,,,,,,,,,0,,,94,100
1875,note_on,15,0,3,,,,,,,,,0,,,82,0
1890,control_change,330,0,5,,,,,,,,,0,64,0,,
1890,note_on,0,0,3,,,,,,,,,0,,,91,127
1890,note_on,15,0,3,,,,,,,,,0,,,86,0
1890,note_on,15,0,1,,,,,,,,,0,,,98,127
2025,note_on,135,0,3,,,,,,,,,0,,,91,0
2025,note_on,0,0,3,,,,,,,,,0,,,87,100
2025,note_on,0,0,1,,,,,,,,,0,,,96,100
2025,note_on,135,0,1,,,,,,,,,0,,,98,0
2025,note_on,0,0,1,,,,,,,,,0,,,94,0
2040,note_on,15,0,3,,,,,,,,,0,,,87,0
2040,note_on,15,0,1,,,,,,,,,0,,,96,0
2040,note_on,0,0,3,,,,,,,,,0,,,86,100
2040,note_on,0,0,1,,,,,,,,,0,,,94,100
2055,note_on,0,0,1,,,,,,,,,0,,,93,100
2055,note_on,15,0,3,,,,,,,,,0,,,86,0
2055,note_on,15,0,1,,,,,,,,,0,,,94,0
2055,note_on,0,0,3,,,,,,,,,0,,,84,100
2070,note_on,15,0,1,,,,,,,,,0,,,93,0
2070,note_on,0,0,3,,,,,,,,,0,,,82,100
2070,note_on,15,0,3,,,,,,,,,0,,,84,0
2070,note_on,0,0,1,,,,,,,,,0,,,91,100
2085,note_on,0,0,3,,,,,,,,,0,,,81,100
2085,note_on,0,0,1,,,,,,,,,0,,,90,100
2085,note_on,15,0,3,,,,,,,,,0,,,82,0
2085,note_on,15,0,1,,,,,,,,,0,,,91,0
2100,note_on,15,0,1,,,,,,,,,0,,,90,0
2100,note_on,15,0,3,,,,,,,,,0,,,81,0
2100,note_on,0,0,3,,,,,,,,,0,,,79,100
2100,note_on,0,0,1,,,,,,,,,0,,,87,100
2115,note_on,0,0,1,,,,,,,,,0,,,86,100
2115,note_on,15,0,3,,,,,,,,,0,,,79,0
2115,note_on,0,0,3,,,,,,,,,0,,,78,100
2115,note_on,15,0,1,,,,,,,,,0,,,87,0
2130,note_on,15,0,3,,,,,,,,,0,,,78,0
2130,note_on,0,0,1,,,,,,,,,0,,,84,100
2130,note_on,0,0,3,,,,,,,,,0,,,75,100
2130,note_on,15,0,1,,,,,,,,,0,,,86,0
2145,note_on,0,0,3,,,,,,,,,0,,,74,100
2145,note_on,15,0,3,,,,,,,,,0,,,75,0
2145,note_on,0,0,1,,,,,,,,,0,,,82,100
2145,note_on,15,0,1,,,,,,,,,0,,,84,0
2160,note_on,0,0,1,,,,,,,,,0,,,81,100
2160,note_on,15,0,3,,,,,,,,,0,,,74,0
2160,note_on,15,0,1,,,,,,,,,0,,,82,0
2160,note_on,0,0,3,,,,,,,,,0,,,72,100
2175,note_on,0,0,3,,,,,,,,,0,,,70,100
2175,note_on,0,0,1,,,,,,,,,0,,,79,100
2175,note_on,15,0,1,,,,,,,,,0,,,81,0
2175,note_on,15,0,3,,,,,,,,,0,,,72,0
2190,note_on,0,0,3,,,,,,,,,0,,,69,100
2190,note_on,0,0,1,,,,,,,,,0,,,78,100
2190,note_on,15,0,1,,,,,,,,,0,,,79,0
2190,note_on,15,0,3,,,,,,,,,0,,,70,0
2205,note_on,0,0,3,,,,,,,,,0,,,67,100
2205,note_on,15,0,1,,,,,,,,,0,,,78,0
2205,note_on,0,0,1,,,,,,,,,0,,,75,100
2205,note_on,15,0,3,,,,,,,,,0,,,69,0
2220,note_on,15,0,1,,,,,,,,,0,,,75,0
2220,note_on,0,0,3,,,,,,,,,0,,,66,100
2220,note_on,15,0,3,,,,,,,,,0,,,67,0
2220,note_on,0,0,1,,,,,,,,,0,,,74,100
2235,note_on,15,0,3,,,,,,,,,0,,,66,0
2235,note_on,15,0,1,,,,,,,,,0,,,74,0
2235,note_on,0,0,1,,,,,,,,,0,,,72,100
2235,note_on,465,0,4,,,,,,,,,0,,,63,100
2250,note_on,0,0,1,,,,,,,,,0,,,70,100
2250,note_on,15,0,4,,,,,,,,,0,,,63,0
2250,note_on,15,0,1,,,,,,,,,0,,,72,0
2250,note_on,0,0,4,,,,,,,,,0,,,62,100
2265,note_on,15,0,1,,,,,,,,,0,,,70,0
2265,note_on,15,0,4,,,,,,,,,0,,,62,0
2265,note_on,0,0,1,,,,,,,,,0,,,69,100
2265,note_on,0,0,4,,,,,,,,,0,,,60,100
2280,note_on,15,0,4,,,,,,,,,0,,,60,0
2280,note_on,0,0,1,,,,,,,,,0,,,67,100
2280,note_on,15,0,1,,,,,,,,,0,,,69,0
2280,note_on,0,0,4,,,,,,,,,0,,,58,100
2295,note_on,15,0,4,,,,,,,,,0,,,58,0
2295,note_on,0,0,4,,,,,,,,,0,,,57,100
2295,note_on,0,0,1,,,,,,,,,0,,,66,100
2295,note_on,15,0,1,,,,,,,,,0,,,67,0
2310,note_on,0,0,4,,,,,,,,,0,,,55,100
2310,note_on,0,0,1,,,,,,,,,0,,,63,100
2310,note_on,15,0,1,,,,,,,,,0,,,66,0
2310,note_on,15,0,4,,,,,,,,,0,,,57,0
2325,note_on,15,0,1,,,,,,,,,0,,,63,0
2325,note_on,15,0,4,,,,,,,,,0,,,55,0
2325,note_on,0,0,1,,,,,,,,,0,,,62,100
2325,note_on,0,0,4,,,,,,,,,0,,,54,100
2340,note_on,15,0,1,,,,,,,,,0,,,62,0
2340,note_on,570,0,2,,,,,,,,,0,,,60,100
2340,note_on,15,0,4,,,,,,,,,0,,,54,0
2340,note_on,0,0,4,,,,,,,,,0,,,51,100
2355,note_on,15,0,4,,,,,,,,,0,,,51,0
2355,note_on,15,0,2,,,,,,,,,0,,,60,0
2355,note_on,0,0,2,,,,,,,,,0,,,58,100
2355,note_on,0,0,4,,,,,,,,,0,,,50,100
2370,note_on,0,0,4,,,,,,,,,0,,,48,100
2370,note_on,15,0,4,,,,,,,,,0,,,50,0
2370,note_on,0,0,2,,,,,,,,,0,,,57,100
2370,note_on,15,0,2,,,,,,,,,0,,,58,0
2385,note_on,0,0,2,,,,,,,,,0,,,55,100
2385,note_on,15,0,2,,,,,,,,,0,,,57,0
2385,note_on,0,0,4,,,,,,,,,0,,,46,100
2385,note_on,15,0,4,,,,,,,,,0,,,48,0
2400,note_on,0,0,2,,,,,,,,,0,,,54,100
2400,note_on,15,0,4,,,,,,,,,0,,,46,0
2400,note_on,15,0,2,,,,,,,,,0,,,55,0
2400,note_on,0,0,4,,,,,,,,,0,,,45,100
2415,note_on,15,0,2,,,,,,,,,0,,,54,0
2415,note_on,15,0,4,,,,,,,,,0,,,45,0
2415,note_on,0,0,4,,,,,,,,,0,,,43,100
2415,note_on,0,0,2,,,,,,,,,0,,,51,100
2430,note_on,15,0,4,,,,,,,,,0,,,43,0
2430,note_on,0,0,4,,,,,,,,,0,,,42,100
2430,note_on,15,0,2,,,,,,,,,0,,,51,0
2430,note_on,0,0,2,,,,,,,,,0,,,50,100
2445,note_on,15,0,2,,,,,,,,,0,,,50,0
2445,note_on,0,0,4,,,,,,,,,0,,,39,100
2445,note_on,0,0,2,,,,,,,,,0,,,48,100
2445,note_on,15,0,4,,,,,,,,,0,,,42,0
2460,note_on,15,0,4,,,,,,,,,0,,,39,0
2460,note_on,0,0,4,,,,,,,,,0,,,38,100
2460,note_on,0,0,2,,,,,,,,,0,,,46,100
2460,note_on,15,0,2,,,,,,,,,0,,,48,0
2475,note_on,0,0,4,,,,,,,,,0,,,36,100
2475,note_on,15,0,4,,,,,,,,,0,,,38,0
2475,note_on,15,0,2,,,,,,,,,0,,,46,0
2475,note_on,0,0,2,,,,,,,,,0,,,45,100
2490,note_on,0,0,4,,,,,,,,,0,,,31,127
2490,note_on,15,0,4,,,,,,,,,0,,,36,0
2490,time_signature,930,1,0,28,16,6,8,,,,,,,,,
2490,note_on,0,0,2,,,,,,,,,0,,,43,127
2490,note_on,15,0,2,,,,,,,,,0,,,45,0
2490,note_on,0,0,4,,,,,,,,,0,,,34,127
2625,note_on,0,0,2,,,,,,,,,0,,,44,103
2625,note_on,135,0,2,,,,,,,,,0,,,43,0
2625,note_on,135,0,4,,,,,,,,,0,,,34,0
2625,note_on,0,0,4,,,,,,,,,0,,,35,103
2625,note_on,0,0,4,,,,,,,,,0,,,31,0
2640,note_on,15,0,2,,,,,,,,,0,,,44,0
2640,note_on,0,0,4,,,,,,,,,0,,,36,103
2640,note_on,0,0,2,,,,,,,,,0,,,45,103
2640,note_on,15,0,4,,,,,,,,,0,,,35,0
2655,note_on,15,0,4,,,,,,,,,0,,,36,0
2655,note_on,0,0,2,,,,,,,,,0,,,46,104
2655,note_on,15,0,2,,,,,,,,,0,,,45,0
2655,note_on,0,0,4,,,,,,,,,0,,,37,104
2670,note_on,0,0,4,,,,,,,,,0,,,38,104
2670,note_on,15,0,2,,,,,,,,,0,,,46,0
2670,note_on,0,0,2,,,,,,,,,0,,,47,104
2670,note_on,15,0,4,,,,,,,,,0,,,37,0
2685,note_on,15,0,4,,,,,,,,,0,,,38,0
2685,note_on,0,0,2,,,,,,,,,0,,,48,104
2685,note_on,15,0,2,,,,,,,,,0,,,47,0
2685,note_on,0,0,4,,,,,,,,,0,,,39,104
2700,note_on,15,0,2,,,,,,,,,0,,,48,0
2700,note_on,0,0,2,,,,,,,,,0,,,49,105
2700,note_on,15,0,4,,,,,,,,,0,,,39,0
2700,note_on,0,0,4,,,,,,,,,0,,,40,105
2715,note_on,15,0,2,,,,,,,,,0,,,49,0
2715,note_on,0,0,2,,,,,,,,,0,,,50,105
2715,note_on,0,0,4,,,,,,,,,0,,,41,105
2715,note_on,15,0,4,,,,,,,,,0,,,40,0
2730,note_on,0,0,2,,,,,,,,,0,,,51,105
2730,note_on,15,0,4,,,,,,,,,0,,,41,0
2730,note_on,15,0,2,,,,,,,,,0,,,50,0
2730,note_on,0,0,4,,,,,,,,,0,,,42,105
2745,note_on,0,0,2,,,,,,,,,0,,,52,106
2745,note_on,15,0,2,,,,,,,,,0,,,51,0
2745,note_on,15,0,4,,,,,,,,,0,,,42,0
2745,note_on,0,0,4,,,,,,,,,0,,,43,106
2760,note_on,0,0,2,,,,,,,,,0,,,53,106
2760,note_on,0,0,4,,,,,,,,,0,,,44,106
2760,note_on,15,0,4,,,,,,,,,0,,,43,0
2760,note_on,15,0,2,,,,,,,,,0,,,52,0
2775,note_on,15,0,4,,,,,,,,,0,,,44,0
2775,note_on,0,0,4,,,,,,,,,0,,,45,107
2775,note_on,15,0,2,,,,,,,,,0,,,53,0
2775,note_on,0,0,2,,,,,,,,,0,,,54,107
2790,note_on,0,0,2,,,,,,,,,0,,,55,107
2790,note_on,15,0,2,,,,,,,,,0,,,54,0
2790,note_on,15,0,4,,,,,,,,,0,,,45,0
2790,note_on,0,0,4,,,,,,,,,0,,,46,107
2805,note_on,0,0,4,,,,,,,,,0,,,47,107
2805,note_on,0,0,2,,,,,,,,,0,,,56,107
2805,note_on,15,0,2,,,,,,,,,0,,,55,0
2805,note_on,15,0,4,,,,,,,,,0,,,46,0
2820,note_on,0,0,4,,,,,,,,,0,,,48,108
2820,note_on,15,0,4,,,,,,,,,0,,,47,0
2820,note_on,15,0,2,,,,,,,,,0,,,56,0
2820,note_on,0,0,2,,,,,,,,,0,,,57,108
2835,note_on,0,0,4,,,,,,,,,0,,,49,108
2835,note_on,15,0,4,,,,,,,,,0,,,48,0
2835,note_on,15,0,2,,,,,,,,,0,,,57,0
2835,note_on,0,0,2,,,,,,,,,0,,,58,108
2850,note_on,15,0,4,,,,,,,,,0,,,49,0
2850,note_on,15,0,2,,,,,,,,,0,,,58,0
2850,note_on,0,0,2,,,,,,,,,0,,,59,108
2850,note_on,0,0,4,,,,,,,,,0,,,50,108
2865,note_on,0,0,4,,,,,,,,,0,,,51,109
2865,note_on,15,0,4,,,,,,,,,0,,,50,0
2865,note_on,0,0,2,,,,,,,,,0,,,60,109
2865,note_on,15,0,2,,,,,,,,,0,,,59,0
2880,note_on,15,0,4,,,,,,,,,0,,,51,0
2880,note_on,0,0,2,,,,,,,,,0,,,61,109
2880,note_on,0,0,4,,,,,,,,,0,,,52,109
2880,note_on,15,0,2,,,,,,,,,0,,,60,0
2895,note_on,15,0,4,,,,,,,,,0,,,52,0
2895,note_on,0,0,2,,,,,,,,,0,,,62,110
2895,note_on,0,0,4,,,,,,,,,0,,,53,110
2895,note_on,15,0,2,,,,,,,,,0,,,61,0
2910,note_on,0,0,2,,,,,,,,,0,,,63,110
2910,note_on,15,0,2,,,,,,,,,0,,,62,0
2910,note_on,15,0,4,,,,,,,,,0,,,53,0
2910,note_on,0,0,4,,,,,,,,,0,,,54,110
2925,note_on,15,0,2,,,,,,,,,0,,,63,0
2925,note_on,0,0,4,,,,,,,,,0,,,55,110
2925,note_on,15,0,4,,,,,,,,,0,,,54,0
2925,note_on,0,0,2,,,,,,,,,0,,,64,110
2940,note_on,15,0,2,,,,,,,,,0,,,64,0
2940,note_on,0,0,4,,,,,,,,,0,,,56,111
2940,note_on,15,0,4,,,,,,,,,0,,,55,0
2940,note_on,0,0,2,,,,,,,,,0,,,65,111
2955,note_on,0,0,2,,,,,,,,,0,,,66,111
2955,note_on,15,0,2,,,,,,,,,0,,,65,0
2955,note_on,0,0,4,,,,,,,,,0,,,57,111
2955,note_on,15,0,4,,,,,,,,,0,,,56,0
2970,note_on,15,0,2,,,,,,,,,0,,,66,0
2970,note_on,0,0,2,,,,,,,,,0,,,67,111
2970,note_on,15,0,4,,,,,,,,,0,,,57,0
2970,note_on,0,0,4,,,,,,,,,0,,,58,111
2985,note_on,0,0,4,,,,,,,,,0,,,57,112
2985,note_on,15,0,4,,,,,,,,,0,,,58,0
2985,note_on,0,0,2,,,,,,,,,0,,,66,112
2985,note_on,15,0,2,,,,,,,,,0,,,67,0
3000,note_on,0,0,2,,,,,,,,,0,,,65,112
3000,note_on,0,0,4,,,,,,,,,0,,,56,112
3000,note_on,15,0,4,,,,,,,,,0,,,57,0
3000,note_on,15,0,2,,,,,,,,,0,,,66,0
3015,note_on,15,0,4,,,,,,,,,0,,,56,0
3015,note_on,15,0,2,,,,,,,,,0,,,65,0
3015,note_on,0,0,4,,,,,,,,,0,,,55,113
3015,note_on,0,0,2,,,,,,,,,0,,,64,113
3030,note_on,15,0,2,,,,,,,,,0,,,64,0
3030,note_on,0,0,2,,,,,,,,,0,,,63,113
3030,note_on,15,0,4,,,,,,,,,0,,,55,0
3030,note_on,0,0,4,,,,,,,,,0,,,54,113
3045,note_on,0,0,2,,,,,,,,,0,,,62,113
3045,note_on,0,0,4,,,,,,,,,0,,,53,113
3045,note_on,15,0,4,,,,,,,,,0,,,54,0
3045,note_on,15,0,2,,,,,,,,,0,,,63,0
3060,note_on,15,0,2,,,,,,,,,0,,,62,0
3060,note_on,0,0,4,,,,,,,,,0,,,52,114
3060,note_on,15,0,4,,,,,,,,,0,,,53,0
3060,note_on,0,0,2,,,,,,,,,0,,,61,114
3075,note_on,0,0,4,,,,,,,,,0,,,51,114
3075,note_on,0,0,2,,,,,,,,,0,,,60,114
3075,note_on,15,0,4,,,,,,,,,0,,,52,0
3075,note_on,15,0,2,,,,,,,,,0,,,61,0
3090,note_on,0,0,4,,,,,,,,,0,,,50,114
3090,note_on,15,0,2,,,,,,,,,0,,,60,0
3090,note_on,0,0,2,,,,,,,,,0,,,59,114
3090,note_on,15,0,4,,,,,,,,,0,,,51,0
3105,note_on,0,0,4,,,,,,,,,0,,,49,115
3105,note_on,15,0,4,,,,,,,,,0,,,50,0
3105,note_on,0,0,2,,,,,,,,,0,,,58,115
3105,note_on,15,0,2,,,,,,,,,0,,,59,0
3120,note_on,0,0,2,,,,,,,,,0,,,57,115
3120,note_on,15,0,4,,,,,,,,,0,,,49,0
3120,note_on,15,0,2,,,,,,,,,0,,,58,0
3120,note_on,0,0,4,,,,,,,,,0,,,48,115
3135,note_on,15,0,2,,,,,,,,,0,,,57,0
3135,note_on,0,0,2,,,,,,,,,0,,,56,116
3135,note_on,15,0,4,,,,,,,,,0,,,48,0
3135,note_on,0,0,4,,,,,,,,,0,,,47,116
3150,note_on,15,0,4,,,,,,,,,0,,,47,0
3150,note_on,0,0,2,,,,,,,,,0,,,55,116
3150,note_on,0,0,4,,,,,,,,,0,,,46,116
3150,note_on,15,0,2,,,,,,,,,0,,,56,0
3165,note_on,0,0,2,,,,,,,,,0,,,54,116
3165,note_on,15,0,4,,,,,,,,,0,,,46,0
3165,note_on,15,0,2,,,,,,,,,0,,,55,0
3165,note_on,0,0,4,,,,,,,,,0,,,45,116
3180,note_on,0,0,2,,,,,,,,,0,,,53,117
3180,note_on,0,0,4,,,,,,,,,0,,,44,117
3180,note_on,15,0,4,,,,,,,,,0,,,45,0
3180,note_on,15,0,2,,,,,,,,,0,,,54,0
3195,note_on,0,0,2,,,,,,,,,0,,,52,117
3195,note_on,0,0,4,,,,,,,,,0,,,43,117
3195,note_on,15,0,2,,,,,,,,,0,,,53,0
3195,note_on,15,0,4,,,,,,,,,0,,,44,0
3210,note_on,0,0,2,,,,,,,,,0,,,51,117
3210,note_on,15,0,2,,,,,,,,,0,,,52,0
3210,note_on,15,0,4,,,,,,,,,0,,,43,0
3210,note_on,0,0,4,,,,,,,,,0,,,42,117
3225,note_on,15,0,4,,,,,,,,,0,,,42,0
3225,note_on,0,0,2,,,,,,,,,0,,,50,118
3225,note_on,0,0,4,,,,,,,,,0,,,41,118
3225,note_on,15,0,2,,,,,,,,,0,,,51,0
3240,note_on,0,0,4,,,,,,,,,0,,,40,118
3240,note_on,15,0,2,,,,,,,,,0,,,50,0
3240,note_on,15,0,4,,,,,,,,,0,,,41,0
3240,note_on,0,0,2,,,,,,,,,0,,,49,118
3255,note_on,0,0,4,,,,,,,,,0,,,39,119
3255,note_on,15,0,4,,,,,,,,,0,,,40,0
3255,note_on,0,0,2,,,,,,,,,0,,,48,119
3255,note_on,15,0,2,,,,,,,,,0,,,49,0
3270,note_on,0,0,2,,,,,,,,,0,,,47,119
3270,note_on,15,0,4,,,,,,,,,0,,,39,0
3270,note_on,15,0,2,,,,,,,,,0,,,48,0
3270,note_on,0,0,4,,,,,,,,,0,,,38,119
3285,note_on,15,0,4,,,,,,,,,0,,,38,0
3285,note_on,15,0,2,,,,,,,,,0,,,47,0
3285,note_on,0,0,2,,,,,,,,,0,,,46,119
3285,note_on,0,0,4,,,,,,,,,0,,,37,119
3300,note_on,15,0,2,,,,,,,,,0,,,46,0
3300,note_on,15,0,4,,,,,,,,,0,,,37,0
3300,note_on,0,0,4,,,,,,,,,0,,,36,120
3300,note_on,0,0,2,,,,,,,,,0,,,45,120
3315,note_on,15,0,2,,,,,,,,,0,,,45,0
3315,note_on,15,0,4,,,,,,,,,0,,,36,0
3315,note_on,0,0,4,,,,,,,,,0,,,35,120
3315,note_on,0,0,2,,,,,,,,,0,,,44,120
3330,note_on,0,0,2,,,,,,,,,0,,,43,120
3330,note_on,15,0,2,,,,,,,,,0,,,44,0
3330,note_on,0,0,4,,,,,,,,,0,,,34,120
3330,note_on,15,0,4,,,,,,,,,0,,,35,0
3330,time_signature,840,1,0,4,4,24,8,,,,,,,,,
3345,note_on,15,0,4,,,,,,,,,0,,,34,0
3345,note_on,15,0,2,,,,,,,,,0,,,43,0
3450,note_on,0,0,4,,,,,,,,,0,,,62,120
3450,note_on,0,0,4,,,,,,,,,0,,,55,120
3450,note_on,0,0,1,,,,,,,,,0,,,91,120
3450,note_on,0,0,1,,,,,,,,,0,,,98,120
3450,note_on,1110,0,1,,,,,,,,,0,,,103,120
3450,note_on,105,0,4,,,,,,,,,0,,,67,120
3450,note_on,0,0,4,,,,,,,,,0,,,58,120
3450,note_on,0,0,1,,,,,,,,,0,,,94,120
3465,note_on,0,0,1,,,,,,,,,0,,,98,0
3465,note_on,0,0,1,,,,,,,,,0,,,103,0
3465,note_on,15,0,1,,,,,,,,,0,,,91,0
3465,note_on,15,0,4,,,,,,,,,0,,,55,0
3465,note_on,0,0,1,,,,,,,,,0,,,94,0
3465,note_on,0,0,4,,,,,,,,,0,,,58,0
3465,note_on,0,0,4,,,,,,,,,0,,,67,0
3465,note_on,0,0,4,,,,,,,,,0,,,62,0
3790,note_on,325,0,4,,,,,,,,,0,,,43,60
3800,note_on,10,0,4,,,,,,,,,0,,,50,60
3810,note_on,0,0,4,,,,,,,,,0,,,62,70
3810,note_on,10,0,4,,,,,,,,,0,,,58,60
3810,control_change,1920,0,5,,,,,,,,,0,64,127,,
3810,set_tempo,0,1,0,,,,,,1500000,,,,,,,
3810,time_signature,480,1,0,3,4,24,8,,,,,,,,,
3810,marker,0,1,0,,,,,,,,,,,,,
3817,note_on,7,0,4,,,,,,,,,0,,,55,60
3818,note_on,1,0,4,,,,,,,,,0,,,58,0
3825,note_on,7,0,4,,,,,,,,,0,,,55,0
3825,note_on,0,0,4,,,,,,,,,0,,,58,60
3832,note_on,7,0,4,,,,,,,,,0,,,55,60
3833,note_on,1,0,4,,,,,,,,,0,,,58,0
3840,note_on,7,0,4,,,,,,,,,0,,,55,0
3840,note_on,0,0,4,,,,,,,,,0,,,58,60
3847,note_on,7,0,4,,,,,,,,,0,,,55,60
3848,note_on,1,0,4,,,,,,,,,0,,,58,0
3855,note_on,7,0,4,,,,,,,,,0,,,55,0
3855,note_on,0,0,4,,,,,,,,,0,,,58,60
3862,note_on,7,0,4,,,,,,,,,0,,,55,60
3863,note_on,1,0,4,,,,,,,,,0,,,58,0
3870,note_on,7,0,4,,,,,,,,,0,,,55,0
3870,note_on,0,0,4,,,,,,,,,0,,,58,60
3877,note_on,7,0,4,,,,,,,,,0,,,55,60
3878,note_on,1,0,4,,,,,,,,,0,,,58,0
3885,note_on,7,0,4,,,,,,,,,0,,,55,0
3885,note_on,0,0,4,,,,,,,,,0,,,58,60
3892,note_on,7,0,4,,,,,,,,,0,,,55,60
3893,note_on,1,0,4,,,,,,,,,0,,,58,0
3900,note_on,7,0,4,,,,,,,,,0,,,55,0
3900,note_on,0,0,4,,,,,,,,,0,,,58,60
3907,note_on,7,0,4,,,,,,,,,0,,,55,60
3908,note_on,1,0,4,,,,,,,,,0,,,58,0
3915,note_on,0,0,4,,,,,,,,,0,,,58,60
3915,note_on,7,0,4,,,,,,,,,0,,,55,0
3922,note_on,7,0,4,,,,,,,,,0,,,55,60
3923,note_on,1,0,4,,,,,,,,,0,,,58,0
3930,note_on,7,0,4,,,,,,,,,0,,,43,0
3930,note_on,0,0,4,,,,,,,,,0,,,50,0
3930,note_on,0,0,4,,,,,,,,,0,,,55,0
3930,note_on,0,0,4,,,,,,,,,0,,,58,60
3937,note_on,7,0,4,,,,,,,,,0,,,55,60
3938,note_on,1,0,4,,,,,,,,,0,,,58,0
3945,note_on,0,0,4,,,,,,,,,0,,,58,60
3945,note_on,7,0,4,,,,,,,,,0,,,55,0
3952,note_on,7,0,4,,,,,,,,,0,,,55,60
3953,note_on,1,0,4,,,,,,,,,0,,,58,0
3960,note_on,0,0,4,,,,,,,,,0,,,58,60
3960,note_on,7,0,4,,,,,,,,,0,,,55,0
3967,note_on,7,0,4,,,,,,,,,0,,,55,60
3968,note_on,1,0,4,,,,,,,,,0,,,58,0
3975,note_on,0,0,4,,,,,,,,,0,,,58,60
3975,note_on,7,0,4,,,,,,,,,0,,,55,0
3982,note_on,7,0,4,,,,,,,,,0,,,55,60
3983,note_on,1,0,4,,,,,,,,,0,,,58,0
3985,control_change,175,0,5,,,,,,,,,0,64,0,,
3990,note_on,0,0,4,,,,,,,,,0,,,67,80
3990,note_on,0,0,4,,,,,,,,,0,,,63,60
3990,note_on,7,0,4,,,,,,,,,0,,,55,0
3990,note_on,0,0,4,,,,,,,,,0,,,62,0
3990,control_change,5,0,5,,,,,,,,,0,64,127,,
3997,note_on,7,0,4,,,,,,,,,0,,,55,60
3998,note_on,1,0,4,,,,,,,,,0,,,63,0
4005,note_on,7,0,4,,,,,,,,,0,,,55,0
4005,note_on,0,0,4,,,,,,,,,0,,,63,60
4012,note_on,7,0,4,,,,,,,,,0,,,55,60
4013,note_on,1,0,4,,,,,,,,,0,,,63,0
4020,note_on,7,0,4,,,,,,,,,0,,,55,0
4020,note_on,0,0,4,,,,,,,,,0,,,63,60
4027,note_on,7,0,4,,,,,,,,,0,,,55,60
4028,note_on,1,0,4,,,,,,,,,0,,,63,0
4035,note_on,7,0,4,,,,,,,,,0,,,55,0
4035,note_on,0,0,4,,,,,,,,,0,,,63,60
4042,note_on,7,0,4,,,,,,,,,0,,,55,60
4043,note_on,1,0,4,,,,,,,,,0,,,63,0
4045,control_change,55,0,5,,,,,,,,,0,64,0,,
4050,control_change,5,0,5,,,,,,,,,0,64,127,,
4050,note_on,0,0,4,,,,,,,,,0,,,67,0
4050,note_on,0,0,4,,,,,,,,,0,,,66,80
4050,note_on,0,0,4,,,,,,,,,0,,,62,60
4050,note_on,7,0,4,,,,,,,,,0,,,55,0
4057,note_on,7,0,4,,,,,,,,,0,,,55,60
4058,note_on,1,0,4,,,,,,,,,0,,,62,0
4065,note_on,7,0,4,,,,,,,,,0,,,55,0
4065,note_on,0,0,4,,,,,,,,,0,,,62,60
4072,note_on,7,0,4,,,,,,,,,0,,,55,60
4073,note_on,1,0,4,,,,,,,,,0,,,62,0
4080,note_on,0,0,4,,,,,,,,,0,,,62,60
4080,note_on,7,0,4,,,,,,,,,0,,,55,0
4087,note_on,7,0,4,,,,,,,,,0,,,55,60
4088,note_on,1,0,4,,,,,,,,,0,,,62,0
4095,note_on,7,0,4,,,,,,,,,0,,,55,0
4095,note_on,0,0,4,,,,,,,,,0,,,62,60
4102,note_on,7,0,4,,,,,,,,,0,,,55,60
4103,note_on,1,0,4,,,,,,,,,0,,,62,0
4105,control_change,55,0,5,,,,,,,,,0,64,0,,
4110,note_on,0,0,4,,,,,,,,,0,,,63,80
4110,note_on,7,0,4,,,,,,,,,0,,,55,0
4110,control_change,5,0,5,,,,,,,,,0,64,127,,
4110,note_on,0,0,4,,,,,,,,,0,,,60,60
4110,note_on,0,0,4,,,,,,,,,0,,,66,0
4117,note_on,7,0,4,,,,,,,,,0,,,55,60
4118,note_on,1,0,4,,,,,,,,,0,,,60,0
4125,note_on,0,0,4,,,,,,,,,0,,,60,60
4125,note_on,7,0,4,,,,,,,,,0,,,55,0
4132,note_on,7,0,4,,,,,,,,,0,,,55,60
4133,note_on,1,0,4,,,,,,,,,0,,,60,0
4140,note_on,0,0,4,,,,,,,,,0,,,60,60
4140,note_on,7,0,4,,,,,,,,,0,,,55,0
4147,note_on,7,0,4,,,,,,,,,0,,,55,60
4148,note_on,1,0,4,,,,,,,,,0,,,60,0
4155,note_on,0,0,4,,,,,,,,,0,,,60,60
4155,note_on,7,0,4,,,,,,,,,0,,,55,0
4162,note_on,7,0,4,,,,,,,,,0,,,55,60
4163,note_on,1,0,4,,,,,,,,,0,,,60,0
4165,control_change,55,0,5,,,,,,,,,0,64,0,,
4170,note_on,7,0,4,,,,,,,,,0,,,55,0
4170,note_on,0,0,4,,,,,,,,,0,,,63,0
4170,control_change,5,0,5,,,,,,,,,0,64,127,,
4170,note_on,0,0,4,,,,,,,,,0,,,62,90
4170,note_on,0,0,4,,,,,,,,,0,,,58,60
4177,note_on,7,0,4,,,,,,,,,0,,,55,60
4178,note_on,1,0,4,,,,,,,,,0,,,58,0
4185,note_on,7,0,4,,,,,,,,,0,,,55,0
4185,note_on,0,0,4,,,,,,,,,0,,,58,60
4192,note_on,7,0,4,,,,,,,,,0,,,55,60
4193,note_on,1,0,4,,,,,,,,,0,,,58,0
4200,note_on,7,0,4,,,,,,,,,0,,,55,0
4200,note_on,0,0,4,,,,,,,,,0,,,58,60
4207,note_on,7,0,4,,,,,,,,,0,,,55,60
4208,note_on,1,0,4,,,,,,,,,0,,,58,0
4215,note_on,7,0,4,,,,,,,,,0,,,55,0
4215,note_on,0,0,4,,,,,,,,,0,,,58,60
4222,note_on,7,0,4,,,,,,,,,0,,,55,60
4223,note_on,1,0,4,,,,,,,,,0,,,58,0
4230,note_on,0,0,4,,,,,,,,,0,,,58,60
4230,note_on,7,0,4,,,,,,,,,0,,,55,0
4237,note_on,7,0,4,,,,,,,,,0,,,55,60
4238,note_on,1,0,4,,,,,,,,,0,,,58,0
4245,note_on,0,0,4,,,,,,,,,0,,,58,60
4245,note_on,7,0,4,,,,,,,,,0,,,55,0
4252,note_on,7,0,4,,,,,,,,,0,,,55,60
4253,note_on,1,0,4,,,,,,,,,0,,,58,0
4260,note_on,7,0,4,,,,,,,,,0,,,55,0
4260,note_on,0,0,4,,,,,,,,,0,,,58,60
4267,note_on,7,0,4,,,,,,,,,0,,,55,60
4268,note_on,1,0,4,,,,,,,,,0,,,58,0
4275,note_on,7,0,4,,,,,,,,,0,,,55,0
4275,note_on,0,0,4,,,,,,,,,0,,,58,60
4282,note_on,7,0,4,,,,,,,,,0,,,55,60
4283,note_on,1,0,4,,,,,,,,,0,,,58,0
4290,note_on,0,0,4,,,,,,,,,0,,,58,60
4290,note_on,7,0,4,,,,,,,,,0,,,55,0
4297,note_on,7,0,4,,,,,,,,,0,,,55,60
4298,note_on,1,0,4,,,,,,,,,0,,,58,0
4305,note_on,0,0,4,,,,,,,,,0,,,58,60
4305,note_on,7,0,4,,,,,,,,,0,,,55,0
4312,note_on,7,0,4,,,,,,,,,0,,,55,60
4313,note_on,1,0,4,,,,,,,,,0,,,58,0
4320,note_on,0,0,4,,,,,,,,,0,,,58,60
4320,note_on,7,0,4,,,,,,,,,0,,,55,0
4327,note_on,7,0,4,,,,,,,,,0,,,55,60
4328,note_on,1,0,4,,,,,,,,,0,,,58,0
4335,note_on,7,0,4,,,,,,,,,0,,,55,0
4335,note_on,0,0,4,,,,,,,,,0,,,58,60
4342,note_on,7,0,4,,,,,,,,,0,,,55,60
4343,note_on,1,0,4,,,,,,,,,0,,,58,0
4345,control_change,175,0,5,,,,,,,,,0,64,0,,
4350,control_change,5,0,5,,,,,,,,,0,64,127,,
4350,note_on,0,0,4,,,,,,,,,0,,,53,60
4350,note_on,7,0,4,,,,,,,,,0,,,55,0
4350,note_on,0,0,4,,,,,,,,,0,,,62,0
4352,note_on,2,0,4,,,,,,,,,0,,,57,60
4357,note_on,5,0,4,,,,,,,,,0,,,57,0
4357,note_on,0,0,4,,,,,,,,,0,,,53,60
4358,note_on,1,0,4,,,,,,,,,0,,,53,0
4360,note_on,2,0,4,,,,,,,,,0,,,62,80
4365,note_on,5,0,4,,,,,,,,,0,,,53,0
4365,note_on,0,0,4,,,,,,,,,0,,,57,60
4372,note_on,7,0,4,,,,,,,,,0,,,53,60
4373,note_on,1,0,4,,,,,,,,,0,,,57,0
4380,note_on,0,0,4,,,,,,,,,0,,,57,60
4380,note_on,7,0,4,,,,,,,,,0,,,53,0
4387,note_on,7,0,4,,,,,,,,,0,,,53,60
4388,note_on,1,0,4,,,,,,,,,0,,,57,0
4395,note_on,7,0,4,,,,,,,,,0,,,53,0
4395,note_on,0,0,4,,,,,,,,,0,,,57,60
4402,note_on,7,0,4,,,,,,,,,0,,,53,60
4403,note_on,1,0,4,,,,,,,,,0,,,57,0
4405,control_change,55,0,5,,,,,,,,,0,64,0,,
4410,note_on,7,0,4,,,,,,,,,0,,,53,0
4410,control_change,5,0,5,,,,,,,,,0,64,127,,
4410,note_on,0,0,4,,,,,,,,,0,,,62,0
4410,note_on,0,0,4,,,,,,,,,0,,,51,60
4412,note_on,2,0,4,,,,,,,,,0,,,55,60
4417,note_on,0,0,4,,,,,,,,,0,,,51,60
4417,note_on,5,0,4,,,,,,,,,0,,,55,0
4418,note_on,1,0,4,,,,,,,,,0,,,51,0
4420,note_on,2,0,4,,,,,,,,,0,,,60,80
4425,note_on,0,0,4,,,,,,,,,0,,,55,60
4425,note_on,5,0,4,,,,,,,,,0,,,51,0
4432,note_on,7,0,4,,,,,,,,,0,,,51,60
4433,note_on,1,0,4,,,,,,,,,0,,,55,0
4440,note_on,0,0,4,,,,,,,,,0,,,55,60
4440,note_on,7,0,4,,,,,,,,,0,,,51,0
4447,note_on,7,0,4,,,,,,,,,0,,,51,60
4448,note_on,1,0,4,,,,,,,,,0,,,55,0
4455,note_on,7,0,4,,,,,,,,,0,,,51,0
4455,note_on,0,0,4,,,,,,,,,0,,,55,60
4462,note_on,7,0,4,,,,,,,,,0,,,51,60
4463,note_on,1,0,4,,,,,,,,,0,,,55,0
4465,control_change,55,0,5,,,,,,,,,0,64,0,,
4470,note_on,0,0,4,,,,,,,,,0,,,60,0
4470,note_on,0,0,4,,,,,,,,,0,,,50,60
4470,control_change,5,0,5,,,,,,,,,0,64,127,,
4470,note_on,7,0,4,,,,,,,,,0,,,51,0
4472,note_on,2,0,4,,,,,,,,,0,,,53,60
4477,note_on,5,0,4,,,,,,,,,0,,,53,0
4477,note_on,0,0,4,,,,,,,,,0,,,50,60
4478,note_on,1,0,4,,,,,,,,,0,,,50,0
4480,note_on,2,0,4,,,,,,,,,0,,,58,80
4485,note_on,5,0,4,,,,,,,,,0,,,50,0
4485,note_on,0,0,4,,,,,,,,,0,,,53,60
4492,note_on,7,0,4,,,,,,,,,0,,,50,60
4493,note_on,1,0,4,,,,,,,,,0,,,53,0
4500,note_on,7,0,4,,,,,,,,,0,,,50,0
4500,note_on,0,0,4,,,,,,,,,0,,,53,60
4507,note_on,7,0,4,,,,,,,,,0,,,50,60
4508,note_on,1,0,4,,,,,,,,,0,,,53,0
4515,note_on,0,0,4,,,,,,,,,0,,,53,60
4515,note_on,7,0,4,,,,,,,,,0,,,50,0
4522,note_on,7,0,4,,,,,,,,,0,,,50,60
4523,note_on,1,0,4,,,,,,,,,0,,,53,0
4525,control_change,55,0,5,,,,,,,,,0,64,0,,
4530,note_on,0,0,4,,,,,,,,,0,,,58,0
4530,note_on,0,0,4,,,,,,,,,0,,,48,60
4530,note_on,7,0,4,,,,,,,,,0,,,50,0
4530,control_change,5,0,5,,,,,,,,,0,64,127,,
4532,note_on,2,0,4,,,,,,,,,0,,,51,60
4537,note_on,5,0,4,,,,,,,,,0,,,51,0
4537,note_on,0,0,4,,,,,,,,,0,,,48,60
4538,note_on,1,0,4,,,,,,,,,0,,,48,0
4540,note_on,2,0,4,,,,,,,,,0,,,57,90
4545,note_on,0,0,4,,,,,,,,,0,,,51,60
4545,note_on,5,0,4,,,,,,,,,0,,,48,0
4552,note_on,7,0,4,,,,,,,,,0,,,48,60
4553,note_on,1,0,4,,,,,,,,,0,,,51,0
4560,note_on,7,0,4,,,,,,,,,0,,,48,0
4560,note_on,0,0,4,,,,,,,,,0,,,51,60
4567,note_on,7,0,4,,,,,,,,,0,,,48,60
4568,note_on,1,0,4,,,,,,,,,0,,,51,0
4575,note_on,0,0,4,,,,,,,,,0,,,51,60
4575,note_on,7,0,4,,,,,,,,,0,,,48,0
4582,note_on,7,0,4,,,,,,,,,0,,,48,60
4583,note_on,1,0,4,,,,,,,,,0,,,51,0
4590,note_on,7,0,4,,,,,,,,,0,,,48,0
4590,note_on,0,0,4,,,,,,,,,0,,,51,60
4597,note_on,7,0,4,,,,,,,,,0,,,48,60
4598,note_on,1,0,4,,,,,,,,,0,,,51,0
4605,note_on,7,0,4,,,,,,,,,0,,,48,0
4605,note_on,0,0,4,,,,,,,,,0,,,51,60
4612,note_on,7,0,4,,,,,,,,,0,,,48,60
4613,note_on,1,0,4,,,,,,,,,0,,,51,0
4620,note_on,0,0,4,,,,,,,,,0,,,51,60
4620,note_on,7,0,4,,,,,,,,,0,,,48,0
4627,note_on,7,0,4,,,,,,,,,0,,,48,60
4628,note_on,1,0,4,,,,,,,,,0,,,51,0
4635,note_on,0,0,4,,,,,,,,,0,,,51,60
4635,note_on,7,0,4,,,,,,,,,0,,,48,0
4642,note_on,7,0,4,,,,,,,,,0,,,48,60
4643,note_on,1,0,4,,,,,,,,,0,,,51,0
4650,note_on,7,0,4,,,,,,,,,0,,,48,0
4650,note_on,0,0,4,,,,,,,,,0,,,51,60
4657,note_on,7,0,4,,,,,,,,,0,,,48,60
4658,note_on,1,0,4,,,,,,,,,0,,,51,0
4665,note_on,7,0,4,,,,,,,,,0,,,48,0
4665,note_on,0,0,4,,,,,,,,,0,,,51,60
4672,note_on,7,0,4,,,,,,,,,0,,,48,60
4673,note_on,1,0,4,,,,,,,,,0,,,51,0
4680,note_on,7,0,4,,,,,,,,,0,,,48,0
4680,note_on,0,0,4,,,,,,,,,0,,,51,60
4687,note_on,7,0,4,,,,,,,,,0,,,48,60
4688,note_on,1,0,4,,,,,,,,,0,,,51,0
4695,note_on,0,0,4,,,,,,,,,0,,,51,60
4695,note_on,7,0,4,,,,,,,,,0,,,48,0
4702,note_on,7,0,4,,,,,,,,,0,,,48,60
4703,note_on,1,0,4,,,,,,,,,0,,,51,0
4705,control_change,175,0,5,,,,,,,,,0,64,0,,
4710,note_on,0,0,4,,,,,,,,,0,,,57,0
4710,note_on,0,0,4,,,,,,,,,0,,,60,80
4710,note_on,0,0,4,,,,,,,,,0,,,51,60
4710,control_change,5,0,5,,,,,,,,,0,64,127,,
4710,note_on,7,0,4,,,,,,,,,0,,,48,0
4717,note_on,7,0,4,,,,,,,,,0,,,48,60
4718,note_on,1,0,4,,,,,,,,,0,,,51,0
4725,note_on,7,0,4,,,,,,,,,0,,,48,0
4725,note_on,0,0,4,,,,,,,,,0,,,51,60
4732,note_on,7,0,4,,,,,,,,,0,,,48,60
4733,note_on,1,0,4,,,,,,,,,0,,,51,0
4740,note_on,0,0,4,,,,,,,,,0,,,51,60
4740,note_on,7,0,4,,,,,,,,,0,,,48,0
4747,note_on,7,0,4,,,,,,,,,0,,,48,60
4748,note_on,1,0,4,,,,,,,,,0,,,51,0
4755,note_on,0,0,4,,,,,,,,,0,,,51,60
4755,note_on,7,0,4,,,,,,,,,0,,,48,0
4762,note_on,7,0,4,,,,,,,,,0,,,48,60
4763,note_on,1,0,4,,,,,,,,,0,,,51,0
4765,control_change,55,0,5,,,,,,,,,0,64,0,,
4770,control_change,5,0,5,,,,,,,,,0,64,127,,
4770,note_on,0,0,4,,,,,,,,,0,,,60,0
4770,note_on,0,0,4,,,,,,,,,0,,,49,60
4770,note_on,7,0,4,,,,,,,,,0,,,48,0
4772,note_on,2,0,4,,,,,,,,,0,,,52,60
4777,note_on,0,0,4,,,,,,,,,0,,,49,60
4777,note_on,5,0,4,,,,,,,,,0,,,52,0
4778,note_on,1,0,4,,,,,,,,,0,,,49,0
4780,note_on,2,0,4,,,,,,,,,0,,,57,80
4785,note_on,0,0,4,,,,,,,,,0,,,52,60
4785,note_on,5,0,4,,,,,,,,,0,,,49,0
4792,note_on,7,0,4,,,,,,,,,0,,,49,60
4793,note_on,1,0,4,,,,,,,,,0,,,52,0
4800,note_on,7,0,4,,,,,,,,,0,,,49,0
4800,note_on,0,0,4,,,,,,,,,0,,,52,60
4807,note_on,7,0,4,,,,,,,,,0,,,49,60
4808,note_on,1,0,4,,,,,,,,,0,,,52,0
4815,note_on,7,0,4,,,,,,,,,0,,,49,0
4815,note_on,0,0,4,,,,,,,,,0,,,52,60
4822,note_on,7,0,4,,,,,,,,,0,,,49,60
4823,note_on,1,0,4,,,,,,,,,0,,,52,0
4825,control_change,55,0,5,,,,,,,,,0,64,0,,
4830,note_on,0,0,4,,,,,,,,,0,,,52,60
4830,note_on,0,0,4,,,,,,,,,0,,,55,80
4830,note_on,0,0,4,,,,,,,,,0,,,57,0
4830,note_on,7,0,4,,,,,,,,,0,,,49,0
4830,control_change,5,0,5,,,,,,,,,0,64,127,,
4837,note_on,7,0,4,,,,,,,,,0,,,49,60
4838,note_on,1,0,4,,,,,,,,,0,,,52,0
4845,note_on,7,0,4,,,,,,,,,0,,,49,0
4845,note_on,0,0,4,,,,,,,,,0,,,52,60
4852,note_on,7,0,4,,,,,,,,,0,,,49,60
4853,note_on,1,0,4,,,,,,,,,0,,,52,0
4860,note_on,7,0,4,,,,,,,,,0,,,49,0
4860,note_on,0,0,4,,,,,,,,,0,,,52,60
4867,note_on,7,0,4,,,,,,,,,0,,,49,60
4868,note_on,1,0,4,,,,,,,,,0,,,52,0
4875,note_on,0,0,4,,,,,,,,,0,,,52,60
4875,note_on,7,0,4,,,,,,,,,0,,,49,0
4882,note_on,7,0,4,,,,,,,,,0,,,49,60
4883,note_on,1,0,4,,,,,,,,,0,,,52,0
4885,control_change,55,0,5,,,,,,,,,0,64,0,,
4890,note_on,0,0,4,,,,,,,,,0,,,55,0
4890,note_on,0,0,4,,,,,,,,,0,,,50,60
4890,note_on,7,0,4,,,,,,,,,0,,,49,0
4890,control_change,5,0,5,,,,,,,,,0,64,127,,
4892,note_on,2,0,4,,,,,,,,,0,,,55,60
4897,note_on,0,0,4,,,,,,,,,0,,,50,60
4897,note_on,5,0,4,,,,,,,,,0,,,55,0
4898,note_on,1,0,4,,,,,,,,,0,,,50,0
4900,note_on,2,0,4,,,,,,,,,0,,,58,80
4905,note_on,0,0,4,,,,,,,,,0,,,55,60
4905,note_on,5,0,4,,,,,,,,,0,,,50,0
4912,note_on,7,0,4,,,,,,,,,0,,,50,60
4913,note_on,1,0,4,,,,,,,,,0,,,55,0
4920,note_on,7,0,4,,,,,,,,,0,,,50,0
4920,note_on,0,0,4,,,,,,,,,0,,,55,60
4927,note_on,7,0,4,,,,,,,,,0,,,50,60
4928,note_on,1,0,4,,,,,,,,,0,,,55,0
4935,note_on,7,0,4,,,,,,,,,0,,,50,0
4935,note_on,0,0,4,,,,,,,,,0,,,55,60
4942,note_on,7,0,4,,,,,,,,,0,,,50,60
4943,note_on,1,0,4,,,,,,,,,0,,,55,0
4950,note_on,0,0,4,,,,,,,,,0,,,55,60
4950,note_on,7,0,4,,,,,,,,,0,,,50,0
4957,note_on,7,0,4,,,,,,,,,0,,,50,60
4958,note_on,1,0,4,,,,,,,,,0,,,55,0
4965,note_on,7,0,4,,,,,,,,,0,,,50,0
4965,note_on,0,0,4,,,,,,,,,0,,,55,60
4972,note_on,7,0,4,,,,,,,,,0,,,50,60
4973,note_on,1,0,4,,,,,,,,,0,,,55,0
4980,note_on,0,0,4,,,,,,,,,0,,,55,60
4980,note_on,7,0,4,,,,,,,,,0,,,50,0
4987,note_on,7,0,4,,,,,,,,,0,,,50,60
4988,note_on,1,0,4,,,,,,,,,0,,,55,0
4995,note_on,7,0,4,,,,,,,,,0,,,50,0
4995,note_on,0,0,4,,,,,,,,,0,,,55,60
5002,note_on,7,0,4,,,,,,,,,0,,,50,60
5003,note_on,1,0,4,,,,,,,,,0,,,55,0
5005,control_change,115,0,5,,,,,,,,,0,64,0,,
5010,note_on,0,0,4,,,,,,,,,0,,,57,70
5010,note_on,0,0,4,,,,,,,,,0,,,54,60
5010,note_on,7,0,4,,,,,,,,,0,,,50,0
5010,note_on,0,0,4,,,,,,,,,0,,,58,0
5010,control_change,5,0,5,,,,,,,,,0,64,127,,
5017,note_on,7,0,4,,,,,,,,,0,,,50,60
5018,note_on,1,0,4,,,,,,,,,0,,,54,0
5025,note_on,7,0,4,,,,,,,,,0,,,50,0
5025,note_on,0,0,4,,,,,,,,,0,,,54,60
5032,note_on,7,0,4,,,,,,,,,0,,,50,60
5033,note_on,1,0,4,,,,,,,,,0,,,54,0
5040,note_on,7,0,4,,,,,,,,,0,,,50,0
5040,note_on,0,0,4,,,,,,,,,0,,,54,60
5047,note_on,7,0,4,,,,,,,,,0,,,50,60
5048,note_on,1,0,4,,,,,,,,,0,,,54,0
5055,note_on,0,0,4,,,,,,,,,0,,,54,60
5055,note_on,7,0,4,,,,,,,,,0,,,50,0
5062,note_on,7,0,4,,,,,,,,,0,,,50,60
5063,note_on,1,0,4,,,,,,,,,0,,,54,0
5065,control_change,55,0,5,,,,,,,,,0,64,0,,
5070,note_on,7,0,4,,,,,,,,,0,,,50,0
5070,note_on,0,0,4,,,,,,,,,0,,,48,60
5070,set_tempo,1260,1,0,,,,,,1504136,,,,,,,
5070,control_change,5,0,5,,,,,,,,,0,64,127,,
5070,note_on,0,0,4,,,,,,,,,0,,,57,0
5072,note_on,2,0,4,,,,,,,,,0,,,51,60
5077,note_on,0,0,4,,,,,,,,,0,,,48,60
5077,note_on,5,0,4,,,,,,,,,0,,,51,0
5078,note_on,1,0,4,,,,,,,,,0,,,48,0
5080,note_on,2,0,4,,,,,,,,,0,,,57,80
5085,note_on,5,0,4,,,,,,,,,0,,,48,0
5085,note_on,0,0,4,,,,,,,,,0,,,51,60
5087,set_tempo,17,1,0,,,,,,1515534,,,,,,,
5092,note_on,7,0,4,,,,,,,,,0,,,48,60
5093,note_on,1,0,4,,,,,,,,,0,,,51,0
5100,set_tempo,13,1,0,,,,,,1527106,,,,,,,
5100,note_on,7,0,4,,,,,,,,,0,,,48,0
5100,note_on,0,0,4,,,,,,,,,0,,,51,60
5107,note_on,7,0,4,,,,,,,,,0,,,48,60
5108,note_on,1,0,4,,,,,,,,,0,,,51,0
5115,note_on,7,0,4,,,,,,,,,0,,,48,0
5115,note_on,0,0,4,,,,,,,,,0,,,51,60
5117,set_tempo,17,1,0,,,,,,1538856,,,,,,,
5122,note_on,7,0,4,,,,,,,,,0,,,48,60
5123,note_on,1,0,4,,,,,,,,,0,,,51,0
5125,control_change,55,0,5,,,,,,,,,0,64,0,,
5130,set_tempo,13,1,0,,,,,,1550788,,,,,,,
5130,control_change,5,0,5,,,,,,,,,0,64,127,,
5130,note_on,7,0,4,,,,,,,,,0,,,48,0
5130,note_on,0,0,4,,,,,,,,,0,,,46,60
5130,note_on,0,0,4,,,,,,,,,0,,,57,0
5132,note_on,2,0,4,,,,,,,,,0,,,50,60
5137,note_on,0,0,4,,,,,,,,,0,,,46,60
5137,note_on,5,0,4,,,,,,,,,0,,,50,0
5138,note_on,1,0,4,,,,,,,,,0,,,46,0
5140,note_on,2,0,4,,,,,,,,,0,,,55,80
5145,note_on,0,0,4,,,,,,,,,0,,,50,60
5145,note_on,5,0,4,,,,,,,,,0,,,46,0
5147,set_tempo,17,1,0,,,,,,1562907,,,,,,,
5152,note_on,7,0,4,,,,,,,,,0,,,46,60
5153,note_on,1,0,4,,,,,,,,,0,,,50,0
5160,set_tempo,13,1,0,,,,,,1575217,,,,,,,
5160,note_on,7,0,4,,,,,,,,,0,,,46,0
5160,note_on,0,0,4,,,,,,,,,0,,,50,60
5167,note_on,7,0,4,,,,,,,,,0,,,46,60
5168,note_on,1,0,4,,,,,,,,,0,,,50,0
5172,set_tempo,12,1,0,,,,,,1587722,,,,,,,
5175,note_on,0,0,4,,,,,,,,,0,,,50,60
5175,note_on,7,0,4,,,,,,,,,0,,,46,0
5182,note_on,7,0,4,,,,,,,,,0,,,46,60
5183,note_on,1,0,4,,,,,,,,,0,,,50,0
5185,control_change,55,0,5,,,,,,,,,0,64,0,,
5190,note_on,0,0,4,,,,,,,,,0,,,55,0
5190,note_on,7,0,4,,,,,,,,,0,,,46,0
5190,set_tempo,18,1,0,,,,,,1600427,,,,,,,
5190,control_change,5,0,5,,,,,,,,,0,64,127,,
5190,note_on,0,0,4,,,,,,,,,0,,,45,60
5192,note_on,2,0,4,,,,,,,,,0,,,50,60
5197,note_on,5,0,4,,,,,,,,,0,,,50,0
5197,note_on,0,0,4,,,,,,,,,0,,,45,60
5198,note_on,1,0,4,,,,,,,,,0,,,45,0
5200,note_on,2,0,4,,,,,,,,,0,,,54,80
5202,set_tempo,12,1,0,,,,,,1613337,,,,,,,
5205,note_on,5,0,4,,,,,,,,,0,,,45,0
5205,note_on,0,0,4,,,,,,,,,0,,,50,60
5212,note_on,7,0,4,,,,,,,,,0,,,45,60
5213,note_on,1,0,4,,,,,,,,,0,,,50,0
5220,note_on,0,0,4,,,,,,,,,0,,,50,60
5220,note_on,7,0,4,,,,,,,,,0,,,45,0
5220,set_tempo,18,1,0,,,,,,1626457,,,,,,,
5227,note_on,7,0,4,,,,,,,,,0,,,45,60
5228,note_on,1,0,4,,,,,,,,,0,,,50,0
5232,set_tempo,12,1,0,,,,,,1639792,,,,,,,
5235,note_on,7,0,4,,,,,,,,,0,,,45,0
5235,note_on,0,0,4,,,,,,,,,0,,,50,60
5242,note_on,7,0,4,,,,,,,,,0,,,45,60
5243,note_on,1,0,4,,,,,,,,,0,,,50,0
5244,note_on,1,0,4,,,,,,,,,0,,,43,80
5245,set_tempo,13,1,0,,,,,,1653348,,,,,,,
5245,control_change,55,0,5,,,,,,,,,0,64,0,,
5247,note_on,3,0,4,,,,,,,,,0,,,50,80
5250,note_on,0,0,4,,,,,,,,,0,,,54,0
5250,control_change,5,0,5,,,,,,,,,0,64,127,,
5250,note_on,0,0,4,,,,,,,,,0,,,62,80
5250,note_on,0,0,4,,,,,,,,,0,,,58,60
5250,note_on,3,0,4,,,,,,,,,0,,,45,0
5250,set_tempo,5,1,0,,,,,,1500000,,,,,,,
5257,note_on,7,0,4,,,,,,,,,0,,,55,60
5258,note_on,1,0,4,,,,,,,,,0,,,58,0
5265,note_on,0,0,4,,,,,,,,,0,,,58,60
5265,note_on,7,0,4,,,,,,,,,0,,,55,0
5272,note_on,7,0,4,,,,,,,,,0,,,55,60
5273,note_on,1,0,4,,,,,,,,,0,,,58,0
5280,note_on,0,0,4,,,,,,,,,0,,,58,60
5280,note_on,7,0,4,,,,,,,,,0,,,55,0
5287,note_on,7,0,4,,,,,,,,,0,,,55,60
5288,note_on,1,0,4,,,,,,,,,0,,,58,0
5295,note_on,7,0,4,,,,,,,,,0,,,55,0
5295,note_on,0,0,4,,,,,,,,,0,,,58,60
5302,note_on,7,0,4,,,,,,,,,0,,,55,60
5303,note_on,1,0,4,,,,,,,,,0,,,58,0
5310,note_on,0,0,4,,,,,,,,,0,,,58,60
5310,note_on,7,0,4,,,,,,,,,0,,,55,0
5317,note_on,7,0,4,,,,,,,,,0,,,55,60
5318,note_on,1,0,4,,,,,,,,,0,,,58,0
5325,note_on,0,0,4,,,,,,,,,0,,,58,60
5325,note_on,7,0,4,,,,,,,,,0,,,55,0
5332,note_on,7,0,4,,,,,,,,,0,,,55,60
5333,note_on,1,0,4,,,,,,,,,0,,,58,0
5340,note_on,0,0,4,,,,,,,,,0,,,58,60
5340,note_on,7,0,4,,,,,,,,,0,,,55,0
5347,note_on,7,0,4,,,,,,,,,0,,,55,60
5348,note_on,1,0,4,,,,,,,,,0,,,58,0
5355,note_on,7,0,4,,,,,,,,,0,,,55,0
5355,note_on,0,0,4,,,,,,,,,0,,,58,60
5362,note_on,7,0,4,,,,,,,,,0,,,55,60
5363,note_on,1,0,4,,,,,,,,,0,,,58,0
5370,note_on,0,0,4,,,,,,,,,0,,,58,60
5370,note_on,7,0,4,,,,,,,,,0,,,55,0
5377,note_on,7,0,4,,,,,,,,,0,,,55,60
5378,note_on,1,0,4,,,,,,,,,0,,,58,0
5385,note_on,7,0,4,,,,,,,,,0,,,55,0
5385,note_on,0,0,4,,,,,,,,,0,,,58,60
5392,note_on,7,0,4,,,,,,,,,0,,,55,60
5393,note_on,1,0,4,,,,,,,,,0,,,58,0
5400,note_on,7,0,4,,,,,,,,,0,,,55,0
5400,note_on,0,0,4,,,,,,,,,0,,,58,60
5407,note_on,7,0,4,,,,,,,,,0,,,55,60
5408,note_on,1,0,4,,,,,,,,,0,,,58,0
5415,note_on,7,0,4,,,,,,,,,0,,,55,0
5415,note_on,0,0,4,,,,,,,,,0,,,58,60
5422,note_on,7,0,4,,,,,,,,,0,,,55,60
5423,note_on,1,0,4,,,,,,,,,0,,,58,0
5425,control_change,175,0,5,,,,,,,,,0,64,0,,
5430,note_on,7,0,4,,,,,,,,,0,,,50,0
5430,note_on,0,0,4,,,,,,,,,0,,,62,0
5430,note_on,0,0,4,,,,,,,,,0,,,55,0
5430,note_on,0,0,4,,,,,,,,,0,,,43,0
5430,note_on,0,0,4,,,,,,,,,0,,,62,70
5430,control_change,5,0,5,,,,,,,,,0,64,127,,
5430,note_on,0,0,4,,,,,,,,,0,,,59,60
5437,note_on,7,0,4,,,,,,,,,0,,,55,60
5438,note_on,1,0,4,,,,,,,,,0,,,59,0
5445,note_on,7,0,4,,,,,,,,,0,,,55,0
5445,note_on,0,0,4,,,,,,,,,0,,,59,60
5452,note_on,7,0,4,,,,,,,,,0,,,55,60
5453,note_on,1,0,4,,,,,,,,,0,,,59,0
5460,note_on,7,0,4,,,,,,,,,0,,,55,0
5460,note_on,0,0,4,,,,,,,,,0,,,59,60
5467,note_on,7,0,4,,,,,,,,,0,,,55,60
5468,note_on,1,0,4,,,,,,,,,0,,,59,0
5475,note_on,0,0,4,,,,,,,,,0,,,59,60
5475,note_on,7,0,4,,,,,,,,,0,,,55,0
5482,note_on,7,0,4,,,,,,,,,0,,,55,60
5483,note_on,1,0,4,,,,,,,,,0,,,59,0
5485,control_change,55,0,5,,,,,,,,,0,64,0,,
5490,note_on,0,0,4,,,,,,,,,0,,,60,60
5490,note_on,7,0,4,,,,,,,,,0,,,55,0
5490,control_change,5,0,5,,,,,,,,,0,64,127,,
5490,note_on,0,0,4,,,,,,,,,0,,,62,0
5490,note_on,0,0,4,,,,,,,,,0,,,63,70
5497,note_on,7,0,4,,,,,,,,,0,,,55,60
5498,note_on,1,0,4,,,,,,,,,0,,,60,0
5505,note_on,0,0,4,,,,,,,,,0,,,60,60
5505,note_on,7,0,4,,,,,,,,,0,,,55,0
5512,note_on,7,0,4,,,,,,,,,0,,,55,60
5513,note_on,1,0,4,,,,,,,,,0,,,60,0
5520,note_on,7,0,4,,,,,,,,,0,,,55,0
5520,note_on,0,0,4,,,,,,,,,0,,,60,60
5527,note_on,7,0,4,,,,,,,,,0,,,55,60
5528,note_on,1,0,4,,,,,,,,,0,,,60,0
5535,note_on,0,0,4,,,,,,,,,0,,,60,60
5535,note_on,7,0,4,,,,,,,,,0,,,55,0
5542,note_on,7,0,4,,,,,,,,,0,,,55,60
5543,note_on,1,0,4,,,,,,,,,0,,,60,0
5545,control_change,55,0,5,,,,,,,,,0,64,0,,
5550,note_on,7,0,4,,,,,,,,,0,,,55,0
5550,note_on,0,0,4,,,,,,,,,0,,,63,70
5550,note_on,0,0,4,,,,,,,,,0,,,63,0
5550,note_on,0,0,4,,,,,,,,,0,,,59,60
5550,control_change,5,0,5,,,,,,,,,0,64,127,,
5550,note_on,0,0,4,,,,,,,,,0,,,59,70
5557,note_on,7,0,4,,,,,,,,,0,,,54,60
5558,note_on,1,0,4,,,,,,,,,0,,,59,0
5565,note_on,7,0,4,,,,,,,,,0,,,54,0
5565,note_on,0,0,4,,,,,,,,,0,,,59,60
5572,note_on,7,0,4,,,,,,,,,0,,,54,60
5573,note_on,1,0,4,,,,,,,,,0,,,59,0
5580,note_on,0,0,4,,,,,,,,,0,,,59,60
5580,note_on,7,0,4,,,,,,,,,0,,,54,0
5587,note_on,7,0,4,,,,,,,,,0,,,54,60
5588,note_on,1,0,4,,,,,,,,,0,,,59,0
5595,note_on,7,0,4,,,,,,,,,0,,,54,0
5595,note_on,0,0,4,,,,,,,,,0,,,59,60
5602,note_on,7,0,4,,,,,,,,,0,,,54,60
5603,note_on,1,0,4,,,,,,,,,0,,,59,0
5605,control_change,55,0,5,,,,,,,,,0,64,0,,
5610,note_on,7,0,4,,,,,,,,,0,,,63,0
5610,note_on,0,0,4,,,,,,,,,0,,,63,80
5610,note_on,0,0,4,,,,,,,,,0,,,60,80
5610,note_on,0,0,4,,,,,,,,,0,,,59,0
5610,note_on,0,0,4,,,,,,,,,0,,,57,60
5610,note_on,0,0,4,,,,,,,,,0,,,54,0
5610,control_change,5,0,5,,,,,,,,,0,64,127,,
5617,note_on,7,0,4,,,,,,,,,0,,,53,60
5618,note_on,1,0,4,,,,,,,,,0,,,57,0
5625,note_on,0,0,4,,,,,,,,,0,,,57,60
5625,note_on,7,0,4,,,,,,,,,0,,,53,0
5632,note_on,7,0,4,,,,,,,,,0,,,53,60
5633,note_on,1,0,4,,,,,,,,,0,,,57,0
5640,note_on,7,0,4,,,,,,,,,0,,,53,0
5640,note_on,0,0,4,,,,,,,,,0,,,57,60
5647,note_on,7,0,4,,,,,,,,,0,,,53,60
5648,note_on,1,0,4,,,,,,,,,0,,,57,0
5655,note_on,7,0,4,,,,,,,,,0,,,53,0
5655,note_on,0,0,4,,,,,,,,,0,,,57,60
5662,note_on,7,0,4,,,,,,,,,0,,,53,60
5663,note_on,1,0,4,,,,,,,,,0,,,57,0
5670,note_on,0,0,4,,,,,,,,,0,,,57,60
5670,note_on,7,0,4,,,,,,,,,0,,,53,0
5677,note_on,7,0,4,,,,,,,,,0,,,53,60
5678,note_on,1,0,4,,,,,,,,,0,,,57,0
5685,note_on,7,0,4,,,,,,,,,0,,,53,0
5685,note_on,0,0,4,,,,,,,,,0,,,57,60
5692,note_on,7,0,4,,,,,,,,,0,,,53,60
5693,note_on,1,0,4,,,,,,,,,0,,,57,0
5700,note_on,7,0,4,,,,,,,,,0,,,53,0
5700,note_on,0,0,4,,,,,,,,,0,,,57,60
5707,note_on,7,0,4,,,,,,,,,0,,,53,60
5708,note_on,1,0,4,,,,,,,,,0,,,57,0
5715,note_on,0,0,4,,,,,,,,,0,,,57,60
5715,note_on,7,0,4,,,,,,,,,0,,,53,0
5722,note_on,7,0,4,,,,,,,,,0,,,53,60
5723,note_on,1,0,4,,,,,,,,,0,,,57,0
5730,note_on,0,0,4,,,,,,,,,0,,,57,60
5730,note_on,7,0,4,,,,,,,,,0,,,53,0
5737,note_on,7,0,4,,,,,,,,,0,,,53,60
5738,note_on,1,0,4,,,,,,,,,0,,,57,0
5745,note_on,0,0,4,,,,,,,,,0,,,57,60
5745,note_on,7,0,4,,,,,,,,,0,,,53,0
5752,note_on,7,0,4,,,,,,,,,0,,,53,60
5753,note_on,1,0,4,,,,,,,,,0,,,57,0
5760,note_on,7,0,4,,,,,,,,,0,,,53,0
5760,note_on,0,0,4,,,,,,,,,0,,,57,60
5767,note_on,7,0,4,,,,,,,,,0,,,53,60
5768,note_on,1,0,4,,,,,,,,,0,,,57,0
5775,note_on,7,0,4,,,,,,,,,0,,,53,0
5775,note_on,0,0,4,,,,,,,,,0,,,57,60
5782,note_on,7,0,4,,,,,,,,,0,,,53,60
5783,note_on,1,0,4,,,,,,,,,0,,,57,0
5785,control_change,175,0,5,,,,,,,,,0,64,0,,
5790,note_on,0,0,4,,,,,,,,,0,,,63,70
5790,note_on,0,0,4,,,,,,,,,0,,,60,70
5790,control_change,5,0,5,,,,,,,,,0,64,127,,
5790,note_on,0,0,4,,,,,,,,,0,,,57,60
5790,note_on,0,0,4,,,,,,,,,0,,,60,0
5790,note_on,7,0,4,,,,,,,,,0,,,63,0
5790,note_on,0,0,4,,,,,,,,,0,,,53,0
5797,note_on,7,0,4,,,,,,,,,0,,,54,60
5798,note_on,1,0,4,,,,,,,,,0,,,57,0
5805,note_on,0,0,4,,,,,,,,,0,,,57,60
5805,note_on,7,0,4,,,,,,,,,0,,,54,0
5812,note_on,7,0,4,,,,,,,,,0,,,54,60
5813,note_on,1,0,4,,,,,,,,,0,,,57,0
5820,note_on,7,0,4,,,,,,,,,0,,,54,0
5820,note_on,0,0,4,,,,,,,,,0,,,57,60
5827,note_on,7,0,4,,,,,,,,,0,,,54,60
5828,note_on,1,0,4,,,,,,,,,0,,,57,0
5835,note_on,0,0,4,,,,,,,,,0,,,57,60
5835,note_on,7,0,4,,,,,,,,,0,,,54,0
5842,note_on,7,0,4,,,,,,,,,0,,,54,60
5843,note_on,1,0,4,,,,,,,,,0,,,57,0
5845,control_change,55,0,5,,,,,,,,,0,64,0,,
5850,note_on,0,0,4,,,,,,,,,0,,,62,70
5850,note_on,0,0,4,,,,,,,,,0,,,58,60
5850,control_change,5,0,5,,,,,,,,,0,64,127,,
5850,note_on,0,0,4,,,,,,,,,0,,,54,0
5850,note_on,7,0,4,,,,,,,,,0,,,63,0
5850,note_on,0,0,4,,,,,,,,,0,,,60,0
5857,note_on,7,0,4,,,,,,,,,0,,,55,60
5858,note_on,1,0,4,,,,,,,,,0,,,58,0
5865,note_on,7,0,4,,,,,,,,,0,,,55,0
5865,note_on,0,0,4,,,,,,,,,0,,,58,60
5872,note_on,7,0,4,,,,,,,,,0,,,55,60
5873,note_on,1,0,4,,,,,,,,,0,,,58,0
5880,note_on,0,0,4,,,,,,,,,0,,,58,60
5880,note_on,7,0,4,,,,,,,,,0,,,55,0
5887,note_on,7,0,4,,,,,,,,,0,,,55,60
5888,note_on,1,0,4,,,,,,,,,0,,,58,0
5895,note_on,0,0,4,,,,,,,,,0,,,58,60
5895,note_on,7,0,4,,,,,,,,,0,,,55,0
5902,note_on,7,0,4,,,,,,,,,0,,,55,60
5903,note_on,1,0,4,,,,,,,,,0,,,58,0
5905,control_change,55,0,5,,,,,,,,,0,64,0,,
5910,note_on,0,0,4,,,,,,,,,0,,,62,70
5910,note_on,7,0,4,,,,,,,,,0,,,55,0
5910,note_on,0,0,4,,,,,,,,,0,,,56,60
5910,note_on,0,0,4,,,,,,,,,0,,,62,0
5910,control_change,5,0,5,,,,,,,,,0,64,127,,
5917,note_on,7,0,4,,,,,,,,,0,,,53,60
5918,note_on,1,0,4,,,,,,,,,0,,,56,0
5925,note_on,0,0,4,,,,,,,,,0,,,56,60
5925,note_on,7,0,4,,,,,,,,,0,,,53,0
5932,note_on,7,0,4,,,,,,,,,0,,,53,60
5933,note_on,1,0,4,,,,,,,,,0,,,56,0
5940,note_on,0,0,4,,,,,,,,,0,,,56,60
5940,note_on,7,0,4,,,,,,,,,0,,,53,0
5947,note_on,7,0,4,,,,,,,,,0,,,53,60
5948,note_on,1,0,4,,,,,,,,,0,,,56,0
5955,note_on,7,0,4,,,,,,,,,0,,,53,0
5955,note_on,0,0,4,,,,,,,,,0,,,56,60
5962,note_on,7,0,4,,,,,,,,,0,,,53,60
5963,note_on,1,0,4,,,,,,,,,0,,,56,0
5965,control_change,55,0,5,,,,,,,,,0,64,0,,
5970,control_change,5,0,5,,,,,,,,,0,64,127,,
5970,note_on,7,0,4,,,,,,,,,0,,,53,0
5970,note_on,0,0,4,,,,,,,,,0,,,51,60
5970,note_on,0,0,4,,,,,,,,,0,,,62,0
5972,note_on,2,0,4,,,,,,,,,0,,,55,60
5977,note_on,0,0,4,,,,,,,,,0,,,51,60
5977,note_on,5,0,4,,,,,,,,,0,,,55,0
5978,note_on,1,0,4,,,,,,,,,0,,,51,0
5980,note_on,2,0,4,,,,,,,,,0,,,60,70
5985,note_on,5,0,4,,,,,,,,,0,,,51,0
5985,note_on,0,0,4,,,,,,,,,0,,,55,60
5992,note_on,7,0,4,,,,,,,,,0,,,51,60
5993,note_on,1,0,4,,,,,,,,,0,,,55,0
6000,note_on,0,0,4,,,,,,,,,0,,,55,60
6000,note_on,7,0,4,,,,,,,,,0,,,51,0
6007,note_on,7,0,4,,,,,,,,,0,,,51,60
6008,note_on,1,0,4,,,,,,,,,0,,,55,0
6015,note_on,0,0,4,,,,,,,,,0,,,55,60
6015,note_on,7,0,4,,,,,,,,,0,,,51,0
6022,note_on,7,0,4,,,,,,,,,0,,,51,60
6023,note_on,1,0,4,,,,,,,,,0,,,55,0
6030,note_on,7,0,4,,,,,,,,,0,,,51,0
6030,note_on,0,0,4,,,,,,,,,0,,,55,60
6037,note_on,7,0,4,,,,,,,,,0,,,51,60
6038,note_on,1,0,4,,,,,,,,,0,,,55,0
6045,note_on,0,0,4,,,,,,,,,0,,,55,60
6045,note_on,7,0,4,,,,,,,,,0,,,51,0
6052,note_on,7,0,4,,,,,,,,,0,,,51,60
6053,note_on,1,0,4,,,,,,,,,0,,,55,0
6060,note_on,0,0,4,,,,,,,,,0,,,55,60
6060,note_on,7,0,4,,,,,,,,,0,,,51,0
6067,note_on,7,0,4,,,,,,,,,0,,,51,60
6068,note_on,1,0,4,,,,,,,,,0,,,55,0
6075,note_on,0,0,4,,,,,,,,,0,,,55,60
6075,note_on,7,0,4,,,,,,,,,0,,,51,0
6082,note_on,7,0,4,,,,,,,,,0,,,51,60
6083,note_on,1,0,4,,,,,,,,,0,,,55,0
6090,note_on,0,0,4,,,,,,,,,0,,,55,60
6090,note_on,7,0,4,,,,,,,,,0,,,51,0
6097,note_on,7,0,4,,,,,,,,,0,,,51,60
6098,note_on,1,0,4,,,,,,,,,0,,,55,0
6105,note_on,0,0,4,,,,,,,,,0,,,55,60
6105,note_on,7,0,4,,,,,,,,,0,,,51,0
6112,note_on,7,0,4,,,,,,,,,0,,,51,60
6113,note_on,1,0,4,,,,,,,,,0,,,55,0
6120,note_on,0,0,4,,,,,,,,,0,,,55,60
6120,note_on,7,0,4,,,,,,,,,0,,,51,0
6127,note_on,7,0,4,,,,,,,,,0,,,51,60
6128,note_on,1,0,4,,,,,,,,,0,,,55,0
6135,note_on,7,0,4,,,,,,,,,0,,,51,0
6135,note_on,0,0,4,,,,,,,,,0,,,55,60
6142,note_on,7,0,4,,,,,,,,,0,,,51,60
6143,note_on,1,0,4,,,,,,,,,0,,,55,0
6145,control_change,175,0,5,,,,,,,,,0,64,0,,
6150,control_change,5,0,5,,,,,,,,,0,64,127,,
6150,note_on,7,0,4,,,,,,,,,0,,,51,0
6150,note_on,0,0,4,,,,,,,,,0,,,60,0
6150,note_on,0,0,4,,,,,,,,,0,,,55,60
6150,note_on,0,0,4,,,,,,,,,0,,,61,70
6157,note_on,7,0,4,,,,,,,,,0,,,52,60
6158,note_on,1,0,4,,,,,,,,,0,,,55,0
6165,note_on,0,0,4,,,,,,,,,0,,,55,60
6165,note_on,7,0,4,,,,,,,,,0,,,52,0
6172,note_on,7,0,4,,,,,,,,,0,,,52,60
6173,note_on,1,0,4,,,,,,,,,0,,,55,0
6180,note_on,7,0,4,,,,,,,,,0,,,52,0
6180,note_on,0,0,4,,,,,,,,,0,,,55,60
6187,note_on,7,0,4,,,,,,,,,0,,,52,60
6188,note_on,1,0,4,,,,,,,,,0,,,55,0
6195,note_on,0,0,4,,,,,,,,,0,,,55,60
6195,note_on,7,0,4,,,,,,,,,0,,,52,0
6202,note_on,7,0,4,,,,,,,,,0,,,52,60
6203,note_on,1,0,4,,,,,,,,,0,,,55,0
6205,control_change,55,0,5,,,,,,,,,0,64,0,,
6210,control_change,5,0,5,,,,,,,,,0,64,127,,
6210,note_on,7,0,4,,,,,,,,,0,,,52,0
6210,note_on,0,0,4,,,,,,,,,0,,,55,60
6210,note_on,0,0,4,,,,,,,,,0,,,60,70
6210,note_on,0,0,4,,,,,,,,,0,,,61,0
6217,note_on,7,0,4,,,,,,,,,0,,,52,60
6218,note_on,1,0,4,,,,,,,,,0,,,55,0
6225,note_on,0,0,4,,,,,,,,,0,,,55,60
6225,note_on,7,0,4,,,,,,,,,0,,,52,0
6232,note_on,7,0,4,,,,,,,,,0,,,52,60
6233,note_on,1,0,4,,,,,,,,,0,,,55,0
6240,note_on,0,0,4,,,,,,,,,0,,,55,60
6240,note_on,7,0,4,,,,,,,,,0,,,52,0
6247,note_on,7,0,4,,,,,,,,,0,,,52,60
6248,note_on,1,0,4,,,,,,,,,0,,,55,0
6255,note_on,0,0,4,,,,,,,,,0,,,55,60
6255,note_on,7,0,4,,,,,,,,,0,,,52,0
6262,note_on,7,0,4,,,,,,,,,0,,,52,60
6263,note_on,1,0,4,,,,,,,,,0,,,55,0
6265,control_change,55,0,5,,,,,,,,,0,64,0,,
6270,note_on,0,0,4,,,,,,,,,0,,,55,60
6270,note_on,7,0,4,,,,,,,,,0,,,52,0
6270,note_on,0,0,4,,,,,,,,,0,,,60,0
6270,note_on,0,0,4,,,,,,,,,0,,,58,70
6270,control_change,5,0,5,,,,,,,,,0,64,127,,
6277,note_on,7,0,4,,,,,,,,,0,,,52,60
6278,note_on,1,0,4,,,,,,,,,0,,,55,0
6285,note_on,0,0,4,,,,,,,,,0,,,55,60
6285,note_on,7,0,4,,,,,,,,,0,,,52,0
6292,note_on,7,0,4,,,,,,,,,0,,,52,60
6293,note_on,1,0,4,,,,,,,,,0,,,55,0
6300,note_on,0,0,4,,,,,,,,,0,,,55,60
6300,note_on,7,0,4,,,,,,,,,0,,,52,0
6307,note_on,7,0,4,,,,,,,,,0,,,52,60
6308,note_on,1,0,4,,,,,,,,,0,,,55,0
6315,note_on,0,0,4,,,,,,,,,0,,,55,60
6315,note_on,7,0,4,,,,,,,,,0,,,52,0
6322,note_on,7,0,4,,,,,,,,,0,,,52,60
6323,note_on,1,0,4,,,,,,,,,0,,,55,0
6325,control_change,55,0,5,,,,,,,,,0,64,0,,
6330,note_on,0,0,4,,,,,,,,,0,,,60,70
6330,control_change,5,0,5,,,,,,,,,0,64,127,,
6330,note_on,0,0,4,,,,,,,,,0,,,57,60
6330,note_on,0,0,4,,,,,,,,,0,,,58,0
6330,note_on,7,0,4,,,,,,,,,0,,,52,0
6337,note_on,7,0,4,,,,,,,,,0,,,53,60
6338,note_on,1,0,4,,,,,,,,,0,,,57,0
6345,note_on,7,0,4,,,,,,,,,0,,,53,0
6345,note_on,0,0,4,,,,,,,,,0,,,57,60
6352,note_on,7,0,4,,,,,,,,,0,,,53,60
6353,note_on,1,0,4,,,,,,,,,0,,,57,0
6360,note_on,0,0,4,,,,,,,,,0,,,57,60
6360,note_on,7,0,4,,,,,,,,,0,,,53,0
6367,note_on,7,0,4,,,,,,,,,0,,,53,60
6368,note_on,1,0,4,,,,,,,,,0,,,57,0
6375,note_on,0,0,4,,,,,,,,,0,,,57,60
6375,note_on,7,0,4,,,,,,,,,0,,,53,0
6382,note_on,7,0,4,,,,,,,,,0,,,53,60
6383,note_on,1,0,4,,,,,,,,,0,,,57,0
6385,control_change,55,0,5,,,,,,,,,0,64,0,,
6390,control_change,5,0,5,,,,,,,,,0,64,127,,
6390,note_on,7,0,4,,,,,,,,,0,,,53,0
6390,note_on,0,0,4,,,,,,,,,0,,,51,60
6390,note_on,0,0,4,,,,,,,,,0,,,60,0
6392,note_on,2,0,4,,,,,,,,,0,,,57,60
6397,note_on,5,0,4,,,,,,,,,0,,,57,0
6397,note_on,0,0,4,,,,,,,,,0,,,51,60
6398,note_on,1,0,4,,,,,,,,,0,,,51,0
6400,note_on,2,0,4,,,,,,,,,0,,,65,80
6405,note_on,0,0,4,,,,,,,,,0,,,57,60
6405,note_on,5,0,4,,,,,,,,,0,,,51,0
6412,note_on,7,0,4,,,,,,,,,0,,,51,60
6413,note_on,1,0,4,,,,,,,,,0,,,57,0
6420,note_on,0,0,4,,,,,,,,,0,,,57,60
6420,note_on,7,0,4,,,,,,,,,0,,,51,0
6427,note_on,7,0,4,,,,,,,,,0,,,51,60
6428,note_on,1,0,4,,,,,,,,,0,,,57,0
6435,note_on,7,0,4,,,,,,,,,0,,,51,0
6435,note_on,0,0,4,,,,,,,,,0,,,57,60
6442,note_on,7,0,4,,,,,,,,,0,,,51,60
6443,note_on,1,0,4,,,,,,,,,0,,,57,0
6445,control_change,55,0,5,,,,,,,,,0,64,0,,
6450,note_on,0,0,4,,,,,,,,,0,,,65,0
6450,control_change,5,0,5,,,,,,,,,0,64,127,,
6450,note_on,7,0,4,,,,,,,,,0,,,51,0
6450,note_on,0,0,4,,,,,,,,,0,,,50,60
6452,note_on,2,0,4,,,,,,,,,0,,,58,60
6457,note_on,5,0,4,,,,,,,,,0,,,58,0
6457,note_on,0,0,4,,,,,,,,,0,,,50,60
6458,note_on,1,0,4,,,,,,,,,0,,,50,0
6460,note_on,2,0,4,,,,,,,,,0,,,65,70
6465,note_on,5,0,4,,,,,,,,,0,,,50,0
6465,note_on,0,0,4,,,,,,,,,0,,,58,60
6472,note_on,7,0,4,,,,,,,,,0,,,50,60
6473,note_on,1,0,4,,,,,,,,,0,,,58,0
6480,note_on,7,0,4,,,,,,,,,0,,,50,0
6480,note_on,0,0,4,,,,,,,,,0,,,58,60
6487,note_on,7,0,4,,,,,,,,,0,,,50,60
6488,note_on,1,0,4,,,,,,,,,0,,,58,0
6495,note_on,7,0,4,,,,,,,,,0,,,50,0
6495,note_on,0,0,4,,,,,,,,,0,,,58,60
6502,note_on,7,0,4,,,,,,,,,0,,,50,60
6503,note_on,1,0,4,,,,,,,,,0,,,58,0
6505,control_change,55,0,5,,,,,,,,,0,64,0,,
6510,note_on,7,0,4,,,,,,,,,0,,,50,0
6510,note_on,0,0,4,,,,,,,,,0,,,54,60
6510,control_change,5,0,5,,,,,,,,,0,64,127,,
6510,note_on,0,0,4,,,,,,,,,0,,,65,0
6512,note_on,2,0,4,,,,,,,,,0,,,57,60
6517,note_on,5,0,4,,,,,,,,,0,,,57,0
6517,note_on,0,0,4,,,,,,,,,0,,,54,60
6518,note_on,1,0,4,,,,,,,,,0,,,54,0
6520,note_on,2,0,4,,,,,,,,,0,,,60,80
6525,note_on,0,0,4,,,,,,,,,0,,,57,60
6525,note_on,5,0,4,,,,,,,,,0,,,54,0
6532,note_on,7,0,4,,,,,,,,,0,,,54,60
6533,note_on,1,0,4,,,,,,,,,0,,,57,0
6540,note_on,7,0,4,,,,,,,,,0,,,54,0
6540,note_on,0,0,4,,,,,,,,,0,,,57,60
6547,note_on,7,0,4,,,,,,,,,0,,,54,60
6548,note_on,1,0,4,,,,,,,,,0,,,57,0
6555,note_on,0,0,4,,,,,,,,,0,,,57,60
6555,note_on,7,0,4,,,,,,,,,0,,,54,0
6562,note_on,7,0,4,,,,,,,,,0,,,54,60
6563,note_on,1,0,4,,,,,,,,,0,,,57,0
6565,control_change,55,0,5,,,,,,,,,0,64,0,,
6570,note_on,7,0,4,,,,,,,,,0,,,54,0
6570,note_on,0,0,4,,,,,,,,,0,,,60,0
6570,note_on,0,0,4,,,,,,,,,0,,,53,60
6570,control_change,5,0,5,,,,,,,,,0,64,127,,
6572,note_on,2,0,4,,,,,,,,,0,,,58,60
6577,note_on,0,0,4,,,,,,,,,0,,,53,60
6577,note_on,5,0,4,,,,,,,,,0,,,58,0
6578,note_on,1,0,4,,,,,,,,,0,,,53,0
6580,note_on,2,0,4,,,,,,,,,0,,,62,70
6585,note_on,0,0,4,,,,,,,,,0,,,58,60
6585,note_on,5,0,4,,,,,,,,,0,,,53,0
6592,note_on,7,0,4,,,,,,,,,0,,,53,60
6593,note_on,1,0,4,,,,,,,,,0,,,58,0
6600,note_on,7,0,4,,,,,,,,,0,,,53,0
6600,note_on,0,0,4,,,,,,,,,0,,,58,60
6607,note_on,7,0,4,,,,,,,,,0,,,53,60
6608,note_on,1,0,4,,,,,,,,,0,,,58,0
6615,note_on,0,0,4,,,,,,,,,0,,,58,60
6615,note_on,7,0,4,,,,,,,,,0,,,53,0
6622,note_on,7,0,4,,,,,,,,,0,,,53,60
6623,note_on,1,0,4,,,,,,,,,0,,,58,0
6625,control_change,55,0,5,,,,,,,,,0,64,0,,
6630,note_on,0,0,4,,,,,,,,,0,,,62,0
6630,note_on,0,0,4,,,,,,,,,0,,,51,60
6630,note_on,7,0,4,,,,,,,,,0,,,53,0
6630,control_change,5,0,5,,,,,,,,,0,64,127,,
6632,note_on,2,0,4,,,,,,,,,0,,,57,60
6637,note_on,0,0,4,,,,,,,,,0,,,51,60
6637,note_on,5,0,4,,,,,,,,,0,,,57,0
6638,note_on,1,0,4,,,,,,,,,0,,,51,0
6640,note_on,2,0,4,,,,,,,,,0,,,65,80
6645,note_on,0,0,4,,,,,,,,,0,,,57,60
6645,note_on,5,0,4,,,,,,,,,0,,,51,0
6652,note_on,7,0,4,,,,,,,,,0,,,51,60
6653,note_on,1,0,4,,,,,,,,,0,,,57,0
6660,note_on,7,0,4,,,,,,,,,0,,,51,0
6660,note_on,0,0,4,,,,,,,,,0,,,57,60
6667,note_on,7,0,4,,,,,,,,,0,,,51,60
6668,note_on,1,0,4,,,,,,,,,0,,,57,0
6675,note_on,0,0,4,,,,,,,,,0,,,57,60
6675,note_on,7,0,4,,,,,,,,,0,,,51,0
6682,note_on,7,0,4,,,,,,,,,0,,,51,60
6683,note_on,1,0,4,,,,,,,,,0,,,57,0
6685,control_change,55,0,5,,,,,,,,,0,64,0,,
6690,note_on,0,0,4,,,,,,,,,0,,,50,60
6690,note_on,7,0,4,,,,,,,,,0,,,51,0
6690,control_change,5,0,5,,,,,,,,,0,64,0,,
6690,note_on,0,0,4,,,,,,,,,0,,,65,0
6692,note_on,2,0,4,,,,,,,,,0,,,58,60
6695,control_change,5,0,5,,,,,,,,,0,64,127,,
6697,note_on,5,0,4,,,,,,,,,0,,,58,0
6697,note_on,0,0,4,,,,,,,,,0,,,50,60
6698,note_on,1,0,4,,,,,,,,,0,,,50,0
6700,note_on,2,0,4,,,,,,,,,0,,,65,70
6705,note_on,0,0,4,,,,,,,,,0,,,58,60
6705,note_on,5,0,4,,,,,,,,,0,,,50,0
6712,note_on,7,0,4,,,,,,,,,0,,,50,61
6713,note_on,1,0,4,,,,,,,,,0,,,58,0
6720,note_on,0,0,4,,,,,,,,,0,,,58,61
6720,note_on,7,0,4,,,,,,,,,0,,,50,0
6727,note_on,7,0,4,,,,,,,,,0,,,50,62
6728,note_on,1,0,4,,,,,,,,,0,,,58,0
6735,note_on,7,0,4,,,,,,,,,0,,,50,0
6735,note_on,0,0,4,,,,,,,,,0,,,58,62
6742,note_on,7,0,4,,,,,,,,,0,,,50,63
6743,note_on,1,0,4,,,,,,,,,0,,,58,0
6750,control_change,55,0,5,,,,,,,,,0,64,0,,
6750,note_on,0,0,4,,,,,,,,,0,,,66,73
6750,note_on,0,0,4,,,,,,,,,0,,,58,63
6750,note_on,7,0,4,,,,,,,,,0,,,50,0
6750,note_on,0,0,4,,,,,,,,,0,,,65,0
6755,control_change,5,0,5,,,,,,,,,0,64,127,,
6757,note_on,7,0,4,,,,,,,,,0,,,50,63
6758,note_on,1,0,4,,,,,,,,,0,,,58,0
6765,note_on,7,0,4,,,,,,,,,0,,,50,0
6765,note_on,0,0,4,,,,,,,,,0,,,58,64
6772,note_on,7,0,4,,,,,,,,,0,,,50,64
6773,note_on,1,0,4,,,,,,,,,0,,,58,0
6780,note_on,7,0,4,,,,,,,,,0,,,50,0
6780,note_on,0,0,4,,,,,,,,,0,,,58,65
6787,note_on,7,0,4,,,,,,,,,0,,,50,65
6788,note_on,1,0,4,,,,,,,,,0,,,58,0
6795,note_on,0,0,4,,,,,,,,,0,,,58,66
6795,note_on,7,0,4,,,,,,,,,0,,,50,0
6802,note_on,7,0,4,,,,,,,,,0,,,50,66
6803,note_on,1,0,4,,,,,,,,,0,,,58,0
6810,note_on,0,0,4,,,,,,,,,0,,,66,0
6810,note_on,0,0,4,,,,,,,,,0,,,51,67
6810,control_change,55,0,5,,,,,,,,,0,64,0,,
6810,note_on,7,0,4,,,,,,,,,0,,,50,0
6812,note_on,2,0,4,,,,,,,,,0,,,58,67
6815,control_change,5,0,5,,,,,,,,,0,64,127,,
6817,note_on,0,0,4,,,,,,,,,0,,,51,67
6817,note_on,5,0,4,,,,,,,,,0,,,58,0
6818,note_on,1,0,4,,,,,,,,,0,,,51,0
6820,note_on,2,0,4,,,,,,,,,0,,,67,77
6825,note_on,0,0,4,,,,,,,,,0,,,58,67
6825,note_on,5,0,4,,,,,,,,,0,,,51,0
6832,note_on,7,0,4,,,,,,,,,0,,,51,68
6833,note_on,1,0,4,,,,,,,,,0,,,58,0
6840,note_on,0,0,4,,,,,,,,,0,,,58,68
6840,note_on,7,0,4,,,,,,,,,0,,,51,0
6847,note_on,7,0,4,,,,,,,,,0,,,51,69
6848,note_on,1,0,4,,,,,,,,,0,,,58,0
6855,note_on,7,0,4,,,,,,,,,0,,,51,0
6855,note_on,0,0,4,,,,,,,,,0,,,58,69
6862,note_on,7,0,4,,,,,,,,,0,,,51,70
6863,note_on,1,0,4,,,,,,,,,0,,,58,0
6870,note_on,0,0,4,,,,,,,,,0,,,67,80
6870,note_on,7,0,4,,,,,,,,,0,,,51,0
6870,note_on,0,0,4,,,,,,,,,0,,,58,70
6870,note_on,0,0,4,,,,,,,,,0,,,61,70
6870,control_change,55,0,5,,,,,,,,,0,64,0,,
6870,note_on,0,0,4,,,,,,,,,0,,,67,0
6875,control_change,5,0,5,,,,,,,,,0,64,127,,
6877,note_on,7,0,4,,,,,,,,,0,,,52,70
6878,note_on,1,0,4,,,,,,,,,0,,,58,0
6878,note_on,0,0,4,,,,,,,,,0,,,61,0
6885,note_on,7,0,4,,,,,,,,,0,,,52,0
6885,note_on,0,0,4,,,,,,,,,0,,,58,71
6885,note_on,0,0,4,,,,,,,,,0,,,61,71
6892,note_on,7,0,4,,,,,,,,,0,,,52,71
6893,note_on,1,0,4,,,,,,,,,0,,,58,0
6893,note_on,0,0,4,,,,,,,,,0,,,61,0
6900,note_on,7,0,4,,,,,,,,,0,,,52,0
6900,note_on,0,0,4,,,,,,,,,0,,,61,72
6900,note_on,0,0,4,,,,,,,,,0,,,58,72
6907,note_on,7,0,4,,,,,,,,,0,,,52,72
6908,note_on,1,0,4,,,,,,,,,0,,,58,0
6908,note_on,0,0,4,,,,,,,,,0,,,61,0
6915,note_on,0,0,4,,,,,,,,,0,,,58,73
6915,note_on,0,0,4,,,,,,,,,0,,,61,73
6915,note_on,7,0,4,,,,,,,,,0,,,52,0
6922,note_on,7,0,4,,,,,,,,,0,,,52,73
6923,note_on,0,0,4,,,,,,,,,0,,,61,0
6923,note_on,1,0,4,,,,,,,,,0,,,58,0
6930,note_on,0,0,1,,,,,,,,,0,,,70,84
6930,note_on,0,0,1,,,,,,,,,0,,,61,74
6930,note_on,3465,0,1,,,,,,,,,0,,,64,74
6930,control_change,55,0,5,,,,,,,,,0,64,0,,
6930,note_on,0,0,4,,,,,,,,,0,,,52,0
6930,note_on,7,0,4,,,,,,,,,0,,,67,0
6935,control_change,5,0,5,,,,,,,,,0,64,127,,
6937,note_on,7,0,1,,,,,,,,,0,,,55,74
6938,note_on,1,0,1,,,,,,,,,0,,,61,0
6938,note_on,0,0,1,,,,,,,,,0,,,64,0
6945,note_on,0,0,1,,,,,,,,,0,,,61,74
6945,note_on,0,0,1,,,,,,,,,0,,,64,74
6945,note_on,7,0,1,,,,,,,,,0,,,55,0
6952,note_on,7,0,1,,,,,,,,,0,,,55,75
6953,note_on,0,0,1,,,,,,,,,0,,,64,0
6953,note_on,1,0,1,,,,,,,,,0,,,61,0
6960,note_on,0,0,1,,,,,,,,,0,,,61,75
6960,note_on,7,0,1,,,,,,,,,0,,,55,0
6960,note_on,0,0,1,,,,,,,,,0,,,64,75
6967,note_on,7,0,1,,,,,,,,,0,,,55,76
6968,note_on,0,0,1,,,,,,,,,0,,,64,0
6968,note_on,1,0,1,,,,,,,,,0,,,61,0
6975,note_on,0,0,1,,,,,,,,,0,,,64,76
6975,note_on,0,0,1,,,,,,,,,0,,,61,76
6975,note_on,7,0,1,,,,,,,,,0,,,55,0
6982,note_on,7,0,1,,,,,,,,,0,,,55,77
6983,note_on,1,0,1,,,,,,,,,0,,,61,0
6983,note_on,0,0,1,,,,,,,,,0,,,64,0
6990,control_change,55,0,5,,,,,,,,,0,64,0,,
6990,note_on,7,0,1,,,,,,,,,0,,,70,0
6990,note_on,0,0,3,,,,,,,,,0,,,73,87
6990,note_on,0,0,3,,,,,,,,,0,,,64,77
6990,note_on,0,0,1,,,,,,,,,0,,,55,0
6990,note_on,4755,0,3,,,,,,,,,0,,,67,77
6995,control_change,5,0,5,,,,,,,,,0,64,127,,
6997,note_on,7,0,3,,,,,,,,,0,,,58,78
6998,note_on,1,0,3,,,,,,,,,0,,,64,0
6998,note_on,0,0,3,,,,,,,,,0,,,67,0
7005,note_on,0,0,3,,,,,,,,,0,,,64,78
7005,note_on,0,0,3,,,,,,,,,0,,,67,78
7005,note_on,7,0,3,,,,,,,,,0,,,58,0
7012,note_on,7,0,3,,,,,,,,,0,,,58,78
7013,note_on,1,0,3,,,,,,,,,0,,,64,0
7013,note_on,0,0,3,,,,,,,,,0,,,67,0
7020,note_on,0,0,3,,,,,,,,,0,,,67,79
7020,note_on,0,0,3,,,,,,,,,0,,,64,79
7020,note_on,7,0,3,,,,,,,,,0,,,58,0
7027,note_on,7,0,3,,,,,,,,,0,,,58,79
7028,note_on,0,0,3,,,,,,,,,0,,,67,0
7028,note_on,1,0,3,,,,,,,,,0,,,64,0
7035,note_on,0,0,3,,,,,,,,,0,,,67,80
7035,note_on,7,0,3,,,,,,,,,0,,,58,0
7035,note_on,0,0,3,,,,,,,,,0,,,64,80
7042,note_on,7,0,3,,,,,,,,,0,,,58,80
7043,note_on,0,0,3,,,,,,,,,0,,,67,0
7043,note_on,1,0,3,,,,,,,,,0,,,64,0
7050,note_on,7,0,3,,,,,,,,,0,,,73,0
7050,note_on,60,0,1,,,,,,,,,0,,,65,80
7050,note_on,0,0,3,,,,,,,,,0,,,58,0
7050,note_on,0,0,1,,,,,,,,,0,,,74,100
7050,control_change,0,0,5,,,,,,,,,0,64,127,,
7050,control_change,55,0,5,,,,,,,,,0,64,0,,
7057,note_on,7,0,1,,,,,,,,,0,,,58,80
7058,note_on,1,0,1,,,,,,,,,0,,,65,0
7065,note_on,0,0,1,,,,,,,,,0,,,65,80
7065,note_on,7,0,1,,,,,,,,,0,,,58,0
7072,note_on,7,0,1,,,,,,,,,0,,,58,79
7073,note_on,1,0,1,,,,,,,,,0,,,65,0
7080,note_on,0,0,1,,,,,,,,,0,,,65,79
7080,note_on,7,0,1,,,,,,,,,0,,,58,0
7087,note_on,7,0,1,,,,,,,,,0,,,58,78
7088,note_on,1,0,1,,,,,,,,,0,,,65,0
7095,note_on,7,0,1,,,,,,,,,0,,,58,0
7095,note_on,0,0,1,,,,,,,,,0,,,65,78
7102,note_on,7,0,1,,,,,,,,,0,,,58,77
7103,note_on,1,0,1,,,,,,,,,0,,,65,0
7105,control_change,55,0,5,,,,,,,,,0,64,0,,
7110,note_on,60,0,3,,,,,,,,,0,,,62,77
7110,note_on,7,0,1,,,,,,,,,0,,,58,0
7110,note_on,0,0,1,,,,,,,,,0,,,74,0
7110,control_change,5,0,5,,,,,,,,,0,64,127,,
7110,note_on,0,0,3,,,,,,,,,0,,,70,87
7117,note_on,7,0,3,,,,,,,,,0,,,53,77
7118,note_on,1,0,3,,,,,,,,,0,,,62,0
7125,note_on,7,0,3,,,,,,,,,0,,,53,0
7125,note_on,0,0,3,,,,,,,,,0,,,62,76
7132,note_on,7,0,3,,,,,,,,,0,,,53,76
7133,note_on,1,0,3,,,,,,,,,0,,,62,0
7140,note_on,7,0,3,,,,,,,,,0,,,53,0
7140,note_on,0,0,3,,,,,,,,,0,,,62,75
7147,note_on,7,0,3,,,,,,,,,0,,,53,75
7148,note_on,1,0,3,,,,,,,,,0,,,62,0
7155,note_on,0,0,3,,,,,,,,,0,,,62,74
7155,note_on,7,0,3,,,,,,,,,0,,,53,0
7162,note_on,7,0,3,,,,,,,,,0,,,53,74
7163,note_on,1,0,3,,,,,,,,,0,,,62,0
7165,control_change,55,0,5,,,,,,,,,0,64,0,,
7170,note_on,0,0,3,,,,,,,,,0,,,70,0
7170,control_change,5,0,5,,,,,,,,,0,64,127,,
7170,note_on,240,0,4,,,,,,,,,0,,,58,73
7170,note_on,7,0,3,,,,,,,,,0,,,53,0
7170,note_on,0,0,4,,,,,,,,,0,,,65,83
7177,note_on,7,0,4,,,,,,,,,0,,,50,73
7178,note_on,1,0,4,,,,,,,,,0,,,58,0
7185,note_on,0,0,4,,,,,,,,,0,,,58,73
7185,note_on,7,0,4,,,,,,,,,0,,,50,0
7192,note_on,7,0,4,,,,,,,,,0,,,50,72
7193,note_on,1,0,4,,,,,,,,,0,,,58,0
7200,note_on,7,0,4,,,,,,,,,0,,,50,0
7200,note_on,0,0,4,,,,,,,,,0,,,58,72
7207,note_on,7,0,4,,,,,,,,,0,,,50,71
7208,note_on,1,0,4,,,,,,,,,0,,,58,0
7215,note_on,7,0,4,,,,,,,,,0,,,50,0
7215,note_on,0,0,4,,,,,,,,,0,,,58,71
7222,note_on,7,0,4,,,,,,,,,0,,,50,70
7223,note_on,1,0,4,,,,,,,,,0,,,58,0
7225,control_change,55,0,5,,,,,,,,,0,64,0,,
7230,control_change,5,0,5,,,,,,,,,0,64,127,,
7230,note_on,7,0,4,,,,,,,,,0,,,50,0
7230,note_on,0,0,4,,,,,,,,,0,,,59,70
7237,note_on,7,0,4,,,,,,,,,0,,,50,70
7238,note_on,1,0,4,,,,,,,,,0,,,59,0
7245,note_on,0,0,4,,,,,,,,,0,,,59,69
7245,note_on,7,0,4,,,,,,,,,0,,,50,0
7252,note_on,7,0,4,,,,,,,,,0,,,50,69
7253,note_on,1,0,4,,,,,,,,,0,,,59,0
7260,note_on,0,0,4,,,,,,,,,0,,,59,68
7260,note_on,7,0,4,,,,,,,,,0,,,50,0
7267,note_on,7,0,4,,,,,,,,,0,,,50,68
7268,note_on,1,0,4,,,,,,,,,0,,,59,0
7275,note_on,7,0,4,,,,,,,,,0,,,50,0
7275,note_on,0,0,4,,,,,,,,,0,,,59,67
7282,note_on,7,0,4,,,,,,,,,0,,,50,67
7283,note_on,1,0,4,,,,,,,,,0,,,59,0
7285,control_change,55,0,5,,,,,,,,,0,64,0,,
7290,note_on,0,0,4,,,,,,,,,0,,,65,0
7290,note_on,0,0,4,,,,,,,,,0,,,60,66
7290,note_on,0,0,4,,,,,,,,,0,,,65,76
7290,control_change,5,0,5,,,,,,,,,0,64,127,,
7290,note_on,7,0,4,,,,,,,,,0,,,50,0
7297,note_on,7,0,4,,,,,,,,,0,,,51,66
7298,note_on,1,0,4,,,,,,,,,0,,,60,0
7305,note_on,0,0,4,,,,,,,,,0,,,60,66
7305,note_on,7,0,4,,,,,,,,,0,,,51,0
7312,note_on,7,0,4,,,,,,,,,0,,,51,65
7313,note_on,1,0,4,,,,,,,,,0,,,60,0
7320,note_on,7,0,4,,,,,,,,,0,,,51,0
7320,note_on,0,0,4,,,,,,,,,0,,,60,65
7327,note_on,7,0,4,,,,,,,,,0,,,51,64
7328,note_on,1,0,4,,,,,,,,,0,,,60,0
7335,note_on,0,0,4,,,,,,,,,0,,,60,64
7335,note_on,7,0,4,,,,,,,,,0,,,51,0
7342,note_on,7,0,4,,,,,,,,,0,,,51,63
7343,note_on,1,0,4,,,,,,,,,0,,,60,0
7345,control_change,55,0,5,,,,,,,,,0,64,0,,
7350,note_on,0,0,4,,,,,,,,,0,,,57,63
7350,note_on,7,0,4,,,,,,,,,0,,,51,0
7350,control_change,5,0,5,,,,,,,,,0,64,127,,
7357,note_on,7,0,4,,,,,,,,,0,,,48,62
7358,note_on,1,0,4,,,,,,,,,0,,,57,0
7365,note_on,7,0,4,,,,,,,,,0,,,48,0
7365,note_on,0,0,4,,,,,,,,,0,,,57,62
7372,note_on,7,0,4,,,,,,,,,0,,,48,62
7373,note_on,1,0,4,,,,,,,,,0,,,57,0
7380,note_on,7,0,4,,,,,,,,,0,,,48,0
7380,note_on,0,0,4,,,,,,,,,0,,,57,61
7387,note_on,7,0,4,,,,,,,,,0,,,48,61
7388,note_on,1,0,4,,,,,,,,,0,,,57,0
7395,note_on,0,0,4,,,,,,,,,0,,,57,60
7395,note_on,7,0,4,,,,,,,,,0,,,48,0
7402,note_on,7,0,4,,,,,,,,,0,,,48,60
7403,note_on,1,0,4,,,,,,,,,0,,,57,0
7405,control_change,55,0,5,,,,,,,,,0,64,0,,
7410,note_on,7,0,4,,,,,,,,,0,,,48,0
7410,note_on,0,0,4,,,,,,,,,0,,,58,70
7410,note_on,0,0,4,,,,,,,,,0,,,50,60
7410,note_on,0,0,4,,,,,,,,,0,,,46,70
7410,note_on,0,0,4,,,,,,,,,0,,,65,0
7410,control_change,5,0,5,,,,,,,,,0,64,0,,
7415,control_change,5,0,5,,,,,,,,,0,64,127,,
7417,note_on,7,0,4,,,,,,,,,0,,,53,60
7418,note_on,1,0,4,,,,,,,,,0,,,50,0
7425,note_on,0,0,4,,,,,,,,,0,,,50,60
7425,note_on,7,0,4,,,,,,,,,0,,,53,0
7432,note_on,7,0,4,,,,,,,,,0,,,53,60
7433,note_on,1,0,4,,,,,,,,,0,,,50,0
7440,note_on,7,0,4,,,,,,,,,0,,,53,0
7440,note_on,0,0,4,,,,,,,,,0,,,50,60
7447,note_on,7,0,4,,,,,,,,,0,,,53,60
7448,note_on,1,0,4,,,,,,,,,0,,,50,0
7455,note_on,7,0,4,,,,,,,,,0,,,53,0
7455,note_on,0,0,4,,,,,,,,,0,,,50,60
7462,note_on,7,0,4,,,,,,,,,0,,,53,60
7463,note_on,1,0,4,,,,,,,,,0,,,50,0
7470,note_on,7,0,4,,,,,,,,,0,,,53,0
7470,control_change,55,0,5,,,,,,,,,0,64,0,,
7470,note_on,0,0,4,,,,,,,,,0,,,50,60
7475,control_change,5,0,5,,,,,,,,,0,64,127,,
7477,note_on,7,0,4,,,,,,,,,0,,,53,60
7478,note_on,1,0,4,,,,,,,,,0,,,50,0
7485,note_on,0,0,4,,,,,,,,,0,,,50,60
7485,note_on,7,0,4,,,,,,,,,0,,,53,0
7492,note_on,7,0,4,,,,,,,,,0,,,53,60
7493,note_on,1,0,4,,,,,,,,,0,,,50,0
7500,note_on,0,0,4,,,,,,,,,0,,,50,60
7500,note_on,7,0,4,,,,,,,,,0,,,53,0
7507,note_on,7,0,4,,,,,,,,,0,,,53,60
7508,note_on,1,0,4,,,,,,,,,0,,,50,0
7515,note_on,7,0,4,,,,,,,,,0,,,53,0
7515,note_on,0,0,4,,,,,,,,,0,,,50,60
7522,note_on,7,0,4,,,,,,,,,0,,,53,60
7523,note_on,1,0,4,,,,,,,,,0,,,50,0
7530,note_on,0,0,4,,,,,,,,,0,,,50,60
7530,note_on,7,0,4,,,,,,,,,0,,,53,0
7530,control_change,55,0,5,,,,,,,,,0,64,0,,
7535,control_change,5,0,5,,,,,,,,,0,64,127,,
7537,note_on,7,0,4,,,,,,,,,0,,,53,60
7538,note_on,1,0,4,,,,,,,,,0,,,50,0
7545,note_on,7,0,4,,,,,,,,,0,,,53,0
7545,note_on,0,0,4,,,,,,,,,0,,,50,60
7552,note_on,7,0,4,,,,,,,,,0,,,53,60
7553,note_on,1,0,4,,,,,,,,,0,,,50,0
7560,note_on,0,0,4,,,,,,,,,0,,,50,60
7560,note_on,7,0,4,,,,,,,,,0,,,53,0
7567,note_on,7,0,4,,,,,,,,,0,,,53,60
7568,note_on,1,0,4,,,,,,,,,0,,,50,0
7575,note_on,0,0,4,,,,,,,,,0,,,50,60
7575,note_on,7,0,4,,,,,,,,,0,,,53,0
7582,note_on,7,0,4,,,,,,,,,0,,,53,60
7583,note_on,1,0,4,,,,,,,,,0,,,50,0
7590,note_on,7,0,4,,,,,,,,,0,,,46,0
7590,control_change,55,0,5,,,,,,,,,0,64,0,,
7590,note_on,0,0,4,,,,,,,,,0,,,56,60
7590,note_on,0,0,4,,,,,,,,,0,,,53,0
7590,note_on,0,0,4,,,,,,,,,0,,,46,70
7590,note_on,0,0,4,,,,,,,,,0,,,58,0
7595,note_on,5,0,4,,,,,,,,,0,,,63,70
7595,control_change,5,0,5,,,,,,,,,0,64,127,,
7597,note_on,2,0,4,,,,,,,,,0,,,53,60
7598,note_on,1,0,4,,,,,,,,,0,,,56,0
7605,note_on,0,0,4,,,,,,,,,0,,,56,60
7605,note_on,7,0,4,,,,,,,,,0,,,53,0
7612,note_on,7,0,4,,,,,,,,,0,,,53,60
7613,note_on,1,0,4,,,,,,,,,0,,,56,0
7620,note_on,7,0,4,,,,,,,,,0,,,53,0
7620,note_on,0,0,4,,,,,,,,,0,,,56,60
7627,note_on,7,0,4,,,,,,,,,0,,,53,60
7628,note_on,1,0,4,,,,,,,,,0,,,56,0
7635,note_on,7,0,4,,,,,,,,,0,,,53,0
7635,note_on,0,0,4,,,,,,,,,0,,,56,60
7642,note_on,7,0,4,,,,,,,,,0,,,53,60
7643,note_on,1,0,4,,,,,,,,,0,,,56,0
7650,note_on,0,0,4,,,,,,,,,0,,,55,60
7650,control_change,55,0,5,,,,,,,,,0,64,0,,
7650,note_on,0,0,4,,,,,,,,,0,,,53,0
7650,note_on,0,0,4,,,,,,,,,0,,,63,0
7650,note_on,7,0,4,,,,,,,,,0,,,46,0
7650,note_on,0,0,4,,,,,,,,,0,,,46,70
7655,note_on,5,0,4,,,,,,,,,0,,,63,70
7655,control_change,5,0,5,,,,,,,,,0,64,127,,
7657,note_on,2,0,4,,,,,,,,,0,,,51,60
7658,note_on,1,0,4,,,,,,,,,0,,,55,0
7665,note_on,0,0,4,,,,,,,,,0,,,55,60
7665,note_on,7,0,4,,,,,,,,,0,,,51,0
7672,note_on,7,0,4,,,,,,,,,0,,,51,60
7673,note_on,1,0,4,,,,,,,,,0,,,55,0
7680,note_on,7,0,4,,,,,,,,,0,,,51,0
7680,note_on,0,0,4,,,,,,,,,0,,,55,60
7687,note_on,7,0,4,,,,,,,,,0,,,51,60
7688,note_on,1,0,4,,,,,,,,,0,,,55,0
7695,note_on,7,0,4,,,,,,,,,0,,,51,0
7695,note_on,0,0,4,,,,,,,,,0,,,55,60
7702,note_on,7,0,4,,,,,,,,,0,,,51,60
7703,note_on,1,0,4,,,,,,,,,0,,,55,0
7710,control_change,55,0,5,,,,,,,,,0,64,0,,
7710,note_on,7,0,4,,,,,,,,,0,,,46,0
7710,note_on,0,0,4,,,,,,,,,0,,,46,70
7710,note_on,0,0,4,,,,,,,,,0,,,63,0
7710,note_on,0,0,4,,,,,,,,,0,,,54,60
7710,note_on,0,0,4,,,,,,,,,0,,,51,0
7715,control_change,5,0,5,,,,,,,,,0,64,127,,
7715,note_on,5,0,4,,,,,,,,,0,,,63,70
7717,note_on,2,0,4,,,,,,,,,0,,,49,60
7718,note_on,1,0,4,,,,,,,,,0,,,54,0
7725,note_on,0,0,4,,,,,,,,,0,,,54,60
7725,note_on,7,0,4,,,,,,,,,0,,,49,0
7732,note_on,7,0,4,,,,,,,,,0,,,49,60
7733,note_on,1,0,4,,,,,,,,,0,,,54,0
7740,note_on,0,0,4,,,,,,,,,0,,,54,60
7740,note_on,7,0,4,,,,,,,,,0,,,49,0
7747,note_on,7,0,4,,,,,,,,,0,,,49,60
7748,note_on,1,0,4,,,,,,,,,0,,,54,0
7755,note_on,0,0,4,,,,,,,,,0,,,54,60
7755,note_on,7,0,4,,,,,,,,,0,,,49,0
7762,note_on,7,0,4,,,,,,,,,0,,,49,60
7763,note_on,1,0,4,,,,,,,,,0,,,54,0
7770,control_change,55,0,5,,,,,,,,,0,64,0,,
7770,control_change,0,0,5,,,,,,,,,0,64,127,,
7770,note_on,0,0,4,,,,,,,,,0,,,45,90
7770,note_on,0,0,4,,,,,,,,,0,,,49,0
7770,note_on,0,0,4,,,,,,,,,0,,,63,0
7770,note_on,7,0,4,,,,,,,,,0,,,46,0
7770,note_on,0,0,4,,,,,,,,,0,,,54,70
7775,note_on,5,0,4,,,,,,,,,0,,,63,90
7777,note_on,2,0,4,,,,,,,,,0,,,48,60
7785,note_on,8,0,4,,,,,,,,,0,,,48,0
7785,note_on,0,0,4,,,,,,,,,0,,,54,60
7792,note_on,7,0,4,,,,,,,,,0,,,48,60
7793,note_on,1,0,4,,,,,,,,,0,,,54,0
7800,note_on,7,0,4,,,,,,,,,0,,,48,0
7800,note_on,0,0,4,,,,,,,,,0,,,54,60
7807,note_on,7,0,4,,,,,,,,,0,,,48,60
7808,note_on,1,0,4,,,,,,,,,0,,,54,0
7815,note_on,7,0,4,,,,,,,,,0,,,48,0
7815,note_on,0,0,4,,,,,,,,,0,,,54,60
7822,note_on,7,0,4,,,,,,,,,0,,,48,60
7823,note_on,1,0,4,,,,,,,,,0,,,54,0
7825,control_change,55,0,5,,,,,,,,,0,64,0,,
7830,control_change,5,0,5,,,,,,,,,0,64,127,,
7830,note_on,0,0,4,,,,,,,,,0,,,48,0
7830,note_on,0,0,4,,,,,,,,,0,,,53,70
7830,note_on,7,0,4,,,,,,,,,0,,,54,0
7837,note_on,7,0,4,,,,,,,,,0,,,48,60
7845,note_on,0,0,4,,,,,,,,,0,,,53,60
7845,note_on,8,0,4,,,,,,,,,0,,,48,0
7852,note_on,7,0,4,,,,,,,,,0,,,48,60
7853,note_on,1,0,4,,,,,,,,,0,,,53,0
7860,note_on,7,0,4,,,,,,,,,0,,,48,0
7860,note_on,0,0,4,,,,,,,,,0,,,53,60
7867,note_on,7,0,4,,,,,,,,,0,,,48,60
7868,note_on,1,0,4,,,,,,,,,0,,,53,0
7875,note_on,0,0,4,,,,,,,,,0,,,53,60
7875,note_on,7,0,4,,,,,,,,,0,,,48,0
7882,note_on,7,0,4,,,,,,,,,0,,,48,60
7883,note_on,1,0,4,,,,,,,,,0,,,53,0
7885,control_change,55,0,5,,,,,,,,,0,64,0,,
7890,note_on,0,0,4,,,,,,,,,0,,,45,0
7890,note_on,0,0,4,,,,,,,,,0,,,63,0
7890,note_on,0,0,4,,,,,,,,,0,,,53,60
7890,note_on,0,0,4,,,,,,,,,0,,,48,0
7890,note_on,0,0,4,,,,,,,,,0,,,46,70
7890,note_on,7,0,4,,,,,,,,,0,,,53,0
7890,control_change,5,0,5,,,,,,,,,0,64,127,,
7895,note_on,5,0,4,,,,,,,,,0,,,65,70
7897,note_on,2,0,4,,,,,,,,,0,,,50,60
7898,note_on,1,0,4,,,,,,,,,0,,,53,0
7905,note_on,0,0,4,,,,,,,,,0,,,53,60
7905,note_on,7,0,4,,,,,,,,,0,,,50,0
7912,note_on,7,0,4,,,,,,,,,0,,,50,60
7913,note_on,1,0,4,,,,,,,,,0,,,53,0
7920,note_on,7,0,4,,,,,,,,,0,,,50,0
7920,note_on,0,0,4,,,,,,,,,0,,,53,60
7927,note_on,7,0,4,,,,,,,,,0,,,50,60
7928,note_on,1,0,4,,,,,,,,,0,,,53,0
7935,note_on,7,0,4,,,,,,,,,0,,,50,0
7935,note_on,0,0,4,,,,,,,,,0,,,53,60
7942,note_on,7,0,4,,,,,,,,,0,,,50,60
7943,note_on,1,0,4,,,,,,,,,0,,,53,0
7945,control_change,55,0,5,,,,,,,,,0,64,0,,
7950,note_on,0,0,4,,,,,,,,,0,,,50,0
7950,control_change,5,0,5,,,,,,,,,0,64,127,,
7950,note_on,0,0,4,,,,,,,,,0,,,65,0
7950,note_on,0,0,4,,,,,,,,,0,,,56,60
7950,note_on,0,0,4,,,,,,,,,0,,,46,70
7950,note_on,7,0,4,,,,,,,,,0,,,46,0
7955,note_on,5,0,4,,,,,,,,,0,,,53,60
7955,note_on,0,0,4,,,,,,,,,0,,,62,70
7957,note_on,2,0,4,,,,,,,,,0,,,53,60
7958,note_on,1,0,4,,,,,,,,,0,,,56,0
7965,note_on,0,0,4,,,,,,,,,0,,,56,60
7965,note_on,7,0,4,,,,,,,,,0,,,53,0
7972,note_on,7,0,4,,,,,,,,,0,,,53,60
7973,note_on,1,0,4,,,,,,,,,0,,,56,0
7980,note_on,7,0,4,,,,,,,,,0,,,53,0
7980,note_on,0,0,4,,,,,,,,,0,,,56,60
7987,note_on,7,0,4,,,,,,,,,0,,,53,60
7988,note_on,1,0,4,,,,,,,,,0,,,56,0
7995,note_on,7,0,4,,,,,,,,,0,,,53,0
7995,note_on,0,0,4,,,,,,,,,0,,,56,60
8002,note_on,7,0,4,,,,,,,,,0,,,53,60
8003,note_on,1,0,4,,,,,,,,,0,,,56,0
8005,control_change,55,0,5,,,,,,,,,0,64,0,,
8010,control_change,5,0,5,,,,,,,,,0,64,127,,
8010,note_on,0,0,4,,,,,,,,,0,,,53,0
8010,note_on,0,0,4,,,,,,,,,0,,,53,0
8010,note_on,0,0,4,,,,,,,,,0,,,62,0
8010,note_on,7,0,4,,,,,,,,,0,,,46,0
8010,note_on,0,0,4,,,,,,,,,0,,,46,70
8010,note_on,0,0,4,,,,,,,,,0,,,55,60
8015,note_on,5,0,4,,,,,,,,,0,,,63,70
8017,note_on,2,0,4,,,,,,,,,0,,,51,60
8018,note_on,1,0,4,,,,,,,,,0,,,55,0
8025,note_on,0,0,4,,,,,,,,,0,,,55,60
8025,note_on,7,0,4,,,,,,,,,0,,,51,0
8032,note_on,7,0,4,,,,,,,,,0,,,51,60
8033,note_on,1,0,4,,,,,,,,,0,,,55,0
8040,note_on,0,0,4,,,,,,,,,0,,,55,60
8040,note_on,7,0,4,,,,,,,,,0,,,51,0
8047,note_on,7,0,4,,,,,,,,,0,,,51,60
8048,note_on,1,0,4,,,,,,,,,0,,,55,0
8055,note_on,0,0,4,,,,,,,,,0,,,55,60
8055,note_on,7,0,4,,,,,,,,,0,,,51,0
8062,note_on,7,0,4,,,,,,,,,0,,,51,60
8063,note_on,1,0,4,,,,,,,,,0,,,55,0
8065,control_change,55,0,5,,,,,,,,,0,64,0,,
8070,note_on,0,0,4,,,,,,,,,0,,,46,70
8070,note_on,0,0,4,,,,,,,,,0,,,54,60
8070,note_on,0,0,4,,,,,,,,,0,,,51,0
8070,note_on,7,0,4,,,,,,,,,0,,,46,0
8070,note_on,0,0,4,,,,,,,,,0,,,63,0
8070,control_change,5,0,5,,,,,,,,,0,64,127,,
8075,note_on,5,0,4,,,,,,,,,0,,,63,70
8077,note_on,2,0,4,,,,,,,,,0,,,49,60
8078,note_on,1,0,4,,,,,,,,,0,,,54,0
8085,note_on,7,0,4,,,,,,,,,0,,,49,0
8085,note_on,0,0,4,,,,,,,,,0,,,54,60
8092,note_on,7,0,4,,,,,,,,,0,,,49,60
8093,note_on,1,0,4,,,,,,,,,0,,,54,0
8100,note_on,0,0,4,,,,,,,,,0,,,54,60
8100,note_on,7,0,4,,,,,,,,,0,,,49,0
8107,note_on,7,0,4,,,,,,,,,0,,,49,60
8108,note_on,1,0,4,,,,,,,,,0,,,54,0
8115,note_on,0,0,4,,,,,,,,,0,,,54,60
8115,note_on,7,0,4,,,,,,,,,0,,,49,0
8122,note_on,7,0,4,,,,,,,,,0,,,49,60
8123,note_on,1,0,4,,,,,,,,,0,,,54,0
8125,control_change,55,0,5,,,,,,,,,0,64,0,,
8130,note_on,0,0,4,,,,,,,,,0,,,63,0
8130,note_on,0,0,4,,,,,,,,,0,,,49,0
8130,note_on,0,0,4,,,,,,,,,0,,,45,70
8130,note_on,7,0,4,,,,,,,,,0,,,46,0
8130,note_on,0,0,4,,,,,,,,,0,,,54,70
8130,marker,2880,1,0,,,,,,,,,,,,,
8130,control_change,5,0,5,,,,,,,,,0,64,0,,
8135,control_change,5,0,5,,,,,,,,,0,64,127,,
8135,note_on,5,0,4,,,,,,,,,0,,,63,70
8137,note_on,2,0,4,,,,,,,,,0,,,48,60
8145,note_on,0,0,4,,,,,,,,,0,,,54,60
8145,note_on,8,0,4,,,,,,,,,0,,,48,0
8152,note_on,7,0,4,,,,,,,,,0,,,48,60
8153,note_on,1,0,4,,,,,,,,,0,,,54,0
8160,note_on,0,0,4,,,,,,,,,0,,,54,60
8160,note_on,7,0,4,,,,,,,,,0,,,48,0
8167,note_on,7,0,4,,,,,,,,,0,,,48,60
8168,note_on,1,0,4,,,,,,,,,0,,,54,0
8175,note_on,0,0,4,,,,,,,,,0,,,54,60
8175,note_on,7,0,4,,,,,,,,,0,,,48,0
8182,note_on,7,0,4,,,,,,,,,0,,,48,60
8183,note_on,1,0,4,,,,,,,,,0,,,54,0
8190,control_change,55,0,5,,,,,,,,,0,64,0,,
8190,note_on,0,0,4,,,,,,,,,0,,,48,0
8190,note_on,0,0,4,,,,,,,,,0,,,53,70
8190,note_on,7,0,4,,,,,,,,,0,,,54,0
8195,control_change,5,0,5,,,,,,,,,0,64,127,,
8197,note_on,7,0,4,,,,,,,,,0,,,48,60
8205,note_on,8,0,4,,,,,,,,,0,,,48,0
8205,note_on,0,0,4,,,,,,,,,0,,,53,60
8212,note_on,7,0,4,,,,,,,,,0,,,48,60
8213,note_on,1,0,4,,,,,,,,,0,,,53,0
8220,note_on,7,0,4,,,,,,,,,0,,,48,0
8220,note_on,0,0,4,,,,,,,,,0,,,53,60
8227,note_on,7,0,4,,,,,,,,,0,,,48,60
8228,note_on,1,0,4,,,,,,,,,0,,,53,0
8235,note_on,0,0,4,,,,,,,,,0,,,53,60
8235,note_on,7,0,4,,,,,,,,,0,,,48,0
8242,note_on,7,0,4,,,,,,,,,0,,,48,60
8243,note_on,1,0,4,,,,,,,,,0,,,53,0
8250,note_on,0,0,4,,,,,,,,,0,,,63,0
8250,note_on,0,0,4,,,,,,,,,0,,,53,60
8250,note_on,0,0,4,,,,,,,,,0,,,48,0
8250,note_on,7,0,4,,,,,,,,,0,,,53,0
8250,note_on,0,0,4,,,,,,,,,0,,,45,0
8250,set_tempo,120,1,0,,,,,,1492909,,,,,,,
8250,control_change,55,0,5,,,,,,,,,0,64,0,,
8250,note_on,0,0,4,,,,,,,,,0,,,46,70
8255,control_change,5,0,5,,,,,,,,,0,64,127,,
8255,note_on,5,0,4,,,,,,,,,0,,,62,70
8260,note_on,0,0,4,,,,,,,,,0,,,50,60
8260,note_on,5,0,4,,,,,,,,,0,,,53,0
8270,note_on,0,0,4,,,,,,,,,0,,,53,60
8270,note_on,10,0,4,,,,,,,,,0,,,50,0
8275,set_tempo,25,1,0,,,,,,1481847,,,,,,,
8280,note_on,10,0,4,,,,,,,,,0,,,53,0
8280,note_on,0,0,4,,,,,,,,,0,,,50,61
8290,note_on,10,0,4,,,,,,,,,0,,,50,0
8290,note_on,0,0,4,,,,,,,,,0,,,53,61
8300,note_on,10,0,4,,,,,,,,,0,,,53,0
8300,note_on,0,0,4,,,,,,,,,0,,,50,62
8301,set_tempo,26,1,0,,,,,,1470949,,,,,,,
8310,note_on,0,0,4,,,,,,,,,0,,,46,0
8310,note_on,10,0,4,,,,,,,,,0,,,50,0
8310,note_on,0,0,4,,,,,,,,,0,,,62,0
8310,note_on,0,0,4,,,,,,,,,0,,,58,82
8310,note_on,0,0,4,,,,,,,,,0,,,56,82
8310,note_on,0,0,4,,,,,,,,,0,,,53,62
8310,control_change,55,0,5,,,,,,,,,0,64,0,,
8315,control_change,5,0,5,,,,,,,,,0,64,127,,
8320,note_on,0,0,4,,,,,,,,,0,,,50,63
8320,note_on,10,0,4,,,,,,,,,0,,,53,0
8327,set_tempo,26,1,0,,,,,,1460209,,,,,,,
8330,note_on,0,0,4,,,,,,,,,0,,,53,63
8330,note_on,10,0,4,,,,,,,,,0,,,50,0
8340,note_on,0,0,4,,,,,,,,,0,,,50,63
8340,note_on,10,0,4,,,,,,,,,0,,,53,0
8348,set_tempo,21,1,0,,,,,,1449626,,,,,,,
8350,note_on,10,0,4,,,,,,,,,0,,,50,0
8350,note_on,0,0,4,,,,,,,,,0,,,53,64
8360,note_on,0,0,4,,,,,,,,,0,,,50,64
8360,note_on,10,0,4,,,,,,,,,0,,,53,0
8370,note_on,0,0,4,,,,,,,,,0,,,58,75
8370,note_on,10,0,4,,,,,,,,,0,,,50,0
8370,note_on,0,0,4,,,,,,,,,0,,,58,0
8370,note_on,0,0,4,,,,,,,,,0,,,56,0
8370,control_change,55,0,5,,,,,,,,,0,64,0,,
8370,note_on,0,0,4,,,,,,,,,0,,,55,65
8374,set_tempo,26,1,0,,,,,,1439194,,,,,,,
8375,control_change,5,0,5,,,,,,,,,0,64,127,,
8380,note_on,10,0,4,,,,,,,,,0,,,55,0
8380,note_on,0,0,4,,,,,,,,,0,,,51,65
8390,note_on,10,0,4,,,,,,,,,0,,,51,0
8390,note_on,0,0,4,,,,,,,,,0,,,55,66
8400,note_on,10,0,4,,,,,,,,,0,,,55,0
8400,note_on,0,0,4,,,,,,,,,0,,,51,66
8400,set_tempo,26,1,0,,,,,,1428912,,,,,,,
8410,note_on,0,0,4,,,,,,,,,0,,,55,66
8410,note_on,10,0,4,,,,,,,,,0,,,51,0
8420,note_on,10,0,4,,,,,,,,,0,,,55,0
8420,note_on,0,0,4,,,,,,,,,0,,,51,67
8425,set_tempo,25,1,0,,,,,,1418775,,,,,,,
8430,note_on,0,0,4,,,,,,,,,0,,,60,87
8430,note_on,0,0,4,,,,,,,,,0,,,58,87
8430,control_change,55,0,5,,,,,,,,,0,64,0,,
8430,note_on,0,0,4,,,,,,,,,0,,,55,67
8430,note_on,10,0,4,,,,,,,,,0,,,51,0
8430,note_on,0,0,4,,,,,,,,,0,,,58,0
8435,control_change,5,0,5,,,,,,,,,0,64,127,,
8440,note_on,0,0,4,,,,,,,,,0,,,52,68
8440,note_on,10,0,4,,,,,,,,,0,,,55,0
8447,set_tempo,22,1,0,,,,,,1408781,,,,,,,
8450,note_on,10,0,4,,,,,,,,,0,,,52,0
8450,note_on,0,0,4,,,,,,,,,0,,,55,68
8460,note_on,10,0,4,,,,,,,,,0,,,55,0
8460,note_on,0,0,4,,,,,,,,,0,,,52,69
8470,note_on,0,0,4,,,,,,,,,0,,,55,69
8470,note_on,10,0,4,,,,,,,,,0,,,52,0
8472,set_tempo,25,1,0,,,,,,1398927,,,,,,,
8480,note_on,0,0,4,,,,,,,,,0,,,52,69
8480,note_on,10,0,4,,,,,,,,,0,,,55,0
8490,note_on,10,0,4,,,,,,,,,0,,,52,0
8490,note_on,0,0,4,,,,,,,,,0,,,57,70
8490,note_on,0,0,4,,,,,,,,,0,,,58,0
8490,note_on,0,0,4,,,,,,,,,0,,,60,0
8490,note_on,0,0,4,,,,,,,,,0,,,60,80
8490,control_change,0,0,5,,,,,,,,,0,64,127,,
8490,control_change,55,0,5,,,,,,,,,0,64,0,,
8498,set_tempo,26,1,0,,,,,,1389210,,,,,,,
8500,note_on,10,0,4,,,,,,,,,0,,,57,0
8500,note_on,0,0,4,,,,,,,,,0,,,53,70
8510,note_on,10,0,4,,,,,,,,,0,,,53,0
8510,note_on,0,0,4,,,,,,,,,0,,,57,71
8520,note_on,0,0,4,,,,,,,,,0,,,53,71
8520,note_on,10,0,4,,,,,,,,,0,,,57,0
8520,set_tempo,22,1,0,,,,,,1379628,,,,,,,
8530,note_on,10,0,4,,,,,,,,,0,,,53,0
8530,note_on,0,0,4,,,,,,,,,0,,,57,72
8540,note_on,10,0,4,,,,,,,,,0,,,57,0
8540,note_on,0,0,4,,,,,,,,,0,,,53,72
8545,set_tempo,25,1,0,,,,,,1370176,,,,,,,
8545,control_change,55,0,5,,,,,,,,,0,64,0,,
8550,note_on,1440,0,1,,,,,,,,,0,,,60,93
8550,note_on,0,0,1,,,,,,,,,0,,,62,93
8550,note_on,10,0,4,,,,,,,,,0,,,53,0
8550,note_on,0,0,4,,,,,,,,,0,,,60,0
8550,control_change,5,0,5,,,,,,,,,0,64,127,,
8560,note_on,10,0,1,,,,,,,,,0,,,54,73
8570,note_on,0,0,1,,,,,,,,,0,,,57,73
8570,note_on,10,0,1,,,,,,,,,0,,,54,0
8571,set_tempo,26,1,0,,,,,,1360853,,,,,,,
8580,note_on,10,0,1,,,,,,,,,0,,,57,0
8580,note_on,0,0,1,,,,,,,,,0,,,54,74
8590,note_on,10,0,1,,,,,,,,,0,,,54,0
8590,note_on,0,0,1,,,,,,,,,0,,,57,74
8597,set_tempo,26,1,0,,,,,,1351656,,,,,,,
8600,note_on,10,0,1,,,,,,,,,0,,,57,0
8600,note_on,0,0,1,,,,,,,,,0,,,54,75
8605,control_change,55,0,5,,,,,,,,,0,64,0,,
8610,note_on,10,0,1,,,,,,,,,0,,,54,0
8610,note_on,60,0,4,,,,,,,,,0,,,58,75
8610,control_change,5,0,5,,,,,,,,,0,64,127,,
8610,note_on,0,0,4,,,,,,,,,0,,,62,85
8610,note_on,0,0,1,,,,,,,,,0,,,60,0
8610,note_on,0,0,1,,,,,,,,,0,,,62,0
8618,set_tempo,21,1,0,,,,,,1342582,,,,,,,
8620,note_on,10,0,4,,,,,,,,,0,,,58,0
8620,note_on,0,0,4,,,,,,,,,0,,,55,76
8630,note_on,0,0,4,,,,,,,,,0,,,58,76
8630,note_on,10,0,4,,,,,,,,,0,,,55,0
8640,note_on,0,0,4,,,,,,,,,0,,,55,76
8640,note_on,10,0,4,,,,,,,,,0,,,58,0
8644,set_tempo,26,1,0,,,,,,1333630,,,,,,,
8650,note_on,0,0,4,,,,,,,,,0,,,58,77
8650,note_on,10,0,4,,,,,,,,,0,,,55,0
8660,note_on,10,0,4,,,,,,,,,0,,,58,0
8660,note_on,0,0,4,,,,,,,,,0,,,55,77
8665,control_change,55,0,5,,,,,,,,,0,64,0,,
8670,note_on,0,0,4,,,,,,,,,0,,,62,0
8670,note_on,10,0,4,,,,,,,,,0,,,55,0
8670,note_on,0,0,1,,,,,,,,,0,,,65,98
8670,set_tempo,26,1,0,,,,,,1324796,,,,,,,
8670,note_on,60,0,1,,,,,,,,,0,,,60,78
8670,note_on,0,0,1,,,,,,,,,0,,,64,98
8670,control_change,5,0,5,,,,,,,,,0,64,127,,
8680,note_on,10,0,1,,,,,,,,,0,,,60,0
8680,note_on,0,0,1,,,,,,,,,0,,,57,78
8690,note_on,0,0,1,,,,,,,,,0,,,60,79
8690,note_on,10,0,1,,,,,,,,,0,,,57,0
8691,set_tempo,21,1,0,,,,,,1316078,,,,,,,
8700,note_on,10,0,1,,,,,,,,,0,,,60,0
8700,note_on,0,0,1,,,,,,,,,0,,,57,79
8710,note_on,10,0,1,,,,,,,,,0,,,57,0
8710,note_on,0,0,1,,,,,,,,,0,,,60,79
8717,set_tempo,26,1,0,,,,,,1307474,,,,,,,
8720,note_on,10,0,1,,,,,,,,,0,,,60,0
8720,note_on,0,0,1,,,,,,,,,0,,,57,80
8725,control_change,55,0,5,,,,,,,,,0,64,0,,
8730,note_on,60,0,4,,,,,,,,,0,,,62,80
8730,note_on,10,0,1,,,,,,,,,0,,,57,0
8730,control_change,5,0,5,,,,,,,,,0,64,127,,
8730,note_on,0,0,1,,,,,,,,,0,,,64,0
8730,note_on,0,0,1,,,,,,,,,0,,,65,0
8730,note_on,0,0,4,,,,,,,,,0,,,65,90
8740,note_on,0,0,4,,,,,,,,,0,,,58,81
8740,note_on,10,0,4,,,,,,,,,0,,,62,0
8742,set_tempo,25,1,0,,,,,,1298982,,,,,,,
8750,note_on,0,0,4,,,,,,,,,0,,,62,81
8750,note_on,10,0,4,,,,,,,,,0,,,58,0
8760,note_on,10,0,4,,,,,,,,,0,,,62,0
8760,note_on,0,0,4,,,,,,,,,0,,,58,82
8768,set_tempo,26,1,0,,,,,,1290600,,,,,,,
8770,note_on,10,0,4,,,,,,,,,0,,,58,0
8770,note_on,0,0,4,,,,,,,,,0,,,62,82
8780,note_on,10,0,4,,,,,,,,,0,,,62,0
8780,note_on,0,0,4,,,,,,,,,0,,,58,83
8785,control_change,55,0,5,,,,,,,,,0,64,0,,
8790,control_change,5,0,5,,,,,,,,,0,64,127,,
8790,note_on,60,0,1,,,,,,,,,0,,,64,83
8790,note_on,0,0,1,,,,,,,,,0,,,69,103
8790,note_on,10,0,4,,,,,,,,,0,,,58,0
8790,note_on,0,0,1,,,,,,,,,0,,,65,103
8790,set_tempo,22,1,0,,,,,,1282325,,,,,,,
8790,note_on,0,0,4,,,,,,,,,0,,,65,0
8800,note_on,0,0,1,,,,,,,,,0,,,60,83
8800,note_on,10,0,1,,,,,,,,,0,,,64,0
8810,note_on,10,0,1,,,,,,,,,0,,,60,0
8810,note_on,0,0,1,,,,,,,,,0,,,64,84
8815,set_tempo,25,1,0,,,,,,1274156,,,,,,,
8820,note_on,0,0,1,,,,,,,,,0,,,60,84
8820,note_on,10,0,1,,,,,,,,,0,,,64,0
8830,note_on,0,0,1,,,,,,,,,0,,,64,85
8830,note_on,10,0,1,,,,,,,,,0,,,60,0
8840,note_on,0,0,1,,,,,,,,,0,,,60,85
8840,note_on,10,0,1,,,,,,,,,0,,,64,0
8841,set_tempo,26,1,0,,,,,,1266090,,,,,,,
8845,control_change,55,0,5,,,,,,,,,0,64,0,,
8850,note_on,10,0,1,,,,,,,,,0,,,60,0
8850,note_on,0,0,3,,,,,,,,,0,,,70,106
8850,note_on,1680,0,3,,,,,,,,,0,,,65,86
8850,control_change,5,0,5,,,,,,,,,0,64,0,,
8850,note_on,0,0,1,,,,,,,,,0,,,65,0
8850,note_on,0,0,1,,,,,,,,,0,,,69,0
8855,control_change,5,0,5,,,,,,,,,0,64,127,,
8860,note_on,10,0,3,,,,,,,,,0,,,65,0
8860,note_on,0,0,3,,,,,,,,,0,,,62,86
8862,set_tempo,21,1,0,,,,,,1258125,,,,,,,
8870,note_on,10,0,3,,,,,,,,,0,,,62,0
8870,note_on,0,0,3,,,,,,,,,0,,,65,86
8880,note_on,0,0,3,,,,,,,,,0,,,62,87
8880,note_on,10,0,3,,,,,,,,,0,,,65,0
8888,set_tempo,26,1,0,,,,,,1250260,,,,,,,
8890,note_on,10,0,3,,,,,,,,,0,,,62,0
8890,note_on,0,0,3,,,,,,,,,0,,,65,87
8900,note_on,10,0,3,,,,,,,,,0,,,65,0
8900,note_on,0,0,3,,,,,,,,,0,,,62,88
8910,note_on,0,0,1,,,,,,,,,0,,,70,108
8910,note_on,60,0,1,,,,,,,,,0,,,66,88
8910,note_on,10,0,3,,,,,,,,,0,,,62,0
8910,control_change,55,0,5,,,,,,,,,0,64,0,,
8910,note_on,0,0,3,,,,,,,,,0,,,70,0
8914,set_tempo,26,1,0,,,,,,1242493,,,,,,,
8915,control_change,5,0,5,,,,,,,,,0,64,127,,
8920,note_on,10,0,1,,,,,,,,,0,,,66,0
8920,note_on,0,0,1,,,,,,,,,0,,,63,89
8930,note_on,0,0,1,,,,,,,,,0,,,66,89
8930,note_on,10,0,1,,,,,,,,,0,,,63,0
8940,note_on,10,0,1,,,,,,,,,0,,,66,0
8940,note_on,0,0,1,,,,,,,,,0,,,63,89
8940,set_tempo,26,1,0,,,,,,1234822,,,,,,,
8950,note_on,0,0,1,,,,,,,,,0,,,66,90
8950,note_on,10,0,1,,,,,,,,,0,,,63,0
8960,note_on,10,0,1,,,,,,,,,0,,,66,0
8960,note_on,0,0,1,,,,,,,,,0,,,63,90
8961,set_tempo,21,1,0,,,,,,1227245,,,,,,,
8970,note_on,0,0,1,,,,,,,,,0,,,70,0
8970,note_on,10,0,1,,,,,,,,,0,,,63,0
8970,note_on,60,0,3,,,,,,,,,0,,,67,91
8970,control_change,55,0,5,,,,,,,,,0,64,0,,
8970,note_on,0,0,3,,,,,,,,,0,,,70,111
8970,note_on,0,0,3,,,,,,,,,0,,,72,111
8975,control_change,5,0,5,,,,,,,,,0,64,127,,
8980,note_on,10,0,3,,,,,,,,,0,,,67,0
8980,note_on,0,0,3,,,,,,,,,0,,,64,91
8987,set_tempo,26,1,0,,,,,,1219760,,,,,,,
8990,note_on,10,0,3,,,,,,,,,0,,,64,0
8990,note_on,0,0,3,,,,,,,,,0,,,67,92
9000,note_on,0,0,3,,,,,,,,,0,,,64,92
9000,note_on,10,0,3,,,,,,,,,0,,,67,0
9010,note_on,0,0,3,,,,,,,,,0,,,67,93
9010,note_on,10,0,3,,,,,,,,,0,,,64,0
9012,set_tempo,25,1,0,,,,,,1212366,,,,,,,
9020,note_on,10,0,3,,,,,,,,,0,,,67,0
9020,note_on,0,0,3,,,,,,,,,0,,,64,93
9030,note_on,0,0,3,,,,,,,,,0,,,70,0
9030,note_on,60,0,1,,,,,,,,,0,,,67,93
9030,note_on,10,0,3,,,,,,,,,0,,,64,0
9030,note_on,0,0,1,,,,,,,,,0,,,73,103
9030,note_on,0,0,1,,,,,,,,,0,,,70,93
9030,note_on,0,0,3,,,,,,,,,0,,,72,0
9030,control_change,55,0,5,,,,,,,,,0,64,0,,
9034,set_tempo,22,1,0,,,,,,1205061,,,,,,,
9035,control_change,5,0,5,,,,,,,,,0,64,127,,
9040,note_on,0,0,1,,,,,,,,,0,,,67,0
9040,note_on,0,0,1,,,,,,,,,0,,,64,94
9040,note_on,10,0,1,,,,,,,,,0,,,70,0
9050,note_on,10,0,1,,,,,,,,,0,,,64,0
9050,note_on,0,0,1,,,,,,,,,0,,,67,94
9050,note_on,0,0,1,,,,,,,,,0,,,70,94
9060,note_on,10,0,1,,,,,,,,,0,,,70,0
9060,set_tempo,26,1,0,,,,,,1197844,,,,,,,
9060,note_on,0,0,1,,,,,,,,,0,,,64,95
9060,note_on,0,0,1,,,,,,,,,0,,,67,0
9070,note_on,10,0,1,,,,,,,,,0,,,64,0
9070,note_on,0,0,1,,,,,,,,,0,,,70,95
9070,note_on,0,0,1,,,,,,,,,0,,,67,95
9080,note_on,10,0,1,,,,,,,,,0,,,67,0
9080,note_on,0,0,1,,,,,,,,,0,,,64,96
9080,note_on,0,0,1,,,,,,,,,0,,,70,0
9085,set_tempo,25,1,0,,,,,,1190712,,,,,,,
9090,note_on,0,0,1,,,,,,,,,0,,,73,0
9090,note_on,0,0,3,,,,,,,,,0,,,73,96
9090,note_on,10,0,1,,,,,,,,,0,,,64,0
9090,note_on,60,0,3,,,,,,,,,0,,,70,96
9090,note_on,0,0,3,,,,,,,,,0,,,79,116
9090,control_change,55,0,5,,,,,,,,,0,64,0,,
9095,control_change,5,0,5,,,,,,,,,0,64,127,,
9100,note_on,0,0,3,,,,,,,,,0,,,63,96
9100,note_on,0,0,3,,,,,,,,,0,,,70,0
9100,note_on,10,0,3,,,,,,,,,0,,,73,0
9110,note_on,10,0,3,,,,,,,,,0,,,63,0
9110,note_on,0,0,3,,,,,,,,,0,,,73,97
9110,note_on,0,0,3,,,,,,,,,0,,,70,97
9111,set_tempo,26,1,0,,,,,,1183665,,,,,,,
9120,note_on,10,0,3,,,,,,,,,0,,,73,0
9120,note_on,0,0,3,,,,,,,,,0,,,63,97
9120,note_on,0,0,3,,,,,,,,,0,,,70,0
9130,note_on,0,0,3,,,,,,,,,0,,,73,98
9130,note_on,0,0,3,,,,,,,,,0,,,70,98
9130,note_on,10,0,3,,,,,,,,,0,,,63,0
9132,set_tempo,21,1,0,,,,,,1176701,,,,,,,
9140,note_on,10,0,3,,,,,,,,,0,,,73,0
9140,note_on,0,0,3,,,,,,,,,0,,,70,0
9140,note_on,0,0,3,,,,,,,,,0,,,63,98
9150,note_on,0,0,1,,,,,,,,,0,,,82,119
9150,note_on,0,0,3,,,,,,,,,0,,,79,0
9150,note_on,0,0,1,,,,,,,,,0,,,73,99
9150,note_on,60,0,1,,,,,,,,,0,,,76,99
9150,note_on,10,0,3,,,,,,,,,0,,,63,0
9150,control_change,55,0,5,,,,,,,,,0,64,0,,
9155,control_change,5,0,5,,,,,,,,,0,64,127,,
9158,set_tempo,26,1,0,,,,,,1169819,,,,,,,
9160,note_on,10,0,1,,,,,,,,,0,,,73,0
9160,note_on,0,0,1,,,,,,,,,0,,,76,0
9160,note_on,0,0,1,,,,,,,,,0,,,67,99
9170,note_on,0,0,1,,,,,,,,,0,,,76,99
9170,note_on,0,0,1,,,,,,,,,0,,,73,99
9170,note_on,10,0,1,,,,,,,,,0,,,67,0
9180,note_on,0,0,1,,,,,,,,,0,,,67,100
9180,note_on,10,0,1,,,,,,,,,0,,,73,0
9180,note_on,0,0,1,,,,,,,,,0,,,76,0
9184,set_tempo,26,1,0,,,,,,1163016,,,,,,,
9190,note_on,0,0,1,,,,,,,,,0,,,73,100
9190,note_on,0,0,1,,,,,,,,,0,,,76,100
9190,note_on,10,0,1,,,,,,,,,0,,,67,0
9200,note_on,0,0,1,,,,,,,,,0,,,76,0
9200,note_on,0,0,1,,,,,,,,,0,,,67,100
9200,note_on,10,0,1,,,,,,,,,0,,,73,0
9205,set_tempo,21,1,0,,,,,,1156292,,,,,,,
9210,control_change,0,0,5,,,,,,,,,0,64,127,,
9210,note_on,0,0,1,,,,,,,,,0,,,82,0
9210,note_on,0,0,3,,,,,,,,,0,,,77,110
9210,set_tempo,5,1,0,,,,,,1153846,,,,,,,
9210,note_on,0,0,3,,,,,,,,,0,,,74,100
9210,note_on,10,0,1,,,,,,,,,0,,,67,0
9210,control_change,55,0,5,,,,,,,,,0,64,0,,
9210,note_on,60,0,3,,,,,,,,,0,,,70,100
9220,note_on,0,0,3,,,,,,,,,0,,,70,0
9220,note_on,0,0,3,,,,,,,,,0,,,65,100
9220,note_on,10,0,3,,,,,,,,,0,,,74,0
9230,note_on,0,0,3,,,,,,,,,0,,,70,100
9230,note_on,0,0,3,,,,,,,,,0,,,74,100
9230,note_on,10,0,3,,,,,,,,,0,,,65,0
9240,note_on,10,0,3,,,,,,,,,0,,,74,0
9240,note_on,0,0,3,,,,,,,,,0,,,65,100
9240,note_on,0,0,3,,,,,,,,,0,,,70,0
9250,note_on,10,0,3,,,,,,,,,0,,,65,0
9250,note_on,0,0,3,,,,,,,,,0,,,74,100
9250,note_on,0,0,3,,,,,,,,,0,,,70,100
9260,note_on,10,0,3,,,,,,,,,0,,,74,0
9260,note_on,0,0,3,,,,,,,,,0,,,65,100
9260,note_on,0,0,3,,,,,,,,,0,,,70,0
9265,control_change,55,0,5,,,,,,,,,0,64,0,,
9270,control_change,5,0,5,,,,,,,,,0,64,127,,
9270,note_on,10,0,3,,,,,,,,,0,,,65,0
9270,note_on,0,0,1,,,,,,,,,0,,,70,100
9270,note_on,0,0,3,,,,,,,,,0,,,77,0
9270,note_on,60,0,1,,,,,,,,,0,,,65,100
9270,note_on,0,0,1,,,,,,,,,0,,,74,110
9280,note_on,10,0,1,,,,,,,,,0,,,70,0
9280,note_on,0,0,1,,,,,,,,,0,,,65,0
9280,note_on,0,0,1,,,,,,,,,0,,,62,100
9290,note_on,0,0,1,,,,,,,,,0,,,65,100
9290,note_on,0,0,1,,,,,,,,,0,,,70,100
9290,note_on,10,0,1,,,,,,,,,0,,,62,0
9300,note_on,0,0,1,,,,,,,,,0,,,62,100
9300,note_on,10,0,1,,,,,,,,,0,,,70,0
9300,note_on,0,0,1,,,,,,,,,0,,,65,0
9310,note_on,0,0,1,,,,,,,,,0,,,65,100
9310,note_on,10,0,1,,,,,,,,,0,,,62,0
9310,note_on,0,0,1,,,,,,,,,0,,,70,100
9320,note_on,10,0,1,,,,,,,,,0,,,65,0
9320,note_on,0,0,1,,,,,,,,,0,,,70,0
9320,note_on,0,0,1,,,,,,,,,0,,,62,100
9325,control_change,55,0,5,,,,,,,,,0,64,0,,
9330,control_change,5,0,5,,,,,,,,,0,64,127,,
9330,note_on,10,0,1,,,,,,,,,0,,,62,0
9330,note_on,0,0,3,,,,,,,,,0,,,65,100
9330,note_on,60,0,3,,,,,,,,,0,,,62,100
9330,note_on,0,0,1,,,,,,,,,0,,,74,0
9330,note_on,0,0,3,,,,,,,,,0,,,70,110
9340,note_on,10,0,3,,,,,,,,,0,,,65,0
9340,note_on,0,0,3,,,,,,,,,0,,,62,0
9340,note_on,0,0,3,,,,,,,,,0,,,58,100
9350,note_on,10,0,3,,,,,,,,,0,,,58,0
9350,note_on,0,0,3,,,,,,,,,0,,,62,100
9350,note_on,0,0,3,,,,,,,,,0,,,65,100
9360,note_on,0,0,3,,,,,,,,,0,,,58,100
9360,note_on,0,0,3,,,,,,,,,0,,,62,0
9360,note_on,10,0,3,,,,,,,,,0,,,65,0
9370,note_on,10,0,3,,,,,,,,,0,,,58,0
9370,note_on,0,0,3,,,,,,,,,0,,,65,100
9370,note_on,0,0,3,,,,,,,,,0,,,62,100
9380,note_on,0,0,3,,,,,,,,,0,,,65,0
9380,note_on,10,0,3,,,,,,,,,0,,,62,0
9380,note_on,0,0,3,,,,,,,,,0,,,58,100
9385,control_change,55,0,5,,,,,,,,,0,64,0,,
9390,note_on,10,0,3,,,,,,,,,0,,,58,0
9390,note_on,0,0,1,,,,,,,,,0,,,62,100
9390,control_change,5,0,5,,,,,,,,,0,64,127,,
9390,note_on,0,0,3,,,,,,,,,0,,,70,0
9390,set_tempo,180,1,0,,,,,,1156292,,,,,,,
9390,note_on,0,0,1,,,,,,,,,0,,,65,110
9390,note_on,60,0,1,,,,,,,,,0,,,58,100
9394,set_tempo,4,1,0,,,,,,1163016,,,,,,,
9398,set_tempo,4,1,0,,,,,,1169819,,,,,,,
9400,note_on,0,0,1,,,,,,,,,0,,,53,100
9400,note_on,0,0,1,,,,,,,,,0,,,58,0
9400,note_on,10,0,1,,,,,,,,,0,,,62,0
9402,set_tempo,4,1,0,,,,,,1176701,,,,,,,
9407,set_tempo,5,1,0,,,,,,1190712,,,,,,,
9410,note_on,10,0,1,,,,,,,,,0,,,53,0
9410,note_on,0,0,1,,,,,,,,,0,,,62,99
9410,note_on,0,0,1,,,,,,,,,0,,,58,99
9411,set_tempo,4,1,0,,,,,,1197844,,,,,,,
9415,set_tempo,4,1,0,,,,,,1205061,,,,,,,
9420,note_on,0,0,1,,,,,,,,,0,,,53,98
9420,note_on,10,0,1,,,,,,,,,0,,,62,0
9420,note_on,0,0,1,,,,,,,,,0,,,58,0
9420,set_tempo,5,1,0,,,,,,1212366,,,,,,,
9424,set_tempo,4,1,0,,,,,,1227245,,,,,,,
9428,set_tempo,4,1,0,,,,,,1234822,,,,,,,
9430,note_on,10,0,1,,,,,,,,,0,,,53,0
9430,note_on,0,0,1,,,,,,,,,0,,,62,97
9430,note_on,0,0,1,,,,,,,,,0,,,58,97
9432,set_tempo,4,1,0,,,,,,1242493,,,,,,,
9437,set_tempo,5,1,0,,,,,,1250260,,,,,,,
9440,note_on,0,0,1,,,,,,,,,0,,,58,0
9440,note_on,0,0,1,,,,,,,,,0,,,53,96
9440,note_on,10,0,1,,,,,,,,,0,,,62,0
9441,set_tempo,4,1,0,,,,,,1266090,,,,,,,
9445,control_change,55,0,5,,,,,,,,,0,64,0,,
9445,set_tempo,4,1,0,,,,,,1274156,,,,,,,
9450,note_on,0,0,1,,,,,,,,,0,,,65,0
9450,note_on,0,0,1,,,,,,,,,0,,,57,96
9450,set_tempo,5,1,0,,,,,,1282325,,,,,,,
9450,note_on,10,0,1,,,,,,,,,0,,,53,0
9450,control_change,5,0,5,,,,,,,,,0,64,127,,
9454,set_tempo,4,1,0,,,,,,1298982,,,,,,,
9455,note_on,5,0,1,,,,,,,,,0,,,60,95
9458,set_tempo,4,1,0,,,,,,1307474,,,,,,,
9460,note_on,0,0,1,,,,,,,,,0,,,67,125
9460,note_on,0,0,1,,,,,,,,,0,,,51,95
9460,note_on,0,0,1,,,,,,,,,0,,,57,0
9460,note_on,5,0,1,,,,,,,,,0,,,60,0
9462,set_tempo,4,1,0,,,,,,1316078,,,,,,,
9467,set_tempo,5,1,0,,,,,,1324796,,,,,,,
9470,note_on,10,0,1,,,,,,,,,0,,,51,0
9470,note_on,0,0,1,,,,,,,,,0,,,60,94
9470,note_on,0,0,1,,,,,,,,,0,,,57,94
9471,set_tempo,4,1,0,,,,,,1342582,,,,,,,
9475,set_tempo,4,1,0,,,,,,1351656,,,,,,,
9480,note_on,0,0,1,,,,,,,,,0,,,51,93
9480,note_on,0,0,1,,,,,,,,,0,,,57,0
9480,set_tempo,5,1,0,,,,,,1360853,,,,,,,
9480,note_on,10,0,1,,,,,,,,,0,,,60,0
9484,set_tempo,4,1,0,,,,,,1370176,,,,,,,
9488,set_tempo,4,1,0,,,,,,1389210,,,,,,,
9490,note_on,10,0,1,,,,,,,,,0,,,51,0
9490,note_on,0,0,1,,,,,,,,,0,,,57,92
9490,note_on,0,0,1,,,,,,,,,0,,,60,92
9492,set_tempo,4,1,0,,,,,,1398927,,,,,,,
9497,set_tempo,5,1,0,,,,,,1408781,,,,,,,
9500,note_on,10,0,1,,,,,,,,,0,,,57,0
9500,note_on,0,0,1,,,,,,,,,0,,,51,91
9500,note_on,0,0,1,,,,,,,,,0,,,60,0
9501,set_tempo,4,1,0,,,,,,1418775,,,,,,,
9505,set_tempo,4,1,0,,,,,,1439194,,,,,,,
9505,control_change,55,0,5,,,,,,,,,0,64,0,,
9510,note_on,0,0,4,,,,,,,,,0,,,51,91
9510,note_on,0,0,4,,,,,,,,,0,,,57,101
9510,note_on,10,0,1,,,,,,,,,0,,,51,0
9510,set_tempo,5,1,0,,,,,,1449626,,,,,,,
9510,note_on,0,0,1,,,,,,,,,0,,,67,0
9510,note_on,720,0,4,,,,,,,,,0,,,48,91
9510,control_change,5,0,5,,,,,,,,,0,64,127,,
9514,set_tempo,4,1,0,,,,,,1460209,,,,,,,
9518,set_tempo,4,1,0,,,,,,1481847,,,,,,,
9520,note_on,0,0,4,,,,,,,,,0,,,48,0
9520,note_on,0,0,4,,,,,,,,,0,,,41,90
9520,note_on,10,0,4,,,,,,,,,0,,,51,0
9522,set_tempo,4,1,0,,,,,,1492909,,,,,,,
9527,set_tempo,5,1,0,,,,,,1504136,,,,,,,
9530,note_on,0,0,4,,,,,,,,,0,,,51,89
9530,note_on,0,0,4,,,,,,,,,0,,,48,89
9530,note_on,10,0,4,,,,,,,,,0,,,41,0
9531,set_tempo,4,1,0,,,,,,1515534,,,,,,,
9535,set_tempo,4,1,0,,,,,,1538856,,,,,,,
9540,note_on,0,0,4,,,,,,,,,0,,,41,88
9540,set_tempo,5,1,0,,,,,,1550788,,,,,,,
9540,note_on,0,0,4,,,,,,,,,0,,,48,0
9540,note_on,10,0,4,,,,,,,,,0,,,51,0
9544,set_tempo,4,1,0,,,,,,1562907,,,,,,,
9548,set_tempo,4,1,0,,,,,,1575217,,,,,,,
9550,note_on,0,0,4,,,,,,,,,0,,,51,87
9550,note_on,0,0,4,,,,,,,,,0,,,48,87
9550,note_on,10,0,4,,,,,,,,,0,,,41,0
9552,set_tempo,4,1,0,,,,,,1600427,,,,,,,
9557,set_tempo,5,1,0,,,,,,1613337,,,,,,,
9560,note_on,0,0,4,,,,,,,,,0,,,51,0
9560,note_on,0,0,4,,,,,,,,,0,,,41,86
9560,note_on,10,0,4,,,,,,,,,0,,,48,0
9561,set_tempo,4,1,0,,,,,,1626457,,,,,,,
9565,control_change,55,0,5,,,,,,,,,0,64,0,,
9565,set_tempo,4,1,0,,,,,,1653348,,,,,,,
9570,note_on,0,0,4,,,,,,,,,0,,,50,86
9570,control_change,5,0,5,,,,,,,,,0,64,0,,
9570,note_on,0,0,4,,,,,,,,,0,,,57,0
9570,set_tempo,5,1,0,,,,,,1500000,,,,,,,
9570,note_on,0,0,4,,,,,,,,,0,,,58,96
9570,note_on,10,0,4,,,,,,,,,0,,,41,0
9575,control_change,5,0,5,,,,,,,,,0,64,127,,
9580,note_on,10,0,4,,,,,,,,,0,,,50,0
9580,note_on,0,0,4,,,,,,,,,0,,,46,85
9590,note_on,10,0,4,,,,,,,,,0,,,46,0
9590,note_on,0,0,4,,,,,,,,,0,,,50,84
9600,note_on,10,0,4,,,,,,,,,0,,,50,0
9600,note_on,0,0,4,,,,,,,,,0,,,46,83
9610,note_on,10,0,4,,,,,,,,,0,,,46,0
9610,note_on,0,0,4,,,,,,,,,0,,,50,82
9620,note_on,10,0,4,,,,,,,,,0,,,50,0
9620,note_on,0,0,4,,,,,,,,,0,,,46,81
9630,control_change,55,0,5,,,,,,,,,0,64,0,,
9630,note_on,10,0,4,,,,,,,,,0,,,46,0
9630,note_on,0,0,4,,,,,,,,,0,,,58,0
9630,note_on,0,0,4,,,,,,,,,0,,,50,81
9630,note_on,0,0,4,,,,,,,,,0,,,57,91
9635,control_change,5,0,5,,,,,,,,,0,64,127,,
9640,note_on,10,0,4,,,,,,,,,0,,,50,0
9640,note_on,0,0,4,,,,,,,,,0,,,46,80
9650,note_on,10,0,4,,,,,,,,,0,,,46,0
9650,note_on,0,0,4,,,,,,,,,0,,,50,79
9660,note_on,0,0,4,,,,,,,,,0,,,46,78
9660,note_on,10,0,4,,,,,,,,,0,,,50,0
9670,note_on,0,0,4,,,,,,,,,0,,,50,77
9670,note_on,10,0,4,,,,,,,,,0,,,46,0
9680,note_on,0,0,4,,,,,,,,,0,,,46,76
9680,note_on,10,0,4,,,,,,,,,0,,,50,0
9690,note_on,0,0,4,,,,,,,,,0,,,50,76
9690,note_on,0,0,4,,,,,,,,,0,,,56,86
9690,note_on,10,0,4,,,,,,,,,0,,,46,0
9690,note_on,0,0,4,,,,,,,,,0,,,57,0
9690,control_change,55,0,5,,,,,,,,,0,64,0,,
9695,control_change,5,0,5,,,,,,,,,0,64,127,,
9700,note_on,10,0,4,,,,,,,,,0,,,50,0
9700,note_on,0,0,4,,,,,,,,,0,,,46,75
9710,note_on,10,0,4,,,,,,,,,0,,,46,0
9710,note_on,0,0,4,,,,,,,,,0,,,50,74
9720,note_on,0,0,4,,,,,,,,,0,,,46,73
9720,note_on,10,0,4,,,,,,,,,0,,,50,0
9730,note_on,0,0,4,,,,,,,,,0,,,50,72
9730,note_on,10,0,4,,,,,,,,,0,,,46,0
9740,note_on,0,0,4,,,,,,,,,0,,,46,71
9740,note_on,10,0,4,,,,,,,,,0,,,50,0
9750,note_on,0,0,4,,,,,,,,,0,,,55,81
9750,note_on,0,0,4,,,,,,,,,0,,,56,0
9750,note_on,10,0,4,,,,,,,,,0,,,46,0
9750,note_on,0,0,4,,,,,,,,,0,,,51,71
9750,control_change,55,0,5,,,,,,,,,0,64,0,,
9755,control_change,5,0,5,,,,,,,,,0,64,127,,
9760,note_on,10,0,4,,,,,,,,,0,,,51,0
9760,note_on,0,0,4,,,,,,,,,0,,,46,70
9770,note_on,10,0,4,,,,,,,,,0,,,46,0
9770,note_on,0,0,4,,,,,,,,,0,,,51,69
9780,note_on,10,0,4,,,,,,,,,0,,,51,0
9780,note_on,0,0,4,,,,,,,,,0,,,46,68
9790,note_on,10,0,4,,,,,,,,,0,,,46,0
9790,note_on,0,0,4,,,,,,,,,0,,,51,67
9800,note_on,0,0,4,,,,,,,,,0,,,46,66
9800,note_on,10,0,4,,,,,,,,,0,,,51,0
9810,note_on,0,0,4,,,,,,,,,0,,,55,0
9810,control_change,55,0,5,,,,,,,,,0,64,0,,
9810,note_on,0,0,4,,,,,,,,,0,,,54,76
9810,note_on,10,0,4,,,,,,,,,0,,,46,0
9810,note_on,0,0,4,,,,,,,,,0,,,51,66
9815,control_change,5,0,5,,,,,,,,,0,64,127,,
9820,note_on,10,0,4,,,,,,,,,0,,,51,0
9820,note_on,0,0,4,,,,,,,,,0,,,45,65
9830,note_on,10,0,4,,,,,,,,,0,,,45,0
9830,note_on,0,0,4,,,,,,,,,0,,,51,64
9840,note_on,10,0,4,,,,,,,,,0,,,51,0
9840,note_on,0,0,4,,,,,,,,,0,,,45,63
9850,note_on,10,0,4,,,,,,,,,0,,,45,0
9850,note_on,0,0,4,,,,,,,,,0,,,51,62
9860,note_on,10,0,4,,,,,,,,,0,,,51,0
9860,note_on,0,0,4,,,,,,,,,0,,,45,61
9870,note_on,10,0,4,,,,,,,,,0,,,45,0
9870,note_on,0,0,4,,,,,,,,,0,,,54,0
9870,note_on,0,0,4,,,,,,,,,0,,,53,71
9870,control_change,55,0,5,,,,,,,,,0,64,0,,
9870,note_on,0,0,4,,,,,,,,,0,,,51,61
9875,control_change,5,0,5,,,,,,,,,0,64,127,,
9880,note_on,0,0,4,,,,,,,,,0,,,45,60
9880,note_on,10,0,4,,,,,,,,,0,,,51,0
9890,note_on,0,0,4,,,,,,,,,0,,,51,59
9890,note_on,10,0,4,,,,,,,,,0,,,45,0
9900,note_on,0,0,4,,,,,,,,,0,,,45,58
9900,note_on,10,0,4,,,,,,,,,0,,,51,0
9910,note_on,0,0,4,,,,,,,,,0,,,51,57
9910,note_on,10,0,4,,,,,,,,,0,,,45,0
9920,note_on,0,0,4,,,,,,,,,0,,,45,56
9920,note_on,10,0,4,,,,,,,,,0,,,51,0
9930,control_change,55,0,5,,,,,,,,,0,64,0,,
9930,note_on,10,0,4,,,,,,,,,0,,,45,0
9930,note_on,0,0,4,,,,,,,,,0,,,53,66
9930,note_on,0,0,4,,,,,,,,,0,,,51,56
9930,control_change,0,0,5,,,,,,,,,0,64,127,,
9930,note_on,0,0,4,,,,,,,,,0,,,53,0
9940,note_on,0,0,4,,,,,,,,,0,,,46,55
9940,note_on,10,0,4,,,,,,,,,0,,,51,0
9950,note_on,10,0,4,,,,,,,,,0,,,46,0
9950,note_on,0,0,4,,,,,,,,,0,,,51,54
9960,note_on,10,0,4,,,,,,,,,0,,,51,0
9960,note_on,0,0,4,,,,,,,,,0,,,46,53
9970,note_on,10,0,4,,,,,,,,,0,,,46,0
9970,note_on,0,0,4,,,,,,,,,0,,,51,52
9980,note_on,10,0,4,,,,,,,,,0,,,51,0
9980,note_on,0,0,4,,,,,,,,,0,,,46,51
9985,control_change,55,0,5,,,,,,,,,0,64,0,,
9990,control_change,5,0,5,,,,,,,,,0,64,127,,
9990,note_on,10,0,4,,,,,,,,,0,,,46,0
9990,note_on,0,0,4,,,,,,,,,0,,,51,51
10000,note_on,10,0,4,,,,,,,,,0,,,51,0
10000,note_on,0,0,4,,,,,,,,,0,,,46,50
10010,note_on,0,0,4,,,,,,,,,0,,,51,49
10010,note_on,10,0,4,,,,,,,,,0,,,46,0
10020,note_on,10,0,4,,,,,,,,,0,,,51,0
10020,note_on,0,0,4,,,,,,,,,0,,,46,48
10030,note_on,10,0,4,,,,,,,,,0,,,46,0
10030,note_on,0,0,4,,,,,,,,,0,,,51,47
10040,note_on,0,0,4,,,,,,,,,0,,,46,46
10040,note_on,10,0,4,,,,,,,,,0,,,51,0
10045,control_change,55,0,5,,,,,,,,,0,64,0,,
10050,note_on,0,0,4,,,,,,,,,0,,,50,46
10050,control_change,5,0,5,,,,,,,,,0,64,127,,
10050,note_on,0,0,4,,,,,,,,,0,,,53,0
10050,note_on,10,0,4,,,,,,,,,0,,,46,0
10050,note_on,0,0,4,,,,,,,,,0,,,53,56
10060,note_on,0,0,4,,,,,,,,,0,,,46,45
10060,note_on,10,0,4,,,,,,,,,0,,,50,0
10070,note_on,0,0,4,,,,,,,,,0,,,50,44
10070,note_on,10,0,4,,,,,,,,,0,,,46,0
10080,note_on,10,0,4,,,,,,,,,0,,,50,0
10080,note_on,0,0,4,,,,,,,,,0,,,46,43
10090,note_on,0,0,4,,,,,,,,,0,,,50,42
10090,note_on,10,0,4,,,,,,,,,0,,,46,0
10100,note_on,0,0,4,,,,,,,,,0,,,46,41
10100,note_on,10,0,4,,,,,,,,,0,,,50,0
10105,control_change,55,0,5,,,,,,,,,0,64,0,,
10110,control_change,5,0,5,,,,,,,,,0,64,127,,
10110,note_on,0,0,4,,,,,,,,,0,,,50,41
10110,note_on,10,0,4,,,,,,,,,0,,,46,0
10120,note_on,0,0,4,,,,,,,,,0,,,46,40
10120,note_on,10,0,4,,,,,,,,,0,,,50,0
10130,note_on,10,0,4,,,,,,,,,0,,,46,0
10130,note_on,0,0,4,,,,,,,,,0,,,50,40
10140,note_on,10,0,4,,,,,,,,,0,,,50,0
10140,note_on,0,0,4,,,,,,,,,0,,,46,40
10150,note_on,10,0,4,,,,,,,,,0,,,46,0
10150,note_on,0,0,4,,,,,,,,,0,,,50,40
10160,note_on,10,0,4,,,,,,,,,0,,,50,0
10160,note_on,0,0,4,,,,,,,,,0,,,46,40
10165,control_change,55,0,5,,,,,,,,,0,64,0,,
10170,note_on,6825,0,2,,,,,,,,,0,,,62,70
10170,note_on,10,0,4,,,,,,,,,0,,,46,0
10170,control_change,5,0,5,,,,,,,,,0,64,127,,
10170,note_on,0,0,2,,,,,,,,,0,,,50,70
10170,note_on,0,0,4,,,,,,,,,0,,,53,0
10170,note_on,0,0,4,,,,,,,,,0,,,48,40
10170,note_on,0,0,4,,,,,,,,,0,,,54,50
10180,note_on,0,0,4,,,,,,,,,0,,,45,49
10180,note_on,10,0,4,,,,,,,,,0,,,48,0
10190,note_on,0,0,4,,,,,,,,,0,,,48,59
10190,note_on,10,0,4,,,,,,,,,0,,,45,0
10200,note_on,10,0,4,,,,,,,,,0,,,48,0
10200,note_on,0,0,4,,,,,,,,,0,,,45,69
10210,note_on,10,0,4,,,,,,,,,0,,,45,0
10210,note_on,0,0,4,,,,,,,,,0,,,48,79
10220,note_on,0,0,4,,,,,,,,,0,,,45,89
10220,note_on,10,0,4,,,,,,,,,0,,,48,0
10225,control_change,55,0,5,,,,,,,,,0,64,0,,
10230,note_on,10,0,4,,,,,,,,,0,,,45,0
10230,control_change,5,0,5,,,,,,,,,0,64,127,,
10230,note_on,0,0,4,,,,,,,,,0,,,48,99
10240,note_on,0,0,4,,,,,,,,,0,,,45,100
10240,note_on,10,0,4,,,,,,,,,0,,,48,0
10250,note_on,10,0,4,,,,,,,,,0,,,45,0
10250,note_on,0,0,4,,,,,,,,,0,,,48,100
10260,note_on,0,0,2,,,,,,,,,0,,,62,110
10260,note_on,0,0,2,,,,,,,,,0,,,50,110
10260,note_on,10,0,4,,,,,,,,,0,,,48,0
10260,note_on,0,0,4,,,,,,,,,0,,,45,100
10260,note_on,90,0,2,,,,,,,,,0,,,50,0
10260,note_on,0,0,2,,,,,,,,,0,,,62,0
10270,note_on,10,0,4,,,,,,,,,0,,,45,0
10270,note_on,0,0,4,,,,,,,,,0,,,48,100
10280,note_on,0,0,4,,,,,,,,,0,,,45,100
10280,note_on,10,0,4,,,,,,,,,0,,,48,0
10285,control_change,55,0,5,,,,,,,,,0,64,0,,
10290,note_on,0,0,2,,,,,,,,,0,,,50,100
10290,note_on,0,0,4,,,,,,,,,0,,,31,127
10290,note_on,30,0,2,,,,,,,,,0,,,50,0
10290,note_on,0,0,4,,,,,,,,,0,,,35,127
10290,note_on,0,0,4,,,,,,,,,0,,,38,127
10290,note_on,0,0,4,,,,,,,,,0,,,43,127
10290,note_on,0,0,4,,,,,,,,,0,,,54,0
10290,note_on,10,0,4,,,,,,,,,0,,,45,0
10290,control_change,5,0,5,,,,,,,,,0,64,0,,
10290,note_on,0,0,2,,,,,,,,,0,,,62,0
10290,note_on,0,0,2,,,,,,,,,0,,,59,100
10295,control_change,5,0,5,,,,,,,,,0,64,127,,
10297,note_on,7,0,2,,,,,,,,,0,,,62,100
10298,note_on,0,0,2,,,,,,,,,0,,,50,0
10298,note_on,1,0,2,,,,,,,,,0,,,59,0
10305,note_on,0,0,2,,,,,,,,,0,,,59,100
10305,note_on,0,0,2,,,,,,,,,0,,,50,100
10305,note_on,7,0,2,,,,,,,,,0,,,62,0
10312,note_on,7,0,2,,,,,,,,,0,,,62,100
10313,note_on,0,0,2,,,,,,,,,0,,,50,0
10313,note_on,1,0,2,,,,,,,,,0,,,59,0
10320,note_on,7,0,2,,,,,,,,,0,,,62,0
10320,note_on,0,0,2,,,,,,,,,0,,,50,100
10320,note_on,0,0,2,,,,,,,,,0,,,59,100
10327,note_on,7,0,2,,,,,,,,,0,,,62,100
10328,note_on,1,0,2,,,,,,,,,0,,,59,0
10328,note_on,0,0,2,,,,,,,,,0,,,50,0
10335,note_on,7,0,2,,,,,,,,,0,,,62,0
10335,note_on,0,0,2,,,,,,,,,0,,,50,100
10335,note_on,0,0,2,,,,,,,,,0,,,59,100
10342,note_on,7,0,2,,,,,,,,,0,,,62,100
10343,note_on,1,0,2,,,,,,,,,0,,,59,0
10343,note_on,0,0,2,,,,,,,,,0,,,50,0
10350,note_on,0,0,2,,,,,,,,,0,,,50,100
10350,note_on,0,0,2,,,,,,,,,0,,,59,100
10350,control_change,55,0,5,,,,,,,,,0,64,0,,
10350,note_on,7,0,2,,,,,,,,,0,,,62,0
10355,control_change,5,0,5,,,,,,,,,0,64,127,,
10357,note_on,7,0,2,,,,,,,,,0,,,62,100
10358,note_on,0,0,2,,,,,,,,,0,,,50,0
10358,note_on,1,0,2,,,,,,,,,0,,,59,0
10365,note_on,7,0,2,,,,,,,,,0,,,62,0
10365,note_on,0,0,2,,,,,,,,,0,,,50,100
10365,note_on,0,0,2,,,,,,,,,0,,,59,100
10372,note_on,7,0,2,,,,,,,,,0,,,62,100
10373,note_on,0,0,2,,,,,,,,,0,,,50,0
10373,note_on,1,0,2,,,,,,,,,0,,,59,0
10380,note_on,0,0,2,,,,,,,,,0,,,59,100
10380,note_on,7,0,2,,,,,,,,,0,,,62,0
10380,note_on,0,0,2,,,,,,,,,0,,,50,100
10387,note_on,7,0,2,,,,,,,,,0,,,62,100
10388,note_on,0,0,2,,,,,,,,,0,,,50,0
10388,note_on,1,0,2,,,,,,,,,0,,,59,0
10395,note_on,0,0,2,,,,,,,,,0,,,50,100
10395,note_on,7,0,2,,,,,,,,,0,,,62,0
10395,note_on,0,0,2,,,,,,,,,0,,,59,100
10402,note_on,7,0,2,,,,,,,,,0,,,62,100
10403,note_on,0,0,2,,,,,,,,,0,,,50,0
10403,note_on,1,0,2,,,,,,,,,0,,,59,0
10410,note_on,0,0,4,,,,,,,,,0,,,31,0
10410,note_on,0,0,2,,,,,,,,,0,,,50,100
10410,note_on,0,0,2,,,,,,,,,0,,,59,100
10410,note_on,0,0,4,,,,,,,,,0,,,38,0
10410,note_on,0,0,4,,,,,,,,,0,,,35,0
10410,note_on,7,0,2,,,,,,,,,0,,,62,0
10410,note_on,120,0,4,,,,,,,,,0,,,43,0
10410,control_change,55,0,5,,,,,,,,,0,64,0,,
10415,control_change,5,0,5,,,,,,,,,0,64,127,,
10417,note_on,7,0,2,,,,,,,,,0,,,62,100
10418,note_on,1,0,2,,,,,,,,,0,,,59,0
10418,note_on,0,0,2,,,,,,,,,0,,,50,0
10425,note_on,7,0,2,,,,,,,,,0,,,62,0
10425,note_on,0,0,2,,,,,,,,,0,,,59,100
10425,note_on,0,0,2,,,,,,,,,0,,,50,100
10432,note_on,7,0,2,,,,,,,,,0,,,62,100
10433,note_on,0,0,2,,,,,,,,,0,,,50,0
10433,note_on,1,0,2,,,,,,,,,0,,,59,0
10440,note_on,0,0,2,,,,,,,,,0,,,59,100
10440,note_on,0,0,2,,,,,,,,,0,,,50,100
10440,note_on,7,0,2,,,,,,,,,0,,,62,0
10447,note_on,7,0,2,,,,,,,,,0,,,62,100
10448,note_on,0,0,2,,,,,,,,,0,,,50,0
10448,note_on,1,0,2,,,,,,,,,0,,,59,0
10455,note_on,0,0,2,,,,,,,,,0,,,50,100
10455,note_on,0,0,2,,,,,,,,,0,,,59,100
10455,note_on,7,0,2,,,,,,,,,0,,,62,0
10462,note_on,7,0,2,,,,,,,,,0,,,62,100
10463,note_on,1,0,2,,,,,,,,,0,,,59,0
10463,note_on,0,0,2,,,,,,,,,0,,,50,0
10470,note_on,960,0,1,,,,,,,,,0,,,79,110
10470,note_on,0,0,1,,,,,,,,,0,,,67,110
10470,note_on,60,0,4,,,,,,,,,0,,,46,100
10470,note_on,7,0,2,,,,,,,,,0,,,62,0
10470,control_change,55,0,5,,,,,,,,,0,64,0,,
10475,control_change,5,0,5,,,,,,,,,0,64,127,,
10480,note_on,0,0,4,,,,,,,,,0,,,55,100
10480,note_on,10,0,4,,,,,,,,,0,,,46,0
10490,note_on,10,0,4,,,,,,,,,0,,,55,0
10490,note_on,0,0,4,,,,,,,,,0,,,46,100
10500,note_on,0,0,4,,,,,,,,,0,,,55,100
10500,note_on,10,0,4,,,,,,,,,0,,,46,0
10510,note_on,10,0,4,,,,,,,,,0,,,55,0
10510,note_on,0,0,4,,,,,,,,,0,,,46,100
10520,note_on,10,0,4,,,,,,,,,0,,,46,0
10520,note_on,0,0,4,,,,,,,,,0,,,55,100
10530,note_on,60,0,1,,,,,,,,,0,,,67,0
10530,note_on,0,0,4,,,,,,,,,0,,,48,100
10530,note_on,10,0,4,,,,,,,,,0,,,55,0
10530,note_on,0,0,1,,,,,,,,,0,,,79,0
10530,note_on,0,0,1,,,,,,,,,0,,,78,110
10530,note_on,0,0,1,,,,,,,,,0,,,66,110
10530,control_change,55,0,5,,,,,,,,,0,64,0,,
10535,control_change,5,0,5,,,,,,,,,0,64,127,,
10540,note_on,10,0,4,,,,,,,,,0,,,48,0
10540,note_on,0,0,4,,,,,,,,,0,,,57,100
10550,note_on,0,0,4,,,,,,,,,0,,,48,100
10550,note_on,10,0,4,,,,,,,,,0,,,57,0
10560,note_on,0,0,4,,,,,,,,,0,,,57,100
10560,note_on,10,0,4,,,,,,,,,0,,,48,0
10570,note_on,0,0,4,,,,,,,,,0,,,48,100
10570,note_on,10,0,4,,,,,,,,,0,,,57,0
10580,note_on,0,0,4,,,,,,,,,0,,,57,100
10580,note_on,10,0,4,,,,,,,,,0,,,48,0
10590,note_on,0,0,1,,,,,,,,,0,,,77,110
10590,control_change,55,0,5,,,,,,,,,0,64,0,,
10590,note_on,0,0,4,,,,,,,,,0,,,50,100
10590,note_on,0,0,1,,,,,,,,,0,,,65,110
10590,note_on,60,0,1,,,,,,,,,0,,,66,0
10590,note_on,0,0,1,,,,,,,,,0,,,78,0
10590,note_on,10,0,4,,,,,,,,,0,,,57,0
10595,control_change,5,0,5,,,,,,,,,0,64,127,,
10600,note_on,10,0,4,,,,,,,,,0,,,50,0
10600,note_on,0,0,4,,,,,,,,,0,,,59,100
10610,note_on,10,0,4,,,,,,,,,0,,,59,0
10610,note_on,0,0,4,,,,,,,,,0,,,50,100
10620,note_on,10,0,4,,,,,,,,,0,,,50,0
10620,note_on,0,0,4,,,,,,,,,0,,,59,100
10630,note_on,10,0,4,,,,,,,,,0,,,59,0
10630,note_on,0,0,4,,,,,,,,,0,,,50,100
10640,note_on,0,0,4,,,,,,,,,0,,,59,100
10640,note_on,10,0,4,,,,,,,,,0,,,50,0
10650,note_on,0,0,4,,,,,,,,,0,,,51,100
10650,control_change,55,0,5,,,,,,,,,0,64,0,,
10650,note_on,0,0,1,,,,,,,,,0,,,75,110
10650,note_on,10,0,4,,,,,,,,,0,,,59,0
10650,control_change,0,0,5,,,,,,,,,0,64,0,,
10650,note_on,60,0,1,,,,,,,,,0,,,65,0
10650,note_on,0,0,1,,,,,,,,,0,,,77,0
10650,note_on,0,0,1,,,,,,,,,0,,,63,110
10655,control_change,5,0,5,,,,,,,,,0,64,127,,
10660,note_on,10,0,4,,,,,,,,,0,,,51,0
10660,note_on,0,0,4,,,,,,,,,0,,,60,100
10670,note_on,10,0,4,,,,,,,,,0,,,60,0
10670,note_on,0,0,4,,,,,,,,,0,,,51,100
10680,note_on,10,0,4,,,,,,,,,0,,,51,0
10680,note_on,0,0,4,,,,,,,,,0,,,60,100
10690,note_on,10,0,4,,,,,,,,,0,,,60,0
10690,note_on,0,0,4,,,,,,,,,0,,,51,100
10700,note_on,0,0,4,,,,,,,,,0,,,60,100
10700,note_on,10,0,4,,,,,,,,,0,,,51,0
10710,note_on,60,0,1,,,,,,,,,0,,,75,0
10710,control_change,55,0,5,,,,,,,,,0,64,0,,
10710,note_on,0,0,1,,,,,,,,,0,,,74,110
10710,note_on,10,0,4,,,,,,,,,0,,,60,0
10710,note_on,0,0,1,,,,,,,,,0,,,71,110
10710,note_on,0,0,1,,,,,,,,,0,,,63,0
10710,note_on,0,0,1,,,,,,,,,0,,,68,110
10710,note_on,0,0,4,,,,,,,,,0,,,53,100
10715,control_change,5,0,5,,,,,,,,,0,64,127,,
10720,note_on,0,0,4,,,,,,,,,0,,,62,100
10720,note_on,10,0,4,,,,,,,,,0,,,53,0
10730,note_on,10,0,4,,,,,,,,,0,,,62,0
10730,note_on,0,0,4,,,,,,,,,0,,,53,100
10740,note_on,10,0,4,,,,,,,,,0,,,53,0
10740,note_on,0,0,4,,,,,,,,,0,,,62,100
10750,note_on,0,0,4,,,,,,,,,0,,,53,100
10750,note_on,10,0,4,,,,,,,,,0,,,62,0
10760,note_on,0,0,4,,,,,,,,,0,,,62,100
10760,note_on,10,0,4,,,,,,,,,0,,,53,0
10770,control_change,55,0,5,,,,,,,,,0,64,0,,
10770,note_on,0,0,1,,,,,,,,,0,,,68,0
10770,note_on,0,0,1,,,,,,,,,0,,,67,110
10770,note_on,0,0,4,,,,,,,,,0,,,55,100
10770,note_on,0,0,1,,,,,,,,,0,,,71,0
10770,note_on,10,0,4,,,,,,,,,0,,,62,0
10770,note_on,60,0,1,,,,,,,,,0,,,74,0
10770,note_on,0,0,1,,,,,,,,,0,,,72,110
10775,control_change,5,0,5,,,,,,,,,0,64,127,,
10780,note_on,10,0,4,,,,,,,,,0,,,55,0
10780,note_on,0,0,4,,,,,,,,,0,,,63,100
10790,note_on,10,0,4,,,,,,,,,0,,,63,0
10790,note_on,0,0,4,,,,,,,,,0,,,55,100
10800,note_on,0,0,4,,,,,,,,,0,,,63,100
10800,note_on,10,0,4,,,,,,,,,0,,,55,0
10810,note_on,10,0,4,,,,,,,,,0,,,63,0
10810,note_on,0,0,4,,,,,,,,,0,,,55,100
10820,note_on,10,0,4,,,,,,,,,0,,,55,0
10820,note_on,0,0,4,,,,,,,,,0,,,63,100
10830,control_change,55,0,5,,,,,,,,,0,64,0,,
10830,note_on,0,0,2,,,,,,,,,0,,,55,120
10830,note_on,60,0,1,,,,,,,,,0,,,67,0
10830,note_on,360,0,2,,,,,,,,,0,,,63,120
10830,note_on,10,0,4,,,,,,,,,0,,,63,0
10830,note_on,0,0,1,,,,,,,,,0,,,72,0
10830,note_on,0,0,4,,,,,,,,,0,,,39,110
10830,note_on,0,0,4,,,,,,,,,0,,,27,110
10835,control_change,5,0,5,,,,,,,,,0,64,127,,
10840,note_on,10,0,2,,,,,,,,,0,,,55,0
10840,note_on,0,0,2,,,,,,,,,0,,,63,0
10840,note_on,0,0,2,,,,,,,,,0,,,67,100
10850,note_on,10,0,2,,,,,,,,,0,,,67,0
10850,note_on,0,0,2,,,,,,,,,0,,,63,100
10850,note_on,0,0,2,,,,,,,,,0,,,55,100
10860,note_on,0,0,2,,,,,,,,,0,,,63,0
10860,note_on,10,0,2,,,,,,,,,0,,,55,0
10860,note_on,0,0,2,,,,,,,,,0,,,67,100
10870,note_on,10,0,2,,,,,,,,,0,,,67,0
10870,note_on,0,0,2,,,,,,,,,0,,,63,100
10870,note_on,0,0,2,,,,,,,,,0,,,55,100
10880,note_on,0,0,2,,,,,,,,,0,,,67,100
10880,note_on,10,0,2,,,,,,,,,0,,,63,0
10880,note_on,0,0,2,,,,,,,,,0,,,55,0
10890,note_on,0,0,2,,,,,,,,,0,,,53,120
10890,note_on,0,0,2,,,,,,,,,0,,,62,120
10890,note_on,0,0,4,,,,,,,,,0,,,41,110
10890,note_on,10,0,2,,,,,,,,,0,,,67,0
10890,note_on,0,0,4,,,,,,,,,0,,,27,0
10890,control_change,55,0,5,,,,,,,,,0,64,0,,
10890,note_on,60,0,4,,,,,,,,,0,,,39,0
10890,note_on,0,0,4,,,,,,,,,0,,,29,110
10895,control_change,5,0,5,,,,,,,,,0,64,127,,
10900,note_on,0,0,2,,,,,,,,,0,,,62,0
10900,note_on,0,0,2,,,,,,,,,0,,,65,100
10900,note_on,10,0,2,,,,,,,,,0,,,53,0
10910,note_on,10,0,2,,,,,,,,,0,,,65,0
10910,note_on,0,0,2,,,,,,,,,0,,,53,100
10910,note_on,0,0,2,,,,,,,,,0,,,62,100
10920,note_on,10,0,2,,,,,,,,,0,,,53,0
10920,note_on,0,0,2,,,,,,,,,0,,,62,0
10920,note_on,0,0,2,,,,,,,,,0,,,65,100
10930,note_on,0,0,2,,,,,,,,,0,,,62,100
10930,note_on,0,0,2,,,,,,,,,0,,,53,100
10930,note_on,10,0,2,,,,,,,,,0,,,65,0
10940,note_on,0,0,2,,,,,,,,,0,,,65,100
10940,note_on,0,0,2,,,,,,,,,0,,,53,0
10940,note_on,10,0,2,,,,,,,,,0,,,62,0
10950,note_on,0,0,2,,,,,,,,,0,,,60,120
10950,note_on,10,0,2,,,,,,,,,0,,,65,0
10950,control_change,55,0,5,,,,,,,,,0,64,0,,
10950,note_on,0,0,4,,,,,,,,,0,,,30,110
10950,note_on,0,0,4,,,,,,,,,0,,,41,0
10950,note_on,0,0,4,,,,,,,,,0,,,42,110
10950,note_on,0,0,2,,,,,,,,,0,,,51,120
10950,note_on,60,0,4,,,,,,,,,0,,,29,0
10955,control_change,5,0,5,,,,,,,,,0,64,127,,
10960,note_on,0,0,2,,,,,,,,,0,,,60,0
10960,note_on,10,0,2,,,,,,,,,0,,,51,0
10960,note_on,0,0,2,,,,,,,,,0,,,63,100
10970,note_on,10,0,2,,,,,,,,,0,,,63,0
10970,note_on,0,0,2,,,,,,,,,0,,,51,100
10970,note_on,0,0,2,,,,,,,,,0,,,60,100
10980,note_on,0,0,2,,,,,,,,,0,,,60,0
10980,note_on,0,0,2,,,,,,,,,0,,,63,100
10980,note_on,10,0,2,,,,,,,,,0,,,51,0
10980,note_on,30,0,4,,,,,,,,,0,,,31,110
10987,note_on,7,0,4,,,,,,,,,0,,,35,110
10988,note_on,1,0,4,,,,,,,,,0,,,31,0
10990,note_on,10,0,2,,,,,,,,,0,,,63,0
10990,note_on,0,0,2,,,,,,,,,0,,,51,100
10990,note_on,0,0,2,,,,,,,,,0,,,60,100
10995,note_on,7,0,4,,,,,,,,,0,,,35,0
10995,note_on,0,0,4,,,,,,,,,0,,,38,110
11000,note_on,10,0,2,,,,,,,,,0,,,60,0
11000,note_on,0,0,2,,,,,,,,,0,,,51,0
11000,note_on,0,0,2,,,,,,,,,0,,,63,100
11002,note_on,7,0,4,,,,,,,,,0,,,43,110
11003,note_on,1,0,4,,,,,,,,,0,,,38,0
11010,note_on,1620,0,3,,,,,,,,,0,,,74,127
11010,note_on,0,0,3,,,,,,,,,0,,,71,127
11010,note_on,7,0,4,,,,,,,,,0,,,42,0
11010,note_on,0,0,2,,,,,,,,,0,,,59,100
11010,note_on,0,0,4,,,,,,,,,0,,,43,0
11010,note_on,0,0,4,,,,,,,,,0,,,30,0
11010,control_change,55,0,5,,,,,,,,,0,64,127,,
11010,control_change,0,0,5,,,,,,,,,0,64,0,,
11010,note_on,10,0,2,,,,,,,,,0,,,63,0
11010,note_on,0,0,2,,,,,,,,,0,,,50,100
11017,note_on,7,0,2,,,,,,,,,0,,,62,100
11018,note_on,0,0,2,,,,,,,,,0,,,50,0
11018,note_on,1,0,2,,,,,,,,,0,,,59,0
11025,note_on,0,0,2,,,,,,,,,0,,,59,100
11025,note_on,0,0,2,,,,,,,,,0,,,50,100
11025,note_on,7,0,2,,,,,,,,,0,,,62,0
11032,note_on,7,0,2,,,,,,,,,0,,,62,100
11033,note_on,1,0,2,,,,,,,,,0,,,59,0
11033,note_on,0,0,2,,,,,,,,,0,,,50,0
11040,note_on,0,0,2,,,,,,,,,0,,,59,100
11040,note_on,0,0,2,,,,,,,,,0,,,50,100
11040,note_on,7,0,2,,,,,,,,,0,,,62,0
11047,note_on,7,0,2,,,,,,,,,0,,,62,100
11048,note_on,0,0,2,,,,,,,,,0,,,50,0
11048,note_on,1,0,2,,,,,,,,,0,,,59,0
11055,note_on,7,0,2,,,,,,,,,0,,,62,0
11055,note_on,0,0,2,,,,,,,,,0,,,50,100
11055,note_on,0,0,2,,,,,,,,,0,,,59,100
11062,note_on,7,0,2,,,,,,,,,0,,,62,100
11063,note_on,1,0,2,,,,,,,,,0,,,59,0
11063,note_on,0,0,2,,,,,,,,,0,,,50,0
11070,note_on,7,0,2,,,,,,,,,0,,,62,0
11070,note_on,0,0,2,,,,,,,,,0,,,59,100
11070,note_on,0,0,2,,,,,,,,,0,,,50,100
11077,note_on,7,0,2,,,,,,,,,0,,,62,100
11078,note_on,0,0,2,,,,,,,,,0,,,50,0
11078,note_on,1,0,2,,,,,,,,,0,,,59,0
11085,note_on,0,0,2,,,,,,,,,0,,,50,100
11085,note_on,0,0,2,,,,,,,,,0,,,59,100
11085,note_on,7,0,2,,,,,,,,,0,,,62,0
11092,note_on,7,0,2,,,,,,,,,0,,,62,100
11093,note_on,1,0,2,,,,,,,,,0,,,59,0
11093,note_on,0,0,2,,,,,,,,,0,,,50,0
11100,note_on,0,0,2,,,,,,,,,0,,,59,100
11100,note_on,7,0,2,,,,,,,,,0,,,62,0
11100,note_on,0,0,2,,,,,,,,,0,,,50,100
11107,note_on,7,0,2,,,,,,,,,0,,,62,100
11108,note_on,0,0,2,,,,,,,,,0,,,50,0
11108,note_on,1,0,2,,,,,,,,,0,,,59,0
11115,note_on,7,0,2,,,,,,,,,0,,,62,0
11115,note_on,0,0,2,,,,,,,,,0,,,59,100
11115,note_on,0,0,2,,,,,,,,,0,,,50,100
11122,note_on,7,0,2,,,,,,,,,0,,,62,100
11123,note_on,1,0,2,,,,,,,,,0,,,59,0
11123,note_on,0,0,2,,,,,,,,,0,,,50,0
11130,note_on,0,0,2,,,,,,,,,0,,,59,100
11130,note_on,0,0,2,,,,,,,,,0,,,50,100
11130,note_on,7,0,2,,,,,,,,,0,,,62,0
11137,note_on,7,0,2,,,,,,,,,0,,,62,100
11138,note_on,0,0,2,,,,,,,,,0,,,50,0
11138,note_on,1,0,2,,,,,,,,,0,,,59,0
11145,note_on,0,0,2,,,,,,,,,0,,,59,100
11145,note_on,0,0,2,,,,,,,,,0,,,50,100
11145,note_on,7,0,2,,,,,,,,,0,,,62,0
11152,note_on,7,0,2,,,,,,,,,0,,,62,100
11153,note_on,0,0,2,,,,,,,,,0,,,50,0
11153,note_on,1,0,2,,,,,,,,,0,,,59,0
11160,note_on,7,0,2,,,,,,,,,0,,,62,0
11160,note_on,0,0,2,,,,,,,,,0,,,50,100
11160,note_on,0,0,2,,,,,,,,,0,,,59,100
11167,note_on,7,0,2,,,,,,,,,0,,,62,100
11168,note_on,0,0,2,,,,,,,,,0,,,50,0
11168,note_on,1,0,2,,,,,,,,,0,,,59,0
11175,note_on,0,0,2,,,,,,,,,0,,,50,100
11175,note_on,0,0,2,,,,,,,,,0,,,59,100
11175,note_on,7,0,2,,,,,,,,,0,,,62,0
11182,note_on,7,0,2,,,,,,,,,0,,,62,100
11183,note_on,1,0,2,,,,,,,,,0,,,59,0
11183,note_on,0,0,2,,,,,,,,,0,,,50,0
11185,control_change,175,0,5,,,,,,,,,0,64,0,,
11190,note_on,7,0,2,,,,,,,,,0,,,62,0
11190,control_change,5,0,5,,,,,,,,,0,64,0,,
11190,note_on,0,0,3,,,,,,,,,0,,,74,0
11190,note_on,180,0,3,,,,,,,,,0,,,71,0
11190,note_on,180,0,4,,,,,,,,,0,,,53,120
11195,control_change,5,0,5,,,,,,,,,0,64,127,,
11200,note_on,10,0,4,,,,,,,,,0,,,57,100
11210,note_on,10,0,4,,,,,,,,,0,,,57,0
11210,note_on,0,0,4,,,,,,,,,0,,,53,100
11220,note_on,0,0,4,,,,,,,,,0,,,57,100
11220,note_on,390,0,1,,,,,,,,,0,,,59,110
11220,note_on,0,0,1,,,,,,,,,0,,,62,110
11220,note_on,10,0,4,,,,,,,,,0,,,53,0
11220,note_on,0,0,1,,,,,,,,,0,,,71,110
11230,note_on,10,0,4,,,,,,,,,0,,,57,0
11230,note_on,0,0,4,,,,,,,,,0,,,53,100
11240,note_on,10,0,4,,,,,,,,,0,,,53,0
11240,note_on,0,0,4,,,,,,,,,0,,,57,100
11250,control_change,55,0,5,,,,,,,,,0,64,0,,
11250,note_on,10,0,4,,,,,,,,,0,,,57,0
11250,note_on,0,0,4,,,,,,,,,0,,,53,0
11250,note_on,0,0,4,,,,,,,,,0,,,51,121
11255,control_change,5,0,5,,,,,,,,,0,64,127,,
11260,note_on,10,0,4,,,,,,,,,0,,,55,101
11270,note_on,10,0,4,,,,,,,,,0,,,55,0
11270,note_on,0,0,4,,,,,,,,,0,,,51,102
11280,note_on,0,0,1,,,,,,,,,0,,,60,112
11280,note_on,0,0,1,,,,,,,,,0,,,63,112
11280,note_on,0,0,1,,,,,,,,,0,,,72,112
11280,note_on,0,0,1,,,,,,,,,0,,,59,0
11280,note_on,0,0,4,,,,,,,,,0,,,55,102
11280,note_on,10,0,4,,,,,,,,,0,,,51,0
11280,note_on,60,0,1,,,,,,,,,0,,,71,0
11280,note_on,0,0,1,,,,,,,,,0,,,62,0
11290,note_on,0,0,4,,,,,,,,,0,,,51,102
11290,note_on,10,0,4,,,,,,,,,0,,,55,0
11300,note_on,10,0,4,,,,,,,,,0,,,51,0
11300,note_on,0,0,4,,,,,,,,,0,,,55,103
11310,note_on,0,0,4,,,,,,,,,0,,,51,0
11310,note_on,0,0,4,,,,,,,,,0,,,44,123
11310,control_change,55,0,5,,,,,,,,,0,64,0,,
11310,note_on,10,0,4,,,,,,,,,0,,,55,0
11315,control_change,5,0,5,,,,,,,,,0,64,127,,
11320,note_on,10,0,4,,,,,,,,,0,,,53,104
11330,note_on,10,0,4,,,,,,,,,0,,,53,0
11330,note_on,0,0,4,,,,,,,,,0,,,44,104
11340,note_on,0,0,1,,,,,,,,,0,,,63,0
11340,note_on,0,0,1,,,,,,,,,0,,,72,0
11340,note_on,0,0,1,,,,,,,,,0,,,62,114
11340,note_on,0,0,4,,,,,,,,,0,,,53,104
11340,note_on,10,0,4,,,,,,,,,0,,,44,0
11340,note_on,0,0,1,,,,,,,,,0,,,74,114
11340,note_on,0,0,1,,,,,,,,,0,,,71,114
11340,note_on,60,0,1,,,,,,,,,0,,,60,0
11350,note_on,10,0,4,,,,,,,,,0,,,53,0
11350,note_on,0,0,4,,,,,,,,,0,,,44,105
11360,note_on,0,0,4,,,,,,,,,0,,,53,105
11360,note_on,10,0,4,,,,,,,,,0,,,44,0
11370,note_on,10,0,4,,,,,,,,,0,,,53,0
11370,note_on,0,0,4,,,,,,,,,0,,,44,0
11370,control_change,0,0,5,,,,,,,,,0,64,0,,
11370,control_change,55,0,5,,,,,,,,,0,64,0,,
11370,note_on,0,0,4,,,,,,,,,0,,,43,126
11375,control_change,5,0,5,,,,,,,,,0,64,127,,
11380,note_on,10,0,4,,,,,,,,,0,,,51,106
11390,note_on,10,0,4,,,,,,,,,0,,,51,0
11390,note_on,0,0,4,,,,,,,,,0,,,43,107
11400,note_on,0,0,4,,,,,,,,,0,,,51,107
11400,note_on,0,0,1,,,,,,,,,0,,,75,117
11400,note_on,10,0,4,,,,,,,,,0,,,43,0
11400,note_on,0,0,1,,,,,,,,,0,,,72,117
11400,note_on,0,0,1,,,,,,,,,0,,,74,0
11400,note_on,0,0,1,,,,,,,,,0,,,63,117
11400,note_on,0,0,1,,,,,,,,,0,,,62,0
11400,note_on,60,0,1,,,,,,,,,0,,,71,0
11410,note_on,0,0,4,,,,,,,,,0,,,43,107
11410,note_on,10,0,4,,,,,,,,,0,,,51,0
11420,note_on,0,0,4,,,,,,,,,0,,,51,108
11420,note_on,10,0,4,,,,,,,,,0,,,43,0
11430,note_on,0,0,4,,,,,,,,,0,,,41,127
11430,note_on,0,0,4,,,,,,,,,0,,,43,0
11430,note_on,10,0,4,,,,,,,,,0,,,51,0
11430,control_change,55,0,5,,,,,,,,,0,64,0,,
11435,control_change,5,0,5,,,,,,,,,0,64,127,,
11440,note_on,10,0,4,,,,,,,,,0,,,50,109
11450,note_on,0,0,4,,,,,,,,,0,,,41,109
11450,note_on,10,0,4,,,,,,,,,0,,,50,0
11460,note_on,0,0,1,,,,,,,,,0,,,77,119
11460,note_on,10,0,4,,,,,,,,,0,,,41,0
11460,note_on,0,0,1,,,,,,,,,0,,,75,0
11460,note_on,0,0,1,,,,,,,,,0,,,65,119
11460,note_on,0,0,1,,,,,,,,,0,,,72,0
11460,note_on,60,0,1,,,,,,,,,0,,,63,0
11460,note_on,0,0,1,,,,,,,,,0,,,74,119
11460,note_on,0,0,4,,,,,,,,,0,,,50,109
11470,note_on,10,0,4,,,,,,,,,0,,,50,0
11470,note_on,0,0,4,,,,,,,,,0,,,41,110
11480,note_on,0,0,4,,,,,,,,,0,,,50,110
11480,note_on,10,0,4,,,,,,,,,0,,,41,0
11490,control_change,55,0,5,,,,,,,,,0,64,0,,
11490,note_on,0,0,4,,,,,,,,,0,,,41,0
11490,note_on,0,0,4,,,,,,,,,0,,,39,127
11490,note_on,10,0,4,,,,,,,,,0,,,50,0
11495,control_change,5,0,5,,,,,,,,,0,64,127,,
11500,note_on,10,0,4,,,,,,,,,0,,,48,111
11510,note_on,0,0,4,,,,,,,,,0,,,39,112
11510,note_on,10,0,4,,,,,,,,,0,,,48,0
11520,note_on,10,0,4,,,,,,,,,0,,,39,0
11520,note_on,0,0,1,,,,,,,,,0,,,67,122
11520,note_on,0,0,1,,,,,,,,,0,,,79,122
11520,note_on,0,0,1,,,,,,,,,0,,,75,122
11520,note_on,0,0,1,,,,,,,,,0,,,74,0
11520,note_on,0,0,4,,,,,,,,,0,,,48,112
11520,note_on,60,0,1,,,,,,,,,0,,,77,0
11520,note_on,0,0,1,,,,,,,,,0,,,65,0
11530,note_on,10,0,4,,,,,,,,,0,,,48,0
11530,note_on,0,0,4,,,,,,,,,0,,,39,112
11540,note_on,10,0,4,,,,,,,,,0,,,39,0
11540,note_on,0,0,4,,,,,,,,,0,,,48,113
11550,note_on,0,0,4,,,,,,,,,0,,,38,127
11550,note_on,0,0,4,,,,,,,,,0,,,39,0
11550,note_on,10,0,4,,,,,,,,,0,,,48,0
11550,control_change,55,0,5,,,,,,,,,0,64,0,,
11555,control_change,5,0,5,,,,,,,,,0,64,127,,
11560,note_on,10,0,4,,,,,,,,,0,,,47,114
11570,note_on,0,0,4,,,,,,,,,0,,,38,114
11570,note_on,10,0,4,,,,,,,,,0,,,47,0
11580,note_on,60,0,1,,,,,,,,,0,,,67,0
11580,note_on,0,0,4,,,,,,,,,0,,,47,114
11580,note_on,0,0,1,,,,,,,,,0,,,67,124
11580,note_on,0,0,1,,,,,,,,,0,,,79,0
11580,note_on,0,0,1,,,,,,,,,0,,,77,124
11580,note_on,0,0,1,,,,,,,,,0,,,79,124
11580,note_on,0,0,1,,,,,,,,,0,,,75,0
11580,note_on,10,0,4,,,,,,,,,0,,,38,0
11590,note_on,10,0,4,,,,,,,,,0,,,47,0
11590,note_on,0,0,4,,,,,,,,,0,,,38,115
11600,note_on,0,0,4,,,,,,,,,0,,,47,115
11600,note_on,10,0,4,,,,,,,,,0,,,38,0
11610,control_change,55,0,5,,,,,,,,,0,64,0,,
11610,note_on,0,0,4,,,,,,,,,0,,,38,0
11610,note_on,0,0,4,,,,,,,,,0,,,36,127
11610,note_on,10,0,4,,,,,,,,,0,,,47,0
11610,note_on,0,0,4,,,,,,,,,0,,,39,116
11615,control_change,5,0,5,,,,,,,,,0,64,127,,
11620,note_on,0,0,4,,,,,,,,,0,,,48,116
11620,note_on,10,0,4,,,,,,,,,0,,,39,0
11630,note_on,10,0,4,,,,,,,,,0,,,48,0
11630,note_on,0,0,4,,,,,,,,,0,,,39,117
11640,note_on,0,0,4,,,,,,,,,0,,,48,117
11640,note_on,0,0,1,,,,,,,,,0,,,77,0
11640,note_on,0,0,1,,,,,,,,,0,,,79,127
11640,note_on,0,0,1,,,,,,,,,0,,,67,0
11640,note_on,0,0,1,,,,,,,,,0,,,87,127
11640,note_on,60,0,1,,,,,,,,,0,,,79,0
11640,note_on,0,0,1,,,,,,,,,0,,,75,127
11640,note_on,10,0,4,,,,,,,,,0,,,39,0
11650,note_on,0,0,4,,,,,,,,,0,,,39,117
11650,note_on,10,0,4,,,,,,,,,0,,,48,0
11660,note_on,10,0,4,,,,,,,,,0,,,39,0
11660,note_on,0,0,4,,,,,,,,,0,,,48,118
11670,control_change,55,0,5,,,,,,,,,0,64,0,,
11670,note_on,10,0,4,,,,,,,,,0,,,48,0
11670,note_on,0,0,4,,,,,,,,,0,,,40,118
11670,note_on,0,0,4,,,,,,,,,0,,,36,0
11670,note_on,0,0,4,,,,,,,,,0,,,34,127
11675,control_change,5,0,5,,,,,,,,,0,64,127,,
11680,note_on,0,0,4,,,,,,,,,0,,,46,119
11680,note_on,10,0,4,,,,,,,,,0,,,40,0
11690,note_on,10,0,4,,,,,,,,,0,,,46,0
11690,note_on,0,0,4,,,,,,,,,0,,,34,119
11690,note_on,0,0,4,,,,,,,,,0,,,40,119
11700,note_on,10,0,4,,,,,,,,,0,,,40,0
11700,note_on,60,0,1,,,,,,,,,0,,,75,0
11700,note_on,0,0,4,,,,,,,,,0,,,34,0
11700,note_on,0,0,1,,,,,,,,,0,,,86,127
11700,note_on,0,0,1,,,,,,,,,0,,,80,127
11700,note_on,0,0,1,,,,,,,,,0,,,79,0
11700,note_on,0,0,1,,,,,,,,,0,,,87,0
11700,note_on,0,0,4,,,,,,,,,0,,,46,119
11700,note_on,0,0,1,,,,,,,,,0,,,74,127
11710,note_on,10,0,4,,,,,,,,,0,,,46,0
11710,note_on,0,0,4,,,,,,,,,0,,,34,120
11710,note_on,0,0,4,,,,,,,,,0,,,40,120
11720,note_on,10,0,4,,,,,,,,,0,,,40,0
11720,note_on,0,0,4,,,,,,,,,0,,,34,0
11720,note_on,0,0,4,,,,,,,,,0,,,46,120
11730,note_on,0,0,1,,,,,,,,,0,,,73,127
11730,note_on,0,0,4,,,,,,,,,0,,,45,120
11730,note_on,10,0,4,,,,,,,,,0,,,46,0
11730,note_on,0,0,1,,,,,,,,,0,,,85,127
11730,note_on,0,0,1,,,,,,,,,0,,,80,0
11730,note_on,30,0,1,,,,,,,,,0,,,74,0
11730,note_on,0,0,4,,,,,,,,,0,,,33,120
11730,note_on,0,0,4,,,,,,,,,0,,,34,0
11730,note_on,0,0,4,,,,,,,,,0,,,40,120
11730,note_on,0,0,1,,,,,,,,,0,,,81,127
11730,control_change,55,0,5,,,,,,,,,0,64,0,,
11730,note_on,0,0,1,,,,,,,,,0,,,86,0
11745,note_on,0,0,4,,,,,,,,,0,,,40,0
11745,note_on,0,0,4,,,,,,,,,0,,,33,0
11745,note_on,0,0,1,,,,,,,,,0,,,85,0
11745,note_on,15,0,1,,,,,,,,,0,,,73,0
11745,note_on,15,0,4,,,,,,,,,0,,,45,0
11745,note_on,0,0,1,,,,,,,,,0,,,81,0
11790,note_on,600,0,2,,,,,,,,,0,,,52,100
11790,note_on,0,0,2,,,,,,,,,0,,,61,100
11797,note_on,7,0,2,,,,,,,,,0,,,64,100
11798,note_on,0,0,2,,,,,,,,,0,,,52,0
11798,note_on,1,0,2,,,,,,,,,0,,,61,0
11805,note_on,7,0,2,,,,,,,,,0,,,64,0
11805,note_on,0,0,2,,,,,,,,,0,,,52,100
11805,note_on,0,0,2,,,,,,,,,0,,,61,100
11812,note_on,7,0,2,,,,,,,,,0,,,64,100
11813,note_on,1,0,2,,,,,,,,,0,,,61,0
11813,note_on,0,0,2,,,,,,,,,0,,,52,0
11820,note_on,0,0,2,,,,,,,,,0,,,61,100
11820,note_on,7,0,2,,,,,,,,,0,,,64,0
11820,note_on,0,0,2,,,,,,,,,0,,,52,100
11827,note_on,7,0,2,,,,,,,,,0,,,64,100
11828,note_on,0,0,2,,,,,,,,,0,,,52,0
11828,note_on,1,0,2,,,,,,,,,0,,,61,0
11835,note_on,0,0,2,,,,,,,,,0,,,61,100
11835,note_on,0,0,2,,,,,,,,,0,,,52,100
11835,note_on,7,0,2,,,,,,,,,0,,,64,0
11842,note_on,7,0,2,,,,,,,,,0,,,64,100
11843,note_on,0,0,2,,,,,,,,,0,,,52,0
11843,note_on,1,0,2,,,,,,,,,0,,,61,0
11850,note_on,0,0,2,,,,,,,,,0,,,52,100
11850,note_on,0,0,2,,,,,,,,,0,,,61,100
11850,note_on,7,0,2,,,,,,,,,0,,,64,0
11857,note_on,7,0,2,,,,,,,,,0,,,64,100
11858,note_on,0,0,2,,,,,,,,,0,,,52,0
11858,note_on,1,0,2,,,,,,,,,0,,,61,0
11865,note_on,0,0,2,,,,,,,,,0,,,52,100
11865,note_on,0,0,2,,,,,,,,,0,,,61,100
11865,note_on,7,0,2,,,,,,,,,0,,,64,0
11872,note_on,7,0,2,,,,,,,,,0,,,64,100
11873,note_on,1,0,2,,,,,,,,,0,,,61,0
11873,note_on,0,0,2,,,,,,,,,0,,,52,0
11880,note_on,0,0,2,,,,,,,,,0,,,61,100
11880,note_on,7,0,2,,,,,,,,,0,,,64,0
11880,note_on,0,0,2,,,,,,,,,0,,,52,100
11887,note_on,7,0,2,,,,,,,,,0,,,64,100
11888,note_on,0,0,2,,,,,,,,,0,,,52,0
11888,note_on,1,0,2,,,,,,,,,0,,,61,0
11895,note_on,0,0,2,,,,,,,,,0,,,52,100
11895,note_on,0,0,2,,,,,,,,,0,,,61,100
11895,note_on,7,0,2,,,,,,,,,0,,,64,0
11902,note_on,7,0,2,,,,,,,,,0,,,64,100
11903,note_on,0,0,2,,,,,,,,,0,,,52,0
11903,note_on,1,0,2,,,,,,,,,0,,,61,0
11910,note_on,165,0,4,,,,,,,,,0,,,49,100
11910,note_on,165,0,1,,,,,,,,,0,,,81,110
11910,note_on,0,0,1,,,,,,,,,0,,,69,110
11910,control_change,180,0,5,,,,,,,,,0,64,0,,
11910,note_on,7,0,2,,,,,,,,,0,,,64,0
11915,control_change,5,0,5,,,,,,,,,0,64,127,,
11920,note_on,10,0,4,,,,,,,,,0,,,49,0
11920,note_on,0,0,4,,,,,,,,,0,,,57,100
11930,note_on,10,0,4,,,,,,,,,0,,,57,0
11930,note_on,0,0,4,,,,,,,,,0,,,49,100
11940,note_on,10,0,4,,,,,,,,,0,,,49,0
11940,note_on,0,0,4,,,,,,,,,0,,,57,100
11950,note_on,10,0,4,,,,,,,,,0,,,57,0
11950,note_on,0,0,4,,,,,,,,,0,,,49,100
11960,note_on,0,0,4,,,,,,,,,0,,,57,100
11960,note_on,10,0,4,,,,,,,,,0,,,49,0
11970,note_on,10,0,4,,,,,,,,,0,,,57,0
11970,control_change,55,0,5,,,,,,,,,0,64,0,,
11970,note_on,0,0,1,,,,,,,,,0,,,68,110
11970,note_on,0,0,1,,,,,,,,,0,,,80,110
11970,note_on,60,0,1,,,,,,,,,0,,,69,0
11970,note_on,0,0,1,,,,,,,,,0,,,81,0
11970,note_on,0,0,4,,,,,,,,,0,,,50,100
11975,control_change,5,0,5,,,,,,,,,0,64,127,,
11980,note_on,0,0,4,,,,,,,,,0,,,59,100
11980,note_on,10,0,4,,,,,,,,,0,,,50,0
11990,note_on,10,0,4,,,,,,,,,0,,,59,0
11990,note_on,0,0,4,,,,,,,,,0,,,50,100
12000,note_on,0,0,4,,,,,,,,,0,,,59,100
12000,note_on,10,0,4,,,,,,,,,0,,,50,0
12010,note_on,10,0,4,,,,,,,,,0,,,59,0
12010,note_on,0,0,4,,,,,,,,,0,,,50,100
12020,note_on,0,0,4,,,,,,,,,0,,,59,100
12020,note_on,10,0,4,,,,,,,,,0,,,50,0
12030,note_on,0,0,1,,,,,,,,,0,,,67,110
12030,note_on,0,0,1,,,,,,,,,0,,,79,110
12030,note_on,0,0,1,,,,,,,,,0,,,80,0
12030,note_on,0,0,4,,,,,,,,,0,,,52,100
12030,note_on,10,0,4,,,,,,,,,0,,,59,0
12030,note_on,60,0,1,,,,,,,,,0,,,68,0
12030,control_change,55,0,5,,,,,,,,,0,64,0,,
12035,control_change,5,0,5,,,,,,,,,0,64,127,,
12040,note_on,10,0,4,,,,,,,,,0,,,52,0
12040,note_on,0,0,4,,,,,,,,,0,,,61,100
12050,note_on,10,0,4,,,,,,,,,0,,,61,0
12050,note_on,0,0,4,,,,,,,,,0,,,52,100
12060,note_on,0,0,4,,,,,,,,,0,,,61,100
12060,note_on,10,0,4,,,,,,,,,0,,,52,0
12070,note_on,10,0,4,,,,,,,,,0,,,61,0
12070,note_on,0,0,4,,,,,,,,,0,,,52,100
12080,note_on,10,0,4,,,,,,,,,0,,,52,0
12080,note_on,0,0,4,,,,,,,,,0,,,61,100
12090,note_on,10,0,4,,,,,,,,,0,,,61,0
12090,control_change,0,0,5,,,,,,,,,0,64,0,,
12090,note_on,0,0,4,,,,,,,,,0,,,53,100
12090,control_change,55,0,5,,,,,,,,,0,64,0,,
12090,note_on,60,0,1,,,,,,,,,0,,,67,0
12090,note_on,0,0,1,,,,,,,,,0,,,65,110
12090,note_on,0,0,1,,,,,,,,,0,,,77,110
12090,note_on,0,0,1,,,,,,,,,0,,,79,0
12095,control_change,5,0,5,,,,,,,,,0,64,127,,
12100,note_on,0,0,4,,,,,,,,,0,,,62,100
12100,note_on,10,0,4,,,,,,,,,0,,,53,0
12110,note_on,0,0,4,,,,,,,,,0,,,53,100
12110,note_on,10,0,4,,,,,,,,,0,,,62,0
12120,note_on,0,0,4,,,,,,,,,0,,,62,100
12120,note_on,10,0,4,,,,,,,,,0,,,53,0
12130,note_on,0,0,4,,,,,,,,,0,,,53,100
12130,note_on,10,0,4,,,,,,,,,0,,,62,0
12140,note_on,10,0,4,,,,,,,,,0,,,53,0
12140,note_on,0,0,4,,,,,,,,,0,,,62,100
12150,note_on,0,0,1,,,,,,,,,0,,,73,110
12150,note_on,0,0,1,,,,,,,,,0,,,76,110
12150,note_on,60,0,1,,,,,,,,,0,,,77,0
12150,note_on,0,0,4,,,,,,,,,0,,,55,100
12150,note_on,0,0,1,,,,,,,,,0,,,70,110
12150,note_on,0,0,1,,,,,,,,,0,,,65,0
12150,note_on,10,0,4,,,,,,,,,0,,,62,0
12150,control_change,55,0,5,,,,,,,,,0,64,0,,
12155,control_change,5,0,5,,,,,,,,,0,64,127,,
12160,note_on,10,0,4,,,,,,,,,0,,,55,0
12160,note_on,0,0,4,,,,,,,,,0,,,64,100
12170,note_on,10,0,4,,,,,,,,,0,,,64,0
12170,note_on,0,0,4,,,,,,,,,0,,,55,100
12180,note_on,10,0,4,,,,,,,,,0,,,55,0
12180,note_on,0,0,4,,,,,,,,,0,,,64,100
12190,note_on,0,0,4,,,,,,,,,0,,,55,100
12190,note_on,10,0,4,,,,,,,,,0,,,64,0
12200,note_on,0,0,4,,,,,,,,,0,,,64,100
12200,note_on,10,0,4,,,,,,,,,0,,,55,0
12210,note_on,60,0,1,,,,,,,,,0,,,76,0
12210,note_on,0,0,1,,,,,,,,,0,,,74,110
12210,note_on,0,0,1,,,,,,,,,0,,,70,0
12210,note_on,0,0,1,,,,,,,,,0,,,73,0
12210,control_change,55,0,5,,,,,,,,,0,64,0,,
12210,note_on,10,0,4,,,,,,,,,0,,,64,0
12210,note_on,0,0,1,,,,,,,,,0,,,69,110
12210,note_on,0,0,4,,,,,,,,,0,,,57,100
12215,control_change,5,0,5,,,,,,,,,0,64,127,,
12220,note_on,10,0,4,,,,,,,,,0,,,57,0
12220,note_on,0,0,4,,,,,,,,,0,,,65,100
12230,note_on,10,0,4,,,,,,,,,0,,,65,0
12230,note_on,0,0,4,,,,,,,,,0,,,57,100
12240,note_on,0,0,4,,,,,,,,,0,,,65,100
12240,note_on,10,0,4,,,,,,,,,0,,,57,0
12250,note_on,10,0,4,,,,,,,,,0,,,65,0
12250,note_on,0,0,4,,,,,,,,,0,,,57,100
12260,note_on,10,0,4,,,,,,,,,0,,,57,0
12260,note_on,0,0,4,,,,,,,,,0,,,65,100
12270,note_on,0,0,2,,,,,,,,,0,,,57,120
12270,note_on,0,0,4,,,,,,,,,0,,,41,110
12270,note_on,60,0,1,,,,,,,,,0,,,69,0
12270,note_on,10,0,4,,,,,,,,,0,,,65,0
12270,note_on,0,0,1,,,,,,,,,0,,,74,0
12270,note_on,360,0,2,,,,,,,,,0,,,65,120
12270,note_on,0,0,4,,,,,,,,,0,,,29,110
12270,control_change,55,0,5,,,,,,,,,0,64,0,,
12275,control_change,5,0,5,,,,,,,,,0,64,127,,
12280,note_on,10,0,2,,,,,,,,,0,,,57,0
12280,note_on,0,0,2,,,,,,,,,0,,,65,0
12280,note_on,0,0,2,,,,,,,,,0,,,69,100
12290,note_on,0,0,2,,,,,,,,,0,,,57,100
12290,note_on,0,0,2,,,,,,,,,0,,,65,100
12290,note_on,10,0,2,,,,,,,,,0,,,69,0
12300,note_on,0,0,2,,,,,,,,,0,,,65,0
12300,note_on,0,0,2,,,,,,,,,0,,,69,100
12300,note_on,10,0,2,,,,,,,,,0,,,57,0
12310,note_on,0,0,2,,,,,,,,,0,,,57,100
12310,note_on,10,0,2,,,,,,,,,0,,,69,0
12310,note_on,0,0,2,,,,,,,,,0,,,65,100
12320,note_on,0,0,2,,,,,,,,,0,,,57,0
12320,note_on,0,0,2,,,,,,,,,0,,,69,100
12320,note_on,10,0,2,,,,,,,,,0,,,65,0
12330,note_on,0,0,2,,,,,,,,,0,,,55,120
12330,note_on,0,0,4,,,,,,,,,0,,,43,110
12330,note_on,0,0,2,,,,,,,,,0,,,64,120
12330,note_on,60,0,4,,,,,,,,,0,,,41,0
12330,note_on,10,0,2,,,,,,,,,0,,,69,0
12330,note_on,0,0,4,,,,,,,,,0,,,29,0
12330,control_change,55,0,5,,,,,,,,,0,64,0,,
12330,note_on,0,0,4,,,,,,,,,0,,,31,110
12335,control_change,5,0,5,,,,,,,,,0,64,127,,
12340,note_on,10,0,2,,,,,,,,,0,,,55,0
12340,note_on,0,0,2,,,,,,,,,0,,,67,100
12340,note_on,0,0,2,,,,,,,,,0,,,64,0
12350,note_on,0,0,2,,,,,,,,,0,,,55,100
12350,note_on,0,0,2,,,,,,,,,0,,,64,100
12350,note_on,10,0,2,,,,,,,,,0,,,67,0
12360,note_on,10,0,2,,,,,,,,,0,,,55,0
12360,note_on,0,0,2,,,,,,,,,0,,,64,0
12360,note_on,0,0,2,,,,,,,,,0,,,67,100
12370,note_on,0,0,2,,,,,,,,,0,,,55,100
12370,note_on,0,0,2,,,,,,,,,0,,,64,100
12370,note_on,10,0,2,,,,,,,,,0,,,67,0
12380,note_on,0,0,2,,,,,,,,,0,,,55,0
12380,note_on,0,0,2,,,,,,,,,0,,,67,100
12380,note_on,10,0,2,,,,,,,,,0,,,64,0
12390,note_on,0,0,2,,,,,,,,,0,,,53,120
12390,note_on,0,0,2,,,,,,,,,0,,,62,120
12390,note_on,0,0,4,,,,,,,,,0,,,44,110
12390,control_change,55,0,5,,,,,,,,,0,64,0,,
12390,note_on,10,0,2,,,,,,,,,0,,,67,0
12390,note_on,60,0,4,,,,,,,,,0,,,31,0
12390,note_on,0,0,4,,,,,,,,,0,,,43,0
12390,note_on,0,0,4,,,,,,,,,0,,,32,110
12395,control_change,5,0,5,,,,,,,,,0,64,127,,
12400,note_on,0,0,2,,,,,,,,,0,,,65,100
12400,note_on,0,0,2,,,,,,,,,0,,,62,0
12400,note_on,10,0,2,,,,,,,,,0,,,53,0
12410,note_on,0,0,2,,,,,,,,,0,,,62,100
12410,note_on,0,0,2,,,,,,,,,0,,,53,100
12410,note_on,10,0,2,,,,,,,,,0,,,65,0
12420,note_on,30,0,4,,,,,,,,,0,,,33,110
12420,note_on,10,0,2,,,,,,,,,0,,,53,0
12420,note_on,0,0,2,,,,,,,,,0,,,62,0
12420,note_on,0,0,2,,,,,,,,,0,,,65,100
12427,note_on,7,0,4,,,,,,,,,0,,,37,110
12428,note_on,1,0,4,,,,,,,,,0,,,33,0
12430,note_on,0,0,2,,,,,,,,,0,,,62,100
12430,note_on,10,0,2,,,,,,,,,0,,,65,0
12430,note_on,0,0,2,,,,,,,,,0,,,53,100
12435,note_on,7,0,4,,,,,,,,,0,,,37,0
12435,note_on,0,0,4,,,,,,,,,0,,,40,110
12440,note_on,0,0,2,,,,,,,,,0,,,65,100
12440,note_on,10,0,2,,,,,,,,,0,,,62,0
12440,note_on,0,0,2,,,,,,,,,0,,,53,0
12442,note_on,7,0,4,,,,,,,,,0,,,45,110
12443,note_on,1,0,4,,,,,,,,,0,,,40,0
12450,control_change,0,0,5,,,,,,,,,0,64,127,,
12450,note_on,0,0,4,,,,,,,,,0,,,45,0
12450,note_on,0,0,4,,,,,,,,,0,,,32,0
12450,note_on,1260,0,3,,,,,,,,,0,,,76,127
12450,note_on,0,0,3,,,,,,,,,0,,,73,127
12450,control_change,55,0,5,,,,,,,,,0,64,0,,
12450,note_on,0,0,2,,,,,,,,,0,,,61,100
12450,note_on,0,0,2,,,,,,,,,0,,,52,100
12450,note_on,7,0,4,,,,,,,,,0,,,44,0
12450,note_on,10,0,2,,,,,,,,,0,,,65,0
12457,note_on,7,0,2,,,,,,,,,0,,,64,100
12458,note_on,1,0,2,,,,,,,,,0,,,61,0
12458,note_on,0,0,2,,,,,,,,,0,,,52,0
12465,note_on,0,0,2,,,,,,,,,0,,,52,100
12465,note_on,7,0,2,,,,,,,,,0,,,64,0
12465,note_on,0,0,2,,,,,,,,,0,,,61,100
12472,note_on,7,0,2,,,,,,,,,0,,,64,100
12473,note_on,0,0,2,,,,,,,,,0,,,52,0
12473,note_on,1,0,2,,,,,,,,,0,,,61,0
12480,note_on,0,0,2,,,,,,,,,0,,,61,100
12480,note_on,0,0,2,,,,,,,,,0,,,52,100
12480,note_on,7,0,2,,,,,,,,,0,,,64,0
12487,note_on,7,0,2,,,,,,,,,0,,,64,100
12488,note_on,1,0,2,,,,,,,,,0,,,61,0
12488,note_on,0,0,2,,,,,,,,,0,,,52,0
12495,note_on,7,0,2,,,,,,,,,0,,,64,0
12495,note_on,0,0,2,,,,,,,,,0,,,61,100
12495,note_on,0,0,2,,,,,,,,,0,,,52,100
12502,note_on,7,0,2,,,,,,,,,0,,,64,100
12503,note_on,0,0,2,,,,,,,,,0,,,52,0
12503,note_on,1,0,2,,,,,,,,,0,,,61,0
12510,note_on,0,0,2,,,,,,,,,0,,,52,100
12510,note_on,7,0,2,,,,,,,,,0,,,64,0
12510,note_on,0,0,2,,,,,,,,,0,,,61,100
12517,note_on,7,0,2,,,,,,,,,0,,,64,100
12518,note_on,1,0,2,,,,,,,,,0,,,61,0
12518,note_on,0,0,2,,,,,,,,,0,,,52,0
12525,note_on,0,0,2,,,,,,,,,0,,,61,100
12525,note_on,0,0,2,,,,,,,,,0,,,52,100
12525,note_on,7,0,2,,,,,,,,,0,,,64,0
12532,note_on,7,0,2,,,,,,,,,0,,,64,100
12533,note_on,0,0,2,,,,,,,,,0,,,52,0
12533,note_on,1,0,2,,,,,,,,,0,,,61,0
12540,note_on,0,0,2,,,,,,,,,0,,,52,100
12540,note_on,7,0,2,,,,,,,,,0,,,64,0
12540,note_on,0,0,2,,,,,,,,,0,,,61,100
12547,note_on,7,0,2,,,,,,,,,0,,,64,100
12548,note_on,0,0,2,,,,,,,,,0,,,52,0
12548,note_on,1,0,2,,,,,,,,,0,,,61,0
12555,note_on,7,0,2,,,,,,,,,0,,,64,0
12555,note_on,0,0,2,,,,,,,,,0,,,61,100
12555,note_on,0,0,2,,,,,,,,,0,,,52,100
12562,note_on,7,0,2,,,,,,,,,0,,,64,100
12563,note_on,1,0,2,,,,,,,,,0,,,61,0
12563,note_on,0,0,2,,,,,,,,,0,,,52,0
12570,note_on,7,0,2,,,,,,,,,0,,,64,0
12570,note_on,0,0,2,,,,,,,,,0,,,52,100
12570,note_on,0,0,2,,,,,,,,,0,,,61,100
12577,note_on,7,0,2,,,,,,,,,0,,,64,100
12578,note_on,1,0,2,,,,,,,,,0,,,61,0
12578,note_on,0,0,2,,,,,,,,,0,,,52,0
12585,note_on,0,0,2,,,,,,,,,0,,,52,100
12585,note_on,0,0,2,,,,,,,,,0,,,61,100
12585,note_on,7,0,2,,,,,,,,,0,,,64,0
12592,note_on,7,0,2,,,,,,,,,0,,,64,100
12593,note_on,0,0,2,,,,,,,,,0,,,52,0
12593,note_on,1,0,2,,,,,,,,,0,,,61,0
12600,note_on,0,0,2,,,,,,,,,0,,,52,100
12600,note_on,0,0,2,,,,,,,,,0,,,61,100
12600,note_on,7,0,2,,,,,,,,,0,,,64,0
12607,note_on,7,0,2,,,,,,,,,0,,,64,100
12608,note_on,1,0,2,,,,,,,,,0,,,61,0
12608,note_on,0,0,2,,,,,,,,,0,,,52,0
12615,note_on,7,0,2,,,,,,,,,0,,,64,0
12615,note_on,0,0,2,,,,,,,,,0,,,61,100
12615,note_on,0,0,2,,,,,,,,,0,,,52,100
12622,note_on,7,0,2,,,,,,,,,0,,,64,100
12623,note_on,1,0,2,,,,,,,,,0,,,61,0
12623,note_on,0,0,2,,,,,,,,,0,,,52,0
12625,control_change,175,0,5,,,,,,,,,0,64,0,,
12630,note_on,7,0,2,,,,,,,,,0,,,64,0
12630,control_change,5,0,5,,,,,,,,,0,64,0,,
12630,note_on,180,0,3,,,,,,,,,0,,,73,0
12630,note_on,0,0,3,,,,,,,,,0,,,76,0
12630,note_on,180,0,4,,,,,,,,,0,,,55,120
12635,control_change,5,0,5,,,,,,,,,0,64,127,,
12640,note_on,10,0,4,,,,,,,,,0,,,58,100
12650,note_on,0,0,4,,,,,,,,,0,,,55,100
12650,note_on,10,0,4,,,,,,,,,0,,,58,0
12660,note_on,0,0,1,,,,,,,,,0,,,64,110
12660,note_on,0,0,4,,,,,,,,,0,,,58,100
12660,note_on,10,0,4,,,,,,,,,0,,,55,0
12660,note_on,390,0,1,,,,,,,,,0,,,61,110
12660,note_on,0,0,1,,,,,,,,,0,,,73,110
12670,note_on,0,0,4,,,,,,,,,0,,,55,100
12670,note_on,10,0,4,,,,,,,,,0,,,58,0
12680,note_on,10,0,4,,,,,,,,,0,,,55,0
12680,note_on,0,0,4,,,,,,,,,0,,,58,100
12690,note_on,10,0,4,,,,,,,,,0,,,58,0
12690,control_change,55,0,5,,,,,,,,,0,64,0,,
12690,note_on,0,0,4,,,,,,,,,0,,,55,0
12690,note_on,0,0,4,,,,,,,,,0,,,53,121
12695,control_change,5,0,5,,,,,,,,,0,64,127,,
12700,note_on,10,0,4,,,,,,,,,0,,,57,101
12710,note_on,0,0,4,,,,,,,,,0,,,53,102
12710,note_on,10,0,4,,,,,,,,,0,,,57,0
12720,note_on,0,0,1,,,,,,,,,0,,,64,0
12720,note_on,10,0,4,,,,,,,,,0,,,53,0
12720,note_on,0,0,1,,,,,,,,,0,,,61,0
12720,note_on,0,0,1,,,,,,,,,0,,,74,112
12720,note_on,0,0,1,,,,,,,,,0,,,65,112
12720,note_on,0,0,1,,,,,,,,,0,,,62,112
12720,note_on,60,0,1,,,,,,,,,0,,,73,0
12720,note_on,0,0,4,,,,,,,,,0,,,57,102
12730,note_on,0,0,4,,,,,,,,,0,,,53,102
12730,note_on,10,0,4,,,,,,,,,0,,,57,0
12740,note_on,0,0,4,,,,,,,,,0,,,57,103
12740,note_on,10,0,4,,,,,,,,,0,,,53,0
12750,note_on,10,0,4,,,,,,,,,0,,,57,0
12750,note_on,0,0,4,,,,,,,,,0,,,53,0
12750,note_on,0,0,4,,,,,,,,,0,,,46,123
12750,control_change,55,0,5,,,,,,,,,0,64,0,,
12755,control_change,5,0,5,,,,,,,,,0,64,127,,
12760,note_on,10,0,4,,,,,,,,,0,,,55,104
12770,note_on,10,0,4,,,,,,,,,0,,,55,0
12770,note_on,0,0,4,,,,,,,,,0,,,46,104
12780,note_on,0,0,1,,,,,,,,,0,,,73,114
12780,note_on,0,0,1,,,,,,,,,0,,,65,0
12780,note_on,0,0,1,,,,,,,,,0,,,64,114
12780,note_on,60,0,1,,,,,,,,,0,,,62,0
12780,note_on,0,0,1,,,,,,,,,0,,,74,0
12780,note_on,0,0,4,,,,,,,,,0,,,55,104
12780,note_on,10,0,4,,,,,,,,,0,,,46,0
12780,note_on,0,0,1,,,,,,,,,0,,,76,114
12790,note_on,0,0,4,,,,,,,,,0,,,46,105
12790,note_on,10,0,4,,,,,,,,,0,,,55,0
12800,note_on,0,0,4,,,,,,,,,0,,,55,105
12800,note_on,10,0,4,,,,,,,,,0,,,46,0
12810,control_change,55,0,5,,,,,,,,,0,64,0,,
12810,note_on,0,0,4,,,,,,,,,0,,,45,126
12810,control_change,0,0,5,,,,,,,,,0,64,0,,
12810,note_on,0,0,4,,,,,,,,,0,,,46,0
12810,note_on,10,0,4,,,,,,,,,0,,,55,0
12815,control_change,5,0,5,,,,,,,,,0,64,127,,
12820,note_on,10,0,4,,,,,,,,,0,,,53,106
12830,note_on,0,0,4,,,,,,,,,0,,,45,107
12830,note_on,10,0,4,,,,,,,,,0,,,53,0
12840,note_on,0,0,1,,,,,,,,,0,,,64,0
12840,note_on,0,0,4,,,,,,,,,0,,,53,107
12840,note_on,0,0,1,,,,,,,,,0,,,77,117
12840,note_on,0,0,1,,,,,,,,,0,,,65,117
12840,note_on,0,0,1,,,,,,,,,0,,,74,117
12840,note_on,10,0,4,,,,,,,,,0,,,45,0
12840,note_on,0,0,1,,,,,,,,,0,,,76,0
12840,note_on,60,0,1,,,,,,,,,0,,,73,0
12850,note_on,10,0,4,,,,,,,,,0,,,53,0
12850,note_on,0,0,4,,,,,,,,,0,,,45,107
12860,note_on,10,0,4,,,,,,,,,0,,,45,0
12860,note_on,0,0,4,,,,,,,,,0,,,53,108
12870,control_change,55,0,5,,,,,,,,,0,64,0,,
12870,note_on,0,0,4,,,,,,,,,0,,,45,0
12870,note_on,0,0,4,,,,,,,,,0,,,43,127
12870,note_on,10,0,4,,,,,,,,,0,,,53,0
12875,control_change,5,0,5,,,,,,,,,0,64,127,,
12880,note_on,10,0,4,,,,,,,,,0,,,52,109
12890,note_on,0,0,4,,,,,,,,,0,,,43,109
12890,note_on,10,0,4,,,,,,,,,0,,,52,0
12900,note_on,0,0,1,,,,,,,,,0,,,67,119
12900,note_on,10,0,4,,,,,,,,,0,,,43,0
12900,note_on,0,0,1,,,,,,,,,0,,,77,0
12900,note_on,0,0,1,,,,,,,,,0,,,76,119
12900,note_on,0,0,1,,,,,,,,,0,,,74,0
12900,note_on,0,0,1,,,,,,,,,0,,,79,119
12900,note_on,0,0,4,,,,,,,,,0,,,52,109
12900,note_on,60,0,1,,,,,,,,,0,,,65,0
12910,note_on,0,0,4,,,,,,,,,0,,,43,110
12910,note_on,10,0,4,,,,,,,,,0,,,52,0
12920,note_on,10,0,4,,,,,,,,,0,,,43,0
12920,note_on,0,0,4,,,,,,,,,0,,,52,110
12930,note_on,0,0,4,,,,,,,,,0,,,41,127
12930,control_change,55,0,5,,,,,,,,,0,64,0,,
12930,note_on,10,0,4,,,,,,,,,0,,,52,0
12930,note_on,0,0,4,,,,,,,,,0,,,43,0
12935,control_change,5,0,5,,,,,,,,,0,64,127,,
12940,note_on,10,0,4,,,,,,,,,0,,,50,111
12950,note_on,0,0,4,,,,,,,,,0,,,41,112
12950,note_on,10,0,4,,,,,,,,,0,,,50,0
12960,note_on,0,0,1,,,,,,,,,0,,,81,122
12960,note_on,10,0,4,,,,,,,,,0,,,41,0
12960,note_on,0,0,1,,,,,,,,,0,,,67,0
12960,note_on,0,0,4,,,,,,,,,0,,,50,112
12960,note_on,0,0,1,,,,,,,,,0,,,76,0
12960,note_on,0,0,1,,,,,,,,,0,,,69,122
12960,note_on,60,0,1,,,,,,,,,0,,,79,0
12960,note_on,0,0,1,,,,,,,,,0,,,77,122
12970,note_on,0,0,4,,,,,,,,,0,,,41,112
12970,note_on,10,0,4,,,,,,,,,0,,,50,0
12980,note_on,10,0,4,,,,,,,,,0,,,41,0
12980,note_on,0,0,4,,,,,,,,,0,,,50,113
12990,control_change,55,0,5,,,,,,,,,0,64,0,,
12990,note_on,0,0,4,,,,,,,,,0,,,41,0
12990,note_on,0,0,4,,,,,,,,,0,,,40,127
12990,note_on,10,0,4,,,,,,,,,0,,,50,0
12995,control_change,5,0,5,,,,,,,,,0,64,127,,
13000,note_on,10,0,4,,,,,,,,,0,,,49,114
13010,note_on,0,0,4,,,,,,,,,0,,,40,114
13010,note_on,10,0,4,,,,,,,,,0,,,49,0
13020,note_on,0,0,1,,,,,,,,,0,,,81,0
13020,note_on,0,0,1,,,,,,,,,0,,,79,124
13020,note_on,0,0,1,,,,,,,,,0,,,77,0
13020,note_on,0,0,1,,,,,,,,,0,,,69,124
13020,note_on,0,0,1,,,,,,,,,0,,,81,124
13020,note_on,60,0,1,,,,,,,,,0,,,69,0
13020,note_on,10,0,4,,,,,,,,,0,,,40,0
13020,note_on,0,0,4,,,,,,,,,0,,,49,114
13030,note_on,10,0,4,,,,,,,,,0,,,49,0
13030,note_on,0,0,4,,,,,,,,,0,,,40,115
13040,note_on,0,0,4,,,,,,,,,0,,,49,115
13040,note_on,10,0,4,,,,,,,,,0,,,40,0
13050,note_on,0,0,4,,,,,,,,,0,,,40,0
13050,note_on,10,0,4,,,,,,,,,0,,,49,0
13050,note_on,0,0,4,,,,,,,,,0,,,41,116
13050,note_on,0,0,4,,,,,,,,,0,,,38,127
13050,note_on,0,0,4,,,,,,,,,0,,,45,116
13050,control_change,55,0,5,,,,,,,,,0,64,0,,
13055,control_change,5,0,5,,,,,,,,,0,64,127,,
13060,note_on,10,0,4,,,,,,,,,0,,,41,0
13060,note_on,0,0,4,,,,,,,,,0,,,50,116
13060,note_on,0,0,4,,,,,,,,,0,,,45,0
13070,note_on,0,0,4,,,,,,,,,0,,,45,117
13070,note_on,0,0,4,,,,,,,,,0,,,38,117
13070,note_on,10,0,4,,,,,,,,,0,,,50,0
13070,note_on,0,0,4,,,,,,,,,0,,,41,117
13080,note_on,0,0,1,,,,,,,,,0,,,79,0
13080,note_on,0,0,1,,,,,,,,,0,,,81,127
13080,note_on,60,0,1,,,,,,,,,0,,,81,0
13080,note_on,0,0,1,,,,,,,,,0,,,69,0
13080,note_on,0,0,1,,,,,,,,,0,,,89,127
13080,note_on,0,0,4,,,,,,,,,0,,,50,117
13080,note_on,0,0,4,,,,,,,,,0,,,38,0
13080,note_on,10,0,4,,,,,,,,,0,,,41,0
13080,note_on,0,0,4,,,,,,,,,0,,,45,0
13080,note_on,0,0,1,,,,,,,,,0,,,77,127
13090,note_on,0,0,4,,,,,,,,,0,,,38,117
13090,note_on,0,0,4,,,,,,,,,0,,,41,117
13090,note_on,10,0,4,,,,,,,,,0,,,50,0
13090,note_on,0,0,4,,,,,,,,,0,,,45,117
13100,note_on,0,0,4,,,,,,,,,0,,,38,0
13100,note_on,0,0,4,,,,,,,,,0,,,45,0
13100,note_on,0,0,4,,,,,,,,,0,,,50,118
13100,note_on,10,0,4,,,,,,,,,0,,,41,0
13110,control_change,55,0,5,,,,,,,,,0,64,0,,
13110,note_on,0,0,4,,,,,,,,,0,,,45,118
13110,note_on,0,0,4,,,,,,,,,0,,,40,118
13110,note_on,0,0,4,,,,,,,,,0,,,37,127
13110,note_on,10,0,4,,,,,,,,,0,,,50,0
13110,note_on,0,0,4,,,,,,,,,0,,,38,0
13115,control_change,5,0,5,,,,,,,,,0,64,127,,
13120,note_on,0,0,4,,,,,,,,,0,,,40,0
13120,note_on,0,0,4,,,,,,,,,0,,,48,119
13120,note_on,10,0,4,,,,,,,,,0,,,45,0
13130,note_on,0,0,4,,,,,,,,,0,,,37,119
13130,note_on,10,0,4,,,,,,,,,0,,,48,0
13130,note_on,0,0,4,,,,,,,,,0,,,45,119
13130,note_on,0,0,4,,,,,,,,,0,,,40,119
13140,note_on,0,0,1,,,,,,,,,0,,,82,127
13140,note_on,0,0,1,,,,,,,,,0,,,88,127
13140,note_on,0,0,1,,,,,,,,,0,,,89,0
13140,note_on,60,0,1,,,,,,,,,0,,,77,0
13140,note_on,0,0,1,,,,,,,,,0,,,76,127
13140,note_on,10,0,4,,,,,,,,,0,,,45,0
13140,note_on,0,0,4,,,,,,,,,0,,,48,119
13140,note_on,0,0,4,,,,,,,,,0,,,40,0
13140,note_on,0,0,4,,,,,,,,,0,,,37,0
13140,note_on,0,0,1,,,,,,,,,0,,,81,0
13150,note_on,0,0,4,,,,,,,,,0,,,45,120
13150,note_on,0,0,4,,,,,,,,,0,,,37,120
13150,note_on,0,0,4,,,,,,,,,0,,,40,120
13150,note_on,10,0,4,,,,,,,,,0,,,48,0
13160,note_on,10,0,4,,,,,,,,,0,,,45,0
13160,note_on,0,0,4,,,,,,,,,0,,,40,0
13160,note_on,0,0,4,,,,,,,,,0,,,48,120
13160,note_on,0,0,4,,,,,,,,,0,,,37,0
13170,note_on,0,0,1,,,,,,,,,0,,,88,0
13170,note_on,0,0,1,,,,,,,,,0,,,82,0
13170,note_on,0,0,1,,,,,,,,,0,,,81,110
13170,note_on,0,0,1,,,,,,,,,0,,,77,110
13170,note_on,0,0,1,,,,,,,,,0,,,75,110
13170,note_on,0,0,4,,,,,,,,,0,,,37,0
13170,note_on,10,0,4,,,,,,,,,0,,,48,0
13170,note_on,30,0,1,,,,,,,,,0,,,76,0
13170,control_change,0,0,5,,,,,,,,,0,64,0,,
13170,marker,3600,1,0,,,,,,,,,,,,,
13170,note_on,0,0,4,,,,,,,,,0,,,36,110
13170,control_change,55,0,5,,,,,,,,,0,64,127,,
13177,note_on,7,0,4,,,,,,,,,0,,,48,110
13177,note_on,7,0,1,,,,,,,,,0,,,87,110
13178,note_on,1,0,1,,,,,,,,,0,,,75,0
13178,note_on,0,0,1,,,,,,,,,0,,,81,0
13178,note_on,0,0,1,,,,,,,,,0,,,77,0
13178,note_on,1,0,4,,,,,,,,,0,,,36,0
13185,note_on,0,0,1,,,,,,,,,0,,,77,110
13185,note_on,0,0,4,,,,,,,,,0,,,60,127
13185,note_on,7,0,4,,,,,,,,,0,,,48,0
13185,note_on,0,0,1,,,,,,,,,0,,,75,110
13185,note_on,7,0,1,,,,,,,,,0,,,87,0
13185,note_on,0,0,1,,,,,,,,,0,,,81,110
13192,note_on,7,0,1,,,,,,,,,0,,,87,110
13193,note_on,0,0,1,,,,,,,,,0,,,77,0
13193,note_on,0,0,1,,,,,,,,,0,,,81,0
13193,note_on,1,0,1,,,,,,,,,0,,,75,0
13200,note_on,7,0,1,,,,,,,,,0,,,87,0
13200,note_on,0,0,1,,,,,,,,,0,,,77,110
13200,note_on,0,0,1,,,,,,,,,0,,,75,110
13200,note_on,0,0,1,,,,,,,,,0,,,81,110
13207,note_on,7,0,1,,,,,,,,,0,,,87,110
13208,note_on,0,0,1,,,,,,,,,0,,,77,0
13208,note_on,1,0,1,,,,,,,,,0,,,75,0
13208,note_on,0,0,1,,,,,,,,,0,,,81,0
13215,note_on,7,0,1,,,,,,,,,0,,,87,0
13215,note_on,0,0,1,,,,,,,,,0,,,75,110
13215,note_on,0,0,1,,,,,,,,,0,,,81,110
13215,note_on,0,0,1,,,,,,,,,0,,,77,110
13222,note_on,7,0,1,,,,,,,,,0,,,87,110
13223,note_on,1,0,1,,,,,,,,,0,,,75,0
13223,note_on,0,0,1,,,,,,,,,0,,,81,0
13223,note_on,0,0,1,,,,,,,,,0,,,77,0
13230,note_on,7,0,1,,,,,,,,,0,,,87,0
13230,note_on,0,0,1,,,,,,,,,0,,,81,110
13230,note_on,0,0,1,,,,,,,,,0,,,77,110
13230,note_on,0,0,1,,,,,,,,,0,,,75,110
13237,note_on,7,0,1,,,,,,,,,0,,,87,110
13238,note_on,0,0,1,,,,,,,,,0,,,81,0
13238,note_on,0,0,1,,,,,,,,,0,,,77,0
13238,note_on,1,0,1,,,,,,,,,0,,,75,0
13245,note_on,0,0,1,,,,,,,,,0,,,77,110
13245,note_on,7,0,1,,,,,,,,,0,,,87,0
13245,note_on,0,0,1,,,,,,,,,0,,,75,110
13245,note_on,0,0,1,,,,,,,,,0,,,81,110
13252,note_on,7,0,1,,,,,,,,,0,,,87,110
13253,note_on,0,0,1,,,,,,,,,0,,,81,0
13253,note_on,1,0,1,,,,,,,,,0,,,75,0
13253,note_on,0,0,1,,,,,,,,,0,,,77,0
13260,note_on,0,0,1,,,,,,,,,0,,,81,110
13260,note_on,0,0,1,,,,,,,,,0,,,77,110
13260,note_on,0,0,1,,,,,,,,,0,,,75,110
13260,note_on,7,0,1,,,,,,,,,0,,,87,0
13267,note_on,7,0,1,,,,,,,,,0,,,87,110
13268,note_on,0,0,1,,,,,,,,,0,,,77,0
13268,note_on,0,0,1,,,,,,,,,0,,,81,0
13268,note_on,1,0,1,,,,,,,,,0,,,75,0
13275,note_on,7,0,1,,,,,,,,,0,,,87,0
13275,note_on,0,0,1,,,,,,,,,0,,,81,110
13275,note_on,0,0,1,,,,,,,,,0,,,77,110
13275,note_on,0,0,1,,,,,,,,,0,,,75,110
13282,note_on,7,0,1,,,,,,,,,0,,,87,110
13283,note_on,0,0,1,,,,,,,,,0,,,81,0
13283,note_on,1,0,1,,,,,,,,,0,,,75,0
13283,note_on,0,0,1,,,,,,,,,0,,,77,0
13290,note_on,0,0,4,,,,,,,,,0,,,35,110
13290,note_on,105,0,4,,,,,,,,,0,,,60,0
13290,note_on,0,0,1,,,,,,,,,0,,,75,110
13290,note_on,7,0,1,,,,,,,,,0,,,87,0
13290,control_change,120,0,5,,,,,,,,,0,64,0,,
13290,note_on,0,0,1,,,,,,,,,0,,,77,110
13290,note_on,0,0,1,,,,,,,,,0,,,81,110
13297,note_on,7,0,1,,,,,,,,,0,,,87,110
13297,note_on,7,0,4,,,,,,,,,0,,,47,110
13298,note_on,1,0,4,,,,,,,,,0,,,35,0
13298,note_on,1,0,1,,,,,,,,,0,,,75,0
13298,note_on,0,0,1,,,,,,,,,0,,,77,0
13298,note_on,0,0,1,,,,,,,,,0,,,81,0
13305,note_on,7,0,4,,,,,,,,,0,,,47,0
13305,note_on,0,0,1,,,,,,,,,0,,,81,110
13305,note_on,0,0,1,,,,,,,,,0,,,75,110
13305,note_on,0,0,1,,,,,,,,,0,,,77,110
13305,note_on,7,0,1,,,,,,,,,0,,,87,0
13305,note_on,0,0,4,,,,,,,,,0,,,59,110
13312,note_on,7,0,1,,,,,,,,,0,,,87,110
13313,note_on,1,0,1,,,,,,,,,0,,,75,0
13313,note_on,0,0,1,,,,,,,,,0,,,77,0
13313,note_on,0,0,1,,,,,,,,,0,,,81,0
13320,note_on,0,0,1,,,,,,,,,0,,,81,110
13320,note_on,15,0,4,,,,,,,,,0,,,59,0
13320,note_on,0,0,1,,,,,,,,,0,,,75,110
13320,note_on,7,0,1,,,,,,,,,0,,,87,0
13320,note_on,0,0,1,,,,,,,,,0,,,77,110
13327,note_on,7,0,1,,,,,,,,,0,,,87,110
13328,note_on,0,0,1,,,,,,,,,0,,,77,0
13328,note_on,1,0,1,,,,,,,,,0,,,75,0
13328,note_on,0,0,1,,,,,,,,,0,,,81,0
13335,note_on,7,0,1,,,,,,,,,0,,,87,0
13335,note_on,0,0,1,,,,,,,,,0,,,77,110
13335,note_on,0,0,1,,,,,,,,,0,,,75,110
13335,note_on,0,0,1,,,,,,,,,0,,,81,110
13342,note_on,7,0,1,,,,,,,,,0,,,87,110
13343,note_on,0,0,1,,,,,,,,,0,,,77,0
13343,note_on,0,0,1,,,,,,,,,0,,,81,0
13343,note_on,1,0,1,,,,,,,,,0,,,75,0
13350,note_on,720,0,3,,,,,,,,,0,,,60,127
13350,note_on,7,0,1,,,,,,,,,0,,,87,0
13350,note_on,0,0,1,,,,,,,,,0,,,74,110
13350,note_on,0,0,1,,,,,,,,,0,,,77,110
13350,note_on,0,0,1,,,,,,,,,0,,,81,120
13350,note_on,0,0,3,,,,,,,,,0,,,72,127
13360,note_on,0,0,1,,,,,,,,,0,,,77,0
13360,note_on,0,0,1,,,,,,,,,0,,,86,110
13360,note_on,10,0,1,,,,,,,,,0,,,74,0
13370,note_on,0,0,1,,,,,,,,,0,,,77,110
13370,note_on,0,0,1,,,,,,,,,0,,,81,110
13370,note_on,0,0,1,,,,,,,,,0,,,74,110
13370,note_on,10,0,1,,,,,,,,,0,,,86,0
13380,note_on,0,0,1,,,,,,,,,0,,,81,0
13380,note_on,0,0,1,,,,,,,,,0,,,86,110
13380,note_on,10,0,1,,,,,,,,,0,,,74,0
13380,note_on,0,0,1,,,,,,,,,0,,,77,0
13390,note_on,0,0,1,,,,,,,,,0,,,74,110
13390,note_on,0,0,1,,,,,,,,,0,,,77,110
13390,note_on,0,0,1,,,,,,,,,0,,,81,110
13390,note_on,10,0,1,,,,,,,,,0,,,86,0
13400,note_on,10,0,1,,,,,,,,,0,,,77,0
13400,note_on,0,0,1,,,,,,,,,0,,,74,0
13400,note_on,0,0,1,,,,,,,,,0,,,86,110
13400,note_on,0,0,1,,,,,,,,,0,,,81,0
13410,note_on,10,0,1,,,,,,,,,0,,,86,0
13410,note_on,0,0,3,,,,,,,,,0,,,71,127
13410,note_on,0,0,3,,,,,,,,,0,,,60,0
13410,note_on,0,0,3,,,,,,,,,0,,,59,127
13410,note_on,0,0,1,,,,,,,,,0,,,74,110
13410,note_on,0,0,1,,,,,,,,,0,,,77,110
13410,note_on,0,0,1,,,,,,,,,0,,,83,120
13410,note_on,60,0,3,,,,,,,,,0,,,72,0
13410,note_on,0,0,1,,,,,,,,,0,,,81,0
13420,note_on,10,0,1,,,,,,,,,0,,,77,0
13420,note_on,0,0,1,,,,,,,,,0,,,74,0
13420,note_on,0,0,1,,,,,,,,,0,,,86,110
13430,note_on,0,0,1,,,,,,,,,0,,,74,110
13430,note_on,0,0,1,,,,,,,,,0,,,83,110
13430,note_on,10,0,1,,,,,,,,,0,,,86,0
13430,note_on,0,0,1,,,,,,,,,0,,,77,110
13440,note_on,10,0,1,,,,,,,,,0,,,77,0
13440,note_on,0,0,1,,,,,,,,,0,,,83,0
13440,note_on,0,0,1,,,,,,,,,0,,,86,110
13440,note_on,0,0,1,,,,,,,,,0,,,74,0
13450,note_on,0,0,1,,,,,,,,,0,,,74,110
13450,note_on,0,0,1,,,,,,,,,0,,,77,110
13450,note_on,0,0,1,,,,,,,,,0,,,83,110
13450,note_on,10,0,1,,,,,,,,,0,,,86,0
13460,note_on,10,0,1,,,,,,,,,0,,,77,0
13460,note_on,0,0,1,,,,,,,,,0,,,74,0
13460,note_on,0,0,1,,,,,,,,,0,,,86,110
13460,note_on,0,0,1,,,,,,,,,0,,,83,0
13470,note_on,0,0,1,,,,,,,,,0,,,77,110
13470,note_on,10,0,1,,,,,,,,,0,,,86,0
13470,note_on,0,0,1,,,,,,,,,0,,,83,0
13470,note_on,60,0,3,,,,,,,,,0,,,59,0
13470,note_on,0,0,3,,,,,,,,,0,,,57,127
13470,note_on,0,0,3,,,,,,,,,0,,,69,127
13470,note_on,0,0,3,,,,,,,,,0,,,71,0
13470,note_on,0,0,1,,,,,,,,,0,,,84,120
13470,note_on,0,0,1,,,,,,,,,0,,,74,110
13480,note_on,0,0,1,,,,,,,,,0,,,77,0
13480,note_on,0,0,1,,,,,,,,,0,,,86,110
13480,note_on,10,0,1,,,,,,,,,0,,,74,0
13490,note_on,0,0,1,,,,,,,,,0,,,84,110
13490,note_on,0,0,1,,,,,,,,,0,,,77,110
13490,note_on,10,0,1,,,,,,,,,0,,,86,0
13490,note_on,0,0,1,,,,,,,,,0,,,74,110
13500,note_on,10,0,1,,,,,,,,,0,,,74,0
13500,note_on,0,0,1,,,,,,,,,0,,,86,110
13500,note_on,0,0,1,,,,,,,,,0,,,84,0
13500,note_on,0,0,1,,,,,,,,,0,,,77,0
13510,note_on,0,0,1,,,,,,,,,0,,,74,110
13510,note_on,0,0,1,,,,,,,,,0,,,84,110
13510,note_on,10,0,1,,,,,,,,,0,,,86,0
13510,note_on,0,0,1,,,,,,,,,0,,,77,110
13520,note_on,10,0,1,,,,,,,,,0,,,77,0
13520,note_on,0,0,1,,,,,,,,,0,,,84,0
13520,note_on,0,0,1,,,,,,,,,0,,,74,0
13520,note_on,0,0,1,,,,,,,,,0,,,86,110
13530,note_on,210,0,4,,,,,,,,,0,,,56,110
13530,note_on,0,0,3,,,,,,,,,0,,,69,0
13530,note_on,0,0,4,,,,,,,,,0,,,64,127
13530,note_on,0,0,1,,,,,,,,,0,,,80,110
13530,note_on,60,0,3,,,,,,,,,0,,,57,0
13530,note_on,10,0,1,,,,,,,,,0,,,86,0
13530,note_on,0,0,1,,,,,,,,,0,,,76,110
13530,note_on,0,0,1,,,,,,,,,0,,,84,0
13540,note_on,0,0,1,,,,,,,,,0,,,88,110
13540,note_on,10,0,1,,,,,,,,,0,,,76,0
13540,note_on,0,0,1,,,,,,,,,0,,,80,0
13545,note_on,15,0,4,,,,,,,,,0,,,56,0
13550,note_on,0,0,1,,,,,,,,,0,,,76,110
13550,note_on,10,0,1,,,,,,,,,0,,,88,0
13550,note_on,0,0,1,,,,,,,,,0,,,80,110
13560,note_on,0,0,1,,,,,,,,,0,,,80,0
13560,note_on,0,0,1,,,,,,,,,0,,,88,110
13560,note_on,15,0,4,,,,,,,,,0,,,40,110
13560,note_on,10,0,1,,,,,,,,,0,,,76,0
13570,note_on,0,0,1,,,,,,,,,0,,,76,110
13570,note_on,0,0,1,,,,,,,,,0,,,80,110
13570,note_on,10,0,1,,,,,,,,,0,,,88,0
13575,note_on,15,0,4,,,,,,,,,0,,,40,0
13580,note_on,10,0,1,,,,,,,,,0,,,80,0
13580,note_on,0,0,1,,,,,,,,,0,,,88,110
13580,note_on,0,0,1,,,,,,,,,0,,,76,0
13590,note_on,0,0,1,,,,,,,,,0,,,75,110
13590,note_on,0,0,1,,,,,,,,,0,,,84,127
13590,note_on,15,0,4,,,,,,,,,0,,,64,0
13590,note_on,0,0,4,,,,,,,,,0,,,60,110
13590,note_on,0,0,4,,,,,,,,,0,,,63,127
13590,note_on,10,0,1,,,,,,,,,0,,,88,0
13600,note_on,10,0,1,,,,,,,,,0,,,75,0
13600,note_on,0,0,1,,,,,,,,,0,,,87,110
13605,note_on,15,0,4,,,,,,,,,0,,,60,0
13610,note_on,0,0,1,,,,,,,,,0,,,75,110
13610,note_on,10,0,1,,,,,,,,,0,,,87,0
13610,note_on,0,0,1,,,,,,,,,0,,,84,110
13620,note_on,0,0,1,,,,,,,,,0,,,87,110
13620,note_on,15,0,4,,,,,,,,,0,,,52,110
13620,note_on,0,0,1,,,,,,,,,0,,,84,0
13620,note_on,10,0,1,,,,,,,,,0,,,75,0
13630,note_on,0,0,1,,,,,,,,,0,,,84,110
13630,note_on,0,0,1,,,,,,,,,0,,,75,110
13630,note_on,10,0,1,,,,,,,,,0,,,87,0
13635,note_on,15,0,4,,,,,,,,,0,,,52,0
13640,note_on,10,0,1,,,,,,,,,0,,,75,0
13640,note_on,0,0,1,,,,,,,,,0,,,84,0
13640,note_on,0,0,1,,,,,,,,,0,,,87,110
13650,note_on,0,0,1,,,,,,,,,0,,,74,110
13650,note_on,0,0,4,,,,,,,,,0,,,62,127
13650,note_on,10,0,1,,,,,,,,,0,,,87,0
13650,note_on,0,0,4,,,,,,,,,0,,,59,110
13650,note_on,15,0,4,,,,,,,,,0,,,63,0
13650,note_on,0,0,1,,,,,,,,,0,,,84,0
13650,note_on,0,0,1,,,,,,,,,0,,,83,127
13660,note_on,0,0,1,,,,,,,,,0,,,86,110
13660,note_on,10,0,1,,,,,,,,,0,,,74,0
13665,note_on,15,0,4,,,,,,,,,0,,,59,0
13670,note_on,0,0,1,,,,,,,,,0,,,74,110
13670,note_on,0,0,1,,,,,,,,,0,,,83,110
13670,note_on,10,0,1,,,,,,,,,0,,,86,0
13680,note_on,10,0,1,,,,,,,,,0,,,74,0
13680,note_on,15,0,4,,,,,,,,,0,,,40,110
13680,note_on,0,0,1,,,,,,,,,0,,,86,110
13680,note_on,0,0,1,,,,,,,,,0,,,83,0
13690,note_on,0,0,1,,,,,,,,,0,,,83,110
13690,note_on,0,0,1,,,,,,,,,0,,,74,110
13690,note_on,10,0,1,,,,,,,,,0,,,86,0
13695,note_on,15,0,4,,,,,,,,,0,,,40,0
13700,note_on,0,0,1,,,,,,,,,0,,,86,110
13700,note_on,0,0,1,,,,,,,,,0,,,83,0
13700,note_on,10,0,1,,,,,,,,,0,,,74,0
13710,note_on,15,0,4,,,,,,,,,0,,,62,0
13710,note_on,0,0,1,,,,,,,,,0,,,73,110
13710,note_on,10,0,1,,,,,,,,,0,,,86,0
13710,note_on,0,0,1,,,,,,,,,0,,,82,127
13710,note_on,0,0,4,,,,,,,,,0,,,58,110
13710,note_on,0,0,4,,,,,,,,,0,,,61,127
13710,note_on,0,0,1,,,,,,,,,0,,,83,0
13720,note_on,10,0,1,,,,,,,,,0,,,73,0
13720,note_on,0,0,1,,,,,,,,,0,,,85,110
13725,note_on,15,0,4,,,,,,,,,0,,,58,0
13730,note_on,10,0,1,,,,,,,,,0,,,85,0
13730,note_on,0,0,1,,,,,,,,,0,,,73,110
13730,note_on,0,0,1,,,,,,,,,0,,,82,110
13740,note_on,0,0,1,,,,,,,,,0,,,82,0
13740,note_on,10,0,1,,,,,,,,,0,,,73,0
13740,note_on,15,0,4,,,,,,,,,0,,,52,110
13740,note_on,0,0,1,,,,,,,,,0,,,85,110
13750,note_on,10,0,1,,,,,,,,,0,,,85,0
13750,note_on,0,0,1,,,,,,,,,0,,,82,110
13750,note_on,0,0,1,,,,,,,,,0,,,73,110
13755,note_on,15,0,4,,,,,,,,,0,,,52,0
13760,note_on,0,0,1,,,,,,,,,0,,,82,0
13760,note_on,10,0,1,,,,,,,,,0,,,73,0
13760,note_on,0,0,1,,,,,,,,,0,,,85,110
13770,note_on,0,0,1,,,,,,,,,0,,,81,127
13770,note_on,0,0,1,,,,,,,,,0,,,82,0
13770,note_on,0,0,4,,,,,,,,,0,,,51,110
13770,note_on,0,0,4,,,,,,,,,0,,,57,110
13770,note_on,0,0,4,,,,,,,,,0,,,60,127
13770,note_on,10,0,1,,,,,,,,,0,,,85,0
13770,note_on,0,0,1,,,,,,,,,0,,,72,110
13770,note_on,15,0,4,,,,,,,,,0,,,61,0
13780,note_on,0,0,1,,,,,,,,,0,,,84,110
13780,note_on,10,0,1,,,,,,,,,0,,,72,0
13785,note_on,0,0,4,,,,,,,,,0,,,51,0
13785,note_on,15,0,4,,,,,,,,,0,,,57,0
13790,note_on,10,0,1,,,,,,,,,0,,,84,0
13790,note_on,0,0,1,,,,,,,,,0,,,72,110
13790,note_on,0,0,1,,,,,,,,,0,,,81,110
13800,note_on,10,0,1,,,,,,,,,0,,,72,0
13800,note_on,0,0,1,,,,,,,,,0,,,84,110
13800,note_on,15,0,4,,,,,,,,,0,,,40,110
13800,note_on,0,0,1,,,,,,,,,0,,,81,0
13810,note_on,0,0,1,,,,,,,,,0,,,81,110
13810,note_on,0,0,1,,,,,,,,,0,,,72,110
13810,note_on,10,0,1,,,,,,,,,0,,,84,0
13815,note_on,15,0,4,,,,,,,,,0,,,40,0
13820,note_on,0,0,1,,,,,,,,,0,,,81,0
13820,note_on,0,0,1,,,,,,,,,0,,,84,110
13820,note_on,10,0,1,,,,,,,,,0,,,72,0
13830,note_on,0,0,4,,,,,,,,,0,,,56,110
13830,note_on,0,0,4,,,,,,,,,0,,,59,127
13830,note_on,0,0,1,,,,,,,,,0,,,71,110
13830,note_on,0,0,1,,,,,,,,,0,,,80,127
13830,note_on,0,0,1,,,,,,,,,0,,,81,0
13830,note_on,0,0,4,,,,,,,,,0,,,52,110
13830,note_on,15,0,4,,,,,,,,,0,,,60,0
13830,note_on,10,0,1,,,,,,,,,0,,,84,0
13840,note_on,10,0,1,,,,,,,,,0,,,71,0
13840,note_on,0,0,1,,,,,,,,,0,,,83,110
13845,note_on,15,0,4,,,,,,,,,0,,,52,0
13845,note_on,0,0,4,,,,,,,,,0,,,56,0
13850,note_on,0,0,1,,,,,,,,,0,,,71,110
13850,note_on,10,0,1,,,,,,,,,0,,,83,0
13850,note_on,0,0,1,,,,,,,,,0,,,80,110
13860,note_on,10,0,1,,,,,,,,,0,,,71,0
13860,note_on,0,0,1,,,,,,,,,0,,,83,110
13860,note_on,0,0,1,,,,,,,,,0,,,80,0
13870,note_on,10,0,1,,,,,,,,,0,,,83,0
13870,note_on,0,0,1,,,,,,,,,0,,,71,110
13870,note_on,0,0,1,,,,,,,,,0,,,80,110
13880,note_on,0,0,1,,,,,,,,,0,,,83,110
13880,note_on,10,0,1,,,,,,,,,0,,,71,0
13880,note_on,0,0,1,,,,,,,,,0,,,80,0
13890,note_on,0,0,1,,,,,,,,,0,,,76,110
13890,note_on,10,0,1,,,,,,,,,0,,,83,0
13890,note_on,0,0,4,,,,,,,,,0,,,37,110
13890,note_on,45,0,4,,,,,,,,,0,,,59,0
13890,note_on,0,0,1,,,,,,,,,0,,,79,110
13890,control_change,600,0,5,,,,,,,,,0,64,127,,
13890,note_on,0,0,1,,,,,,,,,0,,,82,110
13890,note_on,0,0,1,,,,,,,,,0,,,80,0
13897,note_on,7,0,4,,,,,,,,,0,,,49,110
13897,note_on,7,0,1,,,,,,,,,0,,,88,110
13898,note_on,0,0,1,,,,,,,,,0,,,82,0
13898,note_on,1,0,1,,,,,,,,,0,,,76,0
13898,note_on,1,0,4,,,,,,,,,0,,,37,0
13898,note_on,0,0,1,,,,,,,,,0,,,79,0
13905,note_on,0,0,4,,,,,,,,,0,,,61,127
13905,note_on,7,0,1,,,,,,,,,0,,,88,0
13905,note_on,7,0,4,,,,,,,,,0,,,49,0
13905,note_on,0,0,1,,,,,,,,,0,,,82,110
13905,note_on,0,0,1,,,,,,,,,0,,,79,110
13905,note_on,0,0,1,,,,,,,,,0,,,76,110
13912,note_on,7,0,1,,,,,,,,,0,,,88,110
13913,note_on,0,0,1,,,,,,,,,0,,,82,0
13913,note_on,0,0,1,,,,,,,,,0,,,79,0
13913,note_on,1,0,1,,,,,,,,,0,,,76,0
13920,note_on,7,0,1,,,,,,,,,0,,,88,0
13920,note_on,0,0,1,,,,,,,,,0,,,76,110
13920,note_on,0,0,1,,,,,,,,,0,,,79,110
13920,note_on,0,0,1,,,,,,,,,0,,,82,110
13927,note_on,7,0,1,,,,,,,,,0,,,88,110
13928,note_on,1,0,1,,,,,,,,,0,,,76,0
13928,note_on,0,0,1,,,,,,,,,0,,,79,0
13928,note_on,0,0,1,,,,,,,,,0,,,82,0
13935,note_on,0,0,1,,,,,,,,,0,,,76,110
13935,note_on,7,0,1,,,,,,,,,0,,,88,0
13935,note_on,0,0,1,,,,,,,,,0,,,82,110
13935,note_on,0,0,1,,,,,,,,,0,,,79,110
13942,note_on,7,0,1,,,,,,,,,0,,,88,110
13943,note_on,0,0,1,,,,,,,,,0,,,79,0
13943,note_on,0,0,1,,,,,,,,,0,,,82,0
13943,note_on,1,0,1,,,,,,,,,0,,,76,0
13950,note_on,0,0,1,,,,,,,,,0,,,76,110
13950,note_on,0,0,1,,,,,,,,,0,,,79,110
13950,note_on,0,0,1,,,,,,,,,0,,,82,110
13950,note_on,7,0,1,,,,,,,,,0,,,88,0
13957,note_on,7,0,1,,,,,,,,,0,,,88,110
13958,note_on,0,0,1,,,,,,,,,0,,,82,0
13958,note_on,0,0,1,,,,,,,,,0,,,79,0
13958,note_on,1,0,1,,,,,,,,,0,,,76,0
13965,note_on,0,0,1,,,,,,,,,0,,,79,110
13965,note_on,7,0,1,,,,,,,,,0,,,88,0
13965,note_on,0,0,1,,,,,,,,,0,,,82,110
13965,note_on,0,0,1,,,,,,,,,0,,,76,110
13972,note_on,7,0,1,,,,,,,,,0,,,88,110
13973,note_on,0,0,1,,,,,,,,,0,,,82,0
13973,note_on,0,0,1,,,,,,,,,0,,,79,0
13973,note_on,1,0,1,,,,,,,,,0,,,76,0
13980,note_on,7,0,1,,,,,,,,,0,,,88,0
13980,note_on,0,0,1,,,,,,,,,0,,,82,110
13980,note_on,0,0,1,,,,,,,,,0,,,79,110
13980,note_on,0,0,1,,,,,,,,,0,,,76,110
13987,note_on,7,0,1,,,,,,,,,0,,,88,110
13988,note_on,1,0,1,,,,,,,,,0,,,76,0
13988,note_on,0,0,1,,,,,,,,,0,,,82,0
13988,note_on,0,0,1,,,,,,,,,0,,,79,0
13995,note_on,0,0,1,,,,,,,,,0,,,76,110
13995,note_on,7,0,1,,,,,,,,,0,,,88,0
13995,note_on,0,0,1,,,,,,,,,0,,,79,110
13995,note_on,0,0,1,,,,,,,,,0,,,82,110
14002,note_on,7,0,1,,,,,,,,,0,,,88,110
14003,note_on,0,0,1,,,,,,,,,0,,,82,0
14003,note_on,1,0,1,,,,,,,,,0,,,76,0
14003,note_on,0,0,1,,,,,,,,,0,,,79,0
14010,note_on,7,0,1,,,,,,,,,0,,,88,0
14010,note_on,105,0,4,,,,,,,,,0,,,61,0
14010,control_change,120,0,5,,,,,,,,,0,64,0,,
14010,note_on,0,0,4,,,,,,,,,0,,,36,110
14010,note_on,0,0,1,,,,,,,,,0,,,76,110
14010,note_on,0,0,1,,,,,,,,,0,,,79,110
14010,note_on,0,0,1,,,,,,,,,0,,,82,110
14017,note_on,7,0,4,,,,,,,,,0,,,48,110
14017,note_on,7,0,1,,,,,,,,,0,,,88,110
14018,note_on,0,0,1,,,,,,,,,0,,,79,0
14018,note_on,1,0,4,,,,,,,,,0,,,36,0
14018,note_on,0,0,1,,,,,,,,,0,,,82,0
14018,note_on,1,0,1,,,,,,,,,0,,,76,0
14025,note_on,0,0,4,,,,,,,,,0,,,60,110
14025,note_on,0,0,1,,,,,,,,,0,,,76,110
14025,note_on,0,0,1,,,,,,,,,0,,,79,110
14025,note_on,0,0,1,,,,,,,,,0,,,82,110
14025,note_on,7,0,1,,,,,,,,,0,,,88,0
14025,note_on,7,0,4,,,,,,,,,0,,,48,0
14032,note_on,7,0,1,,,,,,,,,0,,,88,110
14033,note_on,1,0,1,,,,,,,,,0,,,76,0
14033,note_on,0,0,1,,,,,,,,,0,,,82,0
14033,note_on,0,0,1,,,,,,,,,0,,,79,0
14040,note_on,0,0,1,,,,,,,,,0,,,79,110
14040,note_on,0,0,1,,,,,,,,,0,,,76,110
14040,note_on,15,0,4,,,,,,,,,0,,,60,0
14040,note_on,0,0,1,,,,,,,,,0,,,82,110
14040,note_on,7,0,1,,,,,,,,,0,,,88,0
14047,note_on,7,0,1,,,,,,,,,0,,,88,110
14048,note_on,1,0,1,,,,,,,,,0,,,76,0
14048,note_on,0,0,1,,,,,,,,,0,,,79,0
14048,note_on,0,0,1,,,,,,,,,0,,,82,0
14055,note_on,7,0,1,,,,,,,,,0,,,88,0
14055,note_on,0,0,1,,,,,,,,,0,,,79,110
14055,note_on,0,0,1,,,,,,,,,0,,,76,110
14055,note_on,0,0,1,,,,,,,,,0,,,82,110
14062,note_on,7,0,1,,,,,,,,,0,,,88,110
14063,note_on,0,0,1,,,,,,,,,0,,,79,0
14063,note_on,1,0,1,,,,,,,,,0,,,76,0
14063,note_on,0,0,1,,,,,,,,,0,,,82,0
14070,note_on,7,0,1,,,,,,,,,0,,,88,0
14070,note_on,0,0,1,,,,,,,,,0,,,76,110
14070,note_on,540,0,3,,,,,,,,,0,,,61,127
14070,note_on,0,0,3,,,,,,,,,0,,,73,127
14070,note_on,0,0,1,,,,,,,,,0,,,82,120
14070,note_on,0,0,1,,,,,,,,,0,,,79,110
14080,note_on,0,0,1,,,,,,,,,0,,,88,110
14080,note_on,0,0,1,,,,,,,,,0,,,79,0
14080,note_on,10,0,1,,,,,,,,,0,,,76,0
14090,note_on,0,0,1,,,,,,,,,0,,,76,110
14090,note_on,0,0,1,,,,,,,,,0,,,79,110
14090,note_on,0,0,1,,,,,,,,,0,,,82,110
14090,note_on,10,0,1,,,,,,,,,0,,,88,0
14100,note_on,0,0,1,,,,,,,,,0,,,79,0
14100,note_on,0,0,1,,,,,,,,,0,,,82,0
14100,note_on,0,0,1,,,,,,,,,0,,,88,110
14100,note_on,10,0,1,,,,,,,,,0,,,76,0
14110,note_on,10,0,1,,,,,,,,,0,,,88,0
14110,note_on,0,0,1,,,,,,,,,0,,,82,110
14110,note_on,0,0,1,,,,,,,,,0,,,79,110
14110,note_on,0,0,1,,,,,,,,,0,,,76,110
14120,note_on,0,0,1,,,,,,,,,0,,,88,110
14120,note_on,0,0,1,,,,,,,,,0,,,82,0
14120,note_on,0,0,1,,,,,,,,,0,,,76,0
14120,note_on,10,0,1,,,,,,,,,0,,,79,0
14130,note_on,0,0,3,,,,,,,,,0,,,60,127
14130,note_on,0,0,3,,,,,,,,,0,,,61,0
14130,note_on,0,0,3,,,,,,,,,0,,,72,127
14130,note_on,10,0,1,,,,,,,,,0,,,88,0
14130,note_on,60,0,3,,,,,,,,,0,,,73,0
14130,note_on,0,0,1,,,,,,,,,0,,,79,110
14130,note_on,0,0,1,,,,,,,,,0,,,76,110
14130,note_on,0,0,1,,,,,,,,,0,,,84,120
14130,note_on,0,0,1,,,,,,,,,0,,,82,0
14140,note_on,10,0,1,,,,,,,,,0,,,79,0
14140,note_on,0,0,1,,,,,,,,,0,,,88,110
14140,note_on,0,0,1,,,,,,,,,0,,,76,0
14150,note_on,0,0,1,,,,,,,,,0,,,76,110
14150,note_on,0,0,1,,,,,,,,,0,,,79,110
14150,note_on,0,0,1,,,,,,,,,0,,,84,110
14150,note_on,10,0,1,,,,,,,,,0,,,88,0
14160,note_on,10,0,1,,,,,,,,,0,,,79,0
14160,note_on,0,0,1,,,,,,,,,0,,,76,0
14160,note_on,0,0,1,,,,,,,,,0,,,84,0
14160,note_on,0,0,1,,,,,,,,,0,,,88,110
14170,note_on,10,0,1,,,,,,,,,0,,,88,0
14170,note_on,0,0,1,,,,,,,,,0,,,76,110
14170,note_on,0,0,1,,,,,,,,,0,,,84,110
14170,note_on,0,0,1,,,,,,,,,0,,,79,110
14180,note_on,0,0,1,,,,,,,,,0,,,76,0
14180,note_on,0,0,1,,,,,,,,,0,,,84,0
14180,note_on,0,0,1,,,,,,,,,0,,,88,110
14180,note_on,10,0,1,,,,,,,,,0,,,79,0
14190,note_on,0,0,1,,,,,,,,,0,,,76,110
14190,note_on,0,0,1,,,,,,,,,0,,,79,110
14190,note_on,0,0,1,,,,,,,,,0,,,84,0
14190,note_on,0,0,1,,,,,,,,,0,,,85,120
14190,note_on,0,0,3,,,,,,,,,0,,,70,127
14190,note_on,0,0,3,,,,,,,,,0,,,58,127
14190,note_on,60,0,3,,,,,,,,,0,,,60,0
14190,note_on,10,0,1,,,,,,,,,0,,,88,0
14190,note_on,0,0,3,,,,,,,,,0,,,72,0
14200,note_on,0,0,1,,,,,,,,,0,,,88,110
14200,note_on,0,0,1,,,,,,,,,0,,,79,0
14200,note_on,10,0,1,,,,,,,,,0,,,76,0
14210,note_on,10,0,1,,,,,,,,,0,,,88,0
14210,note_on,0,0,1,,,,,,,,,0,,,85,110
14210,note_on,0,0,1,,,,,,,,,0,,,79,110
14210,note_on,0,0,1,,,,,,,,,0,,,76,110
14220,note_on,0,0,1,,,,,,,,,0,,,85,0
14220,note_on,0,0,1,,,,,,,,,0,,,79,0
14220,note_on,0,0,1,,,,,,,,,0,,,88,110
14220,note_on,10,0,1,,,,,,,,,0,,,76,0
14230,note_on,10,0,1,,,,,,,,,0,,,88,0
14230,note_on,0,0,1,,,,,,,,,0,,,76,110
14230,note_on,0,0,1,,,,,,,,,0,,,79,110
14230,note_on,0,0,1,,,,,,,,,0,,,85,110
14240,note_on,10,0,1,,,,,,,,,0,,,79,0
14240,note_on,0,0,1,,,,,,,,,0,,,76,0
14240,note_on,0,0,1,,,,,,,,,0,,,85,0
14240,note_on,0,0,1,,,,,,,,,0,,,88,110
14250,note_on,10,0,1,,,,,,,,,0,,,88,0
14250,note_on,0,0,1,,,,,,,,,0,,,85,0
14250,note_on,0,0,1,,,,,,,,,0,,,81,110
14250,note_on,0,0,1,,,,,,,,,0,,,77,110
14250,note_on,210,0,4,,,,,,,,,0,,,57,110
14250,note_on,60,0,3,,,,,,,,,0,,,58,0
14250,note_on,0,0,4,,,,,,,,,0,,,65,127
14250,note_on,0,0,3,,,,,,,,,0,,,70,0
14260,note_on,0,0,1,,,,,,,,,0,,,89,110
14260,note_on,0,0,1,,,,,,,,,0,,,81,0
14260,note_on,10,0,1,,,,,,,,,0,,,77,0
14265,note_on,15,0,4,,,,,,,,,0,,,57,0
14270,note_on,10,0,1,,,,,,,,,0,,,89,0
14270,note_on,0,0,1,,,,,,,,,0,,,81,110
14270,note_on,0,0,1,,,,,,,,,0,,,77,110
14280,note_on,15,0,4,,,,,,,,,0,,,41,110
14280,note_on,10,0,1,,,,,,,,,0,,,77,0
14280,note_on,0,0,1,,,,,,,,,0,,,89,110
14280,note_on,0,0,1,,,,,,,,,0,,,81,0
14290,note_on,0,0,1,,,,,,,,,0,,,77,110
14290,note_on,0,0,1,,,,,,,,,0,,,81,110
14290,note_on,10,0,1,,,,,,,,,0,,,89,0
14295,note_on,15,0,4,,,,,,,,,0,,,41,0
14300,note_on,0,0,1,,,,,,,,,0,,,77,0
14300,note_on,10,0,1,,,,,,,,,0,,,81,0
14300,note_on,0,0,1,,,,,,,,,0,,,89,110
14310,note_on,10,0,1,,,,,,,,,0,,,89,0
14310,note_on,0,0,1,,,,,,,,,0,,,85,127
14310,note_on,0,0,4,,,,,,,,,0,,,61,110
14310,note_on,0,0,4,,,,,,,,,0,,,64,127
14310,note_on,0,0,1,,,,,,,,,0,,,76,110
14310,note_on,15,0,4,,,,,,,,,0,,,65,0
14320,note_on,0,0,1,,,,,,,,,0,,,88,110
14320,note_on,10,0,1,,,,,,,,,0,,,76,0
14325,note_on,15,0,4,,,,,,,,,0,,,61,0
14330,note_on,0,0,1,,,,,,,,,0,,,85,110
14330,note_on,10,0,1,,,,,,,,,0,,,88,0
14330,note_on,0,0,1,,,,,,,,,0,,,76,110
14340,note_on,0,0,1,,,,,,,,,0,,,88,110
14340,note_on,0,0,1,,,,,,,,,0,,,85,0
14340,note_on,15,0,4,,,,,,,,,0,,,53,110
14340,note_on,10,0,1,,,,,,,,,0,,,76,0
14350,note_on,10,0,1,,,,,,,,,0,,,88,0
14350,note_on,0,0,1,,,,,,,,,0,,,85,110
14350,note_on,0,0,1,,,,,,,,,0,,,76,110
14355,note_on,15,0,4,,,,,,,,,0,,,53,0
14360,note_on,0,0,1,,,,,,,,,0,,,88,110
14360,note_on,0,0,1,,,,,,,,,0,,,85,0
14360,note_on,10,0,1,,,,,,,,,0,,,76,0
14370,note_on,0,0,1,,,,,,,,,0,,,85,0
14370,note_on,0,0,1,,,,,,,,,0,,,84,127
14370,note_on,0,0,1,,,,,,,,,0,,,75,110
14370,note_on,10,0,1,,,,,,,,,0,,,88,0
14370,note_on,0,0,4,,,,,,,,,0,,,63,127
14370,note_on,0,0,4,,,,,,,,,0,,,60,110
14370,note_on,15,0,4,,,,,,,,,0,,,64,0
14380,note_on,10,0,1,,,,,,,,,0,,,75,0
14380,note_on,0,0,1,,,,,,,,,0,,,87,110
14385,note_on,15,0,4,,,,,,,,,0,,,60,0
14390,note_on,0,0,1,,,,,,,,,0,,,84,110
14390,note_on,0,0,1,,,,,,,,,0,,,75,110
14390,note_on,10,0,1,,,,,,,,,0,,,87,0
14400,note_on,10,0,1,,,,,,,,,0,,,75,0
14400,note_on,15,0,4,,,,,,,,,0,,,41,110
14400,note_on,0,0,1,,,,,,,,,0,,,84,0
14400,note_on,0,0,1,,,,,,,,,0,,,87,110
14410,note_on,0,0,1,,,,,,,,,0,,,75,110
14410,note_on,10,0,1,,,,,,,,,0,,,87,0
14410,note_on,0,0,1,,,,,,,,,0,,,84,110
14415,note_on,15,0,4,,,,,,,,,0,,,41,0
14420,note_on,10,0,1,,,,,,,,,0,,,75,0
14420,note_on,0,0,1,,,,,,,,,0,,,84,0
14420,note_on,0,0,1,,,,,,,,,0,,,87,110
14430,note_on,0,0,1,,,,,,,,,0,,,74,110
14430,note_on,0,0,1,,,,,,,,,0,,,83,127
14430,note_on,15,0,4,,,,,,,,,0,,,63,0
14430,note_on,0,0,4,,,,,,,,,0,,,59,110
14430,note_on,0,0,4,,,,,,,,,0,,,62,127
14430,note_on,10,0,1,,,,,,,,,0,,,87,0
14430,note_on,0,0,1,,,,,,,,,0,,,84,0
14440,note_on,0,0,1,,,,,,,,,0,,,86,110
14440,note_on,10,0,1,,,,,,,,,0,,,74,0
14445,note_on,15,0,4,,,,,,,,,0,,,59,0
14450,note_on,0,0,1,,,,,,,,,0,,,74,110
14450,note_on,10,0,1,,,,,,,,,0,,,86,0
14450,note_on,0,0,1,,,,,,,,,0,,,83,110
14460,note_on,10,0,1,,,,,,,,,0,,,74,0
14460,note_on,0,0,1,,,,,,,,,0,,,86,110
14460,note_on,15,0,4,,,,,,,,,0,,,53,110
14460,note_on,0,0,1,,,,,,,,,0,,,83,0
14470,note_on,0,0,1,,,,,,,,,0,,,83,110
14470,note_on,0,0,1,,,,,,,,,0,,,74,110
14470,note_on,10,0,1,,,,,,,,,0,,,86,0
14475,note_on,15,0,4,,,,,,,,,0,,,53,0
14480,note_on,0,0,1,,,,,,,,,0,,,86,110
14480,note_on,0,0,1,,,,,,,,,0,,,83,0
14480,note_on,10,0,1,,,,,,,,,0,,,74,0
14490,note_on,15,0,4,,,,,,,,,0,,,62,0
14490,note_on,0,0,1,,,,,,,,,0,,,82,127
14490,note_on,0,0,4,,,,,,,,,0,,,52,110
14490,note_on,0,0,4,,,,,,,,,0,,,58,110
14490,note_on,0,0,1,,,,,,,,,0,,,73,110
14490,note_on,0,0,4,,,,,,,,,0,,,61,127
14490,note_on,10,0,1,,,,,,,,,0,,,86,0
14490,note_on,0,0,1,,,,,,,,,0,,,83,0
14500,note_on,10,0,1,,,,,,,,,0,,,73,0
14500,note_on,0,0,1,,,,,,,,,0,,,85,110
14505,note_on,0,0,4,,,,,,,,,0,,,52,0
14505,note_on,15,0,4,,,,,,,,,0,,,58,0
14510,note_on,0,0,1,,,,,,,,,0,,,73,110
14510,note_on,0,0,1,,,,,,,,,0,,,82,110
14510,note_on,10,0,1,,,,,,,,,0,,,85,0
14520,note_on,0,0,1,,,,,,,,,0,,,85,110
14520,note_on,15,0,4,,,,,,,,,0,,,41,110
14520,note_on,0,0,1,,,,,,,,,0,,,82,0
14520,note_on,10,0,1,,,,,,,,,0,,,73,0
14530,note_on,10,0,1,,,,,,,,,0,,,85,0
14530,note_on,0,0,1,,,,,,,,,0,,,73,110
14530,note_on,0,0,1,,,,,,,,,0,,,82,110
14535,note_on,15,0,4,,,,,,,,,0,,,41,0
14540,note_on,0,0,1,,,,,,,,,0,,,82,0
14540,note_on,0,0,1,,,,,,,,,0,,,85,110
14540,note_on,10,0,1,,,,,,,,,0,,,73,0
14550,note_on,10,0,1,,,,,,,,,0,,,85,0
14550,note_on,0,0,1,,,,,,,,,0,,,81,127
14550,note_on,0,0,1,,,,,,,,,0,,,82,0
14550,note_on,15,0,4,,,,,,,,,0,,,61,0
14550,note_on,0,0,4,,,,,,,,,0,,,53,110
14550,note_on,0,0,4,,,,,,,,,0,,,57,110
14550,note_on,0,0,4,,,,,,,,,0,,,60,127
14550,note_on,0,0,1,,,,,,,,,0,,,72,110
14560,note_on,0,0,1,,,,,,,,,0,,,84,110
14560,note_on,10,0,1,,,,,,,,,0,,,72,0
14565,note_on,0,0,4,,,,,,,,,0,,,57,0
14565,note_on,15,0,4,,,,,,,,,0,,,53,0
14570,note_on,0,0,1,,,,,,,,,0,,,72,110
14570,note_on,0,0,1,,,,,,,,,0,,,81,110
14570,note_on,10,0,1,,,,,,,,,0,,,84,0
14580,note_on,10,0,1,,,,,,,,,0,,,72,0
14580,note_on,0,0,1,,,,,,,,,0,,,84,110
14580,note_on,0,0,1,,,,,,,,,0,,,81,0
14590,note_on,0,0,1,,,,,,,,,0,,,72,110
14590,note_on,0,0,1,,,,,,,,,0,,,81,110
14590,note_on,10,0,1,,,,,,,,,0,,,84,0
14600,note_on,0,0,1,,,,,,,,,0,,,81,0
14600,note_on,0,0,1,,,,,,,,,0,,,84,110
14600,note_on,10,0,1,,,,,,,,,0,,,72,0
14610,note_on,0,0,1,,,,,,,,,0,,,81,0
14610,note_on,0,0,1,,,,,,,,,0,,,78,110
14610,note_on,0,0,1,,,,,,,,,0,,,81,110
14610,note_on,0,0,4,,,,,,,,,0,,,39,110
14610,control_change,600,0,5,,,,,,,,,0,64,127,,
14610,note_on,10,0,1,,,,,,,,,0,,,84,0
14610,note_on,45,0,4,,,,,,,,,0,,,60,0
14610,note_on,0,0,1,,,,,,,,,0,,,84,110
14617,note_on,7,0,4,,,,,,,,,0,,,51,110
14617,note_on,7,0,1,,,,,,,,,0,,,90,110
14618,note_on,0,0,1,,,,,,,,,0,,,81,0
14618,note_on,1,0,1,,,,,,,,,0,,,78,0
14618,note_on,1,0,4,,,,,,,,,0,,,39,0
14618,note_on,0,0,1,,,,,,,,,0,,,84,0
14625,note_on,0,0,1,,,,,,,,,0,,,78,110
14625,note_on,0,0,1,,,,,,,,,0,,,81,110
14625,note_on,7,0,4,,,,,,,,,0,,,51,0
14625,note_on,0,0,1,,,,,,,,,0,,,84,110
14625,note_on,7,0,1,,,,,,,,,0,,,90,0
14625,note_on,0,0,4,,,,,,,,,0,,,63,127
14632,note_on,7,0,1,,,,,,,,,0,,,90,110
14633,note_on,1,0,1,,,,,,,,,0,,,78,0
14633,note_on,0,0,1,,,,,,,,,0,,,84,0
14633,note_on,0,0,1,,,,,,,,,0,,,81,0
14640,note_on,7,0,1,,,,,,,,,0,,,90,0
14640,note_on,0,0,1,,,,,,,,,0,,,84,110
14640,note_on,0,0,1,,,,,,,,,0,,,81,110
14640,note_on,0,0,1,,,,,,,,,0,,,78,110
14647,note_on,7,0,1,,,,,,,,,0,,,90,110
14648,note_on,1,0,1,,,,,,,,,0,,,78,0
14648,note_on,0,0,1,,,,,,,,,0,,,84,0
14648,note_on,0,0,1,,,,,,,,,0,,,81,0
14655,note_on,7,0,1,,,,,,,,,0,,,90,0
14655,note_on,0,0,1,,,,,,,,,0,,,81,110
14655,note_on,0,0,1,,,,,,,,,0,,,78,110
14655,note_on,0,0,1,,,,,,,,,0,,,84,110
14662,note_on,7,0,1,,,,,,,,,0,,,90,110
14663,note_on,0,0,1,,,,,,,,,0,,,84,0
14663,note_on,1,0,1,,,,,,,,,0,,,78,0
14663,note_on,0,0,1,,,,,,,,,0,,,81,0
14670,note_on,0,0,1,,,,,,,,,0,,,78,110
14670,note_on,0,0,1,,,,,,,,,0,,,81,110
14670,note_on,0,0,1,,,,,,,,,0,,,84,110
14670,note_on,7,0,1,,,,,,,,,0,,,90,0
14677,note_on,7,0,1,,,,,,,,,0,,,90,110
14678,note_on,0,0,1,,,,,,,,,0,,,81,0
14678,note_on,1,0,1,,,,,,,,,0,,,78,0
14678,note_on,0,0,1,,,,,,,,,0,,,84,0
14685,note_on,7,0,1,,,,,,,,,0,,,90,0
14685,note_on,0,0,1,,,,,,,,,0,,,78,110
14685,note_on,0,0,1,,,,,,,,,0,,,81,110
14685,note_on,0,0,1,,,,,,,,,0,,,84,110
14692,note_on,7,0,1,,,,,,,,,0,,,90,110
14693,note_on,1,0,1,,,,,,,,,0,,,78,0
14693,note_on,0,0,1,,,,,,,,,0,,,81,0
14693,note_on,0,0,1,,,,,,,,,0,,,84,0
14700,note_on,0,0,1,,,,,,,,,0,,,78,110
14700,note_on,7,0,1,,,,,,,,,0,,,90,0
14700,note_on,0,0,1,,,,,,,,,0,,,84,110
14700,note_on,0,0,1,,,,,,,,,0,,,81,110
14707,note_on,7,0,1,,,,,,,,,0,,,90,110
14708,note_on,0,0,1,,,,,,,,,0,,,81,0
14708,note_on,0,0,1,,,,,,,,,0,,,84,0
14708,note_on,1,0,1,,,,,,,,,0,,,78,0
14715,note_on,7,0,1,,,,,,,,,0,,,90,0
14715,note_on,0,0,1,,,,,,,,,0,,,78,110
14715,note_on,0,0,1,,,,,,,,,0,,,81,110
14715,note_on,0,0,1,,,,,,,,,0,,,84,110
14722,note_on,7,0,1,,,,,,,,,0,,,90,110
14723,note_on,1,0,1,,,,,,,,,0,,,78,0
14723,note_on,0,0,1,,,,,,,,,0,,,81,0
14723,note_on,0,0,1,,,,,,,,,0,,,84,0
14730,note_on,105,0,4,,,,,,,,,0,,,63,0
14730,note_on,0,0,4,,,,,,,,,0,,,38,110
14730,control_change,120,0,5,,,,,,,,,0,64,0,,
14730,note_on,7,0,1,,,,,,,,,0,,,90,0
14730,note_on,0,0,1,,,,,,,,,0,,,81,110
14730,note_on,0,0,1,,,,,,,,,0,,,78,110
14730,note_on,0,0,1,,,,,,,,,0,,,84,110
14737,note_on,7,0,1,,,,,,,,,0,,,90,110
14737,note_on,7,0,4,,,,,,,,,0,,,50,110
14738,note_on,1,0,4,,,,,,,,,0,,,38,0
14738,note_on,1,0,1,,,,,,,,,0,,,78,0
14738,note_on,0,0,1,,,,,,,,,0,,,84,0
14738,note_on,0,0,1,,,,,,,,,0,,,81,0
14745,note_on,0,0,1,,,,,,,,,0,,,78,110
14745,note_on,0,0,4,,,,,,,,,0,,,62,110
14745,note_on,7,0,1,,,,,,,,,0,,,90,0
14745,note_on,0,0,1,,,,,,,,,0,,,81,110
14745,note_on,0,0,1,,,,,,,,,0,,,84,110
14745,note_on,7,0,4,,,,,,,,,0,,,50,0
14752,note_on,7,0,1,,,,,,,,,0,,,90,110
14753,note_on,1,0,1,,,,,,,,,0,,,78,0
14753,note_on,0,0,1,,,,,,,,,0,,,81,0
14753,note_on,0,0,1,,,,,,,,,0,,,84,0
14760,note_on,7,0,1,,,,,,,,,0,,,90,0
14760,note_on,15,0,4,,,,,,,,,0,,,62,0
14760,note_on,0,0,1,,,,,,,,,0,,,78,110
14760,note_on,0,0,1,,,,,,,,,0,,,81,110
14760,note_on,0,0,1,,,,,,,,,0,,,84,110
14767,note_on,7,0,1,,,,,,,,,0,,,90,110
14768,note_on,0,0,1,,,,,,,,,0,,,81,0
14768,note_on,0,0,1,,,,,,,,,0,,,84,0
14768,note_on,1,0,1,,,,,,,,,0,,,78,0
14775,note_on,0,0,1,,,,,,,,,0,,,84,110
14775,note_on,0,0,1,,,,,,,,,0,,,81,110
14775,note_on,0,0,1,,,,,,,,,0,,,78,110
14775,note_on,7,0,1,,,,,,,,,0,,,90,0
14782,note_on,7,0,1,,,,,,,,,0,,,90,110
14783,note_on,1,0,1,,,,,,,,,0,,,78,0
14783,note_on,0,0,1,,,,,,,,,0,,,81,0
14783,note_on,0,0,1,,,,,,,,,0,,,84,0
14790,note_on,0,0,1,,,,,,,,,0,,,84,120
14790,note_on,0,0,1,,,,,,,,,0,,,81,110
14790,note_on,0,0,1,,,,,,,,,0,,,78,110
14790,note_on,540,0,3,,,,,,,,,0,,,63,127
14790,note_on,7,0,1,,,,,,,,,0,,,90,0
14790,note_on,0,0,3,,,,,,,,,0,,,75,127
14800,note_on,10,0,1,,,,,,,,,0,,,78,0
14800,note_on,0,0,1,,,,,,,,,0,,,81,0
14800,note_on,0,0,1,,,,,,,,,0,,,90,110
14810,note_on,0,0,1,,,,,,,,,0,,,84,110
14810,note_on,10,0,1,,,,,,,,,0,,,90,0
14810,note_on,0,0,1,,,,,,,,,0,,,78,110
14810,note_on,0,0,1,,,,,,,,,0,,,81,110
14820,note_on,0,0,1,,,,,,,,,0,,,81,0
14820,note_on,0,0,1,,,,,,,,,0,,,84,0
14820,note_on,0,0,1,,,,,,,,,0,,,90,110
14820,note_on,10,0,1,,,,,,,,,0,,,78,0
14830,note_on,10,0,1,,,,,,,,,0,,,90,0
14830,note_on,0,0,1,,,,,,,,,0,,,81,110
14830,note_on,0,0,1,,,,,,,,,0,,,78,110
14830,note_on,0,0,1,,,,,,,,,0,,,84,110
14840,note_on,0,0,1,,,,,,,,,0,,,78,0
14840,note_on,0,0,1,,,,,,,,,0,,,84,0
14840,note_on,0,0,1,,,,,,,,,0,,,90,110
14840,note_on,10,0,1,,,,,,,,,0,,,81,0
14850,note_on,60,0,3,,,,,,,,,0,,,75,0
14850,note_on,10,0,1,,,,,,,,,0,,,90,0
14850,note_on,0,0,1,,,,,,,,,0,,,81,110
14850,note_on,0,0,1,,,,,,,,,0,,,78,110
14850,note_on,0,0,3,,,,,,,,,0,,,74,127
14850,note_on,0,0,3,,,,,,,,,0,,,63,0
14850,note_on,0,0,3,,,,,,,,,0,,,62,127
14850,note_on,0,0,1,,,,,,,,,0,,,86,120
14850,note_on,0,0,1,,,,,,,,,0,,,84,0
14860,note_on,0,0,1,,,,,,,,,0,,,78,0
14860,note_on,0,0,1,,,,,,,,,0,,,90,110
14860,note_on,10,0,1,,,,,,,,,0,,,81,0
14870,note_on,0,0,1,,,,,,,,,0,,,78,110
14870,note_on,0,0,1,,,,,,,,,0,,,86,110
14870,note_on,0,0,1,,,,,,,,,0,,,81,110
14870,note_on,10,0,1,,,,,,,,,0,,,90,0
14880,note_on,0,0,1,,,,,,,,,0,,,90,110
14880,note_on,0,0,1,,,,,,,,,0,,,86,0
14880,note_on,10,0,1,,,,,,,,,0,,,81,0
14880,note_on,0,0,1,,,,,,,,,0,,,78,0
14890,note_on,0,0,1,,,,,,,,,0,,,81,110
14890,note_on,0,0,1,,,,,,,,,0,,,86,110
14890,note_on,0,0,1,,,,,,,,,0,,,78,110
14890,note_on,10,0,1,,,,,,,,,0,,,90,0
14900,note_on,0,0,1,,,,,,,,,0,,,90,110
14900,note_on,0,0,1,,,,,,,,,0,,,86,0
14900,note_on,0,0,1,,,,,,,,,0,,,78,0
14900,note_on,10,0,1,,,,,,,,,0,,,81,0
14910,note_on,0,0,1,,,,,,,,,0,,,86,0
14910,note_on,0,0,1,,,,,,,,,0,,,87,120
14910,note_on,0,0,3,,,,,,,,,0,,,60,127
14910,note_on,0,0,1,,,,,,,,,0,,,81,110
14910,note_on,0,0,3,,,,,,,,,0,,,74,0
14910,note_on,10,0,1,,,,,,,,,0,,,90,0
14910,note_on,0,0,3,,,,,,,,,0,,,72,127
14910,note_on,60,0,3,,,,,,,,,0,,,62,0
14910,note_on,0,0,1,,,,,,,,,0,,,78,110
14920,note_on,10,0,1,,,,,,,,,0,,,78,0
14920,note_on,0,0,1,,,,,,,,,0,,,90,110
14920,note_on,0,0,1,,,,,,,,,0,,,81,0
14930,note_on,0,0,1,,,,,,,,,0,,,87,110
14930,note_on,10,0,1,,,,,,,,,0,,,90,0
14930,note_on,0,0,1,,,,,,,,,0,,,78,110
14930,note_on,0,0,1,,,,,,,,,0,,,81,110
14940,note_on,0,0,1,,,,,,,,,0,,,81,0
14940,note_on,0,0,1,,,,,,,,,0,,,87,0
14940,note_on,0,0,1,,,,,,,,,0,,,90,110
14940,note_on,10,0,1,,,,,,,,,0,,,78,0
14950,note_on,0,0,1,,,,,,,,,0,,,87,110
14950,note_on,0,0,1,,,,,,,,,0,,,78,110
14950,note_on,10,0,1,,,,,,,,,0,,,90,0
14950,note_on,0,0,1,,,,,,,,,0,,,81,110
14960,note_on,10,0,1,,,,,,,,,0,,,81,0
14960,note_on,0,0,1,,,,,,,,,0,,,78,0
14960,note_on,0,0,1,,,,,,,,,0,,,87,0
14960,note_on,0,0,1,,,,,,,,,0,,,90,110
14970,note_on,10,0,1,,,,,,,,,0,,,90,0
14970,note_on,60,0,3,,,,,,,,,0,,,60,0
14970,note_on,210,0,4,,,,,,,,,0,,,55,110
14970,note_on,0,0,3,,,,,,,,,0,,,72,0
14970,note_on,0,0,4,,,,,,,,,0,,,59,110
14970,note_on,0,0,4,,,,,,,,,0,,,67,120
14970,note_on,0,0,1,,,,,,,,,0,,,87,0
14970,note_on,0,0,1,,,,,,,,,0,,,82,110
14970,note_on,0,0,1,,,,,,,,,0,,,79,110
14980,note_on,0,0,1,,,,,,,,,0,,,91,120
14980,note_on,10,0,1,,,,,,,,,0,,,79,0
14980,note_on,0,0,1,,,,,,,,,0,,,82,0
14985,note_on,15,0,4,,,,,,,,,0,,,59,0
14985,note_on,0,0,4,,,,,,,,,0,,,55,0
14990,note_on,10,0,1,,,,,,,,,0,,,82,110
14990,note_on,0,0,1,,,,,,,,,0,,,79,110
15000,note_on,0,0,1,,,,,,,,,0,,,82,0
15000,note_on,0,0,1,,,,,,,,,0,,,91,110
15000,note_on,15,0,4,,,,,,,,,0,,,43,110
15000,note_on,10,0,1,,,,,,,,,0,,,79,0
15010,note_on,0,0,1,,,,,,,,,0,,,79,110
15010,note_on,0,0,1,,,,,,,,,0,,,82,110
15010,note_on,10,0,1,,,,,,,,,0,,,91,0
15015,note_on,15,0,4,,,,,,,,,0,,,43,0
15020,note_on,0,0,1,,,,,,,,,0,,,79,0
15020,note_on,0,0,1,,,,,,,,,0,,,91,110
15020,note_on,10,0,1,,,,,,,,,0,,,82,0
15030,note_on,15,0,4,,,,,,,,,0,,,67,0
15030,note_on,0,0,4,,,,,,,,,0,,,65,120
15030,note_on,0,0,4,,,,,,,,,0,,,59,110
15030,note_on,10,0,1,,,,,,,,,0,,,91,0
15030,note_on,0,0,4,,,,,,,,,0,,,62,110
15030,note_on,0,0,1,,,,,,,,,0,,,91,0
15030,note_on,0,0,1,,,,,,,,,0,,,86,110
15030,note_on,0,0,1,,,,,,,,,0,,,79,110
15030,note_on,0,0,1,,,,,,,,,0,,,77,110
15040,note_on,0,0,1,,,,,,,,,0,,,86,0
15040,note_on,0,0,1,,,,,,,,,0,,,77,0
15040,note_on,0,0,1,,,,,,,,,0,,,89,120
15040,note_on,10,0,1,,,,,,,,,0,,,79,0
15045,note_on,0,0,4,,,,,,,,,0,,,62,0
15045,note_on,15,0,4,,,,,,,,,0,,,59,0
15050,note_on,0,0,1,,,,,,,,,0,,,77,110
15050,note_on,0,0,1,,,,,,,,,0,,,79,110
15050,note_on,10,0,1,,,,,,,,,0,,,86,110
15060,note_on,15,0,4,,,,,,,,,0,,,47,110
15060,note_on,0,0,1,,,,,,,,,0,,,86,0
15060,note_on,10,0,1,,,,,,,,,0,,,79,0
15060,note_on,0,0,1,,,,,,,,,0,,,77,0
15060,note_on,0,0,1,,,,,,,,,0,,,89,110
15070,note_on,0,0,1,,,,,,,,,0,,,86,110
15070,note_on,0,0,1,,,,,,,,,0,,,79,110
15070,note_on,10,0,1,,,,,,,,,0,,,89,0
15070,note_on,0,0,1,,,,,,,,,0,,,77,110
15075,note_on,15,0,4,,,,,,,,,0,,,47,0
15080,note_on,0,0,1,,,,,,,,,0,,,89,110
15080,note_on,0,0,1,,,,,,,,,0,,,79,0
15080,note_on,0,0,1,,,,,,,,,0,,,77,0
15080,note_on,10,0,1,,,,,,,,,0,,,86,0
15090,note_on,0,0,1,,,,,,,,,0,,,79,110
15090,note_on,15,0,4,,,,,,,,,0,,,65,0
15090,note_on,0,0,4,,,,,,,,,0,,,63,120
15090,note_on,0,0,4,,,,,,,,,0,,,60,110
15090,note_on,0,0,1,,,,,,,,,0,,,75,110
15090,note_on,0,0,1,,,,,,,,,0,,,89,0
15090,note_on,10,0,1,,,,,,,,,0,,,89,0
15100,note_on,0,0,1,,,,,,,,,0,,,79,0
15100,note_on,0,0,1,,,,,,,,,0,,,87,120
15100,note_on,10,0,1,,,,,,,,,0,,,75,0
15105,note_on,15,0,4,,,,,,,,,0,,,60,0
15110,note_on,10,0,1,,,,,,,,,0,,,79,110
15110,note_on,0,0,1,,,,,,,,,0,,,75,110
15120,note_on,10,0,1,,,,,,,,,0,,,75,0
15120,note_on,0,0,1,,,,,,,,,0,,,79,0
15120,note_on,15,0,4,,,,,,,,,0,,,48,110
15120,note_on,0,0,1,,,,,,,,,0,,,87,110
15130,note_on,10,0,1,,,,,,,,,0,,,87,0
15130,note_on,0,0,1,,,,,,,,,0,,,79,110
15130,note_on,0,0,1,,,,,,,,,0,,,75,110
15135,note_on,15,0,4,,,,,,,,,0,,,48,0
15140,note_on,0,0,1,,,,,,,,,0,,,87,110
15140,note_on,10,0,1,,,,,,,,,0,,,79,0
15140,note_on,0,0,1,,,,,,,,,0,,,75,0
15150,note_on,15,0,4,,,,,,,,,0,,,63,0
15150,note_on,0,0,4,,,,,,,,,0,,,60,120
15150,note_on,0,0,4,,,,,,,,,0,,,58,110
15150,note_on,0,0,1,,,,,,,,,0,,,87,0
15150,note_on,0,0,1,,,,,,,,,0,,,75,110
15150,note_on,0,0,1,,,,,,,,,0,,,72,110
15150,note_on,10,0,1,,,,,,,,,0,,,87,0
15160,note_on,10,0,1,,,,,,,,,0,,,72,0
15160,note_on,0,0,1,,,,,,,,,0,,,84,120
15160,note_on,0,0,1,,,,,,,,,0,,,75,0
15165,note_on,15,0,4,,,,,,,,,0,,,58,0
15170,note_on,0,0,1,,,,,,,,,0,,,72,110
15170,note_on,10,0,1,,,,,,,,,0,,,75,110
15180,note_on,15,0,4,,,,,,,,,0,,,46,110
15180,note_on,0,0,1,,,,,,,,,0,,,75,0
15180,note_on,0,0,1,,,,,,,,,0,,,84,110
15180,note_on,10,0,1,,,,,,,,,0,,,72,0
15190,note_on,0,0,1,,,,,,,,,0,,,72,110
15190,note_on,0,0,1,,,,,,,,,0,,,75,110
15190,note_on,10,0,1,,,,,,,,,0,,,84,0
15195,note_on,15,0,4,,,,,,,,,0,,,46,0
15200,note_on,0,0,1,,,,,,,,,0,,,72,0
15200,note_on,0,0,1,,,,,,,,,0,,,84,110
15200,note_on,10,0,1,,,,,,,,,0,,,75,0
15210,note_on,0,0,4,,,,,,,,,0,,,57,110
15210,note_on,0,0,4,,,,,,,,,0,,,60,110
15210,note_on,15,0,4,,,,,,,,,0,,,60,0
15210,note_on,0,0,4,,,,,,,,,0,,,63,120
15210,note_on,10,0,1,,,,,,,,,0,,,84,0
15210,note_on,0,0,1,,,,,,,,,0,,,84,0
15210,note_on,0,0,1,,,,,,,,,0,,,79,110
15210,note_on,0,0,1,,,,,,,,,0,,,75,110
15220,note_on,10,0,1,,,,,,,,,0,,,75,0
15220,note_on,0,0,1,,,,,,,,,0,,,87,120
15220,note_on,0,0,1,,,,,,,,,0,,,79,0
15225,note_on,0,0,4,,,,,,,,,0,,,60,0
15225,note_on,15,0,4,,,,,,,,,0,,,57,0
15230,note_on,0,0,1,,,,,,,,,0,,,75,110
15230,note_on,10,0,1,,,,,,,,,0,,,79,110
15240,note_on,15,0,4,,,,,,,,,0,,,45,110
15240,note_on,10,0,1,,,,,,,,,0,,,75,0
15240,note_on,0,0,1,,,,,,,,,0,,,87,110
15240,note_on,0,0,1,,,,,,,,,0,,,79,0
15250,note_on,10,0,1,,,,,,,,,0,,,87,0
15250,note_on,0,0,1,,,,,,,,,0,,,79,110
15250,note_on,0,0,1,,,,,,,,,0,,,75,110
15255,note_on,15,0,4,,,,,,,,,0,,,45,0
15260,note_on,0,0,1,,,,,,,,,0,,,87,110
15260,note_on,10,0,1,,,,,,,,,0,,,79,0
15260,note_on,0,0,1,,,,,,,,,0,,,75,0
15270,note_on,15,0,4,,,,,,,,,0,,,63,0
15270,note_on,10,0,1,,,,,,,,,0,,,87,0
15270,note_on,0,0,4,,,,,,,,,0,,,55,110
15270,note_on,0,0,1,,,,,,,,,0,,,87,0
15270,note_on,0,0,4,,,,,,,,,0,,,60,120
15270,note_on,0,0,1,,,,,,,,,0,,,72,110
15270,note_on,0,0,1,,,,,,,,,0,,,75,110
15270,note_on,0,0,4,,,,,,,,,0,,,57,110
15280,note_on,10,0,1,,,,,,,,,0,,,72,0
15280,note_on,0,0,1,,,,,,,,,0,,,75,0
15280,note_on,0,0,1,,,,,,,,,0,,,84,120
15285,note_on,15,0,4,,,,,,,,,0,,,57,0
15285,note_on,0,0,4,,,,,,,,,0,,,55,0
15290,note_on,10,0,1,,,,,,,,,0,,,75,110
15290,note_on,0,0,1,,,,,,,,,0,,,72,110
15300,note_on,0,0,1,,,,,,,,,0,,,75,0
15300,note_on,10,0,1,,,,,,,,,0,,,72,0
15300,note_on,15,0,4,,,,,,,,,0,,,43,110
15300,note_on,0,0,1,,,,,,,,,0,,,84,110
15310,note_on,0,0,1,,,,,,,,,0,,,75,110
15310,note_on,0,0,1,,,,,,,,,0,,,72,110
15310,note_on,10,0,1,,,,,,,,,0,,,84,0
15315,note_on,15,0,4,,,,,,,,,0,,,43,0
15320,note_on,0,0,1,,,,,,,,,0,,,84,110
15320,note_on,0,0,1,,,,,,,,,0,,,72,0
15320,note_on,10,0,1,,,,,,,,,0,,,75,0
15330,note_on,0,0,1,,,,,,,,,0,,,81,110
15330,note_on,0,0,4,,,,,,,,,0,,,53,110
15330,note_on,0,0,4,,,,,,,,,0,,,57,110
15330,note_on,0,0,1,,,,,,,,,0,,,77,110
15330,note_on,15,0,4,,,,,,,,,0,,,60,0
15330,note_on,0,0,1,,,,,,,,,0,,,84,0
15330,note_on,10,0,1,,,,,,,,,0,,,84,0
15330,note_on,0,0,4,,,,,,,,,0,,,65,120
15340,note_on,10,0,1,,,,,,,,,0,,,77,0
15340,note_on,0,0,1,,,,,,,,,0,,,89,120
15340,note_on,0,0,1,,,,,,,,,0,,,81,0
15345,note_on,0,0,4,,,,,,,,,0,,,53,0
15345,note_on,15,0,4,,,,,,,,,0,,,57,0
15350,note_on,10,0,1,,,,,,,,,0,,,81,110
15350,note_on,0,0,1,,,,,,,,,0,,,77,110
15360,note_on,15,0,4,,,,,,,,,0,,,41,110
15360,note_on,0,0,1,,,,,,,,,0,,,81,0
15360,note_on,0,0,1,,,,,,,,,0,,,89,110
15360,note_on,10,0,1,,,,,,,,,0,,,77,0
15370,note_on,0,0,1,,,,,,,,,0,,,77,110
15370,note_on,0,0,1,,,,,,,,,0,,,81,110
15370,note_on,10,0,1,,,,,,,,,0,,,89,0
15375,note_on,15,0,4,,,,,,,,,0,,,41,0
15380,note_on,0,0,1,,,,,,,,,0,,,77,0
15380,note_on,0,0,1,,,,,,,,,0,,,89,110
15380,note_on,10,0,1,,,,,,,,,0,,,81,0
15390,note_on,0,0,1,,,,,,,,,0,,,84,110
15390,note_on,0,0,4,,,,,,,,,0,,,57,110
15390,note_on,10,0,1,,,,,,,,,0,,,89,0
15390,note_on,15,0,4,,,,,,,,,0,,,65,0
15390,note_on,0,0,4,,,,,,,,,0,,,63,120
15390,note_on,0,0,1,,,,,,,,,0,,,89,0
15390,note_on,0,0,4,,,,,,,,,0,,,60,110
15390,note_on,0,0,1,,,,,,,,,0,,,75,110
15400,note_on,0,0,1,,,,,,,,,0,,,75,0
15400,note_on,0,0,1,,,,,,,,,0,,,87,120
15400,note_on,10,0,1,,,,,,,,,0,,,84,0
15405,note_on,15,0,4,,,,,,,,,0,,,57,0
15405,note_on,0,0,4,,,,,,,,,0,,,60,0
15410,note_on,0,0,1,,,,,,,,,0,,,75,110
15410,note_on,10,0,1,,,,,,,,,0,,,84,110
15420,note_on,15,0,4,,,,,,,,,0,,,45,110
15420,note_on,0,0,1,,,,,,,,,0,,,84,0
15420,note_on,0,0,1,,,,,,,,,0,,,87,110
15420,note_on,10,0,1,,,,,,,,,0,,,75,0
15430,note_on,0,0,1,,,,,,,,,0,,,84,110
15430,note_on,10,0,1,,,,,,,,,0,,,87,0
15430,note_on,0,0,1,,,,,,,,,0,,,75,110
15435,note_on,15,0,4,,,,,,,,,0,,,45,0
15440,note_on,10,0,1,,,,,,,,,0,,,84,0
15440,note_on,0,0,1,,,,,,,,,0,,,75,0
15440,note_on,0,0,1,,,,,,,,,0,,,87,110
15450,note_on,10,0,1,,,,,,,,,0,,,87,0
15450,note_on,0,0,4,,,,,,,,,0,,,62,120
15450,note_on,15,0,4,,,,,,,,,0,,,63,0
15450,note_on,0,0,4,,,,,,,,,0,,,58,110
15450,note_on,0,0,1,,,,,,,,,0,,,77,110
15450,note_on,0,0,1,,,,,,,,,0,,,87,0
15450,note_on,0,0,1,,,,,,,,,0,,,74,110
15460,note_on,0,0,1,,,,,,,,,0,,,77,0
15460,note_on,10,0,1,,,,,,,,,0,,,74,0
15460,note_on,0,0,1,,,,,,,,,0,,,86,120
15465,note_on,15,0,4,,,,,,,,,0,,,58,0
15470,note_on,10,0,1,,,,,,,,,0,,,77,110
15470,note_on,0,0,1,,,,,,,,,0,,,74,110
15480,note_on,15,0,4,,,,,,,,,0,,,46,110
15480,note_on,10,0,1,,,,,,,,,0,,,74,0
15480,note_on,0,0,1,,,,,,,,,0,,,86,110
15480,note_on,0,0,1,,,,,,,,,0,,,77,0
15490,note_on,10,0,1,,,,,,,,,0,,,86,0
15490,note_on,0,0,1,,,,,,,,,0,,,74,110
15490,note_on,0,0,1,,,,,,,,,0,,,77,110
15495,note_on,15,0,4,,,,,,,,,0,,,46,0
15500,note_on,10,0,1,,,,,,,,,0,,,77,0
15500,note_on,0,0,1,,,,,,,,,0,,,86,110
15500,note_on,0,0,1,,,,,,,,,0,,,74,0
15510,note_on,10,0,1,,,,,,,,,0,,,86,0
15510,note_on,15,0,4,,,,,,,,,0,,,62,0
15510,note_on,0,0,4,,,,,,,,,0,,,58,120
15510,note_on,0,0,4,,,,,,,,,0,,,57,110
15510,note_on,0,0,1,,,,,,,,,0,,,70,110
15510,note_on,0,0,1,,,,,,,,,0,,,74,110
15510,note_on,0,0,1,,,,,,,,,0,,,86,0
15520,note_on,0,0,1,,,,,,,,,0,,,82,120
15520,note_on,0,0,1,,,,,,,,,0,,,74,0
15520,note_on,10,0,1,,,,,,,,,0,,,70,0
15525,note_on,15,0,4,,,,,,,,,0,,,57,0
15530,note_on,0,0,1,,,,,,,,,0,,,70,110
15530,note_on,10,0,1,,,,,,,,,0,,,74,110
15540,note_on,0,0,1,,,,,,,,,0,,,82,110
15540,note_on,0,0,1,,,,,,,,,0,,,74,0
15540,note_on,10,0,1,,,,,,,,,0,,,70,0
15540,note_on,15,0,4,,,,,,,,,0,,,45,110
15550,note_on,10,0,1,,,,,,,,,0,,,82,0
15550,note_on,0,0,1,,,,,,,,,0,,,70,110
15550,note_on,0,0,1,,,,,,,,,0,,,74,110
15555,note_on,15,0,4,,,,,,,,,0,,,45,0
15560,note_on,10,0,1,,,,,,,,,0,,,74,0
15560,note_on,0,0,1,,,,,,,,,0,,,82,110
15560,note_on,0,0,1,,,,,,,,,0,,,70,0
15570,note_on,15,0,4,,,,,,,,,0,,,58,0
15570,note_on,0,0,4,,,,,,,,,0,,,55,110
15570,note_on,10,0,1,,,,,,,,,0,,,82,0
15570,note_on,0,0,4,,,,,,,,,0,,,58,110
15570,note_on,0,0,4,,,,,,,,,0,,,62,120
15570,note_on,0,0,1,,,,,,,,,0,,,82,0
15570,note_on,0,0,1,,,,,,,,,0,,,74,110
15570,note_on,0,0,1,,,,,,,,,0,,,77,110
15580,note_on,10,0,1,,,,,,,,,0,,,74,0
15580,note_on,0,0,1,,,,,,,,,0,,,86,120
15580,note_on,0,0,1,,,,,,,,,0,,,77,0
15585,note_on,0,0,4,,,,,,,,,0,,,58,0
15585,note_on,15,0,4,,,,,,,,,0,,,55,0
15590,note_on,10,0,1,,,,,,,,,0,,,77,110
15590,note_on,0,0,1,,,,,,,,,0,,,74,110
15600,note_on,0,0,1,,,,,,,,,0,,,86,110
15600,note_on,15,0,4,,,,,,,,,0,,,43,110
15600,note_on,10,0,1,,,,,,,,,0,,,74,0
15600,note_on,0,0,1,,,,,,,,,0,,,77,0
15610,note_on,10,0,1,,,,,,,,,0,,,86,0
15610,note_on,0,0,1,,,,,,,,,0,,,77,110
15610,note_on,0,0,1,,,,,,,,,0,,,74,110
15615,note_on,15,0,4,,,,,,,,,0,,,43,0
15620,note_on,0,0,1,,,,,,,,,0,,,86,110
15620,note_on,0,0,1,,,,,,,,,0,,,74,0
15620,note_on,10,0,1,,,,,,,,,0,,,77,0
15630,note_on,0,0,1,,,,,,,,,0,,,86,0
15630,note_on,0,0,1,,,,,,,,,0,,,74,110
15630,note_on,0,0,4,,,,,,,,,0,,,53,110
15630,note_on,10,0,1,,,,,,,,,0,,,86,0
15630,note_on,0,0,4,,,,,,,,,0,,,58,120
15630,note_on,15,0,4,,,,,,,,,0,,,62,0
15630,note_on,0,0,1,,,,,,,,,0,,,70,110
15630,note_on,0,0,4,,,,,,,,,0,,,55,110
15640,note_on,10,0,1,,,,,,,,,0,,,70,0
15640,note_on,0,0,1,,,,,,,,,0,,,82,120
15640,note_on,0,0,1,,,,,,,,,0,,,74,0
15645,note_on,15,0,4,,,,,,,,,0,,,55,0
15645,note_on,0,0,4,,,,,,,,,0,,,53,0
15650,note_on,0,0,1,,,,,,,,,0,,,70,110
15650,note_on,10,0,1,,,,,,,,,0,,,74,110
15660,note_on,0,0,1,,,,,,,,,0,,,74,0
15660,note_on,0,0,1,,,,,,,,,0,,,82,110
15660,note_on,10,0,1,,,,,,,,,0,,,70,0
15660,note_on,15,0,4,,,,,,,,,0,,,41,110
15670,note_on,0,0,1,,,,,,,,,0,,,70,110
15670,note_on,10,0,1,,,,,,,,,0,,,82,0
15670,note_on,0,0,1,,,,,,,,,0,,,74,110
15675,note_on,15,0,4,,,,,,,,,0,,,41,0
15680,note_on,0,0,1,,,,,,,,,0,,,82,110
15680,note_on,0,0,1,,,,,,,,,0,,,70,0
15680,note_on,10,0,1,,,,,,,,,0,,,74,0
15690,note_on,15,0,4,,,,,,,,,0,,,58,0
15690,note_on,0,0,4,,,,,,,,,0,,,55,110
15690,note_on,0,0,4,,,,,,,,,0,,,63,120
15690,note_on,10,0,1,,,,,,,,,0,,,82,0
15690,note_on,0,0,4,,,,,,,,,0,,,51,110
15690,note_on,0,0,1,,,,,,,,,0,,,75,110
15690,note_on,0,0,1,,,,,,,,,0,,,79,110
15690,note_on,0,0,1,,,,,,,,,0,,,82,0
15700,note_on,0,0,1,,,,,,,,,0,,,87,120
15700,note_on,0,0,1,,,,,,,,,0,,,79,0
15700,note_on,10,0,1,,,,,,,,,0,,,75,0
15705,note_on,15,0,4,,,,,,,,,0,,,55,0
15705,note_on,0,0,4,,,,,,,,,0,,,51,0
15710,note_on,10,0,1,,,,,,,,,0,,,79,110
15710,note_on,0,0,1,,,,,,,,,0,,,75,110
15720,note_on,0,0,1,,,,,,,,,0,,,87,110
15720,note_on,0,0,1,,,,,,,,,0,,,79,0
15720,note_on,15,0,4,,,,,,,,,0,,,39,110
15720,note_on,10,0,1,,,,,,,,,0,,,75,0
15730,note_on,0,0,1,,,,,,,,,0,,,75,110
15730,note_on,0,0,1,,,,,,,,,0,,,79,110
15730,note_on,10,0,1,,,,,,,,,0,,,87,0
15735,note_on,15,0,4,,,,,,,,,0,,,39,0
15740,note_on,0,0,1,,,,,,,,,0,,,87,110
15740,note_on,0,0,1,,,,,,,,,0,,,75,0
15740,note_on,10,0,1,,,,,,,,,0,,,79,0
15750,note_on,0,0,4,,,,,,,,,0,,,62,120
15750,note_on,0,0,4,,,,,,,,,0,,,58,110
15750,note_on,0,0,4,,,,,,,,,0,,,55,110
15750,note_on,15,0,4,,,,,,,,,0,,,63,0
15750,note_on,0,0,1,,,,,,,,,0,,,82,110
15750,note_on,0,0,1,,,,,,,,,0,,,87,0
15750,note_on,10,0,1,,,,,,,,,0,,,87,0
15750,note_on,0,0,1,,,,,,,,,0,,,74,110
15760,note_on,0,0,1,,,,,,,,,0,,,74,0
15760,note_on,0,0,1,,,,,,,,,0,,,86,120
15760,note_on,10,0,1,,,,,,,,,0,,,82,0
15765,note_on,15,0,4,,,,,,,,,0,,,55,0
15765,note_on,0,0,4,,,,,,,,,0,,,58,0
15770,note_on,10,0,1,,,,,,,,,0,,,82,110
15770,note_on,0,0,1,,,,,,,,,0,,,74,110
15780,note_on,15,0,4,,,,,,,,,0,,,43,110
15780,note_on,0,0,1,,,,,,,,,0,,,82,0
15780,note_on,0,0,1,,,,,,,,,0,,,86,110
15780,note_on,10,0,1,,,,,,,,,0,,,74,0
15790,note_on,0,0,1,,,,,,,,,0,,,82,110
15790,note_on,0,0,1,,,,,,,,,0,,,74,110
15790,note_on,10,0,1,,,,,,,,,0,,,86,0
15795,note_on,15,0,4,,,,,,,,,0,,,43,0
15800,note_on,10,0,1,,,,,,,,,0,,,82,0
15800,note_on,0,0,1,,,,,,,,,0,,,74,0
15800,note_on,0,0,1,,,,,,,,,0,,,86,110
15810,note_on,15,0,4,,,,,,,,,0,,,62,0
15810,note_on,0,0,1,,,,,,,,,0,,,72,110
15810,note_on,0,0,4,,,,,,,,,0,,,60,120
15810,note_on,0,0,4,,,,,,,,,0,,,57,110
15810,note_on,0,0,1,,,,,,,,,0,,,86,0
15810,note_on,0,0,1,,,,,,,,,0,,,75,110
15810,note_on,10,0,1,,,,,,,,,0,,,86,0
15820,note_on,0,0,1,,,,,,,,,0,,,84,120
15820,note_on,10,0,1,,,,,,,,,0,,,72,0
15820,note_on,0,0,1,,,,,,,,,0,,,75,0
15825,note_on,15,0,4,,,,,,,,,0,,,57,0
15830,note_on,10,0,1,,,,,,,,,0,,,75,110
15830,note_on,0,0,1,,,,,,,,,0,,,72,110
15840,note_on,0,0,1,,,,,,,,,0,,,75,0
15840,note_on,10,0,1,,,,,,,,,0,,,72,0
15840,note_on,15,0,4,,,,,,,,,0,,,45,110
15840,note_on,0,0,1,,,,,,,,,0,,,84,110
15850,note_on,10,0,1,,,,,,,,,0,,,84,0
15850,note_on,0,0,1,,,,,,,,,0,,,75,110
15850,note_on,0,0,1,,,,,,,,,0,,,72,110
15855,note_on,15,0,4,,,,,,,,,0,,,45,0
15860,note_on,0,0,1,,,,,,,,,0,,,84,110
15860,note_on,10,0,1,,,,,,,,,0,,,75,0
15860,note_on,0,0,1,,,,,,,,,0,,,72,0
15870,note_on,0,0,1,,,,,,,,,0,,,84,0
15870,note_on,0,0,1,,,,,,,,,0,,,72,110
15870,note_on,0,0,1,,,,,,,,,0,,,69,110
15870,note_on,15,0,4,,,,,,,,,0,,,60,0
15870,note_on,10,0,1,,,,,,,,,0,,,84,0
15870,note_on,0,0,4,,,,,,,,,0,,,55,110
15870,note_on,0,0,4,,,,,,,,,0,,,57,120
15880,note_on,10,0,1,,,,,,,,,0,,,69,0
15880,note_on,0,0,1,,,,,,,,,0,,,72,0
15880,note_on,0,0,1,,,,,,,,,0,,,81,120
15885,note_on,15,0,4,,,,,,,,,0,,,55,0
15890,note_on,0,0,1,,,,,,,,,0,,,69,110
15890,note_on,10,0,1,,,,,,,,,0,,,72,110
15900,note_on,0,0,1,,,,,,,,,0,,,81,110
15900,note_on,0,0,1,,,,,,,,,0,,,72,0
15900,note_on,15,0,4,,,,,,,,,0,,,43,110
15900,note_on,10,0,1,,,,,,,,,0,,,69,0
15910,note_on,10,0,1,,,,,,,,,0,,,81,0
15910,note_on,0,0,1,,,,,,,,,0,,,72,110
15910,note_on,0,0,1,,,,,,,,,0,,,69,110
15915,note_on,15,0,4,,,,,,,,,0,,,43,0
15920,note_on,0,0,1,,,,,,,,,0,,,69,0
15920,note_on,0,0,1,,,,,,,,,0,,,81,110
15920,note_on,10,0,1,,,,,,,,,0,,,72,0
15930,note_on,0,0,1,,,,,,,,,0,,,75,110
15930,note_on,15,0,4,,,,,,,,,0,,,57,0
15930,note_on,0,0,4,,,,,,,,,0,,,57,110
15930,note_on,0,0,4,,,,,,,,,0,,,60,120
15930,note_on,0,0,4,,,,,,,,,0,,,54,110
15930,note_on,10,0,1,,,,,,,,,0,,,81,0
15930,note_on,0,0,1,,,,,,,,,0,,,72,110
15930,note_on,0,0,1,,,,,,,,,0,,,81,0
15940,note_on,0,0,1,,,,,,,,,0,,,84,120
15940,note_on,0,0,1,,,,,,,,,0,,,75,0
15940,note_on,10,0,1,,,,,,,,,0,,,72,0
15945,note_on,0,0,4,,,,,,,,,0,,,57,0
15945,note_on,15,0,4,,,,,,,,,0,,,54,0
15950,note_on,0,0,1,,,,,,,,,0,,,72,110
15950,note_on,10,0,1,,,,,,,,,0,,,75,110
15960,note_on,0,0,1,,,,,,,,,0,,,84,110
15960,note_on,0,0,1,,,,,,,,,0,,,75,0
15960,note_on,10,0,1,,,,,,,,,0,,,72,0
15960,note_on,15,0,4,,,,,,,,,0,,,42,110
15970,note_on,0,0,1,,,,,,,,,0,,,75,110
15970,note_on,10,0,1,,,,,,,,,0,,,84,0
15970,note_on,0,0,1,,,,,,,,,0,,,72,110
15975,note_on,15,0,4,,,,,,,,,0,,,42,0
15980,note_on,0,0,1,,,,,,,,,0,,,72,0
15980,note_on,10,0,1,,,,,,,,,0,,,75,0
15980,note_on,0,0,1,,,,,,,,,0,,,84,110
15990,note_on,0,0,1,,,,,,,,,0,,,72,110
15990,note_on,0,0,1,,,,,,,,,0,,,84,0
15990,note_on,15,0,4,,,,,,,,,0,,,60,0
15990,note_on,0,0,4,,,,,,,,,0,,,55,110
15990,note_on,10,0,1,,,,,,,,,0,,,84,0
15990,note_on,0,0,4,,,,,,,,,0,,,57,120
15990,note_on,0,0,4,,,,,,,,,0,,,51,110
15990,note_on,0,0,1,,,,,,,,,0,,,69,110
16000,note_on,0,0,1,,,,,,,,,0,,,81,120
16000,note_on,10,0,1,,,,,,,,,0,,,69,0
16000,note_on,0,0,1,,,,,,,,,0,,,72,0
16005,note_on,0,0,4,,,,,,,,,0,,,51,0
16005,note_on,15,0,4,,,,,,,,,0,,,55,0
16010,note_on,10,0,1,,,,,,,,,0,,,72,110
16010,note_on,0,0,1,,,,,,,,,0,,,69,110
16020,note_on,0,0,1,,,,,,,,,0,,,72,0
16020,note_on,0,0,1,,,,,,,,,0,,,81,110
16020,note_on,10,0,1,,,,,,,,,0,,,69,0
16020,note_on,15,0,4,,,,,,,,,0,,,39,110
16030,note_on,10,0,1,,,,,,,,,0,,,81,0
16030,note_on,0,0,1,,,,,,,,,0,,,69,110
16030,note_on,0,0,1,,,,,,,,,0,,,72,110
16035,note_on,15,0,4,,,,,,,,,0,,,39,0
16040,note_on,10,0,1,,,,,,,,,0,,,72,0
16040,note_on,0,0,1,,,,,,,,,0,,,69,0
16040,note_on,0,0,1,,,,,,,,,0,,,81,110
16050,note_on,0,0,1,,,,,,,,,0,,,74,110
16050,note_on,0,0,1,,,,,,,,,0,,,78,110
16050,note_on,0,0,1,,,,,,,,,0,,,81,0
16050,note_on,0,0,4,,,,,,,,,0,,,62,120
16050,note_on,0,0,4,,,,,,,,,0,,,54,110
16050,note_on,0,0,4,,,,,,,,,0,,,50,110
16050,note_on,10,0,1,,,,,,,,,0,,,81,0
16050,note_on,15,0,4,,,,,,,,,0,,,57,0
16060,note_on,10,0,1,,,,,,,,,0,,,74,0
16060,note_on,0,0,1,,,,,,,,,0,,,78,0
16060,note_on,0,0,1,,,,,,,,,0,,,86,120
16065,note_on,15,0,4,,,,,,,,,0,,,54,0
16065,note_on,0,0,4,,,,,,,,,0,,,50,0
16070,note_on,0,0,1,,,,,,,,,0,,,74,110
16070,note_on,10,0,1,,,,,,,,,0,,,78,110
16080,note_on,10,0,1,,,,,,,,,0,,,74,0
16080,note_on,0,0,1,,,,,,,,,0,,,86,110
16080,note_on,0,0,1,,,,,,,,,0,,,78,0
16080,note_on,15,0,4,,,,,,,,,0,,,38,110
16090,note_on,0,0,1,,,,,,,,,0,,,78,110
16090,note_on,0,0,1,,,,,,,,,0,,,74,110
16090,note_on,10,0,1,,,,,,,,,0,,,86,0
16095,note_on,15,0,4,,,,,,,,,0,,,38,0
16100,note_on,0,0,1,,,,,,,,,0,,,86,110
16100,note_on,10,0,1,,,,,,,,,0,,,78,0
16100,note_on,0,0,1,,,,,,,,,0,,,74,0
16110,note_on,0,0,1,,,,,,,,,0,,,86,0
16110,note_on,0,0,1,,,,,,,,,0,,,81,110
16110,note_on,0,0,1,,,,,,,,,0,,,72,110
16110,note_on,0,0,4,,,,,,,,,0,,,60,120
16110,note_on,0,0,4,,,,,,,,,0,,,57,110
16110,note_on,0,0,4,,,,,,,,,0,,,54,110
16110,note_on,10,0,1,,,,,,,,,0,,,86,0
16110,note_on,15,0,4,,,,,,,,,0,,,62,0
16120,note_on,10,0,1,,,,,,,,,0,,,81,0
16120,note_on,0,0,1,,,,,,,,,0,,,72,0
16120,note_on,0,0,1,,,,,,,,,0,,,84,120
16125,note_on,15,0,4,,,,,,,,,0,,,54,0
16125,note_on,0,0,4,,,,,,,,,0,,,57,0
16130,note_on,10,0,1,,,,,,,,,0,,,81,110
16130,note_on,0,0,1,,,,,,,,,0,,,72,110
16140,note_on,15,0,4,,,,,,,,,0,,,42,110
16140,note_on,10,0,1,,,,,,,,,0,,,72,0
16140,note_on,0,0,1,,,,,,,,,0,,,84,110
16140,note_on,0,0,1,,,,,,,,,0,,,81,0
16150,note_on,0,0,1,,,,,,,,,0,,,81,110
16150,note_on,0,0,1,,,,,,,,,0,,,72,110
16150,note_on,10,0,1,,,,,,,,,0,,,84,0
16155,note_on,15,0,4,,,,,,,,,0,,,42,0
16160,note_on,10,0,1,,,,,,,,,0,,,81,0
16160,note_on,0,0,1,,,,,,,,,0,,,84,110
16160,note_on,0,0,1,,,,,,,,,0,,,72,0
16170,note_on,0,0,1,,,,,,,,,0,,,79,110
16170,note_on,0,0,1,,,,,,,,,0,,,70,110
16170,note_on,0,0,4,,,,,,,,,0,,,55,110
16170,note_on,0,0,1,,,,,,,,,0,,,84,0
16170,note_on,0,0,4,,,,,,,,,0,,,58,120
16170,note_on,15,0,4,,,,,,,,,0,,,60,0
16170,note_on,10,0,1,,,,,,,,,0,,,84,0
16180,note_on,10,0,1,,,,,,,,,0,,,70,0
16180,note_on,0,0,1,,,,,,,,,0,,,82,120
16180,note_on,0,0,1,,,,,,,,,0,,,79,0
16185,note_on,15,0,4,,,,,,,,,0,,,55,0
16190,note_on,10,0,1,,,,,,,,,0,,,79,110
16190,note_on,0,0,1,,,,,,,,,0,,,70,110
16200,note_on,0,0,1,,,,,,,,,0,,,82,110
16200,note_on,15,0,4,,,,,,,,,0,,,43,110
16200,note_on,0,0,1,,,,,,,,,0,,,79,0
16200,note_on,10,0,1,,,,,,,,,0,,,70,0
16210,note_on,10,0,1,,,,,,,,,0,,,82,0
16210,note_on,0,0,1,,,,,,,,,0,,,79,110
16210,note_on,0,0,1,,,,,,,,,0,,,70,110
16215,note_on,15,0,4,,,,,,,,,0,,,43,0
16220,note_on,0,0,1,,,,,,,,,0,,,82,110
16220,note_on,0,0,1,,,,,,,,,0,,,70,0
16220,note_on,10,0,1,,,,,,,,,0,,,79,0
16230,note_on,15,0,4,,,,,,,,,0,,,58,0
16230,note_on,10,0,1,,,,,,,,,0,,,82,0
16230,note_on,0,0,1,,,,,,,,,0,,,82,0
16230,note_on,0,0,4,,,,,,,,,0,,,62,120
16230,note_on,0,0,1,,,,,,,,,0,,,81,110
16230,note_on,0,0,4,,,,,,,,,0,,,53,110
16230,note_on,0,0,4,,,,,,,,,0,,,57,110
16230,note_on,0,0,1,,,,,,,,,0,,,74,110
16240,note_on,0,0,1,,,,,,,,,0,,,86,120
16240,note_on,10,0,1,,,,,,,,,0,,,74,0
16240,note_on,0,0,1,,,,,,,,,0,,,81,0
16245,note_on,15,0,4,,,,,,,,,0,,,53,0
16245,note_on,0,0,4,,,,,,,,,0,,,57,0
16250,note_on,10,0,1,,,,,,,,,0,,,81,110
16250,note_on,0,0,1,,,,,,,,,0,,,74,110
16260,note_on,10,0,1,,,,,,,,,0,,,74,0
16260,note_on,0,0,1,,,,,,,,,0,,,81,0
16260,note_on,0,0,1,,,,,,,,,0,,,86,110
16260,note_on,15,0,4,,,,,,,,,0,,,41,110
16270,note_on,10,0,1,,,,,,,,,0,,,86,0
16270,note_on,0,0,1,,,,,,,,,0,,,74,110
16270,note_on,0,0,1,,,,,,,,,0,,,81,110
16275,note_on,15,0,4,,,,,,,,,0,,,41,0
16280,note_on,10,0,1,,,,,,,,,0,,,81,0
16280,note_on,0,0,1,,,,,,,,,0,,,74,0
16280,note_on,0,0,1,,,,,,,,,0,,,86,110
16290,note_on,0,0,1,,,,,,,,,0,,,74,110
16290,note_on,0,0,1,,,,,,,,,0,,,79,110
16290,note_on,0,0,1,,,,,,,,,0,,,86,0
16290,note_on,0,0,4,,,,,,,,,0,,,62,120
16290,note_on,10,0,1,,,,,,,,,0,,,86,0
16290,note_on,15,0,4,,,,,,,,,0,,,62,0
16290,note_on,0,0,4,,,,,,,,,0,,,51,110
16290,note_on,0,0,4,,,,,,,,,0,,,55,110
16300,note_on,10,0,1,,,,,,,,,0,,,74,0
16300,note_on,0,0,1,,,,,,,,,0,,,79,0
16300,note_on,0,0,1,,,,,,,,,0,,,86,120
16305,note_on,15,0,4,,,,,,,,,0,,,51,0
16305,note_on,0,0,4,,,,,,,,,0,,,55,0
16310,note_on,0,0,1,,,,,,,,,0,,,74,110
16310,note_on,10,0,1,,,,,,,,,0,,,79,110
16320,note_on,0,0,1,,,,,,,,,0,,,86,110
16320,note_on,0,0,1,,,,,,,,,0,,,79,0
16320,note_on,10,0,1,,,,,,,,,0,,,74,0
16320,note_on,15,0,4,,,,,,,,,0,,,39,110
16330,note_on,10,0,1,,,,,,,,,0,,,86,0
16330,note_on,0,0,1,,,,,,,,,0,,,79,110
16330,note_on,0,0,1,,,,,,,,,0,,,74,110
16335,note_on,15,0,4,,,,,,,,,0,,,39,0
16340,note_on,10,0,1,,,,,,,,,0,,,79,0
16340,note_on,0,0,1,,,,,,,,,0,,,86,110
16340,note_on,0,0,1,,,,,,,,,0,,,74,0
16350,note_on,0,0,1,,,,,,,,,0,,,73,110
16350,note_on,0,0,1,,,,,,,,,0,,,86,0
16350,note_on,0,0,4,,,,,,,,,0,,,55,110
16350,note_on,0,0,4,,,,,,,,,0,,,61,120
16350,note_on,10,0,1,,,,,,,,,0,,,86,0
16350,note_on,0,0,4,,,,,,,,,0,,,51,110
16350,note_on,15,0,4,,,,,,,,,0,,,62,0
16350,note_on,0,0,1,,,,,,,,,0,,,79,110
16360,note_on,10,0,1,,,,,,,,,0,,,73,0
16360,note_on,0,0,1,,,,,,,,,0,,,79,0
16360,note_on,0,0,1,,,,,,,,,0,,,85,120
16365,note_on,0,0,4,,,,,,,,,0,,,51,0
16365,note_on,15,0,4,,,,,,,,,0,,,55,0
16370,note_on,10,0,1,,,,,,,,,0,,,79,110
16370,note_on,0,0,1,,,,,,,,,0,,,73,110
16380,note_on,0,0,1,,,,,,,,,0,,,79,0
16380,note_on,10,0,1,,,,,,,,,0,,,73,0
16380,note_on,0,0,1,,,,,,,,,0,,,85,110
16390,note_on,10,0,1,,,,,,,,,0,,,85,0
16390,note_on,0,0,1,,,,,,,,,0,,,79,110
16390,note_on,0,0,1,,,,,,,,,0,,,73,110
16400,note_on,0,0,1,,,,,,,,,0,,,73,0
16400,note_on,0,0,1,,,,,,,,,0,,,85,110
16400,note_on,10,0,1,,,,,,,,,0,,,79,0
16410,note_on,45,0,4,,,,,,,,,0,,,61,0
16410,note_on,10,0,1,,,,,,,,,0,,,85,0
16410,marker,3240,1,0,,,,,,,,,,,,,
16410,note_on,0,0,1,,,,,,,,,0,,,78,127
16410,note_on,0,0,1,,,,,,,,,0,,,85,0
16410,control_change,1680,0,5,,,,,,,,,0,64,127,,
16410,note_on,0,0,1,,,,,,,,,0,,,74,127
16410,note_on,0,0,4,,,,,,,,,0,,,38,127
16410,note_on,0,0,4,,,,,,,,,0,,,45,127
16410,note_on,0,0,4,,,,,,,,,0,,,50,127
16420,note_on,0,0,1,,,,,,,,,0,,,86,110
16420,note_on,0,0,1,,,,,,,,,0,,,78,0
16420,note_on,10,0,1,,,,,,,,,0,,,74,0
16425,note_on,15,0,4,,,,,,,,,0,,,38,0
16425,note_on,0,0,4,,,,,,,,,0,,,50,0
16425,note_on,0,0,4,,,,,,,,,0,,,45,0
16430,note_on,0,0,1,,,,,,,,,0,,,74,110
16430,note_on,10,0,1,,,,,,,,,0,,,86,0
16440,note_on,0,0,1,,,,,,,,,0,,,86,109
16440,note_on,10,0,1,,,,,,,,,0,,,74,0
16450,note_on,10,0,1,,,,,,,,,0,,,86,0
16450,note_on,0,0,1,,,,,,,,,0,,,74,109
16460,note_on,10,0,1,,,,,,,,,0,,,74,0
16460,note_on,0,0,1,,,,,,,,,0,,,86,108
16465,control_change,55,0,5,,,,,,,,,0,64,0,,
16470,note_on,0,0,1,,,,,,,,,0,,,74,108
16470,note_on,0,0,4,,,,,,,,,0,,,50,118
16470,note_on,45,0,4,,,,,,,,,0,,,62,118
16470,note_on,10,0,1,,,,,,,,,0,,,86,0
16470,control_change,5,0,5,,,,,,,,,0,64,127,,
16480,note_on,0,0,1,,,,,,,,,0,,,86,107
16480,note_on,10,0,1,,,,,,,,,0,,,74,0
16490,note_on,10,0,1,,,,,,,,,0,,,86,0
16490,note_on,0,0,1,,,,,,,,,0,,,74,107
16500,note_on,0,0,1,,,,,,,,,0,,,86,106
16500,note_on,10,0,1,,,,,,,,,0,,,74,0
16510,note_on,0,0,1,,,,,,,,,0,,,74,106
16510,note_on,10,0,1,,,,,,,,,0,,,86,0
16520,note_on,0,0,1,,,,,,,,,0,,,86,105
16520,note_on,10,0,1,,,,,,,,,0,,,74,0
16525,control_change,55,0,5,,,,,,,,,0,64,0,,
16530,note_on,0,0,1,,,,,,,,,0,,,74,105
16530,note_on,0,0,4,,,,,,,,,0,,,62,0
16530,note_on,60,0,4,,,,,,,,,0,,,50,0
16530,note_on,10,0,1,,,,,,,,,0,,,86,0
16530,control_change,5,0,5,,,,,,,,,0,64,127,,
16530,note_on,1560,0,3,,,,,,,,,0,,,55,115
16532,note_on,2,0,3,,,,,,,,,0,,,62,115
16534,note_on,2,0,3,,,,,,,,,0,,,70,115
16540,note_on,0,0,1,,,,,,,,,0,,,86,104
16540,note_on,10,0,1,,,,,,,,,0,,,74,0
16550,note_on,10,0,1,,,,,,,,,0,,,86,0
16550,note_on,0,0,1,,,,,,,,,0,,,74,104
16560,note_on,0,0,1,,,,,,,,,0,,,86,103
16560,note_on,10,0,1,,,,,,,,,0,,,74,0
16570,note_on,10,0,1,,,,,,,,,0,,,86,0
16570,note_on,0,0,1,,,,,,,,,0,,,74,103
16580,note_on,10,0,1,,,,,,,,,0,,,74,0
16580,note_on,0,0,1,,,,,,,,,0,,,86,102
16585,control_change,55,0,5,,,,,,,,,0,64,0,,
16590,note_on,0,0,3,,,,,,,,,0,,,55,0
16590,control_change,5,0,5,,,,,,,,,0,64,127,,
16590,note_on,10,0,1,,,,,,,,,0,,,86,0
16590,note_on,56,0,3,,,,,,,,,0,,,70,0
16590,note_on,0,0,3,,,,,,,,,0,,,62,0
16590,note_on,0,0,3,,,,,,,,,0,,,58,112
16592,note_on,2,0,3,,,,,,,,,0,,,67,112
16594,note_on,2,0,3,,,,,,,,,0,,,74,112
16600,note_on,10,0,1,,,,,,,,,0,,,86,101
16610,note_on,0,0,1,,,,,,,,,0,,,74,101
16610,note_on,10,0,1,,,,,,,,,0,,,86,0
16620,note_on,0,0,1,,,,,,,,,0,,,86,101
16620,note_on,10,0,1,,,,,,,,,0,,,74,0
16630,note_on,10,0,1,,,,,,,,,0,,,86,0
16630,note_on,0,0,1,,,,,,,,,0,,,74,100
16640,note_on,10,0,1,,,,,,,,,0,,,74,0
16640,note_on,0,0,1,,,,,,,,,0,,,86,100
16645,control_change,55,0,5,,,,,,,,,0,64,0,,
16650,note_on,56,0,3,,,,,,,,,0,,,74,0
16650,note_on,0,0,3,,,,,,,,,0,,,57,109
16650,note_on,10,0,1,,,,,,,,,0,,,86,0
16650,note_on,0,0,3,,,,,,,,,0,,,67,0
16650,control_change,5,0,5,,,,,,,,,0,64,127,,
16650,note_on,0,0,3,,,,,,,,,0,,,58,0
16652,note_on,2,0,3,,,,,,,,,0,,,62,109
16654,note_on,2,0,3,,,,,,,,,0,,,66,109
16656,note_on,2,0,3,,,,,,,,,0,,,72,109
16660,note_on,10,0,1,,,,,,,,,0,,,84,99
16670,note_on,10,0,1,,,,,,,,,0,,,84,0
16670,note_on,0,0,1,,,,,,,,,0,,,72,98
16680,note_on,10,0,1,,,,,,,,,0,,,72,0
16680,note_on,0,0,1,,,,,,,,,0,,,84,98
16690,note_on,10,0,1,,,,,,,,,0,,,84,0
16690,note_on,0,0,1,,,,,,,,,0,,,72,97
16700,note_on,0,0,1,,,,,,,,,0,,,84,97
16700,note_on,10,0,1,,,,,,,,,0,,,72,0
16705,control_change,55,0,5,,,,,,,,,0,64,0,,
16710,note_on,0,0,3,,,,,,,,,0,,,62,0
16710,note_on,54,0,3,,,,,,,,,0,,,72,0
16710,note_on,0,0,3,,,,,,,,,0,,,66,0
16710,note_on,0,0,3,,,,,,,,,0,,,57,0
16710,note_on,0,0,3,,,,,,,,,0,,,55,106
16710,note_on,10,0,1,,,,,,,,,0,,,84,0
16710,control_change,5,0,5,,,,,,,,,0,64,127,,
16712,note_on,2,0,3,,,,,,,,,0,,,62,106
16714,note_on,2,0,3,,,,,,,,,0,,,70,106
16720,note_on,10,0,1,,,,,,,,,0,,,82,96
16730,note_on,10,0,1,,,,,,,,,0,,,82,0
16730,note_on,0,0,1,,,,,,,,,0,,,70,95
16740,note_on,10,0,1,,,,,,,,,0,,,70,0
16740,note_on,0,0,1,,,,,,,,,0,,,82,95
16750,note_on,10,0,1,,,,,,,,,0,,,82,0
16750,note_on,0,0,1,,,,,,,,,0,,,70,94
16760,note_on,10,0,1,,,,,,,,,0,,,70,0
16760,note_on,0,0,1,,,,,,,,,0,,,82,94
16765,control_change,55,0,5,,,,,,,,,0,64,0,,
16770,note_on,0,0,3,,,,,,,,,0,,,55,0
16770,note_on,0,0,3,,,,,,,,,0,,,62,0
16770,note_on,0,0,3,,,,,,,,,0,,,54,103
16770,control_change,5,0,5,,,,,,,,,0,64,0,,
16770,note_on,56,0,3,,,,,,,,,0,,,70,0
16770,note_on,10,0,1,,,,,,,,,0,,,82,0
16772,note_on,2,0,3,,,,,,,,,0,,,62,103
16774,note_on,2,0,3,,,,,,,,,0,,,69,103
16775,control_change,5,0,5,,,,,,,,,0,64,127,,
16780,note_on,10,0,1,,,,,,,,,0,,,81,93
16790,note_on,0,0,1,,,,,,,,,0,,,69,92
16790,note_on,10,0,1,,,,,,,,,0,,,81,0
16800,note_on,0,0,1,,,,,,,,,0,,,81,92
16800,note_on,10,0,1,,,,,,,,,0,,,69,0
16810,note_on,0,0,1,,,,,,,,,0,,,69,91
16810,note_on,10,0,1,,,,,,,,,0,,,81,0
16820,note_on,10,0,1,,,,,,,,,0,,,69,0
16820,note_on,0,0,1,,,,,,,,,0,,,81,91
16830,note_on,300,0,4,,,,,,,,,0,,,51,101
16830,control_change,55,0,5,,,,,,,,,0,64,0,,
16830,note_on,10,0,1,,,,,,,,,0,,,81,0
16830,note_on,56,0,3,,,,,,,,,0,,,69,0
16830,note_on,0,0,3,,,,,,,,,0,,,62,0
16830,note_on,0,0,3,,,,,,,,,0,,,54,0
16832,note_on,2,0,4,,,,,,,,,0,,,62,100
16834,note_on,2,0,4,,,,,,,,,0,,,67,100
16835,control_change,5,0,5,,,,,,,,,0,64,127,,
16840,note_on,10,0,1,,,,,,,,,0,,,79,90
16850,note_on,10,0,1,,,,,,,,,0,,,79,0
16850,note_on,0,0,1,,,,,,,,,0,,,67,90
16860,note_on,10,0,1,,,,,,,,,0,,,67,0
16860,note_on,0,0,1,,,,,,,,,0,,,79,89
16870,note_on,0,0,1,,,,,,,,,0,,,67,89
16870,note_on,10,0,1,,,,,,,,,0,,,79,0
16880,note_on,10,0,1,,,,,,,,,0,,,67,0
16880,note_on,0,0,1,,,,,,,,,0,,,79,88
16890,note_on,0,0,4,,,,,,,,,0,,,62,0
16890,note_on,10,0,1,,,,,,,,,0,,,79,0
16890,control_change,55,0,5,,,,,,,,,0,64,0,,
16890,note_on,56,0,4,,,,,,,,,0,,,67,0
16890,note_on,0,0,4,,,,,,,,,0,,,51,0
16890,note_on,0,0,4,,,,,,,,,0,,,50,98
16892,note_on,2,0,4,,,,,,,,,0,,,57,98
16894,note_on,2,0,4,,,,,,,,,0,,,66,97
16895,control_change,5,0,5,,,,,,,,,0,64,127,,
16900,note_on,10,0,1,,,,,,,,,0,,,78,87
16910,note_on,10,0,1,,,,,,,,,0,,,78,0
16910,note_on,0,0,1,,,,,,,,,0,,,66,87
16920,note_on,10,0,1,,,,,,,,,0,,,66,0
16920,note_on,0,0,1,,,,,,,,,0,,,78,86
16930,note_on,10,0,1,,,,,,,,,0,,,78,0
16930,note_on,0,0,1,,,,,,,,,0,,,66,86
16940,note_on,10,0,1,,,,,,,,,0,,,66,0
16940,note_on,0,0,1,,,,,,,,,0,,,78,85
16950,control_change,55,0,5,,,,,,,,,0,64,0,,
16950,note_on,56,0,4,,,,,,,,,0,,,66,0
16950,note_on,10,0,1,,,,,,,,,0,,,78,0
16950,note_on,0,0,4,,,,,,,,,0,,,57,0
16950,note_on,0,0,4,,,,,,,,,0,,,50,0
16950,note_on,0,0,4,,,,,,,,,0,,,48,95
16952,note_on,2,0,4,,,,,,,,,0,,,54,95
16954,note_on,2,0,4,,,,,,,,,0,,,57,95
16955,control_change,5,0,5,,,,,,,,,0,64,127,,
16956,note_on,2,0,4,,,,,,,,,0,,,63,95
16960,note_on,10,0,1,,,,,,,,,0,,,75,84
16970,note_on,10,0,1,,,,,,,,,0,,,75,0
16970,note_on,0,0,1,,,,,,,,,0,,,63,84
16980,note_on,10,0,1,,,,,,,,,0,,,63,0
16980,note_on,0,0,1,,,,,,,,,0,,,75,83
16990,note_on,10,0,1,,,,,,,,,0,,,75,0
16990,note_on,0,0,1,,,,,,,,,0,,,63,83
17000,note_on,0,0,1,,,,,,,,,0,,,75,82
17000,note_on,10,0,1,,,,,,,,,0,,,63,0
17010,note_on,0,0,4,,,,,,,,,0,,,57,0
17010,note_on,0,0,4,,,,,,,,,0,,,46,92
17010,note_on,10,0,1,,,,,,,,,0,,,75,0
17010,note_on,0,0,4,,,,,,,,,0,,,54,0
17010,control_change,55,0,5,,,,,,,,,0,64,0,,
17010,note_on,0,0,4,,,,,,,,,0,,,48,0
17010,note_on,54,0,4,,,,,,,,,0,,,63,0
17012,note_on,2,0,4,,,,,,,,,0,,,55,92
17014,note_on,2,0,4,,,,,,,,,0,,,62,92
17015,control_change,5,0,5,,,,,,,,,0,64,127,,
17020,note_on,10,0,1,,,,,,,,,0,,,74,81
17030,note_on,0,0,1,,,,,,,,,0,,,62,81
17030,note_on,10,0,1,,,,,,,,,0,,,74,0
17040,note_on,0,0,1,,,,,,,,,0,,,74,81
17040,note_on,10,0,1,,,,,,,,,0,,,62,0
17050,note_on,10,0,1,,,,,,,,,0,,,74,0
17050,note_on,0,0,1,,,,,,,,,0,,,62,80
17060,note_on,10,0,1,,,,,,,,,0,,,62,0
17060,note_on,0,0,1,,,,,,,,,0,,,74,80
17070,control_change,55,0,5,,,,,,,,,0,64,0,,
17070,note_on,56,0,4,,,,,,,,,0,,,62,0
17070,note_on,0,0,4,,,,,,,,,0,,,46,0
17070,note_on,10,0,1,,,,,,,,,0,,,74,0
17070,note_on,0,0,4,,,,,,,,,0,,,55,0
17070,note_on,0,0,4,,,,,,,,,0,,,43,89
17072,note_on,2,0,4,,,,,,,,,0,,,50,89
17074,note_on,2,0,4,,,,,,,,,0,,,58,89
17075,control_change,5,0,5,,,,,,,,,0,64,127,,
17080,note_on,0,0,1,,,,,,,,,0,,,70,79
17080,note_on,10,0,1,,,,,,,,,0,,,62,79
17090,note_on,0,0,1,,,,,,,,,0,,,62,0
17090,note_on,0,0,1,,,,,,,,,0,,,58,78
17090,note_on,10,0,1,,,,,,,,,0,,,70,0
17100,note_on,10,0,1,,,,,,,,,0,,,58,0
17100,note_on,0,0,1,,,,,,,,,0,,,62,78
17100,note_on,0,0,1,,,,,,,,,0,,,70,78
17110,note_on,0,0,1,,,,,,,,,0,,,58,77
17110,note_on,10,0,1,,,,,,,,,0,,,70,0
17110,note_on,0,0,1,,,,,,,,,0,,,62,0
17120,note_on,0,0,1,,,,,,,,,0,,,70,77
17120,note_on,10,0,1,,,,,,,,,0,,,58,0
17120,note_on,0,0,1,,,,,,,,,0,,,62,77
17130,note_on,0,0,4,,,,,,,,,0,,,43,0
17130,note_on,56,0,4,,,,,,,,,0,,,58,0
17130,note_on,0,0,4,,,,,,,,,0,,,42,86
17130,note_on,0,0,4,,,,,,,,,0,,,50,0
17130,note_on,0,0,1,,,,,,,,,0,,,62,0
17130,note_on,10,0,1,,,,,,,,,0,,,70,0
17130,control_change,0,0,5,,,,,,,,,0,64,127,,
17130,control_change,55,0,5,,,,,,,,,0,64,0,,
17132,note_on,2,0,4,,,,,,,,,0,,,50,86
17134,note_on,2,0,4,,,,,,,,,0,,,57,86
17140,note_on,0,0,1,,,,,,,,,0,,,69,76
17140,note_on,10,0,1,,,,,,,,,0,,,62,76
17150,note_on,10,0,1,,,,,,,,,0,,,69,0
17150,note_on,0,0,1,,,,,,,,,0,,,57,75
17150,note_on,0,0,1,,,,,,,,,0,,,62,0
17160,note_on,0,0,1,,,,,,,,,0,,,62,75
17160,note_on,0,0,1,,,,,,,,,0,,,69,75
17160,note_on,10,0,1,,,,,,,,,0,,,57,0
17170,note_on,0,0,1,,,,,,,,,0,,,57,74
17170,note_on,0,0,1,,,,,,,,,0,,,62,0
17170,note_on,10,0,1,,,,,,,,,0,,,69,0
17180,note_on,10,0,1,,,,,,,,,0,,,57,0
17180,note_on,0,0,1,,,,,,,,,0,,,62,74
17180,note_on,0,0,1,,,,,,,,,0,,,69,74
17185,control_change,55,0,5,,,,,,,,,0,64,0,,
17190,note_on,0,0,4,,,,,,,,,0,,,42,0
17190,note_on,0,0,4,,,,,,,,,0,,,50,0
17190,note_on,0,0,1,,,,,,,,,0,,,62,0
17190,note_on,56,0,4,,,,,,,,,0,,,57,0
17190,note_on,10,0,1,,,,,,,,,0,,,69,0
17190,note_on,0,0,4,,,,,,,,,0,,,39,83
17190,control_change,5,0,5,,,,,,,,,0,64,127,,
17192,note_on,2,0,4,,,,,,,,,0,,,50,83
17194,note_on,2,0,4,,,,,,,,,0,,,55,83
17200,note_on,0,0,1,,,,,,,,,0,,,67,73
17200,note_on,10,0,1,,,,,,,,,0,,,62,73
17210,note_on,10,0,1,,,,,,,,,0,,,67,0
17210,note_on,0,0,1,,,,,,,,,0,,,62,0
17210,note_on,0,0,1,,,,,,,,,0,,,55,72
17220,note_on,10,0,1,,,,,,,,,0,,,55,0
17220,note_on,0,0,1,,,,,,,,,0,,,67,72
17220,note_on,0,0,1,,,,,,,,,0,,,62,72
17230,note_on,10,0,1,,,,,,,,,0,,,67,0
17230,note_on,0,0,1,,,,,,,,,0,,,55,71
17230,note_on,0,0,1,,,,,,,,,0,,,62,0
17240,note_on,0,0,1,,,,,,,,,0,,,67,71
17240,note_on,10,0,1,,,,,,,,,0,,,55,0
17240,note_on,0,0,1,,,,,,,,,0,,,62,71
17245,control_change,55,0,5,,,,,,,,,0,64,0,,
17250,note_on,0,0,4,,,,,,,,,0,,,38,81
17250,note_on,0,0,4,,,,,,,,,0,,,39,0
17250,note_on,0,0,4,,,,,,,,,0,,,50,0
17250,control_change,5,0,5,,,,,,,,,0,64,127,,
17250,note_on,0,0,1,,,,,,,,,0,,,62,0
17250,note_on,10,0,1,,,,,,,,,0,,,67,0
17250,note_on,56,0,4,,,,,,,,,0,,,55,0
17252,note_on,2,0,4,,,,,,,,,0,,,45,80
17254,note_on,2,0,4,,,,,,,,,0,,,54,80
17260,note_on,0,0,2,,,,,,,,,0,,,66,70
17260,note_on,4630,0,2,,,,,,,,,0,,,62,70
17270,note_on,10,0,2,,,,,,,,,0,,,66,0
17270,note_on,0,0,2,,,,,,,,,0,,,62,0
17270,note_on,0,0,2,,,,,,,,,0,,,54,70
17280,note_on,0,0,2,,,,,,,,,0,,,66,69
17280,note_on,10,0,2,,,,,,,,,0,,,54,0
17280,note_on,0,0,2,,,,,,,,,0,,,62,69
17290,note_on,0,0,2,,,,,,,,,0,,,54,69
17290,note_on,10,0,2,,,,,,,,,0,,,66,0
17290,note_on,0,0,2,,,,,,,,,0,,,62,0
17300,note_on,10,0,2,,,,,,,,,0,,,54,0
17300,note_on,0,0,2,,,,,,,,,0,,,62,68
17300,note_on,0,0,2,,,,,,,,,0,,,66,68
17305,control_change,55,0,5,,,,,,,,,0,64,0,,
17310,note_on,10,0,2,,,,,,,,,0,,,66,0
17310,note_on,0,0,4,,,,,,,,,0,,,45,0
17310,note_on,0,0,4,,,,,,,,,0,,,38,0
17310,note_on,0,0,4,,,,,,,,,0,,,36,78
17310,control_change,5,0,5,,,,,,,,,0,64,127,,
17310,note_on,56,0,4,,,,,,,,,0,,,54,0
17310,note_on,0,0,2,,,,,,,,,0,,,62,0
17312,note_on,2,0,4,,,,,,,,,0,,,42,78
17314,note_on,2,0,4,,,,,,,,,0,,,45,77
17316,note_on,2,0,4,,,,,,,,,0,,,51,77
17320,note_on,0,0,2,,,,,,,,,0,,,57,67
17320,note_on,10,0,2,,,,,,,,,0,,,54,67
17320,note_on,0,0,2,,,,,,,,,0,,,63,67
17330,note_on,0,0,2,,,,,,,,,0,,,54,0
17330,note_on,0,0,2,,,,,,,,,0,,,63,0
17330,note_on,10,0,2,,,,,,,,,0,,,57,0
17330,note_on,0,0,2,,,,,,,,,0,,,51,67
17340,note_on,0,0,2,,,,,,,,,0,,,54,66
17340,note_on,0,0,2,,,,,,,,,0,,,57,66
17340,note_on,0,0,2,,,,,,,,,0,,,63,66
17340,note_on,10,0,2,,,,,,,,,0,,,51,0
17350,note_on,10,0,2,,,,,,,,,0,,,57,0
17350,note_on,0,0,2,,,,,,,,,0,,,51,66
17350,note_on,0,0,2,,,,,,,,,0,,,54,0
17350,note_on,0,0,2,,,,,,,,,0,,,63,0
17360,note_on,10,0,2,,,,,,,,,0,,,51,0
17360,note_on,0,0,2,,,,,,,,,0,,,57,65
17360,note_on,0,0,2,,,,,,,,,0,,,54,65
17360,note_on,0,0,2,,,,,,,,,0,,,63,65
17365,control_change,55,0,5,,,,,,,,,0,64,0,,
17370,note_on,0,0,4,,,,,,,,,0,,,42,0
17370,note_on,0,0,4,,,,,,,,,0,,,36,0
17370,note_on,0,0,4,,,,,,,,,0,,,34,75
17370,note_on,0,0,2,,,,,,,,,0,,,63,0
17370,note_on,0,0,2,,,,,,,,,0,,,54,0
17370,note_on,54,0,4,,,,,,,,,0,,,51,0
17370,note_on,10,0,2,,,,,,,,,0,,,57,0
17370,note_on,0,0,4,,,,,,,,,0,,,45,0
17370,control_change,5,0,5,,,,,,,,,0,64,127,,
17372,note_on,2,0,4,,,,,,,,,0,,,43,75
17374,note_on,2,0,4,,,,,,,,,0,,,50,75
17380,note_on,10,0,2,,,,,,,,,0,,,55,64
17380,note_on,0,0,2,,,,,,,,,0,,,62,64
17380,note_on,0,0,2,,,,,,,,,0,,,58,64
17390,note_on,0,0,2,,,,,,,,,0,,,62,0
17390,note_on,10,0,2,,,,,,,,,0,,,58,0
17390,note_on,0,0,2,,,,,,,,,0,,,55,0
17390,note_on,0,0,2,,,,,,,,,0,,,50,64
17400,note_on,0,0,2,,,,,,,,,0,,,62,63
17400,note_on,10,0,2,,,,,,,,,0,,,50,0
17400,note_on,0,0,2,,,,,,,,,0,,,58,63
17400,note_on,0,0,2,,,,,,,,,0,,,55,63
17410,note_on,0,0,2,,,,,,,,,0,,,50,63
17410,note_on,0,0,2,,,,,,,,,0,,,62,0
17410,note_on,0,0,2,,,,,,,,,0,,,55,0
17410,note_on,10,0,2,,,,,,,,,0,,,58,0
17420,note_on,0,0,2,,,,,,,,,0,,,62,62
17420,note_on,0,0,2,,,,,,,,,0,,,55,62
17420,note_on,10,0,2,,,,,,,,,0,,,50,0
17420,note_on,0,0,2,,,,,,,,,0,,,58,62
17425,control_change,55,0,5,,,,,,,,,0,64,0,,
17430,note_on,0,0,2,,,,,,,,,0,,,62,0
17430,note_on,0,0,4,,,,,,,,,0,,,43,0
17430,note_on,0,0,4,,,,,,,,,0,,,34,0
17430,note_on,0,0,4,,,,,,,,,0,,,33,72
17430,note_on,0,0,2,,,,,,,,,0,,,55,0
17430,control_change,5,0,5,,,,,,,,,0,64,127,,
17430,note_on,56,0,4,,,,,,,,,0,,,50,0
17430,note_on,10,0,2,,,,,,,,,0,,,58,0
17432,note_on,2,0,4,,,,,,,,,0,,,38,72
17434,note_on,2,0,4,,,,,,,,,0,,,42,72
17436,note_on,2,0,4,,,,,,,,,0,,,48,72
17440,note_on,10,0,2,,,,,,,,,0,,,54,61
17440,note_on,0,0,2,,,,,,,,,0,,,60,61
17440,note_on,0,0,2,,,,,,,,,0,,,62,61
17450,note_on,10,0,2,,,,,,,,,0,,,60,0
17450,note_on,0,0,2,,,,,,,,,0,,,54,0
17450,note_on,0,0,2,,,,,,,,,0,,,62,0
17450,note_on,0,0,2,,,,,,,,,0,,,50,61
17460,note_on,0,0,2,,,,,,,,,0,,,54,61
17460,note_on,0,0,2,,,,,,,,,0,,,62,61
17460,note_on,0,0,2,,,,,,,,,0,,,60,61
17460,note_on,10,0,2,,,,,,,,,0,,,50,0
17470,note_on,10,0,2,,,,,,,,,0,,,60,0
17470,note_on,0,0,2,,,,,,,,,0,,,62,0
17470,note_on,0,0,2,,,,,,,,,0,,,54,0
17470,note_on,0,0,2,,,,,,,,,0,,,50,60
17480,note_on,0,0,2,,,,,,,,,0,,,62,60
17480,note_on,0,0,2,,,,,,,,,0,,,60,60
17480,note_on,0,0,2,,,,,,,,,0,,,54,60
17480,note_on,10,0,2,,,,,,,,,0,,,50,0
17485,control_change,55,0,5,,,,,,,,,0,64,0,,
17490,note_on,10,0,2,,,,,,,,,0,,,60,0
17490,note_on,0,0,4,,,,,,,,,0,,,38,0
17490,note_on,0,0,4,,,,,,,,,0,,,33,0
17490,note_on,0,0,4,,,,,,,,,0,,,31,70
17490,note_on,0,0,4,,,,,,,,,0,,,42,0
17490,note_on,54,0,4,,,,,,,,,0,,,48,0
17490,control_change,5,0,5,,,,,,,,,0,64,0,,
17490,note_on,0,0,2,,,,,,,,,0,,,62,0
17490,note_on,0,0,2,,,,,,,,,0,,,54,0
17492,note_on,2,0,4,,,,,,,,,0,,,38,70
17494,note_on,2,0,4,,,,,,,,,0,,,46,70
17495,control_change,5,0,5,,,,,,,,,0,64,127,,
17496,note_on,6,0,2,,,,,,,,,0,,,50,80
17498,note_on,2,0,2,,,,,,,,,0,,,55,80
17500,note_on,2,0,2,,,,,,,,,0,,,58,80
17502,note_on,2,0,2,,,,,,,,,0,,,62,80
17550,note_on,56,0,4,,,,,,,,,0,,,46,0
17550,note_on,300,0,1,,,,,,,,,0,,,70,60
17550,note_on,0,0,4,,,,,,,,,0,,,38,0
17550,note_on,0,0,4,,,,,,,,,0,,,31,0
17550,control_change,55,0,5,,,,,,,,,0,64,0,,
17555,control_change,5,0,5,,,,,,,,,0,64,127,,
17560,note_on,10,0,1,,,,,,,,,0,,,70,0
17560,note_on,0,0,1,,,,,,,,,0,,,86,60
17570,note_on,10,0,1,,,,,,,,,0,,,86,0
17570,note_on,0,0,1,,,,,,,,,0,,,74,60
17580,note_on,0,0,1,,,,,,,,,0,,,86,60
17580,note_on,10,0,1,,,,,,,,,0,,,74,0
17590,note_on,10,0,1,,,,,,,,,0,,,86,0
17590,note_on,0,0,1,,,,,,,,,0,,,79,60
17600,note_on,0,0,1,,,,,,,,,0,,,86,60
17600,note_on,10,0,1,,,,,,,,,0,,,79,0
17610,note_on,0,0,1,,,,,,,,,0,,,82,60
17610,control_change,55,0,5,,,,,,,,,0,64,0,,
17610,note_on,108,0,2,,,,,,,,,0,,,62,0
17610,note_on,0,0,2,,,,,,,,,0,,,58,0
17610,note_on,10,0,1,,,,,,,,,0,,,86,0
17610,note_on,0,0,2,,,,,,,,,0,,,50,0
17610,note_on,0,0,2,,,,,,,,,0,,,55,0
17615,control_change,5,0,5,,,,,,,,,0,64,127,,
17620,note_on,0,0,1,,,,,,,,,0,,,86,60
17620,note_on,10,0,1,,,,,,,,,0,,,82,0
17630,note_on,0,0,1,,,,,,,,,0,,,79,60
17630,note_on,10,0,1,,,,,,,,,0,,,86,0
17640,note_on,0,0,1,,,,,,,,,0,,,86,60
17640,note_on,10,0,1,,,,,,,,,0,,,79,0
17650,note_on,10,0,1,,,,,,,,,0,,,86,0
17650,note_on,0,0,1,,,,,,,,,0,,,74,60
17660,note_on,10,0,1,,,,,,,,,0,,,74,0
17660,note_on,0,0,1,,,,,,,,,0,,,86,60
17670,note_on,0,0,1,,,,,,,,,0,,,75,60
17670,note_on,10,0,1,,,,,,,,,0,,,86,0
17670,note_on,120,0,4,,,,,,,,,0,,,55,70
17670,control_change,55,0,5,,,,,,,,,0,64,0,,
17672,note_on,2,0,4,,,,,,,,,0,,,67,70
17675,control_change,5,0,5,,,,,,,,,0,64,127,,
17680,note_on,0,0,1,,,,,,,,,0,,,91,60
17680,note_on,10,0,1,,,,,,,,,0,,,75,0
17690,note_on,0,0,1,,,,,,,,,0,,,79,60
17690,note_on,10,0,1,,,,,,,,,0,,,91,0
17700,note_on,10,0,1,,,,,,,,,0,,,79,0
17700,note_on,0,0,1,,,,,,,,,0,,,91,60
17710,note_on,0,0,1,,,,,,,,,0,,,87,60
17710,note_on,10,0,1,,,,,,,,,0,,,91,0
17720,note_on,10,0,1,,,,,,,,,0,,,87,0
17720,note_on,0,0,1,,,,,,,,,0,,,91,60
17730,note_on,0,0,4,,,,,,,,,0,,,55,70
17730,note_on,58,0,4,,,,,,,,,0,,,67,0
17730,control_change,55,0,5,,,,,,,,,0,64,0,,
17730,note_on,0,0,4,,,,,,,,,0,,,55,0
17730,note_on,10,0,1,,,,,,,,,0,,,91,0
17730,note_on,0,0,1,,,,,,,,,0,,,74,60
17732,note_on,2,0,4,,,,,,,,,0,,,66,70
17735,control_change,5,0,5,,,,,,,,,0,64,127,,
17740,note_on,10,0,1,,,,,,,,,0,,,74,0
17740,note_on,0,0,1,,,,,,,,,0,,,90,60
17750,note_on,0,0,1,,,,,,,,,0,,,78,60
17750,note_on,10,0,1,,,,,,,,,0,,,90,0
17760,note_on,10,0,1,,,,,,,,,0,,,78,0
17760,note_on,0,0,1,,,,,,,,,0,,,90,60
17770,note_on,10,0,1,,,,,,,,,0,,,90,0
17770,note_on,0,0,1,,,,,,,,,0,,,86,60
17780,note_on,0,0,1,,,,,,,,,0,,,90,60
17780,note_on,10,0,1,,,,,,,,,0,,,86,0
17790,note_on,0,0,4,,,,,,,,,0,,,55,70
17790,note_on,0,0,4,,,,,,,,,0,,,55,0
17790,note_on,10,0,1,,,,,,,,,0,,,90,0
17790,control_change,55,0,5,,,,,,,,,0,64,0,,
17790,note_on,58,0,4,,,,,,,,,0,,,66,0
17790,note_on,0,0,1,,,,,,,,,0,,,72,60
17792,note_on,2,0,4,,,,,,,,,0,,,63,70
17795,control_change,5,0,5,,,,,,,,,0,64,127,,
17800,note_on,10,0,1,,,,,,,,,0,,,72,0
17800,note_on,0,0,1,,,,,,,,,0,,,87,60
17810,note_on,10,0,1,,,,,,,,,0,,,87,0
17810,note_on,0,0,1,,,,,,,,,0,,,75,60
17820,note_on,10,0,1,,,,,,,,,0,,,75,0
17820,note_on,0,0,1,,,,,,,,,0,,,87,60
17830,note_on,0,0,1,,,,,,,,,0,,,79,60
17830,note_on,10,0,1,,,,,,,,,0,,,87,0
17840,note_on,10,0,1,,,,,,,,,0,,,79,0
17840,note_on,0,0,1,,,,,,,,,0,,,87,60
17850,note_on,0,0,4,,,,,,,,,0,,,55,0
17850,note_on,0,0,4,,,,,,,,,0,,,55,70
17850,note_on,0,0,4,,,,,,,,,0,,,62,70
17850,note_on,58,0,4,,,,,,,,,0,,,63,0
17850,note_on,10,0,1,,,,,,,,,0,,,87,0
17850,control_change,0,0,5,,,,,,,,,0,64,127,,
17850,control_change,55,0,5,,,,,,,,,0,64,0,,
17850,note_on,0,0,1,,,,,,,,,0,,,70,60
17860,note_on,0,0,1,,,,,,,,,0,,,86,60
17860,note_on,10,0,1,,,,,,,,,0,,,70,0
17870,note_on,0,0,1,,,,,,,,,0,,,74,60
17870,note_on,10,0,1,,,,,,,,,0,,,86,0
17880,note_on,0,0,1,,,,,,,,,0,,,86,60
17880,note_on,10,0,1,,,,,,,,,0,,,74,0
17890,note_on,0,0,1,,,,,,,,,0,,,79,60
17890,note_on,10,0,1,,,,,,,,,0,,,86,0
17900,note_on,0,0,1,,,,,,,,,0,,,86,60
17900,note_on,10,0,1,,,,,,,,,0,,,79,0
17905,control_change,55,0,5,,,,,,,,,0,64,0,,
17910,note_on,0,0,1,,,,,,,,,0,,,82,60
17910,control_change,5,0,5,,,,,,,,,0,64,127,,
17910,note_on,60,0,4,,,,,,,,,0,,,55,0
17910,note_on,10,0,1,,,,,,,,,0,,,86,0
17920,note_on,0,0,1,,,,,,,,,0,,,86,60
17920,note_on,10,0,1,,,,,,,,,0,,,82,0
17930,note_on,0,0,1,,,,,,,,,0,,,79,60
17930,note_on,10,0,1,,,,,,,,,0,,,86,0
17940,note_on,10,0,1,,,,,,,,,0,,,79,0
17940,note_on,0,0,1,,,,,,,,,0,,,86,60
17950,note_on,10,0,1,,,,,,,,,0,,,86,0
17950,note_on,0,0,1,,,,,,,,,0,,,74,60
17960,note_on,10,0,1,,,,,,,,,0,,,74,0
17960,note_on,0,0,1,,,,,,,,,0,,,86,60
17965,control_change,55,0,5,,,,,,,,,0,64,0,,
17970,control_change,5,0,5,,,,,,,,,0,64,127,,
17970,note_on,10,0,1,,,,,,,,,0,,,86,0
17970,note_on,0,0,1,,,,,,,,,0,,,70,60
17980,note_on,10,0,1,,,,,,,,,0,,,70,0
17980,note_on,0,0,1,,,,,,,,,0,,,86,60
17990,note_on,10,0,1,,,,,,,,,0,,,86,0
17990,note_on,0,0,1,,,,,,,,,0,,,74,60
18000,note_on,10,0,1,,,,,,,,,0,,,74,0
18000,note_on,0,0,1,,,,,,,,,0,,,86,60
18010,note_on,10,0,1,,,,,,,,,0,,,86,0
18010,note_on,0,0,1,,,,,,,,,0,,,79,60
18020,note_on,0,0,1,,,,,,,,,0,,,86,60
18020,note_on,10,0,1,,,,,,,,,0,,,79,0
18025,control_change,55,0,5,,,,,,,,,0,64,0,,
18030,note_on,120,0,4,,,,,,,,,0,,,62,0
18030,note_on,0,0,4,,,,,,,,,0,,,65,70
18030,control_change,5,0,5,,,,,,,,,0,64,127,,
18030,note_on,10,0,1,,,,,,,,,0,,,86,0
18030,note_on,0,0,1,,,,,,,,,0,,,69,60
18040,note_on,10,0,1,,,,,,,,,0,,,69,0
18040,note_on,0,0,1,,,,,,,,,0,,,86,60
18050,note_on,10,0,1,,,,,,,,,0,,,86,0
18050,note_on,0,0,1,,,,,,,,,0,,,74,60
18060,note_on,10,0,1,,,,,,,,,0,,,74,0
18060,note_on,0,0,1,,,,,,,,,0,,,86,60
18070,note_on,0,0,1,,,,,,,,,0,,,77,60
18070,note_on,10,0,1,,,,,,,,,0,,,86,0
18080,note_on,10,0,1,,,,,,,,,0,,,77,0
18080,note_on,0,0,1,,,,,,,,,0,,,86,60
18085,control_change,55,0,5,,,,,,,,,0,64,0,,
18090,control_change,5,0,5,,,,,,,,,0,64,127,,
18090,note_on,60,0,4,,,,,,,,,0,,,65,0
18090,note_on,10,0,1,,,,,,,,,0,,,86,0
18090,note_on,0,0,4,,,,,,,,,0,,,63,70
18090,note_on,0,0,1,,,,,,,,,0,,,67,60
18100,note_on,0,0,1,,,,,,,,,0,,,84,60
18100,note_on,10,0,1,,,,,,,,,0,,,67,0
18110,note_on,0,0,1,,,,,,,,,0,,,72,60
18110,note_on,10,0,1,,,,,,,,,0,,,84,0
18120,note_on,10,0,1,,,,,,,,,0,,,72,0
18120,note_on,0,0,1,,,,,,,,,0,,,84,60
18130,note_on,0,0,1,,,,,,,,,0,,,75,60
18130,note_on,10,0,1,,,,,,,,,0,,,84,0
18140,note_on,0,0,1,,,,,,,,,0,,,84,60
18140,note_on,10,0,1,,,,,,,,,0,,,75,0
18145,control_change,55,0,5,,,,,,,,,0,64,0,,
18150,note_on,60,0,4,,,,,,,,,0,,,63,0
18150,control_change,5,0,5,,,,,,,,,0,64,127,,
18150,note_on,0,0,4,,,,,,,,,0,,,62,70
18150,note_on,0,0,1,,,,,,,,,0,,,65,60
18150,note_on,10,0,1,,,,,,,,,0,,,84,0
18160,note_on,10,0,1,,,,,,,,,0,,,65,0
18160,note_on,0,0,1,,,,,,,,,0,,,82,60
18170,note_on,10,0,1,,,,,,,,,0,,,82,0
18170,note_on,0,0,1,,,,,,,,,0,,,70,60
18180,note_on,10,0,1,,,,,,,,,0,,,70,0
18180,note_on,0,0,1,,,,,,,,,0,,,82,60
18190,note_on,0,0,1,,,,,,,,,0,,,74,60
18190,note_on,10,0,1,,,,,,,,,0,,,82,0
18200,note_on,10,0,1,,,,,,,,,0,,,74,0
18200,note_on,0,0,1,,,,,,,,,0,,,82,60
18205,control_change,55,0,5,,,,,,,,,0,64,0,,
18210,control_change,5,0,5,,,,,,,,,0,64,127,,
18210,note_on,0,0,4,,,,,,,,,0,,,60,70
18210,note_on,60,0,4,,,,,,,,,0,,,62,0
18210,note_on,10,0,1,,,,,,,,,0,,,82,0
18210,note_on,0,0,1,,,,,,,,,0,,,63,60
18220,note_on,0,0,1,,,,,,,,,0,,,81,60
18220,note_on,10,0,1,,,,,,,,,0,,,63,0
18230,note_on,0,0,1,,,,,,,,,0,,,69,60
18230,note_on,10,0,1,,,,,,,,,0,,,81,0
18240,note_on,10,0,1,,,,,,,,,0,,,69,0
18240,note_on,0,0,1,,,,,,,,,0,,,81,60
18250,note_on,0,0,1,,,,,,,,,0,,,72,60
18250,note_on,10,0,1,,,,,,,,,0,,,81,0
18260,note_on,0,0,1,,,,,,,,,0,,,81,60
18260,note_on,10,0,1,,,,,,,,,0,,,72,0
18265,control_change,55,0,5,,,,,,,,,0,64,0,,
18270,note_on,0,0,1,,,,,,,,,0,,,75,60
18270,control_change,5,0,5,,,,,,,,,0,64,127,,
18270,note_on,10,0,1,,,,,,,,,0,,,81,0
18280,note_on,0,0,1,,,,,,,,,0,,,81,60
18280,note_on,10,0,1,,,,,,,,,0,,,75,0
18290,note_on,10,0,1,,,,,,,,,0,,,81,0
18290,note_on,0,0,1,,,,,,,,,0,,,72,60
18300,note_on,10,0,1,,,,,,,,,0,,,72,0
18300,note_on,0,0,1,,,,,,,,,0,,,81,60
18310,note_on,10,0,1,,,,,,,,,0,,,81,0
18310,note_on,0,0,1,,,,,,,,,0,,,69,60
18320,note_on,10,0,1,,,,,,,,,0,,,69,0
18320,note_on,0,0,1,,,,,,,,,0,,,81,60
18325,control_change,55,0,5,,,,,,,,,0,64,0,,
18330,control_change,5,0,5,,,,,,,,,0,64,127,,
18330,note_on,10,0,1,,,,,,,,,0,,,81,0
18330,note_on,0,0,1,,,,,,,,,0,,,63,60
18340,note_on,10,0,1,,,,,,,,,0,,,63,0
18340,note_on,0,0,1,,,,,,,,,0,,,81,60
18350,note_on,10,0,1,,,,,,,,,0,,,81,0
18350,note_on,0,0,1,,,,,,,,,0,,,69,60
18360,note_on,0,0,1,,,,,,,,,0,,,81,60
18360,note_on,10,0,1,,,,,,,,,0,,,69,0
18370,note_on,0,0,1,,,,,,,,,0,,,72,60
18370,note_on,10,0,1,,,,,,,,,0,,,81,0
18380,note_on,0,0,1,,,,,,,,,0,,,81,60
18380,note_on,10,0,1,,,,,,,,,0,,,72,0
18385,control_change,55,0,5,,,,,,,,,0,64,0,,
18390,note_on,0,0,4,,,,,,,,,0,,,63,70
18390,note_on,0,0,1,,,,,,,,,0,,,69,60
18390,note_on,0,0,4,,,,,,,,,0,,,48,70
18390,note_on,180,0,4,,,,,,,,,0,,,60,0
18390,control_change,5,0,5,,,,,,,,,0,64,127,,
18390,note_on,10,0,1,,,,,,,,,0,,,81,0
18400,note_on,10,0,1,,,,,,,,,0,,,69,0
18400,note_on,0,0,1,,,,,,,,,0,,,84,60
18410,note_on,10,0,1,,,,,,,,,0,,,84,0
18410,note_on,0,0,1,,,,,,,,,0,,,72,60
18420,note_on,10,0,1,,,,,,,,,0,,,72,0
18420,note_on,0,0,1,,,,,,,,,0,,,84,60
18430,note_on,0,0,1,,,,,,,,,0,,,75,60
18430,note_on,10,0,1,,,,,,,,,0,,,84,0
18440,note_on,0,0,1,,,,,,,,,0,,,84,60
18440,note_on,10,0,1,,,,,,,,,0,,,75,0
18445,control_change,55,0,5,,,,,,,,,0,64,0,,
18450,note_on,0,0,4,,,,,,,,,0,,,48,0
18450,note_on,0,0,4,,,,,,,,,0,,,60,70
18450,control_change,5,0,5,,,,,,,,,0,64,127,,
18450,note_on,0,0,1,,,,,,,,,0,,,63,60
18450,note_on,60,0,4,,,,,,,,,0,,,63,0
18450,note_on,0,0,4,,,,,,,,,0,,,48,70
18450,note_on,10,0,1,,,,,,,,,0,,,84,0
18460,note_on,0,0,1,,,,,,,,,0,,,81,60
18460,note_on,10,0,1,,,,,,,,,0,,,63,0
18470,note_on,0,0,1,,,,,,,,,0,,,69,60
18470,note_on,10,0,1,,,,,,,,,0,,,81,0
18480,note_on,0,0,1,,,,,,,,,0,,,81,60
18480,note_on,10,0,1,,,,,,,,,0,,,69,0
18490,note_on,10,0,1,,,,,,,,,0,,,81,0
18490,note_on,0,0,1,,,,,,,,,0,,,72,60
18500,note_on,0,0,1,,,,,,,,,0,,,81,60
18500,note_on,10,0,1,,,,,,,,,0,,,72,0
18505,control_change,55,0,5,,,,,,,,,0,64,0,,
18510,control_change,5,0,5,,,,,,,,,0,64,127,,
18510,note_on,0,0,4,,,,,,,,,0,,,49,70
18510,note_on,0,0,4,,,,,,,,,0,,,48,0
18510,note_on,60,0,4,,,,,,,,,0,,,60,0
18510,note_on,0,0,1,,,,,,,,,0,,,64,60
18510,note_on,0,0,4,,,,,,,,,0,,,58,70
18510,note_on,10,0,1,,,,,,,,,0,,,81,0
18520,note_on,0,0,1,,,,,,,,,0,,,79,60
18520,note_on,10,0,1,,,,,,,,,0,,,64,0
18530,note_on,0,0,1,,,,,,,,,0,,,70,60
18530,note_on,10,0,1,,,,,,,,,0,,,79,0
18540,note_on,10,0,1,,,,,,,,,0,,,70,0
18540,note_on,0,0,1,,,,,,,,,0,,,79,60
18550,note_on,0,0,1,,,,,,,,,0,,,76,60
18550,note_on,10,0,1,,,,,,,,,0,,,79,0
18560,note_on,0,0,1,,,,,,,,,0,,,79,60
18560,note_on,10,0,1,,,,,,,,,0,,,76,0
18565,control_change,55,0,5,,,,,,,,,0,64,0,,
18570,control_change,5,0,5,,,,,,,,,0,64,0,,
18570,note_on,0,0,4,,,,,,,,,0,,,49,0
18570,note_on,10,0,1,,,,,,,,,0,,,79,0
18570,note_on,0,0,4,,,,,,,,,0,,,58,70
18570,note_on,0,0,4,,,,,,,,,0,,,62,70
18570,note_on,0,0,1,,,,,,,,,0,,,67,60
18570,note_on,60,0,4,,,,,,,,,0,,,58,0
18570,note_on,0,0,4,,,,,,,,,0,,,50,70
18575,control_change,5,0,5,,,,,,,,,0,64,127,,
18580,note_on,10,0,1,,,,,,,,,0,,,67,0
18580,note_on,0,0,1,,,,,,,,,0,,,82,60
18590,note_on,0,0,1,,,,,,,,,0,,,70,60
18590,note_on,10,0,1,,,,,,,,,0,,,82,0
18600,note_on,10,0,1,,,,,,,,,0,,,70,0
18600,note_on,0,0,1,,,,,,,,,0,,,82,60
18610,note_on,10,0,1,,,,,,,,,0,,,82,0
18610,note_on,0,0,1,,,,,,,,,0,,,74,60
18620,note_on,10,0,1,,,,,,,,,0,,,74,0
18620,note_on,0,0,1,,,,,,,,,0,,,82,60
18630,control_change,55,0,5,,,,,,,,,0,64,0,,
18630,note_on,10,0,1,,,,,,,,,0,,,82,0
18630,note_on,0,0,1,,,,,,,,,0,,,79,60
18635,control_change,5,0,5,,,,,,,,,0,64,127,,
18640,note_on,10,0,1,,,,,,,,,0,,,79,0
18640,note_on,0,0,1,,,,,,,,,0,,,82,60
18650,note_on,10,0,1,,,,,,,,,0,,,82,0
18650,note_on,0,0,1,,,,,,,,,0,,,74,60
18660,note_on,10,0,1,,,,,,,,,0,,,74,0
18660,note_on,0,0,1,,,,,,,,,0,,,82,60
18670,note_on,10,0,1,,,,,,,,,0,,,82,0
18670,note_on,0,0,1,,,,,,,,,0,,,70,60
18680,note_on,0,0,1,,,,,,,,,0,,,82,60
18680,note_on,10,0,1,,,,,,,,,0,,,70,0
18690,control_change,55,0,5,,,,,,,,,0,64,0,,
18690,note_on,120,0,4,,,,,,,,,0,,,58,0
18690,note_on,10,0,1,,,,,,,,,0,,,82,0
18690,note_on,0,0,4,,,,,,,,,0,,,57,70
18690,note_on,0,0,1,,,,,,,,,0,,,66,60
18690,note_on,0,0,4,,,,,,,,,0,,,50,0
18690,note_on,0,0,4,,,,,,,,,0,,,50,70
18695,control_change,5,0,5,,,,,,,,,0,64,127,,
18700,note_on,10,0,1,,,,,,,,,0,,,66,0
18700,note_on,0,0,1,,,,,,,,,0,,,81,60
18710,note_on,10,0,1,,,,,,,,,0,,,81,0
18710,note_on,0,0,1,,,,,,,,,0,,,69,60
18720,note_on,0,0,1,,,,,,,,,0,,,81,60
18720,note_on,10,0,1,,,,,,,,,0,,,69,0
18730,note_on,0,0,1,,,,,,,,,0,,,74,60
18730,note_on,10,0,1,,,,,,,,,0,,,81,0
18740,note_on,0,0,1,,,,,,,,,0,,,81,60
18740,note_on,10,0,1,,,,,,,,,0,,,74,0
18750,note_on,60,0,4,,,,,,,,,0,,,50,0
18750,note_on,0,0,1,,,,,,,,,0,,,66,60
18750,note_on,0,0,4,,,,,,,,,0,,,57,0
18750,control_change,55,0,5,,,,,,,,,0,64,0,,
18750,note_on,0,0,4,,,,,,,,,0,,,60,70
18750,note_on,0,0,4,,,,,,,,,0,,,62,0
18750,note_on,0,0,4,,,,,,,,,0,,,63,70
18750,note_on,10,0,1,,,,,,,,,0,,,81,0
18755,control_change,5,0,5,,,,,,,,,0,64,127,,
18760,note_on,10,0,1,,,,,,,,,0,,,66,0
18760,note_on,0,0,1,,,,,,,,,0,,,81,60
18770,note_on,0,0,1,,,,,,,,,0,,,69,60
18770,note_on,10,0,1,,,,,,,,,0,,,81,0
18780,note_on,10,0,1,,,,,,,,,0,,,69,0
18780,note_on,0,0,1,,,,,,,,,0,,,81,60
18790,note_on,0,0,1,,,,,,,,,0,,,75,60
18790,note_on,10,0,1,,,,,,,,,0,,,81,0
18800,note_on,10,0,1,,,,,,,,,0,,,75,0
18800,note_on,0,0,1,,,,,,,,,0,,,81,60
18810,note_on,10,0,1,,,,,,,,,0,,,81,0
18810,note_on,60,0,4,,,,,,,,,0,,,60,0
18810,note_on,0,0,4,,,,,,,,,0,,,62,70
18810,control_change,55,0,5,,,,,,,,,0,64,0,,
18810,note_on,0,0,4,,,,,,,,,0,,,58,70
18810,note_on,0,0,1,,,,,,,,,0,,,67,60
18810,note_on,0,0,4,,,,,,,,,0,,,63,0
18815,control_change,5,0,5,,,,,,,,,0,64,127,,
18820,note_on,0,0,1,,,,,,,,,0,,,79,60
18820,note_on,10,0,1,,,,,,,,,0,,,67,0
18830,note_on,0,0,1,,,,,,,,,0,,,70,60
18830,note_on,10,0,1,,,,,,,,,0,,,79,0
18840,note_on,0,0,1,,,,,,,,,0,,,79,60
18840,note_on,10,0,1,,,,,,,,,0,,,70,0
18850,note_on,0,0,1,,,,,,,,,0,,,74,60
18850,note_on,10,0,1,,,,,,,,,0,,,79,0
18860,note_on,10,0,1,,,,,,,,,0,,,74,0
18860,note_on,0,0,1,,,,,,,,,0,,,79,60
18870,note_on,0,0,4,,,,,,,,,0,,,60,70
18870,control_change,55,0,5,,,,,,,,,0,64,0,,
18870,note_on,0,0,4,,,,,,,,,0,,,62,70
18870,note_on,0,0,4,,,,,,,,,0,,,57,70
18870,note_on,0,0,1,,,,,,,,,0,,,66,60
18870,note_on,60,0,4,,,,,,,,,0,,,62,0
18870,note_on,10,0,1,,,,,,,,,0,,,79,0
18870,note_on,0,0,4,,,,,,,,,0,,,58,0
18875,control_change,5,0,5,,,,,,,,,0,64,127,,
18880,note_on,10,0,1,,,,,,,,,0,,,66,0
18880,note_on,0,0,1,,,,,,,,,0,,,78,60
18890,note_on,0,0,1,,,,,,,,,0,,,69,60
18890,note_on,10,0,1,,,,,,,,,0,,,78,0
18900,note_on,0,0,1,,,,,,,,,0,,,78,60
18900,note_on,10,0,1,,,,,,,,,0,,,69,0
18910,note_on,0,0,1,,,,,,,,,0,,,74,60
18910,note_on,10,0,1,,,,,,,,,0,,,78,0
18920,note_on,10,0,1,,,,,,,,,0,,,74,0
18920,note_on,0,0,1,,,,,,,,,0,,,78,60
18930,note_on,0,0,1,,,,,,,,,0,,,65,70
18930,control_change,0,0,5,,,,,,,,,0,64,127,,
18930,note_on,60,0,4,,,,,,,,,0,,,62,0
18930,note_on,0,0,4,,,,,,,,,0,,,56,60
18930,note_on,0,0,4,,,,,,,,,0,,,57,0
18930,note_on,0,0,4,,,,,,,,,0,,,59,60
18930,note_on,0,0,4,,,,,,,,,0,,,60,0
18930,control_change,55,0,5,,,,,,,,,0,64,0,,
18930,note_on,10,0,1,,,,,,,,,0,,,78,0
18930,note_on,0,0,4,,,,,,,,,0,,,62,80
18940,note_on,10,0,1,,,,,,,,,0,,,77,60
18950,note_on,0,0,1,,,,,,,,,0,,,68,60
18950,note_on,10,0,1,,,,,,,,,0,,,77,0
18960,note_on,0,0,1,,,,,,,,,0,,,77,60
18960,note_on,10,0,1,,,,,,,,,0,,,68,0
18970,note_on,0,0,1,,,,,,,,,0,,,71,60
18970,note_on,10,0,1,,,,,,,,,0,,,77,0
18980,note_on,0,0,1,,,,,,,,,0,,,77,60
18980,note_on,10,0,1,,,,,,,,,0,,,71,0
18985,control_change,55,0,5,,,,,,,,,0,64,0,,
18990,control_change,5,0,5,,,,,,,,,0,64,127,,
18990,note_on,0,0,1,,,,,,,,,0,,,74,60
18990,note_on,10,0,1,,,,,,,,,0,,,77,0
19000,note_on,10,0,1,,,,,,,,,0,,,74,0
19000,note_on,0,0,1,,,,,,,,,0,,,77,60
19010,note_on,10,0,1,,,,,,,,,0,,,77,0
19010,note_on,0,0,1,,,,,,,,,0,,,74,60
19020,note_on,0,0,1,,,,,,,,,0,,,77,60
19020,note_on,10,0,1,,,,,,,,,0,,,74,0
19030,note_on,0,0,1,,,,,,,,,0,,,68,60
19030,note_on,10,0,1,,,,,,,,,0,,,77,0
19040,note_on,0,0,1,,,,,,,,,0,,,77,60
19040,note_on,10,0,1,,,,,,,,,0,,,68,0
19045,control_change,55,0,5,,,,,,,,,0,64,0,,
19050,note_on,0,0,1,,,,,,,,,0,,,65,0
19050,note_on,0,0,1,,,,,,,,,0,,,64,70
19050,note_on,0,0,4,,,,,,,,,0,,,55,60
19050,note_on,0,0,4,,,,,,,,,0,,,56,0
19050,note_on,120,0,4,,,,,,,,,0,,,62,0
19050,note_on,0,0,4,,,,,,,,,0,,,59,0
19050,control_change,5,0,5,,,,,,,,,0,64,127,,
19050,note_on,10,0,1,,,,,,,,,0,,,77,0
19060,note_on,10,0,1,,,,,,,,,0,,,76,60
19070,note_on,10,0,1,,,,,,,,,0,,,76,0
19070,note_on,0,0,1,,,,,,,,,0,,,67,60
19080,note_on,0,0,1,,,,,,,,,0,,,76,60
19080,note_on,10,0,1,,,,,,,,,0,,,67,0
19090,note_on,0,0,1,,,,,,,,,0,,,72,60
19090,note_on,10,0,1,,,,,,,,,0,,,76,0
19100,note_on,10,0,1,,,,,,,,,0,,,72,0
19100,note_on,0,0,1,,,,,,,,,0,,,76,60
19105,control_change,55,0,5,,,,,,,,,0,64,0,,
19110,note_on,60,0,4,,,,,,,,,0,,,55,0
19110,control_change,5,0,5,,,,,,,,,0,64,127,,
19110,note_on,0,0,4,,,,,,,,,0,,,67,70
19110,note_on,0,0,1,,,,,,,,,0,,,64,0
19110,note_on,0,0,1,,,,,,,,,0,,,63,70
19110,note_on,10,0,1,,,,,,,,,0,,,76,0
19120,note_on,10,0,1,,,,,,,,,0,,,75,60
19130,note_on,10,0,1,,,,,,,,,0,,,75,0
19130,note_on,0,0,1,,,,,,,,,0,,,67,60
19140,note_on,10,0,1,,,,,,,,,0,,,67,0
19140,note_on,0,0,1,,,,,,,,,0,,,75,60
19150,note_on,0,0,1,,,,,,,,,0,,,72,60
19150,note_on,10,0,1,,,,,,,,,0,,,75,0
19160,note_on,0,0,1,,,,,,,,,0,,,75,60
19160,note_on,10,0,1,,,,,,,,,0,,,72,0
19165,control_change,55,0,5,,,,,,,,,0,64,0,,
19170,control_change,5,0,5,,,,,,,,,0,64,127,,
19170,note_on,0,0,4,,,,,,,,,0,,,65,70
19170,note_on,0,0,1,,,,,,,,,0,,,62,70
19170,note_on,0,0,1,,,,,,,,,0,,,63,0
19170,note_on,60,0,4,,,,,,,,,0,,,67,0
19170,note_on,10,0,1,,,,,,,,,0,,,75,0
19180,note_on,10,0,1,,,,,,,,,0,,,74,60
19190,note_on,10,0,1,,,,,,,,,0,,,74,0
19190,note_on,0,0,1,,,,,,,,,0,,,67,60
19200,note_on,0,0,1,,,,,,,,,0,,,74,60
19200,note_on,10,0,1,,,,,,,,,0,,,67,0
19210,note_on,0,0,1,,,,,,,,,0,,,70,60
19210,note_on,10,0,1,,,,,,,,,0,,,74,0
19220,note_on,0,0,1,,,,,,,,,0,,,74,60
19220,note_on,10,0,1,,,,,,,,,0,,,70,0
19225,control_change,55,0,5,,,,,,,,,0,64,0,,
19230,note_on,10,0,1,,,,,,,,,0,,,74,0
19230,note_on,0,0,4,,,,,,,,,0,,,55,60
19230,note_on,60,0,4,,,,,,,,,0,,,65,0
19230,note_on,0,0,1,,,,,,,,,0,,,62,0
19230,note_on,0,0,1,,,,,,,,,0,,,63,70
19230,control_change,5,0,5,,,,,,,,,0,64,127,,
19230,note_on,0,0,4,,,,,,,,,0,,,60,70
19240,note_on,10,0,1,,,,,,,,,0,,,75,60
19250,note_on,10,0,1,,,,,,,,,0,,,75,0
19250,note_on,0,0,1,,,,,,,,,0,,,67,60
19260,note_on,0,0,1,,,,,,,,,0,,,75,60
19260,note_on,10,0,1,,,,,,,,,0,,,67,0
19270,note_on,0,0,1,,,,,,,,,0,,,72,60
19270,note_on,10,0,1,,,,,,,,,0,,,75,0
19280,note_on,0,0,1,,,,,,,,,0,,,75,60
19280,note_on,10,0,1,,,,,,,,,0,,,72,0
19285,control_change,55,0,5,,,,,,,,,0,64,0,,
19290,note_on,0,0,4,,,,,,,,,0,,,55,0
19290,note_on,0,0,4,,,,,,,,,0,,,60,70
19290,note_on,0,0,1,,,,,,,,,0,,,63,70
19290,note_on,0,0,1,,,,,,,,,0,,,63,0
19290,note_on,60,0,4,,,,,,,,,0,,,60,0
19290,control_change,5,0,5,,,,,,,,,0,64,0,,
19290,note_on,10,0,1,,,,,,,,,0,,,75,0
19290,note_on,0,0,4,,,,,,,,,0,,,54,70
19295,control_change,5,0,5,,,,,,,,,0,64,127,,
19300,note_on,10,0,1,,,,,,,,,0,,,75,60
19310,note_on,10,0,1,,,,,,,,,0,,,75,0
19310,note_on,0,0,1,,,,,,,,,0,,,67,60
19320,note_on,10,0,1,,,,,,,,,0,,,67,0
19320,note_on,0,0,1,,,,,,,,,0,,,75,60
19330,note_on,10,0,1,,,,,,,,,0,,,75,0
19330,note_on,0,0,1,,,,,,,,,0,,,68,60
19340,note_on,10,0,1,,,,,,,,,0,,,68,0
19340,note_on,0,0,1,,,,,,,,,0,,,75,60
19350,note_on,10,0,1,,,,,,,,,0,,,75,0
19350,control_change,55,0,5,,,,,,,,,0,64,0,,
19350,note_on,0,0,1,,,,,,,,,0,,,72,60
19355,control_change,5,0,5,,,,,,,,,0,64,127,,
19360,note_on,10,0,1,,,,,,,,,0,,,72,0
19360,note_on,0,0,1,,,,,,,,,0,,,75,60
19370,note_on,0,0,1,,,,,,,,,0,,,67,60
19370,note_on,10,0,1,,,,,,,,,0,,,75,0
19380,note_on,10,0,1,,,,,,,,,0,,,67,0
19380,note_on,0,0,1,,,,,,,,,0,,,75,60
19390,note_on,10,0,1,,,,,,,,,0,,,75,0
19390,note_on,0,0,1,,,,,,,,,0,,,68,60
19400,note_on,10,0,1,,,,,,,,,0,,,68,0
19400,note_on,0,0,1,,,,,,,,,0,,,75,60
19410,note_on,0,0,1,,,,,,,,,0,,,63,70
19410,note_on,0,0,1,,,,,,,,,0,,,63,0
19410,note_on,0,0,4,,,,,,,,,0,,,60,0
19410,note_on,120,0,4,,,,,,,,,0,,,54,0
19410,control_change,55,0,5,,,,,,,,,0,64,0,,
19410,note_on,10,0,1,,,,,,,,,0,,,75,0
19410,note_on,0,0,4,,,,,,,,,0,,,60,70
19410,note_on,0,0,4,,,,,,,,,0,,,53,70
19415,control_change,5,0,5,,,,,,,,,0,64,127,,
19420,note_on,10,0,1,,,,,,,,,0,,,75,60
19430,note_on,0,0,1,,,,,,,,,0,,,68,60
19430,note_on,10,0,1,,,,,,,,,0,,,75,0
19440,note_on,10,0,1,,,,,,,,,0,,,68,0
19440,note_on,0,0,1,,,,,,,,,0,,,75,60
19450,note_on,0,0,1,,,,,,,,,0,,,69,60
19450,note_on,10,0,1,,,,,,,,,0,,,75,0
19460,note_on,10,0,1,,,,,,,,,0,,,69,0
19460,note_on,0,0,1,,,,,,,,,0,,,75,60
19470,note_on,60,0,4,,,,,,,,,0,,,53,0
19470,note_on,10,0,1,,,,,,,,,0,,,75,0
19470,control_change,55,0,5,,,,,,,,,0,64,0,,
19470,note_on,0,0,4,,,,,,,,,0,,,54,70
19470,note_on,0,0,4,,,,,,,,,0,,,60,0
19470,note_on,0,0,4,,,,,,,,,0,,,60,70
19470,note_on,0,0,1,,,,,,,,,0,,,63,0
19470,note_on,0,0,1,,,,,,,,,0,,,63,70
19470,note_on,0,0,1,,,,,,,,,0,,,72,60
19475,control_change,5,0,5,,,,,,,,,0,64,127,,
19480,note_on,10,0,1,,,,,,,,,0,,,72,0
19480,note_on,0,0,1,,,,,,,,,0,,,75,60
19490,note_on,0,0,1,,,,,,,,,0,,,68,60
19490,note_on,10,0,1,,,,,,,,,0,,,75,0
19500,note_on,0,0,1,,,,,,,,,0,,,75,60
19500,note_on,10,0,1,,,,,,,,,0,,,68,0
19510,note_on,0,0,1,,,,,,,,,0,,,69,60
19510,note_on,10,0,1,,,,,,,,,0,,,75,0
19520,note_on,0,0,1,,,,,,,,,0,,,75,60
19520,note_on,10,0,1,,,,,,,,,0,,,69,0
19530,note_on,0,0,1,,,,,,,,,0,,,62,70
19530,control_change,55,0,5,,,,,,,,,0,64,0,,
19530,note_on,0,0,4,,,,,,,,,0,,,54,0
19530,note_on,0,0,4,,,,,,,,,0,,,55,70
19530,note_on,0,0,4,,,,,,,,,0,,,58,70
19530,note_on,0,0,1,,,,,,,,,0,,,63,0
19530,note_on,10,0,1,,,,,,,,,0,,,75,0
19530,note_on,60,0,4,,,,,,,,,0,,,60,0
19535,control_change,5,0,5,,,,,,,,,0,64,127,,
19540,note_on,10,0,1,,,,,,,,,0,,,74,60
19550,note_on,0,0,1,,,,,,,,,0,,,69,60
19550,note_on,10,0,1,,,,,,,,,0,,,74,0
19560,note_on,10,0,1,,,,,,,,,0,,,69,0
19560,note_on,0,0,1,,,,,,,,,0,,,74,60
19570,note_on,10,0,1,,,,,,,,,0,,,74,0
19570,note_on,0,0,1,,,,,,,,,0,,,70,60
19580,note_on,10,0,1,,,,,,,,,0,,,70,0
19580,note_on,0,0,1,,,,,,,,,0,,,74,60
19590,note_on,0,0,4,,,,,,,,,0,,,53,70
19590,note_on,0,0,4,,,,,,,,,0,,,58,0
19590,note_on,0,0,1,,,,,,,,,0,,,62,0
19590,note_on,0,0,1,,,,,,,,,0,,,62,70
19590,note_on,60,0,4,,,,,,,,,0,,,55,0
19590,note_on,0,0,1,,,,,,,,,0,,,71,60
19590,note_on,10,0,1,,,,,,,,,0,,,74,0
19590,control_change,55,0,5,,,,,,,,,0,64,0,,
19590,note_on,0,0,4,,,,,,,,,0,,,56,70
19595,control_change,5,0,5,,,,,,,,,0,64,127,,
19600,note_on,10,0,1,,,,,,,,,0,,,71,0
19600,note_on,0,0,1,,,,,,,,,0,,,74,60
19610,note_on,0,0,1,,,,,,,,,0,,,67,60
19610,note_on,10,0,1,,,,,,,,,0,,,74,0
19620,note_on,10,0,1,,,,,,,,,0,,,67,0
19620,note_on,0,0,1,,,,,,,,,0,,,74,60
19630,note_on,10,0,1,,,,,,,,,0,,,74,0
19630,note_on,0,0,1,,,,,,,,,0,,,68,60
19640,note_on,10,0,1,,,,,,,,,0,,,68,0
19640,note_on,0,0,1,,,,,,,,,0,,,74,60
19650,note_on,60,0,4,,,,,,,,,0,,,56,0
19650,note_on,0,0,4,,,,,,,,,0,,,55,80
19650,control_change,0,0,5,,,,,,,,,0,64,127,,
19650,note_on,0,0,4,,,,,,,,,0,,,53,0
19650,control_change,55,0,5,,,,,,,,,0,64,0,,
19650,note_on,10,0,1,,,,,,,,,0,,,74,0
19650,note_on,0,0,1,,,,,,,,,0,,,62,0
19650,note_on,0,0,1,,,,,,,,,0,,,62,80
19650,note_on,0,0,4,,,,,,,,,0,,,52,80
19660,note_on,10,0,1,,,,,,,,,0,,,74,60
19670,note_on,0,0,1,,,,,,,,,0,,,67,60
19670,note_on,10,0,1,,,,,,,,,0,,,74,0
19680,note_on,0,0,1,,,,,,,,,0,,,74,60
19680,note_on,10,0,1,,,,,,,,,0,,,67,0
19690,note_on,10,0,1,,,,,,,,,0,,,74,0
19690,note_on,0,0,1,,,,,,,,,0,,,69,60
19700,note_on,0,0,1,,,,,,,,,0,,,74,60
19700,note_on,10,0,1,,,,,,,,,0,,,69,0
19705,control_change,55,0,5,,,,,,,,,0,64,0,,
19710,control_change,5,0,5,,,,,,,,,0,64,127,,
19710,note_on,60,0,4,,,,,,,,,0,,,52,0
19710,note_on,0,0,4,,,,,,,,,0,,,55,70
19710,note_on,0,0,1,,,,,,,,,0,,,70,60
19710,note_on,10,0,1,,,,,,,,,0,,,74,0
19710,note_on,0,0,4,,,,,,,,,0,,,55,0
19710,note_on,0,0,4,,,,,,,,,0,,,51,70
19710,note_on,0,0,1,,,,,,,,,0,,,61,70
19710,note_on,0,0,1,,,,,,,,,0,,,62,0
19720,note_on,0,0,1,,,,,,,,,0,,,73,60
19720,note_on,10,0,1,,,,,,,,,0,,,70,0
19730,note_on,0,0,1,,,,,,,,,0,,,66,60
19730,note_on,10,0,1,,,,,,,,,0,,,73,0
19740,note_on,10,0,1,,,,,,,,,0,,,66,0
19740,note_on,0,0,1,,,,,,,,,0,,,73,60
19750,note_on,0,0,1,,,,,,,,,0,,,67,60
19750,note_on,10,0,1,,,,,,,,,0,,,73,0
19760,note_on,0,0,1,,,,,,,,,0,,,73,60
19760,note_on,10,0,1,,,,,,,,,0,,,67,0
19765,control_change,55,0,5,,,,,,,,,0,64,0,,
19770,note_on,0,0,1,,,,,,,,,0,,,61,0
19770,note_on,0,0,1,,,,,,,,,0,,,62,70
19770,note_on,0,0,4,,,,,,,,,0,,,50,70
19770,note_on,0,0,4,,,,,,,,,0,,,58,70
19770,note_on,10,0,1,,,,,,,,,0,,,73,0
19770,note_on,0,0,4,,,,,,,,,0,,,51,0
19770,note_on,60,0,4,,,,,,,,,0,,,55,0
19770,control_change,5,0,5,,,,,,,,,0,64,127,,
19780,note_on,10,0,1,,,,,,,,,0,,,74,60
19790,note_on,0,0,1,,,,,,,,,0,,,66,60
19790,note_on,10,0,1,,,,,,,,,0,,,74,0
19800,note_on,0,0,1,,,,,,,,,0,,,74,60
19800,note_on,10,0,1,,,,,,,,,0,,,66,0
19810,note_on,0,0,1,,,,,,,,,0,,,67,60
19810,note_on,10,0,1,,,,,,,,,0,,,74,0
19820,note_on,0,0,1,,,,,,,,,0,,,74,60
19820,note_on,10,0,1,,,,,,,,,0,,,67,0
19825,control_change,55,0,5,,,,,,,,,0,64,0,,
19830,control_change,5,0,5,,,,,,,,,0,64,127,,
19830,note_on,0,0,4,,,,,,,,,0,,,55,70
19830,note_on,0,0,1,,,,,,,,,0,,,62,0
19830,note_on,60,0,4,,,,,,,,,0,,,58,0
19830,note_on,10,0,1,,,,,,,,,0,,,74,0
19830,note_on,0,0,1,,,,,,,,,0,,,58,70
19840,note_on,10,0,1,,,,,,,,,0,,,74,60
19850,note_on,0,0,1,,,,,,,,,0,,,61,60
19850,note_on,10,0,1,,,,,,,,,0,,,74,0
19860,note_on,0,0,1,,,,,,,,,0,,,74,60
19860,note_on,10,0,1,,,,,,,,,0,,,61,0
19870,note_on,10,0,1,,,,,,,,,0,,,74,0
19870,note_on,0,0,1,,,,,,,,,0,,,62,60
19880,note_on,0,0,1,,,,,,,,,0,,,74,60
19880,note_on,10,0,1,,,,,,,,,0,,,62,0
19885,control_change,55,0,5,,,,,,,,,0,64,0,,
19890,note_on,0,0,4,,,,,,,,,0,,,50,0
19890,note_on,0,0,4,,,,,,,,,0,,,50,70
19890,note_on,10,0,1,,,,,,,,,0,,,74,0
19890,note_on,0,0,4,,,,,,,,,0,,,57,70
19890,note_on,60,0,4,,,,,,,,,0,,,55,0
19890,control_change,5,0,5,,,,,,,,,0,64,127,,
19890,note_on,0,0,1,,,,,,,,,0,,,60,70
19890,note_on,0,0,1,,,,,,,,,0,,,58,0
19900,note_on,10,0,1,,,,,,,,,0,,,72,60
19910,note_on,10,0,1,,,,,,,,,0,,,72,0
19910,note_on,0,0,1,,,,,,,,,0,,,63,60
19920,note_on,10,0,1,,,,,,,,,0,,,63,0
19920,note_on,0,0,1,,,,,,,,,0,,,72,60
19930,note_on,0,0,1,,,,,,,,,0,,,62,60
19930,note_on,10,0,1,,,,,,,,,0,,,72,0
19940,note_on,10,0,1,,,,,,,,,0,,,62,0
19940,note_on,0,0,1,,,,,,,,,0,,,72,60
19945,control_change,55,0,5,,,,,,,,,0,64,0,,
19950,note_on,60,0,4,,,,,,,,,0,,,57,0
19950,control_change,5,0,5,,,,,,,,,0,64,127,,
19950,note_on,0,0,1,,,,,,,,,0,,,60,0
19950,note_on,0,0,1,,,,,,,,,0,,,57,70
19950,note_on,10,0,1,,,,,,,,,0,,,72,0
19950,note_on,0,0,4,,,,,,,,,0,,,54,70
19960,note_on,10,0,1,,,,,,,,,0,,,69,60
19970,note_on,0,0,1,,,,,,,,,0,,,63,60
19970,note_on,10,0,1,,,,,,,,,0,,,69,0
19980,note_on,10,0,1,,,,,,,,,0,,,63,0
19980,note_on,0,0,1,,,,,,,,,0,,,69,60
19990,note_on,0,0,1,,,,,,,,,0,,,62,60
19990,note_on,10,0,1,,,,,,,,,0,,,69,0
20000,note_on,0,0,1,,,,,,,,,0,,,69,60
20000,note_on,10,0,1,,,,,,,,,0,,,62,0
20005,control_change,55,0,5,,,,,,,,,0,64,0,,
20010,note_on,10,0,1,,,,,,,,,0,,,69,0
20010,marker,3600,1,0,,,,,,,,,,,,,
20010,note_on,0,0,4,,,,,,,,,0,,,43,70
20010,control_change,5,0,5,,,,,,,,,0,64,127,,
20010,note_on,0,0,4,,,,,,,,,0,,,31,70
20010,note_on,60,0,4,,,,,,,,,0,,,54,0
20010,note_on,0,0,1,,,,,,,,,0,,,57,0
20010,note_on,0,0,1,,,,,,,,,0,,,58,70
20010,note_on,0,0,4,,,,,,,,,0,,,50,0
20020,note_on,0,0,1,,,,,,,,,0,,,67,60
20020,note_on,10,0,1,,,,,,,,,0,,,70,60
20030,note_on,0,0,1,,,,,,,,,0,,,61,60
20030,note_on,0,0,1,,,,,,,,,0,,,70,0
20030,note_on,10,0,1,,,,,,,,,0,,,67,0
20040,note_on,0,0,1,,,,,,,,,0,,,67,60
20040,note_on,10,0,1,,,,,,,,,0,,,61,0
20040,note_on,0,0,1,,,,,,,,,0,,,70,60
20050,note_on,10,0,1,,,,,,,,,0,,,67,0
20050,note_on,0,0,1,,,,,,,,,0,,,70,0
20050,note_on,0,0,1,,,,,,,,,0,,,62,60
20060,note_on,10,0,1,,,,,,,,,0,,,62,0
20060,note_on,0,0,1,,,,,,,,,0,,,70,60
20060,note_on,0,0,1,,,,,,,,,0,,,67,60
20065,control_change,55,0,5,,,,,,,,,0,64,0,,
20070,note_on,0,0,1,,,,,,,,,0,,,70,0
20070,note_on,0,0,1,,,,,,,,,0,,,58,0
20070,control_change,5,0,5,,,,,,,,,0,64,127,,
20070,note_on,10,0,1,,,,,,,,,0,,,67,0
20070,note_on,0,0,4,,,,,,,,,0,,,58,60
20070,note_on,0,0,4,,,,,,,,,0,,,55,60
20070,note_on,0,0,4,,,,,,,,,0,,,50,60
20070,note_on,0,0,4,,,,,,,,,0,,,31,0
20070,note_on,60,0,4,,,,,,,,,0,,,43,0
20070,note_on,0,0,1,,,,,,,,,0,,,62,70
20080,note_on,10,0,1,,,,,,,,,0,,,74,60
20080,note_on,0,0,1,,,,,,,,,0,,,70,60
20090,note_on,0,0,1,,,,,,,,,0,,,66,60
20090,note_on,0,0,1,,,,,,,,,0,,,74,0
20090,note_on,10,0,1,,,,,,,,,0,,,70,0
20100,note_on,0,0,1,,,,,,,,,0,,,74,60
20100,note_on,0,0,1,,,,,,,,,0,,,70,60
20100,note_on,10,0,1,,,,,,,,,0,,,66,0
20110,note_on,0,0,1,,,,,,,,,0,,,74,0
20110,note_on,0,0,1,,,,,,,,,0,,,67,60
20110,note_on,10,0,1,,,,,,,,,0,,,70,0
20120,note_on,10,0,1,,,,,,,,,0,,,67,0
20120,note_on,0,0,1,,,,,,,,,0,,,74,60
20120,note_on,0,0,1,,,,,,,,,0,,,70,60
20125,control_change,55,0,5,,,,,,,,,0,64,0,,
20130,note_on,0,0,4,,,,,,,,,0,,,58,0
20130,note_on,10,0,1,,,,,,,,,0,,,70,0
20130,control_change,5,0,5,,,,,,,,,0,64,127,,
20130,note_on,60,0,4,,,,,,,,,0,,,50,0
20130,note_on,0,0,1,,,,,,,,,0,,,62,0
20130,note_on,0,0,4,,,,,,,,,0,,,31,70
20130,note_on,0,0,1,,,,,,,,,0,,,74,0
20130,note_on,0,0,1,,,,,,,,,0,,,58,70
20130,note_on,0,0,4,,,,,,,,,0,,,55,0
20130,note_on,0,0,4,,,,,,,,,0,,,43,70
20140,note_on,10,0,1,,,,,,,,,0,,,70,60
20140,note_on,0,0,1,,,,,,,,,0,,,67,60
20150,note_on,0,0,1,,,,,,,,,0,,,61,60
20150,note_on,10,0,1,,,,,,,,,0,,,67,0
20150,note_on,0,0,1,,,,,,,,,0,,,70,0
20160,note_on,0,0,1,,,,,,,,,0,,,70,60
20160,note_on,0,0,1,,,,,,,,,0,,,67,60
20160,note_on,10,0,1,,,,,,,,,0,,,61,0
20170,note_on,10,0,1,,,,,,,,,0,,,67,0
20170,note_on,0,0,1,,,,,,,,,0,,,62,60
20170,note_on,0,0,1,,,,,,,,,0,,,70,0
20180,note_on,10,0,1,,,,,,,,,0,,,62,0
20180,note_on,0,0,1,,,,,,,,,0,,,67,60
20180,note_on,0,0,1,,,,,,,,,0,,,70,60
20185,control_change,55,0,5,,,,,,,,,0,64,0,,
20190,note_on,0,0,4,,,,,,,,,0,,,31,0
20190,note_on,0,0,4,,,,,,,,,0,,,50,60
20190,note_on,0,0,4,,,,,,,,,0,,,55,60
20190,note_on,0,0,4,,,,,,,,,0,,,58,60
20190,control_change,5,0,5,,,,,,,,,0,64,127,,
20190,note_on,0,0,1,,,,,,,,,0,,,62,70
20190,note_on,0,0,1,,,,,,,,,0,,,70,0
20190,note_on,0,0,1,,,,,,,,,0,,,58,0
20190,note_on,60,0,4,,,,,,,,,0,,,43,0
20190,note_on,10,0,1,,,,,,,,,0,,,67,0
20200,note_on,0,0,1,,,,,,,,,0,,,70,60
20200,note_on,10,0,1,,,,,,,,,0,,,74,60
20210,note_on,10,0,1,,,,,,,,,0,,,70,0
20210,note_on,0,0,1,,,,,,,,,0,,,66,60
20210,note_on,0,0,1,,,,,,,,,0,,,74,0
20220,note_on,10,0,1,,,,,,,,,0,,,66,0
20220,note_on,0,0,1,,,,,,,,,0,,,70,60
20220,note_on,0,0,1,,,,,,,,,0,,,74,60
20230,note_on,0,0,1,,,,,,,,,0,,,74,0
20230,note_on,10,0,1,,,,,,,,,0,,,70,0
20230,note_on,0,0,1,,,,,,,,,0,,,67,60
20240,note_on,0,0,1,,,,,,,,,0,,,74,60
20240,note_on,0,0,1,,,,,,,,,0,,,70,60
20240,note_on,10,0,1,,,,,,,,,0,,,67,0
20245,control_change,55,0,5,,,,,,,,,0,64,0,,
20250,control_change,5,0,5,,,,,,,,,0,64,127,,
20250,note_on,0,0,4,,,,,,,,,0,,,31,70
20250,note_on,0,0,4,,,,,,,,,0,,,43,70
20250,note_on,0,0,1,,,,,,,,,0,,,74,0
20250,note_on,0,0,1,,,,,,,,,0,,,62,70
20250,note_on,10,0,1,,,,,,,,,0,,,70,0
20250,note_on,60,0,4,,,,,,,,,0,,,50,0
20250,note_on,0,0,4,,,,,,,,,0,,,55,0
20250,note_on,0,0,4,,,,,,,,,0,,,58,0
20250,note_on,0,0,1,,,,,,,,,0,,,62,0
20260,note_on,10,0,1,,,,,,,,,0,,,74,60
20260,note_on,0,0,1,,,,,,,,,0,,,71,60
20270,note_on,0,0,1,,,,,,,,,0,,,66,60
20270,note_on,0,0,1,,,,,,,,,0,,,74,0
20270,note_on,10,0,1,,,,,,,,,0,,,71,0
20280,note_on,10,0,1,,,,,,,,,0,,,66,0
20280,note_on,0,0,1,,,,,,,,,0,,,71,60
20280,note_on,0,0,1,,,,,,,,,0,,,74,60
20290,note_on,10,0,1,,,,,,,,,0,,,71,0
20290,note_on,0,0,1,,,,,,,,,0,,,74,0
20290,note_on,0,0,1,,,,,,,,,0,,,67,60
20300,note_on,0,0,1,,,,,,,,,0,,,74,60
20300,note_on,10,0,1,,,,,,,,,0,,,67,0
20300,note_on,0,0,1,,,,,,,,,0,,,71,60
20305,control_change,55,0,5,,,,,,,,,0,64,0,,
20310,control_change,5,0,5,,,,,,,,,0,64,127,,
20310,note_on,60,0,4,,,,,,,,,0,,,43,0
20310,note_on,10,0,1,,,,,,,,,0,,,71,0
20310,note_on,0,0,1,,,,,,,,,0,,,62,0
20310,note_on,0,0,4,,,,,,,,,0,,,59,60
20310,note_on,0,0,4,,,,,,,,,0,,,55,60
20310,note_on,0,0,4,,,,,,,,,0,,,53,60
20310,note_on,0,0,4,,,,,,,,,0,,,31,0
20310,note_on,0,0,1,,,,,,,,,0,,,65,70
20310,note_on,0,0,4,,,,,,,,,0,,,62,60
20310,note_on,0,0,1,,,,,,,,,0,,,74,0
20320,note_on,0,0,1,,,,,,,,,0,,,74,60
20320,note_on,10,0,1,,,,,,,,,0,,,77,60
20330,note_on,0,0,1,,,,,,,,,0,,,68,60
20330,note_on,0,0,1,,,,,,,,,0,,,77,0
20330,note_on,10,0,1,,,,,,,,,0,,,74,0
20340,note_on,10,0,1,,,,,,,,,0,,,68,0
20340,note_on,0,0,1,,,,,,,,,0,,,74,60
20340,note_on,0,0,1,,,,,,,,,0,,,77,60
20350,note_on,10,0,1,,,,,,,,,0,,,74,0
20350,note_on,0,0,1,,,,,,,,,0,,,67,60
20350,note_on,0,0,1,,,,,,,,,0,,,77,0
20360,note_on,10,0,1,,,,,,,,,0,,,67,0
20360,note_on,0,0,1,,,,,,,,,0,,,77,60
20360,note_on,0,0,1,,,,,,,,,0,,,74,60
20365,control_change,55,0,5,,,,,,,,,0,64,0,,
20370,note_on,0,0,4,,,,,,,,,0,,,43,70
20370,note_on,0,0,4,,,,,,,,,0,,,31,70
20370,note_on,0,0,4,,,,,,,,,0,,,62,0
20370,note_on,0,0,4,,,,,,,,,0,,,59,0
20370,note_on,0,0,4,,,,,,,,,0,,,55,0
20370,note_on,60,0,4,,,,,,,,,0,,,53,0
20370,note_on,10,0,1,,,,,,,,,0,,,74,0
20370,note_on,0,0,1,,,,,,,,,0,,,65,0
20370,note_on,0,0,1,,,,,,,,,0,,,67,70
20370,note_on,0,0,1,,,,,,,,,0,,,77,0
20370,control_change,5,0,5,,,,,,,,,0,64,0,,
20375,control_change,5,0,5,,,,,,,,,0,64,127,,
20380,note_on,10,0,1,,,,,,,,,0,,,79,60
20380,note_on,0,0,1,,,,,,,,,0,,,75,60
20390,note_on,10,0,1,,,,,,,,,0,,,75,0
20390,note_on,0,0,1,,,,,,,,,0,,,71,60
20390,note_on,0,0,1,,,,,,,,,0,,,79,0
20400,note_on,0,0,1,,,,,,,,,0,,,75,60
20400,note_on,10,0,1,,,,,,,,,0,,,71,0
20400,note_on,0,0,1,,,,,,,,,0,,,79,60
20410,note_on,0,0,1,,,,,,,,,0,,,79,0
20410,note_on,0,0,1,,,,,,,,,0,,,72,60
20410,note_on,10,0,1,,,,,,,,,0,,,75,0
20420,note_on,10,0,1,,,,,,,,,0,,,72,0
20420,note_on,0,0,1,,,,,,,,,0,,,79,60
20420,note_on,0,0,1,,,,,,,,,0,,,75,60
20430,note_on,0,0,4,,,,,,,,,0,,,31,0
20430,note_on,0,0,4,,,,,,,,,0,,,60,60
20430,note_on,60,0,4,,,,,,,,,0,,,43,0
20430,note_on,0,0,4,,,,,,,,,0,,,51,60
20430,note_on,0,0,4,,,,,,,,,0,,,55,60
20430,note_on,0,0,1,,,,,,,,,0,,,79,0
20430,control_change,55,0,5,,,,,,,,,0,64,0,,
20430,note_on,0,0,1,,,,,,,,,0,,,63,70
20430,note_on,0,0,1,,,,,,,,,0,,,67,0
20430,note_on,10,0,1,,,,,,,,,0,,,75,0
20435,control_change,5,0,5,,,,,,,,,0,64,127,,
20440,note_on,10,0,1,,,,,,,,,0,,,75,60
20440,note_on,0,0,1,,,,,,,,,0,,,72,60
20450,note_on,10,0,1,,,,,,,,,0,,,72,0
20450,note_on,0,0,1,,,,,,,,,0,,,75,0
20450,note_on,0,0,1,,,,,,,,,0,,,66,60
20460,note_on,0,0,1,,,,,,,,,0,,,72,60
20460,note_on,0,0,1,,,,,,,,,0,,,75,60
20460,note_on,10,0,1,,,,,,,,,0,,,66,0
20470,note_on,0,0,1,,,,,,,,,0,,,67,60
20470,note_on,0,0,1,,,,,,,,,0,,,75,0
20470,note_on,10,0,1,,,,,,,,,0,,,72,0
20480,note_on,0,0,1,,,,,,,,,0,,,72,60
20480,note_on,0,0,1,,,,,,,,,0,,,75,60
20480,note_on,10,0,1,,,,,,,,,0,,,67,0
20490,note_on,0,0,4,,,,,,,,,0,,,60,0
20490,note_on,0,0,4,,,,,,,,,0,,,55,0
20490,note_on,0,0,4,,,,,,,,,0,,,38,70
20490,control_change,55,0,5,,,,,,,,,0,64,0,,
20490,note_on,60,0,4,,,,,,,,,0,,,51,0
20490,note_on,10,0,1,,,,,,,,,0,,,72,0
20490,note_on,0,0,1,,,,,,,,,0,,,75,0
20490,note_on,0,0,1,,,,,,,,,0,,,63,0
20490,note_on,0,0,1,,,,,,,,,0,,,62,70
20495,control_change,5,0,5,,,,,,,,,0,64,127,,
20500,note_on,0,0,1,,,,,,,,,0,,,70,60
20500,note_on,10,0,1,,,,,,,,,0,,,74,60
20510,note_on,0,0,1,,,,,,,,,0,,,66,60
20510,note_on,0,0,1,,,,,,,,,0,,,74,0
20510,note_on,10,0,1,,,,,,,,,0,,,70,0
20520,note_on,10,0,1,,,,,,,,,0,,,66,0
20520,note_on,0,0,1,,,,,,,,,0,,,70,60
20520,note_on,0,0,1,,,,,,,,,0,,,74,60
20530,note_on,10,0,1,,,,,,,,,0,,,70,0
20530,note_on,0,0,1,,,,,,,,,0,,,74,0
20530,note_on,0,0,1,,,,,,,,,0,,,67,60
20540,note_on,10,0,1,,,,,,,,,0,,,67,0
20540,note_on,0,0,1,,,,,,,,,0,,,74,60
20540,note_on,0,0,1,,,,,,,,,0,,,70,60
20550,note_on,0,0,4,,,,,,,,,0,,,50,60
20550,note_on,0,0,4,,,,,,,,,0,,,55,60
20550,note_on,60,0,4,,,,,,,,,0,,,38,0
20550,note_on,10,0,1,,,,,,,,,0,,,70,0
20550,control_change,55,0,5,,,,,,,,,0,64,0,,
20550,note_on,0,0,1,,,,,,,,,0,,,74,0
20550,note_on,0,0,1,,,,,,,,,0,,,58,70
20550,note_on,0,0,1,,,,,,,,,0,,,62,0
20555,control_change,5,0,5,,,,,,,,,0,64,127,,
20560,note_on,0,0,1,,,,,,,,,0,,,67,60
20560,note_on,10,0,1,,,,,,,,,0,,,70,60
20570,note_on,0,0,1,,,,,,,,,0,,,70,0
20570,note_on,10,0,1,,,,,,,,,0,,,67,0
20570,note_on,0,0,1,,,,,,,,,0,,,61,60
20580,note_on,10,0,1,,,,,,,,,0,,,61,0
20580,note_on,0,0,1,,,,,,,,,0,,,70,60
20580,note_on,0,0,1,,,,,,,,,0,,,67,60
20590,note_on,10,0,1,,,,,,,,,0,,,67,0
20590,note_on,0,0,1,,,,,,,,,0,,,70,0
20590,note_on,0,0,1,,,,,,,,,0,,,62,60
20600,note_on,10,0,1,,,,,,,,,0,,,62,0
20600,note_on,0,0,1,,,,,,,,,0,,,67,60
20600,note_on,0,0,1,,,,,,,,,0,,,70,60
20610,control_change,55,0,5,,,,,,,,,0,64,0,,
20610,note_on,0,0,1,,,,,,,,,0,,,58,0
20610,note_on,60,0,4,,,,,,,,,0,,,50,0
20610,note_on,0,0,1,,,,,,,,,0,,,60,70
20610,note_on,0,0,1,,,,,,,,,0,,,70,0
20610,note_on,0,0,4,,,,,,,,,0,,,57,60
20610,note_on,10,0,1,,,,,,,,,0,,,67,0
20610,note_on,0,0,4,,,,,,,,,0,,,50,60
20610,note_on,0,0,4,,,,,,,,,0,,,55,0
20615,control_change,5,0,5,,,,,,,,,0,64,127,,
20620,note_on,0,0,1,,,,,,,,,0,,,69,60
20620,note_on,10,0,1,,,,,,,,,0,,,72,60
20630,note_on,0,0,1,,,,,,,,,0,,,62,60
20630,note_on,0,0,1,,,,,,,,,0,,,72,0
20630,note_on,10,0,1,,,,,,,,,0,,,69,0
20640,note_on,10,0,1,,,,,,,,,0,,,62,0
20640,note_on,0,0,1,,,,,,,,,0,,,69,60
20640,note_on,0,0,1,,,,,,,,,0,,,72,60
20650,note_on,10,0,1,,,,,,,,,0,,,69,0
20650,note_on,0,0,1,,,,,,,,,0,,,62,60
20650,note_on,0,0,1,,,,,,,,,0,,,72,0
20660,note_on,0,0,1,,,,,,,,,0,,,72,60
20660,note_on,0,0,1,,,,,,,,,0,,,69,60
20660,note_on,10,0,1,,,,,,,,,0,,,62,0
20670,note_on,0,0,4,,,,,,,,,0,,,50,60
20670,note_on,0,0,4,,,,,,,,,0,,,54,60
20670,note_on,0,0,1,,,,,,,,,0,,,57,70
20670,control_change,55,0,5,,,,,,,,,0,64,0,,
20670,note_on,0,0,4,,,,,,,,,0,,,57,0
20670,note_on,0,0,1,,,,,,,,,0,,,60,0
20670,note_on,60,0,4,,,,,,,,,0,,,50,0
20670,note_on,0,0,1,,,,,,,,,0,,,72,0
20670,note_on,10,0,1,,,,,,,,,0,,,69,0
20675,control_change,5,0,5,,,,,,,,,0,64,127,,
20680,note_on,0,0,1,,,,,,,,,0,,,66,60
20680,note_on,10,0,1,,,,,,,,,0,,,69,60
20690,note_on,0,0,1,,,,,,,,,0,,,69,0
20690,note_on,10,0,1,,,,,,,,,0,,,66,0
20690,note_on,0,0,1,,,,,,,,,0,,,63,60
20700,note_on,0,0,1,,,,,,,,,0,,,66,60
20700,note_on,0,0,1,,,,,,,,,0,,,69,60
20700,note_on,10,0,1,,,,,,,,,0,,,63,0
20710,note_on,0,0,1,,,,,,,,,0,,,62,60
20710,note_on,0,0,1,,,,,,,,,0,,,69,0
20710,note_on,10,0,1,,,,,,,,,0,,,66,0
20720,note_on,10,0,1,,,,,,,,,0,,,62,0
20720,note_on,0,0,1,,,,,,,,,0,,,69,60
20720,note_on,0,0,1,,,,,,,,,0,,,66,60
20730,note_on,0,0,1,,,,,,,,,0,,,69,0
20730,note_on,0,0,1,,,,,,,,,0,,,58,70
20730,note_on,0,0,1,,,,,,,,,0,,,57,0
20730,control_change,0,0,5,,,,,,,,,0,64,127,,
20730,note_on,60,0,4,,,,,,,,,0,,,50,0
20730,control_change,55,0,5,,,,,,,,,0,64,0,,
20730,note_on,0,0,4,,,,,,,,,0,,,31,70
20730,note_on,10,0,1,,,,,,,,,0,,,66,0
20730,note_on,0,0,4,,,,,,,,,0,,,43,70
20730,note_on,0,0,4,,,,,,,,,0,,,54,0
20740,note_on,10,0,1,,,,,,,,,0,,,70,60
20740,note_on,0,0,1,,,,,,,,,0,,,67,60
20750,note_on,10,0,1,,,,,,,,,0,,,67,0
20750,note_on,0,0,1,,,,,,,,,0,,,61,60
20750,note_on,0,0,1,,,,,,,,,0,,,70,0
20760,note_on,10,0,1,,,,,,,,,0,,,61,0
20760,note_on,0,0,1,,,,,,,,,0,,,67,60
20760,note_on,0,0,1,,,,,,,,,0,,,70,60
20770,note_on,10,0,1,,,,,,,,,0,,,67,0
20770,note_on,0,0,1,,,,,,,,,0,,,62,60
20770,note_on,0,0,1,,,,,,,,,0,,,70,0
20780,note_on,0,0,1,,,,,,,,,0,,,70,60
20780,note_on,0,0,1,,,,,,,,,0,,,67,60
20780,note_on,10,0,1,,,,,,,,,0,,,62,0
20785,control_change,55,0,5,,,,,,,,,0,64,0,,
20790,note_on,0,0,4,,,,,,,,,0,,,50,60
20790,note_on,0,0,4,,,,,,,,,0,,,31,0
20790,note_on,10,0,1,,,,,,,,,0,,,67,0
20790,control_change,5,0,5,,,,,,,,,0,64,127,,
20790,note_on,0,0,4,,,,,,,,,0,,,55,60
20790,note_on,60,0,4,,,,,,,,,0,,,43,0
20790,note_on,0,0,1,,,,,,,,,0,,,70,0
20790,note_on,0,0,1,,,,,,,,,0,,,62,70
20790,note_on,0,0,1,,,,,,,,,0,,,58,0
20790,note_on,0,0,4,,,,,,,,,0,,,58,60
20800,note_on,0,0,1,,,,,,,,,0,,,70,60
20800,note_on,10,0,1,,,,,,,,,0,,,74,60
20810,note_on,0,0,1,,,,,,,,,0,,,66,60
20810,note_on,10,0,1,,,,,,,,,0,,,70,0
20810,note_on,0,0,1,,,,,,,,,0,,,74,0
20820,note_on,10,0,1,,,,,,,,,0,,,66,0
20820,note_on,0,0,1,,,,,,,,,0,,,74,60
20820,note_on,0,0,1,,,,,,,,,0,,,70,60
20830,note_on,10,0,1,,,,,,,,,0,,,70,0
20830,note_on,0,0,1,,,,,,,,,0,,,74,0
20830,note_on,0,0,1,,,,,,,,,0,,,67,60
20840,note_on,0,0,1,,,,,,,,,0,,,74,60
20840,note_on,0,0,1,,,,,,,,,0,,,70,60
20840,note_on,10,0,1,,,,,,,,,0,,,67,0
20845,control_change,55,0,5,,,,,,,,,0,64,0,,
20850,note_on,0,0,1,,,,,,,,,0,,,74,0
20850,note_on,0,0,4,,,,,,,,,0,,,43,70
20850,note_on,0,0,4,,,,,,,,,0,,,55,0
20850,note_on,0,0,4,,,,,,,,,0,,,58,0
20850,note_on,0,0,1,,,,,,,,,0,,,58,70
20850,note_on,0,0,1,,,,,,,,,0,,,62,0
20850,control_change,5,0,5,,,,,,,,,0,64,127,,
20850,note_on,60,0,4,,,,,,,,,0,,,50,0
20850,note_on,0,0,4,,,,,,,,,0,,,31,70
20850,note_on,10,0,1,,,,,,,,,0,,,70,0
20860,note_on,0,0,1,,,,,,,,,0,,,67,60
20860,note_on,10,0,1,,,,,,,,,0,,,70,60
20870,note_on,0,0,1,,,,,,,,,0,,,70,0
20870,note_on,10,0,1,,,,,,,,,0,,,67,0
20870,note_on,0,0,1,,,,,,,,,0,,,61,60
20880,note_on,0,0,1,,,,,,,,,0,,,67,60
20880,note_on,0,0,1,,,,,,,,,0,,,70,60
20880,note_on,10,0,1,,,,,,,,,0,,,61,0
20890,note_on,0,0,1,,,,,,,,,0,,,70,0
20890,note_on,10,0,1,,,,,,,,,0,,,67,0
20890,note_on,0,0,1,,,,,,,,,0,,,62,60
20900,note_on,0,0,1,,,,,,,,,0,,,67,60
20900,note_on,10,0,1,,,,,,,,,0,,,62,0
20900,note_on,0,0,1,,,,,,,,,0,,,70,60
20905,control_change,55,0,5,,,,,,,,,0,64,0,,
20910,control_change,5,0,5,,,,,,,,,0,64,127,,
20910,note_on,10,0,1,,,,,,,,,0,,,67,0
20910,note_on,60,0,4,,,,,,,,,0,,,43,0
20910,note_on,0,0,1,,,,,,,,,0,,,70,0
20910,note_on,0,0,4,,,,,,,,,0,,,50,60
20910,note_on,0,0,4,,,,,,,,,0,,,55,60
20910,note_on,0,0,4,,,,,,,,,0,,,58,60
20910,note_on,0,0,1,,,,,,,,,0,,,62,70
20910,note_on,0,0,1,,,,,,,,,0,,,58,0
20910,note_on,0,0,4,,,,,,,,,0,,,31,0
20920,note_on,10,0,1,,,,,,,,,0,,,74,60
20920,note_on,0,0,1,,,,,,,,,0,,,70,60
20930,note_on,10,0,1,,,,,,,,,0,,,70,0
20930,note_on,0,0,1,,,,,,,,,0,,,74,0
20930,note_on,0,0,1,,,,,,,,,0,,,66,60
20940,note_on,0,0,1,,,,,,,,,0,,,70,60
20940,note_on,10,0,1,,,,,,,,,0,,,66,0
20940,note_on,0,0,1,,,,,,,,,0,,,74,60
20950,note_on,0,0,1,,,,,,,,,0,,,74,0
20950,note_on,10,0,1,,,,,,,,,0,,,70,0
20950,note_on,0,0,1,,,,,,,,,0,,,67,60
20960,note_on,0,0,1,,,,,,,,,0,,,74,60
20960,note_on,0,0,1,,,,,,,,,0,,,70,60
20960,note_on,10,0,1,,,,,,,,,0,,,67,0
20965,control_change,55,0,5,,,,,,,,,0,64,0,,
20970,note_on,0,0,4,,,,,,,,,0,,,55,0
20970,note_on,0,0,4,,,,,,,,,0,,,43,70
20970,note_on,0,0,4,,,,,,,,,0,,,58,0
20970,note_on,10,0,1,,,,,,,,,0,,,70,0
20970,note_on,0,0,4,,,,,,,,,0,,,31,70
20970,note_on,60,0,4,,,,,,,,,0,,,50,0
20970,control_change,5,0,5,,,,,,,,,0,64,127,,
20970,note_on,0,0,1,,,,,,,,,0,,,62,0
20970,note_on,0,0,1,,,,,,,,,0,,,62,70
20970,note_on,0,0,1,,,,,,,,,0,,,74,0
20980,note_on,0,0,1,,,,,,,,,0,,,71,60
20980,note_on,10,0,1,,,,,,,,,0,,,74,60
20990,note_on,0,0,1,,,,,,,,,0,,,66,60
20990,note_on,0,0,1,,,,,,,,,0,,,74,0
20990,note_on,10,0,1,,,,,,,,,0,,,71,0
21000,note_on,10,0,1,,,,,,,,,0,,,66,0
21000,note_on,0,0,1,,,,,,,,,0,,,74,60
21000,note_on,0,0,1,,,,,,,,,0,,,71,60
21010,note_on,0,0,1,,,,,,,,,0,,,74,0
21010,note_on,0,0,1,,,,,,,,,0,,,67,60
21010,note_on,10,0,1,,,,,,,,,0,,,71,0
21020,note_on,10,0,1,,,,,,,,,0,,,67,0
21020,note_on,0,0,1,,,,,,,,,0,,,71,60
21020,note_on,0,0,1,,,,,,,,,0,,,74,60
21025,control_change,55,0,5,,,,,,,,,0,64,0,,
21030,note_on,0,0,1,,,,,,,,,0,,,65,70
21030,note_on,0,0,4,,,,,,,,,0,,,62,60
21030,note_on,0,0,4,,,,,,,,,0,,,59,60
21030,note_on,0,0,4,,,,,,,,,0,,,55,60
21030,note_on,0,0,4,,,,,,,,,0,,,53,60
21030,note_on,0,0,4,,,,,,,,,0,,,31,0
21030,control_change,5,0,5,,,,,,,,,0,64,127,,
21030,note_on,10,0,1,,,,,,,,,0,,,71,0
21030,note_on,0,0,1,,,,,,,,,0,,,62,0
21030,note_on,60,0,4,,,,,,,,,0,,,43,0
21030,note_on,0,0,1,,,,,,,,,0,,,74,0
21040,note_on,0,0,1,,,,,,,,,0,,,74,60
21040,note_on,10,0,1,,,,,,,,,0,,,77,60
21050,note_on,0,0,1,,,,,,,,,0,,,68,60
21050,note_on,0,0,1,,,,,,,,,0,,,77,0
21050,note_on,10,0,1,,,,,,,,,0,,,74,0
21060,note_on,0,0,1,,,,,,,,,0,,,74,60
21060,note_on,0,0,1,,,,,,,,,0,,,77,60
21060,note_on,10,0,1,,,,,,,,,0,,,68,0
21070,note_on,0,0,1,,,,,,,,,0,,,77,0
21070,note_on,10,0,1,,,,,,,,,0,,,74,0
21070,note_on,0,0,1,,,,,,,,,0,,,67,60
21080,note_on,10,0,1,,,,,,,,,0,,,67,0
21080,note_on,0,0,1,,,,,,,,,0,,,74,60
21080,note_on,0,0,1,,,,,,,,,0,,,77,60
21085,control_change,55,0,5,,,,,,,,,0,64,0,,
21090,note_on,0,0,4,,,,,,,,,0,,,59,0
21090,note_on,0,0,4,,,,,,,,,0,,,62,0
21090,note_on,0,0,4,,,,,,,,,0,,,31,70
21090,control_change,5,0,5,,,,,,,,,0,64,0,,
21090,note_on,0,0,4,,,,,,,,,0,,,55,0
21090,note_on,60,0,4,,,,,,,,,0,,,53,0
21090,note_on,0,0,1,,,,,,,,,0,,,77,0
21090,note_on,0,0,4,,,,,,,,,0,,,43,70
21090,note_on,0,0,1,,,,,,,,,0,,,65,0
21090,note_on,10,0,1,,,,,,,,,0,,,74,0
21090,note_on,0,0,1,,,,,,,,,0,,,67,70
21095,control_change,5,0,5,,,,,,,,,0,64,127,,
21100,note_on,0,0,1,,,,,,,,,0,,,75,60
21100,note_on,10,0,1,,,,,,,,,0,,,79,60
21110,note_on,0,0,1,,,,,,,,,0,,,71,60
21110,note_on,0,0,1,,,,,,,,,0,,,79,0
21110,note_on,10,0,1,,,,,,,,,0,,,75,0
21120,note_on,0,0,1,,,,,,,,,0,,,75,60
21120,note_on,0,0,1,,,,,,,,,0,,,79,60
21120,note_on,10,0,1,,,,,,,,,0,,,71,0
21130,note_on,10,0,1,,,,,,,,,0,,,75,0
21130,note_on,0,0,1,,,,,,,,,0,,,72,60
21130,note_on,0,0,1,,,,,,,,,0,,,79,0
21140,note_on,0,0,1,,,,,,,,,0,,,79,60
21140,note_on,10,0,1,,,,,,,,,0,,,72,0
21140,note_on,0,0,1,,,,,,,,,0,,,75,60
21150,note_on,0,0,1,,,,,,,,,0,,,79,0
21150,note_on,0,0,1,,,,,,,,,0,,,63,70
21150,control_change,55,0,5,,,,,,,,,0,64,0,,
21150,note_on,0,0,1,,,,,,,,,0,,,67,0
21150,note_on,0,0,4,,,,,,,,,0,,,60,60
21150,note_on,0,0,4,,,,,,,,,0,,,55,60
21150,note_on,0,0,4,,,,,,,,,0,,,51,60
21150,note_on,10,0,1,,,,,,,,,0,,,75,0
21150,note_on,0,0,4,,,,,,,,,0,,,31,0
21150,note_on,60,0,4,,,,,,,,,0,,,43,0
21155,control_change,5,0,5,,,,,,,,,0,64,127,,
21160,note_on,0,0,1,,,,,,,,,0,,,72,60
21160,note_on,10,0,1,,,,,,,,,0,,,75,60
21170,note_on,0,0,1,,,,,,,,,0,,,75,0
21170,note_on,0,0,1,,,,,,,,,0,,,66,60
21170,note_on,10,0,1,,,,,,,,,0,,,72,0
21180,note_on,0,0,1,,,,,,,,,0,,,75,60
21180,note_on,0,0,1,,,,,,,,,0,,,72,60
21180,note_on,10,0,1,,,,,,,,,0,,,66,0
21190,note_on,0,0,1,,,,,,,,,0,,,75,0
21190,note_on,0,0,1,,,,,,,,,0,,,67,60
21190,note_on,10,0,1,,,,,,,,,0,,,72,0
21200,note_on,0,0,1,,,,,,,,,0,,,75,60
21200,note_on,0,0,1,,,,,,,,,0,,,72,60
21200,note_on,10,0,1,,,,,,,,,0,,,67,0
21210,note_on,60,0,4,,,,,,,,,0,,,51,0
21210,control_change,55,0,5,,,,,,,,,0,64,0,,
21210,note_on,10,0,1,,,,,,,,,0,,,72,0
21210,note_on,0,0,4,,,,,,,,,0,,,60,0
21210,note_on,0,0,1,,,,,,,,,0,,,62,70
21210,note_on,0,0,4,,,,,,,,,0,,,38,70
21210,note_on,0,0,1,,,,,,,,,0,,,63,0
21210,note_on,0,0,4,,,,,,,,,0,,,55,0
21210,note_on,0,0,1,,,,,,,,,0,,,75,0
21215,control_change,5,0,5,,,,,,,,,0,64,127,,
21220,note_on,10,0,1,,,,,,,,,0,,,74,60
21220,note_on,0,0,1,,,,,,,,,0,,,70,60
21230,note_on,10,0,1,,,,,,,,,0,,,70,0
21230,note_on,0,0,1,,,,,,,,,0,,,74,0
21230,note_on,0,0,1,,,,,,,,,0,,,66,60
21240,note_on,10,0,1,,,,,,,,,0,,,66,0
21240,note_on,0,0,1,,,,,,,,,0,,,74,60
21240,note_on,0,0,1,,,,,,,,,0,,,70,60
21250,note_on,0,0,1,,,,,,,,,0,,,74,0
21250,note_on,10,0,1,,,,,,,,,0,,,70,0
21250,note_on,0,0,1,,,,,,,,,0,,,67,60
21260,note_on,0,0,1,,,,,,,,,0,,,70,60
21260,note_on,0,0,1,,,,,,,,,0,,,74,60
21260,note_on,10,0,1,,,,,,,,,0,,,67,0
21270,note_on,0,0,1,,,,,,,,,0,,,74,0
21270,note_on,0,0,1,,,,,,,,,0,,,62,0
21270,note_on,0,0,1,,,,,,,,,0,,,58,70
21270,note_on,60,0,4,,,,,,,,,0,,,38,0
21270,note_on,10,0,1,,,,,,,,,0,,,70,0
21270,note_on,0,0,4,,,,,,,,,0,,,50,60
21270,note_on,0,0,4,,,,,,,,,0,,,55,60
21270,control_change,55,0,5,,,,,,,,,0,64,0,,
21275,control_change,5,0,5,,,,,,,,,0,64,127,,
21280,note_on,10,0,1,,,,,,,,,0,,,70,60
21280,note_on,0,0,1,,,,,,,,,0,,,67,60
21290,note_on,0,0,1,,,,,,,,,0,,,70,0
21290,note_on,0,0,1,,,,,,,,,0,,,61,60
21290,note_on,10,0,1,,,,,,,,,0,,,67,0
21300,note_on,10,0,1,,,,,,,,,0,,,61,0
21300,note_on,0,0,1,,,,,,,,,0,,,67,60
21300,note_on,0,0,1,,,,,,,,,0,,,70,60
21310,note_on,0,0,1,,,,,,,,,0,,,70,0
21310,note_on,10,0,1,,,,,,,,,0,,,67,0
21310,note_on,0,0,1,,,,,,,,,0,,,62,60
21320,note_on,0,0,1,,,,,,,,,0,,,70,60
21320,note_on,0,0,1,,,,,,,,,0,,,67,60
21320,note_on,10,0,1,,,,,,,,,0,,,62,0
21330,note_on,0,0,4,,,,,,,,,0,,,50,60
21330,control_change,55,0,5,,,,,,,,,0,64,0,,
21330,note_on,0,0,1,,,,,,,,,0,,,58,0
21330,note_on,0,0,1,,,,,,,,,0,,,60,70
21330,note_on,0,0,1,,,,,,,,,0,,,70,0
21330,note_on,10,0,1,,,,,,,,,0,,,67,0
21330,note_on,0,0,4,,,,,,,,,0,,,57,60
21330,note_on,60,0,4,,,,,,,,,0,,,50,0
21330,note_on,0,0,4,,,,,,,,,0,,,55,0
21335,control_change,5,0,5,,,,,,,,,0,64,127,,
21340,note_on,0,0,1,,,,,,,,,0,,,69,60
21340,note_on,10,0,1,,,,,,,,,0,,,72,60
21350,note_on,0,0,1,,,,,,,,,0,,,62,60
21350,note_on,0,0,1,,,,,,,,,0,,,72,0
21350,note_on,10,0,1,,,,,,,,,0,,,69,0
21360,note_on,0,0,1,,,,,,,,,0,,,72,60
21360,note_on,0,0,1,,,,,,,,,0,,,69,60
21360,note_on,10,0,1,,,,,,,,,0,,,62,0
21370,note_on,0,0,1,,,,,,,,,0,,,62,60
21370,note_on,0,0,1,,,,,,,,,0,,,72,0
21370,note_on,10,0,1,,,,,,,,,0,,,69,0
21380,note_on,10,0,1,,,,,,,,,0,,,62,0
21380,note_on,0,0,1,,,,,,,,,0,,,69,60
21380,note_on,0,0,1,,,,,,,,,0,,,72,60
21390,note_on,0,0,1,,,,,,,,,0,,,72,0
21390,note_on,0,0,1,,,,,,,,,0,,,60,0
21390,control_change,55,0,5,,,,,,,,,0,64,0,,
21390,note_on,60,0,4,,,,,,,,,0,,,50,0
21390,note_on,0,0,4,,,,,,,,,0,,,50,60
21390,note_on,0,0,4,,,,,,,,,0,,,54,60
21390,note_on,0,0,4,,,,,,,,,0,,,57,0
21390,note_on,0,0,1,,,,,,,,,0,,,57,70
21390,note_on,10,0,1,,,,,,,,,0,,,69,0
21395,control_change,5,0,5,,,,,,,,,0,64,127,,
21400,note_on,0,0,1,,,,,,,,,0,,,66,60
21400,note_on,10,0,1,,,,,,,,,0,,,69,60
21410,note_on,10,0,1,,,,,,,,,0,,,66,0
21410,note_on,0,0,1,,,,,,,,,0,,,63,60
21410,note_on,0,0,1,,,,,,,,,0,,,69,0
21420,note_on,10,0,1,,,,,,,,,0,,,63,0
21420,note_on,0,0,1,,,,,,,,,0,,,66,60
21420,note_on,0,0,1,,,,,,,,,0,,,69,60
21430,note_on,0,0,1,,,,,,,,,0,,,62,60
21430,note_on,0,0,1,,,,,,,,,0,,,69,0
21430,note_on,10,0,1,,,,,,,,,0,,,66,0
21440,note_on,0,0,1,,,,,,,,,0,,,69,60
21440,note_on,0,0,1,,,,,,,,,0,,,66,60
21440,note_on,10,0,1,,,,,,,,,0,,,62,0
21450,note_on,0,0,1,,,,,,,,,0,,,69,0
21450,note_on,0,0,1,,,,,,,,,0,,,57,0
21450,note_on,10,0,1,,,,,,,,,0,,,66,0
21450,note_on,0,0,4,,,,,,,,,0,,,54,0
21450,control_change,55,0,5,,,,,,,,,0,64,0,,
21450,note_on,60,0,4,,,,,,,,,0,,,50,0
21450,note_on,0,0,4,,,,,,,,,0,,,58,60
21450,note_on,0,0,4,,,,,,,,,0,,,62,70
21450,control_change,0,0,5,,,,,,,,,0,64,127,,
21450,note_on,0,0,4,,,,,,,,,0,,,67,70
21460,note_on,10,0,4,,,,,,,,,0,,,58,0
21460,note_on,0,0,4,,,,,,,,,0,,,55,60
21470,note_on,0,0,4,,,,,,,,,0,,,58,60
21470,note_on,10,0,4,,,,,,,,,0,,,55,0
21480,note_on,0,0,4,,,,,,,,,0,,,55,60
21480,note_on,10,0,4,,,,,,,,,0,,,58,0
21490,note_on,10,0,4,,,,,,,,,0,,,55,0
21490,note_on,0,0,4,,,,,,,,,0,,,58,60
21500,note_on,0,0,4,,,,,,,,,0,,,55,60
21500,note_on,10,0,4,,,,,,,,,0,,,58,0
21505,control_change,55,0,5,,,,,,,,,0,64,0,,
21510,note_on,0,0,4,,,,,,,,,0,,,59,60
21510,note_on,0,0,4,,,,,,,,,0,,,65,70
21510,note_on,10,0,4,,,,,,,,,0,,,55,0
21510,control_change,5,0,5,,,,,,,,,0,64,127,,
21510,note_on,0,0,4,,,,,,,,,0,,,62,0
21510,note_on,0,0,4,,,,,,,,,0,,,62,70
21510,note_on,0,0,4,,,,,,,,,0,,,67,0
21520,note_on,10,0,4,,,,,,,,,0,,,59,0
21520,note_on,0,0,4,,,,,,,,,0,,,55,60
21530,note_on,0,0,4,,,,,,,,,0,,,59,60
21530,note_on,10,0,4,,,,,,,,,0,,,55,0
21540,note_on,0,0,4,,,,,,,,,0,,,55,60
21540,note_on,10,0,4,,,,,,,,,0,,,59,0
21550,note_on,0,0,4,,,,,,,,,0,,,59,60
21550,note_on,10,0,4,,,,,,,,,0,,,55,0
21560,note_on,0,0,4,,,,,,,,,0,,,55,60
21560,note_on,10,0,4,,,,,,,,,0,,,59,0
21565,control_change,55,0,5,,,,,,,,,0,64,0,,
21570,note_on,10,0,4,,,,,,,,,0,,,55,0
21570,note_on,0,0,4,,,,,,,,,0,,,65,0
21570,control_change,5,0,5,,,,,,,,,0,64,127,,
21570,note_on,0,0,4,,,,,,,,,0,,,64,70
21570,note_on,0,0,4,,,,,,,,,0,,,62,0
21570,note_on,0,0,4,,,,,,,,,0,,,60,60
21580,note_on,0,0,4,,,,,,,,,0,,,55,60
21580,note_on,10,0,4,,,,,,,,,0,,,60,0
21590,note_on,10,0,4,,,,,,,,,0,,,55,0
21590,note_on,0,0,4,,,,,,,,,0,,,60,60
21600,note_on,0,0,4,,,,,,,,,0,,,55,60
21600,note_on,10,0,4,,,,,,,,,0,,,60,0
21610,note_on,0,0,4,,,,,,,,,0,,,60,60
21610,note_on,10,0,4,,,,,,,,,0,,,55,0
21620,note_on,10,0,4,,,,,,,,,0,,,60,0
21620,note_on,0,0,4,,,,,,,,,0,,,55,60
21625,control_change,55,0,5,,,,,,,,,0,64,0,,
21630,note_on,0,0,4,,,,,,,,,0,,,60,60
21630,note_on,0,0,4,,,,,,,,,0,,,64,0
21630,note_on,0,0,4,,,,,,,,,0,,,63,70
21630,note_on,10,0,4,,,,,,,,,0,,,55,0
21630,note_on,0,0,1,,,,,,,,,0,,,79,70
21630,note_on,180,0,1,,,,,,,,,0,,,91,70
21630,control_change,5,0,5,,,,,,,,,0,64,127,,
21640,note_on,10,0,4,,,,,,,,,0,,,60,0
21640,note_on,0,0,4,,,,,,,,,0,,,55,60
21650,note_on,10,0,4,,,,,,,,,0,,,55,0
21650,note_on,0,0,4,,,,,,,,,0,,,60,60
21660,note_on,0,0,4,,,,,,,,,0,,,55,60
21660,note_on,10,0,4,,,,,,,,,0,,,60,0
21670,note_on,10,0,4,,,,,,,,,0,,,55,0
21670,note_on,0,0,4,,,,,,,,,0,,,60,60
21680,note_on,10,0,4,,,,,,,,,0,,,60,0
21680,note_on,0,0,4,,,,,,,,,0,,,55,60
21685,control_change,55,0,5,,,,,,,,,0,64,0,,
21690,note_on,0,0,4,,,,,,,,,0,,,63,60
21690,control_change,5,0,5,,,,,,,,,0,64,127,,
21690,note_on,0,0,1,,,,,,,,,0,,,91,0
21690,note_on,10,0,4,,,,,,,,,0,,,63,0
21690,note_on,0,0,1,,,,,,,,,0,,,78,70
21690,note_on,0,0,1,,,,,,,,,0,,,90,70
21690,note_on,0,0,4,,,,,,,,,0,,,57,60
21690,note_on,0,0,4,,,,,,,,,0,,,66,70
21690,note_on,60,0,1,,,,,,,,,0,,,79,0
21700,note_on,0,0,4,,,,,,,,,0,,,60,60
21700,note_on,10,0,4,,,,,,,,,0,,,63,0
21710,note_on,0,0,4,,,,,,,,,0,,,63,60
21710,note_on,10,0,4,,,,,,,,,0,,,60,0
21720,note_on,10,0,4,,,,,,,,,0,,,63,0
21720,note_on,0,0,4,,,,,,,,,0,,,60,60
21730,note_on,0,0,4,,,,,,,,,0,,,63,60
21730,note_on,10,0,4,,,,,,,,,0,,,60,0
21740,note_on,10,0,4,,,,,,,,,0,,,63,0
21740,note_on,0,0,4,,,,,,,,,0,,,60,60
21745,control_change,55,0,5,,,,,,,,,0,64,0,,
21750,control_change,5,0,5,,,,,,,,,0,64,127,,
21750,note_on,10,0,4,,,,,,,,,0,,,60,0
21750,note_on,0,0,4,,,,,,,,,0,,,63,60
21760,note_on,0,0,4,,,,,,,,,0,,,60,60
21760,note_on,10,0,4,,,,,,,,,0,,,63,0
21770,note_on,0,0,4,,,,,,,,,0,,,63,60
21770,note_on,10,0,4,,,,,,,,,0,,,60,0
21780,note_on,0,0,4,,,,,,,,,0,,,60,60
21780,note_on,90,0,1,,,,,,,,,0,,,78,0
21780,note_on,0,0,1,,,,,,,,,0,,,90,0
21780,note_on,0,0,1,,,,,,,,,0,,,87,70
21780,note_on,10,0,4,,,,,,,,,0,,,63,0
21780,note_on,0,0,1,,,,,,,,,0,,,75,70
21790,note_on,0,0,4,,,,,,,,,0,,,63,60
21790,note_on,10,0,4,,,,,,,,,0,,,60,0
21800,note_on,10,0,4,,,,,,,,,0,,,63,0
21800,note_on,0,0,4,,,,,,,,,0,,,60,60
21805,control_change,55,0,5,,,,,,,,,0,64,0,,
21810,control_change,5,0,5,,,,,,,,,0,64,127,,
21810,note_on,0,0,1,,,,,,,,,0,,,86,70
21810,note_on,0,0,4,,,,,,,,,0,,,67,70
21810,note_on,30,0,1,,,,,,,,,0,,,75,0
21810,note_on,0,0,4,,,,,,,,,0,,,66,0
21810,note_on,0,0,1,,,,,,,,,0,,,74,70
21810,note_on,0,0,1,,,,,,,,,0,,,87,0
21810,note_on,0,0,4,,,,,,,,,0,,,62,70
21810,note_on,0,0,4,,,,,,,,,0,,,55,0
21810,note_on,0,0,4,,,,,,,,,0,,,57,0
21810,note_on,10,0,4,,,,,,,,,0,,,60,0
21810,note_on,0,0,4,,,,,,,,,0,,,58,60
21820,note_on,10,0,4,,,,,,,,,0,,,58,0
21820,note_on,0,0,4,,,,,,,,,0,,,55,60
21830,note_on,10,0,4,,,,,,,,,0,,,55,0
21830,note_on,0,0,4,,,,,,,,,0,,,58,60
21840,note_on,0,0,4,,,,,,,,,0,,,55,60
21840,note_on,10,0,4,,,,,,,,,0,,,58,0
21850,note_on,10,0,4,,,,,,,,,0,,,55,0
21850,note_on,0,0,4,,,,,,,,,0,,,58,60
21860,note_on,10,0,4,,,,,,,,,0,,,58,0
21860,note_on,0,0,4,,,,,,,,,0,,,55,60
21865,control_change,55,0,5,,,,,,,,,0,64,0,,
21870,note_on,0,0,4,,,,,,,,,0,,,62,70
21870,note_on,10,0,4,,,,,,,,,0,,,55,0
21870,note_on,0,0,4,,,,,,,,,0,,,59,60
21870,control_change,5,0,5,,,,,,,,,0,64,127,,
21870,note_on,0,0,4,,,,,,,,,0,,,65,70
21870,note_on,0,0,4,,,,,,,,,0,,,67,0
21870,note_on,0,0,4,,,,,,,,,0,,,62,0
21880,note_on,0,0,4,,,,,,,,,0,,,55,60
21880,note_on,10,0,4,,,,,,,,,0,,,59,0
21890,note_on,0,0,4,,,,,,,,,0,,,59,60
21890,note_on,10,0,4,,,,,,,,,0,,,55,0
21900,note_on,0,0,4,,,,,,,,,0,,,55,60
21900,note_on,10,0,4,,,,,,,,,0,,,59,0
21910,note_on,0,0,4,,,,,,,,,0,,,59,60
21910,note_on,10,0,4,,,,,,,,,0,,,55,0
21920,note_on,0,0,4,,,,,,,,,0,,,55,60
21920,note_on,10,0,4,,,,,,,,,0,,,59,0
21925,control_change,55,0,5,,,,,,,,,0,64,0,,
21930,note_on,0,0,1,,,,,,,,,0,,,86,0
21930,note_on,120,0,1,,,,,,,,,0,,,74,0
21930,control_change,5,0,5,,,,,,,,,0,64,127,,
21930,note_on,10,0,4,,,,,,,,,0,,,55,0
21930,note_on,0,0,4,,,,,,,,,0,,,65,0
21930,note_on,0,0,4,,,,,,,,,0,,,60,60
21930,note_on,0,0,4,,,,,,,,,0,,,64,70
21930,note_on,0,0,4,,,,,,,,,0,,,62,0
21940,note_on,10,0,4,,,,,,,,,0,,,60,0
21940,note_on,0,0,4,,,,,,,,,0,,,55,60
21950,note_on,10,0,4,,,,,,,,,0,,,55,0
21950,note_on,0,0,4,,,,,,,,,0,,,60,60
21960,note_on,0,0,4,,,,,,,,,0,,,55,60
21960,note_on,10,0,4,,,,,,,,,0,,,60,0
21970,note_on,10,0,4,,,,,,,,,0,,,55,0
21970,note_on,0,0,4,,,,,,,,,0,,,60,60
21980,note_on,0,0,4,,,,,,,,,0,,,55,60
21980,note_on,10,0,4,,,,,,,,,0,,,60,0
21985,control_change,55,0,5,,,,,,,,,0,64,0,,
21990,note_on,0,0,1,,,,,,,,,0,,,67,70
21990,note_on,0,0,4,,,,,,,,,0,,,63,70
21990,note_on,0,0,4,,,,,,,,,0,,,64,0
21990,note_on,0,0,4,,,,,,,,,0,,,60,60
21990,note_on,10,0,4,,,,,,,,,0,,,55,0
21990,control_change,5,0,5,,,,,,,,,0,64,127,,
21990,note_on,60,0,1,,,,,,,,,0,,,79,70
22000,note_on,0,0,4,,,,,,,,,0,,,55,60
22000,note_on,10,0,4,,,,,,,,,0,,,60,0
22010,note_on,10,0,4,,,,,,,,,0,,,55,0
22010,note_on,0,0,4,,,,,,,,,0,,,60,60
22020,note_on,10,0,4,,,,,,,,,0,,,60,0
22020,note_on,0,0,4,,,,,,,,,0,,,55,60
22030,note_on,0,0,4,,,,,,,,,0,,,60,60
22030,note_on,10,0,4,,,,,,,,,0,,,55,0
22040,note_on,0,0,4,,,,,,,,,0,,,55,60
22040,note_on,10,0,4,,,,,,,,,0,,,60,0
22045,control_change,55,0,5,,,,,,,,,0,64,0,,
22050,note_on,10,0,4,,,,,,,,,0,,,63,0
22050,note_on,60,0,1,,,,,,,,,0,,,67,0
22050,control_change,5,0,5,,,,,,,,,0,64,127,,
22050,note_on,0,0,1,,,,,,,,,0,,,79,0
22050,note_on,0,0,1,,,,,,,,,0,,,78,70
22050,note_on,0,0,1,,,,,,,,,0,,,66,70
22050,note_on,0,0,4,,,,,,,,,0,,,57,60
22060,note_on,10,0,4,,,,,,,,,0,,,57,0
22060,note_on,0,0,4,,,,,,,,,0,,,60,60
22070,note_on,0,0,4,,,,,,,,,0,,,57,60
22070,note_on,10,0,4,,,,,,,,,0,,,60,0
22080,note_on,10,0,4,,,,,,,,,0,,,57,0
22080,note_on,0,0,4,,,,,,,,,0,,,60,60
22090,note_on,0,0,4,,,,,,,,,0,,,57,60
22090,note_on,10,0,4,,,,,,,,,0,,,60,0
22100,note_on,10,0,4,,,,,,,,,0,,,57,0
22100,note_on,0,0,4,,,,,,,,,0,,,60,60
22105,control_change,55,0,5,,,,,,,,,0,64,0,,
22110,control_change,5,0,5,,,,,,,,,0,64,127,,
22110,note_on,10,0,4,,,,,,,,,0,,,60,0
22110,note_on,0,0,4,,,,,,,,,0,,,57,60
22120,note_on,0,0,4,,,,,,,,,0,,,60,60
22120,note_on,10,0,4,,,,,,,,,0,,,57,0
22130,note_on,10,0,4,,,,,,,,,0,,,60,0
22130,note_on,0,0,4,,,,,,,,,0,,,57,60
22140,note_on,0,0,1,,,,,,,,,0,,,75,70
22140,note_on,10,0,4,,,,,,,,,0,,,57,0
22140,note_on,0,0,4,,,,,,,,,0,,,60,60
22140,note_on,0,0,1,,,,,,,,,0,,,63,70
22140,note_on,90,0,1,,,,,,,,,0,,,66,0
22140,note_on,0,0,1,,,,,,,,,0,,,78,0
22150,note_on,10,0,4,,,,,,,,,0,,,60,0
22150,note_on,0,0,4,,,,,,,,,0,,,57,60
22160,note_on,0,0,4,,,,,,,,,0,,,60,60
22160,note_on,10,0,4,,,,,,,,,0,,,57,0
22165,control_change,55,0,5,,,,,,,,,0,64,0,,
22170,note_on,30,0,1,,,,,,,,,0,,,63,0
22170,note_on,0,0,4,,,,,,,,,0,,,46,60
22170,note_on,10,0,4,,,,,,,,,0,,,60,0
22170,note_on,0,0,4,,,,,,,,,0,,,55,0
22170,note_on,0,0,4,,,,,,,,,0,,,55,70
22170,note_on,0,0,1,,,,,,,,,0,,,75,0
22170,note_on,0,0,1,,,,,,,,,0,,,74,70
22170,control_change,5,0,5,,,,,,,,,0,64,0,,
22170,note_on,0,0,1,,,,,,,,,0,,,62,70
22175,control_change,5,0,5,,,,,,,,,0,64,127,,
22180,note_on,0,0,4,,,,,,,,,0,,,43,60
22180,note_on,10,0,4,,,,,,,,,0,,,46,0
22190,note_on,0,0,4,,,,,,,,,0,,,46,60
22190,note_on,10,0,4,,,,,,,,,0,,,43,0
22200,note_on,0,0,4,,,,,,,,,0,,,43,60
22200,note_on,10,0,4,,,,,,,,,0,,,46,0
22210,note_on,0,0,4,,,,,,,,,0,,,46,60
22210,note_on,10,0,4,,,,,,,,,0,,,43,0
22220,note_on,0,0,4,,,,,,,,,0,,,43,60
22220,note_on,10,0,4,,,,,,,,,0,,,46,0
22230,note_on,0,0,1,,,,,,,,,0,,,62,70
22230,note_on,10,0,4,,,,,,,,,0,,,43,0
22230,control_change,55,0,5,,,,,,,,,0,64,0,,
22230,note_on,0,0,4,,,,,,,,,0,,,47,60
22230,note_on,0,0,4,,,,,,,,,0,,,53,70
22230,note_on,0,0,4,,,,,,,,,0,,,55,0
22230,note_on,60,0,1,,,,,,,,,0,,,62,0
22230,note_on,0,0,1,,,,,,,,,0,,,74,70
22230,note_on,0,0,1,,,,,,,,,0,,,74,0
22230,note_on,0,0,1,,,,,,,,,0,,,67,70
22235,control_change,5,0,5,,,,,,,,,0,64,127,,
22240,note_on,0,0,4,,,,,,,,,0,,,43,60
22240,note_on,10,0,4,,,,,,,,,0,,,47,0
22250,note_on,0,0,4,,,,,,,,,0,,,47,60
22250,note_on,10,0,4,,,,,,,,,0,,,43,0
22260,note_on,10,0,4,,,,,,,,,0,,,47,0
22260,note_on,0,0,4,,,,,,,,,0,,,43,60
22270,note_on,10,0,4,,,,,,,,,0,,,43,0
22270,note_on,0,0,4,,,,,,,,,0,,,47,60
22280,note_on,10,0,4,,,,,,,,,0,,,47,0
22280,note_on,0,0,4,,,,,,,,,0,,,43,60
22290,control_change,55,0,5,,,,,,,,,0,64,0,,
22290,note_on,0,0,4,,,,,,,,,0,,,55,70
22290,note_on,0,0,1,,,,,,,,,0,,,62,70
22290,note_on,0,0,1,,,,,,,,,0,,,67,0
22290,note_on,0,0,1,,,,,,,,,0,,,67,70
22290,note_on,0,0,4,,,,,,,,,0,,,53,0
22290,note_on,0,0,4,,,,,,,,,0,,,52,60
22290,note_on,60,0,1,,,,,,,,,0,,,62,0
22290,note_on,0,0,1,,,,,,,,,0,,,74,70
22290,note_on,0,0,1,,,,,,,,,0,,,74,0
22290,note_on,10,0,4,,,,,,,,,0,,,43,0
22295,control_change,5,0,5,,,,,,,,,0,64,127,,
22300,note_on,0,0,4,,,,,,,,,0,,,43,60
22300,note_on,10,0,4,,,,,,,,,0,,,52,0
22310,note_on,0,0,4,,,,,,,,,0,,,52,60
22310,note_on,10,0,4,,,,,,,,,0,,,43,0
22320,note_on,0,0,4,,,,,,,,,0,,,43,60
22320,note_on,10,0,4,,,,,,,,,0,,,52,0
22330,note_on,0,0,4,,,,,,,,,0,,,52,60
22330,note_on,10,0,4,,,,,,,,,0,,,43,0
22340,note_on,10,0,4,,,,,,,,,0,,,52,0
22340,note_on,0,0,4,,,,,,,,,0,,,43,60
22350,control_change,55,0,5,,,,,,,,,0,64,0,,
22350,note_on,10,0,4,,,,,,,,,0,,,43,0
22350,note_on,0,0,4,,,,,,,,,0,,,52,60
22355,control_change,5,0,5,,,,,,,,,0,64,127,,
22360,note_on,10,0,4,,,,,,,,,0,,,52,0
22360,note_on,0,0,4,,,,,,,,,0,,,43,60
22370,note_on,10,0,4,,,,,,,,,0,,,43,0
22370,note_on,0,0,4,,,,,,,,,0,,,52,60
22380,note_on,0,0,4,,,,,,,,,0,,,43,60
22380,note_on,10,0,4,,,,,,,,,0,,,52,0
22390,note_on,0,0,4,,,,,,,,,0,,,52,60
22390,note_on,10,0,4,,,,,,,,,0,,,43,0
22400,note_on,0,0,4,,,,,,,,,0,,,43,60
22400,note_on,10,0,4,,,,,,,,,0,,,52,0
22410,note_on,10,0,4,,,,,,,,,0,,,43,0
22410,note_on,0,0,4,,,,,,,,,0,,,51,60
22410,note_on,0,0,4,,,,,,,,,0,,,55,0
22410,note_on,0,0,4,,,,,,,,,0,,,55,70
22410,control_change,55,0,5,,,,,,,,,0,64,0,,
22415,control_change,5,0,5,,,,,,,,,0,64,127,,
22420,note_on,10,0,4,,,,,,,,,0,,,51,0
22420,note_on,0,0,4,,,,,,,,,0,,,43,60
22430,note_on,10,0,4,,,,,,,,,0,,,43,0
22430,note_on,0,0,4,,,,,,,,,0,,,51,60
22440,note_on,10,0,4,,,,,,,,,0,,,51,0
22440,note_on,0,0,4,,,,,,,,,0,,,43,60
22450,note_on,10,0,4,,,,,,,,,0,,,43,0
22450,note_on,0,0,4,,,,,,,,,0,,,51,60
22460,note_on,0,0,4,,,,,,,,,0,,,43,60
22460,note_on,10,0,4,,,,,,,,,0,,,51,0
22470,note_on,0,0,1,,,,,,,,,0,,,72,70
22470,note_on,0,0,1,,,,,,,,,0,,,74,0
22470,note_on,0,0,1,,,,,,,,,0,,,60,70
22470,note_on,180,0,1,,,,,,,,,0,,,62,0
22470,note_on,0,0,1,,,,,,,,,0,,,67,0
22470,note_on,0,0,1,,,,,,,,,0,,,67,70
22470,control_change,55,0,5,,,,,,,,,0,64,0,,
22470,note_on,10,0,4,,,,,,,,,0,,,43,0
22470,note_on,0,0,4,,,,,,,,,0,,,51,60
22475,control_change,5,0,5,,,,,,,,,0,64,127,,
22480,note_on,0,0,4,,,,,,,,,0,,,43,60
22480,note_on,10,0,4,,,,,,,,,0,,,51,0
22490,note_on,10,0,4,,,,,,,,,0,,,43,0
22490,note_on,0,0,4,,,,,,,,,0,,,51,60
22500,note_on,10,0,4,,,,,,,,,0,,,51,0
22500,note_on,0,0,4,,,,,,,,,0,,,43,60
22510,note_on,10,0,4,,,,,,,,,0,,,43,0
22510,note_on,0,0,4,,,,,,,,,0,,,51,60
22520,note_on,10,0,4,,,,,,,,,0,,,51,0
22520,note_on,0,0,4,,,,,,,,,0,,,43,60
22530,control_change,0,0,5,,,,,,,,,0,64,127,,
22530,set_tempo,0,1,0,,,,,,1504136,,,,,,,
22530,note_on,0,0,4,,,,,,,,,0,,,43,60
22530,key_signature,2520,1,0,,,,,G,,,,,,,,
22530,note_on,0,0,1,,,,,,,,,0,,,59,60
22530,note_on,0,0,1,,,,,,,,,0,,,67,0
22530,note_on,0,0,1,,,,,,,,,0,,,67,60
22530,note_on,0,0,1,,,,,,,,,0,,,72,0
22530,note_on,60,0,1,,,,,,,,,0,,,60,0
22530,note_on,0,0,4,,,,,,,,,0,,,55,0
22530,control_change,55,0,5,,,,,,,,,0,64,0,,
22530,note_on,10,0,4,,,,,,,,,0,,,43,0
22532,note_on,2,0,4,,,,,,,,,0,,,50,60
22534,note_on,2,0,4,,,,,,,,,0,,,55,60
22540,note_on,10,0,1,,,,,,,,,0,,,67,0
22540,note_on,0,0,1,,,,,,,,,0,,,71,60
22540,note_on,0,0,1,,,,,,,,,0,,,59,0
22550,note_on,10,0,1,,,,,,,,,0,,,71,0
22550,note_on,0,0,1,,,,,,,,,0,,,59,61
22550,note_on,0,0,1,,,,,,,,,0,,,67,61
22551,set_tempo,21,1,0,,,,,,1515534,,,,,,,
22560,note_on,0,0,1,,,,,,,,,0,,,71,61
22560,note_on,0,0,1,,,,,,,,,0,,,59,0
22560,note_on,10,0,1,,,,,,,,,0,,,67,0
22568,set_tempo,17,1,0,,,,,,1527106,,,,,,,
22570,note_on,0,0,1,,,,,,,,,0,,,59,62
22570,note_on,10,0,1,,,,,,,,,0,,,71,0
22570,note_on,0,0,1,,,,,,,,,0,,,67,62
22580,note_on,0,0,1,,,,,,,,,0,,,71,62
22580,note_on,10,0,1,,,,,,,,,0,,,67,0
22580,note_on,0,0,1,,,,,,,,,0,,,59,0
22585,control_change,55,0,5,,,,,,,,,0,64,0,,
22585,set_tempo,17,1,0,,,,,,1538856,,,,,,,
22590,note_on,0,0,4,,,,,,,,,0,,,43,0
22590,note_on,0,0,1,,,,,,,,,0,,,59,63
22590,note_on,56,0,4,,,,,,,,,0,,,55,0
22590,note_on,0,0,4,,,,,,,,,0,,,50,0
22590,note_on,0,0,4,,,,,,,,,0,,,47,83
22590,note_on,0,0,4,,,,,,,,,0,,,43,83
22590,note_on,0,0,4,,,,,,,,,0,,,55,83
22590,control_change,5,0,5,,,,,,,,,0,64,127,,
22590,note_on,0,0,1,,,,,,,,,0,,,67,83
22590,note_on,10,0,1,,,,,,,,,0,,,71,0
22600,note_on,10,0,1,,,,,,,,,0,,,59,0
22600,note_on,0,0,1,,,,,,,,,0,,,71,64
22607,set_tempo,22,1,0,,,,,,1550788,,,,,,,
22610,note_on,10,0,1,,,,,,,,,0,,,71,0
22610,note_on,0,0,1,,,,,,,,,0,,,59,64
22610,note_on,0,0,1,,,,,,,,,0,,,67,64
22620,note_on,0,0,1,,,,,,,,,0,,,71,65
22620,note_on,0,0,1,,,,,,,,,0,,,67,0
22620,note_on,10,0,1,,,,,,,,,0,,,59,0
22624,set_tempo,17,1,0,,,,,,1562907,,,,,,,
22630,note_on,10,0,1,,,,,,,,,0,,,71,0
22630,note_on,0,0,1,,,,,,,,,0,,,67,65
22630,note_on,0,0,1,,,,,,,,,0,,,59,65
22640,note_on,10,0,1,,,,,,,,,0,,,59,0
22640,note_on,0,0,1,,,,,,,,,0,,,71,66
22640,note_on,0,0,1,,,,,,,,,0,,,67,0
22641,set_tempo,17,1,0,,,,,,1575217,,,,,,,
22645,control_change,55,0,5,,,,,,,,,0,64,0,,
22650,note_on,0,0,1,,,,,,,,,0,,,67,0
22650,note_on,0,0,1,,,,,,,,,0,,,59,67
22650,note_on,0,0,1,,,,,,,,,0,,,67,67
22650,note_on,0,0,1,,,,,,,,,0,,,66,87
22650,note_on,0,0,4,,,,,,,,,0,,,54,87
22650,note_on,0,0,4,,,,,,,,,0,,,47,87
22650,note_on,0,0,4,,,,,,,,,0,,,47,0
22650,note_on,0,0,4,,,,,,,,,0,,,43,0
22650,note_on,0,0,4,,,,,,,,,0,,,42,87
22650,note_on,10,0,1,,,,,,,,,0,,,71,0
22650,control_change,5,0,5,,,,,,,,,0,64,127,,
22650,note_on,60,0,4,,,,,,,,,0,,,55,0
22658,set_tempo,17,1,0,,,,,,1587722,,,,,,,
22660,note_on,10,0,1,,,,,,,,,0,,,67,0
22660,note_on,0,0,1,,,,,,,,,0,,,59,0
22660,note_on,0,0,1,,,,,,,,,0,,,71,67
22670,note_on,10,0,1,,,,,,,,,0,,,71,0
22670,note_on,0,0,1,,,,,,,,,0,,,67,68
22670,note_on,0,0,1,,,,,,,,,0,,,59,68
22680,note_on,10,0,1,,,,,,,,,0,,,67,0
22680,set_tempo,22,1,0,,,,,,1600427,,,,,,,
22680,note_on,0,0,1,,,,,,,,,0,,,71,68
22680,note_on,0,0,1,,,,,,,,,0,,,59,0
22690,note_on,10,0,1,,,,,,,,,0,,,71,0
22690,note_on,0,0,1,,,,,,,,,0,,,67,69
22690,note_on,0,0,1,,,,,,,,,0,,,59,69
22697,set_tempo,17,1,0,,,,,,1613337,,,,,,,
22700,note_on,0,0,1,,,,,,,,,0,,,71,69
22700,note_on,10,0,1,,,,,,,,,0,,,67,0
22700,note_on,0,0,1,,,,,,,,,0,,,59,0
22705,control_change,55,0,5,,,,,,,,,0,64,0,,
22710,note_on,0,0,4,,,,,,,,,0,,,52,90
22710,note_on,0,0,4,,,,,,,,,0,,,40,90
22710,note_on,0,0,1,,,,,,,,,0,,,64,90
22710,note_on,0,0,1,,,,,,,,,0,,,66,0
22710,control_change,5,0,5,,,,,,,,,0,64,127,,
22710,note_on,60,0,4,,,,,,,,,0,,,54,0
22710,note_on,0,0,4,,,,,,,,,0,,,42,0
22710,note_on,0,0,1,,,,,,,,,0,,,59,70
22710,note_on,0,0,4,,,,,,,,,0,,,47,90
22710,note_on,10,0,1,,,,,,,,,0,,,71,0
22710,note_on,0,0,4,,,,,,,,,0,,,47,0
22714,set_tempo,17,1,0,,,,,,1626457,,,,,,,
22720,note_on,10,0,1,,,,,,,,,0,,,59,0
22720,note_on,0,0,1,,,,,,,,,0,,,71,71
22730,note_on,10,0,1,,,,,,,,,0,,,71,0
22730,note_on,0,0,1,,,,,,,,,0,,,59,71
22730,note_on,0,0,1,,,,,,,,,0,,,67,71
22735,set_tempo,21,1,0,,,,,,1639792,,,,,,,
22740,note_on,0,0,1,,,,,,,,,0,,,71,72
22740,note_on,0,0,1,,,,,,,,,0,,,59,0
22740,note_on,10,0,1,,,,,,,,,0,,,67,0
22750,note_on,0,0,1,,,,,,,,,0,,,59,72
22750,note_on,0,0,1,,,,,,,,,0,,,67,72
22750,note_on,10,0,1,,,,,,,,,0,,,71,0
22752,set_tempo,17,1,0,,,,,,1653348,,,,,,,
22760,note_on,0,0,1,,,,,,,,,0,,,59,0
22760,note_on,10,0,1,,,,,,,,,0,,,67,0
22760,note_on,0,0,1,,,,,,,,,0,,,71,73
22765,control_change,55,0,5,,,,,,,,,0,64,0,,
22770,note_on,60,0,4,,,,,,,,,0,,,52,0
22770,note_on,0,0,4,,,,,,,,,0,,,47,94
22770,note_on,0,0,4,,,,,,,,,0,,,47,0
22770,note_on,0,0,4,,,,,,,,,0,,,40,0
22770,note_on,0,0,4,,,,,,,,,0,,,38,94
22770,note_on,0,0,1,,,,,,,,,0,,,67,74
22770,control_change,5,0,5,,,,,,,,,0,64,127,,
22770,note_on,0,0,1,,,,,,,,,0,,,59,74
22770,note_on,0,0,4,,,,,,,,,0,,,50,94
22770,note_on,0,0,1,,,,,,,,,0,,,64,0
22770,note_on,0,0,1,,,,,,,,,0,,,62,94
22770,set_tempo,18,1,0,,,,,,1667130,,,,,,,
22770,note_on,10,0,1,,,,,,,,,0,,,71,0
22780,note_on,0,0,1,,,,,,,,,0,,,59,0
22780,note_on,0,0,1,,,,,,,,,0,,,71,74
22780,note_on,10,0,1,,,,,,,,,0,,,67,0
22787,set_tempo,17,1,0,,,,,,1681143,,,,,,,
22790,note_on,0,0,1,,,,,,,,,0,,,67,75
22790,note_on,0,0,1,,,,,,,,,0,,,59,75
22790,note_on,10,0,1,,,,,,,,,0,,,71,0
22800,note_on,0,0,1,,,,,,,,,0,,,59,0
22800,note_on,0,0,1,,,,,,,,,0,,,71,75
22800,note_on,10,0,1,,,,,,,,,0,,,67,0
22808,set_tempo,21,1,0,,,,,,1695394,,,,,,,
22810,note_on,0,0,1,,,,,,,,,0,,,67,76
22810,note_on,10,0,1,,,,,,,,,0,,,71,0
22810,note_on,0,0,1,,,,,,,,,0,,,59,76
22820,note_on,0,0,1,,,,,,,,,0,,,59,0
22820,note_on,10,0,1,,,,,,,,,0,,,67,0
22820,note_on,0,0,1,,,,,,,,,0,,,71,77
22825,set_tempo,17,1,0,,,,,,1709889,,,,,,,
22825,control_change,55,0,5,,,,,,,,,0,64,0,,
22830,note_on,10,0,1,,,,,,,,,0,,,71,0
22830,control_change,5,0,5,,,,,,,,,0,64,127,,
22830,note_on,60,0,4,,,,,,,,,0,,,50,0
22830,note_on,0,0,4,,,,,,,,,0,,,47,97
22830,note_on,0,0,1,,,,,,,,,0,,,59,97
22830,note_on,0,0,1,,,,,,,,,0,,,62,0
22830,note_on,0,0,1,,,,,,,,,0,,,67,77
22830,note_on,0,0,4,,,,,,,,,0,,,35,97
22830,note_on,0,0,4,,,,,,,,,0,,,38,0
22830,note_on,0,0,4,,,,,,,,,0,,,47,0
22840,note_on,0,0,1,,,,,,,,,0,,,71,78
22840,note_on,10,0,1,,,,,,,,,0,,,67,0
22842,set_tempo,17,1,0,,,,,,1724634,,,,,,,
22850,note_on,0,0,1,,,,,,,,,0,,,67,78
22850,note_on,0,0,1,,,,,,,,,0,,,59,78
22850,note_on,10,0,1,,,,,,,,,0,,,71,0
22860,note_on,10,0,1,,,,,,,,,0,,,67,0
22860,note_on,0,0,1,,,,,,,,,0,,,59,0
22860,note_on,0,0,1,,,,,,,,,0,,,71,79
22864,set_tempo,22,1,0,,,,,,1739635,,,,,,,
22870,note_on,10,0,1,,,,,,,,,0,,,71,0
22870,note_on,0,0,1,,,,,,,,,0,,,67,79
22870,note_on,0,0,1,,,,,,,,,0,,,59,79
22880,note_on,0,0,1,,,,,,,,,0,,,59,0
22880,note_on,0,0,1,,,,,,,,,0,,,71,80
22880,note_on,10,0,1,,,,,,,,,0,,,67,0
22881,set_tempo,17,1,0,,,,,,1754899,,,,,,,
22885,control_change,55,0,5,,,,,,,,,0,64,0,,
22890,note_on,5280,0,2,,,,,,,,,0,,,55,101
22890,note_on,10,0,1,,,,,,,,,0,,,71,0
22890,note_on,0,0,4,,,,,,,,,0,,,43,101
22890,note_on,0,0,4,,,,,,,,,0,,,35,101
22890,note_on,60,0,4,,,,,,,,,0,,,47,0
22890,note_on,0,0,1,,,,,,,,,0,,,59,0
22890,note_on,0,0,4,,,,,,,,,0,,,35,0
22890,control_change,5,0,5,,,,,,,,,0,64,0,,
22890,note_on,0,0,4,,,,,,,,,0,,,31,101
22895,control_change,5,0,5,,,,,,,,,0,64,127,,
22898,set_tempo,17,1,0,,,,,,1770434,,,,,,,
22900,note_on,10,0,2,,,,,,,,,0,,,59,81
22910,note_on,0,0,2,,,,,,,,,0,,,55,82
22910,note_on,10,0,2,,,,,,,,,0,,,59,0
22915,set_tempo,17,1,0,,,,,,1786246,,,,,,,
22920,note_on,0,0,2,,,,,,,,,0,,,59,82
22920,note_on,10,0,2,,,,,,,,,0,,,55,0
22930,note_on,10,0,2,,,,,,,,,0,,,59,0
22930,note_on,0,0,2,,,,,,,,,0,,,55,83
22937,set_tempo,22,1,0,,,,,,1802343,,,,,,,
22940,note_on,10,0,2,,,,,,,,,0,,,55,0
22940,note_on,0,0,2,,,,,,,,,0,,,59,84
22950,note_on,0,0,4,,,,,,,,,0,,,35,104
22950,note_on,0,0,2,,,,,,,,,0,,,54,104
22950,note_on,0,0,4,,,,,,,,,0,,,31,0
22950,note_on,0,0,2,,,,,,,,,0,,,55,0
22950,note_on,0,0,2,,,,,,,,,0,,,55,84
22950,note_on,0,0,4,,,,,,,,,0,,,31,104
22950,note_on,60,0,4,,,,,,,,,0,,,43,0
22950,note_on,0,0,4,,,,,,,,,0,,,35,0
22950,control_change,55,0,5,,,,,,,,,0,64,0,,
22950,note_on,10,0,2,,,,,,,,,0,,,59,0
22950,note_on,0,0,4,,,,,,,,,0,,,42,104
22954,set_tempo,17,1,0,,,,,,1818733,,,,,,,
22955,control_change,5,0,5,,,,,,,,,0,64,127,,
22960,note_on,10,0,2,,,,,,,,,0,,,55,0
22960,note_on,0,0,2,,,,,,,,,0,,,59,85
22970,note_on,10,0,2,,,,,,,,,0,,,59,0
22970,note_on,0,0,2,,,,,,,,,0,,,55,85
22971,set_tempo,17,1,0,,,,,,1835424,,,,,,,
22980,note_on,10,0,2,,,,,,,,,0,,,55,0
22980,note_on,0,0,2,,,,,,,,,0,,,59,86
22990,note_on,0,0,2,,,,,,,,,0,,,55,87
22990,note_on,10,0,2,,,,,,,,,0,,,59,0
22992,set_tempo,21,1,0,,,,,,1852424,,,,,,,
23000,note_on,10,0,2,,,,,,,,,0,,,55,0
23000,note_on,0,0,2,,,,,,,,,0,,,59,87
23010,note_on,0,0,4,,,,,,,,,0,,,35,0
23010,note_on,0,0,4,,,,,,,,,0,,,35,108
23010,note_on,0,0,4,,,,,,,,,0,,,40,108
23010,note_on,0,0,2,,,,,,,,,0,,,52,108
23010,note_on,0,0,2,,,,,,,,,0,,,54,0
23010,note_on,0,0,2,,,,,,,,,0,,,55,88
23010,note_on,60,0,4,,,,,,,,,0,,,42,0
23010,note_on,0,0,4,,,,,,,,,0,,,31,0
23010,note_on,0,0,4,,,,,,,,,0,,,31,108
23010,set_tempo,18,1,0,,,,,,1869741,,,,,,,
23010,note_on,10,0,2,,,,,,,,,0,,,59,0
23010,control_change,55,0,5,,,,,,,,,0,64,0,,
23015,control_change,5,0,5,,,,,,,,,0,64,127,,
23020,note_on,10,0,2,,,,,,,,,0,,,55,0
23020,note_on,0,0,2,,,,,,,,,0,,,59,88
23027,set_tempo,17,1,0,,,,,,1887386,,,,,,,
23030,note_on,0,0,2,,,,,,,,,0,,,55,89
23030,note_on,10,0,2,,,,,,,,,0,,,59,0
23040,note_on,0,0,2,,,,,,,,,0,,,59,89
23040,note_on,10,0,2,,,,,,,,,0,,,55,0
23044,set_tempo,17,1,0,,,,,,1905367,,,,,,,
23050,note_on,0,0,2,,,,,,,,,0,,,55,90
23050,note_on,10,0,2,,,,,,,,,0,,,59,0
23060,note_on,0,0,2,,,,,,,,,0,,,59,91
23060,note_on,10,0,2,,,,,,,,,0,,,55,0
23065,set_tempo,21,1,0,,,,,,1923693,,,,,,,
23070,note_on,0,0,4,,,,,,,,,0,,,31,111
23070,note_on,0,0,4,,,,,,,,,0,,,31,0
23070,note_on,0,0,2,,,,,,,,,0,,,51,111
23070,note_on,0,0,4,,,,,,,,,0,,,39,111
23070,note_on,0,0,2,,,,,,,,,0,,,55,91
23070,note_on,0,0,2,,,,,,,,,0,,,52,0
23070,note_on,60,0,4,,,,,,,,,0,,,40,0
23070,control_change,55,0,5,,,,,,,,,0,64,0,,
23070,note_on,10,0,2,,,,,,,,,0,,,59,0
23070,note_on,0,0,4,,,,,,,,,0,,,35,0
23070,note_on,0,0,4,,,,,,,,,0,,,35,111
23075,control_change,5,0,5,,,,,,,,,0,64,127,,
23080,note_on,10,0,2,,,,,,,,,0,,,55,0
23080,note_on,0,0,2,,,,,,,,,0,,,59,92
23082,set_tempo,17,1,0,,,,,,1942376,,,,,,,
23090,note_on,0,0,2,,,,,,,,,0,,,55,92
23090,note_on,10,0,2,,,,,,,,,0,,,59,0
23100,note_on,0,0,2,,,,,,,,,0,,,59,93
23100,set_tempo,18,1,0,,,,,,1961425,,,,,,,
23100,note_on,10,0,2,,,,,,,,,0,,,55,0
23110,note_on,0,0,2,,,,,,,,,0,,,55,94
23110,note_on,10,0,2,,,,,,,,,0,,,59,0
23120,note_on,0,0,2,,,,,,,,,0,,,59,94
23120,note_on,10,0,2,,,,,,,,,0,,,55,0
23121,set_tempo,21,1,0,,,,,,1980852,,,,,,,
23130,control_change,55,0,5,,,,,,,,,0,64,0,,
23130,note_on,0,0,2,,,,,,,,,0,,,50,115
23130,note_on,0,0,2,,,,,,,,,0,,,51,0
23130,note_on,0,0,2,,,,,,,,,0,,,55,95
23130,note_on,10,0,2,,,,,,,,,0,,,59,0
23130,note_on,60,0,4,,,,,,,,,0,,,39,0
23130,note_on,0,0,4,,,,,,,,,0,,,38,115
23130,note_on,0,0,4,,,,,,,,,0,,,35,115
23130,note_on,0,0,4,,,,,,,,,0,,,35,0
23130,note_on,0,0,4,,,,,,,,,0,,,31,0
23130,note_on,0,0,4,,,,,,,,,0,,,31,115
23135,control_change,5,0,5,,,,,,,,,0,64,127,,
23138,set_tempo,17,1,0,,,,,,2000667,,,,,,,
23140,note_on,0,0,2,,,,,,,,,0,,,59,95
23140,note_on,10,0,2,,,,,,,,,0,,,55,0
23150,note_on,10,0,2,,,,,,,,,0,,,59,0
23150,note_on,0,0,2,,,,,,,,,0,,,55,96
23155,set_tempo,17,1,0,,,,,,2020882,,,,,,,
23160,note_on,0,0,2,,,,,,,,,0,,,59,97
23160,note_on,10,0,2,,,,,,,,,0,,,55,0
23170,note_on,0,0,2,,,,,,,,,0,,,55,97
23170,note_on,10,0,2,,,,,,,,,0,,,59,0
23172,set_tempo,17,1,0,,,,,,2041511,,,,,,,
23180,note_on,0,0,2,,,,,,,,,0,,,59,98
23180,note_on,10,0,2,,,,,,,,,0,,,55,0
23190,note_on,60,0,4,,,,,,,,,0,,,38,0
23190,note_on,0,0,2,,,,,,,,,0,,,50,0
23190,note_on,10,0,2,,,,,,,,,0,,,59,0
23190,note_on,0,0,4,,,,,,,,,0,,,31,118
23190,note_on,0,0,4,,,,,,,,,0,,,35,0
23190,note_on,0,0,4,,,,,,,,,0,,,31,0
23190,control_change,55,0,5,,,,,,,,,0,64,0,,
23190,note_on,0,0,2,,,,,,,,,0,,,55,98
23190,note_on,0,0,4,,,,,,,,,0,,,35,118
23190,note_on,0,0,2,,,,,,,,,0,,,47,118
23194,set_tempo,22,1,0,,,,,,2062564,,,,,,,
23195,control_change,5,0,5,,,,,,,,,0,64,127,,
23200,note_on,10,0,2,,,,,,,,,0,,,55,0
23200,note_on,0,0,2,,,,,,,,,0,,,59,99
23210,note_on,0,0,2,,,,,,,,,0,,,55,99
23210,note_on,10,0,2,,,,,,,,,0,,,59,0
23211,set_tempo,17,1,0,,,,,,2084057,,,,,,,
23220,note_on,0,0,2,,,,,,,,,0,,,59,100
23220,note_on,10,0,2,,,,,,,,,0,,,55,0
23228,set_tempo,17,1,0,,,,,,2106002,,,,,,,
23230,note_on,0,0,2,,,,,,,,,0,,,55,100
23230,note_on,10,0,2,,,,,,,,,0,,,59,0
23240,note_on,0,0,2,,,,,,,,,0,,,59,100
23240,note_on,10,0,2,,,,,,,,,0,,,55,0
23245,set_tempo,17,1,0,,,,,,2128414,,,,,,,
23250,note_on,60,0,4,,,,,,,,,0,,,35,0
23250,marker,0,1,0,,,,,,,,,,,,,
23250,time_signature,5,1,0,23,16,6,8,,,,,,,,,
23250,control_change,55,0,5,,,,,,,,,0,64,0,,
23250,set_tempo,0,1,0,,,,,,750000,,,,,,,
23250,control_change,0,0,5,,,,,,,,,0,64,127,,
23250,note_on,0,0,4,,,,,,,,,0,,,31,0
23250,note_on,0,0,4,,,,,,,,,0,,,31,127
23250,note_on,10,0,2,,,,,,,,,0,,,59,0
23250,note_on,0,0,2,,,,,,,,,0,,,47,0
23385,note_on,0,0,4,,,,,,,,,0,,,35,100
23385,note_on,135,0,4,,,,,,,,,0,,,31,0
23400,note_on,0,0,4,,,,,,,,,0,,,38,100
23400,note_on,15,0,4,,,,,,,,,0,,,35,0
23415,note_on,0,0,4,,,,,,,,,0,,,43,100
23415,note_on,15,0,4,,,,,,,,,0,,,38,0
23430,note_on,15,0,4,,,,,,,,,0,,,43,0
23430,note_on,0,0,4,,,,,,,,,0,,,47,100
23445,note_on,0,0,4,,,,,,,,,0,,,50,100
23445,note_on,15,0,4,,,,,,,,,0,,,47,0
23460,note_on,15,0,4,,,,,,,,,0,,,50,0
23460,note_on,0,0,4,,,,,,,,,0,,,55,100
23475,note_on,15,0,4,,,,,,,,,0,,,55,0
23475,note_on,0,0,4,,,,,,,,,0,,,59,100
23490,note_on,15,0,4,,,,,,,,,0,,,59,0
23490,note_on,0,0,4,,,,,,,,,0,,,62,100
23505,note_on,0,0,4,,,,,,,,,0,,,67,127
23505,control_change,255,0,5,,,,,,,,,0,64,0,,
23505,note_on,15,0,4,,,,,,,,,0,,,62,0
23640,note_on,135,0,4,,,,,,,,,0,,,67,0
23640,note_on,0,0,4,,,,,,,,,0,,,66,100
23655,note_on,0,0,4,,,,,,,,,0,,,64,100
23655,note_on,15,0,4,,,,,,,,,0,,,66,0
23670,note_on,0,0,4,,,,,,,,,0,,,62,100
23670,note_on,15,0,4,,,,,,,,,0,,,64,0
23685,note_on,15,0,4,,,,,,,,,0,,,62,0
23685,note_on,0,0,4,,,,,,,,,0,,,60,100
23700,note_on,0,0,4,,,,,,,,,0,,,59,100
23700,note_on,15,0,4,,,,,,,,,0,,,60,0
23715,note_on,0,0,4,,,,,,,,,0,,,57,100
23715,note_on,15,0,4,,,,,,,,,0,,,59,0
23730,note_on,0,0,4,,,,,,,,,0,,,55,100
23730,note_on,15,0,4,,,,,,,,,0,,,57,0
23745,note_on,0,0,4,,,,,,,,,0,,,54,100
23745,note_on,15,0,4,,,,,,,,,0,,,55,0
23760,note_on,0,0,4,,,,,,,,,0,,,52,100
23760,note_on,15,0,4,,,,,,,,,0,,,54,0
23775,note_on,0,0,4,,,,,,,,,0,,,50,100
23775,note_on,15,0,4,,,,,,,,,0,,,52,0
23790,note_on,0,0,4,,,,,,,,,0,,,48,100
23790,note_on,15,0,4,,,,,,,,,0,,,50,0
23805,note_on,15,0,4,,,,,,,,,0,,,48,0
23805,note_on,0,0,4,,,,,,,,,0,,,47,100
23820,note_on,0,0,4,,,,,,,,,0,,,45,100
23820,note_on,15,0,4,,,,,,,,,0,,,47,0
23835,note_on,0,0,4,,,,,,,,,0,,,43,100
23835,note_on,15,0,4,,,,,,,,,0,,,45,0
23850,note_on,15,0,4,,,,,,,,,0,,,43,0
23850,note_on,0,0,4,,,,,,,,,0,,,42,100
23865,note_on,0,0,4,,,,,,,,,0,,,40,100
23865,note_on,15,0,4,,,,,,,,,0,,,42,0
23880,note_on,15,0,4,,,,,,,,,0,,,40,0
23880,note_on,0,0,4,,,,,,,,,0,,,38,100
23895,note_on,0,0,4,,,,,,,,,0,,,36,100
23895,note_on,15,0,4,,,,,,,,,0,,,38,0
23910,note_on,15,0,4,,,,,,,,,0,,,36,0
23910,note_on,0,0,4,,,,,,,,,0,,,35,100
23925,note_on,15,0,4,,,,,,,,,0,,,35,0
23925,note_on,0,0,4,,,,,,,,,0,,,33,100
23940,time_signature,690,1,0,29,16,6,8,,,,,,,,,
23940,note_on,15,0,4,,,,,,,,,0,,,33,0
23940,note_on,0,0,4,,,,,,,,,0,,,31,127
23940,control_change,435,0,5,,,,,,,,,0,64,127,,
23940,note_on,690,0,2,,,,,,,,,0,,,47,127
24075,note_on,0,0,4,,,,,,,,,0,,,35,100
24075,note_on,0,0,2,,,,,,,,,0,,,50,100
24075,note_on,135,0,2,,,,,,,,,0,,,47,0
24075,note_on,135,0,4,,,,,,,,,0,,,31,0
24090,note_on,15,0,2,,,,,,,,,0,,,50,0
24090,note_on,0,0,2,,,,,,,,,0,,,55,100
24090,note_on,15,0,4,,,,,,,,,0,,,35,0
24090,note_on,0,0,4,,,,,,,,,0,,,38,100
24105,note_on,0,0,2,,,,,,,,,0,,,59,100
24105,note_on,15,0,2,,,,,,,,,0,,,55,0
24105,note_on,0,0,4,,,,,,,,,0,,,43,100
24105,note_on,15,0,4,,,,,,,,,0,,,38,0
24120,note_on,15,0,4,,,,,,,,,0,,,43,0
24120,note_on,1230,0,1,,,,,,,,,0,,,62,100
24120,note_on,15,0,2,,,,,,,,,0,,,59,0
24120,note_on,0,0,4,,,,,,,,,0,,,47,100
24135,note_on,0,0,1,,,,,,,,,0,,,67,100
24135,note_on,15,0,1,,,,,,,,,0,,,62,0
24135,note_on,0,0,4,,,,,,,,,0,,,50,100
24135,note_on,15,0,4,,,,,,,,,0,,,47,0
24150,note_on,0,0,1,,,,,,,,,0,,,71,100
24150,note_on,15,0,1,,,,,,,,,0,,,67,0
24150,note_on,0,0,4,,,,,,,,,0,,,55,100
24150,note_on,15,0,4,,,,,,,,,0,,,50,0
24165,note_on,0,0,4,,,,,,,,,0,,,59,100
24165,note_on,15,0,4,,,,,,,,,0,,,55,0
24165,note_on,0,0,1,,,,,,,,,0,,,74,100
24165,note_on,15,0,1,,,,,,,,,0,,,71,0
24180,note_on,0,0,1,,,,,,,,,0,,,79,100
24180,note_on,15,0,1,,,,,,,,,0,,,74,0
24180,note_on,15,0,4,,,,,,,,,0,,,59,0
24180,note_on,7350,0,3,,,,,,,,,0,,,62,100
24195,note_on,0,0,3,,,,,,,,,0,,,67,100
24195,note_on,15,0,3,,,,,,,,,0,,,62,0
24195,note_on,15,0,1,,,,,,,,,0,,,79,0
24195,note_on,0,0,1,,,,,,,,,0,,,83,100
24210,note_on,15,0,1,,,,,,,,,0,,,83,0
24210,note_on,15,0,3,,,,,,,,,0,,,67,0
24210,note_on,0,0,3,,,,,,,,,0,,,71,100
24210,note_on,0,0,1,,,,,,,,,0,,,86,100
24225,note_on,15,0,1,,,,,,,,,0,,,86,0
24225,note_on,15,0,3,,,,,,,,,0,,,71,0
24225,note_on,0,0,3,,,,,,,,,0,,,74,100
24225,note_on,0,0,1,,,,,,,,,0,,,91,100
24240,control_change,300,0,5,,,,,,,,,0,64,0,,
24240,note_on,0,0,3,,,,,,,,,0,,,79,127
24240,note_on,15,0,3,,,,,,,,,0,,,74,0
24240,note_on,0,0,1,,,,,,,,,0,,,95,127
24240,note_on,15,0,1,,,,,,,,,0,,,91,0
24375,note_on,135,0,1,,,,,,,,,0,,,95,0
24375,note_on,0,0,3,,,,,,,,,0,,,78,100
24375,note_on,135,0,3,,,,,,,,,0,,,79,0
24375,note_on,0,0,1,,,,,,,,,0,,,93,100
24390,note_on,15,0,3,,,,,,,,,0,,,78,0
24390,note_on,15,0,1,,,,,,,,,0,,,93,0
24390,note_on,0,0,1,,,,,,,,,0,,,91,100
24390,note_on,0,0,3,,,,,,,,,0,,,76,100
24405,note_on,0,0,1,,,,,,,,,0,,,90,100
24405,note_on,15,0,3,,,,,,,,,0,,,76,0
24405,note_on,0,0,3,,,,,,,,,0,,,74,100
24405,note_on,15,0,1,,,,,,,,,0,,,91,0
24420,note_on,0,0,1,,,,,,,,,0,,,88,100
24420,note_on,15,0,3,,,,,,,,,0,,,74,0
24420,note_on,15,0,1,,,,,,,,,0,,,90,0
24420,note_on,0,0,3,,,,,,,,,0,,,72,100
24435,note_on,15,0,3,,,,,,,,,0,,,72,0
24435,note_on,0,0,1,,,,,,,,,0,,,86,100
24435,note_on,15,0,1,,,,,,,,,0,,,88,0
24435,note_on,0,0,3,,,,,,,,,0,,,71,100
24450,note_on,15,0,1,,,,,,,,,0,,,86,0
24450,note_on,15,0,3,,,,,,,,,0,,,71,0
24450,note_on,0,0,3,,,,,,,,,0,,,69,100
24450,note_on,0,0,1,,,,,,,,,0,,,84,100
24465,note_on,0,0,3,,,,,,,,,0,,,67,100
24465,note_on,0,0,1,,,,,,,,,0,,,83,100
24465,note_on,15,0,3,,,,,,,,,0,,,69,0
24465,note_on,15,0,1,,,,,,,,,0,,,84,0
24480,note_on,0,0,1,,,,,,,,,0,,,81,100
24480,note_on,0,0,3,,,,,,,,,0,,,66,100
24480,note_on,15,0,3,,,,,,,,,0,,,67,0
24480,note_on,15,0,1,,,,,,,,,0,,,83,0
24495,note_on,15,0,3,,,,,,,,,0,,,66,0
24495,note_on,0,0,1,,,,,,,,,0,,,79,100
24495,note_on,15,0,1,,,,,,,,,0,,,81,0
24495,note_on,0,0,3,,,,,,,,,0,,,64,100
24510,note_on,15,0,3,,,,,,,,,0,,,64,0
24510,note_on,330,0,4,,,,,,,,,0,,,62,100
24510,note_on,0,0,1,,,,,,,,,0,,,78,100
24510,note_on,15,0,1,,,,,,,,,0,,,79,0
24525,note_on,0,0,4,,,,,,,,,0,,,60,100
24525,note_on,15,0,4,,,,,,,,,0,,,62,0
24525,note_on,15,0,1,,,,,,,,,0,,,78,0
24525,note_on,0,0,1,,,,,,,,,0,,,76,100
24540,note_on,0,0,1,,,,,,,,,0,,,74,100
24540,note_on,0,0,4,,,,,,,,,0,,,59,100
24540,note_on,15,0,4,,,,,,,,,0,,,60,0
24540,note_on,15,0,1,,,,,,,,,0,,,76,0
24555,note_on,15,0,1,,,,,,,,,0,,,74,0
24555,note_on,0,0,4,,,,,,,,,0,,,57,100
24555,note_on,0,0,1,,,,,,,,,0,,,72,100
24555,note_on,15,0,4,,,,,,,,,0,,,59,0
24570,note_on,0,0,1,,,,,,,,,0,,,71,100
24570,note_on,0,0,4,,,,,,,,,0,,,55,100
24570,note_on,15,0,4,,,,,,,,,0,,,57,0
24570,note_on,15,0,1,,,,,,,,,0,,,72,0
24585,note_on,15,0,1,,,,,,,,,0,,,71,0
24585,note_on,15,0,4,,,,,,,,,0,,,55,0
24585,note_on,0,0,1,,,,,,,,,0,,,69,100
24585,note_on,0,0,4,,,,,,,,,0,,,54,100
24600,note_on,0,0,1,,,,,,,,,0,,,67,100
24600,note_on,15,0,1,,,,,,,,,0,,,69,0
24600,note_on,15,0,4,,,,,,,,,0,,,54,0
24600,note_on,0,0,4,,,,,,,,,0,,,52,100
24615,note_on,15,0,4,,,,,,,,,0,,,52,0
24615,note_on,0,0,4,,,,,,,,,0,,,50,100
24615,note_on,0,0,1,,,,,,,,,0,,,66,100
24615,note_on,15,0,1,,,,,,,,,0,,,67,0
24630,note_on,0,0,4,,,,,,,,,0,,,48,100
24630,note_on,15,0,4,,,,,,,,,0,,,50,0
24630,note_on,15,0,1,,,,,,,,,0,,,66,0
24630,note_on,510,0,2,,,,,,,,,0,,,64,100
24645,note_on,0,0,4,,,,,,,,,0,,,47,100
24645,note_on,15,0,4,,,,,,,,,0,,,48,0
24645,note_on,0,0,2,,,,,,,,,0,,,62,100
24645,note_on,15,0,2,,,,,,,,,0,,,64,0
24660,note_on,0,0,2,,,,,,,,,0,,,60,100
24660,note_on,15,0,4,,,,,,,,,0,,,47,0
24660,note_on,15,0,2,,,,,,,,,0,,,62,0
24660,note_on,0,0,4,,,,,,,,,0,,,45,100
24675,note_on,0,0,4,,,,,,,,,0,,,43,100
24675,note_on,15,0,2,,,,,,,,,0,,,60,0
24675,note_on,15,0,4,,,,,,,,,0,,,45,0
24675,note_on,0,0,2,,,,,,,,,0,,,59,100
24690,note_on,15,0,2,,,,,,,,,0,,,59,0
24690,note_on,0,0,4,,,,,,,,,0,,,42,100
24690,note_on,15,0,4,,,,,,,,,0,,,43,0
24690,note_on,0,0,2,,,,,,,,,0,,,57,100
24705,note_on,15,0,2,,,,,,,,,0,,,57,0
24705,note_on,0,0,2,,,,,,,,,0,,,55,100
24705,note_on,0,0,4,,,,,,,,,0,,,40,100
24705,note_on,15,0,4,,,,,,,,,0,,,42,0
24720,note_on,15,0,2,,,,,,,,,0,,,55,0
24720,note_on,15,0,4,,,,,,,,,0,,,40,0
24720,note_on,0,0,4,,,,,,,,,0,,,38,100
24720,note_on,0,0,2,,,,,,,,,0,,,54,100
24735,note_on,0,0,2,,,,,,,,,0,,,52,100
24735,note_on,15,0,2,,,,,,,,,0,,,54,0
24735,note_on,0,0,4,,,,,,,,,0,,,36,100
24735,note_on,15,0,4,,,,,,,,,0,,,38,0
24750,note_on,0,0,2,,,,,,,,,0,,,50,100
24750,note_on,15,0,4,,,,,,,,,0,,,36,0
24750,note_on,0,0,4,,,,,,,,,0,,,35,100
24750,note_on,15,0,2,,,,,,,,,0,,,52,0
24765,note_on,15,0,4,,,,,,,,,0,,,35,0
24765,note_on,0,0,4,,,,,,,,,0,,,33,100
24765,note_on,0,0,2,,,,,,,,,0,,,48,100
24765,note_on,15,0,2,,,,,,,,,0,,,50,0
24780,note_on,0,0,4,,,,,,,,,0,,,38,100
24780,note_on,0,0,2,,,,,,,,,0,,,47,100
24780,note_on,15,0,2,,,,,,,,,0,,,48,0
24780,note_on,15,0,4,,,,,,,,,0,,,33,0
24795,note_on,0,0,4,,,,,,,,,0,,,36,100
24795,note_on,15,0,4,,,,,,,,,0,,,38,0
24795,note_on,15,0,2,,,,,,,,,0,,,47,0
24795,note_on,0,0,2,,,,,,,,,0,,,45,100
24810,note_on,0,0,4,,,,,,,,,0,,,35,127
24810,note_on,0,0,4,,,,,,,,,0,,,31,127
24810,note_on,15,0,4,,,,,,,,,0,,,36,0
24810,control_change,570,0,5,,,,,,,,,0,64,127,,
24810,time_signature,870,1,0,31,16,6,8,,,,,,,,,
24810,note_on,15,0,2,,,,,,,,,0,,,45,0
24810,note_on,0,0,2,,,,,,,,,0,,,43,127
24945,note_on,135,0,2,,,,,,,,,0,,,43,0
24945,note_on,0,0,4,,,,,,,,,0,,,31,0
24945,note_on,135,0,4,,,,,,,,,0,,,35,0
24945,note_on,0,0,4,,,,,,,,,0,,,38,100
24945,note_on,0,0,2,,,,,,,,,0,,,47,100
24960,note_on,15,0,2,,,,,,,,,0,,,47,0
24960,note_on,0,0,4,,,,,,,,,0,,,43,100
24960,note_on,15,0,4,,,,,,,,,0,,,38,0
24960,note_on,0,0,2,,,,,,,,,0,,,50,100
24975,note_on,0,0,2,,,,,,,,,0,,,55,100
24975,note_on,15,0,2,,,,,,,,,0,,,50,0
24975,note_on,0,0,4,,,,,,,,,0,,,47,100
24975,note_on,15,0,4,,,,,,,,,0,,,43,0
24990,note_on,15,0,2,,,,,,,,,0,,,55,0
24990,note_on,0,0,2,,,,,,,,,0,,,59,100
24990,note_on,0,0,4,,,,,,,,,0,,,50,100
24990,note_on,15,0,4,,,,,,,,,0,,,47,0
25005,note_on,15,0,4,,,,,,,,,0,,,50,0
25005,note_on,0,0,2,,,,,,,,,0,,,62,100
25005,note_on,15,0,2,,,,,,,,,0,,,59,0
25005,note_on,0,0,4,,,,,,,,,0,,,55,100
25020,note_on,390,0,1,,,,,,,,,0,,,67,100
25020,note_on,15,0,2,,,,,,,,,0,,,62,0
25020,note_on,15,0,4,,,,,,,,,0,,,55,0
25020,note_on,0,0,4,,,,,,,,,0,,,59,100
25035,note_on,525,0,3,,,,,,,,,0,,,62,100
25035,note_on,0,0,1,,,,,,,,,0,,,71,100
25035,note_on,15,0,4,,,,,,,,,0,,,59,0
25035,note_on,15,0,1,,,,,,,,,0,,,67,0
25050,note_on,15,0,3,,,,,,,,,0,,,62,0
25050,note_on,15,0,1,,,,,,,,,0,,,71,0
25050,note_on,0,0,1,,,,,,,,,0,,,74,100
25050,note_on,0,0,3,,,,,,,,,0,,,67,100
25065,note_on,15,0,3,,,,,,,,,0,,,67,0
25065,note_on,0,0,3,,,,,,,,,0,,,71,100
25065,note_on,0,0,1,,,,,,,,,0,,,79,100
25065,note_on,15,0,1,,,,,,,,,0,,,74,0
25080,note_on,0,0,1,,,,,,,,,0,,,83,100
25080,note_on,15,0,3,,,,,,,,,0,,,71,0
25080,note_on,0,0,3,,,,,,,,,0,,,74,100
25080,note_on,15,0,1,,,,,,,,,0,,,79,0
25095,note_on,15,0,3,,,,,,,,,0,,,74,0
25095,note_on,0,0,1,,,,,,,,,0,,,86,100
25095,note_on,15,0,1,,,,,,,,,0,,,83,0
25095,note_on,0,0,3,,,,,,,,,0,,,79,100
25110,note_on,0,0,3,,,,,,,,,0,,,83,100
25110,note_on,15,0,3,,,,,,,,,0,,,79,0
25110,note_on,0,0,1,,,,,,,,,0,,,91,100
25110,note_on,15,0,1,,,,,,,,,0,,,86,0
25125,note_on,15,0,1,,,,,,,,,0,,,91,0
25125,note_on,0,0,3,,,,,,,,,0,,,86,100
25125,note_on,0,0,1,,,,,,,,,0,,,95,100
25125,note_on,15,0,3,,,,,,,,,0,,,83,0
25140,note_on,15,0,3,,,,,,,,,0,,,86,0
25140,note_on,15,0,1,,,,,,,,,0,,,98,127
25140,control_change,330,0,5,,,,,,,,,0,64,0,,
25140,note_on,0,0,3,,,,,,,,,0,,,91,127
25275,note_on,0,0,3,,,,,,,,,0,,,88,100
25275,note_on,135,0,3,,,,,,,,,0,,,91,0
25275,note_on,135,0,1,,,,,,,,,0,,,98,0
25275,note_on,0,0,1,,,,,,,,,0,,,96,100
25275,note_on,0,0,1,,,,,,,,,0,,,95,0
25290,note_on,15,0,1,,,,,,,,,0,,,96,0
25290,note_on,15,0,3,,,,,,,,,0,,,88,0
25290,note_on,0,0,3,,,,,,,,,0,,,86,100
25290,note_on,0,0,1,,,,,,,,,0,,,95,100
25305,note_on,0,0,3,,,,,,,,,0,,,84,100
25305,note_on,0,0,1,,,,,,,,,0,,,93,100
25305,note_on,15,0,3,,,,,,,,,0,,,86,0
25305,note_on,15,0,1,,,,,,,,,0,,,95,0
25320,note_on,0,0,1,,,,,,,,,0,,,91,100
25320,note_on,15,0,1,,,,,,,,,0,,,93,0
25320,note_on,0,0,3,,,,,,,,,0,,,83,100
25320,note_on,15,0,3,,,,,,,,,0,,,84,0
25335,note_on,0,0,3,,,,,,,,,0,,,81,100
25335,note_on,15,0,3,,,,,,,,,0,,,83,0
25335,note_on,15,0,1,,,,,,,,,0,,,91,0
25335,note_on,0,0,1,,,,,,,,,0,,,90,100
25350,note_on,0,0,3,,,,,,,,,0,,,79,100
25350,note_on,15,0,1,,,,,,,,,0,,,90,0
25350,note_on,0,0,1,,,,,,,,,0,,,88,100
25350,note_on,15,0,3,,,,,,,,,0,,,81,0
25365,note_on,0,0,1,,,,,,,,,0,,,86,100
25365,note_on,0,0,3,,,,,,,,,0,,,78,100
25365,note_on,15,0,3,,,,,,,,,0,,,79,0
25365,note_on,15,0,1,,,,,,,,,0,,,88,0
25380,note_on,0,0,3,,,,,,,,,0,,,76,100
25380,note_on,0,0,1,,,,,,,,,0,,,84,100
25380,note_on,15,0,3,,,,,,,,,0,,,78,0
25380,note_on,15,0,1,,,,,,,,,0,,,86,0
25395,note_on,15,0,1,,,,,,,,,0,,,84,0
25395,note_on,15,0,3,,,,,,,,,0,,,76,0
25395,note_on,0,0,1,,,,,,,,,0,,,83,100
25395,note_on,0,0,3,,,,,,,,,0,,,74,100
25410,note_on,15,0,3,,,,,,,,,0,,,74,0
25410,note_on,15,0,1,,,,,,,,,0,,,83,0
25410,note_on,0,0,1,,,,,,,,,0,,,81,100
25410,note_on,0,0,3,,,,,,,,,0,,,72,100
25425,note_on,0,0,3,,,,,,,,,0,,,71,100
25425,note_on,15,0,1,,,,,,,,,0,,,81,0
25425,note_on,0,0,1,,,,,,,,,0,,,79,100
25425,note_on,15,0,3,,,,,,,,,0,,,72,0
25440,note_on,0,0,3,,,,,,,,,0,,,69,100
25440,note_on,0,0,1,,,,,,,,,0,,,78,100
25440,note_on,15,0,3,,,,,,,,,0,,,71,0
25440,note_on,15,0,1,,,,,,,,,0,,,79,0
25455,note_on,0,0,3,,,,,,,,,0,,,67,100
25455,note_on,0,0,1,,,,,,,,,0,,,76,100
25455,note_on,15,0,3,,,,,,,,,0,,,69,0
25455,note_on,15,0,1,,,,,,,,,0,,,78,0
25470,note_on,0,0,1,,,,,,,,,0,,,74,100
25470,note_on,15,0,3,,,,,,,,,0,,,67,0
25470,note_on,15,0,1,,,,,,,,,0,,,76,0
25470,note_on,0,0,3,,,,,,,,,0,,,66,100
25485,note_on,0,0,3,,,,,,,,,0,,,64,100
25485,note_on,15,0,3,,,,,,,,,0,,,66,0
25485,note_on,15,0,1,,,,,,,,,0,,,74,0
25485,note_on,0,0,1,,,,,,,,,0,,,72,100
25500,note_on,15,0,3,,,,,,,,,0,,,64,0
25500,note_on,0,0,1,,,,,,,,,0,,,71,100
25500,note_on,465,0,4,,,,,,,,,0,,,62,100
25500,end_of_track,0,1,3,,,,,,,,,,,,,
25500,note_on,15,0,1,,,,,,,,,0,,,72,0
25515,note_on,15,0,4,,,,,,,,,0,,,62,0
25515,note_on,0,0,1,,,,,,,,,0,,,69,100
25515,note_on,0,0,4,,,,,,,,,0,,,60,100
25515,note_on,15,0,1,,,,,,,,,0,,,71,0
25530,note_on,0,0,1,,,,,,,,,0,,,67,100
25530,note_on,0,0,4,,,,,,,,,0,,,59,100
25530,note_on,15,0,1,,,,,,,,,0,,,69,0
25530,note_on,15,0,4,,,,,,,,,0,,,60,0
25545,note_on,15,0,1,,,,,,,,,0,,,67,0
25545,note_on,0,0,1,,,,,,,,,0,,,66,100
25545,note_on,15,0,4,,,,,,,,,0,,,59,0
25545,note_on,0,0,4,,,,,,,,,0,,,57,100
25560,note_on,540,0,2,,,,,,,,,0,,,64,100
25560,note_on,15,0,1,,,,,,,,,0,,,66,0
25560,note_on,0,0,4,,,,,,,,,0,,,55,100
25560,note_on,15,0,4,,,,,,,,,0,,,57,0
25575,note_on,15,0,2,,,,,,,,,0,,,64,0
25575,note_on,0,0,4,,,,,,,,,0,,,54,100
25575,note_on,0,0,2,,,,,,,,,0,,,62,100
25575,note_on,15,0,4,,,,,,,,,0,,,55,0
25590,note_on,15,0,4,,,,,,,,,0,,,54,0
25590,note_on,0,0,2,,,,,,,,,0,,,60,100
25590,note_on,15,0,2,,,,,,,,,0,,,62,0
25590,note_on,0,0,4,,,,,,,,,0,,,52,100
25605,note_on,0,0,2,,,,,,,,,0,,,59,100
25605,note_on,15,0,4,,,,,,,,,0,,,52,0
25605,note_on,15,0,2,,,,,,,,,0,,,60,0
25605,note_on,0,0,4,,,,,,,,,0,,,50,100
25620,note_on,15,0,4,,,,,,,,,0,,,50,0
25620,note_on,15,0,2,,,,,,,,,0,,,59,0
25620,note_on,0,0,2,,,,,,,,,0,,,57,100
25620,note_on,0,0,4,,,,,,,,,0,,,48,100
25635,note_on,0,0,4,,,,,,,,,0,,,47,100
25635,note_on,0,0,2,,,,,,,,,0,,,55,100
25635,note_on,15,0,4,,,,,,,,,0,,,48,0
25635,note_on,15,0,2,,,,,,,,,0,,,57,0
25650,note_on,15,0,2,,,,,,,,,0,,,55,0
25650,note_on,0,0,4,,,,,,,,,0,,,45,100
25650,note_on,15,0,4,,,,,,,,,0,,,47,0
25650,note_on,0,0,2,,,,,,,,,0,,,54,100
25665,note_on,0,0,2,,,,,,,,,0,,,52,100
25665,note_on,15,0,4,,,,,,,,,0,,,45,0
25665,note_on,0,0,4,,,,,,,,,0,,,43,100
25665,note_on,15,0,2,,,,,,,,,0,,,54,0
25680,note_on,0,0,4,,,,,,,,,0,,,42,100
25680,note_on,0,0,2,,,,,,,,,0,,,50,100
25680,note_on,15,0,4,,,,,,,,,0,,,43,0
25680,note_on,15,0,2,,,,,,,,,0,,,52,0
25695,note_on,0,0,2,,,,,,,,,0,,,48,100
25695,note_on,15,0,2,,,,,,,,,0,,,50,0
25695,note_on,15,0,4,,,,,,,,,0,,,42,0
25695,note_on,0,0,4,,,,,,,,,0,,,40,100
25710,note_on,0,0,2,,,,,,,,,0,,,47,100
25710,note_on,15,0,4,,,,,,,,,0,,,40,0
25710,note_on,0,0,4,,,,,,,,,0,,,38,100
25710,note_on,15,0,2,,,,,,,,,0,,,48,0
25725,note_on,0,0,4,,,,,,,,,0,,,36,100
25725,note_on,15,0,2,,,,,,,,,0,,,47,0
25725,note_on,15,0,4,,,,,,,,,0,,,38,0
25725,note_on,0,0,2,,,,,,,,,0,,,45,100
25740,note_on,0,0,4,,,,,,,,,0,,,31,127
25740,note_on,15,0,2,,,,,,,,,0,,,45,0
25740,note_on,0,0,2,,,,,,,,,0,,,43,127
25740,time_signature,930,1,0,28,16,6,8,,,,,,,,,
25740,note_on,15,0,4,,,,,,,,,0,,,36,0
25740,note_on,0,0,4,,,,,,,,,0,,,35,127
25875,note_on,0,0,2,,,,,,,,,0,,,44,103
25875,note_on,0,0,4,,,,,,,,,0,,,36,103
25875,note_on,135,0,2,,,,,,,,,0,,,43,0
25875,note_on,135,0,4,,,,,,,,,0,,,35,0
25875,note_on,0,0,4,,,,,,,,,0,,,31,0
25890,note_on,0,0,4,,,,,,,,,0,,,37,103
25890,note_on,15,0,2,,,,,,,,,0,,,44,0
25890,note_on,0,0,2,,,,,,,,,0,,,45,103
25890,note_on,15,0,4,,,,,,,,,0,,,36,0
25905,note_on,15,0,2,,,,,,,,,0,,,45,0
25905,note_on,15,0,4,,,,,,,,,0,,,37,0
25905,note_on,0,0,2,,,,,,,,,0,,,46,104
25905,note_on,0,0,4,,,,,,,,,0,,,38,104
25920,note_on,15,0,4,,,,,,,,,0,,,38,0
25920,note_on,0,0,4,,,,,,,,,0,,,39,104
25920,note_on,15,0,2,,,,,,,,,0,,,46,0
25920,note_on,0,0,2,,,,,,,,,0,,,47,104
25935,note_on,15,0,4,,,,,,,,,0,,,39,0
25935,note_on,0,0,2,,,,,,,,,0,,,48,104
25935,note_on,0,0,4,,,,,,,,,0,,,40,104
25935,note_on,15,0,2,,,,,,,,,0,,,47,0
25950,note_on,15,0,2,,,,,,,,,0,,,48,0
25950,note_on,15,0,4,,,,,,,,,0,,,40,0
25950,note_on,0,0,2,,,,,,,,,0,,,49,105
25950,note_on,0,0,4,,,,,,,,,0,,,41,105
25965,note_on,15,0,4,,,,,,,,,0,,,41,0
25965,note_on,15,0,2,,,,,,,,,0,,,49,0
25965,note_on,0,0,4,,,,,,,,,0,,,42,105
25965,note_on,0,0,2,,,,,,,,,0,,,50,105
25980,note_on,15,0,4,,,,,,,,,0,,,42,0
25980,note_on,0,0,2,,,,,,,,,0,,,51,105
25980,note_on,0,0,4,,,,,,,,,0,,,43,105
25980,note_on,15,0,2,,,,,,,,,0,,,50,0
25995,note_on,0,0,2,,,,,,,,,0,,,52,106
25995,note_on,0,0,4,,,,,,,,,0,,,44,106
25995,note_on,15,0,4,,,,,,,,,0,,,43,0
25995,note_on,15,0,2,,,,,,,,,0,,,51,0
26010,note_on,15,0,4,,,,,,,,,0,,,44,0
26010,note_on,0,0,2,,,,,,,,,0,,,53,106
26010,note_on,15,0,2,,,,,,,,,0,,,52,0
26010,note_on,0,0,4,,,,,,,,,0,,,45,106
26025,note_on,0,0,2,,,,,,,,,0,,,54,107
26025,note_on,15,0,2,,,,,,,,,0,,,53,0
26025,note_on,0,0,4,,,,,,,,,0,,,46,107
26025,note_on,15,0,4,,,,,,,,,0,,,45,0
26040,note_on,15,0,2,,,,,,,,,0,,,54,0
26040,note_on,0,0,4,,,,,,,,,0,,,47,107
26040,note_on,0,0,2,,,,,,,,,0,,,55,107
26040,note_on,15,0,4,,,,,,,,,0,,,46,0
26055,note_on,15,0,4,,,,,,,,,0,,,47,0
26055,note_on,0,0,2,,,,,,,,,0,,,56,107
26055,note_on,15,0,2,,,,,,,,,0,,,55,0
26055,note_on,0,0,4,,,,,,,,,0,,,48,107
26070,note_on,0,0,2,,,,,,,,,0,,,57,108
26070,note_on,15,0,2,,,,,,,,,0,,,56,0
26070,note_on,0,0,4,,,,,,,,,0,,,49,108
26070,note_on,15,0,4,,,,,,,,,0,,,48,0
26085,note_on,15,0,2,,,,,,,,,0,,,57,0
26085,note_on,0,0,4,,,,,,,,,0,,,50,108
26085,note_on,0,0,2,,,,,,,,,0,,,58,108
26085,note_on,15,0,4,,,,,,,,,0,,,49,0
26100,note_on,0,0,2,,,,,,,,,0,,,59,108
26100,note_on,0,0,4,,,,,,,,,0,,,51,108
26100,note_on,15,0,4,,,,,,,,,0,,,50,0
26100,note_on,15,0,2,,,,,,,,,0,,,58,0
26115,note_on,15,0,2,,,,,,,,,0,,,59,0
26115,note_on,0,0,4,,,,,,,,,0,,,52,109
26115,note_on,0,0,2,,,,,,,,,0,,,60,109
26115,note_on,15,0,4,,,,,,,,,0,,,51,0
26130,note_on,15,0,2,,,,,,,,,0,,,60,0
26130,note_on,15,0,4,,,,,,,,,0,,,52,0
26130,note_on,0,0,2,,,,,,,,,0,,,61,109
26130,note_on,0,0,4,,,,,,,,,0,,,53,109
26145,note_on,15,0,2,,,,,,,,,0,,,61,0
26145,note_on,0,0,4,,,,,,,,,0,,,54,110
26145,note_on,0,0,2,,,,,,,,,0,,,62,110
26145,note_on,15,0,4,,,,,,,,,0,,,53,0
26160,note_on,0,0,2,,,,,,,,,0,,,63,110
26160,note_on,15,0,2,,,,,,,,,0,,,62,0
26160,note_on,0,0,4,,,,,,,,,0,,,55,110
26160,note_on,15,0,4,,,,,,,,,0,,,54,0
26175,note_on,15,0,4,,,,,,,,,0,,,55,0
26175,note_on,0,0,4,,,,,,,,,0,,,56,110
26175,note_on,0,0,2,,,,,,,,,0,,,64,110
26175,note_on,15,0,2,,,,,,,,,0,,,63,0
26190,note_on,0,0,4,,,,,,,,,0,,,57,111
26190,note_on,0,0,2,,,,,,,,,0,,,65,111
26190,note_on,15,0,4,,,,,,,,,0,,,56,0
26190,note_on,15,0,2,,,,,,,,,0,,,64,0
26205,note_on,15,0,4,,,,,,,,,0,,,57,0
26205,note_on,0,0,4,,,,,,,,,0,,,58,111
26205,note_on,15,0,2,,,,,,,,,0,,,65,0
26205,note_on,0,0,2,,,,,,,,,0,,,66,111
26220,note_on,15,0,4,,,,,,,,,0,,,58,0
26220,note_on,0,0,2,,,,,,,,,0,,,67,111
26220,note_on,0,0,4,,,,,,,,,0,,,59,111
26220,note_on,15,0,2,,,,,,,,,0,,,66,0
26235,note_on,15,0,4,,,,,,,,,0,,,59,0
26235,note_on,0,0,2,,,,,,,,,0,,,66,112
26235,note_on,15,0,2,,,,,,,,,0,,,67,0
26235,note_on,0,0,4,,,,,,,,,0,,,58,112
26250,note_on,15,0,4,,,,,,,,,0,,,58,0
26250,note_on,0,0,2,,,,,,,,,0,,,65,112
26250,note_on,15,0,2,,,,,,,,,0,,,66,0
26250,note_on,0,0,4,,,,,,,,,0,,,57,112
26265,note_on,0,0,4,,,,,,,,,0,,,56,113
26265,note_on,0,0,2,,,,,,,,,0,,,64,113
26265,note_on,15,0,2,,,,,,,,,0,,,65,0
26265,note_on,15,0,4,,,,,,,,,0,,,57,0
26280,note_on,15,0,4,,,,,,,,,0,,,56,0
26280,note_on,0,0,2,,,,,,,,,0,,,63,113
26280,note_on,0,0,4,,,,,,,,,0,,,55,113
26280,note_on,15,0,2,,,,,,,,,0,,,64,0
26295,note_on,0,0,4,,,,,,,,,0,,,54,113
26295,note_on,15,0,4,,,,,,,,,0,,,55,0
26295,note_on,15,0,2,,,,,,,,,0,,,63,0
26295,note_on,0,0,2,,,,,,,,,0,,,62,113
26310,note_on,15,0,2,,,,,,,,,0,,,62,0
26310,note_on,15,0,4,,,,,,,,,0,,,54,0
26310,note_on,0,0,4,,,,,,,,,0,,,53,114
26310,note_on,0,0,2,,,,,,,,,0,,,61,114
26325,note_on,0,0,4,,,,,,,,,0,,,52,114
26325,note_on,0,0,2,,,,,,,,,0,,,60,114
26325,note_on,15,0,2,,,,,,,,,0,,,61,0
26325,note_on,15,0,4,,,,,,,,,0,,,53,0
26340,note_on,0,0,2,,,,,,,,,0,,,59,114
26340,note_on,0,0,4,,,,,,,,,0,,,51,114
26340,note_on,15,0,2,,,,,,,,,0,,,60,0
26340,note_on,15,0,4,,,,,,,,,0,,,52,0
26355,note_on,0,0,4,,,,,,,,,0,,,50,115
26355,note_on,15,0,4,,,,,,,,,0,,,51,0
26355,note_on,15,0,2,,,,,,,,,0,,,59,0
26355,note_on,0,0,2,,,,,,,,,0,,,58,115
26370,note_on,15,0,2,,,,,,,,,0,,,58,0
26370,note_on,0,0,4,,,,,,,,,0,,,49,115
26370,note_on,15,0,4,,,,,,,,,0,,,50,0
26370,note_on,0,0,2,,,,,,,,,0,,,57,115
26385,note_on,15,0,4,,,,,,,,,0,,,49,0
26385,note_on,0,0,2,,,,,,,,,0,,,56,116
26385,note_on,0,0,4,,,,,,,,,0,,,48,116
26385,note_on,15,0,2,,,,,,,,,0,,,57,0
26400,note_on,0,0,2,,,,,,,,,0,,,55,116
26400,note_on,15,0,4,,,,,,,,,0,,,48,0
26400,note_on,0,0,4,,,,,,,,,0,,,47,116
26400,note_on,15,0,2,,,,,,,,,0,,,56,0
26415,note_on,0,0,4,,,,,,,,,0,,,46,116
26415,note_on,0,0,2,,,,,,,,,0,,,54,116
26415,note_on,15,0,4,,,,,,,,,0,,,47,0
26415,note_on,15,0,2,,,,,,,,,0,,,55,0
26430,note_on,0,0,2,,,,,,,,,0,,,53,117
26430,note_on,15,0,2,,,,,,,,,0,,,54,0
26430,note_on,0,0,4,,,,,,,,,0,,,45,117
26430,note_on,15,0,4,,,,,,,,,0,,,46,0
26445,note_on,0,0,2,,,,,,,,,0,,,52,117
26445,note_on,15,0,2,,,,,,,,,0,,,53,0
26445,note_on,0,0,4,,,,,,,,,0,,,44,117
26445,note_on,15,0,4,,,,,,,,,0,,,45,0
26460,note_on,0,0,4,,,,,,,,,0,,,43,117
26460,note_on,15,0,4,,,,,,,,,0,,,44,0
26460,note_on,0,0,2,,,,,,,,,0,,,51,117
26460,note_on,15,0,2,,,,,,,,,0,,,52,0
26475,note_on,15,0,2,,,,,,,,,0,,,51,0
26475,note_on,15,0,4,,,,,,,,,0,,,43,0
26475,note_on,0,0,2,,,,,,,,,0,,,50,118
26475,note_on,0,0,4,,,,,,,,,0,,,42,118
26490,note_on,0,0,4,,,,,,,,,0,,,41,118
26490,note_on,15,0,2,,,,,,,,,0,,,50,0
26490,note_on,15,0,4,,,,,,,,,0,,,42,0
26490,note_on,0,0,2,,,,,,,,,0,,,49,118
26505,note_on,0,0,2,,,,,,,,,0,,,48,119
26505,note_on,15,0,2,,,,,,,,,0,,,49,0
26505,note_on,15,0,4,,,,,,,,,0,,,41,0
26505,note_on,0,0,4,,,,,,,,,0,,,40,119
26520,note_on,15,0,2,,,,,,,,,0,,,48,0
26520,note_on,0,0,2,,,,,,,,,0,,,47,119
26520,note_on,15,0,4,,,,,,,,,0,,,40,0
26520,note_on,0,0,4,,,,,,,,,0,,,39,119
26535,note_on,15,0,2,,,,,,,,,0,,,47,0
26535,note_on,0,0,4,,,,,,,,,0,,,38,119
26535,note_on,15,0,4,,,,,,,,,0,,,39,0
26535,note_on,0,0,2,,,,,,,,,0,,,46,119
26550,note_on,15,0,4,,,,,,,,,0,,,38,0
26550,note_on,0,0,2,,,,,,,,,0,,,45,120
26550,note_on,0,0,4,,,,,,,,,0,,,37,120
26550,note_on,15,0,2,,,,,,,,,0,,,46,0
26565,note_on,15,0,2,,,,,,,,,0,,,45,0
26565,note_on,0,0,4,,,,,,,,,0,,,36,120
26565,note_on,15,0,4,,,,,,,,,0,,,37,0
26565,note_on,0,0,2,,,,,,,,,0,,,44,120
26580,end_of_track,0,1,0,,,,,,,,,,,,,
26580,note_on,0,0,4,,,,,,,,,0,,,31,120
26580,time_signature,840,1,0,4,4,24,8,,,,,,,,,
26580,note_on,0,0,2,,,,,,,,,0,,,43,120
26580,note_on,0,0,4,,,,,,,,,0,,,35,120
26580,note_on,15,0,2,,,,,,,,,0,,,44,0
26580,note_on,15,0,4,,,,,,,,,0,,,36,0
26595,note_on,15,0,4,,,,,,,,,0,,,35,0
26595,note_on,0,0,4,,,,,,,,,0,,,31,0
26595,end_of_track,0,1,2,,,,,,,,,,,,,
26595,note_on,15,0,2,,,,,,,,,0,,,43,0
26700,note_on,0,0,1,,,,,,,,,0,,,95,120
26700,note_on,0,0,4,,,,,,,,,0,,,55,120
26700,note_on,0,0,4,,,,,,,,,0,,,59,120
26700,note_on,0,0,4,,,,,,,,,0,,,62,120
26700,note_on,0,0,1,,,,,,,,,0,,,98,120
26700,note_on,0,0,1,,,,,,,,,0,,,91,120
26700,note_on,105,0,4,,,,,,,,,0,,,67,120
26700,note_on,1140,0,1,,,,,,,,,0,,,103,120
26715,note_on,0,0,1,,,,,,,,,0,,,95,0
26715,note_on,0,0,1,,,,,,,,,0,,,103,0
26715,note_on,15,0,4,,,,,,,,,0,,,55,0
26715,note_on,15,0,1,,,,,,,,,0,,,91,0
26715,end_of_track,0,1,4,,,,,,,,,,,,,
26715,note_on,0,0,4,,,,,,,,,0,,,59,0
26715,note_on,0,0,4,,,,,,,,,0,,,62,0
26715,note_on,0,0,4,,,,,,,,,0,,,67,0
26715,note_on,0,0,1,,,,,,,,,0,,,98,0
26715,end_of_track,0,1,1,,,,,,,,,,,,,
26940,control_change,1800,0,5,,,,,,,,,0,64,127,,
27060,control_change,120,0,5,,,,,,,,,0,64,0,,
27060,end_of_track,0,1,5,,,,,,,,,,,,,
