tick,type,time,meta,track,numerator,denominator,clocks_per_click,notated_32nd_notes_per_beat,key,tempo,port,program,channel,control,value,note,velocity
0,control_change,0,0,1,,,,,,,,,0,7,127,,
0,end_of_track,0,1,7,,,,,,,,,,,,,
0,key_signature,0,1,0,,,,,B,,,,,,,,
0,marker,0,1,0,,,,,,,,,,,,,
0,midi_port,0,1,1,,,,,,,0,,,,,,
0,midi_port,0,1,2,,,,,,,0,,,,,,
0,midi_port,0,1,3,,,,,,,0,,,,,,
0,midi_port,0,1,4,,,,,,,0,,,,,,
0,midi_port,0,1,5,,,,,,,0,,,,,,
0,midi_port,0,1,6,,,,,,,0,,,,,,
0,midi_port,0,1,7,,,,,,,0,,,,,,
0,track_name,0,1,6,,,,,,,,,,,,,
0,program_change,0,0,1,,,,,,,,0,0,,,,
0,program_change,0,0,2,,,,,,,,0,0,,,,
0,program_change,0,0,3,,,,,,,,0,0,,,,
0,program_change,0,0,4,,,,,,,,0,0,,,,
0,program_change,0,0,5,,,,,,,,0,0,,,,
0,set_tempo,0,1,0,,,,,,625000,,,,,,,
0,text,0,1,0,,,,,,,,,,,,,
0,time_signature,0,1,0,6,8,12,8,,,,,,,,,
0,track_name,0,1,0,,,,,,,,,,,,,
0,track_name,0,1,1,,,,,,,,,,,,,
0,track_name,0,1,2,,,,,,,,,,,,,
0,track_name,0,1,3,,,,,,,,,,,,,
0,track_name,0,1,4,,,,,,,,,,,,,
0,track_name,0,1,5,,,,,,,,,,,,,
0,end_of_track,0,1,6,,,,,,,,,,,,,
0,copyright,0,1,0,,,,,,,,,,,,,
0,track_name,0,1,7,,,,,,,,,,,,,
0,control_change,0,0,5,,,,,,,,,0,10,64,,
0,control_change,0,0,1,,,,,,,,,0,10,64,,
0,control_change,0,0,2,,,,,,,,,0,7,127,,
0,control_change,0,0,2,,,,,,,,,0,10,64,,
0,control_change,0,0,3,,,,,,,,,0,7,127,,
0,control_change,0,0,3,,,,,,,,,0,10,64,,
0,control_change,0,0,4,,,,,,,,,0,7,127,,
0,control_change,0,0,4,,,,,,,,,0,10,64,,
0,control_change,0,0,5,,,,,,,,,0,7,127,,
60,note_on,60,0,3,,,,,,,,,0,,,63,60
60,note_on,0,0,3,,,,,,,,,0,,,75,60
60,control_change,60,0,5,,,,,,,,,0,64,127,,
75,note_on,0,0,3,,,,,,,,,0,,,63,0
75,note_on,15,0,3,,,,,,,,,0,,,75,0
120,note_on,45,0,3,,,,,,,,,0,,,63,60
120,note_on,0,0,3,,,,,,,,,0,,,75,60
135,note_on,0,0,3,,,,,,,,,0,,,63,0
135,note_on,15,0,3,,,,,,,,,0,,,75,0
180,note_on,45,0,3,,,,,,,,,0,,,63,60
180,note_on,0,0,3,,,,,,,,,0,,,75,60
195,note_on,15,0,3,,,,,,,,,0,,,75,0
195,note_on,0,0,3,,,,,,,,,0,,,63,0
240,note_on,0,0,1,,,,,,,,,0,,,87,60
240,note_on,240,0,1,,,,,,,,,0,,,99,60
255,note_on,0,0,1,,,,,,,,,0,,,99,0
255,note_on,15,0,1,,,,,,,,,0,,,87,0
300,note_on,45,0,1,,,,,,,,,0,,,99,60
300,note_on,0,0,1,,,,,,,,,0,,,87,60
315,note_on,0,0,1,,,,,,,,,0,,,99,0
315,note_on,15,0,1,,,,,,,,,0,,,87,0
360,note_on,45,0,1,,,,,,,,,0,,,99,60
360,note_on,0,0,1,,,,,,,,,0,,,87,60
375,note_on,15,0,1,,,,,,,,,0,,,87,0
375,note_on,0,0,1,,,,,,,,,0,,,99,0
420,note_on,225,0,3,,,,,,,,,0,,,63,60
420,note_on,0,0,3,,,,,,,,,0,,,75,60
435,note_on,0,0,3,,,,,,,,,0,,,63,0
435,note_on,15,0,3,,,,,,,,,0,,,75,0
480,note_on,45,0,3,,,,,,,,,0,,,63,60
480,note_on,0,0,3,,,,,,,,,0,,,75,60
495,note_on,15,0,3,,,,,,,,,0,,,75,0
495,note_on,0,0,3,,,,,,,,,0,,,63,0
540,note_on,0,0,3,,,,,,,,,0,,,75,60
540,note_on,45,0,3,,,,,,,,,0,,,63,60
555,note_on,15,0,3,,,,,,,,,0,,,75,0
555,note_on,0,0,3,,,,,,,,,0,,,63,0
600,note_on,225,0,1,,,,,,,,,0,,,99,60
600,note_on,0,0,1,,,,,,,,,0,,,87,60
615,note_on,0,0,1,,,,,,,,,0,,,99,0
615,note_on,15,0,1,,,,,,,,,0,,,87,0
660,note_on,0,0,1,,,,,,,,,0,,,87,60
660,note_on,45,0,1,,,,,,,,,0,,,99,60
675,note_on,0,0,1,,,,,,,,,0,,,99,0
675,note_on,15,0,1,,,,,,,,,0,,,87,0
720,note_on,45,0,1,,,,,,,,,0,,,87,60
720,note_on,0,0,1,,,,,,,,,0,,,99,60
735,note_on,15,0,1,,,,,,,,,0,,,99,0
735,note_on,0,0,1,,,,,,,,,0,,,87,0
780,note_on,0,0,3,,,,,,,,,0,,,75,60
780,note_on,225,0,3,,,,,,,,,0,,,63,60
795,note_on,15,0,3,,,,,,,,,0,,,75,0
795,note_on,0,0,3,,,,,,,,,0,,,63,0
840,note_on,0,0,1,,,,,,,,,0,,,87,60
840,note_on,105,0,1,,,,,,,,,0,,,99,60
855,note_on,15,0,1,,,,,,,,,0,,,87,0
855,note_on,0,0,1,,,,,,,,,0,,,99,0
900,note_on,45,0,1,,,,,,,,,0,,,99,60
900,note_on,0,0,1,,,,,,,,,0,,,87,60
915,note_on,15,0,1,,,,,,,,,0,,,87,0
915,note_on,0,0,1,,,,,,,,,0,,,99,0
960,note_on,0,0,3,,,,,,,,,0,,,75,60
960,note_on,165,0,3,,,,,,,,,0,,,63,60
975,note_on,0,0,3,,,,,,,,,0,,,63,0
975,note_on,15,0,3,,,,,,,,,0,,,75,0
1020,note_on,0,0,1,,,,,,,,,0,,,87,60
1020,note_on,105,0,1,,,,,,,,,0,,,99,60
1035,note_on,15,0,1,,,,,,,,,0,,,87,0
1035,note_on,0,0,1,,,,,,,,,0,,,99,0
1080,note_on,45,0,1,,,,,,,,,0,,,99,60
1080,note_on,0,0,1,,,,,,,,,0,,,87,60
1095,note_on,15,0,1,,,,,,,,,0,,,87,0
1095,note_on,0,0,1,,,,,,,,,0,,,99,0
1140,set_tempo,1140,1,0,,,,,,1666667,,,,,,,
1140,control_change,1080,0,5,,,,,,,,,0,64,0,,
1200,set_tempo,60,1,0,,,,,,625000,,,,,,,
1200,note_on,105,0,1,,,,,,,,,0,,,75,70
1215,note_on,15,0,1,,,,,,,,,0,,,75,0
1230,note_on,15,0,1,,,,,,,,,0,,,87,60
1245,note_on,15,0,1,,,,,,,,,0,,,87,0
1260,note_on,15,0,1,,,,,,,,,0,,,87,70
1275,note_on,15,0,1,,,,,,,,,0,,,87,0
1290,note_on,15,0,1,,,,,,,,,0,,,99,60
1305,note_on,15,0,1,,,,,,,,,0,,,99,0
1320,note_on,15,0,1,,,,,,,,,0,,,87,70
1335,note_on,15,0,1,,,,,,,,,0,,,87,0
1350,note_on,15,0,1,,,,,,,,,0,,,99,60
1365,note_on,15,0,1,,,,,,,,,0,,,99,0
1380,note_on,15,0,1,,,,,,,,,0,,,85,70
1395,note_on,15,0,1,,,,,,,,,0,,,85,0
1410,note_on,15,0,1,,,,,,,,,0,,,99,60
1425,note_on,15,0,1,,,,,,,,,0,,,99,0
1440,note_on,15,0,1,,,,,,,,,0,,,83,70
1440,note_on,465,0,3,,,,,,,,,0,,,56,60
1445,note_on,5,0,3,,,,,,,,,0,,,63,60
1450,note_on,5,0,3,,,,,,,,,0,,,71,60
1455,note_on,15,0,1,,,,,,,,,0,,,83,0
1455,note_on,5,0,3,,,,,,,,,0,,,56,0
1460,note_on,5,0,3,,,,,,,,,0,,,63,0
1465,note_on,5,0,3,,,,,,,,,0,,,71,0
1470,note_on,15,0,1,,,,,,,,,0,,,99,60
1485,note_on,15,0,1,,,,,,,,,0,,,99,0
1500,note_on,15,0,1,,,,,,,,,0,,,83,70
1515,note_on,15,0,1,,,,,,,,,0,,,83,0
1530,note_on,15,0,1,,,,,,,,,0,,,99,60
1545,note_on,15,0,1,,,,,,,,,0,,,99,0
1560,note_on,15,0,1,,,,,,,,,0,,,82,70
1575,note_on,15,0,1,,,,,,,,,0,,,82,0
1590,note_on,15,0,1,,,,,,,,,0,,,99,60
1605,note_on,15,0,1,,,,,,,,,0,,,99,0
1620,note_on,155,0,3,,,,,,,,,0,,,59,60
1620,note_on,15,0,1,,,,,,,,,0,,,80,70
1625,note_on,5,0,3,,,,,,,,,0,,,68,60
1630,note_on,5,0,3,,,,,,,,,0,,,75,60
1635,note_on,15,0,1,,,,,,,,,0,,,80,0
1635,note_on,5,0,3,,,,,,,,,0,,,59,0
1640,note_on,5,0,3,,,,,,,,,0,,,68,0
1645,note_on,5,0,3,,,,,,,,,0,,,75,0
1650,note_on,15,0,1,,,,,,,,,0,,,99,60
1665,note_on,15,0,1,,,,,,,,,0,,,99,0
1680,note_on,15,0,1,,,,,,,,,0,,,79,70
1695,note_on,15,0,1,,,,,,,,,0,,,79,0
1710,note_on,15,0,1,,,,,,,,,0,,,99,60
1725,note_on,15,0,1,,,,,,,,,0,,,99,0
1740,note_on,15,0,1,,,,,,,,,0,,,80,70
1755,note_on,15,0,1,,,,,,,,,0,,,80,0
1770,note_on,15,0,1,,,,,,,,,0,,,99,60
1785,note_on,15,0,1,,,,,,,,,0,,,99,0
1800,note_on,155,0,3,,,,,,,,,0,,,63,60
1800,note_on,15,0,1,,,,,,,,,0,,,82,70
1805,note_on,5,0,3,,,,,,,,,0,,,70,60
1810,note_on,5,0,3,,,,,,,,,0,,,79,60
1815,note_on,5,0,3,,,,,,,,,0,,,63,0
1815,note_on,15,0,1,,,,,,,,,0,,,82,0
1820,note_on,5,0,3,,,,,,,,,0,,,70,0
1825,note_on,5,0,3,,,,,,,,,0,,,79,0
1830,note_on,15,0,1,,,,,,,,,0,,,99,60
1845,note_on,15,0,1,,,,,,,,,0,,,99,0
1860,note_on,15,0,1,,,,,,,,,0,,,75,70
1875,note_on,15,0,1,,,,,,,,,0,,,75,0
1890,note_on,15,0,1,,,,,,,,,0,,,99,60
1905,note_on,15,0,1,,,,,,,,,0,,,99,0
1920,note_on,15,0,1,,,,,,,,,0,,,75,70
1935,note_on,15,0,1,,,,,,,,,0,,,75,0
1950,note_on,15,0,1,,,,,,,,,0,,,87,60
1965,note_on,15,0,1,,,,,,,,,0,,,87,0
1980,note_on,15,0,1,,,,,,,,,0,,,76,70
1980,note_on,155,0,3,,,,,,,,,0,,,67,60
1985,note_on,5,0,3,,,,,,,,,0,,,70,60
1995,note_on,10,0,3,,,,,,,,,0,,,67,0
1995,note_on,15,0,1,,,,,,,,,0,,,76,0
2000,note_on,5,0,3,,,,,,,,,0,,,70,0
2010,note_on,15,0,1,,,,,,,,,0,,,87,60
2025,note_on,15,0,1,,,,,,,,,0,,,87,0
2040,note_on,15,0,1,,,,,,,,,0,,,75,70
2055,note_on,15,0,1,,,,,,,,,0,,,75,0
2070,note_on,15,0,1,,,,,,,,,0,,,87,60
2085,note_on,15,0,1,,,,,,,,,0,,,87,0
2100,note_on,15,0,1,,,,,,,,,0,,,73,70
2115,note_on,15,0,1,,,,,,,,,0,,,73,0
2130,note_on,15,0,1,,,,,,,,,0,,,87,60
2145,note_on,15,0,1,,,,,,,,,0,,,87,0
2160,note_on,15,0,1,,,,,,,,,0,,,71,70
2160,note_on,160,0,3,,,,,,,,,0,,,68,60
2175,note_on,15,0,3,,,,,,,,,0,,,68,0
2175,note_on,15,0,1,,,,,,,,,0,,,71,0
2190,note_on,15,0,1,,,,,,,,,0,,,87,60
2205,note_on,15,0,1,,,,,,,,,0,,,87,0
2220,note_on,15,0,1,,,,,,,,,0,,,71,70
2235,note_on,15,0,1,,,,,,,,,0,,,71,0
2250,note_on,15,0,1,,,,,,,,,0,,,87,60
2265,note_on,15,0,1,,,,,,,,,0,,,87,0
2280,note_on,15,0,1,,,,,,,,,0,,,70,70
2295,note_on,15,0,1,,,,,,,,,0,,,70,0
2310,note_on,15,0,1,,,,,,,,,0,,,87,60
2325,note_on,15,0,1,,,,,,,,,0,,,87,0
2340,note_on,165,0,3,,,,,,,,,0,,,59,60
2340,note_on,15,0,1,,,,,,,,,0,,,68,70
2345,note_on,5,0,3,,,,,,,,,0,,,62,60
2350,note_on,5,0,3,,,,,,,,,0,,,65,60
2355,note_on,15,0,1,,,,,,,,,0,,,68,0
2355,note_on,5,0,3,,,,,,,,,0,,,59,0
2360,note_on,5,0,3,,,,,,,,,0,,,62,0
2365,note_on,5,0,3,,,,,,,,,0,,,65,0
2370,note_on,15,0,1,,,,,,,,,0,,,87,60
2385,note_on,15,0,1,,,,,,,,,0,,,87,0
2400,note_on,15,0,1,,,,,,,,,0,,,67,70
2415,note_on,15,0,1,,,,,,,,,0,,,67,0
2430,note_on,15,0,1,,,,,,,,,0,,,87,60
2445,note_on,15,0,1,,,,,,,,,0,,,87,0
2460,note_on,15,0,1,,,,,,,,,0,,,68,70
2475,note_on,15,0,1,,,,,,,,,0,,,68,0
2490,note_on,15,0,1,,,,,,,,,0,,,87,60
2505,note_on,15,0,1,,,,,,,,,0,,,87,0
2520,note_on,15,0,1,,,,,,,,,0,,,70,70
2520,note_on,155,0,3,,,,,,,,,0,,,63,60
2525,note_on,5,0,3,,,,,,,,,0,,,67,60
2535,note_on,10,0,3,,,,,,,,,0,,,63,0
2535,note_on,15,0,1,,,,,,,,,0,,,70,0
2540,note_on,5,0,3,,,,,,,,,0,,,67,0
2550,note_on,15,0,1,,,,,,,,,0,,,87,60
2565,note_on,15,0,1,,,,,,,,,0,,,87,0
2580,note_on,15,0,1,,,,,,,,,0,,,63,70
2595,note_on,15,0,1,,,,,,,,,0,,,63,0
2610,note_on,15,0,1,,,,,,,,,0,,,75,60
2625,note_on,15,0,1,,,,,,,,,0,,,75,0
2640,note_on,15,0,1,,,,,,,,,0,,,75,60
2655,note_on,15,0,1,,,,,,,,,0,,,75,0
2670,note_on,15,0,1,,,,,,,,,0,,,87,60
2685,note_on,15,0,1,,,,,,,,,0,,,87,0
2700,note_on,15,0,1,,,,,,,,,0,,,87,70
2715,note_on,15,0,1,,,,,,,,,0,,,87,0
2730,note_on,15,0,1,,,,,,,,,0,,,99,60
2745,note_on,15,0,1,,,,,,,,,0,,,99,0
2760,note_on,15,0,1,,,,,,,,,0,,,87,70
2775,note_on,15,0,1,,,,,,,,,0,,,87,0
2790,note_on,15,0,1,,,,,,,,,0,,,99,60
2805,note_on,15,0,1,,,,,,,,,0,,,99,0
2820,note_on,15,0,1,,,,,,,,,0,,,85,70
2835,note_on,15,0,1,,,,,,,,,0,,,85,0
2850,note_on,15,0,1,,,,,,,,,0,,,99,60
2865,note_on,15,0,1,,,,,,,,,0,,,99,0
2880,note_on,340,0,3,,,,,,,,,0,,,56,60
2880,note_on,15,0,1,,,,,,,,,0,,,83,70
2885,note_on,5,0,3,,,,,,,,,0,,,63,60
2890,note_on,5,0,3,,,,,,,,,0,,,71,60
2895,note_on,5,0,3,,,,,,,,,0,,,56,0
2895,note_on,15,0,1,,,,,,,,,0,,,83,0
2900,note_on,5,0,3,,,,,,,,,0,,,63,0
2905,note_on,5,0,3,,,,,,,,,0,,,71,0
2910,note_on,15,0,1,,,,,,,,,0,,,99,60
2925,note_on,15,0,1,,,,,,,,,0,,,99,0
2940,note_on,15,0,1,,,,,,,,,0,,,83,70
2955,note_on,15,0,1,,,,,,,,,0,,,83,0
2970,note_on,15,0,1,,,,,,,,,0,,,99,60
2985,note_on,15,0,1,,,,,,,,,0,,,99,0
3000,note_on,15,0,1,,,,,,,,,0,,,82,70
3015,note_on,15,0,1,,,,,,,,,0,,,82,0
3030,note_on,15,0,1,,,,,,,,,0,,,99,60
3045,note_on,15,0,1,,,,,,,,,0,,,99,0
3060,note_on,15,0,1,,,,,,,,,0,,,80,70
3060,note_on,155,0,3,,,,,,,,,0,,,59,60
3065,note_on,5,0,3,,,,,,,,,0,,,68,60
3070,note_on,5,0,3,,,,,,,,,0,,,75,60
3075,note_on,15,0,1,,,,,,,,,0,,,80,0
3075,note_on,5,0,3,,,,,,,,,0,,,59,0
3080,note_on,5,0,3,,,,,,,,,0,,,68,0
3085,note_on,5,0,3,,,,,,,,,0,,,75,0
3090,note_on,15,0,1,,,,,,,,,0,,,99,60
3105,note_on,15,0,1,,,,,,,,,0,,,99,0
3120,note_on,15,0,1,,,,,,,,,0,,,79,70
3135,note_on,15,0,1,,,,,,,,,0,,,79,0
3150,note_on,15,0,1,,,,,,,,,0,,,99,60
3165,note_on,15,0,1,,,,,,,,,0,,,99,0
3180,note_on,15,0,1,,,,,,,,,0,,,80,70
3195,note_on,15,0,1,,,,,,,,,0,,,80,0
3210,note_on,15,0,1,,,,,,,,,0,,,99,60
3225,note_on,15,0,1,,,,,,,,,0,,,99,0
3240,note_on,15,0,1,,,,,,,,,0,,,82,70
3240,note_on,155,0,3,,,,,,,,,0,,,63,60
3245,note_on,5,0,3,,,,,,,,,0,,,70,60
3250,note_on,5,0,3,,,,,,,,,0,,,79,60
3255,note_on,5,0,3,,,,,,,,,0,,,63,0
3255,note_on,15,0,1,,,,,,,,,0,,,82,0
3260,note_on,5,0,3,,,,,,,,,0,,,70,0
3265,note_on,5,0,3,,,,,,,,,0,,,79,0
3270,note_on,15,0,1,,,,,,,,,0,,,99,60
3285,note_on,15,0,1,,,,,,,,,0,,,99,0
3300,note_on,15,0,1,,,,,,,,,0,,,75,70
3315,note_on,15,0,1,,,,,,,,,0,,,75,0
3330,note_on,15,0,1,,,,,,,,,0,,,99,60
3345,note_on,15,0,1,,,,,,,,,0,,,99,0
3360,note_on,15,0,1,,,,,,,,,0,,,75,70
3375,note_on,15,0,1,,,,,,,,,0,,,75,0
3390,note_on,15,0,1,,,,,,,,,0,,,87,60
3405,note_on,15,0,1,,,,,,,,,0,,,87,0
3420,note_on,15,0,1,,,,,,,,,0,,,76,70
3420,note_on,155,0,3,,,,,,,,,0,,,67,60
3425,note_on,5,0,3,,,,,,,,,0,,,70,60
3435,note_on,10,0,3,,,,,,,,,0,,,67,0
3435,note_on,15,0,1,,,,,,,,,0,,,76,0
3440,note_on,5,0,3,,,,,,,,,0,,,70,0
3450,note_on,15,0,1,,,,,,,,,0,,,87,60
3465,note_on,15,0,1,,,,,,,,,0,,,87,0
3480,note_on,15,0,1,,,,,,,,,0,,,75,70
3495,note_on,15,0,1,,,,,,,,,0,,,75,0
3510,note_on,15,0,1,,,,,,,,,0,,,87,60
3525,note_on,15,0,1,,,,,,,,,0,,,87,0
3540,note_on,0,0,1,,,,,,,,,0,,,73,70
3540,note_on,15,0,1,,,,,,,,,0,,,75,70
3555,note_on,15,0,1,,,,,,,,,0,,,73,0
3555,note_on,0,0,1,,,,,,,,,0,,,75,0
3570,note_on,15,0,1,,,,,,,,,0,,,87,60
3585,note_on,15,0,1,,,,,,,,,0,,,87,0
3600,note_on,15,0,1,,,,,,,,,0,,,75,70
3600,note_on,0,0,3,,,,,,,,,0,,,68,60
3600,note_on,160,0,3,,,,,,,,,0,,,71,60
3615,note_on,0,0,3,,,,,,,,,0,,,71,0
3615,note_on,15,0,3,,,,,,,,,0,,,68,0
3615,note_on,15,0,1,,,,,,,,,0,,,75,0
3630,note_on,15,0,1,,,,,,,,,0,,,87,60
3645,note_on,15,0,1,,,,,,,,,0,,,87,0
3660,note_on,15,0,1,,,,,,,,,0,,,80,60
3675,note_on,15,0,1,,,,,,,,,0,,,80,0
3690,note_on,15,0,1,,,,,,,,,0,,,83,60
3705,note_on,15,0,1,,,,,,,,,0,,,83,0
3720,note_on,15,0,1,,,,,,,,,0,,,87,80
3735,note_on,15,0,1,,,,,,,,,0,,,87,0
3750,note_on,15,0,1,,,,,,,,,0,,,99,60
3765,note_on,15,0,1,,,,,,,,,0,,,99,0
3780,note_on,0,0,3,,,,,,,,,0,,,63,60
3780,note_on,165,0,3,,,,,,,,,0,,,73,60
3780,note_on,15,0,1,,,,,,,,,0,,,75,70
3780,note_on,0,0,3,,,,,,,,,0,,,67,60
3795,note_on,0,0,3,,,,,,,,,0,,,73,0
3795,note_on,0,0,3,,,,,,,,,0,,,67,0
3795,note_on,15,0,3,,,,,,,,,0,,,63,0
3795,note_on,15,0,1,,,,,,,,,0,,,75,0
3810,note_on,15,0,1,,,,,,,,,0,,,87,60
3825,note_on,15,0,1,,,,,,,,,0,,,87,0
3840,note_on,15,0,1,,,,,,,,,0,,,79,60
3855,note_on,15,0,1,,,,,,,,,0,,,79,0
3870,note_on,15,0,1,,,,,,,,,0,,,82,60
3885,note_on,15,0,1,,,,,,,,,0,,,82,0
3900,note_on,15,0,1,,,,,,,,,0,,,87,80
3915,note_on,15,0,1,,,,,,,,,0,,,87,0
3930,note_on,15,0,1,,,,,,,,,0,,,99,60
3945,note_on,15,0,1,,,,,,,,,0,,,99,0
3960,note_on,165,0,3,,,,,,,,,0,,,56,60
3975,note_on,15,0,3,,,,,,,,,0,,,56,0
3990,note_on,15,0,3,,,,,,,,,0,,,63,60
4005,note_on,15,0,3,,,,,,,,,0,,,63,0
4020,note_on,15,0,3,,,,,,,,,0,,,71,60
4035,note_on,15,0,3,,,,,,,,,0,,,71,0
4050,note_on,15,0,3,,,,,,,,,0,,,80,60
4065,note_on,15,0,3,,,,,,,,,0,,,80,0
4080,note_on,135,0,1,,,,,,,,,0,,,75,60
4095,note_on,15,0,1,,,,,,,,,0,,,75,0
4110,note_on,15,0,1,,,,,,,,,0,,,87,60
4125,note_on,15,0,1,,,,,,,,,0,,,87,0
4140,note_on,15,0,1,,,,,,,,,0,,,99,60
4155,note_on,15,0,1,,,,,,,,,0,,,99,0
4170,note_on,15,0,1,,,,,,,,,0,,,87,60
4185,note_on,15,0,1,,,,,,,,,0,,,87,0
4200,note_on,15,0,1,,,,,,,,,0,,,99,60
4215,note_on,15,0,1,,,,,,,,,0,,,99,0
4230,note_on,15,0,1,,,,,,,,,0,,,87,60
4245,note_on,15,0,1,,,,,,,,,0,,,87,0
4260,note_on,15,0,1,,,,,,,,,0,,,99,60
4275,note_on,15,0,1,,,,,,,,,0,,,99,0
4290,note_on,15,0,1,,,,,,,,,0,,,85,60
4305,note_on,15,0,1,,,,,,,,,0,,,85,0
4312,note_on,7,0,1,,,,,,,,,0,,,85,70
4320,note_on,8,0,1,,,,,,,,,0,,,85,0
4320,note_on,4320,0,4,,,,,,,,,0,,,44,60
4320,note_on,0,0,1,,,,,,,,,0,,,83,70
4335,note_on,15,0,1,,,,,,,,,0,,,83,0
4335,note_on,15,0,4,,,,,,,,,0,,,44,0
4350,note_on,15,0,1,,,,,,,,,0,,,99,60
4365,note_on,15,0,1,,,,,,,,,0,,,99,0
4380,note_on,45,0,4,,,,,,,,,0,,,59,60
4380,note_on,15,0,1,,,,,,,,,0,,,83,70
4380,note_on,0,0,4,,,,,,,,,0,,,51,60
4395,note_on,15,0,1,,,,,,,,,0,,,83,0
4395,note_on,0,0,4,,,,,,,,,0,,,59,0
4395,note_on,15,0,4,,,,,,,,,0,,,51,0
4410,note_on,15,0,1,,,,,,,,,0,,,99,60
4425,note_on,15,0,1,,,,,,,,,0,,,99,0
4440,note_on,15,0,1,,,,,,,,,0,,,82,70
4455,note_on,15,0,1,,,,,,,,,0,,,82,0
4470,note_on,15,0,1,,,,,,,,,0,,,99,60
4485,note_on,15,0,1,,,,,,,,,0,,,99,0
4492,note_on,7,0,1,,,,,,,,,0,,,82,70
4500,note_on,105,0,4,,,,,,,,,0,,,47,60
4500,note_on,0,0,1,,,,,,,,,0,,,80,70
4500,note_on,8,0,1,,,,,,,,,0,,,82,0
4515,note_on,15,0,1,,,,,,,,,0,,,80,0
4515,note_on,15,0,4,,,,,,,,,0,,,47,0
4530,note_on,15,0,1,,,,,,,,,0,,,99,60
4545,note_on,15,0,1,,,,,,,,,0,,,99,0
4560,note_on,0,0,4,,,,,,,,,0,,,56,60
4560,note_on,15,0,1,,,,,,,,,0,,,79,70
4560,note_on,45,0,4,,,,,,,,,0,,,63,60
4575,note_on,15,0,4,,,,,,,,,0,,,56,0
4575,note_on,15,0,1,,,,,,,,,0,,,79,0
4575,note_on,0,0,4,,,,,,,,,0,,,63,0
4590,note_on,15,0,1,,,,,,,,,0,,,99,60
4605,note_on,15,0,1,,,,,,,,,0,,,99,0
4620,note_on,15,0,1,,,,,,,,,0,,,80,70
4635,note_on,15,0,1,,,,,,,,,0,,,80,0
4650,note_on,15,0,1,,,,,,,,,0,,,99,60
4665,note_on,15,0,1,,,,,,,,,0,,,99,0
4665,note_on,0,0,1,,,,,,,,,0,,,79,70
4672,note_on,7,0,1,,,,,,,,,0,,,80,70
4673,note_on,1,0,1,,,,,,,,,0,,,79,0
4680,note_on,105,0,4,,,,,,,,,0,,,51,60
4680,note_on,7,0,1,,,,,,,,,0,,,80,0
4680,note_on,0,0,1,,,,,,,,,0,,,82,70
4695,note_on,15,0,1,,,,,,,,,0,,,82,0
4695,note_on,15,0,4,,,,,,,,,0,,,51,0
4710,note_on,15,0,1,,,,,,,,,0,,,99,60
4725,note_on,15,0,1,,,,,,,,,0,,,99,0
4740,note_on,0,0,4,,,,,,,,,0,,,58,60
4740,note_on,15,0,1,,,,,,,,,0,,,75,70
4740,note_on,45,0,4,,,,,,,,,0,,,67,60
4755,note_on,0,0,4,,,,,,,,,0,,,67,0
4755,note_on,15,0,1,,,,,,,,,0,,,75,0
4755,note_on,15,0,4,,,,,,,,,0,,,58,0
4770,note_on,15,0,1,,,,,,,,,0,,,99,60
4785,note_on,15,0,1,,,,,,,,,0,,,99,0
4800,note_on,15,0,1,,,,,,,,,0,,,75,70
4815,note_on,15,0,1,,,,,,,,,0,,,75,0
4830,note_on,15,0,1,,,,,,,,,0,,,87,60
4845,note_on,15,0,1,,,,,,,,,0,,,87,0
4852,note_on,7,0,1,,,,,,,,,0,,,78,70
4860,note_on,0,0,1,,,,,,,,,0,,,76,70
4860,note_on,0,0,3,,,,,,,,,0,,,67,60
4860,note_on,795,0,3,,,,,,,,,0,,,70,60
4860,note_on,8,0,1,,,,,,,,,0,,,78,0
4875,note_on,15,0,1,,,,,,,,,0,,,76,0
4875,note_on,0,0,3,,,,,,,,,0,,,70,0
4875,note_on,15,0,3,,,,,,,,,0,,,67,0
4890,note_on,15,0,1,,,,,,,,,0,,,87,60
4905,note_on,15,0,1,,,,,,,,,0,,,87,0
4920,note_on,15,0,1,,,,,,,,,0,,,75,70
4920,note_on,0,0,3,,,,,,,,,0,,,70,60
4920,note_on,45,0,3,,,,,,,,,0,,,67,60
4935,note_on,0,0,3,,,,,,,,,0,,,67,0
4935,note_on,15,0,3,,,,,,,,,0,,,70,0
4935,note_on,15,0,1,,,,,,,,,0,,,75,0
4950,note_on,15,0,1,,,,,,,,,0,,,87,60
4965,note_on,15,0,1,,,,,,,,,0,,,87,0
4980,note_on,15,0,1,,,,,,,,,0,,,73,70
4995,note_on,15,0,1,,,,,,,,,0,,,73,0
5010,note_on,15,0,1,,,,,,,,,0,,,87,60
5025,note_on,15,0,1,,,,,,,,,0,,,87,0
5032,note_on,7,0,1,,,,,,,,,0,,,73,70
5040,note_on,105,0,3,,,,,,,,,0,,,68,60
5040,note_on,0,0,1,,,,,,,,,0,,,71,70
5040,note_on,8,0,1,,,,,,,,,0,,,73,0
5055,note_on,15,0,1,,,,,,,,,0,,,71,0
5055,note_on,15,0,3,,,,,,,,,0,,,68,0
5070,note_on,15,0,1,,,,,,,,,0,,,87,60
5085,note_on,15,0,1,,,,,,,,,0,,,87,0
5100,note_on,45,0,3,,,,,,,,,0,,,68,60
5100,note_on,15,0,1,,,,,,,,,0,,,71,70
5115,note_on,15,0,1,,,,,,,,,0,,,71,0
5115,note_on,15,0,3,,,,,,,,,0,,,68,0
5130,note_on,15,0,1,,,,,,,,,0,,,87,60
5145,note_on,15,0,1,,,,,,,,,0,,,87,0
5160,note_on,15,0,1,,,,,,,,,0,,,70,70
5175,note_on,15,0,1,,,,,,,,,0,,,70,0
5190,note_on,15,0,1,,,,,,,,,0,,,87,60
5205,note_on,15,0,1,,,,,,,,,0,,,87,0
5212,note_on,7,0,1,,,,,,,,,0,,,70,70
5220,note_on,0,0,3,,,,,,,,,0,,,62,60
5220,note_on,0,0,3,,,,,,,,,0,,,65,60
5220,note_on,0,0,1,,,,,,,,,0,,,68,70
5220,note_on,105,0,3,,,,,,,,,0,,,59,60
5220,note_on,8,0,1,,,,,,,,,0,,,70,0
5235,note_on,15,0,3,,,,,,,,,0,,,65,0
5235,note_on,15,0,1,,,,,,,,,0,,,68,0
5235,note_on,0,0,3,,,,,,,,,0,,,62,0
5235,note_on,0,0,3,,,,,,,,,0,,,59,0
5250,note_on,15,0,1,,,,,,,,,0,,,87,60
5265,note_on,15,0,1,,,,,,,,,0,,,87,0
5280,note_on,15,0,1,,,,,,,,,0,,,67,70
5280,note_on,0,0,3,,,,,,,,,0,,,62,60
5280,note_on,0,0,3,,,,,,,,,0,,,65,60
5280,note_on,45,0,3,,,,,,,,,0,,,59,60
5295,note_on,0,0,3,,,,,,,,,0,,,62,0
5295,note_on,15,0,3,,,,,,,,,0,,,65,0
5295,note_on,0,0,3,,,,,,,,,0,,,59,0
5295,note_on,15,0,1,,,,,,,,,0,,,67,0
5310,note_on,15,0,1,,,,,,,,,0,,,87,60
5325,note_on,15,0,1,,,,,,,,,0,,,87,0
5340,note_on,15,0,1,,,,,,,,,0,,,68,70
5355,note_on,15,0,1,,,,,,,,,0,,,68,0
5370,note_on,15,0,1,,,,,,,,,0,,,87,60
5385,note_on,15,0,1,,,,,,,,,0,,,87,0
5400,note_on,645,0,4,,,,,,,,,0,,,67,60
5400,note_on,0,0,4,,,,,,,,,0,,,51,60
5400,note_on,15,0,1,,,,,,,,,0,,,70,70
5415,note_on,15,0,1,,,,,,,,,0,,,70,0
5415,note_on,0,0,4,,,,,,,,,0,,,67,0
5415,note_on,15,0,4,,,,,,,,,0,,,51,0
5430,note_on,15,0,1,,,,,,,,,0,,,87,60
5445,note_on,15,0,1,,,,,,,,,0,,,87,0
5460,note_on,15,0,1,,,,,,,,,0,,,63,60
5475,note_on,15,0,1,,,,,,,,,0,,,63,0
5490,note_on,15,0,1,,,,,,,,,0,,,75,60
5505,note_on,15,0,1,,,,,,,,,0,,,75,0
5520,note_on,15,0,1,,,,,,,,,0,,,75,60
5535,note_on,15,0,1,,,,,,,,,0,,,75,0
5550,note_on,15,0,1,,,,,,,,,0,,,87,60
5565,note_on,15,0,1,,,,,,,,,0,,,87,0
5580,note_on,15,0,1,,,,,,,,,0,,,87,70
5595,note_on,15,0,1,,,,,,,,,0,,,87,0
5610,note_on,15,0,1,,,,,,,,,0,,,99,60
5625,note_on,15,0,1,,,,,,,,,0,,,99,0
5640,note_on,15,0,1,,,,,,,,,0,,,87,70
5655,note_on,15,0,1,,,,,,,,,0,,,87,0
5670,note_on,15,0,1,,,,,,,,,0,,,99,60
5685,note_on,15,0,1,,,,,,,,,0,,,99,0
5700,note_on,15,0,1,,,,,,,,,0,,,85,70
5715,note_on,15,0,1,,,,,,,,,0,,,85,0
5730,note_on,15,0,1,,,,,,,,,0,,,99,60
5745,note_on,15,0,1,,,,,,,,,0,,,99,0
5752,note_on,7,0,1,,,,,,,,,0,,,85,70
5760,note_on,8,0,1,,,,,,,,,0,,,85,0
5760,note_on,0,0,1,,,,,,,,,0,,,83,70
5760,note_on,345,0,4,,,,,,,,,0,,,44,60
5775,note_on,15,0,4,,,,,,,,,0,,,44,0
5775,note_on,15,0,1,,,,,,,,,0,,,83,0
5790,note_on,15,0,1,,,,,,,,,0,,,99,60
5805,note_on,15,0,1,,,,,,,,,0,,,99,0
5820,note_on,0,0,4,,,,,,,,,0,,,51,60
5820,note_on,45,0,4,,,,,,,,,0,,,59,60
5820,note_on,15,0,1,,,,,,,,,0,,,83,70
5835,note_on,0,0,4,,,,,,,,,0,,,59,0
5835,note_on,15,0,4,,,,,,,,,0,,,51,0
5835,note_on,15,0,1,,,,,,,,,0,,,83,0
5850,note_on,15,0,1,,,,,,,,,0,,,99,60
5865,note_on,15,0,1,,,,,,,,,0,,,99,0
5880,note_on,15,0,1,,,,,,,,,0,,,82,70
5895,note_on,15,0,1,,,,,,,,,0,,,82,0
5910,note_on,15,0,1,,,,,,,,,0,,,99,60
5925,note_on,15,0,1,,,,,,,,,0,,,99,0
5940,note_on,15,0,1,,,,,,,,,0,,,80,70
5940,note_on,105,0,4,,,,,,,,,0,,,47,60
5955,note_on,15,0,1,,,,,,,,,0,,,80,0
5955,note_on,15,0,4,,,,,,,,,0,,,47,0
5970,note_on,15,0,1,,,,,,,,,0,,,99,60
5985,note_on,15,0,1,,,,,,,,,0,,,99,0
6000,note_on,15,0,1,,,,,,,,,0,,,79,70
6000,note_on,0,0,4,,,,,,,,,0,,,56,60
6000,note_on,45,0,4,,,,,,,,,0,,,63,60
6015,note_on,15,0,4,,,,,,,,,0,,,56,0
6015,note_on,0,0,4,,,,,,,,,0,,,63,0
6015,note_on,15,0,1,,,,,,,,,0,,,79,0
6030,note_on,15,0,1,,,,,,,,,0,,,99,60
6045,note_on,15,0,1,,,,,,,,,0,,,99,0
6060,note_on,15,0,1,,,,,,,,,0,,,80,70
6075,note_on,15,0,1,,,,,,,,,0,,,80,0
6090,note_on,15,0,1,,,,,,,,,0,,,99,60
6105,note_on,0,0,1,,,,,,,,,0,,,78,70
6105,note_on,15,0,1,,,,,,,,,0,,,99,0
6112,note_on,7,0,1,,,,,,,,,0,,,80,70
6113,note_on,1,0,1,,,,,,,,,0,,,78,0
6120,note_on,105,0,4,,,,,,,,,0,,,51,60
6120,note_on,0,0,1,,,,,,,,,0,,,82,70
6120,note_on,7,0,1,,,,,,,,,0,,,80,0
6135,note_on,15,0,4,,,,,,,,,0,,,51,0
6135,note_on,15,0,1,,,,,,,,,0,,,82,0
6150,note_on,15,0,1,,,,,,,,,0,,,99,60
6165,note_on,15,0,1,,,,,,,,,0,,,99,0
6180,note_on,15,0,1,,,,,,,,,0,,,75,70
6180,note_on,0,0,4,,,,,,,,,0,,,58,60
6180,note_on,45,0,4,,,,,,,,,0,,,67,60
6195,note_on,0,0,4,,,,,,,,,0,,,67,0
6195,note_on,15,0,1,,,,,,,,,0,,,75,0
6195,note_on,15,0,4,,,,,,,,,0,,,58,0
6210,note_on,15,0,1,,,,,,,,,0,,,99,60
6225,note_on,15,0,1,,,,,,,,,0,,,99,0
6240,note_on,15,0,1,,,,,,,,,0,,,75,70
6255,note_on,15,0,1,,,,,,,,,0,,,75,0
6270,note_on,15,0,1,,,,,,,,,0,,,87,60
6285,note_on,15,0,1,,,,,,,,,0,,,87,0
6292,note_on,7,0,1,,,,,,,,,0,,,78,70
6300,note_on,0,0,3,,,,,,,,,0,,,68,60
6300,note_on,8,0,1,,,,,,,,,0,,,78,0
6300,note_on,0,0,3,,,,,,,,,0,,,70,60
6300,note_on,0,0,1,,,,,,,,,0,,,76,70
6300,note_on,1005,0,3,,,,,,,,,0,,,61,60
6315,note_on,15,0,1,,,,,,,,,0,,,76,0
6330,note_on,15,0,1,,,,,,,,,0,,,92,60
6345,note_on,15,0,1,,,,,,,,,0,,,92,0
6360,note_on,0,0,3,,,,,,,,,0,,,70,60
6360,note_on,0,0,3,,,,,,,,,0,,,68,60
6360,note_on,15,0,1,,,,,,,,,0,,,75,70
6360,note_on,0,0,3,,,,,,,,,0,,,68,0
6360,note_on,60,0,3,,,,,,,,,0,,,70,0
6360,note_on,0,0,3,,,,,,,,,0,,,61,0
6360,note_on,0,0,3,,,,,,,,,0,,,63,60
6375,note_on,15,0,1,,,,,,,,,0,,,75,0
6390,note_on,15,0,1,,,,,,,,,0,,,92,60
6405,note_on,15,0,1,,,,,,,,,0,,,92,0
6420,note_on,60,0,3,,,,,,,,,0,,,70,0
6420,note_on,0,0,3,,,,,,,,,0,,,63,0
6420,note_on,0,0,3,,,,,,,,,0,,,64,60
6420,note_on,0,0,3,,,,,,,,,0,,,68,0
6420,note_on,0,0,3,,,,,,,,,0,,,68,60
6420,note_on,0,0,3,,,,,,,,,0,,,70,60
6420,note_on,15,0,1,,,,,,,,,0,,,73,70
6435,note_on,15,0,1,,,,,,,,,0,,,73,0
6450,note_on,15,0,1,,,,,,,,,0,,,92,60
6465,note_on,15,0,1,,,,,,,,,0,,,92,0
6480,note_on,60,0,3,,,,,,,,,0,,,70,0
6480,note_on,15,0,1,,,,,,,,,0,,,75,70
6480,note_on,0,0,3,,,,,,,,,0,,,63,60
6480,note_on,0,0,3,,,,,,,,,0,,,64,0
6480,note_on,0,0,3,,,,,,,,,0,,,68,0
6480,note_on,0,0,3,,,,,,,,,0,,,68,60
6480,note_on,0,0,3,,,,,,,,,0,,,71,60
6495,note_on,15,0,1,,,,,,,,,0,,,75,0
6510,note_on,15,0,1,,,,,,,,,0,,,87,60
6525,note_on,15,0,1,,,,,,,,,0,,,87,0
6540,note_on,0,0,3,,,,,,,,,0,,,71,0
6540,note_on,60,0,3,,,,,,,,,0,,,63,0
6540,note_on,0,0,3,,,,,,,,,0,,,68,0
6540,note_on,15,0,1,,,,,,,,,0,,,80,60
6555,note_on,15,0,1,,,,,,,,,0,,,80,0
6570,note_on,15,0,1,,,,,,,,,0,,,83,60
6585,note_on,15,0,1,,,,,,,,,0,,,83,0
6600,note_on,15,0,1,,,,,,,,,0,,,87,80
6615,note_on,15,0,1,,,,,,,,,0,,,87,0
6630,note_on,15,0,1,,,,,,,,,0,,,99,60
6645,note_on,15,0,1,,,,,,,,,0,,,99,0
6660,note_on,15,0,1,,,,,,,,,0,,,75,70
6660,note_on,0,0,4,,,,,,,,,0,,,61,60
6660,note_on,465,0,4,,,,,,,,,0,,,67,60
6660,note_on,0,0,4,,,,,,,,,0,,,51,60
6675,note_on,15,0,1,,,,,,,,,0,,,75,0
6690,note_on,15,0,1,,,,,,,,,0,,,87,60
6705,note_on,15,0,1,,,,,,,,,0,,,87,0
6720,note_on,0,0,4,,,,,,,,,0,,,61,0
6720,note_on,0,0,4,,,,,,,,,0,,,67,0
6720,note_on,60,0,4,,,,,,,,,0,,,51,0
6720,note_on,15,0,1,,,,,,,,,0,,,79,60
6735,note_on,15,0,1,,,,,,,,,0,,,79,0
6750,note_on,15,0,1,,,,,,,,,0,,,82,60
6765,note_on,15,0,1,,,,,,,,,0,,,82,0
6780,note_on,15,0,1,,,,,,,,,0,,,87,80
6795,note_on,15,0,1,,,,,,,,,0,,,87,0
6810,note_on,15,0,1,,,,,,,,,0,,,99,60
6825,note_on,15,0,1,,,,,,,,,0,,,99,0
6840,note_on,120,0,4,,,,,,,,,0,,,44,60
6855,note_on,15,0,4,,,,,,,,,0,,,44,0
6870,note_on,15,0,4,,,,,,,,,0,,,59,60
6885,note_on,15,0,4,,,,,,,,,0,,,59,0
6900,note_on,75,0,1,,,,,,,,,0,,,63,60
6915,note_on,15,0,1,,,,,,,,,0,,,63,0
6930,note_on,15,0,1,,,,,,,,,0,,,68,60
6945,note_on,15,0,1,,,,,,,,,0,,,68,0
6960,note_on,15,0,1,,,,,,,,,0,,,75,60
6975,note_on,15,0,1,,,,,,,,,0,,,75,0
6990,note_on,15,0,1,,,,,,,,,0,,,80,60
7005,note_on,15,0,1,,,,,,,,,0,,,80,0
7020,note_on,480,0,3,,,,,,,,,0,,,83,60
7035,note_on,15,0,3,,,,,,,,,0,,,83,0
7050,note_on,15,0,3,,,,,,,,,0,,,87,60
7065,note_on,15,0,3,,,,,,,,,0,,,87,0
7080,note_on,15,0,3,,,,,,,,,0,,,92,60
7095,note_on,15,0,3,,,,,,,,,0,,,92,0
7200,marker,6000,1,0,,,,,,,,,,,,,
7320,note_on,225,0,3,,,,,,,,,0,,,71,60
7335,note_on,15,0,3,,,,,,,,,0,,,71,0
7350,note_on,0,0,1,,,,,,,,,0,,,67,60
7350,note_on,345,0,1,,,,,,,,,0,,,70,60
7365,note_on,15,0,1,,,,,,,,,0,,,67,0
7365,note_on,0,0,1,,,,,,,,,0,,,70,0
7380,note_on,45,0,3,,,,,,,,,0,,,71,60
7395,note_on,15,0,3,,,,,,,,,0,,,71,0
7410,note_on,45,0,1,,,,,,,,,0,,,69,60
7410,note_on,0,0,1,,,,,,,,,0,,,66,60
7425,note_on,15,0,1,,,,,,,,,0,,,66,0
7425,note_on,0,0,1,,,,,,,,,0,,,69,0
7440,note_on,45,0,3,,,,,,,,,0,,,71,60
7455,note_on,15,0,3,,,,,,,,,0,,,71,0
7470,note_on,0,0,1,,,,,,,,,0,,,65,60
7470,note_on,45,0,1,,,,,,,,,0,,,68,60
7485,note_on,15,0,1,,,,,,,,,0,,,65,0
7485,note_on,0,0,1,,,,,,,,,0,,,68,0
7500,note_on,45,0,3,,,,,,,,,0,,,71,60
7515,note_on,15,0,3,,,,,,,,,0,,,71,0
7530,note_on,45,0,1,,,,,,,,,0,,,67,60
7530,note_on,0,0,1,,,,,,,,,0,,,64,60
7545,note_on,15,0,1,,,,,,,,,0,,,64,0
7545,note_on,0,0,1,,,,,,,,,0,,,67,0
7560,note_on,15,0,1,,,,,,,,,0,,,73,60
7575,note_on,0,0,1,,,,,,,,,0,,,71,60
7575,note_on,15,0,1,,,,,,,,,0,,,73,0
7590,note_on,0,0,1,,,,,,,,,0,,,70,60
7590,note_on,15,0,1,,,,,,,,,0,,,71,0
7605,note_on,0,0,1,,,,,,,,,0,,,71,60
7605,note_on,15,0,1,,,,,,,,,0,,,70,0
7620,note_on,0,0,4,,,,,,,,,0,,,59,60
7620,note_on,0,0,1,,,,,,,,,0,,,66,60
7620,note_on,15,0,1,,,,,,,,,0,,,71,0
7620,note_on,735,0,4,,,,,,,,,0,,,63,60
7635,note_on,15,0,1,,,,,,,,,0,,,66,0
7635,note_on,15,0,4,,,,,,,,,0,,,59,0
7635,note_on,0,0,4,,,,,,,,,0,,,63,0
7650,note_on,15,0,1,,,,,,,,,0,,,90,60
7665,note_on,15,0,1,,,,,,,,,0,,,90,0
7680,note_on,45,0,4,,,,,,,,,0,,,66,60
7680,note_on,15,0,1,,,,,,,,,0,,,71,60
7680,note_on,0,0,4,,,,,,,,,0,,,54,60
7680,note_on,0,0,4,,,,,,,,,0,,,63,60
7695,note_on,15,0,1,,,,,,,,,0,,,71,0
7695,note_on,0,0,4,,,,,,,,,0,,,63,0
7695,note_on,0,0,4,,,,,,,,,0,,,66,0
7695,note_on,15,0,4,,,,,,,,,0,,,54,0
7710,note_on,15,0,1,,,,,,,,,0,,,90,60
7725,note_on,15,0,1,,,,,,,,,0,,,90,0
7740,note_on,15,0,1,,,,,,,,,0,,,75,60
7755,note_on,15,0,1,,,,,,,,,0,,,75,0
7755,note_on,0,0,1,,,,,,,,,0,,,73,60
7770,note_on,15,0,1,,,,,,,,,0,,,73,0
7770,note_on,0,0,1,,,,,,,,,0,,,72,60
7785,note_on,15,0,1,,,,,,,,,0,,,72,0
7785,note_on,0,0,1,,,,,,,,,0,,,73,60
7800,note_on,15,0,1,,,,,,,,,0,,,73,0
7800,note_on,0,0,4,,,,,,,,,0,,,58,60
7800,note_on,105,0,4,,,,,,,,,0,,,64,60
7800,note_on,0,0,1,,,,,,,,,0,,,66,60
7815,note_on,15,0,4,,,,,,,,,0,,,58,0
7815,note_on,0,0,4,,,,,,,,,0,,,64,0
7815,note_on,15,0,1,,,,,,,,,0,,,66,0
7830,note_on,15,0,1,,,,,,,,,0,,,90,60
7845,note_on,15,0,1,,,,,,,,,0,,,90,0
7860,note_on,0,0,4,,,,,,,,,0,,,64,60
7860,note_on,0,0,4,,,,,,,,,0,,,54,60
7860,note_on,15,0,1,,,,,,,,,0,,,73,60
7860,note_on,45,0,4,,,,,,,,,0,,,66,60
7875,note_on,0,0,4,,,,,,,,,0,,,64,0
7875,note_on,15,0,4,,,,,,,,,0,,,54,0
7875,note_on,15,0,1,,,,,,,,,0,,,73,0
7875,note_on,0,0,4,,,,,,,,,0,,,66,0
7890,note_on,15,0,1,,,,,,,,,0,,,90,60
7905,note_on,15,0,1,,,,,,,,,0,,,90,0
7920,note_on,15,0,1,,,,,,,,,0,,,76,60
7935,note_on,0,0,1,,,,,,,,,0,,,75,60
7935,note_on,15,0,1,,,,,,,,,0,,,76,0
7950,note_on,0,0,1,,,,,,,,,0,,,74,60
7950,note_on,15,0,1,,,,,,,,,0,,,75,0
7965,note_on,0,0,1,,,,,,,,,0,,,75,60
7965,note_on,15,0,1,,,,,,,,,0,,,74,0
7980,note_on,15,0,1,,,,,,,,,0,,,75,0
7980,note_on,0,0,4,,,,,,,,,0,,,59,60
7980,note_on,0,0,1,,,,,,,,,0,,,71,60
7980,note_on,105,0,4,,,,,,,,,0,,,63,60
7995,note_on,15,0,1,,,,,,,,,0,,,71,0
8010,note_on,15,0,1,,,,,,,,,0,,,90,60
8025,note_on,15,0,1,,,,,,,,,0,,,90,0
8040,note_on,525,0,3,,,,,,,,,0,,,75,60
8040,note_on,0,0,4,,,,,,,,,0,,,63,0
8040,note_on,60,0,4,,,,,,,,,0,,,59,0
8055,note_on,15,0,3,,,,,,,,,0,,,75,0
8070,note_on,45,0,1,,,,,,,,,0,,,71,60
8070,note_on,0,0,1,,,,,,,,,0,,,73,60
8085,note_on,15,0,1,,,,,,,,,0,,,73,0
8085,note_on,0,0,1,,,,,,,,,0,,,71,0
8100,note_on,45,0,3,,,,,,,,,0,,,75,60
8115,note_on,15,0,3,,,,,,,,,0,,,75,0
8130,note_on,45,0,1,,,,,,,,,0,,,70,60
8130,note_on,0,0,1,,,,,,,,,0,,,73,60
8145,note_on,15,0,1,,,,,,,,,0,,,73,0
8145,note_on,0,0,1,,,,,,,,,0,,,70,0
8160,note_on,45,0,3,,,,,,,,,0,,,75,60
8175,note_on,15,0,3,,,,,,,,,0,,,75,0
8190,note_on,45,0,1,,,,,,,,,0,,,69,60
8190,note_on,0,0,1,,,,,,,,,0,,,72,60
8205,note_on,15,0,1,,,,,,,,,0,,,72,0
8205,note_on,0,0,1,,,,,,,,,0,,,69,0
8220,note_on,45,0,3,,,,,,,,,0,,,75,60
8235,note_on,15,0,3,,,,,,,,,0,,,75,0
8250,note_on,45,0,1,,,,,,,,,0,,,68,60
8250,note_on,0,0,1,,,,,,,,,0,,,71,60
8265,note_on,0,0,1,,,,,,,,,0,,,68,0
8265,note_on,15,0,1,,,,,,,,,0,,,71,0
8280,note_on,15,0,1,,,,,,,,,0,,,77,60
8295,note_on,15,0,1,,,,,,,,,0,,,77,0
8295,note_on,0,0,1,,,,,,,,,0,,,75,60
8310,note_on,15,0,1,,,,,,,,,0,,,75,0
8310,note_on,0,0,1,,,,,,,,,0,,,74,60
8325,note_on,0,0,1,,,,,,,,,0,,,75,60
8325,note_on,15,0,1,,,,,,,,,0,,,74,0
8340,note_on,105,0,3,,,,,,,,,0,,,66,60
8340,note_on,0,0,3,,,,,,,,,0,,,63,60
8340,note_on,0,0,1,,,,,,,,,0,,,70,60
8340,note_on,15,0,1,,,,,,,,,0,,,75,0
8355,note_on,0,0,3,,,,,,,,,0,,,66,0
8355,note_on,15,0,3,,,,,,,,,0,,,63,0
8355,note_on,15,0,1,,,,,,,,,0,,,70,0
8370,note_on,15,0,1,,,,,,,,,0,,,94,60
8385,note_on,15,0,1,,,,,,,,,0,,,94,0
8400,note_on,0,0,3,,,,,,,,,0,,,66,60
8400,note_on,15,0,1,,,,,,,,,0,,,75,60
8400,note_on,0,0,3,,,,,,,,,0,,,58,60
8400,note_on,45,0,3,,,,,,,,,0,,,70,60
8415,note_on,15,0,3,,,,,,,,,0,,,58,0
8415,note_on,0,0,3,,,,,,,,,0,,,66,0
8415,note_on,15,0,1,,,,,,,,,0,,,75,0
8415,note_on,0,0,3,,,,,,,,,0,,,70,0
8430,note_on,15,0,1,,,,,,,,,0,,,94,60
8445,note_on,15,0,1,,,,,,,,,0,,,94,0
8460,note_on,15,0,1,,,,,,,,,0,,,78,60
8475,note_on,0,0,1,,,,,,,,,0,,,77,60
8475,note_on,15,0,1,,,,,,,,,0,,,78,0
8490,note_on,0,0,1,,,,,,,,,0,,,76,60
8490,note_on,15,0,1,,,,,,,,,0,,,77,0
8505,note_on,15,0,1,,,,,,,,,0,,,76,0
8505,note_on,0,0,1,,,,,,,,,0,,,77,60
8520,note_on,0,0,1,,,,,,,,,0,,,70,60
8520,note_on,105,0,3,,,,,,,,,0,,,68,60
8520,note_on,15,0,1,,,,,,,,,0,,,77,0
8520,note_on,0,0,3,,,,,,,,,0,,,62,60
8535,note_on,0,0,3,,,,,,,,,0,,,68,0
8535,note_on,15,0,3,,,,,,,,,0,,,62,0
8535,note_on,15,0,1,,,,,,,,,0,,,70,0
8550,note_on,15,0,1,,,,,,,,,0,,,94,60
8565,note_on,15,0,1,,,,,,,,,0,,,94,0
8580,note_on,0,0,3,,,,,,,,,0,,,70,60
8580,note_on,45,0,3,,,,,,,,,0,,,58,60
8580,note_on,0,0,3,,,,,,,,,0,,,68,60
8580,note_on,15,0,1,,,,,,,,,0,,,77,60
8595,note_on,15,0,3,,,,,,,,,0,,,70,0
8595,note_on,0,0,3,,,,,,,,,0,,,68,0
8595,note_on,0,0,3,,,,,,,,,0,,,58,0
8595,note_on,15,0,1,,,,,,,,,0,,,77,0
8610,note_on,15,0,1,,,,,,,,,0,,,94,60
8625,note_on,15,0,1,,,,,,,,,0,,,94,0
8640,note_on,15,0,1,,,,,,,,,0,,,80,60
8655,note_on,15,0,1,,,,,,,,,0,,,80,0
8655,note_on,0,0,1,,,,,,,,,0,,,78,60
8670,note_on,0,0,1,,,,,,,,,0,,,77,60
8670,note_on,15,0,1,,,,,,,,,0,,,78,0
8685,note_on,15,0,1,,,,,,,,,0,,,77,0
8685,note_on,0,0,1,,,,,,,,,0,,,78,60
8700,note_on,0,0,3,,,,,,,,,0,,,66,60
8700,note_on,15,0,1,,,,,,,,,0,,,78,0
8700,note_on,0,0,1,,,,,,,,,0,,,75,60
8700,note_on,105,0,3,,,,,,,,,0,,,63,60
8715,note_on,15,0,1,,,,,,,,,0,,,75,0
8730,note_on,15,0,1,,,,,,,,,0,,,94,60
8745,note_on,15,0,1,,,,,,,,,0,,,94,0
8760,note_on,0,0,3,,,,,,,,,0,,,78,60
8760,note_on,0,0,3,,,,,,,,,0,,,63,0
8760,note_on,60,0,3,,,,,,,,,0,,,66,0
8775,note_on,15,0,3,,,,,,,,,0,,,78,0
8790,note_on,45,0,1,,,,,,,,,0,,,77,60
8790,note_on,0,0,1,,,,,,,,,0,,,74,60
8805,note_on,0,0,1,,,,,,,,,0,,,77,0
8805,note_on,15,0,1,,,,,,,,,0,,,74,0
8820,note_on,45,0,3,,,,,,,,,0,,,78,60
8835,note_on,15,0,3,,,,,,,,,0,,,78,0
8850,note_on,0,0,1,,,,,,,,,0,,,73,60
8850,note_on,45,0,1,,,,,,,,,0,,,76,60
8865,note_on,15,0,1,,,,,,,,,0,,,73,0
8865,note_on,0,0,1,,,,,,,,,0,,,76,0
8880,note_on,45,0,3,,,,,,,,,0,,,78,60
8895,note_on,15,0,3,,,,,,,,,0,,,78,0
8910,note_on,45,0,1,,,,,,,,,0,,,75,60
8910,note_on,0,0,1,,,,,,,,,0,,,72,60
8925,note_on,15,0,1,,,,,,,,,0,,,72,0
8925,note_on,0,0,1,,,,,,,,,0,,,75,0
8940,note_on,45,0,3,,,,,,,,,0,,,78,60
8955,note_on,15,0,3,,,,,,,,,0,,,78,0
8970,note_on,45,0,1,,,,,,,,,0,,,74,60
8970,note_on,0,0,1,,,,,,,,,0,,,71,60
8985,note_on,15,0,1,,,,,,,,,0,,,71,0
8985,note_on,0,0,1,,,,,,,,,0,,,74,0
9000,note_on,15,0,1,,,,,,,,,0,,,80,60
9015,note_on,0,0,1,,,,,,,,,0,,,78,60
9015,note_on,15,0,1,,,,,,,,,0,,,80,0
9030,note_on,0,0,1,,,,,,,,,0,,,77,60
9030,note_on,15,0,1,,,,,,,,,0,,,78,0
9045,note_on,0,0,1,,,,,,,,,0,,,78,60
9045,note_on,15,0,1,,,,,,,,,0,,,77,0
9060,note_on,0,0,3,,,,,,,,,0,,,66,60
9060,note_on,0,0,1,,,,,,,,,0,,,73,60
9060,note_on,15,0,1,,,,,,,,,0,,,78,0
9060,note_on,105,0,3,,,,,,,,,0,,,70,60
9075,note_on,0,0,3,,,,,,,,,0,,,70,0
9075,note_on,15,0,3,,,,,,,,,0,,,66,0
9075,note_on,15,0,1,,,,,,,,,0,,,73,0
9090,note_on,15,0,1,,,,,,,,,0,,,97,60
9105,note_on,15,0,1,,,,,,,,,0,,,97,0
9120,note_on,0,0,3,,,,,,,,,0,,,70,60
9120,note_on,0,0,3,,,,,,,,,0,,,61,60
9120,note_on,45,0,3,,,,,,,,,0,,,73,60
9120,note_on,15,0,1,,,,,,,,,0,,,78,60
9135,note_on,15,0,1,,,,,,,,,0,,,78,0
9135,note_on,0,0,3,,,,,,,,,0,,,70,0
9135,note_on,0,0,3,,,,,,,,,0,,,73,0
9135,note_on,15,0,3,,,,,,,,,0,,,61,0
9150,note_on,15,0,1,,,,,,,,,0,,,97,60
9165,note_on,15,0,1,,,,,,,,,0,,,97,0
9180,note_on,15,0,1,,,,,,,,,0,,,82,60
9195,note_on,15,0,1,,,,,,,,,0,,,82,0
9195,note_on,0,0,1,,,,,,,,,0,,,80,60
9210,note_on,15,0,1,,,,,,,,,0,,,80,0
9210,note_on,0,0,1,,,,,,,,,0,,,79,60
9225,note_on,0,0,1,,,,,,,,,0,,,80,60
9225,note_on,15,0,1,,,,,,,,,0,,,79,0
9240,note_on,15,0,1,,,,,,,,,0,,,80,0
9240,note_on,0,0,1,,,,,,,,,0,,,73,60
9240,note_on,105,0,3,,,,,,,,,0,,,71,60
9240,note_on,0,0,3,,,,,,,,,0,,,65,60
9255,note_on,15,0,1,,,,,,,,,0,,,73,0
9255,note_on,0,0,3,,,,,,,,,0,,,71,0
9255,note_on,15,0,3,,,,,,,,,0,,,65,0
9270,note_on,15,0,1,,,,,,,,,0,,,97,60
9285,note_on,15,0,1,,,,,,,,,0,,,97,0
9300,note_on,15,0,1,,,,,,,,,0,,,80,60
9300,note_on,0,0,3,,,,,,,,,0,,,73,60
9300,note_on,0,0,3,,,,,,,,,0,,,61,60
9300,note_on,45,0,3,,,,,,,,,0,,,71,60
9315,note_on,0,0,3,,,,,,,,,0,,,73,0
9315,note_on,15,0,3,,,,,,,,,0,,,61,0
9315,note_on,0,0,3,,,,,,,,,0,,,71,0
9315,note_on,15,0,1,,,,,,,,,0,,,80,0
9330,note_on,15,0,1,,,,,,,,,0,,,97,60
9345,note_on,15,0,1,,,,,,,,,0,,,97,0
9360,note_on,15,0,1,,,,,,,,,0,,,82,60
9360,note_on,45,0,3,,,,,,,,,0,,,78,60
9375,note_on,15,0,1,,,,,,,,,0,,,82,0
9375,note_on,15,0,3,,,,,,,,,0,,,78,0
9390,note_on,15,0,1,,,,,,,,,0,,,83,60
9390,note_on,15,0,3,,,,,,,,,0,,,80,60
9405,note_on,15,0,1,,,,,,,,,0,,,83,0
9405,note_on,15,0,3,,,,,,,,,0,,,80,0
9420,note_on,15,0,1,,,,,,,,,0,,,85,60
9420,note_on,15,0,3,,,,,,,,,0,,,66,60
9425,note_on,5,0,3,,,,,,,,,0,,,82,60
9450,note_on,0,0,1,,,,,,,,,0,,,94,60
9450,note_on,30,0,1,,,,,,,,,0,,,97,60
9480,note_on,0,0,1,,,,,,,,,0,,,83,60
9480,note_on,0,0,1,,,,,,,,,0,,,85,0
9480,note_on,0,0,3,,,,,,,,,0,,,66,0
9480,note_on,0,0,3,,,,,,,,,0,,,80,60
9480,note_on,0,0,1,,,,,,,,,0,,,97,0
9480,note_on,30,0,1,,,,,,,,,0,,,94,0
9480,note_on,55,0,3,,,,,,,,,0,,,82,0
9495,note_on,15,0,1,,,,,,,,,0,,,83,0
9495,note_on,15,0,3,,,,,,,,,0,,,80,0
9510,note_on,15,0,3,,,,,,,,,0,,,78,60
9510,note_on,15,0,1,,,,,,,,,0,,,82,60
9525,note_on,15,0,3,,,,,,,,,0,,,78,0
9525,note_on,15,0,1,,,,,,,,,0,,,82,0
9540,note_on,15,0,3,,,,,,,,,0,,,71,60
9540,note_on,15,0,1,,,,,,,,,0,,,80,60
9555,note_on,15,0,3,,,,,,,,,0,,,71,0
9555,note_on,15,0,1,,,,,,,,,0,,,80,0
9570,note_on,15,0,3,,,,,,,,,0,,,73,60
9570,note_on,15,0,1,,,,,,,,,0,,,82,60
9585,note_on,15,0,3,,,,,,,,,0,,,73,0
9585,note_on,15,0,1,,,,,,,,,0,,,82,0
9600,note_on,15,0,3,,,,,,,,,0,,,59,60
9600,note_on,15,0,1,,,,,,,,,0,,,83,60
9605,note_on,5,0,3,,,,,,,,,0,,,75,60
9630,note_on,0,0,1,,,,,,,,,0,,,87,60
9630,note_on,30,0,1,,,,,,,,,0,,,95,60
9660,note_on,0,0,3,,,,,,,,,0,,,59,0
9660,note_on,0,0,1,,,,,,,,,0,,,83,0
9660,note_on,0,0,1,,,,,,,,,0,,,82,60
9660,note_on,30,0,1,,,,,,,,,0,,,87,0
9660,note_on,0,0,3,,,,,,,,,0,,,73,60
9660,note_on,0,0,1,,,,,,,,,0,,,95,0
9660,note_on,55,0,3,,,,,,,,,0,,,75,0
9675,note_on,15,0,3,,,,,,,,,0,,,73,0
9675,note_on,15,0,1,,,,,,,,,0,,,82,0
9690,note_on,15,0,1,,,,,,,,,0,,,80,60
9690,note_on,15,0,3,,,,,,,,,0,,,71,60
9705,note_on,15,0,3,,,,,,,,,0,,,71,0
9705,note_on,15,0,1,,,,,,,,,0,,,80,0
9720,note_on,15,0,3,,,,,,,,,0,,,70,60
9720,note_on,15,0,1,,,,,,,,,0,,,78,60
9735,note_on,15,0,3,,,,,,,,,0,,,70,0
9735,note_on,15,0,1,,,,,,,,,0,,,78,0
9750,note_on,15,0,1,,,,,,,,,0,,,80,60
9750,note_on,15,0,3,,,,,,,,,0,,,71,60
9765,note_on,15,0,3,,,,,,,,,0,,,71,0
9765,note_on,15,0,1,,,,,,,,,0,,,80,0
9780,note_on,15,0,3,,,,,,,,,0,,,61,60
9780,note_on,15,0,1,,,,,,,,,0,,,82,60
9785,note_on,5,0,3,,,,,,,,,0,,,73,60
9810,note_on,30,0,1,,,,,,,,,0,,,94,60
9810,note_on,0,0,1,,,,,,,,,0,,,85,60
9840,note_on,0,0,1,,,,,,,,,0,,,80,60
9840,note_on,0,0,1,,,,,,,,,0,,,82,0
9840,note_on,0,0,1,,,,,,,,,0,,,94,0
9840,note_on,0,0,3,,,,,,,,,0,,,61,0
9840,note_on,0,0,3,,,,,,,,,0,,,71,60
9840,note_on,55,0,3,,,,,,,,,0,,,73,0
9840,note_on,30,0,1,,,,,,,,,0,,,85,0
9855,note_on,15,0,3,,,,,,,,,0,,,71,0
9855,note_on,15,0,1,,,,,,,,,0,,,80,0
9870,note_on,15,0,3,,,,,,,,,0,,,70,60
9870,note_on,15,0,1,,,,,,,,,0,,,78,60
9885,note_on,15,0,1,,,,,,,,,0,,,78,0
9885,note_on,15,0,3,,,,,,,,,0,,,70,0
9900,note_on,15,0,1,,,,,,,,,0,,,77,60
9900,note_on,15,0,3,,,,,,,,,0,,,68,60
9915,note_on,15,0,1,,,,,,,,,0,,,77,0
9915,note_on,15,0,3,,,,,,,,,0,,,68,0
9930,note_on,15,0,3,,,,,,,,,0,,,70,60
9930,note_on,15,0,1,,,,,,,,,0,,,78,60
9945,note_on,15,0,3,,,,,,,,,0,,,70,0
9945,note_on,15,0,1,,,,,,,,,0,,,78,0
9960,note_on,15,0,1,,,,,,,,,0,,,80,60
9960,note_on,15,0,3,,,,,,,,,0,,,61,60
9965,note_on,5,0,3,,,,,,,,,0,,,71,60
9990,note_on,30,0,1,,,,,,,,,0,,,92,60
9990,note_on,0,0,1,,,,,,,,,0,,,83,60
10020,note_on,30,0,1,,,,,,,,,0,,,83,0
10020,note_on,0,0,3,,,,,,,,,0,,,66,60
10020,note_on,55,0,3,,,,,,,,,0,,,71,0
10020,note_on,0,0,3,,,,,,,,,0,,,61,0
10020,note_on,0,0,1,,,,,,,,,0,,,75,60
10020,note_on,0,0,1,,,,,,,,,0,,,80,0
10020,note_on,0,0,1,,,,,,,,,0,,,92,0
10035,note_on,15,0,3,,,,,,,,,0,,,66,0
10035,note_on,15,0,1,,,,,,,,,0,,,75,0
10050,note_on,15,0,3,,,,,,,,,0,,,68,60
10050,note_on,15,0,1,,,,,,,,,0,,,77,60
10065,note_on,15,0,3,,,,,,,,,0,,,68,0
10065,note_on,15,0,1,,,,,,,,,0,,,77,0
10080,note_on,0,0,3,,,,,,,,,0,,,54,60
10080,note_on,15,0,3,,,,,,,,,0,,,70,60
10080,note_on,15,0,1,,,,,,,,,0,,,78,60
10095,note_on,15,0,1,,,,,,,,,0,,,78,0
10095,note_on,15,0,3,,,,,,,,,0,,,70,0
10110,note_on,0,0,1,,,,,,,,,0,,,82,60
10110,note_on,15,0,1,,,,,,,,,0,,,90,60
10125,note_on,15,0,1,,,,,,,,,0,,,82,0
10125,note_on,0,0,1,,,,,,,,,0,,,90,0
10140,note_on,0,0,3,,,,,,,,,0,,,66,60
10140,note_on,45,0,3,,,,,,,,,0,,,54,0
10155,note_on,15,0,3,,,,,,,,,0,,,66,0
10170,note_on,15,0,3,,,,,,,,,0,,,78,60
10185,note_on,15,0,3,,,,,,,,,0,,,78,0
10200,note_on,15,0,3,,,,,,,,,0,,,67,60
10215,note_on,15,0,3,,,,,,,,,0,,,67,0
10230,note_on,15,0,3,,,,,,,,,0,,,79,60
10245,note_on,15,0,3,,,,,,,,,0,,,79,0
10260,note_on,135,0,1,,,,,,,,,0,,,68,90
10275,note_on,15,0,1,,,,,,,,,0,,,68,0
10290,note_on,15,0,1,,,,,,,,,0,,,80,60
10305,note_on,15,0,1,,,,,,,,,0,,,80,0
10320,note_on,0,0,3,,,,,,,,,0,,,64,60
10320,note_on,75,0,3,,,,,,,,,0,,,68,60
10320,note_on,15,0,1,,,,,,,,,0,,,92,70
10335,note_on,15,0,3,,,,,,,,,0,,,64,0
10335,note_on,0,0,3,,,,,,,,,0,,,68,0
10335,note_on,15,0,1,,,,,,,,,0,,,92,0
10350,note_on,15,0,1,,,,,,,,,0,,,80,60
10365,note_on,15,0,1,,,,,,,,,0,,,80,0
10380,note_on,0,0,3,,,,,,,,,0,,,68,60
10380,note_on,15,0,1,,,,,,,,,0,,,92,70
10380,note_on,45,0,3,,,,,,,,,0,,,63,60
10395,note_on,0,0,3,,,,,,,,,0,,,63,0
10395,note_on,15,0,1,,,,,,,,,0,,,92,0
10395,note_on,15,0,3,,,,,,,,,0,,,68,0
10410,note_on,15,0,1,,,,,,,,,0,,,78,60
10425,note_on,15,0,1,,,,,,,,,0,,,78,0
10440,note_on,45,0,3,,,,,,,,,0,,,68,60
10440,note_on,0,0,3,,,,,,,,,0,,,61,60
10440,note_on,15,0,1,,,,,,,,,0,,,92,70
10455,note_on,15,0,1,,,,,,,,,0,,,92,0
10455,note_on,15,0,3,,,,,,,,,0,,,61,0
10455,note_on,0,0,3,,,,,,,,,0,,,68,0
10470,note_on,15,0,1,,,,,,,,,0,,,76,60
10485,note_on,15,0,1,,,,,,,,,0,,,76,0
10500,note_on,15,0,1,,,,,,,,,0,,,102,70
10500,note_on,45,0,3,,,,,,,,,0,,,75,70
10515,note_on,15,0,1,,,,,,,,,0,,,102,0
10515,note_on,15,0,3,,,,,,,,,0,,,75,0
10530,note_on,15,0,1,,,,,,,,,0,,,80,60
10545,note_on,15,0,1,,,,,,,,,0,,,80,0
10560,note_on,45,0,3,,,,,,,,,0,,,73,70
10560,note_on,15,0,1,,,,,,,,,0,,,100,70
10575,note_on,15,0,3,,,,,,,,,0,,,73,0
10575,note_on,15,0,1,,,,,,,,,0,,,100,0
10590,note_on,15,0,1,,,,,,,,,0,,,80,60
10605,note_on,15,0,1,,,,,,,,,0,,,80,0
10620,note_on,45,0,3,,,,,,,,,0,,,56,60
10620,note_on,0,0,3,,,,,,,,,0,,,72,70
10620,note_on,15,0,1,,,,,,,,,0,,,99,70
10635,note_on,15,0,1,,,,,,,,,0,,,99,0
10635,note_on,15,0,3,,,,,,,,,0,,,72,0
10650,note_on,15,0,1,,,,,,,,,0,,,80,60
10665,note_on,15,0,1,,,,,,,,,0,,,80,0
10680,note_on,45,0,3,,,,,,,,,0,,,56,0
10680,note_on,0,0,3,,,,,,,,,0,,,70,70
10680,note_on,15,0,1,,,,,,,,,0,,,97,70
10695,note_on,15,0,1,,,,,,,,,0,,,97,0
10695,note_on,15,0,3,,,,,,,,,0,,,70,0
10710,note_on,15,0,1,,,,,,,,,0,,,80,60
10725,note_on,15,0,1,,,,,,,,,0,,,80,0
10740,note_on,15,0,1,,,,,,,,,0,,,99,70
10740,note_on,45,0,3,,,,,,,,,0,,,72,70
10755,note_on,15,0,3,,,,,,,,,0,,,72,0
10755,note_on,15,0,1,,,,,,,,,0,,,99,0
10770,note_on,15,0,1,,,,,,,,,0,,,80,60
10785,note_on,15,0,1,,,,,,,,,0,,,80,0
10800,note_on,15,0,1,,,,,,,,,0,,,100,70
10800,note_on,45,0,3,,,,,,,,,0,,,61,60
10800,note_on,0,0,3,,,,,,,,,0,,,73,70
10815,note_on,15,0,3,,,,,,,,,0,,,73,0
10815,note_on,15,0,1,,,,,,,,,0,,,100,0
10830,note_on,15,0,1,,,,,,,,,0,,,80,60
10845,note_on,15,0,1,,,,,,,,,0,,,80,0
10860,note_on,45,0,3,,,,,,,,,0,,,61,0
10860,note_on,0,0,3,,,,,,,,,0,,,76,70
10860,note_on,15,0,1,,,,,,,,,0,,,97,70
10875,note_on,15,0,3,,,,,,,,,0,,,76,0
10875,note_on,15,0,1,,,,,,,,,0,,,97,0
10890,note_on,15,0,1,,,,,,,,,0,,,80,60
10905,note_on,15,0,1,,,,,,,,,0,,,80,0
10920,note_on,45,0,3,,,,,,,,,0,,,67,80
10935,note_on,15,0,3,,,,,,,,,0,,,67,0
10950,note_on,15,0,3,,,,,,,,,0,,,79,60
10965,note_on,15,0,3,,,,,,,,,0,,,79,0
10980,note_on,75,0,1,,,,,,,,,0,,,66,90
10995,note_on,15,0,1,,,,,,,,,0,,,66,0
11010,note_on,15,0,1,,,,,,,,,0,,,78,60
11025,note_on,15,0,1,,,,,,,,,0,,,78,0
11040,note_on,15,0,1,,,,,,,,,0,,,90,70
11040,note_on,0,0,3,,,,,,,,,0,,,66,60
11040,note_on,75,0,3,,,,,,,,,0,,,63,60
11055,note_on,15,0,1,,,,,,,,,0,,,90,0
11055,note_on,15,0,3,,,,,,,,,0,,,66,0
11055,note_on,0,0,3,,,,,,,,,0,,,63,0
11070,note_on,15,0,1,,,,,,,,,0,,,78,60
11085,note_on,15,0,1,,,,,,,,,0,,,78,0
11100,note_on,45,0,3,,,,,,,,,0,,,61,60
11100,note_on,15,0,1,,,,,,,,,0,,,90,70
11100,note_on,0,0,3,,,,,,,,,0,,,66,60
11115,note_on,15,0,1,,,,,,,,,0,,,90,0
11115,note_on,15,0,3,,,,,,,,,0,,,66,0
11115,note_on,0,0,3,,,,,,,,,0,,,61,0
11130,note_on,15,0,1,,,,,,,,,0,,,75,60
11145,note_on,15,0,1,,,,,,,,,0,,,75,0
11160,note_on,15,0,1,,,,,,,,,0,,,90,70
11160,note_on,0,0,3,,,,,,,,,0,,,66,60
11160,note_on,45,0,3,,,,,,,,,0,,,59,60
11175,note_on,15,0,1,,,,,,,,,0,,,90,0
11190,note_on,15,0,1,,,,,,,,,0,,,75,60
11205,note_on,15,0,1,,,,,,,,,0,,,75,0
11220,note_on,0,0,3,,,,,,,,,0,,,73,70
11220,note_on,0,0,3,,,,,,,,,0,,,59,0
11220,note_on,15,0,1,,,,,,,,,0,,,100,70
11220,note_on,60,0,3,,,,,,,,,0,,,66,0
11235,note_on,15,0,1,,,,,,,,,0,,,100,0
11235,note_on,15,0,3,,,,,,,,,0,,,73,0
11250,note_on,15,0,1,,,,,,,,,0,,,78,60
11265,note_on,15,0,1,,,,,,,,,0,,,78,0
11280,note_on,15,0,1,,,,,,,,,0,,,99,70
11280,note_on,45,0,3,,,,,,,,,0,,,71,70
11295,note_on,15,0,1,,,,,,,,,0,,,99,0
11295,note_on,15,0,3,,,,,,,,,0,,,71,0
11310,note_on,15,0,1,,,,,,,,,0,,,78,60
11325,note_on,15,0,1,,,,,,,,,0,,,78,0
11340,note_on,15,0,1,,,,,,,,,0,,,97,70
11340,note_on,45,0,3,,,,,,,,,0,,,54,60
11340,note_on,0,0,3,,,,,,,,,0,,,70,70
11355,note_on,15,0,1,,,,,,,,,0,,,97,0
11355,note_on,15,0,3,,,,,,,,,0,,,70,0
11370,note_on,15,0,1,,,,,,,,,0,,,78,60
11385,note_on,15,0,1,,,,,,,,,0,,,78,0
11400,note_on,45,0,3,,,,,,,,,0,,,54,0
11400,note_on,15,0,1,,,,,,,,,0,,,95,70
11400,note_on,0,0,3,,,,,,,,,0,,,68,70
11415,note_on,15,0,3,,,,,,,,,0,,,68,0
11415,note_on,15,0,1,,,,,,,,,0,,,95,0
11430,note_on,15,0,1,,,,,,,,,0,,,78,60
11445,note_on,15,0,1,,,,,,,,,0,,,78,0
11460,note_on,15,0,1,,,,,,,,,0,,,97,70
11460,note_on,45,0,3,,,,,,,,,0,,,70,70
11475,note_on,15,0,1,,,,,,,,,0,,,97,0
11475,note_on,15,0,3,,,,,,,,,0,,,70,0
11490,note_on,15,0,1,,,,,,,,,0,,,78,60
11505,note_on,15,0,1,,,,,,,,,0,,,78,0
11520,note_on,45,0,3,,,,,,,,,0,,,59,60
11520,note_on,15,0,1,,,,,,,,,0,,,99,70
11520,note_on,0,0,3,,,,,,,,,0,,,71,70
11535,note_on,15,0,1,,,,,,,,,0,,,99,0
11535,note_on,15,0,3,,,,,,,,,0,,,71,0
11550,note_on,15,0,1,,,,,,,,,0,,,78,60
11565,note_on,15,0,1,,,,,,,,,0,,,78,0
11580,note_on,45,0,3,,,,,,,,,0,,,59,0
11580,note_on,15,0,1,,,,,,,,,0,,,95,70
11580,note_on,0,0,3,,,,,,,,,0,,,75,70
11595,note_on,15,0,3,,,,,,,,,0,,,75,0
11595,note_on,15,0,1,,,,,,,,,0,,,95,0
11610,note_on,15,0,1,,,,,,,,,0,,,78,60
11625,note_on,15,0,1,,,,,,,,,0,,,78,0
11640,note_on,45,0,3,,,,,,,,,0,,,62,80
11655,note_on,15,0,3,,,,,,,,,0,,,62,0
11670,note_on,15,0,3,,,,,,,,,0,,,74,60
11685,note_on,15,0,3,,,,,,,,,0,,,74,0
11700,note_on,75,0,1,,,,,,,,,0,,,63,90
11715,note_on,15,0,1,,,,,,,,,0,,,63,0
11730,note_on,15,0,1,,,,,,,,,0,,,75,60
11745,note_on,15,0,1,,,,,,,,,0,,,75,0
11760,note_on,75,0,3,,,,,,,,,0,,,55,60
11760,note_on,15,0,1,,,,,,,,,0,,,87,60
11760,note_on,0,0,3,,,,,,,,,0,,,63,60
11775,note_on,15,0,3,,,,,,,,,0,,,63,0
11775,note_on,0,0,3,,,,,,,,,0,,,55,0
11775,note_on,15,0,1,,,,,,,,,0,,,87,0
11790,note_on,15,0,1,,,,,,,,,0,,,75,60
11805,note_on,15,0,1,,,,,,,,,0,,,75,0
11820,note_on,45,0,3,,,,,,,,,0,,,65,60
11820,note_on,15,0,1,,,,,,,,,0,,,87,60
11820,note_on,0,0,3,,,,,,,,,0,,,56,60
11835,note_on,0,0,3,,,,,,,,,0,,,65,0
11835,note_on,15,0,3,,,,,,,,,0,,,56,0
11835,note_on,15,0,1,,,,,,,,,0,,,87,0
11850,note_on,15,0,1,,,,,,,,,0,,,74,60
11865,note_on,15,0,1,,,,,,,,,0,,,74,0
11880,note_on,15,0,1,,,,,,,,,0,,,87,60
11880,note_on,45,0,3,,,,,,,,,0,,,58,60
11880,note_on,0,0,3,,,,,,,,,0,,,67,60
11895,note_on,15,0,1,,,,,,,,,0,,,87,0
11895,note_on,0,0,3,,,,,,,,,0,,,58,0
11895,note_on,15,0,3,,,,,,,,,0,,,67,0
11910,note_on,15,0,1,,,,,,,,,0,,,73,60
11925,note_on,15,0,1,,,,,,,,,0,,,73,0
11940,note_on,45,0,3,,,,,,,,,0,,,58,60
11940,note_on,15,0,1,,,,,,,,,0,,,87,60
11940,note_on,0,0,3,,,,,,,,,0,,,67,60
11955,note_on,15,0,3,,,,,,,,,0,,,67,0
11955,note_on,0,0,3,,,,,,,,,0,,,58,0
11955,note_on,15,0,1,,,,,,,,,0,,,87,0
11970,note_on,15,0,1,,,,,,,,,0,,,73,60
11985,note_on,15,0,1,,,,,,,,,0,,,73,0
12000,note_on,45,0,3,,,,,,,,,0,,,59,60
12000,note_on,0,0,3,,,,,,,,,0,,,68,60
12000,note_on,15,0,1,,,,,,,,,0,,,87,60
12015,note_on,15,0,3,,,,,,,,,0,,,68,0
12015,note_on,0,0,3,,,,,,,,,0,,,59,0
12015,note_on,15,0,1,,,,,,,,,0,,,87,0
12030,note_on,15,0,1,,,,,,,,,0,,,71,60
12045,note_on,15,0,1,,,,,,,,,0,,,71,0
12060,note_on,45,0,3,,,,,,,,,0,,,61,60
12060,note_on,0,0,1,,,,,,,,,0,,,88,60
12060,note_on,0,0,3,,,,,,,,,0,,,70,60
12060,note_on,15,0,1,,,,,,,,,0,,,76,60
12075,note_on,0,0,1,,,,,,,,,0,,,76,0
12075,note_on,0,0,3,,,,,,,,,0,,,61,0
12075,note_on,15,0,1,,,,,,,,,0,,,88,0
12075,note_on,15,0,3,,,,,,,,,0,,,70,0
12090,note_on,15,0,1,,,,,,,,,0,,,82,60
12090,note_on,0,0,1,,,,,,,,,0,,,87,60
12105,note_on,15,0,1,,,,,,,,,0,,,87,0
12105,note_on,0,0,1,,,,,,,,,0,,,82,0
12120,note_on,0,0,1,,,,,,,,,0,,,85,60
12120,note_on,15,0,1,,,,,,,,,0,,,73,60
12135,note_on,0,0,1,,,,,,,,,0,,,73,0
12135,note_on,15,0,1,,,,,,,,,0,,,85,0
12150,note_on,0,0,1,,,,,,,,,0,,,83,60
12150,note_on,15,0,1,,,,,,,,,0,,,76,60
12165,note_on,0,0,1,,,,,,,,,0,,,76,0
12165,note_on,15,0,1,,,,,,,,,0,,,83,0
12180,note_on,0,0,1,,,,,,,,,0,,,82,60
12180,note_on,0,0,3,,,,,,,,,0,,,65,60
12180,note_on,105,0,3,,,,,,,,,0,,,62,60
12180,note_on,15,0,1,,,,,,,,,0,,,71,60
12195,note_on,0,0,1,,,,,,,,,0,,,71,0
12195,note_on,0,0,3,,,,,,,,,0,,,62,0
12195,note_on,15,0,1,,,,,,,,,0,,,82,0
12195,note_on,15,0,3,,,,,,,,,0,,,65,0
12210,note_on,0,0,1,,,,,,,,,0,,,80,60
12210,note_on,15,0,1,,,,,,,,,0,,,77,60
12225,note_on,15,0,1,,,,,,,,,0,,,80,0
12225,note_on,0,0,1,,,,,,,,,0,,,77,0
12240,note_on,15,0,1,,,,,,,,,0,,,79,60
12240,note_on,0,0,1,,,,,,,,,0,,,70,60
12240,note_on,0,0,3,,,,,,,,,0,,,67,60
12240,note_on,45,0,3,,,,,,,,,0,,,63,60
12255,note_on,0,0,1,,,,,,,,,0,,,79,0
12255,note_on,0,0,3,,,,,,,,,0,,,63,0
12255,note_on,15,0,3,,,,,,,,,0,,,67,0
12255,note_on,15,0,1,,,,,,,,,0,,,70,0
12270,note_on,0,0,1,,,,,,,,,0,,,75,60
12270,note_on,15,0,1,,,,,,,,,0,,,82,60
12285,note_on,0,0,1,,,,,,,,,0,,,82,0
12285,note_on,15,0,1,,,,,,,,,0,,,75,0
12300,note_on,0,0,1,,,,,,,,,0,,,79,60
12300,note_on,15,0,1,,,,,,,,,0,,,83,60
12315,note_on,0,0,1,,,,,,,,,0,,,83,0
12315,note_on,15,0,1,,,,,,,,,0,,,79,0
12330,note_on,15,0,1,,,,,,,,,0,,,82,60
12330,note_on,0,0,1,,,,,,,,,0,,,75,60
12345,note_on,15,0,1,,,,,,,,,0,,,75,0
12345,note_on,0,0,1,,,,,,,,,0,,,82,0
12360,note_on,105,0,3,,,,,,,,,0,,,74,80
12375,note_on,15,0,3,,,,,,,,,0,,,74,0
12390,note_on,15,0,3,,,,,,,,,0,,,86,60
12405,note_on,15,0,3,,,,,,,,,0,,,86,0
12420,note_on,75,0,1,,,,,,,,,0,,,75,90
12435,note_on,15,0,1,,,,,,,,,0,,,75,0
12450,note_on,15,0,1,,,,,,,,,0,,,87,60
12465,note_on,15,0,1,,,,,,,,,0,,,87,0
12480,note_on,0,0,3,,,,,,,,,0,,,67,60
12480,note_on,15,0,1,,,,,,,,,0,,,99,60
12480,note_on,75,0,3,,,,,,,,,0,,,75,60
12495,note_on,0,0,3,,,,,,,,,0,,,75,0
12495,note_on,15,0,3,,,,,,,,,0,,,67,0
12495,note_on,15,0,1,,,,,,,,,0,,,99,0
12510,note_on,15,0,1,,,,,,,,,0,,,87,60
12525,note_on,15,0,1,,,,,,,,,0,,,87,0
12540,note_on,45,0,3,,,,,,,,,0,,,68,60
12540,note_on,15,0,1,,,,,,,,,0,,,99,60
12540,note_on,0,0,3,,,,,,,,,0,,,77,60
12555,note_on,15,0,3,,,,,,,,,0,,,77,0
12555,note_on,0,0,3,,,,,,,,,0,,,68,0
12555,note_on,15,0,1,,,,,,,,,0,,,99,0
12570,note_on,15,0,1,,,,,,,,,0,,,86,60
12585,note_on,15,0,1,,,,,,,,,0,,,86,0
12600,note_on,15,0,1,,,,,,,,,0,,,99,60
12600,note_on,0,0,3,,,,,,,,,0,,,70,60
12600,note_on,45,0,3,,,,,,,,,0,,,79,60
12615,note_on,15,0,1,,,,,,,,,0,,,99,0
12615,note_on,0,0,3,,,,,,,,,0,,,79,0
12615,note_on,15,0,3,,,,,,,,,0,,,70,0
12630,note_on,15,0,1,,,,,,,,,0,,,85,60
12645,note_on,15,0,1,,,,,,,,,0,,,85,0
12660,note_on,0,0,3,,,,,,,,,0,,,70,60
12660,note_on,15,0,1,,,,,,,,,0,,,99,60
12660,note_on,45,0,3,,,,,,,,,0,,,79,60
12675,note_on,15,0,1,,,,,,,,,0,,,99,0
12675,note_on,0,0,3,,,,,,,,,0,,,79,0
12675,note_on,15,0,3,,,,,,,,,0,,,70,0
12690,note_on,15,0,1,,,,,,,,,0,,,85,60
12705,note_on,15,0,1,,,,,,,,,0,,,85,0
12720,note_on,15,0,1,,,,,,,,,0,,,99,60
12720,note_on,45,0,3,,,,,,,,,0,,,71,60
12720,note_on,0,0,3,,,,,,,,,0,,,80,60
12735,note_on,15,0,3,,,,,,,,,0,,,80,0
12735,note_on,15,0,1,,,,,,,,,0,,,99,0
12735,note_on,0,0,3,,,,,,,,,0,,,71,0
12750,note_on,15,0,1,,,,,,,,,0,,,83,60
12765,note_on,15,0,1,,,,,,,,,0,,,83,0
12780,note_on,15,0,1,,,,,,,,,0,,,88,60
12780,note_on,45,0,3,,,,,,,,,0,,,73,60
12780,note_on,0,0,3,,,,,,,,,0,,,81,60
12780,note_on,0,0,1,,,,,,,,,0,,,100,60
12795,note_on,15,0,1,,,,,,,,,0,,,100,0
12795,note_on,0,0,3,,,,,,,,,0,,,73,0
12795,note_on,15,0,3,,,,,,,,,0,,,81,0
12795,note_on,0,0,1,,,,,,,,,0,,,88,0
12810,note_on,0,0,1,,,,,,,,,0,,,99,60
12810,note_on,15,0,1,,,,,,,,,0,,,93,60
12825,note_on,15,0,1,,,,,,,,,0,,,99,0
12825,note_on,0,0,1,,,,,,,,,0,,,93,0
12840,note_on,15,0,1,,,,,,,,,0,,,85,60
12840,note_on,0,0,1,,,,,,,,,0,,,97,60
12855,note_on,15,0,1,,,,,,,,,0,,,97,0
12855,note_on,0,0,1,,,,,,,,,0,,,85,0
12870,note_on,0,0,1,,,,,,,,,0,,,95,60
12870,note_on,15,0,1,,,,,,,,,0,,,88,60
12885,note_on,0,0,1,,,,,,,,,0,,,88,0
12885,note_on,15,0,1,,,,,,,,,0,,,95,0
12900,note_on,0,0,1,,,,,,,,,0,,,93,60
12900,note_on,0,0,3,,,,,,,,,0,,,74,60
12900,note_on,105,0,3,,,,,,,,,0,,,77,60
12900,note_on,15,0,1,,,,,,,,,0,,,83,60
12915,note_on,0,0,1,,,,,,,,,0,,,83,0
12915,note_on,0,0,3,,,,,,,,,0,,,77,0
12915,note_on,15,0,1,,,,,,,,,0,,,93,0
12915,note_on,15,0,3,,,,,,,,,0,,,74,0
12930,note_on,15,0,1,,,,,,,,,0,,,88,60
12930,note_on,0,0,1,,,,,,,,,0,,,92,60
12945,note_on,15,0,1,,,,,,,,,0,,,92,0
12945,note_on,0,0,1,,,,,,,,,0,,,88,0
12960,note_on,15,0,1,,,,,,,,,0,,,91,60
12960,note_on,0,0,1,,,,,,,,,0,,,82,60
12960,note_on,45,0,3,,,,,,,,,0,,,79,60
12960,note_on,0,0,3,,,,,,,,,0,,,75,60
12975,note_on,15,0,3,,,,,,,,,0,,,75,0
12975,note_on,15,0,1,,,,,,,,,0,,,82,0
12975,note_on,0,0,3,,,,,,,,,0,,,79,0
12975,note_on,0,0,1,,,,,,,,,0,,,91,0
12990,note_on,15,0,1,,,,,,,,,0,,,87,60
12990,note_on,0,0,1,,,,,,,,,0,,,94,60
13005,note_on,15,0,1,,,,,,,,,0,,,94,0
13005,note_on,0,0,1,,,,,,,,,0,,,87,0
13020,note_on,45,0,3,,,,,,,,,0,,,74,80
13035,note_on,15,0,3,,,,,,,,,0,,,74,0
13050,note_on,15,0,3,,,,,,,,,0,,,86,60
13065,note_on,15,0,3,,,,,,,,,0,,,86,0
13080,note_on,15,0,3,,,,,,,,,0,,,75,60
13095,note_on,15,0,3,,,,,,,,,0,,,75,0
13110,note_on,15,0,3,,,,,,,,,0,,,87,60
13125,note_on,15,0,3,,,,,,,,,0,,,87,0
13140,note_on,135,0,1,,,,,,,,,0,,,99,80
13155,note_on,15,0,1,,,,,,,,,0,,,99,0
13170,note_on,15,0,1,,,,,,,,,0,,,87,60
13185,note_on,15,0,1,,,,,,,,,0,,,87,0
13200,note_on,75,0,3,,,,,,,,,0,,,75,80
13215,note_on,15,0,3,,,,,,,,,0,,,75,0
13230,note_on,15,0,3,,,,,,,,,0,,,87,60
13245,note_on,15,0,3,,,,,,,,,0,,,87,0
13260,note_on,15,0,3,,,,,,,,,0,,,76,60
13275,note_on,15,0,3,,,,,,,,,0,,,76,0
13290,note_on,15,0,3,,,,,,,,,0,,,88,60
13305,note_on,15,0,3,,,,,,,,,0,,,88,0
13320,note_on,135,0,1,,,,,,,,,0,,,99,80
13335,note_on,15,0,1,,,,,,,,,0,,,99,0
13350,note_on,15,0,1,,,,,,,,,0,,,87,61
13365,note_on,15,0,1,,,,,,,,,0,,,87,0
13380,note_on,75,0,3,,,,,,,,,0,,,76,82
13395,note_on,15,0,3,,,,,,,,,0,,,76,0
13410,note_on,15,0,3,,,,,,,,,0,,,88,63
13425,note_on,15,0,3,,,,,,,,,0,,,88,0
13440,note_on,15,0,3,,,,,,,,,0,,,77,64
13455,note_on,15,0,3,,,,,,,,,0,,,77,0
13470,note_on,15,0,3,,,,,,,,,0,,,89,65
13485,note_on,15,0,3,,,,,,,,,0,,,89,0
13500,note_on,135,0,1,,,,,,,,,0,,,99,86
13515,note_on,15,0,1,,,,,,,,,0,,,99,0
13530,note_on,15,0,1,,,,,,,,,0,,,87,68
13545,note_on,15,0,1,,,,,,,,,0,,,87,0
13560,note_on,75,0,3,,,,,,,,,0,,,78,89
13575,note_on,15,0,3,,,,,,,,,0,,,78,0
13590,note_on,15,0,3,,,,,,,,,0,,,90,70
13605,note_on,15,0,3,,,,,,,,,0,,,90,0
13620,note_on,75,0,1,,,,,,,,,0,,,99,91
13635,note_on,15,0,1,,,,,,,,,0,,,99,0
13650,note_on,15,0,1,,,,,,,,,0,,,87,72
13665,note_on,15,0,1,,,,,,,,,0,,,87,0
13680,note_on,75,0,3,,,,,,,,,0,,,79,93
13695,note_on,15,0,3,,,,,,,,,0,,,79,0
13710,note_on,15,0,3,,,,,,,,,0,,,91,74
13725,note_on,15,0,3,,,,,,,,,0,,,91,0
13740,note_on,75,0,1,,,,,,,,,0,,,99,96
13755,note_on,15,0,1,,,,,,,,,0,,,99,0
13770,note_on,15,0,1,,,,,,,,,0,,,87,77
13785,note_on,15,0,1,,,,,,,,,0,,,87,0
13800,note_on,75,0,3,,,,,,,,,0,,,80,98
13815,note_on,15,0,3,,,,,,,,,0,,,80,0
13830,note_on,15,0,3,,,,,,,,,0,,,92,79
13845,note_on,15,0,3,,,,,,,,,0,,,92,0
13860,note_on,75,0,1,,,,,,,,,0,,,99,80
13875,note_on,15,0,1,,,,,,,,,0,,,99,0
13890,note_on,15,0,1,,,,,,,,,0,,,81,81
13905,note_on,15,0,1,,,,,,,,,0,,,81,0
13920,note_on,15,0,1,,,,,,,,,0,,,99,83
13935,note_on,15,0,1,,,,,,,,,0,,,99,0
13950,note_on,15,0,1,,,,,,,,,0,,,82,84
13965,note_on,15,0,1,,,,,,,,,0,,,82,0
13980,note_on,15,0,1,,,,,,,,,0,,,99,85
13995,note_on,15,0,1,,,,,,,,,0,,,99,0
14010,note_on,15,0,1,,,,,,,,,0,,,83,86
14025,note_on,15,0,1,,,,,,,,,0,,,83,0
14040,note_on,15,0,1,,,,,,,,,0,,,99,87
14055,note_on,15,0,1,,,,,,,,,0,,,99,0
14070,note_on,15,0,1,,,,,,,,,0,,,84,88
14085,note_on,15,0,1,,,,,,,,,0,,,84,0
14100,note_on,15,0,1,,,,,,,,,0,,,99,89
14115,note_on,15,0,1,,,,,,,,,0,,,99,0
14130,note_on,15,0,1,,,,,,,,,0,,,85,91
14145,note_on,15,0,1,,,,,,,,,0,,,85,0
14160,note_on,15,0,1,,,,,,,,,0,,,99,92
14175,note_on,15,0,1,,,,,,,,,0,,,99,0
14190,note_on,15,0,1,,,,,,,,,0,,,86,93
14205,note_on,15,0,1,,,,,,,,,0,,,86,0
14220,note_on,15,0,1,,,,,,,,,0,,,99,94
14235,note_on,15,0,1,,,,,,,,,0,,,99,0
14250,note_on,15,0,1,,,,,,,,,0,,,87,95
14265,note_on,15,0,1,,,,,,,,,0,,,87,0
14280,note_on,15,0,1,,,,,,,,,0,,,99,96
14295,note_on,15,0,1,,,,,,,,,0,,,99,0
14310,note_on,15,0,1,,,,,,,,,0,,,87,98
14325,note_on,15,0,1,,,,,,,,,0,,,87,0
14340,note_on,15,0,1,,,,,,,,,0,,,99,99
14355,note_on,15,0,1,,,,,,,,,0,,,99,0
14370,note_on,15,0,1,,,,,,,,,0,,,87,100
14385,note_on,15,0,1,,,,,,,,,0,,,87,0
14400,note_on,15,0,1,,,,,,,,,0,,,99,100
14415,note_on,15,0,1,,,,,,,,,0,,,99,0
14430,note_on,15,0,1,,,,,,,,,0,,,87,97
14445,note_on,15,0,1,,,,,,,,,0,,,87,0
14460,note_on,15,0,1,,,,,,,,,0,,,99,93
14475,note_on,15,0,1,,,,,,,,,0,,,99,0
14490,note_on,15,0,1,,,,,,,,,0,,,87,89
14505,note_on,15,0,1,,,,,,,,,0,,,87,0
14520,note_on,15,0,1,,,,,,,,,0,,,99,86
14535,note_on,15,0,1,,,,,,,,,0,,,99,0
14550,note_on,15,0,1,,,,,,,,,0,,,87,82
14565,note_on,15,0,1,,,,,,,,,0,,,87,0
14580,note_on,15,0,1,,,,,,,,,0,,,99,78
14595,note_on,15,0,1,,,,,,,,,0,,,99,0
14610,note_on,15,0,1,,,,,,,,,0,,,87,74
14625,note_on,15,0,1,,,,,,,,,0,,,87,0
14640,note_on,15,0,1,,,,,,,,,0,,,75,71
14655,note_on,15,0,1,,,,,,,,,0,,,75,0
14670,note_on,15,0,1,,,,,,,,,0,,,87,67
14685,note_on,15,0,1,,,,,,,,,0,,,87,0
14700,note_on,15,0,1,,,,,,,,,0,,,99,63
14715,note_on,15,0,1,,,,,,,,,0,,,99,0
14730,note_on,15,0,1,,,,,,,,,0,,,87,60
14745,note_on,15,0,1,,,,,,,,,0,,,87,0
14760,note_on,15,0,1,,,,,,,,,0,,,75,60
14775,note_on,15,0,1,,,,,,,,,0,,,75,0
14790,note_on,15,0,1,,,,,,,,,0,,,87,57
14805,note_on,15,0,1,,,,,,,,,0,,,87,0
14820,note_on,15,0,1,,,,,,,,,0,,,99,53
14835,note_on,15,0,1,,,,,,,,,0,,,99,0
14850,note_on,15,0,1,,,,,,,,,0,,,87,49
14865,note_on,15,0,1,,,,,,,,,0,,,87,0
14880,note_on,15,0,1,,,,,,,,,0,,,75,46
14880,note_on,1035,0,3,,,,,,,,,0,,,63,56
14895,note_on,15,0,1,,,,,,,,,0,,,75,0
14895,note_on,15,0,3,,,,,,,,,0,,,63,0
14910,note_on,15,0,1,,,,,,,,,0,,,87,42
14925,note_on,15,0,1,,,,,,,,,0,,,87,0
14940,note_on,15,0,1,,,,,,,,,0,,,99,40
14940,note_on,45,0,3,,,,,,,,,0,,,75,50
14955,note_on,15,0,1,,,,,,,,,0,,,99,0
14955,note_on,15,0,3,,,,,,,,,0,,,75,0
14970,note_on,15,0,1,,,,,,,,,0,,,87,40
14985,note_on,15,0,1,,,,,,,,,0,,,87,0
15000,note_on,15,0,1,,,,,,,,,0,,,75,50
15015,note_on,15,0,1,,,,,,,,,0,,,75,0
15030,note_on,15,0,1,,,,,,,,,0,,,87,40
15045,note_on,15,0,1,,,,,,,,,0,,,87,0
15060,note_on,15,0,1,,,,,,,,,0,,,99,40
15060,note_on,105,0,3,,,,,,,,,0,,,73,50
15075,note_on,15,0,1,,,,,,,,,0,,,99,0
15075,note_on,15,0,3,,,,,,,,,0,,,73,0
15090,note_on,15,0,1,,,,,,,,,0,,,87,40
15105,note_on,15,0,1,,,,,,,,,0,,,87,0
15120,note_on,45,0,3,,,,,,,,,0,,,56,40
15120,note_on,0,0,3,,,,,,,,,0,,,71,50
15120,note_on,15,0,1,,,,,,,,,0,,,75,40
15135,note_on,15,0,3,,,,,,,,,0,,,71,0
15135,note_on,15,0,1,,,,,,,,,0,,,75,0
15150,note_on,15,0,1,,,,,,,,,0,,,87,40
15165,note_on,15,0,1,,,,,,,,,0,,,87,0
15180,note_on,0,0,3,,,,,,,,,0,,,71,50
15180,note_on,45,0,3,,,,,,,,,0,,,56,0
15180,note_on,15,0,1,,,,,,,,,0,,,99,40
15195,note_on,15,0,3,,,,,,,,,0,,,71,0
15195,note_on,15,0,1,,,,,,,,,0,,,99,0
15210,note_on,15,0,1,,,,,,,,,0,,,87,40
15225,note_on,15,0,1,,,,,,,,,0,,,87,0
15240,note_on,15,0,1,,,,,,,,,0,,,75,40
15240,note_on,45,0,3,,,,,,,,,0,,,70,50
15255,note_on,15,0,3,,,,,,,,,0,,,70,0
15255,note_on,15,0,1,,,,,,,,,0,,,75,0
15270,note_on,15,0,1,,,,,,,,,0,,,87,40
15285,note_on,15,0,1,,,,,,,,,0,,,87,0
15300,note_on,45,0,3,,,,,,,,,0,,,59,40
15300,note_on,0,0,3,,,,,,,,,0,,,68,50
15300,note_on,15,0,1,,,,,,,,,0,,,99,40
15315,note_on,15,0,3,,,,,,,,,0,,,68,0
15315,note_on,15,0,1,,,,,,,,,0,,,99,0
15330,note_on,15,0,1,,,,,,,,,0,,,87,40
15345,note_on,15,0,1,,,,,,,,,0,,,87,0
15360,note_on,15,0,1,,,,,,,,,0,,,75,40
15360,note_on,0,0,3,,,,,,,,,0,,,67,50
15360,note_on,45,0,3,,,,,,,,,0,,,59,0
15375,note_on,15,0,1,,,,,,,,,0,,,75,0
15375,note_on,15,0,3,,,,,,,,,0,,,67,0
15390,note_on,15,0,1,,,,,,,,,0,,,87,40
15405,note_on,15,0,1,,,,,,,,,0,,,87,0
15420,note_on,15,0,1,,,,,,,,,0,,,99,40
15420,note_on,45,0,3,,,,,,,,,0,,,68,50
15435,note_on,15,0,1,,,,,,,,,0,,,99,0
15435,note_on,15,0,3,,,,,,,,,0,,,68,0
15450,note_on,15,0,1,,,,,,,,,0,,,87,40
15465,note_on,15,0,1,,,,,,,,,0,,,87,0
15480,note_on,45,0,3,,,,,,,,,0,,,67,40
15480,note_on,15,0,1,,,,,,,,,0,,,75,40
15485,note_on,5,0,3,,,,,,,,,0,,,70,50
15495,note_on,15,0,1,,,,,,,,,0,,,75,0
15500,note_on,15,0,3,,,,,,,,,0,,,70,0
15510,note_on,15,0,1,,,,,,,,,0,,,87,40
15525,note_on,15,0,1,,,,,,,,,0,,,87,0
15540,note_on,15,0,1,,,,,,,,,0,,,99,40
15540,note_on,40,0,3,,,,,,,,,0,,,67,0
15540,note_on,0,0,3,,,,,,,,,0,,,63,50
15555,note_on,15,0,3,,,,,,,,,0,,,63,0
15555,note_on,15,0,1,,,,,,,,,0,,,99,0
15570,note_on,15,0,1,,,,,,,,,0,,,87,40
15585,note_on,15,0,1,,,,,,,,,0,,,87,0
15600,note_on,15,0,1,,,,,,,,,0,,,75,40
15600,note_on,45,0,3,,,,,,,,,0,,,63,50
15615,note_on,15,0,1,,,,,,,,,0,,,75,0
15615,note_on,15,0,3,,,,,,,,,0,,,63,0
15630,note_on,15,0,1,,,,,,,,,0,,,87,40
15645,note_on,15,0,1,,,,,,,,,0,,,87,0
15660,note_on,15,0,1,,,,,,,,,0,,,99,40
15660,note_on,0,0,3,,,,,,,,,0,,,64,50
15660,note_on,45,0,3,,,,,,,,,0,,,55,40
15675,note_on,15,0,1,,,,,,,,,0,,,99,0
15675,note_on,15,0,3,,,,,,,,,0,,,64,0
15690,note_on,15,0,1,,,,,,,,,0,,,87,40
15705,note_on,15,0,1,,,,,,,,,0,,,87,0
15720,note_on,45,0,3,,,,,,,,,0,,,55,0
15720,note_on,0,0,3,,,,,,,,,0,,,63,50
15720,note_on,15,0,1,,,,,,,,,0,,,75,40
15735,note_on,15,0,3,,,,,,,,,0,,,63,0
15735,note_on,15,0,1,,,,,,,,,0,,,75,0
15750,note_on,15,0,1,,,,,,,,,0,,,87,40
15765,note_on,15,0,1,,,,,,,,,0,,,87,0
15780,note_on,15,0,1,,,,,,,,,0,,,99,40
15780,note_on,45,0,3,,,,,,,,,0,,,61,50
15795,note_on,15,0,1,,,,,,,,,0,,,99,0
15795,note_on,15,0,3,,,,,,,,,0,,,61,0
15810,note_on,15,0,1,,,,,,,,,0,,,87,40
15825,note_on,15,0,1,,,,,,,,,0,,,87,0
15840,note_on,15,0,1,,,,,,,,,0,,,75,40
15840,note_on,0,0,4,,,,,,,,,0,,,59,50
15840,note_on,7800,0,4,,,,,,,,,0,,,56,40
15855,note_on,15,0,1,,,,,,,,,0,,,75,0
15855,note_on,15,0,4,,,,,,,,,0,,,59,0
15870,note_on,15,0,1,,,,,,,,,0,,,87,40
15885,note_on,15,0,1,,,,,,,,,0,,,87,0
15900,note_on,15,0,1,,,,,,,,,0,,,99,40
15900,note_on,45,0,4,,,,,,,,,0,,,56,0
15900,note_on,0,0,4,,,,,,,,,0,,,59,50
15915,note_on,15,0,1,,,,,,,,,0,,,99,0
15915,note_on,15,0,4,,,,,,,,,0,,,59,0
15930,note_on,15,0,1,,,,,,,,,0,,,87,40
15945,note_on,15,0,1,,,,,,,,,0,,,87,0
15960,note_on,15,0,1,,,,,,,,,0,,,75,40
15960,note_on,45,0,4,,,,,,,,,0,,,58,50
15975,note_on,15,0,4,,,,,,,,,0,,,58,0
15975,note_on,15,0,1,,,,,,,,,0,,,75,0
15990,note_on,15,0,1,,,,,,,,,0,,,87,40
16005,note_on,15,0,1,,,,,,,,,0,,,87,0
16020,note_on,15,0,1,,,,,,,,,0,,,99,40
16020,note_on,45,0,4,,,,,,,,,0,,,52,40
16025,note_on,5,0,4,,,,,,,,,0,,,56,50
16035,note_on,15,0,1,,,,,,,,,0,,,99,0
16040,note_on,15,0,4,,,,,,,,,0,,,56,0
16050,note_on,15,0,1,,,,,,,,,0,,,87,40
16065,note_on,15,0,1,,,,,,,,,0,,,87,0
16080,note_on,0,0,4,,,,,,,,,0,,,55,50
16080,note_on,15,0,1,,,,,,,,,0,,,75,40
16080,note_on,40,0,4,,,,,,,,,0,,,52,0
16095,note_on,15,0,4,,,,,,,,,0,,,55,0
16095,note_on,15,0,1,,,,,,,,,0,,,75,0
16110,note_on,15,0,1,,,,,,,,,0,,,87,40
16125,note_on,15,0,1,,,,,,,,,0,,,87,0
16140,note_on,15,0,1,,,,,,,,,0,,,99,40
16140,note_on,45,0,4,,,,,,,,,0,,,56,50
16155,note_on,15,0,1,,,,,,,,,0,,,99,0
16155,note_on,15,0,4,,,,,,,,,0,,,56,0
16170,note_on,15,0,1,,,,,,,,,0,,,87,40
16185,note_on,15,0,1,,,,,,,,,0,,,87,0
16200,note_on,15,0,1,,,,,,,,,0,,,75,40
16200,note_on,45,0,4,,,,,,,,,0,,,55,40
16200,note_on,0,0,4,,,,,,,,,0,,,58,50
16215,note_on,15,0,1,,,,,,,,,0,,,75,0
16230,note_on,15,0,1,,,,,,,,,0,,,87,40
16245,note_on,15,0,1,,,,,,,,,0,,,87,0
16260,note_on,60,0,4,,,,,,,,,0,,,58,0
16260,note_on,0,0,4,,,,,,,,,0,,,51,50
16260,note_on,15,0,1,,,,,,,,,0,,,99,40
16275,note_on,15,0,4,,,,,,,,,0,,,51,0
16275,note_on,15,0,1,,,,,,,,,0,,,99,0
16290,note_on,15,0,1,,,,,,,,,0,,,87,40
16305,note_on,15,0,1,,,,,,,,,0,,,87,0
16320,note_on,45,0,4,,,,,,,,,0,,,55,0
16320,note_on,15,0,1,,,,,,,,,0,,,75,40
16335,note_on,15,0,1,,,,,,,,,0,,,75,0
16350,note_on,15,0,1,,,,,,,,,0,,,87,40
16365,note_on,15,0,1,,,,,,,,,0,,,87,0
16365,note_on,570,0,3,,,,,,,,,0,,,63,50
16380,note_on,15,0,3,,,,,,,,,0,,,63,0
16380,note_on,0,0,3,,,,,,,,,0,,,75,50
16380,note_on,15,0,1,,,,,,,,,0,,,99,40
16395,note_on,15,0,1,,,,,,,,,0,,,99,0
16395,note_on,15,0,3,,,,,,,,,0,,,75,0
16410,note_on,15,0,1,,,,,,,,,0,,,87,40
16425,note_on,15,0,1,,,,,,,,,0,,,87,0
16440,note_on,15,0,1,,,,,,,,,0,,,75,50
16455,note_on,15,0,1,,,,,,,,,0,,,75,0
16470,note_on,15,0,1,,,,,,,,,0,,,87,40
16485,note_on,15,0,1,,,,,,,,,0,,,87,0
16500,note_on,15,0,1,,,,,,,,,0,,,99,40
16500,note_on,105,0,3,,,,,,,,,0,,,73,50
16515,note_on,15,0,1,,,,,,,,,0,,,99,0
16515,note_on,15,0,3,,,,,,,,,0,,,73,0
16530,note_on,15,0,1,,,,,,,,,0,,,87,40
16545,note_on,15,0,1,,,,,,,,,0,,,87,0
16560,note_on,45,0,3,,,,,,,,,0,,,56,40
16560,note_on,0,0,3,,,,,,,,,0,,,71,50
16560,note_on,15,0,1,,,,,,,,,0,,,75,40
16575,note_on,15,0,1,,,,,,,,,0,,,75,0
16575,note_on,15,0,3,,,,,,,,,0,,,71,0
16590,note_on,15,0,1,,,,,,,,,0,,,87,40
16605,note_on,15,0,1,,,,,,,,,0,,,87,0
16620,note_on,15,0,1,,,,,,,,,0,,,99,40
16620,note_on,0,0,3,,,,,,,,,0,,,71,50
16620,note_on,45,0,3,,,,,,,,,0,,,56,0
16635,note_on,15,0,1,,,,,,,,,0,,,99,0
16635,note_on,15,0,3,,,,,,,,,0,,,71,0
16650,note_on,15,0,1,,,,,,,,,0,,,87,40
16665,note_on,15,0,1,,,,,,,,,0,,,87,0
16680,note_on,15,0,1,,,,,,,,,0,,,75,40
16680,note_on,45,0,3,,,,,,,,,0,,,70,50
16695,note_on,15,0,3,,,,,,,,,0,,,70,0
16695,note_on,15,0,1,,,,,,,,,0,,,75,0
16710,note_on,15,0,1,,,,,,,,,0,,,87,40
16725,note_on,15,0,1,,,,,,,,,0,,,87,0
16740,note_on,0,0,3,,,,,,,,,0,,,68,50
16740,note_on,45,0,3,,,,,,,,,0,,,59,40
16740,note_on,15,0,1,,,,,,,,,0,,,99,40
16755,note_on,15,0,3,,,,,,,,,0,,,68,0
16755,note_on,15,0,1,,,,,,,,,0,,,99,0
16770,note_on,15,0,1,,,,,,,,,0,,,87,40
16785,note_on,15,0,1,,,,,,,,,0,,,87,0
16800,note_on,15,0,1,,,,,,,,,0,,,75,40
16800,note_on,45,0,3,,,,,,,,,0,,,59,0
16800,note_on,0,0,3,,,,,,,,,0,,,67,50
16815,note_on,15,0,3,,,,,,,,,0,,,67,0
16815,note_on,15,0,1,,,,,,,,,0,,,75,0
16830,note_on,15,0,1,,,,,,,,,0,,,87,40
16845,note_on,15,0,1,,,,,,,,,0,,,87,0
16860,note_on,45,0,3,,,,,,,,,0,,,68,50
16860,note_on,15,0,1,,,,,,,,,0,,,99,40
16875,note_on,15,0,1,,,,,,,,,0,,,99,0
16875,note_on,15,0,3,,,,,,,,,0,,,68,0
16890,note_on,15,0,1,,,,,,,,,0,,,87,40
16905,note_on,15,0,1,,,,,,,,,0,,,87,0
16920,note_on,15,0,1,,,,,,,,,0,,,75,40
16920,note_on,45,0,3,,,,,,,,,0,,,67,40
16920,note_on,0,0,3,,,,,,,,,0,,,70,50
16935,note_on,15,0,3,,,,,,,,,0,,,70,0
16935,note_on,15,0,1,,,,,,,,,0,,,75,0
16950,note_on,15,0,1,,,,,,,,,0,,,87,40
16965,note_on,15,0,1,,,,,,,,,0,,,87,0
16980,note_on,0,0,3,,,,,,,,,0,,,63,50
16980,note_on,45,0,3,,,,,,,,,0,,,67,0
16980,note_on,15,0,1,,,,,,,,,0,,,99,40
16995,note_on,15,0,3,,,,,,,,,0,,,63,0
16995,note_on,15,0,1,,,,,,,,,0,,,99,0
17010,note_on,15,0,1,,,,,,,,,0,,,87,40
17025,note_on,15,0,1,,,,,,,,,0,,,87,0
17040,note_on,15,0,1,,,,,,,,,0,,,75,50
17055,note_on,15,0,1,,,,,,,,,0,,,75,0
17070,note_on,15,0,1,,,,,,,,,0,,,87,40
17085,note_on,15,0,1,,,,,,,,,0,,,87,0
17100,note_on,105,0,3,,,,,,,,,0,,,61,40
17100,note_on,0,0,3,,,,,,,,,0,,,68,40
17100,note_on,0,0,3,,,,,,,,,0,,,70,40
17100,note_on,15,0,1,,,,,,,,,0,,,76,50
17115,note_on,15,0,1,,,,,,,,,0,,,76,0
17130,note_on,15,0,1,,,,,,,,,0,,,87,40
17145,note_on,15,0,1,,,,,,,,,0,,,87,0
17160,note_on,15,0,1,,,,,,,,,0,,,75,50
17160,note_on,0,0,3,,,,,,,,,0,,,68,40
17160,note_on,0,0,3,,,,,,,,,0,,,68,0
17160,note_on,0,0,3,,,,,,,,,0,,,63,40
17160,note_on,0,0,3,,,,,,,,,0,,,61,0
17160,note_on,0,0,3,,,,,,,,,0,,,70,40
17160,note_on,60,0,3,,,,,,,,,0,,,70,0
17175,note_on,15,0,1,,,,,,,,,0,,,75,0
17190,note_on,15,0,1,,,,,,,,,0,,,87,40
17205,note_on,15,0,1,,,,,,,,,0,,,87,0
17220,note_on,60,0,3,,,,,,,,,0,,,70,0
17220,note_on,15,0,1,,,,,,,,,0,,,73,50
17220,note_on,0,0,3,,,,,,,,,0,,,63,0
17220,note_on,0,0,3,,,,,,,,,0,,,64,40
17220,note_on,0,0,3,,,,,,,,,0,,,68,0
17220,note_on,0,0,3,,,,,,,,,0,,,68,40
17220,note_on,0,0,3,,,,,,,,,0,,,70,40
17235,note_on,15,0,1,,,,,,,,,0,,,73,0
17250,note_on,15,0,1,,,,,,,,,0,,,87,40
17265,note_on,15,0,1,,,,,,,,,0,,,87,0
17280,note_on,0,0,3,,,,,,,,,0,,,68,40
17280,note_on,15,0,1,,,,,,,,,0,,,75,50
17280,note_on,0,0,3,,,,,,,,,0,,,63,40
17280,note_on,0,0,3,,,,,,,,,0,,,64,0
17280,note_on,0,0,3,,,,,,,,,0,,,68,0
17280,note_on,0,0,3,,,,,,,,,0,,,71,40
17280,note_on,60,0,3,,,,,,,,,0,,,70,0
17295,note_on,15,0,1,,,,,,,,,0,,,75,0
17310,note_on,15,0,1,,,,,,,,,0,,,87,40
17325,note_on,15,0,1,,,,,,,,,0,,,87,0
17340,note_on,0,0,3,,,,,,,,,0,,,71,0
17340,note_on,0,0,3,,,,,,,,,0,,,68,0
17340,note_on,15,0,1,,,,,,,,,0,,,80,40
17340,note_on,60,0,3,,,,,,,,,0,,,63,0
17355,note_on,15,0,1,,,,,,,,,0,,,80,0
17370,note_on,15,0,1,,,,,,,,,0,,,83,40
17385,note_on,15,0,1,,,,,,,,,0,,,83,0
17400,note_on,15,0,1,,,,,,,,,0,,,87,60
17415,note_on,15,0,1,,,,,,,,,0,,,87,0
17430,note_on,15,0,1,,,,,,,,,0,,,99,40
17445,note_on,15,0,1,,,,,,,,,0,,,99,0
17460,note_on,0,0,3,,,,,,,,,0,,,63,40
17460,note_on,15,0,1,,,,,,,,,0,,,75,50
17460,note_on,0,0,3,,,,,,,,,0,,,67,40
17460,note_on,120,0,3,,,,,,,,,0,,,73,40
17475,note_on,15,0,1,,,,,,,,,0,,,75,0
17490,note_on,15,0,1,,,,,,,,,0,,,87,40
17505,note_on,15,0,1,,,,,,,,,0,,,87,0
17520,note_on,0,0,3,,,,,,,,,0,,,67,0
17520,note_on,60,0,3,,,,,,,,,0,,,63,0
17520,note_on,15,0,1,,,,,,,,,0,,,79,40
17520,note_on,0,0,3,,,,,,,,,0,,,73,0
17535,note_on,15,0,1,,,,,,,,,0,,,79,0
17550,note_on,15,0,1,,,,,,,,,0,,,82,40
17565,note_on,15,0,1,,,,,,,,,0,,,82,0
17580,note_on,15,0,1,,,,,,,,,0,,,87,60
17595,note_on,15,0,1,,,,,,,,,0,,,87,0
17610,note_on,15,0,1,,,,,,,,,0,,,99,40
17625,note_on,15,0,1,,,,,,,,,0,,,99,0
17640,note_on,120,0,3,,,,,,,,,0,,,56,40
17655,note_on,15,0,3,,,,,,,,,0,,,56,0
17670,note_on,15,0,3,,,,,,,,,0,,,63,43
17685,note_on,15,0,3,,,,,,,,,0,,,63,0
17700,note_on,15,0,3,,,,,,,,,0,,,71,47
17715,note_on,15,0,3,,,,,,,,,0,,,71,0
17730,note_on,15,0,3,,,,,,,,,0,,,80,51
17745,note_on,15,0,3,,,,,,,,,0,,,80,0
17760,note_on,135,0,1,,,,,,,,,0,,,75,54
17780,note_on,20,0,1,,,,,,,,,0,,,75,0
17780,note_on,0,0,1,,,,,,,,,0,,,87,57
17800,note_on,20,0,1,,,,,,,,,0,,,87,0
17800,note_on,0,0,1,,,,,,,,,0,,,87,59
17820,note_on,0,0,1,,,,,,,,,0,,,87,60
17820,note_on,20,0,1,,,,,,,,,0,,,87,0
17840,note_on,20,0,1,,,,,,,,,0,,,87,0
17840,note_on,0,0,1,,,,,,,,,0,,,87,60
17860,note_on,20,0,1,,,,,,,,,0,,,87,0
17860,note_on,0,0,1,,,,,,,,,0,,,99,60
17880,note_on,20,0,1,,,,,,,,,0,,,99,0
17880,note_on,0,0,1,,,,,,,,,0,,,87,60
17900,note_on,20,0,1,,,,,,,,,0,,,87,0
17900,note_on,0,0,1,,,,,,,,,0,,,87,60
17920,note_on,0,0,1,,,,,,,,,0,,,99,60
17920,note_on,20,0,1,,,,,,,,,0,,,87,0
17940,note_on,0,0,1,,,,,,,,,0,,,85,60
17940,note_on,20,0,1,,,,,,,,,0,,,99,0
17960,note_on,0,0,1,,,,,,,,,0,,,85,60
17960,note_on,20,0,1,,,,,,,,,0,,,85,0
17980,note_on,0,0,1,,,,,,,,,0,,,97,60
17980,note_on,20,0,1,,,,,,,,,0,,,85,0
18000,note_on,1680,0,4,,,,,,,,,0,,,44,70
18000,note_on,0,0,1,,,,,,,,,0,,,83,60
18000,note_on,20,0,1,,,,,,,,,0,,,97,0
18020,note_on,0,0,1,,,,,,,,,0,,,83,60
18020,note_on,20,0,1,,,,,,,,,0,,,83,0
18040,note_on,20,0,1,,,,,,,,,0,,,83,0
18040,note_on,0,0,1,,,,,,,,,0,,,95,60
18060,note_on,20,0,1,,,,,,,,,0,,,95,0
18060,note_on,0,0,1,,,,,,,,,0,,,83,60
18060,note_on,0,0,4,,,,,,,,,0,,,59,60
18060,note_on,0,0,4,,,,,,,,,0,,,51,60
18060,note_on,60,0,4,,,,,,,,,0,,,44,0
18080,note_on,0,0,1,,,,,,,,,0,,,83,60
18080,note_on,20,0,1,,,,,,,,,0,,,83,0
18100,note_on,20,0,1,,,,,,,,,0,,,83,0
18100,note_on,0,0,1,,,,,,,,,0,,,95,60
18120,note_on,0,0,4,,,,,,,,,0,,,59,60
18120,note_on,0,0,4,,,,,,,,,0,,,59,0
18120,note_on,0,0,4,,,,,,,,,0,,,51,60
18120,note_on,20,0,1,,,,,,,,,0,,,95,0
18120,note_on,60,0,4,,,,,,,,,0,,,51,0
18120,note_on,0,0,1,,,,,,,,,0,,,82,60
18140,note_on,0,0,1,,,,,,,,,0,,,82,60
18140,note_on,20,0,1,,,,,,,,,0,,,82,0
18160,note_on,20,0,1,,,,,,,,,0,,,82,0
18160,note_on,0,0,1,,,,,,,,,0,,,94,60
18180,note_on,0,0,1,,,,,,,,,0,,,80,60
18180,note_on,20,0,1,,,,,,,,,0,,,94,0
18180,note_on,0,0,4,,,,,,,,,0,,,59,0
18180,note_on,0,0,4,,,,,,,,,0,,,47,70
18180,note_on,60,0,4,,,,,,,,,0,,,51,0
18200,note_on,20,0,1,,,,,,,,,0,,,80,0
18200,note_on,0,0,1,,,,,,,,,0,,,80,60
18220,note_on,20,0,1,,,,,,,,,0,,,80,0
18220,note_on,0,0,1,,,,,,,,,0,,,92,60
18240,note_on,0,0,1,,,,,,,,,0,,,79,60
18240,note_on,0,0,4,,,,,,,,,0,,,56,60
18240,note_on,0,0,4,,,,,,,,,0,,,63,60
18240,note_on,20,0,1,,,,,,,,,0,,,92,0
18240,note_on,60,0,4,,,,,,,,,0,,,47,0
18260,note_on,20,0,1,,,,,,,,,0,,,79,0
18260,note_on,0,0,1,,,,,,,,,0,,,79,60
18280,note_on,20,0,1,,,,,,,,,0,,,79,0
18280,note_on,0,0,1,,,,,,,,,0,,,91,60
18300,note_on,60,0,4,,,,,,,,,0,,,56,0
18300,note_on,0,0,4,,,,,,,,,0,,,63,60
18300,note_on,0,0,1,,,,,,,,,0,,,80,60
18300,note_on,0,0,4,,,,,,,,,0,,,56,60
18300,note_on,0,0,4,,,,,,,,,0,,,63,0
18300,note_on,20,0,1,,,,,,,,,0,,,91,0
18320,note_on,20,0,1,,,,,,,,,0,,,80,0
18320,note_on,0,0,1,,,,,,,,,0,,,80,60
18340,note_on,0,0,1,,,,,,,,,0,,,92,60
18340,note_on,20,0,1,,,,,,,,,0,,,80,0
18360,note_on,0,0,1,,,,,,,,,0,,,82,60
18360,note_on,60,0,4,,,,,,,,,0,,,56,0
18360,note_on,0,0,4,,,,,,,,,0,,,63,0
18360,note_on,0,0,4,,,,,,,,,0,,,51,70
18360,note_on,20,0,1,,,,,,,,,0,,,92,0
18380,note_on,20,0,1,,,,,,,,,0,,,82,0
18380,note_on,0,0,1,,,,,,,,,0,,,82,60
18400,note_on,20,0,1,,,,,,,,,0,,,82,0
18400,note_on,0,0,1,,,,,,,,,0,,,94,60
18420,note_on,60,0,4,,,,,,,,,0,,,51,0
18420,note_on,0,0,4,,,,,,,,,0,,,58,60
18420,note_on,0,0,4,,,,,,,,,0,,,67,60
18420,note_on,20,0,1,,,,,,,,,0,,,94,0
18420,note_on,0,0,1,,,,,,,,,0,,,75,60
18440,note_on,20,0,1,,,,,,,,,0,,,75,0
18440,note_on,0,0,1,,,,,,,,,0,,,75,60
18460,note_on,0,0,1,,,,,,,,,0,,,87,60
18460,note_on,20,0,1,,,,,,,,,0,,,75,0
18480,note_on,0,0,4,,,,,,,,,0,,,67,60
18480,note_on,60,0,4,,,,,,,,,0,,,58,0
18480,note_on,0,0,4,,,,,,,,,0,,,67,0
18480,note_on,0,0,4,,,,,,,,,0,,,58,60
18480,note_on,0,0,1,,,,,,,,,0,,,75,60
18480,note_on,20,0,1,,,,,,,,,0,,,87,0
18500,note_on,0,0,1,,,,,,,,,0,,,75,60
18500,note_on,20,0,1,,,,,,,,,0,,,75,0
18520,note_on,20,0,1,,,,,,,,,0,,,75,0
18520,note_on,0,0,1,,,,,,,,,0,,,87,60
18540,note_on,795,0,3,,,,,,,,,0,,,55,70
18540,note_on,0,0,4,,,,,,,,,0,,,67,0
18540,note_on,60,0,4,,,,,,,,,0,,,58,0
18540,note_on,20,0,1,,,,,,,,,0,,,87,0
18540,note_on,0,0,1,,,,,,,,,0,,,76,60
18560,note_on,0,0,1,,,,,,,,,0,,,76,60
18560,note_on,20,0,1,,,,,,,,,0,,,76,0
18580,note_on,20,0,1,,,,,,,,,0,,,76,0
18580,note_on,0,0,1,,,,,,,,,0,,,88,60
18600,note_on,20,0,1,,,,,,,,,0,,,88,0
18600,note_on,0,0,3,,,,,,,,,0,,,70,60
18600,note_on,0,0,3,,,,,,,,,0,,,63,60
18600,note_on,0,0,1,,,,,,,,,0,,,75,60
18600,note_on,60,0,3,,,,,,,,,0,,,55,0
18620,note_on,0,0,1,,,,,,,,,0,,,75,60
18620,note_on,20,0,1,,,,,,,,,0,,,75,0
18640,note_on,0,0,1,,,,,,,,,0,,,87,60
18640,note_on,20,0,1,,,,,,,,,0,,,75,0
18660,note_on,60,0,3,,,,,,,,,0,,,63,0
18660,note_on,0,0,3,,,,,,,,,0,,,70,0
18660,note_on,20,0,1,,,,,,,,,0,,,87,0
18660,note_on,0,0,3,,,,,,,,,0,,,70,60
18660,note_on,0,0,1,,,,,,,,,0,,,73,60
18660,note_on,0,0,3,,,,,,,,,0,,,63,60
18680,note_on,20,0,1,,,,,,,,,0,,,73,0
18680,note_on,0,0,1,,,,,,,,,0,,,73,60
18700,note_on,20,0,1,,,,,,,,,0,,,73,0
18700,note_on,0,0,1,,,,,,,,,0,,,85,60
18720,note_on,60,0,3,,,,,,,,,0,,,63,0
18720,note_on,0,0,3,,,,,,,,,0,,,70,0
18720,note_on,0,0,3,,,,,,,,,0,,,56,70
18720,note_on,20,0,1,,,,,,,,,0,,,85,0
18720,note_on,0,0,1,,,,,,,,,0,,,71,60
18740,note_on,20,0,1,,,,,,,,,0,,,71,0
18740,note_on,0,0,1,,,,,,,,,0,,,71,60
18760,note_on,0,0,1,,,,,,,,,0,,,83,60
18760,note_on,20,0,1,,,,,,,,,0,,,71,0
18780,note_on,0,0,3,,,,,,,,,0,,,68,60
18780,note_on,0,0,1,,,,,,,,,0,,,71,60
18780,note_on,60,0,3,,,,,,,,,0,,,56,0
18780,note_on,0,0,3,,,,,,,,,0,,,63,60
18780,note_on,20,0,1,,,,,,,,,0,,,83,0
18800,note_on,0,0,1,,,,,,,,,0,,,71,60
18800,note_on,20,0,1,,,,,,,,,0,,,71,0
18820,note_on,20,0,1,,,,,,,,,0,,,71,0
18820,note_on,0,0,1,,,,,,,,,0,,,83,60
18840,note_on,0,0,3,,,,,,,,,0,,,68,60
18840,note_on,0,0,3,,,,,,,,,0,,,68,0
18840,note_on,20,0,1,,,,,,,,,0,,,83,0
18840,note_on,60,0,3,,,,,,,,,0,,,63,0
18840,note_on,0,0,3,,,,,,,,,0,,,63,60
18840,note_on,0,0,1,,,,,,,,,0,,,70,60
18860,note_on,0,0,1,,,,,,,,,0,,,70,60
18860,note_on,20,0,1,,,,,,,,,0,,,70,0
18880,note_on,20,0,1,,,,,,,,,0,,,70,0
18880,note_on,0,0,1,,,,,,,,,0,,,82,60
18900,note_on,0,0,1,,,,,,,,,0,,,68,60
18900,note_on,0,0,3,,,,,,,,,0,,,68,0
18900,note_on,0,0,3,,,,,,,,,0,,,59,70
18900,note_on,20,0,1,,,,,,,,,0,,,82,0
18900,note_on,60,0,3,,,,,,,,,0,,,63,0
18920,note_on,20,0,1,,,,,,,,,0,,,68,0
18920,note_on,0,0,1,,,,,,,,,0,,,68,60
18940,note_on,0,0,1,,,,,,,,,0,,,80,60
18940,note_on,20,0,1,,,,,,,,,0,,,68,0
18960,note_on,0,0,1,,,,,,,,,0,,,67,60
18960,note_on,60,0,3,,,,,,,,,0,,,59,0
18960,note_on,0,0,3,,,,,,,,,0,,,62,60
18960,note_on,0,0,3,,,,,,,,,0,,,65,60
18960,note_on,20,0,1,,,,,,,,,0,,,80,0
18980,note_on,20,0,1,,,,,,,,,0,,,67,0
18980,note_on,0,0,1,,,,,,,,,0,,,67,60
19000,note_on,20,0,1,,,,,,,,,0,,,67,0
19000,note_on,0,0,1,,,,,,,,,0,,,79,60
19020,note_on,60,0,3,,,,,,,,,0,,,62,0
19020,note_on,0,0,3,,,,,,,,,0,,,65,0
19020,note_on,0,0,3,,,,,,,,,0,,,65,60
19020,note_on,20,0,1,,,,,,,,,0,,,79,0
19020,note_on,0,0,1,,,,,,,,,0,,,68,60
19020,note_on,0,0,3,,,,,,,,,0,,,62,60
19040,note_on,20,0,1,,,,,,,,,0,,,68,0
19040,note_on,0,0,1,,,,,,,,,0,,,68,60
19060,note_on,0,0,1,,,,,,,,,0,,,80,60
19060,note_on,20,0,1,,,,,,,,,0,,,68,0
19080,note_on,60,0,3,,,,,,,,,0,,,62,0
19080,note_on,0,0,3,,,,,,,,,0,,,65,0
19080,note_on,20,0,1,,,,,,,,,0,,,80,0
19080,note_on,0,0,1,,,,,,,,,0,,,70,60
19080,note_on,540,0,4,,,,,,,,,0,,,51,70
19100,note_on,20,0,1,,,,,,,,,0,,,70,0
19100,note_on,0,0,1,,,,,,,,,0,,,70,60
19120,note_on,20,0,1,,,,,,,,,0,,,70,0
19120,note_on,0,0,1,,,,,,,,,0,,,82,60
19140,note_on,60,0,4,,,,,,,,,0,,,51,0
19140,note_on,20,0,1,,,,,,,,,0,,,82,0
19140,note_on,0,0,4,,,,,,,,,0,,,67,60
19140,note_on,0,0,4,,,,,,,,,0,,,58,60
19140,note_on,0,0,1,,,,,,,,,0,,,63,60
19160,note_on,0,0,1,,,,,,,,,0,,,63,60
19160,note_on,20,0,1,,,,,,,,,0,,,63,0
19180,note_on,20,0,1,,,,,,,,,0,,,63,0
19180,note_on,0,0,1,,,,,,,,,0,,,75,60
19200,note_on,0,0,1,,,,,,,,,0,,,75,60
19200,note_on,60,0,4,,,,,,,,,0,,,58,0
19200,note_on,20,0,1,,,,,,,,,0,,,75,0
19200,note_on,0,0,4,,,,,,,,,0,,,67,0
19220,note_on,20,0,1,,,,,,,,,0,,,75,0
19220,note_on,0,0,1,,,,,,,,,0,,,75,60
19240,note_on,20,0,1,,,,,,,,,0,,,75,0
19240,note_on,0,0,1,,,,,,,,,0,,,75,60
19260,note_on,20,0,1,,,,,,,,,0,,,75,0
19260,note_on,0,0,1,,,,,,,,,0,,,87,60
19280,note_on,20,0,1,,,,,,,,,0,,,87,0
19280,note_on,0,0,1,,,,,,,,,0,,,87,60
19300,note_on,0,0,1,,,,,,,,,0,,,99,60
19300,note_on,20,0,1,,,,,,,,,0,,,87,0
19320,note_on,0,0,1,,,,,,,,,0,,,87,60
19320,note_on,20,0,1,,,,,,,,,0,,,99,0
19340,note_on,0,0,1,,,,,,,,,0,,,87,60
19340,note_on,20,0,1,,,,,,,,,0,,,87,0
19360,note_on,20,0,1,,,,,,,,,0,,,87,0
19360,note_on,0,0,1,,,,,,,,,0,,,99,60
19380,note_on,20,0,1,,,,,,,,,0,,,99,0
19380,note_on,0,0,1,,,,,,,,,0,,,85,60
19400,note_on,20,0,1,,,,,,,,,0,,,85,0
19400,note_on,0,0,1,,,,,,,,,0,,,85,60
19420,note_on,0,0,1,,,,,,,,,0,,,97,60
19420,note_on,20,0,1,,,,,,,,,0,,,85,0
19440,note_on,240,0,4,,,,,,,,,0,,,44,70
19440,note_on,0,0,1,,,,,,,,,0,,,83,60
19440,note_on,20,0,1,,,,,,,,,0,,,97,0
19460,note_on,0,0,1,,,,,,,,,0,,,83,60
19460,note_on,20,0,1,,,,,,,,,0,,,83,0
19480,note_on,0,0,1,,,,,,,,,0,,,95,60
19480,note_on,20,0,1,,,,,,,,,0,,,83,0
19500,note_on,0,0,1,,,,,,,,,0,,,83,60
19500,note_on,0,0,4,,,,,,,,,0,,,59,60
19500,note_on,0,0,4,,,,,,,,,0,,,51,60
19500,note_on,60,0,4,,,,,,,,,0,,,44,0
19500,note_on,20,0,1,,,,,,,,,0,,,95,0
19520,note_on,0,0,1,,,,,,,,,0,,,83,60
19520,note_on,20,0,1,,,,,,,,,0,,,83,0
19540,note_on,0,0,1,,,,,,,,,0,,,95,60
19540,note_on,20,0,1,,,,,,,,,0,,,83,0
19560,note_on,60,0,4,,,,,,,,,0,,,51,0
19560,note_on,0,0,1,,,,,,,,,0,,,82,60
19560,note_on,20,0,1,,,,,,,,,0,,,95,0
19560,note_on,0,0,4,,,,,,,,,0,,,51,60
19560,note_on,0,0,4,,,,,,,,,0,,,59,0
19560,note_on,0,0,4,,,,,,,,,0,,,59,60
19580,note_on,20,0,1,,,,,,,,,0,,,82,0
19580,note_on,0,0,1,,,,,,,,,0,,,82,60
19600,note_on,0,0,1,,,,,,,,,0,,,94,60
19600,note_on,20,0,1,,,,,,,,,0,,,82,0
19620,note_on,0,0,1,,,,,,,,,0,,,80,60
19620,note_on,0,0,4,,,,,,,,,0,,,59,0
19620,note_on,20,0,1,,,,,,,,,0,,,94,0
19620,note_on,60,0,4,,,,,,,,,0,,,51,0
19620,note_on,0,0,4,,,,,,,,,0,,,47,70
19640,note_on,0,0,1,,,,,,,,,0,,,80,60
19640,note_on,20,0,1,,,,,,,,,0,,,80,0
19660,note_on,0,0,1,,,,,,,,,0,,,92,60
19660,note_on,20,0,1,,,,,,,,,0,,,80,0
19680,note_on,0,0,1,,,,,,,,,0,,,79,60
19680,note_on,0,0,4,,,,,,,,,0,,,63,60
19680,note_on,20,0,1,,,,,,,,,0,,,92,0
19680,note_on,0,0,4,,,,,,,,,0,,,56,60
19680,note_on,60,0,4,,,,,,,,,0,,,47,0
19700,note_on,20,0,1,,,,,,,,,0,,,79,0
19700,note_on,0,0,1,,,,,,,,,0,,,79,60
19720,note_on,20,0,1,,,,,,,,,0,,,79,0
19720,note_on,0,0,1,,,,,,,,,0,,,91,60
19740,note_on,20,0,1,,,,,,,,,0,,,91,0
19740,note_on,0,0,4,,,,,,,,,0,,,56,60
19740,note_on,0,0,4,,,,,,,,,0,,,63,0
19740,note_on,0,0,4,,,,,,,,,0,,,63,60
19740,note_on,0,0,1,,,,,,,,,0,,,80,60
19740,note_on,60,0,4,,,,,,,,,0,,,56,0
19760,note_on,20,0,1,,,,,,,,,0,,,80,0
19760,note_on,0,0,1,,,,,,,,,0,,,80,60
19780,note_on,20,0,1,,,,,,,,,0,,,80,0
19780,note_on,0,0,1,,,,,,,,,0,,,92,60
19800,note_on,0,0,4,,,,,,,,,0,,,51,70
19800,note_on,0,0,1,,,,,,,,,0,,,82,60
19800,note_on,20,0,1,,,,,,,,,0,,,92,0
19800,note_on,0,0,4,,,,,,,,,0,,,63,0
19800,note_on,60,0,4,,,,,,,,,0,,,56,0
19820,note_on,0,0,1,,,,,,,,,0,,,82,60
19820,note_on,20,0,1,,,,,,,,,0,,,82,0
19840,note_on,20,0,1,,,,,,,,,0,,,82,0
19840,note_on,0,0,1,,,,,,,,,0,,,94,60
19860,note_on,0,0,3,,,,,,,,,0,,,67,60
19860,note_on,0,0,1,,,,,,,,,0,,,75,60
19860,note_on,780,0,3,,,,,,,,,0,,,58,60
19860,note_on,20,0,1,,,,,,,,,0,,,94,0
19860,note_on,60,0,4,,,,,,,,,0,,,51,0
19875,note_on,15,0,3,,,,,,,,,0,,,67,0
19875,note_on,0,0,3,,,,,,,,,0,,,58,0
19880,note_on,0,0,1,,,,,,,,,0,,,75,60
19880,note_on,20,0,1,,,,,,,,,0,,,75,0
19900,note_on,20,0,1,,,,,,,,,0,,,75,0
19900,note_on,0,0,1,,,,,,,,,0,,,87,60
19920,note_on,0,0,3,,,,,,,,,0,,,67,60
19920,note_on,45,0,3,,,,,,,,,0,,,70,60
19920,note_on,20,0,1,,,,,,,,,0,,,87,0
19920,note_on,0,0,1,,,,,,,,,0,,,75,60
19935,note_on,0,0,3,,,,,,,,,0,,,70,0
19935,note_on,15,0,3,,,,,,,,,0,,,67,0
19940,note_on,0,0,1,,,,,,,,,0,,,75,60
19940,note_on,20,0,1,,,,,,,,,0,,,75,0
19960,note_on,20,0,1,,,,,,,,,0,,,75,0
19960,note_on,0,0,1,,,,,,,,,0,,,87,60
19980,note_on,20,0,1,,,,,,,,,0,,,87,0
19980,note_on,0,0,1,,,,,,,,,0,,,76,60
19980,note_on,45,0,3,,,,,,,,,0,,,71,60
19980,note_on,0,0,3,,,,,,,,,0,,,68,60
19995,note_on,15,0,3,,,,,,,,,0,,,68,0
19995,note_on,0,0,3,,,,,,,,,0,,,71,0
20000,note_on,20,0,1,,,,,,,,,0,,,76,0
20000,note_on,0,0,1,,,,,,,,,0,,,76,60
20020,note_on,0,0,1,,,,,,,,,0,,,88,60
20020,note_on,20,0,1,,,,,,,,,0,,,76,0
20040,note_on,0,0,3,,,,,,,,,0,,,70,60
20040,note_on,45,0,3,,,,,,,,,0,,,66,60
20040,note_on,20,0,1,,,,,,,,,0,,,88,0
20040,note_on,0,0,1,,,,,,,,,0,,,75,60
20055,note_on,0,0,3,,,,,,,,,0,,,66,0
20055,note_on,15,0,3,,,,,,,,,0,,,70,0
20060,note_on,0,0,1,,,,,,,,,0,,,75,60
20060,note_on,20,0,1,,,,,,,,,0,,,75,0
20080,note_on,20,0,1,,,,,,,,,0,,,75,0
20080,note_on,0,0,1,,,,,,,,,0,,,87,60
20100,note_on,0,0,1,,,,,,,,,0,,,73,60
20100,note_on,45,0,3,,,,,,,,,0,,,64,60
20100,note_on,20,0,1,,,,,,,,,0,,,87,0
20100,note_on,0,0,3,,,,,,,,,0,,,68,60
20115,note_on,0,0,3,,,,,,,,,0,,,64,0
20115,note_on,15,0,3,,,,,,,,,0,,,68,0
20120,note_on,0,0,1,,,,,,,,,0,,,73,60
20120,note_on,20,0,1,,,,,,,,,0,,,73,0
20140,note_on,0,0,1,,,,,,,,,0,,,85,60
20140,note_on,20,0,1,,,,,,,,,0,,,73,0
20160,note_on,0,0,1,,,,,,,,,0,,,75,60
20160,note_on,45,0,3,,,,,,,,,0,,,71,70
20160,set_tempo,12960,1,0,,,,,,625065,,,,,,,
20160,note_on,0,0,3,,,,,,,,,0,,,68,70
20160,note_on,0,0,3,,,,,,,,,0,,,64,70
20160,note_on,20,0,1,,,,,,,,,0,,,85,0
20177,set_tempo,17,1,0,,,,,,627025,,,,,,,
20180,note_on,0,0,1,,,,,,,,,0,,,75,61
20180,note_on,20,0,1,,,,,,,,,0,,,75,0
20190,set_tempo,13,1,0,,,,,,628997,,,,,,,
20200,note_on,0,0,1,,,,,,,,,0,,,87,62
20200,note_on,20,0,1,,,,,,,,,0,,,75,0
20202,set_tempo,12,1,0,,,,,,630981,,,,,,,
20215,set_tempo,13,1,0,,,,,,632978,,,,,,,
20220,note_on,20,0,1,,,,,,,,,0,,,87,0
20220,note_on,0,0,3,,,,,,,,,0,,,68,0
20220,note_on,60,0,3,,,,,,,,,0,,,64,0
20220,note_on,0,0,1,,,,,,,,,0,,,76,63
20220,note_on,0,0,3,,,,,,,,,0,,,71,0
20228,set_tempo,13,1,0,,,,,,634988,,,,,,,
20240,note_on,0,0,1,,,,,,,,,0,,,76,64
20240,note_on,20,0,1,,,,,,,,,0,,,76,0
20245,set_tempo,17,1,0,,,,,,637010,,,,,,,
20258,set_tempo,13,1,0,,,,,,639046,,,,,,,
20260,note_on,0,0,1,,,,,,,,,0,,,87,65
20260,note_on,20,0,1,,,,,,,,,0,,,76,0
20271,set_tempo,13,1,0,,,,,,641094,,,,,,,
20280,note_on,20,0,1,,,,,,,,,0,,,87,0
20280,note_on,0,0,1,,,,,,,,,0,,,77,67
20284,set_tempo,13,1,0,,,,,,643156,,,,,,,
20297,set_tempo,13,1,0,,,,,,645231,,,,,,,
20300,note_on,0,0,1,,,,,,,,,0,,,77,68
20300,note_on,20,0,1,,,,,,,,,0,,,77,0
20310,set_tempo,13,1,0,,,,,,647319,,,,,,,
20320,note_on,0,0,1,,,,,,,,,0,,,87,69
20320,note_on,20,0,1,,,,,,,,,0,,,77,0
20327,set_tempo,17,1,0,,,,,,649421,,,,,,,
20340,note_on,20,0,1,,,,,,,,,0,,,87,0
20340,set_tempo,13,1,0,,,,,,651537,,,,,,,
20340,note_on,0,0,1,,,,,,,,,0,,,78,70
20352,set_tempo,12,1,0,,,,,,653666,,,,,,,
20360,note_on,20,0,1,,,,,,,,,0,,,78,0
20360,note_on,0,0,1,,,,,,,,,0,,,78,71
20365,set_tempo,13,1,0,,,,,,655809,,,,,,,
20378,set_tempo,13,1,0,,,,,,657967,,,,,,,
20380,note_on,0,0,1,,,,,,,,,0,,,87,72
20380,note_on,20,0,1,,,,,,,,,0,,,78,0
20395,set_tempo,17,1,0,,,,,,660139,,,,,,,
20400,note_on,0,0,1,,,,,,,,,0,,,79,74
20400,note_on,20,0,1,,,,,,,,,0,,,87,0
20408,set_tempo,13,1,0,,,,,,662325,,,,,,,
20420,note_on,0,0,1,,,,,,,,,0,,,79,75
20420,note_on,20,0,1,,,,,,,,,0,,,79,0
20421,set_tempo,13,1,0,,,,,,664525,,,,,,,
20434,set_tempo,13,1,0,,,,,,666741,,,,,,,
20440,note_on,0,0,1,,,,,,,,,0,,,87,76
20440,note_on,20,0,1,,,,,,,,,0,,,79,0
20447,set_tempo,13,1,0,,,,,,668971,,,,,,,
20460,set_tempo,13,1,0,,,,,,671216,,,,,,,
20460,note_on,20,0,1,,,,,,,,,0,,,87,0
20460,note_on,0,0,1,,,,,,,,,0,,,80,77
20477,set_tempo,17,1,0,,,,,,673476,,,,,,,
20480,note_on,20,0,1,,,,,,,,,0,,,80,0
20480,note_on,0,0,1,,,,,,,,,0,,,80,78
20490,set_tempo,13,1,0,,,,,,675752,,,,,,,
20500,note_on,0,0,1,,,,,,,,,0,,,87,79
20500,note_on,20,0,1,,,,,,,,,0,,,80,0
20502,set_tempo,12,1,0,,,,,,678043,,,,,,,
20515,set_tempo,13,1,0,,,,,,680349,,,,,,,
20520,note_on,20,0,1,,,,,,,,,0,,,87,0
20520,note_on,0,0,4,,,,,,,,,0,,,61,90
20520,note_on,0,0,4,,,,,,,,,0,,,51,90
20520,note_on,0,0,1,,,,,,,,,0,,,81,80
20520,note_on,660,0,4,,,,,,,,,0,,,67,90
20528,set_tempo,13,1,0,,,,,,682672,,,,,,,
20540,note_on,0,0,1,,,,,,,,,0,,,81,80
20540,note_on,20,0,1,,,,,,,,,0,,,81,0
20541,set_tempo,13,1,0,,,,,,685010,,,,,,,
20558,set_tempo,17,1,0,,,,,,687364,,,,,,,
20560,note_on,20,0,1,,,,,,,,,0,,,81,0
20560,note_on,0,0,1,,,,,,,,,0,,,87,80
20571,set_tempo,13,1,0,,,,,,689734,,,,,,,
20580,note_on,20,0,1,,,,,,,,,0,,,87,0
20580,note_on,0,0,4,,,,,,,,,0,,,67,0
20580,note_on,0,0,4,,,,,,,,,0,,,61,0
20580,note_on,0,0,1,,,,,,,,,0,,,82,80
20580,note_on,60,0,4,,,,,,,,,0,,,51,0
20584,set_tempo,13,1,0,,,,,,692121,,,,,,,
20597,set_tempo,13,1,0,,,,,,694525,,,,,,,
20600,note_on,20,0,1,,,,,,,,,0,,,82,0
20600,note_on,0,0,1,,,,,,,,,0,,,82,80
20610,set_tempo,13,1,0,,,,,,696945,,,,,,,
20620,note_on,0,0,1,,,,,,,,,0,,,87,80
20620,note_on,20,0,1,,,,,,,,,0,,,82,0
20627,set_tempo,17,1,0,,,,,,699382,,,,,,,
20640,note_on,0,0,1,,,,,,,,,0,,,83,80
20640,note_on,20,0,1,,,,,,,,,0,,,87,0
20640,set_tempo,13,1,0,,,,,,701836,,,,,,,
20652,set_tempo,12,1,0,,,,,,704308,,,,,,,
20660,note_on,0,0,1,,,,,,,,,0,,,83,80
20660,note_on,20,0,1,,,,,,,,,0,,,83,0
20665,set_tempo,13,1,0,,,,,,706797,,,,,,,
20678,set_tempo,13,1,0,,,,,,709304,,,,,,,
20680,note_on,0,0,1,,,,,,,,,0,,,87,80
20680,note_on,20,0,1,,,,,,,,,0,,,83,0
20691,set_tempo,13,1,0,,,,,,711828,,,,,,,
20700,note_on,0,0,1,,,,,,,,,0,,,84,80
20700,note_on,20,0,1,,,,,,,,,0,,,87,0
20708,set_tempo,17,1,0,,,,,,714371,,,,,,,
20720,note_on,20,0,1,,,,,,,,,0,,,84,0
20720,note_on,0,0,1,,,,,,,,,0,,,84,80
20721,set_tempo,13,1,0,,,,,,716932,,,,,,,
20734,set_tempo,13,1,0,,,,,,719511,,,,,,,
20740,note_on,0,0,1,,,,,,,,,0,,,87,80
20740,note_on,20,0,1,,,,,,,,,0,,,84,0
20747,set_tempo,13,1,0,,,,,,722109,,,,,,,
20760,set_tempo,13,1,0,,,,,,724725,,,,,,,
20760,note_on,0,0,1,,,,,,,,,0,,,85,80
20760,note_on,20,0,1,,,,,,,,,0,,,87,0
20772,set_tempo,12,1,0,,,,,,727361,,,,,,,
20780,note_on,20,0,1,,,,,,,,,0,,,85,0
20780,note_on,0,0,1,,,,,,,,,0,,,85,80
20790,set_tempo,18,1,0,,,,,,730016,,,,,,,
20800,note_on,20,0,1,,,,,,,,,0,,,85,0
20800,note_on,0,0,1,,,,,,,,,0,,,87,80
20802,set_tempo,12,1,0,,,,,,732690,,,,,,,
20815,set_tempo,13,1,0,,,,,,735384,,,,,,,
20820,note_on,0,0,1,,,,,,,,,0,,,86,80
20820,note_on,20,0,1,,,,,,,,,0,,,87,0
20828,set_tempo,13,1,0,,,,,,738098,,,,,,,
20840,note_on,0,0,1,,,,,,,,,0,,,86,80
20840,note_on,20,0,1,,,,,,,,,0,,,86,0
20841,set_tempo,13,1,0,,,,,,740832,,,,,,,
20858,set_tempo,17,1,0,,,,,,743587,,,,,,,
20860,note_on,0,0,1,,,,,,,,,0,,,87,80
20860,note_on,20,0,1,,,,,,,,,0,,,86,0
20871,set_tempo,13,1,0,,,,,,746361,,,,,,,
20880,note_on,300,0,4,,,,,,,,,0,,,68,90
20880,note_on,0,0,1,,,,,,,,,0,,,87,80
20880,note_on,0,0,4,,,,,,,,,0,,,44,90
20880,note_on,0,0,4,,,,,,,,,0,,,51,90
20880,note_on,0,0,4,,,,,,,,,0,,,59,90
20880,note_on,20,0,1,,,,,,,,,0,,,87,0
20884,set_tempo,13,1,0,,,,,,749157,,,,,,,
20897,set_tempo,13,1,0,,,,,,751974,,,,,,,
20900,note_on,0,0,1,,,,,,,,,0,,,87,79
20900,note_on,20,0,1,,,,,,,,,0,,,87,0
20910,set_tempo,13,1,0,,,,,,754812,,,,,,,
20920,note_on,20,0,1,,,,,,,,,0,,,87,0
20920,note_on,0,0,1,,,,,,,,,0,,,99,78
20922,set_tempo,12,1,0,,,,,,757671,,,,,,,
20940,note_on,0,0,1,,,,,,,,,0,,,88,77
20940,note_on,0,0,4,,,,,,,,,0,,,51,0
20940,note_on,20,0,1,,,,,,,,,0,,,99,0
20940,note_on,0,0,4,,,,,,,,,0,,,59,0
20940,note_on,0,0,4,,,,,,,,,0,,,68,0
20940,set_tempo,18,1,0,,,,,,760553,,,,,,,
20940,note_on,60,0,4,,,,,,,,,0,,,44,0
20952,set_tempo,12,1,0,,,,,,763456,,,,,,,
20960,note_on,20,0,1,,,,,,,,,0,,,88,0
20960,note_on,0,0,1,,,,,,,,,0,,,88,76
20965,set_tempo,13,1,0,,,,,,766381,,,,,,,
20978,set_tempo,13,1,0,,,,,,769329,,,,,,,
20980,note_on,20,0,1,,,,,,,,,0,,,88,0
20980,note_on,0,0,1,,,,,,,,,0,,,99,74
20991,set_tempo,13,1,0,,,,,,772300,,,,,,,
21000,note_on,20,0,1,,,,,,,,,0,,,99,0
21000,note_on,0,0,1,,,,,,,,,0,,,89,73
21004,set_tempo,13,1,0,,,,,,775294,,,,,,,
21020,note_on,20,0,1,,,,,,,,,0,,,89,0
21020,note_on,0,0,1,,,,,,,,,0,,,89,72
21021,set_tempo,17,1,0,,,,,,778311,,,,,,,
21034,set_tempo,13,1,0,,,,,,781352,,,,,,,
21040,note_on,20,0,1,,,,,,,,,0,,,89,0
21040,note_on,0,0,1,,,,,,,,,0,,,99,71
21047,set_tempo,13,1,0,,,,,,784416,,,,,,,
21060,set_tempo,13,1,0,,,,,,787505,,,,,,,
21060,note_on,0,0,1,,,,,,,,,0,,,90,69
21060,note_on,20,0,1,,,,,,,,,0,,,99,0
21072,set_tempo,12,1,0,,,,,,790618,,,,,,,
21080,note_on,0,0,1,,,,,,,,,0,,,90,68
21080,note_on,20,0,1,,,,,,,,,0,,,90,0
21090,set_tempo,18,1,0,,,,,,793756,,,,,,,
21100,note_on,20,0,1,,,,,,,,,0,,,90,0
21100,note_on,0,0,1,,,,,,,,,0,,,99,67
21102,set_tempo,12,1,0,,,,,,796919,,,,,,,
21115,set_tempo,13,1,0,,,,,,800107,,,,,,,
21120,note_on,0,0,1,,,,,,,,,0,,,91,66
21120,note_on,20,0,1,,,,,,,,,0,,,99,0
21128,set_tempo,13,1,0,,,,,,803320,,,,,,,
21140,note_on,20,0,1,,,,,,,,,0,,,91,0
21140,note_on,0,0,1,,,,,,,,,0,,,91,64
21141,set_tempo,13,1,0,,,,,,806560,,,,,,,
21154,set_tempo,13,1,0,,,,,,809826,,,,,,,
21160,note_on,0,0,1,,,,,,,,,0,,,99,63
21160,note_on,20,0,1,,,,,,,,,0,,,91,0
21171,set_tempo,17,1,0,,,,,,813118,,,,,,,
21180,note_on,0,0,1,,,,,,,,,0,,,92,62
21180,note_on,20,0,1,,,,,,,,,0,,,99,0
21184,set_tempo,13,1,0,,,,,,816438,,,,,,,
21197,set_tempo,13,1,0,,,,,,819784,,,,,,,
21200,note_on,0,0,1,,,,,,,,,0,,,92,61
21200,note_on,20,0,1,,,,,,,,,0,,,92,0
21210,set_tempo,13,1,0,,,,,,823158,,,,,,,
21220,note_on,20,0,1,,,,,,,,,0,,,92,0
21220,note_on,0,0,1,,,,,,,,,0,,,99,60
21222,set_tempo,12,1,0,,,,,,826560,,,,,,,
21235,set_tempo,13,1,0,,,,,,829990,,,,,,,
21240,marker,0,1,0,,,,,,,,,,,,,
21240,set_tempo,5,1,0,,,,,,833333,,,,,,,
21240,note_on,20,0,1,,,,,,,,,0,,,99,0
21360,note_on,120,0,1,,,,,,,,,0,,,71,60
21360,set_tempo,120,1,0,,,,,,625000,,,,,,,
21360,note_on,1140,0,3,,,,,,,,,0,,,68,60
21390,note_on,0,0,3,,,,,,,,,0,,,67,60
21390,note_on,30,0,1,,,,,,,,,0,,,70,60
21390,note_on,30,0,3,,,,,,,,,0,,,68,0
21420,note_on,0,0,1,,,,,,,,,0,,,71,60
21420,note_on,0,0,1,,,,,,,,,0,,,71,0
21420,note_on,0,0,1,,,,,,,,,0,,,69,60
21420,note_on,30,0,1,,,,,,,,,0,,,70,0
21420,note_on,30,0,3,,,,,,,,,0,,,67,0
21420,note_on,0,0,3,,,,,,,,,0,,,66,60
21435,note_on,0,0,1,,,,,,,,,0,,,71,0
21435,note_on,15,0,1,,,,,,,,,0,,,69,0
21435,note_on,15,0,3,,,,,,,,,0,,,66,0
21450,note_on,0,0,1,,,,,,,,,0,,,71,60
21450,note_on,15,0,3,,,,,,,,,0,,,65,60
21450,note_on,15,0,1,,,,,,,,,0,,,68,60
21465,note_on,0,0,1,,,,,,,,,0,,,68,0
21465,note_on,15,0,3,,,,,,,,,0,,,65,0
21465,note_on,15,0,1,,,,,,,,,0,,,71,0
21480,note_on,15,0,3,,,,,,,,,0,,,64,60
21480,note_on,0,0,1,,,,,,,,,0,,,71,60
21480,note_on,15,0,1,,,,,,,,,0,,,67,60
21495,note_on,15,0,3,,,,,,,,,0,,,64,0
21495,note_on,15,0,1,,,,,,,,,0,,,71,0
21495,note_on,0,0,1,,,,,,,,,0,,,67,0
21510,note_on,0,0,1,,,,,,,,,0,,,71,60
21510,note_on,15,0,1,,,,,,,,,0,,,66,60
21510,note_on,15,0,3,,,,,,,,,0,,,63,60
21525,note_on,0,0,1,,,,,,,,,0,,,66,0
21525,note_on,15,0,1,,,,,,,,,0,,,71,0
21525,note_on,15,0,3,,,,,,,,,0,,,63,0
21540,note_on,15,0,3,,,,,,,,,0,,,62,60
21540,note_on,0,0,1,,,,,,,,,0,,,71,60
21540,note_on,15,0,1,,,,,,,,,0,,,65,60
21555,note_on,15,0,3,,,,,,,,,0,,,62,0
21555,note_on,0,0,1,,,,,,,,,0,,,65,0
21555,note_on,15,0,1,,,,,,,,,0,,,71,0
21570,note_on,0,0,1,,,,,,,,,0,,,71,60
21570,note_on,15,0,3,,,,,,,,,0,,,61,60
21570,note_on,15,0,1,,,,,,,,,0,,,64,60
21585,note_on,15,0,1,,,,,,,,,0,,,71,0
21585,note_on,0,0,1,,,,,,,,,0,,,64,0
21585,note_on,15,0,3,,,,,,,,,0,,,61,0
21600,note_on,15,0,1,,,,,,,,,0,,,73,60
21615,note_on,15,0,1,,,,,,,,,0,,,73,0
21615,note_on,0,0,1,,,,,,,,,0,,,71,60
21630,note_on,15,0,1,,,,,,,,,0,,,71,0
21630,note_on,0,0,1,,,,,,,,,0,,,70,60
21645,note_on,0,0,1,,,,,,,,,0,,,71,60
21645,note_on,15,0,1,,,,,,,,,0,,,70,0
21660,note_on,0,0,4,,,,,,,,,0,,,59,60
21660,note_on,720,0,4,,,,,,,,,0,,,63,60
21660,note_on,0,0,1,,,,,,,,,0,,,66,70
21660,note_on,15,0,1,,,,,,,,,0,,,71,0
21675,note_on,0,0,4,,,,,,,,,0,,,63,0
21675,note_on,15,0,4,,,,,,,,,0,,,59,0
21675,note_on,15,0,1,,,,,,,,,0,,,78,60
21690,note_on,0,0,1,,,,,,,,,0,,,78,60
21690,note_on,15,0,1,,,,,,,,,0,,,78,0
21705,note_on,0,0,1,,,,,,,,,0,,,78,60
21705,note_on,15,0,1,,,,,,,,,0,,,78,0
21720,note_on,15,0,1,,,,,,,,,0,,,78,0
21720,note_on,0,0,1,,,,,,,,,0,,,66,0
21720,note_on,45,0,4,,,,,,,,,0,,,66,60
21720,note_on,0,0,1,,,,,,,,,0,,,71,70
21720,note_on,0,0,4,,,,,,,,,0,,,63,60
21720,note_on,0,0,4,,,,,,,,,0,,,54,60
21735,note_on,15,0,1,,,,,,,,,0,,,83,60
21735,note_on,0,0,4,,,,,,,,,0,,,66,0
21735,note_on,0,0,4,,,,,,,,,0,,,63,0
21735,note_on,15,0,4,,,,,,,,,0,,,54,0
21750,note_on,15,0,1,,,,,,,,,0,,,83,0
21750,note_on,0,0,1,,,,,,,,,0,,,83,60
21765,note_on,15,0,1,,,,,,,,,0,,,83,0
21765,note_on,0,0,1,,,,,,,,,0,,,83,60
21780,note_on,0,0,1,,,,,,,,,0,,,73,70
21780,note_on,15,0,1,,,,,,,,,0,,,83,0
21780,note_on,0,0,1,,,,,,,,,0,,,71,0
21795,note_on,15,0,1,,,,,,,,,0,,,85,60
21810,note_on,0,0,1,,,,,,,,,0,,,85,60
21810,note_on,15,0,1,,,,,,,,,0,,,85,0
21825,note_on,15,0,1,,,,,,,,,0,,,85,0
21825,note_on,0,0,1,,,,,,,,,0,,,85,60
21840,note_on,105,0,4,,,,,,,,,0,,,64,60
21840,note_on,0,0,4,,,,,,,,,0,,,58,60
21840,note_on,0,0,1,,,,,,,,,0,,,78,70
21840,note_on,0,0,1,,,,,,,,,0,,,73,0
21840,note_on,15,0,1,,,,,,,,,0,,,85,0
21855,note_on,15,0,1,,,,,,,,,0,,,90,60
21855,note_on,15,0,4,,,,,,,,,0,,,58,0
21855,note_on,0,0,4,,,,,,,,,0,,,64,0
21870,note_on,0,0,1,,,,,,,,,0,,,90,60
21870,note_on,15,0,1,,,,,,,,,0,,,90,0
21885,note_on,0,0,1,,,,,,,,,0,,,90,60
21885,note_on,15,0,1,,,,,,,,,0,,,90,0
21900,note_on,45,0,4,,,,,,,,,0,,,54,60
21900,note_on,0,0,1,,,,,,,,,0,,,78,0
21900,note_on,0,0,4,,,,,,,,,0,,,66,60
21900,note_on,0,0,4,,,,,,,,,0,,,58,60
21900,note_on,0,0,1,,,,,,,,,0,,,85,70
21900,note_on,15,0,1,,,,,,,,,0,,,90,0
21915,note_on,0,0,4,,,,,,,,,0,,,58,0
21915,note_on,0,0,4,,,,,,,,,0,,,54,0
21915,note_on,15,0,4,,,,,,,,,0,,,66,0
21920,note_on,0,0,1,,,,,,,,,0,,,90,60
21920,note_on,20,0,1,,,,,,,,,0,,,97,60
21940,note_on,20,0,1,,,,,,,,,0,,,90,0
21940,note_on,0,0,1,,,,,,,,,0,,,97,60
21940,note_on,0,0,1,,,,,,,,,0,,,90,60
21940,note_on,0,0,1,,,,,,,,,0,,,97,0
21960,note_on,20,0,1,,,,,,,,,0,,,90,0
21960,note_on,0,0,1,,,,,,,,,0,,,87,70
21960,note_on,0,0,1,,,,,,,,,0,,,97,0
21960,note_on,45,0,4,,,,,,,,,0,,,47,60
21960,note_on,0,0,1,,,,,,,,,0,,,85,0
21975,note_on,15,0,4,,,,,,,,,0,,,47,0
21980,note_on,20,0,1,,,,,,,,,0,,,99,60
21980,note_on,0,0,1,,,,,,,,,0,,,90,60
22000,note_on,20,0,1,,,,,,,,,0,,,90,0
22000,note_on,0,0,1,,,,,,,,,0,,,99,0
22000,note_on,0,0,1,,,,,,,,,0,,,99,60
22000,note_on,0,0,1,,,,,,,,,0,,,90,60
22020,note_on,45,0,4,,,,,,,,,0,,,63,60
22020,note_on,0,0,1,,,,,,,,,0,,,83,70
22020,note_on,0,0,1,,,,,,,,,0,,,87,0
22020,note_on,0,0,1,,,,,,,,,0,,,99,0
22020,note_on,20,0,1,,,,,,,,,0,,,90,0
22020,note_on,0,0,4,,,,,,,,,0,,,54,60
22050,note_on,0,0,4,,,,,,,,,0,,,63,0
22050,note_on,30,0,1,,,,,,,,,0,,,83,0
22050,note_on,30,0,4,,,,,,,,,0,,,54,0
22080,note_on,495,0,3,,,,,,,,,0,,,71,60
22080,note_on,30,0,1,,,,,,,,,0,,,75,60
22110,note_on,30,0,1,,,,,,,,,0,,,74,60
22140,note_on,0,0,1,,,,,,,,,0,,,73,60
22140,note_on,0,0,3,,,,,,,,,0,,,70,60
22140,note_on,0,0,1,,,,,,,,,0,,,75,0
22140,note_on,60,0,3,,,,,,,,,0,,,71,0
22140,note_on,30,0,1,,,,,,,,,0,,,74,0
22140,note_on,0,0,1,,,,,,,,,0,,,75,60
22155,note_on,0,0,1,,,,,,,,,0,,,73,0
22155,note_on,15,0,3,,,,,,,,,0,,,70,0
22155,note_on,15,0,1,,,,,,,,,0,,,75,0
22170,note_on,15,0,3,,,,,,,,,0,,,69,60
22170,note_on,15,0,1,,,,,,,,,0,,,72,60
22170,note_on,0,0,1,,,,,,,,,0,,,75,60
22185,note_on,15,0,1,,,,,,,,,0,,,75,0
22185,note_on,0,0,1,,,,,,,,,0,,,72,0
22185,note_on,15,0,3,,,,,,,,,0,,,69,0
22200,note_on,15,0,3,,,,,,,,,0,,,68,60
22200,note_on,0,0,1,,,,,,,,,0,,,75,60
22200,note_on,15,0,1,,,,,,,,,0,,,71,60
22215,note_on,15,0,1,,,,,,,,,0,,,75,0
22215,note_on,15,0,3,,,,,,,,,0,,,68,0
22215,note_on,0,0,1,,,,,,,,,0,,,71,0
22230,note_on,15,0,3,,,,,,,,,0,,,67,60
22230,note_on,15,0,1,,,,,,,,,0,,,70,60
22230,note_on,0,0,1,,,,,,,,,0,,,75,60
22245,note_on,0,0,1,,,,,,,,,0,,,70,0
22245,note_on,15,0,1,,,,,,,,,0,,,75,0
22245,note_on,15,0,3,,,,,,,,,0,,,67,0
22260,note_on,0,0,1,,,,,,,,,0,,,75,60
22260,note_on,15,0,3,,,,,,,,,0,,,66,60
22260,note_on,15,0,1,,,,,,,,,0,,,69,60
22275,note_on,15,0,1,,,,,,,,,0,,,75,0
22275,note_on,15,0,3,,,,,,,,,0,,,66,0
22275,note_on,0,0,1,,,,,,,,,0,,,69,0
22290,note_on,15,0,3,,,,,,,,,0,,,65,60
22290,note_on,15,0,1,,,,,,,,,0,,,68,60
22290,note_on,0,0,1,,,,,,,,,0,,,75,60
22305,note_on,15,0,1,,,,,,,,,0,,,75,0
22305,note_on,0,0,1,,,,,,,,,0,,,68,0
22305,note_on,15,0,3,,,,,,,,,0,,,65,0
22320,note_on,15,0,1,,,,,,,,,0,,,77,60
22335,note_on,15,0,1,,,,,,,,,0,,,77,0
22335,note_on,0,0,1,,,,,,,,,0,,,75,60
22350,note_on,0,0,1,,,,,,,,,0,,,74,60
22350,note_on,15,0,1,,,,,,,,,0,,,75,0
22365,note_on,0,0,1,,,,,,,,,0,,,75,60
22365,note_on,15,0,1,,,,,,,,,0,,,74,0
22380,note_on,75,0,3,,,,,,,,,0,,,66,60
22380,note_on,0,0,1,,,,,,,,,0,,,70,70
22380,note_on,0,0,3,,,,,,,,,0,,,63,60
22380,note_on,15,0,1,,,,,,,,,0,,,75,0
22395,note_on,0,0,3,,,,,,,,,0,,,66,0
22395,note_on,15,0,1,,,,,,,,,0,,,82,60
22395,note_on,15,0,3,,,,,,,,,0,,,63,0
22410,note_on,15,0,1,,,,,,,,,0,,,82,0
22410,note_on,0,0,1,,,,,,,,,0,,,82,60
22425,note_on,15,0,1,,,,,,,,,0,,,82,0
22425,note_on,0,0,1,,,,,,,,,0,,,82,60
22440,note_on,0,0,1,,,,,,,,,0,,,75,70
22440,note_on,0,0,1,,,,,,,,,0,,,70,0
22440,note_on,45,0,3,,,,,,,,,0,,,70,60
22440,note_on,15,0,1,,,,,,,,,0,,,82,0
22440,note_on,0,0,3,,,,,,,,,0,,,66,60
22440,note_on,0,0,3,,,,,,,,,0,,,58,60
22455,note_on,0,0,3,,,,,,,,,0,,,70,0
22455,note_on,0,0,3,,,,,,,,,0,,,66,0
22455,note_on,15,0,1,,,,,,,,,0,,,87,60
22455,note_on,15,0,3,,,,,,,,,0,,,58,0
22470,note_on,0,0,1,,,,,,,,,0,,,87,60
22470,note_on,15,0,1,,,,,,,,,0,,,87,0
22485,note_on,0,0,1,,,,,,,,,0,,,87,60
22485,note_on,15,0,1,,,,,,,,,0,,,87,0
22500,note_on,0,0,1,,,,,,,,,0,,,75,0
22500,note_on,0,0,1,,,,,,,,,0,,,77,70
22500,note_on,15,0,1,,,,,,,,,0,,,87,0
22515,note_on,15,0,1,,,,,,,,,0,,,89,60
22530,note_on,15,0,1,,,,,,,,,0,,,89,0
22530,note_on,0,0,1,,,,,,,,,0,,,89,60
22545,note_on,0,0,1,,,,,,,,,0,,,89,60
22545,note_on,15,0,1,,,,,,,,,0,,,89,0
22560,note_on,0,0,1,,,,,,,,,0,,,82,70
22560,note_on,0,0,3,,,,,,,,,0,,,62,60
22560,note_on,15,0,1,,,,,,,,,0,,,89,0
22560,note_on,105,0,3,,,,,,,,,0,,,68,60
22560,note_on,0,0,1,,,,,,,,,0,,,77,0
22575,note_on,15,0,1,,,,,,,,,0,,,94,60
22575,note_on,15,0,3,,,,,,,,,0,,,62,0
22575,note_on,0,0,3,,,,,,,,,0,,,68,0
22590,note_on,15,0,1,,,,,,,,,0,,,94,0
22590,note_on,0,0,1,,,,,,,,,0,,,94,60
22605,note_on,15,0,1,,,,,,,,,0,,,94,0
22605,note_on,0,0,1,,,,,,,,,0,,,94,60
22620,note_on,15,0,1,,,,,,,,,0,,,94,0
22620,note_on,45,0,3,,,,,,,,,0,,,58,60
22620,note_on,0,0,3,,,,,,,,,0,,,62,60
22620,note_on,0,0,1,,,,,,,,,0,,,82,0
22620,note_on,0,0,1,,,,,,,,,0,,,89,70
22620,note_on,0,0,3,,,,,,,,,0,,,70,60
22635,note_on,15,0,3,,,,,,,,,0,,,70,0
22635,note_on,0,0,3,,,,,,,,,0,,,62,0
22635,note_on,0,0,3,,,,,,,,,0,,,58,0
22640,note_on,0,0,1,,,,,,,,,0,,,94,60
22640,note_on,20,0,1,,,,,,,,,0,,,101,60
22660,note_on,20,0,1,,,,,,,,,0,,,94,0
22660,note_on,0,0,1,,,,,,,,,0,,,101,60
22660,note_on,0,0,1,,,,,,,,,0,,,101,0
22660,note_on,0,0,1,,,,,,,,,0,,,94,60
22680,note_on,0,0,1,,,,,,,,,0,,,101,0
22680,note_on,20,0,1,,,,,,,,,0,,,94,0
22680,note_on,0,0,1,,,,,,,,,0,,,90,70
22680,note_on,0,0,1,,,,,,,,,0,,,89,0
22680,note_on,630,0,4,,,,,,,,,0,,,51,60
22695,note_on,15,0,4,,,,,,,,,0,,,51,0
22700,note_on,20,0,1,,,,,,,,,0,,,102,60
22700,note_on,0,0,1,,,,,,,,,0,,,94,60
22720,note_on,0,0,1,,,,,,,,,0,,,102,0
22720,note_on,0,0,1,,,,,,,,,0,,,102,60
22720,note_on,0,0,1,,,,,,,,,0,,,94,60
22720,note_on,20,0,1,,,,,,,,,0,,,94,0
22740,note_on,20,0,1,,,,,,,,,0,,,94,0
22740,note_on,0,0,4,,,,,,,,,0,,,58,60
22740,note_on,0,0,1,,,,,,,,,0,,,87,70
22740,note_on,0,0,1,,,,,,,,,0,,,90,0
22740,note_on,0,0,1,,,,,,,,,0,,,102,0
22740,note_on,45,0,4,,,,,,,,,0,,,66,60
22770,note_on,0,0,4,,,,,,,,,0,,,66,0
22770,note_on,30,0,1,,,,,,,,,0,,,87,0
22770,note_on,30,0,4,,,,,,,,,0,,,58,0
22800,note_on,165,0,3,,,,,,,,,0,,,75,60
22800,note_on,30,0,1,,,,,,,,,0,,,78,60
22830,note_on,30,0,1,,,,,,,,,0,,,77,60
22830,note_on,30,0,3,,,,,,,,,0,,,75,0
22830,note_on,0,0,3,,,,,,,,,0,,,74,60
22860,note_on,0,0,3,,,,,,,,,0,,,73,60
22860,note_on,30,0,3,,,,,,,,,0,,,74,0
22860,note_on,0,0,1,,,,,,,,,0,,,76,60
22860,note_on,0,0,1,,,,,,,,,0,,,78,0
22860,note_on,0,0,1,,,,,,,,,0,,,78,60
22860,note_on,30,0,1,,,,,,,,,0,,,77,0
22875,note_on,15,0,1,,,,,,,,,0,,,78,0
22875,note_on,0,0,1,,,,,,,,,0,,,76,0
22875,note_on,15,0,3,,,,,,,,,0,,,73,0
22890,note_on,15,0,3,,,,,,,,,0,,,72,60
22890,note_on,15,0,1,,,,,,,,,0,,,75,60
22890,note_on,0,0,1,,,,,,,,,0,,,78,60
22905,note_on,0,0,1,,,,,,,,,0,,,75,0
22905,note_on,15,0,1,,,,,,,,,0,,,78,0
22905,note_on,15,0,3,,,,,,,,,0,,,72,0
22920,note_on,15,0,3,,,,,,,,,0,,,71,60
22920,note_on,15,0,1,,,,,,,,,0,,,74,60
22920,note_on,0,0,1,,,,,,,,,0,,,78,60
22935,note_on,0,0,1,,,,,,,,,0,,,74,0
22935,note_on,15,0,1,,,,,,,,,0,,,78,0
22935,note_on,15,0,3,,,,,,,,,0,,,71,0
22950,note_on,15,0,1,,,,,,,,,0,,,73,60
22950,note_on,15,0,3,,,,,,,,,0,,,70,60
22950,note_on,0,0,1,,,,,,,,,0,,,78,60
22965,note_on,0,0,1,,,,,,,,,0,,,73,0
22965,note_on,15,0,1,,,,,,,,,0,,,78,0
22965,note_on,15,0,3,,,,,,,,,0,,,70,0
22980,note_on,0,0,1,,,,,,,,,0,,,78,60
22980,note_on,15,0,3,,,,,,,,,0,,,69,60
22980,note_on,15,0,1,,,,,,,,,0,,,72,60
22995,note_on,0,0,1,,,,,,,,,0,,,72,0
22995,note_on,15,0,3,,,,,,,,,0,,,69,0
22995,note_on,15,0,1,,,,,,,,,0,,,78,0
23010,note_on,0,0,1,,,,,,,,,0,,,78,60
23010,note_on,15,0,3,,,,,,,,,0,,,68,60
23010,note_on,15,0,1,,,,,,,,,0,,,71,60
23025,note_on,15,0,1,,,,,,,,,0,,,78,0
23025,note_on,15,0,3,,,,,,,,,0,,,68,0
23025,note_on,0,0,1,,,,,,,,,0,,,71,0
23040,note_on,15,0,1,,,,,,,,,0,,,80,60
23055,note_on,0,0,1,,,,,,,,,0,,,78,60
23055,note_on,15,0,1,,,,,,,,,0,,,80,0
23070,note_on,15,0,1,,,,,,,,,0,,,78,0
23070,note_on,0,0,1,,,,,,,,,0,,,77,60
23085,note_on,15,0,1,,,,,,,,,0,,,77,0
23085,note_on,0,0,1,,,,,,,,,0,,,78,60
23100,note_on,15,0,1,,,,,,,,,0,,,78,0
23100,note_on,0,0,1,,,,,,,,,0,,,73,70
23100,note_on,75,0,3,,,,,,,,,0,,,70,60
23100,note_on,0,0,3,,,,,,,,,0,,,66,60
23115,note_on,0,0,3,,,,,,,,,0,,,70,0
23115,note_on,15,0,1,,,,,,,,,0,,,85,60
23115,note_on,15,0,3,,,,,,,,,0,,,66,0
23130,note_on,15,0,1,,,,,,,,,0,,,85,0
23130,note_on,0,0,1,,,,,,,,,0,,,85,60
23145,note_on,0,0,1,,,,,,,,,0,,,85,60
23145,note_on,15,0,1,,,,,,,,,0,,,85,0
23160,note_on,45,0,3,,,,,,,,,0,,,73,60
23160,note_on,0,0,3,,,,,,,,,0,,,61,60
23160,note_on,0,0,3,,,,,,,,,0,,,70,60
23160,note_on,15,0,1,,,,,,,,,0,,,85,0
23160,note_on,0,0,1,,,,,,,,,0,,,78,70
23160,note_on,0,0,1,,,,,,,,,0,,,73,0
23175,note_on,15,0,3,,,,,,,,,0,,,61,0
23175,note_on,0,0,3,,,,,,,,,0,,,73,0
23175,note_on,0,0,3,,,,,,,,,0,,,70,0
23175,note_on,15,0,1,,,,,,,,,0,,,90,60
23190,note_on,0,0,1,,,,,,,,,0,,,90,60
23190,note_on,15,0,1,,,,,,,,,0,,,90,0
23205,note_on,0,0,1,,,,,,,,,0,,,90,60
23205,note_on,15,0,1,,,,,,,,,0,,,90,0
23220,note_on,15,0,1,,,,,,,,,0,,,90,0
23220,note_on,0,0,1,,,,,,,,,0,,,80,70
23220,note_on,0,0,1,,,,,,,,,0,,,78,0
23235,note_on,15,0,1,,,,,,,,,0,,,92,60
23250,note_on,0,0,1,,,,,,,,,0,,,92,60
23250,note_on,15,0,1,,,,,,,,,0,,,92,0
23265,note_on,15,0,1,,,,,,,,,0,,,92,0
23265,note_on,0,0,1,,,,,,,,,0,,,92,60
23280,note_on,0,0,3,,,,,,,,,0,,,65,60
23280,note_on,105,0,3,,,,,,,,,0,,,71,60
23280,note_on,0,0,1,,,,,,,,,0,,,80,0
23280,note_on,0,0,1,,,,,,,,,0,,,85,70
23280,note_on,15,0,1,,,,,,,,,0,,,92,0
23295,note_on,0,0,3,,,,,,,,,0,,,71,0
23295,note_on,15,0,3,,,,,,,,,0,,,65,0
23300,note_on,0,0,1,,,,,,,,,0,,,92,60
23300,note_on,20,0,1,,,,,,,,,0,,,97,60
23320,note_on,20,0,1,,,,,,,,,0,,,92,0
23320,note_on,0,0,1,,,,,,,,,0,,,97,0
23320,note_on,0,0,1,,,,,,,,,0,,,92,60
23320,note_on,0,0,1,,,,,,,,,0,,,97,60
23340,note_on,20,0,1,,,,,,,,,0,,,92,0
23340,note_on,0,0,1,,,,,,,,,0,,,85,0
23340,note_on,0,0,1,,,,,,,,,0,,,92,60
23340,note_on,0,0,1,,,,,,,,,0,,,97,0
23340,note_on,0,0,1,,,,,,,,,0,,,97,60
23340,note_on,0,0,3,,,,,,,,,0,,,61,60
23340,note_on,0,0,3,,,,,,,,,0,,,65,60
23340,note_on,45,0,3,,,,,,,,,0,,,73,60
23355,note_on,15,0,3,,,,,,,,,0,,,61,0
23355,note_on,0,0,3,,,,,,,,,0,,,65,0
23355,note_on,0,0,3,,,,,,,,,0,,,73,0
23360,note_on,0,0,1,,,,,,,,,0,,,92,0
23360,note_on,0,0,1,,,,,,,,,0,,,92,60
23360,note_on,20,0,1,,,,,,,,,0,,,97,0
23360,note_on,0,0,1,,,,,,,,,0,,,97,60
23380,note_on,0,0,1,,,,,,,,,0,,,92,60
23380,note_on,0,0,1,,,,,,,,,0,,,97,60
23380,note_on,20,0,1,,,,,,,,,0,,,97,0
23380,note_on,0,0,1,,,,,,,,,0,,,92,0
23400,note_on,0,0,1,,,,,,,,,0,,,92,0
23400,note_on,0,0,1,,,,,,,,,0,,,94,60
23400,note_on,0,0,1,,,,,,,,,0,,,97,60
23400,note_on,45,0,3,,,,,,,,,0,,,66,70
23400,note_on,20,0,1,,,,,,,,,0,,,97,0
23415,note_on,15,0,1,,,,,,,,,0,,,97,0
23415,note_on,0,0,1,,,,,,,,,0,,,99,60
23430,note_on,15,0,1,,,,,,,,,0,,,99,0
23430,note_on,0,0,1,,,,,,,,,0,,,93,60
23430,note_on,0,0,1,,,,,,,,,0,,,94,0
23430,note_on,0,0,1,,,,,,,,,0,,,97,60
23445,note_on,15,0,1,,,,,,,,,0,,,97,0
23445,note_on,0,0,1,,,,,,,,,0,,,99,60
23460,note_on,0,0,1,,,,,,,,,0,,,93,0
23460,note_on,0,0,1,,,,,,,,,0,,,92,60
23460,note_on,0,0,1,,,,,,,,,0,,,97,60
23460,note_on,0,0,3,,,,,,,,,0,,,78,60
23460,note_on,15,0,1,,,,,,,,,0,,,99,0
23460,note_on,0,0,3,,,,,,,,,0,,,82,60
23460,note_on,60,0,3,,,,,,,,,0,,,66,0
23475,note_on,15,0,1,,,,,,,,,0,,,97,0
23475,note_on,0,0,3,,,,,,,,,0,,,82,0
23475,note_on,0,0,1,,,,,,,,,0,,,99,60
23475,note_on,15,0,3,,,,,,,,,0,,,78,0
23490,note_on,0,0,1,,,,,,,,,0,,,92,0
23490,note_on,15,0,1,,,,,,,,,0,,,99,0
23490,note_on,0,0,1,,,,,,,,,0,,,91,60
23490,note_on,0,0,3,,,,,,,,,0,,,80,60
23490,note_on,0,0,1,,,,,,,,,0,,,97,60
23490,note_on,15,0,3,,,,,,,,,0,,,83,60
23505,note_on,15,0,1,,,,,,,,,0,,,97,0
23505,note_on,0,0,3,,,,,,,,,0,,,83,0
23505,note_on,0,0,1,,,,,,,,,0,,,99,60
23505,note_on,15,0,3,,,,,,,,,0,,,80,0
23520,note_on,15,0,1,,,,,,,,,0,,,99,0
23520,note_on,0,0,3,,,,,,,,,0,,,82,60
23520,note_on,0,0,1,,,,,,,,,0,,,91,0
23520,note_on,0,0,1,,,,,,,,,0,,,90,60
23520,note_on,0,0,1,,,,,,,,,0,,,97,60
23520,note_on,15,0,3,,,,,,,,,0,,,85,60
23535,note_on,15,0,3,,,,,,,,,0,,,82,0
23535,note_on,0,0,1,,,,,,,,,0,,,99,60
23535,note_on,0,0,3,,,,,,,,,0,,,85,0
23535,note_on,15,0,1,,,,,,,,,0,,,97,0
23550,note_on,0,0,1,,,,,,,,,0,,,97,60
23550,note_on,15,0,1,,,,,,,,,0,,,99,0
23565,note_on,0,0,1,,,,,,,,,0,,,99,60
23565,note_on,15,0,1,,,,,,,,,0,,,97,0
23580,note_on,45,0,3,,,,,,,,,0,,,59,70
23580,note_on,15,0,1,,,,,,,,,0,,,99,0
23580,note_on,0,0,1,,,,,,,,,0,,,90,0
23580,note_on,0,0,1,,,,,,,,,0,,,92,60
23580,note_on,0,0,1,,,,,,,,,0,,,95,60
23595,note_on,15,0,1,,,,,,,,,0,,,95,0
23595,note_on,0,0,1,,,,,,,,,0,,,97,60
23610,note_on,0,0,1,,,,,,,,,0,,,91,60
23610,note_on,0,0,1,,,,,,,,,0,,,95,60
23610,note_on,15,0,1,,,,,,,,,0,,,97,0
23610,note_on,0,0,1,,,,,,,,,0,,,92,0
23625,note_on,0,0,1,,,,,,,,,0,,,97,60
23625,note_on,15,0,1,,,,,,,,,0,,,95,0
23640,note_on,15,0,1,,,,,,,,,0,,,97,0
23640,note_on,0,0,3,,,,,,,,,0,,,80,60
23640,note_on,0,0,1,,,,,,,,,0,,,90,60
23640,note_on,0,0,1,,,,,,,,,0,,,95,60
23640,note_on,0,0,3,,,,,,,,,0,,,71,60
23640,note_on,60,0,3,,,,,,,,,0,,,59,0
23640,note_on,0,0,1,,,,,,,,,0,,,91,0
23655,note_on,0,0,1,,,,,,,,,0,,,97,60
23655,note_on,0,0,3,,,,,,,,,0,,,80,0
23655,note_on,15,0,3,,,,,,,,,0,,,71,0
23655,note_on,15,0,1,,,,,,,,,0,,,95,0
23670,note_on,0,0,1,,,,,,,,,0,,,89,60
23670,note_on,15,0,3,,,,,,,,,0,,,82,60
23670,note_on,0,0,1,,,,,,,,,0,,,90,0
23670,note_on,15,0,1,,,,,,,,,0,,,97,0
23670,note_on,0,0,1,,,,,,,,,0,,,95,60
23670,note_on,0,0,3,,,,,,,,,0,,,73,60
23685,note_on,15,0,3,,,,,,,,,0,,,73,0
23685,note_on,0,0,3,,,,,,,,,0,,,82,0
23685,note_on,0,0,1,,,,,,,,,0,,,97,60
23685,note_on,15,0,1,,,,,,,,,0,,,95,0
23700,note_on,0,0,1,,,,,,,,,0,,,87,60
23700,note_on,0,0,1,,,,,,,,,0,,,89,0
23700,note_on,15,0,1,,,,,,,,,0,,,97,0
23700,note_on,0,0,1,,,,,,,,,0,,,95,60
23700,note_on,15,0,3,,,,,,,,,0,,,83,60
23700,note_on,0,0,3,,,,,,,,,0,,,75,60
23715,note_on,0,0,3,,,,,,,,,0,,,83,0
23715,note_on,15,0,1,,,,,,,,,0,,,95,0
23715,note_on,0,0,1,,,,,,,,,0,,,97,60
23715,note_on,15,0,3,,,,,,,,,0,,,75,0
23730,note_on,0,0,1,,,,,,,,,0,,,95,60
23730,note_on,15,0,1,,,,,,,,,0,,,97,0
23745,note_on,15,0,1,,,,,,,,,0,,,95,0
23745,note_on,0,0,1,,,,,,,,,0,,,97,60
23760,note_on,45,0,3,,,,,,,,,0,,,61,70
23760,note_on,15,0,1,,,,,,,,,0,,,97,0
23760,note_on,0,0,1,,,,,,,,,0,,,87,0
23760,note_on,0,0,1,,,,,,,,,0,,,94,60
23760,note_on,0,0,1,,,,,,,,,0,,,90,60
23775,note_on,0,0,1,,,,,,,,,0,,,95,60
23775,note_on,15,0,1,,,,,,,,,0,,,94,0
23790,note_on,15,0,1,,,,,,,,,0,,,95,0
23790,note_on,0,0,1,,,,,,,,,0,,,89,60
23790,note_on,0,0,1,,,,,,,,,0,,,94,60
23790,note_on,0,0,1,,,,,,,,,0,,,90,0
23805,note_on,0,0,1,,,,,,,,,0,,,95,60
23805,note_on,15,0,1,,,,,,,,,0,,,94,0
23820,note_on,0,0,1,,,,,,,,,0,,,94,60
23820,note_on,0,0,1,,,,,,,,,0,,,87,60
23820,note_on,15,0,1,,,,,,,,,0,,,95,0
23820,note_on,60,0,3,,,,,,,,,0,,,61,0
23820,note_on,0,0,3,,,,,,,,,0,,,78,60
23820,note_on,0,0,3,,,,,,,,,0,,,70,60
23820,note_on,0,0,1,,,,,,,,,0,,,89,0
23835,note_on,15,0,1,,,,,,,,,0,,,94,0
23835,note_on,0,0,3,,,,,,,,,0,,,78,0
23835,note_on,15,0,3,,,,,,,,,0,,,70,0
23835,note_on,0,0,1,,,,,,,,,0,,,95,60
23850,note_on,0,0,3,,,,,,,,,0,,,71,60
23850,note_on,15,0,3,,,,,,,,,0,,,80,60
23850,note_on,15,0,1,,,,,,,,,0,,,95,0
23850,note_on,0,0,1,,,,,,,,,0,,,86,60
23850,note_on,0,0,1,,,,,,,,,0,,,87,0
23850,note_on,0,0,1,,,,,,,,,0,,,94,60
23865,note_on,0,0,3,,,,,,,,,0,,,80,0
23865,note_on,15,0,3,,,,,,,,,0,,,71,0
23865,note_on,0,0,1,,,,,,,,,0,,,95,60
23865,note_on,15,0,1,,,,,,,,,0,,,94,0
23880,note_on,15,0,3,,,,,,,,,0,,,82,60
23880,note_on,0,0,1,,,,,,,,,0,,,85,60
23880,note_on,0,0,1,,,,,,,,,0,,,86,0
23880,note_on,0,0,3,,,,,,,,,0,,,73,60
23880,note_on,15,0,1,,,,,,,,,0,,,95,0
23880,note_on,0,0,1,,,,,,,,,0,,,94,60
23895,note_on,15,0,3,,,,,,,,,0,,,73,0
23895,note_on,0,0,3,,,,,,,,,0,,,82,0
23895,note_on,0,0,1,,,,,,,,,0,,,95,60
23895,note_on,15,0,1,,,,,,,,,0,,,94,0
23910,note_on,0,0,1,,,,,,,,,0,,,94,60
23910,note_on,15,0,1,,,,,,,,,0,,,95,0
23925,note_on,0,0,1,,,,,,,,,0,,,95,60
23925,note_on,15,0,1,,,,,,,,,0,,,94,0
23940,note_on,0,0,1,,,,,,,,,0,,,89,60
23940,note_on,0,0,1,,,,,,,,,0,,,85,0
23940,note_on,45,0,3,,,,,,,,,0,,,61,70
23940,note_on,15,0,1,,,,,,,,,0,,,95,0
23940,note_on,0,0,1,,,,,,,,,0,,,92,60
23955,note_on,0,0,1,,,,,,,,,0,,,94,60
23955,note_on,15,0,1,,,,,,,,,0,,,92,0
23970,note_on,15,0,1,,,,,,,,,0,,,94,0
23970,note_on,0,0,1,,,,,,,,,0,,,92,60
23970,note_on,0,0,1,,,,,,,,,0,,,89,0
23970,note_on,0,0,1,,,,,,,,,0,,,87,60
23985,note_on,15,0,1,,,,,,,,,0,,,92,0
23985,note_on,0,0,1,,,,,,,,,0,,,94,60
24000,note_on,0,0,3,,,,,,,,,0,,,68,60
24000,note_on,15,0,1,,,,,,,,,0,,,94,0
24000,note_on,60,0,3,,,,,,,,,0,,,61,0
24000,note_on,0,0,1,,,,,,,,,0,,,92,60
24000,note_on,0,0,1,,,,,,,,,0,,,87,0
24000,note_on,0,0,1,,,,,,,,,0,,,86,60
24000,note_on,0,0,3,,,,,,,,,0,,,77,60
24015,note_on,15,0,3,,,,,,,,,0,,,68,0
24015,note_on,0,0,3,,,,,,,,,0,,,77,0
24015,note_on,15,0,1,,,,,,,,,0,,,92,0
24015,note_on,0,0,1,,,,,,,,,0,,,94,60
24030,note_on,15,0,3,,,,,,,,,0,,,78,60
24030,note_on,15,0,1,,,,,,,,,0,,,94,0
24030,note_on,0,0,3,,,,,,,,,0,,,70,60
24030,note_on,0,0,1,,,,,,,,,0,,,92,60
24030,note_on,0,0,1,,,,,,,,,0,,,86,0
24030,note_on,0,0,1,,,,,,,,,0,,,85,60
24045,note_on,0,0,3,,,,,,,,,0,,,78,0
24045,note_on,15,0,1,,,,,,,,,0,,,92,0
24045,note_on,15,0,3,,,,,,,,,0,,,70,0
24045,note_on,0,0,1,,,,,,,,,0,,,94,60
24060,note_on,0,0,1,,,,,,,,,0,,,85,0
24060,note_on,0,0,3,,,,,,,,,0,,,71,60
24060,note_on,15,0,3,,,,,,,,,0,,,80,60
24060,note_on,0,0,1,,,,,,,,,0,,,83,60
24060,note_on,0,0,1,,,,,,,,,0,,,92,60
24060,note_on,15,0,1,,,,,,,,,0,,,94,0
24075,note_on,0,0,1,,,,,,,,,0,,,87,60
24075,note_on,15,0,1,,,,,,,,,0,,,92,0
24075,note_on,15,0,3,,,,,,,,,0,,,71,0
24075,note_on,0,0,3,,,,,,,,,0,,,80,0
24090,note_on,15,0,1,,,,,,,,,0,,,87,0
24090,note_on,0,0,1,,,,,,,,,0,,,88,60
24105,note_on,15,0,1,,,,,,,,,0,,,88,0
24105,note_on,0,0,1,,,,,,,,,0,,,89,60
24120,note_on,0,0,3,,,,,,,,,0,,,73,60
24120,note_on,0,0,3,,,,,,,,,0,,,66,60
24120,note_on,45,0,3,,,,,,,,,0,,,82,60
24120,note_on,15,0,1,,,,,,,,,0,,,89,0
24120,note_on,0,0,1,,,,,,,,,0,,,90,60
24120,note_on,0,0,1,,,,,,,,,0,,,83,0
24135,note_on,0,0,3,,,,,,,,,0,,,82,0
24135,note_on,0,0,3,,,,,,,,,0,,,73,0
24135,note_on,15,0,3,,,,,,,,,0,,,66,0
24135,note_on,0,0,1,,,,,,,,,0,,,92,60
24135,note_on,15,0,1,,,,,,,,,0,,,90,0
24150,note_on,0,0,1,,,,,,,,,0,,,90,60
24150,note_on,15,0,1,,,,,,,,,0,,,92,0
24165,note_on,0,0,1,,,,,,,,,0,,,92,60
24165,note_on,15,0,1,,,,,,,,,0,,,90,0
24180,note_on,15,0,1,,,,,,,,,0,,,92,0
24180,note_on,0,0,1,,,,,,,,,0,,,78,70
24195,note_on,15,0,1,,,,,,,,,0,,,90,60
24210,note_on,0,0,1,,,,,,,,,0,,,92,60
24210,note_on,15,0,1,,,,,,,,,0,,,90,0
24225,note_on,15,0,1,,,,,,,,,0,,,92,0
24225,note_on,0,0,1,,,,,,,,,0,,,90,60
24240,note_on,15,0,1,,,,,,,,,0,,,90,0
24240,note_on,0,0,1,,,,,,,,,0,,,78,0
24240,note_on,0,0,1,,,,,,,,,0,,,79,70
24255,note_on,15,0,1,,,,,,,,,0,,,91,60
24270,note_on,15,0,1,,,,,,,,,0,,,91,0
24270,note_on,0,0,1,,,,,,,,,0,,,92,60
24285,note_on,15,0,1,,,,,,,,,0,,,92,0
24285,note_on,0,0,1,,,,,,,,,0,,,91,60
24300,note_on,0,0,1,,,,,,,,,0,,,80,70
24300,note_on,15,0,1,,,,,,,,,0,,,91,0
24300,note_on,0,0,1,,,,,,,,,0,,,79,0
24315,note_on,15,0,1,,,,,,,,,0,,,92,60
24330,note_on,0,0,1,,,,,,,,,0,,,93,60
24330,note_on,15,0,1,,,,,,,,,0,,,92,0
24345,note_on,15,0,1,,,,,,,,,0,,,93,0
24345,note_on,0,0,1,,,,,,,,,0,,,92,60
24360,note_on,225,0,3,,,,,,,,,0,,,64,70
24360,note_on,15,0,1,,,,,,,,,0,,,92,0
24360,note_on,0,0,1,,,,,,,,,0,,,93,60
24360,note_on,0,0,1,,,,,,,,,0,,,80,0
24365,note_on,5,0,3,,,,,,,,,0,,,80,70
24375,note_on,10,0,3,,,,,,,,,0,,,64,0
24380,note_on,0,0,1,,,,,,,,,0,,,92,60
24380,note_on,20,0,1,,,,,,,,,0,,,93,0
24380,note_on,5,0,3,,,,,,,,,0,,,80,0
24400,note_on,0,0,1,,,,,,,,,0,,,93,60
24400,note_on,20,0,1,,,,,,,,,0,,,92,0
24420,note_on,0,0,1,,,,,,,,,0,,,92,60
24420,note_on,40,0,3,,,,,,,,,0,,,63,70
24420,note_on,20,0,1,,,,,,,,,0,,,93,0
24425,note_on,5,0,3,,,,,,,,,0,,,78,70
24435,note_on,10,0,3,,,,,,,,,0,,,63,0
24435,note_on,15,0,1,,,,,,,,,0,,,92,0
24435,note_on,0,0,1,,,,,,,,,0,,,93,60
24440,note_on,5,0,3,,,,,,,,,0,,,78,0
24450,note_on,0,0,1,,,,,,,,,0,,,92,60
24450,note_on,15,0,1,,,,,,,,,0,,,93,0
24465,note_on,0,0,1,,,,,,,,,0,,,93,60
24465,note_on,15,0,1,,,,,,,,,0,,,92,0
24480,note_on,15,0,1,,,,,,,,,0,,,93,0
24480,note_on,40,0,3,,,,,,,,,0,,,61,70
24480,note_on,0,0,1,,,,,,,,,0,,,92,60
24485,note_on,5,0,3,,,,,,,,,0,,,76,70
24495,note_on,15,0,1,,,,,,,,,0,,,92,0
24495,note_on,10,0,3,,,,,,,,,0,,,61,0
24495,note_on,0,0,1,,,,,,,,,0,,,93,60
24500,note_on,5,0,3,,,,,,,,,0,,,76,0
24510,note_on,15,0,1,,,,,,,,,0,,,93,0
24510,note_on,0,0,1,,,,,,,,,0,,,92,60
24525,note_on,15,0,1,,,,,,,,,0,,,92,0
24525,note_on,0,0,1,,,,,,,,,0,,,93,60
24540,note_on,40,0,3,,,,,,,,,0,,,87,70
24540,note_on,0,0,1,,,,,,,,,0,,,92,60
24540,note_on,15,0,1,,,,,,,,,0,,,93,0
24540,note_on,0,0,1,,,,,,,,,0,,,102,70
24555,note_on,0,0,1,,,,,,,,,0,,,93,60
24555,note_on,15,0,1,,,,,,,,,0,,,92,0
24555,note_on,15,0,3,,,,,,,,,0,,,87,0
24570,note_on,0,0,1,,,,,,,,,0,,,92,60
24570,note_on,15,0,1,,,,,,,,,0,,,93,0
24585,note_on,0,0,1,,,,,,,,,0,,,93,60
24585,note_on,15,0,1,,,,,,,,,0,,,92,0
24600,note_on,0,0,1,,,,,,,,,0,,,102,0
24600,note_on,0,0,1,,,,,,,,,0,,,100,70
24600,note_on,0,0,1,,,,,,,,,0,,,92,60
24600,note_on,15,0,1,,,,,,,,,0,,,93,0
24600,note_on,45,0,3,,,,,,,,,0,,,85,70
24615,note_on,15,0,3,,,,,,,,,0,,,85,0
24615,note_on,15,0,1,,,,,,,,,0,,,92,0
24615,note_on,0,0,1,,,,,,,,,0,,,93,60
24630,note_on,15,0,1,,,,,,,,,0,,,93,0
24630,note_on,0,0,1,,,,,,,,,0,,,92,60
24645,note_on,0,0,1,,,,,,,,,0,,,93,60
24645,note_on,15,0,1,,,,,,,,,0,,,92,0
24660,note_on,15,0,1,,,,,,,,,0,,,93,0
24660,note_on,45,0,3,,,,,,,,,0,,,68,70
24660,note_on,0,0,1,,,,,,,,,0,,,100,0
24660,note_on,0,0,1,,,,,,,,,0,,,99,70
24660,note_on,0,0,1,,,,,,,,,0,,,92,60
24665,note_on,5,0,3,,,,,,,,,0,,,84,70
24675,note_on,15,0,1,,,,,,,,,0,,,92,0
24675,note_on,10,0,3,,,,,,,,,0,,,68,0
24675,note_on,0,0,1,,,,,,,,,0,,,93,60
24680,note_on,5,0,3,,,,,,,,,0,,,84,0
24690,note_on,0,0,1,,,,,,,,,0,,,92,60
24690,note_on,15,0,1,,,,,,,,,0,,,93,0
24705,note_on,15,0,1,,,,,,,,,0,,,92,0
24705,note_on,0,0,1,,,,,,,,,0,,,93,60
24720,note_on,15,0,1,,,,,,,,,0,,,93,0
24720,note_on,0,0,1,,,,,,,,,0,,,97,70
24720,note_on,0,0,1,,,,,,,,,0,,,92,60
24720,note_on,40,0,3,,,,,,,,,0,,,82,70
24720,note_on,0,0,1,,,,,,,,,0,,,99,0
24735,note_on,15,0,3,,,,,,,,,0,,,82,0
24735,note_on,0,0,1,,,,,,,,,0,,,93,60
24735,note_on,15,0,1,,,,,,,,,0,,,92,0
24750,note_on,15,0,1,,,,,,,,,0,,,93,0
24750,note_on,0,0,1,,,,,,,,,0,,,92,60
24765,note_on,15,0,1,,,,,,,,,0,,,92,0
24765,note_on,0,0,1,,,,,,,,,0,,,93,60
24780,note_on,45,0,3,,,,,,,,,0,,,84,70
24780,note_on,0,0,1,,,,,,,,,0,,,97,0
24780,note_on,0,0,1,,,,,,,,,0,,,92,60
24780,note_on,0,0,1,,,,,,,,,0,,,99,70
24780,note_on,15,0,1,,,,,,,,,0,,,93,0
24795,note_on,0,0,1,,,,,,,,,0,,,93,60
24795,note_on,15,0,3,,,,,,,,,0,,,84,0
24795,note_on,15,0,1,,,,,,,,,0,,,92,0
24810,note_on,15,0,1,,,,,,,,,0,,,93,0
24810,note_on,0,0,1,,,,,,,,,0,,,92,60
24825,note_on,15,0,1,,,,,,,,,0,,,92,0
24825,note_on,0,0,1,,,,,,,,,0,,,93,60
24840,note_on,15,0,1,,,,,,,,,0,,,93,0
24840,note_on,0,0,1,,,,,,,,,0,,,100,70
24840,note_on,0,0,1,,,,,,,,,0,,,99,0
24840,note_on,0,0,3,,,,,,,,,0,,,73,70
24840,note_on,0,0,1,,,,,,,,,0,,,92,60
24840,note_on,45,0,3,,,,,,,,,0,,,85,70
24855,note_on,15,0,3,,,,,,,,,0,,,73,0
24855,note_on,15,0,1,,,,,,,,,0,,,92,0
24855,note_on,0,0,1,,,,,,,,,0,,,93,60
24855,note_on,0,0,3,,,,,,,,,0,,,85,0
24870,note_on,15,0,1,,,,,,,,,0,,,93,0
24870,note_on,0,0,1,,,,,,,,,0,,,92,60
24885,note_on,15,0,1,,,,,,,,,0,,,92,0
24885,note_on,0,0,1,,,,,,,,,0,,,93,60
24900,note_on,15,0,1,,,,,,,,,0,,,93,0
24900,note_on,0,0,1,,,,,,,,,0,,,100,0
24900,note_on,0,0,1,,,,,,,,,0,,,92,60
24900,note_on,45,0,3,,,,,,,,,0,,,88,70
24900,note_on,0,0,1,,,,,,,,,0,,,97,70
24915,note_on,15,0,3,,,,,,,,,0,,,88,0
24930,note_on,30,0,1,,,,,,,,,0,,,97,0
24930,note_on,0,0,1,,,,,,,,,0,,,92,0
24960,note_on,30,0,1,,,,,,,,,0,,,79,70
24975,note_on,15,0,1,,,,,,,,,0,,,91,60
24990,note_on,15,0,1,,,,,,,,,0,,,91,0
24990,note_on,0,0,1,,,,,,,,,0,,,93,60
25005,note_on,15,0,1,,,,,,,,,0,,,93,0
25005,note_on,0,0,1,,,,,,,,,0,,,91,60
25020,note_on,15,0,1,,,,,,,,,0,,,91,0
25020,note_on,0,0,1,,,,,,,,,0,,,79,0
25020,note_on,0,0,1,,,,,,,,,0,,,78,70
25035,note_on,15,0,1,,,,,,,,,0,,,90,60
25050,note_on,15,0,1,,,,,,,,,0,,,90,0
25050,note_on,0,0,1,,,,,,,,,0,,,92,60
25065,note_on,15,0,1,,,,,,,,,0,,,92,0
25065,note_on,0,0,1,,,,,,,,,0,,,90,60
25080,note_on,0,0,1,,,,,,,,,0,,,78,0
25080,note_on,0,0,1,,,,,,,,,0,,,92,60
25080,note_on,15,0,1,,,,,,,,,0,,,90,0
25080,note_on,165,0,3,,,,,,,,,0,,,63,70
25085,note_on,5,0,3,,,,,,,,,0,,,78,70
25095,note_on,10,0,3,,,,,,,,,0,,,63,0
25100,note_on,5,0,3,,,,,,,,,0,,,78,0
25100,note_on,20,0,1,,,,,,,,,0,,,92,0
25100,note_on,0,0,1,,,,,,,,,0,,,90,60
25120,note_on,0,0,1,,,,,,,,,0,,,92,60
25120,note_on,20,0,1,,,,,,,,,0,,,90,0
25140,note_on,20,0,1,,,,,,,,,0,,,92,0
25140,note_on,0,0,1,,,,,,,,,0,,,90,60
25140,note_on,40,0,3,,,,,,,,,0,,,61,70
25145,note_on,5,0,3,,,,,,,,,0,,,76,70
25155,note_on,10,0,3,,,,,,,,,0,,,61,0
25155,note_on,15,0,1,,,,,,,,,0,,,90,0
25155,note_on,0,0,1,,,,,,,,,0,,,92,60
25160,note_on,5,0,3,,,,,,,,,0,,,76,0
25170,note_on,15,0,1,,,,,,,,,0,,,92,0
25170,note_on,0,0,1,,,,,,,,,0,,,90,60
25185,note_on,15,0,1,,,,,,,,,0,,,90,0
25185,note_on,0,0,1,,,,,,,,,0,,,92,60
25200,note_on,0,0,1,,,,,,,,,0,,,90,60
25200,note_on,15,0,1,,,,,,,,,0,,,92,0
25200,note_on,40,0,3,,,,,,,,,0,,,59,70
25205,note_on,5,0,3,,,,,,,,,0,,,75,70
25215,note_on,0,0,1,,,,,,,,,0,,,92,60
25215,note_on,15,0,1,,,,,,,,,0,,,90,0
25215,note_on,10,0,3,,,,,,,,,0,,,59,0
25220,note_on,5,0,3,,,,,,,,,0,,,75,0
25230,note_on,0,0,1,,,,,,,,,0,,,90,60
25230,note_on,15,0,1,,,,,,,,,0,,,92,0
25245,note_on,0,0,1,,,,,,,,,0,,,92,60
25245,note_on,15,0,1,,,,,,,,,0,,,90,0
25260,note_on,0,0,1,,,,,,,,,0,,,90,60
25260,note_on,0,0,1,,,,,,,,,0,,,100,70
25260,note_on,15,0,1,,,,,,,,,0,,,92,0
25260,note_on,40,0,3,,,,,,,,,0,,,85,70
25275,note_on,0,0,1,,,,,,,,,0,,,92,60
25275,note_on,15,0,3,,,,,,,,,0,,,85,0
25275,note_on,15,0,1,,,,,,,,,0,,,90,0
25290,note_on,15,0,1,,,,,,,,,0,,,92,0
25290,note_on,0,0,1,,,,,,,,,0,,,90,60
25305,note_on,15,0,1,,,,,,,,,0,,,90,0
25305,note_on,0,0,1,,,,,,,,,0,,,92,60
25320,note_on,0,0,1,,,,,,,,,0,,,99,70
25320,note_on,15,0,1,,,,,,,,,0,,,92,0
25320,note_on,0,0,1,,,,,,,,,0,,,90,60
25320,note_on,0,0,1,,,,,,,,,0,,,100,0
25320,note_on,45,0,3,,,,,,,,,0,,,83,70
25335,note_on,0,0,1,,,,,,,,,0,,,92,60
25335,note_on,15,0,3,,,,,,,,,0,,,83,0
25335,note_on,15,0,1,,,,,,,,,0,,,90,0
25350,note_on,0,0,1,,,,,,,,,0,,,90,60
25350,note_on,15,0,1,,,,,,,,,0,,,92,0
25365,note_on,0,0,1,,,,,,,,,0,,,92,60
25365,note_on,15,0,1,,,,,,,,,0,,,90,0
25380,note_on,45,0,3,,,,,,,,,0,,,66,70
25380,note_on,0,0,1,,,,,,,,,0,,,97,70
25380,note_on,0,0,1,,,,,,,,,0,,,90,60
25380,note_on,15,0,1,,,,,,,,,0,,,92,0
25380,note_on,0,0,1,,,,,,,,,0,,,99,0
25385,note_on,5,0,3,,,,,,,,,0,,,82,70
25395,note_on,15,0,1,,,,,,,,,0,,,90,0
25395,note_on,0,0,1,,,,,,,,,0,,,92,60
25395,note_on,10,0,3,,,,,,,,,0,,,66,0
25400,note_on,5,0,3,,,,,,,,,0,,,82,0
25410,note_on,15,0,1,,,,,,,,,0,,,92,0
25410,note_on,0,0,1,,,,,,,,,0,,,90,60
25425,note_on,15,0,1,,,,,,,,,0,,,90,0
25425,note_on,0,0,1,,,,,,,,,0,,,92,60
25440,note_on,0,0,1,,,,,,,,,0,,,97,0
25440,note_on,0,0,1,,,,,,,,,0,,,95,70
25440,note_on,0,0,1,,,,,,,,,0,,,90,60
25440,note_on,40,0,3,,,,,,,,,0,,,80,70
25440,note_on,15,0,1,,,,,,,,,0,,,92,0
25455,note_on,15,0,1,,,,,,,,,0,,,90,0
25455,note_on,0,0,1,,,,,,,,,0,,,92,60
25455,note_on,15,0,3,,,,,,,,,0,,,80,0
25470,note_on,15,0,1,,,,,,,,,0,,,92,0
25470,note_on,0,0,1,,,,,,,,,0,,,90,60
25485,note_on,0,0,1,,,,,,,,,0,,,92,60
25485,note_on,15,0,1,,,,,,,,,0,,,90,0
25500,note_on,0,0,1,,,,,,,,,0,,,90,60
25500,note_on,45,0,3,,,,,,,,,0,,,82,70
25500,note_on,0,0,1,,,,,,,,,0,,,95,0
25500,note_on,0,0,1,,,,,,,,,0,,,97,70
25500,note_on,15,0,1,,,,,,,,,0,,,92,0
25515,note_on,15,0,1,,,,,,,,,0,,,90,0
25515,note_on,0,0,1,,,,,,,,,0,,,92,60
25515,note_on,15,0,3,,,,,,,,,0,,,82,0
25530,note_on,0,0,1,,,,,,,,,0,,,90,60
25530,note_on,15,0,1,,,,,,,,,0,,,92,0
25545,note_on,15,0,1,,,,,,,,,0,,,90,0
25545,note_on,0,0,1,,,,,,,,,0,,,92,60
25560,note_on,0,0,1,,,,,,,,,0,,,90,60
25560,note_on,0,0,1,,,,,,,,,0,,,97,0
25560,note_on,0,0,1,,,,,,,,,0,,,99,70
25560,note_on,15,0,1,,,,,,,,,0,,,92,0
25560,note_on,45,0,3,,,,,,,,,0,,,83,70
25560,note_on,0,0,3,,,,,,,,,0,,,71,70
25575,note_on,15,0,3,,,,,,,,,0,,,71,0
25575,note_on,0,0,3,,,,,,,,,0,,,83,0
25575,note_on,0,0,1,,,,,,,,,0,,,92,60
25575,note_on,15,0,1,,,,,,,,,0,,,90,0
25590,note_on,15,0,1,,,,,,,,,0,,,92,0
25590,note_on,0,0,1,,,,,,,,,0,,,90,60
25605,note_on,0,0,1,,,,,,,,,0,,,92,60
25605,note_on,15,0,1,,,,,,,,,0,,,90,0
25620,note_on,0,0,1,,,,,,,,,0,,,95,70
25620,note_on,15,0,1,,,,,,,,,0,,,92,0
25620,note_on,45,0,3,,,,,,,,,0,,,87,70
25620,note_on,0,0,1,,,,,,,,,0,,,90,60
25620,note_on,0,0,1,,,,,,,,,0,,,99,0
25635,note_on,15,0,3,,,,,,,,,0,,,87,0
25650,note_on,30,0,1,,,,,,,,,0,,,95,0
25650,note_on,0,0,1,,,,,,,,,0,,,90,0
25680,note_on,30,0,1,,,,,,,,,0,,,74,70
25695,note_on,15,0,1,,,,,,,,,0,,,86,60
25710,note_on,15,0,1,,,,,,,,,0,,,86,0
25710,note_on,0,0,1,,,,,,,,,0,,,87,60
25725,note_on,0,0,1,,,,,,,,,0,,,86,60
25725,note_on,15,0,1,,,,,,,,,0,,,87,0
25740,note_on,0,0,1,,,,,,,,,0,,,75,70
25740,note_on,0,0,1,,,,,,,,,0,,,74,0
25740,note_on,15,0,1,,,,,,,,,0,,,86,0
25755,note_on,15,0,1,,,,,,,,,0,,,87,60
25770,note_on,0,0,1,,,,,,,,,0,,,88,60
25770,note_on,15,0,1,,,,,,,,,0,,,87,0
25785,note_on,0,0,1,,,,,,,,,0,,,87,60
25785,note_on,15,0,1,,,,,,,,,0,,,88,0
25800,note_on,0,0,1,,,,,,,,,0,,,75,0
25800,note_on,0,0,1,,,,,,,,,0,,,88,60
25800,note_on,165,0,3,,,,,,,,,0,,,75,60
25800,note_on,15,0,1,,,,,,,,,0,,,87,0
25800,note_on,0,0,3,,,,,,,,,0,,,63,60
25800,note_on,0,0,3,,,,,,,,,0,,,67,60
25815,note_on,0,0,3,,,,,,,,,0,,,75,0
25815,note_on,15,0,3,,,,,,,,,0,,,63,0
25815,note_on,0,0,1,,,,,,,,,0,,,87,60
25815,note_on,0,0,3,,,,,,,,,0,,,67,0
25815,note_on,15,0,1,,,,,,,,,0,,,88,0
25830,note_on,0,0,1,,,,,,,,,0,,,88,60
25830,note_on,15,0,1,,,,,,,,,0,,,87,0
25845,note_on,15,0,1,,,,,,,,,0,,,88,0
25845,note_on,0,0,1,,,,,,,,,0,,,87,60
25860,note_on,0,0,3,,,,,,,,,0,,,68,60
25860,note_on,45,0,3,,,,,,,,,0,,,65,60
25860,note_on,0,0,3,,,,,,,,,0,,,74,60
25860,note_on,15,0,1,,,,,,,,,0,,,87,0
25860,note_on,0,0,1,,,,,,,,,0,,,88,60
25875,note_on,15,0,1,,,,,,,,,0,,,88,0
25875,note_on,0,0,3,,,,,,,,,0,,,68,0
25875,note_on,0,0,3,,,,,,,,,0,,,65,0
25875,note_on,15,0,3,,,,,,,,,0,,,74,0
25875,note_on,0,0,1,,,,,,,,,0,,,87,60
25890,note_on,0,0,1,,,,,,,,,0,,,88,60
25890,note_on,15,0,1,,,,,,,,,0,,,87,0
25905,note_on,0,0,1,,,,,,,,,0,,,87,60
25905,note_on,15,0,1,,,,,,,,,0,,,88,0
25920,note_on,15,0,1,,,,,,,,,0,,,87,0
25920,note_on,45,0,3,,,,,,,,,0,,,74,60
25920,note_on,0,0,1,,,,,,,,,0,,,88,60
25920,note_on,0,0,3,,,,,,,,,0,,,67,60
25920,note_on,0,0,3,,,,,,,,,0,,,70,60
25931,note_on,0,0,1,,,,,,,,,0,,,87,61
25931,note_on,11,0,1,,,,,,,,,0,,,88,0
25935,note_on,15,0,3,,,,,,,,,0,,,67,0
25935,note_on,0,0,3,,,,,,,,,0,,,74,0
25935,note_on,0,0,3,,,,,,,,,0,,,70,0
25942,note_on,0,0,1,,,,,,,,,0,,,86,62
25942,note_on,11,0,1,,,,,,,,,0,,,87,0
25953,note_on,0,0,1,,,,,,,,,0,,,87,64
25953,note_on,11,0,1,,,,,,,,,0,,,86,0
25964,note_on,11,0,1,,,,,,,,,0,,,87,0
25965,note_on,1,0,1,,,,,,,,,0,,,88,65
25976,note_on,11,0,1,,,,,,,,,0,,,88,0
25976,note_on,0,0,1,,,,,,,,,0,,,89,66
25987,note_on,11,0,1,,,,,,,,,0,,,89,0
25987,note_on,0,0,1,,,,,,,,,0,,,90,68
25998,note_on,11,0,1,,,,,,,,,0,,,90,0
25998,note_on,0,0,1,,,,,,,,,0,,,91,69
26009,note_on,11,0,1,,,,,,,,,0,,,91,0
26010,note_on,1,0,1,,,,,,,,,0,,,92,71
26021,note_on,11,0,1,,,,,,,,,0,,,92,0
26022,note_on,1,0,1,,,,,,,,,0,,,93,72
26033,note_on,11,0,1,,,,,,,,,0,,,93,0
26033,note_on,0,0,1,,,,,,,,,0,,,94,74
26044,note_on,11,0,1,,,,,,,,,0,,,94,0
26044,note_on,0,0,1,,,,,,,,,0,,,95,75
26055,note_on,11,0,1,,,,,,,,,0,,,95,0
26056,note_on,1,0,1,,,,,,,,,0,,,96,76
26067,note_on,0,0,1,,,,,,,,,0,,,97,78
26067,note_on,11,0,1,,,,,,,,,0,,,96,0
26078,note_on,11,0,1,,,,,,,,,0,,,97,0
26078,note_on,0,0,1,,,,,,,,,0,,,98,79
26089,note_on,0,0,1,,,,,,,,,0,,,99,80
26089,note_on,11,0,1,,,,,,,,,0,,,98,0
26100,note_on,11,0,1,,,,,,,,,0,,,99,0
26100,note_on,0,0,3,,,,,,,,,0,,,71,80
26100,note_on,0,0,3,,,,,,,,,0,,,68,80
26100,note_on,0,0,1,,,,,,,,,0,,,100,80
26100,note_on,165,0,3,,,,,,,,,0,,,76,80
26112,note_on,0,0,1,,,,,,,,,0,,,102,80
26112,note_on,12,0,1,,,,,,,,,0,,,100,0
26115,note_on,0,0,3,,,,,,,,,0,,,76,0
26115,note_on,0,0,3,,,,,,,,,0,,,71,0
26115,note_on,15,0,3,,,,,,,,,0,,,68,0
26124,note_on,0,0,1,,,,,,,,,0,,,100,80
26124,note_on,12,0,1,,,,,,,,,0,,,102,0
26136,note_on,12,0,1,,,,,,,,,0,,,100,0
26136,note_on,0,0,1,,,,,,,,,0,,,99,80
26148,note_on,12,0,1,,,,,,,,,0,,,99,0
26148,note_on,0,0,1,,,,,,,,,0,,,98,80
26160,note_on,12,0,1,,,,,,,,,0,,,98,0
26160,note_on,0,0,1,,,,,,,,,0,,,97,80
26172,note_on,12,0,1,,,,,,,,,0,,,97,0
26172,note_on,0,0,1,,,,,,,,,0,,,96,80
26184,note_on,12,0,1,,,,,,,,,0,,,96,0
26184,note_on,0,0,1,,,,,,,,,0,,,95,80
26196,note_on,12,0,1,,,,,,,,,0,,,95,0
26196,note_on,0,0,1,,,,,,,,,0,,,94,80
26208,note_on,12,0,1,,,,,,,,,0,,,94,0
26208,note_on,0,0,1,,,,,,,,,0,,,93,80
26220,note_on,12,0,1,,,,,,,,,0,,,93,0
26220,note_on,0,0,1,,,,,,,,,0,,,92,80
26232,note_on,12,0,1,,,,,,,,,0,,,92,0
26232,note_on,0,0,1,,,,,,,,,0,,,91,80
26244,note_on,12,0,1,,,,,,,,,0,,,91,0
26244,note_on,0,0,1,,,,,,,,,0,,,90,80
26256,note_on,12,0,1,,,,,,,,,0,,,90,0
26256,note_on,0,0,1,,,,,,,,,0,,,89,80
26268,note_on,0,0,1,,,,,,,,,0,,,88,80
26268,note_on,12,0,1,,,,,,,,,0,,,89,0
26280,note_on,12,0,1,,,,,,,,,0,,,88,0
26280,note_on,0,0,1,,,,,,,,,0,,,87,90
26280,note_on,165,0,3,,,,,,,,,0,,,63,90
26285,note_on,5,0,3,,,,,,,,,0,,,79,90
26340,note_on,55,0,3,,,,,,,,,0,,,79,0
26340,note_on,0,0,1,,,,,,,,,0,,,70,90
26340,note_on,0,0,3,,,,,,,,,0,,,63,0
26340,note_on,60,0,1,,,,,,,,,0,,,87,0
26355,note_on,0,0,1,,,,,,,,,0,,,82,80
26355,note_on,15,0,1,,,,,,,,,0,,,70,0
26370,note_on,0,0,1,,,,,,,,,0,,,83,80
26370,note_on,15,0,1,,,,,,,,,0,,,82,0
26385,note_on,0,0,1,,,,,,,,,0,,,82,80
26385,note_on,15,0,1,,,,,,,,,0,,,83,0
26400,note_on,15,0,1,,,,,,,,,0,,,82,0
26400,note_on,0,0,1,,,,,,,,,0,,,74,90
26415,note_on,15,0,1,,,,,,,,,0,,,74,0
26415,note_on,0,0,1,,,,,,,,,0,,,86,80
26430,note_on,15,0,1,,,,,,,,,0,,,86,0
26430,note_on,0,0,1,,,,,,,,,0,,,87,80
26445,note_on,15,0,1,,,,,,,,,0,,,87,0
26445,note_on,0,0,1,,,,,,,,,0,,,86,80
26460,note_on,15,0,1,,,,,,,,,0,,,86,0
26460,note_on,0,0,1,,,,,,,,,0,,,75,90
26475,note_on,15,0,1,,,,,,,,,0,,,75,0
26475,note_on,0,0,1,,,,,,,,,0,,,87,80
26490,note_on,15,0,1,,,,,,,,,0,,,87,0
26490,note_on,0,0,1,,,,,,,,,0,,,88,80
26505,note_on,0,0,1,,,,,,,,,0,,,87,80
26505,note_on,15,0,1,,,,,,,,,0,,,88,0
26520,note_on,0,0,3,,,,,,,,,0,,,67,80
26520,note_on,0,0,3,,,,,,,,,0,,,63,80
26520,note_on,0,0,1,,,,,,,,,0,,,88,80
26520,note_on,180,0,3,,,,,,,,,0,,,75,80
26520,note_on,15,0,1,,,,,,,,,0,,,87,0
26535,note_on,0,0,1,,,,,,,,,0,,,87,80
26535,note_on,15,0,1,,,,,,,,,0,,,88,0
26535,note_on,0,0,3,,,,,,,,,0,,,75,0
26535,note_on,0,0,3,,,,,,,,,0,,,67,0
26535,note_on,15,0,3,,,,,,,,,0,,,63,0
26550,note_on,15,0,1,,,,,,,,,0,,,87,0
26550,note_on,0,0,1,,,,,,,,,0,,,88,80
26565,note_on,15,0,1,,,,,,,,,0,,,88,0
26565,note_on,0,0,1,,,,,,,,,0,,,87,80
26580,note_on,15,0,1,,,,,,,,,0,,,87,0
26580,note_on,45,0,3,,,,,,,,,0,,,65,80
26580,note_on,0,0,3,,,,,,,,,0,,,68,80
26580,note_on,0,0,3,,,,,,,,,0,,,74,80
26580,note_on,0,0,1,,,,,,,,,0,,,88,80
26595,note_on,15,0,1,,,,,,,,,0,,,88,0
26595,note_on,0,0,3,,,,,,,,,0,,,65,0
26595,note_on,0,0,3,,,,,,,,,0,,,68,0
26595,note_on,15,0,3,,,,,,,,,0,,,74,0
26595,note_on,0,0,1,,,,,,,,,0,,,87,80
26610,note_on,0,0,1,,,,,,,,,0,,,88,80
26610,note_on,15,0,1,,,,,,,,,0,,,87,0
26625,note_on,15,0,1,,,,,,,,,0,,,88,0
26625,note_on,0,0,1,,,,,,,,,0,,,87,80
26640,note_on,0,0,1,,,,,,,,,0,,,88,80
26640,note_on,15,0,1,,,,,,,,,0,,,87,0
26640,note_on,0,0,3,,,,,,,,,0,,,67,80
26640,note_on,0,0,3,,,,,,,,,0,,,70,80
26640,note_on,45,0,3,,,,,,,,,0,,,74,80
26651,note_on,0,0,1,,,,,,,,,0,,,87,81
26651,note_on,11,0,1,,,,,,,,,0,,,88,0
26655,note_on,0,0,3,,,,,,,,,0,,,74,0
26655,note_on,0,0,3,,,,,,,,,0,,,70,0
26655,note_on,15,0,3,,,,,,,,,0,,,67,0
26662,note_on,11,0,1,,,,,,,,,0,,,87,0
26662,note_on,0,0,1,,,,,,,,,0,,,86,82
26673,note_on,0,0,1,,,,,,,,,0,,,87,84
26673,note_on,11,0,1,,,,,,,,,0,,,86,0
26684,note_on,11,0,1,,,,,,,,,0,,,87,0
26685,note_on,1,0,1,,,,,,,,,0,,,88,85
26696,note_on,11,0,1,,,,,,,,,0,,,88,0
26696,note_on,0,0,1,,,,,,,,,0,,,89,86
26707,note_on,11,0,1,,,,,,,,,0,,,89,0
26707,note_on,0,0,1,,,,,,,,,0,,,90,88
26718,note_on,0,0,1,,,,,,,,,0,,,91,89
26718,note_on,11,0,1,,,,,,,,,0,,,90,0
26729,note_on,11,0,1,,,,,,,,,0,,,91,0
26730,note_on,1,0,1,,,,,,,,,0,,,92,91
26741,note_on,11,0,1,,,,,,,,,0,,,92,0
26742,note_on,1,0,1,,,,,,,,,0,,,93,92
26753,note_on,11,0,1,,,,,,,,,0,,,93,0
26753,note_on,0,0,1,,,,,,,,,0,,,94,94
26764,note_on,11,0,1,,,,,,,,,0,,,94,0
26764,note_on,0,0,1,,,,,,,,,0,,,95,95
26775,note_on,11,0,1,,,,,,,,,0,,,95,0
26776,note_on,1,0,1,,,,,,,,,0,,,96,96
26787,note_on,11,0,1,,,,,,,,,0,,,96,0
26787,note_on,0,0,1,,,,,,,,,0,,,97,98
26798,note_on,11,0,1,,,,,,,,,0,,,97,0
26798,note_on,0,0,1,,,,,,,,,0,,,98,99
26809,note_on,11,0,1,,,,,,,,,0,,,98,0
26809,note_on,0,0,1,,,,,,,,,0,,,99,100
26820,note_on,11,0,1,,,,,,,,,0,,,99,0
26820,note_on,0,0,3,,,,,,,,,0,,,71,100
26820,note_on,0,0,3,,,,,,,,,0,,,68,100
26820,note_on,165,0,3,,,,,,,,,0,,,76,100
26820,note_on,0,0,1,,,,,,,,,0,,,100,100
26832,note_on,0,0,1,,,,,,,,,0,,,102,100
26832,note_on,12,0,1,,,,,,,,,0,,,100,0
26835,note_on,0,0,3,,,,,,,,,0,,,76,0
26835,note_on,0,0,3,,,,,,,,,0,,,71,0
26835,note_on,15,0,3,,,,,,,,,0,,,68,0
26844,note_on,0,0,1,,,,,,,,,0,,,100,100
26844,note_on,12,0,1,,,,,,,,,0,,,102,0
26856,note_on,12,0,1,,,,,,,,,0,,,100,0
26856,note_on,0,0,1,,,,,,,,,0,,,99,100
26868,note_on,0,0,1,,,,,,,,,0,,,98,100
26868,note_on,12,0,1,,,,,,,,,0,,,99,0
26880,note_on,0,0,1,,,,,,,,,0,,,97,100
26880,note_on,12,0,1,,,,,,,,,0,,,98,0
26892,note_on,0,0,1,,,,,,,,,0,,,96,100
26892,note_on,12,0,1,,,,,,,,,0,,,97,0
26904,note_on,0,0,1,,,,,,,,,0,,,95,100
26904,note_on,12,0,1,,,,,,,,,0,,,96,0
26916,note_on,0,0,1,,,,,,,,,0,,,94,100
26916,note_on,12,0,1,,,,,,,,,0,,,95,0
26928,note_on,12,0,1,,,,,,,,,0,,,94,0
26928,note_on,0,0,1,,,,,,,,,0,,,93,100
26940,note_on,12,0,1,,,,,,,,,0,,,93,0
26940,note_on,0,0,1,,,,,,,,,0,,,92,100
26952,note_on,0,0,1,,,,,,,,,0,,,91,100
26952,note_on,12,0,1,,,,,,,,,0,,,92,0
26964,note_on,0,0,1,,,,,,,,,0,,,90,100
26964,note_on,12,0,1,,,,,,,,,0,,,91,0
26976,note_on,12,0,1,,,,,,,,,0,,,90,0
26976,note_on,0,0,1,,,,,,,,,0,,,89,100
26988,note_on,12,0,1,,,,,,,,,0,,,89,0
26988,note_on,0,0,1,,,,,,,,,0,,,88,100
27000,note_on,0,0,1,,,,,,,,,0,,,88,100
27000,note_on,165,0,3,,,,,,,,,0,,,79,100
27000,note_on,12,0,1,,,,,,,,,0,,,88,0
27000,note_on,0,0,3,,,,,,,,,0,,,63,100
27000,note_on,0,0,3,,,,,,,,,0,,,70,100
27011,note_on,11,0,1,,,,,,,,,0,,,88,0
27011,note_on,0,0,1,,,,,,,,,0,,,87,100
27015,note_on,15,0,3,,,,,,,,,0,,,63,0
27015,note_on,0,0,3,,,,,,,,,0,,,79,0
27015,note_on,0,0,3,,,,,,,,,0,,,70,0
27022,note_on,0,0,1,,,,,,,,,0,,,86,100
27022,note_on,11,0,1,,,,,,,,,0,,,87,0
27033,note_on,0,0,1,,,,,,,,,0,,,87,100
27033,note_on,11,0,1,,,,,,,,,0,,,86,0
27044,note_on,11,0,1,,,,,,,,,0,,,87,0
27045,note_on,1,0,1,,,,,,,,,0,,,88,100
27056,note_on,0,0,1,,,,,,,,,0,,,89,100
27056,note_on,11,0,1,,,,,,,,,0,,,88,0
27067,note_on,0,0,1,,,,,,,,,0,,,90,100
27067,note_on,11,0,1,,,,,,,,,0,,,89,0
27078,note_on,11,0,1,,,,,,,,,0,,,90,0
27078,note_on,0,0,1,,,,,,,,,0,,,91,100
27089,note_on,11,0,1,,,,,,,,,0,,,91,0
27090,note_on,1,0,1,,,,,,,,,0,,,92,100
27101,note_on,11,0,1,,,,,,,,,0,,,92,0
27102,note_on,1,0,1,,,,,,,,,0,,,93,100
27113,note_on,0,0,1,,,,,,,,,0,,,94,100
27113,note_on,11,0,1,,,,,,,,,0,,,93,0
27124,note_on,11,0,1,,,,,,,,,0,,,94,0
27124,note_on,0,0,1,,,,,,,,,0,,,95,100
27135,note_on,11,0,1,,,,,,,,,0,,,95,0
27136,note_on,1,0,1,,,,,,,,,0,,,96,100
27147,note_on,11,0,1,,,,,,,,,0,,,96,0
27147,note_on,0,0,1,,,,,,,,,0,,,97,100
27158,note_on,0,0,1,,,,,,,,,0,,,98,100
27158,note_on,11,0,1,,,,,,,,,0,,,97,0
27169,note_on,11,0,1,,,,,,,,,0,,,98,0
27169,note_on,0,0,1,,,,,,,,,0,,,99,100
27180,note_on,0,0,3,,,,,,,,,0,,,71,100
27180,note_on,11,0,1,,,,,,,,,0,,,99,0
27180,note_on,165,0,3,,,,,,,,,0,,,56,100
27180,note_on,0,0,1,,,,,,,,,0,,,100,100
27192,note_on,0,0,1,,,,,,,,,0,,,102,100
27192,note_on,12,0,1,,,,,,,,,0,,,100,0
27195,note_on,15,0,3,,,,,,,,,0,,,71,0
27195,note_on,0,0,3,,,,,,,,,0,,,56,0
27204,note_on,12,0,1,,,,,,,,,0,,,102,0
27204,note_on,0,0,1,,,,,,,,,0,,,100,100
27216,note_on,0,0,1,,,,,,,,,0,,,99,100
27216,note_on,12,0,1,,,,,,,,,0,,,100,0
27228,note_on,0,0,1,,,,,,,,,0,,,98,100
27228,note_on,12,0,1,,,,,,,,,0,,,99,0
27240,note_on,12,0,1,,,,,,,,,0,,,98,0
27240,note_on,0,0,1,,,,,,,,,0,,,97,100
27252,note_on,12,0,1,,,,,,,,,0,,,97,0
27252,note_on,0,0,1,,,,,,,,,0,,,96,100
27264,note_on,12,0,1,,,,,,,,,0,,,96,0
27264,note_on,0,0,1,,,,,,,,,0,,,95,100
27276,note_on,12,0,1,,,,,,,,,0,,,95,0
27276,note_on,0,0,1,,,,,,,,,0,,,94,100
27288,note_on,12,0,1,,,,,,,,,0,,,94,0
27288,note_on,0,0,1,,,,,,,,,0,,,93,100
27300,note_on,12,0,1,,,,,,,,,0,,,93,0
27300,note_on,0,0,1,,,,,,,,,0,,,92,100
27312,note_on,12,0,1,,,,,,,,,0,,,92,0
27312,note_on,0,0,1,,,,,,,,,0,,,91,100
27324,note_on,12,0,1,,,,,,,,,0,,,91,0
27324,note_on,0,0,1,,,,,,,,,0,,,90,100
27336,note_on,12,0,1,,,,,,,,,0,,,90,0
27336,note_on,0,0,1,,,,,,,,,0,,,89,100
27348,note_on,12,0,1,,,,,,,,,0,,,89,0
27348,note_on,0,0,1,,,,,,,,,0,,,88,100
27360,time_signature,6000,1,0,30,8,12,8,,,,,,,,,
27360,note_on,4590,0,4,,,,,,,,,0,,,67,100
27360,note_on,0,0,4,,,,,,,,,0,,,51,100
27360,note_on,12,0,1,,,,,,,,,0,,,88,0
27360,note_on,0,0,1,,,,,,,,,0,,,88,100
27371,note_on,11,0,1,,,,,,,,,0,,,88,0
27371,note_on,0,0,1,,,,,,,,,0,,,87,100
27375,note_on,15,0,4,,,,,,,,,0,,,51,0
27375,note_on,0,0,4,,,,,,,,,0,,,67,0
27382,note_on,11,0,1,,,,,,,,,0,,,87,0
27382,note_on,0,0,1,,,,,,,,,0,,,86,101
27393,note_on,0,0,1,,,,,,,,,0,,,87,102
27393,note_on,11,0,1,,,,,,,,,0,,,86,0
27404,note_on,11,0,1,,,,,,,,,0,,,87,0
27405,note_on,1,0,1,,,,,,,,,0,,,88,102
27416,note_on,0,0,1,,,,,,,,,0,,,89,103
27416,note_on,11,0,1,,,,,,,,,0,,,88,0
27427,note_on,11,0,1,,,,,,,,,0,,,89,0
27427,note_on,0,0,1,,,,,,,,,0,,,90,104
27438,note_on,11,0,1,,,,,,,,,0,,,90,0
27438,note_on,0,0,1,,,,,,,,,0,,,91,104
27449,note_on,11,0,1,,,,,,,,,0,,,91,0
27450,note_on,1,0,1,,,,,,,,,0,,,92,105
27461,note_on,11,0,1,,,,,,,,,0,,,92,0
27462,note_on,1,0,1,,,,,,,,,0,,,93,106
27473,note_on,11,0,1,,,,,,,,,0,,,93,0
27473,note_on,0,0,1,,,,,,,,,0,,,94,107
27484,note_on,0,0,1,,,,,,,,,0,,,95,107
27484,note_on,11,0,1,,,,,,,,,0,,,94,0
27495,note_on,11,0,1,,,,,,,,,0,,,95,0
27496,note_on,1,0,1,,,,,,,,,0,,,96,108
27507,note_on,11,0,1,,,,,,,,,0,,,96,0
27507,note_on,0,0,1,,,,,,,,,0,,,97,109
27518,note_on,0,0,1,,,,,,,,,0,,,98,109
27518,note_on,11,0,1,,,,,,,,,0,,,97,0
27529,note_on,11,0,1,,,,,,,,,0,,,98,0
27529,note_on,0,0,1,,,,,,,,,0,,,99,110
27540,note_on,0,0,1,,,,,,,,,0,,,100,110
27540,note_on,11,0,1,,,,,,,,,0,,,99,0
27540,note_on,0,0,4,,,,,,,,,0,,,44,110
27540,note_on,165,0,4,,,,,,,,,0,,,59,110
27555,note_on,15,0,1,,,,,,,,,0,,,100,0
27555,note_on,15,0,4,,,,,,,,,0,,,44,0
27555,note_on,0,0,4,,,,,,,,,0,,,59,0
27555,note_on,0,0,1,,,,,,,,,0,,,102,110
27570,note_on,0,0,1,,,,,,,,,0,,,100,110
27570,note_on,15,0,1,,,,,,,,,0,,,102,0
27585,note_on,15,0,1,,,,,,,,,0,,,100,0
27585,note_on,0,0,1,,,,,,,,,0,,,99,110
27600,note_on,15,0,1,,,,,,,,,0,,,99,0
27600,note_on,0,0,1,,,,,,,,,0,,,98,110
27615,note_on,0,0,1,,,,,,,,,0,,,99,110
27615,note_on,15,0,1,,,,,,,,,0,,,98,0
27630,note_on,15,0,1,,,,,,,,,0,,,99,0
27630,note_on,0,0,1,,,,,,,,,0,,,98,110
27645,note_on,0,0,1,,,,,,,,,0,,,97,110
27645,note_on,15,0,1,,,,,,,,,0,,,98,0
27660,note_on,0,0,1,,,,,,,,,0,,,96,110
27660,note_on,15,0,1,,,,,,,,,0,,,97,0
27675,note_on,0,0,1,,,,,,,,,0,,,97,110
27675,note_on,15,0,1,,,,,,,,,0,,,96,0
27690,note_on,15,0,1,,,,,,,,,0,,,97,0
27690,note_on,0,0,1,,,,,,,,,0,,,96,110
27705,note_on,15,0,1,,,,,,,,,0,,,96,0
27705,note_on,0,0,1,,,,,,,,,0,,,95,110
27720,note_on,0,0,1,,,,,,,,,0,,,94,110
27720,note_on,15,0,1,,,,,,,,,0,,,95,0
27735,note_on,0,0,1,,,,,,,,,0,,,95,110
27735,note_on,15,0,1,,,,,,,,,0,,,94,0
27750,note_on,15,0,1,,,,,,,,,0,,,95,0
27750,note_on,0,0,1,,,,,,,,,0,,,94,110
27765,note_on,15,0,1,,,,,,,,,0,,,94,0
27765,note_on,0,0,1,,,,,,,,,0,,,93,110
27780,note_on,15,0,1,,,,,,,,,0,,,93,0
27780,note_on,0,0,1,,,,,,,,,0,,,92,110
27795,note_on,15,0,1,,,,,,,,,0,,,92,0
27795,note_on,0,0,1,,,,,,,,,0,,,93,110
27810,note_on,15,0,1,,,,,,,,,0,,,93,0
27810,note_on,0,0,1,,,,,,,,,0,,,92,110
27825,note_on,15,0,1,,,,,,,,,0,,,92,0
27825,note_on,0,0,1,,,,,,,,,0,,,91,110
27840,note_on,15,0,1,,,,,,,,,0,,,91,0
27840,note_on,0,0,1,,,,,,,,,0,,,90,110
27855,note_on,15,0,1,,,,,,,,,0,,,90,0
27855,note_on,0,0,1,,,,,,,,,0,,,91,109
27870,note_on,0,0,1,,,,,,,,,0,,,90,107
27870,note_on,15,0,1,,,,,,,,,0,,,91,0
27885,note_on,15,0,1,,,,,,,,,0,,,90,0
27885,note_on,0,0,1,,,,,,,,,0,,,89,105
27900,note_on,15,0,1,,,,,,,,,0,,,89,0
27900,note_on,0,0,1,,,,,,,,,0,,,88,103
27915,note_on,15,0,1,,,,,,,,,0,,,88,0
27915,note_on,0,0,1,,,,,,,,,0,,,90,101
27930,note_on,15,0,1,,,,,,,,,0,,,90,0
27930,note_on,0,0,1,,,,,,,,,0,,,88,99
27945,note_on,15,0,1,,,,,,,,,0,,,88,0
27945,note_on,0,0,1,,,,,,,,,0,,,87,97
27960,note_on,15,0,1,,,,,,,,,0,,,87,0
27960,note_on,0,0,1,,,,,,,,,0,,,86,96
27975,note_on,15,0,1,,,,,,,,,0,,,86,0
27975,note_on,0,0,1,,,,,,,,,0,,,87,94
27990,note_on,15,0,1,,,,,,,,,0,,,87,0
27990,note_on,0,0,1,,,,,,,,,0,,,86,92
28005,note_on,15,0,1,,,,,,,,,0,,,86,0
28005,note_on,0,0,1,,,,,,,,,0,,,85,90
28020,note_on,0,0,1,,,,,,,,,0,,,84,88
28020,note_on,15,0,1,,,,,,,,,0,,,85,0
28035,note_on,0,0,1,,,,,,,,,0,,,85,86
28035,note_on,15,0,1,,,,,,,,,0,,,84,0
28050,note_on,0,0,1,,,,,,,,,0,,,84,84
28050,note_on,15,0,1,,,,,,,,,0,,,85,0
28065,note_on,0,0,1,,,,,,,,,0,,,83,82
28065,note_on,15,0,1,,,,,,,,,0,,,84,0
28080,note_on,0,0,1,,,,,,,,,0,,,82,81
28080,note_on,15,0,1,,,,,,,,,0,,,83,0
28095,note_on,0,0,1,,,,,,,,,0,,,83,79
28095,note_on,15,0,1,,,,,,,,,0,,,82,0
28110,note_on,0,0,1,,,,,,,,,0,,,82,77
28110,note_on,15,0,1,,,,,,,,,0,,,83,0
28125,note_on,0,0,1,,,,,,,,,0,,,81,75
28125,note_on,15,0,1,,,,,,,,,0,,,82,0
28140,note_on,15,0,1,,,,,,,,,0,,,81,0
28140,note_on,0,0,1,,,,,,,,,0,,,80,73
28155,note_on,0,0,1,,,,,,,,,0,,,81,71
28155,note_on,15,0,1,,,,,,,,,0,,,80,0
28170,note_on,0,0,1,,,,,,,,,0,,,80,69
28170,note_on,15,0,1,,,,,,,,,0,,,81,0
28185,note_on,0,0,1,,,,,,,,,0,,,79,67
28185,note_on,15,0,1,,,,,,,,,0,,,80,0
28200,note_on,0,0,1,,,,,,,,,0,,,78,66
28200,note_on,15,0,1,,,,,,,,,0,,,79,0
28215,note_on,15,0,1,,,,,,,,,0,,,78,0
28215,note_on,0,0,1,,,,,,,,,0,,,79,64
28230,note_on,15,0,1,,,,,,,,,0,,,79,0
28230,note_on,0,0,1,,,,,,,,,0,,,78,62
28245,note_on,0,0,1,,,,,,,,,0,,,77,60
28245,note_on,15,0,1,,,,,,,,,0,,,78,0
28260,note_on,15,0,1,,,,,,,,,0,,,77,0
28260,note_on,0,0,1,,,,,,,,,0,,,76,60
28275,note_on,0,0,1,,,,,,,,,0,,,78,60
28275,note_on,15,0,1,,,,,,,,,0,,,76,0
28290,note_on,0,0,1,,,,,,,,,0,,,76,60
28290,note_on,15,0,1,,,,,,,,,0,,,78,0
28305,note_on,15,0,1,,,,,,,,,0,,,76,0
28305,note_on,0,0,1,,,,,,,,,0,,,75,60
28320,note_on,15,0,1,,,,,,,,,0,,,75,0
28320,note_on,0,0,1,,,,,,,,,0,,,74,60
28335,note_on,0,0,1,,,,,,,,,0,,,75,60
28335,note_on,15,0,1,,,,,,,,,0,,,74,0
28350,note_on,0,0,1,,,,,,,,,0,,,74,60
28350,note_on,15,0,1,,,,,,,,,0,,,75,0
28365,note_on,15,0,1,,,,,,,,,0,,,74,0
28365,note_on,0,0,1,,,,,,,,,0,,,73,60
28380,note_on,0,0,1,,,,,,,,,0,,,72,60
28380,note_on,15,0,1,,,,,,,,,0,,,73,0
28395,note_on,0,0,1,,,,,,,,,0,,,73,60
28395,note_on,15,0,1,,,,,,,,,0,,,72,0
28410,note_on,15,0,1,,,,,,,,,0,,,73,0
28410,note_on,0,0,1,,,,,,,,,0,,,72,60
28425,note_on,0,0,1,,,,,,,,,0,,,71,60
28425,note_on,15,0,1,,,,,,,,,0,,,72,0
28440,note_on,0,0,1,,,,,,,,,0,,,70,60
28440,note_on,15,0,1,,,,,,,,,0,,,71,0
28455,note_on,0,0,1,,,,,,,,,0,,,71,60
28455,note_on,15,0,1,,,,,,,,,0,,,70,0
28470,note_on,0,0,1,,,,,,,,,0,,,70,60
28470,note_on,15,0,1,,,,,,,,,0,,,71,0
28485,note_on,0,0,1,,,,,,,,,0,,,69,60
28485,note_on,15,0,1,,,,,,,,,0,,,70,0
28500,note_on,0,0,1,,,,,,,,,0,,,68,60
28500,note_on,15,0,1,,,,,,,,,0,,,69,0
28515,note_on,0,0,1,,,,,,,,,0,,,69,60
28515,note_on,15,0,1,,,,,,,,,0,,,68,0
28530,note_on,0,0,1,,,,,,,,,0,,,68,60
28530,note_on,15,0,1,,,,,,,,,0,,,69,0
28545,note_on,0,0,1,,,,,,,,,0,,,67,60
28545,note_on,15,0,1,,,,,,,,,0,,,68,0
28560,note_on,0,0,1,,,,,,,,,0,,,66,60
28560,note_on,15,0,1,,,,,,,,,0,,,67,0
28575,note_on,15,0,1,,,,,,,,,0,,,66,0
28575,note_on,0,0,1,,,,,,,,,0,,,67,60
28590,note_on,0,0,1,,,,,,,,,0,,,66,60
28590,note_on,15,0,1,,,,,,,,,0,,,67,0
28605,note_on,0,0,1,,,,,,,,,0,,,65,60
28605,note_on,15,0,1,,,,,,,,,0,,,66,0
28620,note_on,0,0,1,,,,,,,,,0,,,64,60
28620,note_on,1065,0,4,,,,,,,,,0,,,43,60
28620,note_on,15,0,1,,,,,,,,,0,,,65,0
28625,note_on,5,0,4,,,,,,,,,0,,,58,60
28630,note_on,5,0,4,,,,,,,,,0,,,61,60
28635,note_on,0,0,1,,,,,,,,,0,,,62,60
28635,note_on,15,0,1,,,,,,,,,0,,,64,0
28650,note_on,15,0,1,,,,,,,,,0,,,62,0
28650,note_on,0,0,1,,,,,,,,,0,,,64,60
28665,note_on,15,0,1,,,,,,,,,0,,,64,0
28665,note_on,0,0,1,,,,,,,,,0,,,63,60
28680,note_on,50,0,4,,,,,,,,,0,,,43,0
28680,note_on,15,0,1,,,,,,,,,0,,,63,0
28680,note_on,0,0,1,,,,,,,,,0,,,65,60
28695,note_on,0,0,1,,,,,,,,,0,,,64,60
28695,note_on,15,0,1,,,,,,,,,0,,,65,0
28710,note_on,15,0,1,,,,,,,,,0,,,64,0
28710,note_on,0,0,1,,,,,,,,,0,,,66,60
28725,note_on,15,0,1,,,,,,,,,0,,,66,0
28725,note_on,0,0,1,,,,,,,,,0,,,65,60
28740,note_on,15,0,1,,,,,,,,,0,,,65,0
28740,note_on,0,0,1,,,,,,,,,0,,,67,60
28740,note_on,0,0,4,,,,,,,,,0,,,58,0
28740,note_on,60,0,4,,,,,,,,,0,,,61,0
28755,note_on,15,0,1,,,,,,,,,0,,,67,0
28755,note_on,0,0,1,,,,,,,,,0,,,66,60
28770,note_on,0,0,1,,,,,,,,,0,,,68,60
28770,note_on,15,0,1,,,,,,,,,0,,,66,0
28785,note_on,15,0,1,,,,,,,,,0,,,68,0
28785,note_on,0,0,1,,,,,,,,,0,,,67,60
28800,note_on,0,0,1,,,,,,,,,0,,,69,60
28800,note_on,15,0,1,,,,,,,,,0,,,67,0
28815,note_on,15,0,1,,,,,,,,,0,,,69,0
28815,note_on,0,0,1,,,,,,,,,0,,,68,60
28830,note_on,0,0,1,,,,,,,,,0,,,70,60
28830,note_on,15,0,1,,,,,,,,,0,,,68,0
28845,note_on,0,0,1,,,,,,,,,0,,,69,60
28845,note_on,15,0,1,,,,,,,,,0,,,70,0
28860,note_on,15,0,1,,,,,,,,,0,,,69,0
28860,note_on,0,0,1,,,,,,,,,0,,,71,60
28875,note_on,0,0,1,,,,,,,,,0,,,70,60
28875,note_on,15,0,1,,,,,,,,,0,,,71,0
28890,note_on,0,0,1,,,,,,,,,0,,,72,60
28890,note_on,15,0,1,,,,,,,,,0,,,70,0
28905,note_on,0,0,1,,,,,,,,,0,,,71,60
28905,note_on,15,0,1,,,,,,,,,0,,,72,0
28920,note_on,0,0,1,,,,,,,,,0,,,73,60
28920,note_on,15,0,1,,,,,,,,,0,,,71,0
28935,note_on,0,0,1,,,,,,,,,0,,,72,60
28935,note_on,15,0,1,,,,,,,,,0,,,73,0
28950,note_on,15,0,1,,,,,,,,,0,,,72,0
28950,note_on,0,0,1,,,,,,,,,0,,,74,60
28965,note_on,0,0,1,,,,,,,,,0,,,73,60
28965,note_on,15,0,1,,,,,,,,,0,,,74,0
28980,note_on,0,0,1,,,,,,,,,0,,,75,60
28980,note_on,15,0,1,,,,,,,,,0,,,73,0
28995,note_on,0,0,1,,,,,,,,,0,,,74,60
28995,note_on,15,0,1,,,,,,,,,0,,,75,0
29010,note_on,0,0,1,,,,,,,,,0,,,76,61
29010,note_on,15,0,1,,,,,,,,,0,,,74,0
29025,note_on,0,0,1,,,,,,,,,0,,,75,62
29025,note_on,15,0,1,,,,,,,,,0,,,76,0
29040,note_on,0,0,1,,,,,,,,,0,,,77,62
29040,note_on,15,0,1,,,,,,,,,0,,,75,0
29055,note_on,0,0,1,,,,,,,,,0,,,76,63
29055,note_on,15,0,1,,,,,,,,,0,,,77,0
29070,note_on,15,0,1,,,,,,,,,0,,,76,0
29070,note_on,0,0,1,,,,,,,,,0,,,78,64
29085,note_on,15,0,1,,,,,,,,,0,,,78,0
29085,note_on,0,0,1,,,,,,,,,0,,,77,64
29100,note_on,15,0,1,,,,,,,,,0,,,77,0
29100,note_on,0,0,1,,,,,,,,,0,,,79,65
29115,note_on,15,0,1,,,,,,,,,0,,,79,0
29115,note_on,0,0,1,,,,,,,,,0,,,78,66
29130,note_on,0,0,1,,,,,,,,,0,,,80,67
29130,note_on,15,0,1,,,,,,,,,0,,,78,0
29145,note_on,0,0,1,,,,,,,,,0,,,79,67
29145,note_on,15,0,1,,,,,,,,,0,,,80,0
29160,note_on,15,0,1,,,,,,,,,0,,,79,0
29160,note_on,0,0,1,,,,,,,,,0,,,81,68
29160,time_signature,1800,1,0,15,8,12,8,,,,,,,,,
29175,note_on,15,0,1,,,,,,,,,0,,,81,0
29175,note_on,0,0,1,,,,,,,,,0,,,80,69
29190,note_on,0,0,1,,,,,,,,,0,,,82,69
29190,note_on,15,0,1,,,,,,,,,0,,,80,0
29205,note_on,0,0,1,,,,,,,,,0,,,81,70
29205,note_on,15,0,1,,,,,,,,,0,,,82,0
29220,note_on,0,0,1,,,,,,,,,0,,,83,71
29220,note_on,15,0,1,,,,,,,,,0,,,81,0
29235,note_on,0,0,1,,,,,,,,,0,,,82,72
29235,note_on,15,0,1,,,,,,,,,0,,,83,0
29250,note_on,0,0,1,,,,,,,,,0,,,84,72
29250,note_on,15,0,1,,,,,,,,,0,,,82,0
29265,note_on,15,0,1,,,,,,,,,0,,,84,0
29265,note_on,0,0,1,,,,,,,,,0,,,83,73
29280,note_on,0,0,1,,,,,,,,,0,,,85,74
29280,note_on,15,0,1,,,,,,,,,0,,,83,0
29295,note_on,15,0,1,,,,,,,,,0,,,85,0
29295,note_on,0,0,1,,,,,,,,,0,,,84,74
29310,note_on,0,0,1,,,,,,,,,0,,,86,75
29310,note_on,15,0,1,,,,,,,,,0,,,84,0
29325,note_on,0,0,1,,,,,,,,,0,,,85,76
29325,note_on,15,0,1,,,,,,,,,0,,,86,0
29340,note_on,15,0,1,,,,,,,,,0,,,85,0
29340,note_on,0,0,1,,,,,,,,,0,,,87,77
29355,note_on,0,0,1,,,,,,,,,0,,,86,77
29355,note_on,15,0,1,,,,,,,,,0,,,87,0
29370,note_on,15,0,1,,,,,,,,,0,,,86,0
29370,note_on,0,0,1,,,,,,,,,0,,,88,78
29385,note_on,0,0,1,,,,,,,,,0,,,87,79
29385,note_on,15,0,1,,,,,,,,,0,,,88,0
29400,note_on,0,0,1,,,,,,,,,0,,,89,79
29400,note_on,15,0,1,,,,,,,,,0,,,87,0
29415,note_on,15,0,1,,,,,,,,,0,,,89,0
29415,note_on,0,0,1,,,,,,,,,0,,,88,80
29430,note_on,15,0,1,,,,,,,,,0,,,88,0
29430,note_on,0,0,1,,,,,,,,,0,,,90,81
29445,note_on,0,0,1,,,,,,,,,0,,,89,82
29445,note_on,15,0,1,,,,,,,,,0,,,90,0
29460,note_on,0,0,1,,,,,,,,,0,,,91,82
29460,note_on,15,0,1,,,,,,,,,0,,,89,0
29475,note_on,15,0,1,,,,,,,,,0,,,91,0
29475,note_on,0,0,1,,,,,,,,,0,,,90,83
29490,note_on,15,0,1,,,,,,,,,0,,,90,0
29490,note_on,0,0,1,,,,,,,,,0,,,92,84
29505,note_on,15,0,1,,,,,,,,,0,,,92,0
29505,note_on,0,0,1,,,,,,,,,0,,,91,84
29520,note_on,0,0,1,,,,,,,,,0,,,93,85
29520,note_on,15,0,1,,,,,,,,,0,,,91,0
29535,note_on,0,0,1,,,,,,,,,0,,,92,86
29535,note_on,15,0,1,,,,,,,,,0,,,93,0
29550,note_on,0,0,1,,,,,,,,,0,,,94,87
29550,note_on,15,0,1,,,,,,,,,0,,,92,0
29565,note_on,15,0,1,,,,,,,,,0,,,94,0
29565,note_on,0,0,1,,,,,,,,,0,,,93,87
29580,note_on,0,0,1,,,,,,,,,0,,,95,88
29580,note_on,15,0,1,,,,,,,,,0,,,93,0
29595,note_on,15,0,1,,,,,,,,,0,,,95,0
29595,note_on,0,0,1,,,,,,,,,0,,,94,89
29610,note_on,15,0,1,,,,,,,,,0,,,94,0
29610,note_on,0,0,1,,,,,,,,,0,,,96,89
29625,note_on,15,0,1,,,,,,,,,0,,,96,0
29625,note_on,0,0,1,,,,,,,,,0,,,95,90
29640,note_on,15,0,1,,,,,,,,,0,,,95,0
29640,note_on,0,0,1,,,,,,,,,0,,,97,91
29655,note_on,0,0,1,,,,,,,,,0,,,96,92
29655,note_on,15,0,1,,,,,,,,,0,,,97,0
29670,note_on,15,0,1,,,,,,,,,0,,,96,0
29670,note_on,0,0,1,,,,,,,,,0,,,98,92
29685,note_on,0,0,1,,,,,,,,,0,,,97,93
29685,note_on,15,0,1,,,,,,,,,0,,,98,0
29700,note_on,15,0,1,,,,,,,,,0,,,97,0
29700,note_on,0,0,1,,,,,,,,,0,,,99,94
29715,note_on,15,0,1,,,,,,,,,0,,,99,0
29715,note_on,0,0,1,,,,,,,,,0,,,98,94
29730,note_on,0,0,1,,,,,,,,,0,,,100,95
29730,note_on,15,0,1,,,,,,,,,0,,,98,0
29745,note_on,15,0,1,,,,,,,,,0,,,100,0
29745,note_on,0,0,1,,,,,,,,,0,,,98,96
29760,note_on,15,0,1,,,,,,,,,0,,,98,0
29760,note_on,0,0,1,,,,,,,,,0,,,99,97
29775,note_on,0,0,1,,,,,,,,,0,,,98,97
29775,note_on,15,0,1,,,,,,,,,0,,,99,0
29790,note_on,0,0,1,,,,,,,,,0,,,100,98
29790,note_on,15,0,1,,,,,,,,,0,,,98,0
29805,note_on,0,0,1,,,,,,,,,0,,,98,99
29805,note_on,15,0,1,,,,,,,,,0,,,100,0
29820,note_on,0,0,1,,,,,,,,,0,,,99,99
29820,note_on,15,0,1,,,,,,,,,0,,,98,0
29835,note_on,0,0,1,,,,,,,,,0,,,98,100
29835,note_on,15,0,1,,,,,,,,,0,,,99,0
29850,note_on,0,0,1,,,,,,,,,0,,,100,101
29850,note_on,15,0,1,,,,,,,,,0,,,98,0
29865,note_on,0,0,1,,,,,,,,,0,,,98,102
29865,note_on,15,0,1,,,,,,,,,0,,,100,0
29880,note_on,0,0,1,,,,,,,,,0,,,99,102
29880,note_on,15,0,1,,,,,,,,,0,,,98,0
29895,note_on,0,0,1,,,,,,,,,0,,,98,103
29895,note_on,15,0,1,,,,,,,,,0,,,99,0
29910,note_on,15,0,1,,,,,,,,,0,,,98,0
29910,note_on,0,0,1,,,,,,,,,0,,,100,104
29925,note_on,15,0,1,,,,,,,,,0,,,100,0
29925,note_on,0,0,1,,,,,,,,,0,,,98,104
29940,note_on,15,0,1,,,,,,,,,0,,,98,0
29940,note_on,0,0,1,,,,,,,,,0,,,99,105
29955,note_on,15,0,1,,,,,,,,,0,,,99,0
29955,note_on,0,0,1,,,,,,,,,0,,,98,106
29970,note_on,15,0,1,,,,,,,,,0,,,98,0
29970,note_on,0,0,1,,,,,,,,,0,,,100,107
29985,note_on,15,0,1,,,,,,,,,0,,,100,0
29985,note_on,0,0,1,,,,,,,,,0,,,98,107
30000,note_on,15,0,1,,,,,,,,,0,,,98,0
30000,note_on,0,0,1,,,,,,,,,0,,,99,108
30015,note_on,15,0,1,,,,,,,,,0,,,99,0
30015,note_on,0,0,1,,,,,,,,,0,,,98,109
30030,note_on,0,0,1,,,,,,,,,0,,,100,109
30030,note_on,15,0,1,,,,,,,,,0,,,98,0
30045,note_on,15,0,1,,,,,,,,,0,,,100,0
30045,note_on,0,0,1,,,,,,,,,0,,,98,110
30060,time_signature,900,1,0,6,8,12,8,,,,,,,,,
30060,note_on,15,0,1,,,,,,,,,0,,,98,0
30060,note_on,0,0,1,,,,,,,,,0,,,99,127
30075,note_on,0,0,1,,,,,,,,,0,,,100,108
30075,note_on,15,0,1,,,,,,,,,0,,,99,0
30090,note_on,0,0,1,,,,,,,,,0,,,99,106
30090,note_on,15,0,1,,,,,,,,,0,,,100,0
30105,note_on,0,0,1,,,,,,,,,0,,,100,104
30105,note_on,15,0,1,,,,,,,,,0,,,99,0
30120,note_on,15,0,1,,,,,,,,,0,,,100,0
30120,note_on,0,0,1,,,,,,,,,0,,,99,102
30135,note_on,15,0,1,,,,,,,,,0,,,99,0
30135,note_on,0,0,1,,,,,,,,,0,,,100,100
30150,note_on,0,0,1,,,,,,,,,0,,,99,98
30150,note_on,15,0,1,,,,,,,,,0,,,100,0
30165,note_on,0,0,1,,,,,,,,,0,,,100,96
30165,note_on,15,0,1,,,,,,,,,0,,,99,0
30180,note_on,0,0,1,,,,,,,,,0,,,99,93
30180,note_on,15,0,1,,,,,,,,,0,,,100,0
30195,note_on,15,0,1,,,,,,,,,0,,,99,0
30195,note_on,0,0,1,,,,,,,,,0,,,100,91
30210,note_on,0,0,1,,,,,,,,,0,,,99,89
30210,note_on,15,0,1,,,,,,,,,0,,,100,0
30225,note_on,15,0,1,,,,,,,,,0,,,99,0
30225,note_on,0,0,1,,,,,,,,,0,,,100,87
30240,note_on,15,0,1,,,,,,,,,0,,,100,0
30240,note_on,0,0,1,,,,,,,,,0,,,99,115
30255,note_on,15,0,1,,,,,,,,,0,,,99,0
30255,note_on,0,0,1,,,,,,,,,0,,,100,83
30270,note_on,0,0,1,,,,,,,,,0,,,99,81
30270,note_on,15,0,1,,,,,,,,,0,,,100,0
30285,note_on,0,0,1,,,,,,,,,0,,,100,78
30285,note_on,15,0,1,,,,,,,,,0,,,99,0
30300,note_on,15,0,1,,,,,,,,,0,,,100,0
30300,note_on,0,0,1,,,,,,,,,0,,,99,76
30315,note_on,0,0,1,,,,,,,,,0,,,100,74
30315,note_on,15,0,1,,,,,,,,,0,,,99,0
30330,note_on,0,0,1,,,,,,,,,0,,,99,72
30330,note_on,15,0,1,,,,,,,,,0,,,100,0
30345,note_on,0,0,1,,,,,,,,,0,,,100,70
30345,note_on,15,0,1,,,,,,,,,0,,,99,0
30360,note_on,15,0,1,,,,,,,,,0,,,100,0
30360,note_on,0,0,1,,,,,,,,,0,,,99,68
30375,note_on,0,0,1,,,,,,,,,0,,,100,66
30375,note_on,15,0,1,,,,,,,,,0,,,99,0
30390,note_on,15,0,1,,,,,,,,,0,,,100,0
30390,note_on,0,0,1,,,,,,,,,0,,,99,63
30405,note_on,0,0,1,,,,,,,,,0,,,100,61
30405,note_on,15,0,1,,,,,,,,,0,,,99,0
30420,note_on,15,0,1,,,,,,,,,0,,,100,0
30420,marker,360,1,0,,,,,,,,,,,,,
30420,note_on,0,0,1,,,,,,,,,0,,,99,90
30435,note_on,0,0,1,,,,,,,,,0,,,100,60
30435,note_on,15,0,1,,,,,,,,,0,,,99,0
30450,note_on,15,0,1,,,,,,,,,0,,,100,0
30450,note_on,0,0,1,,,,,,,,,0,,,99,60
30465,note_on,15,0,1,,,,,,,,,0,,,99,0
30465,note_on,0,0,1,,,,,,,,,0,,,100,60
30480,note_on,15,0,1,,,,,,,,,0,,,100,0
30480,note_on,0,0,1,,,,,,,,,0,,,99,60
30495,note_on,15,0,1,,,,,,,,,0,,,99,0
30495,note_on,0,0,1,,,,,,,,,0,,,100,60
30510,note_on,15,0,1,,,,,,,,,0,,,100,0
30510,note_on,0,0,1,,,,,,,,,0,,,99,60
30525,note_on,0,0,1,,,,,,,,,0,,,100,60
30525,note_on,15,0,1,,,,,,,,,0,,,99,0
30540,note_on,3345,0,3,,,,,,,,,0,,,75,70
30540,note_on,15,0,1,,,,,,,,,0,,,100,0
30540,note_on,0,0,1,,,,,,,,,0,,,99,60
30555,note_on,0,0,1,,,,,,,,,0,,,100,60
30555,note_on,15,0,1,,,,,,,,,0,,,99,0
30555,note_on,15,0,3,,,,,,,,,0,,,75,0
30570,note_on,15,0,1,,,,,,,,,0,,,100,0
30570,note_on,0,0,1,,,,,,,,,0,,,99,60
30585,note_on,15,0,1,,,,,,,,,0,,,99,0
30585,note_on,0,0,1,,,,,,,,,0,,,100,60
30600,note_on,15,0,1,,,,,,,,,0,,,100,0
30600,note_on,0,0,1,,,,,,,,,0,,,99,60
30600,note_on,45,0,3,,,,,,,,,0,,,87,70
30615,note_on,15,0,3,,,,,,,,,0,,,87,0
30615,note_on,15,0,1,,,,,,,,,0,,,99,0
30615,note_on,0,0,1,,,,,,,,,0,,,100,60
30630,note_on,15,0,1,,,,,,,,,0,,,100,0
30630,note_on,0,0,1,,,,,,,,,0,,,99,60
30645,note_on,0,0,1,,,,,,,,,0,,,100,60
30645,note_on,15,0,1,,,,,,,,,0,,,99,0
30660,note_on,0,0,1,,,,,,,,,0,,,99,60
30660,note_on,15,0,1,,,,,,,,,0,,,100,0
30660,note_on,0,0,1,,,,,,,,,0,,,87,60
30675,note_on,0,0,1,,,,,,,,,0,,,100,60
30675,note_on,15,0,1,,,,,,,,,0,,,99,0
30690,note_on,0,0,1,,,,,,,,,0,,,87,0
30690,note_on,0,0,1,,,,,,,,,0,,,99,60
30690,note_on,15,0,1,,,,,,,,,0,,,100,0
30705,note_on,0,0,1,,,,,,,,,0,,,100,60
30705,note_on,15,0,1,,,,,,,,,0,,,99,0
30720,note_on,105,0,3,,,,,,,,,0,,,85,70
30720,note_on,15,0,1,,,,,,,,,0,,,100,0
30720,note_on,0,0,1,,,,,,,,,0,,,87,60
30720,note_on,0,0,1,,,,,,,,,0,,,99,60
30735,note_on,15,0,3,,,,,,,,,0,,,85,0
30735,note_on,15,0,1,,,,,,,,,0,,,99,0
30735,note_on,0,0,1,,,,,,,,,0,,,100,60
30750,note_on,15,0,1,,,,,,,,,0,,,100,0
30750,note_on,0,0,1,,,,,,,,,0,,,99,60
30750,note_on,0,0,1,,,,,,,,,0,,,87,0
30765,note_on,0,0,1,,,,,,,,,0,,,100,60
30765,note_on,15,0,1,,,,,,,,,0,,,99,0
30780,note_on,0,0,1,,,,,,,,,0,,,87,60
30780,note_on,45,0,3,,,,,,,,,0,,,68,60
30780,note_on,15,0,1,,,,,,,,,0,,,100,0
30780,note_on,0,0,1,,,,,,,,,0,,,99,60
30780,note_on,0,0,3,,,,,,,,,0,,,83,70
30795,note_on,15,0,1,,,,,,,,,0,,,99,0
30795,note_on,15,0,3,,,,,,,,,0,,,83,0
30795,note_on,0,0,1,,,,,,,,,0,,,100,60
30810,note_on,0,0,1,,,,,,,,,0,,,87,0
30810,note_on,0,0,1,,,,,,,,,0,,,99,60
30810,note_on,15,0,1,,,,,,,,,0,,,100,0
30825,note_on,0,0,1,,,,,,,,,0,,,100,60
30825,note_on,15,0,1,,,,,,,,,0,,,99,0
30840,note_on,0,0,1,,,,,,,,,0,,,87,60
30840,note_on,0,0,3,,,,,,,,,0,,,83,70
30840,note_on,45,0,3,,,,,,,,,0,,,68,0
30840,note_on,15,0,1,,,,,,,,,0,,,100,0
30840,note_on,0,0,1,,,,,,,,,0,,,99,60
30855,note_on,15,0,3,,,,,,,,,0,,,83,0
30855,note_on,15,0,1,,,,,,,,,0,,,99,0
30855,note_on,0,0,1,,,,,,,,,0,,,100,60
30870,note_on,0,0,1,,,,,,,,,0,,,87,0
30870,note_on,0,0,1,,,,,,,,,0,,,99,60
30870,note_on,15,0,1,,,,,,,,,0,,,100,0
30885,note_on,15,0,1,,,,,,,,,0,,,99,0
30885,note_on,0,0,1,,,,,,,,,0,,,100,60
30900,note_on,15,0,1,,,,,,,,,0,,,100,0
30900,note_on,0,0,1,,,,,,,,,0,,,87,60
30900,note_on,0,0,1,,,,,,,,,0,,,99,60
30900,note_on,45,0,3,,,,,,,,,0,,,82,70
30915,note_on,15,0,1,,,,,,,,,0,,,99,0
30915,note_on,15,0,3,,,,,,,,,0,,,82,0
30915,note_on,0,0,1,,,,,,,,,0,,,100,60
30930,note_on,15,0,1,,,,,,,,,0,,,100,0
30930,note_on,0,0,1,,,,,,,,,0,,,99,60
30930,note_on,0,0,1,,,,,,,,,0,,,87,0
30945,note_on,0,0,1,,,,,,,,,0,,,100,60
30945,note_on,15,0,1,,,,,,,,,0,,,99,0
30960,note_on,15,0,1,,,,,,,,,0,,,100,0
30960,note_on,0,0,1,,,,,,,,,0,,,99,60
30960,note_on,0,0,1,,,,,,,,,0,,,87,60
30960,note_on,0,0,3,,,,,,,,,0,,,80,70
30960,note_on,45,0,3,,,,,,,,,0,,,71,60
30975,note_on,0,0,1,,,,,,,,,0,,,100,60
30975,note_on,15,0,3,,,,,,,,,0,,,80,0
30975,note_on,15,0,1,,,,,,,,,0,,,99,0
30990,note_on,0,0,1,,,,,,,,,0,,,87,0
30990,note_on,0,0,1,,,,,,,,,0,,,99,60
30990,note_on,15,0,1,,,,,,,,,0,,,100,0
31005,note_on,15,0,1,,,,,,,,,0,,,99,0
31005,note_on,0,0,1,,,,,,,,,0,,,100,60
31020,note_on,45,0,3,,,,,,,,,0,,,71,0
31020,note_on,0,0,1,,,,,,,,,0,,,99,60
31020,note_on,0,0,3,,,,,,,,,0,,,79,70
31020,note_on,15,0,1,,,,,,,,,0,,,100,0
31020,note_on,0,0,1,,,,,,,,,0,,,87,60
31035,note_on,15,0,3,,,,,,,,,0,,,79,0
31035,note_on,0,0,1,,,,,,,,,0,,,100,60
31035,note_on,15,0,1,,,,,,,,,0,,,99,0
31050,note_on,0,0,1,,,,,,,,,0,,,87,0
31050,note_on,0,0,1,,,,,,,,,0,,,99,60
31050,note_on,15,0,1,,,,,,,,,0,,,100,0
31065,note_on,0,0,1,,,,,,,,,0,,,100,60
31065,note_on,15,0,1,,,,,,,,,0,,,99,0
31080,note_on,0,0,1,,,,,,,,,0,,,87,60
31080,note_on,15,0,1,,,,,,,,,0,,,100,0
31080,note_on,0,0,1,,,,,,,,,0,,,99,60
31080,note_on,45,0,3,,,,,,,,,0,,,80,70
31095,note_on,0,0,1,,,,,,,,,0,,,100,60
31095,note_on,15,0,3,,,,,,,,,0,,,80,0
31095,note_on,15,0,1,,,,,,,,,0,,,99,0
31110,note_on,0,0,1,,,,,,,,,0,,,87,0
31110,note_on,15,0,1,,,,,,,,,0,,,100,0
31110,note_on,0,0,1,,,,,,,,,0,,,99,60
31125,note_on,15,0,1,,,,,,,,,0,,,99,0
31125,note_on,0,0,1,,,,,,,,,0,,,100,60
31140,note_on,0,0,3,,,,,,,,,0,,,82,70
31140,note_on,0,0,1,,,,,,,,,0,,,87,60
31140,note_on,15,0,1,,,,,,,,,0,,,100,0
31140,note_on,0,0,1,,,,,,,,,0,,,99,60
31140,note_on,45,0,3,,,,,,,,,0,,,79,60
31155,note_on,15,0,1,,,,,,,,,0,,,99,0
31155,note_on,0,0,1,,,,,,,,,0,,,100,60
31170,note_on,0,0,1,,,,,,,,,0,,,87,0
31170,note_on,0,0,1,,,,,,,,,0,,,99,60
31170,note_on,15,0,1,,,,,,,,,0,,,100,0
31185,note_on,15,0,1,,,,,,,,,0,,,99,0
31185,note_on,0,0,1,,,,,,,,,0,,,100,60
31200,note_on,0,0,3,,,,,,,,,0,,,75,70
31200,note_on,0,0,3,,,,,,,,,0,,,79,0
31200,note_on,15,0,1,,,,,,,,,0,,,100,0
31200,note_on,0,0,1,,,,,,,,,0,,,87,60
31200,note_on,60,0,3,,,,,,,,,0,,,82,0
31200,note_on,0,0,1,,,,,,,,,0,,,99,60
31215,note_on,0,0,1,,,,,,,,,0,,,100,60
31215,note_on,15,0,1,,,,,,,,,0,,,99,0
31230,note_on,0,0,1,,,,,,,,,0,,,99,60
31230,note_on,0,0,1,,,,,,,,,0,,,87,0
31230,note_on,15,0,1,,,,,,,,,0,,,100,0
31245,note_on,0,0,1,,,,,,,,,0,,,100,60
31245,note_on,15,0,1,,,,,,,,,0,,,99,0
31260,note_on,15,0,1,,,,,,,,,0,,,100,0
31260,note_on,0,0,1,,,,,,,,,0,,,99,60
31260,note_on,60,0,3,,,,,,,,,0,,,75,0
31260,note_on,0,0,1,,,,,,,,,0,,,87,60
31260,note_on,0,0,3,,,,,,,,,0,,,75,70
31275,note_on,0,0,1,,,,,,,,,0,,,100,60
31275,note_on,15,0,1,,,,,,,,,0,,,99,0
31275,note_on,15,0,3,,,,,,,,,0,,,75,0
31290,note_on,15,0,1,,,,,,,,,0,,,100,0
31290,note_on,0,0,1,,,,,,,,,0,,,87,0
31290,note_on,0,0,1,,,,,,,,,0,,,99,60
31305,note_on,15,0,1,,,,,,,,,0,,,99,0
31305,note_on,0,0,1,,,,,,,,,0,,,100,60
31320,note_on,0,0,3,,,,,,,,,0,,,67,60
31320,note_on,45,0,3,,,,,,,,,0,,,70,60
31320,note_on,0,0,1,,,,,,,,,0,,,87,60
31320,note_on,0,0,1,,,,,,,,,0,,,99,60
31320,note_on,0,0,3,,,,,,,,,0,,,76,70
31320,note_on,15,0,1,,,,,,,,,0,,,100,0
31335,note_on,15,0,3,,,,,,,,,0,,,76,0
31335,note_on,15,0,1,,,,,,,,,0,,,99,0
31335,note_on,0,0,1,,,,,,,,,0,,,100,60
31350,note_on,15,0,1,,,,,,,,,0,,,100,0
31350,note_on,0,0,1,,,,,,,,,0,,,87,0
31350,note_on,0,0,1,,,,,,,,,0,,,99,60
31365,note_on,15,0,1,,,,,,,,,0,,,99,0
31365,note_on,0,0,1,,,,,,,,,0,,,100,60
31380,note_on,0,0,1,,,,,,,,,0,,,87,60
31380,note_on,45,0,3,,,,,,,,,0,,,67,0
31380,note_on,15,0,1,,,,,,,,,0,,,100,0
31380,note_on,0,0,3,,,,,,,,,0,,,75,70
31380,note_on,0,0,3,,,,,,,,,0,,,70,0
31380,note_on,0,0,1,,,,,,,,,0,,,99,60
31395,note_on,15,0,3,,,,,,,,,0,,,75,0
31395,note_on,15,0,1,,,,,,,,,0,,,99,0
31395,note_on,0,0,1,,,,,,,,,0,,,100,60
31410,note_on,0,0,1,,,,,,,,,0,,,87,0
31410,note_on,15,0,1,,,,,,,,,0,,,100,0
31410,note_on,0,0,1,,,,,,,,,0,,,99,60
31425,note_on,15,0,1,,,,,,,,,0,,,99,0
31425,note_on,0,0,1,,,,,,,,,0,,,100,60
31440,note_on,45,0,3,,,,,,,,,0,,,73,70
31440,note_on,0,0,1,,,,,,,,,0,,,99,60
31440,note_on,0,0,1,,,,,,,,,0,,,87,60
31440,note_on,15,0,1,,,,,,,,,0,,,100,0
31455,note_on,15,0,3,,,,,,,,,0,,,73,0
31455,note_on,0,0,1,,,,,,,,,0,,,100,60
31455,note_on,15,0,1,,,,,,,,,0,,,99,0
31470,note_on,15,0,1,,,,,,,,,0,,,100,0
31470,note_on,0,0,1,,,,,,,,,0,,,99,60
31470,note_on,0,0,1,,,,,,,,,0,,,87,0
31485,note_on,0,0,1,,,,,,,,,0,,,100,60
31485,note_on,15,0,1,,,,,,,,,0,,,99,0
31500,note_on,45,0,3,,,,,,,,,0,,,68,70
31500,note_on,15,0,1,,,,,,,,,0,,,100,0
31500,note_on,0,0,3,,,,,,,,,0,,,71,70
31500,note_on,0,0,1,,,,,,,,,0,,,87,60
31500,note_on,0,0,1,,,,,,,,,0,,,99,60
31515,note_on,0,0,1,,,,,,,,,0,,,100,60
31515,note_on,0,0,3,,,,,,,,,0,,,68,0
31515,note_on,15,0,1,,,,,,,,,0,,,99,0
31515,note_on,15,0,3,,,,,,,,,0,,,71,0
31530,note_on,0,0,1,,,,,,,,,0,,,87,0
31530,note_on,15,0,1,,,,,,,,,0,,,100,0
31530,note_on,0,0,1,,,,,,,,,0,,,99,60
31545,note_on,15,0,1,,,,,,,,,0,,,99,0
31545,note_on,0,0,1,,,,,,,,,0,,,100,60
31560,note_on,15,0,1,,,,,,,,,0,,,100,0
31560,note_on,0,0,1,,,,,,,,,0,,,99,60
31560,note_on,0,0,1,,,,,,,,,0,,,87,60
31560,note_on,0,0,3,,,,,,,,,0,,,71,70
31560,note_on,45,0,3,,,,,,,,,0,,,68,70
31575,note_on,0,0,1,,,,,,,,,0,,,100,60
31575,note_on,15,0,3,,,,,,,,,0,,,71,0
31575,note_on,0,0,3,,,,,,,,,0,,,68,0
31575,note_on,15,0,1,,,,,,,,,0,,,99,0
31590,note_on,0,0,1,,,,,,,,,0,,,87,0
31590,note_on,0,0,1,,,,,,,,,0,,,99,60
31590,note_on,15,0,1,,,,,,,,,0,,,100,0
31605,note_on,0,0,1,,,,,,,,,0,,,100,60
31605,note_on,15,0,1,,,,,,,,,0,,,99,0
31620,note_on,15,0,1,,,,,,,,,0,,,100,0
31620,note_on,0,0,1,,,,,,,,,0,,,87,60
31620,note_on,45,0,3,,,,,,,,,0,,,66,70
31620,note_on,0,0,3,,,,,,,,,0,,,70,70
31620,note_on,0,0,1,,,,,,,,,0,,,99,60
31635,note_on,0,0,1,,,,,,,,,0,,,100,60
31635,note_on,15,0,3,,,,,,,,,0,,,70,0
31635,note_on,0,0,3,,,,,,,,,0,,,66,0
31635,note_on,15,0,1,,,,,,,,,0,,,99,0
31650,note_on,0,0,1,,,,,,,,,0,,,87,0
31650,note_on,0,0,1,,,,,,,,,0,,,99,60
31650,note_on,15,0,1,,,,,,,,,0,,,100,0
31665,note_on,0,0,1,,,,,,,,,0,,,100,60
31665,note_on,15,0,1,,,,,,,,,0,,,99,0
31680,note_on,0,0,3,,,,,,,,,0,,,68,70
31680,note_on,0,0,1,,,,,,,,,0,,,99,60
31680,note_on,15,0,1,,,,,,,,,0,,,100,0
31680,note_on,0,0,1,,,,,,,,,0,,,87,60
31680,note_on,45,0,3,,,,,,,,,0,,,64,60
31695,note_on,0,0,1,,,,,,,,,0,,,100,60
31695,note_on,15,0,1,,,,,,,,,0,,,99,0
31695,note_on,15,0,3,,,,,,,,,0,,,68,0
31710,note_on,0,0,1,,,,,,,,,0,,,99,60
31710,note_on,0,0,1,,,,,,,,,0,,,87,0
31710,note_on,15,0,1,,,,,,,,,0,,,100,0
31725,note_on,15,0,1,,,,,,,,,0,,,99,0
31725,note_on,0,0,1,,,,,,,,,0,,,100,60
31740,note_on,15,0,1,,,,,,,,,0,,,100,0
31740,note_on,0,0,3,,,,,,,,,0,,,67,70
31740,note_on,0,0,1,,,,,,,,,0,,,87,60
31740,note_on,45,0,3,,,,,,,,,0,,,64,0
31740,note_on,0,0,1,,,,,,,,,0,,,99,60
31755,note_on,0,0,1,,,,,,,,,0,,,100,60
31755,note_on,15,0,3,,,,,,,,,0,,,67,0
31755,note_on,15,0,1,,,,,,,,,0,,,99,0
31770,note_on,15,0,1,,,,,,,,,0,,,100,0
31770,note_on,0,0,1,,,,,,,,,0,,,87,0
31770,note_on,0,0,1,,,,,,,,,0,,,99,60
31785,note_on,15,0,1,,,,,,,,,0,,,99,0
31785,note_on,0,0,1,,,,,,,,,0,,,100,60
31800,note_on,15,0,1,,,,,,,,,0,,,100,0
31800,note_on,45,0,3,,,,,,,,,0,,,68,70
31800,note_on,0,0,1,,,,,,,,,0,,,99,60
31800,note_on,0,0,1,,,,,,,,,0,,,87,60
31815,note_on,15,0,1,,,,,,,,,0,,,99,0
31815,note_on,15,0,3,,,,,,,,,0,,,68,0
31815,note_on,0,0,1,,,,,,,,,0,,,100,60
31830,note_on,15,0,1,,,,,,,,,0,,,100,0
31830,note_on,0,0,1,,,,,,,,,0,,,99,60
31830,note_on,0,0,1,,,,,,,,,0,,,87,0
31845,note_on,0,0,1,,,,,,,,,0,,,100,60
31845,note_on,15,0,1,,,,,,,,,0,,,99,0
31860,note_on,45,0,3,,,,,,,,,0,,,67,60
31860,note_on,15,0,1,,,,,,,,,0,,,100,0
31860,note_on,0,0,1,,,,,,,,,0,,,99,60
31860,note_on,0,0,3,,,,,,,,,0,,,70,70
31860,note_on,0,0,1,,,,,,,,,0,,,87,60
31875,note_on,0,0,1,,,,,,,,,0,,,100,60
31875,note_on,15,0,1,,,,,,,,,0,,,99,0
31890,note_on,0,0,1,,,,,,,,,0,,,99,60
31890,note_on,0,0,1,,,,,,,,,0,,,87,0
31890,note_on,15,0,1,,,,,,,,,0,,,100,0
31905,note_on,15,0,1,,,,,,,,,0,,,99,0
31905,note_on,0,0,1,,,,,,,,,0,,,100,60
31920,note_on,60,0,3,,,,,,,,,0,,,70,0
31920,note_on,0,0,3,,,,,,,,,0,,,63,70
31920,note_on,0,0,3,,,,,,,,,0,,,67,0
31920,note_on,15,0,1,,,,,,,,,0,,,100,0
31920,note_on,0,0,1,,,,,,,,,0,,,99,60
31920,note_on,0,0,1,,,,,,,,,0,,,87,60
31935,note_on,15,0,1,,,,,,,,,0,,,99,0
31935,note_on,0,0,1,,,,,,,,,0,,,100,60
31950,note_on,0,0,1,,,,,,,,,0,,,99,60
31950,note_on,15,0,1,,,,,,,,,0,,,100,0
31950,note_on,0,0,1,,,,,,,,,0,,,87,0
31965,note_on,0,0,1,,,,,,,,,0,,,100,60
31965,note_on,15,0,1,,,,,,,,,0,,,99,0
31980,note_on,0,0,1,,,,,,,,,0,,,87,60
31980,note_on,0,0,1,,,,,,,,,0,,,99,60
31980,note_on,60,0,3,,,,,,,,,0,,,63,0
31980,note_on,15,0,1,,,,,,,,,0,,,100,0
31995,note_on,0,0,1,,,,,,,,,0,,,100,60
31995,note_on,15,0,1,,,,,,,,,0,,,99,0
32010,note_on,15,0,1,,,,,,,,,0,,,100,0
32010,note_on,30,0,3,,,,,,,,,0,,,63,70
32010,note_on,0,0,1,,,,,,,,,0,,,87,0
32010,note_on,0,0,1,,,,,,,,,0,,,99,60
32025,note_on,0,0,1,,,,,,,,,0,,,100,60
32025,note_on,15,0,1,,,,,,,,,0,,,99,0
32040,note_on,0,0,1,,,,,,,,,0,,,99,60
32040,note_on,0,0,1,,,,,,,,,0,,,87,60
32040,note_on,0,0,3,,,,,,,,,0,,,75,70
32040,note_on,30,0,3,,,,,,,,,0,,,63,0
32040,note_on,15,0,1,,,,,,,,,0,,,100,0
32055,note_on,15,0,1,,,,,,,,,0,,,99,0
32055,note_on,0,0,1,,,,,,,,,0,,,100,60
32055,note_on,15,0,3,,,,,,,,,0,,,75,0
32070,note_on,0,0,1,,,,,,,,,0,,,99,60
32070,note_on,0,0,1,,,,,,,,,0,,,87,0
32070,note_on,15,0,1,,,,,,,,,0,,,100,0
32085,note_on,0,0,1,,,,,,,,,0,,,100,60
32085,note_on,15,0,1,,,,,,,,,0,,,99,0
32100,note_on,15,0,1,,,,,,,,,0,,,100,0
32100,note_on,0,0,1,,,,,,,,,0,,,99,60
32100,note_on,0,0,1,,,,,,,,,0,,,87,60
32100,note_on,45,0,3,,,,,,,,,0,,,75,70
32115,note_on,15,0,3,,,,,,,,,0,,,75,0
32115,note_on,15,0,1,,,,,,,,,0,,,99,0
32115,note_on,0,0,1,,,,,,,,,0,,,100,60
32130,note_on,15,0,1,,,,,,,,,0,,,100,0
32130,note_on,0,0,1,,,,,,,,,0,,,87,0
32130,note_on,0,0,1,,,,,,,,,0,,,99,60
32145,note_on,15,0,1,,,,,,,,,0,,,99,0
32145,note_on,0,0,1,,,,,,,,,0,,,100,60
32160,note_on,45,0,3,,,,,,,,,0,,,73,70
32160,note_on,0,0,1,,,,,,,,,0,,,87,60
32160,note_on,0,0,1,,,,,,,,,0,,,99,60
32160,note_on,15,0,1,,,,,,,,,0,,,100,0
32175,note_on,15,0,1,,,,,,,,,0,,,99,0
32175,note_on,0,0,1,,,,,,,,,0,,,100,60
32175,note_on,15,0,3,,,,,,,,,0,,,73,0
32190,note_on,0,0,1,,,,,,,,,0,,,87,0
32190,note_on,15,0,1,,,,,,,,,0,,,100,0
32190,note_on,0,0,1,,,,,,,,,0,,,99,60
32205,note_on,0,0,1,,,,,,,,,0,,,100,60
32205,note_on,15,0,1,,,,,,,,,0,,,99,0
32220,note_on,15,0,1,,,,,,,,,0,,,100,0
32220,note_on,0,0,3,,,,,,,,,0,,,71,70
32220,note_on,45,0,3,,,,,,,,,0,,,56,60
32220,note_on,0,0,1,,,,,,,,,0,,,99,60
32235,note_on,15,0,3,,,,,,,,,0,,,71,0
32235,note_on,15,0,1,,,,,,,,,0,,,99,0
32235,note_on,0,0,1,,,,,,,,,0,,,100,60
32250,note_on,0,0,1,,,,,,,,,0,,,99,60
32250,note_on,15,0,1,,,,,,,,,0,,,100,0
32265,note_on,0,0,1,,,,,,,,,0,,,87,60
32265,note_on,15,0,1,,,,,,,,,0,,,99,0
32280,note_on,0,0,3,,,,,,,,,0,,,71,70
32280,note_on,0,0,1,,,,,,,,,0,,,87,60
32280,note_on,45,0,3,,,,,,,,,0,,,56,0
32280,note_on,15,0,1,,,,,,,,,0,,,87,0
32295,note_on,15,0,3,,,,,,,,,0,,,71,0
32295,note_on,15,0,1,,,,,,,,,0,,,87,0
32295,note_on,0,0,1,,,,,,,,,0,,,88,60
32310,note_on,0,0,1,,,,,,,,,0,,,87,60
32310,note_on,15,0,1,,,,,,,,,0,,,88,0
32325,note_on,0,0,1,,,,,,,,,0,,,75,60
32325,note_on,15,0,1,,,,,,,,,0,,,87,0
32340,note_on,15,0,1,,,,,,,,,0,,,75,0
32340,note_on,45,0,3,,,,,,,,,0,,,70,70
32340,note_on,0,0,1,,,,,,,,,0,,,87,60
32355,note_on,15,0,3,,,,,,,,,0,,,70,0
32360,note_on,0,0,1,,,,,,,,,0,,,88,60
32360,note_on,20,0,1,,,,,,,,,0,,,87,0
32380,note_on,0,0,1,,,,,,,,,0,,,87,60
32380,note_on,20,0,1,,,,,,,,,0,,,88,0
32400,note_on,20,0,1,,,,,,,,,0,,,87,0
32400,note_on,45,0,3,,,,,,,,,0,,,59,60
32400,note_on,0,0,1,,,,,,,,,0,,,99,60
32400,note_on,0,0,3,,,,,,,,,0,,,68,70
32415,note_on,0,0,1,,,,,,,,,0,,,100,60
32415,note_on,15,0,3,,,,,,,,,0,,,68,0
32415,note_on,15,0,1,,,,,,,,,0,,,99,0
32430,note_on,0,0,1,,,,,,,,,0,,,99,60
32430,note_on,15,0,1,,,,,,,,,0,,,100,0
32445,note_on,15,0,1,,,,,,,,,0,,,99,0
32445,note_on,0,0,1,,,,,,,,,0,,,87,60
32460,note_on,0,0,1,,,,,,,,,0,,,87,60
32460,note_on,0,0,3,,,,,,,,,0,,,67,70
32460,note_on,45,0,3,,,,,,,,,0,,,59,0
32460,note_on,15,0,1,,,,,,,,,0,,,87,0
32475,note_on,15,0,1,,,,,,,,,0,,,87,0
32475,note_on,0,0,1,,,,,,,,,0,,,88,60
32475,note_on,15,0,3,,,,,,,,,0,,,67,0
32490,note_on,0,0,1,,,,,,,,,0,,,87,60
32490,note_on,15,0,1,,,,,,,,,0,,,88,0
32505,note_on,15,0,1,,,,,,,,,0,,,87,0
32505,note_on,0,0,1,,,,,,,,,0,,,75,60
32520,note_on,45,0,3,,,,,,,,,0,,,68,70
32520,note_on,0,0,1,,,,,,,,,0,,,87,60
32520,note_on,15,0,1,,,,,,,,,0,,,75,0
32535,note_on,15,0,3,,,,,,,,,0,,,68,0
32540,note_on,20,0,1,,,,,,,,,0,,,87,0
32540,note_on,0,0,1,,,,,,,,,0,,,88,60
32560,note_on,0,0,1,,,,,,,,,0,,,87,60
32560,note_on,20,0,1,,,,,,,,,0,,,88,0
32580,note_on,45,0,3,,,,,,,,,0,,,67,60
32580,note_on,0,0,1,,,,,,,,,0,,,99,60
32580,note_on,0,0,3,,,,,,,,,0,,,70,70
32580,note_on,20,0,1,,,,,,,,,0,,,87,0
32595,note_on,15,0,1,,,,,,,,,0,,,99,0
32595,note_on,0,0,1,,,,,,,,,0,,,100,60
32610,note_on,15,0,1,,,,,,,,,0,,,100,0
32610,note_on,0,0,1,,,,,,,,,0,,,99,60
32625,note_on,15,0,1,,,,,,,,,0,,,99,0
32625,note_on,0,0,1,,,,,,,,,0,,,87,60
32640,note_on,60,0,3,,,,,,,,,0,,,70,0
32640,note_on,15,0,1,,,,,,,,,0,,,87,0
32640,note_on,0,0,3,,,,,,,,,0,,,67,0
32640,note_on,0,0,1,,,,,,,,,0,,,87,60
32640,note_on,0,0,3,,,,,,,,,0,,,63,70
32655,note_on,0,0,1,,,,,,,,,0,,,88,60
32655,note_on,15,0,1,,,,,,,,,0,,,87,0
32670,note_on,15,0,1,,,,,,,,,0,,,88,0
32670,note_on,0,0,1,,,,,,,,,0,,,87,60
32685,note_on,15,0,1,,,,,,,,,0,,,87,0
32685,note_on,0,0,1,,,,,,,,,0,,,75,60
32700,note_on,15,0,1,,,,,,,,,0,,,75,0
32700,note_on,0,0,1,,,,,,,,,0,,,87,60
32700,note_on,60,0,3,,,,,,,,,0,,,63,0
32700,note_on,0,0,3,,,,,,,,,0,,,63,70
32715,note_on,15,0,3,,,,,,,,,0,,,63,0
32720,note_on,0,0,1,,,,,,,,,0,,,88,60
32720,note_on,20,0,1,,,,,,,,,0,,,87,0
32740,note_on,0,0,1,,,,,,,,,0,,,87,60
32740,note_on,20,0,1,,,,,,,,,0,,,88,0
32760,note_on,0,0,1,,,,,,,,,0,,,99,60
32760,note_on,20,0,1,,,,,,,,,0,,,87,0
32760,note_on,0,0,3,,,,,,,,,0,,,68,70
32760,note_on,45,0,3,,,,,,,,,0,,,59,60
32775,note_on,0,0,1,,,,,,,,,0,,,100,60
32775,note_on,15,0,1,,,,,,,,,0,,,99,0
32775,note_on,15,0,3,,,,,,,,,0,,,68,0
32790,note_on,0,0,1,,,,,,,,,0,,,99,60
32790,note_on,15,0,1,,,,,,,,,0,,,100,0
32805,note_on,15,0,1,,,,,,,,,0,,,99,0
32805,note_on,0,0,1,,,,,,,,,0,,,87,60
32820,note_on,45,0,3,,,,,,,,,0,,,59,0
32820,note_on,15,0,1,,,,,,,,,0,,,87,0
32820,note_on,0,0,3,,,,,,,,,0,,,60,60
32820,note_on,0,0,3,,,,,,,,,0,,,66,70
32820,note_on,0,0,1,,,,,,,,,0,,,87,60
32835,note_on,15,0,3,,,,,,,,,0,,,66,0
32835,note_on,15,0,1,,,,,,,,,0,,,87,0
32835,note_on,0,0,1,,,,,,,,,0,,,88,60
32850,note_on,0,0,1,,,,,,,,,0,,,87,60
32850,note_on,15,0,1,,,,,,,,,0,,,88,0
32865,note_on,15,0,1,,,,,,,,,0,,,87,0
32865,note_on,0,0,1,,,,,,,,,0,,,75,60
32880,note_on,0,0,3,,,,,,,,,0,,,61,60
32880,note_on,0,0,3,,,,,,,,,0,,,64,70
32880,note_on,15,0,1,,,,,,,,,0,,,75,0
32880,note_on,45,0,3,,,,,,,,,0,,,60,0
32880,note_on,0,0,1,,,,,,,,,0,,,87,60
32895,note_on,15,0,3,,,,,,,,,0,,,64,0
32900,note_on,0,0,1,,,,,,,,,0,,,88,60
32900,note_on,20,0,1,,,,,,,,,0,,,87,0
32920,note_on,20,0,1,,,,,,,,,0,,,88,0
32920,note_on,0,0,1,,,,,,,,,0,,,87,60
32940,note_on,0,0,3,,,,,,,,,0,,,63,60
32940,note_on,45,0,3,,,,,,,,,0,,,61,0
32940,note_on,20,0,1,,,,,,,,,0,,,87,0
32940,note_on,0,0,1,,,,,,,,,0,,,99,60
32955,note_on,0,0,1,,,,,,,,,0,,,100,60
32955,note_on,15,0,3,,,,,,,,,0,,,63,0
32955,note_on,15,0,1,,,,,,,,,0,,,99,0
32970,note_on,0,0,1,,,,,,,,,0,,,99,60
32970,note_on,15,0,1,,,,,,,,,0,,,100,0
32985,note_on,0,0,1,,,,,,,,,0,,,87,60
32985,note_on,15,0,1,,,,,,,,,0,,,99,0
33000,note_on,45,0,3,,,,,,,,,0,,,80,60
33000,note_on,0,0,3,,,,,,,,,0,,,71,60
33000,note_on,15,0,1,,,,,,,,,0,,,87,0
33015,note_on,15,0,3,,,,,,,,,0,,,71,0
33015,note_on,0,0,3,,,,,,,,,0,,,80,0
33030,note_on,15,0,3,,,,,,,,,0,,,83,60
33030,note_on,0,0,3,,,,,,,,,0,,,75,60
33045,note_on,15,0,3,,,,,,,,,0,,,75,0
33045,note_on,0,0,3,,,,,,,,,0,,,83,0
33060,note_on,0,0,1,,,,,,,,,0,,,80,60
33060,note_on,60,0,1,,,,,,,,,0,,,87,60
33075,note_on,0,0,1,,,,,,,,,0,,,87,0
33075,note_on,15,0,1,,,,,,,,,0,,,80,0
33120,note_on,75,0,3,,,,,,,,,0,,,63,60
33120,note_on,45,0,1,,,,,,,,,0,,,99,60
33135,note_on,15,0,1,,,,,,,,,0,,,99,0
33135,note_on,0,0,1,,,,,,,,,0,,,100,60
33135,note_on,15,0,3,,,,,,,,,0,,,63,0
33150,note_on,0,0,1,,,,,,,,,0,,,99,60
33150,note_on,15,0,1,,,,,,,,,0,,,100,0
33165,note_on,15,0,1,,,,,,,,,0,,,99,0
33165,note_on,0,0,1,,,,,,,,,0,,,87,60
33180,note_on,0,0,3,,,,,,,,,0,,,70,60
33180,note_on,45,0,3,,,,,,,,,0,,,79,60
33180,note_on,15,0,1,,,,,,,,,0,,,87,0
33195,note_on,0,0,3,,,,,,,,,0,,,79,0
33195,note_on,15,0,3,,,,,,,,,0,,,70,0
33210,note_on,15,0,3,,,,,,,,,0,,,82,60
33210,note_on,0,0,3,,,,,,,,,0,,,73,60
33225,note_on,0,0,3,,,,,,,,,0,,,82,0
33225,note_on,15,0,3,,,,,,,,,0,,,73,0
33240,note_on,60,0,1,,,,,,,,,0,,,87,60
33240,note_on,0,0,1,,,,,,,,,0,,,79,60
33255,note_on,0,0,1,,,,,,,,,0,,,87,0
33255,note_on,15,0,1,,,,,,,,,0,,,79,0
33300,note_on,75,0,3,,,,,,,,,0,,,56,60
33345,note_on,45,0,3,,,,,,,,,0,,,63,60
33352,note_on,7,0,3,,,,,,,,,0,,,71,60
33353,note_on,1,0,3,,,,,,,,,0,,,63,0
33360,note_on,0,0,3,,,,,,,,,0,,,80,60
33360,note_on,0,0,3,,,,,,,,,0,,,56,0
33360,note_on,7,0,3,,,,,,,,,0,,,71,0
33390,note_on,30,0,3,,,,,,,,,0,,,80,0
33420,note_on,165,0,1,,,,,,,,,0,,,75,70
33435,note_on,15,0,1,,,,,,,,,0,,,75,0
33435,note_on,0,0,1,,,,,,,,,0,,,87,60
33450,note_on,15,0,1,,,,,,,,,0,,,87,0
33450,note_on,0,0,1,,,,,,,,,0,,,88,60
33465,note_on,0,0,1,,,,,,,,,0,,,87,60
33465,note_on,15,0,1,,,,,,,,,0,,,88,0
33480,note_on,15,0,1,,,,,,,,,0,,,87,0
33480,note_on,0,0,1,,,,,,,,,0,,,87,70
33495,note_on,15,0,1,,,,,,,,,0,,,87,0
33495,note_on,0,0,1,,,,,,,,,0,,,99,60
33510,note_on,0,0,1,,,,,,,,,0,,,100,60
33510,note_on,15,0,1,,,,,,,,,0,,,99,0
33525,note_on,0,0,1,,,,,,,,,0,,,99,60
33525,note_on,15,0,1,,,,,,,,,0,,,100,0
33540,note_on,0,0,1,,,,,,,,,0,,,87,70
33540,note_on,15,0,1,,,,,,,,,0,,,99,0
33555,note_on,15,0,1,,,,,,,,,0,,,87,0
33555,note_on,0,0,1,,,,,,,,,0,,,99,60
33570,note_on,15,0,1,,,,,,,,,0,,,99,0
33570,note_on,0,0,1,,,,,,,,,0,,,100,60
33585,note_on,0,0,1,,,,,,,,,0,,,99,60
33585,note_on,15,0,1,,,,,,,,,0,,,100,0
33600,note_on,0,0,1,,,,,,,,,0,,,85,70
33600,note_on,15,0,1,,,,,,,,,0,,,99,0
33615,note_on,0,0,1,,,,,,,,,0,,,97,60
33615,note_on,15,0,1,,,,,,,,,0,,,85,0
33630,note_on,0,0,1,,,,,,,,,0,,,99,60
33630,note_on,15,0,1,,,,,,,,,0,,,97,0
33645,note_on,0,0,1,,,,,,,,,0,,,97,60
33645,note_on,15,0,1,,,,,,,,,0,,,99,0
33660,note_on,4920,0,4,,,,,,,,,0,,,32,70
33660,note_on,15,0,1,,,,,,,,,0,,,97,0
33660,note_on,0,0,1,,,,,,,,,0,,,83,70
33660,note_on,0,0,4,,,,,,,,,0,,,44,70
33675,note_on,15,0,1,,,,,,,,,0,,,83,0
33675,note_on,15,0,4,,,,,,,,,0,,,44,0
33675,note_on,0,0,4,,,,,,,,,0,,,32,0
33675,note_on,0,0,1,,,,,,,,,0,,,95,60
33690,note_on,15,0,1,,,,,,,,,0,,,95,0
33690,note_on,0,0,1,,,,,,,,,0,,,97,60
33705,note_on,15,0,1,,,,,,,,,0,,,97,0
33705,note_on,0,0,1,,,,,,,,,0,,,95,60
33720,note_on,45,0,4,,,,,,,,,0,,,63,60
33720,note_on,0,0,4,,,,,,,,,0,,,59,60
33720,note_on,0,0,4,,,,,,,,,0,,,51,60
33720,note_on,15,0,1,,,,,,,,,0,,,95,0
33720,note_on,0,0,1,,,,,,,,,0,,,83,70
33735,note_on,15,0,1,,,,,,,,,0,,,83,0
33735,note_on,15,0,4,,,,,,,,,0,,,51,0
33735,note_on,0,0,4,,,,,,,,,0,,,59,0
33735,note_on,0,0,4,,,,,,,,,0,,,63,0
33735,note_on,0,0,1,,,,,,,,,0,,,95,60
33750,note_on,0,0,1,,,,,,,,,0,,,97,60
33750,note_on,15,0,1,,,,,,,,,0,,,95,0
33765,note_on,0,0,1,,,,,,,,,0,,,95,60
33765,note_on,15,0,1,,,,,,,,,0,,,97,0
33780,note_on,0,0,4,,,,,,,,,0,,,59,60
33780,note_on,45,0,4,,,,,,,,,0,,,63,60
33780,note_on,0,0,1,,,,,,,,,0,,,82,70
33780,note_on,0,0,4,,,,,,,,,0,,,56,60
33780,note_on,15,0,1,,,,,,,,,0,,,95,0
33795,note_on,0,0,4,,,,,,,,,0,,,59,0
33795,note_on,15,0,4,,,,,,,,,0,,,56,0
33795,note_on,0,0,1,,,,,,,,,0,,,94,60
33795,note_on,0,0,4,,,,,,,,,0,,,63,0
33795,note_on,15,0,1,,,,,,,,,0,,,82,0
33810,note_on,15,0,1,,,,,,,,,0,,,94,0
33810,note_on,0,0,1,,,,,,,,,0,,,95,60
33825,note_on,0,0,1,,,,,,,,,0,,,94,60
33825,note_on,15,0,1,,,,,,,,,0,,,95,0
33840,note_on,0,0,4,,,,,,,,,0,,,47,70
33840,note_on,0,0,1,,,,,,,,,0,,,80,70
33840,note_on,45,0,4,,,,,,,,,0,,,35,70
33840,note_on,15,0,1,,,,,,,,,0,,,94,0
33855,note_on,0,0,4,,,,,,,,,0,,,35,0
33855,note_on,15,0,4,,,,,,,,,0,,,47,0
33855,note_on,0,0,1,,,,,,,,,0,,,92,60
33855,note_on,15,0,1,,,,,,,,,0,,,80,0
33870,note_on,15,0,1,,,,,,,,,0,,,92,0
33870,note_on,0,0,1,,,,,,,,,0,,,94,60
33885,note_on,0,0,1,,,,,,,,,0,,,92,60
33885,note_on,15,0,1,,,,,,,,,0,,,94,0
33900,note_on,45,0,4,,,,,,,,,0,,,63,60
33900,note_on,15,0,1,,,,,,,,,0,,,92,0
33900,note_on,0,0,4,,,,,,,,,0,,,59,60
33900,note_on,0,0,4,,,,,,,,,0,,,51,60
33900,note_on,0,0,1,,,,,,,,,0,,,79,70
33915,note_on,15,0,4,,,,,,,,,0,,,51,0
33915,note_on,0,0,4,,,,,,,,,0,,,59,0
33915,note_on,0,0,1,,,,,,,,,0,,,91,60
33915,note_on,0,0,4,,,,,,,,,0,,,63,0
33915,note_on,15,0,1,,,,,,,,,0,,,79,0
33930,note_on,0,0,1,,,,,,,,,0,,,92,60
33930,note_on,15,0,1,,,,,,,,,0,,,91,0
33945,note_on,15,0,1,,,,,,,,,0,,,92,0
33945,note_on,0,0,1,,,,,,,,,0,,,91,60
33960,note_on,0,0,1,,,,,,,,,0,,,80,70
33960,note_on,0,0,4,,,,,,,,,0,,,59,60
33960,note_on,0,0,4,,,,,,,,,0,,,56,60
33960,note_on,45,0,4,,,,,,,,,0,,,63,60
33960,note_on,15,0,1,,,,,,,,,0,,,91,0
33975,note_on,0,0,4,,,,,,,,,0,,,59,0
33975,note_on,0,0,4,,,,,,,,,0,,,63,0
33975,note_on,0,0,1,,,,,,,,,0,,,92,60
33975,note_on,15,0,4,,,,,,,,,0,,,56,0
33975,note_on,15,0,1,,,,,,,,,0,,,80,0
33990,note_on,0,0,1,,,,,,,,,0,,,94,60
33990,note_on,15,0,1,,,,,,,,,0,,,92,0
34005,note_on,0,0,1,,,,,,,,,0,,,92,60
34005,note_on,15,0,1,,,,,,,,,0,,,94,0
34020,note_on,0,0,4,,,,,,,,,0,,,51,70
34020,note_on,15,0,1,,,,,,,,,0,,,92,0
34020,note_on,0,0,1,,,,,,,,,0,,,82,70
34020,note_on,45,0,4,,,,,,,,,0,,,39,70
34035,note_on,0,0,1,,,,,,,,,0,,,94,60
34035,note_on,15,0,4,,,,,,,,,0,,,51,0
34035,note_on,0,0,4,,,,,,,,,0,,,39,0
34035,note_on,15,0,1,,,,,,,,,0,,,82,0
34050,note_on,0,0,1,,,,,,,,,0,,,95,60
34050,note_on,15,0,1,,,,,,,,,0,,,94,0
34065,note_on,0,0,1,,,,,,,,,0,,,94,60
34065,note_on,15,0,1,,,,,,,,,0,,,95,0
34080,note_on,0,0,1,,,,,,,,,0,,,75,70
34080,note_on,15,0,1,,,,,,,,,0,,,94,0
34080,note_on,0,0,4,,,,,,,,,0,,,55,60
34080,note_on,0,0,4,,,,,,,,,0,,,63,60
34080,note_on,45,0,4,,,,,,,,,0,,,67,60
34095,note_on,0,0,1,,,,,,,,,0,,,87,60
34095,note_on,15,0,1,,,,,,,,,0,,,75,0
34095,note_on,0,0,4,,,,,,,,,0,,,67,0
34095,note_on,15,0,4,,,,,,,,,0,,,55,0
34095,note_on,0,0,4,,,,,,,,,0,,,63,0
34110,note_on,0,0,1,,,,,,,,,0,,,88,60
34110,note_on,15,0,1,,,,,,,,,0,,,87,0
34125,note_on,0,0,1,,,,,,,,,0,,,87,60
34125,note_on,15,0,1,,,,,,,,,0,,,88,0
34140,note_on,0,0,1,,,,,,,,,0,,,75,70
34140,note_on,0,0,4,,,,,,,,,0,,,67,60
34140,note_on,0,0,4,,,,,,,,,0,,,63,60
34140,note_on,45,0,4,,,,,,,,,0,,,55,60
34140,note_on,15,0,1,,,,,,,,,0,,,87,0
34155,note_on,15,0,4,,,,,,,,,0,,,67,0
34155,note_on,0,0,4,,,,,,,,,0,,,55,0
34155,note_on,15,0,1,,,,,,,,,0,,,75,0
34155,note_on,0,0,1,,,,,,,,,0,,,87,60
34155,note_on,0,0,4,,,,,,,,,0,,,63,0
34170,note_on,15,0,1,,,,,,,,,0,,,87,0
34170,note_on,0,0,1,,,,,,,,,0,,,88,60
34185,note_on,0,0,1,,,,,,,,,0,,,87,60
34185,note_on,15,0,1,,,,,,,,,0,,,88,0
34200,note_on,15,0,1,,,,,,,,,0,,,87,0
34200,note_on,45,0,4,,,,,,,,,0,,,43,70
34200,note_on,0,0,1,,,,,,,,,0,,,76,70
34215,note_on,15,0,1,,,,,,,,,0,,,76,0
34215,note_on,0,0,1,,,,,,,,,0,,,88,60
34215,note_on,15,0,4,,,,,,,,,0,,,43,0
34230,note_on,15,0,1,,,,,,,,,0,,,88,0
34230,note_on,0,0,1,,,,,,,,,0,,,90,60
34245,note_on,0,0,1,,,,,,,,,0,,,88,60
34245,note_on,15,0,1,,,,,,,,,0,,,90,0
34260,note_on,15,0,1,,,,,,,,,0,,,88,0
34260,note_on,0,0,3,,,,,,,,,0,,,61,60
34260,note_on,0,0,3,,,,,,,,,0,,,63,60
34260,note_on,870,0,3,,,,,,,,,0,,,70,60
34260,note_on,0,0,1,,,,,,,,,0,,,75,70
34275,note_on,0,0,3,,,,,,,,,0,,,70,0
34275,note_on,15,0,3,,,,,,,,,0,,,61,0
34275,note_on,0,0,1,,,,,,,,,0,,,87,60
34275,note_on,15,0,1,,,,,,,,,0,,,75,0
34275,note_on,0,0,3,,,,,,,,,0,,,63,0
34290,note_on,0,0,1,,,,,,,,,0,,,88,60
34290,note_on,15,0,1,,,,,,,,,0,,,87,0
34305,note_on,15,0,1,,,,,,,,,0,,,88,0
34305,note_on,0,0,1,,,,,,,,,0,,,87,60
34320,note_on,15,0,1,,,,,,,,,0,,,87,0
34320,note_on,0,0,1,,,,,,,,,0,,,73,70
34320,note_on,45,0,3,,,,,,,,,0,,,58,60
34320,note_on,0,0,3,,,,,,,,,0,,,70,60
34320,note_on,0,0,3,,,,,,,,,0,,,63,60
34335,note_on,0,0,1,,,,,,,,,0,,,85,60
34335,note_on,0,0,3,,,,,,,,,0,,,63,0
34335,note_on,0,0,3,,,,,,,,,0,,,58,0
34335,note_on,15,0,1,,,,,,,,,0,,,73,0
34335,note_on,15,0,3,,,,,,,,,0,,,70,0
34350,note_on,15,0,1,,,,,,,,,0,,,85,0
34350,note_on,0,0,1,,,,,,,,,0,,,87,60
34365,note_on,15,0,1,,,,,,,,,0,,,87,0
34365,note_on,0,0,1,,,,,,,,,0,,,85,60
34380,note_on,165,0,4,,,,,,,,,0,,,44,70
34380,note_on,15,0,1,,,,,,,,,0,,,85,0
34380,note_on,0,0,1,,,,,,,,,0,,,71,70
34395,note_on,0,0,1,,,,,,,,,0,,,83,60
34395,note_on,15,0,4,,,,,,,,,0,,,44,0
34395,note_on,15,0,1,,,,,,,,,0,,,71,0
34410,note_on,0,0,1,,,,,,,,,0,,,85,60
34410,note_on,15,0,1,,,,,,,,,0,,,83,0
34425,note_on,0,0,1,,,,,,,,,0,,,83,60
34425,note_on,15,0,1,,,,,,,,,0,,,85,0
34440,note_on,0,0,1,,,,,,,,,0,,,71,70
34440,note_on,0,0,4,,,,,,,,,0,,,63,60
34440,note_on,45,0,4,,,,,,,,,0,,,68,60
34440,note_on,15,0,1,,,,,,,,,0,,,83,0
34455,note_on,0,0,4,,,,,,,,,0,,,68,0
34455,note_on,0,0,1,,,,,,,,,0,,,83,60
34455,note_on,15,0,4,,,,,,,,,0,,,63,0
34455,note_on,15,0,1,,,,,,,,,0,,,71,0
34470,note_on,15,0,1,,,,,,,,,0,,,83,0
34470,note_on,0,0,1,,,,,,,,,0,,,85,60
34485,note_on,15,0,1,,,,,,,,,0,,,85,0
34485,note_on,0,0,1,,,,,,,,,0,,,83,60
34500,note_on,45,0,4,,,,,,,,,0,,,59,60
34500,note_on,0,0,4,,,,,,,,,0,,,63,60
34500,note_on,15,0,1,,,,,,,,,0,,,83,0
34500,note_on,0,0,1,,,,,,,,,0,,,70,70
34515,note_on,15,0,1,,,,,,,,,0,,,70,0
34515,note_on,0,0,4,,,,,,,,,0,,,59,0
34515,note_on,15,0,4,,,,,,,,,0,,,63,0
34515,note_on,0,0,1,,,,,,,,,0,,,82,60
34530,note_on,0,0,1,,,,,,,,,0,,,83,60
34530,note_on,15,0,1,,,,,,,,,0,,,82,0
34545,note_on,0,0,1,,,,,,,,,0,,,82,60
34545,note_on,15,0,1,,,,,,,,,0,,,83,0
34560,note_on,0,0,1,,,,,,,,,0,,,68,70
34560,note_on,15,0,1,,,,,,,,,0,,,82,0
34560,note_on,45,0,4,,,,,,,,,0,,,40,70
34575,note_on,0,0,1,,,,,,,,,0,,,80,60
34575,note_on,15,0,1,,,,,,,,,0,,,68,0
34575,note_on,15,0,4,,,,,,,,,0,,,40,0
34590,note_on,0,0,1,,,,,,,,,0,,,82,60
34590,note_on,15,0,1,,,,,,,,,0,,,80,0
34605,note_on,0,0,1,,,,,,,,,0,,,80,60
34605,note_on,15,0,1,,,,,,,,,0,,,82,0
34620,note_on,45,0,4,,,,,,,,,0,,,62,60
34620,note_on,0,0,4,,,,,,,,,0,,,59,60
34620,note_on,0,0,1,,,,,,,,,0,,,67,70
34620,note_on,15,0,1,,,,,,,,,0,,,80,0
34635,note_on,15,0,1,,,,,,,,,0,,,67,0
34635,note_on,15,0,4,,,,,,,,,0,,,59,0
34635,note_on,0,0,1,,,,,,,,,0,,,79,60
34635,note_on,0,0,4,,,,,,,,,0,,,62,0
34650,note_on,15,0,1,,,,,,,,,0,,,79,0
34650,note_on,0,0,1,,,,,,,,,0,,,80,60
34665,note_on,15,0,1,,,,,,,,,0,,,80,0
34665,note_on,0,0,1,,,,,,,,,0,,,79,60
34680,note_on,15,0,1,,,,,,,,,0,,,79,0
34680,note_on,45,0,4,,,,,,,,,0,,,58,60
34680,note_on,0,0,1,,,,,,,,,0,,,68,70
34680,note_on,0,0,4,,,,,,,,,0,,,62,60
34695,note_on,0,0,1,,,,,,,,,0,,,80,60
34695,note_on,15,0,4,,,,,,,,,0,,,62,0
34695,note_on,0,0,4,,,,,,,,,0,,,58,0
34695,note_on,15,0,1,,,,,,,,,0,,,68,0
34710,note_on,15,0,1,,,,,,,,,0,,,80,0
34710,note_on,0,0,1,,,,,,,,,0,,,82,60
34725,note_on,15,0,1,,,,,,,,,0,,,82,0
34725,note_on,0,0,1,,,,,,,,,0,,,80,60
34740,note_on,45,0,4,,,,,,,,,0,,,39,70
34740,note_on,15,0,1,,,,,,,,,0,,,80,0
34740,note_on,0,0,1,,,,,,,,,0,,,70,70
34755,note_on,15,0,1,,,,,,,,,0,,,70,0
34755,note_on,0,0,1,,,,,,,,,0,,,82,60
34755,note_on,15,0,4,,,,,,,,,0,,,39,0
34770,note_on,0,0,1,,,,,,,,,0,,,83,60
34770,note_on,15,0,1,,,,,,,,,0,,,82,0
34785,note_on,15,0,1,,,,,,,,,0,,,83,0
34785,note_on,0,0,1,,,,,,,,,0,,,82,60
34800,note_on,45,0,4,,,,,,,,,0,,,58,60
34800,note_on,0,0,1,,,,,,,,,0,,,63,70
34800,note_on,0,0,4,,,,,,,,,0,,,55,60
34800,note_on,15,0,1,,,,,,,,,0,,,82,0
34815,note_on,15,0,4,,,,,,,,,0,,,55,0
34815,note_on,15,0,1,,,,,,,,,0,,,63,0
34815,note_on,0,0,1,,,,,,,,,0,,,75,60
34815,note_on,0,0,4,,,,,,,,,0,,,58,0
34830,note_on,0,0,1,,,,,,,,,0,,,76,60
34830,note_on,15,0,1,,,,,,,,,0,,,75,0
34845,note_on,15,0,1,,,,,,,,,0,,,76,0
34845,note_on,0,0,1,,,,,,,,,0,,,75,60
34860,note_on,0,0,3,,,,,,,,,0,,,67,60
34860,note_on,15,0,1,,,,,,,,,0,,,75,0
34860,note_on,0,0,1,,,,,,,,,0,,,75,70
34860,note_on,525,0,3,,,,,,,,,0,,,70,60
34875,note_on,0,0,3,,,,,,,,,0,,,70,0
34875,note_on,15,0,1,,,,,,,,,0,,,75,0
34875,note_on,15,0,3,,,,,,,,,0,,,67,0
34875,note_on,0,0,1,,,,,,,,,0,,,87,60
34890,note_on,0,0,1,,,,,,,,,0,,,88,60
34890,note_on,15,0,1,,,,,,,,,0,,,87,0
34905,note_on,15,0,1,,,,,,,,,0,,,88,0
34905,note_on,0,0,1,,,,,,,,,0,,,87,60
34920,note_on,0,0,3,,,,,,,,,0,,,79,60
34920,note_on,45,0,3,,,,,,,,,0,,,82,60
34920,note_on,15,0,1,,,,,,,,,0,,,87,0
34920,note_on,0,0,1,,,,,,,,,0,,,87,70
34935,note_on,15,0,1,,,,,,,,,0,,,87,0
34935,note_on,15,0,3,,,,,,,,,0,,,79,0
34935,note_on,0,0,3,,,,,,,,,0,,,82,0
34935,note_on,0,0,1,,,,,,,,,0,,,99,60
34950,note_on,15,0,1,,,,,,,,,0,,,99,0
34950,note_on,0,0,1,,,,,,,,,0,,,100,60
34965,note_on,15,0,1,,,,,,,,,0,,,100,0
34965,note_on,0,0,1,,,,,,,,,0,,,99,60
34980,note_on,15,0,1,,,,,,,,,0,,,99,0
34980,note_on,0,0,1,,,,,,,,,0,,,87,70
34995,note_on,15,0,1,,,,,,,,,0,,,87,0
34995,note_on,0,0,1,,,,,,,,,0,,,99,60
35010,note_on,15,0,1,,,,,,,,,0,,,99,0
35010,note_on,0,0,1,,,,,,,,,0,,,100,60
35025,note_on,15,0,1,,,,,,,,,0,,,100,0
35025,note_on,0,0,1,,,,,,,,,0,,,99,60
35040,note_on,0,0,1,,,,,,,,,0,,,85,70
35040,note_on,15,0,1,,,,,,,,,0,,,99,0
35055,note_on,15,0,1,,,,,,,,,0,,,85,0
35055,note_on,0,0,1,,,,,,,,,0,,,97,60
35070,note_on,15,0,1,,,,,,,,,0,,,97,0
35070,note_on,0,0,1,,,,,,,,,0,,,99,60
35085,note_on,15,0,1,,,,,,,,,0,,,99,0
35085,note_on,0,0,1,,,,,,,,,0,,,97,60
35100,note_on,0,0,1,,,,,,,,,0,,,84,70
35100,note_on,285,0,4,,,,,,,,,0,,,44,70
35100,note_on,15,0,1,,,,,,,,,0,,,97,0
35115,note_on,15,0,4,,,,,,,,,0,,,44,0
35115,note_on,15,0,1,,,,,,,,,0,,,84,0
35115,note_on,0,0,1,,,,,,,,,0,,,96,60
35130,note_on,15,0,1,,,,,,,,,0,,,96,0
35130,note_on,0,0,1,,,,,,,,,0,,,97,60
35145,note_on,15,0,1,,,,,,,,,0,,,97,0
35145,note_on,0,0,1,,,,,,,,,0,,,96,60
35160,note_on,0,0,1,,,,,,,,,0,,,84,70
35160,note_on,0,0,4,,,,,,,,,0,,,63,60
35160,note_on,45,0,4,,,,,,,,,0,,,66,60
35160,note_on,15,0,1,,,,,,,,,0,,,96,0
35160,note_on,0,0,4,,,,,,,,,0,,,57,60
35175,note_on,0,0,4,,,,,,,,,0,,,63,0
35175,note_on,0,0,4,,,,,,,,,0,,,66,0
35175,note_on,15,0,4,,,,,,,,,0,,,57,0
35175,note_on,0,0,1,,,,,,,,,0,,,96,60
35175,note_on,15,0,1,,,,,,,,,0,,,84,0
35190,note_on,15,0,1,,,,,,,,,0,,,96,0
35190,note_on,0,0,1,,,,,,,,,0,,,97,60
35205,note_on,15,0,1,,,,,,,,,0,,,97,0
35205,note_on,0,0,1,,,,,,,,,0,,,96,60
35220,note_on,45,0,4,,,,,,,,,0,,,66,60
35220,note_on,0,0,4,,,,,,,,,0,,,63,60
35220,note_on,0,0,1,,,,,,,,,0,,,81,70
35220,note_on,0,0,4,,,,,,,,,0,,,60,60
35220,note_on,15,0,1,,,,,,,,,0,,,96,0
35235,note_on,0,0,4,,,,,,,,,0,,,63,0
35235,note_on,0,0,4,,,,,,,,,0,,,66,0
35235,note_on,0,0,1,,,,,,,,,0,,,93,60
35235,note_on,15,0,1,,,,,,,,,0,,,81,0
35235,note_on,15,0,4,,,,,,,,,0,,,60,0
35250,note_on,0,0,1,,,,,,,,,0,,,95,60
35250,note_on,15,0,1,,,,,,,,,0,,,93,0
35265,note_on,15,0,1,,,,,,,,,0,,,95,0
35265,note_on,0,0,1,,,,,,,,,0,,,93,60
35280,note_on,15,0,1,,,,,,,,,0,,,93,0
35280,note_on,0,0,1,,,,,,,,,0,,,80,70
35280,note_on,45,0,4,,,,,,,,,0,,,48,70
35295,note_on,0,0,1,,,,,,,,,0,,,92,60
35295,note_on,15,0,1,,,,,,,,,0,,,80,0
35295,note_on,15,0,4,,,,,,,,,0,,,48,0
35310,note_on,0,0,1,,,,,,,,,0,,,94,60
35310,note_on,15,0,1,,,,,,,,,0,,,92,0
35325,note_on,15,0,1,,,,,,,,,0,,,94,0
35325,note_on,0,0,1,,,,,,,,,0,,,92,60
35340,note_on,0,0,1,,,,,,,,,0,,,80,70
35340,note_on,0,0,4,,,,,,,,,0,,,57,60
35340,note_on,45,0,4,,,,,,,,,0,,,66,60
35340,note_on,0,0,4,,,,,,,,,0,,,63,60
35340,note_on,15,0,1,,,,,,,,,0,,,92,0
35355,note_on,15,0,1,,,,,,,,,0,,,80,0
35355,note_on,15,0,4,,,,,,,,,0,,,57,0
35355,note_on,0,0,4,,,,,,,,,0,,,66,0
35355,note_on,0,0,4,,,,,,,,,0,,,63,0
35355,note_on,0,0,1,,,,,,,,,0,,,92,60
35370,note_on,15,0,1,,,,,,,,,0,,,92,0
35370,note_on,0,0,1,,,,,,,,,0,,,94,60
35385,note_on,15,0,1,,,,,,,,,0,,,94,0
35385,note_on,0,0,1,,,,,,,,,0,,,92,60
35400,note_on,0,0,4,,,,,,,,,0,,,63,60
35400,note_on,0,0,4,,,,,,,,,0,,,59,60
35400,note_on,15,0,1,,,,,,,,,0,,,92,0
35400,note_on,0,0,1,,,,,,,,,0,,,78,70
35400,note_on,45,0,4,,,,,,,,,0,,,66,60
35415,note_on,15,0,4,,,,,,,,,0,,,59,0
35415,note_on,15,0,1,,,,,,,,,0,,,78,0
35415,note_on,0,0,1,,,,,,,,,0,,,90,60
35415,note_on,0,0,4,,,,,,,,,0,,,63,0
35415,note_on,0,0,4,,,,,,,,,0,,,66,0
35430,note_on,15,0,1,,,,,,,,,0,,,90,0
35430,note_on,0,0,1,,,,,,,,,0,,,92,60
35445,note_on,0,0,1,,,,,,,,,0,,,90,60
35445,note_on,15,0,1,,,,,,,,,0,,,92,0
35460,note_on,45,0,4,,,,,,,,,0,,,49,70
35460,note_on,0,0,1,,,,,,,,,0,,,76,70
35460,note_on,15,0,1,,,,,,,,,0,,,90,0
35475,note_on,15,0,4,,,,,,,,,0,,,49,0
35475,note_on,15,0,1,,,,,,,,,0,,,76,0
35475,note_on,0,0,1,,,,,,,,,0,,,88,60
35490,note_on,15,0,1,,,,,,,,,0,,,88,0
35490,note_on,0,0,1,,,,,,,,,0,,,90,60
35505,note_on,0,0,1,,,,,,,,,0,,,88,60
35505,note_on,15,0,1,,,,,,,,,0,,,90,0
35520,note_on,0,0,3,,,,,,,,,0,,,64,60
35520,note_on,0,0,1,,,,,,,,,0,,,73,70
35520,note_on,15,0,1,,,,,,,,,0,,,88,0
35520,note_on,585,0,3,,,,,,,,,0,,,69,60
35535,note_on,15,0,3,,,,,,,,,0,,,64,0
35535,note_on,15,0,1,,,,,,,,,0,,,73,0
35535,note_on,0,0,1,,,,,,,,,0,,,85,60
35535,note_on,0,0,3,,,,,,,,,0,,,69,0
35550,note_on,15,0,1,,,,,,,,,0,,,85,0
35550,note_on,0,0,1,,,,,,,,,0,,,87,60
35565,note_on,15,0,1,,,,,,,,,0,,,87,0
35565,note_on,0,0,1,,,,,,,,,0,,,85,60
35580,note_on,0,0,1,,,,,,,,,0,,,75,70
35580,note_on,0,0,3,,,,,,,,,0,,,69,60
35580,note_on,15,0,1,,,,,,,,,0,,,85,0
35580,note_on,45,0,3,,,,,,,,,0,,,60,60
35595,note_on,0,0,1,,,,,,,,,0,,,87,60
35595,note_on,15,0,3,,,,,,,,,0,,,69,0
35595,note_on,15,0,1,,,,,,,,,0,,,75,0
35595,note_on,0,0,3,,,,,,,,,0,,,60,0
35610,note_on,0,0,1,,,,,,,,,0,,,88,60
35610,note_on,15,0,1,,,,,,,,,0,,,87,0
35625,note_on,0,0,1,,,,,,,,,0,,,87,60
35625,note_on,15,0,1,,,,,,,,,0,,,88,0
35640,note_on,0,0,1,,,,,,,,,0,,,76,70
35640,note_on,15,0,1,,,,,,,,,0,,,87,0
35640,note_on,0,0,3,,,,,,,,,0,,,69,60
35640,note_on,45,0,3,,,,,,,,,0,,,61,60
35655,note_on,15,0,3,,,,,,,,,0,,,69,0
35655,note_on,15,0,1,,,,,,,,,0,,,76,0
35655,note_on,0,0,1,,,,,,,,,0,,,88,60
35655,note_on,0,0,3,,,,,,,,,0,,,61,0
35670,note_on,0,0,1,,,,,,,,,0,,,90,60
35670,note_on,15,0,1,,,,,,,,,0,,,88,0
35685,note_on,0,0,1,,,,,,,,,0,,,88,60
35685,note_on,15,0,1,,,,,,,,,0,,,90,0
35700,note_on,0,0,3,,,,,,,,,0,,,69,60
35700,note_on,0,0,1,,,,,,,,,0,,,75,70
35700,note_on,15,0,1,,,,,,,,,0,,,88,0
35700,note_on,45,0,3,,,,,,,,,0,,,66,60
35715,note_on,0,0,1,,,,,,,,,0,,,87,60
35715,note_on,15,0,3,,,,,,,,,0,,,69,0
35715,note_on,0,0,3,,,,,,,,,0,,,66,0
35715,note_on,15,0,1,,,,,,,,,0,,,75,0
35730,note_on,0,0,1,,,,,,,,,0,,,88,60
35730,note_on,15,0,1,,,,,,,,,0,,,87,0
35745,note_on,15,0,1,,,,,,,,,0,,,88,0
35745,note_on,0,0,1,,,,,,,,,0,,,87,60
35760,note_on,0,0,3,,,,,,,,,0,,,69,60
35760,note_on,45,0,3,,,,,,,,,0,,,64,60
35760,note_on,0,0,1,,,,,,,,,0,,,73,70
35760,note_on,15,0,1,,,,,,,,,0,,,87,0
35775,note_on,0,0,3,,,,,,,,,0,,,64,0
35775,note_on,15,0,1,,,,,,,,,0,,,73,0
35775,note_on,0,0,1,,,,,,,,,0,,,85,60
35775,note_on,15,0,3,,,,,,,,,0,,,69,0
35790,note_on,0,0,1,,,,,,,,,0,,,87,60
35790,note_on,15,0,1,,,,,,,,,0,,,85,0
35805,note_on,0,0,1,,,,,,,,,0,,,85,60
35805,note_on,15,0,1,,,,,,,,,0,,,87,0
35820,note_on,15,0,1,,,,,,,,,0,,,85,0
35820,note_on,0,0,1,,,,,,,,,0,,,75,100
35820,note_on,0,0,3,,,,,,,,,0,,,63,100
35820,set_tempo,5400,1,0,,,,,,625065,,,,,,,
35820,note_on,45,0,3,,,,,,,,,0,,,71,100
35820,note_on,0,0,3,,,,,,,,,0,,,68,100
35827,note_on,7,0,1,,,,,,,,,0,,,87,100
35828,set_tempo,8,1,0,,,,,,627025,,,,,,,
35828,note_on,1,0,1,,,,,,,,,0,,,75,0
35832,set_tempo,4,1,0,,,,,,628997,,,,,,,
35835,note_on,7,0,1,,,,,,,,,0,,,87,0
35835,note_on,0,0,1,,,,,,,,,0,,,76,100
35837,set_tempo,5,1,0,,,,,,630981,,,,,,,
35841,set_tempo,4,1,0,,,,,,632978,,,,,,,
35842,note_on,7,0,1,,,,,,,,,0,,,77,100
35843,note_on,1,0,1,,,,,,,,,0,,,76,0
35845,set_tempo,4,1,0,,,,,,634988,,,,,,,
35850,note_on,0,0,1,,,,,,,,,0,,,78,100
35850,note_on,7,0,1,,,,,,,,,0,,,77,0
35850,set_tempo,5,1,0,,,,,,637010,,,,,,,
35854,set_tempo,4,1,0,,,,,,639046,,,,,,,
35857,note_on,7,0,1,,,,,,,,,0,,,79,100
35858,note_on,1,0,1,,,,,,,,,0,,,78,0
35858,set_tempo,4,1,0,,,,,,641094,,,,,,,
35862,set_tempo,4,1,0,,,,,,643156,,,,,,,
35865,note_on,0,0,1,,,,,,,,,0,,,80,100
35865,note_on,7,0,1,,,,,,,,,0,,,79,0
35867,set_tempo,5,1,0,,,,,,645231,,,,,,,
35871,set_tempo,4,1,0,,,,,,647319,,,,,,,
35872,note_on,7,0,1,,,,,,,,,0,,,81,100
35873,note_on,1,0,1,,,,,,,,,0,,,80,0
35875,set_tempo,4,1,0,,,,,,649421,,,,,,,
35880,note_on,0,0,1,,,,,,,,,0,,,82,100
35880,set_tempo,5,1,0,,,,,,651537,,,,,,,
35880,note_on,7,0,1,,,,,,,,,0,,,81,0
35880,note_on,60,0,3,,,,,,,,,0,,,63,0
35880,note_on,0,0,3,,,,,,,,,0,,,68,0
35880,note_on,0,0,3,,,,,,,,,0,,,71,0
35884,set_tempo,4,1,0,,,,,,653666,,,,,,,
35887,note_on,7,0,1,,,,,,,,,0,,,83,100
35888,note_on,1,0,1,,,,,,,,,0,,,82,0
35888,set_tempo,4,1,0,,,,,,655809,,,,,,,
35892,set_tempo,4,1,0,,,,,,657967,,,,,,,
35895,note_on,7,0,1,,,,,,,,,0,,,83,0
35895,note_on,0,0,1,,,,,,,,,0,,,84,100
35897,set_tempo,5,1,0,,,,,,660139,,,,,,,
35901,set_tempo,4,1,0,,,,,,662325,,,,,,,
35902,note_on,7,0,1,,,,,,,,,0,,,85,100
35903,note_on,1,0,1,,,,,,,,,0,,,84,0
35905,set_tempo,4,1,0,,,,,,664525,,,,,,,
35910,note_on,0,0,1,,,,,,,,,0,,,86,100
35910,note_on,7,0,1,,,,,,,,,0,,,85,0
35914,set_tempo,9,1,0,,,,,,666741,,,,,,,
35917,note_on,7,0,1,,,,,,,,,0,,,87,100
35918,set_tempo,4,1,0,,,,,,668971,,,,,,,
35918,note_on,1,0,1,,,,,,,,,0,,,86,0
35922,set_tempo,4,1,0,,,,,,671216,,,,,,,
35925,note_on,0,0,1,,,,,,,,,0,,,88,100
35925,note_on,7,0,1,,,,,,,,,0,,,87,0
35927,set_tempo,5,1,0,,,,,,673476,,,,,,,
35931,set_tempo,4,1,0,,,,,,675752,,,,,,,
35932,note_on,7,0,1,,,,,,,,,0,,,89,100
35933,note_on,1,0,1,,,,,,,,,0,,,88,0
35935,set_tempo,4,1,0,,,,,,678043,,,,,,,
35940,set_tempo,5,1,0,,,,,,680349,,,,,,,
35940,note_on,0,0,1,,,,,,,,,0,,,90,100
35940,note_on,7,0,1,,,,,,,,,0,,,89,0
35944,set_tempo,4,1,0,,,,,,682672,,,,,,,
35947,note_on,7,0,1,,,,,,,,,0,,,91,100
35948,note_on,1,0,1,,,,,,,,,0,,,90,0
35948,set_tempo,4,1,0,,,,,,685010,,,,,,,
35952,set_tempo,4,1,0,,,,,,687364,,,,,,,
35955,note_on,7,0,1,,,,,,,,,0,,,91,0
35955,note_on,0,0,1,,,,,,,,,0,,,92,100
35957,set_tempo,5,1,0,,,,,,689734,,,,,,,
35961,set_tempo,4,1,0,,,,,,692121,,,,,,,
35962,note_on,7,0,1,,,,,,,,,0,,,93,100
35963,note_on,1,0,1,,,,,,,,,0,,,92,0
35965,set_tempo,4,1,0,,,,,,694525,,,,,,,
35970,set_tempo,5,1,0,,,,,,696945,,,,,,,
35970,note_on,0,0,1,,,,,,,,,0,,,94,100
35970,note_on,7,0,1,,,,,,,,,0,,,93,0
35974,set_tempo,4,1,0,,,,,,699382,,,,,,,
35977,note_on,7,0,1,,,,,,,,,0,,,95,100
35978,note_on,1,0,1,,,,,,,,,0,,,94,0
35978,set_tempo,4,1,0,,,,,,701836,,,,,,,
35982,set_tempo,4,1,0,,,,,,704308,,,,,,,
35985,note_on,0,0,1,,,,,,,,,0,,,96,100
35985,note_on,7,0,1,,,,,,,,,0,,,95,0
35987,set_tempo,5,1,0,,,,,,706797,,,,,,,
35991,set_tempo,4,1,0,,,,,,709304,,,,,,,
35992,note_on,7,0,1,,,,,,,,,0,,,97,100
35993,note_on,1,0,1,,,,,,,,,0,,,96,0
35995,set_tempo,4,1,0,,,,,,711828,,,,,,,
36000,note_on,0,0,4,,,,,,,,,0,,,51,60
36000,note_on,0,0,4,,,,,,,,,0,,,61,60
36000,note_on,7,0,1,,,,,,,,,0,,,97,0
36000,note_on,525,0,4,,,,,,,,,0,,,67,60
36000,note_on,0,0,1,,,,,,,,,0,,,98,60
36004,set_tempo,9,1,0,,,,,,714371,,,,,,,
36008,note_on,0,0,1,,,,,,,,,0,,,99,60
36008,note_on,8,0,1,,,,,,,,,0,,,98,0
36008,set_tempo,4,1,0,,,,,,716932,,,,,,,
36012,set_tempo,4,1,0,,,,,,719511,,,,,,,
36016,note_on,0,0,1,,,,,,,,,0,,,102,59
36016,note_on,8,0,1,,,,,,,,,0,,,99,0
36017,set_tempo,5,1,0,,,,,,722109,,,,,,,
36021,set_tempo,4,1,0,,,,,,724725,,,,,,,
36024,note_on,8,0,1,,,,,,,,,0,,,102,0
36024,note_on,0,0,1,,,,,,,,,0,,,100,58
36025,set_tempo,4,1,0,,,,,,727361,,,,,,,
36030,set_tempo,5,1,0,,,,,,730016,,,,,,,
36032,note_on,0,0,1,,,,,,,,,0,,,97,57
36032,note_on,8,0,1,,,,,,,,,0,,,100,0
36034,set_tempo,4,1,0,,,,,,732690,,,,,,,
36038,set_tempo,4,1,0,,,,,,735384,,,,,,,
36040,note_on,8,0,1,,,,,,,,,0,,,97,0
36040,note_on,0,0,1,,,,,,,,,0,,,94,56
36042,set_tempo,4,1,0,,,,,,738098,,,,,,,
36047,set_tempo,5,1,0,,,,,,740832,,,,,,,
36048,note_on,8,0,1,,,,,,,,,0,,,94,0
36048,note_on,0,0,1,,,,,,,,,0,,,91,55
36051,set_tempo,4,1,0,,,,,,743587,,,,,,,
36055,set_tempo,4,1,0,,,,,,746361,,,,,,,
36056,note_on,0,0,1,,,,,,,,,0,,,86,54
36056,note_on,8,0,1,,,,,,,,,0,,,91,0
36060,set_tempo,5,1,0,,,,,,749157,,,,,,,
36060,note_on,0,0,4,,,,,,,,,0,,,67,0
36060,note_on,60,0,4,,,,,,,,,0,,,51,0
36060,note_on,0,0,4,,,,,,,,,0,,,61,0
36064,note_on,0,0,1,,,,,,,,,0,,,87,53
36064,set_tempo,4,1,0,,,,,,751974,,,,,,,
36064,note_on,8,0,1,,,,,,,,,0,,,86,0
36068,set_tempo,4,1,0,,,,,,754812,,,,,,,
36072,note_on,8,0,1,,,,,,,,,0,,,87,0
36072,note_on,0,0,1,,,,,,,,,0,,,90,52
36072,set_tempo,4,1,0,,,,,,757671,,,,,,,
36077,set_tempo,5,1,0,,,,,,760553,,,,,,,
36080,note_on,8,0,1,,,,,,,,,0,,,90,0
36081,note_on,1,0,1,,,,,,,,,0,,,88,50
36081,set_tempo,4,1,0,,,,,,763456,,,,,,,
36085,set_tempo,4,1,0,,,,,,766381,,,,,,,
36089,note_on,0,0,1,,,,,,,,,0,,,85,49
36089,note_on,8,0,1,,,,,,,,,0,,,88,0
36094,set_tempo,9,1,0,,,,,,769329,,,,,,,
36097,note_on,8,0,1,,,,,,,,,0,,,85,0
36097,note_on,0,0,1,,,,,,,,,0,,,82,48
36098,set_tempo,4,1,0,,,,,,772300,,,,,,,
36102,set_tempo,4,1,0,,,,,,775294,,,,,,,
36105,note_on,8,0,1,,,,,,,,,0,,,82,0
36107,set_tempo,5,1,0,,,,,,778311,,,,,,,
36107,note_on,2,0,1,,,,,,,,,0,,,79,47
36111,set_tempo,4,1,0,,,,,,781352,,,,,,,
36115,set_tempo,4,1,0,,,,,,784416,,,,,,,
36115,note_on,8,0,1,,,,,,,,,0,,,79,0
36115,note_on,0,0,1,,,,,,,,,0,,,76,46
36120,set_tempo,5,1,0,,,,,,787505,,,,,,,
36123,note_on,0,0,1,,,,,,,,,0,,,73,45
36123,note_on,8,0,1,,,,,,,,,0,,,76,0
36124,set_tempo,4,1,0,,,,,,790618,,,,,,,
36128,set_tempo,4,1,0,,,,,,793756,,,,,,,
36131,note_on,8,0,1,,,,,,,,,0,,,73,0
36131,note_on,0,0,1,,,,,,,,,0,,,70,44
36132,set_tempo,4,1,0,,,,,,796919,,,,,,,
36137,set_tempo,5,1,0,,,,,,800107,,,,,,,
36139,note_on,8,0,1,,,,,,,,,0,,,70,0
36139,note_on,0,0,1,,,,,,,,,0,,,67,43
36141,set_tempo,4,1,0,,,,,,803320,,,,,,,
36145,set_tempo,4,1,0,,,,,,806560,,,,,,,
36147,note_on,8,0,1,,,,,,,,,0,,,67,0
36147,note_on,0,0,1,,,,,,,,,0,,,64,42
36150,set_tempo,5,1,0,,,,,,809826,,,,,,,
36154,set_tempo,4,1,0,,,,,,813118,,,,,,,
36155,note_on,8,0,1,,,,,,,,,0,,,64,0
36155,note_on,0,0,1,,,,,,,,,0,,,61,41
36158,set_tempo,4,1,0,,,,,,816438,,,,,,,
36162,set_tempo,4,1,0,,,,,,819784,,,,,,,
36163,note_on,8,0,1,,,,,,,,,0,,,61,0
36164,note_on,1,0,1,,,,,,,,,0,,,58,40
36167,set_tempo,5,1,0,,,,,,823158,,,,,,,
36171,set_tempo,4,1,0,,,,,,826560,,,,,,,
36172,note_on,8,0,1,,,,,,,,,0,,,58,0
36172,note_on,0,0,1,,,,,,,,,0,,,55,40
36175,set_tempo,4,1,0,,,,,,829990,,,,,,,
36180,marker,0,1,0,,,,,,,,,,,,,
36180,set_tempo,5,1,0,,,,,,833333,,,,,,,
36180,note_on,8,0,1,,,,,,,,,0,,,55,0
36180,note_on,120,0,4,,,,,,,,,0,,,44,40
36190,note_on,0,0,4,,,,,,,,,0,,,51,40
36190,note_on,10,0,4,,,,,,,,,0,,,44,0
36200,note_on,10,0,4,,,,,,,,,0,,,51,0
36200,note_on,0,0,4,,,,,,,,,0,,,56,40
36210,note_on,30,0,1,,,,,,,,,0,,,59,40
36210,note_on,10,0,4,,,,,,,,,0,,,56,0
36220,note_on,10,0,1,,,,,,,,,0,,,59,0
36220,note_on,0,0,1,,,,,,,,,0,,,63,40
36230,note_on,0,0,1,,,,,,,,,0,,,68,40
36230,note_on,10,0,1,,,,,,,,,0,,,63,0
36240,note_on,360,0,3,,,,,,,,,0,,,71,40
36240,note_on,10,0,1,,,,,,,,,0,,,68,0
36250,note_on,10,0,3,,,,,,,,,0,,,71,0
36250,note_on,0,0,3,,,,,,,,,0,,,75,40
36260,note_on,10,0,3,,,,,,,,,0,,,75,0
36260,note_on,0,0,3,,,,,,,,,0,,,80,40
36270,note_on,30,0,1,,,,,,,,,0,,,83,40
36270,note_on,10,0,3,,,,,,,,,0,,,80,0
36280,note_on,10,0,1,,,,,,,,,0,,,83,0
36280,note_on,0,0,1,,,,,,,,,0,,,87,40
36290,note_on,10,0,1,,,,,,,,,0,,,87,0
36290,note_on,0,0,1,,,,,,,,,0,,,95,40
36300,note_on,0,0,1,,,,,,,,,0,,,92,40
36300,set_tempo,120,1,0,,,,,,1666667,,,,,,,
36300,note_on,10,0,1,,,,,,,,,0,,,95,0
36360,note_on,60,0,1,,,,,,,,,0,,,92,0
36360,set_tempo,60,1,0,,,,,,625000,,,,,,,
36390,note_on,0,0,1,,,,,,,,,0,,,83,40
36390,note_on,30,0,1,,,,,,,,,0,,,71,40
36390,note_on,120,0,3,,,,,,,,,0,,,68,40
36405,note_on,15,0,3,,,,,,,,,0,,,68,0
36405,note_on,0,0,1,,,,,,,,,0,,,71,0
36405,note_on,15,0,1,,,,,,,,,0,,,83,0
36420,note_on,0,0,3,,,,,,,,,0,,,70,44
36420,note_on,0,0,1,,,,,,,,,0,,,83,44
36420,note_on,15,0,1,,,,,,,,,0,,,71,44
36420,note_on,15,0,3,,,,,,,,,0,,,67,44
36435,note_on,0,0,1,,,,,,,,,0,,,71,0
36435,note_on,15,0,1,,,,,,,,,0,,,83,0
36435,note_on,15,0,3,,,,,,,,,0,,,70,0
36435,note_on,0,0,3,,,,,,,,,0,,,67,0
36450,note_on,15,0,1,,,,,,,,,0,,,71,48
36450,note_on,0,0,1,,,,,,,,,0,,,83,48
36450,note_on,15,0,3,,,,,,,,,0,,,66,48
36450,note_on,0,0,3,,,,,,,,,0,,,69,48
36465,note_on,15,0,3,,,,,,,,,0,,,69,0
36465,note_on,0,0,3,,,,,,,,,0,,,66,0
36465,note_on,15,0,1,,,,,,,,,0,,,83,0
36465,note_on,0,0,1,,,,,,,,,0,,,71,0
36480,note_on,15,0,1,,,,,,,,,0,,,71,52
36480,note_on,0,0,3,,,,,,,,,0,,,68,52
36480,note_on,0,0,1,,,,,,,,,0,,,83,52
36480,note_on,15,0,3,,,,,,,,,0,,,65,52
36495,note_on,0,0,1,,,,,,,,,0,,,71,0
36495,note_on,15,0,3,,,,,,,,,0,,,68,0
36495,note_on,0,0,3,,,,,,,,,0,,,65,0
36495,note_on,15,0,1,,,,,,,,,0,,,83,0
36510,note_on,0,0,1,,,,,,,,,0,,,83,57
36510,note_on,15,0,1,,,,,,,,,0,,,71,57
36510,note_on,0,0,3,,,,,,,,,0,,,67,57
36510,note_on,15,0,3,,,,,,,,,0,,,64,57
36525,note_on,15,0,3,,,,,,,,,0,,,67,0
36525,note_on,0,0,1,,,,,,,,,0,,,71,0
36525,note_on,0,0,3,,,,,,,,,0,,,64,0
36525,note_on,15,0,1,,,,,,,,,0,,,83,0
36540,note_on,15,0,1,,,,,,,,,0,,,83,70
36540,note_on,330,0,4,,,,,,,,,0,,,47,70
36555,note_on,15,0,4,,,,,,,,,0,,,47,0
36555,note_on,15,0,1,,,,,,,,,0,,,83,0
36570,note_on,15,0,1,,,,,,,,,0,,,66,60
36570,note_on,15,0,4,,,,,,,,,0,,,63,60
36585,note_on,15,0,1,,,,,,,,,0,,,66,0
36585,note_on,15,0,4,,,,,,,,,0,,,63,0
36600,note_on,0,0,4,,,,,,,,,0,,,59,70
36600,note_on,15,0,4,,,,,,,,,0,,,54,60
36600,note_on,15,0,1,,,,,,,,,0,,,71,60
36600,note_on,0,0,1,,,,,,,,,0,,,78,70
36615,note_on,15,0,4,,,,,,,,,0,,,59,0
36615,note_on,0,0,4,,,,,,,,,0,,,54,0
36615,note_on,15,0,1,,,,,,,,,0,,,78,0
36615,note_on,0,0,1,,,,,,,,,0,,,71,0
36630,note_on,15,0,4,,,,,,,,,0,,,63,60
36630,note_on,15,0,1,,,,,,,,,0,,,66,60
36645,note_on,15,0,1,,,,,,,,,0,,,66,0
36645,note_on,15,0,4,,,,,,,,,0,,,63,0
36660,note_on,15,0,1,,,,,,,,,0,,,83,70
36660,note_on,15,0,4,,,,,,,,,0,,,47,70
36675,note_on,15,0,1,,,,,,,,,0,,,83,0
36675,note_on,15,0,4,,,,,,,,,0,,,47,0
36690,note_on,15,0,1,,,,,,,,,0,,,66,60
36690,note_on,15,0,4,,,,,,,,,0,,,63,60
36705,note_on,15,0,1,,,,,,,,,0,,,66,0
36705,note_on,15,0,4,,,,,,,,,0,,,63,0
36720,note_on,15,0,1,,,,,,,,,0,,,85,70
36720,note_on,15,0,4,,,,,,,,,0,,,42,70
36735,note_on,15,0,1,,,,,,,,,0,,,85,0
36735,note_on,15,0,4,,,,,,,,,0,,,42,0
36750,note_on,15,0,4,,,,,,,,,0,,,64,60
36750,note_on,15,0,1,,,,,,,,,0,,,66,60
36765,note_on,15,0,1,,,,,,,,,0,,,66,0
36765,note_on,15,0,4,,,,,,,,,0,,,64,0
36780,note_on,0,0,4,,,,,,,,,0,,,58,70
36780,note_on,15,0,4,,,,,,,,,0,,,54,60
36780,note_on,15,0,1,,,,,,,,,0,,,73,60
36780,note_on,0,0,1,,,,,,,,,0,,,78,70
36795,note_on,15,0,1,,,,,,,,,0,,,78,0
36795,note_on,0,0,1,,,,,,,,,0,,,73,0
36795,note_on,0,0,4,,,,,,,,,0,,,54,0
36795,note_on,15,0,4,,,,,,,,,0,,,58,0
36810,note_on,15,0,1,,,,,,,,,0,,,66,60
36810,note_on,15,0,4,,,,,,,,,0,,,64,60
36825,note_on,15,0,1,,,,,,,,,0,,,66,0
36825,note_on,15,0,4,,,,,,,,,0,,,64,0
36840,note_on,15,0,1,,,,,,,,,0,,,85,70
36840,note_on,15,0,4,,,,,,,,,0,,,42,70
36855,note_on,15,0,4,,,,,,,,,0,,,42,0
36855,note_on,15,0,1,,,,,,,,,0,,,85,0
36870,note_on,15,0,1,,,,,,,,,0,,,66,60
36870,note_on,15,0,4,,,,,,,,,0,,,64,60
36885,note_on,15,0,1,,,,,,,,,0,,,66,0
36885,note_on,15,0,4,,,,,,,,,0,,,64,0
36900,note_on,15,0,4,,,,,,,,,0,,,47,70
36900,note_on,15,0,1,,,,,,,,,0,,,87,70
36915,note_on,15,0,4,,,,,,,,,0,,,47,0
36915,note_on,15,0,1,,,,,,,,,0,,,87,0
36930,note_on,15,0,4,,,,,,,,,0,,,63,60
36930,note_on,15,0,1,,,,,,,,,0,,,66,60
36945,note_on,15,0,4,,,,,,,,,0,,,63,0
36945,note_on,15,0,1,,,,,,,,,0,,,66,0
36960,note_on,15,0,4,,,,,,,,,0,,,54,60
36960,note_on,15,0,1,,,,,,,,,0,,,75,60
36975,note_on,15,0,4,,,,,,,,,0,,,54,0
36975,note_on,15,0,1,,,,,,,,,0,,,75,0
36990,note_on,15,0,1,,,,,,,,,0,,,83,60
36990,note_on,15,0,4,,,,,,,,,0,,,47,60
37005,note_on,15,0,4,,,,,,,,,0,,,47,0
37005,note_on,15,0,1,,,,,,,,,0,,,83,0
37020,note_on,15,0,1,,,,,,,,,0,,,87,60
37020,note_on,15,0,4,,,,,,,,,0,,,42,60
37035,note_on,15,0,1,,,,,,,,,0,,,87,0
37035,note_on,15,0,4,,,,,,,,,0,,,42,0
37050,note_on,15,0,4,,,,,,,,,0,,,35,60
37050,note_on,15,0,1,,,,,,,,,0,,,95,60
37065,note_on,15,0,1,,,,,,,,,0,,,95,0
37065,note_on,15,0,4,,,,,,,,,0,,,35,0
37110,note_on,45,0,1,,,,,,,,,0,,,75,60
37110,note_on,585,0,3,,,,,,,,,0,,,71,60
37110,note_on,0,0,1,,,,,,,,,0,,,87,60
37125,note_on,15,0,3,,,,,,,,,0,,,71,0
37125,note_on,0,0,1,,,,,,,,,0,,,75,0
37125,note_on,15,0,1,,,,,,,,,0,,,87,0
37140,note_on,15,0,1,,,,,,,,,0,,,75,64
37140,note_on,15,0,3,,,,,,,,,0,,,71,64
37140,note_on,0,0,1,,,,,,,,,0,,,87,64
37140,note_on,0,0,3,,,,,,,,,0,,,74,64
37155,note_on,0,0,3,,,,,,,,,0,,,71,0
37155,note_on,0,0,1,,,,,,,,,0,,,75,0
37155,note_on,15,0,1,,,,,,,,,0,,,87,0
37155,note_on,15,0,3,,,,,,,,,0,,,74,0
37170,note_on,0,0,3,,,,,,,,,0,,,73,68
37170,note_on,15,0,1,,,,,,,,,0,,,75,68
37170,note_on,0,0,1,,,,,,,,,0,,,87,68
37170,note_on,15,0,3,,,,,,,,,0,,,70,68
37185,note_on,0,0,3,,,,,,,,,0,,,70,0
37185,note_on,15,0,3,,,,,,,,,0,,,73,0
37185,note_on,15,0,1,,,,,,,,,0,,,87,0
37185,note_on,0,0,1,,,,,,,,,0,,,75,0
37200,note_on,0,0,3,,,,,,,,,0,,,72,72
37200,note_on,15,0,3,,,,,,,,,0,,,69,72
37200,note_on,0,0,1,,,,,,,,,0,,,87,72
37200,note_on,15,0,1,,,,,,,,,0,,,75,72
37215,note_on,15,0,3,,,,,,,,,0,,,72,0
37215,note_on,15,0,1,,,,,,,,,0,,,87,0
37215,note_on,0,0,1,,,,,,,,,0,,,75,0
37215,note_on,0,0,3,,,,,,,,,0,,,69,0
37230,note_on,15,0,3,,,,,,,,,0,,,68,77
37230,note_on,15,0,1,,,,,,,,,0,,,75,77
37230,note_on,0,0,3,,,,,,,,,0,,,71,77
37230,note_on,0,0,1,,,,,,,,,0,,,87,77
37245,note_on,15,0,1,,,,,,,,,0,,,87,0
37245,note_on,0,0,3,,,,,,,,,0,,,68,0
37245,note_on,15,0,3,,,,,,,,,0,,,71,0
37245,note_on,0,0,1,,,,,,,,,0,,,75,0
37260,note_on,15,0,1,,,,,,,,,0,,,87,90
37260,note_on,195,0,4,,,,,,,,,0,,,51,90
37275,note_on,15,0,1,,,,,,,,,0,,,87,0
37275,note_on,15,0,4,,,,,,,,,0,,,51,0
37290,note_on,15,0,4,,,,,,,,,0,,,66,80
37290,note_on,15,0,1,,,,,,,,,0,,,70,80
37305,note_on,15,0,1,,,,,,,,,0,,,70,0
37305,note_on,15,0,4,,,,,,,,,0,,,66,0
37320,note_on,0,0,1,,,,,,,,,0,,,82,90
37320,note_on,15,0,4,,,,,,,,,0,,,58,80
37320,note_on,15,0,1,,,,,,,,,0,,,75,80
37320,note_on,0,0,4,,,,,,,,,0,,,63,90
37335,note_on,0,0,4,,,,,,,,,0,,,58,0
37335,note_on,0,0,1,,,,,,,,,0,,,75,0
37335,note_on,15,0,4,,,,,,,,,0,,,63,0
37335,note_on,15,0,1,,,,,,,,,0,,,82,0
37350,note_on,15,0,1,,,,,,,,,0,,,70,80
37350,note_on,15,0,4,,,,,,,,,0,,,66,80
37365,note_on,15,0,1,,,,,,,,,0,,,70,0
37365,note_on,15,0,4,,,,,,,,,0,,,66,0
37380,note_on,15,0,4,,,,,,,,,0,,,51,90
37380,note_on,15,0,1,,,,,,,,,0,,,87,90
37395,note_on,15,0,1,,,,,,,,,0,,,87,0
37395,note_on,15,0,4,,,,,,,,,0,,,51,0
37410,note_on,15,0,1,,,,,,,,,0,,,70,80
37410,note_on,15,0,4,,,,,,,,,0,,,66,80
37425,note_on,15,0,4,,,,,,,,,0,,,66,0
37425,note_on,15,0,1,,,,,,,,,0,,,70,0
37440,note_on,15,0,1,,,,,,,,,0,,,89,90
37440,note_on,15,0,4,,,,,,,,,0,,,46,90
37455,note_on,15,0,1,,,,,,,,,0,,,89,0
37455,note_on,15,0,4,,,,,,,,,0,,,46,0
37470,note_on,15,0,4,,,,,,,,,0,,,68,80
37470,note_on,15,0,1,,,,,,,,,0,,,70,80
37485,note_on,15,0,1,,,,,,,,,0,,,70,0
37485,note_on,15,0,4,,,,,,,,,0,,,68,0
37500,note_on,0,0,1,,,,,,,,,0,,,82,90
37500,note_on,0,0,4,,,,,,,,,0,,,62,90
37500,note_on,15,0,4,,,,,,,,,0,,,58,80
37500,note_on,15,0,1,,,,,,,,,0,,,77,80
37515,note_on,15,0,4,,,,,,,,,0,,,62,0
37515,note_on,0,0,4,,,,,,,,,0,,,58,0
37515,note_on,0,0,1,,,,,,,,,0,,,77,0
37515,note_on,15,0,1,,,,,,,,,0,,,82,0
37530,note_on,15,0,1,,,,,,,,,0,,,70,80
37530,note_on,15,0,4,,,,,,,,,0,,,68,80
37545,note_on,15,0,4,,,,,,,,,0,,,68,0
37545,note_on,15,0,1,,,,,,,,,0,,,70,0
37560,note_on,15,0,1,,,,,,,,,0,,,89,90
37560,note_on,15,0,4,,,,,,,,,0,,,46,90
37575,note_on,15,0,4,,,,,,,,,0,,,46,0
37575,note_on,15,0,1,,,,,,,,,0,,,89,0
37590,note_on,15,0,4,,,,,,,,,0,,,68,80
37590,note_on,15,0,1,,,,,,,,,0,,,70,80
37605,note_on,15,0,4,,,,,,,,,0,,,68,0
37605,note_on,15,0,1,,,,,,,,,0,,,70,0
37620,note_on,15,0,4,,,,,,,,,0,,,51,90
37620,note_on,15,0,1,,,,,,,,,0,,,90,90
37635,note_on,15,0,1,,,,,,,,,0,,,90,0
37635,note_on,15,0,4,,,,,,,,,0,,,51,0
37650,note_on,15,0,4,,,,,,,,,0,,,66,80
37650,note_on,15,0,1,,,,,,,,,0,,,70,80
37665,note_on,15,0,4,,,,,,,,,0,,,66,0
37665,note_on,15,0,1,,,,,,,,,0,,,70,0
37680,note_on,15,0,4,,,,,,,,,0,,,58,80
37680,note_on,15,0,1,,,,,,,,,0,,,78,80
37695,note_on,15,0,1,,,,,,,,,0,,,78,0
37695,note_on,15,0,4,,,,,,,,,0,,,58,0
37710,note_on,15,0,4,,,,,,,,,0,,,51,80
37710,note_on,15,0,1,,,,,,,,,0,,,87,80
37725,note_on,15,0,4,,,,,,,,,0,,,51,0
37725,note_on,15,0,1,,,,,,,,,0,,,87,0
37740,note_on,15,0,1,,,,,,,,,0,,,90,80
37740,note_on,15,0,4,,,,,,,,,0,,,46,80
37755,note_on,15,0,1,,,,,,,,,0,,,90,0
37755,note_on,15,0,4,,,,,,,,,0,,,46,0
37770,note_on,15,0,4,,,,,,,,,0,,,39,80
37770,note_on,15,0,1,,,,,,,,,0,,,99,80
37785,note_on,15,0,1,,,,,,,,,0,,,99,0
37785,note_on,15,0,4,,,,,,,,,0,,,39,0
37830,note_on,45,0,1,,,,,,,,,0,,,90,80
37830,note_on,0,0,1,,,,,,,,,0,,,78,80
37830,note_on,585,0,3,,,,,,,,,0,,,75,80
37845,note_on,15,0,3,,,,,,,,,0,,,75,0
37845,note_on,0,0,1,,,,,,,,,0,,,90,0
37845,note_on,15,0,1,,,,,,,,,0,,,78,0
37860,note_on,0,0,1,,,,,,,,,0,,,78,84
37860,note_on,15,0,1,,,,,,,,,0,,,90,84
37860,note_on,15,0,3,,,,,,,,,0,,,74,84
37860,note_on,0,0,3,,,,,,,,,0,,,77,84
37875,note_on,0,0,1,,,,,,,,,0,,,90,0
37875,note_on,15,0,1,,,,,,,,,0,,,78,0
37875,note_on,15,0,3,,,,,,,,,0,,,77,0
37875,note_on,0,0,3,,,,,,,,,0,,,74,0
37890,note_on,0,0,1,,,,,,,,,0,,,78,88
37890,note_on,15,0,1,,,,,,,,,0,,,90,88
37890,note_on,15,0,3,,,,,,,,,0,,,73,88
37890,note_on,0,0,3,,,,,,,,,0,,,76,88
37905,note_on,15,0,1,,,,,,,,,0,,,78,0
37905,note_on,0,0,1,,,,,,,,,0,,,90,0
37905,note_on,0,0,3,,,,,,,,,0,,,73,0
37905,note_on,15,0,3,,,,,,,,,0,,,76,0
37920,note_on,15,0,1,,,,,,,,,0,,,90,92
37920,note_on,0,0,1,,,,,,,,,0,,,78,92
37920,note_on,15,0,3,,,,,,,,,0,,,72,92
37920,note_on,0,0,3,,,,,,,,,0,,,75,92
37935,note_on,0,0,1,,,,,,,,,0,,,90,0
37935,note_on,0,0,3,,,,,,,,,0,,,72,0
37935,note_on,15,0,3,,,,,,,,,0,,,75,0
37935,note_on,15,0,1,,,,,,,,,0,,,78,0
37950,note_on,0,0,3,,,,,,,,,0,,,74,97
37950,note_on,15,0,3,,,,,,,,,0,,,71,97
37950,note_on,0,0,1,,,,,,,,,0,,,78,97
37950,note_on,15,0,1,,,,,,,,,0,,,90,97
37965,note_on,0,0,1,,,,,,,,,0,,,90,0
37965,note_on,15,0,3,,,,,,,,,0,,,74,0
37965,note_on,0,0,3,,,,,,,,,0,,,71,0
37965,note_on,15,0,1,,,,,,,,,0,,,78,0
37980,note_on,15,0,1,,,,,,,,,0,,,90,110
37980,note_on,195,0,4,,,,,,,,,0,,,54,110
37995,note_on,15,0,1,,,,,,,,,0,,,90,0
37995,note_on,15,0,4,,,,,,,,,0,,,54,0
38010,note_on,15,0,4,,,,,,,,,0,,,70,100
38010,note_on,15,0,1,,,,,,,,,0,,,73,100
38025,note_on,15,0,4,,,,,,,,,0,,,70,0
38025,note_on,15,0,1,,,,,,,,,0,,,73,0
38040,note_on,15,0,4,,,,,,,,,0,,,61,100
38040,note_on,15,0,1,,,,,,,,,0,,,78,100
38040,note_on,0,0,4,,,,,,,,,0,,,66,110
38040,note_on,0,0,1,,,,,,,,,0,,,85,110
38055,note_on,15,0,4,,,,,,,,,0,,,66,0
38055,note_on,15,0,1,,,,,,,,,0,,,85,0
38055,note_on,0,0,4,,,,,,,,,0,,,61,0
38055,note_on,0,0,1,,,,,,,,,0,,,78,0
38070,note_on,15,0,4,,,,,,,,,0,,,70,100
38070,note_on,15,0,1,,,,,,,,,0,,,73,100
38085,note_on,15,0,4,,,,,,,,,0,,,70,0
38085,note_on,15,0,1,,,,,,,,,0,,,73,0
38100,note_on,15,0,1,,,,,,,,,0,,,90,110
38100,note_on,15,0,4,,,,,,,,,0,,,54,110
38115,note_on,15,0,4,,,,,,,,,0,,,54,0
38115,note_on,15,0,1,,,,,,,,,0,,,90,0
38130,note_on,15,0,1,,,,,,,,,0,,,73,100
38130,note_on,15,0,4,,,,,,,,,0,,,70,100
38145,note_on,15,0,4,,,,,,,,,0,,,70,0
38145,note_on,15,0,1,,,,,,,,,0,,,73,0
38160,note_on,15,0,1,,,,,,,,,0,,,92,110
38160,note_on,15,0,4,,,,,,,,,0,,,49,110
38175,note_on,15,0,1,,,,,,,,,0,,,92,0
38175,note_on,15,0,4,,,,,,,,,0,,,49,0
38190,note_on,15,0,1,,,,,,,,,0,,,73,100
38190,note_on,15,0,4,,,,,,,,,0,,,71,100
38205,note_on,15,0,1,,,,,,,,,0,,,73,0
38205,note_on,15,0,4,,,,,,,,,0,,,71,0
38220,note_on,0,0,1,,,,,,,,,0,,,85,110
38220,note_on,15,0,1,,,,,,,,,0,,,80,100
38220,note_on,15,0,4,,,,,,,,,0,,,61,100
38220,note_on,0,0,4,,,,,,,,,0,,,65,110
38235,note_on,15,0,4,,,,,,,,,0,,,65,0
38235,note_on,0,0,4,,,,,,,,,0,,,61,0
38235,note_on,0,0,1,,,,,,,,,0,,,80,0
38235,note_on,15,0,1,,,,,,,,,0,,,85,0
38250,note_on,15,0,4,,,,,,,,,0,,,71,100
38250,note_on,15,0,1,,,,,,,,,0,,,73,100
38265,note_on,15,0,4,,,,,,,,,0,,,71,0
38265,note_on,15,0,1,,,,,,,,,0,,,73,0
38280,note_on,15,0,4,,,,,,,,,0,,,49,110
38280,note_on,15,0,1,,,,,,,,,0,,,92,110
38295,note_on,15,0,4,,,,,,,,,0,,,49,0
38295,note_on,15,0,1,,,,,,,,,0,,,92,0
38310,note_on,15,0,4,,,,,,,,,0,,,71,100
38310,note_on,15,0,1,,,,,,,,,0,,,73,100
38325,note_on,15,0,4,,,,,,,,,0,,,71,0
38325,note_on,15,0,1,,,,,,,,,0,,,73,0
38340,note_on,15,0,1,,,,,,,,,0,,,94,100
38340,note_on,15,0,4,,,,,,,,,0,,,54,110
38340,note_on,0,0,1,,,,,,,,,0,,,85,100
38340,note_on,0,0,1,,,,,,,,,0,,,90,100
38355,note_on,15,0,4,,,,,,,,,0,,,54,0
38370,note_on,0,0,1,,,,,,,,,0,,,95,100
38370,note_on,0,0,1,,,,,,,,,0,,,94,0
38370,note_on,0,0,1,,,,,,,,,0,,,85,100
38370,note_on,0,0,1,,,,,,,,,0,,,92,100
38370,note_on,30,0,1,,,,,,,,,0,,,85,0
38370,note_on,0,0,1,,,,,,,,,0,,,90,0
38400,note_on,435,0,3,,,,,,,,,0,,,61,100
38400,note_on,30,0,1,,,,,,,,,0,,,85,0
38400,note_on,0,0,1,,,,,,,,,0,,,97,100
38400,note_on,0,0,1,,,,,,,,,0,,,85,100
38400,note_on,0,0,1,,,,,,,,,0,,,92,0
38400,note_on,0,0,1,,,,,,,,,0,,,94,100
38400,note_on,0,0,1,,,,,,,,,0,,,95,0
38415,note_on,15,0,3,,,,,,,,,0,,,61,0
38430,note_on,0,0,1,,,,,,,,,0,,,85,100
38430,note_on,0,0,1,,,,,,,,,0,,,97,100
38430,note_on,0,0,1,,,,,,,,,0,,,94,0
38430,note_on,0,0,1,,,,,,,,,0,,,94,100
38430,note_on,15,0,3,,,,,,,,,0,,,70,100
38430,note_on,0,0,1,,,,,,,,,0,,,97,0
38430,note_on,30,0,1,,,,,,,,,0,,,85,0
38445,note_on,15,0,3,,,,,,,,,0,,,70,0
38460,note_on,0,0,1,,,,,,,,,0,,,97,0
38460,note_on,0,0,1,,,,,,,,,0,,,95,100
38460,note_on,0,0,1,,,,,,,,,0,,,94,0
38460,note_on,15,0,3,,,,,,,,,0,,,78,100
38460,note_on,0,0,1,,,,,,,,,0,,,92,100
38460,note_on,0,0,1,,,,,,,,,0,,,85,100
38460,note_on,30,0,1,,,,,,,,,0,,,85,0
38475,note_on,15,0,3,,,,,,,,,0,,,78,0
38490,note_on,0,0,1,,,,,,,,,0,,,94,100
38490,note_on,30,0,1,,,,,,,,,0,,,85,0
38490,note_on,15,0,3,,,,,,,,,0,,,82,100
38490,note_on,0,0,1,,,,,,,,,0,,,85,100
38490,note_on,0,0,1,,,,,,,,,0,,,90,100
38490,note_on,0,0,1,,,,,,,,,0,,,92,0
38490,note_on,0,0,1,,,,,,,,,0,,,95,0
38505,note_on,15,0,3,,,,,,,,,0,,,82,0
38520,note_on,0,0,1,,,,,,,,,0,,,90,0
38520,note_on,30,0,1,,,,,,,,,0,,,85,0
38520,note_on,165,0,4,,,,,,,,,0,,,47,110
38520,note_on,0,0,1,,,,,,,,,0,,,83,100
38520,note_on,0,0,1,,,,,,,,,0,,,87,100
38520,note_on,0,0,1,,,,,,,,,0,,,94,0
38520,note_on,0,0,1,,,,,,,,,0,,,92,100
38535,note_on,15,0,4,,,,,,,,,0,,,47,0
38550,note_on,0,0,1,,,,,,,,,0,,,85,100
38550,note_on,0,0,1,,,,,,,,,0,,,94,100
38550,note_on,0,0,1,,,,,,,,,0,,,92,0
38550,note_on,0,0,1,,,,,,,,,0,,,87,100
38550,note_on,0,0,1,,,,,,,,,0,,,87,0
38550,note_on,30,0,1,,,,,,,,,0,,,83,0
38580,note_on,0,0,1,,,,,,,,,0,,,87,0
38580,note_on,0,0,1,,,,,,,,,0,,,85,0
38580,note_on,30,0,1,,,,,,,,,0,,,94,0
38580,note_on,75,0,3,,,,,,,,,0,,,59,100
38580,note_on,0,0,1,,,,,,,,,0,,,87,100
38580,note_on,0,0,1,,,,,,,,,0,,,95,100
38595,note_on,15,0,3,,,,,,,,,0,,,59,0
38610,note_on,0,0,1,,,,,,,,,0,,,87,0
38610,note_on,15,0,3,,,,,,,,,0,,,68,100
38610,note_on,0,0,1,,,,,,,,,0,,,95,100
38610,note_on,30,0,1,,,,,,,,,0,,,95,0
38610,note_on,0,0,1,,,,,,,,,0,,,87,100
38625,note_on,15,0,3,,,,,,,,,0,,,68,0
38640,note_on,0,0,1,,,,,,,,,0,,,87,0
38640,note_on,0,0,1,,,,,,,,,0,,,85,100
38640,note_on,0,0,1,,,,,,,,,0,,,94,100
38640,note_on,15,0,3,,,,,,,,,0,,,75,100
38640,note_on,30,0,1,,,,,,,,,0,,,95,0
38640,note_on,0,0,1,,,,,,,,,0,,,87,100
38655,note_on,15,0,3,,,,,,,,,0,,,75,0
38670,note_on,15,0,3,,,,,,,,,0,,,80,100
38670,note_on,30,0,1,,,,,,,,,0,,,94,0
38670,note_on,0,0,1,,,,,,,,,0,,,83,100
38670,note_on,0,0,1,,,,,,,,,0,,,85,0
38670,note_on,0,0,1,,,,,,,,,0,,,87,0
38670,note_on,0,0,1,,,,,,,,,0,,,87,100
38670,note_on,0,0,1,,,,,,,,,0,,,92,100
38685,note_on,15,0,3,,,,,,,,,0,,,80,0
38700,note_on,30,0,1,,,,,,,,,0,,,92,0
38700,note_on,0,0,1,,,,,,,,,0,,,90,100
38700,note_on,0,0,1,,,,,,,,,0,,,87,0
38700,note_on,0,0,1,,,,,,,,,0,,,85,100
38700,note_on,165,0,4,,,,,,,,,0,,,49,110
38700,note_on,0,0,1,,,,,,,,,0,,,82,100
38700,note_on,0,0,1,,,,,,,,,0,,,83,0
38715,note_on,15,0,4,,,,,,,,,0,,,49,0
38730,note_on,0,0,1,,,,,,,,,0,,,83,100
38730,note_on,0,0,1,,,,,,,,,0,,,85,0
38730,note_on,0,0,1,,,,,,,,,0,,,85,100
38730,note_on,0,0,1,,,,,,,,,0,,,90,0
38730,note_on,0,0,1,,,,,,,,,0,,,92,100
38730,note_on,30,0,1,,,,,,,,,0,,,82,0
38760,note_on,0,0,1,,,,,,,,,0,,,83,0
38760,note_on,0,0,1,,,,,,,,,0,,,85,100
38760,note_on,0,0,1,,,,,,,,,0,,,94,100
38760,note_on,75,0,3,,,,,,,,,0,,,58,100
38760,note_on,30,0,1,,,,,,,,,0,,,92,0
38760,note_on,0,0,1,,,,,,,,,0,,,85,0
38775,note_on,15,0,3,,,,,,,,,0,,,58,0
38790,note_on,30,0,1,,,,,,,,,0,,,94,0
38790,note_on,15,0,3,,,,,,,,,0,,,66,100
38790,note_on,0,0,1,,,,,,,,,0,,,94,100
38790,note_on,0,0,1,,,,,,,,,0,,,85,0
38790,note_on,0,0,1,,,,,,,,,0,,,85,100
38805,note_on,15,0,3,,,,,,,,,0,,,66,0
38820,note_on,0,0,1,,,,,,,,,0,,,92,100
38820,note_on,0,0,1,,,,,,,,,0,,,83,100
38820,note_on,0,0,1,,,,,,,,,0,,,85,100
38820,note_on,30,0,1,,,,,,,,,0,,,94,0
38820,note_on,15,0,3,,,,,,,,,0,,,73,100
38820,note_on,0,0,1,,,,,,,,,0,,,85,0
38835,note_on,15,0,3,,,,,,,,,0,,,73,0
38850,note_on,15,0,3,,,,,,,,,0,,,78,100
38850,note_on,0,0,1,,,,,,,,,0,,,83,0
38850,note_on,0,0,1,,,,,,,,,0,,,82,100
38850,note_on,30,0,1,,,,,,,,,0,,,92,0
38850,note_on,0,0,1,,,,,,,,,0,,,90,100
38850,note_on,0,0,1,,,,,,,,,0,,,85,100
38850,note_on,0,0,1,,,,,,,,,0,,,85,0
38865,note_on,15,0,3,,,,,,,,,0,,,78,0
38880,note_on,30,0,1,,,,,,,,,0,,,90,0
38880,note_on,15,0,3,,,,,,,,,0,,,61,110
38880,note_on,0,0,1,,,,,,,,,0,,,89,100
38880,note_on,0,0,1,,,,,,,,,0,,,80,100
38880,note_on,0,0,1,,,,,,,,,0,,,82,0
38880,note_on,0,0,1,,,,,,,,,0,,,85,0
38880,note_on,0,0,1,,,,,,,,,0,,,85,100
38895,note_on,15,0,3,,,,,,,,,0,,,61,0
38910,note_on,0,0,1,,,,,,,,,0,,,85,100
38910,note_on,30,0,1,,,,,,,,,0,,,80,0
38910,note_on,0,0,1,,,,,,,,,0,,,82,100
38910,note_on,0,0,1,,,,,,,,,0,,,85,0
38910,note_on,0,0,1,,,,,,,,,0,,,90,100
38910,note_on,0,0,1,,,,,,,,,0,,,89,0
38940,note_on,0,0,1,,,,,,,,,0,,,83,100
38940,note_on,0,0,1,,,,,,,,,0,,,92,100
38940,note_on,0,0,1,,,,,,,,,0,,,82,0
38940,note_on,45,0,3,,,,,,,,,0,,,77,100
38940,note_on,30,0,1,,,,,,,,,0,,,90,0
38940,note_on,0,0,1,,,,,,,,,0,,,85,0
38940,note_on,0,0,1,,,,,,,,,0,,,85,100
38955,note_on,15,0,3,,,,,,,,,0,,,77,0
38970,note_on,30,0,1,,,,,,,,,0,,,92,0
38970,note_on,0,0,1,,,,,,,,,0,,,83,100
38970,note_on,15,0,3,,,,,,,,,0,,,68,100
38970,note_on,0,0,1,,,,,,,,,0,,,83,0
38970,note_on,0,0,1,,,,,,,,,0,,,92,100
38970,note_on,0,0,1,,,,,,,,,0,,,85,100
38970,note_on,0,0,1,,,,,,,,,0,,,85,0
38985,note_on,15,0,3,,,,,,,,,0,,,68,0
39000,note_on,30,0,1,,,,,,,,,0,,,92,0
39000,note_on,0,0,1,,,,,,,,,0,,,83,0
39000,note_on,0,0,1,,,,,,,,,0,,,85,100
39000,note_on,0,0,1,,,,,,,,,0,,,85,0
39000,note_on,0,0,1,,,,,,,,,0,,,78,100
39000,note_on,15,0,3,,,,,,,,,0,,,61,100
39000,note_on,0,0,1,,,,,,,,,0,,,87,100
39015,note_on,15,0,3,,,,,,,,,0,,,61,0
39030,note_on,30,0,1,,,,,,,,,0,,,87,0
39030,note_on,0,0,1,,,,,,,,,0,,,89,100
39030,note_on,0,0,1,,,,,,,,,0,,,80,100
39030,note_on,0,0,1,,,,,,,,,0,,,78,0
39030,note_on,15,0,3,,,,,,,,,0,,,71,100
39030,note_on,0,0,1,,,,,,,,,0,,,85,0
39030,note_on,0,0,1,,,,,,,,,0,,,85,100
39045,note_on,15,0,3,,,,,,,,,0,,,71,0
39060,note_on,0,0,1,,,,,,,,,0,,,85,0
39060,note_on,0,0,3,,,,,,,,,0,,,66,110
39060,note_on,0,0,1,,,,,,,,,0,,,85,110
39060,note_on,15,0,3,,,,,,,,,0,,,70,110
39060,note_on,30,0,1,,,,,,,,,0,,,80,0
39060,note_on,0,0,1,,,,,,,,,0,,,89,0
39060,note_on,0,0,1,,,,,,,,,0,,,78,110
39060,note_on,0,0,1,,,,,,,,,0,,,90,110
39075,note_on,15,0,3,,,,,,,,,0,,,66,0
39075,note_on,0,0,1,,,,,,,,,0,,,85,0
39075,note_on,0,0,1,,,,,,,,,0,,,90,0
39075,note_on,0,0,3,,,,,,,,,0,,,70,0
39075,note_on,15,0,1,,,,,,,,,0,,,78,0
39120,note_on,0,0,4,,,,,,,,,0,,,54,100
39120,note_on,405,0,4,,,,,,,,,0,,,42,100
39150,note_on,30,0,4,,,,,,,,,0,,,54,0
39150,note_on,0,0,4,,,,,,,,,0,,,42,100
39150,note_on,0,0,4,,,,,,,,,0,,,54,100
39150,note_on,0,0,4,,,,,,,,,0,,,42,0
39180,note_on,0,0,4,,,,,,,,,0,,,42,0
39180,note_on,30,0,4,,,,,,,,,0,,,54,0
39180,note_on,0,0,4,,,,,,,,,0,,,55,100
39180,note_on,0,0,4,,,,,,,,,0,,,43,100
39210,note_on,30,0,4,,,,,,,,,0,,,55,0
39210,note_on,0,0,4,,,,,,,,,0,,,55,100
39210,note_on,0,0,4,,,,,,,,,0,,,43,0
39210,note_on,0,0,4,,,,,,,,,0,,,43,100
39240,control_change,38100,0,5,,,,,,,,,0,64,127,,
39240,note_on,0,0,4,,,,,,,,,0,,,44,100
39240,note_on,30,0,4,,,,,,,,,0,,,55,0
39240,note_on,0,0,4,,,,,,,,,0,,,43,0
39240,note_on,0,0,4,,,,,,,,,0,,,56,100
39270,note_on,30,0,4,,,,,,,,,0,,,44,0
39270,note_on,0,0,4,,,,,,,,,0,,,44,101
39270,note_on,0,0,4,,,,,,,,,0,,,56,0
39270,note_on,0,0,4,,,,,,,,,0,,,56,101
39300,note_on,0,0,4,,,,,,,,,0,,,56,0
39300,note_on,0,0,1,,,,,,,,,0,,,68,103
39300,note_on,225,0,1,,,,,,,,,0,,,56,103
39300,note_on,30,0,4,,,,,,,,,0,,,44,0
39330,note_on,30,0,1,,,,,,,,,0,,,68,0
39330,note_on,0,0,1,,,,,,,,,0,,,56,105
39330,note_on,0,0,1,,,,,,,,,0,,,56,0
39330,note_on,0,0,1,,,,,,,,,0,,,68,105
39360,note_on,0,0,1,,,,,,,,,0,,,56,0
39360,note_on,0,0,3,,,,,,,,,0,,,68,107
39360,note_on,285,0,3,,,,,,,,,0,,,80,107
39360,note_on,30,0,1,,,,,,,,,0,,,68,0
39390,note_on,30,0,3,,,,,,,,,0,,,68,0
39390,note_on,0,0,3,,,,,,,,,0,,,80,109
39390,note_on,0,0,3,,,,,,,,,0,,,80,0
39390,note_on,0,0,3,,,,,,,,,0,,,68,109
39420,note_on,30,0,3,,,,,,,,,0,,,68,0
39420,note_on,60,0,1,,,,,,,,,0,,,92,127
39420,note_on,0,0,3,,,,,,,,,0,,,80,0
39420,note_on,0,0,1,,,,,,,,,0,,,80,127
39435,note_on,0,0,1,,,,,,,,,0,,,92,0
39435,note_on,15,0,1,,,,,,,,,0,,,80,0
39480,note_on,45,0,1,,,,,,,,,0,,,102,60
39480,note_on,0,0,3,,,,,,,,,0,,,75,70
39480,control_change,240,0,5,,,,,,,,,0,64,0,,
39480,note_on,60,0,3,,,,,,,,,0,,,80,60
39480,note_on,0,0,1,,,,,,,,,0,,,90,60
39510,note_on,0,0,1,,,,,,,,,0,,,90,60
39510,note_on,0,0,1,,,,,,,,,0,,,102,0
39510,note_on,30,0,1,,,,,,,,,0,,,90,0
39510,note_on,30,0,3,,,,,,,,,0,,,80,0
39510,note_on,0,0,1,,,,,,,,,0,,,102,60
39510,note_on,0,0,3,,,,,,,,,0,,,80,60
39540,note_on,0,0,1,,,,,,,,,0,,,88,60
39540,note_on,0,0,1,,,,,,,,,0,,,100,60
39540,note_on,0,0,3,,,,,,,,,0,,,73,70
39540,note_on,0,0,3,,,,,,,,,0,,,75,0
39540,note_on,0,0,1,,,,,,,,,0,,,102,0
39540,note_on,0,0,3,,,,,,,,,0,,,80,60
39540,note_on,30,0,1,,,,,,,,,0,,,90,0
39540,note_on,30,0,3,,,,,,,,,0,,,80,0
39570,note_on,0,0,1,,,,,,,,,0,,,100,0
39570,note_on,0,0,3,,,,,,,,,0,,,80,60
39570,note_on,30,0,1,,,,,,,,,0,,,88,0
39570,note_on,0,0,1,,,,,,,,,0,,,88,60
39570,note_on,30,0,3,,,,,,,,,0,,,80,0
39570,note_on,0,0,1,,,,,,,,,0,,,100,60
39600,note_on,0,0,1,,,,,,,,,0,,,99,60
39600,note_on,0,0,1,,,,,,,,,0,,,100,0
39600,note_on,30,0,1,,,,,,,,,0,,,88,0
39600,note_on,0,0,1,,,,,,,,,0,,,87,60
39600,note_on,0,0,3,,,,,,,,,0,,,72,70
39600,note_on,30,0,3,,,,,,,,,0,,,80,0
39600,note_on,0,0,3,,,,,,,,,0,,,80,60
39600,note_on,0,0,3,,,,,,,,,0,,,73,0
39630,note_on,0,0,1,,,,,,,,,0,,,87,60
39630,note_on,0,0,3,,,,,,,,,0,,,80,60
39630,note_on,0,0,1,,,,,,,,,0,,,99,0
39630,note_on,0,0,1,,,,,,,,,0,,,99,60
39630,note_on,30,0,3,,,,,,,,,0,,,80,0
39630,note_on,30,0,1,,,,,,,,,0,,,87,0
39660,note_on,0,0,3,,,,,,,,,0,,,72,0
39660,note_on,0,0,3,,,,,,,,,0,,,70,70
39660,note_on,30,0,1,,,,,,,,,0,,,87,0
39660,note_on,0,0,3,,,,,,,,,0,,,80,60
39660,note_on,0,0,1,,,,,,,,,0,,,97,60
39660,note_on,0,0,1,,,,,,,,,0,,,99,0
39660,note_on,0,0,1,,,,,,,,,0,,,85,60
39660,note_on,30,0,3,,,,,,,,,0,,,80,0
39690,note_on,30,0,1,,,,,,,,,0,,,85,0
39690,note_on,30,0,3,,,,,,,,,0,,,80,0
39690,note_on,0,0,3,,,,,,,,,0,,,80,60
39690,note_on,0,0,1,,,,,,,,,0,,,97,60
39690,note_on,0,0,1,,,,,,,,,0,,,97,0
39690,note_on,0,0,1,,,,,,,,,0,,,85,60
39720,note_on,0,0,1,,,,,,,,,0,,,97,0
39720,note_on,0,0,1,,,,,,,,,0,,,99,60
39720,note_on,0,0,3,,,,,,,,,0,,,70,0
39720,note_on,30,0,1,,,,,,,,,0,,,85,0
39720,note_on,30,0,3,,,,,,,,,0,,,80,0
39720,note_on,0,0,3,,,,,,,,,0,,,72,70
39720,note_on,0,0,1,,,,,,,,,0,,,87,60
39720,note_on,0,0,3,,,,,,,,,0,,,80,60
39750,note_on,0,0,1,,,,,,,,,0,,,99,60
39750,note_on,0,0,3,,,,,,,,,0,,,80,60
39750,note_on,0,0,1,,,,,,,,,0,,,87,60
39750,note_on,30,0,1,,,,,,,,,0,,,87,0
39750,note_on,30,0,3,,,,,,,,,0,,,80,0
39750,note_on,0,0,1,,,,,,,,,0,,,99,0
39780,note_on,0,0,1,,,,,,,,,0,,,88,60
39780,note_on,0,0,1,,,,,,,,,0,,,99,0
39780,note_on,0,0,1,,,,,,,,,0,,,100,60
39780,note_on,30,0,3,,,,,,,,,0,,,80,0
39780,note_on,0,0,3,,,,,,,,,0,,,73,70
39780,note_on,0,0,3,,,,,,,,,0,,,72,0
39780,note_on,30,0,1,,,,,,,,,0,,,87,0
39780,note_on,0,0,3,,,,,,,,,0,,,80,60
39840,note_on,60,0,1,,,,,,,,,0,,,88,0
39840,note_on,0,0,3,,,,,,,,,0,,,80,0
39840,note_on,540,0,4,,,,,,,,,0,,,44,60
39840,note_on,0,0,1,,,,,,,,,0,,,100,0
39840,note_on,0,0,4,,,,,,,,,0,,,56,60
39840,note_on,60,0,3,,,,,,,,,0,,,73,0
39870,note_on,0,0,4,,,,,,,,,0,,,44,60
39870,note_on,0,0,4,,,,,,,,,0,,,44,0
39870,note_on,0,0,4,,,,,,,,,0,,,56,60
39870,note_on,30,0,4,,,,,,,,,0,,,56,0
39900,note_on,0,0,4,,,,,,,,,0,,,43,60
39900,note_on,0,0,4,,,,,,,,,0,,,44,0
39900,note_on,0,0,4,,,,,,,,,0,,,55,60
39900,note_on,30,0,4,,,,,,,,,0,,,56,0
39930,note_on,0,0,4,,,,,,,,,0,,,43,0
39930,note_on,0,0,4,,,,,,,,,0,,,43,60
39930,note_on,30,0,4,,,,,,,,,0,,,55,0
39930,note_on,0,0,4,,,,,,,,,0,,,55,60
39960,note_on,0,0,4,,,,,,,,,0,,,43,0
39960,control_change,480,0,5,,,,,,,,,0,64,127,,
39960,note_on,0,0,4,,,,,,,,,0,,,54,60
39960,note_on,30,0,4,,,,,,,,,0,,,55,0
39960,note_on,0,0,4,,,,,,,,,0,,,42,60
39990,note_on,0,0,4,,,,,,,,,0,,,54,69
39990,note_on,0,0,4,,,,,,,,,0,,,54,0
39990,note_on,0,0,4,,,,,,,,,0,,,42,69
39990,note_on,30,0,4,,,,,,,,,0,,,42,0
40020,note_on,30,0,4,,,,,,,,,0,,,42,0
40020,note_on,0,0,1,,,,,,,,,0,,,66,79
40020,note_on,0,0,4,,,,,,,,,0,,,54,0
40020,note_on,180,0,1,,,,,,,,,0,,,54,79
40050,note_on,30,0,1,,,,,,,,,0,,,66,0
40050,note_on,0,0,1,,,,,,,,,0,,,54,0
40050,note_on,0,0,1,,,,,,,,,0,,,54,89
40050,note_on,0,0,1,,,,,,,,,0,,,66,89
40080,note_on,30,0,1,,,,,,,,,0,,,66,0
40080,note_on,0,0,1,,,,,,,,,0,,,54,0
40080,note_on,240,0,3,,,,,,,,,0,,,66,99
40080,note_on,0,0,3,,,,,,,,,0,,,78,99
40110,note_on,30,0,3,,,,,,,,,0,,,78,0
40110,note_on,0,0,3,,,,,,,,,0,,,78,109
40110,note_on,0,0,3,,,,,,,,,0,,,66,0
40110,note_on,0,0,3,,,,,,,,,0,,,66,109
40140,note_on,30,0,3,,,,,,,,,0,,,78,0
40140,note_on,60,0,1,,,,,,,,,0,,,90,110
40140,note_on,0,0,3,,,,,,,,,0,,,66,0
40140,note_on,0,0,1,,,,,,,,,0,,,78,110
40155,note_on,0,0,1,,,,,,,,,0,,,90,0
40155,note_on,15,0,1,,,,,,,,,0,,,78,0
40200,note_on,45,0,1,,,,,,,,,0,,,100,60
40200,note_on,60,0,3,,,,,,,,,0,,,78,60
40200,control_change,240,0,5,,,,,,,,,0,64,0,,
40200,note_on,0,0,1,,,,,,,,,0,,,88,60
40200,note_on,0,0,3,,,,,,,,,0,,,73,70
40230,note_on,0,0,1,,,,,,,,,0,,,88,60
40230,note_on,30,0,1,,,,,,,,,0,,,88,0
40230,note_on,0,0,1,,,,,,,,,0,,,100,0
40230,note_on,0,0,1,,,,,,,,,0,,,100,60
40230,note_on,30,0,3,,,,,,,,,0,,,78,0
40230,note_on,0,0,3,,,,,,,,,0,,,78,60
40260,note_on,0,0,3,,,,,,,,,0,,,78,60
40260,note_on,30,0,3,,,,,,,,,0,,,78,0
40260,note_on,0,0,1,,,,,,,,,0,,,99,60
40260,note_on,0,0,3,,,,,,,,,0,,,71,70
40260,note_on,0,0,1,,,,,,,,,0,,,100,0
40260,note_on,30,0,1,,,,,,,,,0,,,88,0
40260,note_on,0,0,1,,,,,,,,,0,,,87,60
40260,note_on,0,0,3,,,,,,,,,0,,,73,0
40290,note_on,0,0,3,,,,,,,,,0,,,78,60
40290,note_on,30,0,1,,,,,,,,,0,,,87,0
40290,note_on,30,0,3,,,,,,,,,0,,,78,0
40290,note_on,0,0,1,,,,,,,,,0,,,99,60
40290,note_on,0,0,1,,,,,,,,,0,,,99,0
40290,note_on,0,0,1,,,,,,,,,0,,,87,60
40320,note_on,30,0,3,,,,,,,,,0,,,78,0
40320,note_on,30,0,1,,,,,,,,,0,,,87,0
40320,note_on,0,0,1,,,,,,,,,0,,,99,0
40320,note_on,0,0,1,,,,,,,,,0,,,97,60
40320,note_on,0,0,1,,,,,,,,,0,,,85,60
40320,note_on,0,0,3,,,,,,,,,0,,,70,70
40320,note_on,0,0,3,,,,,,,,,0,,,71,0
40320,note_on,0,0,3,,,,,,,,,0,,,78,60
40350,note_on,0,0,1,,,,,,,,,0,,,97,0
40350,note_on,0,0,1,,,,,,,,,0,,,85,60
40350,note_on,30,0,3,,,,,,,,,0,,,78,0
40350,note_on,0,0,1,,,,,,,,,0,,,97,60
40350,note_on,0,0,3,,,,,,,,,0,,,78,60
40350,note_on,30,0,1,,,,,,,,,0,,,85,0
40380,note_on,0,0,3,,,,,,,,,0,,,70,0
40380,note_on,30,0,1,,,,,,,,,0,,,85,0
40380,note_on,0,0,3,,,,,,,,,0,,,68,70
40380,note_on,0,0,1,,,,,,,,,0,,,83,60
40380,note_on,0,0,1,,,,,,,,,0,,,95,60
40380,note_on,0,0,1,,,,,,,,,0,,,97,0
40380,note_on,30,0,3,,,,,,,,,0,,,78,0
40380,note_on,0,0,3,,,,,,,,,0,,,78,60
40410,note_on,0,0,1,,,,,,,,,0,,,95,60
40410,note_on,0,0,1,,,,,,,,,0,,,95,0
40410,note_on,0,0,3,,,,,,,,,0,,,78,60
40410,note_on,30,0,1,,,,,,,,,0,,,83,0
40410,note_on,30,0,3,,,,,,,,,0,,,78,0
40410,note_on,0,0,1,,,,,,,,,0,,,83,60
40440,note_on,30,0,3,,,,,,,,,0,,,78,0
40440,note_on,30,0,1,,,,,,,,,0,,,83,0
40440,note_on,0,0,1,,,,,,,,,0,,,97,60
40440,note_on,0,0,3,,,,,,,,,0,,,78,60
40440,note_on,0,0,1,,,,,,,,,0,,,85,60
40440,note_on,0,0,1,,,,,,,,,0,,,95,0
40440,note_on,0,0,3,,,,,,,,,0,,,68,0
40440,note_on,0,0,3,,,,,,,,,0,,,70,70
40470,note_on,0,0,1,,,,,,,,,0,,,85,60
40470,note_on,30,0,1,,,,,,,,,0,,,85,0
40470,note_on,30,0,3,,,,,,,,,0,,,78,0
40470,note_on,0,0,1,,,,,,,,,0,,,97,0
40470,note_on,0,0,1,,,,,,,,,0,,,97,60
40470,note_on,0,0,3,,,,,,,,,0,,,78,60
40500,note_on,30,0,1,,,,,,,,,0,,,85,0
40500,note_on,0,0,3,,,,,,,,,0,,,78,60
40500,note_on,0,0,1,,,,,,,,,0,,,87,60
40500,note_on,0,0,3,,,,,,,,,0,,,71,70
40500,note_on,30,0,3,,,,,,,,,0,,,78,0
40500,note_on,0,0,1,,,,,,,,,0,,,99,60
40500,note_on,0,0,1,,,,,,,,,0,,,97,0
40500,note_on,0,0,3,,,,,,,,,0,,,70,0
40560,note_on,0,0,1,,,,,,,,,0,,,99,0
40560,note_on,0,0,3,,,,,,,,,0,,,78,0
40560,note_on,540,0,4,,,,,,,,,0,,,41,60
40560,note_on,0,0,4,,,,,,,,,0,,,53,60
40560,note_on,60,0,3,,,,,,,,,0,,,71,0
40560,note_on,60,0,1,,,,,,,,,0,,,87,0
40590,note_on,0,0,4,,,,,,,,,0,,,41,60
40590,note_on,30,0,4,,,,,,,,,0,,,53,0
40590,note_on,0,0,4,,,,,,,,,0,,,41,0
40590,note_on,0,0,4,,,,,,,,,0,,,53,60
40620,note_on,0,0,4,,,,,,,,,0,,,40,60
40620,note_on,0,0,4,,,,,,,,,0,,,41,0
40620,note_on,30,0,4,,,,,,,,,0,,,53,0
40620,note_on,0,0,4,,,,,,,,,0,,,52,60
40650,note_on,0,0,4,,,,,,,,,0,,,40,60
40650,note_on,0,0,4,,,,,,,,,0,,,52,60
40650,note_on,0,0,4,,,,,,,,,0,,,40,0
40650,note_on,30,0,4,,,,,,,,,0,,,52,0
40680,note_on,0,0,4,,,,,,,,,0,,,51,60
40680,note_on,30,0,4,,,,,,,,,0,,,52,0
40680,control_change,480,0,5,,,,,,,,,0,64,127,,
40680,note_on,0,0,4,,,,,,,,,0,,,40,0
40680,note_on,0,0,4,,,,,,,,,0,,,39,60
40710,note_on,0,0,4,,,,,,,,,0,,,51,69
40710,note_on,0,0,4,,,,,,,,,0,,,51,0
40710,note_on,0,0,4,,,,,,,,,0,,,39,69
40710,note_on,30,0,4,,,,,,,,,0,,,39,0
40740,note_on,30,0,4,,,,,,,,,0,,,39,0
40740,note_on,0,0,2,,,,,,,,,0,,,63,79
40740,note_on,0,0,4,,,,,,,,,0,,,51,0
40740,note_on,40740,0,2,,,,,,,,,0,,,51,79
40770,note_on,0,0,2,,,,,,,,,0,,,63,89
40770,note_on,0,0,2,,,,,,,,,0,,,51,0
40770,note_on,0,0,2,,,,,,,,,0,,,51,89
40770,note_on,30,0,2,,,,,,,,,0,,,63,0
40800,note_on,0,0,3,,,,,,,,,0,,,75,99
40800,note_on,30,0,2,,,,,,,,,0,,,63,0
40800,note_on,240,0,3,,,,,,,,,0,,,63,99
40800,note_on,0,0,2,,,,,,,,,0,,,51,0
40830,note_on,30,0,3,,,,,,,,,0,,,75,0
40830,note_on,0,0,3,,,,,,,,,0,,,75,109
40830,note_on,0,0,3,,,,,,,,,0,,,63,109
40830,note_on,0,0,3,,,,,,,,,0,,,63,0
40860,note_on,0,0,1,,,,,,,,,0,,,75,127
40860,note_on,300,0,1,,,,,,,,,0,,,87,127
40860,note_on,0,0,3,,,,,,,,,0,,,63,0
40860,note_on,30,0,3,,,,,,,,,0,,,75,0
40875,note_on,0,0,1,,,,,,,,,0,,,87,0
40875,note_on,15,0,1,,,,,,,,,0,,,75,0
40920,note_on,0,0,3,,,,,,,,,0,,,67,110
40920,note_on,0,0,1,,,,,,,,,0,,,75,110
40920,control_change,240,0,5,,,,,,,,,0,64,0,,
40920,note_on,45,0,1,,,,,,,,,0,,,87,110
40920,note_on,60,0,3,,,,,,,,,0,,,63,110
40950,note_on,30,0,1,,,,,,,,,0,,,75,0
40950,note_on,0,0,1,,,,,,,,,0,,,87,110
40950,note_on,0,0,1,,,,,,,,,0,,,87,0
40950,note_on,0,0,1,,,,,,,,,0,,,75,110
40950,note_on,0,0,3,,,,,,,,,0,,,63,110
40950,note_on,30,0,3,,,,,,,,,0,,,67,0
40950,note_on,0,0,3,,,,,,,,,0,,,67,110
40950,note_on,0,0,3,,,,,,,,,0,,,63,0
40980,note_on,0,0,3,,,,,,,,,0,,,65,110
40980,note_on,0,0,3,,,,,,,,,0,,,67,0
40980,note_on,0,0,3,,,,,,,,,0,,,68,110
40980,note_on,30,0,1,,,,,,,,,0,,,75,0
40980,note_on,0,0,1,,,,,,,,,0,,,75,110
40980,note_on,0,0,1,,,,,,,,,0,,,87,0
40980,note_on,0,0,1,,,,,,,,,0,,,87,110
40980,note_on,30,0,3,,,,,,,,,0,,,63,0
41010,note_on,0,0,3,,,,,,,,,0,,,68,110
41010,note_on,0,0,1,,,,,,,,,0,,,75,110
41010,note_on,30,0,1,,,,,,,,,0,,,75,0
41010,note_on,0,0,1,,,,,,,,,0,,,87,0
41010,note_on,30,0,3,,,,,,,,,0,,,65,0
41010,note_on,0,0,3,,,,,,,,,0,,,68,0
41010,note_on,0,0,3,,,,,,,,,0,,,65,110
41010,note_on,0,0,1,,,,,,,,,0,,,87,110
41040,note_on,30,0,1,,,,,,,,,0,,,75,0
41040,note_on,0,0,1,,,,,,,,,0,,,76,110
41040,note_on,0,0,3,,,,,,,,,0,,,69,110
41040,note_on,0,0,3,,,,,,,,,0,,,68,0
41040,note_on,0,0,3,,,,,,,,,0,,,66,110
41040,note_on,0,0,1,,,,,,,,,0,,,87,0
41040,note_on,0,0,1,,,,,,,,,0,,,88,110
41040,note_on,30,0,3,,,,,,,,,0,,,65,0
41070,note_on,0,0,1,,,,,,,,,0,,,87,110
41070,note_on,0,0,3,,,,,,,,,0,,,69,0
41070,note_on,0,0,1,,,,,,,,,0,,,75,110
41070,note_on,30,0,3,,,,,,,,,0,,,66,0
41070,note_on,30,0,1,,,,,,,,,0,,,76,0
41070,note_on,0,0,3,,,,,,,,,0,,,69,110
41070,note_on,0,0,3,,,,,,,,,0,,,66,110
41070,note_on,0,0,1,,,,,,,,,0,,,88,0
41100,note_on,0,0,1,,,,,,,,,0,,,87,0
41100,note_on,0,0,3,,,,,,,,,0,,,64,110
41100,note_on,30,0,3,,,,,,,,,0,,,66,0
41100,note_on,30,0,1,,,,,,,,,0,,,75,0
41100,note_on,0,0,1,,,,,,,,,0,,,85,110
41100,note_on,0,0,3,,,,,,,,,0,,,67,110
41100,note_on,0,0,1,,,,,,,,,0,,,73,110
41100,note_on,0,0,3,,,,,,,,,0,,,69,0
41130,note_on,0,0,1,,,,,,,,,0,,,83,110
41130,note_on,0,0,1,,,,,,,,,0,,,85,0
41130,note_on,0,0,3,,,,,,,,,0,,,64,0
41130,note_on,0,0,3,,,,,,,,,0,,,64,110
41130,note_on,0,0,1,,,,,,,,,0,,,71,110
41130,note_on,0,0,3,,,,,,,,,0,,,67,110
41130,note_on,30,0,1,,,,,,,,,0,,,73,0
41130,note_on,30,0,3,,,,,,,,,0,,,67,0
41160,note_on,30,0,3,,,,,,,,,0,,,67,0
41160,note_on,0,0,3,,,,,,,,,0,,,62,110
41160,note_on,0,0,3,,,,,,,,,0,,,64,0
41160,note_on,0,0,3,,,,,,,,,0,,,65,110
41160,note_on,0,0,1,,,,,,,,,0,,,70,110
41160,note_on,30,0,1,,,,,,,,,0,,,71,0
41160,note_on,0,0,1,,,,,,,,,0,,,82,110
41160,note_on,0,0,1,,,,,,,,,0,,,83,0
41190,note_on,0,0,3,,,,,,,,,0,,,65,110
41190,note_on,0,0,3,,,,,,,,,0,,,62,110
41190,note_on,0,0,1,,,,,,,,,0,,,80,110
41190,note_on,0,0,1,,,,,,,,,0,,,82,0
41190,note_on,0,0,1,,,,,,,,,0,,,68,110
41190,note_on,30,0,1,,,,,,,,,0,,,70,0
41190,note_on,0,0,3,,,,,,,,,0,,,62,0
41190,note_on,30,0,3,,,,,,,,,0,,,65,0
41220,note_on,0,0,1,,,,,,,,,0,,,79,110
41220,note_on,0,0,1,,,,,,,,,0,,,67,110
41220,note_on,0,0,3,,,,,,,,,0,,,65,0
41220,note_on,30,0,1,,,,,,,,,0,,,68,0
41220,note_on,0,0,3,,,,,,,,,0,,,63,110
41220,note_on,30,0,3,,,,,,,,,0,,,62,0
41220,note_on,0,0,1,,,,,,,,,0,,,80,0
41280,note_on,0,0,4,,,,,,,,,0,,,34,110
41280,note_on,60,0,1,,,,,,,,,0,,,67,0
41280,note_on,60,0,3,,,,,,,,,0,,,63,0
41280,note_on,540,0,4,,,,,,,,,0,,,46,110
41280,note_on,0,0,1,,,,,,,,,0,,,79,0
41310,note_on,30,0,4,,,,,,,,,0,,,34,0
41310,note_on,0,0,4,,,,,,,,,0,,,34,110
41310,note_on,0,0,4,,,,,,,,,0,,,46,0
41310,note_on,0,0,4,,,,,,,,,0,,,46,110
41340,note_on,0,0,4,,,,,,,,,0,,,38,110
41340,note_on,0,0,4,,,,,,,,,0,,,46,0
41340,note_on,0,0,4,,,,,,,,,0,,,50,110
41340,note_on,30,0,4,,,,,,,,,0,,,34,0
41370,note_on,30,0,4,,,,,,,,,0,,,38,0
41370,note_on,0,0,4,,,,,,,,,0,,,50,110
41370,note_on,0,0,4,,,,,,,,,0,,,38,110
41370,note_on,0,0,4,,,,,,,,,0,,,50,0
41400,note_on,0,0,4,,,,,,,,,0,,,51,60
41400,control_change,480,0,5,,,,,,,,,0,64,127,,
41400,note_on,0,0,4,,,,,,,,,0,,,50,0
41400,note_on,0,0,4,,,,,,,,,0,,,39,60
41400,note_on,30,0,4,,,,,,,,,0,,,38,0
41430,note_on,0,0,4,,,,,,,,,0,,,51,0
41430,note_on,30,0,4,,,,,,,,,0,,,39,0
41430,note_on,0,0,4,,,,,,,,,0,,,51,69
41430,note_on,0,0,4,,,,,,,,,0,,,39,69
41460,note_on,0,0,4,,,,,,,,,0,,,51,0
41460,note_on,660,0,2,,,,,,,,,0,,,63,79
41460,note_on,30,0,4,,,,,,,,,0,,,39,0
41460,note_on,0,0,2,,,,,,,,,0,,,51,79
41490,note_on,30,0,2,,,,,,,,,0,,,51,0
41490,note_on,0,0,2,,,,,,,,,0,,,63,89
41490,note_on,0,0,2,,,,,,,,,0,,,63,0
41490,note_on,0,0,2,,,,,,,,,0,,,51,89
41520,note_on,240,0,3,,,,,,,,,0,,,75,99
41520,note_on,30,0,2,,,,,,,,,0,,,51,0
41520,note_on,0,0,2,,,,,,,,,0,,,63,0
41520,end_of_track,0,1,2,,,,,,,,,,,,,
41520,note_on,0,0,3,,,,,,,,,0,,,63,99
41550,note_on,0,0,3,,,,,,,,,0,,,75,0
41550,note_on,0,0,3,,,,,,,,,0,,,75,109
41550,note_on,30,0,3,,,,,,,,,0,,,63,0
41550,note_on,0,0,3,,,,,,,,,0,,,63,109
41580,note_on,0,0,3,,,,,,,,,0,,,75,0
41580,note_on,300,0,1,,,,,,,,,0,,,87,127
41580,note_on,30,0,3,,,,,,,,,0,,,63,0
41580,note_on,0,0,1,,,,,,,,,0,,,75,127
41595,note_on,15,0,1,,,,,,,,,0,,,75,0
41595,note_on,0,0,1,,,,,,,,,0,,,87,0
41640,note_on,60,0,3,,,,,,,,,0,,,75,110
41640,note_on,0,0,3,,,,,,,,,0,,,67,110
41640,control_change,240,0,5,,,,,,,,,0,64,0,,
41640,note_on,45,0,1,,,,,,,,,0,,,99,110
41640,note_on,0,0,1,,,,,,,,,0,,,87,110
41670,note_on,30,0,1,,,,,,,,,0,,,87,0
41670,note_on,0,0,1,,,,,,,,,0,,,99,0
41670,note_on,0,0,1,,,,,,,,,0,,,99,110
41670,note_on,0,0,3,,,,,,,,,0,,,75,110
41670,note_on,0,0,3,,,,,,,,,0,,,75,0
41670,note_on,0,0,3,,,,,,,,,0,,,67,110
41670,note_on,0,0,1,,,,,,,,,0,,,87,110
41670,note_on,30,0,3,,,,,,,,,0,,,67,0
41700,note_on,0,0,1,,,,,,,,,0,,,87,110
41700,note_on,0,0,1,,,,,,,,,0,,,99,110
41700,note_on,0,0,3,,,,,,,,,0,,,77,110
41700,note_on,30,0,1,,,,,,,,,0,,,87,0
41700,note_on,0,0,3,,,,,,,,,0,,,75,0
41700,note_on,0,0,3,,,,,,,,,0,,,68,110
41700,note_on,30,0,3,,,,,,,,,0,,,67,0
41700,note_on,0,0,1,,,,,,,,,0,,,99,0
41730,note_on,30,0,1,,,,,,,,,0,,,87,0
41730,note_on,0,0,3,,,,,,,,,0,,,68,110
41730,note_on,0,0,3,,,,,,,,,0,,,77,0
41730,note_on,30,0,3,,,,,,,,,0,,,68,0
41730,note_on,0,0,3,,,,,,,,,0,,,77,110
41730,note_on,0,0,1,,,,,,,,,0,,,99,110
41730,note_on,0,0,1,,,,,,,,,0,,,99,0
41730,note_on,0,0,1,,,,,,,,,0,,,87,110
41760,note_on,0,0,1,,,,,,,,,0,,,100,110
41760,note_on,0,0,1,,,,,,,,,0,,,99,0
41760,note_on,30,0,1,,,,,,,,,0,,,87,0
41760,note_on,0,0,1,,,,,,,,,0,,,88,110
41760,note_on,0,0,3,,,,,,,,,0,,,77,0
41760,note_on,0,0,3,,,,,,,,,0,,,69,110
41760,note_on,30,0,3,,,,,,,,,0,,,68,0
41760,note_on,0,0,3,,,,,,,,,0,,,78,110
41790,note_on,30,0,3,,,,,,,,,0,,,69,0
41790,note_on,0,0,3,,,,,,,,,0,,,78,0
41790,note_on,0,0,1,,,,,,,,,0,,,87,110
41790,note_on,0,0,1,,,,,,,,,0,,,99,110
41790,note_on,0,0,1,,,,,,,,,0,,,100,0
41790,note_on,30,0,1,,,,,,,,,0,,,88,0
41790,note_on,0,0,3,,,,,,,,,0,,,69,110
41790,note_on,0,0,3,,,,,,,,,0,,,78,110
41820,note_on,0,0,3,,,,,,,,,0,,,79,110
41820,note_on,0,0,3,,,,,,,,,0,,,78,0
41820,note_on,0,0,1,,,,,,,,,0,,,99,0
41820,note_on,0,0,1,,,,,,,,,0,,,97,110
41820,note_on,0,0,3,,,,,,,,,0,,,70,110
41820,note_on,30,0,1,,,,,,,,,0,,,87,0
41820,note_on,30,0,3,,,,,,,,,0,,,69,0
41820,note_on,0,0,1,,,,,,,,,0,,,85,110
41850,note_on,0,0,1,,,,,,,,,0,,,83,110
41850,note_on,0,0,1,,,,,,,,,0,,,97,0
41850,note_on,0,0,3,,,,,,,,,0,,,70,110
41850,note_on,0,0,3,,,,,,,,,0,,,79,0
41850,note_on,0,0,3,,,,,,,,,0,,,79,110
41850,note_on,30,0,1,,,,,,,,,0,,,85,0
41850,note_on,0,0,1,,,,,,,,,0,,,95,110
41850,note_on,30,0,3,,,,,,,,,0,,,70,0
41880,note_on,0,0,3,,,,,,,,,0,,,79,0
41880,note_on,30,0,3,,,,,,,,,0,,,70,0
41880,note_on,0,0,1,,,,,,,,,0,,,95,0
41880,note_on,0,0,3,,,,,,,,,0,,,74,110
41880,note_on,0,0,1,,,,,,,,,0,,,82,110
41880,note_on,0,0,1,,,,,,,,,0,,,94,110
41880,note_on,0,0,3,,,,,,,,,0,,,77,110
41880,note_on,30,0,1,,,,,,,,,0,,,83,0
41910,note_on,0,0,3,,,,,,,,,0,,,77,0
41910,note_on,0,0,3,,,,,,,,,0,,,77,110
41910,note_on,0,0,1,,,,,,,,,0,,,80,110
41910,note_on,0,0,3,,,,,,,,,0,,,74,110
41910,note_on,30,0,3,,,,,,,,,0,,,74,0
41910,note_on,0,0,1,,,,,,,,,0,,,92,110
41910,note_on,0,0,1,,,,,,,,,0,,,94,0
41910,note_on,30,0,1,,,,,,,,,0,,,82,0
41940,note_on,0,0,3,,,,,,,,,0,,,77,0
41940,note_on,0,0,3,,,,,,,,,0,,,75,110
41940,note_on,0,0,3,,,,,,,,,0,,,70,110
41940,note_on,30,0,3,,,,,,,,,0,,,74,0
41940,note_on,0,0,1,,,,,,,,,0,,,92,0
41940,note_on,0,0,1,,,,,,,,,0,,,79,110
41940,note_on,0,0,1,,,,,,,,,0,,,91,110
41940,note_on,30,0,1,,,,,,,,,0,,,80,0
41940,set_tempo,5580,1,0,,,,,,623118,,,,,,,
41957,set_tempo,17,1,0,,,,,,621182,,,,,,,
41970,note_on,0,0,1,,,,,,,,,0,,,91,0
41970,note_on,0,0,1,,,,,,,,,0,,,90,110
41970,note_on,0,0,1,,,,,,,,,0,,,78,110
41970,note_on,0,0,3,,,,,,,,,0,,,75,0
41970,note_on,0,0,3,,,,,,,,,0,,,75,110
41970,note_on,30,0,3,,,,,,,,,0,,,70,0
41970,note_on,0,0,3,,,,,,,,,0,,,70,110
41970,set_tempo,13,1,0,,,,,,619259,,,,,,,
41970,note_on,30,0,1,,,,,,,,,0,,,79,0
41982,set_tempo,12,1,0,,,,,,617347,,,,,,,
41995,set_tempo,13,1,0,,,,,,615448,,,,,,,
42000,note_on,30,0,3,,,,,,,,,0,,,70,0
42000,note_on,0,0,3,,,,,,,,,0,,,75,0
42000,note_on,0,0,3,,,,,,,,,0,,,68,110
42000,note_on,0,0,1,,,,,,,,,0,,,90,0
42000,note_on,0,0,3,,,,,,,,,0,,,71,110
42000,note_on,0,0,1,,,,,,,,,0,,,77,110
42000,note_on,30,0,1,,,,,,,,,0,,,78,0
42000,note_on,0,0,1,,,,,,,,,0,,,89,110
42008,set_tempo,13,1,0,,,,,,613560,,,,,,,
42025,set_tempo,17,1,0,,,,,,611683,,,,,,,
42030,note_on,0,0,1,,,,,,,,,0,,,76,110
42030,note_on,30,0,1,,,,,,,,,0,,,77,0
42030,note_on,30,0,3,,,,,,,,,0,,,68,0
42030,note_on,0,0,1,,,,,,,,,0,,,89,0
42030,note_on,0,0,1,,,,,,,,,0,,,88,110
42030,note_on,0,0,3,,,,,,,,,0,,,68,110
42030,note_on,0,0,3,,,,,,,,,0,,,71,0
42030,note_on,0,0,3,,,,,,,,,0,,,71,110
42038,set_tempo,13,1,0,,,,,,609818,,,,,,,
42051,set_tempo,13,1,0,,,,,,607964,,,,,,,
42060,note_on,0,0,1,,,,,,,,,0,,,74,110
42060,note_on,0,0,1,,,,,,,,,0,,,86,110
42060,note_on,0,0,1,,,,,,,,,0,,,88,0
42060,note_on,0,0,3,,,,,,,,,0,,,66,110
42060,note_on,0,0,3,,,,,,,,,0,,,69,110
42060,note_on,0,0,3,,,,,,,,,0,,,71,0
42060,note_on,30,0,1,,,,,,,,,0,,,76,0
42060,note_on,30,0,3,,,,,,,,,0,,,68,0
42064,set_tempo,13,1,0,,,,,,606122,,,,,,,
42077,set_tempo,13,1,0,,,,,,604290,,,,,,,
42090,note_on,0,0,3,,,,,,,,,0,,,66,110
42090,note_on,0,0,1,,,,,,,,,0,,,75,110
42090,set_tempo,13,1,0,,,,,,602470,,,,,,,
42090,note_on,0,0,1,,,,,,,,,0,,,86,0
42090,note_on,30,0,3,,,,,,,,,0,,,66,0
42090,note_on,0,0,1,,,,,,,,,0,,,87,110
42090,note_on,0,0,3,,,,,,,,,0,,,69,110
42090,note_on,30,0,1,,,,,,,,,0,,,74,0
42090,note_on,0,0,3,,,,,,,,,0,,,69,0
42107,set_tempo,17,1,0,,,,,,600661,,,,,,,
42120,set_tempo,13,1,0,,,,,,598862,,,,,,,
42120,note_on,0,0,3,,,,,,,,,0,,,70,110
42120,note_on,0,0,3,,,,,,,,,0,,,69,0
42120,note_on,30,0,1,,,,,,,,,0,,,75,0
42120,note_on,0,0,3,,,,,,,,,0,,,67,110
42120,note_on,30,0,3,,,,,,,,,0,,,66,0
42120,note_on,0,0,1,,,,,,,,,0,,,87,0
42120,note_on,0,0,1,,,,,,,,,0,,,88,110
42120,note_on,0,0,1,,,,,,,,,0,,,76,110
42132,set_tempo,12,1,0,,,,,,597074,,,,,,,
42145,set_tempo,13,1,0,,,,,,595297,,,,,,,
42150,note_on,0,0,3,,,,,,,,,0,,,70,110
42150,note_on,0,0,3,,,,,,,,,0,,,70,0
42150,note_on,0,0,1,,,,,,,,,0,,,88,0
42150,note_on,0,0,1,,,,,,,,,0,,,87,110
42150,note_on,30,0,3,,,,,,,,,0,,,67,0
42150,note_on,0,0,1,,,,,,,,,0,,,75,110
42150,note_on,0,0,3,,,,,,,,,0,,,67,110
42150,note_on,30,0,1,,,,,,,,,0,,,76,0
42158,set_tempo,13,1,0,,,,,,593531,,,,,,,
42175,set_tempo,17,1,0,,,,,,591774,,,,,,,
42180,note_on,30,0,3,,,,,,,,,0,,,67,0
42180,note_on,0,0,1,,,,,,,,,0,,,73,110
42180,note_on,30,0,1,,,,,,,,,0,,,75,0
42180,note_on,0,0,3,,,,,,,,,0,,,70,0
42180,note_on,0,0,1,,,,,,,,,0,,,85,110
42180,note_on,0,0,3,,,,,,,,,0,,,67,110
42180,note_on,0,0,3,,,,,,,,,0,,,64,110
42180,note_on,0,0,1,,,,,,,,,0,,,87,0
42188,set_tempo,13,1,0,,,,,,590029,,,,,,,
42201,set_tempo,13,1,0,,,,,,588293,,,,,,,
42210,note_on,30,0,1,,,,,,,,,0,,,73,0
42210,note_on,0,0,1,,,,,,,,,0,,,85,0
42210,note_on,0,0,3,,,,,,,,,0,,,67,0
42210,note_on,0,0,1,,,,,,,,,0,,,71,110
42210,note_on,0,0,1,,,,,,,,,0,,,83,110
42210,note_on,0,0,3,,,,,,,,,0,,,64,110
42210,note_on,30,0,3,,,,,,,,,0,,,64,0
42210,note_on,0,0,3,,,,,,,,,0,,,67,110
42214,set_tempo,13,1,0,,,,,,586568,,,,,,,
42227,set_tempo,13,1,0,,,,,,584852,,,,,,,
42240,note_on,0,0,1,,,,,,,,,0,,,83,0
42240,note_on,30,0,1,,,,,,,,,0,,,71,0
42240,note_on,0,0,3,,,,,,,,,0,,,62,110
42240,set_tempo,13,1,0,,,,,,583147,,,,,,,
42240,note_on,30,0,3,,,,,,,,,0,,,64,0
42240,note_on,0,0,1,,,,,,,,,0,,,82,110
42240,note_on,0,0,1,,,,,,,,,0,,,70,110
42240,note_on,0,0,3,,,,,,,,,0,,,65,110
42240,note_on,0,0,3,,,,,,,,,0,,,67,0
42257,set_tempo,17,1,0,,,,,,581452,,,,,,,
42270,set_tempo,13,1,0,,,,,,579766,,,,,,,
42270,note_on,30,0,3,,,,,,,,,0,,,62,0
42270,note_on,0,0,3,,,,,,,,,0,,,62,110
42270,note_on,0,0,3,,,,,,,,,0,,,65,110
42270,note_on,0,0,3,,,,,,,,,0,,,65,0
42270,note_on,0,0,1,,,,,,,,,0,,,80,110
42270,note_on,0,0,1,,,,,,,,,0,,,82,0
42270,note_on,0,0,1,,,,,,,,,0,,,68,110
42270,note_on,30,0,1,,,,,,,,,0,,,70,0
42282,set_tempo,12,1,0,,,,,,578090,,,,,,,
42295,set_tempo,13,1,0,,,,,,576424,,,,,,,
42300,note_on,0,0,1,,,,,,,,,0,,,79,110
42300,note_on,0,0,1,,,,,,,,,0,,,67,110
42300,note_on,30,0,3,,,,,,,,,0,,,62,0
42300,note_on,840,0,4,,,,,,,,,0,,,58,110
42300,note_on,0,0,3,,,,,,,,,0,,,65,0
42300,note_on,0,0,4,,,,,,,,,0,,,63,110
42300,note_on,30,0,1,,,,,,,,,0,,,68,0
42300,note_on,0,0,1,,,,,,,,,0,,,80,0
42308,set_tempo,13,1,0,,,,,,574768,,,,,,,
42321,set_tempo,13,1,0,,,,,,573121,,,,,,,
42330,note_on,30,0,1,,,,,,,,,0,,,79,0
42330,note_on,0,0,4,,,,,,,,,0,,,63,110
42330,note_on,0,0,4,,,,,,,,,0,,,58,110
42330,note_on,0,0,4,,,,,,,,,0,,,58,0
42330,note_on,30,0,4,,,,,,,,,0,,,63,0
42330,note_on,0,0,1,,,,,,,,,0,,,67,0
42330,note_on,0,0,1,,,,,,,,,0,,,78,110
42330,note_on,0,0,1,,,,,,,,,0,,,66,110
42338,set_tempo,17,1,0,,,,,,571483,,,,,,,
42351,set_tempo,13,1,0,,,,,,569855,,,,,,,
42360,note_on,30,0,4,,,,,,,,,0,,,63,0
42360,note_on,0,0,1,,,,,,,,,0,,,65,110
42360,note_on,0,0,1,,,,,,,,,0,,,66,0
42360,note_on,0,0,1,,,,,,,,,0,,,77,110
42360,note_on,0,0,4,,,,,,,,,0,,,58,0
42360,note_on,30,0,1,,,,,,,,,0,,,78,0
42360,note_on,0,0,4,,,,,,,,,0,,,56,110
42360,note_on,0,0,4,,,,,,,,,0,,,59,110
42364,set_tempo,13,1,0,,,,,,568236,,,,,,,
42377,set_tempo,13,1,0,,,,,,566626,,,,,,,
42390,note_on,0,0,4,,,,,,,,,0,,,56,111
42390,note_on,0,0,4,,,,,,,,,0,,,59,0
42390,set_tempo,13,1,0,,,,,,565025,,,,,,,
42390,note_on,30,0,1,,,,,,,,,0,,,77,0
42390,note_on,0,0,4,,,,,,,,,0,,,59,111
42390,note_on,0,0,1,,,,,,,,,0,,,64,111
42390,note_on,30,0,4,,,,,,,,,0,,,56,0
42390,note_on,0,0,1,,,,,,,,,0,,,76,111
42390,note_on,0,0,1,,,,,,,,,0,,,65,0
42407,set_tempo,17,1,0,,,,,,563433,,,,,,,
42420,note_on,0,0,1,,,,,,,,,0,,,74,111
42420,note_on,0,0,4,,,,,,,,,0,,,54,111
42420,note_on,30,0,1,,,,,,,,,0,,,76,0
42420,set_tempo,13,1,0,,,,,,561850,,,,,,,
42420,note_on,0,0,4,,,,,,,,,0,,,57,111
42420,note_on,0,0,1,,,,,,,,,0,,,62,111
42420,note_on,0,0,1,,,,,,,,,0,,,64,0
42420,note_on,30,0,4,,,,,,,,,0,,,56,0
42420,note_on,0,0,4,,,,,,,,,0,,,59,0
42432,set_tempo,12,1,0,,,,,,560276,,,,,,,
42445,set_tempo,13,1,0,,,,,,558711,,,,,,,
42450,note_on,30,0,4,,,,,,,,,0,,,54,0
42450,note_on,30,0,1,,,,,,,,,0,,,74,0
42450,note_on,0,0,1,,,,,,,,,0,,,75,111
42450,note_on,0,0,1,,,,,,,,,0,,,63,111
42450,note_on,0,0,1,,,,,,,,,0,,,62,0
42450,note_on,0,0,4,,,,,,,,,0,,,57,0
42450,note_on,0,0,4,,,,,,,,,0,,,54,111
42450,note_on,0,0,4,,,,,,,,,0,,,57,111
42458,set_tempo,13,1,0,,,,,,557155,,,,,,,
42471,set_tempo,13,1,0,,,,,,555607,,,,,,,
42480,note_on,0,0,4,,,,,,,,,0,,,55,111
42480,note_on,0,0,4,,,,,,,,,0,,,57,0
42480,note_on,0,0,4,,,,,,,,,0,,,58,111
42480,note_on,30,0,1,,,,,,,,,0,,,75,0
42480,note_on,30,0,4,,,,,,,,,0,,,54,0
42480,note_on,0,0,1,,,,,,,,,0,,,63,0
42480,note_on,0,0,1,,,,,,,,,0,,,76,111
42480,note_on,0,0,1,,,,,,,,,0,,,64,111
42488,set_tempo,17,1,0,,,,,,554068,,,,,,,
42501,set_tempo,13,1,0,,,,,,552537,,,,,,,
42510,note_on,30,0,4,,,,,,,,,0,,,55,0
42510,note_on,0,0,1,,,,,,,,,0,,,75,111
42510,note_on,0,0,1,,,,,,,,,0,,,64,0
42510,note_on,30,0,1,,,,,,,,,0,,,76,0
42510,note_on,0,0,4,,,,,,,,,0,,,55,111
42510,note_on,0,0,1,,,,,,,,,0,,,63,111
42510,note_on,0,0,4,,,,,,,,,0,,,58,0
42510,note_on,0,0,4,,,,,,,,,0,,,58,111
42514,set_tempo,13,1,0,,,,,,551015,,,,,,,
42527,set_tempo,13,1,0,,,,,,549501,,,,,,,
42540,note_on,0,0,1,,,,,,,,,0,,,63,0
42540,note_on,30,0,1,,,,,,,,,0,,,75,0
42540,note_on,0,0,1,,,,,,,,,0,,,73,111
42540,note_on,0,0,1,,,,,,,,,0,,,61,111
42540,note_on,0,0,4,,,,,,,,,0,,,58,0
42540,note_on,0,0,4,,,,,,,,,0,,,55,111
42540,note_on,30,0,4,,,,,,,,,0,,,55,0
42540,note_on,0,0,4,,,,,,,,,0,,,52,111
42540,set_tempo,13,1,0,,,,,,547995,,,,,,,
42552,set_tempo,12,1,0,,,,,,546498,,,,,,,
42570,note_on,0,0,4,,,,,,,,,0,,,55,111
42570,note_on,0,0,1,,,,,,,,,0,,,61,0
42570,note_on,0,0,1,,,,,,,,,0,,,71,111
42570,note_on,30,0,1,,,,,,,,,0,,,73,0
42570,note_on,0,0,4,,,,,,,,,0,,,52,111
42570,note_on,0,0,4,,,,,,,,,0,,,55,0
42570,set_tempo,18,1,0,,,,,,545009,,,,,,,
42570,note_on,0,0,1,,,,,,,,,0,,,59,111
42570,note_on,30,0,4,,,,,,,,,0,,,52,0
42582,set_tempo,12,1,0,,,,,,543527,,,,,,,
42595,set_tempo,13,1,0,,,,,,542054,,,,,,,
42600,note_on,0,0,4,,,,,,,,,0,,,50,111
42600,note_on,30,0,1,,,,,,,,,0,,,71,0
42600,note_on,0,0,4,,,,,,,,,0,,,53,111
42600,note_on,0,0,1,,,,,,,,,0,,,59,0
42600,note_on,0,0,1,,,,,,,,,0,,,58,111
42600,note_on,30,0,4,,,,,,,,,0,,,52,0
42600,note_on,0,0,1,,,,,,,,,0,,,70,111
42600,note_on,0,0,4,,,,,,,,,0,,,55,0
42608,set_tempo,13,1,0,,,,,,540589,,,,,,,
42621,set_tempo,13,1,0,,,,,,539132,,,,,,,
42630,note_on,0,0,4,,,,,,,,,0,,,53,112
42630,note_on,0,0,4,,,,,,,,,0,,,53,0
42630,note_on,0,0,4,,,,,,,,,0,,,50,112
42630,note_on,0,0,1,,,,,,,,,0,,,56,112
42630,note_on,0,0,1,,,,,,,,,0,,,58,0
42630,note_on,0,0,1,,,,,,,,,0,,,68,112
42630,note_on,30,0,1,,,,,,,,,0,,,70,0
42630,note_on,30,0,4,,,,,,,,,0,,,50,0
42638,set_tempo,17,1,0,,,,,,537683,,,,,,,
42651,set_tempo,13,1,0,,,,,,536241,,,,,,,
42660,note_on,0,0,1,,,,,,,,,0,,,56,0
42660,note_on,30,0,1,,,,,,,,,0,,,68,0
42660,note_on,0,0,4,,,,,,,,,0,,,46,112
42660,note_on,0,0,4,,,,,,,,,0,,,55,112
42660,note_on,0,0,4,,,,,,,,,0,,,53,0
42660,note_on,0,0,4,,,,,,,,,0,,,51,112
42660,note_on,0,0,1,,,,,,,,,0,,,67,112
42660,note_on,30,0,4,,,,,,,,,0,,,50,0
42664,set_tempo,13,1,0,,,,,,534807,,,,,,,
42677,set_tempo,13,1,0,,,,,,533381,,,,,,,
42690,note_on,0,0,4,,,,,,,,,0,,,54,112
42690,note_on,0,0,1,,,,,,,,,0,,,66,112
42690,note_on,0,0,4,,,,,,,,,0,,,51,0
42690,note_on,0,0,4,,,,,,,,,0,,,46,112
42690,note_on,0,0,4,,,,,,,,,0,,,46,0
42690,note_on,0,0,4,,,,,,,,,0,,,51,112
42690,note_on,30,0,4,,,,,,,,,0,,,55,0
42690,note_on,30,0,1,,,,,,,,,0,,,67,0
42690,set_tempo,13,1,0,,,,,,531962,,,,,,,
42702,set_tempo,12,1,0,,,,,,530551,,,,,,,
42720,note_on,30,0,4,,,,,,,,,0,,,54,0
42720,note_on,0,0,4,,,,,,,,,0,,,47,112
42720,note_on,0,0,4,,,,,,,,,0,,,53,112
42720,note_on,0,0,4,,,,,,,,,0,,,51,0
42720,note_on,0,0,4,,,,,,,,,0,,,46,0
42720,note_on,30,0,1,,,,,,,,,0,,,66,0
42720,note_on,0,0,4,,,,,,,,,0,,,44,112
42720,set_tempo,18,1,0,,,,,,529147,,,,,,,
42720,note_on,0,0,1,,,,,,,,,0,,,65,112
42732,set_tempo,12,1,0,,,,,,527751,,,,,,,
42745,set_tempo,13,1,0,,,,,,526362,,,,,,,
42750,note_on,0,0,4,,,,,,,,,0,,,47,0
42750,note_on,0,0,4,,,,,,,,,0,,,47,112
42750,note_on,0,0,4,,,,,,,,,0,,,52,112
42750,note_on,30,0,4,,,,,,,,,0,,,53,0
42750,note_on,30,0,1,,,,,,,,,0,,,65,0
42750,note_on,0,0,1,,,,,,,,,0,,,64,112
42750,note_on,0,0,4,,,,,,,,,0,,,44,0
42750,note_on,0,0,4,,,,,,,,,0,,,44,112
42758,set_tempo,13,1,0,,,,,,524980,,,,,,,
42771,set_tempo,13,1,0,,,,,,523606,,,,,,,
42780,note_on,0,0,4,,,,,,,,,0,,,47,0
42780,note_on,30,0,4,,,,,,,,,0,,,52,0
42780,note_on,30,0,1,,,,,,,,,0,,,64,0
42780,note_on,0,0,4,,,,,,,,,0,,,50,112
42780,note_on,0,0,4,,,,,,,,,0,,,44,0
42780,note_on,0,0,4,,,,,,,,,0,,,42,112
42780,note_on,0,0,4,,,,,,,,,0,,,45,112
42780,note_on,0,0,1,,,,,,,,,0,,,62,112
42784,set_tempo,13,1,0,,,,,,522239,,,,,,,
42801,set_tempo,17,1,0,,,,,,520879,,,,,,,
42810,note_on,0,0,1,,,,,,,,,0,,,63,112
42810,note_on,0,0,4,,,,,,,,,0,,,45,0
42810,note_on,0,0,4,,,,,,,,,0,,,42,112
42810,note_on,30,0,1,,,,,,,,,0,,,62,0
42810,note_on,0,0,4,,,,,,,,,0,,,42,0
42810,note_on,0,0,4,,,,,,,,,0,,,51,112
42810,note_on,0,0,4,,,,,,,,,0,,,45,112
42810,note_on,30,0,4,,,,,,,,,0,,,50,0
42814,set_tempo,13,1,0,,,,,,519526,,,,,,,
42827,set_tempo,13,1,0,,,,,,518179,,,,,,,
42840,note_on,0,0,4,,,,,,,,,0,,,43,112
42840,note_on,0,0,4,,,,,,,,,0,,,45,0
42840,note_on,0,0,4,,,,,,,,,0,,,46,112
42840,note_on,0,0,4,,,,,,,,,0,,,42,0
42840,set_tempo,13,1,0,,,,,,516840,,,,,,,
42840,note_on,30,0,4,,,,,,,,,0,,,51,0
42840,note_on,0,0,4,,,,,,,,,0,,,52,112
42840,note_on,30,0,1,,,,,,,,,0,,,63,0
42840,note_on,0,0,1,,,,,,,,,0,,,64,112
42852,set_tempo,12,1,0,,,,,,515508,,,,,,,
42870,note_on,30,0,4,,,,,,,,,0,,,46,0
42870,note_on,30,0,1,,,,,,,,,0,,,64,0
42870,note_on,0,0,1,,,,,,,,,0,,,63,113
42870,note_on,0,0,4,,,,,,,,,0,,,46,113
42870,note_on,0,0,4,,,,,,,,,0,,,52,0
42870,note_on,0,0,4,,,,,,,,,0,,,43,113
42870,note_on,0,0,4,,,,,,,,,0,,,43,0
42870,set_tempo,18,1,0,,,,,,514183,,,,,,,
42870,note_on,0,0,4,,,,,,,,,0,,,52,113
42882,set_tempo,12,1,0,,,,,,512864,,,,,,,
42895,set_tempo,13,1,0,,,,,,511553,,,,,,,
42900,note_on,30,0,4,,,,,,,,,0,,,46,0
42900,note_on,0,0,4,,,,,,,,,0,,,46,113
42900,note_on,0,0,1,,,,,,,,,0,,,61,113
42900,note_on,0,0,4,,,,,,,,,0,,,43,0
42900,note_on,0,0,4,,,,,,,,,0,,,43,113
42900,note_on,0,0,4,,,,,,,,,0,,,52,0
42900,note_on,0,0,4,,,,,,,,,0,,,52,113
42900,note_on,30,0,1,,,,,,,,,0,,,63,0
42908,set_tempo,13,1,0,,,,,,510247,,,,,,,
42921,set_tempo,13,1,0,,,,,,508949,,,,,,,
42930,note_on,0,0,4,,,,,,,,,0,,,43,113
42930,note_on,0,0,4,,,,,,,,,0,,,46,113
42930,note_on,0,0,4,,,,,,,,,0,,,52,0
42930,note_on,0,0,4,,,,,,,,,0,,,52,113
42930,note_on,30,0,1,,,,,,,,,0,,,61,0
42930,note_on,0,0,4,,,,,,,,,0,,,59,113
42930,note_on,30,0,4,,,,,,,,,0,,,46,0
42930,note_on,0,0,4,,,,,,,,,0,,,43,0
42934,set_tempo,13,1,0,,,,,,507657,,,,,,,
42951,set_tempo,17,1,0,,,,,,506372,,,,,,,
42960,note_on,0,0,4,,,,,,,,,0,,,59,0
42960,note_on,0,0,4,,,,,,,,,0,,,52,0
42960,note_on,0,0,4,,,,,,,,,0,,,47,113
42960,note_on,0,0,4,,,,,,,,,0,,,38,113
42960,note_on,0,0,4,,,,,,,,,0,,,53,113
42960,note_on,0,0,4,,,,,,,,,0,,,43,0
42960,note_on,0,0,4,,,,,,,,,0,,,58,113
42960,note_on,30,0,4,,,,,,,,,0,,,46,0
42964,set_tempo,13,1,0,,,,,,505093,,,,,,,
42977,set_tempo,13,1,0,,,,,,503821,,,,,,,
42990,note_on,30,0,4,,,,,,,,,0,,,47,0
42990,note_on,0,0,4,,,,,,,,,0,,,38,113
42990,note_on,0,0,4,,,,,,,,,0,,,47,113
42990,note_on,0,0,4,,,,,,,,,0,,,58,0
42990,note_on,0,0,4,,,,,,,,,0,,,56,113
42990,note_on,0,0,4,,,,,,,,,0,,,53,113
42990,set_tempo,13,1,0,,,,,,502555,,,,,,,
42990,note_on,0,0,4,,,,,,,,,0,,,38,0
42990,note_on,0,0,4,,,,,,,,,0,,,53,0
43002,set_tempo,12,1,0,,,,,,501295,,,,,,,
43015,set_tempo,13,1,0,,,,,,500042,,,,,,,
43020,note_on,0,0,4,,,,,,,,,0,,,53,0
43020,note_on,0,0,4,,,,,,,,,0,,,39,113
43020,note_on,0,0,4,,,,,,,,,0,,,46,113
43020,note_on,0,0,4,,,,,,,,,0,,,38,0
43020,note_on,0,0,4,,,,,,,,,0,,,55,113
43020,note_on,0,0,4,,,,,,,,,0,,,56,0
43020,note_on,30,0,4,,,,,,,,,0,,,47,0
43020,set_tempo,5,1,0,,,,,,500000,,,,,,,
43080,note_on,150,0,1,,,,,,,,,0,,,62,113
43080,note_on,60,0,4,,,,,,,,,0,,,55,0
43080,note_on,0,0,4,,,,,,,,,0,,,50,113
43080,note_on,0,0,4,,,,,,,,,0,,,46,0
43080,note_on,0,0,4,,,,,,,,,0,,,39,0
43110,note_on,0,0,4,,,,,,,,,0,,,50,114
43110,note_on,30,0,4,,,,,,,,,0,,,50,0
43110,note_on,30,0,1,,,,,,,,,0,,,62,0
43140,note_on,0,0,4,,,,,,,,,0,,,51,114
43140,note_on,30,0,1,,,,,,,,,0,,,63,114
43140,note_on,30,0,4,,,,,,,,,0,,,50,0
43170,note_on,30,0,1,,,,,,,,,0,,,63,0
43170,note_on,30,0,4,,,,,,,,,0,,,51,0
43170,note_on,0,0,4,,,,,,,,,0,,,51,114
43200,note_on,30,0,1,,,,,,,,,0,,,69,114
43200,note_on,30,0,4,,,,,,,,,0,,,51,0
43200,note_on,0,0,4,,,,,,,,,0,,,57,114
43230,note_on,30,0,1,,,,,,,,,0,,,69,0
43230,note_on,30,0,4,,,,,,,,,0,,,57,0
43230,note_on,0,0,4,,,,,,,,,0,,,57,114
43260,note_on,0,0,4,,,,,,,,,0,,,58,114
43260,note_on,30,0,4,,,,,,,,,0,,,57,0
43260,note_on,30,0,1,,,,,,,,,0,,,70,114
43290,note_on,30,0,1,,,,,,,,,0,,,70,0
43290,note_on,0,0,4,,,,,,,,,0,,,58,114
43290,note_on,30,0,4,,,,,,,,,0,,,58,0
43320,note_on,30,0,4,,,,,,,,,0,,,58,0
43320,note_on,0,0,1,,,,,,,,,0,,,74,114
43320,note_on,30,0,1,,,,,,,,,0,,,62,114
43350,note_on,0,0,4,,,,,,,,,0,,,62,115
43350,note_on,30,0,4,,,,,,,,,0,,,50,115
43350,note_on,30,0,1,,,,,,,,,0,,,74,0
43350,note_on,0,0,1,,,,,,,,,0,,,62,0
43380,note_on,0,0,1,,,,,,,,,0,,,63,115
43380,note_on,0,0,4,,,,,,,,,0,,,50,0
43380,note_on,30,0,1,,,,,,,,,0,,,75,115
43380,note_on,30,0,4,,,,,,,,,0,,,62,0
43410,note_on,0,0,1,,,,,,,,,0,,,75,0
43410,note_on,0,0,4,,,,,,,,,0,,,51,115
43410,note_on,30,0,4,,,,,,,,,0,,,63,115
43410,note_on,30,0,1,,,,,,,,,0,,,63,0
43440,note_on,0,0,4,,,,,,,,,0,,,63,0
43440,note_on,30,0,1,,,,,,,,,0,,,81,115
43440,note_on,0,0,1,,,,,,,,,0,,,69,115
43440,note_on,30,0,4,,,,,,,,,0,,,51,0
43470,note_on,0,0,3,,,,,,,,,0,,,57,115
43470,note_on,30,0,1,,,,,,,,,0,,,69,0
43470,note_on,1170,0,3,,,,,,,,,0,,,69,115
43470,note_on,0,0,1,,,,,,,,,0,,,81,0
43500,note_on,0,0,1,,,,,,,,,0,,,70,115
43500,note_on,30,0,1,,,,,,,,,0,,,82,115
43500,note_on,0,0,3,,,,,,,,,0,,,69,0
43500,note_on,30,0,3,,,,,,,,,0,,,57,0
43530,note_on,0,0,3,,,,,,,,,0,,,58,115
43530,note_on,30,0,1,,,,,,,,,0,,,70,0
43530,note_on,0,0,1,,,,,,,,,0,,,82,0
43530,note_on,30,0,3,,,,,,,,,0,,,70,115
43560,note_on,30,0,1,,,,,,,,,0,,,86,115
43560,note_on,0,0,1,,,,,,,,,0,,,74,115
43560,note_on,30,0,3,,,,,,,,,0,,,58,0
43560,note_on,0,0,3,,,,,,,,,0,,,70,0
43590,note_on,0,0,1,,,,,,,,,0,,,86,0
43590,note_on,30,0,3,,,,,,,,,0,,,74,115
43590,note_on,30,0,1,,,,,,,,,0,,,74,0
43590,note_on,0,0,3,,,,,,,,,0,,,62,115
43620,note_on,30,0,1,,,,,,,,,0,,,87,116
43620,note_on,0,0,1,,,,,,,,,0,,,75,116
43620,note_on,0,0,3,,,,,,,,,0,,,74,0
43620,note_on,30,0,3,,,,,,,,,0,,,62,0
43650,note_on,0,0,3,,,,,,,,,0,,,63,116
43650,note_on,30,0,1,,,,,,,,,0,,,75,0
43650,note_on,0,0,1,,,,,,,,,0,,,87,0
43650,note_on,30,0,3,,,,,,,,,0,,,75,116
43680,note_on,0,0,1,,,,,,,,,0,,,81,116
43680,note_on,0,0,3,,,,,,,,,0,,,75,0
43680,note_on,30,0,1,,,,,,,,,0,,,93,116
43680,note_on,30,0,3,,,,,,,,,0,,,63,0
43710,note_on,30,0,3,,,,,,,,,0,,,81,116
43710,note_on,0,0,1,,,,,,,,,0,,,93,0
43710,note_on,0,0,3,,,,,,,,,0,,,69,116
43710,note_on,30,0,1,,,,,,,,,0,,,81,0
43740,note_on,30,0,1,,,,,,,,,0,,,94,116
43740,note_on,30,0,3,,,,,,,,,0,,,69,0
43740,note_on,0,0,1,,,,,,,,,0,,,82,116
43740,note_on,0,0,3,,,,,,,,,0,,,81,0
43770,note_on,30,0,3,,,,,,,,,0,,,82,116
43770,note_on,0,0,1,,,,,,,,,0,,,94,0
43770,note_on,0,0,3,,,,,,,,,0,,,70,116
43770,note_on,30,0,1,,,,,,,,,0,,,82,0
43800,note_on,30,0,3,,,,,,,,,0,,,70,0
43800,note_on,30,0,1,,,,,,,,,0,,,98,116
43800,note_on,0,0,3,,,,,,,,,0,,,82,0
43800,note_on,0,0,1,,,,,,,,,0,,,86,116
43830,note_on,30,0,3,,,,,,,,,0,,,86,116
43830,note_on,30,0,1,,,,,,,,,0,,,86,0
43830,note_on,0,0,3,,,,,,,,,0,,,74,116
43830,note_on,0,0,1,,,,,,,,,0,,,98,0
43860,note_on,30,0,3,,,,,,,,,0,,,74,0
43860,note_on,0,0,3,,,,,,,,,0,,,86,0
43860,note_on,0,0,1,,,,,,,,,0,,,87,117
43860,note_on,30,0,1,,,,,,,,,0,,,99,117
43890,note_on,30,0,1,,,,,,,,,0,,,87,0
43890,note_on,30,0,3,,,,,,,,,0,,,87,117
43890,note_on,0,0,3,,,,,,,,,0,,,75,117
43890,note_on,0,0,1,,,,,,,,,0,,,99,0
43920,note_on,30,0,1,,,,,,,,,0,,,98,117
43920,note_on,30,0,3,,,,,,,,,0,,,75,0
43920,note_on,0,0,1,,,,,,,,,0,,,86,117
43920,note_on,0,0,3,,,,,,,,,0,,,87,0
43950,note_on,30,0,3,,,,,,,,,0,,,86,117
43950,note_on,30,0,1,,,,,,,,,0,,,86,0
43950,note_on,0,0,3,,,,,,,,,0,,,74,117
43950,note_on,0,0,1,,,,,,,,,0,,,98,0
43980,note_on,30,0,1,,,,,,,,,0,,,99,117
43980,note_on,30,0,3,,,,,,,,,0,,,74,0
43980,note_on,0,0,1,,,,,,,,,0,,,87,117
43980,note_on,0,0,3,,,,,,,,,0,,,86,0
44010,note_on,30,0,3,,,,,,,,,0,,,87,117
44010,note_on,0,0,1,,,,,,,,,0,,,99,0
44010,note_on,30,0,1,,,,,,,,,0,,,87,0
44010,note_on,0,0,3,,,,,,,,,0,,,75,117
44040,note_on,30,0,3,,,,,,,,,0,,,75,0
44040,note_on,30,0,1,,,,,,,,,0,,,98,117
44040,note_on,0,0,1,,,,,,,,,0,,,86,117
44040,note_on,0,0,3,,,,,,,,,0,,,87,0
44070,note_on,30,0,3,,,,,,,,,0,,,86,117
44070,note_on,0,0,1,,,,,,,,,0,,,98,0
44070,note_on,30,0,1,,,,,,,,,0,,,86,0
44070,note_on,0,0,3,,,,,,,,,0,,,74,117
44100,note_on,30,0,3,,,,,,,,,0,,,74,0
44100,control_change,2460,0,5,,,,,,,,,0,64,127,,
44100,note_on,0,0,3,,,,,,,,,0,,,86,0
44100,note_on,30,0,1,,,,,,,,,0,,,99,118
44100,note_on,0,0,1,,,,,,,,,0,,,87,118
44130,note_on,30,0,1,,,,,,,,,0,,,87,0
44130,note_on,0,0,3,,,,,,,,,0,,,77,118
44130,note_on,30,0,3,,,,,,,,,0,,,85,118
44130,note_on,0,0,1,,,,,,,,,0,,,99,0
44160,note_on,30,0,3,,,,,,,,,0,,,77,0
44160,note_on,0,0,1,,,,,,,,,0,,,87,118
44160,note_on,30,0,1,,,,,,,,,0,,,99,118
44160,note_on,0,0,3,,,,,,,,,0,,,85,0
44190,note_on,0,0,1,,,,,,,,,0,,,99,0
44190,note_on,0,0,3,,,,,,,,,0,,,70,118
44190,note_on,30,0,1,,,,,,,,,0,,,87,0
44190,note_on,30,0,3,,,,,,,,,0,,,82,118
44220,note_on,0,0,1,,,,,,,,,0,,,87,118
44220,note_on,30,0,3,,,,,,,,,0,,,70,0
44220,note_on,30,0,1,,,,,,,,,0,,,99,118
44220,note_on,0,0,3,,,,,,,,,0,,,82,0
44250,note_on,30,0,3,,,,,,,,,0,,,79,118
44250,note_on,0,0,1,,,,,,,,,0,,,99,0
44250,note_on,30,0,1,,,,,,,,,0,,,87,0
44250,note_on,0,0,3,,,,,,,,,0,,,67,118
44280,note_on,0,0,3,,,,,,,,,0,,,79,0
44280,note_on,0,0,1,,,,,,,,,0,,,87,118
44280,note_on,30,0,3,,,,,,,,,0,,,67,0
44280,note_on,30,0,1,,,,,,,,,0,,,99,118
44310,note_on,30,0,3,,,,,,,,,0,,,75,118
44310,note_on,30,0,1,,,,,,,,,0,,,87,0
44310,note_on,0,0,3,,,,,,,,,0,,,63,118
44310,note_on,0,0,1,,,,,,,,,0,,,99,0
44340,note_on,30,0,3,,,,,,,,,0,,,63,0
44340,note_on,0,0,3,,,,,,,,,0,,,75,0
44340,note_on,0,0,1,,,,,,,,,0,,,87,119
44340,note_on,30,0,1,,,,,,,,,0,,,99,119
44370,note_on,30,0,3,,,,,,,,,0,,,73,119
44370,note_on,0,0,3,,,,,,,,,0,,,61,119
44370,note_on,0,0,1,,,,,,,,,0,,,99,0
44370,note_on,30,0,1,,,,,,,,,0,,,87,0
44400,note_on,30,0,3,,,,,,,,,0,,,61,0
44400,note_on,0,0,3,,,,,,,,,0,,,73,0
44400,note_on,0,0,1,,,,,,,,,0,,,87,119
44400,note_on,30,0,1,,,,,,,,,0,,,99,119
44430,note_on,0,0,1,,,,,,,,,0,,,99,0
44430,note_on,30,0,3,,,,,,,,,0,,,70,119
44430,note_on,0,0,3,,,,,,,,,0,,,58,119
44430,note_on,30,0,1,,,,,,,,,0,,,87,0
44460,note_on,0,0,1,,,,,,,,,0,,,87,119
44460,note_on,0,0,3,,,,,,,,,0,,,70,0
44460,note_on,30,0,3,,,,,,,,,0,,,58,0
44460,note_on,30,0,1,,,,,,,,,0,,,99,119
44490,note_on,30,0,1,,,,,,,,,0,,,87,0
44490,note_on,1050,0,4,,,,,,,,,0,,,67,119
44490,note_on,0,0,4,,,,,,,,,0,,,55,119
44490,note_on,0,0,1,,,,,,,,,0,,,99,0
44520,note_on,30,0,4,,,,,,,,,0,,,55,0
44520,note_on,0,0,1,,,,,,,,,0,,,87,119
44520,note_on,0,0,4,,,,,,,,,0,,,67,0
44520,note_on,30,0,1,,,,,,,,,0,,,99,119
44550,note_on,30,0,4,,,,,,,,,0,,,63,119
44550,note_on,0,0,1,,,,,,,,,0,,,99,0
44550,note_on,0,0,4,,,,,,,,,0,,,51,119
44550,note_on,30,0,1,,,,,,,,,0,,,87,0
44580,note_on,0,0,1,,,,,,,,,0,,,87,120
44580,note_on,30,0,1,,,,,,,,,0,,,99,120
44580,note_on,30,0,4,,,,,,,,,0,,,51,0
44580,note_on,0,0,4,,,,,,,,,0,,,63,0
44610,note_on,30,0,1,,,,,,,,,0,,,87,0
44610,note_on,30,0,4,,,,,,,,,0,,,61,120
44610,note_on,0,0,4,,,,,,,,,0,,,49,120
44610,note_on,0,0,1,,,,,,,,,0,,,99,0
44640,note_on,30,0,1,,,,,,,,,0,,,99,120
44640,note_on,30,0,4,,,,,,,,,0,,,49,0
44640,note_on,0,0,4,,,,,,,,,0,,,61,0
44640,note_on,0,0,1,,,,,,,,,0,,,87,120
44670,note_on,0,0,1,,,,,,,,,0,,,99,0
44670,note_on,30,0,4,,,,,,,,,0,,,58,120
44670,note_on,0,0,4,,,,,,,,,0,,,46,120
44670,note_on,30,0,1,,,,,,,,,0,,,87,0
44700,note_on,30,0,4,,,,,,,,,0,,,46,0
44700,note_on,0,0,1,,,,,,,,,0,,,87,120
44700,note_on,0,0,4,,,,,,,,,0,,,58,0
44700,note_on,30,0,1,,,,,,,,,0,,,99,120
44730,note_on,0,0,4,,,,,,,,,0,,,43,120
44730,note_on,30,0,1,,,,,,,,,0,,,87,0
44730,note_on,0,0,1,,,,,,,,,0,,,99,0
44730,note_on,30,0,4,,,,,,,,,0,,,55,120
44760,note_on,0,0,1,,,,,,,,,0,,,87,120
44760,note_on,30,0,4,,,,,,,,,0,,,43,0
44760,note_on,30,0,1,,,,,,,,,0,,,99,120
44760,note_on,0,0,4,,,,,,,,,0,,,55,0
44790,note_on,30,0,4,,,,,,,,,0,,,51,120
44790,note_on,30,0,1,,,,,,,,,0,,,87,0
44790,note_on,0,0,4,,,,,,,,,0,,,39,120
44790,note_on,0,0,1,,,,,,,,,0,,,99,0
44820,note_on,30,0,4,,,,,,,,,0,,,39,0
44820,note_on,30,0,1,,,,,,,,,0,,,99,120
44820,note_on,0,0,4,,,,,,,,,0,,,51,0
44820,note_on,0,0,1,,,,,,,,,0,,,87,120
44850,note_on,0,0,1,,,,,,,,,0,,,87,120
44850,note_on,0,0,1,,,,,,,,,0,,,99,0
44850,note_on,0,0,1,,,,,,,,,0,,,99,120
44850,note_on,30,0,1,,,,,,,,,0,,,87,0
44880,note_on,0,0,1,,,,,,,,,0,,,87,120
44880,note_on,0,0,1,,,,,,,,,0,,,99,0
44880,note_on,0,0,1,,,,,,,,,0,,,99,120
44880,note_on,30,0,1,,,,,,,,,0,,,87,0
44910,note_on,0,0,1,,,,,,,,,0,,,99,120
44910,note_on,0,0,1,,,,,,,,,0,,,87,120
44910,note_on,30,0,1,,,,,,,,,0,,,87,0
44910,note_on,0,0,1,,,,,,,,,0,,,99,0
44940,note_on,0,0,1,,,,,,,,,0,,,87,120
44940,note_on,0,0,1,,,,,,,,,0,,,99,0
44940,note_on,0,0,1,,,,,,,,,0,,,99,120
44940,note_on,30,0,1,,,,,,,,,0,,,87,0
44970,note_on,0,0,1,,,,,,,,,0,,,99,0
44970,note_on,30,0,1,,,,,,,,,0,,,87,0
44970,note_on,0,0,1,,,,,,,,,0,,,99,120
44970,note_on,0,0,1,,,,,,,,,0,,,87,120
45000,note_on,0,0,1,,,,,,,,,0,,,99,0
45000,note_on,0,0,1,,,,,,,,,0,,,87,120
45000,note_on,30,0,1,,,,,,,,,0,,,87,0
45000,note_on,0,0,1,,,,,,,,,0,,,99,120
45030,note_on,30,0,1,,,,,,,,,0,,,87,0
45030,note_on,0,0,1,,,,,,,,,0,,,87,120
45030,note_on,0,0,1,,,,,,,,,0,,,99,0
45030,note_on,0,0,1,,,,,,,,,0,,,99,120
45060,note_on,0,0,1,,,,,,,,,0,,,99,120
45060,note_on,0,0,1,,,,,,,,,0,,,87,120
45060,note_on,0,0,1,,,,,,,,,0,,,99,0
45060,note_on,30,0,1,,,,,,,,,0,,,87,0
45090,note_on,0,0,1,,,,,,,,,0,,,99,0
45090,note_on,0,0,1,,,,,,,,,0,,,99,120
45090,note_on,0,0,1,,,,,,,,,0,,,87,120
45090,note_on,30,0,1,,,,,,,,,0,,,87,0
45120,note_on,30,0,1,,,,,,,,,0,,,87,0
45120,note_on,0,0,1,,,,,,,,,0,,,87,120
45120,note_on,0,0,1,,,,,,,,,0,,,99,0
45120,note_on,0,0,1,,,,,,,,,0,,,99,120
45150,note_on,30,0,1,,,,,,,,,0,,,87,0
45150,note_on,0,0,1,,,,,,,,,0,,,99,120
45150,control_change,1050,0,5,,,,,,,,,0,64,0,,
45150,note_on,0,0,1,,,,,,,,,0,,,99,0
45150,note_on,0,0,1,,,,,,,,,0,,,87,120
45180,note_on,0,0,1,,,,,,,,,0,,,99,120
45180,note_on,0,0,1,,,,,,,,,0,,,99,0
45180,marker,2160,1,0,,,,,,,,,,,,,
45180,note_on,0,0,1,,,,,,,,,0,,,87,120
45180,note_on,30,0,1,,,,,,,,,0,,,87,0
45210,note_on,0,0,1,,,,,,,,,0,,,87,120
45210,note_on,30,0,1,,,,,,,,,0,,,87,0
45210,note_on,0,0,1,,,,,,,,,0,,,99,120
45210,note_on,0,0,1,,,,,,,,,0,,,99,0
45240,note_on,0,0,1,,,,,,,,,0,,,87,120
45240,note_on,0,0,1,,,,,,,,,0,,,99,0
45240,note_on,30,0,1,,,,,,,,,0,,,87,0
45240,note_on,0,0,1,,,,,,,,,0,,,99,120
45270,note_on,0,0,1,,,,,,,,,0,,,87,120
45270,note_on,30,0,1,,,,,,,,,0,,,87,0
45270,note_on,0,0,1,,,,,,,,,0,,,99,0
45270,note_on,0,0,1,,,,,,,,,0,,,99,120
45300,note_on,840,0,3,,,,,,,,,0,,,63,120
45300,note_on,30,0,1,,,,,,,,,0,,,87,0
45300,note_on,0,0,1,,,,,,,,,0,,,87,120
45300,note_on,0,0,1,,,,,,,,,0,,,99,0
45300,note_on,0,0,1,,,,,,,,,0,,,99,120
45315,note_on,15,0,3,,,,,,,,,0,,,63,0
45330,note_on,30,0,1,,,,,,,,,0,,,87,0
45330,note_on,0,0,1,,,,,,,,,0,,,87,120
45330,note_on,0,0,1,,,,,,,,,0,,,99,0
45330,note_on,0,0,1,,,,,,,,,0,,,99,120
45360,note_on,0,0,1,,,,,,,,,0,,,99,120
45360,note_on,0,0,1,,,,,,,,,0,,,99,0
45360,note_on,45,0,3,,,,,,,,,0,,,75,120
45360,note_on,30,0,1,,,,,,,,,0,,,87,0
45360,note_on,0,0,1,,,,,,,,,0,,,87,120
45375,note_on,15,0,3,,,,,,,,,0,,,75,0
45390,note_on,0,0,1,,,,,,,,,0,,,87,120
45390,note_on,0,0,1,,,,,,,,,0,,,99,0
45390,note_on,0,0,1,,,,,,,,,0,,,99,120
45390,note_on,30,0,1,,,,,,,,,0,,,87,0
45420,note_on,0,0,1,,,,,,,,,0,,,87,120
45420,note_on,0,0,1,,,,,,,,,0,,,99,0
45420,note_on,30,0,1,,,,,,,,,0,,,87,0
45420,note_on,0,0,1,,,,,,,,,0,,,99,120
45450,note_on,30,0,1,,,,,,,,,0,,,87,0
45450,note_on,0,0,1,,,,,,,,,0,,,87,120
45450,note_on,0,0,1,,,,,,,,,0,,,99,0
45450,note_on,0,0,1,,,,,,,,,0,,,99,120
45480,note_on,0,0,1,,,,,,,,,0,,,99,0
45480,note_on,0,0,1,,,,,,,,,0,,,85,120
45480,note_on,30,0,1,,,,,,,,,0,,,87,0
45480,note_on,0,0,1,,,,,,,,,0,,,97,120
45510,note_on,0,0,1,,,,,,,,,0,,,85,120
45510,note_on,0,0,1,,,,,,,,,0,,,97,0
45510,note_on,0,0,1,,,,,,,,,0,,,97,120
45510,note_on,30,0,1,,,,,,,,,0,,,85,0
45540,note_on,0,0,4,,,,,,,,,0,,,44,120
45540,control_change,390,0,5,,,,,,,,,0,64,127,,
45540,note_on,0,0,1,,,,,,,,,0,,,97,0
45540,note_on,0,0,1,,,,,,,,,0,,,95,120
45540,note_on,720,0,4,,,,,,,,,0,,,32,120
45540,note_on,30,0,1,,,,,,,,,0,,,85,0
45540,note_on,0,0,1,,,,,,,,,0,,,83,120
45570,note_on,30,0,1,,,,,,,,,0,,,83,0
45570,note_on,0,0,1,,,,,,,,,0,,,95,120
45570,note_on,0,0,1,,,,,,,,,0,,,83,120
45570,note_on,0,0,1,,,,,,,,,0,,,95,0
45600,note_on,0,0,1,,,,,,,,,0,,,95,120
45600,note_on,0,0,1,,,,,,,,,0,,,95,0
45600,note_on,0,0,1,,,,,,,,,0,,,83,120
45600,note_on,30,0,1,,,,,,,,,0,,,83,0
45600,note_on,60,0,4,,,,,,,,,0,,,44,0
45600,note_on,0,0,4,,,,,,,,,0,,,63,120
45600,note_on,0,0,4,,,,,,,,,0,,,32,0
45600,note_on,0,0,4,,,,,,,,,0,,,51,120
45600,note_on,0,0,4,,,,,,,,,0,,,59,120
45630,note_on,0,0,4,,,,,,,,,0,,,51,120
45630,note_on,30,0,4,,,,,,,,,0,,,51,0
45630,note_on,0,0,4,,,,,,,,,0,,,63,120
45630,note_on,0,0,1,,,,,,,,,0,,,95,120
45630,note_on,0,0,1,,,,,,,,,0,,,95,0
45630,note_on,0,0,4,,,,,,,,,0,,,63,0
45630,note_on,0,0,1,,,,,,,,,0,,,83,120
45630,note_on,0,0,4,,,,,,,,,0,,,59,0
45630,note_on,0,0,4,,,,,,,,,0,,,59,120
45630,note_on,30,0,1,,,,,,,,,0,,,83,0
45660,note_on,0,0,1,,,,,,,,,0,,,95,0
45660,note_on,30,0,4,,,,,,,,,0,,,51,0
45660,control_change,120,0,5,,,,,,,,,0,64,0,,
45660,note_on,0,0,4,,,,,,,,,0,,,56,120
45660,note_on,0,0,1,,,,,,,,,0,,,94,120
45660,note_on,0,0,4,,,,,,,,,0,,,63,0
45660,note_on,0,0,4,,,,,,,,,0,,,59,120
45660,note_on,0,0,4,,,,,,,,,0,,,59,0
45660,note_on,0,0,4,,,,,,,,,0,,,63,120
45660,note_on,30,0,1,,,,,,,,,0,,,83,0
45660,note_on,0,0,1,,,,,,,,,0,,,82,120
45690,note_on,0,0,1,,,,,,,,,0,,,82,120
45690,note_on,0,0,1,,,,,,,,,0,,,94,0
45690,note_on,0,0,1,,,,,,,,,0,,,94,120
45690,note_on,30,0,1,,,,,,,,,0,,,82,0
45720,note_on,0,0,4,,,,,,,,,0,,,59,0
45720,note_on,0,0,4,,,,,,,,,0,,,63,0
45720,note_on,0,0,1,,,,,,,,,0,,,80,120
45720,note_on,0,0,1,,,,,,,,,0,,,94,0
45720,note_on,0,0,1,,,,,,,,,0,,,92,120
45720,control_change,60,0,5,,,,,,,,,0,64,127,,
45720,note_on,0,0,4,,,,,,,,,0,,,35,120
45720,note_on,30,0,1,,,,,,,,,0,,,82,0
45720,note_on,60,0,4,,,,,,,,,0,,,56,0
45720,note_on,0,0,4,,,,,,,,,0,,,47,120
45750,note_on,0,0,1,,,,,,,,,0,,,92,120
45750,note_on,0,0,1,,,,,,,,,0,,,92,0
45750,note_on,0,0,1,,,,,,,,,0,,,80,120
45750,note_on,30,0,1,,,,,,,,,0,,,80,0
45780,note_on,0,0,4,,,,,,,,,0,,,51,120
45780,note_on,0,0,4,,,,,,,,,0,,,35,0
45780,note_on,0,0,4,,,,,,,,,0,,,59,120
45780,note_on,0,0,4,,,,,,,,,0,,,63,120
45780,note_on,60,0,4,,,,,,,,,0,,,47,0
45780,note_on,0,0,1,,,,,,,,,0,,,92,0
45780,note_on,0,0,1,,,,,,,,,0,,,91,120
45780,note_on,0,0,1,,,,,,,,,0,,,79,120
45780,note_on,30,0,1,,,,,,,,,0,,,80,0
45810,note_on,0,0,4,,,,,,,,,0,,,59,120
45810,note_on,0,0,4,,,,,,,,,0,,,51,120
45810,note_on,0,0,4,,,,,,,,,0,,,59,0
45810,note_on,30,0,4,,,,,,,,,0,,,51,0
45810,note_on,0,0,4,,,,,,,,,0,,,63,0
45810,note_on,0,0,4,,,,,,,,,0,,,63,120
45810,note_on,30,0,1,,,,,,,,,0,,,79,0
45810,note_on,0,0,1,,,,,,,,,0,,,91,120
45810,note_on,0,0,1,,,,,,,,,0,,,91,0
45810,note_on,0,0,1,,,,,,,,,0,,,79,120
45840,note_on,0,0,4,,,,,,,,,0,,,63,0
45840,note_on,30,0,1,,,,,,,,,0,,,79,0
45840,control_change,120,0,5,,,,,,,,,0,64,0,,
45840,note_on,30,0,4,,,,,,,,,0,,,51,0
45840,note_on,0,0,4,,,,,,,,,0,,,56,120
45840,note_on,0,0,4,,,,,,,,,0,,,59,0
45840,note_on,0,0,4,,,,,,,,,0,,,59,120
45840,note_on,0,0,1,,,,,,,,,0,,,91,0
45840,note_on,0,0,4,,,,,,,,,0,,,63,120
45840,note_on,0,0,1,,,,,,,,,0,,,92,120
45840,note_on,0,0,1,,,,,,,,,0,,,80,120
45870,note_on,0,0,1,,,,,,,,,0,,,92,120
45870,note_on,0,0,1,,,,,,,,,0,,,92,0
45870,note_on,0,0,1,,,,,,,,,0,,,80,120
45870,note_on,30,0,1,,,,,,,,,0,,,80,0
45900,note_on,0,0,1,,,,,,,,,0,,,82,120
45900,note_on,30,0,1,,,,,,,,,0,,,80,0
45900,note_on,0,0,1,,,,,,,,,0,,,92,0
45900,note_on,0,0,1,,,,,,,,,0,,,94,120
45900,note_on,0,0,4,,,,,,,,,0,,,39,120
45900,note_on,0,0,4,,,,,,,,,0,,,51,120
45900,note_on,0,0,4,,,,,,,,,0,,,59,0
45900,note_on,0,0,4,,,,,,,,,0,,,63,0
45900,control_change,60,0,5,,,,,,,,,0,64,127,,
45900,note_on,60,0,4,,,,,,,,,0,,,56,0
45930,note_on,30,0,1,,,,,,,,,0,,,82,0
45930,note_on,0,0,1,,,,,,,,,0,,,82,120
45930,note_on,0,0,1,,,,,,,,,0,,,94,120
45930,note_on,0,0,1,,,,,,,,,0,,,94,0
45960,note_on,30,0,1,,,,,,,,,0,,,82,0
45960,note_on,0,0,1,,,,,,,,,0,,,87,120
45960,note_on,585,0,3,,,,,,,,,0,,,55,120
45960,note_on,0,0,1,,,,,,,,,0,,,94,0
45960,note_on,0,0,1,,,,,,,,,0,,,75,120
45960,note_on,0,0,3,,,,,,,,,0,,,67,120
45960,note_on,0,0,3,,,,,,,,,0,,,63,120
45960,note_on,0,0,4,,,,,,,,,0,,,39,0
45960,note_on,60,0,4,,,,,,,,,0,,,51,0
45990,note_on,0,0,3,,,,,,,,,0,,,63,120
45990,note_on,0,0,3,,,,,,,,,0,,,63,0
45990,note_on,30,0,1,,,,,,,,,0,,,75,0
45990,note_on,0,0,3,,,,,,,,,0,,,55,120
45990,note_on,0,0,1,,,,,,,,,0,,,87,0
45990,note_on,0,0,1,,,,,,,,,0,,,75,120
45990,note_on,0,0,3,,,,,,,,,0,,,55,0
45990,note_on,30,0,3,,,,,,,,,0,,,67,0
45990,note_on,0,0,1,,,,,,,,,0,,,87,120
45990,note_on,0,0,3,,,,,,,,,0,,,67,120
46020,note_on,30,0,3,,,,,,,,,0,,,67,0
46020,note_on,0,0,1,,,,,,,,,0,,,87,0
46020,note_on,0,0,3,,,,,,,,,0,,,67,120
46020,note_on,0,0,3,,,,,,,,,0,,,63,120
46020,note_on,0,0,3,,,,,,,,,0,,,63,0
46020,note_on,0,0,3,,,,,,,,,0,,,58,120
46020,note_on,0,0,3,,,,,,,,,0,,,55,0
46020,note_on,0,0,1,,,,,,,,,0,,,87,120
46020,control_change,120,0,5,,,,,,,,,0,64,0,,
46020,note_on,30,0,1,,,,,,,,,0,,,75,0
46020,note_on,0,0,1,,,,,,,,,0,,,75,120
46050,note_on,0,0,1,,,,,,,,,0,,,75,120
46050,note_on,0,0,1,,,,,,,,,0,,,87,0
46050,note_on,0,0,1,,,,,,,,,0,,,87,120
46050,note_on,30,0,1,,,,,,,,,0,,,75,0
46080,note_on,0,0,4,,,,,,,,,0,,,55,120
46080,control_change,60,0,5,,,,,,,,,0,64,127,,
46080,note_on,0,0,1,,,,,,,,,0,,,88,120
46080,note_on,120,0,4,,,,,,,,,0,,,43,120
46080,note_on,0,0,3,,,,,,,,,0,,,67,0
46080,note_on,0,0,3,,,,,,,,,0,,,63,0
46080,note_on,30,0,1,,,,,,,,,0,,,75,0
46080,note_on,0,0,1,,,,,,,,,0,,,76,120
46080,note_on,60,0,3,,,,,,,,,0,,,58,0
46080,note_on,0,0,1,,,,,,,,,0,,,87,0
46110,note_on,0,0,1,,,,,,,,,0,,,88,0
46110,note_on,30,0,1,,,,,,,,,0,,,76,0
46110,note_on,0,0,1,,,,,,,,,0,,,76,120
46110,note_on,0,0,1,,,,,,,,,0,,,88,120
46140,note_on,0,0,4,,,,,,,,,0,,,43,0
46140,note_on,60,0,4,,,,,,,,,0,,,55,0
46140,note_on,0,0,3,,,,,,,,,0,,,70,120
46140,note_on,0,0,1,,,,,,,,,0,,,87,120
46140,note_on,0,0,1,,,,,,,,,0,,,88,0
46140,note_on,60,0,3,,,,,,,,,0,,,61,120
46140,note_on,0,0,3,,,,,,,,,0,,,63,120
46140,note_on,0,0,1,,,,,,,,,0,,,75,120
46140,note_on,30,0,1,,,,,,,,,0,,,76,0
46170,note_on,0,0,3,,,,,,,,,0,,,63,0
46170,note_on,0,0,3,,,,,,,,,0,,,63,120
46170,note_on,0,0,3,,,,,,,,,0,,,70,120
46170,note_on,0,0,1,,,,,,,,,0,,,87,0
46170,note_on,0,0,1,,,,,,,,,0,,,87,120
46170,note_on,30,0,3,,,,,,,,,0,,,70,0
46170,note_on,30,0,1,,,,,,,,,0,,,75,0
46170,note_on,0,0,3,,,,,,,,,0,,,61,0
46170,note_on,0,0,3,,,,,,,,,0,,,61,120
46170,note_on,0,0,1,,,,,,,,,0,,,75,120
46200,note_on,0,0,3,,,,,,,,,0,,,61,120
46200,note_on,0,0,3,,,,,,,,,0,,,63,0
46200,note_on,0,0,3,,,,,,,,,0,,,63,120
46200,note_on,0,0,3,,,,,,,,,0,,,70,120
46200,control_change,120,0,5,,,,,,,,,0,64,0,,
46200,note_on,30,0,1,,,,,,,,,0,,,75,0
46200,note_on,30,0,3,,,,,,,,,0,,,70,0
46200,note_on,0,0,1,,,,,,,,,0,,,73,120
46200,note_on,0,0,1,,,,,,,,,0,,,85,120
46200,note_on,0,0,1,,,,,,,,,0,,,87,0
46200,note_on,0,0,3,,,,,,,,,0,,,61,0
46230,note_on,0,0,1,,,,,,,,,0,,,85,0
46230,note_on,0,0,1,,,,,,,,,0,,,73,120
46230,note_on,30,0,1,,,,,,,,,0,,,73,0
46230,note_on,0,0,1,,,,,,,,,0,,,85,120
46260,note_on,30,0,1,,,,,,,,,0,,,73,0
46260,note_on,0,0,1,,,,,,,,,0,,,83,120
46260,note_on,0,0,1,,,,,,,,,0,,,85,0
46260,note_on,120,0,4,,,,,,,,,0,,,56,120
46260,note_on,60,0,3,,,,,,,,,0,,,70,0
46260,control_change,60,0,5,,,,,,,,,0,64,127,,
46260,note_on,0,0,1,,,,,,,,,0,,,71,120
46260,note_on,0,0,4,,,,,,,,,0,,,44,120
46260,note_on,0,0,3,,,,,,,,,0,,,63,0
46260,note_on,0,0,3,,,,,,,,,0,,,61,0
46290,note_on,30,0,1,,,,,,,,,0,,,71,0
46290,note_on,0,0,1,,,,,,,,,0,,,83,120
46290,note_on,0,0,1,,,,,,,,,0,,,83,0
46290,note_on,0,0,1,,,,,,,,,0,,,71,120
46320,note_on,0,0,1,,,,,,,,,0,,,71,120
46320,note_on,0,0,1,,,,,,,,,0,,,83,120
46320,note_on,60,0,3,,,,,,,,,0,,,59,120
46320,note_on,0,0,1,,,,,,,,,0,,,83,0
46320,note_on,0,0,4,,,,,,,,,0,,,56,0
46320,note_on,0,0,3,,,,,,,,,0,,,68,120
46320,note_on,30,0,1,,,,,,,,,0,,,71,0
46320,note_on,0,0,3,,,,,,,,,0,,,63,120
46320,note_on,60,0,4,,,,,,,,,0,,,44,0
46350,note_on,30,0,1,,,,,,,,,0,,,71,0
46350,note_on,30,0,3,,,,,,,,,0,,,68,0
46350,note_on,0,0,1,,,,,,,,,0,,,83,120
46350,note_on,0,0,1,,,,,,,,,0,,,83,0
46350,note_on,0,0,1,,,,,,,,,0,,,71,120
46350,note_on,0,0,3,,,,,,,,,0,,,68,120
46350,note_on,0,0,3,,,,,,,,,0,,,63,120
46350,note_on,0,0,3,,,,,,,,,0,,,63,0
46350,note_on,0,0,3,,,,,,,,,0,,,59,0
46350,note_on,0,0,3,,,,,,,,,0,,,59,120
46380,note_on,30,0,3,,,,,,,,,0,,,68,0
46380,control_change,120,0,5,,,,,,,,,0,64,0,,
46380,note_on,0,0,1,,,,,,,,,0,,,70,120
46380,note_on,0,0,1,,,,,,,,,0,,,82,120
46380,note_on,0,0,1,,,,,,,,,0,,,83,0
46380,note_on,0,0,3,,,,,,,,,0,,,63,120
46380,note_on,0,0,3,,,,,,,,,0,,,63,0
46380,note_on,30,0,1,,,,,,,,,0,,,71,0
46380,note_on,0,0,3,,,,,,,,,0,,,59,0
46380,note_on,0,0,3,,,,,,,,,0,,,59,120
46410,note_on,30,0,1,,,,,,,,,0,,,70,0
46410,note_on,0,0,1,,,,,,,,,0,,,82,0
46410,note_on,0,0,1,,,,,,,,,0,,,82,120
46410,note_on,0,0,1,,,,,,,,,0,,,70,120
46440,note_on,0,0,1,,,,,,,,,0,,,82,0
46440,note_on,120,0,4,,,,,,,,,0,,,40,120
46440,note_on,60,0,3,,,,,,,,,0,,,63,0
46440,control_change,60,0,5,,,,,,,,,0,64,127,,
46440,note_on,0,0,1,,,,,,,,,0,,,80,120
46440,note_on,30,0,1,,,,,,,,,0,,,70,0
46440,note_on,0,0,1,,,,,,,,,0,,,68,120
46440,note_on,0,0,3,,,,,,,,,0,,,59,0
46470,note_on,0,0,1,,,,,,,,,0,,,68,120
46470,note_on,30,0,1,,,,,,,,,0,,,68,0
46470,note_on,0,0,1,,,,,,,,,0,,,80,120
46470,note_on,0,0,1,,,,,,,,,0,,,80,0
46500,note_on,0,0,4,,,,,,,,,0,,,62,120
46500,note_on,30,0,1,,,,,,,,,0,,,68,0
46500,note_on,0,0,1,,,,,,,,,0,,,80,0
46500,note_on,0,0,1,,,,,,,,,0,,,79,120
46500,note_on,60,0,4,,,,,,,,,0,,,40,0
46500,note_on,0,0,1,,,,,,,,,0,,,67,120
46500,note_on,0,0,4,,,,,,,,,0,,,58,120
46530,note_on,0,0,1,,,,,,,,,0,,,79,0
46530,note_on,30,0,4,,,,,,,,,0,,,62,0
46530,note_on,0,0,1,,,,,,,,,0,,,79,120
46530,note_on,0,0,4,,,,,,,,,0,,,62,120
46530,note_on,30,0,1,,,,,,,,,0,,,67,0
46530,note_on,0,0,4,,,,,,,,,0,,,58,0
46530,note_on,0,0,1,,,,,,,,,0,,,67,120
46530,note_on,0,0,4,,,,,,,,,0,,,58,120
46560,note_on,0,0,1,,,,,,,,,0,,,68,120
46560,note_on,0,0,1,,,,,,,,,0,,,79,0
46560,note_on,0,0,1,,,,,,,,,0,,,80,120
46560,note_on,30,0,1,,,,,,,,,0,,,67,0
46560,note_on,0,0,4,,,,,,,,,0,,,58,120
46560,note_on,0,0,4,,,,,,,,,0,,,62,120
46560,control_change,120,0,5,,,,,,,,,0,64,0,,
46560,note_on,30,0,4,,,,,,,,,0,,,62,0
46560,note_on,0,0,4,,,,,,,,,0,,,58,0
46590,note_on,0,0,1,,,,,,,,,0,,,80,120
46590,note_on,30,0,1,,,,,,,,,0,,,68,0
46590,note_on,0,0,1,,,,,,,,,0,,,80,0
46590,note_on,0,0,1,,,,,,,,,0,,,68,120
46620,note_on,0,0,1,,,,,,,,,0,,,70,120
46620,note_on,0,0,1,,,,,,,,,0,,,80,0
46620,control_change,60,0,5,,,,,,,,,0,64,127,,
46620,note_on,0,0,1,,,,,,,,,0,,,82,120
46620,note_on,60,0,4,,,,,,,,,0,,,58,0
46620,note_on,0,0,4,,,,,,,,,0,,,39,120
46620,note_on,0,0,4,,,,,,,,,0,,,62,0
46620,note_on,30,0,1,,,,,,,,,0,,,68,0
46650,note_on,30,0,1,,,,,,,,,0,,,70,0
46650,note_on,0,0,1,,,,,,,,,0,,,82,120
46650,note_on,0,0,1,,,,,,,,,0,,,70,120
46650,note_on,0,0,1,,,,,,,,,0,,,82,0
46680,note_on,30,0,1,,,,,,,,,0,,,70,0
46680,note_on,0,0,1,,,,,,,,,0,,,82,0
46680,note_on,0,0,1,,,,,,,,,0,,,75,120
46680,note_on,60,0,4,,,,,,,,,0,,,39,0
46680,note_on,0,0,4,,,,,,,,,0,,,58,120
46680,note_on,0,0,4,,,,,,,,,0,,,55,120
46680,note_on,0,0,1,,,,,,,,,0,,,63,120
46710,note_on,0,0,1,,,,,,,,,0,,,75,120
46710,note_on,0,0,4,,,,,,,,,0,,,58,120
46710,note_on,0,0,4,,,,,,,,,0,,,58,0
46710,note_on,0,0,4,,,,,,,,,0,,,55,120
46710,note_on,0,0,1,,,,,,,,,0,,,63,120
46710,note_on,0,0,1,,,,,,,,,0,,,75,0
46710,note_on,30,0,4,,,,,,,,,0,,,55,0
46710,note_on,30,0,1,,,,,,,,,0,,,63,0
46740,note_on,0,0,4,,,,,,,,,0,,,63,120
46740,control_change,120,0,5,,,,,,,,,0,64,0,,
46740,note_on,30,0,4,,,,,,,,,0,,,55,0
46740,note_on,30,0,1,,,,,,,,,0,,,63,0
46740,note_on,0,0,1,,,,,,,,,0,,,75,0
46740,note_on,0,0,4,,,,,,,,,0,,,55,120
46740,note_on,0,0,1,,,,,,,,,0,,,87,120
46740,note_on,0,0,4,,,,,,,,,0,,,58,120
46740,note_on,0,0,1,,,,,,,,,0,,,75,120
46740,note_on,0,0,4,,,,,,,,,0,,,58,0
46770,note_on,0,0,1,,,,,,,,,0,,,75,120
46770,note_on,0,0,1,,,,,,,,,0,,,87,120
46770,note_on,0,0,1,,,,,,,,,0,,,87,0
46770,note_on,30,0,1,,,,,,,,,0,,,75,0
46800,note_on,0,0,1,,,,,,,,,0,,,87,0
46800,note_on,30,0,1,,,,,,,,,0,,,75,0
46800,note_on,0,0,1,,,,,,,,,0,,,87,120
46800,note_on,0,0,1,,,,,,,,,0,,,99,120
46800,note_on,0,0,3,,,,,,,,,0,,,67,120
46800,note_on,0,0,3,,,,,,,,,0,,,70,120
46800,note_on,0,0,4,,,,,,,,,0,,,63,0
46800,note_on,0,0,4,,,,,,,,,0,,,58,0
46800,note_on,360,0,3,,,,,,,,,0,,,75,120
46800,note_on,60,0,4,,,,,,,,,0,,,55,0
46830,note_on,30,0,1,,,,,,,,,0,,,87,0
46830,note_on,0,0,1,,,,,,,,,0,,,99,0
46830,note_on,0,0,1,,,,,,,,,0,,,99,120
46830,note_on,0,0,1,,,,,,,,,0,,,87,120
46860,note_on,0,0,1,,,,,,,,,0,,,87,120
46860,note_on,0,0,1,,,,,,,,,0,,,99,0
46860,note_on,0,0,1,,,,,,,,,0,,,99,120
46860,note_on,30,0,1,,,,,,,,,0,,,87,0
46860,note_on,60,0,3,,,,,,,,,0,,,67,0
46860,note_on,0,0,3,,,,,,,,,0,,,70,0
46860,note_on,0,0,3,,,,,,,,,0,,,75,0
46890,note_on,30,0,1,,,,,,,,,0,,,87,0
46890,note_on,0,0,1,,,,,,,,,0,,,87,120
46890,note_on,0,0,1,,,,,,,,,0,,,99,0
46890,note_on,0,0,1,,,,,,,,,0,,,99,120
46920,note_on,30,0,1,,,,,,,,,0,,,87,0
46920,note_on,0,0,1,,,,,,,,,0,,,99,0
46920,note_on,0,0,1,,,,,,,,,0,,,97,120
46920,note_on,0,0,1,,,,,,,,,0,,,85,120
46950,note_on,0,0,1,,,,,,,,,0,,,85,120
46950,note_on,30,0,1,,,,,,,,,0,,,85,0
46950,note_on,0,0,1,,,,,,,,,0,,,97,0
46950,note_on,0,0,1,,,,,,,,,0,,,97,120
46980,control_change,240,0,5,,,,,,,,,0,64,127,,
46980,note_on,0,0,4,,,,,,,,,0,,,44,120
46980,note_on,0,0,1,,,,,,,,,0,,,97,0
46980,note_on,0,0,1,,,,,,,,,0,,,96,120
46980,note_on,180,0,4,,,,,,,,,0,,,32,120
46980,note_on,0,0,1,,,,,,,,,0,,,84,120
46980,note_on,30,0,1,,,,,,,,,0,,,85,0
47010,note_on,30,0,1,,,,,,,,,0,,,84,0
47010,note_on,0,0,1,,,,,,,,,0,,,96,120
47010,note_on,0,0,1,,,,,,,,,0,,,96,0
47010,note_on,0,0,1,,,,,,,,,0,,,84,120
47040,note_on,0,0,1,,,,,,,,,0,,,96,0
47040,note_on,0,0,1,,,,,,,,,0,,,96,120
47040,note_on,0,0,1,,,,,,,,,0,,,84,120
47040,note_on,0,0,4,,,,,,,,,0,,,63,120
47040,note_on,0,0,4,,,,,,,,,0,,,57,120
47040,note_on,0,0,4,,,,,,,,,0,,,54,120
47040,note_on,0,0,4,,,,,,,,,0,,,32,0
47040,note_on,30,0,1,,,,,,,,,0,,,84,0
47040,note_on,60,0,4,,,,,,,,,0,,,44,0
47070,note_on,0,0,4,,,,,,,,,0,,,63,0
47070,note_on,0,0,4,,,,,,,,,0,,,57,120
47070,note_on,0,0,4,,,,,,,,,0,,,57,0
47070,note_on,0,0,4,,,,,,,,,0,,,54,120
47070,note_on,30,0,4,,,,,,,,,0,,,54,0
47070,note_on,30,0,1,,,,,,,,,0,,,84,0
47070,note_on,0,0,1,,,,,,,,,0,,,84,120
47070,note_on,0,0,1,,,,,,,,,0,,,96,0
47070,note_on,0,0,4,,,,,,,,,0,,,63,120
47070,note_on,0,0,1,,,,,,,,,0,,,96,120
47100,note_on,0,0,1,,,,,,,,,0,,,96,0
47100,note_on,0,0,1,,,,,,,,,0,,,93,120
47100,note_on,30,0,4,,,,,,,,,0,,,54,0
47100,note_on,0,0,4,,,,,,,,,0,,,63,120
47100,note_on,0,0,4,,,,,,,,,0,,,63,0
47100,note_on,0,0,4,,,,,,,,,0,,,57,0
47100,note_on,0,0,4,,,,,,,,,0,,,54,120
47100,control_change,120,0,5,,,,,,,,,0,64,0,,
47100,note_on,30,0,1,,,,,,,,,0,,,84,0
47100,note_on,0,0,1,,,,,,,,,0,,,81,120
47100,note_on,0,0,4,,,,,,,,,0,,,57,120
47130,note_on,0,0,1,,,,,,,,,0,,,81,120
47130,note_on,0,0,1,,,,,,,,,0,,,93,0
47130,note_on,0,0,1,,,,,,,,,0,,,93,120
47130,note_on,30,0,1,,,,,,,,,0,,,81,0
47160,note_on,30,0,1,,,,,,,,,0,,,81,0
47160,note_on,0,0,4,,,,,,,,,0,,,63,0
47160,note_on,0,0,1,,,,,,,,,0,,,92,120
47160,note_on,0,0,4,,,,,,,,,0,,,57,0
47160,note_on,0,0,4,,,,,,,,,0,,,48,120
47160,note_on,0,0,4,,,,,,,,,0,,,36,120
47160,note_on,60,0,4,,,,,,,,,0,,,54,0
47160,control_change,60,0,5,,,,,,,,,0,64,127,,
47160,note_on,0,0,1,,,,,,,,,0,,,93,0
47160,note_on,0,0,1,,,,,,,,,0,,,80,120
47190,note_on,0,0,1,,,,,,,,,0,,,92,120
47190,note_on,0,0,1,,,,,,,,,0,,,92,0
47190,note_on,0,0,1,,,,,,,,,0,,,80,120
47190,note_on,30,0,1,,,,,,,,,0,,,80,0
47220,note_on,360,0,3,,,,,,,,,0,,,69,120
47220,note_on,60,0,4,,,,,,,,,0,,,48,0
47220,note_on,0,0,3,,,,,,,,,0,,,57,120
47220,note_on,0,0,3,,,,,,,,,0,,,63,120
47220,note_on,0,0,4,,,,,,,,,0,,,36,0
47220,note_on,0,0,1,,,,,,,,,0,,,80,120
47220,note_on,0,0,1,,,,,,,,,0,,,92,0
47220,note_on,30,0,1,,,,,,,,,0,,,80,0
47220,note_on,0,0,1,,,,,,,,,0,,,92,120
47250,note_on,30,0,1,,,,,,,,,0,,,80,0
47250,note_on,0,0,1,,,,,,,,,0,,,92,120
47250,note_on,30,0,3,,,,,,,,,0,,,57,0
47250,note_on,0,0,1,,,,,,,,,0,,,92,0
47250,note_on,0,0,1,,,,,,,,,0,,,80,120
47250,note_on,0,0,3,,,,,,,,,0,,,69,0
47250,note_on,0,0,3,,,,,,,,,0,,,63,120
47250,note_on,0,0,3,,,,,,,,,0,,,63,0
47250,note_on,0,0,3,,,,,,,,,0,,,57,120
47250,note_on,0,0,3,,,,,,,,,0,,,69,120
47280,control_change,120,0,5,,,,,,,,,0,64,0,,
47280,note_on,30,0,3,,,,,,,,,0,,,57,0
47280,note_on,0,0,3,,,,,,,,,0,,,69,0
47280,note_on,0,0,3,,,,,,,,,0,,,63,120
47280,note_on,0,0,3,,,,,,,,,0,,,63,0
47280,note_on,0,0,3,,,,,,,,,0,,,57,120
47280,note_on,0,0,1,,,,,,,,,0,,,78,120
47280,note_on,0,0,1,,,,,,,,,0,,,90,120
47280,note_on,0,0,3,,,,,,,,,0,,,69,120
47280,note_on,30,0,1,,,,,,,,,0,,,80,0
47280,note_on,0,0,1,,,,,,,,,0,,,92,0
47310,note_on,30,0,1,,,,,,,,,0,,,78,0
47310,note_on,0,0,1,,,,,,,,,0,,,78,120
47310,note_on,0,0,1,,,,,,,,,0,,,90,0
47310,note_on,0,0,1,,,,,,,,,0,,,90,120
47340,note_on,0,0,4,,,,,,,,,0,,,49,120
47340,note_on,0,0,3,,,,,,,,,0,,,63,0
47340,note_on,0,0,3,,,,,,,,,0,,,57,0
47340,note_on,120,0,4,,,,,,,,,0,,,37,120
47340,note_on,0,0,1,,,,,,,,,0,,,90,0
47340,note_on,0,0,1,,,,,,,,,0,,,88,120
47340,note_on,0,0,1,,,,,,,,,0,,,76,120
47340,note_on,30,0,1,,,,,,,,,0,,,78,0
47340,note_on,60,0,3,,,,,,,,,0,,,69,0
47400,note_on,0,0,4,,,,,,,,,0,,,57,120
47400,note_on,0,0,4,,,,,,,,,0,,,52,120
47400,note_on,0,0,4,,,,,,,,,0,,,37,0
47400,note_on,0,0,4,,,,,,,,,0,,,61,120
47400,note_on,0,0,1,,,,,,,,,0,,,88,0
47400,note_on,0,0,1,,,,,,,,,0,,,73,120
47400,note_on,60,0,1,,,,,,,,,0,,,76,0
47400,note_on,0,0,1,,,,,,,,,0,,,69,120
47400,note_on,0,0,1,,,,,,,,,0,,,64,120
47400,note_on,60,0,4,,,,,,,,,0,,,49,0
47430,note_on,0,0,1,,,,,,,,,0,,,73,120
47430,note_on,0,0,4,,,,,,,,,0,,,52,0
47430,note_on,0,0,4,,,,,,,,,0,,,52,120
47430,note_on,0,0,4,,,,,,,,,0,,,57,0
47430,note_on,0,0,4,,,,,,,,,0,,,57,120
47430,note_on,0,0,4,,,,,,,,,0,,,61,120
47430,note_on,0,0,1,,,,,,,,,0,,,69,120
47430,note_on,0,0,1,,,,,,,,,0,,,73,0
47430,note_on,0,0,1,,,,,,,,,0,,,64,120
47430,note_on,0,0,1,,,,,,,,,0,,,69,0
47430,note_on,30,0,1,,,,,,,,,0,,,64,0
47430,note_on,30,0,4,,,,,,,,,0,,,61,0
47460,note_on,0,0,4,,,,,,,,,0,,,61,120
47460,note_on,30,0,1,,,,,,,,,0,,,64,0
47460,note_on,30,0,4,,,,,,,,,0,,,61,0
47460,note_on,0,0,4,,,,,,,,,0,,,51,120
47460,note_on,0,0,4,,,,,,,,,0,,,52,0
47460,note_on,0,0,4,,,,,,,,,0,,,57,0
47460,note_on,0,0,4,,,,,,,,,0,,,57,120
47460,note_on,0,0,1,,,,,,,,,0,,,64,120
47460,note_on,0,0,1,,,,,,,,,0,,,69,0
47460,note_on,0,0,1,,,,,,,,,0,,,73,0
47460,note_on,0,0,1,,,,,,,,,0,,,69,120
47460,note_on,0,0,1,,,,,,,,,0,,,75,120
47490,note_on,0,0,4,,,,,,,,,0,,,51,0
47490,note_on,0,0,4,,,,,,,,,0,,,51,120
47490,note_on,0,0,4,,,,,,,,,0,,,57,0
47490,note_on,0,0,4,,,,,,,,,0,,,57,120
47490,note_on,0,0,4,,,,,,,,,0,,,61,120
47490,note_on,0,0,1,,,,,,,,,0,,,75,120
47490,note_on,30,0,4,,,,,,,,,0,,,61,0
47490,note_on,0,0,1,,,,,,,,,0,,,64,120
47490,note_on,0,0,1,,,,,,,,,0,,,75,0
47490,note_on,30,0,1,,,,,,,,,0,,,64,0
47490,note_on,0,0,1,,,,,,,,,0,,,69,0
47490,note_on,0,0,1,,,,,,,,,0,,,69,120
47520,note_on,30,0,4,,,,,,,,,0,,,61,0
47520,note_on,0,0,4,,,,,,,,,0,,,49,120
47520,note_on,0,0,4,,,,,,,,,0,,,51,0
47520,note_on,30,0,1,,,,,,,,,0,,,64,0
47520,note_on,0,0,4,,,,,,,,,0,,,57,0
47520,note_on,0,0,4,,,,,,,,,0,,,61,120
47520,note_on,0,0,1,,,,,,,,,0,,,64,120
47520,note_on,0,0,1,,,,,,,,,0,,,69,0
47520,note_on,0,0,1,,,,,,,,,0,,,76,120
47520,note_on,0,0,1,,,,,,,,,0,,,69,120
47520,note_on,0,0,1,,,,,,,,,0,,,75,0
47520,note_on,0,0,4,,,,,,,,,0,,,57,120
47550,note_on,0,0,1,,,,,,,,,0,,,64,120
47550,note_on,30,0,4,,,,,,,,,0,,,61,0
47550,note_on,30,0,1,,,,,,,,,0,,,64,0
47550,note_on,0,0,1,,,,,,,,,0,,,69,0
47550,note_on,0,0,4,,,,,,,,,0,,,49,0
47550,note_on,0,0,4,,,,,,,,,0,,,49,120
47550,note_on,0,0,4,,,,,,,,,0,,,57,0
47550,note_on,0,0,1,,,,,,,,,0,,,76,0
47550,note_on,0,0,1,,,,,,,,,0,,,76,120
47550,note_on,0,0,1,,,,,,,,,0,,,69,120
47550,note_on,0,0,4,,,,,,,,,0,,,57,120
47550,note_on,0,0,4,,,,,,,,,0,,,61,120
47580,note_on,30,0,4,,,,,,,,,0,,,61,0
47580,note_on,0,0,4,,,,,,,,,0,,,61,120
47580,note_on,0,0,1,,,,,,,,,0,,,64,120
47580,note_on,0,0,1,,,,,,,,,0,,,69,0
47580,note_on,0,0,4,,,,,,,,,0,,,57,120
47580,note_on,0,0,4,,,,,,,,,0,,,57,0
47580,note_on,0,0,4,,,,,,,,,0,,,51,120
47580,note_on,0,0,4,,,,,,,,,0,,,49,0
47580,note_on,30,0,1,,,,,,,,,0,,,64,0
47580,note_on,0,0,1,,,,,,,,,0,,,75,120
47580,note_on,0,0,1,,,,,,,,,0,,,69,120
47580,note_on,0,0,1,,,,,,,,,0,,,76,0
47610,note_on,30,0,4,,,,,,,,,0,,,61,0
47610,note_on,0,0,1,,,,,,,,,0,,,64,120
47610,note_on,0,0,4,,,,,,,,,0,,,61,120
47610,note_on,0,0,4,,,,,,,,,0,,,57,120
47610,note_on,0,0,4,,,,,,,,,0,,,57,0
47610,note_on,30,0,1,,,,,,,,,0,,,64,0
47610,note_on,0,0,1,,,,,,,,,0,,,69,0
47610,note_on,0,0,1,,,,,,,,,0,,,69,120
47610,note_on,0,0,1,,,,,,,,,0,,,75,0
47610,note_on,0,0,1,,,,,,,,,0,,,75,120
47610,note_on,0,0,4,,,,,,,,,0,,,51,0
47610,note_on,0,0,4,,,,,,,,,0,,,51,120
47640,note_on,0,0,1,,,,,,,,,0,,,75,0
47640,note_on,0,0,1,,,,,,,,,0,,,69,0
47640,note_on,0,0,1,,,,,,,,,0,,,69,120
47640,note_on,0,0,1,,,,,,,,,0,,,73,120
47640,note_on,30,0,4,,,,,,,,,0,,,61,0
47640,note_on,0,0,1,,,,,,,,,0,,,64,120
47640,note_on,0,0,4,,,,,,,,,0,,,61,120
47640,note_on,0,0,4,,,,,,,,,0,,,57,120
47640,note_on,0,0,4,,,,,,,,,0,,,57,0
47640,note_on,0,0,4,,,,,,,,,0,,,52,120
47640,note_on,0,0,4,,,,,,,,,0,,,51,0
47640,note_on,30,0,1,,,,,,,,,0,,,64,0
47670,note_on,0,0,4,,,,,,,,,0,,,52,120
47670,note_on,0,0,1,,,,,,,,,0,,,69,120
47670,note_on,0,0,1,,,,,,,,,0,,,73,0
47670,note_on,0,0,4,,,,,,,,,0,,,57,0
47670,note_on,0,0,1,,,,,,,,,0,,,73,120
47670,note_on,0,0,4,,,,,,,,,0,,,57,120
47670,note_on,0,0,4,,,,,,,,,0,,,61,120
47670,note_on,0,0,1,,,,,,,,,0,,,69,0
47670,note_on,0,0,1,,,,,,,,,0,,,64,120
47670,note_on,0,0,4,,,,,,,,,0,,,52,0
47670,note_on,30,0,4,,,,,,,,,0,,,61,0
47670,note_on,30,0,1,,,,,,,,,0,,,64,0
47700,note_on,0,0,1,,,,,,,,,0,,,75,120
47700,note_on,30,0,4,,,,,,,,,0,,,61,0
47700,note_on,0,0,1,,,,,,,,,0,,,63,120
47700,note_on,0,0,1,,,,,,,,,0,,,68,120
47700,note_on,0,0,1,,,,,,,,,0,,,69,0
47700,note_on,0,0,1,,,,,,,,,0,,,71,120
47700,note_on,0,0,1,,,,,,,,,0,,,73,0
47700,note_on,0,0,4,,,,,,,,,0,,,56,120
47700,note_on,30,0,1,,,,,,,,,0,,,64,0
47700,note_on,0,0,4,,,,,,,,,0,,,51,120
47700,note_on,0,0,4,,,,,,,,,0,,,52,0
47700,note_on,0,0,4,,,,,,,,,0,,,57,0
47700,note_on,0,0,4,,,,,,,,,0,,,59,120
47730,note_on,0,0,1,,,,,,,,,0,,,68,0
47730,note_on,0,0,1,,,,,,,,,0,,,71,0
47730,note_on,30,0,1,,,,,,,,,0,,,63,0
47730,note_on,30,0,4,,,,,,,,,0,,,51,0
47730,note_on,0,0,1,,,,,,,,,0,,,76,120
47730,note_on,0,0,1,,,,,,,,,0,,,75,0
47730,note_on,0,0,1,,,,,,,,,0,,,64,120
47730,note_on,0,0,4,,,,,,,,,0,,,50,120
47730,note_on,0,0,4,,,,,,,,,0,,,56,0
47730,note_on,0,0,4,,,,,,,,,0,,,59,0
47730,note_on,0,0,4,,,,,,,,,0,,,62,120
47760,note_on,30,0,1,,,,,,,,,0,,,64,0
47760,note_on,0,0,1,,,,,,,,,0,,,65,120
47760,note_on,30,0,4,,,,,,,,,0,,,50,0
47760,note_on,0,0,1,,,,,,,,,0,,,76,0
47760,note_on,0,0,1,,,,,,,,,0,,,77,120
47760,note_on,0,0,4,,,,,,,,,0,,,49,120
47760,note_on,0,0,4,,,,,,,,,0,,,62,0
47760,note_on,0,0,4,,,,,,,,,0,,,61,120
47790,note_on,0,0,1,,,,,,,,,0,,,78,120
47790,note_on,0,0,1,,,,,,,,,0,,,77,0
47790,note_on,0,0,1,,,,,,,,,0,,,66,120
47790,note_on,30,0,1,,,,,,,,,0,,,65,0
47790,note_on,0,0,4,,,,,,,,,0,,,48,120
47790,note_on,0,0,4,,,,,,,,,0,,,60,120
47790,note_on,0,0,4,,,,,,,,,0,,,61,0
47790,note_on,30,0,4,,,,,,,,,0,,,49,0
47820,note_on,30,0,1,,,,,,,,,0,,,66,0
47820,note_on,0,0,4,,,,,,,,,0,,,47,120
47820,note_on,0,0,4,,,,,,,,,0,,,59,120
47820,note_on,0,0,4,,,,,,,,,0,,,60,0
47820,note_on,30,0,4,,,,,,,,,0,,,48,0
47820,note_on,0,0,1,,,,,,,,,0,,,67,120
47820,note_on,0,0,1,,,,,,,,,0,,,79,120
47820,note_on,0,0,1,,,,,,,,,0,,,78,0
47850,note_on,0,0,4,,,,,,,,,0,,,59,0
47850,note_on,0,0,1,,,,,,,,,0,,,79,0
47850,note_on,0,0,1,,,,,,,,,0,,,80,120
47850,note_on,0,0,4,,,,,,,,,0,,,46,120
47850,note_on,30,0,4,,,,,,,,,0,,,47,0
47850,note_on,0,0,4,,,,,,,,,0,,,58,120
47850,note_on,0,0,1,,,,,,,,,0,,,68,120
47850,note_on,30,0,1,,,,,,,,,0,,,67,0
47880,note_on,0,0,1,,,,,,,,,0,,,69,120
47880,note_on,0,0,1,,,,,,,,,0,,,80,0
47880,note_on,30,0,4,,,,,,,,,0,,,46,0
47880,note_on,0,0,4,,,,,,,,,0,,,45,120
47880,note_on,0,0,1,,,,,,,,,0,,,81,120
47880,note_on,30,0,1,,,,,,,,,0,,,68,0
47880,note_on,0,0,4,,,,,,,,,0,,,58,0
47880,note_on,0,0,4,,,,,,,,,0,,,57,120
47910,note_on,0,0,1,,,,,,,,,0,,,70,120
47910,note_on,0,0,1,,,,,,,,,0,,,81,0
47910,note_on,0,0,1,,,,,,,,,0,,,82,120
47910,note_on,0,0,4,,,,,,,,,0,,,57,0
47910,note_on,30,0,1,,,,,,,,,0,,,69,0
47910,note_on,0,0,4,,,,,,,,,0,,,44,120
47910,note_on,0,0,4,,,,,,,,,0,,,56,120
47910,note_on,30,0,4,,,,,,,,,0,,,45,0
47940,note_on,30,0,1,,,,,,,,,0,,,70,0
47940,note_on,30,0,4,,,,,,,,,0,,,44,0
47940,note_on,0,0,4,,,,,,,,,0,,,43,120
47940,note_on,0,0,4,,,,,,,,,0,,,55,120
47940,note_on,0,0,4,,,,,,,,,0,,,56,0
47940,note_on,0,0,1,,,,,,,,,0,,,83,120
47940,note_on,0,0,1,,,,,,,,,0,,,71,120
47940,note_on,0,0,1,,,,,,,,,0,,,82,0
47970,note_on,30,0,1,,,,,,,,,0,,,71,0
47970,note_on,0,0,1,,,,,,,,,0,,,84,120
47970,note_on,0,0,1,,,,,,,,,0,,,72,120
47970,note_on,0,0,4,,,,,,,,,0,,,54,120
47970,note_on,0,0,1,,,,,,,,,0,,,83,0
47970,note_on,30,0,4,,,,,,,,,0,,,43,0
47970,note_on,0,0,4,,,,,,,,,0,,,55,0
47970,note_on,0,0,4,,,,,,,,,0,,,42,120
48000,note_on,0,0,1,,,,,,,,,0,,,73,120
48000,note_on,0,0,1,,,,,,,,,0,,,85,120
48000,note_on,0,0,1,,,,,,,,,0,,,84,0
48000,note_on,30,0,4,,,,,,,,,0,,,42,0
48000,note_on,30,0,1,,,,,,,,,0,,,72,0
48000,note_on,0,0,4,,,,,,,,,0,,,41,120
48000,note_on,0,0,4,,,,,,,,,0,,,53,120
48000,note_on,0,0,4,,,,,,,,,0,,,54,0
48030,note_on,30,0,4,,,,,,,,,0,,,41,0
48030,note_on,30,0,1,,,,,,,,,0,,,73,0
48030,note_on,0,0,4,,,,,,,,,0,,,40,120
48030,note_on,0,0,4,,,,,,,,,0,,,53,0
48030,note_on,0,0,1,,,,,,,,,0,,,74,120
48030,note_on,0,0,1,,,,,,,,,0,,,85,0
48030,note_on,0,0,1,,,,,,,,,0,,,86,120
48030,note_on,0,0,4,,,,,,,,,0,,,52,120
48060,note_on,0,0,1,,,,,,,,,0,,,86,0
48060,note_on,0,0,4,,,,,,,,,0,,,39,120
48060,note_on,0,0,1,,,,,,,,,0,,,75,120
48060,note_on,0,0,1,,,,,,,,,0,,,79,120
48060,note_on,30,0,4,,,,,,,,,0,,,40,0
48060,note_on,0,0,1,,,,,,,,,0,,,82,120
48060,note_on,0,0,1,,,,,,,,,0,,,87,120
48060,note_on,0,0,4,,,,,,,,,0,,,46,120
48060,note_on,0,0,4,,,,,,,,,0,,,51,120
48060,note_on,0,0,4,,,,,,,,,0,,,52,0
48060,note_on,30,0,1,,,,,,,,,0,,,74,0
48060,note_on,0,0,4,,,,,,,,,0,,,43,120
48090,note_on,30,0,1,,,,,,,,,0,,,75,0
48090,note_on,30,0,4,,,,,,,,,0,,,39,0
48090,note_on,0,0,1,,,,,,,,,0,,,88,120
48090,note_on,0,0,1,,,,,,,,,0,,,87,0
48090,note_on,0,0,1,,,,,,,,,0,,,82,0
48090,note_on,0,0,1,,,,,,,,,0,,,76,120
48090,note_on,0,0,4,,,,,,,,,0,,,51,0
48090,note_on,0,0,4,,,,,,,,,0,,,50,120
48090,note_on,0,0,4,,,,,,,,,0,,,46,0
48090,note_on,0,0,4,,,,,,,,,0,,,43,0
48090,note_on,0,0,4,,,,,,,,,0,,,38,120
48090,note_on,0,0,1,,,,,,,,,0,,,79,0
48120,note_on,30,0,4,,,,,,,,,0,,,50,0
48120,note_on,30,0,1,,,,,,,,,0,,,76,0
48120,note_on,0,0,4,,,,,,,,,0,,,49,120
48120,note_on,0,0,4,,,,,,,,,0,,,37,120
48120,note_on,0,0,4,,,,,,,,,0,,,38,0
48120,note_on,0,0,1,,,,,,,,,0,,,77,120
48120,note_on,0,0,1,,,,,,,,,0,,,88,0
48120,note_on,0,0,1,,,,,,,,,0,,,89,120
48150,note_on,30,0,1,,,,,,,,,0,,,77,0
48150,note_on,0,0,1,,,,,,,,,0,,,89,0
48150,note_on,0,0,1,,,,,,,,,0,,,78,120
48150,note_on,30,0,4,,,,,,,,,0,,,49,0
48150,note_on,0,0,4,,,,,,,,,0,,,48,120
48150,note_on,0,0,1,,,,,,,,,0,,,90,120
48150,note_on,0,0,4,,,,,,,,,0,,,36,120
48150,note_on,0,0,4,,,,,,,,,0,,,37,0
48180,note_on,0,0,4,,,,,,,,,0,,,36,0
48180,note_on,0,0,4,,,,,,,,,0,,,47,120
48180,note_on,0,0,4,,,,,,,,,0,,,35,120
48180,note_on,0,0,1,,,,,,,,,0,,,79,120
48180,note_on,0,0,1,,,,,,,,,0,,,90,0
48180,note_on,30,0,4,,,,,,,,,0,,,48,0
48180,note_on,30,0,1,,,,,,,,,0,,,78,0
48180,note_on,0,0,1,,,,,,,,,0,,,91,120
48210,note_on,0,0,4,,,,,,,,,0,,,46,120
48210,note_on,30,0,4,,,,,,,,,0,,,47,0
48210,note_on,0,0,4,,,,,,,,,0,,,35,0
48210,note_on,0,0,1,,,,,,,,,0,,,80,120
48210,note_on,0,0,4,,,,,,,,,0,,,34,120
48210,note_on,0,0,1,,,,,,,,,0,,,91,0
48210,note_on,0,0,1,,,,,,,,,0,,,92,120
48210,note_on,30,0,1,,,,,,,,,0,,,79,0
48240,note_on,30,0,4,,,,,,,,,0,,,46,0
48240,note_on,0,0,1,,,,,,,,,0,,,81,120
48240,note_on,0,0,1,,,,,,,,,0,,,92,0
48240,note_on,0,0,1,,,,,,,,,0,,,93,120
48240,note_on,30,0,1,,,,,,,,,0,,,80,0
48240,note_on,0,0,4,,,,,,,,,0,,,34,0
48240,note_on,0,0,4,,,,,,,,,0,,,45,120
48240,note_on,0,0,4,,,,,,,,,0,,,33,120
48270,note_on,0,0,1,,,,,,,,,0,,,82,120
48270,note_on,0,0,4,,,,,,,,,0,,,32,120
48270,note_on,0,0,4,,,,,,,,,0,,,33,0
48270,note_on,0,0,4,,,,,,,,,0,,,44,120
48270,note_on,0,0,1,,,,,,,,,0,,,94,120
48270,note_on,30,0,4,,,,,,,,,0,,,45,0
48270,note_on,30,0,1,,,,,,,,,0,,,81,0
48270,note_on,0,0,1,,,,,,,,,0,,,93,0
48300,note_on,0,0,4,,,,,,,,,0,,,43,120
48300,note_on,0,0,1,,,,,,,,,0,,,94,0
48300,note_on,0,0,1,,,,,,,,,0,,,95,120
48300,note_on,30,0,4,,,,,,,,,0,,,44,0
48300,note_on,30,0,1,,,,,,,,,0,,,82,0
48300,note_on,0,0,4,,,,,,,,,0,,,31,120
48300,note_on,0,0,4,,,,,,,,,0,,,32,0
48300,note_on,0,0,1,,,,,,,,,0,,,83,120
48330,note_on,0,0,1,,,,,,,,,0,,,85,120
48330,note_on,0,0,1,,,,,,,,,0,,,95,0
48330,note_on,0,0,1,,,,,,,,,0,,,97,120
48330,note_on,30,0,1,,,,,,,,,0,,,83,0
48330,note_on,0,0,4,,,,,,,,,0,,,30,120
48330,note_on,0,0,4,,,,,,,,,0,,,31,0
48330,note_on,30,0,4,,,,,,,,,0,,,43,0
48330,note_on,0,0,4,,,,,,,,,0,,,42,120
48360,note_on,0,0,4,,,,,,,,,0,,,28,120
48360,note_on,0,0,4,,,,,,,,,0,,,30,0
48360,note_on,0,0,4,,,,,,,,,0,,,40,120
48360,note_on,0,0,1,,,,,,,,,0,,,86,120
48360,note_on,0,0,1,,,,,,,,,0,,,97,0
48360,note_on,0,0,1,,,,,,,,,0,,,98,120
48360,note_on,30,0,1,,,,,,,,,0,,,85,0
48360,note_on,30,0,4,,,,,,,,,0,,,42,0
48390,note_on,0,0,1,,,,,,,,,0,,,87,120
48390,note_on,0,0,1,,,,,,,,,0,,,98,0
48390,note_on,0,0,1,,,,,,,,,0,,,99,120
48390,note_on,0,0,4,,,,,,,,,0,,,28,0
48390,note_on,30,0,1,,,,,,,,,0,,,86,0
48390,note_on,30,0,4,,,,,,,,,0,,,40,0
48390,note_on,0,0,4,,,,,,,,,0,,,27,120
48390,note_on,0,0,4,,,,,,,,,0,,,39,120
48420,note_on,0,0,1,,,,,,,,,0,,,99,0
48420,note_on,30,0,1,,,,,,,,,0,,,87,0
48420,note_on,0,0,4,,,,,,,,,0,,,27,0
48420,note_on,0,0,4,,,,,,,,,0,,,32,120
48420,note_on,0,0,4,,,,,,,,,0,,,44,120
48420,control_change,1140,0,5,,,,,,,,,0,64,127,,
48420,end_of_track,0,1,0,,,,,,,,,,,,,
48420,marker,3240,1,0,,,,,,,,,,,,,
48420,note_on,0,0,1,,,,,,,,,0,,,68,120
48420,note_on,0,0,1,,,,,,,,,0,,,63,120
48420,note_on,30,0,4,,,,,,,,,0,,,39,0
48420,note_on,0,0,1,,,,,,,,,0,,,59,120
48480,note_on,0,0,4,,,,,,,,,0,,,32,0
48480,note_on,0,0,1,,,,,,,,,0,,,59,0
48480,note_on,0,0,1,,,,,,,,,0,,,63,0
48480,note_on,60,0,4,,,,,,,,,0,,,44,0
48480,note_on,0,0,4,,,,,,,,,0,,,39,120
48480,note_on,60,0,1,,,,,,,,,0,,,68,0
48480,note_on,0,0,4,,,,,,,,,0,,,51,120
48510,note_on,0,0,4,,,,,,,,,0,,,56,120
48510,note_on,0,0,4,,,,,,,,,0,,,44,120
48510,note_on,0,0,4,,,,,,,,,0,,,39,0
48510,note_on,30,0,4,,,,,,,,,0,,,51,0
48540,note_on,0,0,4,,,,,,,,,0,,,44,0
48540,note_on,0,0,4,,,,,,,,,0,,,51,120
48540,note_on,0,0,1,,,,,,,,,0,,,75,120
48540,note_on,0,0,4,,,,,,,,,0,,,63,120
48540,note_on,30,0,4,,,,,,,,,0,,,56,0
48540,note_on,0,0,1,,,,,,,,,0,,,71,120
48540,control_change,120,0,5,,,,,,,,,0,64,0,,
48540,note_on,60,0,1,,,,,,,,,0,,,83,120
48600,note_on,0,0,4,,,,,,,,,0,,,32,120
48600,note_on,0,0,1,,,,,,,,,0,,,75,120
48600,note_on,0,0,1,,,,,,,,,0,,,75,0
48600,note_on,60,0,4,,,,,,,,,0,,,63,0
48600,note_on,0,0,1,,,,,,,,,0,,,70,120
48600,control_change,60,0,5,,,,,,,,,0,64,127,,
48600,note_on,0,0,1,,,,,,,,,0,,,82,120
48600,note_on,0,0,4,,,,,,,,,0,,,44,120
48600,note_on,0,0,4,,,,,,,,,0,,,51,0
48600,note_on,0,0,1,,,,,,,,,0,,,83,0
48600,note_on,60,0,1,,,,,,,,,0,,,71,0
48630,note_on,30,0,1,,,,,,,,,0,,,70,0
48630,note_on,0,0,1,,,,,,,,,0,,,71,120
48630,note_on,0,0,1,,,,,,,,,0,,,75,0
48630,note_on,0,0,1,,,,,,,,,0,,,82,0
48630,note_on,0,0,1,,,,,,,,,0,,,83,120
48660,note_on,0,0,1,,,,,,,,,0,,,83,0
48660,note_on,0,0,1,,,,,,,,,0,,,85,120
48660,note_on,30,0,1,,,,,,,,,0,,,71,0
48660,note_on,60,0,4,,,,,,,,,0,,,44,0
48660,note_on,0,0,1,,,,,,,,,0,,,73,120
48660,note_on,0,0,4,,,,,,,,,0,,,32,0
48660,note_on,0,0,4,,,,,,,,,0,,,39,120
48660,note_on,0,0,4,,,,,,,,,0,,,51,120
48690,note_on,30,0,4,,,,,,,,,0,,,51,0
48690,note_on,0,0,4,,,,,,,,,0,,,56,120
48690,note_on,0,0,4,,,,,,,,,0,,,44,120
48690,note_on,0,0,4,,,,,,,,,0,,,39,0
48720,note_on,0,0,4,,,,,,,,,0,,,44,0
48720,note_on,0,0,4,,,,,,,,,0,,,51,120
48720,note_on,0,0,4,,,,,,,,,0,,,63,120
48720,note_on,0,0,1,,,,,,,,,0,,,71,120
48720,note_on,0,0,1,,,,,,,,,0,,,73,0
48720,control_change,120,0,5,,,,,,,,,0,64,0,,
48720,note_on,60,0,1,,,,,,,,,0,,,85,0
48720,note_on,30,0,4,,,,,,,,,0,,,56,0
48720,note_on,0,0,1,,,,,,,,,0,,,83,120
48720,note_on,0,0,1,,,,,,,,,0,,,75,120
48750,note_on,0,0,1,,,,,,,,,0,,,82,120
48750,note_on,0,0,1,,,,,,,,,0,,,70,120
48750,note_on,0,0,1,,,,,,,,,0,,,71,0
48750,note_on,30,0,1,,,,,,,,,0,,,83,0
48750,note_on,0,0,1,,,,,,,,,0,,,75,0
48780,note_on,0,0,1,,,,,,,,,0,,,70,0
48780,note_on,0,0,1,,,,,,,,,0,,,71,120
48780,note_on,0,0,4,,,,,,,,,0,,,44,120
48780,note_on,0,0,1,,,,,,,,,0,,,83,120
48780,note_on,0,0,4,,,,,,,,,0,,,32,120
48780,note_on,0,0,4,,,,,,,,,0,,,51,0
48780,note_on,0,0,1,,,,,,,,,0,,,75,120
48780,note_on,60,0,4,,,,,,,,,0,,,63,0
48780,control_change,60,0,5,,,,,,,,,0,64,127,,
48780,note_on,30,0,1,,,,,,,,,0,,,82,0
48810,note_on,0,0,1,,,,,,,,,0,,,85,120
48810,note_on,30,0,1,,,,,,,,,0,,,71,0
48810,note_on,0,0,1,,,,,,,,,0,,,83,0
48810,note_on,0,0,1,,,,,,,,,0,,,75,0
48810,note_on,0,0,1,,,,,,,,,0,,,73,120
48840,note_on,0,0,1,,,,,,,,,0,,,75,120
48840,note_on,60,0,4,,,,,,,,,0,,,44,0
48840,note_on,0,0,4,,,,,,,,,0,,,32,0
48840,note_on,0,0,4,,,,,,,,,0,,,39,120
48840,note_on,30,0,1,,,,,,,,,0,,,73,0
48840,note_on,0,0,4,,,,,,,,,0,,,51,120
48840,note_on,0,0,1,,,,,,,,,0,,,87,120
48840,note_on,0,0,1,,,,,,,,,0,,,85,0
48870,note_on,0,0,4,,,,,,,,,0,,,39,0
48870,note_on,0,0,4,,,,,,,,,0,,,44,120
48870,note_on,0,0,4,,,,,,,,,0,,,56,120
48870,note_on,30,0,4,,,,,,,,,0,,,51,0
48900,note_on,0,0,1,,,,,,,,,0,,,73,120
48900,note_on,0,0,1,,,,,,,,,0,,,85,120
48900,note_on,0,0,1,,,,,,,,,0,,,87,0
48900,control_change,120,0,5,,,,,,,,,0,64,0,,
48900,note_on,60,0,1,,,,,,,,,0,,,75,0
48900,note_on,0,0,4,,,,,,,,,0,,,44,0
48900,note_on,0,0,4,,,,,,,,,0,,,51,120
48900,note_on,0,0,4,,,,,,,,,0,,,63,120
48900,note_on,30,0,4,,,,,,,,,0,,,56,0
48930,note_on,0,0,1,,,,,,,,,0,,,85,0
48930,note_on,0,0,1,,,,,,,,,0,,,83,120
48930,note_on,0,0,1,,,,,,,,,0,,,71,120
48930,note_on,30,0,1,,,,,,,,,0,,,73,0
48960,note_on,0,0,4,,,,,,,,,0,,,51,0
48960,note_on,60,0,4,,,,,,,,,0,,,63,0
48960,note_on,0,0,4,,,,,,,,,0,,,32,120
48960,note_on,0,0,1,,,,,,,,,0,,,70,120
48960,note_on,0,0,4,,,,,,,,,0,,,44,120
48960,note_on,0,0,1,,,,,,,,,0,,,83,0
48960,control_change,60,0,5,,,,,,,,,0,64,127,,
48960,note_on,30,0,1,,,,,,,,,0,,,71,0
48960,note_on,0,0,1,,,,,,,,,0,,,82,120
48960,note_on,0,0,1,,,,,,,,,0,,,75,120
48990,note_on,0,0,1,,,,,,,,,0,,,83,120
48990,note_on,0,0,1,,,,,,,,,0,,,71,120
48990,note_on,0,0,1,,,,,,,,,0,,,75,0
48990,note_on,30,0,1,,,,,,,,,0,,,70,0
48990,note_on,0,0,1,,,,,,,,,0,,,82,0
49020,note_on,30,0,1,,,,,,,,,0,,,71,0
49020,note_on,0,0,1,,,,,,,,,0,,,83,0
49020,note_on,0,0,1,,,,,,,,,0,,,85,120
49020,note_on,60,0,4,,,,,,,,,0,,,32,0
49020,note_on,0,0,4,,,,,,,,,0,,,51,120
49020,note_on,0,0,4,,,,,,,,,0,,,44,0
49020,note_on,0,0,4,,,,,,,,,0,,,39,120
49020,note_on,0,0,1,,,,,,,,,0,,,73,120
49050,note_on,30,0,4,,,,,,,,,0,,,39,0
49050,note_on,0,0,4,,,,,,,,,0,,,56,120
49050,note_on,0,0,4,,,,,,,,,0,,,51,0
49050,note_on,0,0,4,,,,,,,,,0,,,44,120
49080,note_on,0,0,1,,,,,,,,,0,,,73,0
49080,note_on,0,0,1,,,,,,,,,0,,,71,120
49080,note_on,60,0,1,,,,,,,,,0,,,85,0
49080,note_on,0,0,4,,,,,,,,,0,,,63,120
49080,note_on,0,0,4,,,,,,,,,0,,,56,0
49080,note_on,0,0,4,,,,,,,,,0,,,51,120
49080,control_change,120,0,5,,,,,,,,,0,64,0,,
49080,note_on,30,0,4,,,,,,,,,0,,,44,0
49080,note_on,0,0,1,,,,,,,,,0,,,75,120
49080,note_on,0,0,1,,,,,,,,,0,,,83,120
49110,note_on,0,0,1,,,,,,,,,0,,,83,0
49110,note_on,0,0,1,,,,,,,,,0,,,82,120
49110,note_on,0,0,1,,,,,,,,,0,,,75,0
49110,note_on,0,0,1,,,,,,,,,0,,,70,120
49110,note_on,30,0,1,,,,,,,,,0,,,71,0
49140,note_on,60,0,4,,,,,,,,,0,,,51,0
49140,note_on,0,0,1,,,,,,,,,0,,,71,120
49140,note_on,0,0,4,,,,,,,,,0,,,63,0
49140,note_on,0,0,4,,,,,,,,,0,,,44,120
49140,control_change,60,0,5,,,,,,,,,0,64,127,,
49140,note_on,0,0,4,,,,,,,,,0,,,32,120
49140,note_on,0,0,1,,,,,,,,,0,,,83,120
49140,note_on,30,0,1,,,,,,,,,0,,,70,0
49140,note_on,0,0,1,,,,,,,,,0,,,75,120
49140,note_on,0,0,1,,,,,,,,,0,,,82,0
49170,note_on,0,0,1,,,,,,,,,0,,,70,120
49170,note_on,0,0,1,,,,,,,,,0,,,82,120
49170,note_on,0,0,1,,,,,,,,,0,,,75,0
49170,note_on,30,0,1,,,,,,,,,0,,,83,0
49170,note_on,0,0,1,,,,,,,,,0,,,71,0
49200,note_on,30,0,1,,,,,,,,,0,,,82,0
49200,note_on,60,0,4,,,,,,,,,0,,,44,0
49200,note_on,0,0,1,,,,,,,,,0,,,68,120
49200,note_on,0,0,1,,,,,,,,,0,,,70,0
49200,note_on,0,0,1,,,,,,,,,0,,,80,120
49200,note_on,0,0,4,,,,,,,,,0,,,32,0
49200,note_on,0,0,4,,,,,,,,,0,,,39,120
49200,note_on,0,0,4,,,,,,,,,0,,,51,120
49230,note_on,30,0,4,,,,,,,,,0,,,51,0
49230,note_on,0,0,4,,,,,,,,,0,,,39,0
49230,note_on,0,0,4,,,,,,,,,0,,,56,120
49230,note_on,0,0,4,,,,,,,,,0,,,44,120
49260,note_on,0,0,1,,,,,,,,,0,,,80,0
49260,note_on,0,0,1,,,,,,,,,0,,,83,120
49260,note_on,60,0,1,,,,,,,,,0,,,68,0
49260,note_on,0,0,1,,,,,,,,,0,,,95,120
49260,note_on,0,0,1,,,,,,,,,0,,,87,120
49260,note_on,30,0,4,,,,,,,,,0,,,56,0
49260,control_change,120,0,5,,,,,,,,,0,64,0,,
49260,note_on,0,0,4,,,,,,,,,0,,,63,120
49260,note_on,0,0,4,,,,,,,,,0,,,51,120
49260,note_on,0,0,4,,,,,,,,,0,,,44,0
49320,note_on,0,0,1,,,,,,,,,0,,,87,0
49320,note_on,0,0,4,,,,,,,,,0,,,51,0
49320,note_on,0,0,4,,,,,,,,,0,,,44,120
49320,note_on,0,0,4,,,,,,,,,0,,,32,120
49320,note_on,0,0,1,,,,,,,,,0,,,87,120
49320,note_on,0,0,1,,,,,,,,,0,,,82,120
49320,note_on,0,0,1,,,,,,,,,0,,,94,120
49320,note_on,60,0,4,,,,,,,,,0,,,63,0
49320,note_on,0,0,1,,,,,,,,,0,,,95,0
49320,control_change,60,0,5,,,,,,,,,0,64,127,,
49320,note_on,60,0,1,,,,,,,,,0,,,83,0
49350,note_on,0,0,1,,,,,,,,,0,,,83,120
49350,note_on,0,0,1,,,,,,,,,0,,,87,0
49350,note_on,0,0,1,,,,,,,,,0,,,95,120
49350,note_on,0,0,1,,,,,,,,,0,,,94,0
49350,note_on,30,0,1,,,,,,,,,0,,,82,0
49380,note_on,0,0,4,,,,,,,,,0,,,51,120
49380,note_on,0,0,4,,,,,,,,,0,,,39,120
49380,note_on,0,0,4,,,,,,,,,0,,,32,0
49380,note_on,30,0,1,,,,,,,,,0,,,83,0
49380,note_on,60,0,4,,,,,,,,,0,,,44,0
49380,note_on,0,0,1,,,,,,,,,0,,,85,120
49380,note_on,0,0,1,,,,,,,,,0,,,95,0
49380,note_on,0,0,1,,,,,,,,,0,,,97,120
49410,note_on,0,0,4,,,,,,,,,0,,,44,120
49410,note_on,0,0,4,,,,,,,,,0,,,56,120
49410,note_on,30,0,4,,,,,,,,,0,,,51,0
49410,note_on,0,0,4,,,,,,,,,0,,,39,0
49440,note_on,30,0,4,,,,,,,,,0,,,56,0
49440,note_on,0,0,4,,,,,,,,,0,,,63,120
49440,note_on,0,0,1,,,,,,,,,0,,,83,120
49440,control_change,120,0,5,,,,,,,,,0,64,0,,
49440,note_on,0,0,1,,,,,,,,,0,,,95,120
49440,note_on,0,0,4,,,,,,,,,0,,,51,120
49440,note_on,60,0,1,,,,,,,,,0,,,97,0
49440,note_on,0,0,4,,,,,,,,,0,,,44,0
49440,note_on,0,0,1,,,,,,,,,0,,,85,0
49440,note_on,0,0,1,,,,,,,,,0,,,87,120
49470,note_on,0,0,1,,,,,,,,,0,,,82,120
49470,note_on,0,0,1,,,,,,,,,0,,,87,0
49470,note_on,0,0,1,,,,,,,,,0,,,94,120
49470,note_on,0,0,1,,,,,,,,,0,,,95,0
49470,note_on,30,0,1,,,,,,,,,0,,,83,0
49500,note_on,0,0,4,,,,,,,,,0,,,32,120
49500,note_on,0,0,4,,,,,,,,,0,,,51,0
49500,note_on,30,0,1,,,,,,,,,0,,,94,0
49500,control_change,60,0,5,,,,,,,,,0,64,127,,
49500,note_on,0,0,4,,,,,,,,,0,,,44,120
49500,note_on,0,0,1,,,,,,,,,0,,,83,120
49500,note_on,60,0,4,,,,,,,,,0,,,63,0
49500,note_on,0,0,1,,,,,,,,,0,,,82,0
49500,note_on,0,0,1,,,,,,,,,0,,,87,120
49500,note_on,0,0,1,,,,,,,,,0,,,95,120
49530,note_on,30,0,1,,,,,,,,,0,,,95,0
49530,note_on,0,0,1,,,,,,,,,0,,,87,0
49530,note_on,0,0,1,,,,,,,,,0,,,85,120
49530,note_on,0,0,1,,,,,,,,,0,,,83,0
49530,note_on,0,0,1,,,,,,,,,0,,,97,120
49560,note_on,0,0,1,,,,,,,,,0,,,85,0
49560,note_on,0,0,1,,,,,,,,,0,,,87,120
49560,note_on,0,0,1,,,,,,,,,0,,,99,120
49560,note_on,0,0,4,,,,,,,,,0,,,39,120
49560,note_on,0,0,4,,,,,,,,,0,,,51,120
49560,note_on,60,0,4,,,,,,,,,0,,,44,0
49560,note_on,30,0,1,,,,,,,,,0,,,97,0
49560,note_on,0,0,4,,,,,,,,,0,,,32,0
49590,note_on,30,0,4,,,,,,,,,0,,,51,0
49590,note_on,0,0,4,,,,,,,,,0,,,56,120
49590,note_on,0,0,4,,,,,,,,,0,,,44,120
49590,note_on,0,0,4,,,,,,,,,0,,,39,0
49620,note_on,0,0,1,,,,,,,,,0,,,87,0
49620,note_on,0,0,1,,,,,,,,,0,,,97,120
49620,control_change,120,0,5,,,,,,,,,0,64,0,,
49620,note_on,0,0,1,,,,,,,,,0,,,85,120
49620,note_on,30,0,4,,,,,,,,,0,,,56,0
49620,note_on,60,0,1,,,,,,,,,0,,,99,0
49620,note_on,0,0,4,,,,,,,,,0,,,44,0
49620,note_on,0,0,4,,,,,,,,,0,,,51,120
49620,note_on,0,0,4,,,,,,,,,0,,,63,120
49650,note_on,0,0,1,,,,,,,,,0,,,95,120
49650,note_on,30,0,1,,,,,,,,,0,,,97,0
49650,note_on,0,0,1,,,,,,,,,0,,,83,120
49650,note_on,0,0,1,,,,,,,,,0,,,85,0
49680,note_on,0,0,1,,,,,,,,,0,,,94,120
49680,note_on,0,0,1,,,,,,,,,0,,,87,120
49680,note_on,30,0,1,,,,,,,,,0,,,95,0
49680,control_change,60,0,5,,,,,,,,,0,64,127,,
49680,note_on,0,0,1,,,,,,,,,0,,,83,0
49680,note_on,0,0,4,,,,,,,,,0,,,51,0
49680,note_on,0,0,1,,,,,,,,,0,,,82,120
49680,note_on,0,0,4,,,,,,,,,0,,,32,120
49680,note_on,0,0,4,,,,,,,,,0,,,44,120
49680,note_on,60,0,4,,,,,,,,,0,,,63,0
49710,note_on,0,0,1,,,,,,,,,0,,,82,0
49710,note_on,0,0,1,,,,,,,,,0,,,83,120
49710,note_on,0,0,1,,,,,,,,,0,,,95,120
49710,note_on,30,0,1,,,,,,,,,0,,,94,0
49710,note_on,0,0,1,,,,,,,,,0,,,87,0
49740,note_on,0,0,4,,,,,,,,,0,,,32,0
49740,note_on,60,0,4,,,,,,,,,0,,,44,0
49740,note_on,30,0,1,,,,,,,,,0,,,95,0
49740,note_on,0,0,1,,,,,,,,,0,,,83,0
49740,note_on,0,0,1,,,,,,,,,0,,,85,120
49740,note_on,0,0,4,,,,,,,,,0,,,39,120
49740,note_on,0,0,1,,,,,,,,,0,,,97,120
49740,note_on,0,0,4,,,,,,,,,0,,,51,120
49770,note_on,30,0,4,,,,,,,,,0,,,51,0
49770,note_on,0,0,4,,,,,,,,,0,,,44,120
49770,note_on,0,0,4,,,,,,,,,0,,,56,120
49770,note_on,0,0,4,,,,,,,,,0,,,39,0
49800,note_on,0,0,4,,,,,,,,,0,,,63,120
49800,note_on,0,0,4,,,,,,,,,0,,,51,120
49800,note_on,0,0,4,,,,,,,,,0,,,44,0
49800,note_on,0,0,1,,,,,,,,,0,,,83,120
49800,note_on,0,0,1,,,,,,,,,0,,,85,0
49800,note_on,0,0,1,,,,,,,,,0,,,87,120
49800,note_on,0,0,1,,,,,,,,,0,,,95,120
49800,note_on,60,0,1,,,,,,,,,0,,,97,0
49800,control_change,120,0,5,,,,,,,,,0,64,0,,
49800,note_on,30,0,4,,,,,,,,,0,,,56,0
49830,note_on,0,0,1,,,,,,,,,0,,,94,120
49830,note_on,0,0,1,,,,,,,,,0,,,83,0
49830,note_on,30,0,1,,,,,,,,,0,,,95,0
49830,note_on,0,0,1,,,,,,,,,0,,,82,120
49830,note_on,0,0,1,,,,,,,,,0,,,87,0
49860,note_on,0,0,1,,,,,,,,,0,,,83,120
49860,control_change,60,0,5,,,,,,,,,0,64,127,,
49860,note_on,60,0,4,,,,,,,,,0,,,63,0
49860,note_on,0,0,1,,,,,,,,,0,,,82,0
49860,note_on,0,0,4,,,,,,,,,0,,,51,0
49860,note_on,0,0,1,,,,,,,,,0,,,95,120
49860,note_on,0,0,1,,,,,,,,,0,,,87,120
49860,note_on,30,0,1,,,,,,,,,0,,,94,0
49860,note_on,0,0,4,,,,,,,,,0,,,32,120
49860,note_on,0,0,4,,,,,,,,,0,,,44,120
49890,note_on,0,0,1,,,,,,,,,0,,,82,120
49890,note_on,30,0,1,,,,,,,,,0,,,95,0
49890,note_on,0,0,1,,,,,,,,,0,,,83,0
49890,note_on,0,0,1,,,,,,,,,0,,,87,0
49890,note_on,0,0,1,,,,,,,,,0,,,94,120
49920,note_on,0,0,4,,,,,,,,,0,,,39,120
49920,note_on,0,0,4,,,,,,,,,0,,,51,120
49920,note_on,0,0,1,,,,,,,,,0,,,82,0
49920,note_on,0,0,1,,,,,,,,,0,,,92,120
49920,note_on,30,0,1,,,,,,,,,0,,,94,0
49920,note_on,0,0,1,,,,,,,,,0,,,80,120
49920,note_on,60,0,4,,,,,,,,,0,,,44,0
49920,note_on,0,0,4,,,,,,,,,0,,,32,0
49950,note_on,0,0,4,,,,,,,,,0,,,44,120
49950,note_on,0,0,4,,,,,,,,,0,,,56,120
49950,note_on,0,0,4,,,,,,,,,0,,,39,0
49950,note_on,30,0,4,,,,,,,,,0,,,51,0
49980,note_on,30,0,4,,,,,,,,,0,,,56,0
49980,note_on,0,0,4,,,,,,,,,0,,,44,0
49980,note_on,0,0,4,,,,,,,,,0,,,47,120
49980,note_on,0,0,4,,,,,,,,,0,,,51,120
49980,note_on,0,0,1,,,,,,,,,0,,,80,0
49980,control_change,120,0,5,,,,,,,,,0,64,0,,
49980,note_on,0,0,1,,,,,,,,,0,,,75,120
49980,note_on,0,0,1,,,,,,,,,0,,,71,120
49980,note_on,0,0,1,,,,,,,,,0,,,63,120
49980,note_on,60,0,1,,,,,,,,,0,,,92,0
49980,note_on,0,0,4,,,,,,,,,0,,,59,120
50040,note_on,0,0,4,,,,,,,,,0,,,46,120
50040,note_on,0,0,4,,,,,,,,,0,,,47,0
50040,note_on,0,0,4,,,,,,,,,0,,,58,120
50040,note_on,0,0,4,,,,,,,,,0,,,51,0
50040,note_on,0,0,4,,,,,,,,,0,,,51,120
50040,note_on,0,0,1,,,,,,,,,0,,,75,120
50040,note_on,0,0,1,,,,,,,,,0,,,71,0
50040,note_on,0,0,1,,,,,,,,,0,,,70,120
50040,note_on,0,0,1,,,,,,,,,0,,,63,120
50040,note_on,0,0,1,,,,,,,,,0,,,63,0
50040,control_change,60,0,5,,,,,,,,,0,64,127,,
50040,note_on,60,0,1,,,,,,,,,0,,,75,0
50040,note_on,60,0,4,,,,,,,,,0,,,59,0
50070,note_on,30,0,4,,,,,,,,,0,,,58,0
50070,note_on,30,0,1,,,,,,,,,0,,,75,0
50070,note_on,0,0,4,,,,,,,,,0,,,47,120
50070,note_on,0,0,4,,,,,,,,,0,,,51,0
50070,note_on,0,0,4,,,,,,,,,0,,,46,0
50070,note_on,0,0,1,,,,,,,,,0,,,75,120
50070,note_on,0,0,1,,,,,,,,,0,,,70,0
50070,note_on,0,0,1,,,,,,,,,0,,,63,120
50070,note_on,0,0,1,,,,,,,,,0,,,63,0
50070,note_on,0,0,1,,,,,,,,,0,,,71,120
50070,note_on,0,0,4,,,,,,,,,0,,,51,120
50070,note_on,0,0,4,,,,,,,,,0,,,59,120
50100,note_on,0,0,4,,,,,,,,,0,,,61,120
50100,note_on,0,0,1,,,,,,,,,0,,,63,0
50100,note_on,0,0,1,,,,,,,,,0,,,63,120
50100,note_on,0,0,1,,,,,,,,,0,,,71,0
50100,note_on,30,0,1,,,,,,,,,0,,,75,0
50100,note_on,0,0,4,,,,,,,,,0,,,51,120
50100,note_on,0,0,1,,,,,,,,,0,,,73,120
50100,note_on,0,0,4,,,,,,,,,0,,,47,0
50100,note_on,0,0,4,,,,,,,,,0,,,49,120
50100,note_on,0,0,4,,,,,,,,,0,,,51,0
50100,note_on,0,0,1,,,,,,,,,0,,,75,120
50100,note_on,30,0,4,,,,,,,,,0,,,59,0
50160,note_on,0,0,1,,,,,,,,,0,,,71,120
50160,note_on,0,0,1,,,,,,,,,0,,,73,0
50160,note_on,0,0,1,,,,,,,,,0,,,75,120
50160,note_on,0,0,1,,,,,,,,,0,,,63,120
50160,note_on,0,0,1,,,,,,,,,0,,,63,0
50160,note_on,60,0,4,,,,,,,,,0,,,61,0
50160,note_on,0,0,4,,,,,,,,,0,,,59,120
50160,note_on,0,0,4,,,,,,,,,0,,,51,120
50160,note_on,0,0,4,,,,,,,,,0,,,51,0
50160,note_on,0,0,4,,,,,,,,,0,,,49,0
50160,note_on,0,0,4,,,,,,,,,0,,,47,120
50160,control_change,120,0,5,,,,,,,,,0,64,0,,
50160,note_on,60,0,1,,,,,,,,,0,,,75,0
50190,note_on,0,0,1,,,,,,,,,0,,,63,0
50190,note_on,0,0,1,,,,,,,,,0,,,63,120
50190,note_on,0,0,1,,,,,,,,,0,,,70,120
50190,note_on,0,0,1,,,,,,,,,0,,,71,0
50190,note_on,0,0,1,,,,,,,,,0,,,75,120
50190,note_on,0,0,4,,,,,,,,,0,,,58,120
50190,note_on,30,0,1,,,,,,,,,0,,,75,0
50190,note_on,0,0,4,,,,,,,,,0,,,51,120
50190,note_on,0,0,4,,,,,,,,,0,,,51,0
50190,note_on,30,0,4,,,,,,,,,0,,,59,0
50190,note_on,0,0,4,,,,,,,,,0,,,47,0
50190,note_on,0,0,4,,,,,,,,,0,,,46,120
50220,note_on,0,0,4,,,,,,,,,0,,,51,0
50220,note_on,0,0,4,,,,,,,,,0,,,47,120
50220,note_on,0,0,4,,,,,,,,,0,,,46,0
50220,note_on,30,0,1,,,,,,,,,0,,,75,0
50220,note_on,30,0,4,,,,,,,,,0,,,58,0
50220,note_on,0,0,1,,,,,,,,,0,,,63,0
50220,note_on,0,0,1,,,,,,,,,0,,,63,120
50220,note_on,0,0,1,,,,,,,,,0,,,70,0
50220,note_on,0,0,1,,,,,,,,,0,,,71,120
50220,note_on,0,0,1,,,,,,,,,0,,,75,120
50220,note_on,0,0,4,,,,,,,,,0,,,51,120
50220,note_on,0,0,4,,,,,,,,,0,,,59,120
50220,control_change,60,0,5,,,,,,,,,0,64,127,,
50250,note_on,0,0,4,,,,,,,,,0,,,47,0
50250,note_on,0,0,1,,,,,,,,,0,,,63,120
50250,note_on,0,0,1,,,,,,,,,0,,,63,0
50250,note_on,0,0,1,,,,,,,,,0,,,75,120
50250,note_on,0,0,4,,,,,,,,,0,,,46,120
50250,note_on,30,0,4,,,,,,,,,0,,,59,0
50250,note_on,0,0,1,,,,,,,,,0,,,70,120
50250,note_on,30,0,1,,,,,,,,,0,,,75,0
50250,note_on,0,0,1,,,,,,,,,0,,,71,0
50250,note_on,0,0,4,,,,,,,,,0,,,51,0
50250,note_on,0,0,4,,,,,,,,,0,,,51,120
50250,note_on,0,0,4,,,,,,,,,0,,,58,120
50280,note_on,0,0,1,,,,,,,,,0,,,63,0
50280,note_on,0,0,1,,,,,,,,,0,,,63,120
50280,note_on,0,0,1,,,,,,,,,0,,,68,120
50280,note_on,0,0,1,,,,,,,,,0,,,70,0
50280,note_on,0,0,4,,,,,,,,,0,,,51,0
50280,note_on,0,0,4,,,,,,,,,0,,,51,120
50280,note_on,30,0,4,,,,,,,,,0,,,58,0
50280,note_on,30,0,1,,,,,,,,,0,,,75,0
50280,note_on,0,0,4,,,,,,,,,0,,,46,0
50280,note_on,0,0,4,,,,,,,,,0,,,56,120
50280,note_on,0,0,4,,,,,,,,,0,,,44,120
50280,note_on,0,0,1,,,,,,,,,0,,,75,120
50340,note_on,0,0,1,,,,,,,,,0,,,87,127
50340,note_on,0,0,1,,,,,,,,,0,,,63,0
50340,note_on,0,0,1,,,,,,,,,0,,,68,0
50340,note_on,0,0,1,,,,,,,,,0,,,75,127
50340,note_on,0,0,1,,,,,,,,,0,,,80,127
50340,note_on,0,0,4,,,,,,,,,0,,,51,0
50340,note_on,0,0,4,,,,,,,,,0,,,44,127
50340,note_on,0,0,4,,,,,,,,,0,,,44,0
50340,note_on,0,0,4,,,,,,,,,0,,,39,127
50340,note_on,0,0,4,,,,,,,,,0,,,32,127
50340,note_on,60,0,4,,,,,,,,,0,,,56,0
50340,control_change,120,0,5,,,,,,,,,0,64,0,,
50340,note_on,60,0,1,,,,,,,,,0,,,75,0
50355,note_on,0,0,4,,,,,,,,,0,,,32,0
50355,note_on,15,0,4,,,,,,,,,0,,,44,0
50355,note_on,15,0,1,,,,,,,,,0,,,87,0
50355,note_on,0,0,1,,,,,,,,,0,,,75,0
50355,note_on,0,0,1,,,,,,,,,0,,,80,0
50355,note_on,0,0,4,,,,,,,,,0,,,39,0
50400,note_on,0,0,1,,,,,,,,,0,,,75,120
50400,note_on,0,0,1,,,,,,,,,0,,,70,120
50400,control_change,60,0,5,,,,,,,,,0,64,127,,
50400,note_on,0,0,4,,,,,,,,,0,,,58,120
50400,note_on,45,0,1,,,,,,,,,0,,,63,120
50400,note_on,45,0,4,,,,,,,,,0,,,46,120
50400,note_on,0,0,4,,,,,,,,,0,,,51,120
50430,note_on,0,0,1,,,,,,,,,0,,,63,0
50430,note_on,0,0,1,,,,,,,,,0,,,63,120
50430,note_on,0,0,1,,,,,,,,,0,,,70,0
50430,note_on,0,0,1,,,,,,,,,0,,,71,120
50430,note_on,0,0,1,,,,,,,,,0,,,75,120
50430,note_on,0,0,4,,,,,,,,,0,,,46,0
50430,note_on,0,0,4,,,,,,,,,0,,,47,120
50430,note_on,0,0,4,,,,,,,,,0,,,51,0
50430,note_on,0,0,4,,,,,,,,,0,,,51,120
50430,note_on,0,0,4,,,,,,,,,0,,,59,120
50430,note_on,30,0,1,,,,,,,,,0,,,75,0
50430,note_on,30,0,4,,,,,,,,,0,,,58,0
50460,note_on,0,0,4,,,,,,,,,0,,,61,120
50460,note_on,0,0,4,,,,,,,,,0,,,51,120
50460,note_on,0,0,4,,,,,,,,,0,,,51,0
50460,note_on,0,0,4,,,,,,,,,0,,,49,120
50460,note_on,0,0,4,,,,,,,,,0,,,47,0
50460,note_on,30,0,1,,,,,,,,,0,,,75,0
50460,note_on,30,0,4,,,,,,,,,0,,,59,0
50460,note_on,0,0,1,,,,,,,,,0,,,75,120
50460,note_on,0,0,1,,,,,,,,,0,,,63,0
50460,note_on,0,0,1,,,,,,,,,0,,,63,120
50460,note_on,0,0,1,,,,,,,,,0,,,71,0
50460,note_on,0,0,1,,,,,,,,,0,,,73,120
50520,note_on,0,0,1,,,,,,,,,0,,,75,120
50520,note_on,0,0,4,,,,,,,,,0,,,51,120
50520,note_on,60,0,4,,,,,,,,,0,,,61,0
50520,note_on,0,0,1,,,,,,,,,0,,,71,120
50520,control_change,120,0,5,,,,,,,,,0,64,0,,
50520,note_on,0,0,1,,,,,,,,,0,,,63,120
50520,note_on,0,0,4,,,,,,,,,0,,,47,120
50520,note_on,0,0,4,,,,,,,,,0,,,49,0
50520,note_on,0,0,4,,,,,,,,,0,,,51,0
50520,note_on,60,0,1,,,,,,,,,0,,,75,0
50520,note_on,0,0,1,,,,,,,,,0,,,73,0
50520,note_on,0,0,4,,,,,,,,,0,,,59,120
50520,note_on,0,0,1,,,,,,,,,0,,,63,0
50550,note_on,0,0,1,,,,,,,,,0,,,63,0
50550,note_on,30,0,1,,,,,,,,,0,,,75,0
50550,note_on,0,0,1,,,,,,,,,0,,,63,120
50550,note_on,0,0,1,,,,,,,,,0,,,70,120
50550,note_on,0,0,1,,,,,,,,,0,,,71,0
50550,note_on,0,0,1,,,,,,,,,0,,,75,120
50550,note_on,30,0,4,,,,,,,,,0,,,59,0
50550,note_on,0,0,4,,,,,,,,,0,,,51,0
50550,note_on,0,0,4,,,,,,,,,0,,,47,0
50550,note_on,0,0,4,,,,,,,,,0,,,46,120
50550,note_on,0,0,4,,,,,,,,,0,,,51,120
50550,note_on,0,0,4,,,,,,,,,0,,,58,120
50580,note_on,0,0,1,,,,,,,,,0,,,63,0
50580,note_on,30,0,1,,,,,,,,,0,,,75,0
50580,note_on,0,0,4,,,,,,,,,0,,,46,0
50580,note_on,0,0,4,,,,,,,,,0,,,47,120
50580,note_on,0,0,4,,,,,,,,,0,,,51,0
50580,note_on,30,0,4,,,,,,,,,0,,,58,0
50580,note_on,0,0,1,,,,,,,,,0,,,71,120
50580,note_on,0,0,1,,,,,,,,,0,,,63,120
50580,note_on,0,0,4,,,,,,,,,0,,,51,120
50580,note_on,0,0,1,,,,,,,,,0,,,70,0
50580,note_on,0,0,4,,,,,,,,,0,,,59,120
50580,note_on,0,0,1,,,,,,,,,0,,,75,120
50580,control_change,60,0,5,,,,,,,,,0,64,127,,
50610,note_on,0,0,1,,,,,,,,,0,,,70,120
50610,note_on,0,0,1,,,,,,,,,0,,,71,0
50610,note_on,0,0,1,,,,,,,,,0,,,63,0
50610,note_on,0,0,1,,,,,,,,,0,,,75,120
50610,note_on,0,0,1,,,,,,,,,0,,,63,120
50610,note_on,30,0,1,,,,,,,,,0,,,75,0
50610,note_on,0,0,4,,,,,,,,,0,,,47,0
50610,note_on,0,0,4,,,,,,,,,0,,,58,120
50610,note_on,0,0,4,,,,,,,,,0,,,51,120
50610,note_on,0,0,4,,,,,,,,,0,,,51,0
50610,note_on,30,0,4,,,,,,,,,0,,,59,0
50610,note_on,0,0,4,,,,,,,,,0,,,46,120
50640,note_on,0,0,4,,,,,,,,,0,,,56,120
50640,note_on,0,0,4,,,,,,,,,0,,,51,120
50640,note_on,0,0,4,,,,,,,,,0,,,51,0
50640,note_on,0,0,4,,,,,,,,,0,,,46,0
50640,note_on,0,0,4,,,,,,,,,0,,,44,120
50640,note_on,30,0,4,,,,,,,,,0,,,58,0
50640,note_on,30,0,1,,,,,,,,,0,,,75,0
50640,note_on,0,0,1,,,,,,,,,0,,,63,0
50640,note_on,0,0,1,,,,,,,,,0,,,63,120
50640,note_on,0,0,1,,,,,,,,,0,,,68,120
50640,note_on,0,0,1,,,,,,,,,0,,,70,0
50640,note_on,0,0,1,,,,,,,,,0,,,75,120
50700,note_on,0,0,4,,,,,,,,,0,,,51,0
50700,note_on,0,0,4,,,,,,,,,0,,,44,127
50700,note_on,0,0,4,,,,,,,,,0,,,44,0
50700,note_on,0,0,4,,,,,,,,,0,,,39,127
50700,note_on,0,0,4,,,,,,,,,0,,,32,127
50700,note_on,60,0,4,,,,,,,,,0,,,56,0
50700,note_on,0,0,1,,,,,,,,,0,,,80,127
50700,note_on,60,0,1,,,,,,,,,0,,,75,0
50700,note_on,0,0,1,,,,,,,,,0,,,68,0
50700,note_on,0,0,1,,,,,,,,,0,,,63,0
50700,note_on,0,0,1,,,,,,,,,0,,,87,127
50700,note_on,0,0,1,,,,,,,,,0,,,75,127
50715,note_on,0,0,4,,,,,,,,,0,,,39,0
50715,note_on,0,0,1,,,,,,,,,0,,,80,0
50715,note_on,15,0,4,,,,,,,,,0,,,44,0
50715,note_on,15,0,1,,,,,,,,,0,,,87,0
50715,note_on,0,0,4,,,,,,,,,0,,,32,0
50715,note_on,0,0,1,,,,,,,,,0,,,75,0
50760,note_on,0,0,1,,,,,,,,,0,,,71,120
50760,note_on,0,0,1,,,,,,,,,0,,,75,120
50760,note_on,0,0,4,,,,,,,,,0,,,51,120
50760,note_on,45,0,4,,,,,,,,,0,,,47,120
50760,note_on,0,0,4,,,,,,,,,0,,,59,120
50760,note_on,45,0,1,,,,,,,,,0,,,63,120
50790,note_on,0,0,4,,,,,,,,,0,,,58,120
50790,note_on,0,0,4,,,,,,,,,0,,,51,0
50790,note_on,0,0,4,,,,,,,,,0,,,47,0
50790,note_on,0,0,4,,,,,,,,,0,,,46,120
50790,note_on,0,0,4,,,,,,,,,0,,,51,120
50790,note_on,30,0,4,,,,,,,,,0,,,59,0
50790,note_on,0,0,1,,,,,,,,,0,,,63,0
50790,note_on,0,0,1,,,,,,,,,0,,,63,120
50790,note_on,0,0,1,,,,,,,,,0,,,70,120
50790,note_on,30,0,1,,,,,,,,,0,,,75,0
50790,note_on,0,0,1,,,,,,,,,0,,,71,0
50790,note_on,0,0,1,,,,,,,,,0,,,75,120
50820,note_on,30,0,1,,,,,,,,,0,,,75,0
50820,note_on,0,0,4,,,,,,,,,0,,,44,120
50820,note_on,0,0,4,,,,,,,,,0,,,46,0
50820,note_on,0,0,1,,,,,,,,,0,,,75,120
50820,note_on,0,0,1,,,,,,,,,0,,,70,0
50820,note_on,0,0,1,,,,,,,,,0,,,68,120
50820,note_on,30,0,4,,,,,,,,,0,,,58,0
50820,note_on,0,0,1,,,,,,,,,0,,,63,0
50820,note_on,0,0,1,,,,,,,,,0,,,63,120
50820,note_on,0,0,4,,,,,,,,,0,,,51,120
50820,note_on,0,0,4,,,,,,,,,0,,,56,120
50820,note_on,0,0,4,,,,,,,,,0,,,51,0
50880,note_on,0,0,4,,,,,,,,,0,,,44,0
50880,note_on,60,0,4,,,,,,,,,0,,,56,0
50880,note_on,0,0,4,,,,,,,,,0,,,32,127
50880,note_on,0,0,4,,,,,,,,,0,,,51,0
50880,note_on,0,0,4,,,,,,,,,0,,,44,127
50880,note_on,0,0,1,,,,,,,,,0,,,92,127
50880,note_on,0,0,4,,,,,,,,,0,,,39,127
50880,note_on,0,0,1,,,,,,,,,0,,,80,127
50880,note_on,0,0,1,,,,,,,,,0,,,87,127
50880,note_on,60,0,1,,,,,,,,,0,,,75,0
50880,note_on,0,0,1,,,,,,,,,0,,,63,0
50880,note_on,0,0,1,,,,,,,,,0,,,68,0
50895,note_on,0,0,1,,,,,,,,,0,,,80,0
50895,note_on,0,0,1,,,,,,,,,0,,,87,0
50895,note_on,15,0,1,,,,,,,,,0,,,92,0
50895,note_on,15,0,4,,,,,,,,,0,,,44,0
50895,note_on,0,0,4,,,,,,,,,0,,,39,0
50895,note_on,0,0,4,,,,,,,,,0,,,32,0
50940,note_on,45,0,1,,,,,,,,,0,,,63,120
50940,note_on,45,0,4,,,,,,,,,0,,,47,120
50940,note_on,0,0,4,,,,,,,,,0,,,51,120
50940,note_on,0,0,4,,,,,,,,,0,,,59,120
50940,note_on,0,0,1,,,,,,,,,0,,,71,120
50940,note_on,0,0,1,,,,,,,,,0,,,75,120
50970,note_on,0,0,4,,,,,,,,,0,,,47,0
50970,note_on,30,0,4,,,,,,,,,0,,,59,0
50970,note_on,0,0,4,,,,,,,,,0,,,58,120
50970,note_on,0,0,4,,,,,,,,,0,,,51,120
50970,note_on,0,0,1,,,,,,,,,0,,,75,120
50970,note_on,0,0,1,,,,,,,,,0,,,63,0
50970,note_on,0,0,4,,,,,,,,,0,,,51,0
50970,note_on,0,0,4,,,,,,,,,0,,,46,120
50970,note_on,0,0,1,,,,,,,,,0,,,63,120
50970,note_on,0,0,1,,,,,,,,,0,,,70,120
50970,note_on,0,0,1,,,,,,,,,0,,,71,0
50970,note_on,30,0,1,,,,,,,,,0,,,75,0
51000,note_on,0,0,1,,,,,,,,,0,,,75,120
51000,note_on,0,0,4,,,,,,,,,0,,,56,120
51000,note_on,0,0,1,,,,,,,,,0,,,63,120
51000,note_on,30,0,4,,,,,,,,,0,,,58,0
51000,note_on,0,0,1,,,,,,,,,0,,,68,120
51000,note_on,0,0,4,,,,,,,,,0,,,51,120
51000,note_on,0,0,4,,,,,,,,,0,,,51,0
51000,note_on,0,0,1,,,,,,,,,0,,,70,0
51000,note_on,0,0,4,,,,,,,,,0,,,46,0
51000,note_on,0,0,4,,,,,,,,,0,,,44,120
51000,note_on,0,0,1,,,,,,,,,0,,,63,0
51000,note_on,30,0,1,,,,,,,,,0,,,75,0
51060,note_on,0,0,1,,,,,,,,,0,,,63,0
51060,note_on,0,0,4,,,,,,,,,0,,,44,0
51060,note_on,0,0,1,,,,,,,,,0,,,83,127
51060,note_on,60,0,1,,,,,,,,,0,,,75,0
51060,note_on,0,0,1,,,,,,,,,0,,,87,127
51060,note_on,60,0,4,,,,,,,,,0,,,56,0
51060,note_on,0,0,1,,,,,,,,,0,,,95,127
51060,note_on,0,0,4,,,,,,,,,0,,,39,127
51060,note_on,0,0,4,,,,,,,,,0,,,32,127
51060,note_on,0,0,4,,,,,,,,,0,,,51,0
51060,note_on,0,0,1,,,,,,,,,0,,,68,0
51060,note_on,0,0,4,,,,,,,,,0,,,44,127
51075,note_on,0,0,4,,,,,,,,,0,,,32,0
51075,note_on,0,0,4,,,,,,,,,0,,,39,0
51075,note_on,15,0,4,,,,,,,,,0,,,44,0
51075,note_on,15,0,1,,,,,,,,,0,,,95,0
51075,note_on,0,0,1,,,,,,,,,0,,,87,0
51075,note_on,0,0,1,,,,,,,,,0,,,83,0
51120,note_on,0,0,4,,,,,,,,,0,,,51,120
51120,note_on,0,0,1,,,,,,,,,0,,,75,120
51120,note_on,0,0,1,,,,,,,,,0,,,71,120
51120,note_on,0,0,4,,,,,,,,,0,,,59,120
51120,note_on,45,0,1,,,,,,,,,0,,,63,120
51120,note_on,45,0,4,,,,,,,,,0,,,47,120
51150,note_on,0,0,1,,,,,,,,,0,,,70,120
51150,note_on,0,0,4,,,,,,,,,0,,,47,0
51150,note_on,0,0,4,,,,,,,,,0,,,51,0
51150,note_on,0,0,4,,,,,,,,,0,,,51,120
51150,note_on,0,0,4,,,,,,,,,0,,,58,120
51150,note_on,30,0,1,,,,,,,,,0,,,75,0
51150,note_on,30,0,4,,,,,,,,,0,,,59,0
51150,note_on,0,0,1,,,,,,,,,0,,,63,0
51150,note_on,0,0,1,,,,,,,,,0,,,63,120
51150,note_on,0,0,1,,,,,,,,,0,,,71,0
51150,note_on,0,0,4,,,,,,,,,0,,,46,120
51150,note_on,0,0,1,,,,,,,,,0,,,75,120
51180,note_on,30,0,1,,,,,,,,,0,,,75,0
51180,note_on,30,0,4,,,,,,,,,0,,,58,0
51180,note_on,0,0,4,,,,,,,,,0,,,56,120
51180,note_on,0,0,1,,,,,,,,,0,,,63,120
51180,note_on,0,0,4,,,,,,,,,0,,,51,120
51180,note_on,0,0,4,,,,,,,,,0,,,51,0
51180,note_on,0,0,4,,,,,,,,,0,,,46,0
51180,note_on,0,0,1,,,,,,,,,0,,,70,0
51180,note_on,0,0,1,,,,,,,,,0,,,75,120
51180,note_on,0,0,4,,,,,,,,,0,,,44,120
51180,note_on,0,0,1,,,,,,,,,0,,,63,0
51180,note_on,0,0,1,,,,,,,,,0,,,68,120
51240,note_on,0,0,4,,,,,,,,,0,,,44,127
51240,note_on,60,0,4,,,,,,,,,0,,,56,0
51240,note_on,0,0,1,,,,,,,,,0,,,92,127
51240,note_on,0,0,1,,,,,,,,,0,,,87,127
51240,note_on,0,0,1,,,,,,,,,0,,,68,0
51240,note_on,0,0,1,,,,,,,,,0,,,63,0
51240,note_on,0,0,4,,,,,,,,,0,,,39,127
51240,note_on,0,0,4,,,,,,,,,0,,,44,0
51240,note_on,0,0,4,,,,,,,,,0,,,51,0
51240,note_on,60,0,1,,,,,,,,,0,,,75,0
51240,note_on,0,0,1,,,,,,,,,0,,,99,127
51240,note_on,0,0,4,,,,,,,,,0,,,32,127
51360,note_on,0,0,4,,,,,,,,,0,,,32,0
51360,note_on,0,0,4,,,,,,,,,0,,,39,0
51360,note_on,120,0,4,,,,,,,,,0,,,44,0
51360,note_on,0,0,4,,,,,,,,,0,,,56,120
51360,note_on,0,0,4,,,,,,,,,0,,,51,120
51360,note_on,0,0,4,,,,,,,,,0,,,44,120
51360,note_on,0,0,1,,,,,,,,,0,,,87,0
51360,note_on,0,0,1,,,,,,,,,0,,,87,120
51360,note_on,0,0,1,,,,,,,,,0,,,92,0
51360,note_on,0,0,1,,,,,,,,,0,,,92,120
51360,note_on,120,0,1,,,,,,,,,0,,,99,0
51360,note_on,0,0,1,,,,,,,,,0,,,99,120
51420,note_on,0,0,4,,,,,,,,,0,,,68,120
51420,note_on,0,0,4,,,,,,,,,0,,,63,120
51420,note_on,0,0,4,,,,,,,,,0,,,56,120
51420,note_on,0,0,4,,,,,,,,,0,,,44,0
51420,note_on,0,0,1,,,,,,,,,0,,,99,120
51420,note_on,0,0,4,,,,,,,,,0,,,51,0
51420,note_on,0,0,1,,,,,,,,,0,,,92,0
51420,note_on,60,0,4,,,,,,,,,0,,,56,0
51420,note_on,0,0,1,,,,,,,,,0,,,87,120
51420,note_on,0,0,1,,,,,,,,,0,,,87,0
51420,note_on,0,0,1,,,,,,,,,0,,,92,120
51420,note_on,60,0,1,,,,,,,,,0,,,99,0
51480,note_on,60,0,1,,,,,,,,,0,,,99,0
51480,note_on,0,0,1,,,,,,,,,0,,,92,120
51480,note_on,4140,0,3,,,,,,,,,0,,,68,120
51480,note_on,0,0,1,,,,,,,,,0,,,99,120
51480,note_on,0,0,1,,,,,,,,,0,,,87,0
51480,note_on,0,0,3,,,,,,,,,0,,,80,120
51480,note_on,0,0,3,,,,,,,,,0,,,75,120
51480,note_on,0,0,1,,,,,,,,,0,,,87,120
51480,note_on,60,0,4,,,,,,,,,0,,,68,0
51480,note_on,0,0,1,,,,,,,,,0,,,92,0
51480,note_on,0,0,4,,,,,,,,,0,,,56,0
51480,note_on,0,0,4,,,,,,,,,0,,,63,0
51540,note_on,0,0,3,,,,,,,,,0,,,68,0
51540,note_on,0,0,4,,,,,,,,,0,,,68,120
51540,note_on,0,0,3,,,,,,,,,0,,,75,0
51540,note_on,0,0,4,,,,,,,,,0,,,63,120
51540,note_on,60,0,3,,,,,,,,,0,,,80,0
51540,note_on,0,0,1,,,,,,,,,0,,,92,120
51540,note_on,0,0,1,,,,,,,,,0,,,99,120
51540,note_on,0,0,1,,,,,,,,,0,,,87,120
51540,note_on,0,0,1,,,,,,,,,0,,,87,0
51540,note_on,60,0,4,,,,,,,,,0,,,56,120
51540,note_on,0,0,1,,,,,,,,,0,,,92,0
51540,note_on,60,0,1,,,,,,,,,0,,,99,0
51600,note_on,0,0,1,,,,,,,,,0,,,87,0
51600,note_on,0,0,1,,,,,,,,,0,,,87,120
51600,note_on,0,0,1,,,,,,,,,0,,,92,0
51600,note_on,0,0,1,,,,,,,,,0,,,92,120
51600,note_on,0,0,1,,,,,,,,,0,,,99,120
51600,note_on,60,0,4,,,,,,,,,0,,,68,0
51600,note_on,0,0,4,,,,,,,,,0,,,56,120
51600,note_on,0,0,4,,,,,,,,,0,,,44,120
51600,note_on,0,0,4,,,,,,,,,0,,,63,0
51600,note_on,60,0,1,,,,,,,,,0,,,99,0
51600,note_on,0,0,4,,,,,,,,,0,,,56,0
51600,note_on,0,0,4,,,,,,,,,0,,,51,120
51660,note_on,0,0,4,,,,,,,,,0,,,51,0
51660,note_on,0,0,4,,,,,,,,,0,,,44,120
51660,note_on,0,0,1,,,,,,,,,0,,,87,0
51660,note_on,60,0,4,,,,,,,,,0,,,56,0
51660,note_on,0,0,4,,,,,,,,,0,,,44,0
51660,note_on,60,0,1,,,,,,,,,0,,,99,0
51660,note_on,0,0,4,,,,,,,,,0,,,39,120
51660,note_on,0,0,4,,,,,,,,,0,,,32,120
51660,note_on,0,0,1,,,,,,,,,0,,,92,0
51660,note_on,0,0,1,,,,,,,,,0,,,99,120
51660,note_on,0,0,1,,,,,,,,,0,,,92,120
51660,note_on,0,0,1,,,,,,,,,0,,,87,120
51720,note_on,0,0,1,,,,,,,,,0,,,87,0
51720,note_on,60,0,1,,,,,,,,,0,,,99,0
51720,note_on,0,0,1,,,,,,,,,0,,,92,0
51720,note_on,0,0,4,,,,,,,,,0,,,39,0
51720,note_on,60,0,4,,,,,,,,,0,,,44,0
51720,note_on,0,0,4,,,,,,,,,0,,,32,0
51840,note_on,120,0,4,,,,,,,,,0,,,44,120
51840,note_on,0,0,1,,,,,,,,,0,,,63,120
51840,note_on,0,0,1,,,,,,,,,0,,,68,120
51840,note_on,0,0,4,,,,,,,,,0,,,51,120
51840,note_on,0,0,4,,,,,,,,,0,,,56,120
51840,note_on,120,0,1,,,,,,,,,0,,,59,120
51900,note_on,60,0,1,,,,,,,,,0,,,68,0
51900,note_on,0,0,4,,,,,,,,,0,,,44,0
51900,note_on,0,0,1,,,,,,,,,0,,,59,0
51900,note_on,0,0,1,,,,,,,,,0,,,63,0
51900,end_of_track,0,1,4,,,,,,,,,,,,,
51900,note_on,60,0,4,,,,,,,,,0,,,56,0
51900,note_on,0,0,4,,,,,,,,,0,,,51,0
51990,control_change,1410,0,5,,,,,,,,,0,64,0,,
52020,note_on,0,0,3,,,,,,,,,0,,,68,127
52020,note_on,120,0,1,,,,,,,,,0,,,92,127
52020,note_on,0,0,3,,,,,,,,,0,,,59,127
52020,note_on,0,0,3,,,,,,,,,0,,,63,127
52020,note_on,480,0,3,,,,,,,,,0,,,71,127
52020,note_on,0,0,1,,,,,,,,,0,,,83,127
52020,control_change,30,0,5,,,,,,,,,0,64,127,,
52020,note_on,0,0,1,,,,,,,,,0,,,80,127
52020,note_on,0,0,1,,,,,,,,,0,,,87,127
52380,end_of_track,0,1,1,,,,,,,,,,,,,
52380,end_of_track,0,1,3,,,,,,,,,,,,,
52380,note_on,0,0,1,,,,,,,,,0,,,83,0
52380,control_change,360,0,5,,,,,,,,,0,64,0,,
52380,note_on,0,0,3,,,,,,,,,0,,,71,0
52380,note_on,0,0,1,,,,,,,,,0,,,87,0
52380,note_on,0,0,3,,,,,,,,,0,,,63,0
52380,note_on,0,0,3,,,,,,,,,0,,,68,0
52380,note_on,360,0,1,,,,,,,,,0,,,80,0
52380,note_on,360,0,3,,,,,,,,,0,,,59,0
52380,note_on,0,0,1,,,,,,,,,0,,,92,0
52560,control_change,180,0,5,,,,,,,,,0,64,127,,
52740,control_change,180,0,5,,,,,,,,,0,64,0,,
52740,end_of_track,0,1,5,,,,,,,,,,,,,
