tick,type,time,meta,track,numerator,denominator,clocks_per_click,notated_32nd_notes_per_beat,key,tempo,port,program,channel,control,value,note,velocity
0,control_change,0,0,1,,,,,,,,,0,7,127,,
0,marker,0,1,0,,,,,,,,,,,,,
0,midi_port,0,1,1,,,,,,,0,,,,,,
0,midi_port,0,1,2,,,,,,,0,,,,,,
0,midi_port,0,1,3,,,,,,,0,,,,,,
0,midi_port,0,1,4,,,,,,,0,,,,,,
0,midi_port,0,1,5,,,,,,,0,,,,,,
0,midi_port,0,1,6,,,,,,,0,,,,,,
0,midi_port,0,1,7,,,,,,,0,,,,,,
0,note_on,0,0,1,,,,,,,,,0,,,63,100
0,track_name,0,1,6,,,,,,,,,,,,,
0,program_change,0,0,1,,,,,,,,0,0,,,,
0,key_signature,0,1,0,,,,,Eb,,,,,,,,
0,program_change,0,0,2,,,,,,,,0,0,,,,
0,program_change,0,0,4,,,,,,,,0,0,,,,
0,program_change,0,0,5,,,,,,,,0,0,,,,
0,set_tempo,0,1,0,,,,,,750000,,,,,,,
0,text,0,1,0,,,,,,,,,,,,,
0,time_signature,0,1,0,33,32,3,8,,,,,,,,,
0,track_name,0,1,0,,,,,,,,,,,,,
0,track_name,0,1,1,,,,,,,,,,,,,
0,track_name,0,1,2,,,,,,,,,,,,,
0,track_name,0,1,3,,,,,,,,,,,,,
0,track_name,0,1,4,,,,,,,,,,,,,
0,track_name,0,1,5,,,,,,,,,,,,,
0,program_change,0,0,3,,,,,,,,0,0,,,,
0,end_of_track,0,1,7,,,,,,,,,,,,,
0,track_name,0,1,7,,,,,,,,,,,,,
0,copyright,0,1,0,,,,,,,,,,,,,
0,control_change,0,0,1,,,,,,,,,0,10,64,,
0,control_change,0,0,2,,,,,,,,,0,7,127,,
0,control_change,0,0,5,,,,,,,,,0,10,64,,
0,end_of_track,0,1,6,,,,,,,,,,,,,
0,control_change,0,0,2,,,,,,,,,0,10,64,,
0,control_change,0,0,3,,,,,,,,,0,7,127,,
0,control_change,0,0,3,,,,,,,,,0,10,64,,
0,control_change,0,0,4,,,,,,,,,0,7,127,,
0,control_change,0,0,5,,,,,,,,,0,7,127,,
0,control_change,0,0,4,,,,,,,,,0,10,64,,
15,note_on,15,0,1,,,,,,,,,0,,,63,0
15,note_on,0,0,1,,,,,,,,,0,,,63,100
480,note_on,0,0,1,,,,,,,,,0,,,68,100
480,note_on,0,0,1,,,,,,,,,0,,,66,100
480,note_on,0,0,1,,,,,,,,,0,,,60,100
480,note_on,465,0,1,,,,,,,,,0,,,63,0
480,note_on,480,0,4,,,,,,,,,0,,,63,100
495,note_on,0,0,1,,,,,,,,,0,,,68,100
495,note_on,0,0,4,,,,,,,,,0,,,63,100
495,time_signature,495,1,0,4,4,24,8,,,,,,,,,
495,note_on,0,0,1,,,,,,,,,0,,,68,0
495,note_on,15,0,4,,,,,,,,,0,,,63,0
495,note_on,0,0,1,,,,,,,,,0,,,66,0
495,note_on,0,0,1,,,,,,,,,0,,,60,100
495,note_on,15,0,1,,,,,,,,,0,,,60,0
495,note_on,0,0,1,,,,,,,,,0,,,66,100
960,note_on,0,0,1,,,,,,,,,0,,,59,100
960,note_on,0,0,1,,,,,,,,,0,,,66,100
960,note_on,0,0,1,,,,,,,,,0,,,68,0
960,note_on,0,0,1,,,,,,,,,0,,,69,100
960,note_on,465,0,1,,,,,,,,,0,,,60,0
960,note_on,465,0,4,,,,,,,,,0,,,63,0
960,note_on,0,0,1,,,,,,,,,0,,,66,0
975,note_on,15,0,4,,,,,,,,,0,,,63,100
975,note_on,15,0,1,,,,,,,,,0,,,59,0
975,note_on,0,0,1,,,,,,,,,0,,,59,100
975,note_on,0,0,1,,,,,,,,,0,,,69,100
975,note_on,0,0,1,,,,,,,,,0,,,69,0
975,note_on,0,0,1,,,,,,,,,0,,,66,100
975,note_on,0,0,1,,,,,,,,,0,,,66,0
1095,note_on,0,0,1,,,,,,,,,0,,,66,0
1095,note_on,120,0,4,,,,,,,,,0,,,63,0
1095,note_on,120,0,1,,,,,,,,,0,,,59,0
1095,note_on,0,0,4,,,,,,,,,0,,,63,100
1095,note_on,0,0,1,,,,,,,,,0,,,69,100
1095,note_on,0,0,1,,,,,,,,,0,,,69,0
1095,note_on,0,0,1,,,,,,,,,0,,,66,100
1095,note_on,0,0,1,,,,,,,,,0,,,59,100
1215,note_on,0,0,4,,,,,,,,,0,,,62,100
1215,note_on,120,0,4,,,,,,,,,0,,,63,0
1215,note_on,0,0,4,,,,,,,,,0,,,53,100
1215,note_on,0,0,1,,,,,,,,,0,,,59,0
1215,note_on,0,0,1,,,,,,,,,0,,,65,100
1215,note_on,0,0,1,,,,,,,,,0,,,66,0
1215,note_on,0,0,1,,,,,,,,,0,,,69,100
1215,note_on,120,0,1,,,,,,,,,0,,,69,0
1335,note_on,0,0,4,,,,,,,,,0,,,53,0
1335,note_on,0,0,1,,,,,,,,,0,,,63,100
1335,note_on,0,0,1,,,,,,,,,0,,,69,0
1335,note_on,0,0,4,,,,,,,,,0,,,53,100
1335,note_on,0,0,1,,,,,,,,,0,,,69,100
1335,note_on,0,0,4,,,,,,,,,0,,,60,100
1335,note_on,120,0,4,,,,,,,,,0,,,62,0
1335,note_on,120,0,1,,,,,,,,,0,,,65,0
1455,note_on,120,0,4,,,,,,,,,0,,,60,0
1455,note_on,120,0,1,,,,,,,,,0,,,69,0
1455,time_signature,960,1,0,23,8,12,8,,,,,,,,,
1455,note_on,0,0,4,,,,,,,,,0,,,46,100
1455,note_on,0,0,4,,,,,,,,,0,,,53,0
1455,note_on,0,0,1,,,,,,,,,0,,,63,0
1465,note_on,10,0,4,,,,,,,,,0,,,53,100
1475,note_on,10,0,4,,,,,,,,,0,,,58,100
1485,note_on,30,0,1,,,,,,,,,0,,,62,100
1495,note_on,10,0,1,,,,,,,,,0,,,65,100
1505,note_on,10,0,1,,,,,,,,,0,,,70,100
1515,set_tempo,60,1,0,,,,,,1153846,,,,,,,
1695,note_on,220,0,4,,,,,,,,,0,,,58,0
1695,note_on,190,0,1,,,,,,,,,0,,,70,0
1695,note_on,0,0,4,,,,,,,,,0,,,53,0
1695,note_on,0,0,4,,,,,,,,,0,,,46,0
1695,note_on,0,0,1,,,,,,,,,0,,,70,100
1695,control_change,1695,0,5,,,,,,,,,0,64,127,,
1695,note_on,0,0,1,,,,,,,,,0,,,62,0
1695,note_on,0,0,1,,,,,,,,,0,,,65,0
1695,note_on,0,0,1,,,,,,,,,0,,,65,100
1695,set_tempo,180,1,0,,,,,,750000,,,,,,,
1695,note_on,0,0,1,,,,,,,,,0,,,74,100
1703,note_on,8,0,1,,,,,,,,,0,,,70,0
1703,note_on,0,0,1,,,,,,,,,0,,,65,0
1703,note_on,0,0,1,,,,,,,,,0,,,74,0
1710,note_on,0,0,1,,,,,,,,,0,,,65,101
1710,note_on,7,0,1,,,,,,,,,0,,,62,101
1718,note_on,8,0,1,,,,,,,,,0,,,65,0
1718,note_on,0,0,1,,,,,,,,,0,,,62,0
1725,note_on,0,0,1,,,,,,,,,0,,,70,102
1725,note_on,0,0,1,,,,,,,,,0,,,74,102
1725,note_on,7,0,1,,,,,,,,,0,,,77,102
1733,note_on,8,0,1,,,,,,,,,0,,,70,0
1733,note_on,0,0,1,,,,,,,,,0,,,77,0
1733,note_on,0,0,1,,,,,,,,,0,,,74,0
1740,note_on,0,0,1,,,,,,,,,0,,,70,104
1740,note_on,7,0,1,,,,,,,,,0,,,65,104
1748,note_on,0,0,1,,,,,,,,,0,,,65,0
1748,note_on,8,0,1,,,,,,,,,0,,,70,0
1755,note_on,0,0,1,,,,,,,,,0,,,74,105
1755,note_on,0,0,1,,,,,,,,,0,,,77,105
1755,note_on,7,0,1,,,,,,,,,0,,,82,105
1763,note_on,8,0,1,,,,,,,,,0,,,74,0
1763,note_on,0,0,1,,,,,,,,,0,,,77,0
1763,note_on,0,0,1,,,,,,,,,0,,,82,0
1770,note_on,0,0,1,,,,,,,,,0,,,74,107
1770,note_on,7,0,1,,,,,,,,,0,,,70,107
1778,note_on,8,0,1,,,,,,,,,0,,,74,0
1778,note_on,0,0,1,,,,,,,,,0,,,70,0
1785,note_on,0,0,1,,,,,,,,,0,,,77,108
1785,note_on,0,0,1,,,,,,,,,0,,,82,108
1785,note_on,7,0,1,,,,,,,,,0,,,86,108
1793,note_on,8,0,1,,,,,,,,,0,,,77,0
1793,note_on,0,0,1,,,,,,,,,0,,,82,0
1793,note_on,0,0,1,,,,,,,,,0,,,86,0
1800,note_on,7,0,1,,,,,,,,,0,,,74,110
1800,note_on,0,0,1,,,,,,,,,0,,,77,110
1808,note_on,8,0,1,,,,,,,,,0,,,77,0
1808,note_on,0,0,1,,,,,,,,,0,,,74,0
1815,note_on,7,0,1,,,,,,,,,0,,,89,111
1815,note_on,0,0,1,,,,,,,,,0,,,86,111
1815,note_on,0,0,1,,,,,,,,,0,,,82,111
1823,note_on,0,0,1,,,,,,,,,0,,,89,0
1823,note_on,0,0,1,,,,,,,,,0,,,86,0
1823,note_on,8,0,1,,,,,,,,,0,,,82,0
1830,note_on,0,0,1,,,,,,,,,0,,,82,113
1830,note_on,7,0,1,,,,,,,,,0,,,77,113
1838,note_on,8,0,1,,,,,,,,,0,,,82,0
1838,note_on,0,0,1,,,,,,,,,0,,,77,0
1845,note_on,7,0,1,,,,,,,,,0,,,86,114
1845,note_on,0,0,1,,,,,,,,,0,,,89,114
1845,note_on,0,0,1,,,,,,,,,0,,,94,114
1853,note_on,0,0,1,,,,,,,,,0,,,89,0
1853,note_on,0,0,1,,,,,,,,,0,,,86,0
1853,note_on,8,0,1,,,,,,,,,0,,,94,0
1860,note_on,7,0,1,,,,,,,,,0,,,82,116
1860,note_on,0,0,1,,,,,,,,,0,,,86,116
1868,note_on,8,0,1,,,,,,,,,0,,,86,0
1868,note_on,0,0,1,,,,,,,,,0,,,82,0
1875,note_on,7,0,1,,,,,,,,,0,,,98,117
1875,note_on,0,0,1,,,,,,,,,0,,,89,117
1875,note_on,0,0,1,,,,,,,,,0,,,94,117
1883,note_on,8,0,1,,,,,,,,,0,,,89,0
1883,note_on,0,0,1,,,,,,,,,0,,,98,0
1883,note_on,0,0,1,,,,,,,,,0,,,94,0
1890,note_on,7,0,1,,,,,,,,,0,,,86,119
1890,note_on,0,0,1,,,,,,,,,0,,,89,119
1898,note_on,0,0,1,,,,,,,,,0,,,86,0
1898,note_on,8,0,1,,,,,,,,,0,,,89,0
1905,note_on,7,0,1,,,,,,,,,0,,,101,120
1905,note_on,0,0,1,,,,,,,,,0,,,94,120
1905,note_on,0,0,1,,,,,,,,,0,,,98,120
1905,set_tempo,210,1,0,,,,,,1500000,,,,,,,
2055,set_tempo,150,1,0,,,,,,1000000,,,,,,,
2055,note_on,150,0,1,,,,,,,,,0,,,94,0
2055,control_change,360,0,5,,,,,,,,,0,64,0,,
2055,note_on,0,0,1,,,,,,,,,0,,,88,100
2055,note_on,0,0,1,,,,,,,,,0,,,94,100
2055,note_on,0,0,1,,,,,,,,,0,,,97,100
2055,note_on,0,0,1,,,,,,,,,0,,,98,0
2055,note_on,0,0,1,,,,,,,,,0,,,101,0
2057,set_tempo,2,1,0,,,,,,995190,,,,,,,
2065,set_tempo,8,1,0,,,,,,990262,,,,,,,
2070,set_tempo,5,1,0,,,,,,985383,,,,,,,
2075,note_on,0,0,1,,,,,,,,,0,,,91,100
2075,note_on,0,0,1,,,,,,,,,0,,,94,0
2075,note_on,20,0,1,,,,,,,,,0,,,88,0
2075,note_on,0,0,1,,,,,,,,,0,,,97,0
2075,note_on,0,0,1,,,,,,,,,0,,,99,100
2078,set_tempo,8,1,0,,,,,,980552,,,,,,,
2082,set_tempo,4,1,0,,,,,,975768,,,,,,,
2087,set_tempo,5,1,0,,,,,,971031,,,,,,,
2095,note_on,20,0,1,,,,,,,,,0,,,91,0
2095,note_on,0,0,1,,,,,,,,,0,,,89,100
2095,note_on,0,0,1,,,,,,,,,0,,,98,100
2095,note_on,0,0,1,,,,,,,,,0,,,99,0
2095,set_tempo,8,1,0,,,,,,966339,,,,,,,
2100,set_tempo,5,1,0,,,,,,961693,,,,,,,
2104,set_tempo,4,1,0,,,,,,957090,,,,,,,
2112,set_tempo,8,1,0,,,,,,952532,,,,,,,
2115,note_on,20,0,1,,,,,,,,,0,,,89,0
2115,note_on,0,0,1,,,,,,,,,0,,,93,100
2115,note_on,0,0,1,,,,,,,,,0,,,98,0
2115,note_on,0,0,1,,,,,,,,,0,,,85,100
2115,note_on,0,0,1,,,,,,,,,0,,,89,100
2117,set_tempo,5,1,0,,,,,,948017,,,,,,,
2125,set_tempo,8,1,0,,,,,,943545,,,,,,,
2130,set_tempo,5,1,0,,,,,,939114,,,,,,,
2134,set_tempo,4,1,0,,,,,,934725,,,,,,,
2135,note_on,20,0,1,,,,,,,,,0,,,85,0
2135,note_on,0,0,1,,,,,,,,,0,,,96,100
2135,note_on,0,0,1,,,,,,,,,0,,,87,100
2135,note_on,0,0,1,,,,,,,,,0,,,89,0
2135,note_on,0,0,1,,,,,,,,,0,,,93,0
2142,set_tempo,8,1,0,,,,,,930377,,,,,,,
2147,set_tempo,5,1,0,,,,,,926069,,,,,,,
2151,set_tempo,4,1,0,,,,,,921801,,,,,,,
2155,note_on,0,0,1,,,,,,,,,0,,,86,100
2155,note_on,0,0,1,,,,,,,,,0,,,94,100
2155,note_on,0,0,1,,,,,,,,,0,,,96,0
2155,note_on,20,0,1,,,,,,,,,0,,,87,0
2160,set_tempo,9,1,0,,,,,,917571,,,,,,,
2164,set_tempo,4,1,0,,,,,,913381,,,,,,,
2172,set_tempo,8,1,0,,,,,,909229,,,,,,,
2175,note_on,0,0,1,,,,,,,,,0,,,82,100
2175,note_on,0,0,1,,,,,,,,,0,,,85,100
2175,note_on,0,0,1,,,,,,,,,0,,,88,100
2175,note_on,0,0,1,,,,,,,,,0,,,94,0
2175,note_on,20,0,1,,,,,,,,,0,,,86,0
2177,set_tempo,5,1,0,,,,,,905114,,,,,,,
2181,set_tempo,4,1,0,,,,,,901036,,,,,,,
2190,set_tempo,9,1,0,,,,,,896995,,,,,,,
2194,set_tempo,4,1,0,,,,,,892990,,,,,,,
2195,note_on,0,0,1,,,,,,,,,0,,,86,100
2195,note_on,0,0,1,,,,,,,,,0,,,91,100
2195,note_on,0,0,1,,,,,,,,,0,,,85,0
2195,note_on,20,0,1,,,,,,,,,0,,,88,0
2195,note_on,0,0,1,,,,,,,,,0,,,82,0
2198,set_tempo,4,1,0,,,,,,889021,,,,,,,
2207,set_tempo,9,1,0,,,,,,885086,,,,,,,
2211,set_tempo,4,1,0,,,,,,881187,,,,,,,
2215,note_on,0,0,1,,,,,,,,,0,,,82,100
2215,note_on,0,0,1,,,,,,,,,0,,,86,0
2215,note_on,0,0,1,,,,,,,,,0,,,89,100
2215,note_on,20,0,1,,,,,,,,,0,,,91,0
2220,set_tempo,9,1,0,,,,,,877321,,,,,,,
2224,set_tempo,4,1,0,,,,,,873490,,,,,,,
2228,set_tempo,4,1,0,,,,,,869691,,,,,,,
2235,note_on,20,0,1,,,,,,,,,0,,,89,0
2235,note_on,0,0,1,,,,,,,,,0,,,82,100
2235,note_on,0,0,1,,,,,,,,,0,,,76,100
2235,note_on,0,0,1,,,,,,,,,0,,,85,100
2235,note_on,0,0,1,,,,,,,,,0,,,82,0
2237,set_tempo,9,1,0,,,,,,865926,,,,,,,
2241,set_tempo,4,1,0,,,,,,862193,,,,,,,
2245,set_tempo,4,1,0,,,,,,858492,,,,,,,
2254,set_tempo,9,1,0,,,,,,854823,,,,,,,
2255,note_on,0,0,1,,,,,,,,,0,,,79,100
2255,note_on,20,0,1,,,,,,,,,0,,,76,0
2255,note_on,0,0,1,,,,,,,,,0,,,85,0
2255,note_on,0,0,1,,,,,,,,,0,,,87,100
2255,note_on,0,0,1,,,,,,,,,0,,,82,0
2258,set_tempo,4,1,0,,,,,,851185,,,,,,,
2262,set_tempo,4,1,0,,,,,,847577,,,,,,,
2271,set_tempo,9,1,0,,,,,,844001,,,,,,,
2275,note_on,0,0,1,,,,,,,,,0,,,77,100
2275,note_on,0,0,1,,,,,,,,,0,,,86,100
2275,note_on,0,0,1,,,,,,,,,0,,,87,0
2275,set_tempo,4,1,0,,,,,,840454,,,,,,,
2275,note_on,20,0,1,,,,,,,,,0,,,79,0
2284,set_tempo,9,1,0,,,,,,836937,,,,,,,
2288,set_tempo,4,1,0,,,,,,833449,,,,,,,
2292,set_tempo,4,1,0,,,,,,829990,,,,,,,
2295,note_on,20,0,1,,,,,,,,,0,,,77,0
2295,note_on,0,0,1,,,,,,,,,0,,,86,0
2295,note_on,0,0,1,,,,,,,,,0,,,81,100
2295,note_on,0,0,1,,,,,,,,,0,,,77,100
2295,note_on,0,0,1,,,,,,,,,0,,,73,100
2301,set_tempo,9,1,0,,,,,,826560,,,,,,,
2305,set_tempo,4,1,0,,,,,,823158,,,,,,,
2310,set_tempo,5,1,0,,,,,,819784,,,,,,,
2315,note_on,20,0,1,,,,,,,,,0,,,73,0
2315,note_on,0,0,1,,,,,,,,,0,,,77,0
2315,note_on,0,0,1,,,,,,,,,0,,,81,0
2315,note_on,0,0,1,,,,,,,,,0,,,84,100
2315,note_on,0,0,1,,,,,,,,,0,,,75,100
2318,set_tempo,8,1,0,,,,,,816438,,,,,,,
2322,set_tempo,4,1,0,,,,,,813118,,,,,,,
2331,set_tempo,9,1,0,,,,,,809826,,,,,,,
2335,set_tempo,4,1,0,,,,,,806560,,,,,,,
2335,note_on,0,0,1,,,,,,,,,0,,,74,100
2335,note_on,0,0,1,,,,,,,,,0,,,82,100
2335,note_on,0,0,1,,,,,,,,,0,,,84,0
2335,note_on,20,0,1,,,,,,,,,0,,,75,0
2340,set_tempo,5,1,0,,,,,,803320,,,,,,,
2348,set_tempo,8,1,0,,,,,,800107,,,,,,,
2352,set_tempo,4,1,0,,,,,,796919,,,,,,,
2355,note_on,0,0,1,,,,,,,,,0,,,76,100
2355,note_on,0,0,1,,,,,,,,,0,,,70,100
2355,note_on,0,0,1,,,,,,,,,0,,,73,100
2355,note_on,0,0,1,,,,,,,,,0,,,82,0
2355,note_on,20,0,1,,,,,,,,,0,,,74,0
2357,set_tempo,5,1,0,,,,,,793756,,,,,,,
2365,set_tempo,8,1,0,,,,,,790618,,,,,,,
2370,set_tempo,5,1,0,,,,,,787505,,,,,,,
2375,note_on,0,0,1,,,,,,,,,0,,,79,100
2375,note_on,0,0,1,,,,,,,,,0,,,74,100
2375,note_on,0,0,1,,,,,,,,,0,,,73,0
2375,note_on,0,0,1,,,,,,,,,0,,,70,0
2375,note_on,20,0,1,,,,,,,,,0,,,76,0
2378,set_tempo,8,1,0,,,,,,784416,,,,,,,
2382,set_tempo,4,1,0,,,,,,781352,,,,,,,
2387,set_tempo,5,1,0,,,,,,778311,,,,,,,
2395,set_tempo,8,1,0,,,,,,775294,,,,,,,
2395,note_on,0,0,1,,,,,,,,,0,,,77,100
2395,note_on,0,0,1,,,,,,,,,0,,,74,0
2395,note_on,20,0,1,,,,,,,,,0,,,79,0
2395,note_on,0,0,1,,,,,,,,,0,,,70,100
2400,set_tempo,5,1,0,,,,,,772300,,,,,,,
2404,set_tempo,4,1,0,,,,,,769329,,,,,,,
2412,set_tempo,8,1,0,,,,,,766381,,,,,,,
2415,note_on,0,0,1,,,,,,,,,0,,,64,100
2415,note_on,0,0,1,,,,,,,,,0,,,70,0
2415,note_on,0,0,1,,,,,,,,,0,,,70,100
2415,note_on,0,0,1,,,,,,,,,0,,,73,100
2415,note_on,20,0,1,,,,,,,,,0,,,77,0
2417,set_tempo,5,1,0,,,,,,763456,,,,,,,
2425,set_tempo,8,1,0,,,,,,760553,,,,,,,
2430,set_tempo,5,1,0,,,,,,757671,,,,,,,
2434,set_tempo,4,1,0,,,,,,754812,,,,,,,
2435,note_on,0,0,1,,,,,,,,,0,,,67,100
2435,note_on,0,0,1,,,,,,,,,0,,,70,0
2435,note_on,0,0,1,,,,,,,,,0,,,73,0
2435,note_on,20,0,1,,,,,,,,,0,,,64,0
2435,note_on,0,0,1,,,,,,,,,0,,,75,100
2442,set_tempo,8,1,0,,,,,,751974,,,,,,,
2447,set_tempo,5,1,0,,,,,,749157,,,,,,,
2451,set_tempo,4,1,0,,,,,,746361,,,,,,,
2455,note_on,20,0,1,,,,,,,,,0,,,67,0
2455,note_on,0,0,1,,,,,,,,,0,,,65,100
2455,note_on,0,0,1,,,,,,,,,0,,,74,100
2455,note_on,0,0,1,,,,,,,,,0,,,75,0
2460,set_tempo,9,1,0,,,,,,743587,,,,,,,
2464,set_tempo,4,1,0,,,,,,740832,,,,,,,
2468,set_tempo,4,1,0,,,,,,738098,,,,,,,
2475,note_on,20,0,1,,,,,,,,,0,,,65,0
2475,note_on,0,0,1,,,,,,,,,0,,,69,100
2475,note_on,0,0,1,,,,,,,,,0,,,65,100
2475,note_on,0,0,1,,,,,,,,,0,,,61,100
2475,note_on,0,0,1,,,,,,,,,0,,,74,0
2477,set_tempo,9,1,0,,,,,,735384,,,,,,,
2481,set_tempo,4,1,0,,,,,,732690,,,,,,,
2490,set_tempo,9,1,0,,,,,,730016,,,,,,,
2494,set_tempo,4,1,0,,,,,,727361,,,,,,,
2495,note_on,20,0,1,,,,,,,,,0,,,61,0
2495,note_on,0,0,1,,,,,,,,,0,,,72,100
2495,note_on,0,0,1,,,,,,,,,0,,,69,0
2495,note_on,0,0,1,,,,,,,,,0,,,63,100
2495,note_on,0,0,1,,,,,,,,,0,,,65,0
2498,set_tempo,4,1,0,,,,,,724725,,,,,,,
2507,set_tempo,9,1,0,,,,,,722109,,,,,,,
2511,set_tempo,4,1,0,,,,,,719511,,,,,,,
2515,set_tempo,4,1,0,,,,,,716932,,,,,,,
2515,note_on,0,0,1,,,,,,,,,0,,,72,0
2515,note_on,20,0,1,,,,,,,,,0,,,63,0
2515,note_on,0,0,1,,,,,,,,,0,,,62,100
2515,note_on,0,0,1,,,,,,,,,0,,,70,100
2524,set_tempo,9,1,0,,,,,,714371,,,,,,,
2528,set_tempo,4,1,0,,,,,,711828,,,,,,,
2535,note_on,0,0,1,,,,,,,,,0,,,61,100
2535,note_on,0,0,1,,,,,,,,,0,,,70,0
2535,note_on,0,0,1,,,,,,,,,0,,,64,100
2535,note_on,20,0,1,,,,,,,,,0,,,62,0
2535,note_on,840,0,4,,,,,,,,,0,,,58,100
2537,set_tempo,9,1,0,,,,,,709304,,,,,,,
2541,set_tempo,4,1,0,,,,,,706797,,,,,,,
2545,set_tempo,4,1,0,,,,,,704308,,,,,,,
2554,set_tempo,9,1,0,,,,,,701836,,,,,,,
2555,note_on,0,0,1,,,,,,,,,0,,,61,0
2555,note_on,20,0,4,,,,,,,,,0,,,58,0
2555,note_on,0,0,4,,,,,,,,,0,,,62,100
2555,note_on,20,0,1,,,,,,,,,0,,,64,0
2555,note_on,0,0,1,,,,,,,,,0,,,67,100
2558,set_tempo,4,1,0,,,,,,699382,,,,,,,
2562,set_tempo,4,1,0,,,,,,696945,,,,,,,
2571,set_tempo,9,1,0,,,,,,694525,,,,,,,
2575,note_on,20,0,4,,,,,,,,,0,,,62,0
2575,note_on,0,0,1,,,,,,,,,0,,,65,100
2575,note_on,0,0,4,,,,,,,,,0,,,58,100
2575,note_on,20,0,1,,,,,,,,,0,,,67,0
2575,set_tempo,4,1,0,,,,,,692121,,,,,,,
2584,set_tempo,9,1,0,,,,,,689734,,,,,,,
2588,set_tempo,4,1,0,,,,,,687364,,,,,,,
2592,set_tempo,4,1,0,,,,,,685010,,,,,,,
2595,note_on,20,0,1,,,,,,,,,0,,,65,0
2595,note_on,0,0,4,,,,,,,,,0,,,52,100
2595,note_on,0,0,1,,,,,,,,,0,,,58,100
2595,note_on,20,0,4,,,,,,,,,0,,,58,0
2595,note_on,0,0,1,,,,,,,,,0,,,61,100
2601,set_tempo,9,1,0,,,,,,682672,,,,,,,
2605,set_tempo,4,1,0,,,,,,680349,,,,,,,
2610,set_tempo,5,1,0,,,,,,678043,,,,,,,
2615,note_on,0,0,1,,,,,,,,,0,,,63,100
2615,note_on,0,0,1,,,,,,,,,0,,,61,0
2615,note_on,0,0,4,,,,,,,,,0,,,55,100
2615,note_on,20,0,1,,,,,,,,,0,,,58,0
2615,note_on,20,0,4,,,,,,,,,0,,,52,0
2618,set_tempo,8,1,0,,,,,,675752,,,,,,,
2622,set_tempo,4,1,0,,,,,,673476,,,,,,,
2631,set_tempo,9,1,0,,,,,,671216,,,,,,,
2635,note_on,20,0,1,,,,,,,,,0,,,63,0
2635,note_on,0,0,4,,,,,,,,,0,,,53,100
2635,note_on,0,0,1,,,,,,,,,0,,,62,100
2635,note_on,20,0,4,,,,,,,,,0,,,55,0
2635,set_tempo,4,1,0,,,,,,668971,,,,,,,
2640,set_tempo,5,1,0,,,,,,666741,,,,,,,
2648,set_tempo,8,1,0,,,,,,664525,,,,,,,
2652,set_tempo,4,1,0,,,,,,662325,,,,,,,
2655,note_on,20,0,1,,,,,,,,,0,,,62,0
2655,note_on,0,0,4,,,,,,,,,0,,,57,100
2655,note_on,20,0,4,,,,,,,,,0,,,53,0
2655,note_on,0,0,4,,,,,,,,,0,,,49,100
2655,note_on,0,0,4,,,,,,,,,0,,,53,100
2657,set_tempo,5,1,0,,,,,,660139,,,,,,,
2665,set_tempo,8,1,0,,,,,,657967,,,,,,,
2670,set_tempo,5,1,0,,,,,,655809,,,,,,,
2674,set_tempo,4,1,0,,,,,,653666,,,,,,,
2675,note_on,0,0,4,,,,,,,,,0,,,51,100
2675,note_on,0,0,4,,,,,,,,,0,,,53,0
2675,note_on,20,0,4,,,,,,,,,0,,,49,0
2675,note_on,0,0,4,,,,,,,,,0,,,57,0
2675,note_on,0,0,4,,,,,,,,,0,,,60,100
2682,set_tempo,8,1,0,,,,,,651537,,,,,,,
2687,set_tempo,5,1,0,,,,,,649421,,,,,,,
2695,note_on,0,0,4,,,,,,,,,0,,,50,100
2695,note_on,0,0,4,,,,,,,,,0,,,58,100
2695,note_on,0,0,4,,,,,,,,,0,,,60,0
2695,set_tempo,8,1,0,,,,,,647319,,,,,,,
2695,note_on,20,0,4,,,,,,,,,0,,,51,0
2700,set_tempo,5,1,0,,,,,,645231,,,,,,,
2704,set_tempo,4,1,0,,,,,,643156,,,,,,,
2712,set_tempo,8,1,0,,,,,,641094,,,,,,,
2715,note_on,20,0,4,,,,,,,,,0,,,50,0
2715,note_on,0,0,4,,,,,,,,,0,,,58,0
2715,note_on,0,0,4,,,,,,,,,0,,,52,100
2715,note_on,0,0,4,,,,,,,,,0,,,49,100
2715,note_on,0,0,4,,,,,,,,,0,,,46,100
2717,set_tempo,5,1,0,,,,,,639046,,,,,,,
2721,set_tempo,4,1,0,,,,,,637010,,,,,,,
2730,set_tempo,9,1,0,,,,,,634988,,,,,,,
2734,set_tempo,4,1,0,,,,,,632978,,,,,,,
2735,note_on,20,0,4,,,,,,,,,0,,,52,0
2735,note_on,0,0,4,,,,,,,,,0,,,55,100
2735,note_on,0,0,4,,,,,,,,,0,,,50,100
2735,note_on,0,0,4,,,,,,,,,0,,,49,0
2735,note_on,0,0,4,,,,,,,,,0,,,46,0
2742,set_tempo,8,1,0,,,,,,630981,,,,,,,
2747,set_tempo,5,1,0,,,,,,628997,,,,,,,
2751,set_tempo,4,1,0,,,,,,627025,,,,,,,
2755,note_on,0,0,4,,,,,,,,,0,,,53,100
2755,note_on,0,0,4,,,,,,,,,0,,,46,100
2755,note_on,0,0,4,,,,,,,,,0,,,50,0
2755,note_on,20,0,4,,,,,,,,,0,,,55,0
2760,set_tempo,9,1,0,,,,,,625065,,,,,,,
2764,set_tempo,4,1,0,,,,,,623118,,,,,,,
2768,set_tempo,4,1,0,,,,,,621182,,,,,,,
2775,note_on,20,0,4,,,,,,,,,0,,,53,0
2775,note_on,0,0,4,,,,,,,,,0,,,46,0
2775,note_on,0,0,4,,,,,,,,,0,,,46,100
2775,note_on,0,0,4,,,,,,,,,0,,,49,100
2775,note_on,0,0,4,,,,,,,,,0,,,40,100
2777,set_tempo,9,1,0,,,,,,619259,,,,,,,
2781,set_tempo,4,1,0,,,,,,617347,,,,,,,
2790,set_tempo,9,1,0,,,,,,615448,,,,,,,
2794,set_tempo,4,1,0,,,,,,613560,,,,,,,
2795,note_on,20,0,4,,,,,,,,,0,,,40,0
2795,note_on,0,0,4,,,,,,,,,0,,,43,100
2795,note_on,0,0,4,,,,,,,,,0,,,46,0
2795,note_on,0,0,4,,,,,,,,,0,,,49,0
2795,note_on,0,0,4,,,,,,,,,0,,,51,100
2798,set_tempo,4,1,0,,,,,,611683,,,,,,,
2807,set_tempo,9,1,0,,,,,,609818,,,,,,,
2811,set_tempo,4,1,0,,,,,,607964,,,,,,,
2815,note_on,0,0,4,,,,,,,,,0,,,51,0
2815,note_on,20,0,4,,,,,,,,,0,,,43,0
2815,note_on,0,0,4,,,,,,,,,0,,,41,100
2815,note_on,0,0,4,,,,,,,,,0,,,50,100
2815,set_tempo,4,1,0,,,,,,606122,,,,,,,
2824,set_tempo,9,1,0,,,,,,604290,,,,,,,
2828,set_tempo,4,1,0,,,,,,602470,,,,,,,
2832,set_tempo,4,1,0,,,,,,600661,,,,,,,
2835,note_on,0,0,4,,,,,,,,,0,,,50,0
2835,note_on,0,0,4,,,,,,,,,0,,,34,100
2835,time_signature,3,1,0,7,4,24,8,,,,,,,,,
2835,set_tempo,0,1,0,,,,,,600000,,,,,,,
2835,note_on,20,0,4,,,,,,,,,0,,,41,0
2865,note_on,0,0,4,,,,,,,,,0,,,36,101
2865,note_on,30,0,4,,,,,,,,,0,,,34,0
2895,note_on,0,0,4,,,,,,,,,0,,,34,102
2895,note_on,30,0,4,,,,,,,,,0,,,36,0
2915,note_on,0,0,4,,,,,,,,,0,,,36,103
2915,note_on,20,0,4,,,,,,,,,0,,,34,0
2935,note_on,0,0,4,,,,,,,,,0,,,34,104
2935,note_on,20,0,4,,,,,,,,,0,,,36,0
2955,note_on,20,0,4,,,,,,,,,0,,,34,0
2955,note_on,0,0,4,,,,,,,,,0,,,36,105
2970,note_on,15,0,4,,,,,,,,,0,,,36,0
2970,note_on,0,0,4,,,,,,,,,0,,,34,106
2985,note_on,0,0,4,,,,,,,,,0,,,36,106
2985,note_on,15,0,4,,,,,,,,,0,,,34,0
3000,note_on,15,0,4,,,,,,,,,0,,,36,0
3000,note_on,0,0,4,,,,,,,,,0,,,34,107
3015,note_on,15,0,4,,,,,,,,,0,,,34,0
3015,note_on,0,0,4,,,,,,,,,0,,,36,108
3030,note_on,15,0,4,,,,,,,,,0,,,36,0
3030,note_on,0,0,4,,,,,,,,,0,,,34,108
3045,note_on,15,0,4,,,,,,,,,0,,,34,0
3045,note_on,0,0,4,,,,,,,,,0,,,36,109
3060,note_on,15,0,4,,,,,,,,,0,,,36,0
3060,note_on,0,0,4,,,,,,,,,0,,,34,110
3075,note_on,0,0,4,,,,,,,,,0,,,36,110
3075,note_on,15,0,4,,,,,,,,,0,,,34,0
3090,note_on,15,0,4,,,,,,,,,0,,,36,0
3090,note_on,0,0,4,,,,,,,,,0,,,34,111
3105,note_on,0,0,4,,,,,,,,,0,,,36,112
3105,note_on,15,0,4,,,,,,,,,0,,,34,0
3120,note_on,0,0,4,,,,,,,,,0,,,34,112
3120,note_on,15,0,4,,,,,,,,,0,,,36,0
3135,note_on,15,0,4,,,,,,,,,0,,,34,0
3135,note_on,0,0,4,,,,,,,,,0,,,36,113
3150,note_on,0,0,4,,,,,,,,,0,,,34,114
3150,note_on,15,0,4,,,,,,,,,0,,,36,0
3165,note_on,0,0,4,,,,,,,,,0,,,36,114
3165,note_on,15,0,4,,,,,,,,,0,,,34,0
3180,note_on,15,0,4,,,,,,,,,0,,,36,0
3180,note_on,0,0,4,,,,,,,,,0,,,34,115
3195,note_on,0,0,4,,,,,,,,,0,,,36,116
3195,note_on,15,0,4,,,,,,,,,0,,,34,0
3210,note_on,0,0,4,,,,,,,,,0,,,34,117
3210,note_on,15,0,4,,,,,,,,,0,,,36,0
3225,note_on,0,0,4,,,,,,,,,0,,,36,117
3225,note_on,15,0,4,,,,,,,,,0,,,34,0
3240,note_on,0,0,4,,,,,,,,,0,,,34,118
3240,note_on,15,0,4,,,,,,,,,0,,,36,0
3255,note_on,0,0,4,,,,,,,,,0,,,36,119
3255,note_on,15,0,4,,,,,,,,,0,,,34,0
3270,note_on,0,0,4,,,,,,,,,0,,,34,119
3270,note_on,15,0,4,,,,,,,,,0,,,36,0
3285,note_on,0,0,4,,,,,,,,,0,,,33,120
3285,note_on,15,0,4,,,,,,,,,0,,,34,0
3300,note_on,15,0,4,,,,,,,,,0,,,33,0
3300,note_on,0,0,4,,,,,,,,,0,,,34,120
3315,note_on,15,0,4,,,,,,,,,0,,,34,0
3315,note_on,0,0,4,,,,,,,,,0,,,46,120
3315,set_tempo,480,1,0,,,,,,833333,,,,,,,
3345,note_on,30,0,4,,,,,,,,,0,,,46,0
3375,note_on,3375,0,3,,,,,,,,,0,,,62,120
3380,note_on,5,0,3,,,,,,,,,0,,,70,120
3385,note_on,5,0,3,,,,,,,,,0,,,77,120
3390,note_on,735,0,1,,,,,,,,,0,,,80,120
3395,note_on,5,0,1,,,,,,,,,0,,,86,120
3400,note_on,5,0,1,,,,,,,,,0,,,89,120
3405,note_on,20,0,3,,,,,,,,,0,,,62,0
3405,note_on,5,0,1,,,,,,,,,0,,,94,120
3410,note_on,5,0,3,,,,,,,,,0,,,70,0
3415,note_on,5,0,3,,,,,,,,,0,,,77,0
3420,note_on,15,0,1,,,,,,,,,0,,,80,0
3425,note_on,5,0,1,,,,,,,,,0,,,86,0
3430,note_on,5,0,1,,,,,,,,,0,,,89,0
3435,note_on,5,0,1,,,,,,,,,0,,,94,0
3435,note_on,0,0,1,,,,,,,,,0,,,58,120
3435,set_tempo,120,1,0,,,,,,1500000,,,,,,,
3675,set_tempo,0,1,0,,,,,,1071429,,,,,,,
3675,note_on,0,0,1,,,,,,,,,0,,,81,80
3675,note_on,240,0,1,,,,,,,,,0,,,58,0
3675,time_signature,240,1,0,3,4,24,8,,,,,,,,,
3675,marker,0,1,0,,,,,,,,,,,,,
3682,note_on,7,0,1,,,,,,,,,0,,,82,60
3687,note_on,5,0,1,,,,,,,,,0,,,81,0
3694,note_on,0,0,1,,,,,,,,,0,,,87,60
3694,note_on,7,0,1,,,,,,,,,0,,,82,0
3706,note_on,0,0,1,,,,,,,,,0,,,84,60
3706,note_on,12,0,1,,,,,,,,,0,,,87,0
3717,note_on,11,0,1,,,,,,,,,0,,,82,60
3718,note_on,1,0,1,,,,,,,,,0,,,84,0
3728,note_on,10,0,1,,,,,,,,,0,,,80,60
3729,note_on,1,0,1,,,,,,,,,0,,,82,0
3739,note_on,10,0,1,,,,,,,,,0,,,79,60
3740,note_on,1,0,1,,,,,,,,,0,,,80,0
3750,note_on,335,0,3,,,,,,,,,0,,,77,60
3751,note_on,11,0,1,,,,,,,,,0,,,79,0
3762,note_on,12,0,3,,,,,,,,,0,,,77,0
3763,note_on,1,0,3,,,,,,,,,0,,,75,60
3772,note_on,9,0,3,,,,,,,,,0,,,74,60
3775,note_on,3,0,3,,,,,,,,,0,,,75,0
3783,note_on,8,0,3,,,,,,,,,0,,,72,60
3784,note_on,1,0,3,,,,,,,,,0,,,74,0
3795,set_tempo,120,1,0,,,,,,652174,,,,,,,
3795,note_on,0,0,3,,,,,,,,,0,,,70,60
3795,note_on,11,0,3,,,,,,,,,0,,,72,0
3825,note_on,30,0,3,,,,,,,,,0,,,70,0
3855,note_on,510,0,4,,,,,,,,,0,,,39,60
3855,note_on,0,0,1,,,,,,,,,0,,,63,60
3855,note_on,104,0,1,,,,,,,,,0,,,55,60
3855,note_on,0,0,1,,,,,,,,,0,,,58,60
3855,note_on,0,0,4,,,,,,,,,0,,,46,60
3885,note_on,30,0,4,,,,,,,,,0,,,46,0
3885,note_on,0,0,1,,,,,,,,,0,,,55,0
3885,note_on,0,0,1,,,,,,,,,0,,,58,0
3885,note_on,0,0,4,,,,,,,,,0,,,39,0
3885,note_on,30,0,1,,,,,,,,,0,,,63,0
3915,note_on,30,0,4,,,,,,,,,0,,,46,60
3915,note_on,0,0,1,,,,,,,,,0,,,58,60
3915,note_on,0,0,1,,,,,,,,,0,,,65,60
3915,note_on,30,0,1,,,,,,,,,0,,,56,60
3915,note_on,0,0,4,,,,,,,,,0,,,39,60
3945,note_on,0,0,4,,,,,,,,,0,,,46,0
3945,note_on,30,0,1,,,,,,,,,0,,,65,0
3945,note_on,30,0,4,,,,,,,,,0,,,39,0
3945,note_on,0,0,1,,,,,,,,,0,,,56,0
3945,note_on,0,0,1,,,,,,,,,0,,,58,0
3975,note_on,0,0,4,,,,,,,,,0,,,46,60
3975,note_on,30,0,4,,,,,,,,,0,,,39,60
3975,note_on,0,0,1,,,,,,,,,0,,,66,60
3975,note_on,0,0,1,,,,,,,,,0,,,58,60
3975,note_on,30,0,1,,,,,,,,,0,,,57,60
4005,note_on,30,0,4,,,,,,,,,0,,,46,0
4005,note_on,0,0,1,,,,,,,,,0,,,57,0
4005,note_on,0,0,4,,,,,,,,,0,,,39,0
4005,note_on,30,0,1,,,,,,,,,0,,,66,0
4005,note_on,0,0,1,,,,,,,,,0,,,58,0
4035,time_signature,240,1,0,4,4,24,8,,,,,,,,,
4035,note_on,0,0,4,,,,,,,,,0,,,39,60
4035,note_on,0,0,1,,,,,,,,,0,,,67,80
4035,note_on,30,0,4,,,,,,,,,0,,,46,60
4035,note_on,30,0,1,,,,,,,,,0,,,58,80
4095,note_on,0,0,1,,,,,,,,,0,,,55,60
4095,note_on,0,0,1,,,,,,,,,0,,,63,60
4095,note_on,60,0,1,,,,,,,,,0,,,67,0
4095,note_on,0,0,1,,,,,,,,,0,,,58,0
4125,note_on,0,0,1,,,,,,,,,0,,,55,0
4125,note_on,30,0,1,,,,,,,,,0,,,63,0
4155,note_on,0,0,4,,,,,,,,,0,,,46,0
4155,set_tempo,120,1,0,,,,,,1071429,,,,,,,
4155,note_on,30,0,1,,,,,,,,,0,,,81,80
4155,note_on,120,0,4,,,,,,,,,0,,,39,0
4162,note_on,7,0,1,,,,,,,,,0,,,82,60
4164,note_on,2,0,1,,,,,,,,,0,,,81,0
4171,note_on,0,0,1,,,,,,,,,0,,,92,60
4171,note_on,7,0,1,,,,,,,,,0,,,82,0
4180,note_on,9,0,1,,,,,,,,,0,,,92,0
4180,note_on,0,0,1,,,,,,,,,0,,,89,60
4188,note_on,8,0,1,,,,,,,,,0,,,87,60
4189,note_on,1,0,1,,,,,,,,,0,,,89,0
4197,note_on,0,0,1,,,,,,,,,0,,,86,60
4197,note_on,8,0,1,,,,,,,,,0,,,87,0
4205,note_on,8,0,1,,,,,,,,,0,,,84,60
4206,note_on,1,0,1,,,,,,,,,0,,,86,0
4213,note_on,7,0,1,,,,,,,,,0,,,82,60
4214,note_on,1,0,1,,,,,,,,,0,,,84,0
4222,note_on,8,0,1,,,,,,,,,0,,,82,0
4222,note_on,0,0,1,,,,,,,,,0,,,80,60
4231,note_on,0,0,1,,,,,,,,,0,,,79,60
4231,note_on,9,0,1,,,,,,,,,0,,,80,0
4240,note_on,9,0,1,,,,,,,,,0,,,79,0
4240,note_on,415,0,3,,,,,,,,,0,,,77,60
4248,note_on,8,0,3,,,,,,,,,0,,,75,60
4249,note_on,1,0,3,,,,,,,,,0,,,77,0
4257,note_on,0,0,3,,,,,,,,,0,,,74,60
4257,note_on,8,0,3,,,,,,,,,0,,,75,0
4266,note_on,0,0,3,,,,,,,,,0,,,72,60
4266,note_on,9,0,3,,,,,,,,,0,,,74,0
4275,set_tempo,120,1,0,,,,,,652174,,,,,,,
4275,note_on,0,0,3,,,,,,,,,0,,,70,60
4275,note_on,9,0,3,,,,,,,,,0,,,72,0
4305,note_on,30,0,3,,,,,,,,,0,,,70,0
4335,note_on,0,0,4,,,,,,,,,0,,,46,60
4335,note_on,180,0,4,,,,,,,,,0,,,39,60
4335,note_on,0,0,1,,,,,,,,,0,,,63,60
4335,note_on,95,0,1,,,,,,,,,0,,,55,60
4335,note_on,0,0,1,,,,,,,,,0,,,58,60
4365,note_on,30,0,1,,,,,,,,,0,,,63,0
4365,note_on,0,0,1,,,,,,,,,0,,,58,0
4365,note_on,0,0,1,,,,,,,,,0,,,55,0
4365,note_on,0,0,4,,,,,,,,,0,,,39,0
4365,note_on,30,0,4,,,,,,,,,0,,,46,0
4395,note_on,30,0,4,,,,,,,,,0,,,46,60
4395,note_on,30,0,1,,,,,,,,,0,,,56,60
4395,note_on,0,0,1,,,,,,,,,0,,,62,60
4395,note_on,0,0,1,,,,,,,,,0,,,65,60
4395,note_on,0,0,4,,,,,,,,,0,,,39,60
4425,note_on,0,0,1,,,,,,,,,0,,,56,0
4425,note_on,0,0,1,,,,,,,,,0,,,62,0
4425,note_on,30,0,4,,,,,,,,,0,,,39,0
4425,note_on,30,0,1,,,,,,,,,0,,,65,0
4425,note_on,0,0,4,,,,,,,,,0,,,46,0
4455,note_on,30,0,1,,,,,,,,,0,,,58,60
4455,note_on,0,0,1,,,,,,,,,0,,,67,60
4455,note_on,30,0,4,,,,,,,,,0,,,39,60
4455,note_on,0,0,4,,,,,,,,,0,,,46,60
4485,note_on,30,0,4,,,,,,,,,0,,,46,0
4485,note_on,0,0,4,,,,,,,,,0,,,39,0
4485,note_on,0,0,1,,,,,,,,,0,,,58,0
4485,note_on,30,0,1,,,,,,,,,0,,,67,0
4515,note_on,0,0,4,,,,,,,,,0,,,46,60
4515,note_on,30,0,4,,,,,,,,,0,,,39,60
4515,note_on,0,0,1,,,,,,,,,0,,,63,60
4515,note_on,30,0,1,,,,,,,,,0,,,55,60
4635,note_on,0,0,1,,,,,,,,,0,,,55,0
4635,note_on,120,0,4,,,,,,,,,0,,,46,0
4635,note_on,0,0,4,,,,,,,,,0,,,39,0
4635,note_on,0,0,1,,,,,,,,,0,,,93,80
4635,note_on,120,0,1,,,,,,,,,0,,,63,0
4635,set_tempo,360,1,0,,,,,,1071429,,,,,,,
4637,note_on,2,0,1,,,,,,,,,0,,,94,60
4643,note_on,6,0,1,,,,,,,,,0,,,93,0
4645,note_on,2,0,1,,,,,,,,,0,,,94,0
4645,note_on,0,0,1,,,,,,,,,0,,,99,60
4652,note_on,7,0,1,,,,,,,,,0,,,98,60
4653,note_on,1,0,1,,,,,,,,,0,,,99,0
4657,note_on,4,0,1,,,,,,,,,0,,,96,60
4660,note_on,3,0,1,,,,,,,,,0,,,98,0
4663,note_on,3,0,1,,,,,,,,,0,,,94,60
4665,note_on,2,0,1,,,,,,,,,0,,,96,0
4671,note_on,6,0,1,,,,,,,,,0,,,94,0
4671,note_on,0,0,1,,,,,,,,,0,,,92,60
4677,note_on,6,0,1,,,,,,,,,0,,,91,60
4679,note_on,2,0,1,,,,,,,,,0,,,92,0
4682,note_on,377,0,3,,,,,,,,,0,,,89,60
4685,note_on,6,0,1,,,,,,,,,0,,,91,0
4689,note_on,7,0,3,,,,,,,,,0,,,87,60
4690,note_on,1,0,3,,,,,,,,,0,,,89,0
4697,note_on,0,0,3,,,,,,,,,0,,,86,60
4697,note_on,7,0,3,,,,,,,,,0,,,87,0
4702,note_on,5,0,3,,,,,,,,,0,,,84,60
4705,note_on,3,0,3,,,,,,,,,0,,,86,0
4708,note_on,3,0,3,,,,,,,,,0,,,82,60
4710,note_on,2,0,3,,,,,,,,,0,,,84,0
4715,note_on,30,0,1,,,,,,,,,0,,,80,60
4716,note_on,6,0,3,,,,,,,,,0,,,82,0
4722,note_on,7,0,1,,,,,,,,,0,,,79,60
4723,note_on,1,0,1,,,,,,,,,0,,,80,0
4727,note_on,4,0,1,,,,,,,,,0,,,77,60
4730,note_on,3,0,1,,,,,,,,,0,,,79,0
4734,note_on,4,0,1,,,,,,,,,0,,,75,60
4735,note_on,1,0,1,,,,,,,,,0,,,77,0
4740,note_on,5,0,1,,,,,,,,,0,,,74,60
4742,note_on,2,0,1,,,,,,,,,0,,,75,0
4747,note_on,5,0,1,,,,,,,,,0,,,72,60
4748,note_on,1,0,1,,,,,,,,,0,,,74,0
4755,note_on,39,0,3,,,,,,,,,0,,,70,60
4755,note_on,7,0,1,,,,,,,,,0,,,72,0
4755,set_tempo,120,1,0,,,,,,652174,,,,,,,
4785,note_on,30,0,3,,,,,,,,,0,,,70,0
4815,note_on,180,0,4,,,,,,,,,0,,,39,60
4815,note_on,0,0,3,,,,,,,,,0,,,63,60
4815,note_on,0,0,3,,,,,,,,,0,,,58,60
4815,note_on,0,0,4,,,,,,,,,0,,,46,60
4815,note_on,30,0,3,,,,,,,,,0,,,55,60
4845,note_on,0,0,4,,,,,,,,,0,,,39,0
4845,note_on,30,0,3,,,,,,,,,0,,,63,0
4845,note_on,30,0,4,,,,,,,,,0,,,46,0
4845,note_on,0,0,3,,,,,,,,,0,,,58,0
4845,note_on,0,0,3,,,,,,,,,0,,,55,0
4875,note_on,0,0,4,,,,,,,,,0,,,39,60
4875,note_on,30,0,3,,,,,,,,,0,,,56,60
4875,note_on,0,0,3,,,,,,,,,0,,,58,60
4875,note_on,0,0,3,,,,,,,,,0,,,65,60
4875,note_on,30,0,4,,,,,,,,,0,,,46,60
4905,note_on,30,0,3,,,,,,,,,0,,,65,0
4905,note_on,0,0,3,,,,,,,,,0,,,56,0
4905,note_on,30,0,4,,,,,,,,,0,,,39,0
4905,note_on,0,0,3,,,,,,,,,0,,,58,0
4905,note_on,0,0,4,,,,,,,,,0,,,46,0
4935,note_on,0,0,4,,,,,,,,,0,,,39,60
4935,note_on,30,0,3,,,,,,,,,0,,,57,60
4935,note_on,0,0,3,,,,,,,,,0,,,58,60
4935,note_on,0,0,3,,,,,,,,,0,,,66,60
4935,note_on,30,0,4,,,,,,,,,0,,,46,60
4965,note_on,0,0,4,,,,,,,,,0,,,46,0
4965,note_on,0,0,3,,,,,,,,,0,,,58,0
4965,note_on,30,0,3,,,,,,,,,0,,,66,0
4965,note_on,0,0,3,,,,,,,,,0,,,57,0
4965,note_on,30,0,4,,,,,,,,,0,,,39,0
4995,note_on,0,0,1,,,,,,,,,0,,,67,80
4995,note_on,30,0,4,,,,,,,,,0,,,39,60
4995,note_on,240,0,1,,,,,,,,,0,,,58,80
4995,note_on,0,0,4,,,,,,,,,0,,,46,60
5055,note_on,0,0,1,,,,,,,,,0,,,55,60
5055,note_on,0,0,1,,,,,,,,,0,,,58,0
5055,note_on,0,0,1,,,,,,,,,0,,,63,60
5055,note_on,60,0,1,,,,,,,,,0,,,67,0
5085,note_on,0,0,1,,,,,,,,,0,,,55,0
5085,note_on,30,0,1,,,,,,,,,0,,,63,0
5115,note_on,120,0,4,,,,,,,,,0,,,46,0
5115,note_on,0,0,4,,,,,,,,,0,,,39,0
5115,set_tempo,360,1,0,,,,,,1071429,,,,,,,
5115,note_on,30,0,1,,,,,,,,,0,,,92,80
5119,note_on,4,0,1,,,,,,,,,0,,,94,60
5121,note_on,2,0,1,,,,,,,,,0,,,92,0
5125,note_on,0,0,1,,,,,,,,,0,,,103,60
5125,note_on,4,0,1,,,,,,,,,0,,,94,0
5131,note_on,6,0,1,,,,,,,,,0,,,103,0
5131,note_on,0,0,1,,,,,,,,,0,,,101,60
5137,note_on,0,0,1,,,,,,,,,0,,,99,60
5137,note_on,6,0,1,,,,,,,,,0,,,101,0
5142,note_on,5,0,1,,,,,,,,,0,,,98,60
5143,note_on,1,0,1,,,,,,,,,0,,,99,0
5148,note_on,5,0,1,,,,,,,,,0,,,98,0
5149,note_on,1,0,1,,,,,,,,,0,,,96,60
5153,note_on,4,0,1,,,,,,,,,0,,,94,60
5155,note_on,2,0,1,,,,,,,,,0,,,96,0
5159,note_on,4,0,1,,,,,,,,,0,,,94,0
5160,note_on,1,0,1,,,,,,,,,0,,,92,60
5166,note_on,6,0,1,,,,,,,,,0,,,92,0
5166,note_on,0,0,1,,,,,,,,,0,,,91,60
5172,note_on,6,0,1,,,,,,,,,0,,,91,0
5172,note_on,207,0,3,,,,,,,,,0,,,89,60
5176,note_on,4,0,3,,,,,,,,,0,,,87,60
5178,note_on,2,0,3,,,,,,,,,0,,,89,0
5182,note_on,4,0,3,,,,,,,,,0,,,87,0
5183,note_on,1,0,3,,,,,,,,,0,,,86,60
5189,note_on,0,0,3,,,,,,,,,0,,,84,60
5189,note_on,6,0,3,,,,,,,,,0,,,86,0
5194,note_on,5,0,3,,,,,,,,,0,,,82,60
5195,note_on,1,0,3,,,,,,,,,0,,,84,0
5200,note_on,28,0,1,,,,,,,,,0,,,80,60
5200,note_on,5,0,3,,,,,,,,,0,,,82,0
5206,note_on,6,0,1,,,,,,,,,0,,,80,0
5207,note_on,1,0,1,,,,,,,,,0,,,79,60
5211,note_on,4,0,1,,,,,,,,,0,,,77,60
5213,note_on,2,0,1,,,,,,,,,0,,,79,0
5217,note_on,0,0,1,,,,,,,,,0,,,75,60
5217,note_on,4,0,1,,,,,,,,,0,,,77,0
5223,note_on,0,0,1,,,,,,,,,0,,,74,60
5223,note_on,6,0,1,,,,,,,,,0,,,75,0
5229,note_on,6,0,1,,,,,,,,,0,,,74,0
5229,note_on,0,0,1,,,,,,,,,0,,,72,60
5235,note_on,6,0,1,,,,,,,,,0,,,72,0
5235,set_tempo,120,1,0,,,,,,652174,,,,,,,
5235,note_on,35,0,3,,,,,,,,,0,,,70,60
5265,note_on,30,0,3,,,,,,,,,0,,,70,0
5295,note_on,0,0,4,,,,,,,,,0,,,46,60
5295,note_on,180,0,4,,,,,,,,,0,,,39,60
5295,note_on,60,0,1,,,,,,,,,0,,,55,60
5295,note_on,0,0,1,,,,,,,,,0,,,58,60
5295,note_on,0,0,1,,,,,,,,,0,,,63,60
5325,note_on,0,0,4,,,,,,,,,0,,,39,0
5325,note_on,30,0,4,,,,,,,,,0,,,46,0
5325,note_on,30,0,1,,,,,,,,,0,,,63,0
5325,note_on,0,0,1,,,,,,,,,0,,,55,0
5325,note_on,0,0,1,,,,,,,,,0,,,58,0
5355,note_on,30,0,4,,,,,,,,,0,,,39,60
5355,note_on,30,0,1,,,,,,,,,0,,,56,60
5355,note_on,0,0,1,,,,,,,,,0,,,65,60
5355,note_on,0,0,1,,,,,,,,,0,,,62,60
5355,note_on,0,0,4,,,,,,,,,0,,,47,60
5385,note_on,0,0,1,,,,,,,,,0,,,62,0
5385,note_on,30,0,4,,,,,,,,,0,,,47,0
5385,note_on,0,0,1,,,,,,,,,0,,,56,0
5385,note_on,30,0,1,,,,,,,,,0,,,65,0
5385,note_on,0,0,4,,,,,,,,,0,,,39,0
5415,note_on,0,0,1,,,,,,,,,0,,,56,60
5415,note_on,30,0,4,,,,,,,,,0,,,39,60
5415,note_on,30,0,1,,,,,,,,,0,,,67,60
5415,note_on,0,0,4,,,,,,,,,0,,,46,60
5415,note_on,0,0,1,,,,,,,,,0,,,62,60
5445,note_on,0,0,4,,,,,,,,,0,,,39,0
5445,note_on,30,0,1,,,,,,,,,0,,,56,0
5445,note_on,0,0,1,,,,,,,,,0,,,67,0
5445,note_on,0,0,1,,,,,,,,,0,,,62,0
5445,note_on,30,0,4,,,,,,,,,0,,,46,0
5475,note_on,30,0,1,,,,,,,,,0,,,55,60
5475,note_on,30,0,4,,,,,,,,,0,,,39,60
5475,note_on,0,0,1,,,,,,,,,0,,,63,60
5475,note_on,0,0,4,,,,,,,,,0,,,51,60
5475,note_on,0,0,4,,,,,,,,,0,,,46,60
5595,note_on,0,0,1,,,,,,,,,0,,,55,0
5595,note_on,0,0,4,,,,,,,,,0,,,46,80
5595,note_on,120,0,1,,,,,,,,,0,,,63,0
5595,note_on,0,0,4,,,,,,,,,0,,,39,0
5595,note_on,0,0,4,,,,,,,,,0,,,46,0
5595,set_tempo,360,1,0,,,,,,1071429,,,,,,,
5595,note_on,120,0,4,,,,,,,,,0,,,51,0
5605,note_on,0,0,4,,,,,,,,,0,,,45,60
5605,note_on,10,0,4,,,,,,,,,0,,,46,0
5615,note_on,0,0,4,,,,,,,,,0,,,44,60
5615,note_on,10,0,4,,,,,,,,,0,,,45,0
5625,note_on,10,0,4,,,,,,,,,0,,,44,0
5625,note_on,0,0,4,,,,,,,,,0,,,43,60
5635,note_on,10,0,4,,,,,,,,,0,,,43,0
5635,note_on,0,0,4,,,,,,,,,0,,,42,60
5645,note_on,0,0,4,,,,,,,,,0,,,41,60
5645,note_on,10,0,4,,,,,,,,,0,,,42,0
5655,note_on,0,0,4,,,,,,,,,0,,,40,60
5655,note_on,10,0,4,,,,,,,,,0,,,41,0
5665,note_on,10,0,4,,,,,,,,,0,,,40,0
5665,note_on,0,0,4,,,,,,,,,0,,,39,60
5675,note_on,0,0,4,,,,,,,,,0,,,38,60
5675,note_on,10,0,4,,,,,,,,,0,,,39,0
5685,note_on,10,0,4,,,,,,,,,0,,,38,0
5685,note_on,0,0,4,,,,,,,,,0,,,37,60
5695,note_on,10,0,4,,,,,,,,,0,,,37,0
5695,note_on,0,0,4,,,,,,,,,0,,,36,60
5705,note_on,10,0,4,,,,,,,,,0,,,36,0
5705,note_on,0,0,4,,,,,,,,,0,,,35,60
5715,note_on,10,0,4,,,,,,,,,0,,,35,0
5715,set_tempo,120,1,0,,,,,,652174,,,,,,,
5715,note_on,0,0,4,,,,,,,,,0,,,34,60
5745,note_on,30,0,4,,,,,,,,,0,,,34,0
5775,note_on,0,0,4,,,,,,,,,0,,,46,60
5775,note_on,0,0,1,,,,,,,,,0,,,62,60
5775,note_on,180,0,1,,,,,,,,,0,,,58,60
5775,note_on,30,0,4,,,,,,,,,0,,,53,60
5805,note_on,30,0,4,,,,,,,,,0,,,46,0
5805,note_on,30,0,1,,,,,,,,,0,,,62,0
5805,note_on,0,0,4,,,,,,,,,0,,,53,0
5805,note_on,0,0,1,,,,,,,,,0,,,58,0
5835,note_on,30,0,4,,,,,,,,,0,,,46,60
5835,note_on,0,0,4,,,,,,,,,0,,,54,60
5835,note_on,30,0,1,,,,,,,,,0,,,63,60
5835,note_on,0,0,1,,,,,,,,,0,,,60,60
5835,note_on,0,0,1,,,,,,,,,0,,,58,60
5865,note_on,30,0,4,,,,,,,,,0,,,54,0
5865,note_on,30,0,1,,,,,,,,,0,,,58,0
5865,note_on,0,0,1,,,,,,,,,0,,,63,0
5865,note_on,0,0,4,,,,,,,,,0,,,46,0
5865,note_on,0,0,1,,,,,,,,,0,,,60,0
5895,note_on,0,0,1,,,,,,,,,0,,,64,60
5895,note_on,0,0,1,,,,,,,,,0,,,61,60
5895,note_on,30,0,1,,,,,,,,,0,,,58,60
5895,note_on,30,0,4,,,,,,,,,0,,,55,60
5895,note_on,0,0,4,,,,,,,,,0,,,46,60
5925,note_on,30,0,4,,,,,,,,,0,,,46,0
5925,note_on,30,0,1,,,,,,,,,0,,,64,0
5925,note_on,0,0,4,,,,,,,,,0,,,55,0
5925,note_on,0,0,1,,,,,,,,,0,,,58,0
5925,note_on,0,0,1,,,,,,,,,0,,,61,0
5955,note_on,30,0,1,,,,,,,,,0,,,62,80
5955,note_on,0,0,4,,,,,,,,,0,,,46,60
5955,note_on,0,0,1,,,,,,,,,0,,,65,80
5955,note_on,30,0,4,,,,,,,,,0,,,58,60
6015,note_on,60,0,4,,,,,,,,,0,,,58,0
6015,note_on,60,0,1,,,,,,,,,0,,,65,0
6015,note_on,0,0,1,,,,,,,,,0,,,62,0
6015,note_on,0,0,1,,,,,,,,,0,,,62,60
6015,note_on,0,0,1,,,,,,,,,0,,,58,60
6015,note_on,0,0,4,,,,,,,,,0,,,53,60
6045,note_on,30,0,1,,,,,,,,,0,,,62,0
6045,note_on,0,0,1,,,,,,,,,0,,,58,0
6045,note_on,30,0,4,,,,,,,,,0,,,53,0
6075,note_on,30,0,4,,,,,,,,,0,,,46,0
6075,set_tempo,360,1,0,,,,,,1071429,,,,,,,
6075,note_on,0,0,4,,,,,,,,,0,,,34,60
6081,note_on,6,0,4,,,,,,,,,0,,,36,60
6085,note_on,4,0,4,,,,,,,,,0,,,34,0
6091,note_on,0,0,4,,,,,,,,,0,,,38,60
6091,note_on,6,0,4,,,,,,,,,0,,,36,0
6101,note_on,0,0,4,,,,,,,,,0,,,39,60
6101,note_on,10,0,4,,,,,,,,,0,,,38,0
6111,note_on,0,0,4,,,,,,,,,0,,,41,60
6111,note_on,10,0,4,,,,,,,,,0,,,39,0
6121,note_on,0,0,4,,,,,,,,,0,,,43,60
6121,note_on,10,0,4,,,,,,,,,0,,,41,0
6128,note_on,7,0,4,,,,,,,,,0,,,45,60
6131,note_on,3,0,4,,,,,,,,,0,,,43,0
6138,note_on,7,0,4,,,,,,,,,0,,,45,0
6138,note_on,0,0,4,,,,,,,,,0,,,46,60
6148,note_on,0,0,4,,,,,,,,,0,,,48,60
6148,note_on,10,0,4,,,,,,,,,0,,,46,0
6158,note_on,10,0,4,,,,,,,,,0,,,48,0
6158,note_on,0,0,4,,,,,,,,,0,,,50,60
6168,note_on,10,0,4,,,,,,,,,0,,,50,0
6168,note_on,0,0,4,,,,,,,,,0,,,51,60
6174,note_on,6,0,4,,,,,,,,,0,,,52,60
6178,note_on,4,0,4,,,,,,,,,0,,,51,0
6184,note_on,6,0,4,,,,,,,,,0,,,52,0
6185,note_on,1,0,4,,,,,,,,,0,,,55,60
6195,set_tempo,120,1,0,,,,,,652174,,,,,,,
6195,note_on,10,0,4,,,,,,,,,0,,,55,0
6195,note_on,0,0,4,,,,,,,,,0,,,53,60
6255,note_on,60,0,4,,,,,,,,,0,,,46,60
6255,note_on,0,0,1,,,,,,,,,0,,,62,60
6255,note_on,210,0,1,,,,,,,,,0,,,58,60
6255,note_on,0,0,4,,,,,,,,,0,,,41,60
6285,note_on,30,0,4,,,,,,,,,0,,,41,0
6285,note_on,0,0,1,,,,,,,,,0,,,58,0
6285,note_on,30,0,1,,,,,,,,,0,,,62,0
6285,note_on,0,0,4,,,,,,,,,0,,,46,0
6315,note_on,30,0,1,,,,,,,,,0,,,57,60
6315,note_on,30,0,4,,,,,,,,,0,,,48,60
6315,note_on,0,0,4,,,,,,,,,0,,,41,60
6315,note_on,0,0,1,,,,,,,,,0,,,63,60
6345,note_on,30,0,1,,,,,,,,,0,,,63,0
6345,note_on,0,0,1,,,,,,,,,0,,,57,0
6345,note_on,0,0,4,,,,,,,,,0,,,48,0
6345,note_on,30,0,4,,,,,,,,,0,,,41,0
6375,note_on,0,0,4,,,,,,,,,0,,,41,60
6375,note_on,0,0,1,,,,,,,,,0,,,57,60
6375,note_on,30,0,4,,,,,,,,,0,,,50,60
6375,note_on,30,0,1,,,,,,,,,0,,,65,60
6405,note_on,30,0,4,,,,,,,,,0,,,41,0
6405,note_on,0,0,1,,,,,,,,,0,,,65,0
6405,note_on,30,0,1,,,,,,,,,0,,,57,0
6405,note_on,0,0,4,,,,,,,,,0,,,50,0
6435,note_on,0,0,1,,,,,,,,,0,,,62,60
6435,note_on,30,0,1,,,,,,,,,0,,,58,60
6435,note_on,30,0,4,,,,,,,,,0,,,46,60
6495,note_on,60,0,4,,,,,,,,,0,,,53,0
6495,note_on,0,0,4,,,,,,,,,0,,,34,60
6525,note_on,30,0,4,,,,,,,,,0,,,34,0
6555,note_on,30,0,4,,,,,,,,,0,,,46,0
6555,set_tempo,360,1,0,,,,,,1071429,,,,,,,
6555,note_on,120,0,1,,,,,,,,,0,,,62,0
6555,note_on,0,0,1,,,,,,,,,0,,,58,0
6555,note_on,0,0,1,,,,,,,,,0,,,70,80
6565,note_on,10,0,1,,,,,,,,,0,,,70,0
6565,note_on,0,0,1,,,,,,,,,0,,,69,60
6575,note_on,10,0,1,,,,,,,,,0,,,69,0
6575,note_on,0,0,1,,,,,,,,,0,,,68,60
6585,note_on,0,0,1,,,,,,,,,0,,,67,60
6585,note_on,10,0,1,,,,,,,,,0,,,68,0
6595,note_on,10,0,1,,,,,,,,,0,,,67,0
6595,note_on,0,0,1,,,,,,,,,0,,,66,60
6605,note_on,10,0,1,,,,,,,,,0,,,66,0
6605,note_on,0,0,1,,,,,,,,,0,,,65,60
6615,note_on,10,0,1,,,,,,,,,0,,,65,0
6615,note_on,0,0,1,,,,,,,,,0,,,64,60
6625,note_on,0,0,1,,,,,,,,,0,,,63,60
6625,note_on,10,0,1,,,,,,,,,0,,,64,0
6635,note_on,0,0,1,,,,,,,,,0,,,62,60
6635,note_on,10,0,1,,,,,,,,,0,,,63,0
6645,note_on,10,0,1,,,,,,,,,0,,,62,0
6645,note_on,0,0,1,,,,,,,,,0,,,61,60
6655,note_on,10,0,1,,,,,,,,,0,,,61,0
6655,note_on,0,0,1,,,,,,,,,0,,,60,60
6665,note_on,10,0,1,,,,,,,,,0,,,60,0
6665,note_on,0,0,1,,,,,,,,,0,,,59,60
6675,note_on,10,0,1,,,,,,,,,0,,,59,0
6675,set_tempo,120,1,0,,,,,,652174,,,,,,,
6675,note_on,0,0,1,,,,,,,,,0,,,58,60
6735,note_on,0,0,4,,,,,,,,,0,,,46,60
6735,note_on,180,0,4,,,,,,,,,0,,,58,60
6735,note_on,60,0,1,,,,,,,,,0,,,58,0
6735,note_on,0,0,4,,,,,,,,,0,,,53,60
6735,note_on,0,0,1,,,,,,,,,0,,,62,60
6735,note_on,0,0,1,,,,,,,,,0,,,70,60
6735,note_on,0,0,1,,,,,,,,,0,,,74,60
6765,note_on,0,0,4,,,,,,,,,0,,,58,0
6765,note_on,30,0,4,,,,,,,,,0,,,46,0
6765,note_on,30,0,1,,,,,,,,,0,,,62,0
6765,note_on,0,0,1,,,,,,,,,0,,,70,0
6765,note_on,0,0,1,,,,,,,,,0,,,74,0
6765,note_on,0,0,4,,,,,,,,,0,,,53,0
6795,note_on,30,0,1,,,,,,,,,0,,,75,60
6795,note_on,0,0,4,,,,,,,,,0,,,46,60
6795,note_on,0,0,4,,,,,,,,,0,,,54,60
6795,note_on,0,0,1,,,,,,,,,0,,,63,60
6795,note_on,30,0,4,,,,,,,,,0,,,60,60
6795,note_on,0,0,1,,,,,,,,,0,,,70,60
6825,note_on,0,0,1,,,,,,,,,0,,,75,0
6825,note_on,0,0,1,,,,,,,,,0,,,70,0
6825,note_on,30,0,1,,,,,,,,,0,,,63,0
6825,note_on,30,0,4,,,,,,,,,0,,,46,0
6825,note_on,0,0,4,,,,,,,,,0,,,54,0
6825,note_on,0,0,4,,,,,,,,,0,,,60,0
6855,note_on,0,0,1,,,,,,,,,0,,,70,60
6855,note_on,0,0,1,,,,,,,,,0,,,64,60
6855,note_on,30,0,4,,,,,,,,,0,,,61,60
6855,note_on,0,0,4,,,,,,,,,0,,,55,60
6855,note_on,0,0,4,,,,,,,,,0,,,46,60
6855,note_on,30,0,1,,,,,,,,,0,,,76,60
6885,note_on,0,0,1,,,,,,,,,0,,,76,0
6885,note_on,30,0,4,,,,,,,,,0,,,46,0
6885,note_on,0,0,1,,,,,,,,,0,,,70,0
6885,note_on,0,0,4,,,,,,,,,0,,,61,0
6885,note_on,0,0,4,,,,,,,,,0,,,55,0
6885,note_on,30,0,1,,,,,,,,,0,,,64,0
6915,note_on,0,0,1,,,,,,,,,0,,,70,80
6915,note_on,0,0,4,,,,,,,,,0,,,46,60
6915,note_on,0,0,4,,,,,,,,,0,,,53,60
6915,note_on,30,0,4,,,,,,,,,0,,,62,60
6915,note_on,0,0,1,,,,,,,,,0,,,65,80
6915,note_on,30,0,1,,,,,,,,,0,,,77,60
6975,note_on,60,0,1,,,,,,,,,0,,,77,0
6975,note_on,60,0,4,,,,,,,,,0,,,62,0
6975,note_on,0,0,4,,,,,,,,,0,,,58,60
6975,note_on,0,0,1,,,,,,,,,0,,,74,60
7005,note_on,30,0,1,,,,,,,,,0,,,74,0
7005,note_on,30,0,4,,,,,,,,,0,,,58,0
7035,note_on,30,0,4,,,,,,,,,0,,,46,0
7035,note_on,0,0,1,,,,,,,,,0,,,70,0
7035,note_on,0,0,4,,,,,,,,,0,,,53,0
7035,set_tempo,360,1,0,,,,,,1071429,,,,,,,
7035,note_on,0,0,4,,,,,,,,,0,,,46,61
7035,note_on,30,0,1,,,,,,,,,0,,,65,0
7041,note_on,6,0,4,,,,,,,,,0,,,48,62
7045,note_on,4,0,4,,,,,,,,,0,,,46,0
7051,note_on,0,0,4,,,,,,,,,0,,,50,62
7051,note_on,6,0,4,,,,,,,,,0,,,48,0
7061,note_on,10,0,4,,,,,,,,,0,,,50,0
7061,note_on,0,0,4,,,,,,,,,0,,,51,62
7071,note_on,10,0,4,,,,,,,,,0,,,51,0
7071,note_on,0,0,4,,,,,,,,,0,,,53,62
7081,note_on,0,0,4,,,,,,,,,0,,,55,62
7081,note_on,10,0,4,,,,,,,,,0,,,53,0
7088,note_on,7,0,4,,,,,,,,,0,,,57,62
7091,note_on,3,0,4,,,,,,,,,0,,,55,0
7098,note_on,7,0,4,,,,,,,,,0,,,57,0
7098,note_on,0,0,4,,,,,,,,,0,,,58,62
7108,note_on,73,0,1,,,,,,,,,0,,,60,63
7108,note_on,10,0,4,,,,,,,,,0,,,58,0
7118,note_on,10,0,1,,,,,,,,,0,,,60,0
7118,note_on,0,0,1,,,,,,,,,0,,,62,63
7128,note_on,10,0,1,,,,,,,,,0,,,62,0
7128,note_on,0,0,1,,,,,,,,,0,,,63,63
7134,note_on,6,0,1,,,,,,,,,0,,,64,63
7138,note_on,4,0,1,,,,,,,,,0,,,63,0
7144,note_on,6,0,1,,,,,,,,,0,,,64,0
7145,note_on,1,0,1,,,,,,,,,0,,,67,63
7155,set_tempo,120,1,0,,,,,,652174,,,,,,,
7155,note_on,0,0,1,,,,,,,,,0,,,65,63
7155,note_on,10,0,1,,,,,,,,,0,,,67,0
7215,note_on,107,0,4,,,,,,,,,0,,,59,64
7215,note_on,0,0,1,,,,,,,,,0,,,68,64
7215,note_on,60,0,1,,,,,,,,,0,,,74,64
7215,note_on,0,0,4,,,,,,,,,0,,,53,64
7275,note_on,0,0,1,,,,,,,,,0,,,75,65
7275,note_on,0,0,1,,,,,,,,,0,,,74,0
7275,note_on,60,0,4,,,,,,,,,0,,,53,0
7275,note_on,0,0,4,,,,,,,,,0,,,53,65
7275,note_on,0,0,1,,,,,,,,,0,,,69,65
7275,note_on,0,0,4,,,,,,,,,0,,,60,65
7275,note_on,0,0,4,,,,,,,,,0,,,59,0
7275,note_on,60,0,1,,,,,,,,,0,,,68,0
7295,note_on,20,0,1,,,,,,,,,0,,,65,0
7295,note_on,0,0,1,,,,,,,,,0,,,65,66
7315,note_on,20,0,1,,,,,,,,,0,,,65,0
7315,note_on,0,0,1,,,,,,,,,0,,,67,66
7335,note_on,0,0,4,,,,,,,,,0,,,60,0
7335,note_on,60,0,4,,,,,,,,,0,,,53,0
7335,note_on,20,0,1,,,,,,,,,0,,,67,0
7335,note_on,0,0,1,,,,,,,,,0,,,69,0
7335,note_on,0,0,4,,,,,,,,,0,,,56,66
7335,note_on,0,0,4,,,,,,,,,0,,,53,66
7335,note_on,0,0,1,,,,,,,,,0,,,63,66
7335,note_on,0,0,1,,,,,,,,,0,,,72,66
7335,note_on,0,0,1,,,,,,,,,0,,,75,0
7335,note_on,0,0,4,,,,,,,,,0,,,65,66
7335,note_on,0,0,1,,,,,,,,,0,,,77,66
7355,note_on,0,0,1,,,,,,,,,0,,,60,67
7355,note_on,20,0,1,,,,,,,,,0,,,63,0
7375,note_on,0,0,1,,,,,,,,,0,,,62,67
7375,note_on,20,0,1,,,,,,,,,0,,,60,0
7395,note_on,0,0,4,,,,,,,,,0,,,56,0
7395,note_on,20,0,1,,,,,,,,,0,,,62,0
7395,note_on,0,0,1,,,,,,,,,0,,,72,0
7395,note_on,0,0,4,,,,,,,,,0,,,46,67
7395,note_on,0,0,1,,,,,,,,,0,,,77,0
7395,note_on,60,0,4,,,,,,,,,0,,,53,0
7395,note_on,0,0,4,,,,,,,,,0,,,65,0
7400,note_on,5,0,4,,,,,,,,,0,,,53,67
7405,note_on,5,0,4,,,,,,,,,0,,,62,68
7410,note_on,15,0,1,,,,,,,,,0,,,58,68
7415,note_on,5,0,1,,,,,,,,,0,,,65,68
7420,note_on,5,0,1,,,,,,,,,0,,,70,68
7425,note_on,5,0,1,,,,,,,,,0,,,74,68
7515,note_on,110,0,4,,,,,,,,,0,,,62,0
7515,note_on,0,0,1,,,,,,,,,0,,,73,69
7515,note_on,90,0,1,,,,,,,,,0,,,74,0
7515,set_tempo,360,1,0,,,,,,1071429,,,,,,,
7515,note_on,0,0,1,,,,,,,,,0,,,70,0
7515,note_on,0,0,1,,,,,,,,,0,,,65,0
7515,note_on,0,0,4,,,,,,,,,0,,,46,0
7515,note_on,0,0,4,,,,,,,,,0,,,53,0
7515,note_on,0,0,1,,,,,,,,,0,,,82,69
7515,note_on,0,0,1,,,,,,,,,0,,,77,69
7515,note_on,0,0,1,,,,,,,,,0,,,58,0
7533,note_on,0,0,1,,,,,,,,,0,,,82,0
7533,note_on,0,0,1,,,,,,,,,0,,,81,70
7533,note_on,0,0,1,,,,,,,,,0,,,77,0
7533,note_on,18,0,1,,,,,,,,,0,,,73,0
7539,note_on,6,0,1,,,,,,,,,0,,,81,0
7539,note_on,0,0,1,,,,,,,,,0,,,80,70
7539,note_on,0,0,1,,,,,,,,,0,,,72,70
7551,note_on,12,0,1,,,,,,,,,0,,,80,0
7551,note_on,0,0,1,,,,,,,,,0,,,72,0
7551,note_on,0,0,1,,,,,,,,,0,,,74,70
7551,note_on,0,0,1,,,,,,,,,0,,,79,70
7551,note_on,0,0,1,,,,,,,,,0,,,71,70
7563,note_on,12,0,1,,,,,,,,,0,,,71,0
7563,note_on,0,0,1,,,,,,,,,0,,,79,0
7563,note_on,0,0,1,,,,,,,,,0,,,74,0
7563,note_on,0,0,1,,,,,,,,,0,,,78,70
7563,note_on,0,0,1,,,,,,,,,0,,,70,70
7575,note_on,12,0,1,,,,,,,,,0,,,70,0
7575,note_on,0,0,1,,,,,,,,,0,,,69,70
7575,note_on,0,0,1,,,,,,,,,0,,,72,70
7575,note_on,0,0,1,,,,,,,,,0,,,77,70
7575,note_on,0,0,1,,,,,,,,,0,,,78,0
7587,note_on,12,0,1,,,,,,,,,0,,,69,0
7587,note_on,0,0,1,,,,,,,,,0,,,68,71
7587,note_on,0,0,1,,,,,,,,,0,,,72,0
7587,note_on,0,0,1,,,,,,,,,0,,,77,0
7587,note_on,0,0,1,,,,,,,,,0,,,76,71
7599,note_on,0,0,1,,,,,,,,,0,,,70,71
7599,note_on,0,0,1,,,,,,,,,0,,,75,71
7599,note_on,0,0,1,,,,,,,,,0,,,76,0
7599,note_on,12,0,1,,,,,,,,,0,,,68,0
7599,note_on,0,0,1,,,,,,,,,0,,,67,71
7611,note_on,0,0,1,,,,,,,,,0,,,66,71
7611,note_on,0,0,1,,,,,,,,,0,,,70,0
7611,note_on,0,0,1,,,,,,,,,0,,,74,71
7611,note_on,0,0,1,,,,,,,,,0,,,75,0
7611,note_on,12,0,1,,,,,,,,,0,,,67,0
7623,note_on,0,0,1,,,,,,,,,0,,,74,71
7623,note_on,0,0,1,,,,,,,,,0,,,66,0
7623,note_on,0,0,1,,,,,,,,,0,,,65,71
7623,note_on,0,0,1,,,,,,,,,0,,,68,71
7623,note_on,12,0,1,,,,,,,,,0,,,74,0
7635,note_on,0,0,1,,,,,,,,,0,,,64,71
7635,note_on,0,0,1,,,,,,,,,0,,,67,71
7635,note_on,0,0,1,,,,,,,,,0,,,68,0
7635,note_on,12,0,1,,,,,,,,,0,,,74,0
7635,note_on,0,0,1,,,,,,,,,0,,,72,71
7635,note_on,0,0,1,,,,,,,,,0,,,65,0
7635,set_tempo,120,1,0,,,,,,652174,,,,,,,
7665,note_on,0,0,1,,,,,,,,,0,,,67,0
7665,note_on,0,0,1,,,,,,,,,0,,,72,0
7665,note_on,30,0,1,,,,,,,,,0,,,64,0
7695,note_on,0,0,1,,,,,,,,,0,,,58,72
7695,note_on,180,0,4,,,,,,,,,0,,,48,72
7695,note_on,0,0,1,,,,,,,,,0,,,64,72
7695,note_on,30,0,1,,,,,,,,,0,,,55,72
7705,note_on,0,0,4,,,,,,,,,0,,,49,72
7705,note_on,10,0,4,,,,,,,,,0,,,48,0
7715,note_on,10,0,4,,,,,,,,,0,,,49,0
7715,note_on,0,0,4,,,,,,,,,0,,,48,73
7725,note_on,30,0,1,,,,,,,,,0,,,64,0
7725,note_on,0,0,1,,,,,,,,,0,,,55,0
7725,note_on,10,0,4,,,,,,,,,0,,,48,0
7725,note_on,0,0,1,,,,,,,,,0,,,58,0
7725,note_on,0,0,4,,,,,,,,,0,,,47,73
7735,note_on,10,0,4,,,,,,,,,0,,,47,0
7735,note_on,0,0,4,,,,,,,,,0,,,46,73
7745,note_on,0,0,4,,,,,,,,,0,,,45,73
7745,note_on,10,0,4,,,,,,,,,0,,,46,0
7755,note_on,0,0,4,,,,,,,,,0,,,44,73
7755,note_on,0,0,1,,,,,,,,,0,,,65,73
7755,note_on,0,0,1,,,,,,,,,0,,,61,73
7755,note_on,10,0,4,,,,,,,,,0,,,45,0
7755,note_on,30,0,1,,,,,,,,,0,,,56,73
7785,note_on,30,0,1,,,,,,,,,0,,,65,0
7785,note_on,0,0,1,,,,,,,,,0,,,56,0
7785,note_on,0,0,1,,,,,,,,,0,,,61,0
7785,note_on,30,0,4,,,,,,,,,0,,,44,0
7815,note_on,30,0,4,,,,,,,,,0,,,41,74
7815,note_on,0,0,1,,,,,,,,,0,,,59,74
7815,note_on,0,0,1,,,,,,,,,0,,,62,74
7815,note_on,30,0,1,,,,,,,,,0,,,68,74
7822,note_on,7,0,4,,,,,,,,,0,,,43,74
7824,note_on,2,0,4,,,,,,,,,0,,,41,0
7831,note_on,0,0,4,,,,,,,,,0,,,41,75
7831,note_on,7,0,4,,,,,,,,,0,,,43,0
7840,note_on,0,0,4,,,,,,,,,0,,,40,75
7840,note_on,9,0,4,,,,,,,,,0,,,41,0
7845,note_on,30,0,1,,,,,,,,,0,,,59,0
7845,note_on,0,0,1,,,,,,,,,0,,,62,0
7845,note_on,0,0,1,,,,,,,,,0,,,68,0
7848,note_on,8,0,4,,,,,,,,,0,,,39,75
7849,note_on,1,0,4,,,,,,,,,0,,,40,0
7857,note_on,8,0,4,,,,,,,,,0,,,39,0
7857,note_on,0,0,4,,,,,,,,,0,,,38,75
7866,note_on,0,0,4,,,,,,,,,0,,,37,75
7866,note_on,9,0,4,,,,,,,,,0,,,38,0
7875,note_on,0,0,4,,,,,,,,,0,,,36,75
7875,note_on,0,0,1,,,,,,,,,0,,,64,95
7875,note_on,30,0,1,,,,,,,,,0,,,67,95
7875,note_on,9,0,4,,,,,,,,,0,,,37,0
7935,note_on,0,0,1,,,,,,,,,0,,,67,0
7935,note_on,0,0,1,,,,,,,,,0,,,60,76
7935,note_on,0,0,1,,,,,,,,,0,,,55,76
7935,note_on,0,0,4,,,,,,,,,0,,,52,76
7935,note_on,60,0,4,,,,,,,,,0,,,36,0
7935,note_on,60,0,1,,,,,,,,,0,,,64,0
7965,note_on,30,0,1,,,,,,,,,0,,,60,0
7965,note_on,30,0,4,,,,,,,,,0,,,52,0
7965,note_on,0,0,1,,,,,,,,,0,,,55,0
7995,note_on,30,0,1,,,,,,,,,0,,,94,77
7995,set_tempo,360,1,0,,,,,,1071429,,,,,,,
7995,note_on,0,0,1,,,,,,,,,0,,,85,77
7995,note_on,0,0,1,,,,,,,,,0,,,89,77
8013,note_on,18,0,1,,,,,,,,,0,,,85,0
8013,note_on,0,0,1,,,,,,,,,0,,,89,0
8013,note_on,0,0,1,,,,,,,,,0,,,93,77
8013,note_on,0,0,1,,,,,,,,,0,,,94,0
8019,note_on,0,0,1,,,,,,,,,0,,,92,78
8019,note_on,0,0,1,,,,,,,,,0,,,84,78
8019,note_on,6,0,1,,,,,,,,,0,,,93,0
8031,note_on,0,0,1,,,,,,,,,0,,,84,0
8031,note_on,0,0,1,,,,,,,,,0,,,83,78
8031,note_on,0,0,1,,,,,,,,,0,,,91,78
8031,note_on,0,0,1,,,,,,,,,0,,,86,78
8031,note_on,12,0,1,,,,,,,,,0,,,92,0
8043,note_on,12,0,1,,,,,,,,,0,,,83,0
8043,note_on,0,0,1,,,,,,,,,0,,,90,78
8043,note_on,0,0,1,,,,,,,,,0,,,91,0
8043,note_on,0,0,1,,,,,,,,,0,,,82,78
8043,note_on,0,0,1,,,,,,,,,0,,,86,0
8055,note_on,0,0,1,,,,,,,,,0,,,81,78
8055,note_on,12,0,1,,,,,,,,,0,,,82,0
8055,note_on,0,0,1,,,,,,,,,0,,,89,78
8055,note_on,0,0,1,,,,,,,,,0,,,90,0
8055,note_on,0,0,1,,,,,,,,,0,,,84,78
8067,note_on,0,0,1,,,,,,,,,0,,,80,78
8067,note_on,0,0,1,,,,,,,,,0,,,84,0
8067,note_on,0,0,1,,,,,,,,,0,,,88,78
8067,note_on,0,0,1,,,,,,,,,0,,,89,0
8067,note_on,12,0,1,,,,,,,,,0,,,81,0
8079,note_on,0,0,1,,,,,,,,,0,,,79,79
8079,note_on,0,0,1,,,,,,,,,0,,,87,79
8079,note_on,0,0,1,,,,,,,,,0,,,88,0
8079,note_on,12,0,1,,,,,,,,,0,,,80,0
8079,note_on,0,0,1,,,,,,,,,0,,,82,79
8091,note_on,0,0,1,,,,,,,,,0,,,87,0
8091,note_on,0,0,1,,,,,,,,,0,,,86,79
8091,note_on,0,0,1,,,,,,,,,0,,,82,0
8091,note_on,0,0,1,,,,,,,,,0,,,78,79
8091,note_on,12,0,1,,,,,,,,,0,,,79,0
8103,note_on,0,0,1,,,,,,,,,0,,,77,79
8103,note_on,0,0,1,,,,,,,,,0,,,78,0
8103,note_on,0,0,1,,,,,,,,,0,,,80,79
8103,note_on,0,0,1,,,,,,,,,0,,,86,79
8103,note_on,12,0,1,,,,,,,,,0,,,86,0
8115,note_on,0,0,1,,,,,,,,,0,,,79,79
8115,note_on,0,0,1,,,,,,,,,0,,,80,0
8115,note_on,0,0,1,,,,,,,,,0,,,84,79
8115,note_on,0,0,1,,,,,,,,,0,,,76,79
8115,note_on,0,0,1,,,,,,,,,0,,,77,0
8115,set_tempo,120,1,0,,,,,,652174,,,,,,,
8115,note_on,12,0,1,,,,,,,,,0,,,86,0
8145,note_on,0,0,1,,,,,,,,,0,,,79,0
8145,note_on,0,0,1,,,,,,,,,0,,,84,0
8145,note_on,30,0,1,,,,,,,,,0,,,76,0
8175,note_on,0,0,1,,,,,,,,,0,,,67,80
8175,note_on,210,0,4,,,,,,,,,0,,,60,80
8175,note_on,0,0,1,,,,,,,,,0,,,76,80
8175,note_on,30,0,1,,,,,,,,,0,,,63,80
8175,note_on,0,0,1,,,,,,,,,0,,,70,80
8175,note_on,0,0,4,,,,,,,,,0,,,48,80
8185,note_on,10,0,4,,,,,,,,,0,,,61,80
8195,note_on,0,0,4,,,,,,,,,0,,,60,80
8195,note_on,10,0,4,,,,,,,,,0,,,61,0
8205,note_on,0,0,1,,,,,,,,,0,,,63,0
8205,note_on,10,0,4,,,,,,,,,0,,,60,0
8205,note_on,0,0,1,,,,,,,,,0,,,70,0
8205,note_on,0,0,1,,,,,,,,,0,,,67,0
8205,note_on,30,0,1,,,,,,,,,0,,,76,0
8205,note_on,0,0,4,,,,,,,,,0,,,59,81
8215,note_on,0,0,4,,,,,,,,,0,,,58,81
8215,note_on,10,0,4,,,,,,,,,0,,,59,0
8225,note_on,10,0,4,,,,,,,,,0,,,58,0
8225,note_on,0,0,4,,,,,,,,,0,,,57,81
8235,note_on,0,0,4,,,,,,,,,0,,,56,81
8235,note_on,0,0,4,,,,,,,,,0,,,60,0
8235,note_on,10,0,4,,,,,,,,,0,,,57,0
8235,note_on,30,0,1,,,,,,,,,0,,,65,81
8235,note_on,0,0,1,,,,,,,,,0,,,68,81
8235,note_on,0,0,1,,,,,,,,,0,,,73,81
8235,note_on,0,0,4,,,,,,,,,0,,,48,0
8235,note_on,0,0,1,,,,,,,,,0,,,77,81
8265,note_on,0,0,1,,,,,,,,,0,,,68,0
8265,note_on,0,0,1,,,,,,,,,0,,,73,0
8265,note_on,0,0,1,,,,,,,,,0,,,65,0
8265,note_on,30,0,1,,,,,,,,,0,,,77,0
8265,note_on,30,0,4,,,,,,,,,0,,,56,0
8295,note_on,30,0,4,,,,,,,,,0,,,53,82
8295,note_on,0,0,1,,,,,,,,,0,,,80,82
8295,note_on,0,0,1,,,,,,,,,0,,,74,82
8295,note_on,0,0,4,,,,,,,,,0,,,41,82
8295,note_on,0,0,1,,,,,,,,,0,,,71,82
8295,note_on,30,0,1,,,,,,,,,0,,,68,82
8302,note_on,7,0,4,,,,,,,,,0,,,55,82
8311,note_on,9,0,4,,,,,,,,,0,,,55,0
8311,note_on,0,0,4,,,,,,,,,0,,,53,82
8320,note_on,9,0,4,,,,,,,,,0,,,53,0
8320,note_on,0,0,4,,,,,,,,,0,,,52,83
8325,note_on,0,0,1,,,,,,,,,0,,,80,0
8325,note_on,0,0,1,,,,,,,,,0,,,74,0
8325,note_on,0,0,1,,,,,,,,,0,,,68,0
8325,note_on,30,0,1,,,,,,,,,0,,,71,0
8328,note_on,8,0,4,,,,,,,,,0,,,51,83
8329,note_on,1,0,4,,,,,,,,,0,,,52,0
8337,note_on,0,0,4,,,,,,,,,0,,,50,83
8337,note_on,8,0,4,,,,,,,,,0,,,51,0
8346,note_on,9,0,4,,,,,,,,,0,,,50,0
8346,note_on,0,0,4,,,,,,,,,0,,,49,83
8355,note_on,0,0,1,,,,,,,,,0,,,67,103
8355,note_on,30,0,1,,,,,,,,,0,,,79,103
8355,note_on,0,0,4,,,,,,,,,0,,,36,83
8355,note_on,0,0,4,,,,,,,,,0,,,41,0
8355,note_on,0,0,4,,,,,,,,,0,,,48,83
8355,note_on,0,0,4,,,,,,,,,0,,,53,0
8355,note_on,0,0,1,,,,,,,,,0,,,76,103
8355,note_on,9,0,4,,,,,,,,,0,,,49,0
8415,note_on,60,0,4,,,,,,,,,0,,,48,0
8415,note_on,0,0,1,,,,,,,,,0,,,72,84
8415,note_on,0,0,4,,,,,,,,,0,,,64,84
8415,note_on,0,0,1,,,,,,,,,0,,,79,0
8415,note_on,0,0,4,,,,,,,,,0,,,55,84
8415,note_on,0,0,1,,,,,,,,,0,,,76,0
8415,note_on,0,0,4,,,,,,,,,0,,,36,0
8415,note_on,60,0,1,,,,,,,,,0,,,67,0
8445,note_on,30,0,4,,,,,,,,,0,,,64,0
8445,note_on,0,0,4,,,,,,,,,0,,,55,0
8445,note_on,30,0,1,,,,,,,,,0,,,72,0
8475,note_on,0,0,3,,,,,,,,,0,,,72,115
8475,note_on,30,0,1,,,,,,,,,0,,,65,85
8475,note_on,0,0,1,,,,,,,,,0,,,68,115
8475,note_on,3210,0,3,,,,,,,,,0,,,80,85
8475,set_tempo,360,1,0,,,,,,1071429,,,,,,,
8487,note_on,0,0,3,,,,,,,,,0,,,79,85
8487,note_on,0,0,1,,,,,,,,,0,,,64,85
8487,note_on,12,0,1,,,,,,,,,0,,,65,0
8487,note_on,12,0,3,,,,,,,,,0,,,80,0
8499,note_on,0,0,1,,,,,,,,,0,,,63,85
8499,note_on,0,0,3,,,,,,,,,0,,,78,85
8499,note_on,12,0,1,,,,,,,,,0,,,64,0
8499,note_on,12,0,3,,,,,,,,,0,,,79,0
8511,note_on,0,0,1,,,,,,,,,0,,,62,86
8511,note_on,12,0,3,,,,,,,,,0,,,78,0
8511,note_on,0,0,3,,,,,,,,,0,,,77,86
8511,note_on,12,0,1,,,,,,,,,0,,,63,0
8523,note_on,12,0,3,,,,,,,,,0,,,77,0
8523,note_on,0,0,1,,,,,,,,,0,,,61,86
8523,note_on,12,0,1,,,,,,,,,0,,,62,0
8523,note_on,0,0,3,,,,,,,,,0,,,76,86
8535,note_on,0,0,1,,,,,,,,,0,,,60,86
8535,note_on,12,0,1,,,,,,,,,0,,,61,0
8535,note_on,12,0,3,,,,,,,,,0,,,76,0
8535,note_on,0,0,3,,,,,,,,,0,,,75,86
8547,note_on,0,0,1,,,,,,,,,0,,,59,86
8547,note_on,0,0,3,,,,,,,,,0,,,74,86
8547,note_on,12,0,1,,,,,,,,,0,,,60,0
8547,note_on,12,0,3,,,,,,,,,0,,,75,0
8559,note_on,0,0,1,,,,,,,,,0,,,58,86
8559,note_on,0,0,3,,,,,,,,,0,,,73,86
8559,note_on,12,0,1,,,,,,,,,0,,,59,0
8559,note_on,12,0,3,,,,,,,,,0,,,74,0
8571,note_on,0,0,1,,,,,,,,,0,,,57,87
8571,note_on,0,0,3,,,,,,,,,0,,,72,87
8571,note_on,12,0,3,,,,,,,,,0,,,73,0
8571,note_on,12,0,1,,,,,,,,,0,,,58,0
8583,note_on,0,0,3,,,,,,,,,0,,,71,87
8583,note_on,12,0,1,,,,,,,,,0,,,57,0
8583,note_on,0,0,1,,,,,,,,,0,,,56,87
8583,note_on,12,0,3,,,,,,,,,0,,,72,0
8595,set_tempo,120,1,0,,,,,,652174,,,,,,,
8595,note_on,0,0,1,,,,,,,,,0,,,65,87
8595,note_on,0,0,1,,,,,,,,,0,,,62,87
8595,note_on,12,0,3,,,,,,,,,0,,,71,0
8595,note_on,0,0,1,,,,,,,,,0,,,68,0
8595,note_on,0,0,3,,,,,,,,,0,,,70,87
8595,note_on,12,0,1,,,,,,,,,0,,,56,0
8595,note_on,0,0,3,,,,,,,,,0,,,68,87
8595,note_on,0,0,3,,,,,,,,,0,,,72,0
8625,note_on,0,0,1,,,,,,,,,0,,,62,0
8625,note_on,30,0,1,,,,,,,,,0,,,65,0
8625,note_on,30,0,3,,,,,,,,,0,,,70,0
8625,note_on,0,0,3,,,,,,,,,0,,,68,0
8655,note_on,30,0,1,,,,,,,,,0,,,62,88
8655,note_on,0,0,4,,,,,,,,,0,,,56,88
8655,note_on,0,0,4,,,,,,,,,0,,,53,88
8655,note_on,210,0,4,,,,,,,,,0,,,46,88
8665,note_on,0,0,4,,,,,,,,,0,,,47,88
8665,note_on,10,0,4,,,,,,,,,0,,,46,0
8675,note_on,0,0,4,,,,,,,,,0,,,46,88
8675,note_on,10,0,4,,,,,,,,,0,,,47,0
8685,note_on,10,0,4,,,,,,,,,0,,,46,0
8685,note_on,0,0,4,,,,,,,,,0,,,56,0
8685,note_on,0,0,4,,,,,,,,,0,,,53,0
8685,note_on,0,0,4,,,,,,,,,0,,,45,89
8685,note_on,30,0,1,,,,,,,,,0,,,62,0
8695,note_on,10,0,4,,,,,,,,,0,,,45,0
8695,note_on,0,0,4,,,,,,,,,0,,,44,89
8705,note_on,0,0,4,,,,,,,,,0,,,43,89
8705,note_on,10,0,4,,,,,,,,,0,,,44,0
8715,note_on,0,0,4,,,,,,,,,0,,,42,89
8715,note_on,30,0,1,,,,,,,,,0,,,63,89
8715,note_on,10,0,4,,,,,,,,,0,,,43,0
8715,note_on,0,0,1,,,,,,,,,0,,,59,89
8715,note_on,0,0,4,,,,,,,,,0,,,54,89
8745,note_on,30,0,1,,,,,,,,,0,,,59,0
8745,note_on,0,0,4,,,,,,,,,0,,,42,0
8745,note_on,0,0,1,,,,,,,,,0,,,63,0
8745,note_on,30,0,4,,,,,,,,,0,,,54,0
8775,note_on,0,0,1,,,,,,,,,0,,,60,90
8775,note_on,30,0,4,,,,,,,,,0,,,57,90
8775,note_on,0,0,4,,,,,,,,,0,,,39,90
8775,note_on,30,0,1,,,,,,,,,0,,,66,90
8782,note_on,7,0,4,,,,,,,,,0,,,41,90
8784,note_on,2,0,4,,,,,,,,,0,,,39,0
8791,note_on,7,0,4,,,,,,,,,0,,,41,0
8791,note_on,0,0,4,,,,,,,,,0,,,39,90
8800,note_on,0,0,4,,,,,,,,,0,,,38,90
8800,note_on,9,0,4,,,,,,,,,0,,,39,0
8805,note_on,0,0,1,,,,,,,,,0,,,66,0
8805,note_on,5,0,4,,,,,,,,,0,,,57,0
8805,note_on,30,0,1,,,,,,,,,0,,,60,0
8808,note_on,3,0,4,,,,,,,,,0,,,37,91
8809,note_on,1,0,4,,,,,,,,,0,,,38,0
8817,note_on,8,0,4,,,,,,,,,0,,,37,0
8817,note_on,0,0,4,,,,,,,,,0,,,36,91
8826,note_on,9,0,4,,,,,,,,,0,,,36,0
8826,note_on,0,0,4,,,,,,,,,0,,,35,91
8835,note_on,0,0,4,,,,,,,,,0,,,34,91
8835,note_on,0,0,1,,,,,,,,,0,,,62,111
8835,note_on,9,0,4,,,,,,,,,0,,,35,0
8835,note_on,30,0,1,,,,,,,,,0,,,65,111
8895,note_on,60,0,1,,,,,,,,,0,,,62,0
8895,note_on,0,0,4,,,,,,,,,0,,,50,92
8895,note_on,0,0,1,,,,,,,,,0,,,65,0
8895,note_on,0,0,4,,,,,,,,,0,,,53,92
8895,note_on,0,0,4,,,,,,,,,0,,,58,92
8895,note_on,60,0,4,,,,,,,,,0,,,34,0
8925,note_on,30,0,4,,,,,,,,,0,,,58,0
8925,note_on,0,0,4,,,,,,,,,0,,,53,0
8925,note_on,0,0,4,,,,,,,,,0,,,50,0
8955,note_on,0,0,1,,,,,,,,,0,,,68,123
8955,note_on,0,0,3,,,,,,,,,0,,,71,123
8955,set_tempo,360,1,0,,,,,,1071429,,,,,,,
8955,note_on,330,0,3,,,,,,,,,0,,,80,93
8955,note_on,60,0,1,,,,,,,,,0,,,64,93
8967,note_on,0,0,1,,,,,,,,,0,,,63,93
8967,note_on,12,0,1,,,,,,,,,0,,,64,0
8967,note_on,0,0,3,,,,,,,,,0,,,79,93
8967,note_on,12,0,3,,,,,,,,,0,,,80,0
8979,note_on,0,0,1,,,,,,,,,0,,,62,93
8979,note_on,12,0,3,,,,,,,,,0,,,79,0
8979,note_on,0,0,3,,,,,,,,,0,,,78,93
8979,note_on,12,0,1,,,,,,,,,0,,,63,0
8991,note_on,12,0,1,,,,,,,,,0,,,62,0
8991,note_on,12,0,3,,,,,,,,,0,,,78,0
8991,note_on,0,0,3,,,,,,,,,0,,,77,94
8991,note_on,0,0,1,,,,,,,,,0,,,61,94
9003,note_on,12,0,1,,,,,,,,,0,,,61,0
9003,note_on,0,0,1,,,,,,,,,0,,,60,94
9003,note_on,12,0,3,,,,,,,,,0,,,77,0
9003,note_on,0,0,3,,,,,,,,,0,,,76,94
9015,note_on,0,0,3,,,,,,,,,0,,,75,94
9015,note_on,12,0,1,,,,,,,,,0,,,60,0
9015,note_on,12,0,3,,,,,,,,,0,,,76,0
9015,note_on,0,0,1,,,,,,,,,0,,,59,94
9027,note_on,12,0,1,,,,,,,,,0,,,59,0
9027,note_on,12,0,3,,,,,,,,,0,,,75,0
9027,note_on,0,0,1,,,,,,,,,0,,,58,94
9027,note_on,0,0,3,,,,,,,,,0,,,74,94
9039,note_on,12,0,1,,,,,,,,,0,,,58,0
9039,note_on,12,0,3,,,,,,,,,0,,,74,0
9039,note_on,0,0,3,,,,,,,,,0,,,73,94
9039,note_on,0,0,1,,,,,,,,,0,,,57,94
9051,note_on,0,0,1,,,,,,,,,0,,,56,95
9051,note_on,12,0,1,,,,,,,,,0,,,57,0
9051,note_on,0,0,3,,,,,,,,,0,,,72,95
9051,note_on,12,0,3,,,,,,,,,0,,,73,0
9063,note_on,0,0,1,,,,,,,,,0,,,59,95
9063,note_on,12,0,3,,,,,,,,,0,,,72,0
9063,note_on,0,0,3,,,,,,,,,0,,,71,95
9063,note_on,12,0,1,,,,,,,,,0,,,56,0
9075,note_on,12,0,3,,,,,,,,,0,,,71,0
9075,note_on,0,0,3,,,,,,,,,0,,,71,0
9075,note_on,0,0,3,,,,,,,,,0,,,70,95
9075,note_on,0,0,3,,,,,,,,,0,,,68,95
9075,note_on,12,0,1,,,,,,,,,0,,,59,0
9075,note_on,0,0,1,,,,,,,,,0,,,68,0
9075,note_on,0,0,1,,,,,,,,,0,,,65,95
9075,set_tempo,120,1,0,,,,,,652174,,,,,,,
9075,note_on,0,0,1,,,,,,,,,0,,,62,95
9105,note_on,0,0,1,,,,,,,,,0,,,62,0
9105,note_on,0,0,3,,,,,,,,,0,,,68,0
9105,note_on,30,0,1,,,,,,,,,0,,,65,0
9105,note_on,30,0,3,,,,,,,,,0,,,70,0
9132,note_on,207,0,4,,,,,,,,,0,,,46,96
9135,note_on,0,0,1,,,,,,,,,0,,,65,96
9135,note_on,0,0,1,,,,,,,,,0,,,62,96
9135,note_on,3,0,4,,,,,,,,,0,,,58,96
9135,note_on,30,0,1,,,,,,,,,0,,,74,96
9135,note_on,0,0,1,,,,,,,,,0,,,68,96
9145,note_on,10,0,4,,,,,,,,,0,,,59,96
9155,note_on,10,0,4,,,,,,,,,0,,,59,0
9155,note_on,0,0,4,,,,,,,,,0,,,58,96
9165,note_on,0,0,1,,,,,,,,,0,,,65,0
9165,note_on,0,0,1,,,,,,,,,0,,,68,0
9165,note_on,0,0,1,,,,,,,,,0,,,74,0
9165,note_on,30,0,1,,,,,,,,,0,,,62,0
9165,note_on,10,0,4,,,,,,,,,0,,,58,0
9165,note_on,0,0,4,,,,,,,,,0,,,57,96
9175,note_on,0,0,4,,,,,,,,,0,,,56,97
9175,note_on,10,0,4,,,,,,,,,0,,,57,0
9185,note_on,0,0,4,,,,,,,,,0,,,55,97
9185,note_on,10,0,4,,,,,,,,,0,,,56,0
9195,note_on,30,0,1,,,,,,,,,0,,,75,97
9195,note_on,0,0,4,,,,,,,,,0,,,54,97
9195,note_on,0,0,4,,,,,,,,,0,,,46,0
9195,note_on,0,0,4,,,,,,,,,0,,,42,97
9195,note_on,10,0,4,,,,,,,,,0,,,55,0
9195,note_on,0,0,1,,,,,,,,,0,,,66,97
9195,note_on,0,0,1,,,,,,,,,0,,,63,97
9195,note_on,0,0,4,,,,,,,,,0,,,58,0
9195,note_on,0,0,1,,,,,,,,,0,,,71,97
9225,note_on,30,0,1,,,,,,,,,0,,,63,0
9225,note_on,30,0,4,,,,,,,,,0,,,54,0
9225,note_on,0,0,1,,,,,,,,,0,,,75,0
9225,note_on,0,0,1,,,,,,,,,0,,,71,0
9225,note_on,0,0,1,,,,,,,,,0,,,66,0
9225,note_on,0,0,4,,,,,,,,,0,,,42,0
9252,note_on,27,0,4,,,,,,,,,0,,,39,98
9255,note_on,0,0,1,,,,,,,,,0,,,69,98
9255,note_on,0,0,1,,,,,,,,,0,,,66,98
9255,note_on,3,0,4,,,,,,,,,0,,,51,98
9255,note_on,0,0,1,,,,,,,,,0,,,72,98
9255,note_on,30,0,1,,,,,,,,,0,,,78,98
9262,note_on,7,0,4,,,,,,,,,0,,,53,98
9271,note_on,0,0,4,,,,,,,,,0,,,51,98
9271,note_on,9,0,4,,,,,,,,,0,,,53,0
9280,note_on,0,0,4,,,,,,,,,0,,,50,98
9280,note_on,9,0,4,,,,,,,,,0,,,51,0
9285,note_on,0,0,1,,,,,,,,,0,,,69,0
9285,note_on,0,0,1,,,,,,,,,0,,,72,0
9285,note_on,30,0,1,,,,,,,,,0,,,66,0
9285,note_on,0,0,1,,,,,,,,,0,,,78,0
9288,note_on,8,0,4,,,,,,,,,0,,,49,98
9289,note_on,1,0,4,,,,,,,,,0,,,50,0
9297,note_on,0,0,4,,,,,,,,,0,,,48,99
9297,note_on,8,0,4,,,,,,,,,0,,,49,0
9306,note_on,9,0,4,,,,,,,,,0,,,48,0
9306,note_on,0,0,4,,,,,,,,,0,,,47,99
9315,note_on,0,0,4,,,,,,,,,0,,,51,0
9315,note_on,0,0,4,,,,,,,,,0,,,39,0
9315,note_on,0,0,4,,,,,,,,,0,,,34,99
9315,note_on,30,0,1,,,,,,,,,0,,,65,119
9315,note_on,9,0,4,,,,,,,,,0,,,47,0
9315,time_signature,240,1,0,8,4,24,8,,,,,,,,,
9320,note_on,5,0,4,,,,,,,,,0,,,46,99
9320,note_on,5,0,1,,,,,,,,,0,,,70,119
9325,note_on,5,0,1,,,,,,,,,0,,,74,119
9330,note_on,5,0,1,,,,,,,,,0,,,82,119
9375,note_on,0,0,1,,,,,,,,,0,,,58,100
9375,note_on,0,0,4,,,,,,,,,0,,,34,0
9375,note_on,45,0,1,,,,,,,,,0,,,82,0
9375,note_on,55,0,4,,,,,,,,,0,,,46,0
9375,note_on,0,0,4,,,,,,,,,0,,,50,100
9375,note_on,0,0,4,,,,,,,,,0,,,53,100
9375,note_on,0,0,1,,,,,,,,,0,,,65,0
9375,note_on,0,0,1,,,,,,,,,0,,,70,0
9375,note_on,0,0,1,,,,,,,,,0,,,74,0
9405,note_on,0,0,4,,,,,,,,,0,,,53,0
9405,note_on,30,0,1,,,,,,,,,0,,,58,0
9405,note_on,30,0,4,,,,,,,,,0,,,50,0
9435,set_tempo,120,1,0,,,,,,1071429,,,,,,,
9435,note_on,0,0,3,,,,,,,,,0,,,82,100
9435,note_on,330,0,3,,,,,,,,,0,,,70,100
9445,note_on,0,0,1,,,,,,,,,0,,,81,100
9445,note_on,0,0,3,,,,,,,,,0,,,70,0
9445,note_on,40,0,1,,,,,,,,,0,,,93,100
9445,note_on,10,0,3,,,,,,,,,0,,,82,0
9455,note_on,0,0,1,,,,,,,,,0,,,93,0
9455,note_on,10,0,3,,,,,,,,,0,,,68,100
9455,note_on,10,0,1,,,,,,,,,0,,,81,0
9455,note_on,0,0,3,,,,,,,,,0,,,80,100
9465,note_on,10,0,1,,,,,,,,,0,,,91,100
9465,note_on,0,0,1,,,,,,,,,0,,,79,100
9465,note_on,0,0,3,,,,,,,,,0,,,68,0
9465,note_on,10,0,3,,,,,,,,,0,,,80,0
9475,note_on,10,0,1,,,,,,,,,0,,,79,0
9475,note_on,0,0,1,,,,,,,,,0,,,91,0
9475,note_on,0,0,3,,,,,,,,,0,,,78,100
9475,note_on,10,0,3,,,,,,,,,0,,,66,100
9485,note_on,0,0,1,,,,,,,,,0,,,77,100
9485,note_on,10,0,1,,,,,,,,,0,,,89,100
9485,note_on,10,0,3,,,,,,,,,0,,,78,0
9485,note_on,0,0,3,,,,,,,,,0,,,66,0
9495,note_on,10,0,1,,,,,,,,,0,,,77,0
9495,note_on,0,0,3,,,,,,,,,0,,,76,100
9495,note_on,10,0,3,,,,,,,,,0,,,64,100
9495,note_on,0,0,1,,,,,,,,,0,,,89,0
9505,note_on,0,0,1,,,,,,,,,0,,,75,100
9505,note_on,0,0,3,,,,,,,,,0,,,64,0
9505,note_on,10,0,1,,,,,,,,,0,,,87,100
9505,note_on,10,0,3,,,,,,,,,0,,,76,0
9515,note_on,0,0,3,,,,,,,,,0,,,74,100
9515,note_on,10,0,1,,,,,,,,,0,,,75,0
9515,note_on,0,0,1,,,,,,,,,0,,,87,0
9515,note_on,10,0,3,,,,,,,,,0,,,62,100
9525,note_on,10,0,3,,,,,,,,,0,,,74,0
9525,note_on,0,0,3,,,,,,,,,0,,,62,0
9525,note_on,10,0,1,,,,,,,,,0,,,85,100
9525,note_on,0,0,1,,,,,,,,,0,,,73,100
9535,note_on,10,0,3,,,,,,,,,0,,,60,100
9535,note_on,10,0,1,,,,,,,,,0,,,73,0
9535,note_on,0,0,1,,,,,,,,,0,,,85,0
9535,note_on,0,0,3,,,,,,,,,0,,,72,100
9545,note_on,10,0,1,,,,,,,,,0,,,83,100
9545,note_on,0,0,3,,,,,,,,,0,,,60,0
9545,note_on,10,0,3,,,,,,,,,0,,,72,0
9545,note_on,0,0,1,,,,,,,,,0,,,71,100
9555,note_on,0,0,1,,,,,,,,,0,,,83,0
9555,set_tempo,120,1,0,,,,,,652174,,,,,,,
9555,note_on,10,0,3,,,,,,,,,0,,,58,100
9555,note_on,0,0,3,,,,,,,,,0,,,70,100
9555,note_on,10,0,1,,,,,,,,,0,,,71,0
9615,note_on,0,0,4,,,,,,,,,0,,,58,127
9615,note_on,0,0,4,,,,,,,,,0,,,53,127
9615,note_on,0,0,4,,,,,,,,,0,,,50,127
9615,note_on,0,0,4,,,,,,,,,0,,,46,127
9615,note_on,60,0,3,,,,,,,,,0,,,70,0
9615,note_on,0,0,4,,,,,,,,,0,,,41,127
9615,note_on,210,0,4,,,,,,,,,0,,,34,127
9615,note_on,60,0,1,,,,,,,,,0,,,62,127
9615,note_on,0,0,3,,,,,,,,,0,,,58,0
9645,note_on,30,0,4,,,,,,,,,0,,,58,0
9645,note_on,0,0,4,,,,,,,,,0,,,53,0
9645,note_on,0,0,4,,,,,,,,,0,,,50,0
9645,note_on,0,0,4,,,,,,,,,0,,,46,0
9645,note_on,0,0,4,,,,,,,,,0,,,34,0
9645,note_on,0,0,4,,,,,,,,,0,,,41,0
9645,note_on,30,0,1,,,,,,,,,0,,,62,0
9675,set_tempo,120,1,0,,,,,,1071429,,,,,,,
9675,note_on,60,0,3,,,,,,,,,0,,,86,100
9675,note_on,0,0,3,,,,,,,,,0,,,74,100
9685,note_on,40,0,1,,,,,,,,,0,,,85,100
9685,note_on,0,0,3,,,,,,,,,0,,,86,0
9685,note_on,10,0,3,,,,,,,,,0,,,74,0
9685,note_on,0,0,1,,,,,,,,,0,,,97,100
9695,note_on,0,0,3,,,,,,,,,0,,,72,100
9695,note_on,0,0,1,,,,,,,,,0,,,85,0
9695,note_on,10,0,1,,,,,,,,,0,,,97,0
9695,note_on,10,0,3,,,,,,,,,0,,,84,100
9705,note_on,10,0,3,,,,,,,,,0,,,72,0
9705,note_on,0,0,3,,,,,,,,,0,,,84,0
9705,note_on,10,0,1,,,,,,,,,0,,,83,100
9705,note_on,0,0,1,,,,,,,,,0,,,95,100
9715,note_on,0,0,1,,,,,,,,,0,,,83,0
9715,note_on,0,0,3,,,,,,,,,0,,,70,100
9715,note_on,10,0,1,,,,,,,,,0,,,95,0
9715,note_on,10,0,3,,,,,,,,,0,,,82,100
9725,note_on,0,0,1,,,,,,,,,0,,,93,100
9725,note_on,10,0,1,,,,,,,,,0,,,81,100
9725,note_on,10,0,3,,,,,,,,,0,,,70,0
9725,note_on,0,0,3,,,,,,,,,0,,,82,0
9735,note_on,10,0,3,,,,,,,,,0,,,80,100
9735,note_on,10,0,1,,,,,,,,,0,,,93,0
9735,note_on,0,0,1,,,,,,,,,0,,,81,0
9735,note_on,0,0,3,,,,,,,,,0,,,68,100
9745,note_on,0,0,3,,,,,,,,,0,,,80,0
9745,note_on,10,0,1,,,,,,,,,0,,,79,100
9745,note_on,10,0,3,,,,,,,,,0,,,68,0
9745,note_on,0,0,1,,,,,,,,,0,,,91,100
9755,note_on,0,0,3,,,,,,,,,0,,,66,100
9755,note_on,10,0,3,,,,,,,,,0,,,78,100
9755,note_on,0,0,1,,,,,,,,,0,,,79,0
9755,note_on,10,0,1,,,,,,,,,0,,,91,0
9765,note_on,0,0,3,,,,,,,,,0,,,78,0
9765,note_on,10,0,3,,,,,,,,,0,,,66,0
9765,note_on,0,0,1,,,,,,,,,0,,,89,100
9765,note_on,10,0,1,,,,,,,,,0,,,77,100
9775,note_on,0,0,3,,,,,,,,,0,,,64,100
9775,note_on,0,0,1,,,,,,,,,0,,,77,0
9775,note_on,10,0,3,,,,,,,,,0,,,76,100
9775,note_on,10,0,1,,,,,,,,,0,,,89,0
9785,note_on,10,0,1,,,,,,,,,0,,,75,100
9785,note_on,0,0,3,,,,,,,,,0,,,76,0
9785,note_on,0,0,1,,,,,,,,,0,,,87,100
9785,note_on,10,0,3,,,,,,,,,0,,,64,0
9795,set_tempo,120,1,0,,,,,,652174,,,,,,,
9795,note_on,10,0,3,,,,,,,,,0,,,62,100
9795,note_on,0,0,1,,,,,,,,,0,,,75,0
9795,note_on,10,0,1,,,,,,,,,0,,,87,0
9795,note_on,0,0,3,,,,,,,,,0,,,74,100
9855,note_on,0,0,4,,,,,,,,,0,,,41,127
9855,note_on,60,0,1,,,,,,,,,0,,,62,127
9855,note_on,0,0,3,,,,,,,,,0,,,62,0
9855,note_on,210,0,4,,,,,,,,,0,,,34,127
9855,note_on,0,0,1,,,,,,,,,0,,,65,127
9855,note_on,60,0,3,,,,,,,,,0,,,74,0
9855,note_on,0,0,4,,,,,,,,,0,,,58,127
9855,note_on,0,0,4,,,,,,,,,0,,,53,127
9855,note_on,0,0,4,,,,,,,,,0,,,50,127
9885,note_on,30,0,1,,,,,,,,,0,,,65,0
9885,note_on,0,0,4,,,,,,,,,0,,,50,0
9885,note_on,0,0,4,,,,,,,,,0,,,53,0
9885,note_on,0,0,1,,,,,,,,,0,,,62,0
9885,note_on,30,0,4,,,,,,,,,0,,,58,0
9885,note_on,0,0,4,,,,,,,,,0,,,41,0
9885,note_on,0,0,4,,,,,,,,,0,,,34,0
9915,note_on,60,0,3,,,,,,,,,0,,,89,100
9915,note_on,0,0,3,,,,,,,,,0,,,77,100
9915,set_tempo,120,1,0,,,,,,1071429,,,,,,,
9925,note_on,40,0,1,,,,,,,,,0,,,88,100
9925,note_on,0,0,3,,,,,,,,,0,,,89,0
9925,note_on,10,0,3,,,,,,,,,0,,,77,0
9925,note_on,0,0,1,,,,,,,,,0,,,100,100
9935,note_on,0,0,3,,,,,,,,,0,,,75,100
9935,note_on,10,0,1,,,,,,,,,0,,,100,0
9935,note_on,10,0,3,,,,,,,,,0,,,87,100
9935,note_on,0,0,1,,,,,,,,,0,,,88,0
9945,note_on,0,0,3,,,,,,,,,0,,,87,0
9945,note_on,10,0,1,,,,,,,,,0,,,86,100
9945,note_on,0,0,1,,,,,,,,,0,,,98,100
9945,note_on,10,0,3,,,,,,,,,0,,,75,0
9955,note_on,10,0,1,,,,,,,,,0,,,98,0
9955,note_on,0,0,1,,,,,,,,,0,,,86,0
9955,note_on,10,0,3,,,,,,,,,0,,,85,100
9955,note_on,0,0,3,,,,,,,,,0,,,73,100
9965,note_on,10,0,1,,,,,,,,,0,,,84,100
9965,note_on,0,0,1,,,,,,,,,0,,,96,100
9965,note_on,10,0,3,,,,,,,,,0,,,73,0
9965,note_on,0,0,3,,,,,,,,,0,,,85,0
9975,note_on,0,0,1,,,,,,,,,0,,,84,0
9975,note_on,0,0,3,,,,,,,,,0,,,71,100
9975,note_on,10,0,1,,,,,,,,,0,,,96,0
9975,note_on,10,0,3,,,,,,,,,0,,,83,100
9985,note_on,10,0,1,,,,,,,,,0,,,82,100
9985,note_on,0,0,1,,,,,,,,,0,,,94,100
9985,note_on,0,0,3,,,,,,,,,0,,,83,0
9985,note_on,10,0,3,,,,,,,,,0,,,71,0
9995,note_on,0,0,1,,,,,,,,,0,,,82,0
9995,note_on,10,0,1,,,,,,,,,0,,,94,0
9995,note_on,0,0,3,,,,,,,,,0,,,69,100
9995,note_on,10,0,3,,,,,,,,,0,,,81,100
10005,note_on,10,0,1,,,,,,,,,0,,,80,100
10005,note_on,0,0,1,,,,,,,,,0,,,92,100
10005,note_on,10,0,3,,,,,,,,,0,,,69,0
10005,note_on,0,0,3,,,,,,,,,0,,,81,0
10015,note_on,0,0,3,,,,,,,,,0,,,67,100
10015,note_on,10,0,1,,,,,,,,,0,,,92,0
10015,note_on,0,0,1,,,,,,,,,0,,,80,0
10015,note_on,10,0,3,,,,,,,,,0,,,79,100
10025,note_on,10,0,3,,,,,,,,,0,,,67,0
10025,note_on,0,0,1,,,,,,,,,0,,,90,100
10025,note_on,10,0,1,,,,,,,,,0,,,78,100
10025,note_on,0,0,3,,,,,,,,,0,,,79,0
10035,note_on,0,0,1,,,,,,,,,0,,,78,0
10035,note_on,10,0,3,,,,,,,,,0,,,77,100
10035,note_on,10,0,1,,,,,,,,,0,,,90,0
10035,note_on,0,0,3,,,,,,,,,0,,,65,100
10045,note_on,0,0,3,,,,,,,,,0,,,77,0
10045,note_on,0,0,1,,,,,,,,,0,,,88,100
10045,note_on,10,0,1,,,,,,,,,0,,,76,100
10045,note_on,10,0,3,,,,,,,,,0,,,65,0
10055,note_on,0,0,1,,,,,,,,,0,,,76,0
10055,note_on,0,0,3,,,,,,,,,0,,,63,100
10055,note_on,10,0,1,,,,,,,,,0,,,88,0
10055,note_on,10,0,3,,,,,,,,,0,,,75,100
10065,note_on,10,0,3,,,,,,,,,0,,,63,0
10065,note_on,0,0,1,,,,,,,,,0,,,86,100
10065,note_on,10,0,1,,,,,,,,,0,,,74,100
10065,note_on,0,0,3,,,,,,,,,0,,,75,0
10075,note_on,10,0,1,,,,,,,,,0,,,86,0
10075,note_on,0,0,3,,,,,,,,,0,,,61,100
10075,note_on,0,0,1,,,,,,,,,0,,,74,0
10075,note_on,10,0,3,,,,,,,,,0,,,73,100
10085,note_on,10,0,1,,,,,,,,,0,,,72,100
10085,note_on,0,0,1,,,,,,,,,0,,,84,100
10085,note_on,0,0,3,,,,,,,,,0,,,73,0
10085,note_on,10,0,3,,,,,,,,,0,,,61,0
10095,note_on,0,0,3,,,,,,,,,0,,,59,100
10095,note_on,10,0,1,,,,,,,,,0,,,84,0
10095,note_on,0,0,1,,,,,,,,,0,,,72,0
10095,note_on,10,0,3,,,,,,,,,0,,,71,100
10105,note_on,0,0,3,,,,,,,,,0,,,71,0
10105,note_on,0,0,1,,,,,,,,,0,,,82,100
10105,note_on,10,0,1,,,,,,,,,0,,,70,100
10105,note_on,10,0,3,,,,,,,,,0,,,59,0
10115,note_on,10,0,3,,,,,,,,,0,,,69,100
10115,note_on,0,0,1,,,,,,,,,0,,,70,0
10115,note_on,0,0,3,,,,,,,,,0,,,57,100
10115,note_on,10,0,1,,,,,,,,,0,,,82,0
10125,note_on,10,0,3,,,,,,,,,0,,,57,0
10125,note_on,0,0,1,,,,,,,,,0,,,80,100
10125,note_on,0,0,3,,,,,,,,,0,,,69,0
10125,note_on,10,0,1,,,,,,,,,0,,,68,100
10135,note_on,0,0,3,,,,,,,,,0,,,55,100
10135,note_on,10,0,1,,,,,,,,,0,,,80,0
10135,note_on,10,0,3,,,,,,,,,0,,,67,100
10135,note_on,0,0,1,,,,,,,,,0,,,68,0
10145,note_on,10,0,1,,,,,,,,,0,,,66,100
10145,note_on,10,0,3,,,,,,,,,0,,,55,0
10145,note_on,0,0,3,,,,,,,,,0,,,67,0
10145,note_on,0,0,1,,,,,,,,,0,,,78,100
10155,note_on,10,0,1,,,,,,,,,0,,,78,0
10155,note_on,270,0,4,,,,,,,,,0,,,65,100
10155,note_on,0,0,4,,,,,,,,,0,,,53,100
10155,note_on,0,0,1,,,,,,,,,0,,,66,0
10165,note_on,10,0,1,,,,,,,,,0,,,64,100
10165,note_on,10,0,4,,,,,,,,,0,,,53,0
10165,note_on,0,0,4,,,,,,,,,0,,,65,0
10165,note_on,0,0,1,,,,,,,,,0,,,76,100
10175,note_on,10,0,4,,,,,,,,,0,,,63,100
10175,note_on,0,0,4,,,,,,,,,0,,,51,100
10175,note_on,0,0,1,,,,,,,,,0,,,64,0
10175,note_on,10,0,1,,,,,,,,,0,,,76,0
10185,note_on,0,0,1,,,,,,,,,0,,,74,100
10185,note_on,10,0,1,,,,,,,,,0,,,62,100
10185,note_on,10,0,4,,,,,,,,,0,,,51,0
10185,note_on,0,0,4,,,,,,,,,0,,,63,0
10195,note_on,10,0,1,,,,,,,,,0,,,74,0
10195,note_on,0,0,1,,,,,,,,,0,,,62,0
10195,note_on,0,0,4,,,,,,,,,0,,,49,100
10195,note_on,10,0,4,,,,,,,,,0,,,61,100
10205,note_on,0,0,1,,,,,,,,,0,,,72,100
10205,note_on,10,0,1,,,,,,,,,0,,,60,100
10205,note_on,0,0,4,,,,,,,,,0,,,61,0
10205,note_on,10,0,4,,,,,,,,,0,,,49,0
10215,note_on,0,0,1,,,,,,,,,0,,,60,0
10215,note_on,10,0,1,,,,,,,,,0,,,72,0
10215,note_on,0,0,4,,,,,,,,,0,,,47,100
10215,note_on,10,0,4,,,,,,,,,0,,,59,100
10225,note_on,0,0,1,,,,,,,,,0,,,70,100
10225,note_on,10,0,1,,,,,,,,,0,,,58,100
10225,note_on,0,0,4,,,,,,,,,0,,,59,0
10225,note_on,10,0,4,,,,,,,,,0,,,47,0
10235,note_on,10,0,4,,,,,,,,,0,,,57,100
10235,note_on,0,0,1,,,,,,,,,0,,,58,0
10235,note_on,0,0,4,,,,,,,,,0,,,45,100
10235,note_on,10,0,1,,,,,,,,,0,,,70,0
10245,note_on,10,0,1,,,,,,,,,0,,,56,100
10245,note_on,0,0,1,,,,,,,,,0,,,68,100
10245,note_on,10,0,4,,,,,,,,,0,,,45,0
10245,note_on,0,0,4,,,,,,,,,0,,,57,0
10255,note_on,0,0,4,,,,,,,,,0,,,41,100
10255,note_on,0,0,1,,,,,,,,,0,,,56,0
10255,note_on,10,0,4,,,,,,,,,0,,,53,100
10255,note_on,10,0,1,,,,,,,,,0,,,68,0
10265,note_on,10,0,1,,,,,,,,,0,,,50,100
10265,note_on,0,0,1,,,,,,,,,0,,,62,100
10265,note_on,10,0,4,,,,,,,,,0,,,41,0
10265,note_on,0,0,4,,,,,,,,,0,,,53,0
10275,note_on,0,0,1,,,,,,,,,0,,,50,0
10275,time_signature,360,1,0,47,32,3,8,,,,,,,,,
10275,note_on,0,0,4,,,,,,,,,0,,,34,100
10275,set_tempo,0,1,0,,,,,,652174,,,,,,,
10275,note_on,10,0,1,,,,,,,,,0,,,62,0
10275,note_on,10,0,4,,,,,,,,,0,,,46,100
10277,set_tempo,2,1,0,,,,,,653666,,,,,,,
10290,set_tempo,13,1,0,,,,,,655809,,,,,,,
10302,set_tempo,12,1,0,,,,,,657967,,,,,,,
10311,set_tempo,9,1,0,,,,,,660139,,,,,,,
10324,set_tempo,13,1,0,,,,,,662325,,,,,,,
10332,set_tempo,8,1,0,,,,,,664525,,,,,,,
10335,note_on,0,0,4,,,,,,,,,0,,,45,127
10335,note_on,0,0,4,,,,,,,,,0,,,46,0
10335,note_on,60,0,4,,,,,,,,,0,,,34,0
10335,note_on,0,0,4,,,,,,,,,0,,,33,127
10345,set_tempo,13,1,0,,,,,,666741,,,,,,,
10350,note_on,15,0,4,,,,,,,,,0,,,33,0
10350,note_on,0,0,4,,,,,,,,,0,,,34,101
10350,note_on,0,0,4,,,,,,,,,0,,,46,101
10350,note_on,0,0,4,,,,,,,,,0,,,45,0
10354,set_tempo,9,1,0,,,,,,668971,,,,,,,
10365,note_on,0,0,4,,,,,,,,,0,,,50,101
10365,note_on,0,0,4,,,,,,,,,0,,,46,0
10365,note_on,0,0,4,,,,,,,,,0,,,38,101
10365,note_on,15,0,4,,,,,,,,,0,,,34,0
10367,set_tempo,13,1,0,,,,,,671216,,,,,,,
10375,set_tempo,8,1,0,,,,,,673476,,,,,,,
10380,note_on,15,0,4,,,,,,,,,0,,,38,0
10380,note_on,0,0,4,,,,,,,,,0,,,53,101
10380,note_on,0,0,4,,,,,,,,,0,,,50,0
10380,note_on,0,0,4,,,,,,,,,0,,,41,101
10388,set_tempo,13,1,0,,,,,,675752,,,,,,,
10395,note_on,0,0,4,,,,,,,,,0,,,53,0
10395,note_on,0,0,4,,,,,,,,,0,,,56,101
10395,note_on,15,0,4,,,,,,,,,0,,,41,0
10395,note_on,0,0,4,,,,,,,,,0,,,44,101
10397,set_tempo,9,1,0,,,,,,678043,,,,,,,
10410,note_on,0,0,4,,,,,,,,,0,,,46,102
10410,set_tempo,13,1,0,,,,,,680349,,,,,,,
10410,note_on,0,0,4,,,,,,,,,0,,,58,102
10410,note_on,0,0,4,,,,,,,,,0,,,56,0
10410,note_on,15,0,4,,,,,,,,,0,,,44,0
10418,set_tempo,8,1,0,,,,,,682672,,,,,,,
10425,note_on,0,0,4,,,,,,,,,0,,,58,0
10425,note_on,0,0,4,,,,,,,,,0,,,50,102
10425,note_on,150,0,1,,,,,,,,,0,,,62,102
10425,note_on,15,0,4,,,,,,,,,0,,,46,0
10431,set_tempo,13,1,0,,,,,,685010,,,,,,,
10440,note_on,15,0,1,,,,,,,,,0,,,62,0
10440,note_on,0,0,4,,,,,,,,,0,,,53,102
10440,set_tempo,9,1,0,,,,,,687364,,,,,,,
10440,note_on,0,0,1,,,,,,,,,0,,,65,102
10440,note_on,15,0,4,,,,,,,,,0,,,50,0
10452,set_tempo,12,1,0,,,,,,689734,,,,,,,
10455,note_on,0,0,4,,,,,,,,,0,,,56,102
10455,note_on,0,0,1,,,,,,,,,0,,,68,102
10455,note_on,15,0,4,,,,,,,,,0,,,53,0
10455,note_on,15,0,1,,,,,,,,,0,,,65,0
10461,set_tempo,9,1,0,,,,,,692121,,,,,,,
10470,note_on,0,0,4,,,,,,,,,0,,,58,103
10470,note_on,0,0,1,,,,,,,,,0,,,70,103
10470,note_on,15,0,4,,,,,,,,,0,,,56,0
10470,note_on,15,0,1,,,,,,,,,0,,,68,0
10474,set_tempo,13,1,0,,,,,,694525,,,,,,,
10482,set_tempo,8,1,0,,,,,,696945,,,,,,,
10485,note_on,15,0,4,,,,,,,,,0,,,58,0
10485,note_on,0,0,1,,,,,,,,,0,,,74,103
10485,note_on,340,0,3,,,,,,,,,0,,,62,103
10485,note_on,15,0,1,,,,,,,,,0,,,70,0
10495,set_tempo,13,1,0,,,,,,699382,,,,,,,
10500,note_on,0,0,3,,,,,,,,,0,,,65,103
10500,note_on,15,0,3,,,,,,,,,0,,,62,0
10500,note_on,0,0,1,,,,,,,,,0,,,77,103
10500,note_on,15,0,1,,,,,,,,,0,,,74,0
10504,set_tempo,9,1,0,,,,,,701836,,,,,,,
10515,note_on,0,0,3,,,,,,,,,0,,,68,103
10515,note_on,15,0,3,,,,,,,,,0,,,65,0
10515,note_on,0,0,1,,,,,,,,,0,,,80,103
10515,note_on,15,0,1,,,,,,,,,0,,,77,0
10517,set_tempo,13,1,0,,,,,,704308,,,,,,,
10525,set_tempo,8,1,0,,,,,,706797,,,,,,,
10530,note_on,15,0,1,,,,,,,,,0,,,80,0
10530,note_on,15,0,3,,,,,,,,,0,,,68,0
10530,note_on,0,0,3,,,,,,,,,0,,,70,103
10530,note_on,0,0,1,,,,,,,,,0,,,82,103
10538,set_tempo,13,1,0,,,,,,709304,,,,,,,
10545,note_on,15,0,1,,,,,,,,,0,,,82,0
10545,note_on,15,0,3,,,,,,,,,0,,,70,0
10545,note_on,0,0,1,,,,,,,,,0,,,86,104
10545,note_on,0,0,3,,,,,,,,,0,,,74,104
10547,set_tempo,9,1,0,,,,,,711828,,,,,,,
10560,note_on,15,0,1,,,,,,,,,0,,,86,0
10560,note_on,15,0,3,,,,,,,,,0,,,74,0
10560,note_on,0,0,3,,,,,,,,,0,,,77,104
10560,note_on,0,0,1,,,,,,,,,0,,,89,104
10560,set_tempo,13,1,0,,,,,,714371,,,,,,,
10568,set_tempo,8,1,0,,,,,,716932,,,,,,,
10575,note_on,15,0,3,,,,,,,,,0,,,77,0
10575,note_on,0,0,1,,,,,,,,,0,,,92,104
10575,note_on,15,0,1,,,,,,,,,0,,,89,0
10575,note_on,0,0,3,,,,,,,,,0,,,80,104
10581,set_tempo,13,1,0,,,,,,719511,,,,,,,
10590,note_on,0,0,1,,,,,,,,,0,,,93,104
10590,note_on,15,0,1,,,,,,,,,0,,,92,0
10590,note_on,0,0,3,,,,,,,,,0,,,81,104
10590,note_on,15,0,3,,,,,,,,,0,,,80,0
10590,set_tempo,9,1,0,,,,,,722109,,,,,,,
10602,set_tempo,12,1,0,,,,,,724725,,,,,,,
10605,note_on,0,0,3,,,,,,,,,0,,,84,105
10605,note_on,15,0,1,,,,,,,,,0,,,93,0
10605,note_on,0,0,1,,,,,,,,,0,,,96,105
10605,note_on,15,0,3,,,,,,,,,0,,,81,0
10611,set_tempo,9,1,0,,,,,,727361,,,,,,,
10620,note_on,15,0,3,,,,,,,,,0,,,84,0
10620,note_on,15,0,1,,,,,,,,,0,,,96,0
10620,note_on,0,0,1,,,,,,,,,0,,,94,105
10620,note_on,0,0,3,,,,,,,,,0,,,82,105
10624,set_tempo,13,1,0,,,,,,730016,,,,,,,
10632,set_tempo,8,1,0,,,,,,732690,,,,,,,
10635,note_on,15,0,1,,,,,,,,,0,,,94,0
10635,note_on,0,0,1,,,,,,,,,0,,,92,105
10635,note_on,15,0,3,,,,,,,,,0,,,82,0
10635,note_on,0,0,3,,,,,,,,,0,,,80,105
10645,set_tempo,13,1,0,,,,,,735384,,,,,,,
10650,note_on,0,0,1,,,,,,,,,0,,,89,105
10650,note_on,0,0,3,,,,,,,,,0,,,77,105
10650,note_on,15,0,3,,,,,,,,,0,,,80,0
10650,note_on,15,0,1,,,,,,,,,0,,,92,0
10654,set_tempo,9,1,0,,,,,,738098,,,,,,,
10665,note_on,0,0,3,,,,,,,,,0,,,74,106
10665,note_on,15,0,3,,,,,,,,,0,,,77,0
10665,note_on,15,0,1,,,,,,,,,0,,,89,0
10665,note_on,0,0,1,,,,,,,,,0,,,86,106
10667,set_tempo,13,1,0,,,,,,740832,,,,,,,
10675,set_tempo,8,1,0,,,,,,743587,,,,,,,
10680,note_on,0,0,1,,,,,,,,,0,,,82,106
10680,note_on,0,0,3,,,,,,,,,0,,,70,106
10680,note_on,15,0,3,,,,,,,,,0,,,74,0
10680,note_on,15,0,1,,,,,,,,,0,,,86,0
10688,set_tempo,13,1,0,,,,,,746361,,,,,,,
10695,note_on,0,0,3,,,,,,,,,0,,,69,126
10695,note_on,0,0,1,,,,,,,,,0,,,81,126
10695,note_on,15,0,3,,,,,,,,,0,,,70,0
10695,note_on,15,0,1,,,,,,,,,0,,,82,0
10697,set_tempo,9,1,0,,,,,,749157,,,,,,,
10710,note_on,15,0,1,,,,,,,,,0,,,81,0
10710,set_tempo,13,1,0,,,,,,751974,,,,,,,
10710,note_on,0,0,3,,,,,,,,,0,,,72,106
10710,note_on,0,0,1,,,,,,,,,0,,,84,106
10710,note_on,15,0,3,,,,,,,,,0,,,69,0
10718,set_tempo,8,1,0,,,,,,754812,,,,,,,
10725,note_on,0,0,1,,,,,,,,,0,,,82,107
10725,note_on,15,0,1,,,,,,,,,0,,,84,0
10725,note_on,15,0,3,,,,,,,,,0,,,72,0
10725,note_on,0,0,3,,,,,,,,,0,,,70,107
10731,set_tempo,13,1,0,,,,,,757671,,,,,,,
10740,note_on,15,0,3,,,,,,,,,0,,,70,0
10740,note_on,15,0,1,,,,,,,,,0,,,82,0
10740,note_on,0,0,1,,,,,,,,,0,,,80,107
10740,note_on,0,0,3,,,,,,,,,0,,,68,107
10740,set_tempo,9,1,0,,,,,,760553,,,,,,,
10752,set_tempo,12,1,0,,,,,,763456,,,,,,,
10755,note_on,15,0,1,,,,,,,,,0,,,80,0
10755,note_on,0,0,3,,,,,,,,,0,,,65,107
10755,note_on,15,0,3,,,,,,,,,0,,,68,0
10755,note_on,0,0,1,,,,,,,,,0,,,77,107
10761,set_tempo,9,1,0,,,,,,766381,,,,,,,
10770,note_on,15,0,1,,,,,,,,,0,,,77,0
10770,note_on,0,0,1,,,,,,,,,0,,,74,107
10770,note_on,15,0,3,,,,,,,,,0,,,65,0
10770,note_on,0,0,3,,,,,,,,,0,,,62,107
10774,set_tempo,13,1,0,,,,,,769329,,,,,,,
10782,set_tempo,8,1,0,,,,,,772300,,,,,,,
10785,note_on,15,0,3,,,,,,,,,0,,,62,0
10785,note_on,0,0,1,,,,,,,,,0,,,70,107
10785,note_on,15,0,1,,,,,,,,,0,,,74,0
10785,note_on,0,0,3,,,,,,,,,0,,,58,107
10795,set_tempo,13,1,0,,,,,,775294,,,,,,,
10800,note_on,315,0,4,,,,,,,,,0,,,57,127
10800,note_on,15,0,1,,,,,,,,,0,,,70,0
10800,note_on,15,0,3,,,,,,,,,0,,,58,0
10800,note_on,0,0,1,,,,,,,,,0,,,69,127
10804,set_tempo,9,1,0,,,,,,778311,,,,,,,
10815,note_on,15,0,1,,,,,,,,,0,,,69,0
10815,note_on,0,0,1,,,,,,,,,0,,,72,108
10815,note_on,15,0,4,,,,,,,,,0,,,57,0
10815,note_on,0,0,4,,,,,,,,,0,,,60,108
10817,set_tempo,13,1,0,,,,,,781352,,,,,,,
10825,set_tempo,8,1,0,,,,,,784416,,,,,,,
10830,note_on,0,0,4,,,,,,,,,0,,,58,108
10830,note_on,0,0,1,,,,,,,,,0,,,70,108
10830,note_on,15,0,1,,,,,,,,,0,,,72,0
10830,note_on,15,0,4,,,,,,,,,0,,,60,0
10838,set_tempo,13,1,0,,,,,,787505,,,,,,,
10845,note_on,0,0,1,,,,,,,,,0,,,68,108
10845,note_on,15,0,1,,,,,,,,,0,,,70,0
10845,note_on,15,0,4,,,,,,,,,0,,,58,0
10845,note_on,0,0,4,,,,,,,,,0,,,56,108
10847,set_tempo,9,1,0,,,,,,790618,,,,,,,
10860,note_on,15,0,1,,,,,,,,,0,,,68,0
10860,note_on,15,0,4,,,,,,,,,0,,,56,0
10860,note_on,0,0,4,,,,,,,,,0,,,53,109
10860,set_tempo,13,1,0,,,,,,793756,,,,,,,
10860,note_on,0,0,1,,,,,,,,,0,,,65,109
10868,set_tempo,8,1,0,,,,,,796919,,,,,,,
10875,note_on,15,0,4,,,,,,,,,0,,,53,0
10875,note_on,15,0,1,,,,,,,,,0,,,65,0
10875,note_on,0,0,4,,,,,,,,,0,,,50,109
10875,note_on,0,0,1,,,,,,,,,0,,,62,109
10881,set_tempo,13,1,0,,,,,,800107,,,,,,,
10890,note_on,15,0,4,,,,,,,,,0,,,50,0
10890,note_on,0,0,1,,,,,,,,,0,,,58,109
10890,note_on,15,0,1,,,,,,,,,0,,,62,0
10890,set_tempo,9,1,0,,,,,,803320,,,,,,,
10890,note_on,0,0,4,,,,,,,,,0,,,46,109
10902,set_tempo,12,1,0,,,,,,806560,,,,,,,
10905,note_on,0,0,4,,,,,,,,,0,,,45,109
10905,note_on,15,0,1,,,,,,,,,0,,,58,0
10905,note_on,15,0,4,,,,,,,,,0,,,46,0
10905,note_on,0,0,1,,,,,,,,,0,,,57,109
10911,set_tempo,9,1,0,,,,,,809826,,,,,,,
10920,note_on,0,0,1,,,,,,,,,0,,,58,110
10920,note_on,0,0,4,,,,,,,,,0,,,46,110
10920,note_on,15,0,4,,,,,,,,,0,,,45,0
10920,note_on,15,0,1,,,,,,,,,0,,,57,0
10924,set_tempo,13,1,0,,,,,,813118,,,,,,,
10932,set_tempo,8,1,0,,,,,,816438,,,,,,,
10935,note_on,0,0,1,,,,,,,,,0,,,62,110
10935,note_on,15,0,4,,,,,,,,,0,,,46,0
10935,note_on,15,0,1,,,,,,,,,0,,,58,0
10935,note_on,0,0,4,,,,,,,,,0,,,50,110
10945,set_tempo,13,1,0,,,,,,819784,,,,,,,
10950,note_on,15,0,1,,,,,,,,,0,,,62,0
10950,note_on,0,0,4,,,,,,,,,0,,,53,110
10950,note_on,15,0,4,,,,,,,,,0,,,50,0
10950,note_on,0,0,1,,,,,,,,,0,,,65,110
10954,set_tempo,9,1,0,,,,,,823158,,,,,,,
10965,note_on,15,0,4,,,,,,,,,0,,,53,0
10965,note_on,15,0,1,,,,,,,,,0,,,65,0
10965,note_on,0,0,4,,,,,,,,,0,,,56,110
10965,note_on,0,0,1,,,,,,,,,0,,,68,110
10967,set_tempo,13,1,0,,,,,,826560,,,,,,,
10975,set_tempo,8,1,0,,,,,,829990,,,,,,,
10980,note_on,15,0,1,,,,,,,,,0,,,68,0
10980,time_signature,5,1,0,4,4,24,8,,,,,,,,,
10980,set_tempo,0,1,0,,,,,,1071429,,,,,,,
10980,note_on,0,0,4,,,,,,,,,0,,,57,127
10980,note_on,0,0,4,,,,,,,,,0,,,45,127
10980,note_on,15,0,4,,,,,,,,,0,,,56,0
10989,note_on,0,0,1,,,,,,,,,0,,,70,100
10989,note_on,9,0,1,,,,,,,,,0,,,58,100
10993,note_on,13,0,4,,,,,,,,,0,,,57,0
10993,note_on,0,0,4,,,,,,,,,0,,,45,0
11002,note_on,9,0,4,,,,,,,,,0,,,51,100
11002,note_on,0,0,1,,,,,,,,,0,,,58,0
11002,note_on,0,0,4,,,,,,,,,0,,,63,100
11002,note_on,13,0,1,,,,,,,,,0,,,70,0
11015,note_on,13,0,1,,,,,,,,,0,,,74,100
11015,note_on,0,0,4,,,,,,,,,0,,,51,0
11015,note_on,0,0,1,,,,,,,,,0,,,62,100
11015,note_on,13,0,4,,,,,,,,,0,,,63,0
11028,note_on,0,0,4,,,,,,,,,0,,,61,100
11028,note_on,13,0,4,,,,,,,,,0,,,49,100
11028,note_on,0,0,1,,,,,,,,,0,,,74,0
11028,note_on,13,0,1,,,,,,,,,0,,,62,0
11040,note_on,0,0,1,,,,,,,,,0,,,72,100
11040,note_on,12,0,1,,,,,,,,,0,,,60,100
11041,note_on,0,0,4,,,,,,,,,0,,,49,0
11041,note_on,13,0,4,,,,,,,,,0,,,61,0
11053,note_on,0,0,1,,,,,,,,,0,,,60,0
11053,note_on,12,0,4,,,,,,,,,0,,,47,100
11053,note_on,13,0,1,,,,,,,,,0,,,72,0
11053,note_on,0,0,4,,,,,,,,,0,,,59,100
11066,note_on,0,0,4,,,,,,,,,0,,,47,0
11066,note_on,13,0,4,,,,,,,,,0,,,59,0
11067,note_on,0,0,1,,,,,,,,,0,,,70,100
11067,note_on,14,0,1,,,,,,,,,0,,,58,100
11078,note_on,0,0,4,,,,,,,,,0,,,57,100
11078,note_on,12,0,4,,,,,,,,,0,,,45,100
11080,note_on,0,0,1,,,,,,,,,0,,,58,0
11080,note_on,13,0,1,,,,,,,,,0,,,70,0
11091,note_on,13,0,4,,,,,,,,,0,,,57,0
11091,note_on,11,0,1,,,,,,,,,0,,,56,100
11091,note_on,0,0,1,,,,,,,,,0,,,68,100
11091,note_on,0,0,4,,,,,,,,,0,,,45,0
11104,note_on,13,0,4,,,,,,,,,0,,,43,100
11104,note_on,0,0,1,,,,,,,,,0,,,56,0
11104,note_on,0,0,4,,,,,,,,,0,,,55,100
11104,note_on,13,0,1,,,,,,,,,0,,,68,0
11117,note_on,13,0,4,,,,,,,,,0,,,55,0
11117,note_on,0,0,4,,,,,,,,,0,,,43,0
11118,note_on,0,0,1,,,,,,,,,0,,,66,100
11118,note_on,14,0,1,,,,,,,,,0,,,54,100
11129,note_on,0,0,4,,,,,,,,,0,,,53,100
11129,note_on,12,0,4,,,,,,,,,0,,,41,100
11131,note_on,0,0,1,,,,,,,,,0,,,54,0
11131,note_on,13,0,1,,,,,,,,,0,,,66,0
11142,note_on,11142,0,2,,,,,,,,,0,,,52,100
11142,note_on,0,0,2,,,,,,,,,0,,,64,100
11142,note_on,13,0,4,,,,,,,,,0,,,53,0
11142,note_on,0,0,4,,,,,,,,,0,,,41,0
11155,note_on,0,0,2,,,,,,,,,0,,,52,0
11155,note_on,13,0,2,,,,,,,,,0,,,64,0
11156,note_on,14,0,4,,,,,,,,,0,,,39,100
11156,note_on,0,0,4,,,,,,,,,0,,,51,100
11168,note_on,0,0,2,,,,,,,,,0,,,62,100
11168,note_on,13,0,2,,,,,,,,,0,,,50,100
11169,note_on,0,0,4,,,,,,,,,0,,,39,0
11169,note_on,13,0,4,,,,,,,,,0,,,51,0
11179,note_on,10,0,4,,,,,,,,,0,,,37,100
11179,note_on,0,0,4,,,,,,,,,0,,,49,100
11181,note_on,0,0,2,,,,,,,,,0,,,50,0
11181,note_on,13,0,2,,,,,,,,,0,,,62,0
11192,note_on,0,0,4,,,,,,,,,0,,,37,0
11192,note_on,13,0,4,,,,,,,,,0,,,49,0
11193,note_on,0,0,2,,,,,,,,,0,,,60,100
11193,note_on,12,0,2,,,,,,,,,0,,,48,100
11206,note_on,13,0,2,,,,,,,,,0,,,60,0
11206,note_on,0,0,2,,,,,,,,,0,,,48,0
11207,note_on,15,0,4,,,,,,,,,0,,,35,100
11207,note_on,0,0,4,,,,,,,,,0,,,47,100
11220,note_on,0,0,4,,,,,,,,,0,,,46,100
11220,set_tempo,240,1,0,,,,,,652174,,,,,,,
11220,note_on,13,0,4,,,,,,,,,0,,,47,0
11220,note_on,0,0,4,,,,,,,,,0,,,35,0
11220,note_on,0,0,4,,,,,,,,,0,,,34,100
11250,note_on,0,0,4,,,,,,,,,0,,,34,0
11250,note_on,30,0,4,,,,,,,,,0,,,46,0
11280,note_on,0,0,1,,,,,,,,,0,,,63,100
11280,note_on,0,0,4,,,,,,,,,0,,,46,100
11280,note_on,30,0,4,,,,,,,,,0,,,39,100
11280,note_on,149,0,1,,,,,,,,,0,,,75,100
11280,note_on,0,0,4,,,,,,,,,0,,,51,100
11280,note_on,0,0,1,,,,,,,,,0,,,67,100
11310,note_on,0,0,4,,,,,,,,,0,,,39,0
11310,note_on,0,0,1,,,,,,,,,0,,,67,0
11310,note_on,30,0,4,,,,,,,,,0,,,51,0
11310,note_on,30,0,1,,,,,,,,,0,,,63,0
11310,note_on,0,0,4,,,,,,,,,0,,,46,0
11310,note_on,0,0,1,,,,,,,,,0,,,75,0
11340,note_on,0,0,1,,,,,,,,,0,,,77,100
11340,note_on,30,0,1,,,,,,,,,0,,,65,100
11340,note_on,0,0,4,,,,,,,,,0,,,46,100
11340,note_on,0,0,4,,,,,,,,,0,,,39,100
11340,note_on,30,0,4,,,,,,,,,0,,,53,100
11340,note_on,0,0,1,,,,,,,,,0,,,68,100
11370,note_on,0,0,1,,,,,,,,,0,,,65,0
11370,note_on,0,0,1,,,,,,,,,0,,,68,0
11370,note_on,30,0,1,,,,,,,,,0,,,77,0
11370,note_on,0,0,4,,,,,,,,,0,,,53,0
11370,note_on,30,0,4,,,,,,,,,0,,,39,0
11370,note_on,0,0,4,,,,,,,,,0,,,46,0
11400,note_on,30,0,1,,,,,,,,,0,,,78,100
11400,note_on,0,0,4,,,,,,,,,0,,,39,100
11400,note_on,30,0,4,,,,,,,,,0,,,54,100
11400,note_on,0,0,4,,,,,,,,,0,,,46,100
11400,note_on,0,0,1,,,,,,,,,0,,,69,100
11400,note_on,0,0,1,,,,,,,,,0,,,66,100
11430,note_on,30,0,1,,,,,,,,,0,,,66,0
11430,note_on,30,0,4,,,,,,,,,0,,,39,0
11430,note_on,0,0,1,,,,,,,,,0,,,78,0
11430,note_on,0,0,1,,,,,,,,,0,,,69,0
11430,note_on,0,0,4,,,,,,,,,0,,,54,0
11430,note_on,0,0,4,,,,,,,,,0,,,46,0
11460,note_on,0,0,4,,,,,,,,,0,,,46,100
11460,note_on,0,0,1,,,,,,,,,0,,,67,120
11460,note_on,30,0,4,,,,,,,,,0,,,39,100
11460,note_on,0,0,4,,,,,,,,,0,,,55,120
11460,note_on,30,0,1,,,,,,,,,0,,,79,120
11460,note_on,0,0,1,,,,,,,,,0,,,70,120
11520,note_on,60,0,4,,,,,,,,,0,,,55,0
11520,note_on,0,0,1,,,,,,,,,0,,,63,100
11520,note_on,0,0,1,,,,,,,,,0,,,75,100
11520,note_on,60,0,1,,,,,,,,,0,,,67,0
11520,note_on,0,0,1,,,,,,,,,0,,,70,0
11520,note_on,0,0,4,,,,,,,,,0,,,51,100
11520,note_on,0,0,1,,,,,,,,,0,,,79,0
11550,note_on,0,0,1,,,,,,,,,0,,,63,0
11550,note_on,30,0,4,,,,,,,,,0,,,51,0
11550,note_on,30,0,1,,,,,,,,,0,,,75,0
11580,set_tempo,360,1,0,,,,,,1071429,,,,,,,
11580,note_on,0,0,4,,,,,,,,,0,,,57,120
11580,note_on,0,0,4,,,,,,,,,0,,,39,0
11580,note_on,0,0,4,,,,,,,,,0,,,45,120
11580,note_on,30,0,4,,,,,,,,,0,,,46,0
11584,note_on,0,0,1,,,,,,,,,0,,,70,100
11584,note_on,34,0,1,,,,,,,,,0,,,58,100
11589,note_on,0,0,4,,,,,,,,,0,,,57,0
11589,note_on,9,0,4,,,,,,,,,0,,,45,0
11593,note_on,0,0,4,,,,,,,,,0,,,55,100
11593,note_on,9,0,1,,,,,,,,,0,,,70,0
11593,note_on,0,0,1,,,,,,,,,0,,,58,0
11593,note_on,4,0,4,,,,,,,,,0,,,67,100
11602,note_on,9,0,4,,,,,,,,,0,,,55,0
11602,note_on,0,0,4,,,,,,,,,0,,,67,0
11603,note_on,10,0,1,,,,,,,,,0,,,77,100
11603,note_on,0,0,1,,,,,,,,,0,,,65,100
11612,note_on,0,0,1,,,,,,,,,0,,,77,0
11612,note_on,9,0,1,,,,,,,,,0,,,65,0
11613,note_on,0,0,4,,,,,,,,,0,,,63,100
11613,note_on,11,0,4,,,,,,,,,0,,,51,100
11622,note_on,9,0,4,,,,,,,,,0,,,63,0
11622,note_on,0,0,4,,,,,,,,,0,,,51,0
11622,note_on,10,0,1,,,,,,,,,0,,,58,100
11622,note_on,0,0,1,,,,,,,,,0,,,74,100
11628,note_on,0,0,4,,,,,,,,,0,,,60,100
11628,note_on,6,0,4,,,,,,,,,0,,,48,100
11631,note_on,0,0,1,,,,,,,,,0,,,58,0
11631,note_on,9,0,1,,,,,,,,,0,,,74,0
11637,note_on,6,0,1,,,,,,,,,0,,,55,100
11637,note_on,0,0,1,,,,,,,,,0,,,70,100
11637,note_on,9,0,4,,,,,,,,,0,,,60,0
11637,note_on,0,0,4,,,,,,,,,0,,,48,0
11646,note_on,0,0,1,,,,,,,,,0,,,55,0
11646,note_on,9,0,1,,,,,,,,,0,,,70,0
11647,note_on,0,0,4,,,,,,,,,0,,,56,100
11647,note_on,10,0,4,,,,,,,,,0,,,44,100
11656,note_on,10,0,1,,,,,,,,,0,,,51,100
11656,note_on,0,0,4,,,,,,,,,0,,,44,0
11656,note_on,0,0,1,,,,,,,,,0,,,67,100
11656,note_on,9,0,4,,,,,,,,,0,,,56,0
11665,note_on,9,0,1,,,,,,,,,0,,,67,0
11665,note_on,0,0,1,,,,,,,,,0,,,51,0
11666,note_on,10,0,4,,,,,,,,,0,,,41,100
11666,note_on,0,0,4,,,,,,,,,0,,,53,100
11673,note_on,0,0,2,,,,,,,,,0,,,63,100
11673,note_on,467,0,2,,,,,,,,,0,,,51,100
11675,note_on,0,0,4,,,,,,,,,0,,,41,0
11675,note_on,9,0,4,,,,,,,,,0,,,53,0
11681,note_on,6,0,4,,,,,,,,,0,,,38,100
11681,note_on,0,0,4,,,,,,,,,0,,,50,100
11682,note_on,9,0,2,,,,,,,,,0,,,63,0
11682,note_on,0,0,2,,,,,,,,,0,,,51,0
11690,note_on,0,0,4,,,,,,,,,0,,,38,0
11690,note_on,9,0,4,,,,,,,,,0,,,50,0
11691,note_on,0,0,2,,,,,,,,,0,,,60,100
11691,note_on,9,0,2,,,,,,,,,0,,,48,100
11700,note_on,9,0,2,,,,,,,,,0,,,60,0
11700,note_on,0,0,4,,,,,,,,,0,,,46,100
11700,note_on,10,0,4,,,,,,,,,0,,,34,100
11700,note_on,0,0,2,,,,,,,,,0,,,48,0
11700,set_tempo,120,1,0,,,,,,652174,,,,,,,
11730,note_on,30,0,4,,,,,,,,,0,,,46,0
11730,note_on,0,0,4,,,,,,,,,0,,,34,0
11760,note_on,0,0,4,,,,,,,,,0,,,39,100
11760,note_on,0,0,4,,,,,,,,,0,,,46,100
11760,note_on,95,0,1,,,,,,,,,0,,,75,100
11760,note_on,0,0,1,,,,,,,,,0,,,63,100
11760,note_on,30,0,4,,,,,,,,,0,,,51,100
11760,note_on,0,0,1,,,,,,,,,0,,,67,100
11790,note_on,0,0,1,,,,,,,,,0,,,67,0
11790,note_on,0,0,4,,,,,,,,,0,,,46,0
11790,note_on,0,0,1,,,,,,,,,0,,,75,0
11790,note_on,0,0,4,,,,,,,,,0,,,51,0
11790,note_on,30,0,1,,,,,,,,,0,,,63,0
11790,note_on,30,0,4,,,,,,,,,0,,,39,0
11820,note_on,0,0,4,,,,,,,,,0,,,39,100
11820,note_on,0,0,4,,,,,,,,,0,,,47,100
11820,note_on,0,0,4,,,,,,,,,0,,,50,100
11820,note_on,0,0,1,,,,,,,,,0,,,65,100
11820,note_on,0,0,1,,,,,,,,,0,,,68,100
11820,note_on,30,0,4,,,,,,,,,0,,,53,100
11820,note_on,30,0,1,,,,,,,,,0,,,77,100
11850,note_on,0,0,1,,,,,,,,,0,,,77,0
11850,note_on,0,0,1,,,,,,,,,0,,,68,0
11850,note_on,0,0,4,,,,,,,,,0,,,50,0
11850,note_on,30,0,4,,,,,,,,,0,,,39,0
11850,note_on,0,0,4,,,,,,,,,0,,,53,0
11850,note_on,0,0,4,,,,,,,,,0,,,47,0
11850,note_on,30,0,1,,,,,,,,,0,,,65,0
11880,note_on,0,0,1,,,,,,,,,0,,,70,100
11880,note_on,0,0,4,,,,,,,,,0,,,39,100
11880,note_on,0,0,4,,,,,,,,,0,,,46,100
11880,note_on,30,0,1,,,,,,,,,0,,,79,100
11880,note_on,30,0,4,,,,,,,,,0,,,55,100
11880,note_on,0,0,1,,,,,,,,,0,,,67,100
11910,note_on,30,0,1,,,,,,,,,0,,,67,0
11910,note_on,30,0,4,,,,,,,,,0,,,39,0
11910,note_on,0,0,4,,,,,,,,,0,,,46,0
11910,note_on,0,0,4,,,,,,,,,0,,,55,0
11910,note_on,0,0,1,,,,,,,,,0,,,70,0
11910,note_on,0,0,1,,,,,,,,,0,,,79,0
11940,note_on,0,0,4,,,,,,,,,0,,,46,100
11940,note_on,0,0,1,,,,,,,,,0,,,67,100
11940,note_on,30,0,4,,,,,,,,,0,,,39,100
11940,note_on,30,0,1,,,,,,,,,0,,,75,100
11940,note_on,0,0,1,,,,,,,,,0,,,63,100
11940,note_on,0,0,4,,,,,,,,,0,,,51,100
12060,note_on,0,0,4,,,,,,,,,0,,,39,0
12060,note_on,120,0,4,,,,,,,,,0,,,51,0
12060,note_on,120,0,1,,,,,,,,,0,,,63,0
12060,note_on,0,0,1,,,,,,,,,0,,,67,0
12060,note_on,0,0,1,,,,,,,,,0,,,93,80
12060,note_on,0,0,1,,,,,,,,,0,,,75,0
12060,note_on,0,0,4,,,,,,,,,0,,,46,0
12060,set_tempo,360,1,0,,,,,,1071429,,,,,,,
12062,note_on,2,0,1,,,,,,,,,0,,,94,60
12068,note_on,6,0,1,,,,,,,,,0,,,93,0
12070,note_on,2,0,1,,,,,,,,,0,,,94,0
12070,note_on,0,0,1,,,,,,,,,0,,,99,60
12077,note_on,7,0,1,,,,,,,,,0,,,98,60
12078,note_on,1,0,1,,,,,,,,,0,,,99,0
12082,note_on,4,0,1,,,,,,,,,0,,,96,60
12085,note_on,3,0,1,,,,,,,,,0,,,98,0
12088,note_on,3,0,1,,,,,,,,,0,,,94,60
12090,note_on,2,0,1,,,,,,,,,0,,,96,0
12096,note_on,6,0,1,,,,,,,,,0,,,94,0
12096,note_on,0,0,1,,,,,,,,,0,,,92,60
12102,note_on,6,0,1,,,,,,,,,0,,,91,60
12104,note_on,2,0,1,,,,,,,,,0,,,92,0
12107,note_on,1307,0,3,,,,,,,,,0,,,89,60
12110,note_on,6,0,1,,,,,,,,,0,,,91,0
12114,note_on,7,0,3,,,,,,,,,0,,,87,60
12115,note_on,1,0,3,,,,,,,,,0,,,89,0
12122,note_on,0,0,3,,,,,,,,,0,,,86,60
12122,note_on,7,0,3,,,,,,,,,0,,,87,0
12127,note_on,5,0,3,,,,,,,,,0,,,84,60
12130,note_on,3,0,3,,,,,,,,,0,,,86,0
12133,note_on,3,0,3,,,,,,,,,0,,,82,60
12135,note_on,2,0,3,,,,,,,,,0,,,84,0
12140,note_on,30,0,1,,,,,,,,,0,,,80,60
12141,note_on,6,0,3,,,,,,,,,0,,,82,0
12147,note_on,7,0,1,,,,,,,,,0,,,79,60
12148,note_on,1,0,1,,,,,,,,,0,,,80,0
12152,note_on,4,0,1,,,,,,,,,0,,,77,60
12155,note_on,3,0,1,,,,,,,,,0,,,79,0
12159,note_on,4,0,1,,,,,,,,,0,,,75,60
12160,note_on,1,0,1,,,,,,,,,0,,,77,0
12165,note_on,5,0,1,,,,,,,,,0,,,74,60
12167,note_on,2,0,1,,,,,,,,,0,,,75,0
12172,note_on,5,0,1,,,,,,,,,0,,,72,60
12173,note_on,1,0,1,,,,,,,,,0,,,74,0
12180,set_tempo,120,1,0,,,,,,652174,,,,,,,
12180,note_on,7,0,1,,,,,,,,,0,,,72,0
12180,note_on,39,0,3,,,,,,,,,0,,,70,60
12210,note_on,30,0,3,,,,,,,,,0,,,70,0
12240,note_on,180,0,4,,,,,,,,,0,,,51,60
12240,note_on,0,0,1,,,,,,,,,0,,,63,60
12240,note_on,0,0,1,,,,,,,,,0,,,58,60
12240,note_on,60,0,1,,,,,,,,,0,,,55,60
12270,note_on,0,0,1,,,,,,,,,0,,,55,0
12270,note_on,0,0,1,,,,,,,,,0,,,58,0
12270,note_on,30,0,1,,,,,,,,,0,,,63,0
12270,note_on,30,0,4,,,,,,,,,0,,,51,0
12300,note_on,30,0,4,,,,,,,,,0,,,50,60
12300,note_on,0,0,1,,,,,,,,,0,,,59,60
12300,note_on,0,0,1,,,,,,,,,0,,,65,60
12300,note_on,30,0,1,,,,,,,,,0,,,56,60
12330,note_on,0,0,1,,,,,,,,,0,,,56,0
12330,note_on,0,0,1,,,,,,,,,0,,,59,0
12330,note_on,30,0,1,,,,,,,,,0,,,65,0
12330,note_on,30,0,4,,,,,,,,,0,,,50,0
12360,note_on,30,0,1,,,,,,,,,0,,,57,60
12360,note_on,0,0,1,,,,,,,,,0,,,60,60
12360,note_on,0,0,1,,,,,,,,,0,,,66,60
12360,note_on,30,0,4,,,,,,,,,0,,,38,60
12390,note_on,0,0,1,,,,,,,,,0,,,57,0
12390,note_on,0,0,1,,,,,,,,,0,,,60,0
12390,note_on,30,0,1,,,,,,,,,0,,,66,0
12390,note_on,30,0,4,,,,,,,,,0,,,38,0
12420,time_signature,240,1,0,5,4,24,8,,,,,,,,,
12420,note_on,30,0,1,,,,,,,,,0,,,59,80
12420,note_on,0,0,4,,,,,,,,,0,,,50,80
12420,note_on,30,0,4,,,,,,,,,0,,,43,60
12420,note_on,0,0,1,,,,,,,,,0,,,67,80
12480,note_on,0,0,1,,,,,,,,,0,,,62,60
12480,note_on,60,0,1,,,,,,,,,0,,,67,0
12480,note_on,0,0,1,,,,,,,,,0,,,55,60
12480,note_on,60,0,4,,,,,,,,,0,,,50,0
12480,note_on,0,0,1,,,,,,,,,0,,,59,0
12480,note_on,0,0,4,,,,,,,,,0,,,47,60
12510,note_on,0,0,1,,,,,,,,,0,,,55,0
12510,note_on,30,0,1,,,,,,,,,0,,,62,0
12510,note_on,30,0,4,,,,,,,,,0,,,47,0
12540,note_on,30,0,1,,,,,,,,,0,,,94,40
12540,set_tempo,120,1,0,,,,,,1071429,,,,,,,
12540,note_on,330,0,3,,,,,,,,,0,,,90,40
12540,note_on,30,0,4,,,,,,,,,0,,,43,0
12547,note_on,7,0,3,,,,,,,,,0,,,91,40
12547,note_on,7,0,1,,,,,,,,,0,,,95,40
12548,note_on,1,0,1,,,,,,,,,0,,,94,0
12548,note_on,1,0,3,,,,,,,,,0,,,90,0
12555,note_on,7,0,1,,,,,,,,,0,,,95,0
12555,note_on,0,0,3,,,,,,,,,0,,,95,40
12555,note_on,7,0,3,,,,,,,,,0,,,91,0
12555,note_on,0,0,1,,,,,,,,,0,,,103,40
12562,note_on,7,0,1,,,,,,,,,0,,,102,40
12562,note_on,7,0,3,,,,,,,,,0,,,93,40
12563,note_on,1,0,1,,,,,,,,,0,,,103,0
12563,note_on,1,0,3,,,,,,,,,0,,,95,0
12570,note_on,0,0,1,,,,,,,,,0,,,100,40
12570,note_on,7,0,1,,,,,,,,,0,,,102,0
12570,note_on,0,0,3,,,,,,,,,0,,,91,40
12570,note_on,7,0,3,,,,,,,,,0,,,93,0
12577,note_on,7,0,3,,,,,,,,,0,,,90,40
12577,note_on,7,0,1,,,,,,,,,0,,,98,40
12578,note_on,1,0,3,,,,,,,,,0,,,91,0
12578,note_on,1,0,1,,,,,,,,,0,,,100,0
12585,note_on,7,0,3,,,,,,,,,0,,,90,0
12585,note_on,0,0,3,,,,,,,,,0,,,88,40
12585,note_on,0,0,1,,,,,,,,,0,,,96,40
12585,note_on,7,0,1,,,,,,,,,0,,,98,0
12592,note_on,7,0,3,,,,,,,,,0,,,86,40
12592,note_on,7,0,1,,,,,,,,,0,,,95,40
12593,note_on,1,0,3,,,,,,,,,0,,,88,0
12593,note_on,1,0,1,,,,,,,,,0,,,96,0
12600,note_on,7,0,3,,,,,,,,,0,,,86,0
12600,note_on,7,0,1,,,,,,,,,0,,,95,0
12600,note_on,0,0,1,,,,,,,,,0,,,93,40
12600,note_on,0,0,3,,,,,,,,,0,,,84,40
12607,note_on,7,0,1,,,,,,,,,0,,,91,40
12607,note_on,7,0,3,,,,,,,,,0,,,83,40
12608,note_on,1,0,3,,,,,,,,,0,,,84,0
12608,note_on,1,0,1,,,,,,,,,0,,,93,0
12615,note_on,7,0,1,,,,,,,,,0,,,91,0
12615,note_on,7,0,3,,,,,,,,,0,,,83,0
12615,note_on,0,0,3,,,,,,,,,0,,,81,40
12615,note_on,0,0,1,,,,,,,,,0,,,90,40
12622,note_on,7,0,1,,,,,,,,,0,,,88,40
12622,note_on,7,0,3,,,,,,,,,0,,,79,40
12623,note_on,1,0,1,,,,,,,,,0,,,90,0
12623,note_on,1,0,3,,,,,,,,,0,,,81,0
12630,note_on,0,0,1,,,,,,,,,0,,,86,40
12630,note_on,0,0,3,,,,,,,,,0,,,78,40
12630,note_on,7,0,1,,,,,,,,,0,,,88,0
12630,note_on,7,0,3,,,,,,,,,0,,,79,0
12637,note_on,7,0,3,,,,,,,,,0,,,76,40
12637,note_on,7,0,1,,,,,,,,,0,,,84,40
12638,note_on,1,0,3,,,,,,,,,0,,,78,0
12638,note_on,1,0,1,,,,,,,,,0,,,86,0
12645,note_on,7,0,3,,,,,,,,,0,,,76,0
12645,note_on,0,0,1,,,,,,,,,0,,,83,40
12645,note_on,0,0,3,,,,,,,,,0,,,74,40
12645,note_on,7,0,1,,,,,,,,,0,,,84,0
12652,note_on,7,0,3,,,,,,,,,0,,,72,40
12652,note_on,7,0,1,,,,,,,,,0,,,81,40
12653,note_on,1,0,3,,,,,,,,,0,,,74,0
12653,note_on,1,0,1,,,,,,,,,0,,,83,0
12660,note_on,0,0,1,,,,,,,,,0,,,79,40
12660,set_tempo,120,1,0,,,,,,653666,,,,,,,
12660,note_on,7,0,3,,,,,,,,,0,,,72,0
12660,note_on,0,0,3,,,,,,,,,0,,,71,40
12660,note_on,7,0,1,,,,,,,,,0,,,81,0
12664,set_tempo,4,1,0,,,,,,655809,,,,,,,
12668,set_tempo,4,1,0,,,,,,660139,,,,,,,
12672,set_tempo,4,1,0,,,,,,664525,,,,,,,
12677,set_tempo,5,1,0,,,,,,668971,,,,,,,
12681,set_tempo,4,1,0,,,,,,673476,,,,,,,
12685,set_tempo,4,1,0,,,,,,678043,,,,,,,
12690,note_on,30,0,3,,,,,,,,,0,,,71,0
12690,note_on,30,0,1,,,,,,,,,0,,,79,0
12690,set_tempo,5,1,0,,,,,,682672,,,,,,,
12694,set_tempo,4,1,0,,,,,,687364,,,,,,,
12698,set_tempo,4,1,0,,,,,,692121,,,,,,,
12702,set_tempo,4,1,0,,,,,,696945,,,,,,,
12707,set_tempo,5,1,0,,,,,,701836,,,,,,,
12711,set_tempo,4,1,0,,,,,,704308,,,,,,,
12715,set_tempo,4,1,0,,,,,,709304,,,,,,,
12720,note_on,30,0,1,,,,,,,,,0,,,60,40
12720,note_on,180,0,4,,,,,,,,,0,,,48,40
12720,set_tempo,5,1,0,,,,,,714371,,,,,,,
12720,note_on,0,0,1,,,,,,,,,0,,,64,40
12720,note_on,0,0,1,,,,,,,,,0,,,67,40
12724,set_tempo,4,1,0,,,,,,719511,,,,,,,
12728,set_tempo,4,1,0,,,,,,724725,,,,,,,
12732,set_tempo,4,1,0,,,,,,730016,,,,,,,
12737,set_tempo,5,1,0,,,,,,735384,,,,,,,
12741,set_tempo,4,1,0,,,,,,740832,,,,,,,
12745,set_tempo,4,1,0,,,,,,746361,,,,,,,
12750,note_on,0,0,1,,,,,,,,,0,,,64,0
12750,note_on,30,0,1,,,,,,,,,0,,,67,0
12750,note_on,0,0,1,,,,,,,,,0,,,60,0
12750,set_tempo,5,1,0,,,,,,751974,,,,,,,
12750,note_on,30,0,4,,,,,,,,,0,,,48,0
12754,set_tempo,4,1,0,,,,,,757671,,,,,,,
12758,set_tempo,4,1,0,,,,,,760553,,,,,,,
12762,set_tempo,4,1,0,,,,,,766381,,,,,,,
12767,set_tempo,5,1,0,,,,,,772300,,,,,,,
12771,set_tempo,4,1,0,,,,,,778311,,,,,,,
12775,set_tempo,4,1,0,,,,,,784416,,,,,,,
12780,note_on,30,0,1,,,,,,,,,0,,,68,40
12780,set_tempo,5,1,0,,,,,,790618,,,,,,,
12780,note_on,30,0,4,,,,,,,,,0,,,41,40
12780,note_on,0,0,1,,,,,,,,,0,,,65,40
12780,note_on,0,0,1,,,,,,,,,0,,,60,40
12784,set_tempo,4,1,0,,,,,,796919,,,,,,,
12788,set_tempo,4,1,0,,,,,,803320,,,,,,,
12792,set_tempo,4,1,0,,,,,,809826,,,,,,,
12797,set_tempo,5,1,0,,,,,,816438,,,,,,,
12801,set_tempo,4,1,0,,,,,,823158,,,,,,,
12805,set_tempo,4,1,0,,,,,,826560,,,,,,,
12810,note_on,30,0,4,,,,,,,,,0,,,41,0
12810,note_on,0,0,1,,,,,,,,,0,,,68,0
12810,note_on,0,0,1,,,,,,,,,0,,,65,0
12810,note_on,30,0,1,,,,,,,,,0,,,60,0
12810,set_tempo,5,1,0,,,,,,833449,,,,,,,
12814,set_tempo,4,1,0,,,,,,840454,,,,,,,
12818,set_tempo,4,1,0,,,,,,847577,,,,,,,
12822,set_tempo,4,1,0,,,,,,854823,,,,,,,
12827,set_tempo,5,1,0,,,,,,862193,,,,,,,
12831,set_tempo,4,1,0,,,,,,869691,,,,,,,
12835,set_tempo,4,1,0,,,,,,877321,,,,,,,
12840,note_on,30,0,4,,,,,,,,,0,,,34,40
12840,note_on,0,0,4,,,,,,,,,0,,,46,40
12840,note_on,30,0,1,,,,,,,,,0,,,56,40
12840,note_on,0,0,1,,,,,,,,,0,,,70,40
12840,note_on,0,0,1,,,,,,,,,0,,,62,40
12840,set_tempo,5,1,0,,,,,,885086,,,,,,,
12844,set_tempo,4,1,0,,,,,,892990,,,,,,,
12848,set_tempo,4,1,0,,,,,,901036,,,,,,,
12852,set_tempo,4,1,0,,,,,,905114,,,,,,,
12857,set_tempo,5,1,0,,,,,,913381,,,,,,,
12861,set_tempo,4,1,0,,,,,,921801,,,,,,,
12865,set_tempo,4,1,0,,,,,,930377,,,,,,,
12870,note_on,0,0,1,,,,,,,,,0,,,56,0
12870,note_on,0,0,1,,,,,,,,,0,,,62,0
12870,note_on,30,0,1,,,,,,,,,0,,,70,0
12870,note_on,0,0,4,,,,,,,,,0,,,34,0
12870,set_tempo,5,1,0,,,,,,939114,,,,,,,
12870,note_on,30,0,4,,,,,,,,,0,,,46,0
12874,set_tempo,4,1,0,,,,,,948017,,,,,,,
12878,set_tempo,4,1,0,,,,,,957090,,,,,,,
12882,set_tempo,4,1,0,,,,,,966339,,,,,,,
12887,set_tempo,5,1,0,,,,,,975768,,,,,,,
12891,set_tempo,4,1,0,,,,,,985383,,,,,,,
12895,set_tempo,4,1,0,,,,,,995190,,,,,,,
12900,note_on,30,0,1,,,,,,,,,0,,,55,40
12900,note_on,0,0,4,,,,,,,,,0,,,46,40
12900,note_on,30,0,4,,,,,,,,,0,,,39,40
12900,note_on,0,0,1,,,,,,,,,0,,,70,40
12900,note_on,0,0,1,,,,,,,,,0,,,63,40
12900,set_tempo,5,1,0,,,,,,1666667,,,,,,,
13020,note_on,0,0,1,,,,,,,,,0,,,63,0
13020,note_on,0,0,4,,,,,,,,,0,,,39,0
13020,note_on,0,0,4,,,,,,,,,0,,,43,120
13020,note_on,0,0,4,,,,,,,,,0,,,55,120
13020,note_on,0,0,1,,,,,,,,,0,,,55,0
13020,time_signature,120,1,0,3,4,24,8,,,,,,,,,
13020,note_on,120,0,1,,,,,,,,,0,,,70,0
13020,marker,0,1,0,,,,,,,,,,,,,
13020,note_on,120,0,4,,,,,,,,,0,,,46,0
13020,set_tempo,0,1,0,,,,,,535714,,,,,,,
13110,note_on,0,0,4,,,,,,,,,0,,,51,100
13110,note_on,0,0,4,,,,,,,,,0,,,43,0
13110,note_on,0,0,4,,,,,,,,,0,,,39,100
13110,note_on,90,0,4,,,,,,,,,0,,,55,0
13140,note_on,0,0,4,,,,,,,,,0,,,48,120
13140,note_on,0,0,4,,,,,,,,,0,,,39,0
13140,note_on,0,0,4,,,,,,,,,0,,,36,120
13140,note_on,30,0,4,,,,,,,,,0,,,51,0
13170,note_on,30,0,4,,,,,,,,,0,,,48,0
13170,note_on,0,0,4,,,,,,,,,0,,,35,100
13170,note_on,0,0,4,,,,,,,,,0,,,47,100
13170,note_on,0,0,4,,,,,,,,,0,,,36,0
13200,note_on,30,0,4,,,,,,,,,0,,,47,0
13200,note_on,0,0,4,,,,,,,,,0,,,35,0
13200,note_on,0,0,4,,,,,,,,,0,,,48,100
13200,note_on,180,0,1,,,,,,,,,0,,,55,100
13200,note_on,0,0,4,,,,,,,,,0,,,36,100
13215,note_on,0,0,4,,,,,,,,,0,,,36,0
13215,note_on,15,0,4,,,,,,,,,0,,,48,0
13230,note_on,30,0,1,,,,,,,,,0,,,55,0
13230,note_on,0,0,4,,,,,,,,,0,,,50,100
13230,note_on,15,0,4,,,,,,,,,0,,,38,100
13245,note_on,15,0,4,,,,,,,,,0,,,50,0
13245,note_on,0,0,4,,,,,,,,,0,,,38,0
13260,note_on,0,0,4,,,,,,,,,0,,,51,120
13260,note_on,30,0,1,,,,,,,,,0,,,60,100
13260,note_on,15,0,4,,,,,,,,,0,,,39,120
13290,note_on,30,0,4,,,,,,,,,0,,,51,0
13290,note_on,0,0,4,,,,,,,,,0,,,50,100
13290,note_on,0,0,4,,,,,,,,,0,,,39,0
13290,note_on,0,0,4,,,,,,,,,0,,,38,100
13320,note_on,0,0,4,,,,,,,,,0,,,51,100
13320,note_on,0,0,4,,,,,,,,,0,,,39,100
13320,note_on,0,0,4,,,,,,,,,0,,,38,0
13320,note_on,30,0,4,,,,,,,,,0,,,50,0
13320,note_on,60,0,1,,,,,,,,,0,,,67,100
13335,note_on,15,0,4,,,,,,,,,0,,,51,0
13335,note_on,0,0,4,,,,,,,,,0,,,39,0
13350,note_on,0,0,4,,,,,,,,,0,,,53,100
13350,note_on,15,0,4,,,,,,,,,0,,,41,100
13365,note_on,0,0,4,,,,,,,,,0,,,41,0
13365,note_on,15,0,4,,,,,,,,,0,,,53,0
13380,note_on,15,0,4,,,,,,,,,0,,,43,120
13380,note_on,60,0,1,,,,,,,,,0,,,67,0
13380,note_on,0,0,1,,,,,,,,,0,,,62,100
13380,note_on,0,0,4,,,,,,,,,0,,,55,120
13380,time_signature,360,1,0,4,4,24,8,,,,,,,,,
13410,note_on,0,0,4,,,,,,,,,0,,,42,100
13410,note_on,30,0,4,,,,,,,,,0,,,55,0
13410,note_on,0,0,4,,,,,,,,,0,,,43,0
13410,note_on,0,0,4,,,,,,,,,0,,,54,100
13440,note_on,60,0,1,,,,,,,,,0,,,60,0
13440,note_on,0,0,1,,,,,,,,,0,,,59,100
13440,note_on,30,0,4,,,,,,,,,0,,,54,0
13440,note_on,0,0,4,,,,,,,,,0,,,42,0
13440,note_on,0,0,4,,,,,,,,,0,,,43,100
13440,note_on,0,0,4,,,,,,,,,0,,,55,100
13455,note_on,15,0,4,,,,,,,,,0,,,55,0
13455,note_on,0,0,4,,,,,,,,,0,,,43,0
13470,note_on,0,0,4,,,,,,,,,0,,,57,100
13470,note_on,30,0,1,,,,,,,,,0,,,59,0
13470,note_on,15,0,4,,,,,,,,,0,,,45,100
13485,note_on,0,0,4,,,,,,,,,0,,,45,0
13485,note_on,15,0,4,,,,,,,,,0,,,57,0
13500,note_on,0,0,4,,,,,,,,,0,,,59,120
13500,note_on,15,0,4,,,,,,,,,0,,,47,120
13500,note_on,30,0,1,,,,,,,,,0,,,74,100
13530,note_on,30,0,4,,,,,,,,,0,,,59,0
13530,note_on,0,0,4,,,,,,,,,0,,,57,100
13530,note_on,0,0,4,,,,,,,,,0,,,47,0
13530,note_on,0,0,4,,,,,,,,,0,,,45,100
13560,note_on,60,0,1,,,,,,,,,0,,,62,0
13560,note_on,0,0,4,,,,,,,,,0,,,45,0
13560,note_on,0,0,4,,,,,,,,,0,,,59,100
13560,note_on,0,0,1,,,,,,,,,0,,,65,100
13560,note_on,30,0,4,,,,,,,,,0,,,57,0
13560,note_on,0,0,4,,,,,,,,,0,,,47,100
13575,note_on,15,0,4,,,,,,,,,0,,,59,0
13575,note_on,0,0,4,,,,,,,,,0,,,47,0
13590,note_on,0,0,4,,,,,,,,,0,,,55,100
13590,note_on,15,0,4,,,,,,,,,0,,,43,100
13605,note_on,0,0,4,,,,,,,,,0,,,43,0
13605,note_on,15,0,4,,,,,,,,,0,,,55,0
13620,note_on,15,0,4,,,,,,,,,0,,,48,120
13620,note_on,60,0,1,,,,,,,,,0,,,65,0
13620,note_on,0,0,4,,,,,,,,,0,,,60,120
13620,note_on,0,0,1,,,,,,,,,0,,,63,100
13650,note_on,0,0,4,,,,,,,,,0,,,48,0
13650,note_on,0,0,4,,,,,,,,,0,,,59,100
13650,note_on,30,0,4,,,,,,,,,0,,,60,0
13650,note_on,0,0,4,,,,,,,,,0,,,47,100
13680,note_on,30,0,4,,,,,,,,,0,,,59,0
13680,note_on,0,0,4,,,,,,,,,0,,,60,100
13680,note_on,60,0,1,,,,,,,,,0,,,74,0
13680,note_on,0,0,4,,,,,,,,,0,,,48,100
13680,note_on,0,0,1,,,,,,,,,0,,,67,100
13680,note_on,0,0,4,,,,,,,,,0,,,47,0
13695,note_on,15,0,4,,,,,,,,,0,,,60,0
13695,note_on,0,0,4,,,,,,,,,0,,,48,0
13710,note_on,0,0,4,,,,,,,,,0,,,62,100
13710,note_on,15,0,4,,,,,,,,,0,,,50,100
13725,note_on,15,0,4,,,,,,,,,0,,,62,0
13725,note_on,0,0,4,,,,,,,,,0,,,50,0
13740,note_on,0,0,1,,,,,,,,,0,,,79,100
13740,note_on,0,0,4,,,,,,,,,0,,,63,120
13740,note_on,15,0,4,,,,,,,,,0,,,51,120
13740,note_on,60,0,1,,,,,,,,,0,,,67,0
13770,note_on,0,0,4,,,,,,,,,0,,,50,100
13770,note_on,0,0,4,,,,,,,,,0,,,62,100
13770,note_on,30,0,4,,,,,,,,,0,,,63,0
13770,note_on,0,0,4,,,,,,,,,0,,,51,0
13800,note_on,0,0,4,,,,,,,,,0,,,63,100
13800,note_on,0,0,4,,,,,,,,,0,,,50,0
13800,note_on,60,0,1,,,,,,,,,0,,,63,0
13800,note_on,30,0,4,,,,,,,,,0,,,62,0
13800,note_on,0,0,4,,,,,,,,,0,,,51,100
13800,note_on,0,0,1,,,,,,,,,0,,,72,100
13815,note_on,0,0,4,,,,,,,,,0,,,51,0
13815,note_on,15,0,4,,,,,,,,,0,,,63,0
13830,note_on,0,0,1,,,,,,,,,0,,,80,100
13830,note_on,30,0,1,,,,,,,,,0,,,79,0
13830,note_on,0,0,4,,,,,,,,,0,,,65,100
13830,note_on,15,0,4,,,,,,,,,0,,,53,100
13845,note_on,0,0,4,,,,,,,,,0,,,53,0
13845,note_on,15,0,4,,,,,,,,,0,,,65,0
13860,note_on,0,0,1,,,,,,,,,0,,,72,0
13860,note_on,0,0,1,,,,,,,,,0,,,72,100
13860,note_on,15,0,4,,,,,,,,,0,,,67,100
13860,note_on,0,0,4,,,,,,,,,0,,,55,100
13860,note_on,30,0,1,,,,,,,,,0,,,80,0
13860,note_on,0,0,1,,,,,,,,,0,,,74,127
13890,note_on,0,0,4,,,,,,,,,0,,,67,0
13890,note_on,30,0,4,,,,,,,,,0,,,55,0
13920,note_on,0,0,4,,,,,,,,,0,,,59,100
13920,note_on,30,0,4,,,,,,,,,0,,,43,100
13920,note_on,0,0,1,,,,,,,,,0,,,62,100
13920,note_on,0,0,1,,,,,,,,,0,,,71,100
13920,note_on,0,0,4,,,,,,,,,0,,,50,100
13920,note_on,60,0,1,,,,,,,,,0,,,72,0
13950,note_on,0,0,4,,,,,,,,,0,,,43,0
13950,note_on,0,0,4,,,,,,,,,0,,,50,0
13950,note_on,30,0,4,,,,,,,,,0,,,59,0
13980,note_on,0,0,1,,,,,,,,,0,,,62,0
13980,note_on,30,0,4,,,,,,,,,0,,,67,127
13980,note_on,0,0,4,,,,,,,,,0,,,59,127
13980,note_on,0,0,4,,,,,,,,,0,,,62,127
13980,note_on,0,0,4,,,,,,,,,0,,,55,127
13980,note_on,0,0,1,,,,,,,,,0,,,79,127
13980,note_on,0,0,1,,,,,,,,,0,,,83,127
13980,note_on,60,0,1,,,,,,,,,0,,,71,0
13980,note_on,0,0,1,,,,,,,,,0,,,86,127
13980,note_on,0,0,1,,,,,,,,,0,,,91,127
13980,note_on,0,0,1,,,,,,,,,0,,,74,0
14070,note_on,0,0,4,,,,,,,,,0,,,62,0
14070,note_on,0,0,4,,,,,,,,,0,,,59,0
14070,note_on,0,0,4,,,,,,,,,0,,,67,0
14070,note_on,90,0,1,,,,,,,,,0,,,79,0
14070,note_on,90,0,4,,,,,,,,,0,,,55,0
14070,note_on,0,0,1,,,,,,,,,0,,,79,90
14070,note_on,0,0,1,,,,,,,,,0,,,83,0
14070,note_on,0,0,1,,,,,,,,,0,,,86,0
14070,note_on,0,0,1,,,,,,,,,0,,,91,0
14070,note_on,0,0,1,,,,,,,,,0,,,91,90
14085,note_on,15,0,1,,,,,,,,,0,,,79,0
14085,note_on,0,0,1,,,,,,,,,0,,,91,0
14100,note_on,15,0,1,,,,,,,,,0,,,92,90
14100,note_on,0,0,1,,,,,,,,,0,,,80,90
14115,note_on,15,0,1,,,,,,,,,0,,,80,0
14115,note_on,0,0,1,,,,,,,,,0,,,92,0
14130,note_on,0,0,1,,,,,,,,,0,,,79,90
14130,note_on,15,0,1,,,,,,,,,0,,,91,90
14145,note_on,0,0,1,,,,,,,,,0,,,91,0
14145,note_on,15,0,1,,,,,,,,,0,,,79,0
14160,note_on,0,0,1,,,,,,,,,0,,,80,90
14160,note_on,0,0,4,,,,,,,,,0,,,59,100
14160,note_on,15,0,1,,,,,,,,,0,,,92,90
14160,note_on,90,0,4,,,,,,,,,0,,,62,100
14160,note_on,0,0,4,,,,,,,,,0,,,53,100
14175,note_on,15,0,1,,,,,,,,,0,,,80,0
14175,note_on,0,0,1,,,,,,,,,0,,,92,0
14190,note_on,15,0,1,,,,,,,,,0,,,86,90
14190,note_on,0,0,1,,,,,,,,,0,,,74,90
14205,note_on,0,0,1,,,,,,,,,0,,,86,0
14205,note_on,15,0,1,,,,,,,,,0,,,74,0
14220,note_on,0,0,4,,,,,,,,,0,,,62,100
14220,note_on,60,0,4,,,,,,,,,0,,,53,0
14220,note_on,15,0,1,,,,,,,,,0,,,91,90
14220,note_on,0,0,4,,,,,,,,,0,,,51,100
14220,note_on,0,0,4,,,,,,,,,0,,,62,0
14220,note_on,0,0,1,,,,,,,,,0,,,79,90
14220,note_on,0,0,4,,,,,,,,,0,,,67,100
14235,note_on,15,0,1,,,,,,,,,0,,,79,0
14235,note_on,0,0,1,,,,,,,,,0,,,91,0
14250,note_on,0,0,1,,,,,,,,,0,,,78,90
14250,note_on,15,0,1,,,,,,,,,0,,,90,90
14265,note_on,0,0,1,,,,,,,,,0,,,90,0
14265,note_on,15,0,1,,,,,,,,,0,,,78,0
14280,note_on,0,0,4,,,,,,,,,0,,,60,100
14280,note_on,0,0,4,,,,,,,,,0,,,67,0
14280,note_on,0,0,1,,,,,,,,,0,,,79,90
14280,note_on,60,0,4,,,,,,,,,0,,,62,0
14280,note_on,0,0,4,,,,,,,,,0,,,59,0
14280,note_on,15,0,1,,,,,,,,,0,,,91,90
14295,note_on,15,0,1,,,,,,,,,0,,,79,0
14295,note_on,0,0,1,,,,,,,,,0,,,91,0
14310,note_on,0,0,1,,,,,,,,,0,,,72,90
14310,note_on,15,0,1,,,,,,,,,0,,,84,90
14325,note_on,0,0,1,,,,,,,,,0,,,84,0
14325,note_on,15,0,1,,,,,,,,,0,,,72,0
14340,note_on,0,0,1,,,,,,,,,0,,,77,90
14340,note_on,15,0,1,,,,,,,,,0,,,89,90
14340,note_on,0,0,4,,,,,,,,,0,,,51,0
14340,note_on,60,0,4,,,,,,,,,0,,,60,0
14355,note_on,15,0,1,,,,,,,,,0,,,77,0
14355,note_on,0,0,1,,,,,,,,,0,,,89,0
14370,note_on,15,0,1,,,,,,,,,0,,,88,90
14370,note_on,0,0,1,,,,,,,,,0,,,76,90
14385,note_on,15,0,1,,,,,,,,,0,,,76,0
14385,note_on,0,0,1,,,,,,,,,0,,,88,0
14400,note_on,0,0,1,,,,,,,,,0,,,77,90
14400,note_on,15,0,1,,,,,,,,,0,,,89,90
14400,note_on,60,0,4,,,,,,,,,0,,,50,100
14400,note_on,0,0,4,,,,,,,,,0,,,56,100
14400,note_on,0,0,4,,,,,,,,,0,,,58,100
14415,note_on,0,0,1,,,,,,,,,0,,,89,0
14415,note_on,15,0,1,,,,,,,,,0,,,77,0
14430,note_on,0,0,1,,,,,,,,,0,,,71,90
14430,note_on,15,0,1,,,,,,,,,0,,,83,90
14445,note_on,0,0,1,,,,,,,,,0,,,83,0
14445,note_on,15,0,1,,,,,,,,,0,,,71,0
14460,note_on,0,0,1,,,,,,,,,0,,,75,90
14460,note_on,0,0,4,,,,,,,,,0,,,63,100
14460,note_on,60,0,4,,,,,,,,,0,,,58,0
14460,note_on,15,0,1,,,,,,,,,0,,,87,90
14460,note_on,0,0,4,,,,,,,,,0,,,48,100
14460,note_on,0,0,4,,,,,,,,,0,,,50,0
14475,note_on,15,0,1,,,,,,,,,0,,,75,0
14475,note_on,0,0,1,,,,,,,,,0,,,87,0
14490,note_on,15,0,1,,,,,,,,,0,,,83,90
14490,note_on,0,0,1,,,,,,,,,0,,,71,90
14505,note_on,0,0,1,,,,,,,,,0,,,83,0
14505,note_on,15,0,1,,,,,,,,,0,,,71,0
14520,note_on,0,0,1,,,,,,,,,0,,,72,90
14520,note_on,0,0,4,,,,,,,,,0,,,51,100
14520,note_on,0,0,4,,,,,,,,,0,,,56,0
14520,note_on,15,0,1,,,,,,,,,0,,,84,90
14520,note_on,60,0,4,,,,,,,,,0,,,48,0
14520,note_on,0,0,4,,,,,,,,,0,,,60,100
14520,note_on,0,0,4,,,,,,,,,0,,,55,100
14520,note_on,0,0,4,,,,,,,,,0,,,63,0
14535,note_on,15,0,1,,,,,,,,,0,,,72,0
14535,note_on,0,0,1,,,,,,,,,0,,,84,0
14550,note_on,15,0,1,,,,,,,,,0,,,80,90
14550,note_on,0,0,1,,,,,,,,,0,,,68,90
14565,note_on,15,0,1,,,,,,,,,0,,,68,0
14565,note_on,45,0,4,,,,,,,,,0,,,44,90
14565,note_on,0,0,1,,,,,,,,,0,,,80,0
14580,note_on,0,0,1,,,,,,,,,0,,,72,90
14580,note_on,0,0,4,,,,,,,,,0,,,55,0
14580,note_on,0,0,4,,,,,,,,,0,,,60,0
14580,note_on,0,0,4,,,,,,,,,0,,,63,120
14580,note_on,15,0,4,,,,,,,,,0,,,51,0
14580,note_on,0,0,4,,,,,,,,,0,,,67,120
14580,note_on,15,0,1,,,,,,,,,0,,,84,90
14595,note_on,15,0,1,,,,,,,,,0,,,72,0
14595,note_on,0,0,1,,,,,,,,,0,,,84,0
14610,note_on,30,0,4,,,,,,,,,0,,,63,0
14610,note_on,0,0,4,,,,,,,,,0,,,65,91
14610,note_on,0,0,4,,,,,,,,,0,,,62,91
14610,note_on,15,0,1,,,,,,,,,0,,,82,91
14610,note_on,0,0,4,,,,,,,,,0,,,67,0
14610,note_on,0,0,1,,,,,,,,,0,,,70,91
14625,note_on,0,0,1,,,,,,,,,0,,,82,0
14625,note_on,15,0,1,,,,,,,,,0,,,70,0
14640,note_on,0,0,1,,,,,,,,,0,,,70,93
14640,note_on,0,0,4,,,,,,,,,0,,,65,93
14640,note_on,15,0,1,,,,,,,,,0,,,82,93
14640,note_on,0,0,4,,,,,,,,,0,,,62,0
14640,note_on,0,0,4,,,,,,,,,0,,,62,93
14640,note_on,30,0,4,,,,,,,,,0,,,65,0
14655,note_on,0,0,1,,,,,,,,,0,,,82,0
14655,note_on,15,0,1,,,,,,,,,0,,,70,0
14670,note_on,0,0,4,,,,,,,,,0,,,65,0
14670,note_on,15,0,1,,,,,,,,,0,,,80,94
14670,note_on,0,0,4,,,,,,,,,0,,,63,94
14670,note_on,30,0,4,,,,,,,,,0,,,62,0
14670,note_on,0,0,4,,,,,,,,,0,,,60,94
14670,note_on,0,0,1,,,,,,,,,0,,,68,94
14685,note_on,15,0,1,,,,,,,,,0,,,68,0
14685,note_on,0,0,1,,,,,,,,,0,,,80,0
14700,note_on,0,0,1,,,,,,,,,0,,,68,95
14700,note_on,30,0,4,,,,,,,,,0,,,63,0
14700,note_on,15,0,1,,,,,,,,,0,,,80,95
14700,note_on,0,0,4,,,,,,,,,0,,,63,95
14700,note_on,0,0,4,,,,,,,,,0,,,60,95
14700,note_on,0,0,4,,,,,,,,,0,,,60,0
14715,note_on,15,0,1,,,,,,,,,0,,,68,0
14715,note_on,0,0,1,,,,,,,,,0,,,80,0
14730,note_on,0,0,4,,,,,,,,,0,,,63,0
14730,note_on,0,0,4,,,,,,,,,0,,,62,97
14730,note_on,0,0,4,,,,,,,,,0,,,58,97
14730,note_on,15,0,1,,,,,,,,,0,,,79,97
14730,note_on,0,0,1,,,,,,,,,0,,,67,97
14730,note_on,30,0,4,,,,,,,,,0,,,60,0
14745,note_on,0,0,1,,,,,,,,,0,,,79,0
14745,note_on,15,0,1,,,,,,,,,0,,,67,0
14760,note_on,0,0,4,,,,,,,,,0,,,58,98
14760,note_on,0,0,4,,,,,,,,,0,,,58,0
14760,note_on,0,0,4,,,,,,,,,0,,,62,98
14760,note_on,15,0,1,,,,,,,,,0,,,79,98
14760,note_on,30,0,4,,,,,,,,,0,,,62,0
14760,note_on,0,0,1,,,,,,,,,0,,,67,98
14775,note_on,0,0,1,,,,,,,,,0,,,79,0
14775,note_on,15,0,1,,,,,,,,,0,,,67,0
14790,note_on,15,0,1,,,,,,,,,0,,,78,99
14790,note_on,30,0,4,,,,,,,,,0,,,58,0
14790,note_on,0,0,4,,,,,,,,,0,,,62,0
14790,note_on,0,0,4,,,,,,,,,0,,,56,99
14790,note_on,0,0,4,,,,,,,,,0,,,60,99
14790,note_on,0,0,1,,,,,,,,,0,,,66,99
14805,note_on,0,0,1,,,,,,,,,0,,,78,0
14805,note_on,15,0,1,,,,,,,,,0,,,66,0
14820,note_on,0,0,4,,,,,,,,,0,,,56,100
14820,note_on,0,0,4,,,,,,,,,0,,,56,0
14820,note_on,0,0,4,,,,,,,,,0,,,44,0
14820,note_on,30,0,4,,,,,,,,,0,,,60,0
14820,note_on,0,0,1,,,,,,,,,0,,,66,100
14820,note_on,15,0,1,,,,,,,,,0,,,78,100
14820,note_on,0,0,4,,,,,,,,,0,,,60,100
14850,note_on,0,0,1,,,,,,,,,0,,,79,100
14850,note_on,0,0,4,,,,,,,,,0,,,60,0
14850,note_on,30,0,4,,,,,,,,,0,,,56,0
14850,note_on,0,0,4,,,,,,,,,0,,,55,100
14850,note_on,0,0,4,,,,,,,,,0,,,59,100
14850,note_on,0,0,1,,,,,,,,,0,,,78,0
14850,note_on,30,0,1,,,,,,,,,0,,,66,0
14850,note_on,0,0,1,,,,,,,,,0,,,67,100
14880,note_on,30,0,4,,,,,,,,,0,,,59,0
14880,note_on,0,0,4,,,,,,,,,0,,,43,100
14880,note_on,0,0,4,,,,,,,,,0,,,55,0
14880,note_on,0,0,4,,,,,,,,,0,,,55,100
14880,note_on,30,0,1,,,,,,,,,0,,,67,0
14880,note_on,0,0,1,,,,,,,,,0,,,79,0
14880,note_on,0,0,1,,,,,,,,,0,,,79,100
14880,note_on,0,0,1,,,,,,,,,0,,,91,100
14910,note_on,0,0,4,,,,,,,,,0,,,43,0
14910,note_on,0,0,1,,,,,,,,,0,,,91,0
14910,note_on,30,0,4,,,,,,,,,0,,,55,0
14910,note_on,30,0,1,,,,,,,,,0,,,79,0
14940,note_on,0,0,2,,,,,,,,,0,,,55,100
14940,note_on,3240,0,2,,,,,,,,,0,,,67,100
15030,note_on,0,0,2,,,,,,,,,0,,,67,0
15030,note_on,0,0,2,,,,,,,,,0,,,63,100
15030,note_on,90,0,2,,,,,,,,,0,,,55,0
15030,note_on,0,0,2,,,,,,,,,0,,,51,100
15060,note_on,0,0,2,,,,,,,,,0,,,48,120
15060,note_on,0,0,2,,,,,,,,,0,,,63,0
15060,note_on,0,0,2,,,,,,,,,0,,,60,120
15060,note_on,30,0,2,,,,,,,,,0,,,51,0
15090,note_on,0,0,2,,,,,,,,,0,,,59,100
15090,note_on,0,0,2,,,,,,,,,0,,,60,0
15090,note_on,0,0,2,,,,,,,,,0,,,47,100
15090,note_on,30,0,2,,,,,,,,,0,,,48,0
15120,note_on,0,0,2,,,,,,,,,0,,,48,100
15120,note_on,0,0,2,,,,,,,,,0,,,59,0
15120,note_on,0,0,2,,,,,,,,,0,,,60,100
15120,note_on,210,0,4,,,,,,,,,0,,,31,100
15120,note_on,30,0,2,,,,,,,,,0,,,47,0
15135,note_on,0,0,2,,,,,,,,,0,,,60,0
15135,note_on,15,0,2,,,,,,,,,0,,,48,0
15150,note_on,15,0,2,,,,,,,,,0,,,62,100
15150,note_on,0,0,2,,,,,,,,,0,,,50,100
15150,note_on,30,0,4,,,,,,,,,0,,,31,0
15165,note_on,0,0,2,,,,,,,,,0,,,62,0
15165,note_on,15,0,2,,,,,,,,,0,,,50,0
15180,note_on,0,0,2,,,,,,,,,0,,,51,120
15180,note_on,15,0,2,,,,,,,,,0,,,63,120
15180,note_on,30,0,4,,,,,,,,,0,,,36,127
15210,note_on,30,0,2,,,,,,,,,0,,,51,0
15210,note_on,0,0,2,,,,,,,,,0,,,50,100
15210,note_on,0,0,2,,,,,,,,,0,,,62,100
15210,note_on,0,0,2,,,,,,,,,0,,,63,0
15240,note_on,60,0,4,,,,,,,,,0,,,43,100
15240,note_on,0,0,2,,,,,,,,,0,,,63,100
15240,note_on,30,0,2,,,,,,,,,0,,,50,0
15240,note_on,0,0,2,,,,,,,,,0,,,62,0
15240,note_on,0,0,2,,,,,,,,,0,,,51,100
15255,note_on,15,0,2,,,,,,,,,0,,,51,0
15255,note_on,0,0,2,,,,,,,,,0,,,63,0
15270,note_on,15,0,2,,,,,,,,,0,,,65,100
15270,note_on,0,0,2,,,,,,,,,0,,,53,100
15270,note_on,30,0,4,,,,,,,,,0,,,43,0
15285,note_on,15,0,2,,,,,,,,,0,,,53,0
15285,note_on,0,0,2,,,,,,,,,0,,,65,0
15300,note_on,390,0,1,,,,,,,,,0,,,67,120
15300,note_on,0,0,1,,,,,,,,,0,,,55,120
15300,note_on,0,0,4,,,,,,,,,0,,,32,100
15300,note_on,0,0,4,,,,,,,,,0,,,34,100
15300,note_on,30,0,4,,,,,,,,,0,,,36,0
15330,note_on,0,0,1,,,,,,,,,0,,,54,100
15330,note_on,0,0,1,,,,,,,,,0,,,67,0
15330,note_on,30,0,1,,,,,,,,,0,,,55,0
15330,note_on,0,0,1,,,,,,,,,0,,,66,100
15360,note_on,0,0,1,,,,,,,,,0,,,55,100
15360,note_on,0,0,1,,,,,,,,,0,,,66,0
15360,note_on,0,0,1,,,,,,,,,0,,,67,100
15360,note_on,30,0,1,,,,,,,,,0,,,54,0
15360,note_on,0,0,4,,,,,,,,,0,,,35,100
15360,note_on,60,0,4,,,,,,,,,0,,,32,0
15375,note_on,0,0,1,,,,,,,,,0,,,67,0
15375,note_on,15,0,1,,,,,,,,,0,,,55,0
15390,note_on,0,0,1,,,,,,,,,0,,,57,100
15390,note_on,30,0,4,,,,,,,,,0,,,35,0
15390,note_on,15,0,1,,,,,,,,,0,,,69,100
15405,note_on,15,0,1,,,,,,,,,0,,,57,0
15405,note_on,0,0,1,,,,,,,,,0,,,69,0
15420,note_on,15,0,1,,,,,,,,,0,,,71,120
15420,note_on,0,0,1,,,,,,,,,0,,,59,120
15420,note_on,30,0,4,,,,,,,,,0,,,50,127
15450,note_on,0,0,1,,,,,,,,,0,,,71,0
15450,note_on,0,0,1,,,,,,,,,0,,,69,100
15450,note_on,0,0,1,,,,,,,,,0,,,57,100
15450,note_on,30,0,1,,,,,,,,,0,,,59,0
15480,note_on,60,0,4,,,,,,,,,0,,,34,0
15480,note_on,30,0,1,,,,,,,,,0,,,57,0
15480,note_on,0,0,4,,,,,,,,,0,,,41,100
15480,note_on,0,0,1,,,,,,,,,0,,,71,100
15480,note_on,0,0,1,,,,,,,,,0,,,59,100
15480,note_on,0,0,1,,,,,,,,,0,,,69,0
15495,note_on,15,0,1,,,,,,,,,0,,,59,0
15495,note_on,0,0,1,,,,,,,,,0,,,71,0
15510,note_on,0,0,1,,,,,,,,,0,,,55,100
15510,note_on,15,0,1,,,,,,,,,0,,,67,100
15525,note_on,0,0,1,,,,,,,,,0,,,67,0
15525,note_on,15,0,1,,,,,,,,,0,,,55,0
15540,note_on,15,0,1,,,,,,,,,0,,,72,120
15540,note_on,0,0,1,,,,,,,,,0,,,60,120
15540,note_on,0,0,4,,,,,,,,,0,,,39,100
15540,note_on,60,0,4,,,,,,,,,0,,,41,0
15570,note_on,0,0,1,,,,,,,,,0,,,71,100
15570,note_on,0,0,1,,,,,,,,,0,,,59,100
15570,note_on,0,0,1,,,,,,,,,0,,,72,0
15570,note_on,30,0,1,,,,,,,,,0,,,60,0
15600,note_on,0,0,1,,,,,,,,,0,,,71,0
15600,note_on,0,0,1,,,,,,,,,0,,,72,100
15600,note_on,30,0,1,,,,,,,,,0,,,59,0
15600,note_on,0,0,1,,,,,,,,,0,,,60,100
15600,note_on,60,0,4,,,,,,,,,0,,,50,0
15600,note_on,0,0,4,,,,,,,,,0,,,43,100
15615,note_on,0,0,1,,,,,,,,,0,,,72,0
15615,note_on,15,0,1,,,,,,,,,0,,,60,0
15630,note_on,15,0,1,,,,,,,,,0,,,74,100
15630,note_on,30,0,4,,,,,,,,,0,,,43,0
15630,note_on,0,0,1,,,,,,,,,0,,,62,100
15645,note_on,0,0,1,,,,,,,,,0,,,74,0
15645,note_on,15,0,1,,,,,,,,,0,,,62,0
15660,note_on,30,0,4,,,,,,,,,0,,,55,127
15660,note_on,15,0,1,,,,,,,,,0,,,75,120
15660,note_on,0,0,1,,,,,,,,,0,,,63,120
15690,note_on,0,0,1,,,,,,,,,0,,,75,0
15690,note_on,0,0,1,,,,,,,,,0,,,74,100
15690,note_on,30,0,1,,,,,,,,,0,,,63,0
15690,note_on,0,0,1,,,,,,,,,0,,,62,100
15720,note_on,0,0,4,,,,,,,,,0,,,48,100
15720,note_on,60,0,4,,,,,,,,,0,,,39,0
15720,note_on,30,0,1,,,,,,,,,0,,,62,0
15720,note_on,0,0,1,,,,,,,,,0,,,74,0
15720,note_on,0,0,1,,,,,,,,,0,,,63,100
15720,note_on,0,0,1,,,,,,,,,0,,,75,100
15735,note_on,15,0,1,,,,,,,,,0,,,63,0
15735,note_on,0,0,1,,,,,,,,,0,,,75,0
15750,note_on,15,0,1,,,,,,,,,0,,,77,100
15750,note_on,0,0,1,,,,,,,,,0,,,65,100
15750,note_on,30,0,4,,,,,,,,,0,,,55,0
15750,note_on,0,0,4,,,,,,,,,0,,,56,100
15765,note_on,0,0,1,,,,,,,,,0,,,77,0
15765,note_on,15,0,1,,,,,,,,,0,,,65,0
15780,note_on,0,0,4,,,,,,,,,0,,,48,0
15780,note_on,0,0,1,,,,,,,,,0,,,67,100
15780,note_on,0,0,4,,,,,,,,,0,,,48,100
15780,note_on,0,0,4,,,,,,,,,0,,,50,100
15780,note_on,15,0,1,,,,,,,,,0,,,79,100
15780,note_on,30,0,4,,,,,,,,,0,,,56,0
15810,note_on,0,0,1,,,,,,,,,0,,,79,0
15810,note_on,30,0,1,,,,,,,,,0,,,67,0
15840,note_on,30,0,1,,,,,,,,,0,,,55,100
15840,note_on,60,0,4,,,,,,,,,0,,,48,0
15840,note_on,0,0,4,,,,,,,,,0,,,47,100
15870,note_on,30,0,1,,,,,,,,,0,,,55,0
15900,note_on,0,0,4,,,,,,,,,0,,,58,127
15900,note_on,0,0,4,,,,,,,,,0,,,62,127
15900,note_on,0,0,4,,,,,,,,,0,,,67,127
15900,note_on,0,0,4,,,,,,,,,0,,,50,0
15900,note_on,60,0,4,,,,,,,,,0,,,47,0
15900,note_on,0,0,4,,,,,,,,,0,,,55,127
15990,note_on,90,0,4,,,,,,,,,0,,,55,0
15990,note_on,0,0,4,,,,,,,,,0,,,67,100
15990,note_on,0,0,4,,,,,,,,,0,,,67,0
15990,note_on,0,0,4,,,,,,,,,0,,,62,0
15990,note_on,0,0,4,,,,,,,,,0,,,58,0
15990,note_on,0,0,4,,,,,,,,,0,,,55,100
16020,note_on,0,0,4,,,,,,,,,0,,,56,100
16020,note_on,30,0,4,,,,,,,,,0,,,55,0
16020,note_on,0,0,4,,,,,,,,,0,,,67,0
16020,note_on,0,0,4,,,,,,,,,0,,,68,100
16035,note_on,0,0,4,,,,,,,,,0,,,68,0
16035,note_on,15,0,4,,,,,,,,,0,,,56,0
16050,note_on,0,0,4,,,,,,,,,0,,,55,100
16050,note_on,15,0,4,,,,,,,,,0,,,67,100
16065,note_on,0,0,4,,,,,,,,,0,,,67,0
16065,note_on,15,0,4,,,,,,,,,0,,,55,0
16080,note_on,210,0,1,,,,,,,,,0,,,83,110
16080,note_on,0,0,4,,,,,,,,,0,,,56,100
16080,note_on,0,0,1,,,,,,,,,0,,,71,110
16080,note_on,0,0,1,,,,,,,,,0,,,77,110
16080,note_on,15,0,4,,,,,,,,,0,,,68,100
16095,note_on,15,0,4,,,,,,,,,0,,,56,0
16095,note_on,0,0,4,,,,,,,,,0,,,68,0
16110,note_on,0,0,4,,,,,,,,,0,,,50,100
16110,note_on,15,0,4,,,,,,,,,0,,,62,100
16125,note_on,0,0,4,,,,,,,,,0,,,62,0
16125,note_on,15,0,4,,,,,,,,,0,,,50,0
16140,note_on,60,0,1,,,,,,,,,0,,,71,0
16140,note_on,15,0,4,,,,,,,,,0,,,67,100
16140,note_on,0,0,1,,,,,,,,,0,,,75,110
16140,note_on,0,0,1,,,,,,,,,0,,,77,0
16140,note_on,0,0,1,,,,,,,,,0,,,83,0
16140,note_on,0,0,1,,,,,,,,,0,,,83,110
16140,note_on,0,0,1,,,,,,,,,0,,,87,110
16140,note_on,0,0,4,,,,,,,,,0,,,55,100
16155,note_on,15,0,4,,,,,,,,,0,,,55,0
16155,note_on,0,0,4,,,,,,,,,0,,,67,0
16170,note_on,0,0,4,,,,,,,,,0,,,54,100
16170,note_on,15,0,4,,,,,,,,,0,,,66,100
16185,note_on,15,0,4,,,,,,,,,0,,,54,0
16185,note_on,0,0,4,,,,,,,,,0,,,66,0
16200,note_on,0,0,1,,,,,,,,,0,,,87,0
16200,note_on,0,0,4,,,,,,,,,0,,,55,100
16200,note_on,0,0,1,,,,,,,,,0,,,72,110
16200,note_on,0,0,1,,,,,,,,,0,,,75,110
16200,note_on,0,0,1,,,,,,,,,0,,,83,0
16200,note_on,0,0,1,,,,,,,,,0,,,84,110
16200,note_on,15,0,4,,,,,,,,,0,,,67,100
16200,note_on,60,0,1,,,,,,,,,0,,,75,0
16215,note_on,0,0,4,,,,,,,,,0,,,67,0
16215,note_on,15,0,4,,,,,,,,,0,,,55,0
16230,note_on,0,0,4,,,,,,,,,0,,,48,100
16230,note_on,15,0,4,,,,,,,,,0,,,60,100
16245,note_on,15,0,4,,,,,,,,,0,,,48,0
16245,note_on,0,0,4,,,,,,,,,0,,,60,0
16260,note_on,0,0,1,,,,,,,,,0,,,75,0
16260,note_on,0,0,1,,,,,,,,,0,,,72,0
16260,note_on,0,0,4,,,,,,,,,0,,,53,100
16260,note_on,15,0,4,,,,,,,,,0,,,65,100
16260,note_on,60,0,1,,,,,,,,,0,,,84,0
16275,note_on,15,0,4,,,,,,,,,0,,,53,0
16275,note_on,0,0,4,,,,,,,,,0,,,65,0
16290,note_on,0,0,4,,,,,,,,,0,,,52,100
16290,note_on,15,0,4,,,,,,,,,0,,,64,100
16305,note_on,0,0,4,,,,,,,,,0,,,64,0
16305,note_on,15,0,4,,,,,,,,,0,,,52,0
16320,note_on,15,0,4,,,,,,,,,0,,,65,100
16320,note_on,0,0,1,,,,,,,,,0,,,74,110
16320,note_on,0,0,1,,,,,,,,,0,,,80,110
16320,note_on,60,0,1,,,,,,,,,0,,,86,110
16320,note_on,0,0,4,,,,,,,,,0,,,53,100
16335,note_on,0,0,4,,,,,,,,,0,,,65,0
16335,note_on,15,0,4,,,,,,,,,0,,,53,0
16350,note_on,15,0,4,,,,,,,,,0,,,59,100
16350,note_on,0,0,4,,,,,,,,,0,,,47,100
16365,note_on,15,0,4,,,,,,,,,0,,,47,0
16365,note_on,0,0,4,,,,,,,,,0,,,59,0
16380,note_on,0,0,1,,,,,,,,,0,,,91,110
16380,note_on,0,0,4,,,,,,,,,0,,,51,100
16380,note_on,0,0,1,,,,,,,,,0,,,80,0
16380,note_on,0,0,1,,,,,,,,,0,,,79,110
16380,note_on,60,0,1,,,,,,,,,0,,,74,0
16380,note_on,15,0,4,,,,,,,,,0,,,63,100
16380,note_on,0,0,1,,,,,,,,,0,,,86,0
16380,note_on,0,0,1,,,,,,,,,0,,,86,110
16395,note_on,0,0,4,,,,,,,,,0,,,63,0
16395,note_on,15,0,4,,,,,,,,,0,,,51,0
16410,note_on,0,0,4,,,,,,,,,0,,,50,100
16410,note_on,15,0,4,,,,,,,,,0,,,62,100
16425,note_on,15,0,4,,,,,,,,,0,,,50,0
16425,note_on,0,0,4,,,,,,,,,0,,,62,0
16440,note_on,0,0,1,,,,,,,,,0,,,86,0
16440,note_on,0,0,1,,,,,,,,,0,,,91,0
16440,note_on,0,0,1,,,,,,,,,0,,,79,110
16440,note_on,60,0,1,,,,,,,,,0,,,79,0
16440,note_on,0,0,1,,,,,,,,,0,,,84,110
16440,note_on,15,0,4,,,,,,,,,0,,,63,100
16440,note_on,0,0,1,,,,,,,,,0,,,72,110
16440,note_on,0,0,4,,,,,,,,,0,,,51,100
16455,note_on,0,0,4,,,,,,,,,0,,,63,0
16455,note_on,15,0,4,,,,,,,,,0,,,51,0
16470,note_on,15,0,4,,,,,,,,,0,,,60,100
16470,note_on,0,0,4,,,,,,,,,0,,,48,100
16485,note_on,15,0,4,,,,,,,,,0,,,48,0
16485,note_on,0,0,4,,,,,,,,,0,,,60,0
16500,note_on,60,0,1,,,,,,,,,0,,,84,0
16500,note_on,0,0,1,,,,,,,,,0,,,79,0
16500,note_on,0,0,4,,,,,,,,,0,,,46,100
16500,note_on,15,0,4,,,,,,,,,0,,,58,100
16500,note_on,0,0,1,,,,,,,,,0,,,72,0
16515,note_on,15,0,4,,,,,,,,,0,,,46,0
16515,note_on,0,0,4,,,,,,,,,0,,,58,0
16530,note_on,0,0,4,,,,,,,,,0,,,44,100
16530,note_on,15,0,4,,,,,,,,,0,,,56,100
16545,note_on,15,0,4,,,,,,,,,0,,,44,0
16545,note_on,0,0,4,,,,,,,,,0,,,56,0
16560,note_on,60,0,1,,,,,,,,,0,,,92,110
16560,note_on,0,0,1,,,,,,,,,0,,,80,110
16560,note_on,0,0,4,,,,,,,,,0,,,43,100
16560,note_on,15,0,4,,,,,,,,,0,,,55,100
16560,note_on,0,0,1,,,,,,,,,0,,,84,110
16575,note_on,15,0,4,,,,,,,,,0,,,43,0
16575,note_on,0,0,4,,,,,,,,,0,,,55,0
16590,note_on,15,0,4,,,,,,,,,0,,,53,100
16590,note_on,0,0,4,,,,,,,,,0,,,41,100
16605,note_on,0,0,4,,,,,,,,,0,,,53,0
16605,note_on,15,0,4,,,,,,,,,0,,,41,0
16620,note_on,15,0,4,,,,,,,,,0,,,51,100
16620,note_on,0,0,1,,,,,,,,,0,,,91,110
16620,note_on,0,0,1,,,,,,,,,0,,,79,110
16620,note_on,0,0,1,,,,,,,,,0,,,84,110
16620,note_on,0,0,4,,,,,,,,,0,,,39,100
16620,note_on,60,0,1,,,,,,,,,0,,,80,0
16620,note_on,0,0,1,,,,,,,,,0,,,92,0
16620,note_on,0,0,1,,,,,,,,,0,,,84,0
16635,note_on,0,0,4,,,,,,,,,0,,,51,0
16635,note_on,15,0,4,,,,,,,,,0,,,39,0
16650,note_on,15,0,4,,,,,,,,,0,,,55,100
16650,note_on,0,0,4,,,,,,,,,0,,,43,100
16665,note_on,15,0,4,,,,,,,,,0,,,43,0
16665,note_on,0,0,4,,,,,,,,,0,,,55,0
16680,note_on,0,0,1,,,,,,,,,0,,,91,110
16680,note_on,60,0,1,,,,,,,,,0,,,79,0
16680,note_on,0,0,1,,,,,,,,,0,,,83,110
16680,note_on,0,0,1,,,,,,,,,0,,,91,0
16680,note_on,0,0,4,,,,,,,,,0,,,41,100
16680,note_on,0,0,1,,,,,,,,,0,,,95,110
16680,note_on,0,0,1,,,,,,,,,0,,,84,0
16680,note_on,15,0,4,,,,,,,,,0,,,53,100
16695,note_on,15,0,4,,,,,,,,,0,,,41,0
16695,note_on,0,0,4,,,,,,,,,0,,,53,0
16710,note_on,15,0,4,,,,,,,,,0,,,50,100
16710,note_on,0,0,4,,,,,,,,,0,,,38,100
16725,note_on,15,0,4,,,,,,,,,0,,,38,0
16725,note_on,0,0,4,,,,,,,,,0,,,50,0
16740,note_on,0,0,1,,,,,,,,,0,,,96,100
16740,note_on,0,0,1,,,,,,,,,0,,,95,0
16740,note_on,0,0,1,,,,,,,,,0,,,91,0
16740,note_on,0,0,1,,,,,,,,,0,,,87,100
16740,note_on,0,0,1,,,,,,,,,0,,,84,100
16740,note_on,60,0,1,,,,,,,,,0,,,83,0
16740,note_on,15,0,4,,,,,,,,,0,,,35,100
16740,note_on,0,0,4,,,,,,,,,0,,,47,100
16770,note_on,0,0,4,,,,,,,,,0,,,35,0
16770,note_on,0,0,4,,,,,,,,,0,,,36,100
16770,note_on,30,0,4,,,,,,,,,0,,,47,0
16770,note_on,0,0,4,,,,,,,,,0,,,48,100
16785,note_on,0,0,1,,,,,,,,,0,,,96,0
16785,note_on,0,0,1,,,,,,,,,0,,,87,0
16785,note_on,45,0,1,,,,,,,,,0,,,84,0
16800,note_on,0,0,4,,,,,,,,,0,,,60,100
16800,note_on,0,0,4,,,,,,,,,0,,,55,100
16800,note_on,0,0,4,,,,,,,,,0,,,51,100
16800,note_on,0,0,4,,,,,,,,,0,,,36,0
16800,note_on,0,0,1,,,,,,,,,0,,,63,100
16800,note_on,30,0,4,,,,,,,,,0,,,48,0
16800,note_on,0,0,1,,,,,,,,,0,,,67,100
16800,note_on,15,0,1,,,,,,,,,0,,,72,100
16830,note_on,0,0,4,,,,,,,,,0,,,55,0
16830,note_on,30,0,4,,,,,,,,,0,,,51,0
16830,note_on,0,0,1,,,,,,,,,0,,,67,0
16830,note_on,0,0,4,,,,,,,,,0,,,60,0
16830,note_on,0,0,1,,,,,,,,,0,,,72,0
16830,note_on,30,0,1,,,,,,,,,0,,,63,0
16860,note_on,0,0,4,,,,,,,,,0,,,46,100
16860,note_on,30,0,1,,,,,,,,,0,,,58,100
16860,note_on,30,0,4,,,,,,,,,0,,,34,100
16860,note_on,0,0,1,,,,,,,,,0,,,70,100
16860,control_change,14805,0,5,,,,,,,,,0,64,127,,
16920,note_on,0,0,1,,,,,,,,,0,,,65,101
16920,note_on,60,0,1,,,,,,,,,0,,,62,101
16920,note_on,60,0,4,,,,,,,,,0,,,41,101
16920,note_on,0,0,4,,,,,,,,,0,,,44,101
16950,note_on,0,0,1,,,,,,,,,0,,,58,102
16950,note_on,0,0,1,,,,,,,,,0,,,70,102
16950,note_on,0,0,4,,,,,,,,,0,,,34,102
16950,note_on,0,0,4,,,,,,,,,0,,,34,0
16950,note_on,30,0,4,,,,,,,,,0,,,46,0
16950,note_on,30,0,1,,,,,,,,,0,,,70,0
16950,note_on,0,0,1,,,,,,,,,0,,,58,0
16950,note_on,0,0,4,,,,,,,,,0,,,46,102
16980,note_on,30,0,1,,,,,,,,,0,,,70,0
16980,note_on,30,0,4,,,,,,,,,0,,,46,0
16980,control_change,120,0,5,,,,,,,,,0,64,0,,
16980,note_on,0,0,4,,,,,,,,,0,,,34,102
16980,note_on,0,0,1,,,,,,,,,0,,,70,102
16980,note_on,0,0,1,,,,,,,,,0,,,65,0
16980,note_on,0,0,1,,,,,,,,,0,,,62,0
16980,note_on,0,0,1,,,,,,,,,0,,,58,102
16980,note_on,0,0,4,,,,,,,,,0,,,34,0
16980,note_on,0,0,1,,,,,,,,,0,,,58,0
16980,note_on,0,0,4,,,,,,,,,0,,,41,0
16980,note_on,0,0,4,,,,,,,,,0,,,44,0
16980,note_on,0,0,4,,,,,,,,,0,,,46,102
17010,note_on,30,0,4,,,,,,,,,0,,,34,0
17010,note_on,0,0,1,,,,,,,,,0,,,70,0
17010,note_on,0,0,1,,,,,,,,,0,,,69,103
17010,note_on,0,0,1,,,,,,,,,0,,,57,103
17010,note_on,30,0,1,,,,,,,,,0,,,58,0
17010,note_on,0,0,4,,,,,,,,,0,,,46,0
17010,note_on,0,0,4,,,,,,,,,0,,,33,103
17010,note_on,0,0,4,,,,,,,,,0,,,45,103
17040,note_on,0,0,1,,,,,,,,,0,,,70,104
17040,note_on,0,0,1,,,,,,,,,0,,,69,0
17040,note_on,0,0,1,,,,,,,,,0,,,58,104
17040,note_on,30,0,1,,,,,,,,,0,,,57,0
17040,note_on,30,0,4,,,,,,,,,0,,,33,0
17040,note_on,0,0,4,,,,,,,,,0,,,34,104
17040,note_on,0,0,4,,,,,,,,,0,,,46,104
17040,note_on,0,0,4,,,,,,,,,0,,,45,0
17070,note_on,30,0,4,,,,,,,,,0,,,34,0
17070,note_on,0,0,4,,,,,,,,,0,,,50,105
17070,note_on,0,0,4,,,,,,,,,0,,,46,0
17070,note_on,0,0,4,,,,,,,,,0,,,38,105
17070,note_on,0,0,1,,,,,,,,,0,,,62,105
17070,note_on,0,0,1,,,,,,,,,0,,,70,0
17070,note_on,0,0,1,,,,,,,,,0,,,74,105
17070,note_on,30,0,1,,,,,,,,,0,,,58,0
17100,note_on,0,0,4,,,,,,,,,0,,,50,0
17100,note_on,0,0,1,,,,,,,,,0,,,77,105
17100,note_on,0,0,1,,,,,,,,,0,,,74,0
17100,note_on,0,0,1,,,,,,,,,0,,,65,105
17100,note_on,30,0,1,,,,,,,,,0,,,62,0
17100,note_on,0,0,4,,,,,,,,,0,,,53,105
17100,note_on,30,0,4,,,,,,,,,0,,,38,0
17100,note_on,0,0,4,,,,,,,,,0,,,41,105
17130,note_on,0,0,4,,,,,,,,,0,,,46,106
17130,note_on,0,0,4,,,,,,,,,0,,,53,0
17130,note_on,0,0,4,,,,,,,,,0,,,58,106
17130,note_on,30,0,1,,,,,,,,,0,,,65,0
17130,note_on,0,0,1,,,,,,,,,0,,,70,106
17130,note_on,30,0,4,,,,,,,,,0,,,41,0
17130,note_on,0,0,1,,,,,,,,,0,,,82,106
17130,note_on,0,0,1,,,,,,,,,0,,,77,0
17160,note_on,0,0,1,,,,,,,,,0,,,86,107
17160,note_on,30,0,4,,,,,,,,,0,,,46,0
17160,note_on,30,0,1,,,,,,,,,0,,,70,0
17160,note_on,0,0,4,,,,,,,,,0,,,62,107
17160,note_on,0,0,4,,,,,,,,,0,,,58,0
17160,note_on,0,0,4,,,,,,,,,0,,,50,107
17160,note_on,0,0,1,,,,,,,,,0,,,74,107
17160,note_on,0,0,1,,,,,,,,,0,,,82,0
17190,note_on,30,0,1,,,,,,,,,0,,,74,0
17190,note_on,0,0,4,,,,,,,,,0,,,62,0
17190,note_on,0,0,4,,,,,,,,,0,,,65,108
17190,note_on,0,0,1,,,,,,,,,0,,,77,108
17190,note_on,0,0,1,,,,,,,,,0,,,86,0
17190,note_on,0,0,1,,,,,,,,,0,,,89,108
17190,note_on,0,0,4,,,,,,,,,0,,,53,108
17190,note_on,30,0,4,,,,,,,,,0,,,50,0
17220,note_on,0,0,1,,,,,,,,,0,,,92,108
17220,note_on,30,0,1,,,,,,,,,0,,,77,0
17220,note_on,0,0,1,,,,,,,,,0,,,89,0
17220,note_on,0,0,4,,,,,,,,,0,,,68,108
17220,note_on,0,0,4,,,,,,,,,0,,,65,0
17220,note_on,30,0,4,,,,,,,,,0,,,53,0
17220,note_on,0,0,4,,,,,,,,,0,,,56,108
17220,note_on,0,0,1,,,,,,,,,0,,,80,108
17250,note_on,30,0,1,,,,,,,,,0,,,80,0
17250,note_on,0,0,4,,,,,,,,,0,,,53,109
17250,note_on,0,0,4,,,,,,,,,0,,,65,109
17250,note_on,30,0,4,,,,,,,,,0,,,56,0
17250,note_on,0,0,1,,,,,,,,,0,,,89,109
17250,note_on,0,0,4,,,,,,,,,0,,,68,0
17250,note_on,0,0,1,,,,,,,,,0,,,77,109
17250,note_on,0,0,1,,,,,,,,,0,,,92,0
17280,note_on,0,0,4,,,,,,,,,0,,,50,110
17280,note_on,0,0,4,,,,,,,,,0,,,56,110
17280,note_on,0,0,4,,,,,,,,,0,,,58,110
17280,note_on,0,0,4,,,,,,,,,0,,,62,110
17280,note_on,0,0,4,,,,,,,,,0,,,65,0
17280,note_on,0,0,1,,,,,,,,,0,,,74,110
17280,note_on,0,0,1,,,,,,,,,0,,,77,110
17280,note_on,30,0,1,,,,,,,,,0,,,77,0
17280,note_on,30,0,4,,,,,,,,,0,,,53,0
17280,note_on,0,0,1,,,,,,,,,0,,,86,110
17280,note_on,0,0,1,,,,,,,,,0,,,89,0
17310,note_on,30,0,4,,,,,,,,,0,,,58,0
17310,note_on,30,0,1,,,,,,,,,0,,,74,0
17310,note_on,0,0,1,,,,,,,,,0,,,86,0
17310,note_on,0,0,4,,,,,,,,,0,,,50,0
17310,note_on,0,0,4,,,,,,,,,0,,,56,0
17310,note_on,0,0,4,,,,,,,,,0,,,62,0
17310,note_on,0,0,1,,,,,,,,,0,,,77,0
17340,note_on,0,0,4,,,,,,,,,0,,,46,127
17340,note_on,0,0,1,,,,,,,,,0,,,70,127
17340,control_change,360,0,5,,,,,,,,,0,64,127,,
17340,note_on,30,0,4,,,,,,,,,0,,,34,127
17340,note_on,30,0,1,,,,,,,,,0,,,58,127
17400,note_on,0,0,1,,,,,,,,,0,,,65,113
17400,note_on,60,0,1,,,,,,,,,0,,,68,113
17400,note_on,60,0,4,,,,,,,,,0,,,41,113
17400,note_on,0,0,4,,,,,,,,,0,,,44,113
17430,note_on,0,0,4,,,,,,,,,0,,,34,0
17430,note_on,30,0,4,,,,,,,,,0,,,46,0
17430,note_on,30,0,1,,,,,,,,,0,,,70,0
17430,note_on,0,0,1,,,,,,,,,0,,,70,114
17430,note_on,0,0,1,,,,,,,,,0,,,58,114
17430,note_on,0,0,1,,,,,,,,,0,,,58,0
17430,note_on,0,0,4,,,,,,,,,0,,,34,114
17430,note_on,0,0,4,,,,,,,,,0,,,46,114
17460,control_change,120,0,5,,,,,,,,,0,64,0,,
17460,note_on,30,0,1,,,,,,,,,0,,,70,0
17460,note_on,0,0,4,,,,,,,,,0,,,41,0
17460,note_on,0,0,4,,,,,,,,,0,,,44,0
17460,note_on,0,0,4,,,,,,,,,0,,,46,114
17460,note_on,30,0,4,,,,,,,,,0,,,46,0
17460,note_on,0,0,4,,,,,,,,,0,,,34,0
17460,note_on,0,0,1,,,,,,,,,0,,,70,114
17460,note_on,0,0,4,,,,,,,,,0,,,34,114
17460,note_on,0,0,1,,,,,,,,,0,,,65,0
17460,note_on,0,0,1,,,,,,,,,0,,,58,114
17460,note_on,0,0,1,,,,,,,,,0,,,58,0
17460,note_on,0,0,1,,,,,,,,,0,,,68,0
17490,note_on,0,0,1,,,,,,,,,0,,,57,115
17490,note_on,30,0,4,,,,,,,,,0,,,46,0
17490,note_on,0,0,4,,,,,,,,,0,,,33,115
17490,note_on,0,0,1,,,,,,,,,0,,,58,0
17490,note_on,0,0,1,,,,,,,,,0,,,69,115
17490,note_on,0,0,4,,,,,,,,,0,,,45,115
17490,note_on,0,0,4,,,,,,,,,0,,,34,0
17490,note_on,30,0,1,,,,,,,,,0,,,70,0
17520,note_on,0,0,1,,,,,,,,,0,,,70,116
17520,note_on,0,0,4,,,,,,,,,0,,,46,116
17520,note_on,0,0,4,,,,,,,,,0,,,34,116
17520,note_on,0,0,4,,,,,,,,,0,,,33,0
17520,note_on,30,0,1,,,,,,,,,0,,,69,0
17520,note_on,0,0,1,,,,,,,,,0,,,57,0
17520,note_on,30,0,4,,,,,,,,,0,,,45,0
17520,note_on,0,0,1,,,,,,,,,0,,,58,116
17550,note_on,0,0,4,,,,,,,,,0,,,50,117
17550,note_on,30,0,4,,,,,,,,,0,,,46,0
17550,note_on,0,0,1,,,,,,,,,0,,,62,117
17550,note_on,0,0,1,,,,,,,,,0,,,58,0
17550,note_on,30,0,1,,,,,,,,,0,,,70,0
17550,note_on,0,0,4,,,,,,,,,0,,,38,117
17550,note_on,0,0,1,,,,,,,,,0,,,74,117
17550,note_on,0,0,4,,,,,,,,,0,,,34,0
17580,note_on,0,0,4,,,,,,,,,0,,,38,0
17580,note_on,0,0,4,,,,,,,,,0,,,41,117
17580,note_on,30,0,1,,,,,,,,,0,,,74,0
17580,note_on,0,0,4,,,,,,,,,0,,,53,117
17580,note_on,0,0,1,,,,,,,,,0,,,77,117
17580,note_on,0,0,1,,,,,,,,,0,,,65,117
17580,note_on,30,0,4,,,,,,,,,0,,,50,0
17580,note_on,0,0,1,,,,,,,,,0,,,62,0
17610,note_on,30,0,4,,,,,,,,,0,,,53,0
17610,note_on,0,0,1,,,,,,,,,0,,,82,118
17610,note_on,0,0,1,,,,,,,,,0,,,70,118
17610,note_on,0,0,1,,,,,,,,,0,,,65,0
17610,note_on,0,0,4,,,,,,,,,0,,,46,118
17610,note_on,0,0,4,,,,,,,,,0,,,58,118
17610,note_on,30,0,1,,,,,,,,,0,,,77,0
17610,note_on,0,0,4,,,,,,,,,0,,,41,0
17640,note_on,0,0,4,,,,,,,,,0,,,62,119
17640,note_on,0,0,1,,,,,,,,,0,,,86,119
17640,note_on,0,0,1,,,,,,,,,0,,,74,119
17640,note_on,0,0,1,,,,,,,,,0,,,70,0
17640,note_on,0,0,4,,,,,,,,,0,,,50,119
17640,note_on,30,0,4,,,,,,,,,0,,,58,0
17640,note_on,0,0,4,,,,,,,,,0,,,46,0
17640,note_on,30,0,1,,,,,,,,,0,,,82,0
17670,note_on,0,0,4,,,,,,,,,0,,,65,120
17670,note_on,30,0,4,,,,,,,,,0,,,62,0
17670,note_on,0,0,1,,,,,,,,,0,,,89,120
17670,note_on,0,0,1,,,,,,,,,0,,,77,120
17670,note_on,30,0,1,,,,,,,,,0,,,86,0
17670,note_on,0,0,1,,,,,,,,,0,,,74,0
17670,note_on,0,0,4,,,,,,,,,0,,,53,120
17670,note_on,0,0,4,,,,,,,,,0,,,50,0
17700,note_on,30,0,4,,,,,,,,,0,,,65,0
17700,note_on,0,0,1,,,,,,,,,0,,,92,120
17700,note_on,30,0,1,,,,,,,,,0,,,89,0
17700,note_on,0,0,1,,,,,,,,,0,,,80,120
17700,note_on,0,0,1,,,,,,,,,0,,,77,0
17700,note_on,0,0,4,,,,,,,,,0,,,56,120
17700,note_on,0,0,4,,,,,,,,,0,,,68,120
17700,note_on,0,0,4,,,,,,,,,0,,,53,0
17730,note_on,0,0,4,,,,,,,,,0,,,53,120
17730,note_on,0,0,4,,,,,,,,,0,,,65,120
17730,note_on,30,0,4,,,,,,,,,0,,,56,0
17730,note_on,30,0,1,,,,,,,,,0,,,80,0
17730,note_on,0,0,4,,,,,,,,,0,,,68,0
17730,note_on,0,0,1,,,,,,,,,0,,,77,120
17730,note_on,0,0,1,,,,,,,,,0,,,89,120
17730,note_on,0,0,1,,,,,,,,,0,,,92,0
17760,note_on,30,0,1,,,,,,,,,0,,,77,0
17760,note_on,0,0,4,,,,,,,,,0,,,59,120
17760,note_on,0,0,1,,,,,,,,,0,,,71,120
17760,note_on,0,0,1,,,,,,,,,0,,,74,120
17760,note_on,0,0,1,,,,,,,,,0,,,89,0
17760,note_on,0,0,1,,,,,,,,,0,,,83,120
17760,note_on,0,0,4,,,,,,,,,0,,,56,120
17760,note_on,0,0,4,,,,,,,,,0,,,53,120
17760,note_on,0,0,4,,,,,,,,,0,,,53,0
17760,note_on,0,0,4,,,,,,,,,0,,,47,120
17760,note_on,30,0,4,,,,,,,,,0,,,65,0
17790,note_on,0,0,4,,,,,,,,,0,,,59,0
17790,note_on,0,0,4,,,,,,,,,0,,,56,0
17790,note_on,0,0,4,,,,,,,,,0,,,53,0
17790,note_on,0,0,1,,,,,,,,,0,,,74,0
17790,note_on,30,0,4,,,,,,,,,0,,,47,0
17790,note_on,0,0,1,,,,,,,,,0,,,83,0
17790,note_on,30,0,1,,,,,,,,,0,,,71,0
17820,note_on,30,0,1,,,,,,,,,0,,,79,127
17820,note_on,0,0,1,,,,,,,,,0,,,67,127
17820,note_on,0,0,4,,,,,,,,,0,,,43,127
17820,note_on,30,0,4,,,,,,,,,0,,,55,127
17910,note_on,0,0,1,,,,,,,,,0,,,75,120
17910,note_on,0,0,1,,,,,,,,,0,,,63,120
17910,note_on,0,0,1,,,,,,,,,0,,,79,0
17910,note_on,90,0,1,,,,,,,,,0,,,67,0
17910,note_on,90,0,4,,,,,,,,,0,,,43,0
17910,note_on,0,0,4,,,,,,,,,0,,,51,120
17910,note_on,0,0,4,,,,,,,,,0,,,55,0
17910,note_on,0,0,4,,,,,,,,,0,,,39,120
17940,note_on,30,0,1,,,,,,,,,0,,,63,0
17940,note_on,0,0,4,,,,,,,,,0,,,36,120
17940,note_on,0,0,4,,,,,,,,,0,,,48,120
17940,note_on,0,0,1,,,,,,,,,0,,,75,0
17940,note_on,0,0,1,,,,,,,,,0,,,72,120
17940,note_on,0,0,1,,,,,,,,,0,,,60,120
17940,note_on,0,0,4,,,,,,,,,0,,,51,0
17940,note_on,30,0,4,,,,,,,,,0,,,39,0
17970,note_on,0,0,1,,,,,,,,,0,,,72,0
17970,note_on,0,0,1,,,,,,,,,0,,,59,120
17970,note_on,30,0,4,,,,,,,,,0,,,36,0
17970,note_on,0,0,1,,,,,,,,,0,,,71,120
17970,note_on,0,0,4,,,,,,,,,0,,,47,120
17970,note_on,30,0,1,,,,,,,,,0,,,60,0
17970,note_on,0,0,4,,,,,,,,,0,,,35,120
17970,note_on,0,0,4,,,,,,,,,0,,,48,0
18000,note_on,0,0,4,,,,,,,,,0,,,47,0
18000,note_on,30,0,1,,,,,,,,,0,,,59,0
18000,note_on,0,0,1,,,,,,,,,0,,,67,127
18000,note_on,0,0,1,,,,,,,,,0,,,71,0
18000,note_on,0,0,1,,,,,,,,,0,,,72,120
18000,note_on,30,0,4,,,,,,,,,0,,,35,0
18000,note_on,0,0,1,,,,,,,,,0,,,60,120
18000,note_on,0,0,4,,,,,,,,,0,,,39,127
18000,note_on,0,0,4,,,,,,,,,0,,,36,120
18000,note_on,0,0,4,,,,,,,,,0,,,48,120
18000,note_on,0,0,4,,,,,,,,,0,,,43,127
18000,note_on,0,0,1,,,,,,,,,0,,,63,127
18030,note_on,0,0,1,,,,,,,,,0,,,72,0
18030,note_on,0,0,1,,,,,,,,,0,,,74,120
18030,note_on,0,0,1,,,,,,,,,0,,,62,120
18030,note_on,0,0,4,,,,,,,,,0,,,50,120
18030,note_on,30,0,4,,,,,,,,,0,,,36,0
18030,note_on,0,0,4,,,,,,,,,0,,,38,120
18030,note_on,0,0,4,,,,,,,,,0,,,48,0
18030,note_on,30,0,1,,,,,,,,,0,,,60,0
18060,note_on,0,0,4,,,,,,,,,0,,,50,0
18060,note_on,0,0,4,,,,,,,,,0,,,48,127
18060,note_on,0,0,4,,,,,,,,,0,,,43,127
18060,note_on,0,0,1,,,,,,,,,0,,,75,120
18060,note_on,0,0,1,,,,,,,,,0,,,74,0
18060,note_on,30,0,1,,,,,,,,,0,,,62,0
18060,note_on,0,0,1,,,,,,,,,0,,,67,127
18060,note_on,0,0,1,,,,,,,,,0,,,67,0
18060,note_on,0,0,1,,,,,,,,,0,,,63,120
18060,note_on,0,0,1,,,,,,,,,0,,,63,0
18060,note_on,0,0,4,,,,,,,,,0,,,39,0
18060,note_on,0,0,4,,,,,,,,,0,,,39,120
18060,note_on,0,0,4,,,,,,,,,0,,,43,0
18060,note_on,30,0,4,,,,,,,,,0,,,38,0
18060,note_on,0,0,1,,,,,,,,,0,,,72,127
18060,note_on,0,0,4,,,,,,,,,0,,,51,120
18090,note_on,0,0,1,,,,,,,,,0,,,62,120
18090,note_on,0,0,1,,,,,,,,,0,,,74,120
18090,note_on,0,0,1,,,,,,,,,0,,,75,0
18090,note_on,30,0,1,,,,,,,,,0,,,63,0
18090,note_on,0,0,4,,,,,,,,,0,,,38,120
18090,note_on,0,0,4,,,,,,,,,0,,,50,120
18090,note_on,30,0,4,,,,,,,,,0,,,39,0
18090,note_on,0,0,4,,,,,,,,,0,,,51,0
18120,note_on,0,0,1,,,,,,,,,0,,,75,120
18120,note_on,30,0,1,,,,,,,,,0,,,62,0
18120,note_on,0,0,1,,,,,,,,,0,,,74,0
18120,note_on,0,0,1,,,,,,,,,0,,,63,120
18120,note_on,0,0,4,,,,,,,,,0,,,39,120
18120,note_on,30,0,4,,,,,,,,,0,,,38,0
18120,note_on,0,0,4,,,,,,,,,0,,,50,0
18120,note_on,0,0,4,,,,,,,,,0,,,51,120
18150,note_on,0,0,1,,,,,,,,,0,,,75,0
18150,note_on,0,0,1,,,,,,,,,0,,,77,120
18150,note_on,0,0,4,,,,,,,,,0,,,41,120
18150,note_on,0,0,4,,,,,,,,,0,,,53,120
18150,note_on,0,0,1,,,,,,,,,0,,,65,120
18150,note_on,30,0,4,,,,,,,,,0,,,39,0
18150,note_on,30,0,1,,,,,,,,,0,,,63,0
18150,note_on,0,0,4,,,,,,,,,0,,,51,0
18180,note_on,0,0,4,,,,,,,,,0,,,55,120
18180,note_on,0,0,4,,,,,,,,,0,,,53,0
18180,note_on,0,0,4,,,,,,,,,0,,,50,127
18180,note_on,0,0,4,,,,,,,,,0,,,48,127
18180,note_on,0,0,4,,,,,,,,,0,,,43,0
18180,note_on,0,0,1,,,,,,,,,0,,,67,120
18180,note_on,0,0,4,,,,,,,,,0,,,48,0
18180,note_on,0,0,1,,,,,,,,,0,,,72,0
18180,note_on,0,0,1,,,,,,,,,0,,,72,127
18180,note_on,0,0,1,,,,,,,,,0,,,74,127
18180,note_on,0,0,1,,,,,,,,,0,,,77,0
18180,note_on,0,0,1,,,,,,,,,0,,,79,120
18180,note_on,30,0,4,,,,,,,,,0,,,41,0
18180,note_on,30,0,1,,,,,,,,,0,,,65,0
18180,note_on,0,0,1,,,,,,,,,0,,,67,0
18180,note_on,0,0,4,,,,,,,,,0,,,43,120
18210,note_on,0,0,1,,,,,,,,,0,,,66,120
18210,note_on,0,0,1,,,,,,,,,0,,,78,120
18210,note_on,0,0,1,,,,,,,,,0,,,79,0
18210,note_on,0,0,4,,,,,,,,,0,,,42,120
18210,note_on,0,0,4,,,,,,,,,0,,,54,120
18210,note_on,30,0,1,,,,,,,,,0,,,67,0
18210,note_on,30,0,4,,,,,,,,,0,,,43,0
18210,note_on,0,0,4,,,,,,,,,0,,,55,0
18240,note_on,0,0,4,,,,,,,,,0,,,47,127
18240,note_on,0,0,1,,,,,,,,,0,,,74,127
18240,note_on,0,0,1,,,,,,,,,0,,,74,0
18240,note_on,0,0,1,,,,,,,,,0,,,72,0
18240,note_on,0,0,1,,,,,,,,,0,,,71,127
18240,note_on,0,0,1,,,,,,,,,0,,,67,120
18240,note_on,30,0,1,,,,,,,,,0,,,66,0
18240,note_on,0,0,4,,,,,,,,,0,,,43,120
18240,note_on,30,0,4,,,,,,,,,0,,,42,0
18240,note_on,0,0,1,,,,,,,,,0,,,78,0
18240,note_on,0,0,1,,,,,,,,,0,,,79,120
18240,note_on,0,0,4,,,,,,,,,0,,,55,120
18240,note_on,0,0,4,,,,,,,,,0,,,54,0
18240,note_on,0,0,4,,,,,,,,,0,,,50,127
18240,note_on,0,0,4,,,,,,,,,0,,,50,0
18240,note_on,0,0,4,,,,,,,,,0,,,48,0
18270,note_on,0,0,1,,,,,,,,,0,,,81,120
18270,note_on,30,0,4,,,,,,,,,0,,,43,0
18270,note_on,0,0,1,,,,,,,,,0,,,69,120
18270,note_on,0,0,4,,,,,,,,,0,,,57,120
18270,note_on,30,0,1,,,,,,,,,0,,,67,0
18270,note_on,0,0,4,,,,,,,,,0,,,55,0
18270,note_on,0,0,4,,,,,,,,,0,,,45,120
18270,note_on,0,0,1,,,,,,,,,0,,,79,0
18300,note_on,0,0,1,,,,,,,,,0,,,71,120
18300,note_on,0,0,1,,,,,,,,,0,,,74,0
18300,note_on,0,0,1,,,,,,,,,0,,,71,0
18300,note_on,30,0,1,,,,,,,,,0,,,69,0
18300,note_on,30,0,4,,,,,,,,,0,,,45,0
18300,note_on,0,0,4,,,,,,,,,0,,,59,120
18300,note_on,0,0,4,,,,,,,,,0,,,57,0
18300,note_on,0,0,4,,,,,,,,,0,,,50,0
18300,note_on,0,0,4,,,,,,,,,0,,,47,120
18300,note_on,0,0,1,,,,,,,,,0,,,81,0
18300,note_on,0,0,1,,,,,,,,,0,,,83,120
18300,note_on,0,0,4,,,,,,,,,0,,,47,0
18330,note_on,0,0,1,,,,,,,,,0,,,83,0
18330,note_on,30,0,4,,,,,,,,,0,,,47,0
18330,note_on,0,0,4,,,,,,,,,0,,,45,120
18330,note_on,0,0,4,,,,,,,,,0,,,57,120
18330,note_on,0,0,4,,,,,,,,,0,,,59,0
18330,note_on,0,0,1,,,,,,,,,0,,,69,120
18330,note_on,30,0,1,,,,,,,,,0,,,71,0
18330,note_on,0,0,1,,,,,,,,,0,,,81,120
18360,note_on,0,0,4,,,,,,,,,0,,,59,120
18360,note_on,0,0,4,,,,,,,,,0,,,57,0
18360,note_on,0,0,4,,,,,,,,,0,,,50,127
18360,note_on,0,0,4,,,,,,,,,0,,,47,120
18360,note_on,0,0,4,,,,,,,,,0,,,53,127
18360,note_on,0,0,1,,,,,,,,,0,,,74,127
18360,note_on,0,0,1,,,,,,,,,0,,,77,127
18360,note_on,0,0,1,,,,,,,,,0,,,81,0
18360,note_on,0,0,1,,,,,,,,,0,,,83,120
18360,note_on,30,0,4,,,,,,,,,0,,,45,0
18360,note_on,0,0,1,,,,,,,,,0,,,71,120
18360,note_on,30,0,1,,,,,,,,,0,,,69,0
18390,note_on,0,0,4,,,,,,,,,0,,,43,120
18390,note_on,30,0,1,,,,,,,,,0,,,71,0
18390,note_on,0,0,4,,,,,,,,,0,,,59,0
18390,note_on,30,0,4,,,,,,,,,0,,,47,0
18390,note_on,0,0,1,,,,,,,,,0,,,67,120
18390,note_on,0,0,1,,,,,,,,,0,,,79,120
18390,note_on,0,0,1,,,,,,,,,0,,,83,0
18390,note_on,0,0,4,,,,,,,,,0,,,55,120
18420,note_on,30,0,1,,,,,,,,,0,,,67,0
18420,note_on,0,0,4,,,,,,,,,0,,,48,120
18420,note_on,0,0,4,,,,,,,,,0,,,50,0
18420,note_on,0,0,1,,,,,,,,,0,,,75,127
18420,note_on,0,0,4,,,,,,,,,0,,,51,127
18420,note_on,0,0,4,,,,,,,,,0,,,53,0
18420,note_on,0,0,4,,,,,,,,,0,,,55,0
18420,note_on,0,0,4,,,,,,,,,0,,,60,120
18420,note_on,30,0,4,,,,,,,,,0,,,43,0
18420,note_on,0,0,1,,,,,,,,,0,,,74,0
18420,note_on,0,0,1,,,,,,,,,0,,,84,120
18420,note_on,0,0,1,,,,,,,,,0,,,79,0
18420,note_on,0,0,1,,,,,,,,,0,,,72,120
18420,note_on,0,0,1,,,,,,,,,0,,,77,0
18450,note_on,0,0,1,,,,,,,,,0,,,83,120
18450,note_on,0,0,4,,,,,,,,,0,,,47,120
18450,note_on,0,0,4,,,,,,,,,0,,,59,120
18450,note_on,0,0,4,,,,,,,,,0,,,60,0
18450,note_on,30,0,1,,,,,,,,,0,,,72,0
18450,note_on,0,0,1,,,,,,,,,0,,,84,0
18450,note_on,30,0,4,,,,,,,,,0,,,48,0
18450,note_on,0,0,1,,,,,,,,,0,,,71,120
18480,note_on,0,0,4,,,,,,,,,0,,,48,120
18480,note_on,0,0,4,,,,,,,,,0,,,51,0
18480,note_on,0,0,4,,,,,,,,,0,,,51,127
18480,note_on,0,0,4,,,,,,,,,0,,,55,127
18480,note_on,0,0,4,,,,,,,,,0,,,59,0
18480,note_on,0,0,4,,,,,,,,,0,,,60,120
18480,note_on,0,0,1,,,,,,,,,0,,,72,120
18480,note_on,30,0,4,,,,,,,,,0,,,47,0
18480,note_on,0,0,1,,,,,,,,,0,,,75,0
18480,note_on,0,0,1,,,,,,,,,0,,,75,127
18480,note_on,0,0,1,,,,,,,,,0,,,79,127
18480,note_on,0,0,1,,,,,,,,,0,,,83,0
18480,note_on,30,0,1,,,,,,,,,0,,,71,0
18480,note_on,0,0,1,,,,,,,,,0,,,84,120
18510,note_on,0,0,1,,,,,,,,,0,,,74,120
18510,note_on,0,0,1,,,,,,,,,0,,,84,0
18510,note_on,30,0,4,,,,,,,,,0,,,48,0
18510,note_on,0,0,1,,,,,,,,,0,,,86,120
18510,note_on,30,0,1,,,,,,,,,0,,,72,0
18510,note_on,0,0,4,,,,,,,,,0,,,60,0
18510,note_on,0,0,4,,,,,,,,,0,,,62,120
18510,note_on,0,0,4,,,,,,,,,0,,,50,120
18540,note_on,0,0,1,,,,,,,,,0,,,79,127
18540,note_on,0,0,1,,,,,,,,,0,,,86,0
18540,note_on,0,0,1,,,,,,,,,0,,,87,120
18540,note_on,30,0,4,,,,,,,,,0,,,50,0
18540,note_on,0,0,1,,,,,,,,,0,,,79,0
18540,note_on,0,0,1,,,,,,,,,0,,,75,120
18540,note_on,0,0,1,,,,,,,,,0,,,75,0
18540,note_on,30,0,1,,,,,,,,,0,,,74,0
18540,note_on,0,0,1,,,,,,,,,0,,,84,127
18540,note_on,0,0,4,,,,,,,,,0,,,51,0
18540,note_on,0,0,4,,,,,,,,,0,,,51,120
18540,note_on,0,0,4,,,,,,,,,0,,,63,120
18540,note_on,0,0,4,,,,,,,,,0,,,55,0
18540,note_on,0,0,4,,,,,,,,,0,,,62,0
18540,note_on,0,0,4,,,,,,,,,0,,,60,127
18540,note_on,0,0,4,,,,,,,,,0,,,55,127
18570,note_on,0,0,4,,,,,,,,,0,,,50,120
18570,note_on,0,0,1,,,,,,,,,0,,,74,120
18570,note_on,0,0,1,,,,,,,,,0,,,86,120
18570,note_on,30,0,4,,,,,,,,,0,,,51,0
18570,note_on,0,0,4,,,,,,,,,0,,,62,120
18570,note_on,30,0,1,,,,,,,,,0,,,75,0
18570,note_on,0,0,1,,,,,,,,,0,,,87,0
18570,note_on,0,0,4,,,,,,,,,0,,,63,0
18600,note_on,0,0,4,,,,,,,,,0,,,62,0
18600,note_on,0,0,4,,,,,,,,,0,,,60,127
18600,note_on,0,0,4,,,,,,,,,0,,,60,0
18600,note_on,0,0,4,,,,,,,,,0,,,56,127
18600,note_on,0,0,4,,,,,,,,,0,,,63,120
18600,note_on,30,0,1,,,,,,,,,0,,,74,0
18600,note_on,0,0,1,,,,,,,,,0,,,75,120
18600,note_on,0,0,4,,,,,,,,,0,,,51,120
18600,note_on,0,0,1,,,,,,,,,0,,,87,120
18600,note_on,0,0,1,,,,,,,,,0,,,86,0
18600,note_on,30,0,4,,,,,,,,,0,,,50,0
18600,note_on,0,0,4,,,,,,,,,0,,,55,0
18600,note_on,0,0,1,,,,,,,,,0,,,80,127
18600,note_on,0,0,1,,,,,,,,,0,,,84,0
18600,note_on,0,0,1,,,,,,,,,0,,,79,0
18600,note_on,0,0,1,,,,,,,,,0,,,84,127
18630,note_on,30,0,1,,,,,,,,,0,,,75,0
18630,note_on,0,0,1,,,,,,,,,0,,,89,120
18630,note_on,0,0,1,,,,,,,,,0,,,87,0
18630,note_on,0,0,1,,,,,,,,,0,,,77,120
18630,note_on,0,0,4,,,,,,,,,0,,,53,120
18630,note_on,0,0,4,,,,,,,,,0,,,65,120
18630,note_on,30,0,4,,,,,,,,,0,,,51,0
18630,note_on,0,0,4,,,,,,,,,0,,,63,0
18660,note_on,0,0,4,,,,,,,,,0,,,65,0
18660,note_on,0,0,4,,,,,,,,,0,,,67,120
18660,note_on,0,0,4,,,,,,,,,0,,,59,120
18660,note_on,0,0,4,,,,,,,,,0,,,56,0
18660,note_on,0,0,4,,,,,,,,,0,,,55,120
18660,note_on,0,0,1,,,,,,,,,0,,,79,120
18660,note_on,0,0,1,,,,,,,,,0,,,80,0
18660,note_on,0,0,1,,,,,,,,,0,,,83,120
18660,note_on,0,0,1,,,,,,,,,0,,,84,0
18660,note_on,0,0,1,,,,,,,,,0,,,91,120
18660,note_on,0,0,4,,,,,,,,,0,,,60,0
18660,note_on,0,0,1,,,,,,,,,0,,,89,0
18660,note_on,30,0,4,,,,,,,,,0,,,53,0
18660,note_on,30,0,1,,,,,,,,,0,,,77,0
18690,note_on,0,0,1,,,,,,,,,0,,,91,0
18690,note_on,0,0,1,,,,,,,,,0,,,83,0
18690,note_on,0,0,4,,,,,,,,,0,,,67,0
18690,note_on,0,0,4,,,,,,,,,0,,,59,0
18690,note_on,30,0,1,,,,,,,,,0,,,79,0
18690,note_on,30,0,4,,,,,,,,,0,,,55,0
18720,note_on,0,0,1,,,,,,,,,0,,,62,120
18720,note_on,0,0,1,,,,,,,,,0,,,59,120
18720,note_on,30,0,1,,,,,,,,,0,,,67,120
18720,note_on,0,0,4,,,,,,,,,0,,,50,120
18720,note_on,0,0,4,,,,,,,,,0,,,55,120
18720,note_on,30,0,4,,,,,,,,,0,,,43,120
18750,note_on,0,0,1,,,,,,,,,0,,,67,0
18750,note_on,30,0,4,,,,,,,,,0,,,55,0
18750,note_on,30,0,1,,,,,,,,,0,,,59,0
18750,note_on,0,0,4,,,,,,,,,0,,,43,0
18750,note_on,0,0,4,,,,,,,,,0,,,50,0
18750,note_on,0,0,1,,,,,,,,,0,,,62,0
18780,note_on,30,0,1,,,,,,,,,0,,,91,127
18780,note_on,0,0,4,,,,,,,,,0,,,62,127
18780,note_on,30,0,4,,,,,,,,,0,,,67,127
18780,note_on,0,0,4,,,,,,,,,0,,,55,127
18780,note_on,0,0,1,,,,,,,,,0,,,79,127
18780,note_on,0,0,4,,,,,,,,,0,,,59,127
18780,note_on,0,0,1,,,,,,,,,0,,,86,127
18780,note_on,0,0,1,,,,,,,,,0,,,83,127
18870,note_on,0,0,4,,,,,,,,,0,,,67,0
18870,note_on,0,0,4,,,,,,,,,0,,,62,0
18870,note_on,0,0,4,,,,,,,,,0,,,55,120
18870,note_on,90,0,1,,,,,,,,,0,,,79,0
18870,note_on,0,0,4,,,,,,,,,0,,,43,120
18870,note_on,0,0,4,,,,,,,,,0,,,59,0
18870,note_on,90,0,4,,,,,,,,,0,,,55,0
18870,note_on,0,0,1,,,,,,,,,0,,,79,120
18870,note_on,0,0,1,,,,,,,,,0,,,91,120
18870,note_on,0,0,1,,,,,,,,,0,,,91,0
18870,note_on,0,0,1,,,,,,,,,0,,,86,0
18870,note_on,0,0,1,,,,,,,,,0,,,83,0
18900,note_on,0,0,1,,,,,,,,,0,,,92,120
18900,note_on,0,0,4,,,,,,,,,0,,,53,120
18900,note_on,0,0,4,,,,,,,,,0,,,47,120
18900,note_on,0,0,4,,,,,,,,,0,,,43,0
18900,note_on,0,0,1,,,,,,,,,0,,,80,120
18900,note_on,30,0,1,,,,,,,,,0,,,79,0
18900,note_on,0,0,1,,,,,,,,,0,,,91,0
18900,note_on,0,0,1,,,,,,,,,0,,,86,120
18900,note_on,30,0,4,,,,,,,,,0,,,55,0
18900,note_on,0,0,4,,,,,,,,,0,,,41,120
18930,note_on,0,0,4,,,,,,,,,0,,,52,120
18930,note_on,0,0,4,,,,,,,,,0,,,40,120
18930,note_on,0,0,4,,,,,,,,,0,,,41,0
18930,note_on,0,0,4,,,,,,,,,0,,,47,0
18930,note_on,0,0,1,,,,,,,,,0,,,79,120
18930,note_on,30,0,4,,,,,,,,,0,,,53,0
18930,note_on,0,0,1,,,,,,,,,0,,,92,0
18930,note_on,0,0,1,,,,,,,,,0,,,91,120
18930,note_on,0,0,1,,,,,,,,,0,,,86,0
18930,note_on,30,0,1,,,,,,,,,0,,,80,0
18960,note_on,0,0,4,,,,,,,,,0,,,52,0
18960,note_on,0,0,1,,,,,,,,,0,,,86,120
18960,note_on,30,0,1,,,,,,,,,0,,,79,0
18960,note_on,0,0,1,,,,,,,,,0,,,80,120
18960,note_on,0,0,1,,,,,,,,,0,,,91,0
18960,note_on,0,0,4,,,,,,,,,0,,,53,120
18960,note_on,30,0,4,,,,,,,,,0,,,40,0
18960,note_on,0,0,1,,,,,,,,,0,,,92,120
18960,note_on,0,0,4,,,,,,,,,0,,,41,120
18960,note_on,0,0,4,,,,,,,,,0,,,47,120
18990,note_on,0,0,1,,,,,,,,,0,,,74,120
18990,note_on,0,0,1,,,,,,,,,0,,,86,120
18990,note_on,0,0,1,,,,,,,,,0,,,86,0
18990,note_on,30,0,4,,,,,,,,,0,,,41,0
18990,note_on,0,0,4,,,,,,,,,0,,,47,120
18990,note_on,0,0,1,,,,,,,,,0,,,92,0
18990,note_on,0,0,4,,,,,,,,,0,,,47,0
18990,note_on,30,0,1,,,,,,,,,0,,,80,0
18990,note_on,0,0,4,,,,,,,,,0,,,53,0
18990,note_on,0,0,4,,,,,,,,,0,,,59,120
19020,note_on,0,0,4,,,,,,,,,0,,,51,120
19020,note_on,30,0,4,,,,,,,,,0,,,47,0
19020,note_on,0,0,1,,,,,,,,,0,,,79,120
19020,note_on,0,0,1,,,,,,,,,0,,,86,0
19020,note_on,0,0,1,,,,,,,,,0,,,91,120
19020,note_on,0,0,4,,,,,,,,,0,,,39,120
19020,note_on,0,0,4,,,,,,,,,0,,,59,0
19020,note_on,30,0,1,,,,,,,,,0,,,74,0
19050,note_on,0,0,1,,,,,,,,,0,,,78,120
19050,note_on,0,0,4,,,,,,,,,0,,,50,120
19050,note_on,0,0,4,,,,,,,,,0,,,39,0
19050,note_on,30,0,1,,,,,,,,,0,,,79,0
19050,note_on,30,0,4,,,,,,,,,0,,,51,0
19050,note_on,0,0,4,,,,,,,,,0,,,38,120
19050,note_on,0,0,1,,,,,,,,,0,,,91,0
19050,note_on,0,0,1,,,,,,,,,0,,,90,120
19080,note_on,0,0,1,,,,,,,,,0,,,84,120
19080,note_on,0,0,4,,,,,,,,,0,,,48,120
19080,note_on,0,0,1,,,,,,,,,0,,,91,120
19080,note_on,0,0,1,,,,,,,,,0,,,79,120
19080,note_on,30,0,1,,,,,,,,,0,,,78,0
19080,note_on,0,0,4,,,,,,,,,0,,,39,120
19080,note_on,30,0,4,,,,,,,,,0,,,38,0
19080,note_on,0,0,1,,,,,,,,,0,,,90,0
19080,note_on,0,0,4,,,,,,,,,0,,,51,120
19080,note_on,0,0,4,,,,,,,,,0,,,50,0
19110,note_on,30,0,4,,,,,,,,,0,,,51,0
19110,note_on,0,0,4,,,,,,,,,0,,,48,0
19110,note_on,0,0,4,,,,,,,,,0,,,44,120
19110,note_on,30,0,1,,,,,,,,,0,,,79,0
19110,note_on,0,0,4,,,,,,,,,0,,,39,0
19110,note_on,0,0,1,,,,,,,,,0,,,72,120
19110,note_on,0,0,1,,,,,,,,,0,,,84,0
19110,note_on,0,0,1,,,,,,,,,0,,,84,120
19110,note_on,0,0,1,,,,,,,,,0,,,91,0
19110,note_on,0,0,4,,,,,,,,,0,,,56,120
19140,note_on,30,0,4,,,,,,,,,0,,,44,0
19140,note_on,0,0,1,,,,,,,,,0,,,89,120
19140,note_on,30,0,1,,,,,,,,,0,,,72,0
19140,note_on,0,0,1,,,,,,,,,0,,,84,120
19140,note_on,0,0,1,,,,,,,,,0,,,77,120
19140,note_on,0,0,4,,,,,,,,,0,,,38,120
19140,note_on,0,0,4,,,,,,,,,0,,,44,120
19140,note_on,0,0,4,,,,,,,,,0,,,50,120
19140,note_on,0,0,4,,,,,,,,,0,,,56,0
19140,note_on,0,0,1,,,,,,,,,0,,,84,0
19170,note_on,30,0,4,,,,,,,,,0,,,50,0
19170,note_on,30,0,1,,,,,,,,,0,,,77,0
19170,note_on,0,0,4,,,,,,,,,0,,,37,120
19170,note_on,0,0,4,,,,,,,,,0,,,44,0
19170,note_on,0,0,4,,,,,,,,,0,,,49,120
19170,note_on,0,0,1,,,,,,,,,0,,,89,0
19170,note_on,0,0,1,,,,,,,,,0,,,88,120
19170,note_on,0,0,1,,,,,,,,,0,,,84,0
19170,note_on,0,0,1,,,,,,,,,0,,,76,120
19170,note_on,0,0,4,,,,,,,,,0,,,38,0
19200,note_on,0,0,1,,,,,,,,,0,,,77,120
19200,note_on,0,0,1,,,,,,,,,0,,,83,120
19200,note_on,0,0,1,,,,,,,,,0,,,88,0
19200,note_on,0,0,1,,,,,,,,,0,,,89,120
19200,note_on,30,0,1,,,,,,,,,0,,,76,0
19200,note_on,0,0,4,,,,,,,,,0,,,38,120
19200,note_on,0,0,4,,,,,,,,,0,,,50,120
19200,note_on,0,0,4,,,,,,,,,0,,,49,0
19200,note_on,0,0,4,,,,,,,,,0,,,43,120
19200,note_on,30,0,4,,,,,,,,,0,,,37,0
19230,note_on,0,0,4,,,,,,,,,0,,,50,0
19230,note_on,0,0,4,,,,,,,,,0,,,55,120
19230,note_on,30,0,1,,,,,,,,,0,,,77,0
19230,note_on,0,0,4,,,,,,,,,0,,,43,120
19230,note_on,30,0,4,,,,,,,,,0,,,38,0
19230,note_on,0,0,4,,,,,,,,,0,,,43,0
19230,note_on,0,0,1,,,,,,,,,0,,,83,0
19230,note_on,0,0,1,,,,,,,,,0,,,83,120
19230,note_on,0,0,1,,,,,,,,,0,,,89,0
19230,note_on,0,0,1,,,,,,,,,0,,,71,120
19260,note_on,30,0,1,,,,,,,,,0,,,71,0
19260,note_on,0,0,1,,,,,,,,,0,,,75,120
19260,note_on,0,0,1,,,,,,,,,0,,,83,0
19260,note_on,0,0,4,,,,,,,,,0,,,55,0
19260,note_on,0,0,4,,,,,,,,,0,,,48,120
19260,note_on,0,0,4,,,,,,,,,0,,,36,120
19260,note_on,0,0,1,,,,,,,,,0,,,87,120
19260,note_on,30,0,4,,,,,,,,,0,,,43,0
19290,note_on,0,0,1,,,,,,,,,0,,,86,120
19290,note_on,0,0,4,,,,,,,,,0,,,36,0
19290,note_on,0,0,1,,,,,,,,,0,,,87,0
19290,note_on,0,0,4,,,,,,,,,0,,,47,120
19290,note_on,30,0,4,,,,,,,,,0,,,48,0
19290,note_on,30,0,1,,,,,,,,,0,,,75,0
19290,note_on,0,0,1,,,,,,,,,0,,,74,120
19290,note_on,0,0,4,,,,,,,,,0,,,35,120
19320,note_on,30,0,1,,,,,,,,,0,,,74,0
19320,note_on,30,0,4,,,,,,,,,0,,,35,0
19320,note_on,0,0,4,,,,,,,,,0,,,48,120
19320,note_on,0,0,1,,,,,,,,,0,,,75,120
19320,note_on,0,0,1,,,,,,,,,0,,,79,120
19320,note_on,0,0,1,,,,,,,,,0,,,86,0
19320,note_on,0,0,1,,,,,,,,,0,,,87,120
19320,note_on,0,0,4,,,,,,,,,0,,,47,0
19320,note_on,0,0,4,,,,,,,,,0,,,36,120
19320,note_on,0,0,4,,,,,,,,,0,,,43,120
19350,note_on,0,0,4,,,,,,,,,0,,,43,0
19350,note_on,0,0,1,,,,,,,,,0,,,87,0
19350,note_on,0,0,1,,,,,,,,,0,,,84,120
19350,note_on,0,0,1,,,,,,,,,0,,,79,0
19350,note_on,0,0,4,,,,,,,,,0,,,48,0
19350,note_on,0,0,1,,,,,,,,,0,,,72,120
19350,note_on,30,0,1,,,,,,,,,0,,,75,0
19350,note_on,0,0,4,,,,,,,,,0,,,51,120
19350,note_on,0,0,4,,,,,,,,,0,,,39,120
19350,note_on,30,0,4,,,,,,,,,0,,,36,0
19380,note_on,0,0,4,,,,,,,,,0,,,41,120
19380,note_on,0,0,1,,,,,,,,,0,,,74,120
19380,note_on,0,0,4,,,,,,,,,0,,,53,120
19380,note_on,0,0,4,,,,,,,,,0,,,51,0
19380,note_on,0,0,1,,,,,,,,,0,,,70,120
19380,note_on,30,0,1,,,,,,,,,0,,,72,0
19380,note_on,0,0,1,,,,,,,,,0,,,84,0
19380,note_on,30,0,4,,,,,,,,,0,,,39,0
19380,note_on,0,0,1,,,,,,,,,0,,,82,120
19410,note_on,0,0,1,,,,,,,,,0,,,80,120
19410,note_on,0,0,1,,,,,,,,,0,,,68,120
19410,note_on,0,0,1,,,,,,,,,0,,,82,0
19410,note_on,0,0,1,,,,,,,,,0,,,74,0
19410,note_on,0,0,1,,,,,,,,,0,,,72,120
19410,note_on,30,0,1,,,,,,,,,0,,,70,0
19440,note_on,0,0,4,,,,,,,,,0,,,63,120
19440,note_on,0,0,4,,,,,,,,,0,,,51,120
19440,note_on,0,0,4,,,,,,,,,0,,,41,0
19440,note_on,0,0,1,,,,,,,,,0,,,72,0
19440,note_on,30,0,1,,,,,,,,,0,,,68,0
19440,note_on,0,0,1,,,,,,,,,0,,,67,120
19440,note_on,0,0,1,,,,,,,,,0,,,79,120
19440,note_on,0,0,1,,,,,,,,,0,,,80,0
19440,note_on,60,0,4,,,,,,,,,0,,,53,0
19470,note_on,0,0,4,,,,,,,,,0,,,62,120
19470,note_on,0,0,4,,,,,,,,,0,,,50,120
19470,note_on,30,0,1,,,,,,,,,0,,,67,0
19470,note_on,0,0,4,,,,,,,,,0,,,63,0
19470,note_on,0,0,1,,,,,,,,,0,,,79,0
19470,note_on,0,0,1,,,,,,,,,0,,,77,120
19470,note_on,0,0,1,,,,,,,,,0,,,65,120
19470,note_on,30,0,4,,,,,,,,,0,,,51,0
19500,note_on,30,0,1,,,,,,,,,0,,,65,0
19500,note_on,0,0,1,,,,,,,,,0,,,75,120
19500,note_on,0,0,1,,,,,,,,,0,,,63,120
19500,note_on,30,0,4,,,,,,,,,0,,,50,0
19500,note_on,0,0,1,,,,,,,,,0,,,77,0
19500,note_on,0,0,4,,,,,,,,,0,,,60,120
19500,note_on,0,0,4,,,,,,,,,0,,,62,0
19500,note_on,0,0,4,,,,,,,,,0,,,48,120
19530,note_on,0,0,4,,,,,,,,,0,,,60,0
19530,note_on,0,0,1,,,,,,,,,0,,,75,0
19530,note_on,0,0,1,,,,,,,,,0,,,79,120
19530,note_on,0,0,4,,,,,,,,,0,,,43,120
19530,note_on,0,0,4,,,,,,,,,0,,,55,120
19530,note_on,30,0,1,,,,,,,,,0,,,63,0
19530,note_on,0,0,1,,,,,,,,,0,,,67,120
19530,note_on,30,0,4,,,,,,,,,0,,,48,0
19560,note_on,0,0,1,,,,,,,,,0,,,65,120
19560,note_on,0,0,4,,,,,,,,,0,,,44,120
19560,note_on,0,0,1,,,,,,,,,0,,,79,0
19560,note_on,0,0,1,,,,,,,,,0,,,71,120
19560,note_on,0,0,1,,,,,,,,,0,,,77,120
19560,note_on,30,0,4,,,,,,,,,0,,,43,0
19560,note_on,0,0,4,,,,,,,,,0,,,56,120
19560,note_on,30,0,1,,,,,,,,,0,,,67,0
19560,note_on,0,0,4,,,,,,,,,0,,,55,0
19590,note_on,0,0,1,,,,,,,,,0,,,62,120
19590,note_on,0,0,1,,,,,,,,,0,,,71,0
19590,note_on,30,0,4,,,,,,,,,0,,,44,0
19590,note_on,0,0,1,,,,,,,,,0,,,77,0
19590,note_on,0,0,1,,,,,,,,,0,,,74,120
19590,note_on,30,0,1,,,,,,,,,0,,,65,0
19590,note_on,0,0,4,,,,,,,,,0,,,43,120
19590,note_on,0,0,4,,,,,,,,,0,,,55,120
19590,note_on,0,0,4,,,,,,,,,0,,,56,0
19620,note_on,30,0,1,,,,,,,,,0,,,62,0
19620,note_on,0,0,1,,,,,,,,,0,,,74,0
19620,note_on,0,0,1,,,,,,,,,0,,,71,120
19620,note_on,0,0,4,,,,,,,,,0,,,35,120
19620,note_on,0,0,4,,,,,,,,,0,,,47,120
19620,note_on,0,0,1,,,,,,,,,0,,,59,120
19620,note_on,0,0,4,,,,,,,,,0,,,55,0
19620,note_on,30,0,4,,,,,,,,,0,,,43,0
19650,note_on,30,0,4,,,,,,,,,0,,,47,0
19650,note_on,30,0,1,,,,,,,,,0,,,71,0
19650,note_on,0,0,4,,,,,,,,,0,,,35,0
19650,note_on,0,0,4,,,,,,,,,0,,,36,120
19650,note_on,0,0,4,,,,,,,,,0,,,48,120
19650,note_on,0,0,1,,,,,,,,,0,,,72,120
19650,note_on,0,0,1,,,,,,,,,0,,,59,0
19650,note_on,0,0,1,,,,,,,,,0,,,60,120
19680,note_on,0,0,1,,,,,,,,,0,,,72,120
19680,note_on,0,0,1,,,,,,,,,0,,,84,120
19680,note_on,0,0,1,,,,,,,,,0,,,60,0
19680,note_on,0,0,1,,,,,,,,,0,,,79,120
19680,note_on,30,0,1,,,,,,,,,0,,,72,0
19680,note_on,0,0,1,,,,,,,,,0,,,75,120
19680,note_on,0,0,4,,,,,,,,,0,,,36,0
19680,note_on,0,0,4,,,,,,,,,0,,,48,120
19680,note_on,0,0,4,,,,,,,,,0,,,51,120
19680,note_on,0,0,4,,,,,,,,,0,,,55,120
19680,note_on,0,0,4,,,,,,,,,0,,,60,120
19680,note_on,30,0,4,,,,,,,,,0,,,48,0
19710,note_on,0,0,4,,,,,,,,,0,,,60,0
19710,note_on,30,0,1,,,,,,,,,0,,,72,0
19710,note_on,0,0,1,,,,,,,,,0,,,84,0
19710,note_on,0,0,1,,,,,,,,,0,,,79,0
19710,note_on,0,0,1,,,,,,,,,0,,,75,0
19710,note_on,0,0,4,,,,,,,,,0,,,51,0
19710,note_on,30,0,4,,,,,,,,,0,,,48,0
19710,note_on,0,0,4,,,,,,,,,0,,,55,0
19845,note_on,135,0,1,,,,,,,,,0,,,63,120
19860,note_on,15,0,1,,,,,,,,,0,,,63,0
19860,note_on,0,0,1,,,,,,,,,0,,,63,127
20100,note_on,240,0,1,,,,,,,,,0,,,63,0
20100,note_on,0,0,4,,,,,,,,,0,,,47,120
20100,note_on,390,0,4,,,,,,,,,0,,,35,120
20100,note_on,0,0,1,,,,,,,,,0,,,71,120
20100,note_on,0,0,1,,,,,,,,,0,,,59,120
20130,note_on,0,0,4,,,,,,,,,0,,,48,120
20130,note_on,0,0,1,,,,,,,,,0,,,72,120
20130,note_on,0,0,1,,,,,,,,,0,,,60,120
20130,note_on,0,0,1,,,,,,,,,0,,,59,0
20130,note_on,30,0,4,,,,,,,,,0,,,47,0
20130,note_on,30,0,1,,,,,,,,,0,,,71,0
20130,note_on,0,0,4,,,,,,,,,0,,,35,0
20130,note_on,0,0,4,,,,,,,,,0,,,36,120
20160,note_on,0,0,4,,,,,,,,,0,,,63,120
20160,note_on,0,0,4,,,,,,,,,0,,,56,120
20160,note_on,0,0,4,,,,,,,,,0,,,54,120
20160,note_on,0,0,4,,,,,,,,,0,,,48,120
20160,note_on,30,0,4,,,,,,,,,0,,,48,0
20160,note_on,0,0,4,,,,,,,,,0,,,36,0
20160,note_on,0,0,1,,,,,,,,,0,,,80,120
20160,note_on,0,0,1,,,,,,,,,0,,,78,120
20160,note_on,0,0,1,,,,,,,,,0,,,60,0
20160,note_on,30,0,1,,,,,,,,,0,,,72,0
20160,note_on,0,0,1,,,,,,,,,0,,,87,120
20160,note_on,0,0,1,,,,,,,,,0,,,75,120
20190,note_on,0,0,1,,,,,,,,,0,,,78,0
20190,note_on,0,0,1,,,,,,,,,0,,,80,0
20190,note_on,30,0,4,,,,,,,,,0,,,48,0
20190,note_on,0,0,4,,,,,,,,,0,,,56,0
20190,note_on,30,0,1,,,,,,,,,0,,,75,0
20190,note_on,0,0,4,,,,,,,,,0,,,54,0
20190,note_on,0,0,4,,,,,,,,,0,,,63,0
20190,note_on,0,0,1,,,,,,,,,0,,,87,0
20325,note_on,0,0,1,,,,,,,,,0,,,68,120
20325,note_on,135,0,4,,,,,,,,,0,,,63,120
20325,note_on,0,0,1,,,,,,,,,0,,,66,120
20325,note_on,135,0,1,,,,,,,,,0,,,60,120
20340,note_on,0,0,1,,,,,,,,,0,,,66,127
20340,note_on,0,0,1,,,,,,,,,0,,,66,0
20340,note_on,15,0,1,,,,,,,,,0,,,68,0
20340,note_on,15,0,4,,,,,,,,,0,,,63,0
20340,note_on,0,0,4,,,,,,,,,0,,,63,127
20340,note_on,0,0,1,,,,,,,,,0,,,60,0
20340,note_on,0,0,1,,,,,,,,,0,,,60,127
20340,note_on,0,0,1,,,,,,,,,0,,,68,127
20580,note_on,0,0,1,,,,,,,,,0,,,60,0
20580,note_on,0,0,1,,,,,,,,,0,,,63,120
20580,note_on,240,0,1,,,,,,,,,0,,,68,0
20580,note_on,0,0,4,,,,,,,,,0,,,35,120
20580,note_on,0,0,1,,,,,,,,,0,,,66,0
20580,note_on,0,0,1,,,,,,,,,0,,,66,120
20580,note_on,240,0,4,,,,,,,,,0,,,63,0
20580,note_on,0,0,1,,,,,,,,,0,,,69,120
20580,note_on,0,0,4,,,,,,,,,0,,,47,120
20610,note_on,30,0,4,,,,,,,,,0,,,47,0
20610,note_on,0,0,4,,,,,,,,,0,,,36,120
20610,note_on,0,0,4,,,,,,,,,0,,,35,0
20610,note_on,0,0,4,,,,,,,,,0,,,48,120
20640,note_on,0,0,4,,,,,,,,,0,,,36,0
20640,note_on,30,0,4,,,,,,,,,0,,,48,0
20640,note_on,0,0,4,,,,,,,,,0,,,42,120
20640,note_on,0,0,4,,,,,,,,,0,,,54,120
20670,note_on,0,0,4,,,,,,,,,0,,,54,0
20670,note_on,30,0,4,,,,,,,,,0,,,42,0
20700,note_on,120,0,1,,,,,,,,,0,,,69,0
20700,note_on,0,0,3,,,,,,,,,0,,,66,127
20700,note_on,0,0,3,,,,,,,,,0,,,69,127
20700,note_on,0,0,1,,,,,,,,,0,,,83,120
20700,note_on,0,0,1,,,,,,,,,0,,,71,120
20700,note_on,0,0,1,,,,,,,,,0,,,66,0
20700,note_on,0,0,1,,,,,,,,,0,,,63,0
20700,note_on,8010,0,3,,,,,,,,,0,,,63,127
20730,note_on,0,0,1,,,,,,,,,0,,,83,0
20730,note_on,0,0,1,,,,,,,,,0,,,72,120
20730,note_on,30,0,1,,,,,,,,,0,,,71,0
20730,note_on,0,0,1,,,,,,,,,0,,,84,120
20760,note_on,0,0,1,,,,,,,,,0,,,84,0
20760,note_on,0,0,1,,,,,,,,,0,,,90,120
20760,note_on,30,0,1,,,,,,,,,0,,,72,0
20760,note_on,0,0,1,,,,,,,,,0,,,78,120
20790,note_on,30,0,1,,,,,,,,,0,,,78,0
20790,note_on,0,0,1,,,,,,,,,0,,,90,0
20820,note_on,0,0,1,,,,,,,,,0,,,88,120
20820,note_on,0,0,3,,,,,,,,,0,,,62,127
20820,note_on,0,0,3,,,,,,,,,0,,,63,0
20820,note_on,0,0,3,,,,,,,,,0,,,66,0
20820,note_on,0,0,3,,,,,,,,,0,,,69,127
20820,note_on,120,0,3,,,,,,,,,0,,,69,0
20820,note_on,30,0,1,,,,,,,,,0,,,76,120
20820,note_on,0,0,3,,,,,,,,,0,,,65,127
20850,note_on,0,0,1,,,,,,,,,0,,,89,120
20850,note_on,30,0,1,,,,,,,,,0,,,88,0
20850,note_on,0,0,1,,,,,,,,,0,,,77,120
20850,note_on,0,0,1,,,,,,,,,0,,,76,0
20880,note_on,30,0,1,,,,,,,,,0,,,89,0
20880,note_on,0,0,1,,,,,,,,,0,,,77,0
20880,note_on,0,0,1,,,,,,,,,0,,,89,120
20880,note_on,0,0,1,,,,,,,,,0,,,101,120
20910,note_on,30,0,1,,,,,,,,,0,,,89,0
20910,note_on,0,0,1,,,,,,,,,0,,,101,0
20940,note_on,270,0,4,,,,,,,,,0,,,40,120
20940,note_on,0,0,3,,,,,,,,,0,,,62,0
20940,note_on,0,0,3,,,,,,,,,0,,,65,0
20940,note_on,120,0,3,,,,,,,,,0,,,69,0
20940,note_on,0,0,1,,,,,,,,,0,,,63,127
20940,note_on,0,0,1,,,,,,,,,0,,,69,127
20940,note_on,30,0,1,,,,,,,,,0,,,60,127
20940,note_on,0,0,4,,,,,,,,,0,,,52,120
20970,note_on,0,0,4,,,,,,,,,0,,,41,120
20970,note_on,0,0,4,,,,,,,,,0,,,53,120
20970,note_on,30,0,4,,,,,,,,,0,,,52,0
20970,note_on,0,0,4,,,,,,,,,0,,,40,0
21000,note_on,0,0,4,,,,,,,,,0,,,41,0
21000,note_on,0,0,4,,,,,,,,,0,,,65,120
21000,note_on,30,0,4,,,,,,,,,0,,,53,0
21000,note_on,0,0,4,,,,,,,,,0,,,53,120
21030,note_on,0,0,4,,,,,,,,,0,,,65,0
21030,note_on,30,0,4,,,,,,,,,0,,,53,0
21060,note_on,120,0,1,,,,,,,,,0,,,69,0
21060,note_on,0,0,1,,,,,,,,,0,,,70,120
21060,note_on,0,0,1,,,,,,,,,0,,,63,0
21060,note_on,0,0,1,,,,,,,,,0,,,62,120
21060,note_on,0,0,1,,,,,,,,,0,,,60,0
21060,note_on,0,0,1,,,,,,,,,0,,,58,120
21180,note_on,150,0,4,,,,,,,,,0,,,34,120
21180,note_on,0,0,4,,,,,,,,,0,,,46,120
21240,note_on,60,0,4,,,,,,,,,0,,,41,120
21240,note_on,0,0,4,,,,,,,,,0,,,44,120
21270,note_on,0,0,4,,,,,,,,,0,,,34,0
21270,note_on,0,0,4,,,,,,,,,0,,,46,120
21270,note_on,30,0,4,,,,,,,,,0,,,46,0
21270,note_on,0,0,4,,,,,,,,,0,,,34,120
21300,note_on,0,0,1,,,,,,,,,0,,,62,0
21300,note_on,0,0,4,,,,,,,,,0,,,46,120
21300,note_on,0,0,4,,,,,,,,,0,,,44,0
21300,note_on,0,0,4,,,,,,,,,0,,,41,0
21300,note_on,0,0,4,,,,,,,,,0,,,34,120
21300,note_on,0,0,1,,,,,,,,,0,,,70,0
21300,note_on,30,0,4,,,,,,,,,0,,,46,0
21300,note_on,0,0,4,,,,,,,,,0,,,34,0
21300,note_on,240,0,1,,,,,,,,,0,,,58,0
21315,note_on,15,0,4,,,,,,,,,0,,,46,0
21315,note_on,0,0,4,,,,,,,,,0,,,34,0
21330,note_on,15,0,4,,,,,,,,,0,,,33,120
21330,note_on,0,0,4,,,,,,,,,0,,,45,120
21345,note_on,15,0,4,,,,,,,,,0,,,45,0
21345,note_on,0,0,4,,,,,,,,,0,,,33,0
21360,note_on,15,0,4,,,,,,,,,0,,,34,120
21360,note_on,0,0,4,,,,,,,,,0,,,46,120
21375,note_on,0,0,4,,,,,,,,,0,,,34,0
21375,note_on,15,0,4,,,,,,,,,0,,,46,0
21390,note_on,15,0,4,,,,,,,,,0,,,38,120
21390,note_on,0,0,4,,,,,,,,,0,,,50,120
21405,note_on,0,0,4,,,,,,,,,0,,,38,0
21405,note_on,15,0,4,,,,,,,,,0,,,50,0
21420,note_on,0,0,4,,,,,,,,,0,,,53,120
21420,note_on,15,0,4,,,,,,,,,0,,,41,120
21435,note_on,0,0,4,,,,,,,,,0,,,41,0
21435,note_on,15,0,4,,,,,,,,,0,,,53,0
21450,note_on,15,0,4,,,,,,,,,0,,,46,120
21450,note_on,0,0,4,,,,,,,,,0,,,58,120
21465,note_on,0,0,4,,,,,,,,,0,,,46,0
21465,note_on,15,0,4,,,,,,,,,0,,,58,0
21480,note_on,0,0,4,,,,,,,,,0,,,62,120
21480,note_on,15,0,4,,,,,,,,,0,,,50,120
21495,note_on,0,0,4,,,,,,,,,0,,,50,0
21495,note_on,15,0,4,,,,,,,,,0,,,62,0
21510,note_on,15,0,4,,,,,,,,,0,,,53,120
21510,note_on,0,0,4,,,,,,,,,0,,,65,120
21525,note_on,0,0,4,,,,,,,,,0,,,53,0
21525,note_on,15,0,4,,,,,,,,,0,,,65,0
21540,note_on,0,0,4,,,,,,,,,0,,,56,120
21540,note_on,15,0,4,,,,,,,,,0,,,68,120
21555,note_on,0,0,4,,,,,,,,,0,,,68,0
21555,note_on,15,0,4,,,,,,,,,0,,,56,0
21570,note_on,15,0,4,,,,,,,,,0,,,65,120
21570,note_on,0,0,4,,,,,,,,,0,,,53,120
21585,note_on,0,0,4,,,,,,,,,0,,,65,0
21585,note_on,15,0,4,,,,,,,,,0,,,53,0
21600,note_on,0,0,4,,,,,,,,,0,,,50,120
21600,note_on,15,0,4,,,,,,,,,0,,,62,120
21630,note_on,30,0,4,,,,,,,,,0,,,50,0
21630,note_on,0,0,4,,,,,,,,,0,,,62,0
21660,note_on,360,0,1,,,,,,,,,0,,,70,120
21660,note_on,0,0,1,,,,,,,,,0,,,58,120
21720,note_on,0,0,1,,,,,,,,,0,,,65,120
21720,note_on,0,0,1,,,,,,,,,0,,,62,120
21720,note_on,60,0,1,,,,,,,,,0,,,68,120
21750,note_on,0,0,1,,,,,,,,,0,,,70,0
21750,note_on,0,0,1,,,,,,,,,0,,,58,120
21750,note_on,30,0,1,,,,,,,,,0,,,58,0
21750,note_on,0,0,1,,,,,,,,,0,,,70,120
21780,note_on,0,0,1,,,,,,,,,0,,,68,0
21780,note_on,0,0,1,,,,,,,,,0,,,58,120
21780,note_on,0,0,1,,,,,,,,,0,,,65,0
21780,note_on,0,0,1,,,,,,,,,0,,,62,0
21780,note_on,0,0,1,,,,,,,,,0,,,58,0
21780,note_on,30,0,1,,,,,,,,,0,,,70,0
21780,note_on,0,0,1,,,,,,,,,0,,,70,120
21795,note_on,0,0,1,,,,,,,,,0,,,58,0
21795,note_on,15,0,1,,,,,,,,,0,,,70,0
21810,note_on,15,0,1,,,,,,,,,0,,,69,120
21810,note_on,0,0,1,,,,,,,,,0,,,57,120
21825,note_on,15,0,1,,,,,,,,,0,,,57,0
21825,note_on,0,0,1,,,,,,,,,0,,,69,0
21840,note_on,15,0,1,,,,,,,,,0,,,70,120
21840,note_on,0,0,1,,,,,,,,,0,,,58,120
21855,note_on,0,0,1,,,,,,,,,0,,,70,0
21855,note_on,15,0,1,,,,,,,,,0,,,58,0
21870,note_on,0,0,1,,,,,,,,,0,,,62,120
21870,note_on,15,0,1,,,,,,,,,0,,,74,120
21885,note_on,0,0,1,,,,,,,,,0,,,74,0
21885,note_on,15,0,1,,,,,,,,,0,,,62,0
21900,note_on,15,0,1,,,,,,,,,0,,,77,120
21900,note_on,0,0,1,,,,,,,,,0,,,65,120
21915,note_on,0,0,1,,,,,,,,,0,,,77,0
21915,note_on,15,0,1,,,,,,,,,0,,,65,0
21930,note_on,0,0,1,,,,,,,,,0,,,70,120
21930,note_on,15,0,1,,,,,,,,,0,,,82,120
21945,note_on,15,0,1,,,,,,,,,0,,,70,0
21945,note_on,0,0,1,,,,,,,,,0,,,82,0
21960,note_on,0,0,1,,,,,,,,,0,,,74,120
21960,note_on,15,0,1,,,,,,,,,0,,,86,120
21975,note_on,15,0,1,,,,,,,,,0,,,74,0
21975,note_on,0,0,1,,,,,,,,,0,,,86,0
21990,note_on,15,0,1,,,,,,,,,0,,,89,120
21990,note_on,0,0,1,,,,,,,,,0,,,77,120
22005,note_on,0,0,1,,,,,,,,,0,,,89,0
22005,note_on,15,0,1,,,,,,,,,0,,,77,0
22020,note_on,0,0,1,,,,,,,,,0,,,80,120
22020,note_on,15,0,1,,,,,,,,,0,,,92,120
22035,note_on,0,0,1,,,,,,,,,0,,,92,0
22035,note_on,15,0,1,,,,,,,,,0,,,80,0
22050,note_on,15,0,1,,,,,,,,,0,,,89,115
22050,note_on,0,0,1,,,,,,,,,0,,,77,115
22065,note_on,15,0,1,,,,,,,,,0,,,77,0
22065,note_on,0,0,1,,,,,,,,,0,,,89,0
22080,note_on,0,0,1,,,,,,,,,0,,,74,109
22080,note_on,15,0,1,,,,,,,,,0,,,86,109
22110,note_on,480,0,4,,,,,,,,,0,,,68,103
22110,note_on,30,0,1,,,,,,,,,0,,,74,0
22110,note_on,0,0,1,,,,,,,,,0,,,86,0
22120,note_on,10,0,4,,,,,,,,,0,,,68,0
22120,note_on,0,0,4,,,,,,,,,0,,,62,101
22130,note_on,10,0,4,,,,,,,,,0,,,62,0
22130,note_on,0,0,4,,,,,,,,,0,,,53,99
22140,note_on,10,0,4,,,,,,,,,0,,,53,0
22140,note_on,0,0,4,,,,,,,,,0,,,46,97
22200,note_on,60,0,4,,,,,,,,,0,,,46,0
22260,note_on,150,0,1,,,,,,,,,0,,,92,73
22260,note_on,0,0,1,,,,,,,,,0,,,80,73
22275,note_on,15,0,1,,,,,,,,,0,,,80,0
22275,note_on,0,0,1,,,,,,,,,0,,,92,0
22290,note_on,0,0,1,,,,,,,,,0,,,77,67
22290,note_on,15,0,1,,,,,,,,,0,,,89,67
22305,note_on,0,0,1,,,,,,,,,0,,,89,0
22305,note_on,15,0,1,,,,,,,,,0,,,77,0
22320,note_on,0,0,1,,,,,,,,,0,,,71,61
22320,note_on,15,0,1,,,,,,,,,0,,,83,61
22350,note_on,30,0,1,,,,,,,,,0,,,71,0
22350,note_on,0,0,1,,,,,,,,,0,,,83,0
22350,note_on,150,0,4,,,,,,,,,0,,,56,55
22360,note_on,0,0,4,,,,,,,,,0,,,53,53
22360,note_on,10,0,4,,,,,,,,,0,,,56,0
22370,note_on,0,0,4,,,,,,,,,0,,,47,51
22370,note_on,10,0,4,,,,,,,,,0,,,53,0
22380,note_on,10,0,4,,,,,,,,,0,,,47,0
22380,note_on,0,0,4,,,,,,,,,0,,,39,49
22440,note_on,60,0,4,,,,,,,,,0,,,39,0
22500,note_on,150,0,1,,,,,,,,,0,,,92,40
22515,note_on,15,0,1,,,,,,,,,0,,,92,0
22515,note_on,0,0,1,,,,,,,,,0,,,89,40
22530,note_on,15,0,1,,,,,,,,,0,,,89,0
22530,note_on,0,0,1,,,,,,,,,0,,,83,40
22545,note_on,0,0,1,,,,,,,,,0,,,82,40
22545,note_on,15,0,1,,,,,,,,,0,,,83,0
22560,note_on,15,0,1,,,,,,,,,0,,,82,0
22560,note_on,1620,0,3,,,,,,,,,0,,,80,40
22575,note_on,15,0,3,,,,,,,,,0,,,80,0
22575,note_on,0,0,3,,,,,,,,,0,,,77,40
22590,note_on,0,0,3,,,,,,,,,0,,,71,40
22590,note_on,15,0,3,,,,,,,,,0,,,77,0
22605,note_on,15,0,3,,,,,,,,,0,,,71,0
22605,note_on,0,0,3,,,,,,,,,0,,,70,40
22620,note_on,60,0,1,,,,,,,,,0,,,68,40
22620,note_on,15,0,3,,,,,,,,,0,,,70,0
22635,note_on,15,0,1,,,,,,,,,0,,,68,0
22635,note_on,0,0,1,,,,,,,,,0,,,65,40
22650,note_on,15,0,1,,,,,,,,,0,,,65,0
22650,note_on,0,0,1,,,,,,,,,0,,,59,40
22665,note_on,15,0,1,,,,,,,,,0,,,59,0
22665,note_on,0,0,1,,,,,,,,,0,,,58,40
22680,note_on,15,0,1,,,,,,,,,0,,,58,0
22680,note_on,240,0,4,,,,,,,,,0,,,56,40
22695,note_on,0,0,4,,,,,,,,,0,,,53,40
22695,note_on,15,0,4,,,,,,,,,0,,,56,0
22710,note_on,0,0,4,,,,,,,,,0,,,47,40
22710,note_on,15,0,4,,,,,,,,,0,,,53,0
22725,note_on,0,0,4,,,,,,,,,0,,,46,40
22725,note_on,15,0,4,,,,,,,,,0,,,47,0
22740,note_on,7455,0,2,,,,,,,,,0,,,38,40
22740,note_on,15,0,4,,,,,,,,,0,,,46,0
22770,note_on,30,0,2,,,,,,,,,0,,,38,0
22860,note_on,240,0,3,,,,,,,,,0,,,62,40
22865,note_on,5,0,3,,,,,,,,,0,,,69,40
22870,note_on,5,0,3,,,,,,,,,0,,,72,40
22875,note_on,5,0,3,,,,,,,,,0,,,78,40
22880,note_on,200,0,1,,,,,,,,,0,,,81,40
22885,note_on,5,0,1,,,,,,,,,0,,,84,40
22890,note_on,5,0,1,,,,,,,,,0,,,90,40
22895,note_on,5,0,1,,,,,,,,,0,,,93,40
22920,note_on,0,0,1,,,,,,,,,0,,,90,0
22920,note_on,0,0,3,,,,,,,,,0,,,62,0
22920,note_on,0,0,3,,,,,,,,,0,,,69,0
22920,note_on,0,0,3,,,,,,,,,0,,,72,0
22920,note_on,45,0,3,,,,,,,,,0,,,78,0
22920,note_on,0,0,1,,,,,,,,,0,,,84,0
22920,note_on,0,0,1,,,,,,,,,0,,,81,0
22920,note_on,25,0,1,,,,,,,,,0,,,93,0
22980,note_on,60,0,3,,,,,,,,,0,,,58,40
22985,note_on,5,0,3,,,,,,,,,0,,,65,40
22990,note_on,5,0,3,,,,,,,,,0,,,68,40
22995,note_on,5,0,3,,,,,,,,,0,,,74,40
23000,note_on,80,0,1,,,,,,,,,0,,,80,40
23005,note_on,5,0,1,,,,,,,,,0,,,86,40
23010,note_on,5,0,1,,,,,,,,,0,,,94,40
23040,note_on,0,0,3,,,,,,,,,0,,,65,0
23040,note_on,0,0,1,,,,,,,,,0,,,86,0
23040,note_on,45,0,3,,,,,,,,,0,,,74,0
23040,note_on,30,0,1,,,,,,,,,0,,,94,0
23040,note_on,0,0,3,,,,,,,,,0,,,68,0
23040,note_on,0,0,1,,,,,,,,,0,,,80,0
23040,note_on,0,0,3,,,,,,,,,0,,,58,0
23205,note_on,165,0,1,,,,,,,,,0,,,58,40
23220,note_on,0,0,1,,,,,,,,,0,,,58,70
23220,note_on,15,0,1,,,,,,,,,0,,,58,0
23240,note_on,20,0,1,,,,,,,,,0,,,58,0
23240,note_on,0,0,1,,,,,,,,,0,,,59,40
23260,note_on,0,0,1,,,,,,,,,0,,,58,40
23260,note_on,20,0,1,,,,,,,,,0,,,59,0
23280,note_on,20,0,1,,,,,,,,,0,,,58,0
23280,note_on,0,0,1,,,,,,,,,0,,,59,40
23295,note_on,15,0,1,,,,,,,,,0,,,59,0
23295,note_on,0,0,1,,,,,,,,,0,,,58,40
23310,note_on,0,0,1,,,,,,,,,0,,,57,40
23310,note_on,15,0,1,,,,,,,,,0,,,58,0
23325,note_on,0,0,1,,,,,,,,,0,,,58,40
23325,note_on,15,0,1,,,,,,,,,0,,,57,0
23340,note_on,15,0,1,,,,,,,,,0,,,58,0
23340,note_on,600,0,4,,,,,,,,,0,,,59,70
23360,note_on,20,0,4,,,,,,,,,0,,,59,0
23360,note_on,0,0,4,,,,,,,,,0,,,60,40
23380,note_on,0,0,4,,,,,,,,,0,,,59,40
23380,note_on,20,0,4,,,,,,,,,0,,,60,0
23400,note_on,20,0,4,,,,,,,,,0,,,59,0
23400,note_on,0,0,4,,,,,,,,,0,,,60,40
23415,note_on,0,0,4,,,,,,,,,0,,,59,40
23415,note_on,15,0,4,,,,,,,,,0,,,60,0
23430,note_on,0,0,4,,,,,,,,,0,,,58,40
23430,note_on,15,0,4,,,,,,,,,0,,,59,0
23445,note_on,0,0,4,,,,,,,,,0,,,59,40
23445,note_on,15,0,4,,,,,,,,,0,,,58,0
23460,note_on,15,0,4,,,,,,,,,0,,,59,0
23460,note_on,120,0,1,,,,,,,,,0,,,60,70
23460,time_signature,10080,1,0,7,4,24,8,,,,,,,,,
23460,marker,0,1,0,,,,,,,,,,,,,
23480,note_on,0,0,1,,,,,,,,,0,,,61,40
23480,note_on,20,0,1,,,,,,,,,0,,,60,0
23500,note_on,20,0,1,,,,,,,,,0,,,61,0
23500,note_on,0,0,1,,,,,,,,,0,,,60,40
23520,note_on,0,0,1,,,,,,,,,0,,,61,40
23520,note_on,20,0,1,,,,,,,,,0,,,60,0
23535,note_on,15,0,1,,,,,,,,,0,,,61,0
23535,note_on,0,0,1,,,,,,,,,0,,,60,40
23550,note_on,0,0,1,,,,,,,,,0,,,59,40
23550,note_on,15,0,1,,,,,,,,,0,,,60,0
23565,note_on,15,0,1,,,,,,,,,0,,,59,0
23565,note_on,0,0,1,,,,,,,,,0,,,60,40
23580,note_on,15,0,1,,,,,,,,,0,,,60,0
23580,note_on,120,0,4,,,,,,,,,0,,,61,70
23600,note_on,20,0,4,,,,,,,,,0,,,61,0
23600,note_on,0,0,4,,,,,,,,,0,,,62,40
23620,note_on,20,0,4,,,,,,,,,0,,,62,0
23620,note_on,0,0,4,,,,,,,,,0,,,61,40
23640,note_on,0,0,4,,,,,,,,,0,,,62,40
23640,note_on,20,0,4,,,,,,,,,0,,,61,0
23655,note_on,0,0,4,,,,,,,,,0,,,61,40
23655,note_on,15,0,4,,,,,,,,,0,,,62,0
23670,note_on,15,0,4,,,,,,,,,0,,,61,0
23670,note_on,0,0,4,,,,,,,,,0,,,60,40
23685,note_on,15,0,4,,,,,,,,,0,,,60,0
23685,note_on,0,0,4,,,,,,,,,0,,,61,40
23700,note_on,15,0,4,,,,,,,,,0,,,61,0
23700,note_on,120,0,1,,,,,,,,,0,,,62,40
23730,note_on,30,0,1,,,,,,,,,0,,,62,0
23820,set_tempo,360,1,0,,,,,,1875000,,,,,,,
23940,note_on,210,0,1,,,,,,,,,0,,,81,80
23940,set_tempo,120,1,0,,,,,,1071429,,,,,,,
23947,note_on,7,0,1,,,,,,,,,0,,,82,60
23952,note_on,5,0,1,,,,,,,,,0,,,81,0
23959,note_on,0,0,1,,,,,,,,,0,,,87,60
23959,note_on,7,0,1,,,,,,,,,0,,,82,0
23971,note_on,0,0,1,,,,,,,,,0,,,84,60
23971,note_on,12,0,1,,,,,,,,,0,,,87,0
23982,note_on,11,0,1,,,,,,,,,0,,,82,60
23983,note_on,1,0,1,,,,,,,,,0,,,84,0
23993,note_on,10,0,1,,,,,,,,,0,,,80,60
23994,note_on,1,0,1,,,,,,,,,0,,,82,0
24004,note_on,10,0,1,,,,,,,,,0,,,79,60
24005,note_on,1,0,1,,,,,,,,,0,,,80,0
24015,note_on,975,0,3,,,,,,,,,0,,,77,60
24016,note_on,11,0,1,,,,,,,,,0,,,79,0
24027,note_on,12,0,3,,,,,,,,,0,,,77,0
24028,note_on,1,0,3,,,,,,,,,0,,,75,60
24037,note_on,9,0,3,,,,,,,,,0,,,74,60
24040,note_on,3,0,3,,,,,,,,,0,,,75,0
24048,note_on,8,0,3,,,,,,,,,0,,,72,60
24049,note_on,1,0,3,,,,,,,,,0,,,74,0
24060,note_on,0,0,3,,,,,,,,,0,,,70,60
24060,set_tempo,120,1,0,,,,,,652174,,,,,,,
24060,note_on,11,0,3,,,,,,,,,0,,,72,0
24090,note_on,30,0,3,,,,,,,,,0,,,70,0
24120,note_on,0,0,1,,,,,,,,,0,,,63,60
24120,note_on,0,0,4,,,,,,,,,0,,,46,60
24120,note_on,104,0,1,,,,,,,,,0,,,55,60
24120,note_on,420,0,4,,,,,,,,,0,,,39,60
24120,note_on,0,0,1,,,,,,,,,0,,,58,60
24150,note_on,30,0,4,,,,,,,,,0,,,46,0
24150,note_on,30,0,1,,,,,,,,,0,,,63,0
24150,note_on,0,0,4,,,,,,,,,0,,,39,0
24150,note_on,0,0,1,,,,,,,,,0,,,58,0
24150,note_on,0,0,1,,,,,,,,,0,,,55,0
24180,note_on,30,0,1,,,,,,,,,0,,,56,60
24180,note_on,30,0,4,,,,,,,,,0,,,46,60
24180,note_on,0,0,1,,,,,,,,,0,,,65,60
24180,note_on,0,0,1,,,,,,,,,0,,,58,60
24180,note_on,0,0,4,,,,,,,,,0,,,39,60
24210,note_on,30,0,4,,,,,,,,,0,,,39,0
24210,note_on,0,0,4,,,,,,,,,0,,,46,0
24210,note_on,30,0,1,,,,,,,,,0,,,65,0
24210,note_on,0,0,1,,,,,,,,,0,,,58,0
24210,note_on,0,0,1,,,,,,,,,0,,,56,0
24240,note_on,0,0,1,,,,,,,,,0,,,58,60
24240,note_on,30,0,4,,,,,,,,,0,,,39,60
24240,note_on,30,0,1,,,,,,,,,0,,,57,60
24240,note_on,0,0,1,,,,,,,,,0,,,66,60
24240,note_on,0,0,4,,,,,,,,,0,,,46,60
24270,note_on,30,0,4,,,,,,,,,0,,,46,0
24270,note_on,30,0,1,,,,,,,,,0,,,66,0
24270,note_on,0,0,1,,,,,,,,,0,,,58,0
24270,note_on,0,0,4,,,,,,,,,0,,,39,0
24270,note_on,0,0,1,,,,,,,,,0,,,57,0
24300,note_on,30,0,4,,,,,,,,,0,,,46,60
24300,note_on,0,0,1,,,,,,,,,0,,,67,80
24300,time_signature,240,1,0,4,4,24,8,,,,,,,,,
24300,note_on,0,0,4,,,,,,,,,0,,,39,60
24300,note_on,30,0,1,,,,,,,,,0,,,58,80
24360,note_on,60,0,1,,,,,,,,,0,,,67,0
24360,note_on,0,0,1,,,,,,,,,0,,,55,60
24360,note_on,0,0,1,,,,,,,,,0,,,58,0
24360,note_on,0,0,1,,,,,,,,,0,,,63,60
24390,note_on,0,0,1,,,,,,,,,0,,,55,0
24390,note_on,30,0,1,,,,,,,,,0,,,63,0
24420,note_on,120,0,4,,,,,,,,,0,,,39,0
24420,note_on,0,0,4,,,,,,,,,0,,,46,0
24420,set_tempo,120,1,0,,,,,,1071429,,,,,,,
24420,note_on,30,0,1,,,,,,,,,0,,,81,80
24427,note_on,7,0,1,,,,,,,,,0,,,82,60
24429,note_on,2,0,1,,,,,,,,,0,,,81,0
24436,note_on,7,0,1,,,,,,,,,0,,,82,0
24436,note_on,0,0,1,,,,,,,,,0,,,92,60
24445,note_on,9,0,1,,,,,,,,,0,,,92,0
24445,note_on,0,0,1,,,,,,,,,0,,,89,60
24453,note_on,8,0,1,,,,,,,,,0,,,87,60
24454,note_on,1,0,1,,,,,,,,,0,,,89,0
24462,note_on,8,0,1,,,,,,,,,0,,,87,0
24462,note_on,0,0,1,,,,,,,,,0,,,86,60
24470,note_on,8,0,1,,,,,,,,,0,,,84,60
24471,note_on,1,0,1,,,,,,,,,0,,,86,0
24478,note_on,7,0,1,,,,,,,,,0,,,82,60
24479,note_on,1,0,1,,,,,,,,,0,,,84,0
24487,note_on,0,0,1,,,,,,,,,0,,,80,60
24487,note_on,8,0,1,,,,,,,,,0,,,82,0
24496,note_on,0,0,1,,,,,,,,,0,,,79,60
24496,note_on,9,0,1,,,,,,,,,0,,,80,0
24505,note_on,9,0,1,,,,,,,,,0,,,79,0
24505,note_on,415,0,3,,,,,,,,,0,,,77,60
24513,note_on,8,0,3,,,,,,,,,0,,,75,60
24514,note_on,1,0,3,,,,,,,,,0,,,77,0
24522,note_on,8,0,3,,,,,,,,,0,,,75,0
24522,note_on,0,0,3,,,,,,,,,0,,,74,60
24531,note_on,9,0,3,,,,,,,,,0,,,74,0
24531,note_on,0,0,3,,,,,,,,,0,,,72,60
24540,set_tempo,120,1,0,,,,,,652174,,,,,,,
24540,note_on,9,0,3,,,,,,,,,0,,,72,0
24540,note_on,0,0,3,,,,,,,,,0,,,70,60
24570,note_on,30,0,3,,,,,,,,,0,,,70,0
24600,note_on,95,0,1,,,,,,,,,0,,,55,60
24600,note_on,0,0,1,,,,,,,,,0,,,58,60
24600,note_on,180,0,4,,,,,,,,,0,,,39,60
24600,note_on,0,0,1,,,,,,,,,0,,,63,60
24600,note_on,0,0,4,,,,,,,,,0,,,46,60
24630,note_on,0,0,4,,,,,,,,,0,,,39,0
24630,note_on,30,0,1,,,,,,,,,0,,,63,0
24630,note_on,30,0,4,,,,,,,,,0,,,46,0
24630,note_on,0,0,1,,,,,,,,,0,,,55,0
24630,note_on,0,0,1,,,,,,,,,0,,,58,0
24660,note_on,0,0,4,,,,,,,,,0,,,39,60
24660,note_on,30,0,1,,,,,,,,,0,,,56,60
24660,note_on,0,0,1,,,,,,,,,0,,,65,60
24660,note_on,30,0,4,,,,,,,,,0,,,46,60
24660,note_on,0,0,1,,,,,,,,,0,,,62,60
24690,note_on,0,0,4,,,,,,,,,0,,,46,0
24690,note_on,30,0,1,,,,,,,,,0,,,65,0
24690,note_on,30,0,4,,,,,,,,,0,,,39,0
24690,note_on,0,0,1,,,,,,,,,0,,,62,0
24690,note_on,0,0,1,,,,,,,,,0,,,56,0
24720,note_on,30,0,1,,,,,,,,,0,,,58,60
24720,note_on,0,0,1,,,,,,,,,0,,,67,60
24720,note_on,30,0,4,,,,,,,,,0,,,39,60
24720,note_on,0,0,4,,,,,,,,,0,,,46,60
24750,note_on,30,0,4,,,,,,,,,0,,,46,0
24750,note_on,30,0,1,,,,,,,,,0,,,67,0
24750,note_on,0,0,1,,,,,,,,,0,,,58,0
24750,note_on,0,0,4,,,,,,,,,0,,,39,0
24780,note_on,30,0,4,,,,,,,,,0,,,39,60
24780,note_on,0,0,1,,,,,,,,,0,,,63,60
24780,note_on,30,0,1,,,,,,,,,0,,,55,60
24780,note_on,0,0,4,,,,,,,,,0,,,46,60
24900,note_on,120,0,4,,,,,,,,,0,,,46,0
24900,note_on,0,0,1,,,,,,,,,0,,,93,80
24900,set_tempo,360,1,0,,,,,,1071429,,,,,,,
24900,note_on,0,0,4,,,,,,,,,0,,,39,0
24900,note_on,0,0,1,,,,,,,,,0,,,55,0
24900,note_on,120,0,1,,,,,,,,,0,,,63,0
24902,note_on,2,0,1,,,,,,,,,0,,,94,60
24908,note_on,6,0,1,,,,,,,,,0,,,93,0
24910,note_on,2,0,1,,,,,,,,,0,,,94,0
24910,note_on,0,0,1,,,,,,,,,0,,,99,60
24917,note_on,7,0,1,,,,,,,,,0,,,98,60
24918,note_on,1,0,1,,,,,,,,,0,,,99,0
24922,note_on,4,0,1,,,,,,,,,0,,,96,60
24925,note_on,3,0,1,,,,,,,,,0,,,98,0
24928,note_on,3,0,1,,,,,,,,,0,,,94,60
24930,note_on,2,0,1,,,,,,,,,0,,,96,0
24936,note_on,0,0,1,,,,,,,,,0,,,92,60
24936,note_on,6,0,1,,,,,,,,,0,,,94,0
24942,note_on,6,0,1,,,,,,,,,0,,,91,60
24944,note_on,2,0,1,,,,,,,,,0,,,92,0
24947,note_on,377,0,3,,,,,,,,,0,,,89,60
24950,note_on,6,0,1,,,,,,,,,0,,,91,0
24954,note_on,7,0,3,,,,,,,,,0,,,87,60
24955,note_on,1,0,3,,,,,,,,,0,,,89,0
24962,note_on,7,0,3,,,,,,,,,0,,,87,0
24962,note_on,0,0,3,,,,,,,,,0,,,86,60
24967,note_on,5,0,3,,,,,,,,,0,,,84,60
24970,note_on,3,0,3,,,,,,,,,0,,,86,0
24973,note_on,3,0,3,,,,,,,,,0,,,82,60
24975,note_on,2,0,3,,,,,,,,,0,,,84,0
24980,note_on,30,0,1,,,,,,,,,0,,,80,60
24981,note_on,6,0,3,,,,,,,,,0,,,82,0
24987,note_on,7,0,1,,,,,,,,,0,,,79,60
24988,note_on,1,0,1,,,,,,,,,0,,,80,0
24992,note_on,4,0,1,,,,,,,,,0,,,77,60
24995,note_on,3,0,1,,,,,,,,,0,,,79,0
24999,note_on,4,0,1,,,,,,,,,0,,,75,60
25000,note_on,1,0,1,,,,,,,,,0,,,77,0
25005,note_on,5,0,1,,,,,,,,,0,,,74,60
25007,note_on,2,0,1,,,,,,,,,0,,,75,0
25012,note_on,5,0,1,,,,,,,,,0,,,72,60
25013,note_on,1,0,1,,,,,,,,,0,,,74,0
25020,note_on,39,0,3,,,,,,,,,0,,,70,60
25020,note_on,7,0,1,,,,,,,,,0,,,72,0
25020,set_tempo,120,1,0,,,,,,652174,,,,,,,
25050,note_on,30,0,3,,,,,,,,,0,,,70,0
25080,note_on,180,0,4,,,,,,,,,0,,,39,60
25080,note_on,0,0,3,,,,,,,,,0,,,58,60
25080,note_on,0,0,4,,,,,,,,,0,,,46,60
25080,note_on,0,0,3,,,,,,,,,0,,,63,60
25080,note_on,30,0,3,,,,,,,,,0,,,55,60
25110,note_on,30,0,3,,,,,,,,,0,,,63,0
25110,note_on,0,0,4,,,,,,,,,0,,,39,0
25110,note_on,0,0,3,,,,,,,,,0,,,55,0
25110,note_on,0,0,3,,,,,,,,,0,,,58,0
25110,note_on,30,0,4,,,,,,,,,0,,,46,0
25140,note_on,30,0,3,,,,,,,,,0,,,56,60
25140,note_on,0,0,4,,,,,,,,,0,,,39,60
25140,note_on,0,0,3,,,,,,,,,0,,,58,60
25140,note_on,0,0,3,,,,,,,,,0,,,65,60
25140,note_on,30,0,4,,,,,,,,,0,,,46,60
25170,note_on,0,0,4,,,,,,,,,0,,,46,0
25170,note_on,30,0,4,,,,,,,,,0,,,39,0
25170,note_on,0,0,3,,,,,,,,,0,,,56,0
25170,note_on,30,0,3,,,,,,,,,0,,,65,0
25170,note_on,0,0,3,,,,,,,,,0,,,58,0
25200,note_on,0,0,3,,,,,,,,,0,,,58,60
25200,note_on,30,0,4,,,,,,,,,0,,,46,60
25200,note_on,0,0,3,,,,,,,,,0,,,66,60
25200,note_on,30,0,3,,,,,,,,,0,,,57,60
25200,note_on,0,0,4,,,,,,,,,0,,,39,60
25230,note_on,30,0,3,,,,,,,,,0,,,66,0
25230,note_on,30,0,4,,,,,,,,,0,,,39,0
25230,note_on,0,0,3,,,,,,,,,0,,,58,0
25230,note_on,0,0,3,,,,,,,,,0,,,57,0
25230,note_on,0,0,4,,,,,,,,,0,,,46,0
25260,note_on,0,0,1,,,,,,,,,0,,,67,80
25260,note_on,0,0,4,,,,,,,,,0,,,46,60
25260,note_on,30,0,4,,,,,,,,,0,,,39,60
25260,note_on,240,0,1,,,,,,,,,0,,,58,80
25320,note_on,60,0,1,,,,,,,,,0,,,67,0
25320,note_on,0,0,1,,,,,,,,,0,,,55,60
25320,note_on,0,0,1,,,,,,,,,0,,,58,0
25320,note_on,0,0,1,,,,,,,,,0,,,63,60
25350,note_on,0,0,1,,,,,,,,,0,,,55,0
25350,note_on,30,0,1,,,,,,,,,0,,,63,0
25380,note_on,0,0,4,,,,,,,,,0,,,39,0
25380,set_tempo,360,1,0,,,,,,1071429,,,,,,,
25380,note_on,30,0,1,,,,,,,,,0,,,92,80
25380,note_on,120,0,4,,,,,,,,,0,,,46,0
25384,note_on,4,0,1,,,,,,,,,0,,,94,60
25386,note_on,2,0,1,,,,,,,,,0,,,92,0
25390,note_on,4,0,1,,,,,,,,,0,,,94,0
25390,note_on,0,0,1,,,,,,,,,0,,,103,60
25396,note_on,0,0,1,,,,,,,,,0,,,101,60
25396,note_on,6,0,1,,,,,,,,,0,,,103,0
25402,note_on,6,0,1,,,,,,,,,0,,,101,0
25402,note_on,0,0,1,,,,,,,,,0,,,99,60
25407,note_on,5,0,1,,,,,,,,,0,,,98,60
25408,note_on,1,0,1,,,,,,,,,0,,,99,0
25413,note_on,5,0,1,,,,,,,,,0,,,98,0
25414,note_on,1,0,1,,,,,,,,,0,,,96,60
25418,note_on,4,0,1,,,,,,,,,0,,,94,60
25420,note_on,2,0,1,,,,,,,,,0,,,96,0
25424,note_on,4,0,1,,,,,,,,,0,,,94,0
25425,note_on,1,0,1,,,,,,,,,0,,,92,60
25431,note_on,6,0,1,,,,,,,,,0,,,92,0
25431,note_on,0,0,1,,,,,,,,,0,,,91,60
25437,note_on,6,0,1,,,,,,,,,0,,,91,0
25437,note_on,207,0,3,,,,,,,,,0,,,89,60
25441,note_on,4,0,3,,,,,,,,,0,,,87,60
25443,note_on,2,0,3,,,,,,,,,0,,,89,0
25447,note_on,4,0,3,,,,,,,,,0,,,87,0
25448,note_on,1,0,3,,,,,,,,,0,,,86,60
25454,note_on,0,0,3,,,,,,,,,0,,,84,60
25454,note_on,6,0,3,,,,,,,,,0,,,86,0
25459,note_on,5,0,3,,,,,,,,,0,,,82,60
25460,note_on,1,0,3,,,,,,,,,0,,,84,0
25465,note_on,5,0,3,,,,,,,,,0,,,82,0
25465,note_on,28,0,1,,,,,,,,,0,,,80,60
25471,note_on,6,0,1,,,,,,,,,0,,,80,0
25472,note_on,1,0,1,,,,,,,,,0,,,79,60
25476,note_on,4,0,1,,,,,,,,,0,,,77,60
25478,note_on,2,0,1,,,,,,,,,0,,,79,0
25482,note_on,0,0,1,,,,,,,,,0,,,75,60
25482,note_on,4,0,1,,,,,,,,,0,,,77,0
25488,note_on,0,0,1,,,,,,,,,0,,,74,60
25488,note_on,6,0,1,,,,,,,,,0,,,75,0
25494,note_on,0,0,1,,,,,,,,,0,,,72,60
25494,note_on,6,0,1,,,,,,,,,0,,,74,0
25500,set_tempo,120,1,0,,,,,,652174,,,,,,,
25500,note_on,35,0,3,,,,,,,,,0,,,70,60
25500,note_on,6,0,1,,,,,,,,,0,,,72,0
25530,note_on,30,0,3,,,,,,,,,0,,,70,0
25560,note_on,180,0,4,,,,,,,,,0,,,39,60
25560,note_on,0,0,4,,,,,,,,,0,,,46,60
25560,note_on,60,0,1,,,,,,,,,0,,,55,60
25560,note_on,0,0,1,,,,,,,,,0,,,63,60
25560,note_on,0,0,1,,,,,,,,,0,,,58,60
25590,note_on,0,0,1,,,,,,,,,0,,,58,0
25590,note_on,0,0,1,,,,,,,,,0,,,55,0
25590,note_on,30,0,4,,,,,,,,,0,,,46,0
25590,note_on,0,0,4,,,,,,,,,0,,,39,0
25590,note_on,30,0,1,,,,,,,,,0,,,63,0
25620,note_on,0,0,4,,,,,,,,,0,,,47,60
25620,note_on,30,0,4,,,,,,,,,0,,,39,60
25620,note_on,0,0,1,,,,,,,,,0,,,62,60
25620,note_on,30,0,1,,,,,,,,,0,,,56,60
25620,note_on,0,0,1,,,,,,,,,0,,,65,60
25650,note_on,30,0,4,,,,,,,,,0,,,47,0
25650,note_on,0,0,1,,,,,,,,,0,,,62,0
25650,note_on,30,0,1,,,,,,,,,0,,,65,0
25650,note_on,0,0,4,,,,,,,,,0,,,39,0
25650,note_on,0,0,1,,,,,,,,,0,,,56,0
25680,note_on,0,0,1,,,,,,,,,0,,,62,60
25680,note_on,0,0,4,,,,,,,,,0,,,46,60
25680,note_on,30,0,4,,,,,,,,,0,,,39,60
25680,note_on,0,0,1,,,,,,,,,0,,,56,60
25680,note_on,30,0,1,,,,,,,,,0,,,67,60
25710,note_on,0,0,1,,,,,,,,,0,,,67,0
25710,note_on,30,0,1,,,,,,,,,0,,,56,0
25710,note_on,0,0,1,,,,,,,,,0,,,62,0
25710,note_on,30,0,4,,,,,,,,,0,,,46,0
25710,note_on,0,0,4,,,,,,,,,0,,,39,0
25740,note_on,30,0,1,,,,,,,,,0,,,55,60
25740,note_on,0,0,1,,,,,,,,,0,,,63,60
25740,note_on,0,0,4,,,,,,,,,0,,,46,60
25740,note_on,30,0,4,,,,,,,,,0,,,39,60
25740,note_on,0,0,4,,,,,,,,,0,,,51,60
25860,note_on,0,0,4,,,,,,,,,0,,,39,0
25860,set_tempo,360,1,0,,,,,,1071429,,,,,,,
25860,note_on,120,0,1,,,,,,,,,0,,,63,0
25860,note_on,0,0,4,,,,,,,,,0,,,46,80
25860,note_on,120,0,4,,,,,,,,,0,,,51,0
25860,note_on,0,0,4,,,,,,,,,0,,,46,0
25860,note_on,0,0,1,,,,,,,,,0,,,55,0
25870,note_on,0,0,4,,,,,,,,,0,,,45,60
25870,note_on,10,0,4,,,,,,,,,0,,,46,0
25880,note_on,0,0,4,,,,,,,,,0,,,44,60
25880,note_on,10,0,4,,,,,,,,,0,,,45,0
25890,note_on,0,0,4,,,,,,,,,0,,,43,60
25890,note_on,10,0,4,,,,,,,,,0,,,44,0
25900,note_on,10,0,4,,,,,,,,,0,,,43,0
25900,note_on,0,0,4,,,,,,,,,0,,,42,60
25910,note_on,10,0,4,,,,,,,,,0,,,42,0
25910,note_on,0,0,4,,,,,,,,,0,,,41,60
25920,note_on,0,0,4,,,,,,,,,0,,,40,60
25920,note_on,10,0,4,,,,,,,,,0,,,41,0
25930,note_on,10,0,4,,,,,,,,,0,,,40,0
25930,note_on,0,0,4,,,,,,,,,0,,,39,60
25940,note_on,10,0,4,,,,,,,,,0,,,39,0
25940,note_on,0,0,4,,,,,,,,,0,,,38,60
25950,note_on,0,0,4,,,,,,,,,0,,,37,60
25950,note_on,10,0,4,,,,,,,,,0,,,38,0
25960,note_on,0,0,4,,,,,,,,,0,,,36,60
25960,note_on,10,0,4,,,,,,,,,0,,,37,0
25970,note_on,10,0,4,,,,,,,,,0,,,36,0
25970,note_on,0,0,4,,,,,,,,,0,,,35,60
25980,note_on,0,0,4,,,,,,,,,0,,,34,60
25980,set_tempo,120,1,0,,,,,,652174,,,,,,,
25980,note_on,10,0,4,,,,,,,,,0,,,35,0
26010,note_on,30,0,4,,,,,,,,,0,,,34,0
26040,note_on,0,0,1,,,,,,,,,0,,,62,60
26040,note_on,180,0,1,,,,,,,,,0,,,58,60
26040,note_on,0,0,4,,,,,,,,,0,,,46,60
26040,note_on,30,0,4,,,,,,,,,0,,,53,60
26070,note_on,30,0,1,,,,,,,,,0,,,62,0
26070,note_on,30,0,4,,,,,,,,,0,,,46,0
26070,note_on,0,0,4,,,,,,,,,0,,,53,0
26070,note_on,0,0,1,,,,,,,,,0,,,58,0
26100,note_on,30,0,1,,,,,,,,,0,,,63,60
26100,note_on,0,0,4,,,,,,,,,0,,,54,60
26100,note_on,0,0,1,,,,,,,,,0,,,58,60
26100,note_on,0,0,1,,,,,,,,,0,,,60,60
26100,note_on,30,0,4,,,,,,,,,0,,,46,60
26130,note_on,0,0,4,,,,,,,,,0,,,46,0
26130,note_on,0,0,1,,,,,,,,,0,,,63,0
26130,note_on,0,0,1,,,,,,,,,0,,,60,0
26130,note_on,30,0,1,,,,,,,,,0,,,58,0
26130,note_on,30,0,4,,,,,,,,,0,,,54,0
26160,note_on,30,0,4,,,,,,,,,0,,,55,60
26160,note_on,0,0,4,,,,,,,,,0,,,46,60
26160,note_on,0,0,1,,,,,,,,,0,,,61,60
26160,note_on,0,0,1,,,,,,,,,0,,,64,60
26160,note_on,30,0,1,,,,,,,,,0,,,58,60
26190,note_on,0,0,4,,,,,,,,,0,,,55,0
26190,note_on,30,0,1,,,,,,,,,0,,,64,0
26190,note_on,0,0,1,,,,,,,,,0,,,58,0
26190,note_on,0,0,1,,,,,,,,,0,,,61,0
26190,note_on,30,0,4,,,,,,,,,0,,,46,0
26220,note_on,0,0,4,,,,,,,,,0,,,46,60
26220,note_on,30,0,1,,,,,,,,,0,,,62,80
26220,note_on,30,0,4,,,,,,,,,0,,,58,60
26220,note_on,0,0,1,,,,,,,,,0,,,65,80
26280,note_on,0,0,1,,,,,,,,,0,,,62,60
26280,note_on,0,0,4,,,,,,,,,0,,,53,60
26280,note_on,60,0,4,,,,,,,,,0,,,58,0
26280,note_on,60,0,1,,,,,,,,,0,,,65,0
26280,note_on,0,0,1,,,,,,,,,0,,,58,60
26280,note_on,0,0,1,,,,,,,,,0,,,62,0
26310,note_on,30,0,4,,,,,,,,,0,,,53,0
26310,note_on,30,0,1,,,,,,,,,0,,,62,0
26310,note_on,0,0,1,,,,,,,,,0,,,58,0
26340,set_tempo,360,1,0,,,,,,1071429,,,,,,,
26340,note_on,0,0,4,,,,,,,,,0,,,34,60
26340,note_on,30,0,4,,,,,,,,,0,,,46,0
26346,note_on,6,0,4,,,,,,,,,0,,,36,60
26350,note_on,4,0,4,,,,,,,,,0,,,34,0
26356,note_on,0,0,4,,,,,,,,,0,,,38,60
26356,note_on,6,0,4,,,,,,,,,0,,,36,0
26366,note_on,10,0,4,,,,,,,,,0,,,38,0
26366,note_on,0,0,4,,,,,,,,,0,,,39,60
26376,note_on,10,0,4,,,,,,,,,0,,,39,0
26376,note_on,0,0,4,,,,,,,,,0,,,41,60
26386,note_on,10,0,4,,,,,,,,,0,,,41,0
26386,note_on,0,0,4,,,,,,,,,0,,,43,60
26393,note_on,7,0,4,,,,,,,,,0,,,45,60
26396,note_on,3,0,4,,,,,,,,,0,,,43,0
26403,note_on,7,0,4,,,,,,,,,0,,,45,0
26403,note_on,0,0,4,,,,,,,,,0,,,46,60
26413,note_on,0,0,4,,,,,,,,,0,,,48,60
26413,note_on,10,0,4,,,,,,,,,0,,,46,0
26423,note_on,10,0,4,,,,,,,,,0,,,48,0
26423,note_on,0,0,4,,,,,,,,,0,,,50,60
26433,note_on,0,0,4,,,,,,,,,0,,,51,60
26433,note_on,10,0,4,,,,,,,,,0,,,50,0
26439,note_on,6,0,4,,,,,,,,,0,,,52,60
26443,note_on,4,0,4,,,,,,,,,0,,,51,0
26449,note_on,6,0,4,,,,,,,,,0,,,52,0
26450,note_on,1,0,4,,,,,,,,,0,,,55,60
26460,note_on,0,0,4,,,,,,,,,0,,,53,60
26460,note_on,10,0,4,,,,,,,,,0,,,55,0
26460,set_tempo,120,1,0,,,,,,652174,,,,,,,
26520,note_on,60,0,4,,,,,,,,,0,,,46,60
26520,note_on,210,0,1,,,,,,,,,0,,,58,60
26520,note_on,0,0,4,,,,,,,,,0,,,41,60
26520,note_on,0,0,1,,,,,,,,,0,,,62,60
26550,note_on,30,0,4,,,,,,,,,0,,,41,0
26550,note_on,0,0,4,,,,,,,,,0,,,46,0
26550,note_on,0,0,1,,,,,,,,,0,,,58,0
26550,note_on,30,0,1,,,,,,,,,0,,,62,0
26580,note_on,0,0,1,,,,,,,,,0,,,63,60
26580,note_on,30,0,4,,,,,,,,,0,,,48,60
26580,note_on,0,0,4,,,,,,,,,0,,,41,60
26580,note_on,30,0,1,,,,,,,,,0,,,57,60
26610,note_on,30,0,1,,,,,,,,,0,,,63,0
26610,note_on,0,0,4,,,,,,,,,0,,,48,0
26610,note_on,0,0,1,,,,,,,,,0,,,57,0
26610,note_on,30,0,4,,,,,,,,,0,,,41,0
26640,note_on,30,0,1,,,,,,,,,0,,,65,60
26640,note_on,30,0,4,,,,,,,,,0,,,50,60
26640,note_on,0,0,1,,,,,,,,,0,,,57,60
26640,note_on,0,0,4,,,,,,,,,0,,,41,60
26670,note_on,30,0,1,,,,,,,,,0,,,57,0
26670,note_on,0,0,4,,,,,,,,,0,,,50,0
26670,note_on,0,0,1,,,,,,,,,0,,,65,0
26670,note_on,30,0,4,,,,,,,,,0,,,41,0
26700,note_on,30,0,4,,,,,,,,,0,,,46,60
26700,note_on,0,0,1,,,,,,,,,0,,,62,60
26700,note_on,30,0,1,,,,,,,,,0,,,58,60
26760,note_on,0,0,4,,,,,,,,,0,,,34,60
26760,note_on,60,0,4,,,,,,,,,0,,,53,0
26790,note_on,30,0,4,,,,,,,,,0,,,34,0
26820,note_on,0,0,1,,,,,,,,,0,,,58,0
26820,note_on,0,0,1,,,,,,,,,0,,,70,80
26820,set_tempo,360,1,0,,,,,,1071429,,,,,,,
26820,note_on,30,0,4,,,,,,,,,0,,,46,0
26820,note_on,120,0,1,,,,,,,,,0,,,62,0
26830,note_on,10,0,1,,,,,,,,,0,,,70,0
26830,note_on,0,0,1,,,,,,,,,0,,,69,60
26840,note_on,10,0,1,,,,,,,,,0,,,69,0
26840,note_on,0,0,1,,,,,,,,,0,,,68,60
26850,note_on,10,0,1,,,,,,,,,0,,,68,0
26850,note_on,0,0,1,,,,,,,,,0,,,67,60
26860,note_on,0,0,1,,,,,,,,,0,,,66,60
26860,note_on,10,0,1,,,,,,,,,0,,,67,0
26870,note_on,0,0,1,,,,,,,,,0,,,65,60
26870,note_on,10,0,1,,,,,,,,,0,,,66,0
26880,note_on,10,0,1,,,,,,,,,0,,,65,0
26880,note_on,0,0,1,,,,,,,,,0,,,64,60
26890,note_on,0,0,1,,,,,,,,,0,,,63,60
26890,note_on,10,0,1,,,,,,,,,0,,,64,0
26900,note_on,0,0,1,,,,,,,,,0,,,62,60
26900,note_on,10,0,1,,,,,,,,,0,,,63,0
26910,note_on,10,0,1,,,,,,,,,0,,,62,0
26910,note_on,0,0,1,,,,,,,,,0,,,61,60
26920,note_on,10,0,1,,,,,,,,,0,,,61,0
26920,note_on,0,0,1,,,,,,,,,0,,,60,60
26930,note_on,10,0,1,,,,,,,,,0,,,60,0
26930,note_on,0,0,1,,,,,,,,,0,,,59,60
26940,note_on,0,0,1,,,,,,,,,0,,,58,60
26940,note_on,10,0,1,,,,,,,,,0,,,59,0
26940,set_tempo,120,1,0,,,,,,652174,,,,,,,
27000,note_on,0,0,1,,,,,,,,,0,,,70,60
27000,note_on,0,0,4,,,,,,,,,0,,,46,60
27000,note_on,0,0,1,,,,,,,,,0,,,74,60
27000,note_on,180,0,4,,,,,,,,,0,,,58,60
27000,note_on,0,0,4,,,,,,,,,0,,,53,60
27000,note_on,0,0,1,,,,,,,,,0,,,62,60
27000,note_on,60,0,1,,,,,,,,,0,,,58,0
27030,note_on,30,0,1,,,,,,,,,0,,,62,0
27030,note_on,30,0,4,,,,,,,,,0,,,46,0
27030,note_on,0,0,1,,,,,,,,,0,,,70,0
27030,note_on,0,0,1,,,,,,,,,0,,,74,0
27030,note_on,0,0,4,,,,,,,,,0,,,58,0
27030,note_on,0,0,4,,,,,,,,,0,,,53,0
27060,note_on,30,0,4,,,,,,,,,0,,,60,60
27060,note_on,0,0,1,,,,,,,,,0,,,70,60
27060,note_on,0,0,4,,,,,,,,,0,,,46,60
27060,note_on,0,0,4,,,,,,,,,0,,,54,60
27060,note_on,30,0,1,,,,,,,,,0,,,75,60
27060,note_on,0,0,1,,,,,,,,,0,,,63,60
27090,note_on,0,0,1,,,,,,,,,0,,,75,0
27090,note_on,0,0,1,,,,,,,,,0,,,70,0
27090,note_on,30,0,1,,,,,,,,,0,,,63,0
27090,note_on,30,0,4,,,,,,,,,0,,,46,0
27090,note_on,0,0,4,,,,,,,,,0,,,54,0
27090,note_on,0,0,4,,,,,,,,,0,,,60,0
27120,note_on,30,0,1,,,,,,,,,0,,,76,60
27120,note_on,0,0,1,,,,,,,,,0,,,70,60
27120,note_on,0,0,1,,,,,,,,,0,,,64,60
27120,note_on,0,0,4,,,,,,,,,0,,,55,60
27120,note_on,0,0,4,,,,,,,,,0,,,46,60
27120,note_on,30,0,4,,,,,,,,,0,,,61,60
27150,note_on,0,0,4,,,,,,,,,0,,,55,0
27150,note_on,0,0,1,,,,,,,,,0,,,70,0
27150,note_on,30,0,4,,,,,,,,,0,,,46,0
27150,note_on,0,0,1,,,,,,,,,0,,,76,0
27150,note_on,0,0,4,,,,,,,,,0,,,61,0
27150,note_on,30,0,1,,,,,,,,,0,,,64,0
27180,note_on,30,0,1,,,,,,,,,0,,,77,60
27180,note_on,0,0,1,,,,,,,,,0,,,70,80
27180,note_on,0,0,4,,,,,,,,,0,,,46,60
27180,note_on,0,0,4,,,,,,,,,0,,,53,60
27180,note_on,30,0,4,,,,,,,,,0,,,62,60
27180,note_on,0,0,1,,,,,,,,,0,,,65,80
27240,note_on,0,0,4,,,,,,,,,0,,,58,60
27240,note_on,60,0,4,,,,,,,,,0,,,62,0
27240,note_on,60,0,1,,,,,,,,,0,,,77,0
27240,note_on,0,0,1,,,,,,,,,0,,,74,60
27270,note_on,30,0,4,,,,,,,,,0,,,58,0
27270,note_on,30,0,1,,,,,,,,,0,,,74,0
27300,note_on,0,0,4,,,,,,,,,0,,,53,0
27300,note_on,0,0,4,,,,,,,,,0,,,46,61
27300,set_tempo,360,1,0,,,,,,1071429,,,,,,,
27300,note_on,0,0,1,,,,,,,,,0,,,70,0
27300,note_on,30,0,4,,,,,,,,,0,,,46,0
27300,note_on,30,0,1,,,,,,,,,0,,,65,0
27306,note_on,6,0,4,,,,,,,,,0,,,48,62
27310,note_on,4,0,4,,,,,,,,,0,,,46,0
27316,note_on,6,0,4,,,,,,,,,0,,,48,0
27316,note_on,0,0,4,,,,,,,,,0,,,50,62
27326,note_on,0,0,4,,,,,,,,,0,,,51,62
27326,note_on,10,0,4,,,,,,,,,0,,,50,0
27336,note_on,0,0,4,,,,,,,,,0,,,53,62
27336,note_on,10,0,4,,,,,,,,,0,,,51,0
27346,note_on,10,0,4,,,,,,,,,0,,,53,0
27346,note_on,0,0,4,,,,,,,,,0,,,55,62
27353,note_on,7,0,4,,,,,,,,,0,,,57,62
27356,note_on,3,0,4,,,,,,,,,0,,,55,0
27363,note_on,0,0,4,,,,,,,,,0,,,58,62
27363,note_on,7,0,4,,,,,,,,,0,,,57,0
27373,note_on,10,0,4,,,,,,,,,0,,,58,0
27373,note_on,73,0,1,,,,,,,,,0,,,60,63
27383,note_on,0,0,1,,,,,,,,,0,,,62,63
27383,note_on,10,0,1,,,,,,,,,0,,,60,0
27393,note_on,0,0,1,,,,,,,,,0,,,63,63
27393,note_on,10,0,1,,,,,,,,,0,,,62,0
27399,note_on,6,0,1,,,,,,,,,0,,,64,63
27403,note_on,4,0,1,,,,,,,,,0,,,63,0
27409,note_on,6,0,1,,,,,,,,,0,,,64,0
27410,note_on,1,0,1,,,,,,,,,0,,,67,63
27420,note_on,0,0,1,,,,,,,,,0,,,65,63
27420,set_tempo,120,1,0,,,,,,652174,,,,,,,
27420,note_on,10,0,1,,,,,,,,,0,,,67,0
27480,note_on,60,0,1,,,,,,,,,0,,,74,64
27480,note_on,0,0,1,,,,,,,,,0,,,68,64
27480,note_on,0,0,4,,,,,,,,,0,,,53,64
27480,note_on,107,0,4,,,,,,,,,0,,,59,64
27540,note_on,0,0,4,,,,,,,,,0,,,53,65
27540,note_on,60,0,1,,,,,,,,,0,,,68,0
27540,note_on,0,0,1,,,,,,,,,0,,,69,65
27540,note_on,0,0,4,,,,,,,,,0,,,60,65
27540,note_on,0,0,4,,,,,,,,,0,,,59,0
27540,note_on,0,0,1,,,,,,,,,0,,,74,0
27540,note_on,0,0,1,,,,,,,,,0,,,75,65
27540,note_on,60,0,4,,,,,,,,,0,,,53,0
27560,note_on,0,0,1,,,,,,,,,0,,,65,66
27560,note_on,20,0,1,,,,,,,,,0,,,65,0
27580,note_on,0,0,1,,,,,,,,,0,,,67,66
27580,note_on,20,0,1,,,,,,,,,0,,,65,0
27600,note_on,20,0,1,,,,,,,,,0,,,67,0
27600,note_on,0,0,1,,,,,,,,,0,,,69,0
27600,note_on,0,0,4,,,,,,,,,0,,,56,66
27600,note_on,0,0,4,,,,,,,,,0,,,60,0
27600,note_on,0,0,4,,,,,,,,,0,,,65,66
27600,note_on,0,0,4,,,,,,,,,0,,,53,66
27600,note_on,0,0,1,,,,,,,,,0,,,63,66
27600,note_on,0,0,1,,,,,,,,,0,,,75,0
27600,note_on,60,0,4,,,,,,,,,0,,,53,0
27600,note_on,0,0,1,,,,,,,,,0,,,72,66
27600,note_on,0,0,1,,,,,,,,,0,,,77,66
27620,note_on,0,0,1,,,,,,,,,0,,,60,67
27620,note_on,20,0,1,,,,,,,,,0,,,63,0
27640,note_on,0,0,1,,,,,,,,,0,,,62,67
27640,note_on,20,0,1,,,,,,,,,0,,,60,0
27660,note_on,60,0,4,,,,,,,,,0,,,53,0
27660,note_on,0,0,4,,,,,,,,,0,,,65,0
27660,note_on,0,0,1,,,,,,,,,0,,,77,0
27660,note_on,0,0,1,,,,,,,,,0,,,72,0
27660,note_on,0,0,4,,,,,,,,,0,,,46,67
27660,note_on,20,0,1,,,,,,,,,0,,,62,0
27660,note_on,0,0,4,,,,,,,,,0,,,56,0
27665,note_on,5,0,4,,,,,,,,,0,,,53,67
27670,note_on,5,0,4,,,,,,,,,0,,,62,68
27675,note_on,15,0,1,,,,,,,,,0,,,58,68
27680,note_on,5,0,1,,,,,,,,,0,,,65,68
27685,note_on,5,0,1,,,,,,,,,0,,,70,68
27690,note_on,5,0,1,,,,,,,,,0,,,74,68
27780,note_on,0,0,1,,,,,,,,,0,,,82,69
27780,note_on,0,0,1,,,,,,,,,0,,,70,0
27780,note_on,0,0,4,,,,,,,,,0,,,53,0
27780,note_on,110,0,4,,,,,,,,,0,,,62,0
27780,note_on,0,0,1,,,,,,,,,0,,,58,0
27780,note_on,90,0,1,,,,,,,,,0,,,74,0
27780,note_on,0,0,1,,,,,,,,,0,,,65,0
27780,note_on,0,0,1,,,,,,,,,0,,,77,69
27780,note_on,0,0,1,,,,,,,,,0,,,73,69
27780,note_on,0,0,4,,,,,,,,,0,,,46,0
27780,set_tempo,360,1,0,,,,,,1071429,,,,,,,
27798,note_on,0,0,1,,,,,,,,,0,,,81,70
27798,note_on,18,0,1,,,,,,,,,0,,,73,0
27798,note_on,0,0,1,,,,,,,,,0,,,77,0
27798,note_on,0,0,1,,,,,,,,,0,,,82,0
27804,note_on,0,0,1,,,,,,,,,0,,,72,70
27804,note_on,0,0,1,,,,,,,,,0,,,80,70
27804,note_on,6,0,1,,,,,,,,,0,,,81,0
27816,note_on,0,0,1,,,,,,,,,0,,,71,70
27816,note_on,0,0,1,,,,,,,,,0,,,72,0
27816,note_on,0,0,1,,,,,,,,,0,,,74,70
27816,note_on,0,0,1,,,,,,,,,0,,,79,70
27816,note_on,12,0,1,,,,,,,,,0,,,80,0
27828,note_on,0,0,1,,,,,,,,,0,,,70,70
27828,note_on,0,0,1,,,,,,,,,0,,,74,0
27828,note_on,0,0,1,,,,,,,,,0,,,78,70
27828,note_on,12,0,1,,,,,,,,,0,,,71,0
27828,note_on,0,0,1,,,,,,,,,0,,,79,0
27840,note_on,0,0,1,,,,,,,,,0,,,72,70
27840,note_on,12,0,1,,,,,,,,,0,,,70,0
27840,note_on,0,0,1,,,,,,,,,0,,,69,70
27840,note_on,0,0,1,,,,,,,,,0,,,77,70
27840,note_on,0,0,1,,,,,,,,,0,,,78,0
27852,note_on,12,0,1,,,,,,,,,0,,,69,0
27852,note_on,0,0,1,,,,,,,,,0,,,68,71
27852,note_on,0,0,1,,,,,,,,,0,,,77,0
27852,note_on,0,0,1,,,,,,,,,0,,,76,71
27852,note_on,0,0,1,,,,,,,,,0,,,72,0
27864,note_on,12,0,1,,,,,,,,,0,,,68,0
27864,note_on,0,0,1,,,,,,,,,0,,,70,71
27864,note_on,0,0,1,,,,,,,,,0,,,75,71
27864,note_on,0,0,1,,,,,,,,,0,,,76,0
27864,note_on,0,0,1,,,,,,,,,0,,,67,71
27876,note_on,12,0,1,,,,,,,,,0,,,67,0
27876,note_on,0,0,1,,,,,,,,,0,,,75,0
27876,note_on,0,0,1,,,,,,,,,0,,,66,71
27876,note_on,0,0,1,,,,,,,,,0,,,70,0
27876,note_on,0,0,1,,,,,,,,,0,,,74,71
27888,note_on,0,0,1,,,,,,,,,0,,,74,71
27888,note_on,12,0,1,,,,,,,,,0,,,74,0
27888,note_on,0,0,1,,,,,,,,,0,,,66,0
27888,note_on,0,0,1,,,,,,,,,0,,,68,71
27888,note_on,0,0,1,,,,,,,,,0,,,65,71
27900,note_on,0,0,1,,,,,,,,,0,,,64,71
27900,set_tempo,120,1,0,,,,,,652174,,,,,,,
27900,note_on,0,0,1,,,,,,,,,0,,,65,0
27900,note_on,0,0,1,,,,,,,,,0,,,67,71
27900,note_on,0,0,1,,,,,,,,,0,,,68,0
27900,note_on,0,0,1,,,,,,,,,0,,,72,71
27900,note_on,12,0,1,,,,,,,,,0,,,74,0
27930,note_on,0,0,1,,,,,,,,,0,,,72,0
27930,note_on,0,0,1,,,,,,,,,0,,,67,0
27930,note_on,30,0,1,,,,,,,,,0,,,64,0
27960,note_on,0,0,1,,,,,,,,,0,,,58,72
27960,note_on,0,0,1,,,,,,,,,0,,,64,72
27960,note_on,180,0,4,,,,,,,,,0,,,48,72
27960,note_on,30,0,1,,,,,,,,,0,,,55,72
27970,note_on,0,0,4,,,,,,,,,0,,,49,72
27970,note_on,10,0,4,,,,,,,,,0,,,48,0
27980,note_on,0,0,4,,,,,,,,,0,,,48,73
27980,note_on,10,0,4,,,,,,,,,0,,,49,0
27990,note_on,0,0,4,,,,,,,,,0,,,47,73
27990,note_on,0,0,1,,,,,,,,,0,,,58,0
27990,note_on,30,0,1,,,,,,,,,0,,,64,0
27990,note_on,0,0,1,,,,,,,,,0,,,55,0
27990,note_on,10,0,4,,,,,,,,,0,,,48,0
28000,note_on,0,0,4,,,,,,,,,0,,,46,73
28000,note_on,10,0,4,,,,,,,,,0,,,47,0
28010,note_on,10,0,4,,,,,,,,,0,,,46,0
28010,note_on,0,0,4,,,,,,,,,0,,,45,73
28020,note_on,0,0,1,,,,,,,,,0,,,61,73
28020,note_on,0,0,4,,,,,,,,,0,,,44,73
28020,note_on,0,0,1,,,,,,,,,0,,,65,73
28020,note_on,10,0,4,,,,,,,,,0,,,45,0
28020,note_on,30,0,1,,,,,,,,,0,,,56,73
28050,note_on,30,0,1,,,,,,,,,0,,,65,0
28050,note_on,0,0,1,,,,,,,,,0,,,56,0
28050,note_on,0,0,1,,,,,,,,,0,,,61,0
28050,note_on,30,0,4,,,,,,,,,0,,,44,0
28080,note_on,0,0,1,,,,,,,,,0,,,59,74
28080,note_on,0,0,1,,,,,,,,,0,,,62,74
28080,note_on,30,0,4,,,,,,,,,0,,,41,74
28080,note_on,30,0,1,,,,,,,,,0,,,68,74
28087,note_on,7,0,4,,,,,,,,,0,,,43,74
28089,note_on,2,0,4,,,,,,,,,0,,,41,0
28096,note_on,7,0,4,,,,,,,,,0,,,43,0
28096,note_on,0,0,4,,,,,,,,,0,,,41,75
28105,note_on,0,0,4,,,,,,,,,0,,,40,75
28105,note_on,9,0,4,,,,,,,,,0,,,41,0
28110,note_on,30,0,1,,,,,,,,,0,,,59,0
28110,note_on,0,0,1,,,,,,,,,0,,,62,0
28110,note_on,0,0,1,,,,,,,,,0,,,68,0
28113,note_on,8,0,4,,,,,,,,,0,,,39,75
28114,note_on,1,0,4,,,,,,,,,0,,,40,0
28122,note_on,8,0,4,,,,,,,,,0,,,39,0
28122,note_on,0,0,4,,,,,,,,,0,,,38,75
28131,note_on,0,0,4,,,,,,,,,0,,,37,75
28131,note_on,9,0,4,,,,,,,,,0,,,38,0
28140,note_on,30,0,1,,,,,,,,,0,,,67,95
28140,note_on,0,0,1,,,,,,,,,0,,,64,95
28140,note_on,0,0,4,,,,,,,,,0,,,36,75
28140,note_on,9,0,4,,,,,,,,,0,,,37,0
28200,note_on,60,0,1,,,,,,,,,0,,,64,0
28200,note_on,60,0,4,,,,,,,,,0,,,36,0
28200,note_on,0,0,1,,,,,,,,,0,,,55,76
28200,note_on,0,0,1,,,,,,,,,0,,,60,76
28200,note_on,0,0,1,,,,,,,,,0,,,67,0
28200,note_on,0,0,4,,,,,,,,,0,,,52,76
28230,note_on,30,0,4,,,,,,,,,0,,,52,0
28230,note_on,0,0,1,,,,,,,,,0,,,55,0
28230,note_on,30,0,1,,,,,,,,,0,,,60,0
28260,note_on,0,0,1,,,,,,,,,0,,,85,77
28260,note_on,0,0,1,,,,,,,,,0,,,89,77
28260,set_tempo,360,1,0,,,,,,1071429,,,,,,,
28260,note_on,30,0,1,,,,,,,,,0,,,94,77
28278,note_on,0,0,1,,,,,,,,,0,,,89,0
28278,note_on,0,0,1,,,,,,,,,0,,,93,77
28278,note_on,18,0,1,,,,,,,,,0,,,85,0
28278,note_on,0,0,1,,,,,,,,,0,,,94,0
28284,note_on,6,0,1,,,,,,,,,0,,,93,0
28284,note_on,0,0,1,,,,,,,,,0,,,84,78
28284,note_on,0,0,1,,,,,,,,,0,,,92,78
28296,note_on,0,0,1,,,,,,,,,0,,,84,0
28296,note_on,0,0,1,,,,,,,,,0,,,91,78
28296,note_on,12,0,1,,,,,,,,,0,,,92,0
28296,note_on,0,0,1,,,,,,,,,0,,,86,78
28296,note_on,0,0,1,,,,,,,,,0,,,83,78
28308,note_on,12,0,1,,,,,,,,,0,,,83,0
28308,note_on,0,0,1,,,,,,,,,0,,,82,78
28308,note_on,0,0,1,,,,,,,,,0,,,86,0
28308,note_on,0,0,1,,,,,,,,,0,,,90,78
28308,note_on,0,0,1,,,,,,,,,0,,,91,0
28320,note_on,12,0,1,,,,,,,,,0,,,82,0
28320,note_on,0,0,1,,,,,,,,,0,,,81,78
28320,note_on,0,0,1,,,,,,,,,0,,,84,78
28320,note_on,0,0,1,,,,,,,,,0,,,89,78
28320,note_on,0,0,1,,,,,,,,,0,,,90,0
28332,note_on,0,0,1,,,,,,,,,0,,,80,78
28332,note_on,12,0,1,,,,,,,,,0,,,81,0
28332,note_on,0,0,1,,,,,,,,,0,,,84,0
28332,note_on,0,0,1,,,,,,,,,0,,,89,0
28332,note_on,0,0,1,,,,,,,,,0,,,88,78
28344,note_on,12,0,1,,,,,,,,,0,,,80,0
28344,note_on,0,0,1,,,,,,,,,0,,,82,79
28344,note_on,0,0,1,,,,,,,,,0,,,87,79
28344,note_on,0,0,1,,,,,,,,,0,,,88,0
28344,note_on,0,0,1,,,,,,,,,0,,,79,79
28356,note_on,0,0,1,,,,,,,,,0,,,78,79
28356,note_on,0,0,1,,,,,,,,,0,,,82,0
28356,note_on,0,0,1,,,,,,,,,0,,,86,79
28356,note_on,0,0,1,,,,,,,,,0,,,87,0
28356,note_on,12,0,1,,,,,,,,,0,,,79,0
28368,note_on,0,0,1,,,,,,,,,0,,,77,79
28368,note_on,0,0,1,,,,,,,,,0,,,86,79
28368,note_on,12,0,1,,,,,,,,,0,,,86,0
28368,note_on,0,0,1,,,,,,,,,0,,,80,79
28368,note_on,0,0,1,,,,,,,,,0,,,78,0
28380,set_tempo,120,1,0,,,,,,652174,,,,,,,
28380,note_on,0,0,1,,,,,,,,,0,,,76,79
28380,note_on,12,0,1,,,,,,,,,0,,,86,0
28380,note_on,0,0,1,,,,,,,,,0,,,77,0
28380,note_on,0,0,1,,,,,,,,,0,,,79,79
28380,note_on,0,0,1,,,,,,,,,0,,,80,0
28380,note_on,0,0,1,,,,,,,,,0,,,84,79
28410,note_on,30,0,1,,,,,,,,,0,,,76,0
28410,note_on,0,0,1,,,,,,,,,0,,,79,0
28410,note_on,0,0,1,,,,,,,,,0,,,84,0
28440,note_on,0,0,1,,,,,,,,,0,,,67,80
28440,note_on,210,0,4,,,,,,,,,0,,,60,80
28440,note_on,30,0,1,,,,,,,,,0,,,63,80
28440,note_on,0,0,4,,,,,,,,,0,,,48,80
28440,note_on,0,0,1,,,,,,,,,0,,,70,80
28440,note_on,0,0,1,,,,,,,,,0,,,76,80
28450,note_on,10,0,4,,,,,,,,,0,,,61,80
28460,note_on,0,0,4,,,,,,,,,0,,,60,80
28460,note_on,10,0,4,,,,,,,,,0,,,61,0
28470,note_on,0,0,1,,,,,,,,,0,,,70,0
28470,note_on,30,0,1,,,,,,,,,0,,,76,0
28470,note_on,0,0,1,,,,,,,,,0,,,67,0
28470,note_on,0,0,1,,,,,,,,,0,,,63,0
28470,note_on,0,0,4,,,,,,,,,0,,,59,81
28470,note_on,10,0,4,,,,,,,,,0,,,60,0
28480,note_on,10,0,4,,,,,,,,,0,,,59,0
28480,note_on,0,0,4,,,,,,,,,0,,,58,81
28490,note_on,10,0,4,,,,,,,,,0,,,58,0
28490,note_on,0,0,4,,,,,,,,,0,,,57,81
28500,note_on,0,0,4,,,,,,,,,0,,,56,81
28500,note_on,0,0,4,,,,,,,,,0,,,48,0
28500,note_on,10,0,4,,,,,,,,,0,,,57,0
28500,note_on,0,0,4,,,,,,,,,0,,,60,0
28500,note_on,30,0,1,,,,,,,,,0,,,65,81
28500,note_on,0,0,1,,,,,,,,,0,,,68,81
28500,note_on,0,0,1,,,,,,,,,0,,,73,81
28500,note_on,0,0,1,,,,,,,,,0,,,77,81
28530,note_on,30,0,4,,,,,,,,,0,,,56,0
28530,note_on,30,0,1,,,,,,,,,0,,,77,0
28530,note_on,0,0,1,,,,,,,,,0,,,65,0
28530,note_on,0,0,1,,,,,,,,,0,,,68,0
28530,note_on,0,0,1,,,,,,,,,0,,,73,0
28560,note_on,0,0,4,,,,,,,,,0,,,41,82
28560,note_on,30,0,1,,,,,,,,,0,,,68,82
28560,note_on,30,0,4,,,,,,,,,0,,,53,82
28560,note_on,0,0,1,,,,,,,,,0,,,80,82
28560,note_on,0,0,1,,,,,,,,,0,,,74,82
28560,note_on,0,0,1,,,,,,,,,0,,,71,82
28567,note_on,7,0,4,,,,,,,,,0,,,55,82
28576,note_on,0,0,4,,,,,,,,,0,,,53,82
28576,note_on,9,0,4,,,,,,,,,0,,,55,0
28585,note_on,9,0,4,,,,,,,,,0,,,53,0
28585,note_on,0,0,4,,,,,,,,,0,,,52,83
28590,note_on,0,0,1,,,,,,,,,0,,,68,0
28590,note_on,0,0,1,,,,,,,,,0,,,74,0
28590,note_on,0,0,1,,,,,,,,,0,,,80,0
28590,note_on,30,0,1,,,,,,,,,0,,,71,0
28593,note_on,8,0,4,,,,,,,,,0,,,51,83
28594,note_on,1,0,4,,,,,,,,,0,,,52,0
28602,note_on,0,0,4,,,,,,,,,0,,,50,83
28602,note_on,8,0,4,,,,,,,,,0,,,51,0
28611,note_on,0,0,4,,,,,,,,,0,,,49,83
28611,note_on,9,0,4,,,,,,,,,0,,,50,0
28620,note_on,9,0,4,,,,,,,,,0,,,49,0
28620,note_on,0,0,4,,,,,,,,,0,,,53,0
28620,note_on,0,0,4,,,,,,,,,0,,,48,83
28620,note_on,0,0,4,,,,,,,,,0,,,41,0
28620,note_on,0,0,4,,,,,,,,,0,,,36,83
28620,note_on,30,0,1,,,,,,,,,0,,,79,103
28620,note_on,0,0,1,,,,,,,,,0,,,67,103
28620,note_on,0,0,1,,,,,,,,,0,,,76,103
28680,note_on,0,0,1,,,,,,,,,0,,,79,0
28680,note_on,0,0,1,,,,,,,,,0,,,76,0
28680,note_on,0,0,4,,,,,,,,,0,,,36,0
28680,note_on,0,0,4,,,,,,,,,0,,,55,84
28680,note_on,0,0,4,,,,,,,,,0,,,64,84
28680,note_on,0,0,1,,,,,,,,,0,,,72,84
28680,note_on,60,0,1,,,,,,,,,0,,,67,0
28680,note_on,60,0,4,,,,,,,,,0,,,48,0
28710,note_on,30,0,1,,,,,,,,,0,,,72,0
28710,note_on,30,0,4,,,,,,,,,0,,,64,0
28710,note_on,0,0,4,,,,,,,,,0,,,55,0
28740,note_on,0,0,3,,,,,,,,,0,,,72,115
28740,note_on,30,0,1,,,,,,,,,0,,,65,85
28740,set_tempo,360,1,0,,,,,,1071429,,,,,,,
28740,note_on,3210,0,3,,,,,,,,,0,,,80,85
28740,note_on,0,0,1,,,,,,,,,0,,,68,115
28752,note_on,12,0,1,,,,,,,,,0,,,65,0
28752,note_on,12,0,3,,,,,,,,,0,,,80,0
28752,note_on,0,0,3,,,,,,,,,0,,,79,85
28752,note_on,0,0,1,,,,,,,,,0,,,64,85
28764,note_on,12,0,3,,,,,,,,,0,,,79,0
28764,note_on,12,0,1,,,,,,,,,0,,,64,0
28764,note_on,0,0,3,,,,,,,,,0,,,78,85
28764,note_on,0,0,1,,,,,,,,,0,,,63,85
28776,note_on,0,0,3,,,,,,,,,0,,,77,86
28776,note_on,0,0,1,,,,,,,,,0,,,62,86
28776,note_on,12,0,1,,,,,,,,,0,,,63,0
28776,note_on,12,0,3,,,,,,,,,0,,,78,0
28788,note_on,12,0,3,,,,,,,,,0,,,77,0
28788,note_on,0,0,3,,,,,,,,,0,,,76,86
28788,note_on,0,0,1,,,,,,,,,0,,,61,86
28788,note_on,12,0,1,,,,,,,,,0,,,62,0
28800,note_on,0,0,1,,,,,,,,,0,,,60,86
28800,note_on,12,0,3,,,,,,,,,0,,,76,0
28800,note_on,0,0,3,,,,,,,,,0,,,75,86
28800,note_on,12,0,1,,,,,,,,,0,,,61,0
28812,note_on,12,0,1,,,,,,,,,0,,,60,0
28812,note_on,12,0,3,,,,,,,,,0,,,75,0
28812,note_on,0,0,3,,,,,,,,,0,,,74,86
28812,note_on,0,0,1,,,,,,,,,0,,,59,86
28824,note_on,12,0,3,,,,,,,,,0,,,74,0
28824,note_on,0,0,3,,,,,,,,,0,,,73,86
28824,note_on,0,0,1,,,,,,,,,0,,,58,86
28824,note_on,12,0,1,,,,,,,,,0,,,59,0
28836,note_on,12,0,3,,,,,,,,,0,,,73,0
28836,note_on,12,0,1,,,,,,,,,0,,,58,0
28836,note_on,0,0,1,,,,,,,,,0,,,57,87
28836,note_on,0,0,3,,,,,,,,,0,,,72,87
28848,note_on,12,0,1,,,,,,,,,0,,,57,0
28848,note_on,0,0,1,,,,,,,,,0,,,56,87
28848,note_on,12,0,3,,,,,,,,,0,,,72,0
28848,note_on,0,0,3,,,,,,,,,0,,,71,87
28860,note_on,0,0,3,,,,,,,,,0,,,68,87
28860,note_on,12,0,3,,,,,,,,,0,,,71,0
28860,note_on,0,0,3,,,,,,,,,0,,,70,87
28860,note_on,0,0,1,,,,,,,,,0,,,65,87
28860,note_on,0,0,1,,,,,,,,,0,,,68,0
28860,note_on,0,0,3,,,,,,,,,0,,,72,0
28860,note_on,12,0,1,,,,,,,,,0,,,56,0
28860,set_tempo,120,1,0,,,,,,652174,,,,,,,
28860,note_on,0,0,1,,,,,,,,,0,,,62,87
28890,note_on,0,0,3,,,,,,,,,0,,,68,0
28890,note_on,30,0,1,,,,,,,,,0,,,65,0
28890,note_on,0,0,1,,,,,,,,,0,,,62,0
28890,note_on,30,0,3,,,,,,,,,0,,,70,0
28920,note_on,0,0,4,,,,,,,,,0,,,56,88
28920,note_on,210,0,4,,,,,,,,,0,,,46,88
28920,note_on,0,0,4,,,,,,,,,0,,,53,88
28920,note_on,30,0,1,,,,,,,,,0,,,62,88
28930,note_on,10,0,4,,,,,,,,,0,,,46,0
28930,note_on,0,0,4,,,,,,,,,0,,,47,88
28940,note_on,10,0,4,,,,,,,,,0,,,47,0
28940,note_on,0,0,4,,,,,,,,,0,,,46,88
28950,note_on,10,0,4,,,,,,,,,0,,,46,0
28950,note_on,30,0,1,,,,,,,,,0,,,62,0
28950,note_on,0,0,4,,,,,,,,,0,,,45,89
28950,note_on,0,0,4,,,,,,,,,0,,,53,0
28950,note_on,0,0,4,,,,,,,,,0,,,56,0
28960,note_on,10,0,4,,,,,,,,,0,,,45,0
28960,note_on,0,0,4,,,,,,,,,0,,,44,89
28970,note_on,0,0,4,,,,,,,,,0,,,43,89
28970,note_on,10,0,4,,,,,,,,,0,,,44,0
28980,note_on,30,0,1,,,,,,,,,0,,,63,89
28980,note_on,0,0,4,,,,,,,,,0,,,54,89
28980,note_on,0,0,1,,,,,,,,,0,,,59,89
28980,note_on,10,0,4,,,,,,,,,0,,,43,0
28980,note_on,0,0,4,,,,,,,,,0,,,42,89
29010,note_on,0,0,4,,,,,,,,,0,,,42,0
29010,note_on,0,0,1,,,,,,,,,0,,,63,0
29010,note_on,30,0,1,,,,,,,,,0,,,59,0
29010,note_on,30,0,4,,,,,,,,,0,,,54,0
29040,note_on,30,0,4,,,,,,,,,0,,,57,90
29040,note_on,0,0,1,,,,,,,,,0,,,60,90
29040,note_on,30,0,1,,,,,,,,,0,,,66,90
29040,note_on,0,0,4,,,,,,,,,0,,,39,90
29047,note_on,7,0,4,,,,,,,,,0,,,41,90
29049,note_on,2,0,4,,,,,,,,,0,,,39,0
29056,note_on,7,0,4,,,,,,,,,0,,,41,0
29056,note_on,0,0,4,,,,,,,,,0,,,39,90
29065,note_on,0,0,4,,,,,,,,,0,,,38,90
29065,note_on,9,0,4,,,,,,,,,0,,,39,0
29070,note_on,0,0,1,,,,,,,,,0,,,66,0
29070,note_on,5,0,4,,,,,,,,,0,,,57,0
29070,note_on,30,0,1,,,,,,,,,0,,,60,0
29073,note_on,3,0,4,,,,,,,,,0,,,37,91
29074,note_on,1,0,4,,,,,,,,,0,,,38,0
29082,note_on,0,0,4,,,,,,,,,0,,,36,91
29082,note_on,8,0,4,,,,,,,,,0,,,37,0
29091,note_on,0,0,4,,,,,,,,,0,,,35,91
29091,note_on,9,0,4,,,,,,,,,0,,,36,0
29100,note_on,0,0,4,,,,,,,,,0,,,34,91
29100,note_on,9,0,4,,,,,,,,,0,,,35,0
29100,note_on,30,0,1,,,,,,,,,0,,,65,91
29100,note_on,0,0,1,,,,,,,,,0,,,62,91
29160,note_on,0,0,1,,,,,,,,,0,,,65,0
29160,note_on,60,0,1,,,,,,,,,0,,,62,0
29160,note_on,60,0,4,,,,,,,,,0,,,34,0
29160,note_on,0,0,4,,,,,,,,,0,,,50,92
29160,note_on,0,0,4,,,,,,,,,0,,,53,92
29160,note_on,0,0,4,,,,,,,,,0,,,58,92
29190,note_on,0,0,4,,,,,,,,,0,,,50,0
29190,note_on,30,0,4,,,,,,,,,0,,,58,0
29190,note_on,0,0,4,,,,,,,,,0,,,53,0
29220,note_on,60,0,1,,,,,,,,,0,,,64,93
29220,note_on,330,0,3,,,,,,,,,0,,,80,93
29220,note_on,0,0,1,,,,,,,,,0,,,68,123
29220,note_on,0,0,3,,,,,,,,,0,,,71,123
29220,set_tempo,360,1,0,,,,,,1071429,,,,,,,
29232,note_on,12,0,1,,,,,,,,,0,,,64,0
29232,note_on,0,0,1,,,,,,,,,0,,,63,93
29232,note_on,12,0,3,,,,,,,,,0,,,80,0
29232,note_on,0,0,3,,,,,,,,,0,,,79,93
29244,note_on,0,0,3,,,,,,,,,0,,,78,93
29244,note_on,12,0,1,,,,,,,,,0,,,63,0
29244,note_on,0,0,1,,,,,,,,,0,,,62,93
29244,note_on,12,0,3,,,,,,,,,0,,,79,0
29256,note_on,0,0,3,,,,,,,,,0,,,77,94
29256,note_on,12,0,3,,,,,,,,,0,,,78,0
29256,note_on,0,0,1,,,,,,,,,0,,,61,94
29256,note_on,12,0,1,,,,,,,,,0,,,62,0
29268,note_on,0,0,3,,,,,,,,,0,,,76,94
29268,note_on,12,0,1,,,,,,,,,0,,,61,0
29268,note_on,0,0,1,,,,,,,,,0,,,60,94
29268,note_on,12,0,3,,,,,,,,,0,,,77,0
29280,note_on,12,0,3,,,,,,,,,0,,,76,0
29280,note_on,0,0,3,,,,,,,,,0,,,75,94
29280,note_on,0,0,1,,,,,,,,,0,,,59,94
29280,note_on,12,0,1,,,,,,,,,0,,,60,0
29292,note_on,0,0,1,,,,,,,,,0,,,58,94
29292,note_on,0,0,3,,,,,,,,,0,,,74,94
29292,note_on,12,0,3,,,,,,,,,0,,,75,0
29292,note_on,12,0,1,,,,,,,,,0,,,59,0
29304,note_on,12,0,1,,,,,,,,,0,,,58,0
29304,note_on,0,0,3,,,,,,,,,0,,,73,94
29304,note_on,0,0,1,,,,,,,,,0,,,57,94
29304,note_on,12,0,3,,,,,,,,,0,,,74,0
29316,note_on,0,0,1,,,,,,,,,0,,,56,95
29316,note_on,12,0,1,,,,,,,,,0,,,57,0
29316,note_on,12,0,3,,,,,,,,,0,,,73,0
29316,note_on,0,0,3,,,,,,,,,0,,,72,95
29328,note_on,12,0,3,,,,,,,,,0,,,72,0
29328,note_on,0,0,3,,,,,,,,,0,,,71,95
29328,note_on,0,0,1,,,,,,,,,0,,,59,95
29328,note_on,12,0,1,,,,,,,,,0,,,56,0
29340,note_on,0,0,1,,,,,,,,,0,,,68,0
29340,note_on,12,0,1,,,,,,,,,0,,,59,0
29340,note_on,0,0,1,,,,,,,,,0,,,62,95
29340,set_tempo,120,1,0,,,,,,652174,,,,,,,
29340,note_on,0,0,3,,,,,,,,,0,,,71,0
29340,note_on,0,0,3,,,,,,,,,0,,,70,95
29340,note_on,0,0,3,,,,,,,,,0,,,68,95
29340,note_on,12,0,3,,,,,,,,,0,,,71,0
29340,note_on,0,0,1,,,,,,,,,0,,,65,95
29370,note_on,0,0,1,,,,,,,,,0,,,62,0
29370,note_on,30,0,1,,,,,,,,,0,,,65,0
29370,note_on,30,0,3,,,,,,,,,0,,,70,0
29370,note_on,0,0,3,,,,,,,,,0,,,68,0
29397,note_on,207,0,4,,,,,,,,,0,,,46,96
29400,note_on,30,0,1,,,,,,,,,0,,,74,96
29400,note_on,3,0,4,,,,,,,,,0,,,58,96
29400,note_on,0,0,1,,,,,,,,,0,,,68,96
29400,note_on,0,0,1,,,,,,,,,0,,,65,96
29400,note_on,0,0,1,,,,,,,,,0,,,62,96
29410,note_on,10,0,4,,,,,,,,,0,,,59,96
29420,note_on,10,0,4,,,,,,,,,0,,,59,0
29420,note_on,0,0,4,,,,,,,,,0,,,58,96
29430,note_on,0,0,4,,,,,,,,,0,,,57,96
29430,note_on,0,0,1,,,,,,,,,0,,,65,0
29430,note_on,0,0,1,,,,,,,,,0,,,68,0
29430,note_on,0,0,1,,,,,,,,,0,,,74,0
29430,note_on,10,0,4,,,,,,,,,0,,,58,0
29430,note_on,30,0,1,,,,,,,,,0,,,62,0
29440,note_on,0,0,4,,,,,,,,,0,,,56,97
29440,note_on,10,0,4,,,,,,,,,0,,,57,0
29450,note_on,0,0,4,,,,,,,,,0,,,55,97
29450,note_on,10,0,4,,,,,,,,,0,,,56,0
29460,note_on,30,0,1,,,,,,,,,0,,,75,97
29460,note_on,10,0,4,,,,,,,,,0,,,55,0
29460,note_on,0,0,1,,,,,,,,,0,,,66,97
29460,note_on,0,0,1,,,,,,,,,0,,,71,97
29460,note_on,0,0,4,,,,,,,,,0,,,58,0
29460,note_on,0,0,4,,,,,,,,,0,,,42,97
29460,note_on,0,0,1,,,,,,,,,0,,,63,97
29460,note_on,0,0,4,,,,,,,,,0,,,54,97
29460,note_on,0,0,4,,,,,,,,,0,,,46,0
29490,note_on,30,0,1,,,,,,,,,0,,,63,0
29490,note_on,0,0,4,,,,,,,,,0,,,42,0
29490,note_on,0,0,1,,,,,,,,,0,,,66,0
29490,note_on,0,0,1,,,,,,,,,0,,,71,0
29490,note_on,0,0,1,,,,,,,,,0,,,75,0
29490,note_on,30,0,4,,,,,,,,,0,,,54,0
29517,note_on,27,0,4,,,,,,,,,0,,,39,98
29520,note_on,0,0,1,,,,,,,,,0,,,69,98
29520,note_on,0,0,1,,,,,,,,,0,,,72,98
29520,note_on,0,0,1,,,,,,,,,0,,,66,98
29520,note_on,30,0,1,,,,,,,,,0,,,78,98
29520,note_on,3,0,4,,,,,,,,,0,,,51,98
29527,note_on,7,0,4,,,,,,,,,0,,,53,98
29536,note_on,9,0,4,,,,,,,,,0,,,53,0
29536,note_on,0,0,4,,,,,,,,,0,,,51,98
29545,note_on,9,0,4,,,,,,,,,0,,,51,0
29545,note_on,0,0,4,,,,,,,,,0,,,50,98
29550,note_on,0,0,1,,,,,,,,,0,,,78,0
29550,note_on,30,0,1,,,,,,,,,0,,,66,0
29550,note_on,0,0,1,,,,,,,,,0,,,69,0
29550,note_on,0,0,1,,,,,,,,,0,,,72,0
29553,note_on,8,0,4,,,,,,,,,0,,,49,98
29554,note_on,1,0,4,,,,,,,,,0,,,50,0
29562,note_on,0,0,4,,,,,,,,,0,,,48,99
29562,note_on,8,0,4,,,,,,,,,0,,,49,0
29571,note_on,0,0,4,,,,,,,,,0,,,47,99
29571,note_on,9,0,4,,,,,,,,,0,,,48,0
29580,note_on,0,0,4,,,,,,,,,0,,,34,99
29580,note_on,30,0,1,,,,,,,,,0,,,65,119
29580,note_on,0,0,4,,,,,,,,,0,,,51,0
29580,time_signature,240,1,0,8,4,24,8,,,,,,,,,
29580,note_on,0,0,4,,,,,,,,,0,,,39,0
29580,note_on,9,0,4,,,,,,,,,0,,,47,0
29585,note_on,5,0,4,,,,,,,,,0,,,46,99
29585,note_on,5,0,1,,,,,,,,,0,,,70,119
29590,note_on,5,0,1,,,,,,,,,0,,,74,119
29595,note_on,5,0,1,,,,,,,,,0,,,82,119
29640,note_on,45,0,1,,,,,,,,,0,,,82,0
29640,note_on,0,0,1,,,,,,,,,0,,,74,0
29640,note_on,0,0,1,,,,,,,,,0,,,70,0
29640,note_on,0,0,1,,,,,,,,,0,,,65,0
29640,note_on,0,0,1,,,,,,,,,0,,,58,100
29640,note_on,55,0,4,,,,,,,,,0,,,46,0
29640,note_on,0,0,4,,,,,,,,,0,,,34,0
29640,note_on,0,0,4,,,,,,,,,0,,,50,100
29640,note_on,0,0,4,,,,,,,,,0,,,53,100
29670,note_on,30,0,4,,,,,,,,,0,,,50,0
29670,note_on,0,0,4,,,,,,,,,0,,,53,0
29670,note_on,30,0,1,,,,,,,,,0,,,58,0
29700,note_on,330,0,3,,,,,,,,,0,,,70,100
29700,set_tempo,120,1,0,,,,,,1071429,,,,,,,
29700,note_on,0,0,3,,,,,,,,,0,,,82,100
29710,note_on,10,0,3,,,,,,,,,0,,,82,0
29710,note_on,40,0,1,,,,,,,,,0,,,93,100
29710,note_on,0,0,1,,,,,,,,,0,,,81,100
29710,note_on,0,0,3,,,,,,,,,0,,,70,0
29720,note_on,10,0,1,,,,,,,,,0,,,81,0
29720,note_on,10,0,3,,,,,,,,,0,,,68,100
29720,note_on,0,0,1,,,,,,,,,0,,,93,0
29720,note_on,0,0,3,,,,,,,,,0,,,80,100
29730,note_on,0,0,3,,,,,,,,,0,,,68,0
29730,note_on,0,0,1,,,,,,,,,0,,,79,100
29730,note_on,10,0,1,,,,,,,,,0,,,91,100
29730,note_on,10,0,3,,,,,,,,,0,,,80,0
29740,note_on,0,0,1,,,,,,,,,0,,,91,0
29740,note_on,0,0,3,,,,,,,,,0,,,78,100
29740,note_on,10,0,1,,,,,,,,,0,,,79,0
29740,note_on,10,0,3,,,,,,,,,0,,,66,100
29750,note_on,0,0,1,,,,,,,,,0,,,77,100
29750,note_on,10,0,3,,,,,,,,,0,,,78,0
29750,note_on,10,0,1,,,,,,,,,0,,,89,100
29750,note_on,0,0,3,,,,,,,,,0,,,66,0
29760,note_on,10,0,1,,,,,,,,,0,,,77,0
29760,note_on,10,0,3,,,,,,,,,0,,,64,100
29760,note_on,0,0,3,,,,,,,,,0,,,76,100
29760,note_on,0,0,1,,,,,,,,,0,,,89,0
29770,note_on,10,0,1,,,,,,,,,0,,,87,100
29770,note_on,10,0,3,,,,,,,,,0,,,76,0
29770,note_on,0,0,1,,,,,,,,,0,,,75,100
29770,note_on,0,0,3,,,,,,,,,0,,,64,0
29780,note_on,0,0,3,,,,,,,,,0,,,74,100
29780,note_on,10,0,1,,,,,,,,,0,,,75,0
29780,note_on,10,0,3,,,,,,,,,0,,,62,100
29780,note_on,0,0,1,,,,,,,,,0,,,87,0
29790,note_on,0,0,1,,,,,,,,,0,,,73,100
29790,note_on,0,0,3,,,,,,,,,0,,,62,0
29790,note_on,10,0,3,,,,,,,,,0,,,74,0
29790,note_on,10,0,1,,,,,,,,,0,,,85,100
29800,note_on,0,0,3,,,,,,,,,0,,,72,100
29800,note_on,10,0,3,,,,,,,,,0,,,60,100
29800,note_on,0,0,1,,,,,,,,,0,,,85,0
29800,note_on,10,0,1,,,,,,,,,0,,,73,0
29810,note_on,10,0,1,,,,,,,,,0,,,83,100
29810,note_on,10,0,3,,,,,,,,,0,,,72,0
29810,note_on,0,0,3,,,,,,,,,0,,,60,0
29810,note_on,0,0,1,,,,,,,,,0,,,71,100
29820,set_tempo,120,1,0,,,,,,652174,,,,,,,
29820,note_on,0,0,3,,,,,,,,,0,,,70,100
29820,note_on,10,0,1,,,,,,,,,0,,,71,0
29820,note_on,0,0,1,,,,,,,,,0,,,83,0
29820,note_on,10,0,3,,,,,,,,,0,,,58,100
29880,note_on,0,0,3,,,,,,,,,0,,,58,0
29880,note_on,60,0,1,,,,,,,,,0,,,62,127
29880,note_on,60,0,3,,,,,,,,,0,,,70,0
29880,note_on,210,0,4,,,,,,,,,0,,,34,127
29880,note_on,0,0,4,,,,,,,,,0,,,58,127
29880,note_on,0,0,4,,,,,,,,,0,,,46,127
29880,note_on,0,0,4,,,,,,,,,0,,,41,127
29880,note_on,0,0,4,,,,,,,,,0,,,50,127
29880,note_on,0,0,4,,,,,,,,,0,,,53,127
29910,note_on,0,0,4,,,,,,,,,0,,,46,0
29910,note_on,0,0,4,,,,,,,,,0,,,53,0
29910,note_on,30,0,4,,,,,,,,,0,,,58,0
29910,note_on,0,0,4,,,,,,,,,0,,,41,0
29910,note_on,0,0,4,,,,,,,,,0,,,34,0
29910,note_on,0,0,4,,,,,,,,,0,,,50,0
29910,note_on,30,0,1,,,,,,,,,0,,,62,0
29940,note_on,60,0,3,,,,,,,,,0,,,86,100
29940,note_on,0,0,3,,,,,,,,,0,,,74,100
29940,set_tempo,120,1,0,,,,,,1071429,,,,,,,
29950,note_on,10,0,3,,,,,,,,,0,,,74,0
29950,note_on,40,0,1,,,,,,,,,0,,,85,100
29950,note_on,0,0,1,,,,,,,,,0,,,97,100
29950,note_on,0,0,3,,,,,,,,,0,,,86,0
29960,note_on,0,0,1,,,,,,,,,0,,,85,0
29960,note_on,10,0,1,,,,,,,,,0,,,97,0
29960,note_on,0,0,3,,,,,,,,,0,,,72,100
29960,note_on,10,0,3,,,,,,,,,0,,,84,100
29970,note_on,0,0,3,,,,,,,,,0,,,84,0
29970,note_on,10,0,1,,,,,,,,,0,,,83,100
29970,note_on,10,0,3,,,,,,,,,0,,,72,0
29970,note_on,0,0,1,,,,,,,,,0,,,95,100
29980,note_on,10,0,1,,,,,,,,,0,,,95,0
29980,note_on,0,0,1,,,,,,,,,0,,,83,0
29980,note_on,0,0,3,,,,,,,,,0,,,70,100
29980,note_on,10,0,3,,,,,,,,,0,,,82,100
29990,note_on,0,0,1,,,,,,,,,0,,,93,100
29990,note_on,10,0,1,,,,,,,,,0,,,81,100
29990,note_on,0,0,3,,,,,,,,,0,,,82,0
29990,note_on,10,0,3,,,,,,,,,0,,,70,0
30000,note_on,10,0,3,,,,,,,,,0,,,80,100
30000,note_on,10,0,1,,,,,,,,,0,,,93,0
30000,note_on,0,0,3,,,,,,,,,0,,,68,100
30000,note_on,0,0,1,,,,,,,,,0,,,81,0
30010,note_on,0,0,3,,,,,,,,,0,,,80,0
30010,note_on,10,0,1,,,,,,,,,0,,,79,100
30010,note_on,10,0,3,,,,,,,,,0,,,68,0
30010,note_on,0,0,1,,,,,,,,,0,,,91,100
30020,note_on,10,0,1,,,,,,,,,0,,,91,0
30020,note_on,0,0,3,,,,,,,,,0,,,66,100
30020,note_on,10,0,3,,,,,,,,,0,,,78,100
30020,note_on,0,0,1,,,,,,,,,0,,,79,0
30030,note_on,0,0,3,,,,,,,,,0,,,78,0
30030,note_on,10,0,1,,,,,,,,,0,,,77,100
30030,note_on,10,0,3,,,,,,,,,0,,,66,0
30030,note_on,0,0,1,,,,,,,,,0,,,89,100
30040,note_on,0,0,3,,,,,,,,,0,,,64,100
30040,note_on,10,0,3,,,,,,,,,0,,,76,100
30040,note_on,10,0,1,,,,,,,,,0,,,89,0
30040,note_on,0,0,1,,,,,,,,,0,,,77,0
30050,note_on,0,0,3,,,,,,,,,0,,,76,0
30050,note_on,0,0,1,,,,,,,,,0,,,87,100
30050,note_on,10,0,1,,,,,,,,,0,,,75,100
30050,note_on,10,0,3,,,,,,,,,0,,,64,0
30060,note_on,10,0,3,,,,,,,,,0,,,62,100
30060,set_tempo,120,1,0,,,,,,652174,,,,,,,
30060,note_on,10,0,1,,,,,,,,,0,,,87,0
30060,note_on,0,0,3,,,,,,,,,0,,,74,100
30060,note_on,0,0,1,,,,,,,,,0,,,75,0
30120,note_on,0,0,4,,,,,,,,,0,,,41,127
30120,note_on,0,0,3,,,,,,,,,0,,,62,0
30120,note_on,0,0,4,,,,,,,,,0,,,58,127
30120,note_on,0,0,4,,,,,,,,,0,,,53,127
30120,note_on,0,0,4,,,,,,,,,0,,,50,127
30120,note_on,0,0,1,,,,,,,,,0,,,65,127
30120,note_on,210,0,4,,,,,,,,,0,,,34,127
30120,note_on,60,0,3,,,,,,,,,0,,,74,0
30120,note_on,60,0,1,,,,,,,,,0,,,62,127
30150,note_on,30,0,4,,,,,,,,,0,,,58,0
30150,note_on,30,0,1,,,,,,,,,0,,,65,0
30150,note_on,0,0,1,,,,,,,,,0,,,62,0
30150,note_on,0,0,4,,,,,,,,,0,,,53,0
30150,note_on,0,0,4,,,,,,,,,0,,,50,0
30150,note_on,0,0,4,,,,,,,,,0,,,34,0
30150,note_on,0,0,4,,,,,,,,,0,,,41,0
30180,note_on,60,0,3,,,,,,,,,0,,,89,100
30180,set_tempo,120,1,0,,,,,,1071429,,,,,,,
30180,note_on,0,0,3,,,,,,,,,0,,,77,100
30190,note_on,0,0,1,,,,,,,,,0,,,100,100
30190,note_on,0,0,3,,,,,,,,,0,,,89,0
30190,note_on,10,0,3,,,,,,,,,0,,,77,0
30190,note_on,40,0,1,,,,,,,,,0,,,88,100
30200,note_on,0,0,3,,,,,,,,,0,,,75,100
30200,note_on,10,0,1,,,,,,,,,0,,,100,0
30200,note_on,0,0,1,,,,,,,,,0,,,88,0
30200,note_on,10,0,3,,,,,,,,,0,,,87,100
30210,note_on,10,0,1,,,,,,,,,0,,,86,100
30210,note_on,0,0,1,,,,,,,,,0,,,98,100
30210,note_on,10,0,3,,,,,,,,,0,,,75,0
30210,note_on,0,0,3,,,,,,,,,0,,,87,0
30220,note_on,0,0,3,,,,,,,,,0,,,73,100
30220,note_on,0,0,1,,,,,,,,,0,,,86,0
30220,note_on,10,0,3,,,,,,,,,0,,,85,100
30220,note_on,10,0,1,,,,,,,,,0,,,98,0
30230,note_on,10,0,3,,,,,,,,,0,,,73,0
30230,note_on,10,0,1,,,,,,,,,0,,,84,100
30230,note_on,0,0,1,,,,,,,,,0,,,96,100
30230,note_on,0,0,3,,,,,,,,,0,,,85,0
30240,note_on,0,0,3,,,,,,,,,0,,,71,100
30240,note_on,10,0,3,,,,,,,,,0,,,83,100
30240,note_on,0,0,1,,,,,,,,,0,,,84,0
30240,note_on,10,0,1,,,,,,,,,0,,,96,0
30250,note_on,0,0,3,,,,,,,,,0,,,83,0
30250,note_on,0,0,1,,,,,,,,,0,,,94,100
30250,note_on,10,0,1,,,,,,,,,0,,,82,100
30250,note_on,10,0,3,,,,,,,,,0,,,71,0
30260,note_on,10,0,1,,,,,,,,,0,,,94,0
30260,note_on,10,0,3,,,,,,,,,0,,,81,100
30260,note_on,0,0,3,,,,,,,,,0,,,69,100
30260,note_on,0,0,1,,,,,,,,,0,,,82,0
30270,note_on,10,0,1,,,,,,,,,0,,,80,100
30270,note_on,10,0,3,,,,,,,,,0,,,69,0
30270,note_on,0,0,3,,,,,,,,,0,,,81,0
30270,note_on,0,0,1,,,,,,,,,0,,,92,100
30280,note_on,0,0,1,,,,,,,,,0,,,80,0
30280,note_on,10,0,1,,,,,,,,,0,,,92,0
30280,note_on,10,0,3,,,,,,,,,0,,,79,100
30280,note_on,0,0,3,,,,,,,,,0,,,67,100
30290,note_on,10,0,1,,,,,,,,,0,,,78,100
30290,note_on,0,0,1,,,,,,,,,0,,,90,100
30290,note_on,10,0,3,,,,,,,,,0,,,67,0
30290,note_on,0,0,3,,,,,,,,,0,,,79,0
30300,note_on,0,0,3,,,,,,,,,0,,,65,100
30300,note_on,10,0,1,,,,,,,,,0,,,90,0
30300,note_on,10,0,3,,,,,,,,,0,,,77,100
30300,note_on,0,0,1,,,,,,,,,0,,,78,0
30310,note_on,0,0,3,,,,,,,,,0,,,77,0
30310,note_on,10,0,1,,,,,,,,,0,,,76,100
30310,note_on,10,0,3,,,,,,,,,0,,,65,0
30310,note_on,0,0,1,,,,,,,,,0,,,88,100
30320,note_on,10,0,1,,,,,,,,,0,,,88,0
30320,note_on,10,0,3,,,,,,,,,0,,,75,100
30320,note_on,0,0,1,,,,,,,,,0,,,76,0
30320,note_on,0,0,3,,,,,,,,,0,,,63,100
30330,note_on,10,0,1,,,,,,,,,0,,,74,100
30330,note_on,0,0,3,,,,,,,,,0,,,75,0
30330,note_on,0,0,1,,,,,,,,,0,,,86,100
30330,note_on,10,0,3,,,,,,,,,0,,,63,0
30340,note_on,0,0,1,,,,,,,,,0,,,74,0
30340,note_on,10,0,1,,,,,,,,,0,,,86,0
30340,note_on,0,0,3,,,,,,,,,0,,,61,100
30340,note_on,10,0,3,,,,,,,,,0,,,73,100
30350,note_on,10,0,3,,,,,,,,,0,,,61,0
30350,note_on,10,0,1,,,,,,,,,0,,,72,100
30350,note_on,0,0,1,,,,,,,,,0,,,84,100
30350,note_on,0,0,3,,,,,,,,,0,,,73,0
30360,note_on,10,0,1,,,,,,,,,0,,,84,0
30360,note_on,0,0,1,,,,,,,,,0,,,72,0
30360,note_on,10,0,3,,,,,,,,,0,,,71,100
30360,note_on,0,0,3,,,,,,,,,0,,,59,100
30370,note_on,10,0,3,,,,,,,,,0,,,59,0
30370,note_on,0,0,1,,,,,,,,,0,,,82,100
30370,note_on,0,0,3,,,,,,,,,0,,,71,0
30370,note_on,10,0,1,,,,,,,,,0,,,70,100
30380,note_on,0,0,3,,,,,,,,,0,,,57,100
30380,note_on,0,0,1,,,,,,,,,0,,,70,0
30380,note_on,10,0,1,,,,,,,,,0,,,82,0
30380,note_on,10,0,3,,,,,,,,,0,,,69,100
30390,note_on,0,0,1,,,,,,,,,0,,,80,100
30390,note_on,10,0,1,,,,,,,,,0,,,68,100
30390,note_on,10,0,3,,,,,,,,,0,,,57,0
30390,note_on,0,0,3,,,,,,,,,0,,,69,0
30400,note_on,0,0,3,,,,,,,,,0,,,55,100
30400,note_on,10,0,3,,,,,,,,,0,,,67,100
30400,note_on,0,0,1,,,,,,,,,0,,,68,0
30400,note_on,10,0,1,,,,,,,,,0,,,80,0
30410,note_on,0,0,1,,,,,,,,,0,,,78,100
30410,note_on,0,0,3,,,,,,,,,0,,,67,0
30410,note_on,10,0,3,,,,,,,,,0,,,55,0
30410,note_on,10,0,1,,,,,,,,,0,,,66,100
30420,note_on,0,0,4,,,,,,,,,0,,,53,100
30420,note_on,0,0,1,,,,,,,,,0,,,66,0
30420,note_on,270,0,4,,,,,,,,,0,,,65,100
30420,note_on,10,0,1,,,,,,,,,0,,,78,0
30430,note_on,0,0,4,,,,,,,,,0,,,65,0
30430,note_on,10,0,4,,,,,,,,,0,,,53,0
30430,note_on,0,0,1,,,,,,,,,0,,,76,100
30430,note_on,10,0,1,,,,,,,,,0,,,64,100
30440,note_on,0,0,4,,,,,,,,,0,,,51,100
30440,note_on,0,0,1,,,,,,,,,0,,,64,0
30440,note_on,10,0,1,,,,,,,,,0,,,76,0
30440,note_on,10,0,4,,,,,,,,,0,,,63,100
30450,note_on,10,0,1,,,,,,,,,0,,,62,100
30450,note_on,10,0,4,,,,,,,,,0,,,51,0
30450,note_on,0,0,4,,,,,,,,,0,,,63,0
30450,note_on,0,0,1,,,,,,,,,0,,,74,100
30460,note_on,0,0,4,,,,,,,,,0,,,49,100
30460,note_on,0,0,1,,,,,,,,,0,,,62,0
30460,note_on,10,0,4,,,,,,,,,0,,,61,100
30460,note_on,10,0,1,,,,,,,,,0,,,74,0
30470,note_on,10,0,1,,,,,,,,,0,,,60,100
30470,note_on,0,0,1,,,,,,,,,0,,,72,100
30470,note_on,0,0,4,,,,,,,,,0,,,61,0
30470,note_on,10,0,4,,,,,,,,,0,,,49,0
30480,note_on,0,0,4,,,,,,,,,0,,,47,100
30480,note_on,10,0,4,,,,,,,,,0,,,59,100
30480,note_on,10,0,1,,,,,,,,,0,,,72,0
30480,note_on,0,0,1,,,,,,,,,0,,,60,0
30490,note_on,10,0,4,,,,,,,,,0,,,47,0
30490,note_on,0,0,1,,,,,,,,,0,,,70,100
30490,note_on,0,0,4,,,,,,,,,0,,,59,0
30490,note_on,10,0,1,,,,,,,,,0,,,58,100
30500,note_on,10,0,1,,,,,,,,,0,,,70,0
30500,note_on,10,0,4,,,,,,,,,0,,,57,100
30500,note_on,0,0,4,,,,,,,,,0,,,45,100
30500,note_on,0,0,1,,,,,,,,,0,,,58,0
30510,note_on,0,0,1,,,,,,,,,0,,,68,100
30510,note_on,0,0,4,,,,,,,,,0,,,57,0
30510,note_on,10,0,4,,,,,,,,,0,,,45,0
30510,note_on,10,0,1,,,,,,,,,0,,,56,100
30520,note_on,0,0,1,,,,,,,,,0,,,56,0
30520,note_on,10,0,1,,,,,,,,,0,,,68,0
30520,note_on,10,0,4,,,,,,,,,0,,,53,100
30520,note_on,0,0,4,,,,,,,,,0,,,41,100
30530,note_on,10,0,1,,,,,,,,,0,,,50,100
30530,note_on,0,0,1,,,,,,,,,0,,,62,100
30530,note_on,10,0,4,,,,,,,,,0,,,41,0
30530,note_on,0,0,4,,,,,,,,,0,,,53,0
30540,note_on,0,0,4,,,,,,,,,0,,,34,100
30540,note_on,10,0,4,,,,,,,,,0,,,46,100
30540,time_signature,360,1,0,47,32,3,8,,,,,,,,,
30540,set_tempo,0,1,0,,,,,,652174,,,,,,,
30540,note_on,10,0,1,,,,,,,,,0,,,62,0
30540,note_on,0,0,1,,,,,,,,,0,,,50,0
30542,set_tempo,2,1,0,,,,,,653666,,,,,,,
30555,set_tempo,13,1,0,,,,,,655809,,,,,,,
30567,set_tempo,12,1,0,,,,,,657967,,,,,,,
30576,set_tempo,9,1,0,,,,,,660139,,,,,,,
30589,set_tempo,13,1,0,,,,,,662325,,,,,,,
30597,set_tempo,8,1,0,,,,,,664525,,,,,,,
30600,note_on,0,0,4,,,,,,,,,0,,,33,100
30600,note_on,0,0,4,,,,,,,,,0,,,45,100
30600,note_on,0,0,4,,,,,,,,,0,,,46,0
30600,note_on,60,0,4,,,,,,,,,0,,,34,0
30610,set_tempo,13,1,0,,,,,,666741,,,,,,,
30615,note_on,15,0,4,,,,,,,,,0,,,33,0
30615,note_on,0,0,4,,,,,,,,,0,,,34,101
30615,note_on,0,0,4,,,,,,,,,0,,,46,101
30615,note_on,0,0,4,,,,,,,,,0,,,45,0
30619,set_tempo,9,1,0,,,,,,668971,,,,,,,
30630,note_on,0,0,4,,,,,,,,,0,,,38,101
30630,note_on,0,0,4,,,,,,,,,0,,,46,0
30630,note_on,0,0,4,,,,,,,,,0,,,50,101
30630,note_on,15,0,4,,,,,,,,,0,,,34,0
30632,set_tempo,13,1,0,,,,,,671216,,,,,,,
30640,set_tempo,8,1,0,,,,,,673476,,,,,,,
30645,note_on,0,0,4,,,,,,,,,0,,,41,101
30645,note_on,0,0,4,,,,,,,,,0,,,50,0
30645,note_on,0,0,4,,,,,,,,,0,,,53,101
30645,note_on,15,0,4,,,,,,,,,0,,,38,0
30653,set_tempo,13,1,0,,,,,,675752,,,,,,,
30660,note_on,0,0,4,,,,,,,,,0,,,56,101
30660,note_on,0,0,4,,,,,,,,,0,,,53,0
30660,note_on,0,0,4,,,,,,,,,0,,,44,101
30660,note_on,15,0,4,,,,,,,,,0,,,41,0
30662,set_tempo,9,1,0,,,,,,678043,,,,,,,
30675,set_tempo,13,1,0,,,,,,680349,,,,,,,
30675,note_on,0,0,4,,,,,,,,,0,,,58,102
30675,note_on,0,0,4,,,,,,,,,0,,,56,0
30675,note_on,0,0,4,,,,,,,,,0,,,46,102
30675,note_on,15,0,4,,,,,,,,,0,,,44,0
30683,set_tempo,8,1,0,,,,,,682672,,,,,,,
30690,note_on,0,0,4,,,,,,,,,0,,,50,102
30690,note_on,150,0,1,,,,,,,,,0,,,62,102
30690,note_on,0,0,4,,,,,,,,,0,,,58,0
30690,note_on,15,0,4,,,,,,,,,0,,,46,0
30696,set_tempo,13,1,0,,,,,,685010,,,,,,,
30705,note_on,15,0,4,,,,,,,,,0,,,50,0
30705,note_on,0,0,1,,,,,,,,,0,,,65,102
30705,note_on,0,0,4,,,,,,,,,0,,,53,102
30705,note_on,15,0,1,,,,,,,,,0,,,62,0
30705,set_tempo,9,1,0,,,,,,687364,,,,,,,
30717,set_tempo,12,1,0,,,,,,689734,,,,,,,
30720,note_on,15,0,4,,,,,,,,,0,,,53,0
30720,note_on,15,0,1,,,,,,,,,0,,,65,0
30720,note_on,0,0,4,,,,,,,,,0,,,56,102
30720,note_on,0,0,1,,,,,,,,,0,,,68,102
30726,set_tempo,9,1,0,,,,,,692121,,,,,,,
30735,note_on,0,0,1,,,,,,,,,0,,,70,103
30735,note_on,15,0,1,,,,,,,,,0,,,68,0
30735,note_on,15,0,4,,,,,,,,,0,,,56,0
30735,note_on,0,0,4,,,,,,,,,0,,,58,103
30739,set_tempo,13,1,0,,,,,,694525,,,,,,,
30747,set_tempo,8,1,0,,,,,,696945,,,,,,,
30750,note_on,0,0,1,,,,,,,,,0,,,74,103
30750,note_on,340,0,3,,,,,,,,,0,,,62,103
30750,note_on,15,0,1,,,,,,,,,0,,,70,0
30750,note_on,15,0,4,,,,,,,,,0,,,58,0
30760,set_tempo,13,1,0,,,,,,699382,,,,,,,
30765,note_on,0,0,1,,,,,,,,,0,,,77,103
30765,note_on,15,0,3,,,,,,,,,0,,,62,0
30765,note_on,0,0,3,,,,,,,,,0,,,65,103
30765,note_on,15,0,1,,,,,,,,,0,,,74,0
30769,set_tempo,9,1,0,,,,,,701836,,,,,,,
30780,note_on,0,0,3,,,,,,,,,0,,,68,103
30780,note_on,0,0,1,,,,,,,,,0,,,80,103
30780,note_on,15,0,3,,,,,,,,,0,,,65,0
30780,note_on,15,0,1,,,,,,,,,0,,,77,0
30782,set_tempo,13,1,0,,,,,,704308,,,,,,,
30790,set_tempo,8,1,0,,,,,,706797,,,,,,,
30795,note_on,0,0,1,,,,,,,,,0,,,82,103
30795,note_on,0,0,3,,,,,,,,,0,,,70,103
30795,note_on,15,0,3,,,,,,,,,0,,,68,0
30795,note_on,15,0,1,,,,,,,,,0,,,80,0
30803,set_tempo,13,1,0,,,,,,709304,,,,,,,
30810,note_on,0,0,3,,,,,,,,,0,,,74,104
30810,note_on,0,0,1,,,,,,,,,0,,,86,104
30810,note_on,15,0,1,,,,,,,,,0,,,82,0
30810,note_on,15,0,3,,,,,,,,,0,,,70,0
30812,set_tempo,9,1,0,,,,,,711828,,,,,,,
30825,note_on,15,0,3,,,,,,,,,0,,,74,0
30825,note_on,0,0,3,,,,,,,,,0,,,77,104
30825,note_on,15,0,1,,,,,,,,,0,,,86,0
30825,note_on,0,0,1,,,,,,,,,0,,,89,104
30825,set_tempo,13,1,0,,,,,,714371,,,,,,,
30833,set_tempo,8,1,0,,,,,,716932,,,,,,,
30840,note_on,15,0,3,,,,,,,,,0,,,77,0
30840,note_on,15,0,1,,,,,,,,,0,,,89,0
30840,note_on,0,0,3,,,,,,,,,0,,,80,104
30840,note_on,0,0,1,,,,,,,,,0,,,92,104
30846,set_tempo,13,1,0,,,,,,719511,,,,,,,
30855,note_on,15,0,3,,,,,,,,,0,,,80,0
30855,note_on,15,0,1,,,,,,,,,0,,,92,0
30855,note_on,0,0,1,,,,,,,,,0,,,93,104
30855,set_tempo,9,1,0,,,,,,722109,,,,,,,
30855,note_on,0,0,3,,,,,,,,,0,,,81,104
30867,set_tempo,12,1,0,,,,,,724725,,,,,,,
30870,note_on,0,0,1,,,,,,,,,0,,,96,105
30870,note_on,15,0,1,,,,,,,,,0,,,93,0
30870,note_on,15,0,3,,,,,,,,,0,,,81,0
30870,note_on,0,0,3,,,,,,,,,0,,,84,105
30876,set_tempo,9,1,0,,,,,,727361,,,,,,,
30885,note_on,0,0,3,,,,,,,,,0,,,82,105
30885,note_on,15,0,3,,,,,,,,,0,,,84,0
30885,note_on,15,0,1,,,,,,,,,0,,,96,0
30885,note_on,0,0,1,,,,,,,,,0,,,94,105
30889,set_tempo,13,1,0,,,,,,730016,,,,,,,
30897,set_tempo,8,1,0,,,,,,732690,,,,,,,
30900,note_on,0,0,1,,,,,,,,,0,,,92,105
30900,note_on,0,0,3,,,,,,,,,0,,,80,105
30900,note_on,15,0,1,,,,,,,,,0,,,94,0
30900,note_on,15,0,3,,,,,,,,,0,,,82,0
30910,set_tempo,13,1,0,,,,,,735384,,,,,,,
30915,note_on,0,0,3,,,,,,,,,0,,,77,105
30915,note_on,15,0,1,,,,,,,,,0,,,92,0
30915,note_on,0,0,1,,,,,,,,,0,,,89,105
30915,note_on,15,0,3,,,,,,,,,0,,,80,0
30919,set_tempo,9,1,0,,,,,,738098,,,,,,,
30930,note_on,15,0,3,,,,,,,,,0,,,77,0
30930,note_on,0,0,1,,,,,,,,,0,,,86,106
30930,note_on,0,0,3,,,,,,,,,0,,,74,106
30930,note_on,15,0,1,,,,,,,,,0,,,89,0
30932,set_tempo,13,1,0,,,,,,740832,,,,,,,
30940,set_tempo,8,1,0,,,,,,743587,,,,,,,
30945,note_on,15,0,3,,,,,,,,,0,,,74,0
30945,note_on,0,0,1,,,,,,,,,0,,,82,106
30945,note_on,15,0,1,,,,,,,,,0,,,86,0
30945,note_on,0,0,3,,,,,,,,,0,,,70,106
30953,set_tempo,13,1,0,,,,,,746361,,,,,,,
30960,note_on,0,0,3,,,,,,,,,0,,,69,126
30960,note_on,15,0,3,,,,,,,,,0,,,70,0
30960,note_on,15,0,1,,,,,,,,,0,,,82,0
30960,note_on,0,0,1,,,,,,,,,0,,,81,126
30962,set_tempo,9,1,0,,,,,,749157,,,,,,,
30975,note_on,0,0,3,,,,,,,,,0,,,72,106
30975,note_on,15,0,1,,,,,,,,,0,,,81,0
30975,note_on,0,0,1,,,,,,,,,0,,,84,106
30975,note_on,15,0,3,,,,,,,,,0,,,69,0
30975,set_tempo,13,1,0,,,,,,751974,,,,,,,
30983,set_tempo,8,1,0,,,,,,754812,,,,,,,
30990,note_on,15,0,1,,,,,,,,,0,,,84,0
30990,note_on,15,0,3,,,,,,,,,0,,,72,0
30990,note_on,0,0,3,,,,,,,,,0,,,70,107
30990,note_on,0,0,1,,,,,,,,,0,,,82,107
30996,set_tempo,13,1,0,,,,,,757671,,,,,,,
31005,note_on,15,0,3,,,,,,,,,0,,,70,0
31005,set_tempo,9,1,0,,,,,,760553,,,,,,,
31005,note_on,0,0,1,,,,,,,,,0,,,80,107
31005,note_on,0,0,3,,,,,,,,,0,,,68,107
31005,note_on,15,0,1,,,,,,,,,0,,,82,0
31017,set_tempo,12,1,0,,,,,,763456,,,,,,,
31020,note_on,15,0,3,,,,,,,,,0,,,68,0
31020,note_on,15,0,1,,,,,,,,,0,,,80,0
31020,note_on,0,0,3,,,,,,,,,0,,,65,107
31020,note_on,0,0,1,,,,,,,,,0,,,77,107
31026,set_tempo,9,1,0,,,,,,766381,,,,,,,
31035,note_on,15,0,1,,,,,,,,,0,,,77,0
31035,note_on,0,0,3,,,,,,,,,0,,,62,107
31035,note_on,0,0,1,,,,,,,,,0,,,74,107
31035,note_on,15,0,3,,,,,,,,,0,,,65,0
31039,set_tempo,13,1,0,,,,,,769329,,,,,,,
31047,set_tempo,8,1,0,,,,,,772300,,,,,,,
31050,note_on,15,0,1,,,,,,,,,0,,,74,0
31050,note_on,0,0,3,,,,,,,,,0,,,58,107
31050,note_on,0,0,1,,,,,,,,,0,,,70,107
31050,note_on,15,0,3,,,,,,,,,0,,,62,0
31060,set_tempo,13,1,0,,,,,,775294,,,,,,,
31065,note_on,15,0,1,,,,,,,,,0,,,70,0
31065,note_on,315,0,4,,,,,,,,,0,,,57,127
31065,note_on,0,0,1,,,,,,,,,0,,,69,127
31065,note_on,15,0,3,,,,,,,,,0,,,58,0
31069,set_tempo,9,1,0,,,,,,778311,,,,,,,
31080,note_on,0,0,4,,,,,,,,,0,,,60,108
31080,note_on,0,0,1,,,,,,,,,0,,,72,108
31080,note_on,15,0,1,,,,,,,,,0,,,69,0
31080,note_on,15,0,4,,,,,,,,,0,,,57,0
31082,set_tempo,13,1,0,,,,,,781352,,,,,,,
31090,set_tempo,8,1,0,,,,,,784416,,,,,,,
31095,note_on,0,0,4,,,,,,,,,0,,,58,108
31095,note_on,15,0,1,,,,,,,,,0,,,72,0
31095,note_on,15,0,4,,,,,,,,,0,,,60,0
31095,note_on,0,0,1,,,,,,,,,0,,,70,108
31103,set_tempo,13,1,0,,,,,,787505,,,,,,,
31110,note_on,15,0,1,,,,,,,,,0,,,70,0
31110,note_on,15,0,4,,,,,,,,,0,,,58,0
31110,note_on,0,0,4,,,,,,,,,0,,,56,108
31110,note_on,0,0,1,,,,,,,,,0,,,68,108
31112,set_tempo,9,1,0,,,,,,790618,,,,,,,
31125,note_on,0,0,4,,,,,,,,,0,,,53,109
31125,note_on,15,0,4,,,,,,,,,0,,,56,0
31125,set_tempo,13,1,0,,,,,,793756,,,,,,,
31125,note_on,0,0,1,,,,,,,,,0,,,65,109
31125,note_on,15,0,1,,,,,,,,,0,,,68,0
31133,set_tempo,8,1,0,,,,,,796919,,,,,,,
31140,note_on,15,0,4,,,,,,,,,0,,,53,0
31140,note_on,15,0,1,,,,,,,,,0,,,65,0
31140,note_on,0,0,4,,,,,,,,,0,,,50,109
31140,note_on,0,0,1,,,,,,,,,0,,,62,109
31146,set_tempo,13,1,0,,,,,,800107,,,,,,,
31155,set_tempo,9,1,0,,,,,,803320,,,,,,,
31155,note_on,0,0,4,,,,,,,,,0,,,46,109
31155,note_on,0,0,1,,,,,,,,,0,,,58,109
31155,note_on,15,0,1,,,,,,,,,0,,,62,0
31155,note_on,15,0,4,,,,,,,,,0,,,50,0
31167,set_tempo,12,1,0,,,,,,806560,,,,,,,
31170,note_on,15,0,1,,,,,,,,,0,,,58,0
31170,note_on,0,0,1,,,,,,,,,0,,,57,109
31170,note_on,0,0,4,,,,,,,,,0,,,45,109
31170,note_on,15,0,4,,,,,,,,,0,,,46,0
31176,set_tempo,9,1,0,,,,,,809826,,,,,,,
31185,note_on,15,0,4,,,,,,,,,0,,,45,0
31185,note_on,0,0,1,,,,,,,,,0,,,58,110
31185,note_on,15,0,1,,,,,,,,,0,,,57,0
31185,note_on,0,0,4,,,,,,,,,0,,,46,110
31189,set_tempo,13,1,0,,,,,,813118,,,,,,,
31197,set_tempo,8,1,0,,,,,,816438,,,,,,,
31200,note_on,0,0,1,,,,,,,,,0,,,62,110
31200,note_on,15,0,1,,,,,,,,,0,,,58,0
31200,note_on,0,0,4,,,,,,,,,0,,,50,110
31200,note_on,15,0,4,,,,,,,,,0,,,46,0
31210,set_tempo,13,1,0,,,,,,819784,,,,,,,
31215,note_on,15,0,4,,,,,,,,,0,,,50,0
31215,note_on,15,0,1,,,,,,,,,0,,,62,0
31215,note_on,0,0,4,,,,,,,,,0,,,53,110
31215,note_on,0,0,1,,,,,,,,,0,,,65,110
31219,set_tempo,9,1,0,,,,,,823158,,,,,,,
31230,note_on,15,0,4,,,,,,,,,0,,,53,0
31230,note_on,15,0,1,,,,,,,,,0,,,65,0
31230,note_on,0,0,4,,,,,,,,,0,,,56,110
31230,note_on,0,0,1,,,,,,,,,0,,,68,110
31232,set_tempo,13,1,0,,,,,,826560,,,,,,,
31240,set_tempo,8,1,0,,,,,,829990,,,,,,,
31245,note_on,15,0,4,,,,,,,,,0,,,56,0
31245,note_on,15,0,1,,,,,,,,,0,,,68,0
31245,note_on,0,0,4,,,,,,,,,0,,,45,127
31245,time_signature,5,1,0,4,4,24,8,,,,,,,,,
31245,note_on,0,0,4,,,,,,,,,0,,,57,127
31245,set_tempo,0,1,0,,,,,,1071429,,,,,,,
31254,note_on,0,0,1,,,,,,,,,0,,,70,110
31254,note_on,9,0,1,,,,,,,,,0,,,58,110
31258,note_on,0,0,4,,,,,,,,,0,,,45,0
31258,note_on,13,0,4,,,,,,,,,0,,,57,0
31267,note_on,13,0,1,,,,,,,,,0,,,70,0
31267,note_on,0,0,4,,,,,,,,,0,,,63,110
31267,note_on,0,0,1,,,,,,,,,0,,,58,0
31267,note_on,9,0,4,,,,,,,,,0,,,51,110
31280,note_on,0,0,1,,,,,,,,,0,,,62,110
31280,note_on,13,0,1,,,,,,,,,0,,,74,110
31280,note_on,13,0,4,,,,,,,,,0,,,63,0
31280,note_on,0,0,4,,,,,,,,,0,,,51,0
31293,note_on,13,0,1,,,,,,,,,0,,,62,0
31293,note_on,13,0,4,,,,,,,,,0,,,49,110
31293,note_on,0,0,1,,,,,,,,,0,,,74,0
31293,note_on,0,0,4,,,,,,,,,0,,,61,110
31305,note_on,12,0,1,,,,,,,,,0,,,60,110
31305,note_on,0,0,1,,,,,,,,,0,,,72,110
31306,note_on,13,0,4,,,,,,,,,0,,,61,0
31306,note_on,0,0,4,,,,,,,,,0,,,49,0
31318,note_on,12,0,4,,,,,,,,,0,,,47,110
31318,note_on,13,0,1,,,,,,,,,0,,,72,0
31318,note_on,0,0,1,,,,,,,,,0,,,60,0
31318,note_on,0,0,4,,,,,,,,,0,,,59,110
31331,note_on,0,0,4,,,,,,,,,0,,,47,0
31331,note_on,13,0,4,,,,,,,,,0,,,59,0
31332,note_on,14,0,1,,,,,,,,,0,,,58,110
31332,note_on,0,0,1,,,,,,,,,0,,,70,110
31343,note_on,0,0,4,,,,,,,,,0,,,57,110
31343,note_on,12,0,4,,,,,,,,,0,,,45,110
31345,note_on,13,0,1,,,,,,,,,0,,,70,0
31345,note_on,0,0,1,,,,,,,,,0,,,58,0
31356,note_on,0,0,1,,,,,,,,,0,,,68,110
31356,note_on,13,0,4,,,,,,,,,0,,,57,0
31356,note_on,0,0,4,,,,,,,,,0,,,45,0
31356,note_on,11,0,1,,,,,,,,,0,,,56,110
31369,note_on,13,0,4,,,,,,,,,0,,,43,110
31369,note_on,0,0,4,,,,,,,,,0,,,55,110
31369,note_on,13,0,1,,,,,,,,,0,,,68,0
31369,note_on,0,0,1,,,,,,,,,0,,,56,0
31382,note_on,0,0,4,,,,,,,,,0,,,43,0
31382,note_on,13,0,4,,,,,,,,,0,,,55,0
31383,note_on,0,0,1,,,,,,,,,0,,,66,110
31383,note_on,14,0,1,,,,,,,,,0,,,54,110
31394,note_on,12,0,4,,,,,,,,,0,,,41,110
31394,note_on,0,0,4,,,,,,,,,0,,,53,110
31396,note_on,0,0,1,,,,,,,,,0,,,54,0
31396,note_on,13,0,1,,,,,,,,,0,,,66,0
31407,note_on,0,0,2,,,,,,,,,0,,,64,110
31407,note_on,13,0,4,,,,,,,,,0,,,53,0
31407,note_on,8637,0,2,,,,,,,,,0,,,52,110
31407,note_on,0,0,4,,,,,,,,,0,,,41,0
31420,note_on,13,0,2,,,,,,,,,0,,,64,0
31420,note_on,0,0,2,,,,,,,,,0,,,52,0
31421,note_on,14,0,4,,,,,,,,,0,,,39,110
31421,note_on,0,0,4,,,,,,,,,0,,,51,110
31433,note_on,0,0,2,,,,,,,,,0,,,62,110
31433,note_on,13,0,2,,,,,,,,,0,,,50,110
31434,note_on,13,0,4,,,,,,,,,0,,,51,0
31434,note_on,0,0,4,,,,,,,,,0,,,39,0
31444,note_on,0,0,4,,,,,,,,,0,,,49,110
31444,note_on,10,0,4,,,,,,,,,0,,,37,110
31446,note_on,13,0,2,,,,,,,,,0,,,62,0
31446,note_on,0,0,2,,,,,,,,,0,,,50,0
31457,note_on,0,0,4,,,,,,,,,0,,,37,0
31457,note_on,13,0,4,,,,,,,,,0,,,49,0
31458,note_on,0,0,2,,,,,,,,,0,,,60,110
31458,note_on,12,0,2,,,,,,,,,0,,,48,110
31471,note_on,13,0,2,,,,,,,,,0,,,60,0
31471,note_on,0,0,2,,,,,,,,,0,,,48,0
31472,note_on,0,0,4,,,,,,,,,0,,,47,110
31472,note_on,15,0,4,,,,,,,,,0,,,35,110
31485,set_tempo,240,1,0,,,,,,652174,,,,,,,
31485,note_on,0,0,4,,,,,,,,,0,,,34,110
31485,note_on,13,0,4,,,,,,,,,0,,,47,0
31485,note_on,0,0,4,,,,,,,,,0,,,46,110
31485,note_on,0,0,4,,,,,,,,,0,,,35,0
31515,note_on,0,0,4,,,,,,,,,0,,,34,0
31515,note_on,30,0,4,,,,,,,,,0,,,46,0
31545,note_on,0,0,4,,,,,,,,,0,,,46,110
31545,note_on,149,0,1,,,,,,,,,0,,,75,110
31545,note_on,0,0,1,,,,,,,,,0,,,67,110
31545,note_on,0,0,1,,,,,,,,,0,,,63,110
31545,note_on,0,0,4,,,,,,,,,0,,,51,110
31545,note_on,30,0,4,,,,,,,,,0,,,39,110
31575,note_on,0,0,1,,,,,,,,,0,,,67,0
31575,note_on,0,0,1,,,,,,,,,0,,,75,0
31575,note_on,30,0,1,,,,,,,,,0,,,63,0
31575,note_on,0,0,4,,,,,,,,,0,,,39,0
31575,note_on,0,0,4,,,,,,,,,0,,,46,0
31575,note_on,30,0,4,,,,,,,,,0,,,51,0
31605,note_on,0,0,4,,,,,,,,,0,,,46,110
31605,note_on,0,0,1,,,,,,,,,0,,,77,110
31605,note_on,0,0,1,,,,,,,,,0,,,68,110
31605,note_on,0,0,4,,,,,,,,,0,,,39,110
31605,note_on,30,0,1,,,,,,,,,0,,,65,110
31605,note_on,30,0,4,,,,,,,,,0,,,53,110
31635,note_on,0,0,1,,,,,,,,,0,,,68,0
31635,note_on,30,0,4,,,,,,,,,0,,,39,0
31635,note_on,0,0,1,,,,,,,,,0,,,65,0
31635,note_on,30,0,1,,,,,,,,,0,,,77,0
31635,note_on,0,0,4,,,,,,,,,0,,,46,0
31635,note_on,0,0,4,,,,,,,,,0,,,53,0
31665,note_on,0,0,1,,,,,,,,,0,,,66,110
31665,note_on,0,0,1,,,,,,,,,0,,,69,110
31665,note_on,0,0,4,,,,,,,,,0,,,46,110
31665,note_on,30,0,1,,,,,,,,,0,,,78,110
31665,note_on,30,0,4,,,,,,,,,0,,,54,110
31665,note_on,0,0,4,,,,,,,,,0,,,39,110
31695,note_on,0,0,1,,,,,,,,,0,,,69,0
31695,note_on,0,0,4,,,,,,,,,0,,,46,0
31695,note_on,0,0,4,,,,,,,,,0,,,54,0
31695,note_on,30,0,1,,,,,,,,,0,,,66,0
31695,note_on,30,0,4,,,,,,,,,0,,,39,0
31695,note_on,0,0,1,,,,,,,,,0,,,78,0
31725,note_on,30,0,1,,,,,,,,,0,,,79,127
31725,note_on,30,0,4,,,,,,,,,0,,,55,110
31725,note_on,0,0,1,,,,,,,,,0,,,67,127
31725,note_on,0,0,1,,,,,,,,,0,,,70,127
31725,note_on,0,0,4,,,,,,,,,0,,,39,110
31725,note_on,0,0,4,,,,,,,,,0,,,46,110
31785,note_on,0,0,1,,,,,,,,,0,,,79,0
31785,note_on,60,0,1,,,,,,,,,0,,,67,0
31785,note_on,0,0,4,,,,,,,,,0,,,51,110
31785,note_on,60,0,4,,,,,,,,,0,,,55,0
31785,note_on,0,0,1,,,,,,,,,0,,,63,110
31785,note_on,0,0,1,,,,,,,,,0,,,70,0
31785,note_on,0,0,1,,,,,,,,,0,,,75,110
31815,note_on,30,0,1,,,,,,,,,0,,,75,0
31815,note_on,0,0,1,,,,,,,,,0,,,63,0
31815,note_on,30,0,4,,,,,,,,,0,,,51,0
31845,set_tempo,360,1,0,,,,,,1071429,,,,,,,
31845,note_on,30,0,4,,,,,,,,,0,,,46,0
31845,note_on,0,0,4,,,,,,,,,0,,,57,110
31845,note_on,0,0,4,,,,,,,,,0,,,45,110
31845,note_on,0,0,4,,,,,,,,,0,,,39,0
31849,note_on,34,0,1,,,,,,,,,0,,,58,110
31849,note_on,0,0,1,,,,,,,,,0,,,70,110
31854,note_on,0,0,4,,,,,,,,,0,,,57,0
31854,note_on,9,0,4,,,,,,,,,0,,,45,0
31858,note_on,4,0,4,,,,,,,,,0,,,67,110
31858,note_on,9,0,1,,,,,,,,,0,,,70,0
31858,note_on,0,0,4,,,,,,,,,0,,,55,110
31858,note_on,0,0,1,,,,,,,,,0,,,58,0
31867,note_on,9,0,4,,,,,,,,,0,,,55,0
31867,note_on,0,0,4,,,,,,,,,0,,,67,0
31868,note_on,0,0,1,,,,,,,,,0,,,65,110
31868,note_on,10,0,1,,,,,,,,,0,,,77,110
31877,note_on,0,0,1,,,,,,,,,0,,,77,0
31877,note_on,9,0,1,,,,,,,,,0,,,65,0
31878,note_on,0,0,4,,,,,,,,,0,,,63,110
31878,note_on,11,0,4,,,,,,,,,0,,,51,110
31887,note_on,0,0,1,,,,,,,,,0,,,74,110
31887,note_on,10,0,1,,,,,,,,,0,,,58,110
31887,note_on,9,0,4,,,,,,,,,0,,,63,0
31887,note_on,0,0,4,,,,,,,,,0,,,51,0
31893,note_on,0,0,4,,,,,,,,,0,,,60,110
31893,note_on,6,0,4,,,,,,,,,0,,,48,110
31896,note_on,9,0,1,,,,,,,,,0,,,74,0
31896,note_on,0,0,1,,,,,,,,,0,,,58,0
31902,note_on,9,0,4,,,,,,,,,0,,,60,0
31902,note_on,0,0,4,,,,,,,,,0,,,48,0
31902,note_on,6,0,1,,,,,,,,,0,,,55,110
31902,note_on,0,0,1,,,,,,,,,0,,,70,110
31911,note_on,0,0,1,,,,,,,,,0,,,55,0
31911,note_on,9,0,1,,,,,,,,,0,,,70,0
31912,note_on,10,0,4,,,,,,,,,0,,,44,110
31912,note_on,0,0,4,,,,,,,,,0,,,56,110
31921,note_on,0,0,4,,,,,,,,,0,,,44,0
31921,note_on,0,0,1,,,,,,,,,0,,,67,110
31921,note_on,10,0,1,,,,,,,,,0,,,51,110
31921,note_on,9,0,4,,,,,,,,,0,,,56,0
31930,note_on,0,0,1,,,,,,,,,0,,,51,0
31930,note_on,9,0,1,,,,,,,,,0,,,67,0
31931,note_on,10,0,4,,,,,,,,,0,,,41,110
31931,note_on,0,0,4,,,,,,,,,0,,,53,110
31938,note_on,0,0,2,,,,,,,,,0,,,63,110
31938,note_on,467,0,2,,,,,,,,,0,,,51,110
31940,note_on,9,0,4,,,,,,,,,0,,,53,0
31940,note_on,0,0,4,,,,,,,,,0,,,41,0
31946,note_on,0,0,4,,,,,,,,,0,,,50,110
31946,note_on,6,0,4,,,,,,,,,0,,,38,110
31947,note_on,9,0,2,,,,,,,,,0,,,63,0
31947,note_on,0,0,2,,,,,,,,,0,,,51,0
31955,note_on,9,0,4,,,,,,,,,0,,,50,0
31955,note_on,0,0,4,,,,,,,,,0,,,38,0
31956,note_on,0,0,2,,,,,,,,,0,,,60,110
31956,note_on,9,0,2,,,,,,,,,0,,,48,110
31965,note_on,9,0,2,,,,,,,,,0,,,60,0
31965,set_tempo,120,1,0,,,,,,652174,,,,,,,
31965,note_on,0,0,2,,,,,,,,,0,,,48,0
31965,note_on,0,0,4,,,,,,,,,0,,,46,110
31965,note_on,10,0,4,,,,,,,,,0,,,34,110
31995,note_on,0,0,4,,,,,,,,,0,,,34,0
31995,note_on,30,0,4,,,,,,,,,0,,,46,0
32025,note_on,0,0,1,,,,,,,,,0,,,63,110
32025,note_on,0,0,4,,,,,,,,,0,,,39,110
32025,note_on,0,0,4,,,,,,,,,0,,,46,110
32025,note_on,0,0,1,,,,,,,,,0,,,67,110
32025,note_on,30,0,4,,,,,,,,,0,,,51,110
32025,note_on,95,0,1,,,,,,,,,0,,,75,110
32055,note_on,0,0,1,,,,,,,,,0,,,67,0
32055,note_on,0,0,1,,,,,,,,,0,,,75,0
32055,note_on,0,0,4,,,,,,,,,0,,,51,0
32055,note_on,0,0,4,,,,,,,,,0,,,46,0
32055,note_on,30,0,1,,,,,,,,,0,,,63,0
32055,note_on,30,0,4,,,,,,,,,0,,,39,0
32085,note_on,0,0,1,,,,,,,,,0,,,65,110
32085,note_on,0,0,1,,,,,,,,,0,,,68,110
32085,note_on,0,0,4,,,,,,,,,0,,,39,110
32085,note_on,0,0,4,,,,,,,,,0,,,50,110
32085,note_on,30,0,1,,,,,,,,,0,,,77,110
32085,note_on,0,0,4,,,,,,,,,0,,,47,110
32085,note_on,30,0,4,,,,,,,,,0,,,53,110
32115,note_on,0,0,4,,,,,,,,,0,,,53,0
32115,note_on,0,0,4,,,,,,,,,0,,,50,0
32115,note_on,0,0,4,,,,,,,,,0,,,47,0
32115,note_on,0,0,1,,,,,,,,,0,,,77,0
32115,note_on,0,0,1,,,,,,,,,0,,,68,0
32115,note_on,30,0,1,,,,,,,,,0,,,65,0
32115,note_on,30,0,4,,,,,,,,,0,,,39,0
32145,note_on,30,0,1,,,,,,,,,0,,,79,110
32145,note_on,30,0,4,,,,,,,,,0,,,55,110
32145,note_on,0,0,4,,,,,,,,,0,,,39,110
32145,note_on,0,0,4,,,,,,,,,0,,,46,110
32145,note_on,0,0,1,,,,,,,,,0,,,67,110
32145,note_on,0,0,1,,,,,,,,,0,,,70,110
32175,note_on,0,0,1,,,,,,,,,0,,,70,0
32175,note_on,0,0,4,,,,,,,,,0,,,46,0
32175,note_on,0,0,4,,,,,,,,,0,,,55,0
32175,note_on,0,0,1,,,,,,,,,0,,,79,0
32175,note_on,30,0,4,,,,,,,,,0,,,39,0
32175,note_on,30,0,1,,,,,,,,,0,,,67,0
32205,note_on,30,0,4,,,,,,,,,0,,,39,110
32205,note_on,0,0,1,,,,,,,,,0,,,67,110
32205,note_on,0,0,1,,,,,,,,,0,,,63,110
32205,note_on,30,0,1,,,,,,,,,0,,,75,110
32205,note_on,0,0,4,,,,,,,,,0,,,51,110
32205,note_on,0,0,4,,,,,,,,,0,,,46,110
32325,note_on,0,0,1,,,,,,,,,0,,,75,0
32325,note_on,0,0,1,,,,,,,,,0,,,67,0
32325,note_on,120,0,1,,,,,,,,,0,,,63,0
32325,note_on,0,0,4,,,,,,,,,0,,,39,0
32325,note_on,0,0,1,,,,,,,,,0,,,93,60
32325,note_on,120,0,4,,,,,,,,,0,,,51,0
32325,note_on,0,0,4,,,,,,,,,0,,,46,0
32325,set_tempo,360,1,0,,,,,,1071429,,,,,,,
32327,note_on,2,0,1,,,,,,,,,0,,,94,60
32333,note_on,6,0,1,,,,,,,,,0,,,93,0
32335,note_on,0,0,1,,,,,,,,,0,,,99,60
32335,note_on,2,0,1,,,,,,,,,0,,,94,0
32342,note_on,7,0,1,,,,,,,,,0,,,98,60
32343,note_on,1,0,1,,,,,,,,,0,,,99,0
32347,note_on,4,0,1,,,,,,,,,0,,,96,60
32350,note_on,3,0,1,,,,,,,,,0,,,98,0
32353,note_on,3,0,1,,,,,,,,,0,,,94,60
32355,note_on,2,0,1,,,,,,,,,0,,,96,0
32361,note_on,0,0,1,,,,,,,,,0,,,92,60
32361,note_on,6,0,1,,,,,,,,,0,,,94,0
32367,note_on,6,0,1,,,,,,,,,0,,,91,60
32369,note_on,2,0,1,,,,,,,,,0,,,92,0
32372,note_on,1307,0,3,,,,,,,,,0,,,89,60
32375,note_on,6,0,1,,,,,,,,,0,,,91,0
32379,note_on,7,0,3,,,,,,,,,0,,,87,60
32380,note_on,1,0,3,,,,,,,,,0,,,89,0
32387,note_on,7,0,3,,,,,,,,,0,,,87,0
32387,note_on,0,0,3,,,,,,,,,0,,,86,60
32392,note_on,5,0,3,,,,,,,,,0,,,84,60
32395,note_on,3,0,3,,,,,,,,,0,,,86,0
32398,note_on,3,0,3,,,,,,,,,0,,,82,60
32400,note_on,2,0,3,,,,,,,,,0,,,84,0
32405,note_on,30,0,1,,,,,,,,,0,,,80,60
32406,note_on,6,0,3,,,,,,,,,0,,,82,0
32412,note_on,7,0,1,,,,,,,,,0,,,79,60
32413,note_on,1,0,1,,,,,,,,,0,,,80,0
32417,note_on,4,0,1,,,,,,,,,0,,,77,60
32420,note_on,3,0,1,,,,,,,,,0,,,79,0
32424,note_on,4,0,1,,,,,,,,,0,,,75,60
32425,note_on,1,0,1,,,,,,,,,0,,,77,0
32430,note_on,5,0,1,,,,,,,,,0,,,74,60
32432,note_on,2,0,1,,,,,,,,,0,,,75,0
32437,note_on,5,0,1,,,,,,,,,0,,,72,60
32438,note_on,1,0,1,,,,,,,,,0,,,74,0
32445,note_on,7,0,1,,,,,,,,,0,,,72,0
32445,set_tempo,120,1,0,,,,,,652174,,,,,,,
32445,note_on,39,0,3,,,,,,,,,0,,,70,60
32475,note_on,30,0,3,,,,,,,,,0,,,70,0
32505,note_on,60,0,1,,,,,,,,,0,,,55,60
32505,note_on,180,0,4,,,,,,,,,0,,,51,60
32505,note_on,0,0,1,,,,,,,,,0,,,58,60
32505,note_on,0,0,1,,,,,,,,,0,,,63,60
32535,note_on,0,0,1,,,,,,,,,0,,,55,0
32535,note_on,30,0,4,,,,,,,,,0,,,51,0
32535,note_on,30,0,1,,,,,,,,,0,,,63,0
32535,note_on,0,0,1,,,,,,,,,0,,,58,0
32565,note_on,30,0,1,,,,,,,,,0,,,56,60
32565,note_on,30,0,4,,,,,,,,,0,,,50,60
32565,note_on,0,0,1,,,,,,,,,0,,,59,60
32565,note_on,0,0,1,,,,,,,,,0,,,65,60
32595,note_on,0,0,1,,,,,,,,,0,,,56,0
32595,note_on,0,0,1,,,,,,,,,0,,,59,0
32595,note_on,30,0,1,,,,,,,,,0,,,65,0
32595,note_on,30,0,4,,,,,,,,,0,,,50,0
32625,note_on,30,0,4,,,,,,,,,0,,,38,60
32625,note_on,0,0,1,,,,,,,,,0,,,66,60
32625,note_on,30,0,1,,,,,,,,,0,,,57,60
32625,note_on,0,0,1,,,,,,,,,0,,,60,60
32655,note_on,30,0,1,,,,,,,,,0,,,66,0
32655,note_on,0,0,1,,,,,,,,,0,,,60,0
32655,note_on,30,0,4,,,,,,,,,0,,,38,0
32655,note_on,0,0,1,,,,,,,,,0,,,57,0
32685,note_on,30,0,1,,,,,,,,,0,,,59,80
32685,time_signature,240,1,0,5,4,24,8,,,,,,,,,
32685,note_on,30,0,4,,,,,,,,,0,,,50,60
32685,note_on,0,0,4,,,,,,,,,0,,,43,60
32685,note_on,0,0,1,,,,,,,,,0,,,67,80
32745,note_on,0,0,4,,,,,,,,,0,,,47,60
32745,note_on,0,0,1,,,,,,,,,0,,,62,60
32745,note_on,60,0,4,,,,,,,,,0,,,50,0
32745,note_on,60,0,1,,,,,,,,,0,,,67,0
32745,note_on,0,0,1,,,,,,,,,0,,,59,0
32745,note_on,0,0,1,,,,,,,,,0,,,55,60
32775,note_on,30,0,1,,,,,,,,,0,,,62,0
32775,note_on,0,0,1,,,,,,,,,0,,,55,0
32775,note_on,30,0,4,,,,,,,,,0,,,47,0
32805,note_on,30,0,4,,,,,,,,,0,,,43,0
32805,note_on,30,0,1,,,,,,,,,0,,,94,40
32805,note_on,330,0,3,,,,,,,,,0,,,90,40
32805,set_tempo,120,1,0,,,,,,1071429,,,,,,,
32812,note_on,7,0,1,,,,,,,,,0,,,95,40
32812,note_on,7,0,3,,,,,,,,,0,,,91,40
32813,note_on,1,0,1,,,,,,,,,0,,,94,0
32813,note_on,1,0,3,,,,,,,,,0,,,90,0
32820,note_on,7,0,3,,,,,,,,,0,,,91,0
32820,note_on,7,0,1,,,,,,,,,0,,,95,0
32820,note_on,0,0,3,,,,,,,,,0,,,95,40
32820,note_on,0,0,1,,,,,,,,,0,,,103,40
32827,note_on,7,0,1,,,,,,,,,0,,,102,40
32827,note_on,7,0,3,,,,,,,,,0,,,93,40
32828,note_on,1,0,1,,,,,,,,,0,,,103,0
32828,note_on,1,0,3,,,,,,,,,0,,,95,0
32835,note_on,7,0,1,,,,,,,,,0,,,102,0
32835,note_on,0,0,3,,,,,,,,,0,,,91,40
32835,note_on,0,0,1,,,,,,,,,0,,,100,40
32835,note_on,7,0,3,,,,,,,,,0,,,93,0
32842,note_on,7,0,3,,,,,,,,,0,,,90,40
32842,note_on,7,0,1,,,,,,,,,0,,,98,40
32843,note_on,1,0,1,,,,,,,,,0,,,100,0
32843,note_on,1,0,3,,,,,,,,,0,,,91,0
32850,note_on,0,0,3,,,,,,,,,0,,,88,40
32850,note_on,0,0,1,,,,,,,,,0,,,96,40
32850,note_on,7,0,1,,,,,,,,,0,,,98,0
32850,note_on,7,0,3,,,,,,,,,0,,,90,0
32857,note_on,7,0,1,,,,,,,,,0,,,95,40
32857,note_on,7,0,3,,,,,,,,,0,,,86,40
32858,note_on,1,0,3,,,,,,,,,0,,,88,0
32858,note_on,1,0,1,,,,,,,,,0,,,96,0
32865,note_on,7,0,1,,,,,,,,,0,,,95,0
32865,note_on,7,0,3,,,,,,,,,0,,,86,0
32865,note_on,0,0,3,,,,,,,,,0,,,84,40
32865,note_on,0,0,1,,,,,,,,,0,,,93,40
32872,note_on,7,0,3,,,,,,,,,0,,,83,40
32872,note_on,7,0,1,,,,,,,,,0,,,91,40
32873,note_on,1,0,1,,,,,,,,,0,,,93,0
32873,note_on,1,0,3,,,,,,,,,0,,,84,0
32880,note_on,0,0,1,,,,,,,,,0,,,90,40
32880,note_on,7,0,1,,,,,,,,,0,,,91,0
32880,note_on,7,0,3,,,,,,,,,0,,,83,0
32880,note_on,0,0,3,,,,,,,,,0,,,81,40
32887,note_on,7,0,1,,,,,,,,,0,,,88,40
32887,note_on,7,0,3,,,,,,,,,0,,,79,40
32888,note_on,1,0,1,,,,,,,,,0,,,90,0
32888,note_on,1,0,3,,,,,,,,,0,,,81,0
32895,note_on,7,0,3,,,,,,,,,0,,,79,0
32895,note_on,7,0,1,,,,,,,,,0,,,88,0
32895,note_on,0,0,1,,,,,,,,,0,,,86,40
32895,note_on,0,0,3,,,,,,,,,0,,,78,40
32902,note_on,7,0,3,,,,,,,,,0,,,76,40
32902,note_on,7,0,1,,,,,,,,,0,,,84,40
32903,note_on,1,0,1,,,,,,,,,0,,,86,0
32903,note_on,1,0,3,,,,,,,,,0,,,78,0
32910,note_on,0,0,1,,,,,,,,,0,,,83,40
32910,note_on,7,0,1,,,,,,,,,0,,,84,0
32910,note_on,7,0,3,,,,,,,,,0,,,76,0
32910,note_on,0,0,3,,,,,,,,,0,,,74,40
32917,note_on,7,0,3,,,,,,,,,0,,,72,40
32917,note_on,7,0,1,,,,,,,,,0,,,81,40
32918,note_on,1,0,3,,,,,,,,,0,,,74,0
32918,note_on,1,0,1,,,,,,,,,0,,,83,0
32925,set_tempo,120,1,0,,,,,,653666,,,,,,,
32925,note_on,7,0,3,,,,,,,,,0,,,72,0
32925,note_on,0,0,1,,,,,,,,,0,,,79,40
32925,note_on,0,0,3,,,,,,,,,0,,,71,40
32925,note_on,7,0,1,,,,,,,,,0,,,81,0
32929,set_tempo,4,1,0,,,,,,655809,,,,,,,
32933,set_tempo,4,1,0,,,,,,660139,,,,,,,
32937,set_tempo,4,1,0,,,,,,664525,,,,,,,
32942,set_tempo,5,1,0,,,,,,668971,,,,,,,
32946,set_tempo,4,1,0,,,,,,673476,,,,,,,
32950,set_tempo,4,1,0,,,,,,678043,,,,,,,
32955,note_on,30,0,1,,,,,,,,,0,,,79,0
32955,set_tempo,5,1,0,,,,,,682672,,,,,,,
32955,note_on,30,0,3,,,,,,,,,0,,,71,0
32959,set_tempo,4,1,0,,,,,,687364,,,,,,,
32963,set_tempo,4,1,0,,,,,,692121,,,,,,,
32967,set_tempo,4,1,0,,,,,,696945,,,,,,,
32972,set_tempo,5,1,0,,,,,,701836,,,,,,,
32976,set_tempo,4,1,0,,,,,,704308,,,,,,,
32980,set_tempo,4,1,0,,,,,,709304,,,,,,,
32985,note_on,0,0,1,,,,,,,,,0,,,67,40
32985,note_on,30,0,1,,,,,,,,,0,,,60,40
32985,note_on,0,0,1,,,,,,,,,0,,,64,40
32985,note_on,180,0,4,,,,,,,,,0,,,48,40
32985,set_tempo,5,1,0,,,,,,714371,,,,,,,
32989,set_tempo,4,1,0,,,,,,719511,,,,,,,
32993,set_tempo,4,1,0,,,,,,724725,,,,,,,
32997,set_tempo,4,1,0,,,,,,730016,,,,,,,
33002,set_tempo,5,1,0,,,,,,735384,,,,,,,
33006,set_tempo,4,1,0,,,,,,740832,,,,,,,
33010,set_tempo,4,1,0,,,,,,746361,,,,,,,
33015,note_on,30,0,4,,,,,,,,,0,,,48,0
33015,note_on,30,0,1,,,,,,,,,0,,,67,0
33015,note_on,0,0,1,,,,,,,,,0,,,64,0
33015,note_on,0,0,1,,,,,,,,,0,,,60,0
33015,set_tempo,5,1,0,,,,,,751974,,,,,,,
33019,set_tempo,4,1,0,,,,,,757671,,,,,,,
33023,set_tempo,4,1,0,,,,,,760553,,,,,,,
33027,set_tempo,4,1,0,,,,,,766381,,,,,,,
33032,set_tempo,5,1,0,,,,,,772300,,,,,,,
33036,set_tempo,4,1,0,,,,,,778311,,,,,,,
33040,set_tempo,4,1,0,,,,,,784416,,,,,,,
33045,note_on,0,0,1,,,,,,,,,0,,,60,40
33045,note_on,30,0,4,,,,,,,,,0,,,41,40
33045,note_on,30,0,1,,,,,,,,,0,,,68,40
33045,set_tempo,5,1,0,,,,,,790618,,,,,,,
33045,note_on,0,0,1,,,,,,,,,0,,,65,40
33049,set_tempo,4,1,0,,,,,,796919,,,,,,,
33053,set_tempo,4,1,0,,,,,,803320,,,,,,,
33057,set_tempo,4,1,0,,,,,,809826,,,,,,,
33062,set_tempo,5,1,0,,,,,,816438,,,,,,,
33066,set_tempo,4,1,0,,,,,,823158,,,,,,,
33070,set_tempo,4,1,0,,,,,,826560,,,,,,,
33075,note_on,30,0,4,,,,,,,,,0,,,41,0
33075,note_on,30,0,1,,,,,,,,,0,,,60,0
33075,note_on,0,0,1,,,,,,,,,0,,,68,0
33075,set_tempo,5,1,0,,,,,,833449,,,,,,,
33075,note_on,0,0,1,,,,,,,,,0,,,65,0
33079,set_tempo,4,1,0,,,,,,840454,,,,,,,
33083,set_tempo,4,1,0,,,,,,847577,,,,,,,
33087,set_tempo,4,1,0,,,,,,854823,,,,,,,
33092,set_tempo,5,1,0,,,,,,862193,,,,,,,
33096,set_tempo,4,1,0,,,,,,869691,,,,,,,
33100,set_tempo,4,1,0,,,,,,877321,,,,,,,
33105,set_tempo,5,1,0,,,,,,885086,,,,,,,
33105,note_on,30,0,1,,,,,,,,,0,,,56,40
33105,note_on,30,0,4,,,,,,,,,0,,,34,40
33105,note_on,0,0,1,,,,,,,,,0,,,70,40
33105,note_on,0,0,1,,,,,,,,,0,,,62,40
33105,note_on,0,0,4,,,,,,,,,0,,,46,40
33109,set_tempo,4,1,0,,,,,,892990,,,,,,,
33113,set_tempo,4,1,0,,,,,,901036,,,,,,,
33117,set_tempo,4,1,0,,,,,,905114,,,,,,,
33122,set_tempo,5,1,0,,,,,,913381,,,,,,,
33126,set_tempo,4,1,0,,,,,,921801,,,,,,,
33130,set_tempo,4,1,0,,,,,,930377,,,,,,,
33135,note_on,0,0,4,,,,,,,,,0,,,34,0
33135,note_on,0,0,1,,,,,,,,,0,,,56,0
33135,set_tempo,5,1,0,,,,,,939114,,,,,,,
33135,note_on,30,0,1,,,,,,,,,0,,,70,0
33135,note_on,0,0,1,,,,,,,,,0,,,62,0
33135,note_on,30,0,4,,,,,,,,,0,,,46,0
33139,set_tempo,4,1,0,,,,,,948017,,,,,,,
33143,set_tempo,4,1,0,,,,,,957090,,,,,,,
33147,set_tempo,4,1,0,,,,,,966339,,,,,,,
33152,set_tempo,5,1,0,,,,,,975768,,,,,,,
33156,set_tempo,4,1,0,,,,,,985383,,,,,,,
33160,set_tempo,4,1,0,,,,,,995190,,,,,,,
33165,note_on,0,0,4,,,,,,,,,0,,,46,40
33165,set_tempo,5,1,0,,,,,,1666667,,,,,,,
33165,note_on,30,0,4,,,,,,,,,0,,,39,40
33165,note_on,0,0,1,,,,,,,,,0,,,63,40
33165,note_on,30,0,1,,,,,,,,,0,,,55,40
33165,note_on,0,0,1,,,,,,,,,0,,,70,40
33285,note_on,0,0,4,,,,,,,,,0,,,39,0
33285,note_on,0,0,4,,,,,,,,,0,,,57,60
33285,note_on,120,0,4,,,,,,,,,0,,,46,0
33285,note_on,0,0,1,,,,,,,,,0,,,63,0
33285,note_on,0,0,1,,,,,,,,,0,,,55,0
33285,set_tempo,0,1,0,,,,,,1071429,,,,,,,
33285,time_signature,120,1,0,3,4,24,8,,,,,,,,,
33285,note_on,120,0,1,,,,,,,,,0,,,70,0
33285,marker,0,1,0,,,,,,,,,,,,,
33295,note_on,0,0,4,,,,,,,,,0,,,58,60
33295,note_on,10,0,4,,,,,,,,,0,,,57,0
33305,note_on,0,0,4,,,,,,,,,0,,,63,60
33305,note_on,10,0,4,,,,,,,,,0,,,58,0
33315,note_on,10,0,4,,,,,,,,,0,,,63,0
33315,note_on,0,0,4,,,,,,,,,0,,,62,60
33325,note_on,10,0,4,,,,,,,,,0,,,62,0
33325,note_on,0,0,4,,,,,,,,,0,,,60,60
33335,note_on,10,0,4,,,,,,,,,0,,,60,0
33335,note_on,0,0,4,,,,,,,,,0,,,58,60
33345,note_on,10,0,4,,,,,,,,,0,,,58,0
33345,note_on,0,0,4,,,,,,,,,0,,,56,60
33355,note_on,0,0,4,,,,,,,,,0,,,55,60
33355,note_on,10,0,4,,,,,,,,,0,,,56,0
33365,note_on,0,0,4,,,,,,,,,0,,,53,60
33365,note_on,10,0,4,,,,,,,,,0,,,55,0
33375,note_on,10,0,4,,,,,,,,,0,,,53,0
33375,note_on,0,0,4,,,,,,,,,0,,,51,60
33385,note_on,10,0,4,,,,,,,,,0,,,51,0
33385,note_on,0,0,4,,,,,,,,,0,,,50,60
33395,note_on,10,0,4,,,,,,,,,0,,,50,0
33395,note_on,0,0,4,,,,,,,,,0,,,48,60
33405,set_tempo,120,1,0,,,,,,652174,,,,,,,
33405,note_on,10,0,4,,,,,,,,,0,,,48,0
33405,note_on,0,0,4,,,,,,,,,0,,,47,90
33465,note_on,180,0,1,,,,,,,,,0,,,87,60
33465,note_on,60,0,4,,,,,,,,,0,,,54,60
33465,note_on,0,0,4,,,,,,,,,0,,,39,60
33465,note_on,0,0,1,,,,,,,,,0,,,75,60
33465,note_on,0,0,4,,,,,,,,,0,,,45,60
33465,note_on,0,0,1,,,,,,,,,0,,,83,60
33495,note_on,30,0,1,,,,,,,,,0,,,75,0
33495,note_on,0,0,1,,,,,,,,,0,,,87,0
33495,note_on,0,0,1,,,,,,,,,0,,,83,0
33495,note_on,0,0,4,,,,,,,,,0,,,45,0
33495,note_on,30,0,4,,,,,,,,,0,,,39,0
33495,note_on,0,0,4,,,,,,,,,0,,,54,0
33525,note_on,30,0,4,,,,,,,,,0,,,54,60
33525,note_on,30,0,1,,,,,,,,,0,,,89,60
33525,note_on,0,0,1,,,,,,,,,0,,,75,60
33525,note_on,0,0,4,,,,,,,,,0,,,45,60
33525,note_on,0,0,1,,,,,,,,,0,,,83,60
33525,note_on,0,0,4,,,,,,,,,0,,,39,60
33555,note_on,0,0,4,,,,,,,,,0,,,45,0
33555,note_on,0,0,4,,,,,,,,,0,,,54,0
33555,note_on,0,0,1,,,,,,,,,0,,,83,0
33555,note_on,0,0,1,,,,,,,,,0,,,89,0
33555,note_on,30,0,4,,,,,,,,,0,,,39,0
33555,note_on,30,0,1,,,,,,,,,0,,,75,0
33585,note_on,30,0,4,,,,,,,,,0,,,54,60
33585,note_on,0,0,4,,,,,,,,,0,,,39,60
33585,note_on,0,0,1,,,,,,,,,0,,,75,60
33585,note_on,30,0,1,,,,,,,,,0,,,90,60
33585,note_on,0,0,1,,,,,,,,,0,,,83,60
33585,note_on,0,0,4,,,,,,,,,0,,,45,60
33615,note_on,30,0,4,,,,,,,,,0,,,39,0
33615,note_on,0,0,4,,,,,,,,,0,,,54,0
33615,note_on,30,0,1,,,,,,,,,0,,,75,0
33615,note_on,0,0,4,,,,,,,,,0,,,45,0
33615,note_on,0,0,1,,,,,,,,,0,,,83,0
33615,note_on,0,0,1,,,,,,,,,0,,,90,0
33645,note_on,30,0,1,,,,,,,,,0,,,75,60
33645,note_on,0,0,4,,,,,,,,,0,,,39,60
33645,time_signature,240,1,0,4,4,24,8,,,,,,,,,
33645,note_on,30,0,4,,,,,,,,,0,,,47,0
33655,note_on,10,0,4,,,,,,,,,0,,,46,60
33655,note_on,10,0,1,,,,,,,,,0,,,82,60
33665,note_on,10,0,4,,,,,,,,,0,,,55,60
33665,note_on,10,0,1,,,,,,,,,0,,,91,60
33705,note_on,40,0,4,,,,,,,,,0,,,55,0
33705,note_on,40,0,1,,,,,,,,,0,,,91,0
33705,note_on,0,0,1,,,,,,,,,0,,,87,60
33705,note_on,0,0,4,,,,,,,,,0,,,46,0
33705,note_on,0,0,4,,,,,,,,,0,,,39,0
33735,note_on,30,0,1,,,,,,,,,0,,,87,0
33765,note_on,0,0,1,,,,,,,,,0,,,75,0
33765,set_tempo,120,1,0,,,,,,1071429,,,,,,,
33765,note_on,60,0,4,,,,,,,,,0,,,57,60
33765,note_on,30,0,1,,,,,,,,,0,,,82,0
33773,note_on,8,0,4,,,,,,,,,0,,,58,60
33774,note_on,1,0,4,,,,,,,,,0,,,57,0
33782,note_on,0,0,4,,,,,,,,,0,,,67,60
33782,note_on,8,0,4,,,,,,,,,0,,,58,0
33790,note_on,8,0,4,,,,,,,,,0,,,65,60
33791,note_on,1,0,4,,,,,,,,,0,,,67,0
33799,note_on,8,0,4,,,,,,,,,0,,,65,0
33799,note_on,0,0,4,,,,,,,,,0,,,63,60
33807,note_on,8,0,4,,,,,,,,,0,,,62,60
33808,note_on,1,0,4,,,,,,,,,0,,,63,0
33816,note_on,8,0,4,,,,,,,,,0,,,62,0
33816,note_on,0,0,4,,,,,,,,,0,,,60,60
33824,note_on,8,0,4,,,,,,,,,0,,,58,60
33825,note_on,1,0,4,,,,,,,,,0,,,60,0
33833,note_on,8,0,4,,,,,,,,,0,,,58,0
33833,note_on,0,0,4,,,,,,,,,0,,,56,60
33841,note_on,8,0,4,,,,,,,,,0,,,55,60
33842,note_on,1,0,4,,,,,,,,,0,,,56,0
33850,note_on,8,0,4,,,,,,,,,0,,,55,0
33850,note_on,0,0,4,,,,,,,,,0,,,53,60
33859,note_on,0,0,4,,,,,,,,,0,,,51,60
33859,note_on,9,0,4,,,,,,,,,0,,,53,0
33867,note_on,8,0,4,,,,,,,,,0,,,50,60
33868,note_on,1,0,4,,,,,,,,,0,,,51,0
33876,note_on,8,0,4,,,,,,,,,0,,,50,0
33876,note_on,0,0,4,,,,,,,,,0,,,48,60
33885,note_on,0,0,4,,,,,,,,,0,,,46,80
33885,note_on,9,0,4,,,,,,,,,0,,,48,0
33885,set_tempo,120,1,0,,,,,,652174,,,,,,,
33945,note_on,180,0,1,,,,,,,,,0,,,58,60
33945,note_on,0,0,1,,,,,,,,,0,,,67,60
33945,note_on,0,0,1,,,,,,,,,0,,,61,60
33945,note_on,60,0,4,,,,,,,,,0,,,40,60
34005,note_on,60,0,4,,,,,,,,,0,,,40,0
34005,note_on,0,0,1,,,,,,,,,0,,,58,0
34005,note_on,60,0,1,,,,,,,,,0,,,67,0
34005,note_on,0,0,1,,,,,,,,,0,,,60,60
34005,note_on,0,0,1,,,,,,,,,0,,,58,60
34005,note_on,0,0,1,,,,,,,,,0,,,68,60
34005,note_on,0,0,1,,,,,,,,,0,,,61,0
34005,note_on,0,0,4,,,,,,,,,0,,,41,60
34065,note_on,0,0,4,,,,,,,,,0,,,34,60
34065,note_on,60,0,4,,,,,,,,,0,,,41,0
34065,note_on,60,0,1,,,,,,,,,0,,,68,0
34065,note_on,0,0,1,,,,,,,,,0,,,58,60
34065,note_on,0,0,1,,,,,,,,,0,,,60,0
34065,note_on,0,0,1,,,,,,,,,0,,,62,60
34065,note_on,0,0,1,,,,,,,,,0,,,58,0
34065,note_on,0,0,1,,,,,,,,,0,,,68,60
34065,note_on,0,0,1,,,,,,,,,0,,,72,60
34110,note_on,45,0,1,,,,,,,,,0,,,68,0
34110,note_on,0,0,1,,,,,,,,,0,,,72,0
34110,note_on,0,0,1,,,,,,,,,0,,,67,60
34110,note_on,0,0,1,,,,,,,,,0,,,70,60
34125,note_on,0,0,1,,,,,,,,,0,,,67,60
34125,note_on,60,0,4,,,,,,,,,0,,,34,0
34125,note_on,15,0,1,,,,,,,,,0,,,70,0
34125,note_on,0,0,4,,,,,,,,,0,,,39,60
34125,note_on,0,0,1,,,,,,,,,0,,,62,0
34125,note_on,0,0,1,,,,,,,,,0,,,63,60
34125,note_on,0,0,1,,,,,,,,,0,,,67,0
34125,note_on,0,0,1,,,,,,,,,0,,,58,0
34245,set_tempo,360,1,0,,,,,,1071429,,,,,,,
34245,note_on,120,0,4,,,,,,,,,0,,,39,0
34245,note_on,0,0,4,,,,,,,,,0,,,46,0
34245,note_on,120,0,1,,,,,,,,,0,,,63,0
34245,note_on,0,0,1,,,,,,,,,0,,,93,60
34245,note_on,0,0,1,,,,,,,,,0,,,67,0
34251,note_on,6,0,1,,,,,,,,,0,,,94,60
34252,note_on,1,0,1,,,,,,,,,0,,,93,0
34258,note_on,0,0,1,,,,,,,,,0,,,99,60
34258,note_on,6,0,1,,,,,,,,,0,,,94,0
34264,note_on,6,0,1,,,,,,,,,0,,,96,60
34265,note_on,1,0,1,,,,,,,,,0,,,99,0
34271,note_on,6,0,1,,,,,,,,,0,,,96,0
34271,note_on,0,0,1,,,,,,,,,0,,,94,60
34278,note_on,7,0,1,,,,,,,,,0,,,94,0
34278,note_on,0,0,1,,,,,,,,,0,,,92,60
34284,note_on,6,0,1,,,,,,,,,0,,,91,60
34285,note_on,1,0,1,,,,,,,,,0,,,92,0
34291,note_on,6,0,1,,,,,,,,,0,,,91,0
34291,note_on,1336,0,3,,,,,,,,,0,,,89,60
34297,note_on,6,0,3,,,,,,,,,0,,,87,60
34298,note_on,1,0,3,,,,,,,,,0,,,89,0
34304,note_on,6,0,3,,,,,,,,,0,,,87,0
34304,note_on,0,0,3,,,,,,,,,0,,,86,60
34311,note_on,0,0,3,,,,,,,,,0,,,84,60
34311,note_on,7,0,3,,,,,,,,,0,,,86,0
34317,note_on,6,0,3,,,,,,,,,0,,,82,60
34318,note_on,1,0,3,,,,,,,,,0,,,84,0
34324,note_on,33,0,1,,,,,,,,,0,,,80,60
34324,note_on,6,0,3,,,,,,,,,0,,,82,0
34330,note_on,6,0,1,,,,,,,,,0,,,79,60
34331,note_on,1,0,1,,,,,,,,,0,,,80,0
34337,note_on,0,0,1,,,,,,,,,0,,,77,60
34337,note_on,6,0,1,,,,,,,,,0,,,79,0
34344,note_on,0,0,1,,,,,,,,,0,,,75,60
34344,note_on,7,0,1,,,,,,,,,0,,,77,0
34351,note_on,7,0,1,,,,,,,,,0,,,75,0
34351,note_on,0,0,1,,,,,,,,,0,,,74,60
34358,note_on,7,0,1,,,,,,,,,0,,,74,0
34358,note_on,0,0,1,,,,,,,,,0,,,72,60
34365,set_tempo,120,1,0,,,,,,652174,,,,,,,
34365,note_on,41,0,3,,,,,,,,,0,,,71,90
34365,note_on,7,0,1,,,,,,,,,0,,,72,0
34425,note_on,60,0,1,,,,,,,,,0,,,83,60
34425,note_on,0,0,1,,,,,,,,,0,,,69,60
34425,note_on,60,0,3,,,,,,,,,0,,,66,60
34425,note_on,0,0,3,,,,,,,,,0,,,59,60
34425,note_on,0,0,1,,,,,,,,,0,,,75,60
34455,note_on,0,0,1,,,,,,,,,0,,,75,0
34455,note_on,0,0,3,,,,,,,,,0,,,66,0
34455,note_on,30,0,1,,,,,,,,,0,,,69,0
34455,note_on,30,0,3,,,,,,,,,0,,,59,0
34455,note_on,0,0,1,,,,,,,,,0,,,83,0
34485,note_on,30,0,1,,,,,,,,,0,,,69,60
34485,note_on,30,0,3,,,,,,,,,0,,,64,60
34485,note_on,0,0,1,,,,,,,,,0,,,76,60
34485,note_on,0,0,3,,,,,,,,,0,,,59,60
34485,note_on,0,0,1,,,,,,,,,0,,,83,60
34515,note_on,30,0,1,,,,,,,,,0,,,83,0
34515,note_on,0,0,3,,,,,,,,,0,,,64,0
34515,note_on,0,0,1,,,,,,,,,0,,,69,0
34515,note_on,0,0,1,,,,,,,,,0,,,76,0
34515,note_on,30,0,3,,,,,,,,,0,,,59,0
34545,note_on,0,0,1,,,,,,,,,0,,,83,60
34545,note_on,30,0,1,,,,,,,,,0,,,78,60
34545,note_on,0,0,1,,,,,,,,,0,,,69,60
34545,note_on,0,0,3,,,,,,,,,0,,,59,60
34545,note_on,30,0,3,,,,,,,,,0,,,63,60
34575,note_on,30,0,3,,,,,,,,,0,,,59,0
34575,note_on,30,0,1,,,,,,,,,0,,,83,0
34575,note_on,0,0,1,,,,,,,,,0,,,69,0
34575,note_on,0,0,1,,,,,,,,,0,,,78,0
34575,note_on,0,0,3,,,,,,,,,0,,,63,0
34605,note_on,0,0,3,,,,,,,,,0,,,64,60
34605,note_on,0,0,3,,,,,,,,,0,,,68,60
34605,note_on,0,0,1,,,,,,,,,0,,,80,60
34605,note_on,30,0,3,,,,,,,,,0,,,71,0
34605,note_on,30,0,1,,,,,,,,,0,,,83,60
34665,note_on,0,0,1,,,,,,,,,0,,,83,0
34665,note_on,0,0,3,,,,,,,,,0,,,68,0
34665,note_on,0,0,3,,,,,,,,,0,,,71,60
34665,note_on,0,0,1,,,,,,,,,0,,,92,60
34665,note_on,0,0,1,,,,,,,,,0,,,88,60
34665,note_on,60,0,3,,,,,,,,,0,,,64,0
34665,note_on,0,0,3,,,,,,,,,0,,,76,60
34665,note_on,60,0,1,,,,,,,,,0,,,80,0
34695,note_on,30,0,1,,,,,,,,,0,,,88,0
34695,note_on,30,0,3,,,,,,,,,0,,,71,0
34695,note_on,0,0,1,,,,,,,,,0,,,92,0
34695,note_on,0,0,3,,,,,,,,,0,,,76,0
34725,set_tempo,360,1,0,,,,,,1071429,,,,,,,
34725,note_on,30,0,1,,,,,,,,,0,,,70,60
34732,note_on,7,0,1,,,,,,,,,0,,,71,60
34733,note_on,1,0,1,,,,,,,,,0,,,70,0
34740,note_on,0,0,1,,,,,,,,,0,,,80,60
34740,note_on,7,0,1,,,,,,,,,0,,,71,0
34748,note_on,8,0,1,,,,,,,,,0,,,80,0
34748,note_on,0,0,1,,,,,,,,,0,,,78,60
34756,note_on,8,0,1,,,,,,,,,0,,,78,0
34756,note_on,0,0,1,,,,,,,,,0,,,76,60
34764,note_on,8,0,1,,,,,,,,,0,,,76,0
34764,note_on,0,0,1,,,,,,,,,0,,,75,60
34772,note_on,8,0,1,,,,,,,,,0,,,75,0
34772,note_on,0,0,1,,,,,,,,,0,,,73,60
34780,note_on,0,0,1,,,,,,,,,0,,,71,60
34780,note_on,8,0,1,,,,,,,,,0,,,73,0
34788,note_on,8,0,1,,,,,,,,,0,,,71,0
34788,note_on,93,0,3,,,,,,,,,0,,,69,60
34796,note_on,0,0,3,,,,,,,,,0,,,68,60
34796,note_on,8,0,3,,,,,,,,,0,,,69,0
34804,note_on,8,0,3,,,,,,,,,0,,,68,0
34804,note_on,0,0,3,,,,,,,,,0,,,66,60
34812,note_on,8,0,3,,,,,,,,,0,,,66,0
34812,note_on,0,0,3,,,,,,,,,0,,,64,60
34820,note_on,32,0,1,,,,,,,,,0,,,63,60
34820,note_on,8,0,3,,,,,,,,,0,,,64,0
34828,note_on,8,0,1,,,,,,,,,0,,,63,0
34829,note_on,1,0,1,,,,,,,,,0,,,61,60
34837,note_on,0,0,1,,,,,,,,,0,,,59,60
34837,note_on,8,0,1,,,,,,,,,0,,,61,0
34845,note_on,8,0,1,,,,,,,,,0,,,59,0
34845,set_tempo,120,1,0,,,,,,652174,,,,,,,
34845,note_on,600,0,4,,,,,,,,,0,,,58,60
34905,note_on,0,0,1,,,,,,,,,0,,,61,60
34905,note_on,60,0,1,,,,,,,,,0,,,70,60
34905,note_on,60,0,4,,,,,,,,,0,,,52,60
34905,note_on,0,0,1,,,,,,,,,0,,,67,60
34965,note_on,0,0,1,,,,,,,,,0,,,62,60
34965,note_on,0,0,4,,,,,,,,,0,,,53,60
34965,note_on,0,0,1,,,,,,,,,0,,,67,0
34965,note_on,0,0,1,,,,,,,,,0,,,70,60
34965,note_on,0,0,1,,,,,,,,,0,,,70,0
34965,note_on,0,0,1,,,,,,,,,0,,,68,60
34965,note_on,60,0,1,,,,,,,,,0,,,61,0
34965,note_on,60,0,4,,,,,,,,,0,,,52,0
34995,note_on,30,0,1,,,,,,,,,0,,,62,60
35005,note_on,10,0,1,,,,,,,,,0,,,68,60
35015,note_on,10,0,1,,,,,,,,,0,,,73,60
35025,note_on,10,0,1,,,,,,,,,0,,,73,0
35025,note_on,60,0,4,,,,,,,,,0,,,53,0
35025,note_on,0,0,4,,,,,,,,,0,,,46,60
35025,note_on,0,0,1,,,,,,,,,0,,,72,60
35025,note_on,0,0,1,,,,,,,,,0,,,70,0
35025,note_on,0,0,1,,,,,,,,,0,,,68,0
35025,note_on,0,0,1,,,,,,,,,0,,,62,0
35070,note_on,45,0,1,,,,,,,,,0,,,72,0
35070,note_on,0,0,1,,,,,,,,,0,,,70,60
35075,note_on,0,0,1,,,,,,,,,0,,,68,0
35075,note_on,5,0,1,,,,,,,,,0,,,62,0
35085,note_on,0,0,1,,,,,,,,,0,,,70,60
35085,note_on,60,0,4,,,,,,,,,0,,,46,0
35085,note_on,0,0,1,,,,,,,,,0,,,67,60
35085,note_on,0,0,1,,,,,,,,,0,,,63,60
35085,note_on,0,0,4,,,,,,,,,0,,,58,0
35085,note_on,0,0,4,,,,,,,,,0,,,51,60
35085,note_on,10,0,1,,,,,,,,,0,,,70,0
35205,set_tempo,360,1,0,,,,,,1071429,,,,,,,
35205,note_on,0,0,1,,,,,,,,,0,,,67,0
35205,note_on,120,0,1,,,,,,,,,0,,,63,0
35205,note_on,0,0,4,,,,,,,,,0,,,57,60
35205,note_on,120,0,4,,,,,,,,,0,,,51,0
35205,note_on,0,0,1,,,,,,,,,0,,,70,0
35213,note_on,8,0,4,,,,,,,,,0,,,58,60
35214,note_on,1,0,4,,,,,,,,,0,,,57,0
35222,note_on,0,0,4,,,,,,,,,0,,,67,60
35222,note_on,8,0,4,,,,,,,,,0,,,58,0
35230,note_on,8,0,4,,,,,,,,,0,,,65,60
35231,note_on,1,0,4,,,,,,,,,0,,,67,0
35239,note_on,0,0,4,,,,,,,,,0,,,63,60
35239,note_on,8,0,4,,,,,,,,,0,,,65,0
35247,note_on,8,0,4,,,,,,,,,0,,,62,60
35248,note_on,1,0,4,,,,,,,,,0,,,63,0
35256,note_on,0,0,4,,,,,,,,,0,,,60,60
35256,note_on,8,0,4,,,,,,,,,0,,,62,0
35264,note_on,8,0,4,,,,,,,,,0,,,58,60
35265,note_on,1,0,4,,,,,,,,,0,,,60,0
35273,note_on,0,0,4,,,,,,,,,0,,,56,60
35273,note_on,8,0,4,,,,,,,,,0,,,58,0
35281,note_on,8,0,4,,,,,,,,,0,,,55,60
35282,note_on,1,0,4,,,,,,,,,0,,,56,0
35290,note_on,0,0,4,,,,,,,,,0,,,53,60
35290,note_on,8,0,4,,,,,,,,,0,,,55,0
35299,note_on,9,0,4,,,,,,,,,0,,,53,0
35299,note_on,0,0,4,,,,,,,,,0,,,51,60
35307,note_on,8,0,4,,,,,,,,,0,,,50,60
35308,note_on,1,0,4,,,,,,,,,0,,,51,0
35316,note_on,8,0,4,,,,,,,,,0,,,50,0
35316,note_on,0,0,4,,,,,,,,,0,,,48,60
35325,note_on,0,0,4,,,,,,,,,0,,,46,90
35325,set_tempo,120,1,0,,,,,,652174,,,,,,,
35325,note_on,9,0,4,,,,,,,,,0,,,48,0
35385,note_on,0,0,2,,,,,,,,,0,,,58,60
35385,note_on,60,0,4,,,,,,,,,0,,,40,60
35385,note_on,3420,0,2,,,,,,,,,0,,,61,60
35385,note_on,0,0,2,,,,,,,,,0,,,55,60
35445,note_on,60,0,4,,,,,,,,,0,,,40,0
35445,note_on,0,0,2,,,,,,,,,0,,,61,0
35445,note_on,0,0,2,,,,,,,,,0,,,56,60
35445,note_on,60,0,2,,,,,,,,,0,,,55,0
35445,note_on,0,0,2,,,,,,,,,0,,,62,60
35445,note_on,0,0,2,,,,,,,,,0,,,58,0
35445,note_on,0,0,4,,,,,,,,,0,,,41,60
35445,note_on,0,0,2,,,,,,,,,0,,,58,60
35505,note_on,0,0,4,,,,,,,,,0,,,34,60
35505,note_on,60,0,2,,,,,,,,,0,,,56,0
35505,note_on,0,0,2,,,,,,,,,0,,,58,0
35505,note_on,0,0,2,,,,,,,,,0,,,56,60
35505,note_on,0,0,2,,,,,,,,,0,,,62,0
35505,note_on,60,0,4,,,,,,,,,0,,,41,0
35505,note_on,0,0,2,,,,,,,,,0,,,60,60
35505,note_on,0,0,2,,,,,,,,,0,,,62,60
35550,note_on,0,0,2,,,,,,,,,0,,,56,0
35550,note_on,45,0,2,,,,,,,,,0,,,60,0
35550,note_on,0,0,2,,,,,,,,,0,,,58,60
35550,note_on,0,0,2,,,,,,,,,0,,,55,60
35565,note_on,15,0,2,,,,,,,,,0,,,58,0
35565,note_on,60,0,4,,,,,,,,,0,,,34,0
35565,note_on,0,0,2,,,,,,,,,0,,,55,0
35565,note_on,0,0,4,,,,,,,,,0,,,39,60
35565,note_on,0,0,2,,,,,,,,,0,,,55,60
35565,note_on,0,0,2,,,,,,,,,0,,,62,0
35565,note_on,0,0,2,,,,,,,,,0,,,63,60
35565,note_on,0,0,2,,,,,,,,,0,,,51,60
35685,note_on,0,0,2,,,,,,,,,0,,,55,0
35685,note_on,480,0,1,,,,,,,,,0,,,93,60
35685,note_on,0,0,4,,,,,,,,,0,,,46,0
35685,note_on,120,0,2,,,,,,,,,0,,,51,0
35685,set_tempo,360,1,0,,,,,,1071429,,,,,,,
35685,note_on,0,0,2,,,,,,,,,0,,,63,0
35685,note_on,120,0,4,,,,,,,,,0,,,39,0
35695,note_on,10,0,1,,,,,,,,,0,,,94,60
35696,note_on,1,0,1,,,,,,,,,0,,,93,0
35706,note_on,0,0,1,,,,,,,,,0,,,99,60
35706,note_on,10,0,1,,,,,,,,,0,,,94,0
35717,note_on,0,0,1,,,,,,,,,0,,,96,60
35717,note_on,11,0,1,,,,,,,,,0,,,99,0
35728,note_on,11,0,1,,,,,,,,,0,,,96,0
35728,note_on,0,0,1,,,,,,,,,0,,,94,60
35739,note_on,0,0,1,,,,,,,,,0,,,92,60
35739,note_on,11,0,1,,,,,,,,,0,,,94,0
35750,note_on,11,0,1,,,,,,,,,0,,,92,0
35750,note_on,0,0,1,,,,,,,,,0,,,91,60
35761,note_on,941,0,3,,,,,,,,,0,,,89,60
35761,note_on,11,0,1,,,,,,,,,0,,,91,0
35772,note_on,0,0,3,,,,,,,,,0,,,87,60
35772,note_on,11,0,3,,,,,,,,,0,,,89,0
35783,note_on,0,0,3,,,,,,,,,0,,,86,60
35783,note_on,11,0,3,,,,,,,,,0,,,87,0
35794,note_on,11,0,3,,,,,,,,,0,,,86,0
35794,note_on,0,0,3,,,,,,,,,0,,,84,60
35805,note_on,11,0,3,,,,,,,,,0,,,84,0
35805,note_on,44,0,1,,,,,,,,,0,,,81,60
35814,note_on,0,0,1,,,,,,,,,0,,,82,60
35814,note_on,9,0,1,,,,,,,,,0,,,81,0
35823,note_on,9,0,1,,,,,,,,,0,,,82,0
35823,note_on,0,0,1,,,,,,,,,0,,,91,60
35832,note_on,0,0,1,,,,,,,,,0,,,87,60
35832,note_on,9,0,1,,,,,,,,,0,,,91,0
35841,note_on,9,0,1,,,,,,,,,0,,,87,0
35842,note_on,1,0,1,,,,,,,,,0,,,86,60
35851,note_on,9,0,1,,,,,,,,,0,,,86,0
35851,note_on,0,0,1,,,,,,,,,0,,,84,60
35860,note_on,9,0,1,,,,,,,,,0,,,84,0
35860,note_on,0,0,1,,,,,,,,,0,,,82,60
35869,note_on,9,0,1,,,,,,,,,0,,,82,0
35870,note_on,65,0,3,,,,,,,,,0,,,80,60
35879,note_on,0,0,3,,,,,,,,,0,,,79,60
35879,note_on,9,0,3,,,,,,,,,0,,,80,0
35888,note_on,0,0,3,,,,,,,,,0,,,77,60
35888,note_on,9,0,3,,,,,,,,,0,,,79,0
35897,note_on,9,0,3,,,,,,,,,0,,,77,0
35898,note_on,1,0,3,,,,,,,,,0,,,75,60
35907,note_on,38,0,1,,,,,,,,,0,,,74,60
35907,note_on,9,0,3,,,,,,,,,0,,,75,0
35907,end_of_track,0,1,3,,,,,,,,,,,,,
35916,note_on,9,0,1,,,,,,,,,0,,,74,0
35916,note_on,0,0,1,,,,,,,,,0,,,72,60
35925,note_on,9,0,1,,,,,,,,,0,,,72,0
35925,note_on,0,0,1,,,,,,,,,0,,,69,60
35935,note_on,10,0,1,,,,,,,,,0,,,70,60
35936,note_on,1,0,1,,,,,,,,,0,,,69,0
35946,note_on,10,0,1,,,,,,,,,0,,,70,0
35946,note_on,0,0,1,,,,,,,,,0,,,75,60
35957,note_on,11,0,1,,,,,,,,,0,,,75,0
35957,note_on,0,0,1,,,,,,,,,0,,,72,60
35968,note_on,11,0,1,,,,,,,,,0,,,72,0
35968,note_on,0,0,1,,,,,,,,,0,,,70,60
35979,note_on,0,0,1,,,,,,,,,0,,,68,60
35979,note_on,11,0,1,,,,,,,,,0,,,70,0
35990,note_on,0,0,1,,,,,,,,,0,,,67,60
35990,note_on,11,0,1,,,,,,,,,0,,,68,0
36001,note_on,11,0,1,,,,,,,,,0,,,67,0
36001,note_on,316,0,4,,,,,,,,,0,,,65,60
36012,note_on,0,0,4,,,,,,,,,0,,,63,60
36012,note_on,11,0,4,,,,,,,,,0,,,65,0
36023,note_on,0,0,4,,,,,,,,,0,,,62,60
36023,note_on,11,0,4,,,,,,,,,0,,,63,0
36034,note_on,11,0,4,,,,,,,,,0,,,62,0
36034,note_on,0,0,4,,,,,,,,,0,,,60,60
36045,note_on,44,0,1,,,,,,,,,0,,,57,60
36045,note_on,11,0,4,,,,,,,,,0,,,60,0
36054,note_on,9,0,1,,,,,,,,,0,,,57,0
36054,note_on,0,0,1,,,,,,,,,0,,,58,60
36063,note_on,9,0,1,,,,,,,,,0,,,58,0
36063,note_on,0,0,1,,,,,,,,,0,,,67,61
36072,note_on,9,0,1,,,,,,,,,0,,,67,0
36072,note_on,0,0,1,,,,,,,,,0,,,63,62
36081,note_on,9,0,1,,,,,,,,,0,,,63,0
36082,note_on,1,0,1,,,,,,,,,0,,,62,63
36091,note_on,9,0,1,,,,,,,,,0,,,62,0
36091,note_on,0,0,1,,,,,,,,,0,,,60,64
36100,note_on,9,0,1,,,,,,,,,0,,,60,0
36100,note_on,0,0,1,,,,,,,,,0,,,58,64
36109,note_on,9,0,1,,,,,,,,,0,,,58,0
36110,note_on,65,0,4,,,,,,,,,0,,,56,65
36119,note_on,9,0,4,,,,,,,,,0,,,56,0
36119,note_on,0,0,4,,,,,,,,,0,,,55,66
36128,note_on,0,0,4,,,,,,,,,0,,,53,67
36128,note_on,9,0,4,,,,,,,,,0,,,55,0
36137,note_on,9,0,4,,,,,,,,,0,,,53,0
36138,note_on,1,0,4,,,,,,,,,0,,,51,68
36147,note_on,9,0,4,,,,,,,,,0,,,51,0
36147,note_on,0,0,4,,,,,,,,,0,,,50,69
36156,note_on,0,0,4,,,,,,,,,0,,,48,70
36156,note_on,9,0,4,,,,,,,,,0,,,50,0
36165,note_on,0,0,4,,,,,,,,,0,,,46,100
36165,note_on,9,0,4,,,,,,,,,0,,,48,0
36165,set_tempo,480,1,0,,,,,,652174,,,,,,,
36225,note_on,0,0,2,,,,,,,,,0,,,55,76
36225,note_on,0,0,2,,,,,,,,,0,,,51,76
36225,note_on,540,0,2,,,,,,,,,0,,,63,76
36225,note_on,0,0,4,,,,,,,,,0,,,39,76
36225,note_on,0,0,2,,,,,,,,,0,,,58,76
36225,note_on,60,0,4,,,,,,,,,0,,,37,76
36285,note_on,0,0,4,,,,,,,,,0,,,47,111
36285,note_on,60,0,4,,,,,,,,,0,,,39,0
36285,note_on,60,0,2,,,,,,,,,0,,,51,0
36285,note_on,0,0,4,,,,,,,,,0,,,37,0
36285,note_on,0,0,2,,,,,,,,,0,,,55,0
36285,note_on,0,0,4,,,,,,,,,0,,,46,0
36285,note_on,0,0,2,,,,,,,,,0,,,58,0
36285,note_on,0,0,2,,,,,,,,,0,,,63,0
36287,set_tempo,122,1,0,,,,,,653666,,,,,,,
36291,set_tempo,4,1,0,,,,,,655809,,,,,,,
36295,set_tempo,4,1,0,,,,,,660139,,,,,,,
36300,set_tempo,5,1,0,,,,,,664525,,,,,,,
36304,set_tempo,4,1,0,,,,,,668971,,,,,,,
36308,set_tempo,4,1,0,,,,,,673476,,,,,,,
36312,set_tempo,4,1,0,,,,,,678043,,,,,,,
36317,set_tempo,5,1,0,,,,,,680349,,,,,,,
36321,set_tempo,4,1,0,,,,,,685010,,,,,,,
36325,set_tempo,4,1,0,,,,,,689734,,,,,,,
36330,set_tempo,5,1,0,,,,,,694525,,,,,,,
36334,set_tempo,4,1,0,,,,,,699382,,,,,,,
36338,set_tempo,4,1,0,,,,,,704308,,,,,,,
36342,set_tempo,4,1,0,,,,,,709304,,,,,,,
36345,note_on,0,0,2,,,,,,,,,0,,,54,87
36345,note_on,60,0,2,,,,,,,,,0,,,63,87
36345,note_on,0,0,2,,,,,,,,,0,,,51,87
36345,note_on,0,0,2,,,,,,,,,0,,,59,87
36345,note_on,0,0,4,,,,,,,,,0,,,39,87
36345,note_on,60,0,4,,,,,,,,,0,,,35,87
36347,set_tempo,5,1,0,,,,,,711828,,,,,,,
36351,set_tempo,4,1,0,,,,,,716932,,,,,,,
36355,set_tempo,4,1,0,,,,,,722109,,,,,,,
36360,set_tempo,5,1,0,,,,,,727361,,,,,,,
36364,set_tempo,4,1,0,,,,,,732690,,,,,,,
36368,set_tempo,4,1,0,,,,,,738098,,,,,,,
36372,set_tempo,4,1,0,,,,,,743587,,,,,,,
36377,set_tempo,5,1,0,,,,,,746361,,,,,,,
36381,set_tempo,4,1,0,,,,,,751974,,,,,,,
36385,set_tempo,4,1,0,,,,,,757671,,,,,,,
36390,set_tempo,5,1,0,,,,,,763456,,,,,,,
36394,set_tempo,4,1,0,,,,,,769329,,,,,,,
36398,set_tempo,4,1,0,,,,,,775294,,,,,,,
36402,set_tempo,4,1,0,,,,,,781352,,,,,,,
36405,note_on,0,0,4,,,,,,,,,0,,,47,0
36405,note_on,0,0,4,,,,,,,,,0,,,47,112
36405,note_on,0,0,2,,,,,,,,,0,,,51,92
36405,note_on,0,0,2,,,,,,,,,0,,,56,92
36405,note_on,0,0,2,,,,,,,,,0,,,59,0
36405,note_on,0,0,2,,,,,,,,,0,,,54,0
36405,note_on,0,0,2,,,,,,,,,0,,,63,0
36405,note_on,0,0,2,,,,,,,,,0,,,63,92
36405,note_on,60,0,4,,,,,,,,,0,,,39,0
36405,note_on,60,0,2,,,,,,,,,0,,,51,0
36405,note_on,0,0,4,,,,,,,,,0,,,39,92
36405,note_on,0,0,4,,,,,,,,,0,,,35,0
36405,note_on,0,0,4,,,,,,,,,0,,,32,92
36405,note_on,0,0,2,,,,,,,,,0,,,59,92
36407,set_tempo,5,1,0,,,,,,784416,,,,,,,
36411,set_tempo,4,1,0,,,,,,790618,,,,,,,
36415,set_tempo,4,1,0,,,,,,796919,,,,,,,
36420,set_tempo,5,1,0,,,,,,803320,,,,,,,
36424,set_tempo,4,1,0,,,,,,809826,,,,,,,
36428,set_tempo,4,1,0,,,,,,816438,,,,,,,
36432,set_tempo,4,1,0,,,,,,823158,,,,,,,
36437,set_tempo,5,1,0,,,,,,826560,,,,,,,
36441,set_tempo,4,1,0,,,,,,833449,,,,,,,
36445,set_tempo,4,1,0,,,,,,840454,,,,,,,
36450,set_tempo,5,1,0,,,,,,847577,,,,,,,
36454,set_tempo,4,1,0,,,,,,854823,,,,,,,
36458,set_tempo,4,1,0,,,,,,862193,,,,,,,
36462,set_tempo,4,1,0,,,,,,869691,,,,,,,
36465,note_on,0,0,4,,,,,,,,,0,,,47,0
36465,note_on,60,0,2,,,,,,,,,0,,,51,0
36465,note_on,0,0,4,,,,,,,,,0,,,39,98
36465,note_on,0,0,4,,,,,,,,,0,,,32,98
36465,note_on,0,0,4,,,,,,,,,0,,,32,0
36465,note_on,0,0,2,,,,,,,,,0,,,56,0
36465,note_on,0,0,2,,,,,,,,,0,,,56,98
36465,note_on,0,0,2,,,,,,,,,0,,,59,0
36465,note_on,0,0,2,,,,,,,,,0,,,59,98
36465,note_on,0,0,2,,,,,,,,,0,,,63,0
36465,note_on,0,0,2,,,,,,,,,0,,,53,98
36465,note_on,0,0,2,,,,,,,,,0,,,65,98
36465,note_on,60,0,4,,,,,,,,,0,,,39,0
36465,note_on,0,0,4,,,,,,,,,0,,,44,118
36467,set_tempo,5,1,0,,,,,,873490,,,,,,,
36471,set_tempo,4,1,0,,,,,,881187,,,,,,,
36475,set_tempo,4,1,0,,,,,,889021,,,,,,,
36480,set_tempo,5,1,0,,,,,,896995,,,,,,,
36484,set_tempo,4,1,0,,,,,,905114,,,,,,,
36488,set_tempo,4,1,0,,,,,,913381,,,,,,,
36492,set_tempo,4,1,0,,,,,,921801,,,,,,,
36497,set_tempo,5,1,0,,,,,,926069,,,,,,,
36501,set_tempo,4,1,0,,,,,,934725,,,,,,,
36505,set_tempo,4,1,0,,,,,,943545,,,,,,,
36510,set_tempo,5,1,0,,,,,,952532,,,,,,,
36514,set_tempo,4,1,0,,,,,,961693,,,,,,,
36518,set_tempo,4,1,0,,,,,,971031,,,,,,,
36522,set_tempo,4,1,0,,,,,,980552,,,,,,,
36525,end_of_track,0,1,2,,,,,,,,,,,,,
36525,end_of_track,0,1,0,,,,,,,,,,,,,
36525,control_change,19065,0,5,,,,,,,,,0,64,127,,
36525,set_tempo,3,1,0,,,,,,1000000,,,,,,,
36525,note_on,60,0,4,,,,,,,,,0,,,39,0
36525,note_on,0,0,1,,,,,,,,,0,,,58,100
36525,note_on,0,0,1,,,,,,,,,0,,,63,100
36525,note_on,0,0,1,,,,,,,,,0,,,67,100
36525,note_on,0,0,4,,,,,,,,,0,,,44,0
36525,note_on,0,0,4,,,,,,,,,0,,,34,100
36525,note_on,0,0,4,,,,,,,,,0,,,39,100
36525,note_on,0,0,4,,,,,,,,,0,,,27,100
36525,note_on,416,0,1,,,,,,,,,0,,,55,100
36525,note_on,0,0,2,,,,,,,,,0,,,56,0
36525,note_on,0,0,2,,,,,,,,,0,,,59,0
36525,note_on,0,0,2,,,,,,,,,0,,,65,0
36525,note_on,0,0,4,,,,,,,,,0,,,32,0
36525,note_on,60,0,2,,,,,,,,,0,,,53,0
36765,note_on,0,0,4,,,,,,,,,0,,,39,100
36765,note_on,0,0,1,,,,,,,,,0,,,55,0
36765,note_on,0,0,4,,,,,,,,,0,,,34,0
36765,note_on,0,0,4,,,,,,,,,0,,,34,100
36765,note_on,240,0,4,,,,,,,,,0,,,39,0
36765,note_on,0,0,1,,,,,,,,,0,,,67,100
36765,note_on,0,0,1,,,,,,,,,0,,,63,0
36765,note_on,0,0,1,,,,,,,,,0,,,63,100
36765,note_on,0,0,1,,,,,,,,,0,,,55,100
36765,note_on,0,0,4,,,,,,,,,0,,,27,100
36765,note_on,0,0,4,,,,,,,,,0,,,27,0
36765,note_on,240,0,1,,,,,,,,,0,,,67,0
36765,note_on,0,0,1,,,,,,,,,0,,,58,100
36765,note_on,0,0,1,,,,,,,,,0,,,58,0
36885,note_on,0,0,1,,,,,,,,,0,,,63,0
36885,note_on,0,0,1,,,,,,,,,0,,,63,100
36885,note_on,0,0,1,,,,,,,,,0,,,67,100
36885,note_on,0,0,1,,,,,,,,,0,,,58,100
36885,note_on,0,0,1,,,,,,,,,0,,,55,100
36885,note_on,0,0,1,,,,,,,,,0,,,58,0
36885,note_on,0,0,4,,,,,,,,,0,,,27,0
36885,note_on,0,0,4,,,,,,,,,0,,,27,100
36885,note_on,0,0,4,,,,,,,,,0,,,34,0
36885,note_on,0,0,4,,,,,,,,,0,,,34,100
36885,note_on,0,0,4,,,,,,,,,0,,,39,100
36885,note_on,120,0,1,,,,,,,,,0,,,67,0
36885,note_on,120,0,4,,,,,,,,,0,,,39,0
36885,note_on,0,0,1,,,,,,,,,0,,,55,0
37005,note_on,120,0,1,,,,,,,,,0,,,67,0
37005,note_on,120,0,4,,,,,,,,,0,,,39,0
37005,note_on,0,0,4,,,,,,,,,0,,,39,100
37005,note_on,0,0,4,,,,,,,,,0,,,34,100
37005,note_on,0,0,4,,,,,,,,,0,,,27,100
37005,note_on,0,0,4,,,,,,,,,0,,,27,0
37005,note_on,0,0,4,,,,,,,,,0,,,34,0
37005,note_on,0,0,1,,,,,,,,,0,,,58,0
37005,note_on,0,0,1,,,,,,,,,0,,,67,100
37005,note_on,0,0,1,,,,,,,,,0,,,63,100
37005,note_on,0,0,1,,,,,,,,,0,,,63,0
37005,note_on,0,0,1,,,,,,,,,0,,,58,100
37005,note_on,0,0,1,,,,,,,,,0,,,55,0
37005,note_on,0,0,1,,,,,,,,,0,,,55,100
37485,end_of_track,0,1,4,,,,,,,,,,,,,
37485,note_on,480,0,4,,,,,,,,,0,,,39,0
37485,end_of_track,0,1,1,,,,,,,,,,,,,
37485,note_on,0,0,1,,,,,,,,,0,,,58,0
37485,note_on,0,0,1,,,,,,,,,0,,,63,0
37485,note_on,480,0,1,,,,,,,,,0,,,67,0
37485,note_on,0,0,4,,,,,,,,,0,,,34,0
37485,note_on,0,0,4,,,,,,,,,0,,,27,0
37485,note_on,0,0,1,,,,,,,,,0,,,55,0
37725,control_change,1200,0,5,,,,,,,,,0,64,0,,
37845,control_change,120,0,5,,,,,,,,,0,64,127,,
37965,control_change,120,0,5,,,,,,,,,0,64,0,,
37965,end_of_track,0,1,5,,,,,,,,,,,,,
