tick,type,time,meta,track,numerator,denominator,clocks_per_click,notated_32nd_notes_per_beat,key,tempo,port,program,channel,control,value,note,velocity
0,control_change,0,0,1,,,,,,,,,0,7,127,,
0,end_of_track,0,1,7,,,,,,,,,,,,,
0,key_signature,0,1,0,,,,,E,,,,,,,,
0,marker,0,1,0,,,,,,,,,,,,,
0,midi_port,0,1,1,,,,,,,0,,,,,,
0,midi_port,0,1,2,,,,,,,0,,,,,,
0,midi_port,0,1,3,,,,,,,0,,,,,,
0,midi_port,0,1,4,,,,,,,0,,,,,,
0,midi_port,0,1,5,,,,,,,0,,,,,,
0,midi_port,0,1,6,,,,,,,0,,,,,,
0,midi_port,0,1,7,,,,,,,0,,,,,,
0,note_on,0,0,1,,,,,,,,,0,,,80,60
0,note_on,0,0,1,,,,,,,,,0,,,83,60
0,track_name,0,1,6,,,,,,,,,,,,,
0,program_change,0,0,1,,,,,,,,0,0,,,,
0,program_change,0,0,2,,,,,,,,0,0,,,,
0,program_change,0,0,3,,,,,,,,0,0,,,,
0,program_change,0,0,4,,,,,,,,0,0,,,,
0,program_change,0,0,5,,,,,,,,0,0,,,,
0,set_tempo,0,1,0,,,,,,714286,,,,,,,
0,text,0,1,0,,,,,,,,,,,,,
0,time_signature,0,1,0,5,8,12,8,,,,,,,,,
0,track_name,0,1,0,,,,,,,,,,,,,
0,track_name,0,1,1,,,,,,,,,,,,,
0,track_name,0,1,2,,,,,,,,,,,,,
0,track_name,0,1,3,,,,,,,,,,,,,
0,track_name,0,1,4,,,,,,,,,,,,,
0,track_name,0,1,5,,,,,,,,,,,,,
0,end_of_track,0,1,6,,,,,,,,,,,,,
0,copyright,0,1,0,,,,,,,,,,,,,
0,track_name,0,1,7,,,,,,,,,,,,,
0,control_change,0,0,4,,,,,,,,,0,10,64,,
0,control_change,0,0,1,,,,,,,,,0,10,64,,
0,control_change,0,0,2,,,,,,,,,0,7,127,,
0,control_change,0,0,2,,,,,,,,,0,10,64,,
0,control_change,0,0,3,,,,,,,,,0,7,127,,
0,control_change,0,0,3,,,,,,,,,0,10,64,,
0,control_change,0,0,4,,,,,,,,,0,7,127,,
0,control_change,0,0,5,,,,,,,,,0,10,64,,
0,control_change,0,0,5,,,,,,,,,0,7,127,,
30,note_on,0,0,1,,,,,,,,,0,,,83,0
30,note_on,30,0,1,,,,,,,,,0,,,80,0
30,note_on,0,0,1,,,,,,,,,0,,,78,60
30,note_on,0,0,1,,,,,,,,,0,,,81,60
60,note_on,30,0,1,,,,,,,,,0,,,81,0
60,note_on,0,0,1,,,,,,,,,0,,,78,0
60,note_on,0,0,1,,,,,,,,,0,,,80,70
60,note_on,0,0,1,,,,,,,,,0,,,76,70
120,note_on,0,0,1,,,,,,,,,0,,,76,60
120,note_on,0,0,1,,,,,,,,,0,,,80,0
120,note_on,60,0,1,,,,,,,,,0,,,76,0
120,note_on,0,0,1,,,,,,,,,0,,,80,60
150,note_on,0,0,1,,,,,,,,,0,,,71,60
150,note_on,0,0,1,,,,,,,,,0,,,78,60
150,note_on,0,0,1,,,,,,,,,0,,,80,0
150,note_on,30,0,1,,,,,,,,,0,,,76,0
180,note_on,0,0,1,,,,,,,,,0,,,68,70
180,note_on,0,0,1,,,,,,,,,0,,,71,0
180,note_on,30,0,1,,,,,,,,,0,,,78,0
180,note_on,0,0,1,,,,,,,,,0,,,76,70
240,note_on,0,0,1,,,,,,,,,0,,,68,0
240,note_on,60,0,1,,,,,,,,,0,,,76,0
240,note_on,0,0,1,,,,,,,,,0,,,83,60
240,note_on,0,0,1,,,,,,,,,0,,,80,60
270,note_on,0,0,1,,,,,,,,,0,,,78,60
270,note_on,0,0,1,,,,,,,,,0,,,81,60
270,note_on,0,0,1,,,,,,,,,0,,,83,0
270,note_on,30,0,1,,,,,,,,,0,,,80,0
300,note_on,30,0,1,,,,,,,,,0,,,81,0
300,note_on,0,0,1,,,,,,,,,0,,,76,70
300,note_on,0,0,1,,,,,,,,,0,,,78,0
300,note_on,0,0,1,,,,,,,,,0,,,80,70
300,time_signature,300,1,0,2,4,24,8,,,,,,,,,
360,note_on,0,0,1,,,,,,,,,0,,,76,60
360,note_on,0,0,1,,,,,,,,,0,,,80,60
360,note_on,0,0,1,,,,,,,,,0,,,80,0
360,note_on,60,0,1,,,,,,,,,0,,,76,0
390,note_on,0,0,1,,,,,,,,,0,,,80,0
390,note_on,0,0,1,,,,,,,,,0,,,71,60
390,note_on,30,0,1,,,,,,,,,0,,,76,0
390,note_on,0,0,1,,,,,,,,,0,,,78,60
420,note_on,0,0,1,,,,,,,,,0,,,71,0
420,note_on,0,0,1,,,,,,,,,0,,,68,70
420,note_on,0,0,1,,,,,,,,,0,,,76,70
420,note_on,30,0,1,,,,,,,,,0,,,78,0
480,note_on,60,0,1,,,,,,,,,0,,,76,0
480,note_on,0,0,1,,,,,,,,,0,,,68,0
480,note_on,0,0,1,,,,,,,,,0,,,68,60
480,note_on,0,0,1,,,,,,,,,0,,,76,60
510,note_on,0,0,1,,,,,,,,,0,,,71,60
510,note_on,30,0,1,,,,,,,,,0,,,76,0
510,note_on,0,0,1,,,,,,,,,0,,,78,60
510,note_on,0,0,1,,,,,,,,,0,,,68,0
540,note_on,0,0,1,,,,,,,,,0,,,76,70
540,note_on,30,0,1,,,,,,,,,0,,,71,0
540,note_on,0,0,1,,,,,,,,,0,,,80,70
540,note_on,0,0,1,,,,,,,,,0,,,78,0
600,note_on,0,0,1,,,,,,,,,0,,,78,60
600,note_on,0,0,1,,,,,,,,,0,,,71,60
600,note_on,0,0,1,,,,,,,,,0,,,80,0
600,note_on,60,0,1,,,,,,,,,0,,,76,0
630,note_on,0,0,1,,,,,,,,,0,,,76,60
630,note_on,0,0,1,,,,,,,,,0,,,78,0
630,note_on,0,0,1,,,,,,,,,0,,,80,60
630,note_on,30,0,1,,,,,,,,,0,,,71,0
660,note_on,0,0,1,,,,,,,,,0,,,78,70
660,note_on,0,0,1,,,,,,,,,0,,,80,0
660,note_on,0,0,1,,,,,,,,,0,,,81,70
660,note_on,30,0,1,,,,,,,,,0,,,76,0
720,note_on,60,0,1,,,,,,,,,0,,,78,0
720,note_on,0,0,1,,,,,,,,,0,,,71,60
720,note_on,0,0,1,,,,,,,,,0,,,78,60
720,note_on,0,0,1,,,,,,,,,0,,,81,0
750,note_on,30,0,1,,,,,,,,,0,,,78,0
750,note_on,0,0,1,,,,,,,,,0,,,81,60
750,note_on,0,0,1,,,,,,,,,0,,,71,0
750,note_on,0,0,1,,,,,,,,,0,,,78,60
780,note_on,30,0,1,,,,,,,,,0,,,78,0
780,note_on,0,0,1,,,,,,,,,0,,,80,70
780,note_on,0,0,1,,,,,,,,,0,,,81,0
780,note_on,0,0,1,,,,,,,,,0,,,83,70
840,note_on,0,0,1,,,,,,,,,0,,,83,0
840,note_on,0,0,1,,,,,,,,,0,,,81,60
840,note_on,60,0,1,,,,,,,,,0,,,80,0
840,note_on,0,0,1,,,,,,,,,0,,,78,60
870,note_on,30,0,1,,,,,,,,,0,,,78,0
870,note_on,0,0,1,,,,,,,,,0,,,76,60
870,note_on,0,0,1,,,,,,,,,0,,,80,60
870,note_on,0,0,1,,,,,,,,,0,,,81,0
900,note_on,30,0,1,,,,,,,,,0,,,80,0
900,note_on,0,0,1,,,,,,,,,0,,,71,70
900,note_on,0,0,1,,,,,,,,,0,,,76,0
900,note_on,0,0,1,,,,,,,,,0,,,78,70
960,note_on,0,0,1,,,,,,,,,0,,,80,60
960,note_on,0,0,1,,,,,,,,,0,,,83,60
960,note_on,0,0,1,,,,,,,,,0,,,71,0
960,note_on,60,0,1,,,,,,,,,0,,,78,0
990,note_on,30,0,1,,,,,,,,,0,,,80,0
990,note_on,0,0,1,,,,,,,,,0,,,78,60
990,note_on,0,0,1,,,,,,,,,0,,,81,60
990,note_on,0,0,1,,,,,,,,,0,,,83,0
1020,note_on,30,0,1,,,,,,,,,0,,,81,0
1020,note_on,0,0,1,,,,,,,,,0,,,76,70
1020,note_on,0,0,1,,,,,,,,,0,,,78,0
1020,note_on,0,0,1,,,,,,,,,0,,,80,70
1080,note_on,0,0,1,,,,,,,,,0,,,76,60
1080,note_on,60,0,1,,,,,,,,,0,,,76,0
1080,note_on,0,0,1,,,,,,,,,0,,,80,0
1080,note_on,0,0,1,,,,,,,,,0,,,80,60
1110,note_on,0,0,1,,,,,,,,,0,,,71,60
1110,note_on,0,0,1,,,,,,,,,0,,,78,60
1110,note_on,30,0,1,,,,,,,,,0,,,76,0
1110,note_on,0,0,1,,,,,,,,,0,,,80,0
1140,note_on,0,0,1,,,,,,,,,0,,,68,70
1140,note_on,0,0,1,,,,,,,,,0,,,71,0
1140,note_on,0,0,1,,,,,,,,,0,,,76,70
1140,note_on,30,0,1,,,,,,,,,0,,,78,0
1200,note_on,0,0,1,,,,,,,,,0,,,68,0
1200,note_on,0,0,1,,,,,,,,,0,,,80,60
1200,note_on,0,0,1,,,,,,,,,0,,,83,60
1200,note_on,60,0,1,,,,,,,,,0,,,76,0
1230,note_on,30,0,1,,,,,,,,,0,,,80,0
1230,note_on,0,0,1,,,,,,,,,0,,,81,60
1230,note_on,0,0,1,,,,,,,,,0,,,83,0
1230,note_on,0,0,1,,,,,,,,,0,,,78,60
1260,note_on,0,0,1,,,,,,,,,0,,,80,70
1260,note_on,30,0,1,,,,,,,,,0,,,81,0
1260,note_on,0,0,1,,,,,,,,,0,,,78,0
1260,note_on,0,0,1,,,,,,,,,0,,,76,70
1320,note_on,0,0,1,,,,,,,,,0,,,80,0
1320,note_on,0,0,1,,,,,,,,,0,,,80,60
1320,note_on,60,0,1,,,,,,,,,0,,,76,0
1320,note_on,0,0,1,,,,,,,,,0,,,76,60
1350,note_on,0,0,1,,,,,,,,,0,,,71,60
1350,note_on,30,0,1,,,,,,,,,0,,,76,0
1350,note_on,0,0,1,,,,,,,,,0,,,78,60
1350,note_on,0,0,1,,,,,,,,,0,,,80,0
1380,note_on,0,0,1,,,,,,,,,0,,,68,70
1380,note_on,0,0,1,,,,,,,,,0,,,71,0
1380,note_on,0,0,1,,,,,,,,,0,,,76,70
1380,note_on,30,0,1,,,,,,,,,0,,,78,0
1440,note_on,60,0,1,,,,,,,,,0,,,76,0
1440,note_on,0,0,1,,,,,,,,,0,,,68,0
1440,note_on,0,0,1,,,,,,,,,0,,,68,60
1440,note_on,0,0,1,,,,,,,,,0,,,76,60
1470,note_on,30,0,1,,,,,,,,,0,,,76,0
1470,note_on,0,0,1,,,,,,,,,0,,,78,60
1470,note_on,0,0,1,,,,,,,,,0,,,71,60
1470,note_on,0,0,1,,,,,,,,,0,,,68,0
1500,note_on,0,0,1,,,,,,,,,0,,,80,70
1500,set_tempo,1200,1,0,,,,,,714371,,,,,,,
1500,note_on,30,0,1,,,,,,,,,0,,,71,0
1500,note_on,0,0,1,,,,,,,,,0,,,78,0
1500,note_on,0,0,1,,,,,,,,,0,,,76,70
1508,set_tempo,8,1,0,,,,,,716932,,,,,,,
1512,set_tempo,4,1,0,,,,,,719511,,,,,,,
1517,set_tempo,5,1,0,,,,,,722109,,,,,,,
1521,set_tempo,4,1,0,,,,,,724725,,,,,,,
1525,set_tempo,4,1,0,,,,,,727361,,,,,,,
1530,set_tempo,5,1,0,,,,,,730016,,,,,,,
1534,set_tempo,4,1,0,,,,,,732690,,,,,,,
1538,set_tempo,4,1,0,,,,,,735384,,,,,,,
1547,set_tempo,9,1,0,,,,,,738098,,,,,,,
1551,set_tempo,4,1,0,,,,,,740832,,,,,,,
1555,set_tempo,4,1,0,,,,,,743587,,,,,,,
1560,set_tempo,5,1,0,,,,,,746361,,,,,,,
1560,note_on,60,0,1,,,,,,,,,0,,,76,0
1560,note_on,0,0,1,,,,,,,,,0,,,78,60
1560,note_on,0,0,1,,,,,,,,,0,,,80,0
1560,note_on,0,0,1,,,,,,,,,0,,,81,60
1564,set_tempo,4,1,0,,,,,,749157,,,,,,,
1568,set_tempo,4,1,0,,,,,,751974,,,,,,,
1572,set_tempo,4,1,0,,,,,,754812,,,,,,,
1577,set_tempo,5,1,0,,,,,,757671,,,,,,,
1585,set_tempo,8,1,0,,,,,,760553,,,,,,,
1590,note_on,0,0,1,,,,,,,,,0,,,81,0
1590,set_tempo,5,1,0,,,,,,763456,,,,,,,
1590,note_on,30,0,1,,,,,,,,,0,,,78,0
1590,note_on,0,0,1,,,,,,,,,0,,,80,60
1590,note_on,0,0,1,,,,,,,,,0,,,76,60
1594,set_tempo,4,1,0,,,,,,766381,,,,,,,
1598,set_tempo,4,1,0,,,,,,769329,,,,,,,
1602,set_tempo,4,1,0,,,,,,772300,,,,,,,
1607,set_tempo,5,1,0,,,,,,775294,,,,,,,
1611,set_tempo,4,1,0,,,,,,778311,,,,,,,
1615,set_tempo,4,1,0,,,,,,781352,,,,,,,
1620,note_on,0,0,1,,,,,,,,,0,,,71,70
1620,note_on,0,0,1,,,,,,,,,0,,,76,0
1620,note_on,0,0,1,,,,,,,,,0,,,78,70
1620,note_on,30,0,1,,,,,,,,,0,,,80,0
1624,set_tempo,9,1,0,,,,,,784416,,,,,,,
1628,set_tempo,4,1,0,,,,,,787505,,,,,,,
1632,set_tempo,4,1,0,,,,,,790618,,,,,,,
1637,set_tempo,5,1,0,,,,,,793756,,,,,,,
1641,set_tempo,4,1,0,,,,,,796919,,,,,,,
1645,set_tempo,4,1,0,,,,,,800107,,,,,,,
1650,set_tempo,5,1,0,,,,,,803320,,,,,,,
1654,set_tempo,4,1,0,,,,,,806560,,,,,,,
1662,set_tempo,8,1,0,,,,,,809826,,,,,,,
1667,set_tempo,5,1,0,,,,,,813118,,,,,,,
1671,set_tempo,4,1,0,,,,,,816438,,,,,,,
1675,set_tempo,4,1,0,,,,,,819784,,,,,,,
1680,note_on,0,0,1,,,,,,,,,0,,,76,60
1680,note_on,0,0,1,,,,,,,,,0,,,71,0
1680,note_on,60,0,1,,,,,,,,,0,,,78,0
1680,set_tempo,5,1,0,,,,,,823158,,,,,,,
1680,note_on,0,0,1,,,,,,,,,0,,,80,60
1684,set_tempo,4,1,0,,,,,,826560,,,,,,,
1688,set_tempo,4,1,0,,,,,,829990,,,,,,,
1692,set_tempo,4,1,0,,,,,,833449,,,,,,,
1701,set_tempo,9,1,0,,,,,,836937,,,,,,,
1705,set_tempo,4,1,0,,,,,,840454,,,,,,,
1710,note_on,0,0,1,,,,,,,,,0,,,71,60
1710,note_on,0,0,1,,,,,,,,,0,,,78,60
1710,note_on,30,0,1,,,,,,,,,0,,,76,0
1710,note_on,0,0,1,,,,,,,,,0,,,80,0
1710,set_tempo,5,1,0,,,,,,844001,,,,,,,
1714,set_tempo,4,1,0,,,,,,847577,,,,,,,
1718,set_tempo,4,1,0,,,,,,851185,,,,,,,
1722,set_tempo,4,1,0,,,,,,854823,,,,,,,
1727,set_tempo,5,1,0,,,,,,858492,,,,,,,
1731,set_tempo,4,1,0,,,,,,862193,,,,,,,
1735,set_tempo,4,1,0,,,,,,865926,,,,,,,
1740,note_on,0,0,1,,,,,,,,,0,,,71,0
1740,note_on,0,0,1,,,,,,,,,0,,,68,70
1740,note_on,0,0,1,,,,,,,,,0,,,76,70
1740,set_tempo,5,1,0,,,,,,869565,,,,,,,
1740,note_on,30,0,1,,,,,,,,,0,,,78,0
1860,set_tempo,120,1,0,,,,,,714286,,,,,,,
1860,note_on,0,0,1,,,,,,,,,0,,,68,0
1860,note_on,120,0,1,,,,,,,,,0,,,76,0
1920,note_on,0,0,1,,,,,,,,,0,,,64,100
1920,note_on,60,0,1,,,,,,,,,0,,,56,100
1950,note_on,0,0,1,,,,,,,,,0,,,64,100
1950,note_on,0,0,1,,,,,,,,,0,,,68,100
1950,note_on,0,0,1,,,,,,,,,0,,,56,0
1950,note_on,30,0,1,,,,,,,,,0,,,64,0
1980,note_on,0,0,1,,,,,,,,,0,,,68,0
1980,note_on,30,0,1,,,,,,,,,0,,,64,0
1980,note_on,0,0,1,,,,,,,,,0,,,66,110
1980,note_on,0,0,1,,,,,,,,,0,,,59,110
2040,note_on,0,0,1,,,,,,,,,0,,,59,0
2040,note_on,0,0,1,,,,,,,,,0,,,68,100
2040,note_on,60,0,1,,,,,,,,,0,,,66,0
2040,note_on,0,0,1,,,,,,,,,0,,,64,100
2070,note_on,0,0,1,,,,,,,,,0,,,69,100
2070,note_on,0,0,1,,,,,,,,,0,,,68,0
2070,note_on,0,0,1,,,,,,,,,0,,,66,100
2070,note_on,30,0,1,,,,,,,,,0,,,64,0
2100,note_on,0,0,1,,,,,,,,,0,,,69,0
2100,note_on,0,0,1,,,,,,,,,0,,,71,110
2100,note_on,30,0,1,,,,,,,,,0,,,66,0
2100,note_on,0,0,1,,,,,,,,,0,,,68,110
2160,note_on,0,0,1,,,,,,,,,0,,,73,100
2160,note_on,0,0,1,,,,,,,,,0,,,71,0
2160,note_on,0,0,1,,,,,,,,,0,,,69,100
2160,note_on,60,0,1,,,,,,,,,0,,,68,0
2190,note_on,30,0,1,,,,,,,,,0,,,69,0
2190,note_on,0,0,1,,,,,,,,,0,,,73,0
2190,note_on,0,0,1,,,,,,,,,0,,,68,100
2190,note_on,0,0,1,,,,,,,,,0,,,71,100
2220,note_on,30,0,1,,,,,,,,,0,,,71,0
2220,note_on,0,0,1,,,,,,,,,0,,,66,110
2220,note_on,0,0,1,,,,,,,,,0,,,68,0
2220,note_on,0,0,1,,,,,,,,,0,,,69,110
2280,note_on,0,0,1,,,,,,,,,0,,,68,100
2280,note_on,0,0,1,,,,,,,,,0,,,69,0
2280,note_on,0,0,1,,,,,,,,,0,,,64,100
2280,note_on,60,0,1,,,,,,,,,0,,,66,0
2310,note_on,0,0,1,,,,,,,,,0,,,66,100
2310,note_on,0,0,1,,,,,,,,,0,,,69,100
2310,note_on,30,0,1,,,,,,,,,0,,,68,0
2310,note_on,0,0,1,,,,,,,,,0,,,64,0
2340,note_on,0,0,1,,,,,,,,,0,,,59,110
2340,note_on,0,0,1,,,,,,,,,0,,,66,110
2340,note_on,30,0,1,,,,,,,,,0,,,66,0
2340,note_on,0,0,1,,,,,,,,,0,,,69,0
2400,note_on,0,0,1,,,,,,,,,0,,,56,100
2400,note_on,60,0,1,,,,,,,,,0,,,66,0
2400,note_on,0,0,1,,,,,,,,,0,,,64,100
2400,note_on,0,0,1,,,,,,,,,0,,,59,0
2430,note_on,0,0,1,,,,,,,,,0,,,56,0
2430,note_on,0,0,1,,,,,,,,,0,,,64,100
2430,note_on,0,0,1,,,,,,,,,0,,,68,100
2430,note_on,30,0,1,,,,,,,,,0,,,64,0
2460,note_on,0,0,1,,,,,,,,,0,,,66,110
2460,note_on,0,0,1,,,,,,,,,0,,,68,0
2460,note_on,0,0,1,,,,,,,,,0,,,59,110
2460,note_on,30,0,1,,,,,,,,,0,,,64,0
2520,note_on,0,0,1,,,,,,,,,0,,,68,100
2520,note_on,0,0,1,,,,,,,,,0,,,64,100
2520,note_on,60,0,1,,,,,,,,,0,,,66,0
2520,note_on,0,0,1,,,,,,,,,0,,,59,0
2550,note_on,0,0,1,,,,,,,,,0,,,66,100
2550,note_on,30,0,1,,,,,,,,,0,,,64,0
2550,note_on,0,0,1,,,,,,,,,0,,,69,100
2550,note_on,0,0,1,,,,,,,,,0,,,68,0
2580,note_on,0,0,1,,,,,,,,,0,,,71,110
2580,note_on,0,0,1,,,,,,,,,0,,,69,0
2580,note_on,0,0,1,,,,,,,,,0,,,68,110
2580,note_on,30,0,1,,,,,,,,,0,,,66,0
2580,set_tempo,720,1,0,,,,,,714371,,,,,,,
2588,set_tempo,8,1,0,,,,,,716932,,,,,,,
2592,set_tempo,4,1,0,,,,,,719511,,,,,,,
2597,set_tempo,5,1,0,,,,,,722109,,,,,,,
2601,set_tempo,4,1,0,,,,,,724725,,,,,,,
2605,set_tempo,4,1,0,,,,,,727361,,,,,,,
2610,set_tempo,5,1,0,,,,,,730016,,,,,,,
2614,set_tempo,4,1,0,,,,,,732690,,,,,,,
2618,set_tempo,4,1,0,,,,,,735384,,,,,,,
2627,set_tempo,9,1,0,,,,,,738098,,,,,,,
2631,set_tempo,4,1,0,,,,,,740832,,,,,,,
2635,set_tempo,4,1,0,,,,,,743587,,,,,,,
2640,set_tempo,5,1,0,,,,,,746361,,,,,,,
2640,note_on,60,0,1,,,,,,,,,0,,,68,0
2640,note_on,0,0,1,,,,,,,,,0,,,73,100
2640,note_on,0,0,1,,,,,,,,,0,,,71,0
2640,note_on,0,0,1,,,,,,,,,0,,,69,100
2644,set_tempo,4,1,0,,,,,,749157,,,,,,,
2648,set_tempo,4,1,0,,,,,,751974,,,,,,,
2652,set_tempo,4,1,0,,,,,,754812,,,,,,,
2657,set_tempo,5,1,0,,,,,,757671,,,,,,,
2665,set_tempo,8,1,0,,,,,,760553,,,,,,,
2670,note_on,0,0,1,,,,,,,,,0,,,71,100
2670,note_on,0,0,1,,,,,,,,,0,,,68,100
2670,note_on,30,0,1,,,,,,,,,0,,,69,0
2670,note_on,0,0,1,,,,,,,,,0,,,73,0
2670,set_tempo,5,1,0,,,,,,763456,,,,,,,
2674,set_tempo,4,1,0,,,,,,766381,,,,,,,
2678,set_tempo,4,1,0,,,,,,769329,,,,,,,
2682,set_tempo,4,1,0,,,,,,772300,,,,,,,
2687,set_tempo,5,1,0,,,,,,775294,,,,,,,
2691,set_tempo,4,1,0,,,,,,778311,,,,,,,
2695,set_tempo,4,1,0,,,,,,781352,,,,,,,
2700,note_on,30,0,1,,,,,,,,,0,,,71,0
2700,note_on,0,0,1,,,,,,,,,0,,,69,110
2700,note_on,0,0,1,,,,,,,,,0,,,68,0
2700,note_on,0,0,1,,,,,,,,,0,,,66,110
2704,set_tempo,9,1,0,,,,,,784416,,,,,,,
2708,set_tempo,4,1,0,,,,,,787505,,,,,,,
2712,set_tempo,4,1,0,,,,,,790618,,,,,,,
2717,set_tempo,5,1,0,,,,,,793756,,,,,,,
2721,set_tempo,4,1,0,,,,,,796919,,,,,,,
2725,set_tempo,4,1,0,,,,,,800107,,,,,,,
2730,set_tempo,5,1,0,,,,,,803320,,,,,,,
2734,set_tempo,4,1,0,,,,,,806560,,,,,,,
2742,set_tempo,8,1,0,,,,,,809826,,,,,,,
2747,set_tempo,5,1,0,,,,,,813118,,,,,,,
2751,set_tempo,4,1,0,,,,,,816438,,,,,,,
2755,set_tempo,4,1,0,,,,,,819784,,,,,,,
2760,note_on,60,0,1,,,,,,,,,0,,,66,0
2760,set_tempo,5,1,0,,,,,,823158,,,,,,,
2760,note_on,0,0,1,,,,,,,,,0,,,68,100
2760,note_on,0,0,1,,,,,,,,,0,,,64,100
2760,note_on,0,0,1,,,,,,,,,0,,,69,0
2764,set_tempo,4,1,0,,,,,,826560,,,,,,,
2768,set_tempo,4,1,0,,,,,,829990,,,,,,,
2772,set_tempo,4,1,0,,,,,,833449,,,,,,,
2781,set_tempo,9,1,0,,,,,,836937,,,,,,,
2785,set_tempo,4,1,0,,,,,,840454,,,,,,,
2790,note_on,30,0,1,,,,,,,,,0,,,64,0
2790,note_on,0,0,1,,,,,,,,,0,,,66,100
2790,note_on,0,0,1,,,,,,,,,0,,,68,0
2790,note_on,0,0,1,,,,,,,,,0,,,69,100
2790,set_tempo,5,1,0,,,,,,844001,,,,,,,
2794,set_tempo,4,1,0,,,,,,847577,,,,,,,
2798,set_tempo,4,1,0,,,,,,851185,,,,,,,
2802,set_tempo,4,1,0,,,,,,854823,,,,,,,
2807,set_tempo,5,1,0,,,,,,858492,,,,,,,
2811,set_tempo,4,1,0,,,,,,862193,,,,,,,
2815,set_tempo,4,1,0,,,,,,865926,,,,,,,
2820,note_on,30,0,1,,,,,,,,,0,,,66,0
2820,set_tempo,5,1,0,,,,,,869565,,,,,,,
2820,note_on,0,0,1,,,,,,,,,0,,,59,110
2820,note_on,0,0,1,,,,,,,,,0,,,66,110
2820,note_on,0,0,1,,,,,,,,,0,,,69,0
2880,set_tempo,60,1,0,,,,,,714286,,,,,,,
2880,note_on,0,0,1,,,,,,,,,0,,,83,60
2880,note_on,0,0,1,,,,,,,,,0,,,80,60
2880,note_on,60,0,1,,,,,,,,,0,,,66,0
2880,note_on,0,0,1,,,,,,,,,0,,,59,0
2910,note_on,30,0,1,,,,,,,,,0,,,80,0
2910,note_on,0,0,1,,,,,,,,,0,,,83,0
2910,note_on,0,0,1,,,,,,,,,0,,,78,60
2910,note_on,0,0,1,,,,,,,,,0,,,81,60
2940,note_on,30,0,1,,,,,,,,,0,,,81,0
2940,note_on,0,0,1,,,,,,,,,0,,,80,70
2940,note_on,0,0,1,,,,,,,,,0,,,76,70
2940,note_on,0,0,1,,,,,,,,,0,,,78,0
3000,note_on,60,0,1,,,,,,,,,0,,,76,0
3000,note_on,0,0,1,,,,,,,,,0,,,80,0
3000,note_on,0,0,1,,,,,,,,,0,,,76,60
3000,note_on,0,0,1,,,,,,,,,0,,,80,60
3030,note_on,30,0,1,,,,,,,,,0,,,76,0
3030,note_on,0,0,1,,,,,,,,,0,,,71,60
3030,note_on,0,0,1,,,,,,,,,0,,,78,60
3030,note_on,0,0,1,,,,,,,,,0,,,80,0
3060,note_on,0,0,1,,,,,,,,,0,,,68,70
3060,note_on,0,0,1,,,,,,,,,0,,,71,0
3060,note_on,0,0,1,,,,,,,,,0,,,76,70
3060,note_on,30,0,1,,,,,,,,,0,,,78,0
3120,note_on,0,0,1,,,,,,,,,0,,,71,100
3120,note_on,60,0,1,,,,,,,,,0,,,76,0
3120,note_on,0,0,1,,,,,,,,,0,,,68,0
3120,note_on,0,0,1,,,,,,,,,0,,,68,100
3150,note_on,30,0,1,,,,,,,,,0,,,68,0
3150,note_on,0,0,1,,,,,,,,,0,,,66,100
3150,note_on,0,0,1,,,,,,,,,0,,,69,100
3150,note_on,0,0,1,,,,,,,,,0,,,71,0
3180,note_on,0,0,1,,,,,,,,,0,,,64,110
3180,note_on,0,0,1,,,,,,,,,0,,,66,0
3180,note_on,0,0,1,,,,,,,,,0,,,68,110
3180,note_on,30,0,1,,,,,,,,,0,,,69,0
3240,note_on,0,0,1,,,,,,,,,0,,,68,100
3240,note_on,0,0,1,,,,,,,,,0,,,68,0
3240,note_on,0,0,1,,,,,,,,,0,,,64,100
3240,note_on,60,0,1,,,,,,,,,0,,,64,0
3270,note_on,30,0,1,,,,,,,,,0,,,64,0
3270,note_on,0,0,1,,,,,,,,,0,,,66,100
3270,note_on,0,0,1,,,,,,,,,0,,,59,100
3270,note_on,0,0,1,,,,,,,,,0,,,68,0
3300,note_on,30,0,1,,,,,,,,,0,,,66,0
3300,note_on,0,0,1,,,,,,,,,0,,,56,110
3300,note_on,0,0,1,,,,,,,,,0,,,59,0
3300,note_on,0,0,1,,,,,,,,,0,,,64,110
3360,note_on,0,0,1,,,,,,,,,0,,,56,0
3360,note_on,0,0,1,,,,,,,,,0,,,68,60
3360,note_on,0,0,1,,,,,,,,,0,,,76,60
3360,note_on,60,0,1,,,,,,,,,0,,,64,0
3390,note_on,0,0,1,,,,,,,,,0,,,78,60
3390,note_on,30,0,1,,,,,,,,,0,,,68,0
3390,note_on,0,0,1,,,,,,,,,0,,,71,60
3390,note_on,0,0,1,,,,,,,,,0,,,76,0
3420,note_on,30,0,1,,,,,,,,,0,,,71,0
3420,note_on,0,0,1,,,,,,,,,0,,,78,0
3420,set_tempo,540,1,0,,,,,,714371,,,,,,,
3420,note_on,0,0,1,,,,,,,,,0,,,76,70
3420,note_on,0,0,1,,,,,,,,,0,,,80,70
3428,set_tempo,8,1,0,,,,,,716932,,,,,,,
3432,set_tempo,4,1,0,,,,,,719511,,,,,,,
3437,set_tempo,5,1,0,,,,,,722109,,,,,,,
3441,set_tempo,4,1,0,,,,,,724725,,,,,,,
3445,set_tempo,4,1,0,,,,,,727361,,,,,,,
3450,set_tempo,5,1,0,,,,,,730016,,,,,,,
3454,set_tempo,4,1,0,,,,,,732690,,,,,,,
3458,set_tempo,4,1,0,,,,,,735384,,,,,,,
3467,set_tempo,9,1,0,,,,,,738098,,,,,,,
3471,set_tempo,4,1,0,,,,,,740832,,,,,,,
3475,set_tempo,4,1,0,,,,,,743587,,,,,,,
3480,note_on,0,0,1,,,,,,,,,0,,,81,60
3480,note_on,60,0,1,,,,,,,,,0,,,76,0
3480,note_on,0,0,1,,,,,,,,,0,,,80,0
3480,set_tempo,5,1,0,,,,,,746361,,,,,,,
3480,note_on,0,0,1,,,,,,,,,0,,,78,60
3484,set_tempo,4,1,0,,,,,,749157,,,,,,,
3488,set_tempo,4,1,0,,,,,,751974,,,,,,,
3492,set_tempo,4,1,0,,,,,,754812,,,,,,,
3497,set_tempo,5,1,0,,,,,,757671,,,,,,,
3505,set_tempo,8,1,0,,,,,,760553,,,,,,,
3510,note_on,0,0,1,,,,,,,,,0,,,80,60
3510,note_on,30,0,1,,,,,,,,,0,,,78,0
3510,set_tempo,5,1,0,,,,,,763456,,,,,,,
3510,note_on,0,0,1,,,,,,,,,0,,,76,60
3510,note_on,0,0,1,,,,,,,,,0,,,81,0
3514,set_tempo,4,1,0,,,,,,766381,,,,,,,
3518,set_tempo,4,1,0,,,,,,769329,,,,,,,
3522,set_tempo,4,1,0,,,,,,772300,,,,,,,
3527,set_tempo,5,1,0,,,,,,775294,,,,,,,
3531,set_tempo,4,1,0,,,,,,778311,,,,,,,
3535,set_tempo,4,1,0,,,,,,781352,,,,,,,
3540,note_on,0,0,1,,,,,,,,,0,,,76,0
3540,note_on,0,0,1,,,,,,,,,0,,,71,70
3540,note_on,0,0,1,,,,,,,,,0,,,78,70
3540,note_on,30,0,1,,,,,,,,,0,,,80,0
3544,set_tempo,9,1,0,,,,,,784416,,,,,,,
3548,set_tempo,4,1,0,,,,,,787505,,,,,,,
3552,set_tempo,4,1,0,,,,,,790618,,,,,,,
3557,set_tempo,5,1,0,,,,,,793756,,,,,,,
3561,set_tempo,4,1,0,,,,,,796919,,,,,,,
3565,set_tempo,4,1,0,,,,,,800107,,,,,,,
3570,set_tempo,5,1,0,,,,,,803320,,,,,,,
3574,set_tempo,4,1,0,,,,,,806560,,,,,,,
3582,set_tempo,8,1,0,,,,,,809826,,,,,,,
3587,set_tempo,5,1,0,,,,,,813118,,,,,,,
3591,set_tempo,4,1,0,,,,,,816438,,,,,,,
3595,set_tempo,4,1,0,,,,,,819784,,,,,,,
3600,note_on,0,0,1,,,,,,,,,0,,,71,0
3600,note_on,0,0,1,,,,,,,,,0,,,76,60
3600,set_tempo,5,1,0,,,,,,823158,,,,,,,
3600,note_on,0,0,1,,,,,,,,,0,,,80,60
3600,note_on,60,0,1,,,,,,,,,0,,,78,0
3604,set_tempo,4,1,0,,,,,,826560,,,,,,,
3608,set_tempo,4,1,0,,,,,,829990,,,,,,,
3612,set_tempo,4,1,0,,,,,,833449,,,,,,,
3621,set_tempo,9,1,0,,,,,,836937,,,,,,,
3625,set_tempo,4,1,0,,,,,,840454,,,,,,,
3630,note_on,30,0,1,,,,,,,,,0,,,76,0
3630,set_tempo,5,1,0,,,,,,844001,,,,,,,
3630,note_on,0,0,1,,,,,,,,,0,,,71,60
3630,note_on,0,0,1,,,,,,,,,0,,,78,60
3630,note_on,0,0,1,,,,,,,,,0,,,80,0
3634,set_tempo,4,1,0,,,,,,847577,,,,,,,
3638,set_tempo,4,1,0,,,,,,851185,,,,,,,
3642,set_tempo,4,1,0,,,,,,854823,,,,,,,
3647,set_tempo,5,1,0,,,,,,858492,,,,,,,
3651,set_tempo,4,1,0,,,,,,862193,,,,,,,
3655,set_tempo,4,1,0,,,,,,865926,,,,,,,
3660,note_on,0,0,1,,,,,,,,,0,,,71,0
3660,note_on,30,0,1,,,,,,,,,0,,,78,0
3660,note_on,0,0,1,,,,,,,,,0,,,76,70
3660,set_tempo,5,1,0,,,,,,869565,,,,,,,
3660,note_on,0,0,1,,,,,,,,,0,,,68,70
3780,note_on,0,0,1,,,,,,,,,0,,,68,0
3780,note_on,120,0,1,,,,,,,,,0,,,76,0
3780,set_tempo,120,1,0,,,,,,2000000,,,,,,,
3840,note_on,60,0,1,,,,,,,,,0,,,95,60
3840,note_on,0,0,1,,,,,,,,,0,,,92,60
3840,set_tempo,60,1,0,,,,,,714286,,,,,,,
3870,note_on,0,0,1,,,,,,,,,0,,,95,0
3870,note_on,0,0,1,,,,,,,,,0,,,93,60
3870,note_on,0,0,1,,,,,,,,,0,,,90,60
3870,note_on,30,0,1,,,,,,,,,0,,,92,0
3900,note_on,30,0,1,,,,,,,,,0,,,93,0
3900,note_on,0,0,1,,,,,,,,,0,,,92,70
3900,note_on,0,0,1,,,,,,,,,0,,,90,0
3900,note_on,0,0,1,,,,,,,,,0,,,88,70
3900,note_on,3900,0,4,,,,,,,,,0,,,59,60
3900,note_on,0,0,4,,,,,,,,,0,,,52,60
3900,control_change,3900,0,5,,,,,,,,,0,64,127,,
3930,note_on,30,0,4,,,,,,,,,0,,,59,0
3930,note_on,0,0,4,,,,,,,,,0,,,64,60
3960,note_on,30,0,4,,,,,,,,,0,,,64,0
3960,note_on,3960,0,3,,,,,,,,,0,,,71,60
3960,note_on,0,0,1,,,,,,,,,0,,,92,60
3960,note_on,0,0,1,,,,,,,,,0,,,92,0
3960,note_on,60,0,1,,,,,,,,,0,,,88,0
3960,note_on,0,0,1,,,,,,,,,0,,,88,60
3990,note_on,30,0,1,,,,,,,,,0,,,88,0
3990,note_on,0,0,1,,,,,,,,,0,,,90,60
3990,note_on,0,0,1,,,,,,,,,0,,,83,60
3990,note_on,0,0,1,,,,,,,,,0,,,92,0
4005,control_change,105,0,5,,,,,,,,,0,64,0,,
4020,control_change,15,0,5,,,,,,,,,0,64,127,,
4020,note_on,60,0,3,,,,,,,,,0,,,71,0
4020,note_on,60,0,4,,,,,,,,,0,,,52,0
4020,note_on,30,0,1,,,,,,,,,0,,,90,0
4020,note_on,0,0,3,,,,,,,,,0,,,64,60
4020,note_on,0,0,1,,,,,,,,,0,,,83,0
4020,note_on,0,0,1,,,,,,,,,0,,,88,70
4020,note_on,0,0,3,,,,,,,,,0,,,71,60
4020,note_on,0,0,1,,,,,,,,,0,,,80,70
4050,note_on,0,0,3,,,,,,,,,0,,,59,60
4050,note_on,30,0,3,,,,,,,,,0,,,64,0
4080,note_on,60,0,1,,,,,,,,,0,,,80,0
4080,note_on,0,0,1,,,,,,,,,0,,,80,60
4080,note_on,0,0,1,,,,,,,,,0,,,83,60
4080,note_on,0,0,1,,,,,,,,,0,,,88,0
4080,note_on,30,0,3,,,,,,,,,0,,,59,0
4080,note_on,60,0,4,,,,,,,,,0,,,52,60
4110,note_on,30,0,1,,,,,,,,,0,,,80,0
4110,note_on,0,0,1,,,,,,,,,0,,,83,0
4110,note_on,0,0,1,,,,,,,,,0,,,81,60
4110,note_on,0,0,1,,,,,,,,,0,,,78,60
4125,control_change,105,0,5,,,,,,,,,0,64,0,,
4140,note_on,0,0,1,,,,,,,,,0,,,76,70
4140,note_on,0,0,1,,,,,,,,,0,,,80,70
4140,note_on,0,0,4,,,,,,,,,0,,,52,60
4140,note_on,0,0,1,,,,,,,,,0,,,78,0
4140,note_on,30,0,1,,,,,,,,,0,,,81,0
4140,control_change,15,0,5,,,,,,,,,0,64,127,,
4140,note_on,0,0,4,,,,,,,,,0,,,59,60
4140,note_on,60,0,3,,,,,,,,,0,,,71,0
4140,note_on,60,0,4,,,,,,,,,0,,,52,0
4170,note_on,0,0,4,,,,,,,,,0,,,64,60
4170,note_on,30,0,4,,,,,,,,,0,,,59,0
4200,note_on,60,0,1,,,,,,,,,0,,,76,0
4200,note_on,0,0,1,,,,,,,,,0,,,80,60
4200,note_on,0,0,1,,,,,,,,,0,,,80,0
4200,note_on,60,0,3,,,,,,,,,0,,,71,60
4200,note_on,30,0,4,,,,,,,,,0,,,64,0
4200,note_on,0,0,1,,,,,,,,,0,,,76,60
4230,note_on,0,0,1,,,,,,,,,0,,,71,60
4230,note_on,0,0,1,,,,,,,,,0,,,80,0
4230,note_on,0,0,1,,,,,,,,,0,,,78,60
4230,note_on,30,0,1,,,,,,,,,0,,,76,0
4245,control_change,105,0,5,,,,,,,,,0,64,0,,
4260,note_on,0,0,3,,,,,,,,,0,,,71,60
4260,control_change,15,0,5,,,,,,,,,0,64,127,,
4260,note_on,0,0,3,,,,,,,,,0,,,64,60
4260,note_on,0,0,1,,,,,,,,,0,,,68,70
4260,note_on,0,0,1,,,,,,,,,0,,,76,70
4260,note_on,30,0,1,,,,,,,,,0,,,78,0
4260,note_on,60,0,3,,,,,,,,,0,,,71,0
4260,note_on,60,0,4,,,,,,,,,0,,,52,0
4260,note_on,0,0,1,,,,,,,,,0,,,71,0
4290,note_on,30,0,3,,,,,,,,,0,,,64,0
4290,note_on,0,0,3,,,,,,,,,0,,,59,60
4320,note_on,0,0,1,,,,,,,,,0,,,76,60
4320,note_on,0,0,1,,,,,,,,,0,,,68,60
4320,note_on,30,0,3,,,,,,,,,0,,,59,0
4320,note_on,60,0,1,,,,,,,,,0,,,76,0
4320,note_on,60,0,4,,,,,,,,,0,,,52,60
4320,note_on,0,0,1,,,,,,,,,0,,,68,0
4350,note_on,0,0,1,,,,,,,,,0,,,71,60
4350,note_on,0,0,1,,,,,,,,,0,,,76,0
4350,note_on,30,0,1,,,,,,,,,0,,,68,0
4350,note_on,0,0,1,,,,,,,,,0,,,78,60
4365,control_change,105,0,5,,,,,,,,,0,64,0,,
4380,note_on,0,0,4,,,,,,,,,0,,,59,60
4380,note_on,0,0,1,,,,,,,,,0,,,76,70
4380,note_on,60,0,4,,,,,,,,,0,,,52,0
4380,note_on,0,0,1,,,,,,,,,0,,,80,70
4380,note_on,0,0,4,,,,,,,,,0,,,52,60
4380,control_change,15,0,5,,,,,,,,,0,64,127,,
4380,note_on,60,0,3,,,,,,,,,0,,,71,0
4380,note_on,30,0,1,,,,,,,,,0,,,71,0
4380,note_on,0,0,1,,,,,,,,,0,,,78,0
4410,note_on,30,0,4,,,,,,,,,0,,,64,60
4440,note_on,0,0,1,,,,,,,,,0,,,78,60
4440,note_on,0,0,1,,,,,,,,,0,,,80,0
4440,note_on,0,0,4,,,,,,,,,0,,,52,0
4440,note_on,0,0,4,,,,,,,,,0,,,59,0
4440,note_on,30,0,4,,,,,,,,,0,,,64,0
4440,note_on,60,0,1,,,,,,,,,0,,,76,0
4440,note_on,0,0,1,,,,,,,,,0,,,71,60
4470,note_on,0,0,1,,,,,,,,,0,,,78,0
4470,note_on,0,0,1,,,,,,,,,0,,,80,60
4470,note_on,30,0,1,,,,,,,,,0,,,71,0
4470,note_on,0,0,1,,,,,,,,,0,,,76,60
4485,control_change,105,0,5,,,,,,,,,0,64,0,,
4500,control_change,15,0,5,,,,,,,,,0,64,127,,
4500,note_on,0,0,1,,,,,,,,,0,,,81,70
4500,note_on,120,0,3,,,,,,,,,0,,,63,60
4500,note_on,0,0,3,,,,,,,,,0,,,71,60
4500,note_on,30,0,1,,,,,,,,,0,,,76,0
4500,note_on,0,0,1,,,,,,,,,0,,,78,70
4500,note_on,0,0,1,,,,,,,,,0,,,80,0
4530,note_on,30,0,3,,,,,,,,,0,,,59,60
4560,note_on,30,0,3,,,,,,,,,0,,,59,0
4560,note_on,60,0,1,,,,,,,,,0,,,78,0
4560,note_on,0,0,1,,,,,,,,,0,,,81,0
4560,note_on,0,0,1,,,,,,,,,0,,,78,60
4560,note_on,0,0,1,,,,,,,,,0,,,71,60
4560,note_on,0,0,3,,,,,,,,,0,,,71,0
4560,note_on,0,0,3,,,,,,,,,0,,,63,0
4590,note_on,0,0,1,,,,,,,,,0,,,78,60
4590,note_on,0,0,1,,,,,,,,,0,,,71,0
4590,note_on,30,0,1,,,,,,,,,0,,,78,0
4590,note_on,0,0,1,,,,,,,,,0,,,81,60
4605,control_change,105,0,5,,,,,,,,,0,64,0,,
4620,note_on,0,0,1,,,,,,,,,0,,,80,70
4620,note_on,0,0,1,,,,,,,,,0,,,81,0
4620,note_on,0,0,1,,,,,,,,,0,,,83,70
4620,control_change,15,0,5,,,,,,,,,0,64,127,,
4620,note_on,180,0,4,,,,,,,,,0,,,59,60
4620,note_on,0,0,4,,,,,,,,,0,,,52,60
4620,note_on,30,0,1,,,,,,,,,0,,,78,0
4650,note_on,30,0,4,,,,,,,,,0,,,64,60
4680,note_on,30,0,4,,,,,,,,,0,,,64,0
4680,note_on,0,0,1,,,,,,,,,0,,,78,60
4680,note_on,0,0,1,,,,,,,,,0,,,81,60
4680,note_on,0,0,4,,,,,,,,,0,,,59,0
4680,note_on,0,0,4,,,,,,,,,0,,,52,0
4680,note_on,0,0,1,,,,,,,,,0,,,83,0
4680,note_on,60,0,1,,,,,,,,,0,,,80,0
4710,note_on,30,0,1,,,,,,,,,0,,,81,0
4710,note_on,0,0,1,,,,,,,,,0,,,76,60
4710,note_on,0,0,1,,,,,,,,,0,,,78,0
4710,note_on,0,0,1,,,,,,,,,0,,,80,60
4725,control_change,105,0,5,,,,,,,,,0,64,0,,
4740,note_on,0,0,1,,,,,,,,,0,,,71,70
4740,note_on,60,0,4,,,,,,,,,0,,,63,60
4740,note_on,0,0,1,,,,,,,,,0,,,78,70
4740,note_on,0,0,4,,,,,,,,,0,,,66,60
4740,note_on,30,0,1,,,,,,,,,0,,,80,0
4740,control_change,15,0,5,,,,,,,,,0,64,127,,
4740,note_on,0,0,1,,,,,,,,,0,,,76,0
4770,note_on,30,0,4,,,,,,,,,0,,,63,0
4770,note_on,0,0,4,,,,,,,,,0,,,59,60
4800,note_on,0,0,1,,,,,,,,,0,,,71,0
4800,note_on,0,0,1,,,,,,,,,0,,,92,60
4800,note_on,60,0,1,,,,,,,,,0,,,78,0
4800,note_on,0,0,1,,,,,,,,,0,,,95,60
4800,note_on,0,0,4,,,,,,,,,0,,,66,0
4800,note_on,30,0,4,,,,,,,,,0,,,59,0
4830,note_on,0,0,1,,,,,,,,,0,,,90,60
4830,note_on,0,0,1,,,,,,,,,0,,,95,0
4830,note_on,30,0,1,,,,,,,,,0,,,92,0
4830,note_on,0,0,1,,,,,,,,,0,,,93,60
4845,control_change,105,0,5,,,,,,,,,0,64,0,,
4860,note_on,60,0,4,,,,,,,,,0,,,59,60
4860,control_change,15,0,5,,,,,,,,,0,64,127,,
4860,note_on,30,0,1,,,,,,,,,0,,,93,0
4860,note_on,0,0,1,,,,,,,,,0,,,92,70
4860,note_on,0,0,1,,,,,,,,,0,,,90,0
4860,note_on,0,0,1,,,,,,,,,0,,,88,70
4860,note_on,0,0,4,,,,,,,,,0,,,52,60
4890,note_on,0,0,4,,,,,,,,,0,,,64,60
4890,note_on,30,0,4,,,,,,,,,0,,,59,0
4920,note_on,0,0,1,,,,,,,,,0,,,92,60
4920,note_on,0,0,1,,,,,,,,,0,,,92,0
4920,note_on,0,0,1,,,,,,,,,0,,,88,60
4920,note_on,360,0,3,,,,,,,,,0,,,71,60
4920,note_on,60,0,1,,,,,,,,,0,,,88,0
4920,note_on,30,0,4,,,,,,,,,0,,,64,0
4950,note_on,30,0,1,,,,,,,,,0,,,92,0
4950,note_on,0,0,1,,,,,,,,,0,,,90,60
4950,note_on,0,0,1,,,,,,,,,0,,,83,60
4950,note_on,0,0,1,,,,,,,,,0,,,88,0
4965,control_change,105,0,5,,,,,,,,,0,64,0,,
4980,note_on,0,0,3,,,,,,,,,0,,,64,60
4980,control_change,15,0,5,,,,,,,,,0,64,127,,
4980,note_on,30,0,1,,,,,,,,,0,,,90,0
4980,note_on,60,0,4,,,,,,,,,0,,,52,0
4980,note_on,0,0,1,,,,,,,,,0,,,80,70
4980,note_on,0,0,1,,,,,,,,,0,,,83,0
4980,note_on,0,0,1,,,,,,,,,0,,,88,70
4980,note_on,60,0,3,,,,,,,,,0,,,71,0
4980,note_on,0,0,3,,,,,,,,,0,,,71,60
5010,note_on,0,0,3,,,,,,,,,0,,,59,60
5010,note_on,30,0,3,,,,,,,,,0,,,64,0
5040,note_on,60,0,4,,,,,,,,,0,,,52,60
5040,note_on,30,0,3,,,,,,,,,0,,,59,0
5040,note_on,0,0,1,,,,,,,,,0,,,80,0
5040,note_on,60,0,1,,,,,,,,,0,,,88,0
5040,note_on,0,0,1,,,,,,,,,0,,,83,60
5040,note_on,0,0,1,,,,,,,,,0,,,80,60
5070,note_on,30,0,1,,,,,,,,,0,,,83,0
5070,note_on,0,0,1,,,,,,,,,0,,,78,60
5070,note_on,0,0,1,,,,,,,,,0,,,81,60
5070,note_on,0,0,1,,,,,,,,,0,,,80,0
5085,control_change,105,0,5,,,,,,,,,0,64,0,,
5100,note_on,0,0,1,,,,,,,,,0,,,80,70
5100,note_on,60,0,4,,,,,,,,,0,,,52,0
5100,note_on,60,0,3,,,,,,,,,0,,,71,0
5100,control_change,15,0,5,,,,,,,,,0,64,127,,
5100,note_on,0,0,4,,,,,,,,,0,,,52,60
5100,note_on,0,0,1,,,,,,,,,0,,,78,0
5100,note_on,0,0,4,,,,,,,,,0,,,59,60
5100,note_on,0,0,1,,,,,,,,,0,,,76,70
5100,note_on,30,0,1,,,,,,,,,0,,,81,0
5130,note_on,30,0,4,,,,,,,,,0,,,59,0
5130,note_on,0,0,4,,,,,,,,,0,,,64,60
5160,note_on,60,0,3,,,,,,,,,0,,,71,60
5160,note_on,0,0,1,,,,,,,,,0,,,76,60
5160,note_on,0,0,1,,,,,,,,,0,,,80,0
5160,note_on,0,0,1,,,,,,,,,0,,,80,60
5160,note_on,60,0,1,,,,,,,,,0,,,76,0
5160,note_on,30,0,4,,,,,,,,,0,,,64,0
5190,note_on,30,0,1,,,,,,,,,0,,,76,0
5190,note_on,0,0,1,,,,,,,,,0,,,80,0
5190,note_on,0,0,1,,,,,,,,,0,,,78,60
5190,note_on,0,0,1,,,,,,,,,0,,,71,60
5205,control_change,105,0,5,,,,,,,,,0,64,0,,
5220,note_on,0,0,1,,,,,,,,,0,,,76,70
5220,note_on,60,0,4,,,,,,,,,0,,,52,0
5220,note_on,30,0,1,,,,,,,,,0,,,78,0
5220,note_on,0,0,1,,,,,,,,,0,,,71,0
5220,note_on,0,0,1,,,,,,,,,0,,,68,70
5220,control_change,15,0,5,,,,,,,,,0,64,127,,
5220,note_on,0,0,3,,,,,,,,,0,,,64,60
5220,note_on,0,0,3,,,,,,,,,0,,,71,60
5220,note_on,60,0,3,,,,,,,,,0,,,71,0
5250,note_on,30,0,3,,,,,,,,,0,,,64,0
5250,note_on,0,0,3,,,,,,,,,0,,,59,60
5280,note_on,30,0,3,,,,,,,,,0,,,59,0
5280,note_on,0,0,1,,,,,,,,,0,,,76,60
5280,note_on,0,0,1,,,,,,,,,0,,,68,60
5280,note_on,0,0,1,,,,,,,,,0,,,68,0
5280,note_on,60,0,4,,,,,,,,,0,,,52,60
5280,note_on,60,0,1,,,,,,,,,0,,,76,0
5310,note_on,0,0,1,,,,,,,,,0,,,76,0
5310,note_on,0,0,1,,,,,,,,,0,,,78,60
5310,note_on,30,0,1,,,,,,,,,0,,,68,0
5310,note_on,0,0,1,,,,,,,,,0,,,71,60
5325,control_change,105,0,5,,,,,,,,,0,64,0,,
5340,note_on,60,0,4,,,,,,,,,0,,,52,0
5340,note_on,0,0,1,,,,,,,,,0,,,76,70
5340,note_on,0,0,1,,,,,,,,,0,,,78,0
5340,control_change,15,0,5,,,,,,,,,0,64,127,,
5340,note_on,30,0,1,,,,,,,,,0,,,71,0
5340,note_on,0,0,1,,,,,,,,,0,,,80,70
5340,set_tempo,1500,1,0,,,,,,714371,,,,,,,
5340,note_on,0,0,4,,,,,,,,,0,,,52,60
5340,note_on,0,0,4,,,,,,,,,0,,,59,60
5340,note_on,60,0,3,,,,,,,,,0,,,71,0
5348,set_tempo,8,1,0,,,,,,716932,,,,,,,
5352,set_tempo,4,1,0,,,,,,719511,,,,,,,
5357,set_tempo,5,1,0,,,,,,722109,,,,,,,
5361,set_tempo,4,1,0,,,,,,724725,,,,,,,
5365,set_tempo,4,1,0,,,,,,727361,,,,,,,
5370,note_on,30,0,4,,,,,,,,,0,,,64,60
5370,set_tempo,5,1,0,,,,,,730016,,,,,,,
5374,set_tempo,4,1,0,,,,,,732690,,,,,,,
5378,set_tempo,4,1,0,,,,,,735384,,,,,,,
5387,set_tempo,9,1,0,,,,,,738098,,,,,,,
5391,set_tempo,4,1,0,,,,,,740832,,,,,,,
5395,set_tempo,4,1,0,,,,,,743587,,,,,,,
5400,note_on,0,0,4,,,,,,,,,0,,,59,0
5400,note_on,30,0,4,,,,,,,,,0,,,64,0
5400,note_on,0,0,1,,,,,,,,,0,,,78,60
5400,note_on,0,0,1,,,,,,,,,0,,,80,0
5400,note_on,60,0,1,,,,,,,,,0,,,76,0
5400,note_on,0,0,4,,,,,,,,,0,,,52,0
5400,note_on,0,0,1,,,,,,,,,0,,,81,60
5400,set_tempo,5,1,0,,,,,,746361,,,,,,,
5404,set_tempo,4,1,0,,,,,,749157,,,,,,,
5408,set_tempo,4,1,0,,,,,,751974,,,,,,,
5412,set_tempo,4,1,0,,,,,,754812,,,,,,,
5417,set_tempo,5,1,0,,,,,,757671,,,,,,,
5425,set_tempo,8,1,0,,,,,,760553,,,,,,,
5430,set_tempo,5,1,0,,,,,,763456,,,,,,,
5430,note_on,30,0,1,,,,,,,,,0,,,78,0
5430,note_on,0,0,1,,,,,,,,,0,,,76,60
5430,note_on,0,0,1,,,,,,,,,0,,,80,60
5430,note_on,0,0,1,,,,,,,,,0,,,81,0
5434,set_tempo,4,1,0,,,,,,766381,,,,,,,
5438,set_tempo,4,1,0,,,,,,769329,,,,,,,
5442,set_tempo,4,1,0,,,,,,772300,,,,,,,
5445,control_change,105,0,5,,,,,,,,,0,64,0,,
5447,set_tempo,5,1,0,,,,,,775294,,,,,,,
5451,set_tempo,4,1,0,,,,,,778311,,,,,,,
5455,set_tempo,4,1,0,,,,,,781352,,,,,,,
5460,note_on,120,0,3,,,,,,,,,0,,,69,60
5460,note_on,30,0,1,,,,,,,,,0,,,80,0
5460,note_on,0,0,3,,,,,,,,,0,,,63,60
5460,control_change,15,0,5,,,,,,,,,0,64,127,,
5460,note_on,0,0,1,,,,,,,,,0,,,78,70
5460,note_on,0,0,1,,,,,,,,,0,,,76,0
5460,note_on,0,0,1,,,,,,,,,0,,,71,70
5464,set_tempo,9,1,0,,,,,,784416,,,,,,,
5468,set_tempo,4,1,0,,,,,,787505,,,,,,,
5472,set_tempo,4,1,0,,,,,,790618,,,,,,,
5477,set_tempo,5,1,0,,,,,,793756,,,,,,,
5481,set_tempo,4,1,0,,,,,,796919,,,,,,,
5485,set_tempo,4,1,0,,,,,,800107,,,,,,,
5490,note_on,30,0,3,,,,,,,,,0,,,59,60
5490,set_tempo,5,1,0,,,,,,803320,,,,,,,
5494,set_tempo,4,1,0,,,,,,806560,,,,,,,
5502,set_tempo,8,1,0,,,,,,809826,,,,,,,
5507,set_tempo,5,1,0,,,,,,813118,,,,,,,
5511,set_tempo,4,1,0,,,,,,816438,,,,,,,
5515,set_tempo,4,1,0,,,,,,819784,,,,,,,
5520,note_on,0,0,3,,,,,,,,,0,,,63,0
5520,note_on,0,0,1,,,,,,,,,0,,,71,0
5520,note_on,30,0,3,,,,,,,,,0,,,59,0
5520,note_on,0,0,3,,,,,,,,,0,,,69,0
5520,note_on,0,0,1,,,,,,,,,0,,,76,60
5520,note_on,0,0,1,,,,,,,,,0,,,80,60
5520,note_on,60,0,1,,,,,,,,,0,,,78,0
5520,set_tempo,5,1,0,,,,,,823158,,,,,,,
5524,set_tempo,4,1,0,,,,,,826560,,,,,,,
5528,set_tempo,4,1,0,,,,,,829990,,,,,,,
5532,set_tempo,4,1,0,,,,,,833449,,,,,,,
5541,set_tempo,9,1,0,,,,,,836937,,,,,,,
5545,set_tempo,4,1,0,,,,,,840454,,,,,,,
5550,note_on,30,0,1,,,,,,,,,0,,,76,0
5550,note_on,0,0,1,,,,,,,,,0,,,80,0
5550,note_on,0,0,1,,,,,,,,,0,,,78,60
5550,note_on,0,0,1,,,,,,,,,0,,,71,60
5550,set_tempo,5,1,0,,,,,,844001,,,,,,,
5554,set_tempo,4,1,0,,,,,,847577,,,,,,,
5558,set_tempo,4,1,0,,,,,,851185,,,,,,,
5562,set_tempo,4,1,0,,,,,,854823,,,,,,,
5565,control_change,105,0,5,,,,,,,,,0,64,0,,
5567,set_tempo,5,1,0,,,,,,858492,,,,,,,
5571,set_tempo,4,1,0,,,,,,862193,,,,,,,
5575,set_tempo,4,1,0,,,,,,865926,,,,,,,
5580,note_on,0,0,1,,,,,,,,,0,,,68,70
5580,note_on,30,0,1,,,,,,,,,0,,,78,0
5580,control_change,15,0,5,,,,,,,,,0,64,127,,
5580,note_on,0,0,1,,,,,,,,,0,,,76,70
5580,note_on,180,0,4,,,,,,,,,0,,,52,60
5580,set_tempo,5,1,0,,,,,,869565,,,,,,,
5580,note_on,0,0,1,,,,,,,,,0,,,71,0
5610,note_on,30,0,4,,,,,,,,,0,,,52,0
5610,note_on,0,0,4,,,,,,,,,0,,,59,60
5640,note_on,30,0,4,,,,,,,,,0,,,59,0
5640,note_on,0,0,4,,,,,,,,,0,,,68,60
5670,note_on,30,0,4,,,,,,,,,0,,,68,0
5670,note_on,0,0,4,,,,,,,,,0,,,64,60
5700,note_on,30,0,4,,,,,,,,,0,,,64,0
5700,note_on,120,0,1,,,,,,,,,0,,,68,0
5700,control_change,120,0,5,,,,,,,,,0,64,0,,
5700,note_on,0,0,4,,,,,,,,,0,,,71,60
5700,note_on,0,0,1,,,,,,,,,0,,,76,0
5760,note_on,60,0,4,,,,,,,,,0,,,71,0
5760,note_on,60,0,1,,,,,,,,,0,,,56,100
5760,set_tempo,180,1,0,,,,,,714286,,,,,,,
5760,note_on,0,0,1,,,,,,,,,0,,,64,100
5790,note_on,30,0,1,,,,,,,,,0,,,64,0
5790,note_on,0,0,1,,,,,,,,,0,,,68,100
5790,note_on,0,0,1,,,,,,,,,0,,,64,100
5790,note_on,0,0,1,,,,,,,,,0,,,56,0
5820,note_on,0,0,1,,,,,,,,,0,,,68,0
5820,note_on,0,0,1,,,,,,,,,0,,,66,110
5820,note_on,0,0,1,,,,,,,,,0,,,59,110
5820,note_on,30,0,1,,,,,,,,,0,,,64,0
5880,note_on,0,0,1,,,,,,,,,0,,,68,100
5880,note_on,60,0,1,,,,,,,,,0,,,66,0
5880,note_on,0,0,1,,,,,,,,,0,,,59,0
5880,note_on,0,0,1,,,,,,,,,0,,,64,100
5910,note_on,0,0,1,,,,,,,,,0,,,64,0
5910,note_on,0,0,1,,,,,,,,,0,,,66,100
5910,note_on,0,0,1,,,,,,,,,0,,,69,100
5910,note_on,30,0,1,,,,,,,,,0,,,68,0
5940,note_on,0,0,1,,,,,,,,,0,,,68,110
5940,note_on,0,0,1,,,,,,,,,0,,,69,0
5940,note_on,0,0,1,,,,,,,,,0,,,71,110
5940,note_on,30,0,1,,,,,,,,,0,,,66,0
6000,note_on,0,0,1,,,,,,,,,0,,,69,100
6000,note_on,0,0,1,,,,,,,,,0,,,71,0
6000,note_on,0,0,1,,,,,,,,,0,,,73,100
6000,note_on,60,0,1,,,,,,,,,0,,,68,0
6030,note_on,0,0,1,,,,,,,,,0,,,71,100
6030,note_on,30,0,1,,,,,,,,,0,,,69,0
6030,note_on,0,0,1,,,,,,,,,0,,,68,100
6030,note_on,0,0,1,,,,,,,,,0,,,73,0
6060,note_on,0,0,1,,,,,,,,,0,,,66,110
6060,note_on,0,0,1,,,,,,,,,0,,,68,0
6060,note_on,0,0,1,,,,,,,,,0,,,69,110
6060,note_on,30,0,1,,,,,,,,,0,,,71,0
6120,note_on,60,0,1,,,,,,,,,0,,,69,0
6120,note_on,0,0,1,,,,,,,,,0,,,66,0
6120,note_on,0,0,1,,,,,,,,,0,,,68,100
6120,note_on,0,0,1,,,,,,,,,0,,,64,100
6150,note_on,0,0,1,,,,,,,,,0,,,68,0
6150,note_on,0,0,1,,,,,,,,,0,,,66,100
6150,note_on,0,0,1,,,,,,,,,0,,,69,100
6150,note_on,30,0,1,,,,,,,,,0,,,64,0
6180,note_on,0,0,1,,,,,,,,,0,,,59,110
6180,note_on,0,0,1,,,,,,,,,0,,,66,0
6180,note_on,0,0,1,,,,,,,,,0,,,66,110
6180,note_on,30,0,1,,,,,,,,,0,,,69,0
6240,note_on,0,0,1,,,,,,,,,0,,,56,100
6240,note_on,0,0,1,,,,,,,,,0,,,59,0
6240,note_on,0,0,1,,,,,,,,,0,,,64,100
6240,note_on,60,0,1,,,,,,,,,0,,,66,0
6270,note_on,0,0,1,,,,,,,,,0,,,56,0
6270,note_on,30,0,1,,,,,,,,,0,,,64,0
6270,note_on,0,0,1,,,,,,,,,0,,,64,100
6270,note_on,0,0,1,,,,,,,,,0,,,68,100
6300,note_on,30,0,1,,,,,,,,,0,,,64,0
6300,note_on,0,0,1,,,,,,,,,0,,,59,110
6300,note_on,0,0,1,,,,,,,,,0,,,68,0
6300,note_on,0,0,1,,,,,,,,,0,,,66,110
6360,note_on,0,0,1,,,,,,,,,0,,,59,0
6360,note_on,60,0,1,,,,,,,,,0,,,66,0
6360,note_on,0,0,1,,,,,,,,,0,,,68,100
6360,note_on,0,0,1,,,,,,,,,0,,,64,100
6390,note_on,0,0,1,,,,,,,,,0,,,69,100
6390,note_on,0,0,1,,,,,,,,,0,,,68,0
6390,note_on,0,0,1,,,,,,,,,0,,,66,100
6390,note_on,30,0,1,,,,,,,,,0,,,64,0
6420,note_on,0,0,1,,,,,,,,,0,,,69,0
6420,note_on,0,0,1,,,,,,,,,0,,,68,110
6420,note_on,30,0,1,,,,,,,,,0,,,66,0
6420,set_tempo,660,1,0,,,,,,714371,,,,,,,
6420,note_on,0,0,1,,,,,,,,,0,,,71,110
6428,set_tempo,8,1,0,,,,,,716932,,,,,,,
6432,set_tempo,4,1,0,,,,,,719511,,,,,,,
6437,set_tempo,5,1,0,,,,,,722109,,,,,,,
6441,set_tempo,4,1,0,,,,,,724725,,,,,,,
6445,set_tempo,4,1,0,,,,,,727361,,,,,,,
6450,set_tempo,5,1,0,,,,,,730016,,,,,,,
6454,set_tempo,4,1,0,,,,,,732690,,,,,,,
6458,set_tempo,4,1,0,,,,,,735384,,,,,,,
6467,set_tempo,9,1,0,,,,,,738098,,,,,,,
6471,set_tempo,4,1,0,,,,,,740832,,,,,,,
6475,set_tempo,4,1,0,,,,,,743587,,,,,,,
6480,note_on,0,0,1,,,,,,,,,0,,,73,100
6480,note_on,0,0,1,,,,,,,,,0,,,71,0
6480,note_on,0,0,1,,,,,,,,,0,,,69,100
6480,set_tempo,5,1,0,,,,,,746361,,,,,,,
6480,note_on,60,0,1,,,,,,,,,0,,,68,0
6484,set_tempo,4,1,0,,,,,,749157,,,,,,,
6488,set_tempo,4,1,0,,,,,,751974,,,,,,,
6492,set_tempo,4,1,0,,,,,,754812,,,,,,,
6497,set_tempo,5,1,0,,,,,,757671,,,,,,,
6505,set_tempo,8,1,0,,,,,,760553,,,,,,,
6510,note_on,30,0,1,,,,,,,,,0,,,69,0
6510,note_on,0,0,1,,,,,,,,,0,,,71,100
6510,note_on,0,0,1,,,,,,,,,0,,,73,0
6510,note_on,0,0,1,,,,,,,,,0,,,68,100
6510,set_tempo,5,1,0,,,,,,763456,,,,,,,
6514,set_tempo,4,1,0,,,,,,766381,,,,,,,
6518,set_tempo,4,1,0,,,,,,769329,,,,,,,
6522,set_tempo,4,1,0,,,,,,772300,,,,,,,
6527,set_tempo,5,1,0,,,,,,775294,,,,,,,
6531,set_tempo,4,1,0,,,,,,778311,,,,,,,
6535,set_tempo,4,1,0,,,,,,781352,,,,,,,
6540,note_on,0,0,1,,,,,,,,,0,,,69,110
6540,note_on,0,0,1,,,,,,,,,0,,,68,0
6540,note_on,30,0,1,,,,,,,,,0,,,71,0
6540,note_on,0,0,1,,,,,,,,,0,,,66,110
6544,set_tempo,9,1,0,,,,,,784416,,,,,,,
6548,set_tempo,4,1,0,,,,,,787505,,,,,,,
6552,set_tempo,4,1,0,,,,,,790618,,,,,,,
6557,set_tempo,5,1,0,,,,,,793756,,,,,,,
6561,set_tempo,4,1,0,,,,,,796919,,,,,,,
6565,set_tempo,4,1,0,,,,,,800107,,,,,,,
6570,set_tempo,5,1,0,,,,,,803320,,,,,,,
6574,set_tempo,4,1,0,,,,,,806560,,,,,,,
6582,set_tempo,8,1,0,,,,,,809826,,,,,,,
6587,set_tempo,5,1,0,,,,,,813118,,,,,,,
6591,set_tempo,4,1,0,,,,,,816438,,,,,,,
6595,set_tempo,4,1,0,,,,,,819784,,,,,,,
6600,set_tempo,5,1,0,,,,,,823158,,,,,,,
6600,note_on,60,0,1,,,,,,,,,0,,,66,0
6600,note_on,0,0,1,,,,,,,,,0,,,69,0
6600,note_on,0,0,1,,,,,,,,,0,,,64,100
6600,note_on,0,0,1,,,,,,,,,0,,,68,100
6604,set_tempo,4,1,0,,,,,,826560,,,,,,,
6608,set_tempo,4,1,0,,,,,,829990,,,,,,,
6612,set_tempo,4,1,0,,,,,,833449,,,,,,,
6621,set_tempo,9,1,0,,,,,,836937,,,,,,,
6625,set_tempo,4,1,0,,,,,,840454,,,,,,,
6630,note_on,30,0,1,,,,,,,,,0,,,64,0
6630,note_on,0,0,1,,,,,,,,,0,,,66,100
6630,set_tempo,5,1,0,,,,,,844001,,,,,,,
6630,note_on,0,0,1,,,,,,,,,0,,,69,100
6630,note_on,0,0,1,,,,,,,,,0,,,68,0
6634,set_tempo,4,1,0,,,,,,847577,,,,,,,
6638,set_tempo,4,1,0,,,,,,851185,,,,,,,
6642,set_tempo,4,1,0,,,,,,854823,,,,,,,
6647,set_tempo,5,1,0,,,,,,858492,,,,,,,
6651,set_tempo,4,1,0,,,,,,862193,,,,,,,
6655,set_tempo,4,1,0,,,,,,865926,,,,,,,
6660,note_on,30,0,1,,,,,,,,,0,,,66,0
6660,note_on,0,0,1,,,,,,,,,0,,,59,110
6660,note_on,0,0,1,,,,,,,,,0,,,66,110
6660,set_tempo,5,1,0,,,,,,869565,,,,,,,
6660,note_on,0,0,1,,,,,,,,,0,,,69,0
6720,note_on,60,0,1,,,,,,,,,0,,,66,0
6720,note_on,0,0,1,,,,,,,,,0,,,59,0
6720,note_on,0,0,1,,,,,,,,,0,,,95,60
6720,set_tempo,60,1,0,,,,,,714286,,,,,,,
6720,note_on,0,0,1,,,,,,,,,0,,,92,60
6750,note_on,0,0,1,,,,,,,,,0,,,90,60
6750,note_on,0,0,1,,,,,,,,,0,,,93,60
6750,note_on,30,0,1,,,,,,,,,0,,,92,0
6750,note_on,0,0,1,,,,,,,,,0,,,95,0
6780,note_on,0,0,4,,,,,,,,,0,,,52,60
6780,note_on,0,0,1,,,,,,,,,0,,,88,70
6780,note_on,0,0,1,,,,,,,,,0,,,90,0
6780,note_on,0,0,1,,,,,,,,,0,,,92,70
6780,note_on,30,0,1,,,,,,,,,0,,,93,0
6780,note_on,1020,0,4,,,,,,,,,0,,,59,60
6780,control_change,1080,0,5,,,,,,,,,0,64,127,,
6810,note_on,30,0,4,,,,,,,,,0,,,59,0
6810,note_on,0,0,4,,,,,,,,,0,,,64,60
6840,note_on,30,0,4,,,,,,,,,0,,,64,0
6840,note_on,0,0,1,,,,,,,,,0,,,92,60
6840,note_on,0,0,1,,,,,,,,,0,,,88,60
6840,note_on,0,0,1,,,,,,,,,0,,,92,0
6840,note_on,60,0,1,,,,,,,,,0,,,88,0
6840,note_on,1320,0,3,,,,,,,,,0,,,71,60
6870,note_on,30,0,1,,,,,,,,,0,,,88,0
6870,note_on,0,0,1,,,,,,,,,0,,,83,60
6870,note_on,0,0,1,,,,,,,,,0,,,90,60
6870,note_on,0,0,1,,,,,,,,,0,,,92,0
6885,control_change,105,0,5,,,,,,,,,0,64,0,,
6900,note_on,0,0,3,,,,,,,,,0,,,71,60
6900,note_on,0,0,3,,,,,,,,,0,,,64,60
6900,note_on,30,0,1,,,,,,,,,0,,,90,0
6900,note_on,60,0,4,,,,,,,,,0,,,52,0
6900,note_on,60,0,3,,,,,,,,,0,,,71,0
6900,note_on,0,0,1,,,,,,,,,0,,,88,70
6900,control_change,15,0,5,,,,,,,,,0,64,127,,
6900,note_on,0,0,1,,,,,,,,,0,,,80,70
6900,note_on,0,0,1,,,,,,,,,0,,,83,0
6930,note_on,30,0,3,,,,,,,,,0,,,64,0
6930,note_on,0,0,3,,,,,,,,,0,,,59,60
6960,note_on,60,0,1,,,,,,,,,0,,,80,0
6960,note_on,60,0,4,,,,,,,,,0,,,52,60
6960,note_on,0,0,1,,,,,,,,,0,,,88,0
6960,note_on,30,0,3,,,,,,,,,0,,,59,0
6960,note_on,0,0,1,,,,,,,,,0,,,83,60
6960,note_on,0,0,1,,,,,,,,,0,,,80,60
6990,note_on,30,0,1,,,,,,,,,0,,,80,0
6990,note_on,0,0,1,,,,,,,,,0,,,83,0
6990,note_on,0,0,1,,,,,,,,,0,,,81,60
6990,note_on,0,0,1,,,,,,,,,0,,,78,60
7005,control_change,105,0,5,,,,,,,,,0,64,0,,
7020,note_on,30,0,1,,,,,,,,,0,,,81,0
7020,note_on,0,0,1,,,,,,,,,0,,,76,70
7020,control_change,15,0,5,,,,,,,,,0,64,127,,
7020,note_on,0,0,1,,,,,,,,,0,,,80,70
7020,note_on,60,0,4,,,,,,,,,0,,,52,0
7020,note_on,60,0,3,,,,,,,,,0,,,71,0
7020,note_on,0,0,4,,,,,,,,,0,,,52,60
7020,note_on,0,0,4,,,,,,,,,0,,,59,60
7020,note_on,0,0,1,,,,,,,,,0,,,78,0
7050,note_on,0,0,4,,,,,,,,,0,,,64,60
7050,note_on,30,0,4,,,,,,,,,0,,,59,0
7080,note_on,0,0,1,,,,,,,,,0,,,76,60
7080,note_on,0,0,1,,,,,,,,,0,,,80,0
7080,note_on,0,0,1,,,,,,,,,0,,,80,60
7080,note_on,60,0,1,,,,,,,,,0,,,76,0
7080,note_on,60,0,3,,,,,,,,,0,,,71,60
7080,note_on,30,0,4,,,,,,,,,0,,,64,0
7110,note_on,0,0,1,,,,,,,,,0,,,71,60
7110,note_on,0,0,1,,,,,,,,,0,,,78,60
7110,note_on,0,0,1,,,,,,,,,0,,,80,0
7110,note_on,30,0,1,,,,,,,,,0,,,76,0
7125,control_change,105,0,5,,,,,,,,,0,64,0,,
7140,note_on,0,0,3,,,,,,,,,0,,,64,60
7140,note_on,0,0,1,,,,,,,,,0,,,76,70
7140,note_on,0,0,1,,,,,,,,,0,,,71,0
7140,note_on,0,0,1,,,,,,,,,0,,,68,70
7140,note_on,30,0,1,,,,,,,,,0,,,78,0
7140,note_on,0,0,3,,,,,,,,,0,,,71,60
7140,control_change,15,0,5,,,,,,,,,0,64,127,,
7140,note_on,60,0,4,,,,,,,,,0,,,52,0
7140,note_on,60,0,3,,,,,,,,,0,,,71,0
7170,note_on,30,0,3,,,,,,,,,0,,,64,0
7170,note_on,0,0,3,,,,,,,,,0,,,59,60
7200,note_on,0,0,1,,,,,,,,,0,,,68,0
7200,note_on,60,0,4,,,,,,,,,0,,,52,60
7200,note_on,0,0,1,,,,,,,,,0,,,56,60
7200,note_on,0,0,1,,,,,,,,,0,,,64,60
7200,note_on,60,0,1,,,,,,,,,0,,,76,0
7200,note_on,30,0,3,,,,,,,,,0,,,59,0
7230,note_on,30,0,1,,,,,,,,,0,,,64,0
7230,note_on,0,0,1,,,,,,,,,0,,,59,60
7230,note_on,0,0,1,,,,,,,,,0,,,66,60
7230,note_on,0,0,1,,,,,,,,,0,,,56,0
7245,control_change,105,0,5,,,,,,,,,0,64,0,,
7260,set_tempo,540,1,0,,,,,,714371,,,,,,,
7260,note_on,30,0,1,,,,,,,,,0,,,59,0
7260,note_on,60,0,4,,,,,,,,,0,,,52,0
7260,note_on,0,0,1,,,,,,,,,0,,,66,0
7260,note_on,0,0,1,,,,,,,,,0,,,64,70
7260,note_on,60,0,3,,,,,,,,,0,,,71,0
7260,note_on,0,0,1,,,,,,,,,0,,,68,70
7268,set_tempo,8,1,0,,,,,,716932,,,,,,,
7272,set_tempo,4,1,0,,,,,,719511,,,,,,,
7277,set_tempo,5,1,0,,,,,,722109,,,,,,,
7281,set_tempo,4,1,0,,,,,,724725,,,,,,,
7285,set_tempo,4,1,0,,,,,,727361,,,,,,,
7290,set_tempo,5,1,0,,,,,,730016,,,,,,,
7294,set_tempo,4,1,0,,,,,,732690,,,,,,,
7298,set_tempo,4,1,0,,,,,,735384,,,,,,,
7307,set_tempo,9,1,0,,,,,,738098,,,,,,,
7311,set_tempo,4,1,0,,,,,,740832,,,,,,,
7315,set_tempo,4,1,0,,,,,,743587,,,,,,,
7320,note_on,0,0,1,,,,,,,,,0,,,66,60
7320,set_tempo,5,1,0,,,,,,746361,,,,,,,
7320,note_on,0,0,1,,,,,,,,,0,,,69,60
7320,note_on,0,0,1,,,,,,,,,0,,,68,0
7320,note_on,60,0,1,,,,,,,,,0,,,64,0
7324,set_tempo,4,1,0,,,,,,749157,,,,,,,
7328,set_tempo,4,1,0,,,,,,751974,,,,,,,
7332,set_tempo,4,1,0,,,,,,754812,,,,,,,
7337,set_tempo,5,1,0,,,,,,757671,,,,,,,
7345,set_tempo,8,1,0,,,,,,760553,,,,,,,
7350,note_on,0,0,1,,,,,,,,,0,,,69,0
7350,note_on,0,0,1,,,,,,,,,0,,,68,60
7350,note_on,0,0,1,,,,,,,,,0,,,64,60
7350,set_tempo,5,1,0,,,,,,763456,,,,,,,
7350,note_on,30,0,1,,,,,,,,,0,,,66,0
7354,set_tempo,4,1,0,,,,,,766381,,,,,,,
7358,set_tempo,4,1,0,,,,,,769329,,,,,,,
7362,set_tempo,4,1,0,,,,,,772300,,,,,,,
7367,set_tempo,5,1,0,,,,,,775294,,,,,,,
7371,set_tempo,4,1,0,,,,,,778311,,,,,,,
7375,set_tempo,4,1,0,,,,,,781352,,,,,,,
7380,note_on,0,0,1,,,,,,,,,0,,,64,0
7380,note_on,120,0,4,,,,,,,,,0,,,66,70
7380,note_on,30,0,1,,,,,,,,,0,,,68,0
7380,note_on,0,0,4,,,,,,,,,0,,,59,70
7384,set_tempo,9,1,0,,,,,,784416,,,,,,,
7388,set_tempo,4,1,0,,,,,,787505,,,,,,,
7392,set_tempo,4,1,0,,,,,,790618,,,,,,,
7397,set_tempo,5,1,0,,,,,,793756,,,,,,,
7401,set_tempo,4,1,0,,,,,,796919,,,,,,,
7405,set_tempo,4,1,0,,,,,,800107,,,,,,,
7410,set_tempo,5,1,0,,,,,,803320,,,,,,,
7414,set_tempo,4,1,0,,,,,,806560,,,,,,,
7422,set_tempo,8,1,0,,,,,,809826,,,,,,,
7427,set_tempo,5,1,0,,,,,,813118,,,,,,,
7431,set_tempo,4,1,0,,,,,,816438,,,,,,,
7435,set_tempo,4,1,0,,,,,,819784,,,,,,,
7440,note_on,0,0,1,,,,,,,,,0,,,64,60
7440,note_on,60,0,4,,,,,,,,,0,,,59,0
7440,note_on,60,0,1,,,,,,,,,0,,,68,60
7440,set_tempo,5,1,0,,,,,,823158,,,,,,,
7440,note_on,0,0,4,,,,,,,,,0,,,66,0
7444,set_tempo,4,1,0,,,,,,826560,,,,,,,
7448,set_tempo,4,1,0,,,,,,829990,,,,,,,
7452,set_tempo,4,1,0,,,,,,833449,,,,,,,
7461,set_tempo,9,1,0,,,,,,836937,,,,,,,
7465,set_tempo,4,1,0,,,,,,840454,,,,,,,
7470,note_on,0,0,1,,,,,,,,,0,,,66,60
7470,note_on,0,0,1,,,,,,,,,0,,,68,0
7470,note_on,0,0,1,,,,,,,,,0,,,59,60
7470,note_on,30,0,1,,,,,,,,,0,,,64,0
7470,set_tempo,5,1,0,,,,,,844001,,,,,,,
7474,set_tempo,4,1,0,,,,,,847577,,,,,,,
7478,set_tempo,4,1,0,,,,,,851185,,,,,,,
7482,set_tempo,4,1,0,,,,,,854823,,,,,,,
7487,set_tempo,5,1,0,,,,,,858492,,,,,,,
7491,set_tempo,4,1,0,,,,,,862193,,,,,,,
7495,set_tempo,4,1,0,,,,,,865926,,,,,,,
7500,set_tempo,5,1,0,,,,,,869565,,,,,,,
7500,note_on,0,0,1,,,,,,,,,0,,,59,0
7500,note_on,30,0,1,,,,,,,,,0,,,66,0
7500,note_on,60,0,4,,,,,,,,,0,,,64,70
7500,note_on,0,0,4,,,,,,,,,0,,,56,70
7620,note_on,120,0,4,,,,,,,,,0,,,56,0
7620,note_on,0,0,4,,,,,,,,,0,,,64,0
7680,note_on,0,0,1,,,,,,,,,0,,,71,100
7680,set_tempo,180,1,0,,,,,,714286,,,,,,,
7680,note_on,180,0,1,,,,,,,,,0,,,59,100
7740,key_signature,60,1,0,,,,,G,,,,,,,,
7740,note_on,0,0,1,,,,,,,,,0,,,67,127
7740,marker,0,1,0,,,,,,,,,,,,,
7740,note_on,0,0,4,,,,,,,,,0,,,47,110
7740,note_on,60,0,1,,,,,,,,,0,,,71,0
7740,note_on,0,0,1,,,,,,,,,0,,,59,0
7740,note_on,0,0,1,,,,,,,,,0,,,59,100
7740,note_on,0,0,1,,,,,,,,,0,,,64,127
7740,note_on,0,0,1,,,,,,,,,0,,,71,127
7740,note_on,120,0,4,,,,,,,,,0,,,40,110
7755,note_on,0,0,4,,,,,,,,,0,,,40,0
7755,note_on,15,0,4,,,,,,,,,0,,,47,0
7800,note_on,60,0,1,,,,,,,,,0,,,64,0
7800,note_on,0,0,1,,,,,,,,,0,,,71,0
7800,note_on,45,0,4,,,,,,,,,0,,,57,100
7800,note_on,0,0,1,,,,,,,,,0,,,59,0
7800,note_on,0,0,1,,,,,,,,,0,,,67,0
7815,note_on,15,0,4,,,,,,,,,0,,,57,0
7830,note_on,30,0,1,,,,,,,,,0,,,55,100
7845,note_on,15,0,1,,,,,,,,,0,,,55,0
7860,note_on,15,0,1,,,,,,,,,0,,,57,100
7860,note_on,45,0,4,,,,,,,,,0,,,39,110
7860,note_on,0,0,4,,,,,,,,,0,,,47,110
7860,note_on,0,0,1,,,,,,,,,0,,,69,127
7860,note_on,0,0,1,,,,,,,,,0,,,66,127
7875,note_on,0,0,4,,,,,,,,,0,,,39,0
7875,note_on,15,0,4,,,,,,,,,0,,,47,0
7920,note_on,0,0,1,,,,,,,,,0,,,69,0
7920,note_on,0,0,1,,,,,,,,,0,,,57,0
7920,note_on,60,0,1,,,,,,,,,0,,,66,0
7920,note_on,45,0,4,,,,,,,,,0,,,55,100
7935,note_on,15,0,4,,,,,,,,,0,,,55,0
7950,note_on,30,0,1,,,,,,,,,0,,,54,100
7965,note_on,15,0,1,,,,,,,,,0,,,54,0
7980,note_on,0,0,4,,,,,,,,,0,,,40,110
7980,note_on,0,0,2,,,,,,,,,0,,,64,127
7980,note_on,7980,0,2,,,,,,,,,0,,,55,100
7980,note_on,0,0,2,,,,,,,,,0,,,67,127
7980,note_on,45,0,4,,,,,,,,,0,,,47,110
7995,note_on,15,0,4,,,,,,,,,0,,,40,0
7995,note_on,0,0,4,,,,,,,,,0,,,47,0
8040,note_on,45,0,4,,,,,,,,,0,,,54,100
8040,note_on,60,0,2,,,,,,,,,0,,,64,0
8040,note_on,0,0,2,,,,,,,,,0,,,55,0
8040,note_on,0,0,2,,,,,,,,,0,,,67,0
8055,note_on,15,0,4,,,,,,,,,0,,,54,0
8070,note_on,30,0,2,,,,,,,,,0,,,52,100
8085,note_on,15,0,2,,,,,,,,,0,,,52,0
8100,note_on,45,0,4,,,,,,,,,0,,,36,110
8100,note_on,0,0,2,,,,,,,,,0,,,64,127
8100,note_on,15,0,2,,,,,,,,,0,,,55,100
8100,note_on,0,0,4,,,,,,,,,0,,,48,110
8100,note_on,0,0,2,,,,,,,,,0,,,67,127
8115,note_on,0,0,4,,,,,,,,,0,,,36,0
8115,note_on,15,0,4,,,,,,,,,0,,,48,0
8160,note_on,0,0,2,,,,,,,,,0,,,55,0
8160,note_on,60,0,2,,,,,,,,,0,,,64,0
8160,note_on,45,0,4,,,,,,,,,0,,,54,100
8160,note_on,0,0,2,,,,,,,,,0,,,67,0
8175,note_on,15,0,4,,,,,,,,,0,,,54,0
8190,note_on,30,0,2,,,,,,,,,0,,,52,100
8205,note_on,15,0,2,,,,,,,,,0,,,52,0
8220,note_on,0,0,4,,,,,,,,,0,,,47,110
8220,note_on,15,0,2,,,,,,,,,0,,,55,100
8220,note_on,0,0,2,,,,,,,,,0,,,67,127
8220,note_on,0,0,2,,,,,,,,,0,,,59,127
8220,note_on,0,0,2,,,,,,,,,0,,,64,127
8220,note_on,45,0,4,,,,,,,,,0,,,35,110
8235,note_on,0,0,4,,,,,,,,,0,,,35,0
8235,note_on,15,0,4,,,,,,,,,0,,,47,0
8280,note_on,0,0,2,,,,,,,,,0,,,64,0
8280,note_on,0,0,2,,,,,,,,,0,,,55,0
8280,note_on,45,0,4,,,,,,,,,0,,,54,100
8280,note_on,60,0,2,,,,,,,,,0,,,59,0
8280,note_on,0,0,2,,,,,,,,,0,,,67,0
8295,note_on,15,0,4,,,,,,,,,0,,,54,0
8310,note_on,30,0,2,,,,,,,,,0,,,52,100
8325,note_on,15,0,2,,,,,,,,,0,,,52,0
8340,note_on,15,0,2,,,,,,,,,0,,,52,100
8340,note_on,0,0,2,,,,,,,,,0,,,64,127
8340,note_on,0,0,4,,,,,,,,,0,,,46,110
8340,note_on,0,0,2,,,,,,,,,0,,,55,127
8340,note_on,0,0,2,,,,,,,,,0,,,61,127
8340,note_on,45,0,4,,,,,,,,,0,,,34,110
8355,note_on,15,0,4,,,,,,,,,0,,,46,0
8355,note_on,0,0,4,,,,,,,,,0,,,34,0
8400,note_on,0,0,2,,,,,,,,,0,,,64,0
8400,note_on,60,0,2,,,,,,,,,0,,,55,0
8400,note_on,0,0,2,,,,,,,,,0,,,61,0
8400,note_on,45,0,4,,,,,,,,,0,,,51,100
8400,note_on,0,0,2,,,,,,,,,0,,,52,0
8415,note_on,15,0,4,,,,,,,,,0,,,51,0
8430,note_on,30,0,2,,,,,,,,,0,,,52,100
8445,note_on,15,0,2,,,,,,,,,0,,,52,0
8460,note_on,0,0,4,,,,,,,,,0,,,47,120
8460,note_on,0,0,2,,,,,,,,,0,,,64,120
8460,note_on,0,0,2,,,,,,,,,0,,,59,120
8460,note_on,0,0,2,,,,,,,,,0,,,55,120
8460,note_on,15,0,2,,,,,,,,,0,,,67,120
8460,note_on,45,0,4,,,,,,,,,0,,,35,120
8580,note_on,0,0,2,,,,,,,,,0,,,64,0
8580,note_on,0,0,2,,,,,,,,,0,,,63,100
8580,note_on,0,0,2,,,,,,,,,0,,,66,100
8580,note_on,0,0,2,,,,,,,,,0,,,67,0
8580,note_on,120,0,2,,,,,,,,,0,,,55,0
8580,note_on,0,0,2,,,,,,,,,0,,,59,0
8580,note_on,120,0,4,,,,,,,,,0,,,47,0
8580,note_on,0,0,2,,,,,,,,,0,,,54,100
8580,note_on,0,0,4,,,,,,,,,0,,,35,0
8580,note_on,0,0,4,,,,,,,,,0,,,35,110
8580,note_on,0,0,4,,,,,,,,,0,,,47,110
8595,note_on,0,0,2,,,,,,,,,0,,,66,0
8595,note_on,15,0,2,,,,,,,,,0,,,54,0
8595,note_on,15,0,4,,,,,,,,,0,,,47,0
8595,note_on,0,0,4,,,,,,,,,0,,,35,0
8595,note_on,0,0,2,,,,,,,,,0,,,63,0
8640,note_on,45,0,2,,,,,,,,,0,,,62,100
8640,note_on,0,0,2,,,,,,,,,0,,,50,100
8700,note_on,105,0,4,,,,,,,,,0,,,31,110
8700,note_on,0,0,1,,,,,,,,,0,,,67,127
8700,note_on,0,0,2,,,,,,,,,0,,,62,0
8700,note_on,735,0,1,,,,,,,,,0,,,55,100
8700,note_on,0,0,1,,,,,,,,,0,,,62,127
8700,note_on,60,0,2,,,,,,,,,0,,,50,0
8700,note_on,0,0,4,,,,,,,,,0,,,43,110
8700,note_on,0,0,1,,,,,,,,,0,,,59,127
8715,note_on,0,0,4,,,,,,,,,0,,,31,0
8715,note_on,15,0,4,,,,,,,,,0,,,43,0
8760,note_on,0,0,1,,,,,,,,,0,,,55,0
8760,note_on,60,0,1,,,,,,,,,0,,,67,0
8760,note_on,45,0,4,,,,,,,,,0,,,54,100
8760,note_on,0,0,1,,,,,,,,,0,,,62,0
8760,note_on,0,0,1,,,,,,,,,0,,,59,0
8775,note_on,15,0,4,,,,,,,,,0,,,54,0
8790,note_on,30,0,1,,,,,,,,,0,,,55,100
8805,note_on,15,0,1,,,,,,,,,0,,,55,0
8820,note_on,15,0,1,,,,,,,,,0,,,57,100
8820,note_on,0,0,4,,,,,,,,,0,,,50,110
8820,note_on,0,0,1,,,,,,,,,0,,,69,127
8820,note_on,45,0,4,,,,,,,,,0,,,38,110
8820,note_on,0,0,1,,,,,,,,,0,,,62,127
8820,note_on,0,0,1,,,,,,,,,0,,,66,127
8835,note_on,0,0,4,,,,,,,,,0,,,38,0
8835,note_on,15,0,4,,,,,,,,,0,,,50,0
8880,note_on,60,0,1,,,,,,,,,0,,,62,0
8880,note_on,45,0,4,,,,,,,,,0,,,55,100
8880,note_on,0,0,1,,,,,,,,,0,,,57,0
8880,note_on,0,0,1,,,,,,,,,0,,,66,0
8880,note_on,0,0,1,,,,,,,,,0,,,69,0
8895,note_on,15,0,4,,,,,,,,,0,,,55,0
8910,note_on,30,0,1,,,,,,,,,0,,,57,100
8925,note_on,15,0,1,,,,,,,,,0,,,57,0
8940,note_on,0,0,1,,,,,,,,,0,,,62,127
8940,note_on,0,0,1,,,,,,,,,0,,,67,127
8940,note_on,15,0,1,,,,,,,,,0,,,59,100
8940,note_on,45,0,4,,,,,,,,,0,,,43,110
8940,note_on,0,0,1,,,,,,,,,0,,,71,127
8940,note_on,0,0,4,,,,,,,,,0,,,55,110
8955,note_on,15,0,4,,,,,,,,,0,,,55,0
8955,note_on,0,0,4,,,,,,,,,0,,,43,0
9000,note_on,60,0,1,,,,,,,,,0,,,62,0
9000,note_on,45,0,4,,,,,,,,,0,,,57,100
9000,note_on,0,0,1,,,,,,,,,0,,,71,0
9000,note_on,0,0,1,,,,,,,,,0,,,67,0
9000,note_on,0,0,1,,,,,,,,,0,,,59,0
9015,note_on,15,0,4,,,,,,,,,0,,,57,0
9030,note_on,30,0,1,,,,,,,,,0,,,59,100
9045,note_on,15,0,1,,,,,,,,,0,,,59,0
9060,note_on,0,0,4,,,,,,,,,0,,,48,110
9060,note_on,15,0,1,,,,,,,,,0,,,60,100
9060,note_on,0,0,1,,,,,,,,,0,,,72,127
9060,note_on,0,0,1,,,,,,,,,0,,,67,127
9060,note_on,0,0,1,,,,,,,,,0,,,64,127
9060,note_on,45,0,4,,,,,,,,,0,,,36,110
9075,note_on,0,0,4,,,,,,,,,0,,,36,0
9075,note_on,15,0,4,,,,,,,,,0,,,48,0
9120,note_on,60,0,1,,,,,,,,,0,,,64,0
9120,note_on,45,0,4,,,,,,,,,0,,,62,100
9120,note_on,0,0,1,,,,,,,,,0,,,67,0
9120,note_on,0,0,1,,,,,,,,,0,,,60,0
9120,note_on,0,0,1,,,,,,,,,0,,,72,0
9135,note_on,15,0,4,,,,,,,,,0,,,62,0
9150,note_on,30,0,1,,,,,,,,,0,,,64,100
9165,note_on,15,0,1,,,,,,,,,0,,,64,0
9180,note_on,0,0,1,,,,,,,,,0,,,67,127
9180,note_on,0,0,1,,,,,,,,,0,,,62,127
9180,note_on,0,0,4,,,,,,,,,0,,,50,110
9180,note_on,0,0,1,,,,,,,,,0,,,59,127
9180,note_on,15,0,1,,,,,,,,,0,,,55,100
9180,note_on,45,0,4,,,,,,,,,0,,,38,110
9195,note_on,0,0,4,,,,,,,,,0,,,38,0
9195,note_on,15,0,4,,,,,,,,,0,,,50,0
9240,note_on,45,0,4,,,,,,,,,0,,,57,100
9240,note_on,60,0,1,,,,,,,,,0,,,59,0
9240,note_on,0,0,1,,,,,,,,,0,,,55,0
9240,note_on,0,0,1,,,,,,,,,0,,,62,0
9240,note_on,0,0,1,,,,,,,,,0,,,67,0
9255,note_on,15,0,4,,,,,,,,,0,,,57,0
9270,note_on,30,0,1,,,,,,,,,0,,,59,100
9285,note_on,15,0,1,,,,,,,,,0,,,59,0
9300,note_on,0,0,1,,,,,,,,,0,,,69,127
9300,note_on,0,0,1,,,,,,,,,0,,,66,127
9300,note_on,0,0,4,,,,,,,,,0,,,38,110
9300,note_on,45,0,4,,,,,,,,,0,,,50,110
9300,note_on,0,0,1,,,,,,,,,0,,,60,127
9300,note_on,15,0,1,,,,,,,,,0,,,57,100
9315,note_on,0,0,4,,,,,,,,,0,,,50,0
9315,note_on,15,0,4,,,,,,,,,0,,,38,0
9360,note_on,0,0,1,,,,,,,,,0,,,57,0
9360,note_on,0,0,1,,,,,,,,,0,,,69,0
9360,note_on,45,0,4,,,,,,,,,0,,,62,100
9360,note_on,60,0,1,,,,,,,,,0,,,60,0
9360,note_on,0,0,1,,,,,,,,,0,,,66,0
9375,note_on,15,0,4,,,,,,,,,0,,,62,0
9390,note_on,30,0,1,,,,,,,,,0,,,54,100
9405,note_on,15,0,1,,,,,,,,,0,,,54,0
9420,note_on,45,0,4,,,,,,,,,0,,,31,100
9420,note_on,0,0,4,,,,,,,,,0,,,43,100
9420,note_on,0,0,1,,,,,,,,,0,,,59,100
9420,note_on,0,0,1,,,,,,,,,0,,,62,100
9420,note_on,0,0,1,,,,,,,,,0,,,67,100
9420,note_on,15,0,1,,,,,,,,,0,,,55,100
9540,note_on,0,0,1,,,,,,,,,0,,,55,0
9540,note_on,0,0,1,,,,,,,,,0,,,59,0
9540,note_on,0,0,1,,,,,,,,,0,,,62,0
9540,note_on,120,0,1,,,,,,,,,0,,,67,0
9540,note_on,0,0,4,,,,,,,,,0,,,31,0
9540,note_on,120,0,4,,,,,,,,,0,,,43,0
9600,note_on,0,0,1,,,,,,,,,0,,,59,100
9600,note_on,60,0,1,,,,,,,,,0,,,71,100
9660,note_on,0,0,1,,,,,,,,,0,,,66,127
9660,note_on,0,0,1,,,,,,,,,0,,,69,127
9660,note_on,0,0,4,,,,,,,,,0,,,51,110
9660,note_on,0,0,4,,,,,,,,,0,,,47,110
9660,note_on,0,0,1,,,,,,,,,0,,,57,100
9660,note_on,0,0,1,,,,,,,,,0,,,71,0
9660,note_on,120,0,4,,,,,,,,,0,,,39,110
9660,note_on,60,0,1,,,,,,,,,0,,,59,0
9675,note_on,15,0,4,,,,,,,,,0,,,51,0
9675,note_on,0,0,4,,,,,,,,,0,,,47,0
9675,note_on,0,0,4,,,,,,,,,0,,,39,0
9720,note_on,0,0,1,,,,,,,,,0,,,66,0
9720,note_on,45,0,4,,,,,,,,,0,,,55,100
9720,note_on,0,0,1,,,,,,,,,0,,,57,0
9720,note_on,60,0,1,,,,,,,,,0,,,69,0
9735,note_on,15,0,4,,,,,,,,,0,,,55,0
9750,note_on,30,0,1,,,,,,,,,0,,,54,100
9765,note_on,15,0,1,,,,,,,,,0,,,54,0
9780,note_on,0,0,2,,,,,,,,,0,,,67,127
9780,note_on,45,0,4,,,,,,,,,0,,,52,110
9780,note_on,0,0,4,,,,,,,,,0,,,40,110
9780,note_on,1080,0,2,,,,,,,,,0,,,55,100
9780,note_on,0,0,2,,,,,,,,,0,,,64,127
9780,note_on,0,0,4,,,,,,,,,0,,,47,110
9795,note_on,0,0,4,,,,,,,,,0,,,52,0
9795,note_on,15,0,4,,,,,,,,,0,,,40,0
9795,note_on,0,0,4,,,,,,,,,0,,,47,0
9840,note_on,0,0,2,,,,,,,,,0,,,67,0
9840,note_on,45,0,4,,,,,,,,,0,,,54,100
9840,note_on,60,0,2,,,,,,,,,0,,,64,0
9840,note_on,0,0,2,,,,,,,,,0,,,55,0
9855,note_on,15,0,4,,,,,,,,,0,,,54,0
9870,note_on,30,0,2,,,,,,,,,0,,,52,100
9885,note_on,15,0,2,,,,,,,,,0,,,52,0
9900,note_on,45,0,4,,,,,,,,,0,,,35,110
9900,note_on,0,0,2,,,,,,,,,0,,,62,127
9900,note_on,15,0,2,,,,,,,,,0,,,50,100
9900,note_on,0,0,4,,,,,,,,,0,,,42,110
9900,note_on,0,0,4,,,,,,,,,0,,,47,110
9900,note_on,0,0,2,,,,,,,,,0,,,59,127
9915,note_on,15,0,4,,,,,,,,,0,,,47,0
9915,note_on,0,0,4,,,,,,,,,0,,,42,0
9915,note_on,0,0,4,,,,,,,,,0,,,35,0
9960,note_on,45,0,4,,,,,,,,,0,,,59,100
9960,note_on,0,0,2,,,,,,,,,0,,,50,0
9960,note_on,0,0,4,,,,,,,,,0,,,47,100
9960,note_on,0,0,2,,,,,,,,,0,,,62,0
9960,note_on,60,0,2,,,,,,,,,0,,,59,0
9990,note_on,0,0,4,,,,,,,,,0,,,60,100
9990,note_on,0,0,4,,,,,,,,,0,,,48,100
9990,note_on,30,0,4,,,,,,,,,0,,,47,0
9990,note_on,0,0,4,,,,,,,,,0,,,59,0
10020,note_on,0,0,4,,,,,,,,,0,,,59,100
10020,note_on,30,0,4,,,,,,,,,0,,,48,0
10020,note_on,0,0,4,,,,,,,,,0,,,47,100
10020,note_on,0,0,4,,,,,,,,,0,,,60,0
10080,note_on,0,0,4,,,,,,,,,0,,,59,0
10080,note_on,0,0,1,,,,,,,,,0,,,59,100
10080,note_on,315,0,1,,,,,,,,,0,,,71,100
10080,note_on,60,0,4,,,,,,,,,0,,,47,0
10140,note_on,60,0,4,,,,,,,,,0,,,39,110
10140,note_on,0,0,1,,,,,,,,,0,,,71,0
10140,note_on,0,0,4,,,,,,,,,0,,,51,110
10140,note_on,0,0,1,,,,,,,,,0,,,66,127
10140,note_on,0,0,1,,,,,,,,,0,,,57,100
10140,note_on,60,0,1,,,,,,,,,0,,,59,0
10140,note_on,0,0,1,,,,,,,,,0,,,69,127
10140,note_on,0,0,4,,,,,,,,,0,,,47,110
10155,note_on,0,0,4,,,,,,,,,0,,,47,0
10155,note_on,0,0,4,,,,,,,,,0,,,39,0
10155,note_on,15,0,4,,,,,,,,,0,,,51,0
10200,note_on,45,0,4,,,,,,,,,0,,,55,100
10200,note_on,60,0,1,,,,,,,,,0,,,66,0
10200,note_on,0,0,1,,,,,,,,,0,,,57,0
10200,note_on,0,0,1,,,,,,,,,0,,,69,0
10215,note_on,15,0,4,,,,,,,,,0,,,55,0
10230,note_on,30,0,1,,,,,,,,,0,,,54,100
10245,note_on,15,0,1,,,,,,,,,0,,,54,0
10260,note_on,45,0,4,,,,,,,,,0,,,52,110
10260,note_on,0,0,4,,,,,,,,,0,,,40,110
10260,note_on,0,0,1,,,,,,,,,0,,,67,127
10260,note_on,15,0,1,,,,,,,,,0,,,55,100
10260,note_on,0,0,1,,,,,,,,,0,,,64,127
10260,note_on,0,0,4,,,,,,,,,0,,,47,110
10275,note_on,0,0,4,,,,,,,,,0,,,52,0
10275,note_on,0,0,4,,,,,,,,,0,,,47,0
10275,note_on,15,0,4,,,,,,,,,0,,,40,0
10320,note_on,60,0,1,,,,,,,,,0,,,64,0
10320,note_on,0,0,1,,,,,,,,,0,,,55,0
10320,note_on,45,0,4,,,,,,,,,0,,,54,100
10320,note_on,0,0,1,,,,,,,,,0,,,67,0
10335,note_on,15,0,4,,,,,,,,,0,,,54,0
10350,note_on,30,0,1,,,,,,,,,0,,,52,100
10365,note_on,15,0,1,,,,,,,,,0,,,52,0
10380,note_on,45,0,4,,,,,,,,,0,,,35,110
10380,note_on,0,0,4,,,,,,,,,0,,,42,110
10380,note_on,0,0,1,,,,,,,,,0,,,63,127
10380,note_on,0,0,4,,,,,,,,,0,,,47,110
10380,note_on,0,0,1,,,,,,,,,0,,,59,127
10380,note_on,15,0,1,,,,,,,,,0,,,71,127
10395,note_on,15,0,4,,,,,,,,,0,,,47,0
10395,note_on,0,0,4,,,,,,,,,0,,,35,0
10395,note_on,0,0,4,,,,,,,,,0,,,42,0
10440,note_on,0,0,1,,,,,,,,,0,,,71,0
10440,note_on,60,0,1,,,,,,,,,0,,,59,0
10440,note_on,45,0,4,,,,,,,,,0,,,58,100
10440,note_on,0,0,1,,,,,,,,,0,,,63,0
10455,note_on,15,0,4,,,,,,,,,0,,,58,0
10470,note_on,15,0,4,,,,,,,,,0,,,60,100
10485,note_on,15,0,4,,,,,,,,,0,,,60,0
10500,note_on,15,0,4,,,,,,,,,0,,,59,100
10515,note_on,15,0,4,,,,,,,,,0,,,59,0
10560,note_on,0,0,1,,,,,,,,,0,,,59,60
10560,note_on,120,0,1,,,,,,,,,0,,,71,60
10620,note_on,0,0,4,,,,,,,,,0,,,52,71
10620,note_on,0,0,1,,,,,,,,,0,,,76,91
10620,note_on,60,0,1,,,,,,,,,0,,,59,0
10620,note_on,0,0,1,,,,,,,,,0,,,71,91
10620,note_on,0,0,1,,,,,,,,,0,,,71,0
10620,note_on,105,0,4,,,,,,,,,0,,,56,71
10620,note_on,0,0,1,,,,,,,,,0,,,64,61
10620,note_on,0,0,4,,,,,,,,,0,,,44,71
10635,note_on,15,0,4,,,,,,,,,0,,,44,0
10635,note_on,0,0,4,,,,,,,,,0,,,56,0
10635,note_on,0,0,4,,,,,,,,,0,,,52,0
10680,note_on,0,0,1,,,,,,,,,0,,,76,0
10680,note_on,45,0,4,,,,,,,,,0,,,62,62
10680,note_on,60,0,1,,,,,,,,,0,,,71,0
10680,note_on,0,0,1,,,,,,,,,0,,,64,0
10695,note_on,15,0,4,,,,,,,,,0,,,62,0
10710,note_on,30,0,1,,,,,,,,,0,,,59,63
10725,note_on,15,0,1,,,,,,,,,0,,,59,0
10740,note_on,0,0,1,,,,,,,,,0,,,64,94
10740,note_on,0,0,4,,,,,,,,,0,,,52,74
10740,note_on,0,0,4,,,,,,,,,0,,,57,74
10740,note_on,15,0,1,,,,,,,,,0,,,60,64
10740,note_on,45,0,4,,,,,,,,,0,,,45,74
10740,note_on,0,0,1,,,,,,,,,0,,,72,94
10755,note_on,0,0,4,,,,,,,,,0,,,45,0
10755,note_on,15,0,4,,,,,,,,,0,,,57,0
10755,note_on,0,0,4,,,,,,,,,0,,,52,0
10800,note_on,60,0,1,,,,,,,,,0,,,64,0
10800,note_on,45,0,4,,,,,,,,,0,,,59,65
10800,note_on,0,0,1,,,,,,,,,0,,,60,0
10800,note_on,0,0,1,,,,,,,,,0,,,72,0
10815,note_on,15,0,4,,,,,,,,,0,,,59,0
10830,note_on,30,0,1,,,,,,,,,0,,,57,66
10845,note_on,15,0,1,,,,,,,,,0,,,57,0
10860,note_on,0,0,1,,,,,,,,,0,,,74,97
10860,note_on,0,0,4,,,,,,,,,0,,,42,77
10860,note_on,0,0,4,,,,,,,,,0,,,50,77
10860,note_on,45,0,4,,,,,,,,,0,,,54,77
10860,note_on,0,0,1,,,,,,,,,0,,,69,97
10860,note_on,15,0,1,,,,,,,,,0,,,62,67
10875,note_on,0,0,4,,,,,,,,,0,,,50,0
10875,note_on,15,0,4,,,,,,,,,0,,,42,0
10875,note_on,0,0,4,,,,,,,,,0,,,54,0
10920,note_on,60,0,1,,,,,,,,,0,,,69,0
10920,note_on,0,0,1,,,,,,,,,0,,,74,0
10920,note_on,0,0,1,,,,,,,,,0,,,62,0
10920,note_on,45,0,4,,,,,,,,,0,,,60,68
10935,note_on,15,0,4,,,,,,,,,0,,,60,0
10950,note_on,30,0,1,,,,,,,,,0,,,57,69
10965,note_on,15,0,1,,,,,,,,,0,,,57,0
10980,note_on,0,0,4,,,,,,,,,0,,,50,79
10980,note_on,0,0,1,,,,,,,,,0,,,62,99
10980,note_on,0,0,1,,,,,,,,,0,,,71,99
10980,note_on,45,0,4,,,,,,,,,0,,,55,79
10980,note_on,15,0,1,,,,,,,,,0,,,59,69
10980,note_on,0,0,4,,,,,,,,,0,,,43,79
10995,note_on,15,0,4,,,,,,,,,0,,,43,0
10995,note_on,0,0,4,,,,,,,,,0,,,50,0
10995,note_on,0,0,4,,,,,,,,,0,,,55,0
11040,note_on,45,0,4,,,,,,,,,0,,,57,71
11040,note_on,0,0,1,,,,,,,,,0,,,59,0
11040,note_on,0,0,1,,,,,,,,,0,,,71,0
11040,note_on,60,0,1,,,,,,,,,0,,,62,0
11055,note_on,15,0,4,,,,,,,,,0,,,57,0
11070,note_on,30,0,1,,,,,,,,,0,,,55,72
11085,note_on,15,0,1,,,,,,,,,0,,,55,0
11100,note_on,0,0,1,,,,,,,,,0,,,67,102
11100,note_on,45,0,4,,,,,,,,,0,,,52,82
11100,note_on,0,0,4,,,,,,,,,0,,,40,82
11100,note_on,15,0,1,,,,,,,,,0,,,60,72
11100,note_on,0,0,4,,,,,,,,,0,,,48,82
11100,note_on,0,0,1,,,,,,,,,0,,,72,102
11115,note_on,15,0,4,,,,,,,,,0,,,40,0
11115,note_on,0,0,4,,,,,,,,,0,,,52,0
11115,note_on,0,0,4,,,,,,,,,0,,,48,0
11160,note_on,0,0,1,,,,,,,,,0,,,60,0
11160,note_on,45,0,4,,,,,,,,,0,,,59,74
11160,note_on,0,0,1,,,,,,,,,0,,,72,0
11160,note_on,60,0,1,,,,,,,,,0,,,67,0
11175,note_on,15,0,4,,,,,,,,,0,,,59,0
11190,note_on,30,0,1,,,,,,,,,0,,,55,74
11205,note_on,15,0,1,,,,,,,,,0,,,55,0
11220,note_on,45,0,4,,,,,,,,,0,,,54,85
11220,note_on,0,0,1,,,,,,,,,0,,,69,105
11220,note_on,15,0,1,,,,,,,,,0,,,57,75
11220,note_on,0,0,1,,,,,,,,,0,,,60,105
11220,note_on,0,0,4,,,,,,,,,0,,,42,85
11220,note_on,0,0,4,,,,,,,,,0,,,48,85
11235,note_on,0,0,4,,,,,,,,,0,,,48,0
11235,note_on,15,0,4,,,,,,,,,0,,,42,0
11235,note_on,0,0,4,,,,,,,,,0,,,54,0
11280,note_on,60,0,1,,,,,,,,,0,,,60,0
11280,note_on,45,0,4,,,,,,,,,0,,,55,77
11280,note_on,0,0,1,,,,,,,,,0,,,57,0
11280,note_on,0,0,1,,,,,,,,,0,,,69,0
11295,note_on,15,0,4,,,,,,,,,0,,,55,0
11310,note_on,30,0,1,,,,,,,,,0,,,54,77
11325,note_on,15,0,1,,,,,,,,,0,,,54,0
11340,note_on,15,0,1,,,,,,,,,0,,,59,78
11340,note_on,45,0,4,,,,,,,,,0,,,51,88
11340,note_on,0,0,4,,,,,,,,,0,,,39,88
11340,note_on,0,0,1,,,,,,,,,0,,,66,108
11340,note_on,0,0,1,,,,,,,,,0,,,71,108
11340,note_on,0,0,4,,,,,,,,,0,,,47,88
11355,note_on,0,0,4,,,,,,,,,0,,,47,0
11355,note_on,0,0,4,,,,,,,,,0,,,51,0
11355,note_on,15,0,4,,,,,,,,,0,,,39,0
11400,note_on,0,0,1,,,,,,,,,0,,,71,0
11400,note_on,45,0,4,,,,,,,,,0,,,57,79
11400,note_on,60,0,1,,,,,,,,,0,,,66,0
11400,note_on,0,0,1,,,,,,,,,0,,,59,0
11415,note_on,15,0,4,,,,,,,,,0,,,57,0
11430,note_on,30,0,1,,,,,,,,,0,,,54,80
11445,note_on,15,0,1,,,,,,,,,0,,,54,0
11460,note_on,0,0,4,,,,,,,,,0,,,40,91
11460,note_on,1500,0,2,,,,,,,,,0,,,55,81
11460,note_on,0,0,2,,,,,,,,,0,,,59,111
11460,note_on,0,0,2,,,,,,,,,0,,,67,111
11460,note_on,45,0,4,,,,,,,,,0,,,52,91
11460,note_on,0,0,4,,,,,,,,,0,,,47,91
11475,note_on,0,0,4,,,,,,,,,0,,,47,0
11475,note_on,0,0,4,,,,,,,,,0,,,52,0
11475,note_on,15,0,4,,,,,,,,,0,,,40,0
11520,note_on,45,0,4,,,,,,,,,0,,,54,82
11520,note_on,60,0,2,,,,,,,,,0,,,59,0
11520,note_on,0,0,2,,,,,,,,,0,,,67,0
11520,note_on,0,0,2,,,,,,,,,0,,,55,0
11535,note_on,15,0,4,,,,,,,,,0,,,54,0
11550,note_on,30,0,2,,,,,,,,,0,,,52,83
11565,note_on,15,0,2,,,,,,,,,0,,,52,0
11580,note_on,0,0,2,,,,,,,,,0,,,60,114
11580,note_on,0,0,2,,,,,,,,,0,,,64,114
11580,note_on,0,0,2,,,,,,,,,0,,,67,114
11580,note_on,0,0,4,,,,,,,,,0,,,48,94
11580,note_on,15,0,2,,,,,,,,,0,,,55,84
11580,note_on,45,0,4,,,,,,,,,0,,,36,94
11595,note_on,0,0,4,,,,,,,,,0,,,36,0
11595,note_on,15,0,4,,,,,,,,,0,,,48,0
11640,note_on,60,0,2,,,,,,,,,0,,,60,0
11640,note_on,0,0,2,,,,,,,,,0,,,55,0
11640,note_on,0,0,2,,,,,,,,,0,,,64,0
11640,note_on,45,0,4,,,,,,,,,0,,,54,85
11640,note_on,0,0,2,,,,,,,,,0,,,67,0
11655,note_on,15,0,4,,,,,,,,,0,,,54,0
11670,note_on,30,0,2,,,,,,,,,0,,,52,86
11685,note_on,15,0,2,,,,,,,,,0,,,52,0
11700,note_on,0,0,4,,,,,,,,,0,,,46,97
11700,note_on,15,0,2,,,,,,,,,0,,,55,87
11700,note_on,0,0,2,,,,,,,,,0,,,67,117
11700,note_on,0,0,2,,,,,,,,,0,,,61,117
11700,note_on,0,0,2,,,,,,,,,0,,,64,117
11700,note_on,45,0,4,,,,,,,,,0,,,34,97
11715,note_on,0,0,4,,,,,,,,,0,,,34,0
11715,note_on,15,0,4,,,,,,,,,0,,,46,0
11760,note_on,45,0,4,,,,,,,,,0,,,54,88
11760,note_on,0,0,2,,,,,,,,,0,,,64,0
11760,note_on,0,0,2,,,,,,,,,0,,,67,0
11760,note_on,60,0,2,,,,,,,,,0,,,61,0
11760,note_on,0,0,2,,,,,,,,,0,,,55,0
11775,note_on,15,0,4,,,,,,,,,0,,,54,0
11790,note_on,30,0,2,,,,,,,,,0,,,52,89
11805,note_on,15,0,2,,,,,,,,,0,,,52,0
11820,note_on,0,0,2,,,,,,,,,0,,,59,119
11820,note_on,0,0,2,,,,,,,,,0,,,63,119
11820,note_on,0,0,4,,,,,,,,,0,,,47,99
11820,note_on,15,0,2,,,,,,,,,0,,,51,89
11820,note_on,45,0,4,,,,,,,,,0,,,35,99
11835,note_on,15,0,4,,,,,,,,,0,,,47,0
11835,note_on,0,0,4,,,,,,,,,0,,,35,0
11880,note_on,45,0,4,,,,,,,,,0,,,52,91
11880,note_on,60,0,2,,,,,,,,,0,,,59,0
11880,note_on,0,0,2,,,,,,,,,0,,,63,0
11880,note_on,0,0,2,,,,,,,,,0,,,51,0
11895,note_on,15,0,4,,,,,,,,,0,,,52,0
11910,note_on,30,0,2,,,,,,,,,0,,,54,92
11925,note_on,15,0,2,,,,,,,,,0,,,54,0
11940,note_on,15,0,2,,,,,,,,,0,,,52,92
11940,note_on,0,0,4,,,,,,,,,0,,,48,102
11940,note_on,0,0,2,,,,,,,,,0,,,55,122
11940,note_on,45,0,4,,,,,,,,,0,,,36,102
11940,note_on,0,0,2,,,,,,,,,0,,,64,122
11955,note_on,0,0,4,,,,,,,,,0,,,36,0
11955,note_on,15,0,4,,,,,,,,,0,,,48,0
12000,note_on,0,0,2,,,,,,,,,0,,,64,0
12000,note_on,60,0,2,,,,,,,,,0,,,55,0
12000,note_on,45,0,4,,,,,,,,,0,,,54,94
12000,note_on,0,0,2,,,,,,,,,0,,,52,0
12015,note_on,15,0,4,,,,,,,,,0,,,54,0
12030,note_on,30,0,2,,,,,,,,,0,,,55,94
12045,note_on,15,0,2,,,,,,,,,0,,,55,0
12060,set_tempo,4320,1,0,,,,,,714371,,,,,,,
12060,note_on,0,0,4,,,,,,,,,0,,,45,105
12060,note_on,45,0,4,,,,,,,,,0,,,33,105
12060,note_on,0,0,2,,,,,,,,,0,,,53,95
12060,note_on,15,0,2,,,,,,,,,0,,,60,95
12068,set_tempo,8,1,0,,,,,,716932,,,,,,,
12072,set_tempo,4,1,0,,,,,,719511,,,,,,,
12075,note_on,15,0,4,,,,,,,,,0,,,45,0
12075,note_on,0,0,4,,,,,,,,,0,,,33,0
12077,set_tempo,5,1,0,,,,,,722109,,,,,,,
12081,set_tempo,4,1,0,,,,,,724725,,,,,,,
12085,set_tempo,4,1,0,,,,,,727361,,,,,,,
12090,set_tempo,5,1,0,,,,,,730016,,,,,,,
12094,set_tempo,4,1,0,,,,,,732690,,,,,,,
12098,set_tempo,4,1,0,,,,,,735384,,,,,,,
12107,set_tempo,9,1,0,,,,,,738098,,,,,,,
12111,set_tempo,4,1,0,,,,,,740832,,,,,,,
12115,set_tempo,4,1,0,,,,,,743587,,,,,,,
12120,note_on,45,0,4,,,,,,,,,0,,,60,97
12120,note_on,0,0,1,,,,,,,,,0,,,65,97
12120,note_on,60,0,2,,,,,,,,,0,,,53,0
12120,note_on,675,0,1,,,,,,,,,0,,,69,97
12120,note_on,0,0,2,,,,,,,,,0,,,60,0
12120,end_of_track,0,1,2,,,,,,,,,,,,,
12120,set_tempo,5,1,0,,,,,,746361,,,,,,,
12124,set_tempo,4,1,0,,,,,,749157,,,,,,,
12128,set_tempo,4,1,0,,,,,,751974,,,,,,,
12132,set_tempo,4,1,0,,,,,,754812,,,,,,,
12137,set_tempo,5,1,0,,,,,,757671,,,,,,,
12145,set_tempo,8,1,0,,,,,,760553,,,,,,,
12150,note_on,0,0,1,,,,,,,,,0,,,69,0
12150,note_on,0,0,1,,,,,,,,,0,,,60,97
12150,note_on,0,0,1,,,,,,,,,0,,,65,97
12150,note_on,30,0,1,,,,,,,,,0,,,65,0
12150,note_on,0,0,4,,,,,,,,,0,,,57,97
12150,note_on,30,0,4,,,,,,,,,0,,,60,0
12150,set_tempo,5,1,0,,,,,,763456,,,,,,,
12154,set_tempo,4,1,0,,,,,,766381,,,,,,,
12158,set_tempo,4,1,0,,,,,,769329,,,,,,,
12162,set_tempo,4,1,0,,,,,,772300,,,,,,,
12167,set_tempo,5,1,0,,,,,,775294,,,,,,,
12171,set_tempo,4,1,0,,,,,,778311,,,,,,,
12175,set_tempo,4,1,0,,,,,,781352,,,,,,,
12180,note_on,0,0,1,,,,,,,,,0,,,59,98
12180,note_on,0,0,1,,,,,,,,,0,,,60,0
12180,note_on,0,0,1,,,,,,,,,0,,,64,98
12180,note_on,0,0,4,,,,,,,,,0,,,35,108
12180,note_on,0,0,4,,,,,,,,,0,,,47,108
12180,note_on,30,0,4,,,,,,,,,0,,,57,0
12180,note_on,0,0,1,,,,,,,,,0,,,55,98
12180,note_on,30,0,1,,,,,,,,,0,,,65,0
12184,set_tempo,9,1,0,,,,,,784416,,,,,,,
12188,set_tempo,4,1,0,,,,,,787505,,,,,,,
12192,set_tempo,4,1,0,,,,,,790618,,,,,,,
12195,note_on,15,0,4,,,,,,,,,0,,,47,0
12195,note_on,0,0,4,,,,,,,,,0,,,35,0
12197,set_tempo,5,1,0,,,,,,793756,,,,,,,
12201,set_tempo,4,1,0,,,,,,796919,,,,,,,
12205,set_tempo,4,1,0,,,,,,800107,,,,,,,
12210,set_tempo,5,1,0,,,,,,803320,,,,,,,
12214,set_tempo,4,1,0,,,,,,806560,,,,,,,
12222,set_tempo,8,1,0,,,,,,809826,,,,,,,
12227,set_tempo,5,1,0,,,,,,813118,,,,,,,
12231,set_tempo,4,1,0,,,,,,816438,,,,,,,
12235,set_tempo,4,1,0,,,,,,819784,,,,,,,
12240,note_on,60,0,1,,,,,,,,,0,,,64,0
12240,set_tempo,5,1,0,,,,,,823158,,,,,,,
12240,note_on,0,0,1,,,,,,,,,0,,,66,99
12240,note_on,0,0,1,,,,,,,,,0,,,55,0
12240,note_on,45,0,4,,,,,,,,,0,,,57,99
12240,note_on,0,0,1,,,,,,,,,0,,,59,0
12240,note_on,0,0,1,,,,,,,,,0,,,59,99
12244,set_tempo,4,1,0,,,,,,826560,,,,,,,
12248,set_tempo,4,1,0,,,,,,829990,,,,,,,
12252,set_tempo,4,1,0,,,,,,833449,,,,,,,
12261,set_tempo,9,1,0,,,,,,836937,,,,,,,
12265,set_tempo,4,1,0,,,,,,840454,,,,,,,
12270,note_on,0,0,1,,,,,,,,,0,,,66,0
12270,note_on,0,0,1,,,,,,,,,0,,,59,100
12270,note_on,30,0,4,,,,,,,,,0,,,57,0
12270,note_on,0,0,1,,,,,,,,,0,,,63,100
12270,note_on,30,0,1,,,,,,,,,0,,,59,0
12270,set_tempo,5,1,0,,,,,,844001,,,,,,,
12270,note_on,0,0,4,,,,,,,,,0,,,54,100
12274,set_tempo,4,1,0,,,,,,847577,,,,,,,
12278,set_tempo,4,1,0,,,,,,851185,,,,,,,
12282,set_tempo,4,1,0,,,,,,854823,,,,,,,
12287,set_tempo,5,1,0,,,,,,858492,,,,,,,
12291,set_tempo,4,1,0,,,,,,862193,,,,,,,
12295,set_tempo,4,1,0,,,,,,865926,,,,,,,
12300,note_on,0,0,1,,,,,,,,,0,,,59,0
12300,note_on,0,0,1,,,,,,,,,0,,,59,100
12300,note_on,0,0,1,,,,,,,,,0,,,55,100
12300,note_on,0,0,4,,,,,,,,,0,,,52,100
12300,note_on,0,0,1,,,,,,,,,0,,,64,100
12300,set_tempo,0,1,0,,,,,,1666667,,,,,,,
12300,note_on,30,0,1,,,,,,,,,0,,,63,0
12300,key_signature,5,1,0,,,,,E,,,,,,,,
12300,note_on,30,0,4,,,,,,,,,0,,,54,0
12300,note_on,0,0,4,,,,,,,,,0,,,40,100
12300,marker,0,1,0,,,,,,,,,,,,,
12420,note_on,0,0,4,,,,,,,,,0,,,40,0
12420,note_on,0,0,1,,,,,,,,,0,,,55,0
12420,note_on,0,0,1,,,,,,,,,0,,,59,0
12420,note_on,120,0,1,,,,,,,,,0,,,64,0
12420,note_on,120,0,4,,,,,,,,,0,,,52,0
12480,set_tempo,180,1,0,,,,,,714286,,,,,,,
12480,note_on,60,0,1,,,,,,,,,0,,,95,60
12480,note_on,0,0,1,,,,,,,,,0,,,92,60
12510,note_on,0,0,1,,,,,,,,,0,,,93,60
12510,note_on,30,0,1,,,,,,,,,0,,,92,0
12510,note_on,0,0,1,,,,,,,,,0,,,95,0
12510,note_on,0,0,1,,,,,,,,,0,,,90,60
12540,note_on,120,0,4,,,,,,,,,0,,,59,60
12540,note_on,0,0,4,,,,,,,,,0,,,52,60
12540,note_on,0,0,1,,,,,,,,,0,,,88,70
12540,control_change,5295,0,5,,,,,,,,,0,64,127,,
12540,note_on,30,0,1,,,,,,,,,0,,,93,0
12540,note_on,0,0,1,,,,,,,,,0,,,92,70
12540,note_on,0,0,1,,,,,,,,,0,,,90,0
12570,note_on,0,0,4,,,,,,,,,0,,,64,60
12570,note_on,30,0,4,,,,,,,,,0,,,59,0
12600,note_on,0,0,1,,,,,,,,,0,,,88,60
12600,note_on,0,0,1,,,,,,,,,0,,,92,60
12600,note_on,30,0,4,,,,,,,,,0,,,64,0
12600,note_on,60,0,1,,,,,,,,,0,,,88,0
12600,note_on,0,0,1,,,,,,,,,0,,,92,0
12600,note_on,5340,0,3,,,,,,,,,0,,,71,60
12630,note_on,30,0,1,,,,,,,,,0,,,88,0
12630,note_on,0,0,1,,,,,,,,,0,,,83,60
12630,note_on,0,0,1,,,,,,,,,0,,,90,60
12630,note_on,0,0,1,,,,,,,,,0,,,92,0
12645,control_change,105,0,5,,,,,,,,,0,64,0,,
12660,note_on,0,0,1,,,,,,,,,0,,,80,70
12660,note_on,0,0,3,,,,,,,,,0,,,71,60
12660,note_on,60,0,4,,,,,,,,,0,,,52,0
12660,note_on,0,0,3,,,,,,,,,0,,,64,60
12660,note_on,60,0,3,,,,,,,,,0,,,71,0
12660,note_on,0,0,1,,,,,,,,,0,,,83,0
12660,control_change,15,0,5,,,,,,,,,0,64,127,,
12660,note_on,0,0,1,,,,,,,,,0,,,88,70
12660,note_on,30,0,1,,,,,,,,,0,,,90,0
12690,note_on,0,0,3,,,,,,,,,0,,,59,60
12690,note_on,30,0,3,,,,,,,,,0,,,64,0
12720,note_on,30,0,3,,,,,,,,,0,,,59,0
12720,note_on,60,0,1,,,,,,,,,0,,,80,0
12720,note_on,0,0,1,,,,,,,,,0,,,80,60
12720,note_on,0,0,1,,,,,,,,,0,,,83,60
12720,note_on,0,0,1,,,,,,,,,0,,,88,0
12720,note_on,60,0,4,,,,,,,,,0,,,52,60
12750,note_on,0,0,1,,,,,,,,,0,,,83,0
12750,note_on,0,0,1,,,,,,,,,0,,,81,60
12750,note_on,30,0,1,,,,,,,,,0,,,80,0
12750,note_on,0,0,1,,,,,,,,,0,,,78,60
12765,control_change,105,0,5,,,,,,,,,0,64,0,,
12780,note_on,60,0,4,,,,,,,,,0,,,52,0
12780,note_on,0,0,1,,,,,,,,,0,,,78,0
12780,note_on,0,0,1,,,,,,,,,0,,,76,70
12780,control_change,15,0,5,,,,,,,,,0,64,127,,
12780,note_on,0,0,1,,,,,,,,,0,,,80,70
12780,note_on,30,0,1,,,,,,,,,0,,,81,0
12780,note_on,60,0,3,,,,,,,,,0,,,71,0
12780,note_on,0,0,4,,,,,,,,,0,,,59,60
12780,note_on,0,0,4,,,,,,,,,0,,,52,60
12810,note_on,0,0,4,,,,,,,,,0,,,64,60
12810,note_on,30,0,4,,,,,,,,,0,,,59,0
12840,note_on,30,0,4,,,,,,,,,0,,,64,0
12840,note_on,0,0,1,,,,,,,,,0,,,76,60
12840,note_on,0,0,1,,,,,,,,,0,,,80,0
12840,note_on,0,0,1,,,,,,,,,0,,,80,60
12840,note_on,60,0,3,,,,,,,,,0,,,71,60
12840,note_on,60,0,1,,,,,,,,,0,,,76,0
12870,note_on,0,0,1,,,,,,,,,0,,,71,60
12870,note_on,0,0,1,,,,,,,,,0,,,78,60
12870,note_on,0,0,1,,,,,,,,,0,,,80,0
12870,note_on,30,0,1,,,,,,,,,0,,,76,0
12885,control_change,105,0,5,,,,,,,,,0,64,0,,
12900,control_change,15,0,5,,,,,,,,,0,64,127,,
12900,note_on,60,0,3,,,,,,,,,0,,,71,0
12900,note_on,0,0,1,,,,,,,,,0,,,71,0
12900,note_on,0,0,1,,,,,,,,,0,,,76,70
12900,note_on,60,0,4,,,,,,,,,0,,,52,0
12900,note_on,0,0,3,,,,,,,,,0,,,64,60
12900,note_on,0,0,3,,,,,,,,,0,,,71,60
12900,note_on,30,0,1,,,,,,,,,0,,,78,0
12900,note_on,0,0,1,,,,,,,,,0,,,68,70
12930,note_on,30,0,3,,,,,,,,,0,,,64,0
12930,note_on,0,0,3,,,,,,,,,0,,,59,60
12960,note_on,0,0,1,,,,,,,,,0,,,68,60
12960,note_on,60,0,4,,,,,,,,,0,,,52,60
12960,note_on,0,0,1,,,,,,,,,0,,,68,0
12960,note_on,60,0,1,,,,,,,,,0,,,76,0
12960,note_on,0,0,1,,,,,,,,,0,,,76,60
12960,note_on,30,0,3,,,,,,,,,0,,,59,0
12990,note_on,0,0,1,,,,,,,,,0,,,71,60
12990,note_on,0,0,1,,,,,,,,,0,,,76,0
12990,note_on,0,0,1,,,,,,,,,0,,,78,60
12990,note_on,30,0,1,,,,,,,,,0,,,68,0
13005,control_change,105,0,5,,,,,,,,,0,64,0,,
13020,note_on,60,0,4,,,,,,,,,0,,,52,0
13020,note_on,30,0,1,,,,,,,,,0,,,71,0
13020,note_on,60,0,3,,,,,,,,,0,,,71,0
13020,note_on,0,0,4,,,,,,,,,0,,,59,60
13020,control_change,15,0,5,,,,,,,,,0,64,127,,
13020,note_on,0,0,4,,,,,,,,,0,,,52,60
13020,note_on,0,0,1,,,,,,,,,0,,,76,70
13020,note_on,0,0,1,,,,,,,,,0,,,78,0
13020,note_on,0,0,1,,,,,,,,,0,,,80,70
13050,note_on,30,0,4,,,,,,,,,0,,,64,60
13080,note_on,30,0,4,,,,,,,,,0,,,64,0
13080,note_on,0,0,1,,,,,,,,,0,,,71,60
13080,note_on,60,0,1,,,,,,,,,0,,,76,0
13080,note_on,0,0,1,,,,,,,,,0,,,80,0
13080,note_on,0,0,4,,,,,,,,,0,,,59,0
13080,note_on,0,0,4,,,,,,,,,0,,,52,0
13080,note_on,0,0,1,,,,,,,,,0,,,78,60
13110,note_on,0,0,1,,,,,,,,,0,,,78,0
13110,note_on,0,0,1,,,,,,,,,0,,,80,60
13110,note_on,30,0,1,,,,,,,,,0,,,71,0
13110,note_on,0,0,1,,,,,,,,,0,,,76,60
13125,control_change,105,0,5,,,,,,,,,0,64,0,,
13140,note_on,30,0,1,,,,,,,,,0,,,76,0
13140,control_change,15,0,5,,,,,,,,,0,64,127,,
13140,note_on,0,0,3,,,,,,,,,0,,,71,60
13140,note_on,120,0,3,,,,,,,,,0,,,63,60
13140,note_on,0,0,1,,,,,,,,,0,,,78,70
13140,note_on,0,0,1,,,,,,,,,0,,,80,0
13140,note_on,0,0,1,,,,,,,,,0,,,81,70
13170,note_on,30,0,3,,,,,,,,,0,,,59,60
13200,note_on,0,0,3,,,,,,,,,0,,,63,0
13200,note_on,0,0,3,,,,,,,,,0,,,71,0
13200,note_on,30,0,3,,,,,,,,,0,,,59,0
13200,note_on,0,0,1,,,,,,,,,0,,,81,0
13200,note_on,0,0,1,,,,,,,,,0,,,78,60
13200,note_on,0,0,1,,,,,,,,,0,,,71,60
13200,note_on,60,0,1,,,,,,,,,0,,,78,0
13230,note_on,0,0,1,,,,,,,,,0,,,78,60
13230,note_on,0,0,1,,,,,,,,,0,,,81,60
13230,note_on,30,0,1,,,,,,,,,0,,,78,0
13230,note_on,0,0,1,,,,,,,,,0,,,71,0
13245,control_change,105,0,5,,,,,,,,,0,64,0,,
13260,note_on,0,0,1,,,,,,,,,0,,,81,0
13260,note_on,0,0,1,,,,,,,,,0,,,80,70
13260,control_change,15,0,5,,,,,,,,,0,64,127,,
13260,note_on,30,0,1,,,,,,,,,0,,,78,0
13260,note_on,180,0,4,,,,,,,,,0,,,59,60
13260,note_on,0,0,4,,,,,,,,,0,,,52,60
13260,note_on,0,0,1,,,,,,,,,0,,,83,70
13290,note_on,30,0,4,,,,,,,,,0,,,64,60
13320,note_on,0,0,1,,,,,,,,,0,,,81,60
13320,note_on,0,0,1,,,,,,,,,0,,,83,0
13320,note_on,30,0,4,,,,,,,,,0,,,64,0
13320,note_on,0,0,4,,,,,,,,,0,,,52,0
13320,note_on,0,0,4,,,,,,,,,0,,,59,0
13320,note_on,60,0,1,,,,,,,,,0,,,80,0
13320,note_on,0,0,1,,,,,,,,,0,,,78,60
13350,note_on,0,0,1,,,,,,,,,0,,,78,0
13350,note_on,0,0,1,,,,,,,,,0,,,80,60
13350,note_on,0,0,1,,,,,,,,,0,,,76,60
13350,note_on,30,0,1,,,,,,,,,0,,,81,0
13365,control_change,105,0,5,,,,,,,,,0,64,0,,
13380,note_on,0,0,4,,,,,,,,,0,,,66,60
13380,note_on,0,0,1,,,,,,,,,0,,,76,0
13380,note_on,0,0,1,,,,,,,,,0,,,71,70
13380,note_on,60,0,4,,,,,,,,,0,,,63,60
13380,note_on,30,0,1,,,,,,,,,0,,,80,0
13380,note_on,0,0,1,,,,,,,,,0,,,78,70
13380,control_change,15,0,5,,,,,,,,,0,64,127,,
13410,note_on,30,0,4,,,,,,,,,0,,,63,0
13410,note_on,0,0,4,,,,,,,,,0,,,59,60
13440,note_on,0,0,1,,,,,,,,,0,,,71,0
13440,note_on,0,0,1,,,,,,,,,0,,,92,60
13440,note_on,0,0,1,,,,,,,,,0,,,95,60
13440,note_on,60,0,1,,,,,,,,,0,,,78,0
13440,note_on,30,0,4,,,,,,,,,0,,,59,0
13440,note_on,0,0,4,,,,,,,,,0,,,66,0
13470,note_on,30,0,1,,,,,,,,,0,,,92,0
13470,note_on,0,0,1,,,,,,,,,0,,,90,60
13470,note_on,0,0,1,,,,,,,,,0,,,93,60
13470,note_on,0,0,1,,,,,,,,,0,,,95,0
13485,control_change,105,0,5,,,,,,,,,0,64,0,,
13500,note_on,0,0,1,,,,,,,,,0,,,90,0
13500,note_on,0,0,4,,,,,,,,,0,,,52,60
13500,note_on,60,0,4,,,,,,,,,0,,,59,60
13500,note_on,30,0,1,,,,,,,,,0,,,93,0
13500,note_on,0,0,1,,,,,,,,,0,,,92,70
13500,control_change,15,0,5,,,,,,,,,0,64,127,,
13500,note_on,0,0,1,,,,,,,,,0,,,88,70
13530,note_on,30,0,4,,,,,,,,,0,,,59,0
13530,note_on,0,0,4,,,,,,,,,0,,,64,60
13560,note_on,360,0,3,,,,,,,,,0,,,71,60
13560,note_on,60,0,1,,,,,,,,,0,,,88,0
13560,note_on,0,0,1,,,,,,,,,0,,,92,60
13560,note_on,0,0,1,,,,,,,,,0,,,88,60
13560,note_on,30,0,4,,,,,,,,,0,,,64,0
13560,note_on,0,0,1,,,,,,,,,0,,,92,0
13590,note_on,0,0,1,,,,,,,,,0,,,90,60
13590,note_on,30,0,1,,,,,,,,,0,,,92,0
13590,note_on,0,0,1,,,,,,,,,0,,,88,0
13590,note_on,0,0,1,,,,,,,,,0,,,83,60
13605,control_change,105,0,5,,,,,,,,,0,64,0,,
13620,note_on,60,0,3,,,,,,,,,0,,,71,0
13620,note_on,0,0,1,,,,,,,,,0,,,80,70
13620,note_on,0,0,3,,,,,,,,,0,,,71,60
13620,note_on,0,0,3,,,,,,,,,0,,,64,60
13620,note_on,0,0,1,,,,,,,,,0,,,88,70
13620,note_on,30,0,1,,,,,,,,,0,,,90,0
13620,note_on,0,0,1,,,,,,,,,0,,,83,0
13620,note_on,60,0,4,,,,,,,,,0,,,52,0
13620,control_change,15,0,5,,,,,,,,,0,64,127,,
13650,note_on,30,0,3,,,,,,,,,0,,,64,0
13650,note_on,0,0,3,,,,,,,,,0,,,59,60
13680,note_on,0,0,1,,,,,,,,,0,,,83,60
13680,note_on,0,0,1,,,,,,,,,0,,,80,60
13680,note_on,0,0,1,,,,,,,,,0,,,80,0
13680,note_on,30,0,3,,,,,,,,,0,,,59,0
13680,note_on,60,0,4,,,,,,,,,0,,,52,60
13680,note_on,60,0,1,,,,,,,,,0,,,88,0
13710,note_on,0,0,1,,,,,,,,,0,,,81,60
13710,note_on,0,0,1,,,,,,,,,0,,,78,60
13710,note_on,30,0,1,,,,,,,,,0,,,83,0
13710,note_on,0,0,1,,,,,,,,,0,,,80,0
13725,control_change,105,0,5,,,,,,,,,0,64,0,,
13740,note_on,0,0,4,,,,,,,,,0,,,59,60
13740,note_on,0,0,4,,,,,,,,,0,,,52,60
13740,note_on,60,0,3,,,,,,,,,0,,,71,0
13740,note_on,0,0,1,,,,,,,,,0,,,78,0
13740,note_on,0,0,1,,,,,,,,,0,,,76,70
13740,note_on,30,0,1,,,,,,,,,0,,,81,0
13740,note_on,0,0,1,,,,,,,,,0,,,80,70
13740,note_on,60,0,4,,,,,,,,,0,,,52,0
13740,control_change,15,0,5,,,,,,,,,0,64,127,,
13770,note_on,30,0,4,,,,,,,,,0,,,59,0
13770,note_on,0,0,4,,,,,,,,,0,,,64,60
13800,note_on,0,0,1,,,,,,,,,0,,,80,60
13800,note_on,30,0,4,,,,,,,,,0,,,64,0
13800,note_on,60,0,3,,,,,,,,,0,,,71,60
13800,note_on,60,0,1,,,,,,,,,0,,,76,0
13800,note_on,0,0,1,,,,,,,,,0,,,76,60
13800,note_on,0,0,1,,,,,,,,,0,,,80,0
13830,note_on,0,0,1,,,,,,,,,0,,,71,60
13830,note_on,0,0,1,,,,,,,,,0,,,78,60
13830,note_on,0,0,1,,,,,,,,,0,,,80,0
13830,note_on,30,0,1,,,,,,,,,0,,,76,0
13845,control_change,105,0,5,,,,,,,,,0,64,0,,
13860,note_on,0,0,3,,,,,,,,,0,,,71,60
13860,note_on,0,0,3,,,,,,,,,0,,,64,60
13860,note_on,0,0,1,,,,,,,,,0,,,71,0
13860,control_change,15,0,5,,,,,,,,,0,64,127,,
13860,note_on,0,0,1,,,,,,,,,0,,,68,70
13860,note_on,60,0,4,,,,,,,,,0,,,52,0
13860,note_on,30,0,1,,,,,,,,,0,,,78,0
13860,note_on,60,0,3,,,,,,,,,0,,,71,0
13860,note_on,0,0,1,,,,,,,,,0,,,76,70
13890,note_on,30,0,3,,,,,,,,,0,,,64,0
13890,note_on,0,0,3,,,,,,,,,0,,,59,60
13920,note_on,60,0,1,,,,,,,,,0,,,76,0
13920,note_on,60,0,4,,,,,,,,,0,,,52,60
13920,note_on,0,0,1,,,,,,,,,0,,,68,0
13920,note_on,0,0,1,,,,,,,,,0,,,76,60
13920,note_on,30,0,3,,,,,,,,,0,,,59,0
13920,note_on,0,0,1,,,,,,,,,0,,,68,60
13950,note_on,0,0,1,,,,,,,,,0,,,78,60
13950,note_on,30,0,1,,,,,,,,,0,,,68,0
13950,note_on,0,0,1,,,,,,,,,0,,,76,0
13950,note_on,0,0,1,,,,,,,,,0,,,71,60
13965,control_change,105,0,5,,,,,,,,,0,64,0,,
13980,note_on,0,0,1,,,,,,,,,0,,,76,70
13980,note_on,0,0,1,,,,,,,,,0,,,78,0
13980,note_on,0,0,1,,,,,,,,,0,,,80,70
13980,note_on,60,0,4,,,,,,,,,0,,,52,0
13980,note_on,0,0,4,,,,,,,,,0,,,59,60
13980,note_on,30,0,1,,,,,,,,,0,,,71,0
13980,control_change,15,0,5,,,,,,,,,0,64,127,,
13980,set_tempo,1500,1,0,,,,,,714371,,,,,,,
13980,note_on,60,0,3,,,,,,,,,0,,,71,0
13980,note_on,0,0,4,,,,,,,,,0,,,52,60
13988,set_tempo,8,1,0,,,,,,716932,,,,,,,
13992,set_tempo,4,1,0,,,,,,719511,,,,,,,
13997,set_tempo,5,1,0,,,,,,722109,,,,,,,
14001,set_tempo,4,1,0,,,,,,724725,,,,,,,
14005,set_tempo,4,1,0,,,,,,727361,,,,,,,
14010,set_tempo,5,1,0,,,,,,730016,,,,,,,
14010,note_on,30,0,4,,,,,,,,,0,,,64,60
14014,set_tempo,4,1,0,,,,,,732690,,,,,,,
14018,set_tempo,4,1,0,,,,,,735384,,,,,,,
14027,set_tempo,9,1,0,,,,,,738098,,,,,,,
14031,set_tempo,4,1,0,,,,,,740832,,,,,,,
14035,set_tempo,4,1,0,,,,,,743587,,,,,,,
14040,note_on,0,0,1,,,,,,,,,0,,,78,60
14040,set_tempo,5,1,0,,,,,,746361,,,,,,,
14040,note_on,0,0,1,,,,,,,,,0,,,80,0
14040,note_on,0,0,1,,,,,,,,,0,,,81,60
14040,note_on,0,0,4,,,,,,,,,0,,,52,0
14040,note_on,0,0,4,,,,,,,,,0,,,59,0
14040,note_on,60,0,1,,,,,,,,,0,,,76,0
14040,note_on,30,0,4,,,,,,,,,0,,,64,0
14044,set_tempo,4,1,0,,,,,,749157,,,,,,,
14048,set_tempo,4,1,0,,,,,,751974,,,,,,,
14052,set_tempo,4,1,0,,,,,,754812,,,,,,,
14057,set_tempo,5,1,0,,,,,,757671,,,,,,,
14065,set_tempo,8,1,0,,,,,,760553,,,,,,,
14070,set_tempo,5,1,0,,,,,,763456,,,,,,,
14070,note_on,0,0,1,,,,,,,,,0,,,81,0
14070,note_on,0,0,1,,,,,,,,,0,,,80,60
14070,note_on,0,0,1,,,,,,,,,0,,,76,60
14070,note_on,30,0,1,,,,,,,,,0,,,78,0
14074,set_tempo,4,1,0,,,,,,766381,,,,,,,
14078,set_tempo,4,1,0,,,,,,769329,,,,,,,
14082,set_tempo,4,1,0,,,,,,772300,,,,,,,
14085,control_change,105,0,5,,,,,,,,,0,64,0,,
14087,set_tempo,5,1,0,,,,,,775294,,,,,,,
14091,set_tempo,4,1,0,,,,,,778311,,,,,,,
14095,set_tempo,4,1,0,,,,,,781352,,,,,,,
14100,note_on,0,0,1,,,,,,,,,0,,,78,70
14100,note_on,0,0,1,,,,,,,,,0,,,71,70
14100,control_change,15,0,5,,,,,,,,,0,64,127,,
14100,note_on,0,0,1,,,,,,,,,0,,,76,0
14100,note_on,0,0,3,,,,,,,,,0,,,63,60
14100,note_on,120,0,3,,,,,,,,,0,,,69,60
14100,note_on,30,0,1,,,,,,,,,0,,,80,0
14104,set_tempo,9,1,0,,,,,,784416,,,,,,,
14108,set_tempo,4,1,0,,,,,,787505,,,,,,,
14112,set_tempo,4,1,0,,,,,,790618,,,,,,,
14117,set_tempo,5,1,0,,,,,,793756,,,,,,,
14121,set_tempo,4,1,0,,,,,,796919,,,,,,,
14125,set_tempo,4,1,0,,,,,,800107,,,,,,,
14130,note_on,30,0,3,,,,,,,,,0,,,59,60
14130,set_tempo,5,1,0,,,,,,803320,,,,,,,
14134,set_tempo,4,1,0,,,,,,806560,,,,,,,
14142,set_tempo,8,1,0,,,,,,809826,,,,,,,
14147,set_tempo,5,1,0,,,,,,813118,,,,,,,
14151,set_tempo,4,1,0,,,,,,816438,,,,,,,
14155,set_tempo,4,1,0,,,,,,819784,,,,,,,
14160,note_on,60,0,1,,,,,,,,,0,,,78,0
14160,note_on,0,0,1,,,,,,,,,0,,,76,60
14160,note_on,0,0,3,,,,,,,,,0,,,69,0
14160,note_on,30,0,3,,,,,,,,,0,,,59,0
14160,note_on,0,0,3,,,,,,,,,0,,,63,0
14160,note_on,0,0,1,,,,,,,,,0,,,71,0
14160,note_on,0,0,1,,,,,,,,,0,,,80,60
14160,set_tempo,5,1,0,,,,,,823158,,,,,,,
14164,set_tempo,4,1,0,,,,,,826560,,,,,,,
14168,set_tempo,4,1,0,,,,,,829990,,,,,,,
14172,set_tempo,4,1,0,,,,,,833449,,,,,,,
14181,set_tempo,9,1,0,,,,,,836937,,,,,,,
14185,set_tempo,4,1,0,,,,,,840454,,,,,,,
14190,note_on,0,0,1,,,,,,,,,0,,,80,0
14190,set_tempo,5,1,0,,,,,,844001,,,,,,,
14190,note_on,0,0,1,,,,,,,,,0,,,71,60
14190,note_on,0,0,1,,,,,,,,,0,,,78,60
14190,note_on,30,0,1,,,,,,,,,0,,,76,0
14194,set_tempo,4,1,0,,,,,,847577,,,,,,,
14198,set_tempo,4,1,0,,,,,,851185,,,,,,,
14202,set_tempo,4,1,0,,,,,,854823,,,,,,,
14205,control_change,105,0,5,,,,,,,,,0,64,0,,
14207,set_tempo,5,1,0,,,,,,858492,,,,,,,
14211,set_tempo,4,1,0,,,,,,862193,,,,,,,
14215,set_tempo,4,1,0,,,,,,865926,,,,,,,
14220,note_on,0,0,1,,,,,,,,,0,,,68,70
14220,note_on,0,0,1,,,,,,,,,0,,,71,0
14220,note_on,0,0,1,,,,,,,,,0,,,76,70
14220,note_on,30,0,1,,,,,,,,,0,,,78,0
14220,note_on,180,0,4,,,,,,,,,0,,,52,60
14220,set_tempo,5,1,0,,,,,,869565,,,,,,,
14220,control_change,15,0,5,,,,,,,,,0,64,127,,
14250,note_on,0,0,4,,,,,,,,,0,,,59,60
14250,note_on,30,0,4,,,,,,,,,0,,,52,0
14280,note_on,0,0,4,,,,,,,,,0,,,68,60
14280,note_on,30,0,4,,,,,,,,,0,,,59,0
14310,note_on,0,0,4,,,,,,,,,0,,,64,60
14310,note_on,30,0,4,,,,,,,,,0,,,68,0
14340,note_on,0,0,4,,,,,,,,,0,,,71,60
14340,note_on,120,0,1,,,,,,,,,0,,,68,0
14340,note_on,30,0,4,,,,,,,,,0,,,64,0
14340,note_on,0,0,1,,,,,,,,,0,,,76,0
14340,control_change,120,0,5,,,,,,,,,0,64,0,,
14400,set_tempo,180,1,0,,,,,,714286,,,,,,,
14400,note_on,0,0,1,,,,,,,,,0,,,64,100
14400,note_on,60,0,1,,,,,,,,,0,,,56,100
14400,note_on,60,0,4,,,,,,,,,0,,,71,0
14430,note_on,30,0,1,,,,,,,,,0,,,64,0
14430,note_on,0,0,1,,,,,,,,,0,,,56,0
14430,note_on,0,0,1,,,,,,,,,0,,,64,100
14430,note_on,0,0,1,,,,,,,,,0,,,68,100
14460,note_on,30,0,1,,,,,,,,,0,,,64,0
14460,note_on,0,0,1,,,,,,,,,0,,,66,110
14460,note_on,0,0,1,,,,,,,,,0,,,68,0
14460,note_on,0,0,1,,,,,,,,,0,,,59,110
14520,note_on,0,0,1,,,,,,,,,0,,,59,0
14520,note_on,60,0,1,,,,,,,,,0,,,66,0
14520,note_on,0,0,1,,,,,,,,,0,,,64,100
14520,note_on,0,0,1,,,,,,,,,0,,,68,100
14550,note_on,30,0,1,,,,,,,,,0,,,68,0
14550,note_on,0,0,1,,,,,,,,,0,,,66,100
14550,note_on,0,0,1,,,,,,,,,0,,,69,100
14550,note_on,0,0,1,,,,,,,,,0,,,64,0
14580,note_on,0,0,1,,,,,,,,,0,,,69,0
14580,note_on,30,0,1,,,,,,,,,0,,,66,0
14580,note_on,0,0,1,,,,,,,,,0,,,71,110
14580,note_on,0,0,1,,,,,,,,,0,,,68,110
14640,note_on,60,0,1,,,,,,,,,0,,,68,0
14640,note_on,0,0,1,,,,,,,,,0,,,73,100
14640,note_on,0,0,1,,,,,,,,,0,,,71,0
14640,note_on,0,0,1,,,,,,,,,0,,,69,100
14670,note_on,0,0,1,,,,,,,,,0,,,71,100
14670,note_on,0,0,1,,,,,,,,,0,,,73,0
14670,note_on,0,0,1,,,,,,,,,0,,,68,100
14670,note_on,30,0,1,,,,,,,,,0,,,69,0
14700,note_on,0,0,1,,,,,,,,,0,,,66,110
14700,note_on,0,0,1,,,,,,,,,0,,,68,0
14700,note_on,30,0,1,,,,,,,,,0,,,71,0
14700,note_on,0,0,1,,,,,,,,,0,,,69,110
14760,note_on,0,0,1,,,,,,,,,0,,,64,100
14760,note_on,60,0,1,,,,,,,,,0,,,69,0
14760,note_on,0,0,1,,,,,,,,,0,,,66,0
14760,note_on,0,0,1,,,,,,,,,0,,,68,100
14790,note_on,30,0,1,,,,,,,,,0,,,64,0
14790,note_on,0,0,1,,,,,,,,,0,,,66,100
14790,note_on,0,0,1,,,,,,,,,0,,,68,0
14790,note_on,0,0,1,,,,,,,,,0,,,69,100
14820,note_on,0,0,1,,,,,,,,,0,,,59,110
14820,note_on,30,0,1,,,,,,,,,0,,,69,0
14820,note_on,0,0,1,,,,,,,,,0,,,66,0
14820,note_on,0,0,1,,,,,,,,,0,,,66,110
14880,note_on,0,0,1,,,,,,,,,0,,,56,100
14880,note_on,0,0,1,,,,,,,,,0,,,59,0
14880,note_on,0,0,1,,,,,,,,,0,,,64,100
14880,note_on,60,0,1,,,,,,,,,0,,,66,0
14910,note_on,30,0,1,,,,,,,,,0,,,64,0
14910,note_on,0,0,1,,,,,,,,,0,,,56,0
14910,note_on,0,0,1,,,,,,,,,0,,,64,100
14910,note_on,0,0,1,,,,,,,,,0,,,68,100
14940,note_on,0,0,1,,,,,,,,,0,,,68,0
14940,note_on,0,0,1,,,,,,,,,0,,,66,110
14940,note_on,0,0,1,,,,,,,,,0,,,59,110
14940,note_on,30,0,1,,,,,,,,,0,,,64,0
15000,note_on,0,0,1,,,,,,,,,0,,,68,100
15000,note_on,60,0,1,,,,,,,,,0,,,66,0
15000,note_on,0,0,1,,,,,,,,,0,,,64,100
15000,note_on,0,0,1,,,,,,,,,0,,,59,0
15030,note_on,30,0,1,,,,,,,,,0,,,64,0
15030,note_on,0,0,1,,,,,,,,,0,,,69,100
15030,note_on,0,0,1,,,,,,,,,0,,,68,0
15030,note_on,0,0,1,,,,,,,,,0,,,66,100
15060,note_on,0,0,1,,,,,,,,,0,,,71,110
15060,note_on,0,0,1,,,,,,,,,0,,,69,0
15060,note_on,0,0,1,,,,,,,,,0,,,68,110
15060,set_tempo,660,1,0,,,,,,714371,,,,,,,
15060,note_on,30,0,1,,,,,,,,,0,,,66,0
15068,set_tempo,8,1,0,,,,,,716932,,,,,,,
15072,set_tempo,4,1,0,,,,,,719511,,,,,,,
15077,set_tempo,5,1,0,,,,,,722109,,,,,,,
15081,set_tempo,4,1,0,,,,,,724725,,,,,,,
15085,set_tempo,4,1,0,,,,,,727361,,,,,,,
15090,set_tempo,5,1,0,,,,,,730016,,,,,,,
15094,set_tempo,4,1,0,,,,,,732690,,,,,,,
15098,set_tempo,4,1,0,,,,,,735384,,,,,,,
15107,set_tempo,9,1,0,,,,,,738098,,,,,,,
15111,set_tempo,4,1,0,,,,,,740832,,,,,,,
15115,set_tempo,4,1,0,,,,,,743587,,,,,,,
15120,note_on,0,0,1,,,,,,,,,0,,,69,100
15120,note_on,0,0,1,,,,,,,,,0,,,71,0
15120,note_on,0,0,1,,,,,,,,,0,,,73,100
15120,note_on,60,0,1,,,,,,,,,0,,,68,0
15120,set_tempo,5,1,0,,,,,,746361,,,,,,,
15124,set_tempo,4,1,0,,,,,,749157,,,,,,,
15128,set_tempo,4,1,0,,,,,,751974,,,,,,,
15132,set_tempo,4,1,0,,,,,,754812,,,,,,,
15137,set_tempo,5,1,0,,,,,,757671,,,,,,,
15145,set_tempo,8,1,0,,,,,,760553,,,,,,,
15150,note_on,0,0,1,,,,,,,,,0,,,73,0
15150,note_on,0,0,1,,,,,,,,,0,,,68,100
15150,note_on,0,0,1,,,,,,,,,0,,,71,100
15150,set_tempo,5,1,0,,,,,,763456,,,,,,,
15150,note_on,30,0,1,,,,,,,,,0,,,69,0
15154,set_tempo,4,1,0,,,,,,766381,,,,,,,
15158,set_tempo,4,1,0,,,,,,769329,,,,,,,
15162,set_tempo,4,1,0,,,,,,772300,,,,,,,
15167,set_tempo,5,1,0,,,,,,775294,,,,,,,
15171,set_tempo,4,1,0,,,,,,778311,,,,,,,
15175,set_tempo,4,1,0,,,,,,781352,,,,,,,
15180,note_on,0,0,1,,,,,,,,,0,,,69,110
15180,note_on,0,0,1,,,,,,,,,0,,,68,0
15180,note_on,0,0,1,,,,,,,,,0,,,66,110
15180,note_on,30,0,1,,,,,,,,,0,,,71,0
15184,set_tempo,9,1,0,,,,,,784416,,,,,,,
15188,set_tempo,4,1,0,,,,,,787505,,,,,,,
15192,set_tempo,4,1,0,,,,,,790618,,,,,,,
15197,set_tempo,5,1,0,,,,,,793756,,,,,,,
15201,set_tempo,4,1,0,,,,,,796919,,,,,,,
15205,set_tempo,4,1,0,,,,,,800107,,,,,,,
15210,set_tempo,5,1,0,,,,,,803320,,,,,,,
15214,set_tempo,4,1,0,,,,,,806560,,,,,,,
15222,set_tempo,8,1,0,,,,,,809826,,,,,,,
15227,set_tempo,5,1,0,,,,,,813118,,,,,,,
15231,set_tempo,4,1,0,,,,,,816438,,,,,,,
15235,set_tempo,4,1,0,,,,,,819784,,,,,,,
15240,note_on,0,0,1,,,,,,,,,0,,,64,100
15240,set_tempo,5,1,0,,,,,,823158,,,,,,,
15240,note_on,0,0,1,,,,,,,,,0,,,69,0
15240,note_on,0,0,1,,,,,,,,,0,,,68,100
15240,note_on,60,0,1,,,,,,,,,0,,,66,0
15244,set_tempo,4,1,0,,,,,,826560,,,,,,,
15248,set_tempo,4,1,0,,,,,,829990,,,,,,,
15252,set_tempo,4,1,0,,,,,,833449,,,,,,,
15261,set_tempo,9,1,0,,,,,,836937,,,,,,,
15265,set_tempo,4,1,0,,,,,,840454,,,,,,,
15270,note_on,0,0,1,,,,,,,,,0,,,69,100
15270,note_on,0,0,1,,,,,,,,,0,,,68,0
15270,note_on,0,0,1,,,,,,,,,0,,,66,100
15270,note_on,30,0,1,,,,,,,,,0,,,64,0
15270,set_tempo,5,1,0,,,,,,844001,,,,,,,
15274,set_tempo,4,1,0,,,,,,847577,,,,,,,
15278,set_tempo,4,1,0,,,,,,851185,,,,,,,
15282,set_tempo,4,1,0,,,,,,854823,,,,,,,
15287,set_tempo,5,1,0,,,,,,858492,,,,,,,
15291,set_tempo,4,1,0,,,,,,862193,,,,,,,
15295,set_tempo,4,1,0,,,,,,865926,,,,,,,
15300,note_on,0,0,1,,,,,,,,,0,,,66,110
15300,note_on,30,0,1,,,,,,,,,0,,,66,0
15300,set_tempo,5,1,0,,,,,,869565,,,,,,,
15300,note_on,0,0,1,,,,,,,,,0,,,59,110
15300,note_on,0,0,1,,,,,,,,,0,,,69,0
15360,note_on,60,0,1,,,,,,,,,0,,,66,0
15360,note_on,0,0,1,,,,,,,,,0,,,59,0
15360,note_on,0,0,1,,,,,,,,,0,,,92,60
15360,note_on,0,0,1,,,,,,,,,0,,,95,60
15360,set_tempo,60,1,0,,,,,,714286,,,,,,,
15390,note_on,30,0,1,,,,,,,,,0,,,92,0
15390,note_on,0,0,1,,,,,,,,,0,,,90,60
15390,note_on,0,0,1,,,,,,,,,0,,,93,60
15390,note_on,0,0,1,,,,,,,,,0,,,95,0
15420,note_on,30,0,1,,,,,,,,,0,,,93,0
15420,note_on,0,0,4,,,,,,,,,0,,,52,60
15420,note_on,1020,0,4,,,,,,,,,0,,,59,60
15420,control_change,1080,0,5,,,,,,,,,0,64,127,,
15420,note_on,0,0,1,,,,,,,,,0,,,92,70
15420,note_on,0,0,1,,,,,,,,,0,,,88,70
15420,note_on,0,0,1,,,,,,,,,0,,,90,0
15450,note_on,0,0,4,,,,,,,,,0,,,64,60
15450,note_on,30,0,4,,,,,,,,,0,,,59,0
15480,note_on,1320,0,3,,,,,,,,,0,,,71,60
15480,note_on,30,0,4,,,,,,,,,0,,,64,0
15480,note_on,60,0,1,,,,,,,,,0,,,88,0
15480,note_on,0,0,1,,,,,,,,,0,,,88,60
15480,note_on,0,0,1,,,,,,,,,0,,,92,0
15480,note_on,0,0,1,,,,,,,,,0,,,92,60
15510,note_on,0,0,1,,,,,,,,,0,,,92,0
15510,note_on,30,0,1,,,,,,,,,0,,,88,0
15510,note_on,0,0,1,,,,,,,,,0,,,83,60
15510,note_on,0,0,1,,,,,,,,,0,,,90,60
15525,control_change,105,0,5,,,,,,,,,0,64,0,,
15540,note_on,0,0,3,,,,,,,,,0,,,71,60
15540,note_on,0,0,3,,,,,,,,,0,,,64,60
15540,note_on,0,0,1,,,,,,,,,0,,,88,70
15540,note_on,60,0,3,,,,,,,,,0,,,71,0
15540,note_on,0,0,1,,,,,,,,,0,,,80,70
15540,note_on,60,0,4,,,,,,,,,0,,,52,0
15540,control_change,15,0,5,,,,,,,,,0,64,127,,
15540,note_on,0,0,1,,,,,,,,,0,,,83,0
15540,note_on,30,0,1,,,,,,,,,0,,,90,0
15570,note_on,30,0,3,,,,,,,,,0,,,64,0
15570,note_on,0,0,3,,,,,,,,,0,,,59,60
15600,note_on,60,0,4,,,,,,,,,0,,,52,60
15600,note_on,0,0,1,,,,,,,,,0,,,80,60
15600,note_on,0,0,1,,,,,,,,,0,,,83,60
15600,note_on,30,0,3,,,,,,,,,0,,,59,0
15600,note_on,0,0,1,,,,,,,,,0,,,88,0
15600,note_on,60,0,1,,,,,,,,,0,,,80,0
15630,note_on,30,0,1,,,,,,,,,0,,,80,0
15630,note_on,0,0,1,,,,,,,,,0,,,81,60
15630,note_on,0,0,1,,,,,,,,,0,,,78,60
15630,note_on,0,0,1,,,,,,,,,0,,,83,0
15645,control_change,105,0,5,,,,,,,,,0,64,0,,
15660,note_on,60,0,3,,,,,,,,,0,,,71,0
15660,note_on,0,0,4,,,,,,,,,0,,,52,60
15660,note_on,0,0,4,,,,,,,,,0,,,59,60
15660,control_change,15,0,5,,,,,,,,,0,64,127,,
15660,note_on,30,0,1,,,,,,,,,0,,,81,0
15660,note_on,0,0,1,,,,,,,,,0,,,76,70
15660,note_on,0,0,1,,,,,,,,,0,,,78,0
15660,note_on,0,0,1,,,,,,,,,0,,,80,70
15660,note_on,60,0,4,,,,,,,,,0,,,52,0
15690,note_on,0,0,4,,,,,,,,,0,,,64,60
15690,note_on,30,0,4,,,,,,,,,0,,,59,0
15720,note_on,60,0,1,,,,,,,,,0,,,76,0
15720,note_on,0,0,1,,,,,,,,,0,,,76,60
15720,note_on,0,0,1,,,,,,,,,0,,,80,0
15720,note_on,0,0,1,,,,,,,,,0,,,80,60
15720,note_on,60,0,3,,,,,,,,,0,,,71,60
15720,note_on,30,0,4,,,,,,,,,0,,,64,0
15750,note_on,0,0,1,,,,,,,,,0,,,80,0
15750,note_on,30,0,1,,,,,,,,,0,,,76,0
15750,note_on,0,0,1,,,,,,,,,0,,,71,60
15750,note_on,0,0,1,,,,,,,,,0,,,78,60
15765,control_change,105,0,5,,,,,,,,,0,64,0,,
15780,note_on,0,0,3,,,,,,,,,0,,,64,60
15780,note_on,60,0,4,,,,,,,,,0,,,52,0
15780,note_on,0,0,1,,,,,,,,,0,,,68,70
15780,note_on,0,0,3,,,,,,,,,0,,,71,60
15780,note_on,0,0,1,,,,,,,,,0,,,76,70
15780,note_on,60,0,3,,,,,,,,,0,,,71,0
15780,note_on,30,0,1,,,,,,,,,0,,,78,0
15780,note_on,0,0,1,,,,,,,,,0,,,71,0
15780,control_change,15,0,5,,,,,,,,,0,64,127,,
15810,note_on,0,0,3,,,,,,,,,0,,,59,60
15810,note_on,30,0,3,,,,,,,,,0,,,64,0
15840,note_on,60,0,4,,,,,,,,,0,,,52,60
15840,note_on,0,0,1,,,,,,,,,0,,,56,60
15840,note_on,0,0,1,,,,,,,,,0,,,64,60
15840,note_on,0,0,1,,,,,,,,,0,,,68,0
15840,note_on,60,0,1,,,,,,,,,0,,,76,0
15840,note_on,30,0,3,,,,,,,,,0,,,59,0
15870,note_on,30,0,1,,,,,,,,,0,,,64,0
15870,note_on,0,0,1,,,,,,,,,0,,,56,0
15870,note_on,0,0,1,,,,,,,,,0,,,66,60
15870,note_on,0,0,1,,,,,,,,,0,,,59,60
15885,control_change,105,0,5,,,,,,,,,0,64,0,,
15900,note_on,60,0,4,,,,,,,,,0,,,52,0
15900,note_on,0,0,1,,,,,,,,,0,,,68,70
15900,note_on,0,0,1,,,,,,,,,0,,,64,70
15900,set_tempo,540,1,0,,,,,,714371,,,,,,,
15900,note_on,30,0,1,,,,,,,,,0,,,59,0
15900,note_on,60,0,3,,,,,,,,,0,,,71,0
15900,note_on,0,0,1,,,,,,,,,0,,,66,0
15908,set_tempo,8,1,0,,,,,,716932,,,,,,,
15912,set_tempo,4,1,0,,,,,,719511,,,,,,,
15917,set_tempo,5,1,0,,,,,,722109,,,,,,,
15921,set_tempo,4,1,0,,,,,,724725,,,,,,,
15925,set_tempo,4,1,0,,,,,,727361,,,,,,,
15930,set_tempo,5,1,0,,,,,,730016,,,,,,,
15934,set_tempo,4,1,0,,,,,,732690,,,,,,,
15938,set_tempo,4,1,0,,,,,,735384,,,,,,,
15947,set_tempo,9,1,0,,,,,,738098,,,,,,,
15951,set_tempo,4,1,0,,,,,,740832,,,,,,,
15955,set_tempo,4,1,0,,,,,,743587,,,,,,,
15960,note_on,0,0,1,,,,,,,,,0,,,68,0
15960,note_on,60,0,1,,,,,,,,,0,,,64,0
15960,note_on,0,0,1,,,,,,,,,0,,,69,60
15960,note_on,0,0,1,,,,,,,,,0,,,66,60
15960,set_tempo,5,1,0,,,,,,746361,,,,,,,
15964,set_tempo,4,1,0,,,,,,749157,,,,,,,
15968,set_tempo,4,1,0,,,,,,751974,,,,,,,
15972,set_tempo,4,1,0,,,,,,754812,,,,,,,
15977,set_tempo,5,1,0,,,,,,757671,,,,,,,
15985,set_tempo,8,1,0,,,,,,760553,,,,,,,
15990,note_on,30,0,1,,,,,,,,,0,,,66,0
15990,note_on,0,0,1,,,,,,,,,0,,,68,60
15990,note_on,0,0,1,,,,,,,,,0,,,69,0
15990,set_tempo,5,1,0,,,,,,763456,,,,,,,
15990,note_on,0,0,1,,,,,,,,,0,,,64,60
15994,set_tempo,4,1,0,,,,,,766381,,,,,,,
15998,set_tempo,4,1,0,,,,,,769329,,,,,,,
16002,set_tempo,4,1,0,,,,,,772300,,,,,,,
16007,set_tempo,5,1,0,,,,,,775294,,,,,,,
16011,set_tempo,4,1,0,,,,,,778311,,,,,,,
16015,set_tempo,4,1,0,,,,,,781352,,,,,,,
16020,note_on,30,0,1,,,,,,,,,0,,,68,0
16020,note_on,120,0,4,,,,,,,,,0,,,66,70
16020,note_on,0,0,4,,,,,,,,,0,,,59,70
16020,note_on,0,0,1,,,,,,,,,0,,,64,0
16024,set_tempo,9,1,0,,,,,,784416,,,,,,,
16028,set_tempo,4,1,0,,,,,,787505,,,,,,,
16032,set_tempo,4,1,0,,,,,,790618,,,,,,,
16037,set_tempo,5,1,0,,,,,,793756,,,,,,,
16041,set_tempo,4,1,0,,,,,,796919,,,,,,,
16045,set_tempo,4,1,0,,,,,,800107,,,,,,,
16050,set_tempo,5,1,0,,,,,,803320,,,,,,,
16054,set_tempo,4,1,0,,,,,,806560,,,,,,,
16062,set_tempo,8,1,0,,,,,,809826,,,,,,,
16067,set_tempo,5,1,0,,,,,,813118,,,,,,,
16071,set_tempo,4,1,0,,,,,,816438,,,,,,,
16075,set_tempo,4,1,0,,,,,,819784,,,,,,,
16080,note_on,0,0,1,,,,,,,,,0,,,64,60
16080,note_on,0,0,4,,,,,,,,,0,,,66,0
16080,note_on,60,0,4,,,,,,,,,0,,,59,0
16080,note_on,60,0,1,,,,,,,,,0,,,68,60
16080,set_tempo,5,1,0,,,,,,823158,,,,,,,
16084,set_tempo,4,1,0,,,,,,826560,,,,,,,
16088,set_tempo,4,1,0,,,,,,829990,,,,,,,
16092,set_tempo,4,1,0,,,,,,833449,,,,,,,
16101,set_tempo,9,1,0,,,,,,836937,,,,,,,
16105,set_tempo,4,1,0,,,,,,840454,,,,,,,
16110,set_tempo,5,1,0,,,,,,844001,,,,,,,
16110,note_on,0,0,1,,,,,,,,,0,,,68,0
16110,note_on,0,0,1,,,,,,,,,0,,,66,60
16110,note_on,0,0,1,,,,,,,,,0,,,59,60
16110,note_on,30,0,1,,,,,,,,,0,,,64,0
16114,set_tempo,4,1,0,,,,,,847577,,,,,,,
16118,set_tempo,4,1,0,,,,,,851185,,,,,,,
16122,set_tempo,4,1,0,,,,,,854823,,,,,,,
16127,set_tempo,5,1,0,,,,,,858492,,,,,,,
16131,set_tempo,4,1,0,,,,,,862193,,,,,,,
16135,set_tempo,4,1,0,,,,,,865926,,,,,,,
16140,note_on,30,0,1,,,,,,,,,0,,,66,0
16140,key_signature,5,1,0,,,,,C,,,,,,,,
16140,marker,0,1,0,,,,,,,,,,,,,
16140,note_on,60,0,4,,,,,,,,,0,,,64,70
16140,note_on,0,0,4,,,,,,,,,0,,,56,70
16140,set_tempo,0,1,0,,,,,,1666667,,,,,,,
16140,note_on,0,0,1,,,,,,,,,0,,,59,0
16320,note_on,0,0,1,,,,,,,,,0,,,64,100
16320,note_on,180,0,1,,,,,,,,,0,,,76,100
16320,note_on,0,0,4,,,,,,,,,0,,,64,0
16320,note_on,0,0,4,,,,,,,,,0,,,52,100
16320,note_on,0,0,4,,,,,,,,,0,,,40,100
16320,note_on,180,0,4,,,,,,,,,0,,,56,0
16320,set_tempo,180,1,0,,,,,,714286,,,,,,,
16380,note_on,0,0,1,,,,,,,,,0,,,69,120
16380,note_on,0,0,1,,,,,,,,,0,,,76,0
16380,note_on,0,0,1,,,,,,,,,0,,,81,120
16380,note_on,60,0,4,,,,,,,,,0,,,52,0
16380,note_on,60,0,1,,,,,,,,,0,,,64,0
16380,note_on,0,0,4,,,,,,,,,0,,,40,0
16380,note_on,0,0,4,,,,,,,,,0,,,45,120
16380,note_on,0,0,4,,,,,,,,,0,,,57,120
16560,note_on,0,0,1,,,,,,,,,0,,,64,120
16560,note_on,0,0,1,,,,,,,,,0,,,81,0
16560,note_on,180,0,1,,,,,,,,,0,,,69,0
16560,note_on,0,0,4,,,,,,,,,0,,,40,120
16560,note_on,0,0,4,,,,,,,,,0,,,52,120
16560,note_on,180,0,4,,,,,,,,,0,,,45,0
16560,note_on,0,0,1,,,,,,,,,0,,,76,120
16560,note_on,0,0,4,,,,,,,,,0,,,57,0
16620,note_on,60,0,1,,,,,,,,,0,,,64,0
16620,note_on,0,0,1,,,,,,,,,0,,,76,0
16620,note_on,0,0,1,,,,,,,,,0,,,72,120
16620,note_on,60,0,4,,,,,,,,,0,,,52,0
16620,note_on,0,0,4,,,,,,,,,0,,,36,120
16620,note_on,0,0,4,,,,,,,,,0,,,40,0
16620,note_on,0,0,4,,,,,,,,,0,,,48,120
16620,note_on,0,0,1,,,,,,,,,0,,,60,120
16680,note_on,0,0,1,,,,,,,,,0,,,60,0
16680,note_on,60,0,1,,,,,,,,,0,,,72,0
16680,note_on,60,0,4,,,,,,,,,0,,,48,0
16680,note_on,0,0,4,,,,,,,,,0,,,45,120
16680,note_on,0,0,4,,,,,,,,,0,,,36,0
16680,note_on,0,0,4,,,,,,,,,0,,,33,120
16680,note_on,0,0,1,,,,,,,,,0,,,69,120
16680,note_on,0,0,1,,,,,,,,,0,,,57,120
16740,note_on,0,0,4,,,,,,,,,0,,,33,0
16740,note_on,60,0,4,,,,,,,,,0,,,45,0
16740,note_on,0,0,1,,,,,,,,,0,,,57,0
16740,control_change,855,0,5,,,,,,,,,0,64,127,,
16740,note_on,60,0,1,,,,,,,,,0,,,69,0
16808,note_on,68,0,1,,,,,,,,,0,,,57,100
16808,note_on,68,0,4,,,,,,,,,0,,,48,100
16816,note_on,8,0,1,,,,,,,,,0,,,57,0
16816,note_on,0,0,1,,,,,,,,,0,,,59,100
16816,note_on,8,0,4,,,,,,,,,0,,,48,0
16816,note_on,0,0,4,,,,,,,,,0,,,50,100
16824,note_on,8,0,1,,,,,,,,,0,,,59,0
16824,note_on,0,0,4,,,,,,,,,0,,,52,100
16824,note_on,8,0,4,,,,,,,,,0,,,50,0
16824,note_on,0,0,1,,,,,,,,,0,,,60,100
16832,note_on,0,0,1,,,,,,,,,0,,,62,100
16832,note_on,8,0,4,,,,,,,,,0,,,52,0
16832,note_on,8,0,1,,,,,,,,,0,,,60,0
16832,note_on,0,0,4,,,,,,,,,0,,,53,100
16840,note_on,8,0,4,,,,,,,,,0,,,53,0
16840,note_on,8,0,1,,,,,,,,,0,,,62,0
16840,note_on,0,0,4,,,,,,,,,0,,,55,100
16840,note_on,0,0,1,,,,,,,,,0,,,64,100
16848,note_on,0,0,4,,,,,,,,,0,,,57,100
16848,note_on,0,0,1,,,,,,,,,0,,,65,100
16848,note_on,8,0,4,,,,,,,,,0,,,55,0
16848,note_on,8,0,1,,,,,,,,,0,,,64,0
16856,note_on,0,0,1,,,,,,,,,0,,,67,100
16856,note_on,0,0,4,,,,,,,,,0,,,59,100
16856,note_on,8,0,4,,,,,,,,,0,,,57,0
16856,note_on,8,0,1,,,,,,,,,0,,,65,0
16864,note_on,0,0,4,,,,,,,,,0,,,60,100
16864,note_on,8,0,4,,,,,,,,,0,,,59,0
16864,note_on,8,0,1,,,,,,,,,0,,,67,0
16864,note_on,0,0,1,,,,,,,,,0,,,69,100
16872,note_on,8,0,4,,,,,,,,,0,,,60,0
16872,note_on,0,0,1,,,,,,,,,0,,,71,100
16872,note_on,0,0,4,,,,,,,,,0,,,62,100
16872,note_on,8,0,1,,,,,,,,,0,,,69,0
16880,note_on,8,0,1,,,,,,,,,0,,,71,0
16880,note_on,8,0,4,,,,,,,,,0,,,62,0
16881,note_on,1,0,4,,,,,,,,,0,,,64,100
16881,note_on,1,0,1,,,,,,,,,0,,,72,100
16889,note_on,0,0,1,,,,,,,,,0,,,74,100
16889,note_on,0,0,4,,,,,,,,,0,,,65,100
16889,note_on,8,0,1,,,,,,,,,0,,,72,0
16889,note_on,8,0,4,,,,,,,,,0,,,64,0
16897,note_on,8,0,1,,,,,,,,,0,,,74,0
16897,note_on,0,0,1,,,,,,,,,0,,,67,100
16897,note_on,8,0,4,,,,,,,,,0,,,65,0
16897,note_on,0,0,1,,,,,,,,,0,,,76,100
16905,note_on,0,0,1,,,,,,,,,0,,,76,0
16905,note_on,8,0,1,,,,,,,,,0,,,67,0
16907,note_on,0,0,1,,,,,,,,,0,,,77,100
16907,note_on,2,0,1,,,,,,,,,0,,,69,100
16915,note_on,0,0,1,,,,,,,,,0,,,79,100
16915,note_on,8,0,1,,,,,,,,,0,,,77,0
16915,note_on,0,0,1,,,,,,,,,0,,,69,0
16915,note_on,0,0,1,,,,,,,,,0,,,71,100
16923,note_on,0,0,1,,,,,,,,,0,,,71,0
16923,note_on,0,0,1,,,,,,,,,0,,,72,100
16923,note_on,0,0,1,,,,,,,,,0,,,81,100
16923,note_on,8,0,1,,,,,,,,,0,,,79,0
16931,note_on,0,0,1,,,,,,,,,0,,,83,100
16931,note_on,8,0,1,,,,,,,,,0,,,72,0
16931,note_on,0,0,1,,,,,,,,,0,,,81,0
16931,note_on,0,0,1,,,,,,,,,0,,,74,100
16939,note_on,8,0,1,,,,,,,,,0,,,74,0
16939,note_on,0,0,1,,,,,,,,,0,,,84,100
16939,note_on,0,0,1,,,,,,,,,0,,,76,100
16939,note_on,0,0,1,,,,,,,,,0,,,83,0
16947,note_on,0,0,1,,,,,,,,,0,,,86,100
16947,note_on,8,0,1,,,,,,,,,0,,,76,0
16947,note_on,0,0,1,,,,,,,,,0,,,84,0
16947,note_on,0,0,1,,,,,,,,,0,,,77,100
16955,note_on,0,0,1,,,,,,,,,0,,,79,100
16955,note_on,0,0,1,,,,,,,,,0,,,88,100
16955,note_on,0,0,1,,,,,,,,,0,,,86,0
16955,note_on,8,0,1,,,,,,,,,0,,,77,0
16963,note_on,0,0,1,,,,,,,,,0,,,88,0
16963,note_on,8,0,1,,,,,,,,,0,,,79,0
16964,note_on,1,0,1,,,,,,,,,0,,,89,100
16964,note_on,0,0,1,,,,,,,,,0,,,81,100
16972,note_on,8,0,1,,,,,,,,,0,,,81,0
16972,note_on,0,0,1,,,,,,,,,0,,,83,100
16972,note_on,0,0,1,,,,,,,,,0,,,89,0
16972,note_on,0,0,1,,,,,,,,,0,,,91,100
16980,note_on,0,0,1,,,,,,,,,0,,,84,100
16980,note_on,0,0,1,,,,,,,,,0,,,91,0
16980,note_on,0,0,1,,,,,,,,,0,,,93,100
16980,note_on,8,0,1,,,,,,,,,0,,,83,0
16980,control_change,240,0,5,,,,,,,,,0,64,0,,
16995,note_on,15,0,1,,,,,,,,,0,,,84,0
16995,note_on,0,0,1,,,,,,,,,0,,,93,0
17040,note_on,0,0,3,,,,,,,,,0,,,77,100
17040,note_on,45,0,1,,,,,,,,,0,,,96,100
17040,note_on,0,0,1,,,,,,,,,0,,,89,100
17040,note_on,1140,0,3,,,,,,,,,0,,,83,100
17040,note_on,0,0,1,,,,,,,,,0,,,86,100
17040,note_on,0,0,3,,,,,,,,,0,,,74,100
17055,note_on,0,0,3,,,,,,,,,0,,,77,0
17055,note_on,0,0,3,,,,,,,,,0,,,83,0
17055,note_on,15,0,3,,,,,,,,,0,,,74,0
17055,note_on,0,0,1,,,,,,,,,0,,,89,0
17055,note_on,0,0,1,,,,,,,,,0,,,96,0
17055,note_on,15,0,1,,,,,,,,,0,,,86,0
17070,note_on,15,0,3,,,,,,,,,0,,,74,100
17070,note_on,0,0,1,,,,,,,,,0,,,86,100
17070,note_on,0,0,3,,,,,,,,,0,,,83,100
17070,note_on,0,0,3,,,,,,,,,0,,,77,100
17070,note_on,0,0,1,,,,,,,,,0,,,89,100
17070,note_on,15,0,1,,,,,,,,,0,,,95,100
17085,note_on,0,0,1,,,,,,,,,0,,,95,0
17085,note_on,15,0,3,,,,,,,,,0,,,83,0
17085,note_on,0,0,1,,,,,,,,,0,,,89,0
17085,note_on,0,0,3,,,,,,,,,0,,,77,0
17085,note_on,0,0,3,,,,,,,,,0,,,74,0
17085,note_on,15,0,1,,,,,,,,,0,,,86,0
17092,note_on,7,0,3,,,,,,,,,0,,,64,100
17100,note_on,8,0,3,,,,,,,,,0,,,64,0
17100,note_on,0,0,3,,,,,,,,,0,,,81,100
17100,note_on,0,0,3,,,,,,,,,0,,,76,100
17100,note_on,0,0,3,,,,,,,,,0,,,72,100
17100,note_on,15,0,1,,,,,,,,,0,,,93,100
17100,note_on,0,0,1,,,,,,,,,0,,,84,100
17115,note_on,15,0,1,,,,,,,,,0,,,93,0
17115,note_on,0,0,1,,,,,,,,,0,,,95,100
17130,note_on,0,0,1,,,,,,,,,0,,,93,100
17130,note_on,15,0,1,,,,,,,,,0,,,95,0
17145,note_on,0,0,1,,,,,,,,,0,,,95,100
17145,note_on,15,0,1,,,,,,,,,0,,,93,0
17160,note_on,0,0,1,,,,,,,,,0,,,93,100
17160,note_on,15,0,1,,,,,,,,,0,,,95,0
17175,note_on,0,0,1,,,,,,,,,0,,,92,100
17175,note_on,15,0,1,,,,,,,,,0,,,93,0
17190,note_on,0,0,1,,,,,,,,,0,,,95,100
17190,note_on,15,0,1,,,,,,,,,0,,,92,0
17205,note_on,0,0,1,,,,,,,,,0,,,93,100
17205,note_on,15,0,1,,,,,,,,,0,,,95,0
17220,note_on,15,0,1,,,,,,,,,0,,,93,0
17220,note_on,0,0,1,,,,,,,,,0,,,83,100
17220,note_on,0,0,1,,,,,,,,,0,,,84,0
17220,note_on,0,0,1,,,,,,,,,0,,,92,100
17220,note_on,120,0,3,,,,,,,,,0,,,72,0
17220,note_on,0,0,3,,,,,,,,,0,,,71,100
17220,note_on,0,0,3,,,,,,,,,0,,,81,0
17220,note_on,0,0,3,,,,,,,,,0,,,80,100
17220,note_on,0,0,3,,,,,,,,,0,,,76,100
17220,note_on,0,0,3,,,,,,,,,0,,,76,0
17280,note_on,0,0,4,,,,,,,,,0,,,50,100
17280,note_on,383,0,4,,,,,,,,,0,,,38,100
17280,note_on,0,0,1,,,,,,,,,0,,,62,100
17280,note_on,60,0,3,,,,,,,,,0,,,71,0
17280,note_on,0,0,3,,,,,,,,,0,,,80,0
17280,note_on,60,0,1,,,,,,,,,0,,,92,0
17280,note_on,0,0,3,,,,,,,,,0,,,76,0
17280,note_on,0,0,1,,,,,,,,,0,,,74,100
17280,note_on,0,0,1,,,,,,,,,0,,,83,0
17295,note_on,15,0,4,,,,,,,,,0,,,50,0
17295,note_on,0,0,1,,,,,,,,,0,,,62,0
17295,note_on,0,0,4,,,,,,,,,0,,,38,0
17295,note_on,15,0,1,,,,,,,,,0,,,74,0
17340,note_on,45,0,1,,,,,,,,,0,,,77,120
17340,note_on,0,0,1,,,,,,,,,0,,,65,120
17340,note_on,0,0,4,,,,,,,,,0,,,53,120
17340,note_on,45,0,4,,,,,,,,,0,,,41,120
17520,note_on,0,0,1,,,,,,,,,0,,,62,120
17520,note_on,0,0,1,,,,,,,,,0,,,74,120
17520,note_on,180,0,4,,,,,,,,,0,,,53,0
17520,note_on,0,0,1,,,,,,,,,0,,,77,0
17520,note_on,180,0,1,,,,,,,,,0,,,65,0
17520,note_on,0,0,4,,,,,,,,,0,,,41,0
17520,note_on,0,0,4,,,,,,,,,0,,,50,120
17520,note_on,0,0,4,,,,,,,,,0,,,38,120
17580,note_on,0,0,1,,,,,,,,,0,,,71,120
17580,note_on,0,0,1,,,,,,,,,0,,,62,0
17580,note_on,0,0,1,,,,,,,,,0,,,59,120
17580,note_on,0,0,4,,,,,,,,,0,,,35,120
17580,note_on,0,0,4,,,,,,,,,0,,,38,0
17580,note_on,0,0,4,,,,,,,,,0,,,47,120
17580,note_on,60,0,4,,,,,,,,,0,,,50,0
17580,note_on,60,0,1,,,,,,,,,0,,,74,0
17640,note_on,0,0,4,,,,,,,,,0,,,32,120
17640,note_on,0,0,4,,,,,,,,,0,,,35,0
17640,note_on,0,0,4,,,,,,,,,0,,,44,120
17640,note_on,60,0,1,,,,,,,,,0,,,71,0
17640,note_on,0,0,1,,,,,,,,,0,,,68,120
17640,note_on,60,0,4,,,,,,,,,0,,,47,0
17640,note_on,0,0,1,,,,,,,,,0,,,56,120
17640,note_on,0,0,1,,,,,,,,,0,,,59,0
17700,note_on,60,0,4,,,,,,,,,0,,,44,0
17700,note_on,0,0,1,,,,,,,,,0,,,56,0
17700,control_change,720,0,5,,,,,,,,,0,64,127,,
17700,note_on,60,0,1,,,,,,,,,0,,,68,0
17700,note_on,0,0,4,,,,,,,,,0,,,32,0
17768,note_on,68,0,4,,,,,,,,,0,,,50,100
17768,note_on,68,0,1,,,,,,,,,0,,,59,100
17776,note_on,8,0,1,,,,,,,,,0,,,59,0
17776,note_on,8,0,4,,,,,,,,,0,,,50,0
17776,note_on,0,0,4,,,,,,,,,0,,,52,100
17776,note_on,0,0,1,,,,,,,,,0,,,60,100
17784,note_on,0,0,4,,,,,,,,,0,,,53,100
17784,note_on,0,0,1,,,,,,,,,0,,,62,100
17784,note_on,8,0,1,,,,,,,,,0,,,60,0
17784,note_on,8,0,4,,,,,,,,,0,,,52,0
17792,note_on,0,0,4,,,,,,,,,0,,,55,100
17792,note_on,0,0,1,,,,,,,,,0,,,64,100
17792,note_on,8,0,4,,,,,,,,,0,,,53,0
17792,note_on,8,0,1,,,,,,,,,0,,,62,0
17800,note_on,0,0,1,,,,,,,,,0,,,65,100
17800,note_on,8,0,1,,,,,,,,,0,,,64,0
17800,note_on,0,0,4,,,,,,,,,0,,,57,100
17800,note_on,8,0,4,,,,,,,,,0,,,55,0
17808,note_on,0,0,4,,,,,,,,,0,,,59,100
17808,note_on,8,0,1,,,,,,,,,0,,,65,0
17808,note_on,0,0,1,,,,,,,,,0,,,67,100
17808,note_on,8,0,4,,,,,,,,,0,,,57,0
17816,note_on,8,0,1,,,,,,,,,0,,,67,0
17816,note_on,0,0,4,,,,,,,,,0,,,60,100
17816,note_on,8,0,4,,,,,,,,,0,,,59,0
17816,note_on,0,0,1,,,,,,,,,0,,,69,100
17824,note_on,8,0,4,,,,,,,,,0,,,60,0
17824,note_on,8,0,1,,,,,,,,,0,,,69,0
17824,note_on,0,0,1,,,,,,,,,0,,,71,100
17824,note_on,0,0,4,,,,,,,,,0,,,62,100
17832,note_on,8,0,1,,,,,,,,,0,,,71,0
17832,note_on,0,0,1,,,,,,,,,0,,,64,100
17832,note_on,0,0,1,,,,,,,,,0,,,72,100
17832,note_on,8,0,4,,,,,,,,,0,,,62,0
17840,note_on,0,0,1,,,,,,,,,0,,,72,0
17840,note_on,8,0,1,,,,,,,,,0,,,64,0
17841,note_on,1,0,1,,,,,,,,,0,,,74,100
17841,note_on,0,0,1,,,,,,,,,0,,,65,100
17849,note_on,0,0,1,,,,,,,,,0,,,74,0
17849,note_on,0,0,1,,,,,,,,,0,,,76,100
17849,note_on,8,0,1,,,,,,,,,0,,,65,0
17849,note_on,0,0,1,,,,,,,,,0,,,67,100
17857,note_on,0,0,1,,,,,,,,,0,,,77,100
17857,note_on,0,0,1,,,,,,,,,0,,,76,0
17857,note_on,0,0,1,,,,,,,,,0,,,69,100
17857,note_on,8,0,1,,,,,,,,,0,,,67,0
17865,note_on,8,0,1,,,,,,,,,0,,,69,0
17865,note_on,0,0,1,,,,,,,,,0,,,77,0
17867,note_on,0,0,1,,,,,,,,,0,,,71,100
17867,note_on,2,0,1,,,,,,,,,0,,,79,100
17875,note_on,0,0,1,,,,,,,,,0,,,72,100
17875,note_on,0,0,1,,,,,,,,,0,,,79,0
17875,note_on,0,0,1,,,,,,,,,0,,,81,100
17875,note_on,8,0,1,,,,,,,,,0,,,71,0
17883,note_on,0,0,1,,,,,,,,,0,,,74,100
17883,note_on,0,0,1,,,,,,,,,0,,,81,0
17883,note_on,8,0,1,,,,,,,,,0,,,72,0
17883,note_on,0,0,1,,,,,,,,,0,,,83,100
17891,note_on,0,0,1,,,,,,,,,0,,,76,100
17891,note_on,0,0,1,,,,,,,,,0,,,84,100
17891,note_on,8,0,1,,,,,,,,,0,,,74,0
17891,note_on,0,0,1,,,,,,,,,0,,,83,0
17899,note_on,0,0,1,,,,,,,,,0,,,84,0
17899,note_on,8,0,1,,,,,,,,,0,,,76,0
17899,note_on,0,0,1,,,,,,,,,0,,,77,100
17899,note_on,0,0,1,,,,,,,,,0,,,86,100
17907,note_on,0,0,1,,,,,,,,,0,,,88,100
17907,note_on,0,0,1,,,,,,,,,0,,,86,0
17907,note_on,0,0,1,,,,,,,,,0,,,79,100
17907,note_on,8,0,1,,,,,,,,,0,,,77,0
17915,note_on,8,0,1,,,,,,,,,0,,,79,0
17915,note_on,0,0,1,,,,,,,,,0,,,81,100
17915,note_on,0,0,1,,,,,,,,,0,,,89,100
17915,note_on,0,0,1,,,,,,,,,0,,,88,0
17923,note_on,8,0,1,,,,,,,,,0,,,81,0
17923,note_on,0,0,1,,,,,,,,,0,,,89,0
17924,note_on,0,0,1,,,,,,,,,0,,,83,100
17924,note_on,1,0,1,,,,,,,,,0,,,91,100
17932,note_on,0,0,1,,,,,,,,,0,,,84,100
17932,note_on,0,0,1,,,,,,,,,0,,,93,100
17932,note_on,0,0,1,,,,,,,,,0,,,91,0
17932,note_on,8,0,1,,,,,,,,,0,,,83,0
17940,note_on,8,0,1,,,,,,,,,0,,,84,0
17940,control_change,240,0,5,,,,,,,,,0,64,0,,
17940,note_on,0,0,1,,,,,,,,,0,,,86,100
17940,note_on,0,0,1,,,,,,,,,0,,,95,100
17940,note_on,0,0,1,,,,,,,,,0,,,93,0
17955,note_on,0,0,1,,,,,,,,,0,,,95,0
17955,note_on,15,0,1,,,,,,,,,0,,,86,0
18000,note_on,720,0,3,,,,,,,,,0,,,77,100
18000,note_on,45,0,1,,,,,,,,,0,,,98,100
18000,note_on,0,0,1,,,,,,,,,0,,,89,100
18000,note_on,0,0,3,,,,,,,,,0,,,68,100
18015,note_on,15,0,1,,,,,,,,,0,,,89,0
18015,note_on,15,0,3,,,,,,,,,0,,,68,0
18015,note_on,0,0,3,,,,,,,,,0,,,77,0
18015,note_on,0,0,1,,,,,,,,,0,,,98,0
18030,note_on,15,0,3,,,,,,,,,0,,,76,100
18030,note_on,0,0,3,,,,,,,,,0,,,68,100
18030,note_on,15,0,1,,,,,,,,,0,,,96,100
18030,note_on,0,0,1,,,,,,,,,0,,,88,100
18045,note_on,0,0,1,,,,,,,,,0,,,96,0
18045,note_on,15,0,3,,,,,,,,,0,,,68,0
18045,note_on,15,0,1,,,,,,,,,0,,,88,0
18045,note_on,0,0,3,,,,,,,,,0,,,76,0
18060,note_on,15,0,3,,,,,,,,,0,,,80,100
18060,note_on,15,0,1,,,,,,,,,0,,,95,100
18060,note_on,0,0,3,,,,,,,,,0,,,69,100
18060,note_on,0,0,3,,,,,,,,,0,,,77,100
18060,note_on,0,0,1,,,,,,,,,0,,,86,100
18075,note_on,0,0,1,,,,,,,,,0,,,96,100
18075,note_on,15,0,1,,,,,,,,,0,,,95,0
18090,note_on,15,0,1,,,,,,,,,0,,,96,0
18090,note_on,0,0,1,,,,,,,,,0,,,95,100
18105,note_on,15,0,1,,,,,,,,,0,,,95,0
18105,note_on,0,0,1,,,,,,,,,0,,,96,100
18120,note_on,0,0,1,,,,,,,,,0,,,95,100
18120,note_on,15,0,1,,,,,,,,,0,,,96,0
18135,note_on,0,0,1,,,,,,,,,0,,,93,100
18135,note_on,15,0,1,,,,,,,,,0,,,95,0
18150,note_on,15,0,1,,,,,,,,,0,,,93,0
18150,note_on,0,0,1,,,,,,,,,0,,,96,100
18165,note_on,15,0,1,,,,,,,,,0,,,96,0
18165,note_on,0,0,1,,,,,,,,,0,,,95,100
18180,note_on,0,0,3,,,,,,,,,0,,,81,100
18180,note_on,0,0,3,,,,,,,,,0,,,80,0
18180,note_on,0,0,1,,,,,,,,,0,,,86,0
18180,note_on,0,0,1,,,,,,,,,0,,,84,100
18180,note_on,120,0,3,,,,,,,,,0,,,69,0
18180,note_on,0,0,3,,,,,,,,,0,,,69,100
18180,note_on,0,0,3,,,,,,,,,0,,,76,100
18180,note_on,0,0,3,,,,,,,,,0,,,77,0
18180,note_on,15,0,1,,,,,,,,,0,,,95,0
18180,note_on,0,0,1,,,,,,,,,0,,,93,100
18195,note_on,15,0,3,,,,,,,,,0,,,69,0
18195,note_on,0,0,1,,,,,,,,,0,,,84,0
18195,note_on,15,0,1,,,,,,,,,0,,,93,0
18195,note_on,0,0,3,,,,,,,,,0,,,76,0
18195,note_on,0,0,3,,,,,,,,,0,,,81,0
18240,note_on,0,0,1,,,,,,,,,0,,,88,60
18240,note_on,45,0,1,,,,,,,,,0,,,100,60
18255,note_on,0,0,1,,,,,,,,,0,,,100,0
18255,note_on,15,0,1,,,,,,,,,0,,,88,0
18300,note_on,45,0,1,,,,,,,,,0,,,105,60
18300,note_on,0,0,1,,,,,,,,,0,,,93,60
18315,note_on,15,0,1,,,,,,,,,0,,,93,0
18315,note_on,0,0,1,,,,,,,,,0,,,105,0
18360,note_on,45,0,1,,,,,,,,,0,,,64,60
18375,note_on,15,0,1,,,,,,,,,0,,,64,0
18375,note_on,0,0,1,,,,,,,,,0,,,62,60
18390,note_on,15,0,1,,,,,,,,,0,,,62,0
18390,note_on,0,0,1,,,,,,,,,0,,,61,60
18405,note_on,15,0,1,,,,,,,,,0,,,61,0
18405,note_on,0,0,1,,,,,,,,,0,,,59,60
18420,note_on,15,0,1,,,,,,,,,0,,,59,0
18420,note_on,0,0,1,,,,,,,,,0,,,57,60
18420,note_on,225,0,3,,,,,,,,,0,,,67,60
18425,note_on,5,0,3,,,,,,,,,0,,,73,60
18430,note_on,5,0,3,,,,,,,,,0,,,76,60
18435,note_on,15,0,1,,,,,,,,,0,,,57,0
18435,note_on,5,0,3,,,,,,,,,0,,,67,0
18435,note_on,0,0,3,,,,,,,,,0,,,81,60
18440,note_on,5,0,3,,,,,,,,,0,,,73,0
18445,note_on,5,0,3,,,,,,,,,0,,,76,0
18450,note_on,5,0,3,,,,,,,,,0,,,81,0
18480,note_on,45,0,1,,,,,,,,,0,,,93,60
18495,note_on,15,0,1,,,,,,,,,0,,,93,0
18495,note_on,0,0,1,,,,,,,,,0,,,91,60
18510,note_on,15,0,1,,,,,,,,,0,,,91,0
18510,note_on,0,0,1,,,,,,,,,0,,,89,60
18525,note_on,15,0,1,,,,,,,,,0,,,89,0
18525,note_on,0,0,1,,,,,,,,,0,,,88,60
18540,note_on,15,0,1,,,,,,,,,0,,,88,0
18540,note_on,0,0,1,,,,,,,,,0,,,89,60
18555,note_on,15,0,1,,,,,,,,,0,,,89,0
18600,note_on,45,0,1,,,,,,,,,0,,,69,60
18600,note_on,0,0,3,,,,,,,,,0,,,74,60
18600,note_on,0,0,3,,,,,,,,,0,,,77,60
18600,note_on,150,0,3,,,,,,,,,0,,,81,60
18615,note_on,0,0,3,,,,,,,,,0,,,77,0
18615,note_on,15,0,1,,,,,,,,,0,,,69,0
18615,note_on,0,0,3,,,,,,,,,0,,,81,0
18615,note_on,0,0,1,,,,,,,,,0,,,67,60
18615,note_on,15,0,3,,,,,,,,,0,,,74,0
18630,note_on,15,0,1,,,,,,,,,0,,,67,0
18630,note_on,0,0,1,,,,,,,,,0,,,65,60
18645,note_on,0,0,1,,,,,,,,,0,,,64,60
18645,note_on,15,0,1,,,,,,,,,0,,,65,0
18660,note_on,45,0,3,,,,,,,,,0,,,86,60
18660,note_on,0,0,3,,,,,,,,,0,,,81,60
18660,note_on,15,0,1,,,,,,,,,0,,,64,0
18660,note_on,0,0,3,,,,,,,,,0,,,77,60
18660,note_on,0,0,1,,,,,,,,,0,,,62,60
18675,note_on,0,0,3,,,,,,,,,0,,,81,0
18675,note_on,15,0,1,,,,,,,,,0,,,62,0
18675,note_on,15,0,3,,,,,,,,,0,,,77,0
18675,note_on,0,0,3,,,,,,,,,0,,,86,0
18720,note_on,0,0,1,,,,,,,,,0,,,93,60
18720,note_on,45,0,1,,,,,,,,,0,,,101,60
18735,note_on,0,0,1,,,,,,,,,0,,,101,0
18735,note_on,15,0,1,,,,,,,,,0,,,93,0
18780,note_on,45,0,1,,,,,,,,,0,,,89,60
18780,note_on,0,0,1,,,,,,,,,0,,,98,60
18795,note_on,0,0,1,,,,,,,,,0,,,89,0
18795,note_on,15,0,1,,,,,,,,,0,,,98,0
18840,note_on,45,0,1,,,,,,,,,0,,,62,60
18855,note_on,15,0,1,,,,,,,,,0,,,62,0
18855,note_on,0,0,1,,,,,,,,,0,,,60,60
18870,note_on,0,0,1,,,,,,,,,0,,,59,60
18870,note_on,15,0,1,,,,,,,,,0,,,60,0
18885,note_on,15,0,1,,,,,,,,,0,,,59,0
18885,note_on,0,0,1,,,,,,,,,0,,,57,60
18900,note_on,225,0,3,,,,,,,,,0,,,79,60
18900,note_on,0,0,3,,,,,,,,,0,,,65,60
18900,note_on,15,0,1,,,,,,,,,0,,,57,0
18900,note_on,0,0,3,,,,,,,,,0,,,74,60
18900,note_on,0,0,1,,,,,,,,,0,,,55,60
18900,note_on,0,0,3,,,,,,,,,0,,,71,60
18915,note_on,15,0,1,,,,,,,,,0,,,55,0
18915,note_on,0,0,3,,,,,,,,,0,,,71,0
18915,note_on,0,0,3,,,,,,,,,0,,,74,0
18915,note_on,0,0,3,,,,,,,,,0,,,79,0
18915,note_on,15,0,3,,,,,,,,,0,,,65,0
18960,note_on,45,0,1,,,,,,,,,0,,,91,60
18975,note_on,15,0,1,,,,,,,,,0,,,91,0
18975,note_on,0,0,1,,,,,,,,,0,,,89,60
18990,note_on,15,0,1,,,,,,,,,0,,,89,0
18990,note_on,0,0,1,,,,,,,,,0,,,88,60
19005,note_on,0,0,1,,,,,,,,,0,,,86,60
19005,note_on,15,0,1,,,,,,,,,0,,,88,0
19020,note_on,15,0,1,,,,,,,,,0,,,86,0
19020,note_on,0,0,1,,,,,,,,,0,,,88,60
19035,note_on,15,0,1,,,,,,,,,0,,,88,0
19080,note_on,0,0,3,,,,,,,,,0,,,76,60
19080,note_on,0,0,3,,,,,,,,,0,,,72,60
19080,note_on,165,0,3,,,,,,,,,0,,,79,60
19080,note_on,45,0,1,,,,,,,,,0,,,67,60
19095,note_on,15,0,3,,,,,,,,,0,,,72,0
19095,note_on,0,0,3,,,,,,,,,0,,,76,0
19095,note_on,0,0,1,,,,,,,,,0,,,65,60
19095,note_on,15,0,1,,,,,,,,,0,,,67,0
19095,note_on,0,0,3,,,,,,,,,0,,,79,0
19110,note_on,0,0,1,,,,,,,,,0,,,64,60
19110,note_on,15,0,1,,,,,,,,,0,,,65,0
19125,note_on,15,0,1,,,,,,,,,0,,,64,0
19125,note_on,0,0,1,,,,,,,,,0,,,62,60
19140,note_on,0,0,3,,,,,,,,,0,,,79,60
19140,note_on,45,0,3,,,,,,,,,0,,,84,60
19140,note_on,0,0,1,,,,,,,,,0,,,60,60
19140,note_on,15,0,1,,,,,,,,,0,,,62,0
19140,note_on,0,0,3,,,,,,,,,0,,,76,60
19155,note_on,0,0,3,,,,,,,,,0,,,79,0
19155,note_on,0,0,3,,,,,,,,,0,,,84,0
19155,note_on,15,0,1,,,,,,,,,0,,,60,0
19155,note_on,15,0,3,,,,,,,,,0,,,76,0
19200,note_on,0,0,1,,,,,,,,,0,,,91,60
19200,note_on,45,0,1,,,,,,,,,0,,,100,60
19215,note_on,0,0,1,,,,,,,,,0,,,100,0
19215,note_on,15,0,1,,,,,,,,,0,,,91,0
19260,note_on,45,0,1,,,,,,,,,0,,,98,60
19260,note_on,0,0,1,,,,,,,,,0,,,89,60
19275,note_on,0,0,1,,,,,,,,,0,,,98,0
19275,note_on,15,0,1,,,,,,,,,0,,,89,0
19320,note_on,45,0,1,,,,,,,,,0,,,74,60
19335,note_on,15,0,1,,,,,,,,,0,,,74,0
19335,note_on,0,0,1,,,,,,,,,0,,,72,60
19350,note_on,0,0,1,,,,,,,,,0,,,71,60
19350,note_on,15,0,1,,,,,,,,,0,,,72,0
19365,note_on,0,0,1,,,,,,,,,0,,,69,60
19365,note_on,15,0,1,,,,,,,,,0,,,71,0
19380,note_on,0,0,1,,,,,,,,,0,,,68,60
19380,note_on,0,0,3,,,,,,,,,0,,,77,60
19380,note_on,225,0,3,,,,,,,,,0,,,86,60
19380,note_on,0,0,3,,,,,,,,,0,,,83,60
19380,note_on,15,0,1,,,,,,,,,0,,,69,0
19395,note_on,15,0,1,,,,,,,,,0,,,68,0
19395,note_on,15,0,3,,,,,,,,,0,,,77,0
19395,note_on,0,0,3,,,,,,,,,0,,,86,0
19395,note_on,0,0,3,,,,,,,,,0,,,83,0
19440,note_on,45,0,1,,,,,,,,,0,,,98,60
19440,note_on,0,0,1,,,,,,,,,0,,,89,60
19455,note_on,15,0,1,,,,,,,,,0,,,89,0
19455,note_on,0,0,1,,,,,,,,,0,,,98,0
19500,note_on,45,0,1,,,,,,,,,0,,,88,60
19500,note_on,0,0,1,,,,,,,,,0,,,96,60
19515,note_on,15,0,1,,,,,,,,,0,,,96,0
19515,note_on,0,0,1,,,,,,,,,0,,,88,0
19560,note_on,45,0,1,,,,,,,,,0,,,76,60
19575,note_on,15,0,1,,,,,,,,,0,,,76,0
19575,note_on,0,0,1,,,,,,,,,0,,,74,60
19590,note_on,15,0,1,,,,,,,,,0,,,74,0
19590,note_on,0,0,1,,,,,,,,,0,,,72,60
19605,note_on,0,0,1,,,,,,,,,0,,,71,60
19605,note_on,15,0,1,,,,,,,,,0,,,72,0
19620,note_on,225,0,3,,,,,,,,,0,,,84,60
19620,note_on,15,0,1,,,,,,,,,0,,,71,0
19620,note_on,0,0,3,,,,,,,,,0,,,76,60
19620,note_on,0,0,3,,,,,,,,,0,,,81,60
19620,note_on,0,0,1,,,,,,,,,0,,,69,60
19635,note_on,15,0,3,,,,,,,,,0,,,76,0
19635,note_on,15,0,1,,,,,,,,,0,,,69,0
19635,note_on,0,0,3,,,,,,,,,0,,,81,0
19635,note_on,0,0,3,,,,,,,,,0,,,84,0
19680,note_on,45,0,1,,,,,,,,,0,,,72,60
19695,note_on,0,0,1,,,,,,,,,0,,,71,60
19695,note_on,15,0,1,,,,,,,,,0,,,72,0
19710,note_on,15,0,1,,,,,,,,,0,,,71,0
19710,note_on,0,0,1,,,,,,,,,0,,,69,60
19725,note_on,15,0,1,,,,,,,,,0,,,69,0
19725,note_on,0,0,1,,,,,,,,,0,,,67,60
19740,note_on,0,0,3,,,,,,,,,0,,,81,60
19740,note_on,0,0,3,,,,,,,,,0,,,77,60
19740,note_on,0,0,1,,,,,,,,,0,,,65,60
19740,note_on,105,0,3,,,,,,,,,0,,,84,60
19740,note_on,15,0,1,,,,,,,,,0,,,67,0
19755,note_on,0,0,3,,,,,,,,,0,,,81,0
19755,note_on,15,0,3,,,,,,,,,0,,,77,0
19755,note_on,0,0,3,,,,,,,,,0,,,84,0
19755,note_on,15,0,1,,,,,,,,,0,,,65,0
19800,note_on,45,0,1,,,,,,,,,0,,,69,60
19815,note_on,0,0,1,,,,,,,,,0,,,67,60
19815,note_on,15,0,1,,,,,,,,,0,,,69,0
19830,note_on,15,0,1,,,,,,,,,0,,,67,0
19830,note_on,0,0,1,,,,,,,,,0,,,65,60
19845,note_on,0,0,1,,,,,,,,,0,,,64,60
19845,note_on,15,0,1,,,,,,,,,0,,,65,0
19860,note_on,105,0,3,,,,,,,,,0,,,81,60
19860,note_on,0,0,1,,,,,,,,,0,,,63,60
19860,note_on,0,0,3,,,,,,,,,0,,,77,60
19860,note_on,0,0,3,,,,,,,,,0,,,72,60
19860,note_on,15,0,1,,,,,,,,,0,,,64,0
19875,note_on,15,0,1,,,,,,,,,0,,,63,0
19875,note_on,0,0,3,,,,,,,,,0,,,81,0
19875,note_on,15,0,3,,,,,,,,,0,,,72,0
19875,note_on,0,0,3,,,,,,,,,0,,,77,0
19920,note_on,45,0,1,,,,,,,,,0,,,96,60
19935,note_on,15,0,1,,,,,,,,,0,,,96,0
19935,note_on,0,0,1,,,,,,,,,0,,,93,60
19950,note_on,0,0,1,,,,,,,,,0,,,89,60
19950,note_on,15,0,1,,,,,,,,,0,,,93,0
19965,note_on,0,0,1,,,,,,,,,0,,,87,60
19965,note_on,15,0,1,,,,,,,,,0,,,89,0
19980,note_on,0,0,3,,,,,,,,,0,,,71,60
19980,note_on,15,0,1,,,,,,,,,0,,,87,0
19980,note_on,0,0,1,,,,,,,,,0,,,88,60
19980,note_on,105,0,3,,,,,,,,,0,,,80,60
19980,note_on,0,0,3,,,,,,,,,0,,,64,60
19995,note_on,15,0,1,,,,,,,,,0,,,88,0
19995,note_on,15,0,3,,,,,,,,,0,,,64,0
19995,note_on,0,0,3,,,,,,,,,0,,,71,0
19995,note_on,0,0,3,,,,,,,,,0,,,80,0
20040,note_on,45,0,1,,,,,,,,,0,,,76,60
20055,note_on,15,0,1,,,,,,,,,0,,,76,0
20055,note_on,0,0,1,,,,,,,,,0,,,71,60
20070,note_on,0,0,1,,,,,,,,,0,,,68,60
20070,note_on,15,0,1,,,,,,,,,0,,,71,0
20085,note_on,0,0,1,,,,,,,,,0,,,71,60
20085,note_on,15,0,1,,,,,,,,,0,,,68,0
20100,note_on,15,0,1,,,,,,,,,0,,,71,0
20100,note_on,0,0,1,,,,,,,,,0,,,64,60
20115,note_on,15,0,1,,,,,,,,,0,,,64,0
20160,note_on,45,0,1,,,,,,,,,0,,,79,100
20160,note_on,0,0,1,,,,,,,,,0,,,67,100
20160,note_on,0,0,4,,,,,,,,,0,,,55,100
20160,note_on,2328,0,4,,,,,,,,,0,,,43,100
20175,note_on,15,0,4,,,,,,,,,0,,,55,0
20175,note_on,15,0,1,,,,,,,,,0,,,67,0
20175,note_on,0,0,1,,,,,,,,,0,,,79,0
20175,note_on,0,0,4,,,,,,,,,0,,,43,0
20220,note_on,0,0,1,,,,,,,,,0,,,72,120
20220,note_on,0,0,4,,,,,,,,,0,,,48,120
20220,note_on,45,0,4,,,,,,,,,0,,,60,120
20220,note_on,45,0,1,,,,,,,,,0,,,84,120
20400,note_on,0,0,4,,,,,,,,,0,,,60,0
20400,note_on,0,0,1,,,,,,,,,0,,,84,0
20400,note_on,0,0,1,,,,,,,,,0,,,79,120
20400,note_on,180,0,1,,,,,,,,,0,,,72,0
20400,note_on,0,0,4,,,,,,,,,0,,,55,120
20400,note_on,180,0,4,,,,,,,,,0,,,48,0
20400,note_on,0,0,4,,,,,,,,,0,,,43,120
20400,note_on,0,0,1,,,,,,,,,0,,,67,120
20460,note_on,60,0,4,,,,,,,,,0,,,55,0
20460,note_on,0,0,4,,,,,,,,,0,,,52,120
20460,note_on,0,0,4,,,,,,,,,0,,,43,0
20460,note_on,0,0,4,,,,,,,,,0,,,40,120
20460,note_on,0,0,1,,,,,,,,,0,,,76,120
20460,note_on,0,0,1,,,,,,,,,0,,,64,120
20460,note_on,0,0,1,,,,,,,,,0,,,79,0
20460,note_on,60,0,1,,,,,,,,,0,,,67,0
20520,note_on,0,0,4,,,,,,,,,0,,,40,0
20520,note_on,0,0,1,,,,,,,,,0,,,60,120
20520,note_on,0,0,1,,,,,,,,,0,,,64,0
20520,note_on,0,0,1,,,,,,,,,0,,,72,120
20520,note_on,0,0,4,,,,,,,,,0,,,48,120
20520,note_on,0,0,4,,,,,,,,,0,,,36,120
20520,note_on,60,0,4,,,,,,,,,0,,,52,0
20520,note_on,60,0,1,,,,,,,,,0,,,76,0
20580,note_on,60,0,4,,,,,,,,,0,,,48,0
20580,note_on,0,0,4,,,,,,,,,0,,,36,0
20580,note_on,60,0,1,,,,,,,,,0,,,72,0
20580,note_on,0,0,1,,,,,,,,,0,,,60,0
20580,control_change,2640,0,5,,,,,,,,,0,64,127,,
20648,note_on,68,0,4,,,,,,,,,0,,,52,100
20648,note_on,68,0,1,,,,,,,,,0,,,60,100
20656,note_on,8,0,1,,,,,,,,,0,,,60,0
20656,note_on,0,0,4,,,,,,,,,0,,,53,100
20656,note_on,0,0,1,,,,,,,,,0,,,62,100
20656,note_on,8,0,4,,,,,,,,,0,,,52,0
20664,note_on,0,0,1,,,,,,,,,0,,,64,100
20664,note_on,8,0,1,,,,,,,,,0,,,62,0
20664,note_on,8,0,4,,,,,,,,,0,,,53,0
20664,note_on,0,0,4,,,,,,,,,0,,,55,100
20672,note_on,8,0,4,,,,,,,,,0,,,55,0
20672,note_on,8,0,1,,,,,,,,,0,,,64,0
20672,note_on,0,0,1,,,,,,,,,0,,,65,100
20672,note_on,0,0,4,,,,,,,,,0,,,57,100
20680,note_on,8,0,4,,,,,,,,,0,,,57,0
20680,note_on,0,0,4,,,,,,,,,0,,,59,100
20680,note_on,0,0,1,,,,,,,,,0,,,67,100
20680,note_on,8,0,1,,,,,,,,,0,,,65,0
20688,note_on,8,0,4,,,,,,,,,0,,,59,0
20688,note_on,0,0,1,,,,,,,,,0,,,69,100
20688,note_on,8,0,1,,,,,,,,,0,,,67,0
20688,note_on,0,0,4,,,,,,,,,0,,,60,100
20696,note_on,8,0,1,,,,,,,,,0,,,69,0
20696,note_on,8,0,4,,,,,,,,,0,,,60,0
20696,note_on,0,0,4,,,,,,,,,0,,,62,100
20696,note_on,0,0,1,,,,,,,,,0,,,71,100
20704,note_on,8,0,4,,,,,,,,,0,,,62,0
20704,note_on,8,0,1,,,,,,,,,0,,,71,0
20704,note_on,0,0,1,,,,,,,,,0,,,72,100
20704,note_on,0,0,1,,,,,,,,,0,,,64,100
20712,note_on,8,0,1,,,,,,,,,0,,,64,0
20712,note_on,0,0,1,,,,,,,,,0,,,72,0
20712,note_on,0,0,1,,,,,,,,,0,,,65,100
20712,note_on,0,0,1,,,,,,,,,0,,,74,100
20720,note_on,0,0,1,,,,,,,,,0,,,74,0
20720,note_on,8,0,1,,,,,,,,,0,,,65,0
20721,note_on,0,0,1,,,,,,,,,0,,,67,100
20721,note_on,1,0,1,,,,,,,,,0,,,76,100
20729,note_on,8,0,1,,,,,,,,,0,,,67,0
20729,note_on,0,0,1,,,,,,,,,0,,,69,100
20729,note_on,0,0,1,,,,,,,,,0,,,76,0
20729,note_on,0,0,1,,,,,,,,,0,,,77,100
20737,note_on,0,0,1,,,,,,,,,0,,,77,0
20737,note_on,0,0,1,,,,,,,,,0,,,79,100
20737,note_on,8,0,1,,,,,,,,,0,,,69,0
20737,note_on,0,0,1,,,,,,,,,0,,,71,100
20745,note_on,8,0,1,,,,,,,,,0,,,71,0
20745,note_on,0,0,1,,,,,,,,,0,,,79,0
20747,note_on,0,0,1,,,,,,,,,0,,,72,100
20747,note_on,2,0,1,,,,,,,,,0,,,81,100
20755,note_on,0,0,1,,,,,,,,,0,,,74,100
20755,note_on,0,0,1,,,,,,,,,0,,,81,0
20755,note_on,0,0,1,,,,,,,,,0,,,83,100
20755,note_on,8,0,1,,,,,,,,,0,,,72,0
20763,note_on,8,0,1,,,,,,,,,0,,,74,0
20763,note_on,0,0,1,,,,,,,,,0,,,84,100
20763,note_on,0,0,1,,,,,,,,,0,,,76,100
20763,note_on,0,0,1,,,,,,,,,0,,,83,0
20771,note_on,0,0,1,,,,,,,,,0,,,77,100
20771,note_on,0,0,1,,,,,,,,,0,,,86,100
20771,note_on,0,0,1,,,,,,,,,0,,,84,0
20771,note_on,8,0,1,,,,,,,,,0,,,76,0
20779,note_on,0,0,1,,,,,,,,,0,,,88,100
20779,note_on,0,0,1,,,,,,,,,0,,,86,0
20779,note_on,8,0,1,,,,,,,,,0,,,77,0
20779,note_on,0,0,1,,,,,,,,,0,,,79,100
20787,note_on,0,0,1,,,,,,,,,0,,,88,0
20787,note_on,0,0,1,,,,,,,,,0,,,89,100
20787,note_on,8,0,1,,,,,,,,,0,,,79,0
20787,note_on,0,0,1,,,,,,,,,0,,,81,100
20795,note_on,0,0,1,,,,,,,,,0,,,91,100
20795,note_on,0,0,1,,,,,,,,,0,,,89,0
20795,note_on,0,0,1,,,,,,,,,0,,,83,100
20795,note_on,8,0,1,,,,,,,,,0,,,81,0
20803,note_on,8,0,1,,,,,,,,,0,,,83,0
20803,note_on,0,0,1,,,,,,,,,0,,,91,0
20804,note_on,1,0,1,,,,,,,,,0,,,93,100
20804,note_on,0,0,1,,,,,,,,,0,,,84,100
20812,note_on,0,0,1,,,,,,,,,0,,,86,100
20812,note_on,8,0,1,,,,,,,,,0,,,84,0
20812,note_on,0,0,1,,,,,,,,,0,,,95,100
20812,note_on,0,0,1,,,,,,,,,0,,,93,0
20820,note_on,0,0,1,,,,,,,,,0,,,88,100
20820,control_change,240,0,5,,,,,,,,,0,64,0,,
20820,note_on,0,0,1,,,,,,,,,0,,,96,100
20820,note_on,0,0,1,,,,,,,,,0,,,95,0
20820,note_on,8,0,1,,,,,,,,,0,,,86,0
20835,note_on,0,0,1,,,,,,,,,0,,,96,0
20835,note_on,15,0,1,,,,,,,,,0,,,88,0
20880,note_on,885,0,3,,,,,,,,,0,,,86,100
20880,note_on,45,0,1,,,,,,,,,0,,,100,100
20880,note_on,0,0,3,,,,,,,,,0,,,81,100
20880,note_on,0,0,3,,,,,,,,,0,,,77,100
20880,note_on,0,0,1,,,,,,,,,0,,,93,100
20880,note_on,0,0,1,,,,,,,,,0,,,89,100
20895,note_on,0,0,3,,,,,,,,,0,,,81,0
20895,note_on,0,0,1,,,,,,,,,0,,,100,0
20895,note_on,15,0,3,,,,,,,,,0,,,77,0
20895,note_on,0,0,1,,,,,,,,,0,,,93,0
20895,note_on,15,0,1,,,,,,,,,0,,,89,0
20895,note_on,0,0,3,,,,,,,,,0,,,86,0
20910,note_on,0,0,3,,,,,,,,,0,,,86,100
20910,note_on,15,0,3,,,,,,,,,0,,,77,100
20910,note_on,0,0,3,,,,,,,,,0,,,81,100
20910,note_on,0,0,1,,,,,,,,,0,,,89,100
20910,note_on,0,0,1,,,,,,,,,0,,,93,100
20910,note_on,15,0,1,,,,,,,,,0,,,98,100
20925,note_on,15,0,3,,,,,,,,,0,,,86,0
20925,note_on,0,0,1,,,,,,,,,0,,,93,0
20925,note_on,0,0,1,,,,,,,,,0,,,98,0
20925,note_on,15,0,1,,,,,,,,,0,,,89,0
20925,note_on,0,0,3,,,,,,,,,0,,,77,0
20925,note_on,0,0,3,,,,,,,,,0,,,81,0
20940,note_on,15,0,3,,,,,,,,,0,,,67,100
20940,note_on,0,0,1,,,,,,,,,0,,,88,100
20940,note_on,15,0,1,,,,,,,,,0,,,96,100
20950,note_on,10,0,3,,,,,,,,,0,,,76,100
20955,note_on,15,0,1,,,,,,,,,0,,,96,0
20955,note_on,0,0,1,,,,,,,,,0,,,98,100
20960,note_on,10,0,3,,,,,,,,,0,,,84,100
20970,note_on,15,0,1,,,,,,,,,0,,,98,0
20970,note_on,0,0,1,,,,,,,,,0,,,96,100
20985,note_on,0,0,1,,,,,,,,,0,,,98,100
20985,note_on,15,0,1,,,,,,,,,0,,,96,0
21000,note_on,0,0,1,,,,,,,,,0,,,96,100
21000,note_on,15,0,1,,,,,,,,,0,,,98,0
21015,note_on,0,0,1,,,,,,,,,0,,,95,100
21015,note_on,15,0,1,,,,,,,,,0,,,96,0
21030,note_on,15,0,1,,,,,,,,,0,,,95,0
21030,note_on,0,0,1,,,,,,,,,0,,,98,100
21045,note_on,0,0,1,,,,,,,,,0,,,96,100
21045,note_on,15,0,1,,,,,,,,,0,,,98,0
21060,note_on,0,0,3,,,,,,,,,0,,,76,0
21060,note_on,0,0,3,,,,,,,,,0,,,83,100
21060,note_on,100,0,3,,,,,,,,,0,,,84,0
21060,note_on,0,0,3,,,,,,,,,0,,,74,100
21060,note_on,15,0,1,,,,,,,,,0,,,96,0
21060,note_on,0,0,1,,,,,,,,,0,,,86,100
21060,note_on,0,0,1,,,,,,,,,0,,,95,100
21060,note_on,0,0,1,,,,,,,,,0,,,88,0
21075,note_on,15,0,3,,,,,,,,,0,,,74,0
21075,note_on,0,0,1,,,,,,,,,0,,,95,0
21075,note_on,0,0,3,,,,,,,,,0,,,83,0
21075,note_on,0,0,3,,,,,,,,,0,,,67,0
21075,note_on,15,0,1,,,,,,,,,0,,,86,0
21120,note_on,416,0,4,,,,,,,,,0,,,38,100
21120,note_on,0,0,1,,,,,,,,,0,,,74,100
21120,note_on,45,0,1,,,,,,,,,0,,,62,100
21120,note_on,0,0,4,,,,,,,,,0,,,50,100
21135,note_on,0,0,1,,,,,,,,,0,,,62,0
21135,note_on,15,0,1,,,,,,,,,0,,,74,0
21135,note_on,15,0,4,,,,,,,,,0,,,50,0
21135,note_on,0,0,4,,,,,,,,,0,,,38,0
21180,note_on,45,0,4,,,,,,,,,0,,,41,127
21180,note_on,0,0,4,,,,,,,,,0,,,53,127
21180,note_on,45,0,1,,,,,,,,,0,,,77,127
21180,note_on,0,0,1,,,,,,,,,0,,,65,127
21360,note_on,0,0,1,,,,,,,,,0,,,62,120
21360,note_on,180,0,4,,,,,,,,,0,,,53,0
21360,note_on,0,0,1,,,,,,,,,0,,,74,120
21360,note_on,0,0,1,,,,,,,,,0,,,77,0
21360,note_on,0,0,4,,,,,,,,,0,,,50,120
21360,note_on,0,0,4,,,,,,,,,0,,,41,0
21360,note_on,0,0,4,,,,,,,,,0,,,38,120
21360,note_on,180,0,1,,,,,,,,,0,,,65,0
21420,note_on,0,0,1,,,,,,,,,0,,,59,120
21420,note_on,0,0,4,,,,,,,,,0,,,50,0
21420,note_on,0,0,4,,,,,,,,,0,,,35,120
21420,note_on,0,0,1,,,,,,,,,0,,,71,120
21420,note_on,60,0,1,,,,,,,,,0,,,62,0
21420,note_on,60,0,4,,,,,,,,,0,,,38,0
21420,note_on,0,0,1,,,,,,,,,0,,,74,0
21420,note_on,0,0,4,,,,,,,,,0,,,47,120
21480,note_on,0,0,4,,,,,,,,,0,,,43,120
21480,note_on,0,0,1,,,,,,,,,0,,,55,120
21480,note_on,0,0,4,,,,,,,,,0,,,31,120
21480,note_on,60,0,1,,,,,,,,,0,,,71,0
21480,note_on,60,0,4,,,,,,,,,0,,,35,0
21480,note_on,0,0,4,,,,,,,,,0,,,47,0
21480,note_on,0,0,1,,,,,,,,,0,,,67,120
21480,note_on,0,0,1,,,,,,,,,0,,,59,0
21540,note_on,60,0,1,,,,,,,,,0,,,67,0
21540,note_on,0,0,1,,,,,,,,,0,,,55,0
21540,control_change,720,0,5,,,,,,,,,0,64,127,,
21540,note_on,0,0,4,,,,,,,,,0,,,43,0
21540,note_on,60,0,4,,,,,,,,,0,,,31,0
21608,note_on,68,0,1,,,,,,,,,0,,,59,100
21608,note_on,68,0,4,,,,,,,,,0,,,50,100
21616,note_on,0,0,1,,,,,,,,,0,,,60,100
21616,note_on,8,0,4,,,,,,,,,0,,,50,0
21616,note_on,0,0,4,,,,,,,,,0,,,52,100
21616,note_on,8,0,1,,,,,,,,,0,,,59,0
21624,note_on,0,0,4,,,,,,,,,0,,,53,100
21624,note_on,8,0,1,,,,,,,,,0,,,60,0
21624,note_on,8,0,4,,,,,,,,,0,,,52,0
21624,note_on,0,0,1,,,,,,,,,0,,,62,100
21632,note_on,8,0,4,,,,,,,,,0,,,53,0
21632,note_on,8,0,1,,,,,,,,,0,,,62,0
21632,note_on,0,0,4,,,,,,,,,0,,,55,100
21632,note_on,0,0,1,,,,,,,,,0,,,64,100
21640,note_on,0,0,1,,,,,,,,,0,,,65,100
21640,note_on,8,0,4,,,,,,,,,0,,,55,0
21640,note_on,0,0,4,,,,,,,,,0,,,57,100
21640,note_on,8,0,1,,,,,,,,,0,,,64,0
21648,note_on,0,0,4,,,,,,,,,0,,,59,100
21648,note_on,8,0,1,,,,,,,,,0,,,65,0
21648,note_on,8,0,4,,,,,,,,,0,,,57,0
21648,note_on,0,0,1,,,,,,,,,0,,,67,100
21656,note_on,0,0,4,,,,,,,,,0,,,60,100
21656,note_on,8,0,1,,,,,,,,,0,,,67,0
21656,note_on,0,0,1,,,,,,,,,0,,,69,100
21656,note_on,8,0,4,,,,,,,,,0,,,59,0
21664,note_on,8,0,4,,,,,,,,,0,,,60,0
21664,note_on,8,0,1,,,,,,,,,0,,,69,0
21664,note_on,0,0,4,,,,,,,,,0,,,62,100
21664,note_on,0,0,1,,,,,,,,,0,,,71,100
21672,note_on,8,0,1,,,,,,,,,0,,,71,0
21672,note_on,8,0,4,,,,,,,,,0,,,62,0
21672,note_on,0,0,1,,,,,,,,,0,,,64,100
21672,note_on,0,0,1,,,,,,,,,0,,,72,100
21680,note_on,0,0,1,,,,,,,,,0,,,64,0
21680,note_on,8,0,1,,,,,,,,,0,,,72,0
21681,note_on,0,0,1,,,,,,,,,0,,,74,100
21681,note_on,1,0,1,,,,,,,,,0,,,65,100
21689,note_on,8,0,1,,,,,,,,,0,,,74,0
21689,note_on,0,0,1,,,,,,,,,0,,,67,100
21689,note_on,0,0,1,,,,,,,,,0,,,65,0
21689,note_on,0,0,1,,,,,,,,,0,,,76,100
21697,note_on,8,0,1,,,,,,,,,0,,,76,0
21697,note_on,0,0,1,,,,,,,,,0,,,67,0
21697,note_on,0,0,1,,,,,,,,,0,,,69,100
21697,note_on,0,0,1,,,,,,,,,0,,,77,100
21705,note_on,0,0,1,,,,,,,,,0,,,69,0
21705,note_on,8,0,1,,,,,,,,,0,,,77,0
21707,note_on,0,0,1,,,,,,,,,0,,,79,100
21707,note_on,2,0,1,,,,,,,,,0,,,71,100
21715,note_on,0,0,1,,,,,,,,,0,,,72,100
21715,note_on,0,0,1,,,,,,,,,0,,,71,0
21715,note_on,8,0,1,,,,,,,,,0,,,79,0
21715,note_on,0,0,1,,,,,,,,,0,,,81,100
21723,note_on,0,0,1,,,,,,,,,0,,,83,100
21723,note_on,0,0,1,,,,,,,,,0,,,74,100
21723,note_on,0,0,1,,,,,,,,,0,,,72,0
21723,note_on,8,0,1,,,,,,,,,0,,,81,0
21731,note_on,0,0,1,,,,,,,,,0,,,84,100
21731,note_on,0,0,1,,,,,,,,,0,,,76,100
21731,note_on,8,0,1,,,,,,,,,0,,,83,0
21731,note_on,0,0,1,,,,,,,,,0,,,74,0
21739,note_on,0,0,1,,,,,,,,,0,,,86,100
21739,note_on,0,0,1,,,,,,,,,0,,,77,100
21739,note_on,8,0,1,,,,,,,,,0,,,84,0
21739,note_on,0,0,1,,,,,,,,,0,,,76,0
21747,note_on,0,0,1,,,,,,,,,0,,,77,0
21747,note_on,0,0,1,,,,,,,,,0,,,88,100
21747,note_on,8,0,1,,,,,,,,,0,,,86,0
21747,note_on,0,0,1,,,,,,,,,0,,,79,100
21755,note_on,0,0,1,,,,,,,,,0,,,89,100
21755,note_on,0,0,1,,,,,,,,,0,,,79,0
21755,note_on,0,0,1,,,,,,,,,0,,,81,100
21755,note_on,8,0,1,,,,,,,,,0,,,88,0
21763,note_on,0,0,1,,,,,,,,,0,,,81,0
21763,note_on,8,0,1,,,,,,,,,0,,,89,0
21764,note_on,1,0,1,,,,,,,,,0,,,83,100
21764,note_on,0,0,1,,,,,,,,,0,,,91,100
21772,note_on,8,0,1,,,,,,,,,0,,,91,0
21772,note_on,0,0,1,,,,,,,,,0,,,83,0
21772,note_on,0,0,1,,,,,,,,,0,,,84,100
21772,note_on,0,0,1,,,,,,,,,0,,,93,100
21780,note_on,0,0,1,,,,,,,,,0,,,95,100
21780,control_change,240,0,5,,,,,,,,,0,64,0,,
21780,note_on,8,0,1,,,,,,,,,0,,,93,0
21780,note_on,0,0,1,,,,,,,,,0,,,84,0
21780,note_on,0,0,1,,,,,,,,,0,,,86,100
21795,note_on,15,0,1,,,,,,,,,0,,,86,0
21795,note_on,0,0,1,,,,,,,,,0,,,95,0
21840,note_on,45,0,1,,,,,,,,,0,,,101,100
21840,note_on,0,0,1,,,,,,,,,0,,,93,100
21840,note_on,0,0,3,,,,,,,,,0,,,81,100
21840,note_on,765,0,3,,,,,,,,,0,,,71,100
21855,note_on,0,0,1,,,,,,,,,0,,,101,0
21855,note_on,0,0,3,,,,,,,,,0,,,71,0
21855,note_on,15,0,1,,,,,,,,,0,,,93,0
21855,note_on,15,0,3,,,,,,,,,0,,,81,0
21870,note_on,0,0,1,,,,,,,,,0,,,91,100
21870,note_on,15,0,1,,,,,,,,,0,,,100,100
21870,note_on,15,0,3,,,,,,,,,0,,,71,100
21870,note_on,0,0,3,,,,,,,,,0,,,79,100
21885,note_on,0,0,3,,,,,,,,,0,,,71,0
21885,note_on,15,0,1,,,,,,,,,0,,,91,0
21885,note_on,15,0,3,,,,,,,,,0,,,79,0
21885,note_on,0,0,1,,,,,,,,,0,,,100,0
21900,note_on,15,0,1,,,,,,,,,0,,,98,100
21900,note_on,0,0,1,,,,,,,,,0,,,89,100
21900,note_on,0,0,3,,,,,,,,,0,,,71,100
21900,note_on,15,0,3,,,,,,,,,0,,,77,100
21900,note_on,0,0,3,,,,,,,,,0,,,67,100
21915,note_on,15,0,1,,,,,,,,,0,,,98,0
21915,note_on,0,0,1,,,,,,,,,0,,,100,100
21930,note_on,0,0,1,,,,,,,,,0,,,98,100
21930,note_on,15,0,1,,,,,,,,,0,,,100,0
21945,note_on,0,0,1,,,,,,,,,0,,,100,100
21945,note_on,15,0,1,,,,,,,,,0,,,98,0
21960,note_on,15,0,1,,,,,,,,,0,,,100,0
21960,note_on,0,0,1,,,,,,,,,0,,,98,100
21975,note_on,0,0,1,,,,,,,,,0,,,97,100
21975,note_on,15,0,1,,,,,,,,,0,,,98,0
21990,note_on,15,0,1,,,,,,,,,0,,,97,0
21990,note_on,0,0,1,,,,,,,,,0,,,100,100
22005,note_on,0,0,1,,,,,,,,,0,,,98,100
22005,note_on,15,0,1,,,,,,,,,0,,,100,0
22020,note_on,0,0,1,,,,,,,,,0,,,96,100
22020,note_on,0,0,1,,,,,,,,,0,,,89,0
22020,note_on,0,0,1,,,,,,,,,0,,,88,100
22020,note_on,0,0,3,,,,,,,,,0,,,76,100
22020,note_on,0,0,3,,,,,,,,,0,,,72,100
22020,note_on,15,0,1,,,,,,,,,0,,,98,0
22020,note_on,120,0,3,,,,,,,,,0,,,67,0
22020,note_on,0,0,3,,,,,,,,,0,,,71,0
22020,note_on,0,0,3,,,,,,,,,0,,,77,0
22035,note_on,0,0,3,,,,,,,,,0,,,76,0
22035,note_on,0,0,1,,,,,,,,,0,,,96,0
22035,note_on,15,0,3,,,,,,,,,0,,,72,0
22035,note_on,15,0,1,,,,,,,,,0,,,88,0
22080,note_on,45,0,1,,,,,,,,,0,,,91,100
22095,note_on,15,0,1,,,,,,,,,0,,,91,0
22140,note_on,45,0,1,,,,,,,,,0,,,96,100
22155,note_on,15,0,1,,,,,,,,,0,,,96,0
22200,note_on,45,0,1,,,,,,,,,0,,,67,100
22215,note_on,15,0,1,,,,,,,,,0,,,67,0
22215,note_on,0,0,1,,,,,,,,,0,,,65,100
22230,note_on,0,0,1,,,,,,,,,0,,,64,100
22230,note_on,15,0,1,,,,,,,,,0,,,65,0
22245,note_on,0,0,1,,,,,,,,,0,,,62,100
22245,note_on,15,0,1,,,,,,,,,0,,,64,0
22260,note_on,225,0,3,,,,,,,,,0,,,70,100
22260,note_on,0,0,1,,,,,,,,,0,,,60,100
22260,note_on,15,0,1,,,,,,,,,0,,,62,0
22265,note_on,5,0,3,,,,,,,,,0,,,76,100
22270,note_on,5,0,3,,,,,,,,,0,,,79,100
22275,note_on,5,0,3,,,,,,,,,0,,,70,0
22275,note_on,15,0,1,,,,,,,,,0,,,60,0
22275,note_on,0,0,3,,,,,,,,,0,,,84,100
22280,note_on,5,0,3,,,,,,,,,0,,,76,0
22285,note_on,5,0,3,,,,,,,,,0,,,79,0
22290,note_on,5,0,3,,,,,,,,,0,,,84,0
22320,note_on,45,0,1,,,,,,,,,0,,,84,100
22335,note_on,0,0,1,,,,,,,,,0,,,88,100
22335,note_on,15,0,1,,,,,,,,,0,,,84,0
22350,note_on,0,0,1,,,,,,,,,0,,,91,100
22350,note_on,15,0,1,,,,,,,,,0,,,88,0
22365,note_on,15,0,1,,,,,,,,,0,,,91,0
22365,note_on,0,0,1,,,,,,,,,0,,,88,100
22380,note_on,0,0,1,,,,,,,,,0,,,89,100
22380,note_on,15,0,1,,,,,,,,,0,,,88,0
22395,note_on,15,0,1,,,,,,,,,0,,,89,0
22440,note_on,45,0,1,,,,,,,,,0,,,72,100
22440,note_on,0,0,3,,,,,,,,,0,,,77,100
22440,note_on,150,0,3,,,,,,,,,0,,,81,100
22455,note_on,15,0,1,,,,,,,,,0,,,72,0
22455,note_on,0,0,3,,,,,,,,,0,,,81,0
22455,note_on,15,0,3,,,,,,,,,0,,,77,0
22455,note_on,0,0,1,,,,,,,,,0,,,70,100
22470,note_on,15,0,1,,,,,,,,,0,,,70,0
22470,note_on,0,0,1,,,,,,,,,0,,,69,100
22485,note_on,15,0,1,,,,,,,,,0,,,69,0
22485,note_on,0,0,1,,,,,,,,,0,,,67,100
22500,note_on,0,0,3,,,,,,,,,0,,,77,100
22500,note_on,0,0,3,,,,,,,,,0,,,72,100
22500,note_on,45,0,3,,,,,,,,,0,,,81,100
22500,note_on,0,0,1,,,,,,,,,0,,,65,100
22500,note_on,15,0,1,,,,,,,,,0,,,67,0
22515,note_on,15,0,1,,,,,,,,,0,,,65,0
22515,note_on,0,0,3,,,,,,,,,0,,,81,0
22515,note_on,0,0,3,,,,,,,,,0,,,77,0
22515,note_on,15,0,3,,,,,,,,,0,,,72,0
22560,note_on,45,0,1,,,,,,,,,0,,,101,100
22560,note_on,0,0,1,,,,,,,,,0,,,93,100
22575,note_on,15,0,1,,,,,,,,,0,,,93,0
22575,note_on,0,0,1,,,,,,,,,0,,,101,0
22620,note_on,0,0,1,,,,,,,,,0,,,90,100
22620,note_on,45,0,1,,,,,,,,,0,,,98,100
22635,note_on,0,0,1,,,,,,,,,0,,,98,0
22635,note_on,15,0,1,,,,,,,,,0,,,90,0
22680,note_on,45,0,1,,,,,,,,,0,,,69,100
22695,note_on,0,0,1,,,,,,,,,0,,,67,100
22695,note_on,15,0,1,,,,,,,,,0,,,69,0
22710,note_on,15,0,1,,,,,,,,,0,,,67,0
22710,note_on,0,0,1,,,,,,,,,0,,,66,100
22725,note_on,15,0,1,,,,,,,,,0,,,66,0
22725,note_on,0,0,1,,,,,,,,,0,,,64,100
22740,note_on,0,0,1,,,,,,,,,0,,,62,100
22740,note_on,15,0,1,,,,,,,,,0,,,64,0
22740,note_on,225,0,3,,,,,,,,,0,,,72,100
22745,note_on,5,0,3,,,,,,,,,0,,,78,100
22750,note_on,5,0,3,,,,,,,,,0,,,81,100
22755,note_on,15,0,1,,,,,,,,,0,,,62,0
22755,note_on,0,0,3,,,,,,,,,0,,,86,100
22755,note_on,5,0,3,,,,,,,,,0,,,72,0
22760,note_on,5,0,3,,,,,,,,,0,,,78,0
22765,note_on,5,0,3,,,,,,,,,0,,,81,0
22770,note_on,5,0,3,,,,,,,,,0,,,86,0
22800,note_on,45,0,1,,,,,,,,,0,,,86,100
22815,note_on,0,0,1,,,,,,,,,0,,,89,100
22815,note_on,15,0,1,,,,,,,,,0,,,86,0
22830,note_on,0,0,1,,,,,,,,,0,,,93,100
22830,note_on,15,0,1,,,,,,,,,0,,,89,0
22845,note_on,0,0,1,,,,,,,,,0,,,89,100
22845,note_on,15,0,1,,,,,,,,,0,,,93,0
22860,note_on,0,0,1,,,,,,,,,0,,,91,100
22860,note_on,15,0,1,,,,,,,,,0,,,89,0
22875,note_on,15,0,1,,,,,,,,,0,,,91,0
22920,note_on,45,0,1,,,,,,,,,0,,,74,100
22920,note_on,0,0,3,,,,,,,,,0,,,79,100
22920,note_on,150,0,3,,,,,,,,,0,,,83,100
22935,note_on,15,0,3,,,,,,,,,0,,,79,0
22935,note_on,0,0,3,,,,,,,,,0,,,83,0
22935,note_on,0,0,1,,,,,,,,,0,,,72,100
22935,note_on,15,0,1,,,,,,,,,0,,,74,0
22950,note_on,15,0,1,,,,,,,,,0,,,72,0
22950,note_on,0,0,1,,,,,,,,,0,,,71,100
22965,note_on,15,0,1,,,,,,,,,0,,,71,0
22965,note_on,0,0,1,,,,,,,,,0,,,69,100
22980,note_on,15,0,1,,,,,,,,,0,,,69,0
22980,note_on,0,0,3,,,,,,,,,0,,,79,100
22980,note_on,45,0,3,,,,,,,,,0,,,83,100
22980,note_on,0,0,3,,,,,,,,,0,,,74,100
22980,note_on,0,0,1,,,,,,,,,0,,,67,100
22995,note_on,15,0,3,,,,,,,,,0,,,74,0
22995,note_on,15,0,1,,,,,,,,,0,,,67,0
22995,note_on,0,0,3,,,,,,,,,0,,,83,0
22995,note_on,0,0,3,,,,,,,,,0,,,79,0
23040,note_on,45,0,1,,,,,,,,,0,,,103,100
23040,note_on,0,0,1,,,,,,,,,0,,,95,100
23055,note_on,0,0,1,,,,,,,,,0,,,103,0
23055,note_on,15,0,1,,,,,,,,,0,,,95,0
23100,note_on,45,0,1,,,,,,,,,0,,,100,100
23100,note_on,0,0,1,,,,,,,,,0,,,92,100
23115,note_on,0,0,1,,,,,,,,,0,,,100,0
23115,note_on,15,0,1,,,,,,,,,0,,,92,0
23160,note_on,45,0,1,,,,,,,,,0,,,71,100
23175,note_on,0,0,1,,,,,,,,,0,,,69,100
23175,note_on,15,0,1,,,,,,,,,0,,,71,0
23190,note_on,0,0,1,,,,,,,,,0,,,68,100
23190,note_on,15,0,1,,,,,,,,,0,,,69,0
23205,note_on,0,0,1,,,,,,,,,0,,,66,100
23205,note_on,15,0,1,,,,,,,,,0,,,68,0
23220,note_on,15,0,1,,,,,,,,,0,,,66,0
23220,note_on,0,0,1,,,,,,,,,0,,,64,100
23220,note_on,0,0,3,,,,,,,,,0,,,83,100
23220,note_on,0,0,3,,,,,,,,,0,,,80,100
23220,note_on,225,0,3,,,,,,,,,0,,,88,100
23220,note_on,0,0,3,,,,,,,,,0,,,74,100
23235,note_on,15,0,3,,,,,,,,,0,,,74,0
23235,note_on,0,0,3,,,,,,,,,0,,,88,0
23235,note_on,0,0,3,,,,,,,,,0,,,83,0
23235,note_on,15,0,1,,,,,,,,,0,,,64,0
23235,note_on,0,0,3,,,,,,,,,0,,,80,0
23280,note_on,45,0,1,,,,,,,,,0,,,88,100
23295,note_on,15,0,1,,,,,,,,,0,,,88,0
23295,note_on,0,0,1,,,,,,,,,0,,,92,100
23310,note_on,15,0,1,,,,,,,,,0,,,92,0
23310,note_on,0,0,1,,,,,,,,,0,,,95,100
23325,note_on,15,0,1,,,,,,,,,0,,,95,0
23325,note_on,0,0,1,,,,,,,,,0,,,92,100
23340,note_on,0,0,1,,,,,,,,,0,,,93,100
23340,note_on,15,0,1,,,,,,,,,0,,,92,0
23355,note_on,15,0,1,,,,,,,,,0,,,93,0
23400,note_on,165,0,3,,,,,,,,,0,,,84,100
23400,note_on,0,0,3,,,,,,,,,0,,,81,100
23400,note_on,45,0,1,,,,,,,,,0,,,76,100
23415,note_on,15,0,3,,,,,,,,,0,,,81,0
23415,note_on,15,0,1,,,,,,,,,0,,,76,0
23415,note_on,0,0,1,,,,,,,,,0,,,74,100
23415,note_on,0,0,3,,,,,,,,,0,,,84,0
23430,note_on,15,0,1,,,,,,,,,0,,,74,0
23430,note_on,0,0,1,,,,,,,,,0,,,72,100
23445,note_on,15,0,1,,,,,,,,,0,,,72,0
23445,note_on,0,0,1,,,,,,,,,0,,,71,100
23460,note_on,15,0,1,,,,,,,,,0,,,71,0
23460,note_on,0,0,1,,,,,,,,,0,,,69,100
23460,note_on,0,0,3,,,,,,,,,0,,,76,100
23460,note_on,0,0,3,,,,,,,,,0,,,81,100
23460,note_on,45,0,3,,,,,,,,,0,,,84,100
23475,note_on,15,0,3,,,,,,,,,0,,,76,0
23475,note_on,15,0,1,,,,,,,,,0,,,69,0
23475,note_on,0,0,3,,,,,,,,,0,,,84,0
23475,note_on,0,0,3,,,,,,,,,0,,,81,0
23520,note_on,45,0,1,,,,,,,,,0,,,76,100
23535,note_on,15,0,1,,,,,,,,,0,,,76,0
23535,note_on,0,0,1,,,,,,,,,0,,,72,100
23550,note_on,15,0,1,,,,,,,,,0,,,72,0
23550,note_on,0,0,1,,,,,,,,,0,,,69,100
23565,note_on,0,0,1,,,,,,,,,0,,,67,100
23565,note_on,15,0,1,,,,,,,,,0,,,69,0
23580,note_on,15,0,1,,,,,,,,,0,,,67,0
23580,note_on,0,0,1,,,,,,,,,0,,,65,100
23595,note_on,15,0,1,,,,,,,,,0,,,65,0
23640,note_on,0,0,3,,,,,,,,,0,,,72,100
23640,note_on,0,0,3,,,,,,,,,0,,,77,100
23640,note_on,165,0,3,,,,,,,,,0,,,81,100
23640,note_on,45,0,1,,,,,,,,,0,,,89,100
23655,note_on,15,0,3,,,,,,,,,0,,,72,0
23655,note_on,15,0,1,,,,,,,,,0,,,89,0
23655,note_on,0,0,3,,,,,,,,,0,,,77,0
23655,note_on,0,0,3,,,,,,,,,0,,,81,0
23655,note_on,0,0,1,,,,,,,,,0,,,93,100
23670,note_on,0,0,1,,,,,,,,,0,,,96,100
23670,note_on,15,0,1,,,,,,,,,0,,,93,0
23685,note_on,0,0,1,,,,,,,,,0,,,93,100
23685,note_on,15,0,1,,,,,,,,,0,,,96,0
23700,note_on,15,0,1,,,,,,,,,0,,,93,0
23700,note_on,0,0,3,,,,,,,,,0,,,81,100
23700,note_on,0,0,1,,,,,,,,,0,,,89,100
23700,note_on,0,0,3,,,,,,,,,0,,,77,100
23700,note_on,45,0,3,,,,,,,,,0,,,84,100
23715,note_on,15,0,3,,,,,,,,,0,,,77,0
23715,note_on,15,0,1,,,,,,,,,0,,,89,0
23715,note_on,0,0,3,,,,,,,,,0,,,84,0
23715,note_on,0,0,3,,,,,,,,,0,,,81,0
23760,note_on,45,0,1,,,,,,,,,0,,,77,100
23775,note_on,0,0,1,,,,,,,,,0,,,72,100
23775,note_on,15,0,1,,,,,,,,,0,,,77,0
23790,note_on,15,0,1,,,,,,,,,0,,,72,0
23790,note_on,0,0,1,,,,,,,,,0,,,69,100
23805,note_on,0,0,1,,,,,,,,,0,,,65,100
23805,note_on,15,0,1,,,,,,,,,0,,,69,0
23820,note_on,15,0,1,,,,,,,,,0,,,65,0
23820,note_on,0,0,1,,,,,,,,,0,,,64,100
23835,note_on,15,0,1,,,,,,,,,0,,,64,0
23880,note_on,45,0,1,,,,,,,,,0,,,88,100
23880,note_on,0,0,3,,,,,,,,,0,,,76,100
23880,note_on,165,0,3,,,,,,,,,0,,,81,100
23880,note_on,0,0,3,,,,,,,,,0,,,72,100
23895,note_on,0,0,1,,,,,,,,,0,,,93,100
23895,note_on,15,0,1,,,,,,,,,0,,,88,0
23895,note_on,0,0,3,,,,,,,,,0,,,76,0
23895,note_on,0,0,3,,,,,,,,,0,,,81,0
23895,note_on,15,0,3,,,,,,,,,0,,,72,0
23910,note_on,15,0,1,,,,,,,,,0,,,93,0
23910,note_on,0,0,1,,,,,,,,,0,,,96,100
23925,note_on,15,0,1,,,,,,,,,0,,,96,0
23925,note_on,0,0,1,,,,,,,,,0,,,93,100
23940,note_on,45,0,3,,,,,,,,,0,,,84,100
23940,note_on,15,0,1,,,,,,,,,0,,,93,0
23940,note_on,0,0,1,,,,,,,,,0,,,88,100
23940,note_on,0,0,3,,,,,,,,,0,,,76,100
23940,note_on,0,0,3,,,,,,,,,0,,,81,100
23955,note_on,0,0,3,,,,,,,,,0,,,81,0
23955,note_on,15,0,1,,,,,,,,,0,,,88,0
23955,note_on,15,0,3,,,,,,,,,0,,,76,0
23955,note_on,0,0,3,,,,,,,,,0,,,84,0
24000,note_on,45,0,1,,,,,,,,,0,,,76,100
24015,note_on,0,0,1,,,,,,,,,0,,,72,100
24015,note_on,15,0,1,,,,,,,,,0,,,76,0
24030,note_on,0,0,1,,,,,,,,,0,,,69,100
24030,note_on,15,0,1,,,,,,,,,0,,,72,0
24045,note_on,0,0,1,,,,,,,,,0,,,64,100
24045,note_on,15,0,1,,,,,,,,,0,,,69,0
24060,note_on,0,0,1,,,,,,,,,0,,,63,100
24060,note_on,15,0,1,,,,,,,,,0,,,64,0
24075,note_on,15,0,1,,,,,,,,,0,,,63,0
24120,note_on,0,0,3,,,,,,,,,0,,,78,100
24120,note_on,165,0,3,,,,,,,,,0,,,81,100
24120,note_on,45,0,1,,,,,,,,,0,,,87,100
24120,note_on,0,0,3,,,,,,,,,0,,,72,100
24135,note_on,0,0,3,,,,,,,,,0,,,78,0
24135,note_on,0,0,3,,,,,,,,,0,,,81,0
24135,note_on,15,0,1,,,,,,,,,0,,,87,0
24135,note_on,15,0,3,,,,,,,,,0,,,72,0
24135,note_on,0,0,1,,,,,,,,,0,,,93,100
24150,note_on,0,0,1,,,,,,,,,0,,,96,100
24150,note_on,15,0,1,,,,,,,,,0,,,93,0
24165,note_on,15,0,1,,,,,,,,,0,,,96,0
24165,note_on,0,0,1,,,,,,,,,0,,,93,100
24180,note_on,45,0,3,,,,,,,,,0,,,84,100
24180,note_on,0,0,3,,,,,,,,,0,,,81,100
24180,note_on,0,0,3,,,,,,,,,0,,,78,100
24180,note_on,0,0,1,,,,,,,,,0,,,87,100
24180,note_on,15,0,1,,,,,,,,,0,,,93,0
24195,note_on,0,0,3,,,,,,,,,0,,,81,0
24195,note_on,15,0,1,,,,,,,,,0,,,87,0
24195,note_on,0,0,3,,,,,,,,,0,,,84,0
24195,note_on,15,0,3,,,,,,,,,0,,,78,0
24240,note_on,45,0,1,,,,,,,,,0,,,75,100
24255,note_on,15,0,1,,,,,,,,,0,,,75,0
24255,note_on,0,0,1,,,,,,,,,0,,,72,100
24270,note_on,15,0,1,,,,,,,,,0,,,72,0
24270,note_on,0,0,1,,,,,,,,,0,,,69,100
24285,note_on,15,0,1,,,,,,,,,0,,,69,0
24285,note_on,0,0,1,,,,,,,,,0,,,66,100
24300,note_on,15,0,1,,,,,,,,,0,,,66,0
24300,note_on,0,0,1,,,,,,,,,0,,,64,100
24315,note_on,15,0,1,,,,,,,,,0,,,64,0
24360,note_on,0,0,3,,,,,,,,,0,,,71,100
24360,note_on,45,0,1,,,,,,,,,0,,,88,100
24360,note_on,165,0,3,,,,,,,,,0,,,79,100
24360,note_on,0,0,3,,,,,,,,,0,,,76,100
24375,note_on,0,0,3,,,,,,,,,0,,,76,0
24375,note_on,0,0,3,,,,,,,,,0,,,79,0
24375,note_on,15,0,1,,,,,,,,,0,,,88,0
24375,note_on,0,0,1,,,,,,,,,0,,,91,100
24375,note_on,15,0,3,,,,,,,,,0,,,71,0
24390,note_on,15,0,1,,,,,,,,,0,,,91,0
24390,note_on,0,0,1,,,,,,,,,0,,,95,100
24405,note_on,15,0,1,,,,,,,,,0,,,95,0
24405,note_on,0,0,1,,,,,,,,,0,,,91,100
24420,note_on,45,0,3,,,,,,,,,0,,,83,100
24420,note_on,15,0,1,,,,,,,,,0,,,91,0
24420,note_on,0,0,3,,,,,,,,,0,,,79,100
24420,note_on,0,0,3,,,,,,,,,0,,,76,100
24420,note_on,0,0,1,,,,,,,,,0,,,88,100
24435,note_on,0,0,3,,,,,,,,,0,,,79,0
24435,note_on,0,0,3,,,,,,,,,0,,,83,0
24435,note_on,15,0,3,,,,,,,,,0,,,76,0
24435,note_on,15,0,1,,,,,,,,,0,,,88,0
24480,note_on,45,0,1,,,,,,,,,0,,,71,100
24495,note_on,15,0,1,,,,,,,,,0,,,71,0
24495,note_on,0,0,1,,,,,,,,,0,,,67,100
24510,note_on,15,0,1,,,,,,,,,0,,,67,0
24510,note_on,0,0,1,,,,,,,,,0,,,64,100
24525,note_on,15,0,1,,,,,,,,,0,,,64,0
24525,note_on,0,0,1,,,,,,,,,0,,,62,100
24540,note_on,15,0,1,,,,,,,,,0,,,62,0
24540,note_on,0,0,1,,,,,,,,,0,,,60,100
24555,note_on,15,0,1,,,,,,,,,0,,,60,0
24600,note_on,0,0,3,,,,,,,,,0,,,67,100
24600,note_on,165,0,3,,,,,,,,,0,,,79,100
24600,note_on,0,0,3,,,,,,,,,0,,,76,100
24600,note_on,0,0,1,,,,,,,,,0,,,84,100
24600,note_on,45,0,1,,,,,,,,,0,,,88,100
24615,note_on,15,0,1,,,,,,,,,0,,,88,0
24615,note_on,0,0,3,,,,,,,,,0,,,76,0
24615,note_on,0,0,1,,,,,,,,,0,,,91,100
24615,note_on,15,0,3,,,,,,,,,0,,,67,0
24615,note_on,0,0,3,,,,,,,,,0,,,79,0
24630,note_on,0,0,1,,,,,,,,,0,,,96,100
24630,note_on,15,0,1,,,,,,,,,0,,,91,0
24645,note_on,15,0,1,,,,,,,,,0,,,96,0
24645,note_on,0,0,1,,,,,,,,,0,,,91,100
24660,note_on,45,0,3,,,,,,,,,0,,,79,100
24660,note_on,0,0,1,,,,,,,,,0,,,88,100
24660,note_on,0,0,3,,,,,,,,,0,,,76,100
24660,note_on,0,0,3,,,,,,,,,0,,,72,100
24660,note_on,15,0,1,,,,,,,,,0,,,91,0
24660,note_on,0,0,1,,,,,,,,,0,,,84,100
24660,note_on,0,0,1,,,,,,,,,0,,,84,0
24675,note_on,0,0,3,,,,,,,,,0,,,79,0
24675,note_on,0,0,3,,,,,,,,,0,,,76,0
24675,note_on,15,0,3,,,,,,,,,0,,,72,0
24675,note_on,15,0,1,,,,,,,,,0,,,84,0
24675,note_on,0,0,1,,,,,,,,,0,,,88,0
24720,note_on,45,0,1,,,,,,,,,0,,,72,100
24735,note_on,0,0,1,,,,,,,,,0,,,67,100
24735,note_on,15,0,1,,,,,,,,,0,,,72,0
24750,note_on,0,0,1,,,,,,,,,0,,,64,100
24750,note_on,15,0,1,,,,,,,,,0,,,67,0
24765,note_on,15,0,1,,,,,,,,,0,,,64,0
24765,note_on,0,0,1,,,,,,,,,0,,,60,100
24780,note_on,15,0,1,,,,,,,,,0,,,60,0
24780,note_on,0,0,1,,,,,,,,,0,,,59,100
24795,note_on,15,0,1,,,,,,,,,0,,,59,0
24840,note_on,45,0,1,,,,,,,,,0,,,88,100
24840,note_on,0,0,3,,,,,,,,,0,,,76,100
24840,note_on,165,0,3,,,,,,,,,0,,,79,100
24840,note_on,0,0,3,,,,,,,,,0,,,67,100
24840,note_on,0,0,1,,,,,,,,,0,,,83,100
24855,note_on,0,0,3,,,,,,,,,0,,,76,0
24855,note_on,0,0,1,,,,,,,,,0,,,91,100
24855,note_on,15,0,3,,,,,,,,,0,,,67,0
24855,note_on,15,0,1,,,,,,,,,0,,,88,0
24855,note_on,0,0,3,,,,,,,,,0,,,79,0
24870,note_on,15,0,1,,,,,,,,,0,,,91,0
24870,note_on,0,0,1,,,,,,,,,0,,,95,100
24885,note_on,15,0,1,,,,,,,,,0,,,95,0
24885,note_on,0,0,1,,,,,,,,,0,,,91,100
24900,note_on,15,0,1,,,,,,,,,0,,,91,0
24900,note_on,0,0,1,,,,,,,,,0,,,88,100
24900,note_on,45,0,3,,,,,,,,,0,,,79,100
24900,note_on,0,0,3,,,,,,,,,0,,,71,100
24900,note_on,0,0,3,,,,,,,,,0,,,76,100
24900,note_on,0,0,1,,,,,,,,,0,,,83,0
24915,note_on,0,0,3,,,,,,,,,0,,,76,0
24915,note_on,15,0,3,,,,,,,,,0,,,71,0
24915,note_on,0,0,3,,,,,,,,,0,,,79,0
24915,note_on,15,0,1,,,,,,,,,0,,,88,0
24960,note_on,45,0,1,,,,,,,,,0,,,71,100
24975,note_on,0,0,1,,,,,,,,,0,,,67,100
24975,note_on,15,0,1,,,,,,,,,0,,,71,0
24990,note_on,0,0,1,,,,,,,,,0,,,64,100
24990,note_on,15,0,1,,,,,,,,,0,,,67,0
25005,note_on,15,0,1,,,,,,,,,0,,,64,0
25005,note_on,0,0,1,,,,,,,,,0,,,59,100
25020,note_on,15,0,1,,,,,,,,,0,,,59,0
25020,note_on,0,0,1,,,,,,,,,0,,,58,100
25035,note_on,15,0,1,,,,,,,,,0,,,58,0
25080,note_on,0,0,3,,,,,,,,,0,,,76,100
25080,note_on,0,0,3,,,,,,,,,0,,,67,100
25080,note_on,165,0,3,,,,,,,,,0,,,79,100
25080,note_on,45,0,1,,,,,,,,,0,,,88,100
25080,note_on,0,0,1,,,,,,,,,0,,,82,100
25095,note_on,0,0,3,,,,,,,,,0,,,76,0
25095,note_on,15,0,1,,,,,,,,,0,,,88,0
25095,note_on,15,0,3,,,,,,,,,0,,,67,0
25095,note_on,0,0,1,,,,,,,,,0,,,91,100
25095,note_on,0,0,3,,,,,,,,,0,,,79,0
25110,note_on,0,0,1,,,,,,,,,0,,,94,100
25110,note_on,15,0,1,,,,,,,,,0,,,91,0
25125,note_on,15,0,1,,,,,,,,,0,,,94,0
25125,note_on,0,0,1,,,,,,,,,0,,,91,100
25140,note_on,15,0,1,,,,,,,,,0,,,91,0
25140,note_on,0,0,1,,,,,,,,,0,,,82,0
25140,note_on,0,0,1,,,,,,,,,0,,,82,100
25140,note_on,45,0,3,,,,,,,,,0,,,79,100
25140,note_on,0,0,3,,,,,,,,,0,,,73,100
25140,note_on,0,0,1,,,,,,,,,0,,,88,100
25140,note_on,0,0,3,,,,,,,,,0,,,76,100
25155,note_on,0,0,3,,,,,,,,,0,,,76,0
25155,note_on,15,0,1,,,,,,,,,0,,,82,0
25155,note_on,15,0,3,,,,,,,,,0,,,73,0
25155,note_on,0,0,3,,,,,,,,,0,,,79,0
25155,note_on,0,0,1,,,,,,,,,0,,,88,0
25200,note_on,0,0,3,,,,,,,,,0,,,76,100
25200,note_on,0,0,3,,,,,,,,,0,,,73,100
25200,note_on,45,0,3,,,,,,,,,0,,,79,100
25200,note_on,45,0,1,,,,,,,,,0,,,70,100
25215,note_on,0,0,1,,,,,,,,,0,,,67,100
25215,note_on,0,0,3,,,,,,,,,0,,,76,0
25215,note_on,0,0,3,,,,,,,,,0,,,79,0
25215,note_on,15,0,3,,,,,,,,,0,,,73,0
25215,note_on,15,0,1,,,,,,,,,0,,,70,0
25230,note_on,0,0,1,,,,,,,,,0,,,64,100
25230,note_on,15,0,1,,,,,,,,,0,,,67,0
25245,note_on,0,0,1,,,,,,,,,0,,,61,100
25245,note_on,15,0,1,,,,,,,,,0,,,64,0
25260,note_on,0,0,3,,,,,,,,,0,,,78,100
25260,note_on,45,0,3,,,,,,,,,0,,,83,100
25260,note_on,15,0,1,,,,,,,,,0,,,61,0
25260,set_tempo,8940,1,0,,,,,,711828,,,,,,,
25260,note_on,0,0,1,,,,,,,,,0,,,59,100
25260,note_on,0,0,3,,,,,,,,,0,,,75,100
25275,note_on,0,0,3,,,,,,,,,0,,,78,0
25275,note_on,15,0,3,,,,,,,,,0,,,75,0
25275,note_on,0,0,3,,,,,,,,,0,,,83,0
25275,note_on,15,0,1,,,,,,,,,0,,,59,0
25290,set_tempo,30,1,0,,,,,,709304,,,,,,,
25315,set_tempo,25,1,0,,,,,,706797,,,,,,,
25320,note_on,45,0,1,,,,,,,,,0,,,87,100
25335,note_on,15,0,1,,,,,,,,,0,,,87,0
25335,note_on,0,0,1,,,,,,,,,0,,,95,100
25345,set_tempo,30,1,0,,,,,,704308,,,,,,,
25350,note_on,0,0,1,,,,,,,,,0,,,90,100
25350,note_on,15,0,1,,,,,,,,,0,,,95,0
25365,note_on,15,0,1,,,,,,,,,0,,,90,0
25365,note_on,0,0,1,,,,,,,,,0,,,87,100
25371,set_tempo,26,1,0,,,,,,701836,,,,,,,
25380,note_on,15,0,1,,,,,,,,,0,,,87,0
25380,note_on,105,0,3,,,,,,,,,0,,,75,100
25380,note_on,0,0,1,,,,,,,,,0,,,83,100
25395,note_on,15,0,1,,,,,,,,,0,,,83,0
25395,note_on,15,0,3,,,,,,,,,0,,,75,0
25395,note_on,0,0,3,,,,,,,,,0,,,83,100
25401,set_tempo,30,1,0,,,,,,699382,,,,,,,
25410,note_on,15,0,3,,,,,,,,,0,,,83,0
25410,note_on,0,0,3,,,,,,,,,0,,,78,100
25425,note_on,0,0,3,,,,,,,,,0,,,75,100
25425,note_on,15,0,3,,,,,,,,,0,,,78,0
25427,set_tempo,26,1,0,,,,,,696945,,,,,,,
25440,note_on,45,0,1,,,,,,,,,0,,,81,101
25440,note_on,15,0,3,,,,,,,,,0,,,75,0
25455,note_on,0,0,1,,,,,,,,,0,,,83,101
25455,note_on,15,0,1,,,,,,,,,0,,,81,0
25457,set_tempo,30,1,0,,,,,,694525,,,,,,,
25470,note_on,15,0,1,,,,,,,,,0,,,83,0
25470,note_on,0,0,1,,,,,,,,,0,,,81,101
25482,set_tempo,25,1,0,,,,,,692121,,,,,,,
25485,note_on,15,0,1,,,,,,,,,0,,,81,0
25485,note_on,0,0,1,,,,,,,,,0,,,78,101
25500,note_on,60,0,3,,,,,,,,,0,,,67,102
25500,note_on,15,0,1,,,,,,,,,0,,,78,0
25500,note_on,0,0,1,,,,,,,,,0,,,76,102
25508,set_tempo,26,1,0,,,,,,689734,,,,,,,
25515,note_on,15,0,3,,,,,,,,,0,,,67,0
25515,note_on,15,0,1,,,,,,,,,0,,,76,0
25515,note_on,0,0,3,,,,,,,,,0,,,76,102
25530,note_on,0,0,3,,,,,,,,,0,,,71,102
25530,note_on,15,0,3,,,,,,,,,0,,,76,0
25538,set_tempo,30,1,0,,,,,,687364,,,,,,,
25545,note_on,0,0,3,,,,,,,,,0,,,67,103
25545,note_on,15,0,3,,,,,,,,,0,,,71,0
25560,note_on,15,0,3,,,,,,,,,0,,,67,0
25560,note_on,45,0,1,,,,,,,,,0,,,76,103
25564,set_tempo,26,1,0,,,,,,685010,,,,,,,
25575,note_on,0,0,1,,,,,,,,,0,,,79,103
25575,note_on,15,0,1,,,,,,,,,0,,,76,0
25590,note_on,0,0,1,,,,,,,,,0,,,76,103
25590,note_on,15,0,1,,,,,,,,,0,,,79,0
25594,set_tempo,30,1,0,,,,,,682672,,,,,,,
25605,note_on,0,0,1,,,,,,,,,0,,,74,104
25605,note_on,15,0,1,,,,,,,,,0,,,76,0
25620,set_tempo,26,1,0,,,,,,680349,,,,,,,
25620,note_on,0,0,1,,,,,,,,,0,,,72,104
25620,note_on,15,0,1,,,,,,,,,0,,,74,0
25620,note_on,60,0,3,,,,,,,,,0,,,64,104
25635,note_on,15,0,1,,,,,,,,,0,,,72,0
25635,note_on,0,0,3,,,,,,,,,0,,,72,104
25635,note_on,15,0,3,,,,,,,,,0,,,64,0
25650,note_on,15,0,3,,,,,,,,,0,,,72,0
25650,set_tempo,30,1,0,,,,,,678043,,,,,,,
25650,note_on,0,0,3,,,,,,,,,0,,,67,104
25665,note_on,15,0,3,,,,,,,,,0,,,67,0
25665,note_on,0,0,3,,,,,,,,,0,,,64,105
25675,set_tempo,25,1,0,,,,,,675752,,,,,,,
25680,note_on,45,0,1,,,,,,,,,0,,,72,105
25680,note_on,15,0,3,,,,,,,,,0,,,64,0
25695,note_on,15,0,1,,,,,,,,,0,,,72,0
25695,note_on,0,0,1,,,,,,,,,0,,,76,105
25705,set_tempo,30,1,0,,,,,,673476,,,,,,,
25710,note_on,15,0,1,,,,,,,,,0,,,76,0
25710,note_on,0,0,1,,,,,,,,,0,,,72,106
25725,note_on,15,0,1,,,,,,,,,0,,,72,0
25725,note_on,0,0,1,,,,,,,,,0,,,70,106
25731,set_tempo,26,1,0,,,,,,671216,,,,,,,
25740,note_on,60,0,3,,,,,,,,,0,,,63,106
25740,note_on,0,0,1,,,,,,,,,0,,,71,106
25740,note_on,15,0,1,,,,,,,,,0,,,70,0
25755,note_on,15,0,3,,,,,,,,,0,,,63,0
25755,note_on,15,0,1,,,,,,,,,0,,,71,0
25755,note_on,0,0,3,,,,,,,,,0,,,71,106
25757,set_tempo,26,1,0,,,,,,668971,,,,,,,
25770,note_on,15,0,3,,,,,,,,,0,,,71,0
25770,note_on,0,0,3,,,,,,,,,0,,,66,107
25785,note_on,15,0,3,,,,,,,,,0,,,66,0
25785,note_on,0,0,3,,,,,,,,,0,,,63,107
25787,set_tempo,30,1,0,,,,,,666741,,,,,,,
25800,note_on,15,0,3,,,,,,,,,0,,,63,0
25800,note_on,45,0,1,,,,,,,,,0,,,75,107
25812,set_tempo,25,1,0,,,,,,664525,,,,,,,
25815,note_on,0,0,1,,,,,,,,,0,,,83,108
25815,note_on,15,0,1,,,,,,,,,0,,,75,0
25830,note_on,15,0,1,,,,,,,,,0,,,83,0
25830,note_on,0,0,1,,,,,,,,,0,,,78,108
25842,set_tempo,30,1,0,,,,,,662325,,,,,,,
25845,note_on,15,0,1,,,,,,,,,0,,,78,0
25845,note_on,0,0,1,,,,,,,,,0,,,75,108
25860,note_on,60,0,3,,,,,,,,,0,,,63,108
25860,note_on,0,0,1,,,,,,,,,0,,,71,108
25860,note_on,15,0,1,,,,,,,,,0,,,75,0
25868,set_tempo,26,1,0,,,,,,660139,,,,,,,
25875,note_on,15,0,3,,,,,,,,,0,,,63,0
25875,note_on,15,0,1,,,,,,,,,0,,,71,0
25875,note_on,0,0,3,,,,,,,,,0,,,71,109
25890,note_on,0,0,3,,,,,,,,,0,,,66,109
25890,note_on,15,0,3,,,,,,,,,0,,,71,0
25898,set_tempo,30,1,0,,,,,,657967,,,,,,,
25905,note_on,0,0,3,,,,,,,,,0,,,63,109
25905,note_on,15,0,3,,,,,,,,,0,,,66,0
25920,note_on,45,0,1,,,,,,,,,0,,,69,109
25920,note_on,15,0,3,,,,,,,,,0,,,63,0
25924,set_tempo,26,1,0,,,,,,655809,,,,,,,
25935,note_on,15,0,1,,,,,,,,,0,,,69,0
25935,note_on,0,0,1,,,,,,,,,0,,,71,110
25950,note_on,15,0,1,,,,,,,,,0,,,71,0
25950,note_on,0,0,1,,,,,,,,,0,,,69,110
25954,set_tempo,30,1,0,,,,,,653666,,,,,,,
25965,note_on,15,0,1,,,,,,,,,0,,,69,0
25965,note_on,0,0,1,,,,,,,,,0,,,66,110
25980,set_tempo,26,1,0,,,,,,651537,,,,,,,
25980,note_on,15,0,1,,,,,,,,,0,,,66,0
25980,note_on,0,0,1,,,,,,,,,0,,,64,110
25980,note_on,60,0,3,,,,,,,,,0,,,55,110
25995,note_on,0,0,3,,,,,,,,,0,,,64,110
25995,note_on,15,0,1,,,,,,,,,0,,,64,0
25995,note_on,15,0,3,,,,,,,,,0,,,55,0
26005,set_tempo,25,1,0,,,,,,649421,,,,,,,
26010,note_on,15,0,3,,,,,,,,,0,,,64,0
26010,note_on,0,0,3,,,,,,,,,0,,,59,110
26025,note_on,0,0,3,,,,,,,,,0,,,55,110
26025,note_on,15,0,3,,,,,,,,,0,,,59,0
26035,set_tempo,30,1,0,,,,,,647319,,,,,,,
26040,note_on,45,0,1,,,,,,,,,0,,,64,110
26040,note_on,15,0,3,,,,,,,,,0,,,55,0
26055,note_on,15,0,1,,,,,,,,,0,,,64,0
26055,note_on,0,0,1,,,,,,,,,0,,,67,110
26061,set_tempo,26,1,0,,,,,,645231,,,,,,,
26070,note_on,0,0,1,,,,,,,,,0,,,64,110
26070,note_on,15,0,1,,,,,,,,,0,,,67,0
26085,note_on,0,0,1,,,,,,,,,0,,,62,110
26085,note_on,15,0,1,,,,,,,,,0,,,64,0
26091,set_tempo,30,1,0,,,,,,643156,,,,,,,
26100,note_on,0,0,1,,,,,,,,,0,,,60,110
26100,note_on,4428,0,4,,,,,,,,,0,,,48,110
26100,note_on,15,0,1,,,,,,,,,0,,,62,0
26115,note_on,0,0,4,,,,,,,,,0,,,60,110
26115,note_on,15,0,4,,,,,,,,,0,,,48,0
26115,note_on,15,0,1,,,,,,,,,0,,,60,0
26117,set_tempo,26,1,0,,,,,,641094,,,,,,,
26130,note_on,0,0,4,,,,,,,,,0,,,55,110
26130,note_on,15,0,4,,,,,,,,,0,,,60,0
26145,note_on,15,0,4,,,,,,,,,0,,,55,0
26145,note_on,0,0,4,,,,,,,,,0,,,52,110
26147,set_tempo,30,1,0,,,,,,639046,,,,,,,
26160,note_on,15,0,4,,,,,,,,,0,,,52,0
26160,note_on,45,0,1,,,,,,,,,0,,,60,110
26172,set_tempo,25,1,0,,,,,,637010,,,,,,,
26175,note_on,15,0,1,,,,,,,,,0,,,60,0
26175,note_on,0,0,1,,,,,,,,,0,,,64,110
26190,note_on,15,0,1,,,,,,,,,0,,,64,0
26190,note_on,0,0,1,,,,,,,,,0,,,60,110
26202,set_tempo,30,1,0,,,,,,634988,,,,,,,
26205,note_on,15,0,1,,,,,,,,,0,,,60,0
26205,note_on,0,0,1,,,,,,,,,0,,,58,110
26220,note_on,15,0,1,,,,,,,,,0,,,58,0
26220,control_change,4440,0,5,,,,,,,,,0,64,127,,
26220,note_on,0,0,1,,,,,,,,,0,,,59,110
26220,note_on,60,0,4,,,,,,,,,0,,,51,110
26228,set_tempo,26,1,0,,,,,,632978,,,,,,,
26235,note_on,15,0,4,,,,,,,,,0,,,51,0
26235,note_on,0,0,4,,,,,,,,,0,,,55,110
26250,note_on,15,0,4,,,,,,,,,0,,,55,0
26250,note_on,0,0,4,,,,,,,,,0,,,54,110
26254,set_tempo,26,1,0,,,,,,630981,,,,,,,
26265,note_on,15,0,4,,,,,,,,,0,,,54,0
26265,note_on,0,0,4,,,,,,,,,0,,,51,110
26280,note_on,15,0,4,,,,,,,,,0,,,51,0
26280,note_on,0,0,4,,,,,,,,,0,,,47,110
26284,set_tempo,30,1,0,,,,,,628997,,,,,,,
26295,note_on,15,0,4,,,,,,,,,0,,,47,0
26295,note_on,0,0,4,,,,,,,,,0,,,54,110
26295,note_on,75,0,1,,,,,,,,,0,,,59,0
26295,note_on,0,0,1,,,,,,,,,0,,,63,110
26310,set_tempo,26,1,0,,,,,,627025,,,,,,,
26310,note_on,0,0,4,,,,,,,,,0,,,58,110
26310,note_on,15,0,4,,,,,,,,,0,,,54,0
26310,note_on,0,0,1,,,,,,,,,0,,,66,110
26310,note_on,15,0,1,,,,,,,,,0,,,63,0
26325,note_on,0,0,1,,,,,,,,,0,,,70,110
26325,note_on,15,0,1,,,,,,,,,0,,,66,0
26325,note_on,15,0,4,,,,,,,,,0,,,58,0
26325,note_on,0,0,4,,,,,,,,,0,,,59,110
26340,note_on,0,0,1,,,,,,,,,0,,,71,110
26340,note_on,300,0,3,,,,,,,,,0,,,63,110
26340,note_on,15,0,1,,,,,,,,,0,,,70,0
26340,set_tempo,30,1,0,,,,,,625065,,,,,,,
26340,note_on,15,0,4,,,,,,,,,0,,,59,0
26355,note_on,0,0,3,,,,,,,,,0,,,66,110
26355,note_on,15,0,1,,,,,,,,,0,,,71,0
26355,note_on,0,0,1,,,,,,,,,0,,,75,110
26355,note_on,15,0,3,,,,,,,,,0,,,63,0
26365,set_tempo,25,1,0,,,,,,623118,,,,,,,
26370,note_on,15,0,3,,,,,,,,,0,,,66,0
26370,note_on,15,0,1,,,,,,,,,0,,,75,0
26370,note_on,0,0,1,,,,,,,,,0,,,78,110
26370,note_on,0,0,3,,,,,,,,,0,,,70,110
26385,note_on,15,0,3,,,,,,,,,0,,,70,0
26385,note_on,15,0,1,,,,,,,,,0,,,78,0
26385,note_on,0,0,3,,,,,,,,,0,,,71,110
26385,note_on,0,0,1,,,,,,,,,0,,,82,110
26395,set_tempo,30,1,0,,,,,,621182,,,,,,,
26400,note_on,15,0,1,,,,,,,,,0,,,82,0
26400,note_on,0,0,3,,,,,,,,,0,,,75,110
26400,note_on,0,0,1,,,,,,,,,0,,,83,110
26400,note_on,15,0,3,,,,,,,,,0,,,71,0
26415,note_on,0,0,1,,,,,,,,,0,,,87,110
26415,note_on,15,0,1,,,,,,,,,0,,,83,0
26415,note_on,15,0,3,,,,,,,,,0,,,75,0
26415,note_on,0,0,3,,,,,,,,,0,,,78,110
26421,set_tempo,26,1,0,,,,,,619259,,,,,,,
26430,note_on,15,0,3,,,,,,,,,0,,,78,0
26430,note_on,0,0,3,,,,,,,,,0,,,82,110
26430,note_on,15,0,1,,,,,,,,,0,,,87,0
26430,note_on,0,0,1,,,,,,,,,0,,,90,110
26445,note_on,0,0,1,,,,,,,,,0,,,94,110
26445,note_on,15,0,3,,,,,,,,,0,,,82,0
26445,note_on,15,0,1,,,,,,,,,0,,,90,0
26445,note_on,0,0,3,,,,,,,,,0,,,83,110
26451,set_tempo,30,1,0,,,,,,617347,,,,,,,
26460,note_on,0,0,1,,,,,,,,,0,,,95,110
26460,control_change,240,0,5,,,,,,,,,0,64,0,,
26460,note_on,15,0,1,,,,,,,,,0,,,94,0
26460,note_on,0,0,3,,,,,,,,,0,,,87,110
26460,note_on,15,0,3,,,,,,,,,0,,,83,0
26475,note_on,15,0,3,,,,,,,,,0,,,87,0
26475,note_on,15,0,1,,,,,,,,,0,,,95,0
26477,set_tempo,26,1,0,,,,,,615448,,,,,,,
26502,set_tempo,25,1,0,,,,,,613560,,,,,,,
26532,set_tempo,30,1,0,,,,,,611683,,,,,,,
26558,set_tempo,26,1,0,,,,,,609818,,,,,,,
26588,set_tempo,30,1,0,,,,,,607964,,,,,,,
26614,set_tempo,26,1,0,,,,,,606122,,,,,,,
26640,note_on,165,0,1,,,,,,,,,0,,,95,60
26640,note_on,0,0,1,,,,,,,,,0,,,92,60
26644,set_tempo,30,1,0,,,,,,604290,,,,,,,
26670,note_on,0,0,1,,,,,,,,,0,,,93,60
26670,note_on,0,0,1,,,,,,,,,0,,,90,60
26670,set_tempo,26,1,0,,,,,,602470,,,,,,,
26670,note_on,30,0,1,,,,,,,,,0,,,92,0
26670,note_on,0,0,1,,,,,,,,,0,,,95,0
26695,set_tempo,25,1,0,,,,,,600661,,,,,,,
26700,note_on,0,0,3,,,,,,,,,0,,,76,60
26700,note_on,0,0,1,,,,,,,,,0,,,88,70
26700,note_on,0,0,1,,,,,,,,,0,,,92,70
26700,note_on,225,0,3,,,,,,,,,0,,,83,60
26700,note_on,0,0,1,,,,,,,,,0,,,90,0
26700,set_tempo,0,1,0,,,,,,600000,,,,,,,
26700,marker,0,1,0,,,,,,,,,,,,,
26700,key_signature,5,1,0,,,,,E,,,,,,,,
26700,end_of_track,0,1,0,,,,,,,,,,,,,
26700,control_change,240,0,5,,,,,,,,,0,64,127,,
26700,note_on,30,0,1,,,,,,,,,0,,,93,0
26730,note_on,30,0,3,,,,,,,,,0,,,76,0
26730,note_on,0,0,3,,,,,,,,,0,,,76,60
26730,note_on,0,0,3,,,,,,,,,0,,,83,0
26730,note_on,0,0,3,,,,,,,,,0,,,83,60
26760,note_on,0,0,1,,,,,,,,,0,,,92,0
26760,note_on,0,0,1,,,,,,,,,0,,,88,60
26760,note_on,0,0,1,,,,,,,,,0,,,92,60
26760,note_on,0,0,3,,,,,,,,,0,,,83,0
26760,note_on,30,0,3,,,,,,,,,0,,,76,0
26760,note_on,60,0,1,,,,,,,,,0,,,88,0
26790,note_on,0,0,1,,,,,,,,,0,,,90,60
26790,note_on,30,0,1,,,,,,,,,0,,,88,0
26790,note_on,0,0,1,,,,,,,,,0,,,92,0
26790,note_on,0,0,1,,,,,,,,,0,,,83,60
26805,control_change,105,0,5,,,,,,,,,0,64,0,,
26820,note_on,0,0,1,,,,,,,,,0,,,83,0
26820,note_on,0,0,1,,,,,,,,,0,,,88,70
26820,note_on,30,0,1,,,,,,,,,0,,,90,0
26820,control_change,15,0,5,,,,,,,,,0,64,127,,
26820,note_on,60,0,3,,,,,,,,,0,,,71,60
26820,note_on,0,0,3,,,,,,,,,0,,,76,60
26820,note_on,0,0,1,,,,,,,,,0,,,80,70
26850,note_on,0,0,3,,,,,,,,,0,,,76,60
26850,note_on,30,0,3,,,,,,,,,0,,,76,0
26850,note_on,0,0,3,,,,,,,,,0,,,71,60
26850,note_on,0,0,3,,,,,,,,,0,,,71,0
26880,note_on,60,0,1,,,,,,,,,0,,,80,0
26880,note_on,30,0,3,,,,,,,,,0,,,76,0
26880,note_on,0,0,1,,,,,,,,,0,,,88,0
26880,note_on,0,0,1,,,,,,,,,0,,,83,60
26880,note_on,0,0,3,,,,,,,,,0,,,71,0
26880,note_on,0,0,1,,,,,,,,,0,,,80,60
26910,note_on,0,0,1,,,,,,,,,0,,,83,0
26910,note_on,0,0,1,,,,,,,,,0,,,81,60
26910,note_on,0,0,1,,,,,,,,,0,,,78,60
26910,note_on,30,0,1,,,,,,,,,0,,,80,0
26925,control_change,105,0,5,,,,,,,,,0,64,0,,
26940,note_on,0,0,1,,,,,,,,,0,,,78,0
26940,note_on,0,0,3,,,,,,,,,0,,,71,60
26940,note_on,0,0,1,,,,,,,,,0,,,76,70
26940,control_change,15,0,5,,,,,,,,,0,64,127,,
26940,note_on,0,0,1,,,,,,,,,0,,,80,70
26940,note_on,30,0,1,,,,,,,,,0,,,81,0
26940,note_on,60,0,3,,,,,,,,,0,,,64,60
26970,note_on,30,0,3,,,,,,,,,0,,,71,0
26970,note_on,0,0,3,,,,,,,,,0,,,64,0
26970,note_on,0,0,3,,,,,,,,,0,,,64,60
26970,note_on,0,0,3,,,,,,,,,0,,,71,60
27000,note_on,30,0,3,,,,,,,,,0,,,71,0
27000,note_on,0,0,1,,,,,,,,,0,,,80,60
27000,note_on,0,0,1,,,,,,,,,0,,,80,0
27000,note_on,0,0,1,,,,,,,,,0,,,76,60
27000,note_on,60,0,1,,,,,,,,,0,,,76,0
27000,note_on,0,0,3,,,,,,,,,0,,,64,0
27030,note_on,0,0,1,,,,,,,,,0,,,78,60
27030,note_on,30,0,1,,,,,,,,,0,,,76,0
27030,note_on,0,0,1,,,,,,,,,0,,,71,60
27030,note_on,0,0,1,,,,,,,,,0,,,80,0
27045,control_change,105,0,5,,,,,,,,,0,64,0,,
27060,note_on,0,0,1,,,,,,,,,0,,,76,70
27060,note_on,60,0,3,,,,,,,,,0,,,59,60
27060,note_on,0,0,1,,,,,,,,,0,,,71,0
27060,control_change,15,0,5,,,,,,,,,0,64,127,,
27060,note_on,0,0,1,,,,,,,,,0,,,68,70
27060,note_on,30,0,1,,,,,,,,,0,,,78,0
27060,note_on,0,0,3,,,,,,,,,0,,,64,60
27090,note_on,30,0,3,,,,,,,,,0,,,64,0
27090,note_on,0,0,3,,,,,,,,,0,,,59,0
27090,note_on,0,0,3,,,,,,,,,0,,,64,60
27090,note_on,0,0,3,,,,,,,,,0,,,59,60
27120,note_on,60,0,1,,,,,,,,,0,,,76,0
27120,note_on,30,0,3,,,,,,,,,0,,,64,0
27120,note_on,0,0,3,,,,,,,,,0,,,59,0
27120,note_on,0,0,1,,,,,,,,,0,,,68,60
27120,note_on,0,0,1,,,,,,,,,0,,,68,0
27120,note_on,0,0,1,,,,,,,,,0,,,76,60
27150,note_on,0,0,1,,,,,,,,,0,,,71,60
27150,note_on,0,0,1,,,,,,,,,0,,,76,0
27150,note_on,30,0,1,,,,,,,,,0,,,68,0
27150,note_on,0,0,1,,,,,,,,,0,,,78,60
27165,control_change,105,0,5,,,,,,,,,0,64,0,,
27180,note_on,0,0,1,,,,,,,,,0,,,80,70
27180,note_on,0,0,4,,,,,,,,,0,,,52,60
27180,note_on,0,0,1,,,,,,,,,0,,,78,0
27180,note_on,30,0,1,,,,,,,,,0,,,71,0
27180,control_change,15,0,5,,,,,,,,,0,64,127,,
27180,note_on,840,0,4,,,,,,,,,0,,,59,60
27180,note_on,0,0,1,,,,,,,,,0,,,76,70
27210,note_on,0,0,4,,,,,,,,,0,,,52,60
27210,note_on,30,0,4,,,,,,,,,0,,,52,0
27210,note_on,0,0,4,,,,,,,,,0,,,59,0
27210,note_on,0,0,4,,,,,,,,,0,,,59,60
27240,note_on,0,0,4,,,,,,,,,0,,,59,0
27240,note_on,60,0,1,,,,,,,,,0,,,76,0
27240,note_on,30,0,4,,,,,,,,,0,,,52,0
27240,note_on,0,0,1,,,,,,,,,0,,,71,60
27240,note_on,0,0,1,,,,,,,,,0,,,78,60
27240,note_on,0,0,1,,,,,,,,,0,,,80,0
27270,note_on,0,0,1,,,,,,,,,0,,,78,0
27270,note_on,30,0,1,,,,,,,,,0,,,71,0
27270,note_on,0,0,1,,,,,,,,,0,,,76,60
27270,note_on,0,0,1,,,,,,,,,0,,,80,60
27285,control_change,105,0,5,,,,,,,,,0,64,0,,
27300,note_on,30,0,1,,,,,,,,,0,,,76,0
27300,control_change,15,0,5,,,,,,,,,0,64,127,,
27300,note_on,0,0,1,,,,,,,,,0,,,81,70
27300,note_on,0,0,3,,,,,,,,,0,,,63,60
27300,note_on,0,0,1,,,,,,,,,0,,,78,70
27300,note_on,180,0,3,,,,,,,,,0,,,71,60
27300,note_on,0,0,1,,,,,,,,,0,,,80,0
27330,note_on,0,0,3,,,,,,,,,0,,,63,60
27330,note_on,30,0,3,,,,,,,,,0,,,63,0
27330,note_on,0,0,3,,,,,,,,,0,,,71,0
27330,note_on,0,0,3,,,,,,,,,0,,,71,60
27360,note_on,30,0,3,,,,,,,,,0,,,63,0
27360,note_on,60,0,1,,,,,,,,,0,,,78,0
27360,note_on,0,0,3,,,,,,,,,0,,,71,0
27360,note_on,0,0,1,,,,,,,,,0,,,71,60
27360,note_on,0,0,1,,,,,,,,,0,,,78,60
27360,note_on,0,0,1,,,,,,,,,0,,,81,0
27390,note_on,30,0,1,,,,,,,,,0,,,78,0
27390,note_on,0,0,1,,,,,,,,,0,,,71,0
27390,note_on,0,0,1,,,,,,,,,0,,,78,60
27390,note_on,0,0,1,,,,,,,,,0,,,81,60
27405,control_change,105,0,5,,,,,,,,,0,64,0,,
27420,control_change,15,0,5,,,,,,,,,0,64,127,,
27420,note_on,30,0,1,,,,,,,,,0,,,78,0
27420,note_on,0,0,1,,,,,,,,,0,,,81,0
27420,note_on,0,0,1,,,,,,,,,0,,,80,70
27420,note_on,0,0,4,,,,,,,,,0,,,52,60
27420,note_on,180,0,4,,,,,,,,,0,,,59,60
27420,note_on,0,0,1,,,,,,,,,0,,,83,70
27450,note_on,30,0,4,,,,,,,,,0,,,52,0
27450,note_on,0,0,4,,,,,,,,,0,,,59,0
27450,note_on,0,0,4,,,,,,,,,0,,,59,60
27450,note_on,0,0,4,,,,,,,,,0,,,52,60
27480,note_on,60,0,1,,,,,,,,,0,,,80,0
27480,note_on,0,0,1,,,,,,,,,0,,,78,60
27480,note_on,30,0,4,,,,,,,,,0,,,52,0
27480,note_on,0,0,1,,,,,,,,,0,,,81,60
27480,note_on,0,0,1,,,,,,,,,0,,,83,0
27480,note_on,0,0,4,,,,,,,,,0,,,59,0
27510,note_on,0,0,1,,,,,,,,,0,,,80,60
27510,note_on,30,0,1,,,,,,,,,0,,,81,0
27510,note_on,0,0,1,,,,,,,,,0,,,76,60
27510,note_on,0,0,1,,,,,,,,,0,,,78,0
27525,control_change,105,0,5,,,,,,,,,0,64,0,,
27540,note_on,0,0,1,,,,,,,,,0,,,71,70
27540,note_on,180,0,3,,,,,,,,,0,,,71,60
27540,note_on,0,0,3,,,,,,,,,0,,,59,60
27540,note_on,30,0,1,,,,,,,,,0,,,80,0
27540,control_change,15,0,5,,,,,,,,,0,64,127,,
27540,note_on,0,0,1,,,,,,,,,0,,,76,0
27540,note_on,0,0,1,,,,,,,,,0,,,78,70
27570,note_on,0,0,3,,,,,,,,,0,,,71,60
27570,note_on,0,0,3,,,,,,,,,0,,,71,0
27570,note_on,0,0,3,,,,,,,,,0,,,59,60
27570,note_on,30,0,3,,,,,,,,,0,,,59,0
27600,note_on,60,0,1,,,,,,,,,0,,,78,0
27600,note_on,30,0,3,,,,,,,,,0,,,59,0
27600,note_on,0,0,1,,,,,,,,,0,,,92,60
27600,note_on,0,0,3,,,,,,,,,0,,,71,0
27600,note_on,0,0,1,,,,,,,,,0,,,71,0
27600,note_on,0,0,1,,,,,,,,,0,,,95,60
27630,note_on,0,0,1,,,,,,,,,0,,,95,0
27630,note_on,0,0,1,,,,,,,,,0,,,93,60
27630,note_on,0,0,1,,,,,,,,,0,,,90,60
27630,note_on,30,0,1,,,,,,,,,0,,,92,0
27645,control_change,105,0,5,,,,,,,,,0,64,0,,
27660,note_on,60,0,3,,,,,,,,,0,,,83,60
27660,note_on,0,0,3,,,,,,,,,0,,,76,60
27660,note_on,30,0,1,,,,,,,,,0,,,93,0
27660,control_change,15,0,5,,,,,,,,,0,64,127,,
27660,note_on,0,0,1,,,,,,,,,0,,,92,70
27660,note_on,0,0,1,,,,,,,,,0,,,90,0
27660,note_on,0,0,1,,,,,,,,,0,,,88,70
27690,note_on,0,0,3,,,,,,,,,0,,,83,0
27690,note_on,0,0,3,,,,,,,,,0,,,76,60
27690,note_on,0,0,3,,,,,,,,,0,,,83,60
27690,note_on,30,0,3,,,,,,,,,0,,,76,0
27720,note_on,0,0,3,,,,,,,,,0,,,83,0
27720,note_on,60,0,1,,,,,,,,,0,,,88,0
27720,note_on,30,0,3,,,,,,,,,0,,,76,0
27720,note_on,0,0,1,,,,,,,,,0,,,92,60
27720,note_on,0,0,1,,,,,,,,,0,,,92,0
27720,note_on,0,0,1,,,,,,,,,0,,,88,60
27750,note_on,0,0,1,,,,,,,,,0,,,90,60
27750,note_on,0,0,1,,,,,,,,,0,,,88,0
27750,note_on,30,0,1,,,,,,,,,0,,,92,0
27750,note_on,0,0,1,,,,,,,,,0,,,83,60
27765,control_change,105,0,5,,,,,,,,,0,64,0,,
27780,note_on,30,0,1,,,,,,,,,0,,,90,0
27780,note_on,0,0,1,,,,,,,,,0,,,88,70
27780,note_on,0,0,1,,,,,,,,,0,,,83,0
27780,note_on,0,0,3,,,,,,,,,0,,,71,60
27780,note_on,0,0,1,,,,,,,,,0,,,80,70
27780,note_on,60,0,3,,,,,,,,,0,,,76,60
27780,control_change,15,0,5,,,,,,,,,0,64,127,,
27810,note_on,30,0,3,,,,,,,,,0,,,71,0
27810,note_on,0,0,3,,,,,,,,,0,,,71,60
27810,note_on,0,0,3,,,,,,,,,0,,,76,0
27810,note_on,0,0,3,,,,,,,,,0,,,76,60
27840,note_on,0,0,1,,,,,,,,,0,,,80,0
27840,note_on,0,0,1,,,,,,,,,0,,,83,60
27840,note_on,0,0,3,,,,,,,,,0,,,76,0
27840,note_on,0,0,1,,,,,,,,,0,,,80,60
27840,note_on,60,0,1,,,,,,,,,0,,,88,0
27840,note_on,30,0,3,,,,,,,,,0,,,71,0
27870,note_on,0,0,1,,,,,,,,,0,,,78,60
27870,note_on,0,0,1,,,,,,,,,0,,,80,0
27870,note_on,0,0,1,,,,,,,,,0,,,81,60
27870,note_on,30,0,1,,,,,,,,,0,,,83,0
27885,control_change,105,0,5,,,,,,,,,0,64,0,,
27900,note_on,0,0,3,,,,,,,,,0,,,64,60
27900,note_on,0,0,1,,,,,,,,,0,,,80,70
27900,note_on,0,0,1,,,,,,,,,0,,,78,0
27900,note_on,0,0,1,,,,,,,,,0,,,76,70
27900,note_on,30,0,1,,,,,,,,,0,,,81,0
27900,control_change,15,0,5,,,,,,,,,0,64,127,,
27900,note_on,60,0,3,,,,,,,,,0,,,71,60
27930,note_on,30,0,3,,,,,,,,,0,,,64,0
27930,note_on,0,0,3,,,,,,,,,0,,,64,60
27930,note_on,0,0,3,,,,,,,,,0,,,71,0
27930,note_on,0,0,3,,,,,,,,,0,,,71,60
27960,note_on,0,0,1,,,,,,,,,0,,,76,60
27960,note_on,0,0,1,,,,,,,,,0,,,80,60
27960,note_on,60,0,1,,,,,,,,,0,,,76,0
27960,note_on,0,0,3,,,,,,,,,0,,,71,0
27960,note_on,30,0,3,,,,,,,,,0,,,64,0
27960,note_on,0,0,1,,,,,,,,,0,,,80,0
27990,note_on,0,0,1,,,,,,,,,0,,,78,60
27990,note_on,0,0,1,,,,,,,,,0,,,71,60
27990,note_on,0,0,1,,,,,,,,,0,,,80,0
27990,note_on,30,0,1,,,,,,,,,0,,,76,0
28005,control_change,105,0,5,,,,,,,,,0,64,0,,
28020,note_on,30,0,1,,,,,,,,,0,,,78,0
28020,note_on,0,0,1,,,,,,,,,0,,,68,70
28020,note_on,60,0,3,,,,,,,,,0,,,59,60
28020,control_change,15,0,5,,,,,,,,,0,64,127,,
28020,note_on,0,0,1,,,,,,,,,0,,,76,70
28020,note_on,0,0,1,,,,,,,,,0,,,71,0
28020,note_on,0,0,3,,,,,,,,,0,,,64,60
28050,note_on,30,0,3,,,,,,,,,0,,,64,0
28050,note_on,0,0,3,,,,,,,,,0,,,64,60
28050,note_on,0,0,3,,,,,,,,,0,,,59,60
28050,note_on,0,0,3,,,,,,,,,0,,,59,0
28080,note_on,0,0,1,,,,,,,,,0,,,76,60
28080,note_on,0,0,1,,,,,,,,,0,,,68,60
28080,note_on,60,0,1,,,,,,,,,0,,,76,0
28080,note_on,30,0,3,,,,,,,,,0,,,64,0
28080,note_on,0,0,3,,,,,,,,,0,,,59,0
28080,note_on,0,0,1,,,,,,,,,0,,,68,0
28110,note_on,0,0,1,,,,,,,,,0,,,78,60
28110,note_on,0,0,1,,,,,,,,,0,,,71,60
28110,note_on,30,0,1,,,,,,,,,0,,,68,0
28110,note_on,0,0,1,,,,,,,,,0,,,76,0
28125,control_change,105,0,5,,,,,,,,,0,64,0,,
28140,note_on,660,0,4,,,,,,,,,0,,,59,60
28140,note_on,30,0,1,,,,,,,,,0,,,71,0
28140,note_on,0,0,1,,,,,,,,,0,,,78,0
28140,note_on,0,0,1,,,,,,,,,0,,,76,70
28140,control_change,15,0,5,,,,,,,,,0,64,127,,
28140,note_on,0,0,1,,,,,,,,,0,,,80,70
28140,note_on,0,0,4,,,,,,,,,0,,,52,60
28170,note_on,30,0,4,,,,,,,,,0,,,52,0
28170,note_on,0,0,4,,,,,,,,,0,,,59,60
28170,note_on,0,0,4,,,,,,,,,0,,,59,0
28170,note_on,0,0,4,,,,,,,,,0,,,52,60
28200,note_on,60,0,1,,,,,,,,,0,,,76,0
28200,note_on,0,0,4,,,,,,,,,0,,,59,0
28200,note_on,0,0,1,,,,,,,,,0,,,78,60
28200,note_on,0,0,1,,,,,,,,,0,,,80,0
28200,note_on,30,0,4,,,,,,,,,0,,,52,0
28200,note_on,0,0,1,,,,,,,,,0,,,81,60
28230,note_on,0,0,1,,,,,,,,,0,,,80,60
28230,note_on,30,0,1,,,,,,,,,0,,,78,0
28230,note_on,0,0,1,,,,,,,,,0,,,81,0
28230,note_on,0,0,1,,,,,,,,,0,,,76,60
28245,control_change,105,0,5,,,,,,,,,0,64,0,,
28260,note_on,60,0,4,,,,,,,,,0,,,63,60
28260,note_on,0,0,1,,,,,,,,,0,,,78,70
28260,note_on,30,0,1,,,,,,,,,0,,,80,0
28260,note_on,0,0,1,,,,,,,,,0,,,71,70
28260,control_change,15,0,5,,,,,,,,,0,64,127,,
28260,note_on,0,0,4,,,,,,,,,0,,,59,60
28260,note_on,0,0,1,,,,,,,,,0,,,76,0
28290,note_on,0,0,4,,,,,,,,,0,,,63,60
28290,note_on,0,0,4,,,,,,,,,0,,,59,60
28290,note_on,30,0,4,,,,,,,,,0,,,59,0
28290,note_on,0,0,4,,,,,,,,,0,,,63,0
28320,note_on,30,0,4,,,,,,,,,0,,,59,0
28320,note_on,60,0,1,,,,,,,,,0,,,78,0
28320,note_on,0,0,4,,,,,,,,,0,,,63,0
28320,note_on,0,0,1,,,,,,,,,0,,,71,0
28320,note_on,0,0,1,,,,,,,,,0,,,80,60
28320,note_on,0,0,1,,,,,,,,,0,,,76,60
28350,note_on,0,0,1,,,,,,,,,0,,,71,60
28350,note_on,30,0,1,,,,,,,,,0,,,76,0
28350,note_on,0,0,1,,,,,,,,,0,,,78,60
28350,note_on,0,0,1,,,,,,,,,0,,,80,0
28365,control_change,105,0,5,,,,,,,,,0,64,0,,
28380,note_on,60,0,4,,,,,,,,,0,,,59,60
28380,note_on,0,0,4,,,,,,,,,0,,,52,60
28380,control_change,15,0,5,,,,,,,,,0,64,127,,
28380,note_on,30,0,1,,,,,,,,,0,,,78,0
28380,note_on,0,0,1,,,,,,,,,0,,,71,0
28380,note_on,0,0,1,,,,,,,,,0,,,76,70
28380,note_on,0,0,1,,,,,,,,,0,,,68,70
28410,note_on,0,0,4,,,,,,,,,0,,,52,60
28410,note_on,0,0,4,,,,,,,,,0,,,59,0
28410,note_on,0,0,4,,,,,,,,,0,,,59,60
28410,note_on,30,0,4,,,,,,,,,0,,,52,0
28440,note_on,0,0,4,,,,,,,,,0,,,59,0
28440,note_on,0,0,4,,,,,,,,,0,,,64,60
28440,note_on,30,0,4,,,,,,,,,0,,,52,0
28470,note_on,30,0,4,,,,,,,,,0,,,64,0
28470,note_on,0,0,4,,,,,,,,,0,,,64,60
28500,note_on,120,0,1,,,,,,,,,0,,,68,0
28500,note_on,0,0,1,,,,,,,,,0,,,76,0
28500,control_change,120,0,5,,,,,,,,,0,64,0,,
28500,note_on,30,0,4,,,,,,,,,0,,,64,0
28500,note_on,0,0,4,,,,,,,,,0,,,71,60
28560,note_on,60,0,4,,,,,,,,,0,,,71,0
28560,note_on,60,0,1,,,,,,,,,0,,,56,100
28560,note_on,0,0,1,,,,,,,,,0,,,64,100
28590,note_on,30,0,1,,,,,,,,,0,,,64,0
28590,note_on,0,0,1,,,,,,,,,0,,,56,0
28590,note_on,0,0,1,,,,,,,,,0,,,64,100
28590,note_on,0,0,1,,,,,,,,,0,,,68,100
28620,note_on,0,0,1,,,,,,,,,0,,,59,110
28620,note_on,0,0,1,,,,,,,,,0,,,66,110
28620,note_on,0,0,1,,,,,,,,,0,,,68,0
28620,note_on,30,0,1,,,,,,,,,0,,,64,0
28680,note_on,60,0,1,,,,,,,,,0,,,66,0
28680,note_on,0,0,1,,,,,,,,,0,,,64,100
28680,note_on,0,0,1,,,,,,,,,0,,,68,100
28680,note_on,0,0,1,,,,,,,,,0,,,59,0
28710,note_on,30,0,1,,,,,,,,,0,,,68,0
28710,note_on,0,0,1,,,,,,,,,0,,,64,0
28710,note_on,0,0,1,,,,,,,,,0,,,66,100
28710,note_on,0,0,1,,,,,,,,,0,,,69,100
28740,note_on,0,0,1,,,,,,,,,0,,,69,0
28740,note_on,0,0,1,,,,,,,,,0,,,68,110
28740,note_on,30,0,1,,,,,,,,,0,,,66,0
28740,note_on,0,0,1,,,,,,,,,0,,,71,110
28800,note_on,0,0,1,,,,,,,,,0,,,71,0
28800,note_on,60,0,1,,,,,,,,,0,,,68,0
28800,note_on,0,0,1,,,,,,,,,0,,,69,100
28800,note_on,0,0,1,,,,,,,,,0,,,73,100
28830,note_on,30,0,1,,,,,,,,,0,,,69,0
28830,note_on,0,0,1,,,,,,,,,0,,,71,100
28830,note_on,0,0,1,,,,,,,,,0,,,73,0
28830,note_on,0,0,1,,,,,,,,,0,,,68,100
28860,note_on,30,0,1,,,,,,,,,0,,,71,0
28860,note_on,0,0,1,,,,,,,,,0,,,66,110
28860,note_on,0,0,1,,,,,,,,,0,,,68,0
28860,note_on,0,0,1,,,,,,,,,0,,,69,110
28920,note_on,60,0,1,,,,,,,,,0,,,69,0
28920,note_on,0,0,1,,,,,,,,,0,,,68,100
28920,note_on,0,0,1,,,,,,,,,0,,,64,100
28920,note_on,0,0,1,,,,,,,,,0,,,66,0
28950,note_on,0,0,1,,,,,,,,,0,,,66,100
28950,note_on,30,0,1,,,,,,,,,0,,,64,0
28950,note_on,0,0,1,,,,,,,,,0,,,68,0
28950,note_on,0,0,1,,,,,,,,,0,,,69,100
28980,note_on,0,0,1,,,,,,,,,0,,,59,110
28980,note_on,0,0,1,,,,,,,,,0,,,66,0
28980,note_on,0,0,1,,,,,,,,,0,,,66,110
28980,note_on,30,0,1,,,,,,,,,0,,,69,0
29040,note_on,60,0,1,,,,,,,,,0,,,66,0
29040,note_on,0,0,1,,,,,,,,,0,,,56,100
29040,note_on,0,0,1,,,,,,,,,0,,,59,0
29040,note_on,0,0,1,,,,,,,,,0,,,64,100
29070,note_on,30,0,1,,,,,,,,,0,,,64,0
29070,note_on,0,0,1,,,,,,,,,0,,,64,100
29070,note_on,0,0,1,,,,,,,,,0,,,68,100
29070,note_on,0,0,1,,,,,,,,,0,,,56,0
29100,note_on,0,0,1,,,,,,,,,0,,,68,0
29100,note_on,30,0,1,,,,,,,,,0,,,64,0
29100,note_on,0,0,1,,,,,,,,,0,,,66,110
29100,note_on,0,0,1,,,,,,,,,0,,,59,110
29160,note_on,60,0,1,,,,,,,,,0,,,66,0
29160,note_on,0,0,1,,,,,,,,,0,,,68,100
29160,note_on,0,0,1,,,,,,,,,0,,,64,100
29160,note_on,0,0,1,,,,,,,,,0,,,59,0
29190,note_on,30,0,1,,,,,,,,,0,,,64,0
29190,note_on,0,0,1,,,,,,,,,0,,,66,100
29190,note_on,0,0,1,,,,,,,,,0,,,68,0
29190,note_on,0,0,1,,,,,,,,,0,,,69,100
29220,note_on,30,0,1,,,,,,,,,0,,,66,0
29220,note_on,0,0,1,,,,,,,,,0,,,69,0
29220,note_on,0,0,1,,,,,,,,,0,,,71,110
29220,note_on,0,0,1,,,,,,,,,0,,,68,110
29280,note_on,60,0,1,,,,,,,,,0,,,68,0
29280,note_on,0,0,1,,,,,,,,,0,,,69,100
29280,note_on,0,0,1,,,,,,,,,0,,,71,0
29280,note_on,0,0,1,,,,,,,,,0,,,73,100
29310,note_on,0,0,1,,,,,,,,,0,,,71,100
29310,note_on,0,0,1,,,,,,,,,0,,,68,100
29310,note_on,0,0,1,,,,,,,,,0,,,73,0
29310,note_on,30,0,1,,,,,,,,,0,,,69,0
29340,note_on,0,0,1,,,,,,,,,0,,,68,0
29340,note_on,0,0,1,,,,,,,,,0,,,66,110
29340,note_on,30,0,1,,,,,,,,,0,,,71,0
29340,note_on,0,0,1,,,,,,,,,0,,,69,110
29400,note_on,60,0,1,,,,,,,,,0,,,66,0
29400,note_on,0,0,1,,,,,,,,,0,,,69,0
29400,note_on,0,0,1,,,,,,,,,0,,,68,100
29400,note_on,0,0,1,,,,,,,,,0,,,64,100
29430,note_on,0,0,1,,,,,,,,,0,,,66,100
29430,note_on,0,0,1,,,,,,,,,0,,,68,0
29430,note_on,30,0,1,,,,,,,,,0,,,64,0
29430,note_on,0,0,1,,,,,,,,,0,,,69,100
29460,note_on,0,0,1,,,,,,,,,0,,,66,110
29460,note_on,30,0,1,,,,,,,,,0,,,66,0
29460,note_on,0,0,1,,,,,,,,,0,,,59,110
29460,note_on,0,0,1,,,,,,,,,0,,,69,0
29520,note_on,0,0,1,,,,,,,,,0,,,59,0
29520,note_on,0,0,1,,,,,,,,,0,,,95,60
29520,note_on,0,0,1,,,,,,,,,0,,,92,60
29520,note_on,60,0,1,,,,,,,,,0,,,66,0
29550,note_on,0,0,1,,,,,,,,,0,,,95,0
29550,note_on,0,0,1,,,,,,,,,0,,,93,60
29550,note_on,0,0,1,,,,,,,,,0,,,90,60
29550,note_on,30,0,1,,,,,,,,,0,,,92,0
29580,note_on,0,0,1,,,,,,,,,0,,,90,0
29580,note_on,0,0,1,,,,,,,,,0,,,88,70
29580,note_on,0,0,3,,,,,,,,,0,,,76,60
29580,note_on,1500,0,3,,,,,,,,,0,,,83,60
29580,note_on,30,0,1,,,,,,,,,0,,,93,0
29580,control_change,1080,0,5,,,,,,,,,0,64,127,,
29580,note_on,0,0,1,,,,,,,,,0,,,92,70
29610,note_on,0,0,3,,,,,,,,,0,,,76,60
29610,note_on,0,0,3,,,,,,,,,0,,,83,60
29610,note_on,0,0,3,,,,,,,,,0,,,83,0
29610,note_on,30,0,3,,,,,,,,,0,,,76,0
29640,note_on,0,0,3,,,,,,,,,0,,,83,0
29640,note_on,0,0,1,,,,,,,,,0,,,88,60
29640,note_on,0,0,1,,,,,,,,,0,,,92,0
29640,note_on,0,0,1,,,,,,,,,0,,,92,60
29640,note_on,30,0,3,,,,,,,,,0,,,76,0
29640,note_on,60,0,1,,,,,,,,,0,,,88,0
29670,note_on,30,0,1,,,,,,,,,0,,,88,0
29670,note_on,0,0,1,,,,,,,,,0,,,83,60
29670,note_on,0,0,1,,,,,,,,,0,,,90,60
29670,note_on,0,0,1,,,,,,,,,0,,,92,0
29685,control_change,105,0,5,,,,,,,,,0,64,0,,
29700,note_on,0,0,1,,,,,,,,,0,,,88,70
29700,note_on,30,0,1,,,,,,,,,0,,,90,0
29700,control_change,15,0,5,,,,,,,,,0,64,127,,
29700,note_on,0,0,1,,,,,,,,,0,,,80,70
29700,note_on,0,0,1,,,,,,,,,0,,,83,0
29700,note_on,0,0,3,,,,,,,,,0,,,76,60
29700,note_on,60,0,3,,,,,,,,,0,,,71,60
29730,note_on,0,0,3,,,,,,,,,0,,,71,0
29730,note_on,30,0,3,,,,,,,,,0,,,76,0
29730,note_on,0,0,3,,,,,,,,,0,,,71,60
29730,note_on,0,0,3,,,,,,,,,0,,,76,60
29760,note_on,0,0,3,,,,,,,,,0,,,71,0
29760,note_on,0,0,1,,,,,,,,,0,,,83,60
29760,note_on,0,0,1,,,,,,,,,0,,,88,0
29760,note_on,0,0,1,,,,,,,,,0,,,80,60
29760,note_on,60,0,1,,,,,,,,,0,,,80,0
29760,note_on,30,0,3,,,,,,,,,0,,,76,0
29790,note_on,30,0,1,,,,,,,,,0,,,80,0
29790,note_on,0,0,1,,,,,,,,,0,,,78,60
29790,note_on,0,0,1,,,,,,,,,0,,,81,60
29790,note_on,0,0,1,,,,,,,,,0,,,83,0
29805,control_change,105,0,5,,,,,,,,,0,64,0,,
29820,note_on,0,0,1,,,,,,,,,0,,,78,0
29820,note_on,30,0,1,,,,,,,,,0,,,81,0
29820,control_change,15,0,5,,,,,,,,,0,64,127,,
29820,note_on,0,0,1,,,,,,,,,0,,,80,70
29820,note_on,0,0,3,,,,,,,,,0,,,64,60
29820,note_on,0,0,1,,,,,,,,,0,,,76,70
29820,note_on,60,0,3,,,,,,,,,0,,,71,60
29850,note_on,0,0,3,,,,,,,,,0,,,64,60
29850,note_on,30,0,3,,,,,,,,,0,,,64,0
29850,note_on,0,0,3,,,,,,,,,0,,,71,0
29850,note_on,0,0,3,,,,,,,,,0,,,71,60
29880,note_on,30,0,3,,,,,,,,,0,,,64,0
29880,note_on,0,0,3,,,,,,,,,0,,,71,0
29880,note_on,0,0,1,,,,,,,,,0,,,80,0
29880,note_on,0,0,1,,,,,,,,,0,,,80,60
29880,note_on,0,0,1,,,,,,,,,0,,,76,60
29880,note_on,60,0,1,,,,,,,,,0,,,76,0
29910,note_on,0,0,1,,,,,,,,,0,,,80,0
29910,note_on,0,0,1,,,,,,,,,0,,,78,60
29910,note_on,0,0,1,,,,,,,,,0,,,71,60
29910,note_on,30,0,1,,,,,,,,,0,,,76,0
29925,control_change,105,0,5,,,,,,,,,0,64,0,,
29940,control_change,15,0,5,,,,,,,,,0,64,127,,
29940,note_on,30,0,1,,,,,,,,,0,,,78,0
29940,note_on,0,0,1,,,,,,,,,0,,,68,70
29940,note_on,0,0,1,,,,,,,,,0,,,71,0
29940,note_on,0,0,1,,,,,,,,,0,,,76,70
29940,note_on,60,0,3,,,,,,,,,0,,,59,60
29940,note_on,0,0,3,,,,,,,,,0,,,64,60
29970,note_on,30,0,3,,,,,,,,,0,,,64,0
29970,note_on,0,0,3,,,,,,,,,0,,,59,60
29970,note_on,0,0,3,,,,,,,,,0,,,59,0
29970,note_on,0,0,3,,,,,,,,,0,,,64,60
30000,end_of_track,0,1,3,,,,,,,,,,,,,
30000,note_on,0,0,1,,,,,,,,,0,,,56,60
30000,note_on,60,0,1,,,,,,,,,0,,,76,0
30000,note_on,0,0,1,,,,,,,,,0,,,68,0
30000,note_on,0,0,3,,,,,,,,,0,,,59,0
30000,note_on,30,0,3,,,,,,,,,0,,,64,0
30000,note_on,0,0,1,,,,,,,,,0,,,64,60
30030,note_on,0,0,1,,,,,,,,,0,,,59,60
30030,note_on,30,0,1,,,,,,,,,0,,,64,0
30030,note_on,0,0,1,,,,,,,,,0,,,56,0
30030,note_on,0,0,1,,,,,,,,,0,,,66,60
30045,control_change,105,0,5,,,,,,,,,0,64,0,,
30060,note_on,0,0,4,,,,,,,,,0,,,52,60
30060,note_on,0,0,1,,,,,,,,,0,,,68,70
30060,note_on,30,0,1,,,,,,,,,0,,,59,0
30060,note_on,1500,0,4,,,,,,,,,0,,,59,60
30060,note_on,0,0,1,,,,,,,,,0,,,66,0
30060,note_on,0,0,1,,,,,,,,,0,,,64,70
30090,note_on,0,0,4,,,,,,,,,0,,,59,0
30090,note_on,30,0,4,,,,,,,,,0,,,52,0
30090,note_on,0,0,4,,,,,,,,,0,,,52,60
30090,note_on,0,0,4,,,,,,,,,0,,,59,60
30120,note_on,0,0,1,,,,,,,,,0,,,66,60
30120,note_on,0,0,1,,,,,,,,,0,,,68,0
30120,note_on,0,0,1,,,,,,,,,0,,,69,60
30120,note_on,30,0,4,,,,,,,,,0,,,52,0
30120,note_on,60,0,1,,,,,,,,,0,,,64,0
30120,note_on,0,0,4,,,,,,,,,0,,,59,0
30150,note_on,0,0,1,,,,,,,,,0,,,64,60
30150,note_on,30,0,1,,,,,,,,,0,,,66,0
30150,note_on,0,0,1,,,,,,,,,0,,,69,0
30150,note_on,0,0,1,,,,,,,,,0,,,68,60
30180,note_on,0,0,1,,,,,,,,,0,,,59,70
30180,note_on,0,0,1,,,,,,,,,0,,,64,0
30180,note_on,0,0,4,,,,,,,,,0,,,47,60
30180,note_on,30,0,1,,,,,,,,,0,,,68,0
30180,note_on,0,0,1,,,,,,,,,0,,,66,70
30180,note_on,60,0,4,,,,,,,,,0,,,51,60
30210,note_on,0,0,4,,,,,,,,,0,,,47,60
30210,note_on,30,0,4,,,,,,,,,0,,,47,0
30210,note_on,0,0,4,,,,,,,,,0,,,51,60
30210,note_on,0,0,4,,,,,,,,,0,,,51,0
30240,note_on,0,0,4,,,,,,,,,0,,,51,0
30240,note_on,60,0,1,,,,,,,,,0,,,59,0
30240,note_on,0,0,1,,,,,,,,,0,,,64,60
30240,note_on,0,0,1,,,,,,,,,0,,,66,0
30240,note_on,0,0,1,,,,,,,,,0,,,68,60
30240,note_on,30,0,4,,,,,,,,,0,,,47,0
30270,note_on,0,0,1,,,,,,,,,0,,,68,0
30270,note_on,0,0,1,,,,,,,,,0,,,66,60
30270,note_on,30,0,1,,,,,,,,,0,,,64,0
30270,note_on,0,0,1,,,,,,,,,0,,,59,60
30300,note_on,0,0,1,,,,,,,,,0,,,56,70
30300,note_on,0,0,1,,,,,,,,,0,,,59,0
30300,note_on,0,0,1,,,,,,,,,0,,,64,70
30300,note_on,60,0,4,,,,,,,,,0,,,40,60
30300,note_on,30,0,1,,,,,,,,,0,,,66,0
30300,note_on,0,0,4,,,,,,,,,0,,,47,60
30330,note_on,30,0,4,,,,,,,,,0,,,47,0
30330,note_on,0,0,4,,,,,,,,,0,,,40,0
30330,note_on,0,0,4,,,,,,,,,0,,,40,59
30330,note_on,0,0,4,,,,,,,,,0,,,47,59
30360,note_on,30,0,4,,,,,,,,,0,,,47,0
30360,note_on,0,0,4,,,,,,,,,0,,,47,57
30360,note_on,0,0,4,,,,,,,,,0,,,40,57
30360,note_on,0,0,4,,,,,,,,,0,,,40,0
30420,note_on,60,0,4,,,,,,,,,0,,,47,0
30420,note_on,0,0,4,,,,,,,,,0,,,40,0
30420,note_on,0,0,1,,,,,,,,,0,,,59,63
30420,note_on,0,0,1,,,,,,,,,0,,,64,0
30420,note_on,0,0,1,,,,,,,,,0,,,66,63
30420,note_on,120,0,1,,,,,,,,,0,,,56,0
30480,note_on,60,0,1,,,,,,,,,0,,,59,0
30480,note_on,0,0,1,,,,,,,,,0,,,68,49
30480,note_on,0,0,1,,,,,,,,,0,,,64,49
30480,note_on,0,0,1,,,,,,,,,0,,,66,0
30510,note_on,0,0,1,,,,,,,,,0,,,59,47
30510,note_on,30,0,1,,,,,,,,,0,,,64,0
30510,note_on,0,0,1,,,,,,,,,0,,,66,47
30510,note_on,0,0,1,,,,,,,,,0,,,68,0
30540,note_on,30,0,1,,,,,,,,,0,,,66,0
30540,note_on,0,0,1,,,,,,,,,0,,,64,55
30540,note_on,0,0,1,,,,,,,,,0,,,59,0
30540,note_on,0,0,1,,,,,,,,,0,,,56,55
30540,note_on,120,0,4,,,,,,,,,0,,,40,45
30540,note_on,0,0,4,,,,,,,,,0,,,47,45
30570,note_on,0,0,4,,,,,,,,,0,,,40,0
30570,note_on,0,0,4,,,,,,,,,0,,,40,43
30570,note_on,0,0,4,,,,,,,,,0,,,47,43
30570,note_on,30,0,4,,,,,,,,,0,,,47,0
30600,note_on,0,0,4,,,,,,,,,0,,,40,41
30600,note_on,0,0,4,,,,,,,,,0,,,47,41
30600,note_on,30,0,4,,,,,,,,,0,,,47,0
30600,note_on,0,0,4,,,,,,,,,0,,,40,0
30660,note_on,0,0,4,,,,,,,,,0,,,40,0
30660,note_on,0,0,1,,,,,,,,,0,,,59,47
30660,note_on,0,0,1,,,,,,,,,0,,,64,0
30660,note_on,60,0,4,,,,,,,,,0,,,47,0
30660,note_on,0,0,1,,,,,,,,,0,,,66,47
30660,note_on,120,0,1,,,,,,,,,0,,,56,0
30720,note_on,0,0,1,,,,,,,,,0,,,64,33
30720,note_on,0,0,1,,,,,,,,,0,,,66,0
30720,note_on,60,0,1,,,,,,,,,0,,,59,0
30720,note_on,0,0,1,,,,,,,,,0,,,68,33
30750,note_on,30,0,1,,,,,,,,,0,,,64,0
30750,note_on,0,0,1,,,,,,,,,0,,,66,31
30750,note_on,0,0,1,,,,,,,,,0,,,68,0
30750,note_on,0,0,1,,,,,,,,,0,,,59,31
30780,note_on,30,0,1,,,,,,,,,0,,,66,0
30780,note_on,0,0,1,,,,,,,,,0,,,64,40
30780,note_on,0,0,1,,,,,,,,,0,,,59,0
30780,note_on,0,0,1,,,,,,,,,0,,,56,40
30840,note_on,0,0,1,,,,,,,,,0,,,64,0
30840,note_on,60,0,1,,,,,,,,,0,,,56,0
30870,note_on,0,0,1,,,,,,,,,0,,,68,100
30870,note_on,0,0,1,,,,,,,,,0,,,64,100
30870,note_on,30,0,1,,,,,,,,,0,,,76,100
30870,note_on,210,0,4,,,,,,,,,0,,,40,100
30870,note_on,0,0,4,,,,,,,,,0,,,47,100
30870,note_on,0,0,4,,,,,,,,,0,,,52,100
30900,note_on,0,0,1,,,,,,,,,0,,,68,0
30900,note_on,0,0,1,,,,,,,,,0,,,76,0
30900,note_on,0,0,1,,,,,,,,,0,,,76,100
30900,note_on,0,0,1,,,,,,,,,0,,,64,100
30900,note_on,0,0,1,,,,,,,,,0,,,68,100
30900,note_on,0,0,4,,,,,,,,,0,,,52,100
30900,note_on,30,0,1,,,,,,,,,0,,,64,0
30900,note_on,0,0,4,,,,,,,,,0,,,47,0
30900,note_on,0,0,4,,,,,,,,,0,,,40,100
30900,note_on,0,0,4,,,,,,,,,0,,,47,100
30900,note_on,30,0,4,,,,,,,,,0,,,52,0
30900,note_on,0,0,4,,,,,,,,,0,,,40,0
30915,note_on,15,0,1,,,,,,,,,0,,,64,0
30915,end_of_track,0,1,1,,,,,,,,,,,,,
30915,end_of_track,0,1,4,,,,,,,,,,,,,
30915,note_on,0,0,4,,,,,,,,,0,,,47,0
30915,note_on,0,0,1,,,,,,,,,0,,,68,0
30915,note_on,0,0,1,,,,,,,,,0,,,76,0
30915,note_on,15,0,4,,,,,,,,,0,,,40,0
30915,note_on,0,0,4,,,,,,,,,0,,,52,0
31020,control_change,975,0,5,,,,,,,,,0,64,127,,
31500,end_of_track,0,1,5,,,,,,,,,,,,,
31500,control_change,480,0,5,,,,,,,,,0,64,0,,
