tick,type,time,meta,track,numerator,denominator,clocks_per_click,notated_32nd_notes_per_beat,key,tempo,port,program,channel,control,value,note,velocity
0,control_change,0,0,1,,,,,,,,,0,7,127,,
0,track_name,0,1,2,,,,,,,,,,,,,
0,track_name,0,1,1,,,,,,,,,,,,,
0,track_name,0,1,0,,,,,,,,,,,,,
0,time_signature,0,1,0,3,4,24,8,,,,,,,,,
0,text,0,1,0,,,,,,,,,,,,,
0,set_tempo,0,1,0,,,,,,833333,,,,,,,
0,program_change,0,0,2,,,,,,,,0,0,,,,
0,program_change,0,0,1,,,,,,,,0,0,,,,
0,track_name,0,1,3,,,,,,,,,,,,,
0,note_on,0,0,1,,,,,,,,,0,,,64,60
0,midi_port,0,1,4,,,,,,,0,,,,,,
0,midi_port,0,1,3,,,,,,,0,,,,,,
0,midi_port,0,1,2,,,,,,,0,,,,,,
0,midi_port,0,1,1,,,,,,,0,,,,,,
0,marker,0,1,0,,,,,,,,,,,,,
0,track_name,0,1,4,,,,,,,,,,,,,
0,copyright,0,1,0,,,,,,,,,,,,,
0,control_change,0,0,2,,,,,,,,,0,10,64,,
0,key_signature,0,1,0,,,,,E,,,,,,,,
0,end_of_track,0,1,4,,,,,,,,,,,,,
0,end_of_track,0,1,3,,,,,,,,,,,,,
0,control_change,0,0,1,,,,,,,,,0,10,64,,
0,control_change,0,0,2,,,,,,,,,0,7,127,,
15,note_on,0,0,1,,,,,,,,,0,,,68,60
15,note_on,15,0,1,,,,,,,,,0,,,64,0
30,note_on,0,0,1,,,,,,,,,0,,,71,60
30,note_on,15,0,1,,,,,,,,,0,,,68,0
45,note_on,15,0,1,,,,,,,,,0,,,71,0
45,note_on,0,0,1,,,,,,,,,0,,,76,60
60,note_on,15,0,1,,,,,,,,,0,,,76,0
60,note_on,0,0,1,,,,,,,,,0,,,76,60
75,note_on,15,0,1,,,,,,,,,0,,,76,0
75,note_on,0,0,1,,,,,,,,,0,,,71,60
90,note_on,15,0,1,,,,,,,,,0,,,71,0
90,note_on,0,0,1,,,,,,,,,0,,,68,60
105,note_on,15,0,1,,,,,,,,,0,,,68,0
105,note_on,0,0,1,,,,,,,,,0,,,64,60
120,note_on,0,0,1,,,,,,,,,0,,,63,60
120,note_on,15,0,1,,,,,,,,,0,,,64,0
135,note_on,15,0,1,,,,,,,,,0,,,63,0
135,note_on,0,0,1,,,,,,,,,0,,,66,60
150,note_on,0,0,1,,,,,,,,,0,,,71,60
150,note_on,15,0,1,,,,,,,,,0,,,66,0
165,note_on,0,0,1,,,,,,,,,0,,,78,60
165,note_on,15,0,1,,,,,,,,,0,,,71,0
180,note_on,0,0,1,,,,,,,,,0,,,78,60
180,note_on,15,0,1,,,,,,,,,0,,,78,0
195,note_on,15,0,1,,,,,,,,,0,,,78,0
195,note_on,0,0,1,,,,,,,,,0,,,71,60
210,note_on,0,0,1,,,,,,,,,0,,,66,60
210,note_on,15,0,1,,,,,,,,,0,,,71,0
225,note_on,0,0,1,,,,,,,,,0,,,63,60
225,note_on,15,0,1,,,,,,,,,0,,,66,0
240,note_on,0,0,1,,,,,,,,,0,,,64,60
240,note_on,15,0,1,,,,,,,,,0,,,63,0
255,note_on,0,0,1,,,,,,,,,0,,,68,60
255,note_on,15,0,1,,,,,,,,,0,,,64,0
270,note_on,15,0,1,,,,,,,,,0,,,68,0
270,note_on,0,0,1,,,,,,,,,0,,,71,60
285,note_on,0,0,1,,,,,,,,,0,,,76,60
285,note_on,15,0,1,,,,,,,,,0,,,71,0
300,note_on,0,0,1,,,,,,,,,0,,,76,60
300,note_on,15,0,1,,,,,,,,,0,,,76,0
315,note_on,0,0,1,,,,,,,,,0,,,71,60
315,note_on,15,0,1,,,,,,,,,0,,,76,0
330,note_on,15,0,1,,,,,,,,,0,,,71,0
330,note_on,0,0,1,,,,,,,,,0,,,68,60
345,note_on,15,0,1,,,,,,,,,0,,,68,0
345,note_on,0,0,1,,,,,,,,,0,,,64,60
360,note_on,0,0,1,,,,,,,,,0,,,59,60
360,note_on,15,0,1,,,,,,,,,0,,,64,0
360,time_signature,360,1,0,2,4,24,8,,,,,,,,,
375,note_on,15,0,1,,,,,,,,,0,,,59,0
375,note_on,0,0,1,,,,,,,,,0,,,66,60
390,note_on,0,0,1,,,,,,,,,0,,,75,60
390,note_on,15,0,1,,,,,,,,,0,,,66,0
405,note_on,0,0,1,,,,,,,,,0,,,83,60
405,note_on,15,0,1,,,,,,,,,0,,,75,0
420,note_on,0,0,1,,,,,,,,,0,,,83,60
420,note_on,15,0,1,,,,,,,,,0,,,83,0
435,note_on,0,0,1,,,,,,,,,0,,,75,60
435,note_on,15,0,1,,,,,,,,,0,,,83,0
450,note_on,15,0,1,,,,,,,,,0,,,75,0
450,note_on,0,0,1,,,,,,,,,0,,,66,60
465,note_on,15,0,1,,,,,,,,,0,,,66,0
465,note_on,0,0,1,,,,,,,,,0,,,59,60
480,note_on,0,0,1,,,,,,,,,0,,,64,60
480,note_on,15,0,1,,,,,,,,,0,,,59,0
495,note_on,0,0,1,,,,,,,,,0,,,68,60
495,note_on,15,0,1,,,,,,,,,0,,,64,0
510,note_on,0,0,1,,,,,,,,,0,,,71,60
510,note_on,15,0,1,,,,,,,,,0,,,68,0
525,note_on,0,0,1,,,,,,,,,0,,,76,60
525,note_on,15,0,1,,,,,,,,,0,,,71,0
540,note_on,15,0,1,,,,,,,,,0,,,76,0
540,note_on,0,0,1,,,,,,,,,0,,,76,60
555,note_on,15,0,1,,,,,,,,,0,,,76,0
555,note_on,0,0,1,,,,,,,,,0,,,71,60
570,note_on,0,0,1,,,,,,,,,0,,,68,60
570,note_on,15,0,1,,,,,,,,,0,,,71,0
585,note_on,15,0,1,,,,,,,,,0,,,68,0
585,note_on,0,0,1,,,,,,,,,0,,,64,60
600,note_on,0,0,1,,,,,,,,,0,,,63,60
600,note_on,15,0,1,,,,,,,,,0,,,64,0
615,note_on,15,0,1,,,,,,,,,0,,,63,0
615,note_on,0,0,1,,,,,,,,,0,,,66,60
630,note_on,0,0,1,,,,,,,,,0,,,71,60
630,note_on,15,0,1,,,,,,,,,0,,,66,0
645,note_on,15,0,1,,,,,,,,,0,,,71,0
645,note_on,0,0,1,,,,,,,,,0,,,78,60
660,note_on,0,0,1,,,,,,,,,0,,,78,60
660,note_on,15,0,1,,,,,,,,,0,,,78,0
675,note_on,15,0,1,,,,,,,,,0,,,78,0
675,note_on,0,0,1,,,,,,,,,0,,,71,60
690,note_on,0,0,1,,,,,,,,,0,,,66,60
690,note_on,15,0,1,,,,,,,,,0,,,71,0
705,note_on,0,0,1,,,,,,,,,0,,,63,60
705,note_on,15,0,1,,,,,,,,,0,,,66,0
720,note_on,15,0,1,,,,,,,,,0,,,63,0
720,note_on,0,0,1,,,,,,,,,0,,,64,60
735,note_on,0,0,1,,,,,,,,,0,,,68,60
735,note_on,15,0,1,,,,,,,,,0,,,64,0
750,note_on,0,0,1,,,,,,,,,0,,,71,60
750,note_on,15,0,1,,,,,,,,,0,,,68,0
765,note_on,15,0,1,,,,,,,,,0,,,71,0
765,note_on,0,0,1,,,,,,,,,0,,,76,60
780,note_on,0,0,1,,,,,,,,,0,,,76,60
780,note_on,15,0,1,,,,,,,,,0,,,76,0
795,note_on,0,0,1,,,,,,,,,0,,,71,60
795,note_on,15,0,1,,,,,,,,,0,,,76,0
810,note_on,0,0,1,,,,,,,,,0,,,68,60
810,note_on,15,0,1,,,,,,,,,0,,,71,0
825,note_on,0,0,1,,,,,,,,,0,,,64,60
825,note_on,15,0,1,,,,,,,,,0,,,68,0
840,note_on,15,0,1,,,,,,,,,0,,,64,0
840,note_on,0,0,1,,,,,,,,,0,,,59,60
855,note_on,15,0,1,,,,,,,,,0,,,59,0
855,note_on,0,0,1,,,,,,,,,0,,,66,60
870,note_on,0,0,1,,,,,,,,,0,,,75,60
870,note_on,15,0,1,,,,,,,,,0,,,66,0
885,note_on,0,0,1,,,,,,,,,0,,,83,60
885,note_on,15,0,1,,,,,,,,,0,,,75,0
900,note_on,0,0,1,,,,,,,,,0,,,83,60
900,note_on,15,0,1,,,,,,,,,0,,,83,0
915,note_on,15,0,1,,,,,,,,,0,,,83,0
915,note_on,0,0,1,,,,,,,,,0,,,75,60
930,note_on,0,0,1,,,,,,,,,0,,,66,60
930,note_on,15,0,1,,,,,,,,,0,,,75,0
945,note_on,15,0,1,,,,,,,,,0,,,66,0
945,note_on,0,0,1,,,,,,,,,0,,,59,60
960,note_on,0,0,1,,,,,,,,,0,,,56,60
960,note_on,15,0,1,,,,,,,,,0,,,59,0
975,note_on,0,0,1,,,,,,,,,0,,,64,60
975,note_on,15,0,1,,,,,,,,,0,,,56,0
990,note_on,15,0,1,,,,,,,,,0,,,64,0
990,note_on,0,0,1,,,,,,,,,0,,,71,60
1005,note_on,0,0,1,,,,,,,,,0,,,80,60
1005,note_on,15,0,1,,,,,,,,,0,,,71,0
1020,note_on,15,0,1,,,,,,,,,0,,,80,0
1020,note_on,0,0,1,,,,,,,,,0,,,80,60
1035,note_on,0,0,1,,,,,,,,,0,,,71,60
1035,note_on,15,0,1,,,,,,,,,0,,,80,0
1050,note_on,0,0,1,,,,,,,,,0,,,64,60
1050,note_on,15,0,1,,,,,,,,,0,,,71,0
1065,note_on,15,0,1,,,,,,,,,0,,,64,0
1065,note_on,0,0,1,,,,,,,,,0,,,56,60
1080,note_on,0,0,1,,,,,,,,,0,,,57,60
1080,note_on,15,0,1,,,,,,,,,0,,,56,0
1095,note_on,0,0,1,,,,,,,,,0,,,64,60
1095,note_on,15,0,1,,,,,,,,,0,,,57,0
1110,note_on,15,0,1,,,,,,,,,0,,,64,0
1110,note_on,0,0,1,,,,,,,,,0,,,73,60
1125,note_on,15,0,1,,,,,,,,,0,,,73,0
1125,note_on,0,0,1,,,,,,,,,0,,,81,60
1140,note_on,15,0,1,,,,,,,,,0,,,81,0
1140,note_on,0,0,1,,,,,,,,,0,,,85,60
1155,note_on,15,0,1,,,,,,,,,0,,,85,0
1170,note_on,15,0,1,,,,,,,,,0,,,88,60
1185,note_on,15,0,1,,,,,,,,,0,,,88,0
1200,note_on,15,0,1,,,,,,,,,0,,,58,60
1215,note_on,0,0,1,,,,,,,,,0,,,66,60
1215,note_on,15,0,1,,,,,,,,,0,,,58,0
1230,note_on,0,0,1,,,,,,,,,0,,,73,60
1230,note_on,15,0,1,,,,,,,,,0,,,66,0
1245,note_on,15,0,1,,,,,,,,,0,,,73,0
1245,note_on,0,0,1,,,,,,,,,0,,,82,60
1260,note_on,0,0,1,,,,,,,,,0,,,82,60
1260,note_on,15,0,1,,,,,,,,,0,,,82,0
1275,note_on,0,0,1,,,,,,,,,0,,,73,60
1275,note_on,15,0,1,,,,,,,,,0,,,82,0
1290,note_on,15,0,1,,,,,,,,,0,,,73,0
1290,note_on,0,0,1,,,,,,,,,0,,,66,60
1305,note_on,0,0,1,,,,,,,,,0,,,58,60
1305,note_on,15,0,1,,,,,,,,,0,,,66,0
1320,note_on,0,0,1,,,,,,,,,0,,,59,60
1320,note_on,15,0,1,,,,,,,,,0,,,58,0
1335,note_on,0,0,1,,,,,,,,,0,,,66,60
1335,note_on,15,0,1,,,,,,,,,0,,,59,0
1350,note_on,0,0,1,,,,,,,,,0,,,75,61
1350,note_on,15,0,1,,,,,,,,,0,,,66,0
1365,note_on,0,0,1,,,,,,,,,0,,,83,62
1365,note_on,15,0,1,,,,,,,,,0,,,75,0
1380,note_on,15,0,1,,,,,,,,,0,,,83,0
1380,note_on,0,0,1,,,,,,,,,0,,,87,62
1395,note_on,15,0,1,,,,,,,,,0,,,87,0
1410,note_on,15,0,1,,,,,,,,,0,,,90,64
1425,note_on,15,0,1,,,,,,,,,0,,,90,0
1440,note_on,15,0,1,,,,,,,,,0,,,63,65
1455,note_on,15,0,1,,,,,,,,,0,,,63,0
1455,note_on,0,0,1,,,,,,,,,0,,,71,66
1470,note_on,0,0,1,,,,,,,,,0,,,78,67
1470,note_on,15,0,1,,,,,,,,,0,,,71,0
1485,note_on,15,0,1,,,,,,,,,0,,,78,0
1485,note_on,0,0,1,,,,,,,,,0,,,87,68
1500,note_on,0,0,1,,,,,,,,,0,,,87,68
1500,note_on,15,0,1,,,,,,,,,0,,,87,0
1515,note_on,15,0,1,,,,,,,,,0,,,87,0
1515,note_on,0,0,1,,,,,,,,,0,,,78,69
1530,note_on,15,0,1,,,,,,,,,0,,,78,0
1530,note_on,0,0,1,,,,,,,,,0,,,71,70
1545,note_on,15,0,1,,,,,,,,,0,,,71,0
1545,note_on,0,0,1,,,,,,,,,0,,,63,71
1560,note_on,15,0,1,,,,,,,,,0,,,63,0
1560,note_on,0,0,1,,,,,,,,,0,,,64,71
1575,note_on,15,0,1,,,,,,,,,0,,,64,0
1575,note_on,0,0,1,,,,,,,,,0,,,71,72
1590,note_on,15,0,1,,,,,,,,,0,,,71,0
1590,note_on,0,0,1,,,,,,,,,0,,,80,73
1605,note_on,15,0,1,,,,,,,,,0,,,80,0
1605,note_on,0,0,1,,,,,,,,,0,,,88,74
1620,note_on,15,0,1,,,,,,,,,0,,,88,0
1620,note_on,0,0,1,,,,,,,,,0,,,88,74
1635,note_on,15,0,1,,,,,,,,,0,,,88,0
1635,note_on,0,0,1,,,,,,,,,0,,,80,75
1650,note_on,15,0,1,,,,,,,,,0,,,80,0
1650,note_on,0,0,1,,,,,,,,,0,,,71,76
1665,note_on,15,0,1,,,,,,,,,0,,,71,0
1665,note_on,0,0,1,,,,,,,,,0,,,64,77
1680,note_on,0,0,1,,,,,,,,,0,,,66,77
1680,note_on,15,0,1,,,,,,,,,0,,,64,0
1695,note_on,0,0,1,,,,,,,,,0,,,75,78
1695,note_on,15,0,1,,,,,,,,,0,,,66,0
1710,note_on,15,0,1,,,,,,,,,0,,,75,0
1710,note_on,0,0,1,,,,,,,,,0,,,83,79
1725,note_on,15,0,1,,,,,,,,,0,,,83,0
1725,note_on,0,0,1,,,,,,,,,0,,,90,80
1740,note_on,15,0,1,,,,,,,,,0,,,90,0
1740,note_on,0,0,1,,,,,,,,,0,,,90,80
1755,note_on,0,0,1,,,,,,,,,0,,,83,81
1755,note_on,15,0,1,,,,,,,,,0,,,90,0
1770,note_on,0,0,1,,,,,,,,,0,,,75,82
1770,note_on,15,0,1,,,,,,,,,0,,,83,0
1785,note_on,0,0,1,,,,,,,,,0,,,66,83
1785,note_on,15,0,1,,,,,,,,,0,,,75,0
1800,note_on,15,0,1,,,,,,,,,0,,,66,0
1800,note_on,0,0,1,,,,,,,,,0,,,68,83
1815,note_on,0,0,1,,,,,,,,,0,,,76,84
1815,note_on,15,0,1,,,,,,,,,0,,,68,0
1830,note_on,0,0,1,,,,,,,,,0,,,83,85
1830,note_on,15,0,1,,,,,,,,,0,,,76,0
1845,note_on,0,0,1,,,,,,,,,0,,,92,86
1845,note_on,15,0,1,,,,,,,,,0,,,83,0
1860,note_on,0,0,1,,,,,,,,,0,,,92,86
1860,note_on,15,0,1,,,,,,,,,0,,,92,0
1875,note_on,15,0,1,,,,,,,,,0,,,92,0
1875,note_on,0,0,1,,,,,,,,,0,,,83,87
1890,note_on,0,0,1,,,,,,,,,0,,,76,88
1890,note_on,15,0,1,,,,,,,,,0,,,83,0
1905,note_on,0,0,1,,,,,,,,,0,,,68,89
1905,note_on,15,0,1,,,,,,,,,0,,,76,0
1920,note_on,15,0,1,,,,,,,,,0,,,68,0
1920,note_on,0,0,1,,,,,,,,,0,,,69,89
1935,note_on,0,0,1,,,,,,,,,0,,,76,90
1935,note_on,15,0,1,,,,,,,,,0,,,69,0
1950,note_on,0,0,1,,,,,,,,,0,,,85,91
1950,note_on,15,0,1,,,,,,,,,0,,,76,0
1965,note_on,15,0,1,,,,,,,,,0,,,85,0
1965,note_on,0,0,1,,,,,,,,,0,,,93,92
1980,note_on,15,0,1,,,,,,,,,0,,,93,0
1980,note_on,0,0,1,,,,,,,,,0,,,93,92
1995,note_on,0,0,1,,,,,,,,,0,,,85,93
1995,note_on,15,0,1,,,,,,,,,0,,,93,0
2010,note_on,0,0,1,,,,,,,,,0,,,76,94
2010,note_on,15,0,1,,,,,,,,,0,,,85,0
2025,note_on,15,0,1,,,,,,,,,0,,,76,0
2025,note_on,0,0,1,,,,,,,,,0,,,69,95
2040,note_on,15,0,1,,,,,,,,,0,,,69,0
2040,note_on,0,0,1,,,,,,,,,0,,,70,95
2055,note_on,0,0,1,,,,,,,,,0,,,79,96
2055,note_on,15,0,1,,,,,,,,,0,,,70,0
2070,note_on,15,0,1,,,,,,,,,0,,,79,0
2070,note_on,0,0,1,,,,,,,,,0,,,88,97
2085,note_on,15,0,1,,,,,,,,,0,,,88,0
2085,note_on,0,0,1,,,,,,,,,0,,,97,98
2100,note_on,0,0,1,,,,,,,,,0,,,97,98
2100,note_on,15,0,1,,,,,,,,,0,,,97,0
2115,note_on,0,0,1,,,,,,,,,0,,,88,99
2115,note_on,15,0,1,,,,,,,,,0,,,97,0
2130,note_on,0,0,1,,,,,,,,,0,,,79,100
2130,note_on,15,0,1,,,,,,,,,0,,,88,0
2145,note_on,0,0,1,,,,,,,,,0,,,70,100
2145,note_on,15,0,1,,,,,,,,,0,,,79,0
2160,note_on,0,0,1,,,,,,,,,0,,,73,100
2160,note_on,15,0,1,,,,,,,,,0,,,70,0
2175,note_on,0,0,1,,,,,,,,,0,,,82,100
2175,note_on,15,0,1,,,,,,,,,0,,,73,0
2190,note_on,15,0,1,,,,,,,,,0,,,82,0
2190,note_on,0,0,1,,,,,,,,,0,,,91,100
2205,note_on,0,0,1,,,,,,,,,0,,,100,100
2205,note_on,15,0,1,,,,,,,,,0,,,91,0
2220,note_on,0,0,1,,,,,,,,,0,,,100,100
2220,note_on,15,0,1,,,,,,,,,0,,,100,0
2235,note_on,0,0,1,,,,,,,,,0,,,91,100
2235,note_on,15,0,1,,,,,,,,,0,,,100,0
2250,note_on,0,0,1,,,,,,,,,0,,,82,100
2250,note_on,15,0,1,,,,,,,,,0,,,91,0
2265,note_on,15,0,1,,,,,,,,,0,,,82,0
2265,note_on,0,0,1,,,,,,,,,0,,,73,100
2280,note_on,0,0,1,,,,,,,,,0,,,70,100
2280,note_on,15,0,1,,,,,,,,,0,,,73,0
2295,note_on,0,0,1,,,,,,,,,0,,,79,99
2295,note_on,15,0,1,,,,,,,,,0,,,70,0
2310,note_on,0,0,1,,,,,,,,,0,,,88,98
2310,note_on,15,0,1,,,,,,,,,0,,,79,0
2325,note_on,0,0,1,,,,,,,,,0,,,97,97
2325,note_on,15,0,1,,,,,,,,,0,,,88,0
2340,note_on,0,0,1,,,,,,,,,0,,,97,96
2340,note_on,15,0,1,,,,,,,,,0,,,97,0
2355,note_on,0,0,1,,,,,,,,,0,,,88,95
2355,note_on,15,0,1,,,,,,,,,0,,,97,0
2370,note_on,15,0,1,,,,,,,,,0,,,88,0
2370,note_on,0,0,1,,,,,,,,,0,,,79,94
2385,note_on,15,0,1,,,,,,,,,0,,,79,0
2385,note_on,0,0,1,,,,,,,,,0,,,70,93
2400,note_on,0,0,1,,,,,,,,,0,,,67,92
2400,note_on,15,0,1,,,,,,,,,0,,,70,0
2415,note_on,15,0,1,,,,,,,,,0,,,67,0
2415,note_on,0,0,1,,,,,,,,,0,,,76,91
2430,note_on,15,0,1,,,,,,,,,0,,,76,0
2430,note_on,0,0,1,,,,,,,,,0,,,85,90
2445,note_on,15,0,1,,,,,,,,,0,,,85,0
2445,note_on,0,0,1,,,,,,,,,0,,,94,89
2460,note_on,15,0,1,,,,,,,,,0,,,94,0
2460,note_on,0,0,1,,,,,,,,,0,,,94,88
2475,note_on,15,0,1,,,,,,,,,0,,,94,0
2475,note_on,0,0,1,,,,,,,,,0,,,85,87
2490,note_on,15,0,1,,,,,,,,,0,,,85,0
2490,note_on,0,0,1,,,,,,,,,0,,,76,86
2505,note_on,0,0,1,,,,,,,,,0,,,67,84
2505,note_on,15,0,1,,,,,,,,,0,,,76,0
2520,note_on,15,0,1,,,,,,,,,0,,,67,0
2520,note_on,0,0,1,,,,,,,,,0,,,64,83
2535,note_on,0,0,1,,,,,,,,,0,,,73,82
2535,note_on,15,0,1,,,,,,,,,0,,,64,0
2550,note_on,0,0,1,,,,,,,,,0,,,82,81
2550,note_on,15,0,1,,,,,,,,,0,,,73,0
2565,note_on,0,0,1,,,,,,,,,0,,,91,80
2565,note_on,15,0,1,,,,,,,,,0,,,82,0
2580,note_on,0,0,1,,,,,,,,,0,,,91,79
2580,note_on,15,0,1,,,,,,,,,0,,,91,0
2595,note_on,15,0,1,,,,,,,,,0,,,91,0
2595,note_on,0,0,1,,,,,,,,,0,,,82,78
2610,note_on,15,0,1,,,,,,,,,0,,,82,0
2610,note_on,0,0,1,,,,,,,,,0,,,73,77
2625,note_on,15,0,1,,,,,,,,,0,,,73,0
2625,note_on,0,0,1,,,,,,,,,0,,,64,76
2640,note_on,15,0,1,,,,,,,,,0,,,64,0
2640,note_on,0,0,1,,,,,,,,,0,,,61,75
2655,note_on,15,0,1,,,,,,,,,0,,,61,0
2655,note_on,0,0,1,,,,,,,,,0,,,70,74
2670,note_on,0,0,1,,,,,,,,,0,,,79,73
2670,note_on,15,0,1,,,,,,,,,0,,,70,0
2685,note_on,15,0,1,,,,,,,,,0,,,79,0
2685,note_on,0,0,1,,,,,,,,,0,,,88,72
2700,note_on,0,0,1,,,,,,,,,0,,,88,71
2700,note_on,15,0,1,,,,,,,,,0,,,88,0
2715,note_on,15,0,1,,,,,,,,,0,,,88,0
2715,note_on,0,0,1,,,,,,,,,0,,,79,69
2730,note_on,15,0,1,,,,,,,,,0,,,79,0
2730,note_on,0,0,1,,,,,,,,,0,,,70,68
2745,note_on,15,0,1,,,,,,,,,0,,,70,0
2745,note_on,0,0,1,,,,,,,,,0,,,61,67
2760,note_on,0,0,1,,,,,,,,,0,,,59,66
2760,note_on,15,0,1,,,,,,,,,0,,,61,0
2775,note_on,0,0,1,,,,,,,,,0,,,66,65
2775,note_on,15,0,1,,,,,,,,,0,,,59,0
2790,note_on,0,0,1,,,,,,,,,0,,,75,64
2790,note_on,15,0,1,,,,,,,,,0,,,66,0
2805,note_on,0,0,1,,,,,,,,,0,,,83,63
2805,note_on,15,0,1,,,,,,,,,0,,,75,0
2820,note_on,15,0,1,,,,,,,,,0,,,83,0
2820,note_on,0,0,1,,,,,,,,,0,,,87,62
2835,note_on,15,0,1,,,,,,,,,0,,,87,0
2850,note_on,15,0,1,,,,,,,,,0,,,90,60
2865,note_on,15,0,1,,,,,,,,,0,,,90,0
2880,note_on,15,0,1,,,,,,,,,0,,,57,60
2895,note_on,15,0,1,,,,,,,,,0,,,57,0
2895,note_on,0,0,1,,,,,,,,,0,,,63,60
2910,note_on,0,0,1,,,,,,,,,0,,,71,60
2910,note_on,15,0,1,,,,,,,,,0,,,63,0
2925,note_on,0,0,1,,,,,,,,,0,,,78,60
2925,note_on,15,0,1,,,,,,,,,0,,,71,0
2940,note_on,0,0,1,,,,,,,,,0,,,78,60
2940,note_on,15,0,1,,,,,,,,,0,,,78,0
2955,note_on,0,0,1,,,,,,,,,0,,,71,60
2955,note_on,15,0,1,,,,,,,,,0,,,78,0
2970,note_on,15,0,1,,,,,,,,,0,,,71,0
2970,note_on,0,0,1,,,,,,,,,0,,,63,60
2985,note_on,15,0,1,,,,,,,,,0,,,63,0
2985,note_on,0,0,1,,,,,,,,,0,,,57,60
3000,note_on,15,0,1,,,,,,,,,0,,,57,0
3000,note_on,0,0,1,,,,,,,,,0,,,56,60
3015,note_on,15,0,1,,,,,,,,,0,,,56,0
3015,note_on,0,0,1,,,,,,,,,0,,,64,60
3030,note_on,0,0,1,,,,,,,,,0,,,71,60
3030,note_on,15,0,1,,,,,,,,,0,,,64,0
3045,note_on,0,0,1,,,,,,,,,0,,,80,60
3045,note_on,15,0,1,,,,,,,,,0,,,71,0
3060,note_on,15,0,1,,,,,,,,,0,,,80,0
3060,note_on,0,0,1,,,,,,,,,0,,,83,60
3075,note_on,15,0,1,,,,,,,,,0,,,83,0
3090,note_on,15,0,1,,,,,,,,,0,,,87,60
3105,note_on,15,0,1,,,,,,,,,0,,,87,0
3120,note_on,15,0,1,,,,,,,,,0,,,57,60
3135,note_on,15,0,1,,,,,,,,,0,,,57,0
3135,note_on,0,0,1,,,,,,,,,0,,,63,60
3150,note_on,0,0,1,,,,,,,,,0,,,71,60
3150,note_on,15,0,1,,,,,,,,,0,,,63,0
3165,note_on,15,0,1,,,,,,,,,0,,,71,0
3165,note_on,0,0,1,,,,,,,,,0,,,78,60
3180,note_on,0,0,1,,,,,,,,,0,,,78,60
3180,note_on,15,0,1,,,,,,,,,0,,,78,0
3195,note_on,0,0,1,,,,,,,,,0,,,71,60
3195,note_on,15,0,1,,,,,,,,,0,,,78,0
3210,note_on,0,0,1,,,,,,,,,0,,,63,60
3210,note_on,15,0,1,,,,,,,,,0,,,71,0
3225,note_on,0,0,1,,,,,,,,,0,,,57,60
3225,note_on,15,0,1,,,,,,,,,0,,,63,0
3240,note_on,15,0,1,,,,,,,,,0,,,57,0
3240,note_on,0,0,1,,,,,,,,,0,,,56,60
3255,note_on,0,0,1,,,,,,,,,0,,,64,60
3255,note_on,15,0,1,,,,,,,,,0,,,56,0
3270,note_on,15,0,1,,,,,,,,,0,,,64,0
3270,note_on,0,0,1,,,,,,,,,0,,,71,60
3285,note_on,0,0,1,,,,,,,,,0,,,80,60
3285,note_on,15,0,1,,,,,,,,,0,,,71,0
3300,note_on,15,0,1,,,,,,,,,0,,,80,0
3300,note_on,0,0,1,,,,,,,,,0,,,83,60
3315,note_on,15,0,1,,,,,,,,,0,,,83,0
3330,note_on,15,0,1,,,,,,,,,0,,,87,60
3345,note_on,15,0,1,,,,,,,,,0,,,87,0
3360,note_on,15,0,1,,,,,,,,,0,,,57,100
3375,note_on,15,0,1,,,,,,,,,0,,,57,0
3390,note_on,15,0,1,,,,,,,,,0,,,81,100
3390,note_on,0,0,1,,,,,,,,,0,,,76,100
3390,note_on,0,0,1,,,,,,,,,0,,,69,100
3390,note_on,0,0,1,,,,,,,,,0,,,64,100
3390,note_on,0,0,1,,,,,,,,,0,,,61,100
3390,note_on,0,0,1,,,,,,,,,0,,,73,100
3405,note_on,0,0,1,,,,,,,,,0,,,73,0
3405,note_on,15,0,1,,,,,,,,,0,,,61,0
3405,note_on,0,0,1,,,,,,,,,0,,,69,0
3405,note_on,0,0,1,,,,,,,,,0,,,76,0
3405,note_on,0,0,1,,,,,,,,,0,,,64,0
3405,note_on,0,0,1,,,,,,,,,0,,,81,0
3420,note_on,15,0,1,,,,,,,,,0,,,59,100
3435,note_on,15,0,1,,,,,,,,,0,,,59,0
3450,note_on,0,0,1,,,,,,,,,0,,,64,100
3450,note_on,0,0,1,,,,,,,,,0,,,68,100
3450,note_on,0,0,1,,,,,,,,,0,,,71,100
3450,note_on,0,0,1,,,,,,,,,0,,,80,100
3450,note_on,15,0,1,,,,,,,,,0,,,83,100
3450,note_on,0,0,1,,,,,,,,,0,,,76,100
3465,note_on,0,0,1,,,,,,,,,0,,,80,0
3465,note_on,0,0,1,,,,,,,,,0,,,83,0
3465,note_on,0,0,1,,,,,,,,,0,,,68,0
3465,note_on,15,0,1,,,,,,,,,0,,,64,0
3465,note_on,0,0,1,,,,,,,,,0,,,76,0
3465,note_on,0,0,1,,,,,,,,,0,,,71,0
3480,note_on,15,0,1,,,,,,,,,0,,,61,100
3495,note_on,15,0,1,,,,,,,,,0,,,61,0
3510,note_on,15,0,1,,,,,,,,,0,,,85,100
3510,note_on,0,0,1,,,,,,,,,0,,,64,100
3510,note_on,0,0,1,,,,,,,,,0,,,81,100
3510,note_on,0,0,1,,,,,,,,,0,,,76,100
3510,note_on,0,0,1,,,,,,,,,0,,,69,100
3510,note_on,0,0,1,,,,,,,,,0,,,73,100
3525,note_on,15,0,1,,,,,,,,,0,,,64,0
3525,note_on,0,0,1,,,,,,,,,0,,,81,0
3525,note_on,0,0,1,,,,,,,,,0,,,69,0
3525,note_on,0,0,1,,,,,,,,,0,,,85,0
3525,note_on,0,0,1,,,,,,,,,0,,,76,0
3525,note_on,0,0,1,,,,,,,,,0,,,73,0
3540,note_on,15,0,1,,,,,,,,,0,,,60,100
3555,note_on,15,0,1,,,,,,,,,0,,,60,0
3570,note_on,0,0,1,,,,,,,,,0,,,79,100
3570,note_on,0,0,1,,,,,,,,,0,,,76,100
3570,note_on,0,0,1,,,,,,,,,0,,,72,100
3570,note_on,0,0,1,,,,,,,,,0,,,70,100
3570,note_on,0,0,1,,,,,,,,,0,,,64,100
3570,note_on,15,0,1,,,,,,,,,0,,,84,100
3570,note_on,0,0,1,,,,,,,,,0,,,67,100
3585,note_on,15,0,1,,,,,,,,,0,,,64,0
3585,note_on,0,0,1,,,,,,,,,0,,,76,0
3585,note_on,0,0,1,,,,,,,,,0,,,67,0
3585,note_on,0,0,1,,,,,,,,,0,,,84,0
3585,note_on,0,0,1,,,,,,,,,0,,,79,0
3585,note_on,0,0,1,,,,,,,,,0,,,70,0
3585,note_on,0,0,1,,,,,,,,,0,,,72,0
3600,note_on,15,0,1,,,,,,,,,0,,,59,100
3615,note_on,15,0,1,,,,,,,,,0,,,59,0
3630,note_on,15,0,1,,,,,,,,,0,,,83,100
3630,note_on,0,0,1,,,,,,,,,0,,,71,100
3630,note_on,0,0,1,,,,,,,,,0,,,64,100
3630,note_on,0,0,1,,,,,,,,,0,,,68,100
3630,note_on,0,0,1,,,,,,,,,0,,,76,100
3630,note_on,0,0,1,,,,,,,,,0,,,80,100
3645,note_on,0,0,1,,,,,,,,,0,,,71,0
3645,note_on,0,0,1,,,,,,,,,0,,,68,0
3645,note_on,0,0,1,,,,,,,,,0,,,83,0
3645,note_on,0,0,1,,,,,,,,,0,,,76,0
3645,note_on,0,0,1,,,,,,,,,0,,,80,0
3645,note_on,15,0,1,,,,,,,,,0,,,64,0
3660,note_on,15,0,1,,,,,,,,,0,,,59,100
3675,note_on,15,0,1,,,,,,,,,0,,,59,0
3690,note_on,0,0,1,,,,,,,,,0,,,66,100
3690,note_on,15,0,1,,,,,,,,,0,,,83,100
3690,note_on,0,0,1,,,,,,,,,0,,,78,100
3690,note_on,0,0,1,,,,,,,,,0,,,69,100
3690,note_on,0,0,1,,,,,,,,,0,,,71,100
3690,note_on,0,0,1,,,,,,,,,0,,,75,100
3705,note_on,15,0,1,,,,,,,,,0,,,66,0
3705,note_on,0,0,1,,,,,,,,,0,,,69,0
3705,note_on,0,0,1,,,,,,,,,0,,,71,0
3705,note_on,0,0,1,,,,,,,,,0,,,75,0
3705,note_on,0,0,1,,,,,,,,,0,,,78,0
3705,note_on,0,0,1,,,,,,,,,0,,,83,0
3720,note_on,15,0,1,,,,,,,,,0,,,64,120
3720,marker,0,1,0,,,,,,,,,,,,,
3720,key_signature,3360,1,0,,,,,G,,,,,,,,
3780,note_on,60,0,1,,,,,,,,,0,,,64,0
3780,note_on,0,0,1,,,,,,,,,0,,,71,100
3780,note_on,0,0,1,,,,,,,,,0,,,80,100
3780,note_on,0,0,1,,,,,,,,,0,,,68,100
3780,note_on,0,0,1,,,,,,,,,0,,,76,100
3780,note_on,0,0,1,,,,,,,,,0,,,88,100
3780,note_on,0,0,1,,,,,,,,,0,,,83,100
3795,note_on,15,0,1,,,,,,,,,0,,,68,0
3795,note_on,0,0,1,,,,,,,,,0,,,76,0
3795,note_on,0,0,1,,,,,,,,,0,,,71,0
3795,note_on,0,0,1,,,,,,,,,0,,,88,0
3795,note_on,0,0,1,,,,,,,,,0,,,80,0
3795,note_on,0,0,1,,,,,,,,,0,,,83,0
3840,note_on,45,0,1,,,,,,,,,0,,,64,60
3855,note_on,15,0,1,,,,,,,,,0,,,64,0
3855,note_on,0,0,1,,,,,,,,,0,,,67,60
3870,note_on,15,0,1,,,,,,,,,0,,,67,0
3870,note_on,0,0,1,,,,,,,,,0,,,71,60
3885,note_on,15,0,1,,,,,,,,,0,,,71,0
3885,note_on,0,0,1,,,,,,,,,0,,,76,60
3900,note_on,0,0,1,,,,,,,,,0,,,76,60
3900,note_on,15,0,1,,,,,,,,,0,,,76,0
3915,note_on,15,0,1,,,,,,,,,0,,,76,0
3915,note_on,0,0,1,,,,,,,,,0,,,71,60
3930,note_on,0,0,1,,,,,,,,,0,,,67,60
3930,note_on,15,0,1,,,,,,,,,0,,,71,0
3945,note_on,15,0,1,,,,,,,,,0,,,67,0
3945,note_on,0,0,1,,,,,,,,,0,,,64,60
3960,note_on,15,0,1,,,,,,,,,0,,,64,0
3960,note_on,0,0,1,,,,,,,,,0,,,63,60
3975,note_on,15,0,1,,,,,,,,,0,,,63,0
3975,note_on,0,0,1,,,,,,,,,0,,,66,60
3990,note_on,15,0,1,,,,,,,,,0,,,66,0
3990,note_on,0,0,1,,,,,,,,,0,,,71,60
4005,note_on,15,0,1,,,,,,,,,0,,,71,0
4005,note_on,0,0,1,,,,,,,,,0,,,78,60
4020,note_on,0,0,1,,,,,,,,,0,,,78,60
4020,note_on,15,0,1,,,,,,,,,0,,,78,0
4035,note_on,0,0,1,,,,,,,,,0,,,71,60
4035,note_on,15,0,1,,,,,,,,,0,,,78,0
4050,note_on,0,0,1,,,,,,,,,0,,,66,60
4050,note_on,15,0,1,,,,,,,,,0,,,71,0
4065,note_on,0,0,1,,,,,,,,,0,,,63,60
4065,note_on,15,0,1,,,,,,,,,0,,,66,0
4080,note_on,0,0,1,,,,,,,,,0,,,64,60
4080,note_on,15,0,1,,,,,,,,,0,,,63,0
4095,note_on,0,0,1,,,,,,,,,0,,,67,60
4095,note_on,15,0,1,,,,,,,,,0,,,64,0
4110,note_on,0,0,1,,,,,,,,,0,,,71,60
4110,note_on,15,0,1,,,,,,,,,0,,,67,0
4125,note_on,15,0,1,,,,,,,,,0,,,71,0
4125,note_on,0,0,1,,,,,,,,,0,,,76,60
4140,note_on,0,0,1,,,,,,,,,0,,,76,60
4140,note_on,15,0,1,,,,,,,,,0,,,76,0
4155,note_on,15,0,1,,,,,,,,,0,,,76,0
4155,note_on,0,0,1,,,,,,,,,0,,,71,60
4170,note_on,15,0,1,,,,,,,,,0,,,71,0
4170,note_on,0,0,1,,,,,,,,,0,,,67,60
4185,note_on,15,0,1,,,,,,,,,0,,,67,0
4185,note_on,0,0,1,,,,,,,,,0,,,64,60
4200,note_on,15,0,1,,,,,,,,,0,,,64,0
4200,note_on,0,0,1,,,,,,,,,0,,,59,60
4215,note_on,15,0,1,,,,,,,,,0,,,59,0
4215,note_on,0,0,1,,,,,,,,,0,,,66,60
4230,note_on,0,0,1,,,,,,,,,0,,,75,60
4230,note_on,15,0,1,,,,,,,,,0,,,66,0
4245,note_on,0,0,1,,,,,,,,,0,,,83,60
4245,note_on,15,0,1,,,,,,,,,0,,,75,0
4260,note_on,0,0,1,,,,,,,,,0,,,83,60
4260,note_on,15,0,1,,,,,,,,,0,,,83,0
4275,note_on,15,0,1,,,,,,,,,0,,,83,0
4275,note_on,0,0,1,,,,,,,,,0,,,75,60
4290,note_on,15,0,1,,,,,,,,,0,,,75,0
4290,note_on,0,0,1,,,,,,,,,0,,,66,60
4305,note_on,15,0,1,,,,,,,,,0,,,66,0
4305,note_on,0,0,1,,,,,,,,,0,,,59,60
4320,note_on,0,0,1,,,,,,,,,0,,,64,60
4320,note_on,15,0,1,,,,,,,,,0,,,59,0
4335,note_on,0,0,1,,,,,,,,,0,,,67,60
4335,note_on,15,0,1,,,,,,,,,0,,,64,0
4350,note_on,0,0,1,,,,,,,,,0,,,71,60
4350,note_on,15,0,1,,,,,,,,,0,,,67,0
4365,note_on,0,0,1,,,,,,,,,0,,,76,60
4365,note_on,15,0,1,,,,,,,,,0,,,71,0
4380,note_on,0,0,1,,,,,,,,,0,,,76,60
4380,note_on,15,0,1,,,,,,,,,0,,,76,0
4395,note_on,0,0,1,,,,,,,,,0,,,71,60
4395,note_on,15,0,1,,,,,,,,,0,,,76,0
4410,note_on,15,0,1,,,,,,,,,0,,,71,0
4410,note_on,0,0,1,,,,,,,,,0,,,67,60
4425,note_on,0,0,1,,,,,,,,,0,,,64,60
4425,note_on,15,0,1,,,,,,,,,0,,,67,0
4440,note_on,15,0,1,,,,,,,,,0,,,64,0
4440,note_on,0,0,1,,,,,,,,,0,,,63,60
4455,note_on,15,0,1,,,,,,,,,0,,,63,0
4455,note_on,0,0,1,,,,,,,,,0,,,66,60
4470,note_on,0,0,1,,,,,,,,,0,,,71,60
4470,note_on,15,0,1,,,,,,,,,0,,,66,0
4485,note_on,0,0,1,,,,,,,,,0,,,78,60
4485,note_on,15,0,1,,,,,,,,,0,,,71,0
4500,note_on,0,0,1,,,,,,,,,0,,,78,60
4500,note_on,15,0,1,,,,,,,,,0,,,78,0
4515,note_on,0,0,1,,,,,,,,,0,,,71,60
4515,note_on,15,0,1,,,,,,,,,0,,,78,0
4530,note_on,15,0,1,,,,,,,,,0,,,71,0
4530,note_on,0,0,1,,,,,,,,,0,,,66,60
4545,note_on,0,0,1,,,,,,,,,0,,,63,60
4545,note_on,15,0,1,,,,,,,,,0,,,66,0
4560,note_on,0,0,1,,,,,,,,,0,,,64,60
4560,note_on,15,0,1,,,,,,,,,0,,,63,0
4575,note_on,0,0,1,,,,,,,,,0,,,67,60
4575,note_on,15,0,1,,,,,,,,,0,,,64,0
4590,note_on,15,0,1,,,,,,,,,0,,,67,0
4590,note_on,0,0,1,,,,,,,,,0,,,71,60
4605,note_on,0,0,1,,,,,,,,,0,,,76,60
4605,note_on,15,0,1,,,,,,,,,0,,,71,0
4620,note_on,15,0,1,,,,,,,,,0,,,76,0
4620,note_on,0,0,1,,,,,,,,,0,,,76,60
4635,note_on,15,0,1,,,,,,,,,0,,,76,0
4635,note_on,0,0,1,,,,,,,,,0,,,71,60
4650,note_on,0,0,1,,,,,,,,,0,,,67,60
4650,note_on,15,0,1,,,,,,,,,0,,,71,0
4665,note_on,0,0,1,,,,,,,,,0,,,64,60
4665,note_on,15,0,1,,,,,,,,,0,,,67,0
4680,note_on,0,0,1,,,,,,,,,0,,,59,60
4680,note_on,15,0,1,,,,,,,,,0,,,64,0
4695,note_on,15,0,1,,,,,,,,,0,,,59,0
4695,note_on,0,0,1,,,,,,,,,0,,,66,60
4710,note_on,15,0,1,,,,,,,,,0,,,66,0
4710,note_on,0,0,1,,,,,,,,,0,,,75,60
4725,note_on,15,0,1,,,,,,,,,0,,,75,0
4725,note_on,0,0,1,,,,,,,,,0,,,83,60
4740,note_on,15,0,1,,,,,,,,,0,,,83,0
4740,note_on,0,0,1,,,,,,,,,0,,,83,60
4755,note_on,0,0,1,,,,,,,,,0,,,75,60
4755,note_on,15,0,1,,,,,,,,,0,,,83,0
4770,note_on,15,0,1,,,,,,,,,0,,,75,0
4770,note_on,0,0,1,,,,,,,,,0,,,66,60
4785,note_on,15,0,1,,,,,,,,,0,,,66,0
4785,note_on,0,0,1,,,,,,,,,0,,,59,60
4800,note_on,15,0,1,,,,,,,,,0,,,59,0
4800,note_on,0,0,1,,,,,,,,,0,,,59,60
4815,note_on,15,0,1,,,,,,,,,0,,,59,0
4815,note_on,0,0,1,,,,,,,,,0,,,66,60
4830,note_on,15,0,1,,,,,,,,,0,,,66,0
4830,note_on,0,0,1,,,,,,,,,0,,,74,60
4845,note_on,0,0,1,,,,,,,,,0,,,83,60
4845,note_on,15,0,1,,,,,,,,,0,,,74,0
4860,note_on,15,0,1,,,,,,,,,0,,,83,0
4860,note_on,0,0,1,,,,,,,,,0,,,83,60
4875,note_on,15,0,1,,,,,,,,,0,,,83,0
4875,note_on,0,0,1,,,,,,,,,0,,,74,60
4890,note_on,0,0,1,,,,,,,,,0,,,66,60
4890,note_on,15,0,1,,,,,,,,,0,,,74,0
4905,note_on,15,0,1,,,,,,,,,0,,,66,0
4905,note_on,0,0,1,,,,,,,,,0,,,59,60
4920,note_on,15,0,1,,,,,,,,,0,,,59,0
4920,note_on,0,0,1,,,,,,,,,0,,,57,60
4935,note_on,0,0,1,,,,,,,,,0,,,66,60
4935,note_on,15,0,1,,,,,,,,,0,,,57,0
4950,note_on,0,0,1,,,,,,,,,0,,,74,60
4950,note_on,15,0,1,,,,,,,,,0,,,66,0
4965,note_on,15,0,1,,,,,,,,,0,,,74,0
4965,note_on,0,0,1,,,,,,,,,0,,,84,60
4980,note_on,15,0,1,,,,,,,,,0,,,84,0
4980,note_on,0,0,1,,,,,,,,,0,,,84,60
4995,note_on,15,0,1,,,,,,,,,0,,,84,0
4995,note_on,0,0,1,,,,,,,,,0,,,74,60
5010,note_on,15,0,1,,,,,,,,,0,,,74,0
5010,note_on,0,0,1,,,,,,,,,0,,,66,60
5025,note_on,15,0,1,,,,,,,,,0,,,66,0
5025,note_on,0,0,1,,,,,,,,,0,,,57,60
5040,note_on,15,0,1,,,,,,,,,0,,,57,0
5040,note_on,0,0,1,,,,,,,,,0,,,57,60
5055,note_on,0,0,1,,,,,,,,,0,,,66,60
5055,note_on,15,0,1,,,,,,,,,0,,,57,0
5070,note_on,15,0,1,,,,,,,,,0,,,66,0
5070,note_on,0,0,1,,,,,,,,,0,,,74,60
5085,note_on,15,0,1,,,,,,,,,0,,,74,0
5085,note_on,0,0,1,,,,,,,,,0,,,81,60
5100,note_on,0,0,1,,,,,,,,,0,,,81,60
5100,note_on,15,0,1,,,,,,,,,0,,,81,0
5115,note_on,15,0,1,,,,,,,,,0,,,81,0
5115,note_on,0,0,1,,,,,,,,,0,,,74,60
5130,note_on,0,0,1,,,,,,,,,0,,,66,60
5130,note_on,15,0,1,,,,,,,,,0,,,74,0
5145,note_on,0,0,1,,,,,,,,,0,,,57,60
5145,note_on,15,0,1,,,,,,,,,0,,,66,0
5160,note_on,0,0,1,,,,,,,,,0,,,55,60
5160,note_on,15,0,1,,,,,,,,,0,,,57,0
5175,note_on,15,0,1,,,,,,,,,0,,,55,0
5175,note_on,0,0,1,,,,,,,,,0,,,62,60
5190,note_on,0,0,1,,,,,,,,,0,,,71,61
5190,note_on,15,0,1,,,,,,,,,0,,,62,0
5205,note_on,0,0,1,,,,,,,,,0,,,86,61
5205,note_on,15,0,1,,,,,,,,,0,,,71,0
5220,note_on,15,0,1,,,,,,,,,0,,,86,0
5220,note_on,0,0,1,,,,,,,,,0,,,86,62
5235,note_on,0,0,1,,,,,,,,,0,,,71,62
5235,note_on,15,0,1,,,,,,,,,0,,,86,0
5250,note_on,0,0,1,,,,,,,,,0,,,62,63
5250,note_on,15,0,1,,,,,,,,,0,,,71,0
5265,note_on,15,0,1,,,,,,,,,0,,,62,0
5265,note_on,0,0,1,,,,,,,,,0,,,55,64
5280,note_on,15,0,1,,,,,,,,,0,,,55,0
5280,note_on,0,0,1,,,,,,,,,0,,,55,64
5295,note_on,15,0,1,,,,,,,,,0,,,55,0
5295,note_on,0,0,1,,,,,,,,,0,,,71,65
5295,note_on,0,0,1,,,,,,,,,0,,,62,65
5310,note_on,15,0,1,,,,,,,,,0,,,62,0
5310,note_on,0,0,1,,,,,,,,,0,,,71,0
5310,note_on,0,0,1,,,,,,,,,0,,,74,65
5325,note_on,0,0,1,,,,,,,,,0,,,91,66
5325,note_on,15,0,1,,,,,,,,,0,,,74,0
5340,note_on,15,0,1,,,,,,,,,0,,,91,0
5340,note_on,0,0,1,,,,,,,,,0,,,91,66
5355,note_on,15,0,1,,,,,,,,,0,,,91,0
5355,note_on,0,0,1,,,,,,,,,0,,,74,67
5370,note_on,0,0,1,,,,,,,,,0,,,71,68
5370,note_on,15,0,1,,,,,,,,,0,,,74,0
5370,note_on,0,0,1,,,,,,,,,0,,,62,68
5385,note_on,0,0,1,,,,,,,,,0,,,62,0
5385,note_on,15,0,1,,,,,,,,,0,,,71,0
5385,note_on,0,0,1,,,,,,,,,0,,,55,68
5400,note_on,0,0,1,,,,,,,,,0,,,55,69
5400,note_on,15,0,1,,,,,,,,,0,,,55,0
5415,note_on,0,0,1,,,,,,,,,0,,,71,69
5415,note_on,0,0,1,,,,,,,,,0,,,62,69
5415,note_on,15,0,1,,,,,,,,,0,,,55,0
5430,note_on,0,0,1,,,,,,,,,0,,,79,70
5430,note_on,15,0,1,,,,,,,,,0,,,62,0
5430,note_on,0,0,1,,,,,,,,,0,,,71,0
5445,note_on,15,0,1,,,,,,,,,0,,,79,0
5445,note_on,0,0,1,,,,,,,,,0,,,95,70
5460,note_on,0,0,1,,,,,,,,,0,,,95,71
5460,note_on,15,0,1,,,,,,,,,0,,,95,0
5475,note_on,15,0,1,,,,,,,,,0,,,95,0
5475,note_on,0,0,1,,,,,,,,,0,,,79,72
5490,note_on,0,0,1,,,,,,,,,0,,,62,72
5490,note_on,0,0,1,,,,,,,,,0,,,71,72
5490,note_on,15,0,1,,,,,,,,,0,,,79,0
5505,note_on,0,0,1,,,,,,,,,0,,,55,73
5505,note_on,0,0,1,,,,,,,,,0,,,62,0
5505,note_on,15,0,1,,,,,,,,,0,,,71,0
5520,note_on,0,0,1,,,,,,,,,0,,,55,73
5520,note_on,15,0,1,,,,,,,,,0,,,55,0
5535,note_on,15,0,1,,,,,,,,,0,,,55,0
5535,note_on,0,0,1,,,,,,,,,0,,,71,74
5535,note_on,0,0,1,,,,,,,,,0,,,62,74
5550,note_on,15,0,1,,,,,,,,,0,,,62,0
5550,note_on,0,0,1,,,,,,,,,0,,,71,0
5550,note_on,0,0,1,,,,,,,,,0,,,83,74
5565,note_on,0,0,1,,,,,,,,,0,,,98,75
5565,note_on,15,0,1,,,,,,,,,0,,,83,0
5580,note_on,0,0,1,,,,,,,,,0,,,98,76
5580,note_on,15,0,1,,,,,,,,,0,,,98,0
5595,note_on,0,0,1,,,,,,,,,0,,,83,76
5595,note_on,15,0,1,,,,,,,,,0,,,98,0
5610,note_on,15,0,1,,,,,,,,,0,,,83,0
5610,note_on,0,0,1,,,,,,,,,0,,,62,77
5610,note_on,0,0,1,,,,,,,,,0,,,71,77
5625,note_on,0,0,1,,,,,,,,,0,,,55,77
5625,note_on,0,0,1,,,,,,,,,0,,,62,0
5625,note_on,15,0,1,,,,,,,,,0,,,71,0
5640,note_on,15,0,1,,,,,,,,,0,,,55,0
5640,note_on,0,0,1,,,,,,,,,0,,,60,78
5655,note_on,0,0,1,,,,,,,,,0,,,67,79
5655,note_on,15,0,1,,,,,,,,,0,,,60,0
5670,note_on,0,0,1,,,,,,,,,0,,,76,79
5670,note_on,0,0,1,,,,,,,,,0,,,72,79
5670,note_on,15,0,1,,,,,,,,,0,,,67,0
5685,note_on,0,0,1,,,,,,,,,0,,,84,80
5685,note_on,15,0,1,,,,,,,,,0,,,72,0
5685,note_on,0,0,1,,,,,,,,,0,,,76,0
5700,note_on,15,0,1,,,,,,,,,0,,,84,0
5700,note_on,0,0,1,,,,,,,,,0,,,61,80
5715,note_on,15,0,1,,,,,,,,,0,,,61,0
5730,note_on,0,0,1,,,,,,,,,0,,,61,81
5730,note_on,0,0,1,,,,,,,,,0,,,88,101
5730,note_on,0,0,1,,,,,,,,,0,,,83,101
5730,note_on,0,0,1,,,,,,,,,0,,,79,101
5730,note_on,15,0,1,,,,,,,,,0,,,69,81
5745,note_on,15,0,1,,,,,,,,,0,,,79,0
5745,note_on,0,0,1,,,,,,,,,0,,,88,0
5745,note_on,0,0,1,,,,,,,,,0,,,69,0
5745,note_on,0,0,1,,,,,,,,,0,,,83,0
5745,note_on,0,0,1,,,,,,,,,0,,,61,0
5760,note_on,15,0,1,,,,,,,,,0,,,62,83
5775,note_on,0,0,1,,,,,,,,,0,,,69,83
5775,note_on,15,0,1,,,,,,,,,0,,,62,0
5790,note_on,15,0,1,,,,,,,,,0,,,69,0
5790,note_on,0,0,1,,,,,,,,,0,,,78,84
5790,note_on,0,0,1,,,,,,,,,0,,,74,84
5805,note_on,0,0,1,,,,,,,,,0,,,78,0
5805,note_on,0,0,1,,,,,,,,,0,,,86,84
5805,note_on,15,0,1,,,,,,,,,0,,,74,0
5820,note_on,0,0,1,,,,,,,,,0,,,63,85
5820,note_on,15,0,1,,,,,,,,,0,,,86,0
5835,note_on,15,0,1,,,,,,,,,0,,,63,0
5850,note_on,0,0,1,,,,,,,,,0,,,78,106
5850,note_on,15,0,1,,,,,,,,,0,,,71,86
5850,note_on,0,0,1,,,,,,,,,0,,,81,106
5850,note_on,0,0,1,,,,,,,,,0,,,90,106
5850,note_on,0,0,1,,,,,,,,,0,,,63,86
5865,note_on,0,0,1,,,,,,,,,0,,,81,0
5865,note_on,0,0,1,,,,,,,,,0,,,63,0
5865,note_on,0,0,1,,,,,,,,,0,,,90,0
5865,note_on,0,0,1,,,,,,,,,0,,,71,0
5865,note_on,15,0,1,,,,,,,,,0,,,78,0
5880,note_on,15,0,1,,,,,,,,,0,,,64,87
5895,note_on,0,0,1,,,,,,,,,0,,,71,88
5895,note_on,15,0,1,,,,,,,,,0,,,64,0
5910,note_on,15,0,1,,,,,,,,,0,,,71,0
5910,note_on,0,0,1,,,,,,,,,0,,,76,88
5925,note_on,15,0,1,,,,,,,,,0,,,76,0
5925,note_on,0,0,1,,,,,,,,,0,,,79,89
5925,note_on,0,0,1,,,,,,,,,0,,,88,89
5940,note_on,0,0,1,,,,,,,,,0,,,88,0
5940,note_on,0,0,1,,,,,,,,,0,,,66,89
5940,note_on,15,0,1,,,,,,,,,0,,,79,0
5955,note_on,15,0,1,,,,,,,,,0,,,66,0
5970,note_on,0,0,1,,,,,,,,,0,,,78,111
5970,note_on,15,0,1,,,,,,,,,0,,,74,91
5970,note_on,0,0,1,,,,,,,,,0,,,81,111
5970,note_on,0,0,1,,,,,,,,,0,,,69,91
5970,note_on,0,0,1,,,,,,,,,0,,,90,111
5985,note_on,0,0,1,,,,,,,,,0,,,74,0
5985,note_on,0,0,1,,,,,,,,,0,,,90,0
5985,note_on,0,0,1,,,,,,,,,0,,,81,0
5985,note_on,15,0,1,,,,,,,,,0,,,78,0
5985,note_on,0,0,1,,,,,,,,,0,,,69,0
6000,note_on,15,0,1,,,,,,,,,0,,,67,92
6015,note_on,15,0,1,,,,,,,,,0,,,67,0
6030,note_on,0,0,1,,,,,,,,,0,,,71,93
6030,note_on,0,0,1,,,,,,,,,0,,,91,113
6030,note_on,0,0,1,,,,,,,,,0,,,83,113
6030,note_on,15,0,1,,,,,,,,,0,,,74,93
6030,note_on,0,0,1,,,,,,,,,0,,,79,113
6045,note_on,0,0,1,,,,,,,,,0,,,91,0
6045,note_on,0,0,1,,,,,,,,,0,,,74,0
6045,note_on,15,0,1,,,,,,,,,0,,,79,0
6045,note_on,0,0,1,,,,,,,,,0,,,83,0
6045,note_on,0,0,1,,,,,,,,,0,,,71,0
6060,note_on,15,0,1,,,,,,,,,0,,,69,94
6075,note_on,15,0,1,,,,,,,,,0,,,69,0
6090,note_on,0,0,1,,,,,,,,,0,,,81,115
6090,note_on,15,0,1,,,,,,,,,0,,,78,95
6090,note_on,0,0,1,,,,,,,,,0,,,93,115
6090,note_on,0,0,1,,,,,,,,,0,,,74,95
6090,note_on,0,0,1,,,,,,,,,0,,,86,115
6105,note_on,15,0,1,,,,,,,,,0,,,81,0
6105,note_on,0,0,1,,,,,,,,,0,,,86,0
6105,note_on,0,0,1,,,,,,,,,0,,,74,0
6105,note_on,0,0,1,,,,,,,,,0,,,78,0
6105,note_on,0,0,1,,,,,,,,,0,,,93,0
6120,note_on,15,0,1,,,,,,,,,0,,,71,96
6135,note_on,15,0,1,,,,,,,,,0,,,71,0
6150,note_on,0,0,1,,,,,,,,,0,,,83,118
6150,note_on,0,0,1,,,,,,,,,0,,,74,98
6150,note_on,0,0,1,,,,,,,,,0,,,86,118
6150,note_on,15,0,1,,,,,,,,,0,,,79,98
6150,note_on,0,0,1,,,,,,,,,0,,,95,118
6165,note_on,15,0,1,,,,,,,,,0,,,83,0
6165,note_on,0,0,1,,,,,,,,,0,,,86,0
6165,note_on,0,0,1,,,,,,,,,0,,,74,0
6165,note_on,0,0,1,,,,,,,,,0,,,79,0
6165,note_on,0,0,1,,,,,,,,,0,,,95,0
6180,note_on,15,0,1,,,,,,,,,0,,,72,99
6195,note_on,15,0,1,,,,,,,,,0,,,72,0
6210,note_on,15,0,1,,,,,,,,,0,,,79,100
6210,note_on,0,0,1,,,,,,,,,0,,,84,120
6210,note_on,0,0,1,,,,,,,,,0,,,88,120
6210,note_on,0,0,1,,,,,,,,,0,,,96,120
6210,note_on,0,0,1,,,,,,,,,0,,,76,100
6225,note_on,0,0,1,,,,,,,,,0,,,96,0
6225,note_on,0,0,1,,,,,,,,,0,,,76,0
6225,note_on,0,0,1,,,,,,,,,0,,,88,0
6225,note_on,15,0,1,,,,,,,,,0,,,84,0
6225,note_on,0,0,1,,,,,,,,,0,,,79,0
6240,note_on,15,0,1,,,,,,,,,0,,,73,100
6250,note_on,0,0,1,,,,,,,,,0,,,79,100
6250,note_on,10,0,1,,,,,,,,,0,,,73,0
6260,note_on,0,0,1,,,,,,,,,0,,,82,100
6260,note_on,10,0,1,,,,,,,,,0,,,79,0
6270,note_on,0,0,1,,,,,,,,,0,,,88,100
6270,note_on,10,0,1,,,,,,,,,0,,,82,0
6280,note_on,0,0,1,,,,,,,,,0,,,94,100
6280,note_on,10,0,1,,,,,,,,,0,,,88,0
6290,note_on,10,0,1,,,,,,,,,0,,,94,0
6290,note_on,0,0,1,,,,,,,,,0,,,100,100
6300,note_on,0,0,1,,,,,,,,,0,,,103,100
6300,note_on,10,0,1,,,,,,,,,0,,,100,0
6330,note_on,0,0,1,,,,,,,,,0,,,61,100
6330,note_on,30,0,1,,,,,,,,,0,,,103,0
6360,note_on,0,0,1,,,,,,,,,0,,,62,110
6360,note_on,30,0,1,,,,,,,,,0,,,61,0
6370,note_on,10,0,1,,,,,,,,,0,,,62,0
6380,note_on,10,0,1,,,,,,,,,0,,,86,100
6380,note_on,0,0,1,,,,,,,,,0,,,83,100
6390,note_on,0,0,1,,,,,,,,,0,,,86,0
6390,note_on,10,0,1,,,,,,,,,0,,,83,0
6400,note_on,10,0,1,,,,,,,,,0,,,84,100
6400,note_on,0,0,1,,,,,,,,,0,,,81,100
6410,note_on,10,0,1,,,,,,,,,0,,,81,0
6410,note_on,0,0,1,,,,,,,,,0,,,84,0
6420,note_on,0,0,1,,,,,,,,,0,,,79,100
6420,note_on,0,0,1,,,,,,,,,0,,,59,110
6420,note_on,10,0,1,,,,,,,,,0,,,83,100
6430,note_on,0,0,1,,,,,,,,,0,,,83,0
6430,note_on,0,0,1,,,,,,,,,0,,,79,0
6430,note_on,10,0,1,,,,,,,,,0,,,59,0
6440,note_on,0,0,1,,,,,,,,,0,,,60,110
6440,note_on,0,0,1,,,,,,,,,0,,,78,100
6440,note_on,10,0,1,,,,,,,,,0,,,81,100
6450,note_on,0,0,1,,,,,,,,,0,,,81,0
6450,note_on,0,0,1,,,,,,,,,0,,,78,0
6450,note_on,10,0,1,,,,,,,,,0,,,60,0
6460,note_on,0,0,1,,,,,,,,,0,,,61,110
6460,note_on,0,0,1,,,,,,,,,0,,,79,100
6460,note_on,10,0,1,,,,,,,,,0,,,76,100
6470,note_on,0,0,1,,,,,,,,,0,,,79,0
6470,note_on,10,0,1,,,,,,,,,0,,,61,0
6470,note_on,0,0,1,,,,,,,,,0,,,76,0
6480,note_on,10,0,1,,,,,,,,,0,,,78,100
6480,note_on,0,0,1,,,,,,,,,0,,,62,110
6480,note_on,0,0,1,,,,,,,,,0,,,74,100
6490,note_on,10,0,1,,,,,,,,,0,,,62,0
6490,note_on,0,0,1,,,,,,,,,0,,,74,0
6490,note_on,0,0,1,,,,,,,,,0,,,78,0
6500,note_on,10,0,1,,,,,,,,,0,,,76,100
6500,note_on,0,0,1,,,,,,,,,0,,,72,100
6510,note_on,0,0,1,,,,,,,,,0,,,76,0
6510,note_on,10,0,1,,,,,,,,,0,,,72,0
6520,note_on,0,0,1,,,,,,,,,0,,,71,100
6520,note_on,10,0,1,,,,,,,,,0,,,74,100
6530,note_on,0,0,1,,,,,,,,,0,,,74,0
6530,note_on,10,0,1,,,,,,,,,0,,,71,0
6540,note_on,10,0,1,,,,,,,,,0,,,72,100
6540,note_on,0,0,1,,,,,,,,,0,,,69,100
6540,note_on,0,0,1,,,,,,,,,0,,,74,110
6550,note_on,10,0,1,,,,,,,,,0,,,74,0
6550,note_on,0,0,1,,,,,,,,,0,,,69,0
6550,note_on,0,0,1,,,,,,,,,0,,,72,0
6560,note_on,10,0,1,,,,,,,,,0,,,71,100
6560,note_on,0,0,1,,,,,,,,,0,,,67,100
6570,note_on,10,0,1,,,,,,,,,0,,,67,0
6570,note_on,0,0,1,,,,,,,,,0,,,71,0
6580,note_on,10,0,1,,,,,,,,,0,,,66,100
6580,note_on,0,0,1,,,,,,,,,0,,,69,100
6590,note_on,0,0,1,,,,,,,,,0,,,66,0
6590,note_on,10,0,1,,,,,,,,,0,,,69,0
6600,note_on,10,0,1,,,,,,,,,0,,,55,60
6615,note_on,0,0,1,,,,,,,,,0,,,62,62
6615,note_on,15,0,1,,,,,,,,,0,,,55,0
6630,note_on,0,0,1,,,,,,,,,0,,,71,65
6630,note_on,15,0,1,,,,,,,,,0,,,62,0
6645,note_on,15,0,1,,,,,,,,,0,,,71,0
6645,note_on,0,0,1,,,,,,,,,0,,,79,68
6660,note_on,15,0,1,,,,,,,,,0,,,79,0
6660,note_on,0,0,1,,,,,,,,,0,,,79,71
6675,note_on,15,0,1,,,,,,,,,0,,,79,0
6675,note_on,0,0,1,,,,,,,,,0,,,71,74
6690,note_on,0,0,1,,,,,,,,,0,,,62,77
6690,note_on,15,0,1,,,,,,,,,0,,,71,0
6705,note_on,0,0,1,,,,,,,,,0,,,55,80
6705,note_on,15,0,1,,,,,,,,,0,,,62,0
6720,note_on,15,0,1,,,,,,,,,0,,,55,0
6720,note_on,0,0,1,,,,,,,,,0,,,55,83
6735,note_on,0,0,1,,,,,,,,,0,,,63,86
6735,note_on,15,0,1,,,,,,,,,0,,,55,0
6750,note_on,0,0,1,,,,,,,,,0,,,72,89
6750,note_on,15,0,1,,,,,,,,,0,,,63,0
6765,note_on,0,0,1,,,,,,,,,0,,,78,92
6765,note_on,15,0,1,,,,,,,,,0,,,72,0
6780,note_on,15,0,1,,,,,,,,,0,,,78,0
6780,note_on,0,0,1,,,,,,,,,0,,,78,95
6795,note_on,0,0,1,,,,,,,,,0,,,72,98
6795,note_on,15,0,1,,,,,,,,,0,,,78,0
6810,note_on,15,0,1,,,,,,,,,0,,,72,0
6810,note_on,0,0,1,,,,,,,,,0,,,63,100
6825,note_on,15,0,1,,,,,,,,,0,,,63,0
6825,note_on,0,0,1,,,,,,,,,0,,,55,100
6840,note_on,0,0,1,,,,,,,,,0,,,55,110
6840,note_on,15,0,1,,,,,,,,,0,,,55,0
6850,note_on,10,0,1,,,,,,,,,0,,,55,0
6860,note_on,0,0,1,,,,,,,,,0,,,83,100
6860,note_on,10,0,1,,,,,,,,,0,,,86,100
6870,note_on,10,0,1,,,,,,,,,0,,,83,0
6870,note_on,0,0,1,,,,,,,,,0,,,86,0
6880,note_on,10,0,1,,,,,,,,,0,,,84,100
6880,note_on,0,0,1,,,,,,,,,0,,,81,100
6890,note_on,10,0,1,,,,,,,,,0,,,81,0
6890,note_on,0,0,1,,,,,,,,,0,,,84,0
6900,note_on,0,0,1,,,,,,,,,0,,,59,110
6900,note_on,0,0,1,,,,,,,,,0,,,79,100
6900,note_on,10,0,1,,,,,,,,,0,,,83,100
6910,note_on,10,0,1,,,,,,,,,0,,,59,0
6910,note_on,0,0,1,,,,,,,,,0,,,79,0
6910,note_on,0,0,1,,,,,,,,,0,,,83,0
6920,note_on,0,0,1,,,,,,,,,0,,,60,110
6920,note_on,10,0,1,,,,,,,,,0,,,81,100
6920,note_on,0,0,1,,,,,,,,,0,,,78,100
6930,note_on,0,0,1,,,,,,,,,0,,,81,0
6930,note_on,0,0,1,,,,,,,,,0,,,78,0
6930,note_on,10,0,1,,,,,,,,,0,,,60,0
6940,note_on,0,0,1,,,,,,,,,0,,,61,110
6940,note_on,0,0,1,,,,,,,,,0,,,76,100
6940,note_on,10,0,1,,,,,,,,,0,,,79,100
6950,note_on,0,0,1,,,,,,,,,0,,,79,0
6950,note_on,0,0,1,,,,,,,,,0,,,76,0
6950,note_on,10,0,1,,,,,,,,,0,,,61,0
6960,note_on,0,0,1,,,,,,,,,0,,,62,110
6960,note_on,10,0,1,,,,,,,,,0,,,74,100
6960,note_on,0,0,1,,,,,,,,,0,,,78,100
6970,note_on,10,0,1,,,,,,,,,0,,,62,0
6970,note_on,0,0,1,,,,,,,,,0,,,78,0
6970,note_on,0,0,1,,,,,,,,,0,,,74,0
6980,note_on,10,0,1,,,,,,,,,0,,,72,100
6980,note_on,0,0,1,,,,,,,,,0,,,76,100
6990,note_on,10,0,1,,,,,,,,,0,,,76,0
6990,note_on,0,0,1,,,,,,,,,0,,,72,0
7000,note_on,10,0,1,,,,,,,,,0,,,74,100
7000,note_on,0,0,1,,,,,,,,,0,,,71,100
7010,note_on,10,0,1,,,,,,,,,0,,,71,0
7010,note_on,0,0,1,,,,,,,,,0,,,74,0
7020,note_on,10,0,1,,,,,,,,,0,,,72,100
7020,note_on,0,0,1,,,,,,,,,0,,,69,100
7020,note_on,0,0,1,,,,,,,,,0,,,74,110
7030,note_on,0,0,1,,,,,,,,,0,,,69,0
7030,note_on,0,0,1,,,,,,,,,0,,,72,0
7030,note_on,10,0,1,,,,,,,,,0,,,74,0
7040,note_on,0,0,1,,,,,,,,,0,,,67,100
7040,note_on,10,0,1,,,,,,,,,0,,,71,100
7050,note_on,0,0,1,,,,,,,,,0,,,71,0
7050,note_on,10,0,1,,,,,,,,,0,,,67,0
7060,note_on,10,0,1,,,,,,,,,0,,,66,100
7060,note_on,0,0,1,,,,,,,,,0,,,69,100
7070,note_on,10,0,1,,,,,,,,,0,,,69,0
7070,note_on,0,0,1,,,,,,,,,0,,,66,0
7080,note_on,10,0,1,,,,,,,,,0,,,55,60
7095,note_on,15,0,1,,,,,,,,,0,,,55,0
7095,note_on,0,0,1,,,,,,,,,0,,,62,62
7110,note_on,15,0,1,,,,,,,,,0,,,62,0
7110,note_on,0,0,1,,,,,,,,,0,,,71,65
7125,note_on,15,0,1,,,,,,,,,0,,,71,0
7125,note_on,0,0,1,,,,,,,,,0,,,79,68
7140,note_on,0,0,1,,,,,,,,,0,,,79,71
7140,note_on,15,0,1,,,,,,,,,0,,,79,0
7155,note_on,15,0,1,,,,,,,,,0,,,79,0
7155,note_on,0,0,1,,,,,,,,,0,,,71,74
7170,note_on,15,0,1,,,,,,,,,0,,,71,0
7170,note_on,0,0,1,,,,,,,,,0,,,62,77
7185,note_on,15,0,1,,,,,,,,,0,,,62,0
7185,note_on,0,0,1,,,,,,,,,0,,,55,80
7200,note_on,15,0,1,,,,,,,,,0,,,55,0
7200,note_on,0,0,1,,,,,,,,,0,,,55,83
7215,note_on,0,0,1,,,,,,,,,0,,,63,86
7215,note_on,15,0,1,,,,,,,,,0,,,55,0
7230,note_on,15,0,1,,,,,,,,,0,,,63,0
7230,note_on,0,0,1,,,,,,,,,0,,,72,89
7245,note_on,0,0,1,,,,,,,,,0,,,78,92
7245,note_on,15,0,1,,,,,,,,,0,,,72,0
7260,note_on,0,0,1,,,,,,,,,0,,,78,95
7260,note_on,15,0,1,,,,,,,,,0,,,78,0
7275,note_on,15,0,1,,,,,,,,,0,,,78,0
7275,note_on,0,0,1,,,,,,,,,0,,,72,98
7290,note_on,0,0,1,,,,,,,,,0,,,63,100
7290,note_on,15,0,1,,,,,,,,,0,,,72,0
7305,note_on,0,0,1,,,,,,,,,0,,,55,100
7305,note_on,15,0,1,,,,,,,,,0,,,63,0
7320,note_on,0,0,1,,,,,,,,,0,,,55,110
7320,note_on,15,0,1,,,,,,,,,0,,,55,0
7330,note_on,10,0,1,,,,,,,,,0,,,55,0
7340,note_on,0,0,1,,,,,,,,,0,,,83,100
7340,note_on,10,0,1,,,,,,,,,0,,,86,100
7350,note_on,10,0,1,,,,,,,,,0,,,83,0
7350,note_on,0,0,1,,,,,,,,,0,,,86,0
7360,note_on,0,0,1,,,,,,,,,0,,,81,100
7360,note_on,10,0,1,,,,,,,,,0,,,84,100
7370,note_on,0,0,1,,,,,,,,,0,,,84,0
7370,note_on,10,0,1,,,,,,,,,0,,,81,0
7380,note_on,0,0,1,,,,,,,,,0,,,79,100
7380,note_on,0,0,1,,,,,,,,,0,,,59,110
7380,note_on,10,0,1,,,,,,,,,0,,,83,100
7390,note_on,0,0,1,,,,,,,,,0,,,83,0
7390,note_on,0,0,1,,,,,,,,,0,,,79,0
7390,note_on,10,0,1,,,,,,,,,0,,,59,0
7400,note_on,0,0,1,,,,,,,,,0,,,60,110
7400,note_on,10,0,1,,,,,,,,,0,,,81,100
7400,note_on,0,0,1,,,,,,,,,0,,,78,100
7410,note_on,0,0,1,,,,,,,,,0,,,78,0
7410,note_on,0,0,1,,,,,,,,,0,,,81,0
7410,note_on,10,0,1,,,,,,,,,0,,,60,0
7420,note_on,10,0,1,,,,,,,,,0,,,79,100
7420,note_on,0,0,1,,,,,,,,,0,,,76,100
7420,note_on,0,0,1,,,,,,,,,0,,,61,110
7430,note_on,10,0,1,,,,,,,,,0,,,61,0
7430,note_on,0,0,1,,,,,,,,,0,,,76,0
7430,note_on,0,0,1,,,,,,,,,0,,,79,0
7440,note_on,10,0,1,,,,,,,,,0,,,74,100
7440,note_on,0,0,1,,,,,,,,,0,,,62,110
7440,note_on,0,0,1,,,,,,,,,0,,,78,100
7450,note_on,0,0,1,,,,,,,,,0,,,78,0
7450,note_on,0,0,1,,,,,,,,,0,,,74,0
7450,note_on,10,0,1,,,,,,,,,0,,,62,0
7460,note_on,0,0,1,,,,,,,,,0,,,76,100
7460,note_on,10,0,1,,,,,,,,,0,,,72,100
7470,note_on,0,0,1,,,,,,,,,0,,,72,0
7470,note_on,10,0,1,,,,,,,,,0,,,76,0
7480,note_on,10,0,1,,,,,,,,,0,,,74,100
7480,note_on,0,0,1,,,,,,,,,0,,,71,100
7490,note_on,10,0,1,,,,,,,,,0,,,71,0
7490,note_on,0,0,1,,,,,,,,,0,,,74,0
7500,note_on,0,0,1,,,,,,,,,0,,,69,100
7500,note_on,0,0,1,,,,,,,,,0,,,74,110
7500,note_on,10,0,1,,,,,,,,,0,,,72,100
7510,note_on,10,0,1,,,,,,,,,0,,,74,0
7510,note_on,0,0,1,,,,,,,,,0,,,72,0
7510,note_on,0,0,1,,,,,,,,,0,,,69,0
7520,note_on,0,0,1,,,,,,,,,0,,,67,100
7520,note_on,10,0,1,,,,,,,,,0,,,71,100
7530,note_on,0,0,1,,,,,,,,,0,,,71,0
7530,note_on,10,0,1,,,,,,,,,0,,,67,0
7540,note_on,10,0,1,,,,,,,,,0,,,66,100
7540,note_on,0,0,1,,,,,,,,,0,,,69,100
7550,note_on,0,0,1,,,,,,,,,0,,,66,0
7550,note_on,10,0,1,,,,,,,,,0,,,69,0
7560,note_on,10,0,1,,,,,,,,,0,,,55,60
7575,note_on,15,0,1,,,,,,,,,0,,,55,0
7575,note_on,0,0,1,,,,,,,,,0,,,62,62
7590,note_on,0,0,1,,,,,,,,,0,,,71,65
7590,note_on,15,0,1,,,,,,,,,0,,,62,0
7605,note_on,15,0,1,,,,,,,,,0,,,71,0
7605,note_on,0,0,1,,,,,,,,,0,,,79,68
7620,note_on,0,0,1,,,,,,,,,0,,,79,71
7620,note_on,15,0,1,,,,,,,,,0,,,79,0
7635,note_on,0,0,1,,,,,,,,,0,,,71,74
7635,note_on,15,0,1,,,,,,,,,0,,,79,0
7650,note_on,15,0,1,,,,,,,,,0,,,71,0
7650,note_on,0,0,1,,,,,,,,,0,,,62,77
7665,note_on,15,0,1,,,,,,,,,0,,,62,0
7665,note_on,0,0,1,,,,,,,,,0,,,55,80
7680,note_on,15,0,1,,,,,,,,,0,,,55,0
7680,note_on,0,0,1,,,,,,,,,0,,,55,83
7695,note_on,0,0,1,,,,,,,,,0,,,62,86
7695,note_on,15,0,1,,,,,,,,,0,,,55,0
7710,note_on,15,0,1,,,,,,,,,0,,,62,0
7710,note_on,0,0,1,,,,,,,,,0,,,71,89
7725,note_on,0,0,1,,,,,,,,,0,,,79,92
7725,note_on,15,0,1,,,,,,,,,0,,,71,0
7740,note_on,15,0,1,,,,,,,,,0,,,79,0
7740,note_on,0,0,1,,,,,,,,,0,,,79,95
7755,note_on,15,0,1,,,,,,,,,0,,,79,0
7755,note_on,0,0,1,,,,,,,,,0,,,71,98
7770,note_on,15,0,1,,,,,,,,,0,,,71,0
7770,note_on,0,0,1,,,,,,,,,0,,,62,100
7785,note_on,15,0,1,,,,,,,,,0,,,62,0
7785,note_on,0,0,1,,,,,,,,,0,,,55,100
7800,note_on,15,0,1,,,,,,,,,0,,,63,110
7810,note_on,0,0,1,,,,,,,,,0,,,55,0
7810,note_on,10,0,1,,,,,,,,,0,,,63,0
7820,note_on,0,0,1,,,,,,,,,0,,,82,100
7820,note_on,10,0,1,,,,,,,,,0,,,85,100
7830,note_on,10,0,1,,,,,,,,,0,,,82,0
7830,note_on,0,0,1,,,,,,,,,0,,,85,0
7840,note_on,10,0,1,,,,,,,,,0,,,84,100
7840,note_on,0,0,1,,,,,,,,,0,,,80,100
7850,note_on,0,0,1,,,,,,,,,0,,,84,0
7850,note_on,10,0,1,,,,,,,,,0,,,80,0
7860,note_on,0,0,1,,,,,,,,,0,,,58,110
7860,note_on,0,0,1,,,,,,,,,0,,,79,100
7860,note_on,10,0,1,,,,,,,,,0,,,82,100
7870,note_on,0,0,1,,,,,,,,,0,,,82,0
7870,note_on,10,0,1,,,,,,,,,0,,,58,0
7870,note_on,0,0,1,,,,,,,,,0,,,79,0
7880,note_on,0,0,1,,,,,,,,,0,,,61,110
7880,note_on,10,0,1,,,,,,,,,0,,,82,100
7880,note_on,0,0,1,,,,,,,,,0,,,79,100
7890,note_on,0,0,1,,,,,,,,,0,,,82,0
7890,note_on,0,0,1,,,,,,,,,0,,,79,0
7890,note_on,10,0,1,,,,,,,,,0,,,61,0
7900,note_on,10,0,1,,,,,,,,,0,,,80,100
7900,note_on,0,0,1,,,,,,,,,0,,,62,110
7900,note_on,0,0,1,,,,,,,,,0,,,77,100
7910,note_on,0,0,1,,,,,,,,,0,,,77,0
7910,note_on,0,0,1,,,,,,,,,0,,,80,0
7910,note_on,10,0,1,,,,,,,,,0,,,62,0
7920,note_on,10,0,1,,,,,,,,,0,,,79,100
7920,note_on,0,0,1,,,,,,,,,0,,,63,110
7920,note_on,0,0,1,,,,,,,,,0,,,75,100
7930,note_on,0,0,1,,,,,,,,,0,,,79,0
7930,note_on,10,0,1,,,,,,,,,0,,,63,0
7930,note_on,0,0,1,,,,,,,,,0,,,75,0
7940,note_on,0,0,1,,,,,,,,,0,,,73,100
7940,note_on,10,0,1,,,,,,,,,0,,,77,100
7950,note_on,10,0,1,,,,,,,,,0,,,73,0
7950,note_on,0,0,1,,,,,,,,,0,,,77,0
7960,note_on,0,0,1,,,,,,,,,0,,,75,100
7960,note_on,10,0,1,,,,,,,,,0,,,72,100
7970,note_on,0,0,1,,,,,,,,,0,,,72,0
7970,note_on,10,0,1,,,,,,,,,0,,,75,0
7980,note_on,10,0,1,,,,,,,,,0,,,73,100
7980,note_on,0,0,1,,,,,,,,,0,,,70,100
7980,note_on,0,0,1,,,,,,,,,0,,,75,110
7990,note_on,0,0,1,,,,,,,,,0,,,73,0
7990,note_on,10,0,1,,,,,,,,,0,,,75,0
7990,note_on,0,0,1,,,,,,,,,0,,,70,0
8000,note_on,0,0,1,,,,,,,,,0,,,68,100
8000,note_on,10,0,1,,,,,,,,,0,,,72,100
8010,note_on,10,0,1,,,,,,,,,0,,,68,0
8010,note_on,0,0,1,,,,,,,,,0,,,72,0
8020,note_on,10,0,1,,,,,,,,,0,,,67,100
8020,note_on,0,0,1,,,,,,,,,0,,,70,100
8030,note_on,0,0,1,,,,,,,,,0,,,67,0
8030,note_on,10,0,1,,,,,,,,,0,,,70,0
8040,note_on,10,0,1,,,,,,,,,0,,,56,60
8055,note_on,15,0,1,,,,,,,,,0,,,56,0
8055,note_on,0,0,1,,,,,,,,,0,,,63,62
8070,note_on,15,0,1,,,,,,,,,0,,,63,0
8070,note_on,0,0,1,,,,,,,,,0,,,72,65
8085,note_on,15,0,1,,,,,,,,,0,,,72,0
8085,note_on,0,0,1,,,,,,,,,0,,,80,68
8100,note_on,15,0,1,,,,,,,,,0,,,80,0
8100,note_on,0,0,1,,,,,,,,,0,,,80,71
8115,note_on,15,0,1,,,,,,,,,0,,,80,0
8115,note_on,0,0,1,,,,,,,,,0,,,72,74
8130,note_on,15,0,1,,,,,,,,,0,,,72,0
8130,note_on,0,0,1,,,,,,,,,0,,,63,77
8145,note_on,15,0,1,,,,,,,,,0,,,63,0
8145,note_on,0,0,1,,,,,,,,,0,,,56,80
8160,note_on,0,0,1,,,,,,,,,0,,,56,83
8160,note_on,15,0,1,,,,,,,,,0,,,56,0
8175,note_on,0,0,1,,,,,,,,,0,,,63,86
8175,note_on,15,0,1,,,,,,,,,0,,,56,0
8190,note_on,0,0,1,,,,,,,,,0,,,71,89
8190,note_on,15,0,1,,,,,,,,,0,,,63,0
8205,note_on,15,0,1,,,,,,,,,0,,,71,0
8205,note_on,0,0,1,,,,,,,,,0,,,80,92
8220,note_on,15,0,1,,,,,,,,,0,,,80,0
8220,note_on,0,0,1,,,,,,,,,0,,,80,95
8235,note_on,0,0,1,,,,,,,,,0,,,71,98
8235,note_on,15,0,1,,,,,,,,,0,,,80,0
8250,note_on,15,0,1,,,,,,,,,0,,,71,0
8250,note_on,0,0,1,,,,,,,,,0,,,63,100
8265,note_on,0,0,1,,,,,,,,,0,,,56,100
8265,note_on,15,0,1,,,,,,,,,0,,,63,0
8280,note_on,0,0,1,,,,,,,,,0,,,64,110
8280,note_on,0,0,1,,,,,,,,,0,,,56,110
8280,note_on,15,0,1,,,,,,,,,0,,,56,0
8300,note_on,0,0,1,,,,,,,,,0,,,83,100
8300,note_on,0,0,1,,,,,,,,,0,,,86,100
8300,note_on,0,0,1,,,,,,,,,0,,,56,0
8300,note_on,20,0,1,,,,,,,,,0,,,64,0
8310,note_on,10,0,1,,,,,,,,,0,,,83,0
8310,note_on,0,0,1,,,,,,,,,0,,,86,0
8320,note_on,0,0,1,,,,,,,,,0,,,81,100
8320,note_on,10,0,1,,,,,,,,,0,,,85,100
8330,note_on,0,0,1,,,,,,,,,0,,,85,0
8330,note_on,10,0,1,,,,,,,,,0,,,81,0
8340,note_on,0,0,1,,,,,,,,,0,,,80,100
8340,note_on,10,0,1,,,,,,,,,0,,,83,100
8340,note_on,0,0,1,,,,,,,,,0,,,59,110
8350,note_on,0,0,1,,,,,,,,,0,,,80,0
8350,note_on,0,0,1,,,,,,,,,0,,,83,0
8350,note_on,10,0,1,,,,,,,,,0,,,59,0
8360,note_on,0,0,1,,,,,,,,,0,,,80,100
8360,note_on,0,0,1,,,,,,,,,0,,,62,110
8360,note_on,10,0,1,,,,,,,,,0,,,83,100
8370,note_on,0,0,1,,,,,,,,,0,,,80,0
8370,note_on,0,0,1,,,,,,,,,0,,,83,0
8370,note_on,10,0,1,,,,,,,,,0,,,62,0
8380,note_on,0,0,1,,,,,,,,,0,,,78,100
8380,note_on,0,0,1,,,,,,,,,0,,,63,110
8380,note_on,10,0,1,,,,,,,,,0,,,81,100
8390,note_on,0,0,1,,,,,,,,,0,,,81,0
8390,note_on,0,0,1,,,,,,,,,0,,,78,0
8390,note_on,10,0,1,,,,,,,,,0,,,63,0
8400,note_on,10,0,1,,,,,,,,,0,,,80,100
8400,note_on,0,0,1,,,,,,,,,0,,,76,100
8400,note_on,0,0,1,,,,,,,,,0,,,64,110
8410,note_on,0,0,1,,,,,,,,,0,,,80,0
8410,note_on,10,0,1,,,,,,,,,0,,,64,0
8410,note_on,0,0,1,,,,,,,,,0,,,76,0
8420,note_on,10,0,1,,,,,,,,,0,,,78,100
8420,note_on,0,0,1,,,,,,,,,0,,,74,100
8430,note_on,10,0,1,,,,,,,,,0,,,74,0
8430,note_on,0,0,1,,,,,,,,,0,,,78,0
8440,note_on,10,0,1,,,,,,,,,0,,,73,100
8440,note_on,0,0,1,,,,,,,,,0,,,76,100
8450,note_on,0,0,1,,,,,,,,,0,,,73,0
8450,note_on,10,0,1,,,,,,,,,0,,,76,0
8460,note_on,0,0,1,,,,,,,,,0,,,74,100
8460,note_on,10,0,1,,,,,,,,,0,,,71,100
8460,note_on,0,0,1,,,,,,,,,0,,,76,110
8470,note_on,0,0,1,,,,,,,,,0,,,71,0
8470,note_on,10,0,1,,,,,,,,,0,,,76,0
8470,note_on,0,0,1,,,,,,,,,0,,,74,0
8480,note_on,0,0,1,,,,,,,,,0,,,73,100
8480,note_on,10,0,1,,,,,,,,,0,,,69,100
8490,note_on,0,0,1,,,,,,,,,0,,,69,0
8490,note_on,10,0,1,,,,,,,,,0,,,73,0
8500,note_on,10,0,1,,,,,,,,,0,,,71,100
8500,note_on,0,0,1,,,,,,,,,0,,,68,100
8510,note_on,10,0,1,,,,,,,,,0,,,68,0
8510,note_on,0,0,1,,,,,,,,,0,,,71,0
8520,note_on,10,0,1,,,,,,,,,0,,,57,60
8535,note_on,15,0,1,,,,,,,,,0,,,57,0
8535,note_on,0,0,1,,,,,,,,,0,,,64,62
8550,note_on,0,0,1,,,,,,,,,0,,,73,65
8550,note_on,15,0,1,,,,,,,,,0,,,64,0
8565,note_on,15,0,1,,,,,,,,,0,,,73,0
8565,note_on,0,0,1,,,,,,,,,0,,,81,68
8580,note_on,15,0,1,,,,,,,,,0,,,81,0
8580,note_on,0,0,1,,,,,,,,,0,,,81,71
8595,note_on,15,0,1,,,,,,,,,0,,,81,0
8595,note_on,0,0,1,,,,,,,,,0,,,73,74
8610,note_on,15,0,1,,,,,,,,,0,,,73,0
8610,note_on,0,0,1,,,,,,,,,0,,,64,77
8625,note_on,15,0,1,,,,,,,,,0,,,64,0
8625,note_on,0,0,1,,,,,,,,,0,,,57,80
8640,note_on,15,0,1,,,,,,,,,0,,,57,0
8640,note_on,0,0,1,,,,,,,,,0,,,57,83
8655,note_on,15,0,1,,,,,,,,,0,,,57,0
8655,note_on,0,0,1,,,,,,,,,0,,,64,86
8670,note_on,15,0,1,,,,,,,,,0,,,64,0
8670,note_on,0,0,1,,,,,,,,,0,,,72,89
8685,note_on,15,0,1,,,,,,,,,0,,,72,0
8685,note_on,0,0,1,,,,,,,,,0,,,81,92
8700,note_on,15,0,1,,,,,,,,,0,,,81,0
8700,note_on,0,0,1,,,,,,,,,0,,,81,95
8715,note_on,15,0,1,,,,,,,,,0,,,81,0
8715,note_on,0,0,1,,,,,,,,,0,,,72,98
8730,note_on,15,0,1,,,,,,,,,0,,,72,0
8730,note_on,0,0,1,,,,,,,,,0,,,64,100
8745,note_on,0,0,1,,,,,,,,,0,,,57,100
8745,note_on,15,0,1,,,,,,,,,0,,,64,0
8760,note_on,15,0,1,,,,,,,,,0,,,65,110
8770,note_on,10,0,1,,,,,,,,,0,,,65,0
8770,note_on,0,0,1,,,,,,,,,0,,,57,0
8780,note_on,0,0,1,,,,,,,,,0,,,84,100
8780,note_on,10,0,1,,,,,,,,,0,,,87,100
8790,note_on,0,0,1,,,,,,,,,0,,,87,0
8790,note_on,10,0,1,,,,,,,,,0,,,84,0
8800,note_on,0,0,1,,,,,,,,,0,,,82,100
8800,note_on,10,0,1,,,,,,,,,0,,,86,100
8810,note_on,10,0,1,,,,,,,,,0,,,82,0
8810,note_on,0,0,1,,,,,,,,,0,,,86,0
8820,note_on,10,0,1,,,,,,,,,0,,,84,100
8820,note_on,0,0,1,,,,,,,,,0,,,81,100
8820,note_on,0,0,1,,,,,,,,,0,,,60,110
8830,note_on,10,0,1,,,,,,,,,0,,,60,0
8830,note_on,0,0,1,,,,,,,,,0,,,81,0
8830,note_on,0,0,1,,,,,,,,,0,,,84,0
8840,note_on,10,0,1,,,,,,,,,0,,,84,100
8840,note_on,0,0,1,,,,,,,,,0,,,81,100
8840,note_on,0,0,1,,,,,,,,,0,,,63,110
8850,note_on,0,0,1,,,,,,,,,0,,,81,0
8850,note_on,0,0,1,,,,,,,,,0,,,84,0
8850,note_on,10,0,1,,,,,,,,,0,,,63,0
8860,note_on,0,0,1,,,,,,,,,0,,,79,100
8860,note_on,0,0,1,,,,,,,,,0,,,64,110
8860,note_on,10,0,1,,,,,,,,,0,,,82,100
8870,note_on,0,0,1,,,,,,,,,0,,,82,0
8870,note_on,0,0,1,,,,,,,,,0,,,79,0
8870,note_on,10,0,1,,,,,,,,,0,,,64,0
8880,note_on,0,0,1,,,,,,,,,0,,,77,100
8880,note_on,10,0,1,,,,,,,,,0,,,81,100
8880,note_on,0,0,1,,,,,,,,,0,,,65,110
8890,note_on,10,0,1,,,,,,,,,0,,,65,0
8890,note_on,0,0,1,,,,,,,,,0,,,77,0
8890,note_on,0,0,1,,,,,,,,,0,,,81,0
8900,note_on,0,0,1,,,,,,,,,0,,,75,100
8900,note_on,10,0,1,,,,,,,,,0,,,79,100
8910,note_on,10,0,1,,,,,,,,,0,,,75,0
8910,note_on,0,0,1,,,,,,,,,0,,,79,0
8920,note_on,10,0,1,,,,,,,,,0,,,74,100
8920,note_on,0,0,1,,,,,,,,,0,,,77,100
8930,note_on,10,0,1,,,,,,,,,0,,,77,0
8930,note_on,0,0,1,,,,,,,,,0,,,74,0
8940,note_on,10,0,1,,,,,,,,,0,,,72,100
8940,note_on,0,0,1,,,,,,,,,0,,,75,100
8940,note_on,0,0,1,,,,,,,,,0,,,77,110
8950,note_on,0,0,1,,,,,,,,,0,,,72,0
8950,note_on,0,0,1,,,,,,,,,0,,,75,0
8950,note_on,10,0,1,,,,,,,,,0,,,77,0
8960,note_on,0,0,1,,,,,,,,,0,,,74,100
8960,note_on,10,0,1,,,,,,,,,0,,,70,100
8970,note_on,0,0,1,,,,,,,,,0,,,70,0
8970,note_on,10,0,1,,,,,,,,,0,,,74,0
8980,note_on,0,0,1,,,,,,,,,0,,,69,100
8980,note_on,10,0,1,,,,,,,,,0,,,72,100
8990,note_on,0,0,1,,,,,,,,,0,,,72,0
8990,note_on,10,0,1,,,,,,,,,0,,,69,0
9000,note_on,10,0,1,,,,,,,,,0,,,58,60
9015,note_on,15,0,1,,,,,,,,,0,,,58,0
9015,note_on,0,0,1,,,,,,,,,0,,,65,60
9030,note_on,0,0,1,,,,,,,,,0,,,74,60
9030,note_on,15,0,1,,,,,,,,,0,,,65,0
9045,note_on,15,0,1,,,,,,,,,0,,,74,0
9045,note_on,0,0,1,,,,,,,,,0,,,82,60
9060,note_on,0,0,1,,,,,,,,,0,,,82,60
9060,note_on,15,0,1,,,,,,,,,0,,,82,0
9075,note_on,0,0,1,,,,,,,,,0,,,74,60
9075,note_on,15,0,1,,,,,,,,,0,,,82,0
9090,note_on,0,0,1,,,,,,,,,0,,,65,60
9090,note_on,15,0,1,,,,,,,,,0,,,74,0
9105,note_on,15,0,1,,,,,,,,,0,,,65,0
9105,note_on,0,0,1,,,,,,,,,0,,,58,60
9120,note_on,15,0,1,,,,,,,,,0,,,58,0
9120,note_on,0,0,1,,,,,,,,,0,,,58,60
9135,note_on,15,0,1,,,,,,,,,0,,,58,0
9135,note_on,0,0,1,,,,,,,,,0,,,65,60
9150,note_on,15,0,1,,,,,,,,,0,,,65,0
9150,note_on,0,0,1,,,,,,,,,0,,,73,60
9165,note_on,15,0,1,,,,,,,,,0,,,73,0
9165,note_on,0,0,1,,,,,,,,,0,,,82,60
9180,note_on,15,0,1,,,,,,,,,0,,,82,0
9180,note_on,0,0,1,,,,,,,,,0,,,82,60
9195,note_on,15,0,1,,,,,,,,,0,,,82,0
9195,note_on,0,0,1,,,,,,,,,0,,,73,60
9210,note_on,15,0,1,,,,,,,,,0,,,73,0
9210,note_on,0,0,1,,,,,,,,,0,,,65,60
9225,note_on,15,0,1,,,,,,,,,0,,,65,0
9225,note_on,0,0,1,,,,,,,,,0,,,58,60
9240,note_on,15,0,1,,,,,,,,,0,,,58,0
9240,note_on,0,0,1,,,,,,,,,0,,,58,60
9255,note_on,0,0,1,,,,,,,,,0,,,66,60
9255,note_on,15,0,1,,,,,,,,,0,,,58,0
9270,note_on,15,0,1,,,,,,,,,0,,,66,0
9270,note_on,0,0,1,,,,,,,,,0,,,73,60
9285,note_on,0,0,1,,,,,,,,,0,,,82,60
9285,note_on,15,0,1,,,,,,,,,0,,,73,0
9300,note_on,15,0,1,,,,,,,,,0,,,82,0
9300,note_on,0,0,1,,,,,,,,,0,,,82,60
9315,note_on,0,0,1,,,,,,,,,0,,,73,60
9315,note_on,15,0,1,,,,,,,,,0,,,82,0
9330,note_on,0,0,1,,,,,,,,,0,,,66,60
9330,note_on,15,0,1,,,,,,,,,0,,,73,0
9345,note_on,0,0,1,,,,,,,,,0,,,58,60
9345,note_on,15,0,1,,,,,,,,,0,,,66,0
9360,note_on,0,0,1,,,,,,,,,0,,,58,60
9360,note_on,15,0,1,,,,,,,,,0,,,58,0
9375,note_on,0,0,1,,,,,,,,,0,,,66,60
9375,note_on,15,0,1,,,,,,,,,0,,,58,0
9390,note_on,15,0,1,,,,,,,,,0,,,66,0
9390,note_on,0,0,1,,,,,,,,,0,,,76,61
9405,note_on,0,0,1,,,,,,,,,0,,,85,61
9405,note_on,15,0,1,,,,,,,,,0,,,76,0
9420,note_on,0,0,1,,,,,,,,,0,,,85,62
9420,note_on,15,0,1,,,,,,,,,0,,,85,0
9435,note_on,15,0,1,,,,,,,,,0,,,85,0
9435,note_on,0,0,1,,,,,,,,,0,,,76,62
9450,note_on,15,0,1,,,,,,,,,0,,,76,0
9450,note_on,0,0,1,,,,,,,,,0,,,66,63
9465,note_on,15,0,1,,,,,,,,,0,,,66,0
9465,note_on,0,0,1,,,,,,,,,0,,,58,64
9480,note_on,15,0,1,,,,,,,,,0,,,58,0
9480,set_tempo,5760,1,0,,,,,,833449,,,,,,,
9480,note_on,0,0,1,,,,,,,,,0,,,59,64
9495,note_on,15,0,1,,,,,,,,,0,,,59,0
9495,note_on,0,0,1,,,,,,,,,0,,,66,65
9501,set_tempo,21,1,0,,,,,,836937,,,,,,,
9510,note_on,15,0,1,,,,,,,,,0,,,66,0
9510,note_on,0,0,1,,,,,,,,,0,,,75,65
9518,set_tempo,17,1,0,,,,,,840454,,,,,,,
9525,note_on,0,0,1,,,,,,,,,0,,,83,66
9525,note_on,15,0,1,,,,,,,,,0,,,75,0
9535,set_tempo,17,1,0,,,,,,844001,,,,,,,
9540,note_on,15,0,1,,,,,,,,,0,,,83,0
9540,note_on,0,0,1,,,,,,,,,0,,,83,67
9552,set_tempo,17,1,0,,,,,,847577,,,,,,,
9555,note_on,15,0,1,,,,,,,,,0,,,83,0
9555,note_on,0,0,1,,,,,,,,,0,,,75,67
9570,note_on,15,0,1,,,,,,,,,0,,,75,0
9570,note_on,0,0,1,,,,,,,,,0,,,66,68
9574,set_tempo,22,1,0,,,,,,851185,,,,,,,
9585,note_on,0,0,1,,,,,,,,,0,,,59,68
9585,note_on,15,0,1,,,,,,,,,0,,,66,0
9591,set_tempo,17,1,0,,,,,,854823,,,,,,,
9600,note_on,0,0,1,,,,,,,,,0,,,59,69
9600,note_on,15,0,1,,,,,,,,,0,,,59,0
9608,set_tempo,17,1,0,,,,,,858492,,,,,,,
9615,note_on,0,0,1,,,,,,,,,0,,,66,70
9615,note_on,15,0,1,,,,,,,,,0,,,59,0
9625,set_tempo,17,1,0,,,,,,862193,,,,,,,
9630,note_on,0,0,1,,,,,,,,,0,,,74,70
9630,note_on,15,0,1,,,,,,,,,0,,,66,0
9642,set_tempo,17,1,0,,,,,,865926,,,,,,,
9645,note_on,0,0,1,,,,,,,,,0,,,83,71
9645,note_on,15,0,1,,,,,,,,,0,,,74,0
9660,note_on,0,0,1,,,,,,,,,0,,,83,71
9660,note_on,15,0,1,,,,,,,,,0,,,83,0
9664,set_tempo,22,1,0,,,,,,869691,,,,,,,
9675,note_on,15,0,1,,,,,,,,,0,,,83,0
9675,note_on,0,0,1,,,,,,,,,0,,,74,72
9681,set_tempo,17,1,0,,,,,,873490,,,,,,,
9690,note_on,0,0,1,,,,,,,,,0,,,66,73
9690,note_on,15,0,1,,,,,,,,,0,,,74,0
9698,set_tempo,17,1,0,,,,,,877321,,,,,,,
9705,note_on,0,0,1,,,,,,,,,0,,,59,73
9705,note_on,15,0,1,,,,,,,,,0,,,66,0
9715,set_tempo,17,1,0,,,,,,881187,,,,,,,
9720,note_on,15,0,1,,,,,,,,,0,,,59,0
9720,note_on,0,0,1,,,,,,,,,0,,,59,74
9732,set_tempo,17,1,0,,,,,,885086,,,,,,,
9735,note_on,15,0,1,,,,,,,,,0,,,59,0
9735,note_on,0,0,1,,,,,,,,,0,,,67,74
9750,note_on,0,0,1,,,,,,,,,0,,,74,75
9750,note_on,15,0,1,,,,,,,,,0,,,67,0
9754,set_tempo,22,1,0,,,,,,889021,,,,,,,
9765,note_on,15,0,1,,,,,,,,,0,,,74,0
9765,note_on,0,0,1,,,,,,,,,0,,,83,76
9771,set_tempo,17,1,0,,,,,,892990,,,,,,,
9780,note_on,15,0,1,,,,,,,,,0,,,83,0
9780,note_on,0,0,1,,,,,,,,,0,,,83,76
9788,set_tempo,17,1,0,,,,,,896995,,,,,,,
9795,note_on,0,0,1,,,,,,,,,0,,,74,77
9795,note_on,15,0,1,,,,,,,,,0,,,83,0
9805,set_tempo,17,1,0,,,,,,901036,,,,,,,
9810,note_on,15,0,1,,,,,,,,,0,,,74,0
9810,note_on,0,0,1,,,,,,,,,0,,,67,77
9822,set_tempo,17,1,0,,,,,,905114,,,,,,,
9825,note_on,0,0,1,,,,,,,,,0,,,59,78
9825,note_on,15,0,1,,,,,,,,,0,,,67,0
9840,note_on,15,0,1,,,,,,,,,0,,,59,0
9840,note_on,0,0,1,,,,,,,,,0,,,59,79
9844,set_tempo,22,1,0,,,,,,909229,,,,,,,
9855,note_on,15,0,1,,,,,,,,,0,,,59,0
9855,note_on,0,0,1,,,,,,,,,0,,,67,79
9861,set_tempo,17,1,0,,,,,,913381,,,,,,,
9870,note_on,0,0,1,,,,,,,,,0,,,77,80
9870,note_on,15,0,1,,,,,,,,,0,,,67,0
9878,set_tempo,17,1,0,,,,,,917571,,,,,,,
9885,note_on,0,0,1,,,,,,,,,0,,,86,80
9885,note_on,15,0,1,,,,,,,,,0,,,77,0
9895,set_tempo,17,1,0,,,,,,921801,,,,,,,
9900,note_on,15,0,1,,,,,,,,,0,,,86,0
9900,note_on,0,0,1,,,,,,,,,0,,,86,81
9912,set_tempo,17,1,0,,,,,,926069,,,,,,,
9915,note_on,0,0,1,,,,,,,,,0,,,77,82
9915,note_on,15,0,1,,,,,,,,,0,,,86,0
9930,note_on,0,0,1,,,,,,,,,0,,,67,82
9930,note_on,15,0,1,,,,,,,,,0,,,77,0
9934,set_tempo,22,1,0,,,,,,930377,,,,,,,
9945,note_on,0,0,1,,,,,,,,,0,,,59,83
9945,note_on,15,0,1,,,,,,,,,0,,,67,0
9951,set_tempo,17,1,0,,,,,,934725,,,,,,,
9960,note_on,0,0,1,,,,,,,,,0,,,60,83
9960,note_on,15,0,1,,,,,,,,,0,,,59,0
9968,set_tempo,17,1,0,,,,,,939114,,,,,,,
9975,note_on,0,0,1,,,,,,,,,0,,,67,84
9975,note_on,15,0,1,,,,,,,,,0,,,60,0
9985,set_tempo,17,1,0,,,,,,943545,,,,,,,
9990,note_on,0,0,1,,,,,,,,,0,,,76,85
9990,note_on,15,0,1,,,,,,,,,0,,,67,0
10005,note_on,15,0,1,,,,,,,,,0,,,76,0
10005,note_on,0,0,1,,,,,,,,,0,,,84,85
10007,set_tempo,22,1,0,,,,,,948017,,,,,,,
10020,note_on,0,0,1,,,,,,,,,0,,,84,86
10020,note_on,15,0,1,,,,,,,,,0,,,84,0
10024,set_tempo,17,1,0,,,,,,952532,,,,,,,
10035,note_on,0,0,1,,,,,,,,,0,,,76,86
10035,note_on,15,0,1,,,,,,,,,0,,,84,0
10041,set_tempo,17,1,0,,,,,,957090,,,,,,,
10050,note_on,15,0,1,,,,,,,,,0,,,76,0
10050,note_on,0,0,1,,,,,,,,,0,,,67,87
10058,set_tempo,17,1,0,,,,,,961693,,,,,,,
10065,note_on,0,0,1,,,,,,,,,0,,,60,88
10065,note_on,15,0,1,,,,,,,,,0,,,67,0
10075,set_tempo,17,1,0,,,,,,966339,,,,,,,
10080,note_on,0,0,1,,,,,,,,,0,,,60,88
10080,note_on,15,0,1,,,,,,,,,0,,,60,0
10095,note_on,0,0,1,,,,,,,,,0,,,67,89
10095,note_on,15,0,1,,,,,,,,,0,,,60,0
10097,set_tempo,22,1,0,,,,,,971031,,,,,,,
10110,note_on,0,0,1,,,,,,,,,0,,,75,89
10110,note_on,15,0,1,,,,,,,,,0,,,67,0
10114,set_tempo,17,1,0,,,,,,975768,,,,,,,
10125,note_on,0,0,1,,,,,,,,,0,,,84,90
10125,note_on,15,0,1,,,,,,,,,0,,,75,0
10131,set_tempo,17,1,0,,,,,,980552,,,,,,,
10140,note_on,0,0,1,,,,,,,,,0,,,84,91
10140,note_on,15,0,1,,,,,,,,,0,,,84,0
10148,set_tempo,17,1,0,,,,,,985383,,,,,,,
10155,note_on,15,0,1,,,,,,,,,0,,,84,0
10155,note_on,0,0,1,,,,,,,,,0,,,75,91
10165,set_tempo,17,1,0,,,,,,990262,,,,,,,
10170,note_on,15,0,1,,,,,,,,,0,,,75,0
10170,note_on,0,0,1,,,,,,,,,0,,,67,92
10185,note_on,15,0,1,,,,,,,,,0,,,67,0
10185,note_on,0,0,1,,,,,,,,,0,,,60,92
10187,set_tempo,22,1,0,,,,,,995190,,,,,,,
10200,note_on,15,0,1,,,,,,,,,0,,,60,0
10200,note_on,0,0,1,,,,,,,,,0,,,60,93
10204,set_tempo,17,1,0,,,,,,1000167,,,,,,,
10215,note_on,15,0,1,,,,,,,,,0,,,60,0
10215,note_on,0,0,1,,,,,,,,,0,,,68,94
10221,set_tempo,17,1,0,,,,,,1005193,,,,,,,
10230,note_on,0,0,1,,,,,,,,,0,,,75,94
10230,note_on,15,0,1,,,,,,,,,0,,,68,0
10238,set_tempo,17,1,0,,,,,,1010271,,,,,,,
10245,note_on,0,0,1,,,,,,,,,0,,,84,95
10245,note_on,15,0,1,,,,,,,,,0,,,75,0
10255,set_tempo,17,1,0,,,,,,1015400,,,,,,,
10260,note_on,15,0,1,,,,,,,,,0,,,84,0
10260,note_on,0,0,1,,,,,,,,,0,,,84,95
10275,note_on,15,0,1,,,,,,,,,0,,,84,0
10275,note_on,0,0,1,,,,,,,,,0,,,75,96
10277,set_tempo,22,1,0,,,,,,1020582,,,,,,,
10290,note_on,0,0,1,,,,,,,,,0,,,68,97
10290,note_on,15,0,1,,,,,,,,,0,,,75,0
10294,set_tempo,17,1,0,,,,,,1025816,,,,,,,
10305,note_on,15,0,1,,,,,,,,,0,,,68,0
10305,note_on,0,0,1,,,,,,,,,0,,,60,97
10311,set_tempo,17,1,0,,,,,,1031105,,,,,,,
10320,note_on,0,0,1,,,,,,,,,0,,,60,98
10320,note_on,15,0,1,,,,,,,,,0,,,60,0
10328,set_tempo,17,1,0,,,,,,1036448,,,,,,,
10335,note_on,0,0,1,,,,,,,,,0,,,68,98
10335,note_on,15,0,1,,,,,,,,,0,,,60,0
10345,set_tempo,17,1,0,,,,,,1041848,,,,,,,
10350,note_on,0,0,1,,,,,,,,,0,,,80,99
10350,note_on,15,0,1,,,,,,,,,0,,,68,0
10365,note_on,0,0,1,,,,,,,,,0,,,87,100
10365,note_on,15,0,1,,,,,,,,,0,,,80,0
10367,set_tempo,22,1,0,,,,,,1047303,,,,,,,
10380,note_on,15,0,1,,,,,,,,,0,,,87,0
10380,note_on,0,0,1,,,,,,,,,0,,,87,100
10384,set_tempo,17,1,0,,,,,,1052816,,,,,,,
10395,note_on,15,0,1,,,,,,,,,0,,,87,0
10395,note_on,0,0,1,,,,,,,,,0,,,80,100
10401,set_tempo,17,1,0,,,,,,1058388,,,,,,,
10410,note_on,0,0,1,,,,,,,,,0,,,68,100
10410,note_on,15,0,1,,,,,,,,,0,,,80,0
10418,set_tempo,17,1,0,,,,,,1064018,,,,,,,
10425,note_on,15,0,1,,,,,,,,,0,,,68,0
10425,note_on,0,0,1,,,,,,,,,0,,,60,100
10435,set_tempo,17,1,0,,,,,,1069709,,,,,,,
10440,note_on,15,0,1,,,,,,,,,0,,,60,0
10440,set_tempo,5,1,0,,,,,,1071429,,,,,,,
10560,note_on,120,0,1,,,,,,,,,0,,,61,60
10560,set_tempo,120,1,0,,,,,,833333,,,,,,,
10575,note_on,15,0,1,,,,,,,,,0,,,61,0
10575,note_on,0,0,1,,,,,,,,,0,,,65,60
10590,note_on,0,0,1,,,,,,,,,0,,,68,60
10590,note_on,15,0,1,,,,,,,,,0,,,65,0
10605,note_on,15,0,1,,,,,,,,,0,,,68,0
10605,note_on,0,0,1,,,,,,,,,0,,,73,60
10605,note_on,0,0,1,,,,,,,,,0,,,77,60
10620,note_on,15,0,1,,,,,,,,,0,,,73,0
10620,note_on,0,0,1,,,,,,,,,0,,,77,0
10620,note_on,0,0,1,,,,,,,,,0,,,73,60
10620,note_on,0,0,1,,,,,,,,,0,,,77,60
10635,note_on,15,0,1,,,,,,,,,0,,,77,0
10635,note_on,0,0,1,,,,,,,,,0,,,73,0
10635,note_on,0,0,1,,,,,,,,,0,,,68,60
10650,note_on,0,0,1,,,,,,,,,0,,,65,60
10650,note_on,15,0,1,,,,,,,,,0,,,68,0
10665,note_on,0,0,1,,,,,,,,,0,,,61,60
10665,note_on,15,0,1,,,,,,,,,0,,,65,0
10680,note_on,0,0,1,,,,,,,,,0,,,60,60
10680,note_on,15,0,1,,,,,,,,,0,,,61,0
10695,note_on,15,0,1,,,,,,,,,0,,,60,0
10695,note_on,0,0,1,,,,,,,,,0,,,63,60
10710,note_on,15,0,1,,,,,,,,,0,,,63,0
10710,note_on,0,0,1,,,,,,,,,0,,,68,60
10725,note_on,0,0,1,,,,,,,,,0,,,78,60
10725,note_on,15,0,1,,,,,,,,,0,,,68,0
10725,note_on,0,0,1,,,,,,,,,0,,,75,60
10740,note_on,0,0,1,,,,,,,,,0,,,78,0
10740,note_on,0,0,1,,,,,,,,,0,,,78,60
10740,note_on,15,0,1,,,,,,,,,0,,,75,0
10740,note_on,0,0,1,,,,,,,,,0,,,75,60
10755,note_on,0,0,1,,,,,,,,,0,,,75,0
10755,note_on,0,0,1,,,,,,,,,0,,,68,60
10755,note_on,15,0,1,,,,,,,,,0,,,78,0
10770,note_on,0,0,1,,,,,,,,,0,,,63,60
10770,note_on,15,0,1,,,,,,,,,0,,,68,0
10785,note_on,15,0,1,,,,,,,,,0,,,63,0
10785,note_on,0,0,1,,,,,,,,,0,,,60,60
10800,note_on,0,0,1,,,,,,,,,0,,,61,60
10800,note_on,15,0,1,,,,,,,,,0,,,60,0
10815,note_on,0,0,1,,,,,,,,,0,,,65,60
10815,note_on,15,0,1,,,,,,,,,0,,,61,0
10830,note_on,0,0,1,,,,,,,,,0,,,68,60
10830,note_on,15,0,1,,,,,,,,,0,,,65,0
10845,note_on,0,0,1,,,,,,,,,0,,,77,60
10845,note_on,15,0,1,,,,,,,,,0,,,68,0
10845,note_on,0,0,1,,,,,,,,,0,,,73,60
10860,note_on,0,0,1,,,,,,,,,0,,,77,0
10860,note_on,0,0,1,,,,,,,,,0,,,77,60
10860,note_on,0,0,1,,,,,,,,,0,,,73,60
10860,note_on,15,0,1,,,,,,,,,0,,,73,0
10875,note_on,15,0,1,,,,,,,,,0,,,77,0
10875,note_on,0,0,1,,,,,,,,,0,,,68,60
10875,note_on,0,0,1,,,,,,,,,0,,,73,0
10890,note_on,0,0,1,,,,,,,,,0,,,65,60
10890,note_on,15,0,1,,,,,,,,,0,,,68,0
10905,note_on,15,0,1,,,,,,,,,0,,,65,0
10905,note_on,0,0,1,,,,,,,,,0,,,61,60
10920,note_on,0,0,1,,,,,,,,,0,,,56,60
10920,note_on,15,0,1,,,,,,,,,0,,,61,0
10935,note_on,15,0,1,,,,,,,,,0,,,56,0
10935,note_on,0,0,1,,,,,,,,,0,,,63,60
10950,note_on,15,0,1,,,,,,,,,0,,,63,0
10950,note_on,0,0,1,,,,,,,,,0,,,68,60
10965,note_on,0,0,1,,,,,,,,,0,,,80,60
10965,note_on,0,0,1,,,,,,,,,0,,,72,60
10965,note_on,15,0,1,,,,,,,,,0,,,68,0
10980,note_on,0,0,1,,,,,,,,,0,,,80,60
10980,note_on,0,0,1,,,,,,,,,0,,,80,0
10980,note_on,0,0,1,,,,,,,,,0,,,72,60
10980,note_on,15,0,1,,,,,,,,,0,,,72,0
10995,note_on,15,0,1,,,,,,,,,0,,,80,0
10995,note_on,0,0,1,,,,,,,,,0,,,72,0
10995,note_on,0,0,1,,,,,,,,,0,,,68,60
11010,note_on,0,0,1,,,,,,,,,0,,,63,60
11010,note_on,15,0,1,,,,,,,,,0,,,68,0
11025,note_on,0,0,1,,,,,,,,,0,,,56,60
11025,note_on,15,0,1,,,,,,,,,0,,,63,0
11040,note_on,15,0,1,,,,,,,,,0,,,56,0
11040,note_on,0,0,1,,,,,,,,,0,,,61,60
11055,note_on,15,0,1,,,,,,,,,0,,,61,0
11055,note_on,0,0,1,,,,,,,,,0,,,64,60
11070,note_on,0,0,1,,,,,,,,,0,,,68,60
11070,note_on,15,0,1,,,,,,,,,0,,,64,0
11085,note_on,15,0,1,,,,,,,,,0,,,68,0
11085,note_on,0,0,1,,,,,,,,,0,,,76,60
11085,note_on,0,0,1,,,,,,,,,0,,,73,60
11100,note_on,0,0,1,,,,,,,,,0,,,73,60
11100,note_on,0,0,1,,,,,,,,,0,,,76,0
11100,note_on,15,0,1,,,,,,,,,0,,,73,0
11100,note_on,0,0,1,,,,,,,,,0,,,76,60
11115,note_on,0,0,1,,,,,,,,,0,,,73,0
11115,note_on,0,0,1,,,,,,,,,0,,,68,60
11115,note_on,15,0,1,,,,,,,,,0,,,76,0
11130,note_on,0,0,1,,,,,,,,,0,,,64,60
11130,note_on,15,0,1,,,,,,,,,0,,,68,0
11145,note_on,15,0,1,,,,,,,,,0,,,64,0
11145,note_on,0,0,1,,,,,,,,,0,,,61,60
11160,note_on,15,0,1,,,,,,,,,0,,,61,0
11160,note_on,0,0,1,,,,,,,,,0,,,60,60
11175,note_on,15,0,1,,,,,,,,,0,,,60,0
11175,note_on,0,0,1,,,,,,,,,0,,,63,60
11190,note_on,15,0,1,,,,,,,,,0,,,63,0
11190,note_on,0,0,1,,,,,,,,,0,,,68,60
11205,note_on,15,0,1,,,,,,,,,0,,,68,0
11205,note_on,0,0,1,,,,,,,,,0,,,75,60
11205,note_on,0,0,1,,,,,,,,,0,,,78,60
11220,note_on,15,0,1,,,,,,,,,0,,,75,0
11220,note_on,0,0,1,,,,,,,,,0,,,78,60
11220,note_on,0,0,1,,,,,,,,,0,,,78,0
11220,note_on,0,0,1,,,,,,,,,0,,,75,60
11235,note_on,0,0,1,,,,,,,,,0,,,75,0
11235,note_on,0,0,1,,,,,,,,,0,,,68,60
11235,note_on,15,0,1,,,,,,,,,0,,,78,0
11250,note_on,0,0,1,,,,,,,,,0,,,63,60
11250,note_on,15,0,1,,,,,,,,,0,,,68,0
11265,note_on,15,0,1,,,,,,,,,0,,,63,0
11265,note_on,0,0,1,,,,,,,,,0,,,60,60
11280,note_on,0,0,1,,,,,,,,,0,,,61,60
11280,note_on,15,0,1,,,,,,,,,0,,,60,0
11295,note_on,0,0,1,,,,,,,,,0,,,64,60
11295,note_on,15,0,1,,,,,,,,,0,,,61,0
11310,note_on,15,0,1,,,,,,,,,0,,,64,0
11310,note_on,0,0,1,,,,,,,,,0,,,68,60
11325,note_on,0,0,1,,,,,,,,,0,,,73,60
11325,note_on,0,0,1,,,,,,,,,0,,,76,60
11325,note_on,15,0,1,,,,,,,,,0,,,68,0
11340,note_on,15,0,1,,,,,,,,,0,,,73,0
11340,note_on,0,0,1,,,,,,,,,0,,,76,0
11340,note_on,0,0,1,,,,,,,,,0,,,73,60
11340,note_on,0,0,1,,,,,,,,,0,,,76,60
11355,note_on,0,0,1,,,,,,,,,0,,,73,0
11355,note_on,0,0,1,,,,,,,,,0,,,68,60
11355,note_on,15,0,1,,,,,,,,,0,,,76,0
11370,note_on,0,0,1,,,,,,,,,0,,,64,60
11370,note_on,15,0,1,,,,,,,,,0,,,68,0
11385,note_on,0,0,1,,,,,,,,,0,,,61,60
11385,note_on,15,0,1,,,,,,,,,0,,,64,0
11400,note_on,15,0,1,,,,,,,,,0,,,61,0
11400,note_on,0,0,1,,,,,,,,,0,,,56,60
11415,note_on,15,0,1,,,,,,,,,0,,,56,0
11415,note_on,0,0,1,,,,,,,,,0,,,63,60
11430,note_on,15,0,1,,,,,,,,,0,,,63,0
11430,note_on,0,0,1,,,,,,,,,0,,,68,60
11445,note_on,0,0,1,,,,,,,,,0,,,72,60
11445,note_on,0,0,1,,,,,,,,,0,,,80,60
11445,note_on,15,0,1,,,,,,,,,0,,,68,0
11460,note_on,0,0,1,,,,,,,,,0,,,72,60
11460,note_on,0,0,1,,,,,,,,,0,,,80,60
11460,note_on,0,0,1,,,,,,,,,0,,,80,0
11460,note_on,15,0,1,,,,,,,,,0,,,72,0
11475,note_on,0,0,1,,,,,,,,,0,,,68,60
11475,note_on,0,0,1,,,,,,,,,0,,,80,0
11475,note_on,15,0,1,,,,,,,,,0,,,72,0
11490,note_on,15,0,1,,,,,,,,,0,,,68,0
11490,note_on,0,0,1,,,,,,,,,0,,,63,60
11505,note_on,0,0,1,,,,,,,,,0,,,56,60
11505,note_on,15,0,1,,,,,,,,,0,,,63,0
11520,note_on,0,0,1,,,,,,,,,0,,,61,60
11520,note_on,15,0,1,,,,,,,,,0,,,56,0
11535,note_on,0,0,1,,,,,,,,,0,,,64,60
11535,note_on,15,0,1,,,,,,,,,0,,,61,0
11550,note_on,0,0,1,,,,,,,,,0,,,68,60
11550,note_on,15,0,1,,,,,,,,,0,,,64,0
11565,note_on,0,0,1,,,,,,,,,0,,,76,60
11565,note_on,0,0,1,,,,,,,,,0,,,73,60
11565,note_on,15,0,1,,,,,,,,,0,,,68,0
11580,note_on,15,0,1,,,,,,,,,0,,,73,0
11580,note_on,0,0,1,,,,,,,,,0,,,76,0
11580,note_on,0,0,1,,,,,,,,,0,,,76,60
11580,note_on,0,0,1,,,,,,,,,0,,,73,60
11595,note_on,15,0,1,,,,,,,,,0,,,76,0
11595,note_on,0,0,1,,,,,,,,,0,,,73,0
11595,note_on,0,0,1,,,,,,,,,0,,,68,60
11610,note_on,15,0,1,,,,,,,,,0,,,68,0
11610,note_on,0,0,1,,,,,,,,,0,,,64,60
11625,note_on,0,0,1,,,,,,,,,0,,,61,60
11625,note_on,15,0,1,,,,,,,,,0,,,64,0
11640,note_on,15,0,1,,,,,,,,,0,,,61,0
11640,note_on,0,0,1,,,,,,,,,0,,,59,60
11655,note_on,15,0,1,,,,,,,,,0,,,59,0
11655,note_on,0,0,1,,,,,,,,,0,,,64,61
11670,note_on,0,0,1,,,,,,,,,0,,,68,63
11670,note_on,15,0,1,,,,,,,,,0,,,64,0
11685,note_on,0,0,1,,,,,,,,,0,,,74,65
11685,note_on,0,0,1,,,,,,,,,0,,,76,65
11685,note_on,15,0,1,,,,,,,,,0,,,68,0
11700,note_on,0,0,1,,,,,,,,,0,,,74,67
11700,note_on,0,0,1,,,,,,,,,0,,,76,67
11700,note_on,0,0,1,,,,,,,,,0,,,74,0
11700,note_on,15,0,1,,,,,,,,,0,,,76,0
11715,note_on,0,0,1,,,,,,,,,0,,,68,69
11715,note_on,15,0,1,,,,,,,,,0,,,76,0
11715,note_on,0,0,1,,,,,,,,,0,,,74,0
11730,note_on,0,0,1,,,,,,,,,0,,,64,71
11730,note_on,15,0,1,,,,,,,,,0,,,68,0
11745,note_on,15,0,1,,,,,,,,,0,,,64,0
11745,note_on,0,0,1,,,,,,,,,0,,,59,73
11760,note_on,15,0,1,,,,,,,,,0,,,59,0
11760,note_on,0,0,1,,,,,,,,,0,,,57,74
11775,note_on,15,0,1,,,,,,,,,0,,,57,0
11775,note_on,0,0,1,,,,,,,,,0,,,64,76
11790,note_on,15,0,1,,,,,,,,,0,,,64,0
11790,note_on,0,0,1,,,,,,,,,0,,,69,78
11805,note_on,15,0,1,,,,,,,,,0,,,69,0
11805,note_on,0,0,1,,,,,,,,,0,,,73,80
11805,note_on,0,0,1,,,,,,,,,0,,,81,80
11820,note_on,15,0,1,,,,,,,,,0,,,73,0
11820,note_on,0,0,1,,,,,,,,,0,,,81,0
11820,note_on,0,0,1,,,,,,,,,0,,,81,82
11820,note_on,0,0,1,,,,,,,,,0,,,73,82
11835,note_on,0,0,1,,,,,,,,,0,,,69,84
11835,note_on,15,0,1,,,,,,,,,0,,,81,0
11835,note_on,0,0,1,,,,,,,,,0,,,73,0
11850,note_on,0,0,1,,,,,,,,,0,,,64,86
11850,note_on,15,0,1,,,,,,,,,0,,,69,0
11865,note_on,0,0,1,,,,,,,,,0,,,57,88
11865,note_on,15,0,1,,,,,,,,,0,,,64,0
11880,note_on,0,0,1,,,,,,,,,0,,,58,89
11880,note_on,15,0,1,,,,,,,,,0,,,57,0
11895,note_on,0,0,1,,,,,,,,,0,,,67,91
11895,note_on,15,0,1,,,,,,,,,0,,,58,0
11910,note_on,15,0,1,,,,,,,,,0,,,67,0
11910,note_on,0,0,1,,,,,,,,,0,,,73,93
11925,note_on,0,0,1,,,,,,,,,0,,,76,95
11925,note_on,0,0,1,,,,,,,,,0,,,85,95
11925,note_on,15,0,1,,,,,,,,,0,,,73,0
11940,note_on,15,0,1,,,,,,,,,0,,,76,0
11940,note_on,0,0,1,,,,,,,,,0,,,76,97
11940,note_on,0,0,1,,,,,,,,,0,,,85,0
11940,note_on,0,0,1,,,,,,,,,0,,,85,97
11955,note_on,15,0,1,,,,,,,,,0,,,85,0
11955,note_on,0,0,1,,,,,,,,,0,,,73,99
11955,note_on,0,0,1,,,,,,,,,0,,,76,0
11970,note_on,15,0,1,,,,,,,,,0,,,73,0
11970,note_on,0,0,1,,,,,,,,,0,,,67,100
11985,note_on,15,0,1,,,,,,,,,0,,,67,0
11985,note_on,0,0,1,,,,,,,,,0,,,58,100
12000,note_on,15,0,1,,,,,,,,,0,,,58,0
12000,note_on,0,0,1,,,,,,,,,0,,,59,100
12015,note_on,15,0,1,,,,,,,,,0,,,59,0
12030,note_on,0,0,1,,,,,,,,,0,,,75,100
12030,note_on,0,0,1,,,,,,,,,0,,,71,100
12030,note_on,0,0,1,,,,,,,,,0,,,66,100
12030,note_on,0,0,1,,,,,,,,,0,,,63,100
12030,note_on,15,0,1,,,,,,,,,0,,,83,100
12045,note_on,0,0,1,,,,,,,,,0,,,71,0
12045,note_on,0,0,1,,,,,,,,,0,,,83,0
12045,note_on,0,0,1,,,,,,,,,0,,,75,0
12045,note_on,0,0,1,,,,,,,,,0,,,66,0
12045,note_on,15,0,1,,,,,,,,,0,,,63,0
12060,note_on,15,0,1,,,,,,,,,0,,,57,100
12075,note_on,15,0,1,,,,,,,,,0,,,57,0
12090,note_on,0,0,1,,,,,,,,,0,,,63,100
12090,note_on,0,0,1,,,,,,,,,0,,,66,100
12090,note_on,15,0,1,,,,,,,,,0,,,83,100
12090,note_on,0,0,1,,,,,,,,,0,,,71,100
12090,note_on,0,0,1,,,,,,,,,0,,,75,100
12090,note_on,0,0,1,,,,,,,,,0,,,78,100
12105,note_on,0,0,1,,,,,,,,,0,,,75,0
12105,note_on,0,0,1,,,,,,,,,0,,,83,0
12105,note_on,0,0,1,,,,,,,,,0,,,66,0
12105,note_on,0,0,1,,,,,,,,,0,,,71,0
12105,note_on,0,0,1,,,,,,,,,0,,,78,0
12105,note_on,15,0,1,,,,,,,,,0,,,63,0
12120,note_on,15,0,1,,,,,,,,,0,,,56,100
12135,note_on,15,0,1,,,,,,,,,0,,,56,0
12150,note_on,0,0,1,,,,,,,,,0,,,68,100
12150,note_on,0,0,1,,,,,,,,,0,,,76,100
12150,note_on,0,0,1,,,,,,,,,0,,,59,100
12150,note_on,0,0,1,,,,,,,,,0,,,64,100
12150,note_on,0,0,1,,,,,,,,,0,,,71,100
12150,note_on,15,0,1,,,,,,,,,0,,,80,100
12165,note_on,15,0,1,,,,,,,,,0,,,59,0
12165,note_on,0,0,1,,,,,,,,,0,,,76,0
12165,note_on,0,0,1,,,,,,,,,0,,,68,0
12165,note_on,0,0,1,,,,,,,,,0,,,80,0
12165,note_on,0,0,1,,,,,,,,,0,,,71,0
12165,note_on,0,0,1,,,,,,,,,0,,,64,0
12180,note_on,15,0,1,,,,,,,,,0,,,57,100
12195,note_on,15,0,1,,,,,,,,,0,,,57,0
12210,note_on,0,0,1,,,,,,,,,0,,,76,100
12210,note_on,0,0,1,,,,,,,,,0,,,73,100
12210,note_on,0,0,1,,,,,,,,,0,,,69,100
12210,note_on,0,0,1,,,,,,,,,0,,,64,100
12210,note_on,0,0,1,,,,,,,,,0,,,61,100
12210,note_on,15,0,1,,,,,,,,,0,,,81,100
12225,note_on,0,0,1,,,,,,,,,0,,,64,0
12225,note_on,15,0,1,,,,,,,,,0,,,61,0
12225,note_on,0,0,1,,,,,,,,,0,,,69,0
12225,note_on,0,0,1,,,,,,,,,0,,,81,0
12225,note_on,0,0,1,,,,,,,,,0,,,73,0
12225,note_on,0,0,1,,,,,,,,,0,,,76,0
12240,note_on,15,0,1,,,,,,,,,0,,,59,100
12255,note_on,15,0,1,,,,,,,,,0,,,59,0
12270,note_on,0,0,1,,,,,,,,,0,,,76,100
12270,note_on,15,0,1,,,,,,,,,0,,,83,100
12270,note_on,0,0,1,,,,,,,,,0,,,71,100
12270,note_on,0,0,1,,,,,,,,,0,,,64,100
12270,note_on,0,0,1,,,,,,,,,0,,,68,100
12270,note_on,0,0,1,,,,,,,,,0,,,80,100
12285,note_on,0,0,1,,,,,,,,,0,,,76,0
12285,note_on,0,0,1,,,,,,,,,0,,,80,0
12285,note_on,15,0,1,,,,,,,,,0,,,64,0
12285,note_on,0,0,1,,,,,,,,,0,,,83,0
12285,note_on,0,0,1,,,,,,,,,0,,,68,0
12285,note_on,0,0,1,,,,,,,,,0,,,71,0
12300,note_on,15,0,1,,,,,,,,,0,,,59,100
12315,note_on,15,0,1,,,,,,,,,0,,,59,0
12330,note_on,0,0,1,,,,,,,,,0,,,63,100
12330,note_on,0,0,1,,,,,,,,,0,,,66,100
12330,note_on,0,0,1,,,,,,,,,0,,,71,100
12330,note_on,0,0,1,,,,,,,,,0,,,75,100
12330,note_on,0,0,1,,,,,,,,,0,,,78,100
12330,note_on,15,0,1,,,,,,,,,0,,,83,100
12345,note_on,0,0,1,,,,,,,,,0,,,83,0
12345,note_on,0,0,1,,,,,,,,,0,,,71,0
12345,note_on,0,0,1,,,,,,,,,0,,,78,0
12345,note_on,15,0,1,,,,,,,,,0,,,63,0
12345,note_on,0,0,1,,,,,,,,,0,,,66,0
12345,note_on,0,0,1,,,,,,,,,0,,,75,0
12360,key_signature,1800,1,0,,,,,E,,,,,,,,
12360,note_on,15,0,1,,,,,,,,,0,,,64,120
12360,marker,0,1,0,,,,,,,,,,,,,
12420,note_on,0,0,1,,,,,,,,,0,,,68,100
12420,note_on,60,0,1,,,,,,,,,0,,,64,0
12420,note_on,0,0,1,,,,,,,,,0,,,88,100
12420,note_on,0,0,1,,,,,,,,,0,,,83,100
12420,note_on,0,0,1,,,,,,,,,0,,,76,100
12420,note_on,0,0,1,,,,,,,,,0,,,71,100
12420,note_on,0,0,1,,,,,,,,,0,,,80,100
12450,note_on,0,0,1,,,,,,,,,0,,,76,0
12450,note_on,0,0,1,,,,,,,,,0,,,71,0
12450,note_on,0,0,1,,,,,,,,,0,,,88,0
12450,note_on,0,0,1,,,,,,,,,0,,,80,0
12450,note_on,0,0,1,,,,,,,,,0,,,83,0
12450,note_on,30,0,1,,,,,,,,,0,,,68,0
12480,note_on,30,0,1,,,,,,,,,0,,,64,60
12495,note_on,0,0,1,,,,,,,,,0,,,68,60
12495,note_on,15,0,1,,,,,,,,,0,,,64,0
12510,note_on,0,0,1,,,,,,,,,0,,,71,60
12510,note_on,15,0,1,,,,,,,,,0,,,68,0
12525,note_on,15,0,1,,,,,,,,,0,,,71,0
12525,note_on,0,0,1,,,,,,,,,0,,,76,60
12540,note_on,0,0,1,,,,,,,,,0,,,76,60
12540,note_on,15,0,1,,,,,,,,,0,,,76,0
12555,note_on,15,0,1,,,,,,,,,0,,,76,0
12555,note_on,0,0,1,,,,,,,,,0,,,71,60
12570,note_on,0,0,1,,,,,,,,,0,,,68,60
12570,note_on,15,0,1,,,,,,,,,0,,,71,0
12585,note_on,0,0,1,,,,,,,,,0,,,64,60
12585,note_on,15,0,1,,,,,,,,,0,,,68,0
12600,note_on,15,0,1,,,,,,,,,0,,,64,0
12600,note_on,0,0,1,,,,,,,,,0,,,64,60
12615,note_on,0,0,1,,,,,,,,,0,,,69,60
12615,note_on,15,0,1,,,,,,,,,0,,,64,0
12630,note_on,15,0,1,,,,,,,,,0,,,69,0
12630,note_on,0,0,1,,,,,,,,,0,,,72,60
12645,note_on,15,0,1,,,,,,,,,0,,,72,0
12645,note_on,0,0,1,,,,,,,,,0,,,76,60
12660,note_on,15,0,1,,,,,,,,,0,,,76,0
12660,note_on,0,0,1,,,,,,,,,0,,,76,60
12675,note_on,0,0,1,,,,,,,,,0,,,72,60
12675,note_on,15,0,1,,,,,,,,,0,,,76,0
12690,note_on,0,0,1,,,,,,,,,0,,,69,60
12690,note_on,15,0,1,,,,,,,,,0,,,72,0
12705,note_on,0,0,1,,,,,,,,,0,,,64,60
12705,note_on,15,0,1,,,,,,,,,0,,,69,0
12720,note_on,15,0,1,,,,,,,,,0,,,64,0
12720,note_on,0,0,1,,,,,,,,,0,,,64,60
12735,note_on,15,0,1,,,,,,,,,0,,,64,0
12735,note_on,0,0,1,,,,,,,,,0,,,67,60
12750,note_on,15,0,1,,,,,,,,,0,,,67,0
12750,note_on,0,0,1,,,,,,,,,0,,,70,60
12765,note_on,0,0,1,,,,,,,,,0,,,76,60
12765,note_on,15,0,1,,,,,,,,,0,,,70,0
12780,note_on,0,0,1,,,,,,,,,0,,,76,60
12780,note_on,15,0,1,,,,,,,,,0,,,76,0
12795,note_on,0,0,1,,,,,,,,,0,,,70,60
12795,note_on,15,0,1,,,,,,,,,0,,,76,0
12810,note_on,0,0,1,,,,,,,,,0,,,67,60
12810,note_on,15,0,1,,,,,,,,,0,,,70,0
12825,note_on,15,0,1,,,,,,,,,0,,,67,0
12825,note_on,0,0,1,,,,,,,,,0,,,64,60
12840,note_on,0,0,1,,,,,,,,,0,,,64,60
12840,note_on,15,0,1,,,,,,,,,0,,,64,0
12855,note_on,15,0,1,,,,,,,,,0,,,64,0
12855,note_on,0,0,1,,,,,,,,,0,,,68,60
12870,note_on,15,0,1,,,,,,,,,0,,,68,0
12870,note_on,0,0,1,,,,,,,,,0,,,71,60
12885,note_on,0,0,1,,,,,,,,,0,,,76,60
12885,note_on,15,0,1,,,,,,,,,0,,,71,0
12900,note_on,15,0,1,,,,,,,,,0,,,76,0
12900,note_on,0,0,1,,,,,,,,,0,,,83,60
12900,note_on,0,0,1,,,,,,,,,0,,,80,60
12900,note_on,0,0,1,,,,,,,,,0,,,64,70
12910,note_on,10,0,1,,,,,,,,,0,,,64,0
12910,note_on,0,0,1,,,,,,,,,0,,,80,0
12910,note_on,0,0,1,,,,,,,,,0,,,83,0
12920,note_on,10,0,1,,,,,,,,,0,,,81,60
12920,note_on,0,0,1,,,,,,,,,0,,,78,60
12920,note_on,0,0,1,,,,,,,,,0,,,66,70
12930,note_on,10,0,1,,,,,,,,,0,,,66,0
12930,note_on,0,0,1,,,,,,,,,0,,,81,0
12930,note_on,0,0,1,,,,,,,,,0,,,78,0
12940,note_on,0,0,1,,,,,,,,,0,,,80,60
12940,note_on,10,0,1,,,,,,,,,0,,,76,60
12940,note_on,0,0,1,,,,,,,,,0,,,68,70
12950,note_on,10,0,1,,,,,,,,,0,,,68,0
12950,note_on,0,0,1,,,,,,,,,0,,,76,0
12950,note_on,0,0,1,,,,,,,,,0,,,80,0
12960,note_on,0,0,1,,,,,,,,,0,,,81,60
12960,note_on,0,0,1,,,,,,,,,0,,,69,70
12960,note_on,10,0,1,,,,,,,,,0,,,85,60
12970,note_on,10,0,1,,,,,,,,,0,,,69,0
12970,note_on,0,0,1,,,,,,,,,0,,,81,0
12970,note_on,0,0,1,,,,,,,,,0,,,85,0
12980,note_on,0,0,1,,,,,,,,,0,,,80,60
12980,note_on,10,0,1,,,,,,,,,0,,,83,60
12990,note_on,0,0,1,,,,,,,,,0,,,83,0
12990,note_on,10,0,1,,,,,,,,,0,,,80,0
13000,note_on,0,0,1,,,,,,,,,0,,,81,60
13000,note_on,10,0,1,,,,,,,,,0,,,78,60
13010,note_on,0,0,1,,,,,,,,,0,,,78,0
13010,note_on,10,0,1,,,,,,,,,0,,,81,0
13020,note_on,0,0,1,,,,,,,,,0,,,76,60
13020,note_on,0,0,1,,,,,,,,,0,,,57,70
13020,note_on,10,0,1,,,,,,,,,0,,,80,60
13030,note_on,0,0,1,,,,,,,,,0,,,80,0
13030,note_on,10,0,1,,,,,,,,,0,,,76,0
13035,note_on,5,0,1,,,,,,,,,0,,,57,0
13040,note_on,0,0,1,,,,,,,,,0,,,75,60
13040,note_on,5,0,1,,,,,,,,,0,,,78,60
13050,note_on,0,0,1,,,,,,,,,0,,,78,0
13050,note_on,0,0,1,,,,,,,,,0,,,58,70
13050,note_on,10,0,1,,,,,,,,,0,,,75,0
13060,note_on,0,0,1,,,,,,,,,0,,,76,60
13060,note_on,10,0,1,,,,,,,,,0,,,73,60
13065,note_on,5,0,1,,,,,,,,,0,,,58,0
13070,note_on,5,0,1,,,,,,,,,0,,,76,0
13070,note_on,0,0,1,,,,,,,,,0,,,73,0
13080,note_on,10,0,1,,,,,,,,,0,,,59,60
13095,note_on,15,0,1,,,,,,,,,0,,,59,0
13095,note_on,0,0,1,,,,,,,,,0,,,68,60
13110,note_on,0,0,1,,,,,,,,,0,,,76,60
13110,note_on,15,0,1,,,,,,,,,0,,,68,0
13125,note_on,0,0,1,,,,,,,,,0,,,83,60
13125,note_on,15,0,1,,,,,,,,,0,,,76,0
13140,note_on,15,0,1,,,,,,,,,0,,,83,0
13140,note_on,0,0,1,,,,,,,,,0,,,83,60
13155,note_on,15,0,1,,,,,,,,,0,,,83,0
13155,note_on,0,0,1,,,,,,,,,0,,,76,60
13170,note_on,15,0,1,,,,,,,,,0,,,76,0
13170,note_on,0,0,1,,,,,,,,,0,,,68,60
13185,note_on,0,0,1,,,,,,,,,0,,,59,60
13185,note_on,15,0,1,,,,,,,,,0,,,68,0
13200,note_on,0,0,1,,,,,,,,,0,,,59,60
13200,note_on,15,0,1,,,,,,,,,0,,,59,0
13215,note_on,15,0,1,,,,,,,,,0,,,59,0
13215,note_on,0,0,1,,,,,,,,,0,,,66,60
13230,note_on,0,0,1,,,,,,,,,0,,,75,60
13230,note_on,15,0,1,,,,,,,,,0,,,66,0
13245,note_on,15,0,1,,,,,,,,,0,,,75,0
13245,note_on,0,0,1,,,,,,,,,0,,,83,60
13260,note_on,15,0,1,,,,,,,,,0,,,83,0
13260,note_on,0,0,1,,,,,,,,,0,,,83,60
13275,note_on,15,0,1,,,,,,,,,0,,,83,0
13275,note_on,0,0,1,,,,,,,,,0,,,75,60
13290,note_on,15,0,1,,,,,,,,,0,,,75,0
13290,note_on,0,0,1,,,,,,,,,0,,,66,60
13305,note_on,0,0,1,,,,,,,,,0,,,59,60
13305,note_on,15,0,1,,,,,,,,,0,,,66,0
13320,note_on,15,0,1,,,,,,,,,0,,,59,0
13320,note_on,0,0,1,,,,,,,,,0,,,64,60
13335,note_on,15,0,1,,,,,,,,,0,,,64,0
13335,note_on,0,0,1,,,,,,,,,0,,,68,60
13350,note_on,0,0,1,,,,,,,,,0,,,76,60
13350,note_on,15,0,1,,,,,,,,,0,,,68,0
13365,note_on,15,0,1,,,,,,,,,0,,,76,0
13365,note_on,0,0,1,,,,,,,,,0,,,83,60
13380,note_on,15,0,1,,,,,,,,,0,,,83,0
13380,note_on,0,0,1,,,,,,,,,0,,,92,60
13395,note_on,15,0,1,,,,,,,,,0,,,92,0
13410,note_on,15,0,1,,,,,,,,,0,,,88,60
13425,note_on,15,0,1,,,,,,,,,0,,,88,0
13440,note_on,15,0,1,,,,,,,,,0,,,64,60
13455,note_on,0,0,1,,,,,,,,,0,,,71,60
13455,note_on,0,0,1,,,,,,,,,0,,,68,60
13455,note_on,15,0,1,,,,,,,,,0,,,64,0
13470,note_on,15,0,1,,,,,,,,,0,,,68,0
13470,note_on,0,0,1,,,,,,,,,0,,,76,60
13470,note_on,0,0,1,,,,,,,,,0,,,71,0
13485,note_on,0,0,1,,,,,,,,,0,,,80,60
13485,note_on,0,0,1,,,,,,,,,0,,,88,60
13485,note_on,15,0,1,,,,,,,,,0,,,76,0
13500,note_on,0,0,1,,,,,,,,,0,,,80,60
13500,note_on,0,0,1,,,,,,,,,0,,,88,60
13500,note_on,0,0,1,,,,,,,,,0,,,88,0
13500,note_on,15,0,1,,,,,,,,,0,,,80,0
13515,note_on,0,0,1,,,,,,,,,0,,,76,60
13515,note_on,15,0,1,,,,,,,,,0,,,88,0
13515,note_on,0,0,1,,,,,,,,,0,,,80,0
13530,note_on,15,0,1,,,,,,,,,0,,,76,0
13530,note_on,0,0,1,,,,,,,,,0,,,68,60
13530,note_on,0,0,1,,,,,,,,,0,,,71,60
13545,note_on,0,0,1,,,,,,,,,0,,,64,60
13545,note_on,15,0,1,,,,,,,,,0,,,71,0
13545,note_on,0,0,1,,,,,,,,,0,,,68,0
13560,note_on,0,0,1,,,,,,,,,0,,,64,60
13560,note_on,15,0,1,,,,,,,,,0,,,64,0
13575,note_on,0,0,1,,,,,,,,,0,,,69,60
13575,note_on,15,0,1,,,,,,,,,0,,,64,0
13575,note_on,0,0,1,,,,,,,,,0,,,72,60
13590,note_on,0,0,1,,,,,,,,,0,,,72,0
13590,note_on,0,0,1,,,,,,,,,0,,,76,60
13590,note_on,15,0,1,,,,,,,,,0,,,69,0
13605,note_on,15,0,1,,,,,,,,,0,,,76,0
13605,note_on,0,0,1,,,,,,,,,0,,,81,60
13605,note_on,0,0,1,,,,,,,,,0,,,88,60
13620,note_on,0,0,1,,,,,,,,,0,,,88,0
13620,note_on,0,0,1,,,,,,,,,0,,,81,60
13620,note_on,0,0,1,,,,,,,,,0,,,88,60
13620,note_on,15,0,1,,,,,,,,,0,,,81,0
13635,note_on,0,0,1,,,,,,,,,0,,,81,0
13635,note_on,0,0,1,,,,,,,,,0,,,76,60
13635,note_on,15,0,1,,,,,,,,,0,,,88,0
13650,note_on,15,0,1,,,,,,,,,0,,,76,0
13650,note_on,0,0,1,,,,,,,,,0,,,72,60
13650,note_on,0,0,1,,,,,,,,,0,,,69,60
13665,note_on,0,0,1,,,,,,,,,0,,,69,0
13665,note_on,0,0,1,,,,,,,,,0,,,64,60
13665,note_on,15,0,1,,,,,,,,,0,,,72,0
13680,note_on,0,0,1,,,,,,,,,0,,,64,60
13680,note_on,15,0,1,,,,,,,,,0,,,64,0
13695,note_on,0,0,1,,,,,,,,,0,,,67,60
13695,note_on,0,0,1,,,,,,,,,0,,,70,60
13695,note_on,15,0,1,,,,,,,,,0,,,64,0
13710,note_on,0,0,1,,,,,,,,,0,,,76,60
13710,note_on,0,0,1,,,,,,,,,0,,,70,0
13710,note_on,15,0,1,,,,,,,,,0,,,67,0
13725,note_on,0,0,1,,,,,,,,,0,,,79,60
13725,note_on,0,0,1,,,,,,,,,0,,,88,60
13725,note_on,15,0,1,,,,,,,,,0,,,76,0
13740,note_on,0,0,1,,,,,,,,,0,,,88,60
13740,note_on,0,0,1,,,,,,,,,0,,,79,60
13740,note_on,0,0,1,,,,,,,,,0,,,88,0
13740,note_on,15,0,1,,,,,,,,,0,,,79,0
13755,note_on,0,0,1,,,,,,,,,0,,,76,60
13755,note_on,0,0,1,,,,,,,,,0,,,79,0
13755,note_on,15,0,1,,,,,,,,,0,,,88,0
13770,note_on,0,0,1,,,,,,,,,0,,,70,60
13770,note_on,0,0,1,,,,,,,,,0,,,67,60
13770,note_on,15,0,1,,,,,,,,,0,,,76,0
13785,note_on,15,0,1,,,,,,,,,0,,,70,0
13785,note_on,0,0,1,,,,,,,,,0,,,64,60
13785,note_on,0,0,1,,,,,,,,,0,,,67,0
13800,note_on,0,0,1,,,,,,,,,0,,,64,60
13800,note_on,15,0,1,,,,,,,,,0,,,64,0
13815,note_on,0,0,1,,,,,,,,,0,,,71,60
13815,note_on,0,0,1,,,,,,,,,0,,,68,60
13815,note_on,15,0,1,,,,,,,,,0,,,64,0
13830,note_on,0,0,1,,,,,,,,,0,,,71,0
13830,note_on,0,0,1,,,,,,,,,0,,,76,60
13830,note_on,15,0,1,,,,,,,,,0,,,68,0
13845,note_on,15,0,1,,,,,,,,,0,,,76,0
13845,note_on,0,0,1,,,,,,,,,0,,,88,60
13845,note_on,0,0,1,,,,,,,,,0,,,80,60
13860,note_on,15,0,1,,,,,,,,,0,,,80,0
13860,note_on,0,0,1,,,,,,,,,0,,,88,0
13860,note_on,0,0,1,,,,,,,,,0,,,68,60
13860,note_on,0,0,1,,,,,,,,,0,,,64,60
13870,note_on,10,0,1,,,,,,,,,0,,,64,0
13870,note_on,0,0,1,,,,,,,,,0,,,68,0
13880,note_on,10,0,1,,,,,,,,,0,,,69,60
13880,note_on,0,0,1,,,,,,,,,0,,,66,60
13880,note_on,0,0,1,,,,,,,,,0,,,63,70
13890,note_on,0,0,1,,,,,,,,,0,,,69,0
13890,note_on,0,0,1,,,,,,,,,0,,,66,0
13890,note_on,10,0,1,,,,,,,,,0,,,63,0
13900,note_on,10,0,1,,,,,,,,,0,,,68,60
13900,note_on,0,0,1,,,,,,,,,0,,,62,70
13900,note_on,0,0,1,,,,,,,,,0,,,71,60
13910,note_on,0,0,1,,,,,,,,,0,,,68,0
13910,note_on,0,0,1,,,,,,,,,0,,,71,0
13910,note_on,10,0,1,,,,,,,,,0,,,62,0
13920,note_on,0,0,1,,,,,,,,,0,,,61,70
13920,note_on,0,0,1,,,,,,,,,0,,,69,60
13920,note_on,10,0,1,,,,,,,,,0,,,73,60
13930,note_on,0,0,1,,,,,,,,,0,,,73,0
13930,note_on,0,0,1,,,,,,,,,0,,,69,0
13930,note_on,10,0,1,,,,,,,,,0,,,61,0
13940,note_on,0,0,1,,,,,,,,,0,,,71,60
13940,note_on,10,0,1,,,,,,,,,0,,,75,60
13950,note_on,10,0,1,,,,,,,,,0,,,71,0
13950,note_on,0,0,1,,,,,,,,,0,,,75,0
13960,note_on,10,0,1,,,,,,,,,0,,,73,60
13960,note_on,0,0,1,,,,,,,,,0,,,76,60
13970,note_on,10,0,1,,,,,,,,,0,,,76,0
13970,note_on,0,0,1,,,,,,,,,0,,,73,0
13980,note_on,10,0,1,,,,,,,,,0,,,78,60
13980,note_on,0,0,1,,,,,,,,,0,,,57,70
13980,note_on,0,0,1,,,,,,,,,0,,,75,60
13990,note_on,10,0,1,,,,,,,,,0,,,57,0
13990,note_on,0,0,1,,,,,,,,,0,,,78,0
13990,note_on,0,0,1,,,,,,,,,0,,,75,0
14000,note_on,0,0,1,,,,,,,,,0,,,76,60
14000,note_on,10,0,1,,,,,,,,,0,,,80,60
14010,note_on,10,0,1,,,,,,,,,0,,,76,0
14010,note_on,0,0,1,,,,,,,,,0,,,80,0
14020,note_on,0,0,1,,,,,,,,,0,,,81,60
14020,note_on,10,0,1,,,,,,,,,0,,,78,60
14030,note_on,10,0,1,,,,,,,,,0,,,81,0
14030,note_on,0,0,1,,,,,,,,,0,,,78,0
14040,note_on,10,0,1,,,,,,,,,0,,,59,60
14055,note_on,0,0,1,,,,,,,,,0,,,71,60
14055,note_on,0,0,1,,,,,,,,,0,,,68,60
14055,note_on,15,0,1,,,,,,,,,0,,,59,0
14070,note_on,0,0,1,,,,,,,,,0,,,71,0
14070,note_on,0,0,1,,,,,,,,,0,,,76,60
14070,note_on,15,0,1,,,,,,,,,0,,,68,0
14085,note_on,0,0,1,,,,,,,,,0,,,88,60
14085,note_on,0,0,1,,,,,,,,,0,,,80,60
14085,note_on,15,0,1,,,,,,,,,0,,,76,0
14100,note_on,0,0,1,,,,,,,,,0,,,88,60
14100,note_on,0,0,1,,,,,,,,,0,,,80,60
14100,note_on,0,0,1,,,,,,,,,0,,,88,0
14100,note_on,15,0,1,,,,,,,,,0,,,80,0
14115,note_on,0,0,1,,,,,,,,,0,,,80,0
14115,note_on,15,0,1,,,,,,,,,0,,,88,0
14115,note_on,0,0,1,,,,,,,,,0,,,76,60
14130,note_on,0,0,1,,,,,,,,,0,,,68,60
14130,note_on,0,0,1,,,,,,,,,0,,,71,60
14130,note_on,15,0,1,,,,,,,,,0,,,76,0
14145,note_on,0,0,1,,,,,,,,,0,,,59,60
14145,note_on,0,0,1,,,,,,,,,0,,,68,0
14145,note_on,15,0,1,,,,,,,,,0,,,71,0
14160,note_on,15,0,1,,,,,,,,,0,,,59,0
14160,note_on,0,0,1,,,,,,,,,0,,,59,60
14175,note_on,0,0,1,,,,,,,,,0,,,71,60
14175,note_on,0,0,1,,,,,,,,,0,,,66,60
14175,note_on,15,0,1,,,,,,,,,0,,,59,0
14190,note_on,0,0,1,,,,,,,,,0,,,71,0
14190,note_on,0,0,1,,,,,,,,,0,,,75,60
14190,note_on,15,0,1,,,,,,,,,0,,,66,0
14205,note_on,0,0,1,,,,,,,,,0,,,87,60
14205,note_on,0,0,1,,,,,,,,,0,,,78,60
14205,note_on,15,0,1,,,,,,,,,0,,,75,0
14220,note_on,0,0,1,,,,,,,,,0,,,87,60
14220,note_on,15,0,1,,,,,,,,,0,,,78,0
14220,note_on,0,0,1,,,,,,,,,0,,,78,60
14220,note_on,0,0,1,,,,,,,,,0,,,87,0
14235,note_on,15,0,1,,,,,,,,,0,,,87,0
14235,note_on,0,0,1,,,,,,,,,0,,,78,0
14235,note_on,0,0,1,,,,,,,,,0,,,75,60
14250,note_on,0,0,1,,,,,,,,,0,,,71,60
14250,note_on,0,0,1,,,,,,,,,0,,,66,60
14250,note_on,15,0,1,,,,,,,,,0,,,75,0
14265,note_on,15,0,1,,,,,,,,,0,,,71,0
14265,note_on,0,0,1,,,,,,,,,0,,,59,60
14265,note_on,0,0,1,,,,,,,,,0,,,66,0
14280,note_on,0,0,1,,,,,,,,,0,,,64,60
14280,note_on,15,0,1,,,,,,,,,0,,,59,0
14295,note_on,15,0,1,,,,,,,,,0,,,64,0
14295,note_on,0,0,1,,,,,,,,,0,,,68,60
14295,note_on,0,0,1,,,,,,,,,0,,,71,60
14295,note_on,0,0,1,,,,,,,,,0,,,76,60
14310,note_on,0,0,1,,,,,,,,,0,,,80,60
14310,note_on,0,0,1,,,,,,,,,0,,,76,0
14310,note_on,0,0,1,,,,,,,,,0,,,71,0
14310,note_on,15,0,1,,,,,,,,,0,,,68,0
14325,note_on,15,0,1,,,,,,,,,0,,,80,0
14325,note_on,0,0,1,,,,,,,,,0,,,83,60
14325,note_on,0,0,1,,,,,,,,,0,,,88,60
14340,note_on,15,0,1,,,,,,,,,0,,,83,0
14340,note_on,0,0,1,,,,,,,,,0,,,88,0
14340,note_on,0,0,1,,,,,,,,,0,,,92,60
14355,note_on,0,0,1,,,,,,,,,0,,,80,60
14355,note_on,15,0,1,,,,,,,,,0,,,92,0
14370,note_on,0,0,1,,,,,,,,,0,,,68,60
14370,note_on,0,0,1,,,,,,,,,0,,,76,60
14370,note_on,0,0,1,,,,,,,,,0,,,71,60
14370,note_on,15,0,1,,,,,,,,,0,,,80,0
14385,note_on,0,0,1,,,,,,,,,0,,,64,60
14385,note_on,0,0,1,,,,,,,,,0,,,68,0
14385,note_on,0,0,1,,,,,,,,,0,,,71,0
14385,note_on,15,0,1,,,,,,,,,0,,,76,0
14400,note_on,0,0,1,,,,,,,,,0,,,64,60
14400,note_on,15,0,1,,,,,,,,,0,,,64,0
14415,note_on,15,0,1,,,,,,,,,0,,,64,0
14415,note_on,0,0,1,,,,,,,,,0,,,72,60
14415,note_on,0,0,1,,,,,,,,,0,,,76,60
14415,note_on,0,0,1,,,,,,,,,0,,,69,60
14430,note_on,15,0,1,,,,,,,,,0,,,69,0
14430,note_on,0,0,1,,,,,,,,,0,,,72,0
14430,note_on,0,0,1,,,,,,,,,0,,,76,0
14430,note_on,0,0,1,,,,,,,,,0,,,81,60
14445,note_on,15,0,1,,,,,,,,,0,,,81,0
14445,note_on,0,0,1,,,,,,,,,0,,,87,60
14445,note_on,0,0,1,,,,,,,,,0,,,85,60
14460,note_on,0,0,1,,,,,,,,,0,,,87,0
14460,note_on,0,0,1,,,,,,,,,0,,,93,60
14460,note_on,15,0,1,,,,,,,,,0,,,85,0
14475,note_on,0,0,1,,,,,,,,,0,,,81,60
14475,note_on,15,0,1,,,,,,,,,0,,,93,0
14490,note_on,15,0,1,,,,,,,,,0,,,81,0
14490,note_on,0,0,1,,,,,,,,,0,,,76,60
14490,note_on,0,0,1,,,,,,,,,0,,,72,60
14490,note_on,0,0,1,,,,,,,,,0,,,69,60
14505,note_on,0,0,1,,,,,,,,,0,,,69,0
14505,note_on,0,0,1,,,,,,,,,0,,,64,60
14505,note_on,15,0,1,,,,,,,,,0,,,76,0
14505,note_on,0,0,1,,,,,,,,,0,,,72,0
14520,note_on,0,0,1,,,,,,,,,0,,,64,60
14520,note_on,15,0,1,,,,,,,,,0,,,64,0
14535,note_on,0,0,1,,,,,,,,,0,,,71,61
14535,note_on,15,0,1,,,,,,,,,0,,,64,0
14535,note_on,0,0,1,,,,,,,,,0,,,68,61
14535,note_on,0,0,1,,,,,,,,,0,,,76,61
14550,note_on,15,0,1,,,,,,,,,0,,,68,0
14550,note_on,0,0,1,,,,,,,,,0,,,80,62
14550,note_on,0,0,1,,,,,,,,,0,,,76,0
14550,note_on,0,0,1,,,,,,,,,0,,,71,0
14565,note_on,0,0,1,,,,,,,,,0,,,83,64
14565,note_on,15,0,1,,,,,,,,,0,,,80,0
14565,note_on,0,0,1,,,,,,,,,0,,,88,64
14580,note_on,0,0,1,,,,,,,,,0,,,88,0
14580,note_on,0,0,1,,,,,,,,,0,,,92,65
14580,note_on,15,0,1,,,,,,,,,0,,,83,0
14595,note_on,15,0,1,,,,,,,,,0,,,92,0
14595,note_on,0,0,1,,,,,,,,,0,,,80,67
14610,note_on,0,0,1,,,,,,,,,0,,,71,68
14610,note_on,0,0,1,,,,,,,,,0,,,76,68
14610,note_on,0,0,1,,,,,,,,,0,,,68,68
14610,note_on,15,0,1,,,,,,,,,0,,,80,0
14625,note_on,15,0,1,,,,,,,,,0,,,76,0
14625,note_on,0,0,1,,,,,,,,,0,,,68,0
14625,note_on,0,0,1,,,,,,,,,0,,,64,70
14625,note_on,0,0,1,,,,,,,,,0,,,71,0
14640,note_on,15,0,1,,,,,,,,,0,,,64,0
14640,note_on,0,0,1,,,,,,,,,0,,,64,71
14655,note_on,15,0,1,,,,,,,,,0,,,64,0
14655,note_on,0,0,1,,,,,,,,,0,,,76,73
14655,note_on,0,0,1,,,,,,,,,0,,,72,73
14655,note_on,0,0,1,,,,,,,,,0,,,69,73
14670,note_on,0,0,1,,,,,,,,,0,,,72,0
14670,note_on,0,0,1,,,,,,,,,0,,,76,0
14670,note_on,0,0,1,,,,,,,,,0,,,81,74
14670,note_on,15,0,1,,,,,,,,,0,,,69,0
14685,note_on,15,0,1,,,,,,,,,0,,,81,0
14685,note_on,0,0,1,,,,,,,,,0,,,88,76
14685,note_on,0,0,1,,,,,,,,,0,,,84,76
14700,note_on,0,0,1,,,,,,,,,0,,,93,77
14700,note_on,15,0,1,,,,,,,,,0,,,84,0
14700,note_on,0,0,1,,,,,,,,,0,,,88,0
14715,note_on,15,0,1,,,,,,,,,0,,,93,0
14715,note_on,0,0,1,,,,,,,,,0,,,81,79
14730,note_on,0,0,1,,,,,,,,,0,,,69,80
14730,note_on,0,0,1,,,,,,,,,0,,,76,80
14730,note_on,15,0,1,,,,,,,,,0,,,81,0
14730,note_on,0,0,1,,,,,,,,,0,,,72,80
14745,note_on,0,0,1,,,,,,,,,0,,,69,0
14745,note_on,0,0,1,,,,,,,,,0,,,64,82
14745,note_on,15,0,1,,,,,,,,,0,,,76,0
14745,note_on,0,0,1,,,,,,,,,0,,,72,0
14760,note_on,0,0,1,,,,,,,,,0,,,64,83
14760,note_on,15,0,1,,,,,,,,,0,,,64,0
14775,note_on,0,0,1,,,,,,,,,0,,,76,85
14775,note_on,0,0,1,,,,,,,,,0,,,71,85
14775,note_on,0,0,1,,,,,,,,,0,,,68,85
14775,note_on,15,0,1,,,,,,,,,0,,,64,0
14790,note_on,15,0,1,,,,,,,,,0,,,68,0
14790,note_on,0,0,1,,,,,,,,,0,,,71,0
14790,note_on,0,0,1,,,,,,,,,0,,,76,0
14790,note_on,0,0,1,,,,,,,,,0,,,80,86
14805,note_on,15,0,1,,,,,,,,,0,,,80,0
14805,note_on,0,0,1,,,,,,,,,0,,,88,88
14805,note_on,0,0,1,,,,,,,,,0,,,83,88
14820,note_on,0,0,1,,,,,,,,,0,,,92,89
14820,note_on,15,0,1,,,,,,,,,0,,,83,0
14820,note_on,0,0,1,,,,,,,,,0,,,88,0
14835,note_on,15,0,1,,,,,,,,,0,,,92,0
14835,note_on,0,0,1,,,,,,,,,0,,,80,91
14850,note_on,15,0,1,,,,,,,,,0,,,80,0
14850,note_on,0,0,1,,,,,,,,,0,,,71,92
14865,note_on,15,0,1,,,,,,,,,0,,,71,0
14865,note_on,0,0,1,,,,,,,,,0,,,64,94
14865,note_on,0,0,1,,,,,,,,,0,,,68,94
14880,note_on,15,0,1,,,,,,,,,0,,,68,0
14880,note_on,0,0,1,,,,,,,,,0,,,61,95
14880,note_on,0,0,1,,,,,,,,,0,,,64,0
14895,note_on,15,0,1,,,,,,,,,0,,,61,0
14895,note_on,0,0,1,,,,,,,,,0,,,70,97
14895,note_on,0,0,1,,,,,,,,,0,,,67,97
14910,note_on,0,0,1,,,,,,,,,0,,,70,0
14910,note_on,0,0,1,,,,,,,,,0,,,76,98
14910,note_on,15,0,1,,,,,,,,,0,,,67,0
14925,note_on,0,0,1,,,,,,,,,0,,,88,100
14925,note_on,0,0,1,,,,,,,,,0,,,79,100
14925,note_on,15,0,1,,,,,,,,,0,,,76,0
14940,note_on,0,0,1,,,,,,,,,0,,,61,100
14940,note_on,15,0,1,,,,,,,,,0,,,79,0
14940,note_on,0,0,1,,,,,,,,,0,,,88,0
14955,note_on,15,0,1,,,,,,,,,0,,,61,0
14970,note_on,15,0,1,,,,,,,,,0,,,58,100
14985,note_on,15,0,1,,,,,,,,,0,,,58,0
15000,note_on,15,0,1,,,,,,,,,0,,,59,100
15010,note_on,10,0,1,,,,,,,,,0,,,59,0
15020,note_on,0,0,1,,,,,,,,,0,,,80,100
15020,note_on,10,0,1,,,,,,,,,0,,,83,100
15030,note_on,0,0,1,,,,,,,,,0,,,83,0
15030,note_on,10,0,1,,,,,,,,,0,,,80,0
15040,note_on,0,0,1,,,,,,,,,0,,,78,100
15040,note_on,10,0,1,,,,,,,,,0,,,81,100
15050,note_on,0,0,1,,,,,,,,,0,,,81,0
15050,note_on,10,0,1,,,,,,,,,0,,,78,0
15060,note_on,0,0,1,,,,,,,,,0,,,76,100
15060,note_on,0,0,1,,,,,,,,,0,,,68,110
15060,note_on,10,0,1,,,,,,,,,0,,,80,100
15070,note_on,10,0,1,,,,,,,,,0,,,68,0
15070,note_on,0,0,1,,,,,,,,,0,,,80,0
15070,note_on,0,0,1,,,,,,,,,0,,,76,0
15080,note_on,0,0,1,,,,,,,,,0,,,75,100
15080,note_on,0,0,1,,,,,,,,,0,,,69,110
15080,note_on,10,0,1,,,,,,,,,0,,,78,100
15090,note_on,0,0,1,,,,,,,,,0,,,75,0
15090,note_on,0,0,1,,,,,,,,,0,,,78,0
15090,note_on,10,0,1,,,,,,,,,0,,,69,0
15100,note_on,0,0,1,,,,,,,,,0,,,76,100
15100,note_on,0,0,1,,,,,,,,,0,,,70,110
15100,note_on,10,0,1,,,,,,,,,0,,,73,100
15110,note_on,10,0,1,,,,,,,,,0,,,70,0
15110,note_on,0,0,1,,,,,,,,,0,,,76,0
15110,note_on,0,0,1,,,,,,,,,0,,,73,0
15120,note_on,10,0,1,,,,,,,,,0,,,75,110
15120,note_on,0,0,1,,,,,,,,,0,,,71,110
15130,note_on,0,0,1,,,,,,,,,0,,,75,0
15130,note_on,10,0,1,,,,,,,,,0,,,71,0
15140,note_on,0,0,1,,,,,,,,,0,,,69,91
15140,note_on,10,0,1,,,,,,,,,0,,,73,91
15150,note_on,0,0,1,,,,,,,,,0,,,73,0
15150,note_on,10,0,1,,,,,,,,,0,,,69,0
15160,note_on,10,0,1,,,,,,,,,0,,,68,81
15160,note_on,0,0,1,,,,,,,,,0,,,71,81
15170,note_on,10,0,1,,,,,,,,,0,,,71,0
15170,note_on,0,0,1,,,,,,,,,0,,,68,0
15180,note_on,10,0,1,,,,,,,,,0,,,69,71
15180,note_on,0,0,1,,,,,,,,,0,,,66,71
15180,note_on,0,0,1,,,,,,,,,0,,,59,81
15190,note_on,10,0,1,,,,,,,,,0,,,59,0
15190,note_on,0,0,1,,,,,,,,,0,,,66,0
15190,note_on,0,0,1,,,,,,,,,0,,,69,0
15200,note_on,10,0,1,,,,,,,,,0,,,68,61
15200,note_on,0,0,1,,,,,,,,,0,,,64,61
15210,note_on,10,0,1,,,,,,,,,0,,,64,0
15210,note_on,0,0,1,,,,,,,,,0,,,68,0
15220,note_on,10,0,1,,,,,,,,,0,,,63,60
15220,note_on,0,0,1,,,,,,,,,0,,,66,60
15230,note_on,10,0,1,,,,,,,,,0,,,66,0
15230,note_on,0,0,1,,,,,,,,,0,,,63,0
15240,note_on,10,0,1,,,,,,,,,0,,,64,60
15255,note_on,15,0,1,,,,,,,,,0,,,64,0
15255,note_on,0,0,1,,,,,,,,,0,,,68,60
15270,note_on,15,0,1,,,,,,,,,0,,,68,0
15270,note_on,0,0,1,,,,,,,,,0,,,71,60
15285,note_on,15,0,1,,,,,,,,,0,,,71,0
15285,note_on,0,0,1,,,,,,,,,0,,,76,60
15300,note_on,15,0,1,,,,,,,,,0,,,76,0
15300,note_on,0,0,1,,,,,,,,,0,,,80,60
15315,note_on,0,0,1,,,,,,,,,0,,,71,60
15315,note_on,15,0,1,,,,,,,,,0,,,80,0
15330,note_on,15,0,1,,,,,,,,,0,,,71,0
15330,note_on,0,0,1,,,,,,,,,0,,,68,60
15345,note_on,15,0,1,,,,,,,,,0,,,68,0
15345,note_on,0,0,1,,,,,,,,,0,,,64,60
15360,note_on,15,0,1,,,,,,,,,0,,,64,0
15360,note_on,0,0,1,,,,,,,,,0,,,64,60
15375,note_on,0,0,1,,,,,,,,,0,,,69,60
15375,note_on,15,0,1,,,,,,,,,0,,,64,0
15390,note_on,15,0,1,,,,,,,,,0,,,69,0
15390,note_on,0,0,1,,,,,,,,,0,,,72,60
15405,note_on,15,0,1,,,,,,,,,0,,,72,0
15405,note_on,0,0,1,,,,,,,,,0,,,76,60
15420,note_on,15,0,1,,,,,,,,,0,,,76,0
15420,note_on,0,0,1,,,,,,,,,0,,,81,60
15435,note_on,0,0,1,,,,,,,,,0,,,72,60
15435,note_on,15,0,1,,,,,,,,,0,,,81,0
15450,note_on,0,0,1,,,,,,,,,0,,,69,60
15450,note_on,15,0,1,,,,,,,,,0,,,72,0
15465,note_on,0,0,1,,,,,,,,,0,,,64,60
15465,note_on,15,0,1,,,,,,,,,0,,,69,0
15480,note_on,0,0,1,,,,,,,,,0,,,64,60
15480,note_on,15,0,1,,,,,,,,,0,,,64,0
15495,note_on,0,0,1,,,,,,,,,0,,,68,61
15495,note_on,15,0,1,,,,,,,,,0,,,64,0
15510,note_on,0,0,1,,,,,,,,,0,,,71,62
15510,note_on,15,0,1,,,,,,,,,0,,,68,0
15525,note_on,0,0,1,,,,,,,,,0,,,76,64
15525,note_on,15,0,1,,,,,,,,,0,,,71,0
15540,note_on,15,0,1,,,,,,,,,0,,,76,0
15540,note_on,0,0,1,,,,,,,,,0,,,80,65
15555,note_on,15,0,1,,,,,,,,,0,,,80,0
15555,note_on,0,0,1,,,,,,,,,0,,,71,66
15570,note_on,0,0,1,,,,,,,,,0,,,68,68
15570,note_on,15,0,1,,,,,,,,,0,,,71,0
15585,note_on,15,0,1,,,,,,,,,0,,,68,0
15585,note_on,0,0,1,,,,,,,,,0,,,64,69
15600,note_on,0,0,1,,,,,,,,,0,,,64,70
15600,note_on,15,0,1,,,,,,,,,0,,,64,0
15615,note_on,0,0,1,,,,,,,,,0,,,69,72
15615,note_on,15,0,1,,,,,,,,,0,,,64,0
15630,note_on,15,0,1,,,,,,,,,0,,,69,0
15630,note_on,0,0,1,,,,,,,,,0,,,72,73
15645,note_on,0,0,1,,,,,,,,,0,,,76,74
15645,note_on,15,0,1,,,,,,,,,0,,,72,0
15660,note_on,0,0,1,,,,,,,,,0,,,81,76
15660,note_on,15,0,1,,,,,,,,,0,,,76,0
15675,note_on,0,0,1,,,,,,,,,0,,,72,77
15675,note_on,15,0,1,,,,,,,,,0,,,81,0
15690,note_on,15,0,1,,,,,,,,,0,,,72,0
15690,note_on,0,0,1,,,,,,,,,0,,,69,79
15705,note_on,0,0,1,,,,,,,,,0,,,64,80
15705,note_on,15,0,1,,,,,,,,,0,,,69,0
15720,note_on,0,0,1,,,,,,,,,0,,,64,81
15720,note_on,15,0,1,,,,,,,,,0,,,64,0
15735,note_on,15,0,1,,,,,,,,,0,,,64,0
15735,note_on,0,0,1,,,,,,,,,0,,,68,83
15750,note_on,15,0,1,,,,,,,,,0,,,68,0
15750,note_on,0,0,1,,,,,,,,,0,,,71,84
15765,note_on,0,0,1,,,,,,,,,0,,,76,85
15765,note_on,15,0,1,,,,,,,,,0,,,71,0
15780,note_on,15,0,1,,,,,,,,,0,,,76,0
15780,note_on,0,0,1,,,,,,,,,0,,,80,87
15795,note_on,15,0,1,,,,,,,,,0,,,80,0
15795,note_on,0,0,1,,,,,,,,,0,,,71,88
15810,note_on,0,0,1,,,,,,,,,0,,,68,89
15810,note_on,15,0,1,,,,,,,,,0,,,71,0
15825,note_on,0,0,1,,,,,,,,,0,,,64,91
15825,note_on,15,0,1,,,,,,,,,0,,,68,0
15840,note_on,0,0,1,,,,,,,,,0,,,60,92
15840,note_on,15,0,1,,,,,,,,,0,,,64,0
15855,note_on,0,0,1,,,,,,,,,0,,,67,94
15855,note_on,15,0,1,,,,,,,,,0,,,60,0
15870,note_on,15,0,1,,,,,,,,,0,,,67,0
15870,note_on,0,0,1,,,,,,,,,0,,,70,95
15885,note_on,0,0,1,,,,,,,,,0,,,76,96
15885,note_on,15,0,1,,,,,,,,,0,,,70,0
15900,note_on,0,0,1,,,,,,,,,0,,,79,98
15900,note_on,15,0,1,,,,,,,,,0,,,76,0
15915,note_on,15,0,1,,,,,,,,,0,,,79,0
15930,note_on,15,0,1,,,,,,,,,0,,,76,100
15945,note_on,15,0,1,,,,,,,,,0,,,76,0
15960,note_on,15,0,1,,,,,,,,,0,,,59,100
15970,note_on,10,0,1,,,,,,,,,0,,,59,0
15980,note_on,10,0,1,,,,,,,,,0,,,76,100
15980,note_on,0,0,1,,,,,,,,,0,,,71,100
15990,note_on,10,0,1,,,,,,,,,0,,,71,0
15990,note_on,0,0,1,,,,,,,,,0,,,76,0
16000,note_on,0,0,1,,,,,,,,,0,,,71,100
16000,note_on,10,0,1,,,,,,,,,0,,,68,100
16010,note_on,0,0,1,,,,,,,,,0,,,68,0
16010,note_on,10,0,1,,,,,,,,,0,,,71,0
16020,note_on,10,0,1,,,,,,,,,0,,,83,100
16030,note_on,10,0,1,,,,,,,,,0,,,83,0
16040,note_on,0,0,1,,,,,,,,,0,,,63,100
16040,note_on,10,0,1,,,,,,,,,0,,,59,100
16050,note_on,0,0,1,,,,,,,,,0,,,59,0
16050,note_on,10,0,1,,,,,,,,,0,,,63,0
16060,note_on,0,0,1,,,,,,,,,0,,,64,100
16060,note_on,10,0,1,,,,,,,,,0,,,61,100
16070,note_on,0,0,1,,,,,,,,,0,,,61,0
16070,note_on,10,0,1,,,,,,,,,0,,,64,0
16080,note_on,10,0,1,,,,,,,,,0,,,63,100
16080,note_on,0,0,1,,,,,,,,,0,,,66,100
16090,note_on,0,0,1,,,,,,,,,0,,,63,0
16090,note_on,10,0,1,,,,,,,,,0,,,66,0
16100,note_on,10,0,1,,,,,,,,,0,,,59,100
16100,note_on,0,0,1,,,,,,,,,0,,,68,100
16100,note_on,0,0,1,,,,,,,,,0,,,64,100
16110,note_on,0,0,1,,,,,,,,,0,,,64,0
16110,note_on,10,0,1,,,,,,,,,0,,,68,0
16110,note_on,0,0,1,,,,,,,,,0,,,59,0
16120,note_on,0,0,1,,,,,,,,,0,,,69,100
16120,note_on,0,0,1,,,,,,,,,0,,,66,100
16120,note_on,10,0,1,,,,,,,,,0,,,61,100
16130,note_on,0,0,1,,,,,,,,,0,,,69,0
16130,note_on,10,0,1,,,,,,,,,0,,,66,0
16130,note_on,0,0,1,,,,,,,,,0,,,61,0
16140,note_on,0,0,1,,,,,,,,,0,,,68,100
16140,note_on,0,0,1,,,,,,,,,0,,,71,100
16140,note_on,10,0,1,,,,,,,,,0,,,59,100
16140,note_on,0,0,1,,,,,,,,,0,,,63,100
16150,note_on,0,0,1,,,,,,,,,0,,,59,0
16150,note_on,0,0,1,,,,,,,,,0,,,63,0
16150,note_on,0,0,1,,,,,,,,,0,,,71,0
16150,note_on,10,0,1,,,,,,,,,0,,,68,0
16160,note_on,0,0,1,,,,,,,,,0,,,73,100
16160,note_on,0,0,1,,,,,,,,,0,,,69,100
16160,note_on,10,0,1,,,,,,,,,0,,,64,100
16170,note_on,0,0,1,,,,,,,,,0,,,73,0
16170,note_on,0,0,1,,,,,,,,,0,,,64,0
16170,note_on,10,0,1,,,,,,,,,0,,,69,0
16180,note_on,0,0,1,,,,,,,,,0,,,71,100
16180,note_on,0,0,1,,,,,,,,,0,,,75,100
16180,note_on,10,0,1,,,,,,,,,0,,,66,100
16190,note_on,10,0,1,,,,,,,,,0,,,75,0
16190,note_on,0,0,1,,,,,,,,,0,,,71,0
16190,note_on,0,0,1,,,,,,,,,0,,,66,0
16200,note_on,10,0,1,,,,,,,,,0,,,76,100
16200,note_on,0,0,1,,,,,,,,,0,,,64,100
16200,note_on,0,0,1,,,,,,,,,0,,,68,100
16215,note_on,0,0,1,,,,,,,,,0,,,76,0
16215,note_on,0,0,1,,,,,,,,,0,,,80,100
16215,note_on,15,0,1,,,,,,,,,0,,,68,0
16215,note_on,0,0,1,,,,,,,,,0,,,64,0
16230,note_on,0,0,1,,,,,,,,,0,,,83,100
16230,note_on,15,0,1,,,,,,,,,0,,,80,0
16245,note_on,0,0,1,,,,,,,,,0,,,76,100
16245,note_on,15,0,1,,,,,,,,,0,,,83,0
16260,note_on,0,0,1,,,,,,,,,0,,,76,100
16260,note_on,15,0,1,,,,,,,,,0,,,76,0
16275,note_on,0,0,1,,,,,,,,,0,,,83,100
16275,note_on,15,0,1,,,,,,,,,0,,,76,0
16290,note_on,15,0,1,,,,,,,,,0,,,83,0
16290,note_on,0,0,1,,,,,,,,,0,,,80,100
16305,note_on,0,0,1,,,,,,,,,0,,,76,100
16305,note_on,15,0,1,,,,,,,,,0,,,80,0
16320,note_on,15,0,1,,,,,,,,,0,,,76,0
16320,note_on,0,0,1,,,,,,,,,0,,,76,100
16320,note_on,0,0,1,,,,,,,,,0,,,64,100
16335,note_on,15,0,1,,,,,,,,,0,,,76,0
16335,note_on,0,0,1,,,,,,,,,0,,,81,100
16335,note_on,0,0,1,,,,,,,,,0,,,64,0
16350,note_on,15,0,1,,,,,,,,,0,,,81,0
16350,note_on,0,0,1,,,,,,,,,0,,,84,100
16365,note_on,15,0,1,,,,,,,,,0,,,84,0
16365,note_on,0,0,1,,,,,,,,,0,,,76,100
16380,note_on,15,0,1,,,,,,,,,0,,,76,0
16380,note_on,0,0,1,,,,,,,,,0,,,76,100
16395,note_on,0,0,1,,,,,,,,,0,,,84,100
16395,note_on,15,0,1,,,,,,,,,0,,,76,0
16410,note_on,0,0,1,,,,,,,,,0,,,81,100
16410,note_on,15,0,1,,,,,,,,,0,,,84,0
16425,note_on,15,0,1,,,,,,,,,0,,,81,0
16425,note_on,0,0,1,,,,,,,,,0,,,76,100
16440,note_on,0,0,1,,,,,,,,,0,,,76,100
16440,note_on,0,0,1,,,,,,,,,0,,,64,100
16440,note_on,15,0,1,,,,,,,,,0,,,76,0
16455,note_on,15,0,1,,,,,,,,,0,,,64,0
16455,note_on,0,0,1,,,,,,,,,0,,,76,0
16455,note_on,0,0,1,,,,,,,,,0,,,80,100
16470,note_on,15,0,1,,,,,,,,,0,,,80,0
16470,note_on,0,0,1,,,,,,,,,0,,,83,100
16485,note_on,15,0,1,,,,,,,,,0,,,83,0
16485,note_on,0,0,1,,,,,,,,,0,,,76,100
16500,note_on,15,0,1,,,,,,,,,0,,,76,0
16500,note_on,0,0,1,,,,,,,,,0,,,76,100
16515,note_on,15,0,1,,,,,,,,,0,,,76,0
16515,note_on,0,0,1,,,,,,,,,0,,,83,100
16530,note_on,15,0,1,,,,,,,,,0,,,83,0
16530,note_on,0,0,1,,,,,,,,,0,,,80,100
16545,note_on,15,0,1,,,,,,,,,0,,,80,0
16545,note_on,0,0,1,,,,,,,,,0,,,76,100
16560,note_on,0,0,1,,,,,,,,,0,,,64,100
16560,note_on,0,0,1,,,,,,,,,0,,,75,100
16560,note_on,15,0,1,,,,,,,,,0,,,76,0
16575,note_on,0,0,1,,,,,,,,,0,,,64,0
16575,note_on,15,0,1,,,,,,,,,0,,,75,0
16575,note_on,0,0,1,,,,,,,,,0,,,78,100
16590,note_on,0,0,1,,,,,,,,,0,,,83,100
16590,note_on,15,0,1,,,,,,,,,0,,,78,0
16605,note_on,0,0,1,,,,,,,,,0,,,76,100
16605,note_on,15,0,1,,,,,,,,,0,,,83,0
16620,note_on,15,0,1,,,,,,,,,0,,,76,0
16620,note_on,0,0,1,,,,,,,,,0,,,76,100
16635,note_on,15,0,1,,,,,,,,,0,,,76,0
16635,note_on,0,0,1,,,,,,,,,0,,,83,100
16650,note_on,0,0,1,,,,,,,,,0,,,78,100
16650,note_on,15,0,1,,,,,,,,,0,,,83,0
16665,note_on,15,0,1,,,,,,,,,0,,,78,0
16665,note_on,0,0,1,,,,,,,,,0,,,75,100
16680,note_on,0,0,1,,,,,,,,,0,,,64,100
16680,note_on,0,0,1,,,,,,,,,0,,,73,100
16680,note_on,15,0,1,,,,,,,,,0,,,75,0
16695,note_on,0,0,1,,,,,,,,,0,,,64,0
16695,note_on,0,0,1,,,,,,,,,0,,,76,100
16695,note_on,15,0,1,,,,,,,,,0,,,73,0
16710,note_on,0,0,1,,,,,,,,,0,,,81,100
16710,note_on,15,0,1,,,,,,,,,0,,,76,0
16725,note_on,0,0,1,,,,,,,,,0,,,76,100
16725,note_on,15,0,1,,,,,,,,,0,,,81,0
16740,note_on,0,0,1,,,,,,,,,0,,,76,100
16740,note_on,15,0,1,,,,,,,,,0,,,76,0
16755,note_on,0,0,1,,,,,,,,,0,,,81,100
16755,note_on,15,0,1,,,,,,,,,0,,,76,0
16770,note_on,15,0,1,,,,,,,,,0,,,81,0
16770,note_on,0,0,1,,,,,,,,,0,,,76,100
16785,note_on,0,0,1,,,,,,,,,0,,,73,100
16785,note_on,15,0,1,,,,,,,,,0,,,76,0
16800,note_on,15,0,1,,,,,,,,,0,,,73,0
16800,note_on,0,0,1,,,,,,,,,0,,,64,100
16800,note_on,0,0,1,,,,,,,,,0,,,71,100
16815,note_on,15,0,1,,,,,,,,,0,,,71,0
16815,note_on,0,0,1,,,,,,,,,0,,,64,0
16815,note_on,0,0,1,,,,,,,,,0,,,75,100
16830,note_on,15,0,1,,,,,,,,,0,,,75,0
16830,note_on,0,0,1,,,,,,,,,0,,,80,100
16845,note_on,0,0,1,,,,,,,,,0,,,76,100
16845,note_on,15,0,1,,,,,,,,,0,,,80,0
16860,note_on,15,0,1,,,,,,,,,0,,,76,0
16860,note_on,0,0,1,,,,,,,,,0,,,76,100
16875,note_on,0,0,1,,,,,,,,,0,,,80,100
16875,note_on,15,0,1,,,,,,,,,0,,,76,0
16890,note_on,0,0,1,,,,,,,,,0,,,75,100
16890,note_on,15,0,1,,,,,,,,,0,,,80,0
16905,note_on,0,0,1,,,,,,,,,0,,,71,100
16905,note_on,15,0,1,,,,,,,,,0,,,75,0
16920,note_on,0,0,1,,,,,,,,,0,,,69,100
16920,note_on,0,0,1,,,,,,,,,0,,,64,100
16920,note_on,15,0,1,,,,,,,,,0,,,71,0
16935,note_on,0,0,1,,,,,,,,,0,,,73,100
16935,note_on,0,0,1,,,,,,,,,0,,,64,0
16935,note_on,15,0,1,,,,,,,,,0,,,69,0
16950,note_on,0,0,1,,,,,,,,,0,,,78,100
16950,note_on,15,0,1,,,,,,,,,0,,,73,0
16965,note_on,0,0,1,,,,,,,,,0,,,76,100
16965,note_on,15,0,1,,,,,,,,,0,,,78,0
16980,note_on,0,0,1,,,,,,,,,0,,,76,100
16980,note_on,15,0,1,,,,,,,,,0,,,76,0
16995,note_on,0,0,1,,,,,,,,,0,,,78,100
16995,note_on,15,0,1,,,,,,,,,0,,,76,0
17010,note_on,0,0,1,,,,,,,,,0,,,73,100
17010,note_on,15,0,1,,,,,,,,,0,,,78,0
17025,note_on,15,0,1,,,,,,,,,0,,,73,0
17025,note_on,0,0,1,,,,,,,,,0,,,69,100
17040,note_on,0,0,1,,,,,,,,,0,,,66,100
17040,note_on,15,0,1,,,,,,,,,0,,,69,0
17055,note_on,15,0,1,,,,,,,,,0,,,66,0
17055,note_on,0,0,1,,,,,,,,,0,,,69,100
17070,note_on,15,0,1,,,,,,,,,0,,,69,0
17070,note_on,0,0,1,,,,,,,,,0,,,75,100
17085,note_on,15,0,1,,,,,,,,,0,,,75,0
17085,note_on,0,0,1,,,,,,,,,0,,,76,100
17100,note_on,0,0,1,,,,,,,,,0,,,76,100
17100,note_on,15,0,1,,,,,,,,,0,,,76,0
17115,note_on,0,0,1,,,,,,,,,0,,,75,100
17115,note_on,15,0,1,,,,,,,,,0,,,76,0
17130,note_on,15,0,1,,,,,,,,,0,,,75,0
17130,note_on,0,0,1,,,,,,,,,0,,,69,100
17145,note_on,15,0,1,,,,,,,,,0,,,69,0
17145,note_on,0,0,1,,,,,,,,,0,,,66,100
17160,note_on,0,0,1,,,,,,,,,0,,,64,100
17160,note_on,15,0,1,,,,,,,,,0,,,66,0
17175,note_on,15,0,1,,,,,,,,,0,,,64,0
17175,note_on,0,0,1,,,,,,,,,0,,,68,100
17190,note_on,15,0,1,,,,,,,,,0,,,68,0
17190,note_on,0,0,1,,,,,,,,,0,,,76,100
17205,note_on,15,0,1,,,,,,,,,0,,,76,0
17205,note_on,0,0,1,,,,,,,,,0,,,76,100
17220,note_on,15,0,1,,,,,,,,,0,,,76,0
17220,note_on,0,0,1,,,,,,,,,0,,,76,100
17235,note_on,15,0,1,,,,,,,,,0,,,76,0
17235,note_on,0,0,1,,,,,,,,,0,,,76,100
17250,note_on,0,0,1,,,,,,,,,0,,,68,100
17250,note_on,15,0,1,,,,,,,,,0,,,76,0
17265,note_on,0,0,1,,,,,,,,,0,,,64,100
17265,note_on,15,0,1,,,,,,,,,0,,,68,0
17280,note_on,0,0,1,,,,,,,,,0,,,65,100
17280,note_on,15,0,1,,,,,,,,,0,,,64,0
17295,note_on,0,0,1,,,,,,,,,0,,,69,100
17295,note_on,15,0,1,,,,,,,,,0,,,65,0
17310,note_on,0,0,1,,,,,,,,,0,,,75,100
17310,note_on,15,0,1,,,,,,,,,0,,,69,0
17325,note_on,15,0,1,,,,,,,,,0,,,75,0
17325,note_on,0,0,1,,,,,,,,,0,,,76,100
17340,note_on,0,0,1,,,,,,,,,0,,,76,100
17340,note_on,15,0,1,,,,,,,,,0,,,76,0
17355,note_on,0,0,1,,,,,,,,,0,,,75,100
17355,note_on,15,0,1,,,,,,,,,0,,,76,0
17370,note_on,0,0,1,,,,,,,,,0,,,69,100
17370,note_on,15,0,1,,,,,,,,,0,,,75,0
17385,note_on,0,0,1,,,,,,,,,0,,,65,100
17385,note_on,15,0,1,,,,,,,,,0,,,69,0
17400,note_on,15,0,1,,,,,,,,,0,,,65,0
17400,note_on,0,0,1,,,,,,,,,0,,,64,100
17415,note_on,0,0,1,,,,,,,,,0,,,68,100
17415,note_on,15,0,1,,,,,,,,,0,,,64,0
17430,note_on,0,0,1,,,,,,,,,0,,,76,100
17430,note_on,15,0,1,,,,,,,,,0,,,68,0
17445,note_on,15,0,1,,,,,,,,,0,,,76,0
17445,note_on,0,0,1,,,,,,,,,0,,,76,100
17460,note_on,15,0,1,,,,,,,,,0,,,76,0
17460,note_on,0,0,1,,,,,,,,,0,,,76,100
17475,note_on,0,0,1,,,,,,,,,0,,,76,100
17475,note_on,15,0,1,,,,,,,,,0,,,76,0
17490,note_on,0,0,1,,,,,,,,,0,,,68,100
17490,note_on,15,0,1,,,,,,,,,0,,,76,0
17505,note_on,0,0,1,,,,,,,,,0,,,64,100
17505,note_on,15,0,1,,,,,,,,,0,,,68,0
17520,note_on,15,0,1,,,,,,,,,0,,,64,0
17520,note_on,0,0,1,,,,,,,,,0,,,65,100
17535,note_on,0,0,1,,,,,,,,,0,,,69,100
17535,note_on,15,0,1,,,,,,,,,0,,,65,0
17550,note_on,15,0,1,,,,,,,,,0,,,69,0
17550,note_on,0,0,1,,,,,,,,,0,,,75,100
17565,note_on,15,0,1,,,,,,,,,0,,,75,0
17565,note_on,0,0,1,,,,,,,,,0,,,76,100
17580,note_on,0,0,1,,,,,,,,,0,,,76,100
17580,note_on,15,0,1,,,,,,,,,0,,,76,0
17595,note_on,15,0,1,,,,,,,,,0,,,76,0
17595,note_on,0,0,1,,,,,,,,,0,,,75,100
17610,note_on,15,0,1,,,,,,,,,0,,,75,0
17610,note_on,0,0,1,,,,,,,,,0,,,69,100
17625,note_on,0,0,1,,,,,,,,,0,,,65,100
17625,note_on,15,0,1,,,,,,,,,0,,,69,0
17640,note_on,0,0,1,,,,,,,,,0,,,64,100
17640,note_on,15,0,1,,,,,,,,,0,,,65,0
17670,note_on,0,0,1,,,,,,,,,0,,,76,100
17670,note_on,0,0,1,,,,,,,,,0,,,68,100
17670,note_on,30,0,1,,,,,,,,,0,,,64,0
17700,note_on,30,0,1,,,,,,,,,0,,,68,0
17700,note_on,0,0,1,,,,,,,,,0,,,76,0
17760,note_on,60,0,1,,,,,,,,,0,,,64,100
17790,note_on,0,0,1,,,,,,,,,0,,,68,100
17790,note_on,0,0,1,,,,,,,,,0,,,76,100
17790,note_on,0,0,1,,,,,,,,,0,,,80,100
17790,note_on,30,0,1,,,,,,,,,0,,,64,0
17820,note_on,0,0,1,,,,,,,,,0,,,80,0
17820,note_on,0,0,1,,,,,,,,,0,,,76,0
17820,note_on,30,0,1,,,,,,,,,0,,,68,0
17880,set_tempo,5520,1,0,,,,,,833449,,,,,,,
17880,note_on,60,0,1,,,,,,,,,0,,,64,100
17888,set_tempo,8,1,0,,,,,,836937,,,,,,,
17892,set_tempo,4,1,0,,,,,,840454,,,,,,,
17895,note_on,0,0,1,,,,,,,,,0,,,68,100
17895,note_on,15,0,1,,,,,,,,,0,,,64,0
17897,set_tempo,5,1,0,,,,,,844001,,,,,,,
17901,set_tempo,4,1,0,,,,,,847577,,,,,,,
17905,set_tempo,4,1,0,,,,,,851185,,,,,,,
17910,note_on,15,0,1,,,,,,,,,0,,,68,0
17910,note_on,0,0,1,,,,,,,,,0,,,76,100
17910,set_tempo,5,1,0,,,,,,854823,,,,,,,
17914,set_tempo,4,1,0,,,,,,858492,,,,,,,
17918,set_tempo,4,1,0,,,,,,862193,,,,,,,
17922,set_tempo,4,1,0,,,,,,865926,,,,,,,
17925,note_on,15,0,1,,,,,,,,,0,,,76,0
17925,note_on,0,0,1,,,,,,,,,0,,,76,100
17927,set_tempo,5,1,0,,,,,,869691,,,,,,,
17931,set_tempo,4,1,0,,,,,,873490,,,,,,,
17935,set_tempo,4,1,0,,,,,,877321,,,,,,,
17940,set_tempo,5,1,0,,,,,,881187,,,,,,,
17940,note_on,15,0,1,,,,,,,,,0,,,76,0
17940,note_on,0,0,1,,,,,,,,,0,,,76,100
17944,set_tempo,4,1,0,,,,,,885086,,,,,,,
17948,set_tempo,4,1,0,,,,,,889021,,,,,,,
17952,set_tempo,4,1,0,,,,,,892990,,,,,,,
17955,note_on,15,0,1,,,,,,,,,0,,,76,0
17955,note_on,0,0,1,,,,,,,,,0,,,80,100
17957,set_tempo,5,1,0,,,,,,896995,,,,,,,
17961,set_tempo,4,1,0,,,,,,901036,,,,,,,
17965,set_tempo,4,1,0,,,,,,905114,,,,,,,
17970,note_on,0,0,1,,,,,,,,,0,,,71,100
17970,set_tempo,5,1,0,,,,,,909229,,,,,,,
17970,note_on,15,0,1,,,,,,,,,0,,,80,0
17974,set_tempo,4,1,0,,,,,,913381,,,,,,,
17978,set_tempo,4,1,0,,,,,,917571,,,,,,,
17982,set_tempo,4,1,0,,,,,,921801,,,,,,,
17985,note_on,0,0,1,,,,,,,,,0,,,68,100
17985,note_on,15,0,1,,,,,,,,,0,,,71,0
17987,set_tempo,5,1,0,,,,,,926069,,,,,,,
17991,set_tempo,4,1,0,,,,,,930377,,,,,,,
17995,set_tempo,4,1,0,,,,,,934725,,,,,,,
18000,note_on,15,0,1,,,,,,,,,0,,,68,0
18000,note_on,0,0,1,,,,,,,,,0,,,64,100
18004,set_tempo,9,1,0,,,,,,939114,,,,,,,
18008,set_tempo,4,1,0,,,,,,943545,,,,,,,
18012,set_tempo,4,1,0,,,,,,948017,,,,,,,
18015,note_on,15,0,1,,,,,,,,,0,,,64,0
18015,note_on,0,0,1,,,,,,,,,0,,,68,100
18017,set_tempo,5,1,0,,,,,,952532,,,,,,,
18021,set_tempo,4,1,0,,,,,,957090,,,,,,,
18025,set_tempo,4,1,0,,,,,,961693,,,,,,,
18030,note_on,0,0,1,,,,,,,,,0,,,76,100
18030,note_on,15,0,1,,,,,,,,,0,,,68,0
18030,set_tempo,5,1,0,,,,,,966339,,,,,,,
18034,set_tempo,4,1,0,,,,,,971031,,,,,,,
18038,set_tempo,4,1,0,,,,,,975768,,,,,,,
18042,set_tempo,4,1,0,,,,,,980552,,,,,,,
18045,note_on,0,0,1,,,,,,,,,0,,,76,100
18045,note_on,15,0,1,,,,,,,,,0,,,76,0
18047,set_tempo,5,1,0,,,,,,985383,,,,,,,
18051,set_tempo,4,1,0,,,,,,990262,,,,,,,
18055,set_tempo,4,1,0,,,,,,995190,,,,,,,
18060,note_on,15,0,1,,,,,,,,,0,,,76,0
18060,note_on,0,0,1,,,,,,,,,0,,,76,100
18060,set_tempo,5,1,0,,,,,,1000167,,,,,,,
18064,set_tempo,4,1,0,,,,,,1005193,,,,,,,
18068,set_tempo,4,1,0,,,,,,1010271,,,,,,,
18072,set_tempo,4,1,0,,,,,,1015400,,,,,,,
18075,note_on,0,0,1,,,,,,,,,0,,,80,100
18075,note_on,15,0,1,,,,,,,,,0,,,76,0
18077,set_tempo,5,1,0,,,,,,1020582,,,,,,,
18081,set_tempo,4,1,0,,,,,,1025816,,,,,,,
18085,set_tempo,4,1,0,,,,,,1031105,,,,,,,
18090,set_tempo,5,1,0,,,,,,1036448,,,,,,,
18090,note_on,15,0,1,,,,,,,,,0,,,80,0
18090,note_on,0,0,1,,,,,,,,,0,,,71,100
18094,set_tempo,4,1,0,,,,,,1041848,,,,,,,
18098,set_tempo,4,1,0,,,,,,1047303,,,,,,,
18102,set_tempo,4,1,0,,,,,,1052816,,,,,,,
18105,note_on,15,0,1,,,,,,,,,0,,,71,0
18105,note_on,0,0,1,,,,,,,,,0,,,68,100
18107,set_tempo,5,1,0,,,,,,1058388,,,,,,,
18111,set_tempo,4,1,0,,,,,,1064018,,,,,,,
18115,set_tempo,4,1,0,,,,,,1069709,,,,,,,
18120,note_on,15,0,1,,,,,,,,,0,,,68,0
18120,control_change,18120,0,2,,,,,,,,,0,64,127,,
18120,note_on,0,0,1,,,,,,,,,0,,,76,100
18120,note_on,0,0,1,,,,,,,,,0,,,68,100
18120,end_of_track,0,1,0,,,,,,,,,,,,,
18120,note_on,0,0,1,,,,,,,,,0,,,64,100
18120,set_tempo,5,1,0,,,,,,1071429,,,,,,,
18240,note_on,0,0,1,,,,,,,,,0,,,76,0
18240,note_on,120,0,1,,,,,,,,,0,,,64,0
18240,end_of_track,0,1,1,,,,,,,,,,,,,
18240,note_on,0,0,1,,,,,,,,,0,,,68,0
18600,control_change,480,0,2,,,,,,,,,0,64,0,,
18840,control_change,240,0,2,,,,,,,,,0,64,127,,
19080,control_change,240,0,2,,,,,,,,,0,64,0,,
19080,end_of_track,0,1,2,,,,,,,,,,,,,
