tick,type,time,meta,track,numerator,denominator,clocks_per_click,notated_32nd_notes_per_beat,key,tempo,port,program,channel,control,value,note,velocity
0,control_change,0,0,1,,,,,,,,,0,7,127,,
0,end_of_track,0,1,7,,,,,,,,,,,,,
0,key_signature,0,1,0,,,,,C,,,,,,,,
0,marker,0,1,0,,,,,,,,,,,,,
0,midi_port,0,1,1,,,,,,,0,,,,,,
0,midi_port,0,1,2,,,,,,,0,,,,,,
0,midi_port,0,1,3,,,,,,,0,,,,,,
0,midi_port,0,1,4,,,,,,,0,,,,,,
0,midi_port,0,1,5,,,,,,,0,,,,,,
0,midi_port,0,1,6,,,,,,,0,,,,,,
0,midi_port,0,1,7,,,,,,,0,,,,,,
0,note_on,0,0,4,,,,,,,,,0,,,45,70
0,track_name,0,1,6,,,,,,,,,,,,,
0,end_of_track,0,1,6,,,,,,,,,,,,,
0,program_change,0,0,1,,,,,,,,0,0,,,,
0,program_change,0,0,3,,,,,,,,0,0,,,,
0,program_change,0,0,4,,,,,,,,0,0,,,,
0,program_change,0,0,5,,,,,,,,0,0,,,,
0,set_tempo,0,1,0,,,,,,434783,,,,,,,
0,text,0,1,0,,,,,,,,,,,,,
0,time_signature,0,1,0,2,4,24,8,,,,,,,,,
0,track_name,0,1,0,,,,,,,,,,,,,
0,track_name,0,1,1,,,,,,,,,,,,,
0,track_name,0,1,2,,,,,,,,,,,,,
0,track_name,0,1,3,,,,,,,,,,,,,
0,track_name,0,1,4,,,,,,,,,,,,,
0,track_name,0,1,5,,,,,,,,,,,,,
0,program_change,0,0,2,,,,,,,,0,0,,,,
0,copyright,0,1,0,,,,,,,,,,,,,
0,track_name,0,1,7,,,,,,,,,,,,,
0,control_change,0,0,4,,,,,,,,,0,10,64,,
0,control_change,0,0,1,,,,,,,,,0,10,64,,
0,control_change,0,0,2,,,,,,,,,0,7,127,,
0,control_change,0,0,2,,,,,,,,,0,10,64,,
0,control_change,0,0,3,,,,,,,,,0,7,127,,
0,control_change,0,0,3,,,,,,,,,0,10,64,,
0,control_change,0,0,4,,,,,,,,,0,7,127,,
0,control_change,0,0,5,,,,,,,,,0,7,127,,
0,control_change,0,0,5,,,,,,,,,0,10,64,,
2,note_on,2,0,4,,,,,,,,,0,,,52,70
4,note_on,2,0,4,,,,,,,,,0,,,57,70
6,note_on,2,0,4,,,,,,,,,0,,,60,70
8,note_on,8,0,1,,,,,,,,,0,,,64,70
10,note_on,2,0,1,,,,,,,,,0,,,69,70
12,note_on,2,0,1,,,,,,,,,0,,,72,70
14,note_on,2,0,1,,,,,,,,,0,,,81,70
15,note_on,9,0,4,,,,,,,,,0,,,45,0
17,note_on,2,0,4,,,,,,,,,0,,,52,0
19,note_on,2,0,4,,,,,,,,,0,,,57,0
21,note_on,2,0,4,,,,,,,,,0,,,60,0
23,note_on,9,0,1,,,,,,,,,0,,,64,0
25,note_on,2,0,1,,,,,,,,,0,,,69,0
27,note_on,2,0,1,,,,,,,,,0,,,72,0
29,note_on,2,0,1,,,,,,,,,0,,,81,0
105,note_on,76,0,1,,,,,,,,,0,,,69,60
120,note_on,15,0,1,,,,,,,,,0,,,69,0
120,note_on,0,0,1,,,,,,,,,0,,,69,60
150,note_on,0,0,1,,,,,,,,,0,,,72,60
150,note_on,30,0,1,,,,,,,,,0,,,69,0
180,note_on,30,0,1,,,,,,,,,0,,,72,0
180,note_on,0,0,1,,,,,,,,,0,,,71,60
210,note_on,30,0,1,,,,,,,,,0,,,71,0
210,note_on,0,0,1,,,,,,,,,0,,,69,60
240,note_on,30,0,1,,,,,,,,,0,,,69,0
240,note_on,219,0,4,,,,,,,,,0,,,52,70
242,note_on,2,0,4,,,,,,,,,0,,,59,70
244,note_on,2,0,4,,,,,,,,,0,,,64,70
246,note_on,2,0,4,,,,,,,,,0,,,68,70
248,note_on,8,0,1,,,,,,,,,0,,,71,70
250,note_on,2,0,1,,,,,,,,,0,,,76,70
252,note_on,2,0,1,,,,,,,,,0,,,80,70
254,note_on,2,0,1,,,,,,,,,0,,,88,70
255,note_on,9,0,4,,,,,,,,,0,,,52,0
257,note_on,2,0,4,,,,,,,,,0,,,59,0
259,note_on,2,0,4,,,,,,,,,0,,,64,0
261,note_on,2,0,4,,,,,,,,,0,,,68,0
263,note_on,9,0,1,,,,,,,,,0,,,71,0
265,note_on,2,0,1,,,,,,,,,0,,,76,0
267,note_on,2,0,1,,,,,,,,,0,,,80,0
269,note_on,2,0,1,,,,,,,,,0,,,88,0
345,note_on,76,0,1,,,,,,,,,0,,,64,60
360,note_on,15,0,1,,,,,,,,,0,,,64,0
360,note_on,0,0,1,,,,,,,,,0,,,64,60
390,note_on,30,0,1,,,,,,,,,0,,,64,0
390,note_on,0,0,1,,,,,,,,,0,,,68,60
420,note_on,30,0,1,,,,,,,,,0,,,68,0
420,note_on,0,0,1,,,,,,,,,0,,,66,60
450,note_on,30,0,1,,,,,,,,,0,,,66,0
450,note_on,0,0,1,,,,,,,,,0,,,64,60
480,note_on,30,0,1,,,,,,,,,0,,,64,0
480,note_on,219,0,4,,,,,,,,,0,,,45,70
482,note_on,2,0,4,,,,,,,,,0,,,52,70
484,note_on,2,0,4,,,,,,,,,0,,,57,70
486,note_on,2,0,4,,,,,,,,,0,,,60,70
488,note_on,8,0,1,,,,,,,,,0,,,64,70
490,note_on,2,0,1,,,,,,,,,0,,,69,70
492,note_on,2,0,1,,,,,,,,,0,,,72,70
494,note_on,2,0,1,,,,,,,,,0,,,81,70
495,note_on,9,0,4,,,,,,,,,0,,,45,0
497,note_on,2,0,4,,,,,,,,,0,,,52,0
499,note_on,2,0,4,,,,,,,,,0,,,57,0
501,note_on,2,0,4,,,,,,,,,0,,,60,0
503,note_on,9,0,1,,,,,,,,,0,,,64,0
505,note_on,2,0,1,,,,,,,,,0,,,69,0
507,note_on,2,0,1,,,,,,,,,0,,,72,0
509,note_on,2,0,1,,,,,,,,,0,,,81,0
585,note_on,76,0,1,,,,,,,,,0,,,69,60
600,note_on,15,0,1,,,,,,,,,0,,,69,0
600,note_on,0,0,1,,,,,,,,,0,,,69,60
630,note_on,30,0,1,,,,,,,,,0,,,69,0
630,note_on,0,0,1,,,,,,,,,0,,,72,60
660,note_on,0,0,1,,,,,,,,,0,,,71,60
660,note_on,30,0,1,,,,,,,,,0,,,72,0
690,note_on,0,0,1,,,,,,,,,0,,,69,60
690,note_on,30,0,1,,,,,,,,,0,,,71,0
720,note_on,219,0,4,,,,,,,,,0,,,52,70
720,note_on,30,0,1,,,,,,,,,0,,,69,0
720,note_on,0,0,1,,,,,,,,,0,,,71,70
720,note_on,0,0,1,,,,,,,,,0,,,76,60
720,note_on,0,0,1,,,,,,,,,0,,,80,70
720,note_on,0,0,1,,,,,,,,,0,,,88,70
722,note_on,2,0,4,,,,,,,,,0,,,59,70
724,note_on,2,0,4,,,,,,,,,0,,,64,70
726,note_on,2,0,4,,,,,,,,,0,,,68,70
735,note_on,15,0,1,,,,,,,,,0,,,71,0
735,note_on,9,0,4,,,,,,,,,0,,,52,0
735,note_on,0,0,1,,,,,,,,,0,,,88,0
735,note_on,0,0,1,,,,,,,,,0,,,80,0
737,note_on,2,0,4,,,,,,,,,0,,,59,0
739,note_on,2,0,4,,,,,,,,,0,,,64,0
741,note_on,2,0,4,,,,,,,,,0,,,68,0
840,note_on,105,0,1,,,,,,,,,0,,,76,0
840,note_on,0,0,1,,,,,,,,,0,,,64,60
855,note_on,15,0,1,,,,,,,,,0,,,64,0
960,note_on,219,0,4,,,,,,,,,0,,,45,70
962,note_on,2,0,4,,,,,,,,,0,,,52,70
964,note_on,2,0,4,,,,,,,,,0,,,57,70
966,note_on,2,0,4,,,,,,,,,0,,,60,70
968,note_on,113,0,1,,,,,,,,,0,,,64,70
970,note_on,2,0,1,,,,,,,,,0,,,69,70
972,note_on,2,0,1,,,,,,,,,0,,,72,70
974,note_on,2,0,1,,,,,,,,,0,,,81,70
975,note_on,9,0,4,,,,,,,,,0,,,45,0
977,note_on,2,0,4,,,,,,,,,0,,,52,0
979,note_on,2,0,4,,,,,,,,,0,,,57,0
981,note_on,2,0,4,,,,,,,,,0,,,60,0
983,note_on,9,0,1,,,,,,,,,0,,,64,0
985,note_on,2,0,1,,,,,,,,,0,,,69,0
987,note_on,2,0,1,,,,,,,,,0,,,72,0
989,note_on,2,0,1,,,,,,,,,0,,,81,0
1065,note_on,76,0,1,,,,,,,,,0,,,69,60
1080,note_on,15,0,1,,,,,,,,,0,,,69,0
1080,note_on,0,0,1,,,,,,,,,0,,,69,60
1110,note_on,30,0,1,,,,,,,,,0,,,69,0
1110,note_on,0,0,1,,,,,,,,,0,,,72,60
1140,note_on,30,0,1,,,,,,,,,0,,,72,0
1140,note_on,0,0,1,,,,,,,,,0,,,71,60
1170,note_on,30,0,1,,,,,,,,,0,,,71,0
1170,note_on,0,0,1,,,,,,,,,0,,,69,60
1200,note_on,219,0,4,,,,,,,,,0,,,52,70
1200,note_on,30,0,1,,,,,,,,,0,,,69,0
1202,note_on,2,0,4,,,,,,,,,0,,,59,70
1204,note_on,2,0,4,,,,,,,,,0,,,64,70
1206,note_on,2,0,4,,,,,,,,,0,,,68,70
1208,note_on,8,0,1,,,,,,,,,0,,,71,70
1210,note_on,2,0,1,,,,,,,,,0,,,76,70
1212,note_on,2,0,1,,,,,,,,,0,,,80,70
1214,note_on,2,0,1,,,,,,,,,0,,,88,70
1215,note_on,9,0,4,,,,,,,,,0,,,52,0
1217,note_on,2,0,4,,,,,,,,,0,,,59,0
1219,note_on,2,0,4,,,,,,,,,0,,,64,0
1221,note_on,2,0,4,,,,,,,,,0,,,68,0
1223,note_on,9,0,1,,,,,,,,,0,,,71,0
1225,note_on,2,0,1,,,,,,,,,0,,,76,0
1227,note_on,2,0,1,,,,,,,,,0,,,80,0
1229,note_on,2,0,1,,,,,,,,,0,,,88,0
1305,note_on,76,0,1,,,,,,,,,0,,,64,60
1320,note_on,15,0,1,,,,,,,,,0,,,64,0
1320,note_on,0,0,1,,,,,,,,,0,,,64,60
1350,note_on,0,0,1,,,,,,,,,0,,,68,60
1350,note_on,30,0,1,,,,,,,,,0,,,64,0
1380,note_on,30,0,1,,,,,,,,,0,,,68,0
1380,note_on,0,0,1,,,,,,,,,0,,,66,60
1410,note_on,0,0,1,,,,,,,,,0,,,64,60
1410,note_on,30,0,1,,,,,,,,,0,,,66,0
1440,note_on,219,0,4,,,,,,,,,0,,,45,70
1440,note_on,30,0,1,,,,,,,,,0,,,64,0
1442,note_on,2,0,4,,,,,,,,,0,,,52,70
1444,note_on,2,0,4,,,,,,,,,0,,,57,70
1446,note_on,2,0,4,,,,,,,,,0,,,60,70
1448,note_on,8,0,1,,,,,,,,,0,,,64,70
1450,note_on,2,0,1,,,,,,,,,0,,,69,70
1452,note_on,2,0,1,,,,,,,,,0,,,72,70
1454,note_on,2,0,1,,,,,,,,,0,,,81,70
1455,note_on,9,0,4,,,,,,,,,0,,,45,0
1457,note_on,2,0,4,,,,,,,,,0,,,52,0
1459,note_on,2,0,4,,,,,,,,,0,,,57,0
1461,note_on,2,0,4,,,,,,,,,0,,,60,0
1463,note_on,9,0,1,,,,,,,,,0,,,64,0
1465,note_on,2,0,1,,,,,,,,,0,,,69,0
1467,note_on,2,0,1,,,,,,,,,0,,,72,0
1469,note_on,2,0,1,,,,,,,,,0,,,81,0
1545,note_on,76,0,1,,,,,,,,,0,,,69,60
1560,note_on,15,0,1,,,,,,,,,0,,,69,0
1560,note_on,0,0,1,,,,,,,,,0,,,69,60
1590,note_on,0,0,1,,,,,,,,,0,,,72,60
1590,note_on,30,0,1,,,,,,,,,0,,,69,0
1620,note_on,30,0,1,,,,,,,,,0,,,72,0
1620,note_on,0,0,1,,,,,,,,,0,,,71,60
1650,note_on,0,0,1,,,,,,,,,0,,,69,60
1650,note_on,30,0,1,,,,,,,,,0,,,71,0
1680,note_on,219,0,4,,,,,,,,,0,,,52,70
1680,note_on,30,0,1,,,,,,,,,0,,,69,0
1680,note_on,0,0,1,,,,,,,,,0,,,76,60
1680,note_on,0,0,1,,,,,,,,,0,,,80,70
1680,note_on,0,0,1,,,,,,,,,0,,,88,70
1680,note_on,0,0,1,,,,,,,,,0,,,71,70
1682,note_on,2,0,4,,,,,,,,,0,,,59,70
1684,note_on,2,0,4,,,,,,,,,0,,,64,70
1686,note_on,2,0,4,,,,,,,,,0,,,68,70
1695,note_on,15,0,1,,,,,,,,,0,,,71,0
1695,note_on,9,0,4,,,,,,,,,0,,,52,0
1695,note_on,0,0,1,,,,,,,,,0,,,80,0
1695,note_on,0,0,1,,,,,,,,,0,,,88,0
1697,note_on,2,0,4,,,,,,,,,0,,,59,0
1699,note_on,2,0,4,,,,,,,,,0,,,64,0
1701,note_on,2,0,4,,,,,,,,,0,,,68,0
1800,note_on,105,0,1,,,,,,,,,0,,,76,0
1800,note_on,0,0,1,,,,,,,,,0,,,64,60
1815,note_on,15,0,1,,,,,,,,,0,,,64,0
1920,note_on,219,0,4,,,,,,,,,0,,,45,70
1922,note_on,2,0,4,,,,,,,,,0,,,52,70
1924,note_on,2,0,4,,,,,,,,,0,,,57,70
1926,note_on,2,0,4,,,,,,,,,0,,,61,70
1928,note_on,113,0,1,,,,,,,,,0,,,76,70
1930,note_on,2,0,1,,,,,,,,,0,,,81,70
1932,note_on,2,0,1,,,,,,,,,0,,,85,70
1934,note_on,2,0,1,,,,,,,,,0,,,93,70
1935,note_on,9,0,4,,,,,,,,,0,,,45,0
1937,note_on,2,0,4,,,,,,,,,0,,,52,0
1939,note_on,2,0,4,,,,,,,,,0,,,57,0
1941,note_on,2,0,4,,,,,,,,,0,,,61,0
1943,note_on,9,0,1,,,,,,,,,0,,,76,0
1945,note_on,2,0,1,,,,,,,,,0,,,81,0
1947,note_on,2,0,1,,,,,,,,,0,,,85,0
1949,note_on,2,0,1,,,,,,,,,0,,,93,0
2025,note_on,76,0,1,,,,,,,,,0,,,81,60
2040,note_on,0,0,1,,,,,,,,,0,,,81,60
2040,note_on,15,0,1,,,,,,,,,0,,,81,0
2070,note_on,30,0,1,,,,,,,,,0,,,81,0
2070,note_on,0,0,1,,,,,,,,,0,,,82,60
2100,note_on,30,0,1,,,,,,,,,0,,,82,0
2100,note_on,0,0,1,,,,,,,,,0,,,81,60
2130,note_on,0,0,1,,,,,,,,,0,,,79,60
2130,note_on,30,0,1,,,,,,,,,0,,,81,0
2160,note_on,219,0,4,,,,,,,,,0,,,50,70
2160,note_on,30,0,1,,,,,,,,,0,,,79,0
2162,note_on,2,0,4,,,,,,,,,0,,,57,70
2164,note_on,2,0,4,,,,,,,,,0,,,62,70
2166,note_on,2,0,4,,,,,,,,,0,,,65,70
2168,note_on,8,0,1,,,,,,,,,0,,,69,70
2170,note_on,2,0,1,,,,,,,,,0,,,77,70
2172,note_on,2,0,1,,,,,,,,,0,,,81,70
2174,note_on,2,0,1,,,,,,,,,0,,,89,70
2175,note_on,9,0,4,,,,,,,,,0,,,50,0
2177,note_on,2,0,4,,,,,,,,,0,,,57,0
2179,note_on,2,0,4,,,,,,,,,0,,,62,0
2181,note_on,2,0,4,,,,,,,,,0,,,65,0
2183,note_on,9,0,1,,,,,,,,,0,,,69,0
2185,note_on,2,0,1,,,,,,,,,0,,,77,0
2187,note_on,2,0,1,,,,,,,,,0,,,81,0
2189,note_on,2,0,1,,,,,,,,,0,,,89,0
2265,note_on,76,0,1,,,,,,,,,0,,,74,60
2280,note_on,15,0,1,,,,,,,,,0,,,74,0
2280,note_on,0,0,1,,,,,,,,,0,,,74,60
2310,note_on,30,0,1,,,,,,,,,0,,,74,0
2310,note_on,0,0,1,,,,,,,,,0,,,77,60
2340,note_on,0,0,1,,,,,,,,,0,,,76,60
2340,note_on,30,0,1,,,,,,,,,0,,,77,0
2370,note_on,30,0,1,,,,,,,,,0,,,76,0
2370,note_on,0,0,1,,,,,,,,,0,,,74,60
2400,note_on,30,0,1,,,,,,,,,0,,,74,0
2400,note_on,219,0,4,,,,,,,,,0,,,43,70
2402,note_on,2,0,4,,,,,,,,,0,,,50,70
2404,note_on,2,0,4,,,,,,,,,0,,,55,70
2406,note_on,2,0,4,,,,,,,,,0,,,59,70
2408,note_on,8,0,1,,,,,,,,,0,,,74,70
2410,note_on,2,0,1,,,,,,,,,0,,,79,70
2412,note_on,2,0,1,,,,,,,,,0,,,83,70
2414,note_on,2,0,1,,,,,,,,,0,,,91,70
2415,note_on,9,0,4,,,,,,,,,0,,,43,0
2417,note_on,2,0,4,,,,,,,,,0,,,50,0
2419,note_on,2,0,4,,,,,,,,,0,,,55,0
2421,note_on,2,0,4,,,,,,,,,0,,,59,0
2423,note_on,9,0,1,,,,,,,,,0,,,74,0
2425,note_on,2,0,1,,,,,,,,,0,,,79,0
2427,note_on,2,0,1,,,,,,,,,0,,,83,0
2429,note_on,2,0,1,,,,,,,,,0,,,91,0
2505,note_on,76,0,1,,,,,,,,,0,,,79,60
2520,note_on,0,0,1,,,,,,,,,0,,,79,60
2520,note_on,15,0,1,,,,,,,,,0,,,79,0
2550,note_on,30,0,1,,,,,,,,,0,,,79,0
2550,note_on,0,0,1,,,,,,,,,0,,,81,60
2580,note_on,30,0,1,,,,,,,,,0,,,81,0
2580,note_on,0,0,1,,,,,,,,,0,,,79,60
2610,note_on,0,0,1,,,,,,,,,0,,,77,60
2610,note_on,30,0,1,,,,,,,,,0,,,79,0
2640,note_on,219,0,4,,,,,,,,,0,,,48,70
2640,note_on,30,0,1,,,,,,,,,0,,,77,0
2642,note_on,2,0,4,,,,,,,,,0,,,55,70
2644,note_on,2,0,4,,,,,,,,,0,,,60,70
2646,note_on,2,0,4,,,,,,,,,0,,,64,70
2648,note_on,8,0,1,,,,,,,,,0,,,67,70
2650,note_on,2,0,1,,,,,,,,,0,,,76,70
2652,note_on,2,0,1,,,,,,,,,0,,,79,70
2654,note_on,2,0,1,,,,,,,,,0,,,88,70
2655,note_on,9,0,4,,,,,,,,,0,,,48,0
2657,note_on,2,0,4,,,,,,,,,0,,,55,0
2659,note_on,2,0,4,,,,,,,,,0,,,60,0
2661,note_on,2,0,4,,,,,,,,,0,,,64,0
2663,note_on,9,0,1,,,,,,,,,0,,,67,0
2665,note_on,2,0,1,,,,,,,,,0,,,76,0
2667,note_on,2,0,1,,,,,,,,,0,,,79,0
2669,note_on,2,0,1,,,,,,,,,0,,,88,0
2745,note_on,76,0,1,,,,,,,,,0,,,72,60
2760,note_on,15,0,1,,,,,,,,,0,,,72,0
2760,note_on,0,0,1,,,,,,,,,0,,,72,60
2790,note_on,0,0,1,,,,,,,,,0,,,76,60
2790,note_on,30,0,1,,,,,,,,,0,,,72,0
2820,note_on,0,0,1,,,,,,,,,0,,,74,60
2820,note_on,30,0,1,,,,,,,,,0,,,76,0
2850,note_on,0,0,1,,,,,,,,,0,,,72,60
2850,note_on,30,0,1,,,,,,,,,0,,,74,0
2880,note_on,219,0,4,,,,,,,,,0,,,50,70
2880,note_on,30,0,1,,,,,,,,,0,,,72,0
2882,note_on,2,0,4,,,,,,,,,0,,,53,70
2884,note_on,2,0,4,,,,,,,,,0,,,59,70
2886,note_on,2,0,4,,,,,,,,,0,,,65,70
2888,note_on,8,0,1,,,,,,,,,0,,,71,70
2890,note_on,2,0,1,,,,,,,,,0,,,77,70
2892,note_on,2,0,1,,,,,,,,,0,,,83,70
2894,note_on,2,0,1,,,,,,,,,0,,,89,70
2895,note_on,9,0,4,,,,,,,,,0,,,50,0
2897,note_on,2,0,4,,,,,,,,,0,,,53,0
2899,note_on,2,0,4,,,,,,,,,0,,,59,0
2901,note_on,2,0,4,,,,,,,,,0,,,65,0
2903,note_on,9,0,1,,,,,,,,,0,,,71,0
2905,note_on,2,0,1,,,,,,,,,0,,,77,0
2907,note_on,2,0,1,,,,,,,,,0,,,83,0
2909,note_on,2,0,1,,,,,,,,,0,,,89,0
2985,note_on,76,0,1,,,,,,,,,0,,,71,60
3000,note_on,15,0,1,,,,,,,,,0,,,71,0
3000,note_on,0,0,1,,,,,,,,,0,,,71,60
3030,note_on,30,0,1,,,,,,,,,0,,,71,0
3030,note_on,0,0,1,,,,,,,,,0,,,74,60
3060,note_on,0,0,1,,,,,,,,,0,,,72,60
3060,note_on,30,0,1,,,,,,,,,0,,,74,0
3090,note_on,30,0,1,,,,,,,,,0,,,72,0
3090,note_on,0,0,1,,,,,,,,,0,,,71,60
3120,note_on,219,0,4,,,,,,,,,0,,,52,70
3120,note_on,30,0,1,,,,,,,,,0,,,71,0
3122,note_on,2,0,4,,,,,,,,,0,,,60,70
3124,note_on,2,0,4,,,,,,,,,0,,,64,70
3126,note_on,6,0,1,,,,,,,,,0,,,69,70
3128,note_on,2,0,1,,,,,,,,,0,,,76,70
3130,note_on,2,0,1,,,,,,,,,0,,,81,70
3132,note_on,2,0,1,,,,,,,,,0,,,88,70
3135,note_on,11,0,4,,,,,,,,,0,,,52,0
3137,note_on,2,0,4,,,,,,,,,0,,,60,0
3139,note_on,2,0,4,,,,,,,,,0,,,64,0
3141,note_on,9,0,1,,,,,,,,,0,,,69,0
3143,note_on,2,0,1,,,,,,,,,0,,,76,0
3145,note_on,2,0,1,,,,,,,,,0,,,81,0
3147,note_on,2,0,1,,,,,,,,,0,,,88,0
3225,note_on,78,0,1,,,,,,,,,0,,,69,60
3240,note_on,15,0,1,,,,,,,,,0,,,69,0
3240,note_on,0,0,1,,,,,,,,,0,,,69,60
3270,note_on,30,0,1,,,,,,,,,0,,,69,0
3270,note_on,0,0,1,,,,,,,,,0,,,72,60
3300,note_on,30,0,1,,,,,,,,,0,,,72,0
3300,note_on,0,0,1,,,,,,,,,0,,,71,60
3330,note_on,30,0,1,,,,,,,,,0,,,71,0
3330,note_on,0,0,1,,,,,,,,,0,,,69,60
3360,note_on,221,0,4,,,,,,,,,0,,,53,80
3360,note_on,30,0,1,,,,,,,,,0,,,69,0
3360,note_on,0,0,1,,,,,,,,,0,,,65,80
3450,note_on,90,0,1,,,,,,,,,0,,,75,60
3450,note_on,90,0,4,,,,,,,,,0,,,63,60
3450,note_on,0,0,4,,,,,,,,,0,,,57,60
3480,note_on,30,0,4,,,,,,,,,0,,,57,0
3480,note_on,0,0,4,,,,,,,,,0,,,63,0
3480,note_on,0,0,4,,,,,,,,,0,,,53,0
3480,note_on,30,0,1,,,,,,,,,0,,,75,0
3480,note_on,0,0,4,,,,,,,,,0,,,52,70
3480,note_on,0,0,1,,,,,,,,,0,,,64,70
3480,note_on,0,0,1,,,,,,,,,0,,,65,0
3510,note_on,30,0,1,,,,,,,,,0,,,76,60
3540,note_on,30,0,1,,,,,,,,,0,,,76,0
3540,note_on,0,0,1,,,,,,,,,0,,,74,60
3570,note_on,0,0,4,,,,,,,,,0,,,56,60
3570,note_on,0,0,1,,,,,,,,,0,,,71,60
3570,note_on,90,0,4,,,,,,,,,0,,,62,60
3570,note_on,30,0,1,,,,,,,,,0,,,74,0
3600,note_on,30,0,1,,,,,,,,,0,,,71,0
3600,note_on,30,0,4,,,,,,,,,0,,,56,0
3600,note_on,0,0,4,,,,,,,,,0,,,62,0
3600,note_on,0,0,4,,,,,,,,,0,,,60,80
3600,note_on,0,0,4,,,,,,,,,0,,,57,80
3600,note_on,0,0,4,,,,,,,,,0,,,52,0
3600,note_on,0,0,1,,,,,,,,,0,,,64,0
3600,note_on,0,0,1,,,,,,,,,0,,,64,80
3600,note_on,0,0,1,,,,,,,,,0,,,69,80
3720,note_on,0,0,1,,,,,,,,,0,,,69,0
3720,note_on,0,0,1,,,,,,,,,0,,,81,70
3720,note_on,0,0,1,,,,,,,,,0,,,72,70
3720,note_on,0,0,4,,,,,,,,,0,,,64,70
3720,note_on,0,0,4,,,,,,,,,0,,,57,0
3720,note_on,120,0,1,,,,,,,,,0,,,64,0
3720,note_on,120,0,4,,,,,,,,,0,,,60,0
3720,note_on,0,0,4,,,,,,,,,0,,,69,70
3735,note_on,15,0,1,,,,,,,,,0,,,72,0
3735,note_on,15,0,4,,,,,,,,,0,,,64,0
3735,note_on,0,0,1,,,,,,,,,0,,,81,0
3735,note_on,0,0,4,,,,,,,,,0,,,69,0
3840,note_on,105,0,4,,,,,,,,,0,,,45,70
3842,note_on,2,0,4,,,,,,,,,0,,,52,70
3844,note_on,2,0,4,,,,,,,,,0,,,61,70
3846,note_on,111,0,1,,,,,,,,,0,,,76,70
3848,note_on,2,0,1,,,,,,,,,0,,,81,70
3850,note_on,2,0,1,,,,,,,,,0,,,85,70
3852,note_on,2,0,1,,,,,,,,,0,,,93,70
3855,note_on,11,0,4,,,,,,,,,0,,,45,0
3857,note_on,2,0,4,,,,,,,,,0,,,52,0
3859,note_on,2,0,4,,,,,,,,,0,,,61,0
3861,note_on,9,0,1,,,,,,,,,0,,,76,0
3863,note_on,2,0,1,,,,,,,,,0,,,81,0
3865,note_on,2,0,1,,,,,,,,,0,,,85,0
3867,note_on,2,0,1,,,,,,,,,0,,,93,0
3945,note_on,78,0,1,,,,,,,,,0,,,81,60
3960,note_on,0,0,3,,,,,,,,,0,,,64,60
3960,note_on,3960,0,3,,,,,,,,,0,,,61,60
3960,note_on,15,0,1,,,,,,,,,0,,,81,0
3960,note_on,0,0,1,,,,,,,,,0,,,81,60
3960,note_on,0,0,3,,,,,,,,,0,,,69,60
3990,note_on,0,0,1,,,,,,,,,0,,,82,60
3990,note_on,30,0,1,,,,,,,,,0,,,81,0
4020,note_on,60,0,3,,,,,,,,,0,,,69,0
4020,note_on,0,0,1,,,,,,,,,0,,,81,60
4020,note_on,0,0,3,,,,,,,,,0,,,61,0
4020,note_on,0,0,3,,,,,,,,,0,,,64,0
4020,note_on,30,0,1,,,,,,,,,0,,,82,0
4050,note_on,30,0,1,,,,,,,,,0,,,81,0
4050,note_on,0,0,1,,,,,,,,,0,,,79,60
4080,note_on,30,0,1,,,,,,,,,0,,,79,0
4080,note_on,221,0,4,,,,,,,,,0,,,50,70
4082,note_on,2,0,4,,,,,,,,,0,,,57,70
4084,note_on,2,0,4,,,,,,,,,0,,,65,70
4086,note_on,6,0,1,,,,,,,,,0,,,69,70
4088,note_on,2,0,1,,,,,,,,,0,,,77,70
4090,note_on,2,0,1,,,,,,,,,0,,,81,70
4092,note_on,2,0,1,,,,,,,,,0,,,89,70
4095,note_on,11,0,4,,,,,,,,,0,,,50,0
4097,note_on,2,0,4,,,,,,,,,0,,,57,0
4099,note_on,2,0,4,,,,,,,,,0,,,65,0
4101,note_on,9,0,1,,,,,,,,,0,,,69,0
4103,note_on,2,0,1,,,,,,,,,0,,,77,0
4105,note_on,2,0,1,,,,,,,,,0,,,81,0
4107,note_on,2,0,1,,,,,,,,,0,,,89,0
4185,note_on,78,0,1,,,,,,,,,0,,,74,60
4200,note_on,0,0,3,,,,,,,,,0,,,65,60
4200,note_on,0,0,3,,,,,,,,,0,,,69,60
4200,note_on,180,0,3,,,,,,,,,0,,,62,60
4200,note_on,0,0,1,,,,,,,,,0,,,74,60
4200,note_on,15,0,1,,,,,,,,,0,,,74,0
4230,note_on,30,0,1,,,,,,,,,0,,,74,0
4230,note_on,0,0,1,,,,,,,,,0,,,77,60
4260,note_on,0,0,1,,,,,,,,,0,,,76,60
4260,note_on,0,0,3,,,,,,,,,0,,,65,0
4260,note_on,0,0,3,,,,,,,,,0,,,62,0
4260,note_on,30,0,1,,,,,,,,,0,,,77,0
4260,note_on,60,0,3,,,,,,,,,0,,,69,0
4290,note_on,0,0,1,,,,,,,,,0,,,74,60
4290,note_on,30,0,1,,,,,,,,,0,,,76,0
4320,note_on,30,0,1,,,,,,,,,0,,,74,0
4320,note_on,221,0,4,,,,,,,,,0,,,43,70
4322,note_on,2,0,4,,,,,,,,,0,,,50,70
4324,note_on,2,0,4,,,,,,,,,0,,,59,70
4326,note_on,6,0,1,,,,,,,,,0,,,74,70
4328,note_on,2,0,1,,,,,,,,,0,,,79,70
4330,note_on,2,0,1,,,,,,,,,0,,,83,70
4332,note_on,2,0,1,,,,,,,,,0,,,91,70
4335,note_on,11,0,4,,,,,,,,,0,,,43,0
4337,note_on,2,0,4,,,,,,,,,0,,,50,0
4339,note_on,2,0,4,,,,,,,,,0,,,59,0
4341,note_on,9,0,1,,,,,,,,,0,,,74,0
4343,note_on,2,0,1,,,,,,,,,0,,,79,0
4345,note_on,2,0,1,,,,,,,,,0,,,83,0
4347,note_on,2,0,1,,,,,,,,,0,,,91,0
4425,note_on,78,0,1,,,,,,,,,0,,,79,60
4440,note_on,180,0,3,,,,,,,,,0,,,59,60
4440,note_on,0,0,3,,,,,,,,,0,,,67,60
4440,note_on,0,0,3,,,,,,,,,0,,,62,60
4440,note_on,15,0,1,,,,,,,,,0,,,79,0
4440,note_on,0,0,1,,,,,,,,,0,,,79,60
4470,note_on,30,0,1,,,,,,,,,0,,,79,0
4470,note_on,0,0,1,,,,,,,,,0,,,81,60
4500,note_on,60,0,3,,,,,,,,,0,,,67,0
4500,note_on,0,0,3,,,,,,,,,0,,,62,0
4500,note_on,0,0,3,,,,,,,,,0,,,59,0
4500,note_on,30,0,1,,,,,,,,,0,,,81,0
4500,note_on,0,0,1,,,,,,,,,0,,,79,60
4530,note_on,0,0,1,,,,,,,,,0,,,77,60
4530,note_on,30,0,1,,,,,,,,,0,,,79,0
4560,note_on,30,0,1,,,,,,,,,0,,,77,0
4560,note_on,221,0,4,,,,,,,,,0,,,48,70
4562,note_on,2,0,4,,,,,,,,,0,,,55,70
4564,note_on,2,0,4,,,,,,,,,0,,,64,70
4566,note_on,6,0,1,,,,,,,,,0,,,67,70
4568,note_on,2,0,1,,,,,,,,,0,,,76,70
4570,note_on,2,0,1,,,,,,,,,0,,,79,70
4572,note_on,2,0,1,,,,,,,,,0,,,88,70
4575,note_on,11,0,4,,,,,,,,,0,,,48,0
4577,note_on,2,0,4,,,,,,,,,0,,,55,0
4579,note_on,2,0,4,,,,,,,,,0,,,64,0
4581,note_on,9,0,1,,,,,,,,,0,,,67,0
4583,note_on,2,0,1,,,,,,,,,0,,,76,0
4585,note_on,2,0,1,,,,,,,,,0,,,79,0
4587,note_on,2,0,1,,,,,,,,,0,,,88,0
4665,note_on,78,0,1,,,,,,,,,0,,,72,60
4680,note_on,0,0,1,,,,,,,,,0,,,72,60
4680,note_on,180,0,3,,,,,,,,,0,,,64,60
4680,note_on,15,0,1,,,,,,,,,0,,,72,0
4680,note_on,0,0,3,,,,,,,,,0,,,67,60
4710,note_on,0,0,1,,,,,,,,,0,,,76,60
4710,note_on,30,0,1,,,,,,,,,0,,,72,0
4740,note_on,0,0,1,,,,,,,,,0,,,74,60
4740,note_on,30,0,1,,,,,,,,,0,,,76,0
4740,note_on,0,0,3,,,,,,,,,0,,,64,0
4740,note_on,60,0,3,,,,,,,,,0,,,67,0
4770,note_on,30,0,1,,,,,,,,,0,,,74,0
4770,note_on,0,0,1,,,,,,,,,0,,,72,60
4800,note_on,30,0,1,,,,,,,,,0,,,72,0
4800,note_on,221,0,4,,,,,,,,,0,,,50,70
4802,note_on,2,0,4,,,,,,,,,0,,,58,70
4804,note_on,2,0,4,,,,,,,,,0,,,65,70
4806,note_on,6,0,1,,,,,,,,,0,,,70,70
4808,note_on,2,0,1,,,,,,,,,0,,,77,70
4810,note_on,2,0,1,,,,,,,,,0,,,89,70
4815,note_on,11,0,4,,,,,,,,,0,,,50,0
4817,note_on,2,0,4,,,,,,,,,0,,,58,0
4819,note_on,2,0,4,,,,,,,,,0,,,65,0
4821,note_on,11,0,1,,,,,,,,,0,,,70,0
4823,note_on,2,0,1,,,,,,,,,0,,,77,0
4825,note_on,2,0,1,,,,,,,,,0,,,89,0
4905,note_on,80,0,1,,,,,,,,,0,,,70,60
4920,note_on,101,0,4,,,,,,,,,0,,,65,60
4920,note_on,15,0,1,,,,,,,,,0,,,70,0
4920,note_on,0,0,1,,,,,,,,,0,,,70,60
4920,note_on,0,0,4,,,,,,,,,0,,,62,60
4950,note_on,0,0,1,,,,,,,,,0,,,74,60
4950,note_on,30,0,1,,,,,,,,,0,,,70,0
4980,note_on,60,0,4,,,,,,,,,0,,,62,0
4980,note_on,0,0,1,,,,,,,,,0,,,72,60
4980,note_on,0,0,4,,,,,,,,,0,,,65,0
4980,note_on,30,0,1,,,,,,,,,0,,,74,0
5010,note_on,30,0,1,,,,,,,,,0,,,72,0
5010,note_on,0,0,1,,,,,,,,,0,,,70,60
5040,note_on,30,0,1,,,,,,,,,0,,,70,0
5040,note_on,60,0,4,,,,,,,,,0,,,52,70
5042,note_on,2,0,4,,,,,,,,,0,,,60,70
5044,note_on,2,0,4,,,,,,,,,0,,,64,70
5046,note_on,6,0,1,,,,,,,,,0,,,69,70
5048,note_on,2,0,1,,,,,,,,,0,,,76,70
5050,note_on,2,0,1,,,,,,,,,0,,,88,70
5055,note_on,11,0,4,,,,,,,,,0,,,52,0
5057,note_on,2,0,4,,,,,,,,,0,,,60,0
5059,note_on,2,0,4,,,,,,,,,0,,,64,0
5061,note_on,11,0,1,,,,,,,,,0,,,69,0
5063,note_on,2,0,1,,,,,,,,,0,,,76,0
5065,note_on,2,0,1,,,,,,,,,0,,,88,0
5145,note_on,80,0,1,,,,,,,,,0,,,69,60
5160,note_on,0,0,4,,,,,,,,,0,,,60,60
5160,note_on,0,0,1,,,,,,,,,0,,,69,60
5160,note_on,101,0,4,,,,,,,,,0,,,64,60
5160,note_on,15,0,1,,,,,,,,,0,,,69,0
5190,note_on,0,0,1,,,,,,,,,0,,,72,60
5190,note_on,30,0,1,,,,,,,,,0,,,69,0
5220,note_on,0,0,1,,,,,,,,,0,,,71,60
5220,note_on,60,0,4,,,,,,,,,0,,,60,0
5220,note_on,30,0,1,,,,,,,,,0,,,72,0
5220,note_on,0,0,4,,,,,,,,,0,,,64,0
5250,note_on,30,0,1,,,,,,,,,0,,,71,0
5250,note_on,0,0,1,,,,,,,,,0,,,69,60
5280,note_on,60,0,4,,,,,,,,,0,,,53,80
5280,note_on,30,0,1,,,,,,,,,0,,,69,0
5280,note_on,0,0,1,,,,,,,,,0,,,65,80
5370,note_on,90,0,1,,,,,,,,,0,,,75,60
5370,note_on,90,0,4,,,,,,,,,0,,,63,60
5370,note_on,0,0,4,,,,,,,,,0,,,57,60
5400,note_on,0,0,4,,,,,,,,,0,,,63,0
5400,note_on,0,0,4,,,,,,,,,0,,,53,0
5400,note_on,30,0,1,,,,,,,,,0,,,75,0
5400,note_on,0,0,4,,,,,,,,,0,,,52,70
5400,note_on,0,0,1,,,,,,,,,0,,,64,70
5400,note_on,0,0,1,,,,,,,,,0,,,65,0
5400,note_on,30,0,4,,,,,,,,,0,,,57,0
5430,note_on,30,0,1,,,,,,,,,0,,,76,60
5460,note_on,0,0,1,,,,,,,,,0,,,74,60
5460,note_on,30,0,1,,,,,,,,,0,,,76,0
5490,note_on,0,0,1,,,,,,,,,0,,,71,60
5490,note_on,0,0,4,,,,,,,,,0,,,56,60
5490,note_on,90,0,4,,,,,,,,,0,,,62,60
5490,note_on,30,0,1,,,,,,,,,0,,,74,0
5520,note_on,0,0,4,,,,,,,,,0,,,62,0
5520,note_on,0,0,4,,,,,,,,,0,,,57,80
5520,note_on,0,0,4,,,,,,,,,0,,,60,80
5520,note_on,0,0,1,,,,,,,,,0,,,64,0
5520,note_on,30,0,1,,,,,,,,,0,,,71,0
5520,note_on,30,0,4,,,,,,,,,0,,,56,0
5520,note_on,0,0,1,,,,,,,,,0,,,64,80
5520,note_on,0,0,4,,,,,,,,,0,,,52,0
5520,note_on,0,0,1,,,,,,,,,0,,,69,80
5640,note_on,120,0,1,,,,,,,,,0,,,64,0
5640,note_on,0,0,4,,,,,,,,,0,,,57,0
5640,note_on,0,0,4,,,,,,,,,0,,,64,70
5640,note_on,0,0,4,,,,,,,,,0,,,69,70
5640,note_on,0,0,1,,,,,,,,,0,,,81,70
5640,note_on,0,0,1,,,,,,,,,0,,,72,70
5640,note_on,0,0,1,,,,,,,,,0,,,69,0
5640,note_on,120,0,4,,,,,,,,,0,,,60,0
5655,note_on,0,0,4,,,,,,,,,0,,,69,0
5655,note_on,0,0,1,,,,,,,,,0,,,81,0
5655,note_on,15,0,1,,,,,,,,,0,,,72,0
5655,note_on,15,0,4,,,,,,,,,0,,,64,0
5745,note_on,90,0,1,,,,,,,,,0,,,72,60
5752,note_on,7,0,1,,,,,,,,,0,,,81,60
5753,note_on,1,0,1,,,,,,,,,0,,,72,0
5760,note_on,7,0,1,,,,,,,,,0,,,81,0
5760,marker,5760,1,0,,,,,,,,,,,,,
5760,note_on,0,0,1,,,,,,,,,0,,,88,60
5760,note_on,105,0,4,,,,,,,,,0,,,57,70
5775,note_on,15,0,4,,,,,,,,,0,,,57,0
5780,note_on,20,0,1,,,,,,,,,0,,,88,0
5800,note_on,20,0,1,,,,,,,,,0,,,84,60
5820,note_on,20,0,1,,,,,,,,,0,,,84,0
5840,note_on,20,0,1,,,,,,,,,0,,,81,60
5850,note_on,75,0,4,,,,,,,,,0,,,57,70
5860,note_on,20,0,1,,,,,,,,,0,,,81,0
5880,note_on,0,0,4,,,,,,,,,0,,,57,70
5880,note_on,20,0,1,,,,,,,,,0,,,76,60
5880,note_on,30,0,4,,,,,,,,,0,,,57,0
5900,note_on,20,0,1,,,,,,,,,0,,,76,0
5910,note_on,30,0,4,,,,,,,,,0,,,57,0
5910,note_on,0,0,4,,,,,,,,,0,,,60,70
5920,note_on,20,0,1,,,,,,,,,0,,,72,60
5940,note_on,20,0,1,,,,,,,,,0,,,72,0
5940,note_on,0,0,4,,,,,,,,,0,,,59,70
5940,note_on,30,0,4,,,,,,,,,0,,,60,0
5960,note_on,20,0,1,,,,,,,,,0,,,69,60
5970,note_on,0,0,4,,,,,,,,,0,,,57,70
5970,note_on,30,0,4,,,,,,,,,0,,,59,0
5980,note_on,20,0,1,,,,,,,,,0,,,69,0
5985,note_on,5,0,1,,,,,,,,,0,,,68,60
5992,note_on,7,0,1,,,,,,,,,0,,,76,60
5993,note_on,1,0,1,,,,,,,,,0,,,68,0
6000,note_on,7,0,1,,,,,,,,,0,,,76,0
6000,note_on,30,0,4,,,,,,,,,0,,,57,0
6000,note_on,0,0,1,,,,,,,,,0,,,83,60
6000,note_on,0,0,4,,,,,,,,,0,,,64,70
6015,note_on,15,0,4,,,,,,,,,0,,,64,0
6020,note_on,20,0,1,,,,,,,,,0,,,83,0
6040,note_on,20,0,1,,,,,,,,,0,,,80,60
6060,note_on,20,0,1,,,,,,,,,0,,,80,0
6080,note_on,20,0,1,,,,,,,,,0,,,76,60
6090,note_on,75,0,4,,,,,,,,,0,,,52,70
6100,note_on,20,0,1,,,,,,,,,0,,,76,0
6120,note_on,0,0,4,,,,,,,,,0,,,52,70
6120,note_on,30,0,4,,,,,,,,,0,,,52,0
6120,note_on,20,0,1,,,,,,,,,0,,,71,60
6140,note_on,20,0,1,,,,,,,,,0,,,71,0
6150,note_on,0,0,4,,,,,,,,,0,,,55,70
6150,note_on,30,0,4,,,,,,,,,0,,,52,0
6160,note_on,20,0,1,,,,,,,,,0,,,68,60
6180,note_on,20,0,1,,,,,,,,,0,,,68,0
6180,note_on,0,0,4,,,,,,,,,0,,,53,70
6180,note_on,30,0,4,,,,,,,,,0,,,55,0
6200,note_on,20,0,1,,,,,,,,,0,,,64,60
6210,note_on,0,0,4,,,,,,,,,0,,,52,70
6210,note_on,30,0,4,,,,,,,,,0,,,53,0
6220,note_on,20,0,1,,,,,,,,,0,,,64,0
6225,note_on,5,0,1,,,,,,,,,0,,,72,60
6232,note_on,7,0,1,,,,,,,,,0,,,81,60
6233,note_on,1,0,1,,,,,,,,,0,,,72,0
6240,note_on,0,0,4,,,,,,,,,0,,,57,70
6240,note_on,0,0,1,,,,,,,,,0,,,88,60
6240,note_on,7,0,1,,,,,,,,,0,,,81,0
6240,note_on,30,0,4,,,,,,,,,0,,,52,0
6255,note_on,15,0,4,,,,,,,,,0,,,57,0
6260,note_on,20,0,1,,,,,,,,,0,,,88,0
6280,note_on,20,0,1,,,,,,,,,0,,,84,60
6300,note_on,20,0,1,,,,,,,,,0,,,84,0
6320,note_on,20,0,1,,,,,,,,,0,,,81,60
6330,note_on,75,0,4,,,,,,,,,0,,,57,70
6340,note_on,20,0,1,,,,,,,,,0,,,81,0
6360,note_on,20,0,1,,,,,,,,,0,,,76,60
6360,note_on,0,0,4,,,,,,,,,0,,,57,70
6360,note_on,30,0,4,,,,,,,,,0,,,57,0
6380,note_on,20,0,1,,,,,,,,,0,,,76,0
6390,note_on,30,0,4,,,,,,,,,0,,,57,0
6390,note_on,0,0,4,,,,,,,,,0,,,60,70
6400,note_on,20,0,1,,,,,,,,,0,,,72,60
6420,note_on,30,0,4,,,,,,,,,0,,,60,0
6420,note_on,20,0,1,,,,,,,,,0,,,72,0
6420,note_on,0,0,4,,,,,,,,,0,,,59,70
6440,note_on,20,0,1,,,,,,,,,0,,,69,60
6450,note_on,30,0,4,,,,,,,,,0,,,59,0
6450,note_on,0,0,4,,,,,,,,,0,,,57,70
6460,note_on,20,0,1,,,,,,,,,0,,,69,0
6480,note_on,0,0,4,,,,,,,,,0,,,64,80
6480,note_on,30,0,4,,,,,,,,,0,,,57,0
6520,note_on,60,0,1,,,,,,,,,0,,,68,60
6520,note_on,0,0,1,,,,,,,,,0,,,76,60
6540,note_on,20,0,1,,,,,,,,,0,,,76,0
6540,note_on,0,0,1,,,,,,,,,0,,,68,0
6560,note_on,20,0,1,,,,,,,,,0,,,71,60
6560,note_on,0,0,1,,,,,,,,,0,,,80,60
6580,note_on,20,0,1,,,,,,,,,0,,,80,0
6580,note_on,0,0,1,,,,,,,,,0,,,71,0
6600,note_on,120,0,4,,,,,,,,,0,,,64,0
6600,note_on,0,0,1,,,,,,,,,0,,,76,60
6600,note_on,20,0,1,,,,,,,,,0,,,88,60
6600,note_on,0,0,4,,,,,,,,,0,,,52,70
6615,note_on,0,0,1,,,,,,,,,0,,,88,0
6615,note_on,15,0,1,,,,,,,,,0,,,76,0
6615,note_on,15,0,4,,,,,,,,,0,,,52,0
6705,note_on,90,0,1,,,,,,,,,0,,,72,60
6712,note_on,7,0,1,,,,,,,,,0,,,81,60
6713,note_on,1,0,1,,,,,,,,,0,,,72,0
6720,note_on,7,0,1,,,,,,,,,0,,,81,0
6720,note_on,0,0,1,,,,,,,,,0,,,88,60
6720,note_on,105,0,4,,,,,,,,,0,,,57,70
6735,note_on,15,0,4,,,,,,,,,0,,,57,0
6740,note_on,20,0,1,,,,,,,,,0,,,88,0
6760,note_on,20,0,1,,,,,,,,,0,,,84,60
6780,note_on,20,0,1,,,,,,,,,0,,,84,0
6800,note_on,20,0,1,,,,,,,,,0,,,81,60
6810,note_on,75,0,4,,,,,,,,,0,,,57,70
6820,note_on,20,0,1,,,,,,,,,0,,,81,0
6840,note_on,20,0,1,,,,,,,,,0,,,76,60
6840,note_on,0,0,4,,,,,,,,,0,,,57,70
6840,note_on,30,0,4,,,,,,,,,0,,,57,0
6860,note_on,20,0,1,,,,,,,,,0,,,76,0
6870,note_on,30,0,4,,,,,,,,,0,,,57,0
6870,note_on,0,0,4,,,,,,,,,0,,,60,70
6880,note_on,20,0,1,,,,,,,,,0,,,72,60
6900,note_on,30,0,4,,,,,,,,,0,,,60,0
6900,note_on,0,0,4,,,,,,,,,0,,,59,70
6900,note_on,20,0,1,,,,,,,,,0,,,72,0
6920,note_on,20,0,1,,,,,,,,,0,,,69,60
6930,note_on,0,0,4,,,,,,,,,0,,,57,70
6930,note_on,30,0,4,,,,,,,,,0,,,59,0
6940,note_on,20,0,1,,,,,,,,,0,,,69,0
6945,note_on,5,0,1,,,,,,,,,0,,,68,60
6952,note_on,7,0,1,,,,,,,,,0,,,76,60
6953,note_on,1,0,1,,,,,,,,,0,,,68,0
6960,note_on,0,0,4,,,,,,,,,0,,,64,70
6960,note_on,7,0,1,,,,,,,,,0,,,76,0
6960,note_on,30,0,4,,,,,,,,,0,,,57,0
6960,note_on,0,0,1,,,,,,,,,0,,,83,60
6975,note_on,15,0,4,,,,,,,,,0,,,64,0
6980,note_on,20,0,1,,,,,,,,,0,,,83,0
7000,note_on,20,0,1,,,,,,,,,0,,,80,60
7020,note_on,20,0,1,,,,,,,,,0,,,80,0
7040,note_on,20,0,1,,,,,,,,,0,,,76,60
7050,note_on,75,0,4,,,,,,,,,0,,,52,70
7060,note_on,20,0,1,,,,,,,,,0,,,76,0
7080,note_on,30,0,4,,,,,,,,,0,,,52,0
7080,note_on,0,0,4,,,,,,,,,0,,,52,70
7080,note_on,20,0,1,,,,,,,,,0,,,71,60
7100,note_on,20,0,1,,,,,,,,,0,,,71,0
7110,note_on,0,0,4,,,,,,,,,0,,,55,70
7110,note_on,30,0,4,,,,,,,,,0,,,52,0
7120,note_on,20,0,1,,,,,,,,,0,,,68,60
7140,note_on,30,0,4,,,,,,,,,0,,,55,0
7140,note_on,20,0,1,,,,,,,,,0,,,68,0
7140,note_on,0,0,4,,,,,,,,,0,,,53,70
7160,note_on,20,0,1,,,,,,,,,0,,,64,60
7170,note_on,30,0,4,,,,,,,,,0,,,53,0
7170,note_on,0,0,4,,,,,,,,,0,,,52,70
7180,note_on,20,0,1,,,,,,,,,0,,,64,0
7185,note_on,5,0,1,,,,,,,,,0,,,72,60
7192,note_on,7,0,1,,,,,,,,,0,,,81,60
7193,note_on,1,0,1,,,,,,,,,0,,,72,0
7200,note_on,7,0,1,,,,,,,,,0,,,81,0
7200,note_on,30,0,4,,,,,,,,,0,,,52,0
7200,note_on,0,0,1,,,,,,,,,0,,,88,60
7200,note_on,0,0,4,,,,,,,,,0,,,57,70
7215,note_on,15,0,4,,,,,,,,,0,,,57,0
7220,note_on,20,0,1,,,,,,,,,0,,,88,0
7240,note_on,20,0,1,,,,,,,,,0,,,84,60
7260,note_on,20,0,1,,,,,,,,,0,,,84,0
7280,note_on,20,0,1,,,,,,,,,0,,,81,60
7290,note_on,75,0,4,,,,,,,,,0,,,57,70
7300,note_on,20,0,1,,,,,,,,,0,,,81,0
7320,note_on,30,0,4,,,,,,,,,0,,,57,0
7320,note_on,20,0,1,,,,,,,,,0,,,76,60
7320,note_on,0,0,4,,,,,,,,,0,,,57,70
7340,note_on,20,0,1,,,,,,,,,0,,,76,0
7350,note_on,30,0,4,,,,,,,,,0,,,57,0
7350,note_on,0,0,4,,,,,,,,,0,,,60,70
7360,note_on,20,0,1,,,,,,,,,0,,,72,60
7380,note_on,20,0,1,,,,,,,,,0,,,72,0
7380,note_on,30,0,4,,,,,,,,,0,,,60,0
7380,note_on,0,0,4,,,,,,,,,0,,,59,70
7400,note_on,20,0,1,,,,,,,,,0,,,69,60
7410,note_on,30,0,4,,,,,,,,,0,,,59,0
7410,note_on,0,0,4,,,,,,,,,0,,,57,70
7420,note_on,20,0,1,,,,,,,,,0,,,69,0
7440,note_on,0,0,4,,,,,,,,,0,,,64,80
7440,note_on,30,0,4,,,,,,,,,0,,,57,0
7480,note_on,0,0,1,,,,,,,,,0,,,76,60
7480,note_on,60,0,1,,,,,,,,,0,,,68,60
7500,note_on,0,0,1,,,,,,,,,0,,,68,0
7500,note_on,20,0,1,,,,,,,,,0,,,76,0
7520,note_on,0,0,1,,,,,,,,,0,,,80,60
7520,note_on,20,0,1,,,,,,,,,0,,,71,60
7540,note_on,20,0,1,,,,,,,,,0,,,80,0
7540,note_on,0,0,1,,,,,,,,,0,,,71,0
7560,note_on,0,0,4,,,,,,,,,0,,,52,70
7560,note_on,0,0,1,,,,,,,,,0,,,76,60
7560,note_on,20,0,1,,,,,,,,,0,,,88,60
7560,note_on,120,0,4,,,,,,,,,0,,,64,0
7575,note_on,15,0,4,,,,,,,,,0,,,52,0
7575,note_on,15,0,1,,,,,,,,,0,,,76,0
7575,note_on,0,0,1,,,,,,,,,0,,,88,0
7680,note_on,2940,0,3,,,,,,,,,0,,,57,60
7680,note_on,105,0,1,,,,,,,,,0,,,81,60
7685,note_on,5,0,3,,,,,,,,,0,,,64,60
7685,note_on,5,0,1,,,,,,,,,0,,,85,60
7690,note_on,5,0,3,,,,,,,,,0,,,69,70
7690,note_on,5,0,1,,,,,,,,,0,,,93,60
7700,note_on,10,0,1,,,,,,,,,0,,,81,0
7705,note_on,5,0,1,,,,,,,,,0,,,85,0
7705,note_on,15,0,3,,,,,,,,,0,,,69,0
7710,note_on,5,0,1,,,,,,,,,0,,,93,0
7720,note_on,10,0,1,,,,,,,,,0,,,88,60
7740,note_on,20,0,1,,,,,,,,,0,,,88,0
7740,note_on,35,0,3,,,,,,,,,0,,,64,0
7740,note_on,0,0,3,,,,,,,,,0,,,57,0
7760,note_on,20,0,1,,,,,,,,,0,,,85,60
7770,note_on,30,0,3,,,,,,,,,0,,,69,70
7780,note_on,20,0,1,,,,,,,,,0,,,85,0
7800,note_on,0,0,3,,,,,,,,,0,,,69,70
7800,note_on,30,0,3,,,,,,,,,0,,,69,0
7800,note_on,20,0,1,,,,,,,,,0,,,81,60
7820,note_on,20,0,1,,,,,,,,,0,,,81,0
7830,note_on,0,0,3,,,,,,,,,0,,,70,70
7830,note_on,30,0,3,,,,,,,,,0,,,69,0
7840,note_on,20,0,1,,,,,,,,,0,,,76,60
7860,note_on,20,0,1,,,,,,,,,0,,,76,0
7860,note_on,30,0,3,,,,,,,,,0,,,70,0
7860,note_on,0,0,3,,,,,,,,,0,,,69,70
7880,note_on,20,0,1,,,,,,,,,0,,,73,60
7890,note_on,30,0,3,,,,,,,,,0,,,69,0
7890,note_on,0,0,3,,,,,,,,,0,,,67,70
7900,note_on,20,0,1,,,,,,,,,0,,,73,0
7920,note_on,30,0,3,,,,,,,,,0,,,67,0
7920,note_on,345,0,4,,,,,,,,,0,,,50,60
7925,note_on,5,0,4,,,,,,,,,0,,,65,70
7940,note_on,15,0,4,,,,,,,,,0,,,65,0
7960,note_on,0,0,1,,,,,,,,,0,,,74,60
7960,note_on,60,0,1,,,,,,,,,0,,,69,60
7980,note_on,0,0,1,,,,,,,,,0,,,69,0
7980,note_on,40,0,4,,,,,,,,,0,,,50,0
7980,note_on,20,0,1,,,,,,,,,0,,,74,0
8000,note_on,0,0,1,,,,,,,,,0,,,74,60
8000,note_on,20,0,1,,,,,,,,,0,,,77,60
8010,note_on,30,0,4,,,,,,,,,0,,,62,70
8020,note_on,0,0,1,,,,,,,,,0,,,77,0
8020,note_on,20,0,1,,,,,,,,,0,,,74,0
8040,note_on,0,0,1,,,,,,,,,0,,,81,60
8040,note_on,20,0,1,,,,,,,,,0,,,77,60
8040,note_on,30,0,4,,,,,,,,,0,,,62,0
8040,note_on,0,0,4,,,,,,,,,0,,,62,70
8060,note_on,0,0,1,,,,,,,,,0,,,77,0
8060,note_on,20,0,1,,,,,,,,,0,,,81,0
8070,note_on,0,0,4,,,,,,,,,0,,,65,70
8070,note_on,30,0,4,,,,,,,,,0,,,62,0
8080,note_on,0,0,1,,,,,,,,,0,,,81,60
8080,note_on,20,0,1,,,,,,,,,0,,,86,60
8100,note_on,20,0,1,,,,,,,,,0,,,81,0
8100,note_on,0,0,4,,,,,,,,,0,,,64,70
8100,note_on,30,0,4,,,,,,,,,0,,,65,0
8100,note_on,0,0,1,,,,,,,,,0,,,86,0
8120,note_on,20,0,1,,,,,,,,,0,,,86,60
8120,note_on,0,0,1,,,,,,,,,0,,,89,60
8130,note_on,30,0,4,,,,,,,,,0,,,64,0
8130,note_on,0,0,4,,,,,,,,,0,,,62,70
8140,note_on,20,0,1,,,,,,,,,0,,,89,0
8140,note_on,0,0,1,,,,,,,,,0,,,86,0
8160,note_on,240,0,3,,,,,,,,,0,,,55,60
8160,note_on,20,0,1,,,,,,,,,0,,,79,60
8160,note_on,30,0,4,,,,,,,,,0,,,62,0
8165,note_on,5,0,1,,,,,,,,,0,,,83,60
8165,note_on,5,0,3,,,,,,,,,0,,,62,60
8170,note_on,5,0,1,,,,,,,,,0,,,91,60
8170,note_on,5,0,3,,,,,,,,,0,,,67,70
8180,note_on,10,0,1,,,,,,,,,0,,,79,0
8185,note_on,15,0,3,,,,,,,,,0,,,67,0
8185,note_on,5,0,1,,,,,,,,,0,,,83,0
8190,note_on,5,0,1,,,,,,,,,0,,,91,0
8200,note_on,10,0,1,,,,,,,,,0,,,86,60
8220,note_on,35,0,3,,,,,,,,,0,,,62,0
8220,note_on,20,0,1,,,,,,,,,0,,,86,0
8220,note_on,0,0,3,,,,,,,,,0,,,55,0
8240,note_on,20,0,1,,,,,,,,,0,,,83,60
8250,note_on,30,0,3,,,,,,,,,0,,,67,70
8260,note_on,20,0,1,,,,,,,,,0,,,83,0
8280,note_on,30,0,3,,,,,,,,,0,,,67,0
8280,note_on,20,0,1,,,,,,,,,0,,,79,60
8280,note_on,0,0,3,,,,,,,,,0,,,67,70
8300,note_on,20,0,1,,,,,,,,,0,,,79,0
8310,note_on,30,0,3,,,,,,,,,0,,,67,0
8310,note_on,0,0,3,,,,,,,,,0,,,69,70
8320,note_on,20,0,1,,,,,,,,,0,,,74,60
8340,note_on,0,0,3,,,,,,,,,0,,,67,70
8340,note_on,20,0,1,,,,,,,,,0,,,74,0
8340,note_on,30,0,3,,,,,,,,,0,,,69,0
8360,note_on,20,0,1,,,,,,,,,0,,,71,60
8370,note_on,0,0,3,,,,,,,,,0,,,65,70
8370,note_on,30,0,3,,,,,,,,,0,,,67,0
8380,note_on,20,0,1,,,,,,,,,0,,,71,0
8400,note_on,30,0,3,,,,,,,,,0,,,65,0
8400,note_on,240,0,4,,,,,,,,,0,,,48,60
8405,note_on,5,0,4,,,,,,,,,0,,,64,70
8420,note_on,15,0,4,,,,,,,,,0,,,64,0
8440,note_on,0,0,1,,,,,,,,,0,,,67,60
8440,note_on,60,0,1,,,,,,,,,0,,,72,60
8460,note_on,20,0,1,,,,,,,,,0,,,67,0
8460,note_on,40,0,4,,,,,,,,,0,,,48,0
8460,note_on,0,0,1,,,,,,,,,0,,,72,0
8480,note_on,0,0,1,,,,,,,,,0,,,72,60
8480,note_on,20,0,1,,,,,,,,,0,,,76,60
8490,note_on,30,0,4,,,,,,,,,0,,,60,70
8500,note_on,0,0,1,,,,,,,,,0,,,76,0
8500,note_on,20,0,1,,,,,,,,,0,,,72,0
8520,note_on,0,0,4,,,,,,,,,0,,,60,70
8520,note_on,0,0,1,,,,,,,,,0,,,79,60
8520,note_on,30,0,4,,,,,,,,,0,,,60,0
8520,note_on,20,0,1,,,,,,,,,0,,,76,60
8540,note_on,20,0,1,,,,,,,,,0,,,79,0
8540,note_on,0,0,1,,,,,,,,,0,,,76,0
8550,note_on,0,0,4,,,,,,,,,0,,,64,70
8550,note_on,30,0,4,,,,,,,,,0,,,60,0
8560,note_on,20,0,1,,,,,,,,,0,,,84,60
8560,note_on,0,0,1,,,,,,,,,0,,,79,60
8580,note_on,0,0,4,,,,,,,,,0,,,62,70
8580,note_on,30,0,4,,,,,,,,,0,,,64,0
8580,note_on,20,0,1,,,,,,,,,0,,,79,0
8580,note_on,0,0,1,,,,,,,,,0,,,84,0
8600,note_on,20,0,1,,,,,,,,,0,,,88,60
8600,note_on,0,0,1,,,,,,,,,0,,,84,60
8610,note_on,0,0,4,,,,,,,,,0,,,60,70
8610,note_on,30,0,4,,,,,,,,,0,,,62,0
8620,note_on,0,0,1,,,,,,,,,0,,,88,0
8620,note_on,20,0,1,,,,,,,,,0,,,84,0
8640,note_on,30,0,4,,,,,,,,,0,,,60,0
8640,note_on,0,0,4,,,,,,,,,0,,,50,60
8640,note_on,20,0,1,,,,,,,,,0,,,89,60
8640,note_on,0,0,1,,,,,,,,,0,,,83,60
8645,note_on,5,0,4,,,,,,,,,0,,,56,60
8650,note_on,5,0,4,,,,,,,,,0,,,65,70
8660,note_on,20,0,1,,,,,,,,,0,,,83,0
8660,note_on,0,0,1,,,,,,,,,0,,,89,0
8665,note_on,15,0,4,,,,,,,,,0,,,65,0
8680,note_on,0,0,1,,,,,,,,,0,,,80,60
8680,note_on,20,0,1,,,,,,,,,0,,,86,60
8700,note_on,35,0,4,,,,,,,,,0,,,56,0
8700,note_on,0,0,1,,,,,,,,,0,,,86,0
8700,note_on,0,0,4,,,,,,,,,0,,,50,0
8700,note_on,20,0,1,,,,,,,,,0,,,80,0
8720,note_on,20,0,1,,,,,,,,,0,,,77,60
8720,note_on,0,0,1,,,,,,,,,0,,,83,60
8730,note_on,30,0,4,,,,,,,,,0,,,59,70
8740,note_on,0,0,1,,,,,,,,,0,,,77,0
8740,note_on,20,0,1,,,,,,,,,0,,,83,0
8760,note_on,30,0,4,,,,,,,,,0,,,59,0
8760,note_on,0,0,4,,,,,,,,,0,,,59,70
8760,note_on,20,0,1,,,,,,,,,0,,,74,60
8760,note_on,0,0,1,,,,,,,,,0,,,80,60
8780,note_on,0,0,1,,,,,,,,,0,,,74,0
8780,note_on,20,0,1,,,,,,,,,0,,,80,0
8790,note_on,0,0,4,,,,,,,,,0,,,62,70
8790,note_on,30,0,4,,,,,,,,,0,,,59,0
8800,note_on,20,0,1,,,,,,,,,0,,,71,60
8800,note_on,0,0,1,,,,,,,,,0,,,77,60
8820,note_on,0,0,4,,,,,,,,,0,,,60,70
8820,note_on,20,0,1,,,,,,,,,0,,,77,0
8820,note_on,30,0,4,,,,,,,,,0,,,62,0
8820,note_on,0,0,1,,,,,,,,,0,,,71,0
8840,note_on,20,0,1,,,,,,,,,0,,,74,60
8850,note_on,30,0,4,,,,,,,,,0,,,60,0
8850,note_on,0,0,4,,,,,,,,,0,,,59,70
8860,note_on,20,0,1,,,,,,,,,0,,,74,0
8865,note_on,5,0,1,,,,,,,,,0,,,76,60
8872,note_on,7,0,1,,,,,,,,,0,,,81,60
8873,note_on,1,0,1,,,,,,,,,0,,,76,0
8880,note_on,30,0,4,,,,,,,,,0,,,59,0
8880,note_on,0,0,1,,,,,,,,,0,,,88,60
8880,note_on,0,0,4,,,,,,,,,0,,,48,60
8880,note_on,7,0,1,,,,,,,,,0,,,81,0
8885,note_on,5,0,4,,,,,,,,,0,,,64,70
8900,note_on,20,0,1,,,,,,,,,0,,,88,0
8900,note_on,15,0,4,,,,,,,,,0,,,64,0
8920,note_on,20,0,1,,,,,,,,,0,,,84,60
8940,note_on,20,0,1,,,,,,,,,0,,,84,0
8940,note_on,40,0,4,,,,,,,,,0,,,48,0
8960,note_on,20,0,1,,,,,,,,,0,,,81,60
8970,note_on,30,0,4,,,,,,,,,0,,,57,70
8980,note_on,20,0,1,,,,,,,,,0,,,81,0
9000,note_on,20,0,1,,,,,,,,,0,,,76,60
9000,note_on,30,0,4,,,,,,,,,0,,,57,0
9000,note_on,0,0,4,,,,,,,,,0,,,57,70
9020,note_on,20,0,1,,,,,,,,,0,,,76,0
9030,note_on,30,0,4,,,,,,,,,0,,,57,0
9030,note_on,0,0,4,,,,,,,,,0,,,60,70
9040,note_on,20,0,1,,,,,,,,,0,,,72,60
9060,note_on,30,0,4,,,,,,,,,0,,,60,0
9060,note_on,0,0,4,,,,,,,,,0,,,59,70
9060,note_on,20,0,1,,,,,,,,,0,,,72,0
9080,note_on,20,0,1,,,,,,,,,0,,,69,60
9090,note_on,0,0,4,,,,,,,,,0,,,57,70
9090,note_on,30,0,4,,,,,,,,,0,,,59,0
9100,note_on,20,0,1,,,,,,,,,0,,,69,0
9120,note_on,0,0,4,,,,,,,,,0,,,53,80
9120,note_on,30,0,4,,,,,,,,,0,,,57,0
9160,note_on,60,0,1,,,,,,,,,0,,,71,60
9160,note_on,0,0,1,,,,,,,,,0,,,63,60
9180,note_on,0,0,1,,,,,,,,,0,,,71,0
9180,note_on,20,0,1,,,,,,,,,0,,,63,0
9200,note_on,20,0,1,,,,,,,,,0,,,75,60
9200,note_on,0,0,1,,,,,,,,,0,,,69,60
9210,note_on,90,0,4,,,,,,,,,0,,,59,60
9220,note_on,0,0,1,,,,,,,,,0,,,75,0
9220,note_on,20,0,1,,,,,,,,,0,,,69,0
9240,note_on,0,0,4,,,,,,,,,0,,,52,70
9240,note_on,30,0,4,,,,,,,,,0,,,59,0
9240,note_on,0,0,4,,,,,,,,,0,,,53,0
9270,note_on,30,0,4,,,,,,,,,0,,,64,60
9280,note_on,60,0,1,,,,,,,,,0,,,76,60
9280,note_on,0,0,1,,,,,,,,,0,,,68,60
9300,note_on,20,0,1,,,,,,,,,0,,,68,0
9300,note_on,30,0,4,,,,,,,,,0,,,64,0
9300,note_on,0,0,1,,,,,,,,,0,,,76,0
9300,note_on,0,0,4,,,,,,,,,0,,,62,60
9320,note_on,0,0,1,,,,,,,,,0,,,71,60
9320,note_on,20,0,1,,,,,,,,,0,,,80,60
9330,note_on,30,0,4,,,,,,,,,0,,,62,0
9330,note_on,0,0,4,,,,,,,,,0,,,59,60
9340,note_on,20,0,1,,,,,,,,,0,,,71,0
9340,note_on,0,0,1,,,,,,,,,0,,,80,0
9360,note_on,30,0,4,,,,,,,,,0,,,59,0
9360,note_on,0,0,4,,,,,,,,,0,,,57,70
9360,note_on,0,0,4,,,,,,,,,0,,,52,0
9400,note_on,60,0,1,,,,,,,,,0,,,81,60
9400,note_on,0,0,1,,,,,,,,,0,,,72,60
9420,note_on,0,0,1,,,,,,,,,0,,,81,0
9420,note_on,20,0,1,,,,,,,,,0,,,72,0
9440,note_on,0,0,1,,,,,,,,,0,,,76,60
9440,note_on,20,0,1,,,,,,,,,0,,,84,60
9460,note_on,0,0,1,,,,,,,,,0,,,84,0
9460,note_on,20,0,1,,,,,,,,,0,,,76,0
9480,note_on,1080,0,3,,,,,,,,,0,,,72,60
9480,note_on,20,0,1,,,,,,,,,0,,,93,60
9480,note_on,120,0,4,,,,,,,,,0,,,57,0
9480,note_on,0,0,3,,,,,,,,,0,,,64,60
9480,note_on,0,0,1,,,,,,,,,0,,,81,60
9495,note_on,0,0,3,,,,,,,,,0,,,72,0
9495,note_on,0,0,1,,,,,,,,,0,,,93,0
9495,note_on,15,0,3,,,,,,,,,0,,,64,0
9495,note_on,15,0,1,,,,,,,,,0,,,81,0
9600,marker,3840,1,0,,,,,,,,,,,,,
9600,note_on,120,0,4,,,,,,,,,0,,,45,60
9600,note_on,0,0,4,,,,,,,,,0,,,41,70
9630,note_on,30,0,4,,,,,,,,,0,,,45,0
9630,note_on,0,0,4,,,,,,,,,0,,,44,60
9660,note_on,30,0,4,,,,,,,,,0,,,44,0
9660,note_on,0,0,4,,,,,,,,,0,,,45,60
9690,note_on,0,0,4,,,,,,,,,0,,,44,60
9690,note_on,30,0,4,,,,,,,,,0,,,45,0
9712,note_on,9712,0,2,,,,,,,,,0,,,46,60
9720,note_on,30,0,4,,,,,,,,,0,,,44,0
9720,note_on,0,0,2,,,,,,,,,0,,,45,90
9720,note_on,0,0,4,,,,,,,,,0,,,41,0
9720,note_on,8,0,2,,,,,,,,,0,,,46,0
9750,note_on,0,0,2,,,,,,,,,0,,,47,60
9750,note_on,30,0,2,,,,,,,,,0,,,45,0
9780,note_on,0,0,2,,,,,,,,,0,,,48,60
9780,note_on,30,0,2,,,,,,,,,0,,,47,0
9810,note_on,0,0,2,,,,,,,,,0,,,50,60
9810,note_on,30,0,2,,,,,,,,,0,,,48,0
9840,note_on,120,0,4,,,,,,,,,0,,,52,60
9840,note_on,0,0,4,,,,,,,,,0,,,40,70
9840,note_on,0,0,4,,,,,,,,,0,,,44,70
9840,note_on,30,0,2,,,,,,,,,0,,,50,0
9870,note_on,30,0,4,,,,,,,,,0,,,52,0
9870,note_on,0,0,4,,,,,,,,,0,,,51,60
9900,note_on,0,0,4,,,,,,,,,0,,,52,60
9900,note_on,30,0,4,,,,,,,,,0,,,51,0
9930,note_on,30,0,4,,,,,,,,,0,,,52,0
9930,note_on,0,0,4,,,,,,,,,0,,,51,60
9952,note_on,112,0,2,,,,,,,,,0,,,53,60
9960,note_on,8,0,2,,,,,,,,,0,,,53,0
9960,note_on,0,0,2,,,,,,,,,0,,,52,90
9960,note_on,0,0,4,,,,,,,,,0,,,44,0
9960,note_on,0,0,4,,,,,,,,,0,,,40,0
9960,note_on,30,0,4,,,,,,,,,0,,,51,0
9990,note_on,30,0,2,,,,,,,,,0,,,52,0
9990,note_on,0,0,2,,,,,,,,,0,,,50,60
10020,note_on,0,0,2,,,,,,,,,0,,,48,60
10020,note_on,30,0,2,,,,,,,,,0,,,50,0
10050,note_on,0,0,2,,,,,,,,,0,,,47,60
10050,note_on,30,0,2,,,,,,,,,0,,,48,0
10080,note_on,30,0,2,,,,,,,,,0,,,47,0
10080,note_on,120,0,4,,,,,,,,,0,,,45,60
10080,note_on,0,0,4,,,,,,,,,0,,,41,70
10110,note_on,30,0,4,,,,,,,,,0,,,45,0
10110,note_on,0,0,4,,,,,,,,,0,,,44,60
10140,note_on,0,0,4,,,,,,,,,0,,,45,60
10140,note_on,30,0,4,,,,,,,,,0,,,44,0
10170,note_on,30,0,4,,,,,,,,,0,,,45,0
10170,note_on,0,0,4,,,,,,,,,0,,,44,60
10192,note_on,112,0,2,,,,,,,,,0,,,46,60
10200,note_on,0,0,2,,,,,,,,,0,,,45,90
10200,note_on,30,0,4,,,,,,,,,0,,,44,0
10200,note_on,8,0,2,,,,,,,,,0,,,46,0
10200,note_on,0,0,4,,,,,,,,,0,,,41,0
10230,note_on,30,0,2,,,,,,,,,0,,,45,0
10230,note_on,0,0,2,,,,,,,,,0,,,47,60
10260,note_on,30,0,2,,,,,,,,,0,,,47,0
10260,note_on,0,0,2,,,,,,,,,0,,,48,60
10290,note_on,30,0,2,,,,,,,,,0,,,48,0
10290,note_on,0,0,2,,,,,,,,,0,,,50,60
10320,note_on,120,0,4,,,,,,,,,0,,,52,60
10320,note_on,30,0,2,,,,,,,,,0,,,50,0
10320,note_on,0,0,4,,,,,,,,,0,,,44,70
10320,note_on,0,0,4,,,,,,,,,0,,,40,70
10350,note_on,0,0,4,,,,,,,,,0,,,51,60
10350,note_on,30,0,4,,,,,,,,,0,,,52,0
10380,note_on,30,0,4,,,,,,,,,0,,,51,0
10380,note_on,0,0,4,,,,,,,,,0,,,52,60
10410,note_on,0,0,4,,,,,,,,,0,,,51,60
10410,note_on,30,0,4,,,,,,,,,0,,,52,0
10432,note_on,112,0,2,,,,,,,,,0,,,53,60
10440,note_on,0,0,2,,,,,,,,,0,,,52,60
10440,note_on,0,0,4,,,,,,,,,0,,,40,0
10440,note_on,0,0,4,,,,,,,,,0,,,44,0
10440,note_on,30,0,4,,,,,,,,,0,,,51,0
10440,note_on,8,0,2,,,,,,,,,0,,,53,0
10455,note_on,15,0,2,,,,,,,,,0,,,52,0
10560,note_on,120,0,4,,,,,,,,,0,,,57,60
10560,note_on,0,0,4,,,,,,,,,0,,,53,70
10590,note_on,0,0,4,,,,,,,,,0,,,56,60
10590,note_on,30,0,4,,,,,,,,,0,,,57,0
10620,note_on,30,0,4,,,,,,,,,0,,,56,0
10620,note_on,0,0,4,,,,,,,,,0,,,57,60
10650,note_on,0,0,4,,,,,,,,,0,,,56,60
10650,note_on,30,0,4,,,,,,,,,0,,,57,0
10672,note_on,1177,0,1,,,,,,,,,0,,,58,60
10680,note_on,30,0,4,,,,,,,,,0,,,56,0
10680,note_on,8,0,1,,,,,,,,,0,,,58,0
10680,note_on,0,0,1,,,,,,,,,0,,,57,90
10680,note_on,0,0,4,,,,,,,,,0,,,53,0
10710,note_on,0,0,1,,,,,,,,,0,,,59,60
10710,note_on,30,0,1,,,,,,,,,0,,,57,0
10740,note_on,0,0,1,,,,,,,,,0,,,60,60
10740,note_on,30,0,1,,,,,,,,,0,,,59,0
10770,note_on,0,0,1,,,,,,,,,0,,,62,60
10770,note_on,30,0,1,,,,,,,,,0,,,60,0
10800,note_on,0,0,4,,,,,,,,,0,,,52,70
10800,note_on,0,0,4,,,,,,,,,0,,,56,70
10800,note_on,30,0,1,,,,,,,,,0,,,62,0
10800,note_on,120,0,4,,,,,,,,,0,,,64,60
10830,note_on,30,0,4,,,,,,,,,0,,,64,0
10830,note_on,0,0,4,,,,,,,,,0,,,63,60
10860,note_on,0,0,4,,,,,,,,,0,,,64,60
10860,note_on,30,0,4,,,,,,,,,0,,,63,0
10890,note_on,0,0,4,,,,,,,,,0,,,63,60
10890,note_on,30,0,4,,,,,,,,,0,,,64,0
10912,note_on,112,0,1,,,,,,,,,0,,,65,60
10920,note_on,8,0,1,,,,,,,,,0,,,65,0
10920,note_on,30,0,4,,,,,,,,,0,,,63,0
10920,note_on,0,0,1,,,,,,,,,0,,,64,90
10920,note_on,0,0,4,,,,,,,,,0,,,52,0
10920,note_on,0,0,4,,,,,,,,,0,,,56,0
10950,note_on,0,0,1,,,,,,,,,0,,,62,60
10950,note_on,30,0,1,,,,,,,,,0,,,64,0
10980,note_on,30,0,1,,,,,,,,,0,,,62,0
10980,note_on,0,0,1,,,,,,,,,0,,,60,60
11010,note_on,0,0,1,,,,,,,,,0,,,59,60
11010,note_on,30,0,1,,,,,,,,,0,,,60,0
11040,note_on,0,0,4,,,,,,,,,0,,,53,70
11040,note_on,30,0,1,,,,,,,,,0,,,59,0
11040,note_on,120,0,4,,,,,,,,,0,,,57,60
11070,note_on,30,0,4,,,,,,,,,0,,,57,0
11070,note_on,0,0,4,,,,,,,,,0,,,56,60
11100,note_on,30,0,4,,,,,,,,,0,,,56,0
11100,note_on,0,0,4,,,,,,,,,0,,,57,60
11130,note_on,0,0,4,,,,,,,,,0,,,56,60
11130,note_on,30,0,4,,,,,,,,,0,,,57,0
11152,note_on,112,0,1,,,,,,,,,0,,,58,60
11160,note_on,0,0,1,,,,,,,,,0,,,57,90
11160,note_on,0,0,4,,,,,,,,,0,,,53,0
11160,note_on,8,0,1,,,,,,,,,0,,,58,0
11160,note_on,30,0,4,,,,,,,,,0,,,56,0
11190,note_on,30,0,1,,,,,,,,,0,,,57,0
11190,note_on,0,0,1,,,,,,,,,0,,,59,60
11220,note_on,30,0,1,,,,,,,,,0,,,59,0
11220,note_on,0,0,1,,,,,,,,,0,,,60,60
11250,note_on,30,0,1,,,,,,,,,0,,,60,0
11250,note_on,0,0,1,,,,,,,,,0,,,62,60
11280,note_on,30,0,1,,,,,,,,,0,,,62,0
11280,note_on,0,0,4,,,,,,,,,0,,,52,70
11280,note_on,0,0,4,,,,,,,,,0,,,56,70
11280,note_on,120,0,4,,,,,,,,,0,,,64,60
11310,note_on,0,0,4,,,,,,,,,0,,,63,60
11310,note_on,30,0,4,,,,,,,,,0,,,64,0
11340,note_on,0,0,4,,,,,,,,,0,,,64,60
11340,note_on,30,0,4,,,,,,,,,0,,,63,0
11370,note_on,30,0,4,,,,,,,,,0,,,64,0
11370,note_on,0,0,4,,,,,,,,,0,,,63,60
11392,note_on,112,0,1,,,,,,,,,0,,,65,60
11400,note_on,30,0,4,,,,,,,,,0,,,63,0
11400,note_on,0,0,4,,,,,,,,,0,,,56,0
11400,note_on,0,0,4,,,,,,,,,0,,,52,0
11400,note_on,0,0,1,,,,,,,,,0,,,64,60
11400,note_on,8,0,1,,,,,,,,,0,,,65,0
11415,note_on,15,0,1,,,,,,,,,0,,,64,0
11520,note_on,2025,0,3,,,,,,,,,0,,,69,60
11520,note_on,0,0,3,,,,,,,,,0,,,61,70
11520,note_on,0,0,3,,,,,,,,,0,,,64,70
11550,note_on,30,0,3,,,,,,,,,0,,,69,0
11550,note_on,0,0,3,,,,,,,,,0,,,68,60
11580,note_on,30,0,3,,,,,,,,,0,,,68,0
11580,note_on,0,0,3,,,,,,,,,0,,,69,60
11610,note_on,0,0,3,,,,,,,,,0,,,68,60
11610,note_on,30,0,3,,,,,,,,,0,,,69,0
11632,note_on,217,0,1,,,,,,,,,0,,,70,60
11640,note_on,0,0,3,,,,,,,,,0,,,61,0
11640,note_on,30,0,3,,,,,,,,,0,,,68,0
11640,note_on,8,0,1,,,,,,,,,0,,,70,0
11640,note_on,0,0,3,,,,,,,,,0,,,64,0
11640,note_on,0,0,1,,,,,,,,,0,,,69,90
11670,note_on,30,0,1,,,,,,,,,0,,,69,0
11670,note_on,0,0,1,,,,,,,,,0,,,67,60
11700,note_on,0,0,1,,,,,,,,,0,,,65,60
11700,note_on,30,0,1,,,,,,,,,0,,,67,0
11730,note_on,0,0,1,,,,,,,,,0,,,64,60
11730,note_on,30,0,1,,,,,,,,,0,,,65,0
11760,note_on,0,0,4,,,,,,,,,0,,,53,70
11760,note_on,360,0,4,,,,,,,,,0,,,62,60
11760,note_on,0,0,4,,,,,,,,,0,,,57,70
11760,note_on,30,0,1,,,,,,,,,0,,,64,0
11790,note_on,0,0,4,,,,,,,,,0,,,61,60
11790,note_on,30,0,4,,,,,,,,,0,,,62,0
11820,note_on,30,0,4,,,,,,,,,0,,,61,0
11820,note_on,0,0,4,,,,,,,,,0,,,62,60
11850,note_on,30,0,4,,,,,,,,,0,,,62,0
11850,note_on,0,0,4,,,,,,,,,0,,,61,60
11872,note_on,112,0,1,,,,,,,,,0,,,63,60
11880,note_on,0,0,1,,,,,,,,,0,,,62,90
11880,note_on,30,0,4,,,,,,,,,0,,,61,0
11880,note_on,0,0,4,,,,,,,,,0,,,53,0
11880,note_on,8,0,1,,,,,,,,,0,,,63,0
11880,note_on,0,0,4,,,,,,,,,0,,,57,0
11910,note_on,0,0,1,,,,,,,,,0,,,64,60
11910,note_on,30,0,1,,,,,,,,,0,,,62,0
11940,note_on,30,0,1,,,,,,,,,0,,,64,0
11940,note_on,0,0,1,,,,,,,,,0,,,65,60
11970,note_on,30,0,1,,,,,,,,,0,,,65,0
11970,note_on,0,0,1,,,,,,,,,0,,,62,60
12000,note_on,360,0,3,,,,,,,,,0,,,67,60
12000,note_on,0,0,3,,,,,,,,,0,,,59,70
12000,note_on,0,0,3,,,,,,,,,0,,,62,70
12000,note_on,30,0,1,,,,,,,,,0,,,62,0
12030,note_on,0,0,3,,,,,,,,,0,,,66,60
12030,note_on,30,0,3,,,,,,,,,0,,,67,0
12060,note_on,0,0,3,,,,,,,,,0,,,67,60
12060,note_on,30,0,3,,,,,,,,,0,,,66,0
12090,note_on,30,0,3,,,,,,,,,0,,,67,0
12090,note_on,0,0,3,,,,,,,,,0,,,66,60
12112,note_on,112,0,1,,,,,,,,,0,,,68,60
12120,note_on,0,0,3,,,,,,,,,0,,,62,0
12120,note_on,8,0,1,,,,,,,,,0,,,68,0
12120,note_on,30,0,3,,,,,,,,,0,,,66,0
12120,note_on,0,0,1,,,,,,,,,0,,,67,90
12120,note_on,0,0,3,,,,,,,,,0,,,59,0
12150,note_on,0,0,1,,,,,,,,,0,,,65,60
12150,note_on,30,0,1,,,,,,,,,0,,,67,0
12180,note_on,0,0,1,,,,,,,,,0,,,64,60
12180,note_on,30,0,1,,,,,,,,,0,,,65,0
12210,note_on,0,0,1,,,,,,,,,0,,,62,60
12210,note_on,30,0,1,,,,,,,,,0,,,64,0
12240,note_on,30,0,1,,,,,,,,,0,,,62,0
12240,note_on,0,0,4,,,,,,,,,0,,,55,70
12240,note_on,0,0,4,,,,,,,,,0,,,52,70
12240,note_on,360,0,4,,,,,,,,,0,,,60,60
12270,note_on,30,0,4,,,,,,,,,0,,,60,0
12270,note_on,0,0,4,,,,,,,,,0,,,59,60
12300,note_on,30,0,4,,,,,,,,,0,,,59,0
12300,note_on,0,0,4,,,,,,,,,0,,,60,60
12330,note_on,0,0,4,,,,,,,,,0,,,59,60
12330,note_on,30,0,4,,,,,,,,,0,,,60,0
12352,note_on,112,0,1,,,,,,,,,0,,,61,60
12360,note_on,8,0,1,,,,,,,,,0,,,61,0
12360,note_on,0,0,4,,,,,,,,,0,,,55,0
12360,note_on,0,0,4,,,,,,,,,0,,,52,0
12360,note_on,0,0,1,,,,,,,,,0,,,60,90
12360,note_on,30,0,4,,,,,,,,,0,,,59,0
12390,note_on,30,0,1,,,,,,,,,0,,,60,0
12390,note_on,0,0,1,,,,,,,,,0,,,62,60
12420,note_on,0,0,1,,,,,,,,,0,,,64,60
12420,note_on,30,0,1,,,,,,,,,0,,,62,0
12450,note_on,30,0,1,,,,,,,,,0,,,64,0
12450,note_on,0,0,1,,,,,,,,,0,,,60,60
12480,note_on,120,0,4,,,,,,,,,0,,,65,60
12480,note_on,0,0,4,,,,,,,,,0,,,56,70
12480,note_on,30,0,1,,,,,,,,,0,,,60,0
12480,note_on,0,0,4,,,,,,,,,0,,,50,70
12510,note_on,0,0,4,,,,,,,,,0,,,64,60
12510,note_on,30,0,4,,,,,,,,,0,,,65,0
12540,note_on,0,0,4,,,,,,,,,0,,,65,60
12540,note_on,30,0,4,,,,,,,,,0,,,64,0
12570,note_on,30,0,4,,,,,,,,,0,,,65,0
12570,note_on,0,0,4,,,,,,,,,0,,,64,60
12592,note_on,112,0,1,,,,,,,,,0,,,66,60
12600,note_on,8,0,1,,,,,,,,,0,,,66,0
12600,note_on,30,0,4,,,,,,,,,0,,,64,0
12600,note_on,0,0,4,,,,,,,,,0,,,50,0
12600,note_on,0,0,4,,,,,,,,,0,,,56,0
12600,note_on,0,0,1,,,,,,,,,0,,,65,90
12630,note_on,0,0,1,,,,,,,,,0,,,64,60
12630,note_on,30,0,1,,,,,,,,,0,,,65,0
12660,note_on,30,0,1,,,,,,,,,0,,,64,0
12660,note_on,0,0,1,,,,,,,,,0,,,62,60
12690,note_on,0,0,1,,,,,,,,,0,,,60,60
12690,note_on,30,0,1,,,,,,,,,0,,,62,0
12720,note_on,0,0,4,,,,,,,,,0,,,57,70
12720,note_on,0,0,4,,,,,,,,,0,,,48,70
12720,note_on,30,0,1,,,,,,,,,0,,,60,0
12720,note_on,120,0,4,,,,,,,,,0,,,64,60
12750,note_on,30,0,4,,,,,,,,,0,,,64,0
12750,note_on,0,0,4,,,,,,,,,0,,,63,60
12780,note_on,0,0,4,,,,,,,,,0,,,64,60
12780,note_on,30,0,4,,,,,,,,,0,,,63,0
12810,note_on,0,0,4,,,,,,,,,0,,,63,60
12810,note_on,30,0,4,,,,,,,,,0,,,64,0
12832,note_on,112,0,1,,,,,,,,,0,,,65,60
12840,note_on,0,0,4,,,,,,,,,0,,,57,0
12840,note_on,0,0,4,,,,,,,,,0,,,48,0
12840,note_on,30,0,4,,,,,,,,,0,,,63,0
12840,note_on,0,0,1,,,,,,,,,0,,,64,90
12840,note_on,8,0,1,,,,,,,,,0,,,65,0
12870,note_on,30,0,1,,,,,,,,,0,,,64,0
12870,note_on,0,0,1,,,,,,,,,0,,,60,60
12900,note_on,0,0,1,,,,,,,,,0,,,59,60
12900,note_on,30,0,1,,,,,,,,,0,,,60,0
12930,note_on,30,0,1,,,,,,,,,0,,,59,0
12930,note_on,0,0,1,,,,,,,,,0,,,57,60
12960,note_on,0,0,4,,,,,,,,,0,,,50,70
12960,note_on,0,0,4,,,,,,,,,0,,,53,70
12960,note_on,120,0,4,,,,,,,,,0,,,58,60
12960,note_on,30,0,1,,,,,,,,,0,,,57,0
12990,note_on,0,0,4,,,,,,,,,0,,,57,60
12990,note_on,30,0,4,,,,,,,,,0,,,58,0
13020,note_on,0,0,4,,,,,,,,,0,,,58,60
13020,note_on,30,0,4,,,,,,,,,0,,,57,0
13050,note_on,30,0,4,,,,,,,,,0,,,58,0
13050,note_on,0,0,4,,,,,,,,,0,,,57,60
13072,note_on,112,0,1,,,,,,,,,0,,,60,60
13080,note_on,8,0,1,,,,,,,,,0,,,60,0
13080,note_on,30,0,4,,,,,,,,,0,,,57,0
13080,note_on,0,0,4,,,,,,,,,0,,,52,60
13080,note_on,0,0,4,,,,,,,,,0,,,50,0
13080,note_on,0,0,1,,,,,,,,,0,,,59,90
13080,note_on,0,0,4,,,,,,,,,0,,,53,0
13080,note_on,0,0,4,,,,,,,,,0,,,56,60
13110,note_on,0,0,1,,,,,,,,,0,,,65,60
13110,note_on,30,0,1,,,,,,,,,0,,,59,0
13140,note_on,60,0,4,,,,,,,,,0,,,52,0
13140,note_on,0,0,4,,,,,,,,,0,,,56,0
13140,note_on,30,0,1,,,,,,,,,0,,,65,0
13140,note_on,0,0,1,,,,,,,,,0,,,64,60
13170,note_on,30,0,1,,,,,,,,,0,,,64,0
13170,note_on,0,0,1,,,,,,,,,0,,,56,60
13200,note_on,60,0,4,,,,,,,,,0,,,57,60
13200,note_on,30,0,1,,,,,,,,,0,,,56,0
13230,note_on,30,0,4,,,,,,,,,0,,,57,0
13230,note_on,0,0,4,,,,,,,,,0,,,56,60
13260,note_on,2805,0,2,,,,,,,,,0,,,53,60
13260,note_on,30,0,4,,,,,,,,,0,,,56,0
13260,note_on,0,0,4,,,,,,,,,0,,,57,60
13260,note_on,0,0,2,,,,,,,,,0,,,50,60
13290,note_on,0,0,4,,,,,,,,,0,,,56,60
13290,note_on,30,0,4,,,,,,,,,0,,,57,0
13320,note_on,30,0,4,,,,,,,,,0,,,56,0
13320,note_on,60,0,2,,,,,,,,,0,,,50,0
13320,note_on,0,0,2,,,,,,,,,0,,,48,60
13320,note_on,0,0,2,,,,,,,,,0,,,52,60
13320,note_on,0,0,2,,,,,,,,,0,,,53,0
13320,note_on,0,0,4,,,,,,,,,0,,,57,60
13380,note_on,60,0,2,,,,,,,,,0,,,52,0
13380,note_on,60,0,4,,,,,,,,,0,,,57,0
13380,note_on,0,0,2,,,,,,,,,0,,,48,0
13440,note_on,60,0,4,,,,,,,,,0,,,45,60
13470,note_on,30,0,4,,,,,,,,,0,,,45,0
13470,note_on,0,0,4,,,,,,,,,0,,,44,60
13500,note_on,30,0,4,,,,,,,,,0,,,44,0
13500,note_on,0,0,4,,,,,,,,,0,,,45,60
13530,note_on,30,0,4,,,,,,,,,0,,,45,0
13530,note_on,0,0,4,,,,,,,,,0,,,44,60
13552,note_on,22,0,4,,,,,,,,,0,,,46,60
13560,note_on,8,0,4,,,,,,,,,0,,,46,0
13560,note_on,180,0,2,,,,,,,,,0,,,61,70
13560,note_on,0,0,2,,,,,,,,,0,,,55,70
13560,note_on,0,0,4,,,,,,,,,0,,,45,80
13560,note_on,0,0,2,,,,,,,,,0,,,52,70
13560,note_on,0,0,4,,,,,,,,,0,,,44,0
13590,note_on,0,0,4,,,,,,,,,0,,,43,60
13590,note_on,30,0,4,,,,,,,,,0,,,45,0
13620,note_on,30,0,4,,,,,,,,,0,,,43,0
13620,note_on,0,0,4,,,,,,,,,0,,,41,60
13650,note_on,0,0,4,,,,,,,,,0,,,40,60
13650,note_on,30,0,4,,,,,,,,,0,,,41,0
13680,note_on,30,0,4,,,,,,,,,0,,,40,0
13680,note_on,120,0,2,,,,,,,,,0,,,52,0
13680,note_on,0,0,4,,,,,,,,,0,,,38,60
13680,note_on,0,0,2,,,,,,,,,0,,,61,0
13680,note_on,0,0,2,,,,,,,,,0,,,55,0
13710,note_on,30,0,4,,,,,,,,,0,,,38,0
13710,note_on,0,0,4,,,,,,,,,0,,,37,60
13740,note_on,30,0,4,,,,,,,,,0,,,37,0
13740,note_on,0,0,4,,,,,,,,,0,,,38,60
13770,note_on,0,0,4,,,,,,,,,0,,,37,60
13770,note_on,30,0,4,,,,,,,,,0,,,38,0
13792,note_on,22,0,4,,,,,,,,,0,,,39,60
13800,note_on,0,0,4,,,,,,,,,0,,,38,80
13800,note_on,0,0,2,,,,,,,,,0,,,53,70
13800,note_on,0,0,2,,,,,,,,,0,,,57,70
13800,note_on,8,0,4,,,,,,,,,0,,,39,0
13800,note_on,0,0,4,,,,,,,,,0,,,37,0
13800,note_on,120,0,2,,,,,,,,,0,,,65,70
13830,note_on,0,0,4,,,,,,,,,0,,,40,60
13830,note_on,30,0,4,,,,,,,,,0,,,38,0
13860,note_on,0,0,4,,,,,,,,,0,,,41,60
13860,note_on,30,0,4,,,,,,,,,0,,,40,0
13890,note_on,0,0,4,,,,,,,,,0,,,38,60
13890,note_on,30,0,4,,,,,,,,,0,,,41,0
13920,note_on,0,0,4,,,,,,,,,0,,,43,60
13920,note_on,120,0,2,,,,,,,,,0,,,53,0
13920,note_on,30,0,4,,,,,,,,,0,,,38,0
13920,note_on,0,0,2,,,,,,,,,0,,,57,0
13920,note_on,0,0,2,,,,,,,,,0,,,65,0
13950,note_on,0,0,4,,,,,,,,,0,,,42,60
13950,note_on,30,0,4,,,,,,,,,0,,,43,0
13980,note_on,0,0,4,,,,,,,,,0,,,43,60
13980,note_on,30,0,4,,,,,,,,,0,,,42,0
14010,note_on,0,0,4,,,,,,,,,0,,,42,60
14010,note_on,30,0,4,,,,,,,,,0,,,43,0
14032,note_on,22,0,4,,,,,,,,,0,,,44,60
14040,note_on,0,0,4,,,,,,,,,0,,,42,0
14040,note_on,0,0,4,,,,,,,,,0,,,43,80
14040,note_on,120,0,2,,,,,,,,,0,,,59,70
14040,note_on,0,0,2,,,,,,,,,0,,,50,70
14040,note_on,8,0,4,,,,,,,,,0,,,44,0
14040,note_on,0,0,2,,,,,,,,,0,,,53,70
14070,note_on,0,0,4,,,,,,,,,0,,,41,60
14070,note_on,30,0,4,,,,,,,,,0,,,43,0
14100,note_on,30,0,4,,,,,,,,,0,,,41,0
14100,note_on,0,0,4,,,,,,,,,0,,,40,60
14130,note_on,30,0,4,,,,,,,,,0,,,40,0
14130,note_on,0,0,4,,,,,,,,,0,,,38,60
14160,note_on,120,0,2,,,,,,,,,0,,,50,0
14160,note_on,0,0,2,,,,,,,,,0,,,59,0
14160,note_on,0,0,2,,,,,,,,,0,,,53,0
14160,note_on,0,0,4,,,,,,,,,0,,,36,60
14160,note_on,30,0,4,,,,,,,,,0,,,38,0
14190,note_on,0,0,4,,,,,,,,,0,,,35,60
14190,note_on,30,0,4,,,,,,,,,0,,,36,0
14220,note_on,30,0,4,,,,,,,,,0,,,35,0
14220,note_on,0,0,4,,,,,,,,,0,,,36,60
14250,note_on,0,0,4,,,,,,,,,0,,,35,60
14250,note_on,30,0,4,,,,,,,,,0,,,36,0
14272,note_on,22,0,4,,,,,,,,,0,,,37,60
14280,note_on,0,0,4,,,,,,,,,0,,,35,0
14280,note_on,120,0,2,,,,,,,,,0,,,64,70
14280,note_on,0,0,4,,,,,,,,,0,,,36,80
14280,note_on,0,0,2,,,,,,,,,0,,,55,70
14280,note_on,8,0,4,,,,,,,,,0,,,37,0
14280,note_on,0,0,2,,,,,,,,,0,,,52,70
14310,note_on,0,0,4,,,,,,,,,0,,,38,60
14310,note_on,30,0,4,,,,,,,,,0,,,36,0
14340,note_on,30,0,4,,,,,,,,,0,,,38,0
14340,note_on,0,0,4,,,,,,,,,0,,,40,60
14370,note_on,30,0,4,,,,,,,,,0,,,40,0
14370,note_on,0,0,4,,,,,,,,,0,,,36,60
14400,note_on,120,0,2,,,,,,,,,0,,,52,0
14400,note_on,0,0,4,,,,,,,,,0,,,41,60
14400,note_on,0,0,2,,,,,,,,,0,,,55,0
14400,note_on,30,0,4,,,,,,,,,0,,,36,0
14400,note_on,0,0,2,,,,,,,,,0,,,64,0
14430,note_on,0,0,4,,,,,,,,,0,,,40,60
14430,note_on,30,0,4,,,,,,,,,0,,,41,0
14460,note_on,0,0,4,,,,,,,,,0,,,41,60
14460,note_on,30,0,4,,,,,,,,,0,,,40,0
14490,note_on,0,0,4,,,,,,,,,0,,,40,60
14490,note_on,30,0,4,,,,,,,,,0,,,41,0
14505,note_on,15,0,4,,,,,,,,,0,,,43,60
14520,note_on,120,0,2,,,,,,,,,0,,,59,70
14520,note_on,0,0,4,,,,,,,,,0,,,40,0
14520,note_on,0,0,4,,,,,,,,,0,,,41,80
14520,note_on,0,0,2,,,,,,,,,0,,,50,70
14520,note_on,15,0,4,,,,,,,,,0,,,43,0
14520,note_on,0,0,2,,,,,,,,,0,,,56,70
14550,note_on,30,0,4,,,,,,,,,0,,,41,0
14550,note_on,0,0,4,,,,,,,,,0,,,38,60
14580,note_on,0,0,4,,,,,,,,,0,,,36,60
14580,note_on,30,0,4,,,,,,,,,0,,,38,0
14610,note_on,30,0,4,,,,,,,,,0,,,36,0
14610,note_on,0,0,4,,,,,,,,,0,,,35,60
14640,note_on,120,0,2,,,,,,,,,0,,,50,0
14640,note_on,0,0,2,,,,,,,,,0,,,56,0
14640,note_on,0,0,2,,,,,,,,,0,,,59,0
14640,note_on,30,0,4,,,,,,,,,0,,,35,0
14640,note_on,0,0,4,,,,,,,,,0,,,40,60
14670,note_on,0,0,4,,,,,,,,,0,,,39,60
14670,note_on,30,0,4,,,,,,,,,0,,,40,0
14700,note_on,30,0,4,,,,,,,,,0,,,39,0
14700,note_on,0,0,4,,,,,,,,,0,,,40,60
14730,note_on,30,0,4,,,,,,,,,0,,,40,0
14730,note_on,0,0,4,,,,,,,,,0,,,39,60
14745,note_on,15,0,4,,,,,,,,,0,,,41,60
14760,note_on,120,0,2,,,,,,,,,0,,,60,70
14760,note_on,15,0,4,,,,,,,,,0,,,41,0
14760,note_on,0,0,4,,,,,,,,,0,,,40,80
14760,note_on,0,0,4,,,,,,,,,0,,,39,0
14760,note_on,0,0,2,,,,,,,,,0,,,52,70
14760,note_on,0,0,2,,,,,,,,,0,,,57,70
14790,note_on,0,0,4,,,,,,,,,0,,,36,60
14790,note_on,30,0,4,,,,,,,,,0,,,40,0
14820,note_on,30,0,4,,,,,,,,,0,,,36,0
14820,note_on,0,0,4,,,,,,,,,0,,,35,60
14850,note_on,30,0,4,,,,,,,,,0,,,35,0
14850,note_on,0,0,4,,,,,,,,,0,,,33,60
14880,note_on,120,0,2,,,,,,,,,0,,,52,0
14880,note_on,0,0,2,,,,,,,,,0,,,57,60
14880,note_on,0,0,2,,,,,,,,,0,,,57,0
14880,note_on,0,0,2,,,,,,,,,0,,,53,60
14880,note_on,0,0,2,,,,,,,,,0,,,62,70
14880,note_on,0,0,4,,,,,,,,,0,,,35,60
14880,set_tempo,5280,1,0,,,,,,869691,,,,,,,
14880,note_on,30,0,4,,,,,,,,,0,,,33,0
14880,note_on,0,0,2,,,,,,,,,0,,,60,0
14884,set_tempo,4,1,0,,,,,,877321,,,,,,,
14888,set_tempo,4,1,0,,,,,,889021,,,,,,,
14892,set_tempo,4,1,0,,,,,,896995,,,,,,,
14897,set_tempo,5,1,0,,,,,,909229,,,,,,,
14901,set_tempo,4,1,0,,,,,,921801,,,,,,,
14905,set_tempo,4,1,0,,,,,,930377,,,,,,,
14910,note_on,30,0,4,,,,,,,,,0,,,35,0
14910,set_tempo,5,1,0,,,,,,943545,,,,,,,
14910,note_on,0,0,4,,,,,,,,,0,,,34,60
14914,set_tempo,4,1,0,,,,,,957090,,,,,,,
14918,set_tempo,4,1,0,,,,,,966339,,,,,,,
14922,set_tempo,4,1,0,,,,,,980552,,,,,,,
14927,set_tempo,5,1,0,,,,,,995190,,,,,,,
14931,set_tempo,4,1,0,,,,,,1005193,,,,,,,
14935,set_tempo,4,1,0,,,,,,1020582,,,,,,,
14940,note_on,0,0,4,,,,,,,,,0,,,35,60
14940,note_on,0,0,2,,,,,,,,,0,,,63,70
14940,note_on,30,0,4,,,,,,,,,0,,,34,0
14940,set_tempo,5,1,0,,,,,,1036448,,,,,,,
14940,note_on,60,0,2,,,,,,,,,0,,,62,0
14944,set_tempo,4,1,0,,,,,,1047303,,,,,,,
14948,set_tempo,4,1,0,,,,,,1064018,,,,,,,
14952,set_tempo,4,1,0,,,,,,1081276,,,,,,,
14957,set_tempo,5,1,0,,,,,,1093095,,,,,,,
14961,set_tempo,4,1,0,,,,,,1111317,,,,,,,
14965,set_tempo,4,1,0,,,,,,1130156,,,,,,,
14970,note_on,30,0,4,,,,,,,,,0,,,35,0
14970,set_tempo,5,1,0,,,,,,1143075,,,,,,,
14970,note_on,0,0,4,,,,,,,,,0,,,34,60
14974,set_tempo,4,1,0,,,,,,1163016,,,,,,,
14978,set_tempo,4,1,0,,,,,,1183665,,,,,,,
14982,set_tempo,4,1,0,,,,,,1197844,,,,,,,
14987,set_tempo,5,1,0,,,,,,1219760,,,,,,,
14991,set_tempo,4,1,0,,,,,,1242493,,,,,,,
14995,set_tempo,4,1,0,,,,,,1258125,,,,,,,
15000,note_on,0,0,2,,,,,,,,,0,,,52,60
15000,note_on,30,0,4,,,,,,,,,0,,,34,0
15000,note_on,0,0,2,,,,,,,,,0,,,53,0
15000,note_on,0,0,2,,,,,,,,,0,,,56,60
15000,note_on,0,0,2,,,,,,,,,0,,,57,0
15000,note_on,0,0,2,,,,,,,,,0,,,64,70
15000,set_tempo,5,1,0,,,,,,1282325,,,,,,,
15000,note_on,0,0,4,,,,,,,,,0,,,36,60
15000,note_on,60,0,2,,,,,,,,,0,,,63,0
15004,set_tempo,4,1,0,,,,,,1307474,,,,,,,
15008,set_tempo,4,1,0,,,,,,1324796,,,,,,,
15012,set_tempo,4,1,0,,,,,,1351656,,,,,,,
15017,set_tempo,5,1,0,,,,,,1379628,,,,,,,
15021,set_tempo,4,1,0,,,,,,1398927,,,,,,,
15025,set_tempo,4,1,0,,,,,,1428912,,,,,,,
15030,set_tempo,5,1,0,,,,,,1460209,,,,,,,
15030,note_on,30,0,4,,,,,,,,,0,,,36,0
15030,note_on,0,0,4,,,,,,,,,0,,,35,60
15034,set_tempo,4,1,0,,,,,,1481847,,,,,,,
15038,set_tempo,4,1,0,,,,,,1515534,,,,,,,
15042,set_tempo,4,1,0,,,,,,1550788,,,,,,,
15047,set_tempo,5,1,0,,,,,,1575217,,,,,,,
15051,set_tempo,4,1,0,,,,,,1613337,,,,,,,
15055,set_tempo,4,1,0,,,,,,1653348,,,,,,,
15060,note_on,60,0,2,,,,,,,,,0,,,64,0
15060,note_on,0,0,4,,,,,,,,,0,,,41,60
15060,set_tempo,5,1,0,,,,,,1666667,,,,,,,
15060,note_on,30,0,4,,,,,,,,,0,,,35,0
15060,note_on,0,0,2,,,,,,,,,0,,,56,0
15060,note_on,0,0,2,,,,,,,,,0,,,52,0
15090,note_on,0,0,4,,,,,,,,,0,,,40,60
15090,note_on,30,0,4,,,,,,,,,0,,,41,0
15120,set_tempo,60,1,0,,,,,,434814,,,,,,,
15120,note_on,0,0,4,,,,,,,,,0,,,33,60
15120,note_on,30,0,4,,,,,,,,,0,,,40,0
15124,set_tempo,4,1,0,,,,,,435761,,,,,,,
15128,set_tempo,4,1,0,,,,,,437669,,,,,,,
15132,set_tempo,4,1,0,,,,,,439593,,,,,,,
15137,set_tempo,5,1,0,,,,,,440561,,,,,,,
15141,set_tempo,4,1,0,,,,,,442511,,,,,,,
15145,set_tempo,4,1,0,,,,,,444477,,,,,,,
15150,set_tempo,5,1,0,,,,,,446462,,,,,,,
15150,note_on,0,0,4,,,,,,,,,0,,,32,59
15150,note_on,30,0,4,,,,,,,,,0,,,33,0
15154,set_tempo,4,1,0,,,,,,447461,,,,,,,
15158,set_tempo,4,1,0,,,,,,449472,,,,,,,
15162,set_tempo,4,1,0,,,,,,451501,,,,,,,
15167,set_tempo,5,1,0,,,,,,453549,,,,,,,
15171,set_tempo,4,1,0,,,,,,454580,,,,,,,
15175,set_tempo,4,1,0,,,,,,456656,,,,,,,
15180,note_on,30,0,4,,,,,,,,,0,,,32,0
15180,set_tempo,5,1,0,,,,,,458751,,,,,,,
15180,note_on,0,0,4,,,,,,,,,0,,,33,58
15184,set_tempo,4,1,0,,,,,,460865,,,,,,,
15188,set_tempo,4,1,0,,,,,,461929,,,,,,,
15192,set_tempo,4,1,0,,,,,,464073,,,,,,,
15197,set_tempo,5,1,0,,,,,,466237,,,,,,,
15201,set_tempo,4,1,0,,,,,,468421,,,,,,,
15205,set_tempo,4,1,0,,,,,,469520,,,,,,,
15210,note_on,0,0,4,,,,,,,,,0,,,32,57
15210,set_tempo,5,1,0,,,,,,471735,,,,,,,
15210,note_on,30,0,4,,,,,,,,,0,,,33,0
15214,set_tempo,4,1,0,,,,,,473971,,,,,,,
15218,set_tempo,4,1,0,,,,,,475097,,,,,,,
15222,set_tempo,4,1,0,,,,,,477365,,,,,,,
15227,set_tempo,5,1,0,,,,,,479655,,,,,,,
15231,set_tempo,4,1,0,,,,,,481966,,,,,,,
15232,note_on,22,0,4,,,,,,,,,0,,,34,56
15235,set_tempo,4,1,0,,,,,,483131,,,,,,,
15240,set_tempo,5,1,0,,,,,,485476,,,,,,,
15240,note_on,8,0,4,,,,,,,,,0,,,34,0
15240,note_on,0,0,2,,,,,,,,,0,,,57,65
15240,note_on,180,0,2,,,,,,,,,0,,,62,65
15240,note_on,0,0,4,,,,,,,,,0,,,32,0
15240,note_on,0,0,4,,,,,,,,,0,,,33,55
15240,note_on,0,0,2,,,,,,,,,0,,,53,65
15244,set_tempo,4,1,0,,,,,,487845,,,,,,,
15248,set_tempo,4,1,0,,,,,,490236,,,,,,,
15252,set_tempo,4,1,0,,,,,,491441,,,,,,,
15257,set_tempo,5,1,0,,,,,,493868,,,,,,,
15261,set_tempo,4,1,0,,,,,,496319,,,,,,,
15265,set_tempo,4,1,0,,,,,,498795,,,,,,,
15270,note_on,30,0,4,,,,,,,,,0,,,33,0
15270,set_tempo,5,1,0,,,,,,500042,,,,,,,
15270,note_on,0,0,4,,,,,,,,,0,,,32,54
15274,set_tempo,4,1,0,,,,,,502555,,,,,,,
15278,set_tempo,4,1,0,,,,,,505093,,,,,,,
15282,set_tempo,4,1,0,,,,,,507657,,,,,,,
15287,set_tempo,5,1,0,,,,,,508949,,,,,,,
15291,set_tempo,4,1,0,,,,,,511553,,,,,,,
15295,set_tempo,4,1,0,,,,,,514183,,,,,,,
15300,note_on,0,0,2,,,,,,,,,0,,,57,0
15300,note_on,30,0,4,,,,,,,,,0,,,32,0
15300,set_tempo,5,1,0,,,,,,516840,,,,,,,
15300,note_on,0,0,4,,,,,,,,,0,,,33,53
15300,note_on,0,0,2,,,,,,,,,0,,,62,0
15300,note_on,60,0,2,,,,,,,,,0,,,53,0
15304,set_tempo,4,1,0,,,,,,518179,,,,,,,
15308,set_tempo,4,1,0,,,,,,520879,,,,,,,
15312,set_tempo,4,1,0,,,,,,523606,,,,,,,
15317,set_tempo,5,1,0,,,,,,524980,,,,,,,
15321,set_tempo,4,1,0,,,,,,527751,,,,,,,
15325,set_tempo,4,1,0,,,,,,530551,,,,,,,
15330,note_on,30,0,4,,,,,,,,,0,,,33,0
15330,set_tempo,5,1,0,,,,,,533381,,,,,,,
15330,note_on,0,0,4,,,,,,,,,0,,,32,51
15334,set_tempo,4,1,0,,,,,,534807,,,,,,,
15338,set_tempo,4,1,0,,,,,,537683,,,,,,,
15342,set_tempo,4,1,0,,,,,,540589,,,,,,,
15347,set_tempo,5,1,0,,,,,,543527,,,,,,,
15351,set_tempo,4,1,0,,,,,,545009,,,,,,,
15355,set_tempo,4,1,0,,,,,,547995,,,,,,,
15360,note_on,0,0,4,,,,,,,,,0,,,33,50
15360,note_on,60,0,2,,,,,,,,,0,,,60,60
15360,set_tempo,5,1,0,,,,,,551015,,,,,,,
15360,note_on,30,0,4,,,,,,,,,0,,,32,0
15360,note_on,0,0,2,,,,,,,,,0,,,52,60
15360,note_on,0,0,2,,,,,,,,,0,,,57,60
15364,set_tempo,4,1,0,,,,,,554068,,,,,,,
15368,set_tempo,4,1,0,,,,,,555607,,,,,,,
15372,set_tempo,4,1,0,,,,,,558711,,,,,,,
15377,set_tempo,5,1,0,,,,,,561850,,,,,,,
15381,set_tempo,4,1,0,,,,,,565025,,,,,,,
15385,set_tempo,4,1,0,,,,,,566626,,,,,,,
15390,set_tempo,5,1,0,,,,,,569855,,,,,,,
15390,note_on,30,0,4,,,,,,,,,0,,,33,0
15390,note_on,0,0,4,,,,,,,,,0,,,32,49
15394,set_tempo,4,1,0,,,,,,573121,,,,,,,
15398,set_tempo,4,1,0,,,,,,576424,,,,,,,
15402,set_tempo,4,1,0,,,,,,578090,,,,,,,
15407,set_tempo,5,1,0,,,,,,581452,,,,,,,
15411,set_tempo,4,1,0,,,,,,584852,,,,,,,
15415,set_tempo,4,1,0,,,,,,586568,,,,,,,
15420,set_tempo,5,1,0,,,,,,590029,,,,,,,
15420,note_on,0,0,4,,,,,,,,,0,,,33,47
15420,note_on,30,0,4,,,,,,,,,0,,,32,0
15420,note_on,60,0,2,,,,,,,,,0,,,52,0
15420,note_on,0,0,2,,,,,,,,,0,,,60,0
15420,note_on,0,0,2,,,,,,,,,0,,,57,0
15424,set_tempo,4,1,0,,,,,,593531,,,,,,,
15428,set_tempo,4,1,0,,,,,,597074,,,,,,,
15432,set_tempo,4,1,0,,,,,,598862,,,,,,,
15437,set_tempo,5,1,0,,,,,,602470,,,,,,,
15441,set_tempo,4,1,0,,,,,,606122,,,,,,,
15445,set_tempo,4,1,0,,,,,,609818,,,,,,,
15450,set_tempo,5,1,0,,,,,,611683,,,,,,,
15450,note_on,30,0,4,,,,,,,,,0,,,33,0
15450,note_on,0,0,4,,,,,,,,,0,,,32,46
15454,set_tempo,4,1,0,,,,,,615448,,,,,,,
15458,set_tempo,4,1,0,,,,,,619259,,,,,,,
15462,set_tempo,4,1,0,,,,,,623118,,,,,,,
15467,set_tempo,5,1,0,,,,,,625065,,,,,,,
15471,set_tempo,4,1,0,,,,,,628997,,,,,,,
15472,note_on,22,0,4,,,,,,,,,0,,,34,45
15475,set_tempo,4,1,0,,,,,,632978,,,,,,,
15480,note_on,60,0,2,,,,,,,,,0,,,57,55
15480,note_on,0,0,4,,,,,,,,,0,,,32,0
15480,set_tempo,5,1,0,,,,,,637010,,,,,,,
15480,note_on,0,0,2,,,,,,,,,0,,,53,55
15480,note_on,0,0,4,,,,,,,,,0,,,33,45
15480,note_on,0,0,2,,,,,,,,,0,,,50,55
15480,note_on,8,0,4,,,,,,,,,0,,,34,0
15484,set_tempo,4,1,0,,,,,,639046,,,,,,,
15488,set_tempo,4,1,0,,,,,,643156,,,,,,,
15492,set_tempo,4,1,0,,,,,,647319,,,,,,,
15497,set_tempo,5,1,0,,,,,,649421,,,,,,,
15501,set_tempo,4,1,0,,,,,,653666,,,,,,,
15505,set_tempo,4,1,0,,,,,,657967,,,,,,,
15510,note_on,0,0,4,,,,,,,,,0,,,32,44
15510,note_on,30,0,4,,,,,,,,,0,,,33,0
15510,set_tempo,5,1,0,,,,,,662325,,,,,,,
15514,set_tempo,4,1,0,,,,,,664525,,,,,,,
15518,set_tempo,4,1,0,,,,,,668971,,,,,,,
15522,set_tempo,4,1,0,,,,,,673476,,,,,,,
15527,set_tempo,5,1,0,,,,,,678043,,,,,,,
15531,set_tempo,4,1,0,,,,,,680349,,,,,,,
15535,set_tempo,4,1,0,,,,,,685010,,,,,,,
15540,note_on,0,0,4,,,,,,,,,0,,,33,42
15540,note_on,30,0,4,,,,,,,,,0,,,32,0
15540,note_on,0,0,2,,,,,,,,,0,,,53,0
15540,note_on,0,0,2,,,,,,,,,0,,,57,0
15540,set_tempo,5,1,0,,,,,,689734,,,,,,,
15540,note_on,60,0,2,,,,,,,,,0,,,50,0
15544,set_tempo,4,1,0,,,,,,694525,,,,,,,
15548,set_tempo,4,1,0,,,,,,696945,,,,,,,
15552,set_tempo,4,1,0,,,,,,701836,,,,,,,
15557,set_tempo,5,1,0,,,,,,706797,,,,,,,
15561,set_tempo,4,1,0,,,,,,711828,,,,,,,
15565,set_tempo,4,1,0,,,,,,714371,,,,,,,
15570,set_tempo,5,1,0,,,,,,719511,,,,,,,
15570,note_on,0,0,4,,,,,,,,,0,,,32,41
15570,note_on,30,0,4,,,,,,,,,0,,,33,0
15574,set_tempo,4,1,0,,,,,,724725,,,,,,,
15578,set_tempo,4,1,0,,,,,,730016,,,,,,,
15582,set_tempo,4,1,0,,,,,,732690,,,,,,,
15587,set_tempo,5,1,0,,,,,,738098,,,,,,,
15591,set_tempo,4,1,0,,,,,,743587,,,,,,,
15595,set_tempo,4,1,0,,,,,,746361,,,,,,,
15600,note_on,0,0,2,,,,,,,,,0,,,52,50
15600,note_on,60,0,2,,,,,,,,,0,,,57,50
15600,note_on,0,0,2,,,,,,,,,0,,,48,50
15600,note_on,0,0,4,,,,,,,,,0,,,33,40
15600,set_tempo,5,1,0,,,,,,751974,,,,,,,
15600,note_on,30,0,4,,,,,,,,,0,,,32,0
15604,set_tempo,4,1,0,,,,,,757671,,,,,,,
15608,set_tempo,4,1,0,,,,,,763456,,,,,,,
15612,set_tempo,4,1,0,,,,,,766381,,,,,,,
15617,set_tempo,5,1,0,,,,,,772300,,,,,,,
15621,set_tempo,4,1,0,,,,,,778311,,,,,,,
15625,set_tempo,4,1,0,,,,,,784416,,,,,,,
15630,set_tempo,5,1,0,,,,,,787505,,,,,,,
15630,note_on,0,0,4,,,,,,,,,0,,,32,38
15630,note_on,30,0,4,,,,,,,,,0,,,33,0
15634,set_tempo,4,1,0,,,,,,793756,,,,,,,
15638,set_tempo,4,1,0,,,,,,800107,,,,,,,
15642,set_tempo,4,1,0,,,,,,806560,,,,,,,
15647,set_tempo,5,1,0,,,,,,809826,,,,,,,
15651,set_tempo,4,1,0,,,,,,816438,,,,,,,
15655,set_tempo,4,1,0,,,,,,823158,,,,,,,
15660,note_on,30,0,4,,,,,,,,,0,,,32,0
15660,note_on,0,0,2,,,,,,,,,0,,,57,0
15660,note_on,0,0,2,,,,,,,,,0,,,52,0
15660,note_on,0,0,4,,,,,,,,,0,,,33,37
15660,set_tempo,5,1,0,,,,,,829990,,,,,,,
15660,note_on,60,0,2,,,,,,,,,0,,,48,0
15664,set_tempo,4,1,0,,,,,,833449,,,,,,,
15668,set_tempo,4,1,0,,,,,,840454,,,,,,,
15672,set_tempo,4,1,0,,,,,,847577,,,,,,,
15677,set_tempo,5,1,0,,,,,,854823,,,,,,,
15681,set_tempo,4,1,0,,,,,,858492,,,,,,,
15685,set_tempo,4,1,0,,,,,,865926,,,,,,,
15690,set_tempo,5,1,0,,,,,,873490,,,,,,,
15690,note_on,30,0,4,,,,,,,,,0,,,33,0
15690,note_on,0,0,4,,,,,,,,,0,,,32,36
15694,set_tempo,4,1,0,,,,,,877321,,,,,,,
15698,set_tempo,4,1,0,,,,,,885086,,,,,,,
15702,set_tempo,4,1,0,,,,,,892990,,,,,,,
15707,set_tempo,5,1,0,,,,,,901036,,,,,,,
15711,set_tempo,4,1,0,,,,,,905114,,,,,,,
15712,note_on,22,0,4,,,,,,,,,0,,,34,35
15715,set_tempo,4,1,0,,,,,,913381,,,,,,,
15720,note_on,60,0,2,,,,,,,,,0,,,53,44
15720,note_on,0,0,2,,,,,,,,,0,,,50,44
15720,note_on,8,0,4,,,,,,,,,0,,,34,0
15720,note_on,0,0,4,,,,,,,,,0,,,33,34
15720,note_on,0,0,4,,,,,,,,,0,,,32,0
15720,set_tempo,5,1,0,,,,,,921801,,,,,,,
15724,set_tempo,4,1,0,,,,,,930377,,,,,,,
15728,set_tempo,4,1,0,,,,,,934725,,,,,,,
15732,set_tempo,4,1,0,,,,,,943545,,,,,,,
15737,set_tempo,5,1,0,,,,,,952532,,,,,,,
15741,set_tempo,4,1,0,,,,,,961693,,,,,,,
15745,set_tempo,4,1,0,,,,,,966339,,,,,,,
15750,note_on,0,0,4,,,,,,,,,0,,,32,33
15750,note_on,30,0,4,,,,,,,,,0,,,33,0
15750,set_tempo,5,1,0,,,,,,975768,,,,,,,
15754,set_tempo,4,1,0,,,,,,985383,,,,,,,
15758,set_tempo,4,1,0,,,,,,995190,,,,,,,
15762,set_tempo,4,1,0,,,,,,1000167,,,,,,,
15767,set_tempo,5,1,0,,,,,,1010271,,,,,,,
15771,set_tempo,4,1,0,,,,,,1020582,,,,,,,
15775,set_tempo,4,1,0,,,,,,1025816,,,,,,,
15780,note_on,0,0,4,,,,,,,,,0,,,33,32
15780,note_on,30,0,4,,,,,,,,,0,,,32,0
15780,set_tempo,5,1,0,,,,,,1036448,,,,,,,
15780,note_on,60,0,2,,,,,,,,,0,,,50,0
15780,note_on,0,0,2,,,,,,,,,0,,,53,0
15784,set_tempo,4,1,0,,,,,,1047303,,,,,,,
15788,set_tempo,4,1,0,,,,,,1058388,,,,,,,
15792,set_tempo,4,1,0,,,,,,1064018,,,,,,,
15797,set_tempo,5,1,0,,,,,,1075462,,,,,,,
15801,set_tempo,4,1,0,,,,,,1087153,,,,,,,
15805,set_tempo,4,1,0,,,,,,1099102,,,,,,,
15810,note_on,0,0,4,,,,,,,,,0,,,32,31
15810,note_on,30,0,4,,,,,,,,,0,,,33,0
15810,set_tempo,5,1,0,,,,,,1105176,,,,,,,
15814,set_tempo,4,1,0,,,,,,1117527,,,,,,,
15818,set_tempo,4,1,0,,,,,,1130156,,,,,,,
15822,set_tempo,4,1,0,,,,,,1143075,,,,,,,
15827,set_tempo,5,1,0,,,,,,1149646,,,,,,,
15831,set_tempo,4,1,0,,,,,,1163016,,,,,,,
15835,set_tempo,4,1,0,,,,,,1176701,,,,,,,
15840,set_tempo,5,1,0,,,,,,1190712,,,,,,,
15840,note_on,60,0,2,,,,,,,,,0,,,57,40
15840,note_on,0,0,4,,,,,,,,,0,,,33,40
15840,note_on,0,0,2,,,,,,,,,0,,,48,40
15840,note_on,0,0,2,,,,,,,,,0,,,52,40
15840,note_on,30,0,4,,,,,,,,,0,,,32,0
15844,set_tempo,4,1,0,,,,,,1197844,,,,,,,
15848,set_tempo,4,1,0,,,,,,1212366,,,,,,,
15852,set_tempo,4,1,0,,,,,,1227245,,,,,,,
15857,set_tempo,5,1,0,,,,,,1242493,,,,,,,
15861,set_tempo,4,1,0,,,,,,1250260,,,,,,,
15865,set_tempo,4,1,0,,,,,,1266090,,,,,,,
15870,set_tempo,5,1,0,,,,,,1282325,,,,,,,
15874,set_tempo,4,1,0,,,,,,1290600,,,,,,,
15878,set_tempo,4,1,0,,,,,,1307474,,,,,,,
15882,set_tempo,4,1,0,,,,,,1324796,,,,,,,
15887,set_tempo,5,1,0,,,,,,1342582,,,,,,,
15891,set_tempo,4,1,0,,,,,,1351656,,,,,,,
15895,set_tempo,4,1,0,,,,,,1370176,,,,,,,
15900,note_on,60,0,2,,,,,,,,,0,,,48,0
15900,note_on,0,0,2,,,,,,,,,0,,,52,0
15900,note_on,0,0,2,,,,,,,,,0,,,57,0
15900,note_on,60,0,4,,,,,,,,,0,,,33,0
15900,set_tempo,5,1,0,,,,,,1389210,,,,,,,
15904,set_tempo,4,1,0,,,,,,1408781,,,,,,,
15908,set_tempo,4,1,0,,,,,,1418775,,,,,,,
15912,set_tempo,4,1,0,,,,,,1439194,,,,,,,
15917,set_tempo,5,1,0,,,,,,1460209,,,,,,,
15921,set_tempo,4,1,0,,,,,,1481847,,,,,,,
15925,set_tempo,4,1,0,,,,,,1492909,,,,,,,
15930,set_tempo,5,1,0,,,,,,1515534,,,,,,,
15934,set_tempo,4,1,0,,,,,,1538856,,,,,,,
15938,set_tempo,4,1,0,,,,,,1562907,,,,,,,
15942,set_tempo,4,1,0,,,,,,1575217,,,,,,,
15947,set_tempo,5,1,0,,,,,,1600427,,,,,,,
15951,set_tempo,4,1,0,,,,,,1626457,,,,,,,
15955,set_tempo,4,1,0,,,,,,1653348,,,,,,,
15960,set_tempo,5,1,0,,,,,,1666667,,,,,,,
16080,note_on,2880,0,1,,,,,,,,,0,,,57,120
16080,set_tempo,120,1,0,,,,,,434783,,,,,,,
16080,note_on,0,0,1,,,,,,,,,0,,,69,120
16080,marker,0,1,0,,,,,,,,,,,,,
16080,note_on,0,0,4,,,,,,,,,0,,,48,127
16080,note_on,180,0,4,,,,,,,,,0,,,36,127
16110,note_on,0,0,1,,,,,,,,,0,,,66,100
16110,note_on,30,0,1,,,,,,,,,0,,,69,0
16110,note_on,0,0,1,,,,,,,,,0,,,63,100
16110,note_on,0,0,1,,,,,,,,,0,,,57,0
16125,note_on,0,0,1,,,,,,,,,0,,,66,0
16125,note_on,15,0,1,,,,,,,,,0,,,63,0
16170,note_on,0,0,4,,,,,,,,,0,,,54,100
16170,note_on,90,0,4,,,,,,,,,0,,,60,100
16170,note_on,0,0,1,,,,,,,,,0,,,57,100
16170,note_on,0,0,4,,,,,,,,,0,,,51,100
16170,note_on,45,0,1,,,,,,,,,0,,,69,100
16200,note_on,30,0,1,,,,,,,,,0,,,57,0
16200,note_on,0,0,1,,,,,,,,,0,,,69,100
16200,note_on,0,0,1,,,,,,,,,0,,,69,0
16200,note_on,0,0,1,,,,,,,,,0,,,57,100
16200,note_on,0,0,4,,,,,,,,,0,,,36,0
16200,note_on,0,0,4,,,,,,,,,0,,,48,0
16200,note_on,0,0,4,,,,,,,,,0,,,51,100
16200,note_on,0,0,4,,,,,,,,,0,,,54,100
16200,note_on,0,0,4,,,,,,,,,0,,,60,0
16200,note_on,0,0,4,,,,,,,,,0,,,60,100
16200,note_on,30,0,4,,,,,,,,,0,,,51,0
16200,note_on,0,0,4,,,,,,,,,0,,,54,0
16230,note_on,0,0,4,,,,,,,,,0,,,54,0
16230,note_on,30,0,4,,,,,,,,,0,,,51,0
16230,note_on,0,0,4,,,,,,,,,0,,,60,0
16230,note_on,0,0,1,,,,,,,,,0,,,72,100
16230,note_on,0,0,1,,,,,,,,,0,,,60,100
16230,note_on,0,0,1,,,,,,,,,0,,,69,0
16230,note_on,30,0,1,,,,,,,,,0,,,57,0
16260,note_on,30,0,4,,,,,,,,,0,,,33,110
16260,note_on,0,0,1,,,,,,,,,0,,,72,0
16260,note_on,0,0,1,,,,,,,,,0,,,71,100
16260,note_on,30,0,1,,,,,,,,,0,,,60,0
16260,note_on,0,0,1,,,,,,,,,0,,,59,100
16260,note_on,0,0,4,,,,,,,,,0,,,45,110
16290,note_on,30,0,1,,,,,,,,,0,,,59,0
16290,note_on,0,0,1,,,,,,,,,0,,,71,0
16290,note_on,0,0,1,,,,,,,,,0,,,57,100
16290,note_on,0,0,1,,,,,,,,,0,,,69,100
16320,note_on,30,0,1,,,,,,,,,0,,,57,0
16320,note_on,0,0,4,,,,,,,,,0,,,44,110
16320,note_on,60,0,4,,,,,,,,,0,,,45,0
16320,note_on,0,0,1,,,,,,,,,0,,,76,120
16320,note_on,0,0,4,,,,,,,,,0,,,32,110
16320,note_on,0,0,1,,,,,,,,,0,,,64,120
16320,note_on,0,0,4,,,,,,,,,0,,,33,0
16320,note_on,0,0,1,,,,,,,,,0,,,69,0
16350,note_on,0,0,1,,,,,,,,,0,,,68,100
16350,note_on,0,0,1,,,,,,,,,0,,,71,100
16350,note_on,30,0,1,,,,,,,,,0,,,64,0
16350,note_on,0,0,1,,,,,,,,,0,,,76,0
16365,note_on,0,0,1,,,,,,,,,0,,,71,0
16365,note_on,15,0,1,,,,,,,,,0,,,68,0
16380,note_on,0,0,4,,,,,,,,,0,,,35,110
16380,note_on,0,0,4,,,,,,,,,0,,,32,0
16380,note_on,0,0,4,,,,,,,,,0,,,47,110
16380,note_on,60,0,4,,,,,,,,,0,,,44,0
16410,note_on,0,0,1,,,,,,,,,0,,,64,100
16410,note_on,45,0,1,,,,,,,,,0,,,76,100
16440,note_on,60,0,4,,,,,,,,,0,,,47,0
16440,note_on,0,0,1,,,,,,,,,0,,,64,100
16440,note_on,0,0,1,,,,,,,,,0,,,76,0
16440,note_on,0,0,1,,,,,,,,,0,,,76,100
16440,note_on,0,0,4,,,,,,,,,0,,,35,0
16440,note_on,0,0,4,,,,,,,,,0,,,44,110
16440,note_on,0,0,4,,,,,,,,,0,,,52,110
16440,note_on,30,0,1,,,,,,,,,0,,,64,0
16440,note_on,0,0,4,,,,,,,,,0,,,40,110
16470,note_on,0,0,1,,,,,,,,,0,,,79,100
16470,note_on,30,0,1,,,,,,,,,0,,,64,0
16470,note_on,0,0,1,,,,,,,,,0,,,67,100
16470,note_on,0,0,1,,,,,,,,,0,,,76,0
16500,note_on,30,0,1,,,,,,,,,0,,,67,0
16500,note_on,0,0,1,,,,,,,,,0,,,65,100
16500,note_on,0,0,1,,,,,,,,,0,,,77,100
16500,note_on,0,0,1,,,,,,,,,0,,,79,0
16530,note_on,0,0,1,,,,,,,,,0,,,77,0
16530,note_on,0,0,1,,,,,,,,,0,,,64,100
16530,note_on,30,0,1,,,,,,,,,0,,,65,0
16530,note_on,0,0,1,,,,,,,,,0,,,76,100
16560,note_on,0,0,4,,,,,,,,,0,,,48,127
16560,note_on,0,0,4,,,,,,,,,0,,,44,0
16560,note_on,0,0,4,,,,,,,,,0,,,40,0
16560,note_on,0,0,4,,,,,,,,,0,,,36,127
16560,note_on,120,0,4,,,,,,,,,0,,,52,0
16560,note_on,30,0,1,,,,,,,,,0,,,64,0
16560,note_on,0,0,1,,,,,,,,,0,,,57,120
16560,note_on,0,0,1,,,,,,,,,0,,,69,120
16560,note_on,0,0,1,,,,,,,,,0,,,76,0
16590,note_on,0,0,1,,,,,,,,,0,,,66,100
16590,note_on,30,0,1,,,,,,,,,0,,,57,0
16590,note_on,0,0,1,,,,,,,,,0,,,63,100
16590,note_on,0,0,1,,,,,,,,,0,,,69,0
16605,note_on,15,0,1,,,,,,,,,0,,,66,0
16605,note_on,0,0,1,,,,,,,,,0,,,63,0
16650,note_on,0,0,1,,,,,,,,,0,,,57,100
16650,note_on,90,0,4,,,,,,,,,0,,,60,100
16650,note_on,0,0,4,,,,,,,,,0,,,51,100
16650,note_on,0,0,4,,,,,,,,,0,,,54,100
16650,note_on,45,0,1,,,,,,,,,0,,,69,100
16680,note_on,0,0,1,,,,,,,,,0,,,57,100
16680,note_on,0,0,4,,,,,,,,,0,,,36,0
16680,note_on,0,0,4,,,,,,,,,0,,,48,0
16680,note_on,0,0,4,,,,,,,,,0,,,51,100
16680,note_on,0,0,4,,,,,,,,,0,,,54,0
16680,note_on,30,0,1,,,,,,,,,0,,,57,0
16680,note_on,0,0,1,,,,,,,,,0,,,69,100
16680,note_on,30,0,4,,,,,,,,,0,,,51,0
16680,note_on,0,0,1,,,,,,,,,0,,,69,0
16680,note_on,0,0,4,,,,,,,,,0,,,60,100
16680,note_on,0,0,4,,,,,,,,,0,,,54,100
16680,note_on,0,0,4,,,,,,,,,0,,,60,0
16710,note_on,0,0,1,,,,,,,,,0,,,60,100
16710,note_on,0,0,4,,,,,,,,,0,,,60,0
16710,note_on,0,0,1,,,,,,,,,0,,,69,0
16710,note_on,0,0,4,,,,,,,,,0,,,54,0
16710,note_on,30,0,4,,,,,,,,,0,,,51,0
16710,note_on,30,0,1,,,,,,,,,0,,,57,0
16710,note_on,0,0,1,,,,,,,,,0,,,72,100
16740,note_on,0,0,1,,,,,,,,,0,,,59,100
16740,note_on,0,0,1,,,,,,,,,0,,,72,0
16740,note_on,0,0,1,,,,,,,,,0,,,71,100
16740,note_on,0,0,4,,,,,,,,,0,,,45,110
16740,note_on,30,0,1,,,,,,,,,0,,,60,0
16740,note_on,30,0,4,,,,,,,,,0,,,33,110
16770,note_on,30,0,1,,,,,,,,,0,,,59,0
16770,note_on,0,0,1,,,,,,,,,0,,,57,100
16770,note_on,0,0,1,,,,,,,,,0,,,69,100
16770,note_on,0,0,1,,,,,,,,,0,,,71,0
16800,note_on,0,0,4,,,,,,,,,0,,,35,110
16800,note_on,0,0,4,,,,,,,,,0,,,33,0
16800,note_on,0,0,1,,,,,,,,,0,,,56,100
16800,note_on,30,0,1,,,,,,,,,0,,,57,0
16800,note_on,0,0,4,,,,,,,,,0,,,47,110
16800,note_on,0,0,1,,,,,,,,,0,,,68,100
16800,note_on,0,0,1,,,,,,,,,0,,,69,0
16800,note_on,60,0,4,,,,,,,,,0,,,45,0
16830,note_on,0,0,1,,,,,,,,,0,,,59,100
16830,note_on,0,0,1,,,,,,,,,0,,,68,0
16830,note_on,30,0,1,,,,,,,,,0,,,56,0
16845,note_on,15,0,1,,,,,,,,,0,,,59,0
16860,note_on,0,0,4,,,,,,,,,0,,,39,110
16860,note_on,0,0,4,,,,,,,,,0,,,51,110
16860,note_on,60,0,4,,,,,,,,,0,,,47,0
16860,note_on,0,0,4,,,,,,,,,0,,,35,0
16890,note_on,45,0,1,,,,,,,,,0,,,63,100
16920,note_on,0,0,1,,,,,,,,,0,,,65,120
16920,note_on,0,0,1,,,,,,,,,0,,,56,120
16920,note_on,0,0,1,,,,,,,,,0,,,59,120
16920,note_on,0,0,4,,,,,,,,,0,,,39,0
16920,note_on,0,0,4,,,,,,,,,0,,,41,120
16920,note_on,0,0,4,,,,,,,,,0,,,53,120
16920,note_on,30,0,1,,,,,,,,,0,,,63,0
16920,note_on,60,0,4,,,,,,,,,0,,,51,0
16980,note_on,0,0,1,,,,,,,,,0,,,56,0
16980,note_on,60,0,4,,,,,,,,,0,,,53,0
16980,note_on,0,0,1,,,,,,,,,0,,,64,100
16980,note_on,0,0,4,,,,,,,,,0,,,40,110
16980,note_on,0,0,1,,,,,,,,,0,,,59,0
16980,note_on,0,0,4,,,,,,,,,0,,,52,110
16980,note_on,0,0,4,,,,,,,,,0,,,41,0
16980,note_on,60,0,1,,,,,,,,,0,,,65,0
17010,note_on,30,0,1,,,,,,,,,0,,,64,0
17040,note_on,0,0,1,,,,,,,,,0,,,69,120
17040,note_on,30,0,1,,,,,,,,,0,,,81,120
17040,note_on,0,0,4,,,,,,,,,0,,,36,127
17040,note_on,60,0,4,,,,,,,,,0,,,52,0
17040,note_on,0,0,4,,,,,,,,,0,,,48,127
17040,note_on,0,0,4,,,,,,,,,0,,,40,0
17070,note_on,30,0,1,,,,,,,,,0,,,69,0
17070,note_on,0,0,1,,,,,,,,,0,,,81,0
17070,note_on,0,0,1,,,,,,,,,0,,,78,100
17070,note_on,0,0,1,,,,,,,,,0,,,75,100
17085,note_on,0,0,1,,,,,,,,,0,,,78,0
17085,note_on,15,0,1,,,,,,,,,0,,,75,0
17130,note_on,0,0,4,,,,,,,,,0,,,51,100
17130,note_on,90,0,4,,,,,,,,,0,,,60,100
17130,note_on,45,0,1,,,,,,,,,0,,,81,100
17130,note_on,0,0,4,,,,,,,,,0,,,54,100
17130,note_on,0,0,1,,,,,,,,,0,,,69,100
17160,note_on,0,0,4,,,,,,,,,0,,,60,100
17160,note_on,0,0,4,,,,,,,,,0,,,36,0
17160,note_on,0,0,4,,,,,,,,,0,,,54,0
17160,note_on,0,0,4,,,,,,,,,0,,,60,0
17160,note_on,0,0,1,,,,,,,,,0,,,81,100
17160,note_on,0,0,4,,,,,,,,,0,,,54,100
17160,note_on,0,0,1,,,,,,,,,0,,,69,100
17160,note_on,0,0,4,,,,,,,,,0,,,48,0
17160,note_on,30,0,4,,,,,,,,,0,,,51,0
17160,note_on,0,0,4,,,,,,,,,0,,,51,100
17160,note_on,30,0,1,,,,,,,,,0,,,69,0
17160,note_on,0,0,1,,,,,,,,,0,,,81,0
17190,note_on,0,0,1,,,,,,,,,0,,,81,0
17190,note_on,0,0,1,,,,,,,,,0,,,84,100
17190,note_on,30,0,4,,,,,,,,,0,,,51,0
17190,note_on,0,0,4,,,,,,,,,0,,,60,0
17190,note_on,0,0,4,,,,,,,,,0,,,54,0
17190,note_on,30,0,1,,,,,,,,,0,,,69,0
17190,note_on,0,0,1,,,,,,,,,0,,,72,100
17220,note_on,30,0,1,,,,,,,,,0,,,72,0
17220,note_on,0,0,1,,,,,,,,,0,,,83,100
17220,note_on,0,0,4,,,,,,,,,0,,,45,110
17220,note_on,30,0,4,,,,,,,,,0,,,33,110
17220,note_on,0,0,1,,,,,,,,,0,,,84,0
17220,note_on,0,0,1,,,,,,,,,0,,,71,100
17250,note_on,0,0,1,,,,,,,,,0,,,81,100
17250,note_on,0,0,1,,,,,,,,,0,,,83,0
17250,note_on,30,0,1,,,,,,,,,0,,,71,0
17250,note_on,0,0,1,,,,,,,,,0,,,69,100
17280,note_on,60,0,4,,,,,,,,,0,,,45,0
17280,note_on,0,0,4,,,,,,,,,0,,,32,110
17280,note_on,0,0,4,,,,,,,,,0,,,33,0
17280,note_on,0,0,4,,,,,,,,,0,,,44,110
17280,note_on,30,0,1,,,,,,,,,0,,,69,0
17280,note_on,0,0,1,,,,,,,,,0,,,76,120
17280,note_on,0,0,1,,,,,,,,,0,,,81,0
17280,note_on,0,0,1,,,,,,,,,0,,,88,120
17310,note_on,30,0,1,,,,,,,,,0,,,76,0
17310,note_on,0,0,1,,,,,,,,,0,,,88,0
17310,note_on,0,0,1,,,,,,,,,0,,,83,100
17310,note_on,0,0,1,,,,,,,,,0,,,80,100
17325,note_on,0,0,1,,,,,,,,,0,,,83,0
17325,note_on,15,0,1,,,,,,,,,0,,,80,0
17340,note_on,0,0,4,,,,,,,,,0,,,47,110
17340,note_on,0,0,4,,,,,,,,,0,,,35,110
17340,note_on,0,0,4,,,,,,,,,0,,,32,0
17340,note_on,60,0,4,,,,,,,,,0,,,44,0
17370,note_on,0,0,1,,,,,,,,,0,,,76,100
17370,note_on,45,0,1,,,,,,,,,0,,,88,100
17400,note_on,60,0,4,,,,,,,,,0,,,47,0
17400,note_on,30,0,1,,,,,,,,,0,,,76,0
17400,note_on,0,0,1,,,,,,,,,0,,,76,100
17400,note_on,0,0,1,,,,,,,,,0,,,88,0
17400,note_on,0,0,1,,,,,,,,,0,,,88,100
17400,note_on,0,0,4,,,,,,,,,0,,,52,110
17400,note_on,0,0,4,,,,,,,,,0,,,44,110
17400,note_on,0,0,4,,,,,,,,,0,,,40,110
17400,note_on,0,0,4,,,,,,,,,0,,,35,0
17430,note_on,0,0,1,,,,,,,,,0,,,79,100
17430,note_on,0,0,1,,,,,,,,,0,,,88,0
17430,note_on,30,0,1,,,,,,,,,0,,,76,0
17430,note_on,0,0,1,,,,,,,,,0,,,91,100
17460,note_on,30,0,1,,,,,,,,,0,,,79,0
17460,note_on,0,0,1,,,,,,,,,0,,,77,100
17460,note_on,0,0,1,,,,,,,,,0,,,89,100
17460,note_on,0,0,1,,,,,,,,,0,,,91,0
17490,note_on,30,0,1,,,,,,,,,0,,,77,0
17490,note_on,0,0,1,,,,,,,,,0,,,89,0
17490,note_on,0,0,1,,,,,,,,,0,,,88,100
17490,note_on,0,0,1,,,,,,,,,0,,,76,100
17520,note_on,0,0,1,,,,,,,,,0,,,88,0
17520,note_on,120,0,4,,,,,,,,,0,,,40,0
17520,note_on,30,0,1,,,,,,,,,0,,,76,0
17520,note_on,0,0,1,,,,,,,,,0,,,69,120
17520,note_on,0,0,4,,,,,,,,,0,,,36,127
17520,note_on,0,0,1,,,,,,,,,0,,,81,120
17520,note_on,0,0,4,,,,,,,,,0,,,52,0
17520,note_on,0,0,4,,,,,,,,,0,,,48,127
17520,note_on,0,0,4,,,,,,,,,0,,,44,0
17550,note_on,30,0,1,,,,,,,,,0,,,69,0
17550,note_on,0,0,1,,,,,,,,,0,,,81,0
17550,note_on,0,0,1,,,,,,,,,0,,,78,100
17550,note_on,0,0,1,,,,,,,,,0,,,75,100
17565,note_on,15,0,1,,,,,,,,,0,,,75,0
17565,note_on,0,0,1,,,,,,,,,0,,,78,0
17610,note_on,0,0,4,,,,,,,,,0,,,54,100
17610,note_on,90,0,4,,,,,,,,,0,,,60,100
17610,note_on,0,0,1,,,,,,,,,0,,,69,100
17610,note_on,45,0,1,,,,,,,,,0,,,81,100
17610,note_on,0,0,4,,,,,,,,,0,,,51,100
17640,note_on,0,0,1,,,,,,,,,0,,,81,100
17640,note_on,30,0,4,,,,,,,,,0,,,51,0
17640,note_on,0,0,1,,,,,,,,,0,,,81,0
17640,note_on,30,0,1,,,,,,,,,0,,,69,0
17640,note_on,0,0,4,,,,,,,,,0,,,60,0
17640,note_on,0,0,4,,,,,,,,,0,,,54,100
17640,note_on,0,0,1,,,,,,,,,0,,,69,100
17640,note_on,0,0,4,,,,,,,,,0,,,60,100
17640,note_on,0,0,4,,,,,,,,,0,,,51,100
17640,note_on,0,0,4,,,,,,,,,0,,,48,0
17640,note_on,0,0,4,,,,,,,,,0,,,54,0
17640,note_on,0,0,4,,,,,,,,,0,,,36,0
17670,note_on,30,0,1,,,,,,,,,0,,,69,0
17670,note_on,0,0,1,,,,,,,,,0,,,72,100
17670,note_on,0,0,4,,,,,,,,,0,,,54,0
17670,note_on,0,0,4,,,,,,,,,0,,,60,0
17670,note_on,30,0,4,,,,,,,,,0,,,51,0
17670,note_on,0,0,1,,,,,,,,,0,,,84,100
17670,note_on,0,0,1,,,,,,,,,0,,,81,0
17700,note_on,0,0,4,,,,,,,,,0,,,45,110
17700,note_on,30,0,4,,,,,,,,,0,,,33,110
17700,note_on,0,0,1,,,,,,,,,0,,,71,100
17700,note_on,0,0,1,,,,,,,,,0,,,83,100
17700,note_on,0,0,1,,,,,,,,,0,,,84,0
17700,note_on,30,0,1,,,,,,,,,0,,,72,0
17730,note_on,0,0,1,,,,,,,,,0,,,69,100
17730,note_on,0,0,1,,,,,,,,,0,,,81,100
17730,note_on,0,0,1,,,,,,,,,0,,,83,0
17730,note_on,30,0,1,,,,,,,,,0,,,71,0
17760,note_on,0,0,4,,,,,,,,,0,,,35,110
17760,note_on,0,0,4,,,,,,,,,0,,,33,0
17760,note_on,60,0,4,,,,,,,,,0,,,45,0
17760,note_on,0,0,1,,,,,,,,,0,,,68,100
17760,note_on,0,0,1,,,,,,,,,0,,,80,100
17760,note_on,0,0,1,,,,,,,,,0,,,81,0
17760,note_on,0,0,4,,,,,,,,,0,,,47,110
17760,note_on,30,0,1,,,,,,,,,0,,,69,0
17790,note_on,0,0,1,,,,,,,,,0,,,83,100
17790,note_on,0,0,1,,,,,,,,,0,,,80,0
17790,note_on,30,0,1,,,,,,,,,0,,,68,0
17790,note_on,0,0,1,,,,,,,,,0,,,71,100
17805,note_on,15,0,1,,,,,,,,,0,,,71,0
17805,note_on,0,0,1,,,,,,,,,0,,,83,0
17820,note_on,0,0,4,,,,,,,,,0,,,35,0
17820,note_on,0,0,4,,,,,,,,,0,,,51,110
17820,note_on,60,0,4,,,,,,,,,0,,,47,0
17820,note_on,0,0,4,,,,,,,,,0,,,39,110
17850,note_on,0,0,1,,,,,,,,,0,,,75,100
17850,note_on,45,0,1,,,,,,,,,0,,,87,100
17880,note_on,0,0,1,,,,,,,,,0,,,87,0
17880,note_on,0,0,4,,,,,,,,,0,,,39,0
17880,note_on,0,0,4,,,,,,,,,0,,,41,120
17880,note_on,60,0,4,,,,,,,,,0,,,51,0
17880,note_on,30,0,1,,,,,,,,,0,,,75,0
17880,note_on,0,0,4,,,,,,,,,0,,,53,120
17880,note_on,0,0,1,,,,,,,,,0,,,89,120
17880,note_on,0,0,1,,,,,,,,,0,,,77,120
17940,note_on,60,0,1,,,,,,,,,0,,,77,0
17940,note_on,0,0,1,,,,,,,,,0,,,89,0
17940,note_on,0,0,1,,,,,,,,,0,,,88,100
17940,note_on,0,0,1,,,,,,,,,0,,,76,100
17940,note_on,60,0,4,,,,,,,,,0,,,53,0
17940,note_on,0,0,4,,,,,,,,,0,,,40,110
17940,note_on,0,0,4,,,,,,,,,0,,,41,0
17940,note_on,0,0,4,,,,,,,,,0,,,52,110
17970,note_on,0,0,1,,,,,,,,,0,,,88,0
17970,note_on,30,0,4,,,,,,,,,0,,,52,0
17970,note_on,30,0,1,,,,,,,,,0,,,76,0
17970,note_on,0,0,4,,,,,,,,,0,,,40,0
18000,note_on,0,0,4,,,,,,,,,0,,,45,110
18000,note_on,0,0,1,,,,,,,,,0,,,79,120
18000,note_on,0,0,1,,,,,,,,,0,,,81,120
18000,note_on,30,0,1,,,,,,,,,0,,,93,120
18000,note_on,0,0,4,,,,,,,,,0,,,52,110
18000,note_on,30,0,4,,,,,,,,,0,,,61,110
18030,note_on,0,0,1,,,,,,,,,0,,,93,0
18030,note_on,0,0,1,,,,,,,,,0,,,81,0
18030,note_on,30,0,1,,,,,,,,,0,,,79,0
18030,note_on,0,0,1,,,,,,,,,0,,,85,100
18030,note_on,0,0,1,,,,,,,,,0,,,88,100
18045,note_on,0,0,1,,,,,,,,,0,,,88,0
18045,note_on,15,0,1,,,,,,,,,0,,,85,0
18090,note_on,0,0,1,,,,,,,,,0,,,81,100
18090,note_on,45,0,1,,,,,,,,,0,,,93,100
18090,note_on,5970,0,3,,,,,,,,,0,,,69,100
18090,note_on,0,0,3,,,,,,,,,0,,,61,100
18090,note_on,0,0,3,,,,,,,,,0,,,64,100
18120,note_on,0,0,1,,,,,,,,,0,,,81,100
18120,note_on,0,0,3,,,,,,,,,0,,,69,100
18120,note_on,0,0,3,,,,,,,,,0,,,69,0
18120,note_on,0,0,3,,,,,,,,,0,,,64,100
18120,note_on,0,0,1,,,,,,,,,0,,,93,100
18120,note_on,0,0,1,,,,,,,,,0,,,93,0
18120,note_on,0,0,4,,,,,,,,,0,,,52,0
18120,note_on,30,0,3,,,,,,,,,0,,,61,0
18120,note_on,0,0,3,,,,,,,,,0,,,61,100
18120,note_on,120,0,4,,,,,,,,,0,,,45,0
18120,note_on,30,0,1,,,,,,,,,0,,,81,0
18120,note_on,0,0,4,,,,,,,,,0,,,61,0
18120,note_on,0,0,3,,,,,,,,,0,,,64,0
18150,note_on,0,0,1,,,,,,,,,0,,,82,100
18150,note_on,0,0,1,,,,,,,,,0,,,93,0
18150,note_on,0,0,1,,,,,,,,,0,,,94,100
18150,note_on,30,0,1,,,,,,,,,0,,,81,0
18150,note_on,0,0,3,,,,,,,,,0,,,64,0
18150,note_on,0,0,3,,,,,,,,,0,,,69,0
18150,note_on,30,0,3,,,,,,,,,0,,,61,0
18180,note_on,30,0,1,,,,,,,,,0,,,82,0
18180,note_on,0,0,1,,,,,,,,,0,,,93,100
18180,note_on,0,0,1,,,,,,,,,0,,,81,100
18180,note_on,0,0,1,,,,,,,,,0,,,94,0
18180,note_on,0,0,4,,,,,,,,,0,,,48,110
18180,note_on,60,0,4,,,,,,,,,0,,,37,110
18210,note_on,0,0,1,,,,,,,,,0,,,93,0
18210,note_on,30,0,1,,,,,,,,,0,,,81,0
18210,note_on,0,0,1,,,,,,,,,0,,,79,100
18210,note_on,0,0,1,,,,,,,,,0,,,91,100
18240,note_on,30,0,1,,,,,,,,,0,,,79,0
18240,note_on,0,0,4,,,,,,,,,0,,,37,0
18240,note_on,0,0,4,,,,,,,,,0,,,38,110
18240,note_on,0,0,4,,,,,,,,,0,,,53,110
18240,note_on,0,0,1,,,,,,,,,0,,,77,100
18240,note_on,0,0,1,,,,,,,,,0,,,91,0
18240,note_on,60,0,4,,,,,,,,,0,,,48,0
18240,note_on,0,0,1,,,,,,,,,0,,,89,100
18270,note_on,0,0,1,,,,,,,,,0,,,81,101
18270,note_on,0,0,1,,,,,,,,,0,,,86,101
18270,note_on,0,0,1,,,,,,,,,0,,,89,0
18270,note_on,30,0,1,,,,,,,,,0,,,77,0
18285,note_on,15,0,1,,,,,,,,,0,,,81,0
18285,note_on,0,0,1,,,,,,,,,0,,,86,0
18300,note_on,0,0,4,,,,,,,,,0,,,55,112
18300,note_on,0,0,4,,,,,,,,,0,,,53,0
18300,note_on,0,0,4,,,,,,,,,0,,,40,112
18300,note_on,60,0,4,,,,,,,,,0,,,38,0
18330,note_on,45,0,1,,,,,,,,,0,,,85,104
18330,note_on,0,0,1,,,,,,,,,0,,,73,104
18360,note_on,30,0,1,,,,,,,,,0,,,73,0
18360,note_on,0,0,1,,,,,,,,,0,,,74,105
18360,note_on,0,0,1,,,,,,,,,0,,,86,105
18360,note_on,0,0,1,,,,,,,,,0,,,85,0
18360,note_on,0,0,4,,,,,,,,,0,,,41,115
18360,note_on,0,0,4,,,,,,,,,0,,,55,0
18360,note_on,0,0,4,,,,,,,,,0,,,56,115
18360,note_on,60,0,4,,,,,,,,,0,,,40,0
18390,note_on,0,0,1,,,,,,,,,0,,,77,107
18390,note_on,0,0,1,,,,,,,,,0,,,86,0
18390,note_on,30,0,1,,,,,,,,,0,,,74,0
18390,note_on,0,0,1,,,,,,,,,0,,,89,107
18420,note_on,0,0,4,,,,,,,,,0,,,42,118
18420,note_on,0,0,4,,,,,,,,,0,,,56,0
18420,note_on,0,0,4,,,,,,,,,0,,,57,118
18420,note_on,60,0,4,,,,,,,,,0,,,41,0
18420,note_on,0,0,1,,,,,,,,,0,,,75,108
18420,note_on,0,0,1,,,,,,,,,0,,,87,108
18420,note_on,0,0,1,,,,,,,,,0,,,89,0
18420,note_on,30,0,1,,,,,,,,,0,,,77,0
18450,note_on,30,0,1,,,,,,,,,0,,,75,0
18450,note_on,0,0,1,,,,,,,,,0,,,74,109
18450,note_on,0,0,1,,,,,,,,,0,,,87,0
18450,note_on,0,0,1,,,,,,,,,0,,,86,109
18480,note_on,0,0,4,,,,,,,,,0,,,59,120
18480,note_on,0,0,4,,,,,,,,,0,,,57,0
18480,note_on,0,0,4,,,,,,,,,0,,,50,120
18480,note_on,0,0,4,,,,,,,,,0,,,43,120
18480,note_on,60,0,4,,,,,,,,,0,,,42,0
18480,note_on,0,0,1,,,,,,,,,0,,,77,127
18480,note_on,0,0,1,,,,,,,,,0,,,79,127
18480,note_on,0,0,1,,,,,,,,,0,,,86,0
18480,note_on,0,0,1,,,,,,,,,0,,,91,127
18480,note_on,30,0,1,,,,,,,,,0,,,74,0
18510,note_on,0,0,1,,,,,,,,,0,,,79,0
18510,note_on,0,0,1,,,,,,,,,0,,,83,110
18510,note_on,0,0,1,,,,,,,,,0,,,86,110
18510,note_on,0,0,1,,,,,,,,,0,,,91,0
18510,note_on,30,0,1,,,,,,,,,0,,,77,0
18525,note_on,15,0,1,,,,,,,,,0,,,83,0
18525,note_on,0,0,1,,,,,,,,,0,,,86,0
18570,note_on,0,0,3,,,,,,,,,0,,,62,110
18570,note_on,420,0,3,,,,,,,,,0,,,59,110
18570,note_on,0,0,3,,,,,,,,,0,,,67,110
18570,note_on,0,0,1,,,,,,,,,0,,,79,110
18570,note_on,45,0,1,,,,,,,,,0,,,91,110
18600,note_on,0,0,4,,,,,,,,,0,,,59,0
18600,note_on,0,0,4,,,,,,,,,0,,,50,0
18600,note_on,0,0,3,,,,,,,,,0,,,67,110
18600,note_on,120,0,4,,,,,,,,,0,,,43,0
18600,note_on,0,0,3,,,,,,,,,0,,,59,0
18600,note_on,0,0,3,,,,,,,,,0,,,59,110
18600,note_on,0,0,3,,,,,,,,,0,,,62,0
18600,note_on,0,0,3,,,,,,,,,0,,,62,110
18600,note_on,30,0,3,,,,,,,,,0,,,67,0
18600,note_on,0,0,1,,,,,,,,,0,,,91,0
18600,note_on,0,0,1,,,,,,,,,0,,,79,110
18600,note_on,0,0,1,,,,,,,,,0,,,91,110
18600,note_on,30,0,1,,,,,,,,,0,,,79,0
18630,note_on,0,0,3,,,,,,,,,0,,,62,0
18630,note_on,0,0,3,,,,,,,,,0,,,59,0
18630,note_on,30,0,1,,,,,,,,,0,,,79,0
18630,note_on,30,0,3,,,,,,,,,0,,,67,0
18630,note_on,0,0,1,,,,,,,,,0,,,80,110
18630,note_on,0,0,1,,,,,,,,,0,,,91,0
18630,note_on,0,0,1,,,,,,,,,0,,,92,110
18660,note_on,60,0,4,,,,,,,,,0,,,35,120
18660,note_on,0,0,1,,,,,,,,,0,,,92,0
18660,note_on,0,0,1,,,,,,,,,0,,,91,110
18660,note_on,0,0,1,,,,,,,,,0,,,79,110
18660,note_on,30,0,1,,,,,,,,,0,,,80,0
18660,note_on,0,0,4,,,,,,,,,0,,,50,120
18690,note_on,30,0,1,,,,,,,,,0,,,79,0
18690,note_on,0,0,1,,,,,,,,,0,,,77,110
18690,note_on,0,0,1,,,,,,,,,0,,,89,110
18690,note_on,0,0,1,,,,,,,,,0,,,91,0
18720,note_on,0,0,1,,,,,,,,,0,,,76,110
18720,note_on,0,0,1,,,,,,,,,0,,,88,110
18720,note_on,0,0,1,,,,,,,,,0,,,89,0
18720,note_on,0,0,4,,,,,,,,,0,,,36,120
18720,note_on,0,0,4,,,,,,,,,0,,,35,0
18720,note_on,60,0,4,,,,,,,,,0,,,50,0
18720,note_on,30,0,1,,,,,,,,,0,,,77,0
18720,note_on,0,0,4,,,,,,,,,0,,,52,120
18750,note_on,0,0,1,,,,,,,,,0,,,88,0
18750,note_on,0,0,1,,,,,,,,,0,,,84,110
18750,note_on,0,0,1,,,,,,,,,0,,,79,110
18750,note_on,30,0,1,,,,,,,,,0,,,76,0
18765,note_on,15,0,1,,,,,,,,,0,,,79,0
18765,note_on,0,0,1,,,,,,,,,0,,,84,0
18780,note_on,0,0,4,,,,,,,,,0,,,38,120
18780,note_on,0,0,4,,,,,,,,,0,,,52,0
18780,note_on,0,0,4,,,,,,,,,0,,,53,120
18780,note_on,60,0,4,,,,,,,,,0,,,36,0
18810,note_on,45,0,1,,,,,,,,,0,,,83,110
18810,note_on,0,0,1,,,,,,,,,0,,,71,110
18840,note_on,60,0,4,,,,,,,,,0,,,38,0
18840,note_on,0,0,4,,,,,,,,,0,,,54,120
18840,note_on,0,0,4,,,,,,,,,0,,,53,0
18840,note_on,0,0,1,,,,,,,,,0,,,83,0
18840,note_on,30,0,1,,,,,,,,,0,,,71,0
18840,note_on,0,0,4,,,,,,,,,0,,,39,120
18840,note_on,0,0,1,,,,,,,,,0,,,72,110
18840,note_on,0,0,1,,,,,,,,,0,,,84,110
18870,note_on,30,0,1,,,,,,,,,0,,,72,0
18870,note_on,0,0,1,,,,,,,,,0,,,75,110
18870,note_on,0,0,1,,,,,,,,,0,,,84,0
18870,note_on,0,0,1,,,,,,,,,0,,,87,110
18900,note_on,60,0,4,,,,,,,,,0,,,39,0
18900,note_on,0,0,4,,,,,,,,,0,,,40,120
18900,note_on,0,0,4,,,,,,,,,0,,,54,0
18900,note_on,0,0,4,,,,,,,,,0,,,55,120
18900,note_on,30,0,1,,,,,,,,,0,,,75,0
18900,note_on,0,0,1,,,,,,,,,0,,,73,110
18900,note_on,0,0,1,,,,,,,,,0,,,85,110
18900,note_on,0,0,1,,,,,,,,,0,,,87,0
18930,note_on,0,0,1,,,,,,,,,0,,,84,110
18930,note_on,30,0,1,,,,,,,,,0,,,73,0
18930,note_on,0,0,1,,,,,,,,,0,,,85,0
18930,note_on,0,0,1,,,,,,,,,0,,,72,110
18960,note_on,0,0,1,,,,,,,,,0,,,77,110
18960,note_on,0,0,1,,,,,,,,,0,,,84,0
18960,note_on,0,0,1,,,,,,,,,0,,,89,110
18960,note_on,30,0,1,,,,,,,,,0,,,72,0
18960,note_on,60,0,4,,,,,,,,,0,,,40,0
18960,note_on,0,0,4,,,,,,,,,0,,,41,120
18960,note_on,0,0,4,,,,,,,,,0,,,47,120
18960,note_on,0,0,4,,,,,,,,,0,,,50,120
18960,note_on,0,0,4,,,,,,,,,0,,,55,0
18960,note_on,0,0,4,,,,,,,,,0,,,56,120
18975,note_on,0,0,4,,,,,,,,,0,,,50,0
18975,note_on,15,0,4,,,,,,,,,0,,,41,0
18975,note_on,0,0,4,,,,,,,,,0,,,56,0
18975,note_on,0,0,4,,,,,,,,,0,,,47,0
18990,note_on,0,0,1,,,,,,,,,0,,,89,0
18990,note_on,30,0,1,,,,,,,,,0,,,77,0
18990,note_on,0,0,1,,,,,,,,,0,,,83,110
18990,note_on,0,0,1,,,,,,,,,0,,,80,110
19005,note_on,15,0,1,,,,,,,,,0,,,80,0
19005,note_on,0,0,1,,,,,,,,,0,,,83,0
19050,note_on,0,0,4,,,,,,,,,0,,,62,110
19050,note_on,45,0,1,,,,,,,,,0,,,71,110
19050,note_on,0,0,1,,,,,,,,,0,,,68,110
19050,note_on,75,0,4,,,,,,,,,0,,,65,110
19080,note_on,0,0,4,,,,,,,,,0,,,65,0
19080,note_on,30,0,1,,,,,,,,,0,,,68,0
19080,note_on,0,0,1,,,,,,,,,0,,,71,127
19080,note_on,0,0,1,,,,,,,,,0,,,71,0
19080,note_on,0,0,1,,,,,,,,,0,,,68,127
19080,note_on,0,0,4,,,,,,,,,0,,,62,110
19080,note_on,30,0,4,,,,,,,,,0,,,62,0
19080,note_on,0,0,4,,,,,,,,,0,,,65,110
19110,note_on,30,0,4,,,,,,,,,0,,,62,0
19110,note_on,0,0,4,,,,,,,,,0,,,59,110
19110,note_on,30,0,1,,,,,,,,,0,,,71,0
19110,note_on,0,0,1,,,,,,,,,0,,,74,110
19140,note_on,0,0,4,,,,,,,,,0,,,60,110
19140,note_on,0,0,1,,,,,,,,,0,,,72,110
19140,note_on,30,0,4,,,,,,,,,0,,,59,0
19140,note_on,30,0,1,,,,,,,,,0,,,74,0
19170,note_on,0,0,1,,,,,,,,,0,,,71,110
19170,note_on,30,0,4,,,,,,,,,0,,,60,0
19170,note_on,0,0,4,,,,,,,,,0,,,62,110
19170,note_on,30,0,1,,,,,,,,,0,,,72,0
19200,note_on,0,0,1,,,,,,,,,0,,,68,0
19200,note_on,0,0,1,,,,,,,,,0,,,76,110
19200,note_on,30,0,4,,,,,,,,,0,,,62,0
19200,note_on,30,0,1,,,,,,,,,0,,,71,0
19200,note_on,0,0,4,,,,,,,,,0,,,40,120
19200,note_on,0,0,4,,,,,,,,,0,,,48,120
19200,note_on,0,0,4,,,,,,,,,0,,,57,120
19200,note_on,0,0,4,,,,,,,,,0,,,65,0
19200,note_on,0,0,1,,,,,,,,,0,,,88,110
19215,note_on,0,0,4,,,,,,,,,0,,,48,0
19215,note_on,0,0,4,,,,,,,,,0,,,57,0
19215,note_on,15,0,4,,,,,,,,,0,,,40,0
19230,note_on,0,0,1,,,,,,,,,0,,,88,0
19230,note_on,0,0,1,,,,,,,,,0,,,81,110
19230,note_on,30,0,1,,,,,,,,,0,,,76,0
19230,note_on,0,0,1,,,,,,,,,0,,,84,110
19245,note_on,15,0,1,,,,,,,,,0,,,81,0
19245,note_on,0,0,1,,,,,,,,,0,,,84,0
19290,note_on,45,0,1,,,,,,,,,0,,,69,110
19290,note_on,0,0,1,,,,,,,,,0,,,64,110
19290,note_on,75,0,4,,,,,,,,,0,,,60,110
19320,note_on,0,0,1,,,,,,,,,0,,,64,127
19320,note_on,0,0,1,,,,,,,,,0,,,69,127
19320,note_on,30,0,4,,,,,,,,,0,,,60,0
19320,note_on,0,0,4,,,,,,,,,0,,,60,110
19320,note_on,30,0,1,,,,,,,,,0,,,64,0
19320,note_on,0,0,1,,,,,,,,,0,,,69,0
19350,note_on,0,0,1,,,,,,,,,0,,,72,110
19350,note_on,0,0,4,,,,,,,,,0,,,57,110
19350,note_on,30,0,1,,,,,,,,,0,,,69,0
19350,note_on,30,0,4,,,,,,,,,0,,,60,0
19380,note_on,30,0,1,,,,,,,,,0,,,72,0
19380,note_on,0,0,4,,,,,,,,,0,,,59,110
19380,note_on,0,0,1,,,,,,,,,0,,,71,110
19380,note_on,30,0,4,,,,,,,,,0,,,57,0
19410,note_on,30,0,4,,,,,,,,,0,,,59,0
19410,note_on,30,0,1,,,,,,,,,0,,,71,0
19410,note_on,0,0,4,,,,,,,,,0,,,60,110
19410,note_on,0,0,1,,,,,,,,,0,,,69,110
19440,note_on,0,0,4,,,,,,,,,0,,,57,120
19440,note_on,0,0,4,,,,,,,,,0,,,47,120
19440,note_on,0,0,4,,,,,,,,,0,,,53,120
19440,note_on,30,0,4,,,,,,,,,0,,,60,0
19440,note_on,0,0,1,,,,,,,,,0,,,74,127
19440,note_on,30,0,1,,,,,,,,,0,,,69,0
19440,note_on,0,0,1,,,,,,,,,0,,,64,0
19440,note_on,0,0,1,,,,,,,,,0,,,62,127
19470,note_on,0,0,1,,,,,,,,,0,,,77,110
19470,note_on,30,0,1,,,,,,,,,0,,,62,0
19470,note_on,0,0,1,,,,,,,,,0,,,65,110
19470,note_on,0,0,1,,,,,,,,,0,,,74,0
19500,note_on,0,0,1,,,,,,,,,0,,,64,110
19500,note_on,0,0,1,,,,,,,,,0,,,76,110
19500,note_on,0,0,1,,,,,,,,,0,,,77,0
19500,note_on,30,0,1,,,,,,,,,0,,,65,0
19530,note_on,0,0,1,,,,,,,,,0,,,75,110
19530,note_on,0,0,1,,,,,,,,,0,,,76,0
19530,note_on,30,0,1,,,,,,,,,0,,,64,0
19530,note_on,0,0,1,,,,,,,,,0,,,63,110
19560,note_on,0,0,4,,,,,,,,,0,,,57,0
19560,note_on,0,0,1,,,,,,,,,0,,,76,110
19560,note_on,0,0,1,,,,,,,,,0,,,75,0
19560,note_on,0,0,1,,,,,,,,,0,,,64,110
19560,note_on,0,0,4,,,,,,,,,0,,,56,120
19560,note_on,30,0,1,,,,,,,,,0,,,63,0
19560,note_on,0,0,4,,,,,,,,,0,,,53,0
19560,note_on,0,0,4,,,,,,,,,0,,,40,120
19560,note_on,120,0,4,,,,,,,,,0,,,47,0
19590,note_on,0,0,1,,,,,,,,,0,,,76,0
19590,note_on,0,0,1,,,,,,,,,0,,,71,110
19590,note_on,30,0,1,,,,,,,,,0,,,64,0
19590,note_on,0,0,1,,,,,,,,,0,,,59,110
19620,note_on,0,0,1,,,,,,,,,0,,,71,0
19620,note_on,0,0,1,,,,,,,,,0,,,62,110
19620,note_on,30,0,1,,,,,,,,,0,,,59,0
19620,note_on,0,0,1,,,,,,,,,0,,,74,110
19650,note_on,0,0,1,,,,,,,,,0,,,60,110
19650,note_on,0,0,1,,,,,,,,,0,,,74,0
19650,note_on,30,0,1,,,,,,,,,0,,,62,0
19650,note_on,0,0,1,,,,,,,,,0,,,72,110
19680,note_on,30,0,1,,,,,,,,,0,,,60,0
19680,note_on,0,0,1,,,,,,,,,0,,,72,0
19680,note_on,0,0,1,,,,,,,,,0,,,71,120
19680,note_on,0,0,1,,,,,,,,,0,,,64,110
19680,note_on,0,0,4,,,,,,,,,0,,,52,110
19680,note_on,0,0,1,,,,,,,,,0,,,59,120
19680,note_on,120,0,4,,,,,,,,,0,,,56,0
19680,note_on,0,0,4,,,,,,,,,0,,,45,120
19680,note_on,0,0,4,,,,,,,,,0,,,50,120
19680,note_on,0,0,4,,,,,,,,,0,,,56,120
19680,note_on,0,0,4,,,,,,,,,0,,,40,0
19710,note_on,30,0,4,,,,,,,,,0,,,52,0
19710,note_on,30,0,1,,,,,,,,,0,,,64,0
19710,note_on,0,0,1,,,,,,,,,0,,,67,108
19710,note_on,0,0,4,,,,,,,,,0,,,55,108
19740,note_on,0,0,4,,,,,,,,,0,,,53,105
19740,note_on,0,0,1,,,,,,,,,0,,,65,105
19740,note_on,30,0,1,,,,,,,,,0,,,67,0
19740,note_on,30,0,4,,,,,,,,,0,,,55,0
19770,note_on,30,0,1,,,,,,,,,0,,,65,0
19770,note_on,0,0,1,,,,,,,,,0,,,64,102
19770,note_on,30,0,4,,,,,,,,,0,,,53,0
19770,note_on,0,0,4,,,,,,,,,0,,,52,102
19800,note_on,30,0,4,,,,,,,,,0,,,56,0
19800,note_on,0,0,1,,,,,,,,,0,,,57,100
19800,note_on,0,0,1,,,,,,,,,0,,,59,0
19800,note_on,0,0,4,,,,,,,,,0,,,50,0
19800,note_on,0,0,4,,,,,,,,,0,,,48,100
19800,note_on,0,0,4,,,,,,,,,0,,,45,0
19800,note_on,0,0,4,,,,,,,,,0,,,45,100
19800,note_on,30,0,1,,,,,,,,,0,,,71,0
19800,note_on,0,0,1,,,,,,,,,0,,,69,100
19815,note_on,0,0,1,,,,,,,,,0,,,57,0
19815,note_on,0,0,4,,,,,,,,,0,,,48,0
19815,note_on,0,0,4,,,,,,,,,0,,,52,0
19815,note_on,0,0,1,,,,,,,,,0,,,64,0
19815,note_on,15,0,1,,,,,,,,,0,,,69,0
19815,note_on,15,0,4,,,,,,,,,0,,,45,0
19920,note_on,0,0,3,,,,,,,,,0,,,69,70
19920,note_on,0,0,3,,,,,,,,,0,,,60,70
19920,marker,3840,1,0,,,,,,,,,,,,,
19920,note_on,1290,0,3,,,,,,,,,0,,,57,70
19920,note_on,105,0,1,,,,,,,,,0,,,81,60
19935,note_on,0,0,3,,,,,,,,,0,,,60,0
19935,note_on,0,0,3,,,,,,,,,0,,,57,0
19935,note_on,15,0,3,,,,,,,,,0,,,69,0
19950,note_on,30,0,1,,,,,,,,,0,,,93,60
19980,note_on,30,0,1,,,,,,,,,0,,,93,0
19980,note_on,0,0,1,,,,,,,,,0,,,81,0
19980,note_on,0,0,1,,,,,,,,,0,,,80,60
19980,note_on,45,0,3,,,,,,,,,0,,,72,70
19980,note_on,0,0,3,,,,,,,,,0,,,64,70
19980,note_on,0,0,1,,,,,,,,,0,,,92,60
19995,note_on,0,0,3,,,,,,,,,0,,,72,0
19995,note_on,15,0,3,,,,,,,,,0,,,64,0
20010,note_on,0,0,1,,,,,,,,,0,,,79,60
20010,note_on,0,0,1,,,,,,,,,0,,,91,60
20010,note_on,0,0,1,,,,,,,,,0,,,92,0
20010,note_on,30,0,1,,,,,,,,,0,,,80,0
20040,note_on,0,0,3,,,,,,,,,0,,,71,70
20040,note_on,0,0,1,,,,,,,,,0,,,78,60
20040,note_on,0,0,1,,,,,,,,,0,,,91,0
20040,note_on,45,0,3,,,,,,,,,0,,,62,70
20040,note_on,0,0,1,,,,,,,,,0,,,90,60
20040,note_on,30,0,1,,,,,,,,,0,,,79,0
20055,note_on,0,0,3,,,,,,,,,0,,,62,0
20055,note_on,15,0,3,,,,,,,,,0,,,71,0
20070,note_on,30,0,1,,,,,,,,,0,,,78,0
20070,note_on,0,0,1,,,,,,,,,0,,,90,0
20070,note_on,0,0,1,,,,,,,,,0,,,89,60
20070,note_on,0,0,1,,,,,,,,,0,,,77,60
20100,note_on,0,0,1,,,,,,,,,0,,,89,0
20100,note_on,0,0,1,,,,,,,,,0,,,88,60
20100,note_on,0,0,1,,,,,,,,,0,,,76,60
20100,note_on,45,0,3,,,,,,,,,0,,,69,70
20100,note_on,30,0,1,,,,,,,,,0,,,77,0
20100,note_on,0,0,3,,,,,,,,,0,,,60,70
20115,note_on,0,0,3,,,,,,,,,0,,,69,0
20115,note_on,15,0,3,,,,,,,,,0,,,60,0
20130,note_on,0,0,1,,,,,,,,,0,,,75,60
20130,note_on,0,0,1,,,,,,,,,0,,,87,60
20130,note_on,0,0,1,,,,,,,,,0,,,88,0
20130,note_on,30,0,1,,,,,,,,,0,,,76,0
20160,note_on,0,0,1,,,,,,,,,0,,,89,60
20160,note_on,45,0,3,,,,,,,,,0,,,52,70
20160,note_on,30,0,1,,,,,,,,,0,,,75,0
20160,note_on,0,0,3,,,,,,,,,0,,,64,70
20160,note_on,0,0,3,,,,,,,,,0,,,56,70
20160,note_on,0,0,1,,,,,,,,,0,,,77,60
20160,note_on,0,0,1,,,,,,,,,0,,,87,0
20175,note_on,15,0,3,,,,,,,,,0,,,64,0
20175,note_on,0,0,3,,,,,,,,,0,,,56,0
20175,note_on,0,0,3,,,,,,,,,0,,,52,0
20190,note_on,0,0,1,,,,,,,,,0,,,89,0
20190,note_on,0,0,1,,,,,,,,,0,,,88,60
20190,note_on,0,0,1,,,,,,,,,0,,,76,60
20190,note_on,30,0,1,,,,,,,,,0,,,77,0
20220,note_on,45,0,3,,,,,,,,,0,,,67,70
20220,note_on,0,0,3,,,,,,,,,0,,,59,70
20220,note_on,0,0,1,,,,,,,,,0,,,75,60
20220,note_on,0,0,1,,,,,,,,,0,,,87,60
20220,note_on,0,0,1,,,,,,,,,0,,,88,0
20220,note_on,30,0,1,,,,,,,,,0,,,76,0
20235,note_on,0,0,3,,,,,,,,,0,,,67,0
20235,note_on,15,0,3,,,,,,,,,0,,,59,0
20250,note_on,0,0,1,,,,,,,,,0,,,77,60
20250,note_on,0,0,1,,,,,,,,,0,,,87,0
20250,note_on,30,0,1,,,,,,,,,0,,,75,0
20250,note_on,0,0,1,,,,,,,,,0,,,89,60
20280,note_on,0,0,3,,,,,,,,,0,,,65,70
20280,note_on,0,0,1,,,,,,,,,0,,,88,60
20280,note_on,45,0,3,,,,,,,,,0,,,57,70
20280,note_on,30,0,1,,,,,,,,,0,,,77,0
20280,note_on,0,0,1,,,,,,,,,0,,,89,0
20280,note_on,0,0,1,,,,,,,,,0,,,76,60
20295,note_on,15,0,3,,,,,,,,,0,,,65,0
20295,note_on,0,0,3,,,,,,,,,0,,,57,0
20310,note_on,30,0,1,,,,,,,,,0,,,88,0
20310,note_on,0,0,1,,,,,,,,,0,,,83,60
20340,note_on,0,0,1,,,,,,,,,0,,,80,60
20340,note_on,0,0,1,,,,,,,,,0,,,76,0
20340,note_on,0,0,1,,,,,,,,,0,,,71,60
20340,note_on,30,0,1,,,,,,,,,0,,,83,0
20340,note_on,45,0,3,,,,,,,,,0,,,64,70
20340,note_on,0,0,3,,,,,,,,,0,,,55,70
20355,note_on,0,0,3,,,,,,,,,0,,,64,0
20355,note_on,15,0,3,,,,,,,,,0,,,55,0
20370,note_on,0,0,1,,,,,,,,,0,,,76,60
20370,note_on,30,0,1,,,,,,,,,0,,,80,0
20400,note_on,0,0,1,,,,,,,,,0,,,81,60
20400,note_on,0,0,1,,,,,,,,,0,,,71,0
20400,note_on,45,0,3,,,,,,,,,0,,,57,70
20400,note_on,30,0,1,,,,,,,,,0,,,76,0
20400,note_on,0,0,3,,,,,,,,,0,,,60,70
20400,note_on,0,0,3,,,,,,,,,0,,,69,70
20415,note_on,0,0,3,,,,,,,,,0,,,57,0
20415,note_on,0,0,3,,,,,,,,,0,,,60,0
20415,note_on,15,0,3,,,,,,,,,0,,,69,0
20430,note_on,30,0,1,,,,,,,,,0,,,93,60
20460,note_on,30,0,1,,,,,,,,,0,,,93,0
20460,note_on,0,0,3,,,,,,,,,0,,,64,70
20460,note_on,0,0,1,,,,,,,,,0,,,80,60
20460,note_on,0,0,1,,,,,,,,,0,,,81,0
20460,note_on,0,0,1,,,,,,,,,0,,,92,60
20460,note_on,45,0,3,,,,,,,,,0,,,72,70
20475,note_on,15,0,3,,,,,,,,,0,,,64,0
20475,note_on,0,0,3,,,,,,,,,0,,,72,0
20490,note_on,0,0,1,,,,,,,,,0,,,91,60
20490,note_on,30,0,1,,,,,,,,,0,,,80,0
20490,note_on,0,0,1,,,,,,,,,0,,,92,0
20490,note_on,0,0,1,,,,,,,,,0,,,79,60
20520,note_on,45,0,3,,,,,,,,,0,,,62,70
20520,note_on,30,0,1,,,,,,,,,0,,,79,0
20520,note_on,0,0,1,,,,,,,,,0,,,91,0
20520,note_on,0,0,1,,,,,,,,,0,,,90,60
20520,note_on,0,0,1,,,,,,,,,0,,,78,60
20520,note_on,0,0,3,,,,,,,,,0,,,71,70
20535,note_on,15,0,3,,,,,,,,,0,,,71,0
20535,note_on,0,0,3,,,,,,,,,0,,,62,0
20550,note_on,0,0,1,,,,,,,,,0,,,89,60
20550,note_on,0,0,1,,,,,,,,,0,,,77,60
20550,note_on,0,0,1,,,,,,,,,0,,,90,0
20550,note_on,30,0,1,,,,,,,,,0,,,78,0
20580,note_on,0,0,3,,,,,,,,,0,,,60,70
20580,note_on,30,0,1,,,,,,,,,0,,,77,0
20580,note_on,45,0,3,,,,,,,,,0,,,69,70
20580,note_on,0,0,1,,,,,,,,,0,,,89,0
20580,note_on,0,0,1,,,,,,,,,0,,,88,60
20580,note_on,0,0,1,,,,,,,,,0,,,76,60
20595,note_on,0,0,3,,,,,,,,,0,,,69,0
20595,note_on,15,0,3,,,,,,,,,0,,,60,0
20610,note_on,0,0,1,,,,,,,,,0,,,88,0
20610,note_on,0,0,1,,,,,,,,,0,,,87,60
20610,note_on,0,0,1,,,,,,,,,0,,,75,60
20610,note_on,30,0,1,,,,,,,,,0,,,76,0
20640,note_on,0,0,3,,,,,,,,,0,,,60,70
20640,note_on,0,0,3,,,,,,,,,0,,,65,70
20640,note_on,0,0,1,,,,,,,,,0,,,87,0
20640,note_on,0,0,1,,,,,,,,,0,,,89,60
20640,note_on,30,0,1,,,,,,,,,0,,,75,0
20640,note_on,45,0,3,,,,,,,,,0,,,57,70
20640,note_on,0,0,1,,,,,,,,,0,,,77,60
20655,note_on,0,0,3,,,,,,,,,0,,,57,0
20655,note_on,15,0,3,,,,,,,,,0,,,65,0
20655,note_on,0,0,3,,,,,,,,,0,,,60,0
20670,note_on,0,0,1,,,,,,,,,0,,,76,60
20670,note_on,0,0,1,,,,,,,,,0,,,88,60
20670,note_on,0,0,1,,,,,,,,,0,,,89,0
20670,note_on,30,0,1,,,,,,,,,0,,,77,0
20700,note_on,0,0,1,,,,,,,,,0,,,75,60
20700,note_on,0,0,1,,,,,,,,,0,,,87,60
20700,note_on,0,0,1,,,,,,,,,0,,,88,0
20700,note_on,30,0,1,,,,,,,,,0,,,76,0
20730,note_on,30,0,1,,,,,,,,,0,,,75,0
20730,note_on,0,0,1,,,,,,,,,0,,,89,60
20730,note_on,0,0,1,,,,,,,,,0,,,87,0
20730,note_on,0,0,1,,,,,,,,,0,,,77,60
20760,note_on,0,0,3,,,,,,,,,0,,,64,70
20760,note_on,30,0,1,,,,,,,,,0,,,77,0
20760,note_on,0,0,1,,,,,,,,,0,,,89,0
20760,note_on,0,0,1,,,,,,,,,0,,,88,60
20760,note_on,0,0,3,,,,,,,,,0,,,56,70
20760,note_on,0,0,1,,,,,,,,,0,,,76,60
20760,note_on,105,0,3,,,,,,,,,0,,,52,70
20775,note_on,15,0,1,,,,,,,,,0,,,76,0
20775,note_on,0,0,3,,,,,,,,,0,,,52,0
20775,note_on,0,0,3,,,,,,,,,0,,,56,0
20775,note_on,15,0,3,,,,,,,,,0,,,64,0
20775,note_on,0,0,1,,,,,,,,,0,,,88,0
20820,note_on,45,0,1,,,,,,,,,0,,,76,60
20835,note_on,15,0,1,,,,,,,,,0,,,76,0
20880,note_on,0,0,3,,,,,,,,,0,,,69,70
20880,note_on,0,0,3,,,,,,,,,0,,,60,70
20880,note_on,105,0,3,,,,,,,,,0,,,57,70
20880,note_on,45,0,1,,,,,,,,,0,,,81,60
20895,note_on,0,0,3,,,,,,,,,0,,,57,0
20895,note_on,0,0,3,,,,,,,,,0,,,60,0
20895,note_on,15,0,3,,,,,,,,,0,,,69,0
20910,note_on,30,0,1,,,,,,,,,0,,,93,60
20940,note_on,45,0,3,,,,,,,,,0,,,72,70
20940,note_on,0,0,3,,,,,,,,,0,,,64,70
20940,note_on,30,0,1,,,,,,,,,0,,,93,0
20940,note_on,0,0,1,,,,,,,,,0,,,92,60
20940,note_on,0,0,1,,,,,,,,,0,,,81,0
20940,note_on,0,0,1,,,,,,,,,0,,,80,60
20955,note_on,15,0,3,,,,,,,,,0,,,64,0
20955,note_on,0,0,3,,,,,,,,,0,,,72,0
20970,note_on,0,0,1,,,,,,,,,0,,,91,60
20970,note_on,0,0,1,,,,,,,,,0,,,92,0
20970,note_on,30,0,1,,,,,,,,,0,,,80,0
20970,note_on,0,0,1,,,,,,,,,0,,,79,60
21000,note_on,0,0,1,,,,,,,,,0,,,78,60
21000,note_on,0,0,1,,,,,,,,,0,,,91,0
21000,note_on,30,0,1,,,,,,,,,0,,,79,0
21000,note_on,0,0,3,,,,,,,,,0,,,71,70
21000,note_on,45,0,3,,,,,,,,,0,,,62,70
21000,note_on,0,0,1,,,,,,,,,0,,,90,60
21015,note_on,0,0,3,,,,,,,,,0,,,62,0
21015,note_on,15,0,3,,,,,,,,,0,,,71,0
21030,note_on,0,0,1,,,,,,,,,0,,,90,0
21030,note_on,0,0,1,,,,,,,,,0,,,77,60
21030,note_on,30,0,1,,,,,,,,,0,,,78,0
21030,note_on,0,0,1,,,,,,,,,0,,,89,60
21060,note_on,0,0,1,,,,,,,,,0,,,89,0
21060,note_on,0,0,1,,,,,,,,,0,,,88,60
21060,note_on,0,0,3,,,,,,,,,0,,,60,70
21060,note_on,45,0,3,,,,,,,,,0,,,69,70
21060,note_on,0,0,1,,,,,,,,,0,,,76,60
21060,note_on,30,0,1,,,,,,,,,0,,,77,0
21075,note_on,15,0,3,,,,,,,,,0,,,60,0
21075,note_on,0,0,3,,,,,,,,,0,,,69,0
21090,note_on,0,0,1,,,,,,,,,0,,,87,60
21090,note_on,0,0,1,,,,,,,,,0,,,75,60
21090,note_on,0,0,1,,,,,,,,,0,,,88,0
21090,note_on,30,0,1,,,,,,,,,0,,,76,0
21120,note_on,0,0,1,,,,,,,,,0,,,77,60
21120,note_on,0,0,1,,,,,,,,,0,,,87,0
21120,note_on,0,0,1,,,,,,,,,0,,,89,60
21120,note_on,45,0,3,,,,,,,,,0,,,52,70
21120,note_on,30,0,1,,,,,,,,,0,,,75,0
21120,note_on,0,0,3,,,,,,,,,0,,,64,70
21120,note_on,0,0,3,,,,,,,,,0,,,56,70
21135,note_on,15,0,3,,,,,,,,,0,,,64,0
21135,note_on,0,0,3,,,,,,,,,0,,,52,0
21135,note_on,0,0,3,,,,,,,,,0,,,56,0
21150,note_on,0,0,1,,,,,,,,,0,,,89,0
21150,note_on,0,0,1,,,,,,,,,0,,,88,60
21150,note_on,30,0,1,,,,,,,,,0,,,77,0
21150,note_on,0,0,1,,,,,,,,,0,,,76,60
21180,note_on,0,0,1,,,,,,,,,0,,,88,0
21180,note_on,30,0,1,,,,,,,,,0,,,76,0
21180,note_on,0,0,1,,,,,,,,,0,,,87,60
21180,note_on,45,0,3,,,,,,,,,0,,,67,70
21180,note_on,0,0,1,,,,,,,,,0,,,75,60
21180,note_on,0,0,3,,,,,,,,,0,,,59,70
21195,note_on,15,0,3,,,,,,,,,0,,,59,0
21195,note_on,0,0,3,,,,,,,,,0,,,67,0
21210,note_on,0,0,1,,,,,,,,,0,,,89,60
21210,note_on,0,0,1,,,,,,,,,0,,,77,60
21210,note_on,30,0,1,,,,,,,,,0,,,75,0
21210,note_on,0,0,1,,,,,,,,,0,,,87,0
21240,note_on,0,0,1,,,,,,,,,0,,,89,0
21240,note_on,30,0,1,,,,,,,,,0,,,77,0
21240,note_on,0,0,1,,,,,,,,,0,,,76,60
21240,note_on,0,0,1,,,,,,,,,0,,,88,60
21240,note_on,0,0,3,,,,,,,,,0,,,65,70
21240,note_on,45,0,3,,,,,,,,,0,,,57,70
21255,note_on,0,0,3,,,,,,,,,0,,,57,0
21255,note_on,15,0,3,,,,,,,,,0,,,65,0
21270,note_on,0,0,1,,,,,,,,,0,,,83,60
21270,note_on,30,0,1,,,,,,,,,0,,,88,0
21300,note_on,0,0,1,,,,,,,,,0,,,71,60
21300,note_on,0,0,1,,,,,,,,,0,,,76,0
21300,note_on,0,0,1,,,,,,,,,0,,,80,60
21300,note_on,0,0,3,,,,,,,,,0,,,55,70
21300,note_on,45,0,3,,,,,,,,,0,,,64,70
21300,note_on,30,0,1,,,,,,,,,0,,,83,0
21315,note_on,15,0,3,,,,,,,,,0,,,55,0
21315,note_on,0,0,3,,,,,,,,,0,,,64,0
21330,note_on,0,0,1,,,,,,,,,0,,,76,60
21330,note_on,30,0,1,,,,,,,,,0,,,80,0
21360,note_on,0,0,1,,,,,,,,,0,,,81,60
21360,note_on,0,0,1,,,,,,,,,0,,,71,0
21360,note_on,0,0,3,,,,,,,,,0,,,69,70
21360,note_on,0,0,3,,,,,,,,,0,,,60,70
21360,note_on,45,0,3,,,,,,,,,0,,,57,70
21360,note_on,30,0,1,,,,,,,,,0,,,76,0
21375,note_on,15,0,3,,,,,,,,,0,,,69,0
21375,note_on,0,0,3,,,,,,,,,0,,,57,0
21375,note_on,0,0,3,,,,,,,,,0,,,60,0
21390,note_on,30,0,1,,,,,,,,,0,,,93,60
21420,note_on,30,0,1,,,,,,,,,0,,,93,0
21420,note_on,0,0,1,,,,,,,,,0,,,80,60
21420,note_on,0,0,1,,,,,,,,,0,,,81,0
21420,note_on,45,0,3,,,,,,,,,0,,,72,70
21420,note_on,0,0,1,,,,,,,,,0,,,92,60
21420,note_on,0,0,3,,,,,,,,,0,,,64,70
21435,note_on,0,0,3,,,,,,,,,0,,,72,0
21435,note_on,15,0,3,,,,,,,,,0,,,64,0
21450,note_on,0,0,1,,,,,,,,,0,,,91,60
21450,note_on,30,0,1,,,,,,,,,0,,,80,0
21450,note_on,0,0,1,,,,,,,,,0,,,92,0
21450,note_on,0,0,1,,,,,,,,,0,,,79,60
21480,note_on,0,0,1,,,,,,,,,0,,,91,0
21480,note_on,0,0,1,,,,,,,,,0,,,90,60
21480,note_on,0,0,3,,,,,,,,,0,,,71,70
21480,note_on,45,0,3,,,,,,,,,0,,,62,70
21480,note_on,30,0,1,,,,,,,,,0,,,79,0
21480,note_on,0,0,1,,,,,,,,,0,,,78,60
21495,note_on,0,0,3,,,,,,,,,0,,,62,0
21495,note_on,15,0,3,,,,,,,,,0,,,71,0
21510,note_on,0,0,1,,,,,,,,,0,,,89,60
21510,note_on,0,0,1,,,,,,,,,0,,,90,0
21510,note_on,30,0,1,,,,,,,,,0,,,78,0
21510,note_on,0,0,1,,,,,,,,,0,,,77,60
21540,note_on,0,0,1,,,,,,,,,0,,,76,60
21540,note_on,0,0,1,,,,,,,,,0,,,88,60
21540,note_on,0,0,1,,,,,,,,,0,,,89,0
21540,note_on,30,0,1,,,,,,,,,0,,,77,0
21540,note_on,0,0,3,,,,,,,,,0,,,60,70
21540,note_on,45,0,3,,,,,,,,,0,,,69,70
21555,note_on,15,0,3,,,,,,,,,0,,,60,0
21555,note_on,0,0,3,,,,,,,,,0,,,69,0
21570,note_on,30,0,1,,,,,,,,,0,,,76,0
21570,note_on,0,0,1,,,,,,,,,0,,,87,60
21570,note_on,0,0,1,,,,,,,,,0,,,88,0
21570,note_on,0,0,1,,,,,,,,,0,,,75,60
21600,note_on,45,0,3,,,,,,,,,0,,,57,70
21600,note_on,30,0,1,,,,,,,,,0,,,75,0
21600,note_on,0,0,3,,,,,,,,,0,,,60,70
21600,note_on,0,0,1,,,,,,,,,0,,,89,60
21600,note_on,0,0,1,,,,,,,,,0,,,87,0
21600,note_on,0,0,3,,,,,,,,,0,,,65,70
21600,note_on,0,0,1,,,,,,,,,0,,,77,60
21615,note_on,0,0,3,,,,,,,,,0,,,57,0
21615,note_on,15,0,3,,,,,,,,,0,,,65,0
21615,note_on,0,0,3,,,,,,,,,0,,,60,0
21630,note_on,0,0,1,,,,,,,,,0,,,88,60
21630,note_on,30,0,1,,,,,,,,,0,,,77,0
21630,note_on,0,0,1,,,,,,,,,0,,,89,0
21630,note_on,0,0,1,,,,,,,,,0,,,76,60
21660,note_on,0,0,1,,,,,,,,,0,,,88,0
21660,note_on,0,0,1,,,,,,,,,0,,,87,60
21660,note_on,0,0,1,,,,,,,,,0,,,75,60
21660,note_on,30,0,1,,,,,,,,,0,,,76,0
21690,note_on,0,0,1,,,,,,,,,0,,,77,60
21690,note_on,0,0,1,,,,,,,,,0,,,87,0
21690,note_on,0,0,1,,,,,,,,,0,,,89,60
21690,note_on,30,0,1,,,,,,,,,0,,,75,0
21720,note_on,30,0,1,,,,,,,,,0,,,77,0
21720,note_on,0,0,3,,,,,,,,,0,,,56,70
21720,note_on,0,0,3,,,,,,,,,0,,,64,70
21720,note_on,105,0,3,,,,,,,,,0,,,52,70
21720,note_on,0,0,1,,,,,,,,,0,,,76,60
21720,note_on,0,0,1,,,,,,,,,0,,,88,60
21720,note_on,0,0,1,,,,,,,,,0,,,89,0
21735,note_on,0,0,1,,,,,,,,,0,,,88,0
21735,note_on,15,0,1,,,,,,,,,0,,,76,0
21735,note_on,0,0,3,,,,,,,,,0,,,56,0
21735,note_on,0,0,3,,,,,,,,,0,,,52,0
21735,note_on,15,0,3,,,,,,,,,0,,,64,0
21780,note_on,45,0,1,,,,,,,,,0,,,76,60
21795,note_on,15,0,1,,,,,,,,,0,,,76,0
21840,note_on,0,0,3,,,,,,,,,0,,,69,70
21840,note_on,45,0,1,,,,,,,,,0,,,81,60
21840,note_on,105,0,3,,,,,,,,,0,,,57,70
21840,note_on,0,0,3,,,,,,,,,0,,,61,70
21855,note_on,0,0,3,,,,,,,,,0,,,57,0
21855,note_on,0,0,3,,,,,,,,,0,,,61,0
21855,note_on,15,0,3,,,,,,,,,0,,,69,0
21870,note_on,30,0,1,,,,,,,,,0,,,93,60
21900,note_on,45,0,3,,,,,,,,,0,,,70,70
21900,note_on,0,0,1,,,,,,,,,0,,,80,60
21900,note_on,30,0,1,,,,,,,,,0,,,93,0
21900,note_on,0,0,1,,,,,,,,,0,,,92,60
21900,note_on,0,0,3,,,,,,,,,0,,,62,70
21900,note_on,0,0,1,,,,,,,,,0,,,81,0
21915,note_on,0,0,3,,,,,,,,,0,,,70,0
21915,note_on,15,0,3,,,,,,,,,0,,,62,0
21930,note_on,0,0,1,,,,,,,,,0,,,91,60
21930,note_on,30,0,1,,,,,,,,,0,,,80,0
21930,note_on,0,0,1,,,,,,,,,0,,,79,60
21930,note_on,0,0,1,,,,,,,,,0,,,92,0
21960,note_on,0,0,3,,,,,,,,,0,,,69,70
21960,note_on,0,0,1,,,,,,,,,0,,,90,60
21960,note_on,0,0,1,,,,,,,,,0,,,91,0
21960,note_on,30,0,1,,,,,,,,,0,,,79,0
21960,note_on,45,0,3,,,,,,,,,0,,,61,70
21960,note_on,0,0,1,,,,,,,,,0,,,78,60
21975,note_on,15,0,3,,,,,,,,,0,,,69,0
21975,note_on,0,0,3,,,,,,,,,0,,,61,0
21990,note_on,30,0,1,,,,,,,,,0,,,78,0
21990,note_on,0,0,1,,,,,,,,,0,,,77,60
21990,note_on,0,0,1,,,,,,,,,0,,,89,60
21990,note_on,0,0,1,,,,,,,,,0,,,90,0
22020,note_on,45,0,3,,,,,,,,,0,,,67,70
22020,note_on,30,0,1,,,,,,,,,0,,,77,0
22020,note_on,0,0,3,,,,,,,,,0,,,59,70
22020,note_on,0,0,1,,,,,,,,,0,,,76,60
22020,note_on,0,0,1,,,,,,,,,0,,,88,60
22020,note_on,0,0,1,,,,,,,,,0,,,89,0
22035,note_on,0,0,3,,,,,,,,,0,,,67,0
22035,note_on,15,0,3,,,,,,,,,0,,,59,0
22050,note_on,0,0,1,,,,,,,,,0,,,74,60
22050,note_on,0,0,1,,,,,,,,,0,,,88,0
22050,note_on,0,0,1,,,,,,,,,0,,,86,60
22050,note_on,30,0,1,,,,,,,,,0,,,76,0
22080,note_on,0,0,4,,,,,,,,,0,,,57,70
22080,note_on,0,0,1,,,,,,,,,0,,,86,0
22080,note_on,0,0,1,,,,,,,,,0,,,85,60
22080,note_on,0,0,1,,,,,,,,,0,,,73,60
22080,note_on,2265,0,4,,,,,,,,,0,,,65,70
22080,note_on,30,0,1,,,,,,,,,0,,,74,0
22095,note_on,15,0,4,,,,,,,,,0,,,57,0
22095,note_on,0,0,4,,,,,,,,,0,,,65,0
22110,note_on,0,0,1,,,,,,,,,0,,,88,60
22110,note_on,30,0,1,,,,,,,,,0,,,85,0
22140,note_on,30,0,1,,,,,,,,,0,,,88,0
22140,note_on,0,0,1,,,,,,,,,0,,,73,0
22140,note_on,0,0,4,,,,,,,,,0,,,64,70
22140,note_on,0,0,1,,,,,,,,,0,,,73,60
22140,note_on,0,0,1,,,,,,,,,0,,,81,60
22140,note_on,45,0,4,,,,,,,,,0,,,55,70
22155,note_on,15,0,4,,,,,,,,,0,,,64,0
22155,note_on,0,0,4,,,,,,,,,0,,,55,0
22170,note_on,30,0,1,,,,,,,,,0,,,81,0
22170,note_on,0,0,1,,,,,,,,,0,,,85,60
22200,note_on,0,0,1,,,,,,,,,0,,,73,0
22200,note_on,30,0,1,,,,,,,,,0,,,85,0
22200,note_on,45,0,4,,,,,,,,,0,,,62,70
22200,note_on,0,0,4,,,,,,,,,0,,,53,70
22200,note_on,0,0,1,,,,,,,,,0,,,86,60
22200,note_on,0,0,1,,,,,,,,,0,,,74,60
22215,note_on,15,0,4,,,,,,,,,0,,,53,0
22215,note_on,0,0,4,,,,,,,,,0,,,62,0
22230,note_on,30,0,1,,,,,,,,,0,,,86,0
22230,note_on,0,0,1,,,,,,,,,0,,,81,60
22260,note_on,0,0,4,,,,,,,,,0,,,50,70
22260,note_on,0,0,1,,,,,,,,,0,,,77,60
22260,note_on,0,0,1,,,,,,,,,0,,,74,0
22260,note_on,45,0,4,,,,,,,,,0,,,65,70
22260,note_on,0,0,1,,,,,,,,,0,,,69,60
22260,note_on,30,0,1,,,,,,,,,0,,,81,0
22275,note_on,0,0,4,,,,,,,,,0,,,65,0
22275,note_on,15,0,4,,,,,,,,,0,,,50,0
22290,note_on,0,0,1,,,,,,,,,0,,,74,60
22290,note_on,30,0,1,,,,,,,,,0,,,77,0
22320,note_on,0,0,1,,,,,,,,,0,,,79,60
22320,note_on,0,0,1,,,,,,,,,0,,,69,0
22320,note_on,285,0,3,,,,,,,,,0,,,55,70
22320,note_on,0,0,3,,,,,,,,,0,,,59,70
22320,note_on,30,0,1,,,,,,,,,0,,,74,0
22320,note_on,0,0,3,,,,,,,,,0,,,67,70
22335,note_on,0,0,3,,,,,,,,,0,,,55,0
22335,note_on,0,0,3,,,,,,,,,0,,,59,0
22335,note_on,15,0,3,,,,,,,,,0,,,67,0
22350,note_on,30,0,1,,,,,,,,,0,,,91,60
22380,note_on,45,0,3,,,,,,,,,0,,,68,70
22380,note_on,0,0,1,,,,,,,,,0,,,90,60
22380,note_on,0,0,1,,,,,,,,,0,,,79,0
22380,note_on,0,0,1,,,,,,,,,0,,,78,60
22380,note_on,30,0,1,,,,,,,,,0,,,91,0
22380,note_on,0,0,3,,,,,,,,,0,,,60,70
22395,note_on,0,0,3,,,,,,,,,0,,,68,0
22395,note_on,15,0,3,,,,,,,,,0,,,60,0
22410,note_on,0,0,1,,,,,,,,,0,,,89,60
22410,note_on,0,0,1,,,,,,,,,0,,,77,60
22410,note_on,0,0,1,,,,,,,,,0,,,90,0
22410,note_on,30,0,1,,,,,,,,,0,,,78,0
22440,note_on,0,0,1,,,,,,,,,0,,,76,60
22440,note_on,0,0,1,,,,,,,,,0,,,88,60
22440,note_on,0,0,1,,,,,,,,,0,,,89,0
22440,note_on,30,0,1,,,,,,,,,0,,,77,0
22440,note_on,0,0,3,,,,,,,,,0,,,67,70
22440,note_on,45,0,3,,,,,,,,,0,,,59,70
22455,note_on,0,0,3,,,,,,,,,0,,,59,0
22455,note_on,15,0,3,,,,,,,,,0,,,67,0
22470,note_on,0,0,1,,,,,,,,,0,,,88,0
22470,note_on,0,0,1,,,,,,,,,0,,,87,60
22470,note_on,0,0,1,,,,,,,,,0,,,75,60
22470,note_on,30,0,1,,,,,,,,,0,,,76,0
22500,note_on,0,0,1,,,,,,,,,0,,,87,0
22500,note_on,0,0,1,,,,,,,,,0,,,86,60
22500,note_on,30,0,1,,,,,,,,,0,,,75,0
22500,note_on,0,0,1,,,,,,,,,0,,,74,60
22500,note_on,0,0,3,,,,,,,,,0,,,56,70
22500,note_on,45,0,3,,,,,,,,,0,,,65,70
22515,note_on,15,0,3,,,,,,,,,0,,,56,0
22515,note_on,0,0,3,,,,,,,,,0,,,65,0
22530,note_on,0,0,1,,,,,,,,,0,,,72,60
22530,note_on,0,0,1,,,,,,,,,0,,,86,0
22530,note_on,0,0,1,,,,,,,,,0,,,84,60
22530,note_on,30,0,1,,,,,,,,,0,,,74,0
22560,note_on,0,0,4,,,,,,,,,0,,,55,70
22560,note_on,0,0,1,,,,,,,,,0,,,84,0
22560,note_on,0,0,1,,,,,,,,,0,,,83,60
22560,note_on,0,0,1,,,,,,,,,0,,,71,60
22560,note_on,30,0,1,,,,,,,,,0,,,72,0
22560,note_on,285,0,4,,,,,,,,,0,,,64,70
22575,note_on,0,0,4,,,,,,,,,0,,,64,0
22575,note_on,15,0,4,,,,,,,,,0,,,55,0
22590,note_on,0,0,1,,,,,,,,,0,,,86,60
22590,note_on,30,0,1,,,,,,,,,0,,,83,0
22620,note_on,45,0,4,,,,,,,,,0,,,53,70
22620,note_on,0,0,1,,,,,,,,,0,,,79,60
22620,note_on,0,0,1,,,,,,,,,0,,,71,60
22620,note_on,0,0,4,,,,,,,,,0,,,62,70
22620,note_on,30,0,1,,,,,,,,,0,,,86,0
22620,note_on,0,0,1,,,,,,,,,0,,,71,0
22635,note_on,15,0,4,,,,,,,,,0,,,62,0
22635,note_on,0,0,4,,,,,,,,,0,,,53,0
22650,note_on,0,0,1,,,,,,,,,0,,,83,60
22650,note_on,30,0,1,,,,,,,,,0,,,79,0
22680,note_on,0,0,1,,,,,,,,,0,,,71,0
22680,note_on,0,0,1,,,,,,,,,0,,,72,60
22680,note_on,0,0,1,,,,,,,,,0,,,84,60
22680,note_on,45,0,4,,,,,,,,,0,,,60,70
22680,note_on,30,0,1,,,,,,,,,0,,,83,0
22680,note_on,0,0,4,,,,,,,,,0,,,52,70
22695,note_on,0,0,4,,,,,,,,,0,,,60,0
22695,note_on,15,0,4,,,,,,,,,0,,,52,0
22710,note_on,0,0,1,,,,,,,,,0,,,79,60
22710,note_on,30,0,1,,,,,,,,,0,,,84,0
22740,note_on,0,0,4,,,,,,,,,0,,,48,70
22740,note_on,45,0,4,,,,,,,,,0,,,64,70
22740,note_on,30,0,1,,,,,,,,,0,,,79,0
22740,note_on,0,0,1,,,,,,,,,0,,,76,60
22740,note_on,0,0,1,,,,,,,,,0,,,72,0
22740,note_on,0,0,1,,,,,,,,,0,,,67,60
22755,note_on,15,0,4,,,,,,,,,0,,,48,0
22755,note_on,0,0,4,,,,,,,,,0,,,64,0
22770,note_on,0,0,1,,,,,,,,,0,,,72,60
22770,note_on,30,0,1,,,,,,,,,0,,,76,0
22800,note_on,0,0,4,,,,,,,,,0,,,59,70
22800,note_on,0,0,4,,,,,,,,,0,,,56,70
22800,note_on,0,0,4,,,,,,,,,0,,,50,70
22800,note_on,0,0,1,,,,,,,,,0,,,67,0
22800,note_on,30,0,1,,,,,,,,,0,,,72,0
22800,note_on,0,0,1,,,,,,,,,0,,,77,60
22800,note_on,45,0,4,,,,,,,,,0,,,65,70
22815,note_on,15,0,1,,,,,,,,,0,,,89,60
22815,note_on,0,0,4,,,,,,,,,0,,,56,0
22815,note_on,0,0,4,,,,,,,,,0,,,59,0
22815,note_on,15,0,4,,,,,,,,,0,,,50,0
22815,note_on,0,0,4,,,,,,,,,0,,,65,0
22830,note_on,15,0,1,,,,,,,,,0,,,89,0
22830,note_on,0,0,1,,,,,,,,,0,,,77,0
22860,note_on,0,0,1,,,,,,,,,0,,,76,60
22860,note_on,30,0,1,,,,,,,,,0,,,88,60
22890,note_on,0,0,1,,,,,,,,,0,,,87,60
22890,note_on,0,0,1,,,,,,,,,0,,,88,0
22890,note_on,0,0,1,,,,,,,,,0,,,75,60
22890,note_on,30,0,1,,,,,,,,,0,,,76,0
22920,note_on,0,0,1,,,,,,,,,0,,,87,0
22920,note_on,30,0,1,,,,,,,,,0,,,75,0
22920,note_on,405,0,3,,,,,,,,,0,,,74,70
22935,note_on,15,0,3,,,,,,,,,0,,,74,0
22950,note_on,30,0,1,,,,,,,,,0,,,85,60
22950,note_on,0,0,1,,,,,,,,,0,,,73,60
22980,note_on,30,0,1,,,,,,,,,0,,,73,0
22980,note_on,0,0,1,,,,,,,,,0,,,72,60
22980,note_on,0,0,1,,,,,,,,,0,,,84,60
22980,note_on,0,0,1,,,,,,,,,0,,,85,0
23010,note_on,0,0,1,,,,,,,,,0,,,84,0
23010,note_on,0,0,1,,,,,,,,,0,,,71,60
23010,note_on,30,0,1,,,,,,,,,0,,,72,0
23010,note_on,0,0,1,,,,,,,,,0,,,83,60
23040,note_on,0,0,1,,,,,,,,,0,,,76,60
23040,note_on,0,0,1,,,,,,,,,0,,,83,0
23040,note_on,0,0,4,,,,,,,,,0,,,48,70
23040,note_on,225,0,4,,,,,,,,,0,,,64,70
23040,note_on,0,0,4,,,,,,,,,0,,,55,70
23040,note_on,30,0,1,,,,,,,,,0,,,71,0
23055,note_on,15,0,1,,,,,,,,,0,,,88,60
23055,note_on,0,0,4,,,,,,,,,0,,,64,0
23055,note_on,0,0,4,,,,,,,,,0,,,55,0
23055,note_on,15,0,4,,,,,,,,,0,,,48,0
23070,note_on,0,0,1,,,,,,,,,0,,,76,0
23070,note_on,15,0,1,,,,,,,,,0,,,88,0
23100,note_on,30,0,1,,,,,,,,,0,,,87,60
23100,note_on,0,0,1,,,,,,,,,0,,,75,60
23130,note_on,30,0,1,,,,,,,,,0,,,75,0
23130,note_on,0,0,1,,,,,,,,,0,,,87,0
23130,note_on,0,0,1,,,,,,,,,0,,,86,60
23130,note_on,0,0,1,,,,,,,,,0,,,74,60
23160,note_on,0,0,1,,,,,,,,,0,,,86,0
23160,note_on,30,0,1,,,,,,,,,0,,,74,0
23160,note_on,225,0,3,,,,,,,,,0,,,72,70
23175,note_on,15,0,3,,,,,,,,,0,,,72,0
23190,note_on,0,0,1,,,,,,,,,0,,,71,60
23190,note_on,30,0,1,,,,,,,,,0,,,83,60
23220,note_on,30,0,1,,,,,,,,,0,,,71,0
23220,note_on,0,0,1,,,,,,,,,0,,,70,60
23220,note_on,0,0,1,,,,,,,,,0,,,82,60
23220,note_on,0,0,1,,,,,,,,,0,,,83,0
23250,note_on,30,0,1,,,,,,,,,0,,,70,0
23250,note_on,0,0,1,,,,,,,,,0,,,82,0
23250,note_on,0,0,1,,,,,,,,,0,,,81,60
23250,note_on,0,0,1,,,,,,,,,0,,,69,60
23280,note_on,30,0,1,,,,,,,,,0,,,69,0
23280,note_on,0,0,4,,,,,,,,,0,,,57,70
23280,note_on,225,0,4,,,,,,,,,0,,,65,70
23280,note_on,0,0,1,,,,,,,,,0,,,81,0
23295,note_on,0,0,4,,,,,,,,,0,,,65,0
23295,note_on,15,0,4,,,,,,,,,0,,,57,0
23310,note_on,30,0,1,,,,,,,,,0,,,76,60
23310,note_on,0,0,1,,,,,,,,,0,,,64,60
23340,note_on,30,0,1,,,,,,,,,0,,,64,0
23340,note_on,0,0,1,,,,,,,,,0,,,63,60
23340,note_on,0,0,1,,,,,,,,,0,,,76,0
23340,note_on,0,0,1,,,,,,,,,0,,,75,60
23370,note_on,0,0,1,,,,,,,,,0,,,74,60
23370,note_on,0,0,1,,,,,,,,,0,,,62,60
23370,note_on,30,0,1,,,,,,,,,0,,,63,0
23370,note_on,0,0,1,,,,,,,,,0,,,75,0
23400,note_on,105,0,4,,,,,,,,,0,,,64,70
23400,note_on,0,0,4,,,,,,,,,0,,,56,70
23400,note_on,30,0,1,,,,,,,,,0,,,62,0
23400,note_on,0,0,1,,,,,,,,,0,,,74,0
23415,note_on,15,0,4,,,,,,,,,0,,,56,0
23415,note_on,0,0,4,,,,,,,,,0,,,64,0
23430,note_on,30,0,1,,,,,,,,,0,,,72,60
23430,note_on,0,0,1,,,,,,,,,0,,,60,60
23460,note_on,0,0,1,,,,,,,,,0,,,71,60
23460,note_on,30,0,1,,,,,,,,,0,,,60,0
23460,note_on,0,0,1,,,,,,,,,0,,,59,60
23460,note_on,0,0,1,,,,,,,,,0,,,72,0
23490,note_on,30,0,1,,,,,,,,,0,,,59,0
23490,note_on,0,0,1,,,,,,,,,0,,,71,0
23490,note_on,0,0,1,,,,,,,,,0,,,70,60
23490,note_on,0,0,1,,,,,,,,,0,,,58,60
23520,note_on,30,0,1,,,,,,,,,0,,,58,0
23520,note_on,105,0,4,,,,,,,,,0,,,57,60
23520,note_on,0,0,1,,,,,,,,,0,,,70,0
23550,note_on,0,0,4,,,,,,,,,0,,,53,65
23550,note_on,30,0,4,,,,,,,,,0,,,57,0
23550,note_on,30,0,1,,,,,,,,,0,,,65,65
23580,note_on,0,0,1,,,,,,,,,0,,,64,71
23580,note_on,30,0,1,,,,,,,,,0,,,65,0
23580,note_on,0,0,4,,,,,,,,,0,,,52,71
23580,note_on,30,0,4,,,,,,,,,0,,,53,0
23610,note_on,30,0,1,,,,,,,,,0,,,64,0
23610,note_on,0,0,4,,,,,,,,,0,,,51,77
23610,note_on,0,0,1,,,,,,,,,0,,,63,77
23610,note_on,30,0,4,,,,,,,,,0,,,52,0
23640,note_on,30,0,4,,,,,,,,,0,,,51,0
23640,note_on,30,0,1,,,,,,,,,0,,,63,0
23640,note_on,0,0,4,,,,,,,,,0,,,50,83
23640,note_on,0,0,1,,,,,,,,,0,,,62,83
23670,note_on,30,0,4,,,,,,,,,0,,,50,0
23670,note_on,0,0,4,,,,,,,,,0,,,48,89
23670,note_on,0,0,1,,,,,,,,,0,,,60,89
23670,note_on,30,0,1,,,,,,,,,0,,,62,0
23700,note_on,30,0,1,,,,,,,,,0,,,60,0
23700,note_on,0,0,4,,,,,,,,,0,,,47,95
23700,note_on,30,0,4,,,,,,,,,0,,,48,0
23700,note_on,0,0,1,,,,,,,,,0,,,59,95
23730,note_on,30,0,1,,,,,,,,,0,,,59,0
23730,note_on,30,0,4,,,,,,,,,0,,,47,0
23730,note_on,0,0,4,,,,,,,,,0,,,46,100
23730,note_on,0,0,1,,,,,,,,,0,,,58,100
23760,marker,3840,1,0,,,,,,,,,,,,,
23760,note_on,30,0,1,,,,,,,,,0,,,58,0
23760,note_on,0,0,4,,,,,,,,,0,,,45,120
23760,note_on,30,0,4,,,,,,,,,0,,,46,0
23760,note_on,0,0,1,,,,,,,,,0,,,57,120
23775,note_on,15,0,4,,,,,,,,,0,,,45,0
23775,note_on,15,0,1,,,,,,,,,0,,,57,0
23820,note_on,45,0,1,,,,,,,,,0,,,89,100
23820,note_on,0,0,1,,,,,,,,,0,,,81,100
23850,note_on,0,0,1,,,,,,,,,0,,,77,100
23850,note_on,0,0,1,,,,,,,,,0,,,84,100
23850,note_on,0,0,1,,,,,,,,,0,,,89,0
23850,note_on,30,0,1,,,,,,,,,0,,,81,0
23880,note_on,30,0,1,,,,,,,,,0,,,84,0
23880,note_on,0,0,1,,,,,,,,,0,,,77,0
23880,note_on,0,0,3,,,,,,,,,0,,,69,100
23880,note_on,705,0,3,,,,,,,,,0,,,76,100
23910,note_on,30,0,3,,,,,,,,,0,,,69,0
23910,note_on,0,0,3,,,,,,,,,0,,,76,0
23910,note_on,0,0,3,,,,,,,,,0,,,72,100
23910,note_on,0,0,3,,,,,,,,,0,,,64,100
23940,note_on,0,0,4,,,,,,,,,0,,,48,100
23940,note_on,30,0,3,,,,,,,,,0,,,72,0
23940,note_on,0,0,3,,,,,,,,,0,,,64,0
23940,note_on,165,0,4,,,,,,,,,0,,,60,100
23960,note_on,0,0,4,,,,,,,,,0,,,60,0
23960,note_on,0,0,4,,,,,,,,,0,,,59,100
23960,note_on,0,0,4,,,,,,,,,0,,,47,100
23960,note_on,20,0,4,,,,,,,,,0,,,48,0
23980,note_on,0,0,4,,,,,,,,,0,,,57,100
23980,note_on,0,0,4,,,,,,,,,0,,,59,0
23980,note_on,20,0,4,,,,,,,,,0,,,47,0
23980,note_on,0,0,4,,,,,,,,,0,,,45,100
24000,note_on,20,0,4,,,,,,,,,0,,,45,0
24000,note_on,0,0,4,,,,,,,,,0,,,56,120
24000,note_on,0,0,4,,,,,,,,,0,,,57,0
24000,note_on,0,0,4,,,,,,,,,0,,,44,120
24015,note_on,0,0,4,,,,,,,,,0,,,56,0
24015,note_on,15,0,4,,,,,,,,,0,,,44,0
24060,note_on,180,0,1,,,,,,,,,0,,,87,100
24060,note_on,0,0,1,,,,,,,,,0,,,80,100
24090,note_on,0,0,1,,,,,,,,,0,,,75,100
24090,note_on,0,0,1,,,,,,,,,0,,,83,100
24090,note_on,30,0,1,,,,,,,,,0,,,80,0
24090,note_on,0,0,1,,,,,,,,,0,,,87,0
24120,note_on,0,0,3,,,,,,,,,0,,,68,100
24120,note_on,0,0,1,,,,,,,,,0,,,75,0
24120,note_on,180,0,3,,,,,,,,,0,,,76,100
24120,note_on,30,0,1,,,,,,,,,0,,,83,0
24150,note_on,0,0,3,,,,,,,,,0,,,71,100
24150,note_on,0,0,3,,,,,,,,,0,,,76,0
24150,note_on,30,0,3,,,,,,,,,0,,,68,0
24150,note_on,0,0,3,,,,,,,,,0,,,64,100
24180,note_on,30,0,3,,,,,,,,,0,,,71,0
24180,note_on,165,0,4,,,,,,,,,0,,,40,100
24180,note_on,0,0,3,,,,,,,,,0,,,64,0
24180,note_on,0,0,4,,,,,,,,,0,,,52,100
24200,note_on,0,0,4,,,,,,,,,0,,,42,100
24200,note_on,0,0,4,,,,,,,,,0,,,40,0
24200,note_on,0,0,4,,,,,,,,,0,,,54,100
24200,note_on,20,0,4,,,,,,,,,0,,,52,0
24220,note_on,0,0,4,,,,,,,,,0,,,43,100
24220,note_on,0,0,4,,,,,,,,,0,,,55,100
24220,note_on,0,0,4,,,,,,,,,0,,,42,0
24220,note_on,20,0,4,,,,,,,,,0,,,54,0
24240,note_on,20,0,4,,,,,,,,,0,,,55,0
24240,note_on,0,0,4,,,,,,,,,0,,,43,0
24240,note_on,0,0,4,,,,,,,,,0,,,45,120
24240,note_on,0,0,4,,,,,,,,,0,,,57,120
24255,note_on,0,0,4,,,,,,,,,0,,,57,0
24255,note_on,15,0,4,,,,,,,,,0,,,45,0
24300,note_on,0,0,1,,,,,,,,,0,,,81,100
24300,note_on,180,0,1,,,,,,,,,0,,,89,100
24330,note_on,30,0,1,,,,,,,,,0,,,81,0
24330,note_on,0,0,1,,,,,,,,,0,,,77,100
24330,note_on,0,0,1,,,,,,,,,0,,,84,100
24330,note_on,0,0,1,,,,,,,,,0,,,89,0
24360,note_on,30,0,1,,,,,,,,,0,,,84,0
24360,note_on,180,0,3,,,,,,,,,0,,,76,100
24360,note_on,0,0,1,,,,,,,,,0,,,77,0
24360,note_on,0,0,3,,,,,,,,,0,,,69,100
24390,note_on,0,0,3,,,,,,,,,0,,,76,0
24390,note_on,0,0,3,,,,,,,,,0,,,64,100
24390,note_on,0,0,3,,,,,,,,,0,,,72,100
24390,note_on,30,0,3,,,,,,,,,0,,,69,0
24420,note_on,30,0,3,,,,,,,,,0,,,72,0
24420,note_on,0,0,4,,,,,,,,,0,,,48,100
24420,note_on,0,0,3,,,,,,,,,0,,,64,0
24420,note_on,165,0,4,,,,,,,,,0,,,60,100
24440,note_on,0,0,4,,,,,,,,,0,,,59,100
24440,note_on,0,0,4,,,,,,,,,0,,,60,0
24440,note_on,0,0,4,,,,,,,,,0,,,47,100
24440,note_on,20,0,4,,,,,,,,,0,,,48,0
24460,note_on,20,0,4,,,,,,,,,0,,,47,0
24460,note_on,0,0,4,,,,,,,,,0,,,45,100
24460,note_on,0,0,4,,,,,,,,,0,,,59,0
24460,note_on,0,0,4,,,,,,,,,0,,,57,100
24480,note_on,0,0,4,,,,,,,,,0,,,57,0
24480,note_on,0,0,4,,,,,,,,,0,,,56,120
24480,note_on,0,0,4,,,,,,,,,0,,,44,120
24480,note_on,20,0,4,,,,,,,,,0,,,45,0
24495,note_on,15,0,4,,,,,,,,,0,,,44,0
24495,note_on,0,0,4,,,,,,,,,0,,,56,0
24540,note_on,0,0,1,,,,,,,,,0,,,80,100
24540,note_on,180,0,1,,,,,,,,,0,,,87,100
24570,note_on,30,0,1,,,,,,,,,0,,,80,0
24570,note_on,0,0,1,,,,,,,,,0,,,87,0
24570,note_on,0,0,1,,,,,,,,,0,,,83,100
24570,note_on,0,0,1,,,,,,,,,0,,,75,100
24600,note_on,30,0,1,,,,,,,,,0,,,83,0
24600,note_on,0,0,1,,,,,,,,,0,,,75,0
24600,note_on,0,0,3,,,,,,,,,0,,,68,100
24600,note_on,180,0,3,,,,,,,,,0,,,76,100
24630,note_on,30,0,3,,,,,,,,,0,,,68,0
24630,note_on,0,0,3,,,,,,,,,0,,,64,100
24630,note_on,0,0,3,,,,,,,,,0,,,71,100
24630,note_on,0,0,3,,,,,,,,,0,,,76,0
24660,note_on,0,0,3,,,,,,,,,0,,,64,0
24660,note_on,30,0,3,,,,,,,,,0,,,71,0
24690,note_on,0,0,4,,,,,,,,,0,,,52,100
24690,note_on,195,0,4,,,,,,,,,0,,,40,100
24700,note_on,0,0,4,,,,,,,,,0,,,54,100
24700,note_on,0,0,4,,,,,,,,,0,,,42,100
24700,note_on,0,0,4,,,,,,,,,0,,,40,0
24700,note_on,10,0,4,,,,,,,,,0,,,52,0
24710,note_on,0,0,4,,,,,,,,,0,,,56,100
24710,note_on,0,0,4,,,,,,,,,0,,,42,0
24710,note_on,10,0,4,,,,,,,,,0,,,54,0
24710,note_on,0,0,4,,,,,,,,,0,,,44,100
24720,note_on,0,0,4,,,,,,,,,0,,,33,120
24720,note_on,0,0,4,,,,,,,,,0,,,57,120
24720,note_on,0,0,4,,,,,,,,,0,,,45,120
24720,note_on,0,0,4,,,,,,,,,0,,,44,0
24720,note_on,10,0,4,,,,,,,,,0,,,56,0
24735,note_on,0,0,4,,,,,,,,,0,,,33,0
24735,note_on,0,0,4,,,,,,,,,0,,,57,0
24735,note_on,15,0,4,,,,,,,,,0,,,45,0
24780,note_on,0,0,1,,,,,,,,,0,,,81,100
24780,note_on,180,0,1,,,,,,,,,0,,,89,100
24810,note_on,0,0,1,,,,,,,,,0,,,84,100
24810,note_on,0,0,1,,,,,,,,,0,,,89,0
24810,note_on,30,0,1,,,,,,,,,0,,,81,0
24810,note_on,0,0,1,,,,,,,,,0,,,77,100
24840,note_on,30,0,1,,,,,,,,,0,,,84,0
24840,note_on,0,0,1,,,,,,,,,0,,,77,0
24840,note_on,0,0,3,,,,,,,,,0,,,69,100
24840,note_on,180,0,3,,,,,,,,,0,,,76,100
24870,note_on,0,0,3,,,,,,,,,0,,,76,0
24870,note_on,0,0,3,,,,,,,,,0,,,64,100
24870,note_on,30,0,3,,,,,,,,,0,,,69,0
24870,note_on,0,0,3,,,,,,,,,0,,,72,100
24900,note_on,0,0,4,,,,,,,,,0,,,48,100
24900,note_on,165,0,4,,,,,,,,,0,,,60,100
24900,note_on,0,0,3,,,,,,,,,0,,,64,0
24900,note_on,30,0,3,,,,,,,,,0,,,72,0
24920,note_on,0,0,4,,,,,,,,,0,,,60,0
24920,note_on,0,0,4,,,,,,,,,0,,,47,100
24920,note_on,20,0,4,,,,,,,,,0,,,48,0
24920,note_on,0,0,4,,,,,,,,,0,,,59,100
24940,note_on,0,0,4,,,,,,,,,0,,,57,100
24940,note_on,0,0,4,,,,,,,,,0,,,45,100
24940,note_on,20,0,4,,,,,,,,,0,,,47,0
24940,note_on,0,0,4,,,,,,,,,0,,,59,0
24960,note_on,0,0,4,,,,,,,,,0,,,57,0
24960,note_on,0,0,4,,,,,,,,,0,,,56,120
24960,note_on,0,0,4,,,,,,,,,0,,,44,120
24960,note_on,0,0,4,,,,,,,,,0,,,32,120
24960,note_on,20,0,4,,,,,,,,,0,,,45,0
24975,note_on,0,0,4,,,,,,,,,0,,,56,0
24975,note_on,0,0,4,,,,,,,,,0,,,32,0
24975,note_on,15,0,4,,,,,,,,,0,,,44,0
25020,note_on,180,0,1,,,,,,,,,0,,,87,100
25020,note_on,0,0,1,,,,,,,,,0,,,80,100
25050,note_on,0,0,1,,,,,,,,,0,,,87,0
25050,note_on,0,0,1,,,,,,,,,0,,,75,100
25050,note_on,0,0,1,,,,,,,,,0,,,83,100
25050,note_on,30,0,1,,,,,,,,,0,,,80,0
25080,note_on,30,0,1,,,,,,,,,0,,,83,0
25080,note_on,0,0,3,,,,,,,,,0,,,68,100
25080,note_on,180,0,3,,,,,,,,,0,,,76,100
25080,note_on,0,0,1,,,,,,,,,0,,,75,0
25110,note_on,30,0,3,,,,,,,,,0,,,68,0
25110,note_on,0,0,3,,,,,,,,,0,,,71,100
25110,note_on,0,0,3,,,,,,,,,0,,,76,0
25110,note_on,0,0,3,,,,,,,,,0,,,64,100
25140,note_on,30,0,3,,,,,,,,,0,,,71,0
25140,note_on,165,0,4,,,,,,,,,0,,,40,100
25140,note_on,0,0,4,,,,,,,,,0,,,52,100
25140,note_on,0,0,3,,,,,,,,,0,,,64,0
25160,note_on,0,0,4,,,,,,,,,0,,,54,100
25160,note_on,20,0,4,,,,,,,,,0,,,52,0
25160,note_on,0,0,4,,,,,,,,,0,,,40,0
25160,note_on,0,0,4,,,,,,,,,0,,,42,100
25180,note_on,0,0,4,,,,,,,,,0,,,55,100
25180,note_on,20,0,4,,,,,,,,,0,,,54,0
25180,note_on,0,0,4,,,,,,,,,0,,,42,0
25180,note_on,0,0,4,,,,,,,,,0,,,43,100
25200,note_on,0,0,4,,,,,,,,,0,,,45,120
25200,note_on,0,0,4,,,,,,,,,0,,,57,120
25200,note_on,0,0,4,,,,,,,,,0,,,43,0
25200,note_on,20,0,4,,,,,,,,,0,,,55,0
25200,note_on,0,0,4,,,,,,,,,0,,,33,120
25215,note_on,15,0,4,,,,,,,,,0,,,45,0
25215,note_on,0,0,4,,,,,,,,,0,,,33,0
25215,note_on,0,0,4,,,,,,,,,0,,,57,0
25260,note_on,180,0,1,,,,,,,,,0,,,89,100
25260,note_on,0,0,1,,,,,,,,,0,,,81,100
25290,note_on,30,0,1,,,,,,,,,0,,,81,0
25290,note_on,0,0,1,,,,,,,,,0,,,89,0
25290,note_on,0,0,1,,,,,,,,,0,,,84,100
25290,note_on,0,0,1,,,,,,,,,0,,,77,100
25320,note_on,0,0,3,,,,,,,,,0,,,69,100
25320,note_on,0,0,1,,,,,,,,,0,,,77,0
25320,note_on,180,0,3,,,,,,,,,0,,,76,100
25320,note_on,30,0,1,,,,,,,,,0,,,84,0
25350,note_on,0,0,3,,,,,,,,,0,,,64,100
25350,note_on,0,0,3,,,,,,,,,0,,,72,100
25350,note_on,0,0,3,,,,,,,,,0,,,76,0
25350,note_on,30,0,3,,,,,,,,,0,,,69,0
25380,note_on,165,0,4,,,,,,,,,0,,,60,100
25380,note_on,0,0,4,,,,,,,,,0,,,48,100
25380,note_on,0,0,3,,,,,,,,,0,,,64,0
25380,note_on,30,0,3,,,,,,,,,0,,,72,0
25400,note_on,0,0,4,,,,,,,,,0,,,47,100
25400,note_on,0,0,4,,,,,,,,,0,,,59,100
25400,note_on,0,0,4,,,,,,,,,0,,,60,0
25400,note_on,20,0,4,,,,,,,,,0,,,48,0
25420,note_on,0,0,4,,,,,,,,,0,,,45,100
25420,note_on,0,0,4,,,,,,,,,0,,,57,100
25420,note_on,0,0,4,,,,,,,,,0,,,59,0
25420,note_on,20,0,4,,,,,,,,,0,,,47,0
25440,note_on,0,0,4,,,,,,,,,0,,,56,120
25440,note_on,0,0,4,,,,,,,,,0,,,44,120
25440,note_on,0,0,4,,,,,,,,,0,,,57,0
25440,note_on,0,0,4,,,,,,,,,0,,,32,120
25440,note_on,20,0,4,,,,,,,,,0,,,45,0
25455,note_on,0,0,4,,,,,,,,,0,,,32,0
25455,note_on,0,0,4,,,,,,,,,0,,,56,0
25455,note_on,15,0,4,,,,,,,,,0,,,44,0
25500,note_on,180,0,1,,,,,,,,,0,,,87,100
25500,note_on,0,0,1,,,,,,,,,0,,,80,100
25530,note_on,0,0,1,,,,,,,,,0,,,87,0
25530,note_on,30,0,1,,,,,,,,,0,,,80,0
25530,note_on,0,0,1,,,,,,,,,0,,,75,100
25530,note_on,0,0,1,,,,,,,,,0,,,83,100
25560,note_on,30,0,1,,,,,,,,,0,,,83,0
25560,note_on,180,0,3,,,,,,,,,0,,,76,100
25560,note_on,0,0,1,,,,,,,,,0,,,75,0
25560,note_on,0,0,3,,,,,,,,,0,,,68,100
25590,note_on,0,0,3,,,,,,,,,0,,,71,100
25590,note_on,0,0,3,,,,,,,,,0,,,76,0
25590,note_on,30,0,3,,,,,,,,,0,,,68,0
25590,note_on,0,0,3,,,,,,,,,0,,,64,100
25620,note_on,30,0,3,,,,,,,,,0,,,71,0
25620,note_on,0,0,3,,,,,,,,,0,,,64,0
25650,note_on,0,0,4,,,,,,,,,0,,,57,100
25650,note_on,195,0,4,,,,,,,,,0,,,45,100
25660,note_on,10,0,4,,,,,,,,,0,,,57,0
25660,note_on,0,0,4,,,,,,,,,0,,,59,100
25660,note_on,0,0,4,,,,,,,,,0,,,47,100
25660,note_on,0,0,4,,,,,,,,,0,,,45,0
25670,note_on,0,0,4,,,,,,,,,0,,,60,100
25670,note_on,0,0,4,,,,,,,,,0,,,48,100
25670,note_on,0,0,4,,,,,,,,,0,,,47,0
25670,note_on,10,0,4,,,,,,,,,0,,,59,0
25680,note_on,10,0,4,,,,,,,,,0,,,60,0
25680,note_on,0,0,4,,,,,,,,,0,,,61,120
25680,note_on,0,0,4,,,,,,,,,0,,,49,120
25680,note_on,0,0,4,,,,,,,,,0,,,48,0
25680,note_on,0,0,4,,,,,,,,,0,,,37,120
25695,note_on,0,0,4,,,,,,,,,0,,,49,0
25695,note_on,0,0,4,,,,,,,,,0,,,37,0
25695,note_on,15,0,4,,,,,,,,,0,,,61,0
25740,note_on,0,0,1,,,,,,,,,0,,,88,100
25740,note_on,180,0,1,,,,,,,,,0,,,94,100
25770,note_on,30,0,1,,,,,,,,,0,,,88,0
25770,note_on,0,0,1,,,,,,,,,0,,,94,0
25770,note_on,0,0,1,,,,,,,,,0,,,91,100
25770,note_on,0,0,1,,,,,,,,,0,,,82,100
25800,note_on,30,0,1,,,,,,,,,0,,,91,0
25800,note_on,0,0,1,,,,,,,,,0,,,82,0
25800,note_on,0,0,3,,,,,,,,,0,,,76,100
25800,note_on,180,0,3,,,,,,,,,0,,,81,100
25830,note_on,0,0,3,,,,,,,,,0,,,81,0
25830,note_on,0,0,3,,,,,,,,,0,,,79,100
25830,note_on,0,0,3,,,,,,,,,0,,,69,100
25830,note_on,30,0,3,,,,,,,,,0,,,76,0
25860,note_on,0,0,3,,,,,,,,,0,,,69,0
25860,note_on,165,0,4,,,,,,,,,0,,,45,100
25860,note_on,0,0,4,,,,,,,,,0,,,57,100
25860,note_on,30,0,3,,,,,,,,,0,,,79,0
25880,note_on,0,0,4,,,,,,,,,0,,,59,100
25880,note_on,20,0,4,,,,,,,,,0,,,57,0
25880,note_on,0,0,4,,,,,,,,,0,,,47,100
25880,note_on,0,0,4,,,,,,,,,0,,,45,0
25900,note_on,0,0,4,,,,,,,,,0,,,47,0
25900,note_on,0,0,4,,,,,,,,,0,,,60,100
25900,note_on,0,0,4,,,,,,,,,0,,,48,100
25900,note_on,20,0,4,,,,,,,,,0,,,59,0
25920,note_on,20,0,4,,,,,,,,,0,,,60,0
25920,note_on,0,0,4,,,,,,,,,0,,,38,120
25920,note_on,0,0,4,,,,,,,,,0,,,48,0
25920,note_on,0,0,4,,,,,,,,,0,,,50,120
25920,note_on,0,0,4,,,,,,,,,0,,,62,120
25935,note_on,0,0,4,,,,,,,,,0,,,38,0
25935,note_on,0,0,4,,,,,,,,,0,,,50,0
25935,note_on,15,0,4,,,,,,,,,0,,,62,0
25980,note_on,0,0,1,,,,,,,,,0,,,81,100
25980,note_on,180,0,1,,,,,,,,,0,,,88,100
26010,note_on,0,0,1,,,,,,,,,0,,,76,100
26010,note_on,30,0,1,,,,,,,,,0,,,81,0
26010,note_on,0,0,1,,,,,,,,,0,,,86,100
26010,note_on,0,0,1,,,,,,,,,0,,,88,0
26040,note_on,30,0,1,,,,,,,,,0,,,86,0
26040,note_on,0,0,1,,,,,,,,,0,,,76,0
26040,note_on,0,0,3,,,,,,,,,0,,,69,100
26040,note_on,180,0,3,,,,,,,,,0,,,77,100
26070,note_on,0,0,3,,,,,,,,,0,,,77,0
26070,note_on,0,0,3,,,,,,,,,0,,,74,100
26070,note_on,30,0,3,,,,,,,,,0,,,69,0
26070,note_on,0,0,3,,,,,,,,,0,,,65,100
26100,note_on,165,0,4,,,,,,,,,0,,,52,100
26100,note_on,30,0,3,,,,,,,,,0,,,74,0
26100,note_on,0,0,3,,,,,,,,,0,,,65,0
26100,note_on,0,0,4,,,,,,,,,0,,,64,100
26120,note_on,0,0,4,,,,,,,,,0,,,62,100
26120,note_on,20,0,4,,,,,,,,,0,,,64,0
26120,note_on,0,0,4,,,,,,,,,0,,,50,100
26120,note_on,0,0,4,,,,,,,,,0,,,52,0
26140,note_on,20,0,4,,,,,,,,,0,,,62,0
26140,note_on,0,0,4,,,,,,,,,0,,,60,100
26140,note_on,0,0,4,,,,,,,,,0,,,50,0
26140,note_on,0,0,4,,,,,,,,,0,,,48,100
26160,note_on,0,0,4,,,,,,,,,0,,,48,0
26160,note_on,0,0,4,,,,,,,,,0,,,35,120
26160,note_on,0,0,4,,,,,,,,,0,,,47,120
26160,note_on,0,0,4,,,,,,,,,0,,,59,120
26160,note_on,20,0,4,,,,,,,,,0,,,60,0
26175,note_on,0,0,4,,,,,,,,,0,,,35,0
26175,note_on,0,0,4,,,,,,,,,0,,,47,0
26175,note_on,15,0,4,,,,,,,,,0,,,59,0
26220,note_on,0,0,1,,,,,,,,,0,,,86,100
26220,note_on,180,0,1,,,,,,,,,0,,,92,100
26250,note_on,30,0,1,,,,,,,,,0,,,86,0
26250,note_on,0,0,1,,,,,,,,,0,,,89,100
26250,note_on,0,0,1,,,,,,,,,0,,,80,100
26250,note_on,0,0,1,,,,,,,,,0,,,92,0
26280,note_on,30,0,1,,,,,,,,,0,,,80,0
26280,note_on,180,0,3,,,,,,,,,0,,,79,100
26280,note_on,0,0,1,,,,,,,,,0,,,89,0
26280,note_on,0,0,3,,,,,,,,,0,,,74,100
26310,note_on,0,0,3,,,,,,,,,0,,,67,100
26310,note_on,0,0,3,,,,,,,,,0,,,77,100
26310,note_on,30,0,3,,,,,,,,,0,,,74,0
26310,note_on,0,0,3,,,,,,,,,0,,,79,0
26340,note_on,0,0,4,,,,,,,,,0,,,55,100
26340,note_on,165,0,4,,,,,,,,,0,,,43,100
26340,note_on,30,0,3,,,,,,,,,0,,,67,0
26340,note_on,0,0,3,,,,,,,,,0,,,77,0
26360,note_on,0,0,4,,,,,,,,,0,,,45,100
26360,note_on,0,0,4,,,,,,,,,0,,,43,0
26360,note_on,0,0,4,,,,,,,,,0,,,57,100
26360,note_on,20,0,4,,,,,,,,,0,,,55,0
26380,note_on,20,0,4,,,,,,,,,0,,,57,0
26380,note_on,0,0,4,,,,,,,,,0,,,45,0
26380,note_on,0,0,4,,,,,,,,,0,,,59,100
26380,note_on,0,0,4,,,,,,,,,0,,,47,100
26400,note_on,0,0,4,,,,,,,,,0,,,47,0
26400,note_on,0,0,4,,,,,,,,,0,,,36,120
26400,note_on,20,0,4,,,,,,,,,0,,,59,0
26400,note_on,0,0,4,,,,,,,,,0,,,48,120
26400,note_on,0,0,4,,,,,,,,,0,,,60,120
26415,note_on,0,0,4,,,,,,,,,0,,,48,0
26415,note_on,0,0,4,,,,,,,,,0,,,36,0
26415,note_on,15,0,4,,,,,,,,,0,,,60,0
26460,note_on,180,0,1,,,,,,,,,0,,,87,100
26460,note_on,0,0,1,,,,,,,,,0,,,79,100
26490,note_on,0,0,1,,,,,,,,,0,,,75,100
26490,note_on,0,0,1,,,,,,,,,0,,,84,100
26490,note_on,0,0,1,,,,,,,,,0,,,87,0
26490,note_on,30,0,1,,,,,,,,,0,,,79,0
26520,note_on,0,0,1,,,,,,,,,0,,,75,0
26520,note_on,30,0,1,,,,,,,,,0,,,84,0
26520,note_on,0,0,3,,,,,,,,,0,,,67,100
26520,note_on,180,0,3,,,,,,,,,0,,,76,100
26550,note_on,0,0,3,,,,,,,,,0,,,64,100
26550,note_on,0,0,3,,,,,,,,,0,,,72,100
26550,note_on,30,0,3,,,,,,,,,0,,,67,0
26550,note_on,0,0,3,,,,,,,,,0,,,76,0
26580,note_on,0,0,3,,,,,,,,,0,,,64,0
26580,note_on,165,0,4,,,,,,,,,0,,,47,100
26580,note_on,0,0,4,,,,,,,,,0,,,59,100
26580,note_on,30,0,3,,,,,,,,,0,,,72,0
26600,note_on,20,0,4,,,,,,,,,0,,,59,0
26600,note_on,0,0,4,,,,,,,,,0,,,47,0
26600,note_on,0,0,4,,,,,,,,,0,,,48,100
26600,note_on,0,0,4,,,,,,,,,0,,,60,100
26620,note_on,20,0,4,,,,,,,,,0,,,60,0
26620,note_on,0,0,4,,,,,,,,,0,,,48,0
26620,note_on,0,0,4,,,,,,,,,0,,,49,100
26620,note_on,0,0,4,,,,,,,,,0,,,61,100
26640,note_on,0,0,4,,,,,,,,,0,,,38,120
26640,note_on,0,0,4,,,,,,,,,0,,,49,0
26640,note_on,20,0,4,,,,,,,,,0,,,61,0
26640,note_on,0,0,4,,,,,,,,,0,,,50,120
26640,note_on,0,0,4,,,,,,,,,0,,,62,120
26655,note_on,15,0,4,,,,,,,,,0,,,62,0
26655,note_on,0,0,4,,,,,,,,,0,,,38,0
26655,note_on,0,0,4,,,,,,,,,0,,,50,0
26700,note_on,0,0,1,,,,,,,,,0,,,86,100
26700,note_on,180,0,1,,,,,,,,,0,,,95,100
26730,note_on,0,0,1,,,,,,,,,0,,,83,100
26730,note_on,30,0,1,,,,,,,,,0,,,86,0
26730,note_on,0,0,1,,,,,,,,,0,,,89,100
26730,note_on,0,0,1,,,,,,,,,0,,,95,0
26760,note_on,0,0,3,,,,,,,,,0,,,74,100
26760,note_on,180,0,3,,,,,,,,,0,,,82,100
26760,note_on,0,0,1,,,,,,,,,0,,,83,0
26760,note_on,30,0,1,,,,,,,,,0,,,89,0
26790,note_on,0,0,3,,,,,,,,,0,,,71,100
26790,note_on,0,0,3,,,,,,,,,0,,,77,100
26790,note_on,30,0,3,,,,,,,,,0,,,74,0
26790,note_on,0,0,3,,,,,,,,,0,,,82,0
26820,note_on,165,0,4,,,,,,,,,0,,,46,100
26820,note_on,0,0,4,,,,,,,,,0,,,58,100
26820,note_on,30,0,3,,,,,,,,,0,,,77,0
26820,note_on,0,0,3,,,,,,,,,0,,,71,0
26840,note_on,20,0,4,,,,,,,,,0,,,58,0
26840,note_on,0,0,4,,,,,,,,,0,,,48,100
26840,note_on,0,0,4,,,,,,,,,0,,,60,100
26840,note_on,0,0,4,,,,,,,,,0,,,46,0
26860,note_on,0,0,4,,,,,,,,,0,,,62,100
26860,note_on,0,0,4,,,,,,,,,0,,,50,100
26860,note_on,0,0,4,,,,,,,,,0,,,48,0
26860,note_on,20,0,4,,,,,,,,,0,,,60,0
26880,note_on,20,0,4,,,,,,,,,0,,,62,0
26880,note_on,0,0,4,,,,,,,,,0,,,40,120
26880,note_on,0,0,4,,,,,,,,,0,,,50,0
26880,note_on,0,0,4,,,,,,,,,0,,,52,120
26880,note_on,0,0,4,,,,,,,,,0,,,64,120
26895,note_on,0,0,4,,,,,,,,,0,,,52,0
26895,note_on,0,0,4,,,,,,,,,0,,,40,0
26895,note_on,15,0,4,,,,,,,,,0,,,64,0
26940,note_on,0,0,1,,,,,,,,,0,,,83,100
26940,note_on,180,0,1,,,,,,,,,0,,,90,100
26970,note_on,0,0,1,,,,,,,,,0,,,90,0
26970,note_on,0,0,1,,,,,,,,,0,,,86,100
26970,note_on,0,0,1,,,,,,,,,0,,,80,100
26970,note_on,30,0,1,,,,,,,,,0,,,83,0
27000,note_on,0,0,1,,,,,,,,,0,,,80,0
27000,note_on,180,0,3,,,,,,,,,0,,,72,100
27000,note_on,0,0,3,,,,,,,,,0,,,81,100
27000,note_on,30,0,1,,,,,,,,,0,,,86,0
27030,note_on,0,0,3,,,,,,,,,0,,,69,100
27030,note_on,0,0,3,,,,,,,,,0,,,76,100
27030,note_on,0,0,3,,,,,,,,,0,,,72,0
27030,note_on,30,0,3,,,,,,,,,0,,,81,0
27060,note_on,0,0,3,,,,,,,,,0,,,69,0
27060,note_on,30,0,3,,,,,,,,,0,,,76,0
27060,note_on,165,0,4,,,,,,,,,0,,,53,100
27060,note_on,0,0,4,,,,,,,,,0,,,65,100
27080,note_on,0,0,4,,,,,,,,,0,,,64,100
27080,note_on,0,0,4,,,,,,,,,0,,,53,0
27080,note_on,0,0,4,,,,,,,,,0,,,52,100
27080,note_on,20,0,4,,,,,,,,,0,,,65,0
27100,note_on,0,0,4,,,,,,,,,0,,,63,100
27100,note_on,0,0,4,,,,,,,,,0,,,52,0
27100,note_on,0,0,4,,,,,,,,,0,,,51,100
27100,note_on,20,0,4,,,,,,,,,0,,,64,0
27120,note_on,0,0,4,,,,,,,,,0,,,62,120
27120,note_on,0,0,4,,,,,,,,,0,,,50,120
27120,note_on,0,0,4,,,,,,,,,0,,,38,120
27120,note_on,0,0,4,,,,,,,,,0,,,51,0
27120,note_on,20,0,4,,,,,,,,,0,,,63,0
27135,note_on,15,0,4,,,,,,,,,0,,,62,0
27135,note_on,0,0,4,,,,,,,,,0,,,50,0
27135,note_on,0,0,4,,,,,,,,,0,,,38,0
27180,note_on,180,0,1,,,,,,,,,0,,,89,100
27180,note_on,45,0,4,,,,,,,,,0,,,47,100
27180,note_on,0,0,1,,,,,,,,,0,,,81,100
27200,note_on,0,0,4,,,,,,,,,0,,,48,100
27200,note_on,20,0,4,,,,,,,,,0,,,47,0
27210,note_on,30,0,1,,,,,,,,,0,,,81,0
27210,note_on,0,0,1,,,,,,,,,0,,,83,100
27210,note_on,0,0,1,,,,,,,,,0,,,89,0
27210,note_on,0,0,1,,,,,,,,,0,,,77,100
27220,note_on,0,0,4,,,,,,,,,0,,,50,100
27220,note_on,20,0,4,,,,,,,,,0,,,48,0
27240,note_on,20,0,4,,,,,,,,,0,,,50,0
27240,note_on,30,0,1,,,,,,,,,0,,,83,0
27240,note_on,0,0,4,,,,,,,,,0,,,52,100
27240,note_on,0,0,1,,,,,,,,,0,,,68,100
27240,note_on,0,0,1,,,,,,,,,0,,,76,100
27240,note_on,0,0,1,,,,,,,,,0,,,77,0
27240,note_on,0,0,4,,,,,,,,,0,,,40,100
27255,note_on,15,0,4,,,,,,,,,0,,,52,0
27255,note_on,0,0,4,,,,,,,,,0,,,40,0
27270,note_on,0,0,1,,,,,,,,,0,,,71,100
27270,note_on,30,0,1,,,,,,,,,0,,,76,0
27270,note_on,0,0,1,,,,,,,,,0,,,68,0
27270,note_on,0,0,1,,,,,,,,,0,,,64,100
27300,note_on,0,0,4,,,,,,,,,0,,,62,100
27300,note_on,0,0,1,,,,,,,,,0,,,64,0
27300,note_on,30,0,1,,,,,,,,,0,,,71,0
27300,note_on,45,0,4,,,,,,,,,0,,,50,100
27320,note_on,20,0,4,,,,,,,,,0,,,62,0
27320,note_on,0,0,4,,,,,,,,,0,,,48,100
27320,note_on,0,0,4,,,,,,,,,0,,,50,0
27320,note_on,0,0,4,,,,,,,,,0,,,60,100
27340,note_on,0,0,4,,,,,,,,,0,,,59,100
27340,note_on,0,0,4,,,,,,,,,0,,,48,0
27340,note_on,0,0,4,,,,,,,,,0,,,47,100
27340,note_on,20,0,4,,,,,,,,,0,,,60,0
27360,note_on,0,0,4,,,,,,,,,0,,,45,120
27360,note_on,0,0,4,,,,,,,,,0,,,57,120
27360,note_on,0,0,4,,,,,,,,,0,,,47,0
27360,note_on,0,0,4,,,,,,,,,0,,,33,120
27360,note_on,20,0,4,,,,,,,,,0,,,59,0
27375,note_on,15,0,4,,,,,,,,,0,,,57,0
27375,note_on,0,0,4,,,,,,,,,0,,,45,0
27375,note_on,0,0,4,,,,,,,,,0,,,33,0
27420,note_on,120,0,1,,,,,,,,,0,,,96,100
27420,note_on,0,0,1,,,,,,,,,0,,,88,100
27420,note_on,0,0,3,,,,,,,,,0,,,64,100
27420,note_on,360,0,3,,,,,,,,,0,,,72,100
27435,note_on,0,0,3,,,,,,,,,0,,,72,0
27435,note_on,15,0,3,,,,,,,,,0,,,64,0
27450,note_on,0,0,1,,,,,,,,,0,,,96,0
27450,note_on,30,0,1,,,,,,,,,0,,,88,0
27450,note_on,0,0,1,,,,,,,,,0,,,84,100
27480,note_on,0,0,1,,,,,,,,,0,,,88,100
27480,note_on,0,0,1,,,,,,,,,0,,,93,100
27480,note_on,45,0,3,,,,,,,,,0,,,60,100
27480,note_on,30,0,1,,,,,,,,,0,,,84,0
27480,note_on,0,0,3,,,,,,,,,0,,,69,100
27495,note_on,0,0,3,,,,,,,,,0,,,60,0
27495,note_on,15,0,3,,,,,,,,,0,,,69,0
27510,note_on,0,0,1,,,,,,,,,0,,,81,100
27510,note_on,0,0,1,,,,,,,,,0,,,93,0
27510,note_on,30,0,1,,,,,,,,,0,,,88,0
27540,note_on,30,0,1,,,,,,,,,0,,,81,0
27600,marker,3840,1,0,,,,,,,,,,,,,
27600,note_on,225,0,4,,,,,,,,,0,,,33,100
27600,note_on,60,0,1,,,,,,,,,0,,,100,100
27600,note_on,0,0,1,,,,,,,,,0,,,96,100
27600,note_on,0,0,1,,,,,,,,,0,,,88,100
27600,note_on,0,0,4,,,,,,,,,0,,,36,100
27630,note_on,0,0,4,,,,,,,,,0,,,38,100
27630,note_on,0,0,4,,,,,,,,,0,,,35,100
27630,note_on,0,0,4,,,,,,,,,0,,,33,0
27630,note_on,30,0,4,,,,,,,,,0,,,36,0
27660,note_on,30,0,4,,,,,,,,,0,,,35,0
27660,note_on,0,0,4,,,,,,,,,0,,,40,100
27660,note_on,0,0,4,,,,,,,,,0,,,36,100
27660,note_on,0,0,4,,,,,,,,,0,,,38,0
27690,note_on,0,0,4,,,,,,,,,0,,,38,100
27690,note_on,30,0,4,,,,,,,,,0,,,36,0
27690,note_on,0,0,4,,,,,,,,,0,,,40,0
27690,note_on,0,0,4,,,,,,,,,0,,,41,100
27720,note_on,30,0,4,,,,,,,,,0,,,38,0
27720,note_on,0,0,4,,,,,,,,,0,,,40,100
27720,note_on,0,0,4,,,,,,,,,0,,,44,100
27720,note_on,0,0,4,,,,,,,,,0,,,41,0
27750,note_on,30,0,4,,,,,,,,,0,,,40,0
27750,note_on,0,0,4,,,,,,,,,0,,,41,100
27750,note_on,0,0,4,,,,,,,,,0,,,44,0
27750,note_on,0,0,4,,,,,,,,,0,,,45,100
27780,note_on,0,0,4,,,,,,,,,0,,,45,0
27780,note_on,0,0,1,,,,,,,,,0,,,100,0
27780,note_on,0,0,4,,,,,,,,,0,,,47,100
27780,note_on,0,0,1,,,,,,,,,0,,,98,100
27780,note_on,0,0,1,,,,,,,,,0,,,96,0
27780,note_on,30,0,4,,,,,,,,,0,,,41,0
27780,note_on,0,0,1,,,,,,,,,0,,,95,100
27780,note_on,0,0,1,,,,,,,,,0,,,86,100
27780,note_on,0,0,4,,,,,,,,,0,,,44,100
27780,note_on,180,0,1,,,,,,,,,0,,,88,0
27810,note_on,0,0,4,,,,,,,,,0,,,45,100
27810,note_on,0,0,4,,,,,,,,,0,,,47,0
27810,note_on,0,0,4,,,,,,,,,0,,,48,100
27810,note_on,30,0,1,,,,,,,,,0,,,86,0
27810,note_on,30,0,4,,,,,,,,,0,,,44,0
27810,note_on,0,0,1,,,,,,,,,0,,,84,100
27810,note_on,0,0,1,,,,,,,,,0,,,93,100
27810,note_on,0,0,1,,,,,,,,,0,,,95,0
27810,note_on,0,0,1,,,,,,,,,0,,,96,100
27810,note_on,0,0,1,,,,,,,,,0,,,98,0
27840,note_on,30,0,4,,,,,,,,,0,,,45,0
27840,note_on,0,0,1,,,,,,,,,0,,,83,100
27840,note_on,0,0,1,,,,,,,,,0,,,92,100
27840,note_on,0,0,1,,,,,,,,,0,,,93,0
27840,note_on,0,0,1,,,,,,,,,0,,,95,100
27840,note_on,0,0,1,,,,,,,,,0,,,96,0
27840,note_on,30,0,1,,,,,,,,,0,,,84,0
27840,note_on,0,0,4,,,,,,,,,0,,,47,100
27840,note_on,0,0,4,,,,,,,,,0,,,48,0
27840,note_on,0,0,4,,,,,,,,,0,,,50,100
27870,note_on,0,0,1,,,,,,,,,0,,,89,100
27870,note_on,0,0,1,,,,,,,,,0,,,95,0
27870,note_on,0,0,1,,,,,,,,,0,,,93,100
27870,note_on,0,0,1,,,,,,,,,0,,,92,0
27870,note_on,0,0,1,,,,,,,,,0,,,81,100
27870,note_on,0,0,4,,,,,,,,,0,,,52,100
27870,note_on,0,0,4,,,,,,,,,0,,,50,0
27870,note_on,0,0,4,,,,,,,,,0,,,48,100
27870,note_on,30,0,1,,,,,,,,,0,,,83,0
27870,note_on,30,0,4,,,,,,,,,0,,,47,0
27900,note_on,30,0,1,,,,,,,,,0,,,81,0
27900,note_on,0,0,4,,,,,,,,,0,,,50,100
27900,note_on,30,0,4,,,,,,,,,0,,,48,0
27900,note_on,0,0,1,,,,,,,,,0,,,80,100
27900,note_on,0,0,1,,,,,,,,,0,,,88,100
27900,note_on,0,0,1,,,,,,,,,0,,,89,0
27900,note_on,0,0,1,,,,,,,,,0,,,93,0
27900,note_on,0,0,4,,,,,,,,,0,,,52,0
27900,note_on,0,0,1,,,,,,,,,0,,,92,100
27900,note_on,0,0,4,,,,,,,,,0,,,53,100
27930,note_on,30,0,4,,,,,,,,,0,,,50,0
27930,note_on,0,0,4,,,,,,,,,0,,,52,100
27930,note_on,0,0,4,,,,,,,,,0,,,53,0
27930,note_on,0,0,4,,,,,,,,,0,,,56,100
27930,note_on,0,0,1,,,,,,,,,0,,,77,100
27930,note_on,30,0,1,,,,,,,,,0,,,80,0
27930,note_on,0,0,1,,,,,,,,,0,,,88,0
27930,note_on,0,0,1,,,,,,,,,0,,,86,100
27930,note_on,0,0,1,,,,,,,,,0,,,89,100
27930,note_on,0,0,1,,,,,,,,,0,,,92,0
27960,note_on,0,0,4,,,,,,,,,0,,,57,100
27960,note_on,0,0,4,,,,,,,,,0,,,56,0
27960,note_on,0,0,4,,,,,,,,,0,,,53,100
27960,note_on,30,0,4,,,,,,,,,0,,,52,0
27960,note_on,0,0,1,,,,,,,,,0,,,86,0
27960,note_on,0,0,1,,,,,,,,,0,,,76,100
27960,note_on,0,0,1,,,,,,,,,0,,,88,100
27960,note_on,30,0,1,,,,,,,,,0,,,77,0
27960,note_on,0,0,1,,,,,,,,,0,,,89,0
27960,note_on,0,0,1,,,,,,,,,0,,,84,100
27990,note_on,0,0,4,,,,,,,,,0,,,59,100
27990,note_on,0,0,4,,,,,,,,,0,,,57,0
27990,note_on,0,0,4,,,,,,,,,0,,,56,100
27990,note_on,0,0,1,,,,,,,,,0,,,74,100
27990,note_on,0,0,1,,,,,,,,,0,,,83,100
27990,note_on,30,0,4,,,,,,,,,0,,,53,0
27990,note_on,0,0,1,,,,,,,,,0,,,84,0
27990,note_on,0,0,1,,,,,,,,,0,,,86,100
27990,note_on,0,0,1,,,,,,,,,0,,,88,0
27990,note_on,30,0,1,,,,,,,,,0,,,76,0
28020,note_on,30,0,1,,,,,,,,,0,,,74,0
28020,note_on,0,0,4,,,,,,,,,0,,,57,100
28020,note_on,0,0,4,,,,,,,,,0,,,59,0
28020,note_on,0,0,1,,,,,,,,,0,,,84,100
28020,note_on,0,0,4,,,,,,,,,0,,,60,100
28020,note_on,0,0,1,,,,,,,,,0,,,86,0
28020,note_on,0,0,1,,,,,,,,,0,,,83,0
28020,note_on,30,0,4,,,,,,,,,0,,,56,0
28020,note_on,0,0,1,,,,,,,,,0,,,72,100
28020,note_on,0,0,1,,,,,,,,,0,,,81,100
28050,note_on,0,0,1,,,,,,,,,0,,,71,100
28050,note_on,0,0,1,,,,,,,,,0,,,80,100
28050,note_on,0,0,1,,,,,,,,,0,,,81,0
28050,note_on,0,0,1,,,,,,,,,0,,,83,100
28050,note_on,0,0,1,,,,,,,,,0,,,84,0
28050,note_on,30,0,1,,,,,,,,,0,,,72,0
28050,note_on,0,0,4,,,,,,,,,0,,,59,100
28050,note_on,0,0,4,,,,,,,,,0,,,60,0
28050,note_on,0,0,4,,,,,,,,,0,,,62,100
28050,note_on,30,0,4,,,,,,,,,0,,,57,0
28080,note_on,0,0,4,,,,,,,,,0,,,57,100
28080,note_on,0,0,4,,,,,,,,,0,,,60,100
28080,note_on,0,0,1,,,,,,,,,0,,,84,100
28080,note_on,0,0,1,,,,,,,,,0,,,83,0
28080,note_on,0,0,1,,,,,,,,,0,,,81,100
28080,note_on,0,0,1,,,,,,,,,0,,,80,0
28080,note_on,30,0,1,,,,,,,,,0,,,71,0
28080,note_on,0,0,1,,,,,,,,,0,,,72,100
28080,note_on,0,0,4,,,,,,,,,0,,,62,0
28080,note_on,30,0,4,,,,,,,,,0,,,59,0
28110,note_on,0,0,4,,,,,,,,,0,,,59,100
28110,note_on,30,0,4,,,,,,,,,0,,,57,0
28110,note_on,0,0,4,,,,,,,,,0,,,60,0
28110,note_on,0,0,4,,,,,,,,,0,,,62,100
28140,note_on,0,0,4,,,,,,,,,0,,,64,100
28140,note_on,0,0,4,,,,,,,,,0,,,62,0
28140,note_on,0,0,4,,,,,,,,,0,,,60,100
28140,note_on,30,0,4,,,,,,,,,0,,,59,0
28170,note_on,30,0,4,,,,,,,,,0,,,60,0
28170,note_on,0,0,4,,,,,,,,,0,,,62,100
28170,note_on,0,0,4,,,,,,,,,0,,,64,0
28170,note_on,0,0,4,,,,,,,,,0,,,65,100
28200,note_on,30,0,4,,,,,,,,,0,,,62,0
28200,note_on,0,0,4,,,,,,,,,0,,,62,100
28200,note_on,0,0,4,,,,,,,,,0,,,65,0
28200,note_on,0,0,4,,,,,,,,,0,,,65,100
28230,note_on,0,0,4,,,,,,,,,0,,,65,0
28230,note_on,30,0,4,,,,,,,,,0,,,62,0
28230,note_on,0,0,4,,,,,,,,,0,,,60,100
28230,note_on,0,0,4,,,,,,,,,0,,,64,100
28260,note_on,0,0,4,,,,,,,,,0,,,59,100
28260,note_on,0,0,4,,,,,,,,,0,,,64,0
28260,note_on,30,0,4,,,,,,,,,0,,,60,0
28260,note_on,0,0,1,,,,,,,,,0,,,86,100
28260,note_on,0,0,1,,,,,,,,,0,,,84,0
28260,note_on,0,0,1,,,,,,,,,0,,,83,100
28260,note_on,0,0,1,,,,,,,,,0,,,81,0
28260,note_on,0,0,1,,,,,,,,,0,,,74,100
28260,note_on,180,0,1,,,,,,,,,0,,,72,0
28260,note_on,0,0,4,,,,,,,,,0,,,62,100
28290,note_on,0,0,4,,,,,,,,,0,,,57,100
28290,note_on,0,0,4,,,,,,,,,0,,,60,100
28290,note_on,0,0,4,,,,,,,,,0,,,62,0
28290,note_on,0,0,1,,,,,,,,,0,,,86,0
28290,note_on,0,0,1,,,,,,,,,0,,,76,100
28290,note_on,0,0,1,,,,,,,,,0,,,83,0
28290,note_on,30,0,4,,,,,,,,,0,,,59,0
28290,note_on,0,0,1,,,,,,,,,0,,,88,100
28290,note_on,30,0,1,,,,,,,,,0,,,74,0
28290,note_on,0,0,1,,,,,,,,,0,,,84,100
28320,note_on,0,0,4,,,,,,,,,0,,,62,100
28320,note_on,30,0,4,,,,,,,,,0,,,57,0
28320,note_on,0,0,4,,,,,,,,,0,,,59,100
28320,note_on,0,0,4,,,,,,,,,0,,,60,0
28320,note_on,30,0,1,,,,,,,,,0,,,76,0
28320,note_on,0,0,1,,,,,,,,,0,,,74,100
28320,note_on,0,0,1,,,,,,,,,0,,,88,0
28320,note_on,0,0,1,,,,,,,,,0,,,83,100
28320,note_on,0,0,1,,,,,,,,,0,,,84,0
28320,note_on,0,0,1,,,,,,,,,0,,,86,100
28350,note_on,0,0,1,,,,,,,,,0,,,86,0
28350,note_on,0,0,1,,,,,,,,,0,,,83,0
28350,note_on,30,0,1,,,,,,,,,0,,,74,0
28350,note_on,0,0,1,,,,,,,,,0,,,81,100
28350,note_on,0,0,1,,,,,,,,,0,,,72,100
28350,note_on,30,0,4,,,,,,,,,0,,,59,0
28350,note_on,0,0,1,,,,,,,,,0,,,84,100
28350,note_on,0,0,4,,,,,,,,,0,,,62,0
28350,note_on,0,0,4,,,,,,,,,0,,,60,100
28350,note_on,0,0,4,,,,,,,,,0,,,57,100
28380,note_on,0,0,4,,,,,,,,,0,,,60,0
28380,note_on,30,0,4,,,,,,,,,0,,,57,0
28380,note_on,0,0,1,,,,,,,,,0,,,83,100
28380,note_on,0,0,1,,,,,,,,,0,,,84,0
28380,note_on,30,0,1,,,,,,,,,0,,,72,0
28380,note_on,0,0,1,,,,,,,,,0,,,71,100
28380,note_on,0,0,1,,,,,,,,,0,,,81,0
28380,note_on,0,0,1,,,,,,,,,0,,,80,100
28380,note_on,0,0,4,,,,,,,,,0,,,59,100
28380,note_on,0,0,4,,,,,,,,,0,,,56,100
28410,note_on,0,0,1,,,,,,,,,0,,,83,0
28410,note_on,30,0,1,,,,,,,,,0,,,71,0
28410,note_on,0,0,1,,,,,,,,,0,,,81,100
28410,note_on,0,0,1,,,,,,,,,0,,,77,100
28410,note_on,0,0,1,,,,,,,,,0,,,69,100
28410,note_on,0,0,1,,,,,,,,,0,,,80,0
28410,note_on,0,0,4,,,,,,,,,0,,,59,0
28410,note_on,0,0,4,,,,,,,,,0,,,57,100
28410,note_on,0,0,4,,,,,,,,,0,,,53,100
28410,note_on,30,0,4,,,,,,,,,0,,,56,0
28440,note_on,0,0,1,,,,,,,,,0,,,80,100
28440,note_on,0,0,1,,,,,,,,,0,,,68,100
28440,note_on,0,0,4,,,,,,,,,0,,,56,100
28440,note_on,0,0,4,,,,,,,,,0,,,57,0
28440,note_on,30,0,4,,,,,,,,,0,,,53,0
28440,note_on,30,0,1,,,,,,,,,0,,,69,0
28440,note_on,0,0,1,,,,,,,,,0,,,76,100
28440,note_on,0,0,1,,,,,,,,,0,,,77,0
28440,note_on,0,0,4,,,,,,,,,0,,,52,100
28440,note_on,0,0,1,,,,,,,,,0,,,81,0
28560,note_on,0,0,1,,,,,,,,,0,,,80,0
28560,note_on,0,0,1,,,,,,,,,0,,,76,0
28560,note_on,0,0,1,,,,,,,,,0,,,88,100
28560,note_on,0,0,4,,,,,,,,,0,,,33,100
28560,note_on,0,0,1,,,,,,,,,0,,,100,100
28560,note_on,120,0,4,,,,,,,,,0,,,52,0
28560,note_on,120,0,1,,,,,,,,,0,,,68,0
28560,note_on,0,0,4,,,,,,,,,0,,,45,100
28560,note_on,0,0,4,,,,,,,,,0,,,56,0
28560,note_on,0,0,1,,,,,,,,,0,,,96,100
28590,note_on,0,0,4,,,,,,,,,0,,,35,100
28590,note_on,0,0,4,,,,,,,,,0,,,45,0
28590,note_on,0,0,4,,,,,,,,,0,,,47,100
28590,note_on,30,0,4,,,,,,,,,0,,,33,0
28620,note_on,30,0,4,,,,,,,,,0,,,35,0
28620,note_on,0,0,4,,,,,,,,,0,,,36,100
28620,note_on,0,0,4,,,,,,,,,0,,,47,0
28620,note_on,0,0,4,,,,,,,,,0,,,48,100
28650,note_on,0,0,4,,,,,,,,,0,,,38,100
28650,note_on,0,0,4,,,,,,,,,0,,,50,100
28650,note_on,30,0,4,,,,,,,,,0,,,36,0
28650,note_on,0,0,4,,,,,,,,,0,,,48,0
28680,note_on,0,0,4,,,,,,,,,0,,,40,100
28680,note_on,0,0,4,,,,,,,,,0,,,52,100
28680,note_on,30,0,4,,,,,,,,,0,,,38,0
28680,note_on,0,0,4,,,,,,,,,0,,,50,0
28710,note_on,30,0,4,,,,,,,,,0,,,40,0
28710,note_on,0,0,4,,,,,,,,,0,,,41,100
28710,note_on,0,0,4,,,,,,,,,0,,,52,0
28710,note_on,0,0,4,,,,,,,,,0,,,53,100
28740,note_on,0,0,1,,,,,,,,,0,,,98,100
28740,note_on,0,0,1,,,,,,,,,0,,,100,0
28740,note_on,0,0,1,,,,,,,,,0,,,95,100
28740,note_on,0,0,1,,,,,,,,,0,,,86,100
28740,note_on,180,0,1,,,,,,,,,0,,,88,0
28740,note_on,0,0,4,,,,,,,,,0,,,56,100
28740,note_on,0,0,4,,,,,,,,,0,,,44,100
28740,note_on,0,0,4,,,,,,,,,0,,,53,0
28740,note_on,30,0,4,,,,,,,,,0,,,41,0
28740,note_on,0,0,1,,,,,,,,,0,,,96,0
28770,note_on,0,0,4,,,,,,,,,0,,,57,100
28770,note_on,30,0,1,,,,,,,,,0,,,86,0
28770,note_on,0,0,4,,,,,,,,,0,,,45,100
28770,note_on,0,0,4,,,,,,,,,0,,,56,0
28770,note_on,0,0,1,,,,,,,,,0,,,93,100
28770,note_on,0,0,1,,,,,,,,,0,,,98,0
28770,note_on,0,0,1,,,,,,,,,0,,,96,100
28770,note_on,0,0,1,,,,,,,,,0,,,95,0
28770,note_on,0,0,1,,,,,,,,,0,,,84,100
28770,note_on,30,0,4,,,,,,,,,0,,,44,0
28800,note_on,0,0,4,,,,,,,,,0,,,59,100
28800,note_on,0,0,1,,,,,,,,,0,,,92,100
28800,note_on,0,0,1,,,,,,,,,0,,,83,100
28800,note_on,0,0,4,,,,,,,,,0,,,57,0
28800,note_on,30,0,1,,,,,,,,,0,,,84,0
28800,note_on,0,0,4,,,,,,,,,0,,,47,100
28800,note_on,0,0,1,,,,,,,,,0,,,93,0
28800,note_on,0,0,1,,,,,,,,,0,,,95,100
28800,note_on,0,0,1,,,,,,,,,0,,,96,0
28800,note_on,30,0,4,,,,,,,,,0,,,45,0
28830,note_on,0,0,1,,,,,,,,,0,,,95,0
28830,note_on,0,0,4,,,,,,,,,0,,,59,0
28830,note_on,0,0,4,,,,,,,,,0,,,48,100
28830,note_on,30,0,1,,,,,,,,,0,,,83,0
28830,note_on,30,0,4,,,,,,,,,0,,,47,0
28830,note_on,0,0,4,,,,,,,,,0,,,60,100
28830,note_on,0,0,1,,,,,,,,,0,,,81,100
28830,note_on,0,0,1,,,,,,,,,0,,,93,100
28830,note_on,0,0,1,,,,,,,,,0,,,89,100
28830,note_on,0,0,1,,,,,,,,,0,,,92,0
28860,note_on,30,0,4,,,,,,,,,0,,,48,0
28860,note_on,0,0,4,,,,,,,,,0,,,60,0
28860,note_on,0,0,4,,,,,,,,,0,,,62,100
28860,note_on,0,0,4,,,,,,,,,0,,,50,100
28860,note_on,0,0,1,,,,,,,,,0,,,89,0
28860,note_on,0,0,1,,,,,,,,,0,,,92,100
28860,note_on,0,0,1,,,,,,,,,0,,,88,100
28860,note_on,30,0,1,,,,,,,,,0,,,81,0
28860,note_on,0,0,1,,,,,,,,,0,,,80,100
28860,note_on,0,0,1,,,,,,,,,0,,,93,0
28890,note_on,0,0,1,,,,,,,,,0,,,86,100
28890,note_on,0,0,1,,,,,,,,,0,,,88,0
28890,note_on,0,0,1,,,,,,,,,0,,,89,100
28890,note_on,0,0,1,,,,,,,,,0,,,77,100
28890,note_on,0,0,1,,,,,,,,,0,,,92,0
28890,note_on,0,0,4,,,,,,,,,0,,,62,0
28890,note_on,30,0,1,,,,,,,,,0,,,80,0
28890,note_on,0,0,4,,,,,,,,,0,,,52,100
28890,note_on,0,0,4,,,,,,,,,0,,,64,100
28890,note_on,30,0,4,,,,,,,,,0,,,50,0
28920,note_on,0,0,1,,,,,,,,,0,,,84,100
28920,note_on,0,0,1,,,,,,,,,0,,,88,100
28920,note_on,0,0,1,,,,,,,,,0,,,89,0
28920,note_on,30,0,4,,,,,,,,,0,,,52,0
28920,note_on,0,0,1,,,,,,,,,0,,,86,0
28920,note_on,0,0,4,,,,,,,,,0,,,65,100
28920,note_on,0,0,4,,,,,,,,,0,,,64,0
28920,note_on,0,0,4,,,,,,,,,0,,,53,100
28920,note_on,0,0,1,,,,,,,,,0,,,76,100
28920,note_on,30,0,1,,,,,,,,,0,,,77,0
28950,note_on,30,0,1,,,,,,,,,0,,,76,0
28950,note_on,0,0,1,,,,,,,,,0,,,88,0
28950,note_on,0,0,1,,,,,,,,,0,,,86,100
28950,note_on,0,0,4,,,,,,,,,0,,,68,100
28950,note_on,0,0,1,,,,,,,,,0,,,84,0
28950,note_on,0,0,1,,,,,,,,,0,,,83,100
28950,note_on,0,0,1,,,,,,,,,0,,,74,100
28950,note_on,30,0,4,,,,,,,,,0,,,53,0
28950,note_on,0,0,4,,,,,,,,,0,,,56,100
28950,note_on,0,0,4,,,,,,,,,0,,,65,0
28980,note_on,0,0,1,,,,,,,,,0,,,81,100
28980,note_on,1485,0,3,,,,,,,,,0,,,69,100
28980,note_on,0,0,4,,,,,,,,,0,,,68,0
28980,note_on,0,0,1,,,,,,,,,0,,,72,100
28980,note_on,0,0,1,,,,,,,,,0,,,83,0
28980,note_on,30,0,1,,,,,,,,,0,,,74,0
28980,note_on,0,0,1,,,,,,,,,0,,,86,0
28980,note_on,30,0,4,,,,,,,,,0,,,56,0
28980,note_on,0,0,3,,,,,,,,,0,,,57,100
28980,note_on,0,0,1,,,,,,,,,0,,,84,100
29010,note_on,0,0,1,,,,,,,,,0,,,80,100
29010,note_on,0,0,1,,,,,,,,,0,,,83,100
29010,note_on,0,0,1,,,,,,,,,0,,,84,0
29010,note_on,30,0,1,,,,,,,,,0,,,72,0
29010,note_on,30,0,3,,,,,,,,,0,,,57,0
29010,note_on,0,0,3,,,,,,,,,0,,,59,100
29010,note_on,0,0,3,,,,,,,,,0,,,69,0
29010,note_on,0,0,3,,,,,,,,,0,,,71,100
29010,note_on,0,0,1,,,,,,,,,0,,,81,0
29040,note_on,0,0,1,,,,,,,,,0,,,72,100
29040,note_on,30,0,3,,,,,,,,,0,,,59,0
29040,note_on,30,0,1,,,,,,,,,0,,,80,0
29040,note_on,0,0,1,,,,,,,,,0,,,81,100
29040,note_on,0,0,1,,,,,,,,,0,,,83,0
29040,note_on,0,0,1,,,,,,,,,0,,,84,100
29040,note_on,0,0,3,,,,,,,,,0,,,57,100
29040,note_on,0,0,3,,,,,,,,,0,,,69,100
29040,note_on,0,0,3,,,,,,,,,0,,,71,0
29070,note_on,30,0,3,,,,,,,,,0,,,57,0
29070,note_on,0,0,3,,,,,,,,,0,,,68,100
29070,note_on,0,0,3,,,,,,,,,0,,,56,100
29070,note_on,0,0,3,,,,,,,,,0,,,69,0
29100,note_on,0,0,3,,,,,,,,,0,,,53,100
29100,note_on,0,0,3,,,,,,,,,0,,,65,100
29100,note_on,0,0,3,,,,,,,,,0,,,68,0
29100,note_on,30,0,3,,,,,,,,,0,,,56,0
29130,note_on,0,0,3,,,,,,,,,0,,,52,100
29130,note_on,0,0,3,,,,,,,,,0,,,64,100
29130,note_on,0,0,3,,,,,,,,,0,,,65,0
29130,note_on,30,0,3,,,,,,,,,0,,,53,0
29160,note_on,180,0,4,,,,,,,,,0,,,65,100
29160,note_on,0,0,4,,,,,,,,,0,,,53,100
29160,note_on,30,0,3,,,,,,,,,0,,,52,0
29160,note_on,0,0,3,,,,,,,,,0,,,64,0
29190,note_on,0,0,4,,,,,,,,,0,,,64,100
29190,note_on,0,0,4,,,,,,,,,0,,,65,0
29190,note_on,30,0,4,,,,,,,,,0,,,53,0
29190,note_on,0,0,4,,,,,,,,,0,,,52,100
29220,note_on,180,0,1,,,,,,,,,0,,,72,0
29220,note_on,0,0,4,,,,,,,,,0,,,64,0
29220,note_on,0,0,4,,,,,,,,,0,,,62,100
29220,note_on,0,0,1,,,,,,,,,0,,,86,100
29220,note_on,0,0,1,,,,,,,,,0,,,84,0
29220,note_on,0,0,1,,,,,,,,,0,,,83,100
29220,note_on,30,0,4,,,,,,,,,0,,,52,0
29220,note_on,0,0,1,,,,,,,,,0,,,81,0
29220,note_on,0,0,1,,,,,,,,,0,,,74,100
29220,note_on,0,0,4,,,,,,,,,0,,,50,100
29250,note_on,0,0,4,,,,,,,,,0,,,60,100
29250,note_on,0,0,4,,,,,,,,,0,,,48,100
29250,note_on,30,0,1,,,,,,,,,0,,,74,0
29250,note_on,0,0,4,,,,,,,,,0,,,62,0
29250,note_on,30,0,4,,,,,,,,,0,,,50,0
29250,note_on,0,0,1,,,,,,,,,0,,,83,0
29250,note_on,0,0,1,,,,,,,,,0,,,84,100
29250,note_on,0,0,1,,,,,,,,,0,,,86,0
29250,note_on,0,0,1,,,,,,,,,0,,,88,100
29250,note_on,0,0,1,,,,,,,,,0,,,76,100
29280,note_on,30,0,1,,,,,,,,,0,,,76,0
29280,note_on,30,0,4,,,,,,,,,0,,,48,0
29280,note_on,0,0,1,,,,,,,,,0,,,86,100
29280,note_on,0,0,1,,,,,,,,,0,,,84,0
29280,note_on,0,0,1,,,,,,,,,0,,,74,100
29280,note_on,0,0,1,,,,,,,,,0,,,88,0
29280,note_on,0,0,4,,,,,,,,,0,,,60,0
29280,note_on,0,0,4,,,,,,,,,0,,,47,100
29280,note_on,0,0,4,,,,,,,,,0,,,59,100
29310,note_on,0,0,1,,,,,,,,,0,,,84,100
29310,note_on,30,0,1,,,,,,,,,0,,,74,0
29310,note_on,0,0,4,,,,,,,,,0,,,59,0
29310,note_on,0,0,4,,,,,,,,,0,,,57,100
29310,note_on,0,0,4,,,,,,,,,0,,,45,100
29310,note_on,0,0,1,,,,,,,,,0,,,72,100
29310,note_on,0,0,1,,,,,,,,,0,,,86,0
29310,note_on,30,0,4,,,,,,,,,0,,,47,0
29340,note_on,30,0,4,,,,,,,,,0,,,45,0
29340,note_on,30,0,1,,,,,,,,,0,,,72,0
29340,note_on,0,0,4,,,,,,,,,0,,,56,100
29340,note_on,0,0,4,,,,,,,,,0,,,44,100
29340,note_on,0,0,1,,,,,,,,,0,,,84,0
29340,note_on,0,0,1,,,,,,,,,0,,,83,100
29340,note_on,0,0,1,,,,,,,,,0,,,71,100
29340,note_on,0,0,4,,,,,,,,,0,,,57,0
29370,note_on,0,0,1,,,,,,,,,0,,,81,100
29370,note_on,30,0,4,,,,,,,,,0,,,44,0
29370,note_on,0,0,1,,,,,,,,,0,,,83,0
29370,note_on,0,0,1,,,,,,,,,0,,,69,100
29370,note_on,30,0,1,,,,,,,,,0,,,71,0
29370,note_on,0,0,4,,,,,,,,,0,,,65,100
29370,note_on,0,0,4,,,,,,,,,0,,,56,0
29370,note_on,0,0,4,,,,,,,,,0,,,53,100
29400,note_on,0,0,1,,,,,,,,,0,,,80,100
29400,note_on,0,0,4,,,,,,,,,0,,,65,0
29400,note_on,0,0,4,,,,,,,,,0,,,64,100
29400,note_on,0,0,4,,,,,,,,,0,,,52,100
29400,note_on,30,0,4,,,,,,,,,0,,,53,0
29400,note_on,0,0,1,,,,,,,,,0,,,68,100
29400,note_on,0,0,1,,,,,,,,,0,,,81,0
29400,note_on,30,0,1,,,,,,,,,0,,,69,0
29520,note_on,0,0,4,,,,,,,,,0,,,64,0
29520,note_on,0,0,1,,,,,,,,,0,,,80,0
29520,note_on,0,0,1,,,,,,,,,0,,,76,127
29520,note_on,0,0,1,,,,,,,,,0,,,73,127
29520,note_on,120,0,1,,,,,,,,,0,,,68,0
29520,note_on,120,0,4,,,,,,,,,0,,,52,0
29520,note_on,0,0,4,,,,,,,,,0,,,58,120
29520,note_on,0,0,1,,,,,,,,,0,,,85,127
29520,note_on,0,0,4,,,,,,,,,0,,,70,120
29550,note_on,0,0,4,,,,,,,,,0,,,57,100
29550,note_on,0,0,4,,,,,,,,,0,,,58,0
29550,note_on,30,0,4,,,,,,,,,0,,,70,0
29550,note_on,0,0,4,,,,,,,,,0,,,69,100
29580,note_on,0,0,4,,,,,,,,,0,,,55,100
29580,note_on,0,0,4,,,,,,,,,0,,,57,0
29580,note_on,0,0,4,,,,,,,,,0,,,67,100
29580,note_on,30,0,4,,,,,,,,,0,,,69,0
29610,note_on,0,0,4,,,,,,,,,0,,,64,100
29610,note_on,0,0,4,,,,,,,,,0,,,55,0
29610,note_on,30,0,4,,,,,,,,,0,,,67,0
29610,note_on,0,0,4,,,,,,,,,0,,,52,100
29640,note_on,120,0,1,,,,,,,,,0,,,76,0
29640,note_on,0,0,4,,,,,,,,,0,,,49,100
29640,note_on,0,0,4,,,,,,,,,0,,,52,0
29640,note_on,0,0,4,,,,,,,,,0,,,61,100
29640,note_on,30,0,4,,,,,,,,,0,,,64,0
29640,note_on,0,0,1,,,,,,,,,0,,,81,100
29670,note_on,30,0,4,,,,,,,,,0,,,61,0
29670,note_on,0,0,4,,,,,,,,,0,,,46,100
29670,note_on,0,0,4,,,,,,,,,0,,,58,100
29670,note_on,0,0,4,,,,,,,,,0,,,49,0
29700,note_on,0,0,1,,,,,,,,,0,,,85,0
29700,note_on,60,0,1,,,,,,,,,0,,,81,0
29700,note_on,0,0,4,,,,,,,,,0,,,45,100
29700,note_on,0,0,4,,,,,,,,,0,,,46,0
29700,note_on,0,0,1,,,,,,,,,0,,,86,100
29700,note_on,30,0,4,,,,,,,,,0,,,58,0
29700,note_on,0,0,4,,,,,,,,,0,,,57,100
29700,note_on,0,0,1,,,,,,,,,0,,,73,0
29700,note_on,0,0,1,,,,,,,,,0,,,74,100
29700,note_on,0,0,1,,,,,,,,,0,,,83,100
29730,note_on,0,0,1,,,,,,,,,0,,,86,0
29730,note_on,0,0,1,,,,,,,,,0,,,88,100
29730,note_on,0,0,1,,,,,,,,,0,,,76,100
29730,note_on,30,0,1,,,,,,,,,0,,,74,0
29730,note_on,30,0,4,,,,,,,,,0,,,57,0
29730,note_on,0,0,1,,,,,,,,,0,,,83,0
29730,note_on,0,0,1,,,,,,,,,0,,,84,100
29730,note_on,0,0,4,,,,,,,,,0,,,55,100
29760,note_on,30,0,4,,,,,,,,,0,,,55,0
29760,note_on,0,0,1,,,,,,,,,0,,,89,100
29760,note_on,0,0,4,,,,,,,,,0,,,50,100
29760,note_on,0,0,1,,,,,,,,,0,,,86,100
29760,note_on,0,0,1,,,,,,,,,0,,,84,0
29760,note_on,0,0,1,,,,,,,,,0,,,77,100
29760,note_on,0,0,4,,,,,,,,,0,,,53,100
29760,note_on,30,0,1,,,,,,,,,0,,,76,0
29760,note_on,0,0,1,,,,,,,,,0,,,88,0
29760,note_on,0,0,4,,,,,,,,,0,,,45,0
29790,note_on,30,0,1,,,,,,,,,0,,,77,0
29790,note_on,0,0,1,,,,,,,,,0,,,89,0
29790,note_on,0,0,1,,,,,,,,,0,,,91,101
29790,note_on,0,0,4,,,,,,,,,0,,,53,0
29790,note_on,0,0,4,,,,,,,,,0,,,49,101
29790,note_on,0,0,1,,,,,,,,,0,,,88,101
29790,note_on,30,0,4,,,,,,,,,0,,,50,0
29790,note_on,0,0,1,,,,,,,,,0,,,86,0
29790,note_on,0,0,4,,,,,,,,,0,,,52,101
29790,note_on,0,0,1,,,,,,,,,0,,,79,101
29820,note_on,30,0,1,,,,,,,,,0,,,79,0
29820,note_on,0,0,4,,,,,,,,,0,,,47,102
29820,note_on,0,0,4,,,,,,,,,0,,,50,102
29820,note_on,0,0,4,,,,,,,,,0,,,52,0
29820,note_on,0,0,1,,,,,,,,,0,,,93,102
29820,note_on,30,0,4,,,,,,,,,0,,,49,0
29820,note_on,0,0,1,,,,,,,,,0,,,81,102
29820,note_on,0,0,1,,,,,,,,,0,,,88,0
29820,note_on,0,0,1,,,,,,,,,0,,,91,0
29820,note_on,0,0,1,,,,,,,,,0,,,89,102
29850,note_on,0,0,1,,,,,,,,,0,,,89,0
29850,note_on,30,0,1,,,,,,,,,0,,,81,0
29850,note_on,0,0,1,,,,,,,,,0,,,83,104
29850,note_on,0,0,1,,,,,,,,,0,,,95,104
29850,note_on,0,0,1,,,,,,,,,0,,,91,104
29850,note_on,0,0,4,,,,,,,,,0,,,45,104
29850,note_on,0,0,4,,,,,,,,,0,,,49,104
29850,note_on,0,0,4,,,,,,,,,0,,,50,0
29850,note_on,0,0,1,,,,,,,,,0,,,93,0
29850,note_on,30,0,4,,,,,,,,,0,,,47,0
29880,note_on,0,0,1,,,,,,,,,0,,,85,105
29880,note_on,0,0,1,,,,,,,,,0,,,91,0
29880,note_on,0,0,1,,,,,,,,,0,,,93,105
29880,note_on,0,0,1,,,,,,,,,0,,,97,105
29880,note_on,30,0,1,,,,,,,,,0,,,83,0
29880,note_on,30,0,4,,,,,,,,,0,,,45,0
29880,note_on,0,0,1,,,,,,,,,0,,,95,0
29880,note_on,0,0,4,,,,,,,,,0,,,43,105
29880,note_on,0,0,4,,,,,,,,,0,,,47,105
29880,note_on,0,0,4,,,,,,,,,0,,,49,0
29910,note_on,0,0,1,,,,,,,,,0,,,97,0
29910,note_on,30,0,1,,,,,,,,,0,,,85,0
29910,note_on,0,0,1,,,,,,,,,0,,,95,107
29910,note_on,0,0,4,,,,,,,,,0,,,41,107
29910,note_on,0,0,4,,,,,,,,,0,,,45,107
29910,note_on,0,0,4,,,,,,,,,0,,,47,0
29910,note_on,0,0,1,,,,,,,,,0,,,93,0
29910,note_on,30,0,4,,,,,,,,,0,,,43,0
29910,note_on,0,0,1,,,,,,,,,0,,,86,107
29910,note_on,0,0,1,,,,,,,,,0,,,98,107
29940,note_on,30,0,4,,,,,,,,,0,,,41,0
29940,note_on,0,0,4,,,,,,,,,0,,,43,108
29940,note_on,0,0,1,,,,,,,,,0,,,98,0
29940,note_on,0,0,1,,,,,,,,,0,,,88,108
29940,note_on,0,0,1,,,,,,,,,0,,,95,0
29940,note_on,0,0,4,,,,,,,,,0,,,40,108
29940,note_on,30,0,1,,,,,,,,,0,,,86,0
29940,note_on,0,0,1,,,,,,,,,0,,,100,108
29940,note_on,0,0,4,,,,,,,,,0,,,45,0
29940,note_on,0,0,1,,,,,,,,,0,,,97,108
29970,note_on,30,0,1,,,,,,,,,0,,,88,0
29970,note_on,30,0,4,,,,,,,,,0,,,40,0
29970,note_on,0,0,4,,,,,,,,,0,,,43,0
29970,note_on,0,0,1,,,,,,,,,0,,,89,109
29970,note_on,0,0,4,,,,,,,,,0,,,41,109
29970,note_on,0,0,4,,,,,,,,,0,,,38,109
29970,note_on,0,0,1,,,,,,,,,0,,,97,0
29970,note_on,0,0,1,,,,,,,,,0,,,98,109
29970,note_on,0,0,1,,,,,,,,,0,,,100,0
29970,note_on,0,0,1,,,,,,,,,0,,,101,109
30000,note_on,30,0,1,,,,,,,,,0,,,89,0
30000,note_on,0,0,1,,,,,,,,,0,,,71,127
30000,note_on,0,0,1,,,,,,,,,0,,,74,127
30000,note_on,0,0,1,,,,,,,,,0,,,83,127
30000,note_on,0,0,1,,,,,,,,,0,,,98,0
30000,note_on,0,0,1,,,,,,,,,0,,,101,0
30000,note_on,0,0,4,,,,,,,,,0,,,68,127
30000,note_on,30,0,4,,,,,,,,,0,,,38,0
30000,note_on,0,0,4,,,,,,,,,0,,,41,0
30000,note_on,0,0,4,,,,,,,,,0,,,56,127
30030,note_on,0,0,4,,,,,,,,,0,,,55,100
30030,note_on,0,0,4,,,,,,,,,0,,,56,0
30030,note_on,0,0,4,,,,,,,,,0,,,67,100
30030,note_on,30,0,4,,,,,,,,,0,,,68,0
30060,note_on,30,0,4,,,,,,,,,0,,,67,0
30060,note_on,0,0,4,,,,,,,,,0,,,53,100
30060,note_on,0,0,4,,,,,,,,,0,,,55,0
30060,note_on,0,0,4,,,,,,,,,0,,,65,100
30090,note_on,30,0,4,,,,,,,,,0,,,65,0
30090,note_on,0,0,4,,,,,,,,,0,,,50,100
30090,note_on,0,0,4,,,,,,,,,0,,,53,0
30090,note_on,0,0,4,,,,,,,,,0,,,62,100
30120,note_on,30,0,4,,,,,,,,,0,,,62,0
30120,note_on,0,0,1,,,,,,,,,0,,,79,100
30120,note_on,0,0,4,,,,,,,,,0,,,50,0
30120,note_on,120,0,1,,,,,,,,,0,,,74,0
30120,note_on,0,0,4,,,,,,,,,0,,,59,100
30120,note_on,0,0,4,,,,,,,,,0,,,47,100
30150,note_on,0,0,4,,,,,,,,,0,,,56,100
30150,note_on,0,0,4,,,,,,,,,0,,,44,100
30150,note_on,30,0,4,,,,,,,,,0,,,59,0
30150,note_on,0,0,4,,,,,,,,,0,,,47,0
30180,note_on,30,0,4,,,,,,,,,0,,,56,0
30180,note_on,0,0,1,,,,,,,,,0,,,83,0
30180,note_on,0,0,1,,,,,,,,,0,,,71,0
30180,note_on,0,0,4,,,,,,,,,0,,,44,0
30180,note_on,0,0,1,,,,,,,,,0,,,72,100
30180,note_on,0,0,4,,,,,,,,,0,,,43,100
30180,note_on,0,0,1,,,,,,,,,0,,,84,100
30180,note_on,0,0,4,,,,,,,,,0,,,55,100
30180,note_on,0,0,1,,,,,,,,,0,,,81,100
30180,note_on,60,0,1,,,,,,,,,0,,,79,0
30210,note_on,0,0,4,,,,,,,,,0,,,53,100
30210,note_on,0,0,1,,,,,,,,,0,,,74,100
30210,note_on,0,0,1,,,,,,,,,0,,,83,100
30210,note_on,0,0,1,,,,,,,,,0,,,81,0
30210,note_on,0,0,1,,,,,,,,,0,,,84,0
30210,note_on,30,0,4,,,,,,,,,0,,,55,0
30210,note_on,30,0,1,,,,,,,,,0,,,72,0
30210,note_on,0,0,1,,,,,,,,,0,,,86,100
30240,note_on,0,0,1,,,,,,,,,0,,,83,0
30240,note_on,0,0,4,,,,,,,,,0,,,48,100
30240,note_on,0,0,4,,,,,,,,,0,,,43,0
30240,note_on,30,0,1,,,,,,,,,0,,,74,0
30240,note_on,0,0,1,,,,,,,,,0,,,88,100
30240,note_on,0,0,1,,,,,,,,,0,,,76,100
30240,note_on,0,0,1,,,,,,,,,0,,,86,0
30240,note_on,0,0,1,,,,,,,,,0,,,84,100
30240,note_on,0,0,4,,,,,,,,,0,,,52,100
30240,note_on,30,0,4,,,,,,,,,0,,,53,0
30270,note_on,0,0,1,,,,,,,,,0,,,84,0
30270,note_on,0,0,1,,,,,,,,,0,,,86,101
30270,note_on,30,0,4,,,,,,,,,0,,,48,0
30270,note_on,0,0,1,,,,,,,,,0,,,88,0
30270,note_on,0,0,1,,,,,,,,,0,,,77,101
30270,note_on,0,0,1,,,,,,,,,0,,,89,101
30270,note_on,0,0,4,,,,,,,,,0,,,52,0
30270,note_on,0,0,4,,,,,,,,,0,,,50,101
30270,note_on,30,0,1,,,,,,,,,0,,,76,0
30270,note_on,0,0,4,,,,,,,,,0,,,47,101
30300,note_on,0,0,1,,,,,,,,,0,,,86,0
30300,note_on,0,0,1,,,,,,,,,0,,,88,102
30300,note_on,0,0,1,,,,,,,,,0,,,89,0
30300,note_on,0,0,1,,,,,,,,,0,,,79,102
30300,note_on,0,0,4,,,,,,,,,0,,,50,0
30300,note_on,0,0,4,,,,,,,,,0,,,48,102
30300,note_on,0,0,4,,,,,,,,,0,,,45,102
30300,note_on,30,0,4,,,,,,,,,0,,,47,0
30300,note_on,30,0,1,,,,,,,,,0,,,77,0
30300,note_on,0,0,1,,,,,,,,,0,,,91,102
30330,note_on,0,0,1,,,,,,,,,0,,,93,104
30330,note_on,0,0,1,,,,,,,,,0,,,88,0
30330,note_on,30,0,4,,,,,,,,,0,,,45,0
30330,note_on,0,0,1,,,,,,,,,0,,,81,104
30330,note_on,0,0,1,,,,,,,,,0,,,89,104
30330,note_on,0,0,4,,,,,,,,,0,,,48,0
30330,note_on,0,0,4,,,,,,,,,0,,,47,104
30330,note_on,0,0,4,,,,,,,,,0,,,43,104
30330,note_on,30,0,1,,,,,,,,,0,,,79,0
30330,note_on,0,0,1,,,,,,,,,0,,,91,0
30360,note_on,30,0,1,,,,,,,,,0,,,81,0
30360,note_on,0,0,1,,,,,,,,,0,,,95,105
30360,note_on,0,0,1,,,,,,,,,0,,,93,0
30360,note_on,0,0,1,,,,,,,,,0,,,91,105
30360,note_on,0,0,1,,,,,,,,,0,,,89,0
30360,note_on,0,0,1,,,,,,,,,0,,,83,105
30360,note_on,0,0,4,,,,,,,,,0,,,41,105
30360,note_on,30,0,4,,,,,,,,,0,,,43,0
30360,note_on,0,0,4,,,,,,,,,0,,,47,0
30360,note_on,0,0,4,,,,,,,,,0,,,45,105
30390,note_on,0,0,1,,,,,,,,,0,,,95,0
30390,note_on,30,0,1,,,,,,,,,0,,,83,0
30390,note_on,30,0,4,,,,,,,,,0,,,41,0
30390,note_on,0,0,1,,,,,,,,,0,,,93,107
30390,note_on,0,0,1,,,,,,,,,0,,,84,107
30390,note_on,0,0,4,,,,,,,,,0,,,40,107
30390,note_on,0,0,4,,,,,,,,,0,,,43,107
30390,note_on,0,0,4,,,,,,,,,0,,,45,0
30390,note_on,0,0,1,,,,,,,,,0,,,91,0
30390,note_on,0,0,1,,,,,,,,,0,,,96,107
30420,note_on,30,0,4,,,,,,,,,0,,,40,0
30420,note_on,0,0,4,,,,,,,,,0,,,43,0
30420,note_on,30,0,1,,,,,,,,,0,,,84,0
30420,note_on,0,0,4,,,,,,,,,0,,,41,108
30420,note_on,0,0,1,,,,,,,,,0,,,86,108
30420,note_on,0,0,1,,,,,,,,,0,,,93,0
30420,note_on,0,0,1,,,,,,,,,0,,,95,108
30420,note_on,0,0,1,,,,,,,,,0,,,96,0
30420,note_on,0,0,1,,,,,,,,,0,,,98,108
30420,note_on,0,0,4,,,,,,,,,0,,,38,108
30450,note_on,0,0,4,,,,,,,,,0,,,36,109
30450,note_on,0,0,4,,,,,,,,,0,,,40,109
30450,note_on,0,0,4,,,,,,,,,0,,,41,0
30450,note_on,0,0,1,,,,,,,,,0,,,98,0
30450,note_on,0,0,1,,,,,,,,,0,,,96,109
30450,note_on,0,0,1,,,,,,,,,0,,,95,0
30450,note_on,0,0,1,,,,,,,,,0,,,88,109
30450,note_on,30,0,1,,,,,,,,,0,,,86,0
30450,note_on,30,0,4,,,,,,,,,0,,,38,0
30450,note_on,0,0,1,,,,,,,,,0,,,100,109
30480,note_on,0,0,4,,,,,,,,,0,,,50,110
30480,note_on,0,0,4,,,,,,,,,0,,,47,110
30480,note_on,0,0,1,,,,,,,,,0,,,96,0
30480,note_on,0,0,4,,,,,,,,,0,,,44,110
30480,note_on,0,0,4,,,,,,,,,0,,,40,0
30480,note_on,0,0,4,,,,,,,,,0,,,38,110
30480,note_on,30,0,4,,,,,,,,,0,,,36,0
30480,note_on,0,0,1,,,,,,,,,0,,,89,110
30480,note_on,0,0,1,,,,,,,,,0,,,92,110
30480,note_on,30,0,1,,,,,,,,,0,,,88,0
30480,note_on,0,0,1,,,,,,,,,0,,,101,110
30480,note_on,0,0,1,,,,,,,,,0,,,100,0
30480,note_on,0,0,1,,,,,,,,,0,,,95,110
30510,note_on,30,0,1,,,,,,,,,0,,,89,0
30510,note_on,0,0,4,,,,,,,,,0,,,47,0
30510,note_on,0,0,4,,,,,,,,,0,,,44,0
30510,note_on,0,0,4,,,,,,,,,0,,,41,110
30510,note_on,0,0,1,,,,,,,,,0,,,86,110
30510,note_on,0,0,1,,,,,,,,,0,,,92,0
30510,note_on,0,0,1,,,,,,,,,0,,,95,0
30510,note_on,0,0,1,,,,,,,,,0,,,98,110
30510,note_on,0,0,1,,,,,,,,,0,,,101,0
30510,note_on,30,0,4,,,,,,,,,0,,,38,0
30510,note_on,0,0,4,,,,,,,,,0,,,50,0
30510,note_on,0,0,4,,,,,,,,,0,,,53,110
30540,note_on,0,0,1,,,,,,,,,0,,,98,0
30540,note_on,0,0,4,,,,,,,,,0,,,53,0
30540,note_on,0,0,1,,,,,,,,,0,,,83,110
30540,note_on,0,0,1,,,,,,,,,0,,,95,110
30540,note_on,0,0,4,,,,,,,,,0,,,44,110
30540,note_on,30,0,1,,,,,,,,,0,,,86,0
30540,note_on,30,0,4,,,,,,,,,0,,,41,0
30540,note_on,0,0,4,,,,,,,,,0,,,56,110
30570,note_on,30,0,1,,,,,,,,,0,,,83,0
30570,note_on,0,0,1,,,,,,,,,0,,,95,0
30570,note_on,0,0,4,,,,,,,,,0,,,56,0
30570,note_on,30,0,4,,,,,,,,,0,,,44,0
30570,note_on,0,0,1,,,,,,,,,0,,,80,110
30570,note_on,0,0,4,,,,,,,,,0,,,47,110
30570,note_on,0,0,1,,,,,,,,,0,,,92,110
30570,note_on,0,0,4,,,,,,,,,0,,,59,110
30600,note_on,0,0,1,,,,,,,,,0,,,92,0
30600,note_on,0,0,1,,,,,,,,,0,,,89,127
30600,note_on,0,0,1,,,,,,,,,0,,,83,127
30600,note_on,0,0,1,,,,,,,,,0,,,77,127
30600,note_on,30,0,4,,,,,,,,,0,,,47,0
30600,note_on,0,0,1,,,,,,,,,0,,,80,127
30600,note_on,0,0,4,,,,,,,,,0,,,50,127
30600,note_on,30,0,1,,,,,,,,,0,,,80,0
30600,note_on,0,0,4,,,,,,,,,0,,,56,127
30600,note_on,0,0,4,,,,,,,,,0,,,59,0
30600,note_on,0,0,4,,,,,,,,,0,,,59,127
30600,note_on,0,0,4,,,,,,,,,0,,,62,127
30630,note_on,30,0,1,,,,,,,,,0,,,77,0
30630,note_on,0,0,4,,,,,,,,,0,,,59,0
30630,note_on,0,0,4,,,,,,,,,0,,,62,0
30630,note_on,0,0,4,,,,,,,,,0,,,63,110
30630,note_on,30,0,4,,,,,,,,,0,,,50,0
30630,note_on,0,0,4,,,,,,,,,0,,,51,110
30630,note_on,0,0,1,,,,,,,,,0,,,75,110
30630,note_on,0,0,4,,,,,,,,,0,,,56,0
30630,note_on,0,0,1,,,,,,,,,0,,,80,0
30630,note_on,0,0,1,,,,,,,,,0,,,83,0
30630,note_on,0,0,1,,,,,,,,,0,,,87,110
30630,note_on,0,0,1,,,,,,,,,0,,,89,0
30660,note_on,30,0,4,,,,,,,,,0,,,51,0
30660,note_on,30,0,1,,,,,,,,,0,,,75,0
30660,note_on,0,0,1,,,,,,,,,0,,,76,110
30660,note_on,0,0,4,,,,,,,,,0,,,63,0
30660,note_on,0,0,4,,,,,,,,,0,,,64,110
30660,note_on,0,0,1,,,,,,,,,0,,,87,0
30660,note_on,0,0,1,,,,,,,,,0,,,88,110
30660,note_on,0,0,4,,,,,,,,,0,,,52,110
30690,note_on,0,0,1,,,,,,,,,0,,,74,110
30690,note_on,0,0,4,,,,,,,,,0,,,53,110
30690,note_on,0,0,1,,,,,,,,,0,,,88,0
30690,note_on,30,0,4,,,,,,,,,0,,,52,0
30690,note_on,0,0,1,,,,,,,,,0,,,86,110
30690,note_on,0,0,4,,,,,,,,,0,,,65,110
30690,note_on,0,0,4,,,,,,,,,0,,,64,0
30690,note_on,30,0,1,,,,,,,,,0,,,76,0
30720,note_on,0,0,1,,,,,,,,,0,,,96,110
30720,note_on,30,0,4,,,,,,,,,0,,,53,0
30720,note_on,0,0,1,,,,,,,,,0,,,90,110
30720,note_on,0,0,1,,,,,,,,,0,,,87,110
30720,note_on,0,0,1,,,,,,,,,0,,,86,0
30720,note_on,0,0,1,,,,,,,,,0,,,84,110
30720,note_on,30,0,1,,,,,,,,,0,,,74,0
30720,note_on,0,0,4,,,,,,,,,0,,,45,110
30720,note_on,0,0,4,,,,,,,,,0,,,42,110
30720,note_on,0,0,4,,,,,,,,,0,,,39,110
30720,note_on,0,0,4,,,,,,,,,0,,,33,110
30720,note_on,0,0,4,,,,,,,,,0,,,65,0
30750,note_on,0,0,4,,,,,,,,,0,,,36,110
30750,note_on,30,0,1,,,,,,,,,0,,,84,0
30750,note_on,30,0,4,,,,,,,,,0,,,33,0
30750,note_on,0,0,4,,,,,,,,,0,,,48,110
30750,note_on,0,0,4,,,,,,,,,0,,,45,0
30750,note_on,0,0,4,,,,,,,,,0,,,42,0
30750,note_on,0,0,1,,,,,,,,,0,,,90,0
30750,note_on,0,0,1,,,,,,,,,0,,,87,0
30750,note_on,0,0,1,,,,,,,,,0,,,81,110
30750,note_on,0,0,1,,,,,,,,,0,,,93,110
30750,note_on,0,0,1,,,,,,,,,0,,,96,0
30750,note_on,0,0,4,,,,,,,,,0,,,39,0
30780,note_on,0,0,4,,,,,,,,,0,,,39,110
30780,note_on,0,0,4,,,,,,,,,0,,,48,0
30780,note_on,30,0,4,,,,,,,,,0,,,36,0
30780,note_on,30,0,1,,,,,,,,,0,,,81,0
30780,note_on,0,0,4,,,,,,,,,0,,,51,110
30780,note_on,0,0,1,,,,,,,,,0,,,78,110
30780,note_on,0,0,1,,,,,,,,,0,,,90,110
30780,note_on,0,0,1,,,,,,,,,0,,,93,0
30810,note_on,0,0,1,,,,,,,,,0,,,87,110
30810,note_on,30,0,4,,,,,,,,,0,,,39,0
30810,note_on,0,0,4,,,,,,,,,0,,,42,110
30810,note_on,0,0,4,,,,,,,,,0,,,54,110
30810,note_on,0,0,4,,,,,,,,,0,,,51,0
30810,note_on,0,0,1,,,,,,,,,0,,,90,0
30810,note_on,0,0,1,,,,,,,,,0,,,75,110
30810,note_on,30,0,1,,,,,,,,,0,,,78,0
30840,note_on,0,0,1,,,,,,,,,0,,,87,0
30840,note_on,0,0,1,,,,,,,,,0,,,75,127
30840,note_on,0,0,1,,,,,,,,,0,,,78,127
30840,note_on,0,0,1,,,,,,,,,0,,,84,127
30840,note_on,0,0,1,,,,,,,,,0,,,72,127
30840,note_on,0,0,4,,,,,,,,,0,,,51,127
30840,note_on,30,0,4,,,,,,,,,0,,,42,0
30840,note_on,0,0,4,,,,,,,,,0,,,54,127
30840,note_on,0,0,4,,,,,,,,,0,,,54,0
30840,note_on,0,0,4,,,,,,,,,0,,,45,127
30840,note_on,30,0,1,,,,,,,,,0,,,75,0
30840,note_on,0,0,4,,,,,,,,,0,,,57,127
30870,note_on,0,0,1,,,,,,,,,0,,,70,110
30870,note_on,0,0,4,,,,,,,,,0,,,58,110
30870,note_on,0,0,1,,,,,,,,,0,,,75,0
30870,note_on,0,0,4,,,,,,,,,0,,,57,0
30870,note_on,0,0,4,,,,,,,,,0,,,54,0
30870,note_on,0,0,1,,,,,,,,,0,,,84,0
30870,note_on,0,0,4,,,,,,,,,0,,,46,110
30870,note_on,0,0,4,,,,,,,,,0,,,51,0
30870,note_on,0,0,1,,,,,,,,,0,,,78,0
30870,note_on,30,0,1,,,,,,,,,0,,,72,0
30870,note_on,30,0,4,,,,,,,,,0,,,45,0
30870,note_on,0,0,1,,,,,,,,,0,,,82,110
30900,note_on,0,0,4,,,,,,,,,0,,,47,110
30900,note_on,0,0,4,,,,,,,,,0,,,58,0
30900,note_on,0,0,4,,,,,,,,,0,,,59,110
30900,note_on,30,0,1,,,,,,,,,0,,,70,0
30900,note_on,30,0,4,,,,,,,,,0,,,46,0
30900,note_on,0,0,1,,,,,,,,,0,,,82,0
30900,note_on,0,0,1,,,,,,,,,0,,,83,110
30900,note_on,0,0,1,,,,,,,,,0,,,71,110
30930,note_on,0,0,4,,,,,,,,,0,,,60,110
30930,note_on,0,0,1,,,,,,,,,0,,,83,0
30930,note_on,0,0,1,,,,,,,,,0,,,79,110
30930,note_on,0,0,1,,,,,,,,,0,,,67,110
30930,note_on,0,0,4,,,,,,,,,0,,,59,0
30930,note_on,30,0,1,,,,,,,,,0,,,71,0
30930,note_on,30,0,4,,,,,,,,,0,,,47,0
30930,note_on,0,0,4,,,,,,,,,0,,,48,110
30960,note_on,0,0,4,,,,,,,,,0,,,57,127
30960,note_on,0,0,4,,,,,,,,,0,,,59,127
30960,note_on,0,0,4,,,,,,,,,0,,,50,127
30960,note_on,0,0,4,,,,,,,,,0,,,60,0
30960,note_on,30,0,1,,,,,,,,,0,,,67,0
30960,note_on,0,0,1,,,,,,,,,0,,,77,127
30960,note_on,0,0,1,,,,,,,,,0,,,79,0
30960,note_on,0,0,1,,,,,,,,,0,,,71,127
30960,note_on,0,0,1,,,,,,,,,0,,,69,127
30960,note_on,0,0,1,,,,,,,,,0,,,65,127
30960,note_on,30,0,4,,,,,,,,,0,,,48,0
30990,note_on,0,0,1,,,,,,,,,0,,,77,0
30990,note_on,0,0,4,,,,,,,,,0,,,59,0
30990,note_on,0,0,1,,,,,,,,,0,,,63,110
30990,note_on,0,0,1,,,,,,,,,0,,,75,110
30990,note_on,30,0,1,,,,,,,,,0,,,65,0
30990,note_on,0,0,1,,,,,,,,,0,,,71,0
30990,note_on,0,0,1,,,,,,,,,0,,,69,0
30990,note_on,30,0,4,,,,,,,,,0,,,50,0
30990,note_on,0,0,4,,,,,,,,,0,,,57,0
30990,note_on,0,0,4,,,,,,,,,0,,,51,110
31020,note_on,0,0,4,,,,,,,,,0,,,52,110
31020,note_on,30,0,1,,,,,,,,,0,,,63,0
31020,note_on,0,0,1,,,,,,,,,0,,,76,110
31020,note_on,0,0,1,,,,,,,,,0,,,75,0
31020,note_on,0,0,1,,,,,,,,,0,,,64,110
31020,note_on,30,0,4,,,,,,,,,0,,,51,0
31050,note_on,0,0,4,,,,,,,,,0,,,53,110
31050,note_on,0,0,1,,,,,,,,,0,,,76,0
31050,note_on,30,0,4,,,,,,,,,0,,,52,0
31050,note_on,30,0,1,,,,,,,,,0,,,64,0
31050,note_on,0,0,1,,,,,,,,,0,,,74,110
31050,note_on,0,0,1,,,,,,,,,0,,,62,110
31080,note_on,30,0,4,,,,,,,,,0,,,53,0
31080,note_on,30,0,1,,,,,,,,,0,,,62,0
31080,note_on,0,0,4,,,,,,,,,0,,,52,127
31080,note_on,0,0,4,,,,,,,,,0,,,64,127
31080,note_on,0,0,4,,,,,,,,,0,,,56,127
31080,note_on,0,0,1,,,,,,,,,0,,,61,127
31080,note_on,0,0,1,,,,,,,,,0,,,74,0
31080,note_on,0,0,1,,,,,,,,,0,,,73,127
31110,note_on,30,0,1,,,,,,,,,0,,,61,0
31110,note_on,0,0,1,,,,,,,,,0,,,73,0
31110,note_on,0,0,1,,,,,,,,,0,,,59,110
31110,note_on,0,0,1,,,,,,,,,0,,,71,110
31140,note_on,0,0,1,,,,,,,,,0,,,71,0
31140,note_on,0,0,1,,,,,,,,,0,,,60,127
31140,note_on,30,0,1,,,,,,,,,0,,,59,0
31140,note_on,0,0,4,,,,,,,,,0,,,56,127
31140,note_on,60,0,4,,,,,,,,,0,,,52,0
31140,note_on,0,0,1,,,,,,,,,0,,,72,127
31140,note_on,0,0,4,,,,,,,,,0,,,64,0
31140,note_on,0,0,4,,,,,,,,,0,,,52,127
31140,note_on,0,0,4,,,,,,,,,0,,,56,0
31140,note_on,0,0,4,,,,,,,,,0,,,62,127
31170,note_on,30,0,1,,,,,,,,,0,,,60,0
31170,note_on,0,0,1,,,,,,,,,0,,,59,110
31170,note_on,0,0,1,,,,,,,,,0,,,71,110
31170,note_on,0,0,1,,,,,,,,,0,,,72,0
31200,note_on,0,0,4,,,,,,,,,0,,,56,0
31200,note_on,0,0,4,,,,,,,,,0,,,53,127
31200,note_on,0,0,4,,,,,,,,,0,,,52,0
31200,note_on,0,0,4,,,,,,,,,0,,,50,127
31200,note_on,0,0,4,,,,,,,,,0,,,45,110
31200,note_on,0,0,1,,,,,,,,,0,,,69,110
31200,note_on,60,0,4,,,,,,,,,0,,,62,0
31200,note_on,0,0,1,,,,,,,,,0,,,71,0
31200,note_on,0,0,1,,,,,,,,,0,,,57,110
31200,note_on,0,0,1,,,,,,,,,0,,,62,127
31200,note_on,0,0,1,,,,,,,,,0,,,65,127
31200,note_on,30,0,1,,,,,,,,,0,,,59,0
31320,note_on,0,0,4,,,,,,,,,0,,,48,110
31320,note_on,0,0,1,,,,,,,,,0,,,60,110
31320,note_on,0,0,1,,,,,,,,,0,,,64,110
31320,note_on,0,0,4,,,,,,,,,0,,,52,110
31320,note_on,0,0,4,,,,,,,,,0,,,53,0
31320,note_on,120,0,1,,,,,,,,,0,,,65,0
31320,note_on,120,0,4,,,,,,,,,0,,,50,0
31320,note_on,0,0,1,,,,,,,,,0,,,62,0
31380,note_on,60,0,4,,,,,,,,,0,,,48,0
31380,note_on,0,0,1,,,,,,,,,0,,,60,0
31380,note_on,0,0,1,,,,,,,,,0,,,69,0
31380,note_on,0,0,4,,,,,,,,,0,,,45,0
31380,note_on,0,0,4,,,,,,,,,0,,,52,0
31380,set_tempo,3780,1,0,,,,,,3000000,,,,,,,
31380,note_on,60,0,1,,,,,,,,,0,,,64,0
31380,note_on,0,0,1,,,,,,,,,0,,,57,0
31440,note_on,60,0,1,,,,,,,,,0,,,88,60
31440,note_on,60,0,4,,,,,,,,,0,,,64,60
31440,set_tempo,60,1,0,,,,,,434783,,,,,,,
31440,marker,0,1,0,,,,,,,,,,,,,
31460,note_on,0,0,1,,,,,,,,,0,,,89,60
31460,note_on,0,0,4,,,,,,,,,0,,,65,60
31460,note_on,20,0,4,,,,,,,,,0,,,64,0
31460,note_on,20,0,1,,,,,,,,,0,,,88,0
31480,note_on,0,0,1,,,,,,,,,0,,,88,60
31480,note_on,0,0,4,,,,,,,,,0,,,64,60
31480,note_on,20,0,4,,,,,,,,,0,,,65,0
31480,note_on,20,0,1,,,,,,,,,0,,,89,0
31500,note_on,0,0,1,,,,,,,,,0,,,84,80
31500,note_on,0,0,4,,,,,,,,,0,,,60,80
31500,note_on,20,0,4,,,,,,,,,0,,,64,0
31500,note_on,20,0,1,,,,,,,,,0,,,88,0
31560,note_on,0,0,4,,,,,,,,,0,,,52,60
31560,note_on,60,0,1,,,,,,,,,0,,,72,60
31560,note_on,60,0,4,,,,,,,,,0,,,45,60
31560,note_on,0,0,1,,,,,,,,,0,,,76,60
31575,note_on,15,0,4,,,,,,,,,0,,,52,0
31575,note_on,15,0,1,,,,,,,,,0,,,76,0
31575,note_on,0,0,1,,,,,,,,,0,,,72,0
31575,note_on,0,0,4,,,,,,,,,0,,,45,0
31620,note_on,45,0,4,,,,,,,,,0,,,60,0
31620,note_on,0,0,1,,,,,,,,,0,,,81,60
31620,note_on,45,0,1,,,,,,,,,0,,,84,0
31620,note_on,0,0,4,,,,,,,,,0,,,57,60
31640,note_on,20,0,4,,,,,,,,,0,,,57,0
31640,note_on,0,0,4,,,,,,,,,0,,,59,60
31640,note_on,20,0,1,,,,,,,,,0,,,81,0
31640,note_on,0,0,1,,,,,,,,,0,,,83,60
31660,note_on,0,0,4,,,,,,,,,0,,,57,60
31660,note_on,20,0,1,,,,,,,,,0,,,83,0
31660,note_on,0,0,1,,,,,,,,,0,,,81,60
31660,note_on,20,0,4,,,,,,,,,0,,,59,0
31680,note_on,0,0,4,,,,,,,,,0,,,59,60
31680,note_on,0,0,1,,,,,,,,,0,,,83,60
31680,note_on,20,0,4,,,,,,,,,0,,,57,0
31680,note_on,20,0,1,,,,,,,,,0,,,81,0
31700,note_on,0,0,4,,,,,,,,,0,,,60,60
31700,note_on,0,0,1,,,,,,,,,0,,,84,60
31700,note_on,20,0,4,,,,,,,,,0,,,59,0
31700,note_on,20,0,1,,,,,,,,,0,,,83,0
31720,note_on,20,0,4,,,,,,,,,0,,,60,0
31720,note_on,0,0,1,,,,,,,,,0,,,83,60
31720,note_on,0,0,4,,,,,,,,,0,,,59,60
31720,note_on,20,0,1,,,,,,,,,0,,,84,0
31740,note_on,20,0,4,,,,,,,,,0,,,59,0
31740,note_on,0,0,4,,,,,,,,,0,,,56,60
31740,note_on,20,0,1,,,,,,,,,0,,,83,0
31740,note_on,0,0,1,,,,,,,,,0,,,80,60
31760,note_on,20,0,4,,,,,,,,,0,,,56,0
31760,note_on,0,0,1,,,,,,,,,0,,,81,60
31760,note_on,20,0,1,,,,,,,,,0,,,80,0
31760,note_on,0,0,4,,,,,,,,,0,,,57,60
31780,note_on,0,0,1,,,,,,,,,0,,,80,60
31780,note_on,20,0,4,,,,,,,,,0,,,57,0
31780,note_on,0,0,4,,,,,,,,,0,,,56,60
31780,note_on,20,0,1,,,,,,,,,0,,,81,0
31800,note_on,20,0,1,,,,,,,,,0,,,80,0
31800,note_on,0,0,4,,,,,,,,,0,,,52,60
31800,note_on,20,0,4,,,,,,,,,0,,,56,0
31800,note_on,0,0,1,,,,,,,,,0,,,76,60
31820,note_on,20,0,4,,,,,,,,,0,,,52,0
31820,note_on,20,0,1,,,,,,,,,0,,,76,0
31820,note_on,0,0,1,,,,,,,,,0,,,77,60
31820,note_on,0,0,4,,,,,,,,,0,,,53,60
31840,note_on,20,0,4,,,,,,,,,0,,,53,0
31840,note_on,0,0,4,,,,,,,,,0,,,52,60
31840,note_on,20,0,1,,,,,,,,,0,,,77,0
31840,note_on,0,0,1,,,,,,,,,0,,,76,60
31860,note_on,20,0,4,,,,,,,,,0,,,52,0
31860,note_on,20,0,1,,,,,,,,,0,,,76,0
31860,note_on,0,0,4,,,,,,,,,0,,,45,60
31860,note_on,0,0,4,,,,,,,,,0,,,55,60
31860,note_on,0,0,1,,,,,,,,,0,,,71,60
31860,note_on,0,0,1,,,,,,,,,0,,,62,60
31860,note_on,0,0,1,,,,,,,,,0,,,64,60
31920,note_on,0,0,1,,,,,,,,,0,,,62,0
31920,note_on,60,0,4,,,,,,,,,0,,,45,0
31920,note_on,0,0,1,,,,,,,,,0,,,88,60
31920,note_on,60,0,1,,,,,,,,,0,,,71,0
31920,note_on,0,0,1,,,,,,,,,0,,,64,0
31920,note_on,0,0,4,,,,,,,,,0,,,64,60
31920,note_on,0,0,4,,,,,,,,,0,,,55,0
31940,note_on,20,0,1,,,,,,,,,0,,,88,0
31940,note_on,0,0,1,,,,,,,,,0,,,89,60
31940,note_on,20,0,4,,,,,,,,,0,,,64,0
31940,note_on,0,0,4,,,,,,,,,0,,,65,60
31960,note_on,20,0,1,,,,,,,,,0,,,89,0
31960,note_on,0,0,1,,,,,,,,,0,,,88,60
31960,note_on,20,0,4,,,,,,,,,0,,,65,0
31960,note_on,0,0,4,,,,,,,,,0,,,64,60
31980,note_on,0,0,4,,,,,,,,,0,,,60,80
31980,note_on,0,0,1,,,,,,,,,0,,,84,80
31980,note_on,20,0,1,,,,,,,,,0,,,88,0
31980,note_on,20,0,4,,,,,,,,,0,,,64,0
32040,note_on,60,0,4,,,,,,,,,0,,,45,60
32040,note_on,0,0,1,,,,,,,,,0,,,76,60
32040,note_on,0,0,4,,,,,,,,,0,,,52,60
32040,note_on,60,0,1,,,,,,,,,0,,,72,60
32055,note_on,15,0,1,,,,,,,,,0,,,76,0
32055,note_on,0,0,4,,,,,,,,,0,,,45,0
32055,note_on,0,0,1,,,,,,,,,0,,,72,0
32055,note_on,15,0,4,,,,,,,,,0,,,52,0
32100,note_on,45,0,1,,,,,,,,,0,,,84,0
32100,note_on,0,0,1,,,,,,,,,0,,,60,60
32100,note_on,0,0,1,,,,,,,,,0,,,64,60
32100,note_on,0,0,4,,,,,,,,,0,,,57,60
32100,note_on,45,0,4,,,,,,,,,0,,,60,0
32120,note_on,20,0,4,,,,,,,,,0,,,57,0
32120,note_on,0,0,4,,,,,,,,,0,,,59,63
32120,note_on,0,0,1,,,,,,,,,0,,,62,63
32120,note_on,20,0,1,,,,,,,,,0,,,60,0
32140,note_on,0,0,1,,,,,,,,,0,,,60,67
32140,note_on,20,0,1,,,,,,,,,0,,,62,0
32140,note_on,0,0,4,,,,,,,,,0,,,57,67
32140,note_on,20,0,4,,,,,,,,,0,,,59,0
32160,note_on,20,0,4,,,,,,,,,0,,,57,0
32160,note_on,0,0,1,,,,,,,,,0,,,64,71
32160,note_on,0,0,1,,,,,,,,,0,,,64,0
32160,note_on,0,0,4,,,,,,,,,0,,,56,71
32160,note_on,20,0,1,,,,,,,,,0,,,60,0
32160,note_on,0,0,1,,,,,,,,,0,,,59,71
32180,note_on,0,0,1,,,,,,,,,0,,,60,75
32180,note_on,20,0,4,,,,,,,,,0,,,56,0
32180,note_on,20,0,1,,,,,,,,,0,,,59,0
32180,note_on,0,0,4,,,,,,,,,0,,,57,75
32200,note_on,0,0,4,,,,,,,,,0,,,55,79
32200,note_on,0,0,1,,,,,,,,,0,,,59,79
32200,note_on,20,0,4,,,,,,,,,0,,,57,0
32200,note_on,20,0,1,,,,,,,,,0,,,60,0
32220,note_on,20,0,1,,,,,,,,,0,,,59,0
32220,note_on,0,0,1,,,,,,,,,0,,,63,83
32220,note_on,20,0,4,,,,,,,,,0,,,55,0
32220,note_on,0,0,1,,,,,,,,,0,,,64,0
32220,note_on,0,0,4,,,,,,,,,0,,,54,83
32220,note_on,0,0,1,,,,,,,,,0,,,69,83
32240,note_on,20,0,4,,,,,,,,,0,,,54,0
32240,note_on,20,0,1,,,,,,,,,0,,,69,0
32240,note_on,0,0,4,,,,,,,,,0,,,55,87
32240,note_on,0,0,1,,,,,,,,,0,,,71,87
32260,note_on,0,0,4,,,,,,,,,0,,,53,91
32260,note_on,20,0,4,,,,,,,,,0,,,55,0
32260,note_on,20,0,1,,,,,,,,,0,,,71,0
32260,note_on,0,0,1,,,,,,,,,0,,,69,91
32280,note_on,20,0,4,,,,,,,,,0,,,53,0
32280,note_on,0,0,1,,,,,,,,,0,,,63,0
32280,note_on,0,0,1,,,,,,,,,0,,,64,95
32280,note_on,0,0,1,,,,,,,,,0,,,68,95
32280,note_on,0,0,4,,,,,,,,,0,,,52,95
32280,note_on,20,0,1,,,,,,,,,0,,,69,0
32300,note_on,0,0,4,,,,,,,,,0,,,53,99
32300,note_on,20,0,4,,,,,,,,,0,,,52,0
32300,note_on,20,0,1,,,,,,,,,0,,,68,0
32300,note_on,0,0,1,,,,,,,,,0,,,69,99
32320,note_on,20,0,4,,,,,,,,,0,,,53,0
32320,note_on,20,0,1,,,,,,,,,0,,,69,0
32320,note_on,0,0,1,,,,,,,,,0,,,68,100
32320,note_on,0,0,4,,,,,,,,,0,,,52,100
32340,note_on,0,0,4,,,,,,,,,0,,,40,100
32340,note_on,20,0,4,,,,,,,,,0,,,52,0
32340,note_on,20,0,1,,,,,,,,,0,,,68,0
32340,note_on,0,0,1,,,,,,,,,0,,,64,0
32355,note_on,15,0,4,,,,,,,,,0,,,40,0
32400,note_on,45,0,4,,,,,,,,,0,,,64,60
32400,note_on,60,0,1,,,,,,,,,0,,,88,60
32420,note_on,20,0,1,,,,,,,,,0,,,88,0
32420,note_on,0,0,1,,,,,,,,,0,,,89,60
32420,note_on,0,0,4,,,,,,,,,0,,,65,60
32420,note_on,20,0,4,,,,,,,,,0,,,64,0
32440,note_on,20,0,4,,,,,,,,,0,,,65,0
32440,note_on,0,0,1,,,,,,,,,0,,,88,60
32440,note_on,0,0,4,,,,,,,,,0,,,64,60
32440,note_on,20,0,1,,,,,,,,,0,,,89,0
32460,note_on,0,0,4,,,,,,,,,0,,,61,80
32460,note_on,20,0,4,,,,,,,,,0,,,64,0
32460,note_on,20,0,1,,,,,,,,,0,,,88,0
32460,note_on,0,0,1,,,,,,,,,0,,,85,80
32520,note_on,0,0,4,,,,,,,,,0,,,55,60
32520,note_on,0,0,1,,,,,,,,,0,,,73,60
32520,note_on,60,0,1,,,,,,,,,0,,,76,60
32520,note_on,60,0,4,,,,,,,,,0,,,45,60
32520,note_on,0,0,4,,,,,,,,,0,,,59,60
32535,note_on,0,0,4,,,,,,,,,0,,,45,0
32535,note_on,15,0,1,,,,,,,,,0,,,73,0
32535,note_on,15,0,4,,,,,,,,,0,,,59,0
32535,note_on,0,0,4,,,,,,,,,0,,,55,0
32535,note_on,0,0,1,,,,,,,,,0,,,76,0
32580,note_on,0,0,4,,,,,,,,,0,,,57,60
32580,note_on,0,0,1,,,,,,,,,0,,,81,60
32580,note_on,45,0,4,,,,,,,,,0,,,61,0
32580,note_on,45,0,1,,,,,,,,,0,,,85,0
32600,note_on,0,0,4,,,,,,,,,0,,,59,60
32600,note_on,0,0,1,,,,,,,,,0,,,82,60
32600,note_on,20,0,1,,,,,,,,,0,,,81,0
32600,note_on,20,0,4,,,,,,,,,0,,,57,0
32620,note_on,0,0,4,,,,,,,,,0,,,57,60
32620,note_on,20,0,1,,,,,,,,,0,,,82,0
32620,note_on,0,0,1,,,,,,,,,0,,,81,60
32620,note_on,20,0,4,,,,,,,,,0,,,59,0
32640,note_on,20,0,1,,,,,,,,,0,,,81,0
32640,note_on,0,0,1,,,,,,,,,0,,,86,60
32640,note_on,20,0,4,,,,,,,,,0,,,57,0
32640,note_on,0,0,4,,,,,,,,,0,,,62,60
32660,note_on,0,0,4,,,,,,,,,0,,,64,60
32660,note_on,0,0,1,,,,,,,,,0,,,88,60
32660,note_on,20,0,4,,,,,,,,,0,,,62,0
32660,note_on,20,0,1,,,,,,,,,0,,,86,0
32680,note_on,0,0,1,,,,,,,,,0,,,86,60
32680,note_on,20,0,4,,,,,,,,,0,,,64,0
32680,note_on,0,0,4,,,,,,,,,0,,,62,60
32680,note_on,20,0,1,,,,,,,,,0,,,88,0
32700,note_on,20,0,4,,,,,,,,,0,,,62,0
32700,note_on,3540,0,3,,,,,,,,,0,,,69,60
32700,note_on,0,0,3,,,,,,,,,0,,,61,60
32700,note_on,20,0,1,,,,,,,,,0,,,86,0
32720,note_on,0,0,1,,,,,,,,,0,,,70,60
32720,note_on,20,0,1,,,,,,,,,0,,,64,60
32720,note_on,20,0,3,,,,,,,,,0,,,61,0
32720,note_on,0,0,3,,,,,,,,,0,,,69,0
32740,note_on,0,0,1,,,,,,,,,0,,,64,0
32740,note_on,0,0,1,,,,,,,,,0,,,69,60
32740,note_on,20,0,1,,,,,,,,,0,,,70,0
32760,note_on,40,0,3,,,,,,,,,0,,,57,60
32760,note_on,0,0,3,,,,,,,,,0,,,65,60
32760,note_on,20,0,1,,,,,,,,,0,,,69,0
32780,note_on,20,0,1,,,,,,,,,0,,,62,60
32780,note_on,0,0,1,,,,,,,,,0,,,67,60
32780,note_on,0,0,3,,,,,,,,,0,,,57,0
32780,note_on,20,0,3,,,,,,,,,0,,,65,0
32800,note_on,20,0,1,,,,,,,,,0,,,67,0
32800,note_on,0,0,1,,,,,,,,,0,,,62,0
32800,note_on,0,0,1,,,,,,,,,0,,,65,60
32820,note_on,20,0,1,,,,,,,,,0,,,65,0
32820,note_on,120,0,4,,,,,,,,,0,,,53,60
32825,note_on,5,0,4,,,,,,,,,0,,,57,60
32830,note_on,5,0,4,,,,,,,,,0,,,62,60
32835,note_on,5,0,4,,,,,,,,,0,,,53,0
32840,note_on,5,0,4,,,,,,,,,0,,,57,0
32845,note_on,5,0,4,,,,,,,,,0,,,62,0
32880,note_on,35,0,4,,,,,,,,,0,,,62,60
32880,note_on,60,0,1,,,,,,,,,0,,,86,60
32900,note_on,20,0,4,,,,,,,,,0,,,62,0
32900,note_on,0,0,1,,,,,,,,,0,,,88,60
32900,note_on,20,0,1,,,,,,,,,0,,,86,0
32900,note_on,0,0,4,,,,,,,,,0,,,64,60
32920,note_on,20,0,1,,,,,,,,,0,,,88,0
32920,note_on,0,0,4,,,,,,,,,0,,,62,60
32920,note_on,0,0,1,,,,,,,,,0,,,86,60
32920,note_on,20,0,4,,,,,,,,,0,,,64,0
32940,note_on,20,0,1,,,,,,,,,0,,,86,0
32940,note_on,0,0,4,,,,,,,,,0,,,59,80
32940,note_on,0,0,1,,,,,,,,,0,,,83,80
32940,note_on,20,0,4,,,,,,,,,0,,,62,0
33000,note_on,0,0,1,,,,,,,,,0,,,74,60
33000,note_on,60,0,1,,,,,,,,,0,,,71,60
33000,note_on,0,0,4,,,,,,,,,0,,,53,60
33000,note_on,0,0,4,,,,,,,,,0,,,56,60
33000,note_on,60,0,4,,,,,,,,,0,,,43,60
33015,note_on,15,0,1,,,,,,,,,0,,,74,0
33015,note_on,0,0,4,,,,,,,,,0,,,43,0
33015,note_on,0,0,4,,,,,,,,,0,,,53,0
33015,note_on,15,0,4,,,,,,,,,0,,,56,0
33015,note_on,0,0,1,,,,,,,,,0,,,71,0
33060,note_on,45,0,1,,,,,,,,,0,,,83,0
33060,note_on,45,0,4,,,,,,,,,0,,,59,0
33060,note_on,0,0,1,,,,,,,,,0,,,79,60
33060,note_on,0,0,4,,,,,,,,,0,,,55,60
33080,note_on,20,0,4,,,,,,,,,0,,,55,0
33080,note_on,20,0,1,,,,,,,,,0,,,79,0
33080,note_on,0,0,1,,,,,,,,,0,,,81,60
33080,note_on,0,0,4,,,,,,,,,0,,,57,60
33100,note_on,20,0,1,,,,,,,,,0,,,81,0
33100,note_on,0,0,1,,,,,,,,,0,,,79,60
33100,note_on,20,0,4,,,,,,,,,0,,,57,0
33100,note_on,0,0,4,,,,,,,,,0,,,55,60
33120,note_on,0,0,1,,,,,,,,,0,,,84,60
33120,note_on,0,0,4,,,,,,,,,0,,,60,60
33120,note_on,20,0,1,,,,,,,,,0,,,79,0
33120,note_on,20,0,4,,,,,,,,,0,,,55,0
33140,note_on,0,0,1,,,,,,,,,0,,,86,60
33140,note_on,20,0,1,,,,,,,,,0,,,84,0
33140,note_on,20,0,4,,,,,,,,,0,,,60,0
33140,note_on,0,0,4,,,,,,,,,0,,,62,60
33160,note_on,0,0,4,,,,,,,,,0,,,60,60
33160,note_on,20,0,4,,,,,,,,,0,,,62,0
33160,note_on,0,0,1,,,,,,,,,0,,,84,60
33160,note_on,20,0,1,,,,,,,,,0,,,86,0
33180,note_on,20,0,1,,,,,,,,,0,,,84,0
33180,note_on,0,0,3,,,,,,,,,0,,,59,60
33180,note_on,20,0,4,,,,,,,,,0,,,60,0
33180,note_on,400,0,3,,,,,,,,,0,,,67,60
33200,note_on,20,0,3,,,,,,,,,0,,,59,0
33200,note_on,20,0,1,,,,,,,,,0,,,62,60
33200,note_on,0,0,3,,,,,,,,,0,,,67,0
33200,note_on,0,0,1,,,,,,,,,0,,,69,60
33220,note_on,20,0,1,,,,,,,,,0,,,69,0
33220,note_on,0,0,1,,,,,,,,,0,,,67,60
33220,note_on,0,0,1,,,,,,,,,0,,,62,0
33240,note_on,0,0,3,,,,,,,,,0,,,55,60
33240,note_on,40,0,3,,,,,,,,,0,,,64,60
33240,note_on,20,0,1,,,,,,,,,0,,,67,0
33260,note_on,20,0,3,,,,,,,,,0,,,55,0
33260,note_on,0,0,1,,,,,,,,,0,,,65,60
33260,note_on,0,0,3,,,,,,,,,0,,,64,0
33260,note_on,20,0,1,,,,,,,,,0,,,60,60
33280,note_on,20,0,1,,,,,,,,,0,,,65,0
33280,note_on,0,0,1,,,,,,,,,0,,,64,60
33280,note_on,0,0,1,,,,,,,,,0,,,60,0
33300,note_on,120,0,4,,,,,,,,,0,,,52,60
33300,note_on,20,0,1,,,,,,,,,0,,,64,0
33305,note_on,5,0,4,,,,,,,,,0,,,55,60
33310,note_on,5,0,4,,,,,,,,,0,,,60,60
33315,note_on,5,0,4,,,,,,,,,0,,,52,0
33320,note_on,5,0,4,,,,,,,,,0,,,55,0
33325,note_on,5,0,4,,,,,,,,,0,,,60,0
33360,note_on,35,0,4,,,,,,,,,0,,,62,60
33360,note_on,60,0,1,,,,,,,,,0,,,86,60
33380,note_on,20,0,4,,,,,,,,,0,,,62,0
33380,note_on,0,0,1,,,,,,,,,0,,,88,60
33380,note_on,20,0,1,,,,,,,,,0,,,86,0
33380,note_on,0,0,4,,,,,,,,,0,,,64,60
33400,note_on,20,0,4,,,,,,,,,0,,,64,0
33400,note_on,0,0,1,,,,,,,,,0,,,86,60
33400,note_on,0,0,4,,,,,,,,,0,,,62,60
33400,note_on,20,0,1,,,,,,,,,0,,,88,0
33420,note_on,0,0,1,,,,,,,,,0,,,89,80
33420,note_on,0,0,4,,,,,,,,,0,,,65,80
33420,note_on,20,0,1,,,,,,,,,0,,,86,0
33420,note_on,20,0,4,,,,,,,,,0,,,62,0
33480,note_on,0,0,1,,,,,,,,,0,,,80,60
33480,note_on,60,0,4,,,,,,,,,0,,,50,60
33480,note_on,60,0,1,,,,,,,,,0,,,77,60
33480,note_on,0,0,4,,,,,,,,,0,,,59,60
33495,note_on,15,0,1,,,,,,,,,0,,,80,0
33495,note_on,0,0,1,,,,,,,,,0,,,77,0
33495,note_on,15,0,4,,,,,,,,,0,,,59,0
33495,note_on,0,0,4,,,,,,,,,0,,,50,0
33540,note_on,280,0,3,,,,,,,,,0,,,71,60
33540,note_on,0,0,1,,,,,,,,,0,,,65,60
33540,note_on,45,0,1,,,,,,,,,0,,,89,0
33540,note_on,45,0,4,,,,,,,,,0,,,65,0
33540,note_on,0,0,1,,,,,,,,,0,,,68,60
33540,note_on,0,0,1,,,,,,,,,0,,,62,60
33550,note_on,0,0,3,,,,,,,,,0,,,72,60
33550,note_on,10,0,1,,,,,,,,,0,,,62,0
33550,note_on,0,0,1,,,,,,,,,0,,,64,60
33550,note_on,0,0,1,,,,,,,,,0,,,65,0
33550,note_on,0,0,1,,,,,,,,,0,,,68,0
33550,note_on,10,0,3,,,,,,,,,0,,,71,0
33560,note_on,0,0,1,,,,,,,,,0,,,62,60
33560,note_on,10,0,1,,,,,,,,,0,,,64,0
33560,note_on,10,0,3,,,,,,,,,0,,,72,0
33560,note_on,0,0,3,,,,,,,,,0,,,71,60
33570,note_on,10,0,1,,,,,,,,,0,,,62,0
33570,note_on,10,0,3,,,,,,,,,0,,,71,0
33600,note_on,60,0,4,,,,,,,,,0,,,60,60
33600,note_on,30,0,1,,,,,,,,,0,,,84,60
33620,note_on,20,0,4,,,,,,,,,0,,,60,0
33620,note_on,0,0,4,,,,,,,,,0,,,62,60
33620,note_on,0,0,1,,,,,,,,,0,,,86,60
33620,note_on,20,0,1,,,,,,,,,0,,,84,0
33640,note_on,20,0,1,,,,,,,,,0,,,86,0
33640,note_on,0,0,1,,,,,,,,,0,,,84,60
33640,note_on,20,0,4,,,,,,,,,0,,,62,0
33640,note_on,0,0,4,,,,,,,,,0,,,60,60
33660,note_on,0,0,1,,,,,,,,,0,,,88,80
33660,note_on,20,0,4,,,,,,,,,0,,,60,0
33660,note_on,0,0,4,,,,,,,,,0,,,64,80
33660,note_on,20,0,1,,,,,,,,,0,,,84,0
33720,note_on,0,0,1,,,,,,,,,0,,,81,60
33720,note_on,60,0,4,,,,,,,,,0,,,48,60
33720,note_on,0,0,4,,,,,,,,,0,,,57,60
33720,note_on,60,0,1,,,,,,,,,0,,,76,60
33735,note_on,15,0,1,,,,,,,,,0,,,81,0
33735,note_on,0,0,1,,,,,,,,,0,,,76,0
33735,note_on,15,0,4,,,,,,,,,0,,,57,0
33735,note_on,0,0,4,,,,,,,,,0,,,48,0
33780,note_on,0,0,1,,,,,,,,,0,,,60,60
33780,note_on,0,0,1,,,,,,,,,0,,,64,60
33780,note_on,210,0,3,,,,,,,,,0,,,69,60
33780,note_on,45,0,1,,,,,,,,,0,,,88,0
33780,note_on,45,0,4,,,,,,,,,0,,,64,0
33790,note_on,10,0,1,,,,,,,,,0,,,60,0
33790,note_on,0,0,1,,,,,,,,,0,,,62,60
33790,note_on,0,0,1,,,,,,,,,0,,,64,0
33790,note_on,0,0,3,,,,,,,,,0,,,70,60
33790,note_on,10,0,3,,,,,,,,,0,,,69,0
33800,note_on,0,0,1,,,,,,,,,0,,,60,60
33800,note_on,10,0,1,,,,,,,,,0,,,62,0
33800,note_on,10,0,3,,,,,,,,,0,,,70,0
33800,note_on,0,0,3,,,,,,,,,0,,,69,60
33810,note_on,10,0,1,,,,,,,,,0,,,60,0
33810,note_on,10,0,3,,,,,,,,,0,,,69,0
33840,note_on,60,0,4,,,,,,,,,0,,,50,60
33840,note_on,0,0,1,,,,,,,,,0,,,65,60
33840,note_on,30,0,1,,,,,,,,,0,,,71,60
33850,note_on,0,0,1,,,,,,,,,0,,,69,60
33850,note_on,0,0,1,,,,,,,,,0,,,72,60
33850,note_on,10,0,1,,,,,,,,,0,,,65,0
33850,note_on,0,0,1,,,,,,,,,0,,,71,0
33860,note_on,0,0,1,,,,,,,,,0,,,65,60
33860,note_on,0,0,1,,,,,,,,,0,,,72,0
33860,note_on,0,0,1,,,,,,,,,0,,,71,60
33860,note_on,10,0,1,,,,,,,,,0,,,69,0
33870,note_on,10,0,1,,,,,,,,,0,,,65,0
33870,note_on,0,0,1,,,,,,,,,0,,,71,0
33900,note_on,60,0,4,,,,,,,,,0,,,50,0
33900,note_on,0,0,4,,,,,,,,,0,,,65,60
33900,note_on,0,0,1,,,,,,,,,0,,,69,60
33900,note_on,0,0,4,,,,,,,,,0,,,62,60
33900,note_on,30,0,1,,,,,,,,,0,,,77,60
33910,note_on,10,0,1,,,,,,,,,0,,,69,0
33910,note_on,0,0,1,,,,,,,,,0,,,77,0
33910,note_on,0,0,1,,,,,,,,,0,,,79,60
33910,note_on,0,0,1,,,,,,,,,0,,,71,60
33920,note_on,0,0,1,,,,,,,,,0,,,69,60
33920,note_on,0,0,1,,,,,,,,,0,,,79,0
33920,note_on,10,0,1,,,,,,,,,0,,,71,0
33920,note_on,0,0,1,,,,,,,,,0,,,77,60
33930,note_on,10,0,1,,,,,,,,,0,,,69,0
33930,note_on,0,0,1,,,,,,,,,0,,,77,0
33960,note_on,0,0,4,,,,,,,,,0,,,52,60
33960,note_on,0,0,1,,,,,,,,,0,,,68,60
33960,note_on,30,0,1,,,,,,,,,0,,,76,60
33960,note_on,0,0,4,,,,,,,,,0,,,65,0
33960,note_on,60,0,4,,,,,,,,,0,,,62,0
33970,note_on,0,0,1,,,,,,,,,0,,,71,60
33970,note_on,0,0,1,,,,,,,,,0,,,76,0
33970,note_on,0,0,1,,,,,,,,,0,,,77,60
33970,note_on,10,0,1,,,,,,,,,0,,,68,0
33980,note_on,0,0,1,,,,,,,,,0,,,68,60
33980,note_on,0,0,1,,,,,,,,,0,,,77,0
33980,note_on,0,0,1,,,,,,,,,0,,,76,60
33980,note_on,10,0,1,,,,,,,,,0,,,71,0
33990,note_on,0,0,1,,,,,,,,,0,,,76,0
33990,note_on,10,0,1,,,,,,,,,0,,,68,0
34020,note_on,30,0,1,,,,,,,,,0,,,83,60
34020,note_on,0,0,1,,,,,,,,,0,,,74,60
34020,note_on,0,0,4,,,,,,,,,0,,,64,60
34020,note_on,0,0,4,,,,,,,,,0,,,68,60
34020,note_on,60,0,4,,,,,,,,,0,,,52,0
34030,note_on,0,0,1,,,,,,,,,0,,,76,60
34030,note_on,0,0,1,,,,,,,,,0,,,83,0
34030,note_on,0,0,1,,,,,,,,,0,,,84,60
34030,note_on,10,0,1,,,,,,,,,0,,,74,0
34040,note_on,0,0,1,,,,,,,,,0,,,83,60
34040,note_on,0,0,1,,,,,,,,,0,,,74,60
34040,note_on,10,0,1,,,,,,,,,0,,,76,0
34040,note_on,0,0,1,,,,,,,,,0,,,84,0
34050,note_on,10,0,1,,,,,,,,,0,,,74,0
34050,note_on,0,0,1,,,,,,,,,0,,,83,0
34080,note_on,60,0,4,,,,,,,,,0,,,64,0
34080,note_on,0,0,4,,,,,,,,,0,,,68,0
34080,note_on,0,0,1,,,,,,,,,0,,,72,60
34080,note_on,0,0,4,,,,,,,,,0,,,64,60
34080,note_on,30,0,1,,,,,,,,,0,,,81,60
34080,note_on,0,0,4,,,,,,,,,0,,,69,60
34080,note_on,0,0,4,,,,,,,,,0,,,57,60
34090,note_on,0,0,1,,,,,,,,,0,,,76,60
34090,note_on,0,0,1,,,,,,,,,0,,,83,60
34090,note_on,0,0,1,,,,,,,,,0,,,81,0
34090,note_on,10,0,1,,,,,,,,,0,,,72,0
34100,note_on,0,0,1,,,,,,,,,0,,,83,0
34100,note_on,0,0,1,,,,,,,,,0,,,81,60
34100,note_on,0,0,1,,,,,,,,,0,,,72,60
34100,note_on,10,0,1,,,,,,,,,0,,,76,0
34110,note_on,0,0,1,,,,,,,,,0,,,81,0
34110,note_on,10,0,1,,,,,,,,,0,,,72,0
34140,note_on,30,0,1,,,,,,,,,0,,,89,60
34140,note_on,0,0,4,,,,,,,,,0,,,38,60
34140,note_on,0,0,4,,,,,,,,,0,,,45,60
34140,note_on,0,0,4,,,,,,,,,0,,,64,0
34140,note_on,0,0,4,,,,,,,,,0,,,69,0
34140,note_on,60,0,4,,,,,,,,,0,,,57,0
34140,note_on,0,0,1,,,,,,,,,0,,,81,60
34150,note_on,0,0,1,,,,,,,,,0,,,89,0
34150,note_on,0,0,1,,,,,,,,,0,,,93,60
34150,note_on,0,0,1,,,,,,,,,0,,,86,60
34150,note_on,10,0,1,,,,,,,,,0,,,81,0
34155,note_on,0,0,4,,,,,,,,,0,,,38,0
34155,note_on,15,0,4,,,,,,,,,0,,,45,0
34160,note_on,0,0,1,,,,,,,,,0,,,89,60
34160,note_on,0,0,1,,,,,,,,,0,,,93,0
34160,note_on,10,0,1,,,,,,,,,0,,,86,0
34160,note_on,0,0,1,,,,,,,,,0,,,81,60
34170,note_on,0,0,1,,,,,,,,,0,,,89,0
34170,note_on,10,0,1,,,,,,,,,0,,,81,0
34200,note_on,0,0,4,,,,,,,,,0,,,45,60
34200,note_on,0,0,1,,,,,,,,,0,,,84,60
34200,note_on,0,0,1,,,,,,,,,0,,,88,60
34200,note_on,45,0,4,,,,,,,,,0,,,33,60
34200,note_on,30,0,1,,,,,,,,,0,,,96,60
34215,note_on,15,0,1,,,,,,,,,0,,,84,0
34215,note_on,0,0,4,,,,,,,,,0,,,33,0
34215,note_on,0,0,1,,,,,,,,,0,,,96,0
34215,note_on,0,0,1,,,,,,,,,0,,,88,0
34215,note_on,15,0,4,,,,,,,,,0,,,45,0
34320,set_tempo,2880,1,0,,,,,,375000,,,,,,,
34320,note_on,0,0,1,,,,,,,,,0,,,64,100
34320,note_on,0,0,1,,,,,,,,,0,,,60,100
34320,marker,0,1,0,,,,,,,,,,,,,
34320,note_on,105,0,4,,,,,,,,,0,,,52,100
34320,note_on,105,0,1,,,,,,,,,0,,,57,100
34320,note_on,0,0,4,,,,,,,,,0,,,45,100
34335,note_on,15,0,4,,,,,,,,,0,,,45,0
34335,note_on,0,0,1,,,,,,,,,0,,,60,0
34335,note_on,0,0,1,,,,,,,,,0,,,57,0
34335,note_on,0,0,4,,,,,,,,,0,,,52,0
34335,note_on,15,0,1,,,,,,,,,0,,,64,0
34380,note_on,45,0,4,,,,,,,,,0,,,48,100
34380,note_on,0,0,4,,,,,,,,,0,,,52,100
34395,note_on,0,0,4,,,,,,,,,0,,,48,0
34395,note_on,15,0,4,,,,,,,,,0,,,52,0
34410,note_on,75,0,1,,,,,,,,,0,,,64,100
34425,note_on,15,0,1,,,,,,,,,0,,,64,0
34440,note_on,45,0,4,,,,,,,,,0,,,47,100
34440,note_on,0,0,4,,,,,,,,,0,,,52,100
34455,note_on,15,0,4,,,,,,,,,0,,,52,0
34455,note_on,0,0,4,,,,,,,,,0,,,47,0
34470,note_on,45,0,1,,,,,,,,,0,,,62,100
34470,note_on,0,0,1,,,,,,,,,0,,,64,100
34485,note_on,15,0,1,,,,,,,,,0,,,64,0
34485,note_on,0,0,1,,,,,,,,,0,,,62,0
34500,note_on,45,0,4,,,,,,,,,0,,,45,100
34500,note_on,0,0,4,,,,,,,,,0,,,52,100
34515,note_on,15,0,4,,,,,,,,,0,,,52,0
34515,note_on,0,0,4,,,,,,,,,0,,,45,0
34530,note_on,0,0,1,,,,,,,,,0,,,64,100
34530,note_on,45,0,1,,,,,,,,,0,,,60,100
34545,note_on,0,0,1,,,,,,,,,0,,,60,0
34545,note_on,15,0,1,,,,,,,,,0,,,64,0
34560,note_on,0,0,4,,,,,,,,,0,,,52,100
34560,note_on,45,0,4,,,,,,,,,0,,,44,100
34575,note_on,15,0,4,,,,,,,,,0,,,52,0
34575,note_on,0,0,4,,,,,,,,,0,,,44,0
34590,note_on,0,0,1,,,,,,,,,0,,,64,100
34590,note_on,45,0,1,,,,,,,,,0,,,59,100
34605,note_on,15,0,1,,,,,,,,,0,,,64,0
34605,note_on,0,0,1,,,,,,,,,0,,,59,0
34620,note_on,45,0,4,,,,,,,,,0,,,40,100
34620,note_on,0,0,4,,,,,,,,,0,,,52,100
34635,note_on,0,0,4,,,,,,,,,0,,,40,0
34635,note_on,15,0,4,,,,,,,,,0,,,52,0
34650,note_on,0,0,1,,,,,,,,,0,,,59,100
34650,note_on,0,0,1,,,,,,,,,0,,,64,100
34650,note_on,45,0,1,,,,,,,,,0,,,71,100
34665,note_on,0,0,1,,,,,,,,,0,,,59,0
34665,note_on,15,0,1,,,,,,,,,0,,,64,0
34665,note_on,0,0,1,,,,,,,,,0,,,71,0
34680,note_on,0,0,4,,,,,,,,,0,,,52,100
34680,note_on,45,0,4,,,,,,,,,0,,,42,100
34695,note_on,15,0,4,,,,,,,,,0,,,52,0
34695,note_on,0,0,4,,,,,,,,,0,,,42,0
34710,note_on,0,0,1,,,,,,,,,0,,,64,100
34710,note_on,45,0,1,,,,,,,,,0,,,57,100
34725,note_on,15,0,1,,,,,,,,,0,,,64,0
34725,note_on,0,0,1,,,,,,,,,0,,,57,0
34740,note_on,45,0,4,,,,,,,,,0,,,44,100
34740,note_on,0,0,4,,,,,,,,,0,,,52,100
34755,note_on,0,0,4,,,,,,,,,0,,,44,0
34755,note_on,15,0,4,,,,,,,,,0,,,52,0
34770,note_on,45,0,1,,,,,,,,,0,,,59,100
34770,note_on,0,0,1,,,,,,,,,0,,,64,100
34785,note_on,15,0,1,,,,,,,,,0,,,64,0
34785,note_on,0,0,1,,,,,,,,,0,,,59,0
34800,note_on,45,0,4,,,,,,,,,0,,,45,127
34800,note_on,15,0,1,,,,,,,,,0,,,57,127
34800,note_on,0,0,4,,,,,,,,,0,,,52,127
34800,note_on,0,0,1,,,,,,,,,0,,,60,127
34800,note_on,0,0,1,,,,,,,,,0,,,64,127
34815,note_on,0,0,1,,,,,,,,,0,,,57,0
34815,note_on,0,0,1,,,,,,,,,0,,,60,0
34815,note_on,15,0,4,,,,,,,,,0,,,52,0
34815,note_on,0,0,4,,,,,,,,,0,,,45,0
34815,note_on,15,0,1,,,,,,,,,0,,,64,0
34860,note_on,45,0,4,,,,,,,,,0,,,48,101
34860,note_on,0,0,4,,,,,,,,,0,,,52,101
34875,note_on,15,0,4,,,,,,,,,0,,,52,0
34875,note_on,0,0,4,,,,,,,,,0,,,48,0
34890,note_on,75,0,1,,,,,,,,,0,,,64,102
34905,note_on,15,0,1,,,,,,,,,0,,,64,0
34920,note_on,0,0,4,,,,,,,,,0,,,52,102
34920,note_on,45,0,4,,,,,,,,,0,,,47,102
34935,note_on,15,0,4,,,,,,,,,0,,,52,0
34935,note_on,0,0,4,,,,,,,,,0,,,47,0
34950,note_on,0,0,1,,,,,,,,,0,,,64,103
34950,note_on,45,0,1,,,,,,,,,0,,,62,103
34965,note_on,15,0,1,,,,,,,,,0,,,64,0
34965,note_on,0,0,1,,,,,,,,,0,,,62,0
34980,note_on,0,0,4,,,,,,,,,0,,,52,104
34980,note_on,45,0,4,,,,,,,,,0,,,45,104
34995,note_on,0,0,4,,,,,,,,,0,,,45,0
34995,note_on,15,0,4,,,,,,,,,0,,,52,0
35010,note_on,0,0,1,,,,,,,,,0,,,64,104
35010,note_on,45,0,1,,,,,,,,,0,,,60,104
35025,note_on,0,0,1,,,,,,,,,0,,,60,0
35025,note_on,15,0,1,,,,,,,,,0,,,64,0
35040,note_on,45,0,4,,,,,,,,,0,,,52,105
35040,note_on,0,0,4,,,,,,,,,0,,,44,105
35055,note_on,15,0,4,,,,,,,,,0,,,44,0
35055,note_on,0,0,4,,,,,,,,,0,,,52,0
35070,note_on,45,0,1,,,,,,,,,0,,,59,106
35070,note_on,0,0,1,,,,,,,,,0,,,64,106
35085,note_on,15,0,1,,,,,,,,,0,,,64,0
35085,note_on,0,0,1,,,,,,,,,0,,,59,0
35100,note_on,45,0,4,,,,,,,,,0,,,51,106
35100,note_on,0,0,4,,,,,,,,,0,,,41,106
35115,note_on,0,0,4,,,,,,,,,0,,,51,0
35115,note_on,15,0,4,,,,,,,,,0,,,41,0
35130,note_on,0,0,1,,,,,,,,,0,,,63,107
35130,note_on,0,0,1,,,,,,,,,0,,,59,107
35130,note_on,45,0,1,,,,,,,,,0,,,69,107
35145,note_on,15,0,1,,,,,,,,,0,,,63,0
35145,note_on,0,0,1,,,,,,,,,0,,,69,0
35145,note_on,0,0,1,,,,,,,,,0,,,59,0
35160,note_on,0,0,4,,,,,,,,,0,,,40,108
35160,note_on,45,0,4,,,,,,,,,0,,,52,108
35175,note_on,0,0,4,,,,,,,,,0,,,52,0
35175,note_on,15,0,4,,,,,,,,,0,,,40,0
35190,note_on,45,0,1,,,,,,,,,0,,,59,109
35190,note_on,0,0,1,,,,,,,,,0,,,64,109
35190,note_on,0,0,1,,,,,,,,,0,,,68,109
35205,note_on,15,0,1,,,,,,,,,0,,,68,0
35205,note_on,0,0,1,,,,,,,,,0,,,59,0
35205,note_on,0,0,1,,,,,,,,,0,,,64,0
35220,note_on,0,0,4,,,,,,,,,0,,,52,109
35220,note_on,45,0,4,,,,,,,,,0,,,56,109
35235,note_on,15,0,4,,,,,,,,,0,,,52,0
35235,note_on,0,0,4,,,,,,,,,0,,,56,0
35250,note_on,45,0,1,,,,,,,,,0,,,64,110
35265,note_on,15,0,1,,,,,,,,,0,,,64,0
35280,note_on,0,0,1,,,,,,,,,0,,,72,127
35280,note_on,0,0,1,,,,,,,,,0,,,69,127
35280,note_on,0,0,1,,,,,,,,,0,,,64,127
35280,note_on,0,0,4,,,,,,,,,0,,,45,127
35280,note_on,15,0,1,,,,,,,,,0,,,76,127
35280,note_on,45,0,4,,,,,,,,,0,,,57,127
35295,note_on,15,0,4,,,,,,,,,0,,,45,0
35295,note_on,15,0,1,,,,,,,,,0,,,64,0
35295,note_on,0,0,1,,,,,,,,,0,,,76,0
35295,note_on,0,0,1,,,,,,,,,0,,,72,0
35295,note_on,0,0,1,,,,,,,,,0,,,69,0
35295,note_on,0,0,4,,,,,,,,,0,,,57,0
35340,note_on,0,0,4,,,,,,,,,0,,,48,100
35340,note_on,45,0,4,,,,,,,,,0,,,60,100
35355,note_on,0,0,4,,,,,,,,,0,,,60,0
35355,note_on,15,0,4,,,,,,,,,0,,,48,0
35370,note_on,75,0,1,,,,,,,,,0,,,76,100
35370,note_on,0,0,1,,,,,,,,,0,,,64,100
35385,note_on,15,0,1,,,,,,,,,0,,,64,0
35385,note_on,0,0,1,,,,,,,,,0,,,76,0
35400,note_on,45,0,4,,,,,,,,,0,,,59,100
35400,note_on,0,0,4,,,,,,,,,0,,,47,100
35415,note_on,15,0,4,,,,,,,,,0,,,47,0
35415,note_on,0,0,4,,,,,,,,,0,,,59,0
35430,note_on,45,0,1,,,,,,,,,0,,,74,100
35430,note_on,0,0,1,,,,,,,,,0,,,76,100
35430,note_on,0,0,1,,,,,,,,,0,,,64,100
35445,note_on,15,0,1,,,,,,,,,0,,,64,0
35445,note_on,0,0,1,,,,,,,,,0,,,76,0
35445,note_on,0,0,1,,,,,,,,,0,,,74,0
35460,note_on,0,0,4,,,,,,,,,0,,,45,100
35460,note_on,45,0,4,,,,,,,,,0,,,57,100
35475,note_on,0,0,4,,,,,,,,,0,,,57,0
35475,note_on,15,0,4,,,,,,,,,0,,,45,0
35490,note_on,0,0,1,,,,,,,,,0,,,76,100
35490,note_on,45,0,1,,,,,,,,,0,,,72,100
35490,note_on,0,0,1,,,,,,,,,0,,,64,100
35505,note_on,0,0,1,,,,,,,,,0,,,72,0
35505,note_on,0,0,1,,,,,,,,,0,,,76,0
35505,note_on,15,0,1,,,,,,,,,0,,,64,0
35520,note_on,45,0,4,,,,,,,,,0,,,56,100
35520,note_on,0,0,4,,,,,,,,,0,,,44,100
35535,note_on,15,0,4,,,,,,,,,0,,,44,0
35535,note_on,0,0,4,,,,,,,,,0,,,56,0
35550,note_on,45,0,1,,,,,,,,,0,,,76,100
35550,note_on,0,0,1,,,,,,,,,0,,,64,100
35550,note_on,0,0,1,,,,,,,,,0,,,71,100
35565,note_on,15,0,1,,,,,,,,,0,,,64,0
35565,note_on,0,0,1,,,,,,,,,0,,,71,0
35565,note_on,0,0,1,,,,,,,,,0,,,76,0
35580,note_on,45,0,4,,,,,,,,,0,,,52,100
35580,note_on,0,0,4,,,,,,,,,0,,,40,100
35595,note_on,0,0,4,,,,,,,,,0,,,52,0
35595,note_on,15,0,4,,,,,,,,,0,,,40,0
35610,note_on,45,0,1,,,,,,,,,0,,,83,100
35610,note_on,0,0,1,,,,,,,,,0,,,71,100
35625,note_on,15,0,1,,,,,,,,,0,,,71,0
35625,note_on,0,0,1,,,,,,,,,0,,,83,0
35640,note_on,45,0,4,,,,,,,,,0,,,54,100
35640,note_on,0,0,4,,,,,,,,,0,,,42,100
35655,note_on,0,0,4,,,,,,,,,0,,,54,0
35655,note_on,15,0,4,,,,,,,,,0,,,42,0
35670,note_on,0,0,1,,,,,,,,,0,,,76,100
35670,note_on,45,0,1,,,,,,,,,0,,,64,100
35670,note_on,0,0,1,,,,,,,,,0,,,69,100
35685,note_on,15,0,1,,,,,,,,,0,,,76,0
35685,note_on,0,0,1,,,,,,,,,0,,,64,0
35685,note_on,0,0,1,,,,,,,,,0,,,69,0
35700,note_on,0,0,4,,,,,,,,,0,,,44,100
35700,note_on,45,0,4,,,,,,,,,0,,,56,100
35715,note_on,0,0,4,,,,,,,,,0,,,56,0
35715,note_on,15,0,4,,,,,,,,,0,,,44,0
35730,note_on,45,0,1,,,,,,,,,0,,,64,100
35730,note_on,0,0,1,,,,,,,,,0,,,71,100
35730,note_on,0,0,1,,,,,,,,,0,,,76,100
35745,note_on,15,0,1,,,,,,,,,0,,,76,0
35745,note_on,0,0,1,,,,,,,,,0,,,71,0
35745,note_on,0,0,1,,,,,,,,,0,,,64,0
35760,note_on,0,0,1,,,,,,,,,0,,,72,127
35760,note_on,0,0,1,,,,,,,,,0,,,69,127
35760,note_on,0,0,1,,,,,,,,,0,,,64,127
35760,note_on,15,0,1,,,,,,,,,0,,,76,127
35760,note_on,0,0,4,,,,,,,,,0,,,45,127
35760,note_on,45,0,4,,,,,,,,,0,,,57,127
35775,note_on,0,0,1,,,,,,,,,0,,,76,0
35775,note_on,0,0,1,,,,,,,,,0,,,69,0
35775,note_on,0,0,1,,,,,,,,,0,,,72,0
35775,note_on,15,0,4,,,,,,,,,0,,,45,0
35775,note_on,0,0,4,,,,,,,,,0,,,57,0
35775,note_on,15,0,1,,,,,,,,,0,,,64,0
35820,note_on,0,0,4,,,,,,,,,0,,,48,100
35820,note_on,45,0,4,,,,,,,,,0,,,60,100
35835,note_on,0,0,4,,,,,,,,,0,,,60,0
35835,note_on,15,0,4,,,,,,,,,0,,,48,0
35850,note_on,75,0,1,,,,,,,,,0,,,76,100
35850,note_on,0,0,1,,,,,,,,,0,,,64,100
35865,note_on,15,0,1,,,,,,,,,0,,,64,0
35865,note_on,0,0,1,,,,,,,,,0,,,76,0
35880,note_on,0,0,4,,,,,,,,,0,,,47,100
35880,note_on,45,0,4,,,,,,,,,0,,,59,100
35895,note_on,15,0,4,,,,,,,,,0,,,47,0
35895,note_on,0,0,4,,,,,,,,,0,,,59,0
35910,note_on,0,0,1,,,,,,,,,0,,,64,100
35910,note_on,0,0,1,,,,,,,,,0,,,76,100
35910,note_on,45,0,1,,,,,,,,,0,,,74,100
35925,note_on,15,0,1,,,,,,,,,0,,,64,0
35925,note_on,0,0,1,,,,,,,,,0,,,74,0
35925,note_on,0,0,1,,,,,,,,,0,,,76,0
35940,note_on,45,0,4,,,,,,,,,0,,,57,100
35940,note_on,0,0,4,,,,,,,,,0,,,45,100
35955,note_on,0,0,4,,,,,,,,,0,,,57,0
35955,note_on,15,0,4,,,,,,,,,0,,,45,0
35970,note_on,0,0,1,,,,,,,,,0,,,64,100
35970,note_on,0,0,1,,,,,,,,,0,,,76,100
35970,note_on,45,0,1,,,,,,,,,0,,,72,100
35985,note_on,0,0,1,,,,,,,,,0,,,72,0
35985,note_on,0,0,1,,,,,,,,,0,,,76,0
35985,note_on,15,0,1,,,,,,,,,0,,,64,0
36000,note_on,0,0,4,,,,,,,,,0,,,44,100
36000,note_on,45,0,4,,,,,,,,,0,,,56,100
36015,note_on,15,0,4,,,,,,,,,0,,,44,0
36015,note_on,0,0,4,,,,,,,,,0,,,56,0
36030,note_on,0,0,1,,,,,,,,,0,,,71,100
36030,note_on,0,0,1,,,,,,,,,0,,,64,100
36030,note_on,45,0,1,,,,,,,,,0,,,76,100
36045,note_on,0,0,1,,,,,,,,,0,,,71,0
36045,note_on,0,0,1,,,,,,,,,0,,,76,0
36045,note_on,15,0,1,,,,,,,,,0,,,64,0
36060,note_on,0,0,4,,,,,,,,,0,,,41,100
36060,note_on,45,0,4,,,,,,,,,0,,,53,100
36075,note_on,15,0,4,,,,,,,,,0,,,41,0
36075,note_on,0,0,4,,,,,,,,,0,,,53,0
36090,note_on,0,0,1,,,,,,,,,0,,,69,100
36090,note_on,0,0,1,,,,,,,,,0,,,75,100
36090,note_on,45,0,1,,,,,,,,,0,,,81,100
36105,note_on,0,0,1,,,,,,,,,0,,,75,0
36105,note_on,15,0,1,,,,,,,,,0,,,69,0
36105,note_on,0,0,1,,,,,,,,,0,,,81,0
36120,note_on,0,0,4,,,,,,,,,0,,,40,100
36120,note_on,45,0,4,,,,,,,,,0,,,52,100
36135,note_on,0,0,4,,,,,,,,,0,,,52,0
36135,note_on,15,0,4,,,,,,,,,0,,,40,0
36150,note_on,45,0,1,,,,,,,,,0,,,68,100
36150,note_on,0,0,1,,,,,,,,,0,,,80,100
36150,note_on,0,0,1,,,,,,,,,0,,,76,100
36165,note_on,15,0,1,,,,,,,,,0,,,80,0
36165,note_on,0,0,1,,,,,,,,,0,,,68,0
36165,note_on,0,0,1,,,,,,,,,0,,,76,0
36180,note_on,45,0,4,,,,,,,,,0,,,64,100
36180,note_on,0,0,4,,,,,,,,,0,,,59,100
36180,note_on,0,0,4,,,,,,,,,0,,,56,100
36195,note_on,0,0,4,,,,,,,,,0,,,64,0
36195,note_on,15,0,4,,,,,,,,,0,,,56,0
36195,note_on,0,0,4,,,,,,,,,0,,,59,0
36210,note_on,0,0,1,,,,,,,,,0,,,68,100
36210,note_on,0,0,1,,,,,,,,,0,,,71,100
36210,note_on,45,0,1,,,,,,,,,0,,,76,100
36225,note_on,0,0,1,,,,,,,,,0,,,71,0
36225,note_on,15,0,1,,,,,,,,,0,,,68,0
36225,note_on,0,0,1,,,,,,,,,0,,,76,0
36240,note_on,15,0,1,,,,,,,,,0,,,76,127
36240,note_on,0,0,1,,,,,,,,,0,,,64,127
36240,note_on,0,0,1,,,,,,,,,0,,,69,127
36240,note_on,0,0,1,,,,,,,,,0,,,73,127
36240,note_on,45,0,4,,,,,,,,,0,,,57,127
36240,note_on,0,0,4,,,,,,,,,0,,,45,127
36255,note_on,15,0,4,,,,,,,,,0,,,45,0
36255,note_on,0,0,1,,,,,,,,,0,,,69,0
36255,note_on,0,0,1,,,,,,,,,0,,,76,0
36255,note_on,0,0,1,,,,,,,,,0,,,73,0
36255,note_on,15,0,1,,,,,,,,,0,,,64,0
36255,note_on,0,0,4,,,,,,,,,0,,,57,0
36300,note_on,0,0,4,,,,,,,,,0,,,47,100
36300,note_on,45,0,4,,,,,,,,,0,,,59,100
36315,note_on,0,0,4,,,,,,,,,0,,,59,0
36315,note_on,15,0,4,,,,,,,,,0,,,47,0
36330,note_on,0,0,1,,,,,,,,,0,,,74,100
36330,note_on,0,0,1,,,,,,,,,0,,,69,100
36330,note_on,0,0,1,,,,,,,,,0,,,64,100
36330,note_on,75,0,1,,,,,,,,,0,,,76,100
36345,note_on,0,0,1,,,,,,,,,0,,,76,0
36345,note_on,0,0,1,,,,,,,,,0,,,74,0
36345,note_on,0,0,1,,,,,,,,,0,,,69,0
36345,note_on,15,0,1,,,,,,,,,0,,,64,0
36360,note_on,0,0,4,,,,,,,,,0,,,49,100
36360,note_on,45,0,4,,,,,,,,,0,,,61,100
36375,note_on,0,0,4,,,,,,,,,0,,,61,0
36375,note_on,15,0,4,,,,,,,,,0,,,49,0
36390,note_on,0,0,1,,,,,,,,,0,,,64,100
36390,note_on,45,0,1,,,,,,,,,0,,,69,100
36390,note_on,0,0,1,,,,,,,,,0,,,76,100
36405,note_on,15,0,1,,,,,,,,,0,,,64,0
36405,note_on,0,0,1,,,,,,,,,0,,,69,0
36405,note_on,0,0,1,,,,,,,,,0,,,76,0
36420,note_on,45,0,4,,,,,,,,,0,,,57,100
36420,note_on,0,0,4,,,,,,,,,0,,,45,100
36435,note_on,15,0,4,,,,,,,,,0,,,45,0
36435,note_on,0,0,4,,,,,,,,,0,,,57,0
36450,note_on,0,0,1,,,,,,,,,0,,,64,100
36450,note_on,45,0,1,,,,,,,,,0,,,76,100
36450,note_on,0,0,1,,,,,,,,,0,,,73,100
36465,note_on,0,0,1,,,,,,,,,0,,,73,0
36465,note_on,0,0,1,,,,,,,,,0,,,76,0
36465,note_on,15,0,1,,,,,,,,,0,,,64,0
36480,note_on,0,0,4,,,,,,,,,0,,,50,100
36480,note_on,45,0,4,,,,,,,,,0,,,62,100
36495,note_on,0,0,4,,,,,,,,,0,,,62,0
36495,note_on,15,0,4,,,,,,,,,0,,,50,0
36510,note_on,0,0,1,,,,,,,,,0,,,74,101
36510,note_on,0,0,1,,,,,,,,,0,,,77,101
36510,note_on,45,0,1,,,,,,,,,0,,,86,101
36525,note_on,0,0,1,,,,,,,,,0,,,77,0
36525,note_on,0,0,1,,,,,,,,,0,,,86,0
36525,note_on,15,0,1,,,,,,,,,0,,,74,0
36540,note_on,0,0,3,,,,,,,,,0,,,61,102
36540,note_on,2730,0,3,,,,,,,,,0,,,70,102
36555,note_on,0,0,3,,,,,,,,,0,,,70,0
36555,note_on,15,0,3,,,,,,,,,0,,,61,0
36570,note_on,45,0,1,,,,,,,,,0,,,88,104
36570,note_on,0,0,1,,,,,,,,,0,,,79,104
36570,note_on,0,0,1,,,,,,,,,0,,,76,104
36585,note_on,15,0,1,,,,,,,,,0,,,76,0
36585,note_on,0,0,1,,,,,,,,,0,,,88,0
36585,note_on,0,0,1,,,,,,,,,0,,,79,0
36600,note_on,0,0,3,,,,,,,,,0,,,62,105
36600,note_on,45,0,3,,,,,,,,,0,,,69,105
36615,note_on,0,0,3,,,,,,,,,0,,,69,0
36615,note_on,15,0,3,,,,,,,,,0,,,62,0
36630,note_on,45,0,1,,,,,,,,,0,,,89,107
36630,note_on,0,0,1,,,,,,,,,0,,,81,107
36630,note_on,0,0,1,,,,,,,,,0,,,77,107
36645,note_on,0,0,1,,,,,,,,,0,,,81,0
36645,note_on,15,0,1,,,,,,,,,0,,,77,0
36645,note_on,0,0,1,,,,,,,,,0,,,89,0
36660,note_on,0,0,3,,,,,,,,,0,,,65,108
36660,note_on,45,0,3,,,,,,,,,0,,,69,108
36675,note_on,15,0,3,,,,,,,,,0,,,65,0
36675,note_on,0,0,3,,,,,,,,,0,,,69,0
36690,note_on,0,0,1,,,,,,,,,0,,,74,109
36690,note_on,45,0,1,,,,,,,,,0,,,86,109
36690,note_on,0,0,1,,,,,,,,,0,,,77,109
36705,note_on,0,0,1,,,,,,,,,0,,,74,0
36705,note_on,0,0,1,,,,,,,,,0,,,86,0
36705,note_on,15,0,1,,,,,,,,,0,,,77,0
36720,note_on,0,0,1,,,,,,,,,0,,,62,127
36720,note_on,0,0,1,,,,,,,,,0,,,67,127
36720,note_on,0,0,1,,,,,,,,,0,,,71,127
36720,note_on,0,0,4,,,,,,,,,0,,,43,127
36720,note_on,15,0,1,,,,,,,,,0,,,74,127
36720,note_on,225,0,4,,,,,,,,,0,,,55,127
36735,note_on,15,0,4,,,,,,,,,0,,,43,0
36735,note_on,15,0,1,,,,,,,,,0,,,62,0
36735,note_on,0,0,4,,,,,,,,,0,,,55,0
36735,note_on,0,0,1,,,,,,,,,0,,,74,0
36735,note_on,0,0,1,,,,,,,,,0,,,71,0
36735,note_on,0,0,1,,,,,,,,,0,,,67,0
36780,note_on,0,0,4,,,,,,,,,0,,,45,100
36780,note_on,45,0,4,,,,,,,,,0,,,57,100
36795,note_on,0,0,4,,,,,,,,,0,,,57,0
36795,note_on,15,0,4,,,,,,,,,0,,,45,0
36810,note_on,0,0,1,,,,,,,,,0,,,72,100
36810,note_on,0,0,1,,,,,,,,,0,,,62,100
36810,note_on,75,0,1,,,,,,,,,0,,,74,100
36810,note_on,0,0,1,,,,,,,,,0,,,67,100
36825,note_on,15,0,1,,,,,,,,,0,,,62,0
36825,note_on,0,0,1,,,,,,,,,0,,,74,0
36825,note_on,0,0,1,,,,,,,,,0,,,72,0
36825,note_on,0,0,1,,,,,,,,,0,,,67,0
36840,note_on,45,0,4,,,,,,,,,0,,,59,100
36840,note_on,0,0,4,,,,,,,,,0,,,47,100
36855,note_on,0,0,4,,,,,,,,,0,,,59,0
36855,note_on,15,0,4,,,,,,,,,0,,,47,0
36870,note_on,0,0,1,,,,,,,,,0,,,62,100
36870,note_on,45,0,1,,,,,,,,,0,,,74,100
36870,note_on,0,0,1,,,,,,,,,0,,,67,100
36885,note_on,15,0,1,,,,,,,,,0,,,62,0
36885,note_on,0,0,1,,,,,,,,,0,,,67,0
36885,note_on,0,0,1,,,,,,,,,0,,,74,0
36900,note_on,0,0,4,,,,,,,,,0,,,43,100
36900,note_on,45,0,4,,,,,,,,,0,,,55,100
36915,note_on,0,0,4,,,,,,,,,0,,,55,0
36915,note_on,15,0,4,,,,,,,,,0,,,43,0
36930,note_on,45,0,1,,,,,,,,,0,,,71,100
36930,note_on,0,0,1,,,,,,,,,0,,,62,100
36930,note_on,0,0,1,,,,,,,,,0,,,74,100
36945,note_on,15,0,1,,,,,,,,,0,,,62,0
36945,note_on,0,0,1,,,,,,,,,0,,,71,0
36945,note_on,0,0,1,,,,,,,,,0,,,74,0
36960,note_on,45,0,4,,,,,,,,,0,,,60,100
36960,note_on,0,0,4,,,,,,,,,0,,,48,100
36975,note_on,15,0,4,,,,,,,,,0,,,48,0
36975,note_on,0,0,4,,,,,,,,,0,,,60,0
36990,note_on,0,0,1,,,,,,,,,0,,,76,101
36990,note_on,0,0,1,,,,,,,,,0,,,84,101
36990,note_on,45,0,1,,,,,,,,,0,,,88,101
37005,note_on,0,0,1,,,,,,,,,0,,,88,0
37005,note_on,0,0,1,,,,,,,,,0,,,84,0
37005,note_on,15,0,1,,,,,,,,,0,,,76,0
37020,note_on,345,0,3,,,,,,,,,0,,,62,102
37020,note_on,0,0,3,,,,,,,,,0,,,67,102
37035,note_on,15,0,3,,,,,,,,,0,,,67,0
37035,note_on,0,0,3,,,,,,,,,0,,,62,0
37050,note_on,0,0,1,,,,,,,,,0,,,84,104
37050,note_on,0,0,1,,,,,,,,,0,,,89,104
37050,note_on,45,0,1,,,,,,,,,0,,,77,104
37065,note_on,0,0,1,,,,,,,,,0,,,77,0
37065,note_on,0,0,1,,,,,,,,,0,,,84,0
37065,note_on,15,0,1,,,,,,,,,0,,,89,0
37080,note_on,45,0,3,,,,,,,,,0,,,64,105
37080,note_on,0,0,3,,,,,,,,,0,,,67,105
37095,note_on,0,0,3,,,,,,,,,0,,,64,0
37095,note_on,15,0,3,,,,,,,,,0,,,67,0
37110,note_on,0,0,1,,,,,,,,,0,,,79,107
37110,note_on,45,0,1,,,,,,,,,0,,,91,107
37110,note_on,0,0,1,,,,,,,,,0,,,84,107
37125,note_on,0,0,1,,,,,,,,,0,,,84,0
37125,note_on,15,0,1,,,,,,,,,0,,,79,0
37125,note_on,0,0,1,,,,,,,,,0,,,91,0
37140,note_on,0,0,3,,,,,,,,,0,,,67,108
37140,note_on,45,0,3,,,,,,,,,0,,,60,108
37155,note_on,15,0,3,,,,,,,,,0,,,67,0
37155,note_on,0,0,3,,,,,,,,,0,,,60,0
37170,note_on,45,0,1,,,,,,,,,0,,,76,109
37170,note_on,0,0,1,,,,,,,,,0,,,84,109
37170,note_on,0,0,1,,,,,,,,,0,,,88,109
37185,note_on,15,0,1,,,,,,,,,0,,,88,0
37185,note_on,0,0,1,,,,,,,,,0,,,76,0
37185,note_on,0,0,1,,,,,,,,,0,,,84,0
37200,note_on,0,0,4,,,,,,,,,0,,,50,127
37200,note_on,225,0,4,,,,,,,,,0,,,62,127
37200,note_on,0,0,1,,,,,,,,,0,,,83,127
37200,note_on,15,0,1,,,,,,,,,0,,,89,127
37200,note_on,0,0,1,,,,,,,,,0,,,77,127
37200,note_on,0,0,1,,,,,,,,,0,,,80,127
37215,note_on,0,0,4,,,,,,,,,0,,,62,0
37215,note_on,15,0,4,,,,,,,,,0,,,50,0
37215,note_on,15,0,1,,,,,,,,,0,,,77,0
37215,note_on,0,0,1,,,,,,,,,0,,,89,0
37215,note_on,0,0,1,,,,,,,,,0,,,83,0
37215,note_on,0,0,1,,,,,,,,,0,,,80,0
37260,note_on,0,0,3,,,,,,,,,0,,,68,100
37260,note_on,0,0,3,,,,,,,,,0,,,71,100
37260,note_on,105,0,3,,,,,,,,,0,,,65,100
37275,note_on,0,0,3,,,,,,,,,0,,,68,0
37275,note_on,15,0,3,,,,,,,,,0,,,71,0
37275,note_on,0,0,3,,,,,,,,,0,,,65,0
37290,note_on,0,0,1,,,,,,,,,0,,,83,100
37290,note_on,75,0,1,,,,,,,,,0,,,86,100
37290,note_on,0,0,1,,,,,,,,,0,,,74,100
37290,note_on,0,0,1,,,,,,,,,0,,,80,100
37305,note_on,0,0,1,,,,,,,,,0,,,80,0
37305,note_on,0,0,1,,,,,,,,,0,,,83,0
37305,note_on,0,0,1,,,,,,,,,0,,,86,0
37305,note_on,15,0,1,,,,,,,,,0,,,74,0
37320,note_on,45,0,3,,,,,,,,,0,,,64,100
37320,note_on,0,0,3,,,,,,,,,0,,,68,100
37320,note_on,0,0,3,,,,,,,,,0,,,71,100
37335,note_on,15,0,3,,,,,,,,,0,,,71,0
37335,note_on,0,0,3,,,,,,,,,0,,,64,0
37335,note_on,0,0,3,,,,,,,,,0,,,68,0
37350,note_on,0,0,1,,,,,,,,,0,,,76,100
37350,note_on,0,0,1,,,,,,,,,0,,,80,100
37350,note_on,0,0,1,,,,,,,,,0,,,83,100
37350,note_on,45,0,1,,,,,,,,,0,,,88,100
37365,note_on,15,0,1,,,,,,,,,0,,,76,0
37365,note_on,0,0,1,,,,,,,,,0,,,88,0
37365,note_on,0,0,1,,,,,,,,,0,,,83,0
37365,note_on,0,0,1,,,,,,,,,0,,,80,0
37380,note_on,0,0,3,,,,,,,,,0,,,68,100
37380,note_on,0,0,3,,,,,,,,,0,,,71,100
37380,note_on,45,0,3,,,,,,,,,0,,,62,100
37395,note_on,15,0,3,,,,,,,,,0,,,71,0
37395,note_on,0,0,3,,,,,,,,,0,,,68,0
37395,note_on,0,0,3,,,,,,,,,0,,,62,0
37410,note_on,45,0,1,,,,,,,,,0,,,89,100
37410,note_on,0,0,1,,,,,,,,,0,,,77,100
37410,note_on,0,0,1,,,,,,,,,0,,,80,100
37410,note_on,0,0,1,,,,,,,,,0,,,83,100
37425,note_on,0,0,1,,,,,,,,,0,,,89,0
37425,note_on,15,0,1,,,,,,,,,0,,,77,0
37425,note_on,0,0,1,,,,,,,,,0,,,83,0
37425,note_on,0,0,1,,,,,,,,,0,,,80,0
37440,note_on,0,0,3,,,,,,,,,0,,,69,100
37440,note_on,0,0,3,,,,,,,,,0,,,72,100
37440,note_on,45,0,3,,,,,,,,,0,,,60,100
37455,note_on,0,0,3,,,,,,,,,0,,,69,0
37455,note_on,15,0,3,,,,,,,,,0,,,72,0
37455,note_on,0,0,3,,,,,,,,,0,,,60,0
37470,note_on,0,0,1,,,,,,,,,0,,,81,100
37470,note_on,45,0,1,,,,,,,,,0,,,88,100
37470,note_on,0,0,1,,,,,,,,,0,,,76,100
37485,note_on,0,0,1,,,,,,,,,0,,,88,0
37485,note_on,15,0,1,,,,,,,,,0,,,76,0
37485,note_on,0,0,1,,,,,,,,,0,,,81,0
37500,note_on,45,0,3,,,,,,,,,0,,,59,100
37500,note_on,0,0,3,,,,,,,,,0,,,65,100
37500,note_on,0,0,3,,,,,,,,,0,,,68,100
37515,note_on,15,0,3,,,,,,,,,0,,,68,0
37515,note_on,0,0,3,,,,,,,,,0,,,59,0
37515,note_on,0,0,3,,,,,,,,,0,,,65,0
37530,note_on,0,0,1,,,,,,,,,0,,,74,100
37530,note_on,45,0,1,,,,,,,,,0,,,86,100
37530,note_on,0,0,1,,,,,,,,,0,,,80,100
37530,note_on,0,0,1,,,,,,,,,0,,,77,100
37545,note_on,15,0,1,,,,,,,,,0,,,74,0
37545,note_on,0,0,1,,,,,,,,,0,,,86,0
37545,note_on,0,0,1,,,,,,,,,0,,,80,0
37545,note_on,0,0,1,,,,,,,,,0,,,77,0
37560,note_on,45,0,3,,,,,,,,,0,,,57,100
37560,note_on,0,0,3,,,,,,,,,0,,,64,100
37560,note_on,0,0,3,,,,,,,,,0,,,69,100
37575,note_on,0,0,3,,,,,,,,,0,,,64,0
37575,note_on,0,0,3,,,,,,,,,0,,,57,0
37575,note_on,15,0,3,,,,,,,,,0,,,69,0
37590,note_on,45,0,1,,,,,,,,,0,,,84,100
37590,note_on,0,0,1,,,,,,,,,0,,,72,100
37590,note_on,0,0,1,,,,,,,,,0,,,76,100
37590,note_on,0,0,1,,,,,,,,,0,,,81,100
37605,note_on,0,0,1,,,,,,,,,0,,,76,0
37605,note_on,0,0,1,,,,,,,,,0,,,81,0
37605,note_on,15,0,1,,,,,,,,,0,,,72,0
37605,note_on,0,0,1,,,,,,,,,0,,,84,0
37620,note_on,0,0,4,,,,,,,,,0,,,55,100
37620,note_on,0,0,4,,,,,,,,,0,,,61,100
37620,note_on,405,0,4,,,,,,,,,0,,,64,100
37635,note_on,0,0,4,,,,,,,,,0,,,61,0
37635,note_on,0,0,4,,,,,,,,,0,,,64,0
37635,note_on,15,0,4,,,,,,,,,0,,,55,0
37650,note_on,0,0,1,,,,,,,,,0,,,76,100
37650,note_on,0,0,1,,,,,,,,,0,,,73,100
37650,note_on,0,0,1,,,,,,,,,0,,,82,100
37650,note_on,45,0,1,,,,,,,,,0,,,85,100
37665,note_on,0,0,1,,,,,,,,,0,,,76,0
37665,note_on,0,0,1,,,,,,,,,0,,,82,0
37665,note_on,0,0,1,,,,,,,,,0,,,85,0
37665,note_on,15,0,1,,,,,,,,,0,,,73,0
37680,note_on,45,0,4,,,,,,,,,0,,,65,100
37680,note_on,0,0,4,,,,,,,,,0,,,53,100
37680,note_on,0,0,4,,,,,,,,,0,,,62,100
37695,note_on,15,0,4,,,,,,,,,0,,,53,0
37695,note_on,0,0,4,,,,,,,,,0,,,62,0
37695,note_on,0,0,4,,,,,,,,,0,,,65,0
37710,note_on,0,0,1,,,,,,,,,0,,,74,100
37710,note_on,45,0,1,,,,,,,,,0,,,86,100
37710,note_on,0,0,1,,,,,,,,,0,,,77,100
37710,note_on,0,0,1,,,,,,,,,0,,,83,100
37725,note_on,0,0,1,,,,,,,,,0,,,77,0
37725,note_on,0,0,1,,,,,,,,,0,,,83,0
37725,note_on,0,0,1,,,,,,,,,0,,,86,0
37725,note_on,15,0,1,,,,,,,,,0,,,74,0
37740,note_on,45,0,4,,,,,,,,,0,,,51,100
37740,note_on,0,0,4,,,,,,,,,0,,,63,100
37740,note_on,0,0,4,,,,,,,,,0,,,60,100
37740,note_on,0,0,4,,,,,,,,,0,,,57,100
37755,note_on,0,0,4,,,,,,,,,0,,,51,0
37755,note_on,0,0,4,,,,,,,,,0,,,60,0
37755,note_on,0,0,4,,,,,,,,,0,,,57,0
37755,note_on,15,0,4,,,,,,,,,0,,,63,0
37770,note_on,45,0,1,,,,,,,,,0,,,93,100
37770,note_on,0,0,1,,,,,,,,,0,,,81,100
37770,note_on,0,0,1,,,,,,,,,0,,,84,100
37770,note_on,0,0,1,,,,,,,,,0,,,89,100
37785,note_on,15,0,1,,,,,,,,,0,,,81,0
37785,note_on,0,0,1,,,,,,,,,0,,,89,0
37785,note_on,0,0,1,,,,,,,,,0,,,93,0
37785,note_on,0,0,1,,,,,,,,,0,,,84,0
37800,note_on,45,0,4,,,,,,,,,0,,,64,100
37800,note_on,0,0,4,,,,,,,,,0,,,52,100
37800,note_on,0,0,4,,,,,,,,,0,,,57,100
37800,note_on,0,0,4,,,,,,,,,0,,,60,100
37815,note_on,15,0,4,,,,,,,,,0,,,52,0
37815,note_on,0,0,4,,,,,,,,,0,,,60,0
37815,note_on,0,0,4,,,,,,,,,0,,,64,0
37815,note_on,0,0,4,,,,,,,,,0,,,57,0
37830,note_on,45,0,1,,,,,,,,,0,,,93,100
37830,note_on,0,0,1,,,,,,,,,0,,,81,100
37830,note_on,0,0,1,,,,,,,,,0,,,84,100
37830,note_on,0,0,1,,,,,,,,,0,,,88,100
37845,note_on,0,0,1,,,,,,,,,0,,,84,0
37845,note_on,0,0,1,,,,,,,,,0,,,88,0
37845,note_on,0,0,1,,,,,,,,,0,,,93,0
37845,note_on,15,0,1,,,,,,,,,0,,,81,0
37860,note_on,0,0,4,,,,,,,,,0,,,64,100
37860,note_on,45,0,4,,,,,,,,,0,,,52,100
37860,note_on,0,0,4,,,,,,,,,0,,,59,100
37860,note_on,0,0,4,,,,,,,,,0,,,56,100
37875,note_on,0,0,4,,,,,,,,,0,,,59,0
37875,note_on,0,0,4,,,,,,,,,0,,,56,0
37875,note_on,0,0,4,,,,,,,,,0,,,52,0
37875,note_on,15,0,4,,,,,,,,,0,,,64,0
37890,note_on,45,0,1,,,,,,,,,0,,,92,100
37890,note_on,0,0,1,,,,,,,,,0,,,88,100
37890,note_on,0,0,1,,,,,,,,,0,,,83,100
37890,note_on,0,0,1,,,,,,,,,0,,,80,100
37905,note_on,0,0,1,,,,,,,,,0,,,92,0
37905,note_on,0,0,1,,,,,,,,,0,,,83,0
37905,note_on,0,0,1,,,,,,,,,0,,,88,0
37905,note_on,15,0,1,,,,,,,,,0,,,80,0
37920,note_on,15,0,1,,,,,,,,,0,,,93,127
37920,note_on,0,0,4,,,,,,,,,0,,,52,127
37920,note_on,0,0,4,,,,,,,,,0,,,45,127
37920,note_on,45,0,4,,,,,,,,,0,,,57,127
37920,note_on,0,0,1,,,,,,,,,0,,,81,127
37920,note_on,0,0,1,,,,,,,,,0,,,84,127
37920,note_on,0,0,1,,,,,,,,,0,,,88,127
38040,note_on,0,0,4,,,,,,,,,0,,,52,0
38040,note_on,465,0,3,,,,,,,,,0,,,69,100
38040,note_on,120,0,4,,,,,,,,,0,,,45,0
38040,note_on,120,0,1,,,,,,,,,0,,,81,0
38040,note_on,0,0,3,,,,,,,,,0,,,60,100
38040,note_on,0,0,3,,,,,,,,,0,,,64,100
38040,note_on,0,0,1,,,,,,,,,0,,,72,100
38040,note_on,0,0,1,,,,,,,,,0,,,76,100
38040,note_on,0,0,1,,,,,,,,,0,,,81,100
38040,note_on,0,0,1,,,,,,,,,0,,,84,0
38040,note_on,0,0,1,,,,,,,,,0,,,88,0
38040,note_on,0,0,1,,,,,,,,,0,,,93,0
38040,note_on,0,0,4,,,,,,,,,0,,,57,0
38055,note_on,0,0,3,,,,,,,,,0,,,69,0
38055,note_on,0,0,3,,,,,,,,,0,,,64,0
38055,note_on,0,0,1,,,,,,,,,0,,,76,0
38055,note_on,0,0,1,,,,,,,,,0,,,81,0
38055,note_on,15,0,1,,,,,,,,,0,,,72,0
38055,note_on,15,0,3,,,,,,,,,0,,,60,0
38160,set_tempo,3840,1,0,,,,,,476190,,,,,,,
38160,marker,0,1,0,,,,,,,,,,,,,
38160,note_on,120,0,4,,,,,,,,,0,,,57,40
38160,note_on,105,0,1,,,,,,,,,0,,,76,40
38165,note_on,5,0,1,,,,,,,,,0,,,84,60
38175,note_on,15,0,4,,,,,,,,,0,,,57,0
38180,note_on,15,0,1,,,,,,,,,0,,,84,0
38190,note_on,10,0,1,,,,,,,,,0,,,81,40
38190,note_on,15,0,4,,,,,,,,,0,,,64,40
38205,note_on,15,0,4,,,,,,,,,0,,,64,0
38205,note_on,15,0,1,,,,,,,,,0,,,81,0
38220,note_on,15,0,4,,,,,,,,,0,,,52,40
38220,note_on,0,0,1,,,,,,,,,0,,,76,40
38220,note_on,15,0,1,,,,,,,,,0,,,76,0
38235,note_on,15,0,4,,,,,,,,,0,,,52,0
38235,note_on,15,0,1,,,,,,,,,0,,,76,0
38250,note_on,15,0,1,,,,,,,,,0,,,72,40
38250,note_on,15,0,4,,,,,,,,,0,,,64,40
38265,note_on,15,0,1,,,,,,,,,0,,,72,0
38265,note_on,15,0,4,,,,,,,,,0,,,64,0
38280,note_on,15,0,1,,,,,,,,,0,,,69,40
38280,note_on,15,0,4,,,,,,,,,0,,,60,40
38295,note_on,15,0,4,,,,,,,,,0,,,60,0
38295,note_on,15,0,1,,,,,,,,,0,,,69,0
38310,note_on,15,0,4,,,,,,,,,0,,,64,40
38310,note_on,15,0,1,,,,,,,,,0,,,76,40
38325,note_on,15,0,4,,,,,,,,,0,,,64,0
38325,note_on,15,0,1,,,,,,,,,0,,,76,0
38340,note_on,15,0,4,,,,,,,,,0,,,57,40
38340,note_on,15,0,1,,,,,,,,,0,,,72,40
38355,note_on,15,0,1,,,,,,,,,0,,,72,0
38355,note_on,15,0,4,,,,,,,,,0,,,57,0
38370,note_on,15,0,1,,,,,,,,,0,,,69,40
38370,note_on,15,0,4,,,,,,,,,0,,,64,40
38385,note_on,15,0,4,,,,,,,,,0,,,64,0
38385,note_on,15,0,1,,,,,,,,,0,,,69,0
38400,note_on,15,0,4,,,,,,,,,0,,,56,40
38400,note_on,15,0,1,,,,,,,,,0,,,76,40
38405,note_on,5,0,1,,,,,,,,,0,,,83,60
38415,note_on,15,0,4,,,,,,,,,0,,,56,0
38420,note_on,15,0,1,,,,,,,,,0,,,83,0
38430,note_on,15,0,4,,,,,,,,,0,,,64,40
38430,note_on,10,0,1,,,,,,,,,0,,,80,40
38445,note_on,15,0,4,,,,,,,,,0,,,64,0
38445,note_on,15,0,1,,,,,,,,,0,,,80,0
38460,note_on,15,0,1,,,,,,,,,0,,,76,0
38460,note_on,0,0,1,,,,,,,,,0,,,76,40
38460,note_on,15,0,4,,,,,,,,,0,,,52,40
38475,note_on,15,0,4,,,,,,,,,0,,,52,0
38475,note_on,15,0,1,,,,,,,,,0,,,76,0
38490,note_on,15,0,4,,,,,,,,,0,,,64,40
38490,note_on,15,0,1,,,,,,,,,0,,,86,40
38505,note_on,15,0,1,,,,,,,,,0,,,86,0
38505,note_on,15,0,4,,,,,,,,,0,,,64,0
38520,note_on,15,0,1,,,,,,,,,0,,,83,40
38520,note_on,15,0,4,,,,,,,,,0,,,56,40
38535,note_on,15,0,1,,,,,,,,,0,,,83,0
38535,note_on,15,0,4,,,,,,,,,0,,,56,0
38550,note_on,15,0,4,,,,,,,,,0,,,64,40
38550,note_on,15,0,1,,,,,,,,,0,,,76,40
38565,note_on,15,0,4,,,,,,,,,0,,,64,0
38565,note_on,15,0,1,,,,,,,,,0,,,76,0
38580,note_on,15,0,4,,,,,,,,,0,,,59,40
38580,note_on,15,0,1,,,,,,,,,0,,,80,40
38595,note_on,15,0,4,,,,,,,,,0,,,59,0
38595,note_on,15,0,1,,,,,,,,,0,,,80,0
38610,note_on,15,0,1,,,,,,,,,0,,,76,40
38610,note_on,15,0,4,,,,,,,,,0,,,64,40
38625,note_on,15,0,1,,,,,,,,,0,,,76,0
38625,note_on,15,0,4,,,,,,,,,0,,,64,0
38640,note_on,15,0,1,,,,,,,,,0,,,76,40
38640,note_on,15,0,4,,,,,,,,,0,,,57,40
38645,note_on,5,0,1,,,,,,,,,0,,,84,60
38655,note_on,15,0,4,,,,,,,,,0,,,57,0
38660,note_on,15,0,1,,,,,,,,,0,,,84,0
38670,note_on,15,0,4,,,,,,,,,0,,,64,40
38670,note_on,10,0,1,,,,,,,,,0,,,81,40
38685,note_on,15,0,1,,,,,,,,,0,,,81,0
38685,note_on,15,0,4,,,,,,,,,0,,,64,0
38700,note_on,15,0,4,,,,,,,,,0,,,52,40
38700,note_on,15,0,1,,,,,,,,,0,,,76,0
38700,note_on,0,0,1,,,,,,,,,0,,,76,40
38715,note_on,15,0,4,,,,,,,,,0,,,52,0
38715,note_on,15,0,1,,,,,,,,,0,,,76,0
38730,note_on,15,0,4,,,,,,,,,0,,,64,40
38730,note_on,15,0,1,,,,,,,,,0,,,72,40
38745,note_on,15,0,4,,,,,,,,,0,,,64,0
38745,note_on,15,0,1,,,,,,,,,0,,,72,0
38760,note_on,15,0,1,,,,,,,,,0,,,69,40
38760,note_on,15,0,4,,,,,,,,,0,,,60,40
38775,note_on,15,0,1,,,,,,,,,0,,,69,0
38775,note_on,15,0,4,,,,,,,,,0,,,60,0
38790,note_on,15,0,4,,,,,,,,,0,,,64,40
38790,note_on,15,0,1,,,,,,,,,0,,,76,40
38805,note_on,15,0,1,,,,,,,,,0,,,76,0
38805,note_on,15,0,4,,,,,,,,,0,,,64,0
38820,note_on,15,0,4,,,,,,,,,0,,,57,40
38820,note_on,15,0,1,,,,,,,,,0,,,72,40
38835,note_on,15,0,4,,,,,,,,,0,,,57,0
38835,note_on,15,0,1,,,,,,,,,0,,,72,0
38850,note_on,15,0,4,,,,,,,,,0,,,64,40
38850,note_on,15,0,1,,,,,,,,,0,,,69,40
38865,note_on,15,0,1,,,,,,,,,0,,,69,0
38865,note_on,15,0,4,,,,,,,,,0,,,64,0
38880,note_on,15,0,4,,,,,,,,,0,,,56,40
38880,note_on,15,0,1,,,,,,,,,0,,,76,40
38885,note_on,5,0,1,,,,,,,,,0,,,83,60
38895,note_on,15,0,4,,,,,,,,,0,,,56,0
38900,note_on,15,0,1,,,,,,,,,0,,,83,0
38910,note_on,0,0,1,,,,,,,,,0,,,80,40
38910,note_on,10,0,1,,,,,,,,,0,,,76,0
38910,note_on,15,0,4,,,,,,,,,0,,,64,40
38925,note_on,15,0,4,,,,,,,,,0,,,64,0
38925,note_on,15,0,1,,,,,,,,,0,,,80,0
38940,note_on,15,0,1,,,,,,,,,0,,,76,40
38940,note_on,15,0,4,,,,,,,,,0,,,52,40
38955,note_on,15,0,1,,,,,,,,,0,,,76,0
38955,note_on,15,0,4,,,,,,,,,0,,,52,0
38970,note_on,15,0,1,,,,,,,,,0,,,76,40
38970,note_on,15,0,4,,,,,,,,,0,,,64,40
38985,note_on,15,0,4,,,,,,,,,0,,,64,0
38985,note_on,15,0,1,,,,,,,,,0,,,76,0
39000,note_on,15,0,4,,,,,,,,,0,,,56,40
39000,note_on,15,0,1,,,,,,,,,0,,,71,40
39015,note_on,15,0,1,,,,,,,,,0,,,71,0
39015,note_on,15,0,4,,,,,,,,,0,,,56,0
39030,note_on,15,0,4,,,,,,,,,0,,,59,40
39030,note_on,15,0,1,,,,,,,,,0,,,68,40
39045,note_on,15,0,4,,,,,,,,,0,,,59,0
39045,note_on,15,0,1,,,,,,,,,0,,,68,0
39060,note_on,15,0,4,,,,,,,,,0,,,64,40
39120,note_on,0,0,4,,,,,,,,,0,,,57,40
39120,note_on,75,0,1,,,,,,,,,0,,,84,40
39120,note_on,60,0,4,,,,,,,,,0,,,64,0
39125,note_on,5,0,1,,,,,,,,,0,,,88,40
39130,note_on,5,0,1,,,,,,,,,0,,,96,60
39135,note_on,15,0,4,,,,,,,,,0,,,57,0
39145,note_on,15,0,1,,,,,,,,,0,,,96,0
39150,note_on,15,0,4,,,,,,,,,0,,,64,40
39150,note_on,5,0,1,,,,,,,,,0,,,93,40
39165,note_on,15,0,4,,,,,,,,,0,,,64,0
39165,note_on,15,0,1,,,,,,,,,0,,,93,0
39180,note_on,15,0,1,,,,,,,,,0,,,88,0
39180,note_on,0,0,1,,,,,,,,,0,,,88,40
39180,note_on,0,0,1,,,,,,,,,0,,,84,0
39180,note_on,15,0,4,,,,,,,,,0,,,52,40
39195,note_on,15,0,4,,,,,,,,,0,,,52,0
39195,note_on,15,0,1,,,,,,,,,0,,,88,0
39210,note_on,15,0,1,,,,,,,,,0,,,84,40
39210,note_on,15,0,4,,,,,,,,,0,,,64,40
39225,note_on,15,0,1,,,,,,,,,0,,,84,0
39225,note_on,15,0,4,,,,,,,,,0,,,64,0
39240,note_on,15,0,1,,,,,,,,,0,,,81,40
39240,note_on,15,0,4,,,,,,,,,0,,,60,40
39255,note_on,15,0,1,,,,,,,,,0,,,81,0
39255,note_on,15,0,4,,,,,,,,,0,,,60,0
39270,note_on,15,0,1,,,,,,,,,0,,,88,40
39270,note_on,15,0,4,,,,,,,,,0,,,64,40
39285,note_on,15,0,1,,,,,,,,,0,,,88,0
39285,note_on,15,0,4,,,,,,,,,0,,,64,0
39300,note_on,15,0,4,,,,,,,,,0,,,57,40
39300,note_on,15,0,1,,,,,,,,,0,,,84,40
39315,note_on,15,0,4,,,,,,,,,0,,,57,0
39315,note_on,15,0,1,,,,,,,,,0,,,84,0
39330,note_on,15,0,4,,,,,,,,,0,,,64,40
39330,note_on,15,0,1,,,,,,,,,0,,,81,40
39345,note_on,15,0,4,,,,,,,,,0,,,64,0
39345,note_on,15,0,1,,,,,,,,,0,,,81,0
39360,note_on,15,0,4,,,,,,,,,0,,,56,40
39360,note_on,15,0,1,,,,,,,,,0,,,83,40
39365,note_on,5,0,1,,,,,,,,,0,,,88,40
39370,note_on,5,0,1,,,,,,,,,0,,,95,60
39375,note_on,15,0,4,,,,,,,,,0,,,56,0
39385,note_on,15,0,1,,,,,,,,,0,,,95,0
39390,note_on,15,0,4,,,,,,,,,0,,,64,40
39390,note_on,5,0,1,,,,,,,,,0,,,92,40
39405,note_on,15,0,4,,,,,,,,,0,,,64,0
39405,note_on,15,0,1,,,,,,,,,0,,,92,0
39420,note_on,0,0,1,,,,,,,,,0,,,83,0
39420,note_on,15,0,4,,,,,,,,,0,,,52,40
39420,note_on,0,0,1,,,,,,,,,0,,,88,40
39420,note_on,15,0,1,,,,,,,,,0,,,88,0
39435,note_on,15,0,4,,,,,,,,,0,,,52,0
39435,note_on,15,0,1,,,,,,,,,0,,,88,0
39450,note_on,15,0,4,,,,,,,,,0,,,64,40
39450,note_on,15,0,1,,,,,,,,,0,,,98,40
39465,note_on,15,0,4,,,,,,,,,0,,,64,0
39465,note_on,15,0,1,,,,,,,,,0,,,98,0
39480,note_on,15,0,4,,,,,,,,,0,,,56,40
39480,note_on,15,0,1,,,,,,,,,0,,,95,40
39495,note_on,15,0,4,,,,,,,,,0,,,56,0
39495,note_on,15,0,1,,,,,,,,,0,,,95,0
39510,note_on,15,0,4,,,,,,,,,0,,,64,40
39510,note_on,15,0,1,,,,,,,,,0,,,88,40
39525,note_on,15,0,1,,,,,,,,,0,,,88,0
39525,note_on,15,0,4,,,,,,,,,0,,,64,0
39540,note_on,15,0,4,,,,,,,,,0,,,59,40
39540,note_on,15,0,1,,,,,,,,,0,,,92,40
39555,note_on,15,0,4,,,,,,,,,0,,,59,0
39555,note_on,15,0,1,,,,,,,,,0,,,92,0
39570,note_on,15,0,4,,,,,,,,,0,,,64,40
39570,note_on,15,0,1,,,,,,,,,0,,,88,40
39585,note_on,15,0,1,,,,,,,,,0,,,88,0
39585,note_on,15,0,4,,,,,,,,,0,,,64,0
39600,note_on,15,0,1,,,,,,,,,0,,,84,40
39600,note_on,15,0,4,,,,,,,,,0,,,57,40
39605,note_on,5,0,1,,,,,,,,,0,,,88,40
39610,note_on,5,0,1,,,,,,,,,0,,,96,60
39615,note_on,15,0,4,,,,,,,,,0,,,57,0
39625,note_on,15,0,1,,,,,,,,,0,,,96,0
39630,note_on,15,0,4,,,,,,,,,0,,,64,40
39630,note_on,5,0,1,,,,,,,,,0,,,93,40
39645,note_on,15,0,1,,,,,,,,,0,,,93,0
39645,note_on,15,0,4,,,,,,,,,0,,,64,0
39660,note_on,0,0,1,,,,,,,,,0,,,84,0
39660,note_on,15,0,4,,,,,,,,,0,,,52,40
39660,note_on,0,0,1,,,,,,,,,0,,,88,40
39660,note_on,15,0,1,,,,,,,,,0,,,88,0
39675,note_on,15,0,1,,,,,,,,,0,,,88,0
39675,note_on,15,0,4,,,,,,,,,0,,,52,0
39690,note_on,15,0,1,,,,,,,,,0,,,84,40
39690,note_on,15,0,4,,,,,,,,,0,,,64,40
39705,note_on,15,0,1,,,,,,,,,0,,,84,0
39705,note_on,15,0,4,,,,,,,,,0,,,64,0
39720,note_on,15,0,1,,,,,,,,,0,,,81,40
39720,note_on,15,0,4,,,,,,,,,0,,,60,40
39735,note_on,15,0,4,,,,,,,,,0,,,60,0
39735,note_on,15,0,1,,,,,,,,,0,,,81,0
39750,note_on,15,0,1,,,,,,,,,0,,,88,40
39750,note_on,15,0,4,,,,,,,,,0,,,64,40
39765,note_on,15,0,1,,,,,,,,,0,,,88,0
39765,note_on,15,0,4,,,,,,,,,0,,,64,0
39780,note_on,15,0,4,,,,,,,,,0,,,57,40
39780,note_on,15,0,1,,,,,,,,,0,,,84,40
39795,note_on,15,0,4,,,,,,,,,0,,,57,0
39795,note_on,15,0,1,,,,,,,,,0,,,84,0
39810,note_on,15,0,4,,,,,,,,,0,,,64,40
39810,note_on,15,0,1,,,,,,,,,0,,,81,40
39825,note_on,15,0,1,,,,,,,,,0,,,81,0
39825,note_on,15,0,4,,,,,,,,,0,,,64,0
39840,note_on,15,0,1,,,,,,,,,0,,,83,40
39840,note_on,15,0,4,,,,,,,,,0,,,56,40
39845,note_on,5,0,1,,,,,,,,,0,,,88,40
39850,note_on,5,0,1,,,,,,,,,0,,,95,60
39855,note_on,15,0,4,,,,,,,,,0,,,56,0
39865,note_on,15,0,1,,,,,,,,,0,,,95,0
39870,note_on,5,0,1,,,,,,,,,0,,,92,40
39870,note_on,15,0,4,,,,,,,,,0,,,64,40
39885,note_on,15,0,4,,,,,,,,,0,,,64,0
39885,note_on,15,0,1,,,,,,,,,0,,,92,0
39900,note_on,15,0,1,,,,,,,,,0,,,88,0
39900,note_on,0,0,1,,,,,,,,,0,,,83,0
39900,note_on,0,0,1,,,,,,,,,0,,,88,40
39900,note_on,15,0,4,,,,,,,,,0,,,52,40
39915,note_on,15,0,4,,,,,,,,,0,,,52,0
39915,note_on,15,0,1,,,,,,,,,0,,,88,0
39930,note_on,15,0,4,,,,,,,,,0,,,64,40
39930,note_on,15,0,1,,,,,,,,,0,,,83,40
39945,note_on,15,0,4,,,,,,,,,0,,,64,0
39945,note_on,15,0,1,,,,,,,,,0,,,83,0
39960,note_on,15,0,4,,,,,,,,,0,,,59,40
39960,note_on,15,0,1,,,,,,,,,0,,,80,40
39975,note_on,15,0,4,,,,,,,,,0,,,59,0
39975,note_on,15,0,1,,,,,,,,,0,,,80,0
39990,note_on,15,0,4,,,,,,,,,0,,,68,40
39990,note_on,15,0,1,,,,,,,,,0,,,71,40
40005,note_on,15,0,1,,,,,,,,,0,,,71,0
40005,note_on,15,0,4,,,,,,,,,0,,,68,0
40020,note_on,15,0,4,,,,,,,,,0,,,64,40
40020,note_on,15,0,1,,,,,,,,,0,,,76,40
40080,note_on,0,0,1,,,,,,,,,0,,,81,40
40080,note_on,60,0,1,,,,,,,,,0,,,76,0
40080,note_on,60,0,4,,,,,,,,,0,,,64,0
40080,note_on,2025,0,3,,,,,,,,,0,,,61,40
40085,note_on,5,0,1,,,,,,,,,0,,,88,60
40095,note_on,15,0,3,,,,,,,,,0,,,61,0
40100,note_on,15,0,1,,,,,,,,,0,,,88,0
40110,note_on,15,0,3,,,,,,,,,0,,,69,40
40110,note_on,10,0,1,,,,,,,,,0,,,85,40
40125,note_on,15,0,3,,,,,,,,,0,,,69,0
40125,note_on,15,0,1,,,,,,,,,0,,,85,0
40140,note_on,15,0,1,,,,,,,,,0,,,81,40
40140,note_on,15,0,3,,,,,,,,,0,,,57,40
40155,note_on,15,0,3,,,,,,,,,0,,,57,0
40155,note_on,15,0,1,,,,,,,,,0,,,81,0
40170,note_on,15,0,1,,,,,,,,,0,,,76,40
40170,note_on,15,0,3,,,,,,,,,0,,,69,40
40185,note_on,15,0,3,,,,,,,,,0,,,69,0
40185,note_on,15,0,1,,,,,,,,,0,,,76,0
40200,note_on,15,0,1,,,,,,,,,0,,,81,0
40200,note_on,15,0,3,,,,,,,,,0,,,73,40
40215,note_on,15,0,3,,,,,,,,,0,,,73,0
40230,note_on,30,0,1,,,,,,,,,0,,,69,40
40245,note_on,15,0,1,,,,,,,,,0,,,69,0
40260,note_on,15,0,1,,,,,,,,,0,,,67,40
40275,note_on,15,0,1,,,,,,,,,0,,,67,0
40290,note_on,15,0,1,,,,,,,,,0,,,64,40
40305,note_on,15,0,1,,,,,,,,,0,,,64,0
40320,note_on,0,0,4,,,,,,,,,0,,,50,40
40320,note_on,15,0,1,,,,,,,,,0,,,65,40
40320,note_on,240,0,4,,,,,,,,,0,,,57,40
40335,note_on,15,0,1,,,,,,,,,0,,,65,0
40350,note_on,15,0,1,,,,,,,,,0,,,62,40
40365,note_on,15,0,1,,,,,,,,,0,,,62,0
40380,note_on,60,0,4,,,,,,,,,0,,,50,0
40380,note_on,15,0,1,,,,,,,,,0,,,86,40
40380,note_on,0,0,4,,,,,,,,,0,,,57,0
40395,note_on,15,0,1,,,,,,,,,0,,,86,0
40410,note_on,15,0,1,,,,,,,,,0,,,81,40
40425,note_on,15,0,1,,,,,,,,,0,,,81,0
40440,note_on,225,0,3,,,,,,,,,0,,,77,40
40455,note_on,15,0,3,,,,,,,,,0,,,77,0
40470,note_on,15,0,3,,,,,,,,,0,,,74,40
40485,note_on,15,0,3,,,,,,,,,0,,,74,0
40500,note_on,75,0,1,,,,,,,,,0,,,65,40
40515,note_on,15,0,1,,,,,,,,,0,,,65,0
40530,note_on,15,0,1,,,,,,,,,0,,,62,40
40545,note_on,15,0,1,,,,,,,,,0,,,62,0
40560,note_on,75,0,3,,,,,,,,,0,,,59,40
40560,note_on,15,0,1,,,,,,,,,0,,,79,40
40565,note_on,5,0,1,,,,,,,,,0,,,86,60
40575,note_on,15,0,3,,,,,,,,,0,,,59,0
40580,note_on,15,0,1,,,,,,,,,0,,,86,0
40590,note_on,15,0,3,,,,,,,,,0,,,67,40
40590,note_on,10,0,1,,,,,,,,,0,,,83,40
40605,note_on,15,0,3,,,,,,,,,0,,,67,0
40605,note_on,15,0,1,,,,,,,,,0,,,83,0
40620,note_on,15,0,1,,,,,,,,,0,,,79,40
40620,note_on,15,0,3,,,,,,,,,0,,,55,40
40635,note_on,15,0,3,,,,,,,,,0,,,55,0
40635,note_on,15,0,1,,,,,,,,,0,,,79,0
40650,note_on,15,0,1,,,,,,,,,0,,,77,40
40650,note_on,15,0,3,,,,,,,,,0,,,67,40
40665,note_on,15,0,1,,,,,,,,,0,,,77,0
40665,note_on,15,0,3,,,,,,,,,0,,,67,0
40680,note_on,15,0,1,,,,,,,,,0,,,79,0
40680,note_on,15,0,3,,,,,,,,,0,,,74,40
40695,note_on,15,0,3,,,,,,,,,0,,,74,0
40710,note_on,30,0,1,,,,,,,,,0,,,71,40
40725,note_on,15,0,1,,,,,,,,,0,,,71,0
40740,note_on,15,0,1,,,,,,,,,0,,,65,40
40755,note_on,15,0,1,,,,,,,,,0,,,65,0
40770,note_on,15,0,1,,,,,,,,,0,,,62,40
40785,note_on,15,0,1,,,,,,,,,0,,,62,0
40800,note_on,15,0,1,,,,,,,,,0,,,64,40
40800,note_on,420,0,4,,,,,,,,,0,,,55,40
40800,note_on,0,0,4,,,,,,,,,0,,,48,40
40815,note_on,15,0,1,,,,,,,,,0,,,64,0
40830,note_on,15,0,1,,,,,,,,,0,,,60,40
40845,note_on,15,0,1,,,,,,,,,0,,,60,0
40860,note_on,15,0,1,,,,,,,,,0,,,84,40
40860,note_on,0,0,4,,,,,,,,,0,,,55,0
40860,note_on,60,0,4,,,,,,,,,0,,,48,0
40875,note_on,15,0,1,,,,,,,,,0,,,84,0
40890,note_on,15,0,1,,,,,,,,,0,,,79,40
40905,note_on,15,0,1,,,,,,,,,0,,,79,0
40920,note_on,225,0,3,,,,,,,,,0,,,76,40
40935,note_on,15,0,3,,,,,,,,,0,,,76,0
40950,note_on,15,0,3,,,,,,,,,0,,,72,40
40965,note_on,15,0,3,,,,,,,,,0,,,72,0
40980,note_on,75,0,1,,,,,,,,,0,,,67,40
40995,note_on,15,0,1,,,,,,,,,0,,,67,0
41010,note_on,15,0,1,,,,,,,,,0,,,64,40
41025,note_on,15,0,1,,,,,,,,,0,,,64,0
41040,note_on,0,0,3,,,,,,,,,0,,,65,40
41040,note_on,15,0,1,,,,,,,,,0,,,83,40
41040,note_on,0,0,3,,,,,,,,,0,,,62,40
41040,note_on,75,0,3,,,,,,,,,0,,,56,40
41055,note_on,15,0,1,,,,,,,,,0,,,83,0
41070,note_on,0,0,1,,,,,,,,,0,,,81,40
41070,note_on,15,0,1,,,,,,,,,0,,,89,40
41085,note_on,15,0,1,,,,,,,,,0,,,81,0
41085,note_on,0,0,1,,,,,,,,,0,,,89,0
41100,note_on,15,0,1,,,,,,,,,0,,,80,40
41100,note_on,0,0,3,,,,,,,,,0,,,56,0
41100,note_on,0,0,3,,,,,,,,,0,,,62,0
41100,note_on,60,0,3,,,,,,,,,0,,,65,0
41115,note_on,15,0,1,,,,,,,,,0,,,80,0
41130,note_on,15,0,1,,,,,,,,,0,,,86,40
41130,note_on,0,0,1,,,,,,,,,0,,,77,40
41145,note_on,15,0,1,,,,,,,,,0,,,77,0
41145,note_on,0,0,1,,,,,,,,,0,,,86,0
41160,note_on,15,0,1,,,,,,,,,0,,,76,40
41175,note_on,15,0,1,,,,,,,,,0,,,76,0
41190,note_on,15,0,1,,,,,,,,,0,,,83,40
41190,note_on,0,0,1,,,,,,,,,0,,,74,40
41205,note_on,15,0,1,,,,,,,,,0,,,74,0
41205,note_on,0,0,1,,,,,,,,,0,,,83,0
41220,note_on,15,0,1,,,,,,,,,0,,,72,40
41235,note_on,15,0,1,,,,,,,,,0,,,72,0
41250,note_on,0,0,1,,,,,,,,,0,,,71,40
41250,note_on,15,0,1,,,,,,,,,0,,,80,40
41265,note_on,15,0,1,,,,,,,,,0,,,71,0
41265,note_on,0,0,1,,,,,,,,,0,,,80,0
41280,note_on,180,0,3,,,,,,,,,0,,,60,40
41280,note_on,0,0,3,,,,,,,,,0,,,64,40
41280,note_on,15,0,1,,,,,,,,,0,,,69,40
41295,note_on,15,0,1,,,,,,,,,0,,,69,0
41310,note_on,15,0,1,,,,,,,,,0,,,76,40
41310,note_on,0,0,1,,,,,,,,,0,,,67,40
41325,note_on,15,0,1,,,,,,,,,0,,,67,0
41325,note_on,0,0,1,,,,,,,,,0,,,76,0
41340,note_on,60,0,3,,,,,,,,,0,,,64,0
41340,note_on,0,0,3,,,,,,,,,0,,,60,0
41340,note_on,480,0,4,,,,,,,,,0,,,65,40
41355,note_on,15,0,4,,,,,,,,,0,,,65,0
41370,note_on,45,0,1,,,,,,,,,0,,,72,40
41370,note_on,0,0,1,,,,,,,,,0,,,64,40
41385,note_on,0,0,1,,,,,,,,,0,,,72,0
41385,note_on,15,0,1,,,,,,,,,0,,,64,0
41400,note_on,45,0,4,,,,,,,,,0,,,62,40
41415,note_on,15,0,4,,,,,,,,,0,,,62,0
41430,note_on,45,0,1,,,,,,,,,0,,,69,40
41430,note_on,0,0,1,,,,,,,,,0,,,60,40
41445,note_on,15,0,1,,,,,,,,,0,,,60,0
41445,note_on,0,0,1,,,,,,,,,0,,,69,0
41460,note_on,45,0,4,,,,,,,,,0,,,59,40
41475,note_on,15,0,4,,,,,,,,,0,,,59,0
41490,note_on,45,0,1,,,,,,,,,0,,,57,40
41490,note_on,0,0,1,,,,,,,,,0,,,64,40
41505,note_on,15,0,1,,,,,,,,,0,,,64,0
41505,note_on,0,0,1,,,,,,,,,0,,,57,0
41520,note_on,45,0,4,,,,,,,,,0,,,65,40
41535,note_on,15,0,4,,,,,,,,,0,,,65,0
41550,note_on,15,0,4,,,,,,,,,0,,,50,40
41565,note_on,15,0,4,,,,,,,,,0,,,50,0
41580,note_on,75,0,1,,,,,,,,,0,,,81,40
41580,note_on,0,0,1,,,,,,,,,0,,,71,40
41595,note_on,15,0,1,,,,,,,,,0,,,71,0
41595,note_on,0,0,1,,,,,,,,,0,,,81,0
41610,note_on,0,0,1,,,,,,,,,0,,,77,40
41610,note_on,15,0,1,,,,,,,,,0,,,74,40
41625,note_on,0,0,1,,,,,,,,,0,,,74,0
41625,note_on,15,0,1,,,,,,,,,0,,,77,0
41640,note_on,75,0,4,,,,,,,,,0,,,68,40
41655,note_on,15,0,4,,,,,,,,,0,,,68,0
41670,note_on,15,0,4,,,,,,,,,0,,,52,40
41685,note_on,15,0,4,,,,,,,,,0,,,52,0
41700,note_on,75,0,1,,,,,,,,,0,,,83,40
41700,note_on,0,0,1,,,,,,,,,0,,,71,40
41715,note_on,0,0,1,,,,,,,,,0,,,83,0
41715,note_on,15,0,1,,,,,,,,,0,,,71,0
41730,note_on,0,0,1,,,,,,,,,0,,,74,40
41730,note_on,15,0,1,,,,,,,,,0,,,80,40
41745,note_on,0,0,1,,,,,,,,,0,,,80,0
41745,note_on,15,0,1,,,,,,,,,0,,,74,0
41760,note_on,15,0,1,,,,,,,,,0,,,72,40
41760,note_on,0,0,1,,,,,,,,,0,,,81,40
41775,note_on,15,0,1,,,,,,,,,0,,,81,0
41775,note_on,0,0,1,,,,,,,,,0,,,72,0
41790,note_on,0,0,4,,,,,,,,,0,,,64,40
41790,note_on,105,0,4,,,,,,,,,0,,,69,40
41805,note_on,0,0,4,,,,,,,,,0,,,69,0
41805,note_on,15,0,4,,,,,,,,,0,,,64,0
41820,note_on,45,0,1,,,,,,,,,0,,,60,40
41835,note_on,15,0,1,,,,,,,,,0,,,60,0
41850,note_on,15,0,1,,,,,,,,,0,,,57,40
41865,note_on,15,0,1,,,,,,,,,0,,,57,0
41880,note_on,75,0,4,,,,,,,,,0,,,45,40
41940,note_on,60,0,4,,,,,,,,,0,,,45,0
42000,note_on,0,0,1,,,,,,,,,0,,,84,70
42000,note_on,0,0,3,,,,,,,,,0,,,69,70
42000,marker,0,1,0,,,,,,,,,,,,,
42000,set_tempo,3840,1,0,,,,,,714286,,,,,,,
42000,note_on,135,0,1,,,,,,,,,0,,,93,70
42000,note_on,660,0,3,,,,,,,,,0,,,77,70
42000,note_on,0,0,1,,,,,,,,,0,,,81,70
42020,note_on,20,0,3,,,,,,,,,0,,,77,0
42020,note_on,0,0,3,,,,,,,,,0,,,76,70
42040,note_on,0,0,3,,,,,,,,,0,,,77,70
42040,note_on,20,0,3,,,,,,,,,0,,,76,0
42060,note_on,0,0,3,,,,,,,,,0,,,76,70
42060,note_on,20,0,3,,,,,,,,,0,,,77,0
42075,note_on,15,0,3,,,,,,,,,0,,,76,0
42075,note_on,0,0,3,,,,,,,,,0,,,77,70
42090,note_on,15,0,3,,,,,,,,,0,,,77,0
42090,note_on,0,0,3,,,,,,,,,0,,,76,70
42105,note_on,15,0,3,,,,,,,,,0,,,76,0
42105,note_on,0,0,3,,,,,,,,,0,,,77,70
42120,note_on,15,0,3,,,,,,,,,0,,,77,0
42120,note_on,0,0,3,,,,,,,,,0,,,76,70
42135,note_on,0,0,3,,,,,,,,,0,,,77,70
42135,note_on,15,0,3,,,,,,,,,0,,,76,0
42150,note_on,0,0,3,,,,,,,,,0,,,76,70
42150,note_on,15,0,3,,,,,,,,,0,,,77,0
42165,note_on,0,0,3,,,,,,,,,0,,,77,70
42165,note_on,15,0,3,,,,,,,,,0,,,76,0
42180,note_on,180,0,1,,,,,,,,,0,,,93,0
42180,note_on,15,0,3,,,,,,,,,0,,,77,0
42180,note_on,0,0,1,,,,,,,,,0,,,88,70
42180,note_on,0,0,3,,,,,,,,,0,,,76,70
42195,note_on,15,0,3,,,,,,,,,0,,,76,0
42195,note_on,0,0,3,,,,,,,,,0,,,77,70
42210,note_on,0,0,3,,,,,,,,,0,,,76,70
42210,note_on,0,0,1,,,,,,,,,0,,,96,70
42210,note_on,30,0,1,,,,,,,,,0,,,88,0
42210,note_on,15,0,3,,,,,,,,,0,,,77,0
42225,note_on,0,0,3,,,,,,,,,0,,,77,70
42225,note_on,15,0,3,,,,,,,,,0,,,76,0
42240,note_on,0,0,3,,,,,,,,,0,,,74,70
42240,note_on,0,0,1,,,,,,,,,0,,,84,0
42240,note_on,0,0,1,,,,,,,,,0,,,83,70
42240,note_on,0,0,1,,,,,,,,,0,,,81,0
42240,note_on,30,0,1,,,,,,,,,0,,,96,0
42240,note_on,15,0,3,,,,,,,,,0,,,77,0
42240,note_on,0,0,1,,,,,,,,,0,,,95,70
42240,note_on,0,0,3,,,,,,,,,0,,,76,70
42240,note_on,0,0,3,,,,,,,,,0,,,69,70
42240,note_on,0,0,3,,,,,,,,,0,,,69,0
42240,note_on,0,0,1,,,,,,,,,0,,,88,70
42255,note_on,15,0,3,,,,,,,,,0,,,76,0
42255,note_on,0,0,3,,,,,,,,,0,,,77,70
42270,note_on,0,0,3,,,,,,,,,0,,,76,70
42270,note_on,15,0,3,,,,,,,,,0,,,77,0
42270,note_on,30,0,1,,,,,,,,,0,,,95,0
42270,note_on,0,0,1,,,,,,,,,0,,,93,70
42285,note_on,15,0,3,,,,,,,,,0,,,76,0
42285,note_on,0,0,3,,,,,,,,,0,,,77,70
42300,note_on,0,0,1,,,,,,,,,0,,,92,70
42300,note_on,15,0,3,,,,,,,,,0,,,77,0
42300,note_on,0,0,3,,,,,,,,,0,,,76,70
42300,note_on,30,0,1,,,,,,,,,0,,,93,0
42315,note_on,15,0,3,,,,,,,,,0,,,76,0
42315,note_on,0,0,3,,,,,,,,,0,,,77,70
42330,note_on,0,0,1,,,,,,,,,0,,,89,70
42330,note_on,15,0,3,,,,,,,,,0,,,77,0
42330,note_on,0,0,3,,,,,,,,,0,,,76,70
42330,note_on,30,0,1,,,,,,,,,0,,,92,0
42345,note_on,15,0,3,,,,,,,,,0,,,76,0
42345,note_on,0,0,3,,,,,,,,,0,,,77,70
42360,note_on,0,0,1,,,,,,,,,0,,,88,70
42360,note_on,0,0,3,,,,,,,,,0,,,76,70
42360,note_on,15,0,3,,,,,,,,,0,,,77,0
42360,note_on,30,0,1,,,,,,,,,0,,,89,0
42375,note_on,0,0,3,,,,,,,,,0,,,77,70
42375,note_on,15,0,3,,,,,,,,,0,,,76,0
42390,note_on,0,0,3,,,,,,,,,0,,,76,70
42390,note_on,0,0,1,,,,,,,,,0,,,89,70
42390,note_on,15,0,3,,,,,,,,,0,,,77,0
42390,note_on,30,0,1,,,,,,,,,0,,,88,0
42405,note_on,0,0,3,,,,,,,,,0,,,77,70
42405,note_on,15,0,3,,,,,,,,,0,,,76,0
42420,note_on,0,0,3,,,,,,,,,0,,,76,70
42420,note_on,0,0,1,,,,,,,,,0,,,92,70
42420,note_on,30,0,1,,,,,,,,,0,,,89,0
42420,note_on,15,0,3,,,,,,,,,0,,,77,0
42435,note_on,0,0,3,,,,,,,,,0,,,77,70
42435,note_on,15,0,3,,,,,,,,,0,,,76,0
42450,note_on,30,0,1,,,,,,,,,0,,,92,0
42450,note_on,15,0,3,,,,,,,,,0,,,77,0
42450,note_on,0,0,3,,,,,,,,,0,,,76,70
42450,note_on,0,0,1,,,,,,,,,0,,,88,70
42465,note_on,0,0,3,,,,,,,,,0,,,77,70
42465,note_on,15,0,3,,,,,,,,,0,,,76,0
42480,note_on,0,0,1,,,,,,,,,0,,,88,0
42480,note_on,0,0,1,,,,,,,,,0,,,93,70
42480,note_on,0,0,1,,,,,,,,,0,,,83,0
42480,note_on,30,0,1,,,,,,,,,0,,,88,0
42480,note_on,0,0,3,,,,,,,,,0,,,69,0
42480,note_on,0,0,3,,,,,,,,,0,,,69,70
42480,note_on,15,0,3,,,,,,,,,0,,,77,0
42480,note_on,0,0,3,,,,,,,,,0,,,76,70
42480,note_on,0,0,3,,,,,,,,,0,,,74,0
42480,note_on,0,0,3,,,,,,,,,0,,,72,70
42495,note_on,15,0,3,,,,,,,,,0,,,76,0
42495,note_on,0,0,3,,,,,,,,,0,,,77,70
42510,note_on,0,0,3,,,,,,,,,0,,,76,70
42510,note_on,15,0,3,,,,,,,,,0,,,77,0
42525,note_on,0,0,3,,,,,,,,,0,,,77,70
42525,note_on,15,0,3,,,,,,,,,0,,,76,0
42540,note_on,0,0,3,,,,,,,,,0,,,76,70
42540,note_on,15,0,3,,,,,,,,,0,,,77,0
42555,note_on,0,0,3,,,,,,,,,0,,,77,70
42555,note_on,15,0,3,,,,,,,,,0,,,76,0
42570,note_on,0,0,3,,,,,,,,,0,,,76,70
42570,note_on,90,0,1,,,,,,,,,0,,,95,70
42570,note_on,15,0,3,,,,,,,,,0,,,77,0
42580,note_on,10,0,1,,,,,,,,,0,,,95,0
42580,note_on,0,0,1,,,,,,,,,0,,,93,70
42585,note_on,0,0,3,,,,,,,,,0,,,77,70
42585,note_on,15,0,3,,,,,,,,,0,,,76,0
42590,note_on,10,0,1,,,,,,,,,0,,,93,0
42590,note_on,0,0,1,,,,,,,,,0,,,92,70
42600,note_on,15,0,3,,,,,,,,,0,,,77,0
42600,note_on,0,0,3,,,,,,,,,0,,,76,70
42600,note_on,0,0,1,,,,,,,,,0,,,93,70
42600,note_on,10,0,1,,,,,,,,,0,,,92,0
42600,note_on,0,0,1,,,,,,,,,0,,,93,0
42615,note_on,15,0,3,,,,,,,,,0,,,76,0
42615,note_on,0,0,3,,,,,,,,,0,,,77,70
42630,note_on,15,0,3,,,,,,,,,0,,,77,0
42630,note_on,0,0,1,,,,,,,,,0,,,95,70
42630,note_on,0,0,3,,,,,,,,,0,,,76,70
42630,note_on,30,0,1,,,,,,,,,0,,,93,0
42645,note_on,0,0,3,,,,,,,,,0,,,77,70
42645,note_on,15,0,3,,,,,,,,,0,,,76,0
42660,note_on,15,0,3,,,,,,,,,0,,,77,0
42660,note_on,0,0,3,,,,,,,,,0,,,76,70
42660,note_on,30,0,1,,,,,,,,,0,,,95,0
42660,note_on,0,0,1,,,,,,,,,0,,,96,70
42675,note_on,0,0,3,,,,,,,,,0,,,77,70
42675,note_on,15,0,3,,,,,,,,,0,,,76,0
42690,note_on,30,0,1,,,,,,,,,0,,,96,0
42690,note_on,0,0,3,,,,,,,,,0,,,76,70
42690,note_on,15,0,3,,,,,,,,,0,,,77,0
42690,note_on,0,0,1,,,,,,,,,0,,,98,70
42705,note_on,0,0,3,,,,,,,,,0,,,77,70
42705,note_on,15,0,3,,,,,,,,,0,,,76,0
42720,note_on,15,0,3,,,,,,,,,0,,,77,0
42720,note_on,0,0,1,,,,,,,,,0,,,99,70
42720,note_on,0,0,1,,,,,,,,,0,,,92,70
42720,note_on,30,0,1,,,,,,,,,0,,,98,0
42720,note_on,0,0,3,,,,,,,,,0,,,72,0
42720,note_on,0,0,3,,,,,,,,,0,,,69,0
42720,note_on,0,0,3,,,,,,,,,0,,,69,70
42720,note_on,0,0,3,,,,,,,,,0,,,71,70
42720,note_on,0,0,1,,,,,,,,,0,,,86,70
42720,note_on,0,0,3,,,,,,,,,0,,,76,70
42735,note_on,0,0,3,,,,,,,,,0,,,77,70
42735,note_on,15,0,3,,,,,,,,,0,,,76,0
42750,note_on,0,0,3,,,,,,,,,0,,,76,70
42750,note_on,15,0,3,,,,,,,,,0,,,77,0
42765,note_on,0,0,3,,,,,,,,,0,,,77,70
42765,note_on,15,0,3,,,,,,,,,0,,,76,0
42780,note_on,0,0,3,,,,,,,,,0,,,76,70
42780,note_on,15,0,3,,,,,,,,,0,,,77,0
42795,note_on,0,0,3,,,,,,,,,0,,,77,70
42795,note_on,15,0,3,,,,,,,,,0,,,76,0
42810,note_on,90,0,1,,,,,,,,,0,,,99,0
42810,note_on,15,0,3,,,,,,,,,0,,,77,0
42810,note_on,0,0,1,,,,,,,,,0,,,100,70
42810,note_on,0,0,3,,,,,,,,,0,,,76,70
42825,note_on,0,0,3,,,,,,,,,0,,,77,70
42825,note_on,15,0,3,,,,,,,,,0,,,76,0
42840,note_on,0,0,3,,,,,,,,,0,,,76,70
42840,note_on,0,0,1,,,,,,,,,0,,,88,70
42840,note_on,30,0,1,,,,,,,,,0,,,100,0
42840,note_on,15,0,3,,,,,,,,,0,,,77,0
42855,note_on,0,0,3,,,,,,,,,0,,,77,70
42855,note_on,15,0,3,,,,,,,,,0,,,76,0
42870,note_on,0,0,3,,,,,,,,,0,,,76,70
42870,note_on,15,0,3,,,,,,,,,0,,,77,0
42885,note_on,15,0,3,,,,,,,,,0,,,76,0
42885,note_on,0,0,3,,,,,,,,,0,,,77,70
42900,note_on,15,0,3,,,,,,,,,0,,,77,0
42900,note_on,0,0,3,,,,,,,,,0,,,76,70
42915,note_on,15,0,3,,,,,,,,,0,,,76,0
42915,note_on,0,0,3,,,,,,,,,0,,,77,70
42930,note_on,15,0,3,,,,,,,,,0,,,77,0
42930,note_on,0,0,3,,,,,,,,,0,,,76,70
42945,note_on,0,0,3,,,,,,,,,0,,,77,70
42945,note_on,15,0,3,,,,,,,,,0,,,76,0
42960,note_on,0,0,3,,,,,,,,,0,,,71,0
42960,note_on,0,0,1,,,,,,,,,0,,,81,70
42960,note_on,0,0,1,,,,,,,,,0,,,84,70
42960,note_on,0,0,1,,,,,,,,,0,,,86,0
42960,note_on,0,0,1,,,,,,,,,0,,,92,0
42960,note_on,0,0,3,,,,,,,,,0,,,76,70
42960,note_on,120,0,1,,,,,,,,,0,,,88,0
42960,note_on,15,0,3,,,,,,,,,0,,,77,0
42960,note_on,0,0,3,,,,,,,,,0,,,69,70
42960,note_on,0,0,3,,,,,,,,,0,,,69,0
42960,note_on,0,0,1,,,,,,,,,0,,,93,70
42975,note_on,0,0,3,,,,,,,,,0,,,77,70
42975,note_on,15,0,3,,,,,,,,,0,,,76,0
42990,note_on,15,0,3,,,,,,,,,0,,,77,0
42990,note_on,0,0,3,,,,,,,,,0,,,76,70
43005,note_on,0,0,3,,,,,,,,,0,,,77,70
43005,note_on,15,0,3,,,,,,,,,0,,,76,0
43020,note_on,0,0,3,,,,,,,,,0,,,76,70
43020,note_on,15,0,3,,,,,,,,,0,,,77,0
43035,note_on,0,0,3,,,,,,,,,0,,,77,70
43035,note_on,15,0,3,,,,,,,,,0,,,76,0
43050,note_on,0,0,3,,,,,,,,,0,,,76,70
43050,note_on,15,0,3,,,,,,,,,0,,,77,0
43065,note_on,15,0,3,,,,,,,,,0,,,76,0
43065,note_on,0,0,3,,,,,,,,,0,,,77,70
43080,note_on,15,0,3,,,,,,,,,0,,,77,0
43080,note_on,0,0,3,,,,,,,,,0,,,76,70
43095,note_on,0,0,3,,,,,,,,,0,,,77,70
43095,note_on,15,0,3,,,,,,,,,0,,,76,0
43110,note_on,15,0,3,,,,,,,,,0,,,77,0
43110,note_on,0,0,3,,,,,,,,,0,,,76,70
43125,note_on,0,0,3,,,,,,,,,0,,,77,70
43125,note_on,15,0,3,,,,,,,,,0,,,76,0
43140,note_on,15,0,3,,,,,,,,,0,,,77,0
43140,note_on,180,0,1,,,,,,,,,0,,,93,0
43140,note_on,0,0,1,,,,,,,,,0,,,88,70
43140,note_on,0,0,3,,,,,,,,,0,,,76,70
43155,note_on,0,0,3,,,,,,,,,0,,,77,70
43155,note_on,15,0,3,,,,,,,,,0,,,76,0
43170,note_on,15,0,3,,,,,,,,,0,,,77,0
43170,note_on,30,0,1,,,,,,,,,0,,,88,0
43170,note_on,0,0,1,,,,,,,,,0,,,96,70
43170,note_on,0,0,3,,,,,,,,,0,,,76,70
43185,note_on,15,0,3,,,,,,,,,0,,,76,0
43185,note_on,0,0,3,,,,,,,,,0,,,77,70
43200,note_on,0,0,1,,,,,,,,,0,,,88,70
43200,note_on,15,0,3,,,,,,,,,0,,,77,0
43200,note_on,30,0,1,,,,,,,,,0,,,96,0
43200,note_on,0,0,1,,,,,,,,,0,,,81,0
43200,note_on,0,0,1,,,,,,,,,0,,,83,70
43200,note_on,0,0,1,,,,,,,,,0,,,84,0
43200,note_on,0,0,1,,,,,,,,,0,,,95,70
43200,note_on,0,0,3,,,,,,,,,0,,,69,0
43200,note_on,0,0,3,,,,,,,,,0,,,69,70
43200,note_on,0,0,3,,,,,,,,,0,,,74,70
43200,note_on,0,0,3,,,,,,,,,0,,,76,70
43215,note_on,0,0,3,,,,,,,,,0,,,77,70
43215,note_on,15,0,3,,,,,,,,,0,,,76,0
43230,note_on,0,0,1,,,,,,,,,0,,,93,70
43230,note_on,30,0,1,,,,,,,,,0,,,95,0
43230,note_on,15,0,3,,,,,,,,,0,,,77,0
43230,note_on,0,0,3,,,,,,,,,0,,,76,70
43245,note_on,15,0,3,,,,,,,,,0,,,76,0
43245,note_on,0,0,3,,,,,,,,,0,,,77,70
43260,note_on,15,0,3,,,,,,,,,0,,,77,0
43260,note_on,0,0,3,,,,,,,,,0,,,76,70
43260,note_on,0,0,1,,,,,,,,,0,,,92,70
43260,note_on,30,0,1,,,,,,,,,0,,,93,0
43275,note_on,15,0,3,,,,,,,,,0,,,76,0
43275,note_on,0,0,3,,,,,,,,,0,,,77,70
43290,note_on,30,0,1,,,,,,,,,0,,,92,0
43290,note_on,0,0,3,,,,,,,,,0,,,76,70
43290,note_on,0,0,1,,,,,,,,,0,,,90,70
43290,note_on,15,0,3,,,,,,,,,0,,,77,0
43305,note_on,15,0,3,,,,,,,,,0,,,76,0
43305,note_on,0,0,3,,,,,,,,,0,,,77,70
43320,note_on,30,0,1,,,,,,,,,0,,,90,0
43320,note_on,15,0,3,,,,,,,,,0,,,77,0
43320,note_on,0,0,3,,,,,,,,,0,,,76,70
43320,note_on,0,0,1,,,,,,,,,0,,,88,70
43335,note_on,0,0,3,,,,,,,,,0,,,77,70
43335,note_on,15,0,3,,,,,,,,,0,,,76,0
43350,note_on,0,0,1,,,,,,,,,0,,,90,70
43350,note_on,30,0,1,,,,,,,,,0,,,88,0
43350,note_on,0,0,3,,,,,,,,,0,,,76,70
43350,note_on,15,0,3,,,,,,,,,0,,,77,0
43365,note_on,0,0,3,,,,,,,,,0,,,77,70
43365,note_on,15,0,3,,,,,,,,,0,,,76,0
43380,note_on,30,0,1,,,,,,,,,0,,,90,0
43380,note_on,15,0,3,,,,,,,,,0,,,77,0
43380,note_on,0,0,1,,,,,,,,,0,,,92,70
43380,note_on,0,0,3,,,,,,,,,0,,,76,70
43395,note_on,0,0,3,,,,,,,,,0,,,77,70
43395,note_on,15,0,3,,,,,,,,,0,,,76,0
43410,note_on,0,0,3,,,,,,,,,0,,,76,70
43410,note_on,0,0,1,,,,,,,,,0,,,88,70
43410,note_on,30,0,1,,,,,,,,,0,,,92,0
43410,note_on,15,0,3,,,,,,,,,0,,,77,0
43425,note_on,0,0,3,,,,,,,,,0,,,77,70
43425,note_on,15,0,3,,,,,,,,,0,,,76,0
43440,note_on,0,0,3,,,,,,,,,0,,,69,0
43440,note_on,0,0,3,,,,,,,,,0,,,69,70
43440,note_on,0,0,3,,,,,,,,,0,,,72,70
43440,note_on,0,0,1,,,,,,,,,0,,,93,70
43440,note_on,30,0,1,,,,,,,,,0,,,88,0
43440,note_on,0,0,3,,,,,,,,,0,,,74,0
43440,note_on,0,0,3,,,,,,,,,0,,,76,70
43440,note_on,15,0,3,,,,,,,,,0,,,77,0
43440,note_on,0,0,1,,,,,,,,,0,,,84,70
43440,note_on,0,0,1,,,,,,,,,0,,,88,0
43440,note_on,0,0,1,,,,,,,,,0,,,88,70
43440,note_on,0,0,1,,,,,,,,,0,,,83,0
43455,note_on,0,0,3,,,,,,,,,0,,,77,70
43455,note_on,15,0,3,,,,,,,,,0,,,76,0
43470,note_on,15,0,3,,,,,,,,,0,,,77,0
43470,note_on,0,0,3,,,,,,,,,0,,,76,70
43485,note_on,15,0,3,,,,,,,,,0,,,76,0
43485,note_on,0,0,3,,,,,,,,,0,,,77,70
43500,note_on,0,0,3,,,,,,,,,0,,,76,70
43500,note_on,15,0,3,,,,,,,,,0,,,77,0
43515,note_on,15,0,3,,,,,,,,,0,,,76,0
43515,note_on,0,0,3,,,,,,,,,0,,,77,70
43530,note_on,15,0,3,,,,,,,,,0,,,77,0
43530,note_on,0,0,3,,,,,,,,,0,,,76,70
43530,note_on,90,0,1,,,,,,,,,0,,,95,70
43540,note_on,0,0,1,,,,,,,,,0,,,93,70
43540,note_on,10,0,1,,,,,,,,,0,,,95,0
43545,note_on,15,0,3,,,,,,,,,0,,,76,0
43545,note_on,0,0,3,,,,,,,,,0,,,77,70
43550,note_on,10,0,1,,,,,,,,,0,,,93,0
43550,note_on,0,0,1,,,,,,,,,0,,,92,70
43560,note_on,10,0,1,,,,,,,,,0,,,92,0
43560,note_on,0,0,1,,,,,,,,,0,,,93,70
43560,note_on,15,0,3,,,,,,,,,0,,,77,0
43560,note_on,0,0,3,,,,,,,,,0,,,76,70
43560,note_on,0,0,1,,,,,,,,,0,,,93,0
43575,note_on,0,0,3,,,,,,,,,0,,,77,70
43575,note_on,15,0,3,,,,,,,,,0,,,76,0
43590,note_on,0,0,3,,,,,,,,,0,,,76,70
43590,note_on,0,0,1,,,,,,,,,0,,,95,70
43590,note_on,15,0,3,,,,,,,,,0,,,77,0
43590,note_on,30,0,1,,,,,,,,,0,,,93,0
43605,note_on,0,0,3,,,,,,,,,0,,,77,70
43605,note_on,15,0,3,,,,,,,,,0,,,76,0
43620,note_on,15,0,3,,,,,,,,,0,,,77,0
43620,note_on,0,0,1,,,,,,,,,0,,,96,70
43620,note_on,30,0,1,,,,,,,,,0,,,95,0
43620,note_on,0,0,3,,,,,,,,,0,,,76,70
43635,note_on,0,0,3,,,,,,,,,0,,,77,70
43635,note_on,15,0,3,,,,,,,,,0,,,76,0
43650,note_on,0,0,3,,,,,,,,,0,,,76,70
43650,note_on,15,0,3,,,,,,,,,0,,,77,0
43650,note_on,0,0,1,,,,,,,,,0,,,98,70
43650,note_on,30,0,1,,,,,,,,,0,,,96,0
43665,note_on,0,0,3,,,,,,,,,0,,,77,70
43665,note_on,15,0,3,,,,,,,,,0,,,76,0
43680,note_on,15,0,3,,,,,,,,,0,,,77,0
43680,note_on,30,0,1,,,,,,,,,0,,,98,0
43680,note_on,0,0,3,,,,,,,,,0,,,72,0
43680,note_on,0,0,1,,,,,,,,,0,,,87,70
43680,note_on,0,0,1,,,,,,,,,0,,,99,70
43680,note_on,0,0,1,,,,,,,,,0,,,92,70
43680,note_on,0,0,3,,,,,,,,,0,,,76,70
43680,note_on,0,0,1,,,,,,,,,0,,,88,0
43680,note_on,0,0,3,,,,,,,,,0,,,71,70
43680,note_on,0,0,3,,,,,,,,,0,,,69,70
43680,note_on,0,0,3,,,,,,,,,0,,,69,0
43680,note_on,0,0,1,,,,,,,,,0,,,84,0
43695,note_on,15,0,3,,,,,,,,,0,,,76,0
43695,note_on,0,0,3,,,,,,,,,0,,,77,70
43710,note_on,15,0,3,,,,,,,,,0,,,77,0
43710,note_on,0,0,3,,,,,,,,,0,,,76,70
43725,note_on,15,0,3,,,,,,,,,0,,,76,0
43725,note_on,0,0,3,,,,,,,,,0,,,77,70
43740,note_on,0,0,3,,,,,,,,,0,,,76,70
43740,note_on,15,0,3,,,,,,,,,0,,,77,0
43755,note_on,0,0,3,,,,,,,,,0,,,77,70
43755,note_on,15,0,3,,,,,,,,,0,,,76,0
43770,note_on,0,0,3,,,,,,,,,0,,,76,70
43770,note_on,90,0,1,,,,,,,,,0,,,99,0
43770,note_on,15,0,3,,,,,,,,,0,,,77,0
43770,note_on,0,0,1,,,,,,,,,0,,,100,70
43785,note_on,0,0,3,,,,,,,,,0,,,77,70
43785,note_on,15,0,3,,,,,,,,,0,,,76,0
43800,note_on,15,0,3,,,,,,,,,0,,,77,0
43800,note_on,30,0,1,,,,,,,,,0,,,100,0
43800,note_on,0,0,1,,,,,,,,,0,,,88,70
43800,note_on,0,0,3,,,,,,,,,0,,,76,70
43815,note_on,15,0,3,,,,,,,,,0,,,76,0
43815,note_on,0,0,3,,,,,,,,,0,,,77,70
43830,note_on,0,0,3,,,,,,,,,0,,,76,70
43830,note_on,15,0,3,,,,,,,,,0,,,77,0
43845,note_on,15,0,3,,,,,,,,,0,,,76,0
43845,note_on,0,0,3,,,,,,,,,0,,,77,70
43860,note_on,15,0,3,,,,,,,,,0,,,77,0
43860,note_on,0,0,3,,,,,,,,,0,,,76,70
43875,note_on,0,0,3,,,,,,,,,0,,,77,70
43875,note_on,15,0,3,,,,,,,,,0,,,76,0
43890,note_on,15,0,3,,,,,,,,,0,,,77,0
43890,note_on,0,0,3,,,,,,,,,0,,,76,70
43905,note_on,0,0,3,,,,,,,,,0,,,77,70
43905,note_on,15,0,3,,,,,,,,,0,,,76,0
43920,note_on,0,0,3,,,,,,,,,0,,,69,0
43920,note_on,120,0,1,,,,,,,,,0,,,88,0
43920,note_on,15,0,3,,,,,,,,,0,,,77,0
43920,note_on,0,0,1,,,,,,,,,0,,,79,70
43920,note_on,0,0,1,,,,,,,,,0,,,85,70
43920,note_on,0,0,1,,,,,,,,,0,,,87,0
43920,note_on,0,0,1,,,,,,,,,0,,,92,0
43920,note_on,0,0,1,,,,,,,,,0,,,93,70
43920,note_on,0,0,3,,,,,,,,,0,,,69,70
43920,note_on,0,0,3,,,,,,,,,0,,,71,0
43920,note_on,0,0,3,,,,,,,,,0,,,76,70
43935,note_on,15,0,3,,,,,,,,,0,,,76,0
43935,note_on,0,0,3,,,,,,,,,0,,,77,70
43950,note_on,15,0,3,,,,,,,,,0,,,77,0
43950,note_on,0,0,3,,,,,,,,,0,,,76,70
43965,note_on,15,0,3,,,,,,,,,0,,,76,0
43965,note_on,0,0,3,,,,,,,,,0,,,77,70
43980,note_on,0,0,3,,,,,,,,,0,,,76,70
43980,note_on,15,0,3,,,,,,,,,0,,,77,0
43995,note_on,0,0,3,,,,,,,,,0,,,77,70
43995,note_on,15,0,3,,,,,,,,,0,,,76,0
44010,note_on,0,0,3,,,,,,,,,0,,,76,70
44010,note_on,15,0,3,,,,,,,,,0,,,77,0
44025,note_on,15,0,3,,,,,,,,,0,,,76,0
44025,note_on,0,0,3,,,,,,,,,0,,,77,70
44040,note_on,15,0,3,,,,,,,,,0,,,77,0
44040,note_on,120,0,1,,,,,,,,,0,,,79,0
44040,note_on,0,0,3,,,,,,,,,0,,,69,0
44040,note_on,0,0,3,,,,,,,,,0,,,77,70
44040,note_on,0,0,1,,,,,,,,,0,,,85,0
44070,note_on,0,0,1,,,,,,,,,0,,,100,70
44070,note_on,30,0,1,,,,,,,,,0,,,93,0
44100,note_on,0,0,1,,,,,,,,,0,,,97,70
44100,note_on,30,0,1,,,,,,,,,0,,,100,0
44100,note_on,60,0,3,,,,,,,,,0,,,77,0
44130,note_on,0,0,1,,,,,,,,,0,,,93,70
44130,note_on,30,0,1,,,,,,,,,0,,,97,0
44160,note_on,0,0,1,,,,,,,,,0,,,91,70
44160,note_on,30,0,1,,,,,,,,,0,,,93,0
44190,note_on,0,0,1,,,,,,,,,0,,,88,70
44190,note_on,30,0,1,,,,,,,,,0,,,91,0
44220,note_on,30,0,1,,,,,,,,,0,,,88,0
44220,note_on,0,0,1,,,,,,,,,0,,,85,70
44250,note_on,150,0,3,,,,,,,,,0,,,81,70
44250,note_on,30,0,1,,,,,,,,,0,,,85,0
44280,note_on,30,0,3,,,,,,,,,0,,,81,0
44280,note_on,0,0,3,,,,,,,,,0,,,79,70
44310,note_on,0,0,3,,,,,,,,,0,,,77,70
44310,note_on,30,0,3,,,,,,,,,0,,,79,0
44340,note_on,0,0,1,,,,,,,,,0,,,86,70
44340,note_on,90,0,1,,,,,,,,,0,,,89,70
44340,note_on,30,0,3,,,,,,,,,0,,,77,0
44340,note_on,0,0,1,,,,,,,,,0,,,81,70
44340,note_on,0,0,3,,,,,,,,,0,,,76,70
44355,note_on,0,0,1,,,,,,,,,0,,,86,0
44355,note_on,0,0,1,,,,,,,,,0,,,89,0
44355,note_on,15,0,1,,,,,,,,,0,,,81,0
44370,note_on,30,0,3,,,,,,,,,0,,,76,0
44370,note_on,0,0,3,,,,,,,,,0,,,74,70
44400,note_on,30,0,3,,,,,,,,,0,,,74,0
44400,note_on,45,0,1,,,,,,,,,0,,,91,70
44400,note_on,0,0,1,,,,,,,,,0,,,79,70
44400,note_on,0,0,1,,,,,,,,,0,,,86,70
44400,note_on,0,0,3,,,,,,,,,0,,,71,70
44400,note_on,0,0,3,,,,,,,,,0,,,77,70
44415,note_on,15,0,3,,,,,,,,,0,,,77,0
44415,note_on,0,0,3,,,,,,,,,0,,,76,70
44430,note_on,15,0,3,,,,,,,,,0,,,76,0
44430,note_on,0,0,3,,,,,,,,,0,,,77,70
44445,note_on,15,0,3,,,,,,,,,0,,,77,0
44445,note_on,0,0,3,,,,,,,,,0,,,76,70
44460,note_on,0,0,3,,,,,,,,,0,,,77,70
44460,note_on,15,0,3,,,,,,,,,0,,,76,0
44475,note_on,0,0,3,,,,,,,,,0,,,76,70
44475,note_on,15,0,3,,,,,,,,,0,,,77,0
44490,note_on,15,0,3,,,,,,,,,0,,,76,0
44490,note_on,0,0,3,,,,,,,,,0,,,77,70
44505,note_on,0,0,3,,,,,,,,,0,,,76,70
44505,note_on,15,0,3,,,,,,,,,0,,,77,0
44520,note_on,120,0,1,,,,,,,,,0,,,79,0
44520,note_on,15,0,3,,,,,,,,,0,,,76,0
44520,note_on,0,0,3,,,,,,,,,0,,,71,0
44520,note_on,0,0,3,,,,,,,,,0,,,77,70
44520,note_on,0,0,1,,,,,,,,,0,,,86,0
44550,note_on,30,0,1,,,,,,,,,0,,,91,0
44550,note_on,0,0,1,,,,,,,,,0,,,98,70
44580,note_on,0,0,1,,,,,,,,,0,,,95,70
44580,note_on,60,0,3,,,,,,,,,0,,,77,0
44580,note_on,30,0,1,,,,,,,,,0,,,98,0
44610,note_on,0,0,1,,,,,,,,,0,,,91,70
44610,note_on,30,0,1,,,,,,,,,0,,,95,0
44640,note_on,30,0,1,,,,,,,,,0,,,91,0
44640,note_on,0,0,1,,,,,,,,,0,,,89,70
44670,note_on,0,0,1,,,,,,,,,0,,,86,70
44670,note_on,30,0,1,,,,,,,,,0,,,89,0
44700,note_on,0,0,1,,,,,,,,,0,,,83,70
44700,note_on,30,0,1,,,,,,,,,0,,,86,0
44730,note_on,30,0,1,,,,,,,,,0,,,83,0
44730,note_on,150,0,3,,,,,,,,,0,,,79,70
44760,note_on,0,0,3,,,,,,,,,0,,,77,70
44760,note_on,30,0,3,,,,,,,,,0,,,79,0
44790,note_on,0,0,3,,,,,,,,,0,,,76,70
44790,note_on,30,0,3,,,,,,,,,0,,,77,0
44820,note_on,0,0,1,,,,,,,,,0,,,84,70
44820,note_on,30,0,3,,,,,,,,,0,,,76,0
44820,note_on,90,0,1,,,,,,,,,0,,,88,70
44820,note_on,0,0,3,,,,,,,,,0,,,74,70
44820,note_on,0,0,1,,,,,,,,,0,,,79,70
44835,note_on,0,0,1,,,,,,,,,0,,,84,0
44835,note_on,15,0,1,,,,,,,,,0,,,79,0
44835,note_on,0,0,1,,,,,,,,,0,,,88,0
44850,note_on,30,0,3,,,,,,,,,0,,,74,0
44850,note_on,0,0,3,,,,,,,,,0,,,72,70
44880,note_on,0,0,1,,,,,,,,,0,,,83,70
44880,note_on,0,0,3,,,,,,,,,0,,,68,70
44880,note_on,0,0,3,,,,,,,,,0,,,74,70
44880,note_on,45,0,1,,,,,,,,,0,,,89,70
44880,note_on,0,0,3,,,,,,,,,0,,,77,70
44880,note_on,30,0,3,,,,,,,,,0,,,72,0
44895,note_on,0,0,3,,,,,,,,,0,,,76,70
44895,note_on,15,0,3,,,,,,,,,0,,,77,0
44910,note_on,0,0,3,,,,,,,,,0,,,77,70
44910,note_on,15,0,3,,,,,,,,,0,,,76,0
44925,note_on,0,0,3,,,,,,,,,0,,,76,70
44925,note_on,15,0,3,,,,,,,,,0,,,77,0
44940,note_on,0,0,3,,,,,,,,,0,,,77,70
44940,note_on,15,0,3,,,,,,,,,0,,,76,0
44955,note_on,15,0,3,,,,,,,,,0,,,77,0
44955,note_on,0,0,3,,,,,,,,,0,,,76,70
44970,note_on,0,0,3,,,,,,,,,0,,,77,70
44970,note_on,15,0,3,,,,,,,,,0,,,76,0
44985,note_on,15,0,3,,,,,,,,,0,,,77,0
44985,note_on,0,0,3,,,,,,,,,0,,,76,70
45000,note_on,15,0,3,,,,,,,,,0,,,76,0
45000,note_on,0,0,3,,,,,,,,,0,,,77,70
45000,note_on,0,0,3,,,,,,,,,0,,,68,0
45000,note_on,0,0,3,,,,,,,,,0,,,74,0
45030,note_on,0,0,1,,,,,,,,,0,,,89,0
45030,note_on,150,0,1,,,,,,,,,0,,,83,0
45030,note_on,0,0,1,,,,,,,,,0,,,86,70
45060,note_on,0,0,1,,,,,,,,,0,,,83,70
45060,note_on,60,0,3,,,,,,,,,0,,,77,0
45060,note_on,30,0,1,,,,,,,,,0,,,86,0
45090,note_on,0,0,1,,,,,,,,,0,,,81,70
45090,note_on,30,0,1,,,,,,,,,0,,,83,0
45120,note_on,0,0,1,,,,,,,,,0,,,80,70
45120,note_on,30,0,1,,,,,,,,,0,,,81,0
45150,note_on,30,0,1,,,,,,,,,0,,,80,0
45150,note_on,0,0,1,,,,,,,,,0,,,76,70
45180,note_on,0,0,1,,,,,,,,,0,,,74,70
45180,note_on,0,0,3,,,,,,,,,0,,,80,70
45180,note_on,120,0,3,,,,,,,,,0,,,88,70
45180,note_on,30,0,1,,,,,,,,,0,,,76,0
45195,note_on,15,0,3,,,,,,,,,0,,,80,0
45195,note_on,0,0,3,,,,,,,,,0,,,88,0
45210,note_on,30,0,1,,,,,,,,,0,,,74,0
45210,note_on,0,0,1,,,,,,,,,0,,,71,70
45240,note_on,45,0,3,,,,,,,,,0,,,88,70
45240,note_on,30,0,1,,,,,,,,,0,,,71,0
45240,note_on,0,0,1,,,,,,,,,0,,,72,70
45240,note_on,0,0,3,,,,,,,,,0,,,81,70
45255,note_on,0,0,3,,,,,,,,,0,,,88,0
45255,note_on,15,0,3,,,,,,,,,0,,,81,0
45270,note_on,30,0,1,,,,,,,,,0,,,72,0
45270,note_on,0,0,1,,,,,,,,,0,,,76,70
45300,note_on,45,0,3,,,,,,,,,0,,,88,70
45300,note_on,30,0,1,,,,,,,,,0,,,76,0
45300,note_on,0,0,3,,,,,,,,,0,,,85,70
45300,note_on,0,0,1,,,,,,,,,0,,,81,70
45315,note_on,0,0,3,,,,,,,,,0,,,88,0
45315,note_on,15,0,3,,,,,,,,,0,,,85,0
45330,note_on,30,0,1,,,,,,,,,0,,,81,0
45330,note_on,0,0,1,,,,,,,,,0,,,79,70
45360,note_on,45,0,3,,,,,,,,,0,,,89,70
45360,note_on,0,0,1,,,,,,,,,0,,,77,70
45360,note_on,0,0,3,,,,,,,,,0,,,86,70
45360,note_on,30,0,1,,,,,,,,,0,,,79,0
45375,note_on,15,0,3,,,,,,,,,0,,,86,0
45375,note_on,0,0,3,,,,,,,,,0,,,89,0
45390,note_on,0,0,1,,,,,,,,,0,,,86,70
45390,note_on,30,0,1,,,,,,,,,0,,,77,0
45420,note_on,30,0,1,,,,,,,,,0,,,86,0
45420,note_on,0,0,1,,,,,,,,,0,,,83,70
45450,note_on,30,0,1,,,,,,,,,0,,,83,0
45450,note_on,0,0,1,,,,,,,,,0,,,81,70
45480,note_on,0,0,3,,,,,,,,,0,,,86,70
45480,note_on,0,0,1,,,,,,,,,0,,,80,70
45480,note_on,105,0,3,,,,,,,,,0,,,76,70
45480,note_on,30,0,1,,,,,,,,,0,,,81,0
45495,note_on,15,0,3,,,,,,,,,0,,,86,0
45495,note_on,0,0,3,,,,,,,,,0,,,76,0
45510,note_on,30,0,1,,,,,,,,,0,,,80,0
45510,note_on,0,0,1,,,,,,,,,0,,,95,70
45540,note_on,30,0,1,,,,,,,,,0,,,95,0
45540,note_on,0,0,1,,,,,,,,,0,,,92,70
45570,note_on,30,0,1,,,,,,,,,0,,,92,0
45570,note_on,0,0,1,,,,,,,,,0,,,88,70
45592,note_on,22,0,1,,,,,,,,,0,,,92,70
45600,note_on,0,0,3,,,,,,,,,0,,,81,70
45600,note_on,105,0,3,,,,,,,,,0,,,84,70
45600,note_on,0,0,1,,,,,,,,,0,,,88,0
45600,note_on,8,0,1,,,,,,,,,0,,,92,0
45600,note_on,0,0,1,,,,,,,,,0,,,93,70
45720,note_on,120,0,1,,,,,,,,,0,,,93,0
45720,note_on,0,0,1,,,,,,,,,0,,,81,70
45720,note_on,0,0,3,,,,,,,,,0,,,84,0
45720,note_on,120,0,3,,,,,,,,,0,,,81,0
45735,note_on,15,0,1,,,,,,,,,0,,,81,0
45810,note_on,3870,0,4,,,,,,,,,0,,,40,100
45820,note_on,0,0,4,,,,,,,,,0,,,42,100
45820,note_on,10,0,4,,,,,,,,,0,,,40,0
45830,note_on,0,0,4,,,,,,,,,0,,,44,100
45830,note_on,10,0,4,,,,,,,,,0,,,42,0
45840,note_on,0,0,4,,,,,,,,,0,,,33,110
45840,note_on,0,0,4,,,,,,,,,0,,,45,110
45840,set_tempo,3840,1,0,,,,,,869565,,,,,,,
45840,control_change,45840,0,5,,,,,,,,,0,64,127,,
45840,note_on,10,0,4,,,,,,,,,0,,,44,0
45840,marker,0,1,0,,,,,,,,,,,,,
45850,note_on,29950,0,2,,,,,,,,,0,,,52,100
45860,note_on,10,0,2,,,,,,,,,0,,,52,0
45860,note_on,0,0,2,,,,,,,,,0,,,55,100
45870,note_on,0,0,2,,,,,,,,,0,,,60,100
45870,note_on,0,0,2,,,,,,,,,0,,,64,100
45870,note_on,10,0,2,,,,,,,,,0,,,55,0
45870,note_on,0,0,4,,,,,,,,,0,,,57,100
45870,note_on,0,0,4,,,,,,,,,0,,,33,0
45870,note_on,30,0,4,,,,,,,,,0,,,45,0
45880,note_on,0,0,2,,,,,,,,,0,,,64,0
45880,note_on,145,0,1,,,,,,,,,0,,,64,100
45880,note_on,10,0,2,,,,,,,,,0,,,60,0
45890,note_on,10,0,1,,,,,,,,,0,,,64,0
45890,note_on,0,0,1,,,,,,,,,0,,,69,100
45895,control_change,55,0,5,,,,,,,,,0,64,0,,
45900,note_on,10,0,1,,,,,,,,,0,,,69,0
45900,note_on,0,0,1,,,,,,,,,0,,,72,100
45900,note_on,0,0,4,,,,,,,,,0,,,48,110
45900,control_change,5,0,5,,,,,,,,,0,64,127,,
45900,note_on,0,0,4,,,,,,,,,0,,,36,110
45900,note_on,0,0,1,,,,,,,,,0,,,76,100
45900,note_on,30,0,4,,,,,,,,,0,,,57,0
45910,note_on,10,0,1,,,,,,,,,0,,,76,0
45910,note_on,0,0,1,,,,,,,,,0,,,76,100
45910,note_on,0,0,1,,,,,,,,,0,,,72,0
45920,note_on,10,0,1,,,,,,,,,0,,,76,0
45920,note_on,0,0,1,,,,,,,,,0,,,81,100
45930,note_on,0,0,1,,,,,,,,,0,,,88,100
45930,note_on,0,0,4,,,,,,,,,0,,,36,0
45930,note_on,0,0,1,,,,,,,,,0,,,84,100
45930,note_on,30,0,4,,,,,,,,,0,,,48,0
45930,note_on,10,0,1,,,,,,,,,0,,,81,0
45930,note_on,0,0,4,,,,,,,,,0,,,60,100
45940,note_on,10,0,1,,,,,,,,,0,,,84,0
45940,note_on,0,0,1,,,,,,,,,0,,,88,0
45940,note_on,0,0,1,,,,,,,,,0,,,76,100
45950,note_on,0,0,1,,,,,,,,,0,,,93,100
45950,note_on,10,0,1,,,,,,,,,0,,,76,0
45955,control_change,55,0,5,,,,,,,,,0,64,0,,
45960,note_on,0,0,4,,,,,,,,,0,,,47,110
45960,control_change,5,0,5,,,,,,,,,0,64,127,,
45960,note_on,10,0,1,,,,,,,,,0,,,93,0
45960,note_on,30,0,4,,,,,,,,,0,,,60,0
45960,note_on,0,0,4,,,,,,,,,0,,,35,110
45960,note_on,0,0,1,,,,,,,,,0,,,98,100
45960,note_on,0,0,1,,,,,,,,,0,,,100,100
45970,note_on,0,0,1,,,,,,,,,0,,,92,100
45970,note_on,10,0,1,,,,,,,,,0,,,98,0
45970,note_on,0,0,1,,,,,,,,,0,,,100,0
45980,note_on,10,0,1,,,,,,,,,0,,,92,0
45980,note_on,0,0,1,,,,,,,,,0,,,88,100
45990,note_on,0,0,1,,,,,,,,,0,,,88,100
45990,note_on,0,0,1,,,,,,,,,0,,,86,100
45990,note_on,0,0,4,,,,,,,,,0,,,35,0
45990,note_on,30,0,4,,,,,,,,,0,,,47,0
45990,note_on,10,0,1,,,,,,,,,0,,,88,0
45990,note_on,0,0,4,,,,,,,,,0,,,59,100
46000,note_on,0,0,1,,,,,,,,,0,,,88,0
46000,note_on,10,0,1,,,,,,,,,0,,,86,0
46000,note_on,0,0,1,,,,,,,,,0,,,80,100
46010,note_on,0,0,1,,,,,,,,,0,,,76,100
46010,note_on,10,0,1,,,,,,,,,0,,,80,0
46015,control_change,55,0,5,,,,,,,,,0,64,0,,
46020,note_on,0,0,1,,,,,,,,,0,,,72,100
46020,note_on,10,0,1,,,,,,,,,0,,,76,0
46020,control_change,5,0,5,,,,,,,,,0,64,127,,
46020,note_on,30,0,4,,,,,,,,,0,,,59,0
46020,note_on,0,0,4,,,,,,,,,0,,,33,110
46020,note_on,0,0,4,,,,,,,,,0,,,45,110
46020,note_on,0,0,1,,,,,,,,,0,,,76,100
46030,note_on,0,0,1,,,,,,,,,0,,,76,0
46030,note_on,10,0,1,,,,,,,,,0,,,72,0
46030,note_on,0,0,1,,,,,,,,,0,,,69,100
46040,note_on,0,0,1,,,,,,,,,0,,,64,100
46040,note_on,10,0,1,,,,,,,,,0,,,69,0
46050,note_on,0,0,4,,,,,,,,,0,,,33,0
46050,note_on,0,0,4,,,,,,,,,0,,,57,100
46050,note_on,0,0,1,,,,,,,,,0,,,60,100
46050,note_on,0,0,1,,,,,,,,,0,,,64,100
46050,note_on,30,0,4,,,,,,,,,0,,,45,0
46050,note_on,10,0,1,,,,,,,,,0,,,64,0
46075,control_change,55,0,5,,,,,,,,,0,64,0,,
46080,control_change,5,0,5,,,,,,,,,0,64,127,,
46080,note_on,0,0,1,,,,,,,,,0,,,60,0
46080,note_on,0,0,1,,,,,,,,,0,,,59,100
46080,note_on,30,0,1,,,,,,,,,0,,,64,0
46080,note_on,0,0,1,,,,,,,,,0,,,64,100
46080,note_on,0,0,1,,,,,,,,,0,,,56,100
46080,note_on,30,0,4,,,,,,,,,0,,,57,0
46090,note_on,10,0,4,,,,,,,,,0,,,32,100
46100,note_on,0,0,4,,,,,,,,,0,,,35,100
46100,note_on,10,0,4,,,,,,,,,0,,,32,0
46110,note_on,10,0,4,,,,,,,,,0,,,35,0
46110,note_on,0,0,1,,,,,,,,,0,,,83,120
46110,note_on,0,0,1,,,,,,,,,0,,,80,120
46110,note_on,0,0,1,,,,,,,,,0,,,76,120
46110,note_on,0,0,1,,,,,,,,,0,,,56,0
46110,note_on,0,0,1,,,,,,,,,0,,,59,0
46110,note_on,30,0,1,,,,,,,,,0,,,64,0
46110,note_on,0,0,4,,,,,,,,,0,,,40,100
46110,note_on,0,0,1,,,,,,,,,0,,,88,120
46120,note_on,0,0,4,,,,,,,,,0,,,44,100
46120,note_on,10,0,4,,,,,,,,,0,,,40,0
46130,note_on,10,0,4,,,,,,,,,0,,,44,0
46130,note_on,0,0,4,,,,,,,,,0,,,47,100
46135,control_change,55,0,5,,,,,,,,,0,64,0,,
46140,control_change,5,0,5,,,,,,,,,0,64,127,,
46140,note_on,0,0,4,,,,,,,,,0,,,52,100
46140,note_on,10,0,4,,,,,,,,,0,,,47,0
46150,note_on,0,0,4,,,,,,,,,0,,,56,100
46150,note_on,10,0,4,,,,,,,,,0,,,52,0
46160,note_on,10,0,4,,,,,,,,,0,,,56,0
46160,note_on,0,0,4,,,,,,,,,0,,,59,100
46170,note_on,60,0,1,,,,,,,,,0,,,76,0
46170,note_on,0,0,1,,,,,,,,,0,,,86,120
46170,note_on,450,0,3,,,,,,,,,0,,,64,100
46170,note_on,0,0,1,,,,,,,,,0,,,83,120
46170,note_on,0,0,1,,,,,,,,,0,,,88,0
46170,note_on,0,0,1,,,,,,,,,0,,,83,0
46170,note_on,0,0,1,,,,,,,,,0,,,80,0
46170,note_on,0,0,1,,,,,,,,,0,,,79,120
46170,note_on,10,0,4,,,,,,,,,0,,,59,0
46170,note_on,0,0,1,,,,,,,,,0,,,91,120
46180,note_on,0,0,3,,,,,,,,,0,,,68,100
46180,note_on,10,0,3,,,,,,,,,0,,,64,0
46190,note_on,0,0,3,,,,,,,,,0,,,71,100
46190,note_on,10,0,3,,,,,,,,,0,,,68,0
46195,control_change,55,0,5,,,,,,,,,0,64,0,,
46200,control_change,5,0,5,,,,,,,,,0,64,127,,
46200,note_on,0,0,3,,,,,,,,,0,,,76,100
46200,note_on,10,0,3,,,,,,,,,0,,,71,0
46210,note_on,10,0,3,,,,,,,,,0,,,76,0
46210,note_on,0,0,3,,,,,,,,,0,,,71,100
46220,note_on,0,0,3,,,,,,,,,0,,,68,100
46220,note_on,10,0,3,,,,,,,,,0,,,71,0
46230,note_on,0,0,3,,,,,,,,,0,,,64,100
46230,note_on,0,0,1,,,,,,,,,0,,,77,120
46230,note_on,0,0,1,,,,,,,,,0,,,83,0
46230,note_on,10,0,3,,,,,,,,,0,,,68,0
46230,note_on,0,0,1,,,,,,,,,0,,,83,120
46230,note_on,0,0,1,,,,,,,,,0,,,86,0
46230,note_on,0,0,1,,,,,,,,,0,,,86,120
46230,note_on,0,0,1,,,,,,,,,0,,,89,120
46230,note_on,60,0,1,,,,,,,,,0,,,79,0
46230,note_on,0,0,1,,,,,,,,,0,,,91,0
46240,note_on,10,0,3,,,,,,,,,0,,,64,0
46240,note_on,70,0,4,,,,,,,,,0,,,59,100
46250,note_on,10,0,4,,,,,,,,,0,,,59,0
46250,note_on,0,0,4,,,,,,,,,0,,,55,100
46255,control_change,55,0,5,,,,,,,,,0,64,0,,
46260,note_on,0,0,4,,,,,,,,,0,,,52,100
46260,note_on,10,0,4,,,,,,,,,0,,,55,0
46260,control_change,5,0,5,,,,,,,,,0,64,127,,
46270,note_on,10,0,4,,,,,,,,,0,,,52,0
46270,note_on,0,0,4,,,,,,,,,0,,,47,100
46280,note_on,0,0,4,,,,,,,,,0,,,43,100
46280,note_on,10,0,4,,,,,,,,,0,,,47,0
46290,note_on,0,0,4,,,,,,,,,0,,,40,100
46290,note_on,0,0,1,,,,,,,,,0,,,86,0
46290,note_on,0,0,1,,,,,,,,,0,,,83,0
46290,note_on,0,0,1,,,,,,,,,0,,,76,110
46290,note_on,60,0,1,,,,,,,,,0,,,77,0
46290,note_on,0,0,1,,,,,,,,,0,,,89,0
46290,note_on,10,0,4,,,,,,,,,0,,,43,0
46290,note_on,0,0,1,,,,,,,,,0,,,86,110
46290,note_on,0,0,1,,,,,,,,,0,,,83,110
46290,note_on,0,0,1,,,,,,,,,0,,,88,110
46300,note_on,0,0,4,,,,,,,,,0,,,35,100
46300,note_on,10,0,4,,,,,,,,,0,,,40,0
46310,note_on,0,0,4,,,,,,,,,0,,,31,100
46310,note_on,10,0,4,,,,,,,,,0,,,35,0
46315,control_change,55,0,5,,,,,,,,,0,64,0,,
46320,note_on,30,0,1,,,,,,,,,0,,,76,0
46320,note_on,0,0,4,,,,,,,,,0,,,33,110
46320,note_on,0,0,1,,,,,,,,,0,,,83,0
46320,note_on,0,0,1,,,,,,,,,0,,,86,0
46320,note_on,10,0,4,,,,,,,,,0,,,31,0
46320,control_change,5,0,5,,,,,,,,,0,64,127,,
46320,note_on,0,0,4,,,,,,,,,0,,,45,110
46320,note_on,0,0,1,,,,,,,,,0,,,88,0
46330,note_on,450,0,2,,,,,,,,,0,,,52,100
46340,note_on,0,0,2,,,,,,,,,0,,,55,100
46340,note_on,10,0,2,,,,,,,,,0,,,52,0
46350,note_on,0,0,4,,,,,,,,,0,,,57,100
46350,note_on,10,0,2,,,,,,,,,0,,,55,0
46350,note_on,0,0,4,,,,,,,,,0,,,33,0
46350,note_on,0,0,2,,,,,,,,,0,,,64,100
46350,note_on,0,0,2,,,,,,,,,0,,,60,100
46350,note_on,30,0,4,,,,,,,,,0,,,45,0
46360,note_on,10,0,2,,,,,,,,,0,,,60,0
46360,note_on,0,0,2,,,,,,,,,0,,,64,0
46360,note_on,40,0,1,,,,,,,,,0,,,64,100
46370,note_on,0,0,1,,,,,,,,,0,,,69,100
46370,note_on,10,0,1,,,,,,,,,0,,,64,0
46375,control_change,55,0,5,,,,,,,,,0,64,0,,
46380,note_on,0,0,1,,,,,,,,,0,,,76,100
46380,note_on,0,0,4,,,,,,,,,0,,,36,110
46380,control_change,5,0,5,,,,,,,,,0,64,127,,
46380,note_on,10,0,1,,,,,,,,,0,,,69,0
46380,note_on,0,0,4,,,,,,,,,0,,,48,110
46380,note_on,30,0,4,,,,,,,,,0,,,57,0
46380,note_on,0,0,1,,,,,,,,,0,,,72,100
46390,note_on,10,0,1,,,,,,,,,0,,,76,0
46390,note_on,0,0,1,,,,,,,,,0,,,76,100
46390,note_on,0,0,1,,,,,,,,,0,,,72,0
46400,note_on,0,0,1,,,,,,,,,0,,,81,100
46400,note_on,10,0,1,,,,,,,,,0,,,76,0
46410,note_on,10,0,1,,,,,,,,,0,,,81,0
46410,note_on,0,0,1,,,,,,,,,0,,,88,100
46410,note_on,0,0,1,,,,,,,,,0,,,84,100
46410,note_on,30,0,4,,,,,,,,,0,,,48,0
46410,note_on,0,0,4,,,,,,,,,0,,,36,0
46410,note_on,0,0,4,,,,,,,,,0,,,60,100
46420,note_on,10,0,1,,,,,,,,,0,,,84,0
46420,note_on,0,0,1,,,,,,,,,0,,,88,0
46420,note_on,0,0,1,,,,,,,,,0,,,76,100
46430,note_on,0,0,1,,,,,,,,,0,,,93,100
46430,note_on,10,0,1,,,,,,,,,0,,,76,0
46435,control_change,55,0,5,,,,,,,,,0,64,0,,
46440,note_on,30,0,4,,,,,,,,,0,,,60,0
46440,note_on,0,0,1,,,,,,,,,0,,,98,100
46440,note_on,0,0,1,,,,,,,,,0,,,100,100
46440,control_change,5,0,5,,,,,,,,,0,64,127,,
46440,note_on,10,0,1,,,,,,,,,0,,,93,0
46440,note_on,0,0,4,,,,,,,,,0,,,47,110
46440,note_on,0,0,4,,,,,,,,,0,,,35,110
46450,note_on,10,0,1,,,,,,,,,0,,,98,0
46450,note_on,0,0,1,,,,,,,,,0,,,100,0
46450,note_on,0,0,1,,,,,,,,,0,,,92,100
46460,note_on,10,0,1,,,,,,,,,0,,,92,0
46460,note_on,0,0,1,,,,,,,,,0,,,88,100
46470,note_on,10,0,1,,,,,,,,,0,,,88,0
46470,note_on,0,0,4,,,,,,,,,0,,,35,0
46470,note_on,0,0,1,,,,,,,,,0,,,86,100
46470,note_on,0,0,4,,,,,,,,,0,,,59,100
46470,note_on,0,0,1,,,,,,,,,0,,,88,100
46470,note_on,30,0,4,,,,,,,,,0,,,47,0
46480,note_on,10,0,1,,,,,,,,,0,,,86,0
46480,note_on,0,0,1,,,,,,,,,0,,,80,100
46480,note_on,0,0,1,,,,,,,,,0,,,88,0
46490,note_on,0,0,1,,,,,,,,,0,,,76,100
46490,note_on,10,0,1,,,,,,,,,0,,,80,0
46495,control_change,55,0,5,,,,,,,,,0,64,0,,
46500,note_on,10,0,1,,,,,,,,,0,,,76,0
46500,control_change,5,0,5,,,,,,,,,0,64,127,,
46500,note_on,0,0,4,,,,,,,,,0,,,45,110
46500,note_on,0,0,4,,,,,,,,,0,,,33,110
46500,note_on,30,0,4,,,,,,,,,0,,,59,0
46500,note_on,0,0,1,,,,,,,,,0,,,76,100
46500,note_on,0,0,1,,,,,,,,,0,,,72,100
46510,note_on,0,0,1,,,,,,,,,0,,,69,100
46510,note_on,0,0,1,,,,,,,,,0,,,76,0
46510,note_on,10,0,1,,,,,,,,,0,,,72,0
46520,note_on,10,0,1,,,,,,,,,0,,,69,0
46520,note_on,0,0,1,,,,,,,,,0,,,64,100
46530,note_on,30,0,4,,,,,,,,,0,,,45,0
46530,note_on,0,0,1,,,,,,,,,0,,,60,100
46530,note_on,0,0,1,,,,,,,,,0,,,64,100
46530,note_on,0,0,4,,,,,,,,,0,,,57,100
46530,note_on,0,0,4,,,,,,,,,0,,,33,0
46530,note_on,10,0,1,,,,,,,,,0,,,64,0
46555,control_change,55,0,5,,,,,,,,,0,64,0,,
46560,note_on,0,0,1,,,,,,,,,0,,,55,100
46560,note_on,0,0,1,,,,,,,,,0,,,60,0
46560,note_on,0,0,1,,,,,,,,,0,,,64,100
46560,note_on,0,0,4,,,,,,,,,0,,,52,100
46560,note_on,0,0,4,,,,,,,,,0,,,47,100
46560,note_on,0,0,4,,,,,,,,,0,,,40,100
46560,note_on,30,0,4,,,,,,,,,0,,,57,0
46560,note_on,30,0,1,,,,,,,,,0,,,64,0
46575,note_on,15,0,1,,,,,,,,,0,,,64,0
46575,note_on,0,0,4,,,,,,,,,0,,,40,0
46575,note_on,0,0,4,,,,,,,,,0,,,47,0
46575,note_on,15,0,4,,,,,,,,,0,,,52,0
46575,note_on,0,0,1,,,,,,,,,0,,,76,101
46575,note_on,0,0,1,,,,,,,,,0,,,64,101
46575,note_on,0,0,1,,,,,,,,,0,,,55,0
46575,note_on,0,0,4,,,,,,,,,0,,,52,101
46590,note_on,15,0,1,,,,,,,,,0,,,64,0
46590,note_on,0,0,1,,,,,,,,,0,,,77,102
46590,note_on,0,0,4,,,,,,,,,0,,,53,102
46590,note_on,0,0,1,,,,,,,,,0,,,76,0
46590,note_on,0,0,1,,,,,,,,,0,,,65,102
46590,note_on,15,0,4,,,,,,,,,0,,,52,0
46605,note_on,15,0,1,,,,,,,,,0,,,65,0
46605,note_on,15,0,4,,,,,,,,,0,,,53,0
46605,note_on,0,0,4,,,,,,,,,0,,,54,104
46605,note_on,0,0,1,,,,,,,,,0,,,66,104
46605,note_on,0,0,1,,,,,,,,,0,,,77,0
46605,note_on,0,0,1,,,,,,,,,0,,,78,104
46620,note_on,0,0,4,,,,,,,,,0,,,55,105
46620,note_on,15,0,1,,,,,,,,,0,,,66,0
46620,note_on,0,0,1,,,,,,,,,0,,,67,105
46620,note_on,0,0,1,,,,,,,,,0,,,78,0
46620,note_on,0,0,1,,,,,,,,,0,,,79,105
46620,note_on,15,0,4,,,,,,,,,0,,,54,0
46635,note_on,15,0,1,,,,,,,,,0,,,67,0
46635,note_on,0,0,1,,,,,,,,,0,,,80,107
46635,note_on,0,0,1,,,,,,,,,0,,,79,0
46635,note_on,0,0,1,,,,,,,,,0,,,68,107
46635,note_on,15,0,4,,,,,,,,,0,,,55,0
46635,note_on,0,0,4,,,,,,,,,0,,,56,107
46650,note_on,0,0,1,,,,,,,,,0,,,69,108
46650,note_on,0,0,1,,,,,,,,,0,,,80,0
46650,note_on,15,0,4,,,,,,,,,0,,,56,0
46650,note_on,0,0,4,,,,,,,,,0,,,57,108
46650,note_on,15,0,1,,,,,,,,,0,,,68,0
46650,note_on,0,0,1,,,,,,,,,0,,,81,108
46665,note_on,15,0,1,,,,,,,,,0,,,69,0
46665,note_on,15,0,4,,,,,,,,,0,,,57,0
46665,note_on,0,0,4,,,,,,,,,0,,,58,110
46665,note_on,0,0,1,,,,,,,,,0,,,82,110
46665,note_on,0,0,1,,,,,,,,,0,,,81,0
46665,note_on,0,0,1,,,,,,,,,0,,,70,110
46680,note_on,0,0,1,,,,,,,,,0,,,82,0
46680,note_on,0,0,4,,,,,,,,,0,,,59,111
46680,note_on,0,0,1,,,,,,,,,0,,,83,111
46680,note_on,15,0,1,,,,,,,,,0,,,70,0
46680,note_on,15,0,4,,,,,,,,,0,,,58,0
46680,note_on,0,0,1,,,,,,,,,0,,,71,111
46695,note_on,0,0,4,,,,,,,,,0,,,60,113
46695,note_on,15,0,1,,,,,,,,,0,,,71,0
46695,note_on,0,0,1,,,,,,,,,0,,,84,113
46695,note_on,0,0,1,,,,,,,,,0,,,83,0
46695,note_on,15,0,4,,,,,,,,,0,,,59,0
46695,note_on,0,0,1,,,,,,,,,0,,,72,113
46710,note_on,15,0,4,,,,,,,,,0,,,60,0
46710,note_on,0,0,1,,,,,,,,,0,,,73,114
46710,note_on,0,0,1,,,,,,,,,0,,,84,0
46710,note_on,0,0,1,,,,,,,,,0,,,85,114
46710,note_on,15,0,1,,,,,,,,,0,,,72,0
46710,note_on,0,0,4,,,,,,,,,0,,,61,114
46725,note_on,0,0,1,,,,,,,,,0,,,74,116
46725,note_on,15,0,1,,,,,,,,,0,,,73,0
46725,note_on,0,0,1,,,,,,,,,0,,,85,0
46725,note_on,0,0,1,,,,,,,,,0,,,86,116
46725,note_on,15,0,4,,,,,,,,,0,,,61,0
46725,note_on,0,0,4,,,,,,,,,0,,,62,116
46740,note_on,0,0,1,,,,,,,,,0,,,87,117
46740,note_on,15,0,1,,,,,,,,,0,,,74,0
46740,note_on,0,0,1,,,,,,,,,0,,,75,117
46740,note_on,15,0,4,,,,,,,,,0,,,62,0
46740,note_on,0,0,4,,,,,,,,,0,,,63,117
46740,note_on,0,0,1,,,,,,,,,0,,,86,0
46755,note_on,0,0,4,,,,,,,,,0,,,64,119
46755,note_on,15,0,4,,,,,,,,,0,,,63,0
46755,note_on,15,0,1,,,,,,,,,0,,,75,0
46755,note_on,0,0,1,,,,,,,,,0,,,88,119
46755,note_on,0,0,1,,,,,,,,,0,,,87,0
46755,note_on,0,0,1,,,,,,,,,0,,,76,119
46770,note_on,0,0,1,,,,,,,,,0,,,89,120
46770,note_on,0,0,4,,,,,,,,,0,,,40,100
46770,note_on,0,0,1,,,,,,,,,0,,,88,0
46770,note_on,0,0,1,,,,,,,,,0,,,77,120
46770,note_on,0,0,4,,,,,,,,,0,,,65,120
46770,note_on,15,0,1,,,,,,,,,0,,,76,0
46770,note_on,15,0,4,,,,,,,,,0,,,64,0
46780,note_on,10,0,4,,,,,,,,,0,,,40,0
46780,note_on,0,0,4,,,,,,,,,0,,,42,100
46785,note_on,5,0,4,,,,,,,,,0,,,65,0
46785,note_on,0,0,1,,,,,,,,,0,,,76,120
46785,note_on,0,0,1,,,,,,,,,0,,,88,120
46785,note_on,0,0,1,,,,,,,,,0,,,89,0
46785,note_on,0,0,4,,,,,,,,,0,,,64,120
46785,note_on,15,0,1,,,,,,,,,0,,,77,0
46790,note_on,5,0,4,,,,,,,,,0,,,42,0
46790,note_on,0,0,4,,,,,,,,,0,,,44,100
46800,note_on,15,0,1,,,,,,,,,0,,,76,0
46800,note_on,0,0,1,,,,,,,,,0,,,88,0
46800,note_on,0,0,4,,,,,,,,,0,,,45,110
46800,note_on,0,0,4,,,,,,,,,0,,,33,110
46800,control_change,245,0,5,,,,,,,,,0,64,127,,
46800,note_on,0,0,4,,,,,,,,,0,,,64,0
46800,note_on,10,0,4,,,,,,,,,0,,,44,0
46810,note_on,450,0,2,,,,,,,,,0,,,52,100
46820,note_on,0,0,2,,,,,,,,,0,,,55,100
46820,note_on,10,0,2,,,,,,,,,0,,,52,0
46830,note_on,30,0,4,,,,,,,,,0,,,45,0
46830,note_on,0,0,4,,,,,,,,,0,,,57,100
46830,note_on,0,0,2,,,,,,,,,0,,,60,100
46830,note_on,0,0,2,,,,,,,,,0,,,64,100
46830,note_on,10,0,2,,,,,,,,,0,,,55,0
46830,note_on,0,0,4,,,,,,,,,0,,,33,0
46840,note_on,10,0,2,,,,,,,,,0,,,60,0
46840,note_on,40,0,1,,,,,,,,,0,,,64,100
46840,note_on,0,0,2,,,,,,,,,0,,,64,0
46850,note_on,10,0,1,,,,,,,,,0,,,64,0
46850,note_on,0,0,1,,,,,,,,,0,,,69,100
46855,control_change,55,0,5,,,,,,,,,0,64,0,,
46860,note_on,0,0,4,,,,,,,,,0,,,48,110
46860,note_on,10,0,1,,,,,,,,,0,,,69,0
46860,control_change,5,0,5,,,,,,,,,0,64,127,,
46860,note_on,0,0,4,,,,,,,,,0,,,36,110
46860,note_on,0,0,1,,,,,,,,,0,,,72,100
46860,note_on,0,0,1,,,,,,,,,0,,,76,100
46860,note_on,30,0,4,,,,,,,,,0,,,57,0
46870,note_on,0,0,1,,,,,,,,,0,,,76,100
46870,note_on,0,0,1,,,,,,,,,0,,,72,0
46870,note_on,10,0,1,,,,,,,,,0,,,76,0
46880,note_on,0,0,1,,,,,,,,,0,,,81,100
46880,note_on,10,0,1,,,,,,,,,0,,,76,0
46890,note_on,0,0,1,,,,,,,,,0,,,88,100
46890,note_on,0,0,4,,,,,,,,,0,,,60,100
46890,note_on,0,0,1,,,,,,,,,0,,,84,100
46890,note_on,0,0,4,,,,,,,,,0,,,36,0
46890,note_on,10,0,1,,,,,,,,,0,,,81,0
46890,note_on,30,0,4,,,,,,,,,0,,,48,0
46900,note_on,10,0,1,,,,,,,,,0,,,84,0
46900,note_on,0,0,1,,,,,,,,,0,,,88,0
46900,note_on,0,0,1,,,,,,,,,0,,,76,100
46910,note_on,10,0,1,,,,,,,,,0,,,76,0
46910,note_on,0,0,1,,,,,,,,,0,,,93,100
46915,control_change,55,0,5,,,,,,,,,0,64,0,,
46920,note_on,0,0,4,,,,,,,,,0,,,35,110
46920,note_on,0,0,4,,,,,,,,,0,,,47,110
46920,note_on,0,0,1,,,,,,,,,0,,,100,100
46920,note_on,30,0,4,,,,,,,,,0,,,60,0
46920,note_on,0,0,1,,,,,,,,,0,,,98,100
46920,note_on,10,0,1,,,,,,,,,0,,,93,0
46920,control_change,5,0,5,,,,,,,,,0,64,127,,
46930,note_on,10,0,1,,,,,,,,,0,,,98,0
46930,note_on,0,0,1,,,,,,,,,0,,,100,0
46930,note_on,0,0,1,,,,,,,,,0,,,92,100
46940,note_on,0,0,1,,,,,,,,,0,,,88,100
46940,note_on,10,0,1,,,,,,,,,0,,,92,0
46950,note_on,30,0,4,,,,,,,,,0,,,47,0
46950,note_on,0,0,4,,,,,,,,,0,,,35,0
46950,note_on,0,0,4,,,,,,,,,0,,,59,100
46950,note_on,0,0,1,,,,,,,,,0,,,86,100
46950,note_on,0,0,1,,,,,,,,,0,,,88,100
46950,note_on,10,0,1,,,,,,,,,0,,,88,0
46960,note_on,10,0,1,,,,,,,,,0,,,86,0
46960,note_on,0,0,1,,,,,,,,,0,,,80,100
46960,note_on,0,0,1,,,,,,,,,0,,,88,0
46970,note_on,0,0,1,,,,,,,,,0,,,76,100
46970,note_on,10,0,1,,,,,,,,,0,,,80,0
46975,control_change,55,0,5,,,,,,,,,0,64,0,,
46980,note_on,0,0,4,,,,,,,,,0,,,45,110
46980,note_on,0,0,4,,,,,,,,,0,,,33,110
46980,note_on,10,0,1,,,,,,,,,0,,,76,0
46980,note_on,30,0,4,,,,,,,,,0,,,59,0
46980,control_change,5,0,5,,,,,,,,,0,64,127,,
46980,note_on,0,0,1,,,,,,,,,0,,,72,100
46980,note_on,0,0,1,,,,,,,,,0,,,76,100
46990,note_on,10,0,1,,,,,,,,,0,,,72,0
46990,note_on,0,0,1,,,,,,,,,0,,,69,100
46990,note_on,0,0,1,,,,,,,,,0,,,76,0
47000,note_on,0,0,1,,,,,,,,,0,,,64,100
47000,note_on,10,0,1,,,,,,,,,0,,,69,0
47010,note_on,0,0,4,,,,,,,,,0,,,57,100
47010,note_on,0,0,1,,,,,,,,,0,,,60,100
47010,note_on,30,0,4,,,,,,,,,0,,,45,0
47010,note_on,10,0,1,,,,,,,,,0,,,64,0
47010,note_on,0,0,1,,,,,,,,,0,,,64,100
47010,note_on,0,0,4,,,,,,,,,0,,,33,0
47035,control_change,55,0,5,,,,,,,,,0,64,0,,
47040,note_on,30,0,4,,,,,,,,,0,,,57,0
47040,note_on,30,0,1,,,,,,,,,0,,,64,0
47040,note_on,0,0,1,,,,,,,,,0,,,56,100
47040,note_on,0,0,1,,,,,,,,,0,,,60,0
47040,note_on,0,0,1,,,,,,,,,0,,,64,100
47040,note_on,0,0,1,,,,,,,,,0,,,59,100
47040,control_change,5,0,5,,,,,,,,,0,64,127,,
47050,note_on,10,0,4,,,,,,,,,0,,,32,100
47060,note_on,10,0,4,,,,,,,,,0,,,32,0
47060,note_on,0,0,4,,,,,,,,,0,,,35,100
47070,note_on,30,0,1,,,,,,,,,0,,,64,0
47070,note_on,0,0,4,,,,,,,,,0,,,40,100
47070,note_on,10,0,4,,,,,,,,,0,,,35,0
47070,note_on,0,0,1,,,,,,,,,0,,,88,120
47070,note_on,0,0,1,,,,,,,,,0,,,76,120
47070,note_on,0,0,1,,,,,,,,,0,,,83,120
47070,note_on,0,0,1,,,,,,,,,0,,,56,0
47070,note_on,0,0,1,,,,,,,,,0,,,80,120
47070,note_on,0,0,1,,,,,,,,,0,,,59,0
47080,note_on,10,0,4,,,,,,,,,0,,,40,0
47080,note_on,0,0,4,,,,,,,,,0,,,44,100
47090,note_on,10,0,4,,,,,,,,,0,,,44,0
47090,note_on,0,0,4,,,,,,,,,0,,,47,100
47095,control_change,55,0,5,,,,,,,,,0,64,0,,
47100,note_on,0,0,4,,,,,,,,,0,,,52,100
47100,note_on,10,0,4,,,,,,,,,0,,,47,0
47100,control_change,5,0,5,,,,,,,,,0,64,127,,
47110,note_on,0,0,4,,,,,,,,,0,,,56,100
47110,note_on,10,0,4,,,,,,,,,0,,,52,0
47120,note_on,10,0,4,,,,,,,,,0,,,56,0
47120,note_on,0,0,4,,,,,,,,,0,,,59,100
47130,note_on,0,0,1,,,,,,,,,0,,,79,120
47130,note_on,0,0,1,,,,,,,,,0,,,83,120
47130,note_on,890,0,3,,,,,,,,,0,,,64,100
47130,note_on,0,0,1,,,,,,,,,0,,,88,0
47130,note_on,0,0,1,,,,,,,,,0,,,91,120
47130,note_on,0,0,1,,,,,,,,,0,,,83,0
47130,note_on,10,0,4,,,,,,,,,0,,,59,0
47130,note_on,60,0,1,,,,,,,,,0,,,76,0
47130,note_on,0,0,1,,,,,,,,,0,,,80,0
47130,note_on,0,0,1,,,,,,,,,0,,,86,120
47140,note_on,10,0,3,,,,,,,,,0,,,64,0
47140,note_on,0,0,3,,,,,,,,,0,,,68,100
47150,note_on,0,0,3,,,,,,,,,0,,,71,100
47150,note_on,10,0,3,,,,,,,,,0,,,68,0
47155,control_change,55,0,5,,,,,,,,,0,64,0,,
47160,control_change,5,0,5,,,,,,,,,0,64,127,,
47160,note_on,0,0,3,,,,,,,,,0,,,76,100
47160,note_on,10,0,3,,,,,,,,,0,,,71,0
47170,note_on,10,0,3,,,,,,,,,0,,,76,0
47170,note_on,0,0,3,,,,,,,,,0,,,71,100
47180,note_on,10,0,3,,,,,,,,,0,,,71,0
47180,note_on,0,0,3,,,,,,,,,0,,,68,100
47190,note_on,10,0,3,,,,,,,,,0,,,68,0
47190,note_on,0,0,1,,,,,,,,,0,,,83,0
47190,note_on,0,0,1,,,,,,,,,0,,,77,120
47190,note_on,0,0,3,,,,,,,,,0,,,64,100
47190,note_on,0,0,1,,,,,,,,,0,,,91,0
47190,note_on,0,0,1,,,,,,,,,0,,,89,120
47190,note_on,0,0,1,,,,,,,,,0,,,86,120
47190,note_on,0,0,1,,,,,,,,,0,,,86,0
47190,note_on,60,0,1,,,,,,,,,0,,,79,0
47190,note_on,0,0,1,,,,,,,,,0,,,83,120
47200,note_on,10,0,3,,,,,,,,,0,,,64,0
47200,note_on,70,0,4,,,,,,,,,0,,,59,100
47210,note_on,0,0,4,,,,,,,,,0,,,55,100
47210,note_on,10,0,4,,,,,,,,,0,,,59,0
47215,control_change,55,0,5,,,,,,,,,0,64,0,,
47220,note_on,10,0,4,,,,,,,,,0,,,55,0
47220,control_change,5,0,5,,,,,,,,,0,64,127,,
47220,note_on,0,0,4,,,,,,,,,0,,,52,100
47230,note_on,0,0,4,,,,,,,,,0,,,47,100
47230,note_on,10,0,4,,,,,,,,,0,,,52,0
47240,note_on,0,0,4,,,,,,,,,0,,,43,100
47240,note_on,10,0,4,,,,,,,,,0,,,47,0
47250,note_on,0,0,4,,,,,,,,,0,,,40,100
47250,note_on,0,0,1,,,,,,,,,0,,,86,0
47250,note_on,0,0,1,,,,,,,,,0,,,83,0
47250,note_on,0,0,1,,,,,,,,,0,,,76,110
47250,note_on,0,0,1,,,,,,,,,0,,,86,110
47250,note_on,0,0,1,,,,,,,,,0,,,88,110
47250,note_on,60,0,1,,,,,,,,,0,,,77,0
47250,note_on,10,0,4,,,,,,,,,0,,,43,0
47250,note_on,0,0,1,,,,,,,,,0,,,83,110
47250,note_on,0,0,1,,,,,,,,,0,,,89,0
47260,note_on,0,0,4,,,,,,,,,0,,,35,100
47260,note_on,10,0,4,,,,,,,,,0,,,40,0
47270,note_on,10,0,4,,,,,,,,,0,,,35,0
47270,note_on,0,0,4,,,,,,,,,0,,,31,100
47275,control_change,55,0,5,,,,,,,,,0,64,0,,
47280,note_on,0,0,1,,,,,,,,,0,,,86,0
47280,note_on,10,0,4,,,,,,,,,0,,,31,0
47280,note_on,30,0,1,,,,,,,,,0,,,76,0
47280,note_on,0,0,4,,,,,,,,,0,,,45,110
47280,note_on,0,0,4,,,,,,,,,0,,,33,110
47280,note_on,0,0,1,,,,,,,,,0,,,88,0
47280,control_change,5,0,5,,,,,,,,,0,64,127,,
47280,note_on,0,0,1,,,,,,,,,0,,,83,0
47290,note_on,450,0,2,,,,,,,,,0,,,52,100
47300,note_on,0,0,2,,,,,,,,,0,,,55,100
47300,note_on,10,0,2,,,,,,,,,0,,,52,0
47310,note_on,0,0,4,,,,,,,,,0,,,57,100
47310,note_on,0,0,4,,,,,,,,,0,,,33,0
47310,note_on,30,0,4,,,,,,,,,0,,,45,0
47310,note_on,0,0,2,,,,,,,,,0,,,64,100
47310,note_on,10,0,2,,,,,,,,,0,,,55,0
47310,note_on,0,0,2,,,,,,,,,0,,,60,100
47320,note_on,10,0,2,,,,,,,,,0,,,60,0
47320,note_on,40,0,1,,,,,,,,,0,,,64,100
47320,note_on,0,0,2,,,,,,,,,0,,,64,0
47330,note_on,0,0,1,,,,,,,,,0,,,69,100
47330,note_on,10,0,1,,,,,,,,,0,,,64,0
47335,control_change,55,0,5,,,,,,,,,0,64,0,,
47340,note_on,0,0,1,,,,,,,,,0,,,72,100
47340,note_on,0,0,1,,,,,,,,,0,,,76,100
47340,note_on,0,0,4,,,,,,,,,0,,,36,110
47340,note_on,0,0,4,,,,,,,,,0,,,48,110
47340,control_change,5,0,5,,,,,,,,,0,64,127,,
47340,note_on,30,0,4,,,,,,,,,0,,,57,0
47340,note_on,10,0,1,,,,,,,,,0,,,69,0
47350,note_on,0,0,1,,,,,,,,,0,,,76,100
47350,note_on,0,0,1,,,,,,,,,0,,,72,0
47350,note_on,10,0,1,,,,,,,,,0,,,76,0
47360,note_on,0,0,1,,,,,,,,,0,,,81,100
47360,note_on,10,0,1,,,,,,,,,0,,,76,0
47370,note_on,0,0,4,,,,,,,,,0,,,60,100
47370,note_on,10,0,1,,,,,,,,,0,,,81,0
47370,note_on,0,0,1,,,,,,,,,0,,,84,100
47370,note_on,0,0,1,,,,,,,,,0,,,88,100
47370,note_on,0,0,4,,,,,,,,,0,,,36,0
47370,note_on,30,0,4,,,,,,,,,0,,,48,0
47380,note_on,0,0,1,,,,,,,,,0,,,88,0
47380,note_on,0,0,1,,,,,,,,,0,,,76,100
47380,note_on,10,0,1,,,,,,,,,0,,,84,0
47390,note_on,10,0,1,,,,,,,,,0,,,76,0
47390,note_on,0,0,1,,,,,,,,,0,,,93,100
47395,control_change,55,0,5,,,,,,,,,0,64,0,,
47400,note_on,30,0,4,,,,,,,,,0,,,60,0
47400,note_on,0,0,4,,,,,,,,,0,,,35,110
47400,note_on,10,0,1,,,,,,,,,0,,,93,0
47400,note_on,0,0,4,,,,,,,,,0,,,47,110
47400,control_change,5,0,5,,,,,,,,,0,64,127,,
47400,note_on,0,0,1,,,,,,,,,0,,,100,100
47400,note_on,0,0,1,,,,,,,,,0,,,98,100
47410,note_on,0,0,1,,,,,,,,,0,,,92,100
47410,note_on,0,0,1,,,,,,,,,0,,,100,0
47410,note_on,10,0,1,,,,,,,,,0,,,98,0
47420,note_on,0,0,1,,,,,,,,,0,,,88,100
47420,note_on,10,0,1,,,,,,,,,0,,,92,0
47430,note_on,10,0,1,,,,,,,,,0,,,88,0
47430,note_on,30,0,4,,,,,,,,,0,,,47,0
47430,note_on,0,0,4,,,,,,,,,0,,,35,0
47430,note_on,0,0,4,,,,,,,,,0,,,59,100
47430,note_on,0,0,1,,,,,,,,,0,,,88,100
47430,note_on,0,0,1,,,,,,,,,0,,,86,100
47440,note_on,0,0,1,,,,,,,,,0,,,88,0
47440,note_on,0,0,1,,,,,,,,,0,,,80,100
47440,note_on,10,0,1,,,,,,,,,0,,,86,0
47450,note_on,0,0,1,,,,,,,,,0,,,76,100
47450,note_on,10,0,1,,,,,,,,,0,,,80,0
47455,control_change,55,0,5,,,,,,,,,0,64,0,,
47460,note_on,30,0,4,,,,,,,,,0,,,59,0
47460,note_on,0,0,1,,,,,,,,,0,,,76,100
47460,note_on,0,0,1,,,,,,,,,0,,,72,100
47460,control_change,5,0,5,,,,,,,,,0,64,127,,
47460,note_on,0,0,4,,,,,,,,,0,,,33,110
47460,note_on,0,0,4,,,,,,,,,0,,,45,110
47460,note_on,10,0,1,,,,,,,,,0,,,76,0
47470,note_on,10,0,1,,,,,,,,,0,,,72,0
47470,note_on,0,0,1,,,,,,,,,0,,,69,100
47470,note_on,0,0,1,,,,,,,,,0,,,76,0
47480,note_on,10,0,1,,,,,,,,,0,,,69,0
47480,note_on,0,0,1,,,,,,,,,0,,,64,100
47490,note_on,30,0,4,,,,,,,,,0,,,45,0
47490,note_on,10,0,1,,,,,,,,,0,,,64,0
47490,note_on,0,0,4,,,,,,,,,0,,,57,100
47490,note_on,0,0,4,,,,,,,,,0,,,33,0
47490,note_on,0,0,1,,,,,,,,,0,,,60,100
47490,note_on,0,0,1,,,,,,,,,0,,,64,100
47515,control_change,55,0,5,,,,,,,,,0,64,0,,
47520,note_on,0,0,1,,,,,,,,,0,,,55,100
47520,note_on,30,0,4,,,,,,,,,0,,,57,0
47520,note_on,0,0,4,,,,,,,,,0,,,52,100
47520,note_on,0,0,1,,,,,,,,,0,,,64,100
47520,note_on,0,0,4,,,,,,,,,0,,,40,100
47520,note_on,0,0,4,,,,,,,,,0,,,47,100
47520,note_on,30,0,1,,,,,,,,,0,,,64,0
47520,note_on,0,0,1,,,,,,,,,0,,,60,0
47535,note_on,15,0,1,,,,,,,,,0,,,64,0
47535,note_on,0,0,1,,,,,,,,,0,,,76,101
47535,note_on,0,0,1,,,,,,,,,0,,,55,0
47535,note_on,0,0,4,,,,,,,,,0,,,40,0
47535,note_on,0,0,4,,,,,,,,,0,,,47,0
47535,note_on,0,0,4,,,,,,,,,0,,,52,101
47535,note_on,15,0,4,,,,,,,,,0,,,52,0
47535,note_on,0,0,1,,,,,,,,,0,,,64,101
47550,note_on,0,0,1,,,,,,,,,0,,,65,102
47550,note_on,15,0,1,,,,,,,,,0,,,64,0
47550,note_on,0,0,4,,,,,,,,,0,,,53,102
47550,note_on,0,0,1,,,,,,,,,0,,,76,0
47550,note_on,15,0,4,,,,,,,,,0,,,52,0
47550,note_on,0,0,1,,,,,,,,,0,,,77,102
47565,note_on,15,0,4,,,,,,,,,0,,,53,0
47565,note_on,15,0,1,,,,,,,,,0,,,65,0
47565,note_on,0,0,4,,,,,,,,,0,,,54,104
47565,note_on,0,0,1,,,,,,,,,0,,,78,104
47565,note_on,0,0,1,,,,,,,,,0,,,66,104
47565,note_on,0,0,1,,,,,,,,,0,,,77,0
47580,note_on,0,0,1,,,,,,,,,0,,,67,105
47580,note_on,15,0,4,,,,,,,,,0,,,54,0
47580,note_on,15,0,1,,,,,,,,,0,,,66,0
47580,note_on,0,0,4,,,,,,,,,0,,,55,105
47580,note_on,0,0,1,,,,,,,,,0,,,78,0
47580,note_on,0,0,1,,,,,,,,,0,,,79,105
47595,note_on,0,0,1,,,,,,,,,0,,,68,107
47595,note_on,0,0,4,,,,,,,,,0,,,56,107
47595,note_on,0,0,1,,,,,,,,,0,,,79,0
47595,note_on,15,0,4,,,,,,,,,0,,,55,0
47595,note_on,0,0,1,,,,,,,,,0,,,80,107
47595,note_on,15,0,1,,,,,,,,,0,,,67,0
47610,note_on,0,0,1,,,,,,,,,0,,,81,108
47610,note_on,0,0,4,,,,,,,,,0,,,57,108
47610,note_on,0,0,1,,,,,,,,,0,,,80,0
47610,note_on,0,0,1,,,,,,,,,0,,,69,108
47610,note_on,15,0,4,,,,,,,,,0,,,56,0
47610,note_on,15,0,1,,,,,,,,,0,,,68,0
47625,note_on,0,0,4,,,,,,,,,0,,,58,110
47625,note_on,0,0,1,,,,,,,,,0,,,82,110
47625,note_on,15,0,4,,,,,,,,,0,,,57,0
47625,note_on,0,0,1,,,,,,,,,0,,,81,0
47625,note_on,0,0,1,,,,,,,,,0,,,70,110
47625,note_on,15,0,1,,,,,,,,,0,,,69,0
47640,note_on,0,0,4,,,,,,,,,0,,,59,111
47640,note_on,0,0,1,,,,,,,,,0,,,71,111
47640,note_on,0,0,1,,,,,,,,,0,,,82,0
47640,note_on,0,0,1,,,,,,,,,0,,,83,111
47640,note_on,15,0,4,,,,,,,,,0,,,58,0
47640,note_on,15,0,1,,,,,,,,,0,,,70,0
47655,note_on,0,0,4,,,,,,,,,0,,,60,113
47655,note_on,0,0,1,,,,,,,,,0,,,84,113
47655,note_on,0,0,1,,,,,,,,,0,,,83,0
47655,note_on,0,0,1,,,,,,,,,0,,,72,113
47655,note_on,15,0,4,,,,,,,,,0,,,59,0
47655,note_on,15,0,1,,,,,,,,,0,,,71,0
47670,note_on,0,0,1,,,,,,,,,0,,,73,114
47670,note_on,0,0,1,,,,,,,,,0,,,85,114
47670,note_on,0,0,1,,,,,,,,,0,,,84,0
47670,note_on,15,0,1,,,,,,,,,0,,,72,0
47670,note_on,0,0,4,,,,,,,,,0,,,61,114
47670,note_on,15,0,4,,,,,,,,,0,,,60,0
47685,note_on,15,0,1,,,,,,,,,0,,,73,0
47685,note_on,0,0,4,,,,,,,,,0,,,62,116
47685,note_on,15,0,4,,,,,,,,,0,,,61,0
47685,note_on,0,0,1,,,,,,,,,0,,,86,116
47685,note_on,0,0,1,,,,,,,,,0,,,85,0
47685,note_on,0,0,1,,,,,,,,,0,,,74,116
47700,note_on,15,0,1,,,,,,,,,0,,,74,0
47700,note_on,0,0,1,,,,,,,,,0,,,87,117
47700,note_on,0,0,4,,,,,,,,,0,,,63,117
47700,note_on,0,0,1,,,,,,,,,0,,,86,0
47700,note_on,15,0,4,,,,,,,,,0,,,62,0
47700,note_on,0,0,1,,,,,,,,,0,,,75,117
47715,note_on,15,0,1,,,,,,,,,0,,,75,0
47715,note_on,0,0,1,,,,,,,,,0,,,88,119
47715,note_on,15,0,4,,,,,,,,,0,,,63,0
47715,note_on,0,0,1,,,,,,,,,0,,,76,119
47715,note_on,0,0,4,,,,,,,,,0,,,64,119
47715,note_on,0,0,1,,,,,,,,,0,,,87,0
47730,note_on,0,0,1,,,,,,,,,0,,,88,0
47730,note_on,0,0,1,,,,,,,,,0,,,89,120
47730,note_on,0,0,1,,,,,,,,,0,,,77,120
47730,note_on,15,0,1,,,,,,,,,0,,,76,0
47730,note_on,15,0,4,,,,,,,,,0,,,64,0
47730,note_on,0,0,4,,,,,,,,,0,,,65,120
47745,note_on,15,0,4,,,,,,,,,0,,,65,0
47745,note_on,15,0,1,,,,,,,,,0,,,77,0
47745,note_on,0,0,1,,,,,,,,,0,,,76,120
47745,note_on,0,0,1,,,,,,,,,0,,,88,120
47745,note_on,0,0,1,,,,,,,,,0,,,89,0
47745,note_on,0,0,4,,,,,,,,,0,,,64,120
47760,note_on,15,0,1,,,,,,,,,0,,,76,0
47760,note_on,15,0,4,,,,,,,,,0,,,64,0
47760,note_on,0,0,1,,,,,,,,,0,,,88,0
47760,note_on,0,0,4,,,,,,,,,0,,,49,100
47760,control_change,245,0,5,,,,,,,,,0,64,127,,
47760,note_on,0,0,4,,,,,,,,,0,,,52,100
47760,note_on,0,0,4,,,,,,,,,0,,,57,100
47770,note_on,10,0,1,,,,,,,,,0,,,61,100
47780,note_on,0,0,1,,,,,,,,,0,,,64,100
47780,note_on,10,0,1,,,,,,,,,0,,,61,0
47790,note_on,0,0,4,,,,,,,,,0,,,57,0
47790,note_on,10,0,1,,,,,,,,,0,,,64,0
47790,note_on,30,0,4,,,,,,,,,0,,,49,0
47790,note_on,0,0,4,,,,,,,,,0,,,37,100
47790,note_on,0,0,1,,,,,,,,,0,,,69,100
47790,note_on,0,0,4,,,,,,,,,0,,,52,0
47800,note_on,10,0,1,,,,,,,,,0,,,69,0
47800,note_on,0,0,1,,,,,,,,,0,,,69,100
47810,note_on,0,0,1,,,,,,,,,0,,,73,100
47810,note_on,10,0,1,,,,,,,,,0,,,69,0
47815,control_change,55,0,5,,,,,,,,,0,64,0,,
47820,note_on,0,0,4,,,,,,,,,0,,,49,100
47820,note_on,0,0,4,,,,,,,,,0,,,55,100
47820,note_on,10,0,1,,,,,,,,,0,,,73,0
47820,note_on,30,0,4,,,,,,,,,0,,,37,0
47820,note_on,0,0,4,,,,,,,,,0,,,58,100
47820,control_change,5,0,5,,,,,,,,,0,64,127,,
47820,note_on,0,0,1,,,,,,,,,0,,,82,100
47820,note_on,0,0,1,,,,,,,,,0,,,79,100
47830,note_on,0,0,1,,,,,,,,,0,,,82,0
47830,note_on,10,0,1,,,,,,,,,0,,,79,0
47830,note_on,0,0,1,,,,,,,,,0,,,82,100
47840,note_on,0,0,1,,,,,,,,,0,,,85,100
47840,note_on,10,0,1,,,,,,,,,0,,,82,0
47850,note_on,30,0,4,,,,,,,,,0,,,49,0
47850,note_on,0,0,1,,,,,,,,,0,,,91,100
47850,note_on,0,0,4,,,,,,,,,0,,,58,0
47850,note_on,0,0,1,,,,,,,,,0,,,94,100
47850,note_on,0,0,4,,,,,,,,,0,,,55,0
47850,note_on,10,0,1,,,,,,,,,0,,,85,0
47850,note_on,0,0,4,,,,,,,,,0,,,45,100
47860,note_on,0,0,1,,,,,,,,,0,,,85,100
47860,note_on,0,0,1,,,,,,,,,0,,,94,0
47860,note_on,10,0,1,,,,,,,,,0,,,91,0
47870,note_on,10,0,1,,,,,,,,,0,,,85,0
47870,note_on,0,0,1,,,,,,,,,0,,,82,100
47875,control_change,55,0,5,,,,,,,,,0,64,0,,
47880,note_on,0,0,1,,,,,,,,,0,,,93,100
47880,note_on,0,0,4,,,,,,,,,0,,,49,100
47880,note_on,0,0,4,,,,,,,,,0,,,53,100
47880,note_on,0,0,1,,,,,,,,,0,,,89,100
47880,note_on,10,0,1,,,,,,,,,0,,,82,0
47880,control_change,5,0,5,,,,,,,,,0,64,127,,
47880,note_on,30,0,4,,,,,,,,,0,,,45,0
47880,note_on,0,0,4,,,,,,,,,0,,,57,100
47890,note_on,10,0,1,,,,,,,,,0,,,89,0
47890,note_on,0,0,1,,,,,,,,,0,,,93,0
47890,note_on,0,0,1,,,,,,,,,0,,,85,100
47900,note_on,10,0,1,,,,,,,,,0,,,85,0
47900,note_on,0,0,1,,,,,,,,,0,,,81,100
47910,note_on,0,0,4,,,,,,,,,0,,,37,100
47910,note_on,0,0,4,,,,,,,,,0,,,57,0
47910,note_on,0,0,1,,,,,,,,,0,,,77,100
47910,note_on,0,0,1,,,,,,,,,0,,,81,100
47910,note_on,30,0,4,,,,,,,,,0,,,49,0
47910,note_on,10,0,1,,,,,,,,,0,,,81,0
47910,note_on,0,0,4,,,,,,,,,0,,,53,0
47920,note_on,0,0,1,,,,,,,,,0,,,81,0
47920,note_on,0,0,1,,,,,,,,,0,,,73,100
47920,note_on,10,0,1,,,,,,,,,0,,,77,0
47930,note_on,0,0,1,,,,,,,,,0,,,69,100
47930,note_on,10,0,1,,,,,,,,,0,,,73,0
47935,control_change,55,0,5,,,,,,,,,0,64,0,,
47940,note_on,30,0,4,,,,,,,,,0,,,37,0
47940,control_change,5,0,5,,,,,,,,,0,64,127,,
47940,note_on,10,0,1,,,,,,,,,0,,,69,0
47940,note_on,0,0,4,,,,,,,,,0,,,55,100
47940,note_on,0,0,4,,,,,,,,,0,,,52,100
47940,note_on,0,0,4,,,,,,,,,0,,,49,100
47940,note_on,0,0,1,,,,,,,,,0,,,79,100
47940,note_on,0,0,1,,,,,,,,,0,,,76,100
47950,note_on,0,0,1,,,,,,,,,0,,,70,100
47950,note_on,10,0,1,,,,,,,,,0,,,76,0
47950,note_on,0,0,1,,,,,,,,,0,,,79,0
47960,note_on,10,0,1,,,,,,,,,0,,,70,0
47960,note_on,0,0,1,,,,,,,,,0,,,69,100
47970,note_on,0,0,1,,,,,,,,,0,,,67,100
47970,note_on,0,0,4,,,,,,,,,0,,,45,100
47970,note_on,0,0,4,,,,,,,,,0,,,52,0
47970,note_on,0,0,4,,,,,,,,,0,,,55,0
47970,note_on,30,0,4,,,,,,,,,0,,,49,0
47970,note_on,10,0,1,,,,,,,,,0,,,69,0
47970,note_on,0,0,1,,,,,,,,,0,,,64,100
47980,note_on,0,0,1,,,,,,,,,0,,,58,100
47980,note_on,0,0,1,,,,,,,,,0,,,67,0
47980,note_on,10,0,1,,,,,,,,,0,,,64,0
47990,note_on,0,0,1,,,,,,,,,0,,,57,100
47990,note_on,10,0,1,,,,,,,,,0,,,58,0
47995,control_change,55,0,5,,,,,,,,,0,64,0,,
48000,note_on,0,0,1,,,,,,,,,0,,,65,100
48000,note_on,0,0,1,,,,,,,,,0,,,62,100
48000,note_on,30,0,4,,,,,,,,,0,,,45,0
48000,note_on,0,0,4,,,,,,,,,0,,,53,100
48000,note_on,0,0,4,,,,,,,,,0,,,38,100
48000,note_on,10,0,1,,,,,,,,,0,,,57,0
48015,note_on,0,0,4,,,,,,,,,0,,,38,0
48015,note_on,15,0,4,,,,,,,,,0,,,53,0
48015,note_on,0,0,1,,,,,,,,,0,,,62,0
48015,note_on,15,0,1,,,,,,,,,0,,,65,0
48030,note_on,15,0,1,,,,,,,,,0,,,67,103
48030,note_on,0,0,4,,,,,,,,,0,,,58,103
48030,note_on,0,0,4,,,,,,,,,0,,,55,103
48030,note_on,0,0,1,,,,,,,,,0,,,73,103
48030,note_on,15,0,4,,,,,,,,,0,,,64,103
48040,note_on,0,0,1,,,,,,,,,0,,,74,104
48040,note_on,10,0,1,,,,,,,,,0,,,73,0
48045,note_on,15,0,4,,,,,,,,,0,,,55,0
48045,note_on,0,0,4,,,,,,,,,0,,,58,0
48045,note_on,0,0,4,,,,,,,,,0,,,64,0
48050,note_on,10,0,1,,,,,,,,,0,,,74,0
48050,note_on,0,0,1,,,,,,,,,0,,,76,106
48060,note_on,0,0,4,,,,,,,,,0,,,57,107
48060,note_on,10,0,1,,,,,,,,,0,,,76,0
48060,note_on,0,0,1,,,,,,,,,0,,,77,107
48060,note_on,0,0,1,,,,,,,,,0,,,74,107
48060,note_on,0,0,1,,,,,,,,,0,,,67,0
48060,note_on,0,0,4,,,,,,,,,0,,,62,107
48060,note_on,15,0,4,,,,,,,,,0,,,65,107
48070,note_on,0,0,1,,,,,,,,,0,,,79,108
48070,note_on,10,0,1,,,,,,,,,0,,,77,0
48075,note_on,15,0,4,,,,,,,,,0,,,57,0
48075,note_on,0,0,4,,,,,,,,,0,,,62,0
48075,note_on,0,0,4,,,,,,,,,0,,,65,0
48080,note_on,0,0,1,,,,,,,,,0,,,81,109
48080,note_on,10,0,1,,,,,,,,,0,,,79,0
48090,note_on,10,0,1,,,,,,,,,0,,,81,0
48090,note_on,0,0,1,,,,,,,,,0,,,74,0
48090,note_on,0,0,1,,,,,,,,,0,,,79,111
48090,note_on,0,0,1,,,,,,,,,0,,,85,111
48090,note_on,0,0,3,,,,,,,,,0,,,70,111
48090,note_on,0,0,3,,,,,,,,,0,,,67,111
48090,note_on,890,0,3,,,,,,,,,0,,,76,111
48100,note_on,0,0,1,,,,,,,,,0,,,86,112
48100,note_on,10,0,1,,,,,,,,,0,,,85,0
48105,note_on,15,0,3,,,,,,,,,0,,,67,0
48105,note_on,0,0,3,,,,,,,,,0,,,70,0
48105,note_on,0,0,3,,,,,,,,,0,,,76,0
48110,note_on,10,0,1,,,,,,,,,0,,,86,0
48110,note_on,0,0,1,,,,,,,,,0,,,88,113
48120,note_on,0,0,1,,,,,,,,,0,,,79,0
48120,note_on,10,0,1,,,,,,,,,0,,,88,0
48120,note_on,0,0,1,,,,,,,,,0,,,86,114
48120,note_on,0,0,1,,,,,,,,,0,,,89,114
48120,note_on,0,0,3,,,,,,,,,0,,,74,114
48120,note_on,0,0,3,,,,,,,,,0,,,69,114
48120,note_on,15,0,3,,,,,,,,,0,,,77,114
48130,note_on,10,0,1,,,,,,,,,0,,,89,0
48130,note_on,0,0,1,,,,,,,,,0,,,91,116
48135,note_on,0,0,3,,,,,,,,,0,,,74,0
48135,note_on,0,0,3,,,,,,,,,0,,,77,0
48135,note_on,15,0,3,,,,,,,,,0,,,69,0
48140,note_on,10,0,1,,,,,,,,,0,,,91,0
48140,note_on,0,0,1,,,,,,,,,0,,,93,117
48150,note_on,0,0,1,,,,,,,,,0,,,91,118
48150,note_on,0,0,1,,,,,,,,,0,,,97,118
48150,note_on,0,0,1,,,,,,,,,0,,,86,0
48150,note_on,10,0,1,,,,,,,,,0,,,93,0
48150,note_on,0,0,3,,,,,,,,,0,,,79,118
48150,note_on,0,0,3,,,,,,,,,0,,,82,118
48150,note_on,15,0,3,,,,,,,,,0,,,88,118
48160,note_on,0,0,1,,,,,,,,,0,,,98,119
48160,note_on,10,0,1,,,,,,,,,0,,,97,0
48165,note_on,15,0,3,,,,,,,,,0,,,79,0
48165,note_on,0,0,3,,,,,,,,,0,,,88,0
48165,note_on,0,0,3,,,,,,,,,0,,,82,0
48170,note_on,10,0,1,,,,,,,,,0,,,98,0
48170,note_on,0,0,1,,,,,,,,,0,,,100,120
48180,note_on,0,0,3,,,,,,,,,0,,,81,127
48180,note_on,10,0,1,,,,,,,,,0,,,100,0
48180,note_on,0,0,1,,,,,,,,,0,,,91,0
48180,note_on,15,0,3,,,,,,,,,0,,,89,127
48180,note_on,0,0,3,,,,,,,,,0,,,86,127
48180,note_on,0,0,1,,,,,,,,,0,,,101,127
48180,note_on,0,0,1,,,,,,,,,0,,,98,127
48180,note_on,0,0,1,,,,,,,,,0,,,93,127
48195,note_on,0,0,3,,,,,,,,,0,,,86,0
48195,note_on,0,0,1,,,,,,,,,0,,,101,0
48195,note_on,0,0,1,,,,,,,,,0,,,98,0
48195,note_on,15,0,1,,,,,,,,,0,,,93,0
48195,note_on,0,0,3,,,,,,,,,0,,,89,0
48195,note_on,15,0,3,,,,,,,,,0,,,81,0
48240,note_on,165,0,4,,,,,,,,,0,,,55,100
48240,note_on,0,0,4,,,,,,,,,0,,,50,100
48240,note_on,0,0,4,,,,,,,,,0,,,47,100
48240,control_change,245,0,5,,,,,,,,,0,64,127,,
48250,note_on,55,0,1,,,,,,,,,0,,,59,100
48260,note_on,10,0,1,,,,,,,,,0,,,59,0
48260,note_on,0,0,1,,,,,,,,,0,,,62,100
48270,note_on,30,0,4,,,,,,,,,0,,,47,0
48270,note_on,10,0,1,,,,,,,,,0,,,62,0
48270,note_on,0,0,4,,,,,,,,,0,,,55,0
48270,note_on,0,0,4,,,,,,,,,0,,,50,0
48270,note_on,0,0,4,,,,,,,,,0,,,35,100
48270,note_on,0,0,1,,,,,,,,,0,,,67,100
48280,note_on,10,0,1,,,,,,,,,0,,,67,0
48280,note_on,0,0,1,,,,,,,,,0,,,67,100
48290,note_on,10,0,1,,,,,,,,,0,,,67,0
48290,note_on,0,0,1,,,,,,,,,0,,,71,100
48295,control_change,55,0,5,,,,,,,,,0,64,0,,
48300,note_on,0,0,4,,,,,,,,,0,,,53,100
48300,note_on,30,0,4,,,,,,,,,0,,,35,0
48300,control_change,5,0,5,,,,,,,,,0,64,127,,
48300,note_on,0,0,4,,,,,,,,,0,,,56,100
48300,note_on,10,0,1,,,,,,,,,0,,,71,0
48300,note_on,0,0,1,,,,,,,,,0,,,80,100
48300,note_on,0,0,4,,,,,,,,,0,,,47,100
48300,note_on,0,0,1,,,,,,,,,0,,,77,100
48310,note_on,10,0,1,,,,,,,,,0,,,77,0
48310,note_on,0,0,1,,,,,,,,,0,,,80,0
48310,note_on,0,0,1,,,,,,,,,0,,,80,100
48320,note_on,0,0,1,,,,,,,,,0,,,83,100
48320,note_on,10,0,1,,,,,,,,,0,,,80,0
48330,note_on,30,0,4,,,,,,,,,0,,,47,0
48330,note_on,10,0,1,,,,,,,,,0,,,83,0
48330,note_on,0,0,4,,,,,,,,,0,,,43,100
48330,note_on,0,0,1,,,,,,,,,0,,,92,100
48330,note_on,0,0,4,,,,,,,,,0,,,56,0
48330,note_on,0,0,4,,,,,,,,,0,,,53,0
48330,note_on,0,0,1,,,,,,,,,0,,,89,100
48340,note_on,0,0,1,,,,,,,,,0,,,83,100
48340,note_on,0,0,1,,,,,,,,,0,,,92,0
48340,note_on,10,0,1,,,,,,,,,0,,,89,0
48350,note_on,10,0,1,,,,,,,,,0,,,83,0
48350,note_on,0,0,1,,,,,,,,,0,,,80,100
48355,control_change,55,0,5,,,,,,,,,0,64,0,,
48360,note_on,0,0,4,,,,,,,,,0,,,52,100
48360,note_on,0,0,1,,,,,,,,,0,,,88,100
48360,control_change,5,0,5,,,,,,,,,0,64,127,,
48360,note_on,0,0,4,,,,,,,,,0,,,47,100
48360,note_on,0,0,4,,,,,,,,,0,,,55,100
48360,note_on,10,0,1,,,,,,,,,0,,,80,0
48360,note_on,30,0,4,,,,,,,,,0,,,43,0
48360,note_on,0,0,1,,,,,,,,,0,,,91,100
48370,note_on,0,0,1,,,,,,,,,0,,,91,0
48370,note_on,0,0,1,,,,,,,,,0,,,83,100
48370,note_on,10,0,1,,,,,,,,,0,,,88,0
48380,note_on,10,0,1,,,,,,,,,0,,,83,0
48380,note_on,0,0,1,,,,,,,,,0,,,79,100
48390,note_on,0,0,4,,,,,,,,,0,,,55,0
48390,note_on,30,0,4,,,,,,,,,0,,,47,0
48390,note_on,0,0,1,,,,,,,,,0,,,76,100
48390,note_on,10,0,1,,,,,,,,,0,,,79,0
48390,note_on,0,0,1,,,,,,,,,0,,,79,100
48390,note_on,0,0,4,,,,,,,,,0,,,52,0
48390,note_on,0,0,4,,,,,,,,,0,,,35,100
48400,note_on,0,0,1,,,,,,,,,0,,,79,0
48400,note_on,0,0,1,,,,,,,,,0,,,71,100
48400,note_on,10,0,1,,,,,,,,,0,,,76,0
48410,note_on,10,0,1,,,,,,,,,0,,,71,0
48410,note_on,0,0,1,,,,,,,,,0,,,67,100
48415,control_change,55,0,5,,,,,,,,,0,64,0,,
48420,note_on,0,0,4,,,,,,,,,0,,,53,100
48420,note_on,10,0,1,,,,,,,,,0,,,67,0
48420,control_change,5,0,5,,,,,,,,,0,64,127,,
48420,note_on,0,0,4,,,,,,,,,0,,,47,100
48420,note_on,0,0,1,,,,,,,,,0,,,74,100
48420,note_on,0,0,1,,,,,,,,,0,,,77,100
48420,note_on,30,0,4,,,,,,,,,0,,,35,0
48420,note_on,0,0,4,,,,,,,,,0,,,50,100
48430,note_on,10,0,1,,,,,,,,,0,,,74,0
48430,note_on,0,0,1,,,,,,,,,0,,,68,100
48430,note_on,0,0,1,,,,,,,,,0,,,77,0
48440,note_on,10,0,1,,,,,,,,,0,,,68,0
48440,note_on,0,0,1,,,,,,,,,0,,,67,100
48450,note_on,0,0,4,,,,,,,,,0,,,53,0
48450,note_on,0,0,4,,,,,,,,,0,,,50,0
48450,note_on,30,0,4,,,,,,,,,0,,,47,0
48450,note_on,10,0,1,,,,,,,,,0,,,67,0
48450,note_on,0,0,4,,,,,,,,,0,,,43,100
48450,note_on,0,0,1,,,,,,,,,0,,,65,100
48450,note_on,0,0,1,,,,,,,,,0,,,62,100
48460,note_on,0,0,1,,,,,,,,,0,,,56,100
48460,note_on,10,0,1,,,,,,,,,0,,,62,0
48460,note_on,0,0,1,,,,,,,,,0,,,65,0
48470,note_on,10,0,1,,,,,,,,,0,,,56,0
48470,note_on,0,0,1,,,,,,,,,0,,,55,100
48475,control_change,55,0,5,,,,,,,,,0,64,0,,
48480,note_on,30,0,4,,,,,,,,,0,,,43,0
48480,note_on,10,0,1,,,,,,,,,0,,,55,0
48480,note_on,0,0,4,,,,,,,,,0,,,36,100
48480,note_on,0,0,1,,,,,,,,,0,,,60,100
48480,note_on,0,0,4,,,,,,,,,0,,,52,100
48480,note_on,0,0,1,,,,,,,,,0,,,64,100
48495,note_on,15,0,1,,,,,,,,,0,,,64,0
48495,note_on,0,0,4,,,,,,,,,0,,,36,0
48495,note_on,0,0,1,,,,,,,,,0,,,60,0
48495,note_on,15,0,4,,,,,,,,,0,,,52,0
48510,note_on,15,0,4,,,,,,,,,0,,,62,103
48510,note_on,15,0,1,,,,,,,,,0,,,65,103
48510,note_on,0,0,1,,,,,,,,,0,,,71,103
48510,note_on,0,0,4,,,,,,,,,0,,,53,103
48510,note_on,0,0,4,,,,,,,,,0,,,56,103
48520,note_on,10,0,1,,,,,,,,,0,,,71,0
48520,note_on,0,0,1,,,,,,,,,0,,,72,104
48525,note_on,0,0,4,,,,,,,,,0,,,62,0
48525,note_on,15,0,4,,,,,,,,,0,,,53,0
48525,note_on,0,0,4,,,,,,,,,0,,,56,0
48530,note_on,10,0,1,,,,,,,,,0,,,72,0
48530,note_on,0,0,1,,,,,,,,,0,,,74,106
48540,note_on,10,0,1,,,,,,,,,0,,,74,0
48540,note_on,15,0,4,,,,,,,,,0,,,64,107
48540,note_on,0,0,4,,,,,,,,,0,,,55,107
48540,note_on,0,0,1,,,,,,,,,0,,,65,0
48540,note_on,0,0,1,,,,,,,,,0,,,72,107
48540,note_on,0,0,1,,,,,,,,,0,,,76,107
48540,note_on,0,0,4,,,,,,,,,0,,,60,107
48550,note_on,10,0,1,,,,,,,,,0,,,76,0
48550,note_on,0,0,1,,,,,,,,,0,,,77,108
48555,note_on,15,0,4,,,,,,,,,0,,,55,0
48555,note_on,0,0,4,,,,,,,,,0,,,64,0
48555,note_on,0,0,4,,,,,,,,,0,,,60,0
48560,note_on,10,0,1,,,,,,,,,0,,,77,0
48560,note_on,0,0,1,,,,,,,,,0,,,79,109
48570,note_on,0,0,3,,,,,,,,,0,,,68,111
48570,note_on,0,0,3,,,,,,,,,0,,,65,111
48570,note_on,375,0,3,,,,,,,,,0,,,74,111
48570,note_on,10,0,1,,,,,,,,,0,,,79,0
48570,note_on,0,0,1,,,,,,,,,0,,,77,111
48570,note_on,0,0,1,,,,,,,,,0,,,83,111
48570,note_on,0,0,1,,,,,,,,,0,,,72,0
48580,note_on,10,0,1,,,,,,,,,0,,,83,0
48580,note_on,0,0,1,,,,,,,,,0,,,84,112
48585,note_on,15,0,3,,,,,,,,,0,,,65,0
48585,note_on,0,0,3,,,,,,,,,0,,,68,0
48585,note_on,0,0,3,,,,,,,,,0,,,74,0
48590,note_on,0,0,1,,,,,,,,,0,,,86,113
48590,note_on,10,0,1,,,,,,,,,0,,,84,0
48600,note_on,0,0,1,,,,,,,,,0,,,84,114
48600,note_on,0,0,1,,,,,,,,,0,,,88,114
48600,note_on,0,0,3,,,,,,,,,0,,,67,114
48600,note_on,0,0,1,,,,,,,,,0,,,77,0
48600,note_on,15,0,3,,,,,,,,,0,,,76,114
48600,note_on,0,0,3,,,,,,,,,0,,,72,114
48600,note_on,10,0,1,,,,,,,,,0,,,86,0
48610,note_on,0,0,1,,,,,,,,,0,,,89,116
48610,note_on,10,0,1,,,,,,,,,0,,,88,0
48615,note_on,0,0,3,,,,,,,,,0,,,72,0
48615,note_on,15,0,3,,,,,,,,,0,,,67,0
48615,note_on,0,0,3,,,,,,,,,0,,,76,0
48620,note_on,0,0,1,,,,,,,,,0,,,91,117
48620,note_on,10,0,1,,,,,,,,,0,,,89,0
48630,note_on,15,0,3,,,,,,,,,0,,,86,118
48630,note_on,0,0,1,,,,,,,,,0,,,84,0
48630,note_on,0,0,1,,,,,,,,,0,,,89,118
48630,note_on,0,0,3,,,,,,,,,0,,,77,118
48630,note_on,0,0,1,,,,,,,,,0,,,95,118
48630,note_on,0,0,3,,,,,,,,,0,,,80,118
48630,note_on,10,0,1,,,,,,,,,0,,,91,0
48640,note_on,10,0,1,,,,,,,,,0,,,95,0
48640,note_on,0,0,1,,,,,,,,,0,,,96,119
48645,note_on,0,0,3,,,,,,,,,0,,,86,0
48645,note_on,0,0,3,,,,,,,,,0,,,80,0
48645,note_on,15,0,3,,,,,,,,,0,,,77,0
48650,note_on,10,0,1,,,,,,,,,0,,,96,0
48650,note_on,0,0,1,,,,,,,,,0,,,98,120
48660,note_on,0,0,3,,,,,,,,,0,,,84,127
48660,note_on,10,0,1,,,,,,,,,0,,,98,0
48660,note_on,0,0,1,,,,,,,,,0,,,100,127
48660,note_on,0,0,1,,,,,,,,,0,,,96,127
48660,note_on,0,0,1,,,,,,,,,0,,,91,127
48660,note_on,0,0,1,,,,,,,,,0,,,89,0
48660,note_on,15,0,3,,,,,,,,,0,,,88,127
48660,note_on,0,0,3,,,,,,,,,0,,,79,127
48675,note_on,0,0,3,,,,,,,,,0,,,84,0
48675,note_on,0,0,1,,,,,,,,,0,,,100,0
48675,note_on,0,0,3,,,,,,,,,0,,,88,0
48675,note_on,15,0,1,,,,,,,,,0,,,91,0
48675,note_on,0,0,1,,,,,,,,,0,,,96,0
48675,note_on,15,0,3,,,,,,,,,0,,,79,0
48690,note_on,15,0,1,,,,,,,,,0,,,60,100
48690,note_on,135,0,4,,,,,,,,,0,,,48,100
48700,note_on,0,0,4,,,,,,,,,0,,,50,100
48700,note_on,10,0,1,,,,,,,,,0,,,60,0
48700,note_on,0,0,1,,,,,,,,,0,,,62,100
48700,note_on,10,0,4,,,,,,,,,0,,,48,0
48710,note_on,0,0,4,,,,,,,,,0,,,52,100
48710,note_on,10,0,4,,,,,,,,,0,,,50,0
48710,note_on,10,0,1,,,,,,,,,0,,,62,0
48710,note_on,0,0,1,,,,,,,,,0,,,64,100
48720,note_on,10,0,4,,,,,,,,,0,,,52,0
48720,note_on,0,0,4,,,,,,,,,0,,,41,100
48720,note_on,10,0,1,,,,,,,,,0,,,64,0
48720,note_on,0,0,1,,,,,,,,,0,,,65,127
48720,note_on,0,0,4,,,,,,,,,0,,,53,100
48750,note_on,0,0,4,,,,,,,,,0,,,68,100
48750,note_on,30,0,4,,,,,,,,,0,,,53,0
48750,note_on,0,0,4,,,,,,,,,0,,,62,100
48750,note_on,0,0,4,,,,,,,,,0,,,59,100
48750,note_on,0,0,4,,,,,,,,,0,,,41,0
48750,note_on,30,0,1,,,,,,,,,0,,,65,0
48750,note_on,0,0,1,,,,,,,,,0,,,77,100
48750,note_on,0,0,1,,,,,,,,,0,,,89,100
48780,note_on,0,0,4,,,,,,,,,0,,,68,0
48780,note_on,0,0,4,,,,,,,,,0,,,59,100
48780,note_on,30,0,4,,,,,,,,,0,,,59,0
48780,note_on,0,0,4,,,,,,,,,0,,,68,100
48780,note_on,30,0,1,,,,,,,,,0,,,77,0
48780,note_on,0,0,4,,,,,,,,,0,,,62,100
48780,note_on,0,0,1,,,,,,,,,0,,,71,100
48780,note_on,0,0,1,,,,,,,,,0,,,89,0
48780,note_on,0,0,1,,,,,,,,,0,,,83,100
48780,note_on,0,0,4,,,,,,,,,0,,,62,0
48810,note_on,0,0,1,,,,,,,,,0,,,59,100
48810,note_on,0,0,1,,,,,,,,,0,,,83,0
48810,note_on,0,0,4,,,,,,,,,0,,,35,100
48810,note_on,30,0,1,,,,,,,,,0,,,71,0
48810,note_on,0,0,4,,,,,,,,,0,,,47,100
48810,note_on,0,0,4,,,,,,,,,0,,,59,0
48810,note_on,30,0,4,,,,,,,,,0,,,68,0
48810,note_on,0,0,4,,,,,,,,,0,,,62,0
48820,note_on,0,0,1,,,,,,,,,0,,,60,100
48820,note_on,10,0,1,,,,,,,,,0,,,59,0
48830,note_on,0,0,1,,,,,,,,,0,,,62,100
48830,note_on,10,0,1,,,,,,,,,0,,,60,0
48840,note_on,10,0,1,,,,,,,,,0,,,62,0
48840,note_on,0,0,4,,,,,,,,,0,,,51,100
48840,note_on,30,0,4,,,,,,,,,0,,,47,0
48840,note_on,0,0,1,,,,,,,,,0,,,63,127
48840,note_on,0,0,4,,,,,,,,,0,,,35,0
48840,note_on,0,0,4,,,,,,,,,0,,,39,100
48870,note_on,30,0,4,,,,,,,,,0,,,39,0
48870,note_on,30,0,1,,,,,,,,,0,,,63,0
48870,note_on,0,0,4,,,,,,,,,0,,,66,100
48870,note_on,0,0,4,,,,,,,,,0,,,51,0
48870,note_on,0,0,4,,,,,,,,,0,,,57,100
48870,note_on,0,0,1,,,,,,,,,0,,,75,100
48870,note_on,0,0,1,,,,,,,,,0,,,87,100
48870,note_on,0,0,4,,,,,,,,,0,,,60,100
48900,note_on,0,0,4,,,,,,,,,0,,,66,100
48900,note_on,0,0,4,,,,,,,,,0,,,60,0
48900,note_on,0,0,1,,,,,,,,,0,,,87,0
48900,note_on,0,0,1,,,,,,,,,0,,,81,100
48900,note_on,0,0,1,,,,,,,,,0,,,69,100
48900,note_on,0,0,4,,,,,,,,,0,,,57,100
48900,note_on,30,0,4,,,,,,,,,0,,,57,0
48900,note_on,30,0,1,,,,,,,,,0,,,75,0
48900,note_on,0,0,4,,,,,,,,,0,,,66,0
48900,note_on,0,0,4,,,,,,,,,0,,,60,100
48930,note_on,0,0,4,,,,,,,,,0,,,60,0
48930,note_on,0,0,4,,,,,,,,,0,,,45,100
48930,note_on,30,0,1,,,,,,,,,0,,,69,0
48930,note_on,0,0,4,,,,,,,,,0,,,33,100
48930,note_on,0,0,1,,,,,,,,,0,,,57,100
48930,note_on,0,0,1,,,,,,,,,0,,,81,0
48930,note_on,0,0,4,,,,,,,,,0,,,66,0
48930,note_on,30,0,4,,,,,,,,,0,,,57,0
48940,note_on,0,0,1,,,,,,,,,0,,,59,100
48940,note_on,10,0,1,,,,,,,,,0,,,57,0
48950,note_on,10,0,1,,,,,,,,,0,,,59,0
48950,note_on,0,0,1,,,,,,,,,0,,,60,100
48960,note_on,0,0,4,,,,,,,,,0,,,49,100
48960,note_on,30,0,4,,,,,,,,,0,,,45,0
48960,note_on,10,0,1,,,,,,,,,0,,,60,0
48960,note_on,0,0,1,,,,,,,,,0,,,61,127
48960,note_on,0,0,4,,,,,,,,,0,,,37,100
48960,note_on,0,0,4,,,,,,,,,0,,,33,0
48990,note_on,0,0,4,,,,,,,,,0,,,58,100
48990,note_on,0,0,4,,,,,,,,,0,,,55,100
48990,note_on,0,0,4,,,,,,,,,0,,,37,0
48990,note_on,30,0,1,,,,,,,,,0,,,61,0
48990,note_on,0,0,1,,,,,,,,,0,,,85,100
48990,note_on,0,0,4,,,,,,,,,0,,,64,100
48990,note_on,0,0,1,,,,,,,,,0,,,73,100
48990,note_on,30,0,4,,,,,,,,,0,,,49,0
49020,note_on,0,0,4,,,,,,,,,0,,,64,100
49020,note_on,0,0,4,,,,,,,,,0,,,64,0
49020,note_on,0,0,4,,,,,,,,,0,,,58,100
49020,note_on,30,0,4,,,,,,,,,0,,,55,0
49020,note_on,0,0,4,,,,,,,,,0,,,55,100
49020,note_on,0,0,1,,,,,,,,,0,,,67,100
49020,note_on,0,0,1,,,,,,,,,0,,,79,100
49020,note_on,0,0,1,,,,,,,,,0,,,85,0
49020,note_on,0,0,4,,,,,,,,,0,,,58,0
49020,note_on,30,0,1,,,,,,,,,0,,,73,0
49050,note_on,0,0,1,,,,,,,,,0,,,55,100
49050,note_on,0,0,1,,,,,,,,,0,,,79,0
49050,note_on,0,0,4,,,,,,,,,0,,,58,0
49050,note_on,0,0,4,,,,,,,,,0,,,43,100
49050,note_on,0,0,4,,,,,,,,,0,,,31,100
49050,note_on,30,0,4,,,,,,,,,0,,,55,0
49050,note_on,30,0,1,,,,,,,,,0,,,67,0
49050,note_on,0,0,4,,,,,,,,,0,,,64,0
49060,note_on,10,0,1,,,,,,,,,0,,,55,0
49060,note_on,0,0,1,,,,,,,,,0,,,56,100
49070,note_on,0,0,1,,,,,,,,,0,,,58,100
49070,note_on,10,0,1,,,,,,,,,0,,,56,0
49080,note_on,30,0,4,,,,,,,,,0,,,43,0
49080,note_on,0,0,1,,,,,,,,,0,,,59,127
49080,note_on,0,0,4,,,,,,,,,0,,,35,100
49080,note_on,10,0,1,,,,,,,,,0,,,58,0
49080,note_on,0,0,4,,,,,,,,,0,,,31,0
49080,note_on,0,0,4,,,,,,,,,0,,,47,100
49110,note_on,30,0,1,,,,,,,,,0,,,59,0
49110,note_on,30,0,4,,,,,,,,,0,,,35,0
49110,note_on,0,0,1,,,,,,,,,0,,,71,100
49110,note_on,0,0,4,,,,,,,,,0,,,62,100
49110,note_on,0,0,4,,,,,,,,,0,,,56,100
49110,note_on,0,0,4,,,,,,,,,0,,,53,100
49110,note_on,0,0,4,,,,,,,,,0,,,47,0
49110,note_on,0,0,1,,,,,,,,,0,,,83,100
49140,note_on,0,0,1,,,,,,,,,0,,,83,0
49140,note_on,0,0,4,,,,,,,,,0,,,62,100
49140,note_on,0,0,1,,,,,,,,,0,,,77,100
49140,note_on,0,0,1,,,,,,,,,0,,,65,100
49140,note_on,0,0,4,,,,,,,,,0,,,53,100
49140,note_on,0,0,4,,,,,,,,,0,,,56,0
49140,note_on,0,0,4,,,,,,,,,0,,,56,100
49140,note_on,0,0,4,,,,,,,,,0,,,62,0
49140,note_on,30,0,1,,,,,,,,,0,,,71,0
49140,note_on,30,0,4,,,,,,,,,0,,,53,0
49170,note_on,30,0,4,,,,,,,,,0,,,53,0
49170,note_on,0,0,4,,,,,,,,,0,,,29,100
49170,note_on,0,0,1,,,,,,,,,0,,,77,0
49170,note_on,0,0,4,,,,,,,,,0,,,41,100
49170,note_on,0,0,4,,,,,,,,,0,,,53,100
49170,note_on,0,0,4,,,,,,,,,0,,,56,0
49170,note_on,0,0,4,,,,,,,,,0,,,62,0
49170,note_on,30,0,1,,,,,,,,,0,,,65,0
49180,note_on,10,0,1,,,,,,,,,0,,,56,100
49180,note_on,10,0,4,,,,,,,,,0,,,53,0
49190,note_on,10,0,1,,,,,,,,,0,,,56,0
49190,note_on,0,0,1,,,,,,,,,0,,,58,100
49200,note_on,0,0,1,,,,,,,,,0,,,59,127
49200,note_on,0,0,4,,,,,,,,,0,,,29,0
49200,note_on,0,0,4,,,,,,,,,0,,,35,100
49200,note_on,0,0,4,,,,,,,,,0,,,47,100
49200,note_on,20,0,4,,,,,,,,,0,,,41,0
49200,note_on,10,0,1,,,,,,,,,0,,,58,0
49230,note_on,0,0,1,,,,,,,,,0,,,71,100
49230,note_on,30,0,1,,,,,,,,,0,,,59,0
49230,note_on,0,0,4,,,,,,,,,0,,,35,0
49230,note_on,0,0,4,,,,,,,,,0,,,53,100
49230,note_on,0,0,4,,,,,,,,,0,,,57,100
49230,note_on,0,0,4,,,,,,,,,0,,,62,100
49230,note_on,30,0,4,,,,,,,,,0,,,47,0
49230,note_on,0,0,1,,,,,,,,,0,,,83,100
49260,note_on,0,0,1,,,,,,,,,0,,,83,0
49260,note_on,0,0,1,,,,,,,,,0,,,77,100
49260,note_on,0,0,1,,,,,,,,,0,,,65,100
49260,note_on,0,0,4,,,,,,,,,0,,,57,0
49260,note_on,0,0,4,,,,,,,,,0,,,62,0
49260,note_on,0,0,4,,,,,,,,,0,,,57,100
49260,note_on,0,0,4,,,,,,,,,0,,,53,100
49260,note_on,0,0,4,,,,,,,,,0,,,62,100
49260,note_on,30,0,4,,,,,,,,,0,,,53,0
49260,note_on,30,0,1,,,,,,,,,0,,,71,0
49290,note_on,30,0,4,,,,,,,,,0,,,53,0
49290,note_on,0,0,4,,,,,,,,,0,,,29,100
49290,note_on,0,0,4,,,,,,,,,0,,,41,100
49290,note_on,0,0,4,,,,,,,,,0,,,53,100
49290,note_on,0,0,4,,,,,,,,,0,,,57,0
49290,note_on,0,0,4,,,,,,,,,0,,,62,0
49290,note_on,0,0,1,,,,,,,,,0,,,77,0
49290,note_on,30,0,1,,,,,,,,,0,,,65,0
49300,note_on,10,0,4,,,,,,,,,0,,,53,0
49300,note_on,10,0,1,,,,,,,,,0,,,57,100
49310,note_on,0,0,1,,,,,,,,,0,,,58,100
49310,note_on,10,0,1,,,,,,,,,0,,,57,0
49320,note_on,20,0,4,,,,,,,,,0,,,41,0
49320,note_on,10,0,1,,,,,,,,,0,,,58,0
49320,note_on,0,0,4,,,,,,,,,0,,,35,100
49320,note_on,0,0,4,,,,,,,,,0,,,47,100
49320,note_on,0,0,4,,,,,,,,,0,,,29,0
49320,note_on,0,0,1,,,,,,,,,0,,,59,127
49350,note_on,0,0,4,,,,,,,,,0,,,57,100
49350,note_on,30,0,1,,,,,,,,,0,,,59,0
49350,note_on,0,0,4,,,,,,,,,0,,,53,100
49350,note_on,0,0,4,,,,,,,,,0,,,47,0
49350,note_on,0,0,1,,,,,,,,,0,,,71,100
49350,note_on,0,0,1,,,,,,,,,0,,,83,100
49350,note_on,0,0,4,,,,,,,,,0,,,63,100
49350,note_on,30,0,4,,,,,,,,,0,,,35,0
49380,note_on,30,0,1,,,,,,,,,0,,,71,0
49380,note_on,30,0,4,,,,,,,,,0,,,53,0
49380,note_on,0,0,4,,,,,,,,,0,,,53,100
49380,note_on,0,0,4,,,,,,,,,0,,,57,0
49380,note_on,0,0,4,,,,,,,,,0,,,57,100
49380,note_on,0,0,4,,,,,,,,,0,,,63,0
49380,note_on,0,0,1,,,,,,,,,0,,,83,0
49380,note_on,0,0,4,,,,,,,,,0,,,63,100
49380,note_on,0,0,1,,,,,,,,,0,,,77,100
49380,note_on,0,0,1,,,,,,,,,0,,,65,100
49410,note_on,0,0,4,,,,,,,,,0,,,57,0
49410,note_on,30,0,1,,,,,,,,,0,,,65,0
49410,note_on,0,0,4,,,,,,,,,0,,,45,100
49410,note_on,30,0,4,,,,,,,,,0,,,53,0
49410,note_on,0,0,1,,,,,,,,,0,,,77,0
49410,note_on,0,0,4,,,,,,,,,0,,,63,0
49410,note_on,0,0,1,,,,,,,,,0,,,57,100
49420,note_on,0,0,1,,,,,,,,,0,,,55,100
49420,note_on,10,0,1,,,,,,,,,0,,,57,0
49420,note_on,10,0,4,,,,,,,,,0,,,45,0
49420,note_on,0,0,4,,,,,,,,,0,,,43,100
49430,note_on,10,0,4,,,,,,,,,0,,,43,0
49430,note_on,10,0,1,,,,,,,,,0,,,55,0
49430,note_on,0,0,4,,,,,,,,,0,,,53,100
49430,note_on,0,0,4,,,,,,,,,0,,,41,100
49440,note_on,10,0,4,,,,,,,,,0,,,53,0
49440,note_on,0,0,4,,,,,,,,,0,,,40,100
49440,note_on,0,0,4,,,,,,,,,0,,,41,0
49440,note_on,0,0,4,,,,,,,,,0,,,52,100
49500,note_on,0,0,1,,,,,,,,,0,,,81,102
49500,note_on,0,0,1,,,,,,,,,0,,,76,102
49500,note_on,0,0,1,,,,,,,,,0,,,71,102
49500,note_on,0,0,4,,,,,,,,,0,,,52,102
49500,note_on,0,0,4,,,,,,,,,0,,,64,102
49500,note_on,0,0,4,,,,,,,,,0,,,59,102
49500,note_on,0,0,4,,,,,,,,,0,,,52,0
49500,note_on,0,0,4,,,,,,,,,0,,,57,102
49500,note_on,60,0,4,,,,,,,,,0,,,40,0
49500,note_on,70,0,1,,,,,,,,,0,,,83,102
49560,note_on,60,0,1,,,,,,,,,0,,,71,0
49560,note_on,0,0,1,,,,,,,,,0,,,83,0
49560,note_on,0,0,1,,,,,,,,,0,,,64,105
49560,note_on,60,0,4,,,,,,,,,0,,,52,0
49560,note_on,0,0,1,,,,,,,,,0,,,81,0
49560,note_on,0,0,1,,,,,,,,,0,,,76,0
49560,note_on,0,0,4,,,,,,,,,0,,,40,105
49560,note_on,0,0,4,,,,,,,,,0,,,52,105
49560,note_on,0,0,4,,,,,,,,,0,,,64,0
49560,note_on,0,0,4,,,,,,,,,0,,,57,0
49560,note_on,0,0,4,,,,,,,,,0,,,59,0
49620,note_on,0,0,4,,,,,,,,,0,,,40,0
49620,note_on,60,0,4,,,,,,,,,0,,,52,0
49620,note_on,60,0,1,,,,,,,,,0,,,64,0
49620,note_on,0,0,1,,,,,,,,,0,,,88,108
49620,note_on,0,0,1,,,,,,,,,0,,,83,108
49620,note_on,0,0,4,,,,,,,,,0,,,52,108
49620,note_on,0,0,1,,,,,,,,,0,,,76,108
49620,note_on,0,0,4,,,,,,,,,0,,,56,108
49620,note_on,0,0,4,,,,,,,,,0,,,59,108
49620,note_on,0,0,4,,,,,,,,,0,,,64,108
49620,note_on,0,0,1,,,,,,,,,0,,,80,108
49680,note_on,60,0,1,,,,,,,,,0,,,76,0
49680,note_on,0,0,4,,,,,,,,,0,,,33,120
49680,note_on,0,0,4,,,,,,,,,0,,,36,120
49680,note_on,60,0,4,,,,,,,,,0,,,52,0
49680,note_on,0,0,4,,,,,,,,,0,,,64,0
49680,note_on,0,0,4,,,,,,,,,0,,,56,0
49680,note_on,0,0,4,,,,,,,,,0,,,40,120
49680,note_on,0,0,4,,,,,,,,,0,,,45,120
49680,note_on,0,0,1,,,,,,,,,0,,,83,0
49680,note_on,0,0,1,,,,,,,,,0,,,80,0
49680,note_on,0,0,4,,,,,,,,,0,,,59,0
49680,note_on,0,0,1,,,,,,,,,0,,,88,0
49690,note_on,2370,0,2,,,,,,,,,0,,,52,110
49695,note_on,0,0,4,,,,,,,,,0,,,36,0
49695,note_on,0,0,4,,,,,,,,,0,,,40,0
49695,note_on,0,0,4,,,,,,,,,0,,,33,0
49695,note_on,15,0,4,,,,,,,,,0,,,45,0
49700,note_on,0,0,2,,,,,,,,,0,,,55,110
49700,note_on,10,0,2,,,,,,,,,0,,,52,0
49710,note_on,10,0,2,,,,,,,,,0,,,55,0
49710,note_on,0,0,2,,,,,,,,,0,,,64,110
49710,note_on,0,0,2,,,,,,,,,0,,,60,110
49720,note_on,10,0,2,,,,,,,,,0,,,60,0
49720,note_on,0,0,2,,,,,,,,,0,,,64,0
49720,note_on,40,0,1,,,,,,,,,0,,,64,110
49725,note_on,30,0,4,,,,,,,,,0,,,57,120
49730,note_on,10,0,1,,,,,,,,,0,,,64,0
49730,note_on,0,0,1,,,,,,,,,0,,,69,110
49740,note_on,10,0,1,,,,,,,,,0,,,69,0
49740,note_on,0,0,4,,,,,,,,,0,,,57,120
49740,note_on,0,0,1,,,,,,,,,0,,,72,110
49740,note_on,0,0,1,,,,,,,,,0,,,76,110
49740,note_on,15,0,4,,,,,,,,,0,,,57,0
49750,note_on,0,0,1,,,,,,,,,0,,,76,110
49750,note_on,10,0,1,,,,,,,,,0,,,76,0
49750,note_on,0,0,1,,,,,,,,,0,,,72,0
49755,note_on,0,0,4,,,,,,,,,0,,,60,120
49755,note_on,15,0,4,,,,,,,,,0,,,57,0
49760,note_on,10,0,1,,,,,,,,,0,,,76,0
49760,note_on,0,0,1,,,,,,,,,0,,,81,110
49770,note_on,15,0,4,,,,,,,,,0,,,60,0
49770,note_on,0,0,1,,,,,,,,,0,,,84,110
49770,note_on,0,0,1,,,,,,,,,0,,,88,110
49770,note_on,10,0,1,,,,,,,,,0,,,81,0
49770,note_on,0,0,4,,,,,,,,,0,,,59,120
49780,note_on,0,0,1,,,,,,,,,0,,,88,0
49780,note_on,0,0,1,,,,,,,,,0,,,88,110
49780,note_on,10,0,1,,,,,,,,,0,,,84,0
49785,note_on,0,0,4,,,,,,,,,0,,,57,120
49785,note_on,15,0,4,,,,,,,,,0,,,59,0
49790,note_on,10,0,1,,,,,,,,,0,,,88,0
49790,note_on,0,0,1,,,,,,,,,0,,,93,110
49800,note_on,15,0,4,,,,,,,,,0,,,57,0
49800,note_on,0,0,4,,,,,,,,,0,,,64,120
49800,note_on,10,0,1,,,,,,,,,0,,,93,0
49800,note_on,0,0,1,,,,,,,,,0,,,100,110
49800,note_on,0,0,1,,,,,,,,,0,,,96,110
49810,note_on,10,0,1,,,,,,,,,0,,,96,0
49810,note_on,0,0,1,,,,,,,,,0,,,93,110
49810,note_on,0,0,1,,,,,,,,,0,,,100,0
49815,note_on,15,0,4,,,,,,,,,0,,,64,0
49820,note_on,0,0,1,,,,,,,,,0,,,88,110
49820,note_on,10,0,1,,,,,,,,,0,,,93,0
49830,note_on,0,0,1,,,,,,,,,0,,,84,110
49830,note_on,0,0,1,,,,,,,,,0,,,88,110
49830,note_on,10,0,1,,,,,,,,,0,,,88,0
49840,note_on,0,0,1,,,,,,,,,0,,,81,110
49840,note_on,0,0,1,,,,,,,,,0,,,88,0
49840,note_on,10,0,1,,,,,,,,,0,,,84,0
49845,note_on,30,0,4,,,,,,,,,0,,,40,120
49850,note_on,10,0,1,,,,,,,,,0,,,81,0
49850,note_on,0,0,1,,,,,,,,,0,,,76,110
49860,note_on,15,0,4,,,,,,,,,0,,,40,0
49860,note_on,0,0,1,,,,,,,,,0,,,76,110
49860,note_on,10,0,1,,,,,,,,,0,,,76,0
49860,note_on,0,0,1,,,,,,,,,0,,,72,110
49860,note_on,0,0,4,,,,,,,,,0,,,40,120
49870,note_on,10,0,1,,,,,,,,,0,,,72,0
49870,note_on,0,0,1,,,,,,,,,0,,,69,110
49870,note_on,0,0,1,,,,,,,,,0,,,76,0
49875,note_on,15,0,4,,,,,,,,,0,,,40,0
49875,note_on,0,0,4,,,,,,,,,0,,,43,120
49880,note_on,10,0,1,,,,,,,,,0,,,69,0
49880,note_on,0,0,1,,,,,,,,,0,,,64,110
49890,note_on,10,0,1,,,,,,,,,0,,,64,0
49890,note_on,0,0,2,,,,,,,,,0,,,60,110
49890,note_on,0,0,4,,,,,,,,,0,,,41,120
49890,note_on,15,0,4,,,,,,,,,0,,,43,0
49890,note_on,170,0,2,,,,,,,,,0,,,64,110
49900,note_on,10,0,2,,,,,,,,,0,,,60,0
49900,note_on,0,0,2,,,,,,,,,0,,,64,0
49900,note_on,0,0,2,,,,,,,,,0,,,57,110
49905,note_on,0,0,4,,,,,,,,,0,,,40,120
49905,note_on,15,0,4,,,,,,,,,0,,,41,0
49910,note_on,0,0,2,,,,,,,,,0,,,52,110
49910,note_on,10,0,2,,,,,,,,,0,,,57,0
49920,note_on,0,0,4,,,,,,,,,0,,,37,120
49920,note_on,0,0,4,,,,,,,,,0,,,45,120
49920,note_on,10,0,2,,,,,,,,,0,,,52,0
49920,note_on,15,0,4,,,,,,,,,0,,,40,0
49920,note_on,0,0,4,,,,,,,,,0,,,40,120
49920,note_on,0,0,4,,,,,,,,,0,,,33,120
49930,note_on,10,0,2,,,,,,,,,0,,,52,110
49935,note_on,0,0,4,,,,,,,,,0,,,33,0
49935,note_on,0,0,4,,,,,,,,,0,,,40,0
49935,note_on,15,0,4,,,,,,,,,0,,,45,0
49935,note_on,0,0,4,,,,,,,,,0,,,37,0
49940,note_on,0,0,2,,,,,,,,,0,,,55,110
49940,note_on,10,0,2,,,,,,,,,0,,,52,0
49950,note_on,10,0,2,,,,,,,,,0,,,55,0
49950,note_on,0,0,2,,,,,,,,,0,,,64,110
49950,note_on,0,0,2,,,,,,,,,0,,,61,110
49960,note_on,70,0,1,,,,,,,,,0,,,64,110
49960,note_on,0,0,2,,,,,,,,,0,,,64,0
49960,note_on,10,0,2,,,,,,,,,0,,,61,0
49965,note_on,30,0,4,,,,,,,,,0,,,57,120
49970,note_on,0,0,1,,,,,,,,,0,,,69,110
49970,note_on,10,0,1,,,,,,,,,0,,,64,0
49980,note_on,0,0,1,,,,,,,,,0,,,76,110
49980,note_on,0,0,4,,,,,,,,,0,,,57,120
49980,note_on,15,0,4,,,,,,,,,0,,,57,0
49980,note_on,10,0,1,,,,,,,,,0,,,69,0
49980,note_on,0,0,1,,,,,,,,,0,,,73,110
49990,note_on,0,0,1,,,,,,,,,0,,,73,0
49990,note_on,0,0,1,,,,,,,,,0,,,76,110
49990,note_on,10,0,1,,,,,,,,,0,,,76,0
49995,note_on,15,0,4,,,,,,,,,0,,,57,0
49995,note_on,0,0,4,,,,,,,,,0,,,60,120
50000,note_on,10,0,1,,,,,,,,,0,,,76,0
50000,note_on,0,0,1,,,,,,,,,0,,,81,110
50010,note_on,0,0,1,,,,,,,,,0,,,85,110
50010,note_on,0,0,1,,,,,,,,,0,,,88,110
50010,note_on,10,0,1,,,,,,,,,0,,,81,0
50010,note_on,0,0,4,,,,,,,,,0,,,58,120
50010,note_on,15,0,4,,,,,,,,,0,,,60,0
50020,note_on,0,0,1,,,,,,,,,0,,,88,0
50020,note_on,0,0,1,,,,,,,,,0,,,88,110
50020,note_on,10,0,1,,,,,,,,,0,,,85,0
50025,note_on,15,0,4,,,,,,,,,0,,,58,0
50025,note_on,0,0,4,,,,,,,,,0,,,57,120
50030,note_on,10,0,1,,,,,,,,,0,,,88,0
50030,note_on,0,0,1,,,,,,,,,0,,,93,110
50040,note_on,0,0,4,,,,,,,,,0,,,67,120
50040,note_on,0,0,1,,,,,,,,,0,,,100,110
50040,note_on,0,0,1,,,,,,,,,0,,,97,110
50040,note_on,10,0,1,,,,,,,,,0,,,93,0
50040,note_on,15,0,4,,,,,,,,,0,,,57,0
50050,note_on,0,0,1,,,,,,,,,0,,,100,0
50050,note_on,0,0,1,,,,,,,,,0,,,93,110
50050,note_on,10,0,1,,,,,,,,,0,,,97,0
50055,note_on,15,0,4,,,,,,,,,0,,,67,0
50060,note_on,0,0,1,,,,,,,,,0,,,88,110
50060,note_on,10,0,1,,,,,,,,,0,,,93,0
50070,note_on,0,0,1,,,,,,,,,0,,,85,110
50070,note_on,10,0,1,,,,,,,,,0,,,88,0
50070,note_on,0,0,1,,,,,,,,,0,,,88,110
50080,note_on,0,0,1,,,,,,,,,0,,,88,0
50080,note_on,0,0,1,,,,,,,,,0,,,81,110
50080,note_on,10,0,1,,,,,,,,,0,,,85,0
50085,note_on,30,0,4,,,,,,,,,0,,,45,120
50090,note_on,0,0,1,,,,,,,,,0,,,76,110
50090,note_on,10,0,1,,,,,,,,,0,,,81,0
50100,note_on,0,0,1,,,,,,,,,0,,,73,110
50100,note_on,0,0,1,,,,,,,,,0,,,76,110
50100,note_on,15,0,4,,,,,,,,,0,,,45,0
50100,note_on,0,0,4,,,,,,,,,0,,,45,120
50100,note_on,10,0,1,,,,,,,,,0,,,76,0
50110,note_on,0,0,1,,,,,,,,,0,,,69,110
50110,note_on,0,0,1,,,,,,,,,0,,,76,0
50110,note_on,10,0,1,,,,,,,,,0,,,73,0
50115,note_on,15,0,4,,,,,,,,,0,,,45,0
50115,note_on,0,0,4,,,,,,,,,0,,,48,120
50120,note_on,0,0,1,,,,,,,,,0,,,64,110
50120,note_on,10,0,1,,,,,,,,,0,,,69,0
50130,note_on,0,0,4,,,,,,,,,0,,,46,120
50130,note_on,0,0,2,,,,,,,,,0,,,61,110
50130,note_on,10,0,1,,,,,,,,,0,,,64,0
50130,note_on,170,0,2,,,,,,,,,0,,,64,110
50130,note_on,15,0,4,,,,,,,,,0,,,48,0
50140,note_on,10,0,2,,,,,,,,,0,,,61,0
50140,note_on,0,0,2,,,,,,,,,0,,,64,0
50140,note_on,0,0,2,,,,,,,,,0,,,57,110
50145,note_on,0,0,4,,,,,,,,,0,,,45,120
50145,note_on,15,0,4,,,,,,,,,0,,,46,0
50150,note_on,10,0,2,,,,,,,,,0,,,57,0
50150,note_on,0,0,2,,,,,,,,,0,,,52,110
50160,note_on,0,0,4,,,,,,,,,0,,,41,120
50160,note_on,0,0,4,,,,,,,,,0,,,50,120
50160,note_on,0,0,4,,,,,,,,,0,,,38,120
50160,note_on,15,0,4,,,,,,,,,0,,,45,0
50160,note_on,10,0,2,,,,,,,,,0,,,52,0
50160,note_on,0,0,4,,,,,,,,,0,,,45,120
50170,note_on,10,0,2,,,,,,,,,0,,,53,110
50175,note_on,0,0,4,,,,,,,,,0,,,38,0
50175,note_on,0,0,4,,,,,,,,,0,,,41,0
50175,note_on,15,0,4,,,,,,,,,0,,,50,0
50175,note_on,0,0,4,,,,,,,,,0,,,45,0
50180,note_on,0,0,2,,,,,,,,,0,,,57,110
50180,note_on,10,0,2,,,,,,,,,0,,,53,0
50190,note_on,0,0,2,,,,,,,,,0,,,62,110
50190,note_on,10,0,2,,,,,,,,,0,,,57,0
50190,note_on,0,0,2,,,,,,,,,0,,,65,110
50200,note_on,0,0,2,,,,,,,,,0,,,65,0
50200,note_on,70,0,1,,,,,,,,,0,,,65,110
50200,note_on,10,0,2,,,,,,,,,0,,,62,0
50205,note_on,30,0,4,,,,,,,,,0,,,57,120
50210,note_on,10,0,1,,,,,,,,,0,,,65,0
50210,note_on,0,0,1,,,,,,,,,0,,,69,110
50220,note_on,0,0,4,,,,,,,,,0,,,57,120
50220,note_on,10,0,1,,,,,,,,,0,,,69,0
50220,note_on,0,0,1,,,,,,,,,0,,,77,110
50220,note_on,0,0,1,,,,,,,,,0,,,74,110
50220,note_on,15,0,4,,,,,,,,,0,,,57,0
50230,note_on,0,0,1,,,,,,,,,0,,,77,110
50230,note_on,0,0,1,,,,,,,,,0,,,74,0
50230,note_on,10,0,1,,,,,,,,,0,,,77,0
50235,note_on,15,0,4,,,,,,,,,0,,,57,0
50235,note_on,0,0,4,,,,,,,,,0,,,60,120
50240,note_on,0,0,1,,,,,,,,,0,,,81,110
50240,note_on,10,0,1,,,,,,,,,0,,,77,0
50250,note_on,0,0,1,,,,,,,,,0,,,86,110
50250,note_on,0,0,4,,,,,,,,,0,,,58,120
50250,note_on,15,0,4,,,,,,,,,0,,,60,0
50250,note_on,10,0,1,,,,,,,,,0,,,81,0
50250,note_on,0,0,1,,,,,,,,,0,,,89,110
50260,note_on,10,0,1,,,,,,,,,0,,,86,0
50260,note_on,0,0,1,,,,,,,,,0,,,89,0
50260,note_on,0,0,1,,,,,,,,,0,,,89,110
50265,note_on,0,0,4,,,,,,,,,0,,,57,120
50265,note_on,15,0,4,,,,,,,,,0,,,58,0
50270,note_on,0,0,1,,,,,,,,,0,,,93,110
50270,note_on,10,0,1,,,,,,,,,0,,,89,0
50280,note_on,0,0,4,,,,,,,,,0,,,65,120
50280,note_on,0,0,1,,,,,,,,,0,,,98,110
50280,note_on,15,0,4,,,,,,,,,0,,,57,0
50280,note_on,0,0,1,,,,,,,,,0,,,101,110
50280,note_on,10,0,1,,,,,,,,,0,,,93,0
50290,note_on,0,0,1,,,,,,,,,0,,,101,0
50290,note_on,0,0,1,,,,,,,,,0,,,93,110
50290,note_on,10,0,1,,,,,,,,,0,,,98,0
50295,note_on,15,0,4,,,,,,,,,0,,,65,0
50300,note_on,10,0,1,,,,,,,,,0,,,93,0
50300,note_on,0,0,1,,,,,,,,,0,,,89,110
50310,note_on,10,0,1,,,,,,,,,0,,,89,0
50310,note_on,0,0,1,,,,,,,,,0,,,89,110
50310,note_on,0,0,1,,,,,,,,,0,,,86,110
50320,note_on,10,0,1,,,,,,,,,0,,,86,0
50320,note_on,0,0,1,,,,,,,,,0,,,89,0
50320,note_on,0,0,1,,,,,,,,,0,,,81,110
50325,note_on,30,0,4,,,,,,,,,0,,,38,120
50330,note_on,0,0,1,,,,,,,,,0,,,77,110
50330,note_on,10,0,1,,,,,,,,,0,,,81,0
50340,note_on,15,0,4,,,,,,,,,0,,,38,0
50340,note_on,10,0,1,,,,,,,,,0,,,77,0
50340,note_on,0,0,1,,,,,,,,,0,,,77,110
50340,note_on,0,0,1,,,,,,,,,0,,,74,110
50340,note_on,0,0,4,,,,,,,,,0,,,38,120
50350,note_on,10,0,1,,,,,,,,,0,,,74,0
50350,note_on,0,0,1,,,,,,,,,0,,,69,110
50350,note_on,0,0,1,,,,,,,,,0,,,77,0
50355,note_on,0,0,4,,,,,,,,,0,,,37,120
50355,note_on,15,0,4,,,,,,,,,0,,,38,0
50360,note_on,10,0,1,,,,,,,,,0,,,69,0
50360,note_on,0,0,1,,,,,,,,,0,,,65,110
50370,note_on,0,0,4,,,,,,,,,0,,,38,120
50370,note_on,170,0,2,,,,,,,,,0,,,65,110
50370,note_on,10,0,1,,,,,,,,,0,,,65,0
50370,note_on,15,0,4,,,,,,,,,0,,,37,0
50370,note_on,0,0,2,,,,,,,,,0,,,62,110
50380,note_on,10,0,2,,,,,,,,,0,,,62,0
50380,note_on,0,0,2,,,,,,,,,0,,,65,0
50380,note_on,0,0,2,,,,,,,,,0,,,57,110
50385,note_on,15,0,4,,,,,,,,,0,,,38,0
50385,note_on,0,0,4,,,,,,,,,0,,,40,120
50390,note_on,0,0,2,,,,,,,,,0,,,53,110
50390,note_on,10,0,2,,,,,,,,,0,,,57,0
50400,note_on,10,0,2,,,,,,,,,0,,,53,0
50400,note_on,15,0,4,,,,,,,,,0,,,40,0
50400,note_on,0,0,4,,,,,,,,,0,,,53,110
50400,note_on,0,0,4,,,,,,,,,0,,,41,110
50430,note_on,0,0,1,,,,,,,,,0,,,74,110
50430,note_on,0,0,4,,,,,,,,,0,,,56,110
50430,note_on,60,0,1,,,,,,,,,0,,,83,110
50430,note_on,30,0,4,,,,,,,,,0,,,65,110
50430,note_on,0,0,4,,,,,,,,,0,,,62,110
50430,note_on,0,0,1,,,,,,,,,0,,,71,110
50460,note_on,0,0,4,,,,,,,,,0,,,62,0
50460,note_on,30,0,4,,,,,,,,,0,,,56,0
50460,note_on,0,0,4,,,,,,,,,0,,,65,0
50460,note_on,0,0,1,,,,,,,,,0,,,83,0
50460,note_on,0,0,1,,,,,,,,,0,,,74,0
50460,note_on,30,0,1,,,,,,,,,0,,,71,0
50460,note_on,0,0,4,,,,,,,,,0,,,56,110
50460,note_on,0,0,4,,,,,,,,,0,,,53,0
50460,note_on,0,0,4,,,,,,,,,0,,,44,110
50460,note_on,0,0,4,,,,,,,,,0,,,41,0
50490,note_on,0,0,4,,,,,,,,,0,,,59,110
50490,note_on,0,0,4,,,,,,,,,0,,,65,110
50490,note_on,30,0,1,,,,,,,,,0,,,86,110
50490,note_on,0,0,1,,,,,,,,,0,,,74,110
50490,note_on,0,0,1,,,,,,,,,0,,,77,110
50490,note_on,30,0,4,,,,,,,,,0,,,68,110
50520,note_on,0,0,1,,,,,,,,,0,,,77,0
50520,note_on,30,0,1,,,,,,,,,0,,,74,0
50520,note_on,0,0,1,,,,,,,,,0,,,86,0
50520,note_on,0,0,4,,,,,,,,,0,,,44,0
50520,note_on,0,0,4,,,,,,,,,0,,,47,110
50520,note_on,0,0,4,,,,,,,,,0,,,56,0
50520,note_on,0,0,4,,,,,,,,,0,,,59,110
50520,note_on,0,0,4,,,,,,,,,0,,,65,0
50520,note_on,30,0,4,,,,,,,,,0,,,59,0
50520,note_on,0,0,4,,,,,,,,,0,,,68,0
50550,note_on,30,0,1,,,,,,,,,0,,,89,110
50550,note_on,0,0,1,,,,,,,,,0,,,80,110
50550,note_on,1875,0,3,,,,,,,,,0,,,71,110
50550,note_on,0,0,3,,,,,,,,,0,,,68,110
50550,note_on,0,0,3,,,,,,,,,0,,,62,110
50550,note_on,0,0,1,,,,,,,,,0,,,77,110
50580,note_on,30,0,3,,,,,,,,,0,,,62,0
50580,note_on,30,0,1,,,,,,,,,0,,,77,0
50580,note_on,60,0,4,,,,,,,,,0,,,59,0
50580,note_on,0,0,4,,,,,,,,,0,,,40,110
50580,note_on,0,0,3,,,,,,,,,0,,,71,0
50580,note_on,0,0,4,,,,,,,,,0,,,47,0
50580,note_on,0,0,4,,,,,,,,,0,,,52,110
50580,note_on,0,0,1,,,,,,,,,0,,,89,0
50580,note_on,0,0,1,,,,,,,,,0,,,80,0
50580,note_on,0,0,3,,,,,,,,,0,,,68,0
50610,note_on,30,0,4,,,,,,,,,0,,,64,110
50610,note_on,0,0,4,,,,,,,,,0,,,56,110
50610,note_on,0,0,1,,,,,,,,,0,,,80,110
50610,note_on,0,0,4,,,,,,,,,0,,,59,110
50610,note_on,0,0,1,,,,,,,,,0,,,76,110
50610,note_on,30,0,1,,,,,,,,,0,,,88,110
50640,note_on,0,0,4,,,,,,,,,0,,,36,120
50640,note_on,0,0,4,,,,,,,,,0,,,33,120
50640,note_on,0,0,4,,,,,,,,,0,,,40,120
50640,note_on,30,0,1,,,,,,,,,0,,,76,0
50640,note_on,0,0,4,,,,,,,,,0,,,45,120
50640,note_on,0,0,4,,,,,,,,,0,,,52,0
50640,note_on,30,0,4,,,,,,,,,0,,,56,0
50640,note_on,0,0,4,,,,,,,,,0,,,59,0
50640,note_on,0,0,4,,,,,,,,,0,,,64,0
50640,note_on,0,0,1,,,,,,,,,0,,,88,0
50640,note_on,0,0,1,,,,,,,,,0,,,80,0
50640,note_on,0,0,4,,,,,,,,,0,,,40,0
50650,note_on,250,0,2,,,,,,,,,0,,,52,110
50655,note_on,0,0,4,,,,,,,,,0,,,33,0
50655,note_on,0,0,4,,,,,,,,,0,,,40,0
50655,note_on,15,0,4,,,,,,,,,0,,,45,0
50655,note_on,0,0,4,,,,,,,,,0,,,36,0
50660,note_on,10,0,2,,,,,,,,,0,,,52,0
50660,note_on,0,0,2,,,,,,,,,0,,,55,110
50670,note_on,0,0,2,,,,,,,,,0,,,60,110
50670,note_on,0,0,2,,,,,,,,,0,,,64,110
50670,note_on,10,0,2,,,,,,,,,0,,,55,0
50680,note_on,10,0,2,,,,,,,,,0,,,60,0
50680,note_on,40,0,1,,,,,,,,,0,,,64,110
50680,note_on,0,0,2,,,,,,,,,0,,,64,0
50685,note_on,30,0,4,,,,,,,,,0,,,57,120
50690,note_on,0,0,1,,,,,,,,,0,,,69,110
50690,note_on,10,0,1,,,,,,,,,0,,,64,0
50700,note_on,0,0,4,,,,,,,,,0,,,57,120
50700,note_on,10,0,1,,,,,,,,,0,,,69,0
50700,note_on,15,0,4,,,,,,,,,0,,,57,0
50700,note_on,0,0,1,,,,,,,,,0,,,76,110
50700,note_on,0,0,1,,,,,,,,,0,,,72,110
50710,note_on,0,0,1,,,,,,,,,0,,,76,110
50710,note_on,0,0,1,,,,,,,,,0,,,72,0
50710,note_on,10,0,1,,,,,,,,,0,,,76,0
50715,note_on,15,0,4,,,,,,,,,0,,,57,0
50715,note_on,0,0,4,,,,,,,,,0,,,60,120
50720,note_on,10,0,1,,,,,,,,,0,,,76,0
50720,note_on,0,0,1,,,,,,,,,0,,,81,110
50730,note_on,0,0,1,,,,,,,,,0,,,84,110
50730,note_on,10,0,1,,,,,,,,,0,,,81,0
50730,note_on,0,0,1,,,,,,,,,0,,,88,110
50730,note_on,15,0,4,,,,,,,,,0,,,60,0
50730,note_on,0,0,4,,,,,,,,,0,,,59,120
50740,note_on,10,0,1,,,,,,,,,0,,,84,0
50740,note_on,0,0,1,,,,,,,,,0,,,88,0
50740,note_on,0,0,1,,,,,,,,,0,,,88,110
50745,note_on,15,0,4,,,,,,,,,0,,,59,0
50745,note_on,0,0,4,,,,,,,,,0,,,57,120
50750,note_on,0,0,1,,,,,,,,,0,,,93,110
50750,note_on,10,0,1,,,,,,,,,0,,,88,0
50760,note_on,0,0,1,,,,,,,,,0,,,96,110
50760,note_on,10,0,1,,,,,,,,,0,,,93,0
50760,note_on,0,0,4,,,,,,,,,0,,,64,120
50760,note_on,15,0,4,,,,,,,,,0,,,57,0
50760,note_on,0,0,1,,,,,,,,,0,,,100,110
50770,note_on,0,0,1,,,,,,,,,0,,,93,110
50770,note_on,0,0,1,,,,,,,,,0,,,100,0
50770,note_on,10,0,1,,,,,,,,,0,,,96,0
50775,note_on,15,0,4,,,,,,,,,0,,,64,0
50780,note_on,0,0,1,,,,,,,,,0,,,88,110
50780,note_on,10,0,1,,,,,,,,,0,,,93,0
50790,note_on,10,0,1,,,,,,,,,0,,,88,0
50790,note_on,0,0,1,,,,,,,,,0,,,84,110
50790,note_on,0,0,1,,,,,,,,,0,,,88,110
50800,note_on,10,0,1,,,,,,,,,0,,,84,0
50800,note_on,0,0,1,,,,,,,,,0,,,81,110
50800,note_on,0,0,1,,,,,,,,,0,,,88,0
50805,note_on,30,0,4,,,,,,,,,0,,,40,120
50810,note_on,10,0,1,,,,,,,,,0,,,81,0
50810,note_on,0,0,1,,,,,,,,,0,,,76,110
50820,note_on,0,0,1,,,,,,,,,0,,,72,110
50820,note_on,10,0,1,,,,,,,,,0,,,76,0
50820,note_on,0,0,4,,,,,,,,,0,,,40,120
50820,note_on,15,0,4,,,,,,,,,0,,,40,0
50820,note_on,0,0,1,,,,,,,,,0,,,76,110
50830,note_on,0,0,1,,,,,,,,,0,,,69,110
50830,note_on,10,0,1,,,,,,,,,0,,,72,0
50830,note_on,0,0,1,,,,,,,,,0,,,76,0
50835,note_on,0,0,4,,,,,,,,,0,,,43,120
50835,note_on,15,0,4,,,,,,,,,0,,,40,0
50840,note_on,0,0,1,,,,,,,,,0,,,64,110
50840,note_on,10,0,1,,,,,,,,,0,,,69,0
50850,note_on,10,0,1,,,,,,,,,0,,,64,0
50850,note_on,0,0,4,,,,,,,,,0,,,41,120
50850,note_on,170,0,2,,,,,,,,,0,,,64,110
50850,note_on,0,0,2,,,,,,,,,0,,,60,110
50850,note_on,15,0,4,,,,,,,,,0,,,43,0
50860,note_on,0,0,2,,,,,,,,,0,,,64,0
50860,note_on,0,0,2,,,,,,,,,0,,,57,110
50860,note_on,10,0,2,,,,,,,,,0,,,60,0
50865,note_on,0,0,4,,,,,,,,,0,,,40,120
50865,note_on,15,0,4,,,,,,,,,0,,,41,0
50870,note_on,0,0,2,,,,,,,,,0,,,52,110
50870,note_on,10,0,2,,,,,,,,,0,,,57,0
50880,note_on,15,0,4,,,,,,,,,0,,,40,0
50880,note_on,0,0,4,,,,,,,,,0,,,45,120
50880,note_on,0,0,4,,,,,,,,,0,,,40,120
50880,note_on,0,0,4,,,,,,,,,0,,,37,120
50880,note_on,0,0,4,,,,,,,,,0,,,33,120
50880,note_on,10,0,2,,,,,,,,,0,,,52,0
50890,note_on,10,0,2,,,,,,,,,0,,,52,110
50895,note_on,15,0,4,,,,,,,,,0,,,45,0
50895,note_on,0,0,4,,,,,,,,,0,,,33,0
50895,note_on,0,0,4,,,,,,,,,0,,,37,0
50895,note_on,0,0,4,,,,,,,,,0,,,40,0
50900,note_on,10,0,2,,,,,,,,,0,,,52,0
50900,note_on,0,0,2,,,,,,,,,0,,,55,110
50910,note_on,10,0,2,,,,,,,,,0,,,55,0
50910,note_on,0,0,2,,,,,,,,,0,,,61,110
50910,note_on,0,0,2,,,,,,,,,0,,,64,110
50920,note_on,10,0,2,,,,,,,,,0,,,61,0
50920,note_on,0,0,2,,,,,,,,,0,,,64,0
50920,note_on,70,0,1,,,,,,,,,0,,,64,110
50925,note_on,30,0,4,,,,,,,,,0,,,57,120
50930,note_on,0,0,1,,,,,,,,,0,,,69,110
50930,note_on,10,0,1,,,,,,,,,0,,,64,0
50940,note_on,10,0,1,,,,,,,,,0,,,69,0
50940,note_on,0,0,4,,,,,,,,,0,,,57,120
50940,note_on,15,0,4,,,,,,,,,0,,,57,0
50940,note_on,0,0,1,,,,,,,,,0,,,73,110
50940,note_on,0,0,1,,,,,,,,,0,,,76,110
50950,note_on,10,0,1,,,,,,,,,0,,,76,0
50950,note_on,0,0,1,,,,,,,,,0,,,76,110
50950,note_on,0,0,1,,,,,,,,,0,,,73,0
50955,note_on,15,0,4,,,,,,,,,0,,,57,0
50955,note_on,0,0,4,,,,,,,,,0,,,60,120
50960,note_on,0,0,1,,,,,,,,,0,,,81,110
50960,note_on,10,0,1,,,,,,,,,0,,,76,0
50970,note_on,0,0,1,,,,,,,,,0,,,88,110
50970,note_on,15,0,4,,,,,,,,,0,,,60,0
50970,note_on,0,0,1,,,,,,,,,0,,,85,110
50970,note_on,0,0,4,,,,,,,,,0,,,58,120
50970,note_on,10,0,1,,,,,,,,,0,,,81,0
50980,note_on,0,0,1,,,,,,,,,0,,,88,110
50980,note_on,10,0,1,,,,,,,,,0,,,85,0
50980,note_on,0,0,1,,,,,,,,,0,,,88,0
50985,note_on,15,0,4,,,,,,,,,0,,,58,0
50985,note_on,0,0,4,,,,,,,,,0,,,57,120
50990,note_on,10,0,1,,,,,,,,,0,,,88,0
50990,note_on,0,0,1,,,,,,,,,0,,,93,110
51000,note_on,10,0,1,,,,,,,,,0,,,93,0
51000,note_on,0,0,1,,,,,,,,,0,,,97,110
51000,note_on,15,0,4,,,,,,,,,0,,,57,0
51000,note_on,0,0,1,,,,,,,,,0,,,100,110
51000,note_on,0,0,4,,,,,,,,,0,,,67,120
51010,note_on,0,0,1,,,,,,,,,0,,,93,110
51010,note_on,10,0,1,,,,,,,,,0,,,97,0
51010,note_on,0,0,1,,,,,,,,,0,,,100,0
51015,note_on,15,0,4,,,,,,,,,0,,,67,0
51020,note_on,0,0,1,,,,,,,,,0,,,88,110
51020,note_on,10,0,1,,,,,,,,,0,,,93,0
51030,note_on,10,0,1,,,,,,,,,0,,,88,0
51030,note_on,0,0,1,,,,,,,,,0,,,85,110
51030,note_on,0,0,1,,,,,,,,,0,,,88,110
51040,note_on,10,0,1,,,,,,,,,0,,,85,0
51040,note_on,0,0,1,,,,,,,,,0,,,88,0
51040,note_on,0,0,1,,,,,,,,,0,,,81,110
51045,note_on,30,0,4,,,,,,,,,0,,,45,120
51050,note_on,0,0,1,,,,,,,,,0,,,76,110
51050,note_on,10,0,1,,,,,,,,,0,,,81,0
51060,note_on,15,0,4,,,,,,,,,0,,,45,0
51060,note_on,0,0,1,,,,,,,,,0,,,73,110
51060,note_on,0,0,1,,,,,,,,,0,,,76,110
51060,note_on,10,0,1,,,,,,,,,0,,,76,0
51060,note_on,0,0,4,,,,,,,,,0,,,45,120
51070,note_on,0,0,1,,,,,,,,,0,,,69,110
51070,note_on,0,0,1,,,,,,,,,0,,,76,0
51070,note_on,10,0,1,,,,,,,,,0,,,73,0
51075,note_on,15,0,4,,,,,,,,,0,,,45,0
51075,note_on,0,0,4,,,,,,,,,0,,,48,120
51080,note_on,0,0,1,,,,,,,,,0,,,64,110
51080,note_on,10,0,1,,,,,,,,,0,,,69,0
51090,note_on,0,0,2,,,,,,,,,0,,,61,110
51090,note_on,15,0,4,,,,,,,,,0,,,48,0
51090,note_on,170,0,2,,,,,,,,,0,,,64,110
51090,note_on,10,0,1,,,,,,,,,0,,,64,0
51090,note_on,0,0,4,,,,,,,,,0,,,46,120
51100,note_on,0,0,2,,,,,,,,,0,,,64,0
51100,note_on,0,0,2,,,,,,,,,0,,,57,110
51100,note_on,10,0,2,,,,,,,,,0,,,61,0
51105,note_on,0,0,4,,,,,,,,,0,,,45,120
51105,note_on,15,0,4,,,,,,,,,0,,,46,0
51110,note_on,0,0,2,,,,,,,,,0,,,52,110
51110,note_on,10,0,2,,,,,,,,,0,,,57,0
51120,note_on,0,0,4,,,,,,,,,0,,,38,120
51120,note_on,0,0,4,,,,,,,,,0,,,41,120
51120,note_on,0,0,4,,,,,,,,,0,,,45,120
51120,note_on,0,0,4,,,,,,,,,0,,,50,120
51120,note_on,10,0,2,,,,,,,,,0,,,52,0
51120,note_on,15,0,4,,,,,,,,,0,,,45,0
51130,note_on,10,0,2,,,,,,,,,0,,,53,110
51135,note_on,0,0,4,,,,,,,,,0,,,45,0
51135,note_on,15,0,4,,,,,,,,,0,,,50,0
51135,note_on,0,0,4,,,,,,,,,0,,,41,0
51135,note_on,0,0,4,,,,,,,,,0,,,38,0
51140,note_on,0,0,2,,,,,,,,,0,,,57,110
51140,note_on,10,0,2,,,,,,,,,0,,,53,0
51150,note_on,0,0,2,,,,,,,,,0,,,62,110
51150,note_on,10,0,2,,,,,,,,,0,,,57,0
51150,note_on,0,0,2,,,,,,,,,0,,,65,110
51160,note_on,10,0,2,,,,,,,,,0,,,62,0
51160,note_on,70,0,1,,,,,,,,,0,,,65,110
51160,note_on,0,0,2,,,,,,,,,0,,,65,0
51165,note_on,30,0,4,,,,,,,,,0,,,57,120
51170,note_on,10,0,1,,,,,,,,,0,,,65,0
51170,note_on,0,0,1,,,,,,,,,0,,,69,110
51180,note_on,15,0,4,,,,,,,,,0,,,57,0
51180,note_on,0,0,1,,,,,,,,,0,,,74,110
51180,note_on,10,0,1,,,,,,,,,0,,,69,0
51180,note_on,0,0,4,,,,,,,,,0,,,57,120
51180,note_on,0,0,1,,,,,,,,,0,,,77,110
51190,note_on,10,0,1,,,,,,,,,0,,,77,0
51190,note_on,0,0,1,,,,,,,,,0,,,74,0
51190,note_on,0,0,1,,,,,,,,,0,,,77,110
51195,note_on,0,0,4,,,,,,,,,0,,,60,120
51195,note_on,15,0,4,,,,,,,,,0,,,57,0
51200,note_on,0,0,1,,,,,,,,,0,,,81,110
51200,note_on,10,0,1,,,,,,,,,0,,,77,0
51210,note_on,10,0,1,,,,,,,,,0,,,81,0
51210,note_on,0,0,1,,,,,,,,,0,,,86,110
51210,note_on,15,0,4,,,,,,,,,0,,,60,0
51210,note_on,0,0,4,,,,,,,,,0,,,58,120
51210,note_on,0,0,1,,,,,,,,,0,,,89,110
51220,note_on,10,0,1,,,,,,,,,0,,,86,0
51220,note_on,0,0,1,,,,,,,,,0,,,89,0
51220,note_on,0,0,1,,,,,,,,,0,,,89,110
51225,note_on,0,0,4,,,,,,,,,0,,,57,120
51225,note_on,15,0,4,,,,,,,,,0,,,58,0
51230,note_on,10,0,1,,,,,,,,,0,,,89,0
51230,note_on,0,0,1,,,,,,,,,0,,,93,110
51240,note_on,0,0,4,,,,,,,,,0,,,65,120
51240,note_on,10,0,1,,,,,,,,,0,,,93,0
51240,note_on,0,0,1,,,,,,,,,0,,,101,110
51240,note_on,15,0,4,,,,,,,,,0,,,57,0
51240,note_on,0,0,1,,,,,,,,,0,,,98,110
51250,note_on,10,0,1,,,,,,,,,0,,,98,0
51250,note_on,0,0,1,,,,,,,,,0,,,101,0
51250,note_on,0,0,1,,,,,,,,,0,,,93,110
51255,note_on,15,0,4,,,,,,,,,0,,,65,0
51260,note_on,0,0,1,,,,,,,,,0,,,89,110
51260,note_on,10,0,1,,,,,,,,,0,,,93,0
51270,note_on,10,0,1,,,,,,,,,0,,,89,0
51270,note_on,0,0,1,,,,,,,,,0,,,86,110
51270,note_on,0,0,1,,,,,,,,,0,,,89,110
51280,note_on,0,0,1,,,,,,,,,0,,,81,110
51280,note_on,0,0,1,,,,,,,,,0,,,89,0
51280,note_on,10,0,1,,,,,,,,,0,,,86,0
51285,note_on,30,0,4,,,,,,,,,0,,,38,120
51290,note_on,0,0,1,,,,,,,,,0,,,77,110
51290,note_on,10,0,1,,,,,,,,,0,,,81,0
51300,note_on,15,0,4,,,,,,,,,0,,,38,0
51300,note_on,0,0,1,,,,,,,,,0,,,74,110
51300,note_on,0,0,4,,,,,,,,,0,,,38,120
51300,note_on,0,0,1,,,,,,,,,0,,,77,110
51300,note_on,10,0,1,,,,,,,,,0,,,77,0
51310,note_on,0,0,1,,,,,,,,,0,,,69,110
51310,note_on,10,0,1,,,,,,,,,0,,,74,0
51310,note_on,0,0,1,,,,,,,,,0,,,77,0
51315,note_on,0,0,4,,,,,,,,,0,,,37,120
51315,note_on,15,0,4,,,,,,,,,0,,,38,0
51320,note_on,10,0,1,,,,,,,,,0,,,69,0
51320,note_on,0,0,1,,,,,,,,,0,,,65,110
51330,note_on,0,0,4,,,,,,,,,0,,,38,120
51330,note_on,10,0,1,,,,,,,,,0,,,65,0
51330,note_on,15,0,4,,,,,,,,,0,,,37,0
51330,note_on,0,0,2,,,,,,,,,0,,,62,110
51330,note_on,170,0,2,,,,,,,,,0,,,65,110
51340,note_on,10,0,2,,,,,,,,,0,,,62,0
51340,note_on,0,0,2,,,,,,,,,0,,,57,110
51340,note_on,0,0,2,,,,,,,,,0,,,65,0
51345,note_on,15,0,4,,,,,,,,,0,,,38,0
51345,note_on,0,0,4,,,,,,,,,0,,,40,120
51350,note_on,10,0,2,,,,,,,,,0,,,57,0
51350,note_on,0,0,2,,,,,,,,,0,,,53,110
51360,end_of_track,0,1,2,,,,,,,,,,,,,
51360,note_on,10,0,2,,,,,,,,,0,,,53,0
51360,note_on,15,0,4,,,,,,,,,0,,,40,0
51360,note_on,0,0,4,,,,,,,,,0,,,53,110
51360,note_on,0,0,4,,,,,,,,,0,,,41,110
51390,note_on,0,0,4,,,,,,,,,0,,,56,110
51390,note_on,60,0,1,,,,,,,,,0,,,83,110
51390,note_on,0,0,1,,,,,,,,,0,,,71,110
51390,note_on,30,0,4,,,,,,,,,0,,,65,110
51390,note_on,0,0,4,,,,,,,,,0,,,62,110
51390,note_on,0,0,1,,,,,,,,,0,,,74,110
51420,note_on,0,0,1,,,,,,,,,0,,,74,0
51420,note_on,0,0,1,,,,,,,,,0,,,83,0
51420,note_on,30,0,4,,,,,,,,,0,,,56,0
51420,note_on,0,0,4,,,,,,,,,0,,,41,0
51420,note_on,0,0,4,,,,,,,,,0,,,53,0
51420,note_on,0,0,4,,,,,,,,,0,,,56,110
51420,note_on,0,0,4,,,,,,,,,0,,,62,0
51420,note_on,0,0,4,,,,,,,,,0,,,65,0
51420,note_on,30,0,1,,,,,,,,,0,,,71,0
51420,note_on,0,0,4,,,,,,,,,0,,,44,110
51450,note_on,0,0,4,,,,,,,,,0,,,59,110
51450,note_on,0,0,4,,,,,,,,,0,,,65,110
51450,note_on,0,0,1,,,,,,,,,0,,,77,110
51450,note_on,0,0,1,,,,,,,,,0,,,74,110
51450,note_on,30,0,1,,,,,,,,,0,,,86,110
51450,note_on,30,0,4,,,,,,,,,0,,,68,110
51480,note_on,0,0,1,,,,,,,,,0,,,86,0
51480,note_on,30,0,1,,,,,,,,,0,,,74,0
51480,note_on,30,0,4,,,,,,,,,0,,,59,0
51480,note_on,0,0,1,,,,,,,,,0,,,77,0
51480,note_on,0,0,4,,,,,,,,,0,,,68,0
51480,note_on,0,0,4,,,,,,,,,0,,,65,0
51480,note_on,0,0,4,,,,,,,,,0,,,44,0
51480,note_on,0,0,4,,,,,,,,,0,,,47,110
51480,note_on,0,0,4,,,,,,,,,0,,,56,0
51480,note_on,0,0,4,,,,,,,,,0,,,59,110
51510,note_on,930,0,3,,,,,,,,,0,,,71,110
51510,note_on,0,0,3,,,,,,,,,0,,,68,110
51510,note_on,0,0,3,,,,,,,,,0,,,62,110
51510,note_on,30,0,1,,,,,,,,,0,,,89,110
51510,note_on,0,0,1,,,,,,,,,0,,,80,110
51510,note_on,0,0,1,,,,,,,,,0,,,77,110
51540,note_on,30,0,1,,,,,,,,,0,,,77,0
51540,note_on,0,0,1,,,,,,,,,0,,,89,0
51540,note_on,0,0,1,,,,,,,,,0,,,80,0
51540,note_on,60,0,4,,,,,,,,,0,,,59,0
51540,note_on,30,0,3,,,,,,,,,0,,,62,0
51540,note_on,0,0,4,,,,,,,,,0,,,40,110
51540,note_on,0,0,3,,,,,,,,,0,,,68,0
51540,note_on,0,0,4,,,,,,,,,0,,,47,0
51540,note_on,0,0,4,,,,,,,,,0,,,52,110
51540,note_on,0,0,3,,,,,,,,,0,,,71,0
51570,note_on,30,0,1,,,,,,,,,0,,,88,110
51570,note_on,0,0,4,,,,,,,,,0,,,56,110
51570,note_on,0,0,4,,,,,,,,,0,,,59,110
51570,note_on,0,0,1,,,,,,,,,0,,,76,110
51570,note_on,30,0,4,,,,,,,,,0,,,64,110
51570,note_on,0,0,1,,,,,,,,,0,,,80,110
51600,note_on,0,0,1,,,,,,,,,0,,,80,0
51600,note_on,0,0,1,,,,,,,,,0,,,88,0
51600,note_on,0,0,4,,,,,,,,,0,,,33,110
51600,end_of_track,0,1,0,,,,,,,,,,,,,
51600,key_signature,5760,1,0,,,,,A,,,,,,,,
51600,note_on,0,0,4,,,,,,,,,0,,,40,0
51600,note_on,0,0,4,,,,,,,,,0,,,45,110
51600,note_on,0,0,4,,,,,,,,,0,,,52,0
51600,note_on,30,0,4,,,,,,,,,0,,,56,0
51600,note_on,0,0,4,,,,,,,,,0,,,59,0
51600,note_on,0,0,4,,,,,,,,,0,,,64,0
51600,note_on,30,0,1,,,,,,,,,0,,,76,0
51608,note_on,0,0,4,,,,,,,,,0,,,49,110
51608,note_on,8,0,4,,,,,,,,,0,,,37,110
51610,note_on,2,0,4,,,,,,,,,0,,,45,0
51610,note_on,0,0,4,,,,,,,,,0,,,33,0
51618,note_on,0,0,4,,,,,,,,,0,,,40,110
51618,note_on,0,0,4,,,,,,,,,0,,,52,110
51618,note_on,8,0,4,,,,,,,,,0,,,37,0
51618,note_on,0,0,4,,,,,,,,,0,,,49,0
51628,note_on,0,0,4,,,,,,,,,0,,,40,0
51628,note_on,0,0,4,,,,,,,,,0,,,45,110
51628,note_on,10,0,4,,,,,,,,,0,,,52,0
51628,note_on,0,0,4,,,,,,,,,0,,,57,110
51638,note_on,10,0,4,,,,,,,,,0,,,57,0
51638,note_on,38,0,1,,,,,,,,,0,,,61,110
51638,note_on,0,0,4,,,,,,,,,0,,,45,0
51638,note_on,0,0,4,,,,,,,,,0,,,49,110
51648,note_on,10,0,1,,,,,,,,,0,,,61,0
51648,note_on,10,0,4,,,,,,,,,0,,,49,0
51648,note_on,0,0,1,,,,,,,,,0,,,64,110
51648,note_on,0,0,4,,,,,,,,,0,,,52,110
51658,note_on,0,0,4,,,,,,,,,0,,,57,110
51658,note_on,0,0,1,,,,,,,,,0,,,69,110
51658,note_on,10,0,4,,,,,,,,,0,,,52,0
51658,note_on,10,0,1,,,,,,,,,0,,,64,0
51668,note_on,10,0,4,,,,,,,,,0,,,57,0
51668,note_on,10,0,1,,,,,,,,,0,,,69,0
51668,note_on,0,0,1,,,,,,,,,0,,,73,110
51668,note_on,0,0,4,,,,,,,,,0,,,61,110
51678,note_on,0,0,4,,,,,,,,,0,,,64,110
51678,note_on,10,0,1,,,,,,,,,0,,,73,0
51678,note_on,0,0,1,,,,,,,,,0,,,76,110
51678,note_on,10,0,4,,,,,,,,,0,,,61,0
51688,note_on,10,0,1,,,,,,,,,0,,,76,0
51688,note_on,148,0,3,,,,,,,,,0,,,69,110
51688,note_on,10,0,4,,,,,,,,,0,,,64,0
51688,note_on,0,0,1,,,,,,,,,0,,,81,110
51698,note_on,10,0,1,,,,,,,,,0,,,81,0
51698,note_on,10,0,3,,,,,,,,,0,,,69,0
51698,note_on,0,0,3,,,,,,,,,0,,,73,110
51698,note_on,0,0,1,,,,,,,,,0,,,85,110
51708,note_on,10,0,3,,,,,,,,,0,,,73,0
51708,note_on,10,0,1,,,,,,,,,0,,,85,0
51709,note_on,1,0,3,,,,,,,,,0,,,76,110
51709,note_on,1,0,1,,,,,,,,,0,,,88,110
51719,note_on,10,0,1,,,,,,,,,0,,,88,0
51719,note_on,0,0,3,,,,,,,,,0,,,81,110
51719,note_on,10,0,3,,,,,,,,,0,,,76,0
51719,note_on,0,0,1,,,,,,,,,0,,,93,110
51729,note_on,10,0,3,,,,,,,,,0,,,81,0
51729,note_on,0,0,3,,,,,,,,,0,,,76,110
51729,note_on,10,0,1,,,,,,,,,0,,,93,0
51729,note_on,0,0,1,,,,,,,,,0,,,88,110
51739,note_on,10,0,3,,,,,,,,,0,,,76,0
51739,note_on,0,0,3,,,,,,,,,0,,,73,110
51739,note_on,10,0,1,,,,,,,,,0,,,88,0
51739,note_on,0,0,1,,,,,,,,,0,,,85,110
51749,note_on,10,0,1,,,,,,,,,0,,,85,0
51749,note_on,10,0,3,,,,,,,,,0,,,73,0
51749,note_on,0,0,3,,,,,,,,,0,,,69,110
51749,note_on,0,0,1,,,,,,,,,0,,,81,110
51759,note_on,10,0,3,,,,,,,,,0,,,69,0
51759,note_on,0,0,1,,,,,,,,,0,,,76,110
51759,note_on,10,0,1,,,,,,,,,0,,,81,0
51759,note_on,0,0,3,,,,,,,,,0,,,64,110
51769,note_on,10,0,3,,,,,,,,,0,,,64,0
51769,note_on,10,0,1,,,,,,,,,0,,,76,0
51769,note_on,0,0,1,,,,,,,,,0,,,73,110
51769,note_on,81,0,4,,,,,,,,,0,,,61,110
51779,note_on,10,0,1,,,,,,,,,0,,,73,0
51779,note_on,10,0,4,,,,,,,,,0,,,61,0
51779,note_on,0,0,4,,,,,,,,,0,,,57,110
51779,note_on,0,0,1,,,,,,,,,0,,,69,110
51789,note_on,10,0,4,,,,,,,,,0,,,57,0
51789,note_on,10,0,1,,,,,,,,,0,,,69,0
51789,note_on,0,0,1,,,,,,,,,0,,,64,110
51789,note_on,0,0,4,,,,,,,,,0,,,52,110
51799,note_on,0,0,4,,,,,,,,,0,,,49,110
51799,note_on,10,0,1,,,,,,,,,0,,,64,0
51799,note_on,0,0,1,,,,,,,,,0,,,61,110
51799,note_on,10,0,4,,,,,,,,,0,,,52,0
51809,note_on,10,0,1,,,,,,,,,0,,,61,0
51809,note_on,10,0,4,,,,,,,,,0,,,49,0
51810,note_on,1,0,4,,,,,,,,,0,,,45,110
51810,note_on,0,0,4,,,,,,,,,0,,,57,110
51820,note_on,0,0,4,,,,,,,,,0,,,40,110
51820,note_on,0,0,4,,,,,,,,,0,,,45,0
51820,note_on,10,0,4,,,,,,,,,0,,,57,0
51820,note_on,0,0,4,,,,,,,,,0,,,52,110
51830,note_on,10,0,4,,,,,,,,,0,,,52,0
51830,note_on,0,0,4,,,,,,,,,0,,,49,110
51830,note_on,0,0,4,,,,,,,,,0,,,40,0
51830,note_on,0,0,4,,,,,,,,,0,,,37,110
51840,note_on,10,0,4,,,,,,,,,0,,,49,0
51840,note_on,0,0,4,,,,,,,,,0,,,33,110
51840,note_on,0,0,4,,,,,,,,,0,,,45,110
51840,note_on,0,0,4,,,,,,,,,0,,,37,0
51848,note_on,8,0,4,,,,,,,,,0,,,49,110
51848,note_on,0,0,4,,,,,,,,,0,,,37,110
51849,note_on,0,0,4,,,,,,,,,0,,,45,0
51849,note_on,1,0,4,,,,,,,,,0,,,33,0
51857,note_on,0,0,4,,,,,,,,,0,,,37,0
51857,note_on,0,0,4,,,,,,,,,0,,,52,110
51857,note_on,8,0,4,,,,,,,,,0,,,49,0
51857,note_on,0,0,4,,,,,,,,,0,,,40,110
51866,note_on,0,0,4,,,,,,,,,0,,,45,110
51866,note_on,0,0,4,,,,,,,,,0,,,52,0
51866,note_on,0,0,4,,,,,,,,,0,,,57,110
51866,note_on,9,0,4,,,,,,,,,0,,,40,0
51875,note_on,0,0,4,,,,,,,,,0,,,57,0
51875,note_on,9,0,4,,,,,,,,,0,,,45,0
51876,note_on,67,0,1,,,,,,,,,0,,,61,110
51876,note_on,1,0,4,,,,,,,,,0,,,49,110
51885,note_on,0,0,4,,,,,,,,,0,,,52,110
51885,note_on,9,0,1,,,,,,,,,0,,,61,0
51885,note_on,9,0,4,,,,,,,,,0,,,49,0
51885,note_on,0,0,1,,,,,,,,,0,,,64,110
51894,note_on,0,0,4,,,,,,,,,0,,,57,110
51894,note_on,9,0,1,,,,,,,,,0,,,64,0
51894,note_on,0,0,1,,,,,,,,,0,,,69,110
51894,note_on,9,0,4,,,,,,,,,0,,,52,0
51903,note_on,9,0,1,,,,,,,,,0,,,69,0
51903,note_on,9,0,4,,,,,,,,,0,,,57,0
51904,note_on,1,0,4,,,,,,,,,0,,,61,110
51904,note_on,1,0,1,,,,,,,,,0,,,73,110
51913,note_on,0,0,1,,,,,,,,,0,,,76,110
51913,note_on,9,0,4,,,,,,,,,0,,,61,0
51913,note_on,0,0,4,,,,,,,,,0,,,64,110
51913,note_on,9,0,1,,,,,,,,,0,,,73,0
51922,note_on,153,0,3,,,,,,,,,0,,,69,110
51922,note_on,9,0,4,,,,,,,,,0,,,64,0
51922,note_on,9,0,1,,,,,,,,,0,,,76,0
51922,note_on,0,0,1,,,,,,,,,0,,,81,110
51931,note_on,9,0,1,,,,,,,,,0,,,81,0
51931,note_on,9,0,3,,,,,,,,,0,,,69,0
51932,note_on,1,0,3,,,,,,,,,0,,,73,110
51932,note_on,1,0,1,,,,,,,,,0,,,85,110
51941,note_on,9,0,1,,,,,,,,,0,,,85,0
51941,note_on,9,0,3,,,,,,,,,0,,,73,0
51941,note_on,0,0,3,,,,,,,,,0,,,76,110
51941,note_on,0,0,1,,,,,,,,,0,,,88,110
51950,note_on,0,0,1,,,,,,,,,0,,,93,110
51950,note_on,9,0,1,,,,,,,,,0,,,88,0
51950,note_on,9,0,3,,,,,,,,,0,,,76,0
51950,note_on,0,0,3,,,,,,,,,0,,,81,110
51959,note_on,9,0,1,,,,,,,,,0,,,93,0
51959,note_on,0,0,3,,,,,,,,,0,,,85,110
51959,note_on,9,0,3,,,,,,,,,0,,,81,0
51959,note_on,0,0,1,,,,,,,,,0,,,97,110
51968,note_on,9,0,1,,,,,,,,,0,,,97,0
51968,note_on,9,0,3,,,,,,,,,0,,,85,0
51969,note_on,1,0,1,,,,,,,,,0,,,93,110
51969,note_on,1,0,3,,,,,,,,,0,,,81,110
51978,note_on,0,0,3,,,,,,,,,0,,,76,110
51978,note_on,9,0,1,,,,,,,,,0,,,93,0
51978,note_on,9,0,3,,,,,,,,,0,,,81,0
51978,note_on,0,0,1,,,,,,,,,0,,,88,110
51987,note_on,0,0,1,,,,,,,,,0,,,85,110
51987,note_on,9,0,3,,,,,,,,,0,,,76,0
51987,note_on,0,0,3,,,,,,,,,0,,,73,110
51987,note_on,9,0,1,,,,,,,,,0,,,88,0
51996,note_on,9,0,1,,,,,,,,,0,,,85,0
51996,note_on,9,0,3,,,,,,,,,0,,,73,0
51997,note_on,1,0,1,,,,,,,,,0,,,81,110
51997,note_on,1,0,3,,,,,,,,,0,,,69,110
52006,note_on,0,0,1,,,,,,,,,0,,,76,110
52006,note_on,0,0,3,,,,,,,,,0,,,64,110
52006,note_on,9,0,1,,,,,,,,,0,,,81,0
52006,note_on,9,0,3,,,,,,,,,0,,,69,0
52015,note_on,9,0,1,,,,,,,,,0,,,76,0
52015,note_on,0,0,1,,,,,,,,,0,,,73,110
52015,note_on,93,0,4,,,,,,,,,0,,,61,110
52015,note_on,9,0,3,,,,,,,,,0,,,64,0
52024,note_on,9,0,1,,,,,,,,,0,,,73,0
52024,note_on,9,0,4,,,,,,,,,0,,,61,0
52025,note_on,1,0,4,,,,,,,,,0,,,57,110
52025,note_on,1,0,1,,,,,,,,,0,,,69,110
52034,note_on,0,0,1,,,,,,,,,0,,,64,110
52034,note_on,9,0,4,,,,,,,,,0,,,57,0
52034,note_on,9,0,1,,,,,,,,,0,,,69,0
52034,note_on,0,0,4,,,,,,,,,0,,,52,110
52043,note_on,9,0,4,,,,,,,,,0,,,52,0
52043,note_on,9,0,1,,,,,,,,,0,,,64,0
52043,note_on,0,0,4,,,,,,,,,0,,,49,110
52043,note_on,0,0,1,,,,,,,,,0,,,61,110
52052,note_on,9,0,4,,,,,,,,,0,,,49,0
52052,note_on,0,0,4,,,,,,,,,0,,,57,110
52052,note_on,0,0,4,,,,,,,,,0,,,45,110
52052,note_on,9,0,1,,,,,,,,,0,,,61,0
52061,note_on,9,0,4,,,,,,,,,0,,,45,0
52061,note_on,0,0,4,,,,,,,,,0,,,57,0
52062,note_on,0,0,4,,,,,,,,,0,,,40,110
52062,note_on,1,0,4,,,,,,,,,0,,,52,110
52071,note_on,9,0,4,,,,,,,,,0,,,40,0
52071,note_on,0,0,4,,,,,,,,,0,,,37,110
52071,note_on,0,0,4,,,,,,,,,0,,,49,110
52071,note_on,0,0,4,,,,,,,,,0,,,52,0
52080,note_on,0,0,4,,,,,,,,,0,,,49,0
52080,note_on,9,0,4,,,,,,,,,0,,,37,0
52080,note_on,0,0,4,,,,,,,,,0,,,33,110
52080,note_on,0,0,4,,,,,,,,,0,,,45,110
52087,note_on,7,0,4,,,,,,,,,0,,,49,110
52087,note_on,0,0,4,,,,,,,,,0,,,37,110
52088,note_on,1,0,4,,,,,,,,,0,,,33,0
52088,note_on,0,0,4,,,,,,,,,0,,,45,0
52095,note_on,0,0,4,,,,,,,,,0,,,40,110
52095,note_on,0,0,4,,,,,,,,,0,,,37,0
52095,note_on,0,0,4,,,,,,,,,0,,,52,110
52095,note_on,7,0,4,,,,,,,,,0,,,49,0
52103,note_on,0,0,4,,,,,,,,,0,,,52,0
52103,note_on,0,0,4,,,,,,,,,0,,,45,110
52103,note_on,0,0,4,,,,,,,,,0,,,57,110
52103,note_on,8,0,4,,,,,,,,,0,,,40,0
52111,note_on,0,0,4,,,,,,,,,0,,,57,0
52111,note_on,8,0,4,,,,,,,,,0,,,45,0
52112,note_on,60,0,1,,,,,,,,,0,,,61,110
52112,note_on,1,0,4,,,,,,,,,0,,,49,110
52120,note_on,8,0,1,,,,,,,,,0,,,61,0
52120,note_on,0,0,1,,,,,,,,,0,,,64,110
52120,note_on,8,0,4,,,,,,,,,0,,,49,0
52120,note_on,0,0,4,,,,,,,,,0,,,52,110
52128,note_on,8,0,1,,,,,,,,,0,,,64,0
52128,note_on,0,0,4,,,,,,,,,0,,,57,110
52128,note_on,8,0,4,,,,,,,,,0,,,52,0
52128,note_on,0,0,1,,,,,,,,,0,,,69,110
52136,note_on,8,0,1,,,,,,,,,0,,,69,0
52136,note_on,0,0,1,,,,,,,,,0,,,73,110
52136,note_on,8,0,4,,,,,,,,,0,,,57,0
52136,note_on,0,0,4,,,,,,,,,0,,,61,110
52144,note_on,8,0,4,,,,,,,,,0,,,61,0
52144,note_on,8,0,1,,,,,,,,,0,,,73,0
52145,note_on,1,0,4,,,,,,,,,0,,,64,110
52145,note_on,1,0,1,,,,,,,,,0,,,76,110
52153,note_on,8,0,1,,,,,,,,,0,,,76,0
52153,note_on,0,0,1,,,,,,,,,0,,,81,110
52153,note_on,138,0,3,,,,,,,,,0,,,69,110
52153,note_on,8,0,4,,,,,,,,,0,,,64,0
52161,note_on,8,0,3,,,,,,,,,0,,,69,0
52161,note_on,0,0,1,,,,,,,,,0,,,85,110
52161,note_on,8,0,1,,,,,,,,,0,,,81,0
52161,note_on,0,0,3,,,,,,,,,0,,,73,110
52169,note_on,8,0,3,,,,,,,,,0,,,73,0
52169,note_on,8,0,1,,,,,,,,,0,,,85,0
52169,note_on,0,0,3,,,,,,,,,0,,,76,110
52169,note_on,0,0,1,,,,,,,,,0,,,88,110
52177,note_on,8,0,1,,,,,,,,,0,,,88,0
52177,note_on,8,0,3,,,,,,,,,0,,,76,0
52178,note_on,1,0,3,,,,,,,,,0,,,81,110
52178,note_on,1,0,1,,,,,,,,,0,,,93,110
52186,note_on,8,0,3,,,,,,,,,0,,,81,0
52186,note_on,8,0,1,,,,,,,,,0,,,93,0
52187,note_on,1,0,3,,,,,,,,,0,,,85,110
52187,note_on,1,0,1,,,,,,,,,0,,,97,110
52195,note_on,8,0,3,,,,,,,,,0,,,85,0
52195,note_on,0,0,1,,,,,,,,,0,,,101,110
52195,note_on,0,0,3,,,,,,,,,0,,,89,110
52195,note_on,8,0,1,,,,,,,,,0,,,97,0
52203,note_on,0,0,3,,,,,,,,,0,,,88,110
52203,note_on,0,0,1,,,,,,,,,0,,,100,110
52203,note_on,8,0,1,,,,,,,,,0,,,101,0
52203,note_on,8,0,3,,,,,,,,,0,,,89,0
52211,note_on,8,0,1,,,,,,,,,0,,,100,0
52211,note_on,8,0,3,,,,,,,,,0,,,88,0
52212,note_on,1,0,1,,,,,,,,,0,,,97,110
52212,note_on,1,0,3,,,,,,,,,0,,,85,110
52220,note_on,8,0,1,,,,,,,,,0,,,97,0
52220,note_on,0,0,1,,,,,,,,,0,,,93,110
52220,note_on,0,0,3,,,,,,,,,0,,,81,110
52220,note_on,8,0,3,,,,,,,,,0,,,85,0
52228,note_on,8,0,1,,,,,,,,,0,,,93,0
52228,note_on,8,0,3,,,,,,,,,0,,,81,0
52228,note_on,0,0,3,,,,,,,,,0,,,76,110
52228,note_on,0,0,1,,,,,,,,,0,,,88,110
52236,note_on,8,0,3,,,,,,,,,0,,,76,0
52236,note_on,8,0,1,,,,,,,,,0,,,88,0
52236,note_on,0,0,3,,,,,,,,,0,,,73,110
52236,note_on,0,0,1,,,,,,,,,0,,,85,110
52244,note_on,8,0,3,,,,,,,,,0,,,73,0
52244,note_on,8,0,1,,,,,,,,,0,,,85,0
52245,note_on,1,0,1,,,,,,,,,0,,,81,110
52245,note_on,1,0,3,,,,,,,,,0,,,69,110
52253,note_on,0,0,3,,,,,,,,,0,,,64,110
52253,note_on,8,0,3,,,,,,,,,0,,,69,0
52253,note_on,0,0,1,,,,,,,,,0,,,76,110
52253,note_on,8,0,1,,,,,,,,,0,,,81,0
52261,note_on,8,0,1,,,,,,,,,0,,,76,0
52261,note_on,108,0,4,,,,,,,,,0,,,61,110
52261,note_on,8,0,3,,,,,,,,,0,,,64,0
52261,end_of_track,0,1,3,,,,,,,,,,,,,
52261,note_on,0,0,1,,,,,,,,,0,,,73,110
52269,note_on,8,0,4,,,,,,,,,0,,,61,0
52269,note_on,8,0,1,,,,,,,,,0,,,73,0
52269,note_on,0,0,4,,,,,,,,,0,,,57,110
52269,note_on,0,0,1,,,,,,,,,0,,,69,110
52277,note_on,8,0,1,,,,,,,,,0,,,69,0
52277,note_on,8,0,4,,,,,,,,,0,,,57,0
52278,note_on,1,0,4,,,,,,,,,0,,,52,110
52278,note_on,1,0,1,,,,,,,,,0,,,64,110
52286,note_on,8,0,4,,,,,,,,,0,,,52,0
52286,note_on,8,0,1,,,,,,,,,0,,,64,0
52287,note_on,1,0,1,,,,,,,,,0,,,61,110
52287,note_on,1,0,4,,,,,,,,,0,,,49,110
52295,note_on,0,0,4,,,,,,,,,0,,,57,110
52295,note_on,0,0,4,,,,,,,,,0,,,45,110
52295,note_on,8,0,4,,,,,,,,,0,,,49,0
52295,note_on,8,0,1,,,,,,,,,0,,,61,0
52303,note_on,8,0,4,,,,,,,,,0,,,45,0
52303,note_on,0,0,4,,,,,,,,,0,,,57,0
52303,note_on,0,0,4,,,,,,,,,0,,,52,110
52303,note_on,0,0,4,,,,,,,,,0,,,40,110
52311,note_on,0,0,4,,,,,,,,,0,,,52,0
52311,note_on,8,0,4,,,,,,,,,0,,,40,0
52312,note_on,1,0,4,,,,,,,,,0,,,49,110
52312,note_on,0,0,4,,,,,,,,,0,,,37,110
52320,note_on,8,0,4,,,,,,,,,0,,,37,0
52320,note_on,0,0,4,,,,,,,,,0,,,33,110
52320,note_on,0,0,4,,,,,,,,,0,,,45,110
52320,note_on,0,0,4,,,,,,,,,0,,,49,0
52335,note_on,0,0,4,,,,,,,,,0,,,33,0
52335,note_on,0,0,4,,,,,,,,,0,,,34,110
52335,note_on,0,0,4,,,,,,,,,0,,,46,110
52335,note_on,15,0,4,,,,,,,,,0,,,45,0
52350,note_on,15,0,4,,,,,,,,,0,,,46,0
52350,note_on,0,0,4,,,,,,,,,0,,,45,111
52350,note_on,0,0,4,,,,,,,,,0,,,34,0
52350,note_on,0,0,4,,,,,,,,,0,,,33,111
52365,note_on,15,0,4,,,,,,,,,0,,,45,0
52365,note_on,0,0,4,,,,,,,,,0,,,33,0
52365,note_on,0,0,4,,,,,,,,,0,,,34,112
52365,note_on,0,0,4,,,,,,,,,0,,,46,112
52380,note_on,0,0,4,,,,,,,,,0,,,34,0
52380,note_on,0,0,4,,,,,,,,,0,,,45,112
52380,note_on,15,0,4,,,,,,,,,0,,,46,0
52380,note_on,0,0,4,,,,,,,,,0,,,33,112
52395,note_on,15,0,4,,,,,,,,,0,,,45,0
52395,note_on,0,0,4,,,,,,,,,0,,,46,113
52395,note_on,0,0,4,,,,,,,,,0,,,34,113
52395,note_on,0,0,4,,,,,,,,,0,,,33,0
52410,note_on,0,0,4,,,,,,,,,0,,,45,114
52410,note_on,0,0,4,,,,,,,,,0,,,33,114
52410,note_on,15,0,4,,,,,,,,,0,,,46,0
52410,note_on,0,0,4,,,,,,,,,0,,,34,0
52425,note_on,0,0,4,,,,,,,,,0,,,46,114
52425,note_on,0,0,4,,,,,,,,,0,,,34,114
52425,note_on,0,0,4,,,,,,,,,0,,,33,0
52425,note_on,15,0,4,,,,,,,,,0,,,45,0
52440,note_on,15,0,4,,,,,,,,,0,,,46,0
52440,note_on,0,0,4,,,,,,,,,0,,,33,115
52440,note_on,0,0,4,,,,,,,,,0,,,34,0
52440,note_on,0,0,4,,,,,,,,,0,,,45,115
52447,note_on,0,0,4,,,,,,,,,0,,,46,116
52447,note_on,7,0,4,,,,,,,,,0,,,34,116
52448,note_on,1,0,4,,,,,,,,,0,,,45,0
52448,note_on,0,0,4,,,,,,,,,0,,,33,0
52455,note_on,0,0,4,,,,,,,,,0,,,47,116
52455,note_on,0,0,4,,,,,,,,,0,,,35,116
52455,note_on,0,0,4,,,,,,,,,0,,,46,0
52455,note_on,7,0,4,,,,,,,,,0,,,34,0
52462,note_on,0,0,4,,,,,,,,,0,,,48,116
52462,note_on,7,0,4,,,,,,,,,0,,,36,116
52463,note_on,0,0,4,,,,,,,,,0,,,35,0
52463,note_on,1,0,4,,,,,,,,,0,,,47,0
52470,note_on,7,0,4,,,,,,,,,0,,,36,0
52470,note_on,0,0,4,,,,,,,,,0,,,37,117
52470,note_on,0,0,4,,,,,,,,,0,,,48,0
52470,note_on,0,0,4,,,,,,,,,0,,,49,117
52477,note_on,0,0,4,,,,,,,,,0,,,50,117
52477,note_on,7,0,4,,,,,,,,,0,,,38,117
52478,note_on,1,0,4,,,,,,,,,0,,,49,0
52478,note_on,0,0,4,,,,,,,,,0,,,37,0
52485,note_on,0,0,4,,,,,,,,,0,,,50,0
52485,note_on,7,0,4,,,,,,,,,0,,,38,0
52485,note_on,0,0,4,,,,,,,,,0,,,39,117
52485,note_on,0,0,4,,,,,,,,,0,,,51,117
52492,note_on,0,0,4,,,,,,,,,0,,,52,118
52492,note_on,7,0,4,,,,,,,,,0,,,40,118
52493,note_on,0,0,4,,,,,,,,,0,,,39,0
52493,note_on,1,0,4,,,,,,,,,0,,,51,0
52500,note_on,0,0,4,,,,,,,,,0,,,41,118
52500,note_on,0,0,4,,,,,,,,,0,,,53,118
52500,note_on,0,0,4,,,,,,,,,0,,,52,0
52500,note_on,7,0,4,,,,,,,,,0,,,40,0
52507,note_on,0,0,4,,,,,,,,,0,,,52,118
52507,note_on,7,0,4,,,,,,,,,0,,,40,118
52508,note_on,1,0,4,,,,,,,,,0,,,53,0
52508,note_on,0,0,4,,,,,,,,,0,,,41,0
52515,note_on,7,0,4,,,,,,,,,0,,,40,0
52515,note_on,0,0,4,,,,,,,,,0,,,52,0
52515,note_on,0,0,4,,,,,,,,,0,,,51,119
52515,note_on,0,0,4,,,,,,,,,0,,,39,119
52522,note_on,7,0,4,,,,,,,,,0,,,38,119
52522,note_on,0,0,4,,,,,,,,,0,,,50,119
52523,note_on,1,0,4,,,,,,,,,0,,,51,0
52523,note_on,0,0,4,,,,,,,,,0,,,39,0
52530,note_on,0,0,4,,,,,,,,,0,,,50,0
52530,note_on,0,0,4,,,,,,,,,0,,,49,119
52530,note_on,0,0,4,,,,,,,,,0,,,37,119
52530,note_on,7,0,4,,,,,,,,,0,,,38,0
52537,note_on,7,0,4,,,,,,,,,0,,,36,120
52537,note_on,0,0,4,,,,,,,,,0,,,48,120
52538,note_on,0,0,4,,,,,,,,,0,,,37,0
52538,note_on,1,0,4,,,,,,,,,0,,,49,0
52545,note_on,0,0,4,,,,,,,,,0,,,47,120
52545,note_on,0,0,4,,,,,,,,,0,,,48,0
52545,note_on,0,0,4,,,,,,,,,0,,,35,120
52545,note_on,7,0,4,,,,,,,,,0,,,36,0
52552,note_on,7,0,4,,,,,,,,,0,,,34,120
52552,note_on,0,0,4,,,,,,,,,0,,,46,120
52553,note_on,0,0,4,,,,,,,,,0,,,35,0
52553,note_on,1,0,4,,,,,,,,,0,,,47,0
52560,note_on,0,0,4,,,,,,,,,0,,,45,120
52560,note_on,0,0,4,,,,,,,,,0,,,46,0
52560,note_on,7,0,4,,,,,,,,,0,,,34,0
52560,note_on,0,0,4,,,,,,,,,0,,,33,120
52575,note_on,0,0,4,,,,,,,,,0,,,33,0
52575,note_on,15,0,4,,,,,,,,,0,,,45,0
52620,note_on,325,0,1,,,,,,,,,0,,,81,127
52620,note_on,0,0,1,,,,,,,,,0,,,69,127
52620,note_on,0,0,1,,,,,,,,,0,,,76,127
52620,note_on,0,0,4,,,,,,,,,0,,,52,127
52620,note_on,0,0,4,,,,,,,,,0,,,49,127
52620,note_on,0,0,4,,,,,,,,,0,,,45,127
52620,note_on,0,0,1,,,,,,,,,0,,,73,127
52620,note_on,45,0,4,,,,,,,,,0,,,57,127
52680,note_on,60,0,1,,,,,,,,,0,,,69,0
52680,note_on,0,0,4,,,,,,,,,0,,,57,0
52680,note_on,0,0,1,,,,,,,,,0,,,93,127
52680,note_on,0,0,4,,,,,,,,,0,,,57,127
52680,note_on,0,0,4,,,,,,,,,0,,,49,0
52680,note_on,0,0,4,,,,,,,,,0,,,52,0
52680,note_on,0,0,1,,,,,,,,,0,,,73,0
52680,note_on,0,0,1,,,,,,,,,0,,,76,0
52680,note_on,0,0,1,,,,,,,,,0,,,81,0
52680,note_on,0,0,1,,,,,,,,,0,,,81,127
52680,note_on,0,0,1,,,,,,,,,0,,,85,127
52680,note_on,0,0,4,,,,,,,,,0,,,69,127
52680,note_on,0,0,4,,,,,,,,,0,,,64,127
52680,note_on,0,0,4,,,,,,,,,0,,,61,127
52680,note_on,60,0,4,,,,,,,,,0,,,45,0
52680,note_on,0,0,1,,,,,,,,,0,,,88,127
52740,note_on,60,0,4,,,,,,,,,0,,,57,0
52740,note_on,0,0,1,,,,,,,,,0,,,88,0
52740,note_on,0,0,1,,,,,,,,,0,,,85,0
52740,end_of_track,0,1,4,,,,,,,,,,,,,
52740,note_on,60,0,1,,,,,,,,,0,,,81,0
52740,end_of_track,0,1,1,,,,,,,,,,,,,
52740,note_on,0,0,4,,,,,,,,,0,,,69,0
52740,note_on,0,0,4,,,,,,,,,0,,,64,0
52740,note_on,0,0,4,,,,,,,,,0,,,61,0
52740,note_on,0,0,1,,,,,,,,,0,,,93,0
52800,control_change,4325,0,5,,,,,,,,,0,64,127,,
53280,control_change,480,0,5,,,,,,,,,0,64,0,,
53400,control_change,120,0,5,,,,,,,,,0,64,127,,
53520,control_change,120,0,5,,,,,,,,,0,64,0,,
53520,end_of_track,0,1,5,,,,,,,,,,,,,
