tick,type,time,meta,track,numerator,denominator,clocks_per_click,notated_32nd_notes_per_beat,key,tempo,port,program,channel,control,value,note,velocity
0,control_change,0,0,1,,,,,,,,,0,7,127,,
0,control_change,0,0,3,,,,,,,,,2,7,127,,
0,control_change,0,0,3,,,,,,,,,2,10,30,,
0,control_change,0,0,4,,,,,,,,,3,7,127,,
0,control_change,0,0,4,,,,,,,,,3,10,30,,
0,copyright,0,1,0,,,,,,,,,,,,,
0,key_signature,0,1,0,,,,,Ab,,,,,,,,
0,midi_port,0,1,1,,,,,,,0,,,,,,
0,midi_port,0,1,2,,,,,,,0,,,,,,
0,midi_port,0,1,3,,,,,,,0,,,,,,
0,midi_port,0,1,4,,,,,,,0,,,,,,
0,track_name,0,1,3,,,,,,,,,,,,,
0,program_change,0,0,1,,,,,,,,0,0,,,,
0,program_change,0,0,2,,,,,,,,0,1,,,,
0,program_change,0,0,3,,,,,,,,0,2,,,,
0,program_change,0,0,4,,,,,,,,0,3,,,,
0,set_tempo,0,1,0,,,,,,625000,,,,,,,
0,text,0,1,0,,,,,,,,,,,,,
0,time_signature,0,1,0,2,4,24,8,,,,,,,,,
0,track_name,0,1,0,,,,,,,,,,,,,
0,track_name,0,1,1,,,,,,,,,,,,,
0,track_name,0,1,2,,,,,,,,,,,,,
0,control_change,0,0,2,,,,,,,,,1,10,97,,
0,control_change,0,0,2,,,,,,,,,1,7,127,,
0,track_name,0,1,4,,,,,,,,,,,,,
0,control_change,0,0,1,,,,,,,,,0,10,97,,
1,copyright,1,1,5,,,,,,,,,,,,,
1,end_of_track,0,1,5,,,,,,,,,,,,,
53,set_tempo,53,1,0,,,,,,375000,,,,,,,
240,note_on,0,0,1,,,,,,,,,0,,,75,62
240,control_change,240,0,1,,,,,,,,,0,64,127,,
287,note_on,47,0,1,,,,,,,,,0,,,75,0
287,note_on,0,0,1,,,,,,,,,0,,,77,62
336,note_on,0,0,1,,,,,,,,,0,,,75,62
336,note_on,49,0,1,,,,,,,,,0,,,77,0
383,note_on,47,0,1,,,,,,,,,0,,,75,0
383,note_on,0,0,1,,,,,,,,,0,,,74,62
432,note_on,49,0,1,,,,,,,,,0,,,74,0
432,note_on,0,0,1,,,,,,,,,0,,,75,62
480,note_on,48,0,1,,,,,,,,,0,,,75,0
480,note_on,0,0,1,,,,,,,,,0,,,84,62
720,note_on,240,0,1,,,,,,,,,0,,,84,0
720,control_change,0,0,1,,,,,,,,,0,64,0,,
720,note_on,0,0,1,,,,,,,,,0,,,79,62
960,control_change,0,0,1,,,,,,,,,0,64,127,,
960,note_on,240,0,1,,,,,,,,,0,,,79,0
960,note_on,0,0,1,,,,,,,,,0,,,82,62
960,note_on,0,0,3,,,,,,,,,2,,,44,49
960,control_change,960,0,3,,,,,,,,,2,64,127,,
960,time_signature,907,1,0,6,4,24,8,,,,,,,,,
1200,note_on,0,0,3,,,,,,,,,2,,,51,49
1200,note_on,240,0,3,,,,,,,,,2,,,44,0
1440,note_on,0,0,3,,,,,,,,,2,,,56,49
1440,note_on,240,0,3,,,,,,,,,2,,,51,0
1680,note_on,240,0,3,,,,,,,,,2,,,56,0
1680,note_on,0,0,3,,,,,,,,,2,,,60,49
1680,note_on,720,0,1,,,,,,,,,0,,,82,0
1680,note_on,0,0,1,,,,,,,,,0,,,80,62
1920,note_on,240,0,1,,,,,,,,,0,,,80,0
1920,note_on,0,0,1,,,,,,,,,0,,,72,62
1920,note_on,240,0,3,,,,,,,,,2,,,60,0
1920,note_on,0,0,3,,,,,,,,,2,,,63,49
2160,note_on,240,0,3,,,,,,,,,2,,,63,0
2160,note_on,240,0,1,,,,,,,,,0,,,72,0
2160,note_on,0,0,1,,,,,,,,,0,,,73,62
2400,note_on,240,0,3,,,,,,,,,2,,,44,49
2400,note_on,0,0,1,,,,,,,,,0,,,77,62
2400,note_on,240,0,1,,,,,,,,,0,,,73,0
2640,note_on,240,0,3,,,,,,,,,2,,,44,0
2640,note_on,0,0,3,,,,,,,,,2,,,51,49
2880,note_on,240,0,3,,,,,,,,,2,,,51,0
2880,note_on,0,0,3,,,,,,,,,2,,,56,49
3120,note_on,0,0,3,,,,,,,,,2,,,60,49
3120,note_on,240,0,3,,,,,,,,,2,,,56,0
3120,note_on,0,0,1,,,,,,,,,0,,,75,62
3120,note_on,720,0,1,,,,,,,,,0,,,77,0
3360,note_on,240,0,3,,,,,,,,,2,,,60,0
3360,note_on,240,0,1,,,,,,,,,0,,,75,0
3360,note_on,0,0,3,,,,,,,,,2,,,63,49
3360,note_on,0,0,1,,,,,,,,,0,,,73,62
3600,note_on,240,0,3,,,,,,,,,2,,,63,0
3600,note_on,240,0,1,,,,,,,,,0,,,73,0
3600,note_on,0,0,1,,,,,,,,,0,,,72,62
3600,control_change,0,0,3,,,,,,,,,2,64,0,,
3600,control_change,0,0,1,,,,,,,,,0,64,0,,
3840,control_change,240,0,3,,,,,,,,,2,64,127,,
3840,control_change,0,0,1,,,,,,,,,0,64,127,,
3840,note_on,0,0,3,,,,,,,,,2,,,44,49
3840,note_on,240,0,1,,,,,,,,,0,,,72,0
3840,note_on,0,0,1,,,,,,,,,0,,,72,62
4080,note_on,0,0,3,,,,,,,,,2,,,53,49
4080,note_on,240,0,3,,,,,,,,,2,,,44,0
4320,note_on,240,0,3,,,,,,,,,2,,,53,0
4320,note_on,0,0,3,,,,,,,,,2,,,56,49
4560,note_on,720,0,1,,,,,,,,,0,,,72,0
4560,note_on,240,0,3,,,,,,,,,2,,,56,0
4560,note_on,0,0,3,,,,,,,,,2,,,62,49
4560,note_on,0,0,1,,,,,,,,,0,,,70,62
4800,note_on,240,0,1,,,,,,,,,0,,,70,0
4800,note_on,240,0,3,,,,,,,,,2,,,62,0
4800,note_on,0,0,3,,,,,,,,,2,,,65,49
4800,note_on,0,0,1,,,,,,,,,0,,,69,62
5040,note_on,0,0,1,,,,,,,,,0,,,70,62
5040,note_on,240,0,1,,,,,,,,,0,,,69,0
5040,note_on,240,0,3,,,,,,,,,2,,,65,0
5280,note_on,240,0,1,,,,,,,,,0,,,70,0
5280,note_on,0,0,1,,,,,,,,,0,,,69,62
5280,note_on,240,0,3,,,,,,,,,2,,,44,49
5360,note_on,80,0,1,,,,,,,,,0,,,69,0
5360,note_on,0,0,1,,,,,,,,,0,,,70,62
5439,note_on,0,0,1,,,,,,,,,0,,,72,62
5439,note_on,79,0,1,,,,,,,,,0,,,70,0
5520,note_on,240,0,3,,,,,,,,,2,,,44,0
5520,note_on,81,0,1,,,,,,,,,0,,,72,0
5520,note_on,0,0,1,,,,,,,,,0,,,70,62
5520,note_on,0,0,3,,,,,,,,,2,,,53,49
5600,note_on,0,0,1,,,,,,,,,0,,,72,62
5600,note_on,80,0,1,,,,,,,,,0,,,70,0
5679,note_on,79,0,1,,,,,,,,,0,,,72,0
5679,note_on,0,0,1,,,,,,,,,0,,,70,62
5760,note_on,0,0,3,,,,,,,,,2,,,56,49
5760,note_on,0,0,1,,,,,,,,,0,,,72,62
5760,note_on,240,0,3,,,,,,,,,2,,,53,0
5760,note_on,81,0,1,,,,,,,,,0,,,70,0
5840,note_on,80,0,1,,,,,,,,,0,,,72,0
5840,note_on,0,0,1,,,,,,,,,0,,,70,62
5919,note_on,79,0,1,,,,,,,,,0,,,70,0
5919,note_on,0,0,1,,,,,,,,,0,,,72,62
6000,note_on,240,0,3,,,,,,,,,2,,,56,0
6000,note_on,81,0,1,,,,,,,,,0,,,72,0
6000,note_on,0,0,1,,,,,,,,,0,,,69,62
6000,note_on,0,0,3,,,,,,,,,2,,,62,49
6065,note_on,65,0,1,,,,,,,,,0,,,69,0
6065,note_on,0,0,1,,,,,,,,,0,,,70,62
6130,note_on,0,0,1,,,,,,,,,0,,,72,62
6130,note_on,65,0,1,,,,,,,,,0,,,70,0
6196,note_on,66,0,1,,,,,,,,,0,,,72,0
6196,note_on,0,0,1,,,,,,,,,0,,,74,62
6240,note_on,0,0,3,,,,,,,,,2,,,65,49
6240,note_on,240,0,3,,,,,,,,,2,,,62,0
6262,note_on,0,0,1,,,,,,,,,0,,,75,62
6262,note_on,66,0,1,,,,,,,,,0,,,74,0
6327,note_on,0,0,1,,,,,,,,,0,,,77,62
6327,note_on,65,0,1,,,,,,,,,0,,,75,0
6392,note_on,0,0,1,,,,,,,,,0,,,79,62
6392,note_on,65,0,1,,,,,,,,,0,,,77,0
6457,note_on,65,0,1,,,,,,,,,0,,,79,0
6457,note_on,0,0,1,,,,,,,,,0,,,80,62
6480,note_on,240,0,3,,,,,,,,,2,,,65,0
6480,control_change,0,0,3,,,,,,,,,2,64,0,,
6523,note_on,66,0,1,,,,,,,,,0,,,80,0
6523,note_on,0,0,1,,,,,,,,,0,,,82,62
6589,note_on,66,0,1,,,,,,,,,0,,,82,0
6589,note_on,0,0,1,,,,,,,,,0,,,84,62
6654,note_on,0,0,1,,,,,,,,,0,,,86,62
6654,note_on,65,0,1,,,,,,,,,0,,,84,0
6654,control_change,0,0,1,,,,,,,,,0,64,0,,
6720,note_on,0,0,1,,,,,,,,,0,,,89,62
6720,control_change,240,0,3,,,,,,,,,2,64,127,,
6720,note_on,66,0,1,,,,,,,,,0,,,86,0
6720,note_on,0,0,3,,,,,,,,,2,,,44,49
6720,control_change,0,0,1,,,,,,,,,0,64,127,,
6960,note_on,240,0,3,,,,,,,,,2,,,44,0
6960,note_on,0,0,3,,,,,,,,,2,,,55,49
7200,note_on,0,0,3,,,,,,,,,2,,,58,49
7200,note_on,240,0,3,,,,,,,,,2,,,55,0
7440,note_on,240,0,3,,,,,,,,,2,,,58,0
7440,note_on,0,0,1,,,,,,,,,0,,,87,62
7440,note_on,720,0,1,,,,,,,,,0,,,89,0
7440,note_on,0,0,3,,,,,,,,,2,,,61,49
7680,note_on,240,0,1,,,,,,,,,0,,,87,0
7680,note_on,0,0,1,,,,,,,,,0,,,85,62
7680,note_on,0,0,3,,,,,,,,,2,,,63,49
7680,note_on,240,0,3,,,,,,,,,2,,,61,0
7920,note_on,240,0,1,,,,,,,,,0,,,85,0
7920,note_on,0,0,1,,,,,,,,,0,,,82,62
7920,note_on,240,0,3,,,,,,,,,2,,,63,0
8160,note_on,240,0,3,,,,,,,,,2,,,44,49
8160,note_on,240,0,1,,,,,,,,,0,,,82,0
8160,note_on,0,0,1,,,,,,,,,0,,,79,62
8400,note_on,240,0,3,,,,,,,,,2,,,44,0
8400,note_on,0,0,3,,,,,,,,,2,,,55,49
8640,note_on,240,0,3,,,,,,,,,2,,,55,0
8640,note_on,0,0,3,,,,,,,,,2,,,58,49
8880,note_on,720,0,1,,,,,,,,,0,,,79,0
8880,note_on,0,0,3,,,,,,,,,2,,,61,49
8880,note_on,0,0,1,,,,,,,,,0,,,75,62
8880,note_on,240,0,3,,,,,,,,,2,,,58,0
8927,note_on,47,0,1,,,,,,,,,0,,,75,0
9120,note_on,240,0,3,,,,,,,,,2,,,61,0
9120,note_on,0,0,3,,,,,,,,,2,,,63,49
9120,note_on,193,0,1,,,,,,,,,0,,,73,62
9167,note_on,47,0,1,,,,,,,,,0,,,73,0
9360,control_change,193,0,1,,,,,,,,,0,64,0,,
9360,control_change,0,0,3,,,,,,,,,2,64,0,,
9360,note_on,0,0,1,,,,,,,,,0,,,70,62
9360,note_on,240,0,3,,,,,,,,,2,,,63,0
9407,note_on,47,0,1,,,,,,,,,0,,,70,0
9600,control_change,193,0,1,,,,,,,,,0,64,127,,
9600,control_change,240,0,3,,,,,,,,,2,64,127,,
9600,note_on,0,0,1,,,,,,,,,0,,,67,62
9600,note_on,0,0,3,,,,,,,,,2,,,44,49
9840,note_on,240,0,1,,,,,,,,,0,,,67,0
9840,note_on,0,0,3,,,,,,,,,2,,,51,49
9840,note_on,240,0,3,,,,,,,,,2,,,44,0
9840,note_on,0,0,1,,,,,,,,,0,,,68,62
10080,note_on,240,0,3,,,,,,,,,2,,,51,0
10080,note_on,240,0,1,,,,,,,,,0,,,68,0
10080,note_on,0,0,1,,,,,,,,,0,,,72,62
10080,note_on,0,0,3,,,,,,,,,2,,,56,49
10320,note_on,240,0,1,,,,,,,,,0,,,72,0
10320,note_on,0,0,1,,,,,,,,,0,,,75,62
10320,note_on,0,0,3,,,,,,,,,2,,,60,49
10320,note_on,240,0,3,,,,,,,,,2,,,56,0
10560,note_on,240,0,1,,,,,,,,,0,,,75,0
10560,note_on,0,0,1,,,,,,,,,0,,,79,62
10560,note_on,240,0,3,,,,,,,,,2,,,60,0
10560,note_on,0,0,3,,,,,,,,,2,,,63,49
10680,note_on,120,0,1,,,,,,,,,0,,,79,0
10680,note_on,0,0,1,,,,,,,,,0,,,80,62
10800,note_on,240,0,3,,,,,,,,,2,,,63,0
10800,note_on,0,0,1,,,,,,,,,0,,,84,62
10800,note_on,120,0,1,,,,,,,,,0,,,80,0
10920,note_on,120,0,1,,,,,,,,,0,,,84,0
10920,note_on,0,0,1,,,,,,,,,0,,,87,62
11040,note_on,120,0,1,,,,,,,,,0,,,87,0
11040,note_on,240,0,3,,,,,,,,,2,,,44,49
11040,note_on,0,0,1,,,,,,,,,0,,,92,62
11280,note_on,0,0,3,,,,,,,,,2,,,51,49
11280,note_on,240,0,3,,,,,,,,,2,,,44,0
11280,note_on,240,0,1,,,,,,,,,0,,,92,0
11520,note_on,0,0,3,,,,,,,,,2,,,56,49
11520,note_on,240,0,3,,,,,,,,,2,,,51,0
11760,note_on,0,0,3,,,,,,,,,2,,,60,49
11760,note_on,240,0,3,,,,,,,,,2,,,56,0
11760,control_change,480,0,1,,,,,,,,,0,64,127,,
11760,note_on,0,0,1,,,,,,,,,0,,,75,62
11807,note_on,0,0,1,,,,,,,,,0,,,77,62
11807,note_on,47,0,1,,,,,,,,,0,,,75,0
11856,note_on,0,0,1,,,,,,,,,0,,,75,62
11856,note_on,49,0,1,,,,,,,,,0,,,77,0
11903,note_on,0,0,1,,,,,,,,,0,,,74,62
11903,note_on,47,0,1,,,,,,,,,0,,,75,0
11952,note_on,49,0,1,,,,,,,,,0,,,74,0
11952,note_on,0,0,1,,,,,,,,,0,,,75,62
12000,note_on,0,0,3,,,,,,,,,2,,,63,49
12000,note_on,48,0,1,,,,,,,,,0,,,75,0
12000,note_on,0,0,1,,,,,,,,,0,,,84,62
12000,note_on,240,0,3,,,,,,,,,2,,,60,0
12240,note_on,240,0,1,,,,,,,,,0,,,84,0
12240,control_change,0,0,1,,,,,,,,,0,64,0,,
12240,control_change,0,0,3,,,,,,,,,2,64,0,,
12240,note_on,240,0,3,,,,,,,,,2,,,63,0
12240,note_on,0,0,1,,,,,,,,,0,,,79,62
12480,note_on,0,0,1,,,,,,,,,0,,,82,62
12480,control_change,240,0,3,,,,,,,,,2,64,127,,
12480,note_on,240,0,1,,,,,,,,,0,,,79,0
12480,note_on,0,0,3,,,,,,,,,2,,,44,49
12480,control_change,0,0,1,,,,,,,,,0,64,127,,
12720,note_on,0,0,3,,,,,,,,,2,,,51,49
12720,note_on,240,0,3,,,,,,,,,2,,,44,0
12960,note_on,240,0,3,,,,,,,,,2,,,51,0
12960,note_on,0,0,3,,,,,,,,,2,,,56,49
13200,note_on,0,0,3,,,,,,,,,2,,,60,49
13200,note_on,0,0,1,,,,,,,,,0,,,80,62
13200,note_on,720,0,1,,,,,,,,,0,,,82,0
13200,note_on,240,0,3,,,,,,,,,2,,,56,0
13440,note_on,0,0,1,,,,,,,,,0,,,72,62
13440,note_on,240,0,1,,,,,,,,,0,,,80,0
13440,note_on,0,0,3,,,,,,,,,2,,,63,49
13440,note_on,240,0,3,,,,,,,,,2,,,60,0
13680,note_on,0,0,1,,,,,,,,,0,,,73,62
13680,note_on,240,0,3,,,,,,,,,2,,,63,0
13680,note_on,240,0,1,,,,,,,,,0,,,72,0
13920,note_on,0,0,1,,,,,,,,,0,,,77,62
13920,note_on,240,0,1,,,,,,,,,0,,,73,0
13920,note_on,240,0,3,,,,,,,,,2,,,44,49
14160,note_on,240,0,3,,,,,,,,,2,,,44,0
14160,note_on,0,0,3,,,,,,,,,2,,,51,49
14400,note_on,240,0,3,,,,,,,,,2,,,51,0
14400,note_on,0,0,3,,,,,,,,,2,,,56,49
14640,note_on,720,0,1,,,,,,,,,0,,,77,0
14640,note_on,240,0,3,,,,,,,,,2,,,56,0
14640,note_on,0,0,1,,,,,,,,,0,,,75,62
14640,note_on,0,0,3,,,,,,,,,2,,,60,49
14880,note_on,240,0,3,,,,,,,,,2,,,60,0
14880,note_on,240,0,1,,,,,,,,,0,,,75,0
14880,note_on,0,0,3,,,,,,,,,2,,,63,49
14880,note_on,0,0,1,,,,,,,,,0,,,73,62
15120,control_change,0,0,3,,,,,,,,,2,64,0,,
15120,note_on,240,0,3,,,,,,,,,2,,,63,0
15120,note_on,0,0,1,,,,,,,,,0,,,72,62
15120,note_on,240,0,1,,,,,,,,,0,,,73,0
15120,control_change,0,0,1,,,,,,,,,0,64,0,,
15360,note_on,0,0,3,,,,,,,,,2,,,50,49
15360,control_change,240,0,3,,,,,,,,,2,64,127,,
15360,note_on,240,0,1,,,,,,,,,0,,,72,0
15360,note_on,0,0,1,,,,,,,,,0,,,72,62
15360,control_change,0,0,1,,,,,,,,,0,64,127,,
15600,note_on,0,0,3,,,,,,,,,2,,,58,49
15600,note_on,240,0,3,,,,,,,,,2,,,50,0
15840,note_on,0,0,3,,,,,,,,,2,,,62,49
15840,note_on,240,0,3,,,,,,,,,2,,,58,0
16080,note_on,0,0,3,,,,,,,,,2,,,65,49
16080,note_on,0,0,1,,,,,,,,,0,,,70,62
16080,note_on,240,0,3,,,,,,,,,2,,,62,0
16080,note_on,720,0,1,,,,,,,,,0,,,72,0
16320,note_on,0,0,1,,,,,,,,,0,,,69,62
16320,note_on,0,0,3,,,,,,,,,2,,,68,49
16320,note_on,240,0,3,,,,,,,,,2,,,65,0
16320,note_on,240,0,1,,,,,,,,,0,,,70,0
16560,note_on,240,0,1,,,,,,,,,0,,,69,0
16560,note_on,240,0,3,,,,,,,,,2,,,68,0
16560,note_on,0,0,1,,,,,,,,,0,,,70,62
16800,note_on,240,0,1,,,,,,,,,0,,,70,0
16800,control_change,240,0,3,,,,,,,,,2,64,127,,
16800,note_on,0,0,1,,,,,,,,,0,,,69,62
16800,note_on,0,0,3,,,,,,,,,2,,,50,49
16880,note_on,80,0,1,,,,,,,,,0,,,69,0
16880,note_on,0,0,1,,,,,,,,,0,,,70,62
16959,note_on,79,0,1,,,,,,,,,0,,,70,0
16959,note_on,0,0,1,,,,,,,,,0,,,72,62
17040,note_on,0,0,3,,,,,,,,,2,,,58,49
17040,note_on,0,0,1,,,,,,,,,0,,,70,62
17040,note_on,81,0,1,,,,,,,,,0,,,72,0
17040,note_on,240,0,3,,,,,,,,,2,,,50,0
17120,note_on,0,0,1,,,,,,,,,0,,,72,62
17120,note_on,80,0,1,,,,,,,,,0,,,70,0
17199,note_on,79,0,1,,,,,,,,,0,,,72,0
17199,note_on,0,0,1,,,,,,,,,0,,,70,62
17280,note_on,0,0,1,,,,,,,,,0,,,72,62
17280,note_on,240,0,3,,,,,,,,,2,,,58,0
17280,note_on,0,0,3,,,,,,,,,2,,,62,49
17280,note_on,81,0,1,,,,,,,,,0,,,70,0
17360,note_on,80,0,1,,,,,,,,,0,,,72,0
17360,note_on,0,0,1,,,,,,,,,0,,,70,62
17439,note_on,79,0,1,,,,,,,,,0,,,70,0
17439,note_on,0,0,1,,,,,,,,,0,,,72,62
17520,note_on,0,0,1,,,,,,,,,0,,,69,62
17520,note_on,0,0,3,,,,,,,,,2,,,65,49
17520,note_on,81,0,1,,,,,,,,,0,,,72,0
17520,note_on,240,0,3,,,,,,,,,2,,,62,0
17585,note_on,0,0,1,,,,,,,,,0,,,70,62
17585,note_on,65,0,1,,,,,,,,,0,,,69,0
17650,note_on,0,0,1,,,,,,,,,0,,,72,62
17650,note_on,65,0,1,,,,,,,,,0,,,70,0
17716,note_on,66,0,1,,,,,,,,,0,,,72,0
17716,note_on,0,0,1,,,,,,,,,0,,,74,62
17760,note_on,0,0,3,,,,,,,,,2,,,68,49
17760,note_on,240,0,3,,,,,,,,,2,,,65,0
17782,note_on,0,0,1,,,,,,,,,0,,,75,62
17782,note_on,66,0,1,,,,,,,,,0,,,74,0
17847,note_on,0,0,1,,,,,,,,,0,,,77,62
17847,note_on,65,0,1,,,,,,,,,0,,,75,0
17912,note_on,0,0,1,,,,,,,,,0,,,79,62
17912,note_on,65,0,1,,,,,,,,,0,,,77,0
17977,note_on,65,0,1,,,,,,,,,0,,,79,0
17977,note_on,0,0,1,,,,,,,,,0,,,80,62
18000,note_on,240,0,3,,,,,,,,,2,,,68,0
18000,control_change,0,0,3,,,,,,,,,2,64,0,,
18043,note_on,66,0,1,,,,,,,,,0,,,80,0
18043,note_on,0,0,1,,,,,,,,,0,,,82,62
18109,note_on,66,0,1,,,,,,,,,0,,,82,0
18109,note_on,0,0,1,,,,,,,,,0,,,84,62
18174,note_on,65,0,1,,,,,,,,,0,,,84,0
18174,note_on,0,0,1,,,,,,,,,0,,,86,62
18174,control_change,0,0,1,,,,,,,,,0,64,0,,
18240,note_on,66,0,1,,,,,,,,,0,,,86,0
18240,note_on,0,0,1,,,,,,,,,0,,,89,62
18240,note_on,240,0,3,,,,,,,,,2,,,51,49
18480,note_on,0,0,3,,,,,,,,,2,,,56,49
18480,note_on,240,0,3,,,,,,,,,2,,,51,0
18720,note_on,0,0,3,,,,,,,,,2,,,60,49
18720,note_on,240,0,3,,,,,,,,,2,,,56,0
18960,note_on,0,0,1,,,,,,,,,0,,,87,62
18960,note_on,720,0,1,,,,,,,,,0,,,89,0
18960,note_on,0,0,3,,,,,,,,,2,,,63,49
18960,note_on,240,0,3,,,,,,,,,2,,,60,0
19200,note_on,240,0,1,,,,,,,,,0,,,87,0
19200,note_on,0,0,1,,,,,,,,,0,,,84,62
19200,note_on,240,0,3,,,,,,,,,2,,,63,0
19200,note_on,0,0,3,,,,,,,,,2,,,68,49
19440,note_on,240,0,3,,,,,,,,,2,,,68,0
19440,note_on,0,0,1,,,,,,,,,0,,,80,62
19440,note_on,240,0,1,,,,,,,,,0,,,84,0
19680,note_on,240,0,3,,,,,,,,,2,,,51,49
19680,note_on,240,0,1,,,,,,,,,0,,,80,0
19680,note_on,0,0,1,,,,,,,,,0,,,77,62
19920,note_on,0,0,3,,,,,,,,,2,,,58,49
19920,note_on,240,0,3,,,,,,,,,2,,,51,0
20160,note_on,240,0,3,,,,,,,,,2,,,58,0
20160,note_on,0,0,3,,,,,,,,,2,,,61,49
20400,note_on,240,0,3,,,,,,,,,2,,,61,0
20400,note_on,0,0,3,,,,,,,,,2,,,63,49
20400,note_on,720,0,1,,,,,,,,,0,,,77,0
20400,note_on,0,0,1,,,,,,,,,0,,,75,62
20640,note_on,240,0,1,,,,,,,,,0,,,75,0
20640,note_on,0,0,1,,,,,,,,,0,,,73,62
20640,note_on,0,0,3,,,,,,,,,2,,,67,49
20640,note_on,240,0,3,,,,,,,,,2,,,63,0
20880,note_on,240,0,3,,,,,,,,,2,,,67,0
20880,note_on,0,0,1,,,,,,,,,0,,,70,62
20880,note_on,240,0,1,,,,,,,,,0,,,73,0
21120,note_on,0,0,1,,,,,,,,,0,,,67,62
21120,note_on,0,0,3,,,,,,,,,2,,,44,49
21120,control_change,0,0,1,,,,,,,,,0,64,127,,
21120,note_on,240,0,1,,,,,,,,,0,,,70,0
21120,control_change,240,0,3,,,,,,,,,2,64,127,,
21360,note_on,240,0,1,,,,,,,,,0,,,67,0
21360,note_on,0,0,3,,,,,,,,,2,,,51,49
21360,note_on,0,0,1,,,,,,,,,0,,,68,62
21360,note_on,240,0,3,,,,,,,,,2,,,44,0
21600,note_on,0,0,3,,,,,,,,,2,,,56,49
21600,note_on,0,0,1,,,,,,,,,0,,,72,62
21600,note_on,240,0,3,,,,,,,,,2,,,51,0
21600,note_on,240,0,1,,,,,,,,,0,,,68,0
21840,note_on,240,0,1,,,,,,,,,0,,,72,0
21840,note_on,0,0,1,,,,,,,,,0,,,75,62
21840,note_on,240,0,3,,,,,,,,,2,,,56,0
21840,note_on,0,0,3,,,,,,,,,2,,,60,49
22080,note_on,240,0,1,,,,,,,,,0,,,75,0
22080,note_on,0,0,3,,,,,,,,,2,,,63,49
22080,note_on,240,0,3,,,,,,,,,2,,,60,0
22080,note_on,0,0,1,,,,,,,,,0,,,79,62
22200,note_on,120,0,1,,,,,,,,,0,,,79,0
22200,note_on,0,0,1,,,,,,,,,0,,,80,62
22320,note_on,120,0,1,,,,,,,,,0,,,80,0
22320,note_on,0,0,1,,,,,,,,,0,,,84,62
22320,note_on,240,0,3,,,,,,,,,2,,,63,0
22440,note_on,0,0,1,,,,,,,,,0,,,87,62
22440,note_on,120,0,1,,,,,,,,,0,,,84,0
22560,note_on,0,0,1,,,,,,,,,0,,,92,62
22560,note_on,120,0,1,,,,,,,,,0,,,87,0
22560,note_on,240,0,3,,,,,,,,,2,,,44,49
22800,note_on,240,0,3,,,,,,,,,2,,,44,0
22800,note_on,0,0,3,,,,,,,,,2,,,51,49
22800,note_on,240,0,1,,,,,,,,,0,,,92,0
23040,control_change,240,0,1,,,,,,,,,0,64,0,,
23040,note_on,0,0,3,,,,,,,,,2,,,56,49
23040,note_on,240,0,3,,,,,,,,,2,,,51,0
23280,note_on,240,0,3,,,,,,,,,2,,,56,0
23280,control_change,0,0,3,,,,,,,,,2,64,0,,
23280,note_on,240,0,1,,,,,,,,,0,,,72,62
23280,note_on,0,0,3,,,,,,,,,2,,,60,49
23460,note_on,180,0,1,,,,,,,,,0,,,75,62
23520,note_on,0,0,1,,,,,,,,,0,,,72,0
23520,note_on,0,0,1,,,,,,,,,0,,,73,62
23520,note_on,60,0,1,,,,,,,,,0,,,75,0
23520,note_on,0,0,3,,,,,,,,,2,,,63,49
23520,note_on,240,0,3,,,,,,,,,2,,,60,0
23760,note_on,240,0,3,,,,,,,,,2,,,63,0
23760,note_on,240,0,1,,,,,,,,,0,,,73,0
23760,note_on,0,0,1,,,,,,,,,0,,,72,62
24000,note_on,0,0,1,,,,,,,,,0,,,72,62
24000,control_change,0,0,1,,,,,,,,,0,64,127,,
24000,control_change,240,0,3,,,,,,,,,2,64,127,,
24000,note_on,0,0,1,,,,,,,,,0,,,84,62
24000,note_on,240,0,1,,,,,,,,,0,,,72,0
24000,note_on,0,0,3,,,,,,,,,2,,,40,49
24240,note_on,0,0,3,,,,,,,,,2,,,60,49
24240,note_on,240,0,3,,,,,,,,,2,,,40,0
24480,note_on,240,0,3,,,,,,,,,2,,,60,0
24480,note_on,0,0,3,,,,,,,,,2,,,52,49
24480,note_on,0,0,3,,,,,,,,,2,,,58,49
24720,note_on,240,0,3,,,,,,,,,2,,,58,0
24720,note_on,0,0,3,,,,,,,,,2,,,52,0
24720,note_on,0,0,3,,,,,,,,,2,,,60,49
24960,note_on,0,0,1,,,,,,,,,0,,,72,0
24960,note_on,240,0,3,,,,,,,,,2,,,60,0
24960,note_on,0,0,1,,,,,,,,,0,,,67,62
24960,note_on,960,0,1,,,,,,,,,0,,,84,0
24960,note_on,0,0,1,,,,,,,,,0,,,79,62
24960,note_on,0,0,3,,,,,,,,,2,,,48,49
25200,note_on,0,0,3,,,,,,,,,2,,,60,49
25200,note_on,240,0,3,,,,,,,,,2,,,48,0
25440,note_on,0,0,1,,,,,,,,,0,,,67,0
25440,note_on,0,0,1,,,,,,,,,0,,,79,62
25440,note_on,0,0,3,,,,,,,,,2,,,36,49
25440,note_on,240,0,3,,,,,,,,,2,,,60,0
25440,note_on,480,0,1,,,,,,,,,0,,,79,0
25440,note_on,0,0,1,,,,,,,,,0,,,67,62
25680,note_on,0,0,3,,,,,,,,,2,,,60,49
25680,note_on,240,0,3,,,,,,,,,2,,,36,0
25860,note_on,420,0,1,,,,,,,,,0,,,82,62
25920,note_on,0,0,1,,,,,,,,,0,,,67,0
25920,note_on,0,0,1,,,,,,,,,0,,,79,0
25920,note_on,0,0,1,,,,,,,,,0,,,68,62
25920,note_on,60,0,1,,,,,,,,,0,,,82,0
25920,note_on,240,0,3,,,,,,,,,2,,,60,0
25920,note_on,0,0,3,,,,,,,,,2,,,52,49
25920,note_on,0,0,3,,,,,,,,,2,,,58,49
25920,note_on,0,0,1,,,,,,,,,0,,,80,62
26160,note_on,240,0,3,,,,,,,,,2,,,58,0
26160,note_on,0,0,3,,,,,,,,,2,,,52,0
26160,note_on,0,0,3,,,,,,,,,2,,,60,49
26400,note_on,0,0,1,,,,,,,,,0,,,67,62
26400,note_on,0,0,1,,,,,,,,,0,,,68,0
26400,note_on,0,0,1,,,,,,,,,0,,,79,62
26400,note_on,240,0,3,,,,,,,,,2,,,60,0
26400,note_on,0,0,3,,,,,,,,,2,,,48,49
26400,note_on,480,0,1,,,,,,,,,0,,,80,0
26640,note_on,0,0,3,,,,,,,,,2,,,60,49
26640,control_change,0,0,3,,,,,,,,,2,64,0,,
26640,note_on,240,0,3,,,,,,,,,2,,,48,0
26880,note_on,0,0,1,,,,,,,,,0,,,79,62
26880,note_on,0,0,3,,,,,,,,,2,,,41,49
26880,control_change,0,0,3,,,,,,,,,2,64,127,,
26880,note_on,0,0,1,,,,,,,,,0,,,67,62
26880,note_on,0,0,1,,,,,,,,,0,,,67,0
26880,note_on,240,0,3,,,,,,,,,2,,,60,0
26880,note_on,480,0,1,,,,,,,,,0,,,79,0
26880,control_change,0,0,1,,,,,,,,,0,64,0,,
27120,note_on,0,0,3,,,,,,,,,2,,,60,49
27120,note_on,240,0,3,,,,,,,,,2,,,41,0
27360,note_on,0,0,3,,,,,,,,,2,,,56,49
27360,note_on,240,0,3,,,,,,,,,2,,,60,0
27360,note_on,0,0,3,,,,,,,,,2,,,53,49
27600,note_on,0,0,3,,,,,,,,,2,,,53,0
27600,note_on,0,0,3,,,,,,,,,2,,,60,49
27600,note_on,0,0,1,,,,,,,,,0,,,67,0
27600,note_on,720,0,1,,,,,,,,,0,,,79,0
27600,note_on,0,0,1,,,,,,,,,0,,,68,62
27600,note_on,0,0,1,,,,,,,,,0,,,80,62
27600,note_on,240,0,3,,,,,,,,,2,,,56,0
27840,note_on,0,0,3,,,,,,,,,2,,,48,49
27840,note_on,240,0,3,,,,,,,,,2,,,60,0
27840,note_on,240,0,1,,,,,,,,,0,,,80,0
27840,note_on,0,0,1,,,,,,,,,0,,,68,0
27840,note_on,0,0,1,,,,,,,,,0,,,76,62
28080,note_on,240,0,3,,,,,,,,,2,,,48,0
28080,note_on,240,0,1,,,,,,,,,0,,,76,0
28080,note_on,0,0,3,,,,,,,,,2,,,60,49
28080,note_on,0,0,1,,,,,,,,,0,,,77,62
28320,note_on,0,0,3,,,,,,,,,2,,,41,49
28320,note_on,240,0,1,,,,,,,,,0,,,77,0
28320,note_on,240,0,3,,,,,,,,,2,,,60,0
28320,note_on,0,0,1,,,,,,,,,0,,,77,62
28560,note_on,0,0,3,,,,,,,,,2,,,60,49
28560,note_on,240,0,3,,,,,,,,,2,,,41,0
28560,note_on,240,0,1,,,,,,,,,0,,,77,0
28560,note_on,0,0,1,,,,,,,,,0,,,67,62
28560,note_on,0,0,1,,,,,,,,,0,,,79,62
28800,note_on,0,0,1,,,,,,,,,0,,,67,0
28800,note_on,0,0,3,,,,,,,,,2,,,56,49
28800,note_on,0,0,3,,,,,,,,,2,,,53,49
28800,note_on,0,0,1,,,,,,,,,0,,,68,62
28800,note_on,240,0,3,,,,,,,,,2,,,60,0
28800,note_on,240,0,1,,,,,,,,,0,,,79,0
28800,note_on,0,0,1,,,,,,,,,0,,,80,62
28847,note_on,0,0,1,,,,,,,,,0,,,68,0
28847,note_on,47,0,1,,,,,,,,,0,,,80,0
29040,note_on,0,0,3,,,,,,,,,2,,,60,49
29040,note_on,240,0,3,,,,,,,,,2,,,56,0
29040,note_on,0,0,3,,,,,,,,,2,,,53,0
29040,note_on,0,0,1,,,,,,,,,0,,,81,62
29040,note_on,193,0,1,,,,,,,,,0,,,69,62
29087,note_on,47,0,1,,,,,,,,,0,,,81,0
29087,note_on,0,0,1,,,,,,,,,0,,,69,0
29280,note_on,240,0,3,,,,,,,,,2,,,60,0
29280,note_on,0,0,1,,,,,,,,,0,,,82,62
29280,note_on,0,0,3,,,,,,,,,2,,,48,49
29280,note_on,193,0,1,,,,,,,,,0,,,70,62
29327,note_on,0,0,1,,,,,,,,,0,,,70,0
29327,note_on,47,0,1,,,,,,,,,0,,,82,0
29520,note_on,193,0,1,,,,,,,,,0,,,71,62
29520,note_on,0,0,1,,,,,,,,,0,,,83,62
29520,note_on,240,0,3,,,,,,,,,2,,,48,0
29520,note_on,0,0,3,,,,,,,,,2,,,60,49
29520,control_change,0,0,3,,,,,,,,,2,64,0,,
29567,note_on,47,0,1,,,,,,,,,0,,,83,0
29567,note_on,0,0,1,,,,,,,,,0,,,71,0
29760,note_on,0,0,1,,,,,,,,,0,,,84,62
29760,note_on,0,0,1,,,,,,,,,0,,,72,62
29760,control_change,193,0,1,,,,,,,,,0,64,127,,
29760,note_on,240,0,3,,,,,,,,,2,,,60,0
29760,control_change,0,0,3,,,,,,,,,2,64,127,,
29760,note_on,0,0,3,,,,,,,,,2,,,40,49
29807,note_on,0,0,1,,,,,,,,,0,,,72,0
29807,note_on,47,0,1,,,,,,,,,0,,,84,0
30000,note_on,240,0,3,,,,,,,,,2,,,40,0
30000,note_on,0,0,3,,,,,,,,,2,,,60,49
30240,note_on,0,0,3,,,,,,,,,2,,,52,49
30240,note_on,0,0,1,,,,,,,,,0,,,85,62
30240,note_on,0,0,3,,,,,,,,,2,,,58,49
30240,note_on,240,0,3,,,,,,,,,2,,,60,0
30240,note_on,433,0,1,,,,,,,,,0,,,73,62
30480,note_on,240,0,3,,,,,,,,,2,,,58,0
30480,note_on,0,0,3,,,,,,,,,2,,,60,49
30480,note_on,0,0,3,,,,,,,,,2,,,52,0
30720,note_on,0,0,3,,,,,,,,,2,,,48,49
30720,note_on,240,0,3,,,,,,,,,2,,,60,0
30960,note_on,720,0,1,,,,,,,,,0,,,85,0
30960,note_on,240,0,3,,,,,,,,,2,,,48,0
30960,note_on,0,0,3,,,,,,,,,2,,,60,49
30960,control_change,0,0,1,,,,,,,,,0,64,0,,
30960,note_on,0,0,1,,,,,,,,,0,,,84,62
30960,note_on,0,0,1,,,,,,,,,0,,,73,0
30960,note_on,0,0,1,,,,,,,,,0,,,72,62
31200,note_on,240,0,3,,,,,,,,,2,,,60,0
31200,note_on,0,0,1,,,,,,,,,0,,,79,62
31200,note_on,0,0,1,,,,,,,,,0,,,72,0
31200,note_on,240,0,1,,,,,,,,,0,,,84,0
31200,note_on,0,0,1,,,,,,,,,0,,,67,62
31200,note_on,0,0,3,,,,,,,,,2,,,36,49
31440,note_on,240,0,3,,,,,,,,,2,,,36,0
31440,note_on,0,0,3,,,,,,,,,2,,,60,49
31620,note_on,420,0,1,,,,,,,,,0,,,82,62
31680,note_on,0,0,1,,,,,,,,,0,,,68,62
31680,note_on,0,0,3,,,,,,,,,2,,,58,49
31680,note_on,0,0,3,,,,,,,,,2,,,52,49
31680,note_on,0,0,1,,,,,,,,,0,,,79,0
31680,note_on,0,0,1,,,,,,,,,0,,,80,62
31680,note_on,0,0,1,,,,,,,,,0,,,67,0
31680,note_on,60,0,1,,,,,,,,,0,,,82,0
31680,note_on,240,0,3,,,,,,,,,2,,,60,0
31920,note_on,0,0,3,,,,,,,,,2,,,60,49
31920,note_on,0,0,3,,,,,,,,,2,,,52,0
31920,note_on,240,0,3,,,,,,,,,2,,,58,0
32160,note_on,0,0,1,,,,,,,,,0,,,79,62
32160,note_on,0,0,3,,,,,,,,,2,,,48,49
32160,note_on,480,0,1,,,,,,,,,0,,,80,0
32160,note_on,240,0,3,,,,,,,,,2,,,60,0
32160,note_on,0,0,1,,,,,,,,,0,,,67,62
32160,note_on,0,0,1,,,,,,,,,0,,,68,0
32400,note_on,0,0,3,,,,,,,,,2,,,60,49
32400,control_change,0,0,3,,,,,,,,,2,64,0,,
32400,note_on,240,0,3,,,,,,,,,2,,,48,0
32640,control_change,0,0,3,,,,,,,,,2,64,127,,
32640,note_on,0,0,1,,,,,,,,,0,,,67,0
32640,note_on,0,0,1,,,,,,,,,0,,,67,62
32640,note_on,480,0,1,,,,,,,,,0,,,79,0
32640,note_on,0,0,1,,,,,,,,,0,,,79,62
32640,note_on,0,0,3,,,,,,,,,2,,,41,49
32640,note_on,240,0,3,,,,,,,,,2,,,60,0
32880,note_on,0,0,3,,,,,,,,,2,,,60,49
32880,note_on,240,0,3,,,,,,,,,2,,,41,0
33120,note_on,240,0,3,,,,,,,,,2,,,60,0
33120,note_on,0,0,3,,,,,,,,,2,,,53,49
33120,note_on,0,0,3,,,,,,,,,2,,,56,49
33360,note_on,0,0,1,,,,,,,,,0,,,67,0
33360,note_on,0,0,1,,,,,,,,,0,,,68,62
33360,note_on,0,0,1,,,,,,,,,0,,,80,62
33360,note_on,720,0,1,,,,,,,,,0,,,79,0
33360,note_on,0,0,3,,,,,,,,,2,,,60,49
33360,note_on,0,0,3,,,,,,,,,2,,,53,0
33360,note_on,240,0,3,,,,,,,,,2,,,56,0
33600,note_on,240,0,1,,,,,,,,,0,,,80,0
33600,note_on,0,0,1,,,,,,,,,0,,,76,62
33600,note_on,0,0,1,,,,,,,,,0,,,68,0
33600,note_on,240,0,3,,,,,,,,,2,,,60,0
33600,note_on,0,0,3,,,,,,,,,2,,,48,49
33840,note_on,240,0,1,,,,,,,,,0,,,76,0
33840,note_on,0,0,3,,,,,,,,,2,,,60,49
33840,note_on,0,0,1,,,,,,,,,0,,,77,62
33840,note_on,240,0,3,,,,,,,,,2,,,48,0
34080,note_on,240,0,3,,,,,,,,,2,,,60,0
34080,note_on,0,0,1,,,,,,,,,0,,,77,62
34080,note_on,0,0,3,,,,,,,,,2,,,41,49
34080,note_on,240,0,1,,,,,,,,,0,,,77,0
34320,note_on,0,0,3,,,,,,,,,2,,,60,49
34320,note_on,240,0,3,,,,,,,,,2,,,41,0
34560,note_on,0,0,3,,,,,,,,,2,,,53,49
34560,note_on,0,0,3,,,,,,,,,2,,,56,49
34560,note_on,240,0,3,,,,,,,,,2,,,60,0
34800,note_on,240,0,3,,,,,,,,,2,,,56,0
34800,note_on,0,0,1,,,,,,,,,0,,,79,62
34800,note_on,0,0,1,,,,,,,,,0,,,67,62
34800,note_on,0,0,3,,,,,,,,,2,,,53,0
34800,note_on,720,0,1,,,,,,,,,0,,,77,0
34800,note_on,0,0,3,,,,,,,,,2,,,60,49
35040,note_on,240,0,3,,,,,,,,,2,,,60,0
35040,note_on,240,0,1,,,,,,,,,0,,,79,0
35040,note_on,0,0,3,,,,,,,,,2,,,48,49
35040,note_on,0,0,1,,,,,,,,,0,,,67,0
35040,note_on,0,0,1,,,,,,,,,0,,,68,62
35040,note_on,0,0,1,,,,,,,,,0,,,80,62
35280,note_on,0,0,1,,,,,,,,,0,,,68,0
35280,note_on,0,0,1,,,,,,,,,0,,,69,62
35280,note_on,0,0,1,,,,,,,,,0,,,81,62
35280,note_on,240,0,3,,,,,,,,,2,,,48,0
35280,note_on,0,0,3,,,,,,,,,2,,,60,49
35280,control_change,0,0,3,,,,,,,,,2,64,0,,
35280,note_on,240,0,1,,,,,,,,,0,,,80,0
35520,note_on,240,0,3,,,,,,,,,2,,,60,0
35520,note_on,0,0,1,,,,,,,,,0,,,69,0
35520,control_change,0,0,3,,,,,,,,,2,64,127,,
35520,note_on,240,0,1,,,,,,,,,0,,,81,0
35520,note_on,0,0,1,,,,,,,,,0,,,70,62
35520,note_on,0,0,3,,,,,,,,,2,,,50,49
35520,note_on,0,0,1,,,,,,,,,0,,,82,62
35760,note_on,240,0,3,,,,,,,,,2,,,50,0
35760,note_on,0,0,3,,,,,,,,,2,,,58,49
36000,note_on,0,0,1,,,,,,,,,0,,,70,0
36000,note_on,480,0,1,,,,,,,,,0,,,82,0
36000,note_on,240,0,3,,,,,,,,,2,,,58,0
36000,note_on,0,0,3,,,,,,,,,2,,,65,49
36240,note_on,240,0,3,,,,,,,,,2,,,65,0
36240,note_on,240,0,1,,,,,,,,,0,,,70,62
36240,note_on,0,0,3,,,,,,,,,2,,,68,49
36420,note_on,180,0,1,,,,,,,,,0,,,74,62
36480,note_on,0,0,1,,,,,,,,,0,,,72,62
36480,note_on,60,0,1,,,,,,,,,0,,,74,0
36480,note_on,0,0,1,,,,,,,,,0,,,70,0
36480,control_change,0,0,3,,,,,,,,,2,64,0,,
36480,note_on,240,0,3,,,,,,,,,2,,,68,0
36720,note_on,0,0,1,,,,,,,,,0,,,70,62
36720,note_on,240,0,1,,,,,,,,,0,,,72,0
36960,note_on,0,0,1,,,,,,,,,0,,,82,62
36960,note_on,0,0,3,,,,,,,,,2,,,51,49
36960,note_on,240,0,1,,,,,,,,,0,,,70,0
36960,control_change,480,0,3,,,,,,,,,2,64,127,,
37200,note_on,0,0,3,,,,,,,,,2,,,58,49
37200,note_on,240,0,3,,,,,,,,,2,,,51,0
37440,note_on,240,0,3,,,,,,,,,2,,,58,0
37440,note_on,0,0,3,,,,,,,,,2,,,63,49
37440,note_on,480,0,1,,,,,,,,,0,,,82,0
37680,note_on,240,0,1,,,,,,,,,0,,,82,62
37680,note_on,0,0,3,,,,,,,,,2,,,67,49
37680,note_on,240,0,3,,,,,,,,,2,,,63,0
37860,note_on,180,0,1,,,,,,,,,0,,,86,62
37920,control_change,0,0,3,,,,,,,,,2,64,0,,
37920,note_on,0,0,1,,,,,,,,,0,,,84,62
37920,note_on,0,0,1,,,,,,,,,0,,,82,0
37920,note_on,60,0,1,,,,,,,,,0,,,86,0
37920,note_on,240,0,3,,,,,,,,,2,,,67,0
38160,note_on,0,0,1,,,,,,,,,0,,,82,62
38160,note_on,240,0,1,,,,,,,,,0,,,84,0
38400,note_on,0,0,1,,,,,,,,,0,,,94,62
38400,note_on,0,0,3,,,,,,,,,2,,,50,49
38400,control_change,480,0,3,,,,,,,,,2,64,127,,
38400,note_on,240,0,1,,,,,,,,,0,,,82,0
38640,note_on,0,0,3,,,,,,,,,2,,,58,49
38640,note_on,240,0,3,,,,,,,,,2,,,50,0
38880,note_on,240,0,3,,,,,,,,,2,,,58,0
38880,note_on,0,0,3,,,,,,,,,2,,,65,49
38880,note_on,480,0,1,,,,,,,,,0,,,94,0
39120,note_on,0,0,3,,,,,,,,,2,,,68,49
39120,note_on,0,0,1,,,,,,,,,0,,,70,62
39120,note_on,240,0,3,,,,,,,,,2,,,65,0
39120,control_change,240,0,1,,,,,,,,,0,64,127,,
39300,note_on,180,0,1,,,,,,,,,0,,,74,62
39360,note_on,240,0,3,,,,,,,,,2,,,68,0
39360,note_on,0,0,1,,,,,,,,,0,,,72,62
39360,note_on,0,0,1,,,,,,,,,0,,,70,0
39360,note_on,60,0,1,,,,,,,,,0,,,74,0
39600,note_on,0,0,1,,,,,,,,,0,,,70,62
39600,note_on,240,0,1,,,,,,,,,0,,,72,0
39840,note_on,0,0,1,,,,,,,,,0,,,82,62
39840,note_on,240,0,1,,,,,,,,,0,,,70,0
39840,control_change,0,0,1,,,,,,,,,0,64,0,,
39840,note_on,480,0,3,,,,,,,,,2,,,51,49
40080,note_on,0,0,3,,,,,,,,,2,,,58,49
40080,note_on,240,0,3,,,,,,,,,2,,,51,0
40320,note_on,480,0,1,,,,,,,,,0,,,82,0
40320,note_on,0,0,3,,,,,,,,,2,,,63,49
40320,note_on,240,0,3,,,,,,,,,2,,,58,0
40560,note_on,0,0,3,,,,,,,,,2,,,67,49
40560,note_on,240,0,3,,,,,,,,,2,,,63,0
40560,note_on,240,0,1,,,,,,,,,0,,,75,62
40740,note_on,180,0,1,,,,,,,,,0,,,79,62
40800,note_on,0,0,1,,,,,,,,,0,,,75,0
40800,note_on,60,0,1,,,,,,,,,0,,,79,0
40800,note_on,240,0,3,,,,,,,,,2,,,67,0
40800,control_change,0,0,3,,,,,,,,,2,64,0,,
40800,note_on,0,0,1,,,,,,,,,0,,,77,62
41040,note_on,240,0,1,,,,,,,,,0,,,77,0
41040,note_on,0,0,1,,,,,,,,,0,,,75,62
41280,control_change,480,0,3,,,,,,,,,2,64,127,,
41280,note_on,0,0,3,,,,,,,,,2,,,45,75
41280,note_on,240,0,1,,,,,,,,,0,,,75,0
41280,control_change,0,0,1,,,,,,,,,0,64,127,,
41280,note_on,0,0,1,,,,,,,,,0,,,99,88
41520,note_on,0,0,3,,,,,,,,,2,,,57,75
41520,note_on,240,0,3,,,,,,,,,2,,,45,0
41760,note_on,0,0,3,,,,,,,,,2,,,60,75
41760,note_on,240,0,3,,,,,,,,,2,,,57,0
41880,note_on,600,0,1,,,,,,,,,0,,,99,0
41880,note_on,0,0,1,,,,,,,,,0,,,96,88
42000,note_on,240,0,3,,,,,,,,,2,,,60,0
42000,note_on,0,0,1,,,,,,,,,0,,,93,88
42000,note_on,0,0,3,,,,,,,,,2,,,66,75
42000,note_on,120,0,1,,,,,,,,,0,,,96,0
42120,note_on,0,0,1,,,,,,,,,0,,,90,88
42120,note_on,120,0,1,,,,,,,,,0,,,93,0
42240,note_on,0,0,1,,,,,,,,,0,,,87,88
42240,note_on,240,0,3,,,,,,,,,2,,,66,0
42240,note_on,120,0,1,,,,,,,,,0,,,90,0
42360,note_on,0,0,1,,,,,,,,,0,,,84,88
42360,note_on,120,0,1,,,,,,,,,0,,,87,0
42480,note_on,120,0,1,,,,,,,,,0,,,84,0
42480,note_on,0,0,1,,,,,,,,,0,,,81,88
42600,note_on,0,0,1,,,,,,,,,0,,,78,88
42600,note_on,120,0,1,,,,,,,,,0,,,81,0
42600,control_change,0,0,1,,,,,,,,,0,64,0,,
42720,note_on,0,0,1,,,,,,,,,0,,,75,88
42720,note_on,480,0,3,,,,,,,,,2,,,45,75
42720,control_change,0,0,1,,,,,,,,,0,64,127,,
42720,note_on,120,0,1,,,,,,,,,0,,,78,0
42840,note_on,120,0,1,,,,,,,,,0,,,75,0
42840,note_on,0,0,1,,,,,,,,,0,,,74,88
42960,note_on,0,0,1,,,,,,,,,0,,,75,88
42960,note_on,0,0,3,,,,,,,,,2,,,57,75
42960,note_on,120,0,1,,,,,,,,,0,,,74,0
42960,note_on,240,0,3,,,,,,,,,2,,,45,0
43080,note_on,120,0,1,,,,,,,,,0,,,75,0
43080,note_on,0,0,1,,,,,,,,,0,,,74,88
43200,note_on,0,0,3,,,,,,,,,2,,,60,75
43200,note_on,240,0,3,,,,,,,,,2,,,57,0
43200,note_on,0,0,1,,,,,,,,,0,,,75,88
43200,note_on,120,0,1,,,,,,,,,0,,,74,0
43320,note_on,0,0,1,,,,,,,,,0,,,74,88
43320,note_on,120,0,1,,,,,,,,,0,,,75,0
43440,note_on,120,0,1,,,,,,,,,0,,,74,0
43440,note_on,0,0,1,,,,,,,,,0,,,75,88
43440,note_on,0,0,3,,,,,,,,,2,,,66,75
43440,note_on,240,0,3,,,,,,,,,2,,,60,0
43560,note_on,120,0,1,,,,,,,,,0,,,75,0
43560,note_on,0,0,1,,,,,,,,,0,,,74,88
43680,note_on,240,0,3,,,,,,,,,2,,,66,0
43680,note_on,0,0,1,,,,,,,,,0,,,77,88
43680,control_change,0,0,3,,,,,,,,,2,64,0,,
43680,note_on,120,0,1,,,,,,,,,0,,,74,0
43800,note_on,120,0,1,,,,,,,,,0,,,77,0
43800,note_on,0,0,1,,,,,,,,,0,,,75,88
43920,note_on,120,0,1,,,,,,,,,0,,,75,0
43920,note_on,0,0,1,,,,,,,,,0,,,74,88
44040,note_on,120,0,1,,,,,,,,,0,,,74,0
44040,note_on,0,0,1,,,,,,,,,0,,,72,88
44040,control_change,0,0,1,,,,,,,,,0,64,0,,
44160,note_on,0,0,1,,,,,,,,,0,,,70,75
44160,note_on,0,0,3,,,,,,,,,2,,,46,62
44160,control_change,480,0,3,,,,,,,,,2,64,127,,
44160,note_on,120,0,1,,,,,,,,,0,,,72,0
44400,note_on,0,0,3,,,,,,,,,2,,,58,62
44400,note_on,240,0,3,,,,,,,,,2,,,46,0
44520,note_on,360,0,1,,,,,,,,,0,,,70,0
44520,note_on,0,0,1,,,,,,,,,0,,,72,75
44559,note_on,0,0,1,,,,,,,,,0,,,70,75
44559,note_on,39,0,1,,,,,,,,,0,,,72,0
44600,note_on,0,0,1,,,,,,,,,0,,,69,75
44600,note_on,41,0,1,,,,,,,,,0,,,70,0
44640,note_on,0,0,3,,,,,,,,,2,,,63,62
44640,note_on,240,0,3,,,,,,,,,2,,,58,0
44640,note_on,40,0,1,,,,,,,,,0,,,69,0
44640,note_on,0,0,1,,,,,,,,,0,,,70,75
44663,note_on,23,0,1,,,,,,,,,0,,,70,0
44760,note_on,97,0,1,,,,,,,,,0,,,72,75
44783,note_on,23,0,1,,,,,,,,,0,,,72,0
44880,note_on,97,0,1,,,,,,,,,0,,,74,75
44880,note_on,0,0,3,,,,,,,,,2,,,67,62
44880,note_on,240,0,3,,,,,,,,,2,,,63,0
44903,note_on,23,0,1,,,,,,,,,0,,,74,0
45000,note_on,97,0,1,,,,,,,,,0,,,75,75
45023,note_on,23,0,1,,,,,,,,,0,,,75,0
45120,note_on,240,0,3,,,,,,,,,2,,,67,0
45120,note_on,97,0,1,,,,,,,,,0,,,77,75
45120,control_change,0,0,3,,,,,,,,,2,64,0,,
45143,note_on,23,0,1,,,,,,,,,0,,,77,0
45240,note_on,97,0,1,,,,,,,,,0,,,79,75
45263,note_on,23,0,1,,,,,,,,,0,,,79,0
45360,note_on,97,0,1,,,,,,,,,0,,,80,75
45383,note_on,23,0,1,,,,,,,,,0,,,80,0
45480,note_on,97,0,1,,,,,,,,,0,,,81,75
45503,note_on,23,0,1,,,,,,,,,0,,,81,0
45600,note_on,0,0,3,,,,,,,,,2,,,46,62
45600,control_change,97,0,1,,,,,,,,,0,64,127,,
45600,control_change,480,0,3,,,,,,,,,2,64,127,,
45600,note_on,0,0,1,,,,,,,,,0,,,84,75
45840,note_on,240,0,3,,,,,,,,,2,,,46,0
45840,note_on,0,0,1,,,,,,,,,0,,,82,75
45840,note_on,240,0,1,,,,,,,,,0,,,84,0
45840,note_on,0,0,3,,,,,,,,,2,,,58,62
46080,note_on,240,0,3,,,,,,,,,2,,,58,0
46080,note_on,0,0,3,,,,,,,,,2,,,62,62
46080,note_on,0,0,1,,,,,,,,,0,,,80,75
46080,note_on,240,0,1,,,,,,,,,0,,,82,0
46320,note_on,240,0,3,,,,,,,,,2,,,62,0
46320,note_on,0,0,3,,,,,,,,,2,,,65,62
46320,note_on,0,0,1,,,,,,,,,0,,,77,75
46320,note_on,240,0,1,,,,,,,,,0,,,80,0
46560,note_on,240,0,3,,,,,,,,,2,,,65,0
46560,note_on,240,0,1,,,,,,,,,0,,,77,0
46560,note_on,0,0,1,,,,,,,,,0,,,72,75
46560,control_change,0,0,3,,,,,,,,,2,64,0,,
46800,note_on,0,0,1,,,,,,,,,0,,,74,75
46800,control_change,0,0,1,,,,,,,,,0,64,0,,
46800,note_on,240,0,1,,,,,,,,,0,,,72,0
47040,note_on,480,0,3,,,,,,,,,2,,,63,75
47040,note_on,47040,0,4,,,,,,,,,3,,,63,90
47040,note_on,0,0,1,,,,,,,,,0,,,74,62
47040,control_change,0,0,1,,,,,,,,,0,64,127,,
47040,note_on,240,0,1,,,,,,,,,0,,,74,0
47040,note_on,0,0,3,,,,,,,,,2,,,67,75
47120,note_on,0,0,1,,,,,,,,,0,,,75,62
47120,note_on,80,0,1,,,,,,,,,0,,,74,0
47199,note_on,0,0,1,,,,,,,,,0,,,77,62
47199,note_on,79,0,1,,,,,,,,,0,,,75,0
47280,note_on,0,0,1,,,,,,,,,0,,,75,62
47280,note_on,81,0,1,,,,,,,,,0,,,77,0
47360,note_on,80,0,1,,,,,,,,,0,,,75,0
47360,note_on,0,0,1,,,,,,,,,0,,,77,62
47439,note_on,79,0,1,,,,,,,,,0,,,77,0
47439,note_on,0,0,1,,,,,,,,,0,,,75,62
47520,note_on,480,0,3,,,,,,,,,2,,,67,0
47520,note_on,81,0,1,,,,,,,,,0,,,75,0
47520,note_on,0,0,3,,,,,,,,,2,,,67,49
47520,note_on,0,0,3,,,,,,,,,2,,,63,49
47520,note_on,0,0,3,,,,,,,,,2,,,63,0
47520,note_on,0,0,1,,,,,,,,,0,,,77,62
47600,note_on,80,0,1,,,,,,,,,0,,,77,0
47600,note_on,0,0,1,,,,,,,,,0,,,75,62
47679,note_on,0,0,1,,,,,,,,,0,,,77,62
47679,note_on,79,0,1,,,,,,,,,0,,,75,0
47760,note_on,0,0,1,,,,,,,,,0,,,75,62
47760,note_on,0,0,3,,,,,,,,,2,,,68,49
47760,note_on,0,0,3,,,,,,,,,2,,,65,49
47760,note_on,0,0,3,,,,,,,,,2,,,63,0
47760,note_on,240,0,3,,,,,,,,,2,,,67,0
47760,note_on,81,0,1,,,,,,,,,0,,,77,0
47840,note_on,0,0,1,,,,,,,,,0,,,77,62
47840,note_on,80,0,1,,,,,,,,,0,,,75,0
47919,note_on,79,0,1,,,,,,,,,0,,,77,0
47919,note_on,0,0,1,,,,,,,,,0,,,75,62
48000,note_on,0,0,3,,,,,,,,,2,,,65,0
48000,note_on,0,0,1,,,,,,,,,0,,,77,62
48000,note_on,81,0,1,,,,,,,,,0,,,75,0
48000,note_on,0,0,3,,,,,,,,,2,,,68,49
48000,note_on,0,0,3,,,,,,,,,2,,,65,49
48000,note_on,240,0,3,,,,,,,,,2,,,68,0
48080,note_on,0,0,1,,,,,,,,,0,,,75,62
48080,note_on,80,0,1,,,,,,,,,0,,,77,0
48159,note_on,79,0,1,,,,,,,,,0,,,75,0
48159,note_on,0,0,1,,,,,,,,,0,,,77,62
48240,note_on,81,0,1,,,,,,,,,0,,,77,0
48240,note_on,240,0,3,,,,,,,,,2,,,68,0
48240,note_on,0,0,3,,,,,,,,,2,,,66,49
48240,note_on,0,0,3,,,,,,,,,2,,,69,49
48240,note_on,0,0,3,,,,,,,,,2,,,65,0
48240,note_on,0,0,1,,,,,,,,,0,,,75,62
48320,note_on,0,0,1,,,,,,,,,0,,,77,62
48320,note_on,80,0,1,,,,,,,,,0,,,75,0
48399,note_on,0,0,1,,,,,,,,,0,,,75,62
48399,note_on,79,0,1,,,,,,,,,0,,,77,0
48480,note_on,0,0,4,,,,,,,,,3,,,63,90
48480,note_on,1440,0,4,,,,,,,,,3,,,63,0
48480,note_on,240,0,3,,,,,,,,,2,,,69,0
48480,note_on,81,0,1,,,,,,,,,0,,,75,0
48480,note_on,0,0,3,,,,,,,,,2,,,66,0
48480,note_on,0,0,3,,,,,,,,,2,,,66,49
48480,note_on,0,0,3,,,,,,,,,2,,,69,49
48480,note_on,0,0,1,,,,,,,,,0,,,77,62
48560,note_on,80,0,1,,,,,,,,,0,,,77,0
48560,note_on,0,0,1,,,,,,,,,0,,,75,62
48639,note_on,79,0,1,,,,,,,,,0,,,75,0
48639,note_on,0,0,1,,,,,,,,,0,,,77,62
48720,note_on,81,0,1,,,,,,,,,0,,,77,0
48720,note_on,0,0,1,,,,,,,,,0,,,75,62
48800,note_on,80,0,1,,,,,,,,,0,,,75,0
48800,note_on,0,0,1,,,,,,,,,0,,,77,62
48879,note_on,79,0,1,,,,,,,,,0,,,77,0
48879,note_on,0,0,1,,,,,,,,,0,,,75,62
48960,note_on,480,0,3,,,,,,,,,2,,,69,0
48960,note_on,81,0,1,,,,,,,,,0,,,75,0
48960,note_on,0,0,3,,,,,,,,,2,,,70,49
48960,note_on,0,0,3,,,,,,,,,2,,,67,49
48960,note_on,0,0,1,,,,,,,,,0,,,77,62
48960,note_on,0,0,3,,,,,,,,,2,,,66,0
49040,note_on,80,0,1,,,,,,,,,0,,,77,0
49040,note_on,0,0,1,,,,,,,,,0,,,75,62
49119,note_on,0,0,1,,,,,,,,,0,,,77,62
49119,note_on,79,0,1,,,,,,,,,0,,,75,0
49200,note_on,81,0,1,,,,,,,,,0,,,77,0
49200,note_on,0,0,1,,,,,,,,,0,,,75,62
49200,note_on,240,0,3,,,,,,,,,2,,,70,0
49200,note_on,0,0,3,,,,,,,,,2,,,67,0
49200,note_on,0,0,3,,,,,,,,,2,,,71,49
49200,note_on,0,0,3,,,,,,,,,2,,,68,49
49280,note_on,0,0,1,,,,,,,,,0,,,77,62
49280,note_on,80,0,1,,,,,,,,,0,,,75,0
49359,note_on,0,0,1,,,,,,,,,0,,,75,62
49359,note_on,79,0,1,,,,,,,,,0,,,77,0
49440,note_on,81,0,1,,,,,,,,,0,,,75,0
49440,note_on,0,0,1,,,,,,,,,0,,,77,62
49440,note_on,0,0,3,,,,,,,,,2,,,71,49
49440,note_on,0,0,3,,,,,,,,,2,,,68,0
49440,note_on,0,0,3,,,,,,,,,2,,,68,49
49440,note_on,240,0,3,,,,,,,,,2,,,71,0
49520,note_on,80,0,1,,,,,,,,,0,,,77,0
49520,note_on,0,0,1,,,,,,,,,0,,,75,62
49599,note_on,0,0,1,,,,,,,,,0,,,77,62
49599,note_on,79,0,1,,,,,,,,,0,,,75,0
49680,note_on,0,0,3,,,,,,,,,2,,,72,49
49680,note_on,0,0,1,,,,,,,,,0,,,75,62
49680,note_on,81,0,1,,,,,,,,,0,,,77,0
49680,note_on,240,0,3,,,,,,,,,2,,,71,0
49680,note_on,0,0,3,,,,,,,,,2,,,69,49
49680,note_on,0,0,3,,,,,,,,,2,,,68,0
49760,note_on,80,0,1,,,,,,,,,0,,,75,0
49760,note_on,0,0,1,,,,,,,,,0,,,77,62
49839,note_on,0,0,1,,,,,,,,,0,,,75,62
49839,note_on,79,0,1,,,,,,,,,0,,,77,0
49920,note_on,0,0,3,,,,,,,,,2,,,72,49
49920,note_on,0,0,3,,,,,,,,,2,,,63,49
49920,note_on,0,0,3,,,,,,,,,2,,,69,0
49920,note_on,81,0,1,,,,,,,,,0,,,75,0
49920,note_on,1440,0,4,,,,,,,,,3,,,63,0
49920,note_on,0,0,1,,,,,,,,,0,,,77,62
49920,note_on,0,0,3,,,,,,,,,2,,,69,49
49920,note_on,240,0,3,,,,,,,,,2,,,72,0
50000,note_on,80,0,1,,,,,,,,,0,,,77,0
50000,note_on,0,0,1,,,,,,,,,0,,,75,62
50079,note_on,79,0,1,,,,,,,,,0,,,75,0
50079,note_on,0,0,1,,,,,,,,,0,,,77,62
50160,note_on,0,0,1,,,,,,,,,0,,,75,62
50160,note_on,81,0,1,,,,,,,,,0,,,77,0
50240,note_on,80,0,1,,,,,,,,,0,,,75,0
50240,note_on,0,0,1,,,,,,,,,0,,,77,62
50319,note_on,0,0,1,,,,,,,,,0,,,75,62
50319,note_on,79,0,1,,,,,,,,,0,,,77,0
50400,note_on,81,0,1,,,,,,,,,0,,,75,0
50400,note_on,480,0,3,,,,,,,,,2,,,72,0
50400,note_on,0,0,3,,,,,,,,,2,,,73,49
50400,note_on,0,0,3,,,,,,,,,2,,,70,49
50400,note_on,0,0,1,,,,,,,,,0,,,77,62
50400,note_on,0,0,3,,,,,,,,,2,,,63,0
50400,note_on,0,0,3,,,,,,,,,2,,,63,49
50400,note_on,0,0,3,,,,,,,,,2,,,69,0
50480,note_on,0,0,1,,,,,,,,,0,,,75,62
50480,note_on,80,0,1,,,,,,,,,0,,,77,0
50559,note_on,79,0,1,,,,,,,,,0,,,75,0
50559,note_on,0,0,1,,,,,,,,,0,,,77,62
50640,note_on,81,0,1,,,,,,,,,0,,,77,0
50640,note_on,0,0,1,,,,,,,,,0,,,75,62
50720,note_on,80,0,1,,,,,,,,,0,,,75,0
50720,note_on,0,0,1,,,,,,,,,0,,,77,62
50799,note_on,79,0,1,,,,,,,,,0,,,77,0
50799,note_on,0,0,1,,,,,,,,,0,,,75,62
50799,control_change,0,0,1,,,,,,,,,0,64,0,,
50880,note_on,81,0,1,,,,,,,,,0,,,75,0
50880,note_on,0,0,3,,,,,,,,,2,,,63,0
50880,note_on,0,0,3,,,,,,,,,2,,,70,0
50880,control_change,0,0,1,,,,,,,,,0,64,127,,
50880,note_on,0,0,1,,,,,,,,,0,,,75,49
50880,note_on,480,0,3,,,,,,,,,2,,,73,0
51000,note_on,120,0,1,,,,,,,,,0,,,75,0
51000,note_on,0,0,1,,,,,,,,,0,,,74,49
51120,note_on,0,0,1,,,,,,,,,0,,,75,49
51120,note_on,120,0,1,,,,,,,,,0,,,74,0
51240,note_on,0,0,1,,,,,,,,,0,,,77,49
51240,note_on,120,0,1,,,,,,,,,0,,,75,0
51360,note_on,120,0,1,,,,,,,,,0,,,77,0
51360,note_on,0,0,1,,,,,,,,,0,,,79,49
51480,note_on,120,0,1,,,,,,,,,0,,,79,0
51480,note_on,0,0,1,,,,,,,,,0,,,80,49
51600,note_on,120,0,1,,,,,,,,,0,,,80,0
51600,note_on,0,0,1,,,,,,,,,0,,,82,49
51720,note_on,120,0,1,,,,,,,,,0,,,82,0
51720,note_on,0,0,1,,,,,,,,,0,,,84,49
51840,note_on,0,0,1,,,,,,,,,0,,,85,49
51840,note_on,120,0,1,,,,,,,,,0,,,84,0
51960,note_on,0,0,1,,,,,,,,,0,,,87,49
51960,note_on,120,0,1,,,,,,,,,0,,,85,0
52080,note_on,0,0,1,,,,,,,,,0,,,89,49
52080,note_on,120,0,1,,,,,,,,,0,,,87,0
52200,note_on,0,0,1,,,,,,,,,0,,,91,49
52200,note_on,120,0,1,,,,,,,,,0,,,89,0
52320,note_on,120,0,1,,,,,,,,,0,,,91,0
52320,note_on,0,0,1,,,,,,,,,0,,,92,49
52440,note_on,0,0,1,,,,,,,,,0,,,94,49
52440,note_on,120,0,1,,,,,,,,,0,,,92,0
52560,note_on,0,0,1,,,,,,,,,0,,,96,49
52560,note_on,120,0,1,,,,,,,,,0,,,94,0
52680,note_on,0,0,1,,,,,,,,,0,,,94,49
52680,control_change,0,0,1,,,,,,,,,0,64,0,,
52680,note_on,120,0,1,,,,,,,,,0,,,96,0
52800,note_on,120,0,1,,,,,,,,,0,,,94,0
52800,note_on,0,0,1,,,,,,,,,0,,,92,49
52920,note_on,0,0,1,,,,,,,,,0,,,91,49
52920,note_on,120,0,1,,,,,,,,,0,,,92,0
53040,note_on,0,0,1,,,,,,,,,0,,,89,49
53040,set_tempo,52080,1,0,,,,,,389610,,,,,,,
53040,note_on,120,0,1,,,,,,,,,0,,,91,0
53160,note_on,120,0,1,,,,,,,,,0,,,89,0
53160,note_on,0,0,1,,,,,,,,,0,,,87,49
53280,note_on,120,0,1,,,,,,,,,0,,,87,0
53280,set_tempo,240,1,0,,,,,,405405,,,,,,,
53280,note_on,0,0,1,,,,,,,,,0,,,85,49
53400,note_on,120,0,1,,,,,,,,,0,,,85,0
53400,note_on,0,0,1,,,,,,,,,0,,,84,49
53520,set_tempo,240,1,0,,,,,,422535,,,,,,,
53520,note_on,0,0,1,,,,,,,,,0,,,82,49
53520,note_on,120,0,1,,,,,,,,,0,,,84,0
53640,note_on,0,0,1,,,,,,,,,0,,,80,49
53640,note_on,120,0,1,,,,,,,,,0,,,82,0
53760,note_on,0,0,1,,,,,,,,,0,,,79,49
53760,note_on,120,0,1,,,,,,,,,0,,,80,0
53760,set_tempo,240,1,0,,,,,,447761,,,,,,,
53880,note_on,0,0,1,,,,,,,,,0,,,77,49
53880,note_on,120,0,1,,,,,,,,,0,,,79,0
54000,set_tempo,240,1,0,,,,,,468750,,,,,,,
54000,note_on,0,0,1,,,,,,,,,0,,,75,49
54000,note_on,120,0,1,,,,,,,,,0,,,77,0
54120,note_on,0,0,1,,,,,,,,,0,,,74,49
54120,note_on,120,0,1,,,,,,,,,0,,,75,0
54240,note_on,0,0,1,,,,,,,,,0,,,77,49
54240,set_tempo,240,1,0,,,,,,491803,,,,,,,
54240,note_on,120,0,1,,,,,,,,,0,,,74,0
54360,note_on,120,0,1,,,,,,,,,0,,,77,0
54360,note_on,0,0,1,,,,,,,,,0,,,75,49
54480,note_on,120,0,1,,,,,,,,,0,,,75,0
54480,set_tempo,240,1,0,,,,,,517241,,,,,,,
54480,note_on,0,0,1,,,,,,,,,0,,,74,49
54600,note_on,120,0,1,,,,,,,,,0,,,74,0
54600,note_on,0,0,1,,,,,,,,,0,,,75,49
54720,note_on,120,0,1,,,,,,,,,0,,,75,0
54720,set_tempo,240,1,0,,,,,,555556,,,,,,,
54720,note_on,0,0,1,,,,,,,,,0,,,77,49
54840,note_on,120,0,1,,,,,,,,,0,,,77,0
54840,note_on,0,0,1,,,,,,,,,0,,,75,49
54960,note_on,120,0,1,,,,,,,,,0,,,75,0
54960,note_on,0,0,1,,,,,,,,,0,,,74,49
55080,note_on,120,0,1,,,,,,,,,0,,,74,0
55080,note_on,0,0,1,,,,,,,,,0,,,75,49
55200,note_on,120,0,1,,,,,,,,,0,,,75,0
55200,note_on,0,0,1,,,,,,,,,0,,,84,49
55440,note_on,240,0,1,,,,,,,,,0,,,84,0
55560,note_on,120,0,1,,,,,,,,,0,,,79,49
55680,control_change,4800,0,3,,,,,,,,,2,64,127,,
55680,note_on,0,0,3,,,,,,,,,2,,,44,49
55680,note_on,0,0,1,,,,,,,,,0,,,82,62
55680,note_on,120,0,1,,,,,,,,,0,,,79,0
55724,set_tempo,1004,1,0,,,,,,375000,,,,,,,
55920,note_on,0,0,3,,,,,,,,,2,,,51,49
55920,note_on,240,0,3,,,,,,,,,2,,,44,0
56160,note_on,0,0,3,,,,,,,,,2,,,56,49
56160,note_on,240,0,3,,,,,,,,,2,,,51,0
56400,note_on,0,0,3,,,,,,,,,2,,,60,49
56400,note_on,240,0,3,,,,,,,,,2,,,56,0
56400,note_on,720,0,1,,,,,,,,,0,,,82,0
56400,note_on,0,0,1,,,,,,,,,0,,,80,62
56640,note_on,240,0,3,,,,,,,,,2,,,60,0
56640,note_on,240,0,1,,,,,,,,,0,,,80,0
56640,note_on,0,0,1,,,,,,,,,0,,,71,62
56640,note_on,0,0,3,,,,,,,,,2,,,63,49
56799,note_on,159,0,1,,,,,,,,,0,,,71,0
56799,note_on,0,0,1,,,,,,,,,0,,,72,62
56880,note_on,240,0,3,,,,,,,,,2,,,63,0
56960,note_on,161,0,1,,,,,,,,,0,,,72,0
56960,note_on,0,0,1,,,,,,,,,0,,,73,62
57120,note_on,240,0,3,,,,,,,,,2,,,44,49
57120,note_on,0,0,1,,,,,,,,,0,,,77,62
57120,note_on,160,0,1,,,,,,,,,0,,,73,0
57360,note_on,240,0,3,,,,,,,,,2,,,44,0
57360,note_on,0,0,3,,,,,,,,,2,,,51,49
57600,note_on,0,0,3,,,,,,,,,2,,,56,49
57600,note_on,240,0,3,,,,,,,,,2,,,51,0
57840,note_on,0,0,1,,,,,,,,,0,,,75,62
57840,note_on,0,0,3,,,,,,,,,2,,,60,49
57840,note_on,240,0,3,,,,,,,,,2,,,56,0
57840,note_on,720,0,1,,,,,,,,,0,,,77,0
58080,note_on,240,0,3,,,,,,,,,2,,,60,0
58080,note_on,0,0,3,,,,,,,,,2,,,63,49
58080,note_on,0,0,1,,,,,,,,,0,,,73,62
58080,note_on,240,0,1,,,,,,,,,0,,,75,0
58320,control_change,0,0,3,,,,,,,,,2,64,0,,
58320,note_on,0,0,1,,,,,,,,,0,,,72,62
58320,note_on,240,0,3,,,,,,,,,2,,,63,0
58320,note_on,240,0,1,,,,,,,,,0,,,73,0
58560,note_on,0,0,1,,,,,,,,,0,,,72,62
58560,note_on,0,0,3,,,,,,,,,2,,,44,49
58560,control_change,0,0,1,,,,,,,,,0,64,127,,
58560,control_change,240,0,3,,,,,,,,,2,64,127,,
58560,note_on,240,0,1,,,,,,,,,0,,,72,0
58800,note_on,240,0,3,,,,,,,,,2,,,44,0
58800,note_on,0,0,3,,,,,,,,,2,,,53,49
59040,note_on,0,0,3,,,,,,,,,2,,,56,49
59040,note_on,240,0,3,,,,,,,,,2,,,53,0
59280,note_on,720,0,1,,,,,,,,,0,,,72,0
59280,note_on,0,0,1,,,,,,,,,0,,,70,62
59280,note_on,240,0,3,,,,,,,,,2,,,56,0
59280,note_on,0,0,3,,,,,,,,,2,,,62,49
59520,note_on,0,0,1,,,,,,,,,0,,,69,62
59520,note_on,240,0,3,,,,,,,,,2,,,62,0
59520,note_on,0,0,3,,,,,,,,,2,,,65,49
59520,note_on,240,0,1,,,,,,,,,0,,,70,0
59760,note_on,240,0,1,,,,,,,,,0,,,69,0
59760,note_on,240,0,3,,,,,,,,,2,,,65,0
59760,note_on,0,0,1,,,,,,,,,0,,,70,62
60000,note_on,240,0,1,,,,,,,,,0,,,70,0
60000,note_on,240,0,3,,,,,,,,,2,,,44,49
60000,note_on,0,0,1,,,,,,,,,0,,,69,62
60080,note_on,0,0,1,,,,,,,,,0,,,70,62
60080,note_on,80,0,1,,,,,,,,,0,,,69,0
60159,note_on,0,0,1,,,,,,,,,0,,,72,62
60159,note_on,79,0,1,,,,,,,,,0,,,70,0
60240,note_on,240,0,3,,,,,,,,,2,,,44,0
60240,note_on,0,0,3,,,,,,,,,2,,,53,49
60240,note_on,0,0,1,,,,,,,,,0,,,70,62
60240,note_on,81,0,1,,,,,,,,,0,,,72,0
60320,note_on,0,0,1,,,,,,,,,0,,,72,62
60320,note_on,80,0,1,,,,,,,,,0,,,70,0
60399,note_on,79,0,1,,,,,,,,,0,,,72,0
60399,note_on,0,0,1,,,,,,,,,0,,,70,62
60480,note_on,81,0,1,,,,,,,,,0,,,70,0
60480,note_on,0,0,1,,,,,,,,,0,,,72,62
60480,note_on,0,0,3,,,,,,,,,2,,,56,49
60480,note_on,240,0,3,,,,,,,,,2,,,53,0
60560,note_on,80,0,1,,,,,,,,,0,,,72,0
60560,note_on,0,0,1,,,,,,,,,0,,,70,62
60639,note_on,0,0,1,,,,,,,,,0,,,72,62
60639,note_on,79,0,1,,,,,,,,,0,,,70,0
60720,note_on,0,0,3,,,,,,,,,2,,,62,49
60720,note_on,0,0,1,,,,,,,,,0,,,69,62
60720,note_on,240,0,3,,,,,,,,,2,,,56,0
60720,note_on,81,0,1,,,,,,,,,0,,,72,0
60785,note_on,65,0,1,,,,,,,,,0,,,69,0
60785,note_on,0,0,1,,,,,,,,,0,,,70,62
60850,note_on,0,0,1,,,,,,,,,0,,,72,62
60850,note_on,65,0,1,,,,,,,,,0,,,70,0
60916,note_on,66,0,1,,,,,,,,,0,,,72,0
60916,note_on,0,0,1,,,,,,,,,0,,,74,62
60960,note_on,0,0,3,,,,,,,,,2,,,65,49
60960,note_on,240,0,3,,,,,,,,,2,,,62,0
60982,note_on,0,0,1,,,,,,,,,0,,,75,62
60982,note_on,66,0,1,,,,,,,,,0,,,74,0
61047,note_on,0,0,1,,,,,,,,,0,,,77,62
61047,note_on,65,0,1,,,,,,,,,0,,,75,0
61112,note_on,0,0,1,,,,,,,,,0,,,79,62
61112,note_on,65,0,1,,,,,,,,,0,,,77,0
61177,note_on,65,0,1,,,,,,,,,0,,,79,0
61177,note_on,0,0,1,,,,,,,,,0,,,80,62
61200,note_on,240,0,3,,,,,,,,,2,,,65,0
61200,control_change,0,0,3,,,,,,,,,2,64,0,,
61243,note_on,0,0,1,,,,,,,,,0,,,82,62
61243,note_on,66,0,1,,,,,,,,,0,,,80,0
61309,note_on,0,0,1,,,,,,,,,0,,,84,62
61309,note_on,66,0,1,,,,,,,,,0,,,82,0
61374,control_change,0,0,1,,,,,,,,,0,64,0,,
61374,note_on,65,0,1,,,,,,,,,0,,,84,0
61374,note_on,0,0,1,,,,,,,,,0,,,86,62
61440,control_change,0,0,1,,,,,,,,,0,64,127,,
61440,note_on,66,0,1,,,,,,,,,0,,,86,0
61440,note_on,0,0,3,,,,,,,,,2,,,44,49
61440,note_on,0,0,1,,,,,,,,,0,,,89,62
61440,control_change,240,0,3,,,,,,,,,2,64,127,,
61680,note_on,240,0,3,,,,,,,,,2,,,44,0
61680,note_on,0,0,3,,,,,,,,,2,,,55,49
61920,note_on,240,0,3,,,,,,,,,2,,,55,0
61920,note_on,0,0,3,,,,,,,,,2,,,58,49
62160,note_on,720,0,1,,,,,,,,,0,,,89,0
62160,note_on,0,0,1,,,,,,,,,0,,,87,62
62160,note_on,0,0,3,,,,,,,,,2,,,61,49
62160,note_on,240,0,3,,,,,,,,,2,,,58,0
62400,note_on,0,0,1,,,,,,,,,0,,,85,62
62400,note_on,240,0,3,,,,,,,,,2,,,61,0
62400,note_on,240,0,1,,,,,,,,,0,,,87,0
62400,note_on,0,0,3,,,,,,,,,2,,,63,49
62640,note_on,240,0,1,,,,,,,,,0,,,85,0
62640,note_on,0,0,1,,,,,,,,,0,,,82,62
62640,note_on,240,0,3,,,,,,,,,2,,,63,0
62880,note_on,0,0,1,,,,,,,,,0,,,79,62
62880,note_on,240,0,1,,,,,,,,,0,,,82,0
62880,note_on,240,0,3,,,,,,,,,2,,,44,49
63120,note_on,0,0,3,,,,,,,,,2,,,55,49
63120,note_on,240,0,3,,,,,,,,,2,,,44,0
63360,note_on,0,0,3,,,,,,,,,2,,,58,49
63360,note_on,240,0,3,,,,,,,,,2,,,55,0
63600,note_on,0,0,1,,,,,,,,,0,,,75,62
63600,note_on,240,0,3,,,,,,,,,2,,,58,0
63600,note_on,720,0,1,,,,,,,,,0,,,79,0
63600,note_on,0,0,3,,,,,,,,,2,,,61,49
63840,note_on,240,0,1,,,,,,,,,0,,,75,0
63840,note_on,0,0,3,,,,,,,,,2,,,63,49
63840,note_on,0,0,1,,,,,,,,,0,,,73,62
63840,note_on,240,0,3,,,,,,,,,2,,,61,0
64080,note_on,0,0,1,,,,,,,,,0,,,70,62
64080,control_change,0,0,3,,,,,,,,,2,64,0,,
64080,note_on,240,0,3,,,,,,,,,2,,,63,0
64080,note_on,240,0,1,,,,,,,,,0,,,73,0
64080,control_change,0,0,1,,,,,,,,,0,64,0,,
64320,note_on,0,0,3,,,,,,,,,2,,,44,49
64320,control_change,240,0,3,,,,,,,,,2,64,127,,
64320,note_on,240,0,1,,,,,,,,,0,,,70,0
64320,note_on,0,0,1,,,,,,,,,0,,,67,62
64320,control_change,0,0,1,,,,,,,,,0,64,127,,
64560,note_on,240,0,3,,,,,,,,,2,,,44,0
64560,note_on,0,0,1,,,,,,,,,0,,,68,62
64560,note_on,240,0,1,,,,,,,,,0,,,67,0
64560,set_tempo,8836,1,0,,,,,,389610,,,,,,,
64560,note_on,0,0,3,,,,,,,,,2,,,51,49
64800,note_on,0,0,3,,,,,,,,,2,,,56,49
64800,note_on,240,0,3,,,,,,,,,2,,,51,0
64800,note_on,240,0,1,,,,,,,,,0,,,68,0
64800,set_tempo,240,1,0,,,,,,405405,,,,,,,
64800,note_on,0,0,1,,,,,,,,,0,,,72,62
65040,set_tempo,240,1,0,,,,,,422535,,,,,,,
65040,note_on,240,0,3,,,,,,,,,2,,,56,0
65040,note_on,240,0,1,,,,,,,,,0,,,72,0
65040,note_on,0,0,3,,,,,,,,,2,,,60,49
65040,note_on,0,0,1,,,,,,,,,0,,,75,62
65280,note_on,240,0,3,,,,,,,,,2,,,60,0
65280,set_tempo,240,1,0,,,,,,447761,,,,,,,
65280,note_on,240,0,1,,,,,,,,,0,,,75,0
65280,note_on,0,0,1,,,,,,,,,0,,,79,62
65280,note_on,0,0,3,,,,,,,,,2,,,63,49
65376,note_on,96,0,1,,,,,,,,,0,,,79,0
65376,note_on,0,0,1,,,,,,,,,0,,,80,62
65472,note_on,0,0,1,,,,,,,,,0,,,84,62
65472,note_on,96,0,1,,,,,,,,,0,,,80,0
65520,set_tempo,240,1,0,,,,,,468750,,,,,,,
65520,note_on,240,0,3,,,,,,,,,2,,,63,0
65567,note_on,95,0,1,,,,,,,,,0,,,84,0
65567,note_on,0,0,1,,,,,,,,,0,,,87,62
65663,note_on,0,0,1,,,,,,,,,0,,,96,62
65663,note_on,96,0,1,,,,,,,,,0,,,87,0
65760,set_tempo,240,1,0,,,,,,491803,,,,,,,
65760,note_on,240,0,3,,,,,,,,,2,,,44,49
65760,note_on,97,0,1,,,,,,,,,0,,,96,0
65760,control_change,0,0,1,,,,,,,,,0,64,0,,
65760,note_on,0,0,1,,,,,,,,,0,,,92,62
66000,note_on,240,0,3,,,,,,,,,2,,,44,0
66000,set_tempo,240,1,0,,,,,,517241,,,,,,,
66000,note_on,0,0,3,,,,,,,,,2,,,51,49
66000,note_on,240,0,1,,,,,,,,,0,,,92,0
66240,note_on,0,0,3,,,,,,,,,2,,,56,49
66240,note_on,240,0,3,,,,,,,,,2,,,51,0
66240,set_tempo,240,1,0,,,,,,555556,,,,,,,
66480,note_on,240,0,3,,,,,,,,,2,,,56,0
66480,note_on,0,0,3,,,,,,,,,2,,,60,49
66540,note_on,0,0,1,,,,,,,,,0,,,75,62
66540,control_change,540,0,1,,,,,,,,,0,64,127,,
66600,note_on,0,0,1,,,,,,,,,0,,,77,62
66600,note_on,60,0,1,,,,,,,,,0,,,75,0
66660,note_on,0,0,1,,,,,,,,,0,,,75,62
66660,note_on,60,0,1,,,,,,,,,0,,,77,0
66720,note_on,0,0,3,,,,,,,,,2,,,63,49
66720,note_on,240,0,3,,,,,,,,,2,,,60,0
66720,note_on,60,0,1,,,,,,,,,0,,,75,0
66720,note_on,0,0,1,,,,,,,,,0,,,74,62
66780,note_on,0,0,1,,,,,,,,,0,,,75,62
66780,note_on,60,0,1,,,,,,,,,0,,,74,0
66840,note_on,0,0,1,,,,,,,,,0,,,74,62
66840,note_on,60,0,1,,,,,,,,,0,,,75,0
66900,note_on,0,0,1,,,,,,,,,0,,,75,62
66900,note_on,60,0,1,,,,,,,,,0,,,74,0
66960,control_change,0,0,3,,,,,,,,,2,64,0,,
66960,note_on,60,0,1,,,,,,,,,0,,,75,0
66960,note_on,240,0,3,,,,,,,,,2,,,63,0
66960,note_on,0,0,1,,,,,,,,,0,,,74,62
67020,note_on,60,0,1,,,,,,,,,0,,,74,0
67020,note_on,0,0,1,,,,,,,,,0,,,75,62
67080,note_on,60,0,1,,,,,,,,,0,,,75,0
67080,note_on,0,0,1,,,,,,,,,0,,,84,62
67140,note_on,60,0,1,,,,,,,,,0,,,84,0
67140,control_change,0,0,1,,,,,,,,,0,64,0,,
67140,note_on,0,0,1,,,,,,,,,0,,,79,62
67200,control_change,240,0,3,,,,,,,,,2,64,127,,
67200,note_on,0,0,3,,,,,,,,,2,,,44,49
67200,control_change,0,0,1,,,,,,,,,0,64,127,,
67200,note_on,60,0,1,,,,,,,,,0,,,79,0
67200,note_on,0,0,1,,,,,,,,,0,,,82,62
67222,set_tempo,982,1,0,,,,,,375000,,,,,,,
67440,note_on,240,0,3,,,,,,,,,2,,,44,0
67440,note_on,0,0,3,,,,,,,,,2,,,51,49
67680,note_on,240,0,3,,,,,,,,,2,,,51,0
67680,note_on,0,0,3,,,,,,,,,2,,,56,49
67920,note_on,720,0,1,,,,,,,,,0,,,82,0
67920,note_on,0,0,3,,,,,,,,,2,,,60,49
67920,note_on,0,0,1,,,,,,,,,0,,,80,62
67920,note_on,240,0,3,,,,,,,,,2,,,56,0
68160,note_on,0,0,3,,,,,,,,,2,,,63,49
68160,note_on,240,0,3,,,,,,,,,2,,,60,0
68160,note_on,0,0,1,,,,,,,,,0,,,72,62
68160,note_on,240,0,1,,,,,,,,,0,,,80,0
68400,note_on,240,0,3,,,,,,,,,2,,,63,0
68400,note_on,240,0,1,,,,,,,,,0,,,72,0
68400,note_on,0,0,1,,,,,,,,,0,,,73,62
68640,note_on,0,0,1,,,,,,,,,0,,,77,62
68640,note_on,240,0,3,,,,,,,,,2,,,44,49
68640,note_on,240,0,1,,,,,,,,,0,,,73,0
68880,note_on,240,0,3,,,,,,,,,2,,,44,0
68880,note_on,0,0,3,,,,,,,,,2,,,51,49
69120,note_on,240,0,3,,,,,,,,,2,,,51,0
69120,note_on,0,0,3,,,,,,,,,2,,,56,49
69360,note_on,240,0,3,,,,,,,,,2,,,56,0
69360,note_on,720,0,1,,,,,,,,,0,,,77,0
69360,note_on,0,0,1,,,,,,,,,0,,,75,62
69360,note_on,0,0,3,,,,,,,,,2,,,60,49
69600,note_on,0,0,3,,,,,,,,,2,,,63,49
69600,note_on,240,0,1,,,,,,,,,0,,,75,0
69600,note_on,0,0,1,,,,,,,,,0,,,73,62
69600,note_on,240,0,3,,,,,,,,,2,,,60,0
69840,note_on,0,0,1,,,,,,,,,0,,,72,62
69840,note_on,240,0,3,,,,,,,,,2,,,63,0
69840,control_change,0,0,1,,,,,,,,,0,64,0,,
69840,control_change,0,0,3,,,,,,,,,2,64,0,,
69840,note_on,240,0,1,,,,,,,,,0,,,73,0
70080,note_on,240,0,1,,,,,,,,,0,,,72,0
70080,note_on,0,0,3,,,,,,,,,2,,,50,49
70080,note_on,0,0,1,,,,,,,,,0,,,69,62
70080,control_change,0,0,1,,,,,,,,,0,64,127,,
70080,control_change,240,0,3,,,,,,,,,2,64,127,,
70320,note_on,0,0,3,,,,,,,,,2,,,58,49
70320,note_on,240,0,3,,,,,,,,,2,,,50,0
70560,note_on,0,0,3,,,,,,,,,2,,,62,49
70560,note_on,240,0,3,,,,,,,,,2,,,58,0
70800,note_on,0,0,1,,,,,,,,,0,,,70,62
70800,note_on,240,0,3,,,,,,,,,2,,,62,0
70800,note_on,720,0,1,,,,,,,,,0,,,69,0
70800,note_on,0,0,3,,,,,,,,,2,,,65,49
71040,note_on,240,0,3,,,,,,,,,2,,,65,0
71040,note_on,0,0,3,,,,,,,,,2,,,68,49
71040,note_on,0,0,1,,,,,,,,,0,,,72,62
71040,note_on,240,0,1,,,,,,,,,0,,,70,0
71280,note_on,240,0,1,,,,,,,,,0,,,72,0
71280,note_on,0,0,1,,,,,,,,,0,,,70,62
71280,note_on,240,0,3,,,,,,,,,2,,,68,0
71520,note_on,0,0,3,,,,,,,,,2,,,49,49
71520,note_on,0,0,1,,,,,,,,,0,,,69,62
71520,note_on,240,0,1,,,,,,,,,0,,,70,0
71520,control_change,240,0,3,,,,,,,,,2,64,127,,
71640,note_on,0,0,1,,,,,,,,,0,,,70,62
71640,note_on,120,0,1,,,,,,,,,0,,,69,0
71760,note_on,0,0,3,,,,,,,,,2,,,55,49
71760,note_on,240,0,3,,,,,,,,,2,,,49,0
71760,note_on,0,0,1,,,,,,,,,0,,,72,62
71760,note_on,120,0,1,,,,,,,,,0,,,70,0
71880,note_on,120,0,1,,,,,,,,,0,,,72,0
71880,note_on,0,0,1,,,,,,,,,0,,,70,62
72000,note_on,0,0,3,,,,,,,,,2,,,58,49
72000,note_on,0,0,1,,,,,,,,,0,,,69,62
72000,note_on,120,0,1,,,,,,,,,0,,,70,0
72000,note_on,240,0,3,,,,,,,,,2,,,55,0
72087,note_on,87,0,1,,,,,,,,,0,,,69,0
72087,note_on,0,0,1,,,,,,,,,0,,,70,62
72174,note_on,87,0,1,,,,,,,,,0,,,70,0
72174,note_on,0,0,1,,,,,,,,,0,,,72,62
72240,note_on,240,0,3,,,,,,,,,2,,,58,0
72240,note_on,0,0,3,,,,,,,,,2,,,63,49
72262,note_on,0,0,1,,,,,,,,,0,,,73,62
72262,note_on,88,0,1,,,,,,,,,0,,,72,0
72349,note_on,87,0,1,,,,,,,,,0,,,73,0
72349,note_on,0,0,1,,,,,,,,,0,,,75,62
72436,note_on,87,0,1,,,,,,,,,0,,,75,0
72436,note_on,0,0,1,,,,,,,,,0,,,77,62
72480,note_on,0,0,3,,,,,,,,,2,,,67,49
72480,note_on,240,0,3,,,,,,,,,2,,,63,0
72523,note_on,0,0,1,,,,,,,,,0,,,79,62
72523,note_on,87,0,1,,,,,,,,,0,,,77,0
72610,note_on,0,0,1,,,,,,,,,0,,,80,62
72610,note_on,87,0,1,,,,,,,,,0,,,79,0
72698,note_on,88,0,1,,,,,,,,,0,,,80,0
72698,note_on,0,0,1,,,,,,,,,0,,,82,62
72720,control_change,0,0,3,,,,,,,,,2,64,0,,
72720,note_on,240,0,3,,,,,,,,,2,,,67,0
72785,note_on,0,0,1,,,,,,,,,0,,,84,62
72785,note_on,87,0,1,,,,,,,,,0,,,82,0
72872,note_on,0,0,1,,,,,,,,,0,,,85,62
72872,control_change,0,0,1,,,,,,,,,0,64,0,,
72872,note_on,87,0,1,,,,,,,,,0,,,84,0
72960,note_on,0,0,1,,,,,,,,,0,,,87,88
72960,control_change,0,0,1,,,,,,,,,0,64,127,,
72960,note_on,88,0,1,,,,,,,,,0,,,85,0
72960,control_change,240,0,3,,,,,,,,,2,64,127,,
72960,note_on,0,0,3,,,,,,,,,2,,,48,75
73007,note_on,47,0,1,,,,,,,,,0,,,87,0
73200,note_on,0,0,3,,,,,,,,,2,,,56,75
73200,set_tempo,5978,1,0,,,,,,389610,,,,,,,
73200,note_on,193,0,1,,,,,,,,,0,,,75,88
73200,note_on,240,0,3,,,,,,,,,2,,,48,0
73247,note_on,47,0,1,,,,,,,,,0,,,75,0
73440,note_on,193,0,1,,,,,,,,,0,,,99,114
73440,note_on,0,0,3,,,,,,,,,2,,,60,75
73440,set_tempo,240,1,0,,,,,,405405,,,,,,,
73440,note_on,240,0,3,,,,,,,,,2,,,56,0
73680,note_on,0,0,3,,,,,,,,,2,,,63,75
73680,set_tempo,240,1,0,,,,,,422535,,,,,,,
73680,note_on,240,0,3,,,,,,,,,2,,,60,0
73920,note_on,240,0,3,,,,,,,,,2,,,63,0
73920,set_tempo,240,1,0,,,,,,447761,,,,,,,
73920,note_on,0,0,3,,,,,,,,,2,,,68,75
74040,note_on,0,0,1,,,,,,,,,0,,,97,88
74040,note_on,600,0,1,,,,,,,,,0,,,99,0
74160,note_on,240,0,3,,,,,,,,,2,,,68,0
74160,note_on,120,0,1,,,,,,,,,0,,,97,0
74160,set_tempo,240,1,0,,,,,,468750,,,,,,,
74160,note_on,0,0,1,,,,,,,,,0,,,96,88
74280,note_on,120,0,1,,,,,,,,,0,,,96,0
74280,note_on,0,0,1,,,,,,,,,0,,,94,88
74400,note_on,240,0,3,,,,,,,,,2,,,49,62
74400,note_on,0,0,1,,,,,,,,,0,,,92,75
74400,set_tempo,240,1,0,,,,,,491803,,,,,,,
74400,note_on,120,0,1,,,,,,,,,0,,,94,0
74520,note_on,0,0,1,,,,,,,,,0,,,91,75
74520,note_on,120,0,1,,,,,,,,,0,,,92,0
74640,note_on,120,0,1,,,,,,,,,0,,,91,0
74640,note_on,0,0,1,,,,,,,,,0,,,89,75
74640,set_tempo,240,1,0,,,,,,517241,,,,,,,
74640,note_on,240,0,3,,,,,,,,,2,,,49,0
74640,note_on,0,0,3,,,,,,,,,2,,,58,62
74760,note_on,120,0,1,,,,,,,,,0,,,89,0
74760,note_on,0,0,1,,,,,,,,,0,,,87,75
74880,note_on,0,0,1,,,,,,,,,0,,,85,75
74880,set_tempo,240,1,0,,,,,,555556,,,,,,,
74880,note_on,240,0,3,,,,,,,,,2,,,58,0
74880,note_on,0,0,3,,,,,,,,,2,,,61,62
74880,note_on,120,0,1,,,,,,,,,0,,,87,0
75000,note_on,120,0,1,,,,,,,,,0,,,85,0
75000,note_on,0,0,1,,,,,,,,,0,,,84,75
75120,note_on,0,0,1,,,,,,,,,0,,,82,75
75120,note_on,0,0,3,,,,,,,,,2,,,65,62
75120,note_on,240,0,3,,,,,,,,,2,,,61,0
75120,note_on,120,0,1,,,,,,,,,0,,,84,0
75240,note_on,120,0,1,,,,,,,,,0,,,82,0
75240,note_on,0,0,1,,,,,,,,,0,,,80,75
75360,note_on,240,0,3,,,,,,,,,2,,,65,0
75360,note_on,0,0,3,,,,,,,,,2,,,68,49
75360,note_on,120,0,1,,,,,,,,,0,,,80,0
75360,note_on,0,0,1,,,,,,,,,0,,,79,62
75480,note_on,0,0,1,,,,,,,,,0,,,77,62
75480,note_on,120,0,1,,,,,,,,,0,,,79,0
75600,note_on,240,0,3,,,,,,,,,2,,,68,0
75600,note_on,120,0,1,,,,,,,,,0,,,77,0
75600,note_on,0,0,1,,,,,,,,,0,,,76,62
75600,control_change,0,0,3,,,,,,,,,2,64,0,,
75720,note_on,0,0,1,,,,,,,,,0,,,77,62
75720,note_on,120,0,1,,,,,,,,,0,,,76,0
75720,control_change,0,0,1,,,,,,,,,0,64,0,,
75840,note_on,120,0,1,,,,,,,,,0,,,77,0
75840,control_change,240,0,3,,,,,,,,,2,64,127,,
75840,note_on,0,0,1,,,,,,,,,0,,,75,62
75840,control_change,0,0,1,,,,,,,,,0,64,127,,
75840,note_on,0,0,3,,,,,,,,,2,,,51,49
75860,set_tempo,980,1,0,,,,,,375000,,,,,,,
75887,note_on,47,0,1,,,,,,,,,0,,,75,0
75887,note_on,0,0,1,,,,,,,,,0,,,77,62
75936,note_on,49,0,1,,,,,,,,,0,,,77,0
75936,note_on,0,0,1,,,,,,,,,0,,,75,62
75983,note_on,47,0,1,,,,,,,,,0,,,75,0
75983,note_on,0,0,1,,,,,,,,,0,,,74,62
76032,note_on,49,0,1,,,,,,,,,0,,,74,0
76032,note_on,0,0,1,,,,,,,,,0,,,75,62
76080,note_on,0,0,3,,,,,,,,,2,,,56,49
76080,note_on,0,0,1,,,,,,,,,0,,,84,62
76080,note_on,240,0,3,,,,,,,,,2,,,51,0
76080,note_on,48,0,1,,,,,,,,,0,,,75,0
76320,note_on,240,0,1,,,,,,,,,0,,,84,0
76320,note_on,240,0,3,,,,,,,,,2,,,56,0
76320,note_on,0,0,3,,,,,,,,,2,,,60,49
76320,control_change,0,0,1,,,,,,,,,0,64,0,,
76320,note_on,0,0,1,,,,,,,,,0,,,79,62
76560,note_on,0,0,1,,,,,,,,,0,,,80,62
76560,note_on,0,0,3,,,,,,,,,2,,,63,49
76560,note_on,240,0,1,,,,,,,,,0,,,79,0
76560,note_on,240,0,3,,,,,,,,,2,,,60,0
76800,note_on,0,0,3,,,,,,,,,2,,,68,49
76800,note_on,240,0,3,,,,,,,,,2,,,63,0
76800,note_on,240,0,1,,,,,,,,,0,,,80,0
76800,note_on,0,0,1,,,,,,,,,0,,,72,62
77040,note_on,240,0,3,,,,,,,,,2,,,68,0
77040,note_on,240,0,1,,,,,,,,,0,,,72,0
77040,note_on,0,0,1,,,,,,,,,0,,,77,62
77280,note_on,0,0,1,,,,,,,,,0,,,75,62
77280,note_on,240,0,1,,,,,,,,,0,,,77,0
77280,note_on,240,0,3,,,,,,,,,2,,,39,49
77520,note_on,240,0,1,,,,,,,,,0,,,75,0
77520,note_on,0,0,1,,,,,,,,,0,,,74,62
77520,note_on,0,0,3,,,,,,,,,2,,,46,49
77520,note_on,240,0,3,,,,,,,,,2,,,39,0
77760,note_on,240,0,1,,,,,,,,,0,,,74,0
77760,note_on,240,0,3,,,,,,,,,2,,,46,0
77760,note_on,0,0,1,,,,,,,,,0,,,73,62
77760,note_on,0,0,3,,,,,,,,,2,,,49,49
78000,note_on,240,0,3,,,,,,,,,2,,,49,0
78000,note_on,0,0,3,,,,,,,,,2,,,51,49
78000,note_on,0,0,1,,,,,,,,,0,,,70,62
78000,note_on,240,0,1,,,,,,,,,0,,,73,0
78240,note_on,0,0,3,,,,,,,,,2,,,55,49
78240,note_on,0,0,1,,,,,,,,,0,,,65,62
78240,note_on,240,0,3,,,,,,,,,2,,,51,0
78240,note_on,240,0,1,,,,,,,,,0,,,70,0
78480,note_on,240,0,3,,,,,,,,,2,,,55,0
78480,note_on,240,0,1,,,,,,,,,0,,,65,0
78480,control_change,0,0,3,,,,,,,,,2,64,0,,
78480,note_on,0,0,1,,,,,,,,,0,,,67,62
78720,control_change,240,0,3,,,,,,,,,2,64,127,,
78720,note_on,0,0,1,,,,,,,,,0,,,61,62
78720,note_on,0,0,1,,,,,,,,,0,,,63,62
78720,note_on,0,0,1,,,,,,,,,0,,,70,62
78720,note_on,0,0,3,,,,,,,,,2,,,44,49
78720,note_on,240,0,1,,,,,,,,,0,,,67,0
78960,note_on,240,0,3,,,,,,,,,2,,,44,0
78960,note_on,0,0,3,,,,,,,,,2,,,51,49
79200,note_on,240,0,3,,,,,,,,,2,,,51,0
79200,note_on,0,0,3,,,,,,,,,2,,,55,49
79440,note_on,0,0,3,,,,,,,,,2,,,51,49
79440,note_on,240,0,3,,,,,,,,,2,,,55,0
79680,note_on,240,0,3,,,,,,,,,2,,,51,0
79680,note_on,0,0,3,,,,,,,,,2,,,58,49
79920,note_on,240,0,3,,,,,,,,,2,,,58,0
79920,note_on,0,0,3,,,,,,,,,2,,,55,49
80160,note_on,0,0,1,,,,,,,,,0,,,60,62
80160,note_on,1440,0,1,,,,,,,,,0,,,70,0
80160,note_on,240,0,3,,,,,,,,,2,,,55,0
80160,note_on,0,0,1,,,,,,,,,0,,,63,0
80160,note_on,0,0,1,,,,,,,,,0,,,61,0
80160,note_on,0,0,1,,,,,,,,,0,,,68,62
80160,note_on,0,0,3,,,,,,,,,2,,,56,49
80400,note_on,0,0,1,,,,,,,,,0,,,60,0
80400,note_on,0,0,1,,,,,,,,,0,,,68,62
80400,note_on,240,0,1,,,,,,,,,0,,,68,0
80580,note_on,180,0,1,,,,,,,,,0,,,72,62
80640,note_on,0,0,1,,,,,,,,,0,,,68,0
80640,note_on,0,0,1,,,,,,,,,0,,,70,62
80640,note_on,0,0,3,,,,,,,,,2,,,44,49
80640,note_on,480,0,3,,,,,,,,,2,,,56,0
80640,note_on,60,0,1,,,,,,,,,0,,,72,0
80880,note_on,240,0,1,,,,,,,,,0,,,70,0
80880,note_on,0,0,1,,,,,,,,,0,,,68,62
81060,note_on,180,0,1,,,,,,,,,0,,,72,62
81120,note_on,0,0,1,,,,,,,,,0,,,70,62
81120,note_on,0,0,1,,,,,,,,,0,,,68,0
81120,note_on,480,0,3,,,,,,,,,2,,,44,0
81120,control_change,0,0,3,,,,,,,,,2,64,0,,
81120,note_on,60,0,1,,,,,,,,,0,,,72,0
81360,note_on,240,0,1,,,,,,,,,0,,,70,0
81360,note_on,0,0,1,,,,,,,,,0,,,68,62
81600,note_on,240,0,1,,,,,,,,,0,,,68,0
81600,note_on,0,0,3,,,,,,,,,2,,,37,62
81600,control_change,480,0,3,,,,,,,,,2,64,127,,
81600,note_on,0,0,1,,,,,,,,,0,,,77,75
81840,control_change,81840,0,2,,,,,,,,,1,64,127,,
81840,note_on,0,0,3,,,,,,,,,2,,,49,36
81840,note_on,0,0,2,,,,,,,,,1,,,65,36
81840,note_on,0,0,3,,,,,,,,,2,,,53,36
81840,note_on,0,0,3,,,,,,,,,2,,,56,36
81840,note_on,0,0,2,,,,,,,,,1,,,68,36
81840,note_on,240,0,3,,,,,,,,,2,,,37,0
82080,note_on,0,0,3,,,,,,,,,2,,,49,36
82080,note_on,0,0,3,,,,,,,,,2,,,49,0
82080,note_on,0,0,3,,,,,,,,,2,,,53,0
82080,note_on,0,0,3,,,,,,,,,2,,,53,36
82080,note_on,240,0,2,,,,,,,,,1,,,68,0
82080,note_on,240,0,3,,,,,,,,,2,,,56,0
82080,note_on,0,0,2,,,,,,,,,1,,,65,0
82080,note_on,0,0,2,,,,,,,,,1,,,65,36
82080,note_on,0,0,3,,,,,,,,,2,,,56,36
82080,note_on,0,0,2,,,,,,,,,1,,,68,36
82320,note_on,0,0,2,,,,,,,,,1,,,68,36
82320,note_on,0,0,3,,,,,,,,,2,,,56,36
82320,note_on,240,0,3,,,,,,,,,2,,,56,0
82320,note_on,240,0,2,,,,,,,,,1,,,68,0
82320,note_on,720,0,1,,,,,,,,,0,,,77,0
82320,note_on,0,0,3,,,,,,,,,2,,,49,36
82320,note_on,0,0,3,,,,,,,,,2,,,53,0
82320,note_on,0,0,3,,,,,,,,,2,,,53,36
82320,note_on,0,0,2,,,,,,,,,1,,,65,36
82320,note_on,0,0,1,,,,,,,,,0,,,76,75
82320,note_on,0,0,2,,,,,,,,,1,,,65,0
82320,note_on,0,0,3,,,,,,,,,2,,,49,0
82560,note_on,0,0,1,,,,,,,,,0,,,77,75
82560,note_on,0,0,3,,,,,,,,,2,,,56,36
82560,note_on,240,0,1,,,,,,,,,0,,,76,0
82560,note_on,240,0,3,,,,,,,,,2,,,56,0
82560,note_on,0,0,3,,,,,,,,,2,,,53,36
82560,note_on,0,0,3,,,,,,,,,2,,,53,0
82560,note_on,0,0,2,,,,,,,,,1,,,65,0
82560,note_on,0,0,3,,,,,,,,,2,,,49,0
82560,note_on,0,0,2,,,,,,,,,1,,,65,36
82560,note_on,0,0,2,,,,,,,,,1,,,68,36
82560,note_on,240,0,2,,,,,,,,,1,,,68,0
82560,note_on,0,0,3,,,,,,,,,2,,,49,36
82800,note_on,240,0,3,,,,,,,,,2,,,56,0
82800,note_on,0,0,2,,,,,,,,,1,,,65,0
82800,note_on,0,0,2,,,,,,,,,1,,,65,36
82800,note_on,0,0,2,,,,,,,,,1,,,68,36
82800,note_on,240,0,2,,,,,,,,,1,,,68,0
82800,note_on,240,0,1,,,,,,,,,0,,,77,0
82800,note_on,0,0,1,,,,,,,,,0,,,76,75
82800,note_on,0,0,3,,,,,,,,,2,,,53,36
82800,note_on,0,0,3,,,,,,,,,2,,,56,36
82800,note_on,0,0,3,,,,,,,,,2,,,49,36
82800,note_on,0,0,3,,,,,,,,,2,,,49,0
82800,note_on,0,0,3,,,,,,,,,2,,,53,0
83040,note_on,240,0,1,,,,,,,,,0,,,76,0
83040,note_on,0,0,3,,,,,,,,,2,,,53,36
83040,note_on,240,0,3,,,,,,,,,2,,,56,0
83040,note_on,0,0,3,,,,,,,,,2,,,49,0
83040,note_on,0,0,2,,,,,,,,,1,,,68,36
83040,note_on,0,0,3,,,,,,,,,2,,,53,0
83040,note_on,240,0,2,,,,,,,,,1,,,68,0
83040,note_on,0,0,2,,,,,,,,,1,,,65,36
83040,note_on,0,0,2,,,,,,,,,1,,,65,0
83040,note_on,0,0,3,,,,,,,,,2,,,49,36
83040,note_on,0,0,1,,,,,,,,,0,,,77,75
83040,note_on,0,0,3,,,,,,,,,2,,,56,36
83280,note_on,0,0,3,,,,,,,,,2,,,49,0
83280,note_on,240,0,3,,,,,,,,,2,,,56,0
83280,note_on,0,0,2,,,,,,,,,1,,,65,0
83280,note_on,240,0,2,,,,,,,,,1,,,68,0
83280,note_on,0,0,2,,,,,,,,,1,,,68,36
83280,note_on,240,0,1,,,,,,,,,0,,,77,0
83280,note_on,0,0,1,,,,,,,,,0,,,76,75
83280,note_on,0,0,3,,,,,,,,,2,,,56,36
83280,note_on,0,0,3,,,,,,,,,2,,,53,36
83280,note_on,0,0,3,,,,,,,,,2,,,53,0
83280,note_on,0,0,3,,,,,,,,,2,,,49,36
83280,note_on,0,0,2,,,,,,,,,1,,,65,36
83520,note_on,0,0,2,,,,,,,,,1,,,65,0
83520,note_on,240,0,1,,,,,,,,,0,,,76,0
83520,note_on,240,0,2,,,,,,,,,1,,,68,0
83520,note_on,240,0,3,,,,,,,,,2,,,56,0
83520,note_on,0,0,2,,,,,,,,,1,,,65,36
83520,note_on,0,0,2,,,,,,,,,1,,,68,36
83520,note_on,0,0,3,,,,,,,,,2,,,56,36
83520,note_on,0,0,3,,,,,,,,,2,,,53,36
83520,note_on,0,0,3,,,,,,,,,2,,,53,0
83520,note_on,0,0,3,,,,,,,,,2,,,49,36
83520,note_on,0,0,3,,,,,,,,,2,,,49,0
83520,note_on,0,0,1,,,,,,,,,0,,,77,75
83760,note_on,0,0,3,,,,,,,,,2,,,49,0
83760,note_on,0,0,3,,,,,,,,,2,,,49,36
83760,note_on,0,0,2,,,,,,,,,1,,,68,36
83760,note_on,240,0,3,,,,,,,,,2,,,56,0
83760,note_on,0,0,2,,,,,,,,,1,,,65,36
83760,note_on,0,0,2,,,,,,,,,1,,,65,0
83760,note_on,240,0,1,,,,,,,,,0,,,77,0
83760,note_on,0,0,3,,,,,,,,,2,,,53,0
83760,note_on,0,0,3,,,,,,,,,2,,,53,36
83760,note_on,240,0,2,,,,,,,,,1,,,68,0
83760,note_on,0,0,3,,,,,,,,,2,,,56,36
83760,note_on,0,0,1,,,,,,,,,0,,,75,75
84000,note_on,0,0,2,,,,,,,,,1,,,65,36
84000,note_on,0,0,2,,,,,,,,,1,,,65,0
84000,note_on,0,0,3,,,,,,,,,2,,,49,0
84000,note_on,0,0,3,,,,,,,,,2,,,49,36
84000,note_on,0,0,3,,,,,,,,,2,,,53,0
84000,note_on,0,0,3,,,,,,,,,2,,,53,36
84000,note_on,0,0,2,,,,,,,,,1,,,68,36
84000,note_on,0,0,3,,,,,,,,,2,,,56,36
84000,note_on,0,0,1,,,,,,,,,0,,,73,75
84000,note_on,240,0,3,,,,,,,,,2,,,56,0
84000,note_on,240,0,2,,,,,,,,,1,,,68,0
84000,note_on,240,0,1,,,,,,,,,0,,,75,0
84240,note_on,0,0,3,,,,,,,,,2,,,56,36
84240,note_on,0,0,3,,,,,,,,,2,,,49,36
84240,note_on,0,0,3,,,,,,,,,2,,,53,0
84240,note_on,240,0,1,,,,,,,,,0,,,73,0
84240,note_on,240,0,2,,,,,,,,,1,,,68,0
84240,note_on,0,0,2,,,,,,,,,1,,,68,36
84240,note_on,0,0,1,,,,,,,,,0,,,72,75
84240,note_on,0,0,2,,,,,,,,,1,,,65,0
84240,note_on,240,0,3,,,,,,,,,2,,,56,0
84240,control_change,0,0,2,,,,,,,,,1,64,0,,
84240,note_on,0,0,3,,,,,,,,,2,,,49,0
84240,control_change,0,0,3,,,,,,,,,2,64,0,,
84240,note_on,0,0,3,,,,,,,,,2,,,53,36
84240,note_on,0,0,2,,,,,,,,,1,,,65,36
84480,note_on,240,0,1,,,,,,,,,0,,,72,0
84480,control_change,0,0,2,,,,,,,,,1,64,127,,
84480,note_on,0,0,2,,,,,,,,,1,,,61,36
84480,note_on,0,0,3,,,,,,,,,2,,,56,36
84480,note_on,240,0,2,,,,,,,,,1,,,68,0
84480,note_on,240,0,3,,,,,,,,,2,,,56,0
84480,note_on,0,0,3,,,,,,,,,2,,,53,36
84480,note_on,0,0,3,,,,,,,,,2,,,53,0
84480,note_on,0,0,3,,,,,,,,,2,,,49,36
84480,note_on,0,0,3,,,,,,,,,2,,,49,0
84480,note_on,0,0,1,,,,,,,,,0,,,70,75
84480,note_on,0,0,2,,,,,,,,,1,,,65,0
84480,note_on,0,0,2,,,,,,,,,1,,,65,36
84480,control_change,0,0,3,,,,,,,,,2,64,127,,
84720,note_on,0,0,1,,,,,,,,,0,,,68,75
84720,note_on,240,0,1,,,,,,,,,0,,,70,0
84720,note_on,0,0,2,,,,,,,,,1,,,65,36
84720,note_on,0,0,3,,,,,,,,,2,,,49,0
84720,note_on,0,0,3,,,,,,,,,2,,,49,36
84720,note_on,0,0,3,,,,,,,,,2,,,53,0
84720,note_on,0,0,3,,,,,,,,,2,,,56,36
84720,note_on,240,0,3,,,,,,,,,2,,,56,0
84720,note_on,0,0,3,,,,,,,,,2,,,53,36
84720,note_on,0,0,2,,,,,,,,,1,,,61,0
84720,note_on,240,0,2,,,,,,,,,1,,,65,0
84720,note_on,0,0,2,,,,,,,,,1,,,61,36
84960,note_on,0,0,3,,,,,,,,,2,,,49,0
84960,note_on,240,0,2,,,,,,,,,1,,,65,0
84960,note_on,240,0,3,,,,,,,,,2,,,56,0
84960,note_on,240,0,1,,,,,,,,,0,,,68,0
84960,note_on,0,0,1,,,,,,,,,0,,,67,75
84960,note_on,0,0,3,,,,,,,,,2,,,56,36
84960,note_on,0,0,2,,,,,,,,,1,,,65,36
84960,note_on,0,0,2,,,,,,,,,1,,,61,36
84960,note_on,0,0,2,,,,,,,,,1,,,61,0
84960,note_on,0,0,3,,,,,,,,,2,,,49,36
84960,note_on,0,0,3,,,,,,,,,2,,,53,0
84960,note_on,0,0,3,,,,,,,,,2,,,53,36
85200,note_on,0,0,2,,,,,,,,,1,,,61,0
85200,note_on,240,0,3,,,,,,,,,2,,,56,0
85200,note_on,0,0,3,,,,,,,,,2,,,53,36
85200,note_on,0,0,3,,,,,,,,,2,,,53,0
85200,note_on,0,0,3,,,,,,,,,2,,,49,36
85200,note_on,0,0,3,,,,,,,,,2,,,56,36
85200,note_on,0,0,2,,,,,,,,,1,,,65,36
85200,note_on,0,0,1,,,,,,,,,0,,,68,75
85200,note_on,240,0,2,,,,,,,,,1,,,65,0
85200,note_on,240,0,1,,,,,,,,,0,,,67,0
85200,note_on,0,0,3,,,,,,,,,2,,,49,0
85200,note_on,0,0,2,,,,,,,,,1,,,61,36
85440,note_on,0,0,3,,,,,,,,,2,,,56,36
85440,note_on,0,0,3,,,,,,,,,2,,,53,36
85440,note_on,240,0,3,,,,,,,,,2,,,56,0
85440,note_on,0,0,3,,,,,,,,,2,,,53,0
85440,note_on,0,0,3,,,,,,,,,2,,,49,36
85440,note_on,240,0,1,,,,,,,,,0,,,68,0
85440,note_on,0,0,2,,,,,,,,,1,,,61,36
85440,note_on,240,0,2,,,,,,,,,1,,,65,0
85440,note_on,0,0,1,,,,,,,,,0,,,67,75
85440,note_on,0,0,3,,,,,,,,,2,,,49,0
85440,note_on,0,0,2,,,,,,,,,1,,,61,0
85440,note_on,0,0,2,,,,,,,,,1,,,65,36
85680,note_on,240,0,1,,,,,,,,,0,,,67,0
85680,note_on,0,0,2,,,,,,,,,1,,,61,36
85680,note_on,0,0,2,,,,,,,,,1,,,65,36
85680,note_on,0,0,3,,,,,,,,,2,,,56,36
85680,note_on,0,0,3,,,,,,,,,2,,,53,0
85680,note_on,0,0,3,,,,,,,,,2,,,49,36
85680,note_on,0,0,3,,,,,,,,,2,,,49,0
85680,note_on,0,0,1,,,,,,,,,0,,,68,75
85680,note_on,0,0,2,,,,,,,,,1,,,61,0
85680,note_on,240,0,2,,,,,,,,,1,,,65,0
85680,note_on,240,0,3,,,,,,,,,2,,,56,0
85680,note_on,0,0,3,,,,,,,,,2,,,53,36
85920,note_on,240,0,3,,,,,,,,,2,,,56,0
85920,note_on,0,0,3,,,,,,,,,2,,,53,0
85920,note_on,0,0,3,,,,,,,,,2,,,49,36
85920,note_on,0,0,3,,,,,,,,,2,,,53,36
85920,note_on,0,0,3,,,,,,,,,2,,,56,36
85920,note_on,0,0,2,,,,,,,,,1,,,61,0
85920,note_on,0,0,2,,,,,,,,,1,,,61,36
85920,note_on,0,0,2,,,,,,,,,1,,,65,36
85920,note_on,0,0,1,,,,,,,,,0,,,69,75
85920,note_on,240,0,2,,,,,,,,,1,,,65,0
85920,note_on,240,0,1,,,,,,,,,0,,,68,0
85920,note_on,0,0,3,,,,,,,,,2,,,49,0
86160,note_on,0,0,2,,,,,,,,,1,,,61,0
86160,note_on,0,0,2,,,,,,,,,1,,,61,36
86160,note_on,0,0,2,,,,,,,,,1,,,65,36
86160,note_on,0,0,1,,,,,,,,,0,,,70,75
86160,note_on,240,0,1,,,,,,,,,0,,,69,0
86160,note_on,240,0,2,,,,,,,,,1,,,65,0
86160,note_on,240,0,3,,,,,,,,,2,,,56,0
86160,note_on,0,0,3,,,,,,,,,2,,,56,36
86160,note_on,0,0,3,,,,,,,,,2,,,49,0
86160,note_on,0,0,3,,,,,,,,,2,,,49,36
86160,note_on,0,0,3,,,,,,,,,2,,,53,0
86160,note_on,0,0,3,,,,,,,,,2,,,53,36
86400,note_on,240,0,3,,,,,,,,,2,,,56,0
86400,note_on,0,0,3,,,,,,,,,2,,,49,36
86400,note_on,0,0,1,,,,,,,,,0,,,71,75
86400,note_on,0,0,3,,,,,,,,,2,,,53,0
86400,note_on,0,0,3,,,,,,,,,2,,,56,36
86400,note_on,0,0,3,,,,,,,,,2,,,53,36
86400,note_on,0,0,2,,,,,,,,,1,,,65,36
86400,note_on,0,0,3,,,,,,,,,2,,,49,0
86400,note_on,240,0,2,,,,,,,,,1,,,65,0
86400,note_on,240,0,1,,,,,,,,,0,,,70,0
86400,note_on,0,0,2,,,,,,,,,1,,,68,36
86400,note_on,0,0,2,,,,,,,,,1,,,61,0
86640,note_on,0,0,3,,,,,,,,,2,,,53,0
86640,note_on,0,0,2,,,,,,,,,1,,,65,0
86640,note_on,0,0,3,,,,,,,,,2,,,56,36
86640,note_on,0,0,2,,,,,,,,,1,,,65,36
86640,note_on,240,0,3,,,,,,,,,2,,,56,0
86640,note_on,0,0,3,,,,,,,,,2,,,53,36
86640,note_on,0,0,3,,,,,,,,,2,,,49,36
86640,note_on,0,0,2,,,,,,,,,1,,,68,36
86640,note_on,240,0,2,,,,,,,,,1,,,68,0
86640,note_on,0,0,1,,,,,,,,,0,,,72,75
86640,note_on,240,0,1,,,,,,,,,0,,,71,0
86640,note_on,0,0,3,,,,,,,,,2,,,49,0
86880,note_on,0,0,3,,,,,,,,,2,,,53,36
86880,note_on,240,0,3,,,,,,,,,2,,,56,0
86880,note_on,240,0,1,,,,,,,,,0,,,72,0
86880,note_on,0,0,3,,,,,,,,,2,,,53,0
86880,note_on,0,0,3,,,,,,,,,2,,,49,36
86880,note_on,0,0,1,,,,,,,,,0,,,73,75
86880,note_on,0,0,2,,,,,,,,,1,,,65,0
86880,note_on,0,0,2,,,,,,,,,1,,,65,36
86880,note_on,0,0,2,,,,,,,,,1,,,68,36
86880,note_on,0,0,3,,,,,,,,,2,,,56,36
86880,note_on,0,0,3,,,,,,,,,2,,,49,0
86880,note_on,240,0,2,,,,,,,,,1,,,68,0
87120,control_change,0,0,2,,,,,,,,,1,64,0,,
87120,note_on,240,0,3,,,,,,,,,2,,,56,0
87120,note_on,0,0,3,,,,,,,,,2,,,49,0
87120,note_on,0,0,2,,,,,,,,,1,,,68,36
87120,note_on,0,0,3,,,,,,,,,2,,,49,36
87120,note_on,0,0,2,,,,,,,,,1,,,65,0
87120,note_on,0,0,2,,,,,,,,,1,,,65,36
87120,note_on,0,0,3,,,,,,,,,2,,,53,0
87120,note_on,0,0,3,,,,,,,,,2,,,56,36
87120,note_on,0,0,1,,,,,,,,,0,,,74,75
87120,note_on,0,0,3,,,,,,,,,2,,,53,36
87120,note_on,240,0,1,,,,,,,,,0,,,73,0
87120,control_change,0,0,3,,,,,,,,,2,64,0,,
87120,note_on,240,0,2,,,,,,,,,1,,,68,0
87360,note_on,0,0,3,,,,,,,,,2,,,53,0
87360,note_on,0,0,3,,,,,,,,,2,,,37,62
87360,note_on,240,0,3,,,,,,,,,2,,,56,0
87360,note_on,240,0,2,,,,,,,,,1,,,68,0
87360,note_on,0,0,2,,,,,,,,,1,,,65,0
87360,note_on,0,0,1,,,,,,,,,0,,,75,75
87360,note_on,240,0,1,,,,,,,,,0,,,74,0
87360,control_change,0,0,3,,,,,,,,,2,64,127,,
87360,note_on,0,0,3,,,,,,,,,2,,,49,0
87600,note_on,240,0,3,,,,,,,,,2,,,37,0
87600,note_on,0,0,3,,,,,,,,,2,,,49,36
87600,note_on,0,0,3,,,,,,,,,2,,,54,36
87600,note_on,0,0,3,,,,,,,,,2,,,58,36
87600,note_on,0,0,2,,,,,,,,,1,,,66,36
87600,note_on,0,0,2,,,,,,,,,1,,,63,36
87600,control_change,240,0,2,,,,,,,,,1,64,127,,
87840,note_on,240,0,2,,,,,,,,,1,,,66,0
87840,note_on,0,0,2,,,,,,,,,1,,,63,36
87840,note_on,0,0,2,,,,,,,,,1,,,66,36
87840,note_on,0,0,3,,,,,,,,,2,,,54,36
87840,note_on,0,0,2,,,,,,,,,1,,,63,0
87840,note_on,240,0,3,,,,,,,,,2,,,58,0
87840,note_on,0,0,3,,,,,,,,,2,,,54,0
87840,note_on,0,0,3,,,,,,,,,2,,,49,0
87840,note_on,0,0,3,,,,,,,,,2,,,58,36
87840,note_on,0,0,3,,,,,,,,,2,,,49,36
88080,note_on,240,0,3,,,,,,,,,2,,,58,0
88080,note_on,0,0,3,,,,,,,,,2,,,49,36
88080,note_on,0,0,3,,,,,,,,,2,,,49,0
88080,note_on,0,0,2,,,,,,,,,1,,,63,0
88080,note_on,0,0,2,,,,,,,,,1,,,63,36
88080,note_on,0,0,2,,,,,,,,,1,,,66,36
88080,note_on,0,0,3,,,,,,,,,2,,,54,36
88080,note_on,240,0,2,,,,,,,,,1,,,66,0
88080,note_on,0,0,3,,,,,,,,,2,,,54,0
88080,note_on,0,0,3,,,,,,,,,2,,,58,36
88320,note_on,0,0,2,,,,,,,,,1,,,66,36
88320,note_on,0,0,2,,,,,,,,,1,,,63,36
88320,note_on,0,0,2,,,,,,,,,1,,,63,0
88320,note_on,0,0,1,,,,,,,,,0,,,70,75
88320,note_on,0,0,3,,,,,,,,,2,,,49,0
88320,note_on,0,0,3,,,,,,,,,2,,,49,36
88320,note_on,0,0,3,,,,,,,,,2,,,54,36
88320,note_on,0,0,3,,,,,,,,,2,,,58,36
88320,note_on,0,0,3,,,,,,,,,2,,,54,0
88320,note_on,960,0,1,,,,,,,,,0,,,75,0
88320,note_on,240,0,2,,,,,,,,,1,,,66,0
88320,note_on,240,0,3,,,,,,,,,2,,,58,0
88560,note_on,0,0,2,,,,,,,,,1,,,66,36
88560,note_on,0,0,3,,,,,,,,,2,,,49,0
88560,note_on,0,0,2,,,,,,,,,1,,,63,36
88560,note_on,240,0,2,,,,,,,,,1,,,66,0
88560,note_on,0,0,2,,,,,,,,,1,,,63,0
88560,note_on,240,0,3,,,,,,,,,2,,,58,0
88560,note_on,0,0,3,,,,,,,,,2,,,49,36
88560,note_on,0,0,3,,,,,,,,,2,,,54,0
88560,note_on,0,0,3,,,,,,,,,2,,,54,36
88560,note_on,0,0,3,,,,,,,,,2,,,58,36
88800,note_on,0,0,3,,,,,,,,,2,,,54,36
88800,note_on,0,0,3,,,,,,,,,2,,,54,0
88800,note_on,0,0,3,,,,,,,,,2,,,49,36
88800,note_on,240,0,3,,,,,,,,,2,,,58,0
88800,note_on,0,0,3,,,,,,,,,2,,,58,36
88800,note_on,0,0,2,,,,,,,,,1,,,63,0
88800,note_on,0,0,3,,,,,,,,,2,,,49,0
88800,note_on,0,0,2,,,,,,,,,1,,,66,36
88800,note_on,0,0,2,,,,,,,,,1,,,70,36
88800,note_on,240,0,2,,,,,,,,,1,,,66,0
88800,note_on,480,0,1,,,,,,,,,0,,,70,0
88800,note_on,0,0,1,,,,,,,,,0,,,78,75
89040,note_on,0,0,3,,,,,,,,,2,,,58,36
89040,note_on,240,0,2,,,,,,,,,1,,,70,0
89040,note_on,0,0,2,,,,,,,,,1,,,66,0
89040,note_on,0,0,3,,,,,,,,,2,,,54,36
89040,note_on,0,0,3,,,,,,,,,2,,,54,0
89040,note_on,0,0,3,,,,,,,,,2,,,49,36
89040,note_on,0,0,3,,,,,,,,,2,,,49,0
89040,note_on,240,0,3,,,,,,,,,2,,,58,0
89040,note_on,0,0,2,,,,,,,,,1,,,66,36
89040,note_on,0,0,2,,,,,,,,,1,,,70,36
89280,note_on,240,0,2,,,,,,,,,1,,,70,0
89280,note_on,0,0,3,,,,,,,,,2,,,54,0
89280,note_on,0,0,2,,,,,,,,,1,,,66,36
89280,note_on,0,0,2,,,,,,,,,1,,,66,0
89280,note_on,240,0,3,,,,,,,,,2,,,58,0
89280,note_on,0,0,3,,,,,,,,,2,,,58,36
89280,note_on,0,0,3,,,,,,,,,2,,,49,0
89280,note_on,0,0,3,,,,,,,,,2,,,49,36
89280,note_on,0,0,3,,,,,,,,,2,,,54,36
89280,note_on,0,0,2,,,,,,,,,1,,,70,36
89520,note_on,0,0,2,,,,,,,,,1,,,66,0
89520,note_on,0,0,2,,,,,,,,,1,,,66,36
89520,note_on,0,0,2,,,,,,,,,1,,,70,36
89520,note_on,0,0,1,,,,,,,,,0,,,77,75
89520,note_on,240,0,3,,,,,,,,,2,,,58,0
89520,note_on,240,0,2,,,,,,,,,1,,,70,0
89520,note_on,0,0,3,,,,,,,,,2,,,54,36
89520,note_on,720,0,1,,,,,,,,,0,,,78,0
89520,note_on,0,0,3,,,,,,,,,2,,,49,0
89520,note_on,0,0,3,,,,,,,,,2,,,49,36
89520,note_on,0,0,3,,,,,,,,,2,,,54,0
89520,note_on,0,0,3,,,,,,,,,2,,,58,36
89760,note_on,0,0,3,,,,,,,,,2,,,54,0
89760,note_on,0,0,2,,,,,,,,,1,,,66,36
89760,note_on,0,0,3,,,,,,,,,2,,,58,36
89760,note_on,0,0,3,,,,,,,,,2,,,54,36
89760,note_on,0,0,3,,,,,,,,,2,,,49,36
89760,note_on,0,0,3,,,,,,,,,2,,,49,0
89760,note_on,0,0,2,,,,,,,,,1,,,70,36
89760,note_on,240,0,3,,,,,,,,,2,,,58,0
89760,note_on,240,0,2,,,,,,,,,1,,,70,0
89760,note_on,240,0,1,,,,,,,,,0,,,77,0
89760,note_on,0,0,1,,,,,,,,,0,,,75,75
89760,note_on,0,0,2,,,,,,,,,1,,,66,0
90000,control_change,0,0,3,,,,,,,,,2,64,0,,
90000,note_on,0,0,3,,,,,,,,,2,,,58,36
90000,note_on,0,0,3,,,,,,,,,2,,,54,36
90000,note_on,0,0,2,,,,,,,,,1,,,70,36
90000,note_on,0,0,3,,,,,,,,,2,,,54,0
90000,note_on,240,0,1,,,,,,,,,0,,,75,0
90000,control_change,0,0,2,,,,,,,,,1,64,0,,
90000,note_on,0,0,3,,,,,,,,,2,,,49,0
90000,note_on,0,0,2,,,,,,,,,1,,,66,0
90000,note_on,240,0,3,,,,,,,,,2,,,58,0
90000,note_on,0,0,2,,,,,,,,,1,,,66,36
90000,note_on,0,0,1,,,,,,,,,0,,,73,75
90000,note_on,0,0,3,,,,,,,,,2,,,49,36
90000,note_on,240,0,2,,,,,,,,,1,,,70,0
90240,note_on,0,0,2,,,,,,,,,1,,,66,0
90240,note_on,240,0,1,,,,,,,,,0,,,73,0
90240,note_on,240,0,3,,,,,,,,,2,,,58,0
90240,note_on,0,0,1,,,,,,,,,0,,,73,75
90240,control_change,0,0,3,,,,,,,,,2,64,127,,
90240,note_on,0,0,3,,,,,,,,,2,,,37,62
90240,note_on,0,0,3,,,,,,,,,2,,,49,0
90240,note_on,0,0,3,,,,,,,,,2,,,54,0
90240,note_on,240,0,2,,,,,,,,,1,,,70,0
90480,note_on,0,0,2,,,,,,,,,1,,,63,36
90480,note_on,0,0,2,,,,,,,,,1,,,66,36
90480,note_on,0,0,3,,,,,,,,,2,,,49,36
90480,note_on,0,0,3,,,,,,,,,2,,,56,36
90480,control_change,240,0,2,,,,,,,,,1,64,127,,
90480,note_on,0,0,3,,,,,,,,,2,,,60,36
90480,note_on,240,0,3,,,,,,,,,2,,,37,0
90720,note_on,240,0,3,,,,,,,,,2,,,60,0
90720,note_on,0,0,3,,,,,,,,,2,,,60,36
90720,note_on,0,0,3,,,,,,,,,2,,,56,36
90720,note_on,0,0,3,,,,,,,,,2,,,56,0
90720,note_on,240,0,2,,,,,,,,,1,,,66,0
90720,note_on,0,0,3,,,,,,,,,2,,,49,0
90720,note_on,0,0,2,,,,,,,,,1,,,63,0
90720,note_on,0,0,2,,,,,,,,,1,,,63,36
90720,note_on,0,0,2,,,,,,,,,1,,,66,36
90720,note_on,0,0,3,,,,,,,,,2,,,49,36
90960,note_on,0,0,1,,,,,,,,,0,,,72,75
90960,note_on,720,0,1,,,,,,,,,0,,,73,0
90960,note_on,0,0,3,,,,,,,,,2,,,49,0
90960,note_on,0,0,3,,,,,,,,,2,,,49,36
90960,note_on,0,0,3,,,,,,,,,2,,,56,0
90960,note_on,0,0,3,,,,,,,,,2,,,56,36
90960,note_on,0,0,3,,,,,,,,,2,,,60,36
90960,note_on,0,0,2,,,,,,,,,1,,,63,0
90960,note_on,0,0,2,,,,,,,,,1,,,63,36
90960,note_on,240,0,3,,,,,,,,,2,,,60,0
90960,note_on,240,0,2,,,,,,,,,1,,,66,0
90960,note_on,0,0,2,,,,,,,,,1,,,66,36
91200,note_on,0,0,3,,,,,,,,,2,,,49,36
91200,note_on,240,0,1,,,,,,,,,0,,,72,0
91200,note_on,0,0,3,,,,,,,,,2,,,56,0
91200,note_on,0,0,3,,,,,,,,,2,,,56,36
91200,note_on,0,0,3,,,,,,,,,2,,,60,36
91200,note_on,240,0,2,,,,,,,,,1,,,66,0
91200,note_on,0,0,2,,,,,,,,,1,,,66,36
91200,note_on,0,0,2,,,,,,,,,1,,,63,36
91200,note_on,0,0,2,,,,,,,,,1,,,63,0
91200,note_on,0,0,1,,,,,,,,,0,,,70,75
91200,note_on,0,0,3,,,,,,,,,2,,,49,0
91200,note_on,240,0,3,,,,,,,,,2,,,60,0
91440,note_on,0,0,1,,,,,,,,,0,,,68,75
91440,note_on,0,0,2,,,,,,,,,1,,,63,36
91440,note_on,240,0,2,,,,,,,,,1,,,66,0
91440,note_on,0,0,2,,,,,,,,,1,,,63,0
91440,note_on,0,0,3,,,,,,,,,2,,,56,36
91440,note_on,0,0,3,,,,,,,,,2,,,56,0
91440,note_on,0,0,3,,,,,,,,,2,,,49,36
91440,note_on,0,0,3,,,,,,,,,2,,,49,0
91440,note_on,240,0,3,,,,,,,,,2,,,60,0
91440,note_on,240,0,1,,,,,,,,,0,,,70,0
91440,note_on,0,0,3,,,,,,,,,2,,,60,36
91440,note_on,0,0,2,,,,,,,,,1,,,66,36
91680,note_on,240,0,3,,,,,,,,,2,,,60,0
91680,note_on,0,0,2,,,,,,,,,1,,,66,36
91680,note_on,0,0,1,,,,,,,,,0,,,67,75
91680,note_on,0,0,2,,,,,,,,,1,,,63,36
91680,note_on,0,0,2,,,,,,,,,1,,,63,0
91680,note_on,240,0,1,,,,,,,,,0,,,68,0
91680,note_on,0,0,3,,,,,,,,,2,,,49,0
91680,note_on,0,0,3,,,,,,,,,2,,,60,36
91680,note_on,0,0,3,,,,,,,,,2,,,49,36
91680,note_on,0,0,3,,,,,,,,,2,,,56,36
91680,note_on,240,0,2,,,,,,,,,1,,,66,0
91680,note_on,0,0,3,,,,,,,,,2,,,56,0
91920,note_on,0,0,2,,,,,,,,,1,,,63,0
91920,note_on,240,0,2,,,,,,,,,1,,,66,0
91920,note_on,0,0,3,,,,,,,,,2,,,60,36
91920,note_on,0,0,3,,,,,,,,,2,,,56,36
91920,note_on,0,0,3,,,,,,,,,2,,,56,0
91920,note_on,0,0,3,,,,,,,,,2,,,49,36
91920,note_on,0,0,1,,,,,,,,,0,,,68,75
91920,note_on,0,0,2,,,,,,,,,1,,,63,36
91920,note_on,0,0,3,,,,,,,,,2,,,49,0
91920,note_on,240,0,3,,,,,,,,,2,,,60,0
91920,note_on,0,0,2,,,,,,,,,1,,,66,36
91920,note_on,240,0,1,,,,,,,,,0,,,67,0
92160,note_on,0,0,2,,,,,,,,,1,,,66,36
92160,note_on,0,0,3,,,,,,,,,2,,,56,36
92160,note_on,0,0,3,,,,,,,,,2,,,60,36
92160,note_on,0,0,3,,,,,,,,,2,,,49,0
92160,note_on,0,0,3,,,,,,,,,2,,,56,0
92160,note_on,240,0,2,,,,,,,,,1,,,66,0
92160,note_on,240,0,1,,,,,,,,,0,,,68,0
92160,note_on,0,0,3,,,,,,,,,2,,,49,36
92160,note_on,240,0,3,,,,,,,,,2,,,60,0
92160,note_on,0,0,1,,,,,,,,,0,,,67,75
92160,note_on,0,0,2,,,,,,,,,1,,,63,0
92160,note_on,0,0,2,,,,,,,,,1,,,63,36
92400,note_on,240,0,1,,,,,,,,,0,,,67,0
92400,note_on,0,0,3,,,,,,,,,2,,,49,0
92400,note_on,0,0,3,,,,,,,,,2,,,49,36
92400,note_on,0,0,3,,,,,,,,,2,,,56,0
92400,note_on,0,0,3,,,,,,,,,2,,,56,36
92400,note_on,0,0,3,,,,,,,,,2,,,60,36
92400,note_on,240,0,3,,,,,,,,,2,,,60,0
92400,note_on,0,0,2,,,,,,,,,1,,,66,36
92400,note_on,0,0,2,,,,,,,,,1,,,63,36
92400,note_on,0,0,2,,,,,,,,,1,,,63,0
92400,note_on,240,0,2,,,,,,,,,1,,,66,0
92400,note_on,0,0,1,,,,,,,,,0,,,68,75
92580,note_on,180,0,1,,,,,,,,,0,,,72,75
92640,note_on,0,0,2,,,,,,,,,1,,,63,0
92640,note_on,0,0,1,,,,,,,,,0,,,70,75
92640,note_on,0,0,2,,,,,,,,,1,,,63,36
92640,note_on,0,0,1,,,,,,,,,0,,,68,0
92640,note_on,240,0,3,,,,,,,,,2,,,60,0
92640,note_on,0,0,3,,,,,,,,,2,,,49,36
92640,note_on,0,0,3,,,,,,,,,2,,,56,0
92640,note_on,0,0,3,,,,,,,,,2,,,56,36
92640,note_on,0,0,3,,,,,,,,,2,,,60,36
92640,note_on,240,0,2,,,,,,,,,1,,,66,0
92640,note_on,0,0,2,,,,,,,,,1,,,66,36
92640,note_on,60,0,1,,,,,,,,,0,,,72,0
92640,note_on,0,0,3,,,,,,,,,2,,,49,0
92880,note_on,240,0,2,,,,,,,,,1,,,66,0
92880,note_on,240,0,1,,,,,,,,,0,,,70,0
92880,control_change,0,0,2,,,,,,,,,1,64,0,,
92880,note_on,240,0,3,,,,,,,,,2,,,60,0
92880,control_change,0,0,3,,,,,,,,,2,64,0,,
92880,note_on,0,0,1,,,,,,,,,0,,,68,75
92880,note_on,0,0,3,,,,,,,,,2,,,49,0
92880,note_on,0,0,3,,,,,,,,,2,,,49,36
92880,note_on,0,0,3,,,,,,,,,2,,,56,0
92880,note_on,0,0,3,,,,,,,,,2,,,56,36
92880,note_on,0,0,2,,,,,,,,,1,,,63,0
92880,note_on,0,0,2,,,,,,,,,1,,,63,36
92880,note_on,0,0,2,,,,,,,,,1,,,66,36
92880,note_on,0,0,3,,,,,,,,,2,,,60,36
93120,note_on,240,0,1,,,,,,,,,0,,,68,0
93120,note_on,0,0,3,,,,,,,,,2,,,56,0
93120,note_on,0,0,3,,,,,,,,,2,,,49,0
93120,note_on,0,0,3,,,,,,,,,2,,,37,62
93120,note_on,240,0,3,,,,,,,,,2,,,60,0
93120,note_on,0,0,2,,,,,,,,,1,,,63,0
93120,control_change,0,0,3,,,,,,,,,2,64,127,,
93120,note_on,240,0,2,,,,,,,,,1,,,66,0
93120,note_on,0,0,1,,,,,,,,,0,,,80,75
93360,note_on,240,0,3,,,,,,,,,2,,,37,0
93360,note_on,0,0,2,,,,,,,,,1,,,65,36
93360,note_on,0,0,3,,,,,,,,,2,,,61,36
93360,note_on,0,0,2,,,,,,,,,1,,,68,36
93360,note_on,0,0,3,,,,,,,,,2,,,49,36
93360,control_change,240,0,2,,,,,,,,,1,64,127,,
93360,note_on,0,0,3,,,,,,,,,2,,,56,36
93600,note_on,0,0,3,,,,,,,,,2,,,49,36
93600,note_on,0,0,3,,,,,,,,,2,,,56,0
93600,note_on,240,0,2,,,,,,,,,1,,,68,0
93600,note_on,0,0,3,,,,,,,,,2,,,56,36
93600,note_on,0,0,3,,,,,,,,,2,,,61,36
93600,note_on,0,0,3,,,,,,,,,2,,,49,0
93600,note_on,240,0,3,,,,,,,,,2,,,61,0
93600,note_on,0,0,2,,,,,,,,,1,,,65,0
93600,note_on,0,0,2,,,,,,,,,1,,,65,36
93600,note_on,0,0,2,,,,,,,,,1,,,68,36
93840,note_on,0,0,3,,,,,,,,,2,,,61,36
93840,note_on,0,0,3,,,,,,,,,2,,,49,0
93840,note_on,0,0,3,,,,,,,,,2,,,49,36
93840,note_on,0,0,3,,,,,,,,,2,,,56,0
93840,note_on,0,0,3,,,,,,,,,2,,,56,36
93840,note_on,240,0,3,,,,,,,,,2,,,61,0
93840,note_on,0,0,2,,,,,,,,,1,,,65,36
93840,note_on,0,0,2,,,,,,,,,1,,,65,0
93840,note_on,240,0,2,,,,,,,,,1,,,68,0
93840,note_on,0,0,2,,,,,,,,,1,,,68,36
94080,note_on,0,0,2,,,,,,,,,1,,,65,0
94080,note_on,0,0,2,,,,,,,,,1,,,65,36
94080,note_on,0,0,3,,,,,,,,,2,,,61,36
94080,note_on,0,0,3,,,,,,,,,2,,,56,36
94080,note_on,0,0,3,,,,,,,,,2,,,56,0
94080,note_on,0,0,3,,,,,,,,,2,,,49,36
94080,note_on,0,0,3,,,,,,,,,2,,,49,0
94080,note_on,240,0,3,,,,,,,,,2,,,61,0
94080,note_on,240,0,2,,,,,,,,,1,,,68,0
94080,note_on,0,0,2,,,,,,,,,1,,,68,36
94320,note_on,0,0,2,,,,,,,,,1,,,65,0
94320,note_on,0,0,2,,,,,,,,,1,,,65,36
94320,note_on,0,0,3,,,,,,,,,2,,,49,0
94320,note_on,0,0,3,,,,,,,,,2,,,49,36
94320,note_on,0,0,3,,,,,,,,,2,,,56,0
94320,note_on,0,0,3,,,,,,,,,2,,,56,36
94320,note_on,0,0,3,,,,,,,,,2,,,61,36
94320,note_on,240,0,2,,,,,,,,,1,,,68,0
94320,note_on,0,0,2,,,,,,,,,1,,,68,36
94320,note_on,240,0,3,,,,,,,,,2,,,61,0
94560,note_on,0,0,1,,,,,,,,,0,,,77,75
94560,note_on,1440,0,1,,,,,,,,,0,,,80,0
94560,note_on,240,0,2,,,,,,,,,1,,,68,0
94560,note_on,0,0,2,,,,,,,,,1,,,68,36
94560,note_on,0,0,2,,,,,,,,,1,,,65,0
94560,note_on,0,0,3,,,,,,,,,2,,,49,36
94560,note_on,0,0,3,,,,,,,,,2,,,56,0
94560,note_on,0,0,3,,,,,,,,,2,,,56,36
94560,note_on,0,0,3,,,,,,,,,2,,,61,36
94560,note_on,0,0,2,,,,,,,,,1,,,65,36
94560,note_on,240,0,3,,,,,,,,,2,,,61,0
94560,note_on,0,0,3,,,,,,,,,2,,,49,0
94800,note_on,240,0,3,,,,,,,,,2,,,61,0
94800,note_on,240,0,2,,,,,,,,,1,,,68,0
94800,note_on,0,0,3,,,,,,,,,2,,,56,0
94800,note_on,0,0,3,,,,,,,,,2,,,56,36
94800,note_on,0,0,2,,,,,,,,,1,,,68,36
94800,note_on,0,0,3,,,,,,,,,2,,,49,0
94800,note_on,0,0,3,,,,,,,,,2,,,49,36
94800,note_on,0,0,2,,,,,,,,,1,,,65,36
94800,note_on,0,0,3,,,,,,,,,2,,,61,36
94800,note_on,0,0,2,,,,,,,,,1,,,65,0
95040,note_on,480,0,1,,,,,,,,,0,,,77,0
95040,note_on,0,0,2,,,,,,,,,1,,,65,0
95040,note_on,0,0,2,,,,,,,,,1,,,65,36
95040,note_on,0,0,2,,,,,,,,,1,,,68,36
95040,note_on,240,0,2,,,,,,,,,1,,,68,0
95040,note_on,240,0,3,,,,,,,,,2,,,61,0
95040,note_on,0,0,3,,,,,,,,,2,,,49,0
95040,note_on,0,0,3,,,,,,,,,2,,,49,36
95040,note_on,0,0,3,,,,,,,,,2,,,56,0
95040,note_on,0,0,3,,,,,,,,,2,,,61,36
95040,note_on,0,0,3,,,,,,,,,2,,,56,36
95280,note_on,0,0,3,,,,,,,,,2,,,61,36
95280,note_on,0,0,3,,,,,,,,,2,,,56,36
95280,note_on,0,0,3,,,,,,,,,2,,,56,0
95280,note_on,0,0,2,,,,,,,,,1,,,65,0
95280,note_on,0,0,2,,,,,,,,,1,,,65,36
95280,note_on,0,0,2,,,,,,,,,1,,,68,36
95280,note_on,0,0,3,,,,,,,,,2,,,49,36
95280,note_on,240,0,2,,,,,,,,,1,,,68,0
95280,note_on,240,0,3,,,,,,,,,2,,,61,0
95280,note_on,0,0,3,,,,,,,,,2,,,49,0
95520,note_on,0,0,2,,,,,,,,,1,,,65,36
95520,note_on,0,0,2,,,,,,,,,1,,,68,36
95520,note_on,480,0,1,,,,,,,,,0,,,77,75
95520,note_on,0,0,3,,,,,,,,,2,,,56,0
95520,note_on,0,0,3,,,,,,,,,2,,,61,36
95520,note_on,0,0,3,,,,,,,,,2,,,56,36
95520,note_on,240,0,3,,,,,,,,,2,,,61,0
95520,note_on,0,0,2,,,,,,,,,1,,,65,0
95520,note_on,0,0,3,,,,,,,,,2,,,49,36
95520,note_on,0,0,3,,,,,,,,,2,,,49,0
95520,note_on,240,0,2,,,,,,,,,1,,,68,0
95760,note_on,0,0,2,,,,,,,,,1,,,65,36
95760,note_on,0,0,3,,,,,,,,,2,,,49,0
95760,note_on,0,0,3,,,,,,,,,2,,,49,36
95760,note_on,0,0,3,,,,,,,,,2,,,56,0
95760,control_change,0,0,3,,,,,,,,,2,64,0,,
95760,note_on,240,0,2,,,,,,,,,1,,,68,0
95760,note_on,0,0,3,,,,,,,,,2,,,56,36
95760,note_on,0,0,2,,,,,,,,,1,,,68,36
95760,note_on,0,0,2,,,,,,,,,1,,,65,0
95760,note_on,240,0,3,,,,,,,,,2,,,61,0
95760,note_on,0,0,3,,,,,,,,,2,,,61,36
95760,control_change,0,0,2,,,,,,,,,1,64,0,,
96000,note_on,0,0,3,,,,,,,,,2,,,56,0
96000,note_on,0,0,2,,,,,,,,,1,,,65,0
96000,note_on,240,0,2,,,,,,,,,1,,,68,0
96000,note_on,480,0,1,,,,,,,,,0,,,77,0
96000,note_on,0,0,1,,,,,,,,,0,,,77,75
96000,control_change,0,0,3,,,,,,,,,2,64,127,,
96000,note_on,240,0,3,,,,,,,,,2,,,61,0
96000,note_on,0,0,3,,,,,,,,,2,,,49,0
96000,note_on,0,0,3,,,,,,,,,2,,,45,62
96240,note_on,0,0,3,,,,,,,,,2,,,53,36
96240,note_on,0,0,2,,,,,,,,,1,,,65,36
96240,note_on,240,0,3,,,,,,,,,2,,,45,0
96240,note_on,0,0,2,,,,,,,,,1,,,72,36
96240,note_on,0,0,3,,,,,,,,,2,,,63,36
96240,note_on,0,0,3,,,,,,,,,2,,,60,36
96240,control_change,240,0,2,,,,,,,,,1,64,127,,
96480,note_on,0,0,3,,,,,,,,,2,,,63,36
96480,note_on,0,0,3,,,,,,,,,2,,,60,36
96480,note_on,0,0,3,,,,,,,,,2,,,60,0
96480,note_on,0,0,3,,,,,,,,,2,,,53,36
96480,note_on,0,0,3,,,,,,,,,2,,,53,0
96480,note_on,0,0,2,,,,,,,,,1,,,65,36
96480,note_on,0,0,2,,,,,,,,,1,,,65,0
96480,note_on,240,0,2,,,,,,,,,1,,,72,0
96480,note_on,240,0,3,,,,,,,,,2,,,63,0
96480,note_on,0,0,2,,,,,,,,,1,,,72,36
96720,note_on,240,0,2,,,,,,,,,1,,,72,0
96720,note_on,0,0,3,,,,,,,,,2,,,53,0
96720,note_on,0,0,3,,,,,,,,,2,,,53,36
96720,note_on,0,0,3,,,,,,,,,2,,,60,0
96720,note_on,0,0,1,,,,,,,,,0,,,76,75
96720,note_on,0,0,2,,,,,,,,,1,,,65,0
96720,note_on,0,0,3,,,,,,,,,2,,,63,36
96720,note_on,240,0,3,,,,,,,,,2,,,63,0
96720,note_on,720,0,1,,,,,,,,,0,,,77,0
96720,note_on,0,0,3,,,,,,,,,2,,,60,36
96720,note_on,0,0,2,,,,,,,,,1,,,72,36
96720,note_on,0,0,2,,,,,,,,,1,,,65,36
96960,note_on,240,0,1,,,,,,,,,0,,,76,0
96960,note_on,240,0,3,,,,,,,,,2,,,63,0
96960,note_on,0,0,3,,,,,,,,,2,,,60,36
96960,note_on,0,0,3,,,,,,,,,2,,,60,0
96960,note_on,0,0,3,,,,,,,,,2,,,63,36
96960,note_on,0,0,2,,,,,,,,,1,,,65,0
96960,note_on,0,0,2,,,,,,,,,1,,,65,36
96960,note_on,0,0,2,,,,,,,,,1,,,72,36
96960,note_on,0,0,3,,,,,,,,,2,,,53,36
96960,note_on,0,0,3,,,,,,,,,2,,,53,0
96960,note_on,0,0,1,,,,,,,,,0,,,77,75
96960,note_on,240,0,2,,,,,,,,,1,,,72,0
97200,note_on,0,0,3,,,,,,,,,2,,,53,0
97200,note_on,0,0,3,,,,,,,,,2,,,53,36
97200,note_on,0,0,3,,,,,,,,,2,,,60,0
97200,note_on,0,0,3,,,,,,,,,2,,,60,36
97200,note_on,0,0,3,,,,,,,,,2,,,63,36
97200,note_on,240,0,3,,,,,,,,,2,,,63,0
97200,note_on,240,0,2,,,,,,,,,1,,,72,0
97200,note_on,240,0,1,,,,,,,,,0,,,77,0
97200,note_on,0,0,1,,,,,,,,,0,,,76,75
97200,note_on,0,0,2,,,,,,,,,1,,,72,36
97200,note_on,0,0,2,,,,,,,,,1,,,65,36
97200,note_on,0,0,2,,,,,,,,,1,,,65,0
97440,note_on,0,0,3,,,,,,,,,2,,,53,0
97440,note_on,0,0,1,,,,,,,,,0,,,77,75
97440,note_on,240,0,1,,,,,,,,,0,,,76,0
97440,note_on,0,0,2,,,,,,,,,1,,,72,36
97440,note_on,0,0,2,,,,,,,,,1,,,65,36
97440,note_on,0,0,2,,,,,,,,,1,,,65,0
97440,note_on,0,0,3,,,,,,,,,2,,,53,36
97440,note_on,0,0,3,,,,,,,,,2,,,60,0
97440,note_on,0,0,3,,,,,,,,,2,,,60,36
97440,note_on,0,0,3,,,,,,,,,2,,,63,36
97440,note_on,240,0,2,,,,,,,,,1,,,72,0
97440,note_on,240,0,3,,,,,,,,,2,,,63,0
97680,note_on,0,0,3,,,,,,,,,2,,,53,36
97680,note_on,240,0,3,,,,,,,,,2,,,63,0
97680,note_on,0,0,2,,,,,,,,,1,,,72,36
97680,note_on,0,0,2,,,,,,,,,1,,,65,36
97680,note_on,0,0,2,,,,,,,,,1,,,65,0
97680,note_on,0,0,3,,,,,,,,,2,,,53,0
97680,note_on,240,0,1,,,,,,,,,0,,,77,0
97680,note_on,240,0,2,,,,,,,,,1,,,72,0
97680,note_on,0,0,3,,,,,,,,,2,,,63,36
97680,note_on,0,0,3,,,,,,,,,2,,,60,36
97680,note_on,0,0,3,,,,,,,,,2,,,60,0
97680,note_on,0,0,1,,,,,,,,,0,,,76,75
97920,note_on,0,0,3,,,,,,,,,2,,,60,0
97920,note_on,0,0,3,,,,,,,,,2,,,60,36
97920,note_on,0,0,3,,,,,,,,,2,,,63,36
97920,note_on,0,0,3,,,,,,,,,2,,,53,0
97920,note_on,240,0,1,,,,,,,,,0,,,76,0
97920,note_on,0,0,2,,,,,,,,,1,,,65,0
97920,note_on,0,0,2,,,,,,,,,1,,,65,36
97920,note_on,0,0,2,,,,,,,,,1,,,72,36
97920,note_on,240,0,3,,,,,,,,,2,,,63,0
97920,note_on,240,0,2,,,,,,,,,1,,,72,0
97920,note_on,0,0,1,,,,,,,,,0,,,77,75
97920,note_on,0,0,3,,,,,,,,,2,,,53,36
98160,note_on,0,0,3,,,,,,,,,2,,,60,36
98160,note_on,0,0,2,,,,,,,,,1,,,65,36
98160,note_on,0,0,2,,,,,,,,,1,,,72,36
98160,note_on,0,0,3,,,,,,,,,2,,,63,36
98160,note_on,0,0,3,,,,,,,,,2,,,60,0
98160,note_on,0,0,1,,,,,,,,,0,,,78,75
98160,note_on,240,0,3,,,,,,,,,2,,,63,0
98160,note_on,0,0,2,,,,,,,,,1,,,65,0
98160,note_on,240,0,1,,,,,,,,,0,,,77,0
98160,note_on,0,0,3,,,,,,,,,2,,,53,36
98160,note_on,0,0,3,,,,,,,,,2,,,53,0
98160,note_on,240,0,2,,,,,,,,,1,,,72,0
98400,note_on,0,0,1,,,,,,,,,0,,,77,75
98400,note_on,240,0,1,,,,,,,,,0,,,78,0
98400,note_on,0,0,3,,,,,,,,,2,,,60,0
98400,note_on,0,0,3,,,,,,,,,2,,,60,36
98400,note_on,240,0,2,,,,,,,,,1,,,72,0
98400,note_on,0,0,2,,,,,,,,,1,,,72,36
98400,note_on,0,0,2,,,,,,,,,1,,,65,36
98400,note_on,0,0,2,,,,,,,,,1,,,65,0
98400,note_on,0,0,3,,,,,,,,,2,,,53,0
98400,note_on,0,0,3,,,,,,,,,2,,,53,36
98400,note_on,240,0,3,,,,,,,,,2,,,63,0
98400,note_on,0,0,3,,,,,,,,,2,,,63,36
98640,note_on,0,0,2,,,,,,,,,1,,,72,36
98640,note_on,240,0,1,,,,,,,,,0,,,77,0
98640,note_on,0,0,3,,,,,,,,,2,,,53,0
98640,note_on,0,0,3,,,,,,,,,2,,,53,36
98640,note_on,0,0,2,,,,,,,,,1,,,65,36
98640,note_on,0,0,3,,,,,,,,,2,,,60,36
98640,note_on,0,0,3,,,,,,,,,2,,,63,36
98640,control_change,0,0,2,,,,,,,,,1,64,0,,
98640,note_on,0,0,2,,,,,,,,,1,,,65,0
98640,control_change,0,0,3,,,,,,,,,2,64,0,,
98640,note_on,0,0,1,,,,,,,,,0,,,75,75
98640,note_on,240,0,3,,,,,,,,,2,,,63,0
98640,note_on,240,0,2,,,,,,,,,1,,,72,0
98640,note_on,0,0,3,,,,,,,,,2,,,60,0
98880,note_on,0,0,3,,,,,,,,,2,,,46,62
98880,note_on,0,0,3,,,,,,,,,2,,,60,0
98880,control_change,0,0,3,,,,,,,,,2,64,127,,
98880,note_on,0,0,1,,,,,,,,,0,,,75,75
98880,control_change,0,0,2,,,,,,,,,1,64,127,,
98880,note_on,240,0,3,,,,,,,,,2,,,63,0
98880,note_on,0,0,2,,,,,,,,,1,,,65,0
98880,note_on,0,0,3,,,,,,,,,2,,,53,0
98880,note_on,240,0,2,,,,,,,,,1,,,72,0
98880,note_on,240,0,1,,,,,,,,,0,,,75,0
99120,note_on,240,0,2,,,,,,,,,1,,,65,36
99120,note_on,0,0,3,,,,,,,,,2,,,61,36
99120,note_on,0,0,3,,,,,,,,,2,,,58,36
99120,note_on,0,0,3,,,,,,,,,2,,,53,36
99120,note_on,240,0,3,,,,,,,,,2,,,46,0
99120,note_on,0,0,2,,,,,,,,,1,,,70,36
99360,note_on,0,0,3,,,,,,,,,2,,,58,0
99360,note_on,0,0,3,,,,,,,,,2,,,53,36
99360,note_on,0,0,3,,,,,,,,,2,,,53,0
99360,note_on,240,0,2,,,,,,,,,1,,,70,0
99360,note_on,0,0,3,,,,,,,,,2,,,58,36
99360,note_on,240,0,3,,,,,,,,,2,,,61,0
99360,note_on,0,0,3,,,,,,,,,2,,,61,36
99360,note_on,0,0,2,,,,,,,,,1,,,65,0
99360,note_on,0,0,2,,,,,,,,,1,,,65,36
99360,note_on,0,0,2,,,,,,,,,1,,,70,36
99600,note_on,0,0,3,,,,,,,,,2,,,53,36
99600,note_on,0,0,3,,,,,,,,,2,,,53,0
99600,note_on,240,0,3,,,,,,,,,2,,,61,0
99600,note_on,0,0,3,,,,,,,,,2,,,58,0
99600,note_on,0,0,3,,,,,,,,,2,,,58,36
99600,note_on,0,0,2,,,,,,,,,1,,,70,36
99600,note_on,0,0,3,,,,,,,,,2,,,61,36
99600,note_on,240,0,2,,,,,,,,,1,,,70,0
99600,note_on,0,0,2,,,,,,,,,1,,,65,36
99600,note_on,0,0,2,,,,,,,,,1,,,65,0
99840,note_on,0,0,2,,,,,,,,,1,,,70,36
99840,note_on,0,0,2,,,,,,,,,1,,,65,36
99840,note_on,0,0,2,,,,,,,,,1,,,65,0
99840,note_on,240,0,3,,,,,,,,,2,,,61,0
99840,note_on,0,0,1,,,,,,,,,0,,,73,75
99840,note_on,0,0,3,,,,,,,,,2,,,58,36
99840,note_on,0,0,3,,,,,,,,,2,,,61,36
99840,note_on,960,0,1,,,,,,,,,0,,,75,0
99840,note_on,0,0,3,,,,,,,,,2,,,53,0
99840,note_on,240,0,2,,,,,,,,,1,,,70,0
99840,note_on,0,0,3,,,,,,,,,2,,,58,0
99840,note_on,0,0,3,,,,,,,,,2,,,53,36
100080,note_on,0,0,2,,,,,,,,,1,,,70,36
100080,note_on,0,0,3,,,,,,,,,2,,,53,36
100080,note_on,0,0,3,,,,,,,,,2,,,58,0
100080,note_on,0,0,3,,,,,,,,,2,,,61,36
100080,note_on,240,0,3,,,,,,,,,2,,,61,0
100080,note_on,0,0,3,,,,,,,,,2,,,53,0
100080,note_on,240,0,2,,,,,,,,,1,,,70,0
100080,note_on,0,0,3,,,,,,,,,2,,,58,36
100080,control_change,0,0,3,,,,,,,,,2,64,0,,
100080,note_on,0,0,2,,,,,,,,,1,,,65,0
100080,note_on,0,0,2,,,,,,,,,1,,,65,36
100320,note_on,480,0,1,,,,,,,,,0,,,73,0
100320,note_on,240,0,2,,,,,,,,,1,,,70,0
100320,note_on,240,0,3,,,,,,,,,2,,,61,0
100320,note_on,0,0,1,,,,,,,,,0,,,77,101
100320,note_on,0,0,3,,,,,,,,,2,,,58,0
100320,control_change,0,0,3,,,,,,,,,2,64,127,,
100320,note_on,0,0,3,,,,,,,,,2,,,43,62
100320,note_on,0,0,2,,,,,,,,,1,,,65,0
100320,note_on,0,0,3,,,,,,,,,2,,,53,0
100560,note_on,0,0,2,,,,,,,,,1,,,70,36
100560,note_on,240,0,2,,,,,,,,,1,,,65,36
100560,note_on,240,0,3,,,,,,,,,2,,,43,0
100560,note_on,0,0,3,,,,,,,,,2,,,55,36
100560,note_on,0,0,3,,,,,,,,,2,,,58,36
100560,note_on,0,0,3,,,,,,,,,2,,,61,36
100800,note_on,0,0,3,,,,,,,,,2,,,58,0
100800,note_on,0,0,3,,,,,,,,,2,,,55,0
100800,note_on,240,0,3,,,,,,,,,2,,,61,0
100800,note_on,240,0,2,,,,,,,,,1,,,70,0
100800,note_on,0,0,3,,,,,,,,,2,,,55,36
100800,note_on,0,0,2,,,,,,,,,1,,,70,36
100800,note_on,0,0,2,,,,,,,,,1,,,65,36
100800,note_on,0,0,2,,,,,,,,,1,,,65,0
100800,note_on,0,0,3,,,,,,,,,2,,,61,36
100800,note_on,0,0,3,,,,,,,,,2,,,58,36
101040,control_change,0,0,2,,,,,,,,,1,64,0,,
101040,note_on,0,0,2,,,,,,,,,1,,,65,36
101040,note_on,0,0,2,,,,,,,,,1,,,65,0
101040,note_on,240,0,3,,,,,,,,,2,,,61,0
101040,note_on,240,0,2,,,,,,,,,1,,,70,0
101040,note_on,0,0,3,,,,,,,,,2,,,55,0
101040,note_on,0,0,3,,,,,,,,,2,,,55,36
101040,note_on,0,0,3,,,,,,,,,2,,,58,0
101040,note_on,0,0,2,,,,,,,,,1,,,70,36
101040,note_on,0,0,3,,,,,,,,,2,,,58,36
101040,note_on,0,0,3,,,,,,,,,2,,,61,36
101280,note_on,240,0,2,,,,,,,,,1,,,70,0
101280,note_on,240,0,3,,,,,,,,,2,,,61,0
101280,note_on,0,0,1,,,,,,,,,0,,,76,88
101280,note_on,0,0,3,,,,,,,,,2,,,55,0
101280,note_on,0,0,3,,,,,,,,,2,,,55,36
101280,note_on,0,0,3,,,,,,,,,2,,,58,36
101280,note_on,960,0,1,,,,,,,,,0,,,77,0
101280,note_on,0,0,3,,,,,,,,,2,,,61,36
101280,note_on,0,0,2,,,,,,,,,1,,,70,36
101280,note_on,0,0,2,,,,,,,,,1,,,65,0
101280,note_on,0,0,2,,,,,,,,,1,,,64,36
101280,note_on,0,0,3,,,,,,,,,2,,,58,0
101520,note_on,0,0,3,,,,,,,,,2,,,55,36
101520,note_on,240,0,2,,,,,,,,,1,,,70,0
101520,note_on,0,0,3,,,,,,,,,2,,,61,36
101520,note_on,0,0,3,,,,,,,,,2,,,58,0
101520,note_on,0,0,2,,,,,,,,,1,,,64,36
101520,note_on,0,0,3,,,,,,,,,2,,,55,0
101520,note_on,0,0,2,,,,,,,,,1,,,64,0
101520,note_on,0,0,2,,,,,,,,,1,,,70,36
101520,note_on,240,0,3,,,,,,,,,2,,,61,0
101520,note_on,0,0,3,,,,,,,,,2,,,58,36
101520,control_change,0,0,3,,,,,,,,,2,64,0,,
101760,note_on,0,0,2,,,,,,,,,1,,,79,49
101760,control_change,0,0,3,,,,,,,,,2,64,127,,
101760,note_on,0,0,2,,,,,,,,,1,,,64,0
101760,note_on,0,0,1,,,,,,,,,0,,,79,88
101760,note_on,240,0,3,,,,,,,,,2,,,61,0
101760,note_on,240,0,2,,,,,,,,,1,,,70,0
101760,note_on,0,0,3,,,,,,,,,2,,,44,62
101760,note_on,0,0,3,,,,,,,,,2,,,55,0
101760,note_on,0,0,3,,,,,,,,,2,,,58,0
101760,note_on,480,0,1,,,,,,,,,0,,,76,0
102000,note_on,0,0,3,,,,,,,,,2,,,56,36
102000,note_on,0,0,3,,,,,,,,,2,,,60,36
102000,note_on,0,0,2,,,,,,,,,1,,,67,49
102000,note_on,0,0,2,,,,,,,,,1,,,72,49
102000,note_on,240,0,2,,,,,,,,,1,,,79,0
102000,note_on,240,0,3,,,,,,,,,2,,,44,0
102240,note_on,240,0,2,,,,,,,,,1,,,72,0
102240,note_on,240,0,3,,,,,,,,,2,,,60,0
102240,note_on,0,0,3,,,,,,,,,2,,,56,0
102240,note_on,0,0,3,,,,,,,,,2,,,56,36
102240,note_on,0,0,1,,,,,,,,,0,,,77,88
102240,note_on,0,0,2,,,,,,,,,1,,,77,49
102240,note_on,0,0,3,,,,,,,,,2,,,60,36
102240,note_on,480,0,1,,,,,,,,,0,,,79,0
102240,note_on,0,0,2,,,,,,,,,1,,,67,0
102480,control_change,0,0,3,,,,,,,,,2,64,0,,
102480,note_on,240,0,3,,,,,,,,,2,,,60,0
102480,note_on,0,0,3,,,,,,,,,2,,,56,0
102480,note_on,0,0,3,,,,,,,,,2,,,56,36
102480,note_on,0,0,2,,,,,,,,,1,,,65,49
102480,note_on,0,0,2,,,,,,,,,1,,,72,49
102480,note_on,240,0,2,,,,,,,,,1,,,77,0
102480,note_on,0,0,3,,,,,,,,,2,,,60,36
102720,note_on,0,0,2,,,,,,,,,1,,,65,0
102720,note_on,0,0,3,,,,,,,,,2,,,40,62
102720,note_on,0,0,3,,,,,,,,,2,,,56,0
102720,note_on,0,0,2,,,,,,,,,1,,,79,49
102720,note_on,240,0,2,,,,,,,,,1,,,72,0
102720,note_on,480,0,1,,,,,,,,,0,,,77,0
102720,note_on,0,0,1,,,,,,,,,0,,,79,88
102720,note_on,240,0,3,,,,,,,,,2,,,60,0
102960,note_on,0,0,2,,,,,,,,,1,,,72,49
102960,note_on,0,0,3,,,,,,,,,2,,,60,62
102960,note_on,0,0,2,,,,,,,,,1,,,67,49
102960,note_on,0,0,3,,,,,,,,,2,,,55,62
102960,note_on,240,0,2,,,,,,,,,1,,,79,0
102960,note_on,240,0,3,,,,,,,,,2,,,40,0
103200,note_on,0,0,2,,,,,,,,,1,,,67,0
103200,note_on,0,0,3,,,,,,,,,2,,,55,0
103200,note_on,240,0,3,,,,,,,,,2,,,60,0
103200,note_on,0,0,3,,,,,,,,,2,,,41,62
103200,note_on,480,0,1,,,,,,,,,0,,,79,0
103200,note_on,0,0,2,,,,,,,,,1,,,80,49
103200,note_on,0,0,1,,,,,,,,,0,,,80,88
103200,note_on,240,0,2,,,,,,,,,1,,,72,0
103440,note_on,0,0,3,,,,,,,,,2,,,56,62
103440,note_on,240,0,3,,,,,,,,,2,,,41,0
103440,note_on,0,0,2,,,,,,,,,1,,,77,49
103440,note_on,0,0,2,,,,,,,,,1,,,68,49
103440,note_on,0,0,3,,,,,,,,,2,,,53,62
103440,note_on,240,0,2,,,,,,,,,1,,,80,0
103680,note_on,0,0,2,,,,,,,,,1,,,82,49
103680,note_on,0,0,3,,,,,,,,,2,,,53,0
103680,note_on,0,0,2,,,,,,,,,1,,,68,0
103680,note_on,480,0,1,,,,,,,,,0,,,80,0
103680,note_on,0,0,3,,,,,,,,,2,,,38,75
103680,note_on,240,0,3,,,,,,,,,2,,,56,0
103680,note_on,240,0,2,,,,,,,,,1,,,77,0
103680,note_on,0,0,1,,,,,,,,,0,,,82,101
103920,note_on,240,0,3,,,,,,,,,2,,,38,0
103920,note_on,240,0,2,,,,,,,,,1,,,82,0
103920,note_on,0,0,3,,,,,,,,,2,,,50,75
103920,note_on,0,0,2,,,,,,,,,1,,,77,49
103920,note_on,0,0,2,,,,,,,,,1,,,70,49
103920,note_on,0,0,3,,,,,,,,,2,,,53,75
104160,note_on,0,0,2,,,,,,,,,1,,,83,49
104160,note_on,240,0,3,,,,,,,,,2,,,53,0
104160,note_on,240,0,2,,,,,,,,,1,,,77,0
104160,note_on,0,0,1,,,,,,,,,0,,,83,101
104160,note_on,480,0,1,,,,,,,,,0,,,82,0
104160,note_on,0,0,3,,,,,,,,,2,,,50,0
104160,note_on,0,0,3,,,,,,,,,2,,,37,75
104160,note_on,0,0,2,,,,,,,,,1,,,70,0
104400,note_on,0,0,2,,,,,,,,,1,,,77,49
104400,note_on,240,0,2,,,,,,,,,1,,,83,0
104400,note_on,0,0,3,,,,,,,,,2,,,49,75
104400,note_on,0,0,3,,,,,,,,,2,,,55,75
104400,note_on,240,0,3,,,,,,,,,2,,,37,0
104400,note_on,0,0,2,,,,,,,,,1,,,71,49
104640,end_of_track,0,1,2,,,,,,,,,,,,,
104640,note_on,0,0,1,,,,,,,,,0,,,76,101
104640,note_on,0,0,3,,,,,,,,,2,,,36,88
104640,note_on,0,0,1,,,,,,,,,0,,,84,101
104640,note_on,240,0,2,,,,,,,,,1,,,77,0
104640,note_on,0,0,2,,,,,,,,,1,,,71,0
104640,note_on,240,0,3,,,,,,,,,2,,,55,0
104640,note_on,480,0,1,,,,,,,,,0,,,83,0
104640,note_on,0,0,1,,,,,,,,,0,,,72,101
104640,note_on,0,0,3,,,,,,,,,2,,,48,88
104640,note_on,0,0,3,,,,,,,,,2,,,49,0
105120,control_change,0,0,1,,,,,,,,,0,64,127,,
105120,note_on,0,0,3,,,,,,,,,2,,,64,75
105120,note_on,0,0,3,,,,,,,,,2,,,60,75
105120,note_on,0,0,3,,,,,,,,,2,,,36,0
105120,note_on,0,0,1,,,,,,,,,0,,,72,0
105120,note_on,0,0,1,,,,,,,,,0,,,76,0
105120,note_on,480,0,1,,,,,,,,,0,,,84,0
105120,note_on,0,0,1,,,,,,,,,0,,,72,62
105120,note_on,480,0,3,,,,,,,,,2,,,48,0
105200,note_on,0,0,1,,,,,,,,,0,,,73,62
105200,note_on,80,0,1,,,,,,,,,0,,,72,0
105279,note_on,0,0,1,,,,,,,,,0,,,72,62
105279,note_on,79,0,1,,,,,,,,,0,,,73,0
105360,note_on,240,0,3,,,,,,,,,2,,,64,0
105360,note_on,0,0,3,,,,,,,,,2,,,60,0
105360,note_on,0,0,3,,,,,,,,,2,,,65,75
105360,note_on,81,0,1,,,,,,,,,0,,,72,0
105360,note_on,0,0,1,,,,,,,,,0,,,73,62
105360,note_on,0,0,3,,,,,,,,,2,,,62,75
105440,note_on,80,0,1,,,,,,,,,0,,,73,0
105440,note_on,0,0,1,,,,,,,,,0,,,72,62
105519,note_on,79,0,1,,,,,,,,,0,,,72,0
105519,note_on,0,0,1,,,,,,,,,0,,,73,62
105600,note_on,0,0,3,,,,,,,,,2,,,62,0
105600,note_on,0,0,3,,,,,,,,,2,,,62,75
105600,note_on,0,0,3,,,,,,,,,2,,,65,75
105600,note_on,0,0,3,,,,,,,,,2,,,60,75
105600,note_on,240,0,3,,,,,,,,,2,,,65,0
105600,note_on,81,0,1,,,,,,,,,0,,,73,0
105600,note_on,0,0,1,,,,,,,,,0,,,72,62
105680,note_on,80,0,1,,,,,,,,,0,,,72,0
105680,note_on,0,0,1,,,,,,,,,0,,,73,62
105759,note_on,0,0,1,,,,,,,,,0,,,72,62
105759,note_on,79,0,1,,,,,,,,,0,,,73,0
105840,note_on,0,0,3,,,,,,,,,2,,,60,0
105840,note_on,0,0,3,,,,,,,,,2,,,63,75
105840,note_on,0,0,3,,,,,,,,,2,,,66,75
105840,note_on,240,0,3,,,,,,,,,2,,,65,0
105840,note_on,0,0,1,,,,,,,,,0,,,73,62
105840,note_on,0,0,3,,,,,,,,,2,,,62,0
105840,note_on,81,0,1,,,,,,,,,0,,,72,0
105920,note_on,80,0,1,,,,,,,,,0,,,73,0
105920,note_on,0,0,1,,,,,,,,,0,,,72,62
105999,note_on,79,0,1,,,,,,,,,0,,,72,0
105999,note_on,0,0,1,,,,,,,,,0,,,73,62
106080,note_on,0,0,3,,,,,,,,,2,,,66,101
106080,note_on,56160,0,4,,,,,,,,,3,,,60,75
106080,note_on,0,0,1,,,,,,,,,0,,,72,62
106080,note_on,240,0,3,,,,,,,,,2,,,66,0
106080,note_on,81,0,1,,,,,,,,,0,,,73,0
106080,note_on,0,0,3,,,,,,,,,2,,,63,101
106080,note_on,0,0,3,,,,,,,,,2,,,63,0
106160,note_on,80,0,1,,,,,,,,,0,,,72,0
106160,note_on,0,0,1,,,,,,,,,0,,,73,62
106239,note_on,79,0,1,,,,,,,,,0,,,73,0
106239,note_on,0,0,1,,,,,,,,,0,,,72,62
106320,note_on,81,0,1,,,,,,,,,0,,,72,0
106320,note_on,0,0,1,,,,,,,,,0,,,73,62
106400,note_on,0,0,1,,,,,,,,,0,,,72,62
106400,note_on,80,0,1,,,,,,,,,0,,,73,0
106479,note_on,0,0,1,,,,,,,,,0,,,73,62
106479,note_on,79,0,1,,,,,,,,,0,,,72,0
106560,note_on,0,0,3,,,,,,,,,2,,,63,0
106560,note_on,0,0,3,,,,,,,,,2,,,64,75
106560,note_on,0,0,3,,,,,,,,,2,,,67,75
106560,note_on,480,0,3,,,,,,,,,2,,,66,0
106560,note_on,81,0,1,,,,,,,,,0,,,73,0
106560,note_on,0,0,1,,,,,,,,,0,,,72,62
106640,note_on,80,0,1,,,,,,,,,0,,,72,0
106640,note_on,0,0,1,,,,,,,,,0,,,73,62
106719,note_on,0,0,1,,,,,,,,,0,,,72,62
106719,note_on,79,0,1,,,,,,,,,0,,,73,0
106800,note_on,0,0,3,,,,,,,,,2,,,64,0
106800,note_on,0,0,1,,,,,,,,,0,,,73,62
106800,note_on,240,0,3,,,,,,,,,2,,,67,0
106800,note_on,81,0,1,,,,,,,,,0,,,72,0
106800,note_on,0,0,3,,,,,,,,,2,,,65,75
106800,note_on,0,0,3,,,,,,,,,2,,,68,75
106880,note_on,0,0,1,,,,,,,,,0,,,72,62
106880,note_on,80,0,1,,,,,,,,,0,,,73,0
106959,note_on,0,0,1,,,,,,,,,0,,,73,62
106959,note_on,79,0,1,,,,,,,,,0,,,72,0
107040,note_on,0,0,3,,,,,,,,,2,,,65,0
107040,note_on,0,0,3,,,,,,,,,2,,,68,75
107040,note_on,81,0,1,,,,,,,,,0,,,73,0
107040,note_on,240,0,3,,,,,,,,,2,,,68,0
107040,note_on,0,0,1,,,,,,,,,0,,,72,62
107040,note_on,0,0,3,,,,,,,,,2,,,65,75
107120,note_on,80,0,1,,,,,,,,,0,,,72,0
107120,note_on,0,0,1,,,,,,,,,0,,,73,62
107199,note_on,0,0,1,,,,,,,,,0,,,72,62
107199,note_on,79,0,1,,,,,,,,,0,,,73,0
107280,note_on,0,0,3,,,,,,,,,2,,,66,75
107280,note_on,81,0,1,,,,,,,,,0,,,72,0
107280,note_on,0,0,3,,,,,,,,,2,,,69,75
107280,note_on,0,0,3,,,,,,,,,2,,,65,0
107280,note_on,0,0,1,,,,,,,,,0,,,73,62
107280,note_on,240,0,3,,,,,,,,,2,,,68,0
107360,note_on,0,0,1,,,,,,,,,0,,,72,62
107360,note_on,80,0,1,,,,,,,,,0,,,73,0
107439,control_change,0,0,1,,,,,,,,,0,64,0,,
107439,note_on,0,0,1,,,,,,,,,0,,,73,62
107439,note_on,79,0,1,,,,,,,,,0,,,72,0
107520,control_change,0,0,1,,,,,,,,,0,64,127,,
107520,note_on,0,0,3,,,,,,,,,2,,,66,101
107520,note_on,81,0,1,,,,,,,,,0,,,73,0
107520,note_on,0,0,3,,,,,,,,,2,,,69,101
107520,note_on,0,0,1,,,,,,,,,0,,,72,62
107520,note_on,0,0,3,,,,,,,,,2,,,66,0
107520,note_on,240,0,3,,,,,,,,,2,,,69,0
107600,note_on,0,0,1,,,,,,,,,0,,,73,62
107600,note_on,80,0,1,,,,,,,,,0,,,72,0
107679,note_on,0,0,1,,,,,,,,,0,,,72,62
107679,note_on,79,0,1,,,,,,,,,0,,,73,0
107760,note_on,81,0,1,,,,,,,,,0,,,72,0
107760,note_on,0,0,1,,,,,,,,,0,,,73,62
107840,note_on,0,0,1,,,,,,,,,0,,,72,62
107840,note_on,80,0,1,,,,,,,,,0,,,73,0
107919,note_on,0,0,1,,,,,,,,,0,,,73,62
107919,note_on,79,0,1,,,,,,,,,0,,,72,0
108000,note_on,81,0,1,,,,,,,,,0,,,73,0
108000,note_on,480,0,3,,,,,,,,,2,,,69,0
108000,note_on,0,0,1,,,,,,,,,0,,,72,62
108000,note_on,0,0,3,,,,,,,,,2,,,66,0
108000,note_on,0,0,3,,,,,,,,,2,,,70,75
108000,note_on,0,0,3,,,,,,,,,2,,,67,75
108080,note_on,80,0,1,,,,,,,,,0,,,72,0
108080,note_on,0,0,1,,,,,,,,,0,,,73,62
108159,note_on,0,0,1,,,,,,,,,0,,,72,62
108159,note_on,79,0,1,,,,,,,,,0,,,73,0
108240,note_on,0,0,1,,,,,,,,,0,,,73,62
108240,note_on,81,0,1,,,,,,,,,0,,,72,0
108320,note_on,80,0,1,,,,,,,,,0,,,73,0
108320,note_on,0,0,1,,,,,,,,,0,,,72,62
108399,note_on,0,0,1,,,,,,,,,0,,,73,62
108399,note_on,79,0,1,,,,,,,,,0,,,72,0
108480,note_on,0,0,1,,,,,,,,,0,,,72,62
108480,note_on,0,0,4,,,,,,,,,3,,,60,75
108480,note_on,2400,0,4,,,,,,,,,3,,,60,0
108480,note_on,480,0,3,,,,,,,,,2,,,70,0
108480,note_on,81,0,1,,,,,,,,,0,,,73,0
108480,note_on,0,0,3,,,,,,,,,2,,,67,0
108480,note_on,0,0,3,,,,,,,,,2,,,67,75
108480,note_on,0,0,3,,,,,,,,,2,,,70,75
108560,note_on,80,0,1,,,,,,,,,0,,,72,0
108560,note_on,0,0,1,,,,,,,,,0,,,73,62
108639,note_on,79,0,1,,,,,,,,,0,,,73,0
108639,note_on,0,0,1,,,,,,,,,0,,,72,62
108720,note_on,81,0,1,,,,,,,,,0,,,72,0
108720,control_change,0,0,1,,,,,,,,,0,64,0,,
108720,note_on,0,0,1,,,,,,,,,0,,,71,62
108840,note_on,120,0,1,,,,,,,,,0,,,71,0
108840,note_on,0,0,1,,,,,,,,,0,,,72,62
108960,note_on,0,0,1,,,,,,,,,0,,,73,62
108960,note_on,0,0,3,,,,,,,,,2,,,67,0
108960,note_on,480,0,3,,,,,,,,,2,,,70,0
108960,note_on,480,0,4,,,,,,,,,3,,,60,0
108960,note_on,120,0,1,,,,,,,,,0,,,72,0
108960,control_change,0,0,1,,,,,,,,,0,64,127,,
109040,note_on,0,0,1,,,,,,,,,0,,,75,62
109040,note_on,80,0,1,,,,,,,,,0,,,73,0
109119,note_on,79,0,1,,,,,,,,,0,,,75,0
109119,note_on,0,0,1,,,,,,,,,0,,,73,62
109200,note_on,0,0,1,,,,,,,,,0,,,75,62
109200,note_on,81,0,1,,,,,,,,,0,,,73,0
109280,note_on,0,0,1,,,,,,,,,0,,,73,62
109280,note_on,80,0,1,,,,,,,,,0,,,75,0
109359,note_on,0,0,1,,,,,,,,,0,,,75,62
109359,note_on,79,0,1,,,,,,,,,0,,,73,0
109440,note_on,0,0,3,,,,,,,,,2,,,69,49
109440,note_on,0,0,3,,,,,,,,,2,,,66,49
109440,note_on,0,0,1,,,,,,,,,0,,,73,62
109440,note_on,81,0,1,,,,,,,,,0,,,75,0
109440,note_on,480,0,3,,,,,,,,,2,,,59,49
109520,note_on,80,0,1,,,,,,,,,0,,,73,0
109520,note_on,0,0,1,,,,,,,,,0,,,75,62
109599,note_on,79,0,1,,,,,,,,,0,,,75,0
109599,note_on,0,0,1,,,,,,,,,0,,,73,62
109680,note_on,81,0,1,,,,,,,,,0,,,73,0
109680,note_on,0,0,1,,,,,,,,,0,,,75,62
109760,note_on,80,0,1,,,,,,,,,0,,,75,0
109760,note_on,0,0,1,,,,,,,,,0,,,73,62
109839,note_on,79,0,1,,,,,,,,,0,,,73,0
109839,note_on,0,0,1,,,,,,,,,0,,,75,62
109920,note_on,480,0,3,,,,,,,,,2,,,69,0
109920,note_on,0,0,3,,,,,,,,,2,,,66,0
109920,note_on,0,0,3,,,,,,,,,2,,,66,49
109920,note_on,0,0,3,,,,,,,,,2,,,69,49
109920,note_on,81,0,1,,,,,,,,,0,,,75,0
109920,note_on,0,0,3,,,,,,,,,2,,,59,49
109920,note_on,0,0,3,,,,,,,,,2,,,59,0
109920,note_on,0,0,1,,,,,,,,,0,,,73,62
110000,note_on,80,0,1,,,,,,,,,0,,,73,0
110000,note_on,0,0,1,,,,,,,,,0,,,75,62
110079,note_on,79,0,1,,,,,,,,,0,,,75,0
110079,note_on,0,0,1,,,,,,,,,0,,,73,62
110160,note_on,81,0,1,,,,,,,,,0,,,73,0
110160,note_on,0,0,1,,,,,,,,,0,,,72,62
110280,note_on,120,0,1,,,,,,,,,0,,,72,0
110280,note_on,0,0,1,,,,,,,,,0,,,73,62
110280,control_change,0,0,1,,,,,,,,,0,64,0,,
110400,control_change,0,0,1,,,,,,,,,0,64,127,,
110400,note_on,0,0,1,,,,,,,,,0,,,74,62
110400,note_on,0,0,3,,,,,,,,,2,,,66,0
110400,note_on,0,0,3,,,,,,,,,2,,,59,0
110400,note_on,120,0,1,,,,,,,,,0,,,73,0
110400,note_on,480,0,3,,,,,,,,,2,,,69,0
110480,note_on,80,0,1,,,,,,,,,0,,,74,0
110480,note_on,0,0,1,,,,,,,,,0,,,75,62
110559,note_on,0,0,1,,,,,,,,,0,,,74,62
110559,note_on,79,0,1,,,,,,,,,0,,,75,0
110640,note_on,81,0,1,,,,,,,,,0,,,74,0
110640,note_on,0,0,1,,,,,,,,,0,,,75,62
110720,note_on,0,0,1,,,,,,,,,0,,,74,62
110720,note_on,80,0,1,,,,,,,,,0,,,75,0
110799,note_on,0,0,1,,,,,,,,,0,,,75,62
110799,note_on,79,0,1,,,,,,,,,0,,,74,0
110880,note_on,0,0,3,,,,,,,,,2,,,65,49
110880,note_on,81,0,1,,,,,,,,,0,,,75,0
110880,note_on,0,0,3,,,,,,,,,2,,,68,49
110880,note_on,0,0,1,,,,,,,,,0,,,74,62
110880,note_on,480,0,3,,,,,,,,,2,,,58,49
110960,note_on,80,0,1,,,,,,,,,0,,,74,0
110960,note_on,0,0,1,,,,,,,,,0,,,75,62
111039,note_on,79,0,1,,,,,,,,,0,,,75,0
111039,note_on,0,0,1,,,,,,,,,0,,,74,62
111120,note_on,0,0,1,,,,,,,,,0,,,75,62
111120,note_on,81,0,1,,,,,,,,,0,,,74,0
111200,note_on,0,0,1,,,,,,,,,0,,,74,62
111200,note_on,80,0,1,,,,,,,,,0,,,75,0
111279,note_on,79,0,1,,,,,,,,,0,,,74,0
111279,note_on,0,0,1,,,,,,,,,0,,,75,62
111360,note_on,480,0,3,,,,,,,,,2,,,68,0
111360,note_on,0,0,3,,,,,,,,,2,,,65,49
111360,note_on,0,0,1,,,,,,,,,0,,,74,62
111360,note_on,0,0,3,,,,,,,,,2,,,68,49
111360,note_on,0,0,3,,,,,,,,,2,,,65,0
111360,note_on,0,0,3,,,,,,,,,2,,,58,49
111360,note_on,0,0,3,,,,,,,,,2,,,58,0
111360,note_on,81,0,1,,,,,,,,,0,,,75,0
111440,note_on,0,0,1,,,,,,,,,0,,,75,62
111440,note_on,80,0,1,,,,,,,,,0,,,74,0
111519,note_on,0,0,1,,,,,,,,,0,,,74,62
111519,note_on,79,0,1,,,,,,,,,0,,,75,0
111600,note_on,0,0,1,,,,,,,,,0,,,75,62
111600,note_on,81,0,1,,,,,,,,,0,,,74,0
111680,note_on,80,0,1,,,,,,,,,0,,,75,0
111680,control_change,0,0,1,,,,,,,,,0,64,0,,
111680,note_on,0,0,1,,,,,,,,,0,,,72,62
111759,note_on,79,0,1,,,,,,,,,0,,,72,0
111759,note_on,0,0,1,,,,,,,,,0,,,74,62
111840,note_on,81,0,1,,,,,,,,,0,,,74,0
111840,note_on,0,0,3,,,,,,,,,2,,,65,0
111840,note_on,480,0,3,,,,,,,,,2,,,68,0
111840,note_on,0,0,3,,,,,,,,,2,,,58,0
111840,control_change,0,0,1,,,,,,,,,0,64,127,,
111840,note_on,0,0,1,,,,,,,,,0,,,75,62
111920,note_on,80,0,1,,,,,,,,,0,,,75,0
111920,note_on,0,0,1,,,,,,,,,0,,,77,62
111999,note_on,79,0,1,,,,,,,,,0,,,77,0
111999,note_on,0,0,1,,,,,,,,,0,,,75,62
112080,note_on,0,0,1,,,,,,,,,0,,,77,62
112080,note_on,81,0,1,,,,,,,,,0,,,75,0
112160,note_on,80,0,1,,,,,,,,,0,,,77,0
112160,note_on,0,0,1,,,,,,,,,0,,,75,62
112239,note_on,79,0,1,,,,,,,,,0,,,75,0
112239,note_on,0,0,1,,,,,,,,,0,,,77,62
112320,note_on,0,0,1,,,,,,,,,0,,,75,62
112320,note_on,81,0,1,,,,,,,,,0,,,77,0
112320,note_on,0,0,3,,,,,,,,,2,,,67,62
112320,note_on,3360,0,4,,,,,,,,,3,,,63,75
112320,note_on,480,0,3,,,,,,,,,2,,,63,62
112400,note_on,80,0,1,,,,,,,,,0,,,75,0
112400,note_on,0,0,1,,,,,,,,,0,,,77,62
112479,note_on,79,0,1,,,,,,,,,0,,,77,0
112479,note_on,0,0,1,,,,,,,,,0,,,75,62
112560,note_on,240,0,3,,,,,,,,,2,,,67,0
112560,note_on,0,0,1,,,,,,,,,0,,,77,62
112560,note_on,81,0,1,,,,,,,,,0,,,75,0
112560,note_on,0,0,3,,,,,,,,,2,,,63,0
112560,note_on,0,0,3,,,,,,,,,2,,,65,62
112560,note_on,0,0,3,,,,,,,,,2,,,68,62
112640,note_on,0,0,1,,,,,,,,,0,,,75,62
112640,note_on,80,0,1,,,,,,,,,0,,,77,0
112719,note_on,79,0,1,,,,,,,,,0,,,75,0
112719,note_on,0,0,1,,,,,,,,,0,,,77,62
112800,note_on,0,0,4,,,,,,,,,3,,,63,75
112800,note_on,0,0,1,,,,,,,,,0,,,75,62
112800,note_on,240,0,3,,,,,,,,,2,,,68,0
112800,note_on,0,0,3,,,,,,,,,2,,,68,75
112800,note_on,480,0,4,,,,,,,,,3,,,63,0
112800,note_on,81,0,1,,,,,,,,,0,,,77,0
112800,note_on,0,0,3,,,,,,,,,2,,,65,75
112800,note_on,0,0,3,,,,,,,,,2,,,65,0
112880,note_on,80,0,1,,,,,,,,,0,,,75,0
112880,note_on,0,0,1,,,,,,,,,0,,,77,62
112959,note_on,0,0,1,,,,,,,,,0,,,75,62
112959,note_on,79,0,1,,,,,,,,,0,,,77,0
113040,note_on,81,0,1,,,,,,,,,0,,,75,0
113040,note_on,240,0,3,,,,,,,,,2,,,68,0
113040,note_on,0,0,1,,,,,,,,,0,,,77,62
113040,note_on,0,0,3,,,,,,,,,2,,,65,0
113040,note_on,0,0,3,,,,,,,,,2,,,66,75
113040,note_on,0,0,3,,,,,,,,,2,,,69,75
113120,note_on,80,0,1,,,,,,,,,0,,,77,0
113120,note_on,0,0,1,,,,,,,,,0,,,75,62
113199,note_on,79,0,1,,,,,,,,,0,,,75,0
113199,note_on,0,0,1,,,,,,,,,0,,,77,62
113280,note_on,0,0,3,,,,,,,,,2,,,66,75
113280,note_on,0,0,3,,,,,,,,,2,,,66,0
113280,note_on,480,0,4,,,,,,,,,3,,,63,0
113280,note_on,0,0,4,,,,,,,,,3,,,63,75
113280,note_on,0,0,1,,,,,,,,,0,,,75,75
113280,note_on,240,0,3,,,,,,,,,2,,,69,0
113280,note_on,81,0,1,,,,,,,,,0,,,77,0
113280,note_on,0,0,3,,,,,,,,,2,,,69,75
113360,note_on,0,0,1,,,,,,,,,0,,,77,75
113360,note_on,80,0,1,,,,,,,,,0,,,75,0
113439,note_on,79,0,1,,,,,,,,,0,,,77,0
113439,note_on,0,0,1,,,,,,,,,0,,,75,75
113520,note_on,0,0,1,,,,,,,,,0,,,77,75
113520,note_on,81,0,1,,,,,,,,,0,,,75,0
113600,note_on,80,0,1,,,,,,,,,0,,,77,0
113600,note_on,0,0,1,,,,,,,,,0,,,75,75
113679,note_on,0,0,1,,,,,,,,,0,,,77,75
113679,note_on,79,0,1,,,,,,,,,0,,,75,0
113760,note_on,0,0,1,,,,,,,,,0,,,75,75
113760,note_on,0,0,3,,,,,,,,,2,,,70,75
113760,note_on,0,0,3,,,,,,,,,2,,,67,75
113760,note_on,0,0,3,,,,,,,,,2,,,66,0
113760,note_on,81,0,1,,,,,,,,,0,,,77,0
113760,note_on,480,0,3,,,,,,,,,2,,,69,0
113840,note_on,0,0,1,,,,,,,,,0,,,77,75
113840,note_on,80,0,1,,,,,,,,,0,,,75,0
113919,note_on,0,0,1,,,,,,,,,0,,,75,75
113919,note_on,79,0,1,,,,,,,,,0,,,77,0
114000,note_on,240,0,3,,,,,,,,,2,,,70,0
114000,note_on,81,0,1,,,,,,,,,0,,,75,0
114000,note_on,0,0,1,,,,,,,,,0,,,77,75
114000,note_on,0,0,3,,,,,,,,,2,,,67,0
114000,note_on,0,0,3,,,,,,,,,2,,,68,75
114000,note_on,0,0,3,,,,,,,,,2,,,71,75
114080,note_on,0,0,1,,,,,,,,,0,,,75,75
114080,note_on,80,0,1,,,,,,,,,0,,,77,0
114159,note_on,0,0,1,,,,,,,,,0,,,77,75
114159,note_on,79,0,1,,,,,,,,,0,,,75,0
114240,note_on,81,0,1,,,,,,,,,0,,,77,0
114240,note_on,0,0,3,,,,,,,,,2,,,68,88
114240,note_on,0,0,3,,,,,,,,,2,,,71,88
114240,note_on,0,0,3,,,,,,,,,2,,,68,0
114240,note_on,240,0,3,,,,,,,,,2,,,71,0
114240,note_on,0,0,1,,,,,,,,,0,,,75,75
114320,note_on,80,0,1,,,,,,,,,0,,,75,0
114320,note_on,0,0,1,,,,,,,,,0,,,77,75
114399,note_on,0,0,1,,,,,,,,,0,,,75,75
114399,note_on,79,0,1,,,,,,,,,0,,,77,0
114480,note_on,81,0,1,,,,,,,,,0,,,75,0
114480,note_on,0,0,1,,,,,,,,,0,,,77,75
114480,note_on,240,0,3,,,,,,,,,2,,,71,0
114480,note_on,0,0,3,,,,,,,,,2,,,72,88
114480,note_on,0,0,3,,,,,,,,,2,,,69,88
114480,note_on,0,0,3,,,,,,,,,2,,,68,0
114560,note_on,0,0,1,,,,,,,,,0,,,75,75
114560,note_on,80,0,1,,,,,,,,,0,,,77,0
114639,note_on,0,0,1,,,,,,,,,0,,,77,75
114639,note_on,79,0,1,,,,,,,,,0,,,75,0
114720,note_on,0,0,3,,,,,,,,,2,,,72,88
114720,note_on,0,0,3,,,,,,,,,2,,,69,0
114720,note_on,240,0,3,,,,,,,,,2,,,72,0
114720,note_on,0,0,1,,,,,,,,,0,,,75,75
114720,note_on,0,0,3,,,,,,,,,2,,,69,88
114720,note_on,81,0,1,,,,,,,,,0,,,77,0
114800,note_on,0,0,1,,,,,,,,,0,,,77,75
114800,note_on,80,0,1,,,,,,,,,0,,,75,0
114879,note_on,0,0,1,,,,,,,,,0,,,75,75
114879,note_on,79,0,1,,,,,,,,,0,,,77,0
114960,note_on,0,0,1,,,,,,,,,0,,,77,75
114960,note_on,81,0,1,,,,,,,,,0,,,75,0
115040,note_on,0,0,1,,,,,,,,,0,,,75,75
115040,note_on,80,0,1,,,,,,,,,0,,,77,0
115119,note_on,79,0,1,,,,,,,,,0,,,75,0
115119,note_on,0,0,1,,,,,,,,,0,,,77,75
115200,note_on,0,0,3,,,,,,,,,2,,,73,114
115200,note_on,81,0,1,,,,,,,,,0,,,77,0
115200,note_on,480,0,3,,,,,,,,,2,,,72,0
115200,note_on,0,0,3,,,,,,,,,2,,,70,114
115200,note_on,0,0,3,,,,,,,,,2,,,69,0
115200,note_on,0,0,1,,,,,,,,,0,,,75,75
115280,note_on,80,0,1,,,,,,,,,0,,,75,0
115280,note_on,0,0,1,,,,,,,,,0,,,77,75
115359,note_on,79,0,1,,,,,,,,,0,,,77,0
115359,note_on,0,0,1,,,,,,,,,0,,,75,75
115440,note_on,0,0,1,,,,,,,,,0,,,77,75
115440,note_on,81,0,1,,,,,,,,,0,,,75,0
115520,note_on,0,0,1,,,,,,,,,0,,,75,75
115520,note_on,80,0,1,,,,,,,,,0,,,77,0
115599,note_on,0,0,1,,,,,,,,,0,,,77,75
115599,control_change,0,0,1,,,,,,,,,0,64,0,,
115599,note_on,79,0,1,,,,,,,,,0,,,75,0
115680,note_on,0,0,1,,,,,,,,,0,,,76,75
115680,note_on,81,0,1,,,,,,,,,0,,,77,0
115680,note_on,2400,0,4,,,,,,,,,3,,,63,0
115680,control_change,0,0,1,,,,,,,,,0,64,127,,
115680,note_on,0,0,4,,,,,,,,,3,,,64,75
115760,note_on,0,0,1,,,,,,,,,0,,,77,88
115760,note_on,80,0,1,,,,,,,,,0,,,76,0
115839,note_on,0,0,1,,,,,,,,,0,,,76,88
115839,note_on,79,0,1,,,,,,,,,0,,,77,0
115920,note_on,0,0,1,,,,,,,,,0,,,77,88
115920,note_on,81,0,1,,,,,,,,,0,,,76,0
116000,note_on,0,0,1,,,,,,,,,0,,,76,88
116000,note_on,80,0,1,,,,,,,,,0,,,77,0
116079,note_on,79,0,1,,,,,,,,,0,,,76,0
116079,control_change,0,0,1,,,,,,,,,0,64,0,,
116079,note_on,0,0,1,,,,,,,,,0,,,77,88
116160,note_on,81,0,1,,,,,,,,,0,,,77,0
116160,control_change,0,0,1,,,,,,,,,0,64,127,,
116160,note_on,0,0,1,,,,,,,,,0,,,77,88
116160,note_on,480,0,4,,,,,,,,,3,,,64,0
116240,note_on,80,0,1,,,,,,,,,0,,,77,0
116240,note_on,0,0,1,,,,,,,,,0,,,79,88
116319,note_on,79,0,1,,,,,,,,,0,,,79,0
116319,note_on,0,0,1,,,,,,,,,0,,,77,88
116400,note_on,81,0,1,,,,,,,,,0,,,77,0
116400,note_on,0,0,1,,,,,,,,,0,,,79,88
116480,note_on,0,0,1,,,,,,,,,0,,,77,88
116480,note_on,80,0,1,,,,,,,,,0,,,79,0
116559,note_on,0,0,1,,,,,,,,,0,,,79,88
116559,note_on,79,0,1,,,,,,,,,0,,,77,0
116640,note_on,0,0,1,,,,,,,,,0,,,77,88
116640,note_on,480,0,4,,,,,,,,,3,,,65,101
116640,note_on,81,0,1,,,,,,,,,0,,,79,0
116720,note_on,0,0,1,,,,,,,,,0,,,79,88
116720,note_on,80,0,1,,,,,,,,,0,,,77,0
116799,note_on,0,0,1,,,,,,,,,0,,,77,88
116799,note_on,79,0,1,,,,,,,,,0,,,79,0
116880,note_on,0,0,1,,,,,,,,,0,,,79,88
116880,note_on,81,0,1,,,,,,,,,0,,,77,0
116960,note_on,0,0,1,,,,,,,,,0,,,77,88
116960,note_on,80,0,1,,,,,,,,,0,,,79,0
117039,control_change,0,0,1,,,,,,,,,0,64,0,,
117039,note_on,0,0,1,,,,,,,,,0,,,79,88
117039,note_on,79,0,1,,,,,,,,,0,,,77,0
117120,control_change,0,0,1,,,,,,,,,0,64,127,,
117120,note_on,0,0,1,,,,,,,,,0,,,78,88
117120,note_on,0,0,4,,,,,,,,,3,,,66,75
117120,note_on,480,0,4,,,,,,,,,3,,,65,0
117120,note_on,81,0,1,,,,,,,,,0,,,79,0
117200,note_on,80,0,1,,,,,,,,,0,,,78,0
117200,note_on,0,0,1,,,,,,,,,0,,,79,88
117279,note_on,79,0,1,,,,,,,,,0,,,79,0
117279,note_on,0,0,1,,,,,,,,,0,,,78,88
117360,note_on,0,0,1,,,,,,,,,0,,,79,88
117360,note_on,81,0,1,,,,,,,,,0,,,78,0
117440,note_on,0,0,1,,,,,,,,,0,,,78,88
117440,note_on,80,0,1,,,,,,,,,0,,,79,0
117519,note_on,79,0,1,,,,,,,,,0,,,78,0
117519,note_on,0,0,1,,,,,,,,,0,,,79,88
117519,control_change,0,0,1,,,,,,,,,0,64,0,,
117600,end_of_track,0,1,4,,,,,,,,,,,,,
117600,note_on,81,0,1,,,,,,,,,0,,,79,0
117600,note_on,0,0,1,,,,,,,,,0,,,79,88
117600,control_change,0,0,1,,,,,,,,,0,64,127,,
117600,note_on,0,0,3,,,,,,,,,2,,,67,88
117600,note_on,2400,0,3,,,,,,,,,2,,,73,0
117600,note_on,0,0,3,,,,,,,,,2,,,70,88
117600,note_on,0,0,3,,,,,,,,,2,,,73,88
117600,note_on,0,0,3,,,,,,,,,2,,,75,88
117600,note_on,480,0,4,,,,,,,,,3,,,66,0
117600,note_on,0,0,3,,,,,,,,,2,,,70,0
117680,note_on,0,0,1,,,,,,,,,0,,,80,88
117680,note_on,80,0,1,,,,,,,,,0,,,79,0
117759,note_on,79,0,1,,,,,,,,,0,,,80,0
117759,note_on,0,0,1,,,,,,,,,0,,,79,88
117840,note_on,0,0,1,,,,,,,,,0,,,80,88
117840,note_on,81,0,1,,,,,,,,,0,,,79,0
117920,note_on,80,0,1,,,,,,,,,0,,,80,0
117920,note_on,0,0,1,,,,,,,,,0,,,79,88
117999,note_on,79,0,1,,,,,,,,,0,,,79,0
117999,note_on,0,0,1,,,,,,,,,0,,,80,88
118080,note_on,81,0,1,,,,,,,,,0,,,80,0
118080,note_on,0,0,1,,,,,,,,,0,,,79,88
118160,note_on,0,0,1,,,,,,,,,0,,,80,88
118160,note_on,80,0,1,,,,,,,,,0,,,79,0
118239,note_on,79,0,1,,,,,,,,,0,,,80,0
118239,note_on,0,0,1,,,,,,,,,0,,,79,88
118320,note_on,81,0,1,,,,,,,,,0,,,79,0
118320,note_on,0,0,1,,,,,,,,,0,,,80,88
118400,note_on,80,0,1,,,,,,,,,0,,,80,0
118400,note_on,0,0,1,,,,,,,,,0,,,79,88
118479,note_on,0,0,1,,,,,,,,,0,,,80,88
118479,note_on,79,0,1,,,,,,,,,0,,,79,0
118560,note_on,0,0,1,,,,,,,,,0,,,79,88
118560,note_on,960,0,3,,,,,,,,,2,,,75,0
118560,note_on,0,0,3,,,,,,,,,2,,,73,0
118560,note_on,0,0,3,,,,,,,,,2,,,70,0
118560,note_on,0,0,3,,,,,,,,,2,,,67,0
118560,note_on,81,0,1,,,,,,,,,0,,,80,0
118640,note_on,80,0,1,,,,,,,,,0,,,79,0
118640,note_on,0,0,1,,,,,,,,,0,,,80,88
118719,note_on,0,0,1,,,,,,,,,0,,,79,88
118719,note_on,79,0,1,,,,,,,,,0,,,80,0
118800,note_on,81,0,1,,,,,,,,,0,,,79,0
118800,note_on,0,0,1,,,,,,,,,0,,,80,88
118880,note_on,0,0,1,,,,,,,,,0,,,79,88
118880,note_on,80,0,1,,,,,,,,,0,,,80,0
118959,control_change,0,0,1,,,,,,,,,0,64,0,,
118959,note_on,0,0,1,,,,,,,,,0,,,80,88
118959,note_on,79,0,1,,,,,,,,,0,,,79,0
119040,note_on,81,0,1,,,,,,,,,0,,,80,0
119040,note_on,0,0,1,,,,,,,,,0,,,79,88
119136,note_on,96,0,1,,,,,,,,,0,,,79,0
119136,note_on,0,0,1,,,,,,,,,0,,,80,88
119232,note_on,0,0,1,,,,,,,,,0,,,79,88
119232,note_on,96,0,1,,,,,,,,,0,,,80,0
119280,set_tempo,43420,1,0,,,,,,389610,,,,,,,
119327,note_on,95,0,1,,,,,,,,,0,,,79,0
119327,note_on,0,0,1,,,,,,,,,0,,,78,88
119423,note_on,96,0,1,,,,,,,,,0,,,78,0
119423,note_on,0,0,1,,,,,,,,,0,,,79,88
119520,note_on,0,0,1,,,,,,,,,0,,,82,88
119520,set_tempo,240,1,0,,,,,,405405,,,,,,,
119520,note_on,97,0,1,,,,,,,,,0,,,79,0
119760,note_on,240,0,1,,,,,,,,,0,,,82,0
119760,note_on,0,0,1,,,,,,,,,0,,,80,88
119760,set_tempo,240,1,0,,,,,,422535,,,,,,,
120000,note_on,0,0,1,,,,,,,,,0,,,79,88
120000,note_on,240,0,1,,,,,,,,,0,,,80,0
120000,set_tempo,240,1,0,,,,,,447761,,,,,,,
120240,note_on,0,0,1,,,,,,,,,0,,,77,88
120240,note_on,240,0,1,,,,,,,,,0,,,79,0
120240,set_tempo,240,1,0,,,,,,468750,,,,,,,
120480,note_on,240,0,1,,,,,,,,,0,,,77,0
120480,set_tempo,240,1,0,,,,,,491803,,,,,,,
120480,note_on,0,0,1,,,,,,,,,0,,,75,88
120720,set_tempo,240,1,0,,,,,,517241,,,,,,,
120720,note_on,0,0,1,,,,,,,,,0,,,74,88
120720,note_on,240,0,1,,,,,,,,,0,,,75,0
120960,set_tempo,240,1,0,,,,,,555556,,,,,,,
121200,note_on,480,0,1,,,,,,,,,0,,,74,0
121200,note_on,0,0,1,,,,,,,,,0,,,75,88
121440,note_on,0,0,1,,,,,,,,,0,,,84,88
121440,note_on,240,0,1,,,,,,,,,0,,,75,0
121680,note_on,240,0,1,,,,,,,,,0,,,84,0
121680,note_on,0,0,1,,,,,,,,,0,,,79,88
121920,note_on,0,0,1,,,,,,,,,0,,,82,62
121920,note_on,240,0,1,,,,,,,,,0,,,79,0
121920,control_change,3360,0,3,,,,,,,,,2,64,127,,
121920,note_on,0,0,3,,,,,,,,,2,,,44,49
121984,set_tempo,1024,1,0,,,,,,375000,,,,,,,
122160,note_on,0,0,3,,,,,,,,,2,,,51,49
122160,note_on,240,0,3,,,,,,,,,2,,,44,0
122400,note_on,240,0,3,,,,,,,,,2,,,51,0
122400,note_on,0,0,3,,,,,,,,,2,,,56,49
122640,note_on,720,0,1,,,,,,,,,0,,,82,0
122640,note_on,0,0,3,,,,,,,,,2,,,60,49
122640,note_on,0,0,1,,,,,,,,,0,,,80,62
122640,note_on,240,0,3,,,,,,,,,2,,,56,0
122880,note_on,0,0,1,,,,,,,,,0,,,71,62
122880,note_on,240,0,3,,,,,,,,,2,,,60,0
122880,note_on,240,0,1,,,,,,,,,0,,,80,0
122880,note_on,0,0,3,,,,,,,,,2,,,63,49
123039,note_on,159,0,1,,,,,,,,,0,,,71,0
123039,note_on,0,0,1,,,,,,,,,0,,,72,62
123120,note_on,240,0,3,,,,,,,,,2,,,63,0
123200,note_on,0,0,1,,,,,,,,,0,,,73,62
123200,note_on,161,0,1,,,,,,,,,0,,,72,0
123360,note_on,240,0,3,,,,,,,,,2,,,44,49
123360,note_on,0,0,1,,,,,,,,,0,,,77,62
123360,note_on,160,0,1,,,,,,,,,0,,,73,0
123600,note_on,0,0,3,,,,,,,,,2,,,51,49
123600,note_on,240,0,3,,,,,,,,,2,,,44,0
123840,note_on,0,0,3,,,,,,,,,2,,,56,49
123840,note_on,240,0,3,,,,,,,,,2,,,51,0
124080,note_on,0,0,1,,,,,,,,,0,,,75,62
124080,note_on,0,0,3,,,,,,,,,2,,,60,49
124080,note_on,240,0,3,,,,,,,,,2,,,56,0
124080,note_on,720,0,1,,,,,,,,,0,,,77,0
124320,note_on,240,0,3,,,,,,,,,2,,,60,0
124320,note_on,0,0,1,,,,,,,,,0,,,73,62
124320,note_on,240,0,1,,,,,,,,,0,,,75,0
124320,note_on,0,0,3,,,,,,,,,2,,,63,49
124560,note_on,0,0,1,,,,,,,,,0,,,72,62
124560,note_on,240,0,1,,,,,,,,,0,,,73,0
124560,note_on,240,0,3,,,,,,,,,2,,,63,0
124560,control_change,0,0,3,,,,,,,,,2,64,0,,
124800,note_on,240,0,1,,,,,,,,,0,,,72,0
124800,note_on,0,0,1,,,,,,,,,0,,,72,62
124800,control_change,0,0,1,,,,,,,,,0,64,127,,
124800,control_change,240,0,3,,,,,,,,,2,64,127,,
124800,note_on,0,0,3,,,,,,,,,2,,,44,49
125040,note_on,0,0,3,,,,,,,,,2,,,53,49
125040,note_on,240,0,3,,,,,,,,,2,,,44,0
125280,note_on,240,0,3,,,,,,,,,2,,,53,0
125280,note_on,0,0,3,,,,,,,,,2,,,56,49
125520,note_on,0,0,3,,,,,,,,,2,,,62,49
125520,note_on,720,0,1,,,,,,,,,0,,,72,0
125520,note_on,240,0,3,,,,,,,,,2,,,56,0
125520,note_on,0,0,1,,,,,,,,,0,,,70,62
125760,note_on,0,0,3,,,,,,,,,2,,,65,49
125760,note_on,240,0,1,,,,,,,,,0,,,70,0
125760,note_on,240,0,3,,,,,,,,,2,,,62,0
125760,note_on,0,0,1,,,,,,,,,0,,,69,62
126000,note_on,0,0,1,,,,,,,,,0,,,70,62
126000,note_on,240,0,1,,,,,,,,,0,,,69,0
126000,note_on,240,0,3,,,,,,,,,2,,,65,0
126240,note_on,0,0,1,,,,,,,,,0,,,69,62
126240,note_on,240,0,3,,,,,,,,,2,,,44,49
126240,note_on,240,0,1,,,,,,,,,0,,,70,0
126320,note_on,0,0,1,,,,,,,,,0,,,70,62
126320,note_on,80,0,1,,,,,,,,,0,,,69,0
126399,note_on,0,0,1,,,,,,,,,0,,,72,62
126399,note_on,79,0,1,,,,,,,,,0,,,70,0
126480,note_on,0,0,1,,,,,,,,,0,,,70,62
126480,note_on,240,0,3,,,,,,,,,2,,,44,0
126480,note_on,81,0,1,,,,,,,,,0,,,72,0
126480,note_on,0,0,3,,,,,,,,,2,,,53,49
126560,note_on,0,0,1,,,,,,,,,0,,,72,62
126560,note_on,80,0,1,,,,,,,,,0,,,70,0
126639,note_on,0,0,1,,,,,,,,,0,,,70,62
126639,note_on,79,0,1,,,,,,,,,0,,,72,0
126720,note_on,0,0,3,,,,,,,,,2,,,56,49
126720,note_on,240,0,3,,,,,,,,,2,,,53,0
126720,note_on,0,0,1,,,,,,,,,0,,,72,62
126720,note_on,81,0,1,,,,,,,,,0,,,70,0
126800,note_on,80,0,1,,,,,,,,,0,,,72,0
126800,note_on,0,0,1,,,,,,,,,0,,,70,62
126879,note_on,0,0,1,,,,,,,,,0,,,72,62
126879,note_on,79,0,1,,,,,,,,,0,,,70,0
126960,note_on,0,0,1,,,,,,,,,0,,,69,62
126960,note_on,81,0,1,,,,,,,,,0,,,72,0
126960,note_on,240,0,3,,,,,,,,,2,,,56,0
126960,note_on,0,0,3,,,,,,,,,2,,,62,49
127025,note_on,65,0,1,,,,,,,,,0,,,69,0
127025,note_on,0,0,1,,,,,,,,,0,,,70,62
127090,note_on,65,0,1,,,,,,,,,0,,,70,0
127090,note_on,0,0,1,,,,,,,,,0,,,72,62
127156,note_on,0,0,1,,,,,,,,,0,,,74,62
127156,note_on,66,0,1,,,,,,,,,0,,,72,0
127200,note_on,240,0,3,,,,,,,,,2,,,62,0
127200,note_on,0,0,3,,,,,,,,,2,,,65,49
127222,note_on,66,0,1,,,,,,,,,0,,,74,0
127222,note_on,0,0,1,,,,,,,,,0,,,75,62
127287,note_on,65,0,1,,,,,,,,,0,,,75,0
127287,note_on,0,0,1,,,,,,,,,0,,,77,62
127352,note_on,0,0,1,,,,,,,,,0,,,79,62
127352,note_on,65,0,1,,,,,,,,,0,,,77,0
127417,note_on,0,0,1,,,,,,,,,0,,,80,62
127417,note_on,65,0,1,,,,,,,,,0,,,79,0
127440,control_change,0,0,3,,,,,,,,,2,64,0,,
127440,note_on,240,0,3,,,,,,,,,2,,,65,0
127483,note_on,0,0,1,,,,,,,,,0,,,82,62
127483,note_on,66,0,1,,,,,,,,,0,,,80,0
127549,note_on,0,0,1,,,,,,,,,0,,,84,62
127549,note_on,66,0,1,,,,,,,,,0,,,82,0
127614,note_on,0,0,1,,,,,,,,,0,,,86,62
127614,note_on,65,0,1,,,,,,,,,0,,,84,0
127614,control_change,0,0,1,,,,,,,,,0,64,0,,
127680,control_change,0,0,1,,,,,,,,,0,64,127,,
127680,control_change,240,0,3,,,,,,,,,2,64,127,,
127680,note_on,0,0,1,,,,,,,,,0,,,89,62
127680,note_on,0,0,3,,,,,,,,,2,,,44,49
127680,note_on,66,0,1,,,,,,,,,0,,,86,0
127920,note_on,0,0,3,,,,,,,,,2,,,55,49
127920,note_on,240,0,3,,,,,,,,,2,,,44,0
128160,note_on,240,0,3,,,,,,,,,2,,,55,0
128160,note_on,0,0,3,,,,,,,,,2,,,58,49
128400,note_on,240,0,3,,,,,,,,,2,,,58,0
128400,note_on,720,0,1,,,,,,,,,0,,,89,0
128400,note_on,0,0,3,,,,,,,,,2,,,61,49
128400,note_on,0,0,1,,,,,,,,,0,,,87,62
128640,note_on,0,0,3,,,,,,,,,2,,,63,49
128640,note_on,0,0,1,,,,,,,,,0,,,85,62
128640,note_on,240,0,3,,,,,,,,,2,,,61,0
128640,note_on,240,0,1,,,,,,,,,0,,,87,0
128880,note_on,240,0,1,,,,,,,,,0,,,85,0
128880,note_on,0,0,1,,,,,,,,,0,,,82,62
128880,note_on,240,0,3,,,,,,,,,2,,,63,0
129120,note_on,240,0,3,,,,,,,,,2,,,44,49
129120,note_on,0,0,1,,,,,,,,,0,,,79,62
129120,note_on,240,0,1,,,,,,,,,0,,,82,0
129360,note_on,0,0,3,,,,,,,,,2,,,55,49
129360,note_on,240,0,3,,,,,,,,,2,,,44,0
129600,note_on,240,0,3,,,,,,,,,2,,,55,0
129600,note_on,0,0,3,,,,,,,,,2,,,58,49
129840,note_on,240,0,3,,,,,,,,,2,,,58,0
129840,note_on,0,0,1,,,,,,,,,0,,,75,62
129840,note_on,0,0,3,,,,,,,,,2,,,61,49
129840,note_on,720,0,1,,,,,,,,,0,,,79,0
130080,note_on,240,0,1,,,,,,,,,0,,,75,0
130080,note_on,0,0,1,,,,,,,,,0,,,73,62
130080,note_on,0,0,3,,,,,,,,,2,,,63,49
130080,note_on,240,0,3,,,,,,,,,2,,,61,0
130320,control_change,0,0,3,,,,,,,,,2,64,0,,
130320,control_change,0,0,1,,,,,,,,,0,64,0,,
130320,note_on,240,0,3,,,,,,,,,2,,,63,0
130320,note_on,0,0,1,,,,,,,,,0,,,70,62
130320,note_on,240,0,1,,,,,,,,,0,,,73,0
130560,control_change,0,0,1,,,,,,,,,0,64,127,,
130560,note_on,0,0,3,,,,,,,,,2,,,44,49
130560,note_on,0,0,1,,,,,,,,,0,,,67,62
130560,note_on,240,0,1,,,,,,,,,0,,,70,0
130560,control_change,240,0,3,,,,,,,,,2,64,127,,
130800,note_on,0,0,1,,,,,,,,,0,,,68,62
130800,note_on,240,0,3,,,,,,,,,2,,,44,0
130800,note_on,240,0,1,,,,,,,,,0,,,67,0
130800,set_tempo,8816,1,0,,,,,,389610,,,,,,,
130800,note_on,0,0,3,,,,,,,,,2,,,51,49
131040,set_tempo,240,1,0,,,,,,405405,,,,,,,
131040,note_on,240,0,1,,,,,,,,,0,,,68,0
131040,note_on,0,0,1,,,,,,,,,0,,,72,62
131040,note_on,240,0,3,,,,,,,,,2,,,51,0
131040,note_on,0,0,3,,,,,,,,,2,,,56,49
131280,note_on,0,0,3,,,,,,,,,2,,,60,49
131280,set_tempo,240,1,0,,,,,,422535,,,,,,,
131280,note_on,240,0,1,,,,,,,,,0,,,72,0
131280,note_on,240,0,3,,,,,,,,,2,,,56,0
131280,note_on,0,0,1,,,,,,,,,0,,,75,62
131520,note_on,0,0,3,,,,,,,,,2,,,63,49
131520,note_on,240,0,1,,,,,,,,,0,,,75,0
131520,note_on,0,0,1,,,,,,,,,0,,,79,62
131520,note_on,240,0,3,,,,,,,,,2,,,60,0
131520,set_tempo,240,1,0,,,,,,447761,,,,,,,
131616,note_on,0,0,1,,,,,,,,,0,,,80,62
131616,note_on,96,0,1,,,,,,,,,0,,,79,0
131712,note_on,0,0,1,,,,,,,,,0,,,84,62
131712,note_on,96,0,1,,,,,,,,,0,,,80,0
131760,set_tempo,240,1,0,,,,,,468750,,,,,,,
131760,note_on,240,0,3,,,,,,,,,2,,,63,0
131807,note_on,0,0,1,,,,,,,,,0,,,87,62
131807,note_on,95,0,1,,,,,,,,,0,,,84,0
131903,note_on,96,0,1,,,,,,,,,0,,,87,0
131903,note_on,0,0,1,,,,,,,,,0,,,96,62
132000,note_on,0,0,1,,,,,,,,,0,,,92,62
132000,note_on,240,0,3,,,,,,,,,2,,,44,49
132000,note_on,97,0,1,,,,,,,,,0,,,96,0
132000,control_change,0,0,1,,,,,,,,,0,64,0,,
132000,set_tempo,240,1,0,,,,,,491803,,,,,,,
132240,note_on,240,0,1,,,,,,,,,0,,,92,0
132240,note_on,0,0,3,,,,,,,,,2,,,51,49
132240,set_tempo,240,1,0,,,,,,517241,,,,,,,
132240,note_on,240,0,3,,,,,,,,,2,,,44,0
132480,note_on,0,0,3,,,,,,,,,2,,,56,49
132480,set_tempo,240,1,0,,,,,,555556,,,,,,,
132480,note_on,240,0,3,,,,,,,,,2,,,51,0
132720,note_on,0,0,3,,,,,,,,,2,,,60,49
132720,note_on,240,0,3,,,,,,,,,2,,,56,0
132780,note_on,0,0,1,,,,,,,,,0,,,75,62
132780,control_change,540,0,1,,,,,,,,,0,64,127,,
132840,note_on,0,0,1,,,,,,,,,0,,,77,62
132840,note_on,60,0,1,,,,,,,,,0,,,75,0
132900,note_on,60,0,1,,,,,,,,,0,,,77,0
132900,note_on,0,0,1,,,,,,,,,0,,,75,62
132960,note_on,0,0,1,,,,,,,,,0,,,74,62
132960,note_on,0,0,3,,,,,,,,,2,,,63,49
132960,note_on,60,0,1,,,,,,,,,0,,,75,0
132960,note_on,240,0,3,,,,,,,,,2,,,60,0
133020,note_on,60,0,1,,,,,,,,,0,,,74,0
133020,note_on,0,0,1,,,,,,,,,0,,,75,62
133080,note_on,60,0,1,,,,,,,,,0,,,75,0
133080,note_on,0,0,1,,,,,,,,,0,,,74,62
133140,note_on,60,0,1,,,,,,,,,0,,,74,0
133140,note_on,0,0,1,,,,,,,,,0,,,75,62
133200,note_on,0,0,1,,,,,,,,,0,,,74,62
133200,control_change,0,0,3,,,,,,,,,2,64,0,,
133200,note_on,240,0,3,,,,,,,,,2,,,63,0
133200,note_on,60,0,1,,,,,,,,,0,,,75,0
133260,note_on,0,0,1,,,,,,,,,0,,,75,62
133260,note_on,60,0,1,,,,,,,,,0,,,74,0
133320,note_on,0,0,1,,,,,,,,,0,,,84,62
133320,note_on,60,0,1,,,,,,,,,0,,,75,0
133380,note_on,60,0,1,,,,,,,,,0,,,84,0
133380,note_on,0,0,1,,,,,,,,,0,,,79,62
133380,control_change,0,0,1,,,,,,,,,0,64,0,,
133440,note_on,0,0,1,,,,,,,,,0,,,82,62
133440,note_on,0,0,3,,,,,,,,,2,,,44,49
133440,control_change,0,0,1,,,,,,,,,0,64,127,,
133440,note_on,60,0,1,,,,,,,,,0,,,79,0
133440,control_change,240,0,3,,,,,,,,,2,64,127,,
133481,set_tempo,1001,1,0,,,,,,375000,,,,,,,
133680,note_on,240,0,3,,,,,,,,,2,,,44,0
133680,note_on,0,0,3,,,,,,,,,2,,,51,49
133920,note_on,240,0,3,,,,,,,,,2,,,51,0
133920,note_on,0,0,3,,,,,,,,,2,,,56,49
134160,note_on,0,0,3,,,,,,,,,2,,,60,49
134160,note_on,720,0,1,,,,,,,,,0,,,82,0
134160,note_on,0,0,1,,,,,,,,,0,,,80,62
134160,note_on,240,0,3,,,,,,,,,2,,,56,0
134400,note_on,0,0,1,,,,,,,,,0,,,72,62
134400,note_on,240,0,1,,,,,,,,,0,,,80,0
134400,note_on,0,0,3,,,,,,,,,2,,,63,49
134400,note_on,240,0,3,,,,,,,,,2,,,60,0
134640,note_on,240,0,3,,,,,,,,,2,,,63,0
134640,note_on,0,0,1,,,,,,,,,0,,,73,62
134640,note_on,240,0,1,,,,,,,,,0,,,72,0
134880,note_on,240,0,3,,,,,,,,,2,,,44,49
134880,note_on,240,0,1,,,,,,,,,0,,,73,0
134880,note_on,0,0,1,,,,,,,,,0,,,77,62
135120,note_on,0,0,3,,,,,,,,,2,,,51,49
135120,note_on,240,0,3,,,,,,,,,2,,,44,0
135360,note_on,240,0,3,,,,,,,,,2,,,51,0
135360,note_on,0,0,3,,,,,,,,,2,,,56,49
135600,note_on,240,0,3,,,,,,,,,2,,,56,0
135600,note_on,0,0,3,,,,,,,,,2,,,60,49
135600,note_on,0,0,1,,,,,,,,,0,,,75,62
135600,note_on,720,0,1,,,,,,,,,0,,,77,0
135840,note_on,240,0,3,,,,,,,,,2,,,60,0
135840,note_on,0,0,1,,,,,,,,,0,,,73,62
135840,note_on,0,0,3,,,,,,,,,2,,,63,49
135840,note_on,240,0,1,,,,,,,,,0,,,75,0
136080,note_on,240,0,3,,,,,,,,,2,,,63,0
136080,note_on,240,0,1,,,,,,,,,0,,,73,0
136080,control_change,0,0,1,,,,,,,,,0,64,0,,
136080,control_change,0,0,3,,,,,,,,,2,64,0,,
136080,note_on,0,0,1,,,,,,,,,0,,,72,62
136320,note_on,240,0,1,,,,,,,,,0,,,72,0
136320,note_on,0,0,1,,,,,,,,,0,,,69,62
136320,note_on,0,0,3,,,,,,,,,2,,,50,49
136320,control_change,240,0,3,,,,,,,,,2,64,127,,
136320,control_change,0,0,1,,,,,,,,,0,64,127,,
136560,note_on,0,0,3,,,,,,,,,2,,,58,49
136560,note_on,240,0,3,,,,,,,,,2,,,50,0
136800,note_on,0,0,3,,,,,,,,,2,,,62,49
136800,note_on,240,0,3,,,,,,,,,2,,,58,0
137040,note_on,240,0,3,,,,,,,,,2,,,62,0
137040,note_on,0,0,1,,,,,,,,,0,,,70,62
137040,note_on,0,0,3,,,,,,,,,2,,,65,49
137040,note_on,720,0,1,,,,,,,,,0,,,69,0
137280,note_on,240,0,3,,,,,,,,,2,,,65,0
137280,note_on,0,0,3,,,,,,,,,2,,,68,49
137280,note_on,0,0,1,,,,,,,,,0,,,72,62
137280,note_on,240,0,1,,,,,,,,,0,,,70,0
137520,note_on,240,0,3,,,,,,,,,2,,,68,0
137520,note_on,0,0,1,,,,,,,,,0,,,70,62
137520,note_on,240,0,1,,,,,,,,,0,,,72,0
137760,control_change,240,0,3,,,,,,,,,2,64,127,,
137760,note_on,240,0,1,,,,,,,,,0,,,70,0
137760,note_on,0,0,1,,,,,,,,,0,,,69,62
137760,note_on,0,0,3,,,,,,,,,2,,,49,49
137880,note_on,120,0,1,,,,,,,,,0,,,69,0
137880,note_on,0,0,1,,,,,,,,,0,,,70,62
138000,note_on,120,0,1,,,,,,,,,0,,,70,0
138000,note_on,0,0,1,,,,,,,,,0,,,72,62
138000,note_on,240,0,3,,,,,,,,,2,,,49,0
138000,note_on,0,0,3,,,,,,,,,2,,,55,49
138120,note_on,120,0,1,,,,,,,,,0,,,72,0
138120,note_on,0,0,1,,,,,,,,,0,,,70,62
138240,note_on,240,0,3,,,,,,,,,2,,,55,0
138240,note_on,120,0,1,,,,,,,,,0,,,70,0
138240,note_on,0,0,3,,,,,,,,,2,,,58,49
138240,note_on,0,0,1,,,,,,,,,0,,,69,62
138327,note_on,87,0,1,,,,,,,,,0,,,69,0
138327,note_on,0,0,1,,,,,,,,,0,,,70,62
138414,note_on,0,0,1,,,,,,,,,0,,,72,62
138414,note_on,87,0,1,,,,,,,,,0,,,70,0
138480,note_on,0,0,3,,,,,,,,,2,,,63,49
138480,note_on,240,0,3,,,,,,,,,2,,,58,0
138502,note_on,88,0,1,,,,,,,,,0,,,72,0
138502,note_on,0,0,1,,,,,,,,,0,,,73,62
138589,note_on,87,0,1,,,,,,,,,0,,,73,0
138589,note_on,0,0,1,,,,,,,,,0,,,75,62
138676,note_on,0,0,1,,,,,,,,,0,,,77,62
138676,note_on,87,0,1,,,,,,,,,0,,,75,0
138720,note_on,240,0,3,,,,,,,,,2,,,63,0
138720,note_on,0,0,3,,,,,,,,,2,,,67,49
138763,note_on,87,0,1,,,,,,,,,0,,,77,0
138763,note_on,0,0,1,,,,,,,,,0,,,79,62
138850,note_on,87,0,1,,,,,,,,,0,,,79,0
138850,note_on,0,0,1,,,,,,,,,0,,,80,62
138938,note_on,88,0,1,,,,,,,,,0,,,80,0
138938,note_on,0,0,1,,,,,,,,,0,,,82,62
138960,control_change,0,0,3,,,,,,,,,2,64,0,,
138960,note_on,240,0,3,,,,,,,,,2,,,67,0
139025,note_on,87,0,1,,,,,,,,,0,,,82,0
139025,note_on,0,0,1,,,,,,,,,0,,,84,62
139112,note_on,0,0,1,,,,,,,,,0,,,85,62
139112,control_change,0,0,1,,,,,,,,,0,64,0,,
139112,note_on,87,0,1,,,,,,,,,0,,,84,0
139200,control_change,0,0,1,,,,,,,,,0,64,127,,
139200,note_on,0,0,3,,,,,,,,,2,,,48,75
139200,note_on,88,0,1,,,,,,,,,0,,,85,0
139200,control_change,240,0,3,,,,,,,,,2,64,127,,
139200,note_on,0,0,1,,,,,,,,,0,,,87,88
139247,note_on,47,0,1,,,,,,,,,0,,,87,0
139440,note_on,240,0,3,,,,,,,,,2,,,48,0
139440,set_tempo,5959,1,0,,,,,,389610,,,,,,,
139440,note_on,193,0,1,,,,,,,,,0,,,75,88
139440,note_on,0,0,3,,,,,,,,,2,,,56,75
139487,note_on,47,0,1,,,,,,,,,0,,,75,0
139680,note_on,193,0,1,,,,,,,,,0,,,99,114
139680,set_tempo,240,1,0,,,,,,405405,,,,,,,
139680,note_on,0,0,3,,,,,,,,,2,,,60,75
139680,note_on,240,0,3,,,,,,,,,2,,,56,0
139920,set_tempo,240,1,0,,,,,,422535,,,,,,,
139920,note_on,0,0,3,,,,,,,,,2,,,63,75
139920,note_on,240,0,3,,,,,,,,,2,,,60,0
140160,set_tempo,240,1,0,,,,,,447761,,,,,,,
140160,note_on,0,0,3,,,,,,,,,2,,,68,75
140160,note_on,240,0,3,,,,,,,,,2,,,63,0
140280,note_on,600,0,1,,,,,,,,,0,,,99,0
140280,note_on,0,0,1,,,,,,,,,0,,,97,88
140400,note_on,240,0,3,,,,,,,,,2,,,68,0
140400,set_tempo,240,1,0,,,,,,468750,,,,,,,
140400,note_on,120,0,1,,,,,,,,,0,,,97,0
140400,note_on,0,0,1,,,,,,,,,0,,,96,88
140520,note_on,120,0,1,,,,,,,,,0,,,96,0
140520,note_on,0,0,1,,,,,,,,,0,,,94,88
140640,note_on,0,0,1,,,,,,,,,0,,,92,75
140640,note_on,120,0,1,,,,,,,,,0,,,94,0
140640,note_on,240,0,3,,,,,,,,,2,,,49,62
140640,set_tempo,240,1,0,,,,,,491803,,,,,,,
140760,note_on,0,0,1,,,,,,,,,0,,,91,75
140760,note_on,120,0,1,,,,,,,,,0,,,92,0
140880,note_on,240,0,3,,,,,,,,,2,,,49,0
140880,set_tempo,240,1,0,,,,,,517241,,,,,,,
140880,note_on,0,0,3,,,,,,,,,2,,,58,62
140880,note_on,0,0,1,,,,,,,,,0,,,89,75
140880,note_on,120,0,1,,,,,,,,,0,,,91,0
141000,note_on,0,0,1,,,,,,,,,0,,,87,75
141000,note_on,120,0,1,,,,,,,,,0,,,89,0
141120,note_on,0,0,1,,,,,,,,,0,,,85,75
141120,note_on,0,0,3,,,,,,,,,2,,,61,62
141120,set_tempo,240,1,0,,,,,,555556,,,,,,,
141120,note_on,120,0,1,,,,,,,,,0,,,87,0
141120,note_on,240,0,3,,,,,,,,,2,,,58,0
141240,note_on,120,0,1,,,,,,,,,0,,,85,0
141240,note_on,0,0,1,,,,,,,,,0,,,84,75
141360,note_on,120,0,1,,,,,,,,,0,,,84,0
141360,note_on,0,0,3,,,,,,,,,2,,,65,62
141360,note_on,0,0,1,,,,,,,,,0,,,82,75
141360,note_on,240,0,3,,,,,,,,,2,,,61,0
141480,note_on,0,0,1,,,,,,,,,0,,,80,75
141480,note_on,120,0,1,,,,,,,,,0,,,82,0
141600,note_on,0,0,3,,,,,,,,,2,,,68,49
141600,note_on,0,0,1,,,,,,,,,0,,,79,62
141600,note_on,240,0,3,,,,,,,,,2,,,65,0
141600,note_on,120,0,1,,,,,,,,,0,,,80,0
141720,note_on,0,0,1,,,,,,,,,0,,,77,62
141720,note_on,120,0,1,,,,,,,,,0,,,79,0
141840,note_on,120,0,1,,,,,,,,,0,,,77,0
141840,note_on,240,0,3,,,,,,,,,2,,,68,0
141840,note_on,0,0,1,,,,,,,,,0,,,76,62
141840,control_change,0,0,3,,,,,,,,,2,64,0,,
141960,note_on,0,0,1,,,,,,,,,0,,,77,62
141960,note_on,120,0,1,,,,,,,,,0,,,76,0
141960,control_change,0,0,1,,,,,,,,,0,64,0,,
142080,note_on,120,0,1,,,,,,,,,0,,,77,0
142080,control_change,0,0,1,,,,,,,,,0,64,127,,
142080,note_on,0,0,3,,,,,,,,,2,,,51,49
142080,control_change,240,0,3,,,,,,,,,2,64,127,,
142080,note_on,0,0,1,,,,,,,,,0,,,75,62
142102,set_tempo,982,1,0,,,,,,375000,,,,,,,
142127,note_on,0,0,1,,,,,,,,,0,,,77,62
142127,note_on,47,0,1,,,,,,,,,0,,,75,0
142176,note_on,49,0,1,,,,,,,,,0,,,77,0
142176,note_on,0,0,1,,,,,,,,,0,,,75,62
142223,note_on,0,0,1,,,,,,,,,0,,,74,62
142223,note_on,47,0,1,,,,,,,,,0,,,75,0
142272,note_on,49,0,1,,,,,,,,,0,,,74,0
142272,note_on,0,0,1,,,,,,,,,0,,,75,62
142320,note_on,0,0,3,,,,,,,,,2,,,56,49
142320,note_on,48,0,1,,,,,,,,,0,,,75,0
142320,note_on,0,0,1,,,,,,,,,0,,,84,62
142320,note_on,240,0,3,,,,,,,,,2,,,51,0
142560,note_on,0,0,1,,,,,,,,,0,,,79,62
142560,note_on,240,0,1,,,,,,,,,0,,,84,0
142560,control_change,0,0,1,,,,,,,,,0,64,0,,
142560,note_on,0,0,3,,,,,,,,,2,,,60,49
142560,note_on,240,0,3,,,,,,,,,2,,,56,0
142800,note_on,240,0,3,,,,,,,,,2,,,60,0
142800,note_on,240,0,1,,,,,,,,,0,,,79,0
142800,note_on,0,0,3,,,,,,,,,2,,,63,49
142800,note_on,0,0,1,,,,,,,,,0,,,80,62
143040,note_on,240,0,3,,,,,,,,,2,,,63,0
143040,note_on,240,0,1,,,,,,,,,0,,,80,0
143040,note_on,0,0,1,,,,,,,,,0,,,72,62
143040,note_on,0,0,3,,,,,,,,,2,,,68,49
143280,note_on,240,0,3,,,,,,,,,2,,,68,0
143280,note_on,240,0,1,,,,,,,,,0,,,72,0
143280,note_on,0,0,1,,,,,,,,,0,,,77,62
143520,note_on,240,0,3,,,,,,,,,2,,,39,49
143520,note_on,0,0,1,,,,,,,,,0,,,75,62
143520,note_on,240,0,1,,,,,,,,,0,,,77,0
143760,note_on,240,0,1,,,,,,,,,0,,,75,0
143760,note_on,0,0,1,,,,,,,,,0,,,74,62
143760,note_on,240,0,3,,,,,,,,,2,,,39,0
143760,note_on,0,0,3,,,,,,,,,2,,,46,49
144000,note_on,240,0,1,,,,,,,,,0,,,74,0
144000,note_on,0,0,1,,,,,,,,,0,,,73,62
144000,note_on,0,0,3,,,,,,,,,2,,,49,49
144000,note_on,240,0,3,,,,,,,,,2,,,46,0
144240,note_on,0,0,1,,,,,,,,,0,,,70,62
144240,note_on,0,0,3,,,,,,,,,2,,,51,49
144240,note_on,240,0,3,,,,,,,,,2,,,49,0
144240,note_on,240,0,1,,,,,,,,,0,,,73,0
144480,note_on,0,0,1,,,,,,,,,0,,,65,62
144480,note_on,240,0,3,,,,,,,,,2,,,51,0
144480,note_on,240,0,1,,,,,,,,,0,,,70,0
144480,note_on,0,0,3,,,,,,,,,2,,,55,49
144720,note_on,240,0,3,,,,,,,,,2,,,55,0
144720,control_change,0,0,3,,,,,,,,,2,64,0,,
144720,note_on,240,0,1,,,,,,,,,0,,,65,0
144720,note_on,0,0,1,,,,,,,,,0,,,67,62
144960,note_on,0,0,1,,,,,,,,,0,,,61,62
144960,note_on,240,0,1,,,,,,,,,0,,,67,0
144960,note_on,0,0,1,,,,,,,,,0,,,63,62
144960,note_on,0,0,1,,,,,,,,,0,,,70,62
144960,note_on,240,0,3,,,,,,,,,2,,,44,49
144960,note_on,0,0,3,,,,,,,,,2,,,55,49
144960,note_on,0,0,3,,,,,,,,,2,,,51,49
144960,note_on,0,0,3,,,,,,,,,2,,,49,49
147840,note_on,0,0,3,,,,,,,,,2,,,51,0
147840,control_change,0,0,1,,,,,,,,,0,64,127,,
147840,note_on,2880,0,1,,,,,,,,,0,,,70,0
147840,note_on,2880,0,3,,,,,,,,,2,,,55,0
147840,note_on,0,0,3,,,,,,,,,2,,,49,0
147840,note_on,0,0,1,,,,,,,,,0,,,61,0
147840,note_on,0,0,1,,,,,,,,,0,,,69,62
147840,note_on,0,0,1,,,,,,,,,0,,,63,0
147840,note_on,0,0,3,,,,,,,,,2,,,44,0
147920,note_on,80,0,1,,,,,,,,,0,,,69,0
147920,note_on,0,0,1,,,,,,,,,0,,,70,62
147999,note_on,79,0,1,,,,,,,,,0,,,70,0
147999,note_on,0,0,1,,,,,,,,,0,,,72,62
148080,note_on,81,0,1,,,,,,,,,0,,,72,0
148080,note_on,0,0,1,,,,,,,,,0,,,70,62
148160,note_on,80,0,1,,,,,,,,,0,,,70,0
148160,note_on,0,0,1,,,,,,,,,0,,,69,62
148239,note_on,79,0,1,,,,,,,,,0,,,69,0
148239,note_on,0,0,1,,,,,,,,,0,,,70,62
148320,note_on,81,0,1,,,,,,,,,0,,,70,0
148320,note_on,0,0,1,,,,,,,,,0,,,73,62
148400,note_on,80,0,1,,,,,,,,,0,,,73,0
148400,note_on,0,0,1,,,,,,,,,0,,,72,62
148479,note_on,79,0,1,,,,,,,,,0,,,72,0
148479,note_on,0,0,1,,,,,,,,,0,,,75,62
148560,note_on,0,0,1,,,,,,,,,0,,,73,62
148560,note_on,81,0,1,,,,,,,,,0,,,75,0
148640,note_on,80,0,1,,,,,,,,,0,,,73,0
148640,note_on,0,0,1,,,,,,,,,0,,,77,62
148719,note_on,0,0,1,,,,,,,,,0,,,75,62
148719,note_on,79,0,1,,,,,,,,,0,,,77,0
148800,note_on,0,0,1,,,,,,,,,0,,,79,62
148800,note_on,81,0,1,,,,,,,,,0,,,75,0
148880,note_on,80,0,1,,,,,,,,,0,,,79,0
148880,note_on,0,0,1,,,,,,,,,0,,,77,62
148959,note_on,79,0,1,,,,,,,,,0,,,77,0
148959,note_on,0,0,1,,,,,,,,,0,,,80,62
149040,note_on,81,0,1,,,,,,,,,0,,,80,0
149040,note_on,0,0,1,,,,,,,,,0,,,79,62
149120,note_on,80,0,1,,,,,,,,,0,,,79,0
149120,note_on,0,0,1,,,,,,,,,0,,,82,62
149199,note_on,0,0,1,,,,,,,,,0,,,80,62
149199,note_on,79,0,1,,,,,,,,,0,,,82,0
149280,note_on,0,0,1,,,,,,,,,0,,,84,75
149280,note_on,81,0,1,,,,,,,,,0,,,80,0
149360,note_on,0,0,1,,,,,,,,,0,,,82,75
149360,note_on,80,0,1,,,,,,,,,0,,,84,0
149439,note_on,0,0,1,,,,,,,,,0,,,85,75
149439,note_on,79,0,1,,,,,,,,,0,,,82,0
149520,note_on,81,0,1,,,,,,,,,0,,,85,0
149520,note_on,0,0,1,,,,,,,,,0,,,84,75
149600,note_on,80,0,1,,,,,,,,,0,,,84,0
149600,note_on,0,0,1,,,,,,,,,0,,,87,75
149679,note_on,79,0,1,,,,,,,,,0,,,87,0
149679,note_on,0,0,1,,,,,,,,,0,,,85,75
149760,note_on,81,0,1,,,,,,,,,0,,,85,0
149760,note_on,0,0,1,,,,,,,,,0,,,89,75
149840,note_on,80,0,1,,,,,,,,,0,,,89,0
149840,note_on,0,0,1,,,,,,,,,0,,,87,75
149919,note_on,79,0,1,,,,,,,,,0,,,87,0
149919,note_on,0,0,1,,,,,,,,,0,,,91,75
150000,note_on,81,0,1,,,,,,,,,0,,,91,0
150000,note_on,0,0,1,,,,,,,,,0,,,89,75
150080,note_on,0,0,1,,,,,,,,,0,,,92,75
150080,note_on,80,0,1,,,,,,,,,0,,,89,0
150159,note_on,0,0,1,,,,,,,,,0,,,91,75
150159,note_on,79,0,1,,,,,,,,,0,,,92,0
150240,note_on,81,0,1,,,,,,,,,0,,,91,0
150240,note_on,0,0,1,,,,,,,,,0,,,94,75
150320,note_on,80,0,1,,,,,,,,,0,,,94,0
150320,note_on,0,0,1,,,,,,,,,0,,,92,75
150399,note_on,0,0,1,,,,,,,,,0,,,96,75
150399,note_on,79,0,1,,,,,,,,,0,,,92,0
150480,note_on,81,0,1,,,,,,,,,0,,,96,0
150480,note_on,0,0,1,,,,,,,,,0,,,94,75
150560,note_on,0,0,1,,,,,,,,,0,,,97,75
150560,note_on,80,0,1,,,,,,,,,0,,,94,0
150639,note_on,79,0,1,,,,,,,,,0,,,97,0
150639,note_on,0,0,1,,,,,,,,,0,,,96,75
150720,note_on,81,0,1,,,,,,,,,0,,,96,0
150720,note_on,0,0,1,,,,,,,,,0,,,99,75
150840,note_on,120,0,1,,,,,,,,,0,,,99,0
150840,note_on,0,0,1,,,,,,,,,0,,,97,75
150840,control_change,0,0,1,,,,,,,,,0,64,0,,
150960,set_tempo,8858,1,0,,,,,,389610,,,,,,,
150960,note_on,120,0,1,,,,,,,,,0,,,97,0
150960,control_change,0,0,1,,,,,,,,,0,64,127,,
150960,note_on,0,0,1,,,,,,,,,0,,,101,75
151200,set_tempo,240,1,0,,,,,,405405,,,,,,,
151320,note_on,360,0,1,,,,,,,,,0,,,101,0
151320,note_on,0,0,1,,,,,,,,,0,,,99,75
151440,note_on,120,0,1,,,,,,,,,0,,,99,0
151440,note_on,0,0,1,,,,,,,,,0,,,97,75
151440,set_tempo,240,1,0,,,,,,422535,,,,,,,
151560,note_on,120,0,1,,,,,,,,,0,,,97,0
151560,note_on,0,0,1,,,,,,,,,0,,,94,75
151680,set_tempo,240,1,0,,,,,,447761,,,,,,,
151680,note_on,120,0,1,,,,,,,,,0,,,94,0
151680,note_on,0,0,1,,,,,,,,,0,,,91,75
151800,note_on,120,0,1,,,,,,,,,0,,,91,0
151800,note_on,0,0,1,,,,,,,,,0,,,87,75
151920,note_on,120,0,1,,,,,,,,,0,,,87,0
151920,set_tempo,240,1,0,,,,,,468750,,,,,,,
151920,note_on,0,0,1,,,,,,,,,0,,,85,75
152040,note_on,0,0,1,,,,,,,,,0,,,82,62
152040,note_on,120,0,1,,,,,,,,,0,,,85,0
152160,set_tempo,240,1,0,,,,,,491803,,,,,,,
152160,note_on,0,0,1,,,,,,,,,0,,,79,62
152160,note_on,120,0,1,,,,,,,,,0,,,82,0
152280,note_on,0,0,1,,,,,,,,,0,,,75,62
152280,note_on,120,0,1,,,,,,,,,0,,,79,0
152400,set_tempo,240,1,0,,,,,,517241,,,,,,,
152400,note_on,0,0,1,,,,,,,,,0,,,73,62
152400,note_on,120,0,1,,,,,,,,,0,,,75,0
152520,note_on,0,0,1,,,,,,,,,0,,,70,62
152520,note_on,120,0,1,,,,,,,,,0,,,73,0
152640,note_on,0,0,1,,,,,,,,,0,,,67,62
152640,note_on,120,0,1,,,,,,,,,0,,,70,0
152640,set_tempo,240,1,0,,,,,,555556,,,,,,,
152760,note_on,120,0,1,,,,,,,,,0,,,67,0
152760,note_on,0,0,1,,,,,,,,,0,,,63,62
152880,note_on,0,0,1,,,,,,,,,0,,,65,62
152880,note_on,120,0,1,,,,,,,,,0,,,63,0
152960,note_on,0,0,1,,,,,,,,,0,,,63,62
152960,note_on,80,0,1,,,,,,,,,0,,,65,0
153039,note_on,0,0,1,,,,,,,,,0,,,62,62
153039,note_on,79,0,1,,,,,,,,,0,,,63,0
153120,note_on,0,0,1,,,,,,,,,0,,,63,62
153120,note_on,81,0,1,,,,,,,,,0,,,62,0
153200,note_on,0,0,1,,,,,,,,,0,,,62,62
153200,note_on,80,0,1,,,,,,,,,0,,,63,0
153279,note_on,0,0,1,,,,,,,,,0,,,63,62
153279,note_on,79,0,1,,,,,,,,,0,,,62,0
153360,note_on,0,0,1,,,,,,,,,0,,,72,62
153360,note_on,81,0,1,,,,,,,,,0,,,63,0
153600,time_signature,960,1,0,10,4,24,8,,,,,,,,,
153600,end_of_track,0,1,0,,,,,,,,,,,,,
154080,note_on,0,0,1,,,,,,,,,0,,,70,62
154080,note_on,720,0,1,,,,,,,,,0,,,72,0
154080,control_change,0,0,1,,,,,,,,,0,64,0,,
154320,note_on,0,0,3,,,,,,,,,2,,,44,62
154320,note_on,240,0,1,,,,,,,,,0,,,70,0
154320,control_change,6480,0,3,,,,,,,,,2,64,127,,
154400,note_on,80,0,3,,,,,,,,,2,,,44,0
154400,note_on,0,0,3,,,,,,,,,2,,,48,62
154479,note_on,79,0,3,,,,,,,,,2,,,48,0
154479,note_on,0,0,3,,,,,,,,,2,,,51,62
154560,control_change,240,0,1,,,,,,,,,0,64,127,,
154560,note_on,81,0,3,,,,,,,,,2,,,51,0
154560,note_on,0,0,3,,,,,,,,,2,,,56,62
154640,note_on,80,0,3,,,,,,,,,2,,,56,0
154640,note_on,0,0,3,,,,,,,,,2,,,60,62
154719,note_on,79,0,3,,,,,,,,,2,,,60,0
154719,note_on,0,0,3,,,,,,,,,2,,,63,62
154800,note_on,81,0,3,,,,,,,,,2,,,63,0
154800,note_on,0,0,3,,,,,,,,,2,,,68,62
155760,note_on,960,0,3,,,,,,,,,2,,,68,0
157920,end_of_track,0,1,3,,,,,,,,,,,,,
157920,control_change,2160,0,3,,,,,,,,,2,64,0,,
157920,control_change,3360,0,1,,,,,,,,,0,64,0,,
157920,end_of_track,0,1,1,,,,,,,,,,,,,
