tick,type,time,meta,track,numerator,denominator,clocks_per_click,notated_32nd_notes_per_beat,key,tempo,port,program,channel,control,value,note,velocity
0,control_change,0,0,1,,,,,,,,,0,7,127,,
0,key_signature,0,1,0,,,,,Bb,,,,,,,,
0,midi_port,0,1,1,,,,,,,0,,,,,,
0,midi_port,0,1,2,,,,,,,0,,,,,,
0,midi_port,0,1,3,,,,,,,0,,,,,,
0,midi_port,0,1,4,,,,,,,0,,,,,,
0,track_name,0,1,3,,,,,,,,,,,,,
0,program_change,0,0,1,,,,,,,,0,0,,,,
0,copyright,0,1,0,,,,,,,,,,,,,
0,program_change,0,0,2,,,,,,,,0,1,,,,
0,program_change,0,0,4,,,,,,,,0,3,,,,
0,set_tempo,0,1,0,,,,,,625000,,,,,,,
0,text,0,1,0,,,,,,,,,,,,,
0,time_signature,0,1,0,2,4,24,8,,,,,,,,,
0,track_name,0,1,0,,,,,,,,,,,,,
0,track_name,0,1,1,,,,,,,,,,,,,
0,track_name,0,1,2,,,,,,,,,,,,,
0,program_change,0,0,3,,,,,,,,0,2,,,,
0,control_change,0,0,4,,,,,,,,,3,10,30,,
0,track_name,0,1,4,,,,,,,,,,,,,
0,control_change,0,0,1,,,,,,,,,0,10,97,,
0,control_change,0,0,2,,,,,,,,,1,7,127,,
0,control_change,0,0,2,,,,,,,,,1,10,97,,
0,control_change,0,0,4,,,,,,,,,3,7,127,,
0,control_change,0,0,3,,,,,,,,,2,10,30,,
0,control_change,0,0,3,,,,,,,,,2,7,127,,
1,copyright,1,1,5,,,,,,,,,,,,,
1,end_of_track,0,1,5,,,,,,,,,,,,,
53,set_tempo,53,1,0,,,,,,434783,,,,,,,
840,note_on,840,0,3,,,,,,,,,2,,,43,49
960,note_on,0,0,3,,,,,,,,,2,,,58,49
960,note_on,120,0,3,,,,,,,,,2,,,43,0
1080,note_on,1080,0,2,,,,,,,,,1,,,62,62
1080,note_on,1080,0,1,,,,,,,,,0,,,62,62
1200,note_on,0,0,1,,,,,,,,,0,,,74,62
1200,note_on,120,0,1,,,,,,,,,0,,,62,0
1320,note_on,0,0,1,,,,,,,,,0,,,67,62
1320,note_on,120,0,1,,,,,,,,,0,,,74,0
1320,note_on,360,0,3,,,,,,,,,2,,,58,0
1320,note_on,0,0,3,,,,,,,,,2,,,43,49
1440,note_on,120,0,3,,,,,,,,,2,,,43,0
1440,note_on,0,0,3,,,,,,,,,2,,,55,49
1440,note_on,120,0,1,,,,,,,,,0,,,67,0
1440,note_on,360,0,2,,,,,,,,,1,,,62,0
1560,note_on,120,0,2,,,,,,,,,1,,,62,62
1560,note_on,120,0,1,,,,,,,,,0,,,62,62
1680,note_on,0,0,1,,,,,,,,,0,,,70,62
1680,note_on,120,0,1,,,,,,,,,0,,,62,0
1800,note_on,120,0,1,,,,,,,,,0,,,70,0
1800,note_on,360,0,3,,,,,,,,,2,,,55,0
1800,note_on,0,0,3,,,,,,,,,2,,,43,49
1800,note_on,0,0,1,,,,,,,,,0,,,67,62
1920,note_on,120,0,1,,,,,,,,,0,,,67,0
1920,note_on,0,0,3,,,,,,,,,2,,,60,49
1920,note_on,360,0,2,,,,,,,,,1,,,62,0
1920,note_on,120,0,3,,,,,,,,,2,,,43,0
2040,note_on,120,0,2,,,,,,,,,1,,,63,62
2040,note_on,120,0,1,,,,,,,,,0,,,63,62
2160,note_on,0,0,1,,,,,,,,,0,,,75,62
2160,note_on,120,0,1,,,,,,,,,0,,,63,0
2280,note_on,0,0,3,,,,,,,,,2,,,43,49
2280,note_on,0,0,1,,,,,,,,,0,,,67,62
2280,note_on,360,0,3,,,,,,,,,2,,,60,0
2280,note_on,120,0,1,,,,,,,,,0,,,75,0
2400,note_on,120,0,1,,,,,,,,,0,,,67,0
2400,note_on,0,0,3,,,,,,,,,2,,,58,49
2400,note_on,360,0,2,,,,,,,,,1,,,63,0
2400,note_on,120,0,3,,,,,,,,,2,,,43,0
2520,note_on,120,0,1,,,,,,,,,0,,,62,62
2520,note_on,120,0,2,,,,,,,,,1,,,62,62
2640,note_on,0,0,1,,,,,,,,,0,,,74,62
2640,note_on,120,0,1,,,,,,,,,0,,,62,0
2760,note_on,0,0,1,,,,,,,,,0,,,67,62
2760,note_on,120,0,1,,,,,,,,,0,,,74,0
2760,note_on,0,0,3,,,,,,,,,2,,,43,49
2760,note_on,360,0,3,,,,,,,,,2,,,58,0
2880,note_on,120,0,3,,,,,,,,,2,,,43,0
2880,note_on,120,0,1,,,,,,,,,0,,,67,0
2880,note_on,360,0,2,,,,,,,,,1,,,62,0
2880,note_on,0,0,3,,,,,,,,,2,,,57,49
3000,note_on,120,0,1,,,,,,,,,0,,,60,62
3000,note_on,120,0,2,,,,,,,,,1,,,60,62
3120,note_on,120,0,1,,,,,,,,,0,,,60,0
3120,note_on,0,0,1,,,,,,,,,0,,,72,62
3240,note_on,0,0,3,,,,,,,,,2,,,43,49
3240,note_on,120,0,1,,,,,,,,,0,,,72,0
3240,note_on,0,0,1,,,,,,,,,0,,,66,62
3240,note_on,360,0,3,,,,,,,,,2,,,57,0
3360,note_on,120,0,1,,,,,,,,,0,,,66,0
3360,note_on,0,0,3,,,,,,,,,2,,,55,49
3360,note_on,360,0,2,,,,,,,,,1,,,60,0
3360,note_on,120,0,3,,,,,,,,,2,,,43,0
3480,note_on,120,0,1,,,,,,,,,0,,,58,62
3480,note_on,120,0,2,,,,,,,,,1,,,58,62
3600,note_on,120,0,1,,,,,,,,,0,,,58,0
3600,note_on,0,0,1,,,,,,,,,0,,,70,62
3720,note_on,0,0,1,,,,,,,,,0,,,67,62
3720,note_on,360,0,3,,,,,,,,,2,,,55,0
3720,note_on,0,0,3,,,,,,,,,2,,,36,49
3720,note_on,120,0,1,,,,,,,,,0,,,70,0
3840,note_on,120,0,3,,,,,,,,,2,,,36,0
3840,note_on,120,0,1,,,,,,,,,0,,,67,0
3840,note_on,360,0,2,,,,,,,,,1,,,58,0
3840,note_on,0,0,3,,,,,,,,,2,,,51,49
3960,note_on,120,0,1,,,,,,,,,0,,,57,62
3960,note_on,120,0,2,,,,,,,,,1,,,57,62
4080,note_on,120,0,1,,,,,,,,,0,,,57,0
4080,note_on,0,0,1,,,,,,,,,0,,,69,62
4200,note_on,360,0,3,,,,,,,,,2,,,51,0
4200,note_on,0,0,3,,,,,,,,,2,,,36,49
4200,note_on,0,0,1,,,,,,,,,0,,,60,62
4200,note_on,120,0,1,,,,,,,,,0,,,69,0
4320,note_on,360,0,2,,,,,,,,,1,,,57,0
4320,note_on,120,0,1,,,,,,,,,0,,,60,0
4320,note_on,120,0,3,,,,,,,,,2,,,36,0
4320,note_on,0,0,3,,,,,,,,,2,,,48,49
4440,note_on,120,0,1,,,,,,,,,0,,,57,62
4440,note_on,120,0,2,,,,,,,,,1,,,57,62
4560,note_on,120,0,1,,,,,,,,,0,,,57,0
4560,note_on,0,0,1,,,,,,,,,0,,,63,62
4680,note_on,0,0,3,,,,,,,,,2,,,38,49
4680,note_on,120,0,1,,,,,,,,,0,,,63,0
4680,note_on,0,0,1,,,,,,,,,0,,,60,62
4680,note_on,360,0,3,,,,,,,,,2,,,48,0
4800,note_on,120,0,3,,,,,,,,,2,,,38,0
4800,note_on,120,0,1,,,,,,,,,0,,,60,0
4800,note_on,0,0,3,,,,,,,,,2,,,50,49
4800,note_on,360,0,2,,,,,,,,,1,,,57,0
4920,note_on,120,0,1,,,,,,,,,0,,,55,62
4920,note_on,120,0,2,,,,,,,,,1,,,55,62
5040,note_on,0,0,1,,,,,,,,,0,,,67,62
5040,note_on,120,0,1,,,,,,,,,0,,,55,0
5160,note_on,0,0,1,,,,,,,,,0,,,58,62
5160,note_on,360,0,3,,,,,,,,,2,,,50,0
5160,note_on,0,0,3,,,,,,,,,2,,,38,49
5160,note_on,120,0,1,,,,,,,,,0,,,67,0
5280,note_on,120,0,1,,,,,,,,,0,,,58,0
5280,note_on,360,0,2,,,,,,,,,1,,,55,0
5280,note_on,120,0,3,,,,,,,,,2,,,38,0
5280,note_on,0,0,3,,,,,,,,,2,,,50,49
5400,note_on,120,0,2,,,,,,,,,1,,,57,62
5400,note_on,120,0,1,,,,,,,,,0,,,57,62
5520,note_on,120,0,1,,,,,,,,,0,,,57,0
5520,note_on,0,0,1,,,,,,,,,0,,,66,62
5640,note_on,120,0,1,,,,,,,,,0,,,66,0
5640,note_on,0,0,1,,,,,,,,,0,,,60,62
5640,note_on,0,0,3,,,,,,,,,2,,,38,49
5640,note_on,360,0,3,,,,,,,,,2,,,50,0
5760,note_on,360,0,2,,,,,,,,,1,,,57,0
5760,note_on,0,0,3,,,,,,,,,2,,,58,49
5760,note_on,120,0,3,,,,,,,,,2,,,38,0
5760,note_on,120,0,1,,,,,,,,,0,,,60,0
5880,note_on,120,0,2,,,,,,,,,1,,,62,62
5880,note_on,120,0,1,,,,,,,,,0,,,62,62
6000,note_on,120,0,1,,,,,,,,,0,,,62,0
6000,note_on,0,0,1,,,,,,,,,0,,,74,62
6120,note_on,120,0,1,,,,,,,,,0,,,74,0
6120,note_on,0,0,3,,,,,,,,,2,,,43,49
6120,note_on,0,0,1,,,,,,,,,0,,,67,62
6120,note_on,360,0,3,,,,,,,,,2,,,58,0
6240,note_on,120,0,1,,,,,,,,,0,,,67,0
6240,note_on,0,0,3,,,,,,,,,2,,,55,49
6240,note_on,360,0,2,,,,,,,,,1,,,62,0
6240,note_on,120,0,3,,,,,,,,,2,,,43,0
6360,note_on,120,0,2,,,,,,,,,1,,,62,62
6360,note_on,120,0,1,,,,,,,,,0,,,62,62
6480,note_on,120,0,1,,,,,,,,,0,,,62,0
6480,note_on,0,0,1,,,,,,,,,0,,,70,62
6600,note_on,0,0,1,,,,,,,,,0,,,67,62
6600,note_on,0,0,3,,,,,,,,,2,,,43,49
6600,note_on,120,0,1,,,,,,,,,0,,,70,0
6600,note_on,360,0,3,,,,,,,,,2,,,55,0
6720,note_on,120,0,1,,,,,,,,,0,,,67,0
6720,note_on,360,0,2,,,,,,,,,1,,,62,0
6720,note_on,120,0,3,,,,,,,,,2,,,43,0
6720,note_on,0,0,3,,,,,,,,,2,,,60,49
6840,note_on,120,0,1,,,,,,,,,0,,,63,62
6840,note_on,120,0,2,,,,,,,,,1,,,63,62
6960,note_on,120,0,1,,,,,,,,,0,,,63,0
6960,note_on,0,0,1,,,,,,,,,0,,,75,62
7080,note_on,120,0,1,,,,,,,,,0,,,75,0
7080,note_on,0,0,3,,,,,,,,,2,,,43,49
7080,note_on,0,0,1,,,,,,,,,0,,,67,62
7080,note_on,360,0,3,,,,,,,,,2,,,60,0
7200,note_on,0,0,3,,,,,,,,,2,,,58,49
7200,note_on,120,0,3,,,,,,,,,2,,,43,0
7200,note_on,360,0,2,,,,,,,,,1,,,63,0
7200,note_on,120,0,1,,,,,,,,,0,,,67,0
7320,note_on,120,0,1,,,,,,,,,0,,,62,62
7320,note_on,120,0,2,,,,,,,,,1,,,62,62
7440,note_on,0,0,1,,,,,,,,,0,,,74,62
7440,note_on,120,0,1,,,,,,,,,0,,,62,0
7560,note_on,120,0,1,,,,,,,,,0,,,74,0
7560,note_on,0,0,3,,,,,,,,,2,,,43,49
7560,note_on,360,0,3,,,,,,,,,2,,,58,0
7560,note_on,0,0,1,,,,,,,,,0,,,67,62
7680,note_on,360,0,2,,,,,,,,,1,,,62,0
7680,note_on,120,0,1,,,,,,,,,0,,,67,0
7680,note_on,0,0,3,,,,,,,,,2,,,57,49
7680,note_on,120,0,3,,,,,,,,,2,,,43,0
7800,note_on,120,0,2,,,,,,,,,1,,,60,62
7800,note_on,120,0,1,,,,,,,,,0,,,60,62
7920,note_on,120,0,1,,,,,,,,,0,,,60,0
7920,note_on,0,0,1,,,,,,,,,0,,,72,62
8040,note_on,0,0,1,,,,,,,,,0,,,66,62
8040,note_on,360,0,3,,,,,,,,,2,,,57,0
8040,note_on,0,0,3,,,,,,,,,2,,,43,49
8040,note_on,120,0,1,,,,,,,,,0,,,72,0
8160,note_on,120,0,1,,,,,,,,,0,,,66,0
8160,note_on,360,0,2,,,,,,,,,1,,,60,0
8160,note_on,0,0,3,,,,,,,,,2,,,55,49
8160,note_on,120,0,3,,,,,,,,,2,,,43,0
8280,note_on,120,0,1,,,,,,,,,0,,,58,62
8280,note_on,120,0,2,,,,,,,,,1,,,58,62
8400,note_on,120,0,1,,,,,,,,,0,,,58,0
8400,note_on,0,0,1,,,,,,,,,0,,,70,62
8520,note_on,0,0,1,,,,,,,,,0,,,67,62
8520,note_on,120,0,1,,,,,,,,,0,,,70,0
8520,note_on,0,0,3,,,,,,,,,2,,,36,49
8520,note_on,360,0,3,,,,,,,,,2,,,55,0
8640,note_on,0,0,3,,,,,,,,,2,,,51,49
8640,note_on,120,0,3,,,,,,,,,2,,,36,0
8640,note_on,120,0,1,,,,,,,,,0,,,67,0
8640,note_on,360,0,2,,,,,,,,,1,,,58,0
8760,note_on,120,0,2,,,,,,,,,1,,,57,62
8760,note_on,120,0,1,,,,,,,,,0,,,57,62
8880,note_on,0,0,1,,,,,,,,,0,,,69,62
8880,note_on,120,0,1,,,,,,,,,0,,,57,0
9000,note_on,360,0,3,,,,,,,,,2,,,51,0
9000,note_on,120,0,1,,,,,,,,,0,,,69,0
9000,note_on,0,0,1,,,,,,,,,0,,,60,62
9000,note_on,0,0,3,,,,,,,,,2,,,36,49
9120,note_on,360,0,2,,,,,,,,,1,,,57,0
9120,note_on,0,0,3,,,,,,,,,2,,,48,49
9120,note_on,120,0,3,,,,,,,,,2,,,36,0
9120,note_on,120,0,1,,,,,,,,,0,,,60,0
9240,note_on,120,0,1,,,,,,,,,0,,,57,62
9240,note_on,120,0,2,,,,,,,,,1,,,57,62
9360,note_on,0,0,1,,,,,,,,,0,,,63,62
9360,note_on,120,0,1,,,,,,,,,0,,,57,0
9480,note_on,0,0,3,,,,,,,,,2,,,38,49
9480,note_on,360,0,3,,,,,,,,,2,,,48,0
9480,note_on,0,0,1,,,,,,,,,0,,,60,62
9480,note_on,120,0,1,,,,,,,,,0,,,63,0
9600,note_on,360,0,2,,,,,,,,,1,,,57,0
9600,note_on,120,0,3,,,,,,,,,2,,,38,0
9600,note_on,120,0,1,,,,,,,,,0,,,60,0
9600,note_on,0,0,3,,,,,,,,,2,,,50,49
9720,note_on,120,0,2,,,,,,,,,1,,,55,62
9720,note_on,120,0,1,,,,,,,,,0,,,55,62
9840,note_on,120,0,1,,,,,,,,,0,,,55,0
9840,note_on,0,0,1,,,,,,,,,0,,,67,62
9960,note_on,120,0,1,,,,,,,,,0,,,67,0
9960,note_on,0,0,1,,,,,,,,,0,,,58,88
9960,note_on,0,0,3,,,,,,,,,2,,,38,75
9960,note_on,360,0,3,,,,,,,,,2,,,50,0
10080,note_on,120,0,1,,,,,,,,,0,,,58,0
10080,note_on,120,0,3,,,,,,,,,2,,,38,0
10080,note_on,0,0,3,,,,,,,,,2,,,50,49
10080,note_on,360,0,2,,,,,,,,,1,,,55,0
10200,note_on,120,0,2,,,,,,,,,1,,,57,62
10200,note_on,120,0,1,,,,,,,,,0,,,57,62
10320,note_on,0,0,1,,,,,,,,,0,,,66,62
10320,note_on,120,0,1,,,,,,,,,0,,,57,0
10440,note_on,360,0,3,,,,,,,,,2,,,50,0
10440,note_on,0,0,1,,,,,,,,,0,,,60,62
10440,note_on,120,0,1,,,,,,,,,0,,,66,0
10440,note_on,0,0,3,,,,,,,,,2,,,38,49
10560,note_on,360,0,2,,,,,,,,,1,,,57,0
10560,note_on,0,0,3,,,,,,,,,2,,,50,49
10560,note_on,120,0,1,,,,,,,,,0,,,60,0
10560,note_on,120,0,3,,,,,,,,,2,,,38,0
10680,note_on,120,0,2,,,,,,,,,1,,,55,62
10680,note_on,120,0,1,,,,,,,,,0,,,55,62
10800,note_on,0,0,1,,,,,,,,,0,,,67,62
10800,note_on,120,0,1,,,,,,,,,0,,,55,0
10920,note_on,120,0,1,,,,,,,,,0,,,67,0
10920,note_on,0,0,1,,,,,,,,,0,,,58,62
10920,note_on,0,0,3,,,,,,,,,2,,,43,49
10920,note_on,360,0,3,,,,,,,,,2,,,50,0
11040,note_on,120,0,1,,,,,,,,,0,,,58,0
11040,note_on,120,0,3,,,,,,,,,2,,,43,0
11040,note_on,0,0,3,,,,,,,,,2,,,50,49
11040,note_on,360,0,2,,,,,,,,,1,,,55,0
11160,note_on,120,0,2,,,,,,,,,1,,,55,62
11160,note_on,120,0,1,,,,,,,,,0,,,55,62
11280,note_on,0,0,1,,,,,,,,,0,,,62,62
11280,note_on,120,0,1,,,,,,,,,0,,,55,0
11400,note_on,0,0,1,,,,,,,,,0,,,58,62
11400,note_on,120,0,1,,,,,,,,,0,,,62,0
11400,note_on,0,0,3,,,,,,,,,2,,,43,49
11400,note_on,360,0,3,,,,,,,,,2,,,50,0
11520,note_on,0,0,3,,,,,,,,,2,,,62,75
11520,note_on,120,0,1,,,,,,,,,0,,,58,0
11520,note_on,360,0,2,,,,,,,,,1,,,55,0
11520,note_on,120,0,3,,,,,,,,,2,,,43,0
11640,note_on,120,0,2,,,,,,,,,1,,,67,88
11640,note_on,120,0,1,,,,,,,,,0,,,67,88
11760,note_on,120,0,1,,,,,,,,,0,,,67,0
11760,note_on,0,0,1,,,,,,,,,0,,,74,88
11880,note_on,360,0,3,,,,,,,,,2,,,62,0
11880,note_on,0,0,3,,,,,,,,,2,,,55,75
11880,note_on,120,0,1,,,,,,,,,0,,,74,0
11880,note_on,0,0,1,,,,,,,,,0,,,70,88
12000,note_on,0,0,3,,,,,,,,,2,,,62,75
12000,note_on,120,0,3,,,,,,,,,2,,,55,0
12000,note_on,360,0,2,,,,,,,,,1,,,67,0
12000,note_on,120,0,1,,,,,,,,,0,,,70,0
12120,note_on,120,0,2,,,,,,,,,1,,,67,88
12120,note_on,120,0,1,,,,,,,,,0,,,67,88
12240,note_on,120,0,1,,,,,,,,,0,,,67,0
12240,note_on,0,0,1,,,,,,,,,0,,,76,88
12360,note_on,120,0,1,,,,,,,,,0,,,76,0
12360,note_on,0,0,1,,,,,,,,,0,,,70,88
12360,note_on,360,0,3,,,,,,,,,2,,,62,0
12360,note_on,0,0,3,,,,,,,,,2,,,50,75
12480,note_on,360,0,2,,,,,,,,,1,,,67,0
12480,note_on,120,0,3,,,,,,,,,2,,,50,0
12480,note_on,120,0,1,,,,,,,,,0,,,70,0
12480,note_on,0,0,3,,,,,,,,,2,,,62,75
12600,note_on,120,0,2,,,,,,,,,1,,,65,88
12600,note_on,120,0,1,,,,,,,,,0,,,65,88
12720,note_on,0,0,1,,,,,,,,,0,,,77,88
12720,note_on,120,0,1,,,,,,,,,0,,,65,0
12840,note_on,0,0,3,,,,,,,,,2,,,50,75
12840,note_on,120,0,1,,,,,,,,,0,,,77,0
12840,note_on,0,0,1,,,,,,,,,0,,,69,88
12840,note_on,360,0,3,,,,,,,,,2,,,62,0
12960,note_on,120,0,1,,,,,,,,,0,,,69,0
12960,note_on,360,0,2,,,,,,,,,1,,,65,0
12960,note_on,120,0,3,,,,,,,,,2,,,50,0
12960,note_on,0,0,3,,,,,,,,,2,,,62,49
13080,note_on,120,0,2,,,,,,,,,1,,,65,62
13080,note_on,120,0,1,,,,,,,,,0,,,65,62
13200,note_on,0,0,1,,,,,,,,,0,,,74,62
13200,note_on,120,0,1,,,,,,,,,0,,,65,0
13320,note_on,0,0,3,,,,,,,,,2,,,55,49
13320,note_on,0,0,1,,,,,,,,,0,,,69,62
13320,note_on,360,0,3,,,,,,,,,2,,,62,0
13320,note_on,120,0,1,,,,,,,,,0,,,74,0
13440,note_on,0,0,3,,,,,,,,,2,,,62,75
13440,note_on,360,0,2,,,,,,,,,1,,,65,0
13440,note_on,120,0,1,,,,,,,,,0,,,69,0
13440,note_on,120,0,3,,,,,,,,,2,,,55,0
13560,note_on,120,0,2,,,,,,,,,1,,,67,88
13560,note_on,120,0,1,,,,,,,,,0,,,67,88
13680,note_on,120,0,1,,,,,,,,,0,,,67,0
13680,note_on,0,0,1,,,,,,,,,0,,,74,88
13800,note_on,360,0,3,,,,,,,,,2,,,62,0
13800,note_on,0,0,1,,,,,,,,,0,,,70,88
13800,note_on,0,0,3,,,,,,,,,2,,,55,75
13800,note_on,120,0,1,,,,,,,,,0,,,74,0
13920,note_on,120,0,1,,,,,,,,,0,,,70,0
13920,note_on,360,0,2,,,,,,,,,1,,,67,0
13920,note_on,0,0,3,,,,,,,,,2,,,62,75
13920,note_on,120,0,3,,,,,,,,,2,,,55,0
14040,note_on,120,0,2,,,,,,,,,1,,,67,88
14040,note_on,120,0,1,,,,,,,,,0,,,67,88
14160,note_on,120,0,1,,,,,,,,,0,,,67,0
14160,note_on,0,0,1,,,,,,,,,0,,,76,88
14280,note_on,120,0,1,,,,,,,,,0,,,76,0
14280,note_on,360,0,3,,,,,,,,,2,,,62,0
14280,note_on,0,0,1,,,,,,,,,0,,,70,88
14280,note_on,0,0,3,,,,,,,,,2,,,50,75
14400,note_on,120,0,1,,,,,,,,,0,,,70,0
14400,note_on,0,0,3,,,,,,,,,2,,,62,75
14400,note_on,120,0,3,,,,,,,,,2,,,50,0
14400,note_on,360,0,2,,,,,,,,,1,,,67,0
14520,note_on,120,0,1,,,,,,,,,0,,,65,88
14520,note_on,120,0,2,,,,,,,,,1,,,65,88
14640,note_on,120,0,1,,,,,,,,,0,,,65,0
14640,note_on,0,0,1,,,,,,,,,0,,,77,88
14760,note_on,120,0,1,,,,,,,,,0,,,77,0
14760,note_on,0,0,3,,,,,,,,,2,,,50,75
14760,note_on,360,0,3,,,,,,,,,2,,,62,0
14760,note_on,0,0,1,,,,,,,,,0,,,69,88
14880,note_on,0,0,3,,,,,,,,,2,,,62,49
14880,note_on,120,0,1,,,,,,,,,0,,,69,0
14880,note_on,120,0,3,,,,,,,,,2,,,50,0
14880,note_on,360,0,2,,,,,,,,,1,,,65,0
15000,note_on,120,0,2,,,,,,,,,1,,,65,62
15000,note_on,120,0,1,,,,,,,,,0,,,65,62
15120,note_on,0,0,1,,,,,,,,,0,,,74,62
15120,note_on,120,0,1,,,,,,,,,0,,,65,0
15240,note_on,360,0,3,,,,,,,,,2,,,62,0
15240,note_on,120,0,1,,,,,,,,,0,,,74,0
15240,note_on,0,0,3,,,,,,,,,2,,,55,49
15240,note_on,0,0,1,,,,,,,,,0,,,69,62
15360,note_on,360,0,2,,,,,,,,,1,,,65,0
15360,note_on,120,0,3,,,,,,,,,2,,,55,0
15360,note_on,0,0,3,,,,,,,,,2,,,43,49
15360,note_on,120,0,1,,,,,,,,,0,,,69,0
15480,note_on,120,0,1,,,,,,,,,0,,,67,62
15480,note_on,120,0,2,,,,,,,,,1,,,67,62
15600,note_on,120,0,1,,,,,,,,,0,,,67,0
15600,note_on,0,0,1,,,,,,,,,0,,,77,62
15720,note_on,360,0,3,,,,,,,,,2,,,43,0
15720,note_on,0,0,1,,,,,,,,,0,,,70,62
15720,note_on,120,0,1,,,,,,,,,0,,,77,0
15720,note_on,0,0,3,,,,,,,,,2,,,55,49
15840,note_on,120,0,3,,,,,,,,,2,,,55,0
15840,note_on,0,0,3,,,,,,,,,2,,,43,49
15840,note_on,360,0,2,,,,,,,,,1,,,67,0
15840,note_on,120,0,1,,,,,,,,,0,,,70,0
15960,note_on,120,0,2,,,,,,,,,1,,,67,62
15960,note_on,120,0,1,,,,,,,,,0,,,67,62
16080,note_on,0,0,1,,,,,,,,,0,,,76,62
16080,note_on,120,0,1,,,,,,,,,0,,,67,0
16200,note_on,120,0,1,,,,,,,,,0,,,76,0
16200,note_on,0,0,1,,,,,,,,,0,,,70,62
16200,note_on,360,0,3,,,,,,,,,2,,,43,0
16200,note_on,0,0,3,,,,,,,,,2,,,57,49
16320,note_on,120,0,3,,,,,,,,,2,,,57,0
16320,note_on,360,0,2,,,,,,,,,1,,,67,0
16320,note_on,120,0,1,,,,,,,,,0,,,70,0
16320,note_on,0,0,3,,,,,,,,,2,,,45,49
16440,note_on,120,0,2,,,,,,,,,1,,,65,62
16440,note_on,120,0,1,,,,,,,,,0,,,65,62
16560,note_on,0,0,1,,,,,,,,,0,,,76,62
16560,note_on,120,0,1,,,,,,,,,0,,,65,0
16680,note_on,120,0,1,,,,,,,,,0,,,76,0
16680,note_on,0,0,1,,,,,,,,,0,,,69,62
16680,note_on,360,0,3,,,,,,,,,2,,,45,0
16680,note_on,0,0,3,,,,,,,,,2,,,57,49
16800,note_on,120,0,1,,,,,,,,,0,,,69,0
16800,note_on,360,0,2,,,,,,,,,1,,,65,0
16800,note_on,0,0,3,,,,,,,,,2,,,45,49
16800,note_on,120,0,3,,,,,,,,,2,,,57,0
16920,note_on,120,0,1,,,,,,,,,0,,,65,62
16920,note_on,120,0,2,,,,,,,,,1,,,65,62
17040,note_on,120,0,1,,,,,,,,,0,,,65,0
17040,note_on,0,0,1,,,,,,,,,0,,,74,62
17160,note_on,360,0,3,,,,,,,,,2,,,45,0
17160,note_on,120,0,1,,,,,,,,,0,,,74,0
17160,note_on,0,0,1,,,,,,,,,0,,,69,62
17160,note_on,0,0,3,,,,,,,,,2,,,57,49
17280,note_on,120,0,1,,,,,,,,,0,,,69,0
17280,note_on,0,0,3,,,,,,,,,2,,,33,62
17280,note_on,360,0,2,,,,,,,,,1,,,65,0
17280,note_on,120,0,3,,,,,,,,,2,,,57,0
17400,note_on,120,0,1,,,,,,,,,0,,,67,75
17400,note_on,120,0,2,,,,,,,,,1,,,67,75
17520,note_on,0,0,1,,,,,,,,,0,,,74,75
17520,note_on,120,0,1,,,,,,,,,0,,,67,0
17640,note_on,120,0,1,,,,,,,,,0,,,74,0
17640,note_on,0,0,3,,,,,,,,,2,,,45,62
17640,note_on,360,0,3,,,,,,,,,2,,,33,0
17640,note_on,0,0,1,,,,,,,,,0,,,69,75
17760,note_on,120,0,3,,,,,,,,,2,,,45,0
17760,note_on,120,0,1,,,,,,,,,0,,,69,0
17760,note_on,360,0,2,,,,,,,,,1,,,67,0
17760,note_on,0,0,3,,,,,,,,,2,,,33,75
17880,note_on,120,0,2,,,,,,,,,1,,,67,88
17880,note_on,120,0,1,,,,,,,,,0,,,67,88
18000,note_on,0,0,1,,,,,,,,,0,,,73,88
18000,note_on,120,0,1,,,,,,,,,0,,,67,0
18120,note_on,120,0,1,,,,,,,,,0,,,73,0
18120,note_on,360,0,3,,,,,,,,,2,,,33,0
18120,note_on,0,0,3,,,,,,,,,2,,,64,75
18120,note_on,0,0,1,,,,,,,,,0,,,69,88
18240,note_on,360,0,2,,,,,,,,,1,,,67,0
18240,note_on,120,0,3,,,,,,,,,2,,,64,0
18240,note_on,0,0,3,,,,,,,,,2,,,50,88
18240,note_on,120,0,1,,,,,,,,,0,,,69,0
18360,note_on,120,0,1,,,,,,,,,0,,,65,101
18360,note_on,120,0,2,,,,,,,,,1,,,65,101
18480,note_on,120,0,1,,,,,,,,,0,,,65,0
18480,note_on,0,0,1,,,,,,,,,0,,,74,101
18600,note_on,0,0,1,,,,,,,,,0,,,69,101
18600,note_on,360,0,3,,,,,,,,,2,,,50,0
18600,note_on,0,0,3,,,,,,,,,2,,,62,88
18600,note_on,120,0,1,,,,,,,,,0,,,74,0
18720,note_on,120,0,3,,,,,,,,,2,,,62,0
18720,note_on,360,0,2,,,,,,,,,1,,,65,0
18720,note_on,0,0,3,,,,,,,,,2,,,50,88
18720,note_on,120,0,1,,,,,,,,,0,,,69,0
18840,note_on,120,0,2,,,,,,,,,1,,,65,101
18840,note_on,120,0,1,,,,,,,,,0,,,65,101
18960,note_on,120,0,1,,,,,,,,,0,,,65,0
18960,note_on,0,0,1,,,,,,,,,0,,,74,101
19080,note_on,0,0,1,,,,,,,,,0,,,69,101
19080,note_on,360,0,3,,,,,,,,,2,,,50,0
19080,note_on,0,0,3,,,,,,,,,2,,,62,88
19080,note_on,120,0,1,,,,,,,,,0,,,74,0
19200,note_on,360,0,2,,,,,,,,,1,,,65,0
19200,note_on,120,0,3,,,,,,,,,2,,,62,0
19200,note_on,120,0,1,,,,,,,,,0,,,69,0
19200,note_on,0,0,3,,,,,,,,,2,,,55,88
19320,note_on,120,0,1,,,,,,,,,0,,,67,101
19320,note_on,120,0,2,,,,,,,,,1,,,67,101
19440,note_on,120,0,1,,,,,,,,,0,,,67,0
19440,note_on,0,0,1,,,,,,,,,0,,,74,101
19560,note_on,360,0,3,,,,,,,,,2,,,55,0
19560,note_on,0,0,1,,,,,,,,,0,,,70,101
19560,note_on,0,0,3,,,,,,,,,2,,,62,88
19560,note_on,0,0,3,,,,,,,,,2,,,58,88
19560,note_on,120,0,1,,,,,,,,,0,,,74,0
19680,note_on,0,0,3,,,,,,,,,2,,,58,0
19680,note_on,0,0,3,,,,,,,,,2,,,55,62
19680,note_on,360,0,2,,,,,,,,,1,,,67,0
19680,note_on,120,0,3,,,,,,,,,2,,,62,0
19680,note_on,120,0,1,,,,,,,,,0,,,70,0
19800,note_on,120,0,2,,,,,,,,,1,,,67,62
19800,note_on,120,0,1,,,,,,,,,0,,,67,62
19920,note_on,120,0,1,,,,,,,,,0,,,67,0
19920,note_on,0,0,1,,,,,,,,,0,,,76,62
20040,note_on,120,0,1,,,,,,,,,0,,,76,0
20040,note_on,360,0,3,,,,,,,,,2,,,55,0
20040,note_on,0,0,1,,,,,,,,,0,,,70,62
20040,note_on,0,0,3,,,,,,,,,2,,,58,49
20040,note_on,0,0,3,,,,,,,,,2,,,62,49
20160,note_on,0,0,3,,,,,,,,,2,,,58,0
20160,note_on,120,0,3,,,,,,,,,2,,,62,0
20160,note_on,360,0,2,,,,,,,,,1,,,67,0
20160,note_on,0,0,3,,,,,,,,,2,,,50,62
20160,note_on,120,0,1,,,,,,,,,0,,,70,0
20280,note_on,120,0,1,,,,,,,,,0,,,65,75
20280,note_on,120,0,2,,,,,,,,,1,,,65,75
20400,note_on,120,0,1,,,,,,,,,0,,,65,0
20400,note_on,0,0,1,,,,,,,,,0,,,77,75
20520,note_on,0,0,3,,,,,,,,,2,,,57,62
20520,note_on,360,0,3,,,,,,,,,2,,,50,0
20520,note_on,0,0,3,,,,,,,,,2,,,62,62
20520,note_on,120,0,1,,,,,,,,,0,,,77,0
20520,note_on,0,0,1,,,,,,,,,0,,,69,75
20640,note_on,360,0,2,,,,,,,,,1,,,65,0
20640,note_on,0,0,3,,,,,,,,,2,,,38,49
20640,note_on,0,0,3,,,,,,,,,2,,,57,0
20640,note_on,120,0,3,,,,,,,,,2,,,62,0
20640,note_on,120,0,1,,,,,,,,,0,,,69,0
20760,note_on,120,0,2,,,,,,,,,1,,,65,75
20760,note_on,120,0,1,,,,,,,,,0,,,65,75
20880,note_on,0,0,1,,,,,,,,,0,,,77,75
20880,note_on,120,0,1,,,,,,,,,0,,,65,0
21000,note_on,0,0,3,,,,,,,,,2,,,50,49
21000,note_on,120,0,1,,,,,,,,,0,,,77,0
21000,note_on,0,0,1,,,,,,,,,0,,,69,75
21000,note_on,360,0,3,,,,,,,,,2,,,38,0
21120,note_on,120,0,3,,,,,,,,,2,,,50,0
21120,note_on,360,0,2,,,,,,,,,1,,,65,0
21120,note_on,0,0,3,,,,,,,,,2,,,55,88
21120,note_on,120,0,1,,,,,,,,,0,,,69,0
21240,note_on,120,0,1,,,,,,,,,0,,,67,101
21240,note_on,120,0,2,,,,,,,,,1,,,67,101
21360,note_on,0,0,1,,,,,,,,,0,,,74,101
21360,note_on,120,0,1,,,,,,,,,0,,,67,0
21480,note_on,0,0,1,,,,,,,,,0,,,70,101
21480,note_on,0,0,3,,,,,,,,,2,,,62,88
21480,note_on,360,0,3,,,,,,,,,2,,,55,0
21480,note_on,120,0,1,,,,,,,,,0,,,74,0
21480,note_on,0,0,3,,,,,,,,,2,,,58,88
21600,note_on,120,0,1,,,,,,,,,0,,,70,0
21600,note_on,360,0,2,,,,,,,,,1,,,67,0
21600,note_on,120,0,3,,,,,,,,,2,,,62,0
21600,note_on,0,0,3,,,,,,,,,2,,,55,88
21600,note_on,0,0,3,,,,,,,,,2,,,58,0
21720,note_on,120,0,2,,,,,,,,,1,,,67,101
21720,note_on,120,0,1,,,,,,,,,0,,,67,101
21840,note_on,120,0,1,,,,,,,,,0,,,67,0
21840,note_on,0,0,1,,,,,,,,,0,,,76,101
21960,note_on,360,0,3,,,,,,,,,2,,,55,0
21960,note_on,120,0,1,,,,,,,,,0,,,76,0
21960,note_on,0,0,3,,,,,,,,,2,,,62,88
21960,note_on,0,0,1,,,,,,,,,0,,,70,101
21960,note_on,0,0,3,,,,,,,,,2,,,58,88
22080,note_on,0,0,3,,,,,,,,,2,,,58,0
22080,note_on,360,0,2,,,,,,,,,1,,,67,0
22080,note_on,120,0,3,,,,,,,,,2,,,62,0
22080,note_on,120,0,1,,,,,,,,,0,,,70,0
22080,note_on,0,0,3,,,,,,,,,2,,,50,88
22200,note_on,120,0,1,,,,,,,,,0,,,65,101
22200,note_on,120,0,2,,,,,,,,,1,,,65,101
22320,note_on,0,0,1,,,,,,,,,0,,,77,101
22320,note_on,120,0,1,,,,,,,,,0,,,65,0
22440,note_on,120,0,1,,,,,,,,,0,,,77,0
22440,note_on,0,0,3,,,,,,,,,2,,,57,88
22440,note_on,0,0,3,,,,,,,,,2,,,62,88
22440,note_on,360,0,3,,,,,,,,,2,,,50,0
22440,note_on,0,0,1,,,,,,,,,0,,,69,101
22560,note_on,360,0,2,,,,,,,,,1,,,65,0
22560,note_on,0,0,3,,,,,,,,,2,,,38,49
22560,note_on,120,0,1,,,,,,,,,0,,,69,0
22560,note_on,120,0,3,,,,,,,,,2,,,62,0
22560,note_on,0,0,3,,,,,,,,,2,,,57,0
22680,note_on,120,0,2,,,,,,,,,1,,,65,62
22680,note_on,120,0,1,,,,,,,,,0,,,65,62
22800,note_on,120,0,1,,,,,,,,,0,,,65,0
22800,note_on,0,0,1,,,,,,,,,0,,,77,62
22920,note_on,0,0,1,,,,,,,,,0,,,69,62
22920,note_on,120,0,1,,,,,,,,,0,,,77,0
22920,note_on,360,0,3,,,,,,,,,2,,,38,0
22920,note_on,0,0,3,,,,,,,,,2,,,50,49
23040,note_on,120,0,3,,,,,,,,,2,,,50,0
23040,note_on,0,0,3,,,,,,,,,2,,,58,49
23040,note_on,360,0,2,,,,,,,,,1,,,65,0
23040,note_on,120,0,1,,,,,,,,,0,,,69,0
23160,note_on,120,0,2,,,,,,,,,1,,,70,49
23160,note_on,120,0,1,,,,,,,,,0,,,70,49
23280,note_on,0,0,1,,,,,,,,,0,,,77,49
23280,note_on,120,0,1,,,,,,,,,0,,,70,0
23400,note_on,120,0,1,,,,,,,,,0,,,77,0
23400,note_on,360,0,3,,,,,,,,,2,,,58,0
23400,note_on,0,0,1,,,,,,,,,0,,,74,49
23400,note_on,0,0,3,,,,,,,,,2,,,62,49
23400,note_on,0,0,3,,,,,,,,,2,,,65,49
23520,note_on,360,0,2,,,,,,,,,1,,,70,0
23520,note_on,120,0,3,,,,,,,,,2,,,65,0
23520,note_on,120,0,1,,,,,,,,,0,,,74,0
23520,note_on,0,0,3,,,,,,,,,2,,,62,0
23520,note_on,0,0,3,,,,,,,,,2,,,58,49
23640,note_on,120,0,1,,,,,,,,,0,,,70,49
23640,note_on,120,0,2,,,,,,,,,1,,,70,49
23760,note_on,0,0,1,,,,,,,,,0,,,79,49
23760,note_on,120,0,1,,,,,,,,,0,,,70,0
23880,note_on,120,0,1,,,,,,,,,0,,,79,0
23880,note_on,0,0,3,,,,,,,,,2,,,65,49
23880,note_on,360,0,3,,,,,,,,,2,,,58,0
23880,note_on,0,0,1,,,,,,,,,0,,,74,49
23880,note_on,0,0,3,,,,,,,,,2,,,62,49
24000,note_on,360,0,2,,,,,,,,,1,,,70,0
24000,note_on,120,0,1,,,,,,,,,0,,,74,0
24000,note_on,0,0,3,,,,,,,,,2,,,57,49
24000,note_on,0,0,3,,,,,,,,,2,,,62,0
24000,note_on,120,0,3,,,,,,,,,2,,,65,0
24120,note_on,120,0,1,,,,,,,,,0,,,69,49
24120,note_on,120,0,2,,,,,,,,,1,,,69,49
24240,note_on,120,0,1,,,,,,,,,0,,,69,0
24240,note_on,0,0,1,,,,,,,,,0,,,81,49
24360,note_on,360,0,3,,,,,,,,,2,,,57,0
24360,note_on,120,0,1,,,,,,,,,0,,,81,0
24360,note_on,0,0,3,,,,,,,,,2,,,60,49
24360,note_on,0,0,3,,,,,,,,,2,,,65,49
24360,note_on,0,0,1,,,,,,,,,0,,,72,49
24480,note_on,360,0,2,,,,,,,,,1,,,69,0
24480,note_on,120,0,3,,,,,,,,,2,,,65,0
24480,note_on,0,0,3,,,,,,,,,2,,,41,49
24480,note_on,0,0,3,,,,,,,,,2,,,60,0
24480,note_on,120,0,1,,,,,,,,,0,,,72,0
24600,note_on,120,0,2,,,,,,,,,1,,,69,49
24600,note_on,120,0,1,,,,,,,,,0,,,69,49
24720,note_on,0,0,1,,,,,,,,,0,,,77,49
24720,note_on,120,0,1,,,,,,,,,0,,,69,0
24840,note_on,120,0,1,,,,,,,,,0,,,77,0
24840,note_on,0,0,3,,,,,,,,,2,,,53,49
24840,note_on,0,0,1,,,,,,,,,0,,,72,49
24840,note_on,360,0,3,,,,,,,,,2,,,41,0
24960,note_on,120,0,1,,,,,,,,,0,,,72,0
24960,note_on,0,0,3,,,,,,,,,2,,,62,88
24960,note_on,0,0,3,,,,,,,,,2,,,58,88
24960,note_on,360,0,2,,,,,,,,,1,,,69,0
24960,note_on,120,0,3,,,,,,,,,2,,,53,0
25080,note_on,120,0,1,,,,,,,,,0,,,70,101
25080,note_on,120,0,2,,,,,,,,,1,,,70,88
25200,note_on,0,0,1,,,,,,,,,0,,,77,101
25200,note_on,120,0,1,,,,,,,,,0,,,70,0
25320,note_on,120,0,1,,,,,,,,,0,,,77,0
25320,note_on,0,0,1,,,,,,,,,0,,,74,101
25320,note_on,360,0,3,,,,,,,,,2,,,62,0
25320,note_on,0,0,3,,,,,,,,,2,,,58,0
25320,note_on,0,0,3,,,,,,,,,2,,,65,88
25440,note_on,120,0,3,,,,,,,,,2,,,65,0
25440,note_on,360,0,2,,,,,,,,,1,,,70,0
25440,note_on,0,0,3,,,,,,,,,2,,,58,88
25440,note_on,0,0,3,,,,,,,,,2,,,62,88
25440,note_on,120,0,1,,,,,,,,,0,,,74,0
25560,note_on,120,0,1,,,,,,,,,0,,,70,101
25560,note_on,120,0,2,,,,,,,,,1,,,70,88
25680,note_on,0,0,1,,,,,,,,,0,,,79,101
25680,note_on,120,0,1,,,,,,,,,0,,,70,0
25800,note_on,0,0,1,,,,,,,,,0,,,74,101
25800,note_on,0,0,3,,,,,,,,,2,,,65,88
25800,note_on,0,0,3,,,,,,,,,2,,,58,0
25800,note_on,360,0,3,,,,,,,,,2,,,62,0
25800,note_on,120,0,1,,,,,,,,,0,,,79,0
25920,note_on,120,0,1,,,,,,,,,0,,,74,0
25920,note_on,360,0,2,,,,,,,,,1,,,70,0
25920,note_on,0,0,3,,,,,,,,,2,,,53,88
25920,note_on,120,0,3,,,,,,,,,2,,,65,0
25920,note_on,0,0,3,,,,,,,,,2,,,60,88
26040,note_on,120,0,2,,,,,,,,,1,,,69,88
26040,note_on,120,0,1,,,,,,,,,0,,,69,101
26160,note_on,0,0,1,,,,,,,,,0,,,81,101
26160,note_on,120,0,1,,,,,,,,,0,,,69,0
26280,note_on,0,0,1,,,,,,,,,0,,,72,101
26280,note_on,0,0,3,,,,,,,,,2,,,65,88
26280,note_on,120,0,1,,,,,,,,,0,,,81,0
26280,note_on,360,0,3,,,,,,,,,2,,,60,0
26280,note_on,0,0,3,,,,,,,,,2,,,53,0
26400,note_on,0,0,3,,,,,,,,,2,,,41,49
26400,note_on,120,0,1,,,,,,,,,0,,,72,0
26400,note_on,360,0,2,,,,,,,,,1,,,69,0
26400,note_on,120,0,3,,,,,,,,,2,,,65,0
26520,note_on,120,0,2,,,,,,,,,1,,,69,49
26520,note_on,120,0,1,,,,,,,,,0,,,69,62
26640,note_on,120,0,1,,,,,,,,,0,,,69,0
26640,note_on,0,0,1,,,,,,,,,0,,,77,62
26760,note_on,360,0,3,,,,,,,,,2,,,41,0
26760,note_on,0,0,3,,,,,,,,,2,,,53,49
26760,note_on,120,0,1,,,,,,,,,0,,,77,0
26760,note_on,0,0,1,,,,,,,,,0,,,72,62
26880,note_on,120,0,3,,,,,,,,,2,,,53,0
26880,note_on,120,0,1,,,,,,,,,0,,,72,0
26880,note_on,0,0,3,,,,,,,,,2,,,60,49
26880,note_on,360,0,2,,,,,,,,,1,,,69,0
27000,note_on,120,0,1,,,,,,,,,0,,,72,49
27000,note_on,120,0,2,,,,,,,,,1,,,72,49
27120,note_on,0,0,1,,,,,,,,,0,,,79,49
27120,note_on,120,0,1,,,,,,,,,0,,,72,0
27240,note_on,0,0,3,,,,,,,,,2,,,67,49
27240,note_on,120,0,1,,,,,,,,,0,,,79,0
27240,note_on,0,0,3,,,,,,,,,2,,,63,49
27240,note_on,360,0,3,,,,,,,,,2,,,60,0
27240,note_on,0,0,1,,,,,,,,,0,,,75,49
27360,note_on,0,0,3,,,,,,,,,2,,,63,0
27360,note_on,120,0,1,,,,,,,,,0,,,75,0
27360,note_on,360,0,2,,,,,,,,,1,,,72,0
27360,note_on,120,0,3,,,,,,,,,2,,,67,0
27360,note_on,0,0,3,,,,,,,,,2,,,60,49
27480,note_on,120,0,1,,,,,,,,,0,,,72,49
27480,note_on,120,0,2,,,,,,,,,1,,,72,49
27600,note_on,120,0,1,,,,,,,,,0,,,72,0
27600,note_on,0,0,1,,,,,,,,,0,,,81,49
27720,note_on,120,0,1,,,,,,,,,0,,,81,0
27720,note_on,360,0,3,,,,,,,,,2,,,60,0
27720,note_on,0,0,1,,,,,,,,,0,,,75,49
27720,note_on,0,0,3,,,,,,,,,2,,,67,49
27720,note_on,0,0,3,,,,,,,,,2,,,63,49
27840,note_on,0,0,3,,,,,,,,,2,,,63,0
27840,note_on,0,0,3,,,,,,,,,2,,,55,49
27840,note_on,120,0,3,,,,,,,,,2,,,67,0
27840,note_on,120,0,1,,,,,,,,,0,,,75,0
27840,note_on,360,0,2,,,,,,,,,1,,,72,0
27960,note_on,120,0,2,,,,,,,,,1,,,70,49
27960,note_on,120,0,1,,,,,,,,,0,,,70,49
28080,note_on,120,0,1,,,,,,,,,0,,,70,0
28080,note_on,0,0,1,,,,,,,,,0,,,82,49
28200,note_on,120,0,1,,,,,,,,,0,,,82,0
28200,note_on,360,0,3,,,,,,,,,2,,,55,0
28200,note_on,0,0,1,,,,,,,,,0,,,74,49
28200,note_on,0,0,3,,,,,,,,,2,,,67,49
28320,note_on,120,0,1,,,,,,,,,0,,,74,0
28320,note_on,360,0,2,,,,,,,,,1,,,70,0
28320,note_on,120,0,3,,,,,,,,,2,,,67,0
28320,note_on,0,0,3,,,,,,,,,2,,,53,49
28440,note_on,120,0,1,,,,,,,,,0,,,71,49
28440,note_on,120,0,2,,,,,,,,,1,,,71,49
28560,note_on,120,0,1,,,,,,,,,0,,,71,0
28560,note_on,0,0,1,,,,,,,,,0,,,83,49
28680,note_on,120,0,1,,,,,,,,,0,,,83,0
28680,note_on,0,0,1,,,,,,,,,0,,,79,49
28680,note_on,0,0,3,,,,,,,,,2,,,65,49
28680,note_on,360,0,3,,,,,,,,,2,,,53,0
28800,note_on,0,0,3,,,,,,,,,2,,,52,49
28800,note_on,120,0,1,,,,,,,,,0,,,79,0
28800,note_on,360,0,2,,,,,,,,,1,,,71,0
28800,note_on,120,0,3,,,,,,,,,2,,,65,0
28920,note_on,120,0,1,,,,,,,,,0,,,72,62
28920,note_on,120,0,2,,,,,,,,,1,,,72,49
29040,note_on,0,0,1,,,,,,,,,0,,,84,62
29040,note_on,120,0,1,,,,,,,,,0,,,72,0
29160,note_on,0,0,1,,,,,,,,,0,,,79,62
29160,note_on,0,0,3,,,,,,,,,2,,,64,49
29160,note_on,360,0,3,,,,,,,,,2,,,52,0
29160,note_on,120,0,1,,,,,,,,,0,,,84,0
29280,note_on,0,0,3,,,,,,,,,2,,,51,49
29280,note_on,120,0,1,,,,,,,,,0,,,79,0
29280,note_on,360,0,2,,,,,,,,,1,,,72,0
29280,note_on,120,0,3,,,,,,,,,2,,,64,0
29400,note_on,120,0,2,,,,,,,,,1,,,73,49
29400,note_on,120,0,1,,,,,,,,,0,,,73,62
29520,note_on,120,0,1,,,,,,,,,0,,,73,0
29520,note_on,0,0,1,,,,,,,,,0,,,85,62
29640,note_on,0,0,3,,,,,,,,,2,,,63,49
29640,note_on,120,0,1,,,,,,,,,0,,,85,0
29640,note_on,0,0,1,,,,,,,,,0,,,79,62
29640,note_on,360,0,3,,,,,,,,,2,,,51,0
29760,note_on,120,0,1,,,,,,,,,0,,,79,0
29760,note_on,360,0,2,,,,,,,,,1,,,73,0
29760,note_on,0,0,3,,,,,,,,,2,,,50,62
29760,note_on,120,0,3,,,,,,,,,2,,,63,0
29880,note_on,120,0,1,,,,,,,,,0,,,74,75
29880,note_on,120,0,2,,,,,,,,,1,,,74,62
30000,note_on,120,0,1,,,,,,,,,0,,,74,0
30000,note_on,0,0,1,,,,,,,,,0,,,86,75
30120,note_on,0,0,3,,,,,,,,,2,,,66,62
30120,note_on,0,0,3,,,,,,,,,2,,,69,62
30120,note_on,0,0,1,,,,,,,,,0,,,78,75
30120,note_on,360,0,3,,,,,,,,,2,,,50,0
30120,note_on,120,0,1,,,,,,,,,0,,,86,0
30240,note_on,0,0,3,,,,,,,,,2,,,60,62
30240,note_on,120,0,3,,,,,,,,,2,,,69,0
30240,note_on,360,0,2,,,,,,,,,1,,,74,0
30240,note_on,0,0,3,,,,,,,,,2,,,66,0
30240,note_on,120,0,1,,,,,,,,,0,,,78,0
30360,note_on,120,0,2,,,,,,,,,1,,,75,62
30360,note_on,120,0,1,,,,,,,,,0,,,75,75
30480,note_on,120,0,1,,,,,,,,,0,,,75,0
30480,note_on,0,0,1,,,,,,,,,0,,,87,75
30600,note_on,120,0,1,,,,,,,,,0,,,87,0
30600,note_on,0,0,3,,,,,,,,,2,,,69,62
30600,note_on,0,0,3,,,,,,,,,2,,,66,62
30600,note_on,0,0,1,,,,,,,,,0,,,78,75
30600,note_on,360,0,3,,,,,,,,,2,,,60,0
30720,note_on,120,0,1,,,,,,,,,0,,,78,0
30720,note_on,0,0,3,,,,,,,,,2,,,62,62
30720,note_on,0,0,3,,,,,,,,,2,,,66,0
30720,note_on,360,0,2,,,,,,,,,1,,,75,0
30720,note_on,120,0,3,,,,,,,,,2,,,69,0
30840,note_on,120,0,1,,,,,,,,,0,,,74,75
30840,note_on,120,0,2,,,,,,,,,1,,,74,62
30960,note_on,0,0,1,,,,,,,,,0,,,86,75
30960,note_on,120,0,1,,,,,,,,,0,,,74,0
31080,note_on,120,0,1,,,,,,,,,0,,,86,0
31080,note_on,0,0,1,,,,,,,,,0,,,78,75
31080,note_on,360,0,3,,,,,,,,,2,,,62,0
31080,note_on,0,0,3,,,,,,,,,2,,,69,62
31080,note_on,0,0,3,,,,,,,,,2,,,66,62
31200,note_on,360,0,2,,,,,,,,,1,,,74,0
31200,note_on,120,0,1,,,,,,,,,0,,,78,0
31200,note_on,0,0,3,,,,,,,,,2,,,66,0
31200,note_on,0,0,3,,,,,,,,,2,,,63,62
31200,note_on,120,0,3,,,,,,,,,2,,,69,0
31320,note_on,120,0,1,,,,,,,,,0,,,72,75
31320,note_on,120,0,2,,,,,,,,,1,,,72,62
31440,note_on,0,0,1,,,,,,,,,0,,,84,75
31440,note_on,120,0,1,,,,,,,,,0,,,72,0
31560,note_on,0,0,3,,,,,,,,,2,,,69,62
31560,note_on,120,0,1,,,,,,,,,0,,,84,0
31560,note_on,0,0,3,,,,,,,,,2,,,66,62
31560,note_on,0,0,1,,,,,,,,,0,,,78,75
31560,note_on,360,0,3,,,,,,,,,2,,,63,0
31680,note_on,0,0,3,,,,,,,,,2,,,62,62
31680,note_on,0,0,3,,,,,,,,,2,,,66,0
31680,note_on,360,0,2,,,,,,,,,1,,,72,0
31680,note_on,120,0,1,,,,,,,,,0,,,78,0
31680,note_on,120,0,3,,,,,,,,,2,,,69,0
31800,note_on,120,0,1,,,,,,,,,0,,,74,75
31800,note_on,120,0,2,,,,,,,,,1,,,74,62
31920,note_on,0,0,1,,,,,,,,,0,,,81,75
31920,note_on,120,0,1,,,,,,,,,0,,,74,0
32040,note_on,0,0,3,,,,,,,,,2,,,69,62
32040,note_on,0,0,3,,,,,,,,,2,,,66,62
32040,note_on,0,0,1,,,,,,,,,0,,,78,75
32040,note_on,120,0,1,,,,,,,,,0,,,81,0
32040,note_on,360,0,3,,,,,,,,,2,,,62,0
32160,note_on,0,0,3,,,,,,,,,2,,,66,0
32160,note_on,0,0,3,,,,,,,,,2,,,60,62
32160,note_on,120,0,3,,,,,,,,,2,,,69,0
32160,note_on,360,0,2,,,,,,,,,1,,,74,0
32160,note_on,120,0,1,,,,,,,,,0,,,78,0
32280,note_on,120,0,1,,,,,,,,,0,,,75,75
32280,note_on,120,0,2,,,,,,,,,1,,,75,62
32400,note_on,120,0,1,,,,,,,,,0,,,75,0
32400,note_on,0,0,1,,,,,,,,,0,,,87,75
32520,note_on,120,0,1,,,,,,,,,0,,,87,0
32520,note_on,360,0,3,,,,,,,,,2,,,60,0
32520,note_on,0,0,1,,,,,,,,,0,,,78,75
32520,note_on,0,0,3,,,,,,,,,2,,,69,62
32520,note_on,0,0,3,,,,,,,,,2,,,66,62
32640,note_on,120,0,3,,,,,,,,,2,,,69,0
32640,note_on,120,0,1,,,,,,,,,0,,,78,0
32640,note_on,360,0,2,,,,,,,,,1,,,75,0
32640,note_on,0,0,3,,,,,,,,,2,,,66,0
32640,note_on,0,0,3,,,,,,,,,2,,,62,62
32760,note_on,120,0,1,,,,,,,,,0,,,74,75
32760,note_on,120,0,2,,,,,,,,,1,,,74,62
32880,note_on,0,0,1,,,,,,,,,0,,,86,75
32880,note_on,120,0,1,,,,,,,,,0,,,74,0
33000,note_on,0,0,1,,,,,,,,,0,,,78,75
33000,note_on,360,0,3,,,,,,,,,2,,,62,0
33000,note_on,120,0,1,,,,,,,,,0,,,86,0
33000,note_on,0,0,3,,,,,,,,,2,,,66,62
33000,note_on,0,0,3,,,,,,,,,2,,,69,62
33120,note_on,0,0,3,,,,,,,,,2,,,63,62
33120,note_on,360,0,2,,,,,,,,,1,,,74,0
33120,note_on,0,0,3,,,,,,,,,2,,,66,0
33120,note_on,120,0,1,,,,,,,,,0,,,78,0
33120,note_on,120,0,3,,,,,,,,,2,,,69,0
33240,note_on,120,0,2,,,,,,,,,1,,,72,62
33240,note_on,120,0,1,,,,,,,,,0,,,72,75
33360,note_on,0,0,1,,,,,,,,,0,,,84,75
33360,note_on,120,0,1,,,,,,,,,0,,,72,0
33480,note_on,360,0,3,,,,,,,,,2,,,63,0
33480,note_on,0,0,1,,,,,,,,,0,,,78,75
33480,note_on,120,0,1,,,,,,,,,0,,,84,0
33480,note_on,0,0,3,,,,,,,,,2,,,66,62
33480,note_on,0,0,3,,,,,,,,,2,,,69,62
33600,note_on,120,0,3,,,,,,,,,2,,,69,0
33600,note_on,120,0,1,,,,,,,,,0,,,78,0
33600,note_on,0,0,3,,,,,,,,,2,,,62,62
33600,note_on,0,0,3,,,,,,,,,2,,,66,0
33600,note_on,360,0,2,,,,,,,,,1,,,72,0
33720,note_on,120,0,1,,,,,,,,,0,,,69,75
33720,note_on,120,0,2,,,,,,,,,1,,,69,62
33840,note_on,120,0,1,,,,,,,,,0,,,69,0
33840,note_on,0,0,1,,,,,,,,,0,,,81,75
33960,note_on,0,0,1,,,,,,,,,0,,,78,75
33960,note_on,0,0,3,,,,,,,,,2,,,66,62
33960,note_on,120,0,1,,,,,,,,,0,,,81,0
33960,note_on,360,0,3,,,,,,,,,2,,,62,0
34080,note_on,0,0,3,,,,,,,,,2,,,62,62
34080,note_on,120,0,3,,,,,,,,,2,,,66,0
34080,note_on,360,0,2,,,,,,,,,1,,,69,0
34080,note_on,120,0,1,,,,,,,,,0,,,78,0
34200,note_on,120,0,2,,,,,,,,,1,,,69,62
34200,note_on,120,0,1,,,,,,,,,0,,,69,75
34320,note_on,120,0,1,,,,,,,,,0,,,69,0
34320,note_on,0,0,1,,,,,,,,,0,,,81,75
34440,note_on,0,0,1,,,,,,,,,0,,,78,75
34440,note_on,360,0,3,,,,,,,,,2,,,62,0
34440,note_on,120,0,1,,,,,,,,,0,,,81,0
34440,note_on,0,0,3,,,,,,,,,2,,,66,62
34560,note_on,360,0,2,,,,,,,,,1,,,69,0
34560,note_on,0,0,3,,,,,,,,,2,,,61,62
34560,note_on,120,0,3,,,,,,,,,2,,,66,0
34560,note_on,120,0,1,,,,,,,,,0,,,78,0
34680,note_on,120,0,2,,,,,,,,,1,,,70,62
34680,note_on,120,0,1,,,,,,,,,0,,,70,75
34800,note_on,0,0,1,,,,,,,,,0,,,82,75
34800,note_on,120,0,1,,,,,,,,,0,,,70,0
34920,note_on,120,0,1,,,,,,,,,0,,,82,0
34920,note_on,0,0,3,,,,,,,,,2,,,67,62
34920,note_on,0,0,3,,,,,,,,,2,,,64,62
34920,note_on,0,0,1,,,,,,,,,0,,,76,75
34920,note_on,360,0,3,,,,,,,,,2,,,61,0
35040,note_on,0,0,3,,,,,,,,,2,,,60,62
35040,note_on,0,0,3,,,,,,,,,2,,,64,0
35040,note_on,120,0,3,,,,,,,,,2,,,67,0
35040,note_on,360,0,2,,,,,,,,,1,,,70,0
35040,note_on,120,0,1,,,,,,,,,0,,,76,0
35160,note_on,120,0,1,,,,,,,,,0,,,75,75
35160,note_on,120,0,2,,,,,,,,,1,,,75,62
35280,note_on,120,0,1,,,,,,,,,0,,,75,0
35280,note_on,0,0,1,,,,,,,,,0,,,87,75
35400,note_on,360,0,3,,,,,,,,,2,,,60,0
35400,note_on,120,0,1,,,,,,,,,0,,,87,0
35400,note_on,0,0,3,,,,,,,,,2,,,69,62
35400,note_on,0,0,1,,,,,,,,,0,,,81,75
35400,note_on,0,0,3,,,,,,,,,2,,,66,62
35400,note_on,0,0,3,,,,,,,,,2,,,63,62
35520,note_on,0,0,3,,,,,,,,,2,,,66,0
35520,note_on,120,0,1,,,,,,,,,0,,,81,0
35520,note_on,120,0,3,,,,,,,,,2,,,69,0
35520,note_on,360,0,2,,,,,,,,,1,,,75,0
35520,note_on,0,0,3,,,,,,,,,2,,,59,62
35520,note_on,0,0,3,,,,,,,,,2,,,63,0
35640,note_on,120,0,1,,,,,,,,,0,,,80,75
35640,note_on,120,0,2,,,,,,,,,1,,,80,62
35760,note_on,0,0,1,,,,,,,,,0,,,92,75
35760,note_on,120,0,1,,,,,,,,,0,,,80,0
35880,note_on,120,0,1,,,,,,,,,0,,,92,0
35880,note_on,0,0,1,,,,,,,,,0,,,86,75
35880,note_on,0,0,3,,,,,,,,,2,,,68,62
35880,note_on,0,0,3,,,,,,,,,2,,,65,62
35880,note_on,360,0,3,,,,,,,,,2,,,59,0
35880,note_on,0,0,3,,,,,,,,,2,,,62,62
36000,note_on,120,0,3,,,,,,,,,2,,,68,0
36000,note_on,360,0,2,,,,,,,,,1,,,80,0
36000,note_on,0,0,3,,,,,,,,,2,,,65,0
36000,note_on,0,0,3,,,,,,,,,2,,,62,0
36000,note_on,0,0,3,,,,,,,,,2,,,58,62
36000,note_on,120,0,1,,,,,,,,,0,,,86,0
36120,note_on,120,0,2,,,,,,,,,1,,,85,62
36120,note_on,120,0,1,,,,,,,,,0,,,85,75
36240,note_on,0,0,1,,,,,,,,,0,,,97,75
36240,note_on,120,0,1,,,,,,,,,0,,,85,0
36360,note_on,0,0,3,,,,,,,,,2,,,64,62
36360,note_on,0,0,3,,,,,,,,,2,,,61,62
36360,note_on,0,0,1,,,,,,,,,0,,,91,75
36360,note_on,0,0,3,,,,,,,,,2,,,67,62
36360,note_on,120,0,1,,,,,,,,,0,,,97,0
36360,note_on,360,0,3,,,,,,,,,2,,,58,0
36480,note_on,0,0,3,,,,,,,,,2,,,64,0
36480,note_on,120,0,1,,,,,,,,,0,,,91,0
36480,note_on,120,0,3,,,,,,,,,2,,,67,0
36480,note_on,360,0,2,,,,,,,,,1,,,85,0
36480,note_on,0,0,3,,,,,,,,,2,,,57,62
36480,note_on,0,0,3,,,,,,,,,2,,,61,0
36600,note_on,120,0,2,,,,,,,,,1,,,87,62
36600,note_on,120,0,1,,,,,,,,,0,,,87,75
36720,note_on,0,0,1,,,,,,,,,0,,,99,75
36720,note_on,120,0,1,,,,,,,,,0,,,87,0
36840,note_on,0,0,3,,,,,,,,,2,,,66,62
36840,note_on,0,0,3,,,,,,,,,2,,,63,62
36840,note_on,120,0,1,,,,,,,,,0,,,99,0
36840,note_on,360,0,3,,,,,,,,,2,,,57,0
36840,note_on,0,0,1,,,,,,,,,0,,,90,75
36840,note_on,0,0,3,,,,,,,,,2,,,60,62
36960,note_on,120,0,1,,,,,,,,,0,,,90,0
36960,note_on,360,0,2,,,,,,,,,1,,,87,0
36960,note_on,120,0,3,,,,,,,,,2,,,66,0
36960,note_on,0,0,3,,,,,,,,,2,,,63,0
36960,note_on,0,0,3,,,,,,,,,2,,,60,0
36960,note_on,0,0,3,,,,,,,,,2,,,55,62
37080,note_on,120,0,1,,,,,,,,,0,,,87,75
37080,note_on,120,0,2,,,,,,,,,1,,,87,62
37200,note_on,0,0,1,,,,,,,,,0,,,99,75
37200,note_on,120,0,1,,,,,,,,,0,,,87,0
37320,note_on,0,0,3,,,,,,,,,2,,,60,62
37320,note_on,0,0,3,,,,,,,,,2,,,67,62
37320,note_on,360,0,3,,,,,,,,,2,,,55,0
37320,note_on,0,0,1,,,,,,,,,0,,,91,75
37320,note_on,0,0,3,,,,,,,,,2,,,63,62
37320,note_on,120,0,1,,,,,,,,,0,,,99,0
37440,note_on,120,0,1,,,,,,,,,0,,,91,0
37440,note_on,0,0,3,,,,,,,,,2,,,54,62
37440,note_on,0,0,3,,,,,,,,,2,,,60,0
37440,note_on,120,0,3,,,,,,,,,2,,,67,0
37440,note_on,360,0,2,,,,,,,,,1,,,87,0
37440,note_on,0,0,3,,,,,,,,,2,,,63,0
37560,note_on,120,0,1,,,,,,,,,0,,,87,75
37560,note_on,120,0,2,,,,,,,,,1,,,87,62
37680,note_on,120,0,1,,,,,,,,,0,,,87,0
37680,note_on,0,0,1,,,,,,,,,0,,,99,75
37800,note_on,0,0,3,,,,,,,,,2,,,60,62
37800,note_on,0,0,3,,,,,,,,,2,,,69,62
37800,note_on,360,0,3,,,,,,,,,2,,,54,0
37800,note_on,120,0,1,,,,,,,,,0,,,99,0
37800,note_on,0,0,1,,,,,,,,,0,,,93,75
37800,note_on,0,0,3,,,,,,,,,2,,,63,62
37920,note_on,0,0,3,,,,,,,,,2,,,60,0
37920,note_on,120,0,1,,,,,,,,,0,,,93,0
37920,note_on,0,0,3,,,,,,,,,2,,,63,0
37920,note_on,0,0,3,,,,,,,,,2,,,55,62
37920,note_on,360,0,2,,,,,,,,,1,,,87,0
37920,note_on,120,0,3,,,,,,,,,2,,,69,0
38040,note_on,120,0,2,,,,,,,,,1,,,87,62
38040,note_on,120,0,1,,,,,,,,,0,,,87,75
38160,note_on,0,0,1,,,,,,,,,0,,,99,75
38160,note_on,120,0,1,,,,,,,,,0,,,87,0
38280,note_on,0,0,3,,,,,,,,,2,,,60,62
38280,note_on,120,0,1,,,,,,,,,0,,,99,0
38280,note_on,0,0,3,,,,,,,,,2,,,63,62
38280,note_on,360,0,3,,,,,,,,,2,,,55,0
38280,note_on,0,0,3,,,,,,,,,2,,,67,62
38280,note_on,0,0,1,,,,,,,,,0,,,91,75
38400,note_on,360,0,2,,,,,,,,,1,,,87,0
38400,note_on,120,0,3,,,,,,,,,2,,,67,0
38400,note_on,120,0,1,,,,,,,,,0,,,91,0
38400,note_on,0,0,3,,,,,,,,,2,,,57,75
38400,note_on,0,0,3,,,,,,,,,2,,,60,0
38400,note_on,0,0,3,,,,,,,,,2,,,63,0
38520,note_on,120,0,1,,,,,,,,,0,,,87,88
38520,note_on,120,0,2,,,,,,,,,1,,,87,75
38640,note_on,120,0,1,,,,,,,,,0,,,87,0
38640,note_on,0,0,1,,,,,,,,,0,,,99,88
38760,note_on,0,0,3,,,,,,,,,2,,,63,75
38760,note_on,0,0,3,,,,,,,,,2,,,60,75
38760,note_on,120,0,1,,,,,,,,,0,,,99,0
38760,note_on,0,0,1,,,,,,,,,0,,,90,88
38760,note_on,360,0,3,,,,,,,,,2,,,57,0
38760,note_on,0,0,3,,,,,,,,,2,,,66,75
38880,note_on,120,0,1,,,,,,,,,0,,,90,0
38880,note_on,0,0,3,,,,,,,,,2,,,60,0
38880,note_on,0,0,3,,,,,,,,,2,,,63,0
38880,note_on,0,0,3,,,,,,,,,2,,,55,75
38880,note_on,120,0,3,,,,,,,,,2,,,66,0
38880,note_on,360,0,2,,,,,,,,,1,,,87,0
39000,note_on,120,0,1,,,,,,,,,0,,,87,88
39000,note_on,120,0,2,,,,,,,,,1,,,87,75
39120,note_on,120,0,1,,,,,,,,,0,,,87,0
39120,note_on,0,0,1,,,,,,,,,0,,,99,88
39240,note_on,120,0,1,,,,,,,,,0,,,99,0
39240,note_on,0,0,3,,,,,,,,,2,,,67,75
39240,note_on,0,0,3,,,,,,,,,2,,,63,75
39240,note_on,0,0,3,,,,,,,,,2,,,60,75
39240,note_on,0,0,1,,,,,,,,,0,,,91,88
39240,note_on,360,0,3,,,,,,,,,2,,,55,0
39360,note_on,120,0,1,,,,,,,,,0,,,91,0
39360,note_on,360,0,2,,,,,,,,,1,,,87,0
39360,note_on,120,0,3,,,,,,,,,2,,,67,0
39360,note_on,0,0,3,,,,,,,,,2,,,54,75
39360,note_on,0,0,3,,,,,,,,,2,,,60,0
39360,note_on,0,0,3,,,,,,,,,2,,,63,0
39480,note_on,120,0,2,,,,,,,,,1,,,87,75
39480,note_on,120,0,1,,,,,,,,,0,,,87,88
39600,note_on,0,0,1,,,,,,,,,0,,,99,88
39600,note_on,120,0,1,,,,,,,,,0,,,87,0
39720,note_on,0,0,1,,,,,,,,,0,,,93,88
39720,note_on,360,0,3,,,,,,,,,2,,,54,0
39720,note_on,120,0,1,,,,,,,,,0,,,99,0
39720,note_on,0,0,3,,,,,,,,,2,,,60,75
39720,note_on,0,0,3,,,,,,,,,2,,,63,75
39720,note_on,0,0,3,,,,,,,,,2,,,69,75
39840,note_on,120,0,3,,,,,,,,,2,,,69,0
39840,note_on,120,0,1,,,,,,,,,0,,,93,0
39840,note_on,360,0,2,,,,,,,,,1,,,87,0
39840,note_on,0,0,3,,,,,,,,,2,,,60,0
39840,note_on,0,0,3,,,,,,,,,2,,,63,0
39840,note_on,0,0,3,,,,,,,,,2,,,55,75
39960,note_on,120,0,1,,,,,,,,,0,,,87,88
39960,note_on,120,0,2,,,,,,,,,1,,,87,75
40080,note_on,0,0,1,,,,,,,,,0,,,99,88
40080,note_on,120,0,1,,,,,,,,,0,,,87,0
40200,note_on,0,0,3,,,,,,,,,2,,,60,75
40200,note_on,0,0,3,,,,,,,,,2,,,63,75
40200,note_on,0,0,3,,,,,,,,,2,,,67,75
40200,note_on,0,0,1,,,,,,,,,0,,,91,88
40200,note_on,360,0,3,,,,,,,,,2,,,55,0
40200,note_on,120,0,1,,,,,,,,,0,,,99,0
40320,note_on,120,0,3,,,,,,,,,2,,,67,0
40320,note_on,360,0,2,,,,,,,,,1,,,87,0
40320,note_on,0,0,3,,,,,,,,,2,,,57,88
40320,note_on,0,0,3,,,,,,,,,2,,,60,0
40320,note_on,0,0,3,,,,,,,,,2,,,63,0
40320,note_on,120,0,1,,,,,,,,,0,,,91,0
40440,note_on,120,0,1,,,,,,,,,0,,,87,101
40440,note_on,120,0,2,,,,,,,,,1,,,87,88
40560,note_on,0,0,1,,,,,,,,,0,,,99,101
40560,note_on,120,0,1,,,,,,,,,0,,,87,0
40680,note_on,120,0,1,,,,,,,,,0,,,99,0
40680,note_on,0,0,1,,,,,,,,,0,,,90,101
40680,note_on,360,0,3,,,,,,,,,2,,,57,0
40680,note_on,0,0,3,,,,,,,,,2,,,60,88
40680,note_on,0,0,3,,,,,,,,,2,,,66,88
40680,note_on,0,0,3,,,,,,,,,2,,,63,88
40800,note_on,0,0,3,,,,,,,,,2,,,57,88
40800,note_on,360,0,2,,,,,,,,,1,,,87,0
40800,note_on,120,0,3,,,,,,,,,2,,,66,0
40800,note_on,0,0,3,,,,,,,,,2,,,63,0
40800,note_on,120,0,1,,,,,,,,,0,,,90,0
40800,note_on,0,0,3,,,,,,,,,2,,,60,0
40920,note_on,120,0,2,,,,,,,,,1,,,86,88
40920,note_on,120,0,1,,,,,,,,,0,,,86,101
41040,note_on,120,0,1,,,,,,,,,0,,,86,0
41040,note_on,0,0,1,,,,,,,,,0,,,98,101
41160,note_on,0,0,3,,,,,,,,,2,,,60,88
41160,note_on,360,0,3,,,,,,,,,2,,,57,0
41160,note_on,120,0,1,,,,,,,,,0,,,98,0
41160,note_on,0,0,3,,,,,,,,,2,,,66,88
41160,note_on,0,0,3,,,,,,,,,2,,,62,88
41160,note_on,0,0,1,,,,,,,,,0,,,90,101
41280,note_on,120,0,1,,,,,,,,,0,,,90,0
41280,note_on,360,0,2,,,,,,,,,1,,,86,0
41280,note_on,120,0,3,,,,,,,,,2,,,66,0
41280,note_on,0,0,3,,,,,,,,,2,,,45,88
41280,note_on,0,0,3,,,,,,,,,2,,,60,0
41280,note_on,0,0,3,,,,,,,,,2,,,62,0
41400,note_on,120,0,1,,,,,,,,,0,,,75,101
41400,note_on,120,0,2,,,,,,,,,1,,,75,88
41520,note_on,120,0,1,,,,,,,,,0,,,75,0
41520,note_on,0,0,1,,,,,,,,,0,,,87,101
41640,note_on,0,0,3,,,,,,,,,2,,,48,88
41640,note_on,120,0,1,,,,,,,,,0,,,87,0
41640,note_on,360,0,3,,,,,,,,,2,,,45,0
41640,note_on,0,0,3,,,,,,,,,2,,,51,88
41640,note_on,0,0,1,,,,,,,,,0,,,78,101
41640,note_on,0,0,3,,,,,,,,,2,,,54,88
41760,note_on,0,0,3,,,,,,,,,2,,,48,0
41760,note_on,0,0,3,,,,,,,,,2,,,51,0
41760,note_on,120,0,3,,,,,,,,,2,,,54,0
41760,note_on,0,0,3,,,,,,,,,2,,,45,88
41760,note_on,120,0,1,,,,,,,,,0,,,78,0
41760,note_on,360,0,2,,,,,,,,,1,,,75,0
41880,note_on,120,0,1,,,,,,,,,0,,,74,101
41880,note_on,120,0,2,,,,,,,,,1,,,74,88
42000,note_on,0,0,1,,,,,,,,,0,,,86,101
42000,note_on,120,0,1,,,,,,,,,0,,,74,0
42120,note_on,360,0,3,,,,,,,,,2,,,45,0
42120,note_on,120,0,1,,,,,,,,,0,,,86,0
42120,note_on,0,0,3,,,,,,,,,2,,,54,88
42120,note_on,0,0,3,,,,,,,,,2,,,50,88
42120,note_on,0,0,3,,,,,,,,,2,,,48,88
42120,note_on,0,0,1,,,,,,,,,0,,,78,101
42240,note_on,0,0,3,,,,,,,,,2,,,48,0
42240,note_on,0,0,3,,,,,,,,,2,,,50,0
42240,note_on,0,0,3,,,,,,,,,2,,,33,88
42240,note_on,360,0,2,,,,,,,,,1,,,74,0
42240,note_on,120,0,3,,,,,,,,,2,,,54,0
42240,note_on,120,0,1,,,,,,,,,0,,,78,0
42360,note_on,120,0,2,,,,,,,,,1,,,63,88
42360,note_on,120,0,1,,,,,,,,,0,,,63,101
42480,note_on,120,0,1,,,,,,,,,0,,,63,0
42480,note_on,0,0,1,,,,,,,,,0,,,75,101
42600,note_on,0,0,3,,,,,,,,,2,,,42,88
42600,note_on,120,0,1,,,,,,,,,0,,,75,0
42600,note_on,0,0,3,,,,,,,,,2,,,39,88
42600,note_on,0,0,3,,,,,,,,,2,,,36,88
42600,note_on,360,0,3,,,,,,,,,2,,,33,0
42600,note_on,0,0,1,,,,,,,,,0,,,66,101
42720,note_on,120,0,3,,,,,,,,,2,,,42,0
42720,note_on,0,0,3,,,,,,,,,2,,,39,0
42720,note_on,0,0,3,,,,,,,,,2,,,36,0
42720,note_on,0,0,3,,,,,,,,,2,,,33,88
42720,note_on,120,0,1,,,,,,,,,0,,,66,0
42720,note_on,360,0,2,,,,,,,,,1,,,63,0
42840,note_on,120,0,2,,,,,,,,,1,,,62,88
42840,note_on,120,0,1,,,,,,,,,0,,,62,101
42960,note_on,120,0,1,,,,,,,,,0,,,62,0
42960,note_on,0,0,1,,,,,,,,,0,,,74,101
43080,note_on,360,0,3,,,,,,,,,2,,,33,0
43080,note_on,120,0,1,,,,,,,,,0,,,74,0
43080,note_on,0,0,3,,,,,,,,,2,,,36,88
43080,note_on,0,0,3,,,,,,,,,2,,,38,88
43080,note_on,0,0,3,,,,,,,,,2,,,42,88
43080,note_on,0,0,1,,,,,,,,,0,,,66,101
43200,note_on,360,0,2,,,,,,,,,1,,,62,0
43200,note_on,120,0,1,,,,,,,,,0,,,66,0
43200,note_on,0,0,3,,,,,,,,,2,,,33,88
43200,note_on,120,0,3,,,,,,,,,2,,,42,0
43200,note_on,0,0,3,,,,,,,,,2,,,36,0
43200,note_on,0,0,3,,,,,,,,,2,,,38,0
43320,note_on,120,0,2,,,,,,,,,1,,,75,88
43320,note_on,120,0,1,,,,,,,,,0,,,75,101
43440,note_on,0,0,1,,,,,,,,,0,,,87,101
43440,note_on,120,0,1,,,,,,,,,0,,,75,0
43560,note_on,0,0,3,,,,,,,,,2,,,36,88
43560,note_on,0,0,3,,,,,,,,,2,,,39,88
43560,note_on,360,0,3,,,,,,,,,2,,,33,0
43560,note_on,0,0,3,,,,,,,,,2,,,42,88
43560,note_on,120,0,1,,,,,,,,,0,,,87,0
43560,note_on,0,0,1,,,,,,,,,0,,,78,101
43680,note_on,120,0,3,,,,,,,,,2,,,42,0
43680,note_on,0,0,3,,,,,,,,,2,,,39,0
43680,note_on,120,0,1,,,,,,,,,0,,,78,0
43680,note_on,0,0,3,,,,,,,,,2,,,33,88
43680,note_on,0,0,3,,,,,,,,,2,,,36,0
43680,note_on,360,0,2,,,,,,,,,1,,,75,0
43800,note_on,120,0,2,,,,,,,,,1,,,74,88
43800,note_on,120,0,1,,,,,,,,,0,,,74,101
43920,note_on,0,0,1,,,,,,,,,0,,,86,101
43920,note_on,120,0,1,,,,,,,,,0,,,74,0
44040,note_on,0,0,3,,,,,,,,,2,,,42,88
44040,note_on,0,0,3,,,,,,,,,2,,,38,88
44040,note_on,360,0,3,,,,,,,,,2,,,33,0
44040,note_on,120,0,1,,,,,,,,,0,,,86,0
44040,note_on,0,0,3,,,,,,,,,2,,,36,88
44040,note_on,0,0,1,,,,,,,,,0,,,78,101
44160,note_on,360,0,2,,,,,,,,,1,,,74,0
44160,note_on,0,0,3,,,,,,,,,2,,,31,88
44160,note_on,0,0,3,,,,,,,,,2,,,36,0
44160,note_on,0,0,3,,,,,,,,,2,,,38,0
44160,note_on,120,0,3,,,,,,,,,2,,,42,0
44160,note_on,120,0,1,,,,,,,,,0,,,78,0
44280,note_on,120,0,1,,,,,,,,,0,,,74,101
44280,note_on,120,0,2,,,,,,,,,1,,,74,88
44400,note_on,120,0,1,,,,,,,,,0,,,74,0
44400,note_on,0,0,1,,,,,,,,,0,,,86,101
44520,note_on,0,0,1,,,,,,,,,0,,,79,101
44520,note_on,0,0,3,,,,,,,,,2,,,46,88
44520,note_on,360,0,3,,,,,,,,,2,,,31,0
44520,note_on,120,0,1,,,,,,,,,0,,,86,0
44640,note_on,0,0,3,,,,,,,,,2,,,43,88
44640,note_on,360,0,2,,,,,,,,,1,,,74,0
44640,note_on,120,0,1,,,,,,,,,0,,,79,0
44640,note_on,120,0,3,,,,,,,,,2,,,46,0
44760,note_on,120,0,2,,,,,,,,,1,,,74,88
44760,note_on,120,0,1,,,,,,,,,0,,,74,101
44880,note_on,0,0,1,,,,,,,,,0,,,82,101
44880,note_on,120,0,1,,,,,,,,,0,,,74,0
45000,note_on,0,0,1,,,,,,,,,0,,,79,101
45000,note_on,0,0,3,,,,,,,,,2,,,58,88
45000,note_on,360,0,3,,,,,,,,,2,,,43,0
45000,note_on,120,0,1,,,,,,,,,0,,,82,0
45120,note_on,0,0,3,,,,,,,,,2,,,43,88
45120,note_on,360,0,2,,,,,,,,,1,,,74,0
45120,note_on,120,0,3,,,,,,,,,2,,,58,0
45120,note_on,120,0,1,,,,,,,,,0,,,79,0
45240,note_on,120,0,1,,,,,,,,,0,,,75,101
45240,note_on,120,0,2,,,,,,,,,1,,,75,88
45360,note_on,120,0,1,,,,,,,,,0,,,75,0
45360,note_on,0,0,1,,,,,,,,,0,,,87,101
45480,note_on,0,0,3,,,,,,,,,2,,,60,88
45480,note_on,360,0,3,,,,,,,,,2,,,43,0
45480,note_on,120,0,1,,,,,,,,,0,,,87,0
45480,note_on,0,0,1,,,,,,,,,0,,,79,101
45600,note_on,120,0,1,,,,,,,,,0,,,79,0
45600,note_on,360,0,2,,,,,,,,,1,,,75,0
45600,note_on,0,0,3,,,,,,,,,2,,,43,88
45600,note_on,120,0,3,,,,,,,,,2,,,60,0
45720,note_on,120,0,2,,,,,,,,,1,,,74,88
45720,note_on,120,0,1,,,,,,,,,0,,,74,101
45840,note_on,120,0,1,,,,,,,,,0,,,74,0
45840,note_on,0,0,1,,,,,,,,,0,,,86,101
45960,note_on,0,0,3,,,,,,,,,2,,,58,88
45960,note_on,120,0,1,,,,,,,,,0,,,86,0
45960,note_on,0,0,1,,,,,,,,,0,,,79,101
45960,note_on,360,0,3,,,,,,,,,2,,,43,0
46080,note_on,120,0,1,,,,,,,,,0,,,79,0
46080,note_on,360,0,2,,,,,,,,,1,,,74,0
46080,note_on,0,0,3,,,,,,,,,2,,,43,88
46080,note_on,120,0,3,,,,,,,,,2,,,58,0
46200,note_on,120,0,1,,,,,,,,,0,,,72,101
46200,note_on,120,0,2,,,,,,,,,1,,,72,88
46320,note_on,0,0,1,,,,,,,,,0,,,84,101
46320,note_on,120,0,1,,,,,,,,,0,,,72,0
46440,note_on,360,0,3,,,,,,,,,2,,,43,0
46440,note_on,0,0,1,,,,,,,,,0,,,78,101
46440,note_on,0,0,3,,,,,,,,,2,,,57,88
46440,note_on,120,0,1,,,,,,,,,0,,,84,0
46560,note_on,120,0,1,,,,,,,,,0,,,78,0
46560,note_on,120,0,3,,,,,,,,,2,,,57,0
46560,note_on,360,0,2,,,,,,,,,1,,,72,0
46560,note_on,0,0,3,,,,,,,,,2,,,43,88
46680,note_on,120,0,1,,,,,,,,,0,,,70,101
46680,note_on,120,0,2,,,,,,,,,1,,,70,88
46800,note_on,120,0,1,,,,,,,,,0,,,70,0
46800,note_on,0,0,1,,,,,,,,,0,,,82,101
46920,note_on,0,0,1,,,,,,,,,0,,,79,101
46920,note_on,360,0,3,,,,,,,,,2,,,43,0
46920,note_on,120,0,1,,,,,,,,,0,,,82,0
46920,note_on,0,0,3,,,,,,,,,2,,,55,88
47040,note_on,120,0,1,,,,,,,,,0,,,79,0
47040,note_on,360,0,2,,,,,,,,,1,,,70,0
47040,note_on,0,0,3,,,,,,,,,2,,,36,75
47040,note_on,120,0,3,,,,,,,,,2,,,55,0
47160,note_on,120,0,1,,,,,,,,,0,,,69,88
47160,note_on,120,0,2,,,,,,,,,1,,,69,75
47280,note_on,0,0,1,,,,,,,,,0,,,81,88
47280,note_on,120,0,1,,,,,,,,,0,,,69,0
47400,note_on,360,0,3,,,,,,,,,2,,,36,0
47400,note_on,0,0,3,,,,,,,,,2,,,51,75
47400,note_on,120,0,1,,,,,,,,,0,,,81,0
47400,note_on,0,0,1,,,,,,,,,0,,,72,88
47520,note_on,120,0,3,,,,,,,,,2,,,51,0
47520,note_on,120,0,1,,,,,,,,,0,,,72,0
47520,note_on,0,0,3,,,,,,,,,2,,,36,75
47520,note_on,360,0,2,,,,,,,,,1,,,69,0
47640,note_on,120,0,2,,,,,,,,,1,,,69,75
47640,note_on,120,0,1,,,,,,,,,0,,,69,88
47760,note_on,120,0,1,,,,,,,,,0,,,69,0
47760,note_on,0,0,1,,,,,,,,,0,,,75,88
47880,note_on,0,0,3,,,,,,,,,2,,,48,75
47880,note_on,120,0,1,,,,,,,,,0,,,75,0
47880,note_on,0,0,1,,,,,,,,,0,,,72,88
47880,note_on,360,0,3,,,,,,,,,2,,,36,0
48000,note_on,120,0,1,,,,,,,,,0,,,72,0
48000,note_on,360,0,2,,,,,,,,,1,,,69,0
48000,note_on,120,0,3,,,,,,,,,2,,,48,0
48000,note_on,0,0,3,,,,,,,,,2,,,38,49
48120,note_on,120,0,1,,,,,,,,,0,,,67,75
48120,note_on,120,0,2,,,,,,,,,1,,,67,62
48240,note_on,120,0,1,,,,,,,,,0,,,67,0
48240,note_on,0,0,1,,,,,,,,,0,,,79,75
48360,note_on,0,0,3,,,,,,,,,2,,,50,49
48360,note_on,0,0,1,,,,,,,,,0,,,70,75
48360,note_on,360,0,3,,,,,,,,,2,,,38,0
48360,note_on,120,0,1,,,,,,,,,0,,,79,0
48480,note_on,360,0,2,,,,,,,,,1,,,67,0
48480,note_on,0,0,3,,,,,,,,,2,,,38,49
48480,note_on,120,0,3,,,,,,,,,2,,,50,0
48480,note_on,120,0,1,,,,,,,,,0,,,70,0
48600,note_on,120,0,1,,,,,,,,,0,,,67,75
48600,note_on,120,0,2,,,,,,,,,1,,,67,62
48720,note_on,120,0,1,,,,,,,,,0,,,67,0
48720,note_on,0,0,1,,,,,,,,,0,,,74,75
48840,note_on,360,0,3,,,,,,,,,2,,,38,0
48840,note_on,0,0,3,,,,,,,,,2,,,58,49
48840,note_on,120,0,1,,,,,,,,,0,,,74,0
48840,note_on,0,0,1,,,,,,,,,0,,,70,75
48960,note_on,120,0,3,,,,,,,,,2,,,58,0
48960,note_on,120,0,1,,,,,,,,,0,,,70,0
48960,note_on,0,0,3,,,,,,,,,2,,,50,49
48960,note_on,360,0,2,,,,,,,,,1,,,67,0
49080,note_on,120,0,1,,,,,,,,,0,,,65,62
49080,note_on,120,0,2,,,,,,,,,1,,,65,49
49200,note_on,0,0,1,,,,,,,,,0,,,77,62
49200,note_on,120,0,1,,,,,,,,,0,,,65,0
49320,note_on,0,0,1,,,,,,,,,0,,,68,62
49320,note_on,0,0,3,,,,,,,,,2,,,58,49
49320,note_on,120,0,1,,,,,,,,,0,,,77,0
49320,note_on,360,0,3,,,,,,,,,2,,,50,0
49440,note_on,0,0,3,,,,,,,,,2,,,50,49
49440,note_on,120,0,1,,,,,,,,,0,,,68,0
49440,note_on,120,0,3,,,,,,,,,2,,,58,0
49440,note_on,360,0,2,,,,,,,,,1,,,65,0
49560,note_on,120,0,1,,,,,,,,,0,,,65,62
49560,note_on,120,0,2,,,,,,,,,1,,,65,49
49680,note_on,0,0,1,,,,,,,,,0,,,70,62
49680,note_on,120,0,1,,,,,,,,,0,,,65,0
49800,note_on,360,0,3,,,,,,,,,2,,,50,0
49800,note_on,0,0,1,,,,,,,,,0,,,68,62
49800,note_on,120,0,1,,,,,,,,,0,,,70,0
49800,note_on,0,0,3,,,,,,,,,2,,,58,49
49920,note_on,120,0,3,,,,,,,,,2,,,58,0
49920,note_on,120,0,1,,,,,,,,,0,,,68,0
49920,control_change,0,0,3,,,,,,,,,2,64,127,,
49920,control_change,0,0,2,,,,,,,,,1,64,127,,
49920,note_on,0,0,3,,,,,,,,,2,,,67,49
49920,note_on,360,0,2,,,,,,,,,1,,,65,0
49920,control_change,0,0,1,,,,,,,,,0,64,127,,
50040,note_on,120,0,2,,,,,,,,,1,,,82,49
50040,note_on,120,0,1,,,,,,,,,0,,,82,49
50160,note_on,120,0,1,,,,,,,,,0,,,82,0
50160,note_on,0,0,1,,,,,,,,,0,,,94,49
50280,note_on,120,0,1,,,,,,,,,0,,,94,0
50280,note_on,0,0,3,,,,,,,,,2,,,51,49
50280,note_on,0,0,1,,,,,,,,,0,,,87,49
50280,note_on,360,0,3,,,,,,,,,2,,,67,0
50400,note_on,120,0,3,,,,,,,,,2,,,51,0
50400,note_on,0,0,3,,,,,,,,,2,,,63,49
50400,note_on,120,0,1,,,,,,,,,0,,,87,0
50400,note_on,360,0,2,,,,,,,,,1,,,82,0
50520,note_on,120,0,1,,,,,,,,,0,,,79,49
50520,note_on,120,0,2,,,,,,,,,1,,,79,49
50640,note_on,120,0,1,,,,,,,,,0,,,79,0
50640,note_on,0,0,1,,,,,,,,,0,,,91,49
50760,note_on,120,0,1,,,,,,,,,0,,,91,0
50760,note_on,360,0,3,,,,,,,,,2,,,63,0
50760,note_on,0,0,3,,,,,,,,,2,,,51,49
50760,note_on,0,0,1,,,,,,,,,0,,,87,49
50880,note_on,360,0,2,,,,,,,,,1,,,79,0
50880,note_on,120,0,3,,,,,,,,,2,,,51,0
50880,note_on,120,0,1,,,,,,,,,0,,,87,0
50880,note_on,0,0,3,,,,,,,,,2,,,68,49
51000,note_on,120,0,1,,,,,,,,,0,,,84,49
51000,note_on,120,0,2,,,,,,,,,1,,,84,49
51120,note_on,120,0,1,,,,,,,,,0,,,84,0
51120,note_on,0,0,1,,,,,,,,,0,,,96,49
51240,note_on,120,0,1,,,,,,,,,0,,,96,0
51240,note_on,0,0,1,,,,,,,,,0,,,87,49
51240,note_on,360,0,3,,,,,,,,,2,,,68,0
51240,note_on,0,0,3,,,,,,,,,2,,,51,49
51360,note_on,0,0,3,,,,,,,,,2,,,67,49
51360,note_on,120,0,3,,,,,,,,,2,,,51,0
51360,note_on,360,0,2,,,,,,,,,1,,,84,0
51360,note_on,120,0,1,,,,,,,,,0,,,87,0
51480,note_on,120,0,2,,,,,,,,,1,,,82,49
51480,note_on,120,0,1,,,,,,,,,0,,,82,49
51600,note_on,120,0,1,,,,,,,,,0,,,82,0
51600,note_on,0,0,1,,,,,,,,,0,,,94,49
51720,note_on,0,0,3,,,,,,,,,2,,,51,49
51720,note_on,0,0,1,,,,,,,,,0,,,87,49
51720,note_on,120,0,1,,,,,,,,,0,,,94,0
51720,note_on,360,0,3,,,,,,,,,2,,,67,0
51840,note_on,120,0,1,,,,,,,,,0,,,87,0
51840,note_on,360,0,2,,,,,,,,,1,,,82,0
51840,note_on,0,0,3,,,,,,,,,2,,,65,62
51840,note_on,120,0,3,,,,,,,,,2,,,51,0
51960,note_on,120,0,2,,,,,,,,,1,,,80,62
51960,note_on,120,0,1,,,,,,,,,0,,,80,75
52080,note_on,120,0,1,,,,,,,,,0,,,80,0
52080,note_on,0,0,1,,,,,,,,,0,,,92,75
52200,note_on,120,0,1,,,,,,,,,0,,,92,0
52200,note_on,0,0,3,,,,,,,,,2,,,51,62
52200,note_on,360,0,3,,,,,,,,,2,,,65,0
52200,note_on,0,0,1,,,,,,,,,0,,,86,75
52320,note_on,360,0,2,,,,,,,,,1,,,80,0
52320,note_on,120,0,1,,,,,,,,,0,,,86,0
52320,note_on,120,0,3,,,,,,,,,2,,,51,0
52320,note_on,0,0,3,,,,,,,,,2,,,62,62
52440,note_on,120,0,2,,,,,,,,,1,,,80,62
52440,note_on,120,0,1,,,,,,,,,0,,,80,75
52560,note_on,120,0,1,,,,,,,,,0,,,80,0
52560,note_on,0,0,1,,,,,,,,,0,,,89,75
52680,note_on,0,0,1,,,,,,,,,0,,,82,75
52680,note_on,360,0,3,,,,,,,,,2,,,62,0
52680,note_on,0,0,3,,,,,,,,,2,,,51,62
52680,note_on,120,0,1,,,,,,,,,0,,,89,0
52800,note_on,120,0,3,,,,,,,,,2,,,51,0
52800,note_on,0,0,3,,,,,,,,,2,,,63,62
52800,note_on,120,0,1,,,,,,,,,0,,,82,0
52800,note_on,360,0,2,,,,,,,,,1,,,80,0
52920,note_on,120,0,2,,,,,,,,,1,,,79,62
52920,note_on,120,0,1,,,,,,,,,0,,,79,75
53040,note_on,120,0,1,,,,,,,,,0,,,79,0
53040,note_on,0,0,1,,,,,,,,,0,,,91,75
53160,control_change,0,0,1,,,,,,,,,0,64,0,,
53160,note_on,120,0,1,,,,,,,,,0,,,91,0
53160,note_on,0,0,3,,,,,,,,,2,,,49,62
53160,note_on,0,0,1,,,,,,,,,0,,,82,75
53160,control_change,0,0,3,,,,,,,,,2,64,0,,
53160,note_on,360,0,3,,,,,,,,,2,,,63,0
53280,note_on,0,0,3,,,,,,,,,2,,,61,75
53280,note_on,120,0,3,,,,,,,,,2,,,49,0
53280,control_change,0,0,2,,,,,,,,,1,64,0,,
53280,note_on,120,0,1,,,,,,,,,0,,,82,0
53280,note_on,360,0,2,,,,,,,,,1,,,79,0
53400,note_on,120,0,1,,,,,,,,,0,,,71,88
53400,note_on,120,0,2,,,,,,,,,1,,,71,75
53520,note_on,120,0,1,,,,,,,,,0,,,71,0
53520,note_on,0,0,1,,,,,,,,,0,,,83,88
53640,note_on,0,0,3,,,,,,,,,2,,,48,75
53640,note_on,0,0,1,,,,,,,,,0,,,77,88
53640,note_on,120,0,1,,,,,,,,,0,,,83,0
53640,note_on,360,0,3,,,,,,,,,2,,,61,0
53760,note_on,120,0,3,,,,,,,,,2,,,48,0
53760,note_on,0,0,3,,,,,,,,,2,,,60,75
53760,note_on,360,0,2,,,,,,,,,1,,,71,0
53760,note_on,120,0,1,,,,,,,,,0,,,77,0
53880,note_on,120,0,1,,,,,,,,,0,,,72,88
53880,note_on,120,0,2,,,,,,,,,1,,,72,75
54000,note_on,120,0,1,,,,,,,,,0,,,72,0
54000,note_on,0,0,1,,,,,,,,,0,,,84,88
54120,note_on,0,0,1,,,,,,,,,0,,,76,88
54120,note_on,120,0,1,,,,,,,,,0,,,84,0
54120,note_on,360,0,3,,,,,,,,,2,,,60,0
54120,note_on,0,0,3,,,,,,,,,2,,,60,75
54240,note_on,120,0,3,,,,,,,,,2,,,60,0
54240,note_on,0,0,3,,,,,,,,,2,,,48,49
54240,note_on,120,0,1,,,,,,,,,0,,,76,0
54240,note_on,360,0,2,,,,,,,,,1,,,72,0
54360,note_on,120,0,1,,,,,,,,,0,,,72,62
54360,note_on,120,0,2,,,,,,,,,1,,,72,49
54480,note_on,0,0,1,,,,,,,,,0,,,84,62
54480,note_on,120,0,1,,,,,,,,,0,,,72,0
54600,note_on,360,0,3,,,,,,,,,2,,,48,0
54600,note_on,0,0,1,,,,,,,,,0,,,76,62
54600,note_on,0,0,3,,,,,,,,,2,,,60,49
54600,note_on,120,0,1,,,,,,,,,0,,,84,0
54720,note_on,120,0,3,,,,,,,,,2,,,60,0
54720,control_change,0,0,2,,,,,,,,,1,64,127,,
54720,note_on,120,0,1,,,,,,,,,0,,,76,0
54720,control_change,0,0,1,,,,,,,,,0,64,127,,
54720,note_on,0,0,3,,,,,,,,,2,,,69,49
54720,note_on,360,0,2,,,,,,,,,1,,,72,0
54720,control_change,0,0,3,,,,,,,,,2,64,127,,
54840,note_on,120,0,2,,,,,,,,,1,,,84,49
54840,note_on,120,0,1,,,,,,,,,0,,,84,62
54960,note_on,0,0,1,,,,,,,,,0,,,96,62
54960,note_on,120,0,1,,,,,,,,,0,,,84,0
55080,note_on,0,0,1,,,,,,,,,0,,,89,62
55080,note_on,360,0,3,,,,,,,,,2,,,69,0
55080,note_on,120,0,1,,,,,,,,,0,,,96,0
55080,note_on,0,0,3,,,,,,,,,2,,,53,49
55200,note_on,120,0,3,,,,,,,,,2,,,53,0
55200,note_on,120,0,1,,,,,,,,,0,,,89,0
55200,note_on,360,0,2,,,,,,,,,1,,,84,0
55200,note_on,0,0,3,,,,,,,,,2,,,65,49
55320,note_on,120,0,2,,,,,,,,,1,,,81,49
55320,note_on,120,0,1,,,,,,,,,0,,,81,62
55440,note_on,120,0,1,,,,,,,,,0,,,81,0
55440,note_on,0,0,1,,,,,,,,,0,,,93,62
55560,note_on,360,0,3,,,,,,,,,2,,,65,0
55560,note_on,120,0,1,,,,,,,,,0,,,93,0
55560,note_on,0,0,3,,,,,,,,,2,,,53,49
55560,note_on,0,0,1,,,,,,,,,0,,,89,62
55680,note_on,120,0,1,,,,,,,,,0,,,89,0
55680,note_on,360,0,2,,,,,,,,,1,,,81,0
55680,note_on,0,0,3,,,,,,,,,2,,,69,49
55680,note_on,120,0,3,,,,,,,,,2,,,53,0
55800,note_on,120,0,1,,,,,,,,,0,,,84,62
55800,note_on,120,0,2,,,,,,,,,1,,,84,49
55920,note_on,0,0,1,,,,,,,,,0,,,96,62
55920,note_on,120,0,1,,,,,,,,,0,,,84,0
56040,note_on,360,0,3,,,,,,,,,2,,,69,0
56040,note_on,0,0,1,,,,,,,,,0,,,89,62
56040,note_on,0,0,3,,,,,,,,,2,,,53,49
56040,note_on,120,0,1,,,,,,,,,0,,,96,0
56160,note_on,360,0,2,,,,,,,,,1,,,84,0
56160,note_on,120,0,3,,,,,,,,,2,,,53,0
56160,note_on,120,0,1,,,,,,,,,0,,,89,0
56160,note_on,0,0,3,,,,,,,,,2,,,70,49
56280,note_on,120,0,1,,,,,,,,,0,,,86,62
56280,note_on,120,0,2,,,,,,,,,1,,,86,49
56400,note_on,120,0,1,,,,,,,,,0,,,86,0
56400,note_on,0,0,1,,,,,,,,,0,,,98,62
56520,note_on,0,0,3,,,,,,,,,2,,,53,49
56520,note_on,120,0,1,,,,,,,,,0,,,98,0
56520,note_on,0,0,1,,,,,,,,,0,,,89,62
56520,note_on,360,0,3,,,,,,,,,2,,,70,0
56640,note_on,360,0,2,,,,,,,,,1,,,86,0
56640,note_on,0,0,3,,,,,,,,,2,,,69,49
56640,note_on,120,0,1,,,,,,,,,0,,,89,0
56640,note_on,120,0,3,,,,,,,,,2,,,53,0
56760,note_on,120,0,2,,,,,,,,,1,,,84,49
56760,note_on,120,0,1,,,,,,,,,0,,,84,62
56880,note_on,0,0,1,,,,,,,,,0,,,96,62
56880,note_on,120,0,1,,,,,,,,,0,,,84,0
57000,note_on,120,0,1,,,,,,,,,0,,,96,0
57000,note_on,0,0,1,,,,,,,,,0,,,89,62
57000,note_on,360,0,3,,,,,,,,,2,,,69,0
57000,note_on,0,0,3,,,,,,,,,2,,,53,49
57120,note_on,120,0,1,,,,,,,,,0,,,89,0
57120,note_on,360,0,2,,,,,,,,,1,,,84,0
57120,note_on,0,0,3,,,,,,,,,2,,,68,49
57120,note_on,120,0,3,,,,,,,,,2,,,53,0
57240,note_on,120,0,1,,,,,,,,,0,,,83,62
57240,note_on,120,0,2,,,,,,,,,1,,,83,49
57360,note_on,120,0,1,,,,,,,,,0,,,83,0
57360,note_on,0,0,1,,,,,,,,,0,,,95,62
57480,note_on,360,0,3,,,,,,,,,2,,,68,0
57480,note_on,0,0,3,,,,,,,,,2,,,53,49
57480,note_on,120,0,1,,,,,,,,,0,,,95,0
57480,note_on,0,0,1,,,,,,,,,0,,,89,62
57600,note_on,120,0,3,,,,,,,,,2,,,53,0
57600,note_on,120,0,1,,,,,,,,,0,,,89,0
57600,note_on,360,0,2,,,,,,,,,1,,,83,0
57600,note_on,0,0,3,,,,,,,,,2,,,69,49
57720,note_on,120,0,1,,,,,,,,,0,,,84,62
57720,note_on,120,0,2,,,,,,,,,1,,,84,49
57840,note_on,0,0,1,,,,,,,,,0,,,96,62
57840,note_on,120,0,1,,,,,,,,,0,,,84,0
57960,control_change,0,0,1,,,,,,,,,0,64,0,,
57960,note_on,360,0,3,,,,,,,,,2,,,69,0
57960,control_change,0,0,3,,,,,,,,,2,64,0,,
57960,note_on,0,0,1,,,,,,,,,0,,,89,62
57960,note_on,120,0,1,,,,,,,,,0,,,96,0
57960,note_on,0,0,3,,,,,,,,,2,,,51,49
58080,note_on,360,0,2,,,,,,,,,1,,,84,0
58080,note_on,120,0,3,,,,,,,,,2,,,51,0
58080,note_on,120,0,1,,,,,,,,,0,,,89,0
58080,control_change,0,0,2,,,,,,,,,1,64,0,,
58080,note_on,0,0,3,,,,,,,,,2,,,67,75
58200,note_on,120,0,1,,,,,,,,,0,,,73,62
58200,note_on,120,0,2,,,,,,,,,1,,,73,49
58320,note_on,120,0,1,,,,,,,,,0,,,73,0
58320,note_on,0,0,1,,,,,,,,,0,,,85,62
58440,note_on,0,0,3,,,,,,,,,2,,,50,49
58440,note_on,0,0,1,,,,,,,,,0,,,79,62
58440,note_on,360,0,3,,,,,,,,,2,,,67,0
58440,note_on,120,0,1,,,,,,,,,0,,,85,0
58560,note_on,120,0,3,,,,,,,,,2,,,50,0
58560,note_on,0,0,3,,,,,,,,,2,,,66,49
58560,note_on,360,0,2,,,,,,,,,1,,,73,0
58560,note_on,120,0,1,,,,,,,,,0,,,79,0
58680,note_on,120,0,2,,,,,,,,,1,,,74,49
58680,note_on,120,0,1,,,,,,,,,0,,,74,62
58800,note_on,120,0,1,,,,,,,,,0,,,74,0
58800,note_on,0,0,1,,,,,,,,,0,,,86,62
58920,note_on,360,0,3,,,,,,,,,2,,,66,0
58920,note_on,120,0,1,,,,,,,,,0,,,86,0
58920,note_on,0,0,3,,,,,,,,,2,,,50,49
58920,note_on,0,0,1,,,,,,,,,0,,,78,62
59040,note_on,360,0,2,,,,,,,,,1,,,74,0
59040,note_on,0,0,3,,,,,,,,,2,,,72,49
59040,note_on,0,0,3,,,,,,,,,2,,,69,49
59040,note_on,120,0,1,,,,,,,,,0,,,78,0
59040,note_on,120,0,3,,,,,,,,,2,,,50,0
59160,note_on,120,0,2,,,,,,,,,1,,,74,49
59160,note_on,120,0,1,,,,,,,,,0,,,74,62
59280,note_on,120,0,1,,,,,,,,,0,,,74,0
59280,note_on,0,0,1,,,,,,,,,0,,,86,62
59400,note_on,0,0,1,,,,,,,,,0,,,78,62
59400,note_on,360,0,3,,,,,,,,,2,,,72,0
59400,note_on,0,0,3,,,,,,,,,2,,,62,49
59400,note_on,120,0,1,,,,,,,,,0,,,86,0
59400,note_on,0,0,3,,,,,,,,,2,,,69,0
59520,note_on,120,0,1,,,,,,,,,0,,,78,0
59520,note_on,120,0,3,,,,,,,,,2,,,62,0
59520,note_on,360,0,2,,,,,,,,,1,,,74,0
59520,note_on,0,0,3,,,,,,,,,2,,,70,49
59640,note_on,120,0,1,,,,,,,,,0,,,86,62
59640,note_on,120,0,2,,,,,,,,,1,,,86,49
59760,note_on,120,0,1,,,,,,,,,0,,,86,0
59760,note_on,0,0,1,,,,,,,,,0,,,98,62
59880,note_on,120,0,1,,,,,,,,,0,,,98,0
59880,note_on,360,0,3,,,,,,,,,2,,,70,0
59880,note_on,0,0,3,,,,,,,,,2,,,55,49
59880,note_on,0,0,1,,,,,,,,,0,,,91,62
60000,note_on,120,0,3,,,,,,,,,2,,,55,0
60000,note_on,120,0,1,,,,,,,,,0,,,91,0
60000,note_on,0,0,3,,,,,,,,,2,,,67,49
60000,note_on,360,0,2,,,,,,,,,1,,,86,0
60120,note_on,120,0,2,,,,,,,,,1,,,82,49
60120,note_on,120,0,1,,,,,,,,,0,,,82,62
60240,note_on,120,0,1,,,,,,,,,0,,,82,0
60240,note_on,0,0,1,,,,,,,,,0,,,94,62
60360,note_on,0,0,1,,,,,,,,,0,,,91,62
60360,note_on,120,0,1,,,,,,,,,0,,,94,0
60360,note_on,360,0,3,,,,,,,,,2,,,67,0
60360,note_on,0,0,3,,,,,,,,,2,,,55,49
60480,note_on,120,0,3,,,,,,,,,2,,,55,0
60480,note_on,0,0,3,,,,,,,,,2,,,70,62
60480,note_on,120,0,1,,,,,,,,,0,,,91,0
60480,note_on,360,0,2,,,,,,,,,1,,,82,0
60600,note_on,120,0,2,,,,,,,,,1,,,86,62
60600,note_on,120,0,1,,,,,,,,,0,,,86,75
60720,note_on,0,0,1,,,,,,,,,0,,,98,75
60720,note_on,120,0,1,,,,,,,,,0,,,86,0
60840,note_on,0,0,3,,,,,,,,,2,,,55,62
60840,note_on,0,0,1,,,,,,,,,0,,,91,75
60840,note_on,120,0,1,,,,,,,,,0,,,98,0
60840,note_on,360,0,3,,,,,,,,,2,,,70,0
60960,note_on,360,0,2,,,,,,,,,1,,,86,0
60960,note_on,120,0,1,,,,,,,,,0,,,91,0
60960,note_on,120,0,3,,,,,,,,,2,,,55,0
60960,note_on,0,0,3,,,,,,,,,2,,,72,62
61080,note_on,120,0,1,,,,,,,,,0,,,87,75
61080,note_on,120,0,2,,,,,,,,,1,,,87,62
61200,note_on,120,0,1,,,,,,,,,0,,,87,0
61200,note_on,0,0,1,,,,,,,,,0,,,99,75
61320,note_on,0,0,3,,,,,,,,,2,,,55,62
61320,note_on,360,0,3,,,,,,,,,2,,,72,0
61320,note_on,0,0,1,,,,,,,,,0,,,91,75
61320,note_on,120,0,1,,,,,,,,,0,,,99,0
61440,note_on,360,0,2,,,,,,,,,1,,,87,0
61440,note_on,0,0,3,,,,,,,,,2,,,70,62
61440,note_on,120,0,1,,,,,,,,,0,,,91,0
61440,note_on,120,0,3,,,,,,,,,2,,,55,0
61560,note_on,120,0,1,,,,,,,,,0,,,86,75
61560,note_on,120,0,2,,,,,,,,,1,,,86,62
61680,note_on,0,0,1,,,,,,,,,0,,,98,75
61680,note_on,120,0,1,,,,,,,,,0,,,86,0
61800,note_on,360,0,3,,,,,,,,,2,,,70,0
61800,note_on,0,0,3,,,,,,,,,2,,,55,62
61800,note_on,120,0,1,,,,,,,,,0,,,98,0
61800,note_on,0,0,1,,,,,,,,,0,,,91,75
61920,note_on,360,0,2,,,,,,,,,1,,,86,0
61920,note_on,120,0,3,,,,,,,,,2,,,55,0
61920,note_on,120,0,1,,,,,,,,,0,,,91,0
61920,note_on,0,0,3,,,,,,,,,2,,,67,62
61920,note_on,0,0,3,,,,,,,,,2,,,70,62
62040,note_on,120,0,1,,,,,,,,,0,,,85,75
62040,note_on,120,0,2,,,,,,,,,1,,,85,62
62160,note_on,120,0,1,,,,,,,,,0,,,85,0
62160,note_on,0,0,1,,,,,,,,,0,,,97,75
62280,note_on,0,0,3,,,,,,,,,2,,,67,0
62280,note_on,0,0,1,,,,,,,,,0,,,88,75
62280,note_on,120,0,1,,,,,,,,,0,,,97,0
62280,note_on,360,0,3,,,,,,,,,2,,,70,0
62280,note_on,0,0,3,,,,,,,,,2,,,54,62
62400,note_on,120,0,3,,,,,,,,,2,,,54,0
62400,note_on,360,0,2,,,,,,,,,1,,,85,0
62400,note_on,120,0,1,,,,,,,,,0,,,88,0
62400,note_on,0,0,3,,,,,,,,,2,,,66,62
62400,note_on,0,0,3,,,,,,,,,2,,,69,62
62520,note_on,120,0,1,,,,,,,,,0,,,84,75
62520,note_on,120,0,2,,,,,,,,,1,,,84,62
62640,note_on,120,0,1,,,,,,,,,0,,,84,0
62640,note_on,0,0,1,,,,,,,,,0,,,96,75
62760,note_on,360,0,3,,,,,,,,,2,,,69,0
62760,note_on,120,0,1,,,,,,,,,0,,,96,0
62760,note_on,0,0,3,,,,,,,,,2,,,53,62
62760,note_on,0,0,1,,,,,,,,,0,,,87,75
62760,note_on,0,0,3,,,,,,,,,2,,,66,0
62880,note_on,0,0,3,,,,,,,,,2,,,68,62
62880,note_on,120,0,3,,,,,,,,,2,,,53,0
62880,note_on,120,0,1,,,,,,,,,0,,,87,0
62880,note_on,0,0,3,,,,,,,,,2,,,65,62
62880,note_on,360,0,2,,,,,,,,,1,,,84,0
63000,note_on,120,0,2,,,,,,,,,1,,,83,62
63000,note_on,120,0,1,,,,,,,,,0,,,83,75
63120,note_on,120,0,1,,,,,,,,,0,,,83,0
63120,note_on,0,0,1,,,,,,,,,0,,,95,75
63240,note_on,0,0,3,,,,,,,,,2,,,52,62
63240,note_on,0,0,3,,,,,,,,,2,,,65,0
63240,note_on,120,0,1,,,,,,,,,0,,,95,0
63240,note_on,0,0,1,,,,,,,,,0,,,86,75
63240,note_on,360,0,3,,,,,,,,,2,,,68,0
63360,note_on,360,0,2,,,,,,,,,1,,,83,0
63360,note_on,0,0,3,,,,,,,,,2,,,67,75
63360,note_on,0,0,3,,,,,,,,,2,,,64,75
63360,note_on,120,0,3,,,,,,,,,2,,,52,0
63360,note_on,120,0,1,,,,,,,,,0,,,86,0
63480,note_on,120,0,1,,,,,,,,,0,,,82,88
63600,note_on,120,0,1,,,,,,,,,0,,,82,0
63600,note_on,0,0,1,,,,,,,,,0,,,94,88
63720,note_on,0,0,3,,,,,,,,,2,,,51,75
63720,note_on,0,0,3,,,,,,,,,2,,,64,0
63720,note_on,0,0,1,,,,,,,,,0,,,85,88
63720,note_on,360,0,3,,,,,,,,,2,,,67,0
63720,note_on,120,0,1,,,,,,,,,0,,,94,0
63840,note_on,120,0,3,,,,,,,,,2,,,51,0
63840,note_on,120,0,1,,,,,,,,,0,,,85,0
63840,note_on,0,0,3,,,,,,,,,2,,,66,75
63840,note_on,0,0,3,,,,,,,,,2,,,63,75
63960,note_on,120,0,1,,,,,,,,,0,,,81,88
64080,note_on,0,0,1,,,,,,,,,0,,,93,88
64080,note_on,120,0,1,,,,,,,,,0,,,81,0
64200,note_on,0,0,3,,,,,,,,,2,,,63,0
64200,note_on,0,0,3,,,,,,,,,2,,,50,75
64200,note_on,120,0,1,,,,,,,,,0,,,93,0
64200,note_on,0,0,1,,,,,,,,,0,,,84,88
64200,note_on,360,0,3,,,,,,,,,2,,,66,0
64320,note_on,0,0,3,,,,,,,,,2,,,65,88
64320,note_on,0,0,3,,,,,,,,,2,,,62,88
64320,note_on,120,0,1,,,,,,,,,0,,,84,0
64320,note_on,120,0,3,,,,,,,,,2,,,50,0
64440,note_on,120,0,1,,,,,,,,,0,,,80,101
64560,note_on,120,0,1,,,,,,,,,0,,,80,0
64560,note_on,0,0,1,,,,,,,,,0,,,92,101
64680,note_on,0,0,1,,,,,,,,,0,,,83,101
64680,note_on,0,0,3,,,,,,,,,2,,,49,88
64680,note_on,360,0,3,,,,,,,,,2,,,65,0
64680,note_on,0,0,3,,,,,,,,,2,,,62,0
64680,note_on,120,0,1,,,,,,,,,0,,,92,0
64800,note_on,120,0,1,,,,,,,,,0,,,83,0
64800,note_on,120,0,3,,,,,,,,,2,,,49,0
64800,note_on,0,0,3,,,,,,,,,2,,,64,88
64800,note_on,0,0,3,,,,,,,,,2,,,61,88
64920,note_on,120,0,1,,,,,,,,,0,,,79,101
65040,note_on,0,0,1,,,,,,,,,0,,,91,101
65040,note_on,120,0,1,,,,,,,,,0,,,79,0
65160,note_on,360,0,3,,,,,,,,,2,,,64,0
65160,note_on,0,0,1,,,,,,,,,0,,,82,101
65160,note_on,120,0,1,,,,,,,,,0,,,91,0
65160,note_on,0,0,3,,,,,,,,,2,,,48,88
65160,note_on,0,0,3,,,,,,,,,2,,,61,0
65280,note_on,0,0,3,,,,,,,,,2,,,63,88
65280,note_on,120,0,3,,,,,,,,,2,,,48,0
65280,note_on,0,0,3,,,,,,,,,2,,,60,88
65280,note_on,120,0,1,,,,,,,,,0,,,82,0
65400,note_on,120,0,1,,,,,,,,,0,,,78,101
65520,note_on,0,0,1,,,,,,,,,0,,,90,101
65520,note_on,120,0,1,,,,,,,,,0,,,78,0
65640,note_on,360,0,3,,,,,,,,,2,,,63,0
65640,note_on,120,0,1,,,,,,,,,0,,,90,0
65640,note_on,0,0,1,,,,,,,,,0,,,81,101
65640,note_on,0,0,3,,,,,,,,,2,,,48,88
65640,note_on,0,0,3,,,,,,,,,2,,,60,0
65760,note_on,0,0,3,,,,,,,,,2,,,58,88
65760,note_on,120,0,1,,,,,,,,,0,,,81,0
65760,note_on,0,0,3,,,,,,,,,2,,,62,88
65760,note_on,120,0,3,,,,,,,,,2,,,48,0
65880,note_on,120,0,1,,,,,,,,,0,,,79,101
66000,note_on,120,0,1,,,,,,,,,0,,,79,0
66000,note_on,0,0,1,,,,,,,,,0,,,91,101
66120,note_on,360,0,3,,,,,,,,,2,,,62,0
66120,note_on,0,0,3,,,,,,,,,2,,,58,0
66120,note_on,0,0,3,,,,,,,,,2,,,46,88
66120,note_on,120,0,1,,,,,,,,,0,,,91,0
66120,note_on,0,0,1,,,,,,,,,0,,,82,101
66240,note_on,120,0,1,,,,,,,,,0,,,82,0
66240,note_on,120,0,3,,,,,,,,,2,,,46,0
66240,note_on,0,0,3,,,,,,,,,2,,,60,88
66240,note_on,0,0,3,,,,,,,,,2,,,63,88
66360,note_on,120,0,1,,,,,,,,,0,,,78,101
66480,note_on,120,0,1,,,,,,,,,0,,,78,0
66480,note_on,0,0,1,,,,,,,,,0,,,90,101
66600,note_on,120,0,1,,,,,,,,,0,,,90,0
66600,note_on,0,0,3,,,,,,,,,2,,,60,0
66600,note_on,0,0,1,,,,,,,,,0,,,81,101
66600,note_on,0,0,3,,,,,,,,,2,,,48,88
66600,note_on,360,0,3,,,,,,,,,2,,,63,0
66720,note_on,0,0,3,,,,,,,,,2,,,58,88
66720,note_on,120,0,1,,,,,,,,,0,,,81,0
66720,note_on,120,0,3,,,,,,,,,2,,,48,0
66720,note_on,0,0,3,,,,,,,,,2,,,62,88
66840,note_on,120,0,1,,,,,,,,,0,,,79,101
66960,note_on,120,0,1,,,,,,,,,0,,,79,0
66960,note_on,0,0,1,,,,,,,,,0,,,91,101
67080,note_on,0,0,3,,,,,,,,,2,,,46,88
67080,note_on,0,0,3,,,,,,,,,2,,,58,0
67080,note_on,120,0,1,,,,,,,,,0,,,91,0
67080,note_on,360,0,3,,,,,,,,,2,,,62,0
67080,note_on,0,0,1,,,,,,,,,0,,,82,101
67200,note_on,120,0,1,,,,,,,,,0,,,82,0
67200,note_on,0,0,1,,,,,,,,,0,,,87,101
67200,note_on,0,0,1,,,,,,,,,0,,,75,101
67200,note_on,0,0,1,,,,,,,,,0,,,79,101
67200,note_on,120,0,3,,,,,,,,,2,,,46,0
67200,note_on,0,0,3,,,,,,,,,2,,,63,88
67200,note_on,0,0,3,,,,,,,,,2,,,60,88
67200,note_on,0,0,1,,,,,,,,,0,,,84,101
67440,note_on,240,0,3,,,,,,,,,2,,,63,0
67440,note_on,240,0,1,,,,,,,,,0,,,87,0
67440,note_on,0,0,3,,,,,,,,,2,,,60,0
67440,note_on,0,0,1,,,,,,,,,0,,,84,0
67440,note_on,0,0,1,,,,,,,,,0,,,79,0
67440,note_on,0,0,1,,,,,,,,,0,,,75,0
67680,note_on,0,0,3,,,,,,,,,2,,,39,88
67680,note_on,240,0,3,,,,,,,,,2,,,36,88
67680,note_on,0,0,1,,,,,,,,,0,,,91,101
67680,note_on,0,0,1,,,,,,,,,0,,,99,101
67680,note_on,240,0,1,,,,,,,,,0,,,87,101
67680,note_on,0,0,1,,,,,,,,,0,,,96,101
67680,note_on,0,0,3,,,,,,,,,2,,,48,88
67680,note_on,0,0,3,,,,,,,,,2,,,43,88
67920,note_on,0,0,1,,,,,,,,,0,,,91,0
67920,note_on,240,0,1,,,,,,,,,0,,,99,0
67920,note_on,0,0,1,,,,,,,,,0,,,87,0
67920,note_on,0,0,3,,,,,,,,,2,,,43,0
67920,note_on,0,0,3,,,,,,,,,2,,,39,0
67920,note_on,0,0,3,,,,,,,,,2,,,36,0
67920,note_on,240,0,3,,,,,,,,,2,,,48,0
67920,note_on,0,0,1,,,,,,,,,0,,,96,0
69120,note_on,69120,0,4,,,,,,,,,3,,,38,64
69120,note_on,1200,0,3,,,,,,,,,2,,,38,88
69240,note_on,1320,0,1,,,,,,,,,0,,,55,101
69240,note_on,5880,0,2,,,,,,,,,1,,,67,88
69360,note_on,0,0,1,,,,,,,,,0,,,63,101
69360,note_on,120,0,1,,,,,,,,,0,,,55,0
69480,note_on,120,0,1,,,,,,,,,0,,,63,0
69480,note_on,0,0,1,,,,,,,,,0,,,58,101
69600,note_on,120,0,1,,,,,,,,,0,,,58,0
69600,note_on,360,0,2,,,,,,,,,1,,,67,0
69600,note_on,0,0,3,,,,,,,,,2,,,50,88
69600,note_on,480,0,3,,,,,,,,,2,,,38,0
69720,note_on,120,0,1,,,,,,,,,0,,,55,101
69720,note_on,120,0,2,,,,,,,,,1,,,67,88
69840,note_on,120,0,1,,,,,,,,,0,,,55,0
69840,note_on,0,0,1,,,,,,,,,0,,,62,101
69960,note_on,0,0,1,,,,,,,,,0,,,58,101
69960,note_on,120,0,1,,,,,,,,,0,,,62,0
70080,note_on,960,0,4,,,,,,,,,3,,,38,0
70080,note_on,0,0,3,,,,,,,,,2,,,38,88
70080,note_on,360,0,2,,,,,,,,,1,,,67,0
70080,note_on,120,0,1,,,,,,,,,0,,,58,0
70080,note_on,480,0,3,,,,,,,,,2,,,50,0
70080,note_on,0,0,4,,,,,,,,,3,,,38,64
70200,note_on,120,0,1,,,,,,,,,0,,,57,101
70200,note_on,120,0,2,,,,,,,,,1,,,69,88
70320,note_on,120,0,1,,,,,,,,,0,,,57,0
70320,note_on,0,0,1,,,,,,,,,0,,,67,101
70440,note_on,120,0,1,,,,,,,,,0,,,67,0
70440,note_on,0,0,1,,,,,,,,,0,,,60,101
70560,note_on,120,0,1,,,,,,,,,0,,,60,0
70560,note_on,360,0,2,,,,,,,,,1,,,69,0
70560,note_on,480,0,3,,,,,,,,,2,,,38,0
70560,note_on,0,0,3,,,,,,,,,2,,,50,75
70680,note_on,120,0,1,,,,,,,,,0,,,57,88
70680,note_on,120,0,2,,,,,,,,,1,,,69,75
70800,note_on,0,0,1,,,,,,,,,0,,,66,88
70800,note_on,120,0,1,,,,,,,,,0,,,57,0
70920,note_on,0,0,1,,,,,,,,,0,,,60,88
70920,note_on,120,0,1,,,,,,,,,0,,,66,0
71040,note_on,0,0,3,,,,,,,,,2,,,43,62
71040,note_on,0,0,3,,,,,,,,,2,,,50,62
71040,time_signature,70987,1,0,6,4,24,8,,,,,,,,,
71040,end_of_track,0,1,0,,,,,,,,,,,,,
71040,note_on,120,0,1,,,,,,,,,0,,,60,0
71040,note_on,0,0,1,,,,,,,,,0,,,58,75
71040,note_on,480,0,3,,,,,,,,,2,,,50,0
71040,note_on,0,0,1,,,,,,,,,0,,,67,75
71040,end_of_track,0,1,2,,,,,,,,,,,,,
71040,note_on,960,0,4,,,,,,,,,3,,,38,0
71040,end_of_track,0,1,4,,,,,,,,,,,,,
71040,note_on,360,0,2,,,,,,,,,1,,,69,0
72000,note_on,0,0,1,,,,,,,,,0,,,58,0
72000,control_change,0,0,1,,,,,,,,,0,64,127,,
72000,end_of_track,0,1,3,,,,,,,,,,,,,
72000,note_on,960,0,3,,,,,,,,,2,,,50,0
72000,note_on,960,0,1,,,,,,,,,0,,,67,0
72000,note_on,0,0,3,,,,,,,,,2,,,43,0
73440,end_of_track,0,1,1,,,,,,,,,,,,,
73440,control_change,1440,0,1,,,,,,,,,0,64,0,,
