tick,type,time,meta,track,numerator,denominator,clocks_per_click,notated_32nd_notes_per_beat,key,tempo,port,program,channel,control,value,note,velocity
0,control_change,0,0,1,,,,,,,,,0,7,127,,
0,control_change,0,0,3,,,,,,,,,2,7,127,,
0,control_change,0,0,3,,,,,,,,,2,10,30,,
0,copyright,0,1,0,,,,,,,,,,,,,
0,key_signature,0,1,0,,,,,Ab,,,,,,,,
0,midi_port,0,1,1,,,,,,,0,,,,,,
0,midi_port,0,1,2,,,,,,,0,,,,,,
0,midi_port,0,1,3,,,,,,,0,,,,,,
0,control_change,0,0,2,,,,,,,,,1,10,97,,
0,track_name,0,1,2,,,,,,,,,,,,,
0,program_change,0,0,2,,,,,,,,0,1,,,,
0,program_change,0,0,3,,,,,,,,0,2,,,,
0,set_tempo,0,1,0,,,,,,600000,,,,,,,
0,text,0,1,0,,,,,,,,,,,,,
0,time_signature,0,1,0,3,4,24,8,,,,,,,,,
0,track_name,0,1,0,,,,,,,,,,,,,
0,track_name,0,1,1,,,,,,,,,,,,,
0,program_change,0,0,1,,,,,,,,0,0,,,,
0,control_change,0,0,2,,,,,,,,,1,7,127,,
0,track_name,0,1,3,,,,,,,,,,,,,
0,control_change,0,0,1,,,,,,,,,0,10,97,,
1,copyright,1,1,4,,,,,,,,,,,,,
1,end_of_track,0,1,4,,,,,,,,,,,,,
159,note_on,0,0,1,,,,,,,,,0,,,46,62
159,control_change,159,0,1,,,,,,,,,0,64,127,,
320,note_on,0,0,1,,,,,,,,,0,,,48,62
320,note_on,161,0,1,,,,,,,,,0,,,46,0
480,note_on,160,0,1,,,,,,,,,0,,,48,0
480,note_on,0,0,1,,,,,,,,,0,,,49,62
639,note_on,0,0,1,,,,,,,,,0,,,52,75
639,note_on,159,0,1,,,,,,,,,0,,,49,0
800,note_on,0,0,1,,,,,,,,,0,,,53,75
800,note_on,161,0,1,,,,,,,,,0,,,52,0
960,note_on,160,0,1,,,,,,,,,0,,,53,0
960,note_on,0,0,1,,,,,,,,,0,,,56,75
1440,control_change,480,0,1,,,,,,,,,0,64,0,,
1599,control_change,0,0,1,,,,,,,,,0,64,127,,
1599,note_on,0,0,1,,,,,,,,,0,,,54,62
1599,note_on,159,0,1,,,,,,,,,0,,,56,0
1760,note_on,161,0,1,,,,,,,,,0,,,54,0
1760,note_on,0,0,1,,,,,,,,,0,,,55,62
1920,note_on,0,0,1,,,,,,,,,0,,,56,62
1920,note_on,160,0,1,,,,,,,,,0,,,55,0
2079,note_on,159,0,1,,,,,,,,,0,,,56,0
2079,note_on,0,0,1,,,,,,,,,0,,,57,75
2240,note_on,0,0,1,,,,,,,,,0,,,58,75
2240,note_on,161,0,1,,,,,,,,,0,,,57,0
2400,note_on,160,0,1,,,,,,,,,0,,,58,0
2400,note_on,0,0,1,,,,,,,,,0,,,61,75
2880,control_change,480,0,1,,,,,,,,,0,64,0,,
3039,note_on,159,0,1,,,,,,,,,0,,,61,0
3039,control_change,0,0,1,,,,,,,,,0,64,127,,
3039,note_on,0,0,1,,,,,,,,,0,,,59,62
3200,note_on,161,0,1,,,,,,,,,0,,,59,0
3200,note_on,0,0,1,,,,,,,,,0,,,60,62
3360,note_on,0,0,1,,,,,,,,,0,,,61,62
3360,note_on,160,0,1,,,,,,,,,0,,,60,0
3519,note_on,159,0,1,,,,,,,,,0,,,61,0
3519,note_on,0,0,1,,,,,,,,,0,,,63,75
3680,note_on,161,0,1,,,,,,,,,0,,,63,0
3680,note_on,0,0,1,,,,,,,,,0,,,65,75
3760,note_on,80,0,1,,,,,,,,,0,,,61,75
3800,note_on,40,0,1,,,,,,,,,0,,,65,75
3840,control_change,0,0,1,,,,,,,,,0,64,0,,
3840,control_change,3840,0,3,,,,,,,,,2,64,127,,
3840,note_on,40,0,1,,,,,,,,,0,,,65,0
3840,note_on,0,0,1,,,,,,,,,0,,,68,75
3840,note_on,0,0,3,,,,,,,,,2,,,58,62
3999,note_on,0,0,3,,,,,,,,,2,,,48,62
3999,note_on,159,0,3,,,,,,,,,2,,,58,0
4080,set_tempo,4080,1,0,,,,,,582524,,,,,,,
4160,note_on,0,0,3,,,,,,,,,2,,,58,62
4160,note_on,161,0,3,,,,,,,,,2,,,48,0
4320,control_change,160,0,3,,,,,,,,,2,64,0,,
4320,note_on,4320,0,2,,,,,,,,,1,,,64,49
4320,note_on,480,0,1,,,,,,,,,0,,,65,0
4320,note_on,0,0,1,,,,,,,,,0,,,61,0
4320,set_tempo,240,1,0,,,,,,566038,,,,,,,
4320,note_on,0,0,3,,,,,,,,,2,,,61,62
4479,control_change,0,0,1,,,,,,,,,0,64,127,,
4479,note_on,159,0,1,,,,,,,,,0,,,68,0
4479,note_on,0,0,1,,,,,,,,,0,,,66,62
4560,note_on,240,0,2,,,,,,,,,1,,,64,0
4560,set_tempo,240,1,0,,,,,,550459,,,,,,,
4560,note_on,240,0,3,,,,,,,,,2,,,61,0
4560,note_on,0,0,3,,,,,,,,,2,,,58,0
4640,note_on,161,0,1,,,,,,,,,0,,,66,0
4640,note_on,0,0,1,,,,,,,,,0,,,67,62
4800,set_tempo,240,1,0,,,,,,530973,,,,,,,
4800,note_on,160,0,1,,,,,,,,,0,,,67,0
4800,note_on,0,0,1,,,,,,,,,0,,,68,62
4959,note_on,0,0,1,,,,,,,,,0,,,69,75
4959,note_on,159,0,1,,,,,,,,,0,,,68,0
5040,set_tempo,240,1,0,,,,,,517241,,,,,,,
5120,note_on,161,0,1,,,,,,,,,0,,,69,0
5120,control_change,0,0,1,,,,,,,,,0,64,0,,
5120,note_on,0,0,1,,,,,,,,,0,,,70,75
5280,set_tempo,240,1,0,,,,,,504202,,,,,,,
5280,note_on,0,0,1,,,,,,,,,0,,,73,101
5280,note_on,0,0,2,,,,,,,,,1,,,68,62
5280,note_on,160,0,1,,,,,,,,,0,,,70,0
5280,note_on,0,0,3,,,,,,,,,2,,,58,62
5280,note_on,720,0,2,,,,,,,,,1,,,65,62
5280,control_change,720,0,3,,,,,,,,,2,64,127,,
5439,note_on,0,0,3,,,,,,,,,2,,,48,62
5439,note_on,159,0,3,,,,,,,,,2,,,58,0
5520,set_tempo,240,1,0,,,,,,491803,,,,,,,
5600,note_on,0,0,3,,,,,,,,,2,,,58,62
5600,note_on,161,0,3,,,,,,,,,2,,,48,0
5760,note_on,0,0,3,,,,,,,,,2,,,64,62
5760,control_change,160,0,3,,,,,,,,,2,64,0,,
5760,note_on,0,0,2,,,,,,,,,1,,,65,0
5760,set_tempo,240,1,0,,,,,,476190,,,,,,,
5760,note_on,0,0,2,,,,,,,,,1,,,67,49
5760,note_on,480,0,2,,,,,,,,,1,,,68,0
5919,note_on,639,0,1,,,,,,,,,0,,,73,0
5919,control_change,0,0,1,,,,,,,,,0,64,127,,
5919,note_on,0,0,1,,,,,,,,,0,,,71,62
6000,note_on,0,0,3,,,,,,,,,2,,,58,0
6000,note_on,240,0,3,,,,,,,,,2,,,64,0
6000,note_on,240,0,2,,,,,,,,,1,,,67,0
6080,note_on,161,0,1,,,,,,,,,0,,,71,0
6080,note_on,0,0,1,,,,,,,,,0,,,72,62
6240,note_on,0,0,1,,,,,,,,,0,,,73,62
6240,note_on,160,0,1,,,,,,,,,0,,,72,0
6399,note_on,159,0,1,,,,,,,,,0,,,73,0
6399,note_on,0,0,1,,,,,,,,,0,,,76,75
6560,note_on,0,0,1,,,,,,,,,0,,,77,75
6560,control_change,0,0,1,,,,,,,,,0,64,0,,
6560,note_on,161,0,1,,,,,,,,,0,,,76,0
6720,note_on,720,0,2,,,,,,,,,1,,,73,62
6720,note_on,0,0,1,,,,,,,,,0,,,80,101
6720,note_on,160,0,1,,,,,,,,,0,,,77,0
6720,control_change,720,0,3,,,,,,,,,2,64,127,,
6720,note_on,0,0,3,,,,,,,,,2,,,70,62
6720,note_on,0,0,2,,,,,,,,,1,,,77,62
6879,note_on,0,0,3,,,,,,,,,2,,,60,62
6879,note_on,159,0,3,,,,,,,,,2,,,70,0
7040,note_on,0,0,3,,,,,,,,,2,,,70,62
7040,note_on,161,0,3,,,,,,,,,2,,,60,0
7200,note_on,0,0,3,,,,,,,,,2,,,73,62
7200,note_on,0,0,2,,,,,,,,,1,,,76,49
7200,control_change,160,0,3,,,,,,,,,2,64,0,,
7200,note_on,480,0,2,,,,,,,,,1,,,77,0
7200,note_on,0,0,2,,,,,,,,,1,,,73,0
7359,note_on,639,0,1,,,,,,,,,0,,,80,0
7359,note_on,0,0,1,,,,,,,,,0,,,78,62
7359,control_change,0,0,1,,,,,,,,,0,64,127,,
7440,note_on,240,0,3,,,,,,,,,2,,,73,0
7440,note_on,240,0,2,,,,,,,,,1,,,76,0
7440,note_on,0,0,3,,,,,,,,,2,,,70,0
7520,note_on,161,0,1,,,,,,,,,0,,,78,0
7520,note_on,0,0,1,,,,,,,,,0,,,79,62
7680,note_on,160,0,1,,,,,,,,,0,,,79,0
7680,note_on,0,0,1,,,,,,,,,0,,,80,62
7839,note_on,0,0,1,,,,,,,,,0,,,81,75
7839,note_on,159,0,1,,,,,,,,,0,,,80,0
8000,note_on,161,0,1,,,,,,,,,0,,,81,0
8000,note_on,0,0,1,,,,,,,,,0,,,82,75
8000,control_change,0,0,1,,,,,,,,,0,64,0,,
8160,note_on,0,0,2,,,,,,,,,1,,,80,62
8160,note_on,0,0,1,,,,,,,,,0,,,85,101
8160,note_on,0,0,3,,,,,,,,,2,,,70,62
8160,control_change,720,0,3,,,,,,,,,2,64,127,,
8160,note_on,160,0,1,,,,,,,,,0,,,82,0
8160,note_on,720,0,2,,,,,,,,,1,,,77,62
8319,note_on,159,0,3,,,,,,,,,2,,,70,0
8319,note_on,0,0,3,,,,,,,,,2,,,60,62
8480,note_on,0,0,3,,,,,,,,,2,,,70,62
8480,note_on,161,0,3,,,,,,,,,2,,,60,0
8640,note_on,160,0,3,,,,,,,,,2,,,70,0
8640,note_on,0,0,3,,,,,,,,,2,,,76,62
8640,note_on,480,0,2,,,,,,,,,1,,,80,0
8640,note_on,0,0,2,,,,,,,,,1,,,79,62
8640,note_on,0,0,2,,,,,,,,,1,,,77,0
8640,control_change,0,0,3,,,,,,,,,2,64,0,,
8799,note_on,0,0,1,,,,,,,,,0,,,83,88
8799,note_on,639,0,1,,,,,,,,,0,,,85,0
8880,note_on,240,0,3,,,,,,,,,2,,,76,0
8880,note_on,240,0,2,,,,,,,,,1,,,79,0
8960,note_on,0,0,1,,,,,,,,,0,,,84,88
8960,note_on,161,0,1,,,,,,,,,0,,,83,0
9120,note_on,160,0,1,,,,,,,,,0,,,84,0
9120,note_on,240,0,2,,,,,,,,,1,,,77,75
9120,note_on,240,0,3,,,,,,,,,2,,,70,75
9120,note_on,0,0,1,,,,,,,,,0,,,85,88
9120,note_on,0,0,2,,,,,,,,,1,,,80,75
9279,note_on,0,0,3,,,,,,,,,2,,,60,75
9279,note_on,159,0,3,,,,,,,,,2,,,70,0
9440,note_on,161,0,3,,,,,,,,,2,,,60,0
9440,note_on,0,0,3,,,,,,,,,2,,,70,75
9600,note_on,160,0,3,,,,,,,,,2,,,76,75
9600,note_on,0,0,2,,,,,,,,,1,,,79,75
9600,note_on,0,0,2,,,,,,,,,1,,,77,0
9600,note_on,480,0,2,,,,,,,,,1,,,80,0
9759,note_on,0,0,1,,,,,,,,,0,,,84,88
9759,note_on,639,0,1,,,,,,,,,0,,,85,0
9920,note_on,0,0,2,,,,,,,,,1,,,78,75
9920,note_on,320,0,3,,,,,,,,,2,,,76,0
9920,note_on,320,0,2,,,,,,,,,1,,,79,0
9920,note_on,0,0,3,,,,,,,,,2,,,69,75
9920,note_on,0,0,3,,,,,,,,,2,,,75,75
9920,control_change,0,0,3,,,,,,,,,2,64,127,,
9920,note_on,0,0,3,,,,,,,,,2,,,70,0
9920,note_on,161,0,1,,,,,,,,,0,,,84,0
9920,note_on,0,0,1,,,,,,,,,0,,,83,88
10080,note_on,0,0,3,,,,,,,,,2,,,70,62
10080,note_on,0,0,2,,,,,,,,,1,,,77,75
10080,note_on,0,0,3,,,,,,,,,2,,,69,0
10080,note_on,0,0,3,,,,,,,,,2,,,74,62
10080,note_on,160,0,2,,,,,,,,,1,,,78,0
10080,note_on,160,0,3,,,,,,,,,2,,,75,0
10239,note_on,0,0,1,,,,,,,,,0,,,82,75
10239,note_on,319,0,1,,,,,,,,,0,,,83,0
10400,note_on,0,0,3,,,,,,,,,2,,,67,62
10400,note_on,0,0,3,,,,,,,,,2,,,70,0
10400,note_on,0,0,1,,,,,,,,,0,,,81,75
10400,note_on,320,0,2,,,,,,,,,1,,,77,0
10400,note_on,0,0,3,,,,,,,,,2,,,73,62
10400,note_on,320,0,3,,,,,,,,,2,,,74,0
10400,note_on,0,0,2,,,,,,,,,1,,,76,62
10400,note_on,161,0,1,,,,,,,,,0,,,82,0
10560,note_on,160,0,2,,,,,,,,,1,,,76,0
10560,note_on,0,0,3,,,,,,,,,2,,,72,62
10560,note_on,0,0,3,,,,,,,,,2,,,67,0
10560,note_on,160,0,3,,,,,,,,,2,,,73,0
10560,note_on,0,0,2,,,,,,,,,1,,,75,62
10560,note_on,0,0,3,,,,,,,,,2,,,68,62
10719,note_on,319,0,1,,,,,,,,,0,,,81,0
10719,note_on,0,0,1,,,,,,,,,0,,,80,75
10880,note_on,161,0,1,,,,,,,,,0,,,80,0
10880,note_on,0,0,3,,,,,,,,,2,,,65,62
10880,note_on,320,0,3,,,,,,,,,2,,,72,0
10880,note_on,320,0,2,,,,,,,,,1,,,75,0
10880,note_on,0,0,3,,,,,,,,,2,,,71,62
10880,note_on,0,0,1,,,,,,,,,0,,,79,75
10880,note_on,0,0,2,,,,,,,,,1,,,74,62
10880,note_on,0,0,3,,,,,,,,,2,,,68,0
11040,note_on,0,0,3,,,,,,,,,2,,,70,62
11040,note_on,160,0,2,,,,,,,,,1,,,74,0
11040,note_on,0,0,3,,,,,,,,,2,,,66,62
11040,note_on,0,0,3,,,,,,,,,2,,,65,0
11040,note_on,160,0,3,,,,,,,,,2,,,71,0
11040,note_on,0,0,2,,,,,,,,,1,,,73,62
11199,note_on,319,0,1,,,,,,,,,0,,,79,0
11199,note_on,0,0,1,,,,,,,,,0,,,78,75
11360,note_on,320,0,3,,,,,,,,,2,,,70,0
11360,note_on,161,0,1,,,,,,,,,0,,,78,0
11360,note_on,320,0,2,,,,,,,,,1,,,73,0
11360,note_on,0,0,3,,,,,,,,,2,,,69,62
11360,note_on,0,0,1,,,,,,,,,0,,,77,75
11360,note_on,0,0,2,,,,,,,,,1,,,72,62
11360,note_on,0,0,3,,,,,,,,,2,,,66,0
11360,note_on,0,0,3,,,,,,,,,2,,,63,62
11520,note_on,160,0,2,,,,,,,,,1,,,72,0
11520,note_on,0,0,2,,,,,,,,,1,,,71,62
11520,note_on,0,0,3,,,,,,,,,2,,,68,49
11520,note_on,0,0,3,,,,,,,,,2,,,63,0
11520,note_on,0,0,3,,,,,,,,,2,,,64,49
11520,note_on,160,0,3,,,,,,,,,2,,,69,0
11679,note_on,0,0,1,,,,,,,,,0,,,76,62
11679,note_on,319,0,1,,,,,,,,,0,,,77,0
11840,note_on,0,0,3,,,,,,,,,2,,,64,0
11840,note_on,0,0,3,,,,,,,,,2,,,67,49
11840,note_on,0,0,1,,,,,,,,,0,,,75,62
11840,note_on,0,0,3,,,,,,,,,2,,,61,49
11840,note_on,0,0,2,,,,,,,,,1,,,70,49
11840,note_on,320,0,3,,,,,,,,,2,,,68,0
11840,note_on,161,0,1,,,,,,,,,0,,,76,0
11840,note_on,320,0,2,,,,,,,,,1,,,71,0
12000,note_on,160,0,3,,,,,,,,,2,,,67,0
12000,note_on,0,0,2,,,,,,,,,1,,,69,49
12000,note_on,0,0,3,,,,,,,,,2,,,66,49
12000,note_on,0,0,3,,,,,,,,,2,,,62,49
12000,note_on,0,0,3,,,,,,,,,2,,,61,0
12000,note_on,160,0,2,,,,,,,,,1,,,70,0
12159,note_on,0,0,1,,,,,,,,,0,,,74,62
12159,note_on,319,0,1,,,,,,,,,0,,,75,0
12320,note_on,0,0,1,,,,,,,,,0,,,73,62
12320,note_on,0,0,2,,,,,,,,,1,,,68,49
12320,note_on,320,0,2,,,,,,,,,1,,,69,0
12320,note_on,0,0,3,,,,,,,,,2,,,62,0
12320,note_on,0,0,3,,,,,,,,,2,,,65,49
12320,note_on,320,0,3,,,,,,,,,2,,,66,0
12320,note_on,161,0,1,,,,,,,,,0,,,74,0
12320,note_on,0,0,3,,,,,,,,,2,,,59,49
12480,note_on,160,0,3,,,,,,,,,2,,,65,0
12480,note_on,160,0,2,,,,,,,,,1,,,68,0
12480,note_on,0,0,2,,,,,,,,,1,,,67,49
12480,note_on,0,0,3,,,,,,,,,2,,,59,0
12480,control_change,0,0,3,,,,,,,,,2,64,0,,
12480,note_on,0,0,3,,,,,,,,,2,,,64,49
12480,note_on,0,0,3,,,,,,,,,2,,,60,49
12639,note_on,319,0,1,,,,,,,,,0,,,73,0
12639,note_on,0,0,1,,,,,,,,,0,,,71,62
12720,set_tempo,6960,1,0,,,,,,500000,,,,,,,
12800,note_on,0,0,1,,,,,,,,,0,,,72,62
12800,note_on,161,0,1,,,,,,,,,0,,,71,0
12960,note_on,0,0,1,,,,,,,,,0,,,73,62
12960,note_on,480,0,3,,,,,,,,,2,,,64,0
12960,set_tempo,0,1,0,,,,,,526316,,,,,,,
12960,note_on,480,0,2,,,,,,,,,1,,,67,0
12960,note_on,160,0,1,,,,,,,,,0,,,72,0
12960,time_signature,240,1,0,4,4,24,8,,,,,,,,,
12960,note_on,0,0,3,,,,,,,,,2,,,60,0
13119,note_on,0,0,1,,,,,,,,,0,,,71,62
13119,note_on,159,0,1,,,,,,,,,0,,,73,0
13200,set_tempo,240,1,0,,,,,,555556,,,,,,,
13280,note_on,0,0,1,,,,,,,,,0,,,72,62
13280,note_on,161,0,1,,,,,,,,,0,,,71,0
13440,set_tempo,240,1,0,,,,,,600000,,,,,,,
13440,note_on,0,0,1,,,,,,,,,0,,,73,62
13440,note_on,0,0,3,,,,,,,,,2,,,64,49
13440,note_on,480,0,3,,,,,,,,,2,,,58,49
13440,note_on,0,0,3,,,,,,,,,2,,,67,49
13440,note_on,160,0,1,,,,,,,,,0,,,72,0
13599,note_on,0,0,1,,,,,,,,,0,,,71,62
13599,note_on,159,0,1,,,,,,,,,0,,,73,0
13680,set_tempo,240,1,0,,,,,,638298,,,,,,,
13760,note_on,161,0,1,,,,,,,,,0,,,71,0
13760,note_on,0,0,1,,,,,,,,,0,,,72,62
13839,note_on,0,0,1,,,,,,,,,0,,,72,62
13839,note_on,79,0,1,,,,,,,,,0,,,72,0
13880,note_on,0,0,1,,,,,,,,,0,,,75,62
13880,note_on,41,0,1,,,,,,,,,0,,,72,0
13920,note_on,0,0,1,,,,,,,,,0,,,73,62
13920,set_tempo,240,1,0,,,,,,681818,,,,,,,
13920,note_on,40,0,1,,,,,,,,,0,,,75,0
14160,set_tempo,240,1,0,,,,,,731707,,,,,,,
14160,note_on,0,0,1,,,,,,,,,0,,,71,62
14160,note_on,240,0,1,,,,,,,,,0,,,73,0
14400,set_tempo,240,1,0,,,,,,810811,,,,,,,
14760,note_on,0,0,1,,,,,,,,,0,,,72,62
14760,note_on,600,0,1,,,,,,,,,0,,,71,0
14880,note_on,0,0,3,,,,,,,,,2,,,58,0
14880,note_on,1440,0,3,,,,,,,,,2,,,67,0
14880,note_on,0,0,3,,,,,,,,,2,,,64,0
14880,note_on,120,0,1,,,,,,,,,0,,,72,0
14880,note_on,0,0,3,,,,,,,,,2,,,56,49
14880,control_change,0,0,3,,,,,,,,,2,64,127,,
14880,set_tempo,0,1,0,,,,,,480000,,,,,,,
14880,note_on,0,0,1,,,,,,,,,0,,,72,62
14880,control_change,0,0,1,,,,,,,,,0,64,127,,
14880,time_signature,480,1,0,3,4,24,8,,,,,,,,,
15039,note_on,0,0,3,,,,,,,,,2,,,65,49
15039,note_on,159,0,1,,,,,,,,,0,,,72,0
15039,note_on,0,0,1,,,,,,,,,0,,,76,62
15039,note_on,159,0,3,,,,,,,,,2,,,56,0
15200,note_on,161,0,1,,,,,,,,,0,,,76,0
15200,note_on,0,0,3,,,,,,,,,2,,,60,49
15200,note_on,0,0,1,,,,,,,,,0,,,77,62
15200,note_on,161,0,3,,,,,,,,,2,,,65,0
15360,note_on,160,0,3,,,,,,,,,2,,,60,0
15360,note_on,160,0,1,,,,,,,,,0,,,77,0
15360,note_on,0,0,1,,,,,,,,,0,,,75,62
15360,note_on,0,0,3,,,,,,,,,2,,,55,49
15519,note_on,159,0,1,,,,,,,,,0,,,75,0
15519,note_on,159,0,3,,,,,,,,,2,,,55,0
15519,note_on,0,0,3,,,,,,,,,2,,,63,49
15519,note_on,0,0,1,,,,,,,,,0,,,69,62
15680,note_on,161,0,1,,,,,,,,,0,,,69,0
15680,note_on,0,0,3,,,,,,,,,2,,,58,49
15680,note_on,161,0,3,,,,,,,,,2,,,63,0
15680,note_on,0,0,1,,,,,,,,,0,,,70,62
15840,note_on,160,0,3,,,,,,,,,2,,,58,0
15840,note_on,0,0,1,,,,,,,,,0,,,73,62
15840,control_change,0,0,1,,,,,,,,,0,64,0,,
15840,note_on,160,0,1,,,,,,,,,0,,,70,0
15840,note_on,0,0,3,,,,,,,,,2,,,53,49
15999,note_on,0,0,3,,,,,,,,,2,,,61,49
15999,note_on,159,0,3,,,,,,,,,2,,,53,0
16160,note_on,0,0,3,,,,,,,,,2,,,56,49
16160,note_on,161,0,3,,,,,,,,,2,,,61,0
16160,control_change,0,0,3,,,,,,,,,2,64,0,,
16320,control_change,480,0,1,,,,,,,,,0,64,127,,
16320,note_on,0,0,3,,,,,,,,,2,,,52,49
16320,note_on,160,0,3,,,,,,,,,2,,,56,0
16320,control_change,0,0,3,,,,,,,,,2,64,127,,
16479,note_on,159,0,1,,,,,,,,,0,,,73,0
16479,note_on,0,0,3,,,,,,,,,2,,,60,49
16479,note_on,159,0,3,,,,,,,,,2,,,52,0
16479,note_on,0,0,1,,,,,,,,,0,,,72,62
16640,note_on,161,0,1,,,,,,,,,0,,,72,0
16640,note_on,0,0,3,,,,,,,,,2,,,55,49
16640,note_on,161,0,3,,,,,,,,,2,,,60,0
16640,note_on,0,0,1,,,,,,,,,0,,,71,62
16800,note_on,160,0,3,,,,,,,,,2,,,55,0
16800,note_on,160,0,1,,,,,,,,,0,,,71,0
16800,note_on,0,0,3,,,,,,,,,2,,,51,49
16800,note_on,0,0,1,,,,,,,,,0,,,72,62
16959,note_on,0,0,1,,,,,,,,,0,,,66,62
16959,note_on,159,0,3,,,,,,,,,2,,,51,0
16959,note_on,0,0,3,,,,,,,,,2,,,60,49
16959,note_on,159,0,1,,,,,,,,,0,,,72,0
17120,note_on,161,0,3,,,,,,,,,2,,,60,0
17120,note_on,161,0,1,,,,,,,,,0,,,66,0
17120,note_on,0,0,1,,,,,,,,,0,,,65,62
17120,note_on,0,0,3,,,,,,,,,2,,,57,49
17220,note_on,100,0,1,,,,,,,,,0,,,67,62
17280,note_on,0,0,1,,,,,,,,,0,,,65,62
17280,note_on,0,0,3,,,,,,,,,2,,,50,49
17280,note_on,60,0,1,,,,,,,,,0,,,67,0
17280,note_on,0,0,1,,,,,,,,,0,,,65,0
17280,note_on,160,0,3,,,,,,,,,2,,,57,0
17439,note_on,0,0,1,,,,,,,,,0,,,64,62
17439,note_on,0,0,3,,,,,,,,,2,,,58,49
17439,note_on,159,0,1,,,,,,,,,0,,,65,0
17439,note_on,159,0,3,,,,,,,,,2,,,50,0
17600,control_change,0,0,3,,,,,,,,,2,64,0,,
17600,note_on,0,0,1,,,,,,,,,0,,,65,62
17600,control_change,0,0,1,,,,,,,,,0,64,0,,
17600,note_on,0,0,3,,,,,,,,,2,,,53,49
17600,note_on,161,0,3,,,,,,,,,2,,,58,0
17600,note_on,161,0,1,,,,,,,,,0,,,64,0
17760,note_on,0,0,1,,,,,,,,,0,,,68,62
17760,control_change,0,0,1,,,,,,,,,0,64,127,,
17760,control_change,0,0,3,,,,,,,,,2,64,127,,
17760,note_on,0,0,3,,,,,,,,,2,,,49,49
17760,note_on,160,0,1,,,,,,,,,0,,,65,0
17760,note_on,160,0,3,,,,,,,,,2,,,53,0
17919,note_on,159,0,3,,,,,,,,,2,,,49,0
17919,note_on,0,0,3,,,,,,,,,2,,,59,49
17919,note_on,159,0,1,,,,,,,,,0,,,68,0
17919,note_on,0,0,1,,,,,,,,,0,,,64,62
18080,note_on,161,0,1,,,,,,,,,0,,,64,0
18080,note_on,161,0,3,,,,,,,,,2,,,59,0
18080,note_on,0,0,3,,,,,,,,,2,,,53,49
18080,note_on,0,0,1,,,,,,,,,0,,,65,62
18240,note_on,0,0,3,,,,,,,,,2,,,48,49
18240,note_on,160,0,3,,,,,,,,,2,,,53,0
18240,note_on,160,0,1,,,,,,,,,0,,,65,0
18240,note_on,0,0,1,,,,,,,,,0,,,67,62
18399,note_on,159,0,1,,,,,,,,,0,,,67,0
18399,note_on,0,0,3,,,,,,,,,2,,,60,49
18399,note_on,159,0,3,,,,,,,,,2,,,48,0
18399,note_on,0,0,1,,,,,,,,,0,,,71,62
18560,note_on,161,0,1,,,,,,,,,0,,,71,0
18560,note_on,161,0,3,,,,,,,,,2,,,60,0
18560,note_on,0,0,3,,,,,,,,,2,,,52,49
18560,note_on,0,0,1,,,,,,,,,0,,,72,62
18720,note_on,0,0,1,,,,,,,,,0,,,73,62
18720,note_on,160,0,1,,,,,,,,,0,,,72,0
18720,note_on,160,0,3,,,,,,,,,2,,,52,0
18720,note_on,0,0,3,,,,,,,,,2,,,46,49
18879,note_on,0,0,3,,,,,,,,,2,,,60,49
18879,note_on,159,0,1,,,,,,,,,0,,,73,0
18879,note_on,159,0,3,,,,,,,,,2,,,46,0
18879,note_on,0,0,1,,,,,,,,,0,,,71,62
19040,note_on,161,0,3,,,,,,,,,2,,,60,0
19040,note_on,0,0,1,,,,,,,,,0,,,72,62
19040,note_on,0,0,3,,,,,,,,,2,,,52,49
19040,control_change,0,0,3,,,,,,,,,2,64,0,,
19040,control_change,0,0,1,,,,,,,,,0,64,0,,
19040,note_on,161,0,1,,,,,,,,,0,,,71,0
19200,control_change,0,0,1,,,,,,,,,0,64,127,,
19200,note_on,0,0,3,,,,,,,,,2,,,44,49
19200,note_on,160,0,3,,,,,,,,,2,,,52,0
19200,note_on,160,0,1,,,,,,,,,0,,,72,0
19200,note_on,0,0,1,,,,,,,,,0,,,72,62
19200,control_change,0,0,3,,,,,,,,,2,64,127,,
19359,note_on,159,0,3,,,,,,,,,2,,,44,0
19359,note_on,159,0,1,,,,,,,,,0,,,72,0
19359,note_on,0,0,3,,,,,,,,,2,,,60,49
19359,note_on,0,0,1,,,,,,,,,0,,,76,62
19520,note_on,0,0,3,,,,,,,,,2,,,56,49
19520,note_on,161,0,1,,,,,,,,,0,,,76,0
19520,note_on,161,0,3,,,,,,,,,2,,,60,0
19520,note_on,6560,0,2,,,,,,,,,1,,,65,49
19520,note_on,0,0,1,,,,,,,,,0,,,77,62
19680,note_on,160,0,1,,,,,,,,,0,,,77,0
19680,note_on,0,0,1,,,,,,,,,0,,,75,62
19680,note_on,160,0,3,,,,,,,,,2,,,56,0
19680,note_on,160,0,2,,,,,,,,,1,,,65,0
19680,note_on,0,0,3,,,,,,,,,2,,,43,49
19839,note_on,159,0,3,,,,,,,,,2,,,43,0
19839,note_on,159,0,1,,,,,,,,,0,,,75,0
19839,note_on,0,0,1,,,,,,,,,0,,,69,62
19839,note_on,0,0,3,,,,,,,,,2,,,58,49
20000,note_on,0,0,1,,,,,,,,,0,,,70,62
20000,note_on,320,0,2,,,,,,,,,1,,,63,49
20000,note_on,161,0,3,,,,,,,,,2,,,58,0
20000,note_on,161,0,1,,,,,,,,,0,,,69,0
20000,note_on,0,0,3,,,,,,,,,2,,,55,49
20160,note_on,0,0,1,,,,,,,,,0,,,73,62
20160,note_on,160,0,1,,,,,,,,,0,,,70,0
20160,note_on,160,0,3,,,,,,,,,2,,,55,0
20160,control_change,0,0,1,,,,,,,,,0,64,0,,
20160,note_on,0,0,3,,,,,,,,,2,,,41,49
20160,note_on,160,0,2,,,,,,,,,1,,,63,0
20319,note_on,0,0,3,,,,,,,,,2,,,56,49
20319,note_on,159,0,3,,,,,,,,,2,,,41,0
20480,note_on,320,0,2,,,,,,,,,1,,,61,49
20480,note_on,161,0,3,,,,,,,,,2,,,56,0
20480,control_change,0,0,3,,,,,,,,,2,64,0,,
20480,note_on,0,0,3,,,,,,,,,2,,,53,49
20640,note_on,160,0,2,,,,,,,,,1,,,61,0
20640,control_change,480,0,1,,,,,,,,,0,64,127,,
20640,note_on,160,0,3,,,,,,,,,2,,,53,0
20640,note_on,0,0,3,,,,,,,,,2,,,40,49
20640,control_change,0,0,3,,,,,,,,,2,64,127,,
20799,note_on,0,0,3,,,,,,,,,2,,,55,49
20799,note_on,159,0,1,,,,,,,,,0,,,73,0
20799,note_on,159,0,3,,,,,,,,,2,,,40,0
20799,note_on,0,0,1,,,,,,,,,0,,,72,62
20960,note_on,161,0,1,,,,,,,,,0,,,72,0
20960,note_on,0,0,1,,,,,,,,,0,,,71,62
20960,note_on,0,0,3,,,,,,,,,2,,,60,49
20960,note_on,161,0,3,,,,,,,,,2,,,55,0
21120,note_on,160,0,3,,,,,,,,,2,,,60,0
21120,note_on,0,0,1,,,,,,,,,0,,,72,62
21120,note_on,160,0,1,,,,,,,,,0,,,71,0
21120,note_on,0,0,3,,,,,,,,,2,,,39,49
21279,note_on,0,0,1,,,,,,,,,0,,,66,62
21279,note_on,0,0,3,,,,,,,,,2,,,57,49
21279,note_on,159,0,1,,,,,,,,,0,,,72,0
21279,note_on,159,0,3,,,,,,,,,2,,,39,0
21440,note_on,0,0,3,,,,,,,,,2,,,60,49
21440,note_on,161,0,3,,,,,,,,,2,,,57,0
21440,note_on,161,0,1,,,,,,,,,0,,,66,0
21440,note_on,0,0,1,,,,,,,,,0,,,65,62
21600,note_on,160,0,3,,,,,,,,,2,,,60,0
21600,note_on,160,0,1,,,,,,,,,0,,,65,0
21600,note_on,0,0,3,,,,,,,,,2,,,37,49
21600,note_on,0,0,1,,,,,,,,,0,,,71,62
21759,note_on,159,0,1,,,,,,,,,0,,,71,0
21759,note_on,159,0,3,,,,,,,,,2,,,37,0
21759,note_on,0,0,1,,,,,,,,,0,,,80,88
21791,note_on,32,0,1,,,,,,,,,0,,,80,0
21920,note_on,0,0,3,,,,,,,,,2,,,49,49
21920,control_change,161,0,3,,,,,,,,,2,64,0,,
21920,control_change,129,0,1,,,,,,,,,0,64,0,,
22080,time_signature,7200,1,0,4,4,24,8,,,,,,,,,
22080,note_on,0,0,3,,,,,,,,,2,,,58,49
22080,note_on,160,0,3,,,,,,,,,2,,,49,0
22080,control_change,0,0,3,,,,,,,,,2,64,127,,
22239,note_on,159,0,3,,,,,,,,,2,,,58,0
22239,note_on,0,0,3,,,,,,,,,2,,,65,49
22400,note_on,0,0,3,,,,,,,,,2,,,68,49
22400,note_on,161,0,3,,,,,,,,,2,,,65,0
22560,note_on,0,0,1,,,,,,,,,0,,,76,88
22560,control_change,640,0,1,,,,,,,,,0,64,127,,
22560,note_on,160,0,3,,,,,,,,,2,,,68,0
22719,note_on,0,0,1,,,,,,,,,0,,,77,62
22719,note_on,159,0,1,,,,,,,,,0,,,76,0
22880,note_on,161,0,1,,,,,,,,,0,,,77,0
22880,note_on,0,0,1,,,,,,,,,0,,,72,62
23040,note_on,160,0,1,,,,,,,,,0,,,72,0
23040,note_on,0,0,1,,,,,,,,,0,,,73,62
23199,note_on,0,0,1,,,,,,,,,0,,,64,62
23199,note_on,159,0,1,,,,,,,,,0,,,73,0
23360,note_on,0,0,1,,,,,,,,,0,,,65,62
23360,note_on,161,0,1,,,,,,,,,0,,,64,0
23520,note_on,160,0,1,,,,,,,,,0,,,65,0
23520,control_change,960,0,3,,,,,,,,,2,64,0,,
23520,note_on,0,0,1,,,,,,,,,0,,,68,88
23520,note_on,0,0,3,,,,,,,,,2,,,49,49
23520,note_on,0,0,3,,,,,,,,,2,,,59,49
23520,note_on,2880,0,2,,,,,,,,,1,,,65,49
23551,note_on,31,0,1,,,,,,,,,0,,,68,0
23679,note_on,128,0,1,,,,,,,,,0,,,66,62
23760,note_on,240,0,2,,,,,,,,,1,,,65,0
23840,note_on,161,0,1,,,,,,,,,0,,,66,0
23840,control_change,0,0,1,,,,,,,,,0,64,0,,
23840,note_on,0,0,1,,,,,,,,,0,,,67,62
24000,time_signature,1920,1,0,3,4,24,8,,,,,,,,,
24000,note_on,0,0,3,,,,,,,,,2,,,48,49
24000,note_on,0,0,1,,,,,,,,,0,,,68,62
24000,note_on,240,0,2,,,,,,,,,1,,,64,49
24000,note_on,0,0,3,,,,,,,,,2,,,49,0
24000,note_on,160,0,1,,,,,,,,,0,,,67,0
24000,control_change,0,0,1,,,,,,,,,0,64,127,,
24000,note_on,0,0,3,,,,,,,,,2,,,58,49
24000,note_on,480,0,3,,,,,,,,,2,,,59,0
24159,note_on,159,0,1,,,,,,,,,0,,,68,0
24159,note_on,0,0,1,,,,,,,,,0,,,69,62
24320,note_on,161,0,1,,,,,,,,,0,,,69,0
24320,note_on,0,0,1,,,,,,,,,0,,,70,62
24480,note_on,480,0,2,,,,,,,,,1,,,64,0
24480,note_on,160,0,1,,,,,,,,,0,,,70,0
24480,note_on,0,0,3,,,,,,,,,2,,,48,0
24480,note_on,0,0,1,,,,,,,,,0,,,73,88
24480,note_on,480,0,3,,,,,,,,,2,,,58,0
24511,note_on,31,0,1,,,,,,,,,0,,,73,0
24639,note_on,128,0,1,,,,,,,,,0,,,64,62
24800,note_on,161,0,1,,,,,,,,,0,,,64,0
24800,note_on,0,0,1,,,,,,,,,0,,,65,62
24960,note_on,0,0,3,,,,,,,,,2,,,59,49
24960,note_on,480,0,3,,,,,,,,,2,,,49,49
24960,note_on,0,0,1,,,,,,,,,0,,,68,88
24960,note_on,480,0,2,,,,,,,,,1,,,65,49
24960,note_on,160,0,1,,,,,,,,,0,,,65,0
24991,note_on,31,0,1,,,,,,,,,0,,,68,0
25119,note_on,128,0,1,,,,,,,,,0,,,66,62
25200,note_on,240,0,2,,,,,,,,,1,,,65,0
25280,note_on,161,0,1,,,,,,,,,0,,,66,0
25280,control_change,0,0,1,,,,,,,,,0,64,0,,
25280,note_on,0,0,1,,,,,,,,,0,,,67,62
25440,note_on,240,0,2,,,,,,,,,1,,,64,49
25440,control_change,0,0,1,,,,,,,,,0,64,127,,
25440,note_on,0,0,3,,,,,,,,,2,,,48,49
25440,note_on,0,0,3,,,,,,,,,2,,,58,49
25440,note_on,0,0,1,,,,,,,,,0,,,68,62
25440,note_on,0,0,3,,,,,,,,,2,,,49,0
25440,note_on,480,0,3,,,,,,,,,2,,,59,0
25440,note_on,160,0,1,,,,,,,,,0,,,67,0
25599,note_on,0,0,1,,,,,,,,,0,,,69,62
25599,note_on,159,0,1,,,,,,,,,0,,,68,0
25760,note_on,161,0,1,,,,,,,,,0,,,69,0
25760,note_on,0,0,1,,,,,,,,,0,,,70,62
25920,note_on,0,0,3,,,,,,,,,2,,,48,0
25920,note_on,0,0,1,,,,,,,,,0,,,73,62
25920,note_on,480,0,2,,,,,,,,,1,,,64,0
25920,note_on,480,0,3,,,,,,,,,2,,,58,0
25920,note_on,160,0,1,,,,,,,,,0,,,70,0
26079,note_on,159,0,1,,,,,,,,,0,,,73,0
26079,note_on,0,0,1,,,,,,,,,0,,,71,62
26240,note_on,0,0,1,,,,,,,,,0,,,72,62
26240,note_on,161,0,1,,,,,,,,,0,,,71,0
26400,note_on,160,0,1,,,,,,,,,0,,,72,0
26400,note_on,0,0,1,,,,,,,,,0,,,73,62
26559,note_on,159,0,1,,,,,,,,,0,,,73,0
26559,note_on,0,0,1,,,,,,,,,0,,,76,62
26720,note_on,0,0,1,,,,,,,,,0,,,77,62
26720,note_on,161,0,1,,,,,,,,,0,,,76,0
26720,control_change,0,0,1,,,,,,,,,0,64,0,,
26880,control_change,0,0,1,,,,,,,,,0,64,127,,
26880,note_on,0,0,1,,,,,,,,,0,,,80,62
26880,note_on,160,0,1,,,,,,,,,0,,,77,0
27039,note_on,159,0,1,,,,,,,,,0,,,80,0
27039,note_on,0,0,1,,,,,,,,,0,,,78,62
27200,note_on,0,0,1,,,,,,,,,0,,,79,62
27200,note_on,161,0,1,,,,,,,,,0,,,78,0
27360,note_on,0,0,1,,,,,,,,,0,,,80,62
27360,note_on,160,0,1,,,,,,,,,0,,,79,0
27519,note_on,0,0,1,,,,,,,,,0,,,81,62
27519,note_on,159,0,1,,,,,,,,,0,,,80,0
27680,note_on,161,0,1,,,,,,,,,0,,,81,0
27680,note_on,0,0,1,,,,,,,,,0,,,82,62
27840,note_on,160,0,1,,,,,,,,,0,,,82,0
27840,note_on,0,0,1,,,,,,,,,0,,,85,75
27999,note_on,159,0,1,,,,,,,,,0,,,85,0
27999,note_on,0,0,1,,,,,,,,,0,,,83,75
28080,set_tempo,4080,1,0,,,,,,504202,,,,,,,
28160,note_on,0,0,1,,,,,,,,,0,,,84,75
28160,note_on,161,0,1,,,,,,,,,0,,,83,0
28160,control_change,0,0,1,,,,,,,,,0,64,0,,
28320,set_tempo,240,1,0,,,,,,530973,,,,,,,
28320,note_on,160,0,1,,,,,,,,,0,,,84,0
28320,note_on,0,0,1,,,,,,,,,0,,,85,75
28320,control_change,0,0,1,,,,,,,,,0,64,127,,
28479,note_on,0,0,1,,,,,,,,,0,,,83,75
28479,note_on,159,0,1,,,,,,,,,0,,,85,0
28560,set_tempo,240,1,0,,,,,,560748,,,,,,,
28640,note_on,161,0,1,,,,,,,,,0,,,83,0
28640,note_on,0,0,1,,,,,,,,,0,,,84,75
28800,set_tempo,240,1,0,,,,,,606061,,,,,,,
28800,note_on,160,0,1,,,,,,,,,0,,,84,0
28800,note_on,0,0,1,,,,,,,,,0,,,85,75
28959,note_on,159,0,1,,,,,,,,,0,,,85,0
28959,note_on,0,0,1,,,,,,,,,0,,,83,75
29040,set_tempo,240,1,0,,,,,,645161,,,,,,,
29120,note_on,0,0,1,,,,,,,,,0,,,84,75
29120,note_on,161,0,1,,,,,,,,,0,,,83,0
29199,note_on,79,0,1,,,,,,,,,0,,,84,0
29199,note_on,0,0,1,,,,,,,,,0,,,84,75
29240,note_on,41,0,1,,,,,,,,,0,,,84,0
29240,note_on,0,0,1,,,,,,,,,0,,,87,75
29280,control_change,3360,0,3,,,,,,,,,2,64,127,,
29280,note_on,40,0,1,,,,,,,,,0,,,87,0
29280,note_on,0,0,3,,,,,,,,,2,,,70,62
29280,set_tempo,240,1,0,,,,,,689655,,,,,,,
29280,note_on,0,0,1,,,,,,,,,0,,,85,75
29439,note_on,0,0,1,,,,,,,,,0,,,83,75
29439,note_on,159,0,1,,,,,,,,,0,,,85,0
29439,note_on,159,0,3,,,,,,,,,2,,,70,0
29439,note_on,0,0,3,,,,,,,,,2,,,79,62
29520,set_tempo,240,1,0,,,,,,740741,,,,,,,
29600,note_on,0,0,3,,,,,,,,,2,,,76,62
29600,control_change,0,0,3,,,,,,,,,2,64,0,,
29600,note_on,161,0,3,,,,,,,,,2,,,79,0
29679,note_on,240,0,1,,,,,,,,,0,,,83,0
29679,control_change,0,0,1,,,,,,,,,0,64,0,,
29679,note_on,0,0,1,,,,,,,,,0,,,84,75
29760,note_on,0,0,3,,,,,,,,,2,,,68,62
29760,control_change,0,0,3,,,,,,,,,2,64,127,,
29760,note_on,81,0,1,,,,,,,,,0,,,84,0
29760,control_change,0,0,1,,,,,,,,,0,64,127,,
29760,note_on,160,0,3,,,,,,,,,2,,,76,0
29760,set_tempo,240,1,0,,,,,,512821,,,,,,,
29760,note_on,0,0,1,,,,,,,,,0,,,84,75
29919,note_on,159,0,1,,,,,,,,,0,,,84,0
29919,note_on,159,0,3,,,,,,,,,2,,,68,0
29919,note_on,0,0,1,,,,,,,,,0,,,88,75
29919,note_on,0,0,3,,,,,,,,,2,,,77,62
30080,note_on,0,0,1,,,,,,,,,0,,,89,75
30080,note_on,161,0,3,,,,,,,,,2,,,77,0
30080,note_on,161,0,1,,,,,,,,,0,,,88,0
30080,note_on,0,0,3,,,,,,,,,2,,,72,62
30240,note_on,160,0,1,,,,,,,,,0,,,89,0
30240,note_on,0,0,3,,,,,,,,,2,,,67,62
30240,note_on,160,0,3,,,,,,,,,2,,,72,0
30240,note_on,0,0,1,,,,,,,,,0,,,87,75
30399,note_on,159,0,3,,,,,,,,,2,,,67,0
30399,note_on,0,0,1,,,,,,,,,0,,,81,75
30399,note_on,0,0,3,,,,,,,,,2,,,75,62
30399,note_on,159,0,1,,,,,,,,,0,,,87,0
30560,note_on,161,0,1,,,,,,,,,0,,,81,0
30560,note_on,0,0,1,,,,,,,,,0,,,82,75
30560,note_on,0,0,3,,,,,,,,,2,,,70,62
30560,note_on,161,0,3,,,,,,,,,2,,,75,0
30720,control_change,0,0,1,,,,,,,,,0,64,0,,
30720,note_on,0,0,3,,,,,,,,,2,,,65,62
30720,note_on,0,0,1,,,,,,,,,0,,,85,101
30720,note_on,160,0,3,,,,,,,,,2,,,70,0
30720,note_on,160,0,1,,,,,,,,,0,,,82,0
30879,note_on,0,0,3,,,,,,,,,2,,,73,62
30879,note_on,159,0,3,,,,,,,,,2,,,65,0
31040,control_change,0,0,3,,,,,,,,,2,64,0,,
31040,note_on,161,0,3,,,,,,,,,2,,,73,0
31040,note_on,0,0,3,,,,,,,,,2,,,68,62
31200,control_change,0,0,3,,,,,,,,,2,64,127,,
31200,control_change,480,0,1,,,,,,,,,0,64,127,,
31200,note_on,160,0,3,,,,,,,,,2,,,68,0
31200,note_on,0,0,3,,,,,,,,,2,,,64,62
31359,note_on,0,0,1,,,,,,,,,0,,,84,75
31359,note_on,159,0,1,,,,,,,,,0,,,85,0
31359,note_on,159,0,3,,,,,,,,,2,,,64,0
31359,note_on,0,0,3,,,,,,,,,2,,,72,62
31520,note_on,0,0,1,,,,,,,,,0,,,83,75
31520,note_on,0,0,3,,,,,,,,,2,,,67,62
31520,note_on,161,0,1,,,,,,,,,0,,,84,0
31520,note_on,161,0,3,,,,,,,,,2,,,72,0
31680,note_on,0,0,1,,,,,,,,,0,,,84,75
31680,note_on,160,0,3,,,,,,,,,2,,,67,0
31680,note_on,0,0,3,,,,,,,,,2,,,63,62
31680,note_on,160,0,1,,,,,,,,,0,,,83,0
31839,note_on,0,0,3,,,,,,,,,2,,,72,62
31839,note_on,159,0,3,,,,,,,,,2,,,63,0
31839,note_on,159,0,1,,,,,,,,,0,,,84,0
31839,note_on,0,0,1,,,,,,,,,0,,,78,75
32000,note_on,161,0,3,,,,,,,,,2,,,72,0
32000,note_on,161,0,1,,,,,,,,,0,,,78,0
32000,note_on,0,0,3,,,,,,,,,2,,,69,62
32000,note_on,0,0,1,,,,,,,,,0,,,77,75
32100,note_on,100,0,1,,,,,,,,,0,,,79,75
32160,note_on,0,0,1,,,,,,,,,0,,,77,0
32160,note_on,160,0,3,,,,,,,,,2,,,69,0
32160,note_on,0,0,3,,,,,,,,,2,,,62,62
32160,note_on,60,0,1,,,,,,,,,0,,,79,0
32160,note_on,0,0,1,,,,,,,,,0,,,77,75
32319,note_on,0,0,1,,,,,,,,,0,,,76,75
32319,note_on,159,0,3,,,,,,,,,2,,,62,0
32319,note_on,0,0,3,,,,,,,,,2,,,70,62
32319,note_on,159,0,1,,,,,,,,,0,,,77,0
32480,control_change,0,0,3,,,,,,,,,2,64,0,,
32480,note_on,0,0,3,,,,,,,,,2,,,65,62
32480,control_change,0,0,1,,,,,,,,,0,64,0,,
32480,note_on,161,0,3,,,,,,,,,2,,,70,0
32480,note_on,161,0,1,,,,,,,,,0,,,76,0
32480,note_on,0,0,1,,,,,,,,,0,,,77,75
32640,control_change,0,0,1,,,,,,,,,0,64,127,,
32640,control_change,0,0,3,,,,,,,,,2,64,127,,
32640,note_on,160,0,1,,,,,,,,,0,,,77,0
32640,note_on,0,0,3,,,,,,,,,2,,,61,49
32640,note_on,160,0,3,,,,,,,,,2,,,65,0
32640,note_on,0,0,1,,,,,,,,,0,,,80,62
32799,note_on,159,0,1,,,,,,,,,0,,,80,0
32799,note_on,159,0,3,,,,,,,,,2,,,61,0
32799,note_on,0,0,1,,,,,,,,,0,,,76,62
32799,note_on,0,0,3,,,,,,,,,2,,,71,49
32960,note_on,0,0,1,,,,,,,,,0,,,77,62
32960,note_on,161,0,3,,,,,,,,,2,,,71,0
32960,note_on,161,0,1,,,,,,,,,0,,,76,0
32960,note_on,0,0,3,,,,,,,,,2,,,65,49
33120,note_on,0,0,1,,,,,,,,,0,,,79,62
33120,note_on,160,0,1,,,,,,,,,0,,,77,0
33120,note_on,0,0,3,,,,,,,,,2,,,60,49
33120,note_on,160,0,3,,,,,,,,,2,,,65,0
33279,note_on,0,0,3,,,,,,,,,2,,,72,49
33279,note_on,0,0,1,,,,,,,,,0,,,83,62
33279,note_on,159,0,3,,,,,,,,,2,,,60,0
33279,note_on,159,0,1,,,,,,,,,0,,,79,0
33440,note_on,0,0,1,,,,,,,,,0,,,84,62
33440,note_on,0,0,3,,,,,,,,,2,,,64,49
33440,note_on,161,0,1,,,,,,,,,0,,,83,0
33440,note_on,161,0,3,,,,,,,,,2,,,72,0
33600,note_on,160,0,1,,,,,,,,,0,,,84,0
33600,note_on,0,0,1,,,,,,,,,0,,,85,62
33600,note_on,0,0,3,,,,,,,,,2,,,58,49
33600,note_on,160,0,3,,,,,,,,,2,,,64,0
33759,note_on,0,0,1,,,,,,,,,0,,,83,62
33759,note_on,159,0,1,,,,,,,,,0,,,85,0
33759,note_on,159,0,3,,,,,,,,,2,,,58,0
33759,note_on,0,0,3,,,,,,,,,2,,,72,49
33920,note_on,0,0,1,,,,,,,,,0,,,84,62
33920,note_on,161,0,1,,,,,,,,,0,,,83,0
33920,control_change,0,0,3,,,,,,,,,2,64,0,,
33920,note_on,161,0,3,,,,,,,,,2,,,72,0
33920,note_on,0,0,3,,,,,,,,,2,,,64,49
33920,control_change,0,0,1,,,,,,,,,0,64,0,,
33920,note_on,0,0,3,,,,,,,,,2,,,67,49
34080,note_on,0,0,3,,,,,,,,,2,,,64,0
34080,control_change,0,0,1,,,,,,,,,0,64,127,,
34080,note_on,160,0,1,,,,,,,,,0,,,84,0
34080,note_on,0,0,1,,,,,,,,,0,,,84,75
34080,note_on,160,0,3,,,,,,,,,2,,,67,0
34080,note_on,0,0,3,,,,,,,,,2,,,56,62
34080,control_change,0,0,3,,,,,,,,,2,64,127,,
34239,note_on,0,0,3,,,,,,,,,2,,,65,62
34239,note_on,0,0,1,,,,,,,,,0,,,88,75
34239,note_on,159,0,1,,,,,,,,,0,,,84,0
34239,note_on,159,0,3,,,,,,,,,2,,,56,0
34400,note_on,8480,0,2,,,,,,,,,1,,,77,62
34400,note_on,0,0,3,,,,,,,,,2,,,72,62
34400,note_on,161,0,1,,,,,,,,,0,,,88,0
34400,note_on,161,0,3,,,,,,,,,2,,,65,0
34400,note_on,0,0,1,,,,,,,,,0,,,89,75
34560,note_on,0,0,3,,,,,,,,,2,,,55,62
34560,note_on,160,0,1,,,,,,,,,0,,,89,0
34560,note_on,0,0,1,,,,,,,,,0,,,87,75
34560,note_on,160,0,3,,,,,,,,,2,,,72,0
34560,note_on,160,0,2,,,,,,,,,1,,,77,0
34719,note_on,0,0,3,,,,,,,,,2,,,63,62
34719,note_on,0,0,1,,,,,,,,,0,,,81,75
34719,note_on,159,0,1,,,,,,,,,0,,,87,0
34719,note_on,159,0,3,,,,,,,,,2,,,55,0
34880,note_on,161,0,3,,,,,,,,,2,,,63,0
34880,note_on,161,0,1,,,,,,,,,0,,,81,0
34880,note_on,0,0,1,,,,,,,,,0,,,82,75
34880,note_on,0,0,3,,,,,,,,,2,,,70,62
34880,note_on,320,0,2,,,,,,,,,1,,,75,62
35040,note_on,0,0,3,,,,,,,,,2,,,53,62
35040,note_on,0,0,1,,,,,,,,,0,,,85,75
35040,note_on,160,0,3,,,,,,,,,2,,,70,0
35040,control_change,0,0,1,,,,,,,,,0,64,0,,
35040,note_on,160,0,2,,,,,,,,,1,,,75,0
35040,note_on,160,0,1,,,,,,,,,0,,,82,0
35199,note_on,159,0,3,,,,,,,,,2,,,53,0
35199,note_on,0,0,3,,,,,,,,,2,,,61,62
35360,note_on,0,0,3,,,,,,,,,2,,,68,62
35360,note_on,161,0,3,,,,,,,,,2,,,61,0
35360,note_on,320,0,2,,,,,,,,,1,,,73,62
35360,control_change,0,0,3,,,,,,,,,2,64,0,,
35520,note_on,160,0,3,,,,,,,,,2,,,68,0
35520,note_on,160,0,2,,,,,,,,,1,,,73,0
35520,control_change,480,0,1,,,,,,,,,0,64,127,,
35679,note_on,0,0,1,,,,,,,,,0,,,84,88
35679,note_on,159,0,1,,,,,,,,,0,,,85,0
35840,note_on,320,0,2,,,,,,,,,1,,,72,75
35840,note_on,161,0,1,,,,,,,,,0,,,84,0
35840,note_on,0,0,1,,,,,,,,,0,,,83,88
36000,note_on,160,0,1,,,,,,,,,0,,,83,0
36000,note_on,160,0,2,,,,,,,,,1,,,72,0
36000,note_on,0,0,1,,,,,,,,,0,,,84,88
36159,note_on,159,0,1,,,,,,,,,0,,,84,0
36159,note_on,0,0,1,,,,,,,,,0,,,78,88
36320,note_on,161,0,1,,,,,,,,,0,,,78,0
36320,note_on,0,0,1,,,,,,,,,0,,,77,88
36480,note_on,160,0,1,,,,,,,,,0,,,77,0
36480,note_on,0,0,1,,,,,,,,,0,,,82,88
36639,note_on,159,0,1,,,,,,,,,0,,,82,0
36639,note_on,0,0,1,,,,,,,,,0,,,92,114
36671,note_on,32,0,1,,,,,,,,,0,,,92,0
36800,control_change,129,0,1,,,,,,,,,0,64,0,,
36960,time_signature,7200,1,0,4,4,24,8,,,,,,,,,
37200,set_tempo,240,1,0,,,,,,540541,,,,,,,
37440,note_on,0,0,1,,,,,,,,,0,,,88,114
37440,set_tempo,240,1,0,,,,,,571429,,,,,,,
37440,control_change,640,0,1,,,,,,,,,0,64,127,,
37599,note_on,0,0,1,,,,,,,,,0,,,89,88
37599,note_on,159,0,1,,,,,,,,,0,,,88,0
37680,set_tempo,240,1,0,,,,,,606061,,,,,,,
37760,note_on,161,0,1,,,,,,,,,0,,,89,0
37760,note_on,0,0,1,,,,,,,,,0,,,84,88
37920,set_tempo,240,1,0,,,,,,659341,,,,,,,
37920,note_on,0,0,1,,,,,,,,,0,,,85,88
37920,note_on,160,0,1,,,,,,,,,0,,,84,0
38079,note_on,159,0,1,,,,,,,,,0,,,85,0
38079,note_on,0,0,1,,,,,,,,,0,,,77,88
38160,set_tempo,240,1,0,,,,,,705882,,,,,,,
38240,note_on,0,0,1,,,,,,,,,0,,,78,88
38240,note_on,161,0,1,,,,,,,,,0,,,77,0
38400,note_on,0,0,1,,,,,,,,,0,,,79,75
38400,set_tempo,240,1,0,,,,,,759494,,,,,,,
38400,note_on,2400,0,2,,,,,,,,,1,,,73,62
38400,note_on,160,0,1,,,,,,,,,0,,,78,0
38499,note_on,99,0,1,,,,,,,,,0,,,75,75
38559,note_on,159,0,2,,,,,,,,,1,,,73,0
38559,note_on,60,0,1,,,,,,,,,0,,,79,0
38559,note_on,0,0,1,,,,,,,,,0,,,84,75
38640,set_tempo,240,1,0,,,,,,821918,,,,,,,
38720,note_on,161,0,2,,,,,,,,,1,,,73,62
38799,note_on,0,0,1,,,,,,,,,0,,,75,0
38799,note_on,0,0,1,,,,,,,,,0,,,82,75
38799,control_change,0,0,1,,,,,,,,,0,64,0,,
38799,note_on,240,0,1,,,,,,,,,0,,,84,0
38880,note_on,0,0,3,,,,,,,,,2,,,44,49
38880,note_on,160,0,2,,,,,,,,,1,,,73,0
38880,note_on,0,0,1,,,,,,,,,0,,,72,75
38880,note_on,81,0,1,,,,,,,,,0,,,82,0
38880,set_tempo,240,1,0,,,,,,512821,,,,,,,
38880,control_change,3360,0,3,,,,,,,,,2,64,127,,
38880,note_on,0,0,1,,,,,,,,,0,,,80,75
38880,control_change,0,0,1,,,,,,,,,0,64,127,,
39039,note_on,159,0,3,,,,,,,,,2,,,44,0
39039,note_on,0,0,3,,,,,,,,,2,,,51,49
39200,note_on,161,0,3,,,,,,,,,2,,,51,0
39200,note_on,0,0,3,,,,,,,,,2,,,56,49
39360,note_on,480,0,1,,,,,,,,,0,,,80,0
39360,note_on,160,0,3,,,,,,,,,2,,,56,0
39360,note_on,0,0,1,,,,,,,,,0,,,72,0
39360,note_on,0,0,1,,,,,,,,,0,,,72,62
39360,note_on,0,0,3,,,,,,,,,2,,,63,49
39519,note_on,0,0,1,,,,,,,,,0,,,65,62
39519,note_on,0,0,1,,,,,,,,,0,,,73,62
39519,note_on,159,0,1,,,,,,,,,0,,,72,0
39680,note_on,0,0,1,,,,,,,,,0,,,77,62
39680,note_on,0,0,1,,,,,,,,,0,,,68,62
39680,note_on,0,0,1,,,,,,,,,0,,,65,0
39680,note_on,161,0,1,,,,,,,,,0,,,73,0
39840,note_on,480,0,3,,,,,,,,,2,,,63,0
39840,note_on,0,0,1,,,,,,,,,0,,,75,62
39840,note_on,0,0,1,,,,,,,,,0,,,67,62
39840,note_on,0,0,1,,,,,,,,,0,,,68,0
39840,note_on,160,0,1,,,,,,,,,0,,,77,0
39999,note_on,0,0,1,,,,,,,,,0,,,69,62
39999,note_on,159,0,1,,,,,,,,,0,,,75,0
39999,note_on,0,0,1,,,,,,,,,0,,,60,62
39999,note_on,0,0,1,,,,,,,,,0,,,67,0
40160,note_on,161,0,1,,,,,,,,,0,,,69,0
40160,note_on,0,0,1,,,,,,,,,0,,,70,62
40160,note_on,0,0,1,,,,,,,,,0,,,61,62
40160,note_on,0,0,1,,,,,,,,,0,,,60,0
40320,note_on,160,0,1,,,,,,,,,0,,,70,0
40320,control_change,0,0,1,,,,,,,,,0,64,0,,
40320,note_on,480,0,3,,,,,,,,,2,,,63,49
40320,note_on,0,0,1,,,,,,,,,0,,,73,62
40320,note_on,0,0,1,,,,,,,,,0,,,65,62
40320,note_on,0,0,1,,,,,,,,,0,,,61,0
40479,note_on,159,0,3,,,,,,,,,2,,,63,0
40479,note_on,0,0,3,,,,,,,,,2,,,55,49
40640,note_on,161,0,3,,,,,,,,,2,,,55,0
40640,note_on,0,0,3,,,,,,,,,2,,,51,49
40640,control_change,0,0,3,,,,,,,,,2,64,0,,
40800,note_on,160,0,3,,,,,,,,,2,,,51,0
40800,control_change,480,0,1,,,,,,,,,0,64,127,,
40800,note_on,0,0,3,,,,,,,,,2,,,44,49
40800,control_change,0,0,3,,,,,,,,,2,64,127,,
40959,note_on,0,0,3,,,,,,,,,2,,,51,49
40959,note_on,159,0,3,,,,,,,,,2,,,44,0
40959,note_on,0,0,1,,,,,,,,,0,,,62,62
40959,note_on,0,0,1,,,,,,,,,0,,,65,0
40959,note_on,159,0,1,,,,,,,,,0,,,73,0
40959,note_on,0,0,1,,,,,,,,,0,,,71,62
41120,note_on,161,0,1,,,,,,,,,0,,,71,0
41120,note_on,161,0,3,,,,,,,,,2,,,51,0
41120,note_on,0,0,3,,,,,,,,,2,,,56,49
41120,note_on,0,0,1,,,,,,,,,0,,,72,62
41120,note_on,0,0,1,,,,,,,,,0,,,63,62
41120,note_on,0,0,1,,,,,,,,,0,,,62,0
41280,note_on,0,0,1,,,,,,,,,0,,,72,62
41280,note_on,0,0,1,,,,,,,,,0,,,63,0
41280,note_on,0,0,3,,,,,,,,,2,,,63,49
41280,note_on,160,0,3,,,,,,,,,2,,,56,0
41280,note_on,160,0,1,,,,,,,,,0,,,72,0
41439,note_on,0,0,1,,,,,,,,,0,,,75,62
41439,note_on,159,0,1,,,,,,,,,0,,,72,0
41439,note_on,0,0,1,,,,,,,,,0,,,67,62
41600,note_on,161,0,1,,,,,,,,,0,,,75,0
41600,note_on,0,0,1,,,,,,,,,0,,,65,62
41600,note_on,0,0,1,,,,,,,,,0,,,73,62
41600,note_on,0,0,1,,,,,,,,,0,,,67,0
41760,note_on,0,0,1,,,,,,,,,0,,,72,62
41760,note_on,0,0,1,,,,,,,,,0,,,63,62
41760,note_on,160,0,1,,,,,,,,,0,,,73,0
41760,note_on,480,0,3,,,,,,,,,2,,,63,0
41760,note_on,0,0,1,,,,,,,,,0,,,65,0
41919,note_on,159,0,1,,,,,,,,,0,,,72,0
41919,note_on,0,0,1,,,,,,,,,0,,,60,62
41919,note_on,0,0,1,,,,,,,,,0,,,63,0
41919,note_on,0,0,1,,,,,,,,,0,,,69,62
42080,note_on,0,0,1,,,,,,,,,0,,,70,62
42080,note_on,161,0,1,,,,,,,,,0,,,69,0
42080,note_on,0,0,1,,,,,,,,,0,,,61,62
42080,note_on,0,0,1,,,,,,,,,0,,,60,0
42240,note_on,0,0,1,,,,,,,,,0,,,62,62
42240,note_on,160,0,1,,,,,,,,,0,,,70,0
42240,note_on,0,0,1,,,,,,,,,0,,,61,0
42240,note_on,0,0,1,,,,,,,,,0,,,71,62
42399,note_on,0,0,1,,,,,,,,,0,,,65,62
42399,note_on,639,0,3,,,,,,,,,2,,,55,49
42399,note_on,0,0,1,,,,,,,,,0,,,62,0
42399,note_on,159,0,1,,,,,,,,,0,,,71,0
42399,note_on,0,0,1,,,,,,,,,0,,,73,62
42560,control_change,0,0,3,,,,,,,,,2,64,0,,
42560,note_on,0,0,3,,,,,,,,,2,,,51,49
42560,note_on,161,0,3,,,,,,,,,2,,,55,0
42560,note_on,0,0,1,,,,,,,,,0,,,63,62
42560,note_on,0,0,1,,,,,,,,,0,,,65,0
42560,note_on,0,0,1,,,,,,,,,0,,,72,62
42560,control_change,0,0,1,,,,,,,,,0,64,0,,
42560,note_on,161,0,1,,,,,,,,,0,,,73,0
42720,note_on,0,0,3,,,,,,,,,2,,,44,49
42720,control_change,0,0,3,,,,,,,,,2,64,127,,
42720,note_on,160,0,1,,,,,,,,,0,,,72,0
42720,note_on,0,0,1,,,,,,,,,0,,,60,62
42720,note_on,0,0,1,,,,,,,,,0,,,63,0
42720,note_on,0,0,1,,,,,,,,,0,,,68,62
42720,control_change,0,0,1,,,,,,,,,0,64,127,,
42720,note_on,160,0,3,,,,,,,,,2,,,51,0
42879,note_on,159,0,3,,,,,,,,,2,,,44,0
42879,note_on,0,0,3,,,,,,,,,2,,,51,49
43040,note_on,0,0,3,,,,,,,,,2,,,56,49
43040,note_on,161,0,3,,,,,,,,,2,,,51,0
43200,note_on,0,0,3,,,,,,,,,2,,,63,49
43200,note_on,160,0,3,,,,,,,,,2,,,56,0
43200,note_on,0,0,1,,,,,,,,,0,,,75,62
43200,note_on,0,0,1,,,,,,,,,0,,,60,0
43200,note_on,480,0,1,,,,,,,,,0,,,68,0
43200,note_on,0,0,1,,,,,,,,,0,,,84,62
43359,note_on,0,0,1,,,,,,,,,0,,,85,62
43359,note_on,0,0,1,,,,,,,,,0,,,75,0
43359,note_on,159,0,1,,,,,,,,,0,,,84,0
43359,note_on,0,0,1,,,,,,,,,0,,,77,62
43520,note_on,0,0,1,,,,,,,,,0,,,77,0
43520,note_on,0,0,1,,,,,,,,,0,,,89,62
43520,note_on,0,0,1,,,,,,,,,0,,,80,62
43520,note_on,161,0,1,,,,,,,,,0,,,85,0
43680,note_on,0,0,1,,,,,,,,,0,,,80,0
43680,note_on,160,0,1,,,,,,,,,0,,,89,0
43680,note_on,0,0,1,,,,,,,,,0,,,87,75
43680,note_on,480,0,3,,,,,,,,,2,,,63,0
43680,note_on,0,0,1,,,,,,,,,0,,,79,75
43839,note_on,159,0,1,,,,,,,,,0,,,87,0
43839,note_on,0,0,1,,,,,,,,,0,,,72,75
43839,note_on,0,0,1,,,,,,,,,0,,,79,0
43839,note_on,0,0,1,,,,,,,,,0,,,81,75
44000,note_on,0,0,1,,,,,,,,,0,,,72,0
44000,note_on,0,0,1,,,,,,,,,0,,,82,75
44000,note_on,161,0,1,,,,,,,,,0,,,81,0
44000,note_on,0,0,1,,,,,,,,,0,,,73,75
44160,note_on,0,0,1,,,,,,,,,0,,,73,0
44160,note_on,480,0,3,,,,,,,,,2,,,63,49
44160,control_change,0,0,1,,,,,,,,,0,64,0,,
44160,note_on,160,0,1,,,,,,,,,0,,,82,0
44160,note_on,0,0,1,,,,,,,,,0,,,85,75
44160,note_on,0,0,1,,,,,,,,,0,,,77,75
44319,note_on,0,0,3,,,,,,,,,2,,,55,49
44319,note_on,159,0,3,,,,,,,,,2,,,63,0
44480,control_change,0,0,3,,,,,,,,,2,64,0,,
44480,note_on,0,0,3,,,,,,,,,2,,,51,49
44480,note_on,161,0,3,,,,,,,,,2,,,55,0
44640,control_change,0,0,3,,,,,,,,,2,64,127,,
44640,control_change,480,0,1,,,,,,,,,0,64,127,,
44640,note_on,0,0,3,,,,,,,,,2,,,44,49
44640,note_on,160,0,3,,,,,,,,,2,,,51,0
44799,note_on,159,0,3,,,,,,,,,2,,,44,0
44799,note_on,0,0,1,,,,,,,,,0,,,83,62
44799,note_on,159,0,1,,,,,,,,,0,,,85,0
44799,note_on,0,0,1,,,,,,,,,0,,,77,0
44799,note_on,0,0,1,,,,,,,,,0,,,74,62
44799,note_on,0,0,3,,,,,,,,,2,,,51,49
44960,note_on,161,0,1,,,,,,,,,0,,,83,0
44960,note_on,161,0,3,,,,,,,,,2,,,51,0
44960,note_on,0,0,1,,,,,,,,,0,,,74,0
44960,note_on,0,0,3,,,,,,,,,2,,,56,49
44960,note_on,0,0,1,,,,,,,,,0,,,84,62
44960,note_on,0,0,1,,,,,,,,,0,,,75,62
45120,note_on,160,0,1,,,,,,,,,0,,,84,0
45120,note_on,0,0,1,,,,,,,,,0,,,84,62
45120,note_on,0,0,1,,,,,,,,,0,,,76,62
45120,note_on,0,0,1,,,,,,,,,0,,,75,0
45120,note_on,0,0,3,,,,,,,,,2,,,63,49
45120,note_on,160,0,3,,,,,,,,,2,,,56,0
45279,note_on,0,0,1,,,,,,,,,0,,,76,0
45279,note_on,0,0,1,,,,,,,,,0,,,79,75
45279,note_on,159,0,1,,,,,,,,,0,,,84,0
45279,note_on,0,0,1,,,,,,,,,0,,,87,75
45440,note_on,0,0,1,,,,,,,,,0,,,77,75
45440,note_on,0,0,1,,,,,,,,,0,,,79,0
45440,note_on,0,0,1,,,,,,,,,0,,,85,75
45440,note_on,161,0,1,,,,,,,,,0,,,87,0
45600,note_on,0,0,1,,,,,,,,,0,,,75,75
45600,note_on,480,0,3,,,,,,,,,2,,,63,0
45600,note_on,0,0,1,,,,,,,,,0,,,77,0
45600,note_on,0,0,1,,,,,,,,,0,,,84,75
45600,note_on,160,0,1,,,,,,,,,0,,,85,0
45759,note_on,0,0,1,,,,,,,,,0,,,75,0
45759,note_on,0,0,1,,,,,,,,,0,,,81,75
45759,note_on,159,0,1,,,,,,,,,0,,,84,0
45759,note_on,0,0,1,,,,,,,,,0,,,72,75
45920,note_on,161,0,1,,,,,,,,,0,,,81,0
45920,note_on,0,0,1,,,,,,,,,0,,,82,62
45920,note_on,0,0,1,,,,,,,,,0,,,73,62
45920,note_on,0,0,1,,,,,,,,,0,,,72,0
46080,note_on,160,0,1,,,,,,,,,0,,,82,0
46080,note_on,0,0,1,,,,,,,,,0,,,74,62
46080,note_on,0,0,1,,,,,,,,,0,,,73,0
46080,note_on,480,0,3,,,,,,,,,2,,,63,49
46080,note_on,0,0,1,,,,,,,,,0,,,83,62
46239,note_on,0,0,1,,,,,,,,,0,,,74,0
46239,note_on,0,0,1,,,,,,,,,0,,,85,62
46239,note_on,159,0,1,,,,,,,,,0,,,83,0
46239,note_on,159,0,3,,,,,,,,,2,,,63,0
46239,note_on,0,0,1,,,,,,,,,0,,,77,62
46239,note_on,0,0,3,,,,,,,,,2,,,55,49
46400,note_on,0,0,1,,,,,,,,,0,,,84,75
46400,note_on,0,0,1,,,,,,,,,0,,,77,0
46400,note_on,0,0,1,,,,,,,,,0,,,75,75
46400,control_change,0,0,3,,,,,,,,,2,64,0,,
46400,note_on,161,0,1,,,,,,,,,0,,,85,0
46400,note_on,0,0,3,,,,,,,,,2,,,51,49
46400,note_on,161,0,3,,,,,,,,,2,,,55,0
46400,control_change,0,0,1,,,,,,,,,0,64,0,,
46560,note_on,0,0,1,,,,,,,,,0,,,72,75
46560,note_on,0,0,1,,,,,,,,,0,,,75,0
46560,note_on,160,0,3,,,,,,,,,2,,,51,0
46560,note_on,160,0,1,,,,,,,,,0,,,84,0
46560,note_on,0,0,1,,,,,,,,,0,,,80,75
46560,control_change,0,0,3,,,,,,,,,2,64,127,,
46560,control_change,0,0,1,,,,,,,,,0,64,127,,
46560,note_on,0,0,3,,,,,,,,,2,,,44,75
46719,note_on,159,0,3,,,,,,,,,2,,,44,0
46719,note_on,159,0,1,,,,,,,,,0,,,80,0
46719,note_on,0,0,1,,,,,,,,,0,,,72,0
46719,note_on,0,0,1,,,,,,,,,0,,,59,75
46719,note_on,0,0,3,,,,,,,,,2,,,51,49
46880,note_on,0,0,1,,,,,,,,,0,,,60,75
46880,note_on,161,0,1,,,,,,,,,0,,,59,0
46880,note_on,161,0,3,,,,,,,,,2,,,51,0
46880,note_on,0,0,3,,,,,,,,,2,,,56,62
47040,note_on,160,0,1,,,,,,,,,0,,,60,0
47040,note_on,0,0,3,,,,,,,,,2,,,43,88
47040,note_on,160,0,3,,,,,,,,,2,,,56,0
47040,note_on,0,0,1,,,,,,,,,0,,,61,101
47199,note_on,0,0,3,,,,,,,,,2,,,52,62
47199,note_on,159,0,3,,,,,,,,,2,,,43,0
47360,note_on,0,0,3,,,,,,,,,2,,,58,62
47360,note_on,0,0,3,,,,,,,,,2,,,61,62
47360,note_on,161,0,3,,,,,,,,,2,,,52,0
47520,note_on,0,0,3,,,,,,,,,2,,,41,88
47520,note_on,0,0,3,,,,,,,,,2,,,58,0
47520,note_on,160,0,3,,,,,,,,,2,,,61,0
47679,note_on,159,0,3,,,,,,,,,2,,,41,0
47679,note_on,0,0,1,,,,,,,,,0,,,64,75
47679,note_on,639,0,1,,,,,,,,,0,,,61,0
47679,note_on,0,0,3,,,,,,,,,2,,,53,62
47840,note_on,0,0,3,,,,,,,,,2,,,61,62
47840,note_on,0,0,3,,,,,,,,,2,,,58,62
47840,note_on,161,0,1,,,,,,,,,0,,,64,0
47840,note_on,0,0,1,,,,,,,,,0,,,65,75
47840,note_on,161,0,3,,,,,,,,,2,,,53,0
48000,note_on,160,0,1,,,,,,,,,0,,,65,0
48000,note_on,0,0,3,,,,,,,,,2,,,40,88
48000,note_on,160,0,3,,,,,,,,,2,,,61,0
48000,note_on,0,0,1,,,,,,,,,0,,,68,75
48000,note_on,0,0,3,,,,,,,,,2,,,58,0
48080,note_on,80,0,1,,,,,,,,,0,,,68,0
48080,note_on,0,0,1,,,,,,,,,0,,,66,75
48159,note_on,0,0,3,,,,,,,,,2,,,55,62
48159,note_on,0,0,1,,,,,,,,,0,,,67,75
48159,note_on,79,0,1,,,,,,,,,0,,,66,0
48159,note_on,159,0,3,,,,,,,,,2,,,40,0
48240,note_on,81,0,1,,,,,,,,,0,,,67,0
48240,note_on,0,0,1,,,,,,,,,0,,,68,75
48320,control_change,0,0,3,,,,,,,,,2,64,0,,
48320,note_on,80,0,1,,,,,,,,,0,,,68,0
48320,note_on,0,0,3,,,,,,,,,2,,,58,62
48320,note_on,0,0,1,,,,,,,,,0,,,69,75
48320,note_on,0,0,3,,,,,,,,,2,,,61,62
48320,note_on,161,0,3,,,,,,,,,2,,,55,0
48399,control_change,0,0,1,,,,,,,,,0,64,0,,
48399,note_on,79,0,1,,,,,,,,,0,,,69,0
48399,note_on,0,0,1,,,,,,,,,0,,,70,75
48480,control_change,0,0,3,,,,,,,,,2,64,127,,
48480,note_on,160,0,3,,,,,,,,,2,,,61,0
48480,note_on,0,0,3,,,,,,,,,2,,,46,88
48480,note_on,0,0,3,,,,,,,,,2,,,58,0
48480,note_on,0,0,1,,,,,,,,,0,,,73,101
48480,control_change,0,0,1,,,,,,,,,0,64,127,,
48480,note_on,81,0,1,,,,,,,,,0,,,70,0
48511,note_on,31,0,1,,,,,,,,,0,,,73,0
48639,note_on,0,0,3,,,,,,,,,2,,,53,62
48639,note_on,128,0,1,,,,,,,,,0,,,60,75
48639,note_on,159,0,3,,,,,,,,,2,,,46,0
48800,note_on,161,0,1,,,,,,,,,0,,,60,0
48800,note_on,161,0,3,,,,,,,,,2,,,53,0
48800,note_on,0,0,3,,,,,,,,,2,,,58,62
48800,note_on,0,0,1,,,,,,,,,0,,,61,75
48960,note_on,0,0,1,,,,,,,,,0,,,62,101
48960,note_on,0,0,3,,,,,,,,,2,,,44,88
48960,note_on,160,0,1,,,,,,,,,0,,,61,0
48960,note_on,160,0,3,,,,,,,,,2,,,58,0
49119,note_on,159,0,3,,,,,,,,,2,,,44,0
49119,note_on,0,0,3,,,,,,,,,2,,,53,62
49280,note_on,161,0,3,,,,,,,,,2,,,53,0
49280,note_on,0,0,3,,,,,,,,,2,,,62,62
49280,note_on,0,0,3,,,,,,,,,2,,,59,62
49440,note_on,0,0,3,,,,,,,,,2,,,59,0
49440,note_on,160,0,3,,,,,,,,,2,,,62,0
49440,note_on,0,0,3,,,,,,,,,2,,,42,88
49599,note_on,639,0,1,,,,,,,,,0,,,62,0
49599,note_on,0,0,3,,,,,,,,,2,,,54,62
49599,note_on,0,0,1,,,,,,,,,0,,,65,75
49599,note_on,159,0,3,,,,,,,,,2,,,42,0
49760,note_on,161,0,1,,,,,,,,,0,,,65,0
49760,note_on,161,0,3,,,,,,,,,2,,,54,0
49760,note_on,0,0,3,,,,,,,,,2,,,59,62
49760,note_on,0,0,3,,,,,,,,,2,,,62,62
49760,note_on,0,0,1,,,,,,,,,0,,,66,75
49920,note_on,160,0,3,,,,,,,,,2,,,62,0
49920,note_on,0,0,3,,,,,,,,,2,,,41,62
49920,note_on,0,0,3,,,,,,,,,2,,,59,0
49920,note_on,0,0,1,,,,,,,,,0,,,69,75
49920,note_on,160,0,1,,,,,,,,,0,,,66,0
50000,note_on,80,0,1,,,,,,,,,0,,,69,0
50000,note_on,0,0,1,,,,,,,,,0,,,67,75
50079,note_on,159,0,3,,,,,,,,,2,,,41,0
50079,note_on,79,0,1,,,,,,,,,0,,,67,0
50079,note_on,0,0,1,,,,,,,,,0,,,68,75
50079,note_on,0,0,3,,,,,,,,,2,,,56,62
50160,note_on,0,0,1,,,,,,,,,0,,,69,75
50160,note_on,81,0,1,,,,,,,,,0,,,68,0
50240,note_on,80,0,1,,,,,,,,,0,,,69,0
50240,control_change,0,0,3,,,,,,,,,2,64,0,,
50240,note_on,161,0,3,,,,,,,,,2,,,56,0
50240,note_on,0,0,1,,,,,,,,,0,,,70,75
50240,note_on,0,0,3,,,,,,,,,2,,,62,62
50240,note_on,0,0,3,,,,,,,,,2,,,59,62
50319,control_change,0,0,1,,,,,,,,,0,64,0,,
50319,note_on,79,0,1,,,,,,,,,0,,,70,0
50319,note_on,0,0,1,,,,,,,,,0,,,71,75
50400,note_on,0,0,1,,,,,,,,,0,,,74,101
50400,note_on,81,0,1,,,,,,,,,0,,,71,0
50400,note_on,0,0,3,,,,,,,,,2,,,59,0
50400,note_on,0,0,3,,,,,,,,,2,,,47,88
50400,control_change,0,0,1,,,,,,,,,0,64,127,,
50400,note_on,160,0,3,,,,,,,,,2,,,62,0
50400,control_change,0,0,3,,,,,,,,,2,64,127,,
50431,note_on,31,0,1,,,,,,,,,0,,,74,0
50559,note_on,159,0,3,,,,,,,,,2,,,47,0
50559,note_on,128,0,1,,,,,,,,,0,,,61,75
50559,note_on,0,0,3,,,,,,,,,2,,,54,62
50720,note_on,161,0,1,,,,,,,,,0,,,61,0
50720,note_on,0,0,3,,,,,,,,,2,,,59,62
50720,note_on,161,0,3,,,,,,,,,2,,,54,0
50720,note_on,0,0,1,,,,,,,,,0,,,62,75
50880,note_on,0,0,1,,,,,,,,,0,,,63,101
50880,note_on,0,0,3,,,,,,,,,2,,,45,88
50880,note_on,160,0,3,,,,,,,,,2,,,59,0
50880,note_on,160,0,1,,,,,,,,,0,,,62,0
51039,note_on,0,0,3,,,,,,,,,2,,,54,62
51039,note_on,159,0,3,,,,,,,,,2,,,45,0
51200,note_on,0,0,3,,,,,,,,,2,,,63,62
51200,note_on,0,0,3,,,,,,,,,2,,,60,62
51200,note_on,161,0,3,,,,,,,,,2,,,54,0
51360,note_on,160,0,3,,,,,,,,,2,,,63,0
51360,note_on,0,0,3,,,,,,,,,2,,,60,0
51360,note_on,0,0,3,,,,,,,,,2,,,43,75
51440,note_on,0,0,1,,,,,,,,,0,,,64,62
51440,note_on,560,0,1,,,,,,,,,0,,,63,0
51519,note_on,79,0,1,,,,,,,,,0,,,64,0
51519,note_on,159,0,3,,,,,,,,,2,,,43,0
51519,note_on,0,0,3,,,,,,,,,2,,,55,49
51519,note_on,0,0,1,,,,,,,,,0,,,65,62
51600,note_on,81,0,1,,,,,,,,,0,,,65,0
51600,note_on,0,0,1,,,,,,,,,0,,,66,62
51680,note_on,161,0,3,,,,,,,,,2,,,55,0
51680,note_on,0,0,3,,,,,,,,,2,,,60,49
51680,note_on,0,0,1,,,,,,,,,0,,,69,62
51680,note_on,80,0,1,,,,,,,,,0,,,66,0
51680,note_on,0,0,3,,,,,,,,,2,,,64,49
51759,note_on,0,0,1,,,,,,,,,0,,,67,62
51759,note_on,79,0,1,,,,,,,,,0,,,69,0
51840,note_on,0,0,1,,,,,,,,,0,,,68,75
51840,note_on,160,0,3,,,,,,,,,2,,,64,0
51840,note_on,0,0,3,,,,,,,,,2,,,36,88
51840,note_on,0,0,3,,,,,,,,,2,,,60,0
51840,note_on,81,0,1,,,,,,,,,0,,,67,0
51920,note_on,80,0,1,,,,,,,,,0,,,68,0
51920,note_on,0,0,1,,,,,,,,,0,,,69,75
51999,note_on,79,0,1,,,,,,,,,0,,,69,0
51999,note_on,159,0,3,,,,,,,,,2,,,36,0
51999,note_on,0,0,1,,,,,,,,,0,,,70,75
51999,note_on,0,0,3,,,,,,,,,2,,,55,62
52080,note_on,81,0,1,,,,,,,,,0,,,70,0
52080,note_on,0,0,1,,,,,,,,,0,,,78,75
52160,note_on,161,0,3,,,,,,,,,2,,,55,0
52160,note_on,0,0,1,,,,,,,,,0,,,75,75
52160,note_on,0,0,3,,,,,,,,,2,,,58,62
52160,note_on,0,0,3,,,,,,,,,2,,,64,62
52160,note_on,80,0,1,,,,,,,,,0,,,78,0
52160,control_change,0,0,3,,,,,,,,,2,64,0,,
52239,control_change,0,0,1,,,,,,,,,0,64,0,,
52239,note_on,79,0,1,,,,,,,,,0,,,75,0
52239,note_on,0,0,1,,,,,,,,,0,,,76,75
52320,note_on,0,0,1,,,,,,,,,0,,,64,88
52320,note_on,0,0,3,,,,,,,,,2,,,47,75
52320,note_on,0,0,3,,,,,,,,,2,,,58,0
52320,note_on,81,0,1,,,,,,,,,0,,,76,0
52320,note_on,0,0,1,,,,,,,,,0,,,71,88
52320,note_on,0,0,1,,,,,,,,,0,,,80,88
52320,control_change,0,0,3,,,,,,,,,2,64,127,,
52320,note_on,160,0,3,,,,,,,,,2,,,64,0
52320,note_on,0,0,3,,,,,,,,,2,,,35,75
52320,control_change,0,0,1,,,,,,,,,0,64,127,,
52479,note_on,159,0,3,,,,,,,,,2,,,47,0
52479,note_on,0,0,3,,,,,,,,,2,,,35,0
52479,note_on,0,0,3,,,,,,,,,2,,,56,75
52640,note_on,161,0,3,,,,,,,,,2,,,56,0
52640,note_on,0,0,3,,,,,,,,,2,,,64,75
52800,note_on,0,0,1,,,,,,,,,0,,,71,0
52800,note_on,0,0,3,,,,,,,,,2,,,71,75
52800,note_on,160,0,3,,,,,,,,,2,,,64,0
52800,note_on,0,0,1,,,,,,,,,0,,,64,0
52800,note_on,480,0,1,,,,,,,,,0,,,80,0
52800,note_on,0,0,1,,,,,,,,,0,,,80,88
52959,note_on,0,0,1,,,,,,,,,0,,,73,88
52959,note_on,0,0,1,,,,,,,,,0,,,81,88
52959,note_on,159,0,1,,,,,,,,,0,,,80,0
53120,note_on,161,0,1,,,,,,,,,0,,,81,0
53120,note_on,0,0,1,,,,,,,,,0,,,73,0
53120,note_on,0,0,1,,,,,,,,,0,,,76,88
53120,note_on,0,0,1,,,,,,,,,0,,,85,88
53280,note_on,160,0,1,,,,,,,,,0,,,85,0
53280,note_on,480,0,3,,,,,,,,,2,,,71,0
53280,note_on,0,0,1,,,,,,,,,0,,,75,88
53280,note_on,0,0,1,,,,,,,,,0,,,83,88
53280,note_on,0,0,1,,,,,,,,,0,,,76,0
53439,note_on,0,0,1,,,,,,,,,0,,,75,0
53439,note_on,159,0,1,,,,,,,,,0,,,83,0
53439,note_on,0,0,1,,,,,,,,,0,,,68,88
53439,note_on,0,0,1,,,,,,,,,0,,,77,88
53600,note_on,161,0,1,,,,,,,,,0,,,77,0
53600,note_on,0,0,1,,,,,,,,,0,,,78,88
53600,note_on,0,0,1,,,,,,,,,0,,,69,88
53600,note_on,0,0,1,,,,,,,,,0,,,68,0
53760,note_on,160,0,1,,,,,,,,,0,,,78,0
53760,note_on,480,0,3,,,,,,,,,2,,,63,75
53760,note_on,0,0,1,,,,,,,,,0,,,69,0
53760,note_on,0,0,1,,,,,,,,,0,,,73,114
53760,control_change,0,0,1,,,,,,,,,0,64,0,,
53760,note_on,0,0,1,,,,,,,,,0,,,81,114
53919,note_on,159,0,3,,,,,,,,,2,,,63,0
53919,note_on,0,0,3,,,,,,,,,2,,,57,75
54080,note_on,161,0,3,,,,,,,,,2,,,57,0
54080,control_change,0,0,3,,,,,,,,,2,64,0,,
54080,note_on,0,0,3,,,,,,,,,2,,,47,75
54240,control_change,0,0,3,,,,,,,,,2,64,127,,
54240,note_on,160,0,3,,,,,,,,,2,,,47,0
54240,control_change,480,0,1,,,,,,,,,0,64,127,,
54240,note_on,0,0,3,,,,,,,,,2,,,47,75
54399,note_on,159,0,1,,,,,,,,,0,,,81,0
54399,note_on,0,0,1,,,,,,,,,0,,,70,88
54399,note_on,0,0,1,,,,,,,,,0,,,73,0
54399,note_on,0,0,1,,,,,,,,,0,,,79,88
54399,note_on,159,0,3,,,,,,,,,2,,,47,0
54399,note_on,0,0,3,,,,,,,,,2,,,56,75
54560,note_on,0,0,1,,,,,,,,,0,,,70,0
54560,note_on,0,0,1,,,,,,,,,0,,,71,88
54560,note_on,0,0,1,,,,,,,,,0,,,80,88
54560,note_on,0,0,3,,,,,,,,,2,,,64,75
54560,note_on,161,0,1,,,,,,,,,0,,,79,0
54560,note_on,161,0,3,,,,,,,,,2,,,56,0
54720,note_on,0,0,3,,,,,,,,,2,,,71,75
54720,note_on,160,0,1,,,,,,,,,0,,,80,0
54720,note_on,160,0,3,,,,,,,,,2,,,64,0
54720,note_on,0,0,1,,,,,,,,,0,,,71,0
54720,note_on,0,0,1,,,,,,,,,0,,,80,88
54879,note_on,0,0,1,,,,,,,,,0,,,75,88
54879,note_on,0,0,1,,,,,,,,,0,,,83,88
54879,note_on,159,0,1,,,,,,,,,0,,,80,0
55040,note_on,0,0,1,,,,,,,,,0,,,73,88
55040,note_on,0,0,1,,,,,,,,,0,,,81,88
55040,note_on,0,0,1,,,,,,,,,0,,,75,0
55040,note_on,161,0,1,,,,,,,,,0,,,83,0
55200,note_on,0,0,1,,,,,,,,,0,,,73,0
55200,note_on,0,0,1,,,,,,,,,0,,,80,88
55200,note_on,480,0,3,,,,,,,,,2,,,71,0
55200,note_on,160,0,1,,,,,,,,,0,,,81,0
55200,note_on,0,0,1,,,,,,,,,0,,,71,88
55359,note_on,0,0,1,,,,,,,,,0,,,71,0
55359,note_on,0,0,1,,,,,,,,,0,,,77,88
55359,note_on,0,0,1,,,,,,,,,0,,,68,88
55359,note_on,159,0,1,,,,,,,,,0,,,80,0
55520,note_on,0,0,1,,,,,,,,,0,,,78,88
55520,note_on,0,0,1,,,,,,,,,0,,,69,88
55520,note_on,0,0,1,,,,,,,,,0,,,68,0
55520,note_on,161,0,1,,,,,,,,,0,,,77,0
55680,note_on,160,0,1,,,,,,,,,0,,,78,0
55680,note_on,480,0,3,,,,,,,,,2,,,63,75
55680,note_on,0,0,1,,,,,,,,,0,,,69,0
55680,note_on,0,0,1,,,,,,,,,0,,,70,88
55680,note_on,0,0,1,,,,,,,,,0,,,79,88
55839,note_on,159,0,3,,,,,,,,,2,,,63,0
55839,note_on,159,0,1,,,,,,,,,0,,,79,0
55839,note_on,0,0,1,,,,,,,,,0,,,70,0
55839,note_on,0,0,1,,,,,,,,,0,,,73,88
55839,note_on,0,0,1,,,,,,,,,0,,,81,88
55839,note_on,0,0,3,,,,,,,,,2,,,57,75
56000,note_on,0,0,1,,,,,,,,,0,,,73,0
56000,control_change,0,0,3,,,,,,,,,2,64,0,,
56000,note_on,161,0,3,,,,,,,,,2,,,57,0
56000,note_on,0,0,1,,,,,,,,,0,,,80,88
56000,note_on,161,0,1,,,,,,,,,0,,,81,0
56000,note_on,0,0,3,,,,,,,,,2,,,47,75
56000,note_on,0,0,1,,,,,,,,,0,,,71,88
56000,control_change,0,0,1,,,,,,,,,0,64,0,,
56160,note_on,160,0,1,,,,,,,,,0,,,80,0
56160,control_change,0,0,3,,,,,,,,,2,64,127,,
56160,note_on,0,0,1,,,,,,,,,0,,,76,88
56160,note_on,0,0,3,,,,,,,,,2,,,47,75
56160,note_on,160,0,3,,,,,,,,,2,,,47,0
56160,note_on,0,0,1,,,,,,,,,0,,,71,0
56160,note_on,0,0,1,,,,,,,,,0,,,68,88
56160,control_change,0,0,1,,,,,,,,,0,64,127,,
56319,note_on,0,0,3,,,,,,,,,2,,,56,75
56319,note_on,159,0,3,,,,,,,,,2,,,47,0
56480,note_on,0,0,3,,,,,,,,,2,,,64,75
56480,note_on,161,0,3,,,,,,,,,2,,,56,0
56640,note_on,160,0,3,,,,,,,,,2,,,64,0
56640,note_on,0,0,3,,,,,,,,,2,,,71,75
56640,note_on,480,0,1,,,,,,,,,0,,,76,0
56640,note_on,0,0,1,,,,,,,,,0,,,68,0
56640,note_on,0,0,1,,,,,,,,,0,,,83,88
56640,note_on,0,0,1,,,,,,,,,0,,,92,88
56799,note_on,159,0,1,,,,,,,,,0,,,92,0
56799,note_on,0,0,1,,,,,,,,,0,,,83,0
56799,note_on,0,0,1,,,,,,,,,0,,,85,88
56799,note_on,0,0,1,,,,,,,,,0,,,93,88
56960,note_on,0,0,1,,,,,,,,,0,,,97,88
56960,note_on,161,0,1,,,,,,,,,0,,,93,0
56960,note_on,0,0,1,,,,,,,,,0,,,85,0
56960,note_on,0,0,1,,,,,,,,,0,,,88,88
57120,note_on,160,0,1,,,,,,,,,0,,,97,0
57120,note_on,0,0,1,,,,,,,,,0,,,87,88
57120,note_on,0,0,1,,,,,,,,,0,,,95,88
57120,note_on,480,0,3,,,,,,,,,2,,,71,0
57120,note_on,0,0,1,,,,,,,,,0,,,88,0
57279,note_on,0,0,1,,,,,,,,,0,,,80,88
57279,note_on,0,0,1,,,,,,,,,0,,,87,0
57279,note_on,0,0,1,,,,,,,,,0,,,89,88
57279,note_on,159,0,1,,,,,,,,,0,,,95,0
57440,note_on,161,0,1,,,,,,,,,0,,,89,0
57440,note_on,0,0,1,,,,,,,,,0,,,80,0
57440,note_on,0,0,1,,,,,,,,,0,,,81,88
57440,note_on,0,0,1,,,,,,,,,0,,,90,88
57600,control_change,0,0,1,,,,,,,,,0,64,0,,
57600,note_on,0,0,1,,,,,,,,,0,,,93,114
57600,note_on,480,0,3,,,,,,,,,2,,,63,75
57600,note_on,0,0,1,,,,,,,,,0,,,81,0
57600,note_on,160,0,1,,,,,,,,,0,,,90,0
57600,note_on,0,0,1,,,,,,,,,0,,,85,114
57759,note_on,159,0,3,,,,,,,,,2,,,63,0
57759,note_on,0,0,3,,,,,,,,,2,,,57,75
57920,note_on,161,0,3,,,,,,,,,2,,,57,0
57920,control_change,0,0,3,,,,,,,,,2,64,0,,
57920,note_on,0,0,3,,,,,,,,,2,,,47,75
58080,note_on,160,0,3,,,,,,,,,2,,,47,0
58080,control_change,480,0,1,,,,,,,,,0,64,127,,
58080,note_on,0,0,3,,,,,,,,,2,,,47,75
58080,control_change,0,0,3,,,,,,,,,2,64,127,,
58239,note_on,159,0,1,,,,,,,,,0,,,93,0
58239,note_on,0,0,1,,,,,,,,,0,,,91,88
58239,note_on,0,0,3,,,,,,,,,2,,,56,75
58239,note_on,0,0,1,,,,,,,,,0,,,85,0
58239,note_on,159,0,3,,,,,,,,,2,,,47,0
58239,note_on,0,0,1,,,,,,,,,0,,,82,88
58400,note_on,0,0,1,,,,,,,,,0,,,82,0
58400,note_on,0,0,1,,,,,,,,,0,,,83,88
58400,note_on,0,0,1,,,,,,,,,0,,,92,88
58400,note_on,161,0,3,,,,,,,,,2,,,56,0
58400,note_on,161,0,1,,,,,,,,,0,,,91,0
58400,note_on,0,0,3,,,,,,,,,2,,,64,75
58560,note_on,0,0,3,,,,,,,,,2,,,71,75
58560,note_on,160,0,3,,,,,,,,,2,,,64,0
58560,note_on,160,0,1,,,,,,,,,0,,,92,0
58560,note_on,0,0,1,,,,,,,,,0,,,92,88
58560,note_on,0,0,1,,,,,,,,,0,,,83,0
58560,note_on,0,0,1,,,,,,,,,0,,,84,88
58719,note_on,159,0,1,,,,,,,,,0,,,92,0
58719,note_on,0,0,1,,,,,,,,,0,,,84,0
58719,note_on,0,0,1,,,,,,,,,0,,,87,88
58719,note_on,0,0,1,,,,,,,,,0,,,95,88
58880,note_on,0,0,1,,,,,,,,,0,,,93,88
58880,note_on,0,0,1,,,,,,,,,0,,,87,0
58880,note_on,0,0,1,,,,,,,,,0,,,85,88
58880,note_on,161,0,1,,,,,,,,,0,,,95,0
59040,note_on,0,0,1,,,,,,,,,0,,,83,88
59040,note_on,160,0,1,,,,,,,,,0,,,93,0
59040,note_on,0,0,1,,,,,,,,,0,,,85,0
59040,note_on,480,0,3,,,,,,,,,2,,,71,0
59040,note_on,0,0,1,,,,,,,,,0,,,92,88
59199,note_on,0,0,1,,,,,,,,,0,,,80,88
59199,note_on,0,0,1,,,,,,,,,0,,,83,0
59199,note_on,0,0,1,,,,,,,,,0,,,89,88
59199,note_on,159,0,1,,,,,,,,,0,,,92,0
59360,note_on,0,0,1,,,,,,,,,0,,,81,88
59360,note_on,161,0,1,,,,,,,,,0,,,89,0
59360,note_on,0,0,1,,,,,,,,,0,,,80,0
59360,note_on,0,0,1,,,,,,,,,0,,,90,88
59520,note_on,160,0,1,,,,,,,,,0,,,90,0
59520,note_on,0,0,1,,,,,,,,,0,,,81,0
59520,note_on,0,0,1,,,,,,,,,0,,,85,88
59520,note_on,480,0,3,,,,,,,,,2,,,63,75
59520,note_on,0,0,1,,,,,,,,,0,,,93,88
59679,note_on,159,0,1,,,,,,,,,0,,,93,0
59679,note_on,0,0,1,,,,,,,,,0,,,85,0
59679,note_on,0,0,1,,,,,,,,,0,,,92,88
59679,note_on,0,0,3,,,,,,,,,2,,,57,75
59679,note_on,159,0,3,,,,,,,,,2,,,63,0
59679,note_on,0,0,1,,,,,,,,,0,,,83,88
59840,note_on,161,0,1,,,,,,,,,0,,,92,0
59840,note_on,0,0,1,,,,,,,,,0,,,81,88
59840,note_on,161,0,3,,,,,,,,,2,,,57,0
59840,control_change,0,0,3,,,,,,,,,2,64,0,,
59840,control_change,0,0,1,,,,,,,,,0,64,0,,
59840,note_on,0,0,1,,,,,,,,,0,,,83,0
59840,note_on,0,0,3,,,,,,,,,2,,,47,75
59840,note_on,0,0,1,,,,,,,,,0,,,90,88
60000,note_on,160,0,1,,,,,,,,,0,,,90,0
60000,set_tempo,21120,1,0,,,,,,444444,,,,,,,
60000,note_on,160,0,3,,,,,,,,,2,,,47,0
60000,note_on,0,0,1,,,,,,,,,0,,,80,88
60000,note_on,0,0,1,,,,,,,,,0,,,81,0
60000,note_on,0,0,3,,,,,,,,,2,,,47,75
60000,control_change,0,0,3,,,,,,,,,2,64,127,,
60000,note_on,0,0,1,,,,,,,,,0,,,89,88
60000,control_change,0,0,1,,,,,,,,,0,64,127,,
60159,note_on,159,0,1,,,,,,,,,0,,,89,0
60159,note_on,159,0,3,,,,,,,,,2,,,47,0
60159,note_on,0,0,1,,,,,,,,,0,,,67,75
60159,note_on,0,0,3,,,,,,,,,2,,,62,75
60159,note_on,0,0,1,,,,,,,,,0,,,76,75
60159,note_on,0,0,1,,,,,,,,,0,,,80,0
60320,note_on,161,0,3,,,,,,,,,2,,,62,0
60320,note_on,0,0,3,,,,,,,,,2,,,56,75
60320,note_on,0,0,3,,,,,,,,,2,,,53,75
60320,note_on,0,0,1,,,,,,,,,0,,,67,0
60320,note_on,0,0,1,,,,,,,,,0,,,77,88
60320,note_on,0,0,1,,,,,,,,,0,,,68,88
60320,note_on,161,0,1,,,,,,,,,0,,,76,0
60480,note_on,160,0,1,,,,,,,,,0,,,77,0
60480,note_on,160,0,3,,,,,,,,,2,,,56,0
60480,note_on,0,0,3,,,,,,,,,2,,,48,75
60480,note_on,0,0,3,,,,,,,,,2,,,53,0
60480,note_on,0,0,1,,,,,,,,,0,,,72,88
60480,note_on,0,0,1,,,,,,,,,0,,,80,88
60480,note_on,0,0,1,,,,,,,,,0,,,68,0
60639,note_on,0,0,3,,,,,,,,,2,,,60,75
60639,note_on,159,0,3,,,,,,,,,2,,,48,0
60800,note_on,0,0,3,,,,,,,,,2,,,56,75
60800,note_on,161,0,3,,,,,,,,,2,,,60,0
60800,note_on,0,0,3,,,,,,,,,2,,,53,75
60960,note_on,0,0,3,,,,,,,,,2,,,50,75
60960,note_on,0,0,3,,,,,,,,,2,,,53,0
60960,note_on,0,0,1,,,,,,,,,0,,,72,0
60960,note_on,480,0,1,,,,,,,,,0,,,80,0
60960,note_on,160,0,3,,,,,,,,,2,,,56,0
61119,note_on,0,0,3,,,,,,,,,2,,,65,75
61119,note_on,0,0,1,,,,,,,,,0,,,88,75
61119,note_on,159,0,3,,,,,,,,,2,,,50,0
61119,note_on,159,0,1,,,,,,,,,0,,,79,75
61280,note_on,0,0,1,,,,,,,,,0,,,80,75
61280,note_on,0,0,1,,,,,,,,,0,,,79,0
61280,note_on,0,0,1,,,,,,,,,0,,,89,75
61280,note_on,0,0,3,,,,,,,,,2,,,59,75
61280,note_on,161,0,3,,,,,,,,,2,,,65,0
61280,note_on,161,0,1,,,,,,,,,0,,,88,0
61280,note_on,0,0,3,,,,,,,,,2,,,56,75
61440,note_on,0,0,1,,,,,,,,,0,,,81,75
61440,note_on,0,0,1,,,,,,,,,0,,,90,75
61440,note_on,0,0,3,,,,,,,,,2,,,56,0
61440,note_on,0,0,3,,,,,,,,,2,,,51,75
61440,note_on,160,0,1,,,,,,,,,0,,,89,0
61440,note_on,160,0,3,,,,,,,,,2,,,59,0
61440,note_on,0,0,1,,,,,,,,,0,,,80,0
61599,note_on,159,0,3,,,,,,,,,2,,,51,0
61599,note_on,0,0,1,,,,,,,,,0,,,81,0
61599,note_on,0,0,1,,,,,,,,,0,,,82,88
61599,note_on,0,0,1,,,,,,,,,0,,,91,88
61599,note_on,0,0,3,,,,,,,,,2,,,63,75
61599,note_on,159,0,1,,,,,,,,,0,,,90,0
61760,control_change,0,0,3,,,,,,,,,2,64,0,,
61760,note_on,161,0,1,,,,,,,,,0,,,91,0
61760,note_on,0,0,3,,,,,,,,,2,,,56,75
61760,note_on,0,0,3,,,,,,,,,2,,,59,75
61760,note_on,0,0,1,,,,,,,,,0,,,92,88
61760,note_on,0,0,1,,,,,,,,,0,,,83,88
61760,note_on,0,0,1,,,,,,,,,0,,,82,0
61760,note_on,161,0,3,,,,,,,,,2,,,63,0
61760,control_change,0,0,1,,,,,,,,,0,64,0,,
61920,control_change,0,0,1,,,,,,,,,0,64,127,,
61920,note_on,0,0,1,,,,,,,,,0,,,83,0
61920,note_on,160,0,3,,,,,,,,,2,,,59,0
61920,note_on,0,0,1,,,,,,,,,0,,,95,88
61920,control_change,0,0,3,,,,,,,,,2,64,127,,
61920,note_on,160,0,1,,,,,,,,,0,,,92,0
61920,note_on,0,0,3,,,,,,,,,2,,,56,0
61920,note_on,0,0,3,,,,,,,,,2,,,53,75
61920,note_on,0,0,1,,,,,,,,,0,,,86,88
62079,note_on,159,0,1,,,,,,,,,0,,,95,0
62079,note_on,159,0,3,,,,,,,,,2,,,53,0
62079,note_on,0,0,3,,,,,,,,,2,,,68,75
62079,note_on,0,0,1,,,,,,,,,0,,,86,0
62079,note_on,0,0,1,,,,,,,,,0,,,82,75
62079,note_on,0,0,1,,,,,,,,,0,,,73,75
62240,note_on,0,0,1,,,,,,,,,0,,,83,75
62240,note_on,161,0,1,,,,,,,,,0,,,82,0
62240,note_on,0,0,1,,,,,,,,,0,,,74,75
62240,note_on,0,0,1,,,,,,,,,0,,,73,0
62240,note_on,161,0,3,,,,,,,,,2,,,68,0
62240,note_on,0,0,3,,,,,,,,,2,,,59,75
62240,note_on,0,0,3,,,,,,,,,2,,,62,75
62400,note_on,160,0,1,,,,,,,,,0,,,83,0
62400,note_on,0,0,1,,,,,,,,,0,,,78,88
62400,note_on,0,0,1,,,,,,,,,0,,,86,88
62400,note_on,0,0,1,,,,,,,,,0,,,74,0
62400,note_on,0,0,3,,,,,,,,,2,,,59,0
62400,note_on,0,0,3,,,,,,,,,2,,,54,75
62400,note_on,160,0,3,,,,,,,,,2,,,62,0
62559,note_on,159,0,3,,,,,,,,,2,,,54,0
62559,note_on,0,0,3,,,,,,,,,2,,,66,75
62720,note_on,0,0,3,,,,,,,,,2,,,62,75
62720,note_on,161,0,3,,,,,,,,,2,,,66,0
62720,note_on,0,0,3,,,,,,,,,2,,,59,75
62880,note_on,160,0,3,,,,,,,,,2,,,62,0
62880,note_on,480,0,1,,,,,,,,,0,,,86,0
62880,note_on,0,0,1,,,,,,,,,0,,,78,0
62880,note_on,0,0,3,,,,,,,,,2,,,59,0
62880,note_on,0,0,3,,,,,,,,,2,,,56,75
63039,note_on,159,0,1,,,,,,,,,0,,,85,75
63039,note_on,0,0,3,,,,,,,,,2,,,71,75
63039,note_on,0,0,1,,,,,,,,,0,,,94,75
63039,note_on,159,0,3,,,,,,,,,2,,,56,0
63200,note_on,0,0,1,,,,,,,,,0,,,85,0
63200,note_on,161,0,1,,,,,,,,,0,,,94,0
63200,note_on,0,0,1,,,,,,,,,0,,,95,75
63200,note_on,0,0,3,,,,,,,,,2,,,65,75
63200,note_on,0,0,1,,,,,,,,,0,,,86,75
63200,note_on,161,0,3,,,,,,,,,2,,,71,0
63200,note_on,0,0,3,,,,,,,,,2,,,62,75
63360,note_on,160,0,1,,,,,,,,,0,,,95,0
63360,note_on,0,0,1,,,,,,,,,0,,,86,0
63360,note_on,0,0,1,,,,,,,,,0,,,87,88
63360,note_on,0,0,1,,,,,,,,,0,,,96,88
63360,note_on,160,0,3,,,,,,,,,2,,,65,0
63360,note_on,0,0,3,,,,,,,,,2,,,62,0
63360,note_on,0,0,3,,,,,,,,,2,,,57,75
63519,note_on,159,0,1,,,,,,,,,0,,,96,0
63519,note_on,0,0,1,,,,,,,,,0,,,88,88
63519,note_on,0,0,1,,,,,,,,,0,,,97,88
63519,note_on,0,0,3,,,,,,,,,2,,,69,75
63519,note_on,0,0,1,,,,,,,,,0,,,87,0
63519,note_on,159,0,3,,,,,,,,,2,,,57,0
63680,control_change,0,0,3,,,,,,,,,2,64,0,,
63680,note_on,161,0,1,,,,,,,,,0,,,97,0
63680,control_change,0,0,1,,,,,,,,,0,64,0,,
63680,note_on,0,0,1,,,,,,,,,0,,,89,88
63680,note_on,0,0,1,,,,,,,,,0,,,88,0
63680,note_on,0,0,3,,,,,,,,,2,,,65,75
63680,note_on,0,0,3,,,,,,,,,2,,,62,75
63680,note_on,161,0,3,,,,,,,,,2,,,69,0
63680,note_on,0,0,1,,,,,,,,,0,,,98,88
63750,note_on,70,0,3,,,,,,,,,2,,,59,75
63780,note_on,30,0,3,,,,,,,,,2,,,65,75
63810,note_on,30,0,3,,,,,,,,,2,,,68,75
63840,note_on,0,0,1,,,,,,,,,0,,,101,114
63840,note_on,0,0,1,,,,,,,,,0,,,92,114
63840,note_on,0,0,1,,,,,,,,,0,,,86,114
63840,note_on,0,0,1,,,,,,,,,0,,,89,0
63840,note_on,0,0,3,,,,,,,,,2,,,74,75
63840,note_on,0,0,3,,,,,,,,,2,,,62,0
63840,control_change,0,0,1,,,,,,,,,0,64,127,,
63840,control_change,0,0,3,,,,,,,,,2,64,127,,
63840,note_on,30,0,3,,,,,,,,,2,,,65,0
63840,note_on,160,0,1,,,,,,,,,0,,,98,0
63920,note_on,0,0,1,,,,,,,,,0,,,100,88
63920,note_on,0,0,1,,,,,,,,,0,,,92,0
63920,note_on,0,0,1,,,,,,,,,0,,,86,0
63920,note_on,80,0,1,,,,,,,,,0,,,101,0
63999,note_on,79,0,1,,,,,,,,,0,,,100,0
63999,note_on,0,0,1,,,,,,,,,0,,,99,88
64080,note_on,0,0,3,,,,,,,,,2,,,68,0
64080,note_on,0,0,3,,,,,,,,,2,,,65,0
64080,note_on,0,0,3,,,,,,,,,2,,,59,0
64080,note_on,240,0,3,,,,,,,,,2,,,74,0
64080,note_on,81,0,1,,,,,,,,,0,,,99,0
64080,note_on,0,0,1,,,,,,,,,0,,,98,88
64160,note_on,0,0,1,,,,,,,,,0,,,97,88
64160,note_on,80,0,1,,,,,,,,,0,,,98,0
64239,note_on,79,0,1,,,,,,,,,0,,,97,0
64239,note_on,0,0,1,,,,,,,,,0,,,96,88
64320,note_on,0,0,1,,,,,,,,,0,,,98,88
64320,note_on,81,0,1,,,,,,,,,0,,,96,0
64400,note_on,0,0,1,,,,,,,,,0,,,97,88
64400,note_on,80,0,1,,,,,,,,,0,,,98,0
64479,note_on,79,0,1,,,,,,,,,0,,,97,0
64479,note_on,0,0,1,,,,,,,,,0,,,96,88
64560,note_on,81,0,1,,,,,,,,,0,,,96,0
64560,note_on,0,0,1,,,,,,,,,0,,,95,88
64640,note_on,0,0,1,,,,,,,,,0,,,94,88
64640,note_on,80,0,1,,,,,,,,,0,,,95,0
64719,note_on,79,0,1,,,,,,,,,0,,,94,0
64719,note_on,0,0,1,,,,,,,,,0,,,93,88
64800,note_on,81,0,1,,,,,,,,,0,,,93,0
64800,note_on,0,0,1,,,,,,,,,0,,,95,88
64800,control_change,720,0,3,,,,,,,,,2,64,0,,
64880,note_on,80,0,1,,,,,,,,,0,,,95,0
64880,note_on,0,0,1,,,,,,,,,0,,,94,88
64959,note_on,79,0,1,,,,,,,,,0,,,94,0
64959,note_on,0,0,1,,,,,,,,,0,,,93,88
65040,note_on,0,0,1,,,,,,,,,0,,,92,88
65040,note_on,81,0,1,,,,,,,,,0,,,93,0
65120,note_on,80,0,1,,,,,,,,,0,,,92,0
65120,note_on,0,0,1,,,,,,,,,0,,,91,88
65199,note_on,0,0,1,,,,,,,,,0,,,90,88
65199,note_on,79,0,1,,,,,,,,,0,,,91,0
65280,note_on,0,0,1,,,,,,,,,0,,,92,88
65280,note_on,81,0,1,,,,,,,,,0,,,90,0
65360,note_on,0,0,1,,,,,,,,,0,,,91,88
65360,note_on,80,0,1,,,,,,,,,0,,,92,0
65439,note_on,0,0,1,,,,,,,,,0,,,90,88
65439,note_on,79,0,1,,,,,,,,,0,,,91,0
65520,note_on,81,0,1,,,,,,,,,0,,,90,0
65520,note_on,0,0,1,,,,,,,,,0,,,89,88
65600,note_on,80,0,1,,,,,,,,,0,,,89,0
65600,note_on,0,0,1,,,,,,,,,0,,,88,88
65679,control_change,0,0,1,,,,,,,,,0,64,0,,
65679,note_on,79,0,1,,,,,,,,,0,,,88,0
65679,note_on,0,0,1,,,,,,,,,0,,,87,88
65760,note_on,0,0,1,,,,,,,,,0,,,89,88
65760,note_on,81,0,1,,,,,,,,,0,,,87,0
65760,control_change,0,0,1,,,,,,,,,0,64,127,,
65840,note_on,0,0,1,,,,,,,,,0,,,88,88
65840,note_on,80,0,1,,,,,,,,,0,,,89,0
65919,note_on,0,0,1,,,,,,,,,0,,,87,88
65919,note_on,79,0,1,,,,,,,,,0,,,88,0
66000,note_on,81,0,1,,,,,,,,,0,,,87,0
66000,note_on,0,0,1,,,,,,,,,0,,,86,88
66080,note_on,80,0,1,,,,,,,,,0,,,86,0
66080,note_on,0,0,1,,,,,,,,,0,,,85,88
66159,note_on,79,0,1,,,,,,,,,0,,,85,0
66159,note_on,0,0,1,,,,,,,,,0,,,84,88
66240,note_on,81,0,1,,,,,,,,,0,,,84,0
66240,note_on,0,0,1,,,,,,,,,0,,,86,88
66320,note_on,0,0,1,,,,,,,,,0,,,85,88
66320,note_on,80,0,1,,,,,,,,,0,,,86,0
66399,note_on,79,0,1,,,,,,,,,0,,,85,0
66399,note_on,0,0,1,,,,,,,,,0,,,84,88
66480,note_on,81,0,1,,,,,,,,,0,,,84,0
66480,note_on,0,0,1,,,,,,,,,0,,,83,88
66560,note_on,0,0,1,,,,,,,,,0,,,82,88
66560,note_on,80,0,1,,,,,,,,,0,,,83,0
66639,note_on,0,0,1,,,,,,,,,0,,,81,88
66639,note_on,79,0,1,,,,,,,,,0,,,82,0
66720,note_on,0,0,1,,,,,,,,,0,,,83,88
66720,note_on,81,0,1,,,,,,,,,0,,,81,0
66800,note_on,0,0,1,,,,,,,,,0,,,82,88
66800,note_on,80,0,1,,,,,,,,,0,,,83,0
66879,note_on,79,0,1,,,,,,,,,0,,,82,0
66879,note_on,0,0,1,,,,,,,,,0,,,81,88
66960,note_on,0,0,1,,,,,,,,,0,,,80,88
66960,note_on,81,0,1,,,,,,,,,0,,,81,0
67040,note_on,80,0,1,,,,,,,,,0,,,80,0
67040,note_on,0,0,1,,,,,,,,,0,,,79,88
67119,note_on,79,0,1,,,,,,,,,0,,,79,0
67119,note_on,0,0,1,,,,,,,,,0,,,78,88
67200,note_on,0,0,1,,,,,,,,,0,,,80,88
67200,note_on,81,0,1,,,,,,,,,0,,,78,0
67280,note_on,80,0,1,,,,,,,,,0,,,80,0
67280,note_on,0,0,1,,,,,,,,,0,,,79,88
67359,note_on,79,0,1,,,,,,,,,0,,,79,0
67359,note_on,0,0,1,,,,,,,,,0,,,78,88
67440,note_on,0,0,1,,,,,,,,,0,,,77,88
67440,note_on,81,0,1,,,,,,,,,0,,,78,0
67520,note_on,80,0,1,,,,,,,,,0,,,77,0
67520,note_on,0,0,1,,,,,,,,,0,,,76,88
67599,note_on,79,0,1,,,,,,,,,0,,,76,0
67599,note_on,0,0,1,,,,,,,,,0,,,75,88
67680,control_change,0,0,1,,,,,,,,,0,64,127,,
67680,time_signature,7680,1,0,1,4,24,8,,,,,,,,,
67680,note_on,81,0,1,,,,,,,,,0,,,75,0
67680,note_on,0,0,1,,,,,,,,,0,,,77,88
67760,note_on,0,0,1,,,,,,,,,0,,,76,88
67760,note_on,80,0,1,,,,,,,,,0,,,77,0
67839,note_on,0,0,1,,,,,,,,,0,,,75,88
67839,note_on,79,0,1,,,,,,,,,0,,,76,0
67920,note_on,0,0,1,,,,,,,,,0,,,74,88
67920,note_on,81,0,1,,,,,,,,,0,,,75,0
68000,note_on,0,0,1,,,,,,,,,0,,,73,88
68000,note_on,80,0,1,,,,,,,,,0,,,74,0
68079,control_change,0,0,1,,,,,,,,,0,64,0,,
68079,note_on,0,0,1,,,,,,,,,0,,,72,88
68079,note_on,79,0,1,,,,,,,,,0,,,73,0
68160,note_on,0,0,1,,,,,,,,,0,,,74,88
68160,control_change,0,0,1,,,,,,,,,0,64,127,,
68160,time_signature,480,1,0,4,4,24,8,,,,,,,,,
68160,note_on,81,0,1,,,,,,,,,0,,,72,0
68240,note_on,0,0,1,,,,,,,,,0,,,73,88
68240,note_on,80,0,1,,,,,,,,,0,,,74,0
68319,note_on,0,0,1,,,,,,,,,0,,,72,88
68319,note_on,79,0,1,,,,,,,,,0,,,73,0
68400,note_on,81,0,1,,,,,,,,,0,,,72,0
68400,note_on,0,0,1,,,,,,,,,0,,,71,88
68480,note_on,0,0,1,,,,,,,,,0,,,70,88
68480,note_on,80,0,1,,,,,,,,,0,,,71,0
68559,note_on,79,0,1,,,,,,,,,0,,,70,0
68559,note_on,0,0,1,,,,,,,,,0,,,71,88
68640,note_on,81,0,1,,,,,,,,,0,,,71,0
68640,note_on,0,0,1,,,,,,,,,0,,,74,75
68720,note_on,0,0,1,,,,,,,,,0,,,73,75
68720,note_on,80,0,1,,,,,,,,,0,,,74,0
68799,note_on,0,0,1,,,,,,,,,0,,,72,75
68799,note_on,79,0,1,,,,,,,,,0,,,73,0
68880,note_on,0,0,1,,,,,,,,,0,,,71,75
68880,note_on,81,0,1,,,,,,,,,0,,,72,0
68960,note_on,80,0,1,,,,,,,,,0,,,71,0
68960,note_on,0,0,1,,,,,,,,,0,,,70,75
69039,note_on,0,0,1,,,,,,,,,0,,,71,75
69039,note_on,79,0,1,,,,,,,,,0,,,70,0
69120,note_on,81,0,1,,,,,,,,,0,,,71,0
69120,note_on,0,0,1,,,,,,,,,0,,,74,75
69200,note_on,80,0,1,,,,,,,,,0,,,74,0
69200,note_on,0,0,1,,,,,,,,,0,,,73,75
69279,note_on,79,0,1,,,,,,,,,0,,,73,0
69279,note_on,0,0,1,,,,,,,,,0,,,72,75
69360,note_on,81,0,1,,,,,,,,,0,,,72,0
69360,note_on,0,0,1,,,,,,,,,0,,,71,75
69440,note_on,0,0,1,,,,,,,,,0,,,70,75
69440,note_on,80,0,1,,,,,,,,,0,,,71,0
69519,note_on,0,0,1,,,,,,,,,0,,,71,75
69519,note_on,79,0,1,,,,,,,,,0,,,70,0
69600,note_on,0,0,1,,,,,,,,,0,,,74,62
69600,note_on,81,0,1,,,,,,,,,0,,,71,0
69680,note_on,80,0,1,,,,,,,,,0,,,74,0
69680,note_on,0,0,1,,,,,,,,,0,,,73,62
69759,note_on,79,0,1,,,,,,,,,0,,,73,0
69759,note_on,0,0,1,,,,,,,,,0,,,72,62
69840,note_on,81,0,1,,,,,,,,,0,,,72,0
69840,note_on,0,0,1,,,,,,,,,0,,,71,62
69920,note_on,0,0,1,,,,,,,,,0,,,70,62
69920,note_on,80,0,1,,,,,,,,,0,,,71,0
69999,control_change,0,0,1,,,,,,,,,0,64,0,,
69999,note_on,0,0,1,,,,,,,,,0,,,71,62
69999,note_on,79,0,1,,,,,,,,,0,,,70,0
70080,note_on,0,0,1,,,,,,,,,0,,,73,62
70080,control_change,0,0,1,,,,,,,,,0,64,127,,
70080,note_on,81,0,1,,,,,,,,,0,,,71,0
70176,note_on,0,0,1,,,,,,,,,0,,,72,62
70176,note_on,96,0,1,,,,,,,,,0,,,73,0
70272,note_on,0,0,1,,,,,,,,,0,,,71,62
70272,note_on,96,0,1,,,,,,,,,0,,,72,0
70367,note_on,95,0,1,,,,,,,,,0,,,71,0
70367,note_on,0,0,1,,,,,,,,,0,,,70,62
70463,note_on,0,0,1,,,,,,,,,0,,,71,62
70463,note_on,96,0,1,,,,,,,,,0,,,70,0
70560,note_on,97,0,1,,,,,,,,,0,,,71,0
70560,note_on,0,0,1,,,,,,,,,0,,,73,62
70656,note_on,96,0,1,,,,,,,,,0,,,73,0
70656,note_on,0,0,1,,,,,,,,,0,,,72,62
70752,note_on,96,0,1,,,,,,,,,0,,,72,0
70752,note_on,0,0,1,,,,,,,,,0,,,71,62
70847,note_on,0,0,1,,,,,,,,,0,,,70,62
70847,note_on,95,0,1,,,,,,,,,0,,,71,0
70943,note_on,0,0,1,,,,,,,,,0,,,71,62
70943,note_on,96,0,1,,,,,,,,,0,,,70,0
71040,note_on,0,0,1,,,,,,,,,0,,,73,49
71040,note_on,97,0,1,,,,,,,,,0,,,71,0
71136,note_on,0,0,1,,,,,,,,,0,,,72,49
71136,note_on,96,0,1,,,,,,,,,0,,,73,0
71232,note_on,0,0,1,,,,,,,,,0,,,71,49
71232,note_on,96,0,1,,,,,,,,,0,,,72,0
71327,note_on,95,0,1,,,,,,,,,0,,,71,0
71327,note_on,0,0,1,,,,,,,,,0,,,70,49
71423,note_on,0,0,1,,,,,,,,,0,,,71,49
71423,note_on,96,0,1,,,,,,,,,0,,,70,0
71520,note_on,0,0,1,,,,,,,,,0,,,73,49
71520,note_on,97,0,1,,,,,,,,,0,,,71,0
71616,note_on,96,0,1,,,,,,,,,0,,,73,0
71616,note_on,0,0,1,,,,,,,,,0,,,72,49
71712,note_on,0,0,1,,,,,,,,,0,,,71,49
71712,note_on,96,0,1,,,,,,,,,0,,,72,0
71807,note_on,95,0,1,,,,,,,,,0,,,71,0
71807,note_on,0,0,1,,,,,,,,,0,,,70,49
71903,note_on,0,0,1,,,,,,,,,0,,,71,49
71903,note_on,96,0,1,,,,,,,,,0,,,70,0
72000,time_signature,3840,1,0,1,4,24,8,,,,,,,,,
72000,note_on,0,0,1,,,,,,,,,0,,,73,49
72000,note_on,97,0,1,,,,,,,,,0,,,71,0
72096,note_on,0,0,1,,,,,,,,,0,,,72,49
72096,note_on,96,0,1,,,,,,,,,0,,,73,0
72192,note_on,0,0,1,,,,,,,,,0,,,71,49
72192,note_on,96,0,1,,,,,,,,,0,,,72,0
72287,note_on,0,0,1,,,,,,,,,0,,,70,49
72287,note_on,95,0,1,,,,,,,,,0,,,71,0
72383,note_on,96,0,1,,,,,,,,,0,,,70,0
72383,note_on,0,0,1,,,,,,,,,0,,,71,49
72480,time_signature,480,1,0,4,4,24,8,,,,,,,,,
72480,note_on,0,0,1,,,,,,,,,0,,,73,49
72480,set_tempo,0,1,0,,,,,,480000,,,,,,,
72480,note_on,97,0,1,,,,,,,,,0,,,71,0
72576,note_on,0,0,1,,,,,,,,,0,,,72,49
72576,note_on,96,0,1,,,,,,,,,0,,,73,0
72672,note_on,96,0,1,,,,,,,,,0,,,72,0
72672,note_on,0,0,1,,,,,,,,,0,,,71,49
72767,note_on,95,0,1,,,,,,,,,0,,,71,0
72767,note_on,0,0,1,,,,,,,,,0,,,70,49
72863,control_change,0,0,1,,,,,,,,,0,64,0,,
72863,note_on,96,0,1,,,,,,,,,0,,,70,0
72863,note_on,0,0,1,,,,,,,,,0,,,71,49
72960,control_change,0,0,1,,,,,,,,,0,64,127,,
72960,note_on,97,0,1,,,,,,,,,0,,,71,0
72960,note_on,0,0,3,,,,,,,,,2,,,56,49
72960,note_on,0,0,1,,,,,,,,,0,,,72,62
72960,control_change,8160,0,3,,,,,,,,,2,64,127,,
73028,note_on,0,0,1,,,,,,,,,0,,,73,62
73028,note_on,68,0,1,,,,,,,,,0,,,72,0
73097,note_on,0,0,1,,,,,,,,,0,,,74,62
73097,note_on,69,0,1,,,,,,,,,0,,,73,0
73119,note_on,159,0,3,,,,,,,,,2,,,56,0
73119,note_on,0,0,3,,,,,,,,,2,,,65,49
73165,note_on,0,0,1,,,,,,,,,0,,,75,62
73165,note_on,68,0,1,,,,,,,,,0,,,74,0
73234,note_on,0,0,1,,,,,,,,,0,,,76,62
73234,note_on,69,0,1,,,,,,,,,0,,,75,0
73280,note_on,0,0,3,,,,,,,,,2,,,60,49
73280,note_on,161,0,3,,,,,,,,,2,,,65,0
73302,note_on,68,0,1,,,,,,,,,0,,,76,0
73302,note_on,0,0,1,,,,,,,,,0,,,77,62
73371,note_on,0,0,1,,,,,,,,,0,,,76,62
73371,note_on,69,0,1,,,,,,,,,0,,,77,0
73440,note_on,0,0,1,,,,,,,,,0,,,75,62
73440,note_on,69,0,1,,,,,,,,,0,,,76,0
73440,note_on,160,0,3,,,,,,,,,2,,,60,0
73440,note_on,0,0,3,,,,,,,,,2,,,55,49
73508,note_on,68,0,1,,,,,,,,,0,,,75,0
73508,note_on,0,0,1,,,,,,,,,0,,,74,62
73577,note_on,0,0,1,,,,,,,,,0,,,73,62
73577,note_on,69,0,1,,,,,,,,,0,,,74,0
73599,note_on,159,0,3,,,,,,,,,2,,,55,0
73599,note_on,0,0,3,,,,,,,,,2,,,63,49
73645,note_on,0,0,1,,,,,,,,,0,,,72,62
73645,note_on,68,0,1,,,,,,,,,0,,,73,0
73714,note_on,0,0,1,,,,,,,,,0,,,71,62
73714,note_on,69,0,1,,,,,,,,,0,,,72,0
73760,note_on,0,0,3,,,,,,,,,2,,,58,49
73760,note_on,161,0,3,,,,,,,,,2,,,63,0
73782,note_on,0,0,1,,,,,,,,,0,,,70,62
73782,note_on,68,0,1,,,,,,,,,0,,,71,0
73851,note_on,69,0,1,,,,,,,,,0,,,70,0
73851,note_on,0,0,1,,,,,,,,,0,,,69,62
73920,note_on,160,0,3,,,,,,,,,2,,,58,0
73920,note_on,69,0,1,,,,,,,,,0,,,69,0
73920,note_on,0,0,3,,,,,,,,,2,,,53,49
73920,note_on,0,0,1,,,,,,,,,0,,,68,62
73988,note_on,0,0,1,,,,,,,,,0,,,69,62
73988,note_on,68,0,1,,,,,,,,,0,,,68,0
74057,note_on,0,0,1,,,,,,,,,0,,,70,62
74057,note_on,69,0,1,,,,,,,,,0,,,69,0
74079,note_on,0,0,3,,,,,,,,,2,,,61,49
74079,note_on,159,0,3,,,,,,,,,2,,,53,0
74125,note_on,68,0,1,,,,,,,,,0,,,70,0
74125,note_on,0,0,1,,,,,,,,,0,,,71,62
74194,note_on,0,0,1,,,,,,,,,0,,,72,62
74194,note_on,69,0,1,,,,,,,,,0,,,71,0
74240,note_on,161,0,3,,,,,,,,,2,,,61,0
74240,control_change,0,0,3,,,,,,,,,2,64,0,,
74240,note_on,0,0,3,,,,,,,,,2,,,56,49
74262,note_on,68,0,1,,,,,,,,,0,,,72,0
74262,note_on,0,0,1,,,,,,,,,0,,,75,62
74331,note_on,69,0,1,,,,,,,,,0,,,75,0
74331,control_change,0,0,1,,,,,,,,,0,64,0,,
74331,note_on,0,0,1,,,,,,,,,0,,,73,62
74400,note_on,0,0,1,,,,,,,,,0,,,72,62
74400,note_on,69,0,1,,,,,,,,,0,,,73,0
74400,note_on,0,0,3,,,,,,,,,2,,,52,49
74400,note_on,160,0,3,,,,,,,,,2,,,56,0
74400,control_change,0,0,3,,,,,,,,,2,64,127,,
74400,time_signature,1920,1,0,2,4,24,8,,,,,,,,,
74400,control_change,0,0,1,,,,,,,,,0,64,127,,
74480,note_on,80,0,1,,,,,,,,,0,,,72,0
74480,note_on,0,0,1,,,,,,,,,0,,,71,62
74559,note_on,79,0,1,,,,,,,,,0,,,71,0
74559,note_on,159,0,3,,,,,,,,,2,,,52,0
74559,note_on,0,0,1,,,,,,,,,0,,,70,62
74559,note_on,0,0,3,,,,,,,,,2,,,60,49
74640,note_on,81,0,1,,,,,,,,,0,,,70,0
74640,note_on,0,0,1,,,,,,,,,0,,,69,62
74720,note_on,161,0,3,,,,,,,,,2,,,60,0
74720,note_on,80,0,1,,,,,,,,,0,,,69,0
74720,note_on,0,0,1,,,,,,,,,0,,,68,62
74720,note_on,0,0,3,,,,,,,,,2,,,55,49
74799,note_on,79,0,1,,,,,,,,,0,,,68,0
74799,note_on,0,0,1,,,,,,,,,0,,,67,62
74880,note_on,0,0,1,,,,,,,,,0,,,66,62
74880,note_on,81,0,1,,,,,,,,,0,,,67,0
74880,note_on,160,0,3,,,,,,,,,2,,,55,0
74880,note_on,0,0,3,,,,,,,,,2,,,51,49
74960,note_on,0,0,1,,,,,,,,,0,,,65,62
74960,note_on,80,0,1,,,,,,,,,0,,,66,0
75039,note_on,0,0,1,,,,,,,,,0,,,64,62
75039,note_on,159,0,3,,,,,,,,,2,,,51,0
75039,note_on,79,0,1,,,,,,,,,0,,,65,0
75039,note_on,0,0,3,,,,,,,,,2,,,60,49
75120,note_on,81,0,1,,,,,,,,,0,,,64,0
75120,note_on,0,0,1,,,,,,,,,0,,,65,62
75200,note_on,80,0,1,,,,,,,,,0,,,65,0
75200,control_change,0,0,3,,,,,,,,,2,64,0,,
75200,note_on,0,0,3,,,,,,,,,2,,,57,49
75200,note_on,0,0,1,,,,,,,,,0,,,66,62
75200,note_on,161,0,3,,,,,,,,,2,,,60,0
75279,note_on,79,0,1,,,,,,,,,0,,,66,0
75279,note_on,0,0,1,,,,,,,,,0,,,67,62
75279,control_change,0,0,1,,,,,,,,,0,64,0,,
75360,note_on,0,0,3,,,,,,,,,2,,,50,49
75360,note_on,81,0,1,,,,,,,,,0,,,67,0
75360,note_on,160,0,3,,,,,,,,,2,,,57,0
75360,control_change,0,0,3,,,,,,,,,2,64,127,,
75360,control_change,0,0,1,,,,,,,,,0,64,127,,
75360,note_on,0,0,1,,,,,,,,,0,,,68,62
75428,note_on,68,0,1,,,,,,,,,0,,,68,0
75428,note_on,0,0,1,,,,,,,,,0,,,69,62
75497,note_on,0,0,1,,,,,,,,,0,,,70,62
75497,note_on,69,0,1,,,,,,,,,0,,,69,0
75519,note_on,0,0,3,,,,,,,,,2,,,58,49
75519,note_on,159,0,3,,,,,,,,,2,,,50,0
75565,note_on,0,0,1,,,,,,,,,0,,,71,62
75565,note_on,68,0,1,,,,,,,,,0,,,70,0
75634,note_on,0,0,1,,,,,,,,,0,,,72,62
75634,note_on,69,0,1,,,,,,,,,0,,,71,0
75680,note_on,161,0,3,,,,,,,,,2,,,58,0
75680,note_on,0,0,3,,,,,,,,,2,,,53,49
75702,note_on,0,0,1,,,,,,,,,0,,,73,62
75702,note_on,68,0,1,,,,,,,,,0,,,72,0
75771,note_on,0,0,1,,,,,,,,,0,,,74,62
75771,note_on,69,0,1,,,,,,,,,0,,,73,0
75840,note_on,0,0,1,,,,,,,,,0,,,75,62
75840,note_on,69,0,1,,,,,,,,,0,,,74,0
75840,note_on,160,0,3,,,,,,,,,2,,,53,0
75840,note_on,0,0,3,,,,,,,,,2,,,49,49
75920,note_on,80,0,1,,,,,,,,,0,,,75,0
75920,note_on,0,0,1,,,,,,,,,0,,,76,62
75999,note_on,79,0,1,,,,,,,,,0,,,76,0
75999,note_on,159,0,3,,,,,,,,,2,,,49,0
75999,note_on,0,0,1,,,,,,,,,0,,,77,62
75999,note_on,0,0,3,,,,,,,,,2,,,59,49
76080,note_on,81,0,1,,,,,,,,,0,,,77,0
76080,note_on,0,0,1,,,,,,,,,0,,,80,62
76160,note_on,80,0,1,,,,,,,,,0,,,80,0
76160,control_change,0,0,3,,,,,,,,,2,64,0,,
76160,note_on,161,0,3,,,,,,,,,2,,,59,0
76160,note_on,0,0,3,,,,,,,,,2,,,53,49
76160,note_on,0,0,1,,,,,,,,,0,,,79,62
76239,note_on,79,0,1,,,,,,,,,0,,,79,0
76239,note_on,0,0,1,,,,,,,,,0,,,78,62
76239,control_change,0,0,1,,,,,,,,,0,64,0,,
76320,note_on,160,0,3,,,,,,,,,2,,,53,0
76320,control_change,0,0,1,,,,,,,,,0,64,127,,
76320,time_signature,1920,1,0,4,4,24,8,,,,,,,,,
76320,note_on,81,0,1,,,,,,,,,0,,,78,0
76320,note_on,0,0,1,,,,,,,,,0,,,77,62
76320,note_on,0,0,3,,,,,,,,,2,,,48,49
76320,control_change,0,0,3,,,,,,,,,2,64,127,,
76400,note_on,80,0,1,,,,,,,,,0,,,77,0
76400,note_on,0,0,1,,,,,,,,,0,,,76,62
76479,note_on,79,0,1,,,,,,,,,0,,,76,0
76479,note_on,0,0,3,,,,,,,,,2,,,55,49
76479,note_on,159,0,3,,,,,,,,,2,,,48,0
76479,note_on,0,0,1,,,,,,,,,0,,,75,62
76560,note_on,0,0,1,,,,,,,,,0,,,74,62
76560,note_on,81,0,1,,,,,,,,,0,,,75,0
76640,note_on,80,0,1,,,,,,,,,0,,,74,0
76640,note_on,161,0,3,,,,,,,,,2,,,55,0
76640,note_on,0,0,1,,,,,,,,,0,,,73,62
76640,note_on,0,0,3,,,,,,,,,2,,,60,49
76719,note_on,79,0,1,,,,,,,,,0,,,73,0
76719,note_on,0,0,1,,,,,,,,,0,,,72,62
76800,note_on,0,0,1,,,,,,,,,0,,,71,62
76800,note_on,0,0,3,,,,,,,,,2,,,56,49
76800,note_on,160,0,3,,,,,,,,,2,,,60,0
76800,note_on,81,0,1,,,,,,,,,0,,,72,0
76868,note_on,0,0,1,,,,,,,,,0,,,72,62
76868,note_on,68,0,1,,,,,,,,,0,,,71,0
76937,note_on,69,0,1,,,,,,,,,0,,,72,0
76937,note_on,0,0,1,,,,,,,,,0,,,73,62
76959,note_on,159,0,3,,,,,,,,,2,,,56,0
76959,note_on,0,0,3,,,,,,,,,2,,,65,49
77005,note_on,0,0,1,,,,,,,,,0,,,74,62
77005,note_on,68,0,1,,,,,,,,,0,,,73,0
77074,note_on,69,0,1,,,,,,,,,0,,,74,0
77074,note_on,0,0,1,,,,,,,,,0,,,75,62
77120,note_on,161,0,3,,,,,,,,,2,,,65,0
77120,note_on,0,0,3,,,,,,,,,2,,,60,49
77142,note_on,68,0,1,,,,,,,,,0,,,75,0
77142,note_on,0,0,1,,,,,,,,,0,,,77,62
77211,note_on,69,0,1,,,,,,,,,0,,,77,0
77211,note_on,0,0,1,,,,,,,,,0,,,76,62
77280,note_on,0,0,1,,,,,,,,,0,,,75,62
77280,note_on,160,0,3,,,,,,,,,2,,,60,0
77280,note_on,69,0,1,,,,,,,,,0,,,76,0
77280,note_on,0,0,3,,,,,,,,,2,,,55,49
77348,note_on,68,0,1,,,,,,,,,0,,,75,0
77348,note_on,0,0,1,,,,,,,,,0,,,74,62
77417,note_on,0,0,1,,,,,,,,,0,,,73,62
77417,note_on,69,0,1,,,,,,,,,0,,,74,0
77439,note_on,159,0,3,,,,,,,,,2,,,55,0
77439,note_on,0,0,3,,,,,,,,,2,,,63,49
77485,note_on,68,0,1,,,,,,,,,0,,,73,0
77485,note_on,0,0,1,,,,,,,,,0,,,72,62
77554,note_on,0,0,1,,,,,,,,,0,,,71,62
77554,note_on,69,0,1,,,,,,,,,0,,,72,0
77600,note_on,0,0,3,,,,,,,,,2,,,58,49
77600,note_on,161,0,3,,,,,,,,,2,,,63,0
77622,note_on,68,0,1,,,,,,,,,0,,,71,0
77622,note_on,0,0,1,,,,,,,,,0,,,70,62
77691,note_on,0,0,1,,,,,,,,,0,,,69,62
77691,note_on,69,0,1,,,,,,,,,0,,,70,0
77760,note_on,0,0,1,,,,,,,,,0,,,68,62
77760,note_on,160,0,3,,,,,,,,,2,,,58,0
77760,note_on,0,0,3,,,,,,,,,2,,,53,49
77760,note_on,69,0,1,,,,,,,,,0,,,69,0
77828,note_on,68,0,1,,,,,,,,,0,,,68,0
77828,note_on,0,0,1,,,,,,,,,0,,,69,62
77897,note_on,69,0,1,,,,,,,,,0,,,69,0
77897,note_on,0,0,1,,,,,,,,,0,,,70,62
77919,note_on,159,0,3,,,,,,,,,2,,,53,0
77919,note_on,0,0,3,,,,,,,,,2,,,61,49
77965,note_on,0,0,1,,,,,,,,,0,,,71,62
77965,note_on,68,0,1,,,,,,,,,0,,,70,0
78034,note_on,69,0,1,,,,,,,,,0,,,71,0
78034,note_on,0,0,1,,,,,,,,,0,,,72,62
78080,note_on,161,0,3,,,,,,,,,2,,,61,0
78080,control_change,0,0,3,,,,,,,,,2,64,0,,
78080,note_on,0,0,3,,,,,,,,,2,,,56,49
78102,note_on,68,0,1,,,,,,,,,0,,,72,0
78102,note_on,0,0,1,,,,,,,,,0,,,75,62
78171,note_on,0,0,1,,,,,,,,,0,,,73,62
78171,control_change,0,0,1,,,,,,,,,0,64,0,,
78171,note_on,69,0,1,,,,,,,,,0,,,75,0
78240,note_on,160,0,3,,,,,,,,,2,,,56,0
78240,control_change,0,0,1,,,,,,,,,0,64,127,,
78240,note_on,69,0,1,,,,,,,,,0,,,73,0
78240,note_on,0,0,3,,,,,,,,,2,,,52,49
78240,control_change,0,0,3,,,,,,,,,2,64,127,,
78240,note_on,0,0,1,,,,,,,,,0,,,72,62
78240,time_signature,1920,1,0,7,4,24,8,,,,,,,,,
78320,note_on,80,0,1,,,,,,,,,0,,,72,0
78320,note_on,0,0,1,,,,,,,,,0,,,71,62
78399,note_on,0,0,3,,,,,,,,,2,,,60,49
78399,note_on,0,0,1,,,,,,,,,0,,,70,62
78399,note_on,159,0,3,,,,,,,,,2,,,52,0
78399,note_on,79,0,1,,,,,,,,,0,,,71,0
78480,note_on,81,0,1,,,,,,,,,0,,,70,0
78480,note_on,0,0,1,,,,,,,,,0,,,69,62
78560,note_on,0,0,1,,,,,,,,,0,,,68,62
78560,note_on,80,0,1,,,,,,,,,0,,,69,0
78560,note_on,161,0,3,,,,,,,,,2,,,60,0
78560,note_on,0,0,3,,,,,,,,,2,,,55,49
78639,note_on,79,0,1,,,,,,,,,0,,,68,0
78639,note_on,0,0,1,,,,,,,,,0,,,67,62
78720,note_on,81,0,1,,,,,,,,,0,,,67,0
78720,note_on,0,0,3,,,,,,,,,2,,,51,49
78720,note_on,0,0,1,,,,,,,,,0,,,66,62
78720,note_on,160,0,3,,,,,,,,,2,,,55,0
78788,note_on,0,0,1,,,,,,,,,0,,,65,62
78788,note_on,68,0,1,,,,,,,,,0,,,66,0
78857,note_on,69,0,1,,,,,,,,,0,,,65,0
78857,note_on,0,0,1,,,,,,,,,0,,,64,62
78879,note_on,159,0,3,,,,,,,,,2,,,51,0
78879,note_on,0,0,3,,,,,,,,,2,,,60,49
78925,note_on,0,0,1,,,,,,,,,0,,,65,62
78925,note_on,68,0,1,,,,,,,,,0,,,64,0
78994,note_on,0,0,1,,,,,,,,,0,,,66,62
78994,note_on,69,0,1,,,,,,,,,0,,,65,0
79040,note_on,0,0,3,,,,,,,,,2,,,57,49
79040,note_on,161,0,3,,,,,,,,,2,,,60,0
79040,control_change,0,0,3,,,,,,,,,2,64,0,,
79062,note_on,68,0,1,,,,,,,,,0,,,66,0
79062,note_on,0,0,1,,,,,,,,,0,,,67,62
79131,note_on,0,0,1,,,,,,,,,0,,,68,62
79131,control_change,0,0,1,,,,,,,,,0,64,0,,
79131,note_on,69,0,1,,,,,,,,,0,,,67,0
79200,control_change,0,0,3,,,,,,,,,2,64,127,,
79200,set_tempo,960,1,0,,,,,,600000,,,,,,,
79200,control_change,0,0,1,,,,,,,,,0,64,127,,
79200,note_on,69,0,1,,,,,,,,,0,,,68,0
79200,note_on,160,0,3,,,,,,,,,2,,,57,0
79200,note_on,0,0,3,,,,,,,,,2,,,49,49
79200,note_on,0,0,1,,,,,,,,,0,,,68,62
79280,note_on,0,0,1,,,,,,,,,0,,,70,62
79280,note_on,80,0,1,,,,,,,,,0,,,68,0
79359,note_on,0,0,1,,,,,,,,,0,,,80,62
79359,note_on,159,0,3,,,,,,,,,2,,,49,0
79359,note_on,79,0,1,,,,,,,,,0,,,70,0
79440,note_on,81,0,1,,,,,,,,,0,,,80,0
79440,note_on,0,0,1,,,,,,,,,0,,,76,62
79520,note_on,0,0,1,,,,,,,,,0,,,77,62
79520,note_on,80,0,1,,,,,,,,,0,,,76,0
79520,note_on,161,0,3,,,,,,,,,2,,,58,49
79599,note_on,0,0,1,,,,,,,,,0,,,85,62
79599,note_on,79,0,1,,,,,,,,,0,,,77,0
79680,note_on,160,0,3,,,,,,,,,2,,,58,0
79680,note_on,81,0,1,,,,,,,,,0,,,85,0
79680,note_on,0,0,3,,,,,,,,,2,,,65,49
79680,note_on,0,0,1,,,,,,,,,0,,,81,62
79760,note_on,80,0,1,,,,,,,,,0,,,81,0
79760,note_on,0,0,1,,,,,,,,,0,,,82,62
79839,note_on,79,0,1,,,,,,,,,0,,,82,0
79839,note_on,159,0,3,,,,,,,,,2,,,65,0
79839,note_on,0,0,3,,,,,,,,,2,,,68,49
79839,note_on,0,0,1,,,,,,,,,0,,,92,62
79920,note_on,81,0,1,,,,,,,,,0,,,92,0
79920,note_on,0,0,1,,,,,,,,,0,,,88,62
80000,note_on,161,0,3,,,,,,,,,2,,,68,0
80000,note_on,80,0,1,,,,,,,,,0,,,88,0
80000,note_on,0,0,1,,,,,,,,,0,,,89,62
80079,note_on,0,0,1,,,,,,,,,0,,,84,62
80079,note_on,79,0,1,,,,,,,,,0,,,89,0
80160,note_on,0,0,1,,,,,,,,,0,,,85,62
80160,note_on,81,0,1,,,,,,,,,0,,,84,0
80240,note_on,80,0,1,,,,,,,,,0,,,85,0
80240,note_on,0,0,1,,,,,,,,,0,,,81,62
80319,note_on,79,0,1,,,,,,,,,0,,,81,0
80319,note_on,0,0,1,,,,,,,,,0,,,82,62
80400,note_on,0,0,1,,,,,,,,,0,,,76,62
80400,note_on,81,0,1,,,,,,,,,0,,,82,0
80480,note_on,0,0,1,,,,,,,,,0,,,77,62
80480,note_on,80,0,1,,,,,,,,,0,,,76,0
80559,note_on,0,0,1,,,,,,,,,0,,,72,62
80559,note_on,79,0,1,,,,,,,,,0,,,77,0
80640,control_change,640,0,3,,,,,,,,,2,64,0,,
80640,note_on,0,0,1,,,,,,,,,0,,,73,62
80640,note_on,81,0,1,,,,,,,,,0,,,72,0
80720,note_on,0,0,1,,,,,,,,,0,,,69,62
80720,note_on,80,0,1,,,,,,,,,0,,,73,0
80799,note_on,0,0,1,,,,,,,,,0,,,70,62
80799,note_on,79,0,1,,,,,,,,,0,,,69,0
80880,note_on,81,0,1,,,,,,,,,0,,,70,0
80880,note_on,0,0,1,,,,,,,,,0,,,64,62
80960,note_on,0,0,1,,,,,,,,,0,,,65,62
80960,note_on,80,0,1,,,,,,,,,0,,,64,0
81039,control_change,0,0,1,,,,,,,,,0,64,0,,
81039,note_on,0,0,1,,,,,,,,,0,,,68,62
81039,note_on,79,0,1,,,,,,,,,0,,,65,0
81120,note_on,81,0,1,,,,,,,,,0,,,68,0
81120,set_tempo,1920,1,0,,,,,,480000,,,,,,,
81120,control_change,480,0,3,,,,,,,,,2,64,127,,
81120,note_on,0,0,3,,,,,,,,,2,,,49,49
81200,control_change,80,0,1,,,,,,,,,0,64,127,,
81200,note_on,0,0,1,,,,,,,,,0,,,64,62
81279,note_on,0,0,3,,,,,,,,,2,,,59,49
81279,note_on,79,0,1,,,,,,,,,0,,,64,0
81279,note_on,0,0,1,,,,,,,,,0,,,65,62
81279,note_on,159,0,3,,,,,,,,,2,,,49,0
81360,note_on,0,0,1,,,,,,,,,0,,,68,62
81360,note_on,81,0,1,,,,,,,,,0,,,65,0
81440,note_on,0,0,1,,,,,,,,,0,,,65,62
81440,note_on,0,0,3,,,,,,,,,2,,,53,49
81440,control_change,0,0,3,,,,,,,,,2,64,0,,
81440,note_on,161,0,3,,,,,,,,,2,,,59,0
81440,note_on,80,0,1,,,,,,,,,0,,,68,0
81519,control_change,0,0,1,,,,,,,,,0,64,0,,
81519,note_on,79,0,1,,,,,,,,,0,,,65,0
81519,note_on,0,0,1,,,,,,,,,0,,,66,62
81600,control_change,0,0,1,,,,,,,,,0,64,127,,
81600,control_change,0,0,3,,,,,,,,,2,64,127,,
81600,note_on,81,0,1,,,,,,,,,0,,,66,0
81600,note_on,0,0,1,,,,,,,,,0,,,68,62
81600,note_on,160,0,3,,,,,,,,,2,,,53,0
81600,note_on,0,0,3,,,,,,,,,2,,,48,62
81600,time_signature,480,1,0,4,4,24,8,,,,,,,,,
81680,note_on,0,0,1,,,,,,,,,0,,,66,62
81680,note_on,80,0,1,,,,,,,,,0,,,68,0
81759,note_on,0,0,3,,,,,,,,,2,,,58,62
81759,note_on,159,0,3,,,,,,,,,2,,,48,0
81759,note_on,0,0,1,,,,,,,,,0,,,67,62
81759,note_on,0,0,3,,,,,,,,,2,,,61,62
81759,note_on,79,0,1,,,,,,,,,0,,,66,0
81840,note_on,81,0,1,,,,,,,,,0,,,67,0
81840,note_on,0,0,1,,,,,,,,,0,,,68,62
81920,note_on,161,0,3,,,,,,,,,2,,,61,0
81920,note_on,0,0,1,,,,,,,,,0,,,69,62
81920,note_on,0,0,3,,,,,,,,,2,,,58,0
81920,note_on,80,0,1,,,,,,,,,0,,,68,0
81920,note_on,0,0,3,,,,,,,,,2,,,64,62
81999,note_on,79,0,1,,,,,,,,,0,,,69,0
81999,note_on,0,0,1,,,,,,,,,0,,,70,62
82080,note_on,160,0,3,,,,,,,,,2,,,64,0
82080,note_on,81,0,1,,,,,,,,,0,,,70,0
82080,note_on,0,0,1,,,,,,,,,0,,,73,75
82160,note_on,0,0,1,,,,,,,,,0,,,76,75
82160,note_on,80,0,1,,,,,,,,,0,,,73,0
82239,note_on,79,0,1,,,,,,,,,0,,,76,0
82239,note_on,0,0,1,,,,,,,,,0,,,79,75
82320,note_on,0,0,1,,,,,,,,,0,,,80,75
82320,note_on,81,0,1,,,,,,,,,0,,,79,0
82400,note_on,0,0,1,,,,,,,,,0,,,81,75
82400,note_on,80,0,1,,,,,,,,,0,,,80,0
82479,note_on,0,0,1,,,,,,,,,0,,,82,75
82479,note_on,79,0,1,,,,,,,,,0,,,81,0
82560,note_on,0,0,1,,,,,,,,,0,,,85,101
82560,note_on,81,0,1,,,,,,,,,0,,,82,0
82607,note_on,47,0,1,,,,,,,,,0,,,85,0
82880,note_on,273,0,1,,,,,,,,,0,,,64,75
82959,note_on,0,0,1,,,,,,,,,0,,,65,75
82959,note_on,79,0,1,,,,,,,,,0,,,64,0
83040,note_on,81,0,1,,,,,,,,,0,,,65,0
83040,note_on,0,0,1,,,,,,,,,0,,,69,75
83040,note_on,960,0,3,,,,,,,,,2,,,49,62
83120,note_on,0,0,1,,,,,,,,,0,,,64,75
83120,note_on,80,0,1,,,,,,,,,0,,,69,0
83199,note_on,0,0,3,,,,,,,,,2,,,59,62
83199,note_on,0,0,1,,,,,,,,,0,,,65,75
83199,note_on,79,0,1,,,,,,,,,0,,,64,0
83199,note_on,159,0,3,,,,,,,,,2,,,49,0
83280,note_on,81,0,1,,,,,,,,,0,,,65,0
83280,note_on,0,0,1,,,,,,,,,0,,,69,75
83360,note_on,0,0,1,,,,,,,,,0,,,65,75
83360,note_on,0,0,3,,,,,,,,,2,,,53,62
83360,note_on,161,0,3,,,,,,,,,2,,,59,0
83360,control_change,0,0,3,,,,,,,,,2,64,0,,
83360,note_on,80,0,1,,,,,,,,,0,,,69,0
83439,note_on,0,0,1,,,,,,,,,0,,,66,75
83439,note_on,79,0,1,,,,,,,,,0,,,65,0
83439,control_change,0,0,1,,,,,,,,,0,64,0,,
83520,note_on,0,0,3,,,,,,,,,2,,,48,62
83520,note_on,160,0,3,,,,,,,,,2,,,53,0
83520,control_change,0,0,3,,,,,,,,,2,64,127,,
83520,control_change,0,0,1,,,,,,,,,0,64,127,,
83520,note_on,0,0,1,,,,,,,,,0,,,68,62
83520,note_on,81,0,1,,,,,,,,,0,,,66,0
83600,note_on,80,0,1,,,,,,,,,0,,,68,0
83600,note_on,0,0,1,,,,,,,,,0,,,66,62
83679,note_on,79,0,1,,,,,,,,,0,,,66,0
83679,note_on,0,0,3,,,,,,,,,2,,,58,62
83679,note_on,0,0,1,,,,,,,,,0,,,67,62
83679,note_on,0,0,3,,,,,,,,,2,,,61,62
83679,note_on,159,0,3,,,,,,,,,2,,,48,0
83760,note_on,0,0,1,,,,,,,,,0,,,68,62
83760,note_on,81,0,1,,,,,,,,,0,,,67,0
83840,note_on,161,0,3,,,,,,,,,2,,,61,0
83840,note_on,0,0,3,,,,,,,,,2,,,58,0
83840,note_on,80,0,1,,,,,,,,,0,,,68,0
83840,note_on,0,0,1,,,,,,,,,0,,,69,62
83840,note_on,0,0,3,,,,,,,,,2,,,64,62
83919,note_on,0,0,1,,,,,,,,,0,,,70,62
83919,note_on,79,0,1,,,,,,,,,0,,,69,0
84000,note_on,160,0,3,,,,,,,,,2,,,64,0
84000,note_on,0,0,1,,,,,,,,,0,,,73,75
84000,note_on,81,0,1,,,,,,,,,0,,,70,0
84080,note_on,80,0,1,,,,,,,,,0,,,73,0
84080,note_on,0,0,1,,,,,,,,,0,,,76,75
84159,note_on,79,0,1,,,,,,,,,0,,,76,0
84159,note_on,0,0,1,,,,,,,,,0,,,79,75
84240,note_on,0,0,1,,,,,,,,,0,,,80,75
84240,note_on,81,0,1,,,,,,,,,0,,,79,0
84320,note_on,0,0,1,,,,,,,,,0,,,81,75
84320,note_on,80,0,1,,,,,,,,,0,,,80,0
84399,note_on,0,0,1,,,,,,,,,0,,,82,75
84399,note_on,79,0,1,,,,,,,,,0,,,81,0
84480,note_on,0,0,1,,,,,,,,,0,,,85,75
84480,note_on,81,0,1,,,,,,,,,0,,,82,0
84560,note_on,0,0,1,,,,,,,,,0,,,76,62
84560,note_on,80,0,1,,,,,,,,,0,,,85,0
84639,note_on,0,0,1,,,,,,,,,0,,,79,62
84639,note_on,79,0,1,,,,,,,,,0,,,76,0
84720,note_on,0,0,1,,,,,,,,,0,,,80,62
84720,note_on,81,0,1,,,,,,,,,0,,,79,0
84800,note_on,80,0,1,,,,,,,,,0,,,80,0
84800,note_on,0,0,1,,,,,,,,,0,,,81,62
84879,note_on,79,0,1,,,,,,,,,0,,,81,0
84879,note_on,0,0,1,,,,,,,,,0,,,82,62
84960,note_on,81,0,1,,,,,,,,,0,,,82,0
84960,note_on,0,0,1,,,,,,,,,0,,,85,75
84960,control_change,960,0,3,,,,,,,,,2,64,0,,
85040,note_on,0,0,1,,,,,,,,,0,,,88,75
85040,note_on,80,0,1,,,,,,,,,0,,,85,0
85119,note_on,79,0,1,,,,,,,,,0,,,88,0
85119,note_on,0,0,1,,,,,,,,,0,,,91,75
85200,note_on,0,0,1,,,,,,,,,0,,,92,75
85200,note_on,81,0,1,,,,,,,,,0,,,91,0
85280,note_on,80,0,1,,,,,,,,,0,,,92,0
85280,note_on,0,0,1,,,,,,,,,0,,,93,75
85359,control_change,0,0,1,,,,,,,,,0,64,0,,
85359,note_on,79,0,1,,,,,,,,,0,,,93,0
85359,note_on,0,0,1,,,,,,,,,0,,,94,75
85440,control_change,0,0,1,,,,,,,,,0,64,127,,
85440,note_on,0,0,1,,,,,,,,,0,,,97,75
85440,note_on,81,0,1,,,,,,,,,0,,,94,0
85520,note_on,80,0,1,,,,,,,,,0,,,97,0
85520,note_on,0,0,1,,,,,,,,,0,,,95,75
85599,note_on,0,0,1,,,,,,,,,0,,,96,75
85599,note_on,79,0,1,,,,,,,,,0,,,95,0
85680,note_on,0,0,1,,,,,,,,,0,,,94,75
85680,note_on,81,0,1,,,,,,,,,0,,,96,0
85760,note_on,0,0,1,,,,,,,,,0,,,95,75
85760,note_on,80,0,1,,,,,,,,,0,,,94,0
85839,note_on,79,0,1,,,,,,,,,0,,,95,0
85839,note_on,0,0,1,,,,,,,,,0,,,93,75
85920,note_on,0,0,1,,,,,,,,,0,,,94,75
85920,note_on,81,0,1,,,,,,,,,0,,,93,0
86000,note_on,80,0,1,,,,,,,,,0,,,94,0
86000,note_on,0,0,1,,,,,,,,,0,,,92,75
86079,note_on,0,0,1,,,,,,,,,0,,,93,75
86079,note_on,79,0,1,,,,,,,,,0,,,92,0
86160,note_on,81,0,1,,,,,,,,,0,,,93,0
86160,note_on,0,0,1,,,,,,,,,0,,,91,75
86240,note_on,80,0,1,,,,,,,,,0,,,91,0
86240,note_on,0,0,1,,,,,,,,,0,,,92,75
86319,note_on,0,0,1,,,,,,,,,0,,,90,75
86319,note_on,79,0,1,,,,,,,,,0,,,92,0
86400,note_on,81,0,1,,,,,,,,,0,,,90,0
86400,note_on,0,0,1,,,,,,,,,0,,,91,75
86480,note_on,0,0,1,,,,,,,,,0,,,89,75
86480,note_on,80,0,1,,,,,,,,,0,,,91,0
86559,note_on,79,0,1,,,,,,,,,0,,,89,0
86559,note_on,0,0,1,,,,,,,,,0,,,90,75
86640,note_on,81,0,1,,,,,,,,,0,,,90,0
86640,note_on,0,0,1,,,,,,,,,0,,,88,75
86720,note_on,0,0,1,,,,,,,,,0,,,89,75
86720,note_on,80,0,1,,,,,,,,,0,,,88,0
86799,note_on,0,0,1,,,,,,,,,0,,,87,75
86799,note_on,79,0,1,,,,,,,,,0,,,89,0
86880,note_on,81,0,1,,,,,,,,,0,,,87,0
86880,note_on,0,0,1,,,,,,,,,0,,,88,75
86960,note_on,0,0,1,,,,,,,,,0,,,86,75
86960,note_on,80,0,1,,,,,,,,,0,,,88,0
87039,note_on,79,0,1,,,,,,,,,0,,,86,0
87039,note_on,0,0,1,,,,,,,,,0,,,87,75
87120,note_on,0,0,1,,,,,,,,,0,,,85,75
87120,note_on,81,0,1,,,,,,,,,0,,,87,0
87200,note_on,80,0,1,,,,,,,,,0,,,85,0
87200,note_on,0,0,1,,,,,,,,,0,,,86,75
87279,note_on,79,0,1,,,,,,,,,0,,,86,0
87279,control_change,0,0,1,,,,,,,,,0,64,0,,
87279,note_on,0,0,1,,,,,,,,,0,,,84,75
87360,note_on,0,0,1,,,,,,,,,0,,,85,62
87360,control_change,0,0,1,,,,,,,,,0,64,127,,
87360,note_on,81,0,1,,,,,,,,,0,,,84,0
87440,note_on,0,0,1,,,,,,,,,0,,,83,62
87440,note_on,80,0,1,,,,,,,,,0,,,85,0
87519,note_on,0,0,1,,,,,,,,,0,,,85,62
87519,note_on,79,0,1,,,,,,,,,0,,,83,0
87600,note_on,81,0,1,,,,,,,,,0,,,85,0
87600,note_on,0,0,1,,,,,,,,,0,,,84,62
87680,note_on,0,0,1,,,,,,,,,0,,,85,62
87680,note_on,80,0,1,,,,,,,,,0,,,84,0
87759,note_on,0,0,1,,,,,,,,,0,,,83,62
87759,note_on,79,0,1,,,,,,,,,0,,,85,0
87840,note_on,0,0,1,,,,,,,,,0,,,85,75
87840,note_on,81,0,1,,,,,,,,,0,,,83,0
87920,note_on,0,0,1,,,,,,,,,0,,,84,75
87920,note_on,80,0,1,,,,,,,,,0,,,85,0
87999,note_on,79,0,1,,,,,,,,,0,,,84,0
87999,note_on,0,0,1,,,,,,,,,0,,,85,75
88080,note_on,0,0,1,,,,,,,,,0,,,83,75
88080,note_on,81,0,1,,,,,,,,,0,,,85,0
88160,note_on,80,0,1,,,,,,,,,0,,,83,0
88160,note_on,0,0,1,,,,,,,,,0,,,85,75
88239,note_on,79,0,1,,,,,,,,,0,,,85,0
88239,note_on,0,0,1,,,,,,,,,0,,,84,75
88320,note_on,0,0,1,,,,,,,,,0,,,85,75
88320,note_on,81,0,1,,,,,,,,,0,,,84,0
88400,note_on,80,0,1,,,,,,,,,0,,,85,0
88400,note_on,0,0,1,,,,,,,,,0,,,83,75
88479,note_on,79,0,1,,,,,,,,,0,,,83,0
88479,note_on,0,0,1,,,,,,,,,0,,,85,75
88560,note_on,0,0,1,,,,,,,,,0,,,84,75
88560,note_on,81,0,1,,,,,,,,,0,,,85,0
88640,note_on,80,0,1,,,,,,,,,0,,,84,0
88640,note_on,0,0,1,,,,,,,,,0,,,85,75
88719,note_on,79,0,1,,,,,,,,,0,,,85,0
88719,note_on,0,0,1,,,,,,,,,0,,,83,75
88800,note_on,81,0,1,,,,,,,,,0,,,83,0
88800,note_on,0,0,1,,,,,,,,,0,,,85,62
88880,note_on,0,0,1,,,,,,,,,0,,,84,62
88880,note_on,80,0,1,,,,,,,,,0,,,85,0
88959,note_on,0,0,1,,,,,,,,,0,,,85,62
88959,note_on,79,0,1,,,,,,,,,0,,,84,0
89040,note_on,81,0,1,,,,,,,,,0,,,85,0
89040,note_on,0,0,1,,,,,,,,,0,,,83,62
89120,note_on,0,0,1,,,,,,,,,0,,,85,62
89120,note_on,80,0,1,,,,,,,,,0,,,83,0
89199,control_change,0,0,1,,,,,,,,,0,64,0,,
89199,note_on,79,0,1,,,,,,,,,0,,,85,0
89199,note_on,0,0,1,,,,,,,,,0,,,84,62
89280,note_on,0,0,1,,,,,,,,,0,,,85,62
89280,note_on,81,0,1,,,,,,,,,0,,,84,0
89280,control_change,0,0,1,,,,,,,,,0,64,127,,
89360,note_on,0,0,1,,,,,,,,,0,,,84,62
89360,note_on,80,0,1,,,,,,,,,0,,,85,0
89439,note_on,79,0,1,,,,,,,,,0,,,84,0
89439,note_on,0,0,1,,,,,,,,,0,,,85,62
89520,note_on,81,0,1,,,,,,,,,0,,,85,0
89520,note_on,0,0,1,,,,,,,,,0,,,84,62
89600,note_on,80,0,1,,,,,,,,,0,,,84,0
89600,note_on,0,0,1,,,,,,,,,0,,,85,62
89679,note_on,0,0,1,,,,,,,,,0,,,84,62
89679,note_on,79,0,1,,,,,,,,,0,,,85,0
89679,control_change,0,0,1,,,,,,,,,0,64,0,,
89760,note_on,0,0,1,,,,,,,,,0,,,83,49
89760,control_change,4800,0,3,,,,,,,,,2,64,127,,
89760,control_change,0,0,1,,,,,,,,,0,64,127,,
89760,note_on,81,0,1,,,,,,,,,0,,,84,0
89760,note_on,0,0,3,,,,,,,,,2,,,68,49
89828,note_on,0,0,1,,,,,,,,,0,,,84,49
89828,note_on,68,0,1,,,,,,,,,0,,,83,0
89897,note_on,0,0,1,,,,,,,,,0,,,85,49
89897,note_on,69,0,1,,,,,,,,,0,,,84,0
89919,note_on,0,0,3,,,,,,,,,2,,,77,49
89919,note_on,159,0,3,,,,,,,,,2,,,68,0
89965,note_on,68,0,1,,,,,,,,,0,,,85,0
89965,note_on,0,0,1,,,,,,,,,0,,,86,49
90034,note_on,69,0,1,,,,,,,,,0,,,86,0
90034,note_on,0,0,1,,,,,,,,,0,,,87,49
90080,note_on,0,0,3,,,,,,,,,2,,,72,49
90080,note_on,161,0,3,,,,,,,,,2,,,77,0
90102,note_on,68,0,1,,,,,,,,,0,,,87,0
90102,note_on,0,0,1,,,,,,,,,0,,,89,49
90171,note_on,69,0,1,,,,,,,,,0,,,89,0
90171,note_on,0,0,1,,,,,,,,,0,,,88,49
90240,note_on,0,0,3,,,,,,,,,2,,,67,49
90240,note_on,160,0,3,,,,,,,,,2,,,72,0
90240,note_on,0,0,1,,,,,,,,,0,,,87,49
90240,note_on,69,0,1,,,,,,,,,0,,,88,0
90308,note_on,68,0,1,,,,,,,,,0,,,87,0
90308,note_on,0,0,1,,,,,,,,,0,,,86,49
90377,note_on,69,0,1,,,,,,,,,0,,,86,0
90377,note_on,0,0,1,,,,,,,,,0,,,85,49
90399,note_on,0,0,3,,,,,,,,,2,,,75,49
90399,note_on,159,0,3,,,,,,,,,2,,,67,0
90445,note_on,68,0,1,,,,,,,,,0,,,85,0
90445,note_on,0,0,1,,,,,,,,,0,,,84,49
90514,note_on,0,0,1,,,,,,,,,0,,,83,49
90514,note_on,69,0,1,,,,,,,,,0,,,84,0
90560,note_on,0,0,3,,,,,,,,,2,,,70,49
90560,note_on,161,0,3,,,,,,,,,2,,,75,0
90582,note_on,68,0,1,,,,,,,,,0,,,83,0
90582,note_on,0,0,1,,,,,,,,,0,,,82,49
90651,note_on,69,0,1,,,,,,,,,0,,,82,0
90651,note_on,0,0,1,,,,,,,,,0,,,81,49
90720,note_on,160,0,3,,,,,,,,,2,,,70,0
90720,note_on,69,0,1,,,,,,,,,0,,,81,0
90720,note_on,0,0,3,,,,,,,,,2,,,65,49
90720,note_on,0,0,1,,,,,,,,,0,,,80,49
90788,note_on,68,0,1,,,,,,,,,0,,,80,0
90788,note_on,0,0,1,,,,,,,,,0,,,81,49
90857,note_on,69,0,1,,,,,,,,,0,,,81,0
90857,note_on,0,0,1,,,,,,,,,0,,,82,49
90879,note_on,0,0,3,,,,,,,,,2,,,73,49
90879,note_on,159,0,3,,,,,,,,,2,,,65,0
90925,note_on,68,0,1,,,,,,,,,0,,,82,0
90925,note_on,0,0,1,,,,,,,,,0,,,83,49
90994,note_on,0,0,1,,,,,,,,,0,,,84,49
90994,note_on,69,0,1,,,,,,,,,0,,,83,0
91040,note_on,0,0,3,,,,,,,,,2,,,68,49
91040,note_on,161,0,3,,,,,,,,,2,,,73,0
91040,control_change,0,0,3,,,,,,,,,2,64,0,,
91062,note_on,0,0,1,,,,,,,,,0,,,87,49
91062,note_on,68,0,1,,,,,,,,,0,,,84,0
91131,note_on,0,0,1,,,,,,,,,0,,,85,49
91131,control_change,0,0,1,,,,,,,,,0,64,0,,
91131,note_on,69,0,1,,,,,,,,,0,,,87,0
91200,control_change,0,0,1,,,,,,,,,0,64,127,,
91200,note_on,69,0,1,,,,,,,,,0,,,85,0
91200,note_on,0,0,1,,,,,,,,,0,,,84,49
91200,note_on,0,0,3,,,,,,,,,2,,,64,49
91200,control_change,0,0,3,,,,,,,,,2,64,127,,
91200,note_on,160,0,3,,,,,,,,,2,,,68,0
91280,note_on,80,0,1,,,,,,,,,0,,,84,0
91280,note_on,0,0,1,,,,,,,,,0,,,83,49
91359,note_on,0,0,3,,,,,,,,,2,,,72,49
91359,note_on,159,0,3,,,,,,,,,2,,,64,0
91359,note_on,0,0,1,,,,,,,,,0,,,82,49
91359,note_on,79,0,1,,,,,,,,,0,,,83,0
91440,note_on,81,0,1,,,,,,,,,0,,,82,0
91440,note_on,0,0,1,,,,,,,,,0,,,81,49
91520,note_on,80,0,1,,,,,,,,,0,,,81,0
91520,note_on,0,0,1,,,,,,,,,0,,,80,49
91520,note_on,161,0,3,,,,,,,,,2,,,72,0
91520,note_on,0,0,3,,,,,,,,,2,,,67,49
91599,note_on,0,0,1,,,,,,,,,0,,,79,49
91599,note_on,79,0,1,,,,,,,,,0,,,80,0
91680,note_on,81,0,1,,,,,,,,,0,,,79,0
91680,note_on,160,0,3,,,,,,,,,2,,,67,0
91680,note_on,0,0,3,,,,,,,,,2,,,63,49
91680,note_on,0,0,1,,,,,,,,,0,,,78,49
91748,note_on,68,0,1,,,,,,,,,0,,,78,0
91748,note_on,0,0,1,,,,,,,,,0,,,77,49
91817,note_on,69,0,1,,,,,,,,,0,,,77,0
91817,note_on,0,0,1,,,,,,,,,0,,,76,49
91839,note_on,159,0,3,,,,,,,,,2,,,63,0
91839,note_on,0,0,3,,,,,,,,,2,,,72,49
91885,note_on,0,0,1,,,,,,,,,0,,,77,49
91885,note_on,68,0,1,,,,,,,,,0,,,76,0
91954,note_on,0,0,1,,,,,,,,,0,,,78,49
91954,note_on,69,0,1,,,,,,,,,0,,,77,0
92000,note_on,161,0,3,,,,,,,,,2,,,72,0
92000,note_on,0,0,3,,,,,,,,,2,,,69,49
92022,note_on,68,0,1,,,,,,,,,0,,,78,0
92022,note_on,0,0,1,,,,,,,,,0,,,79,49
92091,note_on,69,0,1,,,,,,,,,0,,,79,0
92091,note_on,0,0,1,,,,,,,,,0,,,80,49
92160,note_on,0,0,1,,,,,,,,,0,,,81,62
92160,note_on,160,0,3,,,,,,,,,2,,,69,0
92160,note_on,0,0,3,,,,,,,,,2,,,62,49
92160,note_on,69,0,1,,,,,,,,,0,,,80,0
92240,note_on,80,0,1,,,,,,,,,0,,,81,0
92240,note_on,0,0,1,,,,,,,,,0,,,82,62
92319,note_on,159,0,3,,,,,,,,,2,,,62,0
92319,note_on,0,0,3,,,,,,,,,2,,,70,49
92319,note_on,79,0,1,,,,,,,,,0,,,82,0
92319,note_on,0,0,1,,,,,,,,,0,,,83,62
92400,note_on,81,0,1,,,,,,,,,0,,,83,0
92400,note_on,0,0,1,,,,,,,,,0,,,84,62
92480,note_on,0,0,1,,,,,,,,,0,,,85,62
92480,note_on,80,0,1,,,,,,,,,0,,,84,0
92480,note_on,0,0,3,,,,,,,,,2,,,65,49
92480,note_on,161,0,3,,,,,,,,,2,,,70,0
92559,note_on,79,0,1,,,,,,,,,0,,,85,0
92559,note_on,0,0,1,,,,,,,,,0,,,86,62
92640,note_on,160,0,3,,,,,,,,,2,,,65,0
92640,note_on,0,0,3,,,,,,,,,2,,,61,62
92640,note_on,0,0,1,,,,,,,,,0,,,87,75
92640,note_on,81,0,1,,,,,,,,,0,,,86,0
92720,note_on,80,0,1,,,,,,,,,0,,,87,0
92720,note_on,0,0,1,,,,,,,,,0,,,88,75
92799,note_on,0,0,1,,,,,,,,,0,,,89,75
92799,note_on,79,0,1,,,,,,,,,0,,,88,0
92799,note_on,159,0,3,,,,,,,,,2,,,61,0
92799,note_on,0,0,3,,,,,,,,,2,,,71,62
92880,note_on,0,0,1,,,,,,,,,0,,,92,75
92880,note_on,81,0,1,,,,,,,,,0,,,89,0
92960,control_change,0,0,3,,,,,,,,,2,64,0,,
92960,note_on,80,0,1,,,,,,,,,0,,,92,0
92960,note_on,0,0,1,,,,,,,,,0,,,91,75
92960,note_on,0,0,3,,,,,,,,,2,,,65,62
92960,note_on,161,0,3,,,,,,,,,2,,,71,0
93039,control_change,0,0,1,,,,,,,,,0,64,0,,
93039,note_on,79,0,1,,,,,,,,,0,,,91,0
93039,note_on,0,0,1,,,,,,,,,0,,,90,75
93120,note_on,0,0,1,,,,,,,,,0,,,89,75
93120,note_on,81,0,1,,,,,,,,,0,,,90,0
93120,control_change,0,0,1,,,,,,,,,0,64,127,,
93120,control_change,0,0,3,,,,,,,,,2,64,127,,
93120,note_on,160,0,3,,,,,,,,,2,,,65,0
93120,note_on,0,0,3,,,,,,,,,2,,,60,62
93200,note_on,0,0,1,,,,,,,,,0,,,88,75
93200,note_on,80,0,1,,,,,,,,,0,,,89,0
93279,note_on,79,0,1,,,,,,,,,0,,,88,0
93279,note_on,0,0,3,,,,,,,,,2,,,72,62
93279,note_on,159,0,3,,,,,,,,,2,,,60,0
93279,note_on,0,0,1,,,,,,,,,0,,,87,75
93360,note_on,81,0,1,,,,,,,,,0,,,87,0
93360,note_on,0,0,1,,,,,,,,,0,,,86,75
93440,note_on,0,0,3,,,,,,,,,2,,,67,62
93440,note_on,161,0,3,,,,,,,,,2,,,72,0
93440,note_on,0,0,1,,,,,,,,,0,,,85,75
93440,note_on,0,0,3,,,,,,,,,2,,,64,62
93440,note_on,80,0,1,,,,,,,,,0,,,86,0
93519,note_on,0,0,1,,,,,,,,,0,,,84,75
93519,note_on,79,0,1,,,,,,,,,0,,,85,0
93600,note_on,81,0,1,,,,,,,,,0,,,84,0
93600,note_on,0,0,1,,,,,,,,,0,,,83,75
93600,note_on,160,0,3,,,,,,,,,2,,,67,0
93600,note_on,0,0,3,,,,,,,,,2,,,64,0
93600,note_on,0,0,3,,,,,,,,,2,,,58,62
93680,note_on,0,0,1,,,,,,,,,0,,,84,75
93680,note_on,80,0,1,,,,,,,,,0,,,83,0
93759,note_on,159,0,3,,,,,,,,,2,,,58,0
93759,note_on,79,0,1,,,,,,,,,0,,,84,0
93759,note_on,0,0,3,,,,,,,,,2,,,72,62
93759,note_on,0,0,1,,,,,,,,,0,,,85,75
93840,note_on,81,0,1,,,,,,,,,0,,,85,0
93840,note_on,0,0,1,,,,,,,,,0,,,84,75
93920,note_on,0,0,1,,,,,,,,,0,,,85,75
93920,note_on,161,0,3,,,,,,,,,2,,,72,0
93920,note_on,0,0,3,,,,,,,,,2,,,64,62
93920,note_on,0,0,3,,,,,,,,,2,,,67,62
93920,note_on,80,0,1,,,,,,,,,0,,,84,0
93999,note_on,79,0,1,,,,,,,,,0,,,85,0
93999,note_on,0,0,1,,,,,,,,,0,,,84,75
94080,note_on,0,0,3,,,,,,,,,2,,,64,0
94080,note_on,0,0,3,,,,,,,,,2,,,56,62
94080,note_on,81,0,1,,,,,,,,,0,,,84,0
94080,note_on,160,0,3,,,,,,,,,2,,,67,0
94080,note_on,0,0,1,,,,,,,,,0,,,83,75
94140,note_on,60,0,1,,,,,,,,,0,,,83,0
94140,note_on,0,0,1,,,,,,,,,0,,,84,75
94200,note_on,60,0,1,,,,,,,,,0,,,84,0
94200,note_on,0,0,1,,,,,,,,,0,,,85,75
94239,note_on,159,0,3,,,,,,,,,2,,,56,0
94239,note_on,0,0,3,,,,,,,,,2,,,72,62
94260,note_on,0,0,1,,,,,,,,,0,,,86,75
94260,note_on,60,0,1,,,,,,,,,0,,,85,0
94320,note_on,0,0,1,,,,,,,,,0,,,87,75
94320,note_on,60,0,1,,,,,,,,,0,,,86,0
94380,note_on,60,0,1,,,,,,,,,0,,,87,0
94380,note_on,0,0,1,,,,,,,,,0,,,88,75
94400,note_on,161,0,3,,,,,,,,,2,,,72,0
94400,note_on,0,0,3,,,,,,,,,2,,,65,62
94440,note_on,60,0,1,,,,,,,,,0,,,88,0
94440,note_on,0,0,1,,,,,,,,,0,,,91,75
94500,note_on,60,0,1,,,,,,,,,0,,,91,0
94500,note_on,0,0,1,,,,,,,,,0,,,89,75
94560,note_on,60,0,1,,,,,,,,,0,,,89,0
94560,note_on,160,0,3,,,,,,,,,2,,,65,0
94560,note_on,0,0,3,,,,,,,,,2,,,55,62
94560,note_on,0,0,1,,,,,,,,,0,,,88,75
94620,note_on,0,0,1,,,,,,,,,0,,,87,75
94620,note_on,60,0,1,,,,,,,,,0,,,88,0
94680,note_on,0,0,1,,,,,,,,,0,,,86,75
94680,note_on,60,0,1,,,,,,,,,0,,,87,0
94719,note_on,159,0,3,,,,,,,,,2,,,55,0
94719,note_on,0,0,3,,,,,,,,,2,,,70,62
94740,note_on,0,0,1,,,,,,,,,0,,,85,75
94740,note_on,60,0,1,,,,,,,,,0,,,86,0
94800,note_on,0,0,1,,,,,,,,,0,,,84,75
94800,note_on,60,0,1,,,,,,,,,0,,,85,0
94860,note_on,0,0,1,,,,,,,,,0,,,83,75
94860,note_on,60,0,1,,,,,,,,,0,,,84,0
94880,note_on,0,0,3,,,,,,,,,2,,,63,62
94880,note_on,161,0,3,,,,,,,,,2,,,70,0
94880,control_change,0,0,3,,,,,,,,,2,64,0,,
94920,note_on,60,0,1,,,,,,,,,0,,,83,0
94920,note_on,0,0,1,,,,,,,,,0,,,82,75
94980,note_on,0,0,1,,,,,,,,,0,,,81,75
94980,control_change,0,0,1,,,,,,,,,0,64,0,,
94980,note_on,60,0,1,,,,,,,,,0,,,82,0
95040,time_signature,13440,1,0,3,4,24,8,,,,,,,,,
95040,control_change,0,0,1,,,,,,,,,0,64,127,,
95040,note_on,160,0,3,,,,,,,,,2,,,63,0
95040,note_on,60,0,1,,,,,,,,,0,,,81,0
95040,note_on,0,0,3,,,,,,,,,2,,,53,62
95040,note_on,0,0,1,,,,,,,,,0,,,80,75
95040,control_change,0,0,3,,,,,,,,,2,64,127,,
95108,note_on,0,0,1,,,,,,,,,0,,,81,75
95108,note_on,68,0,1,,,,,,,,,0,,,80,0
95177,note_on,69,0,1,,,,,,,,,0,,,81,0
95177,note_on,0,0,1,,,,,,,,,0,,,82,75
95199,note_on,159,0,3,,,,,,,,,2,,,53,0
95199,note_on,0,0,3,,,,,,,,,2,,,68,62
95245,note_on,68,0,1,,,,,,,,,0,,,82,0
95245,note_on,0,0,1,,,,,,,,,0,,,83,75
95314,note_on,69,0,1,,,,,,,,,0,,,83,0
95314,note_on,0,0,1,,,,,,,,,0,,,84,75
95360,note_on,0,0,3,,,,,,,,,2,,,61,62
95360,note_on,161,0,3,,,,,,,,,2,,,68,0
95382,note_on,0,0,1,,,,,,,,,0,,,87,75
95382,note_on,68,0,1,,,,,,,,,0,,,84,0
95451,note_on,69,0,1,,,,,,,,,0,,,87,0
95451,note_on,0,0,1,,,,,,,,,0,,,86,75
95520,note_on,0,0,3,,,,,,,,,2,,,52,62
95520,note_on,0,0,1,,,,,,,,,0,,,85,75
95520,note_on,69,0,1,,,,,,,,,0,,,86,0
95520,note_on,160,0,3,,,,,,,,,2,,,61,0
95588,note_on,0,0,1,,,,,,,,,0,,,84,75
95588,note_on,68,0,1,,,,,,,,,0,,,85,0
95657,note_on,0,0,1,,,,,,,,,0,,,83,75
95657,note_on,69,0,1,,,,,,,,,0,,,84,0
95679,note_on,159,0,3,,,,,,,,,2,,,52,0
95679,note_on,0,0,3,,,,,,,,,2,,,67,62
95725,note_on,68,0,1,,,,,,,,,0,,,83,0
95725,note_on,0,0,1,,,,,,,,,0,,,82,75
95794,note_on,0,0,1,,,,,,,,,0,,,81,75
95794,note_on,69,0,1,,,,,,,,,0,,,82,0
95840,note_on,0,0,3,,,,,,,,,2,,,60,62
95840,note_on,161,0,3,,,,,,,,,2,,,67,0
95862,note_on,68,0,1,,,,,,,,,0,,,81,0
95862,note_on,0,0,1,,,,,,,,,0,,,80,75
95931,note_on,0,0,1,,,,,,,,,0,,,79,75
95931,note_on,69,0,1,,,,,,,,,0,,,80,0
96000,note_on,160,0,3,,,,,,,,,2,,,60,0
96000,note_on,69,0,1,,,,,,,,,0,,,79,0
96000,note_on,0,0,1,,,,,,,,,0,,,78,75
96000,note_on,0,0,3,,,,,,,,,2,,,51,62
96080,note_on,0,0,1,,,,,,,,,0,,,77,75
96080,note_on,80,0,1,,,,,,,,,0,,,78,0
96159,note_on,0,0,3,,,,,,,,,2,,,69,62
96159,note_on,0,0,1,,,,,,,,,0,,,76,75
96159,note_on,159,0,3,,,,,,,,,2,,,51,0
96159,note_on,79,0,1,,,,,,,,,0,,,77,0
96240,note_on,0,0,1,,,,,,,,,0,,,77,75
96240,note_on,81,0,1,,,,,,,,,0,,,76,0
96320,note_on,0,0,3,,,,,,,,,2,,,60,62
96320,note_on,0,0,3,,,,,,,,,2,,,65,62
96320,control_change,0,0,3,,,,,,,,,2,64,0,,
96320,note_on,80,0,1,,,,,,,,,0,,,77,0
96320,note_on,0,0,1,,,,,,,,,0,,,85,75
96320,note_on,161,0,3,,,,,,,,,2,,,69,0
96399,control_change,0,0,1,,,,,,,,,0,64,0,,
96399,note_on,0,0,1,,,,,,,,,0,,,84,75
96399,note_on,79,0,1,,,,,,,,,0,,,85,0
96480,note_on,0,0,3,,,,,,,,,2,,,60,0
96480,note_on,0,0,1,,,,,,,,,0,,,81,75
96480,note_on,0,0,3,,,,,,,,,2,,,49,62
96480,control_change,0,0,3,,,,,,,,,2,64,127,,
96480,time_signature,1440,1,0,6,4,24,8,,,,,,,,,
96480,note_on,160,0,3,,,,,,,,,2,,,65,0
96480,control_change,0,0,1,,,,,,,,,0,64,127,,
96480,note_on,81,0,1,,,,,,,,,0,,,84,0
96560,note_on,0,0,1,,,,,,,,,0,,,82,75
96560,note_on,80,0,1,,,,,,,,,0,,,81,0
96639,note_on,159,0,3,,,,,,,,,2,,,49,0
96639,note_on,0,0,1,,,,,,,,,0,,,92,75
96639,note_on,79,0,1,,,,,,,,,0,,,82,0
96720,note_on,0,0,1,,,,,,,,,0,,,88,75
96720,note_on,81,0,1,,,,,,,,,0,,,92,0
96800,note_on,161,0,3,,,,,,,,,2,,,61,62
96800,note_on,0,0,1,,,,,,,,,0,,,89,75
96800,note_on,80,0,1,,,,,,,,,0,,,88,0
96879,note_on,0,0,1,,,,,,,,,0,,,97,75
96879,note_on,79,0,1,,,,,,,,,0,,,89,0
96960,note_on,0,0,3,,,,,,,,,2,,,70,62
96960,note_on,160,0,3,,,,,,,,,2,,,61,0
96960,note_on,0,0,1,,,,,,,,,0,,,93,75
96960,note_on,81,0,1,,,,,,,,,0,,,97,0
97040,note_on,0,0,1,,,,,,,,,0,,,94,75
97040,note_on,80,0,1,,,,,,,,,0,,,93,0
97119,note_on,0,0,1,,,,,,,,,0,,,104,75
97119,note_on,0,0,3,,,,,,,,,2,,,77,62
97119,note_on,79,0,1,,,,,,,,,0,,,94,0
97119,note_on,159,0,3,,,,,,,,,2,,,70,0
97200,note_on,0,0,1,,,,,,,,,0,,,100,75
97200,set_tempo,720,1,0,,,,,,491803,,,,,,,
97200,note_on,81,0,1,,,,,,,,,0,,,104,0
97280,note_on,0,0,3,,,,,,,,,2,,,80,62
97280,note_on,80,0,1,,,,,,,,,0,,,100,0
97280,note_on,161,0,3,,,,,,,,,2,,,77,0
97280,note_on,0,0,1,,,,,,,,,0,,,101,75
97359,note_on,79,0,1,,,,,,,,,0,,,101,0
97359,note_on,0,0,1,,,,,,,,,0,,,96,75
97440,set_tempo,240,1,0,,,,,,504202,,,,,,,
97440,note_on,81,0,1,,,,,,,,,0,,,96,0
97440,note_on,160,0,3,,,,,,,,,2,,,80,0
97440,note_on,0,0,1,,,,,,,,,0,,,97,75
97520,note_on,0,0,1,,,,,,,,,0,,,93,75
97520,note_on,80,0,1,,,,,,,,,0,,,97,0
97599,note_on,0,0,1,,,,,,,,,0,,,94,75
97599,note_on,79,0,1,,,,,,,,,0,,,93,0
97680,note_on,0,0,1,,,,,,,,,0,,,88,75
97680,set_tempo,240,1,0,,,,,,517241,,,,,,,
97680,note_on,81,0,1,,,,,,,,,0,,,94,0
97760,note_on,80,0,1,,,,,,,,,0,,,88,0
97760,note_on,0,0,1,,,,,,,,,0,,,89,75
97839,note_on,0,0,1,,,,,,,,,0,,,84,75
97839,note_on,79,0,1,,,,,,,,,0,,,89,0
97920,set_tempo,240,1,0,,,,,,535714,,,,,,,
97920,note_on,0,0,1,,,,,,,,,0,,,85,75
97920,note_on,81,0,1,,,,,,,,,0,,,84,0
98000,note_on,0,0,1,,,,,,,,,0,,,81,75
98000,note_on,80,0,1,,,,,,,,,0,,,85,0
98079,note_on,0,0,1,,,,,,,,,0,,,82,75
98079,note_on,79,0,1,,,,,,,,,0,,,81,0
98160,note_on,0,0,1,,,,,,,,,0,,,76,75
98160,note_on,81,0,1,,,,,,,,,0,,,82,0
98160,set_tempo,240,1,0,,,,,,550459,,,,,,,
98240,note_on,0,0,1,,,,,,,,,0,,,77,75
98240,note_on,80,0,1,,,,,,,,,0,,,76,0
98319,note_on,0,0,1,,,,,,,,,0,,,72,75
98319,note_on,79,0,1,,,,,,,,,0,,,77,0
98400,note_on,0,0,1,,,,,,,,,0,,,73,75
98400,note_on,81,0,1,,,,,,,,,0,,,72,0
98400,set_tempo,240,1,0,,,,,,566038,,,,,,,
98480,note_on,80,0,1,,,,,,,,,0,,,73,0
98480,note_on,0,0,1,,,,,,,,,0,,,69,75
98559,note_on,79,0,1,,,,,,,,,0,,,69,0
98559,note_on,0,0,1,,,,,,,,,0,,,70,75
98640,set_tempo,240,1,0,,,,,,582524,,,,,,,
98640,note_on,0,0,1,,,,,,,,,0,,,64,75
98640,note_on,81,0,1,,,,,,,,,0,,,70,0
98720,note_on,80,0,1,,,,,,,,,0,,,64,0
98720,note_on,0,0,1,,,,,,,,,0,,,65,75
98799,note_on,0,0,1,,,,,,,,,0,,,66,75
98799,note_on,79,0,1,,,,,,,,,0,,,65,0
98880,note_on,81,0,1,,,,,,,,,0,,,66,0
98880,set_tempo,240,1,0,,,,,,606061,,,,,,,
98880,note_on,1440,0,3,,,,,,,,,2,,,39,62
98880,note_on,0,0,1,,,,,,,,,0,,,67,75
98960,note_on,80,0,1,,,,,,,,,0,,,67,0
98960,note_on,0,0,1,,,,,,,,,0,,,61,75
99039,note_on,0,0,3,,,,,,,,,2,,,55,62
99039,note_on,79,0,1,,,,,,,,,0,,,61,0
99039,note_on,159,0,3,,,,,,,,,2,,,39,0
99039,note_on,0,0,1,,,,,,,,,0,,,63,75
99120,note_on,81,0,1,,,,,,,,,0,,,63,0
99120,note_on,0,0,1,,,,,,,,,0,,,72,75
99200,note_on,80,0,1,,,,,,,,,0,,,72,0
99200,control_change,0,0,3,,,,,,,,,2,64,0,,
99200,note_on,0,0,1,,,,,,,,,0,,,61,75
99200,note_on,161,0,3,,,,,,,,,2,,,55,0
99200,note_on,0,0,3,,,,,,,,,2,,,51,62
99279,note_on,0,0,1,,,,,,,,,0,,,70,75
99279,note_on,79,0,1,,,,,,,,,0,,,61,0
99279,control_change,0,0,1,,,,,,,,,0,64,0,,
99360,set_tempo,0,1,0,,,,,,480000,,,,,,,
99360,control_change,0,0,3,,,,,,,,,2,64,127,,
99360,note_on,0,0,1,,,,,,,,,0,,,68,75
99360,time_signature,480,1,0,4,4,24,8,,,,,,,,,
99360,note_on,0,0,1,,,,,,,,,0,,,60,75
99360,note_on,81,0,1,,,,,,,,,0,,,70,0
99360,control_change,0,0,1,,,,,,,,,0,64,127,,
99360,note_on,160,0,3,,,,,,,,,2,,,51,0
99360,note_on,0,0,3,,,,,,,,,2,,,44,62
99440,note_on,80,0,3,,,,,,,,,2,,,44,0
99440,note_on,0,0,3,,,,,,,,,2,,,51,62
99519,note_on,0,0,3,,,,,,,,,2,,,56,62
99519,note_on,79,0,3,,,,,,,,,2,,,51,0
99600,note_on,0,0,3,,,,,,,,,2,,,60,62
99600,note_on,81,0,3,,,,,,,,,2,,,56,0
99680,note_on,80,0,3,,,,,,,,,2,,,60,0
99680,note_on,0,0,3,,,,,,,,,2,,,65,62
99759,note_on,0,0,3,,,,,,,,,2,,,63,62
99759,note_on,79,0,3,,,,,,,,,2,,,65,0
99760,note_on,400,0,1,,,,,,,,,0,,,68,75
99800,note_on,40,0,1,,,,,,,,,0,,,75,75
99840,note_on,0,0,1,,,,,,,,,0,,,84,75
99840,note_on,40,0,1,,,,,,,,,0,,,68,0
99840,note_on,0,0,1,,,,,,,,,0,,,60,0
99840,note_on,81,0,3,,,,,,,,,2,,,63,0
99840,note_on,0,0,3,,,,,,,,,2,,,65,62
99920,note_on,0,0,3,,,,,,,,,2,,,63,62
99920,note_on,80,0,3,,,,,,,,,2,,,65,0
99999,note_on,0,0,1,,,,,,,,,0,,,77,75
99999,note_on,79,0,3,,,,,,,,,2,,,63,0
99999,note_on,0,0,1,,,,,,,,,0,,,68,0
99999,note_on,0,0,3,,,,,,,,,2,,,65,62
99999,note_on,0,0,1,,,,,,,,,0,,,75,0
99999,note_on,159,0,1,,,,,,,,,0,,,84,0
100080,note_on,0,0,1,,,,,,,,,0,,,85,75
100080,note_on,81,0,3,,,,,,,,,2,,,65,0
100080,note_on,0,0,3,,,,,,,,,2,,,63,62
100080,note_on,81,0,1,,,,,,,,,0,,,77,0
100160,note_on,80,0,3,,,,,,,,,2,,,63,0
100160,note_on,80,0,1,,,,,,,,,0,,,85,0
100160,note_on,0,0,1,,,,,,,,,0,,,80,75
100160,note_on,0,0,3,,,,,,,,,2,,,65,62
100239,note_on,0,0,1,,,,,,,,,0,,,89,75
100239,note_on,79,0,1,,,,,,,,,0,,,80,0
100239,note_on,79,0,3,,,,,,,,,2,,,65,0
100239,note_on,0,0,3,,,,,,,,,2,,,63,62
100320,note_on,81,0,3,,,,,,,,,2,,,63,0
100320,note_on,0,0,1,,,,,,,,,0,,,79,75
100320,note_on,81,0,1,,,,,,,,,0,,,89,0
100400,note_on,0,0,1,,,,,,,,,0,,,87,75
100400,note_on,80,0,1,,,,,,,,,0,,,79,0
100479,note_on,79,0,1,,,,,,,,,0,,,87,0
100479,note_on,0,0,1,,,,,,,,,0,,,72,75
100560,note_on,81,0,1,,,,,,,,,0,,,72,0
100560,note_on,0,0,1,,,,,,,,,0,,,81,75
100640,note_on,0,0,1,,,,,,,,,0,,,73,75
100640,note_on,80,0,1,,,,,,,,,0,,,81,0
100719,note_on,79,0,1,,,,,,,,,0,,,73,0
100719,note_on,0,0,1,,,,,,,,,0,,,82,75
100720,note_on,1,0,1,,,,,,,,,0,,,67,75
100760,note_on,40,0,1,,,,,,,,,0,,,77,75
100800,note_on,480,0,3,,,,,,,,,2,,,63,62
100800,control_change,0,0,1,,,,,,,,,0,64,0,,
100800,note_on,40,0,1,,,,,,,,,0,,,82,0
100800,note_on,0,0,1,,,,,,,,,0,,,85,75
100880,note_on,0,0,3,,,,,,,,,2,,,61,62
100880,note_on,80,0,3,,,,,,,,,2,,,63,0
100959,note_on,0,0,3,,,,,,,,,2,,,63,62
100959,note_on,79,0,3,,,,,,,,,2,,,61,0
101040,note_on,0,0,3,,,,,,,,,2,,,61,62
101040,note_on,81,0,3,,,,,,,,,2,,,63,0
101120,note_on,0,0,3,,,,,,,,,2,,,55,62
101120,note_on,80,0,3,,,,,,,,,2,,,61,0
101199,note_on,79,0,3,,,,,,,,,2,,,55,0
101199,control_change,0,0,3,,,,,,,,,2,64,0,,
101199,note_on,0,0,3,,,,,,,,,2,,,51,62
101280,control_change,480,0,1,,,,,,,,,0,64,127,,
101280,control_change,0,0,3,,,,,,,,,2,64,127,,
101280,note_on,81,0,3,,,,,,,,,2,,,51,0
101280,note_on,0,0,3,,,,,,,,,2,,,44,62
101360,note_on,0,0,3,,,,,,,,,2,,,51,62
101360,note_on,80,0,1,,,,,,,,,0,,,68,75
101360,note_on,80,0,3,,,,,,,,,2,,,44,0
101400,note_on,40,0,1,,,,,,,,,0,,,74,75
101439,note_on,39,0,1,,,,,,,,,0,,,85,0
101439,note_on,0,0,1,,,,,,,,,0,,,77,0
101439,note_on,0,0,1,,,,,,,,,0,,,67,0
101439,note_on,79,0,3,,,,,,,,,2,,,51,0
101439,note_on,0,0,3,,,,,,,,,2,,,56,62
101439,note_on,0,0,1,,,,,,,,,0,,,83,75
101520,note_on,0,0,3,,,,,,,,,2,,,60,62
101520,note_on,81,0,3,,,,,,,,,2,,,56,0
101600,note_on,0,0,1,,,,,,,,,0,,,75,75
101600,note_on,0,0,3,,,,,,,,,2,,,65,62
101600,note_on,161,0,1,,,,,,,,,0,,,83,0
101600,note_on,80,0,3,,,,,,,,,2,,,60,0
101600,note_on,0,0,1,,,,,,,,,0,,,74,0
101600,note_on,0,0,1,,,,,,,,,0,,,68,0
101679,note_on,79,0,3,,,,,,,,,2,,,65,0
101679,note_on,79,0,1,,,,,,,,,0,,,75,0
101679,note_on,0,0,1,,,,,,,,,0,,,84,75
101679,note_on,0,0,3,,,,,,,,,2,,,63,62
101760,note_on,0,0,3,,,,,,,,,2,,,65,62
101760,note_on,81,0,3,,,,,,,,,2,,,63,0
101760,note_on,81,0,1,,,,,,,,,0,,,84,0
101760,note_on,0,0,1,,,,,,,,,0,,,76,75
101840,note_on,0,0,3,,,,,,,,,2,,,63,62
101840,note_on,0,0,1,,,,,,,,,0,,,84,75
101840,note_on,80,0,1,,,,,,,,,0,,,76,0
101840,note_on,80,0,3,,,,,,,,,2,,,65,0
101919,note_on,79,0,3,,,,,,,,,2,,,63,0
101919,note_on,79,0,1,,,,,,,,,0,,,84,0
101919,note_on,0,0,1,,,,,,,,,0,,,79,75
101919,note_on,0,0,3,,,,,,,,,2,,,65,62
102000,note_on,0,0,1,,,,,,,,,0,,,87,75
102000,note_on,81,0,1,,,,,,,,,0,,,79,0
102000,note_on,0,0,3,,,,,,,,,2,,,63,62
102000,note_on,81,0,3,,,,,,,,,2,,,65,0
102080,note_on,0,0,1,,,,,,,,,0,,,77,75
102080,note_on,80,0,1,,,,,,,,,0,,,87,0
102080,note_on,0,0,3,,,,,,,,,2,,,65,62
102080,note_on,80,0,3,,,,,,,,,2,,,63,0
102159,note_on,0,0,3,,,,,,,,,2,,,63,62
102159,note_on,0,0,1,,,,,,,,,0,,,85,75
102159,note_on,79,0,1,,,,,,,,,0,,,77,0
102159,note_on,79,0,3,,,,,,,,,2,,,65,0
102240,note_on,81,0,3,,,,,,,,,2,,,63,0
102240,note_on,0,0,1,,,,,,,,,0,,,75,75
102240,note_on,81,0,1,,,,,,,,,0,,,85,0
102320,note_on,80,0,1,,,,,,,,,0,,,75,0
102320,note_on,0,0,1,,,,,,,,,0,,,84,75
102399,note_on,79,0,1,,,,,,,,,0,,,84,0
102399,note_on,0,0,1,,,,,,,,,0,,,72,75
102480,note_on,81,0,1,,,,,,,,,0,,,72,0
102480,note_on,0,0,1,,,,,,,,,0,,,81,75
102560,note_on,0,0,1,,,,,,,,,0,,,73,75
102560,note_on,80,0,1,,,,,,,,,0,,,81,0
102639,note_on,79,0,1,,,,,,,,,0,,,73,0
102639,note_on,0,0,1,,,,,,,,,0,,,82,75
102640,note_on,1,0,1,,,,,,,,,0,,,67,75
102680,note_on,40,0,1,,,,,,,,,0,,,74,75
102720,note_on,40,0,1,,,,,,,,,0,,,82,0
102720,note_on,0,0,1,,,,,,,,,0,,,83,75
102720,note_on,480,0,3,,,,,,,,,2,,,63,62
102800,note_on,0,0,3,,,,,,,,,2,,,61,62
102800,note_on,80,0,3,,,,,,,,,2,,,63,0
102879,note_on,0,0,3,,,,,,,,,2,,,63,62
102879,note_on,159,0,1,,,,,,,,,0,,,83,0
102879,note_on,0,0,1,,,,,,,,,0,,,74,0
102879,note_on,0,0,1,,,,,,,,,0,,,77,75
102879,note_on,79,0,3,,,,,,,,,2,,,61,0
102879,note_on,0,0,1,,,,,,,,,0,,,67,0
102960,note_on,0,0,1,,,,,,,,,0,,,85,75
102960,note_on,81,0,1,,,,,,,,,0,,,77,0
102960,note_on,0,0,3,,,,,,,,,2,,,61,62
102960,note_on,81,0,3,,,,,,,,,2,,,63,0
103040,note_on,0,0,1,,,,,,,,,0,,,75,75
103040,note_on,0,0,3,,,,,,,,,2,,,55,62
103040,note_on,80,0,3,,,,,,,,,2,,,61,0
103040,note_on,80,0,1,,,,,,,,,0,,,85,0
103119,note_on,0,0,3,,,,,,,,,2,,,51,62
103119,note_on,79,0,3,,,,,,,,,2,,,55,0
103119,note_on,79,0,1,,,,,,,,,0,,,75,0
103119,note_on,0,0,1,,,,,,,,,0,,,84,75
103119,control_change,0,0,1,,,,,,,,,0,64,0,,
103119,control_change,0,0,3,,,,,,,,,2,64,0,,
103200,note_on,81,0,3,,,,,,,,,2,,,51,0
103200,control_change,0,0,3,,,,,,,,,2,64,127,,
103200,set_tempo,3840,1,0,,,,,,480000,,,,,,,
103200,control_change,0,0,1,,,,,,,,,0,64,127,,
103200,note_on,81,0,1,,,,,,,,,0,,,84,0
103200,note_on,0,0,3,,,,,,,,,2,,,44,62
103200,note_on,0,0,1,,,,,,,,,0,,,80,75
103200,note_on,0,0,1,,,,,,,,,0,,,72,75
103280,note_on,0,0,3,,,,,,,,,2,,,51,62
103280,note_on,80,0,3,,,,,,,,,2,,,44,0
103359,note_on,79,0,3,,,,,,,,,2,,,51,0
103359,note_on,0,0,3,,,,,,,,,2,,,56,62
103440,note_on,0,0,3,,,,,,,,,2,,,60,62
103440,note_on,81,0,3,,,,,,,,,2,,,56,0
103520,note_on,0,0,3,,,,,,,,,2,,,65,62
103520,note_on,80,0,3,,,,,,,,,2,,,60,0
103599,note_on,79,0,3,,,,,,,,,2,,,65,0
103599,note_on,0,0,3,,,,,,,,,2,,,63,62
103600,note_on,400,0,1,,,,,,,,,0,,,80,75
103640,note_on,40,0,1,,,,,,,,,0,,,87,75
103680,note_on,0,0,3,,,,,,,,,2,,,65,62
103680,note_on,0,0,1,,,,,,,,,0,,,96,75
103680,note_on,0,0,1,,,,,,,,,0,,,72,0
103680,note_on,81,0,3,,,,,,,,,2,,,63,0
103680,note_on,40,0,1,,,,,,,,,0,,,80,0
103760,note_on,80,0,3,,,,,,,,,2,,,65,0
103760,note_on,0,0,3,,,,,,,,,2,,,63,62
103839,note_on,0,0,1,,,,,,,,,0,,,89,75
103839,note_on,0,0,1,,,,,,,,,0,,,87,0
103839,note_on,0,0,1,,,,,,,,,0,,,80,0
103839,note_on,0,0,1,,,,,,,,,0,,,85,75
103839,note_on,79,0,3,,,,,,,,,2,,,63,0
103839,note_on,0,0,3,,,,,,,,,2,,,65,62
103839,note_on,159,0,1,,,,,,,,,0,,,96,0
103920,note_on,0,0,3,,,,,,,,,2,,,63,62
103920,note_on,81,0,1,,,,,,,,,0,,,89,0
103920,note_on,81,0,3,,,,,,,,,2,,,65,0
103920,note_on,0,0,1,,,,,,,,,0,,,85,0
103920,note_on,0,0,1,,,,,,,,,0,,,97,75
104000,note_on,0,0,1,,,,,,,,,0,,,92,75
104000,note_on,80,0,1,,,,,,,,,0,,,97,0
104000,note_on,0,0,1,,,,,,,,,0,,,89,75
104000,note_on,0,0,3,,,,,,,,,2,,,65,62
104000,note_on,80,0,3,,,,,,,,,2,,,63,0
104079,note_on,79,0,1,,,,,,,,,0,,,92,0
104079,note_on,0,0,1,,,,,,,,,0,,,89,0
104079,note_on,0,0,1,,,,,,,,,0,,,101,75
104079,note_on,79,0,3,,,,,,,,,2,,,65,0
104079,note_on,0,0,3,,,,,,,,,2,,,63,62
104160,note_on,81,0,1,,,,,,,,,0,,,101,0
104160,note_on,81,0,3,,,,,,,,,2,,,63,0
104160,note_on,0,0,1,,,,,,,,,0,,,87,75
104160,note_on,0,0,1,,,,,,,,,0,,,91,75
104240,note_on,0,0,1,,,,,,,,,0,,,87,0
104240,note_on,0,0,1,,,,,,,,,0,,,99,75
104240,note_on,80,0,1,,,,,,,,,0,,,91,0
104319,note_on,79,0,1,,,,,,,,,0,,,99,0
104319,note_on,0,0,1,,,,,,,,,0,,,81,75
104319,note_on,0,0,1,,,,,,,,,0,,,84,75
104400,note_on,0,0,1,,,,,,,,,0,,,81,0
104400,note_on,0,0,1,,,,,,,,,0,,,93,75
104400,note_on,81,0,1,,,,,,,,,0,,,84,0
104480,note_on,0,0,1,,,,,,,,,0,,,85,75
104480,note_on,80,0,1,,,,,,,,,0,,,93,0
104480,note_on,0,0,1,,,,,,,,,0,,,82,75
104559,note_on,79,0,1,,,,,,,,,0,,,85,0
104559,note_on,0,0,1,,,,,,,,,0,,,94,75
104559,note_on,0,0,1,,,,,,,,,0,,,82,0
104560,note_on,1,0,1,,,,,,,,,0,,,79,75
104600,note_on,40,0,1,,,,,,,,,0,,,89,75
104640,control_change,0,0,1,,,,,,,,,0,64,0,,
104640,note_on,40,0,1,,,,,,,,,0,,,94,0
104640,note_on,0,0,1,,,,,,,,,0,,,97,75
104640,note_on,480,0,3,,,,,,,,,2,,,63,62
104720,note_on,0,0,3,,,,,,,,,2,,,61,62
104720,note_on,80,0,3,,,,,,,,,2,,,63,0
104799,note_on,79,0,3,,,,,,,,,2,,,61,0
104799,note_on,0,0,3,,,,,,,,,2,,,63,62
104880,note_on,0,0,3,,,,,,,,,2,,,61,62
104880,note_on,81,0,3,,,,,,,,,2,,,63,0
104960,note_on,0,0,3,,,,,,,,,2,,,55,62
104960,note_on,80,0,3,,,,,,,,,2,,,61,0
105039,note_on,79,0,3,,,,,,,,,2,,,55,0
105039,control_change,0,0,3,,,,,,,,,2,64,0,,
105039,note_on,0,0,3,,,,,,,,,2,,,51,62
105120,control_change,480,0,1,,,,,,,,,0,64,127,,
105120,note_on,81,0,3,,,,,,,,,2,,,51,0
105120,control_change,0,0,3,,,,,,,,,2,64,127,,
105120,note_on,0,0,3,,,,,,,,,2,,,44,62
105200,note_on,80,0,3,,,,,,,,,2,,,44,0
105200,note_on,0,0,3,,,,,,,,,2,,,51,62
105279,note_on,0,0,3,,,,,,,,,2,,,56,62
105279,note_on,0,0,1,,,,,,,,,0,,,79,0
105279,note_on,79,0,3,,,,,,,,,2,,,51,0
105279,note_on,0,0,1,,,,,,,,,0,,,89,0
105279,note_on,0,0,1,,,,,,,,,0,,,86,75
105279,note_on,0,0,1,,,,,,,,,0,,,83,75
105279,note_on,159,0,1,,,,,,,,,0,,,97,0
105360,note_on,0,0,3,,,,,,,,,2,,,60,62
105360,note_on,81,0,3,,,,,,,,,2,,,56,0
105360,note_on,0,0,1,,,,,,,,,0,,,95,75
105360,note_on,81,0,1,,,,,,,,,0,,,86,0
105360,note_on,0,0,1,,,,,,,,,0,,,83,0
105440,note_on,0,0,1,,,,,,,,,0,,,87,75
105440,note_on,80,0,3,,,,,,,,,2,,,60,0
105440,note_on,0,0,1,,,,,,,,,0,,,84,75
105440,note_on,80,0,1,,,,,,,,,0,,,95,0
105440,note_on,0,0,3,,,,,,,,,2,,,65,62
105519,note_on,0,0,1,,,,,,,,,0,,,96,75
105519,note_on,79,0,1,,,,,,,,,0,,,87,0
105519,note_on,0,0,1,,,,,,,,,0,,,84,0
105519,note_on,0,0,3,,,,,,,,,2,,,63,62
105519,note_on,79,0,3,,,,,,,,,2,,,65,0
105600,note_on,0,0,3,,,,,,,,,2,,,65,62
105600,note_on,81,0,1,,,,,,,,,0,,,96,0
105600,note_on,0,0,1,,,,,,,,,0,,,88,75
105600,note_on,81,0,3,,,,,,,,,2,,,63,0
105600,note_on,0,0,1,,,,,,,,,0,,,84,75
105680,note_on,80,0,3,,,,,,,,,2,,,65,0
105680,note_on,0,0,1,,,,,,,,,0,,,96,75
105680,note_on,80,0,1,,,,,,,,,0,,,88,0
105680,note_on,0,0,1,,,,,,,,,0,,,84,0
105680,note_on,0,0,3,,,,,,,,,2,,,63,62
105759,note_on,0,0,3,,,,,,,,,2,,,65,62
105759,note_on,0,0,1,,,,,,,,,0,,,91,75
105759,note_on,79,0,1,,,,,,,,,0,,,96,0
105759,note_on,0,0,1,,,,,,,,,0,,,87,75
105759,note_on,79,0,3,,,,,,,,,2,,,63,0
105840,note_on,0,0,1,,,,,,,,,0,,,99,75
105840,note_on,0,0,1,,,,,,,,,0,,,87,0
105840,note_on,0,0,3,,,,,,,,,2,,,63,62
105840,note_on,81,0,1,,,,,,,,,0,,,91,0
105840,note_on,81,0,3,,,,,,,,,2,,,65,0
105920,note_on,0,0,1,,,,,,,,,0,,,85,75
105920,note_on,0,0,3,,,,,,,,,2,,,65,62
105920,note_on,80,0,3,,,,,,,,,2,,,63,0
105920,note_on,80,0,1,,,,,,,,,0,,,99,0
105920,note_on,0,0,1,,,,,,,,,0,,,89,75
105999,note_on,79,0,1,,,,,,,,,0,,,89,0
105999,note_on,0,0,3,,,,,,,,,2,,,63,62
105999,note_on,0,0,1,,,,,,,,,0,,,85,0
105999,note_on,0,0,1,,,,,,,,,0,,,97,75
105999,note_on,79,0,3,,,,,,,,,2,,,65,0
106080,note_on,81,0,1,,,,,,,,,0,,,97,0
106080,note_on,0,0,1,,,,,,,,,0,,,84,75
106080,note_on,0,0,1,,,,,,,,,0,,,87,75
106080,note_on,81,0,3,,,,,,,,,2,,,63,0
106160,note_on,0,0,1,,,,,,,,,0,,,84,0
106160,note_on,80,0,1,,,,,,,,,0,,,87,0
106160,note_on,0,0,1,,,,,,,,,0,,,96,75
106239,note_on,0,0,1,,,,,,,,,0,,,81,75
106239,note_on,79,0,1,,,,,,,,,0,,,96,0
106239,note_on,0,0,1,,,,,,,,,0,,,84,75
106320,note_on,0,0,1,,,,,,,,,0,,,81,0
106320,note_on,0,0,1,,,,,,,,,0,,,93,75
106320,note_on,81,0,1,,,,,,,,,0,,,84,0
106400,note_on,0,0,1,,,,,,,,,0,,,82,75
106400,note_on,0,0,1,,,,,,,,,0,,,85,75
106400,note_on,80,0,1,,,,,,,,,0,,,93,0
106479,note_on,0,0,1,,,,,,,,,0,,,82,0
106479,note_on,79,0,1,,,,,,,,,0,,,85,0
106479,note_on,0,0,1,,,,,,,,,0,,,94,75
106560,note_on,0,0,1,,,,,,,,,0,,,83,75
106560,note_on,0,0,1,,,,,,,,,0,,,86,75
106560,note_on,480,0,3,,,,,,,,,2,,,63,62
106560,note_on,81,0,1,,,,,,,,,0,,,94,0
106640,note_on,0,0,1,,,,,,,,,0,,,95,75
106640,note_on,0,0,3,,,,,,,,,2,,,61,62
106640,note_on,80,0,3,,,,,,,,,2,,,63,0
106640,note_on,80,0,1,,,,,,,,,0,,,86,0
106640,note_on,0,0,1,,,,,,,,,0,,,83,0
106719,note_on,79,0,3,,,,,,,,,2,,,61,0
106719,note_on,79,0,1,,,,,,,,,0,,,95,0
106719,note_on,0,0,1,,,,,,,,,0,,,85,75
106719,note_on,0,0,3,,,,,,,,,2,,,63,62
106719,note_on,0,0,1,,,,,,,,,0,,,89,75
106800,note_on,81,0,1,,,,,,,,,0,,,89,0
106800,note_on,0,0,1,,,,,,,,,0,,,97,75
106800,note_on,0,0,1,,,,,,,,,0,,,85,0
106800,note_on,0,0,3,,,,,,,,,2,,,61,62
106800,note_on,81,0,3,,,,,,,,,2,,,63,0
106880,note_on,0,0,1,,,,,,,,,0,,,84,75
106880,note_on,80,0,3,,,,,,,,,2,,,61,0
106880,note_on,80,0,1,,,,,,,,,0,,,97,0
106880,note_on,0,0,3,,,,,,,,,2,,,55,62
106880,note_on,0,0,1,,,,,,,,,0,,,87,75
106959,note_on,0,0,3,,,,,,,,,2,,,51,62
106959,control_change,0,0,3,,,,,,,,,2,64,0,,
106959,note_on,79,0,1,,,,,,,,,0,,,87,0
106959,note_on,0,0,1,,,,,,,,,0,,,84,0
106959,note_on,79,0,3,,,,,,,,,2,,,55,0
106959,note_on,0,0,1,,,,,,,,,0,,,96,75
107040,note_on,0,0,1,,,,,,,,,0,,,80,75
107040,note_on,0,0,1,,,,,,,,,0,,,84,75
107040,note_on,81,0,3,,,,,,,,,2,,,51,0
107040,note_on,81,0,1,,,,,,,,,0,,,96,0
107040,control_change,0,0,3,,,,,,,,,2,64,127,,
107040,control_change,0,0,1,,,,,,,,,0,64,127,,
107040,note_on,0,0,3,,,,,,,,,2,,,44,62
107100,note_on,0,0,1,,,,,,,,,0,,,80,0
107100,note_on,0,0,1,,,,,,,,,0,,,92,75
107100,note_on,60,0,1,,,,,,,,,0,,,84,0
107160,note_on,60,0,1,,,,,,,,,0,,,92,0
107199,note_on,68319,0,2,,,,,,,,,1,,,59,62
107199,note_on,159,0,3,,,,,,,,,2,,,44,0
107199,note_on,0,0,3,,,,,,,,,2,,,51,62
107360,note_on,161,0,2,,,,,,,,,1,,,59,0
107360,note_on,0,0,2,,,,,,,,,1,,,60,75
107360,note_on,0,0,3,,,,,,,,,2,,,56,62
107360,note_on,161,0,3,,,,,,,,,2,,,51,0
107520,note_on,160,0,3,,,,,,,,,2,,,56,0
107520,note_on,160,0,2,,,,,,,,,1,,,60,0
107520,note_on,0,0,2,,,,,,,,,1,,,61,101
107520,note_on,0,0,3,,,,,,,,,2,,,43,62
107520,note_on,360,0,1,,,,,,,,,0,,,61,62
107600,note_on,0,0,1,,,,,,,,,0,,,64,62
107600,note_on,80,0,1,,,,,,,,,0,,,61,0
107679,note_on,0,0,1,,,,,,,,,0,,,67,62
107679,note_on,79,0,1,,,,,,,,,0,,,64,0
107679,note_on,159,0,3,,,,,,,,,2,,,43,0
107679,note_on,0,0,3,,,,,,,,,2,,,52,62
107760,note_on,81,0,1,,,,,,,,,0,,,67,0
107760,note_on,0,0,1,,,,,,,,,0,,,70,62
107840,note_on,80,0,1,,,,,,,,,0,,,70,0
107840,note_on,161,0,3,,,,,,,,,2,,,52,0
107840,note_on,0,0,3,,,,,,,,,2,,,61,62
107840,note_on,0,0,1,,,,,,,,,0,,,73,62
107840,note_on,0,0,3,,,,,,,,,2,,,58,62
107919,note_on,0,0,1,,,,,,,,,0,,,76,62
107919,note_on,79,0,1,,,,,,,,,0,,,73,0
108000,note_on,0,0,1,,,,,,,,,0,,,77,75
108000,note_on,81,0,1,,,,,,,,,0,,,76,0
108000,note_on,0,0,3,,,,,,,,,2,,,41,62
108000,note_on,0,0,3,,,,,,,,,2,,,58,0
108000,note_on,160,0,3,,,,,,,,,2,,,61,0
108080,note_on,80,0,1,,,,,,,,,0,,,77,0
108080,note_on,0,0,1,,,,,,,,,0,,,78,75
108159,note_on,0,0,3,,,,,,,,,2,,,53,62
108159,note_on,79,0,1,,,,,,,,,0,,,78,0
108159,note_on,159,0,3,,,,,,,,,2,,,41,0
108159,note_on,0,0,1,,,,,,,,,0,,,79,75
108240,note_on,81,0,1,,,,,,,,,0,,,79,0
108240,note_on,0,0,1,,,,,,,,,0,,,80,75
108320,note_on,0,0,1,,,,,,,,,0,,,81,75
108320,note_on,161,0,3,,,,,,,,,2,,,53,0
108320,note_on,80,0,1,,,,,,,,,0,,,80,0
108320,note_on,0,0,3,,,,,,,,,2,,,61,62
108320,note_on,0,0,3,,,,,,,,,2,,,58,62
108399,note_on,79,0,1,,,,,,,,,0,,,81,0
108399,note_on,0,0,1,,,,,,,,,0,,,82,75
108480,note_on,81,0,1,,,,,,,,,0,,,82,0
108480,note_on,160,0,3,,,,,,,,,2,,,61,0
108480,note_on,0,0,1,,,,,,,,,0,,,85,75
108480,note_on,0,0,3,,,,,,,,,2,,,40,62
108480,note_on,0,0,3,,,,,,,,,2,,,58,0
108560,note_on,0,0,1,,,,,,,,,0,,,88,75
108560,note_on,80,0,1,,,,,,,,,0,,,85,0
108639,note_on,0,0,3,,,,,,,,,2,,,55,62
108639,note_on,79,0,1,,,,,,,,,0,,,88,0
108639,note_on,159,0,3,,,,,,,,,2,,,40,0
108639,note_on,0,0,1,,,,,,,,,0,,,91,75
108720,note_on,0,0,1,,,,,,,,,0,,,92,75
108720,note_on,81,0,1,,,,,,,,,0,,,91,0
108800,note_on,161,0,3,,,,,,,,,2,,,55,0
108800,note_on,0,0,3,,,,,,,,,2,,,58,62
108800,control_change,0,0,3,,,,,,,,,2,64,0,,
108800,note_on,80,0,1,,,,,,,,,0,,,92,0
108800,note_on,0,0,3,,,,,,,,,2,,,61,62
108800,note_on,0,0,1,,,,,,,,,0,,,93,75
108879,note_on,79,0,1,,,,,,,,,0,,,93,0
108879,control_change,0,0,1,,,,,,,,,0,64,0,,
108879,note_on,0,0,1,,,,,,,,,0,,,94,75
108960,note_on,0,0,3,,,,,,,,,2,,,46,62
108960,note_on,81,0,1,,,,,,,,,0,,,94,0
108960,note_on,0,0,1,,,,,,,,,0,,,97,101
108960,note_on,0,0,3,,,,,,,,,2,,,58,0
108960,control_change,0,0,3,,,,,,,,,2,64,127,,
108960,control_change,0,0,1,,,,,,,,,0,64,127,,
108960,note_on,160,0,3,,,,,,,,,2,,,61,0
108960,note_on,1440,0,2,,,,,,,,,1,,,61,0
109056,note_on,96,0,1,,,,,,,,,0,,,97,0
109119,note_on,159,0,2,,,,,,,,,1,,,60,75
109119,note_on,159,0,3,,,,,,,,,2,,,46,0
109119,note_on,0,0,3,,,,,,,,,2,,,53,62
109280,note_on,0,0,3,,,,,,,,,2,,,58,62
109280,note_on,0,0,2,,,,,,,,,1,,,61,75
109280,note_on,161,0,3,,,,,,,,,2,,,53,0
109280,note_on,161,0,2,,,,,,,,,1,,,60,0
109440,note_on,0,0,3,,,,,,,,,2,,,44,62
109440,note_on,384,0,1,,,,,,,,,0,,,62,75
109440,note_on,160,0,2,,,,,,,,,1,,,61,0
109440,note_on,160,0,3,,,,,,,,,2,,,58,0
109440,note_on,0,0,2,,,,,,,,,1,,,62,101
109520,note_on,80,0,1,,,,,,,,,0,,,62,0
109520,note_on,0,0,1,,,,,,,,,0,,,65,75
109599,note_on,79,0,1,,,,,,,,,0,,,65,0
109599,note_on,0,0,3,,,,,,,,,2,,,53,62
109599,note_on,0,0,1,,,,,,,,,0,,,68,75
109599,note_on,159,0,3,,,,,,,,,2,,,44,0
109680,note_on,81,0,1,,,,,,,,,0,,,68,0
109680,note_on,0,0,1,,,,,,,,,0,,,71,75
109760,note_on,0,0,3,,,,,,,,,2,,,59,62
109760,note_on,0,0,1,,,,,,,,,0,,,74,75
109760,note_on,0,0,3,,,,,,,,,2,,,62,62
109760,note_on,161,0,3,,,,,,,,,2,,,53,0
109760,note_on,80,0,1,,,,,,,,,0,,,71,0
109839,note_on,79,0,1,,,,,,,,,0,,,74,0
109839,note_on,0,0,1,,,,,,,,,0,,,77,75
109920,note_on,0,0,3,,,,,,,,,2,,,59,0
109920,note_on,480,0,2,,,,,,,,,1,,,62,0
109920,note_on,81,0,1,,,,,,,,,0,,,77,0
109920,note_on,0,0,3,,,,,,,,,2,,,42,62
109920,set_tempo,6720,1,0,,,,,,444444,,,,,,,
109920,note_on,160,0,3,,,,,,,,,2,,,62,0
109920,note_on,0,0,1,,,,,,,,,0,,,78,75
110000,note_on,80,0,1,,,,,,,,,0,,,78,0
110000,note_on,0,0,1,,,,,,,,,0,,,79,75
110079,note_on,0,0,3,,,,,,,,,2,,,54,62
110079,note_on,159,0,3,,,,,,,,,2,,,42,0
110079,note_on,79,0,1,,,,,,,,,0,,,79,0
110079,note_on,0,0,1,,,,,,,,,0,,,80,75
110160,note_on,0,0,1,,,,,,,,,0,,,81,75
110160,note_on,81,0,1,,,,,,,,,0,,,80,0
110240,note_on,0,0,1,,,,,,,,,0,,,82,75
110240,note_on,161,0,3,,,,,,,,,2,,,54,0
110240,note_on,80,0,1,,,,,,,,,0,,,81,0
110240,note_on,0,0,3,,,,,,,,,2,,,59,62
110240,note_on,0,0,3,,,,,,,,,2,,,62,62
110319,note_on,79,0,1,,,,,,,,,0,,,82,0
110319,note_on,0,0,1,,,,,,,,,0,,,83,75
110400,note_on,0,0,3,,,,,,,,,2,,,59,0
110400,note_on,81,0,1,,,,,,,,,0,,,83,0
110400,note_on,160,0,3,,,,,,,,,2,,,62,0
110400,note_on,0,0,3,,,,,,,,,2,,,41,62
110400,note_on,0,0,1,,,,,,,,,0,,,86,75
110480,note_on,0,0,1,,,,,,,,,0,,,89,75
110480,note_on,80,0,1,,,,,,,,,0,,,86,0
110559,note_on,0,0,3,,,,,,,,,2,,,56,62
110559,note_on,79,0,1,,,,,,,,,0,,,89,0
110559,note_on,159,0,3,,,,,,,,,2,,,41,0
110559,note_on,0,0,1,,,,,,,,,0,,,92,75
110640,note_on,81,0,1,,,,,,,,,0,,,92,0
110640,note_on,0,0,1,,,,,,,,,0,,,95,75
110720,control_change,0,0,3,,,,,,,,,2,64,0,,
110720,note_on,161,0,3,,,,,,,,,2,,,56,0
110720,note_on,0,0,3,,,,,,,,,2,,,62,62
110720,note_on,0,0,1,,,,,,,,,0,,,96,75
110720,note_on,0,0,3,,,,,,,,,2,,,59,62
110720,note_on,80,0,1,,,,,,,,,0,,,95,0
110799,note_on,0,0,1,,,,,,,,,0,,,97,75
110799,control_change,0,0,1,,,,,,,,,0,64,0,,
110799,note_on,79,0,1,,,,,,,,,0,,,96,0
110880,note_on,0,0,3,,,,,,,,,2,,,47,75
110880,note_on,0,0,3,,,,,,,,,2,,,59,0
110880,control_change,0,0,3,,,,,,,,,2,64,127,,
110880,note_on,160,0,3,,,,,,,,,2,,,62,0
110880,control_change,0,0,1,,,,,,,,,0,64,127,,
110880,note_on,81,0,1,,,,,,,,,0,,,97,0
110880,note_on,0,0,1,,,,,,,,,0,,,98,114
110911,note_on,31,0,1,,,,,,,,,0,,,98,0
111039,note_on,128,0,1,,,,,,,,,0,,,61,88
111039,note_on,159,0,3,,,,,,,,,2,,,47,0
111039,note_on,0,0,3,,,,,,,,,2,,,54,75
111200,note_on,161,0,1,,,,,,,,,0,,,61,0
111200,note_on,161,0,3,,,,,,,,,2,,,54,0
111200,note_on,0,0,3,,,,,,,,,2,,,59,75
111200,note_on,0,0,1,,,,,,,,,0,,,62,88
111360,note_on,160,0,1,,,,,,,,,0,,,62,0
111360,note_on,160,0,3,,,,,,,,,2,,,59,0
111360,note_on,1440,0,2,,,,,,,,,1,,,63,114
111360,note_on,0,0,1,,,,,,,,,0,,,63,88
111360,note_on,0,0,3,,,,,,,,,2,,,45,75
111440,note_on,0,0,1,,,,,,,,,0,,,66,88
111440,note_on,80,0,1,,,,,,,,,0,,,63,0
111519,note_on,159,0,3,,,,,,,,,2,,,45,0
111519,note_on,79,0,1,,,,,,,,,0,,,66,0
111519,note_on,0,0,3,,,,,,,,,2,,,54,75
111519,note_on,0,0,1,,,,,,,,,0,,,69,88
111600,note_on,0,0,1,,,,,,,,,0,,,72,88
111600,note_on,81,0,1,,,,,,,,,0,,,69,0
111680,note_on,0,0,3,,,,,,,,,2,,,63,75
111680,note_on,0,0,1,,,,,,,,,0,,,75,88
111680,note_on,161,0,3,,,,,,,,,2,,,54,0
111680,note_on,0,0,3,,,,,,,,,2,,,60,75
111680,note_on,80,0,1,,,,,,,,,0,,,72,0
111759,note_on,0,0,1,,,,,,,,,0,,,78,88
111759,note_on,79,0,1,,,,,,,,,0,,,75,0
111840,note_on,0,0,3,,,,,,,,,2,,,43,75
111840,note_on,0,0,3,,,,,,,,,2,,,60,0
111840,note_on,160,0,3,,,,,,,,,2,,,63,0
111840,note_on,0,0,1,,,,,,,,,0,,,75,88
111840,note_on,480,0,2,,,,,,,,,1,,,63,0
111840,note_on,81,0,1,,,,,,,,,0,,,78,0
111920,note_on,0,0,1,,,,,,,,,0,,,76,88
111920,note_on,80,0,1,,,,,,,,,0,,,75,0
111999,note_on,0,0,3,,,,,,,,,2,,,55,75
111999,note_on,0,0,1,,,,,,,,,0,,,77,88
111999,note_on,159,0,3,,,,,,,,,2,,,43,0
111999,note_on,79,0,1,,,,,,,,,0,,,76,0
112080,note_on,0,0,1,,,,,,,,,0,,,78,88
112080,note_on,81,0,1,,,,,,,,,0,,,77,0
112160,note_on,0,0,1,,,,,,,,,0,,,79,88
112160,note_on,161,0,3,,,,,,,,,2,,,55,0
112160,note_on,0,0,3,,,,,,,,,2,,,60,75
112160,note_on,0,0,3,,,,,,,,,2,,,64,75
112160,note_on,80,0,1,,,,,,,,,0,,,78,0
112239,note_on,0,0,1,,,,,,,,,0,,,80,88
112239,note_on,79,0,1,,,,,,,,,0,,,79,0
112320,note_on,0,0,3,,,,,,,,,2,,,36,75
112320,note_on,81,0,1,,,,,,,,,0,,,80,0
112320,note_on,160,0,3,,,,,,,,,2,,,64,0
112320,note_on,0,0,3,,,,,,,,,2,,,60,0
112320,note_on,0,0,1,,,,,,,,,0,,,81,88
112400,note_on,0,0,1,,,,,,,,,0,,,82,88
112400,note_on,80,0,1,,,,,,,,,0,,,81,0
112479,note_on,159,0,3,,,,,,,,,2,,,36,0
112479,note_on,79,0,1,,,,,,,,,0,,,82,0
112479,note_on,0,0,3,,,,,,,,,2,,,55,75
112479,note_on,0,0,1,,,,,,,,,0,,,87,88
112560,note_on,81,0,1,,,,,,,,,0,,,87,0
112560,note_on,0,0,1,,,,,,,,,0,,,90,88
112640,note_on,0,0,3,,,,,,,,,2,,,58,75
112640,note_on,161,0,3,,,,,,,,,2,,,55,0
112640,control_change,0,0,3,,,,,,,,,2,64,0,,
112640,note_on,0,0,3,,,,,,,,,2,,,64,75
112640,note_on,0,0,1,,,,,,,,,0,,,87,88
112640,note_on,80,0,1,,,,,,,,,0,,,90,0
112719,note_on,0,0,1,,,,,,,,,0,,,88,88
112719,note_on,79,0,1,,,,,,,,,0,,,87,0
112719,control_change,0,0,1,,,,,,,,,0,64,0,,
112720,note_on,880,0,2,,,,,,,,,1,,,64,88
112760,note_on,40,0,2,,,,,,,,,1,,,71,88
112768,note_on,8,0,2,,,,,,,,,1,,,64,0
112800,note_on,0,0,1,,,,,,,,,0,,,76,101
112800,note_on,0,0,1,,,,,,,,,0,,,80,101
112800,note_on,0,0,1,,,,,,,,,0,,,88,101
112800,control_change,0,0,2,,,,,,,,,1,64,127,,
112800,note_on,0,0,2,,,,,,,,,1,,,92,75
112800,note_on,81,0,1,,,,,,,,,0,,,88,0
112800,note_on,32,0,2,,,,,,,,,1,,,71,0
112800,note_on,160,0,3,,,,,,,,,2,,,64,0
112800,control_change,0,0,3,,,,,,,,,2,64,127,,
112800,note_on,0,0,3,,,,,,,,,2,,,58,0
112800,control_change,0,0,1,,,,,,,,,0,64,127,,
112800,note_on,0,0,3,,,,,,,,,2,,,35,75
112800,note_on,0,0,3,,,,,,,,,2,,,47,75
112831,note_on,31,0,2,,,,,,,,,1,,,92,0
112880,note_on,80,0,1,,,,,,,,,0,,,88,0
112880,note_on,0,0,1,,,,,,,,,0,,,87,75
112880,note_on,0,0,1,,,,,,,,,0,,,76,0
112880,note_on,0,0,1,,,,,,,,,0,,,80,0
112959,note_on,79,0,1,,,,,,,,,0,,,87,0
112959,note_on,128,0,2,,,,,,,,,1,,,71,75
112959,note_on,0,0,1,,,,,,,,,0,,,86,75
112959,note_on,0,0,1,,,,,,,,,0,,,83,75
113040,note_on,0,0,1,,,,,,,,,0,,,82,75
113040,note_on,0,0,1,,,,,,,,,0,,,85,75
113040,note_on,0,0,1,,,,,,,,,0,,,83,0
113040,note_on,81,0,1,,,,,,,,,0,,,86,0
113040,note_on,0,0,2,,,,,,,,,1,,,73,75
113040,note_on,81,0,2,,,,,,,,,1,,,71,0
113120,note_on,80,0,2,,,,,,,,,1,,,73,0
113120,note_on,0,0,1,,,,,,,,,0,,,81,75
113120,note_on,0,0,1,,,,,,,,,0,,,82,0
113120,note_on,0,0,1,,,,,,,,,0,,,84,75
113120,note_on,0,0,2,,,,,,,,,1,,,80,75
113120,note_on,80,0,1,,,,,,,,,0,,,85,0
113199,note_on,79,0,2,,,,,,,,,1,,,80,0
113199,note_on,0,0,2,,,,,,,,,1,,,83,75
113199,note_on,0,0,1,,,,,,,,,0,,,80,75
113199,note_on,0,0,1,,,,,,,,,0,,,81,0
113199,note_on,0,0,1,,,,,,,,,0,,,83,75
113199,note_on,79,0,1,,,,,,,,,0,,,84,0
113280,note_on,0,0,3,,,,,,,,,2,,,59,88
113280,note_on,0,0,3,,,,,,,,,2,,,35,0
113280,note_on,0,0,3,,,,,,,,,2,,,64,88
113280,note_on,0,0,2,,,,,,,,,1,,,83,75
113280,note_on,480,0,3,,,,,,,,,2,,,47,0
113280,note_on,0,0,3,,,,,,,,,2,,,68,88
113280,note_on,81,0,1,,,,,,,,,0,,,83,0
113280,note_on,0,0,1,,,,,,,,,0,,,82,75
113280,note_on,81,0,2,,,,,,,,,1,,,83,0
113280,note_on,0,0,1,,,,,,,,,0,,,80,0
113280,note_on,0,0,1,,,,,,,,,0,,,79,75
113360,note_on,0,0,1,,,,,,,,,0,,,79,0
113360,note_on,0,0,1,,,,,,,,,0,,,82,75
113360,note_on,80,0,1,,,,,,,,,0,,,82,0
113360,note_on,80,0,2,,,,,,,,,1,,,83,0
113360,note_on,0,0,2,,,,,,,,,1,,,85,75
113360,note_on,0,0,1,,,,,,,,,0,,,78,75
113439,note_on,0,0,1,,,,,,,,,0,,,77,75
113439,note_on,0,0,1,,,,,,,,,0,,,80,75
113439,note_on,0,0,3,,,,,,,,,2,,,59,0
113439,note_on,0,0,3,,,,,,,,,2,,,61,88
113439,note_on,0,0,3,,,,,,,,,2,,,64,0
113439,note_on,0,0,3,,,,,,,,,2,,,69,88
113439,note_on,0,0,1,,,,,,,,,0,,,78,0
113439,note_on,0,0,2,,,,,,,,,1,,,92,75
113439,note_on,79,0,2,,,,,,,,,1,,,85,0
113439,note_on,79,0,1,,,,,,,,,0,,,82,0
113439,note_on,159,0,3,,,,,,,,,2,,,68,0
113520,note_on,0,0,2,,,,,,,,,1,,,95,75
113520,note_on,0,0,1,,,,,,,,,0,,,77,0
113520,note_on,0,0,1,,,,,,,,,0,,,76,75
113520,note_on,81,0,2,,,,,,,,,1,,,92,0
113520,note_on,81,0,1,,,,,,,,,0,,,80,0
113520,note_on,0,0,1,,,,,,,,,0,,,79,75
113600,note_on,0,0,3,,,,,,,,,2,,,73,88
113600,note_on,161,0,3,,,,,,,,,2,,,69,0
113600,note_on,80,0,2,,,,,,,,,1,,,95,0
113600,note_on,80,0,1,,,,,,,,,0,,,79,0
113600,note_on,0,0,2,,,,,,,,,1,,,92,75
113600,note_on,0,0,1,,,,,,,,,0,,,75,75
113600,note_on,0,0,3,,,,,,,,,2,,,61,0
113600,note_on,0,0,1,,,,,,,,,0,,,76,0
113600,note_on,0,0,3,,,,,,,,,2,,,64,88
113600,note_on,0,0,1,,,,,,,,,0,,,78,75
113679,note_on,0,0,1,,,,,,,,,0,,,74,75
113679,note_on,0,0,1,,,,,,,,,0,,,77,75
113679,note_on,79,0,1,,,,,,,,,0,,,78,0
113679,note_on,0,0,1,,,,,,,,,0,,,75,0
113679,note_on,0,0,2,,,,,,,,,1,,,85,75
113679,note_on,79,0,2,,,,,,,,,1,,,92,0
113760,note_on,0,0,1,,,,,,,,,0,,,73,75
113760,note_on,81,0,1,,,,,,,,,0,,,77,0
113760,note_on,0,0,3,,,,,,,,,2,,,71,75
113760,note_on,0,0,1,,,,,,,,,0,,,76,75
113760,note_on,0,0,2,,,,,,,,,1,,,83,75
113760,note_on,160,0,3,,,,,,,,,2,,,73,0
113760,note_on,0,0,3,,,,,,,,,2,,,64,0
113760,note_on,0,0,3,,,,,,,,,2,,,63,75
113760,note_on,0,0,1,,,,,,,,,0,,,74,0
113760,note_on,81,0,2,,,,,,,,,1,,,85,0
113828,note_on,68,0,2,,,,,,,,,1,,,83,0
113828,note_on,0,0,2,,,,,,,,,1,,,83,75
113840,note_on,80,0,1,,,,,,,,,0,,,76,0
113840,note_on,0,0,1,,,,,,,,,0,,,75,75
113840,note_on,0,0,1,,,,,,,,,0,,,73,0
113840,note_on,0,0,1,,,,,,,,,0,,,72,75
113897,note_on,69,0,2,,,,,,,,,1,,,83,0
113897,note_on,0,0,2,,,,,,,,,1,,,78,75
113919,note_on,0,0,3,,,,,,,,,2,,,65,75
113919,note_on,0,0,1,,,,,,,,,0,,,74,75
113919,note_on,159,0,3,,,,,,,,,2,,,71,0
113919,note_on,0,0,1,,,,,,,,,0,,,72,0
113919,note_on,0,0,1,,,,,,,,,0,,,71,75
113919,note_on,0,0,3,,,,,,,,,2,,,63,0
113919,note_on,0,0,3,,,,,,,,,2,,,56,75
113919,note_on,79,0,1,,,,,,,,,0,,,75,0
113965,note_on,0,0,2,,,,,,,,,1,,,73,75
113965,note_on,68,0,2,,,,,,,,,1,,,78,0
114000,note_on,0,0,1,,,,,,,,,0,,,73,75
114000,note_on,0,0,1,,,,,,,,,0,,,71,0
114000,note_on,81,0,1,,,,,,,,,0,,,74,0
114000,note_on,0,0,1,,,,,,,,,0,,,70,75
114034,note_on,69,0,2,,,,,,,,,1,,,73,0
114034,note_on,0,0,2,,,,,,,,,1,,,71,75
114080,note_on,0,0,3,,,,,,,,,2,,,66,88
114080,note_on,0,0,3,,,,,,,,,2,,,56,0
114080,note_on,0,0,3,,,,,,,,,2,,,57,88
114080,note_on,0,0,1,,,,,,,,,0,,,72,75
114080,note_on,0,0,1,,,,,,,,,0,,,70,0
114080,note_on,0,0,1,,,,,,,,,0,,,69,75
114080,note_on,80,0,1,,,,,,,,,0,,,73,0
114080,note_on,161,0,3,,,,,,,,,2,,,65,0
114102,note_on,0,0,2,,,,,,,,,1,,,73,75
114102,note_on,68,0,2,,,,,,,,,1,,,71,0
114159,note_on,79,0,1,,,,,,,,,0,,,72,0
114159,note_on,0,0,1,,,,,,,,,0,,,68,75
114159,note_on,0,0,1,,,,,,,,,0,,,71,75
114159,note_on,0,0,1,,,,,,,,,0,,,69,0
114171,note_on,69,0,2,,,,,,,,,1,,,73,0
114171,note_on,0,0,2,,,,,,,,,1,,,78,75
114240,note_on,0,0,3,,,,,,,,,2,,,57,0
114240,note_on,160,0,3,,,,,,,,,2,,,66,0
114240,note_on,0,0,1,,,,,,,,,0,,,70,75
114240,control_change,0,0,3,,,,,,,,,2,64,0,,
114240,note_on,0,0,3,,,,,,,,,2,,,61,114
114240,note_on,0,0,3,,,,,,,,,2,,,69,114
114240,note_on,0,0,1,,,,,,,,,0,,,67,75
114240,note_on,69,0,2,,,,,,,,,1,,,78,0
114240,note_on,81,0,1,,,,,,,,,0,,,71,0
114240,note_on,0,0,2,,,,,,,,,1,,,83,75
114240,note_on,0,0,1,,,,,,,,,0,,,68,0
114308,note_on,68,0,2,,,,,,,,,1,,,83,0
114308,note_on,0,0,2,,,,,,,,,1,,,71,75
114320,note_on,0,0,1,,,,,,,,,0,,,66,75
114320,note_on,80,0,1,,,,,,,,,0,,,70,0
114320,note_on,0,0,1,,,,,,,,,0,,,67,0
114320,note_on,0,0,1,,,,,,,,,0,,,70,75
114377,note_on,0,0,2,,,,,,,,,1,,,73,75
114377,note_on,69,0,2,,,,,,,,,1,,,71,0
114399,note_on,79,0,1,,,,,,,,,0,,,70,0
114399,note_on,0,0,1,,,,,,,,,0,,,65,75
114399,note_on,0,0,1,,,,,,,,,0,,,68,75
114399,note_on,0,0,1,,,,,,,,,0,,,66,0
114445,note_on,0,0,2,,,,,,,,,1,,,78,75
114445,note_on,68,0,2,,,,,,,,,1,,,73,0
114480,note_on,81,0,1,,,,,,,,,0,,,68,0
114480,note_on,0,0,1,,,,,,,,,0,,,67,75
114480,note_on,0,0,1,,,,,,,,,0,,,65,0
114480,note_on,0,0,1,,,,,,,,,0,,,64,75
114514,note_on,69,0,2,,,,,,,,,1,,,78,0
114514,note_on,0,0,2,,,,,,,,,1,,,83,75
114560,note_on,80,0,1,,,,,,,,,0,,,67,0
114560,note_on,0,0,1,,,,,,,,,0,,,64,0
114560,note_on,0,0,1,,,,,,,,,0,,,63,75
114560,note_on,0,0,1,,,,,,,,,0,,,66,75
114582,note_on,68,0,2,,,,,,,,,1,,,83,0
114582,note_on,0,0,2,,,,,,,,,1,,,78,75
114639,control_change,0,0,1,,,,,,,,,0,64,0,,
114639,note_on,79,0,1,,,,,,,,,0,,,66,0
114639,note_on,0,0,1,,,,,,,,,0,,,67,75
114639,note_on,0,0,1,,,,,,,,,0,,,63,0
114651,note_on,69,0,2,,,,,,,,,1,,,78,0
114651,note_on,0,0,2,,,,,,,,,1,,,73,75
114651,control_change,0,0,2,,,,,,,,,1,64,0,,
114720,note_on,0,0,2,,,,,,,,,1,,,83,75
114720,note_on,69,0,2,,,,,,,,,1,,,73,0
114720,control_change,0,0,2,,,,,,,,,1,64,127,,
114720,note_on,81,0,1,,,,,,,,,0,,,67,0
114720,note_on,0,0,1,,,,,,,,,0,,,76,62
114720,control_change,0,0,1,,,,,,,,,0,64,127,,
114720,control_change,480,0,3,,,,,,,,,2,64,127,,
114720,note_on,0,0,1,,,,,,,,,0,,,80,62
114788,note_on,0,0,2,,,,,,,,,1,,,83,75
114788,note_on,68,0,2,,,,,,,,,1,,,83,0
114800,note_on,0,0,1,,,,,,,,,0,,,76,0
114800,note_on,0,0,1,,,,,,,,,0,,,78,62
114800,note_on,0,0,1,,,,,,,,,0,,,81,62
114800,note_on,80,0,1,,,,,,,,,0,,,80,0
114857,note_on,69,0,2,,,,,,,,,1,,,83,0
114857,note_on,0,0,2,,,,,,,,,1,,,76,75
114879,note_on,0,0,3,,,,,,,,,2,,,61,0
114879,note_on,0,0,1,,,,,,,,,0,,,78,0
114879,note_on,0,0,3,,,,,,,,,2,,,68,88
114879,note_on,159,0,3,,,,,,,,,2,,,69,0
114879,note_on,0,0,3,,,,,,,,,2,,,59,88
114879,note_on,0,0,1,,,,,,,,,0,,,79,62
114879,note_on,79,0,1,,,,,,,,,0,,,81,0
114879,note_on,0,0,1,,,,,,,,,0,,,82,62
114925,note_on,68,0,2,,,,,,,,,1,,,76,0
114925,note_on,0,0,2,,,,,,,,,1,,,73,75
114960,note_on,0,0,1,,,,,,,,,0,,,83,62
114960,note_on,0,0,1,,,,,,,,,0,,,80,62
114960,note_on,0,0,1,,,,,,,,,0,,,79,0
114960,note_on,81,0,1,,,,,,,,,0,,,82,0
114994,note_on,0,0,2,,,,,,,,,1,,,71,75
114994,note_on,69,0,2,,,,,,,,,1,,,73,0
115040,note_on,80,0,1,,,,,,,,,0,,,83,0
115040,note_on,0,0,3,,,,,,,,,2,,,66,88
115040,note_on,0,0,3,,,,,,,,,2,,,59,0
115040,note_on,0,0,3,,,,,,,,,2,,,58,88
115040,note_on,0,0,1,,,,,,,,,0,,,84,62
115040,note_on,0,0,1,,,,,,,,,0,,,80,0
115040,note_on,161,0,3,,,,,,,,,2,,,68,0
115040,note_on,0,0,1,,,,,,,,,0,,,81,62
115062,note_on,0,0,2,,,,,,,,,1,,,73,75
115062,note_on,68,0,2,,,,,,,,,1,,,71,0
115119,note_on,0,0,1,,,,,,,,,0,,,82,62
115119,note_on,79,0,1,,,,,,,,,0,,,84,0
115119,note_on,0,0,1,,,,,,,,,0,,,81,0
115119,note_on,0,0,1,,,,,,,,,0,,,85,62
115131,note_on,0,0,2,,,,,,,,,1,,,76,75
115131,note_on,69,0,2,,,,,,,,,1,,,73,0
115200,note_on,0,0,2,,,,,,,,,1,,,83,75
115200,note_on,160,0,3,,,,,,,,,2,,,66,0
115200,note_on,0,0,1,,,,,,,,,0,,,82,0
115200,note_on,0,0,1,,,,,,,,,0,,,86,62
115200,note_on,0,0,1,,,,,,,,,0,,,83,62
115200,note_on,81,0,1,,,,,,,,,0,,,85,0
115200,note_on,0,0,3,,,,,,,,,2,,,68,88
115200,note_on,0,0,3,,,,,,,,,2,,,59,88
115200,note_on,69,0,2,,,,,,,,,1,,,76,0
115200,note_on,0,0,3,,,,,,,,,2,,,58,0
115268,note_on,68,0,2,,,,,,,,,1,,,83,0
115268,note_on,0,0,2,,,,,,,,,1,,,83,75
115280,note_on,80,0,1,,,,,,,,,0,,,86,0
115280,note_on,0,0,1,,,,,,,,,0,,,87,62
115280,note_on,0,0,1,,,,,,,,,0,,,84,62
115280,note_on,0,0,1,,,,,,,,,0,,,83,0
115337,note_on,0,0,2,,,,,,,,,1,,,85,75
115337,note_on,69,0,2,,,,,,,,,1,,,83,0
115359,note_on,0,0,3,,,,,,,,,2,,,71,88
115359,note_on,79,0,1,,,,,,,,,0,,,87,0
115359,note_on,0,0,1,,,,,,,,,0,,,88,62
115359,note_on,0,0,1,,,,,,,,,0,,,85,62
115359,note_on,0,0,1,,,,,,,,,0,,,84,0
115359,note_on,0,0,3,,,,,,,,,2,,,63,88
115359,note_on,0,0,3,,,,,,,,,2,,,59,0
115359,note_on,159,0,3,,,,,,,,,2,,,68,0
115405,note_on,0,0,2,,,,,,,,,1,,,88,75
115405,note_on,68,0,2,,,,,,,,,1,,,85,0
115440,note_on,81,0,1,,,,,,,,,0,,,88,0
115440,note_on,0,0,1,,,,,,,,,0,,,87,62
115440,note_on,0,0,1,,,,,,,,,0,,,84,62
115440,note_on,0,0,1,,,,,,,,,0,,,85,0
115474,note_on,0,0,2,,,,,,,,,1,,,95,75
115474,note_on,69,0,2,,,,,,,,,1,,,88,0
115520,note_on,0,0,1,,,,,,,,,0,,,86,62
115520,note_on,161,0,3,,,,,,,,,2,,,71,0
115520,note_on,0,0,1,,,,,,,,,0,,,84,0
115520,note_on,0,0,1,,,,,,,,,0,,,83,62
115520,note_on,80,0,1,,,,,,,,,0,,,87,0
115520,note_on,0,0,3,,,,,,,,,2,,,63,0
115520,note_on,0,0,3,,,,,,,,,2,,,61,88
115520,note_on,0,0,3,,,,,,,,,2,,,69,88
115542,note_on,0,0,2,,,,,,,,,1,,,88,75
115542,note_on,68,0,2,,,,,,,,,1,,,95,0
115599,note_on,0,0,1,,,,,,,,,0,,,87,62
115599,note_on,0,0,1,,,,,,,,,0,,,84,62
115599,note_on,79,0,1,,,,,,,,,0,,,86,0
115599,note_on,0,0,1,,,,,,,,,0,,,83,0
115611,note_on,69,0,2,,,,,,,,,1,,,88,0
115611,note_on,0,0,2,,,,,,,,,1,,,85,75
115680,note_on,0,0,1,,,,,,,,,0,,,88,75
115680,note_on,0,0,3,,,,,,,,,2,,,59,88
115680,note_on,0,0,1,,,,,,,,,0,,,84,0
115680,note_on,160,0,3,,,,,,,,,2,,,69,0
115680,note_on,81,0,1,,,,,,,,,0,,,87,0
115680,note_on,0,0,3,,,,,,,,,2,,,68,88
115680,note_on,0,0,1,,,,,,,,,0,,,85,75
115680,note_on,0,0,2,,,,,,,,,1,,,83,75
115680,note_on,0,0,3,,,,,,,,,2,,,61,0
115680,note_on,69,0,2,,,,,,,,,1,,,85,0
115733,note_on,0,0,2,,,,,,,,,1,,,85,75
115733,note_on,53,0,2,,,,,,,,,1,,,83,0
115760,note_on,0,0,1,,,,,,,,,0,,,85,0
115760,note_on,0,0,1,,,,,,,,,0,,,86,75
115760,note_on,0,0,1,,,,,,,,,0,,,89,75
115760,note_on,80,0,1,,,,,,,,,0,,,88,0
115786,note_on,0,0,2,,,,,,,,,1,,,87,75
115786,note_on,53,0,2,,,,,,,,,1,,,85,0
115839,note_on,0,0,1,,,,,,,,,0,,,90,75
115839,note_on,0,0,1,,,,,,,,,0,,,87,75
115839,note_on,0,0,3,,,,,,,,,2,,,57,88
115839,note_on,53,0,2,,,,,,,,,1,,,87,0
115839,note_on,0,0,3,,,,,,,,,2,,,66,88
115839,note_on,0,0,3,,,,,,,,,2,,,59,0
115839,note_on,159,0,3,,,,,,,,,2,,,68,0
115839,note_on,0,0,2,,,,,,,,,1,,,95,75
115839,note_on,79,0,1,,,,,,,,,0,,,89,0
115839,note_on,0,0,1,,,,,,,,,0,,,86,0
115893,note_on,0,0,2,,,,,,,,,1,,,87,75
115893,note_on,54,0,2,,,,,,,,,1,,,95,0
115920,note_on,0,0,1,,,,,,,,,0,,,87,0
115920,note_on,0,0,1,,,,,,,,,0,,,91,75
115920,note_on,81,0,1,,,,,,,,,0,,,90,0
115920,note_on,0,0,1,,,,,,,,,0,,,88,75
115946,note_on,0,0,2,,,,,,,,,1,,,85,75
115946,note_on,53,0,2,,,,,,,,,1,,,87,0
116000,note_on,0,0,3,,,,,,,,,2,,,56,88
116000,note_on,0,0,3,,,,,,,,,2,,,57,0
116000,note_on,0,0,3,,,,,,,,,2,,,65,88
116000,note_on,0,0,2,,,,,,,,,1,,,83,75
116000,note_on,80,0,1,,,,,,,,,0,,,91,0
116000,note_on,54,0,2,,,,,,,,,1,,,85,0
116000,note_on,0,0,1,,,,,,,,,0,,,92,75
116000,note_on,0,0,1,,,,,,,,,0,,,89,75
116000,note_on,0,0,1,,,,,,,,,0,,,88,0
116000,note_on,161,0,3,,,,,,,,,2,,,66,0
116053,note_on,0,0,2,,,,,,,,,1,,,85,75
116053,note_on,53,0,2,,,,,,,,,1,,,83,0
116079,note_on,0,0,1,,,,,,,,,0,,,93,75
116079,note_on,0,0,1,,,,,,,,,0,,,90,75
116079,note_on,0,0,1,,,,,,,,,0,,,89,0
116079,note_on,79,0,1,,,,,,,,,0,,,92,0
116106,note_on,0,0,2,,,,,,,,,1,,,87,75
116106,note_on,53,0,2,,,,,,,,,1,,,85,0
116160,note_on,54,0,2,,,,,,,,,1,,,87,0
116160,note_on,0,0,3,,,,,,,,,2,,,66,88
116160,note_on,160,0,3,,,,,,,,,2,,,65,0
116160,note_on,81,0,1,,,,,,,,,0,,,93,0
116160,note_on,0,0,3,,,,,,,,,2,,,57,88
116160,note_on,0,0,3,,,,,,,,,2,,,56,0
116160,note_on,0,0,1,,,,,,,,,0,,,78,75
116160,note_on,0,0,1,,,,,,,,,0,,,87,75
116160,note_on,0,0,2,,,,,,,,,1,,,94,75
116160,note_on,0,0,1,,,,,,,,,0,,,90,0
116240,note_on,0,0,1,,,,,,,,,0,,,78,0
116240,note_on,0,0,1,,,,,,,,,0,,,93,75
116240,note_on,80,0,1,,,,,,,,,0,,,87,0
116319,note_on,0,0,3,,,,,,,,,2,,,35,88
116319,note_on,0,0,1,,,,,,,,,0,,,78,75
116319,note_on,0,0,1,,,,,,,,,0,,,87,75
116319,note_on,0,0,3,,,,,,,,,2,,,57,0
116319,note_on,159,0,3,,,,,,,,,2,,,66,0
116319,note_on,159,0,2,,,,,,,,,1,,,94,0
116319,note_on,79,0,1,,,,,,,,,0,,,93,0
116319,note_on,0,0,3,,,,,,,,,2,,,47,88
116400,note_on,81,0,1,,,,,,,,,0,,,87,0
116400,note_on,0,0,1,,,,,,,,,0,,,93,75
116400,note_on,0,0,2,,,,,,,,,1,,,63,75
116400,note_on,0,0,1,,,,,,,,,0,,,78,0
116400,note_on,0,0,2,,,,,,,,,1,,,66,75
116400,note_on,81,0,2,,,,,,,,,1,,,56,75
116480,note_on,80,0,1,,,,,,,,,0,,,93,0
116480,note_on,0,0,2,,,,,,,,,1,,,56,0
116480,note_on,0,0,3,,,,,,,,,2,,,36,88
116480,note_on,0,0,2,,,,,,,,,1,,,63,0
116480,note_on,0,0,3,,,,,,,,,2,,,35,0
116480,note_on,161,0,3,,,,,,,,,2,,,47,0
116480,note_on,80,0,2,,,,,,,,,1,,,66,0
116480,note_on,0,0,1,,,,,,,,,0,,,78,75
116480,note_on,0,0,1,,,,,,,,,0,,,87,75
116480,control_change,0,0,3,,,,,,,,,2,64,0,,
116480,note_on,0,0,3,,,,,,,,,2,,,48,88
116559,control_change,79,0,2,,,,,,,,,1,64,0,,
116559,note_on,0,0,2,,,,,,,,,1,,,63,75
116559,note_on,0,0,2,,,,,,,,,1,,,66,75
116559,control_change,0,0,1,,,,,,,,,0,64,0,,
116559,note_on,0,0,1,,,,,,,,,0,,,78,0
116559,note_on,79,0,1,,,,,,,,,0,,,87,0
116559,note_on,0,0,2,,,,,,,,,1,,,57,75
116559,note_on,0,0,1,,,,,,,,,0,,,93,75
116640,note_on,81,0,2,,,,,,,,,1,,,66,0
116640,note_on,0,0,1,,,,,,,,,0,,,94,75
116640,control_change,0,0,2,,,,,,,,,1,64,127,,
116640,note_on,81,0,1,,,,,,,,,0,,,93,0
116640,note_on,0,0,3,,,,,,,,,2,,,49,88
116640,note_on,0,0,3,,,,,,,,,2,,,37,88
116640,note_on,0,0,3,,,,,,,,,2,,,36,0
116640,note_on,160,0,3,,,,,,,,,2,,,48,0
116640,note_on,0,0,2,,,,,,,,,1,,,70,88
116640,note_on,0,0,1,,,,,,,,,0,,,90,75
116640,note_on,0,0,2,,,,,,,,,1,,,63,0
116640,note_on,0,0,2,,,,,,,,,1,,,58,88
116640,note_on,0,0,2,,,,,,,,,1,,,57,0
116640,control_change,0,0,3,,,,,,,,,2,64,127,,
116640,note_on,0,0,2,,,,,,,,,1,,,66,88
116640,note_on,0,0,1,,,,,,,,,0,,,102,75
116720,note_on,80,0,1,,,,,,,,,0,,,102,0
116720,note_on,0,0,1,,,,,,,,,0,,,90,0
116720,note_on,0,0,1,,,,,,,,,0,,,94,0
116720,note_on,0,0,1,,,,,,,,,0,,,101,75
116799,note_on,159,0,2,,,,,,,,,1,,,70,0
116799,note_on,0,0,1,,,,,,,,,0,,,97,75
116799,note_on,0,0,2,,,,,,,,,1,,,73,88
116799,note_on,0,0,2,,,,,,,,,1,,,66,0
116799,note_on,0,0,2,,,,,,,,,1,,,58,0
116799,note_on,79,0,1,,,,,,,,,0,,,101,0
116799,note_on,0,0,1,,,,,,,,,0,,,100,75
116880,note_on,0,0,1,,,,,,,,,0,,,99,75
116880,note_on,0,0,2,,,,,,,,,1,,,75,88
116880,note_on,81,0,2,,,,,,,,,1,,,73,0
116880,note_on,81,0,1,,,,,,,,,0,,,100,0
116880,note_on,0,0,1,,,,,,,,,0,,,96,75
116880,note_on,0,0,1,,,,,,,,,0,,,97,0
116960,note_on,0,0,2,,,,,,,,,1,,,82,88
116960,note_on,0,0,1,,,,,,,,,0,,,95,75
116960,note_on,0,0,1,,,,,,,,,0,,,96,0
116960,note_on,80,0,2,,,,,,,,,1,,,75,0
116960,note_on,0,0,1,,,,,,,,,0,,,98,75
116960,note_on,80,0,1,,,,,,,,,0,,,99,0
117039,note_on,79,0,1,,,,,,,,,0,,,98,0
117039,note_on,0,0,2,,,,,,,,,1,,,85,88
117039,note_on,0,0,1,,,,,,,,,0,,,94,75
117039,note_on,79,0,2,,,,,,,,,1,,,82,0
117039,note_on,0,0,1,,,,,,,,,0,,,97,75
117039,note_on,0,0,1,,,,,,,,,0,,,95,0
117120,note_on,81,0,1,,,,,,,,,0,,,97,0
117120,note_on,0,0,1,,,,,,,,,0,,,94,0
117120,note_on,0,0,1,,,,,,,,,0,,,96,75
117120,note_on,81,0,2,,,,,,,,,1,,,85,0
117120,note_on,0,0,3,,,,,,,,,2,,,70,88
117120,note_on,0,0,3,,,,,,,,,2,,,66,88
117120,note_on,0,0,1,,,,,,,,,0,,,93,75
117120,note_on,0,0,3,,,,,,,,,2,,,37,0
117120,note_on,0,0,3,,,,,,,,,2,,,61,88
117120,note_on,0,0,2,,,,,,,,,1,,,85,88
117120,note_on,480,0,3,,,,,,,,,2,,,49,0
117200,note_on,80,0,1,,,,,,,,,0,,,96,0
117200,note_on,0,0,1,,,,,,,,,0,,,95,75
117200,note_on,0,0,1,,,,,,,,,0,,,93,0
117200,note_on,0,0,1,,,,,,,,,0,,,92,75
117200,note_on,80,0,2,,,,,,,,,1,,,85,0
117200,note_on,0,0,2,,,,,,,,,1,,,87,88
117279,note_on,0,0,2,,,,,,,,,1,,,94,88
117279,note_on,159,0,3,,,,,,,,,2,,,70,0
117279,note_on,79,0,1,,,,,,,,,0,,,95,0
117279,note_on,79,0,2,,,,,,,,,1,,,87,0
117279,note_on,0,0,3,,,,,,,,,2,,,61,0
117279,note_on,0,0,1,,,,,,,,,0,,,94,75
117279,note_on,0,0,1,,,,,,,,,0,,,92,0
117279,note_on,0,0,3,,,,,,,,,2,,,63,88
117279,note_on,0,0,1,,,,,,,,,0,,,91,75
117279,note_on,0,0,3,,,,,,,,,2,,,66,0
117279,note_on,0,0,3,,,,,,,,,2,,,71,88
117360,note_on,81,0,1,,,,,,,,,0,,,94,0
117360,note_on,0,0,1,,,,,,,,,0,,,93,75
117360,note_on,0,0,1,,,,,,,,,0,,,91,0
117360,note_on,0,0,1,,,,,,,,,0,,,90,75
117360,note_on,81,0,2,,,,,,,,,1,,,94,0
117360,note_on,0,0,2,,,,,,,,,1,,,97,88
117440,note_on,161,0,3,,,,,,,,,2,,,71,0
117440,note_on,0,0,1,,,,,,,,,0,,,92,75
117440,note_on,0,0,1,,,,,,,,,0,,,90,0
117440,note_on,0,0,3,,,,,,,,,2,,,63,0
117440,note_on,80,0,2,,,,,,,,,1,,,97,0
117440,note_on,0,0,2,,,,,,,,,1,,,94,88
117440,note_on,0,0,1,,,,,,,,,0,,,89,75
117440,note_on,80,0,1,,,,,,,,,0,,,93,0
117440,note_on,0,0,3,,,,,,,,,2,,,66,88
117440,note_on,0,0,3,,,,,,,,,2,,,75,88
117519,note_on,0,0,2,,,,,,,,,1,,,87,88
117519,note_on,0,0,1,,,,,,,,,0,,,91,75
117519,note_on,79,0,2,,,,,,,,,1,,,94,0
117519,note_on,0,0,1,,,,,,,,,0,,,88,75
117519,note_on,0,0,1,,,,,,,,,0,,,89,0
117519,note_on,79,0,1,,,,,,,,,0,,,92,0
117600,note_on,81,0,1,,,,,,,,,0,,,91,0
117600,note_on,0,0,2,,,,,,,,,1,,,85,88
117600,note_on,160,0,3,,,,,,,,,2,,,75,0
117600,note_on,0,0,3,,,,,,,,,2,,,73,88
117600,note_on,0,0,1,,,,,,,,,0,,,88,0
117600,note_on,0,0,1,,,,,,,,,0,,,87,62
117600,note_on,0,0,1,,,,,,,,,0,,,90,62
117600,note_on,0,0,3,,,,,,,,,2,,,66,0
117600,note_on,81,0,2,,,,,,,,,1,,,87,0
117600,note_on,0,0,3,,,,,,,,,2,,,65,88
117668,note_on,68,0,2,,,,,,,,,1,,,85,0
117668,note_on,0,0,2,,,,,,,,,1,,,85,88
117680,note_on,0,0,1,,,,,,,,,0,,,86,62
117680,note_on,0,0,1,,,,,,,,,0,,,87,0
117680,note_on,0,0,1,,,,,,,,,0,,,89,62
117680,note_on,80,0,1,,,,,,,,,0,,,90,0
117737,note_on,69,0,2,,,,,,,,,1,,,85,0
117737,note_on,0,0,2,,,,,,,,,1,,,80,88
117759,note_on,0,0,3,,,,,,,,,2,,,58,88
117759,note_on,79,0,1,,,,,,,,,0,,,89,0
117759,note_on,0,0,3,,,,,,,,,2,,,67,88
117759,note_on,0,0,1,,,,,,,,,0,,,85,62
117759,note_on,0,0,3,,,,,,,,,2,,,65,0
117759,note_on,159,0,3,,,,,,,,,2,,,73,0
117759,note_on,0,0,1,,,,,,,,,0,,,88,62
117759,note_on,0,0,1,,,,,,,,,0,,,86,0
117805,note_on,68,0,2,,,,,,,,,1,,,80,0
117805,note_on,0,0,2,,,,,,,,,1,,,75,88
117840,note_on,81,0,1,,,,,,,,,0,,,88,0
117840,note_on,0,0,1,,,,,,,,,0,,,87,62
117840,note_on,0,0,1,,,,,,,,,0,,,85,0
117840,note_on,0,0,1,,,,,,,,,0,,,84,62
117874,note_on,0,0,2,,,,,,,,,1,,,73,88
117874,note_on,69,0,2,,,,,,,,,1,,,75,0
117920,note_on,0,0,1,,,,,,,,,0,,,84,0
117920,note_on,161,0,3,,,,,,,,,2,,,67,0
117920,note_on,80,0,1,,,,,,,,,0,,,87,0
117920,note_on,0,0,1,,,,,,,,,0,,,86,62
117920,note_on,0,0,3,,,,,,,,,2,,,59,88
117920,note_on,0,0,3,,,,,,,,,2,,,58,0
117920,note_on,0,0,1,,,,,,,,,0,,,83,62
117920,note_on,0,0,3,,,,,,,,,2,,,68,88
117942,note_on,68,0,2,,,,,,,,,1,,,73,0
117942,note_on,0,0,2,,,,,,,,,1,,,75,88
117999,note_on,0,0,1,,,,,,,,,0,,,85,62
117999,note_on,0,0,1,,,,,,,,,0,,,83,0
117999,note_on,0,0,1,,,,,,,,,0,,,82,62
117999,note_on,79,0,1,,,,,,,,,0,,,86,0
118011,note_on,69,0,2,,,,,,,,,1,,,75,0
118011,note_on,0,0,2,,,,,,,,,1,,,80,88
118080,note_on,0,0,3,,,,,,,,,2,,,59,0
118080,note_on,0,0,3,,,,,,,,,2,,,63,114
118080,note_on,0,0,3,,,,,,,,,2,,,71,114
118080,note_on,69,0,2,,,,,,,,,1,,,80,0
118080,note_on,81,0,1,,,,,,,,,0,,,85,0
118080,note_on,0,0,1,,,,,,,,,0,,,84,62
118080,note_on,0,0,1,,,,,,,,,0,,,81,62
118080,note_on,0,0,1,,,,,,,,,0,,,82,0
118080,control_change,0,0,3,,,,,,,,,2,64,0,,
118080,note_on,160,0,3,,,,,,,,,2,,,68,0
118080,note_on,0,0,2,,,,,,,,,1,,,85,88
118148,note_on,0,0,2,,,,,,,,,1,,,85,88
118148,note_on,68,0,2,,,,,,,,,1,,,85,0
118160,note_on,0,0,1,,,,,,,,,0,,,83,62
118160,note_on,0,0,1,,,,,,,,,0,,,80,62
118160,note_on,0,0,1,,,,,,,,,0,,,81,0
118160,note_on,80,0,1,,,,,,,,,0,,,84,0
118217,note_on,69,0,2,,,,,,,,,1,,,85,0
118217,note_on,0,0,2,,,,,,,,,1,,,87,88
118239,note_on,79,0,1,,,,,,,,,0,,,83,0
118239,note_on,0,0,1,,,,,,,,,0,,,80,0
118239,note_on,0,0,1,,,,,,,,,0,,,82,62
118239,note_on,0,0,1,,,,,,,,,0,,,79,62
118285,note_on,0,0,2,,,,,,,,,1,,,92,88
118285,note_on,68,0,2,,,,,,,,,1,,,87,0
118320,note_on,0,0,1,,,,,,,,,0,,,78,62
118320,note_on,81,0,1,,,,,,,,,0,,,82,0
118320,note_on,0,0,1,,,,,,,,,0,,,81,62
118320,note_on,0,0,1,,,,,,,,,0,,,79,0
118354,note_on,0,0,2,,,,,,,,,1,,,97,88
118354,note_on,69,0,2,,,,,,,,,1,,,92,0
118400,note_on,80,0,1,,,,,,,,,0,,,81,0
118400,note_on,0,0,1,,,,,,,,,0,,,80,62
118400,note_on,0,0,1,,,,,,,,,0,,,77,62
118400,note_on,0,0,1,,,,,,,,,0,,,78,0
118422,note_on,68,0,2,,,,,,,,,1,,,97,0
118422,note_on,0,0,2,,,,,,,,,1,,,92,88
118479,note_on,0,0,1,,,,,,,,,0,,,81,62
118479,note_on,0,0,1,,,,,,,,,0,,,77,0
118479,note_on,79,0,1,,,,,,,,,0,,,80,0
118491,note_on,69,0,2,,,,,,,,,1,,,92,0
118491,control_change,0,0,2,,,,,,,,,1,64,0,,
118491,note_on,0,0,2,,,,,,,,,1,,,87,88
118560,note_on,0,0,1,,,,,,,,,0,,,82,75
118560,control_change,480,0,3,,,,,,,,,2,64,127,,
118560,note_on,0,0,1,,,,,,,,,0,,,78,75
118560,note_on,69,0,2,,,,,,,,,1,,,87,0
118560,control_change,0,0,2,,,,,,,,,1,64,127,,
118560,control_change,0,0,1,,,,,,,,,0,64,127,,
118560,note_on,81,0,1,,,,,,,,,0,,,81,0
118560,note_on,0,0,2,,,,,,,,,1,,,85,88
118628,note_on,0,0,2,,,,,,,,,1,,,85,88
118628,note_on,68,0,2,,,,,,,,,1,,,85,0
118640,note_on,80,0,1,,,,,,,,,0,,,82,0
118640,note_on,0,0,1,,,,,,,,,0,,,78,0
118640,note_on,0,0,1,,,,,,,,,0,,,80,75
118640,note_on,0,0,1,,,,,,,,,0,,,83,75
118697,note_on,69,0,2,,,,,,,,,1,,,85,0
118697,note_on,0,0,2,,,,,,,,,1,,,78,88
118719,note_on,79,0,1,,,,,,,,,0,,,83,0
118719,note_on,0,0,1,,,,,,,,,0,,,81,75
118719,note_on,0,0,1,,,,,,,,,0,,,84,75
118719,note_on,0,0,3,,,,,,,,,2,,,70,88
118719,note_on,0,0,3,,,,,,,,,2,,,63,0
118719,note_on,0,0,3,,,,,,,,,2,,,61,88
118719,note_on,0,0,1,,,,,,,,,0,,,80,0
118719,note_on,159,0,3,,,,,,,,,2,,,71,0
118765,note_on,0,0,2,,,,,,,,,1,,,75,88
118765,note_on,68,0,2,,,,,,,,,1,,,78,0
118800,note_on,0,0,1,,,,,,,,,0,,,81,0
118800,note_on,0,0,1,,,,,,,,,0,,,82,75
118800,note_on,81,0,1,,,,,,,,,0,,,84,0
118800,note_on,0,0,1,,,,,,,,,0,,,85,75
118834,note_on,0,0,2,,,,,,,,,1,,,73,88
118834,note_on,69,0,2,,,,,,,,,1,,,75,0
118880,note_on,80,0,1,,,,,,,,,0,,,85,0
118880,note_on,0,0,3,,,,,,,,,2,,,60,88
118880,note_on,0,0,3,,,,,,,,,2,,,69,88
118880,note_on,161,0,3,,,,,,,,,2,,,70,0
118880,note_on,0,0,1,,,,,,,,,0,,,82,0
118880,note_on,0,0,1,,,,,,,,,0,,,83,75
118880,note_on,0,0,1,,,,,,,,,0,,,86,75
118880,note_on,0,0,3,,,,,,,,,2,,,61,0
118902,note_on,68,0,2,,,,,,,,,1,,,73,0
118902,note_on,0,0,2,,,,,,,,,1,,,75,88
118959,note_on,79,0,1,,,,,,,,,0,,,86,0
118959,note_on,0,0,1,,,,,,,,,0,,,83,0
118959,note_on,0,0,1,,,,,,,,,0,,,84,75
118959,note_on,0,0,1,,,,,,,,,0,,,87,75
118971,note_on,69,0,2,,,,,,,,,1,,,75,0
118971,note_on,0,0,2,,,,,,,,,1,,,78,88
119040,note_on,81,0,1,,,,,,,,,0,,,87,0
119040,note_on,0,0,1,,,,,,,,,0,,,88,75
119040,note_on,160,0,3,,,,,,,,,2,,,69,0
119040,note_on,0,0,1,,,,,,,,,0,,,85,75
119040,note_on,0,0,3,,,,,,,,,2,,,70,88
119040,note_on,0,0,3,,,,,,,,,2,,,60,0
119040,note_on,0,0,3,,,,,,,,,2,,,61,88
119040,note_on,69,0,2,,,,,,,,,1,,,78,0
119040,note_on,0,0,1,,,,,,,,,0,,,84,0
119040,note_on,0,0,2,,,,,,,,,1,,,85,88
119108,note_on,0,0,2,,,,,,,,,1,,,85,88
119108,note_on,68,0,2,,,,,,,,,1,,,85,0
119120,note_on,0,0,1,,,,,,,,,0,,,89,75
119120,note_on,0,0,1,,,,,,,,,0,,,86,75
119120,note_on,80,0,1,,,,,,,,,0,,,88,0
119120,note_on,0,0,1,,,,,,,,,0,,,85,0
119177,note_on,0,0,2,,,,,,,,,1,,,87,88
119177,note_on,69,0,2,,,,,,,,,1,,,85,0
119199,note_on,0,0,1,,,,,,,,,0,,,87,75
119199,note_on,0,0,1,,,,,,,,,0,,,90,75
119199,note_on,0,0,3,,,,,,,,,2,,,61,0
119199,note_on,79,0,1,,,,,,,,,0,,,89,0
119199,note_on,159,0,3,,,,,,,,,2,,,70,0
119199,note_on,0,0,3,,,,,,,,,2,,,73,88
119199,note_on,0,0,3,,,,,,,,,2,,,65,88
119199,note_on,0,0,1,,,,,,,,,0,,,86,0
119245,note_on,68,0,2,,,,,,,,,1,,,87,0
119245,note_on,0,0,2,,,,,,,,,1,,,90,88
119280,note_on,0,0,1,,,,,,,,,0,,,89,75
119280,note_on,0,0,1,,,,,,,,,0,,,87,0
119280,note_on,0,0,1,,,,,,,,,0,,,86,75
119280,note_on,81,0,1,,,,,,,,,0,,,90,0
119314,note_on,69,0,2,,,,,,,,,1,,,90,0
119314,note_on,0,0,2,,,,,,,,,1,,,97,88
119360,note_on,0,0,3,,,,,,,,,2,,,65,0
119360,note_on,0,0,3,,,,,,,,,2,,,71,88
119360,note_on,0,0,1,,,,,,,,,0,,,85,75
119360,note_on,0,0,1,,,,,,,,,0,,,88,75
119360,note_on,161,0,3,,,,,,,,,2,,,73,0
119360,note_on,0,0,1,,,,,,,,,0,,,86,0
119360,note_on,80,0,1,,,,,,,,,0,,,89,0
119360,note_on,0,0,3,,,,,,,,,2,,,63,88
119382,note_on,0,0,2,,,,,,,,,1,,,90,88
119382,note_on,68,0,2,,,,,,,,,1,,,97,0
119439,note_on,79,0,1,,,,,,,,,0,,,88,0
119439,note_on,0,0,1,,,,,,,,,0,,,89,75
119439,note_on,0,0,1,,,,,,,,,0,,,86,75
119439,note_on,0,0,1,,,,,,,,,0,,,85,0
119451,control_change,0,0,2,,,,,,,,,1,64,0,,
119451,note_on,0,0,2,,,,,,,,,1,,,87,88
119451,note_on,69,0,2,,,,,,,,,1,,,90,0
119520,note_on,0,0,1,,,,,,,,,0,,,87,75
119520,note_on,0,0,1,,,,,,,,,0,,,86,0
119520,note_on,0,0,1,,,,,,,,,0,,,90,75
119520,note_on,160,0,3,,,,,,,,,2,,,71,0
119520,note_on,81,0,1,,,,,,,,,0,,,89,0
119520,note_on,0,0,2,,,,,,,,,1,,,85,88
119520,note_on,0,0,3,,,,,,,,,2,,,61,88
119520,note_on,69,0,2,,,,,,,,,1,,,87,0
119520,note_on,0,0,3,,,,,,,,,2,,,70,88
119520,note_on,0,0,3,,,,,,,,,2,,,63,0
119573,note_on,53,0,2,,,,,,,,,1,,,85,0
119573,note_on,0,0,2,,,,,,,,,1,,,87,88
119600,note_on,80,0,1,,,,,,,,,0,,,90,0
119600,note_on,0,0,1,,,,,,,,,0,,,87,0
119600,note_on,0,0,1,,,,,,,,,0,,,91,75
119600,note_on,0,0,1,,,,,,,,,0,,,88,75
119626,note_on,53,0,2,,,,,,,,,1,,,87,0
119626,note_on,0,0,2,,,,,,,,,1,,,89,88
119679,note_on,0,0,2,,,,,,,,,1,,,97,88
119679,note_on,53,0,2,,,,,,,,,1,,,89,0
119679,note_on,0,0,1,,,,,,,,,0,,,89,75
119679,note_on,0,0,1,,,,,,,,,0,,,92,75
119679,note_on,0,0,3,,,,,,,,,2,,,68,88
119679,note_on,0,0,3,,,,,,,,,2,,,61,0
119679,note_on,0,0,1,,,,,,,,,0,,,88,0
119679,note_on,159,0,3,,,,,,,,,2,,,70,0
119679,note_on,79,0,1,,,,,,,,,0,,,91,0
119679,note_on,0,0,3,,,,,,,,,2,,,59,88
119733,note_on,54,0,2,,,,,,,,,1,,,97,0
119733,note_on,0,0,2,,,,,,,,,1,,,89,88
119760,note_on,0,0,1,,,,,,,,,0,,,89,0
119760,note_on,0,0,1,,,,,,,,,0,,,90,75
119760,note_on,0,0,1,,,,,,,,,0,,,93,75
119760,note_on,81,0,1,,,,,,,,,0,,,92,0
119786,note_on,53,0,2,,,,,,,,,1,,,89,0
119786,note_on,0,0,2,,,,,,,,,1,,,87,88
119840,note_on,0,0,1,,,,,,,,,0,,,90,0
119840,note_on,0,0,1,,,,,,,,,0,,,91,75
119840,note_on,0,0,1,,,,,,,,,0,,,94,75
119840,note_on,80,0,1,,,,,,,,,0,,,93,0
119840,note_on,161,0,3,,,,,,,,,2,,,68,0
119840,note_on,54,0,2,,,,,,,,,1,,,87,0
119840,note_on,0,0,3,,,,,,,,,2,,,67,88
119840,note_on,0,0,3,,,,,,,,,2,,,59,0
119840,note_on,0,0,2,,,,,,,,,1,,,85,88
119840,note_on,0,0,3,,,,,,,,,2,,,58,88
119893,note_on,0,0,2,,,,,,,,,1,,,87,88
119893,note_on,53,0,2,,,,,,,,,1,,,85,0
119919,note_on,0,0,1,,,,,,,,,0,,,95,75
119919,note_on,79,0,1,,,,,,,,,0,,,94,0
119919,note_on,0,0,1,,,,,,,,,0,,,91,0
119919,note_on,0,0,1,,,,,,,,,0,,,92,75
119946,note_on,0,0,2,,,,,,,,,1,,,89,88
119946,note_on,53,0,2,,,,,,,,,1,,,87,0
120000,note_on,54,0,2,,,,,,,,,1,,,89,0
120000,note_on,0,0,3,,,,,,,,,2,,,58,0
120000,note_on,0,0,3,,,,,,,,,2,,,59,88
120000,note_on,0,0,3,,,,,,,,,2,,,68,88
120000,note_on,0,0,1,,,,,,,,,0,,,92,0
120000,note_on,0,0,1,,,,,,,,,0,,,89,101
120000,note_on,160,0,3,,,,,,,,,2,,,67,0
120000,note_on,0,0,2,,,,,,,,,1,,,96,114
120000,note_on,0,0,1,,,,,,,,,0,,,80,101
120000,note_on,81,0,1,,,,,,,,,0,,,95,0
120080,note_on,0,0,1,,,,,,,,,0,,,80,0
120080,note_on,0,0,1,,,,,,,,,0,,,95,75
120080,note_on,80,0,1,,,,,,,,,0,,,89,0
120159,note_on,0,0,3,,,,,,,,,2,,,37,88
120159,note_on,0,0,3,,,,,,,,,2,,,49,88
120159,note_on,0,0,3,,,,,,,,,2,,,59,0
120159,note_on,0,0,1,,,,,,,,,0,,,80,75
120159,note_on,0,0,1,,,,,,,,,0,,,89,75
120159,note_on,159,0,3,,,,,,,,,2,,,68,0
120159,note_on,79,0,1,,,,,,,,,0,,,95,0
120159,note_on,159,0,2,,,,,,,,,1,,,96,0
120240,note_on,0,0,1,,,,,,,,,0,,,80,0
120240,note_on,0,0,1,,,,,,,,,0,,,95,75
120240,note_on,0,0,2,,,,,,,,,1,,,68,88
120240,note_on,0,0,2,,,,,,,,,1,,,65,88
120240,note_on,81,0,2,,,,,,,,,1,,,58,88
120240,note_on,81,0,1,,,,,,,,,0,,,89,0
120320,note_on,161,0,3,,,,,,,,,2,,,49,0
120320,note_on,0,0,3,,,,,,,,,2,,,37,0
120320,note_on,80,0,1,,,,,,,,,0,,,95,0
120320,control_change,0,0,3,,,,,,,,,2,64,0,,
120320,note_on,0,0,3,,,,,,,,,2,,,38,88
120320,note_on,0,0,3,,,,,,,,,2,,,50,88
120320,note_on,80,0,2,,,,,,,,,1,,,68,0
120320,note_on,0,0,2,,,,,,,,,1,,,58,0
120320,note_on,0,0,2,,,,,,,,,1,,,65,0
120320,note_on,0,0,1,,,,,,,,,0,,,89,75
120320,note_on,0,0,1,,,,,,,,,0,,,80,75
120399,note_on,0,0,2,,,,,,,,,1,,,59,88
120399,control_change,79,0,2,,,,,,,,,1,64,0,,
120399,note_on,0,0,1,,,,,,,,,0,,,95,75
120399,note_on,79,0,1,,,,,,,,,0,,,89,0
120399,note_on,0,0,2,,,,,,,,,1,,,65,88
120399,note_on,0,0,1,,,,,,,,,0,,,80,0
120399,note_on,0,0,2,,,,,,,,,1,,,68,88
120399,control_change,0,0,1,,,,,,,,,0,64,0,,
120480,control_change,0,0,2,,,,,,,,,1,64,127,,
120480,note_on,0,0,2,,,,,,,,,1,,,68,114
120480,note_on,0,0,2,,,,,,,,,1,,,72,114
120480,note_on,81,0,1,,,,,,,,,0,,,95,0
120480,note_on,0,0,1,,,,,,,,,0,,,96,75
120480,note_on,0,0,1,,,,,,,,,0,,,92,75
120480,note_on,0,0,2,,,,,,,,,1,,,60,114
120480,note_on,0,0,3,,,,,,,,,2,,,38,0
120480,note_on,0,0,3,,,,,,,,,2,,,39,114
120480,note_on,81,0,2,,,,,,,,,1,,,68,0
120480,note_on,0,0,2,,,,,,,,,1,,,59,0
120480,note_on,0,0,1,,,,,,,,,0,,,104,75
120480,control_change,0,0,1,,,,,,,,,0,64,127,,
120480,note_on,0,0,2,,,,,,,,,1,,,65,0
120480,control_change,0,0,3,,,,,,,,,2,64,127,,
120480,note_on,0,0,3,,,,,,,,,2,,,51,114
120480,note_on,160,0,3,,,,,,,,,2,,,50,0
120560,note_on,80,0,1,,,,,,,,,0,,,104,0
120560,note_on,0,0,1,,,,,,,,,0,,,96,0
120560,note_on,0,0,1,,,,,,,,,0,,,92,0
120560,note_on,0,0,1,,,,,,,,,0,,,103,75
120639,note_on,0,0,1,,,,,,,,,0,,,102,75
120639,note_on,159,0,2,,,,,,,,,1,,,72,0
120639,note_on,0,0,2,,,,,,,,,1,,,60,0
120639,note_on,79,0,1,,,,,,,,,0,,,103,0
120639,note_on,0,0,2,,,,,,,,,1,,,68,0
120639,note_on,0,0,2,,,,,,,,,1,,,75,88
120639,note_on,0,0,1,,,,,,,,,0,,,99,75
120720,note_on,81,0,2,,,,,,,,,1,,,75,0
120720,note_on,0,0,2,,,,,,,,,1,,,77,88
120720,note_on,0,0,1,,,,,,,,,0,,,99,0
120720,note_on,0,0,1,,,,,,,,,0,,,101,75
120720,note_on,81,0,1,,,,,,,,,0,,,102,0
120720,note_on,0,0,1,,,,,,,,,0,,,98,75
120800,note_on,0,0,1,,,,,,,,,0,,,100,75
120800,note_on,0,0,1,,,,,,,,,0,,,97,75
120800,note_on,0,0,1,,,,,,,,,0,,,98,0
120800,note_on,0,0,2,,,,,,,,,1,,,80,88
120800,note_on,80,0,2,,,,,,,,,1,,,77,0
120800,note_on,80,0,1,,,,,,,,,0,,,101,0
120879,note_on,79,0,2,,,,,,,,,1,,,80,0
120879,note_on,0,0,1,,,,,,,,,0,,,97,0
120879,note_on,0,0,1,,,,,,,,,0,,,96,75
120879,note_on,0,0,2,,,,,,,,,1,,,87,88
120879,note_on,79,0,1,,,,,,,,,0,,,100,0
120879,note_on,0,0,1,,,,,,,,,0,,,99,75
120960,note_on,0,0,1,,,,,,,,,0,,,96,0
120960,note_on,480,0,3,,,,,,,,,2,,,51,0
120960,note_on,0,0,1,,,,,,,,,0,,,98,75
120960,note_on,0,0,1,,,,,,,,,0,,,95,75
120960,note_on,0,0,3,,,,,,,,,2,,,39,0
120960,note_on,0,0,3,,,,,,,,,2,,,63,75
120960,note_on,0,0,2,,,,,,,,,1,,,87,88
120960,note_on,81,0,1,,,,,,,,,0,,,99,0
120960,note_on,0,0,3,,,,,,,,,2,,,72,75
120960,note_on,81,0,2,,,,,,,,,1,,,87,0
120960,note_on,0,0,3,,,,,,,,,2,,,68,75
121020,note_on,0,0,2,,,,,,,,,1,,,89,88
121020,note_on,60,0,2,,,,,,,,,1,,,87,0
121040,note_on,0,0,1,,,,,,,,,0,,,94,75
121040,note_on,80,0,1,,,,,,,,,0,,,98,0
121040,note_on,0,0,1,,,,,,,,,0,,,95,0
121040,note_on,0,0,1,,,,,,,,,0,,,97,75
121080,note_on,0,0,2,,,,,,,,,1,,,92,88
121080,note_on,60,0,2,,,,,,,,,1,,,89,0
121119,note_on,79,0,1,,,,,,,,,0,,,97,0
121119,note_on,159,0,3,,,,,,,,,2,,,72,0
121119,note_on,0,0,3,,,,,,,,,2,,,63,0
121119,note_on,0,0,3,,,,,,,,,2,,,68,0
121119,note_on,0,0,3,,,,,,,,,2,,,73,75
121119,note_on,0,0,3,,,,,,,,,2,,,65,75
121119,note_on,0,0,1,,,,,,,,,0,,,94,0
121119,note_on,0,0,1,,,,,,,,,0,,,93,75
121119,note_on,0,0,1,,,,,,,,,0,,,96,75
121140,note_on,60,0,2,,,,,,,,,1,,,92,0
121140,note_on,0,0,2,,,,,,,,,1,,,99,88
121200,note_on,0,0,1,,,,,,,,,0,,,95,75
121200,note_on,60,0,2,,,,,,,,,1,,,99,0
121200,note_on,0,0,1,,,,,,,,,0,,,92,75
121200,note_on,0,0,2,,,,,,,,,1,,,101,88
121200,note_on,81,0,1,,,,,,,,,0,,,96,0
121200,note_on,0,0,1,,,,,,,,,0,,,93,0
121260,note_on,0,0,2,,,,,,,,,1,,,99,88
121260,note_on,60,0,2,,,,,,,,,1,,,101,0
121280,note_on,0,0,3,,,,,,,,,2,,,77,75
121280,note_on,0,0,3,,,,,,,,,2,,,68,75
121280,note_on,0,0,3,,,,,,,,,2,,,65,0
121280,note_on,161,0,3,,,,,,,,,2,,,73,0
121280,note_on,0,0,1,,,,,,,,,0,,,94,75
121280,note_on,0,0,1,,,,,,,,,0,,,91,75
121280,note_on,0,0,1,,,,,,,,,0,,,92,0
121280,note_on,80,0,1,,,,,,,,,0,,,95,0
121320,note_on,60,0,2,,,,,,,,,1,,,99,0
121320,note_on,0,0,2,,,,,,,,,1,,,92,88
121359,note_on,0,0,1,,,,,,,,,0,,,91,0
121359,note_on,0,0,1,,,,,,,,,0,,,93,75
121359,note_on,0,0,1,,,,,,,,,0,,,90,75
121359,note_on,79,0,1,,,,,,,,,0,,,94,0
121380,note_on,0,0,2,,,,,,,,,1,,,89,88
121380,note_on,60,0,2,,,,,,,,,1,,,92,0
121440,note_on,0,0,1,,,,,,,,,0,,,90,0
121440,note_on,0,0,1,,,,,,,,,0,,,92,75
121440,note_on,60,0,2,,,,,,,,,1,,,89,0
121440,note_on,0,0,2,,,,,,,,,1,,,87,88
121440,note_on,0,0,3,,,,,,,,,2,,,75,88
121440,note_on,0,0,3,,,,,,,,,2,,,68,0
121440,note_on,0,0,3,,,,,,,,,2,,,67,88
121440,note_on,160,0,3,,,,,,,,,2,,,77,0
121440,note_on,0,0,1,,,,,,,,,0,,,89,75
121440,note_on,81,0,1,,,,,,,,,0,,,93,0
121508,note_on,0,0,2,,,,,,,,,1,,,82,88
121508,note_on,68,0,2,,,,,,,,,1,,,87,0
121520,note_on,80,0,1,,,,,,,,,0,,,92,0
121520,note_on,0,0,1,,,,,,,,,0,,,88,75
121520,note_on,0,0,1,,,,,,,,,0,,,89,0
121520,note_on,0,0,1,,,,,,,,,0,,,91,75
121577,note_on,0,0,2,,,,,,,,,1,,,77,88
121577,note_on,69,0,2,,,,,,,,,1,,,82,0
121599,note_on,0,0,3,,,,,,,,,2,,,69,88
121599,note_on,0,0,3,,,,,,,,,2,,,67,0
121599,note_on,0,0,3,,,,,,,,,2,,,60,88
121599,note_on,159,0,3,,,,,,,,,2,,,75,0
121599,note_on,0,0,1,,,,,,,,,0,,,87,75
121599,note_on,0,0,1,,,,,,,,,0,,,88,0
121599,note_on,0,0,1,,,,,,,,,0,,,90,75
121599,note_on,79,0,1,,,,,,,,,0,,,91,0
121645,note_on,68,0,2,,,,,,,,,1,,,77,0
121645,note_on,0,0,2,,,,,,,,,1,,,75,88
121680,note_on,0,0,1,,,,,,,,,0,,,89,75
121680,note_on,81,0,1,,,,,,,,,0,,,90,0
121680,note_on,0,0,1,,,,,,,,,0,,,87,0
121680,note_on,0,0,1,,,,,,,,,0,,,86,75
121714,note_on,69,0,2,,,,,,,,,1,,,75,0
121714,note_on,0,0,2,,,,,,,,,1,,,77,88
121760,note_on,0,0,1,,,,,,,,,0,,,85,75
121760,note_on,0,0,1,,,,,,,,,0,,,86,0
121760,note_on,0,0,1,,,,,,,,,0,,,88,75
121760,note_on,0,0,3,,,,,,,,,2,,,60,0
121760,note_on,0,0,3,,,,,,,,,2,,,61,88
121760,note_on,80,0,1,,,,,,,,,0,,,89,0
121760,note_on,0,0,3,,,,,,,,,2,,,70,88
121760,note_on,161,0,3,,,,,,,,,2,,,69,0
121782,note_on,0,0,2,,,,,,,,,1,,,79,88
121782,note_on,68,0,2,,,,,,,,,1,,,77,0
121839,note_on,79,0,1,,,,,,,,,0,,,88,0
121839,note_on,0,0,1,,,,,,,,,0,,,84,75
121839,note_on,0,0,1,,,,,,,,,0,,,85,0
121839,note_on,0,0,1,,,,,,,,,0,,,87,75
121851,note_on,0,0,2,,,,,,,,,1,,,82,88
121851,note_on,69,0,2,,,,,,,,,1,,,79,0
121920,note_on,0,0,1,,,,,,,,,0,,,86,75
121920,note_on,0,0,2,,,,,,,,,1,,,85,88
121920,note_on,69,0,2,,,,,,,,,1,,,82,0
121920,note_on,0,0,1,,,,,,,,,0,,,84,0
121920,note_on,0,0,1,,,,,,,,,0,,,83,75
121920,note_on,160,0,3,,,,,,,,,2,,,61,0
121920,note_on,0,0,3,,,,,,,,,2,,,64,88
121920,note_on,81,0,1,,,,,,,,,0,,,87,0
121920,note_on,0,0,3,,,,,,,,,2,,,73,88
122000,note_on,80,0,1,,,,,,,,,0,,,86,0
122000,note_on,0,0,1,,,,,,,,,0,,,82,75
122000,note_on,0,0,1,,,,,,,,,0,,,85,75
122000,note_on,0,0,1,,,,,,,,,0,,,83,0
122079,note_on,0,0,1,,,,,,,,,0,,,81,75
122079,note_on,159,0,3,,,,,,,,,2,,,73,0
122079,note_on,159,0,2,,,,,,,,,1,,,85,0
122079,note_on,0,0,3,,,,,,,,,2,,,70,0
122079,note_on,79,0,1,,,,,,,,,0,,,85,0
122079,note_on,0,0,3,,,,,,,,,2,,,64,0
122079,note_on,0,0,3,,,,,,,,,2,,,52,114
122079,note_on,0,0,3,,,,,,,,,2,,,40,114
122079,note_on,0,0,1,,,,,,,,,0,,,84,75
122079,note_on,0,0,1,,,,,,,,,0,,,82,0
122160,note_on,0,0,1,,,,,,,,,0,,,83,75
122160,note_on,0,0,1,,,,,,,,,0,,,81,0
122160,note_on,0,0,1,,,,,,,,,0,,,80,75
122160,note_on,0,0,2,,,,,,,,,1,,,66,88
122160,note_on,0,0,2,,,,,,,,,1,,,61,88
122160,note_on,81,0,1,,,,,,,,,0,,,84,0
122160,note_on,81,0,2,,,,,,,,,1,,,58,88
122240,note_on,0,0,3,,,,,,,,,2,,,40,0
122240,note_on,161,0,3,,,,,,,,,2,,,52,0
122240,note_on,80,0,1,,,,,,,,,0,,,83,0
122240,note_on,80,0,2,,,,,,,,,1,,,66,0
122240,note_on,0,0,1,,,,,,,,,0,,,79,75
122240,note_on,0,0,1,,,,,,,,,0,,,80,0
122240,note_on,0,0,1,,,,,,,,,0,,,82,75
122240,note_on,0,0,3,,,,,,,,,2,,,51,88
122240,note_on,0,0,2,,,,,,,,,1,,,61,0
122240,note_on,0,0,2,,,,,,,,,1,,,58,0
122240,note_on,0,0,3,,,,,,,,,2,,,39,88
122240,control_change,0,0,3,,,,,,,,,2,64,0,,
122319,note_on,0,0,2,,,,,,,,,1,,,67,88
122319,note_on,0,0,2,,,,,,,,,1,,,61,88
122319,note_on,0,0,2,,,,,,,,,1,,,58,88
122319,note_on,0,0,1,,,,,,,,,0,,,76,75
122319,note_on,0,0,1,,,,,,,,,0,,,79,0
122319,control_change,0,0,1,,,,,,,,,0,64,0,,
122319,control_change,79,0,2,,,,,,,,,1,64,0,,
122319,note_on,79,0,1,,,,,,,,,0,,,82,0
122400,note_on,0,0,1,,,,,,,,,0,,,84,75
122400,note_on,0,0,2,,,,,,,,,1,,,61,0
122400,note_on,160,0,3,,,,,,,,,2,,,51,0
122400,note_on,0,0,1,,,,,,,,,0,,,80,75
122400,note_on,0,0,3,,,,,,,,,2,,,39,114
122400,note_on,0,0,2,,,,,,,,,1,,,68,101
122400,control_change,0,0,2,,,,,,,,,1,64,127,,
122400,note_on,0,0,2,,,,,,,,,1,,,58,0
122400,note_on,0,0,3,,,,,,,,,2,,,51,114
122400,note_on,0,0,2,,,,,,,,,1,,,72,101
122400,control_change,0,0,3,,,,,,,,,2,64,127,,
122400,note_on,0,0,3,,,,,,,,,2,,,39,0
122400,note_on,81,0,2,,,,,,,,,1,,,67,0
122400,control_change,0,0,1,,,,,,,,,0,64,127,,
122400,note_on,81,0,1,,,,,,,,,0,,,76,0
122400,note_on,0,0,2,,,,,,,,,1,,,60,101
122431,note_on,31,0,2,,,,,,,,,1,,,72,0
122431,note_on,0,0,2,,,,,,,,,1,,,60,0
122431,note_on,0,0,2,,,,,,,,,1,,,68,0
122480,note_on,80,0,1,,,,,,,,,0,,,84,0
122480,note_on,0,0,1,,,,,,,,,0,,,80,0
122480,note_on,0,0,1,,,,,,,,,0,,,83,75
122496,note_on,0,0,3,,,,,,,,,2,,,39,0
122496,note_on,96,0,3,,,,,,,,,2,,,51,0
122559,note_on,0,0,1,,,,,,,,,0,,,79,75
122559,note_on,0,0,1,,,,,,,,,0,,,82,75
122559,note_on,79,0,1,,,,,,,,,0,,,83,0
122559,note_on,128,0,2,,,,,,,,,1,,,63,75
122640,note_on,0,0,1,,,,,,,,,0,,,78,75
122640,note_on,0,0,1,,,,,,,,,0,,,79,0
122640,note_on,0,0,1,,,,,,,,,0,,,81,75
122640,note_on,81,0,1,,,,,,,,,0,,,82,0
122640,note_on,0,0,2,,,,,,,,,1,,,65,75
122640,note_on,81,0,2,,,,,,,,,1,,,63,0
122720,note_on,80,0,2,,,,,,,,,1,,,65,0
122720,note_on,80,0,1,,,,,,,,,0,,,81,0
122720,note_on,0,0,2,,,,,,,,,1,,,68,75
122720,note_on,0,0,1,,,,,,,,,0,,,77,75
122720,note_on,0,0,1,,,,,,,,,0,,,78,0
122720,note_on,0,0,1,,,,,,,,,0,,,80,75
122799,note_on,0,0,1,,,,,,,,,0,,,76,75
122799,note_on,79,0,1,,,,,,,,,0,,,80,0
122799,note_on,79,0,2,,,,,,,,,1,,,68,0
122799,note_on,0,0,1,,,,,,,,,0,,,79,75
122799,note_on,0,0,1,,,,,,,,,0,,,77,0
122799,note_on,0,0,2,,,,,,,,,1,,,75,75
122880,note_on,0,0,1,,,,,,,,,0,,,78,75
122880,note_on,0,0,1,,,,,,,,,0,,,76,0
122880,note_on,0,0,1,,,,,,,,,0,,,75,75
122880,note_on,81,0,2,,,,,,,,,1,,,75,0
122880,note_on,0,0,2,,,,,,,,,1,,,75,75
122880,note_on,0,0,3,,,,,,,,,2,,,60,88
122880,note_on,384,0,3,,,,,,,,,2,,,51,88
122880,note_on,81,0,1,,,,,,,,,0,,,79,0
122880,note_on,0,0,3,,,,,,,,,2,,,56,88
122940,note_on,0,0,2,,,,,,,,,1,,,77,75
122940,note_on,60,0,2,,,,,,,,,1,,,75,0
122960,note_on,0,0,1,,,,,,,,,0,,,74,75
122960,note_on,80,0,1,,,,,,,,,0,,,78,0
122960,note_on,0,0,1,,,,,,,,,0,,,75,0
122960,note_on,0,0,1,,,,,,,,,0,,,77,75
123000,note_on,0,0,2,,,,,,,,,1,,,80,75
123000,note_on,60,0,2,,,,,,,,,1,,,77,0
123039,note_on,79,0,1,,,,,,,,,0,,,77,0
123039,note_on,0,0,1,,,,,,,,,0,,,76,75
123039,note_on,0,0,1,,,,,,,,,0,,,74,0
123039,note_on,159,0,3,,,,,,,,,2,,,60,0
123039,note_on,0,0,3,,,,,,,,,2,,,56,0
123039,note_on,0,0,3,,,,,,,,,2,,,51,0
123039,note_on,0,0,3,,,,,,,,,2,,,61,88
123039,note_on,0,0,3,,,,,,,,,2,,,53,88
123039,note_on,0,0,1,,,,,,,,,0,,,73,75
123060,note_on,60,0,2,,,,,,,,,1,,,80,0
123060,note_on,0,0,2,,,,,,,,,1,,,84,75
123120,note_on,81,0,1,,,,,,,,,0,,,76,0
123120,note_on,0,0,1,,,,,,,,,0,,,72,75
123120,note_on,0,0,1,,,,,,,,,0,,,73,0
123120,note_on,0,0,1,,,,,,,,,0,,,75,75
123120,note_on,0,0,2,,,,,,,,,1,,,89,75
123120,note_on,60,0,2,,,,,,,,,1,,,84,0
123180,note_on,60,0,2,,,,,,,,,1,,,89,0
123180,note_on,0,0,2,,,,,,,,,1,,,87,75
123200,note_on,0,0,1,,,,,,,,,0,,,71,75
123200,note_on,0,0,1,,,,,,,,,0,,,72,0
123200,note_on,0,0,1,,,,,,,,,0,,,74,75
123200,note_on,80,0,1,,,,,,,,,0,,,75,0
123200,note_on,0,0,3,,,,,,,,,2,,,65,88
123200,note_on,161,0,3,,,,,,,,,2,,,61,0
123200,note_on,0,0,3,,,,,,,,,2,,,53,0
123200,note_on,0,0,3,,,,,,,,,2,,,56,88
123240,note_on,60,0,2,,,,,,,,,1,,,87,0
123240,note_on,0,0,2,,,,,,,,,1,,,80,75
123279,note_on,0,0,1,,,,,,,,,0,,,70,75
123279,note_on,79,0,1,,,,,,,,,0,,,74,0
123279,note_on,0,0,1,,,,,,,,,0,,,73,75
123279,note_on,0,0,1,,,,,,,,,0,,,71,0
123300,note_on,60,0,2,,,,,,,,,1,,,80,0
123300,note_on,0,0,2,,,,,,,,,1,,,77,75
123360,note_on,0,0,1,,,,,,,,,0,,,69,75
123360,note_on,0,0,3,,,,,,,,,2,,,55,88
123360,note_on,0,0,3,,,,,,,,,2,,,56,0
123360,note_on,160,0,3,,,,,,,,,2,,,65,0
123360,note_on,0,0,3,,,,,,,,,2,,,63,88
123360,note_on,0,0,2,,,,,,,,,1,,,75,75
123360,note_on,0,0,1,,,,,,,,,0,,,70,0
123360,note_on,0,0,1,,,,,,,,,0,,,72,75
123360,note_on,81,0,1,,,,,,,,,0,,,73,0
123360,note_on,60,0,2,,,,,,,,,1,,,77,0
123428,note_on,0,0,2,,,,,,,,,1,,,70,75
123428,note_on,68,0,2,,,,,,,,,1,,,75,0
123440,note_on,80,0,1,,,,,,,,,0,,,72,0
123440,note_on,0,0,1,,,,,,,,,0,,,71,75
123440,note_on,0,0,1,,,,,,,,,0,,,68,75
123440,note_on,0,0,1,,,,,,,,,0,,,69,0
123497,note_on,69,0,2,,,,,,,,,1,,,70,0
123497,note_on,0,0,2,,,,,,,,,1,,,65,75
123519,note_on,0,0,3,,,,,,,,,2,,,55,0
123519,note_on,79,0,1,,,,,,,,,0,,,71,0
123519,note_on,0,0,3,,,,,,,,,2,,,48,88
123519,note_on,0,0,3,,,,,,,,,2,,,57,88
123519,note_on,0,0,1,,,,,,,,,0,,,68,0
123519,note_on,0,0,1,,,,,,,,,0,,,70,75
123519,note_on,159,0,3,,,,,,,,,2,,,63,0
123519,note_on,0,0,1,,,,,,,,,0,,,67,75
123565,note_on,68,0,2,,,,,,,,,1,,,65,0
123565,note_on,0,0,2,,,,,,,,,1,,,63,75
123600,note_on,81,0,1,,,,,,,,,0,,,70,0
123600,note_on,0,0,1,,,,,,,,,0,,,66,75
123600,note_on,0,0,1,,,,,,,,,0,,,69,75
123600,note_on,0,0,1,,,,,,,,,0,,,67,0
123634,note_on,0,0,2,,,,,,,,,1,,,65,75
123634,note_on,69,0,2,,,,,,,,,1,,,63,0
123680,note_on,0,0,3,,,,,,,,,2,,,58,88
123680,note_on,0,0,1,,,,,,,,,0,,,68,75
123680,note_on,0,0,3,,,,,,,,,2,,,49,88
123680,note_on,161,0,3,,,,,,,,,2,,,57,0
123680,note_on,0,0,3,,,,,,,,,2,,,48,0
123680,note_on,80,0,1,,,,,,,,,0,,,69,0
123680,note_on,0,0,1,,,,,,,,,0,,,65,75
123680,note_on,0,0,1,,,,,,,,,0,,,66,0
123702,note_on,0,0,2,,,,,,,,,1,,,67,75
123702,note_on,68,0,2,,,,,,,,,1,,,65,0
123759,note_on,0,0,1,,,,,,,,,0,,,67,75
123759,note_on,79,0,1,,,,,,,,,0,,,68,0
123759,note_on,0,0,1,,,,,,,,,0,,,65,0
123759,note_on,0,0,1,,,,,,,,,0,,,64,75
123771,note_on,0,0,2,,,,,,,,,1,,,70,75
123771,note_on,69,0,2,,,,,,,,,1,,,67,0
123840,note_on,0,0,3,,,,,,,,,2,,,61,88
123840,note_on,0,0,3,,,,,,,,,2,,,52,88
123840,note_on,69,0,2,,,,,,,,,1,,,70,0
123840,note_on,0,0,1,,,,,,,,,0,,,64,0
123840,note_on,0,0,1,,,,,,,,,0,,,63,75
123840,note_on,81,0,1,,,,,,,,,0,,,67,0
123840,note_on,0,0,1,,,,,,,,,0,,,66,75
123840,note_on,0,0,2,,,,,,,,,1,,,73,75
123840,note_on,160,0,3,,,,,,,,,2,,,49,0
123920,note_on,0,0,1,,,,,,,,,0,,,62,75
123920,note_on,0,0,1,,,,,,,,,0,,,65,75
123920,note_on,0,0,1,,,,,,,,,0,,,63,0
123920,note_on,80,0,1,,,,,,,,,0,,,66,0
123999,note_on,79,0,1,,,,,,,,,0,,,65,0
123999,note_on,0,0,3,,,,,,,,,2,,,52,0
123999,note_on,0,0,3,,,,,,,,,2,,,51,88
123999,note_on,159,0,3,,,,,,,,,2,,,61,0
123999,note_on,0,0,1,,,,,,,,,0,,,64,75
123999,note_on,0,0,1,,,,,,,,,0,,,62,0
123999,note_on,0,0,3,,,,,,,,,2,,,58,0
123999,note_on,0,0,3,,,,,,,,,2,,,39,88
123999,note_on,159,0,2,,,,,,,,,1,,,73,0
123999,note_on,0,0,1,,,,,,,,,0,,,61,75
124080,note_on,0,0,1,,,,,,,,,0,,,60,75
124080,note_on,81,0,1,,,,,,,,,0,,,64,0
124080,note_on,0,0,1,,,,,,,,,0,,,63,75
124080,note_on,0,0,2,,,,,,,,,1,,,66,75
124080,note_on,0,0,2,,,,,,,,,1,,,61,75
124080,note_on,81,0,2,,,,,,,,,1,,,58,75
124080,note_on,0,0,1,,,,,,,,,0,,,61,0
124160,note_on,0,0,3,,,,,,,,,2,,,39,0
124160,note_on,0,0,1,,,,,,,,,0,,,59,75
124160,note_on,0,0,1,,,,,,,,,0,,,60,0
124160,note_on,0,0,1,,,,,,,,,0,,,62,75
124160,control_change,0,0,3,,,,,,,,,2,64,0,,
124160,note_on,80,0,1,,,,,,,,,0,,,63,0
124160,note_on,161,0,3,,,,,,,,,2,,,51,0
124160,note_on,0,0,3,,,,,,,,,2,,,40,88
124160,note_on,80,0,2,,,,,,,,,1,,,66,0
124160,note_on,0,0,3,,,,,,,,,2,,,52,88
124160,note_on,0,0,2,,,,,,,,,1,,,58,0
124160,note_on,0,0,2,,,,,,,,,1,,,61,0
124239,note_on,0,0,1,,,,,,,,,0,,,58,75
124239,control_change,0,0,1,,,,,,,,,0,64,0,,
124239,note_on,79,0,1,,,,,,,,,0,,,62,0
124239,note_on,0,0,2,,,,,,,,,1,,,58,75
124239,note_on,0,0,2,,,,,,,,,1,,,61,75
124239,note_on,0,0,2,,,,,,,,,1,,,67,75
124239,control_change,79,0,2,,,,,,,,,1,64,0,,
124239,note_on,0,0,1,,,,,,,,,0,,,59,0
124239,note_on,0,0,1,,,,,,,,,0,,,61,75
124320,note_on,0,0,2,,,,,,,,,1,,,58,0
124320,note_on,81,0,2,,,,,,,,,1,,,67,0
124320,note_on,0,0,3,,,,,,,,,2,,,40,0
124320,note_on,81,0,1,,,,,,,,,0,,,61,0
124320,control_change,0,0,3,,,,,,,,,2,64,127,,
124320,control_change,0,0,1,,,,,,,,,0,64,127,,
124320,note_on,0,0,2,,,,,,,,,1,,,61,0
124320,note_on,0,0,3,,,,,,,,,2,,,41,88
124320,note_on,0,0,3,,,,,,,,,2,,,53,88
124320,note_on,160,0,3,,,,,,,,,2,,,52,0
124320,note_on,0,0,1,,,,,,,,,0,,,58,0
124400,note_on,80,0,1,,,,,,,,,0,,,61,62
124479,note_on,0,0,1,,,,,,,,,0,,,63,62
124479,note_on,79,0,1,,,,,,,,,0,,,61,0
124560,note_on,0,0,1,,,,,,,,,0,,,70,62
124560,note_on,81,0,1,,,,,,,,,0,,,63,0
124560,note_on,0,0,1,,,,,,,,,0,,,73,62
124640,note_on,0,0,3,,,,,,,,,2,,,41,0
124640,note_on,320,0,3,,,,,,,,,2,,,53,0
124640,note_on,0,0,3,,,,,,,,,2,,,53,88
124640,note_on,80,0,1,,,,,,,,,0,,,73,0
124640,note_on,0,0,3,,,,,,,,,2,,,58,88
124640,note_on,0,0,3,,,,,,,,,2,,,61,88
124640,note_on,0,0,1,,,,,,,,,0,,,70,0
124640,note_on,0,0,1,,,,,,,,,0,,,73,62
124719,note_on,0,0,1,,,,,,,,,0,,,75,62
124719,note_on,79,0,1,,,,,,,,,0,,,73,0
124800,note_on,0,0,3,,,,,,,,,2,,,58,0
124800,note_on,0,0,1,,,,,,,,,0,,,82,75
124800,note_on,0,0,1,,,,,,,,,0,,,85,75
124800,note_on,0,0,3,,,,,,,,,2,,,58,88
124800,note_on,81,0,1,,,,,,,,,0,,,75,0
124800,note_on,0,0,3,,,,,,,,,2,,,61,88
124800,note_on,0,0,3,,,,,,,,,2,,,54,88
124800,note_on,0,0,3,,,,,,,,,2,,,53,0
124800,note_on,160,0,3,,,,,,,,,2,,,61,0
124880,note_on,0,0,1,,,,,,,,,0,,,82,0
124880,note_on,0,0,1,,,,,,,,,0,,,85,75
124880,note_on,0,0,1,,,,,,,,,0,,,87,75
124880,note_on,80,0,1,,,,,,,,,0,,,85,0
124959,note_on,0,0,3,,,,,,,,,2,,,54,0
124959,note_on,0,0,3,,,,,,,,,2,,,53,88
124959,note_on,0,0,1,,,,,,,,,0,,,97,101
124959,note_on,0,0,1,,,,,,,,,0,,,94,101
124959,note_on,0,0,1,,,,,,,,,0,,,85,0
124959,note_on,0,0,3,,,,,,,,,2,,,58,0
124959,note_on,0,0,3,,,,,,,,,2,,,41,88
124959,note_on,159,0,3,,,,,,,,,2,,,61,0
124959,note_on,79,0,1,,,,,,,,,0,,,87,0
125040,note_on,0,0,1,,,,,,,,,0,,,94,0
125040,note_on,0,0,1,,,,,,,,,0,,,87,75
125040,note_on,0,0,1,,,,,,,,,0,,,85,75
125040,note_on,81,0,1,,,,,,,,,0,,,97,0
125120,note_on,0,0,1,,,,,,,,,0,,,94,75
125120,note_on,0,0,3,,,,,,,,,2,,,54,88
125120,note_on,0,0,3,,,,,,,,,2,,,42,88
125120,note_on,0,0,3,,,,,,,,,2,,,41,0
125120,note_on,0,0,1,,,,,,,,,0,,,85,0
125120,control_change,0,0,3,,,,,,,,,2,64,0,,
125120,note_on,161,0,3,,,,,,,,,2,,,53,0
125120,note_on,80,0,1,,,,,,,,,0,,,87,0
125120,note_on,0,0,1,,,,,,,,,0,,,97,75
125199,note_on,0,0,1,,,,,,,,,0,,,94,0
125199,note_on,0,0,1,,,,,,,,,0,,,85,75
125199,note_on,79,0,1,,,,,,,,,0,,,97,0
125199,control_change,0,0,1,,,,,,,,,0,64,0,,
125199,note_on,0,0,1,,,,,,,,,0,,,87,75
125280,note_on,81,0,1,,,,,,,,,0,,,87,0
125280,control_change,0,0,3,,,,,,,,,2,64,127,,
125280,note_on,0,0,1,,,,,,,,,0,,,85,0
125280,control_change,0,0,1,,,,,,,,,0,64,127,,
125280,note_on,0,0,3,,,,,,,,,2,,,42,0
125280,note_on,0,0,3,,,,,,,,,2,,,43,88
125280,note_on,0,0,3,,,,,,,,,2,,,55,88
125280,note_on,160,0,3,,,,,,,,,2,,,54,0
125360,note_on,80,0,1,,,,,,,,,0,,,64,62
125439,note_on,79,0,1,,,,,,,,,0,,,64,0
125439,note_on,0,0,1,,,,,,,,,0,,,66,62
125520,note_on,0,0,1,,,,,,,,,0,,,73,62
125520,note_on,0,0,1,,,,,,,,,0,,,76,62
125520,note_on,81,0,1,,,,,,,,,0,,,66,0
125600,note_on,0,0,3,,,,,,,,,2,,,64,88
125600,note_on,0,0,3,,,,,,,,,2,,,61,88
125600,note_on,0,0,3,,,,,,,,,2,,,43,0
125600,note_on,320,0,3,,,,,,,,,2,,,55,0
125600,note_on,0,0,1,,,,,,,,,0,,,73,0
125600,note_on,0,0,3,,,,,,,,,2,,,55,88
125600,note_on,0,0,1,,,,,,,,,0,,,76,62
125600,note_on,80,0,1,,,,,,,,,0,,,76,0
125679,note_on,0,0,1,,,,,,,,,0,,,78,62
125679,note_on,79,0,1,,,,,,,,,0,,,76,0
125760,note_on,0,0,1,,,,,,,,,0,,,85,75
125760,note_on,0,0,1,,,,,,,,,0,,,88,75
125760,note_on,0,0,3,,,,,,,,,2,,,64,88
125760,note_on,0,0,3,,,,,,,,,2,,,61,88
125760,note_on,0,0,3,,,,,,,,,2,,,61,0
125760,note_on,0,0,3,,,,,,,,,2,,,56,88
125760,note_on,81,0,1,,,,,,,,,0,,,78,0
125760,note_on,0,0,3,,,,,,,,,2,,,55,0
125760,note_on,160,0,3,,,,,,,,,2,,,64,0
125840,note_on,0,0,1,,,,,,,,,0,,,88,75
125840,note_on,0,0,1,,,,,,,,,0,,,85,0
125840,note_on,80,0,1,,,,,,,,,0,,,88,0
125840,note_on,0,0,1,,,,,,,,,0,,,90,75
125919,note_on,0,0,1,,,,,,,,,0,,,88,0
125919,note_on,0,0,1,,,,,,,,,0,,,100,101
125919,note_on,0,0,3,,,,,,,,,2,,,56,0
125919,note_on,0,0,3,,,,,,,,,2,,,55,88
125919,note_on,0,0,3,,,,,,,,,2,,,43,88
125919,note_on,0,0,1,,,,,,,,,0,,,97,101
125919,note_on,159,0,3,,,,,,,,,2,,,64,0
125919,note_on,79,0,1,,,,,,,,,0,,,90,0
125919,note_on,0,0,3,,,,,,,,,2,,,61,0
126000,note_on,81,0,1,,,,,,,,,0,,,100,0
126000,note_on,0,0,1,,,,,,,,,0,,,90,75
126000,note_on,0,0,1,,,,,,,,,0,,,88,75
126000,note_on,0,0,1,,,,,,,,,0,,,97,0
126080,note_on,0,0,3,,,,,,,,,2,,,44,88
126080,note_on,0,0,1,,,,,,,,,0,,,100,75
126080,note_on,0,0,3,,,,,,,,,2,,,43,0
126080,note_on,0,0,1,,,,,,,,,0,,,97,75
126080,note_on,80,0,1,,,,,,,,,0,,,90,0
126080,note_on,0,0,3,,,,,,,,,2,,,56,88
126080,note_on,161,0,3,,,,,,,,,2,,,55,0
126080,control_change,0,0,3,,,,,,,,,2,64,0,,
126080,note_on,0,0,1,,,,,,,,,0,,,88,0
126159,control_change,0,0,1,,,,,,,,,0,64,0,,
126159,note_on,79,0,1,,,,,,,,,0,,,100,0
126159,note_on,0,0,1,,,,,,,,,0,,,88,75
126159,note_on,0,0,1,,,,,,,,,0,,,90,75
126159,note_on,0,0,1,,,,,,,,,0,,,97,0
126240,control_change,0,0,1,,,,,,,,,0,64,127,,
126240,control_change,0,0,3,,,,,,,,,2,64,127,,
126240,note_on,81,0,1,,,,,,,,,0,,,90,0
126240,note_on,0,0,3,,,,,,,,,2,,,44,0
126240,note_on,0,0,3,,,,,,,,,2,,,45,88
126240,note_on,0,0,3,,,,,,,,,2,,,57,88
126240,note_on,160,0,3,,,,,,,,,2,,,56,0
126240,note_on,0,0,1,,,,,,,,,0,,,88,0
126320,note_on,80,0,1,,,,,,,,,0,,,64,62
126399,note_on,0,0,1,,,,,,,,,0,,,66,62
126399,note_on,0,0,3,,,,,,,,,2,,,45,0
126399,note_on,159,0,3,,,,,,,,,2,,,57,0
126399,note_on,79,0,1,,,,,,,,,0,,,64,0
126480,note_on,81,0,1,,,,,,,,,0,,,66,0
126480,note_on,0,0,1,,,,,,,,,0,,,76,62
126480,note_on,0,0,1,,,,,,,,,0,,,73,62
126560,note_on,0,0,1,,,,,,,,,0,,,76,62
126560,note_on,0,0,1,,,,,,,,,0,,,73,0
126560,note_on,0,0,3,,,,,,,,,2,,,61,88
126560,note_on,80,0,1,,,,,,,,,0,,,76,0
126560,note_on,161,0,3,,,,,,,,,2,,,57,88
126560,note_on,0,0,3,,,,,,,,,2,,,64,88
126639,note_on,79,0,1,,,,,,,,,0,,,76,0
126639,note_on,0,0,1,,,,,,,,,0,,,78,62
126720,note_on,0,0,3,,,,,,,,,2,,,57,0
126720,note_on,0,0,3,,,,,,,,,2,,,58,88
126720,note_on,0,0,3,,,,,,,,,2,,,61,0
126720,note_on,0,0,3,,,,,,,,,2,,,67,88
126720,note_on,0,0,1,,,,,,,,,0,,,85,75
126720,note_on,0,0,1,,,,,,,,,0,,,88,75
126720,note_on,81,0,1,,,,,,,,,0,,,78,0
126720,note_on,160,0,3,,,,,,,,,2,,,64,0
126720,note_on,0,0,3,,,,,,,,,2,,,64,88
126800,note_on,0,0,1,,,,,,,,,0,,,90,75
126800,note_on,80,0,1,,,,,,,,,0,,,88,0
126800,note_on,0,0,1,,,,,,,,,0,,,85,0
126800,note_on,0,0,1,,,,,,,,,0,,,88,75
126879,note_on,0,0,3,,,,,,,,,2,,,57,88
126879,note_on,0,0,3,,,,,,,,,2,,,58,0
126879,note_on,0,0,3,,,,,,,,,2,,,64,0
126879,note_on,0,0,3,,,,,,,,,2,,,45,88
126879,note_on,0,0,1,,,,,,,,,0,,,88,0
126879,note_on,0,0,1,,,,,,,,,0,,,97,101
126879,note_on,0,0,1,,,,,,,,,0,,,100,101
126879,note_on,79,0,1,,,,,,,,,0,,,90,0
126879,note_on,159,0,3,,,,,,,,,2,,,67,0
126960,note_on,0,0,1,,,,,,,,,0,,,90,75
126960,note_on,0,0,1,,,,,,,,,0,,,88,75
126960,note_on,81,0,1,,,,,,,,,0,,,100,0
126960,note_on,0,0,1,,,,,,,,,0,,,97,0
127040,note_on,80,0,1,,,,,,,,,0,,,90,0
127040,note_on,0,0,1,,,,,,,,,0,,,88,0
127040,note_on,0,0,3,,,,,,,,,2,,,58,88
127040,note_on,0,0,3,,,,,,,,,2,,,46,88
127040,note_on,0,0,3,,,,,,,,,2,,,45,0
127040,note_on,0,0,1,,,,,,,,,0,,,100,75
127040,note_on,161,0,3,,,,,,,,,2,,,57,0
127040,control_change,0,0,3,,,,,,,,,2,64,0,,
127040,note_on,0,0,1,,,,,,,,,0,,,97,75
127119,note_on,0,0,1,,,,,,,,,0,,,97,0
127119,note_on,0,0,1,,,,,,,,,0,,,90,75
127119,note_on,0,0,1,,,,,,,,,0,,,88,75
127119,control_change,0,0,1,,,,,,,,,0,64,0,,
127119,note_on,79,0,1,,,,,,,,,0,,,100,0
127200,note_on,0,0,3,,,,,,,,,2,,,47,88
127200,note_on,0,0,3,,,,,,,,,2,,,46,0
127200,note_on,0,0,3,,,,,,,,,2,,,59,88
127200,note_on,0,0,1,,,,,,,,,0,,,88,0
127200,control_change,0,0,3,,,,,,,,,2,64,127,,
127200,note_on,160,0,3,,,,,,,,,2,,,58,0
127200,note_on,81,0,1,,,,,,,,,0,,,90,0
127280,control_change,80,0,1,,,,,,,,,0,64,127,,
127280,note_on,0,0,1,,,,,,,,,0,,,67,75
127359,note_on,0,0,3,,,,,,,,,2,,,47,0
127359,note_on,0,0,1,,,,,,,,,0,,,69,75
127359,note_on,79,0,1,,,,,,,,,0,,,67,0
127359,note_on,159,0,3,,,,,,,,,2,,,59,0
127440,note_on,81,0,1,,,,,,,,,0,,,69,0
127440,note_on,0,0,1,,,,,,,,,0,,,79,75
127440,note_on,0,0,1,,,,,,,,,0,,,76,75
127520,note_on,80,0,1,,,,,,,,,0,,,79,0
127520,note_on,161,0,3,,,,,,,,,2,,,59,88
127520,note_on,0,0,3,,,,,,,,,2,,,67,88
127520,note_on,0,0,1,,,,,,,,,0,,,79,75
127520,note_on,0,0,1,,,,,,,,,0,,,76,0
127520,note_on,0,0,3,,,,,,,,,2,,,64,88
127599,note_on,79,0,1,,,,,,,,,0,,,79,0
127599,note_on,0,0,1,,,,,,,,,0,,,81,75
127680,note_on,0,0,3,,,,,,,,,2,,,64,88
127680,note_on,0,0,3,,,,,,,,,2,,,59,0
127680,note_on,0,0,3,,,,,,,,,2,,,67,88
127680,note_on,160,0,3,,,,,,,,,2,,,67,0
127680,note_on,81,0,1,,,,,,,,,0,,,81,0
127680,note_on,0,0,3,,,,,,,,,2,,,60,88
127680,note_on,0,0,1,,,,,,,,,0,,,103,75
127680,note_on,0,0,1,,,,,,,,,0,,,100,75
127680,note_on,0,0,3,,,,,,,,,2,,,64,0
127760,note_on,80,0,1,,,,,,,,,0,,,103,0
127760,note_on,0,0,1,,,,,,,,,0,,,100,0
127760,note_on,0,0,1,,,,,,,,,0,,,93,75
127760,note_on,0,0,1,,,,,,,,,0,,,91,75
127839,note_on,0,0,3,,,,,,,,,2,,,59,88
127839,note_on,0,0,3,,,,,,,,,2,,,64,0
127839,note_on,0,0,3,,,,,,,,,2,,,47,88
127839,note_on,0,0,3,,,,,,,,,2,,,60,0
127839,note_on,79,0,1,,,,,,,,,0,,,93,0
127839,note_on,159,0,3,,,,,,,,,2,,,67,0
127839,note_on,0,0,1,,,,,,,,,0,,,91,0
127839,note_on,0,0,1,,,,,,,,,0,,,100,75
127839,note_on,0,0,1,,,,,,,,,0,,,103,75
127920,note_on,81,0,1,,,,,,,,,0,,,103,0
127920,note_on,0,0,1,,,,,,,,,0,,,100,0
127920,note_on,0,0,1,,,,,,,,,0,,,93,75
127920,note_on,0,0,1,,,,,,,,,0,,,91,75
128000,note_on,0,0,1,,,,,,,,,0,,,100,75
128000,note_on,0,0,3,,,,,,,,,2,,,60,88
128000,note_on,0,0,3,,,,,,,,,2,,,47,0
128000,control_change,0,0,3,,,,,,,,,2,64,0,,
128000,note_on,161,0,3,,,,,,,,,2,,,59,0
128000,note_on,0,0,3,,,,,,,,,2,,,48,88
128000,note_on,80,0,1,,,,,,,,,0,,,93,0
128000,note_on,0,0,1,,,,,,,,,0,,,103,75
128000,note_on,0,0,1,,,,,,,,,0,,,91,0
128079,note_on,0,0,1,,,,,,,,,0,,,100,0
128079,note_on,0,0,1,,,,,,,,,0,,,93,75
128079,control_change,0,0,1,,,,,,,,,0,64,0,,
128079,note_on,0,0,1,,,,,,,,,0,,,91,75
128079,note_on,79,0,1,,,,,,,,,0,,,103,0
128160,note_on,0,0,3,,,,,,,,,2,,,61,88
128160,control_change,0,0,1,,,,,,,,,0,64,127,,
128160,note_on,0,0,3,,,,,,,,,2,,,58,88
128160,note_on,0,0,3,,,,,,,,,2,,,49,88
128160,note_on,0,0,3,,,,,,,,,2,,,48,0
128160,note_on,0,0,1,,,,,,,,,0,,,103,88
128160,control_change,0,0,3,,,,,,,,,2,64,127,,
128160,note_on,160,0,3,,,,,,,,,2,,,60,0
128160,note_on,0,0,1,,,,,,,,,0,,,91,0
128160,note_on,0,0,1,,,,,,,,,0,,,100,88
128160,note_on,81,0,1,,,,,,,,,0,,,93,0
128160,note_on,0,0,3,,,,,,,,,2,,,52,88
128240,note_on,80,0,1,,,,,,,,,0,,,103,0
128240,note_on,0,0,1,,,,,,,,,0,,,100,0
128240,note_on,0,0,1,,,,,,,,,0,,,94,88
128319,note_on,0,0,1,,,,,,,,,0,,,91,88
128319,note_on,0,0,3,,,,,,,,,2,,,35,88
128319,note_on,0,0,3,,,,,,,,,2,,,47,88
128319,note_on,0,0,3,,,,,,,,,2,,,49,0
128319,note_on,0,0,3,,,,,,,,,2,,,52,0
128319,note_on,0,0,3,,,,,,,,,2,,,58,0
128319,note_on,159,0,3,,,,,,,,,2,,,61,0
128319,note_on,79,0,1,,,,,,,,,0,,,94,0
128400,note_on,81,0,1,,,,,,,,,0,,,91,0
128400,note_on,0,0,1,,,,,,,,,0,,,94,88
128480,note_on,80,0,1,,,,,,,,,0,,,94,0
128480,note_on,0,0,1,,,,,,,,,0,,,103,88
128480,note_on,161,0,3,,,,,,,,,2,,,47,0
128480,note_on,0,0,3,,,,,,,,,2,,,48,88
128480,note_on,0,0,3,,,,,,,,,2,,,36,88
128480,note_on,0,0,3,,,,,,,,,2,,,35,0
128480,note_on,0,0,1,,,,,,,,,0,,,100,88
128559,note_on,0,0,1,,,,,,,,,0,,,94,88
128559,note_on,0,0,1,,,,,,,,,0,,,100,0
128559,note_on,79,0,1,,,,,,,,,0,,,103,0
128640,note_on,0,0,1,,,,,,,,,0,,,91,88
128640,note_on,160,0,3,,,,,,,,,2,,,48,0
128640,note_on,81,0,1,,,,,,,,,0,,,94,0
128640,note_on,0,0,3,,,,,,,,,2,,,37,88
128640,note_on,0,0,3,,,,,,,,,2,,,49,88
128640,note_on,0,0,3,,,,,,,,,2,,,36,0
128720,note_on,80,0,1,,,,,,,,,0,,,91,0
128720,note_on,0,0,1,,,,,,,,,0,,,94,88
128799,note_on,79,0,1,,,,,,,,,0,,,94,0
128799,note_on,159,0,3,,,,,,,,,2,,,49,0
128799,note_on,0,0,1,,,,,,,,,0,,,100,88
128799,note_on,0,0,1,,,,,,,,,0,,,103,88
128799,note_on,0,0,3,,,,,,,,,2,,,37,0
128799,note_on,0,0,3,,,,,,,,,2,,,40,88
128799,note_on,0,0,3,,,,,,,,,2,,,52,88
128880,note_on,81,0,1,,,,,,,,,0,,,103,0
128880,note_on,0,0,1,,,,,,,,,0,,,100,0
128880,note_on,0,0,1,,,,,,,,,0,,,94,88
128960,note_on,0,0,3,,,,,,,,,2,,,53,88
128960,note_on,80,0,1,,,,,,,,,0,,,94,0
128960,note_on,161,0,3,,,,,,,,,2,,,52,0
128960,note_on,0,0,1,,,,,,,,,0,,,91,88
128960,note_on,0,0,3,,,,,,,,,2,,,40,0
128960,note_on,0,0,3,,,,,,,,,2,,,41,88
129039,note_on,0,0,1,,,,,,,,,0,,,94,88
129039,note_on,79,0,1,,,,,,,,,0,,,91,0
129120,note_on,0,0,1,,,,,,,,,0,,,103,88
129120,note_on,160,0,3,,,,,,,,,2,,,53,0
129120,note_on,0,0,1,,,,,,,,,0,,,100,88
129120,note_on,0,0,3,,,,,,,,,2,,,56,88
129120,note_on,0,0,3,,,,,,,,,2,,,44,88
129120,note_on,81,0,1,,,,,,,,,0,,,94,0
129120,note_on,0,0,3,,,,,,,,,2,,,41,0
129200,note_on,80,0,1,,,,,,,,,0,,,103,0
129200,note_on,0,0,1,,,,,,,,,0,,,94,88
129200,note_on,0,0,1,,,,,,,,,0,,,100,0
129279,note_on,0,0,3,,,,,,,,,2,,,42,88
129279,note_on,0,0,1,,,,,,,,,0,,,91,88
129279,note_on,0,0,3,,,,,,,,,2,,,54,88
129279,note_on,159,0,3,,,,,,,,,2,,,56,0
129279,note_on,0,0,3,,,,,,,,,2,,,44,0
129279,note_on,79,0,1,,,,,,,,,0,,,94,0
129360,note_on,0,0,1,,,,,,,,,0,,,94,88
129360,note_on,81,0,1,,,,,,,,,0,,,91,0
129440,note_on,0,0,3,,,,,,,,,2,,,42,0
129440,note_on,0,0,1,,,,,,,,,0,,,100,88
129440,note_on,0,0,1,,,,,,,,,0,,,103,88
129440,note_on,161,0,3,,,,,,,,,2,,,54,0
129440,note_on,0,0,3,,,,,,,,,2,,,55,88
129440,note_on,80,0,1,,,,,,,,,0,,,94,0
129440,note_on,0,0,3,,,,,,,,,2,,,43,88
129519,note_on,0,0,1,,,,,,,,,0,,,100,0
129519,note_on,79,0,1,,,,,,,,,0,,,103,0
129519,note_on,0,0,1,,,,,,,,,0,,,94,88
129600,note_on,0,0,3,,,,,,,,,2,,,43,0
129600,note_on,0,0,3,,,,,,,,,2,,,44,88
129600,note_on,0,0,3,,,,,,,,,2,,,56,88
129600,note_on,81,0,1,,,,,,,,,0,,,94,0
129600,note_on,160,0,3,,,,,,,,,2,,,55,0
129600,note_on,0,0,1,,,,,,,,,0,,,91,88
129680,note_on,80,0,1,,,,,,,,,0,,,91,0
129680,note_on,0,0,1,,,,,,,,,0,,,94,88
129759,note_on,0,0,3,,,,,,,,,2,,,44,0
129759,note_on,79,0,1,,,,,,,,,0,,,94,0
129759,note_on,0,0,1,,,,,,,,,0,,,103,88
129759,note_on,0,0,3,,,,,,,,,2,,,57,88
129759,note_on,0,0,1,,,,,,,,,0,,,100,88
129759,note_on,159,0,3,,,,,,,,,2,,,56,0
129759,note_on,0,0,3,,,,,,,,,2,,,45,88
129840,note_on,0,0,1,,,,,,,,,0,,,100,0
129840,note_on,0,0,1,,,,,,,,,0,,,94,88
129840,note_on,81,0,1,,,,,,,,,0,,,103,0
129920,note_on,80,0,1,,,,,,,,,0,,,94,0
129920,note_on,0,0,3,,,,,,,,,2,,,45,0
129920,note_on,0,0,3,,,,,,,,,2,,,46,88
129920,note_on,0,0,3,,,,,,,,,2,,,58,88
129920,control_change,0,0,3,,,,,,,,,2,64,0,,
129920,note_on,161,0,3,,,,,,,,,2,,,57,0
129920,note_on,0,0,1,,,,,,,,,0,,,91,88
129999,note_on,79,0,1,,,,,,,,,0,,,91,0
129999,note_on,0,0,1,,,,,,,,,0,,,94,88
130080,note_on,0,0,1,,,,,,,,,0,,,103,88
130080,note_on,0,0,1,,,,,,,,,0,,,100,88
130080,note_on,160,0,3,,,,,,,,,2,,,58,0
130080,control_change,0,0,3,,,,,,,,,2,64,127,,
130080,note_on,81,0,1,,,,,,,,,0,,,94,0
130080,note_on,0,0,3,,,,,,,,,2,,,61,101
130080,note_on,0,0,3,,,,,,,,,2,,,49,101
130080,note_on,0,0,3,,,,,,,,,2,,,46,0
130160,note_on,0,0,1,,,,,,,,,0,,,94,88
130160,note_on,0,0,1,,,,,,,,,0,,,100,0
130160,note_on,80,0,1,,,,,,,,,0,,,103,0
130160,note_on,0,0,1,,,,,,,,,0,,,91,88
130239,note_on,0,0,1,,,,,,,,,0,,,103,88
130239,note_on,0,0,3,,,,,,,,,2,,,49,0
130239,note_on,0,0,1,,,,,,,,,0,,,91,0
130239,note_on,0,0,3,,,,,,,,,2,,,47,101
130239,note_on,0,0,1,,,,,,,,,0,,,100,88
130239,note_on,0,0,3,,,,,,,,,2,,,59,101
130239,note_on,79,0,1,,,,,,,,,0,,,94,0
130239,note_on,159,0,3,,,,,,,,,2,,,61,0
130320,note_on,0,0,1,,,,,,,,,0,,,94,88
130320,note_on,0,0,1,,,,,,,,,0,,,100,0
130320,note_on,0,0,1,,,,,,,,,0,,,91,88
130320,note_on,81,0,1,,,,,,,,,0,,,103,0
130400,note_on,0,0,3,,,,,,,,,2,,,60,101
130400,note_on,0,0,3,,,,,,,,,2,,,47,0
130400,note_on,80,0,1,,,,,,,,,0,,,94,0
130400,note_on,0,0,1,,,,,,,,,0,,,103,88
130400,note_on,0,0,3,,,,,,,,,2,,,48,101
130400,note_on,0,0,1,,,,,,,,,0,,,91,0
130400,note_on,0,0,1,,,,,,,,,0,,,100,88
130400,note_on,161,0,3,,,,,,,,,2,,,59,0
130479,note_on,79,0,1,,,,,,,,,0,,,103,0
130479,note_on,0,0,1,,,,,,,,,0,,,91,88
130479,note_on,0,0,1,,,,,,,,,0,,,94,88
130479,note_on,0,0,1,,,,,,,,,0,,,100,0
130560,note_on,0,0,3,,,,,,,,,2,,,48,0
130560,note_on,0,0,3,,,,,,,,,2,,,49,101
130560,note_on,0,0,1,,,,,,,,,0,,,103,88
130560,note_on,0,0,1,,,,,,,,,0,,,100,88
130560,note_on,0,0,1,,,,,,,,,0,,,91,0
130560,note_on,160,0,3,,,,,,,,,2,,,60,0
130560,note_on,0,0,3,,,,,,,,,2,,,61,101
130560,note_on,81,0,1,,,,,,,,,0,,,94,0
130640,note_on,0,0,1,,,,,,,,,0,,,91,88
130640,note_on,0,0,1,,,,,,,,,0,,,94,88
130640,note_on,0,0,1,,,,,,,,,0,,,100,0
130640,note_on,80,0,1,,,,,,,,,0,,,103,0
130719,note_on,0,0,3,,,,,,,,,2,,,49,0
130719,note_on,0,0,3,,,,,,,,,2,,,52,101
130719,note_on,0,0,3,,,,,,,,,2,,,64,101
130719,note_on,0,0,1,,,,,,,,,0,,,100,88
130719,note_on,79,0,1,,,,,,,,,0,,,94,0
130719,note_on,0,0,1,,,,,,,,,0,,,91,0
130719,note_on,0,0,1,,,,,,,,,0,,,103,88
130719,note_on,159,0,3,,,,,,,,,2,,,61,0
130800,note_on,0,0,1,,,,,,,,,0,,,94,88
130800,note_on,0,0,1,,,,,,,,,0,,,91,88
130800,note_on,0,0,1,,,,,,,,,0,,,100,0
130800,note_on,81,0,1,,,,,,,,,0,,,103,0
130880,note_on,0,0,3,,,,,,,,,2,,,53,101
130880,note_on,0,0,3,,,,,,,,,2,,,65,101
130880,note_on,161,0,3,,,,,,,,,2,,,64,0
130880,note_on,80,0,1,,,,,,,,,0,,,94,0
130880,note_on,0,0,1,,,,,,,,,0,,,91,0
130880,note_on,0,0,1,,,,,,,,,0,,,100,88
130880,note_on,0,0,1,,,,,,,,,0,,,103,88
130880,note_on,0,0,3,,,,,,,,,2,,,52,0
130959,note_on,0,0,1,,,,,,,,,0,,,100,0
130959,note_on,0,0,1,,,,,,,,,0,,,91,88
130959,note_on,0,0,1,,,,,,,,,0,,,94,88
130959,note_on,79,0,1,,,,,,,,,0,,,103,0
131040,note_on,0,0,1,,,,,,,,,0,,,91,0
131040,note_on,0,0,1,,,,,,,,,0,,,103,88
131040,note_on,160,0,3,,,,,,,,,2,,,65,0
131040,note_on,81,0,1,,,,,,,,,0,,,94,0
131040,note_on,0,0,1,,,,,,,,,0,,,100,88
131040,note_on,0,0,3,,,,,,,,,2,,,53,0
131040,note_on,0,0,3,,,,,,,,,2,,,56,101
131040,note_on,0,0,3,,,,,,,,,2,,,68,101
131120,note_on,0,0,1,,,,,,,,,0,,,91,88
131120,note_on,80,0,1,,,,,,,,,0,,,103,0
131120,note_on,0,0,1,,,,,,,,,0,,,100,0
131120,note_on,0,0,1,,,,,,,,,0,,,94,88
131199,note_on,0,0,1,,,,,,,,,0,,,100,88
131199,note_on,159,0,3,,,,,,,,,2,,,68,0
131199,note_on,0,0,3,,,,,,,,,2,,,56,0
131199,note_on,0,0,3,,,,,,,,,2,,,66,101
131199,note_on,0,0,3,,,,,,,,,2,,,54,101
131199,note_on,79,0,1,,,,,,,,,0,,,94,0
131199,note_on,0,0,1,,,,,,,,,0,,,91,0
131199,note_on,0,0,1,,,,,,,,,0,,,103,88
131280,note_on,0,0,1,,,,,,,,,0,,,100,0
131280,note_on,0,0,1,,,,,,,,,0,,,94,88
131280,note_on,81,0,1,,,,,,,,,0,,,103,0
131280,note_on,0,0,1,,,,,,,,,0,,,91,88
131360,note_on,0,0,1,,,,,,,,,0,,,103,88
131360,note_on,0,0,1,,,,,,,,,0,,,100,88
131360,note_on,80,0,1,,,,,,,,,0,,,94,0
131360,note_on,0,0,3,,,,,,,,,2,,,54,0
131360,note_on,0,0,3,,,,,,,,,2,,,55,101
131360,note_on,161,0,3,,,,,,,,,2,,,66,0
131360,note_on,0,0,1,,,,,,,,,0,,,91,0
131360,note_on,0,0,3,,,,,,,,,2,,,67,101
131439,note_on,0,0,1,,,,,,,,,0,,,91,88
131439,note_on,0,0,1,,,,,,,,,0,,,94,88
131439,note_on,0,0,1,,,,,,,,,0,,,100,0
131439,note_on,79,0,1,,,,,,,,,0,,,103,0
131520,note_on,0,0,3,,,,,,,,,2,,,55,0
131520,note_on,0,0,3,,,,,,,,,2,,,68,101
131520,note_on,0,0,1,,,,,,,,,0,,,91,0
131520,note_on,0,0,1,,,,,,,,,0,,,100,88
131520,note_on,0,0,1,,,,,,,,,0,,,103,88
131520,note_on,81,0,1,,,,,,,,,0,,,94,0
131520,note_on,160,0,3,,,,,,,,,2,,,67,0
131520,note_on,0,0,3,,,,,,,,,2,,,56,101
131600,note_on,0,0,1,,,,,,,,,0,,,100,0
131600,note_on,0,0,1,,,,,,,,,0,,,94,88
131600,note_on,0,0,1,,,,,,,,,0,,,91,88
131600,note_on,80,0,1,,,,,,,,,0,,,103,0
131679,note_on,159,0,3,,,,,,,,,2,,,68,0
131679,note_on,0,0,3,,,,,,,,,2,,,57,101
131679,note_on,0,0,3,,,,,,,,,2,,,56,0
131679,note_on,0,0,3,,,,,,,,,2,,,69,101
131679,note_on,0,0,1,,,,,,,,,0,,,100,88
131679,note_on,0,0,1,,,,,,,,,0,,,103,88
131679,note_on,0,0,1,,,,,,,,,0,,,91,0
131679,note_on,79,0,1,,,,,,,,,0,,,94,0
131760,note_on,0,0,1,,,,,,,,,0,,,94,88
131760,note_on,0,0,1,,,,,,,,,0,,,91,88
131760,note_on,81,0,1,,,,,,,,,0,,,103,0
131760,note_on,0,0,1,,,,,,,,,0,,,100,0
131840,control_change,0,0,3,,,,,,,,,2,64,0,,
131840,note_on,0,0,1,,,,,,,,,0,,,91,0
131840,note_on,0,0,1,,,,,,,,,0,,,100,88
131840,note_on,161,0,3,,,,,,,,,2,,,69,0
131840,note_on,0,0,1,,,,,,,,,0,,,103,88
131840,note_on,80,0,1,,,,,,,,,0,,,94,0
131840,note_on,0,0,3,,,,,,,,,2,,,57,0
131840,note_on,0,0,3,,,,,,,,,2,,,58,101
131840,note_on,0,0,3,,,,,,,,,2,,,70,101
131910,note_on,70,0,3,,,,,,,,,2,,,61,101
131919,note_on,0,0,1,,,,,,,,,0,,,94,88
131919,note_on,0,0,1,,,,,,,,,0,,,100,0
131919,control_change,0,0,1,,,,,,,,,0,64,0,,
131919,note_on,79,0,1,,,,,,,,,0,,,103,0
131919,note_on,0,0,1,,,,,,,,,0,,,91,88
131940,note_on,30,0,3,,,,,,,,,2,,,64,101
131970,note_on,30,0,3,,,,,,,,,2,,,70,101
132000,note_on,0,0,1,,,,,,,,,0,,,91,0
132000,note_on,0,0,1,,,,,,,,,0,,,100,114
132000,note_on,0,0,1,,,,,,,,,0,,,103,114
132000,control_change,0,0,1,,,,,,,,,0,64,127,,
132000,note_on,30,0,3,,,,,,,,,2,,,70,0
132000,note_on,81,0,1,,,,,,,,,0,,,94,0
132000,note_on,0,0,3,,,,,,,,,2,,,73,101
132000,note_on,0,0,3,,,,,,,,,2,,,58,0
132159,note_on,0,0,1,,,,,,,,,0,,,100,0
132159,note_on,159,0,1,,,,,,,,,0,,,103,0
132320,note_on,161,0,1,,,,,,,,,0,,,59,75
132399,note_on,79,0,1,,,,,,,,,0,,,59,0
132399,note_on,0,0,1,,,,,,,,,0,,,60,75
132480,note_on,81,0,1,,,,,,,,,0,,,60,0
132480,note_on,0,0,1,,,,,,,,,0,,,61,75
132495,note_on,15,0,1,,,,,,,,,0,,,61,0
132560,note_on,65,0,1,,,,,,,,,0,,,64,75
132639,note_on,79,0,1,,,,,,,,,0,,,64,0
132639,note_on,0,0,1,,,,,,,,,0,,,65,75
132720,note_on,81,0,1,,,,,,,,,0,,,65,0
132720,note_on,0,0,1,,,,,,,,,0,,,68,75
132800,note_on,80,0,1,,,,,,,,,0,,,68,0
132800,note_on,0,0,1,,,,,,,,,0,,,66,75
132879,note_on,79,0,1,,,,,,,,,0,,,66,0
132879,note_on,0,0,1,,,,,,,,,0,,,67,75
132960,note_on,0,0,1,,,,,,,,,0,,,68,75
132960,note_on,960,0,3,,,,,,,,,2,,,73,0
132960,note_on,81,0,1,,,,,,,,,0,,,67,0
132960,note_on,0,0,3,,,,,,,,,2,,,61,0
132960,note_on,0,0,3,,,,,,,,,2,,,64,0
132960,note_on,0,0,3,,,,,,,,,2,,,70,0
132975,note_on,15,0,1,,,,,,,,,0,,,68,0
133040,note_on,65,0,1,,,,,,,,,0,,,69,75
133119,note_on,79,0,1,,,,,,,,,0,,,69,0
133119,note_on,0,0,1,,,,,,,,,0,,,70,75
133200,note_on,81,0,1,,,,,,,,,0,,,70,0
133200,note_on,0,0,1,,,,,,,,,0,,,73,75
133280,note_on,80,0,1,,,,,,,,,0,,,73,0
133280,note_on,0,0,1,,,,,,,,,0,,,71,75
133359,note_on,79,0,1,,,,,,,,,0,,,71,0
133359,note_on,0,0,1,,,,,,,,,0,,,72,75
133440,note_on,0,0,1,,,,,,,,,0,,,73,75
133440,note_on,81,0,1,,,,,,,,,0,,,72,0
133455,note_on,15,0,1,,,,,,,,,0,,,73,0
133520,note_on,65,0,1,,,,,,,,,0,,,76,75
133599,note_on,0,0,1,,,,,,,,,0,,,77,75
133599,note_on,79,0,1,,,,,,,,,0,,,76,0
133680,note_on,81,0,1,,,,,,,,,0,,,77,0
133680,note_on,0,0,1,,,,,,,,,0,,,80,75
133760,note_on,80,0,1,,,,,,,,,0,,,80,0
133760,note_on,0,0,1,,,,,,,,,0,,,78,75
133839,note_on,79,0,1,,,,,,,,,0,,,78,0
133839,note_on,0,0,1,,,,,,,,,0,,,79,75
133839,control_change,0,0,1,,,,,,,,,0,64,0,,
133920,note_on,81,0,1,,,,,,,,,0,,,79,0
133920,note_on,0,0,1,,,,,,,,,0,,,80,75
133935,note_on,15,0,1,,,,,,,,,0,,,80,0
134000,note_on,65,0,1,,,,,,,,,0,,,81,75
134079,note_on,0,0,1,,,,,,,,,0,,,82,75
134079,note_on,79,0,1,,,,,,,,,0,,,81,0
134160,note_on,81,0,1,,,,,,,,,0,,,82,0
134160,note_on,0,0,1,,,,,,,,,0,,,85,75
134240,note_on,0,0,1,,,,,,,,,0,,,83,75
134240,note_on,80,0,1,,,,,,,,,0,,,85,0
134319,note_on,0,0,1,,,,,,,,,0,,,84,75
134319,note_on,79,0,1,,,,,,,,,0,,,83,0
134400,note_on,0,0,1,,,,,,,,,0,,,85,88
134400,note_on,81,0,1,,,,,,,,,0,,,84,0
134415,note_on,15,0,1,,,,,,,,,0,,,85,0
134480,note_on,65,0,1,,,,,,,,,0,,,88,88
134559,note_on,0,0,1,,,,,,,,,0,,,89,88
134559,note_on,79,0,1,,,,,,,,,0,,,88,0
134640,note_on,0,0,1,,,,,,,,,0,,,92,88
134640,note_on,81,0,1,,,,,,,,,0,,,89,0
134720,note_on,0,0,1,,,,,,,,,0,,,90,88
134720,note_on,80,0,1,,,,,,,,,0,,,92,0
134799,note_on,79,0,1,,,,,,,,,0,,,90,0
134799,note_on,0,0,1,,,,,,,,,0,,,91,88
134880,note_on,0,0,1,,,,,,,,,0,,,92,88
134880,note_on,81,0,1,,,,,,,,,0,,,91,0
134895,note_on,15,0,1,,,,,,,,,0,,,92,0
134960,note_on,65,0,1,,,,,,,,,0,,,93,88
135039,note_on,79,0,1,,,,,,,,,0,,,93,0
135039,note_on,0,0,1,,,,,,,,,0,,,94,88
135120,note_on,0,0,1,,,,,,,,,0,,,97,88
135120,note_on,81,0,1,,,,,,,,,0,,,94,0
135200,note_on,80,0,1,,,,,,,,,0,,,97,0
135200,note_on,0,0,1,,,,,,,,,0,,,91,88
135279,note_on,0,0,1,,,,,,,,,0,,,92,88
135279,note_on,79,0,1,,,,,,,,,0,,,91,0
135360,note_on,81,0,1,,,,,,,,,0,,,92,0
135360,note_on,0,0,1,,,,,,,,,0,,,93,101
135375,note_on,15,0,1,,,,,,,,,0,,,93,0
135440,note_on,65,0,1,,,,,,,,,0,,,93,101
135519,note_on,79,0,1,,,,,,,,,0,,,93,0
135519,note_on,0,0,1,,,,,,,,,0,,,94,101
135600,note_on,81,0,1,,,,,,,,,0,,,94,0
135600,note_on,0,0,1,,,,,,,,,0,,,97,101
135680,note_on,0,0,1,,,,,,,,,0,,,92,101
135680,note_on,80,0,1,,,,,,,,,0,,,97,0
135759,control_change,0,0,1,,,,,,,,,0,64,0,,
135759,note_on,79,0,1,,,,,,,,,0,,,92,0
135759,note_on,0,0,1,,,,,,,,,0,,,93,101
135840,note_on,0,0,1,,,,,,,,,0,,,94,101
135840,note_on,81,0,1,,,,,,,,,0,,,93,0
135840,control_change,0,0,1,,,,,,,,,0,64,127,,
135920,note_on,80,0,1,,,,,,,,,0,,,94,0
135920,note_on,0,0,1,,,,,,,,,0,,,93,101
135999,note_on,79,0,1,,,,,,,,,0,,,93,0
135999,note_on,0,0,1,,,,,,,,,0,,,94,101
136080,note_on,0,0,1,,,,,,,,,0,,,97,101
136080,note_on,81,0,1,,,,,,,,,0,,,94,0
136160,note_on,80,0,1,,,,,,,,,0,,,97,0
136160,note_on,0,0,1,,,,,,,,,0,,,93,101
136239,note_on,0,0,1,,,,,,,,,0,,,94,101
136239,note_on,79,0,1,,,,,,,,,0,,,93,0
136320,note_on,0,0,1,,,,,,,,,0,,,93,101
136320,note_on,81,0,1,,,,,,,,,0,,,94,0
136400,note_on,0,0,1,,,,,,,,,0,,,94,101
136400,note_on,80,0,1,,,,,,,,,0,,,93,0
136479,note_on,0,0,1,,,,,,,,,0,,,97,101
136479,note_on,79,0,1,,,,,,,,,0,,,94,0
136560,note_on,0,0,1,,,,,,,,,0,,,93,101
136560,note_on,81,0,1,,,,,,,,,0,,,97,0
136640,note_on,0,0,1,,,,,,,,,0,,,94,101
136640,note_on,80,0,1,,,,,,,,,0,,,93,0
136719,note_on,79,0,1,,,,,,,,,0,,,94,0
136719,note_on,0,0,1,,,,,,,,,0,,,97,101
136800,note_on,0,0,1,,,,,,,,,0,,,93,101
136800,note_on,81,0,1,,,,,,,,,0,,,97,0
136880,note_on,0,0,1,,,,,,,,,0,,,94,101
136880,note_on,80,0,1,,,,,,,,,0,,,93,0
136959,note_on,79,0,1,,,,,,,,,0,,,94,0
136959,note_on,0,0,1,,,,,,,,,0,,,97,101
137040,note_on,0,0,1,,,,,,,,,0,,,93,101
137040,note_on,81,0,1,,,,,,,,,0,,,97,0
137120,note_on,80,0,1,,,,,,,,,0,,,93,0
137120,note_on,0,0,1,,,,,,,,,0,,,94,101
137199,note_on,79,0,1,,,,,,,,,0,,,94,0
137199,note_on,0,0,1,,,,,,,,,0,,,97,101
137280,note_on,81,0,1,,,,,,,,,0,,,97,0
137280,note_on,0,0,1,,,,,,,,,0,,,93,101
137360,note_on,0,0,1,,,,,,,,,0,,,94,101
137360,note_on,80,0,1,,,,,,,,,0,,,93,0
137439,note_on,79,0,1,,,,,,,,,0,,,94,0
137439,note_on,0,0,1,,,,,,,,,0,,,97,101
137520,note_on,81,0,1,,,,,,,,,0,,,97,0
137520,note_on,0,0,1,,,,,,,,,0,,,93,101
137600,note_on,0,0,1,,,,,,,,,0,,,94,101
137600,note_on,80,0,1,,,,,,,,,0,,,93,0
137679,control_change,0,0,1,,,,,,,,,0,64,0,,
137679,note_on,0,0,1,,,,,,,,,0,,,97,101
137679,note_on,79,0,1,,,,,,,,,0,,,94,0
137760,control_change,0,0,1,,,,,,,,,0,64,127,,
137760,time_signature,27840,1,0,2,4,24,8,,,,,,,,,
137760,note_on,0,0,1,,,,,,,,,0,,,93,101
137760,note_on,81,0,1,,,,,,,,,0,,,97,0
137799,note_on,0,0,1,,,,,,,,,0,,,94,101
137799,note_on,39,0,1,,,,,,,,,0,,,93,0
137840,note_on,0,0,1,,,,,,,,,0,,,97,101
137840,note_on,41,0,1,,,,,,,,,0,,,94,0
137880,note_on,40,0,1,,,,,,,,,0,,,97,0
137880,note_on,0,0,1,,,,,,,,,0,,,93,101
137919,note_on,39,0,1,,,,,,,,,0,,,93,0
137919,note_on,0,0,1,,,,,,,,,0,,,94,101
137960,note_on,0,0,1,,,,,,,,,0,,,97,101
137960,note_on,41,0,1,,,,,,,,,0,,,94,0
138000,note_on,0,0,1,,,,,,,,,0,,,93,101
138000,note_on,40,0,1,,,,,,,,,0,,,97,0
138039,note_on,39,0,1,,,,,,,,,0,,,93,0
138039,note_on,0,0,1,,,,,,,,,0,,,94,101
138080,note_on,41,0,1,,,,,,,,,0,,,94,0
138080,note_on,0,0,1,,,,,,,,,0,,,97,101
138120,note_on,0,0,1,,,,,,,,,0,,,93,101
138120,note_on,40,0,1,,,,,,,,,0,,,97,0
138159,note_on,0,0,1,,,,,,,,,0,,,94,101
138159,note_on,39,0,1,,,,,,,,,0,,,93,0
138200,note_on,41,0,1,,,,,,,,,0,,,94,0
138200,note_on,0,0,1,,,,,,,,,0,,,97,101
138240,note_on,0,0,1,,,,,,,,,0,,,93,101
138240,note_on,40,0,1,,,,,,,,,0,,,97,0
138279,note_on,39,0,1,,,,,,,,,0,,,93,0
138279,note_on,0,0,1,,,,,,,,,0,,,94,101
138320,note_on,41,0,1,,,,,,,,,0,,,94,0
138320,note_on,0,0,1,,,,,,,,,0,,,97,101
138360,note_on,40,0,1,,,,,,,,,0,,,97,0
138360,note_on,0,0,1,,,,,,,,,0,,,93,101
138399,note_on,0,0,1,,,,,,,,,0,,,94,101
138399,note_on,39,0,1,,,,,,,,,0,,,93,0
138440,note_on,41,0,1,,,,,,,,,0,,,94,0
138440,note_on,0,0,1,,,,,,,,,0,,,97,101
138480,note_on,40,0,1,,,,,,,,,0,,,97,0
138480,note_on,0,0,1,,,,,,,,,0,,,93,101
138519,note_on,0,0,1,,,,,,,,,0,,,94,101
138519,note_on,39,0,1,,,,,,,,,0,,,93,0
138560,note_on,0,0,1,,,,,,,,,0,,,97,101
138560,note_on,41,0,1,,,,,,,,,0,,,94,0
138600,note_on,0,0,1,,,,,,,,,0,,,93,101
138600,note_on,40,0,1,,,,,,,,,0,,,97,0
138639,note_on,0,0,1,,,,,,,,,0,,,94,101
138639,note_on,39,0,1,,,,,,,,,0,,,93,0
138680,note_on,0,0,1,,,,,,,,,0,,,97,101
138680,note_on,41,0,1,,,,,,,,,0,,,94,0
138680,control_change,0,0,1,,,,,,,,,0,64,0,,
138720,control_change,0,0,1,,,,,,,,,0,64,127,,
138720,note_on,40,0,1,,,,,,,,,0,,,97,0
138720,note_on,0,0,1,,,,,,,,,0,,,93,101
138759,note_on,39,0,1,,,,,,,,,0,,,93,0
138759,note_on,0,0,1,,,,,,,,,0,,,94,101
138800,note_on,0,0,1,,,,,,,,,0,,,97,101
138800,note_on,41,0,1,,,,,,,,,0,,,94,0
138840,note_on,40,0,1,,,,,,,,,0,,,97,0
138840,note_on,0,0,1,,,,,,,,,0,,,93,101
138879,note_on,39,0,1,,,,,,,,,0,,,93,0
138879,note_on,0,0,1,,,,,,,,,0,,,94,101
138920,note_on,41,0,1,,,,,,,,,0,,,94,0
138920,note_on,0,0,1,,,,,,,,,0,,,97,101
138960,note_on,40,0,1,,,,,,,,,0,,,97,0
138960,note_on,0,0,1,,,,,,,,,0,,,93,101
138999,note_on,39,0,1,,,,,,,,,0,,,93,0
138999,note_on,0,0,1,,,,,,,,,0,,,94,101
139040,note_on,0,0,1,,,,,,,,,0,,,97,101
139040,note_on,41,0,1,,,,,,,,,0,,,94,0
139080,note_on,40,0,1,,,,,,,,,0,,,97,0
139080,note_on,0,0,1,,,,,,,,,0,,,93,101
139119,note_on,0,0,1,,,,,,,,,0,,,94,101
139119,note_on,39,0,1,,,,,,,,,0,,,93,0
139160,note_on,0,0,1,,,,,,,,,0,,,97,101
139160,note_on,41,0,1,,,,,,,,,0,,,94,0
139200,note_on,40,0,1,,,,,,,,,0,,,97,0
139200,note_on,0,0,1,,,,,,,,,0,,,93,101
139239,note_on,39,0,1,,,,,,,,,0,,,93,0
139239,note_on,0,0,1,,,,,,,,,0,,,94,101
139280,note_on,0,0,1,,,,,,,,,0,,,97,101
139280,note_on,41,0,1,,,,,,,,,0,,,94,0
139320,note_on,40,0,1,,,,,,,,,0,,,97,0
139320,note_on,0,0,1,,,,,,,,,0,,,93,101
139359,note_on,39,0,1,,,,,,,,,0,,,93,0
139359,note_on,0,0,1,,,,,,,,,0,,,94,101
139400,note_on,41,0,1,,,,,,,,,0,,,94,0
139400,note_on,0,0,1,,,,,,,,,0,,,97,101
139440,note_on,0,0,1,,,,,,,,,0,,,93,101
139440,note_on,40,0,1,,,,,,,,,0,,,97,0
139479,note_on,0,0,1,,,,,,,,,0,,,94,101
139479,note_on,39,0,1,,,,,,,,,0,,,93,0
139520,note_on,0,0,1,,,,,,,,,0,,,97,101
139520,note_on,41,0,1,,,,,,,,,0,,,94,0
139560,note_on,0,0,1,,,,,,,,,0,,,93,101
139560,note_on,40,0,1,,,,,,,,,0,,,97,0
139599,note_on,0,0,1,,,,,,,,,0,,,94,101
139599,note_on,39,0,1,,,,,,,,,0,,,93,0
139640,control_change,0,0,1,,,,,,,,,0,64,0,,
139640,note_on,0,0,1,,,,,,,,,0,,,97,101
139640,note_on,41,0,1,,,,,,,,,0,,,94,0
139680,note_on,40,0,1,,,,,,,,,0,,,97,0
139680,time_signature,1920,1,0,4,4,24,8,,,,,,,,,
139680,control_change,0,0,1,,,,,,,,,0,64,127,,
139680,note_on,0,0,1,,,,,,,,,0,,,93,101
139760,note_on,0,0,1,,,,,,,,,0,,,94,101
139760,note_on,80,0,1,,,,,,,,,0,,,93,0
139839,note_on,0,0,1,,,,,,,,,0,,,97,101
139839,note_on,79,0,1,,,,,,,,,0,,,94,0
139920,note_on,0,0,1,,,,,,,,,0,,,96,101
139920,note_on,81,0,1,,,,,,,,,0,,,97,0
140000,note_on,0,0,1,,,,,,,,,0,,,95,101
140000,note_on,80,0,1,,,,,,,,,0,,,96,0
140079,note_on,79,0,1,,,,,,,,,0,,,95,0
140079,note_on,0,0,1,,,,,,,,,0,,,94,101
140160,note_on,81,0,1,,,,,,,,,0,,,94,0
140160,note_on,0,0,1,,,,,,,,,0,,,95,88
140240,note_on,80,0,1,,,,,,,,,0,,,95,0
140240,note_on,0,0,1,,,,,,,,,0,,,94,88
140319,note_on,0,0,1,,,,,,,,,0,,,93,88
140319,note_on,79,0,1,,,,,,,,,0,,,94,0
140400,note_on,0,0,1,,,,,,,,,0,,,92,88
140400,note_on,81,0,1,,,,,,,,,0,,,93,0
140480,note_on,0,0,1,,,,,,,,,0,,,93,88
140480,note_on,80,0,1,,,,,,,,,0,,,92,0
140559,note_on,0,0,1,,,,,,,,,0,,,92,88
140559,note_on,79,0,1,,,,,,,,,0,,,93,0
140640,note_on,0,0,1,,,,,,,,,0,,,91,88
140640,note_on,81,0,1,,,,,,,,,0,,,92,0
140720,note_on,0,0,1,,,,,,,,,0,,,90,88
140720,note_on,80,0,1,,,,,,,,,0,,,91,0
140799,note_on,0,0,1,,,,,,,,,0,,,91,88
140799,note_on,79,0,1,,,,,,,,,0,,,90,0
140880,note_on,81,0,1,,,,,,,,,0,,,91,0
140880,note_on,0,0,1,,,,,,,,,0,,,90,88
140960,note_on,0,0,1,,,,,,,,,0,,,89,88
140960,note_on,80,0,1,,,,,,,,,0,,,90,0
141039,note_on,0,0,1,,,,,,,,,0,,,88,88
141039,note_on,79,0,1,,,,,,,,,0,,,89,0
141120,note_on,81,0,1,,,,,,,,,0,,,88,0
141120,note_on,0,0,1,,,,,,,,,0,,,89,75
141200,note_on,80,0,1,,,,,,,,,0,,,89,0
141200,note_on,0,0,1,,,,,,,,,0,,,88,75
141279,note_on,0,0,1,,,,,,,,,0,,,87,75
141279,note_on,79,0,1,,,,,,,,,0,,,88,0
141360,note_on,81,0,1,,,,,,,,,0,,,87,0
141360,note_on,0,0,1,,,,,,,,,0,,,86,75
141440,note_on,80,0,1,,,,,,,,,0,,,86,0
141440,note_on,0,0,1,,,,,,,,,0,,,87,75
141519,control_change,0,0,1,,,,,,,,,0,64,0,,
141519,note_on,0,0,1,,,,,,,,,0,,,86,75
141519,note_on,79,0,1,,,,,,,,,0,,,87,0
141600,control_change,0,0,1,,,,,,,,,0,64,127,,
141600,note_on,81,0,1,,,,,,,,,0,,,86,0
141600,note_on,0,0,1,,,,,,,,,0,,,85,75
141680,note_on,0,0,1,,,,,,,,,0,,,84,75
141680,note_on,80,0,1,,,,,,,,,0,,,85,0
141759,note_on,79,0,1,,,,,,,,,0,,,84,0
141759,note_on,0,0,1,,,,,,,,,0,,,85,75
141840,note_on,81,0,1,,,,,,,,,0,,,85,0
141840,note_on,0,0,1,,,,,,,,,0,,,84,75
141920,note_on,0,0,1,,,,,,,,,0,,,83,75
141920,note_on,80,0,1,,,,,,,,,0,,,84,0
141999,note_on,0,0,1,,,,,,,,,0,,,82,75
141999,note_on,79,0,1,,,,,,,,,0,,,83,0
142080,control_change,9120,0,3,,,,,,,,,2,64,127,,
142080,note_on,0,0,1,,,,,,,,,0,,,83,75
142080,note_on,81,0,1,,,,,,,,,0,,,82,0
142080,set_tempo,2400,1,0,,,,,,480000,,,,,,,
142080,note_on,0,0,3,,,,,,,,,2,,,74,75
142140,note_on,0,0,1,,,,,,,,,0,,,84,75
142140,note_on,60,0,1,,,,,,,,,0,,,83,0
142200,note_on,60,0,1,,,,,,,,,0,,,84,0
142200,note_on,0,0,1,,,,,,,,,0,,,85,75
142239,note_on,159,0,3,,,,,,,,,2,,,74,0
142239,note_on,0,0,3,,,,,,,,,2,,,80,75
142260,note_on,0,0,1,,,,,,,,,0,,,86,75
142260,note_on,60,0,1,,,,,,,,,0,,,85,0
142320,note_on,60,0,1,,,,,,,,,0,,,86,0
142320,note_on,0,0,1,,,,,,,,,0,,,87,75
142380,note_on,0,0,1,,,,,,,,,0,,,88,75
142380,note_on,60,0,1,,,,,,,,,0,,,87,0
142400,note_on,161,0,3,,,,,,,,,2,,,80,0
142400,note_on,0,0,3,,,,,,,,,2,,,77,75
142440,note_on,0,0,1,,,,,,,,,0,,,91,75
142440,note_on,60,0,1,,,,,,,,,0,,,88,0
142500,note_on,0,0,1,,,,,,,,,0,,,89,75
142500,note_on,60,0,1,,,,,,,,,0,,,91,0
142560,note_on,0,0,3,,,,,,,,,2,,,72,75
142560,note_on,60,0,1,,,,,,,,,0,,,89,0
142560,note_on,160,0,3,,,,,,,,,2,,,77,0
142560,note_on,0,0,1,,,,,,,,,0,,,88,75
142620,note_on,60,0,1,,,,,,,,,0,,,88,0
142620,note_on,0,0,1,,,,,,,,,0,,,87,75
142680,note_on,0,0,1,,,,,,,,,0,,,86,75
142680,note_on,60,0,1,,,,,,,,,0,,,87,0
142719,note_on,159,0,3,,,,,,,,,2,,,72,0
142719,note_on,0,0,3,,,,,,,,,2,,,81,75
142740,note_on,0,0,1,,,,,,,,,0,,,85,75
142740,note_on,60,0,1,,,,,,,,,0,,,86,0
142800,note_on,60,0,1,,,,,,,,,0,,,85,0
142800,note_on,0,0,1,,,,,,,,,0,,,84,75
142860,note_on,60,0,1,,,,,,,,,0,,,84,0
142860,note_on,0,0,1,,,,,,,,,0,,,83,75
142880,note_on,161,0,3,,,,,,,,,2,,,81,0
142880,note_on,0,0,3,,,,,,,,,2,,,76,75
142920,note_on,60,0,1,,,,,,,,,0,,,83,0
142920,note_on,0,0,1,,,,,,,,,0,,,82,75
142980,note_on,0,0,1,,,,,,,,,0,,,81,75
142980,note_on,60,0,1,,,,,,,,,0,,,82,0
143040,note_on,160,0,3,,,,,,,,,2,,,76,0
143040,note_on,0,0,3,,,,,,,,,2,,,71,75
143040,note_on,0,0,1,,,,,,,,,0,,,80,75
143040,note_on,60,0,1,,,,,,,,,0,,,81,0
143100,note_on,0,0,1,,,,,,,,,0,,,81,75
143100,note_on,60,0,1,,,,,,,,,0,,,80,0
143160,note_on,0,0,1,,,,,,,,,0,,,82,75
143160,note_on,60,0,1,,,,,,,,,0,,,81,0
143199,note_on,0,0,3,,,,,,,,,2,,,76,75
143199,note_on,159,0,3,,,,,,,,,2,,,71,0
143220,note_on,60,0,1,,,,,,,,,0,,,82,0
143220,note_on,0,0,1,,,,,,,,,0,,,83,75
143280,note_on,0,0,1,,,,,,,,,0,,,84,75
143280,note_on,60,0,1,,,,,,,,,0,,,83,0
143340,note_on,0,0,1,,,,,,,,,0,,,85,75
143340,note_on,60,0,1,,,,,,,,,0,,,84,0
143360,note_on,0,0,3,,,,,,,,,2,,,74,75
143360,control_change,0,0,3,,,,,,,,,2,64,0,,
143360,note_on,161,0,3,,,,,,,,,2,,,76,0
143400,note_on,60,0,1,,,,,,,,,0,,,85,0
143400,note_on,0,0,1,,,,,,,,,0,,,88,75
143460,note_on,0,0,1,,,,,,,,,0,,,86,75
143460,note_on,60,0,1,,,,,,,,,0,,,88,0
143460,control_change,0,0,1,,,,,,,,,0,64,0,,
143520,control_change,0,0,3,,,,,,,,,2,64,127,,
143520,note_on,0,0,1,,,,,,,,,0,,,85,75
143520,control_change,0,0,1,,,,,,,,,0,64,127,,
143520,note_on,160,0,3,,,,,,,,,2,,,74,0
143520,note_on,0,0,3,,,,,,,,,2,,,69,75
143520,note_on,60,0,1,,,,,,,,,0,,,86,0
143600,note_on,0,0,1,,,,,,,,,0,,,84,75
143600,note_on,80,0,1,,,,,,,,,0,,,85,0
143679,note_on,0,0,3,,,,,,,,,2,,,76,75
143679,note_on,159,0,3,,,,,,,,,2,,,69,0
143679,note_on,79,0,1,,,,,,,,,0,,,84,0
143679,note_on,0,0,1,,,,,,,,,0,,,83,75
143760,note_on,0,0,1,,,,,,,,,0,,,82,75
143760,note_on,81,0,1,,,,,,,,,0,,,83,0
143840,note_on,0,0,3,,,,,,,,,2,,,72,75
143840,note_on,0,0,1,,,,,,,,,0,,,81,75
143840,note_on,80,0,1,,,,,,,,,0,,,82,0
143840,note_on,161,0,3,,,,,,,,,2,,,76,0
143919,note_on,79,0,1,,,,,,,,,0,,,81,0
143919,note_on,0,0,1,,,,,,,,,0,,,80,75
144000,note_on,81,0,1,,,,,,,,,0,,,80,0
144000,note_on,160,0,3,,,,,,,,,2,,,72,0
144000,note_on,0,0,1,,,,,,,,,0,,,79,75
144000,note_on,0,0,3,,,,,,,,,2,,,70,75
144060,note_on,0,0,1,,,,,,,,,0,,,80,75
144060,note_on,60,0,1,,,,,,,,,0,,,79,0
144120,note_on,60,0,1,,,,,,,,,0,,,80,0
144120,note_on,0,0,1,,,,,,,,,0,,,81,75
144159,note_on,0,0,3,,,,,,,,,2,,,76,75
144159,note_on,159,0,3,,,,,,,,,2,,,70,0
144180,note_on,0,0,1,,,,,,,,,0,,,82,75
144180,note_on,60,0,1,,,,,,,,,0,,,81,0
144240,note_on,0,0,1,,,,,,,,,0,,,83,75
144240,note_on,60,0,1,,,,,,,,,0,,,82,0
144300,note_on,0,0,1,,,,,,,,,0,,,84,75
144300,note_on,60,0,1,,,,,,,,,0,,,83,0
144320,note_on,0,0,3,,,,,,,,,2,,,73,75
144320,note_on,161,0,3,,,,,,,,,2,,,76,0
144360,note_on,0,0,1,,,,,,,,,0,,,87,75
144360,note_on,60,0,1,,,,,,,,,0,,,84,0
144420,note_on,0,0,1,,,,,,,,,0,,,85,75
144420,note_on,60,0,1,,,,,,,,,0,,,87,0
144480,note_on,60,0,1,,,,,,,,,0,,,85,0
144480,note_on,0,0,3,,,,,,,,,2,,,68,75
144480,note_on,160,0,3,,,,,,,,,2,,,73,0
144480,note_on,0,0,1,,,,,,,,,0,,,84,75
144540,note_on,0,0,1,,,,,,,,,0,,,83,75
144540,note_on,60,0,1,,,,,,,,,0,,,84,0
144600,note_on,60,0,1,,,,,,,,,0,,,83,0
144600,note_on,0,0,1,,,,,,,,,0,,,82,75
144639,note_on,0,0,3,,,,,,,,,2,,,77,75
144639,note_on,159,0,3,,,,,,,,,2,,,68,0
144660,note_on,0,0,1,,,,,,,,,0,,,81,75
144660,note_on,60,0,1,,,,,,,,,0,,,82,0
144720,note_on,0,0,1,,,,,,,,,0,,,80,75
144720,note_on,60,0,1,,,,,,,,,0,,,81,0
144780,note_on,0,0,1,,,,,,,,,0,,,79,75
144780,note_on,60,0,1,,,,,,,,,0,,,80,0
144800,note_on,161,0,3,,,,,,,,,2,,,77,0
144800,note_on,0,0,3,,,,,,,,,2,,,72,75
144840,note_on,0,0,1,,,,,,,,,0,,,78,75
144840,note_on,60,0,1,,,,,,,,,0,,,79,0
144900,note_on,60,0,1,,,,,,,,,0,,,78,0
144900,note_on,0,0,1,,,,,,,,,0,,,77,75
144960,note_on,160,0,3,,,,,,,,,2,,,72,0
144960,note_on,60,0,1,,,,,,,,,0,,,77,0
144960,note_on,0,0,3,,,,,,,,,2,,,67,75
144960,note_on,0,0,1,,,,,,,,,0,,,76,75
145020,note_on,0,0,1,,,,,,,,,0,,,77,75
145020,note_on,60,0,1,,,,,,,,,0,,,76,0
145080,note_on,60,0,1,,,,,,,,,0,,,77,0
145080,note_on,0,0,1,,,,,,,,,0,,,78,75
145119,note_on,0,0,3,,,,,,,,,2,,,72,75
145119,note_on,159,0,3,,,,,,,,,2,,,67,0
145140,note_on,0,0,1,,,,,,,,,0,,,78,75
145140,note_on,60,0,1,,,,,,,,,0,,,78,0
145200,note_on,0,0,1,,,,,,,,,0,,,80,75
145200,note_on,60,0,1,,,,,,,,,0,,,78,0
145260,note_on,0,0,1,,,,,,,,,0,,,81,75
145260,note_on,60,0,1,,,,,,,,,0,,,80,0
145280,note_on,0,0,3,,,,,,,,,2,,,70,75
145280,note_on,161,0,3,,,,,,,,,2,,,72,0
145280,control_change,0,0,3,,,,,,,,,2,64,0,,
145320,note_on,60,0,1,,,,,,,,,0,,,81,0
145320,note_on,0,0,1,,,,,,,,,0,,,84,75
145380,note_on,60,0,1,,,,,,,,,0,,,84,0
145380,control_change,0,0,1,,,,,,,,,0,64,0,,
145380,note_on,0,0,1,,,,,,,,,0,,,82,75
145440,note_on,0,0,3,,,,,,,,,2,,,65,75
145440,control_change,0,0,3,,,,,,,,,2,64,127,,
145440,control_change,0,0,1,,,,,,,,,0,64,127,,
145440,note_on,160,0,3,,,,,,,,,2,,,70,0
145440,note_on,60,0,1,,,,,,,,,0,,,82,0
145440,note_on,0,0,1,,,,,,,,,0,,,81,75
145520,note_on,80,0,1,,,,,,,,,0,,,81,0
145520,note_on,0,0,1,,,,,,,,,0,,,80,75
145599,note_on,0,0,1,,,,,,,,,0,,,79,75
145599,note_on,0,0,3,,,,,,,,,2,,,72,75
145599,note_on,159,0,3,,,,,,,,,2,,,65,0
145599,note_on,79,0,1,,,,,,,,,0,,,80,0
145680,note_on,81,0,1,,,,,,,,,0,,,79,0
145680,note_on,0,0,1,,,,,,,,,0,,,78,75
145760,note_on,161,0,3,,,,,,,,,2,,,72,0
145760,note_on,0,0,3,,,,,,,,,2,,,68,75
145760,note_on,80,0,1,,,,,,,,,0,,,78,0
145760,note_on,0,0,1,,,,,,,,,0,,,77,75
145839,note_on,79,0,1,,,,,,,,,0,,,77,0
145839,note_on,0,0,1,,,,,,,,,0,,,76,75
145920,note_on,160,0,3,,,,,,,,,2,,,68,0
145920,note_on,81,0,1,,,,,,,,,0,,,76,0
145920,note_on,0,0,1,,,,,,,,,0,,,75,75
145920,note_on,0,0,3,,,,,,,,,2,,,66,75
145980,note_on,0,0,1,,,,,,,,,0,,,76,75
145980,note_on,60,0,1,,,,,,,,,0,,,75,0
146040,note_on,60,0,1,,,,,,,,,0,,,76,0
146040,note_on,0,0,1,,,,,,,,,0,,,77,75
146079,note_on,159,0,3,,,,,,,,,2,,,66,0
146079,note_on,0,0,3,,,,,,,,,2,,,72,75
146100,note_on,60,0,1,,,,,,,,,0,,,77,0
146100,note_on,0,0,1,,,,,,,,,0,,,78,75
146160,note_on,60,0,1,,,,,,,,,0,,,78,0
146160,note_on,0,0,1,,,,,,,,,0,,,79,75
146220,note_on,60,0,1,,,,,,,,,0,,,79,0
146220,note_on,0,0,1,,,,,,,,,0,,,80,75
146240,note_on,161,0,3,,,,,,,,,2,,,72,0
146240,note_on,0,0,3,,,,,,,,,2,,,69,75
146280,note_on,0,0,1,,,,,,,,,0,,,83,75
146280,note_on,60,0,1,,,,,,,,,0,,,80,0
146340,note_on,0,0,1,,,,,,,,,0,,,81,75
146340,note_on,60,0,1,,,,,,,,,0,,,83,0
146400,note_on,0,0,1,,,,,,,,,0,,,80,75
146400,note_on,160,0,3,,,,,,,,,2,,,69,0
146400,note_on,0,0,3,,,,,,,,,2,,,64,75
146400,note_on,60,0,1,,,,,,,,,0,,,81,0
146460,note_on,60,0,1,,,,,,,,,0,,,80,0
146460,note_on,0,0,1,,,,,,,,,0,,,79,75
146520,note_on,60,0,1,,,,,,,,,0,,,79,0
146520,note_on,0,0,1,,,,,,,,,0,,,78,75
146559,note_on,0,0,3,,,,,,,,,2,,,73,75
146559,note_on,159,0,3,,,,,,,,,2,,,64,0
146580,note_on,0,0,1,,,,,,,,,0,,,77,75
146580,note_on,60,0,1,,,,,,,,,0,,,78,0
146640,note_on,0,0,1,,,,,,,,,0,,,76,75
146640,note_on,60,0,1,,,,,,,,,0,,,77,0
146700,note_on,60,0,1,,,,,,,,,0,,,76,0
146700,note_on,0,0,1,,,,,,,,,0,,,75,75
146720,note_on,161,0,3,,,,,,,,,2,,,73,0
146720,note_on,0,0,3,,,,,,,,,2,,,68,75
146760,note_on,0,0,1,,,,,,,,,0,,,74,75
146760,note_on,60,0,1,,,,,,,,,0,,,75,0
146820,note_on,60,0,1,,,,,,,,,0,,,74,0
146820,note_on,0,0,1,,,,,,,,,0,,,73,75
146880,note_on,60,0,1,,,,,,,,,0,,,73,0
146880,note_on,160,0,3,,,,,,,,,2,,,68,0
146880,note_on,0,0,1,,,,,,,,,0,,,72,75
146880,note_on,0,0,3,,,,,,,,,2,,,63,75
146940,note_on,0,0,1,,,,,,,,,0,,,73,75
146940,note_on,60,0,1,,,,,,,,,0,,,72,0
147000,note_on,60,0,1,,,,,,,,,0,,,73,0
147000,note_on,0,0,1,,,,,,,,,0,,,74,75
147039,note_on,0,0,3,,,,,,,,,2,,,68,75
147039,note_on,159,0,3,,,,,,,,,2,,,63,0
147060,note_on,0,0,1,,,,,,,,,0,,,75,75
147060,note_on,60,0,1,,,,,,,,,0,,,74,0
147120,note_on,0,0,1,,,,,,,,,0,,,76,75
147120,note_on,60,0,1,,,,,,,,,0,,,75,0
147180,note_on,0,0,1,,,,,,,,,0,,,77,75
147180,note_on,60,0,1,,,,,,,,,0,,,76,0
147200,note_on,0,0,3,,,,,,,,,2,,,66,75
147200,control_change,0,0,3,,,,,,,,,2,64,0,,
147200,note_on,161,0,3,,,,,,,,,2,,,68,0
147240,note_on,60,0,1,,,,,,,,,0,,,77,0
147240,note_on,0,0,1,,,,,,,,,0,,,80,75
147300,control_change,0,0,1,,,,,,,,,0,64,0,,
147300,note_on,60,0,1,,,,,,,,,0,,,80,0
147300,note_on,0,0,1,,,,,,,,,0,,,78,75
147360,control_change,0,0,3,,,,,,,,,2,64,127,,
147360,control_change,0,0,1,,,,,,,,,0,64,127,,
147360,note_on,0,0,3,,,,,,,,,2,,,61,75
147360,note_on,60,0,1,,,,,,,,,0,,,78,0
147360,note_on,0,0,1,,,,,,,,,0,,,77,75
147360,note_on,160,0,3,,,,,,,,,2,,,66,0
147440,note_on,0,0,1,,,,,,,,,0,,,76,75
147440,note_on,80,0,1,,,,,,,,,0,,,77,0
147519,note_on,159,0,3,,,,,,,,,2,,,61,0
147519,note_on,0,0,1,,,,,,,,,0,,,75,75
147519,note_on,0,0,3,,,,,,,,,2,,,68,75
147519,note_on,79,0,1,,,,,,,,,0,,,76,0
147600,note_on,0,0,1,,,,,,,,,0,,,74,75
147600,note_on,81,0,1,,,,,,,,,0,,,75,0
147680,note_on,161,0,3,,,,,,,,,2,,,68,0
147680,note_on,0,0,1,,,,,,,,,0,,,73,75
147680,note_on,80,0,1,,,,,,,,,0,,,74,0
147680,note_on,0,0,3,,,,,,,,,2,,,64,75
147759,note_on,79,0,1,,,,,,,,,0,,,73,0
147759,note_on,0,0,1,,,,,,,,,0,,,72,75
147840,note_on,0,0,3,,,,,,,,,2,,,61,75
147840,note_on,81,0,1,,,,,,,,,0,,,72,0
147840,note_on,160,0,3,,,,,,,,,2,,,64,0
147840,note_on,0,0,1,,,,,,,,,0,,,71,75
147920,note_on,80,0,1,,,,,,,,,0,,,71,0
147920,note_on,0,0,1,,,,,,,,,0,,,72,75
147999,note_on,79,0,1,,,,,,,,,0,,,72,0
147999,note_on,0,0,1,,,,,,,,,0,,,73,75
147999,note_on,159,0,3,,,,,,,,,2,,,61,0
147999,note_on,0,0,3,,,,,,,,,2,,,68,75
148080,note_on,0,0,1,,,,,,,,,0,,,74,75
148080,note_on,81,0,1,,,,,,,,,0,,,73,0
148160,note_on,0,0,1,,,,,,,,,0,,,75,75
148160,note_on,80,0,1,,,,,,,,,0,,,74,0
148160,note_on,161,0,3,,,,,,,,,2,,,68,0
148160,note_on,0,0,3,,,,,,,,,2,,,64,75
148239,note_on,0,0,1,,,,,,,,,0,,,76,75
148239,note_on,79,0,1,,,,,,,,,0,,,75,0
148320,note_on,0,0,1,,,,,,,,,0,,,77,62
148320,note_on,81,0,1,,,,,,,,,0,,,76,0
148320,note_on,160,0,3,,,,,,,,,2,,,64,0
148320,note_on,0,0,3,,,,,,,,,2,,,61,62
148400,note_on,80,0,1,,,,,,,,,0,,,77,0
148400,note_on,0,0,1,,,,,,,,,0,,,78,62
148479,note_on,159,0,3,,,,,,,,,2,,,61,0
148479,note_on,0,0,1,,,,,,,,,0,,,79,62
148479,note_on,0,0,3,,,,,,,,,2,,,68,62
148479,note_on,79,0,1,,,,,,,,,0,,,78,0
148560,note_on,81,0,1,,,,,,,,,0,,,79,0
148560,note_on,0,0,1,,,,,,,,,0,,,80,62
148640,note_on,80,0,1,,,,,,,,,0,,,80,0
148640,note_on,0,0,3,,,,,,,,,2,,,64,62
148640,note_on,161,0,3,,,,,,,,,2,,,68,0
148640,note_on,0,0,1,,,,,,,,,0,,,81,62
148719,note_on,0,0,1,,,,,,,,,0,,,82,62
148719,note_on,79,0,1,,,,,,,,,0,,,81,0
148800,note_on,160,0,3,,,,,,,,,2,,,64,0
148800,note_on,81,0,1,,,,,,,,,0,,,82,0
148800,note_on,0,0,1,,,,,,,,,0,,,83,75
148800,note_on,0,0,3,,,,,,,,,2,,,61,75
148880,note_on,0,0,1,,,,,,,,,0,,,84,75
148880,note_on,80,0,1,,,,,,,,,0,,,83,0
148959,note_on,0,0,1,,,,,,,,,0,,,85,75
148959,note_on,0,0,3,,,,,,,,,2,,,68,75
148959,note_on,79,0,1,,,,,,,,,0,,,84,0
148959,note_on,159,0,3,,,,,,,,,2,,,61,0
149040,note_on,0,0,1,,,,,,,,,0,,,84,75
149040,note_on,81,0,1,,,,,,,,,0,,,85,0
149120,note_on,0,0,3,,,,,,,,,2,,,64,75
149120,note_on,80,0,1,,,,,,,,,0,,,84,0
149120,note_on,161,0,3,,,,,,,,,2,,,68,0
149120,note_on,0,0,1,,,,,,,,,0,,,87,75
149120,control_change,0,0,3,,,,,,,,,2,64,0,,
149199,note_on,79,0,1,,,,,,,,,0,,,87,0
149199,note_on,0,0,1,,,,,,,,,0,,,85,75
149199,control_change,0,0,1,,,,,,,,,0,64,0,,
149280,note_on,81,0,1,,,,,,,,,0,,,85,0
149280,note_on,0,0,1,,,,,,,,,0,,,83,75
149280,control_change,0,0,3,,,,,,,,,2,64,127,,
149280,control_change,0,0,1,,,,,,,,,0,64,127,,
149280,note_on,160,0,3,,,,,,,,,2,,,64,0
149280,note_on,0,0,3,,,,,,,,,2,,,61,75
149360,note_on,0,0,1,,,,,,,,,0,,,84,75
149360,note_on,80,0,1,,,,,,,,,0,,,83,0
149439,note_on,0,0,1,,,,,,,,,0,,,85,75
149439,note_on,79,0,1,,,,,,,,,0,,,84,0
149439,note_on,159,0,3,,,,,,,,,2,,,61,0
149439,note_on,0,0,3,,,,,,,,,2,,,68,75
149520,note_on,0,0,1,,,,,,,,,0,,,86,75
149520,note_on,81,0,1,,,,,,,,,0,,,85,0
149600,note_on,80,0,1,,,,,,,,,0,,,86,0
149600,note_on,0,0,1,,,,,,,,,0,,,87,75
149600,note_on,0,0,3,,,,,,,,,2,,,64,75
149600,note_on,161,0,3,,,,,,,,,2,,,68,0
149679,note_on,79,0,1,,,,,,,,,0,,,87,0
149679,note_on,0,0,1,,,,,,,,,0,,,88,75
149760,note_on,0,0,1,,,,,,,,,0,,,89,75
149760,note_on,81,0,1,,,,,,,,,0,,,88,0
149760,note_on,0,0,3,,,,,,,,,2,,,61,75
149760,note_on,160,0,3,,,,,,,,,2,,,64,0
149840,note_on,0,0,1,,,,,,,,,0,,,90,75
149840,note_on,80,0,1,,,,,,,,,0,,,89,0
149919,note_on,0,0,3,,,,,,,,,2,,,68,75
149919,note_on,159,0,3,,,,,,,,,2,,,61,0
149919,note_on,79,0,1,,,,,,,,,0,,,90,0
149919,note_on,0,0,1,,,,,,,,,0,,,91,75
150000,note_on,0,0,1,,,,,,,,,0,,,92,75
150000,note_on,81,0,1,,,,,,,,,0,,,91,0
150080,note_on,0,0,1,,,,,,,,,0,,,93,75
150080,note_on,0,0,3,,,,,,,,,2,,,64,75
150080,note_on,80,0,1,,,,,,,,,0,,,92,0
150080,note_on,161,0,3,,,,,,,,,2,,,68,0
150159,note_on,79,0,1,,,,,,,,,0,,,93,0
150159,note_on,0,0,1,,,,,,,,,0,,,94,75
150240,note_on,0,0,3,,,,,,,,,2,,,61,88
150240,note_on,160,0,3,,,,,,,,,2,,,64,0
150240,note_on,0,0,1,,,,,,,,,0,,,95,88
150240,note_on,81,0,1,,,,,,,,,0,,,94,0
150320,note_on,0,0,1,,,,,,,,,0,,,96,88
150320,note_on,80,0,1,,,,,,,,,0,,,95,0
150399,note_on,0,0,3,,,,,,,,,2,,,68,88
150399,note_on,79,0,1,,,,,,,,,0,,,96,0
150399,note_on,159,0,3,,,,,,,,,2,,,61,0
150399,note_on,0,0,1,,,,,,,,,0,,,97,88
150480,note_on,0,0,1,,,,,,,,,0,,,96,88
150480,note_on,81,0,1,,,,,,,,,0,,,97,0
150560,note_on,0,0,1,,,,,,,,,0,,,99,88
150560,note_on,80,0,1,,,,,,,,,0,,,96,0
150560,note_on,161,0,3,,,,,,,,,2,,,68,0
150560,note_on,0,0,3,,,,,,,,,2,,,64,88
150639,note_on,0,0,1,,,,,,,,,0,,,97,88
150639,note_on,79,0,1,,,,,,,,,0,,,99,0
150720,note_on,81,0,1,,,,,,,,,0,,,97,0
150720,note_on,0,0,3,,,,,,,,,2,,,61,101
150720,note_on,160,0,3,,,,,,,,,2,,,64,0
150720,note_on,0,0,1,,,,,,,,,0,,,95,101
150800,note_on,0,0,1,,,,,,,,,0,,,96,101
150800,note_on,80,0,1,,,,,,,,,0,,,95,0
150879,note_on,79,0,1,,,,,,,,,0,,,96,0
150879,note_on,159,0,3,,,,,,,,,2,,,61,0
150879,note_on,0,0,1,,,,,,,,,0,,,97,101
150879,note_on,0,0,3,,,,,,,,,2,,,69,101
150960,note_on,0,0,1,,,,,,,,,0,,,96,101
150960,note_on,81,0,1,,,,,,,,,0,,,97,0
151040,note_on,0,0,3,,,,,,,,,2,,,64,101
151040,control_change,0,0,3,,,,,,,,,2,64,0,,
151040,note_on,161,0,3,,,,,,,,,2,,,69,0
151040,note_on,80,0,1,,,,,,,,,0,,,96,0
151040,note_on,0,0,1,,,,,,,,,0,,,99,101
151119,note_on,79,0,1,,,,,,,,,0,,,99,0
151119,note_on,0,0,1,,,,,,,,,0,,,97,101
151119,control_change,0,0,1,,,,,,,,,0,64,0,,
151200,note_on,0,0,3,,,,,,,,,2,,,54,75
151200,control_change,0,0,1,,,,,,,,,0,64,127,,
151200,note_on,81,0,1,,,,,,,,,0,,,97,0
151200,note_on,0,0,1,,,,,,,,,0,,,99,75
151200,control_change,0,0,3,,,,,,,,,2,64,127,,
151200,note_on,160,0,3,,,,,,,,,2,,,64,0
151280,note_on,0,0,1,,,,,,,,,0,,,97,75
151280,note_on,80,0,1,,,,,,,,,0,,,99,0
151359,note_on,79,0,1,,,,,,,,,0,,,97,0
151359,note_on,0,0,3,,,,,,,,,2,,,64,75
151359,note_on,0,0,1,,,,,,,,,0,,,104,75
151359,note_on,159,0,3,,,,,,,,,2,,,54,0
151440,note_on,0,0,1,,,,,,,,,0,,,102,75
151440,note_on,81,0,1,,,,,,,,,0,,,104,0
151520,note_on,0,0,1,,,,,,,,,0,,,99,75
151520,note_on,0,0,3,,,,,,,,,2,,,61,75
151520,note_on,161,0,3,,,,,,,,,2,,,64,0
151520,note_on,80,0,1,,,,,,,,,0,,,102,0
151599,note_on,0,0,1,,,,,,,,,0,,,97,75
151599,note_on,79,0,1,,,,,,,,,0,,,99,0
151680,note_on,81,0,1,,,,,,,,,0,,,97,0
151680,note_on,0,0,1,,,,,,,,,0,,,94,75
151680,note_on,0,0,3,,,,,,,,,2,,,70,75
151680,note_on,160,0,3,,,,,,,,,2,,,61,0
151760,note_on,0,0,1,,,,,,,,,0,,,92,75
151760,note_on,80,0,1,,,,,,,,,0,,,94,0
151839,note_on,159,0,3,,,,,,,,,2,,,70,0
151839,note_on,0,0,1,,,,,,,,,0,,,99,75
151839,note_on,79,0,1,,,,,,,,,0,,,92,0
151839,note_on,0,0,3,,,,,,,,,2,,,64,75
151920,note_on,0,0,1,,,,,,,,,0,,,97,75
151920,note_on,81,0,1,,,,,,,,,0,,,99,0
152000,note_on,0,0,1,,,,,,,,,0,,,94,75
152000,note_on,161,0,3,,,,,,,,,2,,,64,0
152000,note_on,0,0,3,,,,,,,,,2,,,61,75
152000,note_on,80,0,1,,,,,,,,,0,,,97,0
152079,note_on,0,0,1,,,,,,,,,0,,,92,75
152079,note_on,79,0,1,,,,,,,,,0,,,94,0
152160,note_on,160,0,3,,,,,,,,,2,,,61,0
152160,note_on,0,0,1,,,,,,,,,0,,,90,75
152160,note_on,81,0,1,,,,,,,,,0,,,92,0
152160,note_on,0,0,3,,,,,,,,,2,,,54,75
152240,note_on,0,0,1,,,,,,,,,0,,,87,75
152240,note_on,80,0,1,,,,,,,,,0,,,90,0
152319,note_on,0,0,1,,,,,,,,,0,,,94,75
152319,note_on,79,0,1,,,,,,,,,0,,,87,0
152319,note_on,0,0,3,,,,,,,,,2,,,66,75
152319,note_on,159,0,3,,,,,,,,,2,,,54,0
152400,note_on,81,0,1,,,,,,,,,0,,,94,0
152400,note_on,0,0,1,,,,,,,,,0,,,92,75
152480,note_on,0,0,1,,,,,,,,,0,,,90,75
152480,note_on,80,0,1,,,,,,,,,0,,,92,0
152480,note_on,161,0,3,,,,,,,,,2,,,66,0
152480,note_on,0,0,3,,,,,,,,,2,,,63,75
152559,note_on,0,0,1,,,,,,,,,0,,,87,75
152559,note_on,79,0,1,,,,,,,,,0,,,90,0
152640,note_on,0,0,1,,,,,,,,,0,,,85,75
152640,note_on,0,0,3,,,,,,,,,2,,,71,75
152640,note_on,81,0,1,,,,,,,,,0,,,87,0
152640,note_on,160,0,3,,,,,,,,,2,,,63,0
152720,note_on,80,0,1,,,,,,,,,0,,,85,0
152720,note_on,0,0,1,,,,,,,,,0,,,83,75
152799,note_on,159,0,3,,,,,,,,,2,,,71,0
152799,note_on,79,0,1,,,,,,,,,0,,,83,0
152799,note_on,0,0,3,,,,,,,,,2,,,66,75
152799,note_on,0,0,1,,,,,,,,,0,,,90,75
152880,note_on,0,0,1,,,,,,,,,0,,,87,75
152880,note_on,81,0,1,,,,,,,,,0,,,90,0
152960,control_change,0,0,3,,,,,,,,,2,64,0,,
152960,note_on,161,0,3,,,,,,,,,2,,,66,0
152960,note_on,80,0,1,,,,,,,,,0,,,87,0
152960,note_on,0,0,3,,,,,,,,,2,,,63,75
152960,note_on,0,0,1,,,,,,,,,0,,,82,75
153039,note_on,79,0,1,,,,,,,,,0,,,82,0
153039,note_on,0,0,1,,,,,,,,,0,,,83,75
153039,control_change,0,0,1,,,,,,,,,0,64,0,,
153120,note_on,160,0,3,,,,,,,,,2,,,63,0
153120,note_on,0,0,3,,,,,,,,,2,,,54,75
153120,note_on,0,0,1,,,,,,,,,0,,,87,75
153120,control_change,0,0,1,,,,,,,,,0,64,127,,
153120,control_change,0,0,3,,,,,,,,,2,64,127,,
153120,note_on,81,0,1,,,,,,,,,0,,,83,0
153200,note_on,80,0,1,,,,,,,,,0,,,87,0
153200,note_on,0,0,1,,,,,,,,,0,,,85,75
153279,note_on,0,0,3,,,,,,,,,2,,,64,75
153279,note_on,0,0,1,,,,,,,,,0,,,92,75
153279,note_on,79,0,1,,,,,,,,,0,,,85,0
153279,note_on,159,0,3,,,,,,,,,2,,,54,0
153360,note_on,0,0,1,,,,,,,,,0,,,90,75
153360,note_on,81,0,1,,,,,,,,,0,,,92,0
153440,note_on,80,0,1,,,,,,,,,0,,,90,0
153440,note_on,161,0,3,,,,,,,,,2,,,64,0
153440,note_on,0,0,1,,,,,,,,,0,,,87,75
153440,note_on,0,0,3,,,,,,,,,2,,,61,75
153519,note_on,79,0,1,,,,,,,,,0,,,87,0
153519,note_on,0,0,1,,,,,,,,,0,,,85,75
153600,note_on,160,0,3,,,,,,,,,2,,,61,0
153600,note_on,0,0,3,,,,,,,,,2,,,70,75
153600,note_on,0,0,1,,,,,,,,,0,,,82,75
153600,note_on,81,0,1,,,,,,,,,0,,,85,0
153680,note_on,80,0,1,,,,,,,,,0,,,82,0
153680,note_on,0,0,1,,,,,,,,,0,,,80,75
153759,note_on,159,0,3,,,,,,,,,2,,,70,0
153759,note_on,0,0,3,,,,,,,,,2,,,64,75
153759,note_on,79,0,1,,,,,,,,,0,,,80,0
153759,note_on,0,0,1,,,,,,,,,0,,,87,75
153840,note_on,81,0,1,,,,,,,,,0,,,87,0
153840,note_on,0,0,1,,,,,,,,,0,,,85,75
153920,note_on,80,0,1,,,,,,,,,0,,,85,0
153920,note_on,0,0,3,,,,,,,,,2,,,61,75
153920,note_on,0,0,1,,,,,,,,,0,,,82,75
153920,note_on,161,0,3,,,,,,,,,2,,,64,0
153999,note_on,0,0,1,,,,,,,,,0,,,80,75
153999,note_on,79,0,1,,,,,,,,,0,,,82,0
154080,note_on,81,0,1,,,,,,,,,0,,,80,0
154080,note_on,0,0,1,,,,,,,,,0,,,78,75
154080,note_on,0,0,3,,,,,,,,,2,,,54,75
154080,note_on,160,0,3,,,,,,,,,2,,,61,0
154160,note_on,0,0,1,,,,,,,,,0,,,75,75
154160,note_on,80,0,1,,,,,,,,,0,,,78,0
154239,note_on,0,0,1,,,,,,,,,0,,,82,75
154239,note_on,159,0,3,,,,,,,,,2,,,54,0
154239,note_on,79,0,1,,,,,,,,,0,,,75,0
154239,note_on,0,0,3,,,,,,,,,2,,,66,75
154320,note_on,0,0,1,,,,,,,,,0,,,80,75
154320,note_on,81,0,1,,,,,,,,,0,,,82,0
154400,note_on,0,0,3,,,,,,,,,2,,,63,75
154400,note_on,161,0,3,,,,,,,,,2,,,66,0
154400,note_on,80,0,1,,,,,,,,,0,,,80,0
154400,note_on,0,0,1,,,,,,,,,0,,,78,75
154479,note_on,79,0,1,,,,,,,,,0,,,78,0
154479,note_on,0,0,1,,,,,,,,,0,,,75,75
154560,note_on,81,0,1,,,,,,,,,0,,,75,0
154560,note_on,160,0,3,,,,,,,,,2,,,63,0
154560,note_on,0,0,3,,,,,,,,,2,,,71,75
154640,note_on,80,0,1,,,,,,,,,0,,,73,75
154719,note_on,159,0,3,,,,,,,,,2,,,71,0
154719,note_on,0,0,1,,,,,,,,,0,,,75,75
154719,note_on,79,0,1,,,,,,,,,0,,,73,0
154719,note_on,0,0,3,,,,,,,,,2,,,66,75
154800,note_on,81,0,1,,,,,,,,,0,,,75,0
154800,note_on,0,0,1,,,,,,,,,0,,,78,75
154880,control_change,0,0,3,,,,,,,,,2,64,0,,
154880,note_on,0,0,1,,,,,,,,,0,,,70,75
154880,note_on,161,0,3,,,,,,,,,2,,,66,0
154880,note_on,80,0,1,,,,,,,,,0,,,78,0
154880,note_on,0,0,3,,,,,,,,,2,,,63,75
154959,control_change,0,0,1,,,,,,,,,0,64,0,,
154959,note_on,79,0,1,,,,,,,,,0,,,70,0
154959,note_on,0,0,1,,,,,,,,,0,,,71,75
155040,note_on,81,0,1,,,,,,,,,0,,,71,0
155040,note_on,0,0,1,,,,,,,,,0,,,70,75
155040,note_on,0,0,1,,,,,,,,,0,,,75,75
155040,control_change,0,0,1,,,,,,,,,0,64,127,,
155040,note_on,160,0,3,,,,,,,,,2,,,63,0
155040,control_change,0,0,3,,,,,,,,,2,64,127,,
155040,note_on,0,0,3,,,,,,,,,2,,,54,75
155108,note_on,0,0,1,,,,,,,,,0,,,73,75
155108,note_on,68,0,1,,,,,,,,,0,,,75,0
155108,note_on,0,0,1,,,,,,,,,0,,,70,0
155177,note_on,69,0,1,,,,,,,,,0,,,73,0
155177,note_on,0,0,1,,,,,,,,,0,,,69,75
155199,note_on,0,0,3,,,,,,,,,2,,,64,75
155199,note_on,159,0,3,,,,,,,,,2,,,54,0
155245,note_on,68,0,1,,,,,,,,,0,,,69,0
155245,note_on,0,0,1,,,,,,,,,0,,,70,75
155314,note_on,0,0,1,,,,,,,,,0,,,71,75
155314,note_on,69,0,1,,,,,,,,,0,,,70,0
155360,note_on,161,0,3,,,,,,,,,2,,,64,0
155360,note_on,0,0,3,,,,,,,,,2,,,61,75
155382,note_on,68,0,1,,,,,,,,,0,,,71,0
155382,note_on,0,0,1,,,,,,,,,0,,,72,75
155451,note_on,69,0,1,,,,,,,,,0,,,72,0
155451,note_on,0,0,1,,,,,,,,,0,,,73,75
155520,note_on,160,0,3,,,,,,,,,2,,,61,0
155520,note_on,69,0,1,,,,,,,,,0,,,73,0
155520,note_on,0,0,1,,,,,,,,,0,,,74,75
155520,note_on,0,0,3,,,,,,,,,2,,,54,75
155588,note_on,0,0,1,,,,,,,,,0,,,75,75
155588,note_on,68,0,1,,,,,,,,,0,,,74,0
155657,note_on,69,0,1,,,,,,,,,0,,,75,0
155657,note_on,0,0,1,,,,,,,,,0,,,76,75
155679,note_on,159,0,3,,,,,,,,,2,,,54,0
155679,note_on,0,0,3,,,,,,,,,2,,,64,75
155679,note_on,0,0,3,,,,,,,,,2,,,70,75
155725,note_on,0,0,1,,,,,,,,,0,,,77,75
155725,note_on,68,0,1,,,,,,,,,0,,,76,0
155794,note_on,69,0,1,,,,,,,,,0,,,77,0
155794,note_on,0,0,1,,,,,,,,,0,,,78,75
155840,note_on,0,0,3,,,,,,,,,2,,,61,75
155840,note_on,0,0,3,,,,,,,,,2,,,64,0
155840,note_on,161,0,3,,,,,,,,,2,,,70,0
155862,note_on,0,0,1,,,,,,,,,0,,,79,75
155862,note_on,68,0,1,,,,,,,,,0,,,78,0
155931,note_on,0,0,1,,,,,,,,,0,,,80,75
155931,note_on,69,0,1,,,,,,,,,0,,,79,0
156000,note_on,160,0,3,,,,,,,,,2,,,61,0
156000,note_on,0,0,3,,,,,,,,,2,,,53,75
156000,note_on,0,0,1,,,,,,,,,0,,,81,75
156000,note_on,69,0,1,,,,,,,,,0,,,80,0
156068,note_on,0,0,1,,,,,,,,,0,,,82,75
156068,note_on,68,0,1,,,,,,,,,0,,,81,0
156137,note_on,69,0,1,,,,,,,,,0,,,82,0
156137,note_on,0,0,1,,,,,,,,,0,,,87,75
156159,note_on,159,0,3,,,,,,,,,2,,,53,0
156159,note_on,0,0,3,,,,,,,,,2,,,65,75
156159,note_on,0,0,3,,,,,,,,,2,,,70,75
156205,note_on,0,0,1,,,,,,,,,0,,,85,75
156205,note_on,68,0,1,,,,,,,,,0,,,87,0
156274,note_on,0,0,1,,,,,,,,,0,,,81,75
156274,note_on,69,0,1,,,,,,,,,0,,,85,0
156320,note_on,0,0,3,,,,,,,,,2,,,65,0
156320,note_on,0,0,3,,,,,,,,,2,,,61,75
156320,note_on,161,0,3,,,,,,,,,2,,,70,0
156342,note_on,0,0,1,,,,,,,,,0,,,82,75
156342,note_on,68,0,1,,,,,,,,,0,,,81,0
156411,note_on,69,0,1,,,,,,,,,0,,,82,0
156411,note_on,0,0,1,,,,,,,,,0,,,83,75
156480,note_on,160,0,3,,,,,,,,,2,,,61,0
156480,note_on,0,0,1,,,,,,,,,0,,,84,75
156480,note_on,69,0,1,,,,,,,,,0,,,83,0
156480,note_on,0,0,3,,,,,,,,,2,,,52,75
156548,note_on,0,0,1,,,,,,,,,0,,,85,75
156548,note_on,68,0,1,,,,,,,,,0,,,84,0
156617,note_on,69,0,1,,,,,,,,,0,,,85,0
156617,note_on,0,0,1,,,,,,,,,0,,,86,75
156639,note_on,159,0,3,,,,,,,,,2,,,52,0
156639,note_on,0,0,3,,,,,,,,,2,,,70,75
156639,note_on,0,0,3,,,,,,,,,2,,,67,75
156685,note_on,0,0,1,,,,,,,,,0,,,87,75
156685,note_on,68,0,1,,,,,,,,,0,,,86,0
156754,note_on,0,0,1,,,,,,,,,0,,,88,75
156754,note_on,69,0,1,,,,,,,,,0,,,87,0
156800,note_on,0,0,3,,,,,,,,,2,,,67,0
156800,note_on,161,0,3,,,,,,,,,2,,,70,0
156800,control_change,0,0,3,,,,,,,,,2,64,0,,
156800,note_on,0,0,3,,,,,,,,,2,,,61,75
156822,note_on,68,0,1,,,,,,,,,0,,,88,0
156822,note_on,0,0,1,,,,,,,,,0,,,89,75
156891,note_on,69,0,1,,,,,,,,,0,,,89,0
156891,control_change,0,0,1,,,,,,,,,0,64,0,,
156891,note_on,0,0,1,,,,,,,,,0,,,90,75
156960,control_change,0,0,1,,,,,,,,,0,64,127,,
156960,note_on,69,0,1,,,,,,,,,0,,,90,0
156960,note_on,160,0,3,,,,,,,,,2,,,61,0
156960,note_on,0,0,3,,,,,,,,,2,,,53,75
156960,note_on,0,0,1,,,,,,,,,0,,,91,75
156960,control_change,0,0,3,,,,,,,,,2,64,127,,
157040,note_on,80,0,1,,,,,,,,,0,,,91,0
157040,note_on,0,0,1,,,,,,,,,0,,,92,75
157119,note_on,159,0,3,,,,,,,,,2,,,53,0
157119,note_on,0,0,1,,,,,,,,,0,,,83,75
157119,note_on,0,0,3,,,,,,,,,2,,,68,75
157119,note_on,79,0,1,,,,,,,,,0,,,92,0
157200,set_tempo,15120,1,0,,,,,,468750,,,,,,,
157200,note_on,81,0,1,,,,,,,,,0,,,83,0
157200,note_on,0,0,1,,,,,,,,,0,,,84,75
157280,note_on,80,0,1,,,,,,,,,0,,,84,0
157280,note_on,161,0,3,,,,,,,,,2,,,68,0
157280,note_on,0,0,3,,,,,,,,,2,,,65,75
157280,note_on,0,0,1,,,,,,,,,0,,,91,75
157359,note_on,0,0,1,,,,,,,,,0,,,92,75
157359,note_on,79,0,1,,,,,,,,,0,,,91,0
157440,note_on,0,0,3,,,,,,,,,2,,,60,88
157440,note_on,81,0,1,,,,,,,,,0,,,92,0
157440,note_on,0,0,1,,,,,,,,,0,,,88,88
157440,set_tempo,240,1,0,,,,,,458015,,,,,,,
157440,note_on,160,0,3,,,,,,,,,2,,,65,0
157520,note_on,80,0,1,,,,,,,,,0,,,88,0
157520,note_on,0,0,1,,,,,,,,,0,,,89,88
157599,note_on,0,0,1,,,,,,,,,0,,,95,88
157599,note_on,159,0,3,,,,,,,,,2,,,60,0
157599,note_on,79,0,1,,,,,,,,,0,,,89,0
157599,note_on,0,0,3,,,,,,,,,2,,,68,88
157680,note_on,81,0,1,,,,,,,,,0,,,95,0
157680,set_tempo,240,1,0,,,,,,447761,,,,,,,
157680,note_on,0,0,1,,,,,,,,,0,,,96,88
157760,note_on,80,0,1,,,,,,,,,0,,,96,0
157760,note_on,0,0,3,,,,,,,,,2,,,65,88
157760,note_on,161,0,3,,,,,,,,,2,,,68,0
157760,note_on,0,0,1,,,,,,,,,0,,,91,88
157839,note_on,79,0,1,,,,,,,,,0,,,91,0
157839,note_on,0,0,1,,,,,,,,,0,,,92,88
157920,note_on,0,0,3,,,,,,,,,2,,,51,88
157920,note_on,0,0,1,,,,,,,,,0,,,100,88
157920,note_on,160,0,3,,,,,,,,,2,,,65,0
157920,note_on,81,0,1,,,,,,,,,0,,,92,0
157920,set_tempo,240,1,0,,,,,,434783,,,,,,,
158000,note_on,0,0,1,,,,,,,,,0,,,101,88
158000,note_on,80,0,1,,,,,,,,,0,,,100,0
158079,note_on,0,0,1,,,,,,,,,0,,,93,88
158079,note_on,79,0,1,,,,,,,,,0,,,101,0
158079,note_on,0,0,3,,,,,,,,,2,,,68,88
158079,note_on,159,0,3,,,,,,,,,2,,,51,0
158160,set_tempo,240,1,0,,,,,,425532,,,,,,,
158160,note_on,0,0,1,,,,,,,,,0,,,94,88
158160,note_on,81,0,1,,,,,,,,,0,,,93,0
158240,note_on,161,0,3,,,,,,,,,2,,,68,0
158240,note_on,0,0,1,,,,,,,,,0,,,100,88
158240,note_on,0,0,3,,,,,,,,,2,,,65,88
158240,note_on,80,0,1,,,,,,,,,0,,,94,0
158319,note_on,79,0,1,,,,,,,,,0,,,100,0
158319,note_on,0,0,1,,,,,,,,,0,,,101,88
158400,note_on,0,0,1,,,,,,,,,0,,,94,88
158400,note_on,0,0,3,,,,,,,,,2,,,60,88
158400,note_on,81,0,1,,,,,,,,,0,,,101,0
158400,note_on,160,0,3,,,,,,,,,2,,,65,0
158400,set_tempo,240,1,0,,,,,,416667,,,,,,,
158480,note_on,0,0,1,,,,,,,,,0,,,95,88
158480,note_on,80,0,1,,,,,,,,,0,,,94,0
158559,note_on,0,0,3,,,,,,,,,2,,,68,88
158559,note_on,79,0,1,,,,,,,,,0,,,95,0
158559,note_on,159,0,3,,,,,,,,,2,,,60,0
158559,note_on,0,0,1,,,,,,,,,0,,,100,88
158640,note_on,0,0,1,,,,,,,,,0,,,101,88
158640,set_tempo,240,1,0,,,,,,408163,,,,,,,
158640,note_on,81,0,1,,,,,,,,,0,,,100,0
158720,note_on,80,0,1,,,,,,,,,0,,,101,0
158720,note_on,161,0,3,,,,,,,,,2,,,68,0
158720,note_on,0,0,1,,,,,,,,,0,,,95,88
158720,note_on,0,0,3,,,,,,,,,2,,,65,88
158799,note_on,0,0,1,,,,,,,,,0,,,96,88
158799,note_on,79,0,1,,,,,,,,,0,,,95,0
158880,note_on,0,0,3,,,,,,,,,2,,,50,88
158880,set_tempo,240,1,0,,,,,,465116,,,,,,,
158880,note_on,0,0,1,,,,,,,,,0,,,100,88
158880,note_on,160,0,3,,,,,,,,,2,,,65,0
158880,note_on,81,0,1,,,,,,,,,0,,,96,0
158960,note_on,80,0,1,,,,,,,,,0,,,100,0
158960,note_on,0,0,1,,,,,,,,,0,,,101,88
159039,note_on,79,0,1,,,,,,,,,0,,,101,0
159039,note_on,0,0,1,,,,,,,,,0,,,95,88
159120,note_on,0,0,1,,,,,,,,,0,,,96,88
159120,note_on,81,0,1,,,,,,,,,0,,,95,0
159200,note_on,0,0,1,,,,,,,,,0,,,91,88
159200,note_on,80,0,1,,,,,,,,,0,,,96,0
159279,note_on,0,0,1,,,,,,,,,0,,,92,88
159279,note_on,79,0,1,,,,,,,,,0,,,91,0
159280,note_on,400,0,3,,,,,,,,,2,,,60,88
159320,note_on,40,0,3,,,,,,,,,2,,,65,88
159360,note_on,0,0,1,,,,,,,,,0,,,88,88
159360,note_on,40,0,3,,,,,,,,,2,,,50,0
159360,note_on,81,0,1,,,,,,,,,0,,,92,0
159360,note_on,0,0,3,,,,,,,,,2,,,68,88
159440,note_on,0,0,1,,,,,,,,,0,,,89,88
159440,note_on,80,0,1,,,,,,,,,0,,,88,0
159519,note_on,0,0,1,,,,,,,,,0,,,83,88
159519,note_on,79,0,1,,,,,,,,,0,,,89,0
159600,note_on,81,0,1,,,,,,,,,0,,,83,0
159600,note_on,0,0,1,,,,,,,,,0,,,84,88
159680,note_on,80,0,1,,,,,,,,,0,,,84,0
159680,note_on,0,0,1,,,,,,,,,0,,,79,88
159759,note_on,79,0,1,,,,,,,,,0,,,79,0
159759,note_on,0,0,1,,,,,,,,,0,,,80,88
159840,note_on,0,0,3,,,,,,,,,2,,,60,0
159840,note_on,81,0,1,,,,,,,,,0,,,80,0
159840,note_on,0,0,1,,,,,,,,,0,,,76,88
159840,note_on,0,0,3,,,,,,,,,2,,,65,0
159840,note_on,480,0,3,,,,,,,,,2,,,68,0
159920,note_on,80,0,1,,,,,,,,,0,,,76,0
159920,note_on,0,0,1,,,,,,,,,0,,,77,88
159999,note_on,0,0,1,,,,,,,,,0,,,71,88
159999,note_on,79,0,1,,,,,,,,,0,,,77,0
160080,note_on,0,0,1,,,,,,,,,0,,,72,88
160080,note_on,81,0,1,,,,,,,,,0,,,71,0
160160,note_on,80,0,1,,,,,,,,,0,,,72,0
160160,note_on,0,0,1,,,,,,,,,0,,,67,88
160239,note_on,79,0,1,,,,,,,,,0,,,67,0
160239,note_on,0,0,1,,,,,,,,,0,,,68,88
160320,control_change,480,0,3,,,,,,,,,2,64,0,,
160320,note_on,81,0,1,,,,,,,,,0,,,68,0
160320,note_on,0,0,1,,,,,,,,,0,,,64,88
160400,note_on,80,0,1,,,,,,,,,0,,,64,0
160400,note_on,0,0,1,,,,,,,,,0,,,65,88
160479,note_on,0,0,1,,,,,,,,,0,,,67,88
160479,note_on,79,0,1,,,,,,,,,0,,,65,0
160560,note_on,0,0,1,,,,,,,,,0,,,68,88
160560,note_on,81,0,1,,,,,,,,,0,,,67,0
160640,note_on,0,0,1,,,,,,,,,0,,,71,88
160640,note_on,80,0,1,,,,,,,,,0,,,68,0
160719,note_on,0,0,1,,,,,,,,,0,,,72,88
160719,note_on,79,0,1,,,,,,,,,0,,,71,0
160719,control_change,0,0,1,,,,,,,,,0,64,0,,
160800,note_on,81,0,1,,,,,,,,,0,,,72,0
160800,control_change,480,0,3,,,,,,,,,2,64,127,,
160800,note_on,0,0,3,,,,,,,,,2,,,37,88
160800,control_change,0,0,1,,,,,,,,,0,64,127,,
160800,note_on,0,0,1,,,,,,,,,0,,,103,88
160800,note_on,0,0,1,,,,,,,,,0,,,100,88
160800,time_signature,1920,1,0,6,4,24,8,,,,,,,,,
160880,note_on,80,0,1,,,,,,,,,0,,,103,0
160880,note_on,0,0,1,,,,,,,,,0,,,100,0
160880,note_on,0,0,1,,,,,,,,,0,,,101,88
160880,note_on,0,0,1,,,,,,,,,0,,,104,88
160959,note_on,79,0,1,,,,,,,,,0,,,104,0
160959,note_on,0,0,1,,,,,,,,,0,,,100,88
160959,note_on,0,0,1,,,,,,,,,0,,,96,88
160959,note_on,0,0,1,,,,,,,,,0,,,101,0
161040,note_on,81,0,1,,,,,,,,,0,,,100,0
161040,set_tempo,240,1,0,,,,,,487805,,,,,,,
161040,note_on,0,0,1,,,,,,,,,0,,,96,0
161040,note_on,0,0,1,,,,,,,,,0,,,97,88
161040,note_on,0,0,1,,,,,,,,,0,,,101,88
161120,note_on,0,0,1,,,,,,,,,0,,,91,88
161120,note_on,0,0,1,,,,,,,,,0,,,94,88
161120,note_on,80,0,1,,,,,,,,,0,,,101,0
161120,note_on,0,0,1,,,,,,,,,0,,,97,0
161199,note_on,0,0,1,,,,,,,,,0,,,95,88
161199,note_on,79,0,1,,,,,,,,,0,,,94,0
161199,note_on,0,0,1,,,,,,,,,0,,,91,0
161199,note_on,0,0,1,,,,,,,,,0,,,92,88
161200,note_on,400,0,3,,,,,,,,,2,,,53,88
161240,note_on,40,0,3,,,,,,,,,2,,,59,88
161280,note_on,40,0,3,,,,,,,,,2,,,37,0
161280,set_tempo,240,1,0,,,,,,512821,,,,,,,
161280,note_on,81,0,1,,,,,,,,,0,,,95,0
161280,note_on,0,0,3,,,,,,,,,2,,,68,88
161280,note_on,0,0,1,,,,,,,,,0,,,88,88
161280,note_on,0,0,1,,,,,,,,,0,,,91,88
161280,note_on,0,0,1,,,,,,,,,0,,,92,0
161360,note_on,0,0,1,,,,,,,,,0,,,92,88
161360,note_on,0,0,1,,,,,,,,,0,,,88,0
161360,note_on,80,0,1,,,,,,,,,0,,,91,0
161360,note_on,0,0,1,,,,,,,,,0,,,89,88
161439,note_on,0,0,1,,,,,,,,,0,,,84,88
161439,note_on,0,0,1,,,,,,,,,0,,,88,88
161439,note_on,79,0,1,,,,,,,,,0,,,92,0
161439,note_on,0,0,1,,,,,,,,,0,,,89,0
161520,note_on,0,0,1,,,,,,,,,0,,,89,88
161520,note_on,0,0,1,,,,,,,,,0,,,84,0
161520,set_tempo,240,1,0,,,,,,540541,,,,,,,
161520,note_on,81,0,1,,,,,,,,,0,,,88,0
161520,note_on,0,0,1,,,,,,,,,0,,,85,88
161600,note_on,0,0,1,,,,,,,,,0,,,82,88
161600,note_on,0,0,1,,,,,,,,,0,,,85,0
161600,note_on,80,0,1,,,,,,,,,0,,,89,0
161600,note_on,0,0,1,,,,,,,,,0,,,79,88
161679,note_on,0,0,1,,,,,,,,,0,,,79,0
161679,note_on,79,0,1,,,,,,,,,0,,,82,0
161679,note_on,0,0,1,,,,,,,,,0,,,83,88
161679,note_on,0,0,1,,,,,,,,,0,,,80,88
161760,note_on,81,0,1,,,,,,,,,0,,,83,0
161760,set_tempo,240,1,0,,,,,,582524,,,,,,,
161760,note_on,0,0,1,,,,,,,,,0,,,80,0
161760,note_on,0,0,1,,,,,,,,,0,,,76,88
161760,note_on,0,0,1,,,,,,,,,0,,,79,88
161840,note_on,0,0,1,,,,,,,,,0,,,80,88
161840,note_on,0,0,1,,,,,,,,,0,,,76,0
161840,note_on,0,0,1,,,,,,,,,0,,,77,88
161840,note_on,80,0,1,,,,,,,,,0,,,79,0
161919,note_on,0,0,1,,,,,,,,,0,,,72,88
161919,note_on,79,0,1,,,,,,,,,0,,,80,0
161919,note_on,0,0,1,,,,,,,,,0,,,76,88
161919,note_on,0,0,1,,,,,,,,,0,,,77,0
162000,set_tempo,240,1,0,,,,,,618557,,,,,,,
162000,note_on,81,0,1,,,,,,,,,0,,,76,0
162000,note_on,0,0,1,,,,,,,,,0,,,73,88
162000,note_on,0,0,1,,,,,,,,,0,,,72,0
162000,note_on,0,0,1,,,,,,,,,0,,,77,88
162080,note_on,80,0,1,,,,,,,,,0,,,77,0
162080,note_on,0,0,1,,,,,,,,,0,,,67,88
162080,note_on,0,0,1,,,,,,,,,0,,,70,88
162080,note_on,0,0,1,,,,,,,,,0,,,73,0
162159,note_on,0,0,1,,,,,,,,,0,,,71,88
162159,note_on,0,0,1,,,,,,,,,0,,,67,0
162159,note_on,79,0,1,,,,,,,,,0,,,70,0
162159,note_on,0,0,1,,,,,,,,,0,,,68,88
162240,set_tempo,240,1,0,,,,,,659341,,,,,,,
162240,note_on,960,0,3,,,,,,,,,2,,,68,0
162240,note_on,81,0,1,,,,,,,,,0,,,71,0
162240,note_on,0,0,1,,,,,,,,,0,,,67,75
162240,note_on,0,0,1,,,,,,,,,0,,,68,0
162240,note_on,0,0,3,,,,,,,,,2,,,53,0
162240,note_on,0,0,3,,,,,,,,,2,,,59,0
162240,note_on,0,0,1,,,,,,,,,0,,,64,75
162360,note_on,0,0,1,,,,,,,,,0,,,64,0
162360,note_on,0,0,1,,,,,,,,,0,,,65,75
162360,note_on,0,0,1,,,,,,,,,0,,,68,75
162360,note_on,120,0,1,,,,,,,,,0,,,67,0
162480,note_on,0,0,1,,,,,,,,,0,,,65,0
162480,note_on,0,0,1,,,,,,,,,0,,,66,75
162480,note_on,0,0,1,,,,,,,,,0,,,69,75
162480,note_on,120,0,1,,,,,,,,,0,,,68,0
162480,set_tempo,240,1,0,,,,,,705882,,,,,,,
162600,note_on,120,0,1,,,,,,,,,0,,,69,0
162600,note_on,0,0,1,,,,,,,,,0,,,67,75
162600,note_on,0,0,1,,,,,,,,,0,,,66,0
162600,note_on,0,0,1,,,,,,,,,0,,,70,75
162720,note_on,38400,0,2,,,,,,,,,1,,,68,75
162720,set_tempo,240,1,0,,,,,,779221,,,,,,,
162720,note_on,0,0,1,,,,,,,,,0,,,67,0
162720,note_on,0,0,1,,,,,,,,,0,,,71,75
162720,note_on,120,0,1,,,,,,,,,0,,,70,0
162840,note_on,120,0,1,,,,,,,,,0,,,71,0
162840,note_on,0,0,1,,,,,,,,,0,,,71,75
162879,note_on,0,0,1,,,,,,,,,0,,,72,75
162879,note_on,39,0,1,,,,,,,,,0,,,71,0
162920,note_on,41,0,1,,,,,,,,,0,,,72,0
162920,note_on,0,0,1,,,,,,,,,0,,,71,75
162960,note_on,0,0,1,,,,,,,,,0,,,70,75
162960,note_on,40,0,1,,,,,,,,,0,,,71,0
162999,note_on,0,0,1,,,,,,,,,0,,,71,75
162999,note_on,39,0,1,,,,,,,,,0,,,70,0
163040,note_on,41,0,1,,,,,,,,,0,,,71,0
163040,note_on,0,0,1,,,,,,,,,0,,,71,75
163080,note_on,40,0,1,,,,,,,,,0,,,71,0
163080,note_on,0,0,1,,,,,,,,,0,,,77,75
163200,note_on,480,0,2,,,,,,,,,1,,,68,0
163200,control_change,960,0,3,,,,,,,,,2,64,0,,
163560,control_change,0,0,1,,,,,,,,,0,64,0,,
163560,note_on,0,0,1,,,,,,,,,0,,,71,75
163560,note_on,480,0,1,,,,,,,,,0,,,77,0
163680,note_on,120,0,1,,,,,,,,,0,,,71,0
163680,note_on,0,0,1,,,,,,,,,0,,,73,62
163680,note_on,0,0,3,,,,,,,,,2,,,36,62
163680,control_change,480,0,3,,,,,,,,,2,64,127,,
163680,time_signature,960,1,0,4,4,24,8,,,,,,,,,
163680,note_on,0,0,2,,,,,,,,,1,,,68,62
163680,note_on,480,0,2,,,,,,,,,1,,,65,62
163680,control_change,0,0,1,,,,,,,,,0,64,127,,
163760,note_on,0,0,1,,,,,,,,,0,,,72,62
163760,note_on,80,0,1,,,,,,,,,0,,,73,0
163839,note_on,79,0,1,,,,,,,,,0,,,72,0
163839,note_on,0,0,1,,,,,,,,,0,,,71,62
163920,note_on,81,0,1,,,,,,,,,0,,,71,0
163920,note_on,0,0,1,,,,,,,,,0,,,72,62
164000,note_on,80,0,1,,,,,,,,,0,,,72,0
164000,note_on,0,0,1,,,,,,,,,0,,,71,62
164079,note_on,79,0,1,,,,,,,,,0,,,71,0
164079,note_on,0,0,1,,,,,,,,,0,,,72,62
164160,note_on,0,0,1,,,,,,,,,0,,,73,62
164160,note_on,81,0,1,,,,,,,,,0,,,72,0
164160,set_tempo,480,1,0,,,,,,480000,,,,,,,
164160,note_on,480,0,3,,,,,,,,,2,,,36,0
164160,note_on,0,0,3,,,,,,,,,2,,,56,62
164228,note_on,0,0,1,,,,,,,,,0,,,74,62
164228,note_on,68,0,1,,,,,,,,,0,,,73,0
164297,note_on,0,0,1,,,,,,,,,0,,,75,62
164297,note_on,69,0,1,,,,,,,,,0,,,74,0
164319,note_on,159,0,3,,,,,,,,,2,,,56,0
164319,note_on,0,0,3,,,,,,,,,2,,,65,62
164365,note_on,0,0,1,,,,,,,,,0,,,76,62
164365,note_on,68,0,1,,,,,,,,,0,,,75,0
164434,note_on,0,0,1,,,,,,,,,0,,,79,62
164434,note_on,69,0,1,,,,,,,,,0,,,76,0
164480,note_on,0,0,3,,,,,,,,,2,,,60,62
164480,note_on,161,0,3,,,,,,,,,2,,,65,0
164502,note_on,68,0,1,,,,,,,,,0,,,79,0
164502,note_on,0,0,1,,,,,,,,,0,,,77,62
164571,note_on,69,0,1,,,,,,,,,0,,,77,0
164571,note_on,0,0,1,,,,,,,,,0,,,76,62
164640,note_on,0,0,1,,,,,,,,,0,,,75,62
164640,note_on,69,0,1,,,,,,,,,0,,,76,0
164640,note_on,160,0,3,,,,,,,,,2,,,60,0
164640,note_on,0,0,3,,,,,,,,,2,,,55,62
164708,note_on,0,0,1,,,,,,,,,0,,,74,62
164708,note_on,68,0,1,,,,,,,,,0,,,75,0
164777,note_on,69,0,1,,,,,,,,,0,,,74,0
164777,note_on,0,0,1,,,,,,,,,0,,,73,62
164799,note_on,159,0,3,,,,,,,,,2,,,55,0
164799,note_on,0,0,3,,,,,,,,,2,,,63,62
164845,note_on,0,0,1,,,,,,,,,0,,,72,62
164845,note_on,68,0,1,,,,,,,,,0,,,73,0
164914,note_on,69,0,1,,,,,,,,,0,,,72,0
164914,note_on,0,0,1,,,,,,,,,0,,,71,62
164960,note_on,161,0,3,,,,,,,,,2,,,63,0
164960,note_on,0,0,3,,,,,,,,,2,,,58,62
164982,note_on,68,0,1,,,,,,,,,0,,,71,0
164982,note_on,0,0,1,,,,,,,,,0,,,70,62
165051,note_on,69,0,1,,,,,,,,,0,,,70,0
165051,note_on,0,0,1,,,,,,,,,0,,,69,62
165120,note_on,160,0,3,,,,,,,,,2,,,58,0
165120,note_on,0,0,1,,,,,,,,,0,,,68,62
165120,note_on,0,0,3,,,,,,,,,2,,,53,62
165120,note_on,69,0,1,,,,,,,,,0,,,69,0
165188,note_on,68,0,1,,,,,,,,,0,,,68,0
165188,note_on,0,0,1,,,,,,,,,0,,,69,62
165257,note_on,0,0,1,,,,,,,,,0,,,70,62
165257,note_on,69,0,1,,,,,,,,,0,,,69,0
165279,note_on,0,0,3,,,,,,,,,2,,,61,62
165279,note_on,159,0,3,,,,,,,,,2,,,53,0
165325,note_on,0,0,1,,,,,,,,,0,,,71,62
165325,note_on,68,0,1,,,,,,,,,0,,,70,0
165394,note_on,69,0,1,,,,,,,,,0,,,71,0
165394,note_on,0,0,1,,,,,,,,,0,,,72,62
165440,note_on,161,0,3,,,,,,,,,2,,,61,0
165440,control_change,0,0,3,,,,,,,,,2,64,0,,
165440,note_on,0,0,3,,,,,,,,,2,,,56,62
165462,note_on,0,0,1,,,,,,,,,0,,,75,62
165462,note_on,68,0,1,,,,,,,,,0,,,72,0
165531,note_on,69,0,1,,,,,,,,,0,,,75,0
165531,control_change,0,0,1,,,,,,,,,0,64,0,,
165531,note_on,0,0,1,,,,,,,,,0,,,73,62
165600,note_on,0,0,3,,,,,,,,,2,,,52,62
165600,control_change,0,0,3,,,,,,,,,2,64,127,,
165600,note_on,69,0,1,,,,,,,,,0,,,73,0
165600,note_on,0,0,1,,,,,,,,,0,,,72,62
165600,control_change,0,0,1,,,,,,,,,0,64,127,,
165600,note_on,0,0,2,,,,,,,,,1,,,65,0
165600,note_on,1920,0,2,,,,,,,,,1,,,68,0
165600,note_on,160,0,3,,,,,,,,,2,,,56,0
165680,note_on,0,0,1,,,,,,,,,0,,,71,62
165680,note_on,80,0,1,,,,,,,,,0,,,72,0
165759,note_on,79,0,1,,,,,,,,,0,,,71,0
165759,note_on,0,0,1,,,,,,,,,0,,,70,62
165759,note_on,159,0,3,,,,,,,,,2,,,52,0
165759,note_on,0,0,3,,,,,,,,,2,,,60,62
165840,note_on,81,0,1,,,,,,,,,0,,,70,0
165840,note_on,0,0,1,,,,,,,,,0,,,69,62
165920,note_on,0,0,3,,,,,,,,,2,,,55,62
165920,note_on,80,0,1,,,,,,,,,0,,,69,0
165920,note_on,0,0,1,,,,,,,,,0,,,68,62
165920,note_on,161,0,3,,,,,,,,,2,,,60,0
165999,note_on,79,0,1,,,,,,,,,0,,,68,0
165999,note_on,0,0,1,,,,,,,,,0,,,67,62
166080,note_on,0,0,3,,,,,,,,,2,,,51,62
166080,note_on,160,0,3,,,,,,,,,2,,,55,0
166080,note_on,81,0,1,,,,,,,,,0,,,67,0
166080,note_on,0,0,1,,,,,,,,,0,,,66,62
166148,note_on,0,0,1,,,,,,,,,0,,,65,62
166148,note_on,68,0,1,,,,,,,,,0,,,66,0
166217,note_on,0,0,1,,,,,,,,,0,,,64,62
166217,note_on,69,0,1,,,,,,,,,0,,,65,0
166239,note_on,159,0,3,,,,,,,,,2,,,51,0
166239,note_on,0,0,3,,,,,,,,,2,,,60,62
166285,note_on,68,0,1,,,,,,,,,0,,,64,0
166285,note_on,0,0,1,,,,,,,,,0,,,65,62
166354,note_on,0,0,1,,,,,,,,,0,,,66,62
166354,note_on,69,0,1,,,,,,,,,0,,,65,0
166400,note_on,0,0,3,,,,,,,,,2,,,57,62
166400,note_on,161,0,3,,,,,,,,,2,,,60,0
166422,note_on,0,0,1,,,,,,,,,0,,,67,62
166422,note_on,68,0,1,,,,,,,,,0,,,66,0
166491,note_on,0,0,1,,,,,,,,,0,,,68,62
166491,note_on,69,0,1,,,,,,,,,0,,,67,0
166560,note_on,0,0,1,,,,,,,,,0,,,69,62
166560,note_on,0,0,3,,,,,,,,,2,,,50,62
166560,note_on,69,0,1,,,,,,,,,0,,,68,0
166560,note_on,160,0,3,,,,,,,,,2,,,57,0
166640,note_on,80,0,1,,,,,,,,,0,,,69,0
166640,note_on,0,0,1,,,,,,,,,0,,,70,62
166719,note_on,159,0,3,,,,,,,,,2,,,50,0
166719,note_on,0,0,1,,,,,,,,,0,,,71,62
166719,note_on,0,0,3,,,,,,,,,2,,,58,62
166719,note_on,79,0,1,,,,,,,,,0,,,70,0
166800,note_on,0,0,1,,,,,,,,,0,,,72,62
166800,note_on,81,0,1,,,,,,,,,0,,,71,0
166880,note_on,161,0,3,,,,,,,,,2,,,58,0
166880,note_on,0,0,1,,,,,,,,,0,,,73,62
166880,note_on,80,0,1,,,,,,,,,0,,,72,0
166880,note_on,0,0,3,,,,,,,,,2,,,53,62
166959,note_on,0,0,1,,,,,,,,,0,,,74,62
166959,note_on,79,0,1,,,,,,,,,0,,,73,0
167040,note_on,160,0,3,,,,,,,,,2,,,53,0
167040,note_on,0,0,1,,,,,,,,,0,,,75,75
167040,note_on,0,0,3,,,,,,,,,2,,,49,75
167040,note_on,81,0,1,,,,,,,,,0,,,74,0
167108,note_on,68,0,1,,,,,,,,,0,,,75,0
167108,note_on,0,0,1,,,,,,,,,0,,,76,75
167177,note_on,0,0,1,,,,,,,,,0,,,77,75
167177,note_on,69,0,1,,,,,,,,,0,,,76,0
167199,note_on,159,0,3,,,,,,,,,2,,,49,0
167199,note_on,0,0,3,,,,,,,,,2,,,59,75
167245,note_on,0,0,1,,,,,,,,,0,,,78,75
167245,note_on,68,0,1,,,,,,,,,0,,,77,0
167314,note_on,0,0,1,,,,,,,,,0,,,79,75
167314,note_on,69,0,1,,,,,,,,,0,,,78,0
167360,note_on,161,0,3,,,,,,,,,2,,,59,0
167360,note_on,0,0,3,,,,,,,,,2,,,53,75
167360,control_change,0,0,3,,,,,,,,,2,64,0,,
167382,note_on,68,0,1,,,,,,,,,0,,,79,0
167382,note_on,0,0,1,,,,,,,,,0,,,80,75
167451,control_change,0,0,1,,,,,,,,,0,64,0,,
167451,note_on,69,0,1,,,,,,,,,0,,,80,0
167451,note_on,0,0,1,,,,,,,,,0,,,71,75
167520,note_on,160,0,3,,,,,,,,,2,,,53,0
167520,note_on,69,0,1,,,,,,,,,0,,,71,0
167520,control_change,0,0,1,,,,,,,,,0,64,127,,
167520,note_on,0,0,3,,,,,,,,,2,,,36,75
167520,note_on,0,0,2,,,,,,,,,1,,,68,62
167520,note_on,1920,0,2,,,,,,,,,1,,,65,62
167520,note_on,0,0,1,,,,,,,,,0,,,73,75
167520,control_change,0,0,3,,,,,,,,,2,64,127,,
167600,note_on,0,0,1,,,,,,,,,0,,,72,75
167600,note_on,80,0,1,,,,,,,,,0,,,73,0
167679,note_on,0,0,1,,,,,,,,,0,,,71,75
167679,note_on,79,0,1,,,,,,,,,0,,,72,0
167760,note_on,81,0,1,,,,,,,,,0,,,71,0
167760,note_on,0,0,1,,,,,,,,,0,,,72,75
167840,note_on,0,0,1,,,,,,,,,0,,,71,75
167840,note_on,80,0,1,,,,,,,,,0,,,72,0
167919,note_on,0,0,1,,,,,,,,,0,,,72,75
167919,note_on,79,0,1,,,,,,,,,0,,,71,0
168000,note_on,81,0,1,,,,,,,,,0,,,72,0
168000,note_on,480,0,3,,,,,,,,,2,,,36,0
168000,note_on,0,0,3,,,,,,,,,2,,,56,75
168000,note_on,0,0,1,,,,,,,,,0,,,73,75
168068,note_on,0,0,1,,,,,,,,,0,,,74,75
168068,note_on,68,0,1,,,,,,,,,0,,,73,0
168137,note_on,0,0,1,,,,,,,,,0,,,75,75
168137,note_on,69,0,1,,,,,,,,,0,,,74,0
168159,note_on,159,0,3,,,,,,,,,2,,,56,0
168159,note_on,0,0,3,,,,,,,,,2,,,65,75
168205,note_on,0,0,1,,,,,,,,,0,,,76,75
168205,note_on,68,0,1,,,,,,,,,0,,,75,0
168274,note_on,69,0,1,,,,,,,,,0,,,76,0
168274,note_on,0,0,1,,,,,,,,,0,,,79,75
168320,note_on,161,0,3,,,,,,,,,2,,,65,0
168320,note_on,0,0,3,,,,,,,,,2,,,60,75
168342,note_on,68,0,1,,,,,,,,,0,,,79,0
168342,note_on,0,0,1,,,,,,,,,0,,,77,75
168411,note_on,69,0,1,,,,,,,,,0,,,77,0
168411,note_on,0,0,1,,,,,,,,,0,,,76,75
168480,note_on,69,0,1,,,,,,,,,0,,,76,0
168480,note_on,0,0,3,,,,,,,,,2,,,55,75
168480,note_on,160,0,3,,,,,,,,,2,,,60,0
168480,note_on,0,0,1,,,,,,,,,0,,,75,75
168548,note_on,0,0,1,,,,,,,,,0,,,74,75
168548,note_on,68,0,1,,,,,,,,,0,,,75,0
168617,note_on,0,0,1,,,,,,,,,0,,,73,75
168617,note_on,69,0,1,,,,,,,,,0,,,74,0
168639,note_on,0,0,3,,,,,,,,,2,,,63,75
168639,note_on,159,0,3,,,,,,,,,2,,,55,0
168685,note_on,68,0,1,,,,,,,,,0,,,73,0
168685,note_on,0,0,1,,,,,,,,,0,,,72,75
168754,note_on,0,0,1,,,,,,,,,0,,,71,75
168754,note_on,69,0,1,,,,,,,,,0,,,72,0
168800,note_on,0,0,3,,,,,,,,,2,,,58,75
168800,note_on,161,0,3,,,,,,,,,2,,,63,0
168822,note_on,68,0,1,,,,,,,,,0,,,71,0
168822,note_on,0,0,1,,,,,,,,,0,,,70,75
168891,note_on,0,0,1,,,,,,,,,0,,,69,75
168891,note_on,69,0,1,,,,,,,,,0,,,70,0
168960,note_on,0,0,3,,,,,,,,,2,,,53,75
168960,note_on,160,0,3,,,,,,,,,2,,,58,0
168960,note_on,0,0,1,,,,,,,,,0,,,68,75
168960,note_on,69,0,1,,,,,,,,,0,,,69,0
169028,note_on,0,0,1,,,,,,,,,0,,,69,75
169028,note_on,68,0,1,,,,,,,,,0,,,68,0
169097,note_on,0,0,1,,,,,,,,,0,,,70,75
169097,note_on,69,0,1,,,,,,,,,0,,,69,0
169119,note_on,159,0,3,,,,,,,,,2,,,53,0
169119,note_on,0,0,3,,,,,,,,,2,,,61,75
169165,note_on,0,0,1,,,,,,,,,0,,,71,75
169165,note_on,68,0,1,,,,,,,,,0,,,70,0
169234,note_on,69,0,1,,,,,,,,,0,,,71,0
169234,note_on,0,0,1,,,,,,,,,0,,,72,75
169280,control_change,0,0,3,,,,,,,,,2,64,0,,
169280,note_on,0,0,3,,,,,,,,,2,,,56,75
169280,note_on,161,0,3,,,,,,,,,2,,,61,0
169302,note_on,0,0,1,,,,,,,,,0,,,75,75
169302,note_on,68,0,1,,,,,,,,,0,,,72,0
169371,note_on,0,0,1,,,,,,,,,0,,,73,75
169371,control_change,0,0,1,,,,,,,,,0,64,0,,
169371,note_on,69,0,1,,,,,,,,,0,,,75,0
169440,note_on,0,0,1,,,,,,,,,0,,,72,75
169440,note_on,69,0,1,,,,,,,,,0,,,73,0
169440,note_on,0,0,2,,,,,,,,,1,,,65,0
169440,note_on,160,0,3,,,,,,,,,2,,,56,0
169440,note_on,0,0,3,,,,,,,,,2,,,52,75
169440,control_change,0,0,1,,,,,,,,,0,64,127,,
169440,note_on,1920,0,2,,,,,,,,,1,,,68,0
169440,control_change,0,0,3,,,,,,,,,2,64,127,,
169520,note_on,0,0,1,,,,,,,,,0,,,71,75
169520,note_on,80,0,1,,,,,,,,,0,,,72,0
169599,note_on,0,0,3,,,,,,,,,2,,,60,75
169599,note_on,79,0,1,,,,,,,,,0,,,71,0
169599,note_on,159,0,3,,,,,,,,,2,,,52,0
169599,note_on,0,0,1,,,,,,,,,0,,,70,75
169680,note_on,81,0,1,,,,,,,,,0,,,70,0
169680,note_on,0,0,1,,,,,,,,,0,,,69,75
169760,note_on,0,0,3,,,,,,,,,2,,,55,75
169760,note_on,161,0,3,,,,,,,,,2,,,60,0
169760,note_on,80,0,1,,,,,,,,,0,,,69,0
169760,note_on,0,0,1,,,,,,,,,0,,,68,75
169839,note_on,79,0,1,,,,,,,,,0,,,68,0
169839,note_on,0,0,1,,,,,,,,,0,,,67,75
169920,note_on,81,0,1,,,,,,,,,0,,,67,0
169920,note_on,160,0,3,,,,,,,,,2,,,55,0
169920,note_on,0,0,1,,,,,,,,,0,,,66,75
169920,note_on,0,0,3,,,,,,,,,2,,,51,75
169988,note_on,68,0,1,,,,,,,,,0,,,66,0
169988,note_on,0,0,1,,,,,,,,,0,,,65,75
170057,note_on,69,0,1,,,,,,,,,0,,,65,0
170057,note_on,0,0,1,,,,,,,,,0,,,64,75
170079,note_on,159,0,3,,,,,,,,,2,,,51,0
170079,note_on,0,0,3,,,,,,,,,2,,,60,75
170125,note_on,68,0,1,,,,,,,,,0,,,64,0
170125,note_on,0,0,1,,,,,,,,,0,,,65,75
170194,note_on,0,0,1,,,,,,,,,0,,,66,75
170194,note_on,69,0,1,,,,,,,,,0,,,65,0
170240,note_on,161,0,3,,,,,,,,,2,,,60,0
170240,note_on,0,0,3,,,,,,,,,2,,,57,75
170262,note_on,0,0,1,,,,,,,,,0,,,67,75
170262,note_on,68,0,1,,,,,,,,,0,,,66,0
170331,note_on,0,0,1,,,,,,,,,0,,,68,75
170331,note_on,69,0,1,,,,,,,,,0,,,67,0
170400,note_on,0,0,3,,,,,,,,,2,,,50,75
170400,note_on,69,0,1,,,,,,,,,0,,,68,0
170400,note_on,0,0,1,,,,,,,,,0,,,69,75
170400,note_on,160,0,3,,,,,,,,,2,,,57,0
170468,note_on,0,0,1,,,,,,,,,0,,,70,75
170468,note_on,68,0,1,,,,,,,,,0,,,69,0
170537,note_on,69,0,1,,,,,,,,,0,,,70,0
170537,note_on,0,0,1,,,,,,,,,0,,,71,75
170559,note_on,0,0,3,,,,,,,,,2,,,65,75
170559,note_on,159,0,3,,,,,,,,,2,,,50,0
170605,note_on,68,0,1,,,,,,,,,0,,,71,0
170605,note_on,0,0,1,,,,,,,,,0,,,72,75
170674,note_on,0,0,1,,,,,,,,,0,,,73,75
170674,note_on,69,0,1,,,,,,,,,0,,,72,0
170720,note_on,161,0,3,,,,,,,,,2,,,65,0
170720,note_on,0,0,3,,,,,,,,,2,,,58,75
170742,note_on,68,0,1,,,,,,,,,0,,,73,0
170742,note_on,0,0,1,,,,,,,,,0,,,74,75
170811,note_on,69,0,1,,,,,,,,,0,,,74,0
170811,note_on,0,0,1,,,,,,,,,0,,,75,75
170880,note_on,69,0,1,,,,,,,,,0,,,75,0
170880,note_on,0,0,1,,,,,,,,,0,,,76,75
170880,note_on,0,0,3,,,,,,,,,2,,,49,75
170880,note_on,160,0,3,,,,,,,,,2,,,58,0
170948,note_on,68,0,1,,,,,,,,,0,,,76,0
170948,note_on,0,0,1,,,,,,,,,0,,,77,75
171017,note_on,0,0,1,,,,,,,,,0,,,78,75
171017,note_on,69,0,1,,,,,,,,,0,,,77,0
171039,note_on,0,0,3,,,,,,,,,2,,,65,75
171039,note_on,159,0,3,,,,,,,,,2,,,49,0
171085,note_on,68,0,1,,,,,,,,,0,,,78,0
171085,note_on,0,0,1,,,,,,,,,0,,,79,75
171154,note_on,69,0,1,,,,,,,,,0,,,79,0
171154,note_on,0,0,1,,,,,,,,,0,,,80,75
171200,note_on,0,0,3,,,,,,,,,2,,,56,75
171200,note_on,0,0,3,,,,,,,,,2,,,59,75
171200,control_change,0,0,3,,,,,,,,,2,64,0,,
171200,note_on,161,0,3,,,,,,,,,2,,,65,0
171222,note_on,0,0,1,,,,,,,,,0,,,81,75
171222,note_on,68,0,1,,,,,,,,,0,,,80,0
171291,note_on,0,0,1,,,,,,,,,0,,,82,75
171291,control_change,0,0,1,,,,,,,,,0,64,0,,
171291,note_on,69,0,1,,,,,,,,,0,,,81,0
171360,control_change,0,0,3,,,,,,,,,2,64,127,,
171360,note_on,160,0,3,,,,,,,,,2,,,59,0
171360,control_change,0,0,1,,,,,,,,,0,64,127,,
171360,note_on,69,0,1,,,,,,,,,0,,,82,0
171360,time_signature,7200,1,0,2,4,24,8,,,,,,,,,
171360,note_on,0,0,3,,,,,,,,,2,,,48,88
171360,note_on,0,0,1,,,,,,,,,0,,,83,88
171360,note_on,0,0,3,,,,,,,,,2,,,56,0
171440,note_on,0,0,1,,,,,,,,,0,,,84,88
171440,note_on,80,0,1,,,,,,,,,0,,,83,0
171519,note_on,159,0,3,,,,,,,,,2,,,48,0
171519,note_on,0,0,3,,,,,,,,,2,,,56,88
171519,note_on,0,0,1,,,,,,,,,0,,,92,88
171519,note_on,79,0,1,,,,,,,,,0,,,84,0
171600,note_on,0,0,1,,,,,,,,,0,,,91,88
171600,note_on,81,0,1,,,,,,,,,0,,,92,0
171680,note_on,80,0,1,,,,,,,,,0,,,91,0
171680,note_on,0,0,3,,,,,,,,,2,,,60,88
171680,note_on,0,0,1,,,,,,,,,0,,,90,88
171680,note_on,161,0,3,,,,,,,,,2,,,56,0
171759,note_on,79,0,1,,,,,,,,,0,,,90,0
171759,note_on,0,0,1,,,,,,,,,0,,,89,88
171840,control_change,0,0,3,,,,,,,,,2,64,0,,
171840,note_on,0,0,1,,,,,,,,,0,,,88,88
171840,note_on,160,0,3,,,,,,,,,2,,,60,0
171840,note_on,0,0,3,,,,,,,,,2,,,65,88
171840,note_on,81,0,1,,,,,,,,,0,,,89,0
171920,note_on,0,0,1,,,,,,,,,0,,,87,88
171920,note_on,80,0,1,,,,,,,,,0,,,88,0
171999,note_on,79,0,1,,,,,,,,,0,,,87,0
171999,note_on,0,0,1,,,,,,,,,0,,,86,88
172080,note_on,81,0,1,,,,,,,,,0,,,86,0
172080,note_on,0,0,1,,,,,,,,,0,,,85,88
172160,note_on,80,0,1,,,,,,,,,0,,,85,0
172160,note_on,0,0,1,,,,,,,,,0,,,84,88
172239,note_on,0,0,1,,,,,,,,,0,,,83,88
172239,control_change,0,0,1,,,,,,,,,0,64,0,,
172239,note_on,79,0,1,,,,,,,,,0,,,84,0
172320,control_change,0,0,1,,,,,,,,,0,64,127,,
172320,control_change,0,0,3,,,,,,,,,2,64,127,,
172320,note_on,0,0,3,,,,,,,,,2,,,48,88
172320,note_on,81,0,1,,,,,,,,,0,,,83,0
172320,note_on,480,0,3,,,,,,,,,2,,,65,0
172320,note_on,0,0,1,,,,,,,,,0,,,82,88
172400,note_on,0,0,1,,,,,,,,,0,,,87,88
172400,note_on,80,0,1,,,,,,,,,0,,,82,0
172479,note_on,0,0,1,,,,,,,,,0,,,85,88
172479,note_on,79,0,1,,,,,,,,,0,,,87,0
172479,note_on,0,0,3,,,,,,,,,2,,,58,88
172479,note_on,159,0,3,,,,,,,,,2,,,48,0
172560,note_on,0,0,1,,,,,,,,,0,,,82,88
172560,note_on,81,0,1,,,,,,,,,0,,,85,0
172640,note_on,161,0,3,,,,,,,,,2,,,58,0
172640,note_on,80,0,1,,,,,,,,,0,,,82,0
172640,note_on,0,0,1,,,,,,,,,0,,,80,88
172640,note_on,0,0,3,,,,,,,,,2,,,61,88
172719,note_on,0,0,1,,,,,,,,,0,,,78,88
172719,note_on,79,0,1,,,,,,,,,0,,,80,0
172800,note_on,81,0,1,,,,,,,,,0,,,78,0
172800,control_change,0,0,3,,,,,,,,,2,64,0,,
172800,note_on,160,0,3,,,,,,,,,2,,,61,0
172800,note_on,0,0,3,,,,,,,,,2,,,67,88
172800,note_on,0,0,1,,,,,,,,,0,,,75,88
172880,note_on,80,0,1,,,,,,,,,0,,,75,0
172880,note_on,0,0,1,,,,,,,,,0,,,73,88
172959,note_on,79,0,1,,,,,,,,,0,,,73,0
172959,note_on,0,0,1,,,,,,,,,0,,,69,88
173040,note_on,81,0,1,,,,,,,,,0,,,69,0
173040,note_on,0,0,1,,,,,,,,,0,,,70,88
173120,note_on,0,0,1,,,,,,,,,0,,,75,88
173120,note_on,80,0,1,,,,,,,,,0,,,70,0
173199,note_on,79,0,1,,,,,,,,,0,,,75,0
173199,note_on,0,0,1,,,,,,,,,0,,,73,88
173199,control_change,0,0,1,,,,,,,,,0,64,0,,
173280,note_on,480,0,3,,,,,,,,,2,,,67,0
173280,note_on,81,0,1,,,,,,,,,0,,,73,0
173280,time_signature,1920,1,0,4,4,24,8,,,,,,,,,
173280,control_change,0,0,3,,,,,,,,,2,64,127,,
173280,control_change,0,0,1,,,,,,,,,0,64,127,,
173280,note_on,0,0,1,,,,,,,,,0,,,71,101
173280,note_on,0,0,3,,,,,,,,,2,,,48,101
173360,note_on,80,0,1,,,,,,,,,0,,,71,0
173360,note_on,0,0,1,,,,,,,,,0,,,72,101
173439,note_on,0,0,1,,,,,,,,,0,,,92,101
173439,note_on,0,0,3,,,,,,,,,2,,,56,101
173439,note_on,79,0,1,,,,,,,,,0,,,72,0
173439,note_on,159,0,3,,,,,,,,,2,,,48,0
173520,note_on,81,0,1,,,,,,,,,0,,,92,0
173520,note_on,0,0,1,,,,,,,,,0,,,91,101
173600,note_on,80,0,1,,,,,,,,,0,,,91,0
173600,note_on,0,0,3,,,,,,,,,2,,,60,101
173600,note_on,0,0,1,,,,,,,,,0,,,90,101
173600,note_on,161,0,3,,,,,,,,,2,,,56,0
173679,note_on,0,0,1,,,,,,,,,0,,,89,101
173679,note_on,79,0,1,,,,,,,,,0,,,90,0
173760,note_on,0,0,1,,,,,,,,,0,,,88,101
173760,note_on,0,0,3,,,,,,,,,2,,,65,101
173760,note_on,81,0,1,,,,,,,,,0,,,89,0
173760,note_on,160,0,3,,,,,,,,,2,,,60,0
173840,note_on,80,0,1,,,,,,,,,0,,,88,0
173840,note_on,0,0,1,,,,,,,,,0,,,87,101
173919,note_on,0,0,1,,,,,,,,,0,,,86,101
173919,note_on,79,0,1,,,,,,,,,0,,,87,0
174000,note_on,0,0,1,,,,,,,,,0,,,85,101
174000,note_on,81,0,1,,,,,,,,,0,,,86,0
174080,note_on,80,0,1,,,,,,,,,0,,,85,0
174080,note_on,0,0,1,,,,,,,,,0,,,84,101
174159,note_on,79,0,1,,,,,,,,,0,,,84,0
174159,note_on,0,0,1,,,,,,,,,0,,,83,101
174240,note_on,0,0,3,,,,,,,,,2,,,48,101
174240,note_on,81,0,1,,,,,,,,,0,,,83,0
174240,note_on,480,0,3,,,,,,,,,2,,,65,0
174240,note_on,0,0,1,,,,,,,,,0,,,82,101
174320,note_on,80,0,1,,,,,,,,,0,,,82,0
174320,note_on,0,0,1,,,,,,,,,0,,,87,101
174399,note_on,79,0,1,,,,,,,,,0,,,87,0
174399,note_on,0,0,1,,,,,,,,,0,,,85,101
174399,note_on,159,0,3,,,,,,,,,2,,,48,0
174399,note_on,0,0,3,,,,,,,,,2,,,58,101
174480,note_on,0,0,1,,,,,,,,,0,,,82,101
174480,note_on,81,0,1,,,,,,,,,0,,,85,0
174560,note_on,161,0,3,,,,,,,,,2,,,58,0
174560,note_on,0,0,1,,,,,,,,,0,,,80,101
174560,note_on,0,0,3,,,,,,,,,2,,,61,101
174560,note_on,80,0,1,,,,,,,,,0,,,82,0
174639,note_on,0,0,1,,,,,,,,,0,,,78,101
174639,note_on,79,0,1,,,,,,,,,0,,,80,0
174720,note_on,0,0,1,,,,,,,,,0,,,75,88
174720,control_change,0,0,3,,,,,,,,,2,64,0,,
174720,note_on,0,0,3,,,,,,,,,2,,,66,88
174720,note_on,160,0,3,,,,,,,,,2,,,61,0
174720,note_on,81,0,1,,,,,,,,,0,,,78,0
174800,note_on,80,0,1,,,,,,,,,0,,,75,0
174800,note_on,0,0,1,,,,,,,,,0,,,73,88
174879,note_on,0,0,1,,,,,,,,,0,,,69,88
174879,note_on,79,0,1,,,,,,,,,0,,,73,0
174960,note_on,0,0,1,,,,,,,,,0,,,70,88
174960,note_on,81,0,1,,,,,,,,,0,,,69,0
175040,note_on,0,0,1,,,,,,,,,0,,,75,88
175040,note_on,80,0,1,,,,,,,,,0,,,70,0
175119,control_change,0,0,1,,,,,,,,,0,64,0,,
175119,note_on,0,0,1,,,,,,,,,0,,,73,88
175119,note_on,79,0,1,,,,,,,,,0,,,75,0
175200,note_on,0,0,1,,,,,,,,,0,,,71,88
175200,note_on,81,0,1,,,,,,,,,0,,,73,0
175200,note_on,480,0,3,,,,,,,,,2,,,66,0
175200,note_on,0,0,3,,,,,,,,,2,,,48,88
175200,control_change,0,0,1,,,,,,,,,0,64,127,,
175200,control_change,0,0,3,,,,,,,,,2,64,127,,
175280,note_on,80,0,1,,,,,,,,,0,,,71,0
175280,note_on,0,0,1,,,,,,,,,0,,,72,88
175359,note_on,0,0,1,,,,,,,,,0,,,101,88
175359,note_on,0,0,3,,,,,,,,,2,,,56,88
175359,note_on,159,0,3,,,,,,,,,2,,,48,0
175359,note_on,0,0,1,,,,,,,,,0,,,92,88
175359,note_on,79,0,1,,,,,,,,,0,,,72,0
175375,note_on,0,0,1,,,,,,,,,0,,,92,0
175375,note_on,16,0,1,,,,,,,,,0,,,101,0
175440,note_on,65,0,1,,,,,,,,,0,,,100,88
175440,set_tempo,2160,1,0,,,,,,504202,,,,,,,
175455,note_on,15,0,1,,,,,,,,,0,,,100,0
175520,note_on,161,0,3,,,,,,,,,2,,,56,0
175520,note_on,65,0,1,,,,,,,,,0,,,91,88
175520,note_on,0,0,3,,,,,,,,,2,,,60,88
175520,note_on,0,0,1,,,,,,,,,0,,,99,88
175536,note_on,0,0,1,,,,,,,,,0,,,91,0
175536,note_on,16,0,1,,,,,,,,,0,,,99,0
175599,note_on,63,0,1,,,,,,,,,0,,,90,88
175599,note_on,0,0,1,,,,,,,,,0,,,98,88
175615,note_on,16,0,1,,,,,,,,,0,,,98,0
175615,note_on,0,0,1,,,,,,,,,0,,,90,0
175680,set_tempo,240,1,0,,,,,,530973,,,,,,,
175680,note_on,160,0,3,,,,,,,,,2,,,60,0
175680,note_on,0,0,1,,,,,,,,,0,,,97,88
175680,note_on,65,0,1,,,,,,,,,0,,,89,88
175680,note_on,0,0,3,,,,,,,,,2,,,65,88
175695,note_on,0,0,1,,,,,,,,,0,,,89,0
175695,note_on,15,0,1,,,,,,,,,0,,,97,0
175760,note_on,0,0,1,,,,,,,,,0,,,96,88
175760,note_on,65,0,1,,,,,,,,,0,,,88,88
175776,note_on,0,0,1,,,,,,,,,0,,,88,0
175776,note_on,16,0,1,,,,,,,,,0,,,96,0
175839,note_on,63,0,1,,,,,,,,,0,,,84,88
175839,note_on,0,0,1,,,,,,,,,0,,,92,88
175855,note_on,0,0,1,,,,,,,,,0,,,84,0
175855,note_on,16,0,1,,,,,,,,,0,,,92,0
175920,note_on,0,0,1,,,,,,,,,0,,,91,88
175920,note_on,65,0,1,,,,,,,,,0,,,83,88
175920,set_tempo,240,1,0,,,,,,560748,,,,,,,
175935,note_on,0,0,1,,,,,,,,,0,,,83,0
175935,note_on,15,0,1,,,,,,,,,0,,,91,0
176000,note_on,65,0,1,,,,,,,,,0,,,82,88
176000,note_on,0,0,1,,,,,,,,,0,,,90,88
176016,note_on,16,0,1,,,,,,,,,0,,,90,0
176016,note_on,0,0,1,,,,,,,,,0,,,82,0
176079,note_on,63,0,1,,,,,,,,,0,,,80,88
176079,note_on,0,0,1,,,,,,,,,0,,,89,88
176095,note_on,16,0,1,,,,,,,,,0,,,89,0
176095,note_on,0,0,1,,,,,,,,,0,,,80,0
176160,note_on,0,0,1,,,,,,,,,0,,,85,88
176160,set_tempo,240,1,0,,,,,,606061,,,,,,,
176160,note_on,65,0,1,,,,,,,,,0,,,77,88
176175,note_on,0,0,1,,,,,,,,,0,,,77,0
176175,note_on,15,0,1,,,,,,,,,0,,,85,0
176240,note_on,0,0,1,,,,,,,,,0,,,84,88
176240,note_on,65,0,1,,,,,,,,,0,,,76,88
176256,note_on,0,0,1,,,,,,,,,0,,,76,0
176256,note_on,16,0,1,,,,,,,,,0,,,84,0
176319,note_on,63,0,1,,,,,,,,,0,,,72,88
176319,note_on,0,0,1,,,,,,,,,0,,,80,88
176335,note_on,0,0,1,,,,,,,,,0,,,72,0
176335,note_on,16,0,1,,,,,,,,,0,,,80,0
176400,note_on,0,0,1,,,,,,,,,0,,,79,88
176400,set_tempo,240,1,0,,,,,,645161,,,,,,,
176400,note_on,65,0,1,,,,,,,,,0,,,71,88
176415,note_on,15,0,1,,,,,,,,,0,,,79,0
176415,note_on,0,0,1,,,,,,,,,0,,,71,0
176480,note_on,65,0,1,,,,,,,,,0,,,70,88
176480,note_on,0,0,1,,,,,,,,,0,,,78,88
176496,note_on,0,0,1,,,,,,,,,0,,,70,0
176496,note_on,16,0,1,,,,,,,,,0,,,78,0
176559,note_on,63,0,1,,,,,,,,,0,,,68,88
176559,note_on,0,0,1,,,,,,,,,0,,,77,88
176575,note_on,16,0,1,,,,,,,,,0,,,77,0
176575,note_on,0,0,1,,,,,,,,,0,,,68,0
176580,note_on,900,0,3,,,,,,,,,2,,,48,114
176640,set_tempo,240,1,0,,,,,,689655,,,,,,,
176640,note_on,60,0,3,,,,,,,,,2,,,65,0
176640,note_on,65,0,1,,,,,,,,,0,,,70,75
176640,note_on,0,0,3,,,,,,,,,2,,,66,114
176640,note_on,0,0,1,,,,,,,,,0,,,73,75
176655,note_on,15,0,1,,,,,,,,,0,,,73,0
176655,note_on,0,0,1,,,,,,,,,0,,,70,0
176720,note_on,65,0,1,,,,,,,,,0,,,69,75
176720,note_on,0,0,1,,,,,,,,,0,,,73,75
176736,note_on,0,0,1,,,,,,,,,0,,,69,0
176736,note_on,16,0,1,,,,,,,,,0,,,73,0
176799,note_on,159,0,3,,,,,,,,,2,,,66,0
176799,note_on,0,0,3,,,,,,,,,2,,,61,88
176799,note_on,0,0,3,,,,,,,,,2,,,48,0
176799,note_on,63,0,1,,,,,,,,,0,,,68,75
176799,note_on,0,0,1,,,,,,,,,0,,,73,75
176799,note_on,0,0,3,,,,,,,,,2,,,58,88
176815,note_on,16,0,1,,,,,,,,,0,,,73,0
176815,note_on,0,0,1,,,,,,,,,0,,,68,0
176880,note_on,0,0,1,,,,,,,,,0,,,73,88
176880,note_on,65,0,1,,,,,,,,,0,,,67,88
176880,set_tempo,240,1,0,,,,,,740741,,,,,,,
176895,note_on,0,0,1,,,,,,,,,0,,,67,0
176895,note_on,15,0,1,,,,,,,,,0,,,73,0
176960,note_on,0,0,1,,,,,,,,,0,,,73,88
176960,note_on,65,0,1,,,,,,,,,0,,,66,88
176976,note_on,0,0,1,,,,,,,,,0,,,66,0
176976,note_on,16,0,1,,,,,,,,,0,,,73,0
177039,control_change,63,0,1,,,,,,,,,0,64,0,,
177039,note_on,0,0,1,,,,,,,,,0,,,65,88
177039,note_on,0,0,3,,,,,,,,,2,,,58,75
177039,note_on,240,0,3,,,,,,,,,2,,,61,0
177039,note_on,0,0,3,,,,,,,,,2,,,58,0
177039,note_on,0,0,3,,,,,,,,,2,,,56,75
177039,control_change,0,0,3,,,,,,,,,2,64,0,,
177039,note_on,0,0,1,,,,,,,,,0,,,73,88
177055,note_on,16,0,1,,,,,,,,,0,,,73,0
177055,note_on,0,0,1,,,,,,,,,0,,,65,0
177120,note_on,0,0,1,,,,,,,,,0,,,36,75
177120,note_on,81,0,3,,,,,,,,,2,,,58,0
177120,set_tempo,0,1,0,,,,,,821918,,,,,,,
177120,control_change,65,0,1,,,,,,,,,0,64,127,,
177120,note_on,0,0,3,,,,,,,,,2,,,56,0
177120,time_signature,240,1,0,1,16,6,8,,,,,,,,,
177150,note_on,30,0,1,,,,,,,,,0,,,36,0
177150,note_on,0,0,1,,,,,,,,,0,,,55,75
177180,note_on,30,0,1,,,,,,,,,0,,,55,0
177180,note_on,0,0,1,,,,,,,,,0,,,58,75
177210,note_on,0,0,1,,,,,,,,,0,,,64,75
177210,note_on,30,0,1,,,,,,,,,0,,,58,0
177240,note_on,0,0,1,,,,,,,,,0,,,73,75
177240,note_on,30,0,1,,,,,,,,,0,,,64,0
177240,set_tempo,0,1,0,,,,,,444444,,,,,,,
177240,time_signature,120,1,0,3,4,24,8,,,,,,,,,
177320,note_on,0,0,1,,,,,,,,,0,,,59,75
177320,note_on,80,0,1,,,,,,,,,0,,,73,0
177399,note_on,0,0,1,,,,,,,,,0,,,60,75
177399,note_on,79,0,1,,,,,,,,,0,,,59,0
177480,note_on,0,0,1,,,,,,,,,0,,,61,75
177480,note_on,81,0,1,,,,,,,,,0,,,60,0
177560,note_on,80,0,1,,,,,,,,,0,,,61,0
177560,note_on,0,0,1,,,,,,,,,0,,,64,75
177639,note_on,0,0,1,,,,,,,,,0,,,65,75
177639,note_on,79,0,1,,,,,,,,,0,,,64,0
177720,note_on,81,0,1,,,,,,,,,0,,,65,0
177720,note_on,0,0,1,,,,,,,,,0,,,68,75
177800,note_on,80,0,1,,,,,,,,,0,,,68,0
177800,note_on,0,0,1,,,,,,,,,0,,,66,75
177879,note_on,79,0,1,,,,,,,,,0,,,66,0
177879,note_on,0,0,1,,,,,,,,,0,,,67,75
177960,note_on,81,0,1,,,,,,,,,0,,,67,0
177960,note_on,0,0,1,,,,,,,,,0,,,68,75
178040,note_on,80,0,1,,,,,,,,,0,,,68,0
178040,note_on,0,0,1,,,,,,,,,0,,,69,75
178119,note_on,0,0,1,,,,,,,,,0,,,70,75
178119,note_on,79,0,1,,,,,,,,,0,,,69,0
178200,note_on,81,0,1,,,,,,,,,0,,,70,0
178200,note_on,0,0,1,,,,,,,,,0,,,73,75
178280,note_on,0,0,3,,,,,,,,,2,,,63,75
178280,note_on,0,0,1,,,,,,,,,0,,,71,75
178280,control_change,1160,0,3,,,,,,,,,2,64,127,,
178280,note_on,80,0,1,,,,,,,,,0,,,73,0
178359,note_on,0,0,1,,,,,,,,,0,,,72,75
178359,note_on,79,0,3,,,,,,,,,2,,,63,0
178359,note_on,79,0,1,,,,,,,,,0,,,71,0
178359,note_on,0,0,3,,,,,,,,,2,,,64,75
178440,note_on,81,0,3,,,,,,,,,2,,,64,0
178440,note_on,0,0,3,,,,,,,,,2,,,65,75
178440,note_on,0,0,1,,,,,,,,,0,,,73,75
178440,note_on,81,0,1,,,,,,,,,0,,,72,0
178520,note_on,80,0,1,,,,,,,,,0,,,73,0
178520,note_on,0,0,3,,,,,,,,,2,,,67,75
178520,note_on,0,0,1,,,,,,,,,0,,,76,75
178520,note_on,80,0,3,,,,,,,,,2,,,65,0
178599,note_on,79,0,3,,,,,,,,,2,,,67,0
178599,note_on,0,0,1,,,,,,,,,0,,,77,75
178599,note_on,0,0,3,,,,,,,,,2,,,68,75
178599,note_on,79,0,1,,,,,,,,,0,,,76,0
178680,note_on,0,0,1,,,,,,,,,0,,,80,75
178680,note_on,0,0,3,,,,,,,,,2,,,72,75
178680,note_on,81,0,1,,,,,,,,,0,,,77,0
178680,note_on,81,0,3,,,,,,,,,2,,,68,0
178760,note_on,80,0,3,,,,,,,,,2,,,72,0
178760,note_on,0,0,1,,,,,,,,,0,,,78,75
178760,note_on,0,0,3,,,,,,,,,2,,,69,75
178760,note_on,80,0,1,,,,,,,,,0,,,80,0
178839,note_on,0,0,3,,,,,,,,,2,,,70,75
178839,note_on,0,0,1,,,,,,,,,0,,,79,75
178839,note_on,79,0,3,,,,,,,,,2,,,69,0
178839,note_on,79,0,1,,,,,,,,,0,,,78,0
178920,note_on,81,0,1,,,,,,,,,0,,,79,0
178920,note_on,81,0,3,,,,,,,,,2,,,70,0
178920,note_on,0,0,3,,,,,,,,,2,,,71,75
178920,note_on,0,0,1,,,,,,,,,0,,,80,75
179000,note_on,80,0,1,,,,,,,,,0,,,80,0
179000,note_on,80,0,3,,,,,,,,,2,,,71,0
179000,note_on,0,0,3,,,,,,,,,2,,,72,75
179000,note_on,0,0,1,,,,,,,,,0,,,81,75
179079,note_on,79,0,1,,,,,,,,,0,,,81,0
179079,note_on,0,0,1,,,,,,,,,0,,,82,75
179079,note_on,79,0,3,,,,,,,,,2,,,72,0
179079,note_on,0,0,3,,,,,,,,,2,,,73,75
179160,note_on,81,0,1,,,,,,,,,0,,,82,0
179160,note_on,0,0,3,,,,,,,,,2,,,77,75
179160,note_on,81,0,3,,,,,,,,,2,,,73,0
179160,note_on,0,0,1,,,,,,,,,0,,,85,75
179240,note_on,0,0,1,,,,,,,,,0,,,83,75
179240,note_on,80,0,3,,,,,,,,,2,,,77,0
179240,note_on,80,0,1,,,,,,,,,0,,,85,0
179240,note_on,0,0,3,,,,,,,,,2,,,75,75
179319,note_on,79,0,3,,,,,,,,,2,,,75,0
179319,note_on,0,0,3,,,,,,,,,2,,,76,75
179319,note_on,79,0,1,,,,,,,,,0,,,83,0
179319,note_on,0,0,1,,,,,,,,,0,,,84,75
179400,note_on,0,0,3,,,,,,,,,2,,,77,75
179400,note_on,81,0,3,,,,,,,,,2,,,76,0
179400,note_on,0,0,1,,,,,,,,,0,,,85,75
179400,note_on,81,0,1,,,,,,,,,0,,,84,0
179480,note_on,80,0,3,,,,,,,,,2,,,77,0
179480,note_on,0,0,3,,,,,,,,,2,,,79,75
179480,note_on,0,0,1,,,,,,,,,0,,,88,75
179480,note_on,80,0,1,,,,,,,,,0,,,85,0
179559,note_on,0,0,3,,,,,,,,,2,,,80,75
179559,note_on,79,0,3,,,,,,,,,2,,,79,0
179559,note_on,79,0,1,,,,,,,,,0,,,88,0
179559,note_on,0,0,1,,,,,,,,,0,,,89,75
179640,note_on,0,0,3,,,,,,,,,2,,,84,75
179640,note_on,81,0,3,,,,,,,,,2,,,80,0
179640,note_on,0,0,1,,,,,,,,,0,,,92,75
179640,note_on,81,0,1,,,,,,,,,0,,,89,0
179720,note_on,0,0,1,,,,,,,,,0,,,90,75
179720,note_on,80,0,3,,,,,,,,,2,,,84,0
179720,note_on,80,0,1,,,,,,,,,0,,,92,0
179720,note_on,0,0,3,,,,,,,,,2,,,81,75
179799,note_on,79,0,1,,,,,,,,,0,,,90,0
179799,note_on,79,0,3,,,,,,,,,2,,,81,0
179799,note_on,0,0,1,,,,,,,,,0,,,91,75
179799,note_on,0,0,3,,,,,,,,,2,,,82,75
179880,note_on,0,0,3,,,,,,,,,2,,,83,75
179880,note_on,0,0,1,,,,,,,,,0,,,92,75
179880,note_on,81,0,3,,,,,,,,,2,,,82,0
179880,note_on,81,0,1,,,,,,,,,0,,,91,0
179960,note_on,0,0,3,,,,,,,,,2,,,84,75
179960,note_on,0,0,1,,,,,,,,,0,,,93,75
179960,note_on,80,0,3,,,,,,,,,2,,,83,0
179960,note_on,80,0,1,,,,,,,,,0,,,92,0
180039,control_change,0,0,3,,,,,,,,,2,64,0,,
180039,note_on,79,0,1,,,,,,,,,0,,,93,0
180039,note_on,0,0,1,,,,,,,,,0,,,94,75
180039,control_change,0,0,1,,,,,,,,,0,64,0,,
180039,note_on,79,0,3,,,,,,,,,2,,,84,0
180039,note_on,0,0,3,,,,,,,,,2,,,85,75
180120,note_on,0,0,1,,,,,,,,,0,,,97,75
180120,control_change,0,0,1,,,,,,,,,0,64,127,,
180120,note_on,81,0,1,,,,,,,,,0,,,94,0
180120,note_on,81,0,3,,,,,,,,,2,,,85,0
180120,time_signature,2880,1,0,4,4,24,8,,,,,,,,,
180120,note_on,0,0,3,,,,,,,,,2,,,88,75
180120,control_change,0,0,3,,,,,,,,,2,64,127,,
180200,note_on,80,0,1,,,,,,,,,0,,,97,0
180200,note_on,0,0,1,,,,,,,,,0,,,94,75
180279,note_on,0,0,1,,,,,,,,,0,,,97,75
180279,note_on,79,0,1,,,,,,,,,0,,,94,0
180360,set_tempo,240,1,0,,,,,,476190,,,,,,,
180360,note_on,81,0,1,,,,,,,,,0,,,97,0
180360,note_on,0,0,1,,,,,,,,,0,,,91,75
180440,note_on,0,0,1,,,,,,,,,0,,,97,75
180440,note_on,80,0,1,,,,,,,,,0,,,91,0
180519,note_on,79,0,1,,,,,,,,,0,,,97,0
180519,note_on,0,0,1,,,,,,,,,0,,,88,75
180600,note_on,81,0,1,,,,,,,,,0,,,88,0
180600,note_on,0,0,1,,,,,,,,,0,,,97,75
180600,set_tempo,240,1,0,,,,,,512821,,,,,,,
180680,note_on,0,0,1,,,,,,,,,0,,,85,75
180680,note_on,80,0,1,,,,,,,,,0,,,97,0
180759,note_on,79,0,1,,,,,,,,,0,,,85,0
180759,note_on,0,0,1,,,,,,,,,0,,,97,75
180840,set_tempo,240,1,0,,,,,,555556,,,,,,,
180840,note_on,0,0,1,,,,,,,,,0,,,82,75
180840,note_on,81,0,1,,,,,,,,,0,,,97,0
180920,note_on,0,0,1,,,,,,,,,0,,,97,75
180920,note_on,80,0,1,,,,,,,,,0,,,82,0
180999,note_on,0,0,1,,,,,,,,,0,,,79,75
180999,note_on,79,0,1,,,,,,,,,0,,,97,0
181080,note_on,81,0,1,,,,,,,,,0,,,79,0
181080,set_tempo,240,1,0,,,,,,625000,,,,,,,
181080,note_on,0,0,1,,,,,,,,,0,,,97,75
181160,note_on,0,0,1,,,,,,,,,0,,,76,75
181160,note_on,80,0,1,,,,,,,,,0,,,97,0
181239,note_on,0,0,1,,,,,,,,,0,,,97,75
181239,note_on,79,0,1,,,,,,,,,0,,,76,0
181320,set_tempo,240,1,0,,,,,,689655,,,,,,,
181320,note_on,0,0,1,,,,,,,,,0,,,73,75
181320,note_on,81,0,1,,,,,,,,,0,,,97,0
181400,note_on,80,0,1,,,,,,,,,0,,,73,0
181400,note_on,0,0,1,,,,,,,,,0,,,97,75
181479,note_on,79,0,1,,,,,,,,,0,,,97,0
181479,note_on,0,0,1,,,,,,,,,0,,,70,75
181560,set_tempo,240,1,0,,,,,,769231,,,,,,,
181560,note_on,0,0,1,,,,,,,,,0,,,97,75
181560,note_on,81,0,1,,,,,,,,,0,,,70,0
181640,note_on,80,0,1,,,,,,,,,0,,,97,0
181640,note_on,0,0,1,,,,,,,,,0,,,67,75
181719,note_on,79,0,1,,,,,,,,,0,,,67,0
181719,note_on,0,0,1,,,,,,,,,0,,,97,75
181800,note_on,81,0,1,,,,,,,,,0,,,97,0
181800,note_on,0,0,1,,,,,,,,,0,,,66,75
181800,set_tempo,240,1,0,,,,,,869565,,,,,,,
181880,note_on,0,0,1,,,,,,,,,0,,,97,75
181880,note_on,80,0,1,,,,,,,,,0,,,66,0
181959,note_on,0,0,1,,,,,,,,,0,,,65,75
181959,note_on,79,0,1,,,,,,,,,0,,,97,0
182040,note_on,81,0,1,,,,,,,,,0,,,65,0
182040,note_on,0,0,1,,,,,,,,,0,,,97,75
182040,set_tempo,0,1,0,,,,,,1052632,,,,,,,
182040,time_signature,240,1,0,1,8,12,8,,,,,,,,,
182040,note_on,1920,0,3,,,,,,,,,2,,,88,0
182160,note_on,120,0,1,,,,,,,,,0,,,97,0
182160,note_on,0,0,1,,,,,,,,,0,,,64,75
182280,time_signature,240,1,0,7,4,24,8,,,,,,,,,
182280,note_on,0,0,1,,,,,,,,,0,,,97,75
182280,note_on,120,0,1,,,,,,,,,0,,,64,0
183240,set_tempo,960,1,0,,,,,,600000,,,,,,,
183240,note_on,960,0,1,,,,,,,,,0,,,97,0
183399,note_on,159,0,1,,,,,,,,,0,,,59,75
183560,note_on,0,0,1,,,,,,,,,0,,,60,75
183560,note_on,161,0,1,,,,,,,,,0,,,59,0
183720,note_on,0,0,1,,,,,,,,,0,,,61,75
183720,note_on,160,0,1,,,,,,,,,0,,,60,0
183879,note_on,0,0,1,,,,,,,,,0,,,64,75
183879,note_on,159,0,1,,,,,,,,,0,,,61,0
184040,note_on,0,0,1,,,,,,,,,0,,,65,75
184040,note_on,161,0,1,,,,,,,,,0,,,64,0
184200,note_on,0,0,3,,,,,,,,,2,,,49,75
184200,note_on,0,0,1,,,,,,,,,0,,,68,75
184200,note_on,2160,0,3,,,,,,,,,2,,,36,75
184200,note_on,160,0,1,,,,,,,,,0,,,65,0
184440,note_on,0,0,1,,,,,,,,,0,,,68,88
184440,note_on,240,0,1,,,,,,,,,0,,,68,0
184680,note_on,480,0,3,,,,,,,,,2,,,49,0
184680,note_on,0,0,3,,,,,,,,,2,,,36,0
185160,note_on,480,0,3,,,,,,,,,2,,,48,75
185400,control_change,0,0,3,,,,,,,,,2,64,0,,
185400,note_on,240,0,3,,,,,,,,,2,,,48,0
185520,note_on,0,0,1,,,,,,,,,0,,,67,88
185520,control_change,0,0,1,,,,,,,,,0,64,0,,
185520,note_on,1080,0,1,,,,,,,,,0,,,68,0
185640,note_on,0,0,3,,,,,,,,,2,,,48,62
185640,note_on,0,0,1,,,,,,,,,0,,,65,62
185640,control_change,240,0,3,,,,,,,,,2,64,127,,
185640,note_on,120,0,1,,,,,,,,,0,,,67,0
185640,time_signature,2400,1,0,9,8,12,8,,,,,,,,,
185640,note_on,0,0,1,,,,,,,,,0,,,56,62
186600,note_on,0,0,3,,,,,,,,,2,,,47,62
186600,note_on,960,0,3,,,,,,,,,2,,,48,0
186840,note_on,240,0,3,,,,,,,,,2,,,47,0
186840,note_on,0,0,3,,,,,,,,,2,,,48,62
187080,note_on,240,0,3,,,,,,,,,2,,,48,0
187080,note_on,0,0,1,,,,,,,,,0,,,56,0
187080,note_on,0,0,1,,,,,,,,,0,,,56,62
187080,note_on,0,0,3,,,,,,,,,2,,,49,62
187080,note_on,0,0,1,,,,,,,,,0,,,61,62
187080,note_on,0,0,1,,,,,,,,,0,,,65,62
187080,note_on,1440,0,1,,,,,,,,,0,,,65,0
187320,note_on,0,0,3,,,,,,,,,2,,,53,62
187320,note_on,240,0,3,,,,,,,,,2,,,49,0
187560,note_on,0,0,3,,,,,,,,,2,,,55,62
187560,control_change,0,0,3,,,,,,,,,2,64,0,,
187560,note_on,240,0,3,,,,,,,,,2,,,53,0
187800,note_on,0,0,1,,,,,,,,,0,,,61,0
187800,note_on,720,0,1,,,,,,,,,0,,,65,0
187800,note_on,0,0,1,,,,,,,,,0,,,56,0
187800,note_on,0,0,3,,,,,,,,,2,,,56,62
187800,note_on,18360,0,2,,,,,,,,,1,,,60,62
187800,note_on,0,0,1,,,,,,,,,0,,,65,62
187800,control_change,0,0,3,,,,,,,,,2,64,127,,
187800,note_on,240,0,3,,,,,,,,,2,,,55,0
188040,set_tempo,2400,1,0,,,,,,618557,,,,,,,
188280,set_tempo,240,1,0,,,,,,638298,,,,,,,
188520,set_tempo,240,1,0,,,,,,659341,,,,,,,
188760,set_tempo,240,1,0,,,,,,689655,,,,,,,
188760,note_on,0,0,2,,,,,,,,,1,,,59,62
188760,note_on,960,0,2,,,,,,,,,1,,,60,0
189000,note_on,0,0,2,,,,,,,,,1,,,60,62
189000,note_on,240,0,2,,,,,,,,,1,,,59,0
189000,set_tempo,240,1,0,,,,,,714286,,,,,,,
189240,note_on,0,0,2,,,,,,,,,1,,,61,62
189240,note_on,0,0,1,,,,,,,,,0,,,65,62
189240,set_tempo,240,1,0,,,,,,740741,,,,,,,
189240,note_on,240,0,2,,,,,,,,,1,,,60,0
189240,note_on,1440,0,1,,,,,,,,,0,,,65,0
189240,note_on,1440,0,3,,,,,,,,,2,,,56,0
189240,note_on,0,0,3,,,,,,,,,2,,,53,62
189480,set_tempo,240,1,0,,,,,,769231,,,,,,,
189480,note_on,240,0,2,,,,,,,,,1,,,61,0
189480,note_on,0,0,2,,,,,,,,,1,,,53,62
189720,set_tempo,240,1,0,,,,,,810811,,,,,,,
189720,note_on,240,0,2,,,,,,,,,1,,,53,0
189720,note_on,480,0,3,,,,,,,,,2,,,53,0
189720,control_change,0,0,3,,,,,,,,,2,64,0,,
189720,note_on,0,0,3,,,,,,,,,2,,,49,62
189720,note_on,0,0,2,,,,,,,,,1,,,55,62
189960,time_signature,240,1,0,3,4,24,8,,,,,,,,,
189960,note_on,0,0,2,,,,,,,,,1,,,57,62
189960,note_on,0,0,1,,,,,,,,,0,,,65,62
189960,control_change,0,0,3,,,,,,,,,2,64,127,,
189960,note_on,0,0,3,,,,,,,,,2,,,48,62
189960,note_on,720,0,1,,,,,,,,,0,,,65,0
189960,note_on,240,0,3,,,,,,,,,2,,,49,0
189960,control_change,0,0,1,,,,,,,,,0,64,127,,
189960,note_on,240,0,2,,,,,,,,,1,,,55,0
189960,control_change,0,0,2,,,,,,,,,1,64,127,,
190440,note_on,0,0,1,,,,,,,,,0,,,65,49
190440,note_on,480,0,3,,,,,,,,,2,,,48,0
190440,note_on,0,0,2,,,,,,,,,1,,,57,49
190440,note_on,480,0,1,,,,,,,,,0,,,65,0
190440,note_on,480,0,2,,,,,,,,,1,,,57,0
190440,note_on,0,0,3,,,,,,,,,2,,,48,49
190536,note_on,96,0,1,,,,,,,,,0,,,65,0
190920,note_on,480,0,2,,,,,,,,,1,,,57,0
190920,note_on,480,0,3,,,,,,,,,2,,,48,0
190920,note_on,384,0,1,,,,,,,,,0,,,65,49
190920,note_on,0,0,3,,,,,,,,,2,,,48,49
190920,note_on,0,0,2,,,,,,,,,1,,,57,49
191016,note_on,96,0,1,,,,,,,,,0,,,65,0
191400,note_on,384,0,1,,,,,,,,,0,,,65,49
191400,note_on,480,0,2,,,,,,,,,1,,,57,0
191400,end_of_track,0,1,0,,,,,,,,,,,,,
191400,note_on,0,0,3,,,,,,,,,2,,,48,49
191400,note_on,0,0,2,,,,,,,,,1,,,57,49
191400,time_signature,1440,1,0,8,4,24,8,,,,,,,,,
191400,note_on,480,0,3,,,,,,,,,2,,,48,0
193320,control_change,0,0,2,,,,,,,,,1,64,0,,
193320,end_of_track,0,1,3,,,,,,,,,,,,,
193320,note_on,1920,0,1,,,,,,,,,0,,,65,0
193320,note_on,1920,0,2,,,,,,,,,1,,,57,0
193320,control_change,0,0,3,,,,,,,,,2,64,0,,
193320,note_on,1920,0,3,,,,,,,,,2,,,48,0
193320,control_change,0,0,1,,,,,,,,,0,64,0,,
193320,end_of_track,0,1,2,,,,,,,,,,,,,
193800,control_change,480,0,1,,,,,,,,,0,64,127,,
194760,end_of_track,0,1,1,,,,,,,,,,,,,
194760,control_change,960,0,1,,,,,,,,,0,64,0,,
