tick,type,time,meta,track,numerator,denominator,clocks_per_click,notated_32nd_notes_per_beat,key,tempo,port,program,channel,control,value,note,velocity
0,control_change,0,0,1,,,,,,,,,0,7,127,,
0,copyright,0,1,0,,,,,,,,,,,,,
0,key_signature,0,1,0,,,,,C,,,,,,,,
0,midi_port,0,1,1,,,,,,,0,,,,,,
0,midi_port,0,1,2,,,,,,,0,,,,,,
0,midi_port,0,1,3,,,,,,,0,,,,,,
0,midi_port,0,1,4,,,,,,,0,,,,,,
0,track_name,0,1,3,,,,,,,,,,,,,
0,program_change,0,0,1,,,,,,,,0,0,,,,
0,program_change,0,0,2,,,,,,,,0,1,,,,
0,program_change,0,0,3,,,,,,,,0,2,,,,
0,program_change,0,0,4,,,,,,,,0,3,,,,
0,set_tempo,0,1,0,,,,,,625000,,,,,,,
0,text,0,1,0,,,,,,,,,,,,,
0,time_signature,0,1,0,3,4,24,8,,,,,,,,,
0,track_name,0,1,0,,,,,,,,,,,,,
0,track_name,0,1,1,,,,,,,,,,,,,
0,track_name,0,1,2,,,,,,,,,,,,,
0,control_change,0,0,4,,,,,,,,,3,10,30,,
0,control_change,0,0,4,,,,,,,,,3,7,127,,
0,track_name,0,1,4,,,,,,,,,,,,,
0,control_change,0,0,3,,,,,,,,,2,7,127,,
0,control_change,0,0,1,,,,,,,,,0,10,97,,
0,control_change,0,0,2,,,,,,,,,1,7,127,,
0,control_change,0,0,2,,,,,,,,,1,10,97,,
0,control_change,0,0,3,,,,,,,,,2,10,30,,
1,end_of_track,0,1,5,,,,,,,,,,,,,
1,copyright,1,1,5,,,,,,,,,,,,,
85,set_tempo,85,1,0,,,,,,600000,,,,,,,
720,note_on,720,0,1,,,,,,,,,0,,,76,62
720,note_on,720,0,3,,,,,,,,,2,,,52,49
720,note_on,720,0,4,,,,,,,,,3,,,52,49
800,note_on,80,0,1,,,,,,,,,0,,,76,0
800,note_on,0,0,1,,,,,,,,,0,,,64,62
879,note_on,79,0,1,,,,,,,,,0,,,64,0
879,note_on,0,0,1,,,,,,,,,0,,,76,62
960,note_on,0,0,3,,,,,,,,,2,,,52,49
960,note_on,240,0,3,,,,,,,,,2,,,52,0
960,note_on,0,0,4,,,,,,,,,3,,,51,49
960,note_on,240,0,4,,,,,,,,,3,,,52,0
960,note_on,0,0,1,,,,,,,,,0,,,78,62
960,note_on,81,0,1,,,,,,,,,0,,,76,0
1040,note_on,80,0,1,,,,,,,,,0,,,78,0
1040,note_on,0,0,1,,,,,,,,,0,,,66,62
1119,note_on,79,0,1,,,,,,,,,0,,,66,0
1119,note_on,0,0,1,,,,,,,,,0,,,78,62
1200,note_on,81,0,1,,,,,,,,,0,,,78,0
1200,note_on,0,0,1,,,,,,,,,0,,,80,62
1200,note_on,0,0,4,,,,,,,,,3,,,50,49
1200,note_on,240,0,4,,,,,,,,,3,,,51,0
1200,note_on,240,0,3,,,,,,,,,2,,,52,0
1200,note_on,0,0,3,,,,,,,,,2,,,52,49
1280,note_on,80,0,1,,,,,,,,,0,,,80,0
1280,note_on,0,0,1,,,,,,,,,0,,,68,62
1359,note_on,0,0,1,,,,,,,,,0,,,80,62
1359,note_on,79,0,1,,,,,,,,,0,,,68,0
1440,note_on,0,0,4,,,,,,,,,3,,,48,75
1440,note_on,81,0,1,,,,,,,,,0,,,80,0
1440,note_on,0,0,1,,,,,,,,,0,,,81,62
1440,note_on,240,0,4,,,,,,,,,3,,,50,0
1440,note_on,240,0,3,,,,,,,,,2,,,52,0
1440,note_on,0,0,3,,,,,,,,,2,,,52,49
1440,control_change,0,0,4,,,,,,,,,3,64,127,,
1520,note_on,0,0,1,,,,,,,,,0,,,69,62
1520,note_on,80,0,1,,,,,,,,,0,,,81,0
1599,note_on,79,0,1,,,,,,,,,0,,,69,0
1599,note_on,0,0,1,,,,,,,,,0,,,81,62
1680,note_on,0,0,4,,,,,,,,,3,,,47,49
1680,note_on,240,0,4,,,,,,,,,3,,,48,0
1680,note_on,81,0,1,,,,,,,,,0,,,81,0
1680,note_on,0,0,1,,,,,,,,,0,,,83,62
1760,note_on,80,0,1,,,,,,,,,0,,,83,0
1760,note_on,0,0,1,,,,,,,,,0,,,71,62
1839,note_on,0,0,1,,,,,,,,,0,,,83,62
1839,note_on,79,0,1,,,,,,,,,0,,,71,0
1920,control_change,0,0,4,,,,,,,,,3,64,0,,
1920,note_on,81,0,1,,,,,,,,,0,,,83,0
1920,note_on,240,0,4,,,,,,,,,3,,,47,0
1920,note_on,0,0,1,,,,,,,,,0,,,84,62
1920,note_on,0,0,4,,,,,,,,,3,,,45,49
2000,note_on,80,0,1,,,,,,,,,0,,,84,0
2000,note_on,0,0,1,,,,,,,,,0,,,72,62
2079,note_on,79,0,1,,,,,,,,,0,,,72,0
2079,note_on,0,0,1,,,,,,,,,0,,,84,62
2160,note_on,0,0,3,,,,,,,,,2,,,52,49
2160,note_on,81,0,1,,,,,,,,,0,,,84,0
2160,note_on,720,0,3,,,,,,,,,2,,,52,0
2160,note_on,240,0,4,,,,,,,,,3,,,45,0
2160,note_on,0,0,4,,,,,,,,,3,,,48,49
2160,note_on,0,0,1,,,,,,,,,0,,,81,62
2240,note_on,0,0,1,,,,,,,,,0,,,69,62
2240,note_on,80,0,1,,,,,,,,,0,,,81,0
2319,note_on,79,0,1,,,,,,,,,0,,,69,0
2319,note_on,0,0,1,,,,,,,,,0,,,81,62
2400,note_on,0,0,3,,,,,,,,,2,,,52,49
2400,note_on,240,0,4,,,,,,,,,3,,,48,0
2400,note_on,0,0,4,,,,,,,,,3,,,47,49
2400,note_on,240,0,3,,,,,,,,,2,,,52,0
2400,note_on,81,0,1,,,,,,,,,0,,,81,0
2400,note_on,0,0,1,,,,,,,,,0,,,83,62
2480,note_on,80,0,1,,,,,,,,,0,,,83,0
2480,note_on,0,0,1,,,,,,,,,0,,,71,62
2559,note_on,79,0,1,,,,,,,,,0,,,71,0
2559,note_on,0,0,1,,,,,,,,,0,,,83,62
2640,note_on,0,0,4,,,,,,,,,3,,,45,49
2640,note_on,240,0,4,,,,,,,,,3,,,47,0
2640,note_on,0,0,1,,,,,,,,,0,,,84,62
2640,note_on,0,0,3,,,,,,,,,2,,,52,49
2640,note_on,240,0,3,,,,,,,,,2,,,52,0
2640,note_on,81,0,1,,,,,,,,,0,,,83,0
2720,note_on,80,0,1,,,,,,,,,0,,,84,0
2720,note_on,0,0,1,,,,,,,,,0,,,72,62
2799,note_on,79,0,1,,,,,,,,,0,,,72,0
2799,note_on,0,0,1,,,,,,,,,0,,,84,62
2880,note_on,240,0,4,,,,,,,,,3,,,45,0
2880,note_on,240,0,3,,,,,,,,,2,,,52,0
2880,note_on,81,0,1,,,,,,,,,0,,,84,0
2880,note_on,0,0,4,,,,,,,,,3,,,44,49
2880,note_on,0,0,3,,,,,,,,,2,,,52,49
2880,control_change,0,0,4,,,,,,,,,3,64,127,,
2880,note_on,0,0,1,,,,,,,,,0,,,83,62
2960,note_on,0,0,1,,,,,,,,,0,,,71,62
2960,note_on,80,0,1,,,,,,,,,0,,,83,0
3039,note_on,0,0,1,,,,,,,,,0,,,83,62
3039,note_on,79,0,1,,,,,,,,,0,,,71,0
3120,note_on,0,0,1,,,,,,,,,0,,,81,62
3120,note_on,240,0,4,,,,,,,,,3,,,44,0
3120,note_on,0,0,4,,,,,,,,,3,,,42,49
3120,note_on,81,0,1,,,,,,,,,0,,,83,0
3200,note_on,80,0,1,,,,,,,,,0,,,81,0
3200,note_on,0,0,1,,,,,,,,,0,,,69,62
3279,note_on,79,0,1,,,,,,,,,0,,,69,0
3279,note_on,0,0,1,,,,,,,,,0,,,81,62
3360,note_on,81,0,1,,,,,,,,,0,,,81,0
3360,control_change,0,0,4,,,,,,,,,3,64,0,,
3360,note_on,240,0,4,,,,,,,,,3,,,42,0
3360,note_on,0,0,1,,,,,,,,,0,,,80,62
3360,note_on,0,0,4,,,,,,,,,3,,,40,49
3440,note_on,0,0,1,,,,,,,,,0,,,68,62
3440,note_on,80,0,1,,,,,,,,,0,,,80,0
3519,note_on,79,0,1,,,,,,,,,0,,,68,0
3519,note_on,0,0,1,,,,,,,,,0,,,80,62
3600,note_on,0,0,3,,,,,,,,,2,,,52,49
3600,note_on,0,0,1,,,,,,,,,0,,,77,62
3600,note_on,720,0,3,,,,,,,,,2,,,52,0
3600,note_on,240,0,4,,,,,,,,,3,,,40,0
3600,note_on,81,0,1,,,,,,,,,0,,,80,0
3600,note_on,0,0,4,,,,,,,,,3,,,41,49
3680,note_on,80,0,1,,,,,,,,,0,,,77,0
3680,note_on,0,0,1,,,,,,,,,0,,,65,62
3759,note_on,0,0,1,,,,,,,,,0,,,77,62
3759,note_on,79,0,1,,,,,,,,,0,,,65,0
3840,note_on,240,0,3,,,,,,,,,2,,,52,0
3840,note_on,0,0,1,,,,,,,,,0,,,76,62
3840,note_on,0,0,4,,,,,,,,,3,,,43,49
3840,note_on,0,0,3,,,,,,,,,2,,,52,49
3840,note_on,240,0,4,,,,,,,,,3,,,41,0
3840,note_on,81,0,1,,,,,,,,,0,,,77,0
3920,note_on,80,0,1,,,,,,,,,0,,,76,0
3920,note_on,0,0,1,,,,,,,,,0,,,64,62
3999,note_on,79,0,1,,,,,,,,,0,,,64,0
3999,note_on,0,0,1,,,,,,,,,0,,,76,62
4080,note_on,0,0,3,,,,,,,,,2,,,52,49
4080,note_on,240,0,3,,,,,,,,,2,,,52,0
4080,note_on,81,0,1,,,,,,,,,0,,,76,0
4080,note_on,240,0,4,,,,,,,,,3,,,43,0
4080,note_on,0,0,1,,,,,,,,,0,,,74,62
4080,note_on,0,0,4,,,,,,,,,3,,,44,49
4160,note_on,80,0,1,,,,,,,,,0,,,74,0
4160,note_on,0,0,1,,,,,,,,,0,,,62,62
4239,note_on,0,0,1,,,,,,,,,0,,,74,62
4239,note_on,79,0,1,,,,,,,,,0,,,62,0
4320,note_on,0,0,1,,,,,,,,,0,,,72,62
4320,note_on,240,0,3,,,,,,,,,2,,,52,0
4320,note_on,0,0,3,,,,,,,,,2,,,52,49
4320,note_on,0,0,4,,,,,,,,,3,,,45,49
4320,note_on,240,0,4,,,,,,,,,3,,,44,0
4320,note_on,81,0,1,,,,,,,,,0,,,74,0
4400,note_on,80,0,1,,,,,,,,,0,,,72,0
4400,note_on,0,0,1,,,,,,,,,0,,,60,62
4479,note_on,79,0,1,,,,,,,,,0,,,60,0
4479,note_on,0,0,1,,,,,,,,,0,,,72,62
4560,note_on,81,0,1,,,,,,,,,0,,,72,0
4560,note_on,0,0,1,,,,,,,,,0,,,71,62
4560,note_on,240,0,4,,,,,,,,,3,,,45,0
4560,note_on,0,0,4,,,,,,,,,3,,,47,49
4640,note_on,0,0,1,,,,,,,,,0,,,59,62
4640,note_on,80,0,1,,,,,,,,,0,,,71,0
4719,note_on,79,0,1,,,,,,,,,0,,,59,0
4719,note_on,0,0,1,,,,,,,,,0,,,71,62
4800,note_on,0,0,4,,,,,,,,,3,,,48,49
4800,note_on,0,0,1,,,,,,,,,0,,,69,75
4800,note_on,81,0,1,,,,,,,,,0,,,71,0
4800,note_on,240,0,4,,,,,,,,,3,,,47,0
4880,note_on,0,0,1,,,,,,,,,0,,,57,75
4880,note_on,80,0,1,,,,,,,,,0,,,69,0
4959,note_on,0,0,1,,,,,,,,,0,,,69,75
4959,note_on,79,0,1,,,,,,,,,0,,,57,0
5040,note_on,81,0,1,,,,,,,,,0,,,69,0
5040,note_on,0,0,4,,,,,,,,,3,,,45,49
5040,note_on,720,0,3,,,,,,,,,2,,,52,0
5040,note_on,240,0,4,,,,,,,,,3,,,48,0
5040,note_on,0,0,3,,,,,,,,,2,,,52,49
5040,note_on,0,0,1,,,,,,,,,0,,,72,75
5120,note_on,0,0,1,,,,,,,,,0,,,60,75
5120,note_on,80,0,1,,,,,,,,,0,,,72,0
5199,note_on,0,0,1,,,,,,,,,0,,,72,75
5199,note_on,79,0,1,,,,,,,,,0,,,60,0
5280,note_on,0,0,1,,,,,,,,,0,,,71,75
5280,note_on,240,0,3,,,,,,,,,2,,,52,0
5280,note_on,0,0,3,,,,,,,,,2,,,52,49
5280,note_on,240,0,4,,,,,,,,,3,,,45,0
5280,note_on,0,0,4,,,,,,,,,3,,,47,49
5280,note_on,81,0,1,,,,,,,,,0,,,72,0
5360,note_on,80,0,1,,,,,,,,,0,,,71,0
5360,note_on,0,0,1,,,,,,,,,0,,,59,75
5439,note_on,79,0,1,,,,,,,,,0,,,59,0
5439,note_on,0,0,1,,,,,,,,,0,,,71,75
5520,note_on,240,0,4,,,,,,,,,3,,,47,0
5520,note_on,81,0,1,,,,,,,,,0,,,71,0
5520,note_on,0,0,4,,,,,,,,,3,,,48,49
5520,note_on,0,0,1,,,,,,,,,0,,,69,88
5520,note_on,0,0,3,,,,,,,,,2,,,52,75
5520,note_on,240,0,3,,,,,,,,,2,,,52,0
5600,note_on,0,0,1,,,,,,,,,0,,,57,88
5600,note_on,80,0,1,,,,,,,,,0,,,69,0
5679,note_on,0,0,1,,,,,,,,,0,,,69,88
5679,note_on,79,0,1,,,,,,,,,0,,,57,0
5760,note_on,0,0,3,,,,,,,,,2,,,40,75
5760,note_on,0,0,3,,,,,,,,,2,,,47,75
5760,note_on,0,0,1,,,,,,,,,0,,,68,88
5760,note_on,240,0,4,,,,,,,,,3,,,48,0
5760,note_on,0,0,3,,,,,,,,,2,,,52,75
5760,note_on,240,0,3,,,,,,,,,2,,,52,0
5760,note_on,0,0,1,,,,,,,,,0,,,56,88
5760,note_on,81,0,1,,,,,,,,,0,,,69,0
6000,note_on,0,0,3,,,,,,,,,2,,,47,0
6000,note_on,0,0,1,,,,,,,,,0,,,56,0
6000,note_on,0,0,1,,,,,,,,,0,,,65,88
6000,note_on,0,0,3,,,,,,,,,2,,,40,0
6000,note_on,240,0,1,,,,,,,,,0,,,68,0
6000,note_on,240,0,3,,,,,,,,,2,,,52,0
6080,note_on,80,0,1,,,,,,,,,0,,,65,0
6080,note_on,0,0,1,,,,,,,,,0,,,64,88
6159,note_on,79,0,1,,,,,,,,,0,,,64,0
6159,note_on,0,0,1,,,,,,,,,0,,,63,88
6240,note_on,81,0,1,,,,,,,,,0,,,63,0
6240,note_on,0,0,1,,,,,,,,,0,,,65,88
6320,note_on,0,0,1,,,,,,,,,0,,,64,88
6320,note_on,80,0,1,,,,,,,,,0,,,65,0
6399,note_on,0,0,1,,,,,,,,,0,,,63,88
6399,note_on,79,0,1,,,,,,,,,0,,,64,0
6480,note_on,81,0,1,,,,,,,,,0,,,63,0
6480,note_on,0,0,1,,,,,,,,,0,,,65,75
6560,note_on,80,0,1,,,,,,,,,0,,,65,0
6560,note_on,0,0,1,,,,,,,,,0,,,64,75
6639,note_on,79,0,1,,,,,,,,,0,,,64,0
6639,note_on,0,0,1,,,,,,,,,0,,,63,75
6720,note_on,81,0,1,,,,,,,,,0,,,63,0
6720,note_on,0,0,1,,,,,,,,,0,,,65,75
6800,note_on,80,0,1,,,,,,,,,0,,,65,0
6800,note_on,0,0,1,,,,,,,,,0,,,64,75
6879,note_on,79,0,1,,,,,,,,,0,,,64,0
6879,note_on,0,0,1,,,,,,,,,0,,,63,75
6960,note_on,0,0,1,,,,,,,,,0,,,65,62
6960,note_on,81,0,1,,,,,,,,,0,,,63,0
7040,note_on,0,0,1,,,,,,,,,0,,,64,62
7040,note_on,80,0,1,,,,,,,,,0,,,65,0
7119,note_on,79,0,1,,,,,,,,,0,,,64,0
7119,note_on,0,0,1,,,,,,,,,0,,,63,62
7200,note_on,81,0,1,,,,,,,,,0,,,63,0
7200,note_on,0,0,1,,,,,,,,,0,,,64,62
7200,control_change,0,0,1,,,,,,,,,0,64,127,,
7200,control_change,1200,0,3,,,,,,,,,2,64,127,,
7200,note_on,0,0,3,,,,,,,,,2,,,45,49
7280,note_on,80,0,1,,,,,,,,,0,,,64,0
7280,note_on,0,0,1,,,,,,,,,0,,,69,62
7359,note_on,79,0,1,,,,,,,,,0,,,69,0
7359,note_on,0,0,1,,,,,,,,,0,,,68,62
7440,note_on,81,0,1,,,,,,,,,0,,,68,0
7440,note_on,240,0,3,,,,,,,,,2,,,45,0
7440,note_on,0,0,3,,,,,,,,,2,,,52,49
7440,note_on,0,0,1,,,,,,,,,0,,,69,62
7440,note_on,0,0,3,,,,,,,,,2,,,57,49
7440,note_on,0,0,3,,,,,,,,,2,,,60,49
7487,note_on,0,0,3,,,,,,,,,2,,,57,0
7487,note_on,0,0,3,,,,,,,,,2,,,52,0
7487,note_on,47,0,3,,,,,,,,,2,,,60,0
7520,note_on,0,0,1,,,,,,,,,0,,,72,62
7520,note_on,80,0,1,,,,,,,,,0,,,69,0
7599,note_on,79,0,1,,,,,,,,,0,,,72,0
7599,note_on,0,0,1,,,,,,,,,0,,,71,62
7680,note_on,0,0,3,,,,,,,,,2,,,60,49
7680,note_on,193,0,3,,,,,,,,,2,,,52,49
7680,note_on,0,0,1,,,,,,,,,0,,,72,62
7680,note_on,0,0,3,,,,,,,,,2,,,57,49
7680,note_on,81,0,1,,,,,,,,,0,,,71,0
7727,note_on,0,0,3,,,,,,,,,2,,,52,0
7727,note_on,47,0,3,,,,,,,,,2,,,60,0
7727,note_on,0,0,3,,,,,,,,,2,,,57,0
7760,note_on,80,0,1,,,,,,,,,0,,,72,0
7760,note_on,0,0,1,,,,,,,,,0,,,76,62
7839,note_on,0,0,1,,,,,,,,,0,,,75,62
7839,note_on,79,0,1,,,,,,,,,0,,,76,0
7920,note_on,193,0,3,,,,,,,,,2,,,52,49
7920,note_on,0,0,1,,,,,,,,,0,,,76,62
7920,note_on,81,0,1,,,,,,,,,0,,,75,0
7920,note_on,0,0,3,,,,,,,,,2,,,57,49
7920,note_on,0,0,3,,,,,,,,,2,,,60,49
7967,note_on,0,0,3,,,,,,,,,2,,,52,0
7967,note_on,0,0,3,,,,,,,,,2,,,57,0
7967,note_on,47,0,3,,,,,,,,,2,,,60,0
8000,note_on,80,0,1,,,,,,,,,0,,,76,0
8000,note_on,0,0,1,,,,,,,,,0,,,81,62
8079,note_on,0,0,1,,,,,,,,,0,,,80,62
8079,note_on,79,0,1,,,,,,,,,0,,,81,0
8160,note_on,193,0,3,,,,,,,,,2,,,52,49
8160,note_on,0,0,3,,,,,,,,,2,,,57,49
8160,note_on,0,0,3,,,,,,,,,2,,,60,49
8160,note_on,0,0,1,,,,,,,,,0,,,81,62
8160,note_on,81,0,1,,,,,,,,,0,,,80,0
8207,note_on,47,0,3,,,,,,,,,2,,,60,0
8207,note_on,0,0,3,,,,,,,,,2,,,52,0
8207,note_on,0,0,3,,,,,,,,,2,,,57,0
8240,note_on,0,0,1,,,,,,,,,0,,,84,62
8240,note_on,80,0,1,,,,,,,,,0,,,81,0
8319,note_on,79,0,1,,,,,,,,,0,,,84,0
8319,note_on,0,0,1,,,,,,,,,0,,,83,62
8400,note_on,193,0,3,,,,,,,,,2,,,52,49
8400,note_on,81,0,1,,,,,,,,,0,,,83,0
8400,note_on,0,0,3,,,,,,,,,2,,,57,49
8400,note_on,0,0,3,,,,,,,,,2,,,60,49
8400,note_on,0,0,1,,,,,,,,,0,,,84,62
8447,note_on,47,0,3,,,,,,,,,2,,,60,0
8447,note_on,0,0,3,,,,,,,,,2,,,57,0
8447,note_on,0,0,3,,,,,,,,,2,,,52,0
8480,note_on,0,0,1,,,,,,,,,0,,,88,62
8480,note_on,80,0,1,,,,,,,,,0,,,84,0
8559,note_on,0,0,1,,,,,,,,,0,,,87,62
8559,note_on,79,0,1,,,,,,,,,0,,,88,0
8640,note_on,0,0,1,,,,,,,,,0,,,88,62
8640,note_on,0,0,3,,,,,,,,,2,,,45,49
8640,control_change,193,0,3,,,,,,,,,2,64,127,,
8640,note_on,81,0,1,,,,,,,,,0,,,87,0
8720,note_on,0,0,1,,,,,,,,,0,,,93,62
8720,note_on,80,0,1,,,,,,,,,0,,,88,0
8799,note_on,79,0,1,,,,,,,,,0,,,93,0
8799,note_on,0,0,1,,,,,,,,,0,,,92,62
8880,note_on,0,0,3,,,,,,,,,2,,,52,49
8880,note_on,81,0,1,,,,,,,,,0,,,92,0
8880,note_on,0,0,3,,,,,,,,,2,,,60,49
8880,note_on,0,0,3,,,,,,,,,2,,,57,49
8880,note_on,240,0,3,,,,,,,,,2,,,45,0
8880,note_on,0,0,1,,,,,,,,,0,,,93,62
8927,note_on,47,0,3,,,,,,,,,2,,,60,0
8927,note_on,0,0,3,,,,,,,,,2,,,57,0
8927,note_on,0,0,3,,,,,,,,,2,,,52,0
8960,note_on,0,0,1,,,,,,,,,0,,,96,62
8960,note_on,80,0,1,,,,,,,,,0,,,93,0
9039,note_on,0,0,1,,,,,,,,,0,,,95,62
9039,note_on,79,0,1,,,,,,,,,0,,,96,0
9120,note_on,0,0,3,,,,,,,,,2,,,60,49
9120,note_on,0,0,1,,,,,,,,,0,,,96,62
9120,note_on,0,0,3,,,,,,,,,2,,,57,49
9120,note_on,81,0,1,,,,,,,,,0,,,95,0
9120,note_on,193,0,3,,,,,,,,,2,,,52,49
9167,note_on,0,0,3,,,,,,,,,2,,,52,0
9167,note_on,0,0,3,,,,,,,,,2,,,57,0
9167,note_on,47,0,3,,,,,,,,,2,,,60,0
9200,note_on,0,0,1,,,,,,,,,0,,,100,62
9200,note_on,80,0,1,,,,,,,,,0,,,96,0
9279,note_on,79,0,1,,,,,,,,,0,,,100,0
9279,note_on,0,0,1,,,,,,,,,0,,,99,62
9360,note_on,193,0,3,,,,,,,,,2,,,52,49
9360,note_on,0,0,1,,,,,,,,,0,,,100,62
9360,note_on,0,0,3,,,,,,,,,2,,,60,49
9360,note_on,0,0,3,,,,,,,,,2,,,57,49
9360,note_on,81,0,1,,,,,,,,,0,,,99,0
9407,note_on,0,0,3,,,,,,,,,2,,,52,0
9407,note_on,47,0,3,,,,,,,,,2,,,60,0
9407,note_on,0,0,3,,,,,,,,,2,,,57,0
9440,note_on,80,0,1,,,,,,,,,0,,,100,0
9440,note_on,0,0,1,,,,,,,,,0,,,100,62
9519,note_on,0,0,1,,,,,,,,,0,,,100,62
9519,note_on,79,0,1,,,,,,,,,0,,,100,0
9600,note_on,0,0,1,,,,,,,,,0,,,100,75
9600,note_on,0,0,3,,,,,,,,,2,,,57,49
9600,note_on,81,0,1,,,,,,,,,0,,,100,0
9600,note_on,0,0,3,,,,,,,,,2,,,60,49
9600,note_on,193,0,3,,,,,,,,,2,,,52,49
9647,note_on,47,0,3,,,,,,,,,2,,,60,0
9647,note_on,0,0,3,,,,,,,,,2,,,52,0
9647,note_on,0,0,3,,,,,,,,,2,,,57,0
9680,note_on,0,0,1,,,,,,,,,0,,,100,75
9680,note_on,80,0,1,,,,,,,,,0,,,100,0
9759,note_on,0,0,1,,,,,,,,,0,,,100,75
9759,note_on,79,0,1,,,,,,,,,0,,,100,0
9840,control_change,193,0,3,,,,,,,,,2,64,0,,
9840,note_on,0,0,3,,,,,,,,,2,,,60,49
9840,note_on,0,0,3,,,,,,,,,2,,,57,49
9840,note_on,0,0,3,,,,,,,,,2,,,52,49
9840,note_on,81,0,1,,,,,,,,,0,,,100,0
9840,note_on,0,0,1,,,,,,,,,0,,,100,62
9887,note_on,0,0,3,,,,,,,,,2,,,52,0
9887,note_on,47,0,3,,,,,,,,,2,,,60,0
9887,note_on,0,0,3,,,,,,,,,2,,,57,0
9920,note_on,0,0,1,,,,,,,,,0,,,100,62
9920,note_on,80,0,1,,,,,,,,,0,,,100,0
9999,control_change,0,0,1,,,,,,,,,0,64,0,,
9999,note_on,0,0,1,,,,,,,,,0,,,100,62
9999,note_on,79,0,1,,,,,,,,,0,,,100,0
10080,note_on,193,0,3,,,,,,,,,2,,,50,49
10080,note_on,81,0,1,,,,,,,,,0,,,100,0
10080,note_on,0,0,1,,,,,,,,,0,,,101,62
10160,note_on,0,0,1,,,,,,,,,0,,,100,62
10160,note_on,80,0,1,,,,,,,,,0,,,101,0
10239,note_on,0,0,1,,,,,,,,,0,,,98,62
10239,note_on,79,0,1,,,,,,,,,0,,,100,0
10320,note_on,81,0,1,,,,,,,,,0,,,98,0
10320,note_on,0,0,3,,,,,,,,,2,,,57,49
10320,note_on,0,0,3,,,,,,,,,2,,,62,49
10320,note_on,0,0,1,,,,,,,,,0,,,96,62
10320,note_on,0,0,3,,,,,,,,,2,,,65,49
10320,note_on,240,0,3,,,,,,,,,2,,,50,0
10400,note_on,80,0,1,,,,,,,,,0,,,96,0
10400,note_on,0,0,1,,,,,,,,,0,,,95,62
10479,note_on,79,0,1,,,,,,,,,0,,,95,0
10479,note_on,0,0,1,,,,,,,,,0,,,93,62
10560,note_on,0,0,3,,,,,,,,,2,,,65,49
10560,note_on,0,0,3,,,,,,,,,2,,,62,49
10560,note_on,0,0,3,,,,,,,,,2,,,62,0
10560,note_on,0,0,3,,,,,,,,,2,,,57,49
10560,note_on,81,0,1,,,,,,,,,0,,,93,0
10560,note_on,0,0,3,,,,,,,,,2,,,57,0
10560,note_on,240,0,3,,,,,,,,,2,,,65,0
10560,note_on,0,0,1,,,,,,,,,0,,,92,62
10640,note_on,0,0,1,,,,,,,,,0,,,89,62
10640,note_on,80,0,1,,,,,,,,,0,,,92,0
10719,note_on,79,0,1,,,,,,,,,0,,,89,0
10719,note_on,0,0,1,,,,,,,,,0,,,88,62
10800,note_on,81,0,1,,,,,,,,,0,,,88,0
10800,note_on,240,0,3,,,,,,,,,2,,,65,0
10800,note_on,0,0,3,,,,,,,,,2,,,62,49
10800,note_on,0,0,3,,,,,,,,,2,,,65,49
10800,note_on,0,0,3,,,,,,,,,2,,,57,0
10800,note_on,0,0,3,,,,,,,,,2,,,57,49
10800,note_on,0,0,3,,,,,,,,,2,,,62,0
10800,note_on,0,0,1,,,,,,,,,0,,,86,62
10880,note_on,0,0,1,,,,,,,,,0,,,84,62
10880,note_on,80,0,1,,,,,,,,,0,,,86,0
10959,note_on,79,0,1,,,,,,,,,0,,,84,0
10959,note_on,0,0,1,,,,,,,,,0,,,83,62
11040,note_on,81,0,1,,,,,,,,,0,,,83,0
11040,note_on,0,0,1,,,,,,,,,0,,,81,75
11040,note_on,0,0,3,,,,,,,,,2,,,52,62
11040,note_on,0,0,3,,,,,,,,,2,,,57,0
11040,note_on,0,0,3,,,,,,,,,2,,,62,0
11040,note_on,240,0,3,,,,,,,,,2,,,65,0
11120,note_on,80,0,1,,,,,,,,,0,,,81,0
11120,note_on,0,0,1,,,,,,,,,0,,,80,75
11199,note_on,79,0,1,,,,,,,,,0,,,80,0
11199,note_on,0,0,1,,,,,,,,,0,,,77,75
11280,note_on,240,0,3,,,,,,,,,2,,,52,0
11280,note_on,0,0,1,,,,,,,,,0,,,76,75
11280,note_on,0,0,3,,,,,,,,,2,,,62,62
11280,note_on,0,0,3,,,,,,,,,2,,,64,62
11280,note_on,0,0,3,,,,,,,,,2,,,56,62
11280,note_on,81,0,1,,,,,,,,,0,,,77,0
11360,note_on,80,0,1,,,,,,,,,0,,,76,0
11360,note_on,0,0,1,,,,,,,,,0,,,74,75
11439,note_on,79,0,1,,,,,,,,,0,,,74,0
11439,note_on,0,0,1,,,,,,,,,0,,,71,75
11520,note_on,240,0,3,,,,,,,,,2,,,64,0
11520,note_on,0,0,3,,,,,,,,,2,,,45,62
11520,note_on,0,0,3,,,,,,,,,2,,,56,0
11520,note_on,0,0,3,,,,,,,,,2,,,62,0
11520,note_on,0,0,1,,,,,,,,,0,,,69,75
11520,note_on,81,0,1,,,,,,,,,0,,,71,0
11567,note_on,47,0,3,,,,,,,,,2,,,45,0
11600,note_on,80,0,1,,,,,,,,,0,,,69,0
11600,note_on,0,0,1,,,,,,,,,0,,,72,75
11679,note_on,0,0,1,,,,,,,,,0,,,76,75
11679,note_on,79,0,1,,,,,,,,,0,,,72,0
11760,note_on,0,0,3,,,,,,,,,2,,,64,62
11760,note_on,193,0,3,,,,,,,,,2,,,60,62
11760,note_on,0,0,1,,,,,,,,,0,,,81,75
11760,note_on,81,0,1,,,,,,,,,0,,,76,0
11807,note_on,47,0,3,,,,,,,,,2,,,64,0
11807,note_on,0,0,3,,,,,,,,,2,,,60,0
11840,note_on,0,0,1,,,,,,,,,0,,,84,75
11840,note_on,80,0,1,,,,,,,,,0,,,81,0
11919,note_on,0,0,1,,,,,,,,,0,,,88,75
11919,note_on,79,0,1,,,,,,,,,0,,,84,0
12000,note_on,81,0,1,,,,,,,,,0,,,88,0
12000,note_on,193,0,3,,,,,,,,,2,,,57,75
12000,note_on,0,0,1,,,,,,,,,0,,,93,88
12047,note_on,47,0,3,,,,,,,,,2,,,57,0
12080,note_on,80,0,1,,,,,,,,,0,,,93,0
12080,note_on,0,0,1,,,,,,,,,0,,,88,88
12159,note_on,79,0,1,,,,,,,,,0,,,88,0
12159,note_on,0,0,1,,,,,,,,,0,,,84,88
12240,note_on,81,0,1,,,,,,,,,0,,,84,0
12240,note_on,193,0,3,,,,,,,,,2,,,60,75
12240,note_on,0,0,3,,,,,,,,,2,,,64,75
12240,note_on,0,0,1,,,,,,,,,0,,,81,88
12287,note_on,0,0,3,,,,,,,,,2,,,60,0
12287,note_on,47,0,3,,,,,,,,,2,,,64,0
12320,note_on,80,0,1,,,,,,,,,0,,,81,0
12320,note_on,0,0,1,,,,,,,,,0,,,76,88
12399,note_on,0,0,1,,,,,,,,,0,,,72,88
12399,note_on,79,0,1,,,,,,,,,0,,,76,0
12480,note_on,193,0,3,,,,,,,,,2,,,57,75
12480,note_on,81,0,1,,,,,,,,,0,,,72,0
12480,note_on,0,0,1,,,,,,,,,0,,,69,88
12527,note_on,47,0,3,,,,,,,,,2,,,57,0
12720,note_on,240,0,1,,,,,,,,,0,,,69,0
12720,note_on,193,0,3,,,,,,,,,2,,,55,75
12720,note_on,0,0,1,,,,,,,,,0,,,79,88
12800,note_on,80,0,1,,,,,,,,,0,,,79,0
12800,note_on,0,0,1,,,,,,,,,0,,,67,88
12840,note_on,0,0,3,,,,,,,,,2,,,53,75
12840,note_on,120,0,3,,,,,,,,,2,,,55,0
12879,note_on,79,0,1,,,,,,,,,0,,,67,0
12879,note_on,0,0,1,,,,,,,,,0,,,79,88
12960,note_on,7200,0,4,,,,,,,,,3,,,52,49
12960,note_on,120,0,3,,,,,,,,,2,,,53,0
12960,note_on,0,0,3,,,,,,,,,2,,,55,75
12960,note_on,0,0,1,,,,,,,,,0,,,84,88
12960,note_on,81,0,1,,,,,,,,,0,,,79,0
13040,note_on,80,0,1,,,,,,,,,0,,,84,0
13040,note_on,0,0,1,,,,,,,,,0,,,72,88
13119,note_on,79,0,1,,,,,,,,,0,,,72,0
13119,note_on,0,0,1,,,,,,,,,0,,,84,88
13200,note_on,0,0,4,,,,,,,,,3,,,50,49
13200,note_on,240,0,4,,,,,,,,,3,,,52,0
13200,note_on,81,0,1,,,,,,,,,0,,,84,0
13200,note_on,0,0,1,,,,,,,,,0,,,86,88
13280,note_on,0,0,1,,,,,,,,,0,,,74,88
13280,note_on,80,0,1,,,,,,,,,0,,,86,0
13359,note_on,0,0,1,,,,,,,,,0,,,86,88
13359,note_on,79,0,1,,,,,,,,,0,,,74,0
13440,note_on,81,0,1,,,,,,,,,0,,,86,0
13440,note_on,240,0,4,,,,,,,,,3,,,50,0
13440,note_on,0,0,4,,,,,,,,,3,,,48,49
13440,note_on,0,0,1,,,,,,,,,0,,,88,88
13520,note_on,0,0,1,,,,,,,,,0,,,76,88
13520,note_on,80,0,1,,,,,,,,,0,,,88,0
13599,note_on,0,0,1,,,,,,,,,0,,,88,88
13599,note_on,79,0,1,,,,,,,,,0,,,76,0
13680,note_on,0,0,1,,,,,,,,,0,,,86,88
13680,note_on,81,0,1,,,,,,,,,0,,,88,0
13680,note_on,720,0,3,,,,,,,,,2,,,55,0
13680,note_on,0,0,3,,,,,,,,,2,,,59,75
13680,note_on,0,0,4,,,,,,,,,3,,,50,49
13680,note_on,0,0,4,,,,,,,,,3,,,55,49
13680,control_change,0,0,3,,,,,,,,,2,64,127,,
13680,note_on,240,0,4,,,,,,,,,3,,,48,0
13760,note_on,0,0,1,,,,,,,,,0,,,74,88
13760,note_on,80,0,1,,,,,,,,,0,,,86,0
13839,note_on,79,0,1,,,,,,,,,0,,,74,0
13839,note_on,0,0,1,,,,,,,,,0,,,86,88
13920,note_on,0,0,3,,,,,,,,,2,,,60,75
13920,note_on,240,0,4,,,,,,,,,3,,,55,0
13920,note_on,0,0,4,,,,,,,,,3,,,55,49
13920,note_on,240,0,3,,,,,,,,,2,,,59,0
13920,note_on,81,0,1,,,,,,,,,0,,,86,0
13920,note_on,0,0,1,,,,,,,,,0,,,84,88
13920,note_on,0,0,4,,,,,,,,,3,,,50,0
13920,note_on,0,0,4,,,,,,,,,3,,,52,49
14000,note_on,0,0,1,,,,,,,,,0,,,72,88
14000,note_on,80,0,1,,,,,,,,,0,,,84,0
14079,note_on,0,0,1,,,,,,,,,0,,,84,88
14079,note_on,79,0,1,,,,,,,,,0,,,72,0
14160,note_on,81,0,1,,,,,,,,,0,,,84,0
14160,control_change,0,0,3,,,,,,,,,2,64,0,,
14160,note_on,240,0,3,,,,,,,,,2,,,60,0
14160,note_on,0,0,3,,,,,,,,,2,,,62,75
14160,note_on,0,0,4,,,,,,,,,3,,,52,0
14160,note_on,240,0,4,,,,,,,,,3,,,55,0
14160,note_on,0,0,1,,,,,,,,,0,,,83,88
14160,note_on,0,0,4,,,,,,,,,3,,,52,49
14160,note_on,0,0,4,,,,,,,,,3,,,56,49
14240,note_on,0,0,1,,,,,,,,,0,,,71,88
14240,note_on,80,0,1,,,,,,,,,0,,,83,0
14319,note_on,79,0,1,,,,,,,,,0,,,71,0
14319,note_on,0,0,1,,,,,,,,,0,,,83,88
14400,note_on,0,0,4,,,,,,,,,3,,,52,0
14400,note_on,240,0,3,,,,,,,,,2,,,62,0
14400,note_on,0,0,4,,,,,,,,,3,,,53,49
14400,note_on,81,0,1,,,,,,,,,0,,,83,0
14400,note_on,0,0,4,,,,,,,,,3,,,56,49
14400,note_on,0,0,1,,,,,,,,,0,,,83,88
14400,note_on,240,0,4,,,,,,,,,3,,,56,0
14400,note_on,0,0,3,,,,,,,,,2,,,62,75
14480,note_on,0,0,1,,,,,,,,,0,,,71,88
14480,note_on,80,0,1,,,,,,,,,0,,,83,0
14559,note_on,0,0,1,,,,,,,,,0,,,83,88
14559,note_on,79,0,1,,,,,,,,,0,,,71,0
14640,note_on,81,0,1,,,,,,,,,0,,,83,0
14640,note_on,240,0,3,,,,,,,,,2,,,62,0
14640,note_on,0,0,3,,,,,,,,,2,,,57,62
14640,note_on,0,0,3,,,,,,,,,2,,,60,62
14640,note_on,0,0,1,,,,,,,,,0,,,81,75
14720,note_on,80,0,1,,,,,,,,,0,,,81,0
14720,note_on,0,0,1,,,,,,,,,0,,,69,75
14799,note_on,0,0,1,,,,,,,,,0,,,81,75
14799,note_on,79,0,1,,,,,,,,,0,,,69,0
14880,note_on,0,0,1,,,,,,,,,0,,,80,75
14880,note_on,240,0,3,,,,,,,,,2,,,60,0
14880,note_on,0,0,3,,,,,,,,,2,,,59,62
14880,note_on,81,0,1,,,,,,,,,0,,,81,0
14880,note_on,0,0,3,,,,,,,,,2,,,57,0
14960,note_on,0,0,1,,,,,,,,,0,,,68,75
14960,note_on,80,0,1,,,,,,,,,0,,,80,0
15039,note_on,0,0,1,,,,,,,,,0,,,80,75
15039,note_on,79,0,1,,,,,,,,,0,,,68,0
15120,note_on,0,0,1,,,,,,,,,0,,,81,75
15120,note_on,0,0,3,,,,,,,,,2,,,60,62
15120,note_on,81,0,1,,,,,,,,,0,,,80,0
15120,note_on,0,0,4,,,,,,,,,3,,,57,49
15120,note_on,0,0,4,,,,,,,,,3,,,53,49
15120,note_on,0,0,4,,,,,,,,,3,,,53,0
15120,note_on,240,0,3,,,,,,,,,2,,,59,0
15120,note_on,720,0,4,,,,,,,,,3,,,56,0
15200,note_on,0,0,1,,,,,,,,,0,,,69,75
15200,note_on,80,0,1,,,,,,,,,0,,,81,0
15279,note_on,0,0,1,,,,,,,,,0,,,81,75
15279,note_on,79,0,1,,,,,,,,,0,,,69,0
15360,note_on,240,0,4,,,,,,,,,3,,,57,0
15360,note_on,0,0,1,,,,,,,,,0,,,80,75
15360,note_on,0,0,3,,,,,,,,,2,,,59,62
15360,note_on,240,0,3,,,,,,,,,2,,,60,0
15360,note_on,0,0,4,,,,,,,,,3,,,57,49
15360,note_on,81,0,1,,,,,,,,,0,,,81,0
15440,note_on,0,0,1,,,,,,,,,0,,,68,75
15440,note_on,80,0,1,,,,,,,,,0,,,80,0
15480,note_on,120,0,4,,,,,,,,,3,,,57,0
15480,note_on,0,0,4,,,,,,,,,3,,,55,49
15480,note_on,0,0,4,,,,,,,,,3,,,53,0
15519,note_on,79,0,1,,,,,,,,,0,,,68,0
15519,note_on,0,0,1,,,,,,,,,0,,,80,75
15600,note_on,0,0,3,,,,,,,,,2,,,61,62
15600,note_on,0,0,1,,,,,,,,,0,,,81,75
15600,note_on,120,0,4,,,,,,,,,3,,,55,0
15600,note_on,240,0,3,,,,,,,,,2,,,59,0
15600,note_on,0,0,4,,,,,,,,,3,,,52,49
15600,note_on,81,0,1,,,,,,,,,0,,,80,0
15680,note_on,80,0,1,,,,,,,,,0,,,81,0
15680,note_on,0,0,1,,,,,,,,,0,,,69,75
15759,note_on,79,0,1,,,,,,,,,0,,,69,0
15759,note_on,0,0,1,,,,,,,,,0,,,81,75
15840,note_on,0,0,1,,,,,,,,,0,,,86,75
15840,note_on,240,0,4,,,,,,,,,3,,,52,0
15840,note_on,240,0,3,,,,,,,,,2,,,61,0
15840,note_on,81,0,1,,,,,,,,,0,,,81,0
15840,note_on,0,0,3,,,,,,,,,2,,,62,62
15840,note_on,0,0,3,,,,,,,,,2,,,57,62
15840,note_on,0,0,3,,,,,,,,,2,,,53,62
15920,note_on,80,0,1,,,,,,,,,0,,,86,0
15920,note_on,0,0,1,,,,,,,,,0,,,74,75
15999,note_on,79,0,1,,,,,,,,,0,,,74,0
15999,note_on,0,0,1,,,,,,,,,0,,,86,75
16080,note_on,0,0,3,,,,,,,,,2,,,57,0
16080,note_on,81,0,1,,,,,,,,,0,,,86,0
16080,note_on,0,0,1,,,,,,,,,0,,,88,75
16080,note_on,0,0,3,,,,,,,,,2,,,58,62
16080,note_on,0,0,3,,,,,,,,,2,,,55,62
16080,note_on,0,0,3,,,,,,,,,2,,,49,62
16080,note_on,0,0,3,,,,,,,,,2,,,53,0
16080,note_on,240,0,3,,,,,,,,,2,,,62,0
16160,note_on,80,0,1,,,,,,,,,0,,,88,0
16160,note_on,0,0,1,,,,,,,,,0,,,76,75
16239,note_on,79,0,1,,,,,,,,,0,,,76,0
16239,note_on,0,0,1,,,,,,,,,0,,,88,75
16320,note_on,240,0,3,,,,,,,,,2,,,58,0
16320,note_on,0,0,1,,,,,,,,,0,,,89,75
16320,note_on,0,0,3,,,,,,,,,2,,,49,0
16320,note_on,0,0,3,,,,,,,,,2,,,50,62
16320,note_on,0,0,3,,,,,,,,,2,,,53,62
16320,note_on,0,0,3,,,,,,,,,2,,,55,0
16320,note_on,81,0,1,,,,,,,,,0,,,88,0
16320,note_on,0,0,3,,,,,,,,,2,,,57,62
16400,note_on,80,0,1,,,,,,,,,0,,,89,0
16400,note_on,0,0,1,,,,,,,,,0,,,77,75
16479,note_on,79,0,1,,,,,,,,,0,,,77,0
16479,note_on,0,0,1,,,,,,,,,0,,,89,75
16560,note_on,0,0,3,,,,,,,,,2,,,50,0
16560,note_on,240,0,3,,,,,,,,,2,,,57,0
16560,note_on,0,0,1,,,,,,,,,0,,,88,75
16560,note_on,0,0,3,,,,,,,,,2,,,61,62
16560,note_on,0,0,3,,,,,,,,,2,,,52,62
16560,note_on,81,0,1,,,,,,,,,0,,,89,0
16560,note_on,0,0,3,,,,,,,,,2,,,53,0
16560,note_on,0,0,3,,,,,,,,,2,,,55,62
16640,note_on,80,0,1,,,,,,,,,0,,,88,0
16640,note_on,0,0,1,,,,,,,,,0,,,76,75
16719,note_on,79,0,1,,,,,,,,,0,,,76,0
16719,note_on,0,0,1,,,,,,,,,0,,,88,75
16800,note_on,0,0,3,,,,,,,,,2,,,55,0
16800,note_on,0,0,3,,,,,,,,,2,,,62,75
16800,note_on,0,0,3,,,,,,,,,2,,,57,75
16800,note_on,240,0,3,,,,,,,,,2,,,61,0
16800,note_on,81,0,1,,,,,,,,,0,,,88,0
16800,note_on,0,0,3,,,,,,,,,2,,,52,0
16800,note_on,0,0,1,,,,,,,,,0,,,86,88
16800,note_on,0,0,3,,,,,,,,,2,,,53,75
16880,note_on,0,0,1,,,,,,,,,0,,,74,88
16880,note_on,80,0,1,,,,,,,,,0,,,86,0
16959,note_on,0,0,1,,,,,,,,,0,,,86,88
16959,note_on,79,0,1,,,,,,,,,0,,,74,0
17040,note_on,0,0,3,,,,,,,,,2,,,63,75
17040,note_on,81,0,1,,,,,,,,,0,,,86,0
17040,note_on,240,0,3,,,,,,,,,2,,,62,0
17040,note_on,0,0,1,,,,,,,,,0,,,84,88
17040,note_on,0,0,3,,,,,,,,,2,,,57,75
17040,note_on,0,0,3,,,,,,,,,2,,,57,0
17040,note_on,0,0,3,,,,,,,,,2,,,54,75
17040,note_on,0,0,3,,,,,,,,,2,,,53,0
17120,note_on,80,0,1,,,,,,,,,0,,,84,0
17120,note_on,0,0,1,,,,,,,,,0,,,72,88
17199,note_on,0,0,1,,,,,,,,,0,,,84,88
17199,note_on,79,0,1,,,,,,,,,0,,,72,0
17280,note_on,1440,0,4,,,,,,,,,3,,,55,75
17280,note_on,0,0,1,,,,,,,,,0,,,84,88
17280,note_on,0,0,3,,,,,,,,,2,,,64,75
17280,note_on,0,0,3,,,,,,,,,2,,,54,0
17280,note_on,0,0,3,,,,,,,,,2,,,57,0
17280,note_on,240,0,3,,,,,,,,,2,,,63,0
17280,note_on,81,0,1,,,,,,,,,0,,,84,0
17360,note_on,0,0,1,,,,,,,,,0,,,72,88
17360,note_on,80,0,1,,,,,,,,,0,,,84,0
17439,note_on,79,0,1,,,,,,,,,0,,,72,0
17439,note_on,0,0,1,,,,,,,,,0,,,84,88
17520,note_on,0,0,1,,,,,,,,,0,,,83,88
17520,note_on,81,0,1,,,,,,,,,0,,,84,0
17520,note_on,0,0,3,,,,,,,,,2,,,62,75
17520,note_on,240,0,3,,,,,,,,,2,,,64,0
17600,note_on,0,0,1,,,,,,,,,0,,,71,88
17600,note_on,80,0,1,,,,,,,,,0,,,83,0
17679,note_on,0,0,1,,,,,,,,,0,,,83,88
17679,note_on,79,0,1,,,,,,,,,0,,,71,0
17760,note_on,0,0,3,,,,,,,,,2,,,61,62
17760,note_on,81,0,1,,,,,,,,,0,,,83,0
17760,note_on,240,0,3,,,,,,,,,2,,,62,0
17760,note_on,0,0,1,,,,,,,,,0,,,82,75
17840,note_on,0,0,1,,,,,,,,,0,,,70,75
17840,note_on,80,0,1,,,,,,,,,0,,,82,0
17919,note_on,0,0,1,,,,,,,,,0,,,82,75
17919,note_on,79,0,1,,,,,,,,,0,,,70,0
18000,note_on,0,0,1,,,,,,,,,0,,,83,75
18000,note_on,0,0,3,,,,,,,,,2,,,62,62
18000,note_on,81,0,1,,,,,,,,,0,,,82,0
18000,note_on,240,0,3,,,,,,,,,2,,,61,0
18080,note_on,0,0,1,,,,,,,,,0,,,71,75
18080,note_on,80,0,1,,,,,,,,,0,,,83,0
18159,note_on,79,0,1,,,,,,,,,0,,,71,0
18159,note_on,0,0,1,,,,,,,,,0,,,83,75
18240,note_on,0,0,3,,,,,,,,,2,,,61,62
18240,note_on,81,0,1,,,,,,,,,0,,,83,0
18240,note_on,240,0,3,,,,,,,,,2,,,62,0
18240,note_on,0,0,1,,,,,,,,,0,,,82,75
18320,note_on,0,0,1,,,,,,,,,0,,,70,75
18320,note_on,80,0,1,,,,,,,,,0,,,82,0
18399,note_on,79,0,1,,,,,,,,,0,,,70,0
18399,note_on,0,0,1,,,,,,,,,0,,,82,75
18480,note_on,0,0,3,,,,,,,,,2,,,62,62
18480,note_on,0,0,1,,,,,,,,,0,,,83,75
18480,note_on,240,0,3,,,,,,,,,2,,,61,0
18480,note_on,81,0,1,,,,,,,,,0,,,82,0
18560,note_on,0,0,1,,,,,,,,,0,,,71,75
18560,note_on,80,0,1,,,,,,,,,0,,,83,0
18639,note_on,0,0,1,,,,,,,,,0,,,83,75
18639,note_on,79,0,1,,,,,,,,,0,,,71,0
18720,control_change,0,0,1,,,,,,,,,0,64,127,,
18720,end_of_track,0,1,4,,,,,,,,,,,,,
18720,note_on,1440,0,4,,,,,,,,,3,,,55,0
18720,note_on,240,0,3,,,,,,,,,2,,,62,0
18720,note_on,0,0,3,,,,,,,,,2,,,48,62
18720,note_on,81,0,1,,,,,,,,,0,,,83,0
18720,note_on,0,0,1,,,,,,,,,0,,,67,75
18720,control_change,0,0,3,,,,,,,,,2,64,127,,
18800,note_on,80,0,1,,,,,,,,,0,,,67,0
18800,note_on,0,0,1,,,,,,,,,0,,,72,75
18879,note_on,0,0,1,,,,,,,,,0,,,71,75
18879,note_on,79,0,1,,,,,,,,,0,,,72,0
18960,note_on,0,0,1,,,,,,,,,0,,,72,75
18960,note_on,240,0,3,,,,,,,,,2,,,48,0
18960,note_on,81,0,1,,,,,,,,,0,,,71,0
18960,note_on,0,0,3,,,,,,,,,2,,,55,62
18960,note_on,0,0,3,,,,,,,,,2,,,60,62
18960,note_on,0,0,3,,,,,,,,,2,,,64,62
19040,note_on,80,0,1,,,,,,,,,0,,,72,0
19040,note_on,0,0,1,,,,,,,,,0,,,76,75
19119,note_on,0,0,1,,,,,,,,,0,,,75,75
19119,note_on,79,0,1,,,,,,,,,0,,,76,0
19200,note_on,0,0,3,,,,,,,,,2,,,64,62
19200,note_on,0,0,3,,,,,,,,,2,,,60,62
19200,note_on,0,0,3,,,,,,,,,2,,,60,0
19200,note_on,0,0,3,,,,,,,,,2,,,55,62
19200,note_on,0,0,3,,,,,,,,,2,,,55,0
19200,note_on,240,0,3,,,,,,,,,2,,,64,0
19200,note_on,0,0,1,,,,,,,,,0,,,76,75
19200,note_on,81,0,1,,,,,,,,,0,,,75,0
19280,note_on,80,0,1,,,,,,,,,0,,,76,0
19280,note_on,0,0,1,,,,,,,,,0,,,79,75
19359,note_on,0,0,1,,,,,,,,,0,,,78,75
19359,note_on,79,0,1,,,,,,,,,0,,,79,0
19440,note_on,240,0,3,,,,,,,,,2,,,64,0
19440,note_on,81,0,1,,,,,,,,,0,,,78,0
19440,note_on,0,0,3,,,,,,,,,2,,,55,62
19440,note_on,0,0,1,,,,,,,,,0,,,79,75
19440,note_on,0,0,3,,,,,,,,,2,,,55,0
19440,note_on,0,0,3,,,,,,,,,2,,,64,62
19440,note_on,0,0,3,,,,,,,,,2,,,60,0
19440,note_on,0,0,3,,,,,,,,,2,,,60,62
19520,note_on,0,0,1,,,,,,,,,0,,,84,75
19520,note_on,80,0,1,,,,,,,,,0,,,79,0
19599,note_on,0,0,1,,,,,,,,,0,,,83,75
19599,note_on,79,0,1,,,,,,,,,0,,,84,0
19680,note_on,240,0,3,,,,,,,,,2,,,64,0
19680,note_on,0,0,3,,,,,,,,,2,,,64,62
19680,note_on,0,0,3,,,,,,,,,2,,,60,0
19680,note_on,0,0,3,,,,,,,,,2,,,55,62
19680,note_on,0,0,3,,,,,,,,,2,,,55,0
19680,note_on,0,0,3,,,,,,,,,2,,,60,62
19680,note_on,81,0,1,,,,,,,,,0,,,83,0
19680,note_on,0,0,1,,,,,,,,,0,,,84,75
19760,note_on,0,0,1,,,,,,,,,0,,,88,75
19760,note_on,80,0,1,,,,,,,,,0,,,84,0
19839,note_on,0,0,1,,,,,,,,,0,,,87,75
19839,note_on,79,0,1,,,,,,,,,0,,,88,0
19920,note_on,0,0,3,,,,,,,,,2,,,64,62
19920,note_on,0,0,1,,,,,,,,,0,,,88,75
19920,note_on,0,0,3,,,,,,,,,2,,,55,0
19920,note_on,0,0,3,,,,,,,,,2,,,55,62
19920,note_on,0,0,3,,,,,,,,,2,,,60,0
19920,note_on,0,0,3,,,,,,,,,2,,,60,62
19920,note_on,240,0,3,,,,,,,,,2,,,64,0
19920,note_on,81,0,1,,,,,,,,,0,,,87,0
20000,note_on,80,0,1,,,,,,,,,0,,,88,0
20000,note_on,0,0,1,,,,,,,,,0,,,91,75
20079,note_on,79,0,1,,,,,,,,,0,,,91,0
20079,note_on,0,0,1,,,,,,,,,0,,,90,75
20160,note_on,0,0,3,,,,,,,,,2,,,60,0
20160,note_on,0,0,3,,,,,,,,,2,,,48,62
20160,note_on,0,0,3,,,,,,,,,2,,,55,0
20160,note_on,240,0,3,,,,,,,,,2,,,64,0
20160,note_on,0,0,1,,,,,,,,,0,,,91,75
20160,note_on,81,0,1,,,,,,,,,0,,,90,0
20240,note_on,80,0,1,,,,,,,,,0,,,91,0
20240,note_on,0,0,1,,,,,,,,,0,,,96,75
20319,note_on,0,0,1,,,,,,,,,0,,,95,75
20319,note_on,79,0,1,,,,,,,,,0,,,96,0
20400,note_on,81,0,1,,,,,,,,,0,,,95,0
20400,note_on,0,0,1,,,,,,,,,0,,,96,75
20400,note_on,240,0,3,,,,,,,,,2,,,48,0
20400,note_on,0,0,3,,,,,,,,,2,,,55,62
20400,note_on,0,0,3,,,,,,,,,2,,,60,62
20400,note_on,0,0,3,,,,,,,,,2,,,64,62
20480,note_on,80,0,1,,,,,,,,,0,,,96,0
20480,note_on,0,0,1,,,,,,,,,0,,,100,75
20559,note_on,79,0,1,,,,,,,,,0,,,100,0
20559,note_on,0,0,1,,,,,,,,,0,,,99,75
20640,note_on,0,0,1,,,,,,,,,0,,,100,75
20640,note_on,81,0,1,,,,,,,,,0,,,99,0
20640,note_on,0,0,3,,,,,,,,,2,,,55,0
20640,note_on,0,0,3,,,,,,,,,2,,,60,62
20640,note_on,0,0,3,,,,,,,,,2,,,55,62
20640,note_on,0,0,3,,,,,,,,,2,,,64,62
20640,note_on,0,0,3,,,,,,,,,2,,,60,0
20640,note_on,240,0,3,,,,,,,,,2,,,64,0
20720,note_on,80,0,1,,,,,,,,,0,,,100,0
20720,note_on,0,0,1,,,,,,,,,0,,,100,75
20799,note_on,0,0,1,,,,,,,,,0,,,100,75
20799,note_on,79,0,1,,,,,,,,,0,,,100,0
20880,note_on,0,0,3,,,,,,,,,2,,,64,62
20880,note_on,0,0,1,,,,,,,,,0,,,100,88
20880,note_on,0,0,3,,,,,,,,,2,,,60,0
20880,note_on,0,0,3,,,,,,,,,2,,,55,0
20880,note_on,81,0,1,,,,,,,,,0,,,100,0
20880,note_on,240,0,3,,,,,,,,,2,,,64,0
20880,note_on,0,0,3,,,,,,,,,2,,,55,62
20880,note_on,0,0,3,,,,,,,,,2,,,60,62
20960,note_on,0,0,1,,,,,,,,,0,,,100,88
20960,note_on,80,0,1,,,,,,,,,0,,,100,0
21039,note_on,79,0,1,,,,,,,,,0,,,100,0
21039,note_on,0,0,1,,,,,,,,,0,,,100,88
21120,note_on,240,0,3,,,,,,,,,2,,,64,0
21120,note_on,0,0,1,,,,,,,,,0,,,100,88
21120,control_change,0,0,1,,,,,,,,,0,64,0,,
21120,note_on,0,0,3,,,,,,,,,2,,,55,0
21120,note_on,0,0,3,,,,,,,,,2,,,55,62
21120,note_on,81,0,1,,,,,,,,,0,,,100,0
21120,control_change,0,0,3,,,,,,,,,2,64,0,,
21120,note_on,0,0,3,,,,,,,,,2,,,64,62
21120,note_on,0,0,3,,,,,,,,,2,,,60,62
21120,note_on,0,0,3,,,,,,,,,2,,,60,0
21200,note_on,80,0,1,,,,,,,,,0,,,100,0
21200,note_on,0,0,1,,,,,,,,,0,,,100,88
21279,note_on,79,0,1,,,,,,,,,0,,,100,0
21279,note_on,0,0,1,,,,,,,,,0,,,100,88
21360,note_on,240,0,3,,,,,,,,,2,,,64,0
21360,note_on,0,0,3,,,,,,,,,2,,,55,0
21360,note_on,0,0,3,,,,,,,,,2,,,55,62
21360,note_on,0,0,3,,,,,,,,,2,,,60,0
21360,note_on,0,0,3,,,,,,,,,2,,,64,62
21360,note_on,81,0,1,,,,,,,,,0,,,100,0
21360,note_on,0,0,3,,,,,,,,,2,,,60,62
21360,note_on,0,0,1,,,,,,,,,0,,,100,75
21440,note_on,0,0,1,,,,,,,,,0,,,100,75
21440,note_on,80,0,1,,,,,,,,,0,,,100,0
21519,note_on,0,0,1,,,,,,,,,0,,,100,75
21519,note_on,79,0,1,,,,,,,,,0,,,100,0
21600,note_on,240,0,3,,,,,,,,,2,,,64,0
21600,note_on,0,0,3,,,,,,,,,2,,,47,75
21600,note_on,81,0,1,,,,,,,,,0,,,100,0
21600,note_on,0,0,3,,,,,,,,,2,,,55,0
21600,note_on,0,0,3,,,,,,,,,2,,,60,0
21600,note_on,0,0,1,,,,,,,,,0,,,101,88
21680,note_on,0,0,1,,,,,,,,,0,,,100,88
21680,note_on,80,0,1,,,,,,,,,0,,,101,0
21759,note_on,0,0,1,,,,,,,,,0,,,98,88
21759,note_on,79,0,1,,,,,,,,,0,,,100,0
21840,note_on,81,0,1,,,,,,,,,0,,,98,0
21840,note_on,0,0,3,,,,,,,,,2,,,56,62
21840,note_on,240,0,3,,,,,,,,,2,,,47,0
21840,note_on,0,0,1,,,,,,,,,0,,,96,88
21840,note_on,0,0,3,,,,,,,,,2,,,64,62
21840,note_on,0,0,3,,,,,,,,,2,,,62,62
21920,note_on,80,0,1,,,,,,,,,0,,,96,0
21920,note_on,0,0,1,,,,,,,,,0,,,95,88
21999,note_on,79,0,1,,,,,,,,,0,,,95,0
21999,note_on,0,0,1,,,,,,,,,0,,,93,88
22080,note_on,0,0,3,,,,,,,,,2,,,62,62
22080,note_on,0,0,3,,,,,,,,,2,,,56,62
22080,note_on,0,0,1,,,,,,,,,0,,,92,88
22080,note_on,0,0,3,,,,,,,,,2,,,56,0
22080,note_on,0,0,3,,,,,,,,,2,,,64,62
22080,note_on,0,0,3,,,,,,,,,2,,,62,0
22080,note_on,81,0,1,,,,,,,,,0,,,93,0
22080,note_on,240,0,3,,,,,,,,,2,,,64,0
22160,note_on,0,0,1,,,,,,,,,0,,,89,88
22160,note_on,80,0,1,,,,,,,,,0,,,92,0
22239,note_on,79,0,1,,,,,,,,,0,,,89,0
22239,note_on,0,0,1,,,,,,,,,0,,,88,88
22320,note_on,0,0,3,,,,,,,,,2,,,56,0
22320,note_on,0,0,3,,,,,,,,,2,,,56,62
22320,note_on,0,0,3,,,,,,,,,2,,,62,0
22320,note_on,0,0,3,,,,,,,,,2,,,62,62
22320,note_on,81,0,1,,,,,,,,,0,,,88,0
22320,note_on,0,0,3,,,,,,,,,2,,,64,62
22320,note_on,0,0,1,,,,,,,,,0,,,86,88
22320,note_on,240,0,3,,,,,,,,,2,,,64,0
22400,note_on,0,0,1,,,,,,,,,0,,,84,88
22400,note_on,80,0,1,,,,,,,,,0,,,86,0
22479,note_on,0,0,1,,,,,,,,,0,,,83,88
22479,note_on,79,0,1,,,,,,,,,0,,,84,0
22560,note_on,0,0,3,,,,,,,,,2,,,56,0
22560,note_on,240,0,3,,,,,,,,,2,,,64,0
22560,note_on,81,0,1,,,,,,,,,0,,,83,0
22560,note_on,0,0,3,,,,,,,,,2,,,56,62
22560,note_on,0,0,3,,,,,,,,,2,,,64,62
22560,note_on,0,0,1,,,,,,,,,0,,,81,75
22560,note_on,0,0,3,,,,,,,,,2,,,62,62
22560,note_on,0,0,3,,,,,,,,,2,,,62,0
22640,note_on,80,0,1,,,,,,,,,0,,,81,0
22640,note_on,0,0,1,,,,,,,,,0,,,80,75
22719,note_on,79,0,1,,,,,,,,,0,,,80,0
22719,note_on,0,0,1,,,,,,,,,0,,,77,75
22800,note_on,81,0,1,,,,,,,,,0,,,77,0
22800,note_on,0,0,3,,,,,,,,,2,,,64,62
22800,note_on,0,0,3,,,,,,,,,2,,,62,62
22800,note_on,0,0,3,,,,,,,,,2,,,56,0
22800,note_on,0,0,3,,,,,,,,,2,,,56,62
22800,note_on,0,0,1,,,,,,,,,0,,,76,75
22800,note_on,240,0,3,,,,,,,,,2,,,64,0
22800,note_on,0,0,3,,,,,,,,,2,,,62,0
22880,note_on,0,0,1,,,,,,,,,0,,,74,75
22880,note_on,80,0,1,,,,,,,,,0,,,76,0
22959,note_on,0,0,1,,,,,,,,,0,,,71,75
22959,note_on,79,0,1,,,,,,,,,0,,,74,0
23040,note_on,81,0,1,,,,,,,,,0,,,71,0
23040,note_on,240,0,3,,,,,,,,,2,,,64,0
23040,note_on,0,0,1,,,,,,,,,0,,,69,75
23040,note_on,0,0,3,,,,,,,,,2,,,45,75
23040,note_on,0,0,3,,,,,,,,,2,,,56,0
23040,note_on,0,0,3,,,,,,,,,2,,,62,0
23120,note_on,80,0,1,,,,,,,,,0,,,69,0
23120,note_on,0,0,1,,,,,,,,,0,,,72,75
23199,note_on,0,0,1,,,,,,,,,0,,,76,75
23199,note_on,79,0,1,,,,,,,,,0,,,72,0
23280,note_on,81,0,1,,,,,,,,,0,,,76,0
23280,note_on,0,0,3,,,,,,,,,2,,,57,62
23280,note_on,0,0,1,,,,,,,,,0,,,81,75
23280,note_on,0,0,3,,,,,,,,,2,,,64,62
23280,note_on,240,0,3,,,,,,,,,2,,,45,0
23280,note_on,0,0,3,,,,,,,,,2,,,60,62
23360,note_on,0,0,1,,,,,,,,,0,,,84,75
23360,note_on,80,0,1,,,,,,,,,0,,,81,0
23439,note_on,79,0,1,,,,,,,,,0,,,84,0
23439,note_on,0,0,1,,,,,,,,,0,,,88,75
23520,note_on,0,0,1,,,,,,,,,0,,,93,88
23520,note_on,0,0,3,,,,,,,,,2,,,60,62
23520,note_on,81,0,1,,,,,,,,,0,,,88,0
23520,note_on,0,0,3,,,,,,,,,2,,,64,62
23520,note_on,0,0,3,,,,,,,,,2,,,60,0
23520,note_on,0,0,3,,,,,,,,,2,,,57,62
23520,note_on,0,0,3,,,,,,,,,2,,,57,0
23520,note_on,240,0,3,,,,,,,,,2,,,64,0
23600,note_on,80,0,1,,,,,,,,,0,,,93,0
23600,note_on,0,0,1,,,,,,,,,0,,,88,88
23679,note_on,0,0,1,,,,,,,,,0,,,84,88
23679,note_on,79,0,1,,,,,,,,,0,,,88,0
23760,note_on,0,0,3,,,,,,,,,2,,,57,0
23760,note_on,0,0,3,,,,,,,,,2,,,57,62
23760,note_on,0,0,3,,,,,,,,,2,,,60,0
23760,note_on,0,0,3,,,,,,,,,2,,,60,62
23760,note_on,0,0,3,,,,,,,,,2,,,64,62
23760,note_on,0,0,1,,,,,,,,,0,,,81,88
23760,note_on,240,0,3,,,,,,,,,2,,,64,0
23760,note_on,81,0,1,,,,,,,,,0,,,84,0
23840,note_on,0,0,1,,,,,,,,,0,,,76,88
23840,note_on,80,0,1,,,,,,,,,0,,,81,0
23919,note_on,0,0,1,,,,,,,,,0,,,72,88
23919,note_on,79,0,1,,,,,,,,,0,,,76,0
24000,note_on,240,0,3,,,,,,,,,2,,,64,0
24000,note_on,0,0,1,,,,,,,,,0,,,69,88
24000,note_on,0,0,3,,,,,,,,,2,,,41,75
24000,note_on,0,0,3,,,,,,,,,2,,,57,0
24000,note_on,0,0,3,,,,,,,,,2,,,60,0
24000,note_on,81,0,1,,,,,,,,,0,,,72,0
24080,note_on,80,0,1,,,,,,,,,0,,,69,0
24080,note_on,0,0,1,,,,,,,,,0,,,71,88
24159,note_on,79,0,1,,,,,,,,,0,,,71,0
24159,note_on,0,0,1,,,,,,,,,0,,,81,88
24240,note_on,81,0,1,,,,,,,,,0,,,81,0
24240,note_on,0,0,3,,,,,,,,,2,,,53,62
24240,note_on,0,0,3,,,,,,,,,2,,,57,62
24240,note_on,0,0,3,,,,,,,,,2,,,59,62
24240,note_on,240,0,3,,,,,,,,,2,,,41,0
24240,note_on,0,0,1,,,,,,,,,0,,,69,88
24320,note_on,0,0,1,,,,,,,,,0,,,71,88
24320,note_on,80,0,1,,,,,,,,,0,,,69,0
24399,note_on,79,0,1,,,,,,,,,0,,,71,0
24399,note_on,0,0,1,,,,,,,,,0,,,75,88
24480,note_on,0,0,1,,,,,,,,,0,,,76,88
24480,note_on,81,0,1,,,,,,,,,0,,,75,0
24480,note_on,0,0,3,,,,,,,,,2,,,52,75
24480,note_on,0,0,1,,,,,,,,,0,,,68,88
24480,note_on,0,0,3,,,,,,,,,2,,,56,75
24480,note_on,0,0,3,,,,,,,,,2,,,57,0
24480,note_on,0,0,3,,,,,,,,,2,,,59,75
24480,note_on,240,0,3,,,,,,,,,2,,,59,0
24480,note_on,0,0,3,,,,,,,,,2,,,53,0
24720,note_on,24720,0,2,,,,,,,,,1,,,64,62
24720,note_on,0,0,1,,,,,,,,,0,,,68,0
24720,note_on,0,0,2,,,,,,,,,1,,,76,62
24720,note_on,0,0,3,,,,,,,,,2,,,56,0
24720,note_on,0,0,3,,,,,,,,,2,,,52,0
24720,note_on,240,0,1,,,,,,,,,0,,,76,0
24720,note_on,0,0,1,,,,,,,,,0,,,76,88
24720,note_on,240,0,3,,,,,,,,,2,,,59,0
24720,note_on,0,0,3,,,,,,,,,2,,,40,62
24800,note_on,80,0,3,,,,,,,,,2,,,40,0
24800,note_on,0,0,3,,,,,,,,,2,,,52,62
24879,note_on,79,0,3,,,,,,,,,2,,,52,0
24879,note_on,0,0,3,,,,,,,,,2,,,40,62
24960,note_on,0,0,2,,,,,,,,,1,,,75,62
24960,note_on,81,0,3,,,,,,,,,2,,,40,0
24960,note_on,240,0,2,,,,,,,,,1,,,76,0
24960,note_on,0,0,3,,,,,,,,,2,,,42,62
25040,note_on,80,0,3,,,,,,,,,2,,,42,0
25040,note_on,0,0,3,,,,,,,,,2,,,54,62
25119,note_on,79,0,3,,,,,,,,,2,,,54,0
25119,note_on,0,0,3,,,,,,,,,2,,,42,62
25200,note_on,81,0,3,,,,,,,,,2,,,42,0
25200,note_on,0,0,2,,,,,,,,,1,,,74,62
25200,note_on,0,0,2,,,,,,,,,1,,,64,62
25200,note_on,0,0,2,,,,,,,,,1,,,64,0
25200,note_on,0,0,3,,,,,,,,,2,,,44,62
25200,note_on,240,0,2,,,,,,,,,1,,,75,0
25280,note_on,80,0,3,,,,,,,,,2,,,44,0
25280,note_on,0,0,3,,,,,,,,,2,,,56,62
25359,note_on,79,0,3,,,,,,,,,2,,,56,0
25359,note_on,0,0,3,,,,,,,,,2,,,44,62
25440,note_on,81,0,3,,,,,,,,,2,,,44,0
25440,note_on,0,0,3,,,,,,,,,2,,,45,62
25440,note_on,0,0,2,,,,,,,,,1,,,64,62
25440,note_on,0,0,2,,,,,,,,,1,,,64,0
25440,note_on,0,0,2,,,,,,,,,1,,,72,62
25440,note_on,0,0,1,,,,,,,,,0,,,76,62
25440,note_on,720,0,1,,,,,,,,,0,,,76,0
25440,note_on,240,0,2,,,,,,,,,1,,,74,0
25520,note_on,0,0,3,,,,,,,,,2,,,57,62
25520,note_on,80,0,3,,,,,,,,,2,,,45,0
25599,note_on,79,0,3,,,,,,,,,2,,,57,0
25599,note_on,0,0,3,,,,,,,,,2,,,45,62
25680,note_on,0,0,2,,,,,,,,,1,,,64,0
25680,note_on,0,0,2,,,,,,,,,1,,,64,62
25680,note_on,0,0,2,,,,,,,,,1,,,71,62
25680,note_on,240,0,2,,,,,,,,,1,,,72,0
25680,note_on,0,0,1,,,,,,,,,0,,,76,62
25680,note_on,81,0,3,,,,,,,,,2,,,45,0
25680,note_on,240,0,1,,,,,,,,,0,,,76,0
25680,note_on,0,0,3,,,,,,,,,2,,,47,62
25760,note_on,0,0,3,,,,,,,,,2,,,59,62
25760,note_on,80,0,3,,,,,,,,,2,,,47,0
25839,note_on,79,0,3,,,,,,,,,2,,,59,0
25839,note_on,0,0,3,,,,,,,,,2,,,47,62
25920,note_on,81,0,3,,,,,,,,,2,,,47,0
25920,note_on,240,0,2,,,,,,,,,1,,,71,0
25920,note_on,240,0,1,,,,,,,,,0,,,76,0
25920,note_on,0,0,3,,,,,,,,,2,,,48,88
25920,note_on,0,0,2,,,,,,,,,1,,,64,0
25920,note_on,0,0,2,,,,,,,,,1,,,64,88
25920,note_on,0,0,2,,,,,,,,,1,,,69,88
25920,note_on,0,0,1,,,,,,,,,0,,,76,88
26000,note_on,0,0,3,,,,,,,,,2,,,60,62
26000,note_on,80,0,3,,,,,,,,,2,,,48,0
26079,note_on,79,0,3,,,,,,,,,2,,,60,0
26079,note_on,0,0,3,,,,,,,,,2,,,48,62
26160,note_on,240,0,2,,,,,,,,,1,,,69,0
26160,note_on,0,0,3,,,,,,,,,2,,,47,62
26160,note_on,81,0,3,,,,,,,,,2,,,48,0
26160,note_on,0,0,2,,,,,,,,,1,,,68,62
26160,note_on,0,0,2,,,,,,,,,1,,,64,0
26240,note_on,0,0,3,,,,,,,,,2,,,59,62
26240,note_on,80,0,3,,,,,,,,,2,,,47,0
26319,note_on,79,0,3,,,,,,,,,2,,,59,0
26319,note_on,0,0,3,,,,,,,,,2,,,47,62
26400,note_on,81,0,3,,,,,,,,,2,,,47,0
26400,note_on,240,0,2,,,,,,,,,1,,,68,0
26400,note_on,0,0,3,,,,,,,,,2,,,48,62
26400,note_on,0,0,2,,,,,,,,,1,,,69,62
26480,note_on,80,0,3,,,,,,,,,2,,,48,0
26480,note_on,0,0,3,,,,,,,,,2,,,60,62
26559,note_on,0,0,3,,,,,,,,,2,,,48,62
26559,note_on,79,0,3,,,,,,,,,2,,,60,0
26640,note_on,81,0,3,,,,,,,,,2,,,48,0
26640,note_on,0,0,2,,,,,,,,,1,,,64,62
26640,note_on,0,0,2,,,,,,,,,1,,,72,62
26640,note_on,0,0,3,,,,,,,,,2,,,45,62
26640,note_on,240,0,2,,,,,,,,,1,,,69,0
26720,note_on,0,0,3,,,,,,,,,2,,,57,62
26720,note_on,80,0,3,,,,,,,,,2,,,45,0
26799,note_on,0,0,3,,,,,,,,,2,,,45,62
26799,note_on,79,0,3,,,,,,,,,2,,,57,0
26880,note_on,240,0,2,,,,,,,,,1,,,72,0
26880,note_on,0,0,2,,,,,,,,,1,,,64,0
26880,note_on,0,0,1,,,,,,,,,0,,,76,62
26880,note_on,0,0,2,,,,,,,,,1,,,64,62
26880,note_on,0,0,2,,,,,,,,,1,,,71,62
26880,note_on,960,0,1,,,,,,,,,0,,,76,0
26880,note_on,0,0,3,,,,,,,,,2,,,47,62
26880,note_on,81,0,3,,,,,,,,,2,,,45,0
26960,note_on,0,0,3,,,,,,,,,2,,,59,62
26960,note_on,80,0,3,,,,,,,,,2,,,47,0
27039,note_on,0,0,3,,,,,,,,,2,,,47,62
27039,note_on,79,0,3,,,,,,,,,2,,,59,0
27120,note_on,240,0,1,,,,,,,,,0,,,76,0
27120,note_on,0,0,3,,,,,,,,,2,,,48,62
27120,note_on,0,0,2,,,,,,,,,1,,,69,62
27120,note_on,0,0,1,,,,,,,,,0,,,76,62
27120,note_on,81,0,3,,,,,,,,,2,,,47,0
27120,note_on,0,0,2,,,,,,,,,1,,,64,62
27120,note_on,240,0,2,,,,,,,,,1,,,71,0
27120,note_on,0,0,2,,,,,,,,,1,,,64,0
27200,note_on,0,0,3,,,,,,,,,2,,,60,62
27200,note_on,80,0,3,,,,,,,,,2,,,48,0
27279,note_on,0,0,3,,,,,,,,,2,,,48,62
27279,note_on,79,0,3,,,,,,,,,2,,,60,0
27360,note_on,0,0,2,,,,,,,,,1,,,64,0
27360,note_on,0,0,1,,,,,,,,,0,,,76,88
27360,note_on,81,0,3,,,,,,,,,2,,,48,0
27360,note_on,0,0,2,,,,,,,,,1,,,64,88
27360,note_on,240,0,1,,,,,,,,,0,,,76,0
27360,note_on,240,0,2,,,,,,,,,1,,,69,0
27360,note_on,0,0,3,,,,,,,,,2,,,47,88
27360,note_on,0,0,2,,,,,,,,,1,,,68,88
27440,note_on,80,0,3,,,,,,,,,2,,,47,0
27440,note_on,0,0,3,,,,,,,,,2,,,59,62
27519,note_on,0,0,3,,,,,,,,,2,,,47,62
27519,note_on,79,0,3,,,,,,,,,2,,,59,0
27600,note_on,81,0,3,,,,,,,,,2,,,47,0
27600,note_on,0,0,2,,,,,,,,,1,,,65,62
27600,note_on,0,0,3,,,,,,,,,2,,,45,62
27600,note_on,0,0,2,,,,,,,,,1,,,64,0
27600,note_on,240,0,2,,,,,,,,,1,,,68,0
27680,note_on,80,0,3,,,,,,,,,2,,,45,0
27680,note_on,0,0,3,,,,,,,,,2,,,57,62
27759,note_on,79,0,3,,,,,,,,,2,,,57,0
27759,note_on,0,0,3,,,,,,,,,2,,,45,62
27840,note_on,0,0,2,,,,,,,,,1,,,64,62
27840,note_on,81,0,3,,,,,,,,,2,,,45,0
27840,note_on,0,0,3,,,,,,,,,2,,,44,62
27840,note_on,240,0,2,,,,,,,,,1,,,65,0
27920,note_on,0,0,3,,,,,,,,,2,,,56,62
27920,note_on,80,0,3,,,,,,,,,2,,,44,0
27999,note_on,0,0,3,,,,,,,,,2,,,44,62
27999,note_on,79,0,3,,,,,,,,,2,,,56,0
28080,note_on,0,0,3,,,,,,,,,2,,,40,62
28080,note_on,0,0,2,,,,,,,,,1,,,64,62
28080,note_on,240,0,2,,,,,,,,,1,,,64,0
28080,note_on,81,0,3,,,,,,,,,2,,,44,0
28160,note_on,0,0,3,,,,,,,,,2,,,52,62
28160,note_on,80,0,3,,,,,,,,,2,,,40,0
28239,note_on,0,0,3,,,,,,,,,2,,,40,62
28239,note_on,79,0,3,,,,,,,,,2,,,52,0
28320,note_on,240,0,2,,,,,,,,,1,,,64,0
28320,note_on,0,0,3,,,,,,,,,2,,,42,62
28320,note_on,0,0,1,,,,,,,,,0,,,76,62
28320,note_on,960,0,1,,,,,,,,,0,,,76,0
28320,note_on,0,0,2,,,,,,,,,1,,,75,62
28320,note_on,0,0,2,,,,,,,,,1,,,64,62
28320,note_on,81,0,3,,,,,,,,,2,,,40,0
28400,note_on,0,0,3,,,,,,,,,2,,,54,62
28400,note_on,80,0,3,,,,,,,,,2,,,42,0
28479,note_on,0,0,3,,,,,,,,,2,,,42,62
28479,note_on,79,0,3,,,,,,,,,2,,,54,0
28560,note_on,0,0,2,,,,,,,,,1,,,64,0
28560,note_on,0,0,2,,,,,,,,,1,,,64,62
28560,note_on,0,0,2,,,,,,,,,1,,,74,62
28560,note_on,240,0,1,,,,,,,,,0,,,76,0
28560,note_on,240,0,2,,,,,,,,,1,,,75,0
28560,note_on,81,0,3,,,,,,,,,2,,,42,0
28560,note_on,0,0,3,,,,,,,,,2,,,44,62
28560,note_on,0,0,1,,,,,,,,,0,,,76,62
28640,note_on,80,0,3,,,,,,,,,2,,,44,0
28640,note_on,0,0,3,,,,,,,,,2,,,56,62
28719,note_on,79,0,3,,,,,,,,,2,,,56,0
28719,note_on,0,0,3,,,,,,,,,2,,,44,62
28800,note_on,0,0,1,,,,,,,,,0,,,76,88
28800,note_on,240,0,2,,,,,,,,,1,,,74,0
28800,note_on,0,0,2,,,,,,,,,1,,,64,88
28800,note_on,0,0,2,,,,,,,,,1,,,72,88
28800,note_on,0,0,2,,,,,,,,,1,,,64,0
28800,note_on,81,0,3,,,,,,,,,2,,,44,0
28800,note_on,0,0,3,,,,,,,,,2,,,45,62
28800,note_on,240,0,1,,,,,,,,,0,,,76,0
28880,note_on,0,0,3,,,,,,,,,2,,,57,62
28880,note_on,80,0,3,,,,,,,,,2,,,45,0
28959,note_on,0,0,3,,,,,,,,,2,,,45,62
28959,note_on,79,0,3,,,,,,,,,2,,,57,0
29040,note_on,81,0,3,,,,,,,,,2,,,45,0
29040,note_on,240,0,2,,,,,,,,,1,,,72,0
29040,note_on,0,0,3,,,,,,,,,2,,,47,62
29040,note_on,0,0,2,,,,,,,,,1,,,64,0
29040,note_on,0,0,2,,,,,,,,,1,,,68,62
29120,note_on,80,0,3,,,,,,,,,2,,,47,0
29120,note_on,0,0,3,,,,,,,,,2,,,59,62
29199,note_on,79,0,3,,,,,,,,,2,,,59,0
29199,note_on,0,0,3,,,,,,,,,2,,,47,62
29280,note_on,240,0,2,,,,,,,,,1,,,68,0
29280,note_on,0,0,3,,,,,,,,,2,,,48,62
29280,note_on,0,0,2,,,,,,,,,1,,,69,62
29280,note_on,81,0,3,,,,,,,,,2,,,47,0
29360,note_on,0,0,3,,,,,,,,,2,,,60,62
29360,note_on,80,0,3,,,,,,,,,2,,,48,0
29439,note_on,0,0,3,,,,,,,,,2,,,48,62
29439,note_on,79,0,3,,,,,,,,,2,,,60,0
29520,note_on,0,0,3,,,,,,,,,2,,,45,62
29520,note_on,240,0,2,,,,,,,,,1,,,69,0
29520,note_on,0,0,2,,,,,,,,,1,,,72,62
29520,note_on,81,0,3,,,,,,,,,2,,,48,0
29520,note_on,0,0,2,,,,,,,,,1,,,64,62
29600,note_on,0,0,3,,,,,,,,,2,,,57,62
29600,note_on,80,0,3,,,,,,,,,2,,,45,0
29679,note_on,0,0,3,,,,,,,,,2,,,45,62
29679,note_on,79,0,3,,,,,,,,,2,,,57,0
29760,note_on,0,0,3,,,,,,,,,2,,,44,62
29760,note_on,81,0,3,,,,,,,,,2,,,45,0
29760,note_on,0,0,2,,,,,,,,,1,,,64,0
29760,note_on,0,0,2,,,,,,,,,1,,,64,62
29760,note_on,0,0,2,,,,,,,,,1,,,71,62
29760,note_on,960,0,1,,,,,,,,,0,,,76,0
29760,note_on,240,0,2,,,,,,,,,1,,,72,0
29760,note_on,0,0,1,,,,,,,,,0,,,76,62
29840,note_on,0,0,3,,,,,,,,,2,,,56,62
29840,note_on,80,0,3,,,,,,,,,2,,,44,0
29919,note_on,79,0,3,,,,,,,,,2,,,56,0
29919,note_on,0,0,3,,,,,,,,,2,,,44,62
30000,note_on,0,0,2,,,,,,,,,1,,,64,0
30000,note_on,240,0,1,,,,,,,,,0,,,76,0
30000,note_on,81,0,3,,,,,,,,,2,,,44,0
30000,note_on,240,0,2,,,,,,,,,1,,,71,0
30000,note_on,0,0,3,,,,,,,,,2,,,41,62
30000,note_on,0,0,2,,,,,,,,,1,,,64,62
30000,note_on,0,0,2,,,,,,,,,1,,,69,62
30000,note_on,0,0,1,,,,,,,,,0,,,76,62
30080,note_on,80,0,3,,,,,,,,,2,,,41,0
30080,note_on,0,0,3,,,,,,,,,2,,,53,62
30159,note_on,79,0,3,,,,,,,,,2,,,53,0
30159,note_on,0,0,3,,,,,,,,,2,,,41,62
30240,note_on,0,0,3,,,,,,,,,2,,,40,62
30240,note_on,0,0,3,,,,,,,,,2,,,52,62
30240,note_on,0,0,1,,,,,,,,,0,,,76,62
30240,note_on,0,0,2,,,,,,,,,1,,,64,0
30240,note_on,81,0,3,,,,,,,,,2,,,41,0
30240,end_of_track,0,1,2,,,,,,,,,,,,,
30240,note_on,0,0,1,,,,,,,,,0,,,64,62
30240,note_on,240,0,1,,,,,,,,,0,,,76,0
30240,note_on,0,0,1,,,,,,,,,0,,,68,62
30240,note_on,240,0,2,,,,,,,,,1,,,69,0
30480,note_on,0,0,3,,,,,,,,,2,,,40,75
30480,note_on,240,0,1,,,,,,,,,0,,,76,0
30480,note_on,0,0,1,,,,,,,,,0,,,52,88
30480,note_on,0,0,1,,,,,,,,,0,,,64,0
30480,note_on,240,0,3,,,,,,,,,2,,,52,0
30480,note_on,0,0,1,,,,,,,,,0,,,68,0
30480,note_on,0,0,3,,,,,,,,,2,,,40,0
30560,note_on,0,0,3,,,,,,,,,2,,,44,75
30560,note_on,0,0,1,,,,,,,,,0,,,56,88
30560,note_on,80,0,1,,,,,,,,,0,,,52,0
30560,note_on,80,0,3,,,,,,,,,2,,,40,0
30639,note_on,79,0,3,,,,,,,,,2,,,44,0
30639,note_on,0,0,3,,,,,,,,,2,,,43,75
30639,note_on,0,0,1,,,,,,,,,0,,,55,88
30639,note_on,79,0,1,,,,,,,,,0,,,56,0
30720,note_on,0,0,1,,,,,,,,,0,,,56,88
30720,note_on,81,0,1,,,,,,,,,0,,,55,0
30720,note_on,0,0,3,,,,,,,,,2,,,44,75
30720,note_on,81,0,3,,,,,,,,,2,,,43,0
30800,note_on,0,0,1,,,,,,,,,0,,,59,88
30800,note_on,0,0,3,,,,,,,,,2,,,47,75
30800,note_on,80,0,1,,,,,,,,,0,,,56,0
30800,note_on,80,0,3,,,,,,,,,2,,,44,0
30879,note_on,79,0,1,,,,,,,,,0,,,59,0
30879,note_on,0,0,3,,,,,,,,,2,,,46,75
30879,note_on,0,0,1,,,,,,,,,0,,,58,88
30879,note_on,79,0,3,,,,,,,,,2,,,47,0
30960,note_on,81,0,1,,,,,,,,,0,,,58,0
30960,note_on,0,0,1,,,,,,,,,0,,,59,88
30960,note_on,0,0,3,,,,,,,,,2,,,47,75
30960,note_on,81,0,3,,,,,,,,,2,,,46,0
31040,note_on,80,0,1,,,,,,,,,0,,,59,0
31040,note_on,80,0,3,,,,,,,,,2,,,47,0
31040,note_on,0,0,1,,,,,,,,,0,,,64,88
31040,note_on,0,0,3,,,,,,,,,2,,,52,75
31119,note_on,0,0,3,,,,,,,,,2,,,51,75
31119,note_on,79,0,3,,,,,,,,,2,,,52,0
31119,note_on,79,0,1,,,,,,,,,0,,,64,0
31119,note_on,0,0,1,,,,,,,,,0,,,63,88
31200,note_on,0,0,3,,,,,,,,,2,,,52,75
31200,note_on,0,0,1,,,,,,,,,0,,,64,88
31200,note_on,81,0,1,,,,,,,,,0,,,63,0
31200,note_on,81,0,3,,,,,,,,,2,,,51,0
31280,note_on,0,0,3,,,,,,,,,2,,,56,75
31280,note_on,80,0,3,,,,,,,,,2,,,52,0
31280,note_on,80,0,1,,,,,,,,,0,,,64,0
31280,note_on,0,0,1,,,,,,,,,0,,,68,88
31359,note_on,0,0,1,,,,,,,,,0,,,67,88
31359,note_on,79,0,3,,,,,,,,,2,,,56,0
31359,note_on,79,0,1,,,,,,,,,0,,,68,0
31359,note_on,0,0,3,,,,,,,,,2,,,55,75
31440,note_on,0,0,1,,,,,,,,,0,,,68,88
31440,note_on,0,0,3,,,,,,,,,2,,,56,75
31440,note_on,81,0,3,,,,,,,,,2,,,55,0
31440,note_on,81,0,1,,,,,,,,,0,,,67,0
31520,note_on,0,0,1,,,,,,,,,0,,,71,88
31520,note_on,80,0,3,,,,,,,,,2,,,56,0
31520,note_on,80,0,1,,,,,,,,,0,,,68,0
31520,note_on,0,0,3,,,,,,,,,2,,,59,75
31599,note_on,0,0,1,,,,,,,,,0,,,70,88
31599,note_on,79,0,1,,,,,,,,,0,,,71,0
31599,note_on,0,0,3,,,,,,,,,2,,,58,75
31599,note_on,79,0,3,,,,,,,,,2,,,59,0
31680,note_on,81,0,3,,,,,,,,,2,,,58,0
31680,note_on,0,0,3,,,,,,,,,2,,,59,75
31680,note_on,0,0,1,,,,,,,,,0,,,71,88
31680,note_on,81,0,1,,,,,,,,,0,,,70,0
31760,note_on,0,0,3,,,,,,,,,2,,,64,75
31760,note_on,80,0,1,,,,,,,,,0,,,71,0
31760,note_on,80,0,3,,,,,,,,,2,,,59,0
31760,note_on,0,0,1,,,,,,,,,0,,,76,88
31839,note_on,0,0,1,,,,,,,,,0,,,75,88
31839,note_on,79,0,1,,,,,,,,,0,,,76,0
31839,note_on,0,0,3,,,,,,,,,2,,,63,75
31839,note_on,79,0,3,,,,,,,,,2,,,64,0
31920,note_on,0,0,1,,,,,,,,,0,,,76,88
31920,note_on,81,0,1,,,,,,,,,0,,,75,0
31920,note_on,0,0,3,,,,,,,,,2,,,64,75
31920,note_on,81,0,3,,,,,,,,,2,,,63,0
32000,note_on,80,0,3,,,,,,,,,2,,,64,0
32000,note_on,0,0,1,,,,,,,,,0,,,80,88
32000,note_on,0,0,3,,,,,,,,,2,,,68,75
32000,note_on,80,0,1,,,,,,,,,0,,,76,0
32079,note_on,79,0,1,,,,,,,,,0,,,80,0
32079,note_on,79,0,3,,,,,,,,,2,,,68,0
32079,note_on,0,0,1,,,,,,,,,0,,,79,88
32079,note_on,0,0,3,,,,,,,,,2,,,67,75
32160,note_on,0,0,3,,,,,,,,,2,,,68,75
32160,note_on,0,0,1,,,,,,,,,0,,,80,88
32160,note_on,81,0,3,,,,,,,,,2,,,67,0
32160,note_on,81,0,1,,,,,,,,,0,,,79,0
32240,note_on,80,0,3,,,,,,,,,2,,,68,0
32240,note_on,80,0,1,,,,,,,,,0,,,80,0
32240,note_on,0,0,1,,,,,,,,,0,,,83,88
32240,note_on,0,0,3,,,,,,,,,2,,,71,75
32319,note_on,79,0,3,,,,,,,,,2,,,71,0
32319,note_on,0,0,3,,,,,,,,,2,,,70,75
32319,note_on,0,0,1,,,,,,,,,0,,,82,88
32319,note_on,79,0,1,,,,,,,,,0,,,83,0
32400,note_on,0,0,1,,,,,,,,,0,,,83,88
32400,note_on,81,0,1,,,,,,,,,0,,,82,0
32400,note_on,0,0,3,,,,,,,,,2,,,71,75
32400,note_on,81,0,3,,,,,,,,,2,,,70,0
32480,note_on,80,0,1,,,,,,,,,0,,,83,0
32480,note_on,80,0,3,,,,,,,,,2,,,71,0
32480,note_on,0,0,3,,,,,,,,,2,,,76,75
32480,note_on,0,0,1,,,,,,,,,0,,,88,88
32559,note_on,0,0,3,,,,,,,,,2,,,75,75
32559,note_on,79,0,1,,,,,,,,,0,,,88,0
32559,note_on,0,0,1,,,,,,,,,0,,,87,88
32559,note_on,79,0,3,,,,,,,,,2,,,76,0
32640,note_on,81,0,1,,,,,,,,,0,,,87,0
32640,note_on,81,0,3,,,,,,,,,2,,,75,0
32640,note_on,0,0,1,,,,,,,,,0,,,88,88
32640,note_on,0,0,3,,,,,,,,,2,,,76,75
32720,note_on,0,0,1,,,,,,,,,0,,,92,88
32720,note_on,80,0,3,,,,,,,,,2,,,76,0
32720,note_on,80,0,1,,,,,,,,,0,,,88,0
32720,note_on,0,0,3,,,,,,,,,2,,,80,75
32799,note_on,79,0,3,,,,,,,,,2,,,80,0
32799,note_on,79,0,1,,,,,,,,,0,,,92,0
32799,note_on,0,0,3,,,,,,,,,2,,,79,75
32799,note_on,0,0,1,,,,,,,,,0,,,91,88
32880,note_on,81,0,3,,,,,,,,,2,,,79,0
32880,note_on,81,0,1,,,,,,,,,0,,,91,0
32880,note_on,0,0,1,,,,,,,,,0,,,92,88
32880,note_on,0,0,3,,,,,,,,,2,,,80,75
32960,note_on,0,0,1,,,,,,,,,0,,,95,88
32960,note_on,80,0,1,,,,,,,,,0,,,92,0
32960,note_on,0,0,3,,,,,,,,,2,,,83,75
32960,note_on,80,0,3,,,,,,,,,2,,,80,0
33039,note_on,79,0,1,,,,,,,,,0,,,95,0
33039,note_on,79,0,3,,,,,,,,,2,,,83,0
33039,note_on,0,0,1,,,,,,,,,0,,,94,88
33039,note_on,0,0,3,,,,,,,,,2,,,82,75
33120,note_on,81,0,3,,,,,,,,,2,,,82,0
33120,note_on,81,0,1,,,,,,,,,0,,,94,0
33120,note_on,0,0,1,,,,,,,,,0,,,95,101
33120,note_on,0,0,3,,,,,,,,,2,,,83,88
33200,note_on,0,0,1,,,,,,,,,0,,,98,101
33200,note_on,0,0,3,,,,,,,,,2,,,86,88
33200,note_on,80,0,1,,,,,,,,,0,,,95,0
33200,note_on,80,0,3,,,,,,,,,2,,,83,0
33279,note_on,79,0,1,,,,,,,,,0,,,98,0
33279,note_on,79,0,3,,,,,,,,,2,,,86,0
33279,note_on,0,0,1,,,,,,,,,0,,,101,101
33279,note_on,0,0,3,,,,,,,,,2,,,89,88
33360,note_on,81,0,3,,,,,,,,,2,,,89,0
33360,note_on,0,0,1,,,,,,,,,0,,,94,101
33360,note_on,81,0,1,,,,,,,,,0,,,101,0
33360,note_on,0,0,3,,,,,,,,,2,,,82,88
33440,note_on,80,0,1,,,,,,,,,0,,,94,0
33440,note_on,0,0,1,,,,,,,,,0,,,98,101
33440,note_on,80,0,3,,,,,,,,,2,,,82,0
33440,note_on,0,0,3,,,,,,,,,2,,,86,88
33519,note_on,79,0,1,,,,,,,,,0,,,98,0
33519,note_on,0,0,1,,,,,,,,,0,,,101,101
33519,note_on,79,0,3,,,,,,,,,2,,,86,0
33519,note_on,0,0,3,,,,,,,,,2,,,89,88
33600,note_on,0,0,3,,,,,,,,,2,,,81,88
33600,note_on,81,0,3,,,,,,,,,2,,,89,0
33600,note_on,0,0,1,,,,,,,,,0,,,93,101
33600,note_on,81,0,1,,,,,,,,,0,,,101,0
33680,note_on,0,0,3,,,,,,,,,2,,,86,88
33680,note_on,80,0,1,,,,,,,,,0,,,93,0
33680,note_on,80,0,3,,,,,,,,,2,,,81,0
33680,note_on,0,0,1,,,,,,,,,0,,,98,101
33759,note_on,0,0,3,,,,,,,,,2,,,89,88
33759,note_on,79,0,1,,,,,,,,,0,,,98,0
33759,note_on,79,0,3,,,,,,,,,2,,,86,0
33759,note_on,0,0,1,,,,,,,,,0,,,101,101
33840,note_on,81,0,1,,,,,,,,,0,,,101,0
33840,note_on,81,0,3,,,,,,,,,2,,,89,0
33840,note_on,0,0,1,,,,,,,,,0,,,92,101
33840,note_on,0,0,3,,,,,,,,,2,,,80,88
33920,note_on,0,0,3,,,,,,,,,2,,,86,88
33920,note_on,80,0,3,,,,,,,,,2,,,80,0
33920,note_on,80,0,1,,,,,,,,,0,,,92,0
33920,note_on,0,0,1,,,,,,,,,0,,,98,101
33999,note_on,79,0,1,,,,,,,,,0,,,98,0
33999,note_on,0,0,1,,,,,,,,,0,,,101,101
33999,note_on,0,0,3,,,,,,,,,2,,,89,88
33999,note_on,79,0,3,,,,,,,,,2,,,86,0
34080,note_on,81,0,1,,,,,,,,,0,,,101,0
34080,note_on,0,0,3,,,,,,,,,2,,,81,88
34080,note_on,0,0,1,,,,,,,,,0,,,93,101
34080,note_on,81,0,3,,,,,,,,,2,,,89,0
34160,note_on,80,0,3,,,,,,,,,2,,,81,0
34160,note_on,80,0,1,,,,,,,,,0,,,93,0
34160,note_on,0,0,1,,,,,,,,,0,,,98,101
34160,note_on,0,0,3,,,,,,,,,2,,,86,88
34239,note_on,79,0,3,,,,,,,,,2,,,86,0
34239,note_on,79,0,1,,,,,,,,,0,,,98,0
34239,note_on,0,0,1,,,,,,,,,0,,,101,101
34239,note_on,0,0,3,,,,,,,,,2,,,89,88
34320,note_on,0,0,3,,,,,,,,,2,,,82,88
34320,note_on,0,0,1,,,,,,,,,0,,,94,101
34320,note_on,81,0,1,,,,,,,,,0,,,101,0
34320,note_on,81,0,3,,,,,,,,,2,,,89,0
34400,note_on,80,0,3,,,,,,,,,2,,,82,0
34400,note_on,0,0,3,,,,,,,,,2,,,86,88
34400,note_on,0,0,1,,,,,,,,,0,,,98,101
34400,note_on,80,0,1,,,,,,,,,0,,,94,0
34479,note_on,79,0,1,,,,,,,,,0,,,98,0
34479,note_on,79,0,3,,,,,,,,,2,,,86,0
34479,note_on,0,0,3,,,,,,,,,2,,,89,88
34479,note_on,0,0,1,,,,,,,,,0,,,101,101
34560,note_on,81,0,1,,,,,,,,,0,,,101,0
34560,note_on,81,0,3,,,,,,,,,2,,,89,0
34560,note_on,0,0,1,,,,,,,,,0,,,95,101
34560,note_on,0,0,3,,,,,,,,,2,,,83,88
34640,note_on,80,0,1,,,,,,,,,0,,,95,0
34640,note_on,0,0,1,,,,,,,,,0,,,98,101
34640,note_on,80,0,3,,,,,,,,,2,,,83,0
34640,note_on,0,0,3,,,,,,,,,2,,,86,88
34719,note_on,0,0,3,,,,,,,,,2,,,89,88
34719,note_on,0,0,1,,,,,,,,,0,,,101,101
34719,note_on,79,0,3,,,,,,,,,2,,,86,0
34719,note_on,79,0,1,,,,,,,,,0,,,98,0
34800,note_on,0,0,3,,,,,,,,,2,,,82,88
34800,note_on,81,0,3,,,,,,,,,2,,,89,0
34800,note_on,0,0,1,,,,,,,,,0,,,94,101
34800,note_on,81,0,1,,,,,,,,,0,,,101,0
34880,note_on,80,0,1,,,,,,,,,0,,,94,0
34880,note_on,80,0,3,,,,,,,,,2,,,82,0
34880,note_on,0,0,1,,,,,,,,,0,,,98,101
34880,note_on,0,0,3,,,,,,,,,2,,,86,88
34959,note_on,79,0,1,,,,,,,,,0,,,98,0
34959,note_on,0,0,3,,,,,,,,,2,,,89,88
34959,note_on,0,0,1,,,,,,,,,0,,,101,101
34959,note_on,79,0,3,,,,,,,,,2,,,86,0
35040,note_on,81,0,1,,,,,,,,,0,,,101,0
35040,note_on,0,0,3,,,,,,,,,2,,,81,88
35040,note_on,0,0,1,,,,,,,,,0,,,93,101
35040,note_on,81,0,3,,,,,,,,,2,,,89,0
35120,note_on,80,0,1,,,,,,,,,0,,,93,0
35120,note_on,0,0,1,,,,,,,,,0,,,98,101
35120,note_on,0,0,3,,,,,,,,,2,,,86,88
35120,note_on,80,0,3,,,,,,,,,2,,,81,0
35199,note_on,0,0,1,,,,,,,,,0,,,101,101
35199,note_on,79,0,3,,,,,,,,,2,,,86,0
35199,note_on,79,0,1,,,,,,,,,0,,,98,0
35199,note_on,0,0,3,,,,,,,,,2,,,89,88
35280,note_on,81,0,1,,,,,,,,,0,,,101,0
35280,note_on,0,0,1,,,,,,,,,0,,,92,101
35280,note_on,0,0,3,,,,,,,,,2,,,80,88
35280,note_on,81,0,3,,,,,,,,,2,,,89,0
35360,note_on,80,0,1,,,,,,,,,0,,,92,0
35360,note_on,80,0,3,,,,,,,,,2,,,80,0
35360,note_on,0,0,3,,,,,,,,,2,,,86,88
35360,note_on,0,0,1,,,,,,,,,0,,,98,101
35439,note_on,0,0,3,,,,,,,,,2,,,89,88
35439,note_on,0,0,1,,,,,,,,,0,,,101,101
35439,note_on,79,0,1,,,,,,,,,0,,,98,0
35439,note_on,79,0,3,,,,,,,,,2,,,86,0
35520,note_on,0,0,3,,,,,,,,,2,,,81,88
35520,note_on,81,0,3,,,,,,,,,2,,,89,0
35520,note_on,0,0,1,,,,,,,,,0,,,93,101
35520,note_on,81,0,1,,,,,,,,,0,,,101,0
35600,note_on,80,0,3,,,,,,,,,2,,,81,0
35600,note_on,0,0,1,,,,,,,,,0,,,98,101
35600,note_on,80,0,1,,,,,,,,,0,,,93,0
35600,note_on,0,0,3,,,,,,,,,2,,,86,88
35679,note_on,0,0,1,,,,,,,,,0,,,101,101
35679,note_on,79,0,1,,,,,,,,,0,,,98,0
35679,note_on,79,0,3,,,,,,,,,2,,,86,0
35679,note_on,0,0,3,,,,,,,,,2,,,89,88
35760,note_on,0,0,1,,,,,,,,,0,,,94,101
35760,note_on,0,0,3,,,,,,,,,2,,,82,88
35760,note_on,81,0,3,,,,,,,,,2,,,89,0
35760,note_on,81,0,1,,,,,,,,,0,,,101,0
35840,note_on,80,0,3,,,,,,,,,2,,,82,0
35840,note_on,0,0,1,,,,,,,,,0,,,98,101
35840,note_on,0,0,3,,,,,,,,,2,,,86,88
35840,note_on,80,0,1,,,,,,,,,0,,,94,0
35919,note_on,79,0,3,,,,,,,,,2,,,86,0
35919,note_on,79,0,1,,,,,,,,,0,,,98,0
35919,note_on,0,0,1,,,,,,,,,0,,,101,101
35919,note_on,0,0,3,,,,,,,,,2,,,89,88
36000,note_on,81,0,1,,,,,,,,,0,,,101,0
36000,note_on,0,0,1,,,,,,,,,0,,,95,101
36000,note_on,81,0,3,,,,,,,,,2,,,89,0
36000,note_on,0,0,3,,,,,,,,,2,,,83,88
36080,note_on,80,0,1,,,,,,,,,0,,,95,0
36080,note_on,0,0,1,,,,,,,,,0,,,98,101
36080,note_on,80,0,3,,,,,,,,,2,,,83,0
36080,note_on,0,0,3,,,,,,,,,2,,,86,88
36159,note_on,0,0,1,,,,,,,,,0,,,101,101
36159,note_on,79,0,1,,,,,,,,,0,,,98,0
36159,note_on,79,0,3,,,,,,,,,2,,,86,0
36159,note_on,0,0,3,,,,,,,,,2,,,89,88
36240,note_on,81,0,3,,,,,,,,,2,,,89,0
36240,note_on,81,0,1,,,,,,,,,0,,,101,0
36240,note_on,0,0,1,,,,,,,,,0,,,92,101
36240,note_on,0,0,3,,,,,,,,,2,,,80,88
36320,note_on,0,0,3,,,,,,,,,2,,,86,88
36320,note_on,0,0,1,,,,,,,,,0,,,98,101
36320,note_on,80,0,3,,,,,,,,,2,,,80,0
36320,note_on,80,0,1,,,,,,,,,0,,,92,0
36399,note_on,79,0,3,,,,,,,,,2,,,86,0
36399,note_on,0,0,3,,,,,,,,,2,,,88,88
36399,note_on,0,0,1,,,,,,,,,0,,,100,101
36399,note_on,79,0,1,,,,,,,,,0,,,98,0
36480,note_on,0,0,1,,,,,,,,,0,,,93,101
36480,note_on,81,0,1,,,,,,,,,0,,,100,0
36480,note_on,81,0,3,,,,,,,,,2,,,88,0
36480,note_on,0,0,3,,,,,,,,,2,,,81,88
36560,note_on,80,0,1,,,,,,,,,0,,,93,0
36560,note_on,80,0,3,,,,,,,,,2,,,81,0
36560,note_on,0,0,1,,,,,,,,,0,,,96,101
36560,note_on,0,0,3,,,,,,,,,2,,,84,88
36639,note_on,79,0,3,,,,,,,,,2,,,84,0
36639,note_on,0,0,1,,,,,,,,,0,,,100,101
36639,note_on,0,0,3,,,,,,,,,2,,,88,88
36639,note_on,79,0,1,,,,,,,,,0,,,96,0
36720,note_on,0,0,1,,,,,,,,,0,,,90,101
36720,note_on,0,0,3,,,,,,,,,2,,,78,88
36720,note_on,81,0,3,,,,,,,,,2,,,88,0
36720,note_on,81,0,1,,,,,,,,,0,,,100,0
36800,note_on,80,0,3,,,,,,,,,2,,,78,0
36800,note_on,0,0,1,,,,,,,,,0,,,96,101
36800,note_on,80,0,1,,,,,,,,,0,,,90,0
36800,note_on,0,0,3,,,,,,,,,2,,,84,88
36879,note_on,79,0,3,,,,,,,,,2,,,84,0
36879,note_on,0,0,3,,,,,,,,,2,,,86,88
36879,note_on,79,0,1,,,,,,,,,0,,,96,0
36879,note_on,0,0,1,,,,,,,,,0,,,98,101
36960,note_on,0,0,3,,,,,,,,,2,,,79,88
36960,note_on,81,0,1,,,,,,,,,0,,,98,0
36960,note_on,0,0,1,,,,,,,,,0,,,91,101
36960,note_on,81,0,3,,,,,,,,,2,,,86,0
37040,note_on,0,0,3,,,,,,,,,2,,,83,88
37040,note_on,0,0,1,,,,,,,,,0,,,95,101
37040,note_on,80,0,1,,,,,,,,,0,,,91,0
37040,note_on,80,0,3,,,,,,,,,2,,,79,0
37119,note_on,79,0,3,,,,,,,,,2,,,83,0
37119,note_on,0,0,3,,,,,,,,,2,,,86,88
37119,note_on,0,0,1,,,,,,,,,0,,,98,101
37119,note_on,79,0,1,,,,,,,,,0,,,95,0
37200,note_on,81,0,1,,,,,,,,,0,,,98,0
37200,note_on,0,0,3,,,,,,,,,2,,,76,88
37200,note_on,81,0,3,,,,,,,,,2,,,86,0
37200,note_on,0,0,1,,,,,,,,,0,,,88,101
37280,note_on,80,0,3,,,,,,,,,2,,,76,0
37280,note_on,80,0,1,,,,,,,,,0,,,88,0
37280,note_on,0,0,3,,,,,,,,,2,,,83,88
37280,note_on,0,0,1,,,,,,,,,0,,,95,101
37359,note_on,0,0,3,,,,,,,,,2,,,84,88
37359,note_on,0,0,1,,,,,,,,,0,,,96,101
37359,note_on,79,0,3,,,,,,,,,2,,,83,0
37359,note_on,79,0,1,,,,,,,,,0,,,95,0
37440,note_on,81,0,3,,,,,,,,,2,,,84,0
37440,note_on,0,0,3,,,,,,,,,2,,,77,88
37440,note_on,81,0,1,,,,,,,,,0,,,96,0
37440,note_on,0,0,1,,,,,,,,,0,,,89,101
37520,note_on,80,0,3,,,,,,,,,2,,,77,0
37520,note_on,0,0,1,,,,,,,,,0,,,93,101
37520,note_on,80,0,1,,,,,,,,,0,,,89,0
37520,note_on,0,0,3,,,,,,,,,2,,,81,88
37599,note_on,79,0,3,,,,,,,,,2,,,81,0
37599,note_on,0,0,1,,,,,,,,,0,,,96,101
37599,note_on,0,0,3,,,,,,,,,2,,,84,88
37599,note_on,79,0,1,,,,,,,,,0,,,93,0
37680,note_on,81,0,1,,,,,,,,,0,,,96,0
37680,note_on,0,0,1,,,,,,,,,0,,,87,101
37680,note_on,0,0,3,,,,,,,,,2,,,75,88
37680,note_on,81,0,3,,,,,,,,,2,,,84,0
37760,note_on,0,0,3,,,,,,,,,2,,,81,88
37760,note_on,80,0,3,,,,,,,,,2,,,75,0
37760,note_on,80,0,1,,,,,,,,,0,,,87,0
37760,note_on,0,0,1,,,,,,,,,0,,,93,101
37839,note_on,0,0,1,,,,,,,,,0,,,95,101
37839,note_on,0,0,3,,,,,,,,,2,,,83,88
37839,note_on,79,0,1,,,,,,,,,0,,,93,0
37839,note_on,79,0,3,,,,,,,,,2,,,81,0
37920,note_on,0,0,3,,,,,,,,,2,,,76,88
37920,note_on,81,0,3,,,,,,,,,2,,,83,0
37920,note_on,81,0,1,,,,,,,,,0,,,95,0
37920,note_on,0,0,1,,,,,,,,,0,,,88,101
38000,note_on,80,0,3,,,,,,,,,2,,,76,0
38000,note_on,80,0,1,,,,,,,,,0,,,88,0
38000,note_on,0,0,3,,,,,,,,,2,,,83,88
38000,note_on,0,0,1,,,,,,,,,0,,,95,101
38079,note_on,0,0,1,,,,,,,,,0,,,92,101
38079,note_on,79,0,3,,,,,,,,,2,,,83,0
38079,note_on,0,0,3,,,,,,,,,2,,,80,88
38079,note_on,79,0,1,,,,,,,,,0,,,95,0
38160,note_on,81,0,1,,,,,,,,,0,,,92,0
38160,note_on,81,0,3,,,,,,,,,2,,,80,0
38160,note_on,0,0,1,,,,,,,,,0,,,88,101
38160,note_on,0,0,3,,,,,,,,,2,,,76,88
38240,note_on,0,0,3,,,,,,,,,2,,,71,88
38240,note_on,80,0,1,,,,,,,,,0,,,88,0
38240,note_on,80,0,3,,,,,,,,,2,,,76,0
38240,note_on,0,0,1,,,,,,,,,0,,,83,101
38319,note_on,79,0,3,,,,,,,,,2,,,71,0
38319,note_on,0,0,1,,,,,,,,,0,,,80,101
38319,note_on,0,0,3,,,,,,,,,2,,,68,88
38319,note_on,79,0,1,,,,,,,,,0,,,83,0
38400,note_on,81,0,3,,,,,,,,,2,,,68,0
38400,note_on,0,0,1,,,,,,,,,0,,,76,101
38400,note_on,0,0,3,,,,,,,,,2,,,64,88
38400,note_on,81,0,1,,,,,,,,,0,,,80,0
38480,note_on,80,0,3,,,,,,,,,2,,,64,0
38480,note_on,0,0,1,,,,,,,,,0,,,83,101
38480,note_on,0,0,3,,,,,,,,,2,,,71,88
38480,note_on,80,0,1,,,,,,,,,0,,,76,0
38559,note_on,79,0,1,,,,,,,,,0,,,83,0
38559,note_on,0,0,1,,,,,,,,,0,,,80,101
38559,note_on,0,0,3,,,,,,,,,2,,,68,88
38559,note_on,79,0,3,,,,,,,,,2,,,71,0
38640,note_on,0,0,1,,,,,,,,,0,,,76,101
38640,note_on,81,0,3,,,,,,,,,2,,,68,0
38640,note_on,81,0,1,,,,,,,,,0,,,80,0
38640,note_on,0,0,3,,,,,,,,,2,,,64,88
38720,note_on,80,0,1,,,,,,,,,0,,,76,0
38720,note_on,0,0,1,,,,,,,,,0,,,71,101
38720,note_on,80,0,3,,,,,,,,,2,,,64,0
38720,note_on,0,0,3,,,,,,,,,2,,,59,88
38799,note_on,0,0,3,,,,,,,,,2,,,56,88
38799,note_on,79,0,3,,,,,,,,,2,,,59,0
38799,note_on,0,0,1,,,,,,,,,0,,,68,101
38799,note_on,79,0,1,,,,,,,,,0,,,71,0
38880,note_on,81,0,1,,,,,,,,,0,,,68,0
38880,note_on,81,0,3,,,,,,,,,2,,,56,0
38880,note_on,0,0,1,,,,,,,,,0,,,64,101
38880,note_on,0,0,3,,,,,,,,,2,,,52,88
38960,note_on,80,0,3,,,,,,,,,2,,,52,0
38960,note_on,80,0,1,,,,,,,,,0,,,64,0
38960,note_on,0,0,1,,,,,,,,,0,,,71,101
38960,note_on,0,0,3,,,,,,,,,2,,,59,88
39039,note_on,79,0,1,,,,,,,,,0,,,71,0
39039,note_on,0,0,3,,,,,,,,,2,,,56,88
39039,note_on,0,0,1,,,,,,,,,0,,,68,101
39039,note_on,79,0,3,,,,,,,,,2,,,59,0
39120,note_on,81,0,3,,,,,,,,,2,,,56,0
39120,note_on,81,0,1,,,,,,,,,0,,,68,0
39120,note_on,0,0,1,,,,,,,,,0,,,64,101
39120,note_on,0,0,3,,,,,,,,,2,,,52,88
39200,note_on,0,0,1,,,,,,,,,0,,,59,101
39200,note_on,80,0,1,,,,,,,,,0,,,64,0
39200,note_on,80,0,3,,,,,,,,,2,,,52,0
39200,note_on,0,0,3,,,,,,,,,2,,,47,88
39279,note_on,0,0,1,,,,,,,,,0,,,56,101
39279,note_on,79,0,1,,,,,,,,,0,,,59,0
39279,note_on,79,0,3,,,,,,,,,2,,,47,0
39279,note_on,0,0,3,,,,,,,,,2,,,44,88
39360,note_on,81,0,3,,,,,,,,,2,,,44,0
39360,note_on,81,0,1,,,,,,,,,0,,,56,0
39360,note_on,0,0,1,,,,,,,,,0,,,52,101
39360,note_on,0,0,3,,,,,,,,,2,,,40,88
39440,note_on,0,0,1,,,,,,,,,0,,,53,101
39440,note_on,80,0,1,,,,,,,,,0,,,52,0
39440,note_on,0,0,3,,,,,,,,,2,,,41,88
39440,note_on,80,0,3,,,,,,,,,2,,,40,0
39519,note_on,0,0,1,,,,,,,,,0,,,54,101
39519,note_on,0,0,3,,,,,,,,,2,,,42,88
39519,note_on,79,0,1,,,,,,,,,0,,,53,0
39519,note_on,79,0,3,,,,,,,,,2,,,41,0
39600,note_on,81,0,1,,,,,,,,,0,,,54,0
39600,note_on,81,0,3,,,,,,,,,2,,,42,0
39600,note_on,0,0,3,,,,,,,,,2,,,43,88
39600,note_on,0,0,1,,,,,,,,,0,,,55,101
39680,note_on,0,0,1,,,,,,,,,0,,,56,101
39680,note_on,80,0,3,,,,,,,,,2,,,43,0
39680,note_on,0,0,3,,,,,,,,,2,,,42,88
39680,note_on,80,0,1,,,,,,,,,0,,,55,0
39759,note_on,0,0,1,,,,,,,,,0,,,57,101
39759,note_on,79,0,3,,,,,,,,,2,,,42,0
39759,note_on,79,0,1,,,,,,,,,0,,,56,0
39759,note_on,0,0,3,,,,,,,,,2,,,41,88
39840,note_on,0,0,1,,,,,,,,,0,,,58,101
39840,note_on,81,0,1,,,,,,,,,0,,,57,0
39840,note_on,81,0,3,,,,,,,,,2,,,41,0
39840,note_on,0,0,3,,,,,,,,,2,,,40,88
39920,note_on,0,0,3,,,,,,,,,2,,,39,88
39920,note_on,80,0,3,,,,,,,,,2,,,40,0
39920,note_on,0,0,1,,,,,,,,,0,,,59,101
39920,note_on,80,0,1,,,,,,,,,0,,,58,0
39999,note_on,0,0,1,,,,,,,,,0,,,60,101
39999,note_on,79,0,3,,,,,,,,,2,,,39,0
39999,note_on,79,0,1,,,,,,,,,0,,,59,0
39999,note_on,0,0,3,,,,,,,,,2,,,38,88
40080,note_on,0,0,1,,,,,,,,,0,,,61,101
40080,note_on,81,0,1,,,,,,,,,0,,,60,0
40080,note_on,81,0,3,,,,,,,,,2,,,38,0
40080,note_on,0,0,3,,,,,,,,,2,,,37,88
40160,note_on,0,0,1,,,,,,,,,0,,,62,101
40160,note_on,0,0,3,,,,,,,,,2,,,36,88
40160,note_on,80,0,1,,,,,,,,,0,,,61,0
40160,note_on,80,0,3,,,,,,,,,2,,,37,0
40239,note_on,0,0,3,,,,,,,,,2,,,35,88
40239,note_on,0,0,1,,,,,,,,,0,,,63,101
40239,note_on,79,0,3,,,,,,,,,2,,,36,0
40239,note_on,79,0,1,,,,,,,,,0,,,62,0
40320,note_on,81,0,3,,,,,,,,,2,,,35,0
40320,note_on,0,0,1,,,,,,,,,0,,,64,88
40320,note_on,0,0,3,,,,,,,,,2,,,33,75
40320,control_change,0,0,3,,,,,,,,,2,64,127,,
40320,control_change,0,0,1,,,,,,,,,0,64,127,,
40320,note_on,81,0,1,,,,,,,,,0,,,63,0
40400,note_on,80,0,1,,,,,,,,,0,,,64,0
40400,note_on,0,0,1,,,,,,,,,0,,,69,88
40479,note_on,79,0,1,,,,,,,,,0,,,69,0
40479,note_on,0,0,1,,,,,,,,,0,,,68,88
40560,note_on,0,0,3,,,,,,,,,2,,,57,62
40560,note_on,0,0,3,,,,,,,,,2,,,52,62
40560,note_on,81,0,1,,,,,,,,,0,,,68,0
40560,note_on,0,0,3,,,,,,,,,2,,,60,62
40560,note_on,0,0,1,,,,,,,,,0,,,69,88
40560,note_on,240,0,3,,,,,,,,,2,,,33,0
40640,note_on,0,0,1,,,,,,,,,0,,,72,88
40640,note_on,80,0,1,,,,,,,,,0,,,69,0
40719,note_on,0,0,1,,,,,,,,,0,,,71,88
40719,note_on,79,0,1,,,,,,,,,0,,,72,0
40800,note_on,0,0,1,,,,,,,,,0,,,72,88
40800,note_on,81,0,1,,,,,,,,,0,,,71,0
40800,note_on,0,0,3,,,,,,,,,2,,,57,62
40800,note_on,0,0,3,,,,,,,,,2,,,57,0
40800,note_on,0,0,3,,,,,,,,,2,,,52,62
40800,note_on,0,0,3,,,,,,,,,2,,,52,0
40800,note_on,0,0,3,,,,,,,,,2,,,60,62
40800,note_on,240,0,3,,,,,,,,,2,,,60,0
40880,note_on,0,0,1,,,,,,,,,0,,,76,88
40880,note_on,80,0,1,,,,,,,,,0,,,72,0
40959,note_on,79,0,1,,,,,,,,,0,,,76,0
40959,note_on,0,0,1,,,,,,,,,0,,,75,88
41040,note_on,81,0,1,,,,,,,,,0,,,75,0
41040,note_on,0,0,3,,,,,,,,,2,,,57,0
41040,note_on,0,0,3,,,,,,,,,2,,,52,62
41040,note_on,0,0,3,,,,,,,,,2,,,52,0
41040,note_on,0,0,3,,,,,,,,,2,,,57,62
41040,note_on,0,0,3,,,,,,,,,2,,,60,62
41040,note_on,0,0,1,,,,,,,,,0,,,76,88
41040,note_on,240,0,3,,,,,,,,,2,,,60,0
41120,note_on,0,0,1,,,,,,,,,0,,,81,88
41120,note_on,80,0,1,,,,,,,,,0,,,76,0
41199,note_on,0,0,1,,,,,,,,,0,,,80,88
41199,note_on,79,0,1,,,,,,,,,0,,,81,0
41280,note_on,0,0,3,,,,,,,,,2,,,57,62
41280,note_on,0,0,3,,,,,,,,,2,,,57,0
41280,note_on,0,0,3,,,,,,,,,2,,,60,62
41280,note_on,81,0,1,,,,,,,,,0,,,80,0
41280,note_on,240,0,3,,,,,,,,,2,,,60,0
41280,note_on,0,0,3,,,,,,,,,2,,,52,62
41280,note_on,0,0,1,,,,,,,,,0,,,81,88
41280,note_on,0,0,3,,,,,,,,,2,,,52,0
41360,note_on,0,0,1,,,,,,,,,0,,,84,88
41360,note_on,80,0,1,,,,,,,,,0,,,81,0
41439,note_on,0,0,1,,,,,,,,,0,,,83,88
41439,note_on,79,0,1,,,,,,,,,0,,,84,0
41520,control_change,0,0,3,,,,,,,,,2,64,0,,
41520,note_on,0,0,3,,,,,,,,,2,,,57,0
41520,note_on,81,0,1,,,,,,,,,0,,,83,0
41520,control_change,0,0,1,,,,,,,,,0,64,0,,
41520,note_on,0,0,3,,,,,,,,,2,,,52,0
41520,note_on,240,0,3,,,,,,,,,2,,,60,0
41520,note_on,0,0,1,,,,,,,,,0,,,84,88
41600,note_on,80,0,1,,,,,,,,,0,,,84,0
41600,note_on,0,0,1,,,,,,,,,0,,,88,88
41640,note_on,120,0,3,,,,,,,,,2,,,40,75
41670,note_on,30,0,3,,,,,,,,,2,,,40,0
41670,note_on,0,0,3,,,,,,,,,2,,,38,75
41679,note_on,0,0,1,,,,,,,,,0,,,87,88
41679,note_on,79,0,1,,,,,,,,,0,,,88,0
41700,note_on,30,0,3,,,,,,,,,2,,,38,0
41700,note_on,0,0,3,,,,,,,,,2,,,36,75
41730,note_on,0,0,3,,,,,,,,,2,,,35,75
41730,note_on,30,0,3,,,,,,,,,2,,,36,0
41760,note_on,30,0,3,,,,,,,,,2,,,35,0
41760,control_change,0,0,1,,,,,,,,,0,64,127,,
41760,note_on,0,0,3,,,,,,,,,2,,,33,75
41760,note_on,81,0,1,,,,,,,,,0,,,87,0
41760,control_change,0,0,3,,,,,,,,,2,64,127,,
41760,note_on,0,0,1,,,,,,,,,0,,,88,88
41840,note_on,0,0,1,,,,,,,,,0,,,93,88
41840,note_on,80,0,1,,,,,,,,,0,,,88,0
41919,note_on,79,0,1,,,,,,,,,0,,,93,0
41919,note_on,0,0,1,,,,,,,,,0,,,92,88
42000,note_on,0,0,3,,,,,,,,,2,,,57,62
42000,note_on,0,0,3,,,,,,,,,2,,,52,62
42000,note_on,0,0,1,,,,,,,,,0,,,93,88
42000,note_on,0,0,3,,,,,,,,,2,,,60,62
42000,note_on,81,0,1,,,,,,,,,0,,,92,0
42000,note_on,240,0,3,,,,,,,,,2,,,33,0
42080,note_on,0,0,1,,,,,,,,,0,,,96,88
42080,note_on,80,0,1,,,,,,,,,0,,,93,0
42159,note_on,79,0,1,,,,,,,,,0,,,96,0
42159,note_on,0,0,1,,,,,,,,,0,,,95,88
42240,note_on,240,0,3,,,,,,,,,2,,,60,0
42240,note_on,0,0,3,,,,,,,,,2,,,52,0
42240,note_on,0,0,3,,,,,,,,,2,,,57,62
42240,note_on,0,0,3,,,,,,,,,2,,,57,0
42240,note_on,0,0,3,,,,,,,,,2,,,52,62
42240,note_on,0,0,1,,,,,,,,,0,,,96,88
42240,note_on,0,0,3,,,,,,,,,2,,,60,62
42240,note_on,81,0,1,,,,,,,,,0,,,95,0
42320,note_on,80,0,1,,,,,,,,,0,,,96,0
42320,note_on,0,0,1,,,,,,,,,0,,,100,88
42399,note_on,0,0,1,,,,,,,,,0,,,99,88
42399,note_on,79,0,1,,,,,,,,,0,,,100,0
42480,note_on,0,0,3,,,,,,,,,2,,,60,62
42480,note_on,0,0,1,,,,,,,,,0,,,100,88
42480,note_on,0,0,3,,,,,,,,,2,,,57,0
42480,note_on,240,0,3,,,,,,,,,2,,,60,0
42480,note_on,0,0,3,,,,,,,,,2,,,52,62
42480,note_on,0,0,3,,,,,,,,,2,,,52,0
42480,note_on,81,0,1,,,,,,,,,0,,,99,0
42480,note_on,0,0,3,,,,,,,,,2,,,57,62
42560,note_on,80,0,1,,,,,,,,,0,,,100,0
42560,note_on,0,0,1,,,,,,,,,0,,,100,88
42639,note_on,0,0,1,,,,,,,,,0,,,100,88
42639,note_on,79,0,1,,,,,,,,,0,,,100,0
42720,note_on,81,0,1,,,,,,,,,0,,,100,0
42720,note_on,240,0,3,,,,,,,,,2,,,60,0
42720,note_on,0,0,3,,,,,,,,,2,,,52,62
42720,note_on,0,0,1,,,,,,,,,0,,,100,88
42720,note_on,0,0,3,,,,,,,,,2,,,60,62
42720,note_on,0,0,3,,,,,,,,,2,,,57,62
42720,note_on,0,0,3,,,,,,,,,2,,,57,0
42720,note_on,0,0,3,,,,,,,,,2,,,52,0
42800,note_on,80,0,1,,,,,,,,,0,,,100,0
42800,note_on,0,0,1,,,,,,,,,0,,,100,88
42879,note_on,0,0,1,,,,,,,,,0,,,100,88
42879,note_on,79,0,1,,,,,,,,,0,,,100,0
42960,note_on,81,0,1,,,,,,,,,0,,,100,0
42960,note_on,0,0,3,,,,,,,,,2,,,57,0
42960,note_on,240,0,3,,,,,,,,,2,,,60,0
42960,note_on,0,0,3,,,,,,,,,2,,,52,0
42960,note_on,0,0,1,,,,,,,,,0,,,100,88
42960,control_change,0,0,3,,,,,,,,,2,64,0,,
42960,control_change,0,0,1,,,,,,,,,0,64,0,,
43040,note_on,80,0,1,,,,,,,,,0,,,100,0
43040,note_on,0,0,1,,,,,,,,,0,,,100,88
43080,note_on,120,0,3,,,,,,,,,2,,,40,75
43103,note_on,0,0,3,,,,,,,,,2,,,38,75
43103,note_on,23,0,3,,,,,,,,,2,,,40,0
43119,note_on,79,0,1,,,,,,,,,0,,,100,0
43119,note_on,0,0,1,,,,,,,,,0,,,100,88
43127,note_on,0,0,3,,,,,,,,,2,,,36,75
43127,note_on,24,0,3,,,,,,,,,2,,,38,0
43152,note_on,25,0,3,,,,,,,,,2,,,36,0
43152,note_on,0,0,3,,,,,,,,,2,,,35,75
43176,note_on,24,0,3,,,,,,,,,2,,,35,0
43176,note_on,0,0,3,,,,,,,,,2,,,33,75
43200,note_on,24,0,3,,,,,,,,,2,,,33,0
43200,note_on,81,0,1,,,,,,,,,0,,,100,0
43200,note_on,0,0,3,,,,,,,,,2,,,38,75
43200,note_on,0,0,1,,,,,,,,,0,,,101,88
43280,note_on,80,0,1,,,,,,,,,0,,,101,0
43280,note_on,0,0,1,,,,,,,,,0,,,100,88
43359,note_on,0,0,1,,,,,,,,,0,,,98,88
43359,note_on,79,0,1,,,,,,,,,0,,,100,0
43440,note_on,0,0,3,,,,,,,,,2,,,62,62
43440,note_on,0,0,3,,,,,,,,,2,,,59,62
43440,note_on,240,0,3,,,,,,,,,2,,,38,0
43440,note_on,0,0,1,,,,,,,,,0,,,96,88
43440,note_on,81,0,1,,,,,,,,,0,,,98,0
43440,note_on,0,0,3,,,,,,,,,2,,,53,62
43520,note_on,80,0,1,,,,,,,,,0,,,96,0
43520,note_on,0,0,1,,,,,,,,,0,,,95,88
43599,note_on,79,0,1,,,,,,,,,0,,,95,0
43599,note_on,0,0,1,,,,,,,,,0,,,93,88
43680,note_on,0,0,3,,,,,,,,,2,,,59,0
43680,note_on,0,0,3,,,,,,,,,2,,,59,62
43680,note_on,240,0,3,,,,,,,,,2,,,62,0
43680,note_on,0,0,3,,,,,,,,,2,,,62,62
43680,note_on,81,0,1,,,,,,,,,0,,,93,0
43680,note_on,0,0,3,,,,,,,,,2,,,53,0
43680,note_on,0,0,3,,,,,,,,,2,,,53,62
43680,note_on,0,0,1,,,,,,,,,0,,,98,88
43760,note_on,80,0,1,,,,,,,,,0,,,98,0
43760,note_on,0,0,1,,,,,,,,,0,,,96,88
43839,note_on,0,0,1,,,,,,,,,0,,,95,88
43839,note_on,79,0,1,,,,,,,,,0,,,96,0
43920,note_on,0,0,3,,,,,,,,,2,,,59,62
43920,note_on,81,0,1,,,,,,,,,0,,,95,0
43920,note_on,0,0,3,,,,,,,,,2,,,53,0
43920,note_on,0,0,1,,,,,,,,,0,,,93,88
43920,note_on,0,0,3,,,,,,,,,2,,,53,62
43920,note_on,0,0,3,,,,,,,,,2,,,59,0
43920,note_on,240,0,3,,,,,,,,,2,,,62,0
43920,note_on,0,0,3,,,,,,,,,2,,,62,62
44000,note_on,80,0,1,,,,,,,,,0,,,93,0
44000,note_on,0,0,1,,,,,,,,,0,,,91,88
44079,note_on,79,0,1,,,,,,,,,0,,,91,0
44079,note_on,0,0,1,,,,,,,,,0,,,89,88
44160,note_on,240,0,3,,,,,,,,,2,,,62,0
44160,note_on,0,0,3,,,,,,,,,2,,,52,75
44160,note_on,0,0,1,,,,,,,,,0,,,92,88
44160,note_on,0,0,3,,,,,,,,,2,,,53,0
44160,note_on,0,0,3,,,,,,,,,2,,,59,0
44160,note_on,81,0,1,,,,,,,,,0,,,89,0
44240,note_on,80,0,1,,,,,,,,,0,,,92,0
44240,note_on,0,0,1,,,,,,,,,0,,,89,88
44319,note_on,79,0,1,,,,,,,,,0,,,89,0
44319,note_on,0,0,1,,,,,,,,,0,,,88,88
44400,note_on,0,0,1,,,,,,,,,0,,,86,88
44400,note_on,240,0,3,,,,,,,,,2,,,52,0
44400,note_on,81,0,1,,,,,,,,,0,,,88,0
44400,note_on,0,0,3,,,,,,,,,2,,,64,62
44400,note_on,0,0,3,,,,,,,,,2,,,62,62
44400,note_on,0,0,3,,,,,,,,,2,,,59,62
44480,note_on,80,0,1,,,,,,,,,0,,,86,0
44480,note_on,0,0,1,,,,,,,,,0,,,84,88
44559,note_on,79,0,1,,,,,,,,,0,,,84,0
44559,note_on,0,0,1,,,,,,,,,0,,,83,88
44640,note_on,0,0,3,,,,,,,,,2,,,60,75
44640,note_on,0,0,3,,,,,,,,,2,,,59,0
44640,note_on,0,0,3,,,,,,,,,2,,,57,75
44640,note_on,240,0,3,,,,,,,,,2,,,64,0
44640,note_on,0,0,1,,,,,,,,,0,,,81,114
44640,note_on,81,0,1,,,,,,,,,0,,,83,0
44640,note_on,0,0,3,,,,,,,,,2,,,62,0
44720,note_on,80,0,1,,,,,,,,,0,,,81,0
44720,note_on,0,0,1,,,,,,,,,0,,,80,88
44799,note_on,79,0,1,,,,,,,,,0,,,80,0
44799,note_on,0,0,1,,,,,,,,,0,,,81,88
44880,note_on,81,0,1,,,,,,,,,0,,,81,0
44880,note_on,0,0,3,,,,,,,,,2,,,72,88
44880,note_on,0,0,3,,,,,,,,,2,,,76,88
44880,note_on,0,0,3,,,,,,,,,2,,,69,88
44880,note_on,0,0,1,,,,,,,,,0,,,93,114
44880,note_on,240,0,3,,,,,,,,,2,,,60,0
44880,note_on,0,0,3,,,,,,,,,2,,,57,0
44927,note_on,0,0,3,,,,,,,,,2,,,72,0
44927,note_on,47,0,3,,,,,,,,,2,,,76,0
44927,note_on,0,0,3,,,,,,,,,2,,,69,0
44960,note_on,0,0,1,,,,,,,,,0,,,92,88
44960,note_on,80,0,1,,,,,,,,,0,,,93,0
45039,note_on,79,0,1,,,,,,,,,0,,,92,0
45039,note_on,0,0,1,,,,,,,,,0,,,93,88
45120,note_on,0,0,1,,,,,,,,,0,,,76,114
45120,note_on,193,0,3,,,,,,,,,2,,,64,75
45120,note_on,81,0,1,,,,,,,,,0,,,93,0
45200,note_on,80,0,1,,,,,,,,,0,,,76,0
45200,note_on,0,0,1,,,,,,,,,0,,,75,88
45279,note_on,79,0,1,,,,,,,,,0,,,75,0
45279,note_on,0,0,1,,,,,,,,,0,,,76,88
45360,note_on,81,0,1,,,,,,,,,0,,,76,0
45360,note_on,240,0,3,,,,,,,,,2,,,64,0
45360,note_on,0,0,3,,,,,,,,,2,,,68,101
45360,note_on,0,0,1,,,,,,,,,0,,,88,114
45360,note_on,0,0,3,,,,,,,,,2,,,71,101
45407,note_on,0,0,3,,,,,,,,,2,,,68,0
45407,note_on,47,0,3,,,,,,,,,2,,,71,0
45440,note_on,80,0,1,,,,,,,,,0,,,88,0
45440,note_on,0,0,1,,,,,,,,,0,,,87,88
45519,note_on,0,0,1,,,,,,,,,0,,,88,88
45519,note_on,79,0,1,,,,,,,,,0,,,87,0
45600,note_on,0,0,1,,,,,,,,,0,,,69,114
45600,note_on,193,0,3,,,,,,,,,2,,,57,75
45600,note_on,81,0,1,,,,,,,,,0,,,88,0
45680,note_on,0,0,1,,,,,,,,,0,,,68,88
45680,note_on,80,0,1,,,,,,,,,0,,,69,0
45759,note_on,79,0,1,,,,,,,,,0,,,68,0
45759,note_on,0,0,1,,,,,,,,,0,,,69,88
45840,note_on,0,0,1,,,,,,,,,0,,,81,114
45840,note_on,240,0,3,,,,,,,,,2,,,57,0
45840,note_on,0,0,3,,,,,,,,,2,,,60,101
45840,note_on,0,0,3,,,,,,,,,2,,,64,101
45840,note_on,81,0,1,,,,,,,,,0,,,69,0
45887,note_on,47,0,3,,,,,,,,,2,,,64,0
45887,note_on,0,0,3,,,,,,,,,2,,,60,0
45920,note_on,0,0,1,,,,,,,,,0,,,80,88
45920,note_on,80,0,1,,,,,,,,,0,,,81,0
45999,note_on,0,0,1,,,,,,,,,0,,,81,88
45999,note_on,79,0,1,,,,,,,,,0,,,80,0
46080,note_on,193,0,3,,,,,,,,,2,,,52,75
46080,note_on,81,0,1,,,,,,,,,0,,,81,0
46080,note_on,0,0,1,,,,,,,,,0,,,64,88
46160,note_on,80,0,1,,,,,,,,,0,,,64,0
46160,note_on,0,0,1,,,,,,,,,0,,,63,88
46239,note_on,79,0,1,,,,,,,,,0,,,63,0
46239,note_on,0,0,1,,,,,,,,,0,,,64,88
46320,note_on,0,0,1,,,,,,,,,0,,,76,88
46320,note_on,81,0,1,,,,,,,,,0,,,64,0
46320,note_on,0,0,3,,,,,,,,,2,,,59,101
46320,note_on,0,0,3,,,,,,,,,2,,,56,101
46320,note_on,240,0,3,,,,,,,,,2,,,52,0
46367,note_on,0,0,3,,,,,,,,,2,,,56,0
46367,note_on,47,0,3,,,,,,,,,2,,,59,0
46400,note_on,80,0,1,,,,,,,,,0,,,76,0
46400,note_on,0,0,1,,,,,,,,,0,,,75,88
46479,note_on,79,0,1,,,,,,,,,0,,,75,0
46479,note_on,0,0,1,,,,,,,,,0,,,76,88
46560,note_on,193,0,3,,,,,,,,,2,,,45,75
46560,note_on,81,0,1,,,,,,,,,0,,,76,0
46560,note_on,0,0,1,,,,,,,,,0,,,57,114
46640,note_on,0,0,1,,,,,,,,,0,,,56,88
46640,note_on,80,0,1,,,,,,,,,0,,,57,0
46719,note_on,79,0,1,,,,,,,,,0,,,56,0
46719,note_on,0,0,1,,,,,,,,,0,,,57,88
46800,note_on,81,0,1,,,,,,,,,0,,,57,0
46800,note_on,0,0,3,,,,,,,,,2,,,52,101
46800,note_on,240,0,3,,,,,,,,,2,,,45,0
46800,note_on,0,0,3,,,,,,,,,2,,,48,101
46800,note_on,0,0,1,,,,,,,,,0,,,69,114
46847,note_on,0,0,3,,,,,,,,,2,,,48,0
46847,note_on,47,0,3,,,,,,,,,2,,,52,0
46880,note_on,0,0,1,,,,,,,,,0,,,68,88
46880,note_on,80,0,1,,,,,,,,,0,,,69,0
46959,note_on,0,0,1,,,,,,,,,0,,,69,88
46959,note_on,79,0,1,,,,,,,,,0,,,68,0
47040,note_on,0,0,1,,,,,,,,,0,,,52,114
47040,note_on,81,0,1,,,,,,,,,0,,,69,0
47040,note_on,193,0,3,,,,,,,,,2,,,40,75
47120,note_on,80,0,1,,,,,,,,,0,,,52,0
47120,note_on,0,0,1,,,,,,,,,0,,,51,88
47199,note_on,79,0,1,,,,,,,,,0,,,51,0
47199,note_on,0,0,1,,,,,,,,,0,,,52,88
47280,note_on,0,0,3,,,,,,,,,2,,,44,101
47280,note_on,81,0,1,,,,,,,,,0,,,52,0
47280,note_on,0,0,3,,,,,,,,,2,,,47,101
47280,note_on,0,0,1,,,,,,,,,0,,,64,114
47280,note_on,240,0,3,,,,,,,,,2,,,40,0
47327,note_on,47,0,3,,,,,,,,,2,,,47,0
47327,note_on,0,0,3,,,,,,,,,2,,,44,0
47360,note_on,80,0,1,,,,,,,,,0,,,64,0
47360,note_on,0,0,1,,,,,,,,,0,,,63,88
47439,note_on,79,0,1,,,,,,,,,0,,,63,0
47439,note_on,0,0,1,,,,,,,,,0,,,64,88
47520,note_on,81,0,1,,,,,,,,,0,,,64,0
47520,note_on,0,0,1,,,,,,,,,0,,,45,101
47520,note_on,193,0,3,,,,,,,,,2,,,33,88
47600,note_on,80,0,1,,,,,,,,,0,,,45,0
47600,note_on,0,0,3,,,,,,,,,2,,,36,88
47600,note_on,0,0,1,,,,,,,,,0,,,48,101
47600,note_on,80,0,3,,,,,,,,,2,,,33,0
47679,note_on,79,0,3,,,,,,,,,2,,,36,0
47679,note_on,0,0,3,,,,,,,,,2,,,35,88
47679,note_on,0,0,1,,,,,,,,,0,,,47,101
47679,note_on,79,0,1,,,,,,,,,0,,,48,0
47760,note_on,0,0,1,,,,,,,,,0,,,48,101
47760,note_on,81,0,3,,,,,,,,,2,,,35,0
47760,note_on,0,0,3,,,,,,,,,2,,,36,88
47760,note_on,81,0,1,,,,,,,,,0,,,47,0
47840,note_on,80,0,1,,,,,,,,,0,,,48,0
47840,note_on,0,0,3,,,,,,,,,2,,,40,88
47840,note_on,80,0,3,,,,,,,,,2,,,36,0
47840,note_on,0,0,1,,,,,,,,,0,,,52,101
47919,note_on,79,0,3,,,,,,,,,2,,,40,0
47919,note_on,0,0,1,,,,,,,,,0,,,51,101
47919,note_on,79,0,1,,,,,,,,,0,,,52,0
47919,note_on,0,0,3,,,,,,,,,2,,,39,88
48000,note_on,81,0,3,,,,,,,,,2,,,39,0
48000,note_on,0,0,1,,,,,,,,,0,,,52,101
48000,note_on,0,0,3,,,,,,,,,2,,,40,88
48000,note_on,81,0,1,,,,,,,,,0,,,51,0
48080,note_on,80,0,3,,,,,,,,,2,,,40,0
48080,note_on,0,0,3,,,,,,,,,2,,,45,88
48080,note_on,0,0,1,,,,,,,,,0,,,57,101
48080,note_on,80,0,1,,,,,,,,,0,,,52,0
48159,note_on,0,0,1,,,,,,,,,0,,,56,101
48159,note_on,79,0,3,,,,,,,,,2,,,45,0
48159,note_on,79,0,1,,,,,,,,,0,,,57,0
48159,note_on,0,0,3,,,,,,,,,2,,,44,88
48240,note_on,81,0,3,,,,,,,,,2,,,44,0
48240,note_on,81,0,1,,,,,,,,,0,,,56,0
48240,note_on,0,0,3,,,,,,,,,2,,,45,88
48240,note_on,0,0,1,,,,,,,,,0,,,57,101
48320,note_on,80,0,1,,,,,,,,,0,,,57,0
48320,note_on,0,0,1,,,,,,,,,0,,,60,101
48320,note_on,0,0,3,,,,,,,,,2,,,48,88
48320,note_on,80,0,3,,,,,,,,,2,,,45,0
48399,note_on,79,0,1,,,,,,,,,0,,,60,0
48399,note_on,0,0,3,,,,,,,,,2,,,47,88
48399,note_on,79,0,3,,,,,,,,,2,,,48,0
48399,note_on,0,0,1,,,,,,,,,0,,,59,101
48480,note_on,81,0,3,,,,,,,,,2,,,47,0
48480,note_on,0,0,3,,,,,,,,,2,,,48,88
48480,note_on,0,0,1,,,,,,,,,0,,,60,101
48480,note_on,81,0,1,,,,,,,,,0,,,59,0
48560,note_on,0,0,3,,,,,,,,,2,,,52,88
48560,note_on,0,0,1,,,,,,,,,0,,,64,101
48560,note_on,80,0,1,,,,,,,,,0,,,60,0
48560,note_on,80,0,3,,,,,,,,,2,,,48,0
48639,note_on,79,0,3,,,,,,,,,2,,,52,0
48639,note_on,0,0,1,,,,,,,,,0,,,63,101
48639,note_on,79,0,1,,,,,,,,,0,,,64,0
48639,note_on,0,0,3,,,,,,,,,2,,,51,88
48720,note_on,81,0,1,,,,,,,,,0,,,63,0
48720,note_on,0,0,1,,,,,,,,,0,,,64,101
48720,note_on,0,0,3,,,,,,,,,2,,,52,88
48720,note_on,81,0,3,,,,,,,,,2,,,51,0
48800,note_on,80,0,3,,,,,,,,,2,,,52,0
48800,note_on,0,0,3,,,,,,,,,2,,,57,88
48800,note_on,80,0,1,,,,,,,,,0,,,64,0
48800,note_on,0,0,1,,,,,,,,,0,,,69,101
48879,note_on,0,0,1,,,,,,,,,0,,,68,101
48879,note_on,0,0,3,,,,,,,,,2,,,56,88
48879,note_on,79,0,3,,,,,,,,,2,,,57,0
48879,note_on,79,0,1,,,,,,,,,0,,,69,0
48960,note_on,81,0,3,,,,,,,,,2,,,56,0
48960,note_on,81,0,1,,,,,,,,,0,,,68,0
48960,note_on,0,0,3,,,,,,,,,2,,,57,88
48960,note_on,0,0,1,,,,,,,,,0,,,69,101
49040,note_on,80,0,3,,,,,,,,,2,,,57,0
49040,note_on,0,0,3,,,,,,,,,2,,,60,88
49040,note_on,80,0,1,,,,,,,,,0,,,69,0
49040,note_on,0,0,1,,,,,,,,,0,,,72,101
49119,note_on,0,0,3,,,,,,,,,2,,,59,88
49119,note_on,0,0,1,,,,,,,,,0,,,71,101
49119,note_on,79,0,3,,,,,,,,,2,,,60,0
49119,note_on,79,0,1,,,,,,,,,0,,,72,0
49200,note_on,81,0,3,,,,,,,,,2,,,59,0
49200,note_on,0,0,1,,,,,,,,,0,,,72,101
49200,note_on,81,0,1,,,,,,,,,0,,,71,0
49200,note_on,0,0,3,,,,,,,,,2,,,60,88
49280,note_on,80,0,3,,,,,,,,,2,,,60,0
49280,note_on,80,0,1,,,,,,,,,0,,,72,0
49280,note_on,0,0,1,,,,,,,,,0,,,76,101
49280,note_on,0,0,3,,,,,,,,,2,,,64,88
49359,note_on,0,0,1,,,,,,,,,0,,,75,101
49359,note_on,79,0,1,,,,,,,,,0,,,76,0
49359,note_on,79,0,3,,,,,,,,,2,,,64,0
49359,note_on,0,0,3,,,,,,,,,2,,,63,88
49440,note_on,81,0,3,,,,,,,,,2,,,63,0
49440,note_on,81,0,1,,,,,,,,,0,,,75,0
49440,note_on,0,0,3,,,,,,,,,2,,,64,88
49440,note_on,0,0,1,,,,,,,,,0,,,76,101
49520,note_on,0,0,3,,,,,,,,,2,,,69,88
49520,note_on,80,0,1,,,,,,,,,0,,,76,0
49520,note_on,0,0,1,,,,,,,,,0,,,81,101
49520,note_on,80,0,3,,,,,,,,,2,,,64,0
49599,note_on,79,0,3,,,,,,,,,2,,,69,0
49599,note_on,0,0,1,,,,,,,,,0,,,80,101
49599,note_on,0,0,3,,,,,,,,,2,,,68,88
49599,note_on,79,0,1,,,,,,,,,0,,,81,0
49680,note_on,0,0,1,,,,,,,,,0,,,81,101
49680,note_on,81,0,1,,,,,,,,,0,,,80,0
49680,note_on,81,0,3,,,,,,,,,2,,,68,0
49680,note_on,0,0,3,,,,,,,,,2,,,69,88
49760,note_on,0,0,1,,,,,,,,,0,,,84,101
49760,note_on,80,0,1,,,,,,,,,0,,,81,0
49760,note_on,80,0,3,,,,,,,,,2,,,69,0
49760,note_on,0,0,3,,,,,,,,,2,,,72,88
49839,note_on,0,0,3,,,,,,,,,2,,,71,88
49839,note_on,79,0,3,,,,,,,,,2,,,72,0
49839,note_on,0,0,1,,,,,,,,,0,,,83,101
49839,note_on,79,0,1,,,,,,,,,0,,,84,0
49920,note_on,81,0,1,,,,,,,,,0,,,83,0
49920,note_on,0,0,1,,,,,,,,,0,,,84,101
49920,note_on,81,0,3,,,,,,,,,2,,,71,0
49920,note_on,0,0,3,,,,,,,,,2,,,72,88
50000,note_on,0,0,1,,,,,,,,,0,,,88,101
50000,note_on,80,0,1,,,,,,,,,0,,,84,0
50000,note_on,0,0,3,,,,,,,,,2,,,76,88
50000,note_on,80,0,3,,,,,,,,,2,,,72,0
50079,note_on,79,0,1,,,,,,,,,0,,,88,0
50079,note_on,0,0,1,,,,,,,,,0,,,87,101
50079,note_on,79,0,3,,,,,,,,,2,,,76,0
50079,note_on,0,0,3,,,,,,,,,2,,,75,88
50160,note_on,0,0,1,,,,,,,,,0,,,88,101
50160,note_on,0,0,3,,,,,,,,,2,,,76,88
50160,note_on,81,0,3,,,,,,,,,2,,,75,0
50160,note_on,81,0,1,,,,,,,,,0,,,87,0
50240,note_on,0,0,3,,,,,,,,,2,,,81,88
50240,note_on,80,0,1,,,,,,,,,0,,,88,0
50240,note_on,0,0,1,,,,,,,,,0,,,93,101
50240,note_on,80,0,3,,,,,,,,,2,,,76,0
50319,note_on,79,0,3,,,,,,,,,2,,,81,0
50319,note_on,79,0,1,,,,,,,,,0,,,93,0
50319,note_on,0,0,3,,,,,,,,,2,,,80,88
50319,note_on,0,0,1,,,,,,,,,0,,,92,101
50400,note_on,81,0,3,,,,,,,,,2,,,80,0
50400,note_on,0,0,1,,,,,,,,,0,,,81,101
50400,note_on,0,0,1,,,,,,,,,0,,,93,101
50400,note_on,81,0,1,,,,,,,,,0,,,92,0
50640,note_on,0,0,1,,,,,,,,,0,,,76,101
50640,note_on,0,0,1,,,,,,,,,0,,,81,0
50640,note_on,0,0,1,,,,,,,,,0,,,81,101
50640,note_on,0,0,1,,,,,,,,,0,,,88,101
50640,note_on,240,0,1,,,,,,,,,0,,,93,0
50640,note_on,0,0,1,,,,,,,,,0,,,84,101
50640,note_on,240,0,3,,,,,,,,,2,,,40,101
50720,note_on,80,0,3,,,,,,,,,2,,,40,0
50720,note_on,0,0,3,,,,,,,,,2,,,52,101
50799,note_on,79,0,3,,,,,,,,,2,,,52,0
50799,note_on,0,0,3,,,,,,,,,2,,,40,101
50880,note_on,81,0,3,,,,,,,,,2,,,40,0
50880,note_on,0,0,1,,,,,,,,,0,,,81,101
50880,note_on,0,0,1,,,,,,,,,0,,,81,0
50880,note_on,0,0,1,,,,,,,,,0,,,76,0
50880,note_on,0,0,1,,,,,,,,,0,,,75,101
50880,note_on,0,0,3,,,,,,,,,2,,,41,101
50880,note_on,0,0,1,,,,,,,,,0,,,87,101
50880,note_on,0,0,1,,,,,,,,,0,,,84,101
50880,note_on,0,0,1,,,,,,,,,0,,,84,0
50880,note_on,240,0,1,,,,,,,,,0,,,88,0
50960,note_on,80,0,3,,,,,,,,,2,,,41,0
50960,note_on,0,0,3,,,,,,,,,2,,,53,101
51039,note_on,0,0,3,,,,,,,,,2,,,41,101
51039,note_on,79,0,3,,,,,,,,,2,,,53,0
51120,note_on,0,0,1,,,,,,,,,0,,,75,0
51120,note_on,0,0,1,,,,,,,,,0,,,81,0
51120,note_on,0,0,1,,,,,,,,,0,,,81,101
51120,note_on,0,0,1,,,,,,,,,0,,,74,101
51120,note_on,0,0,1,,,,,,,,,0,,,84,101
51120,note_on,81,0,3,,,,,,,,,2,,,41,0
51120,note_on,240,0,1,,,,,,,,,0,,,87,0
51120,note_on,0,0,3,,,,,,,,,2,,,42,101
51120,note_on,0,0,1,,,,,,,,,0,,,84,0
51120,note_on,0,0,1,,,,,,,,,0,,,86,101
51200,note_on,80,0,3,,,,,,,,,2,,,42,0
51200,note_on,0,0,3,,,,,,,,,2,,,54,101
51279,note_on,79,0,3,,,,,,,,,2,,,54,0
51279,note_on,0,0,3,,,,,,,,,2,,,42,101
51360,note_on,0,0,1,,,,,,,,,0,,,84,0
51360,note_on,81,0,3,,,,,,,,,2,,,42,0
51360,note_on,240,0,1,,,,,,,,,0,,,86,0
51360,note_on,0,0,3,,,,,,,,,2,,,43,101
51360,note_on,0,0,1,,,,,,,,,0,,,74,0
51360,note_on,0,0,1,,,,,,,,,0,,,74,101
51360,note_on,0,0,1,,,,,,,,,0,,,79,101
51360,note_on,0,0,1,,,,,,,,,0,,,86,101
51360,note_on,0,0,1,,,,,,,,,0,,,84,101
51360,note_on,0,0,1,,,,,,,,,0,,,81,0
51440,note_on,0,0,3,,,,,,,,,2,,,55,101
51440,note_on,80,0,3,,,,,,,,,2,,,43,0
51519,note_on,0,0,3,,,,,,,,,2,,,43,101
51519,note_on,79,0,3,,,,,,,,,2,,,55,0
51600,note_on,0,0,1,,,,,,,,,0,,,74,0
51600,note_on,0,0,1,,,,,,,,,0,,,74,101
51600,note_on,0,0,1,,,,,,,,,0,,,77,101
51600,note_on,0,0,1,,,,,,,,,0,,,79,0
51600,note_on,0,0,1,,,,,,,,,0,,,83,101
51600,note_on,0,0,1,,,,,,,,,0,,,86,101
51600,note_on,240,0,1,,,,,,,,,0,,,86,0
51600,note_on,81,0,3,,,,,,,,,2,,,43,0
51600,note_on,0,0,3,,,,,,,,,2,,,44,101
51600,note_on,0,0,1,,,,,,,,,0,,,84,0
51680,note_on,80,0,3,,,,,,,,,2,,,44,0
51680,note_on,0,0,3,,,,,,,,,2,,,56,101
51759,note_on,79,0,3,,,,,,,,,2,,,56,0
51759,note_on,0,0,3,,,,,,,,,2,,,44,101
51840,note_on,0,0,1,,,,,,,,,0,,,77,0
51840,note_on,240,0,1,,,,,,,,,0,,,86,0
51840,note_on,0,0,1,,,,,,,,,0,,,84,101
51840,note_on,0,0,1,,,,,,,,,0,,,83,0
51840,note_on,81,0,3,,,,,,,,,2,,,44,0
51840,note_on,0,0,3,,,,,,,,,2,,,45,101
51840,note_on,0,0,1,,,,,,,,,0,,,72,101
51840,note_on,0,0,1,,,,,,,,,0,,,74,0
51840,note_on,0,0,1,,,,,,,,,0,,,76,101
51840,note_on,0,0,1,,,,,,,,,0,,,81,101
51920,note_on,80,0,3,,,,,,,,,2,,,45,0
51920,note_on,0,0,3,,,,,,,,,2,,,57,101
51999,note_on,0,0,3,,,,,,,,,2,,,45,101
51999,note_on,79,0,3,,,,,,,,,2,,,57,0
52080,note_on,0,0,1,,,,,,,,,0,,,71,101
52080,note_on,0,0,1,,,,,,,,,0,,,72,0
52080,note_on,0,0,1,,,,,,,,,0,,,83,101
52080,note_on,240,0,1,,,,,,,,,0,,,84,0
52080,note_on,0,0,1,,,,,,,,,0,,,80,101
52080,note_on,0,0,1,,,,,,,,,0,,,76,0
52080,note_on,81,0,3,,,,,,,,,2,,,45,0
52080,note_on,0,0,3,,,,,,,,,2,,,47,101
52080,note_on,0,0,1,,,,,,,,,0,,,74,101
52080,note_on,0,0,1,,,,,,,,,0,,,81,0
52160,note_on,0,0,3,,,,,,,,,2,,,59,101
52160,note_on,80,0,3,,,,,,,,,2,,,47,0
52239,note_on,0,0,3,,,,,,,,,2,,,47,101
52239,note_on,79,0,3,,,,,,,,,2,,,59,0
52320,note_on,0,0,1,,,,,,,,,0,,,71,0
52320,note_on,0,0,1,,,,,,,,,0,,,81,101
52320,note_on,0,0,1,,,,,,,,,0,,,80,0
52320,note_on,0,0,1,,,,,,,,,0,,,72,101
52320,note_on,0,0,1,,,,,,,,,0,,,74,0
52320,note_on,240,0,1,,,,,,,,,0,,,83,0
52320,note_on,0,0,1,,,,,,,,,0,,,76,101
52320,note_on,81,0,3,,,,,,,,,2,,,47,0
52320,note_on,0,0,3,,,,,,,,,2,,,48,101
52320,note_on,0,0,1,,,,,,,,,0,,,69,101
52400,note_on,0,0,3,,,,,,,,,2,,,60,101
52400,note_on,80,0,3,,,,,,,,,2,,,48,0
52479,note_on,0,0,3,,,,,,,,,2,,,48,101
52479,note_on,79,0,3,,,,,,,,,2,,,60,0
52560,note_on,0,0,1,,,,,,,,,0,,,72,0
52560,note_on,0,0,3,,,,,,,,,2,,,49,101
52560,note_on,81,0,3,,,,,,,,,2,,,48,0
52560,note_on,0,0,1,,,,,,,,,0,,,79,101
52560,note_on,0,0,1,,,,,,,,,0,,,76,101
52560,note_on,0,0,1,,,,,,,,,0,,,76,0
52560,note_on,0,0,1,,,,,,,,,0,,,70,101
52560,note_on,240,0,1,,,,,,,,,0,,,81,0
52560,note_on,0,0,1,,,,,,,,,0,,,67,101
52560,note_on,0,0,1,,,,,,,,,0,,,69,0
52640,note_on,0,0,3,,,,,,,,,2,,,61,101
52640,note_on,80,0,3,,,,,,,,,2,,,49,0
52719,note_on,79,0,3,,,,,,,,,2,,,61,0
52719,note_on,0,0,3,,,,,,,,,2,,,49,101
52800,note_on,0,0,1,,,,,,,,,0,,,69,101
52800,note_on,0,0,3,,,,,,,,,2,,,50,101
52800,note_on,0,0,1,,,,,,,,,0,,,65,101
52800,note_on,0,0,1,,,,,,,,,0,,,67,0
52800,note_on,81,0,3,,,,,,,,,2,,,49,0
52800,note_on,0,0,1,,,,,,,,,0,,,77,101
52800,note_on,0,0,1,,,,,,,,,0,,,76,0
52800,note_on,0,0,1,,,,,,,,,0,,,74,101
52800,note_on,240,0,1,,,,,,,,,0,,,79,0
52800,note_on,0,0,1,,,,,,,,,0,,,70,0
52880,note_on,0,0,3,,,,,,,,,2,,,62,101
52880,note_on,80,0,3,,,,,,,,,2,,,50,0
52959,note_on,0,0,3,,,,,,,,,2,,,50,101
52959,note_on,79,0,3,,,,,,,,,2,,,62,0
53040,note_on,81,0,3,,,,,,,,,2,,,50,0
53040,note_on,240,0,1,,,,,,,,,0,,,77,0
53040,note_on,0,0,1,,,,,,,,,0,,,78,101
53040,note_on,0,0,3,,,,,,,,,2,,,51,101
53040,note_on,0,0,1,,,,,,,,,0,,,74,0
53040,note_on,0,0,1,,,,,,,,,0,,,72,101
53040,note_on,0,0,1,,,,,,,,,0,,,69,101
53040,note_on,0,0,1,,,,,,,,,0,,,65,0
53040,note_on,0,0,1,,,,,,,,,0,,,66,101
53040,note_on,0,0,1,,,,,,,,,0,,,69,0
53120,note_on,80,0,3,,,,,,,,,2,,,51,0
53120,note_on,0,0,3,,,,,,,,,2,,,63,101
53199,note_on,79,0,3,,,,,,,,,2,,,63,0
53199,note_on,0,0,3,,,,,,,,,2,,,51,101
53280,note_on,0,0,1,,,,,,,,,0,,,69,0
53280,note_on,0,0,1,,,,,,,,,0,,,66,0
53280,note_on,0,0,1,,,,,,,,,0,,,76,127
53280,note_on,0,0,3,,,,,,,,,2,,,64,101
53280,note_on,0,0,3,,,,,,,,,2,,,52,101
53280,note_on,0,0,1,,,,,,,,,0,,,72,0
53280,note_on,240,0,1,,,,,,,,,0,,,78,0
53280,note_on,81,0,3,,,,,,,,,2,,,51,0
53280,note_on,0,0,1,,,,,,,,,0,,,72,127
53280,note_on,0,0,1,,,,,,,,,0,,,69,127
53760,note_on,480,0,3,,,,,,,,,2,,,64,0
53760,note_on,480,0,1,,,,,,,,,0,,,76,0
53760,note_on,0,0,1,,,,,,,,,0,,,72,0
53760,note_on,0,0,1,,,,,,,,,0,,,69,0
53760,note_on,0,0,3,,,,,,,,,2,,,52,0
54240,note_on,0,0,1,,,,,,,,,0,,,80,101
54240,note_on,0,0,1,,,,,,,,,0,,,76,101
54240,note_on,0,0,1,,,,,,,,,0,,,74,101
54240,note_on,0,0,3,,,,,,,,,2,,,44,101
54240,note_on,0,0,3,,,,,,,,,2,,,52,101
54240,note_on,0,0,3,,,,,,,,,2,,,47,101
54240,note_on,480,0,3,,,,,,,,,2,,,40,101
54240,note_on,480,0,1,,,,,,,,,0,,,71,101
54720,note_on,0,0,3,,,,,,,,,2,,,44,0
54720,note_on,0,0,1,,,,,,,,,0,,,69,101
54720,note_on,0,0,1,,,,,,,,,0,,,74,0
54720,note_on,0,0,1,,,,,,,,,0,,,76,0
54720,note_on,0,0,3,,,,,,,,,2,,,47,0
54720,note_on,0,0,1,,,,,,,,,0,,,76,101
54720,note_on,0,0,1,,,,,,,,,0,,,81,101
54720,note_on,480,0,3,,,,,,,,,2,,,52,0
54720,time_signature,54635,1,0,8,4,24,8,,,,,,,,,
54720,note_on,480,0,1,,,,,,,,,0,,,80,0
54720,note_on,0,0,3,,,,,,,,,2,,,45,101
54720,note_on,0,0,1,,,,,,,,,0,,,72,101
54720,note_on,0,0,3,,,,,,,,,2,,,33,101
54720,note_on,0,0,3,,,,,,,,,2,,,36,101
54720,note_on,0,0,3,,,,,,,,,2,,,40,0
54720,note_on,0,0,3,,,,,,,,,2,,,40,101
54720,end_of_track,0,1,0,,,,,,,,,,,,,
54720,note_on,0,0,1,,,,,,,,,0,,,71,0
56640,end_of_track,0,1,3,,,,,,,,,,,,,
56640,note_on,0,0,3,,,,,,,,,2,,,36,0
56640,note_on,1920,0,3,,,,,,,,,2,,,45,0
56640,note_on,1920,0,1,,,,,,,,,0,,,81,0
56640,note_on,0,0,3,,,,,,,,,2,,,40,0
56640,note_on,0,0,1,,,,,,,,,0,,,72,0
56640,note_on,0,0,1,,,,,,,,,0,,,76,0
56640,note_on,0,0,3,,,,,,,,,2,,,33,0
56640,control_change,0,0,1,,,,,,,,,0,64,127,,
56640,note_on,0,0,1,,,,,,,,,0,,,69,0
58080,end_of_track,0,1,1,,,,,,,,,,,,,
58080,control_change,1440,0,1,,,,,,,,,0,64,0,,
