tick,type,time,meta,track,numerator,denominator,clocks_per_click,notated_32nd_notes_per_beat,key,tempo,port,program,channel,control,value,note,velocity
0,control_change,0,0,1,,,,,,,,,0,7,127,,
0,control_change,0,0,3,,,,,,,,,2,7,127,,
0,control_change,0,0,3,,,,,,,,,2,10,30,,
0,control_change,0,0,4,,,,,,,,,3,7,127,,
0,control_change,0,0,4,,,,,,,,,3,10,30,,
0,key_signature,0,1,0,,,,,F,,,,,,,,
0,midi_port,0,1,1,,,,,,,0,,,,,,
0,midi_port,0,1,2,,,,,,,0,,,,,,
0,midi_port,0,1,3,,,,,,,0,,,,,,
0,midi_port,0,1,4,,,,,,,0,,,,,,
0,track_name,0,1,3,,,,,,,,,,,,,
0,note_on,0,0,3,,,,,,,,,2,,,38,62
0,program_change,0,0,1,,,,,,,,0,0,,,,
0,program_change,0,0,2,,,,,,,,0,1,,,,
0,program_change,0,0,3,,,,,,,,0,2,,,,
0,program_change,0,0,4,,,,,,,,0,3,,,,
0,set_tempo,0,1,0,,,,,,625000,,,,,,,
0,text,0,1,0,,,,,,,,,,,,,
0,time_signature,0,1,0,6,8,12,8,,,,,,,,,
0,track_name,0,1,0,,,,,,,,,,,,,
0,track_name,0,1,1,,,,,,,,,,,,,
0,track_name,0,1,2,,,,,,,,,,,,,
0,control_change,0,0,2,,,,,,,,,1,10,97,,
0,control_change,0,0,2,,,,,,,,,1,7,127,,
0,track_name,0,1,4,,,,,,,,,,,,,
0,control_change,0,0,1,,,,,,,,,0,10,97,,
1,copyright,1,1,5,,,,,,,,,,,,,
1,end_of_track,0,1,5,,,,,,,,,,,,,
103,set_tempo,103,1,0,,,,,,303030,,,,,,,
240,note_on,0,0,1,,,,,,,,,0,,,53,62
240,control_change,240,0,1,,,,,,,,,0,64,127,,
240,note_on,0,0,1,,,,,,,,,0,,,50,62
480,note_on,0,0,1,,,,,,,,,0,,,55,62
480,note_on,240,0,1,,,,,,,,,0,,,53,0
480,note_on,0,0,1,,,,,,,,,0,,,52,62
480,note_on,0,0,1,,,,,,,,,0,,,50,0
720,note_on,0,0,1,,,,,,,,,0,,,53,62
720,note_on,240,0,1,,,,,,,,,0,,,55,0
720,note_on,0,0,1,,,,,,,,,0,,,52,0
720,note_on,0,0,1,,,,,,,,,0,,,57,62
960,note_on,0,0,1,,,,,,,,,0,,,53,0
960,note_on,240,0,1,,,,,,,,,0,,,57,0
960,note_on,0,0,1,,,,,,,,,0,,,62,62
960,note_on,0,0,1,,,,,,,,,0,,,65,62
1200,note_on,0,0,1,,,,,,,,,0,,,67,62
1200,note_on,0,0,1,,,,,,,,,0,,,64,62
1200,note_on,0,0,1,,,,,,,,,0,,,62,0
1200,note_on,240,0,1,,,,,,,,,0,,,65,0
1440,note_on,1440,0,3,,,,,,,,,2,,,38,0
1440,note_on,240,0,1,,,,,,,,,0,,,67,0
1440,note_on,0,0,1,,,,,,,,,0,,,69,62
1440,note_on,0,0,1,,,,,,,,,0,,,65,62
1440,note_on,0,0,1,,,,,,,,,0,,,64,0
1680,note_on,0,0,1,,,,,,,,,0,,,77,62
1680,note_on,240,0,1,,,,,,,,,0,,,69,0
1680,note_on,0,0,1,,,,,,,,,0,,,65,0
1680,note_on,0,0,1,,,,,,,,,0,,,74,62
1920,note_on,0,0,1,,,,,,,,,0,,,74,0
1920,note_on,0,0,1,,,,,,,,,0,,,76,62
1920,note_on,240,0,1,,,,,,,,,0,,,77,0
1920,note_on,0,0,1,,,,,,,,,0,,,79,62
2160,note_on,0,0,1,,,,,,,,,0,,,76,0
2160,control_change,0,0,1,,,,,,,,,0,64,0,,
2160,note_on,0,0,1,,,,,,,,,0,,,77,62
2160,note_on,0,0,1,,,,,,,,,0,,,81,62
2160,note_on,240,0,1,,,,,,,,,0,,,79,0
2400,note_on,960,0,3,,,,,,,,,2,,,41,62
2400,note_on,0,0,3,,,,,,,,,2,,,45,62
2400,note_on,0,0,1,,,,,,,,,0,,,77,0
2400,note_on,240,0,1,,,,,,,,,0,,,81,0
2640,note_on,0,0,3,,,,,,,,,2,,,38,62
2640,note_on,0,0,3,,,,,,,,,2,,,41,0
2640,note_on,240,0,3,,,,,,,,,2,,,45,0
2880,note_on,0,0,3,,,,,,,,,2,,,33,62
2880,note_on,240,0,3,,,,,,,,,2,,,38,0
3120,note_on,0,0,1,,,,,,,,,0,,,52,62
3120,note_on,0,0,1,,,,,,,,,0,,,49,62
3120,control_change,720,0,1,,,,,,,,,0,64,127,,
3360,note_on,0,0,1,,,,,,,,,0,,,53,62
3360,note_on,0,0,1,,,,,,,,,0,,,50,62
3360,note_on,0,0,1,,,,,,,,,0,,,49,0
3360,note_on,240,0,1,,,,,,,,,0,,,52,0
3600,note_on,0,0,1,,,,,,,,,0,,,52,62
3600,note_on,0,0,1,,,,,,,,,0,,,50,0
3600,note_on,0,0,1,,,,,,,,,0,,,55,62
3600,note_on,240,0,1,,,,,,,,,0,,,53,0
3840,note_on,240,0,1,,,,,,,,,0,,,55,0
3840,note_on,0,0,1,,,,,,,,,0,,,64,62
3840,note_on,0,0,1,,,,,,,,,0,,,61,62
3840,note_on,0,0,1,,,,,,,,,0,,,52,0
4080,note_on,240,0,1,,,,,,,,,0,,,64,0
4080,note_on,0,0,1,,,,,,,,,0,,,65,62
4080,note_on,0,0,1,,,,,,,,,0,,,62,62
4080,note_on,0,0,1,,,,,,,,,0,,,61,0
4320,note_on,0,0,1,,,,,,,,,0,,,67,62
4320,note_on,0,0,1,,,,,,,,,0,,,64,62
4320,note_on,1440,0,3,,,,,,,,,2,,,33,0
4320,note_on,0,0,1,,,,,,,,,0,,,62,0
4320,note_on,240,0,1,,,,,,,,,0,,,65,0
4560,note_on,240,0,1,,,,,,,,,0,,,67,0
4560,note_on,0,0,1,,,,,,,,,0,,,76,62
4560,note_on,0,0,1,,,,,,,,,0,,,73,62
4560,note_on,0,0,1,,,,,,,,,0,,,64,0
4800,note_on,0,0,1,,,,,,,,,0,,,74,62
4800,note_on,240,0,1,,,,,,,,,0,,,76,0
4800,note_on,0,0,1,,,,,,,,,0,,,77,62
4800,note_on,0,0,1,,,,,,,,,0,,,73,0
5040,note_on,0,0,1,,,,,,,,,0,,,79,62
5040,note_on,0,0,1,,,,,,,,,0,,,76,62
5040,note_on,0,0,1,,,,,,,,,0,,,74,0
5040,control_change,0,0,1,,,,,,,,,0,64,0,,
5040,note_on,240,0,1,,,,,,,,,0,,,77,0
5280,note_on,960,0,3,,,,,,,,,2,,,33,62
5280,note_on,0,0,1,,,,,,,,,0,,,76,0
5280,note_on,240,0,1,,,,,,,,,0,,,79,0
5520,note_on,240,0,3,,,,,,,,,2,,,33,0
5520,note_on,0,0,3,,,,,,,,,2,,,45,62
5760,note_on,240,0,3,,,,,,,,,2,,,45,0
5760,note_on,0,0,3,,,,,,,,,2,,,33,62
6000,note_on,0,0,1,,,,,,,,,0,,,49,62
6000,note_on,0,0,1,,,,,,,,,0,,,52,62
6000,control_change,720,0,1,,,,,,,,,0,64,127,,
6240,note_on,0,0,1,,,,,,,,,0,,,49,0
6240,note_on,0,0,1,,,,,,,,,0,,,50,62
6240,note_on,0,0,1,,,,,,,,,0,,,53,62
6240,note_on,240,0,1,,,,,,,,,0,,,52,0
6480,note_on,240,0,1,,,,,,,,,0,,,53,0
6480,note_on,0,0,1,,,,,,,,,0,,,50,0
6480,note_on,0,0,1,,,,,,,,,0,,,52,62
6480,note_on,0,0,1,,,,,,,,,0,,,55,62
6720,note_on,0,0,1,,,,,,,,,0,,,52,0
6720,note_on,0,0,1,,,,,,,,,0,,,61,62
6720,note_on,0,0,1,,,,,,,,,0,,,64,62
6720,note_on,240,0,1,,,,,,,,,0,,,55,0
6960,note_on,240,0,1,,,,,,,,,0,,,64,0
6960,note_on,0,0,1,,,,,,,,,0,,,65,62
6960,note_on,0,0,1,,,,,,,,,0,,,61,0
6960,note_on,0,0,1,,,,,,,,,0,,,62,62
7200,note_on,0,0,1,,,,,,,,,0,,,62,0
7200,note_on,1440,0,3,,,,,,,,,2,,,33,0
7200,note_on,240,0,1,,,,,,,,,0,,,65,0
7200,note_on,0,0,1,,,,,,,,,0,,,67,62
7200,note_on,0,0,1,,,,,,,,,0,,,64,62
7440,note_on,0,0,1,,,,,,,,,0,,,76,62
7440,note_on,0,0,1,,,,,,,,,0,,,73,62
7440,note_on,240,0,1,,,,,,,,,0,,,67,0
7440,note_on,0,0,1,,,,,,,,,0,,,64,0
7680,note_on,0,0,1,,,,,,,,,0,,,73,0
7680,note_on,240,0,1,,,,,,,,,0,,,76,0
7680,note_on,0,0,1,,,,,,,,,0,,,74,62
7680,note_on,0,0,1,,,,,,,,,0,,,77,62
7920,control_change,0,0,1,,,,,,,,,0,64,0,,
7920,note_on,0,0,1,,,,,,,,,0,,,74,0
7920,note_on,0,0,1,,,,,,,,,0,,,76,62
7920,note_on,0,0,1,,,,,,,,,0,,,79,62
7920,note_on,240,0,1,,,,,,,,,0,,,77,0
8160,note_on,240,0,1,,,,,,,,,0,,,79,0
8160,note_on,960,0,3,,,,,,,,,2,,,33,62
8160,note_on,0,0,1,,,,,,,,,0,,,76,0
8400,note_on,240,0,3,,,,,,,,,2,,,33,0
8400,note_on,0,0,3,,,,,,,,,2,,,45,62
8640,note_on,0,0,3,,,,,,,,,2,,,38,62
8640,note_on,240,0,3,,,,,,,,,2,,,45,0
8880,control_change,720,0,1,,,,,,,,,0,64,127,,
8880,note_on,0,0,1,,,,,,,,,0,,,50,62
8880,note_on,0,0,1,,,,,,,,,0,,,53,62
9120,note_on,240,0,1,,,,,,,,,0,,,53,0
9120,note_on,0,0,1,,,,,,,,,0,,,50,0
9120,note_on,0,0,1,,,,,,,,,0,,,52,62
9120,note_on,0,0,1,,,,,,,,,0,,,55,62
9360,note_on,0,0,1,,,,,,,,,0,,,52,0
9360,note_on,240,0,1,,,,,,,,,0,,,55,0
9360,note_on,0,0,1,,,,,,,,,0,,,57,62
9360,note_on,0,0,1,,,,,,,,,0,,,53,62
9600,note_on,0,0,1,,,,,,,,,0,,,62,62
9600,note_on,0,0,1,,,,,,,,,0,,,53,0
9600,note_on,0,0,1,,,,,,,,,0,,,65,62
9600,note_on,240,0,1,,,,,,,,,0,,,57,0
9840,note_on,240,0,1,,,,,,,,,0,,,65,0
9840,note_on,0,0,1,,,,,,,,,0,,,67,62
9840,note_on,0,0,1,,,,,,,,,0,,,64,62
9840,note_on,0,0,1,,,,,,,,,0,,,62,0
10080,note_on,0,0,1,,,,,,,,,0,,,65,62
10080,note_on,1440,0,3,,,,,,,,,2,,,38,0
10080,note_on,0,0,1,,,,,,,,,0,,,69,62
10080,note_on,0,0,1,,,,,,,,,0,,,64,0
10080,note_on,240,0,1,,,,,,,,,0,,,67,0
10320,note_on,240,0,1,,,,,,,,,0,,,69,0
10320,note_on,0,0,1,,,,,,,,,0,,,65,0
10320,note_on,0,0,1,,,,,,,,,0,,,74,62
10320,note_on,0,0,1,,,,,,,,,0,,,77,62
10560,note_on,240,0,1,,,,,,,,,0,,,77,0
10560,note_on,0,0,1,,,,,,,,,0,,,74,0
10560,note_on,0,0,1,,,,,,,,,0,,,76,62
10560,note_on,0,0,1,,,,,,,,,0,,,79,62
10800,note_on,0,0,1,,,,,,,,,0,,,76,0
10800,note_on,0,0,1,,,,,,,,,0,,,81,62
10800,note_on,240,0,1,,,,,,,,,0,,,79,0
10800,control_change,0,0,1,,,,,,,,,0,64,0,,
10800,note_on,0,0,1,,,,,,,,,0,,,77,62
11040,note_on,0,0,3,,,,,,,,,2,,,50,62
11040,note_on,240,0,1,,,,,,,,,0,,,81,0
11040,note_on,960,0,3,,,,,,,,,2,,,45,62
11040,note_on,0,0,1,,,,,,,,,0,,,77,0
11280,note_on,0,0,3,,,,,,,,,2,,,41,62
11280,note_on,0,0,3,,,,,,,,,2,,,45,0
11280,note_on,240,0,3,,,,,,,,,2,,,50,0
11520,note_on,0,0,3,,,,,,,,,2,,,38,62
11520,note_on,240,0,3,,,,,,,,,2,,,41,0
11760,control_change,720,0,1,,,,,,,,,0,64,127,,
11760,note_on,0,0,1,,,,,,,,,0,,,50,62
11760,note_on,0,0,1,,,,,,,,,0,,,53,62
12000,note_on,0,0,1,,,,,,,,,0,,,55,62
12000,note_on,240,0,1,,,,,,,,,0,,,53,0
12000,note_on,0,0,1,,,,,,,,,0,,,52,62
12000,note_on,0,0,1,,,,,,,,,0,,,50,0
12240,note_on,240,0,1,,,,,,,,,0,,,55,0
12240,note_on,0,0,1,,,,,,,,,0,,,57,62
12240,note_on,0,0,1,,,,,,,,,0,,,53,62
12240,note_on,0,0,1,,,,,,,,,0,,,52,0
12480,note_on,240,0,1,,,,,,,,,0,,,57,0
12480,note_on,0,0,1,,,,,,,,,0,,,53,0
12480,note_on,0,0,1,,,,,,,,,0,,,62,62
12480,note_on,0,0,1,,,,,,,,,0,,,65,62
12720,note_on,240,0,1,,,,,,,,,0,,,65,0
12720,note_on,0,0,1,,,,,,,,,0,,,62,0
12720,note_on,0,0,1,,,,,,,,,0,,,67,62
12720,note_on,0,0,1,,,,,,,,,0,,,64,62
12960,note_on,0,0,1,,,,,,,,,0,,,64,0
12960,note_on,240,0,1,,,,,,,,,0,,,67,0
12960,note_on,0,0,1,,,,,,,,,0,,,65,62
12960,note_on,0,0,1,,,,,,,,,0,,,69,62
12960,note_on,1440,0,3,,,,,,,,,2,,,38,0
13200,note_on,0,0,1,,,,,,,,,0,,,65,0
13200,note_on,0,0,1,,,,,,,,,0,,,74,62
13200,note_on,0,0,1,,,,,,,,,0,,,77,62
13200,note_on,240,0,1,,,,,,,,,0,,,69,0
13440,note_on,0,0,1,,,,,,,,,0,,,74,0
13440,note_on,240,0,1,,,,,,,,,0,,,77,0
13440,note_on,0,0,1,,,,,,,,,0,,,76,62
13440,note_on,0,0,1,,,,,,,,,0,,,79,62
13680,note_on,0,0,1,,,,,,,,,0,,,76,0
13680,note_on,0,0,1,,,,,,,,,0,,,77,62
13680,note_on,0,0,1,,,,,,,,,0,,,81,62
13680,note_on,240,0,1,,,,,,,,,0,,,79,0
13680,control_change,0,0,1,,,,,,,,,0,64,0,,
13920,note_on,0,0,1,,,,,,,,,0,,,77,0
13920,note_on,240,0,1,,,,,,,,,0,,,81,0
13920,note_on,960,0,3,,,,,,,,,2,,,38,62
14160,note_on,240,0,3,,,,,,,,,2,,,38,0
14160,note_on,0,0,3,,,,,,,,,2,,,50,62
14400,note_on,0,0,3,,,,,,,,,2,,,40,62
14400,note_on,240,0,3,,,,,,,,,2,,,50,0
14640,note_on,0,0,1,,,,,,,,,0,,,57,62
14640,note_on,0,0,1,,,,,,,,,0,,,60,62
14640,control_change,720,0,1,,,,,,,,,0,64,127,,
14880,note_on,0,0,1,,,,,,,,,0,,,57,0
14880,note_on,0,0,1,,,,,,,,,0,,,59,62
14880,note_on,0,0,1,,,,,,,,,0,,,62,62
14880,note_on,240,0,1,,,,,,,,,0,,,60,0
15120,note_on,0,0,1,,,,,,,,,0,,,59,0
15120,note_on,0,0,1,,,,,,,,,0,,,64,62
15120,note_on,0,0,1,,,,,,,,,0,,,60,62
15120,note_on,240,0,1,,,,,,,,,0,,,62,0
15360,note_on,0,0,1,,,,,,,,,0,,,69,62
15360,note_on,0,0,1,,,,,,,,,0,,,72,62
15360,note_on,0,0,1,,,,,,,,,0,,,60,0
15360,note_on,240,0,1,,,,,,,,,0,,,64,0
15600,note_on,240,0,1,,,,,,,,,0,,,72,0
15600,note_on,0,0,1,,,,,,,,,0,,,76,62
15600,control_change,0,0,1,,,,,,,,,0,64,0,,
15600,note_on,0,0,1,,,,,,,,,0,,,69,0
15840,note_on,0,0,3,,,,,,,,,2,,,40,62
15840,note_on,1440,0,3,,,,,,,,,2,,,40,0
15840,note_on,240,0,1,,,,,,,,,0,,,76,0
16080,control_change,240,0,1,,,,,,,,,0,64,127,,
16080,note_on,0,0,1,,,,,,,,,0,,,59,62
16080,note_on,0,0,1,,,,,,,,,0,,,56,62
16320,note_on,240,0,1,,,,,,,,,0,,,59,0
16320,note_on,0,0,1,,,,,,,,,0,,,63,62
16320,note_on,0,0,1,,,,,,,,,0,,,56,0
16560,note_on,240,0,1,,,,,,,,,0,,,63,0
16560,note_on,0,0,1,,,,,,,,,0,,,64,62
16800,note_on,0,0,1,,,,,,,,,0,,,68,62
16800,note_on,0,0,1,,,,,,,,,0,,,71,62
16800,note_on,240,0,1,,,,,,,,,0,,,64,0
17040,control_change,0,0,1,,,,,,,,,0,64,0,,
17040,note_on,240,0,1,,,,,,,,,0,,,71,0
17040,note_on,0,0,1,,,,,,,,,0,,,68,0
17040,note_on,0,0,1,,,,,,,,,0,,,76,62
17280,note_on,240,0,1,,,,,,,,,0,,,76,0
17280,note_on,1440,0,3,,,,,,,,,2,,,40,0
17280,note_on,0,0,3,,,,,,,,,2,,,45,62
17520,control_change,240,0,1,,,,,,,,,0,64,127,,
17520,note_on,0,0,1,,,,,,,,,0,,,57,62
17520,note_on,0,0,1,,,,,,,,,0,,,60,62
17760,note_on,0,0,1,,,,,,,,,0,,,62,62
17760,note_on,0,0,1,,,,,,,,,0,,,59,62
17760,note_on,240,0,1,,,,,,,,,0,,,60,0
17760,note_on,0,0,1,,,,,,,,,0,,,57,0
18000,note_on,240,0,1,,,,,,,,,0,,,62,0
18000,note_on,0,0,1,,,,,,,,,0,,,64,62
18000,note_on,0,0,1,,,,,,,,,0,,,59,0
18000,note_on,0,0,1,,,,,,,,,0,,,60,62
18240,note_on,0,0,1,,,,,,,,,0,,,69,62
18240,note_on,0,0,1,,,,,,,,,0,,,60,0
18240,note_on,240,0,1,,,,,,,,,0,,,64,0
18240,note_on,0,0,1,,,,,,,,,0,,,72,62
18480,note_on,0,0,1,,,,,,,,,0,,,71,62
18480,note_on,0,0,1,,,,,,,,,0,,,69,0
18480,note_on,0,0,1,,,,,,,,,0,,,74,62
18480,note_on,240,0,1,,,,,,,,,0,,,72,0
18720,note_on,0,0,1,,,,,,,,,0,,,71,0
18720,note_on,0,0,1,,,,,,,,,0,,,72,62
18720,note_on,0,0,1,,,,,,,,,0,,,76,62
18720,note_on,240,0,1,,,,,,,,,0,,,74,0
18720,note_on,1440,0,3,,,,,,,,,2,,,45,0
18960,note_on,240,0,1,,,,,,,,,0,,,76,0
18960,note_on,0,0,1,,,,,,,,,0,,,72,0
18960,note_on,0,0,1,,,,,,,,,0,,,81,62
18960,note_on,0,0,1,,,,,,,,,0,,,84,62
19200,note_on,240,0,1,,,,,,,,,0,,,84,0
19200,note_on,0,0,1,,,,,,,,,0,,,83,62
19200,note_on,0,0,1,,,,,,,,,0,,,86,62
19200,note_on,0,0,1,,,,,,,,,0,,,81,0
19440,note_on,240,0,1,,,,,,,,,0,,,86,0
19440,note_on,0,0,1,,,,,,,,,0,,,88,62
19440,control_change,0,0,1,,,,,,,,,0,64,0,,
19440,note_on,0,0,1,,,,,,,,,0,,,83,0
19440,note_on,0,0,1,,,,,,,,,0,,,84,62
19680,note_on,0,0,1,,,,,,,,,0,,,84,0
19680,note_on,960,0,3,,,,,,,,,2,,,33,62
19680,note_on,240,0,1,,,,,,,,,0,,,88,0
19920,note_on,0,0,3,,,,,,,,,2,,,45,62
19920,note_on,240,0,3,,,,,,,,,2,,,33,0
20160,note_on,0,0,3,,,,,,,,,2,,,33,62
20160,note_on,240,0,3,,,,,,,,,2,,,45,0
20400,control_change,720,0,1,,,,,,,,,0,64,127,,
20400,note_on,0,0,1,,,,,,,,,0,,,61,62
20400,note_on,0,0,1,,,,,,,,,0,,,57,62
20640,note_on,240,0,1,,,,,,,,,0,,,61,0
20640,note_on,0,0,1,,,,,,,,,0,,,57,0
20640,note_on,0,0,1,,,,,,,,,0,,,59,62
20640,note_on,0,0,1,,,,,,,,,0,,,62,62
20880,note_on,240,0,1,,,,,,,,,0,,,62,0
20880,note_on,0,0,1,,,,,,,,,0,,,59,0
20880,note_on,0,0,1,,,,,,,,,0,,,61,62
20880,note_on,0,0,1,,,,,,,,,0,,,64,62
21120,note_on,240,0,1,,,,,,,,,0,,,64,0
21120,note_on,0,0,1,,,,,,,,,0,,,61,0
21120,note_on,0,0,1,,,,,,,,,0,,,69,62
21120,note_on,0,0,1,,,,,,,,,0,,,73,62
21360,note_on,240,0,1,,,,,,,,,0,,,73,0
21360,note_on,0,0,1,,,,,,,,,0,,,69,0
21360,note_on,0,0,1,,,,,,,,,0,,,71,62
21360,note_on,0,0,1,,,,,,,,,0,,,74,62
21600,note_on,0,0,1,,,,,,,,,0,,,76,62
21600,note_on,1440,0,3,,,,,,,,,2,,,33,0
21600,note_on,240,0,1,,,,,,,,,0,,,74,0
21600,note_on,0,0,1,,,,,,,,,0,,,73,62
21600,note_on,0,0,1,,,,,,,,,0,,,71,0
21840,note_on,0,0,1,,,,,,,,,0,,,81,62
21840,note_on,0,0,1,,,,,,,,,0,,,85,62
21840,note_on,240,0,1,,,,,,,,,0,,,76,0
21840,note_on,0,0,1,,,,,,,,,0,,,73,0
22080,note_on,0,0,1,,,,,,,,,0,,,81,0
22080,note_on,0,0,1,,,,,,,,,0,,,83,62
22080,note_on,240,0,1,,,,,,,,,0,,,85,0
22080,note_on,0,0,1,,,,,,,,,0,,,86,62
22320,note_on,240,0,1,,,,,,,,,0,,,86,0
22320,note_on,0,0,1,,,,,,,,,0,,,83,0
22320,note_on,0,0,1,,,,,,,,,0,,,85,62
22320,note_on,0,0,1,,,,,,,,,0,,,88,62
22320,control_change,0,0,1,,,,,,,,,0,64,0,,
22560,note_on,240,0,1,,,,,,,,,0,,,88,0
22560,note_on,960,0,3,,,,,,,,,2,,,33,62
22560,note_on,0,0,1,,,,,,,,,0,,,85,0
22800,note_on,0,0,3,,,,,,,,,2,,,45,62
22800,note_on,240,0,3,,,,,,,,,2,,,33,0
23040,note_on,0,0,3,,,,,,,,,2,,,33,62
23040,note_on,240,0,3,,,,,,,,,2,,,45,0
23280,note_on,0,0,1,,,,,,,,,0,,,57,62
23280,control_change,720,0,1,,,,,,,,,0,64,127,,
23280,note_on,0,0,1,,,,,,,,,0,,,62,62
23520,note_on,0,0,1,,,,,,,,,0,,,57,0
23520,note_on,240,0,1,,,,,,,,,0,,,62,0
23520,note_on,0,0,1,,,,,,,,,0,,,61,62
23520,note_on,0,0,1,,,,,,,,,0,,,64,62
23760,note_on,0,0,1,,,,,,,,,0,,,62,62
23760,note_on,0,0,1,,,,,,,,,0,,,65,62
23760,note_on,0,0,1,,,,,,,,,0,,,61,0
23760,note_on,240,0,1,,,,,,,,,0,,,64,0
24000,note_on,0,0,1,,,,,,,,,0,,,74,62
24000,note_on,0,0,1,,,,,,,,,0,,,69,62
24000,note_on,0,0,1,,,,,,,,,0,,,62,0
24000,note_on,240,0,1,,,,,,,,,0,,,65,0
24240,note_on,0,0,1,,,,,,,,,0,,,73,62
24240,note_on,0,0,1,,,,,,,,,0,,,76,62
24240,note_on,240,0,1,,,,,,,,,0,,,74,0
24240,note_on,0,0,1,,,,,,,,,0,,,69,0
24480,note_on,0,0,1,,,,,,,,,0,,,73,0
24480,note_on,0,0,1,,,,,,,,,0,,,77,62
24480,note_on,1440,0,3,,,,,,,,,2,,,33,0
24480,note_on,240,0,1,,,,,,,,,0,,,76,0
24480,note_on,0,0,1,,,,,,,,,0,,,74,62
24720,note_on,0,0,1,,,,,,,,,0,,,86,62
24720,note_on,0,0,1,,,,,,,,,0,,,74,0
24720,note_on,240,0,1,,,,,,,,,0,,,77,0
24720,note_on,0,0,1,,,,,,,,,0,,,81,62
24960,note_on,0,0,1,,,,,,,,,0,,,81,0
24960,note_on,0,0,1,,,,,,,,,0,,,85,62
24960,note_on,0,0,1,,,,,,,,,0,,,88,62
24960,note_on,240,0,1,,,,,,,,,0,,,86,0
25200,control_change,0,0,1,,,,,,,,,0,64,0,,
25200,note_on,240,0,1,,,,,,,,,0,,,88,0
25200,note_on,0,0,1,,,,,,,,,0,,,85,0
25200,note_on,0,0,1,,,,,,,,,0,,,86,62
25200,note_on,0,0,1,,,,,,,,,0,,,89,62
25440,note_on,0,0,1,,,,,,,,,0,,,86,0
25440,note_on,960,0,3,,,,,,,,,2,,,33,62
25440,note_on,240,0,1,,,,,,,,,0,,,89,0
25680,note_on,240,0,3,,,,,,,,,2,,,33,0
25680,note_on,0,0,3,,,,,,,,,2,,,45,62
25920,note_on,240,0,3,,,,,,,,,2,,,45,0
25920,note_on,0,0,3,,,,,,,,,2,,,33,62
26160,note_on,0,0,1,,,,,,,,,0,,,62,62
26160,control_change,720,0,1,,,,,,,,,0,64,127,,
26160,note_on,0,0,1,,,,,,,,,0,,,59,62
26400,note_on,0,0,1,,,,,,,,,0,,,65,62
26400,note_on,240,0,1,,,,,,,,,0,,,62,0
26400,note_on,0,0,1,,,,,,,,,0,,,59,0
26640,note_on,0,0,1,,,,,,,,,0,,,68,62
26640,note_on,240,0,1,,,,,,,,,0,,,65,0
26880,note_on,240,0,1,,,,,,,,,0,,,68,0
26880,note_on,0,0,1,,,,,,,,,0,,,71,62
26880,note_on,0,0,1,,,,,,,,,0,,,74,62
27120,note_on,240,0,1,,,,,,,,,0,,,74,0
27120,note_on,0,0,1,,,,,,,,,0,,,71,0
27120,note_on,0,0,1,,,,,,,,,0,,,77,62
27360,note_on,0,0,1,,,,,,,,,0,,,80,62
27360,note_on,240,0,1,,,,,,,,,0,,,77,0
27360,note_on,1440,0,3,,,,,,,,,2,,,33,0
27600,note_on,0,0,1,,,,,,,,,0,,,86,62
27600,note_on,0,0,1,,,,,,,,,0,,,83,62
27600,note_on,240,0,1,,,,,,,,,0,,,80,0
27840,note_on,0,0,1,,,,,,,,,0,,,89,62
27840,note_on,0,0,1,,,,,,,,,0,,,83,0
27840,note_on,240,0,1,,,,,,,,,0,,,86,0
28080,note_on,240,0,1,,,,,,,,,0,,,89,0
28080,note_on,0,0,1,,,,,,,,,0,,,92,62
28080,control_change,0,0,1,,,,,,,,,0,64,0,,
28320,note_on,960,0,3,,,,,,,,,2,,,45,62
28320,note_on,240,0,1,,,,,,,,,0,,,92,0
28560,note_on,240,0,3,,,,,,,,,2,,,45,0
28560,note_on,0,0,3,,,,,,,,,2,,,33,62
28800,note_on,240,0,3,,,,,,,,,2,,,33,0
28800,note_on,0,0,3,,,,,,,,,2,,,45,62
29040,note_on,0,0,1,,,,,,,,,0,,,62,75
29040,control_change,720,0,1,,,,,,,,,0,64,127,,
29040,note_on,0,0,1,,,,,,,,,0,,,65,75
29280,note_on,240,0,1,,,,,,,,,0,,,65,0
29280,note_on,0,0,1,,,,,,,,,0,,,68,75
29280,note_on,0,0,1,,,,,,,,,0,,,62,0
29520,note_on,0,0,1,,,,,,,,,0,,,71,75
29520,note_on,240,0,1,,,,,,,,,0,,,68,0
29760,note_on,0,0,1,,,,,,,,,0,,,74,75
29760,note_on,0,0,1,,,,,,,,,0,,,77,75
29760,note_on,240,0,1,,,,,,,,,0,,,71,0
30000,note_on,0,0,1,,,,,,,,,0,,,74,0
30000,note_on,240,0,1,,,,,,,,,0,,,77,0
30000,note_on,0,0,1,,,,,,,,,0,,,80,75
30240,note_on,1440,0,3,,,,,,,,,2,,,45,0
30240,note_on,240,0,1,,,,,,,,,0,,,80,0
30240,note_on,0,0,1,,,,,,,,,0,,,83,75
30480,note_on,0,0,1,,,,,,,,,0,,,86,75
30480,note_on,0,0,1,,,,,,,,,0,,,89,75
30480,note_on,240,0,1,,,,,,,,,0,,,83,0
30720,note_on,240,0,1,,,,,,,,,0,,,89,0
30720,note_on,0,0,1,,,,,,,,,0,,,92,75
30720,note_on,0,0,1,,,,,,,,,0,,,86,0
30960,note_on,240,0,1,,,,,,,,,0,,,92,0
30960,note_on,0,0,1,,,,,,,,,0,,,95,75
30960,control_change,0,0,1,,,,,,,,,0,64,0,,
31200,note_on,240,0,1,,,,,,,,,0,,,95,0
31200,note_on,960,0,3,,,,,,,,,2,,,45,62
31440,note_on,0,0,3,,,,,,,,,2,,,33,62
31440,note_on,240,0,3,,,,,,,,,2,,,45,0
31680,note_on,240,0,3,,,,,,,,,2,,,33,0
31680,note_on,0,0,3,,,,,,,,,2,,,45,75
31920,note_on,0,0,1,,,,,,,,,0,,,68,88
31920,note_on,0,0,1,,,,,,,,,0,,,65,88
31920,control_change,720,0,1,,,,,,,,,0,64,127,,
32160,note_on,0,0,1,,,,,,,,,0,,,65,0
32160,note_on,0,0,1,,,,,,,,,0,,,71,88
32160,note_on,240,0,1,,,,,,,,,0,,,68,0
32400,note_on,0,0,1,,,,,,,,,0,,,74,88
32400,note_on,240,0,1,,,,,,,,,0,,,71,0
32640,note_on,0,0,1,,,,,,,,,0,,,77,88
32640,note_on,0,0,1,,,,,,,,,0,,,80,88
32640,note_on,240,0,1,,,,,,,,,0,,,74,0
32880,note_on,0,0,1,,,,,,,,,0,,,83,88
32880,note_on,0,0,1,,,,,,,,,0,,,77,0
32880,note_on,240,0,1,,,,,,,,,0,,,80,0
33120,note_on,0,0,1,,,,,,,,,0,,,86,88
33120,note_on,1440,0,3,,,,,,,,,2,,,45,0
33120,note_on,240,0,1,,,,,,,,,0,,,83,0
33360,note_on,0,0,1,,,,,,,,,0,,,92,88
33360,note_on,0,0,1,,,,,,,,,0,,,89,88
33360,note_on,240,0,1,,,,,,,,,0,,,86,0
33600,note_on,0,0,1,,,,,,,,,0,,,95,88
33600,note_on,0,0,1,,,,,,,,,0,,,89,0
33600,note_on,240,0,1,,,,,,,,,0,,,92,0
33840,note_on,0,0,1,,,,,,,,,0,,,98,88
33840,control_change,0,0,1,,,,,,,,,0,64,0,,
33840,note_on,240,0,1,,,,,,,,,0,,,95,0
34080,note_on,240,0,1,,,,,,,,,0,,,98,0
34080,note_on,960,0,3,,,,,,,,,2,,,45,75
34320,note_on,240,0,3,,,,,,,,,2,,,45,0
34320,note_on,0,0,3,,,,,,,,,2,,,33,75
34560,note_on,0,0,3,,,,,,,,,2,,,45,75
34560,note_on,240,0,3,,,,,,,,,2,,,33,0
35040,note_on,480,0,3,,,,,,,,,2,,,45,0
35280,note_on,1200,0,1,,,,,,,,,0,,,85,114
35280,note_on,0,0,1,,,,,,,,,0,,,97,114
35520,note_on,240,0,1,,,,,,,,,0,,,97,0
35520,note_on,0,0,1,,,,,,,,,0,,,93,88
35520,note_on,0,0,1,,,,,,,,,0,,,85,0
35760,note_on,240,0,1,,,,,,,,,0,,,93,0
35760,note_on,0,0,1,,,,,,,,,0,,,88,88
36000,note_on,240,0,1,,,,,,,,,0,,,88,0
36000,note_on,0,0,1,,,,,,,,,0,,,93,114
36000,note_on,0,0,1,,,,,,,,,0,,,81,114
36240,note_on,240,0,1,,,,,,,,,0,,,93,0
36240,note_on,0,0,1,,,,,,,,,0,,,88,88
36240,note_on,0,0,1,,,,,,,,,0,,,81,0
36480,note_on,240,0,1,,,,,,,,,0,,,88,0
36480,note_on,0,0,1,,,,,,,,,0,,,85,88
36720,note_on,0,0,1,,,,,,,,,0,,,76,114
36720,note_on,0,0,1,,,,,,,,,0,,,88,114
36720,note_on,240,0,1,,,,,,,,,0,,,85,0
36960,note_on,0,0,1,,,,,,,,,0,,,85,88
36960,note_on,240,0,1,,,,,,,,,0,,,88,0
36960,note_on,0,0,1,,,,,,,,,0,,,76,0
37200,note_on,0,0,1,,,,,,,,,0,,,81,88
37200,note_on,240,0,1,,,,,,,,,0,,,85,0
37440,note_on,0,0,1,,,,,,,,,0,,,73,114
37440,note_on,240,0,1,,,,,,,,,0,,,81,0
37440,note_on,0,0,1,,,,,,,,,0,,,85,114
37680,note_on,240,0,1,,,,,,,,,0,,,85,0
37680,note_on,0,0,1,,,,,,,,,0,,,81,88
37680,note_on,0,0,1,,,,,,,,,0,,,73,0
37920,note_on,240,0,1,,,,,,,,,0,,,81,0
37920,note_on,0,0,1,,,,,,,,,0,,,76,88
38160,note_on,0,0,1,,,,,,,,,0,,,79,62
38160,note_on,0,0,1,,,,,,,,,0,,,67,62
38160,note_on,240,0,1,,,,,,,,,0,,,76,0
38160,note_on,0,0,3,,,,,,,,,2,,,61,75
38160,note_on,3120,0,3,,,,,,,,,2,,,58,75
38160,note_on,0,0,3,,,,,,,,,2,,,64,75
38400,note_on,0,0,1,,,,,,,,,0,,,76,62
38400,note_on,0,0,1,,,,,,,,,0,,,67,0
38400,note_on,240,0,1,,,,,,,,,0,,,79,0
38640,note_on,0,0,1,,,,,,,,,0,,,73,62
38640,note_on,240,0,1,,,,,,,,,0,,,76,0
38880,note_on,38880,0,4,,,,,,,,,3,,,57,64
38880,note_on,240,0,1,,,,,,,,,0,,,73,0
38880,note_on,0,0,1,,,,,,,,,0,,,81,62
38880,note_on,0,0,1,,,,,,,,,0,,,69,62
38880,note_on,720,0,3,,,,,,,,,2,,,58,0
39120,note_on,240,0,1,,,,,,,,,0,,,81,0
39120,note_on,0,0,1,,,,,,,,,0,,,76,62
39120,note_on,0,0,1,,,,,,,,,0,,,69,0
39360,note_on,240,0,1,,,,,,,,,0,,,76,0
39360,note_on,0,0,1,,,,,,,,,0,,,73,62
39600,note_on,0,0,1,,,,,,,,,0,,,70,88
39600,note_on,0,0,4,,,,,,,,,3,,,55,64
39600,note_on,240,0,1,,,,,,,,,0,,,73,0
39600,note_on,720,0,4,,,,,,,,,3,,,57,0
39600,note_on,0,0,1,,,,,,,,,0,,,82,88
39840,note_on,0,0,1,,,,,,,,,0,,,76,62
39840,note_on,0,0,1,,,,,,,,,0,,,70,0
39840,note_on,240,0,1,,,,,,,,,0,,,82,0
40080,note_on,0,0,1,,,,,,,,,0,,,73,62
40080,note_on,240,0,1,,,,,,,,,0,,,76,0
40320,note_on,720,0,4,,,,,,,,,3,,,55,0
40320,note_on,0,0,1,,,,,,,,,0,,,81,62
40320,note_on,0,0,1,,,,,,,,,0,,,69,62
40320,note_on,0,0,4,,,,,,,,,3,,,57,64
40320,note_on,240,0,1,,,,,,,,,0,,,73,0
40560,note_on,0,0,1,,,,,,,,,0,,,69,0
40560,note_on,0,0,1,,,,,,,,,0,,,76,62
40560,note_on,240,0,1,,,,,,,,,0,,,81,0
40800,note_on,0,0,1,,,,,,,,,0,,,73,62
40800,note_on,240,0,1,,,,,,,,,0,,,76,0
41040,note_on,2160,0,3,,,,,,,,,2,,,64,0
41040,note_on,0,0,3,,,,,,,,,2,,,61,0
41040,note_on,0,0,4,,,,,,,,,3,,,58,64
41040,note_on,720,0,4,,,,,,,,,3,,,57,0
41040,note_on,240,0,1,,,,,,,,,0,,,73,0
41040,note_on,0,0,1,,,,,,,,,0,,,79,62
41040,note_on,0,0,1,,,,,,,,,0,,,67,62
41040,note_on,0,0,4,,,,,,,,,3,,,61,64
41040,note_on,0,0,3,,,,,,,,,2,,,64,49
41280,note_on,0,0,1,,,,,,,,,0,,,67,0
41280,note_on,240,0,1,,,,,,,,,0,,,79,0
41280,note_on,0,0,1,,,,,,,,,0,,,76,62
41520,note_on,0,0,1,,,,,,,,,0,,,73,62
41520,note_on,240,0,1,,,,,,,,,0,,,76,0
41760,note_on,0,0,1,,,,,,,,,0,,,69,62
41760,note_on,0,0,4,,,,,,,,,3,,,57,64
41760,note_on,0,0,1,,,,,,,,,0,,,81,62
41760,note_on,720,0,4,,,,,,,,,3,,,58,0
41760,note_on,240,0,1,,,,,,,,,0,,,73,0
42000,note_on,0,0,1,,,,,,,,,0,,,76,62
42000,note_on,0,0,1,,,,,,,,,0,,,69,0
42000,note_on,240,0,1,,,,,,,,,0,,,81,0
42240,note_on,0,0,1,,,,,,,,,0,,,73,62
42240,note_on,240,0,1,,,,,,,,,0,,,76,0
42480,note_on,0,0,3,,,,,,,,,2,,,62,49
42480,note_on,0,0,3,,,,,,,,,2,,,65,49
42480,note_on,240,0,1,,,,,,,,,0,,,73,0
42480,note_on,1440,0,3,,,,,,,,,2,,,64,0
42480,note_on,720,0,4,,,,,,,,,3,,,57,0
42480,note_on,0,0,4,,,,,,,,,3,,,56,64
42480,note_on,0,0,1,,,,,,,,,0,,,71,62
42480,note_on,0,0,1,,,,,,,,,0,,,83,62
42480,note_on,0,0,4,,,,,,,,,3,,,61,0
42720,note_on,0,0,1,,,,,,,,,0,,,71,0
42720,note_on,0,0,1,,,,,,,,,0,,,77,62
42720,note_on,240,0,1,,,,,,,,,0,,,83,0
42960,note_on,0,0,1,,,,,,,,,0,,,74,62
42960,note_on,240,0,1,,,,,,,,,0,,,77,0
43200,note_on,240,0,1,,,,,,,,,0,,,74,0
43200,note_on,0,0,3,,,,,,,,,2,,,64,49
43200,note_on,0,0,3,,,,,,,,,2,,,62,0
43200,note_on,0,0,3,,,,,,,,,2,,,57,49
43200,note_on,0,0,3,,,,,,,,,2,,,61,49
43200,note_on,0,0,1,,,,,,,,,0,,,81,62
43200,note_on,720,0,4,,,,,,,,,3,,,56,0
43200,note_on,720,0,3,,,,,,,,,2,,,65,0
43200,note_on,0,0,1,,,,,,,,,0,,,69,62
43440,note_on,0,0,1,,,,,,,,,0,,,69,0
43440,note_on,0,0,1,,,,,,,,,0,,,76,62
43440,note_on,240,0,1,,,,,,,,,0,,,81,0
43680,note_on,240,0,1,,,,,,,,,0,,,76,0
43680,note_on,480,0,3,,,,,,,,,2,,,64,0
43680,note_on,0,0,1,,,,,,,,,0,,,73,62
43680,note_on,0,0,3,,,,,,,,,2,,,57,0
43680,note_on,0,0,3,,,,,,,,,2,,,61,0
43920,note_on,240,0,1,,,,,,,,,0,,,73,0
43920,note_on,0,0,1,,,,,,,,,0,,,85,101
43920,note_on,0,0,1,,,,,,,,,0,,,73,101
44160,note_on,0,0,1,,,,,,,,,0,,,81,75
44160,note_on,0,0,1,,,,,,,,,0,,,73,0
44160,note_on,240,0,1,,,,,,,,,0,,,85,0
44400,note_on,240,0,1,,,,,,,,,0,,,81,0
44400,note_on,0,0,1,,,,,,,,,0,,,76,75
44640,note_on,240,0,1,,,,,,,,,0,,,76,0
44640,note_on,0,0,1,,,,,,,,,0,,,69,101
44640,note_on,0,0,1,,,,,,,,,0,,,81,101
44880,note_on,0,0,1,,,,,,,,,0,,,76,75
44880,note_on,0,0,1,,,,,,,,,0,,,69,0
44880,note_on,240,0,1,,,,,,,,,0,,,81,0
45120,note_on,240,0,1,,,,,,,,,0,,,76,0
45120,note_on,0,0,1,,,,,,,,,0,,,73,75
45360,note_on,0,0,1,,,,,,,,,0,,,64,101
45360,note_on,240,0,1,,,,,,,,,0,,,73,0
45360,note_on,0,0,1,,,,,,,,,0,,,76,101
45600,note_on,0,0,1,,,,,,,,,0,,,73,75
45600,note_on,0,0,1,,,,,,,,,0,,,64,0
45600,note_on,240,0,1,,,,,,,,,0,,,76,0
45840,note_on,240,0,1,,,,,,,,,0,,,73,0
45840,note_on,0,0,1,,,,,,,,,0,,,69,75
46080,note_on,0,0,1,,,,,,,,,0,,,73,101
46080,note_on,0,0,1,,,,,,,,,0,,,61,101
46080,note_on,240,0,1,,,,,,,,,0,,,69,0
46320,note_on,0,0,1,,,,,,,,,0,,,61,0
46320,note_on,0,0,1,,,,,,,,,0,,,69,75
46320,note_on,240,0,1,,,,,,,,,0,,,73,0
46560,note_on,0,0,1,,,,,,,,,0,,,64,75
46560,note_on,240,0,1,,,,,,,,,0,,,69,0
46800,note_on,240,0,1,,,,,,,,,0,,,64,0
46800,note_on,0,0,3,,,,,,,,,2,,,52,75
46800,note_on,0,0,1,,,,,,,,,0,,,55,62
46800,note_on,0,0,1,,,,,,,,,0,,,67,62
46800,note_on,0,0,3,,,,,,,,,2,,,49,75
46800,note_on,3120,0,3,,,,,,,,,2,,,46,75
47040,note_on,240,0,1,,,,,,,,,0,,,67,0
47040,note_on,0,0,1,,,,,,,,,0,,,55,0
47040,note_on,0,0,1,,,,,,,,,0,,,64,62
47280,note_on,0,0,1,,,,,,,,,0,,,61,62
47280,note_on,240,0,1,,,,,,,,,0,,,64,0
47520,note_on,0,0,1,,,,,,,,,0,,,69,62
47520,note_on,4320,0,4,,,,,,,,,3,,,45,64
47520,note_on,0,0,1,,,,,,,,,0,,,57,62
47520,note_on,240,0,1,,,,,,,,,0,,,61,0
47520,note_on,720,0,3,,,,,,,,,2,,,46,0
47760,note_on,0,0,1,,,,,,,,,0,,,57,0
47760,note_on,0,0,1,,,,,,,,,0,,,64,62
47760,note_on,240,0,1,,,,,,,,,0,,,69,0
48000,note_on,0,0,1,,,,,,,,,0,,,61,62
48000,note_on,240,0,1,,,,,,,,,0,,,64,0
48240,note_on,240,0,1,,,,,,,,,0,,,61,0
48240,note_on,720,0,4,,,,,,,,,3,,,45,0
48240,note_on,0,0,1,,,,,,,,,0,,,70,62
48240,note_on,0,0,1,,,,,,,,,0,,,58,62
48240,note_on,0,0,4,,,,,,,,,3,,,43,64
48480,note_on,240,0,1,,,,,,,,,0,,,70,0
48480,note_on,0,0,1,,,,,,,,,0,,,64,62
48480,note_on,0,0,1,,,,,,,,,0,,,58,0
48720,note_on,240,0,1,,,,,,,,,0,,,64,0
48720,note_on,0,0,1,,,,,,,,,0,,,61,62
48960,note_on,0,0,1,,,,,,,,,0,,,57,62
48960,note_on,240,0,1,,,,,,,,,0,,,61,0
48960,note_on,0,0,4,,,,,,,,,3,,,45,64
48960,note_on,0,0,1,,,,,,,,,0,,,69,62
48960,note_on,720,0,4,,,,,,,,,3,,,43,0
49200,note_on,0,0,1,,,,,,,,,0,,,64,62
49200,note_on,240,0,1,,,,,,,,,0,,,69,0
49200,note_on,0,0,1,,,,,,,,,0,,,57,0
49440,note_on,0,0,1,,,,,,,,,0,,,61,62
49440,note_on,240,0,1,,,,,,,,,0,,,64,0
49680,note_on,240,0,1,,,,,,,,,0,,,61,0
49680,note_on,0,0,3,,,,,,,,,2,,,49,0
49680,note_on,720,0,4,,,,,,,,,3,,,45,0
49680,note_on,0,0,4,,,,,,,,,3,,,49,64
49680,note_on,0,0,4,,,,,,,,,3,,,46,64
49680,note_on,0,0,3,,,,,,,,,2,,,52,49
49680,note_on,0,0,1,,,,,,,,,0,,,55,62
49680,note_on,0,0,1,,,,,,,,,0,,,67,62
49680,note_on,2160,0,3,,,,,,,,,2,,,52,0
49920,note_on,240,0,1,,,,,,,,,0,,,67,0
49920,note_on,0,0,1,,,,,,,,,0,,,55,0
49920,note_on,0,0,1,,,,,,,,,0,,,64,62
50160,note_on,240,0,1,,,,,,,,,0,,,64,0
50160,note_on,0,0,1,,,,,,,,,0,,,61,62
50400,note_on,0,0,4,,,,,,,,,3,,,45,64
50400,note_on,0,0,1,,,,,,,,,0,,,57,62
50400,note_on,0,0,1,,,,,,,,,0,,,69,62
50400,note_on,720,0,4,,,,,,,,,3,,,46,0
50400,note_on,240,0,1,,,,,,,,,0,,,61,0
50640,note_on,240,0,1,,,,,,,,,0,,,69,0
50640,note_on,0,0,1,,,,,,,,,0,,,64,62
50640,note_on,0,0,1,,,,,,,,,0,,,57,0
50880,note_on,240,0,1,,,,,,,,,0,,,64,0
50880,note_on,0,0,1,,,,,,,,,0,,,61,62
51120,note_on,0,0,3,,,,,,,,,2,,,50,49
51120,note_on,0,0,4,,,,,,,,,3,,,44,64
51120,note_on,240,0,1,,,,,,,,,0,,,61,0
51120,note_on,720,0,4,,,,,,,,,3,,,45,0
51120,note_on,1440,0,3,,,,,,,,,2,,,52,0
51120,note_on,0,0,3,,,,,,,,,2,,,53,49
51120,note_on,0,0,4,,,,,,,,,3,,,49,0
51120,note_on,0,0,1,,,,,,,,,0,,,59,62
51120,note_on,0,0,1,,,,,,,,,0,,,71,62
51360,note_on,240,0,1,,,,,,,,,0,,,71,0
51360,note_on,0,0,1,,,,,,,,,0,,,59,0
51360,note_on,0,0,1,,,,,,,,,0,,,65,62
51600,note_on,240,0,1,,,,,,,,,0,,,65,0
51600,note_on,0,0,1,,,,,,,,,0,,,62,62
51840,note_on,0,0,1,,,,,,,,,0,,,69,62
51840,note_on,0,0,3,,,,,,,,,2,,,52,49
51840,note_on,0,0,3,,,,,,,,,2,,,50,0
51840,note_on,0,0,1,,,,,,,,,0,,,57,62
51840,note_on,0,0,3,,,,,,,,,2,,,49,49
51840,note_on,240,0,1,,,,,,,,,0,,,62,0
51840,note_on,0,0,3,,,,,,,,,2,,,45,49
51840,note_on,720,0,3,,,,,,,,,2,,,53,0
51840,note_on,720,0,4,,,,,,,,,3,,,44,0
52080,note_on,0,0,1,,,,,,,,,0,,,57,0
52080,note_on,0,0,1,,,,,,,,,0,,,64,62
52080,note_on,240,0,1,,,,,,,,,0,,,69,0
52320,note_on,0,0,3,,,,,,,,,2,,,45,0
52320,note_on,0,0,3,,,,,,,,,2,,,49,0
52320,note_on,480,0,3,,,,,,,,,2,,,52,0
52320,note_on,240,0,1,,,,,,,,,0,,,64,0
52320,note_on,0,0,1,,,,,,,,,0,,,61,62
52560,note_on,0,0,1,,,,,,,,,0,,,69,62
52560,note_on,240,0,1,,,,,,,,,0,,,61,0
52560,note_on,0,0,1,,,,,,,,,0,,,57,62
52800,note_on,0,0,1,,,,,,,,,0,,,57,0
52800,note_on,0,0,1,,,,,,,,,0,,,64,62
52800,note_on,240,0,1,,,,,,,,,0,,,69,0
53040,note_on,240,0,1,,,,,,,,,0,,,64,0
53040,note_on,0,0,1,,,,,,,,,0,,,61,62
53280,note_on,0,0,3,,,,,,,,,2,,,64,62
53280,note_on,960,0,3,,,,,,,,,2,,,52,62
53280,note_on,240,0,1,,,,,,,,,0,,,61,0
53520,note_on,0,0,3,,,,,,,,,2,,,52,0
53520,note_on,0,0,3,,,,,,,,,2,,,61,62
53520,note_on,240,0,3,,,,,,,,,2,,,64,0
53760,note_on,0,0,3,,,,,,,,,2,,,57,62
53760,note_on,240,0,3,,,,,,,,,2,,,61,0
54000,note_on,0,0,3,,,,,,,,,2,,,49,62
54000,note_on,0,0,3,,,,,,,,,2,,,61,62
54000,note_on,240,0,3,,,,,,,,,2,,,57,0
54240,note_on,240,0,3,,,,,,,,,2,,,61,0
54240,note_on,0,0,3,,,,,,,,,2,,,57,62
54240,note_on,0,0,3,,,,,,,,,2,,,49,0
54480,note_on,0,0,3,,,,,,,,,2,,,52,62
54480,note_on,240,0,3,,,,,,,,,2,,,57,0
54720,note_on,0,0,3,,,,,,,,,2,,,45,75
54720,note_on,240,0,3,,,,,,,,,2,,,52,0
54960,note_on,240,0,3,,,,,,,,,2,,,45,0
54960,note_on,0,0,3,,,,,,,,,2,,,46,75
55200,note_on,0,0,3,,,,,,,,,2,,,45,75
55200,note_on,240,0,3,,,,,,,,,2,,,46,0
55440,note_on,240,0,3,,,,,,,,,2,,,45,0
55440,note_on,0,0,3,,,,,,,,,2,,,43,88
55680,note_on,240,0,3,,,,,,,,,2,,,43,0
55680,note_on,0,0,3,,,,,,,,,2,,,46,88
55920,note_on,240,0,3,,,,,,,,,2,,,46,0
55920,note_on,0,0,3,,,,,,,,,2,,,45,88
56160,note_on,240,0,3,,,,,,,,,2,,,45,0
56160,note_on,0,0,3,,,,,,,,,2,,,41,88
56400,note_on,240,0,3,,,,,,,,,2,,,41,0
56400,note_on,0,0,3,,,,,,,,,2,,,46,88
56640,note_on,240,0,3,,,,,,,,,2,,,46,0
56640,note_on,0,0,3,,,,,,,,,2,,,45,88
56880,note_on,0,0,3,,,,,,,,,2,,,40,75
56880,note_on,240,0,3,,,,,,,,,2,,,45,0
57120,note_on,0,0,3,,,,,,,,,2,,,46,75
57120,note_on,240,0,3,,,,,,,,,2,,,40,0
57360,note_on,0,0,3,,,,,,,,,2,,,45,75
57360,note_on,240,0,3,,,,,,,,,2,,,46,0
57600,note_on,0,0,3,,,,,,,,,2,,,38,62
57600,note_on,240,0,3,,,,,,,,,2,,,45,0
57840,note_on,0,0,1,,,,,,,,,0,,,53,62
57840,control_change,4560,0,1,,,,,,,,,0,64,127,,
57840,note_on,0,0,1,,,,,,,,,0,,,50,62
58080,note_on,0,0,1,,,,,,,,,0,,,55,62
58080,note_on,0,0,1,,,,,,,,,0,,,52,62
58080,note_on,0,0,1,,,,,,,,,0,,,50,0
58080,note_on,240,0,1,,,,,,,,,0,,,53,0
58320,note_on,0,0,1,,,,,,,,,0,,,57,62
58320,note_on,0,0,1,,,,,,,,,0,,,52,0
58320,note_on,0,0,1,,,,,,,,,0,,,53,62
58320,note_on,240,0,1,,,,,,,,,0,,,55,0
58560,note_on,240,0,1,,,,,,,,,0,,,57,0
58560,note_on,0,0,1,,,,,,,,,0,,,53,0
58560,note_on,0,0,1,,,,,,,,,0,,,62,62
58560,note_on,0,0,1,,,,,,,,,0,,,65,62
58800,note_on,0,0,1,,,,,,,,,0,,,62,0
58800,note_on,0,0,1,,,,,,,,,0,,,64,62
58800,note_on,0,0,1,,,,,,,,,0,,,67,62
58800,note_on,240,0,1,,,,,,,,,0,,,65,0
59040,note_on,0,0,1,,,,,,,,,0,,,64,0
59040,note_on,0,0,1,,,,,,,,,0,,,65,62
59040,note_on,240,0,1,,,,,,,,,0,,,67,0
59040,note_on,1440,0,3,,,,,,,,,2,,,38,0
59040,note_on,0,0,1,,,,,,,,,0,,,69,62
59280,note_on,0,0,1,,,,,,,,,0,,,65,0
59280,note_on,0,0,1,,,,,,,,,0,,,74,62
59280,note_on,0,0,1,,,,,,,,,0,,,77,62
59280,note_on,240,0,1,,,,,,,,,0,,,69,0
59520,note_on,240,0,1,,,,,,,,,0,,,77,0
59520,note_on,0,0,1,,,,,,,,,0,,,74,0
59520,note_on,0,0,1,,,,,,,,,0,,,76,62
59520,note_on,0,0,1,,,,,,,,,0,,,79,62
59760,note_on,0,0,1,,,,,,,,,0,,,76,0
59760,note_on,0,0,1,,,,,,,,,0,,,77,62
59760,note_on,0,0,1,,,,,,,,,0,,,81,62
59760,control_change,0,0,1,,,,,,,,,0,64,0,,
59760,note_on,240,0,1,,,,,,,,,0,,,79,0
60000,note_on,0,0,3,,,,,,,,,2,,,45,62
60000,note_on,960,0,3,,,,,,,,,2,,,41,62
60000,note_on,240,0,1,,,,,,,,,0,,,81,0
60000,note_on,0,0,1,,,,,,,,,0,,,77,0
60240,note_on,240,0,3,,,,,,,,,2,,,45,0
60240,note_on,0,0,3,,,,,,,,,2,,,41,0
60240,note_on,0,0,3,,,,,,,,,2,,,38,62
60480,note_on,0,0,3,,,,,,,,,2,,,33,62
60480,note_on,240,0,3,,,,,,,,,2,,,38,0
60720,note_on,0,0,1,,,,,,,,,0,,,49,62
60720,note_on,0,0,1,,,,,,,,,0,,,52,62
60720,control_change,720,0,1,,,,,,,,,0,64,127,,
60960,note_on,0,0,1,,,,,,,,,0,,,50,62
60960,note_on,0,0,1,,,,,,,,,0,,,53,62
60960,note_on,240,0,1,,,,,,,,,0,,,52,0
60960,note_on,0,0,1,,,,,,,,,0,,,49,0
61200,note_on,0,0,1,,,,,,,,,0,,,50,0
61200,note_on,240,0,1,,,,,,,,,0,,,53,0
61200,note_on,0,0,1,,,,,,,,,0,,,52,62
61200,note_on,0,0,1,,,,,,,,,0,,,55,62
61440,note_on,240,0,1,,,,,,,,,0,,,55,0
61440,note_on,0,0,1,,,,,,,,,0,,,52,0
61440,note_on,0,0,1,,,,,,,,,0,,,61,62
61440,note_on,0,0,1,,,,,,,,,0,,,64,62
61680,note_on,240,0,1,,,,,,,,,0,,,64,0
61680,note_on,0,0,1,,,,,,,,,0,,,61,0
61680,note_on,0,0,1,,,,,,,,,0,,,65,62
61680,note_on,0,0,1,,,,,,,,,0,,,62,62
61920,note_on,0,0,1,,,,,,,,,0,,,67,62
61920,note_on,1440,0,3,,,,,,,,,2,,,33,0
61920,note_on,0,0,1,,,,,,,,,0,,,64,62
61920,note_on,240,0,1,,,,,,,,,0,,,65,0
61920,note_on,0,0,1,,,,,,,,,0,,,62,0
62160,note_on,240,0,1,,,,,,,,,0,,,67,0
62160,note_on,0,0,1,,,,,,,,,0,,,64,0
62160,note_on,0,0,1,,,,,,,,,0,,,73,62
62160,note_on,0,0,1,,,,,,,,,0,,,76,62
62400,note_on,240,0,1,,,,,,,,,0,,,76,0
62400,note_on,0,0,1,,,,,,,,,0,,,77,62
62400,note_on,0,0,1,,,,,,,,,0,,,73,0
62400,note_on,0,0,1,,,,,,,,,0,,,74,62
62640,control_change,0,0,1,,,,,,,,,0,64,0,,
62640,note_on,0,0,1,,,,,,,,,0,,,79,62
62640,note_on,0,0,1,,,,,,,,,0,,,76,62
62640,note_on,240,0,1,,,,,,,,,0,,,77,0
62640,note_on,0,0,1,,,,,,,,,0,,,74,0
62880,note_on,240,0,1,,,,,,,,,0,,,79,0
62880,note_on,960,0,3,,,,,,,,,2,,,33,62
62880,note_on,0,0,1,,,,,,,,,0,,,76,0
63120,note_on,0,0,3,,,,,,,,,2,,,45,62
63120,note_on,240,0,3,,,,,,,,,2,,,33,0
63360,note_on,240,0,3,,,,,,,,,2,,,45,0
63360,note_on,0,0,3,,,,,,,,,2,,,33,62
63600,control_change,720,0,1,,,,,,,,,0,64,127,,
63600,note_on,0,0,1,,,,,,,,,0,,,49,62
63600,note_on,0,0,1,,,,,,,,,0,,,52,62
63840,note_on,0,0,1,,,,,,,,,0,,,53,62
63840,note_on,240,0,1,,,,,,,,,0,,,52,0
63840,note_on,0,0,1,,,,,,,,,0,,,50,62
63840,note_on,0,0,1,,,,,,,,,0,,,49,0
64080,note_on,0,0,1,,,,,,,,,0,,,52,62
64080,note_on,0,0,1,,,,,,,,,0,,,55,62
64080,note_on,240,0,1,,,,,,,,,0,,,53,0
64080,note_on,0,0,1,,,,,,,,,0,,,50,0
64320,note_on,240,0,1,,,,,,,,,0,,,55,0
64320,note_on,0,0,1,,,,,,,,,0,,,52,0
64320,note_on,0,0,1,,,,,,,,,0,,,61,62
64320,note_on,0,0,1,,,,,,,,,0,,,64,62
64560,note_on,0,0,1,,,,,,,,,0,,,65,62
64560,note_on,0,0,1,,,,,,,,,0,,,62,62
64560,note_on,240,0,1,,,,,,,,,0,,,64,0
64560,note_on,0,0,1,,,,,,,,,0,,,61,0
64800,note_on,1440,0,3,,,,,,,,,2,,,33,0
64800,note_on,0,0,1,,,,,,,,,0,,,67,62
64800,note_on,240,0,1,,,,,,,,,0,,,65,0
64800,note_on,0,0,1,,,,,,,,,0,,,62,0
64800,note_on,0,0,1,,,,,,,,,0,,,64,62
65040,note_on,0,0,1,,,,,,,,,0,,,64,0
65040,note_on,0,0,1,,,,,,,,,0,,,73,62
65040,note_on,0,0,1,,,,,,,,,0,,,76,62
65040,note_on,240,0,1,,,,,,,,,0,,,67,0
65280,note_on,240,0,1,,,,,,,,,0,,,76,0
65280,note_on,0,0,1,,,,,,,,,0,,,77,62
65280,note_on,0,0,1,,,,,,,,,0,,,73,0
65280,note_on,0,0,1,,,,,,,,,0,,,74,62
65520,note_on,0,0,1,,,,,,,,,0,,,74,0
65520,note_on,0,0,1,,,,,,,,,0,,,76,62
65520,note_on,0,0,1,,,,,,,,,0,,,79,62
65520,note_on,240,0,1,,,,,,,,,0,,,77,0
65520,control_change,0,0,1,,,,,,,,,0,64,0,,
65760,note_on,240,0,1,,,,,,,,,0,,,79,0
65760,note_on,0,0,1,,,,,,,,,0,,,76,0
65760,note_on,960,0,3,,,,,,,,,2,,,33,62
66000,note_on,240,0,3,,,,,,,,,2,,,33,0
66000,note_on,0,0,3,,,,,,,,,2,,,45,62
66240,note_on,240,0,3,,,,,,,,,2,,,45,0
66240,note_on,0,0,3,,,,,,,,,2,,,38,62
66480,control_change,720,0,1,,,,,,,,,0,64,127,,
66480,note_on,0,0,1,,,,,,,,,0,,,50,62
66480,note_on,0,0,1,,,,,,,,,0,,,53,62
66720,note_on,240,0,1,,,,,,,,,0,,,53,0
66720,note_on,0,0,1,,,,,,,,,0,,,52,62
66720,note_on,0,0,1,,,,,,,,,0,,,55,62
66720,note_on,0,0,1,,,,,,,,,0,,,50,0
66960,note_on,0,0,1,,,,,,,,,0,,,52,0
66960,note_on,0,0,1,,,,,,,,,0,,,57,62
66960,note_on,240,0,1,,,,,,,,,0,,,55,0
66960,note_on,0,0,1,,,,,,,,,0,,,53,62
67200,note_on,240,0,1,,,,,,,,,0,,,57,0
67200,note_on,0,0,1,,,,,,,,,0,,,65,62
67200,note_on,0,0,1,,,,,,,,,0,,,53,0
67200,note_on,0,0,1,,,,,,,,,0,,,62,62
67440,note_on,240,0,1,,,,,,,,,0,,,65,0
67440,note_on,0,0,1,,,,,,,,,0,,,62,0
67440,note_on,0,0,1,,,,,,,,,0,,,64,62
67440,note_on,0,0,1,,,,,,,,,0,,,67,62
67680,note_on,240,0,1,,,,,,,,,0,,,67,0
67680,note_on,0,0,1,,,,,,,,,0,,,69,62
67680,note_on,0,0,1,,,,,,,,,0,,,65,62
67680,note_on,1440,0,3,,,,,,,,,2,,,38,0
67680,note_on,0,0,1,,,,,,,,,0,,,64,0
67920,note_on,0,0,1,,,,,,,,,0,,,77,62
67920,note_on,240,0,1,,,,,,,,,0,,,69,0
67920,note_on,0,0,1,,,,,,,,,0,,,74,62
67920,note_on,0,0,1,,,,,,,,,0,,,65,0
68160,note_on,0,0,1,,,,,,,,,0,,,74,0
68160,note_on,0,0,1,,,,,,,,,0,,,76,62
68160,note_on,0,0,1,,,,,,,,,0,,,79,62
68160,note_on,240,0,1,,,,,,,,,0,,,77,0
68400,note_on,0,0,1,,,,,,,,,0,,,77,62
68400,note_on,0,0,1,,,,,,,,,0,,,76,0
68400,note_on,240,0,1,,,,,,,,,0,,,79,0
68400,note_on,0,0,1,,,,,,,,,0,,,81,62
68400,control_change,0,0,1,,,,,,,,,0,64,0,,
68640,note_on,0,0,1,,,,,,,,,0,,,77,0
68640,note_on,0,0,3,,,,,,,,,2,,,50,62
68640,note_on,240,0,1,,,,,,,,,0,,,81,0
68640,note_on,960,0,3,,,,,,,,,2,,,45,62
68880,note_on,0,0,3,,,,,,,,,2,,,41,62
68880,note_on,0,0,3,,,,,,,,,2,,,45,0
68880,note_on,240,0,3,,,,,,,,,2,,,50,0
69120,note_on,0,0,3,,,,,,,,,2,,,38,62
69120,note_on,240,0,3,,,,,,,,,2,,,41,0
69360,control_change,720,0,1,,,,,,,,,0,64,127,,
69360,note_on,0,0,1,,,,,,,,,0,,,50,62
69360,note_on,0,0,1,,,,,,,,,0,,,53,62
69600,note_on,240,0,1,,,,,,,,,0,,,53,0
69600,note_on,0,0,1,,,,,,,,,0,,,50,0
69600,note_on,0,0,1,,,,,,,,,0,,,52,62
69600,note_on,0,0,1,,,,,,,,,0,,,55,62
69840,note_on,240,0,1,,,,,,,,,0,,,55,0
69840,note_on,0,0,1,,,,,,,,,0,,,52,0
69840,note_on,0,0,1,,,,,,,,,0,,,53,62
69840,note_on,0,0,1,,,,,,,,,0,,,57,62
70080,note_on,240,0,1,,,,,,,,,0,,,57,0
70080,note_on,0,0,1,,,,,,,,,0,,,62,62
70080,note_on,0,0,1,,,,,,,,,0,,,53,0
70080,note_on,0,0,1,,,,,,,,,0,,,65,62
70320,note_on,0,0,1,,,,,,,,,0,,,67,62
70320,note_on,0,0,1,,,,,,,,,0,,,62,0
70320,note_on,0,0,1,,,,,,,,,0,,,64,62
70320,note_on,240,0,1,,,,,,,,,0,,,65,0
70560,note_on,0,0,1,,,,,,,,,0,,,69,62
70560,note_on,1440,0,3,,,,,,,,,2,,,38,0
70560,note_on,0,0,1,,,,,,,,,0,,,65,62
70560,note_on,0,0,1,,,,,,,,,0,,,64,0
70560,note_on,240,0,1,,,,,,,,,0,,,67,0
70800,note_on,0,0,1,,,,,,,,,0,,,77,62
70800,note_on,0,0,1,,,,,,,,,0,,,74,62
70800,note_on,0,0,1,,,,,,,,,0,,,65,0
70800,note_on,240,0,1,,,,,,,,,0,,,69,0
71040,note_on,240,0,1,,,,,,,,,0,,,77,0
71040,note_on,0,0,1,,,,,,,,,0,,,76,62
71040,note_on,0,0,1,,,,,,,,,0,,,74,0
71040,note_on,0,0,1,,,,,,,,,0,,,79,62
71280,note_on,240,0,1,,,,,,,,,0,,,79,0
71280,note_on,0,0,1,,,,,,,,,0,,,77,62
71280,note_on,0,0,1,,,,,,,,,0,,,81,62
71280,control_change,0,0,1,,,,,,,,,0,64,0,,
71280,note_on,0,0,1,,,,,,,,,0,,,76,0
71520,note_on,0,0,1,,,,,,,,,0,,,77,0
71520,note_on,960,0,3,,,,,,,,,2,,,38,62
71520,note_on,240,0,1,,,,,,,,,0,,,81,0
71760,note_on,0,0,3,,,,,,,,,2,,,50,62
71760,note_on,240,0,3,,,,,,,,,2,,,38,0
72000,note_on,240,0,3,,,,,,,,,2,,,50,0
72000,note_on,0,0,3,,,,,,,,,2,,,43,62
72240,control_change,720,0,1,,,,,,,,,0,64,127,,
72240,note_on,0,0,1,,,,,,,,,0,,,55,62
72240,note_on,0,0,1,,,,,,,,,0,,,58,62
72480,note_on,240,0,1,,,,,,,,,0,,,58,0
72480,note_on,0,0,1,,,,,,,,,0,,,55,0
72480,note_on,0,0,1,,,,,,,,,0,,,57,62
72480,note_on,0,0,1,,,,,,,,,0,,,60,62
72720,note_on,240,0,1,,,,,,,,,0,,,60,0
72720,note_on,0,0,1,,,,,,,,,0,,,57,0
72720,note_on,0,0,1,,,,,,,,,0,,,58,62
72720,note_on,0,0,1,,,,,,,,,0,,,62,62
72960,note_on,240,0,1,,,,,,,,,0,,,62,0
72960,note_on,0,0,1,,,,,,,,,0,,,70,62
72960,note_on,0,0,1,,,,,,,,,0,,,67,62
72960,note_on,0,0,1,,,,,,,,,0,,,58,0
73200,note_on,0,0,1,,,,,,,,,0,,,67,0
73200,note_on,0,0,1,,,,,,,,,0,,,69,62
73200,note_on,0,0,1,,,,,,,,,0,,,72,62
73200,note_on,240,0,1,,,,,,,,,0,,,70,0
73440,note_on,240,0,1,,,,,,,,,0,,,72,0
73440,note_on,0,0,1,,,,,,,,,0,,,69,0
73440,note_on,0,0,1,,,,,,,,,0,,,70,62
73440,note_on,0,0,1,,,,,,,,,0,,,74,62
73440,note_on,1440,0,3,,,,,,,,,2,,,43,0
73680,note_on,0,0,1,,,,,,,,,0,,,82,62
73680,note_on,240,0,1,,,,,,,,,0,,,74,0
73680,note_on,0,0,1,,,,,,,,,0,,,79,62
73680,note_on,0,0,1,,,,,,,,,0,,,70,0
73920,note_on,240,0,1,,,,,,,,,0,,,82,0
73920,note_on,0,0,1,,,,,,,,,0,,,79,0
73920,note_on,0,0,1,,,,,,,,,0,,,81,62
73920,note_on,0,0,1,,,,,,,,,0,,,84,62
74160,note_on,0,0,1,,,,,,,,,0,,,86,62
74160,note_on,0,0,1,,,,,,,,,0,,,82,62
74160,note_on,240,0,1,,,,,,,,,0,,,84,0
74160,note_on,0,0,1,,,,,,,,,0,,,81,0
74160,control_change,0,0,1,,,,,,,,,0,64,0,,
74400,note_on,240,0,1,,,,,,,,,0,,,86,0
74400,note_on,0,0,1,,,,,,,,,0,,,82,0
74400,note_on,0,0,3,,,,,,,,,2,,,50,62
74400,note_on,960,0,3,,,,,,,,,2,,,46,62
74640,note_on,0,0,3,,,,,,,,,2,,,43,62
74640,note_on,240,0,3,,,,,,,,,2,,,50,0
74640,note_on,0,0,3,,,,,,,,,2,,,46,0
74880,note_on,0,0,3,,,,,,,,,2,,,45,62
74880,note_on,240,0,3,,,,,,,,,2,,,43,0
75120,control_change,720,0,1,,,,,,,,,0,64,127,,
75120,note_on,0,0,1,,,,,,,,,0,,,57,75
75120,note_on,0,0,1,,,,,,,,,0,,,62,75
75360,note_on,0,0,1,,,,,,,,,0,,,64,75
75360,note_on,0,0,1,,,,,,,,,0,,,57,0
75360,note_on,0,0,1,,,,,,,,,0,,,61,75
75360,note_on,240,0,1,,,,,,,,,0,,,62,0
75600,note_on,0,0,1,,,,,,,,,0,,,61,0
75600,note_on,0,0,1,,,,,,,,,0,,,62,75
75600,note_on,240,0,1,,,,,,,,,0,,,64,0
75600,note_on,0,0,1,,,,,,,,,0,,,65,75
75840,note_on,240,0,1,,,,,,,,,0,,,65,0
75840,note_on,0,0,1,,,,,,,,,0,,,62,0
75840,note_on,0,0,1,,,,,,,,,0,,,69,75
75840,note_on,0,0,1,,,,,,,,,0,,,74,75
76080,note_on,0,0,1,,,,,,,,,0,,,69,0
76080,note_on,0,0,1,,,,,,,,,0,,,73,75
76080,note_on,0,0,1,,,,,,,,,0,,,76,75
76080,note_on,240,0,1,,,,,,,,,0,,,74,0
76320,note_on,0,0,1,,,,,,,,,0,,,73,0
76320,note_on,0,0,1,,,,,,,,,0,,,74,75
76320,note_on,0,0,1,,,,,,,,,0,,,77,75
76320,note_on,1440,0,3,,,,,,,,,2,,,45,0
76320,note_on,240,0,1,,,,,,,,,0,,,76,0
76560,note_on,0,0,1,,,,,,,,,0,,,74,0
76560,note_on,0,0,1,,,,,,,,,0,,,86,75
76560,note_on,0,0,1,,,,,,,,,0,,,81,75
76560,note_on,240,0,1,,,,,,,,,0,,,77,0
76800,note_on,0,0,1,,,,,,,,,0,,,81,0
76800,note_on,0,0,1,,,,,,,,,0,,,85,75
76800,note_on,0,0,1,,,,,,,,,0,,,88,75
76800,note_on,240,0,1,,,,,,,,,0,,,86,0
77040,control_change,0,0,1,,,,,,,,,0,64,0,,
77040,note_on,0,0,1,,,,,,,,,0,,,85,0
77040,note_on,0,0,1,,,,,,,,,0,,,89,75
77040,note_on,240,0,1,,,,,,,,,0,,,88,0
77040,note_on,0,0,1,,,,,,,,,0,,,86,75
77280,note_on,960,0,3,,,,,,,,,2,,,45,62
77280,note_on,0,0,1,,,,,,,,,0,,,86,0
77280,note_on,240,0,1,,,,,,,,,0,,,89,0
77520,note_on,240,0,3,,,,,,,,,2,,,45,0
77520,note_on,0,0,3,,,,,,,,,2,,,33,62
77760,note_on,0,0,3,,,,,,,,,2,,,45,75
77760,note_on,240,0,3,,,,,,,,,2,,,33,0
78000,control_change,720,0,1,,,,,,,,,0,64,127,,
78000,note_on,0,0,1,,,,,,,,,0,,,57,88
78000,note_on,0,0,1,,,,,,,,,0,,,61,88
78240,note_on,240,0,1,,,,,,,,,0,,,61,0
78240,note_on,0,0,1,,,,,,,,,0,,,57,0
78240,note_on,0,0,1,,,,,,,,,0,,,59,88
78240,note_on,0,0,1,,,,,,,,,0,,,62,88
78480,note_on,240,0,1,,,,,,,,,0,,,62,0
78480,note_on,0,0,1,,,,,,,,,0,,,59,0
78480,note_on,0,0,1,,,,,,,,,0,,,61,88
78480,note_on,0,0,1,,,,,,,,,0,,,64,88
78720,note_on,0,0,1,,,,,,,,,0,,,73,88
78720,note_on,0,0,1,,,,,,,,,0,,,69,88
78720,note_on,0,0,1,,,,,,,,,0,,,61,0
78720,note_on,240,0,1,,,,,,,,,0,,,64,0
78960,note_on,0,0,1,,,,,,,,,0,,,69,0
78960,note_on,0,0,1,,,,,,,,,0,,,71,88
78960,note_on,0,0,1,,,,,,,,,0,,,74,88
78960,note_on,240,0,1,,,,,,,,,0,,,73,0
79200,note_on,0,0,1,,,,,,,,,0,,,71,0
79200,note_on,0,0,1,,,,,,,,,0,,,73,88
79200,note_on,0,0,1,,,,,,,,,0,,,76,88
79200,note_on,1440,0,3,,,,,,,,,2,,,45,0
79200,note_on,240,0,1,,,,,,,,,0,,,74,0
79440,note_on,0,0,1,,,,,,,,,0,,,73,0
79440,note_on,0,0,1,,,,,,,,,0,,,81,88
79440,note_on,0,0,1,,,,,,,,,0,,,85,88
79440,note_on,240,0,1,,,,,,,,,0,,,76,0
79680,note_on,0,0,1,,,,,,,,,0,,,83,88
79680,note_on,0,0,1,,,,,,,,,0,,,86,88
79680,note_on,240,0,1,,,,,,,,,0,,,85,0
79680,note_on,0,0,1,,,,,,,,,0,,,81,0
79920,note_on,240,0,1,,,,,,,,,0,,,86,0
79920,control_change,0,0,1,,,,,,,,,0,64,0,,
79920,note_on,0,0,1,,,,,,,,,0,,,83,0
79920,note_on,0,0,1,,,,,,,,,0,,,85,88
79920,note_on,0,0,1,,,,,,,,,0,,,88,88
80160,note_on,240,0,1,,,,,,,,,0,,,88,0
80160,note_on,0,0,1,,,,,,,,,0,,,85,0
80160,note_on,960,0,3,,,,,,,,,2,,,33,75
80400,note_on,240,0,3,,,,,,,,,2,,,33,0
80400,note_on,0,0,3,,,,,,,,,2,,,45,75
80640,note_on,240,0,3,,,,,,,,,2,,,45,0
80640,note_on,0,0,3,,,,,,,,,2,,,38,75
81120,note_on,480,0,3,,,,,,,,,2,,,38,0
81360,note_on,1200,0,1,,,,,,,,,0,,,86,88
81360,note_on,240,0,3,,,,,,,,,2,,,50,101
81360,note_on,0,0,1,,,,,,,,,0,,,98,88
81600,note_on,240,0,1,,,,,,,,,0,,,98,0
81600,note_on,0,0,1,,,,,,,,,0,,,93,88
81600,note_on,0,0,1,,,,,,,,,0,,,86,0
81840,note_on,240,0,1,,,,,,,,,0,,,93,0
81840,note_on,0,0,1,,,,,,,,,0,,,89,88
82080,note_on,0,0,1,,,,,,,,,0,,,81,88
82080,note_on,240,0,1,,,,,,,,,0,,,89,0
82080,note_on,720,0,3,,,,,,,,,2,,,50,0
82080,note_on,30240,0,4,,,,,,,,,3,,,62,75
82080,note_on,0,0,1,,,,,,,,,0,,,93,88
82320,note_on,0,0,1,,,,,,,,,0,,,81,0
82320,note_on,0,0,1,,,,,,,,,0,,,89,88
82320,note_on,240,0,1,,,,,,,,,0,,,93,0
82560,note_on,240,0,1,,,,,,,,,0,,,89,0
82560,note_on,0,0,1,,,,,,,,,0,,,86,88
82800,note_on,0,0,1,,,,,,,,,0,,,77,88
82800,note_on,0,0,1,,,,,,,,,0,,,89,88
82800,note_on,720,0,3,,,,,,,,,2,,,74,75
82800,note_on,240,0,1,,,,,,,,,0,,,86,0
83040,note_on,0,0,1,,,,,,,,,0,,,86,88
83040,note_on,0,0,1,,,,,,,,,0,,,77,0
83040,note_on,240,0,1,,,,,,,,,0,,,89,0
83280,note_on,0,0,1,,,,,,,,,0,,,81,88
83280,note_on,240,0,1,,,,,,,,,0,,,86,0
83520,note_on,83520,0,2,,,,,,,,,1,,,64,75
83520,note_on,720,0,3,,,,,,,,,2,,,74,0
83520,note_on,0,0,3,,,,,,,,,2,,,73,75
83520,note_on,240,0,1,,,,,,,,,0,,,81,0
83520,note_on,0,0,1,,,,,,,,,0,,,88,88
83520,note_on,0,0,4,,,,,,,,,3,,,62,75
83520,note_on,1440,0,4,,,,,,,,,3,,,62,0
83760,note_on,240,0,1,,,,,,,,,0,,,88,0
83760,note_on,0,0,1,,,,,,,,,0,,,82,88
84000,note_on,240,0,1,,,,,,,,,0,,,82,0
84000,note_on,0,0,1,,,,,,,,,0,,,79,88
84240,note_on,0,0,3,,,,,,,,,2,,,74,75
84240,note_on,720,0,3,,,,,,,,,2,,,73,0
84240,note_on,0,0,1,,,,,,,,,0,,,86,88
84240,note_on,240,0,1,,,,,,,,,0,,,79,0
84480,note_on,0,0,1,,,,,,,,,0,,,82,88
84480,note_on,240,0,1,,,,,,,,,0,,,86,0
84720,note_on,240,0,1,,,,,,,,,0,,,82,0
84720,note_on,0,0,1,,,,,,,,,0,,,79,88
84960,note_on,0,0,3,,,,,,,,,2,,,73,75
84960,note_on,240,0,1,,,,,,,,,0,,,79,0
84960,note_on,720,0,3,,,,,,,,,2,,,74,0
84960,note_on,0,0,1,,,,,,,,,0,,,88,88
85200,note_on,240,0,1,,,,,,,,,0,,,88,0
85200,note_on,0,0,1,,,,,,,,,0,,,82,88
85440,note_on,240,0,1,,,,,,,,,0,,,82,0
85440,note_on,0,0,1,,,,,,,,,0,,,79,88
85680,note_on,240,0,1,,,,,,,,,0,,,79,0
85680,note_on,0,0,1,,,,,,,,,0,,,85,88
85680,note_on,720,0,3,,,,,,,,,2,,,73,0
85680,note_on,0,0,3,,,,,,,,,2,,,76,75
85680,note_on,2160,0,2,,,,,,,,,1,,,64,0
85920,note_on,0,0,1,,,,,,,,,0,,,81,88
85920,note_on,240,0,1,,,,,,,,,0,,,85,0
86160,note_on,0,0,1,,,,,,,,,0,,,79,88
86160,note_on,480,0,3,,,,,,,,,2,,,76,0
86160,note_on,240,0,1,,,,,,,,,0,,,81,0
86400,note_on,0,0,1,,,,,,,,,0,,,86,88
86400,note_on,240,0,3,,,,,,,,,2,,,74,75
86400,note_on,240,0,1,,,,,,,,,0,,,79,0
86640,note_on,0,0,1,,,,,,,,,0,,,81,88
86640,note_on,240,0,1,,,,,,,,,0,,,86,0
86880,note_on,240,0,1,,,,,,,,,0,,,81,0
86880,note_on,480,0,3,,,,,,,,,2,,,74,0
86880,note_on,0,0,1,,,,,,,,,0,,,77,88
87120,note_on,240,0,3,,,,,,,,,2,,,89,75
87120,note_on,0,0,1,,,,,,,,,0,,,74,88
87120,note_on,0,0,1,,,,,,,,,0,,,86,88
87120,note_on,240,0,1,,,,,,,,,0,,,77,0
87360,note_on,3840,0,4,,,,,,,,,3,,,62,0
87360,note_on,240,0,1,,,,,,,,,0,,,86,0
87360,note_on,0,0,1,,,,,,,,,0,,,74,0
87360,note_on,0,0,1,,,,,,,,,0,,,81,88
87600,note_on,0,0,1,,,,,,,,,0,,,77,88
87600,note_on,480,0,3,,,,,,,,,2,,,89,0
87600,note_on,240,0,1,,,,,,,,,0,,,81,0
87840,note_on,240,0,3,,,,,,,,,2,,,93,75
87840,note_on,0,0,1,,,,,,,,,0,,,69,88
87840,note_on,0,0,1,,,,,,,,,0,,,81,88
87840,note_on,240,0,1,,,,,,,,,0,,,77,0
88080,note_on,240,0,1,,,,,,,,,0,,,81,0
88080,note_on,0,0,1,,,,,,,,,0,,,69,0
88080,note_on,0,0,1,,,,,,,,,0,,,77,88
88320,note_on,240,0,1,,,,,,,,,0,,,77,0
88320,note_on,480,0,3,,,,,,,,,2,,,93,0
88320,note_on,0,0,1,,,,,,,,,0,,,74,88
88560,note_on,240,0,1,,,,,,,,,0,,,74,0
88560,note_on,240,0,3,,,,,,,,,2,,,98,75
88560,note_on,0,0,1,,,,,,,,,0,,,77,88
88560,note_on,0,0,1,,,,,,,,,0,,,65,88
88800,note_on,240,0,1,,,,,,,,,0,,,77,0
88800,note_on,0,0,1,,,,,,,,,0,,,65,0
88800,note_on,0,0,1,,,,,,,,,0,,,74,88
89040,note_on,240,0,1,,,,,,,,,0,,,74,0
89040,note_on,0,0,1,,,,,,,,,0,,,69,88
89040,note_on,480,0,3,,,,,,,,,2,,,98,0
89280,note_on,240,0,3,,,,,,,,,2,,,49,75
89280,note_on,240,0,1,,,,,,,,,0,,,69,0
89280,note_on,0,0,1,,,,,,,,,0,,,76,88
89280,note_on,3600,0,2,,,,,,,,,1,,,64,75
89280,note_on,1920,0,4,,,,,,,,,3,,,38,75
89520,note_on,0,0,1,,,,,,,,,0,,,70,88
89520,note_on,240,0,1,,,,,,,,,0,,,76,0
89760,note_on,0,0,1,,,,,,,,,0,,,67,88
89760,note_on,240,0,1,,,,,,,,,0,,,70,0
90000,note_on,0,0,3,,,,,,,,,2,,,50,75
90000,note_on,0,0,1,,,,,,,,,0,,,74,88
90000,note_on,240,0,1,,,,,,,,,0,,,67,0
90000,note_on,720,0,3,,,,,,,,,2,,,49,0
90240,note_on,240,0,1,,,,,,,,,0,,,74,0
90240,note_on,0,0,1,,,,,,,,,0,,,70,88
90480,note_on,240,0,1,,,,,,,,,0,,,70,0
90480,note_on,0,0,1,,,,,,,,,0,,,67,88
90720,note_on,0,0,1,,,,,,,,,0,,,76,88
90720,note_on,0,0,3,,,,,,,,,2,,,49,75
90720,note_on,240,0,1,,,,,,,,,0,,,67,0
90720,note_on,720,0,3,,,,,,,,,2,,,50,0
90960,note_on,240,0,1,,,,,,,,,0,,,76,0
90960,note_on,0,0,1,,,,,,,,,0,,,70,88
91200,note_on,0,0,1,,,,,,,,,0,,,67,88
91200,note_on,240,0,1,,,,,,,,,0,,,70,0
91440,note_on,240,0,1,,,,,,,,,0,,,67,0
91440,note_on,2160,0,2,,,,,,,,,1,,,64,0
91440,note_on,720,0,3,,,,,,,,,2,,,49,0
91440,note_on,0,0,3,,,,,,,,,2,,,52,75
91440,note_on,0,0,1,,,,,,,,,0,,,73,88
91440,end_of_track,0,1,2,,,,,,,,,,,,,
91680,note_on,240,0,1,,,,,,,,,0,,,73,0
91680,note_on,0,0,1,,,,,,,,,0,,,69,88
91920,note_on,0,0,1,,,,,,,,,0,,,67,88
91920,note_on,240,0,1,,,,,,,,,0,,,69,0
92160,note_on,0,0,3,,,,,,,,,2,,,50,75
92160,end_of_track,0,1,4,,,,,,,,,,,,,
92160,note_on,240,0,1,,,,,,,,,0,,,67,0
92160,note_on,2880,0,4,,,,,,,,,3,,,38,0
92160,note_on,0,0,1,,,,,,,,,0,,,74,88
92160,note_on,0,0,1,,,,,,,,,0,,,65,88
92160,note_on,720,0,3,,,,,,,,,2,,,52,0
92400,note_on,240,0,1,,,,,,,,,0,,,74,0
92400,note_on,0,0,1,,,,,,,,,0,,,53,62
92400,note_on,0,0,1,,,,,,,,,0,,,50,62
92400,note_on,0,0,1,,,,,,,,,0,,,65,0
92640,note_on,0,0,1,,,,,,,,,0,,,50,0
92640,note_on,240,0,1,,,,,,,,,0,,,53,0
92640,note_on,0,0,1,,,,,,,,,0,,,55,62
92640,note_on,0,0,1,,,,,,,,,0,,,52,62
92880,note_on,0,0,1,,,,,,,,,0,,,53,62
92880,note_on,240,0,1,,,,,,,,,0,,,55,0
92880,note_on,0,0,1,,,,,,,,,0,,,52,0
92880,note_on,0,0,1,,,,,,,,,0,,,57,62
93120,note_on,0,0,1,,,,,,,,,0,,,62,62
93120,note_on,0,0,1,,,,,,,,,0,,,53,0
93120,note_on,0,0,1,,,,,,,,,0,,,65,62
93120,note_on,240,0,1,,,,,,,,,0,,,57,0
93360,note_on,240,0,1,,,,,,,,,0,,,65,0
93360,note_on,0,0,1,,,,,,,,,0,,,62,0
93360,note_on,0,0,1,,,,,,,,,0,,,64,62
93360,note_on,0,0,1,,,,,,,,,0,,,67,62
93600,note_on,0,0,1,,,,,,,,,0,,,64,0
93600,note_on,0,0,1,,,,,,,,,0,,,65,62
93600,note_on,0,0,1,,,,,,,,,0,,,69,62
93600,note_on,1440,0,3,,,,,,,,,2,,,50,0
93600,note_on,240,0,1,,,,,,,,,0,,,67,0
93840,note_on,240,0,1,,,,,,,,,0,,,69,0
93840,note_on,0,0,1,,,,,,,,,0,,,65,0
93840,note_on,0,0,1,,,,,,,,,0,,,74,62
93840,note_on,0,0,1,,,,,,,,,0,,,77,62
94080,note_on,0,0,1,,,,,,,,,0,,,76,62
94080,note_on,240,0,1,,,,,,,,,0,,,77,0
94080,note_on,0,0,1,,,,,,,,,0,,,74,0
94080,note_on,0,0,1,,,,,,,,,0,,,79,62
94320,note_on,0,0,1,,,,,,,,,0,,,77,62
94320,note_on,0,0,1,,,,,,,,,0,,,76,0
94320,note_on,240,0,1,,,,,,,,,0,,,79,0
94320,note_on,0,0,1,,,,,,,,,0,,,81,62
94560,note_on,960,0,3,,,,,,,,,2,,,50,49
94560,note_on,240,0,1,,,,,,,,,0,,,81,0
94560,note_on,0,0,1,,,,,,,,,0,,,77,0
94800,note_on,240,0,3,,,,,,,,,2,,,50,0
94800,note_on,0,0,3,,,,,,,,,2,,,38,49
95040,note_on,0,0,3,,,,,,,,,2,,,50,49
95040,note_on,240,0,3,,,,,,,,,2,,,38,0
95280,note_on,720,0,1,,,,,,,,,0,,,57,62
95280,note_on,0,0,1,,,,,,,,,0,,,62,62
95520,note_on,240,0,1,,,,,,,,,0,,,62,0
95520,note_on,0,0,1,,,,,,,,,0,,,64,62
95520,note_on,0,0,1,,,,,,,,,0,,,57,0
95520,note_on,0,0,1,,,,,,,,,0,,,61,62
95760,note_on,240,0,1,,,,,,,,,0,,,64,0
95760,note_on,0,0,1,,,,,,,,,0,,,65,62
95760,note_on,0,0,1,,,,,,,,,0,,,62,62
95760,note_on,0,0,1,,,,,,,,,0,,,61,0
96000,note_on,0,0,1,,,,,,,,,0,,,69,62
96000,note_on,0,0,1,,,,,,,,,0,,,74,62
96000,note_on,0,0,1,,,,,,,,,0,,,62,0
96000,note_on,240,0,1,,,,,,,,,0,,,65,0
96240,note_on,0,0,1,,,,,,,,,0,,,69,0
96240,note_on,0,0,1,,,,,,,,,0,,,73,62
96240,note_on,0,0,1,,,,,,,,,0,,,76,62
96240,note_on,240,0,1,,,,,,,,,0,,,74,0
96480,note_on,1440,0,3,,,,,,,,,2,,,50,0
96480,note_on,0,0,1,,,,,,,,,0,,,73,0
96480,note_on,0,0,1,,,,,,,,,0,,,74,62
96480,note_on,0,0,1,,,,,,,,,0,,,77,62
96480,note_on,240,0,1,,,,,,,,,0,,,76,0
96720,note_on,240,0,1,,,,,,,,,0,,,77,0
96720,note_on,0,0,1,,,,,,,,,0,,,74,0
96720,note_on,0,0,1,,,,,,,,,0,,,81,62
96720,note_on,0,0,1,,,,,,,,,0,,,86,62
96960,note_on,240,0,1,,,,,,,,,0,,,86,0
96960,note_on,0,0,1,,,,,,,,,0,,,88,62
96960,note_on,0,0,1,,,,,,,,,0,,,85,62
96960,note_on,0,0,1,,,,,,,,,0,,,81,0
97200,note_on,0,0,1,,,,,,,,,0,,,86,62
97200,note_on,0,0,1,,,,,,,,,0,,,85,0
97200,note_on,0,0,1,,,,,,,,,0,,,89,62
97200,note_on,240,0,1,,,,,,,,,0,,,88,0
97440,note_on,0,0,1,,,,,,,,,0,,,86,0
97440,note_on,960,0,3,,,,,,,,,2,,,50,62
97440,note_on,240,0,1,,,,,,,,,0,,,89,0
97680,note_on,0,0,3,,,,,,,,,2,,,38,62
97680,note_on,240,0,3,,,,,,,,,2,,,50,0
97920,note_on,240,0,3,,,,,,,,,2,,,38,0
97920,control_change,0,0,3,,,,,,,,,2,64,127,,
97920,control_change,480,0,1,,,,,,,,,0,64,127,,
97920,note_on,0,0,3,,,,,,,,,2,,,50,62
98160,note_on,240,0,1,,,,,,,,,0,,,62,75
98160,note_on,0,0,1,,,,,,,,,0,,,65,75
98400,note_on,240,0,1,,,,,,,,,0,,,65,0
98400,note_on,0,0,1,,,,,,,,,0,,,64,75
98400,note_on,0,0,1,,,,,,,,,0,,,67,75
98400,note_on,0,0,1,,,,,,,,,0,,,62,0
98640,note_on,240,0,1,,,,,,,,,0,,,67,0
98640,note_on,0,0,1,,,,,,,,,0,,,69,75
98640,note_on,0,0,1,,,,,,,,,0,,,65,75
98640,note_on,0,0,1,,,,,,,,,0,,,64,0
98880,note_on,0,0,1,,,,,,,,,0,,,74,75
98880,note_on,0,0,1,,,,,,,,,0,,,65,0
98880,note_on,240,0,1,,,,,,,,,0,,,69,0
98880,note_on,0,0,1,,,,,,,,,0,,,77,75
99120,note_on,0,0,1,,,,,,,,,0,,,74,0
99120,note_on,0,0,1,,,,,,,,,0,,,79,75
99120,note_on,240,0,1,,,,,,,,,0,,,77,0
99120,note_on,0,0,1,,,,,,,,,0,,,76,75
99360,note_on,0,0,1,,,,,,,,,0,,,76,0
99360,note_on,0,0,1,,,,,,,,,0,,,77,75
99360,note_on,0,0,1,,,,,,,,,0,,,81,75
99360,note_on,1440,0,3,,,,,,,,,2,,,50,0
99360,note_on,240,0,1,,,,,,,,,0,,,79,0
99600,note_on,0,0,1,,,,,,,,,0,,,77,0
99600,note_on,0,0,1,,,,,,,,,0,,,89,75
99600,note_on,240,0,1,,,,,,,,,0,,,81,0
99600,note_on,0,0,1,,,,,,,,,0,,,86,75
99840,note_on,240,0,1,,,,,,,,,0,,,89,0
99840,note_on,0,0,1,,,,,,,,,0,,,88,75
99840,note_on,0,0,1,,,,,,,,,0,,,86,0
99840,note_on,0,0,1,,,,,,,,,0,,,91,75
100080,note_on,0,0,1,,,,,,,,,0,,,88,0
100080,note_on,0,0,1,,,,,,,,,0,,,93,75
100080,note_on,240,0,1,,,,,,,,,0,,,91,0
100080,note_on,0,0,1,,,,,,,,,0,,,89,75
100320,note_on,0,0,1,,,,,,,,,0,,,89,0
100320,note_on,240,0,1,,,,,,,,,0,,,93,0
100320,note_on,960,0,3,,,,,,,,,2,,,50,62
100560,note_on,0,0,3,,,,,,,,,2,,,38,62
100560,note_on,240,0,3,,,,,,,,,2,,,50,0
100800,note_on,240,0,3,,,,,,,,,2,,,38,0
100800,note_on,0,0,3,,,,,,,,,2,,,50,62
101040,note_on,720,0,1,,,,,,,,,0,,,69,88
101040,note_on,0,0,1,,,,,,,,,0,,,74,88
101280,note_on,0,0,1,,,,,,,,,0,,,76,88
101280,note_on,240,0,1,,,,,,,,,0,,,74,0
101280,note_on,0,0,1,,,,,,,,,0,,,73,88
101280,note_on,0,0,1,,,,,,,,,0,,,69,0
101520,note_on,0,0,1,,,,,,,,,0,,,77,88
101520,note_on,0,0,1,,,,,,,,,0,,,74,88
101520,note_on,0,0,1,,,,,,,,,0,,,73,0
101520,note_on,240,0,1,,,,,,,,,0,,,76,0
101760,note_on,0,0,1,,,,,,,,,0,,,86,88
101760,note_on,960,0,3,,,,,,,,,2,,,50,0
101760,note_on,0,0,1,,,,,,,,,0,,,74,0
101760,note_on,0,0,1,,,,,,,,,0,,,81,88
101760,note_on,240,0,1,,,,,,,,,0,,,77,0
102000,note_on,0,0,1,,,,,,,,,0,,,81,0
102000,note_on,0,0,1,,,,,,,,,0,,,85,88
102000,note_on,0,0,1,,,,,,,,,0,,,88,88
102000,note_on,240,0,1,,,,,,,,,0,,,86,0
102240,note_on,240,0,1,,,,,,,,,0,,,88,0
102240,note_on,0,0,1,,,,,,,,,0,,,89,88
102240,note_on,0,0,1,,,,,,,,,0,,,86,88
102240,note_on,0,0,1,,,,,,,,,0,,,85,0
102480,note_on,240,0,1,,,,,,,,,0,,,89,0
102480,note_on,0,0,1,,,,,,,,,0,,,86,0
102480,note_on,0,0,1,,,,,,,,,0,,,93,88
102480,note_on,0,0,1,,,,,,,,,0,,,98,88
102720,note_on,240,0,1,,,,,,,,,0,,,98,0
102720,note_on,0,0,1,,,,,,,,,0,,,93,0
102720,note_on,0,0,1,,,,,,,,,0,,,100,88
102720,note_on,0,0,1,,,,,,,,,0,,,97,88
102960,note_on,0,0,1,,,,,,,,,0,,,97,0
102960,note_on,0,0,1,,,,,,,,,0,,,98,88
102960,note_on,0,0,1,,,,,,,,,0,,,101,88
102960,note_on,240,0,1,,,,,,,,,0,,,100,0
103200,note_on,0,0,1,,,,,,,,,0,,,98,0
103200,note_on,240,0,1,,,,,,,,,0,,,101,0
103200,note_on,1440,0,3,,,,,,,,,2,,,50,75
103440,note_on,0,0,3,,,,,,,,,2,,,38,75
103440,note_on,240,0,3,,,,,,,,,2,,,50,0
103680,note_on,0,0,3,,,,,,,,,2,,,50,75
103680,note_on,240,0,3,,,,,,,,,2,,,38,0
103920,note_on,0,0,1,,,,,,,,,0,,,74,88
103920,note_on,720,0,1,,,,,,,,,0,,,69,88
104160,note_on,0,0,1,,,,,,,,,0,,,76,88
104160,note_on,0,0,1,,,,,,,,,0,,,73,88
104160,note_on,240,0,1,,,,,,,,,0,,,74,0
104160,note_on,0,0,1,,,,,,,,,0,,,69,0
104400,note_on,0,0,1,,,,,,,,,0,,,74,88
104400,note_on,0,0,1,,,,,,,,,0,,,77,88
104400,note_on,240,0,1,,,,,,,,,0,,,76,0
104400,note_on,0,0,1,,,,,,,,,0,,,73,0
104640,note_on,0,0,1,,,,,,,,,0,,,74,0
104640,note_on,960,0,3,,,,,,,,,2,,,50,0
104640,note_on,0,0,1,,,,,,,,,0,,,81,88
104640,note_on,0,0,1,,,,,,,,,0,,,86,88
104640,note_on,240,0,1,,,,,,,,,0,,,77,0
104880,note_on,240,0,1,,,,,,,,,0,,,86,0
104880,note_on,0,0,1,,,,,,,,,0,,,88,88
104880,note_on,0,0,1,,,,,,,,,0,,,85,88
104880,note_on,0,0,1,,,,,,,,,0,,,81,0
105120,note_on,0,0,1,,,,,,,,,0,,,85,0
105120,note_on,0,0,1,,,,,,,,,0,,,89,88
105120,note_on,240,0,1,,,,,,,,,0,,,88,0
105120,note_on,0,0,1,,,,,,,,,0,,,86,88
105360,note_on,0,0,1,,,,,,,,,0,,,86,0
105360,note_on,0,0,1,,,,,,,,,0,,,93,88
105360,note_on,0,0,1,,,,,,,,,0,,,98,88
105360,note_on,240,0,1,,,,,,,,,0,,,89,0
105600,note_on,0,0,1,,,,,,,,,0,,,93,0
105600,note_on,0,0,1,,,,,,,,,0,,,97,88
105600,note_on,0,0,1,,,,,,,,,0,,,100,88
105600,note_on,240,0,1,,,,,,,,,0,,,98,0
105840,note_on,240,0,1,,,,,,,,,0,,,100,0
105840,note_on,0,0,1,,,,,,,,,0,,,101,88
105840,note_on,0,0,1,,,,,,,,,0,,,98,88
105840,note_on,0,0,1,,,,,,,,,0,,,97,0
106080,note_on,1440,0,3,,,,,,,,,2,,,50,75
106080,note_on,0,0,1,,,,,,,,,0,,,98,0
106080,note_on,240,0,1,,,,,,,,,0,,,101,0
106320,note_on,240,0,3,,,,,,,,,2,,,50,0
106320,note_on,0,0,3,,,,,,,,,2,,,38,75
106560,note_on,240,0,3,,,,,,,,,2,,,38,0
106560,note_on,0,0,3,,,,,,,,,2,,,50,75
107040,note_on,480,0,3,,,,,,,,,2,,,50,0
108000,note_on,0,0,1,,,,,,,,,0,,,86,101
108000,note_on,0,0,1,,,,,,,,,0,,,81,101
108000,note_on,1920,0,1,,,,,,,,,0,,,74,101
108000,note_on,0,0,3,,,,,,,,,2,,,53,88
108000,note_on,0,0,3,,,,,,,,,2,,,57,88
108000,note_on,0,0,3,,,,,,,,,2,,,62,88
108000,note_on,960,0,3,,,,,,,,,2,,,50,88
108000,note_on,0,0,1,,,,,,,,,0,,,77,101
108480,note_on,0,0,3,,,,,,,,,2,,,57,0
108480,note_on,480,0,3,,,,,,,,,2,,,62,0
108480,note_on,0,0,3,,,,,,,,,2,,,53,0
108480,note_on,0,0,1,,,,,,,,,0,,,81,0
108480,note_on,0,0,1,,,,,,,,,0,,,74,0
108480,note_on,0,0,1,,,,,,,,,0,,,77,0
108480,note_on,480,0,1,,,,,,,,,0,,,86,0
108480,note_on,0,0,3,,,,,,,,,2,,,50,0
109440,control_change,960,0,1,,,,,,,,,0,64,0,,
109440,time_signature,109337,1,0,8,4,24,8,,,,,,,,,
109440,control_change,960,0,3,,,,,,,,,2,64,0,,
109440,end_of_track,0,1,0,,,,,,,,,,,,,
109440,note_on,0,0,3,,,,,,,,,2,,,38,88
109440,note_on,0,0,1,,,,,,,,,0,,,62,127
109440,note_on,0,0,3,,,,,,,,,2,,,50,88
110880,note_on,1440,0,1,,,,,,,,,0,,,62,0
110880,note_on,1440,0,3,,,,,,,,,2,,,50,0
110880,control_change,0,0,1,,,,,,,,,0,64,127,,
110880,note_on,0,0,3,,,,,,,,,2,,,38,0
110880,end_of_track,0,1,3,,,,,,,,,,,,,
112800,control_change,1920,0,1,,,,,,,,,0,64,0,,
112800,end_of_track,0,1,1,,,,,,,,,,,,,
