tick,type,time,meta,track,numerator,denominator,clocks_per_click,notated_32nd_notes_per_beat,key,tempo,control,value,channel,program,port,note,velocity
0,control_change,0,0,0,,,,,,,7,100,0,,,,
0,time_signature,0,1,0,6,8,24,8,,,,,,,,,
0,set_tempo,0,1,0,,,,,,800000,,,,,,,
0,program_change,0,0,0,,,,,,,,,0,0,,,
0,track_name,0,1,0,,,,,,,,,,,,,
0,note_on,0,0,1,,,,,,,,,0,,,53,49
0,note_on,0,0,1,,,,,,,,,0,,,53,49
0,note_on,0,0,1,,,,,,,,,0,,,53,0
0,midi_port,0,1,1,,,,,,,,,,,0,,
0,midi_port,0,1,0,,,,,,,,,,,0,,
0,key_signature,0,1,1,,,,,F,,,,,,,,
0,key_signature,0,1,0,,,,,F,,,,,,,,
0,track_name,0,1,1,,,,,,,,,,,,,
0,control_change,0,0,0,,,,,,,121,0,0,,,,
0,control_change,0,0,0,,,,,,,10,64,0,,,,
0,control_change,0,0,0,,,,,,,91,0,0,,,,
0,control_change,0,0,0,,,,,,,93,0,0,,,,
2,control_change,2,0,1,,,,,,,64,127,0,,,,
26,note_on,24,0,1,,,,,,,,,0,,,60,49
52,note_on,26,0,1,,,,,,,,,0,,,65,49
78,note_on,26,0,1,,,,,,,,,0,,,69,49
238,note_on,0,0,1,,,,,,,,,0,,,69,0
238,note_on,160,0,1,,,,,,,,,0,,,60,0
238,note_on,0,0,1,,,,,,,,,0,,,65,0
240,note_on,2,0,1,,,,,,,,,0,,,60,49
467,note_on,227,0,1,,,,,,,,,0,,,60,0
480,note_on,0,0,1,,,,,,,,,0,,,69,49
480,note_on,13,0,1,,,,,,,,,0,,,65,49
707,note_on,227,0,1,,,,,,,,,0,,,65,0
707,note_on,0,0,1,,,,,,,,,0,,,69,0
720,note_on,13,0,1,,,,,,,,,0,,,64,49
720,note_on,0,0,1,,,,,,,,,0,,,67,49
947,note_on,0,0,1,,,,,,,,,0,,,67,0
947,note_on,227,0,1,,,,,,,,,0,,,64,0
960,note_on,13,0,1,,,,,,,,,0,,,62,49
960,note_on,0,0,1,,,,,,,,,0,,,65,49
1187,note_on,0,0,1,,,,,,,,,0,,,65,0
1187,note_on,227,0,1,,,,,,,,,0,,,62,0
1200,note_on,0,0,1,,,,,,,,,0,,,53,0
1200,note_on,0,0,1,,,,,,,,,0,,,53,49
1200,note_on,0,0,1,,,,,,,,,0,,,53,49
1200,note_on,13,0,1,,,,,,,,,0,,,53,0
1440,note_on,240,0,1,,,,,,,,,0,,,62,49
1440,note_on,0,0,1,,,,,,,,,0,,,65,49
1667,note_on,0,0,1,,,,,,,,,0,,,65,0
1667,note_on,227,0,1,,,,,,,,,0,,,62,0
1680,note_on,0,0,1,,,,,,,,,0,,,64,49
1680,note_on,13,0,1,,,,,,,,,0,,,60,49
1907,note_on,0,0,1,,,,,,,,,0,,,64,0
1907,note_on,227,0,1,,,,,,,,,0,,,60,0
1920,note_on,13,0,1,,,,,,,,,0,,,58,49
1920,note_on,0,0,1,,,,,,,,,0,,,62,49
2111,note_on,191,0,1,,,,,,,,,0,,,53,0
2147,note_on,0,0,1,,,,,,,,,0,,,62,0
2147,note_on,36,0,1,,,,,,,,,0,,,58,0
2160,note_on,0,0,1,,,,,,,,,0,,,53,49
2160,note_on,0,0,1,,,,,,,,,0,,,53,0
2160,note_on,13,0,1,,,,,,,,,0,,,53,49
2400,note_on,0,0,1,,,,,,,,,0,,,62,49
2400,note_on,240,0,1,,,,,,,,,0,,,58,49
2627,note_on,227,0,1,,,,,,,,,0,,,58,0
2627,note_on,0,0,1,,,,,,,,,0,,,62,0
2640,note_on,0,0,1,,,,,,,,,0,,,60,49
2640,note_on,13,0,1,,,,,,,,,0,,,57,49
2843,note_on,203,0,1,,,,,,,,,0,,,53,0
2867,note_on,0,0,1,,,,,,,,,0,,,60,0
2867,note_on,24,0,1,,,,,,,,,0,,,57,0
2880,note_on,0,0,1,,,,,,,,,0,,,59,49
2880,note_on,13,0,1,,,,,,,,,0,,,56,49
2881,control_change,1,0,1,,,,,,,64,0,0,,,,
2882,control_change,1,0,1,,,,,,,64,127,0,,,,
3119,note_on,237,0,1,,,,,,,,,0,,,56,0
3120,note_on,1,0,1,,,,,,,,,0,,,55,49
3347,note_on,227,0,1,,,,,,,,,0,,,55,0
3360,note_on,13,0,1,,,,,,,,,0,,,50,49
3360,note_on,0,0,1,,,,,,,,,0,,,53,49
3587,note_on,0,0,1,,,,,,,,,0,,,53,0
3587,note_on,227,0,1,,,,,,,,,0,,,50,0
3599,note_on,12,0,1,,,,,,,,,0,,,59,0
3600,note_on,1,0,1,,,,,,,,,0,,,49,49
3600,note_on,0,0,1,,,,,,,,,0,,,53,49
3600,note_on,0,0,1,,,,,,,,,0,,,58,49
3827,note_on,0,0,1,,,,,,,,,0,,,53,0
3827,note_on,227,0,1,,,,,,,,,0,,,49,0
3840,note_on,0,0,1,,,,,,,,,0,,,52,49
3840,note_on,13,0,1,,,,,,,,,0,,,48,49
4055,note_on,215,0,1,,,,,,,,,0,,,58,0
4067,note_on,12,0,1,,,,,,,,,0,,,48,0
4067,note_on,0,0,1,,,,,,,,,0,,,52,0
4080,note_on,13,0,1,,,,,,,,,0,,,52,49
4080,note_on,0,0,1,,,,,,,,,0,,,55,49
4080,note_on,0,0,1,,,,,,,,,0,,,60,49
4307,note_on,227,0,1,,,,,,,,,0,,,52,0
4307,note_on,0,0,1,,,,,,,,,0,,,55,0
4307,note_on,0,0,1,,,,,,,,,0,,,60,0
4320,note_on,0,0,1,,,,,,,,,0,,,57,49
4320,note_on,13,0,1,,,,,,,,,0,,,53,49
4321,control_change,1,0,1,,,,,,,64,0,0,,,,
4322,control_change,1,0,1,,,,,,,64,127,0,,,,
4547,note_on,0,0,1,,,,,,,,,0,,,57,0
4547,note_on,225,0,1,,,,,,,,,0,,,53,0
4560,note_on,0,0,1,,,,,,,,,0,,,53,0
4560,note_on,0,0,1,,,,,,,,,0,,,53,49
4560,note_on,13,0,1,,,,,,,,,0,,,53,49
4800,note_on,0,0,1,,,,,,,,,0,,,69,49
4800,note_on,240,0,1,,,,,,,,,0,,,65,49
5027,note_on,0,0,1,,,,,,,,,0,,,69,0
5027,note_on,227,0,1,,,,,,,,,0,,,65,0
5040,note_on,5040,0,0,,,,,,,,,0,,,69,58
5040,note_on,0,0,0,,,,,,,,,0,,,81,58
5040,note_on,13,0,1,,,,,,,,,0,,,64,49
5040,note_on,0,0,1,,,,,,,,,0,,,67,49
5267,note_on,0,0,1,,,,,,,,,0,,,67,0
5267,note_on,227,0,1,,,,,,,,,0,,,64,0
5280,note_on,13,0,1,,,,,,,,,0,,,62,49
5280,note_on,0,0,1,,,,,,,,,0,,,65,49
5471,note_on,191,0,1,,,,,,,,,0,,,53,0
5507,note_on,36,0,1,,,,,,,,,0,,,62,0
5507,note_on,0,0,1,,,,,,,,,0,,,65,0
5520,note_on,0,0,1,,,,,,,,,0,,,53,0
5520,note_on,13,0,1,,,,,,,,,0,,,53,49
5520,note_on,0,0,1,,,,,,,,,0,,,53,49
5760,note_on,0,0,1,,,,,,,,,0,,,65,49
5760,note_on,240,0,1,,,,,,,,,0,,,62,49
5987,note_on,227,0,1,,,,,,,,,0,,,62,0
5987,note_on,0,0,1,,,,,,,,,0,,,65,0
6000,note_on,0,0,1,,,,,,,,,0,,,64,49
6000,note_on,13,0,1,,,,,,,,,0,,,60,49
6227,note_on,227,0,1,,,,,,,,,0,,,60,0
6227,note_on,0,0,1,,,,,,,,,0,,,64,0
6240,note_on,0,0,1,,,,,,,,,0,,,62,49
6240,note_on,13,0,1,,,,,,,,,0,,,58,49
6241,note_on,1201,0,0,,,,,,,,,0,,,69,0
6241,note_on,0,0,0,,,,,,,,,0,,,81,0
6431,note_on,191,0,1,,,,,,,,,0,,,53,0
6467,note_on,0,0,1,,,,,,,,,0,,,62,0
6467,note_on,36,0,1,,,,,,,,,0,,,58,0
6480,note_on,13,0,1,,,,,,,,,0,,,53,49
6480,note_on,0,0,1,,,,,,,,,0,,,53,0
6480,note_on,0,0,1,,,,,,,,,0,,,53,49
6480,note_on,0,0,0,,,,,,,,,0,,,82,49
6480,note_on,239,0,0,,,,,,,,,0,,,70,49
6720,note_on,0,0,1,,,,,,,,,0,,,62,49
6720,note_on,240,0,1,,,,,,,,,0,,,58,49
6947,note_on,227,0,1,,,,,,,,,0,,,58,0
6947,note_on,0,0,1,,,,,,,,,0,,,62,0
6959,note_on,479,0,0,,,,,,,,,0,,,70,0
6959,note_on,0,0,0,,,,,,,,,0,,,82,0
6960,note_on,1,0,0,,,,,,,,,0,,,72,49
6960,note_on,13,0,1,,,,,,,,,0,,,57,49
6960,note_on,0,0,1,,,,,,,,,0,,,60,49
6960,note_on,0,0,0,,,,,,,,,0,,,84,49
7163,note_on,203,0,1,,,,,,,,,0,,,53,0
7187,note_on,24,0,1,,,,,,,,,0,,,57,0
7187,note_on,0,0,1,,,,,,,,,0,,,60,0
7199,note_on,239,0,0,,,,,,,,,0,,,72,0
7199,note_on,0,0,0,,,,,,,,,0,,,84,0
7200,note_on,0,0,1,,,,,,,,,0,,,59,49
7200,note_on,0,0,0,,,,,,,,,0,,,86,49
7200,note_on,1,0,0,,,,,,,,,0,,,74,49
7200,note_on,13,0,1,,,,,,,,,0,,,56,49
7201,control_change,1,0,1,,,,,,,64,0,0,,,,
7202,control_change,1,0,1,,,,,,,64,127,0,,,,
7427,note_on,225,0,1,,,,,,,,,0,,,56,0
7440,note_on,13,0,1,,,,,,,,,0,,,55,51
7667,note_on,227,0,1,,,,,,,,,0,,,55,0
7679,note_on,0,0,0,,,,,,,,,0,,,86,0
7679,note_on,479,0,0,,,,,,,,,0,,,74,0
7680,note_on,0,0,0,,,,,,,,,0,,,89,54
7680,note_on,0,0,1,,,,,,,,,0,,,53,54
7680,note_on,1,0,0,,,,,,,,,0,,,77,54
7680,note_on,13,0,1,,,,,,,,,0,,,50,54
7883,note_on,203,0,1,,,,,,,,,0,,,59,0
7907,note_on,24,0,1,,,,,,,,,0,,,50,0
7907,note_on,0,0,1,,,,,,,,,0,,,53,0
7919,note_on,0,0,0,,,,,,,,,0,,,89,0
7919,note_on,239,0,0,,,,,,,,,0,,,77,0
7920,note_on,0,0,1,,,,,,,,,0,,,58,56
7920,note_on,1,0,0,,,,,,,,,0,,,76,56
7920,note_on,0,0,1,,,,,,,,,0,,,55,56
7920,note_on,13,0,1,,,,,,,,,0,,,49,56
7920,note_on,0,0,0,,,,,,,,,0,,,88,56
8147,note_on,227,0,1,,,,,,,,,0,,,49,0
8160,note_on,13,0,1,,,,,,,,,0,,,48,59
8375,note_on,215,0,1,,,,,,,,,0,,,55,0
8375,note_on,0,0,1,,,,,,,,,0,,,58,0
8387,note_on,12,0,1,,,,,,,,,0,,,48,0
8399,note_on,479,0,0,,,,,,,,,0,,,76,0
8399,note_on,0,0,0,,,,,,,,,0,,,88,0
8400,note_on,13,0,1,,,,,,,,,0,,,52,61
8400,note_on,0,0,1,,,,,,,,,0,,,60,61
8400,note_on,0,0,0,,,,,,,,,0,,,91,61
8400,note_on,1,0,0,,,,,,,,,0,,,79,61
8627,note_on,0,0,1,,,,,,,,,0,,,60,0
8627,note_on,227,0,1,,,,,,,,,0,,,52,0
8639,note_on,239,0,0,,,,,,,,,0,,,79,0
8639,note_on,0,0,0,,,,,,,,,0,,,91,0
8640,note_on,13,0,1,,,,,,,,,0,,,53,64
8640,note_on,0,0,1,,,,,,,,,0,,,57,64
8640,note_on,0,0,0,,,,,,,,,0,,,93,64
8640,note_on,1,0,0,,,,,,,,,0,,,81,64
8641,control_change,1,0,1,,,,,,,64,0,0,,,,
8642,control_change,1,0,1,,,,,,,64,127,0,,,,
8867,note_on,0,0,1,,,,,,,,,0,,,57,0
8867,note_on,225,0,1,,,,,,,,,0,,,53,0
8880,note_on,13,0,1,,,,,,,,,0,,,45,64
8880,note_on,0,0,1,,,,,,,,,0,,,45,64
8880,note_on,0,0,1,,,,,,,,,0,,,45,0
9120,note_on,0,0,1,,,,,,,,,0,,,57,64
9120,note_on,240,0,1,,,,,,,,,0,,,53,64
9323,note_on,683,0,0,,,,,,,,,0,,,81,0
9323,note_on,0,0,0,,,,,,,,,0,,,93,0
9347,note_on,227,0,1,,,,,,,,,0,,,53,0
9347,note_on,0,0,1,,,,,,,,,0,,,57,0
9360,note_on,37,0,0,,,,,,,,,0,,,81,64
9360,note_on,0,0,1,,,,,,,,,0,,,55,64
9360,note_on,0,0,0,,,,,,,,,0,,,93,64
9360,note_on,13,0,1,,,,,,,,,0,,,52,64
9587,note_on,0,0,1,,,,,,,,,0,,,55,0
9587,note_on,227,0,1,,,,,,,,,0,,,52,0
9600,note_on,0,0,1,,,,,,,,,0,,,53,59
9600,note_on,13,0,1,,,,,,,,,0,,,50,59
9791,note_on,191,0,1,,,,,,,,,0,,,45,0
9827,note_on,0,0,1,,,,,,,,,0,,,53,0
9827,note_on,36,0,1,,,,,,,,,0,,,50,0
9840,note_on,0,0,1,,,,,,,,,0,,,45,54
9840,note_on,0,0,1,,,,,,,,,0,,,45,0
9840,note_on,13,0,1,,,,,,,,,0,,,45,54
10067,note_on,227,0,1,,,,,,,,,0,,,45,0
10080,note_on,0,0,1,,,,,,,,,0,,,52,49
10080,note_on,0,0,1,,,,,,,,,0,,,49,49
10080,note_on,13,0,1,,,,,,,,,0,,,45,49
10081,control_change,1,0,1,,,,,,,64,0,0,,,,
10082,control_change,1,0,1,,,,,,,64,127,0,,,,
10307,note_on,225,0,1,,,,,,,,,0,,,45,0
10307,note_on,0,0,1,,,,,,,,,0,,,49,0
10307,note_on,0,0,1,,,,,,,,,0,,,52,0
10320,note_on,13,0,1,,,,,,,,,0,,,45,50
10320,note_on,0,0,1,,,,,,,,,0,,,45,50
10320,note_on,0,0,1,,,,,,,,,0,,,45,0
10559,note_on,1199,0,0,,,,,,,,,0,,,81,0
10559,note_on,0,0,0,,,,,,,,,0,,,93,0
10560,note_on,0,0,1,,,,,,,,,0,,,58,51
10560,note_on,1,0,0,,,,,,,,,0,,,81,51
10560,note_on,0,0,0,,,,,,,,,0,,,93,51
10560,note_on,240,0,1,,,,,,,,,0,,,55,51
10787,note_on,0,0,1,,,,,,,,,0,,,58,0
10787,note_on,227,0,1,,,,,,,,,0,,,55,0
10799,note_on,239,0,0,,,,,,,,,0,,,81,0
10799,note_on,0,0,0,,,,,,,,,0,,,93,0
10800,note_on,13,0,1,,,,,,,,,0,,,53,52
10800,note_on,0,0,1,,,,,,,,,0,,,57,52
10800,note_on,1,0,0,,,,,,,,,0,,,83,52
10800,note_on,0,0,0,,,,,,,,,0,,,95,52
11027,note_on,227,0,1,,,,,,,,,0,,,53,0
11027,note_on,0,0,1,,,,,,,,,0,,,57,0
11040,note_on,0,0,1,,,,,,,,,0,,,55,54
11040,note_on,13,0,1,,,,,,,,,0,,,52,54
11231,note_on,191,0,1,,,,,,,,,0,,,45,0
11267,note_on,36,0,1,,,,,,,,,0,,,52,0
11267,note_on,0,0,1,,,,,,,,,0,,,55,0
11279,note_on,0,0,0,,,,,,,,,0,,,95,0
11279,note_on,479,0,0,,,,,,,,,0,,,83,0
11280,note_on,0,0,1,,,,,,,,,0,,,45,0
11280,note_on,0,0,1,,,,,,,,,0,,,45,55
11280,note_on,1,0,0,,,,,,,,,0,,,85,55
11280,note_on,0,0,0,,,,,,,,,0,,,97,55
11280,note_on,13,0,1,,,,,,,,,0,,,45,55
11507,note_on,227,0,1,,,,,,,,,0,,,45,0
11519,note_on,0,0,0,,,,,,,,,0,,,97,0
11519,note_on,239,0,0,,,,,,,,,0,,,85,0
11520,note_on,13,0,1,,,,,,,,,0,,,50,56
11520,note_on,0,0,1,,,,,,,,,0,,,53,56
11520,note_on,1,0,0,,,,,,,,,0,,,86,56
11520,note_on,0,0,0,,,,,,,,,0,,,98,56
11521,control_change,1,0,1,,,,,,,64,0,0,,,,
11522,control_change,1,0,1,,,,,,,64,127,0,,,,
11747,note_on,0,0,1,,,,,,,,,0,,,53,0
11747,note_on,225,0,1,,,,,,,,,0,,,50,0
11760,note_on,13,0,1,,,,,,,,,0,,,38,57
11987,note_on,227,0,1,,,,,,,,,0,,,38,0
11999,note_on,479,0,0,,,,,,,,,0,,,86,0
11999,note_on,0,0,0,,,,,,,,,0,,,98,0
12000,note_on,1,0,0,,,,,,,,,0,,,88,59
12000,note_on,0,0,0,,,,,,,,,0,,,100,59
12000,note_on,13,0,1,,,,,,,,,0,,,55,59
12227,note_on,227,0,1,,,,,,,,,0,,,55,0
12239,note_on,239,0,0,,,,,,,,,0,,,88,0
12239,note_on,0,0,0,,,,,,,,,0,,,100,0
12240,note_on,1,0,0,,,,,,,,,0,,,89,60
12240,note_on,13,0,1,,,,,,,,,0,,,57,60
12240,note_on,0,0,0,,,,,,,,,0,,,101,60
12480,note_on,240,0,1,,,,,,,,,0,,,50,61
12707,note_on,227,0,1,,,,,,,,,0,,,50,0
12720,note_on,13,0,1,,,,,,,,,0,,,48,62
12947,note_on,227,0,1,,,,,,,,,0,,,48,0
12960,set_tempo,720,1,0,,,,,,857140,,,,,,,
12960,note_on,13,0,1,,,,,,,,,0,,,47,64
13151,note_on,191,0,1,,,,,,,,,0,,,57,0
13200,note_on,49,0,1,,,,,,,,,0,,,56,62
13427,note_on,227,0,1,,,,,,,,,0,,,56,0
13439,note_on,0,0,0,,,,,,,,,0,,,101,0
13439,note_on,479,0,0,,,,,,,,,0,,,89,0
13440,note_on,1,0,0,,,,,,,,,0,,,88,59
13440,note_on,13,0,1,,,,,,,,,0,,,55,59
13440,note_on,0,0,0,,,,,,,,,0,,,100,59
13643,note_on,203,0,1,,,,,,,,,0,,,47,0
13667,note_on,24,0,1,,,,,,,,,0,,,55,0
13679,note_on,0,0,0,,,,,,,,,0,,,100,0
13679,note_on,239,0,0,,,,,,,,,0,,,88,0
13680,note_on,0,0,0,,,,,,,,,0,,,98,57
13680,note_on,0,0,0,,,,,,,,,0,,,86,57
13680,note_on,0,0,1,,,,,,,,,0,,,53,57
13680,note_on,13,0,1,,,,,,,,,0,,,43,57
13680,set_tempo,1,1,0,,,,,,923077,,,,,,,
13713,note_on,33,0,1,,,,,,,,,0,,,47,57
13907,note_on,0,0,0,,,,,,,,,0,,,98,0
13907,note_on,227,0,0,,,,,,,,,0,,,86,0
13907,note_on,194,0,1,,,,,,,,,0,,,53,0
13920,note_on,13,0,0,,,,,,,,,0,,,88,54
13920,note_on,13,0,1,,,,,,,,,0,,,55,54
13920,note_on,0,0,0,,,,,,,,,0,,,100,54
14147,note_on,227,0,1,,,,,,,,,0,,,55,0
14160,note_on,13,0,1,,,,,,,,,0,,,53,52
14261,note_on,341,0,0,,,,,,,,,0,,,88,0
14261,note_on,0,0,0,,,,,,,,,0,,,100,0
14280,note_on,0,0,0,,,,,,,,,0,,,86,51
14280,note_on,0,0,0,,,,,,,,,0,,,98,51
14280,set_tempo,19,1,0,,,,,,1000000,,,,,,,
14387,note_on,227,0,1,,,,,,,,,0,,,53,0
14393,note_on,0,0,0,,,,,,,,,0,,,98,0
14393,note_on,113,0,0,,,,,,,,,0,,,86,0
14398,note_on,11,0,1,,,,,,,,,0,,,47,0
14399,note_on,1,0,1,,,,,,,,,0,,,43,0
14400,note_on,7,0,0,,,,,,,,,0,,,84,49
14400,note_on,0,0,0,,,,,,,,,0,,,96,49
14400,note_on,1,0,1,,,,,,,,,0,,,36,49
14400,note_on,0,0,1,,,,,,,,,0,,,52,49
14401,control_change,1,0,1,,,,,,,64,0,0,,,,
14402,control_change,1,0,1,,,,,,,64,127,0,,,,
14627,note_on,225,0,1,,,,,,,,,0,,,52,0
14639,note_on,12,0,1,,,,,,,,,0,,,36,0
14640,note_on,1,0,1,,,,,,,,,0,,,55,49
14640,set_tempo,240,1,0,,,,,,857143,,,,,,,
14640,note_on,0,0,1,,,,,,,,,0,,,58,49
14855,note_on,0,0,0,,,,,,,,,0,,,96,0
14855,note_on,215,0,0,,,,,,,,,0,,,84,0
14867,note_on,0,0,1,,,,,,,,,0,,,58,0
14867,note_on,227,0,1,,,,,,,,,0,,,55,0
14880,note_on,0,0,1,,,,,,,,,0,,,57,56
14880,note_on,13,0,1,,,,,,,,,0,,,54,56
14880,set_tempo,25,1,0,,,,,,800000,,,,,,,
15107,note_on,0,0,1,,,,,,,,,0,,,57,0
15107,note_on,227,0,1,,,,,,,,,0,,,54,0
15120,note_on,13,0,1,,,,,,,,,0,,,58,64
15120,note_on,0,0,1,,,,,,,,,0,,,62,64
15360,note_on,240,0,1,,,,,,,,,0,,,55,64
15587,note_on,227,0,1,,,,,,,,,0,,,55,0
15600,note_on,13,0,1,,,,,,,,,0,,,53,64
15827,note_on,227,0,1,,,,,,,,,0,,,53,0
15840,note_on,13,0,1,,,,,,,,,0,,,52,64
16031,note_on,0,0,1,,,,,,,,,0,,,62,0
16031,note_on,191,0,1,,,,,,,,,0,,,58,0
16080,note_on,49,0,1,,,,,,,,,0,,,58,62
16080,note_on,0,0,1,,,,,,,,,0,,,61,62
16307,note_on,0,0,1,,,,,,,,,0,,,61,0
16307,note_on,227,0,1,,,,,,,,,0,,,58,0
16320,note_on,13,0,1,,,,,,,,,0,,,57,59
16320,note_on,0,0,1,,,,,,,,,0,,,60,59
16523,note_on,203,0,1,,,,,,,,,0,,,52,0
16547,note_on,0,0,1,,,,,,,,,0,,,60,0
16547,note_on,24,0,1,,,,,,,,,0,,,57,0
16560,set_tempo,1680,1,0,,,,,,923077,,,,,,,
16560,note_on,0,0,1,,,,,,,,,0,,,52,57
16560,note_on,0,0,1,,,,,,,,,0,,,56,57
16560,note_on,0,0,1,,,,,,,,,0,,,59,57
16560,note_on,13,0,1,,,,,,,,,0,,,48,57
16787,note_on,227,0,1,,,,,,,,,0,,,56,0
16787,note_on,0,0,1,,,,,,,,,0,,,59,0
16800,note_on,0,0,1,,,,,,,,,0,,,60,54
16800,note_on,13,0,1,,,,,,,,,0,,,57,54
16800,set_tempo,240,1,0,,,,,,1000000,,,,,,,
17027,note_on,227,0,1,,,,,,,,,0,,,57,0
17027,note_on,0,0,1,,,,,,,,,0,,,60,0
17040,note_on,0,0,1,,,,,,,,,0,,,58,52
17040,note_on,13,0,1,,,,,,,,,0,,,55,52
17243,note_on,0,0,1,,,,,,,,,0,,,52,0
17243,note_on,203,0,1,,,,,,,,,0,,,48,0
17267,note_on,24,0,1,,,,,,,,,0,,,55,0
17267,note_on,0,0,1,,,,,,,,,0,,,58,0
17280,note_on,480,0,0,,,,,,,,,0,,,77,49
17280,note_on,0,0,1,,,,,,,,,0,,,57,49
17280,note_on,13,0,1,,,,,,,,,0,,,53,49
17281,control_change,1,0,1,,,,,,,64,0,0,,,,
17282,control_change,1,0,1,,,,,,,64,127,0,,,,
17300,note_on,20,0,0,,,,,,,,,0,,,84,49
17322,note_on,22,0,0,,,,,,,,,0,,,89,49
17342,note_on,20,0,0,,,,,,,,,0,,,93,49
17518,note_on,176,0,0,,,,,,,,,0,,,84,0
17518,note_on,0,0,0,,,,,,,,,0,,,93,0
17519,note_on,0,0,0,,,,,,,,,0,,,89,0
17519,note_on,1,0,0,,,,,,,,,0,,,77,0
17520,note_on,0,0,0,,,,,,,,,0,,,81,49
17520,set_tempo,1,1,0,,,,,,857143,,,,,,,
17735,note_on,0,0,1,,,,,,,,,0,,,57,0
17735,note_on,453,0,1,,,,,,,,,0,,,53,0
17759,note_on,239,0,0,,,,,,,,,0,,,81,0
17760,note_on,0,0,0,,,,,,,,,0,,,93,49
17760,set_tempo,1,1,0,,,,,,800000,,,,,,,
17760,note_on,0,0,0,,,,,,,,,0,,,89,49
17999,note_on,239,0,0,,,,,,,,,0,,,89,0
17999,note_on,0,0,0,,,,,,,,,0,,,93,0
18000,note_on,265,0,1,,,,,,,,,0,,,41,49
18000,note_on,0,0,1,,,,,,,,,0,,,57,49
18000,note_on,1,0,0,,,,,,,,,0,,,88,49
18000,note_on,0,0,0,,,,,,,,,0,,,91,49
18239,note_on,0,0,0,,,,,,,,,0,,,91,0
18239,note_on,239,0,0,,,,,,,,,0,,,88,0
18239,note_on,239,0,1,,,,,,,,,0,,,41,0
18240,note_on,0,0,0,,,,,,,,,0,,,89,49
18240,note_on,1,0,0,,,,,,,,,0,,,86,49
18479,note_on,0,0,0,,,,,,,,,0,,,89,0
18479,note_on,239,0,0,,,,,,,,,0,,,86,0
18480,note_on,1,0,0,,,,,,,,,0,,,77,49
18719,note_on,239,0,0,,,,,,,,,0,,,77,0
18720,note_on,0,0,0,,,,,,,,,0,,,89,49
18720,note_on,1,0,0,,,,,,,,,0,,,86,49
18959,note_on,239,0,0,,,,,,,,,0,,,86,0
18959,note_on,0,0,0,,,,,,,,,0,,,89,0
18960,note_on,0,0,0,,,,,,,,,0,,,88,49
18960,note_on,1,0,0,,,,,,,,,0,,,84,49
19199,note_on,239,0,0,,,,,,,,,0,,,84,0
19199,note_on,0,0,0,,,,,,,,,0,,,88,0
19200,note_on,0,0,0,,,,,,,,,0,,,86,49
19200,note_on,1,0,0,,,,,,,,,0,,,82,49
19439,note_on,1200,0,1,,,,,,,,,0,,,57,0
19439,note_on,239,0,0,,,,,,,,,0,,,82,0
19439,note_on,0,0,0,,,,,,,,,0,,,86,0
19440,note_on,0,0,1,,,,,,,,,0,,,58,49
19440,note_on,0,0,0,,,,,,,,,0,,,77,49
19440,note_on,1,0,1,,,,,,,,,0,,,53,49
19440,note_on,1,0,0,,,,,,,,,0,,,74,49
19679,note_on,239,0,1,,,,,,,,,0,,,53,0
19679,note_on,239,0,0,,,,,,,,,0,,,74,0
19679,note_on,0,0,0,,,,,,,,,0,,,77,0
19680,note_on,1,0,0,,,,,,,,,0,,,82,49
19680,note_on,0,0,0,,,,,,,,,0,,,86,49
19919,note_on,240,0,1,,,,,,,,,0,,,58,0
19919,note_on,0,0,0,,,,,,,,,0,,,86,0
19919,note_on,239,0,0,,,,,,,,,0,,,82,0
19920,note_on,1,0,0,,,,,,,,,0,,,81,49
19920,note_on,0,0,0,,,,,,,,,0,,,84,49
19920,note_on,1,0,1,,,,,,,,,0,,,60,49
20147,note_on,227,0,1,,,,,,,,,0,,,60,0
20159,note_on,239,0,0,,,,,,,,,0,,,81,0
20159,note_on,0,0,0,,,,,,,,,0,,,84,0
20160,note_on,0,0,1,,,,,,,,,0,,,62,49
20160,note_on,1,0,0,,,,,,,,,0,,,77,49
20160,note_on,13,0,1,,,,,,,,,0,,,56,49
20160,note_on,0,0,0,,,,,,,,,0,,,83,49
20161,control_change,1,0,1,,,,,,,64,0,0,,,,
20162,control_change,1,0,1,,,,,,,64,127,0,,,,
20399,note_on,239,0,0,,,,,,,,,0,,,77,0
20399,note_on,237,0,1,,,,,,,,,0,,,56,0
20400,note_on,1,0,0,,,,,,,,,0,,,74,49
20639,note_on,0,0,0,,,,,,,,,0,,,74,0
20639,note_on,240,0,1,,,,,,,,,0,,,62,0
20639,note_on,239,0,0,,,,,,,,,0,,,83,0
20640,note_on,1,0,1,,,,,,,,,0,,,55,49
20640,note_on,0,0,1,,,,,,,,,0,,,65,49
20640,note_on,1,0,0,,,,,,,,,0,,,71,49
20640,note_on,0,0,0,,,,,,,,,0,,,79,49
20879,note_on,239,0,1,,,,,,,,,0,,,55,0
20879,note_on,239,0,0,,,,,,,,,0,,,71,0
20879,note_on,0,0,1,,,,,,,,,0,,,65,0
20879,note_on,0,0,0,,,,,,,,,0,,,79,0
20880,note_on,1,0,0,,,,,,,,,0,,,73,49
20880,note_on,0,0,0,,,,,,,,,0,,,79,49
20880,note_on,0,0,1,,,,,,,,,0,,,64,49
20880,note_on,0,0,0,,,,,,,,,0,,,82,49
20880,note_on,1,0,1,,,,,,,,,0,,,48,49
21119,note_on,239,0,0,,,,,,,,,0,,,73,0
21119,note_on,239,0,1,,,,,,,,,0,,,48,0
21120,note_on,1,0,0,,,,,,,,,0,,,72,49
21359,note_on,240,0,1,,,,,,,,,0,,,64,0
21359,note_on,0,0,0,,,,,,,,,0,,,72,0
21359,note_on,0,0,0,,,,,,,,,0,,,82,0
21359,note_on,239,0,0,,,,,,,,,0,,,79,0
21360,note_on,1,0,0,,,,,,,,,0,,,70,49
21360,note_on,0,0,0,,,,,,,,,0,,,76,49
21360,note_on,0,0,0,,,,,,,,,0,,,84,49
21360,note_on,1,0,1,,,,,,,,,0,,,67,49
21587,note_on,0,0,0,,,,,,,,,0,,,84,0
21587,note_on,0,0,0,,,,,,,,,0,,,76,0
21587,note_on,227,0,0,,,,,,,,,0,,,70,0
21599,note_on,239,0,1,,,,,,,,,0,,,67,0
21600,note_on,13,0,0,,,,,,,,,0,,,77,49
21600,note_on,1,0,1,,,,,,,,,0,,,53,49
21600,note_on,0,0,1,,,,,,,,,0,,,69,49
21600,note_on,0,0,0,,,,,,,,,0,,,81,49
21601,control_change,1,0,1,,,,,,,64,0,0,,,,
21602,control_change,1,0,1,,,,,,,64,127,0,,,,
21827,note_on,225,0,1,,,,,,,,,0,,,53,0
21827,note_on,0,0,1,,,,,,,,,0,,,69,0
21839,note_on,239,0,0,,,,,,,,,0,,,77,0
21839,note_on,0,0,0,,,,,,,,,0,,,81,0
21840,note_on,1,0,0,,,,,,,,,0,,,69,49
22079,note_on,239,0,0,,,,,,,,,0,,,69,0
22080,note_on,0,0,0,,,,,,,,,0,,,81,49
22080,note_on,1,0,0,,,,,,,,,0,,,77,49
22319,note_on,239,0,0,,,,,,,,,0,,,77,0
22319,note_on,0,0,0,,,,,,,,,0,,,81,0
22320,note_on,493,0,1,,,,,,,,,0,,,41,49
22320,note_on,0,0,1,,,,,,,,,0,,,57,49
22320,note_on,0,0,0,,,,,,,,,0,,,79,49
22320,note_on,1,0,0,,,,,,,,,0,,,76,49
22559,note_on,0,0,0,,,,,,,,,0,,,79,0
22559,note_on,239,0,1,,,,,,,,,0,,,41,0
22559,note_on,239,0,0,,,,,,,,,0,,,76,0
22560,note_on,0,0,0,,,,,,,,,0,,,77,49
22560,note_on,1,0,0,,,,,,,,,0,,,74,49
22799,note_on,0,0,0,,,,,,,,,0,,,77,0
22799,note_on,239,0,0,,,,,,,,,0,,,74,0
22800,note_on,1,0,0,,,,,,,,,0,,,65,49
23039,note_on,239,0,0,,,,,,,,,0,,,65,0
23040,note_on,0,0,0,,,,,,,,,0,,,77,49
23040,note_on,1,0,0,,,,,,,,,0,,,74,49
23279,note_on,0,0,0,,,,,,,,,0,,,77,0
23279,note_on,239,0,0,,,,,,,,,0,,,74,0
23280,note_on,1,0,0,,,,,,,,,0,,,72,49
23280,note_on,0,0,0,,,,,,,,,0,,,76,49
23519,note_on,0,0,0,,,,,,,,,0,,,76,0
23519,note_on,239,0,0,,,,,,,,,0,,,72,0
23520,note_on,0,0,0,,,,,,,,,0,,,74,49
23520,note_on,1,0,0,,,,,,,,,0,,,70,49
23759,note_on,0,0,0,,,,,,,,,0,,,74,0
23759,note_on,1200,0,1,,,,,,,,,0,,,57,0
23759,note_on,239,0,0,,,,,,,,,0,,,70,0
23760,note_on,1,0,0,,,,,,,,,0,,,62,49
23760,note_on,0,0,0,,,,,,,,,0,,,65,49
23760,note_on,0,0,1,,,,,,,,,0,,,58,49
23760,note_on,1,0,1,,,,,,,,,0,,,53,49
23999,note_on,239,0,1,,,,,,,,,0,,,53,0
23999,note_on,239,0,0,,,,,,,,,0,,,62,0
23999,note_on,0,0,0,,,,,,,,,0,,,65,0
24000,note_on,1,0,0,,,,,,,,,0,,,70,49
24000,note_on,0,0,0,,,,,,,,,0,,,74,49
24239,note_on,239,0,0,,,,,,,,,0,,,70,0
24239,note_on,0,0,0,,,,,,,,,0,,,74,0
24239,note_on,240,0,1,,,,,,,,,0,,,58,0
24240,note_on,0,0,0,,,,,,,,,0,,,72,49
24240,note_on,1,0,1,,,,,,,,,0,,,60,49
24240,note_on,1,0,0,,,,,,,,,0,,,69,49
24479,note_on,239,0,0,,,,,,,,,0,,,69,0
24479,note_on,239,0,1,,,,,,,,,0,,,60,0
24479,note_on,0,0,0,,,,,,,,,0,,,72,0
24480,note_on,1,0,1,,,,,,,,,0,,,56,49
24480,note_on,0,0,0,,,,,,,,,0,,,71,49
24480,note_on,0,0,1,,,,,,,,,0,,,62,49
24480,note_on,1,0,0,,,,,,,,,0,,,65,49
24481,control_change,1,0,1,,,,,,,64,0,0,,,,
24482,control_change,1,0,1,,,,,,,64,127,0,,,,
24719,note_on,237,0,1,,,,,,,,,0,,,56,0
24719,note_on,239,0,0,,,,,,,,,0,,,65,0
24720,note_on,1,0,0,,,,,,,,,0,,,62,49
24720,note_on,1,0,1,,,,,,,,,0,,,62,0
24720,note_on,0,0,1,,,,,,,,,0,,,55,49
24959,note_on,0,0,0,,,,,,,,,0,,,62,0
24959,note_on,239,0,0,,,,,,,,,0,,,71,0
24959,note_on,239,0,1,,,,,,,,,0,,,55,0
24960,note_on,1,0,0,,,,,,,,,0,,,59,49
24960,note_on,1,0,1,,,,,,,,,0,,,50,49
24960,note_on,0,0,0,,,,,,,,,0,,,67,49
24960,note_on,0,0,1,,,,,,,,,0,,,53,49
25187,note_on,227,0,1,,,,,,,,,0,,,50,0
25187,note_on,0,0,1,,,,,,,,,0,,,53,0
25199,note_on,239,0,0,,,,,,,,,0,,,59,0
25199,note_on,0,0,0,,,,,,,,,0,,,67,0
25200,note_on,1,0,0,,,,,,,,,0,,,67,49
25200,note_on,0,0,1,,,,,,,,,0,,,52,49
25200,note_on,0,0,0,,,,,,,,,0,,,70,49
25200,note_on,13,0,1,,,,,,,,,0,,,49,49
25439,note_on,239,0,1,,,,,,,,,0,,,52,0
25439,note_on,239,0,0,,,,,,,,,0,,,67,0
25440,note_on,1,0,1,,,,,,,,,0,,,55,49
25440,note_on,1,0,0,,,,,,,,,0,,,64,49
25679,note_on,239,0,1,,,,,,,,,0,,,49,0
25679,note_on,239,0,0,,,,,,,,,0,,,70,0
25679,note_on,0,0,1,,,,,,,,,0,,,55,0
25679,note_on,0,0,0,,,,,,,,,0,,,64,0
25680,note_on,1,0,1,,,,,,,,,0,,,48,49
25680,note_on,0,0,1,,,,,,,,,0,,,60,49
25680,note_on,0,0,0,,,,,,,,,0,,,64,49
25680,note_on,0,0,0,,,,,,,,,0,,,72,49
25680,note_on,1,0,0,,,,,,,,,0,,,58,49
25907,note_on,0,0,0,,,,,,,,,0,,,64,0
25907,note_on,0,0,0,,,,,,,,,0,,,72,0
25907,note_on,227,0,0,,,,,,,,,0,,,58,0
25907,note_on,227,0,1,,,,,,,,,0,,,48,0
25907,note_on,0,0,1,,,,,,,,,0,,,60,0
25920,note_on,13,0,1,,,,,,,,,0,,,53,49
25920,note_on,0,0,0,,,,,,,,,0,,,69,49
25920,note_on,0,0,1,,,,,,,,,0,,,57,49
25920,note_on,13,0,0,,,,,,,,,0,,,65,49
25921,control_change,1,0,1,,,,,,,64,0,0,,,,
25922,control_change,1,0,1,,,,,,,64,127,0,,,,
26039,note_on,119,0,0,,,,,,,,,0,,,69,0
26039,note_on,117,0,1,,,,,,,,,0,,,53,0
26147,note_on,108,0,1,,,,,,,,,0,,,57,0
26147,note_on,108,0,0,,,,,,,,,0,,,65,0
26160,note_on,13,0,0,,,,,,,,,0,,,57,49
26387,note_on,227,0,0,,,,,,,,,0,,,57,0
26400,note_on,0,0,0,,,,,,,,,0,,,66,46
26400,note_on,13,0,0,,,,,,,,,0,,,63,46
26627,note_on,227,0,0,,,,,,,,,0,,,63,0
26627,note_on,0,0,0,,,,,,,,,0,,,66,0
26640,note_on,13,0,0,,,,,,,,,0,,,61,43
26640,note_on,0,0,1,,,,,,,,,0,,,41,43
26640,note_on,0,0,0,,,,,,,,,0,,,69,43
26640,note_on,493,0,1,,,,,,,,,0,,,29,43
26640,note_on,0,0,0,,,,,,,,,0,,,65,43
26867,note_on,227,0,0,,,,,,,,,0,,,61,0
26867,note_on,0,0,0,,,,,,,,,0,,,65,0
26880,note_on,13,0,0,,,,,,,,,0,,,60,40
26880,note_on,0,0,0,,,,,,,,,0,,,63,40
27107,note_on,227,0,0,,,,,,,,,0,,,60,0
27107,note_on,0,0,0,,,,,,,,,0,,,63,0
27120,note_on,13,0,0,,,,,,,,,0,,,57,37
27347,note_on,227,0,0,,,,,,,,,0,,,57,0
27360,note_on,0,0,0,,,,,,,,,0,,,63,33
27360,note_on,13,0,0,,,,,,,,,0,,,60,33
27551,note_on,0,0,1,,,,,,,,,0,,,41,0
27551,note_on,911,0,1,,,,,,,,,0,,,29,0
27587,note_on,227,0,0,,,,,,,,,0,,,69,0
27587,note_on,0,0,0,,,,,,,,,0,,,63,0
27587,note_on,0,0,0,,,,,,,,,0,,,60,0
27600,note_on,13,0,0,,,,,,,,,0,,,57,33
27827,note_on,227,0,0,,,,,,,,,0,,,57,0
27840,note_on,0,0,0,,,,,,,,,0,,,66,34
27840,note_on,13,0,0,,,,,,,,,0,,,63,34
28067,note_on,227,0,0,,,,,,,,,0,,,63,0
28067,note_on,0,0,0,,,,,,,,,0,,,66,0
28080,note_on,13,0,0,,,,,,,,,0,,,61,35
28080,note_on,529,0,1,,,,,,,,,0,,,29,35
28080,note_on,0,0,0,,,,,,,,,0,,,65,35
28080,note_on,0,0,0,,,,,,,,,0,,,69,35
28080,note_on,0,0,1,,,,,,,,,0,,,41,35
28307,note_on,227,0,0,,,,,,,,,0,,,61,0
28307,note_on,0,0,0,,,,,,,,,0,,,65,0
28320,note_on,0,0,0,,,,,,,,,0,,,63,37
28320,note_on,13,0,0,,,,,,,,,0,,,60,37
28547,note_on,227,0,0,,,,,,,,,0,,,60,0
28547,note_on,0,0,0,,,,,,,,,0,,,63,0
28560,note_on,13,0,0,,,,,,,,,0,,,57,38
28787,note_on,227,0,0,,,,,,,,,0,,,57,0
28799,note_on,12,0,0,,,,,,,,,0,,,69,0
28800,note_on,1,0,0,,,,,,,,,0,,,63,39
28800,note_on,0,0,0,,,,,,,,,0,,,70,39
28800,note_on,0,0,0,,,,,,,,,0,,,66,39
28991,note_on,0,0,1,,,,,,,,,0,,,41,0
28991,note_on,911,0,1,,,,,,,,,0,,,29,0
29027,note_on,0,0,0,,,,,,,,,0,,,66,0
29027,note_on,227,0,0,,,,,,,,,0,,,63,0
29040,note_on,0,0,0,,,,,,,,,0,,,65,41
29040,note_on,13,0,0,,,,,,,,,0,,,61,41
29267,note_on,0,0,0,,,,,,,,,0,,,65,0
29267,note_on,227,0,0,,,,,,,,,0,,,61,0
29280,note_on,13,0,0,,,,,,,,,0,,,58,42
29507,note_on,227,0,0,,,,,,,,,0,,,58,0
29519,note_on,12,0,0,,,,,,,,,0,,,70,0
29520,note_on,529,0,1,,,,,,,,,0,,,29,43
29520,note_on,0,0,1,,,,,,,,,0,,,41,43
29520,note_on,0,0,0,,,,,,,,,0,,,69,43
29520,note_on,0,0,0,,,,,,,,,0,,,66,43
29520,note_on,1,0,0,,,,,,,,,0,,,63,43
29520,note_on,0,0,0,,,,,,,,,0,,,72,43
29747,note_on,0,0,0,,,,,,,,,0,,,66,0
29747,note_on,227,0,0,,,,,,,,,0,,,63,0
29760,note_on,13,0,0,,,,,,,,,0,,,61,45
29760,note_on,0,0,0,,,,,,,,,0,,,65,45
29987,note_on,0,0,0,,,,,,,,,0,,,65,0
29987,note_on,227,0,0,,,,,,,,,0,,,61,0
30000,note_on,0,0,0,,,,,,,,,0,,,63,46
30000,note_on,13,0,0,,,,,,,,,0,,,60,46
30227,note_on,0,0,0,,,,,,,,,0,,,63,0
30227,note_on,227,0,0,,,,,,,,,0,,,60,0
30239,note_on,12,0,0,,,,,,,,,0,,,69,0
30239,note_on,0,0,0,,,,,,,,,0,,,72,0
30240,note_on,0,0,0,,,,,,,,,0,,,73,47
30240,note_on,0,0,0,,,,,,,,,0,,,65,47
30240,note_on,0,0,0,,,,,,,,,0,,,70,47
30240,note_on,1,0,0,,,,,,,,,0,,,61,47
30467,note_on,0,0,0,,,,,,,,,0,,,65,0
30467,note_on,227,0,0,,,,,,,,,0,,,61,0
30480,note_on,0,0,0,,,,,,,,,0,,,63,49
30480,note_on,13,0,0,,,,,,,,,0,,,60,49
30683,note_on,1163,0,1,,,,,,,,,0,,,29,0
30683,note_on,0,0,1,,,,,,,,,0,,,41,0
30707,note_on,227,0,0,,,,,,,,,0,,,60,0
30707,note_on,0,0,0,,,,,,,,,0,,,63,0
30720,note_on,13,0,0,,,,,,,,,0,,,58,50
30720,note_on,0,0,0,,,,,,,,,0,,,61,50
30720,note_on,37,0,1,,,,,,,,,0,,,29,50
30720,note_on,0,0,1,,,,,,,,,0,,,41,50
30947,note_on,0,0,0,,,,,,,,,0,,,61,0
30947,note_on,227,0,0,,,,,,,,,0,,,58,0
30959,note_on,12,0,0,,,,,,,,,0,,,70,0
30959,note_on,239,0,1,,,,,,,,,0,,,29,0
30959,note_on,0,0,1,,,,,,,,,0,,,41,0
30960,note_on,1,0,1,,,,,,,,,0,,,30,51
30960,note_on,1,0,0,,,,,,,,,0,,,58,51
30960,note_on,0,0,1,,,,,,,,,0,,,42,51
30960,note_on,0,0,0,,,,,,,,,0,,,61,51
31187,note_on,0,0,0,,,,,,,,,0,,,58,0
31187,note_on,227,0,0,,,,,,,,,0,,,73,0
31187,note_on,0,0,0,,,,,,,,,0,,,61,0
31200,note_on,0,0,0,,,,,,,,,0,,,72,53
31200,note_on,0,0,0,,,,,,,,,0,,,63,53
31200,note_on,13,0,0,,,,,,,,,0,,,60,53
31427,note_on,227,0,0,,,,,,,,,0,,,60,0
31427,note_on,0,0,0,,,,,,,,,0,,,72,0
31427,note_on,0,0,0,,,,,,,,,0,,,63,0
31439,note_on,479,0,1,,,,,,,,,0,,,30,0
31439,note_on,0,0,1,,,,,,,,,0,,,42,0
31440,note_on,0,0,0,,,,,,,,,0,,,64,54
31440,note_on,1,0,1,,,,,,,,,0,,,31,54
31440,note_on,0,0,1,,,,,,,,,0,,,43,54
31440,note_on,0,0,0,,,,,,,,,0,,,70,54
31440,note_on,13,0,0,,,,,,,,,0,,,61,54
31667,note_on,0,0,0,,,,,,,,,0,,,70,0
31667,note_on,0,0,0,,,,,,,,,0,,,64,0
31667,note_on,227,0,0,,,,,,,,,0,,,61,0
31679,note_on,239,0,1,,,,,,,,,0,,,31,0
31679,note_on,0,0,1,,,,,,,,,0,,,43,0
31680,note_on,13,0,0,,,,,,,,,0,,,61,55
31680,note_on,0,0,1,,,,,,,,,0,,,44,55
31680,note_on,0,0,0,,,,,,,,,0,,,65,55
31680,note_on,0,0,0,,,,,,,,,0,,,70,55
31680,note_on,1,0,1,,,,,,,,,0,,,32,55
31681,control_change,1,0,1,,,,,,,64,0,0,,,,
31682,control_change,1,0,1,,,,,,,64,127,0,,,,
31919,note_on,0,0,0,,,,,,,,,0,,,65,0
31919,note_on,239,0,0,,,,,,,,,0,,,61,0
31920,note_on,1,0,0,,,,,,,,,0,,,56,57
32135,note_on,453,0,1,,,,,,,,,0,,,44,0
32159,note_on,239,0,0,,,,,,,,,0,,,70,0
32159,note_on,0,0,0,,,,,,,,,0,,,56,0
32160,note_on,0,0,0,,,,,,,,,0,,,65,58
32160,note_on,0,0,0,,,,,,,,,0,,,68,58
32160,note_on,25,0,1,,,,,,,,,0,,,49,58
32160,note_on,1,0,0,,,,,,,,,0,,,61,58
32363,note_on,203,0,1,,,,,,,,,0,,,32,0
32387,note_on,0,0,0,,,,,,,,,0,,,68,0
32387,note_on,24,0,1,,,,,,,,,0,,,49,0
32387,note_on,0,0,0,,,,,,,,,0,,,65,0
32387,note_on,227,0,0,,,,,,,,,0,,,61,0
32400,note_on,0,0,0,,,,,,,,,0,,,65,59
32400,note_on,0,0,1,,,,,,,,,0,,,50,59
32400,note_on,0,0,0,,,,,,,,,0,,,70,70
32400,note_on,13,0,1,,,,,,,,,0,,,32,59
32400,note_on,0,0,0,,,,,,,,,0,,,59,59
32400,set_tempo,13,1,0,,,,,,857143,,,,,,,
32639,note_on,0,0,0,,,,,,,,,0,,,65,0
32639,note_on,239,0,0,,,,,,,,,0,,,59,0
32640,note_on,1,0,0,,,,,,,,,0,,,56,61
32879,note_on,239,0,0,,,,,,,,,0,,,70,0
32879,note_on,0,0,0,,,,,,,,,0,,,56,0
32879,note_on,479,0,1,,,,,,,,,0,,,50,0
32880,note_on,0,0,0,,,,,,,,,0,,,65,62
32880,note_on,1,0,0,,,,,,,,,0,,,59,62
32880,note_on,1,0,1,,,,,,,,,0,,,44,62
32880,note_on,0,0,0,,,,,,,,,0,,,68,62
33107,note_on,0,0,0,,,,,,,,,0,,,65,0
33107,note_on,0,0,0,,,,,,,,,0,,,68,0
33107,note_on,227,0,0,,,,,,,,,0,,,59,0
33107,note_on,227,0,1,,,,,,,,,0,,,44,0
33119,note_on,12,0,1,,,,,,,,,0,,,32,0
33120,note_on,0,0,0,,,,,,,,,0,,,70,64
33120,note_on,1,0,1,,,,,,,,,0,,,32,64
33120,note_on,0,0,0,,,,,,,,,0,,,66,64
33120,note_on,0,0,1,,,,,,,,,0,,,51,64
33120,note_on,13,0,0,,,,,,,,,0,,,60,64
33121,control_change,1,0,1,,,,,,,64,0,0,,,,
33122,control_change,1,0,1,,,,,,,64,127,0,,,,
33359,note_on,0,0,0,,,,,,,,,0,,,66,0
33359,note_on,0,0,0,,,,,,,,,0,,,70,0
33359,note_on,239,0,0,,,,,,,,,0,,,60,0
33360,note_on,1,0,0,,,,,,,,,0,,,56,64
33360,note_on,0,0,0,,,,,,,,,0,,,68,64
33599,note_on,477,0,1,,,,,,,,,0,,,51,0
33599,note_on,239,0,0,,,,,,,,,0,,,56,0
33599,note_on,0,0,0,,,,,,,,,0,,,68,0
33600,note_on,1,0,1,,,,,,,,,0,,,44,64
33600,note_on,0,0,0,,,,,,,,,0,,,66,64
33600,note_on,1,0,0,,,,,,,,,0,,,60,64
33827,note_on,227,0,1,,,,,,,,,0,,,44,0
33839,note_on,239,0,0,,,,,,,,,0,,,60,0
33839,note_on,0,0,0,,,,,,,,,0,,,66,0
33840,note_on,1,0,0,,,,,,,,,0,,,66,64
33840,note_on,0,0,1,,,,,,,,,0,,,56,64
33840,note_on,13,0,1,,,,,,,,,0,,,48,64
34079,note_on,239,0,0,,,,,,,,,0,,,66,0
34079,note_on,239,0,1,,,,,,,,,0,,,48,0
34079,note_on,0,0,1,,,,,,,,,0,,,56,0
34080,note_on,1,0,0,,,,,,,,,0,,,68,64
34080,note_on,0,0,1,,,,,,,,,0,,,54,64
34080,note_on,1,0,1,,,,,,,,,0,,,44,64
34199,note_on,119,0,0,,,,,,,,,0,,,68,0
34200,note_on,0,0,0,,,,,,,,,0,,,65,64
34200,note_on,1,0,0,,,,,,,,,0,,,66,64
34319,note_on,0,0,1,,,,,,,,,0,,,44,0
34319,note_on,239,0,1,,,,,,,,,0,,,32,0
34319,note_on,0,0,0,,,,,,,,,0,,,65,0
34319,note_on,119,0,0,,,,,,,,,0,,,66,0
34320,note_on,1,0,1,,,,,,,,,0,,,32,64
34320,note_on,1,0,0,,,,,,,,,0,,,63,64
34320,note_on,0,0,1,,,,,,,,,0,,,48,64
34320,note_on,0,0,1,,,,,,,,,0,,,56,64
34547,note_on,227,0,1,,,,,,,,,0,,,54,0
34547,note_on,0,0,1,,,,,,,,,0,,,32,0
34547,note_on,0,0,1,,,,,,,,,0,,,56,0
34547,note_on,0,0,1,,,,,,,,,0,,,48,0
34559,note_on,239,0,0,,,,,,,,,0,,,63,0
34560,note_on,0,0,0,,,,,,,,,0,,,61,64
34560,key_signature,1,1,0,,,,,Db,,,,,,,,
34560,note_on,0,0,0,,,,,,,,,0,,,53,64
34560,note_on,0,0,1,,,,,,,,,0,,,37,64
34560,key_signature,13,1,1,,,,,Db,,,,,,,,
34561,control_change,1,0,1,,,,,,,64,0,0,,,,
34562,control_change,1,0,1,,,,,,,64,127,0,,,,
34597,note_on,35,0,1,,,,,,,,,0,,,44,64
34634,note_on,37,0,1,,,,,,,,,0,,,49,64
34787,note_on,227,0,0,,,,,,,,,0,,,61,0
34787,note_on,0,0,0,,,,,,,,,0,,,53,0
34798,note_on,164,0,1,,,,,,,,,0,,,44,0
34798,note_on,0,0,1,,,,,,,,,0,,,49,0
34799,note_on,1,0,1,,,,,,,,,0,,,37,0
34800,note_on,1,0,1,,,,,,,,,0,,,49,64
34800,note_on,0,0,1,,,,,,,,,0,,,49,0
34800,note_on,0,0,1,,,,,,,,,0,,,49,64
35040,note_on,240,0,1,,,,,,,,,0,,,61,64
35040,note_on,0,0,1,,,,,,,,,0,,,65,64
35267,note_on,0,0,1,,,,,,,,,0,,,65,0
35267,note_on,227,0,1,,,,,,,,,0,,,61,0
35280,note_on,13,0,1,,,,,,,,,0,,,60,64
35280,note_on,0,0,1,,,,,,,,,0,,,63,64
35280,note_on,493,0,0,,,,,,,,,0,,,65,64
35280,note_on,0,0,0,,,,,,,,,0,,,77,64
35507,note_on,227,0,1,,,,,,,,,0,,,60,0
35507,note_on,0,0,1,,,,,,,,,0,,,63,0
35520,set_tempo,240,1,0,,,,,,800000,,,,,,,
35520,note_on,0,0,1,,,,,,,,,0,,,61,64
35520,note_on,13,0,1,,,,,,,,,0,,,58,64
35711,note_on,191,0,1,,,,,,,,,0,,,49,0
35747,note_on,36,0,1,,,,,,,,,0,,,58,0
35747,note_on,0,0,1,,,,,,,,,0,,,61,0
35760,note_on,13,0,1,,,,,,,,,0,,,49,64
35760,note_on,0,0,1,,,,,,,,,0,,,49,64
35760,note_on,0,0,1,,,,,,,,,0,,,49,0
36000,note_on,0,0,1,,,,,,,,,0,,,61,64
36000,note_on,240,0,1,,,,,,,,,0,,,58,64
36227,note_on,227,0,1,,,,,,,,,0,,,58,0
36227,note_on,0,0,1,,,,,,,,,0,,,61,0
36240,note_on,13,0,1,,,,,,,,,0,,,56,64
36240,note_on,0,0,1,,,,,,,,,0,,,60,64
36467,note_on,0,0,1,,,,,,,,,0,,,60,0
36467,note_on,227,0,1,,,,,,,,,0,,,56,0
36480,note_on,13,0,1,,,,,,,,,0,,,54,64
36480,note_on,0,0,1,,,,,,,,,0,,,58,64
36671,note_on,191,0,1,,,,,,,,,0,,,49,0
36707,note_on,36,0,1,,,,,,,,,0,,,54,0
36707,note_on,0,0,1,,,,,,,,,0,,,58,0
36719,note_on,0,0,0,,,,,,,,,0,,,77,0
36719,note_on,1199,0,0,,,,,,,,,0,,,65,0
36720,note_on,1,0,0,,,,,,,,,0,,,66,64
36720,note_on,0,0,0,,,,,,,,,0,,,78,64
36720,note_on,13,0,1,,,,,,,,,0,,,49,64
36720,note_on,0,0,1,,,,,,,,,0,,,49,0
36720,note_on,0,0,1,,,,,,,,,0,,,49,64
36960,note_on,0,0,1,,,,,,,,,0,,,58,64
36960,note_on,240,0,1,,,,,,,,,0,,,54,64
37187,note_on,227,0,1,,,,,,,,,0,,,54,0
37187,note_on,0,0,1,,,,,,,,,0,,,58,0
37199,note_on,0,0,0,,,,,,,,,0,,,78,0
37199,note_on,479,0,0,,,,,,,,,0,,,66,0
37200,note_on,13,0,1,,,,,,,,,0,,,53,64
37200,note_on,0,0,1,,,,,,,,,0,,,56,64
37200,note_on,0,0,0,,,,,,,,,0,,,80,64
37200,note_on,1,0,0,,,,,,,,,0,,,68,64
37427,note_on,0,0,1,,,,,,,,,0,,,56,0
37427,note_on,227,0,1,,,,,,,,,0,,,53,0
37439,note_on,239,0,0,,,,,,,,,0,,,68,0
37439,note_on,0,0,0,,,,,,,,,0,,,80,0
37440,note_on,0,0,1,,,,,,,,,0,,,55,64
37440,note_on,13,0,1,,,,,,,,,0,,,52,64
37440,set_tempo,1,1,0,,,,,,857140,,,,,,,
37440,note_on,0,0,0,,,,,,,,,0,,,82,64
37440,note_on,0,0,0,,,,,,,,,0,,,70,64
37631,note_on,191,0,1,,,,,,,,,0,,,49,0
37680,note_on,49,0,1,,,,,,,,,0,,,49,64
37907,note_on,227,0,1,,,,,,,,,0,,,49,0
37919,note_on,0,0,0,,,,,,,,,0,,,82,0
37919,note_on,479,0,0,,,,,,,,,0,,,70,0
37920,note_on,13,0,1,,,,,,,,,0,,,46,64
37920,note_on,1,0,0,,,,,,,,,0,,,73,64
37920,note_on,0,0,0,,,,,,,,,0,,,85,64
38123,note_on,0,0,1,,,,,,,,,0,,,55,0
38123,note_on,203,0,1,,,,,,,,,0,,,52,0
38147,note_on,24,0,1,,,,,,,,,0,,,46,0
38159,note_on,239,0,0,,,,,,,,,0,,,73,0
38159,note_on,0,0,0,,,,,,,,,0,,,85,0
38160,note_on,0,0,0,,,,,,,,,0,,,84,64
38160,note_on,0,0,0,,,,,,,,,0,,,72,64
38160,set_tempo,1,1,0,,,,,,923080,,,,,,,
38160,note_on,0,0,1,,,,,,,,,0,,,54,64
38160,note_on,0,0,1,,,,,,,,,0,,,51,64
38160,note_on,13,0,1,,,,,,,,,0,,,45,64
38387,note_on,227,0,1,,,,,,,,,0,,,45,0
38387,note_on,0,0,1,,,,,,,,,0,,,51,0
38399,note_on,0,0,0,,,,,,,,,0,,,84,0
38399,note_on,239,0,0,,,,,,,,,0,,,72,0
38400,note_on,1,0,0,,,,,,,,,0,,,75,64
38400,note_on,13,0,1,,,,,,,,,0,,,44,64
38400,note_on,0,0,0,,,,,,,,,0,,,87,64
38615,note_on,215,0,1,,,,,,,,,0,,,54,0
38627,note_on,12,0,1,,,,,,,,,0,,,44,0
38639,note_on,0,0,0,,,,,,,,,0,,,87,0
38639,note_on,239,0,0,,,,,,,,,0,,,75,0
38640,note_on,0,0,0,,,,,,,,,0,,,92,64
38640,note_on,1,0,0,,,,,,,,,0,,,80,64
38640,note_on,0,0,1,,,,,,,,,0,,,56,64
38640,note_on,13,0,1,,,,,,,,,0,,,48,64
38867,note_on,227,0,1,,,,,,,,,0,,,48,0
38867,note_on,0,0,1,,,,,,,,,0,,,56,0
38879,note_on,0,0,0,,,,,,,,,0,,,92,0
38879,note_on,239,0,0,,,,,,,,,0,,,80,0
38880,note_on,0,0,0,,,,,,,,,0,,,89,64
38880,set_tempo,1,1,0,,,,,,800000,,,,,,,
38880,note_on,0,0,0,,,,,,,,,0,,,77,64
38880,note_on,0,0,1,,,,,,,,,0,,,53,64
38880,note_on,13,0,1,,,,,,,,,0,,,49,64
38881,control_change,1,0,1,,,,,,,64,0,0,,,,
38882,control_change,1,0,1,,,,,,,64,127,0,,,,
39107,note_on,227,0,0,,,,,,,,,0,,,77,0
39107,note_on,0,0,0,,,,,,,,,0,,,89,0
39107,note_on,0,0,1,,,,,,,,,0,,,53,0
39107,note_on,225,0,1,,,,,,,,,0,,,49,0
39120,note_on,0,0,1,,,,,,,,,0,,,37,64
39120,note_on,13,0,1,,,,,,,,,0,,,37,64
39120,note_on,0,0,1,,,,,,,,,0,,,37,0
39360,note_on,240,0,1,,,,,,,,,0,,,49,64
39360,note_on,0,0,1,,,,,,,,,0,,,53,64
39587,note_on,227,0,1,,,,,,,,,0,,,49,0
39587,note_on,0,0,1,,,,,,,,,0,,,53,0
39600,note_on,13,0,1,,,,,,,,,0,,,48,64
39600,note_on,0,0,1,,,,,,,,,0,,,51,64
39600,note_on,0,0,0,,,,,,,,,0,,,89,64
39600,note_on,493,0,0,,,,,,,,,0,,,77,64
39827,note_on,0,0,1,,,,,,,,,0,,,51,0
39827,note_on,227,0,1,,,,,,,,,0,,,48,0
39840,note_on,0,0,1,,,,,,,,,0,,,49,64
39840,note_on,13,0,1,,,,,,,,,0,,,46,64
40031,note_on,191,0,1,,,,,,,,,0,,,37,0
40067,note_on,0,0,1,,,,,,,,,0,,,49,0
40067,note_on,36,0,1,,,,,,,,,0,,,46,0
40080,note_on,0,0,1,,,,,,,,,0,,,37,64
40080,note_on,0,0,1,,,,,,,,,0,,,37,0
40080,note_on,13,0,1,,,,,,,,,0,,,37,64
40320,note_on,240,0,1,,,,,,,,,0,,,46,64
40320,note_on,0,0,1,,,,,,,,,0,,,49,64
40547,note_on,0,0,1,,,,,,,,,0,,,49,0
40547,note_on,227,0,1,,,,,,,,,0,,,46,0
40560,note_on,0,0,1,,,,,,,,,0,,,48,64
40560,note_on,13,0,1,,,,,,,,,0,,,44,64
40787,note_on,227,0,1,,,,,,,,,0,,,44,0
40787,note_on,0,0,1,,,,,,,,,0,,,48,0
40800,note_on,0,0,1,,,,,,,,,0,,,46,64
40800,note_on,13,0,1,,,,,,,,,0,,,42,64
40991,note_on,191,0,1,,,,,,,,,0,,,37,0
41027,note_on,0,0,1,,,,,,,,,0,,,46,0
41027,note_on,36,0,1,,,,,,,,,0,,,42,0
41039,note_on,0,0,0,,,,,,,,,0,,,89,0
41039,note_on,1439,0,0,,,,,,,,,0,,,77,0
41040,note_on,0,0,0,,,,,,,,,0,,,90,64
41040,note_on,13,0,1,,,,,,,,,0,,,37,64
41040,note_on,0,0,1,,,,,,,,,0,,,37,64
41040,note_on,0,0,1,,,,,,,,,0,,,37,0
41040,note_on,1,0,0,,,,,,,,,0,,,78,64
41280,note_on,0,0,1,,,,,,,,,0,,,46,64
41280,note_on,240,0,1,,,,,,,,,0,,,42,64
41507,note_on,227,0,1,,,,,,,,,0,,,42,0
41507,note_on,0,0,1,,,,,,,,,0,,,46,0
41519,note_on,479,0,0,,,,,,,,,0,,,78,0
41519,note_on,0,0,0,,,,,,,,,0,,,90,0
41520,note_on,1,0,0,,,,,,,,,0,,,80,64
41520,note_on,0,0,0,,,,,,,,,0,,,92,64
41520,note_on,0,0,1,,,,,,,,,0,,,44,64
41520,note_on,13,0,1,,,,,,,,,0,,,41,64
41723,note_on,203,0,1,,,,,,,,,0,,,37,0
41747,note_on,24,0,1,,,,,,,,,0,,,41,0
41747,note_on,0,0,1,,,,,,,,,0,,,44,0
41759,note_on,239,0,0,,,,,,,,,0,,,80,0
41759,note_on,0,0,0,,,,,,,,,0,,,92,0
41760,note_on,0,0,1,,,,,,,,,0,,,43,64
41760,note_on,0,0,0,,,,,,,,,0,,,94,64
41760,note_on,13,0,1,,,,,,,,,0,,,40,64
41760,note_on,1,0,0,,,,,,,,,0,,,82,64
41761,control_change,1,0,1,,,,,,,64,0,0,,,,
41762,control_change,1,0,1,,,,,,,64,127,0,,,,
41987,note_on,225,0,1,,,,,,,,,0,,,40,0
41987,note_on,0,0,1,,,,,,,,,0,,,43,0
42000,note_on,0,0,1,,,,,,,,,0,,,37,0
42000,note_on,13,0,1,,,,,,,,,0,,,37,64
42000,note_on,0,0,1,,,,,,,,,0,,,37,64
42239,note_on,479,0,0,,,,,,,,,0,,,82,0
42239,note_on,0,0,0,,,,,,,,,0,,,94,0
42240,note_on,240,0,1,,,,,,,,,0,,,46,64
42240,note_on,1,0,0,,,,,,,,,0,,,85,64
42240,note_on,0,0,0,,,,,,,,,0,,,97,64
42455,note_on,215,0,1,,,,,,,,,0,,,37,0
42467,note_on,12,0,1,,,,,,,,,0,,,46,0
42479,note_on,0,0,0,,,,,,,,,0,,,97,0
42479,note_on,239,0,0,,,,,,,,,0,,,85,0
42480,note_on,1,0,0,,,,,,,,,0,,,84,64
42480,note_on,13,0,1,,,,,,,,,0,,,39,64
42480,note_on,0,0,0,,,,,,,,,0,,,96,64
42480,note_on,0,0,1,,,,,,,,,0,,,45,64
42480,note_on,0,0,1,,,,,,,,,0,,,42,64
42707,note_on,0,0,1,,,,,,,,,0,,,42,0
42707,note_on,0,0,1,,,,,,,,,0,,,45,0
42707,note_on,227,0,1,,,,,,,,,0,,,39,0
42720,note_on,0,0,1,,,,,,,,,0,,,37,64
42720,note_on,0,0,1,,,,,,,,,0,,,37,0
42720,note_on,13,0,1,,,,,,,,,0,,,37,64
42959,note_on,0,0,0,,,,,,,,,0,,,96,0
42959,note_on,479,0,0,,,,,,,,,0,,,84,0
42960,note_on,0,0,1,,,,,,,,,0,,,48,64
42960,note_on,240,0,1,,,,,,,,,0,,,44,64
42960,note_on,0,0,0,,,,,,,,,0,,,99,64
42960,note_on,1,0,0,,,,,,,,,0,,,87,64
43175,note_on,215,0,1,,,,,,,,,0,,,37,0
43187,note_on,12,0,1,,,,,,,,,0,,,48,0
43199,note_on,239,0,0,,,,,,,,,0,,,87,0
43199,note_on,0,0,0,,,,,,,,,0,,,99,0
43200,note_on,0,0,0,,,,,,,,,0,,,101,64
43200,note_on,13,0,1,,,,,,,,,0,,,37,64
43200,note_on,1,0,0,,,,,,,,,0,,,89,64
43415,note_on,215,0,1,,,,,,,,,0,,,44,0
43427,note_on,0,0,0,,,,,,,,,0,,,101,0
43427,note_on,12,0,1,,,,,,,,,0,,,37,0
43427,note_on,227,0,0,,,,,,,,,0,,,89,0
43440,note_on,13,0,1,,,,,,,,,0,,,41,64
43440,note_on,0,0,1,,,,,,,,,0,,,41,0
43440,note_on,0,0,1,,,,,,,,,0,,,41,76
43680,note_on,0,0,1,,,,,,,,,0,,,53,64
43680,note_on,240,0,1,,,,,,,,,0,,,49,64
43919,note_on,239,0,1,,,,,,,,,0,,,49,0
43919,note_on,0,0,1,,,,,,,,,0,,,53,0
43920,note_on,0,0,1,,,,,,,,,0,,,51,67
43920,note_on,0,0,0,,,,,,,,,0,,,101,67
43920,note_on,1,0,1,,,,,,,,,0,,,48,67
43920,note_on,493,0,0,,,,,,,,,0,,,89,67
44159,note_on,239,0,1,,,,,,,,,0,,,48,0
44159,note_on,0,0,1,,,,,,,,,0,,,51,0
44160,note_on,0,0,1,,,,,,,,,0,,,49,70
44160,note_on,1,0,1,,,,,,,,,0,,,46,70
44399,note_on,0,0,1,,,,,,,,,0,,,46,0
44399,note_on,0,0,1,,,,,,,,,0,,,49,0
44399,note_on,239,0,1,,,,,,,,,0,,,41,0
44400,note_on,0,0,1,,,,,,,,,0,,,41,0
44400,note_on,0,0,1,,,,,,,,,0,,,41,73
44400,note_on,1,0,1,,,,,,,,,0,,,41,73
44640,note_on,240,0,1,,,,,,,,,0,,,45,76
44640,note_on,0,0,1,,,,,,,,,0,,,48,76
44759,note_on,0,0,1,,,,,,,,,0,,,45,0
44759,note_on,0,0,1,,,,,,,,,0,,,48,0
44759,note_on,119,0,1,,,,,,,,,0,,,41,0
44880,note_on,121,0,1,,,,,,,,,0,,,41,80
44880,note_on,0,0,1,,,,,,,,,0,,,41,0
44880,note_on,0,0,1,,,,,,,,,0,,,41,96
45059,note_on,1139,0,0,,,,,,,,,0,,,89,0
45059,note_on,0,0,0,,,,,,,,,0,,,101,0
45120,note_on,0,0,1,,,,,,,,,0,,,54,83
45120,note_on,240,0,1,,,,,,,,,0,,,51,83
45359,note_on,239,0,1,,,,,,,,,0,,,51,0
45359,note_on,0,0,1,,,,,,,,,0,,,54,0
45360,note_on,1,0,1,,,,,,,,,0,,,49,86
45360,note_on,301,0,0,,,,,,,,,0,,,89,86
45360,note_on,0,0,0,,,,,,,,,0,,,101,86
45360,note_on,0,0,1,,,,,,,,,0,,,53,86
45599,note_on,239,0,1,,,,,,,,,0,,,49,0
45599,note_on,0,0,1,,,,,,,,,0,,,53,0
45600,note_on,1,0,1,,,,,,,,,0,,,48,89
45600,note_on,0,0,1,,,,,,,,,0,,,51,89
45839,note_on,239,0,1,,,,,,,,,0,,,41,0
45839,note_on,0,0,1,,,,,,,,,0,,,48,0
45839,note_on,0,0,1,,,,,,,,,0,,,51,0
45840,note_on,1,0,1,,,,,,,,,0,,,41,92
45840,note_on,0,0,1,,,,,,,,,0,,,41,0
45840,note_on,0,0,1,,,,,,,,,0,,,41,92
46079,note_on,239,0,1,,,,,,,,,0,,,41,0
46080,note_on,0,0,1,,,,,,,,,0,,,49,96
46080,note_on,0,0,1,,,,,,,,,0,,,46,96
46080,note_on,1,0,1,,,,,,,,,0,,,41,96
46081,control_change,1,0,1,,,,,,,64,0,0,,,,
46082,control_change,1,0,1,,,,,,,64,127,0,,,,
46199,note_on,0,0,1,,,,,,,,,0,,,49,0
46199,note_on,0,0,1,,,,,,,,,0,,,46,0
46199,note_on,117,0,1,,,,,,,,,0,,,41,0
46320,note_on,121,0,1,,,,,,,,,0,,,53,94
46320,note_on,0,0,1,,,,,,,,,0,,,53,0
46320,note_on,0,0,1,,,,,,,,,0,,,53,94
46499,note_on,1139,0,0,,,,,,,,,0,,,89,0
46499,note_on,0,0,0,,,,,,,,,0,,,101,0
46560,note_on,0,0,1,,,,,,,,,0,,,65,92
46560,note_on,240,0,1,,,,,,,,,0,,,61,92
46799,note_on,239,0,1,,,,,,,,,0,,,61,0
46799,note_on,0,0,1,,,,,,,,,0,,,65,0
46800,note_on,1,0,1,,,,,,,,,0,,,60,90
46800,note_on,301,0,0,,,,,,,,,0,,,77,90
46800,note_on,0,0,0,,,,,,,,,0,,,89,90
46800,note_on,0,0,1,,,,,,,,,0,,,63,90
47039,note_on,0,0,1,,,,,,,,,0,,,63,0
47039,note_on,239,0,1,,,,,,,,,0,,,60,0
47040,note_on,1,0,1,,,,,,,,,0,,,58,88
47040,note_on,0,0,1,,,,,,,,,0,,,61,88
47279,note_on,0,0,1,,,,,,,,,0,,,58,0
47279,note_on,0,0,1,,,,,,,,,0,,,61,0
47279,note_on,239,0,1,,,,,,,,,0,,,53,0
47280,note_on,1,0,1,,,,,,,,,0,,,53,85
47280,note_on,0,0,1,,,,,,,,,0,,,53,85
47280,note_on,0,0,1,,,,,,,,,0,,,53,0
47520,set_tempo,720,1,0,,,,,,821916,,,,,,,
47520,note_on,240,0,1,,,,,,,,,0,,,57,83
47520,note_on,0,0,1,,,,,,,,,0,,,60,83
47747,note_on,0,0,1,,,,,,,,,0,,,60,0
47747,note_on,0,0,1,,,,,,,,,0,,,57,0
47747,note_on,227,0,1,,,,,,,,,0,,,53,0
47760,note_on,13,0,1,,,,,,,,,0,,,53,81
47760,note_on,0,0,1,,,,,,,,,0,,,53,0
47760,note_on,0,0,1,,,,,,,,,0,,,53,81
47939,note_on,419,0,0,,,,,,,,,0,,,77,0
47939,note_on,0,0,0,,,,,,,,,0,,,89,0
48000,note_on,240,0,1,,,,,,,,,0,,,60,79
48000,note_on,0,0,1,,,,,,,,,0,,,63,79
48239,note_on,0,0,1,,,,,,,,,0,,,63,0
48239,note_on,239,0,1,,,,,,,,,0,,,60,0
48240,note_on,0,0,1,,,,,,,,,0,,,61,76
48240,note_on,1,0,1,,,,,,,,,0,,,58,76
48240,note_on,301,0,0,,,,,,,,,0,,,77,76
48240,note_on,0,0,0,,,,,,,,,0,,,89,76
48479,note_on,0,0,1,,,,,,,,,0,,,61,0
48479,note_on,239,0,1,,,,,,,,,0,,,58,0
48480,note_on,1,0,1,,,,,,,,,0,,,57,74
48480,note_on,0,0,1,,,,,,,,,0,,,60,74
48719,note_on,239,0,1,,,,,,,,,0,,,53,0
48720,note_on,1,0,1,,,,,,,,,0,,,53,72
48959,note_on,0,0,1,,,,,,,,,0,,,60,0
48959,note_on,239,0,1,,,,,,,,,0,,,57,0
48960,note_on,1,0,1,,,,,,,,,0,,,60,70
48960,note_on,0,0,1,,,,,,,,,0,,,63,70
48960,set_tempo,720,1,0,,,,,,845073,,,,,,,
49199,note_on,239,0,1,,,,,,,,,0,,,60,0
49199,note_on,0,0,1,,,,,,,,,0,,,63,0
49200,note_on,1,0,1,,,,,,,,,0,,,58,67
49200,note_on,0,0,1,,,,,,,,,0,,,61,67
49427,note_on,227,0,1,,,,,,,,,0,,,53,0
49440,note_on,13,0,1,,,,,,,,,0,,,53,65
49607,note_on,0,0,0,,,,,,,,,0,,,89,0
49607,note_on,647,0,0,,,,,,,,,0,,,77,0
49655,note_on,0,0,1,,,,,,,,,0,,,61,0
49655,note_on,215,0,1,,,,,,,,,0,,,58,0
49680,note_on,0,0,0,,,,,,,,,0,,,77,63
49680,note_on,25,0,1,,,,,,,,,0,,,58,63
49680,note_on,73,0,0,,,,,,,,,0,,,65,63
49680,note_on,0,0,1,,,,,,,,,0,,,61,63
49919,note_on,239,0,1,,,,,,,,,0,,,58,0
49919,note_on,0,0,1,,,,,,,,,0,,,61,0
49920,note_on,1,0,1,,,,,,,,,0,,,57,61
49920,note_on,0,0,1,,,,,,,,,0,,,60,61
50123,note_on,203,0,1,,,,,,,,,0,,,53,0
50160,note_on,37,0,1,,,,,,,,,0,,,41,58
50375,note_on,215,0,1,,,,,,,,,0,,,57,0
50375,note_on,0,0,1,,,,,,,,,0,,,60,0
50387,note_on,12,0,1,,,,,,,,,0,,,41,0
50400,note_on,0,0,1,,,,,,,,,0,,,60,56
50400,set_tempo,720,1,0,,,,,,869565,,,,,,,
50400,note_on,13,0,1,,,,,,,,,0,,,57,56
50639,note_on,239,0,1,,,,,,,,,0,,,57,0
50639,note_on,0,0,1,,,,,,,,,0,,,60,0
50640,note_on,1,0,1,,,,,,,,,0,,,55,54
50640,set_tempo,240,1,0,,,,,,895522,,,,,,,
50640,note_on,0,0,1,,,,,,,,,0,,,58,54
50880,set_tempo,240,1,0,,,,,,923077,,,,,,,
50880,note_on,240,0,1,,,,,,,,,0,,,53,52
51047,note_on,167,0,0,,,,,,,,,0,,,65,0
51047,note_on,0,0,0,,,,,,,,,0,,,77,0
51095,note_on,0,0,1,,,,,,,,,0,,,58,0
51095,note_on,215,0,1,,,,,,,,,0,,,55,0
51120,note_on,25,0,1,,,,,,,,,0,,,60,49
51120,note_on,0,0,0,,,,,,,,,0,,,77,49
51120,note_on,0,0,0,,,,,,,,,0,,,65,49
51120,note_on,0,0,1,,,,,,,,,0,,,63,49
51120,set_tempo,73,1,0,,,,,,1000000,,,,,,,
51359,note_on,0,0,1,,,,,,,,,0,,,63,0
51359,note_on,239,0,1,,,,,,,,,0,,,60,0
51360,note_on,1,0,1,,,,,,,,,0,,,58,49
51360,note_on,0,0,1,,,,,,,,,0,,,61,49
51563,note_on,203,0,1,,,,,,,,,0,,,53,0
51600,note_on,37,0,1,,,,,,,,,0,,,41,49
51803,note_on,683,0,0,,,,,,,,,0,,,65,0
51803,note_on,0,0,0,,,,,,,,,0,,,77,0
51815,note_on,0,0,1,,,,,,,,,0,,,61,0
51815,note_on,215,0,1,,,,,,,,,0,,,58,0
51839,note_on,24,0,1,,,,,,,,,0,,,41,0
51840,note_on,0,0,0,,,,,,,,,0,,,81,49
51840,note_on,0,0,0,,,,,,,,,0,,,77,49
51840,note_on,0,0,0,,,,,,,,,0,,,69,49
51840,set_tempo,0,1,0,,,,,,750002,,,,,,,
51840,note_on,0,0,1,,,,,,,,,0,,,65,49
51840,note_on,0,0,1,,,,,,,,,0,,,60,49
51840,key_signature,37,1,0,,,,,F,,,,,,,,
51840,key_signature,1,1,1,,,,,F,,,,,,,,
51840,note_on,0,0,1,,,,,,,,,0,,,53,49
51841,control_change,1,0,1,,,,,,,64,0,0,,,,
51842,control_change,1,0,1,,,,,,,64,127,0,,,,
51959,note_on,0,0,0,,,,,,,,,0,,,81,0
51959,note_on,0,0,0,,,,,,,,,0,,,77,0
51959,note_on,117,0,1,,,,,,,,,0,,,53,0
51959,note_on,119,0,0,,,,,,,,,0,,,69,0
52079,note_on,120,0,1,,,,,,,,,0,,,60,0
52079,note_on,0,0,1,,,,,,,,,0,,,65,0
52080,note_on,121,0,0,,,,,,,,,0,,,69,49
52080,note_on,1,0,1,,,,,,,,,0,,,53,49
52080,note_on,0,0,1,,,,,,,,,0,,,60,49
52080,note_on,0,0,0,,,,,,,,,0,,,72,49
52199,note_on,119,0,0,,,,,,,,,0,,,69,0
52199,note_on,119,0,1,,,,,,,,,0,,,53,0
52199,note_on,0,0,0,,,,,,,,,0,,,72,0
52319,note_on,120,0,1,,,,,,,,,0,,,60,0
52320,note_on,1,0,1,,,,,,,,,0,,,53,49
52320,note_on,0,0,0,,,,,,,,,0,,,72,49
52320,note_on,0,0,0,,,,,,,,,0,,,81,49
52320,note_on,0,0,1,,,,,,,,,0,,,60,49
52320,note_on,121,0,0,,,,,,,,,0,,,69,49
52320,note_on,0,0,1,,,,,,,,,0,,,65,49
52439,note_on,119,0,1,,,,,,,,,0,,,53,0
52439,note_on,0,0,0,,,,,,,,,0,,,81,0
52439,note_on,119,0,0,,,,,,,,,0,,,69,0
52439,note_on,0,0,0,,,,,,,,,0,,,72,0
52559,note_on,120,0,1,,,,,,,,,0,,,60,0
52559,note_on,0,0,1,,,,,,,,,0,,,65,0
52560,note_on,1,0,1,,,,,,,,,0,,,53,49
52560,note_on,0,0,1,,,,,,,,,0,,,67,49
52560,note_on,0,0,0,,,,,,,,,0,,,73,49
52560,note_on,0,0,0,,,,,,,,,0,,,79,49
52560,note_on,0,0,1,,,,,,,,,0,,,64,49
52560,note_on,121,0,0,,,,,,,,,0,,,70,49
52679,note_on,119,0,0,,,,,,,,,0,,,70,0
52679,note_on,0,0,0,,,,,,,,,0,,,79,0
52679,note_on,0,0,0,,,,,,,,,0,,,73,0
52679,note_on,119,0,1,,,,,,,,,0,,,53,0
52799,note_on,120,0,1,,,,,,,,,0,,,64,0
52799,note_on,0,0,1,,,,,,,,,0,,,67,0
52800,note_on,0,0,0,,,,,,,,,0,,,77,49
52800,note_on,0,0,1,,,,,,,,,0,,,62,49
52800,note_on,0,0,1,,,,,,,,,0,,,65,49
52800,note_on,0,0,0,,,,,,,,,0,,,74,49
52800,note_on,121,0,0,,,,,,,,,0,,,70,49
52800,note_on,1,0,1,,,,,,,,,0,,,53,49
52919,note_on,119,0,1,,,,,,,,,0,,,53,0
52919,note_on,0,0,0,,,,,,,,,0,,,77,0
52919,note_on,0,0,0,,,,,,,,,0,,,74,0
52919,note_on,119,0,0,,,,,,,,,0,,,70,0
53039,note_on,120,0,1,,,,,,,,,0,,,62,0
53039,note_on,0,0,1,,,,,,,,,0,,,65,0
53040,note_on,121,0,0,,,,,,,,,0,,,65,49
53040,note_on,0,0,0,,,,,,,,,0,,,70,49
53040,note_on,1,0,1,,,,,,,,,0,,,53,49
53040,note_on,0,0,1,,,,,,,,,0,,,62,49
53159,note_on,119,0,0,,,,,,,,,0,,,65,0
53159,note_on,0,0,0,,,,,,,,,0,,,70,0
53159,note_on,119,0,1,,,,,,,,,0,,,53,0
53279,note_on,120,0,1,,,,,,,,,0,,,62,0
53280,note_on,121,0,0,,,,,,,,,0,,,68,49
53280,note_on,0,0,0,,,,,,,,,0,,,71,49
53280,note_on,0,0,0,,,,,,,,,0,,,77,49
53280,note_on,1,0,1,,,,,,,,,0,,,53,49
53280,note_on,0,0,1,,,,,,,,,0,,,62,49
53280,note_on,0,0,1,,,,,,,,,0,,,65,49
53281,control_change,1,0,1,,,,,,,64,0,0,,,,
53282,control_change,1,0,1,,,,,,,64,127,0,,,,
53399,note_on,117,0,1,,,,,,,,,0,,,53,0
53399,note_on,0,0,0,,,,,,,,,0,,,77,0
53399,note_on,119,0,0,,,,,,,,,0,,,68,0
53399,note_on,0,0,0,,,,,,,,,0,,,71,0
53519,note_on,120,0,1,,,,,,,,,0,,,62,0
53519,note_on,0,0,1,,,,,,,,,0,,,65,0
53520,note_on,0,0,0,,,,,,,,,0,,,72,49
53520,note_on,0,0,1,,,,,,,,,0,,,64,49
53520,note_on,1,0,1,,,,,,,,,0,,,53,49
53520,note_on,121,0,0,,,,,,,,,0,,,69,49
53520,note_on,0,0,1,,,,,,,,,0,,,60,49
53520,note_on,0,0,0,,,,,,,,,0,,,76,49
53639,note_on,119,0,0,,,,,,,,,0,,,69,0
53639,note_on,119,0,1,,,,,,,,,0,,,53,0
53639,note_on,0,0,0,,,,,,,,,0,,,72,0
53639,note_on,0,0,0,,,,,,,,,0,,,76,0
53759,note_on,120,0,1,,,,,,,,,0,,,60,0
53759,note_on,0,0,1,,,,,,,,,0,,,64,0
53760,note_on,0,0,0,,,,,,,,,0,,,70,49
53760,note_on,0,0,1,,,,,,,,,0,,,62,49
53760,note_on,0,0,1,,,,,,,,,0,,,58,49
53760,note_on,0,0,0,,,,,,,,,0,,,74,49
53760,note_on,1,0,1,,,,,,,,,0,,,53,49
53760,note_on,121,0,0,,,,,,,,,0,,,65,49
53879,note_on,119,0,1,,,,,,,,,0,,,53,0
53879,note_on,119,0,0,,,,,,,,,0,,,65,0
53879,note_on,0,0,0,,,,,,,,,0,,,70,0
53879,note_on,0,0,0,,,,,,,,,0,,,74,0
53999,note_on,0,0,1,,,,,,,,,0,,,62,0
53999,note_on,120,0,1,,,,,,,,,0,,,58,0
54000,note_on,0,0,0,,,,,,,,,0,,,65,49
54000,note_on,0,0,1,,,,,,,,,0,,,58,49
54000,note_on,121,0,0,,,,,,,,,0,,,62,49
54000,note_on,1,0,1,,,,,,,,,0,,,53,49
54119,note_on,0,0,0,,,,,,,,,0,,,65,0
54119,note_on,119,0,0,,,,,,,,,0,,,62,0
54119,note_on,119,0,1,,,,,,,,,0,,,53,0
54239,note_on,120,0,1,,,,,,,,,0,,,58,0
54240,note_on,121,0,0,,,,,,,,,0,,,65,49
54240,note_on,0,0,0,,,,,,,,,0,,,70,49
54240,note_on,0,0,0,,,,,,,,,0,,,74,49
54240,note_on,0,0,1,,,,,,,,,0,,,58,49
54240,note_on,1,0,1,,,,,,,,,0,,,53,49
54240,note_on,0,0,1,,,,,,,,,0,,,62,49
54359,note_on,119,0,0,,,,,,,,,0,,,65,0
54359,note_on,119,0,1,,,,,,,,,0,,,53,0
54359,note_on,0,0,0,,,,,,,,,0,,,70,0
54359,note_on,0,0,0,,,,,,,,,0,,,74,0
54479,note_on,0,0,1,,,,,,,,,0,,,62,0
54479,note_on,120,0,1,,,,,,,,,0,,,58,0
54480,note_on,0,0,1,,,,,,,,,0,,,60,49
54480,note_on,121,0,0,,,,,,,,,0,,,65,49
54480,note_on,0,0,1,,,,,,,,,0,,,57,49
54480,note_on,1,0,1,,,,,,,,,0,,,53,49
54480,note_on,0,0,0,,,,,,,,,0,,,69,49
54480,note_on,0,0,0,,,,,,,,,0,,,72,49
54599,note_on,0,0,0,,,,,,,,,0,,,72,0
54599,note_on,119,0,0,,,,,,,,,0,,,65,0
54599,note_on,119,0,1,,,,,,,,,0,,,53,0
54599,note_on,0,0,0,,,,,,,,,0,,,69,0
54707,note_on,0,0,1,,,,,,,,,0,,,60,0
54707,note_on,108,0,1,,,,,,,,,0,,,57,0
54720,note_on,0,0,0,,,,,,,,,0,,,68,49
54720,note_on,0,0,0,,,,,,,,,0,,,71,49
54720,note_on,121,0,0,,,,,,,,,0,,,65,49
54720,note_on,0,0,1,,,,,,,,,0,,,59,49
54720,note_on,13,0,1,,,,,,,,,0,,,53,49
54720,note_on,0,0,1,,,,,,,,,0,,,56,49
54721,control_change,1,0,1,,,,,,,64,0,0,,,,
54722,control_change,1,0,1,,,,,,,64,127,0,,,,
54959,note_on,0,0,1,,,,,,,,,0,,,56,0
54959,note_on,239,0,0,,,,,,,,,0,,,65,0
54959,note_on,0,0,0,,,,,,,,,0,,,68,0
54959,note_on,237,0,1,,,,,,,,,0,,,53,0
54960,note_on,1,0,0,,,,,,,,,0,,,64,49
54960,note_on,0,0,1,,,,,,,,,0,,,55,49
54960,note_on,1,0,1,,,,,,,,,0,,,52,49
54960,note_on,0,0,0,,,,,,,,,0,,,67,49
55199,note_on,0,0,1,,,,,,,,,0,,,55,0
55199,note_on,239,0,1,,,,,,,,,0,,,52,0
55199,note_on,0,0,0,,,,,,,,,0,,,67,0
55199,note_on,239,0,0,,,,,,,,,0,,,64,0
55200,note_on,0,0,1,,,,,,,,,0,,,53,49
55200,note_on,0,0,0,,,,,,,,,0,,,65,49
55200,note_on,1,0,0,,,,,,,,,0,,,62,49
55200,note_on,1,0,1,,,,,,,,,0,,,50,49
55439,note_on,0,0,0,,,,,,,,,0,,,65,0
55439,note_on,0,0,1,,,,,,,,,0,,,50,0
55439,note_on,239,0,1,,,,,,,,,0,,,59,0
55439,note_on,239,0,0,,,,,,,,,0,,,71,0
55439,note_on,0,0,0,,,,,,,,,0,,,62,0
55439,note_on,0,0,1,,,,,,,,,0,,,53,0
55440,note_on,1,0,0,,,,,,,,,0,,,61,49
55440,note_on,1,0,1,,,,,,,,,0,,,49,49
55440,note_on,0,0,0,,,,,,,,,0,,,65,49
55440,note_on,0,0,0,,,,,,,,,0,,,70,58
55440,note_on,0,0,1,,,,,,,,,0,,,58,49
55440,note_on,0,0,1,,,,,,,,,0,,,53,49
55679,note_on,239,0,0,,,,,,,,,0,,,61,0
55679,note_on,0,0,0,,,,,,,,,0,,,65,0
55679,note_on,0,0,1,,,,,,,,,0,,,53,0
55679,note_on,239,0,1,,,,,,,,,0,,,49,0
55680,note_on,1,0,1,,,,,,,,,0,,,48,47
55680,note_on,0,0,1,,,,,,,,,0,,,52,47
55680,note_on,1,0,0,,,,,,,,,0,,,60,47
55680,note_on,0,0,0,,,,,,,,,0,,,64,47
55919,note_on,0,0,1,,,,,,,,,0,,,52,0
55919,note_on,239,0,0,,,,,,,,,0,,,70,0
55919,note_on,0,0,1,,,,,,,,,0,,,48,0
55919,note_on,239,0,1,,,,,,,,,0,,,58,0
55919,note_on,0,0,0,,,,,,,,,0,,,64,0
55919,note_on,0,0,0,,,,,,,,,0,,,60,0
55920,note_on,0,0,0,,,,,,,,,0,,,72,44
55920,note_on,1,0,1,,,,,,,,,0,,,52,44
55920,note_on,1,0,0,,,,,,,,,0,,,64,44
55920,note_on,0,0,0,,,,,,,,,0,,,67,44
55920,note_on,0,0,1,,,,,,,,,0,,,60,44
55920,note_on,0,0,1,,,,,,,,,0,,,55,44
56159,note_on,239,0,0,,,,,,,,,0,,,64,0
56159,note_on,0,0,0,,,,,,,,,0,,,67,0
56159,note_on,0,0,1,,,,,,,,,0,,,60,0
56159,note_on,0,0,1,,,,,,,,,0,,,55,0
56159,note_on,239,0,1,,,,,,,,,0,,,52,0
56159,note_on,0,0,0,,,,,,,,,0,,,72,0
56160,note_on,0,0,0,,,,,,,,,0,,,69,41
56160,note_on,1,0,0,,,,,,,,,0,,,65,41
56160,note_on,0,0,1,,,,,,,,,0,,,57,41
56160,note_on,1,0,1,,,,,,,,,0,,,53,41
56161,control_change,1,0,1,,,,,,,64,0,0,,,,
56162,control_change,1,0,1,,,,,,,64,127,0,,,,
56279,note_on,117,0,1,,,,,,,,,0,,,57,0
56279,note_on,119,0,0,,,,,,,,,0,,,69,0
56387,note_on,108,0,0,,,,,,,,,0,,,65,0
56387,note_on,108,0,1,,,,,,,,,0,,,53,0
56400,note_on,13,0,1,,,,,,,,,0,,,53,41
56400,note_on,0,0,0,,,,,,,,,0,,,72,41
56400,note_on,13,0,0,,,,,,,,,0,,,69,41
56400,note_on,0,0,1,,,,,,,,,0,,,60,41
56639,note_on,0,0,1,,,,,,,,,0,,,60,0
56639,note_on,0,0,0,,,,,,,,,0,,,72,0
56639,note_on,239,0,1,,,,,,,,,0,,,53,0
56639,note_on,239,0,0,,,,,,,,,0,,,69,0
56640,note_on,0,0,0,,,,,,,,,0,,,81,41
56640,note_on,0,0,0,,,,,,,,,0,,,72,41
56640,note_on,1,0,1,,,,,,,,,0,,,53,41
56640,note_on,1,0,0,,,,,,,,,0,,,69,41
56640,note_on,0,0,1,,,,,,,,,0,,,60,41
56640,note_on,0,0,1,,,,,,,,,0,,,65,41
56718,note_on,0,0,0,,,,,,,,,0,,,72,0
56718,note_on,0,0,1,,,,,,,,,0,,,65,0
56718,note_on,78,0,0,,,,,,,,,0,,,69,0
56718,note_on,0,0,0,,,,,,,,,0,,,81,0
56718,note_on,78,0,1,,,,,,,,,0,,,60,0
56867,note_on,149,0,1,,,,,,,,,0,,,53,0
56880,note_on,162,0,0,,,,,,,,,0,,,70,41
56880,note_on,0,0,1,,,,,,,,,0,,,64,41
56880,note_on,0,0,1,,,,,,,,,0,,,67,41
56880,note_on,0,0,0,,,,,,,,,0,,,79,41
56880,note_on,13,0,1,,,,,,,,,0,,,53,41
56880,note_on,0,0,0,,,,,,,,,0,,,73,41
56999,note_on,0,0,0,,,,,,,,,0,,,73,0
56999,note_on,0,0,0,,,,,,,,,0,,,79,0
56999,note_on,119,0,1,,,,,,,,,0,,,64,0
56999,note_on,0,0,1,,,,,,,,,0,,,67,0
56999,note_on,119,0,0,,,,,,,,,0,,,70,0
57120,note_on,0,0,0,,,,,,,,,0,,,77,41
57120,note_on,0,0,0,,,,,,,,,0,,,74,41
57120,note_on,0,0,1,,,,,,,,,0,,,65,41
57120,note_on,121,0,1,,,,,,,,,0,,,62,41
57120,note_on,121,0,0,,,,,,,,,0,,,70,41
57239,note_on,119,0,1,,,,,,,,,0,,,62,0
57239,note_on,0,0,0,,,,,,,,,0,,,74,0
57239,note_on,119,0,0,,,,,,,,,0,,,70,0
57239,note_on,0,0,1,,,,,,,,,0,,,65,0
57239,note_on,0,0,0,,,,,,,,,0,,,77,0
57359,note_on,120,0,1,,,,,,,,,0,,,53,0
57360,note_on,0,0,0,,,,,,,,,0,,,70,41
57360,note_on,0,0,1,,,,,,,,,0,,,62,41
57360,note_on,1,0,1,,,,,,,,,0,,,53,41
57360,note_on,121,0,0,,,,,,,,,0,,,65,41
57479,note_on,0,0,0,,,,,,,,,0,,,70,0
57479,note_on,119,0,1,,,,,,,,,0,,,62,0
57479,note_on,119,0,0,,,,,,,,,0,,,65,0
57600,note_on,121,0,1,,,,,,,,,0,,,62,41
57600,note_on,0,0,0,,,,,,,,,0,,,71,41
57600,note_on,0,0,0,,,,,,,,,0,,,77,41
57600,note_on,121,0,0,,,,,,,,,0,,,68,41
57600,note_on,0,0,1,,,,,,,,,0,,,65,41
57719,note_on,119,0,1,,,,,,,,,0,,,62,0
57719,note_on,0,0,0,,,,,,,,,0,,,71,0
57719,note_on,0,0,0,,,,,,,,,0,,,77,0
57719,note_on,0,0,1,,,,,,,,,0,,,65,0
57719,note_on,119,0,0,,,,,,,,,0,,,68,0
57839,note_on,120,0,1,,,,,,,,,0,,,53,0
57840,note_on,0,0,1,,,,,,,,,0,,,64,41
57840,note_on,0,0,1,,,,,,,,,0,,,60,41
57840,note_on,121,0,0,,,,,,,,,0,,,69,41
57840,note_on,0,0,0,,,,,,,,,0,,,72,41
57840,note_on,1,0,1,,,,,,,,,0,,,53,41
57840,note_on,0,0,0,,,,,,,,,0,,,76,41
57959,note_on,0,0,1,,,,,,,,,0,,,64,0
57959,note_on,0,0,0,,,,,,,,,0,,,72,0
57959,note_on,119,0,1,,,,,,,,,0,,,60,0
57959,note_on,0,0,0,,,,,,,,,0,,,76,0
57959,note_on,119,0,0,,,,,,,,,0,,,69,0
58079,note_on,120,0,1,,,,,,,,,0,,,53,0
58080,note_on,0,0,0,,,,,,,,,0,,,74,41
58080,note_on,1,0,1,,,,,,,,,0,,,53,41
58080,note_on,0,0,1,,,,,,,,,0,,,58,41
58080,note_on,0,0,1,,,,,,,,,0,,,62,41
58080,note_on,121,0,0,,,,,,,,,0,,,65,41
58080,note_on,0,0,0,,,,,,,,,0,,,70,41
58199,note_on,0,0,0,,,,,,,,,0,,,70,0
58199,note_on,0,0,0,,,,,,,,,0,,,74,0
58199,note_on,119,0,0,,,,,,,,,0,,,65,0
58199,note_on,119,0,1,,,,,,,,,0,,,58,0
58199,note_on,0,0,1,,,,,,,,,0,,,62,0
58319,note_on,120,0,1,,,,,,,,,0,,,53,0
58320,note_on,0,0,1,,,,,,,,,0,,,58,41
58320,note_on,0,0,0,,,,,,,,,0,,,65,41
58320,note_on,121,0,0,,,,,,,,,0,,,62,41
58320,note_on,1,0,1,,,,,,,,,0,,,53,41
58439,note_on,119,0,0,,,,,,,,,0,,,62,0
58439,note_on,119,0,1,,,,,,,,,0,,,58,0
58439,note_on,0,0,0,,,,,,,,,0,,,65,0
58559,note_on,120,0,1,,,,,,,,,0,,,53,0
58560,note_on,0,0,1,,,,,,,,,0,,,58,41
58560,note_on,0,0,1,,,,,,,,,0,,,62,41
58560,note_on,0,0,0,,,,,,,,,0,,,70,41
58560,note_on,1,0,1,,,,,,,,,0,,,53,41
58560,note_on,0,0,0,,,,,,,,,0,,,74,41
58560,note_on,121,0,0,,,,,,,,,0,,,65,41
58638,note_on,0,0,1,,,,,,,,,0,,,62,0
58638,note_on,78,0,0,,,,,,,,,0,,,65,0
58638,note_on,0,0,0,,,,,,,,,0,,,74,0
58638,note_on,0,0,0,,,,,,,,,0,,,70,0
58638,note_on,78,0,1,,,,,,,,,0,,,58,0
58787,note_on,149,0,1,,,,,,,,,0,,,53,0
58800,note_on,0,0,1,,,,,,,,,0,,,57,41
58800,note_on,0,0,1,,,,,,,,,0,,,60,41
58800,note_on,13,0,1,,,,,,,,,0,,,53,41
58800,note_on,162,0,0,,,,,,,,,0,,,65,41
58800,note_on,0,0,0,,,,,,,,,0,,,72,41
58800,note_on,0,0,0,,,,,,,,,0,,,69,41
59027,note_on,0,0,1,,,,,,,,,0,,,60,0
59027,note_on,227,0,1,,,,,,,,,0,,,53,0
59027,note_on,0,0,1,,,,,,,,,0,,,57,0
59027,note_on,0,0,0,,,,,,,,,0,,,72,0
59027,note_on,0,0,0,,,,,,,,,0,,,69,0
59027,note_on,227,0,0,,,,,,,,,0,,,65,0
59040,note_on,0,0,1,,,,,,,,,0,,,59,41
59040,note_on,13,0,0,,,,,,,,,0,,,65,41
59040,note_on,0,0,1,,,,,,,,,0,,,56,41
59040,note_on,13,0,1,,,,,,,,,0,,,53,41
59040,note_on,0,0,0,,,,,,,,,0,,,71,41
59040,note_on,0,0,0,,,,,,,,,0,,,68,41
59041,control_change,1,0,1,,,,,,,64,0,0,,,,
59042,control_change,1,0,1,,,,,,,64,127,0,,,,
59279,note_on,0,0,1,,,,,,,,,0,,,56,0
59279,note_on,239,0,0,,,,,,,,,0,,,65,0
59279,note_on,0,0,0,,,,,,,,,0,,,68,0
59279,note_on,237,0,1,,,,,,,,,0,,,53,0
59280,note_on,0,0,0,,,,,,,,,0,,,67,41
59280,note_on,1,0,1,,,,,,,,,0,,,52,41
59280,note_on,1,0,0,,,,,,,,,0,,,64,41
59280,note_on,0,0,1,,,,,,,,,0,,,55,41
59519,note_on,239,0,1,,,,,,,,,0,,,52,0
59519,note_on,239,0,0,,,,,,,,,0,,,64,0
59519,note_on,0,0,0,,,,,,,,,0,,,67,0
59519,note_on,0,0,1,,,,,,,,,0,,,55,0
59520,note_on,1,0,1,,,,,,,,,0,,,50,41
59520,note_on,1,0,0,,,,,,,,,0,,,62,41
59520,note_on,0,0,0,,,,,,,,,0,,,65,41
59520,note_on,0,0,1,,,,,,,,,0,,,53,41
59759,note_on,239,0,0,,,,,,,,,0,,,71,0
59759,note_on,239,0,1,,,,,,,,,0,,,59,0
59759,note_on,0,0,0,,,,,,,,,0,,,62,0
59759,note_on,0,0,1,,,,,,,,,0,,,50,0
59759,note_on,0,0,0,,,,,,,,,0,,,65,0
59759,note_on,0,0,1,,,,,,,,,0,,,53,0
59760,note_on,0,0,1,,,,,,,,,0,,,58,41
59760,note_on,1,0,0,,,,,,,,,0,,,61,41
59760,note_on,0,0,1,,,,,,,,,0,,,53,49
59760,note_on,0,0,0,,,,,,,,,0,,,65,41
59760,note_on,1,0,1,,,,,,,,,0,,,49,49
59760,note_on,0,0,0,,,,,,,,,0,,,70,49
59999,note_on,0,0,1,,,,,,,,,0,,,53,0
59999,note_on,0,0,0,,,,,,,,,0,,,65,0
59999,note_on,239,0,0,,,,,,,,,0,,,61,0
59999,note_on,239,0,1,,,,,,,,,0,,,49,0
60000,note_on,1,0,1,,,,,,,,,0,,,48,41
60000,note_on,1,0,0,,,,,,,,,0,,,60,41
60000,note_on,0,0,0,,,,,,,,,0,,,64,41
60000,note_on,0,0,1,,,,,,,,,0,,,52,41
60239,note_on,239,0,0,,,,,,,,,0,,,70,0
60239,note_on,0,0,0,,,,,,,,,0,,,64,0
60239,note_on,239,0,1,,,,,,,,,0,,,58,0
60239,note_on,0,0,1,,,,,,,,,0,,,52,0
60239,note_on,0,0,1,,,,,,,,,0,,,48,0
60239,note_on,0,0,0,,,,,,,,,0,,,60,0
60240,note_on,0,0,1,,,,,,,,,0,,,60,41
60240,note_on,0,0,1,,,,,,,,,0,,,55,41
60240,note_on,0,0,0,,,,,,,,,0,,,72,41
60240,note_on,1,0,0,,,,,,,,,0,,,64,41
60240,note_on,1,0,1,,,,,,,,,0,,,52,41
60240,note_on,0,0,0,,,,,,,,,0,,,67,41
60479,note_on,0,0,0,,,,,,,,,0,,,67,0
60479,note_on,0,0,0,,,,,,,,,0,,,72,0
60479,note_on,239,0,0,,,,,,,,,0,,,64,0
60479,note_on,0,0,1,,,,,,,,,0,,,55,0
60479,note_on,239,0,1,,,,,,,,,0,,,52,0
60479,note_on,0,0,1,,,,,,,,,0,,,60,0
60480,note_on,1,0,1,,,,,,,,,0,,,53,41
60480,note_on,1,0,0,,,,,,,,,0,,,65,41
60480,note_on,0,0,1,,,,,,,,,0,,,57,41
60480,note_on,0,0,0,,,,,,,,,0,,,69,41
60481,control_change,1,0,1,,,,,,,64,0,0,,,,
60482,control_change,1,0,1,,,,,,,64,127,0,,,,
60707,note_on,0,0,1,,,,,,,,,0,,,57,0
60707,note_on,0,0,0,,,,,,,,,0,,,69,0
60707,note_on,225,0,1,,,,,,,,,0,,,53,0
60707,note_on,227,0,0,,,,,,,,,0,,,65,0
60720,note_on,0,0,0,,,,,,,,,0,,,66,41
60720,note_on,0,0,0,,,,,,,,,0,,,69,0
60720,note_on,0,0,0,,,,,,,,,0,,,69,41
60720,note_on,0,0,0,,,,,,,,,0,,,69,41
60720,note_on,13,0,1,,,,,,,,,0,,,45,41
60720,note_on,0,0,1,,,,,,,,,0,,,57,41
60720,set_tempo,13,1,0,,,,,,857143,,,,,,,
60839,note_on,0,0,1,,,,,,,,,0,,,57,0
60839,note_on,119,0,1,,,,,,,,,0,,,45,0
60959,note_on,239,0,0,,,,,,,,,0,,,66,0
60959,note_on,0,0,0,,,,,,,,,0,,,69,0
60960,note_on,0,0,0,,,,,,,,,0,,,67,41
60960,note_on,121,0,1,,,,,,,,,0,,,45,41
60960,note_on,0,0,1,,,,,,,,,0,,,57,41
60960,note_on,0,0,0,,,,,,,,,0,,,69,41
60960,note_on,1,0,0,,,,,,,,,0,,,64,41
61079,note_on,119,0,0,,,,,,,,,0,,,69,0
61079,note_on,119,0,1,,,,,,,,,0,,,45,0
61079,note_on,0,0,1,,,,,,,,,0,,,57,0
61199,note_on,120,0,0,,,,,,,,,0,,,64,0
61199,note_on,0,0,0,,,,,,,,,0,,,67,0
61200,note_on,0,0,0,,,,,,,,,0,,,66,41
61200,note_on,1,0,0,,,,,,,,,0,,,62,41
61200,note_on,121,0,1,,,,,,,,,0,,,45,41
61200,note_on,0,0,1,,,,,,,,,0,,,57,41
61200,note_on,0,0,0,,,,,,,,,0,,,69,41
61319,note_on,119,0,1,,,,,,,,,0,,,45,0
61319,note_on,119,0,0,,,,,,,,,0,,,69,0
61319,note_on,0,0,1,,,,,,,,,0,,,57,0
61439,note_on,120,0,0,,,,,,,,,0,,,62,0
61439,note_on,0,0,0,,,,,,,,,0,,,66,0
61440,note_on,121,0,1,,,,,,,,,0,,,45,41
61440,note_on,0,0,1,,,,,,,,,0,,,57,41
61440,note_on,1,0,0,,,,,,,,,0,,,64,41
61440,note_on,0,0,0,,,,,,,,,0,,,69,41
61440,note_on,0,0,0,,,,,,,,,0,,,67,41
61559,note_on,119,0,1,,,,,,,,,0,,,45,0
61559,note_on,0,0,1,,,,,,,,,0,,,57,0
61559,note_on,119,0,0,,,,,,,,,0,,,69,0
61679,note_on,0,0,0,,,,,,,,,0,,,67,0
61679,note_on,120,0,0,,,,,,,,,0,,,64,0
61680,note_on,0,0,0,,,,,,,,,0,,,66,41
61680,note_on,0,0,0,,,,,,,,,0,,,69,41
61680,note_on,0,0,1,,,,,,,,,0,,,57,41
61680,note_on,121,0,1,,,,,,,,,0,,,45,41
61680,note_on,1,0,0,,,,,,,,,0,,,62,41
61799,note_on,0,0,1,,,,,,,,,0,,,57,0
61799,note_on,119,0,0,,,,,,,,,0,,,69,0
61799,note_on,119,0,1,,,,,,,,,0,,,45,0
61919,note_on,120,0,0,,,,,,,,,0,,,62,0
61919,note_on,0,0,0,,,,,,,,,0,,,66,0
61920,note_on,0,0,0,,,,,,,,,0,,,64,41
61920,note_on,0,0,0,,,,,,,,,0,,,69,41
61920,note_on,0,0,0,,,,,,,,,0,,,61,41
61920,note_on,0,0,1,,,,,,,,,0,,,57,41
61920,set_tempo,1,1,0,,,,,,800000,,,,,,,
61920,note_on,121,0,1,,,,,,,,,0,,,45,41
61921,control_change,1,0,1,,,,,,,64,0,0,,,,
61922,control_change,1,0,1,,,,,,,64,127,0,,,,
62039,note_on,117,0,1,,,,,,,,,0,,,45,0
62039,note_on,0,0,1,,,,,,,,,0,,,57,0
62039,note_on,119,0,0,,,,,,,,,0,,,69,0
62147,note_on,108,0,0,,,,,,,,,0,,,61,0
62147,note_on,0,0,0,,,,,,,,,0,,,64,0
62160,note_on,0,0,1,,,,,,,,,0,,,57,41
62160,note_on,0,0,0,,,,,,,,,0,,,71,41
62160,note_on,121,0,1,,,,,,,,,0,,,45,41
62160,note_on,13,0,0,,,,,,,,,0,,,67,41
62279,note_on,119,0,1,,,,,,,,,0,,,45,0
62279,note_on,119,0,0,,,,,,,,,0,,,71,0
62279,note_on,0,0,1,,,,,,,,,0,,,57,0
62399,note_on,120,0,0,,,,,,,,,0,,,67,0
62400,note_on,0,0,0,,,,,,,,,0,,,69,41
62400,note_on,1,0,0,,,,,,,,,0,,,66,41
62400,note_on,0,0,1,,,,,,,,,0,,,57,41
62400,note_on,121,0,1,,,,,,,,,0,,,45,41
62519,note_on,119,0,0,,,,,,,,,0,,,69,0
62519,note_on,119,0,1,,,,,,,,,0,,,45,0
62519,note_on,0,0,1,,,,,,,,,0,,,57,0
62639,note_on,120,0,0,,,,,,,,,0,,,66,0
62640,note_on,1,0,0,,,,,,,,,0,,,64,41
62640,note_on,121,0,1,,,,,,,,,0,,,45,41
62640,note_on,0,0,1,,,,,,,,,0,,,57,41
62640,note_on,0,0,0,,,,,,,,,0,,,69,41
62640,note_on,0,0,0,,,,,,,,,0,,,67,41
62759,note_on,119,0,0,,,,,,,,,0,,,69,0
62759,note_on,119,0,1,,,,,,,,,0,,,45,0
62759,note_on,0,0,1,,,,,,,,,0,,,57,0
62879,note_on,0,0,0,,,,,,,,,0,,,67,0
62879,note_on,120,0,0,,,,,,,,,0,,,64,0
62880,note_on,0,0,0,,,,,,,,,0,,,69,0
62880,note_on,0,0,0,,,,,,,,,0,,,69,41
62880,note_on,0,0,0,,,,,,,,,0,,,69,41
62880,note_on,0,0,1,,,,,,,,,0,,,57,41
62880,note_on,121,0,1,,,,,,,,,0,,,45,41
62880,note_on,1,0,0,,,,,,,,,0,,,66,41
62999,note_on,0,0,1,,,,,,,,,0,,,57,0
62999,note_on,119,0,1,,,,,,,,,0,,,45,0
63119,note_on,239,0,0,,,,,,,,,0,,,66,0
63119,note_on,0,0,0,,,,,,,,,0,,,69,0
63120,note_on,121,0,1,,,,,,,,,0,,,45,41
63120,note_on,0,0,0,,,,,,,,,0,,,69,41
63120,note_on,0,0,1,,,,,,,,,0,,,57,41
63120,note_on,0,0,0,,,,,,,,,0,,,67,41
63120,note_on,1,0,0,,,,,,,,,0,,,64,41
63239,note_on,0,0,1,,,,,,,,,0,,,57,0
63239,note_on,119,0,1,,,,,,,,,0,,,45,0
63239,note_on,119,0,0,,,,,,,,,0,,,69,0
63359,note_on,120,0,0,,,,,,,,,0,,,64,0
63359,note_on,0,0,0,,,,,,,,,0,,,67,0
63360,note_on,0,0,0,,,,,,,,,0,,,66,41
63360,note_on,121,0,1,,,,,,,,,0,,,45,41
63360,note_on,0,0,1,,,,,,,,,0,,,57,41
63360,note_on,0,0,0,,,,,,,,,0,,,69,41
63360,set_tempo,1,1,0,,,,,,750000,,,,,,,
63360,note_on,0,0,0,,,,,,,,,0,,,62,41
63361,control_change,1,0,1,,,,,,,64,0,0,,,,
63362,control_change,1,0,1,,,,,,,64,127,0,,,,
63479,note_on,117,0,1,,,,,,,,,0,,,45,0
63479,note_on,119,0,0,,,,,,,,,0,,,69,0
63479,note_on,0,0,1,,,,,,,,,0,,,57,0
63587,note_on,0,0,0,,,,,,,,,0,,,66,0
63587,note_on,108,0,0,,,,,,,,,0,,,62,0
63600,note_on,0,0,0,,,,,,,,,0,,,65,41
63600,note_on,121,0,1,,,,,,,,,0,,,33,41
63600,note_on,0,0,0,,,,,,,,,0,,,69,41
63600,note_on,0,0,1,,,,,,,,,0,,,45,41
63600,note_on,13,0,0,,,,,,,,,0,,,57,41
63719,note_on,0,0,1,,,,,,,,,0,,,45,0
63719,note_on,0,0,0,,,,,,,,,0,,,69,0
63719,note_on,0,0,0,,,,,,,,,0,,,65,0
63719,note_on,119,0,0,,,,,,,,,0,,,57,0
63719,note_on,119,0,1,,,,,,,,,0,,,33,0
63840,note_on,0,0,1,,,,,,,,,0,,,45,41
63840,note_on,121,0,0,,,,,,,,,0,,,57,41
63840,note_on,0,0,0,,,,,,,,,0,,,64,41
63840,note_on,0,0,0,,,,,,,,,0,,,67,41
63840,note_on,121,0,1,,,,,,,,,0,,,33,41
63840,note_on,0,0,0,,,,,,,,,0,,,69,41
63959,note_on,0,0,0,,,,,,,,,0,,,64,0
63959,note_on,0,0,0,,,,,,,,,0,,,67,0
63959,note_on,119,0,1,,,,,,,,,0,,,33,0
63959,note_on,0,0,0,,,,,,,,,0,,,69,0
63959,note_on,0,0,1,,,,,,,,,0,,,45,0
63959,note_on,119,0,0,,,,,,,,,0,,,57,0
64080,note_on,121,0,1,,,,,,,,,0,,,33,41
64080,note_on,0,0,1,,,,,,,,,0,,,45,41
64080,note_on,0,0,0,,,,,,,,,0,,,65,41
64080,note_on,0,0,0,,,,,,,,,0,,,69,41
64080,note_on,121,0,0,,,,,,,,,0,,,57,41
64080,note_on,0,0,0,,,,,,,,,0,,,62,41
64199,note_on,119,0,0,,,,,,,,,0,,,57,0
64199,note_on,0,0,0,,,,,,,,,0,,,65,0
64199,note_on,119,0,1,,,,,,,,,0,,,33,0
64199,note_on,0,0,0,,,,,,,,,0,,,62,0
64199,note_on,0,0,0,,,,,,,,,0,,,69,0
64199,note_on,0,0,1,,,,,,,,,0,,,45,0
64320,note_on,0,0,0,,,,,,,,,0,,,64,41
64320,note_on,121,0,0,,,,,,,,,0,,,57,41
64320,note_on,0,0,0,,,,,,,,,0,,,67,41
64320,note_on,0,0,0,,,,,,,,,0,,,69,41
64320,note_on,121,0,1,,,,,,,,,0,,,33,41
64320,note_on,0,0,1,,,,,,,,,0,,,45,41
64439,note_on,0,0,0,,,,,,,,,0,,,67,0
64439,note_on,0,0,0,,,,,,,,,0,,,69,0
64439,note_on,119,0,1,,,,,,,,,0,,,33,0
64439,note_on,0,0,0,,,,,,,,,0,,,64,0
64439,note_on,119,0,0,,,,,,,,,0,,,57,0
64439,note_on,0,0,1,,,,,,,,,0,,,45,0
64560,note_on,0,0,0,,,,,,,,,0,,,69,41
64560,note_on,121,0,1,,,,,,,,,0,,,33,41
64560,note_on,121,0,0,,,,,,,,,0,,,57,41
64560,note_on,0,0,1,,,,,,,,,0,,,45,41
64560,note_on,0,0,0,,,,,,,,,0,,,65,41
64560,note_on,0,0,0,,,,,,,,,0,,,62,41
64679,note_on,0,0,0,,,,,,,,,0,,,65,0
64679,note_on,0,0,0,,,,,,,,,0,,,62,0
64679,note_on,0,0,0,,,,,,,,,0,,,69,0
64679,note_on,119,0,1,,,,,,,,,0,,,33,0
64679,note_on,119,0,0,,,,,,,,,0,,,57,0
64679,note_on,0,0,1,,,,,,,,,0,,,45,0
64800,note_on,121,0,1,,,,,,,,,0,,,33,41
64800,note_on,0,0,0,,,,,,,,,0,,,69,41
64800,note_on,0,0,0,,,,,,,,,0,,,64,41
64800,note_on,0,0,0,,,,,,,,,0,,,61,41
64800,note_on,0,0,1,,,,,,,,,0,,,45,41
64800,note_on,121,0,0,,,,,,,,,0,,,57,41
64801,control_change,1,0,1,,,,,,,64,0,0,,,,
64802,control_change,1,0,1,,,,,,,64,127,0,,,,
64919,note_on,0,0,0,,,,,,,,,0,,,69,0
64919,note_on,0,0,1,,,,,,,,,0,,,45,0
64919,note_on,0,0,0,,,,,,,,,0,,,64,0
64919,note_on,119,0,0,,,,,,,,,0,,,57,0
64919,note_on,0,0,0,,,,,,,,,0,,,61,0
64919,note_on,117,0,1,,,,,,,,,0,,,33,0
65040,note_on,121,0,1,,,,,,,,,0,,,33,42
65040,note_on,0,0,0,,,,,,,,,0,,,67,42
65040,note_on,0,0,0,,,,,,,,,0,,,70,42
65040,note_on,121,0,0,,,,,,,,,0,,,57,42
65040,note_on,0,0,1,,,,,,,,,0,,,45,42
65159,note_on,119,0,0,,,,,,,,,0,,,57,0
65159,note_on,0,0,1,,,,,,,,,0,,,45,0
65159,note_on,0,0,0,,,,,,,,,0,,,67,0
65159,note_on,119,0,1,,,,,,,,,0,,,33,0
65159,note_on,0,0,0,,,,,,,,,0,,,70,0
65280,note_on,121,0,1,,,,,,,,,0,,,33,43
65280,note_on,0,0,0,,,,,,,,,0,,,69,43
65280,note_on,0,0,0,,,,,,,,,0,,,65,43
65280,note_on,121,0,0,,,,,,,,,0,,,57,43
65280,note_on,0,0,1,,,,,,,,,0,,,46,43
65399,note_on,119,0,1,,,,,,,,,0,,,33,0
65399,note_on,0,0,0,,,,,,,,,0,,,69,0
65399,note_on,119,0,0,,,,,,,,,0,,,57,0
65399,note_on,0,0,0,,,,,,,,,0,,,65,0
65399,note_on,0,0,1,,,,,,,,,0,,,46,0
65520,note_on,0,0,0,,,,,,,,,0,,,67,45
65520,note_on,121,0,1,,,,,,,,,0,,,33,45
65520,note_on,0,0,0,,,,,,,,,0,,,64,45
65520,note_on,0,0,1,,,,,,,,,0,,,47,45
65520,note_on,121,0,0,,,,,,,,,0,,,57,45
65520,note_on,0,0,0,,,,,,,,,0,,,69,45
65639,note_on,119,0,1,,,,,,,,,0,,,33,0
65639,note_on,0,0,0,,,,,,,,,0,,,69,0
65639,note_on,0,0,0,,,,,,,,,0,,,64,0
65639,note_on,0,0,1,,,,,,,,,0,,,47,0
65639,note_on,119,0,0,,,,,,,,,0,,,57,0
65639,note_on,0,0,0,,,,,,,,,0,,,67,0
65760,note_on,0,0,0,,,,,,,,,0,,,65,46
65760,note_on,0,0,0,,,,,,,,,0,,,69,46
65760,note_on,121,0,1,,,,,,,,,0,,,33,46
65760,note_on,0,0,1,,,,,,,,,0,,,48,46
65760,note_on,121,0,0,,,,,,,,,0,,,57,46
65879,note_on,0,0,0,,,,,,,,,0,,,69,0
65879,note_on,119,0,1,,,,,,,,,0,,,33,0
65879,note_on,0,0,1,,,,,,,,,0,,,48,0
65879,note_on,119,0,0,,,,,,,,,0,,,57,0
65879,note_on,0,0,0,,,,,,,,,0,,,65,0
66000,note_on,121,0,0,,,,,,,,,0,,,57,47
66000,note_on,121,0,1,,,,,,,,,0,,,33,47
66000,note_on,0,0,1,,,,,,,,,0,,,49,47
66000,note_on,0,0,0,,,,,,,,,0,,,64,47
66000,note_on,0,0,0,,,,,,,,,0,,,67,47
66000,note_on,0,0,0,,,,,,,,,0,,,69,47
66119,note_on,0,0,1,,,,,,,,,0,,,49,0
66119,note_on,0,0,0,,,,,,,,,0,,,64,0
66119,note_on,0,0,0,,,,,,,,,0,,,67,0
66119,note_on,0,0,0,,,,,,,,,0,,,69,0
66119,note_on,119,0,1,,,,,,,,,0,,,33,0
66119,note_on,119,0,0,,,,,,,,,0,,,57,0
66240,note_on,0,0,1,,,,,,,,,0,,,50,49
66240,note_on,0,0,0,,,,,,,,,0,,,57,49
66240,note_on,0,0,0,,,,,,,,,0,,,62,49
66240,note_on,0,0,0,,,,,,,,,0,,,65,49
66240,note_on,0,0,0,,,,,,,,,0,,,69,49
66240,set_tempo,121,1,0,,,,,,800000,,,,,,,
66240,note_on,121,0,1,,,,,,,,,0,,,38,49
66241,control_change,1,0,1,,,,,,,64,0,0,,,,
66242,control_change,1,0,1,,,,,,,64,127,0,,,,
66467,note_on,0,0,0,,,,,,,,,0,,,69,0
66467,note_on,225,0,1,,,,,,,,,0,,,38,0
66467,note_on,0,0,0,,,,,,,,,0,,,65,0
66467,note_on,0,0,0,,,,,,,,,0,,,57,0
66467,note_on,227,0,0,,,,,,,,,0,,,62,0
66480,note_on,0,0,0,,,,,,,,,0,,,67,54
66480,note_on,13,0,0,,,,,,,,,0,,,63,54
66707,note_on,227,0,0,,,,,,,,,0,,,63,0
66707,note_on,0,0,0,,,,,,,,,0,,,67,0
66720,note_on,0,0,0,,,,,,,,,0,,,68,59
66720,note_on,13,0,0,,,,,,,,,0,,,64,59
66947,note_on,0,0,0,,,,,,,,,0,,,68,0
66947,note_on,227,0,0,,,,,,,,,0,,,64,0
66960,note_on,13,0,0,,,,,,,,,0,,,65,64
66960,note_on,0,0,0,,,,,,,,,0,,,69,64
67151,note_on,684,0,1,,,,,,,,,0,,,50,0
67200,note_on,240,0,0,,,,,,,,,0,,,61,64
67200,note_on,49,0,1,,,,,,,,,0,,,52,64
67427,note_on,227,0,1,,,,,,,,,0,,,52,0
67427,note_on,227,0,0,,,,,,,,,0,,,61,0
67440,note_on,13,0,0,,,,,,,,,0,,,60,64
67440,note_on,13,0,1,,,,,,,,,0,,,53,64
67667,note_on,227,0,0,,,,,,,,,0,,,60,0
67667,note_on,227,0,1,,,,,,,,,0,,,53,0
67680,note_on,13,0,0,,,,,,,,,0,,,59,64
67680,note_on,13,0,1,,,,,,,,,0,,,55,64
67871,note_on,0,0,0,,,,,,,,,0,,,69,0
67871,note_on,191,0,0,,,,,,,,,0,,,65,0
67920,note_on,0,0,0,,,,,,,,,0,,,68,64
67920,note_on,240,0,1,,,,,,,,,0,,,43,64
67920,note_on,49,0,0,,,,,,,,,0,,,65,64
68135,note_on,215,0,0,,,,,,,,,0,,,59,0
68147,note_on,227,0,1,,,,,,,,,0,,,43,0
68147,note_on,0,0,0,,,,,,,,,0,,,68,0
68147,note_on,12,0,0,,,,,,,,,0,,,65,0
68160,note_on,13,0,0,,,,,,,,,0,,,64,64
68160,note_on,13,0,1,,,,,,,,,0,,,44,64
68160,note_on,0,0,0,,,,,,,,,0,,,67,64
68387,note_on,0,0,0,,,,,,,,,0,,,67,0
68387,note_on,227,0,0,,,,,,,,,0,,,64,0
68387,note_on,227,0,1,,,,,,,,,0,,,44,0
68400,note_on,0,0,0,,,,,,,,,0,,,66,64
68400,note_on,13,0,0,,,,,,,,,0,,,63,64
68400,note_on,13,0,1,,,,,,,,,0,,,45,64
68627,note_on,227,0,1,,,,,,,,,0,,,45,0
68627,note_on,0,0,0,,,,,,,,,0,,,66,0
68627,note_on,227,0,0,,,,,,,,,0,,,63,0
68640,note_on,0,0,0,,,,,,,,,0,,,67,64
68640,note_on,13,0,1,,,,,,,,,0,,,46,64
68640,note_on,13,0,0,,,,,,,,,0,,,64,64
68867,note_on,227,0,0,,,,,,,,,0,,,64,0
68867,note_on,227,0,1,,,,,,,,,0,,,46,0
68867,note_on,0,0,0,,,,,,,,,0,,,67,0
68880,note_on,13,0,0,,,,,,,,,0,,,62,64
68880,note_on,13,0,1,,,,,,,,,0,,,47,64
68880,note_on,0,0,0,,,,,,,,,0,,,65,64
69107,note_on,227,0,1,,,,,,,,,0,,,47,0
69107,note_on,0,0,0,,,,,,,,,0,,,65,0
69107,note_on,227,0,0,,,,,,,,,0,,,62,0
69120,note_on,13,0,0,,,,,,,,,0,,,60,64
69120,note_on,0,0,0,,,,,,,,,0,,,64,64
69120,note_on,13,0,1,,,,,,,,,0,,,48,64
69121,control_change,1,0,1,,,,,,,64,0,0,,,,
69122,control_change,1,0,1,,,,,,,64,127,0,,,,
69347,note_on,0,0,0,,,,,,,,,0,,,64,0
69347,note_on,225,0,1,,,,,,,,,0,,,48,0
69347,note_on,227,0,0,,,,,,,,,0,,,60,0
69360,note_on,0,0,0,,,,,,,,,0,,,70,66
69360,note_on,13,0,0,,,,,,,,,0,,,67,66
69587,note_on,227,0,0,,,,,,,,,0,,,67,0
69587,note_on,0,0,0,,,,,,,,,0,,,70,0
69600,note_on,13,0,0,,,,,,,,,0,,,66,69
69600,note_on,0,0,0,,,,,,,,,0,,,69,69
69827,note_on,227,0,0,,,,,,,,,0,,,66,0
69827,note_on,0,0,0,,,,,,,,,0,,,69,0
69840,note_on,0,0,0,,,,,,,,,0,,,74,72
69840,note_on,13,0,0,,,,,,,,,0,,,70,72
69959,note_on,612,0,1,,,,,,,,,0,,,55,0
70080,note_on,240,0,0,,,,,,,,,0,,,67,74
70080,note_on,121,0,1,,,,,,,,,0,,,58,74
70307,note_on,227,0,0,,,,,,,,,0,,,67,0
70307,note_on,227,0,1,,,,,,,,,0,,,58,0
70320,note_on,13,0,0,,,,,,,,,0,,,65,77
70320,note_on,13,0,1,,,,,,,,,0,,,59,77
70547,note_on,227,0,0,,,,,,,,,0,,,65,0
70547,note_on,227,0,1,,,,,,,,,0,,,59,0
70560,note_on,13,0,0,,,,,,,,,0,,,64,80
70560,note_on,13,0,1,,,,,,,,,0,,,60,80
70561,control_change,1,0,1,,,,,,,64,0,0,,,,
70562,control_change,1,0,1,,,,,,,64,127,0,,,,
70751,note_on,0,0,0,,,,,,,,,0,,,74,0
70751,note_on,191,0,0,,,,,,,,,0,,,70,0
70800,note_on,49,0,0,,,,,,,,,0,,,70,93
70800,note_on,238,0,1,,,,,,,,,0,,,48,78
70800,note_on,0,0,0,,,,,,,,,0,,,73,93
71015,note_on,215,0,0,,,,,,,,,0,,,64,0
71027,note_on,227,0,1,,,,,,,,,0,,,48,0
71039,note_on,24,0,0,,,,,,,,,0,,,70,0
71039,note_on,0,0,0,,,,,,,,,0,,,73,0
71040,note_on,0,0,0,,,,,,,,,0,,,72,75
71040,note_on,1,0,0,,,,,,,,,0,,,69,75
71040,note_on,13,0,1,,,,,,,,,0,,,49,75
71267,note_on,227,0,0,,,,,,,,,0,,,69,0
71267,note_on,0,0,0,,,,,,,,,0,,,72,0
71267,note_on,227,0,1,,,,,,,,,0,,,49,0
71280,note_on,0,0,0,,,,,,,,,0,,,68,72
71280,set_tempo,13,1,0,,,,,,821918,,,,,,,
71280,note_on,13,0,1,,,,,,,,,0,,,50,72
71280,note_on,0,0,0,,,,,,,,,0,,,71,72
71507,note_on,0,0,0,,,,,,,,,0,,,71,0
71507,note_on,227,0,1,,,,,,,,,0,,,50,0
71507,note_on,227,0,0,,,,,,,,,0,,,68,0
71520,note_on,0,0,0,,,,,,,,,0,,,69,70
71520,note_on,0,0,0,,,,,,,,,0,,,72,70
71520,set_tempo,13,1,0,,,,,,845070,,,,,,,
71520,note_on,13,0,1,,,,,,,,,0,,,51,70
71747,note_on,227,0,0,,,,,,,,,0,,,69,0
71747,note_on,0,0,0,,,,,,,,,0,,,72,0
71747,note_on,227,0,1,,,,,,,,,0,,,51,0
71760,note_on,0,0,0,,,,,,,,,0,,,70,67
71760,note_on,0,0,0,,,,,,,,,0,,,67,67
71760,set_tempo,13,1,0,,,,,,869565,,,,,,,
71760,note_on,13,0,1,,,,,,,,,0,,,52,67
71987,note_on,0,0,0,,,,,,,,,0,,,70,0
71987,note_on,227,0,0,,,,,,,,,0,,,67,0
71987,note_on,227,0,1,,,,,,,,,0,,,52,0
72000,note_on,13,0,0,,,,,,,,,0,,,65,64
72000,note_on,0,0,0,,,,,,,,,0,,,69,64
72000,note_on,13,0,1,,,,,,,,,0,,,53,64
72001,control_change,1,0,1,,,,,,,64,0,0,,,,
72002,control_change,1,0,1,,,,,,,64,127,0,,,,
72155,note_on,153,0,1,,,,,,,,,0,,,60,0
72227,note_on,227,0,0,,,,,,,,,0,,,65,0
72227,note_on,0,0,0,,,,,,,,,0,,,69,0
72227,note_on,72,0,1,,,,,,,,,0,,,53,0
72240,note_on,0,0,0,,,,,,,,,0,,,69,64
72240,note_on,13,0,1,,,,,,,,,0,,,53,64
72240,note_on,0,0,1,,,,,,,,,0,,,60,64
72240,note_on,13,0,0,,,,,,,,,0,,,65,64
72359,note_on,119,0,0,,,,,,,,,0,,,65,0
72359,note_on,0,0,0,,,,,,,,,0,,,69,0
72359,note_on,0,0,1,,,,,,,,,0,,,60,0
72359,note_on,119,0,1,,,,,,,,,0,,,53,0
72480,note_on,0,0,0,,,,,,,,,0,,,69,64
72480,note_on,0,0,0,,,,,,,,,0,,,72,64
72480,note_on,0,0,1,,,,,,,,,0,,,60,64
72480,note_on,121,0,1,,,,,,,,,0,,,53,64
72480,note_on,0,0,1,,,,,,,,,0,,,65,64
72480,set_tempo,121,1,0,,,,,,800000,,,,,,,
72480,note_on,0,0,0,,,,,,,,,0,,,81,64
72599,note_on,0,0,1,,,,,,,,,0,,,60,0
72599,note_on,119,0,0,,,,,,,,,0,,,69,0
72599,note_on,0,0,0,,,,,,,,,0,,,72,0
72599,note_on,0,0,0,,,,,,,,,0,,,81,0
72599,note_on,119,0,1,,,,,,,,,0,,,53,0
72599,note_on,0,0,1,,,,,,,,,0,,,65,0
72720,note_on,121,0,1,,,,,,,,,0,,,53,64
72720,note_on,121,0,0,,,,,,,,,0,,,70,64
72720,note_on,0,0,0,,,,,,,,,0,,,79,64
72720,note_on,0,0,0,,,,,,,,,0,,,73,64
72720,note_on,0,0,1,,,,,,,,,0,,,64,64
72720,note_on,0,0,1,,,,,,,,,0,,,67,64
72839,note_on,0,0,0,,,,,,,,,0,,,79,0
72839,note_on,0,0,0,,,,,,,,,0,,,73,0
72839,note_on,119,0,0,,,,,,,,,0,,,70,0
72839,note_on,119,0,1,,,,,,,,,0,,,53,0
72839,note_on,0,0,1,,,,,,,,,0,,,64,0
72839,note_on,0,0,1,,,,,,,,,0,,,67,0
72960,note_on,0,0,0,,,,,,,,,0,,,77,64
72960,note_on,121,0,1,,,,,,,,,0,,,53,64
72960,note_on,0,0,0,,,,,,,,,0,,,74,64
72960,note_on,0,0,0,,,,,,,,,0,,,70,64
72960,set_tempo,121,1,0,,,,,,750000,,,,,,,
72960,note_on,0,0,1,,,,,,,,,0,,,62,64
72960,note_on,0,0,1,,,,,,,,,0,,,65,64
73079,note_on,0,0,0,,,,,,,,,0,,,77,0
73079,note_on,0,0,0,,,,,,,,,0,,,74,0
73079,note_on,0,0,1,,,,,,,,,0,,,62,0
73079,note_on,0,0,1,,,,,,,,,0,,,65,0
73079,note_on,119,0,1,,,,,,,,,0,,,53,0
73079,note_on,119,0,0,,,,,,,,,0,,,70,0
73200,note_on,0,0,1,,,,,,,,,0,,,62,64
73200,note_on,121,0,1,,,,,,,,,0,,,53,64
73200,note_on,0,0,0,,,,,,,,,0,,,70,64
73200,note_on,121,0,0,,,,,,,,,0,,,65,64
73319,note_on,119,0,0,,,,,,,,,0,,,65,0
73319,note_on,0,0,0,,,,,,,,,0,,,70,0
73319,note_on,0,0,1,,,,,,,,,0,,,62,0
73319,note_on,119,0,1,,,,,,,,,0,,,53,0
73440,note_on,121,0,0,,,,,,,,,0,,,68,64
73440,note_on,0,0,1,,,,,,,,,0,,,65,64
73440,note_on,0,0,1,,,,,,,,,0,,,62,64
73440,note_on,0,0,0,,,,,,,,,0,,,77,64
73440,note_on,0,0,0,,,,,,,,,0,,,71,64
73440,note_on,121,0,1,,,,,,,,,0,,,53,64
73441,control_change,1,0,1,,,,,,,64,0,0,,,,
73442,control_change,1,0,1,,,,,,,64,127,0,,,,
73559,note_on,117,0,1,,,,,,,,,0,,,53,0
73559,note_on,119,0,0,,,,,,,,,0,,,68,0
73559,note_on,0,0,0,,,,,,,,,0,,,71,0
73559,note_on,0,0,0,,,,,,,,,0,,,77,0
73559,note_on,0,0,1,,,,,,,,,0,,,65,0
73559,note_on,0,0,1,,,,,,,,,0,,,62,0
73680,note_on,0,0,1,,,,,,,,,0,,,64,64
73680,note_on,121,0,0,,,,,,,,,0,,,69,64
73680,note_on,0,0,0,,,,,,,,,0,,,72,64
73680,note_on,0,0,0,,,,,,,,,0,,,76,64
73680,note_on,121,0,1,,,,,,,,,0,,,53,64
73680,note_on,0,0,1,,,,,,,,,0,,,60,64
73799,note_on,119,0,1,,,,,,,,,0,,,53,0
73799,note_on,0,0,1,,,,,,,,,0,,,64,0
73799,note_on,119,0,0,,,,,,,,,0,,,69,0
73799,note_on,0,0,1,,,,,,,,,0,,,60,0
73799,note_on,0,0,0,,,,,,,,,0,,,76,0
73799,note_on,0,0,0,,,,,,,,,0,,,72,0
73920,note_on,0,0,1,,,,,,,,,0,,,62,64
73920,note_on,0,0,1,,,,,,,,,0,,,58,64
73920,note_on,121,0,1,,,,,,,,,0,,,53,64
73920,note_on,121,0,0,,,,,,,,,0,,,65,64
73920,note_on,0,0,0,,,,,,,,,0,,,74,64
73920,note_on,0,0,0,,,,,,,,,0,,,70,64
74039,note_on,119,0,0,,,,,,,,,0,,,65,0
74039,note_on,119,0,1,,,,,,,,,0,,,53,0
74039,note_on,0,0,0,,,,,,,,,0,,,70,0
74039,note_on,0,0,1,,,,,,,,,0,,,58,0
74039,note_on,0,0,1,,,,,,,,,0,,,62,0
74039,note_on,0,0,0,,,,,,,,,0,,,74,0
74160,note_on,121,0,1,,,,,,,,,0,,,53,64
74160,note_on,0,0,1,,,,,,,,,0,,,58,64
74160,note_on,0,0,0,,,,,,,,,0,,,65,64
74160,note_on,121,0,0,,,,,,,,,0,,,62,64
74279,note_on,119,0,0,,,,,,,,,0,,,62,0
74279,note_on,119,0,1,,,,,,,,,0,,,53,0
74279,note_on,0,0,0,,,,,,,,,0,,,65,0
74279,note_on,0,0,1,,,,,,,,,0,,,58,0
74400,note_on,0,0,1,,,,,,,,,0,,,62,64
74400,note_on,0,0,1,,,,,,,,,0,,,58,64
74400,note_on,0,0,0,,,,,,,,,0,,,74,64
74400,note_on,121,0,1,,,,,,,,,0,,,53,64
74400,note_on,121,0,0,,,,,,,,,0,,,65,64
74519,note_on,0,0,1,,,,,,,,,0,,,58,0
74519,note_on,0,0,1,,,,,,,,,0,,,62,0
74519,note_on,119,0,1,,,,,,,,,0,,,53,0
74519,note_on,0,0,0,,,,,,,,,0,,,74,0
74519,note_on,119,0,0,,,,,,,,,0,,,65,0
74640,note_on,121,0,0,,,,,,,,,0,,,66,64
74640,note_on,121,0,1,,,,,,,,,0,,,53,64
74640,note_on,0,0,0,,,,,,,,,0,,,72,64
74640,note_on,0,0,1,,,,,,,,,0,,,63,64
74640,note_on,0,0,1,,,,,,,,,0,,,57,64
74759,note_on,119,0,0,,,,,,,,,0,,,66,0
74759,note_on,0,0,0,,,,,,,,,0,,,72,0
74759,note_on,119,0,1,,,,,,,,,0,,,53,0
74759,note_on,0,0,1,,,,,,,,,0,,,57,0
74759,note_on,0,0,1,,,,,,,,,0,,,63,0
74880,note_on,0,0,1,,,,,,,,,0,,,59,64
74880,note_on,0,0,1,,,,,,,,,0,,,62,64
74880,note_on,121,0,1,,,,,,,,,0,,,56,64
74880,note_on,121,0,0,,,,,,,,,0,,,65,64
74880,note_on,0,0,0,,,,,,,,,0,,,68,64
74880,note_on,0,0,0,,,,,,,,,0,,,71,64
74881,control_change,1,0,1,,,,,,,64,0,0,,,,
74882,control_change,1,0,1,,,,,,,64,127,0,,,,
75119,note_on,239,0,0,,,,,,,,,0,,,68,0
75119,note_on,237,0,1,,,,,,,,,0,,,56,0
75120,note_on,1,0,1,,,,,,,,,0,,,55,64
75120,note_on,1,0,0,,,,,,,,,0,,,67,64
75347,note_on,227,0,1,,,,,,,,,0,,,55,0
75347,note_on,227,0,0,,,,,,,,,0,,,65,0
75347,note_on,0,0,0,,,,,,,,,0,,,67,0
75359,note_on,12,0,1,,,,,,,,,0,,,59,0
75359,note_on,0,0,1,,,,,,,,,0,,,62,0
75359,note_on,12,0,0,,,,,,,,,0,,,71,0
75360,note_on,0,0,1,,,,,,,,,0,,,55,64
75360,note_on,1,0,1,,,,,,,,,0,,,53,64
75360,note_on,0,0,0,,,,,,,,,0,,,67,64
75360,note_on,0,0,0,,,,,,,,,0,,,70,64
75360,note_on,0,0,1,,,,,,,,,0,,,58,64
75360,note_on,1,0,0,,,,,,,,,0,,,61,64
75599,note_on,239,0,0,,,,,,,,,0,,,61,0
75599,note_on,239,0,1,,,,,,,,,0,,,53,0
75600,note_on,1,0,1,,,,,,,,,0,,,52,64
75600,note_on,1,0,0,,,,,,,,,0,,,60,64
75827,note_on,227,0,1,,,,,,,,,0,,,52,0
75827,note_on,227,0,0,,,,,,,,,0,,,60,0
75839,note_on,0,0,0,,,,,,,,,0,,,70,0
75839,note_on,0,0,1,,,,,,,,,0,,,58,0
75839,note_on,12,0,1,,,,,,,,,0,,,55,0
75839,note_on,12,0,0,,,,,,,,,0,,,67,0
75840,note_on,0,0,0,,,,,,,,,0,,,65,76
75840,note_on,0,0,1,,,,,,,,,0,,,58,76
75840,set_tempo,1,1,0,,,,,,800000,,,,,,,
75840,note_on,0,0,0,,,,,,,,,0,,,73,76
75840,note_on,0,0,0,,,,,,,,,0,,,61,76
75840,note_on,1,0,1,,,,,,,,,0,,,49,76
75840,note_on,0,0,1,,,,,,,,,0,,,55,76
76079,note_on,0,0,1,,,,,,,,,0,,,55,0
76079,note_on,239,0,0,,,,,,,,,0,,,61,0
76079,note_on,0,0,1,,,,,,,,,0,,,58,0
76079,note_on,0,0,0,,,,,,,,,0,,,73,0
76079,note_on,239,0,1,,,,,,,,,0,,,49,0
76079,note_on,0,0,0,,,,,,,,,0,,,65,0
76080,note_on,0,0,0,,,,,,,,,0,,,72,64
76080,note_on,0,0,1,,,,,,,,,0,,,58,64
76080,note_on,1,0,0,,,,,,,,,0,,,60,64
76080,note_on,1,0,1,,,,,,,,,0,,,48,64
76080,note_on,0,0,0,,,,,,,,,0,,,64,64
76080,note_on,0,0,1,,,,,,,,,0,,,55,64
76307,note_on,0,0,0,,,,,,,,,0,,,64,0
76307,note_on,227,0,0,,,,,,,,,0,,,60,0
76307,note_on,0,0,0,,,,,,,,,0,,,72,0
76307,note_on,0,0,1,,,,,,,,,0,,,55,0
76307,note_on,0,0,1,,,,,,,,,0,,,58,0
76307,note_on,227,0,1,,,,,,,,,0,,,48,0
76320,note_on,13,0,0,,,,,,,,,0,,,60,64
76320,note_on,0,0,0,,,,,,,,,0,,,69,64
76320,note_on,0,0,1,,,,,,,,,0,,,57,64
76320,note_on,13,0,1,,,,,,,,,0,,,53,64
76320,note_on,0,0,0,,,,,,,,,0,,,65,64
76321,control_change,1,0,1,,,,,,,64,0,0,,,,
76322,control_change,1,0,1,,,,,,,64,127,0,,,,
76547,note_on,0,0,1,,,,,,,,,0,,,57,0
76547,note_on,227,0,0,,,,,,,,,0,,,60,0
76547,note_on,225,0,1,,,,,,,,,0,,,53,0
76547,note_on,0,0,0,,,,,,,,,0,,,69,0
76547,note_on,0,0,0,,,,,,,,,0,,,65,0
76560,note_on,0,0,0,,,,,,,,,0,,,69,64
76560,note_on,13,0,0,,,,,,,,,0,,,60,64
76560,note_on,0,0,0,,,,,,,,,0,,,65,64
76560,note_on,13,0,1,,,,,,,,,0,,,41,64
76586,note_on,26,0,1,,,,,,,,,0,,,48,64
76612,note_on,26,0,1,,,,,,,,,0,,,53,64
76638,note_on,26,0,1,,,,,,,,,0,,,57,64
76798,note_on,0,0,1,,,,,,,,,0,,,53,0
76798,note_on,0,0,1,,,,,,,,,0,,,57,0
76798,note_on,160,0,1,,,,,,,,,0,,,48,0
76799,note_on,1,0,1,,,,,,,,,0,,,41,0
76799,note_on,239,0,0,,,,,,,,,0,,,60,0
76799,note_on,0,0,0,,,,,,,,,0,,,65,0
76799,note_on,0,0,0,,,,,,,,,0,,,69,0
76800,note_on,0,0,1,,,,,,,,,0,,,65,64
76800,note_on,1,0,1,,,,,,,,,0,,,53,64
76800,set_tempo,1,1,0,,,,,,750000,,,,,,,
76800,note_on,0,0,0,,,,,,,,,0,,,69,64
76800,note_on,0,0,0,,,,,,,,,0,,,81,64
76800,note_on,0,0,1,,,,,,,,,0,,,60,64
76800,note_on,0,0,0,,,,,,,,,0,,,72,64
76878,note_on,0,0,0,,,,,,,,,0,,,81,0
76878,note_on,0,0,0,,,,,,,,,0,,,72,0
76878,note_on,78,0,0,,,,,,,,,0,,,69,0
76878,note_on,78,0,1,,,,,,,,,0,,,53,0
76878,note_on,0,0,1,,,,,,,,,0,,,65,0
76878,note_on,0,0,1,,,,,,,,,0,,,60,0
77040,note_on,0,0,1,,,,,,,,,0,,,58,64
77040,note_on,0,0,0,,,,,,,,,0,,,73,64
77040,note_on,162,0,1,,,,,,,,,0,,,53,64
77040,note_on,0,0,1,,,,,,,,,0,,,61,64
77040,note_on,0,0,1,,,,,,,,,0,,,64,64
77040,note_on,162,0,0,,,,,,,,,0,,,67,64
77040,note_on,0,0,0,,,,,,,,,0,,,70,64
77040,note_on,0,0,0,,,,,,,,,0,,,79,64
77267,note_on,227,0,1,,,,,,,,,0,,,53,0
77267,note_on,0,0,0,,,,,,,,,0,,,73,0
77267,note_on,0,0,0,,,,,,,,,0,,,79,0
77267,note_on,0,0,0,,,,,,,,,0,,,70,0
77267,note_on,227,0,0,,,,,,,,,0,,,67,0
77267,note_on,0,0,1,,,,,,,,,0,,,64,0
77267,note_on,0,0,1,,,,,,,,,0,,,58,0
77267,note_on,0,0,1,,,,,,,,,0,,,61,0
77280,note_on,0,0,0,,,,,,,,,0,,,70,64
77280,note_on,0,0,0,,,,,,,,,0,,,74,64
77280,note_on,0,0,1,,,,,,,,,0,,,62,64
77280,note_on,13,0,1,,,,,,,,,0,,,53,64
77280,note_on,0,0,1,,,,,,,,,0,,,58,64
77280,note_on,0,0,0,,,,,,,,,0,,,77,64
77280,note_on,13,0,0,,,,,,,,,0,,,65,64
77507,note_on,227,0,0,,,,,,,,,0,,,65,0
77507,note_on,0,0,1,,,,,,,,,0,,,62,0
77507,note_on,0,0,0,,,,,,,,,0,,,77,0
77507,note_on,0,0,0,,,,,,,,,0,,,74,0
77507,note_on,0,0,0,,,,,,,,,0,,,70,0
77507,note_on,0,0,1,,,,,,,,,0,,,58,0
77507,note_on,227,0,1,,,,,,,,,0,,,53,0
77520,note_on,13,0,1,,,,,,,,,0,,,53,66
77520,note_on,13,0,0,,,,,,,,,0,,,65,66
77520,note_on,0,0,1,,,,,,,,,0,,,62,66
77520,note_on,0,0,0,,,,,,,,,0,,,70,66
77747,note_on,227,0,0,,,,,,,,,0,,,65,0
77747,note_on,227,0,1,,,,,,,,,0,,,53,0
77747,note_on,0,0,1,,,,,,,,,0,,,62,0
77747,note_on,0,0,0,,,,,,,,,0,,,70,0
77760,note_on,0,0,0,,,,,,,,,0,,,77,68
77760,note_on,0,0,1,,,,,,,,,0,,,65,68
77760,note_on,0,0,0,,,,,,,,,0,,,71,68
77760,note_on,13,0,0,,,,,,,,,0,,,68,68
77760,note_on,0,0,1,,,,,,,,,0,,,62,68
77760,note_on,13,0,1,,,,,,,,,0,,,53,68
77761,control_change,1,0,1,,,,,,,64,0,0,,,,
77762,control_change,1,0,1,,,,,,,64,127,0,,,,
77987,note_on,0,0,0,,,,,,,,,0,,,71,0
77987,note_on,225,0,1,,,,,,,,,0,,,53,0
77987,note_on,227,0,0,,,,,,,,,0,,,68,0
77987,note_on,0,0,0,,,,,,,,,0,,,77,0
77987,note_on,0,0,1,,,,,,,,,0,,,62,0
77987,note_on,0,0,1,,,,,,,,,0,,,65,0
78000,note_on,13,0,1,,,,,,,,,0,,,53,70
78000,note_on,13,0,0,,,,,,,,,0,,,69,70
78000,note_on,0,0,0,,,,,,,,,0,,,72,70
78000,note_on,0,0,1,,,,,,,,,0,,,60,70
78000,note_on,0,0,1,,,,,,,,,0,,,64,70
78000,note_on,0,0,0,,,,,,,,,0,,,76,70
78227,note_on,0,0,1,,,,,,,,,0,,,60,0
78227,note_on,0,0,1,,,,,,,,,0,,,64,0
78227,note_on,227,0,0,,,,,,,,,0,,,69,0
78227,note_on,0,0,0,,,,,,,,,0,,,76,0
78227,note_on,227,0,1,,,,,,,,,0,,,53,0
78227,note_on,0,0,0,,,,,,,,,0,,,72,0
78240,note_on,0,0,1,,,,,,,,,0,,,58,72
78240,note_on,0,0,0,,,,,,,,,0,,,70,72
78240,note_on,0,0,1,,,,,,,,,0,,,62,72
78240,note_on,13,0,0,,,,,,,,,0,,,65,72
78240,note_on,13,0,1,,,,,,,,,0,,,53,72
78240,note_on,0,0,0,,,,,,,,,0,,,74,72
78467,note_on,227,0,0,,,,,,,,,0,,,65,0
78467,note_on,227,0,1,,,,,,,,,0,,,53,0
78467,note_on,0,0,0,,,,,,,,,0,,,74,0
78467,note_on,0,0,0,,,,,,,,,0,,,70,0
78467,note_on,0,0,1,,,,,,,,,0,,,58,0
78467,note_on,0,0,1,,,,,,,,,0,,,62,0
78480,note_on,0,0,0,,,,,,,,,0,,,65,74
78480,note_on,0,0,1,,,,,,,,,0,,,58,74
78480,note_on,13,0,1,,,,,,,,,0,,,53,74
78480,note_on,13,0,0,,,,,,,,,0,,,62,74
78719,note_on,0,0,0,,,,,,,,,0,,,65,0
78719,note_on,239,0,1,,,,,,,,,0,,,53,0
78719,note_on,0,0,1,,,,,,,,,0,,,58,0
78719,note_on,239,0,0,,,,,,,,,0,,,62,0
78720,note_on,1,0,1,,,,,,,,,0,,,53,76
78720,note_on,0,0,1,,,,,,,,,0,,,62,76
78720,note_on,1,0,0,,,,,,,,,0,,,65,76
78720,note_on,0,0,0,,,,,,,,,0,,,74,76
78720,note_on,0,0,1,,,,,,,,,0,,,58,76
78947,note_on,0,0,1,,,,,,,,,0,,,58,0
78947,note_on,227,0,0,,,,,,,,,0,,,65,0
78947,note_on,0,0,1,,,,,,,,,0,,,62,0
78947,note_on,227,0,1,,,,,,,,,0,,,53,0
78947,note_on,0,0,0,,,,,,,,,0,,,74,0
78960,note_on,0,0,1,,,,,,,,,0,,,63,78
78960,note_on,13,0,0,,,,,,,,,0,,,66,78
78960,note_on,13,0,1,,,,,,,,,0,,,53,78
78960,note_on,0,0,1,,,,,,,,,0,,,57,78
78960,note_on,0,0,0,,,,,,,,,0,,,72,78
79187,note_on,0,0,1,,,,,,,,,0,,,57,0
79187,note_on,227,0,0,,,,,,,,,0,,,66,0
79187,note_on,0,0,0,,,,,,,,,0,,,72,0
79187,note_on,0,0,1,,,,,,,,,0,,,63,0
79187,note_on,227,0,1,,,,,,,,,0,,,53,0
79200,note_on,0,0,0,,,,,,,,,0,,,68,80
79200,note_on,13,0,0,,,,,,,,,0,,,65,80
79200,note_on,0,0,0,,,,,,,,,0,,,71,96
79200,note_on,0,0,1,,,,,,,,,0,,,59,96
79200,note_on,13,0,1,,,,,,,,,0,,,56,80
79200,note_on,0,0,1,,,,,,,,,0,,,62,96
79201,control_change,1,0,1,,,,,,,64,0,0,,,,
79202,control_change,1,0,1,,,,,,,64,127,0,,,,
79439,note_on,237,0,1,,,,,,,,,0,,,56,0
79439,note_on,239,0,0,,,,,,,,,0,,,68,0
79440,note_on,1,0,1,,,,,,,,,0,,,55,80
79440,note_on,1,0,0,,,,,,,,,0,,,67,80
79520,note_on,80,0,1,,,,,,,,,0,,,59,0
79520,note_on,0,0,1,,,,,,,,,0,,,62,0
79520,note_on,80,0,0,,,,,,,,,0,,,71,0
79667,note_on,147,0,0,,,,,,,,,0,,,65,0
79667,note_on,147,0,1,,,,,,,,,0,,,55,0
79667,note_on,0,0,0,,,,,,,,,0,,,67,0
79680,note_on,0,0,1,,,,,,,,,0,,,58,96
79680,note_on,13,0,1,,,,,,,,,0,,,53,80
79680,set_tempo,13,1,0,,,,,,800000,,,,,,,
79680,note_on,0,0,0,,,,,,,,,0,,,61,80
79680,note_on,0,0,0,,,,,,,,,0,,,70,96
79680,note_on,0,0,1,,,,,,,,,0,,,55,96
79919,note_on,239,0,0,,,,,,,,,0,,,61,0
79919,note_on,239,0,1,,,,,,,,,0,,,53,0
79920,note_on,1,0,0,,,,,,,,,0,,,60,80
79920,note_on,1,0,1,,,,,,,,,0,,,52,80
80000,note_on,80,0,1,,,,,,,,,0,,,55,0
80000,note_on,0,0,1,,,,,,,,,0,,,58,0
80000,note_on,80,0,0,,,,,,,,,0,,,70,0
80147,note_on,147,0,1,,,,,,,,,0,,,52,0
80147,note_on,147,0,0,,,,,,,,,0,,,60,0
80160,note_on,0,0,0,,,,,,,,,0,,,61,96
80160,note_on,13,0,1,,,,,,,,,0,,,49,80
80160,note_on,0,0,1,,,,,,,,,0,,,58,80
80160,note_on,0,0,1,,,,,,,,,0,,,55,80
80160,set_tempo,13,1,0,,,,,,857143,,,,,,,
80160,note_on,0,0,0,,,,,,,,,0,,,65,96
80160,note_on,0,0,0,,,,,,,,,0,,,73,96
80319,note_on,159,0,0,,,,,,,,,0,,,61,0
80319,note_on,0,0,0,,,,,,,,,0,,,73,0
80319,note_on,0,0,0,,,,,,,,,0,,,65,0
80399,note_on,239,0,1,,,,,,,,,0,,,49,0
80399,note_on,0,0,1,,,,,,,,,0,,,55,0
80399,note_on,0,0,1,,,,,,,,,0,,,58,0
80400,note_on,1,0,1,,,,,,,,,0,,,48,80
80400,note_on,0,0,0,,,,,,,,,0,,,72,80
80400,note_on,0,0,0,,,,,,,,,0,,,64,80
80400,note_on,0,0,1,,,,,,,,,0,,,58,80
80400,note_on,0,0,1,,,,,,,,,0,,,55,80
80400,note_on,81,0,0,,,,,,,,,0,,,60,80
80519,note_on,0,0,0,,,,,,,,,0,,,72,0
80519,note_on,119,0,1,,,,,,,,,0,,,48,0
80519,note_on,0,0,0,,,,,,,,,0,,,64,0
80519,note_on,0,0,1,,,,,,,,,0,,,58,0
80519,note_on,0,0,1,,,,,,,,,0,,,55,0
80519,note_on,119,0,0,,,,,,,,,0,,,60,0
80640,note_on,121,0,0,,,,,,,,,0,,,60,80
80640,note_on,0,0,0,,,,,,,,,0,,,65,80
80640,note_on,0,0,0,,,,,,,,,0,,,69,80
80640,note_on,121,0,1,,,,,,,,,0,,,53,80
80640,note_on,0,0,1,,,,,,,,,0,,,57,80
80867,note_on,0,0,1,,,,,,,,,0,,,57,0
80867,note_on,0,0,0,,,,,,,,,0,,,65,0
80867,note_on,227,0,0,,,,,,,,,0,,,60,0
80867,note_on,227,0,1,,,,,,,,,0,,,53,0
80867,note_on,0,0,0,,,,,,,,,0,,,69,0
80880,note_on,13,0,1,,,,,,,,,0,,,41,49
80880,note_on,0,0,0,,,,,,,,,0,,,69,49
80880,note_on,0,0,0,,,,,,,,,0,,,72,49
80880,note_on,13,0,0,,,,,,,,,0,,,65,49
80880,note_on,0,0,1,,,,,,,,,0,,,53,49
80881,control_change,1,0,1,,,,,,,64,0,0,,,,
80882,control_change,1,0,1,,,,,,,64,127,0,,,,
80999,note_on,117,0,1,,,,,,,,,0,,,41,0
80999,note_on,119,0,0,,,,,,,,,0,,,65,0
80999,note_on,0,0,0,,,,,,,,,0,,,72,0
80999,note_on,0,0,0,,,,,,,,,0,,,69,0
80999,note_on,0,0,1,,,,,,,,,0,,,53,0
81120,note_on,0,0,1,,,,,,,,,0,,,53,49
81120,note_on,0,0,0,,,,,,,,,0,,,72,49
81120,note_on,0,0,0,,,,,,,,,0,,,67,49
81120,note_on,121,0,1,,,,,,,,,0,,,41,49
81120,note_on,121,0,0,,,,,,,,,0,,,64,49
81239,note_on,0,0,0,,,,,,,,,0,,,67,0
81239,note_on,0,0,0,,,,,,,,,0,,,72,0
81239,note_on,119,0,1,,,,,,,,,0,,,41,0
81239,note_on,0,0,1,,,,,,,,,0,,,53,0
81239,note_on,119,0,0,,,,,,,,,0,,,64,0
81360,note_on,0,0,0,,,,,,,,,0,,,65,49
81360,note_on,0,0,1,,,,,,,,,0,,,53,49
81360,note_on,121,0,0,,,,,,,,,0,,,62,49
81360,note_on,0,0,0,,,,,,,,,0,,,72,49
81360,note_on,121,0,1,,,,,,,,,0,,,41,49
81479,note_on,0,0,1,,,,,,,,,0,,,53,0
81479,note_on,0,0,0,,,,,,,,,0,,,72,0
81479,note_on,0,0,0,,,,,,,,,0,,,65,0
81479,note_on,119,0,1,,,,,,,,,0,,,41,0
81479,note_on,119,0,0,,,,,,,,,0,,,62,0
81600,note_on,0,0,0,,,,,,,,,0,,,67,49
81600,set_tempo,121,1,0,,,,,,800000,,,,,,,
81600,note_on,121,0,1,,,,,,,,,0,,,41,49
81600,note_on,0,0,0,,,,,,,,,0,,,72,49
81600,note_on,0,0,1,,,,,,,,,0,,,53,49
81600,note_on,0,0,0,,,,,,,,,0,,,64,49
81719,note_on,0,0,0,,,,,,,,,0,,,72,0
81719,note_on,0,0,0,,,,,,,,,0,,,67,0
81719,note_on,0,0,1,,,,,,,,,0,,,53,0
81719,note_on,119,0,0,,,,,,,,,0,,,64,0
81719,note_on,119,0,1,,,,,,,,,0,,,41,0
81840,note_on,121,0,0,,,,,,,,,0,,,62,49
81840,note_on,0,0,0,,,,,,,,,0,,,65,49
81840,note_on,0,0,0,,,,,,,,,0,,,72,49
81840,note_on,121,0,1,,,,,,,,,0,,,41,49
81840,note_on,0,0,1,,,,,,,,,0,,,53,49
81959,note_on,119,0,0,,,,,,,,,0,,,62,0
81959,note_on,0,0,0,,,,,,,,,0,,,72,0
81959,note_on,0,0,0,,,,,,,,,0,,,65,0
81959,note_on,119,0,1,,,,,,,,,0,,,41,0
81959,note_on,0,0,1,,,,,,,,,0,,,53,0
82080,note_on,121,0,0,,,,,,,,,0,,,60,49
82080,note_on,0,0,0,,,,,,,,,0,,,72,49
82080,note_on,121,0,1,,,,,,,,,0,,,41,49
82080,note_on,0,0,0,,,,,,,,,0,,,64,49
82080,note_on,0,0,1,,,,,,,,,0,,,53,49
82081,control_change,1,0,1,,,,,,,64,0,0,,,,
82082,control_change,1,0,1,,,,,,,64,127,0,,,,
82199,note_on,117,0,1,,,,,,,,,0,,,41,0
82199,note_on,0,0,1,,,,,,,,,0,,,53,0
82199,note_on,0,0,0,,,,,,,,,0,,,64,0
82199,note_on,0,0,0,,,,,,,,,0,,,72,0
82199,note_on,119,0,0,,,,,,,,,0,,,60,0
82320,note_on,121,0,0,,,,,,,,,0,,,67,49
82320,note_on,0,0,1,,,,,,,,,0,,,53,49
82320,note_on,121,0,1,,,,,,,,,0,,,41,49
82320,note_on,0,0,0,,,,,,,,,0,,,70,49
82320,note_on,0,0,0,,,,,,,,,0,,,74,49
82439,note_on,119,0,0,,,,,,,,,0,,,67,0
82439,note_on,0,0,1,,,,,,,,,0,,,53,0
82439,note_on,0,0,0,,,,,,,,,0,,,74,0
82439,note_on,0,0,0,,,,,,,,,0,,,70,0
82439,note_on,119,0,1,,,,,,,,,0,,,41,0
82560,note_on,0,0,0,,,,,,,,,0,,,69,49
82560,note_on,121,0,0,,,,,,,,,0,,,65,49
82560,note_on,0,0,0,,,,,,,,,0,,,72,49
82560,note_on,0,0,1,,,,,,,,,0,,,53,49
82560,note_on,121,0,1,,,,,,,,,0,,,41,49
82679,note_on,119,0,1,,,,,,,,,0,,,41,0
82679,note_on,0,0,0,,,,,,,,,0,,,72,0
82679,note_on,0,0,0,,,,,,,,,0,,,69,0
82679,note_on,119,0,0,,,,,,,,,0,,,65,0
82679,note_on,0,0,1,,,,,,,,,0,,,53,0
82800,note_on,121,0,0,,,,,,,,,0,,,64,49
82800,note_on,0,0,0,,,,,,,,,0,,,67,49
82800,note_on,121,0,1,,,,,,,,,0,,,41,49
82800,note_on,0,0,1,,,,,,,,,0,,,53,49
82800,note_on,0,0,0,,,,,,,,,0,,,72,49
82919,note_on,119,0,1,,,,,,,,,0,,,41,0
82919,note_on,0,0,1,,,,,,,,,0,,,53,0
82919,note_on,119,0,0,,,,,,,,,0,,,64,0
82919,note_on,0,0,0,,,,,,,,,0,,,67,0
82919,note_on,0,0,0,,,,,,,,,0,,,72,0
83040,note_on,121,0,0,,,,,,,,,0,,,65,49
83040,note_on,0,0,0,,,,,,,,,0,,,69,49
83040,note_on,0,0,0,,,,,,,,,0,,,72,49
83040,note_on,121,0,1,,,,,,,,,0,,,41,49
83040,note_on,0,0,1,,,,,,,,,0,,,53,49
83159,note_on,119,0,0,,,,,,,,,0,,,65,0
83159,note_on,119,0,1,,,,,,,,,0,,,41,0
83159,note_on,0,0,1,,,,,,,,,0,,,53,0
83159,note_on,0,0,0,,,,,,,,,0,,,69,0
83159,note_on,0,0,0,,,,,,,,,0,,,72,0
83280,note_on,0,0,0,,,,,,,,,0,,,72,49
83280,note_on,0,0,1,,,,,,,,,0,,,53,49
83280,note_on,121,0,1,,,,,,,,,0,,,41,49
83280,note_on,0,0,0,,,,,,,,,0,,,67,49
83280,note_on,121,0,0,,,,,,,,,0,,,64,49
83399,note_on,0,0,0,,,,,,,,,0,,,72,0
83399,note_on,0,0,0,,,,,,,,,0,,,67,0
83399,note_on,0,0,1,,,,,,,,,0,,,53,0
83399,note_on,119,0,0,,,,,,,,,0,,,64,0
83399,note_on,119,0,1,,,,,,,,,0,,,41,0
83520,note_on,121,0,0,,,,,,,,,0,,,62,49
83520,note_on,0,0,1,,,,,,,,,0,,,53,49
83520,note_on,121,0,1,,,,,,,,,0,,,41,49
83520,note_on,0,0,0,,,,,,,,,0,,,74,49
83520,note_on,0,0,0,,,,,,,,,0,,,65,49
83521,control_change,1,0,1,,,,,,,64,0,0,,,,
83522,control_change,1,0,1,,,,,,,64,127,0,,,,
83639,note_on,0,0,0,,,,,,,,,0,,,74,0
83639,note_on,0,0,1,,,,,,,,,0,,,53,0
83639,note_on,119,0,0,,,,,,,,,0,,,62,0
83639,note_on,117,0,1,,,,,,,,,0,,,41,0
83639,note_on,0,0,0,,,,,,,,,0,,,65,0
83760,set_tempo,121,1,0,,,,,,750000,,,,,,,
83760,note_on,0,0,1,,,,,,,,,0,,,53,49
83760,note_on,121,0,1,,,,,,,,,0,,,41,49
83760,note_on,0,0,0,,,,,,,,,0,,,77,49
83760,note_on,0,0,0,,,,,,,,,0,,,70,49
83760,note_on,0,0,0,,,,,,,,,0,,,65,49
83760,note_on,0,0,0,,,,,,,,,0,,,74,49
83879,note_on,0,0,1,,,,,,,,,0,,,53,0
83879,note_on,119,0,0,,,,,,,,,0,,,65,0
83879,note_on,0,0,0,,,,,,,,,0,,,77,0
83879,note_on,0,0,0,,,,,,,,,0,,,70,0
83879,note_on,119,0,1,,,,,,,,,0,,,41,0
83879,note_on,0,0,0,,,,,,,,,0,,,74,0
84000,note_on,121,0,1,,,,,,,,,0,,,41,49
84000,note_on,0,0,0,,,,,,,,,0,,,77,49
84000,note_on,121,0,0,,,,,,,,,0,,,65,49
84000,note_on,0,0,0,,,,,,,,,0,,,69,49
84000,note_on,0,0,0,,,,,,,,,0,,,72,49
84000,note_on,0,0,1,,,,,,,,,0,,,53,49
84119,note_on,0,0,0,,,,,,,,,0,,,77,0
84119,note_on,0,0,1,,,,,,,,,0,,,53,0
84119,note_on,119,0,1,,,,,,,,,0,,,41,0
84119,note_on,0,0,0,,,,,,,,,0,,,72,0
84119,note_on,0,0,0,,,,,,,,,0,,,69,0
84119,note_on,119,0,0,,,,,,,,,0,,,65,0
84240,note_on,121,0,1,,,,,,,,,0,,,41,49
84240,note_on,121,0,0,,,,,,,,,0,,,65,49
84240,note_on,0,0,0,,,,,,,,,0,,,67,49
84240,note_on,0,0,0,,,,,,,,,0,,,77,49
84240,note_on,0,0,0,,,,,,,,,0,,,70,49
84240,note_on,0,0,1,,,,,,,,,0,,,53,49
84359,note_on,119,0,0,,,,,,,,,0,,,65,0
84359,note_on,0,0,0,,,,,,,,,0,,,67,0
84359,note_on,0,0,0,,,,,,,,,0,,,77,0
84359,note_on,119,0,1,,,,,,,,,0,,,41,0
84359,note_on,0,0,1,,,,,,,,,0,,,53,0
84359,note_on,0,0,0,,,,,,,,,0,,,70,0
84480,note_on,121,0,1,,,,,,,,,0,,,41,49
84480,note_on,0,0,1,,,,,,,,,0,,,53,49
84480,note_on,121,0,0,,,,,,,,,0,,,65,49
84480,note_on,0,0,0,,,,,,,,,0,,,70,49
84480,note_on,0,0,0,,,,,,,,,0,,,74,49
84480,note_on,0,0,0,,,,,,,,,0,,,77,49
84599,note_on,0,0,1,,,,,,,,,0,,,53,0
84599,note_on,0,0,0,,,,,,,,,0,,,77,0
84599,note_on,0,0,0,,,,,,,,,0,,,74,0
84599,note_on,119,0,0,,,,,,,,,0,,,65,0
84599,note_on,119,0,1,,,,,,,,,0,,,41,0
84599,note_on,0,0,0,,,,,,,,,0,,,70,0
84720,note_on,121,0,0,,,,,,,,,0,,,65,49
84720,note_on,0,0,0,,,,,,,,,0,,,69,49
84720,note_on,0,0,0,,,,,,,,,0,,,72,49
84720,note_on,0,0,0,,,,,,,,,0,,,77,49
84720,note_on,0,0,1,,,,,,,,,0,,,53,49
84720,note_on,121,0,1,,,,,,,,,0,,,41,49
84839,note_on,0,0,1,,,,,,,,,0,,,53,0
84839,note_on,0,0,0,,,,,,,,,0,,,69,0
84839,note_on,0,0,0,,,,,,,,,0,,,72,0
84839,note_on,0,0,0,,,,,,,,,0,,,77,0
84839,note_on,119,0,0,,,,,,,,,0,,,65,0
84839,note_on,119,0,1,,,,,,,,,0,,,41,0
84960,note_on,0,0,1,,,,,,,,,0,,,53,49
84960,note_on,121,0,1,,,,,,,,,0,,,41,49
84960,note_on,0,0,0,,,,,,,,,0,,,77,49
84960,note_on,121,0,0,,,,,,,,,0,,,65,49
84960,note_on,0,0,0,,,,,,,,,0,,,69,49
84961,control_change,1,0,1,,,,,,,64,0,0,,,,
84962,control_change,1,0,1,,,,,,,64,127,0,,,,
85079,note_on,0,0,0,,,,,,,,,0,,,69,0
85079,note_on,0,0,1,,,,,,,,,0,,,53,0
85079,note_on,119,0,0,,,,,,,,,0,,,65,0
85079,note_on,117,0,1,,,,,,,,,0,,,41,0
85079,note_on,0,0,0,,,,,,,,,0,,,77,0
85200,note_on,0,0,1,,,,,,,,,0,,,60,49
85200,note_on,121,0,1,,,,,,,,,0,,,53,49
85200,note_on,0,0,0,,,,,,,,,0,,,72,49
85200,note_on,0,0,0,,,,,,,,,0,,,81,49
85200,note_on,121,0,0,,,,,,,,,0,,,69,49
85200,note_on,0,0,1,,,,,,,,,0,,,65,49
85319,note_on,0,0,1,,,,,,,,,0,,,65,0
85319,note_on,0,0,1,,,,,,,,,0,,,60,0
85319,note_on,0,0,0,,,,,,,,,0,,,72,0
85319,note_on,119,0,0,,,,,,,,,0,,,69,0
85319,note_on,119,0,1,,,,,,,,,0,,,53,0
85319,note_on,0,0,0,,,,,,,,,0,,,81,0
85440,note_on,0,0,0,,,,,,,,,0,,,79,49
85440,note_on,0,0,0,,,,,,,,,0,,,72,49
85440,note_on,121,0,0,,,,,,,,,0,,,67,49
85440,note_on,0,0,1,,,,,,,,,0,,,60,49
85440,note_on,0,0,1,,,,,,,,,0,,,64,49
85440,note_on,121,0,1,,,,,,,,,0,,,53,49
85559,note_on,0,0,1,,,,,,,,,0,,,64,0
85559,note_on,0,0,0,,,,,,,,,0,,,72,0
85559,note_on,0,0,0,,,,,,,,,0,,,79,0
85559,note_on,119,0,0,,,,,,,,,0,,,67,0
85559,note_on,0,0,1,,,,,,,,,0,,,60,0
85559,note_on,119,0,1,,,,,,,,,0,,,53,0
85680,set_tempo,121,1,0,,,,,,731706,,,,,,,
85680,note_on,0,0,0,,,,,,,,,0,,,65,49
85680,note_on,0,0,0,,,,,,,,,0,,,72,49
85680,note_on,0,0,1,,,,,,,,,0,,,60,49
85680,note_on,0,0,1,,,,,,,,,0,,,62,49
85680,note_on,121,0,1,,,,,,,,,0,,,53,49
85680,note_on,0,0,0,,,,,,,,,0,,,77,49
85799,note_on,119,0,1,,,,,,,,,0,,,53,0
85799,note_on,119,0,0,,,,,,,,,0,,,65,0
85799,note_on,0,0,0,,,,,,,,,0,,,77,0
85799,note_on,0,0,0,,,,,,,,,0,,,72,0
85799,note_on,0,0,1,,,,,,,,,0,,,60,0
85799,note_on,0,0,1,,,,,,,,,0,,,62,0
85920,note_on,0,0,0,,,,,,,,,0,,,79,49
85920,note_on,0,0,0,,,,,,,,,0,,,72,49
85920,note_on,121,0,1,,,,,,,,,0,,,53,49
85920,note_on,121,0,0,,,,,,,,,0,,,67,49
85920,note_on,0,0,1,,,,,,,,,0,,,60,49
85920,note_on,0,0,1,,,,,,,,,0,,,64,49
86039,note_on,0,0,1,,,,,,,,,0,,,60,0
86039,note_on,0,0,1,,,,,,,,,0,,,64,0
86039,note_on,0,0,0,,,,,,,,,0,,,72,0
86039,note_on,0,0,0,,,,,,,,,0,,,79,0
86039,note_on,119,0,0,,,,,,,,,0,,,67,0
86039,note_on,119,0,1,,,,,,,,,0,,,53,0
86160,note_on,121,0,0,,,,,,,,,0,,,65,49
86160,note_on,0,0,0,,,,,,,,,0,,,72,49
86160,note_on,0,0,1,,,,,,,,,0,,,62,49
86160,note_on,0,0,1,,,,,,,,,0,,,60,49
86160,note_on,121,0,1,,,,,,,,,0,,,53,49
86160,note_on,0,0,0,,,,,,,,,0,,,77,49
86279,note_on,119,0,1,,,,,,,,,0,,,53,0
86279,note_on,0,0,0,,,,,,,,,0,,,77,0
86279,note_on,0,0,0,,,,,,,,,0,,,72,0
86279,note_on,119,0,0,,,,,,,,,0,,,65,0
86279,note_on,0,0,1,,,,,,,,,0,,,60,0
86279,note_on,0,0,1,,,,,,,,,0,,,62,0
86400,note_on,0,0,0,,,,,,,,,0,,,76,49
86400,note_on,0,0,0,,,,,,,,,0,,,64,49
86400,set_tempo,121,1,0,,,,,,714286,,,,,,,
86400,note_on,0,0,0,,,,,,,,,0,,,72,49
86400,note_on,121,0,1,,,,,,,,,0,,,53,49
86400,note_on,0,0,1,,,,,,,,,0,,,60,49
86401,control_change,1,0,1,,,,,,,64,0,0,,,,
86402,control_change,1,0,1,,,,,,,64,127,0,,,,
86519,note_on,119,0,0,,,,,,,,,0,,,64,0
86519,note_on,117,0,1,,,,,,,,,0,,,53,0
86519,note_on,0,0,1,,,,,,,,,0,,,60,0
86519,note_on,0,0,0,,,,,,,,,0,,,76,0
86519,note_on,0,0,0,,,,,,,,,0,,,72,0
86640,note_on,121,0,1,,,,,,,,,0,,,53,49
86640,note_on,121,0,0,,,,,,,,,0,,,70,49
86640,note_on,0,0,1,,,,,,,,,0,,,62,49
86640,note_on,0,0,0,,,,,,,,,0,,,74,49
86640,note_on,0,0,1,,,,,,,,,0,,,67,49
86640,note_on,0,0,0,,,,,,,,,0,,,82,49
86759,note_on,0,0,1,,,,,,,,,0,,,67,0
86759,note_on,119,0,0,,,,,,,,,0,,,70,0
86759,note_on,119,0,1,,,,,,,,,0,,,53,0
86759,note_on,0,0,0,,,,,,,,,0,,,74,0
86759,note_on,0,0,0,,,,,,,,,0,,,82,0
86759,note_on,0,0,1,,,,,,,,,0,,,62,0
86880,note_on,0,0,0,,,,,,,,,0,,,81,49
86880,note_on,121,0,1,,,,,,,,,0,,,53,49
86880,note_on,121,0,0,,,,,,,,,0,,,69,49
86880,note_on,0,0,1,,,,,,,,,0,,,62,49
86880,note_on,0,0,1,,,,,,,,,0,,,65,49
86880,note_on,0,0,0,,,,,,,,,0,,,74,49
86999,note_on,119,0,0,,,,,,,,,0,,,69,0
86999,note_on,0,0,0,,,,,,,,,0,,,81,0
86999,note_on,0,0,0,,,,,,,,,0,,,74,0
86999,note_on,0,0,1,,,,,,,,,0,,,62,0
86999,note_on,0,0,1,,,,,,,,,0,,,65,0
86999,note_on,119,0,1,,,,,,,,,0,,,53,0
87120,note_on,121,0,0,,,,,,,,,0,,,67,49
87120,note_on,0,0,1,,,,,,,,,0,,,64,49
87120,note_on,0,0,1,,,,,,,,,0,,,62,49
87120,note_on,121,0,1,,,,,,,,,0,,,53,49
87120,note_on,0,0,0,,,,,,,,,0,,,79,49
87120,note_on,0,0,0,,,,,,,,,0,,,74,49
87239,note_on,0,0,1,,,,,,,,,0,,,62,0
87239,note_on,0,0,1,,,,,,,,,0,,,64,0
87239,note_on,0,0,0,,,,,,,,,0,,,79,0
87239,note_on,0,0,0,,,,,,,,,0,,,74,0
87239,note_on,119,0,0,,,,,,,,,0,,,67,0
87239,note_on,119,0,1,,,,,,,,,0,,,53,0
87360,note_on,121,0,1,,,,,,,,,0,,,53,49
87360,note_on,0,0,1,,,,,,,,,0,,,62,49
87360,note_on,0,0,1,,,,,,,,,0,,,65,49
87360,note_on,121,0,0,,,,,,,,,0,,,69,49
87360,note_on,0,0,0,,,,,,,,,0,,,74,49
87360,note_on,0,0,0,,,,,,,,,0,,,81,49
87479,note_on,119,0,1,,,,,,,,,0,,,53,0
87479,note_on,0,0,0,,,,,,,,,0,,,74,0
87479,note_on,0,0,0,,,,,,,,,0,,,81,0
87479,note_on,119,0,0,,,,,,,,,0,,,69,0
87479,note_on,0,0,1,,,,,,,,,0,,,62,0
87479,note_on,0,0,1,,,,,,,,,0,,,65,0
87600,note_on,0,0,0,,,,,,,,,0,,,79,49
87600,note_on,121,0,1,,,,,,,,,0,,,53,49
87600,note_on,121,0,0,,,,,,,,,0,,,67,49
87600,note_on,0,0,0,,,,,,,,,0,,,74,49
87600,note_on,0,0,1,,,,,,,,,0,,,64,49
87600,note_on,0,0,1,,,,,,,,,0,,,62,49
87719,note_on,119,0,0,,,,,,,,,0,,,67,0
87719,note_on,119,0,1,,,,,,,,,0,,,53,0
87719,note_on,0,0,1,,,,,,,,,0,,,62,0
87719,note_on,0,0,0,,,,,,,,,0,,,79,0
87719,note_on,0,0,0,,,,,,,,,0,,,74,0
87719,note_on,0,0,1,,,,,,,,,0,,,64,0
87840,note_on,0,0,1,,,,,,,,,0,,,62,49
87840,note_on,121,0,1,,,,,,,,,0,,,53,49
87840,note_on,0,0,0,,,,,,,,,0,,,77,49
87840,note_on,0,0,0,,,,,,,,,0,,,74,49
87840,note_on,0,0,0,,,,,,,,,0,,,65,49
87840,set_tempo,121,1,0,,,,,,697676,,,,,,,
87841,control_change,1,0,1,,,,,,,64,0,0,,,,
87842,control_change,1,0,1,,,,,,,64,127,0,,,,
87959,note_on,117,0,1,,,,,,,,,0,,,53,0
87959,note_on,0,0,1,,,,,,,,,0,,,62,0
87959,note_on,0,0,0,,,,,,,,,0,,,74,0
87959,note_on,0,0,0,,,,,,,,,0,,,77,0
87959,note_on,119,0,0,,,,,,,,,0,,,65,0
88080,note_on,0,0,0,,,,,,,,,0,,,86,49
88080,note_on,0,0,1,,,,,,,,,0,,,62,49
88080,note_on,121,0,0,,,,,,,,,0,,,74,49
88080,note_on,121,0,1,,,,,,,,,0,,,53,49
88080,note_on,0,0,1,,,,,,,,,0,,,70,49
88080,note_on,0,0,0,,,,,,,,,0,,,77,49
88199,note_on,119,0,0,,,,,,,,,0,,,74,0
88199,note_on,0,0,0,,,,,,,,,0,,,86,0
88199,note_on,0,0,1,,,,,,,,,0,,,62,0
88199,note_on,119,0,1,,,,,,,,,0,,,53,0
88199,note_on,0,0,0,,,,,,,,,0,,,77,0
88199,note_on,0,0,1,,,,,,,,,0,,,70,0
88320,note_on,0,0,1,,,,,,,,,0,,,60,52
88320,note_on,0,0,0,,,,,,,,,0,,,77,52
88320,note_on,121,0,1,,,,,,,,,0,,,53,52
88320,note_on,121,0,0,,,,,,,,,0,,,72,52
88320,note_on,0,0,0,,,,,,,,,0,,,84,52
88320,note_on,0,0,1,,,,,,,,,0,,,69,52
88439,note_on,0,0,0,,,,,,,,,0,,,84,0
88439,note_on,0,0,0,,,,,,,,,0,,,77,0
88439,note_on,119,0,1,,,,,,,,,0,,,53,0
88439,note_on,119,0,0,,,,,,,,,0,,,72,0
88439,note_on,0,0,1,,,,,,,,,0,,,60,0
88439,note_on,0,0,1,,,,,,,,,0,,,69,0
88560,note_on,0,0,0,,,,,,,,,0,,,77,56
88560,note_on,0,0,0,,,,,,,,,0,,,82,56
88560,note_on,121,0,1,,,,,,,,,0,,,53,56
88560,note_on,0,0,1,,,,,,,,,0,,,67,56
88560,note_on,121,0,0,,,,,,,,,0,,,70,56
88560,note_on,0,0,1,,,,,,,,,0,,,58,56
88679,note_on,0,0,1,,,,,,,,,0,,,67,0
88679,note_on,0,0,1,,,,,,,,,0,,,58,0
88679,note_on,119,0,0,,,,,,,,,0,,,70,0
88679,note_on,0,0,0,,,,,,,,,0,,,82,0
88679,note_on,0,0,0,,,,,,,,,0,,,77,0
88679,note_on,119,0,1,,,,,,,,,0,,,53,0
88800,note_on,121,0,1,,,,,,,,,0,,,53,60
88800,note_on,121,0,0,,,,,,,,,0,,,74,60
88800,note_on,0,0,1,,,,,,,,,0,,,62,60
88800,note_on,0,0,1,,,,,,,,,0,,,70,60
88800,note_on,0,0,0,,,,,,,,,0,,,86,60
88800,note_on,0,0,0,,,,,,,,,0,,,77,60
88919,note_on,0,0,0,,,,,,,,,0,,,86,0
88919,note_on,119,0,0,,,,,,,,,0,,,74,0
88919,note_on,0,0,1,,,,,,,,,0,,,62,0
88919,note_on,0,0,0,,,,,,,,,0,,,77,0
88919,note_on,119,0,1,,,,,,,,,0,,,53,0
88919,note_on,0,0,1,,,,,,,,,0,,,70,0
89040,note_on,0,0,1,,,,,,,,,0,,,60,63
89040,note_on,0,0,1,,,,,,,,,0,,,69,63
89040,note_on,0,0,0,,,,,,,,,0,,,77,63
89040,note_on,0,0,0,,,,,,,,,0,,,84,63
89040,note_on,121,0,0,,,,,,,,,0,,,72,63
89040,note_on,121,0,1,,,,,,,,,0,,,53,63
89159,note_on,0,0,0,,,,,,,,,0,,,77,0
89159,note_on,0,0,1,,,,,,,,,0,,,69,0
89159,note_on,0,0,1,,,,,,,,,0,,,60,0
89159,note_on,0,0,0,,,,,,,,,0,,,84,0
89159,note_on,119,0,0,,,,,,,,,0,,,72,0
89159,note_on,119,0,1,,,,,,,,,0,,,53,0
89280,note_on,0,0,1,,,,,,,,,0,,,57,67
89280,note_on,0,0,1,,,,,,,,,0,,,65,67
89280,note_on,121,0,1,,,,,,,,,0,,,53,67
89280,note_on,0,0,0,,,,,,,,,0,,,69,67
89280,note_on,0,0,0,,,,,,,,,0,,,77,67
89280,set_tempo,121,1,0,,,,,,681817,,,,,,,
89280,note_on,0,0,0,,,,,,,,,0,,,81,67
89281,control_change,1,0,1,,,,,,,64,0,0,,,,
89282,control_change,1,0,1,,,,,,,64,127,0,,,,
89399,note_on,0,0,1,,,,,,,,,0,,,57,0
89399,note_on,117,0,1,,,,,,,,,0,,,53,0
89399,note_on,0,0,0,,,,,,,,,0,,,77,0
89399,note_on,0,0,0,,,,,,,,,0,,,81,0
89399,note_on,119,0,0,,,,,,,,,0,,,69,0
89399,note_on,0,0,1,,,,,,,,,0,,,65,0
89520,note_on,0,0,1,,,,,,,,,0,,,58,71
89520,note_on,121,0,0,,,,,,,,,0,,,77,71
89520,note_on,0,0,1,,,,,,,,,0,,,65,71
89520,note_on,121,0,1,,,,,,,,,0,,,53,71
89520,note_on,0,0,1,,,,,,,,,0,,,62,71
89520,note_on,0,0,0,,,,,,,,,0,,,82,71
89520,note_on,0,0,0,,,,,,,,,0,,,89,71
89520,note_on,0,0,0,,,,,,,,,0,,,86,71
89639,note_on,0,0,1,,,,,,,,,0,,,65,0
89639,note_on,0,0,1,,,,,,,,,0,,,62,0
89639,note_on,0,0,0,,,,,,,,,0,,,82,0
89639,note_on,119,0,0,,,,,,,,,0,,,77,0
89639,note_on,0,0,1,,,,,,,,,0,,,58,0
89639,note_on,119,0,1,,,,,,,,,0,,,53,0
89639,note_on,0,0,0,,,,,,,,,0,,,86,0
89639,note_on,0,0,0,,,,,,,,,0,,,89,0
89760,note_on,121,0,0,,,,,,,,,0,,,77,74
89760,note_on,0,0,0,,,,,,,,,0,,,89,74
89760,note_on,0,0,0,,,,,,,,,0,,,84,74
89760,note_on,0,0,0,,,,,,,,,0,,,81,74
89760,note_on,121,0,1,,,,,,,,,0,,,53,74
89760,note_on,0,0,1,,,,,,,,,0,,,65,74
89760,note_on,0,0,1,,,,,,,,,0,,,60,74
89760,note_on,0,0,1,,,,,,,,,0,,,57,74
89879,note_on,0,0,1,,,,,,,,,0,,,57,0
89879,note_on,0,0,1,,,,,,,,,0,,,65,0
89879,note_on,0,0,1,,,,,,,,,0,,,60,0
89879,note_on,0,0,0,,,,,,,,,0,,,84,0
89879,note_on,119,0,0,,,,,,,,,0,,,77,0
89879,note_on,0,0,0,,,,,,,,,0,,,89,0
89879,note_on,119,0,1,,,,,,,,,0,,,53,0
89879,note_on,0,0,0,,,,,,,,,0,,,81,0
90000,note_on,0,0,1,,,,,,,,,0,,,58,78
90000,note_on,0,0,0,,,,,,,,,0,,,79,78
90000,note_on,0,0,0,,,,,,,,,0,,,82,78
90000,note_on,121,0,1,,,,,,,,,0,,,53,78
90000,note_on,121,0,0,,,,,,,,,0,,,77,78
90000,note_on,0,0,0,,,,,,,,,0,,,89,78
90000,note_on,0,0,1,,,,,,,,,0,,,55,78
90000,note_on,0,0,1,,,,,,,,,0,,,65,78
90119,note_on,0,0,0,,,,,,,,,0,,,89,0
90119,note_on,0,0,1,,,,,,,,,0,,,58,0
90119,note_on,0,0,0,,,,,,,,,0,,,82,0
90119,note_on,119,0,1,,,,,,,,,0,,,53,0
90119,note_on,0,0,1,,,,,,,,,0,,,55,0
90119,note_on,119,0,0,,,,,,,,,0,,,77,0
90119,note_on,0,0,0,,,,,,,,,0,,,79,0
90119,note_on,0,0,1,,,,,,,,,0,,,65,0
90240,note_on,121,0,0,,,,,,,,,0,,,77,82
90240,note_on,0,0,0,,,,,,,,,0,,,82,82
90240,note_on,0,0,0,,,,,,,,,0,,,86,82
90240,note_on,0,0,0,,,,,,,,,0,,,89,82
90240,note_on,0,0,1,,,,,,,,,0,,,65,82
90240,note_on,121,0,1,,,,,,,,,0,,,53,82
90240,note_on,0,0,1,,,,,,,,,0,,,58,82
90240,note_on,0,0,1,,,,,,,,,0,,,62,82
90359,note_on,0,0,0,,,,,,,,,0,,,82,0
90359,note_on,0,0,0,,,,,,,,,0,,,86,0
90359,note_on,0,0,0,,,,,,,,,0,,,89,0
90359,note_on,119,0,1,,,,,,,,,0,,,53,0
90359,note_on,119,0,0,,,,,,,,,0,,,77,0
90359,note_on,0,0,1,,,,,,,,,0,,,58,0
90359,note_on,0,0,1,,,,,,,,,0,,,62,0
90359,note_on,0,0,1,,,,,,,,,0,,,65,0
90480,note_on,0,0,0,,,,,,,,,0,,,89,86
90480,note_on,121,0,0,,,,,,,,,0,,,77,86
90480,note_on,0,0,0,,,,,,,,,0,,,84,86
90480,note_on,0,0,1,,,,,,,,,0,,,60,86
90480,note_on,0,0,1,,,,,,,,,0,,,65,86
90480,note_on,121,0,1,,,,,,,,,0,,,53,86
90480,note_on,0,0,1,,,,,,,,,0,,,57,86
90480,note_on,0,0,0,,,,,,,,,0,,,81,86
90599,note_on,0,0,1,,,,,,,,,0,,,65,0
90599,note_on,0,0,1,,,,,,,,,0,,,57,0
90599,note_on,0,0,0,,,,,,,,,0,,,89,0
90599,note_on,0,0,0,,,,,,,,,0,,,84,0
90599,note_on,0,0,0,,,,,,,,,0,,,81,0
90599,note_on,0,0,1,,,,,,,,,0,,,60,0
90599,note_on,119,0,0,,,,,,,,,0,,,77,0
90599,note_on,119,0,1,,,,,,,,,0,,,53,0
90720,note_on,121,0,1,,,,,,,,,0,,,53,89
90720,note_on,0,0,0,,,,,,,,,0,,,77,89
90720,note_on,0,0,0,,,,,,,,,0,,,81,89
90720,note_on,0,0,0,,,,,,,,,0,,,89,89
90720,note_on,0,0,1,,,,,,,,,0,,,57,89
90720,note_on,0,0,1,,,,,,,,,0,,,65,89
90720,set_tempo,121,1,0,,,,,,666667,,,,,,,
90721,control_change,1,0,1,,,,,,,64,0,0,,,,
90722,control_change,1,0,1,,,,,,,64,127,0,,,,
90839,note_on,119,0,0,,,,,,,,,0,,,77,0
90839,note_on,0,0,0,,,,,,,,,0,,,81,0
90839,note_on,0,0,0,,,,,,,,,0,,,89,0
90839,note_on,117,0,1,,,,,,,,,0,,,53,0
90839,note_on,0,0,1,,,,,,,,,0,,,57,0
90839,note_on,0,0,1,,,,,,,,,0,,,65,0
90960,note_on,121,0,0,,,,,,,,,0,,,82,93
90960,note_on,0,0,1,,,,,,,,,0,,,58,93
90960,note_on,0,0,1,,,,,,,,,0,,,50,93
90960,note_on,121,0,1,,,,,,,,,0,,,41,93
90960,note_on,0,0,0,,,,,,,,,0,,,94,93
90960,note_on,0,0,0,,,,,,,,,0,,,86,93
91079,note_on,0,0,0,,,,,,,,,0,,,86,0
91079,note_on,119,0,0,,,,,,,,,0,,,82,0
91079,note_on,0,0,1,,,,,,,,,0,,,58,0
91079,note_on,0,0,0,,,,,,,,,0,,,94,0
91079,note_on,119,0,1,,,,,,,,,0,,,41,0
91079,note_on,0,0,1,,,,,,,,,0,,,50,0
91200,note_on,0,0,0,,,,,,,,,0,,,93,97
91200,note_on,0,0,0,,,,,,,,,0,,,84,97
91200,note_on,121,0,0,,,,,,,,,0,,,81,97
91200,note_on,0,0,1,,,,,,,,,0,,,57,97
91200,note_on,0,0,1,,,,,,,,,0,,,48,97
91200,note_on,121,0,1,,,,,,,,,0,,,41,97
91319,note_on,0,0,1,,,,,,,,,0,,,57,0
91319,note_on,0,0,1,,,,,,,,,0,,,48,0
91319,note_on,119,0,0,,,,,,,,,0,,,81,0
91319,note_on,0,0,0,,,,,,,,,0,,,93,0
91319,note_on,119,0,1,,,,,,,,,0,,,41,0
91319,note_on,0,0,0,,,,,,,,,0,,,84,0
91440,note_on,121,0,1,,,,,,,,,0,,,41,100
91440,note_on,121,0,0,,,,,,,,,0,,,79,100
91440,note_on,0,0,1,,,,,,,,,0,,,55,100
91440,note_on,0,0,1,,,,,,,,,0,,,46,100
91440,note_on,0,0,0,,,,,,,,,0,,,82,100
91440,note_on,0,0,0,,,,,,,,,0,,,91,100
91559,note_on,0,0,1,,,,,,,,,0,,,55,0
91559,note_on,0,0,0,,,,,,,,,0,,,91,0
91559,note_on,0,0,1,,,,,,,,,0,,,46,0
91559,note_on,0,0,0,,,,,,,,,0,,,82,0
91559,note_on,119,0,1,,,,,,,,,0,,,41,0
91559,note_on,119,0,0,,,,,,,,,0,,,79,0
91680,note_on,0,0,0,,,,,,,,,0,,,86,104
91680,note_on,0,0,0,,,,,,,,,0,,,94,104
91680,note_on,121,0,1,,,,,,,,,0,,,41,104
91680,note_on,0,0,1,,,,,,,,,0,,,58,104
91680,note_on,121,0,0,,,,,,,,,0,,,82,104
91680,note_on,0,0,1,,,,,,,,,0,,,50,104
91799,note_on,119,0,1,,,,,,,,,0,,,41,0
91799,note_on,0,0,1,,,,,,,,,0,,,50,0
91799,note_on,119,0,0,,,,,,,,,0,,,82,0
91799,note_on,0,0,1,,,,,,,,,0,,,58,0
91799,note_on,0,0,0,,,,,,,,,0,,,94,0
91799,note_on,0,0,0,,,,,,,,,0,,,86,0
91920,note_on,0,0,0,,,,,,,,,0,,,93,108
91920,note_on,0,0,0,,,,,,,,,0,,,84,108
91920,note_on,0,0,1,,,,,,,,,0,,,48,108
91920,note_on,121,0,0,,,,,,,,,0,,,81,108
91920,note_on,0,0,1,,,,,,,,,0,,,57,108
91920,note_on,121,0,1,,,,,,,,,0,,,41,108
92039,note_on,0,0,1,,,,,,,,,0,,,48,0
92039,note_on,0,0,1,,,,,,,,,0,,,57,0
92039,note_on,0,0,0,,,,,,,,,0,,,84,0
92039,note_on,0,0,0,,,,,,,,,0,,,93,0
92039,note_on,119,0,0,,,,,,,,,0,,,81,0
92039,note_on,119,0,1,,,,,,,,,0,,,41,0
92160,note_on,0,0,0,,,,,,,,,0,,,93,112
92160,note_on,121,0,1,,,,,,,,,0,,,41,112
92160,note_on,121,0,0,,,,,,,,,0,,,81,112
92160,note_on,0,0,1,,,,,,,,,0,,,57,112
92160,note_on,0,0,1,,,,,,,,,0,,,48,112
92161,control_change,1,0,1,,,,,,,64,0,0,,,,
92162,control_change,1,0,1,,,,,,,64,127,0,,,,
92387,note_on,0,0,1,,,,,,,,,0,,,57,0
92387,note_on,0,0,1,,,,,,,,,0,,,48,0
92387,note_on,225,0,1,,,,,,,,,0,,,41,0
92399,note_on,239,0,0,,,,,,,,,0,,,81,0
92399,note_on,0,0,0,,,,,,,,,0,,,93,0
92400,note_on,1,0,0,,,,,,,,,0,,,84,112
92400,note_on,0,0,0,,,,,,,,,0,,,89,112
92639,note_on,0,0,0,,,,,,,,,0,,,89,0
92639,note_on,239,0,0,,,,,,,,,0,,,84,0
92640,note_on,0,0,1,,,,,,,,,0,,,69,127
92640,note_on,0,0,1,,,,,,,,,0,,,63,127
92640,note_on,1,0,0,,,,,,,,,0,,,81,112
92640,note_on,0,0,0,,,,,,,,,0,,,93,112
92640,note_on,253,0,1,,,,,,,,,0,,,53,127
92640,note_on,0,0,1,,,,,,,,,0,,,60,127
92879,note_on,0,0,0,,,,,,,,,0,,,93,0
92879,note_on,239,0,0,,,,,,,,,0,,,81,0
92880,note_on,0,0,0,,,,,,,,,0,,,91,112
92880,note_on,1,0,0,,,,,,,,,0,,,79,112
93119,note_on,239,0,0,,,,,,,,,0,,,79,0
93119,note_on,0,0,0,,,,,,,,,0,,,91,0
93120,note_on,1,0,0,,,,,,,,,0,,,77,112
93120,note_on,0,0,0,,,,,,,,,0,,,89,112
93359,note_on,239,0,0,,,,,,,,,0,,,77,0
93359,note_on,719,0,1,,,,,,,,,0,,,53,0
93359,note_on,0,0,1,,,,,,,,,0,,,63,0
93359,note_on,0,0,0,,,,,,,,,0,,,89,0
93359,note_on,0,0,1,,,,,,,,,0,,,60,0
93359,note_on,0,0,1,,,,,,,,,0,,,69,0
93360,note_on,1,0,0,,,,,,,,,0,,,81,112
93360,note_on,0,0,1,,,,,,,,,0,,,69,127
93360,note_on,0,0,1,,,,,,,,,0,,,63,127
93360,note_on,0,0,0,,,,,,,,,0,,,84,112
93360,note_on,0,0,1,,,,,,,,,0,,,60,127
93360,note_on,1,0,1,,,,,,,,,0,,,53,127
93599,note_on,0,0,0,,,,,,,,,0,,,84,0
93599,note_on,239,0,0,,,,,,,,,0,,,81,0
93600,note_on,0,0,0,,,,,,,,,0,,,89,112
93600,note_on,1,0,0,,,,,,,,,0,,,77,112
93839,note_on,0,0,0,,,,,,,,,0,,,89,0
93839,note_on,239,0,0,,,,,,,,,0,,,77,0
93840,note_on,0,0,0,,,,,,,,,0,,,87,112
93840,note_on,1,0,0,,,,,,,,,0,,,75,112
94055,note_on,0,0,1,,,,,,,,,0,,,60,0
94055,note_on,0,0,1,,,,,,,,,0,,,63,0
94055,note_on,0,0,1,,,,,,,,,0,,,69,0
94055,note_on,695,0,1,,,,,,,,,0,,,53,0
94079,note_on,0,0,0,,,,,,,,,0,,,87,0
94079,note_on,239,0,0,,,,,,,,,0,,,75,0
94080,note_on,0,0,1,,,,,,,,,0,,,60,127
94080,note_on,0,0,1,,,,,,,,,0,,,63,127
94080,note_on,0,0,0,,,,,,,,,0,,,86,112
94080,note_on,1,0,0,,,,,,,,,0,,,74,112
94080,note_on,0,0,1,,,,,,,,,0,,,69,127
94080,note_on,25,0,1,,,,,,,,,0,,,53,127
94319,note_on,239,0,0,,,,,,,,,0,,,74,0
94319,note_on,0,0,0,,,,,,,,,0,,,86,0
94320,note_on,0,0,0,,,,,,,,,0,,,81,112
94320,note_on,1,0,0,,,,,,,,,0,,,77,112
94559,note_on,239,0,0,,,,,,,,,0,,,77,0
94559,note_on,0,0,0,,,,,,,,,0,,,81,0
94560,note_on,0,0,0,,,,,,,,,0,,,86,112
94560,note_on,1,0,0,,,,,,,,,0,,,74,112
94799,note_on,239,0,0,,,,,,,,,0,,,74,0
94799,note_on,0,0,0,,,,,,,,,0,,,86,0
94799,note_on,719,0,1,,,,,,,,,0,,,53,0
94799,note_on,0,0,1,,,,,,,,,0,,,69,0
94799,note_on,0,0,1,,,,,,,,,0,,,63,0
94799,note_on,0,0,1,,,,,,,,,0,,,60,0
94800,note_on,0,0,0,,,,,,,,,0,,,84,112
94800,note_on,1,0,1,,,,,,,,,0,,,53,112
94800,note_on,0,0,1,,,,,,,,,0,,,60,112
94800,note_on,0,0,1,,,,,,,,,0,,,63,112
94800,note_on,0,0,1,,,,,,,,,0,,,69,112
94800,note_on,1,0,0,,,,,,,,,0,,,72,112
94878,note_on,0,0,1,,,,,,,,,0,,,69,0
94878,note_on,0,0,1,,,,,,,,,0,,,60,0
94878,note_on,0,0,1,,,,,,,,,0,,,63,0
94878,note_on,78,0,1,,,,,,,,,0,,,53,0
95027,note_on,227,0,0,,,,,,,,,0,,,72,0
95027,note_on,0,0,0,,,,,,,,,0,,,84,0
95040,note_on,13,0,0,,,,,,,,,0,,,69,112
95040,note_on,0,0,0,,,,,,,,,0,,,81,112
95041,control_change,163,0,1,,,,,,,64,0,0,,,,
95042,control_change,1,0,1,,,,,,,64,127,0,,,,
95279,note_on,239,0,0,,,,,,,,,0,,,69,0
95279,note_on,0,0,0,,,,,,,,,0,,,81,0
95280,note_on,0,0,0,,,,,,,,,0,,,75,112
95280,note_on,1,0,0,,,,,,,,,0,,,72,112
95519,note_on,0,0,0,,,,,,,,,0,,,75,0
95519,note_on,239,0,0,,,,,,,,,0,,,72,0
95520,note_on,0,0,1,,,,,,,,,0,,,57,112
95520,note_on,1,0,0,,,,,,,,,0,,,69,112
95520,note_on,478,0,1,,,,,,,,,0,,,41,112
95520,note_on,0,0,1,,,,,,,,,0,,,51,112
95520,note_on,0,0,0,,,,,,,,,0,,,81,112
95520,note_on,0,0,1,,,,,,,,,0,,,48,112
95759,note_on,239,0,0,,,,,,,,,0,,,69,0
95759,note_on,0,0,0,,,,,,,,,0,,,81,0
95760,note_on,1,0,0,,,,,,,,,0,,,67,112
95760,note_on,0,0,0,,,,,,,,,0,,,79,112
95999,note_on,0,0,0,,,,,,,,,0,,,79,0
95999,note_on,239,0,0,,,,,,,,,0,,,67,0
96000,note_on,0,0,0,,,,,,,,,0,,,77,112
96000,note_on,1,0,0,,,,,,,,,0,,,65,112
96203,note_on,0,0,1,,,,,,,,,0,,,51,0
96203,note_on,0,0,1,,,,,,,,,0,,,48,0
96203,note_on,683,0,1,,,,,,,,,0,,,41,0
96203,note_on,0,0,1,,,,,,,,,0,,,57,0
96239,note_on,239,0,0,,,,,,,,,0,,,65,0
96239,note_on,0,0,0,,,,,,,,,0,,,77,0
96240,note_on,0,0,1,,,,,,,,,0,,,48,112
96240,note_on,0,0,1,,,,,,,,,0,,,51,112
96240,note_on,0,0,1,,,,,,,,,0,,,57,112
96240,note_on,37,0,1,,,,,,,,,0,,,41,112
96240,note_on,0,0,0,,,,,,,,,0,,,72,112
96240,note_on,1,0,0,,,,,,,,,0,,,69,112
96479,note_on,239,0,0,,,,,,,,,0,,,69,0
96479,note_on,0,0,0,,,,,,,,,0,,,72,0
96480,note_on,1,0,0,,,,,,,,,0,,,65,112
96480,note_on,0,0,0,,,,,,,,,0,,,77,112
96719,note_on,0,0,0,,,,,,,,,0,,,77,0
96719,note_on,239,0,0,,,,,,,,,0,,,65,0
96720,note_on,1,0,0,,,,,,,,,0,,,63,112
96720,note_on,0,0,0,,,,,,,,,0,,,75,112
96923,note_on,0,0,1,,,,,,,,,0,,,57,0
96923,note_on,0,0,1,,,,,,,,,0,,,51,0
96923,note_on,0,0,1,,,,,,,,,0,,,48,0
96923,note_on,683,0,1,,,,,,,,,0,,,41,0
96959,note_on,0,0,0,,,,,,,,,0,,,75,0
96959,note_on,239,0,0,,,,,,,,,0,,,63,0
96960,note_on,1,0,0,,,,,,,,,0,,,62,112
96960,note_on,37,0,1,,,,,,,,,0,,,41,112
96960,note_on,0,0,0,,,,,,,,,0,,,74,112
96960,note_on,0,0,1,,,,,,,,,0,,,57,112
96960,note_on,0,0,1,,,,,,,,,0,,,48,112
96960,note_on,0,0,1,,,,,,,,,0,,,51,112
97199,note_on,239,0,0,,,,,,,,,0,,,62,0
97199,note_on,0,0,0,,,,,,,,,0,,,74,0
97200,note_on,0,0,0,,,,,,,,,0,,,69,112
97200,note_on,1,0,0,,,,,,,,,0,,,65,112
97439,note_on,0,0,0,,,,,,,,,0,,,69,0
97439,note_on,239,0,0,,,,,,,,,0,,,65,0
97440,note_on,0,0,0,,,,,,,,,0,,,74,112
97440,note_on,1,0,0,,,,,,,,,0,,,62,112
97643,note_on,0,0,1,,,,,,,,,0,,,51,0
97643,note_on,0,0,1,,,,,,,,,0,,,48,0
97643,note_on,683,0,1,,,,,,,,,0,,,41,0
97643,note_on,0,0,1,,,,,,,,,0,,,57,0
97679,note_on,0,0,0,,,,,,,,,0,,,74,0
97679,note_on,239,0,0,,,,,,,,,0,,,62,0
97680,note_on,0,0,1,,,,,,,,,0,,,57,112
97680,note_on,1,0,0,,,,,,,,,0,,,60,112
97680,note_on,0,0,1,,,,,,,,,0,,,48,112
97680,note_on,37,0,1,,,,,,,,,0,,,41,112
97680,note_on,0,0,0,,,,,,,,,0,,,72,112
97680,note_on,0,0,1,,,,,,,,,0,,,51,112
97758,note_on,0,0,1,,,,,,,,,0,,,48,0
97758,note_on,0,0,1,,,,,,,,,0,,,51,0
97758,note_on,0,0,1,,,,,,,,,0,,,57,0
97758,note_on,78,0,1,,,,,,,,,0,,,41,0
97907,note_on,227,0,0,,,,,,,,,0,,,60,0
97907,note_on,0,0,0,,,,,,,,,0,,,72,0
97920,note_on,0,0,0,,,,,,,,,0,,,69,112
97920,note_on,13,0,0,,,,,,,,,0,,,57,112
97921,control_change,163,0,1,,,,,,,64,0,0,,,,
97922,control_change,1,0,1,,,,,,,64,127,0,,,,
98159,note_on,239,0,0,,,,,,,,,0,,,57,0
98159,note_on,0,0,0,,,,,,,,,0,,,69,0
98160,note_on,1,0,0,,,,,,,,,0,,,60,110
98160,note_on,0,0,0,,,,,,,,,0,,,63,110
98399,note_on,0,0,0,,,,,,,,,0,,,63,0
98399,note_on,239,0,0,,,,,,,,,0,,,60,0
98400,note_on,0,0,1,,,,,,,,,0,,,48,107
98400,note_on,1,0,0,,,,,,,,,0,,,57,107
98400,note_on,0,0,1,,,,,,,,,0,,,51,107
98400,note_on,0,0,1,,,,,,,,,0,,,53,107
98400,note_on,478,0,1,,,,,,,,,0,,,41,107
98400,note_on,0,0,0,,,,,,,,,0,,,69,107
98639,note_on,0,0,0,,,,,,,,,0,,,69,0
98639,note_on,239,0,0,,,,,,,,,0,,,57,0
98640,note_on,0,0,0,,,,,,,,,0,,,67,104
98640,note_on,0,0,0,,,,,,,,,0,,,63,104
98640,note_on,1,0,0,,,,,,,,,0,,,60,104
98879,note_on,239,0,0,,,,,,,,,0,,,60,0
98879,note_on,0,0,0,,,,,,,,,0,,,63,0
98879,note_on,0,0,0,,,,,,,,,0,,,67,0
98880,note_on,0,0,0,,,,,,,,,0,,,65,104
98880,note_on,1,0,0,,,,,,,,,0,,,57,104
99083,note_on,0,0,1,,,,,,,,,0,,,48,0
99083,note_on,683,0,1,,,,,,,,,0,,,41,0
99083,note_on,0,0,1,,,,,,,,,0,,,53,0
99083,note_on,0,0,1,,,,,,,,,0,,,51,0
99119,note_on,239,0,0,,,,,,,,,0,,,57,0
99119,note_on,0,0,0,,,,,,,,,0,,,65,0
99120,note_on,0,0,1,,,,,,,,,0,,,48,104
99120,note_on,0,0,0,,,,,,,,,0,,,63,104
99120,note_on,0,0,1,,,,,,,,,0,,,51,104
99120,note_on,0,0,1,,,,,,,,,0,,,57,104
99120,note_on,1,0,0,,,,,,,,,0,,,60,104
99120,note_on,37,0,1,,,,,,,,,0,,,41,104
99347,note_on,0,0,1,,,,,,,,,0,,,57,0
99347,note_on,0,0,1,,,,,,,,,0,,,51,0
99347,note_on,227,0,0,,,,,,,,,0,,,60,0
99347,note_on,0,0,1,,,,,,,,,0,,,48,0
99347,note_on,0,0,0,,,,,,,,,0,,,63,0
99347,note_on,227,0,1,,,,,,,,,0,,,41,0
99360,set_tempo,13,1,0,,,,,,705881,,,,,,,
99360,note_on,0,0,0,,,,,,,,,0,,,69,104
99360,note_on,0,0,0,,,,,,,,,0,,,57,104
99361,control_change,14,0,1,,,,,,,64,0,0,,,,
99362,control_change,1,0,1,,,,,,,64,127,0,,,,
99599,note_on,239,0,0,,,,,,,,,0,,,57,0
99599,note_on,0,0,0,,,,,,,,,0,,,69,0
99600,note_on,1,0,0,,,,,,,,,0,,,60,102
99600,note_on,0,0,0,,,,,,,,,0,,,63,102
99839,note_on,0,0,0,,,,,,,,,0,,,63,0
99839,note_on,239,0,0,,,,,,,,,0,,,60,0
99840,note_on,0,0,0,,,,,,,,,0,,,69,99
99840,note_on,0,0,1,,,,,,,,,0,,,51,99
99840,note_on,478,0,1,,,,,,,,,0,,,41,99
99840,note_on,0,0,1,,,,,,,,,0,,,48,99
99840,note_on,0,0,1,,,,,,,,,0,,,53,99
99840,note_on,1,0,0,,,,,,,,,0,,,57,99
100079,note_on,239,0,0,,,,,,,,,0,,,57,0
100079,note_on,0,0,0,,,,,,,,,0,,,69,0
100080,note_on,0,0,0,,,,,,,,,0,,,67,96
100080,note_on,0,0,0,,,,,,,,,0,,,60,96
100080,set_tempo,1,1,0,,,,,,750000,,,,,,,
100080,note_on,0,0,0,,,,,,,,,0,,,63,96
100319,note_on,0,0,0,,,,,,,,,0,,,63,0
100319,note_on,0,0,0,,,,,,,,,0,,,67,0
100319,note_on,239,0,0,,,,,,,,,0,,,60,0
100320,note_on,0,0,0,,,,,,,,,0,,,65,96
100320,set_tempo,1,1,0,,,,,,800000,,,,,,,
100320,note_on,0,0,0,,,,,,,,,0,,,57,96
100523,note_on,0,0,1,,,,,,,,,0,,,53,0
100523,note_on,0,0,1,,,,,,,,,0,,,51,0
100523,note_on,0,0,1,,,,,,,,,0,,,48,0
100523,note_on,683,0,1,,,,,,,,,0,,,41,0
100559,note_on,0,0,0,,,,,,,,,0,,,65,0
100559,note_on,239,0,0,,,,,,,,,0,,,57,0
100560,note_on,0,0,0,,,,,,,,,0,,,60,96
100560,note_on,0,0,0,,,,,,,,,0,,,63,96
100560,note_on,0,0,1,,,,,,,,,0,,,57,96
100560,note_on,0,0,1,,,,,,,,,0,,,51,96
100560,note_on,0,0,1,,,,,,,,,0,,,48,96
100560,set_tempo,1,1,0,,,,,,857143,,,,,,,
100560,note_on,37,0,1,,,,,,,,,0,,,41,96
100787,note_on,227,0,0,,,,,,,,,0,,,60,0
100787,note_on,0,0,1,,,,,,,,,0,,,51,0
100787,note_on,0,0,1,,,,,,,,,0,,,48,0
100787,note_on,227,0,1,,,,,,,,,0,,,41,0
100787,note_on,0,0,0,,,,,,,,,0,,,63,0
100787,note_on,0,0,1,,,,,,,,,0,,,57,0
100800,set_tempo,13,1,0,,,,,,923077,,,,,,,
100800,note_on,0,0,1,,,,,,,,,0,,,49,96
100800,note_on,0,0,1,,,,,,,,,0,,,52,96
100800,note_on,0,0,0,,,,,,,,,0,,,69,115
100800,note_on,0,0,0,,,,,,,,,0,,,57,115
100800,note_on,13,0,1,,,,,,,,,0,,,40,96
100801,control_change,1,0,1,,,,,,,64,0,0,,,,
100802,control_change,1,0,1,,,,,,,64,127,0,,,,
101039,note_on,0,0,0,,,,,,,,,0,,,69,0
101039,note_on,239,0,0,,,,,,,,,0,,,57,0
101040,note_on,0,0,0,,,,,,,,,0,,,64,96
101040,note_on,1,0,0,,,,,,,,,0,,,61,96
101255,note_on,0,0,1,,,,,,,,,0,,,49,0
101255,note_on,0,0,1,,,,,,,,,0,,,52,0
101255,note_on,453,0,1,,,,,,,,,0,,,40,0
101279,note_on,0,0,0,,,,,,,,,0,,,64,0
101279,note_on,239,0,0,,,,,,,,,0,,,61,0
101280,note_on,0,0,0,,,,,,,,,0,,,57,96
101280,note_on,0,0,0,,,,,,,,,0,,,73,96
101280,set_tempo,1,1,0,,,,,,857143,,,,,,,
101280,note_on,0,0,0,,,,,,,,,0,,,81,96
101280,note_on,0,0,0,,,,,,,,,0,,,76,96
101280,note_on,0,0,0,,,,,,,,,0,,,69,96
101519,note_on,0,0,0,,,,,,,,,0,,,73,0
101519,note_on,0,0,0,,,,,,,,,0,,,76,0
101519,note_on,239,0,0,,,,,,,,,0,,,57,0
101519,note_on,0,0,0,,,,,,,,,0,,,69,0
101519,note_on,0,0,0,,,,,,,,,0,,,81,0
101520,note_on,1,0,0,,,,,,,,,0,,,61,96
101520,note_on,0,0,0,,,,,,,,,0,,,68,96
101520,note_on,0,0,0,,,,,,,,,0,,,73,96
101520,note_on,0,0,0,,,,,,,,,0,,,76,96
101520,note_on,0,0,0,,,,,,,,,0,,,83,96
101759,note_on,0,0,0,,,,,,,,,0,,,68,0
101759,note_on,239,0,0,,,,,,,,,0,,,61,0
101760,note_on,0,0,0,,,,,,,,,0,,,66,96
101760,note_on,1,0,0,,,,,,,,,0,,,57,96
101999,note_on,0,0,0,,,,,,,,,0,,,66,0
101999,note_on,0,0,0,,,,,,,,,0,,,76,0
101999,note_on,0,0,0,,,,,,,,,0,,,57,0
101999,note_on,0,0,0,,,,,,,,,0,,,83,0
101999,note_on,239,0,0,,,,,,,,,0,,,73,0
102000,note_on,0,0,0,,,,,,,,,0,,,76,96
102000,note_on,1,0,0,,,,,,,,,0,,,61,96
102000,note_on,0,0,0,,,,,,,,,0,,,64,96
102000,note_on,0,0,0,,,,,,,,,0,,,73,96
102000,note_on,0,0,0,,,,,,,,,0,,,85,96
102227,note_on,0,0,0,,,,,,,,,0,,,85,0
102227,note_on,227,0,0,,,,,,,,,0,,,61,0
102227,note_on,0,0,0,,,,,,,,,0,,,76,0
102227,note_on,0,0,0,,,,,,,,,0,,,73,0
102227,note_on,0,0,0,,,,,,,,,0,,,64,0
102240,note_on,0,0,0,,,,,,,,,0,,,68,115
102240,note_on,13,0,0,,,,,,,,,0,,,56,115
102240,note_on,985,0,1,,,,,,,,,0,,,40,96
102240,note_on,0,0,1,,,,,,,,,0,,,47,96
102240,note_on,0,0,1,,,,,,,,,0,,,50,96
102240,note_on,0,0,1,,,,,,,,,0,,,52,96
102241,control_change,1,0,1,,,,,,,64,0,0,,,,
102242,control_change,1,0,1,,,,,,,64,127,0,,,,
102479,note_on,239,0,0,,,,,,,,,0,,,56,0
102479,note_on,0,0,0,,,,,,,,,0,,,68,0
102480,note_on,0,0,0,,,,,,,,,0,,,62,96
102480,note_on,1,0,0,,,,,,,,,0,,,59,96
102695,note_on,0,0,1,,,,,,,,,0,,,50,0
102695,note_on,453,0,1,,,,,,,,,0,,,40,0
102695,note_on,0,0,1,,,,,,,,,0,,,47,0
102695,note_on,0,0,1,,,,,,,,,0,,,52,0
102719,note_on,239,0,0,,,,,,,,,0,,,59,0
102719,note_on,0,0,0,,,,,,,,,0,,,62,0
102720,note_on,0,0,0,,,,,,,,,0,,,56,96
102720,note_on,0,0,0,,,,,,,,,0,,,68,96
102720,note_on,0,0,0,,,,,,,,,0,,,74,96
102720,note_on,0,0,0,,,,,,,,,0,,,76,96
102720,note_on,0,0,0,,,,,,,,,0,,,86,96
102720,set_tempo,1,1,0,,,,,,800000,,,,,,,
102959,note_on,239,0,0,,,,,,,,,0,,,56,0
102959,note_on,0,0,0,,,,,,,,,0,,,68,0
102960,note_on,1,0,0,,,,,,,,,0,,,59,96
102960,note_on,0,0,0,,,,,,,,,0,,,66,96
103199,note_on,239,0,0,,,,,,,,,0,,,59,0
103199,note_on,0,0,0,,,,,,,,,0,,,66,0
103200,note_on,1,0,0,,,,,,,,,0,,,56,96
103200,note_on,0,0,0,,,,,,,,,0,,,64,96
103439,note_on,0,0,0,,,,,,,,,0,,,56,0
103439,note_on,0,0,0,,,,,,,,,0,,,64,0
103439,note_on,0,0,0,,,,,,,,,0,,,76,0
103439,note_on,0,0,0,,,,,,,,,0,,,86,0
103439,note_on,239,0,0,,,,,,,,,0,,,74,0
103440,note_on,0,0,0,,,,,,,,,0,,,62,96
103440,note_on,1,0,0,,,,,,,,,0,,,59,96
103440,note_on,0,0,0,,,,,,,,,0,,,74,96
103440,note_on,0,0,0,,,,,,,,,0,,,76,96
103440,note_on,0,0,0,,,,,,,,,0,,,80,96
103667,note_on,0,0,0,,,,,,,,,0,,,76,0
103667,note_on,0,0,0,,,,,,,,,0,,,80,0
103667,note_on,0,0,0,,,,,,,,,0,,,74,0
103667,note_on,0,0,0,,,,,,,,,0,,,62,0
103667,note_on,227,0,0,,,,,,,,,0,,,59,0
103680,note_on,0,0,0,,,,,,,,,0,,,68,115
103680,note_on,13,0,0,,,,,,,,,0,,,56,115
103680,note_on,985,0,1,,,,,,,,,0,,,39,96
103680,note_on,0,0,1,,,,,,,,,0,,,51,96
103680,note_on,0,0,1,,,,,,,,,0,,,48,96
103681,control_change,1,0,1,,,,,,,64,0,0,,,,
103682,control_change,1,0,1,,,,,,,64,127,0,,,,
103919,note_on,0,0,0,,,,,,,,,0,,,68,0
103919,note_on,239,0,0,,,,,,,,,0,,,56,0
103920,note_on,0,0,0,,,,,,,,,0,,,63,96
103920,note_on,1,0,0,,,,,,,,,0,,,60,96
104135,note_on,0,0,1,,,,,,,,,0,,,51,0
104135,note_on,453,0,1,,,,,,,,,0,,,39,0
104135,note_on,0,0,1,,,,,,,,,0,,,48,0
104159,note_on,239,0,0,,,,,,,,,0,,,60,0
104159,note_on,0,0,0,,,,,,,,,0,,,63,0
104160,note_on,0,0,0,,,,,,,,,0,,,68,96
104160,note_on,1,0,0,,,,,,,,,0,,,56,96
104160,note_on,0,0,0,,,,,,,,,0,,,80,96
104160,note_on,0,0,0,,,,,,,,,0,,,72,96
104160,note_on,0,0,0,,,,,,,,,0,,,75,96
104399,note_on,0,0,0,,,,,,,,,0,,,80,0
104399,note_on,0,0,0,,,,,,,,,0,,,75,0
104399,note_on,239,0,0,,,,,,,,,0,,,56,0
104399,note_on,0,0,0,,,,,,,,,0,,,72,0
104399,note_on,0,0,0,,,,,,,,,0,,,68,0
104400,note_on,0,0,0,,,,,,,,,0,,,82,96
104400,note_on,0,0,0,,,,,,,,,0,,,75,96
104400,note_on,0,0,0,,,,,,,,,0,,,72,96
104400,note_on,0,0,0,,,,,,,,,0,,,67,96
104400,note_on,1,0,0,,,,,,,,,0,,,60,96
104639,note_on,239,0,0,,,,,,,,,0,,,60,0
104639,note_on,0,0,0,,,,,,,,,0,,,67,0
104640,note_on,0,0,0,,,,,,,,,0,,,65,96
104640,note_on,1,0,0,,,,,,,,,0,,,56,96
104879,note_on,239,0,0,,,,,,,,,0,,,72,0
104879,note_on,0,0,0,,,,,,,,,0,,,82,0
104879,note_on,0,0,0,,,,,,,,,0,,,56,0
104879,note_on,0,0,0,,,,,,,,,0,,,65,0
104879,note_on,0,0,0,,,,,,,,,0,,,75,0
104880,note_on,0,0,0,,,,,,,,,0,,,84,96
104880,note_on,1,0,0,,,,,,,,,0,,,60,96
104880,note_on,0,0,0,,,,,,,,,0,,,75,96
104880,note_on,0,0,0,,,,,,,,,0,,,63,96
104880,note_on,0,0,0,,,,,,,,,0,,,72,96
105107,note_on,227,0,0,,,,,,,,,0,,,60,0
105107,note_on,0,0,0,,,,,,,,,0,,,63,0
105107,note_on,0,0,0,,,,,,,,,0,,,75,0
105107,note_on,0,0,0,,,,,,,,,0,,,72,0
105107,note_on,0,0,0,,,,,,,,,0,,,84,0
105120,note_on,0,0,1,,,,,,,,,0,,,51,115
105120,note_on,0,0,1,,,,,,,,,0,,,46,115
105120,note_on,985,0,1,,,,,,,,,0,,,39,115
105120,note_on,13,0,0,,,,,,,,,0,,,55,96
105120,note_on,0,0,1,,,,,,,,,0,,,49,115
105120,note_on,0,0,0,,,,,,,,,0,,,67,96
105121,control_change,1,0,1,,,,,,,64,0,0,,,,
105122,control_change,1,0,1,,,,,,,64,127,0,,,,
105359,note_on,0,0,0,,,,,,,,,0,,,67,0
105359,note_on,239,0,0,,,,,,,,,0,,,55,0
105360,note_on,1,0,0,,,,,,,,,0,,,58,96
105360,note_on,0,0,0,,,,,,,,,0,,,61,96
105599,note_on,477,0,1,,,,,,,,,0,,,39,0
105599,note_on,0,0,1,,,,,,,,,0,,,46,0
105599,note_on,0,0,1,,,,,,,,,0,,,49,0
105599,note_on,0,0,1,,,,,,,,,0,,,51,0
105599,note_on,239,0,0,,,,,,,,,0,,,58,0
105599,note_on,0,0,0,,,,,,,,,0,,,61,0
105600,set_tempo,1,1,0,,,,,,750000,,,,,,,
105600,note_on,0,0,0,,,,,,,,,0,,,67,96
105600,note_on,0,0,0,,,,,,,,,0,,,73,96
105600,note_on,0,0,0,,,,,,,,,0,,,55,96
105600,note_on,0,0,0,,,,,,,,,0,,,85,96
105600,note_on,0,0,0,,,,,,,,,0,,,75,96
105839,note_on,0,0,0,,,,,,,,,0,,,67,0
105839,note_on,239,0,0,,,,,,,,,0,,,55,0
105840,note_on,1,0,0,,,,,,,,,0,,,58,96
105840,note_on,0,0,0,,,,,,,,,0,,,65,96
106079,note_on,0,0,0,,,,,,,,,0,,,65,0
106079,note_on,239,0,0,,,,,,,,,0,,,58,0
106080,note_on,1,0,0,,,,,,,,,0,,,55,96
106080,note_on,0,0,0,,,,,,,,,0,,,63,96
106319,note_on,0,0,0,,,,,,,,,0,,,63,0
106319,note_on,239,0,0,,,,,,,,,0,,,73,0
106319,note_on,0,0,0,,,,,,,,,0,,,75,0
106319,note_on,0,0,0,,,,,,,,,0,,,55,0
106319,note_on,0,0,0,,,,,,,,,0,,,85,0
106320,note_on,0,0,0,,,,,,,,,0,,,61,96
106320,note_on,1,0,0,,,,,,,,,0,,,58,96
106320,note_on,0,0,0,,,,,,,,,0,,,73,96
106320,note_on,0,0,0,,,,,,,,,0,,,79,96
106320,note_on,0,0,0,,,,,,,,,0,,,75,96
106547,note_on,0,0,0,,,,,,,,,0,,,75,0
106547,note_on,227,0,0,,,,,,,,,0,,,58,0
106547,note_on,0,0,0,,,,,,,,,0,,,73,0
106547,note_on,0,0,0,,,,,,,,,0,,,61,0
106547,note_on,0,0,0,,,,,,,,,0,,,79,0
106560,note_on,0,0,1,,,,,,,,,0,,,46,96
106560,note_on,0,0,1,,,,,,,,,0,,,49,96
106560,note_on,0,0,0,,,,,,,,,0,,,66,96
106560,note_on,961,0,1,,,,,,,,,0,,,37,96
106560,note_on,13,0,0,,,,,,,,,0,,,54,96
106561,control_change,1,0,1,,,,,,,64,0,0,,,,
106562,control_change,1,0,1,,,,,,,64,127,0,,,,
106799,note_on,239,0,0,,,,,,,,,0,,,54,0
106799,note_on,0,0,0,,,,,,,,,0,,,66,0
106800,note_on,0,0,0,,,,,,,,,0,,,61,96
106800,note_on,1,0,0,,,,,,,,,0,,,58,96
107015,note_on,0,0,1,,,,,,,,,0,,,49,0
107015,note_on,453,0,1,,,,,,,,,0,,,37,0
107015,note_on,0,0,1,,,,,,,,,0,,,46,0
107039,note_on,239,0,0,,,,,,,,,0,,,58,0
107039,note_on,0,0,0,,,,,,,,,0,,,61,0
107040,note_on,0,0,0,,,,,,,,,0,,,66,96
107040,note_on,1,0,0,,,,,,,,,0,,,54,96
107040,note_on,0,0,0,,,,,,,,,0,,,70,96
107040,note_on,0,0,0,,,,,,,,,0,,,78,96
107040,note_on,0,0,0,,,,,,,,,0,,,73,96
107279,note_on,0,0,0,,,,,,,,,0,,,73,0
107279,note_on,239,0,0,,,,,,,,,0,,,54,0
107279,note_on,0,0,0,,,,,,,,,0,,,78,0
107279,note_on,0,0,0,,,,,,,,,0,,,70,0
107279,note_on,0,0,0,,,,,,,,,0,,,66,0
107280,note_on,0,0,0,,,,,,,,,0,,,77,96
107280,note_on,0,0,0,,,,,,,,,0,,,73,96
107280,note_on,0,0,0,,,,,,,,,0,,,70,96
107280,note_on,0,0,0,,,,,,,,,0,,,65,96
107280,note_on,1,0,0,,,,,,,,,0,,,58,96
107519,note_on,239,0,0,,,,,,,,,0,,,58,0
107519,note_on,0,0,0,,,,,,,,,0,,,65,0
107520,note_on,0,0,0,,,,,,,,,0,,,63,96
107520,note_on,1,0,0,,,,,,,,,0,,,54,96
107759,note_on,0,0,0,,,,,,,,,0,,,77,0
107759,note_on,0,0,0,,,,,,,,,0,,,73,0
107759,note_on,0,0,0,,,,,,,,,0,,,63,0
107759,note_on,0,0,0,,,,,,,,,0,,,54,0
107759,note_on,239,0,0,,,,,,,,,0,,,70,0
107760,note_on,0,0,0,,,,,,,,,0,,,75,96
107760,note_on,0,0,0,,,,,,,,,0,,,70,96
107760,note_on,0,0,0,,,,,,,,,0,,,66,96
107760,note_on,0,0,0,,,,,,,,,0,,,61,96
107760,note_on,1,0,0,,,,,,,,,0,,,58,96
107987,note_on,0,0,0,,,,,,,,,0,,,61,0
107987,note_on,0,0,0,,,,,,,,,0,,,66,0
107987,note_on,0,0,0,,,,,,,,,0,,,70,0
107987,note_on,0,0,0,,,,,,,,,0,,,75,0
107987,note_on,227,0,0,,,,,,,,,0,,,58,0
108000,note_on,0,0,0,,,,,,,,,0,,,62,96
108000,note_on,985,0,1,,,,,,,,,0,,,37,96
108000,note_on,13,0,0,,,,,,,,,0,,,53,96
108000,note_on,0,0,1,,,,,,,,,0,,,49,96
108000,note_on,0,0,1,,,,,,,,,0,,,47,96
108001,control_change,1,0,1,,,,,,,64,0,0,,,,
108002,control_change,1,0,1,,,,,,,64,127,0,,,,
108239,note_on,0,0,0,,,,,,,,,0,,,62,0
108239,note_on,239,0,0,,,,,,,,,0,,,53,0
108240,note_on,0,0,0,,,,,,,,,0,,,59,96
108240,note_on,1,0,0,,,,,,,,,0,,,56,96
108455,note_on,0,0,1,,,,,,,,,0,,,49,0
108455,note_on,0,0,1,,,,,,,,,0,,,47,0
108455,note_on,453,0,1,,,,,,,,,0,,,37,0
108479,note_on,239,0,0,,,,,,,,,0,,,56,0
108479,note_on,0,0,0,,,,,,,,,0,,,59,0
108480,note_on,0,0,0,,,,,,,,,0,,,74,96
108480,note_on,1,0,0,,,,,,,,,0,,,53,96
108480,note_on,0,0,0,,,,,,,,,0,,,71,96
108480,note_on,0,0,0,,,,,,,,,0,,,68,96
108480,note_on,0,0,0,,,,,,,,,0,,,65,96
108480,note_on,0,0,0,,,,,,,,,0,,,62,96
108719,note_on,239,0,0,,,,,,,,,0,,,53,0
108719,note_on,0,0,0,,,,,,,,,0,,,62,0
108720,note_on,0,0,0,,,,,,,,,0,,,61,91
108720,note_on,1,0,0,,,,,,,,,0,,,56,91
108959,note_on,0,0,0,,,,,,,,,0,,,61,0
108959,note_on,239,0,0,,,,,,,,,0,,,56,0
108960,note_on,0,0,0,,,,,,,,,0,,,59,86
108960,note_on,1,0,0,,,,,,,,,0,,,53,86
109199,note_on,0,0,0,,,,,,,,,0,,,53,0
109199,note_on,0,0,0,,,,,,,,,0,,,71,0
109199,note_on,0,0,0,,,,,,,,,0,,,74,0
109199,note_on,239,0,0,,,,,,,,,0,,,65,0
109199,note_on,0,0,0,,,,,,,,,0,,,59,0
109199,note_on,0,0,0,,,,,,,,,0,,,68,0
109200,note_on,0,0,0,,,,,,,,,0,,,68,80
109200,note_on,1,0,0,,,,,,,,,0,,,56,80
109200,note_on,0,0,0,,,,,,,,,0,,,73,80
109200,note_on,0,0,0,,,,,,,,,0,,,65,80
109427,note_on,0,0,0,,,,,,,,,0,,,65,0
109427,note_on,0,0,0,,,,,,,,,0,,,68,0
109427,note_on,227,0,0,,,,,,,,,0,,,56,0
109427,note_on,0,0,0,,,,,,,,,0,,,73,0
109440,note_on,13,0,0,,,,,,,,,0,,,54,80
109440,note_on,0,0,0,,,,,,,,,0,,,66,80
109440,note_on,0,0,1,,,,,,,,,0,,,46,80
109440,note_on,0,0,1,,,,,,,,,0,,,49,80
109440,note_on,985,0,1,,,,,,,,,0,,,37,80
109441,control_change,1,0,1,,,,,,,64,0,0,,,,
109442,control_change,1,0,1,,,,,,,64,127,0,,,,
109679,note_on,0,0,0,,,,,,,,,0,,,66,0
109679,note_on,239,0,0,,,,,,,,,0,,,54,0
109680,note_on,0,0,0,,,,,,,,,0,,,61,80
109680,note_on,1,0,0,,,,,,,,,0,,,58,80
109895,note_on,453,0,1,,,,,,,,,0,,,37,0
109895,note_on,0,0,1,,,,,,,,,0,,,49,0
109895,note_on,0,0,1,,,,,,,,,0,,,46,0
109919,note_on,0,0,0,,,,,,,,,0,,,61,0
109919,note_on,239,0,0,,,,,,,,,0,,,58,0
109920,note_on,1,0,0,,,,,,,,,0,,,54,80
109920,note_on,0,0,0,,,,,,,,,0,,,73,80
109920,note_on,0,0,0,,,,,,,,,0,,,82,80
109920,note_on,0,0,0,,,,,,,,,0,,,66,80
109920,note_on,0,0,0,,,,,,,,,0,,,70,80
110159,note_on,0,0,0,,,,,,,,,0,,,82,0
110159,note_on,0,0,0,,,,,,,,,0,,,70,0
110159,note_on,0,0,0,,,,,,,,,0,,,73,0
110159,note_on,0,0,0,,,,,,,,,0,,,66,0
110159,note_on,239,0,0,,,,,,,,,0,,,54,0
110160,note_on,0,0,0,,,,,,,,,0,,,65,80
110160,note_on,0,0,0,,,,,,,,,0,,,70,80
110160,note_on,0,0,0,,,,,,,,,0,,,73,80
110160,note_on,0,0,0,,,,,,,,,0,,,80,80
110160,note_on,1,0,0,,,,,,,,,0,,,58,80
110399,note_on,0,0,0,,,,,,,,,0,,,65,0
110399,note_on,239,0,0,,,,,,,,,0,,,58,0
110400,note_on,0,0,0,,,,,,,,,0,,,63,80
110400,note_on,1,0,0,,,,,,,,,0,,,54,80
110639,note_on,0,0,0,,,,,,,,,0,,,63,0
110639,note_on,0,0,0,,,,,,,,,0,,,80,0
110639,note_on,0,0,0,,,,,,,,,0,,,73,0
110639,note_on,239,0,0,,,,,,,,,0,,,70,0
110639,note_on,0,0,0,,,,,,,,,0,,,54,0
110640,note_on,0,0,0,,,,,,,,,0,,,73,80
110640,note_on,0,0,0,,,,,,,,,0,,,70,80
110640,note_on,0,0,0,,,,,,,,,0,,,78,80
110640,note_on,0,0,0,,,,,,,,,0,,,61,80
110640,note_on,1,0,0,,,,,,,,,0,,,58,80
110867,note_on,0,0,0,,,,,,,,,0,,,61,0
110867,note_on,0,0,0,,,,,,,,,0,,,70,0
110867,note_on,0,0,0,,,,,,,,,0,,,73,0
110867,note_on,0,0,0,,,,,,,,,0,,,78,0
110867,note_on,227,0,0,,,,,,,,,0,,,58,0
110880,note_on,0,0,1,,,,,,,,,0,,,49,80
110880,note_on,0,0,1,,,,,,,,,0,,,47,80
110880,note_on,13,0,0,,,,,,,,,0,,,53,80
110880,note_on,985,0,1,,,,,,,,,0,,,37,80
110880,note_on,0,0,0,,,,,,,,,0,,,62,80
110881,control_change,1,0,1,,,,,,,64,0,0,,,,
110882,control_change,1,0,1,,,,,,,64,127,0,,,,
111119,note_on,239,0,0,,,,,,,,,0,,,53,0
111119,note_on,0,0,0,,,,,,,,,0,,,62,0
111120,note_on,1,0,0,,,,,,,,,0,,,56,80
111120,note_on,0,0,0,,,,,,,,,0,,,59,80
111335,note_on,0,0,1,,,,,,,,,0,,,47,0
111335,note_on,0,0,1,,,,,,,,,0,,,49,0
111335,note_on,453,0,1,,,,,,,,,0,,,37,0
111359,note_on,0,0,0,,,,,,,,,0,,,59,0
111359,note_on,239,0,0,,,,,,,,,0,,,56,0
111360,note_on,0,0,0,,,,,,,,,0,,,77,80
111360,note_on,1,0,0,,,,,,,,,0,,,53,80
111360,note_on,0,0,0,,,,,,,,,0,,,68,80
111360,note_on,0,0,0,,,,,,,,,0,,,62,80
111360,note_on,0,0,0,,,,,,,,,0,,,71,80
111599,note_on,239,0,0,,,,,,,,,0,,,53,0
111599,note_on,0,0,0,,,,,,,,,0,,,62,0
111600,note_on,1,0,0,,,,,,,,,0,,,56,80
111600,note_on,0,0,0,,,,,,,,,0,,,61,80
111839,note_on,239,0,0,,,,,,,,,0,,,56,0
111839,note_on,0,0,0,,,,,,,,,0,,,61,0
111840,note_on,1,0,0,,,,,,,,,0,,,53,80
111840,note_on,0,0,0,,,,,,,,,0,,,59,80
112079,note_on,0,0,0,,,,,,,,,0,,,71,0
112079,note_on,239,0,0,,,,,,,,,0,,,68,0
112079,note_on,0,0,0,,,,,,,,,0,,,53,0
112079,note_on,0,0,0,,,,,,,,,0,,,59,0
112079,note_on,0,0,0,,,,,,,,,0,,,77,0
112080,note_on,1,0,0,,,,,,,,,0,,,56,80
112307,note_on,227,0,0,,,,,,,,,0,,,56,0
112320,note_on,985,0,1,,,,,,,,,0,,,53,80
112321,control_change,1,0,1,,,,,,,64,0,0,,,,
112322,control_change,1,0,1,,,,,,,64,127,0,,,,
112559,note_on,237,0,1,,,,,,,,,0,,,53,0
112560,note_on,1,0,1,,,,,,,,,0,,,50,80
112560,note_on,0,0,1,,,,,,,,,0,,,50,96
112560,note_on,0,0,1,,,,,,,,,0,,,50,0
112800,note_on,240,0,1,,,,,,,,,0,,,53,80
113039,note_on,239,0,1,,,,,,,,,0,,,50,0
113039,note_on,0,0,1,,,,,,,,,0,,,53,0
113040,note_on,1,0,1,,,,,,,,,0,,,49,80
113040,set_tempo,733,1,0,,,,,,800000,,,,,,,
113040,note_on,0,0,1,,,,,,,,,0,,,49,0
113040,note_on,0,0,1,,,,,,,,,0,,,49,80
113280,note_on,240,0,1,,,,,,,,,0,,,47,80
113519,note_on,0,0,1,,,,,,,,,0,,,47,0
113519,note_on,239,0,1,,,,,,,,,0,,,49,0
113520,note_on,1,0,1,,,,,,,,,0,,,44,80
113759,note_on,239,0,1,,,,,,,,,0,,,44,0
113760,note_on,1,0,1,,,,,,,,,0,,,41,80
113761,control_change,1,0,1,,,,,,,64,0,0,,,,
113762,control_change,1,0,1,,,,,,,64,127,0,,,,
113987,note_on,225,0,1,,,,,,,,,0,,,41,0
114000,note_on,0,0,1,,,,,,,,,0,,,38,0
114000,note_on,0,0,1,,,,,,,,,0,,,38,96
114000,note_on,13,0,1,,,,,,,,,0,,,38,80
114240,note_on,240,0,1,,,,,,,,,0,,,41,80
114479,note_on,0,0,1,,,,,,,,,0,,,41,0
114479,note_on,239,0,1,,,,,,,,,0,,,38,0
114480,note_on,1,0,1,,,,,,,,,0,,,37,70
114480,note_on,0,0,1,,,,,,,,,0,,,37,70
114480,note_on,0,0,1,,,,,,,,,0,,,37,0
114720,note_on,240,0,1,,,,,,,,,0,,,41,60
114959,note_on,0,0,1,,,,,,,,,0,,,41,0
114959,note_on,239,0,1,,,,,,,,,0,,,37,0
114960,note_on,1,0,1,,,,,,,,,0,,,35,49
114960,note_on,0,0,1,,,,,,,,,0,,,35,49
114960,note_on,0,0,1,,,,,,,,,0,,,35,0
115187,note_on,227,0,1,,,,,,,,,0,,,35,0
115200,note_on,13,0,1,,,,,,,,,0,,,36,49
115201,control_change,1,0,1,,,,,,,64,0,0,,,,
115202,control_change,1,0,1,,,,,,,64,127,0,,,,
115440,note_on,2400,0,0,,,,,,,,,0,,,60,49
115679,note_on,239,0,0,,,,,,,,,0,,,60,0
115680,note_on,0,0,0,,,,,,,,,0,,,69,49
115680,note_on,1,0,0,,,,,,,,,0,,,65,49
115919,note_on,0,0,0,,,,,,,,,0,,,69,0
115919,note_on,239,0,0,,,,,,,,,0,,,65,0
115920,note_on,1,0,0,,,,,,,,,0,,,64,49
115920,note_on,0,0,0,,,,,,,,,0,,,72,49
115920,note_on,0,0,0,,,,,,,,,0,,,67,49
116159,note_on,0,0,0,,,,,,,,,0,,,67,0
116159,note_on,239,0,0,,,,,,,,,0,,,64,0
116160,note_on,0,0,0,,,,,,,,,0,,,65,49
116160,note_on,1,0,0,,,,,,,,,0,,,62,49
116399,note_on,0,0,0,,,,,,,,,0,,,65,0
116399,note_on,239,0,0,,,,,,,,,0,,,62,0
116400,note_on,1,0,0,,,,,,,,,0,,,60,49
116567,note_on,1365,0,1,,,,,,,,,0,,,36,0
116627,note_on,227,0,0,,,,,,,,,0,,,60,0
116640,note_on,73,0,1,,,,,,,,,0,,,35,49
116640,note_on,13,0,0,,,,,,,,,0,,,64,49
116640,note_on,0,0,0,,,,,,,,,0,,,67,49
116677,note_on,37,0,1,,,,,,,,,0,,,35,0
116678,note_on,1,0,1,,,,,,,,,0,,,36,49
116867,note_on,0,0,0,,,,,,,,,0,,,67,0
116867,note_on,0,0,0,,,,,,,,,0,,,64,0
116867,note_on,227,0,0,,,,,,,,,0,,,72,0
116880,note_on,13,0,0,,,,,,,,,0,,,62,49
117119,note_on,239,0,0,,,,,,,,,0,,,62,0
117120,note_on,0,0,0,,,,,,,,,0,,,70,49
117120,note_on,1,0,0,,,,,,,,,0,,,67,49
117359,note_on,0,0,0,,,,,,,,,0,,,70,0
117359,note_on,239,0,0,,,,,,,,,0,,,67,0
117360,note_on,0,0,0,,,,,,,,,0,,,69,49
117360,note_on,0,0,0,,,,,,,,,0,,,74,49
117360,note_on,1,0,0,,,,,,,,,0,,,65,49
117599,note_on,0,0,0,,,,,,,,,0,,,69,0
117599,note_on,239,0,0,,,,,,,,,0,,,65,0
117600,note_on,0,0,0,,,,,,,,,0,,,67,49
117600,note_on,1,0,0,,,,,,,,,0,,,64,49
117839,note_on,0,0,0,,,,,,,,,0,,,67,0
117839,note_on,239,0,0,,,,,,,,,0,,,64,0
117840,note_on,1,0,0,,,,,,,,,0,,,62,49
118007,note_on,1329,0,1,,,,,,,,,0,,,36,0
118067,note_on,227,0,0,,,,,,,,,0,,,62,0
118080,note_on,0,0,0,,,,,,,,,0,,,69,49
118080,note_on,13,0,0,,,,,,,,,0,,,65,49
118080,note_on,73,0,1,,,,,,,,,0,,,35,49
118081,control_change,1,0,1,,,,,,,64,0,0,,,,
118082,control_change,1,0,1,,,,,,,64,127,0,,,,
118117,note_on,35,0,1,,,,,,,,,0,,,35,0
118118,note_on,1,0,1,,,,,,,,,0,,,36,49
118307,note_on,0,0,0,,,,,,,,,0,,,69,0
118307,note_on,227,0,0,,,,,,,,,0,,,74,0
118307,note_on,0,0,0,,,,,,,,,0,,,65,0
118320,note_on,13,0,0,,,,,,,,,0,,,65,49
118559,note_on,239,0,0,,,,,,,,,0,,,65,0
118560,note_on,1,0,0,,,,,,,,,0,,,74,49
118560,note_on,0,0,0,,,,,,,,,0,,,77,49
118799,note_on,239,0,0,,,,,,,,,0,,,74,0
118799,note_on,0,0,0,,,,,,,,,0,,,77,0
118800,note_on,1,0,0,,,,,,,,,0,,,72,49
118800,note_on,0,0,0,,,,,,,,,0,,,76,49
118800,note_on,0,0,0,,,,,,,,,0,,,77,49
119039,note_on,239,0,0,,,,,,,,,0,,,72,0
119039,note_on,0,0,0,,,,,,,,,0,,,76,0
119040,note_on,1,0,0,,,,,,,,,0,,,70,49
119040,note_on,0,0,0,,,,,,,,,0,,,74,49
119279,note_on,239,0,0,,,,,,,,,0,,,70,0
119279,note_on,0,0,0,,,,,,,,,0,,,74,0
119280,note_on,1,0,0,,,,,,,,,0,,,65,49
119507,note_on,227,0,0,,,,,,,,,0,,,65,0
119519,note_on,12,0,0,,,,,,,,,0,,,77,0
119520,note_on,0,0,0,,,,,,,,,0,,,77,49
119520,note_on,0,0,0,,,,,,,,,0,,,72,49
119520,note_on,1,0,0,,,,,,,,,0,,,69,49
119759,note_on,0,0,0,,,,,,,,,0,,,72,0
119759,note_on,239,0,0,,,,,,,,,0,,,69,0
119760,note_on,0,0,0,,,,,,,,,0,,,74,49
119760,note_on,1,0,0,,,,,,,,,0,,,70,49
119999,note_on,0,0,0,,,,,,,,,0,,,74,0
119999,note_on,239,0,0,,,,,,,,,0,,,70,0
120000,note_on,1,0,0,,,,,,,,,0,,,65,49
120227,note_on,227,0,0,,,,,,,,,0,,,65,0
120239,note_on,12,0,0,,,,,,,,,0,,,77,0
120240,note_on,1,0,0,,,,,,,,,0,,,67,49
120240,note_on,0,0,0,,,,,,,,,0,,,77,49
120240,note_on,0,0,0,,,,,,,,,0,,,70,49
120479,note_on,239,0,0,,,,,,,,,0,,,67,0
120479,note_on,0,0,0,,,,,,,,,0,,,70,0
120480,note_on,0,0,0,,,,,,,,,0,,,72,49
120480,note_on,1,0,0,,,,,,,,,0,,,69,49
120719,note_on,0,0,0,,,,,,,,,0,,,72,0
120719,note_on,239,0,0,,,,,,,,,0,,,69,0
120720,note_on,1,0,0,,,,,,,,,0,,,65,49
120815,note_on,2697,0,1,,,,,,,,,0,,,36,0
120947,note_on,227,0,0,,,,,,,,,0,,,65,0
120959,note_on,12,0,0,,,,,,,,,0,,,77,0
120960,note_on,1,0,0,,,,,,,,,0,,,69,49
120961,control_change,146,0,1,,,,,,,64,0,0,,,,
120962,control_change,1,0,1,,,,,,,64,127,0,,,,
120999,note_on,39,0,0,,,,,,,,,0,,,77,49
121039,note_on,40,0,0,,,,,,,,,0,,,84,49
121198,note_on,159,0,0,,,,,,,,,0,,,77,0
121198,note_on,0,0,0,,,,,,,,,0,,,84,0
121199,note_on,1,0,0,,,,,,,,,0,,,69,0
121200,note_on,238,0,1,,,,,,,,,0,,,53,49
121439,note_on,239,0,1,,,,,,,,,0,,,53,0
121440,note_on,1,0,1,,,,,,,,,0,,,65,49
121440,note_on,0,0,1,,,,,,,,,0,,,69,49
121679,note_on,239,0,1,,,,,,,,,0,,,65,0
121679,note_on,0,0,1,,,,,,,,,0,,,69,0
121680,note_on,1,0,1,,,,,,,,,0,,,64,49
121680,note_on,0,0,1,,,,,,,,,0,,,67,49
121680,note_on,481,0,0,,,,,,,,,0,,,72,49
121680,note_on,0,0,0,,,,,,,,,0,,,84,49
121919,note_on,239,0,1,,,,,,,,,0,,,64,0
121919,note_on,0,0,1,,,,,,,,,0,,,67,0
121920,note_on,0,0,1,,,,,,,,,0,,,65,49
121920,note_on,1,0,1,,,,,,,,,0,,,62,49
122159,note_on,0,0,1,,,,,,,,,0,,,65,0
122159,note_on,239,0,1,,,,,,,,,0,,,62,0
122160,note_on,1,0,1,,,,,,,,,0,,,53,49
122387,note_on,227,0,1,,,,,,,,,0,,,53,0
122400,note_on,13,0,1,,,,,,,,,0,,,60,49
122400,note_on,0,0,1,,,,,,,,,0,,,64,49
122627,note_on,227,0,1,,,,,,,,,0,,,60,0
122627,note_on,0,0,1,,,,,,,,,0,,,64,0
122640,note_on,13,0,1,,,,,,,,,0,,,53,49
122819,note_on,0,0,0,,,,,,,,,0,,,84,0
122819,note_on,1139,0,0,,,,,,,,,0,,,72,0
122879,note_on,239,0,1,,,,,,,,,0,,,53,0
122880,note_on,0,0,1,,,,,,,,,0,,,70,49
122880,note_on,1,0,1,,,,,,,,,0,,,67,49
123119,note_on,239,0,1,,,,,,,,,0,,,67,0
123119,note_on,0,0,1,,,,,,,,,0,,,70,0
123120,note_on,301,0,0,,,,,,,,,0,,,72,49
123120,note_on,0,0,0,,,,,,,,,0,,,84,49
123120,note_on,0,0,1,,,,,,,,,0,,,69,49
123120,note_on,1,0,1,,,,,,,,,0,,,65,49
123359,note_on,239,0,1,,,,,,,,,0,,,65,0
123359,note_on,0,0,1,,,,,,,,,0,,,69,0
123360,note_on,1,0,1,,,,,,,,,0,,,64,49
123360,note_on,0,0,1,,,,,,,,,0,,,67,49
123599,note_on,0,0,1,,,,,,,,,0,,,67,0
123599,note_on,239,0,1,,,,,,,,,0,,,64,0
123600,note_on,1,0,1,,,,,,,,,0,,,53,49
123827,note_on,227,0,1,,,,,,,,,0,,,53,0
123840,note_on,13,0,1,,,,,,,,,0,,,62,49
123840,note_on,0,0,1,,,,,,,,,0,,,65,49
124067,note_on,0,0,1,,,,,,,,,0,,,65,0
124067,note_on,227,0,1,,,,,,,,,0,,,62,0
124080,note_on,13,0,1,,,,,,,,,0,,,53,49
124259,note_on,0,0,0,,,,,,,,,0,,,84,0
124259,note_on,1139,0,0,,,,,,,,,0,,,72,0
124319,note_on,239,0,1,,,,,,,,,0,,,53,0
124320,note_on,1,0,1,,,,,,,,,0,,,62,49
124320,note_on,0,0,1,,,,,,,,,0,,,65,49
124559,note_on,0,0,1,,,,,,,,,0,,,65,0
124559,note_on,239,0,1,,,,,,,,,0,,,62,0
124560,note_on,0,0,1,,,,,,,,,0,,,64,49
124560,note_on,1,0,1,,,,,,,,,0,,,60,49
124560,note_on,301,0,0,,,,,,,,,0,,,77,49
124560,note_on,0,0,0,,,,,,,,,0,,,89,49
124799,note_on,239,0,1,,,,,,,,,0,,,60,0
124799,note_on,0,0,1,,,,,,,,,0,,,64,0
124800,note_on,1,0,1,,,,,,,,,0,,,58,49
124800,note_on,0,0,1,,,,,,,,,0,,,62,49
125039,note_on,239,0,1,,,,,,,,,0,,,58,0
125040,note_on,1,0,1,,,,,,,,,0,,,53,49
125243,note_on,0,0,0,,,,,,,,,0,,,89,0
125243,note_on,683,0,0,,,,,,,,,0,,,77,0
125267,note_on,227,0,1,,,,,,,,,0,,,53,0
125279,note_on,12,0,1,,,,,,,,,0,,,62,0
125280,note_on,37,0,0,,,,,,,,,0,,,77,49
125280,note_on,1,0,1,,,,,,,,,0,,,57,49
125280,note_on,0,0,1,,,,,,,,,0,,,60,49
125280,note_on,0,0,0,,,,,,,,,0,,,89,49
125281,control_change,1,0,1,,,,,,,64,0,0,,,,
125282,control_change,1,0,1,,,,,,,64,127,0,,,,
125519,note_on,0,0,1,,,,,,,,,0,,,60,0
125519,note_on,237,0,1,,,,,,,,,0,,,57,0
125520,note_on,0,0,1,,,,,,,,,0,,,62,49
125520,note_on,1,0,1,,,,,,,,,0,,,58,49
125759,note_on,239,0,1,,,,,,,,,0,,,58,0
125760,note_on,1,0,1,,,,,,,,,0,,,53,49
125963,note_on,0,0,0,,,,,,,,,0,,,89,0
125963,note_on,683,0,0,,,,,,,,,0,,,77,0
125987,note_on,227,0,1,,,,,,,,,0,,,53,0
125999,note_on,12,0,1,,,,,,,,,0,,,62,0
126000,note_on,1,0,1,,,,,,,,,0,,,55,49
126000,note_on,0,0,0,,,,,,,,,0,,,89,49
126000,note_on,37,0,0,,,,,,,,,0,,,77,49
126000,note_on,0,0,1,,,,,,,,,0,,,58,49
126239,note_on,0,0,1,,,,,,,,,0,,,58,0
126239,note_on,239,0,1,,,,,,,,,0,,,55,0
126240,note_on,1,0,1,,,,,,,,,0,,,57,49
126240,note_on,0,0,1,,,,,,,,,0,,,60,49
126479,note_on,239,0,1,,,,,,,,,0,,,57,0
126480,note_on,1,0,1,,,,,,,,,0,,,53,49
126683,note_on,0,0,0,,,,,,,,,0,,,89,0
126683,note_on,683,0,0,,,,,,,,,0,,,77,0
126719,note_on,239,0,1,,,,,,,,,0,,,60,0
126720,note_on,1,0,1,,,,,,,,,0,,,57,49
126720,note_on,0,0,0,,,,,,,,,0,,,96,49
126720,note_on,0,0,0,,,,,,,,,0,,,84,49
126720,set_tempo,37,1,0,,,,,,857140,,,,,,,
126935,note_on,215,0,1,,,,,,,,,0,,,53,0
126947,note_on,12,0,1,,,,,,,,,0,,,57,0
126960,note_on,13,0,1,,,,,,,,,0,,,41,49
127199,note_on,239,0,1,,,,,,,,,0,,,41,0
127200,note_on,1,0,1,,,,,,,,,0,,,53,49
127200,note_on,0,0,1,,,,,,,,,0,,,57,49
127403,note_on,683,0,0,,,,,,,,,0,,,84,0
127403,note_on,0,0,0,,,,,,,,,0,,,96,0
127439,note_on,0,0,1,,,,,,,,,0,,,57,0
127439,note_on,239,0,1,,,,,,,,,0,,,53,0
127440,note_on,0,0,1,,,,,,,,,0,,,55,49
127440,note_on,1,0,1,,,,,,,,,0,,,52,49
127440,note_on,37,0,0,,,,,,,,,0,,,84,49
127440,note_on,0,0,0,,,,,,,,,0,,,96,49
127679,note_on,239,0,1,,,,,,,,,0,,,52,0
127679,note_on,0,0,1,,,,,,,,,0,,,55,0
127680,note_on,1,0,1,,,,,,,,,0,,,50,49
127680,note_on,0,0,1,,,,,,,,,0,,,53,49
127919,note_on,239,0,1,,,,,,,,,0,,,50,0
127919,note_on,0,0,1,,,,,,,,,0,,,53,0
127920,note_on,1,0,1,,,,,,,,,0,,,41,49
128147,note_on,227,0,1,,,,,,,,,0,,,41,0
128159,note_on,719,0,0,,,,,,,,,0,,,84,0
128159,note_on,0,0,0,,,,,,,,,0,,,96,0
128160,note_on,0,0,0,,,,,,,,,0,,,84,49
128160,note_on,0,0,0,,,,,,,,,0,,,96,49
128160,note_on,0,0,1,,,,,,,,,0,,,52,49
128160,note_on,13,0,1,,,,,,,,,0,,,48,49
128160,set_tempo,1,1,0,,,,,,923077,,,,,,,
128161,control_change,1,0,1,,,,,,,64,0,0,,,,
128162,control_change,1,0,1,,,,,,,64,127,0,,,,
128399,note_on,237,0,1,,,,,,,,,0,,,48,0
128399,note_on,0,0,1,,,,,,,,,0,,,52,0
128400,note_on,1,0,1,,,,,,,,,0,,,50,49
128400,note_on,0,0,1,,,,,,,,,0,,,53,49
128639,note_on,239,0,1,,,,,,,,,0,,,50,0
128640,note_on,1,0,1,,,,,,,,,0,,,41,49
128867,note_on,227,0,1,,,,,,,,,0,,,41,0
128879,note_on,12,0,1,,,,,,,,,0,,,53,0
128879,note_on,0,0,0,,,,,,,,,0,,,96,0
128879,note_on,719,0,0,,,,,,,,,0,,,84,0
128880,note_on,0,0,0,,,,,,,,,0,,,96,49
128880,note_on,0,0,0,,,,,,,,,0,,,84,49
128880,set_tempo,1,1,0,,,,,,1000000,,,,,,,
128880,note_on,0,0,1,,,,,,,,,0,,,50,49
128880,note_on,1,0,1,,,,,,,,,0,,,46,49
129119,note_on,239,0,1,,,,,,,,,0,,,46,0
129119,note_on,0,0,1,,,,,,,,,0,,,50,0
129120,note_on,1,0,1,,,,,,,,,0,,,48,49
129120,note_on,0,0,1,,,,,,,,,0,,,52,49
129359,note_on,239,0,1,,,,,,,,,0,,,48,0
129360,note_on,1,0,1,,,,,,,,,0,,,41,49
129587,note_on,227,0,1,,,,,,,,,0,,,41,0
129599,note_on,719,0,0,,,,,,,,,0,,,84,0
129599,note_on,12,0,1,,,,,,,,,0,,,52,0
129599,note_on,0,0,0,,,,,,,,,0,,,96,0
129600,note_on,0,0,0,,,,,,,,,0,,,89,49
129600,note_on,0,0,0,,,,,,,,,0,,,101,49
129600,set_tempo,1,1,0,,,,,,1200000,,,,,,,
129600,note_on,0,0,1,,,,,,,,,0,,,48,49
129600,note_on,1,0,1,,,,,,,,,0,,,45,49
129601,control_change,1,0,1,,,,,,,64,0,0,,,,
129602,control_change,1,0,1,,,,,,,64,127,0,,,,
129827,note_on,0,0,1,,,,,,,,,0,,,48,0
129827,note_on,225,0,1,,,,,,,,,0,,,45,0
129840,note_on,13,0,1,,,,,,,,,0,,,41,49
130067,note_on,227,0,1,,,,,,,,,0,,,41,0
130080,note_on,13,0,1,,,,,,,,,0,,,40,49
130080,set_tempo,480,1,0,,,,,,857143,,,,,,,
130307,note_on,227,0,1,,,,,,,,,0,,,40,0
130320,note_on,13,0,1,,,,,,,,,0,,,38,49
130320,note_on,0,0,1,,,,,,,,,0,,,45,49
130320,note_on,0,0,1,,,,,,,,,0,,,41,49
130547,note_on,227,0,1,,,,,,,,,0,,,38,0
130560,note_on,13,0,1,,,,,,,,,0,,,40,49
130787,note_on,227,0,1,,,,,,,,,0,,,40,0
130800,note_on,13,0,1,,,,,,,,,0,,,38,49
131027,note_on,227,0,1,,,,,,,,,0,,,38,0
131039,note_on,0,0,1,,,,,,,,,0,,,45,0
131039,note_on,12,0,1,,,,,,,,,0,,,41,0
131040,note_on,0,0,1,,,,,,,,,0,,,41,49
131040,note_on,0,0,1,,,,,,,,,0,,,45,49
131040,note_on,1,0,1,,,,,,,,,0,,,36,49
131040,set_tempo,960,1,0,,,,,,800000,,,,,,,
131267,note_on,227,0,1,,,,,,,,,0,,,36,0
131280,note_on,13,0,1,,,,,,,,,0,,,38,49
131507,note_on,227,0,1,,,,,,,,,0,,,38,0
131520,note_on,13,0,1,,,,,,,,,0,,,36,49
131747,note_on,227,0,1,,,,,,,,,0,,,36,0
131759,note_on,0,0,1,,,,,,,,,0,,,45,0
131759,note_on,12,0,1,,,,,,,,,0,,,41,0
131760,note_on,0,0,1,,,,,,,,,0,,,41,49
131760,note_on,0,0,1,,,,,,,,,0,,,45,49
131760,note_on,1,0,1,,,,,,,,,0,,,34,49
131987,note_on,227,0,1,,,,,,,,,0,,,34,0
132000,note_on,13,0,1,,,,,,,,,0,,,36,49
132227,note_on,227,0,1,,,,,,,,,0,,,36,0
132240,note_on,13,0,1,,,,,,,,,0,,,34,49
132335,note_on,1295,0,0,,,,,,,,,0,,,89,0
132335,note_on,0,0,0,,,,,,,,,0,,,101,0
132467,note_on,227,0,1,,,,,,,,,0,,,34,0
132479,note_on,0,0,1,,,,,,,,,0,,,45,0
132479,note_on,12,0,1,,,,,,,,,0,,,41,0
132480,note_on,0,0,1,,,,,,,,,0,,,41,49
132480,note_on,1,0,1,,,,,,,,,0,,,33,49
132480,note_on,0,0,0,,,,,,,,,0,,,101,49
132480,note_on,145,0,0,,,,,,,,,0,,,89,49
132480,note_on,0,0,1,,,,,,,,,0,,,48,49
132481,control_change,1,0,1,,,,,,,64,0,0,,,,
132482,control_change,1,0,1,,,,,,,64,127,0,,,,
132707,note_on,0,0,1,,,,,,,,,0,,,41,0
132707,note_on,0,0,1,,,,,,,,,0,,,48,0
132707,note_on,225,0,1,,,,,,,,,0,,,33,0
132720,note_on,13,0,1,,,,,,,,,0,,,41,49
132947,note_on,227,0,1,,,,,,,,,0,,,41,0
132960,note_on,13,0,1,,,,,,,,,0,,,40,49
133187,note_on,227,0,1,,,,,,,,,0,,,40,0
133200,note_on,0,0,1,,,,,,,,,0,,,45,49
133200,note_on,0,0,1,,,,,,,,,0,,,41,49
133200,note_on,13,0,1,,,,,,,,,0,,,38,49
133427,note_on,227,0,1,,,,,,,,,0,,,38,0
133440,note_on,13,0,1,,,,,,,,,0,,,40,49
133667,note_on,227,0,1,,,,,,,,,0,,,40,0
133680,note_on,13,0,1,,,,,,,,,0,,,38,49
133847,note_on,0,0,0,,,,,,,,,0,,,101,0
133847,note_on,1367,0,0,,,,,,,,,0,,,89,0
133907,note_on,227,0,1,,,,,,,,,0,,,38,0
133919,note_on,0,0,1,,,,,,,,,0,,,45,0
133919,note_on,12,0,1,,,,,,,,,0,,,41,0
133920,note_on,0,0,0,,,,,,,,,0,,,101,49
133920,note_on,1,0,1,,,,,,,,,0,,,36,49
133920,note_on,0,0,1,,,,,,,,,0,,,41,49
133920,note_on,0,0,1,,,,,,,,,0,,,45,49
133920,note_on,73,0,0,,,,,,,,,0,,,89,49
133921,control_change,1,0,1,,,,,,,64,0,0,,,,
133922,control_change,1,0,1,,,,,,,64,127,0,,,,
134147,note_on,225,0,1,,,,,,,,,0,,,36,0
134160,note_on,13,0,1,,,,,,,,,0,,,38,47
134387,note_on,227,0,1,,,,,,,,,0,,,38,0
134400,note_on,13,0,1,,,,,,,,,0,,,36,45
134627,note_on,227,0,1,,,,,,,,,0,,,36,0
134639,note_on,12,0,1,,,,,,,,,0,,,41,0
134639,note_on,0,0,1,,,,,,,,,0,,,45,0
134640,note_on,0,0,1,,,,,,,,,0,,,45,43
134640,note_on,1,0,1,,,,,,,,,0,,,34,43
134640,note_on,0,0,1,,,,,,,,,0,,,41,43
134867,note_on,227,0,1,,,,,,,,,0,,,34,0
134880,note_on,13,0,1,,,,,,,,,0,,,36,40
135107,note_on,227,0,1,,,,,,,,,0,,,36,0
135120,note_on,13,0,1,,,,,,,,,0,,,34,38
135287,note_on,0,0,0,,,,,,,,,0,,,101,0
135287,note_on,1367,0,0,,,,,,,,,0,,,89,0
135347,note_on,227,0,1,,,,,,,,,0,,,34,0
135359,note_on,0,0,1,,,,,,,,,0,,,45,0
135359,note_on,12,0,1,,,,,,,,,0,,,41,0
135360,note_on,0,0,1,,,,,,,,,0,,,48,36
135360,note_on,0,0,1,,,,,,,,,0,,,41,36
135360,note_on,73,0,0,,,,,,,,,0,,,89,36
135360,note_on,0,0,0,,,,,,,,,0,,,101,36
135360,note_on,1,0,1,,,,,,,,,0,,,33,36
135361,control_change,1,0,1,,,,,,,64,0,0,,,,
135362,control_change,1,0,1,,,,,,,64,127,0,,,,
135587,note_on,0,0,1,,,,,,,,,0,,,48,0
135587,note_on,0,0,1,,,,,,,,,0,,,41,0
135587,note_on,225,0,1,,,,,,,,,0,,,33,0
135600,set_tempo,240,1,0,,,,,,1000000,,,,,,,
135600,note_on,13,0,1,,,,,,,,,0,,,41,33
135815,note_on,215,0,0,,,,,,,,,0,,,89,0
135815,note_on,0,0,0,,,,,,,,,0,,,101,0
135827,note_on,227,0,1,,,,,,,,,0,,,41,0
135840,note_on,13,0,1,,,,,,,,,0,,,40,33
136067,note_on,227,0,1,,,,,,,,,0,,,40,0
136080,note_on,0,0,1,,,,,,,,,0,,,45,33
136080,note_on,0,0,1,,,,,,,,,0,,,41,33
136080,note_on,13,0,1,,,,,,,,,0,,,38,39
136991,note_on,0,0,1,,,,,,,,,0,,,45,0
136991,note_on,911,0,1,,,,,,,,,0,,,41,0
137027,note_on,36,0,1,,,,,,,,,0,,,38,0
137040,set_tempo,1225,1,0,,,,,,1200000,,,,,,,
137040,note_on,13,0,1,,,,,,,,,0,,,38,33
137041,control_change,1,0,1,,,,,,,64,0,0,,,,
137042,control_change,1,0,1,,,,,,,64,127,0,,,,
137267,note_on,225,0,1,,,,,,,,,0,,,38,0
137280,note_on,13,0,1,,,,,,,,,0,,,36,36
137507,note_on,227,0,1,,,,,,,,,0,,,36,0
137520,note_on,0,0,1,,,,,,,,,0,,,45,39
137520,note_on,0,0,1,,,,,,,,,0,,,41,39
137520,note_on,13,0,1,,,,,,,,,0,,,34,39
137520,set_tempo,480,1,0,,,,,,2000000,,,,,,,
137975,note_on,455,0,1,,,,,,,,,0,,,34,0
138000,note_on,25,0,1,,,,,,,,,0,,,35,45
138203,note_on,203,0,1,,,,,,,,,0,,,41,0
138203,note_on,0,0,1,,,,,,,,,0,,,45,0
138227,note_on,24,0,1,,,,,,,,,0,,,35,0
138240,note_on,13,0,1,,,,,,,,,0,,,35,49
138240,time_signature,720,1,0,7,8,24,8,,,,,,,,,
138240,set_tempo,0,1,0,,,,,,1200000,,,,,,,
138241,control_change,1,0,1,,,,,,,64,0,0,,,,
138242,control_change,1,0,1,,,,,,,64,127,0,,,,
138315,note_on,73,0,1,,,,,,,,,0,,,35,0
138320,note_on,5,0,1,,,,,,,,,0,,,36,49
138395,note_on,75,0,1,,,,,,,,,0,,,36,0
138400,note_on,5,0,1,,,,,,,,,0,,,38,49
138475,note_on,75,0,1,,,,,,,,,0,,,38,0
138480,set_tempo,240,1,0,,,,,,3000003,,,,,,,
138480,note_on,5,0,1,,,,,,,,,0,,,36,49
138480,note_on,0,0,1,,,,,,,,,0,,,41,49
138480,note_on,0,0,1,,,,,,,,,0,,,45,49
138935,note_on,455,0,1,,,,,,,,,0,,,36,0
138960,note_on,25,0,1,,,,,,,,,0,,,33,49
138961,control_change,1,0,1,,,,,,,64,0,0,,,,
138962,control_change,1,0,1,,,,,,,64,127,0,,,,
139163,note_on,201,0,1,,,,,,,,,0,,,41,0
139163,note_on,0,0,1,,,,,,,,,0,,,45,0
139187,note_on,24,0,1,,,,,,,,,0,,,33,0
139200,note_on,13,0,1,,,,,,,,,0,,,29,49
139236,note_on,36,0,1,,,,,,,,,0,,,41,49
139272,note_on,36,0,1,,,,,,,,,0,,,45,49
139920,time_signature,1440,1,0,6,8,24,8,,,,,,,,,
139921,end_of_track,1,1,0,,,,,,,,,,,,,
141251,note_on,1979,0,1,,,,,,,,,0,,,41,0
141251,note_on,0,0,1,,,,,,,,,0,,,45,0
141287,note_on,36,0,1,,,,,,,,,0,,,29,0
141360,control_change,73,0,1,,,,,,,64,0,0,,,,
141361,end_of_track,1,1,1,,,,,,,,,,,,,
