tick,type,time,meta,track,numerator,denominator,clocks_per_click,notated_32nd_notes_per_beat,key,tempo,control,value,channel,program,port,note,velocity
0,control_change,0,0,0,,,,,,,7,100,0,,,,
0,time_signature,0,1,0,6,8,24,8,,,,,,,,,
0,set_tempo,0,1,0,,,,,,428572,,,,,,,
0,program_change,0,0,0,,,,,,,,,0,0,,,
0,track_name,0,1,0,,,,,,,,,,,,,
0,note_on,0,0,1,,,,,,,,,0,,,36,126
0,note_on,0,0,1,,,,,,,,,0,,,24,126
0,midi_port,0,1,1,,,,,,,,,,,0,,
0,midi_port,0,1,0,,,,,,,,,,,0,,
0,key_signature,0,1,1,,,,,Eb,,,,,,,,
0,key_signature,0,1,0,,,,,Eb,,,,,,,,
0,track_name,0,1,1,,,,,,,,,,,,,
0,control_change,0,0,0,,,,,,,91,0,0,,,,
0,control_change,0,0,0,,,,,,,10,64,0,,,,
0,control_change,0,0,0,,,,,,,93,0,0,,,,
0,control_change,0,0,0,,,,,,,121,0,0,,,,
120,note_on,120,0,0,,,,,,,,,0,,,48,126
122,control_change,2,0,0,,,,,,,64,127,0,,,,
227,note_on,0,0,1,,,,,,,,,0,,,36,0
227,note_on,227,0,1,,,,,,,,,0,,,24,0
233,note_on,111,0,0,,,,,,,,,0,,,48,0
240,note_on,13,0,1,,,,,,,,,0,,,31,126
240,note_on,0,0,1,,,,,,,,,0,,,43,126
360,note_on,127,0,0,,,,,,,,,0,,,55,126
467,note_on,0,0,1,,,,,,,,,0,,,43,0
467,note_on,227,0,1,,,,,,,,,0,,,31,0
473,note_on,113,0,0,,,,,,,,,0,,,55,0
480,note_on,13,0,1,,,,,,,,,0,,,29,126
480,note_on,0,0,1,,,,,,,,,0,,,41,126
600,note_on,127,0,0,,,,,,,,,0,,,53,126
707,note_on,227,0,1,,,,,,,,,0,,,29,0
707,note_on,0,0,1,,,,,,,,,0,,,41,0
713,note_on,113,0,0,,,,,,,,,0,,,53,0
720,note_on,0,0,1,,,,,,,,,0,,,39,126
720,note_on,13,0,1,,,,,,,,,0,,,27,126
840,note_on,127,0,0,,,,,,,,,0,,,51,126
947,note_on,227,0,1,,,,,,,,,0,,,27,0
947,note_on,0,0,1,,,,,,,,,0,,,39,0
953,note_on,113,0,0,,,,,,,,,0,,,51,0
960,note_on,0,0,1,,,,,,,,,0,,,38,126
960,note_on,13,0,1,,,,,,,,,0,,,26,126
1080,note_on,127,0,0,,,,,,,,,0,,,50,126
1187,note_on,0,0,1,,,,,,,,,0,,,38,0
1187,note_on,227,0,1,,,,,,,,,0,,,26,0
1193,note_on,113,0,0,,,,,,,,,0,,,50,0
1200,note_on,13,0,1,,,,,,,,,0,,,24,126
1200,note_on,0,0,1,,,,,,,,,0,,,36,126
1320,note_on,127,0,0,,,,,,,,,0,,,48,126
1427,note_on,227,0,1,,,,,,,,,0,,,24,0
1427,note_on,0,0,1,,,,,,,,,0,,,36,0
1433,note_on,113,0,0,,,,,,,,,0,,,48,0
1440,note_on,7,0,0,,,,,,,,,0,,,72,126
1440,note_on,0,0,0,,,,,,,,,0,,,75,126
1440,note_on,0,0,1,,,,,,,,,0,,,51,126
1440,note_on,0,0,1,,,,,,,,,0,,,55,126
1440,note_on,0,0,1,,,,,,,,,0,,,60,126
1440,note_on,0,0,0,,,,,,,,,0,,,84,126
1440,note_on,13,0,1,,,,,,,,,0,,,48,126
1518,note_on,0,0,0,,,,,,,,,0,,,75,0
1518,note_on,0,0,0,,,,,,,,,0,,,84,0
1518,note_on,0,0,1,,,,,,,,,0,,,55,0
1518,note_on,0,0,1,,,,,,,,,0,,,60,0
1518,note_on,78,0,0,,,,,,,,,0,,,72,0
1518,note_on,0,0,1,,,,,,,,,0,,,51,0
1518,note_on,78,0,1,,,,,,,,,0,,,48,0
1800,note_on,0,0,1,,,,,,,,,0,,,55,126
1800,note_on,0,0,1,,,,,,,,,0,,,60,126
1800,note_on,0,0,1,,,,,,,,,0,,,51,126
1800,note_on,282,0,1,,,,,,,,,0,,,48,126
1800,note_on,282,0,0,,,,,,,,,0,,,67,126
1800,note_on,0,0,0,,,,,,,,,0,,,75,126
1800,note_on,0,0,0,,,,,,,,,0,,,79,126
1800,note_on,0,0,0,,,,,,,,,0,,,72,126
1838,note_on,0,0,0,,,,,,,,,0,,,72,0
1838,note_on,38,0,0,,,,,,,,,0,,,67,0
1838,note_on,38,0,1,,,,,,,,,0,,,48,0
1838,note_on,0,0,1,,,,,,,,,0,,,51,0
1838,note_on,0,0,1,,,,,,,,,0,,,55,0
1838,note_on,0,0,1,,,,,,,,,0,,,60,0
1838,note_on,0,0,0,,,,,,,,,0,,,79,0
1838,note_on,0,0,0,,,,,,,,,0,,,75,0
1920,note_on,0,0,0,,,,,,,,,0,,,79,126
1920,note_on,0,0,0,,,,,,,,,0,,,75,126
1920,note_on,0,0,0,,,,,,,,,0,,,72,126
1920,note_on,82,0,1,,,,,,,,,0,,,48,126
1920,note_on,0,0,1,,,,,,,,,0,,,55,126
1920,note_on,0,0,1,,,,,,,,,0,,,51,126
1920,note_on,82,0,0,,,,,,,,,0,,,67,126
1920,note_on,0,0,1,,,,,,,,,0,,,60,126
1998,note_on,0,0,1,,,,,,,,,0,,,60,0
1998,note_on,0,0,0,,,,,,,,,0,,,79,0
1998,note_on,0,0,0,,,,,,,,,0,,,75,0
1998,note_on,0,0,1,,,,,,,,,0,,,55,0
1998,note_on,78,0,0,,,,,,,,,0,,,67,0
1998,note_on,0,0,0,,,,,,,,,0,,,72,0
1998,note_on,0,0,1,,,,,,,,,0,,,51,0
1998,note_on,78,0,1,,,,,,,,,0,,,48,0
2520,note_on,0,0,1,,,,,,,,,0,,,51,126
2520,note_on,0,0,1,,,,,,,,,0,,,55,126
2520,note_on,0,0,1,,,,,,,,,0,,,60,126
2520,note_on,522,0,0,,,,,,,,,0,,,63,126
2520,note_on,0,0,0,,,,,,,,,0,,,67,126
2520,note_on,0,0,0,,,,,,,,,0,,,75,126
2520,note_on,522,0,1,,,,,,,,,0,,,48,126
2558,note_on,0,0,0,,,,,,,,,0,,,67,0
2558,note_on,38,0,0,,,,,,,,,0,,,63,0
2558,note_on,0,0,1,,,,,,,,,0,,,60,0
2558,note_on,38,0,1,,,,,,,,,0,,,48,0
2558,note_on,0,0,0,,,,,,,,,0,,,75,0
2558,note_on,0,0,1,,,,,,,,,0,,,51,0
2558,note_on,0,0,1,,,,,,,,,0,,,55,0
2640,note_on,82,0,1,,,,,,,,,0,,,48,126
2640,note_on,82,0,0,,,,,,,,,0,,,63,126
2640,note_on,0,0,1,,,,,,,,,0,,,60,126
2640,note_on,0,0,0,,,,,,,,,0,,,67,126
2640,note_on,0,0,0,,,,,,,,,0,,,75,126
2640,note_on,0,0,1,,,,,,,,,0,,,55,126
2640,note_on,0,0,1,,,,,,,,,0,,,51,126
2718,note_on,78,0,0,,,,,,,,,0,,,63,0
2718,note_on,0,0,1,,,,,,,,,0,,,60,0
2718,note_on,0,0,1,,,,,,,,,0,,,55,0
2718,note_on,78,0,1,,,,,,,,,0,,,48,0
2718,note_on,0,0,1,,,,,,,,,0,,,51,0
2718,note_on,0,0,0,,,,,,,,,0,,,75,0
2718,note_on,0,0,0,,,,,,,,,0,,,67,0
3240,note_on,0,0,0,,,,,,,,,0,,,72,126
3240,note_on,522,0,1,,,,,,,,,0,,,48,126
3240,note_on,522,0,0,,,,,,,,,0,,,63,126
3240,note_on,0,0,1,,,,,,,,,0,,,51,126
3240,note_on,0,0,1,,,,,,,,,0,,,55,126
3240,note_on,0,0,1,,,,,,,,,0,,,60,126
3240,note_on,0,0,0,,,,,,,,,0,,,67,126
3278,note_on,0,0,1,,,,,,,,,0,,,60,0
3278,note_on,38,0,0,,,,,,,,,0,,,63,0
3278,note_on,0,0,1,,,,,,,,,0,,,55,0
3278,note_on,38,0,1,,,,,,,,,0,,,48,0
3278,note_on,0,0,0,,,,,,,,,0,,,67,0
3278,note_on,0,0,0,,,,,,,,,0,,,72,0
3278,note_on,0,0,1,,,,,,,,,0,,,51,0
3360,note_on,0,0,1,,,,,,,,,0,,,51,126
3360,note_on,82,0,1,,,,,,,,,0,,,48,126
3360,note_on,0,0,1,,,,,,,,,0,,,55,126
3360,note_on,0,0,1,,,,,,,,,0,,,60,126
3360,note_on,82,0,0,,,,,,,,,0,,,63,126
3360,note_on,0,0,0,,,,,,,,,0,,,67,126
3360,note_on,0,0,0,,,,,,,,,0,,,72,126
3438,note_on,0,0,0,,,,,,,,,0,,,72,0
3438,note_on,0,0,1,,,,,,,,,0,,,51,0
3438,note_on,0,0,1,,,,,,,,,0,,,55,0
3438,note_on,0,0,0,,,,,,,,,0,,,67,0
3438,note_on,0,0,1,,,,,,,,,0,,,60,0
3438,note_on,78,0,1,,,,,,,,,0,,,48,0
3438,note_on,78,0,0,,,,,,,,,0,,,63,0
3600,note_on,0,0,0,,,,,,,,,0,,,67,126
3600,note_on,0,0,0,,,,,,,,,0,,,71,126
3600,note_on,0,0,1,,,,,,,,,0,,,51,126
3600,note_on,0,0,1,,,,,,,,,0,,,55,126
3600,note_on,162,0,0,,,,,,,,,0,,,63,126
3600,note_on,162,0,1,,,,,,,,,0,,,48,126
3600,note_on,0,0,1,,,,,,,,,0,,,59,126
3601,control_change,1,0,0,,,,,,,64,0,0,,,,
3678,note_on,0,0,0,,,,,,,,,0,,,67,0
3678,note_on,77,0,0,,,,,,,,,0,,,63,0
3678,note_on,0,0,0,,,,,,,,,0,,,71,0
3678,note_on,78,0,1,,,,,,,,,0,,,48,0
3678,note_on,0,0,1,,,,,,,,,0,,,59,0
3678,note_on,0,0,1,,,,,,,,,0,,,51,0
3678,note_on,0,0,1,,,,,,,,,0,,,55,0
3840,note_on,162,0,0,,,,,,,,,0,,,63,126
3840,note_on,0,0,1,,,,,,,,,0,,,51,126
3840,note_on,0,0,1,,,,,,,,,0,,,55,126
3840,note_on,0,0,1,,,,,,,,,0,,,60,126
3840,note_on,0,0,0,,,,,,,,,0,,,67,126
3840,note_on,0,0,0,,,,,,,,,0,,,72,126
3840,note_on,162,0,1,,,,,,,,,0,,,48,126
3918,note_on,0,0,0,,,,,,,,,0,,,67,0
3918,note_on,78,0,1,,,,,,,,,0,,,48,0
3918,note_on,78,0,0,,,,,,,,,0,,,63,0
3918,note_on,0,0,1,,,,,,,,,0,,,55,0
3918,note_on,0,0,1,,,,,,,,,0,,,60,0
3918,note_on,0,0,1,,,,,,,,,0,,,51,0
3918,note_on,0,0,0,,,,,,,,,0,,,72,0
4320,note_on,0,0,1,,,,,,,,,0,,,38,126
4320,note_on,402,0,1,,,,,,,,,0,,,35,126
4440,note_on,522,0,0,,,,,,,,,0,,,47,126
4440,note_on,0,0,0,,,,,,,,,0,,,50,126
4442,control_change,2,0,0,,,,,,,64,127,0,,,,
4547,note_on,0,0,1,,,,,,,,,0,,,38,0
4547,note_on,227,0,1,,,,,,,,,0,,,35,0
4553,note_on,0,0,0,,,,,,,,,0,,,50,0
4553,note_on,111,0,0,,,,,,,,,0,,,47,0
4560,note_on,13,0,1,,,,,,,,,0,,,44,126
4680,note_on,127,0,0,,,,,,,,,0,,,56,126
4787,note_on,227,0,1,,,,,,,,,0,,,44,0
4793,note_on,113,0,0,,,,,,,,,0,,,56,0
4800,note_on,13,0,1,,,,,,,,,0,,,43,126
4920,note_on,127,0,0,,,,,,,,,0,,,55,126
5027,note_on,227,0,1,,,,,,,,,0,,,43,0
5033,note_on,113,0,0,,,,,,,,,0,,,55,0
5040,note_on,13,0,1,,,,,,,,,0,,,41,126
5160,note_on,127,0,0,,,,,,,,,0,,,53,126
5267,note_on,227,0,1,,,,,,,,,0,,,41,0
5273,note_on,113,0,0,,,,,,,,,0,,,53,0
5280,note_on,13,0,1,,,,,,,,,0,,,39,126
5400,note_on,127,0,0,,,,,,,,,0,,,51,126
5507,note_on,227,0,1,,,,,,,,,0,,,39,0
5513,note_on,113,0,0,,,,,,,,,0,,,51,0
5520,note_on,13,0,1,,,,,,,,,0,,,38,126
5640,note_on,127,0,0,,,,,,,,,0,,,50,126
5747,note_on,227,0,1,,,,,,,,,0,,,38,0
5753,note_on,113,0,0,,,,,,,,,0,,,50,0
5760,note_on,13,0,1,,,,,,,,,0,,,47,126
5784,note_on,24,0,1,,,,,,,,,0,,,53,126
5808,note_on,24,0,1,,,,,,,,,0,,,56,126
5832,note_on,24,0,1,,,,,,,,,0,,,62,126
5832,note_on,79,0,0,,,,,,,,,0,,,74,126
5832,note_on,0,0,0,,,,,,,,,0,,,77,126
5832,note_on,0,0,0,,,,,,,,,0,,,86,126
5999,note_on,167,0,1,,,,,,,,,0,,,47,0
5999,note_on,0,0,1,,,,,,,,,0,,,53,0
5999,note_on,0,0,1,,,,,,,,,0,,,56,0
5999,note_on,167,0,0,,,,,,,,,0,,,74,0
5999,note_on,0,0,1,,,,,,,,,0,,,62,0
5999,note_on,0,0,0,,,,,,,,,0,,,77,0
5999,note_on,0,0,0,,,,,,,,,0,,,86,0
6120,note_on,0,0,1,,,,,,,,,0,,,53,126
6120,note_on,0,0,0,,,,,,,,,0,,,74,126
6120,note_on,0,0,0,,,,,,,,,0,,,80,126
6120,note_on,121,0,1,,,,,,,,,0,,,47,126
6120,note_on,121,0,0,,,,,,,,,0,,,68,126
6120,note_on,0,0,1,,,,,,,,,0,,,56,126
6158,note_on,38,0,0,,,,,,,,,0,,,68,0
6158,note_on,0,0,0,,,,,,,,,0,,,74,0
6158,note_on,0,0,0,,,,,,,,,0,,,80,0
6158,note_on,0,0,1,,,,,,,,,0,,,56,0
6158,note_on,0,0,1,,,,,,,,,0,,,53,0
6158,note_on,38,0,1,,,,,,,,,0,,,47,0
6240,note_on,0,0,0,,,,,,,,,0,,,80,126
6240,note_on,82,0,1,,,,,,,,,0,,,47,126
6240,note_on,82,0,0,,,,,,,,,0,,,68,126
6240,note_on,0,0,1,,,,,,,,,0,,,56,126
6240,note_on,0,0,0,,,,,,,,,0,,,74,126
6240,note_on,0,0,1,,,,,,,,,0,,,53,126
6318,note_on,0,0,1,,,,,,,,,0,,,53,0
6318,note_on,0,0,1,,,,,,,,,0,,,56,0
6318,note_on,78,0,0,,,,,,,,,0,,,68,0
6318,note_on,0,0,0,,,,,,,,,0,,,74,0
6318,note_on,78,0,1,,,,,,,,,0,,,47,0
6318,note_on,0,0,0,,,,,,,,,0,,,80,0
6840,note_on,0,0,1,,,,,,,,,0,,,56,126
6840,note_on,0,0,1,,,,,,,,,0,,,62,126
6840,note_on,0,0,0,,,,,,,,,0,,,77,126
6840,note_on,522,0,0,,,,,,,,,0,,,65,126
6840,note_on,0,0,0,,,,,,,,,0,,,68,126
6840,note_on,522,0,1,,,,,,,,,0,,,53,126
6878,note_on,0,0,1,,,,,,,,,0,,,62,0
6878,note_on,0,0,0,,,,,,,,,0,,,77,0
6878,note_on,0,0,0,,,,,,,,,0,,,68,0
6878,note_on,38,0,0,,,,,,,,,0,,,65,0
6878,note_on,0,0,1,,,,,,,,,0,,,56,0
6878,note_on,38,0,1,,,,,,,,,0,,,53,0
6960,note_on,82,0,1,,,,,,,,,0,,,53,126
6960,note_on,0,0,1,,,,,,,,,0,,,56,126
6960,note_on,82,0,0,,,,,,,,,0,,,65,126
6960,note_on,0,0,0,,,,,,,,,0,,,68,126
6960,note_on,0,0,0,,,,,,,,,0,,,77,126
6960,note_on,0,0,1,,,,,,,,,0,,,62,126
7038,note_on,78,0,0,,,,,,,,,0,,,65,0
7038,note_on,78,0,1,,,,,,,,,0,,,53,0
7038,note_on,0,0,1,,,,,,,,,0,,,56,0
7038,note_on,0,0,1,,,,,,,,,0,,,62,0
7038,note_on,0,0,0,,,,,,,,,0,,,68,0
7038,note_on,0,0,0,,,,,,,,,0,,,77,0
7560,note_on,0,0,1,,,,,,,,,0,,,53,126
7560,note_on,0,0,0,,,,,,,,,0,,,74,126
7560,note_on,0,0,0,,,,,,,,,0,,,68,126
7560,note_on,522,0,1,,,,,,,,,0,,,47,126
7560,note_on,522,0,0,,,,,,,,,0,,,62,126
7560,note_on,0,0,1,,,,,,,,,0,,,56,126
7598,note_on,0,0,1,,,,,,,,,0,,,53,0
7598,note_on,0,0,1,,,,,,,,,0,,,56,0
7598,note_on,38,0,1,,,,,,,,,0,,,47,0
7598,note_on,0,0,0,,,,,,,,,0,,,74,0
7598,note_on,0,0,0,,,,,,,,,0,,,68,0
7598,note_on,38,0,0,,,,,,,,,0,,,62,0
7680,note_on,82,0,1,,,,,,,,,0,,,47,126
7680,note_on,0,0,1,,,,,,,,,0,,,53,126
7680,note_on,0,0,0,,,,,,,,,0,,,74,126
7680,note_on,0,0,0,,,,,,,,,0,,,68,126
7680,note_on,0,0,1,,,,,,,,,0,,,56,126
7680,note_on,82,0,0,,,,,,,,,0,,,62,126
7758,note_on,78,0,1,,,,,,,,,0,,,47,0
7758,note_on,0,0,0,,,,,,,,,0,,,74,0
7758,note_on,0,0,0,,,,,,,,,0,,,68,0
7758,note_on,0,0,1,,,,,,,,,0,,,56,0
7758,note_on,78,0,0,,,,,,,,,0,,,62,0
7758,note_on,0,0,1,,,,,,,,,0,,,53,0
7920,note_on,0,0,1,,,,,,,,,0,,,52,126
7920,note_on,0,0,0,,,,,,,,,0,,,68,126
7920,note_on,0,0,1,,,,,,,,,0,,,56,126
7920,note_on,162,0,0,,,,,,,,,0,,,61,126
7920,note_on,0,0,0,,,,,,,,,0,,,73,126
7920,note_on,162,0,1,,,,,,,,,0,,,47,126
7921,control_change,1,0,0,,,,,,,64,0,0,,,,
7998,note_on,0,0,0,,,,,,,,,0,,,73,0
7998,note_on,77,0,0,,,,,,,,,0,,,61,0
7998,note_on,0,0,1,,,,,,,,,0,,,52,0
7998,note_on,0,0,1,,,,,,,,,0,,,56,0
7998,note_on,78,0,1,,,,,,,,,0,,,47,0
7998,note_on,0,0,0,,,,,,,,,0,,,68,0
8160,note_on,0,0,1,,,,,,,,,0,,,53,126
8160,note_on,0,0,1,,,,,,,,,0,,,56,126
8160,note_on,0,0,0,,,,,,,,,0,,,74,126
8160,note_on,0,0,0,,,,,,,,,0,,,68,126
8160,note_on,162,0,0,,,,,,,,,0,,,62,126
8160,note_on,162,0,1,,,,,,,,,0,,,47,126
8238,note_on,0,0,1,,,,,,,,,0,,,53,0
8238,note_on,78,0,0,,,,,,,,,0,,,62,0
8238,note_on,0,0,0,,,,,,,,,0,,,74,0
8238,note_on,0,0,0,,,,,,,,,0,,,68,0
8238,note_on,0,0,1,,,,,,,,,0,,,56,0
8238,note_on,78,0,1,,,,,,,,,0,,,47,0
8880,note_on,642,0,1,,,,,,,,,0,,,36,126
8880,note_on,0,0,1,,,,,,,,,0,,,48,126
8880,note_on,0,0,1,,,,,,,,,0,,,43,126
8880,note_on,642,0,0,,,,,,,,,0,,,63,126
8880,note_on,0,0,0,,,,,,,,,0,,,75,126
8880,note_on,0,0,0,,,,,,,,,0,,,67,126
8882,control_change,2,0,0,,,,,,,64,127,0,,,,
8958,note_on,0,0,1,,,,,,,,,0,,,43,0
8958,note_on,0,0,0,,,,,,,,,0,,,75,0
8958,note_on,0,0,1,,,,,,,,,0,,,48,0
8958,note_on,78,0,1,,,,,,,,,0,,,36,0
8958,note_on,0,0,0,,,,,,,,,0,,,67,0
8958,note_on,76,0,0,,,,,,,,,0,,,63,0
9120,note_on,162,0,0,,,,,,,,,0,,,60,126
9120,note_on,162,0,1,,,,,,,,,0,,,48,126
9179,note_on,59,0,0,,,,,,,,,0,,,60,0
9179,note_on,59,0,1,,,,,,,,,0,,,48,0
9180,note_on,1,0,1,,,,,,,,,0,,,50,126
9180,note_on,1,0,0,,,,,,,,,0,,,62,126
9239,note_on,59,0,1,,,,,,,,,0,,,50,0
9239,note_on,59,0,0,,,,,,,,,0,,,62,0
9240,note_on,1,0,1,,,,,,,,,0,,,51,126
9240,note_on,1,0,0,,,,,,,,,0,,,63,126
9299,note_on,59,0,0,,,,,,,,,0,,,63,0
9299,note_on,59,0,1,,,,,,,,,0,,,51,0
9300,note_on,1,0,0,,,,,,,,,0,,,65,126
9300,note_on,1,0,1,,,,,,,,,0,,,53,126
9356,note_on,56,0,0,,,,,,,,,0,,,65,0
9356,note_on,56,0,1,,,,,,,,,0,,,53,0
9360,note_on,4,0,0,,,,,,,,,0,,,67,126
9360,note_on,4,0,1,,,,,,,,,0,,,55,126
9438,note_on,78,0,1,,,,,,,,,0,,,55,0
9438,note_on,78,0,0,,,,,,,,,0,,,67,0
9600,note_on,162,0,1,,,,,,,,,0,,,32,126
9600,note_on,0,0,1,,,,,,,,,0,,,41,126
9600,note_on,0,0,0,,,,,,,,,0,,,72,126
9600,note_on,0,0,1,,,,,,,,,0,,,44,126
9600,note_on,0,0,0,,,,,,,,,0,,,77,126
9600,note_on,162,0,0,,,,,,,,,0,,,65,126
9601,control_change,1,0,0,,,,,,,64,0,0,,,,
9678,note_on,0,0,1,,,,,,,,,0,,,41,0
9678,note_on,77,0,0,,,,,,,,,0,,,65,0
9678,note_on,0,0,0,,,,,,,,,0,,,77,0
9678,note_on,0,0,0,,,,,,,,,0,,,72,0
9678,note_on,78,0,1,,,,,,,,,0,,,32,0
9678,note_on,0,0,1,,,,,,,,,0,,,44,0
9840,note_on,0,0,0,,,,,,,,,0,,,75,126
9840,note_on,162,0,0,,,,,,,,,0,,,72,126
9840,note_on,0,0,0,,,,,,,,,0,,,84,126
9840,note_on,0,0,1,,,,,,,,,0,,,41,126
9840,note_on,162,0,1,,,,,,,,,0,,,32,126
9840,note_on,0,0,1,,,,,,,,,0,,,44,126
9918,note_on,78,0,1,,,,,,,,,0,,,32,0
9918,note_on,0,0,0,,,,,,,,,0,,,75,0
9918,note_on,0,0,1,,,,,,,,,0,,,44,0
9918,note_on,0,0,1,,,,,,,,,0,,,41,0
9918,note_on,78,0,0,,,,,,,,,0,,,72,0
9918,note_on,0,0,0,,,,,,,,,0,,,84,0
10080,note_on,0,0,0,,,,,,,,,0,,,74,126
10080,note_on,162,0,1,,,,,,,,,0,,,34,126
10080,note_on,0,0,0,,,,,,,,,0,,,84,126
10080,note_on,0,0,1,,,,,,,,,0,,,41,126
10080,note_on,162,0,0,,,,,,,,,0,,,72,126
10080,note_on,0,0,1,,,,,,,,,0,,,46,126
10082,control_change,2,0,0,,,,,,,64,127,0,,,,
10158,note_on,78,0,1,,,,,,,,,0,,,34,0
10158,note_on,0,0,1,,,,,,,,,0,,,46,0
10158,note_on,0,0,0,,,,,,,,,0,,,84,0
10158,note_on,0,0,0,,,,,,,,,0,,,74,0
10158,note_on,0,0,1,,,,,,,,,0,,,41,0
10158,note_on,76,0,0,,,,,,,,,0,,,72,0
10320,note_on,162,0,1,,,,,,,,,0,,,53,126
10320,note_on,162,0,0,,,,,,,,,0,,,65,126
10379,note_on,59,0,1,,,,,,,,,0,,,53,0
10379,note_on,59,0,0,,,,,,,,,0,,,65,0
10380,note_on,1,0,0,,,,,,,,,0,,,63,126
10380,note_on,1,0,1,,,,,,,,,0,,,51,126
10439,note_on,59,0,1,,,,,,,,,0,,,51,0
10439,note_on,59,0,0,,,,,,,,,0,,,63,0
10440,note_on,1,0,0,,,,,,,,,0,,,62,126
10440,note_on,1,0,1,,,,,,,,,0,,,50,126
10499,note_on,59,0,1,,,,,,,,,0,,,50,0
10499,note_on,59,0,0,,,,,,,,,0,,,62,0
10500,note_on,1,0,0,,,,,,,,,0,,,60,126
10500,note_on,1,0,1,,,,,,,,,0,,,48,126
10556,note_on,56,0,1,,,,,,,,,0,,,48,0
10556,note_on,56,0,0,,,,,,,,,0,,,60,0
10560,note_on,4,0,0,,,,,,,,,0,,,58,126
10560,note_on,4,0,1,,,,,,,,,0,,,46,126
10638,note_on,78,0,1,,,,,,,,,0,,,46,0
10638,note_on,78,0,0,,,,,,,,,0,,,58,0
10800,note_on,0,0,1,,,,,,,,,0,,,43,126
10800,note_on,0,0,1,,,,,,,,,0,,,39,126
10800,note_on,162,0,0,,,,,,,,,0,,,70,126
10800,note_on,0,0,0,,,,,,,,,0,,,82,126
10800,note_on,0,0,0,,,,,,,,,0,,,74,126
10800,note_on,162,0,1,,,,,,,,,0,,,31,126
10801,control_change,1,0,0,,,,,,,64,0,0,,,,
10878,note_on,0,0,0,,,,,,,,,0,,,82,0
10878,note_on,77,0,0,,,,,,,,,0,,,70,0
10878,note_on,78,0,1,,,,,,,,,0,,,31,0
10878,note_on,0,0,1,,,,,,,,,0,,,43,0
10878,note_on,0,0,1,,,,,,,,,0,,,39,0
10878,note_on,0,0,0,,,,,,,,,0,,,74,0
11040,note_on,0,0,1,,,,,,,,,0,,,43,126
11040,note_on,162,0,1,,,,,,,,,0,,,31,126
11040,note_on,0,0,0,,,,,,,,,0,,,87,126
11040,note_on,0,0,0,,,,,,,,,0,,,82,126
11040,note_on,0,0,1,,,,,,,,,0,,,39,126
11040,note_on,162,0,0,,,,,,,,,0,,,74,126
11118,note_on,0,0,1,,,,,,,,,0,,,43,0
11118,note_on,78,0,0,,,,,,,,,0,,,74,0
11118,note_on,0,0,0,,,,,,,,,0,,,87,0
11118,note_on,0,0,1,,,,,,,,,0,,,39,0
11118,note_on,78,0,1,,,,,,,,,0,,,31,0
11118,note_on,0,0,0,,,,,,,,,0,,,82,0
11280,note_on,162,0,1,,,,,,,,,0,,,32,126
11280,note_on,0,0,0,,,,,,,,,0,,,87,126
11280,note_on,0,0,0,,,,,,,,,0,,,80,126
11280,note_on,0,0,1,,,,,,,,,0,,,44,126
11280,note_on,162,0,0,,,,,,,,,0,,,72,126
11280,note_on,0,0,1,,,,,,,,,0,,,39,126
11282,control_change,2,0,0,,,,,,,64,127,0,,,,
11358,note_on,78,0,1,,,,,,,,,0,,,32,0
11358,note_on,0,0,1,,,,,,,,,0,,,44,0
11358,note_on,76,0,0,,,,,,,,,0,,,72,0
11358,note_on,0,0,0,,,,,,,,,0,,,87,0
11358,note_on,0,0,1,,,,,,,,,0,,,39,0
11358,note_on,0,0,0,,,,,,,,,0,,,80,0
11520,note_on,162,0,1,,,,,,,,,0,,,44,126
11520,note_on,162,0,0,,,,,,,,,0,,,56,126
11579,note_on,59,0,0,,,,,,,,,0,,,56,0
11579,note_on,59,0,1,,,,,,,,,0,,,44,0
11580,note_on,1,0,0,,,,,,,,,0,,,58,126
11580,note_on,1,0,1,,,,,,,,,0,,,46,126
11639,note_on,59,0,0,,,,,,,,,0,,,58,0
11639,note_on,59,0,1,,,,,,,,,0,,,46,0
11640,note_on,1,0,0,,,,,,,,,0,,,60,126
11640,note_on,1,0,1,,,,,,,,,0,,,48,126
11699,note_on,59,0,1,,,,,,,,,0,,,48,0
11699,note_on,59,0,0,,,,,,,,,0,,,60,0
11700,note_on,1,0,0,,,,,,,,,0,,,62,126
11700,note_on,1,0,1,,,,,,,,,0,,,50,126
11756,note_on,56,0,1,,,,,,,,,0,,,50,0
11756,note_on,56,0,0,,,,,,,,,0,,,62,0
11760,note_on,4,0,0,,,,,,,,,0,,,63,126
11760,note_on,4,0,1,,,,,,,,,0,,,51,126
11838,note_on,78,0,0,,,,,,,,,0,,,63,0
11838,note_on,78,0,1,,,,,,,,,0,,,51,0
12000,note_on,0,0,1,,,,,,,,,0,,,41,126
12000,note_on,162,0,0,,,,,,,,,0,,,74,126
12000,note_on,0,0,0,,,,,,,,,0,,,80,126
12000,note_on,0,0,0,,,,,,,,,0,,,84,126
12000,note_on,0,0,1,,,,,,,,,0,,,38,126
12000,note_on,0,0,0,,,,,,,,,0,,,86,126
12000,note_on,162,0,1,,,,,,,,,0,,,29,126
12001,control_change,1,0,0,,,,,,,64,0,0,,,,
12078,note_on,0,0,1,,,,,,,,,0,,,38,0
12078,note_on,77,0,0,,,,,,,,,0,,,74,0
12078,note_on,0,0,0,,,,,,,,,0,,,86,0
12078,note_on,0,0,0,,,,,,,,,0,,,84,0
12078,note_on,0,0,0,,,,,,,,,0,,,80,0
12078,note_on,0,0,1,,,,,,,,,0,,,41,0
12078,note_on,78,0,1,,,,,,,,,0,,,29,0
12240,note_on,162,0,0,,,,,,,,,0,,,80,127
12240,note_on,0,0,0,,,,,,,,,0,,,92,127
12240,note_on,162,0,1,,,,,,,,,0,,,29,127
12240,note_on,0,0,1,,,,,,,,,0,,,41,127
12240,note_on,0,0,0,,,,,,,,,0,,,84,127
12240,note_on,0,0,1,,,,,,,,,0,,,38,127
12318,note_on,78,0,0,,,,,,,,,0,,,80,0
12318,note_on,0,0,0,,,,,,,,,0,,,92,0
12318,note_on,0,0,0,,,,,,,,,0,,,84,0
12479,note_on,239,0,1,,,,,,,,,0,,,29,0
12479,note_on,0,0,1,,,,,,,,,0,,,38,0
12479,note_on,0,0,1,,,,,,,,,0,,,41,0
12480,note_on,0,0,1,,,,,,,,,0,,,38,126
12480,note_on,0,0,1,,,,,,,,,0,,,43,126
12480,note_on,1,0,1,,,,,,,,,0,,,31,126
12480,note_on,162,0,0,,,,,,,,,0,,,80,126
12480,note_on,0,0,0,,,,,,,,,0,,,92,126
12480,note_on,0,0,0,,,,,,,,,0,,,83,126
12558,note_on,78,0,0,,,,,,,,,0,,,80,0
12558,note_on,0,0,1,,,,,,,,,0,,,43,0
12558,note_on,0,0,1,,,,,,,,,0,,,38,0
12558,note_on,0,0,0,,,,,,,,,0,,,92,0
12558,note_on,78,0,1,,,,,,,,,0,,,31,0
12558,note_on,0,0,0,,,,,,,,,0,,,83,0
12720,note_on,162,0,0,,,,,,,,,0,,,62,126
12720,note_on,162,0,1,,,,,,,,,0,,,50,126
12722,control_change,2,0,1,,,,,,,64,127,0,,,,
12779,note_on,59,0,0,,,,,,,,,0,,,62,0
12779,note_on,57,0,1,,,,,,,,,0,,,50,0
12780,note_on,1,0,0,,,,,,,,,0,,,60,126
12780,note_on,1,0,1,,,,,,,,,0,,,48,126
12839,note_on,59,0,0,,,,,,,,,0,,,60,0
12839,note_on,59,0,1,,,,,,,,,0,,,48,0
12840,note_on,1,0,1,,,,,,,,,0,,,47,126
12840,note_on,1,0,0,,,,,,,,,0,,,59,126
12899,note_on,59,0,0,,,,,,,,,0,,,59,0
12899,note_on,59,0,1,,,,,,,,,0,,,47,0
12900,note_on,1,0,1,,,,,,,,,0,,,44,126
12900,note_on,1,0,0,,,,,,,,,0,,,56,126
12956,note_on,56,0,1,,,,,,,,,0,,,44,0
12956,note_on,56,0,0,,,,,,,,,0,,,56,0
12960,note_on,4,0,1,,,,,,,,,0,,,43,126
12960,note_on,4,0,0,,,,,,,,,0,,,55,126
13038,note_on,78,0,0,,,,,,,,,0,,,55,0
13038,note_on,78,0,1,,,,,,,,,0,,,43,0
13200,note_on,162,0,0,,,,,,,,,0,,,79,126
13200,note_on,162,0,1,,,,,,,,,0,,,40,126
13200,note_on,0,0,1,,,,,,,,,0,,,49,126
13200,note_on,0,0,0,,,,,,,,,0,,,82,126
13200,note_on,0,0,0,,,,,,,,,0,,,85,126
13200,note_on,0,0,1,,,,,,,,,0,,,52,126
13200,note_on,0,0,0,,,,,,,,,0,,,91,126
13201,control_change,1,0,1,,,,,,,64,0,0,,,,
13278,note_on,0,0,1,,,,,,,,,0,,,52,0
13278,note_on,0,0,0,,,,,,,,,0,,,85,0
13278,note_on,0,0,0,,,,,,,,,0,,,82,0
13278,note_on,77,0,1,,,,,,,,,0,,,40,0
13278,note_on,0,0,1,,,,,,,,,0,,,49,0
13278,note_on,0,0,0,,,,,,,,,0,,,91,0
13278,note_on,78,0,0,,,,,,,,,0,,,79,0
13440,note_on,0,0,0,,,,,,,,,0,,,91,126
13440,note_on,162,0,0,,,,,,,,,0,,,84,126
13440,note_on,162,0,1,,,,,,,,,0,,,40,126
13440,note_on,0,0,0,,,,,,,,,0,,,96,126
13440,note_on,0,0,0,,,,,,,,,0,,,94,126
13440,note_on,0,0,1,,,,,,,,,0,,,52,126
13440,note_on,0,0,1,,,,,,,,,0,,,49,126
13518,note_on,0,0,1,,,,,,,,,0,,,52,0
13518,note_on,0,0,0,,,,,,,,,0,,,96,0
13518,note_on,0,0,1,,,,,,,,,0,,,49,0
13518,note_on,0,0,0,,,,,,,,,0,,,94,0
13518,note_on,78,0,0,,,,,,,,,0,,,84,0
13518,note_on,78,0,1,,,,,,,,,0,,,40,0
13518,note_on,0,0,0,,,,,,,,,0,,,91,0
13680,note_on,162,0,1,,,,,,,,,0,,,41,126
13680,note_on,162,0,0,,,,,,,,,0,,,84,126
13680,note_on,0,0,1,,,,,,,,,0,,,48,126
13680,note_on,0,0,1,,,,,,,,,0,,,53,126
13680,note_on,0,0,0,,,,,,,,,0,,,92,126
13680,note_on,0,0,0,,,,,,,,,0,,,96,126
13758,note_on,0,0,0,,,,,,,,,0,,,92,0
13758,note_on,0,0,1,,,,,,,,,0,,,48,0
13758,note_on,0,0,1,,,,,,,,,0,,,53,0
13758,note_on,0,0,0,,,,,,,,,0,,,96,0
13758,note_on,78,0,0,,,,,,,,,0,,,84,0
13758,note_on,78,0,1,,,,,,,,,0,,,41,0
13920,note_on,162,0,1,,,,,,,,,0,,,47,126
13920,note_on,162,0,0,,,,,,,,,0,,,59,126
13922,control_change,2,0,1,,,,,,,64,127,0,,,,
13979,note_on,57,0,1,,,,,,,,,0,,,47,0
13979,note_on,59,0,0,,,,,,,,,0,,,59,0
13980,note_on,1,0,1,,,,,,,,,0,,,48,126
13980,note_on,1,0,0,,,,,,,,,0,,,60,126
14039,note_on,59,0,1,,,,,,,,,0,,,48,0
14039,note_on,59,0,0,,,,,,,,,0,,,60,0
14040,note_on,1,0,0,,,,,,,,,0,,,62,126
14040,note_on,1,0,1,,,,,,,,,0,,,50,126
14099,note_on,59,0,1,,,,,,,,,0,,,50,0
14099,note_on,59,0,0,,,,,,,,,0,,,62,0
14100,note_on,1,0,1,,,,,,,,,0,,,52,126
14100,note_on,1,0,0,,,,,,,,,0,,,64,126
14156,note_on,56,0,0,,,,,,,,,0,,,64,0
14156,note_on,56,0,1,,,,,,,,,0,,,52,0
14160,note_on,4,0,1,,,,,,,,,0,,,53,126
14160,note_on,4,0,0,,,,,,,,,0,,,65,126
14238,note_on,78,0,0,,,,,,,,,0,,,65,0
14238,note_on,78,0,1,,,,,,,,,0,,,53,0
14400,note_on,0,0,1,,,,,,,,,0,,,44,112
14400,note_on,0,0,1,,,,,,,,,0,,,49,112
14400,note_on,162,0,1,,,,,,,,,0,,,37,112
14400,note_on,0,0,0,,,,,,,,,0,,,101,112
14400,note_on,0,0,0,,,,,,,,,0,,,92,112
14400,note_on,162,0,0,,,,,,,,,0,,,89,112
14401,control_change,1,0,1,,,,,,,64,0,0,,,,
14402,control_change,1,0,1,,,,,,,64,127,0,,,,
14478,note_on,0,0,1,,,,,,,,,0,,,44,0
14478,note_on,0,0,0,,,,,,,,,0,,,92,0
14478,note_on,0,0,0,,,,,,,,,0,,,101,0
14478,note_on,76,0,1,,,,,,,,,0,,,37,0
14478,note_on,78,0,0,,,,,,,,,0,,,89,0
14478,note_on,0,0,1,,,,,,,,,0,,,49,0
14640,note_on,162,0,0,,,,,,,,,0,,,61,103
14640,note_on,162,0,1,,,,,,,,,0,,,49,103
14699,note_on,59,0,0,,,,,,,,,0,,,61,0
14699,note_on,59,0,1,,,,,,,,,0,,,49,0
14700,note_on,1,0,0,,,,,,,,,0,,,63,100
14700,note_on,1,0,1,,,,,,,,,0,,,51,100
14759,note_on,59,0,1,,,,,,,,,0,,,51,0
14759,note_on,59,0,0,,,,,,,,,0,,,63,0
14760,note_on,1,0,0,,,,,,,,,0,,,65,98
14760,note_on,1,0,1,,,,,,,,,0,,,53,98
14819,note_on,59,0,0,,,,,,,,,0,,,65,0
14819,note_on,59,0,1,,,,,,,,,0,,,53,0
14820,note_on,1,0,0,,,,,,,,,0,,,66,96
14820,note_on,1,0,1,,,,,,,,,0,,,54,96
14876,note_on,56,0,0,,,,,,,,,0,,,66,0
14876,note_on,56,0,1,,,,,,,,,0,,,54,0
14880,note_on,4,0,1,,,,,,,,,0,,,56,94
14880,note_on,4,0,0,,,,,,,,,0,,,68,94
14958,note_on,78,0,1,,,,,,,,,0,,,56,0
14958,note_on,78,0,0,,,,,,,,,0,,,68,0
15120,note_on,162,0,0,,,,,,,,,0,,,73,94
15120,note_on,162,0,1,,,,,,,,,0,,,61,94
15179,note_on,59,0,0,,,,,,,,,0,,,73,0
15179,note_on,59,0,1,,,,,,,,,0,,,61,0
15180,note_on,1,0,1,,,,,,,,,0,,,63,94
15180,note_on,1,0,0,,,,,,,,,0,,,75,94
15239,note_on,59,0,1,,,,,,,,,0,,,63,0
15239,note_on,59,0,0,,,,,,,,,0,,,75,0
15240,note_on,1,0,1,,,,,,,,,0,,,65,94
15240,note_on,1,0,0,,,,,,,,,0,,,77,94
15299,note_on,59,0,1,,,,,,,,,0,,,65,0
15299,note_on,59,0,0,,,,,,,,,0,,,77,0
15300,note_on,1,0,1,,,,,,,,,0,,,66,94
15300,note_on,1,0,0,,,,,,,,,0,,,78,94
15356,note_on,56,0,0,,,,,,,,,0,,,78,0
15356,note_on,56,0,1,,,,,,,,,0,,,66,0
15360,note_on,4,0,0,,,,,,,,,0,,,80,94
15360,note_on,4,0,1,,,,,,,,,0,,,68,94
15438,note_on,78,0,0,,,,,,,,,0,,,80,0
15438,note_on,78,0,1,,,,,,,,,0,,,68,0
15600,note_on,162,0,0,,,,,,,,,0,,,85,94
15600,note_on,162,0,1,,,,,,,,,0,,,73,94
15659,note_on,59,0,0,,,,,,,,,0,,,85,0
15659,note_on,59,0,1,,,,,,,,,0,,,73,0
15660,note_on,1,0,1,,,,,,,,,0,,,75,94
15660,note_on,1,0,0,,,,,,,,,0,,,87,94
15719,note_on,59,0,1,,,,,,,,,0,,,75,0
15719,note_on,59,0,0,,,,,,,,,0,,,87,0
15720,note_on,1,0,1,,,,,,,,,0,,,77,94
15720,note_on,1,0,0,,,,,,,,,0,,,89,94
15779,note_on,59,0,0,,,,,,,,,0,,,89,0
15779,note_on,59,0,1,,,,,,,,,0,,,77,0
15780,note_on,1,0,1,,,,,,,,,0,,,78,94
15780,note_on,1,0,0,,,,,,,,,0,,,90,94
15836,note_on,56,0,1,,,,,,,,,0,,,78,0
15836,note_on,56,0,0,,,,,,,,,0,,,90,0
15840,note_on,4,0,0,,,,,,,,,0,,,92,94
15840,note_on,4,0,1,,,,,,,,,0,,,80,94
15918,note_on,78,0,1,,,,,,,,,0,,,80,0
15918,note_on,78,0,0,,,,,,,,,0,,,92,0
16200,note_on,282,0,1,,,,,,,,,0,,,41,94
16200,note_on,0,0,0,,,,,,,,,0,,,89,94
16200,note_on,0,0,1,,,,,,,,,0,,,49,94
16200,note_on,282,0,0,,,,,,,,,0,,,85,94
16200,note_on,0,0,1,,,,,,,,,0,,,53,94
16200,note_on,0,0,0,,,,,,,,,0,,,97,94
16238,note_on,0,0,0,,,,,,,,,0,,,97,0
16238,note_on,0,0,1,,,,,,,,,0,,,53,0
16238,note_on,38,0,0,,,,,,,,,0,,,85,0
16238,note_on,0,0,0,,,,,,,,,0,,,89,0
16238,note_on,0,0,1,,,,,,,,,0,,,49,0
16238,note_on,38,0,1,,,,,,,,,0,,,41,0
16320,note_on,82,0,0,,,,,,,,,0,,,85,94
16320,note_on,0,0,0,,,,,,,,,0,,,89,94
16320,note_on,0,0,0,,,,,,,,,0,,,97,94
16320,note_on,0,0,1,,,,,,,,,0,,,49,94
16320,note_on,82,0,1,,,,,,,,,0,,,41,94
16320,note_on,0,0,1,,,,,,,,,0,,,53,94
16398,note_on,0,0,1,,,,,,,,,0,,,53,0
16398,note_on,0,0,1,,,,,,,,,0,,,49,0
16398,note_on,78,0,0,,,,,,,,,0,,,85,0
16398,note_on,78,0,1,,,,,,,,,0,,,41,0
16398,note_on,0,0,0,,,,,,,,,0,,,97,0
16398,note_on,0,0,0,,,,,,,,,0,,,89,0
16560,note_on,0,0,0,,,,,,,,,0,,,92,94
16560,note_on,0,0,1,,,,,,,,,0,,,53,94
16560,note_on,162,0,1,,,,,,,,,0,,,44,94
16560,note_on,162,0,0,,,,,,,,,0,,,80,94
16560,note_on,0,0,0,,,,,,,,,0,,,85,94
16560,note_on,0,0,1,,,,,,,,,0,,,56,94
16638,note_on,78,0,0,,,,,,,,,0,,,80,0
16638,note_on,0,0,0,,,,,,,,,0,,,85,0
16638,note_on,78,0,1,,,,,,,,,0,,,44,0
16638,note_on,0,0,1,,,,,,,,,0,,,53,0
16638,note_on,0,0,1,,,,,,,,,0,,,56,0
16638,note_on,0,0,0,,,,,,,,,0,,,92,0
16920,note_on,0,0,1,,,,,,,,,0,,,56,94
16920,note_on,0,0,1,,,,,,,,,0,,,61,94
16920,note_on,0,0,0,,,,,,,,,0,,,80,94
16920,note_on,282,0,1,,,,,,,,,0,,,49,94
16920,note_on,282,0,0,,,,,,,,,0,,,77,94
16920,note_on,0,0,0,,,,,,,,,0,,,89,94
16958,note_on,38,0,1,,,,,,,,,0,,,49,0
16958,note_on,0,0,0,,,,,,,,,0,,,80,0
16958,note_on,0,0,1,,,,,,,,,0,,,61,0
16958,note_on,38,0,0,,,,,,,,,0,,,77,0
16958,note_on,0,0,0,,,,,,,,,0,,,89,0
16958,note_on,0,0,1,,,,,,,,,0,,,56,0
17040,note_on,0,0,1,,,,,,,,,0,,,56,94
17040,note_on,0,0,1,,,,,,,,,0,,,61,94
17040,note_on,82,0,1,,,,,,,,,0,,,49,94
17040,note_on,0,0,0,,,,,,,,,0,,,80,94
17040,note_on,0,0,0,,,,,,,,,0,,,89,94
17040,note_on,82,0,0,,,,,,,,,0,,,77,94
17118,note_on,0,0,0,,,,,,,,,0,,,89,0
17118,note_on,0,0,1,,,,,,,,,0,,,61,0
17118,note_on,0,0,1,,,,,,,,,0,,,56,0
17118,note_on,0,0,0,,,,,,,,,0,,,80,0
17118,note_on,78,0,1,,,,,,,,,0,,,49,0
17118,note_on,78,0,0,,,,,,,,,0,,,77,0
17281,control_change,163,0,1,,,,,,,64,0,0,,,,
17640,note_on,0,0,0,,,,,,,,,0,,,80,94
17640,note_on,0,0,1,,,,,,,,,0,,,65,94
17640,note_on,359,0,1,,,,,,,,,0,,,53,94
17640,note_on,0,0,0,,,,,,,,,0,,,85,94
17640,note_on,522,0,0,,,,,,,,,0,,,73,94
17640,note_on,0,0,1,,,,,,,,,0,,,56,94
17640,note_on,0,0,1,,,,,,,,,0,,,61,94
17640,note_on,0,0,0,,,,,,,,,0,,,77,94
17678,note_on,0,0,0,,,,,,,,,0,,,85,0
17678,note_on,0,0,1,,,,,,,,,0,,,56,0
17678,note_on,0,0,0,,,,,,,,,0,,,80,0
17678,note_on,0,0,1,,,,,,,,,0,,,65,0
17678,note_on,0,0,0,,,,,,,,,0,,,77,0
17678,note_on,38,0,0,,,,,,,,,0,,,73,0
17678,note_on,0,0,1,,,,,,,,,0,,,61,0
17678,note_on,38,0,1,,,,,,,,,0,,,53,0
17760,note_on,82,0,0,,,,,,,,,0,,,73,94
17760,note_on,0,0,0,,,,,,,,,0,,,85,94
17760,note_on,0,0,0,,,,,,,,,0,,,80,94
17760,note_on,0,0,0,,,,,,,,,0,,,77,94
17760,note_on,0,0,1,,,,,,,,,0,,,65,94
17760,note_on,0,0,1,,,,,,,,,0,,,61,94
17760,note_on,82,0,1,,,,,,,,,0,,,53,94
17760,note_on,0,0,1,,,,,,,,,0,,,56,94
17838,note_on,0,0,0,,,,,,,,,0,,,77,0
17838,note_on,0,0,0,,,,,,,,,0,,,80,0
17838,note_on,0,0,0,,,,,,,,,0,,,85,0
17838,note_on,78,0,0,,,,,,,,,0,,,73,0
17838,note_on,78,0,1,,,,,,,,,0,,,53,0
17838,note_on,0,0,1,,,,,,,,,0,,,56,0
17838,note_on,0,0,1,,,,,,,,,0,,,61,0
17838,note_on,0,0,1,,,,,,,,,0,,,65,0
18000,note_on,0,0,1,,,,,,,,,0,,,56,94
18000,note_on,0,0,1,,,,,,,,,0,,,60,94
18000,note_on,0,0,1,,,,,,,,,0,,,64,94
18000,note_on,162,0,0,,,,,,,,,0,,,72,94
18000,note_on,0,0,0,,,,,,,,,0,,,76,94
18000,note_on,0,0,0,,,,,,,,,0,,,80,94
18000,note_on,0,0,0,,,,,,,,,0,,,84,94
18000,note_on,162,0,1,,,,,,,,,0,,,52,94
18078,note_on,78,0,1,,,,,,,,,0,,,52,0
18078,note_on,78,0,0,,,,,,,,,0,,,72,0
18078,note_on,0,0,1,,,,,,,,,0,,,64,0
18078,note_on,0,0,0,,,,,,,,,0,,,80,0
18078,note_on,0,0,0,,,,,,,,,0,,,84,0
18078,note_on,0,0,0,,,,,,,,,0,,,76,0
18078,note_on,0,0,1,,,,,,,,,0,,,60,0
18078,note_on,0,0,1,,,,,,,,,0,,,56,0
18240,note_on,0,0,0,,,,,,,,,0,,,80,94
18240,note_on,0,0,1,,,,,,,,,0,,,56,94
18240,note_on,0,0,1,,,,,,,,,0,,,61,94
18240,note_on,0,0,1,,,,,,,,,0,,,65,94
18240,note_on,162,0,0,,,,,,,,,0,,,73,94
18240,note_on,0,0,0,,,,,,,,,0,,,77,94
18240,note_on,162,0,1,,,,,,,,,0,,,53,94
18240,note_on,0,0,0,,,,,,,,,0,,,85,94
18318,note_on,0,0,0,,,,,,,,,0,,,85,0
18318,note_on,0,0,0,,,,,,,,,0,,,80,0
18318,note_on,0,0,1,,,,,,,,,0,,,65,0
18318,note_on,0,0,1,,,,,,,,,0,,,56,0
18318,note_on,78,0,1,,,,,,,,,0,,,53,0
18318,note_on,78,0,0,,,,,,,,,0,,,73,0
18318,note_on,0,0,1,,,,,,,,,0,,,61,0
18318,note_on,0,0,0,,,,,,,,,0,,,77,0
18720,note_on,0,0,0,,,,,,,,,0,,,89,112
18720,note_on,0,0,0,,,,,,,,,0,,,86,112
18720,note_on,0,0,0,,,,,,,,,0,,,80,112
18720,note_on,402,0,1,,,,,,,,,0,,,47,112
18720,note_on,0,0,1,,,,,,,,,0,,,53,112
18720,note_on,0,0,1,,,,,,,,,0,,,56,112
18720,note_on,402,0,0,,,,,,,,,0,,,77,112
18720,note_on,0,0,1,,,,,,,,,0,,,59,112
18959,note_on,0,0,0,,,,,,,,,0,,,80,0
18959,note_on,239,0,1,,,,,,,,,0,,,47,0
18959,note_on,0,0,1,,,,,,,,,0,,,56,0
18959,note_on,0,0,1,,,,,,,,,0,,,59,0
18959,note_on,239,0,0,,,,,,,,,0,,,77,0
18959,note_on,0,0,0,,,,,,,,,0,,,89,0
18959,note_on,0,0,0,,,,,,,,,0,,,86,0
18959,note_on,0,0,1,,,,,,,,,0,,,53,0
19080,note_on,121,0,1,,,,,,,,,0,,,49,94
19080,note_on,0,0,0,,,,,,,,,0,,,85,94
19080,note_on,121,0,0,,,,,,,,,0,,,73,94
19080,note_on,0,0,1,,,,,,,,,0,,,61,94
19118,note_on,0,0,1,,,,,,,,,0,,,61,0
19118,note_on,38,0,0,,,,,,,,,0,,,73,0
19118,note_on,0,0,0,,,,,,,,,0,,,85,0
19118,note_on,38,0,1,,,,,,,,,0,,,49,0
19200,note_on,0,0,0,,,,,,,,,0,,,86,94
19200,note_on,82,0,0,,,,,,,,,0,,,74,94
19200,note_on,0,0,1,,,,,,,,,0,,,62,94
19200,note_on,82,0,1,,,,,,,,,0,,,50,94
19278,note_on,78,0,1,,,,,,,,,0,,,50,0
19278,note_on,78,0,0,,,,,,,,,0,,,74,0
19278,note_on,0,0,1,,,,,,,,,0,,,62,0
19278,note_on,0,0,0,,,,,,,,,0,,,86,0
19440,note_on,0,0,1,,,,,,,,,0,,,63,112
19440,note_on,0,0,0,,,,,,,,,0,,,87,112
19440,note_on,0,0,0,,,,,,,,,0,,,81,112
19440,note_on,0,0,1,,,,,,,,,0,,,54,112
19440,note_on,162,0,0,,,,,,,,,0,,,75,112
19440,note_on,0,0,1,,,,,,,,,0,,,60,112
19440,note_on,0,0,0,,,,,,,,,0,,,78,112
19440,note_on,162,0,1,,,,,,,,,0,,,51,112
19679,note_on,239,0,1,,,,,,,,,0,,,51,0
19679,note_on,0,0,1,,,,,,,,,0,,,60,0
19679,note_on,0,0,1,,,,,,,,,0,,,54,0
19679,note_on,0,0,0,,,,,,,,,0,,,78,0
19679,note_on,239,0,0,,,,,,,,,0,,,75,0
19679,note_on,0,0,1,,,,,,,,,0,,,63,0
19679,note_on,0,0,0,,,,,,,,,0,,,81,0
19679,note_on,0,0,0,,,,,,,,,0,,,87,0
19800,note_on,121,0,0,,,,,,,,,0,,,71,94
19800,note_on,121,0,1,,,,,,,,,0,,,47,94
19800,note_on,0,0,1,,,,,,,,,0,,,59,94
19800,note_on,0,0,0,,,,,,,,,0,,,83,94
19838,note_on,38,0,0,,,,,,,,,0,,,71,0
19838,note_on,38,0,1,,,,,,,,,0,,,47,0
19838,note_on,0,0,0,,,,,,,,,0,,,83,0
19838,note_on,0,0,1,,,,,,,,,0,,,59,0
19920,note_on,0,0,0,,,,,,,,,0,,,84,94
19920,note_on,82,0,0,,,,,,,,,0,,,72,94
19920,note_on,82,0,1,,,,,,,,,0,,,48,94
19920,note_on,0,0,1,,,,,,,,,0,,,60,94
19998,note_on,0,0,0,,,,,,,,,0,,,84,0
19998,note_on,78,0,1,,,,,,,,,0,,,48,0
19998,note_on,78,0,0,,,,,,,,,0,,,72,0
19998,note_on,0,0,1,,,,,,,,,0,,,60,0
20160,note_on,162,0,0,,,,,,,,,0,,,79,94
20160,note_on,0,0,0,,,,,,,,,0,,,83,94
20160,note_on,162,0,1,,,,,,,,,0,,,55,94
20160,note_on,0,0,0,,,,,,,,,0,,,91,94
20160,note_on,0,0,1,,,,,,,,,0,,,59,94
20160,note_on,0,0,1,,,,,,,,,0,,,62,94
20160,note_on,0,0,1,,,,,,,,,0,,,67,94
20238,note_on,0,0,0,,,,,,,,,0,,,91,0
20238,note_on,78,0,1,,,,,,,,,0,,,55,0
20238,note_on,0,0,0,,,,,,,,,0,,,83,0
20238,note_on,78,0,0,,,,,,,,,0,,,79,0
20238,note_on,0,0,1,,,,,,,,,0,,,59,0
20238,note_on,0,0,1,,,,,,,,,0,,,62,0
20238,note_on,0,0,1,,,,,,,,,0,,,67,0
20400,note_on,162,0,1,,,,,,,,,0,,,38,94
20520,note_on,282,0,0,,,,,,,,,0,,,50,94
20627,note_on,227,0,1,,,,,,,,,0,,,38,0
20633,note_on,113,0,0,,,,,,,,,0,,,50,0
20640,note_on,13,0,1,,,,,,,,,0,,,36,94
20760,note_on,127,0,0,,,,,,,,,0,,,48,94
20867,note_on,227,0,1,,,,,,,,,0,,,36,0
20873,note_on,113,0,0,,,,,,,,,0,,,48,0
20880,note_on,13,0,1,,,,,,,,,0,,,35,94
21000,note_on,127,0,0,,,,,,,,,0,,,47,94
21107,note_on,227,0,1,,,,,,,,,0,,,35,0
21113,note_on,113,0,0,,,,,,,,,0,,,47,0
21120,note_on,13,0,1,,,,,,,,,0,,,32,94
21240,note_on,127,0,0,,,,,,,,,0,,,44,94
21347,note_on,227,0,1,,,,,,,,,0,,,32,0
21353,note_on,113,0,0,,,,,,,,,0,,,44,0
21360,note_on,13,0,1,,,,,,,,,0,,,31,94
21480,note_on,127,0,0,,,,,,,,,0,,,43,94
21587,note_on,227,0,1,,,,,,,,,0,,,31,0
21593,note_on,113,0,0,,,,,,,,,0,,,43,0
21600,note_on,0,0,1,,,,,,,,,0,,,54,96
21600,note_on,0,0,1,,,,,,,,,0,,,51,96
21600,note_on,0,0,1,,,,,,,,,0,,,45,96
21600,note_on,0,0,0,,,,,,,,,0,,,87,96
21600,note_on,0,0,0,,,,,,,,,0,,,78,96
21600,note_on,13,0,1,,,,,,,,,0,,,43,96
21600,note_on,0,0,1,,,,,,,,,0,,,48,96
21600,note_on,7,0,0,,,,,,,,,0,,,75,96
21602,control_change,2,0,1,,,,,,,64,127,0,,,,
21678,note_on,0,0,0,,,,,,,,,0,,,87,0
21678,note_on,0,0,0,,,,,,,,,0,,,78,0
21678,note_on,0,0,1,,,,,,,,,0,,,45,0
21678,note_on,0,0,1,,,,,,,,,0,,,48,0
21678,note_on,78,0,0,,,,,,,,,0,,,75,0
21678,note_on,0,0,1,,,,,,,,,0,,,51,0
21678,note_on,0,0,1,,,,,,,,,0,,,54,0
21678,note_on,76,0,1,,,,,,,,,0,,,43,0
21960,note_on,0,0,0,,,,,,,,,0,,,84,96
21960,note_on,0,0,1,,,,,,,,,0,,,45,96
21960,note_on,0,0,1,,,,,,,,,0,,,48,96
21960,note_on,0,0,1,,,,,,,,,0,,,51,96
21960,note_on,0,0,0,,,,,,,,,0,,,75,96
21960,note_on,0,0,1,,,,,,,,,0,,,54,96
21960,note_on,282,0,1,,,,,,,,,0,,,43,96
21960,note_on,282,0,0,,,,,,,,,0,,,72,96
21998,note_on,0,0,1,,,,,,,,,0,,,54,0
21998,note_on,0,0,0,,,,,,,,,0,,,75,0
21998,note_on,38,0,0,,,,,,,,,0,,,72,0
21998,note_on,0,0,1,,,,,,,,,0,,,51,0
21998,note_on,0,0,1,,,,,,,,,0,,,48,0
21998,note_on,0,0,0,,,,,,,,,0,,,84,0
21998,note_on,0,0,1,,,,,,,,,0,,,45,0
21998,note_on,38,0,1,,,,,,,,,0,,,43,0
22080,note_on,0,0,0,,,,,,,,,0,,,75,96
22080,note_on,0,0,0,,,,,,,,,0,,,84,96
22080,note_on,82,0,0,,,,,,,,,0,,,72,96
22080,note_on,82,0,1,,,,,,,,,0,,,43,96
22080,note_on,0,0,1,,,,,,,,,0,,,54,96
22080,note_on,0,0,1,,,,,,,,,0,,,45,96
22080,note_on,0,0,1,,,,,,,,,0,,,48,96
22080,note_on,0,0,1,,,,,,,,,0,,,51,96
22158,note_on,0,0,1,,,,,,,,,0,,,48,0
22158,note_on,0,0,1,,,,,,,,,0,,,51,0
22158,note_on,78,0,0,,,,,,,,,0,,,72,0
22158,note_on,0,0,1,,,,,,,,,0,,,54,0
22158,note_on,78,0,1,,,,,,,,,0,,,43,0
22158,note_on,0,0,1,,,,,,,,,0,,,45,0
22158,note_on,0,0,0,,,,,,,,,0,,,75,0
22158,note_on,0,0,0,,,,,,,,,0,,,84,0
22680,note_on,0,0,1,,,,,,,,,0,,,51,96
22680,note_on,522,0,1,,,,,,,,,0,,,43,96
22680,note_on,0,0,0,,,,,,,,,0,,,72,96
22680,note_on,0,0,1,,,,,,,,,0,,,45,96
22680,note_on,0,0,0,,,,,,,,,0,,,81,96
22680,note_on,0,0,1,,,,,,,,,0,,,54,96
22680,note_on,0,0,1,,,,,,,,,0,,,48,96
22680,note_on,522,0,0,,,,,,,,,0,,,69,96
22718,note_on,0,0,1,,,,,,,,,0,,,51,0
22718,note_on,0,0,1,,,,,,,,,0,,,48,0
22718,note_on,0,0,1,,,,,,,,,0,,,45,0
22718,note_on,0,0,0,,,,,,,,,0,,,72,0
22718,note_on,38,0,1,,,,,,,,,0,,,43,0
22718,note_on,38,0,0,,,,,,,,,0,,,69,0
22718,note_on,0,0,0,,,,,,,,,0,,,81,0
22718,note_on,0,0,1,,,,,,,,,0,,,54,0
22800,note_on,0,0,0,,,,,,,,,0,,,81,96
22800,note_on,0,0,1,,,,,,,,,0,,,48,96
22800,note_on,0,0,1,,,,,,,,,0,,,45,96
22800,note_on,0,0,1,,,,,,,,,0,,,54,96
22800,note_on,82,0,0,,,,,,,,,0,,,69,96
22800,note_on,0,0,1,,,,,,,,,0,,,51,96
22800,note_on,82,0,1,,,,,,,,,0,,,43,96
22800,note_on,0,0,0,,,,,,,,,0,,,72,96
22878,note_on,0,0,0,,,,,,,,,0,,,72,0
22878,note_on,78,0,0,,,,,,,,,0,,,69,0
22878,note_on,0,0,0,,,,,,,,,0,,,81,0
22878,note_on,0,0,1,,,,,,,,,0,,,45,0
22878,note_on,0,0,1,,,,,,,,,0,,,48,0
22878,note_on,78,0,1,,,,,,,,,0,,,43,0
22878,note_on,0,0,1,,,,,,,,,0,,,51,0
22878,note_on,0,0,1,,,,,,,,,0,,,54,0
23280,note_on,402,0,0,,,,,,,,,0,,,66,96
23280,note_on,0,0,1,,,,,,,,,0,,,48,96
23280,note_on,0,0,1,,,,,,,,,0,,,51,96
23280,note_on,402,0,1,,,,,,,,,0,,,43,96
23280,note_on,0,0,1,,,,,,,,,0,,,54,96
23280,note_on,0,0,1,,,,,,,,,0,,,45,96
23280,note_on,0,0,0,,,,,,,,,0,,,78,96
23318,note_on,0,0,1,,,,,,,,,0,,,54,0
23318,note_on,0,0,1,,,,,,,,,0,,,51,0
23318,note_on,0,0,1,,,,,,,,,0,,,48,0
23318,note_on,0,0,1,,,,,,,,,0,,,45,0
23318,note_on,38,0,1,,,,,,,,,0,,,43,0
23318,note_on,0,0,0,,,,,,,,,0,,,78,0
23318,note_on,38,0,0,,,,,,,,,0,,,66,0
23400,note_on,0,0,1,,,,,,,,,0,,,51,96
23400,note_on,82,0,0,,,,,,,,,0,,,63,96
23400,note_on,0,0,1,,,,,,,,,0,,,54,96
23400,note_on,0,0,1,,,,,,,,,0,,,48,96
23400,note_on,0,0,1,,,,,,,,,0,,,45,96
23400,note_on,82,0,1,,,,,,,,,0,,,43,96
23400,note_on,0,0,0,,,,,,,,,0,,,75,96
23438,note_on,0,0,1,,,,,,,,,0,,,54,0
23438,note_on,0,0,1,,,,,,,,,0,,,51,0
23438,note_on,0,0,1,,,,,,,,,0,,,48,0
23438,note_on,0,0,1,,,,,,,,,0,,,45,0
23438,note_on,38,0,0,,,,,,,,,0,,,63,0
23438,note_on,0,0,0,,,,,,,,,0,,,75,0
23438,note_on,38,0,1,,,,,,,,,0,,,43,0
23520,note_on,0,0,1,,,,,,,,,0,,,51,96
23520,note_on,0,0,1,,,,,,,,,0,,,54,96
23520,note_on,82,0,1,,,,,,,,,0,,,43,96
23520,note_on,0,0,1,,,,,,,,,0,,,48,96
23520,note_on,0,0,1,,,,,,,,,0,,,45,96
23520,note_on,0,0,0,,,,,,,,,0,,,74,96
23520,note_on,82,0,0,,,,,,,,,0,,,62,96
23558,note_on,38,0,1,,,,,,,,,0,,,43,0
23558,note_on,0,0,0,,,,,,,,,0,,,74,0
23558,note_on,0,0,1,,,,,,,,,0,,,54,0
23558,note_on,38,0,0,,,,,,,,,0,,,62,0
23558,note_on,0,0,1,,,,,,,,,0,,,51,0
23558,note_on,0,0,1,,,,,,,,,0,,,45,0
23558,note_on,0,0,1,,,,,,,,,0,,,48,0
23640,note_on,0,0,1,,,,,,,,,0,,,48,96
23640,note_on,0,0,1,,,,,,,,,0,,,45,96
23640,note_on,82,0,0,,,,,,,,,0,,,60,96
23640,note_on,0,0,1,,,,,,,,,0,,,51,96
23640,note_on,82,0,1,,,,,,,,,0,,,43,96
23640,note_on,0,0,0,,,,,,,,,0,,,72,96
23640,note_on,0,0,1,,,,,,,,,0,,,54,96
23678,note_on,0,0,1,,,,,,,,,0,,,48,0
23678,note_on,38,0,1,,,,,,,,,0,,,43,0
23678,note_on,38,0,0,,,,,,,,,0,,,60,0
23678,note_on,0,0,1,,,,,,,,,0,,,45,0
23678,note_on,0,0,1,,,,,,,,,0,,,51,0
23678,note_on,0,0,1,,,,,,,,,0,,,54,0
23678,note_on,0,0,0,,,,,,,,,0,,,72,0
23760,note_on,0,0,1,,,,,,,,,0,,,55,96
23760,note_on,0,0,1,,,,,,,,,0,,,50,96
23760,note_on,0,0,1,,,,,,,,,0,,,47,96
23760,note_on,0,0,0,,,,,,,,,0,,,79,96
23760,note_on,82,0,1,,,,,,,,,0,,,43,96
23760,note_on,0,0,0,,,,,,,,,0,,,71,96
23760,note_on,82,0,0,,,,,,,,,0,,,67,96
23761,control_change,1,0,1,,,,,,,64,0,0,,,,
23838,note_on,0,0,1,,,,,,,,,0,,,55,0
23838,note_on,0,0,1,,,,,,,,,0,,,50,0
23838,note_on,0,0,1,,,,,,,,,0,,,47,0
23838,note_on,0,0,0,,,,,,,,,0,,,71,0
23838,note_on,78,0,0,,,,,,,,,0,,,67,0
23838,note_on,77,0,1,,,,,,,,,0,,,43,0
23838,note_on,0,0,0,,,,,,,,,0,,,79,0
24000,note_on,162,0,1,,,,,,,,,0,,,38,96
24120,note_on,282,0,0,,,,,,,,,0,,,50,96
24227,note_on,227,0,1,,,,,,,,,0,,,38,0
24233,note_on,113,0,0,,,,,,,,,0,,,50,0
24240,note_on,13,0,1,,,,,,,,,0,,,36,95
24360,note_on,127,0,0,,,,,,,,,0,,,48,94
24467,note_on,227,0,1,,,,,,,,,0,,,36,0
24473,note_on,113,0,0,,,,,,,,,0,,,48,0
24480,note_on,13,0,1,,,,,,,,,0,,,35,93
24600,note_on,127,0,0,,,,,,,,,0,,,47,92
24707,note_on,227,0,1,,,,,,,,,0,,,35,0
24713,note_on,113,0,0,,,,,,,,,0,,,47,0
24720,note_on,13,0,1,,,,,,,,,0,,,32,91
24840,note_on,127,0,0,,,,,,,,,0,,,44,90
24947,note_on,227,0,1,,,,,,,,,0,,,32,0
24953,note_on,113,0,0,,,,,,,,,0,,,44,0
24960,note_on,13,0,1,,,,,,,,,0,,,31,89
25080,note_on,127,0,0,,,,,,,,,0,,,43,88
25187,note_on,227,0,1,,,,,,,,,0,,,31,0
25193,note_on,113,0,0,,,,,,,,,0,,,43,0
25200,note_on,7,0,0,,,,,,,,,0,,,75,96
25200,note_on,0,0,0,,,,,,,,,0,,,87,96
25200,note_on,0,0,0,,,,,,,,,0,,,78,96
25200,note_on,13,0,1,,,,,,,,,0,,,43,96
25200,note_on,0,0,1,,,,,,,,,0,,,48,96
25200,note_on,0,0,1,,,,,,,,,0,,,45,96
25200,note_on,0,0,1,,,,,,,,,0,,,51,96
25200,note_on,0,0,1,,,,,,,,,0,,,54,96
25202,control_change,2,0,1,,,,,,,64,127,0,,,,
25278,note_on,0,0,1,,,,,,,,,0,,,51,0
25278,note_on,76,0,1,,,,,,,,,0,,,43,0
25278,note_on,0,0,0,,,,,,,,,0,,,78,0
25278,note_on,0,0,1,,,,,,,,,0,,,45,0
25278,note_on,0,0,1,,,,,,,,,0,,,48,0
25278,note_on,0,0,0,,,,,,,,,0,,,87,0
25278,note_on,0,0,1,,,,,,,,,0,,,54,0
25278,note_on,78,0,0,,,,,,,,,0,,,75,0
25560,note_on,0,0,1,,,,,,,,,0,,,54,96
25560,note_on,0,0,1,,,,,,,,,0,,,51,96
25560,note_on,0,0,1,,,,,,,,,0,,,48,96
25560,note_on,0,0,0,,,,,,,,,0,,,75,96
25560,note_on,0,0,0,,,,,,,,,0,,,84,96
25560,note_on,282,0,1,,,,,,,,,0,,,43,96
25560,note_on,282,0,0,,,,,,,,,0,,,72,96
25560,note_on,0,0,1,,,,,,,,,0,,,45,96
25598,note_on,38,0,0,,,,,,,,,0,,,72,0
25598,note_on,0,0,0,,,,,,,,,0,,,84,0
25598,note_on,0,0,0,,,,,,,,,0,,,75,0
25598,note_on,0,0,1,,,,,,,,,0,,,45,0
25598,note_on,0,0,1,,,,,,,,,0,,,51,0
25598,note_on,0,0,1,,,,,,,,,0,,,48,0
25598,note_on,0,0,1,,,,,,,,,0,,,54,0
25598,note_on,38,0,1,,,,,,,,,0,,,43,0
25680,note_on,0,0,1,,,,,,,,,0,,,45,96
25680,note_on,0,0,1,,,,,,,,,0,,,48,96
25680,note_on,0,0,1,,,,,,,,,0,,,51,96
25680,note_on,0,0,1,,,,,,,,,0,,,54,96
25680,note_on,82,0,0,,,,,,,,,0,,,72,96
25680,note_on,0,0,0,,,,,,,,,0,,,84,96
25680,note_on,82,0,1,,,,,,,,,0,,,43,96
25680,note_on,0,0,0,,,,,,,,,0,,,75,96
25758,note_on,0,0,0,,,,,,,,,0,,,84,0
25758,note_on,0,0,1,,,,,,,,,0,,,54,0
25758,note_on,0,0,0,,,,,,,,,0,,,75,0
25758,note_on,0,0,1,,,,,,,,,0,,,51,0
25758,note_on,78,0,0,,,,,,,,,0,,,72,0
25758,note_on,0,0,1,,,,,,,,,0,,,48,0
25758,note_on,78,0,1,,,,,,,,,0,,,43,0
25758,note_on,0,0,1,,,,,,,,,0,,,45,0
26280,note_on,0,0,1,,,,,,,,,0,,,54,96
26280,note_on,0,0,1,,,,,,,,,0,,,51,96
26280,note_on,522,0,1,,,,,,,,,0,,,43,96
26280,note_on,0,0,1,,,,,,,,,0,,,45,96
26280,note_on,0,0,0,,,,,,,,,0,,,72,96
26280,note_on,0,0,0,,,,,,,,,0,,,81,96
26280,note_on,522,0,0,,,,,,,,,0,,,69,96
26280,note_on,0,0,1,,,,,,,,,0,,,48,96
26318,note_on,38,0,0,,,,,,,,,0,,,69,0
26318,note_on,38,0,1,,,,,,,,,0,,,43,0
26318,note_on,0,0,0,,,,,,,,,0,,,72,0
26318,note_on,0,0,1,,,,,,,,,0,,,51,0
26318,note_on,0,0,1,,,,,,,,,0,,,48,0
26318,note_on,0,0,1,,,,,,,,,0,,,45,0
26318,note_on,0,0,1,,,,,,,,,0,,,54,0
26318,note_on,0,0,0,,,,,,,,,0,,,81,0
26400,note_on,0,0,0,,,,,,,,,0,,,72,96
26400,note_on,82,0,0,,,,,,,,,0,,,69,96
26400,note_on,0,0,1,,,,,,,,,0,,,45,96
26400,note_on,0,0,1,,,,,,,,,0,,,48,96
26400,note_on,82,0,1,,,,,,,,,0,,,43,96
26400,note_on,0,0,1,,,,,,,,,0,,,51,96
26400,note_on,0,0,1,,,,,,,,,0,,,54,96
26400,note_on,0,0,0,,,,,,,,,0,,,81,96
26478,note_on,0,0,1,,,,,,,,,0,,,51,0
26478,note_on,0,0,1,,,,,,,,,0,,,45,0
26478,note_on,0,0,1,,,,,,,,,0,,,48,0
26478,note_on,78,0,0,,,,,,,,,0,,,69,0
26478,note_on,0,0,1,,,,,,,,,0,,,54,0
26478,note_on,78,0,1,,,,,,,,,0,,,43,0
26478,note_on,0,0,0,,,,,,,,,0,,,72,0
26478,note_on,0,0,0,,,,,,,,,0,,,81,0
26880,note_on,0,0,0,,,,,,,,,0,,,78,96
26880,note_on,402,0,0,,,,,,,,,0,,,66,96
26880,note_on,402,0,1,,,,,,,,,0,,,43,96
26880,note_on,0,0,1,,,,,,,,,0,,,45,96
26880,note_on,0,0,1,,,,,,,,,0,,,48,96
26880,note_on,0,0,1,,,,,,,,,0,,,54,96
26880,note_on,0,0,1,,,,,,,,,0,,,51,96
26918,note_on,0,0,1,,,,,,,,,0,,,51,0
26918,note_on,0,0,1,,,,,,,,,0,,,48,0
26918,note_on,38,0,1,,,,,,,,,0,,,43,0
26918,note_on,0,0,0,,,,,,,,,0,,,78,0
26918,note_on,38,0,0,,,,,,,,,0,,,66,0
26918,note_on,0,0,1,,,,,,,,,0,,,45,0
26918,note_on,0,0,1,,,,,,,,,0,,,54,0
27000,note_on,0,0,0,,,,,,,,,0,,,75,96
27000,note_on,82,0,0,,,,,,,,,0,,,63,96
27000,note_on,0,0,1,,,,,,,,,0,,,45,96
27000,note_on,82,0,1,,,,,,,,,0,,,43,96
27000,note_on,0,0,1,,,,,,,,,0,,,48,96
27000,note_on,0,0,1,,,,,,,,,0,,,51,96
27000,note_on,0,0,1,,,,,,,,,0,,,54,96
27038,note_on,38,0,1,,,,,,,,,0,,,43,0
27038,note_on,0,0,0,,,,,,,,,0,,,75,0
27038,note_on,38,0,0,,,,,,,,,0,,,63,0
27038,note_on,0,0,1,,,,,,,,,0,,,54,0
27038,note_on,0,0,1,,,,,,,,,0,,,51,0
27038,note_on,0,0,1,,,,,,,,,0,,,48,0
27038,note_on,0,0,1,,,,,,,,,0,,,45,0
27120,note_on,0,0,0,,,,,,,,,0,,,74,96
27120,note_on,0,0,1,,,,,,,,,0,,,51,96
27120,note_on,0,0,1,,,,,,,,,0,,,48,96
27120,note_on,0,0,1,,,,,,,,,0,,,45,96
27120,note_on,0,0,1,,,,,,,,,0,,,54,96
27120,note_on,82,0,0,,,,,,,,,0,,,62,96
27120,note_on,82,0,1,,,,,,,,,0,,,43,96
27158,note_on,0,0,1,,,,,,,,,0,,,45,0
27158,note_on,0,0,1,,,,,,,,,0,,,54,0
27158,note_on,0,0,1,,,,,,,,,0,,,51,0
27158,note_on,0,0,1,,,,,,,,,0,,,48,0
27158,note_on,0,0,0,,,,,,,,,0,,,74,0
27158,note_on,38,0,1,,,,,,,,,0,,,43,0
27158,note_on,38,0,0,,,,,,,,,0,,,62,0
27240,note_on,0,0,1,,,,,,,,,0,,,45,96
27240,note_on,0,0,1,,,,,,,,,0,,,54,96
27240,note_on,0,0,1,,,,,,,,,0,,,51,96
27240,note_on,0,0,1,,,,,,,,,0,,,48,96
27240,note_on,82,0,1,,,,,,,,,0,,,43,96
27240,note_on,82,0,0,,,,,,,,,0,,,60,96
27240,note_on,0,0,0,,,,,,,,,0,,,72,96
27278,note_on,38,0,1,,,,,,,,,0,,,43,0
27278,note_on,38,0,0,,,,,,,,,0,,,60,0
27278,note_on,0,0,0,,,,,,,,,0,,,72,0
27278,note_on,0,0,1,,,,,,,,,0,,,45,0
27278,note_on,0,0,1,,,,,,,,,0,,,48,0
27278,note_on,0,0,1,,,,,,,,,0,,,51,0
27278,note_on,0,0,1,,,,,,,,,0,,,54,0
27360,note_on,82,0,1,,,,,,,,,0,,,43,96
27360,note_on,0,0,0,,,,,,,,,0,,,79,96
27360,note_on,0,0,1,,,,,,,,,0,,,55,96
27360,note_on,0,0,1,,,,,,,,,0,,,47,96
27360,note_on,0,0,1,,,,,,,,,0,,,50,96
27360,note_on,82,0,0,,,,,,,,,0,,,67,96
27360,note_on,0,0,0,,,,,,,,,0,,,71,96
27361,control_change,1,0,1,,,,,,,64,0,0,,,,
27438,note_on,0,0,0,,,,,,,,,0,,,79,0
27438,note_on,0,0,0,,,,,,,,,0,,,71,0
27438,note_on,77,0,1,,,,,,,,,0,,,43,0
27438,note_on,0,0,1,,,,,,,,,0,,,55,0
27438,note_on,0,0,1,,,,,,,,,0,,,50,0
27438,note_on,0,0,1,,,,,,,,,0,,,47,0
27438,note_on,78,0,0,,,,,,,,,0,,,67,0
27600,note_on,0,0,1,,,,,,,,,0,,,50,96
27600,note_on,162,0,1,,,,,,,,,0,,,38,96
27720,note_on,282,0,0,,,,,,,,,0,,,62,96
27827,note_on,227,0,1,,,,,,,,,0,,,38,0
27827,note_on,0,0,1,,,,,,,,,0,,,50,0
27833,note_on,113,0,0,,,,,,,,,0,,,62,0
27840,note_on,13,0,1,,,,,,,,,0,,,36,96
27840,note_on,0,0,1,,,,,,,,,0,,,48,96
27960,note_on,127,0,0,,,,,,,,,0,,,60,96
28067,note_on,227,0,1,,,,,,,,,0,,,36,0
28067,note_on,0,0,1,,,,,,,,,0,,,48,0
28073,note_on,113,0,0,,,,,,,,,0,,,60,0
28080,note_on,13,0,1,,,,,,,,,0,,,35,96
28080,note_on,0,0,1,,,,,,,,,0,,,47,96
28200,note_on,127,0,0,,,,,,,,,0,,,59,96
28307,note_on,227,0,1,,,,,,,,,0,,,35,0
28307,note_on,0,0,1,,,,,,,,,0,,,47,0
28313,note_on,113,0,0,,,,,,,,,0,,,59,0
28320,note_on,13,0,1,,,,,,,,,0,,,33,96
28320,note_on,0,0,1,,,,,,,,,0,,,45,96
28440,note_on,127,0,0,,,,,,,,,0,,,57,96
28547,note_on,227,0,1,,,,,,,,,0,,,33,0
28547,note_on,0,0,1,,,,,,,,,0,,,45,0
28553,note_on,113,0,0,,,,,,,,,0,,,57,0
28560,note_on,13,0,1,,,,,,,,,0,,,31,96
28560,note_on,0,0,1,,,,,,,,,0,,,43,96
28680,note_on,127,0,0,,,,,,,,,0,,,55,96
28787,note_on,227,0,1,,,,,,,,,0,,,31,0
28787,note_on,0,0,1,,,,,,,,,0,,,43,0
28793,note_on,113,0,0,,,,,,,,,0,,,55,0
28800,note_on,0,0,1,,,,,,,,,0,,,56,115
28800,note_on,13,0,1,,,,,,,,,0,,,44,115
28920,note_on,127,0,0,,,,,,,,,0,,,68,96
29033,note_on,113,0,0,,,,,,,,,0,,,68,0
29039,note_on,239,0,1,,,,,,,,,0,,,44,0
29039,note_on,0,0,1,,,,,,,,,0,,,56,0
29040,note_on,1,0,1,,,,,,,,,0,,,42,96
29040,note_on,0,0,1,,,,,,,,,0,,,54,96
29160,note_on,127,0,0,,,,,,,,,0,,,66,96
29267,note_on,0,0,1,,,,,,,,,0,,,54,0
29267,note_on,227,0,1,,,,,,,,,0,,,42,0
29273,note_on,113,0,0,,,,,,,,,0,,,66,0
29280,note_on,0,0,1,,,,,,,,,0,,,53,96
29280,note_on,13,0,1,,,,,,,,,0,,,41,96
29400,note_on,127,0,0,,,,,,,,,0,,,65,96
29507,note_on,227,0,1,,,,,,,,,0,,,41,0
29507,note_on,0,0,1,,,,,,,,,0,,,53,0
29513,note_on,113,0,0,,,,,,,,,0,,,65,0
29520,note_on,13,0,1,,,,,,,,,0,,,39,96
29520,note_on,0,0,1,,,,,,,,,0,,,51,96
29640,note_on,127,0,0,,,,,,,,,0,,,63,96
29747,note_on,0,0,1,,,,,,,,,0,,,51,0
29747,note_on,227,0,1,,,,,,,,,0,,,39,0
29753,note_on,113,0,0,,,,,,,,,0,,,63,0
29760,note_on,13,0,1,,,,,,,,,0,,,37,96
29760,note_on,0,0,1,,,,,,,,,0,,,49,96
29880,note_on,127,0,0,,,,,,,,,0,,,61,96
29987,note_on,227,0,1,,,,,,,,,0,,,37,0
29987,note_on,0,0,1,,,,,,,,,0,,,49,0
29993,note_on,113,0,0,,,,,,,,,0,,,61,0
30000,note_on,0,0,0,,,,,,,,,0,,,85,96
30000,note_on,0,0,0,,,,,,,,,0,,,80,96
30000,note_on,0,0,0,,,,,,,,,0,,,89,96
30000,note_on,7,0,0,,,,,,,,,0,,,77,96
30000,note_on,13,0,1,,,,,,,,,0,,,49,96
30000,note_on,0,0,1,,,,,,,,,0,,,53,96
30000,note_on,0,0,1,,,,,,,,,0,,,56,96
30000,note_on,0,0,1,,,,,,,,,0,,,61,96
30078,note_on,78,0,0,,,,,,,,,0,,,77,0
30078,note_on,0,0,1,,,,,,,,,0,,,53,0
30078,note_on,0,0,0,,,,,,,,,0,,,89,0
30078,note_on,0,0,0,,,,,,,,,0,,,80,0
30078,note_on,78,0,1,,,,,,,,,0,,,49,0
30078,note_on,0,0,1,,,,,,,,,0,,,61,0
30078,note_on,0,0,0,,,,,,,,,0,,,85,0
30078,note_on,0,0,1,,,,,,,,,0,,,56,0
30240,note_on,0,0,1,,,,,,,,,0,,,50,96
30240,note_on,0,0,0,,,,,,,,,0,,,91,96
30240,note_on,0,0,0,,,,,,,,,0,,,86,96
30240,note_on,0,0,0,,,,,,,,,0,,,83,96
30240,note_on,0,0,1,,,,,,,,,0,,,55,96
30240,note_on,0,0,1,,,,,,,,,0,,,47,96
30240,note_on,162,0,0,,,,,,,,,0,,,79,96
30240,note_on,162,0,1,,,,,,,,,0,,,43,96
30318,note_on,0,0,0,,,,,,,,,0,,,86,0
30318,note_on,0,0,0,,,,,,,,,0,,,83,0
30318,note_on,78,0,1,,,,,,,,,0,,,43,0
30318,note_on,0,0,0,,,,,,,,,0,,,91,0
30318,note_on,0,0,1,,,,,,,,,0,,,47,0
30318,note_on,0,0,1,,,,,,,,,0,,,55,0
30318,note_on,78,0,0,,,,,,,,,0,,,79,0
30318,note_on,0,0,1,,,,,,,,,0,,,50,0
30480,note_on,162,0,1,,,,,,,,,0,,,38,96
30480,note_on,0,0,1,,,,,,,,,0,,,50,96
30600,note_on,282,0,0,,,,,,,,,0,,,62,96
30707,note_on,227,0,1,,,,,,,,,0,,,38,0
30707,note_on,0,0,1,,,,,,,,,0,,,50,0
30713,note_on,113,0,0,,,,,,,,,0,,,62,0
30720,note_on,13,0,1,,,,,,,,,0,,,36,96
30720,note_on,0,0,1,,,,,,,,,0,,,48,96
30840,note_on,127,0,0,,,,,,,,,0,,,60,96
30947,note_on,0,0,1,,,,,,,,,0,,,48,0
30947,note_on,227,0,1,,,,,,,,,0,,,36,0
30953,note_on,113,0,0,,,,,,,,,0,,,60,0
30960,note_on,13,0,1,,,,,,,,,0,,,35,96
30960,note_on,0,0,1,,,,,,,,,0,,,47,96
31080,note_on,127,0,0,,,,,,,,,0,,,59,96
31187,note_on,0,0,1,,,,,,,,,0,,,47,0
31187,note_on,227,0,1,,,,,,,,,0,,,35,0
31193,note_on,113,0,0,,,,,,,,,0,,,59,0
31200,note_on,13,0,1,,,,,,,,,0,,,33,96
31200,note_on,0,0,1,,,,,,,,,0,,,45,96
31320,note_on,127,0,0,,,,,,,,,0,,,57,96
31427,note_on,227,0,1,,,,,,,,,0,,,33,0
31427,note_on,0,0,1,,,,,,,,,0,,,45,0
31433,note_on,113,0,0,,,,,,,,,0,,,57,0
31440,note_on,13,0,1,,,,,,,,,0,,,31,96
31440,note_on,0,0,1,,,,,,,,,0,,,43,96
31560,note_on,127,0,0,,,,,,,,,0,,,55,96
31667,note_on,227,0,1,,,,,,,,,0,,,31,0
31667,note_on,0,0,1,,,,,,,,,0,,,43,0
31673,note_on,113,0,0,,,,,,,,,0,,,55,0
31680,note_on,13,0,1,,,,,,,,,0,,,44,96
31680,note_on,0,0,1,,,,,,,,,0,,,56,96
31800,note_on,127,0,0,,,,,,,,,0,,,68,96
31907,note_on,227,0,1,,,,,,,,,0,,,44,0
31907,note_on,0,0,1,,,,,,,,,0,,,56,0
31913,note_on,113,0,0,,,,,,,,,0,,,68,0
31920,note_on,0,0,1,,,,,,,,,0,,,54,96
31920,note_on,13,0,1,,,,,,,,,0,,,42,96
32040,note_on,127,0,0,,,,,,,,,0,,,66,96
32147,note_on,227,0,1,,,,,,,,,0,,,42,0
32147,note_on,0,0,1,,,,,,,,,0,,,54,0
32153,note_on,113,0,0,,,,,,,,,0,,,66,0
32160,note_on,13,0,1,,,,,,,,,0,,,41,96
32160,note_on,0,0,1,,,,,,,,,0,,,53,96
32280,note_on,127,0,0,,,,,,,,,0,,,65,96
32387,note_on,0,0,1,,,,,,,,,0,,,53,0
32387,note_on,227,0,1,,,,,,,,,0,,,41,0
32393,note_on,113,0,0,,,,,,,,,0,,,65,0
32400,note_on,13,0,1,,,,,,,,,0,,,39,96
32400,note_on,0,0,1,,,,,,,,,0,,,51,96
32520,note_on,127,0,0,,,,,,,,,0,,,63,96
32627,note_on,0,0,1,,,,,,,,,0,,,51,0
32627,note_on,227,0,1,,,,,,,,,0,,,39,0
32633,note_on,113,0,0,,,,,,,,,0,,,63,0
32640,note_on,0,0,1,,,,,,,,,0,,,49,96
32640,note_on,13,0,1,,,,,,,,,0,,,37,96
32760,note_on,127,0,0,,,,,,,,,0,,,61,96
32867,note_on,0,0,1,,,,,,,,,0,,,49,0
32867,note_on,227,0,1,,,,,,,,,0,,,37,0
32873,note_on,113,0,0,,,,,,,,,0,,,61,0
32880,note_on,13,0,1,,,,,,,,,0,,,49,96
32880,note_on,0,0,0,,,,,,,,,0,,,80,96
32880,note_on,0,0,0,,,,,,,,,0,,,85,96
32880,note_on,0,0,0,,,,,,,,,0,,,89,96
32880,note_on,0,0,1,,,,,,,,,0,,,61,96
32880,note_on,7,0,0,,,,,,,,,0,,,77,96
32880,note_on,0,0,1,,,,,,,,,0,,,56,96
32880,note_on,0,0,1,,,,,,,,,0,,,53,96
32958,note_on,0,0,1,,,,,,,,,0,,,61,0
32958,note_on,0,0,1,,,,,,,,,0,,,56,0
32958,note_on,0,0,1,,,,,,,,,0,,,53,0
32958,note_on,78,0,0,,,,,,,,,0,,,77,0
32958,note_on,0,0,0,,,,,,,,,0,,,89,0
32958,note_on,0,0,0,,,,,,,,,0,,,85,0
32958,note_on,0,0,0,,,,,,,,,0,,,80,0
32958,note_on,78,0,1,,,,,,,,,0,,,49,0
33120,note_on,162,0,0,,,,,,,,,0,,,83,96
33120,note_on,0,0,1,,,,,,,,,0,,,55,96
33120,note_on,0,0,1,,,,,,,,,0,,,47,96
33120,note_on,162,0,1,,,,,,,,,0,,,43,96
33120,note_on,0,0,1,,,,,,,,,0,,,50,96
33120,note_on,0,0,0,,,,,,,,,0,,,95,96
33120,note_on,0,0,0,,,,,,,,,0,,,91,96
33120,note_on,0,0,0,,,,,,,,,0,,,86,96
33803,note_on,683,0,0,,,,,,,,,0,,,83,0
33803,note_on,0,0,1,,,,,,,,,0,,,47,0
33803,note_on,0,0,1,,,,,,,,,0,,,55,0
33803,note_on,0,0,1,,,,,,,,,0,,,50,0
33803,note_on,0,0,0,,,,,,,,,0,,,95,0
33803,note_on,0,0,0,,,,,,,,,0,,,91,0
33803,note_on,0,0,0,,,,,,,,,0,,,86,0
33803,note_on,683,0,1,,,,,,,,,0,,,43,0
33840,note_on,37,0,1,,,,,,,,,0,,,41,96
33840,note_on,0,0,0,,,,,,,,,0,,,96,96
33840,note_on,0,0,0,,,,,,,,,0,,,92,96
33840,note_on,0,0,0,,,,,,,,,0,,,89,96
33840,note_on,37,0,0,,,,,,,,,0,,,84,96
33840,note_on,0,0,1,,,,,,,,,0,,,44,96
33840,note_on,0,0,1,,,,,,,,,0,,,48,96
33840,note_on,0,0,1,,,,,,,,,0,,,53,96
34523,note_on,0,0,1,,,,,,,,,0,,,48,0
34523,note_on,0,0,1,,,,,,,,,0,,,44,0
34523,note_on,0,0,0,,,,,,,,,0,,,89,0
34523,note_on,683,0,1,,,,,,,,,0,,,41,0
34523,note_on,0,0,0,,,,,,,,,0,,,92,0
34523,note_on,0,0,0,,,,,,,,,0,,,96,0
34523,note_on,683,0,0,,,,,,,,,0,,,84,0
34523,note_on,0,0,1,,,,,,,,,0,,,53,0
34560,note_on,0,0,0,,,,,,,,,0,,,97,96
34560,note_on,0,0,1,,,,,,,,,0,,,44,96
34560,note_on,0,0,1,,,,,,,,,0,,,49,96
34560,note_on,37,0,1,,,,,,,,,0,,,37,96
34560,note_on,0,0,0,,,,,,,,,0,,,89,96
34560,note_on,0,0,0,,,,,,,,,0,,,92,96
34560,note_on,37,0,0,,,,,,,,,0,,,85,96
34560,note_on,0,0,1,,,,,,,,,0,,,41,96
35243,note_on,0,0,1,,,,,,,,,0,,,44,0
35243,note_on,0,0,1,,,,,,,,,0,,,41,0
35243,note_on,683,0,0,,,,,,,,,0,,,85,0
35243,note_on,683,0,1,,,,,,,,,0,,,37,0
35243,note_on,0,0,0,,,,,,,,,0,,,92,0
35243,note_on,0,0,0,,,,,,,,,0,,,89,0
35243,note_on,0,0,0,,,,,,,,,0,,,97,0
35243,note_on,0,0,1,,,,,,,,,0,,,49,0
35280,note_on,0,0,0,,,,,,,,,0,,,98,96
35280,note_on,0,0,0,,,,,,,,,0,,,89,96
35280,note_on,0,0,0,,,,,,,,,0,,,92,96
35280,note_on,37,0,0,,,,,,,,,0,,,86,96
35280,note_on,0,0,1,,,,,,,,,0,,,48,96
35280,note_on,37,0,1,,,,,,,,,0,,,36,96
35280,note_on,0,0,1,,,,,,,,,0,,,41,96
35280,note_on,0,0,1,,,,,,,,,0,,,44,96
35963,note_on,0,0,1,,,,,,,,,0,,,41,0
35963,note_on,0,0,0,,,,,,,,,0,,,89,0
35963,note_on,0,0,0,,,,,,,,,0,,,92,0
35963,note_on,0,0,1,,,,,,,,,0,,,44,0
35963,note_on,0,0,0,,,,,,,,,0,,,98,0
35963,note_on,0,0,1,,,,,,,,,0,,,48,0
35963,note_on,683,0,1,,,,,,,,,0,,,36,0
35963,note_on,683,0,0,,,,,,,,,0,,,86,0
36000,note_on,0,0,1,,,,,,,,,0,,,36,115
36000,note_on,0,0,1,,,,,,,,,0,,,44,115
36000,note_on,37,0,1,,,,,,,,,0,,,32,115
36000,note_on,0,0,1,,,,,,,,,0,,,38,115
36000,note_on,37,0,0,,,,,,,,,0,,,89,115
36000,note_on,0,0,0,,,,,,,,,0,,,101,115
36000,note_on,0,0,0,,,,,,,,,0,,,98,115
36000,note_on,0,0,0,,,,,,,,,0,,,96,115
36002,control_change,2,0,0,,,,,,,64,127,0,,,,
36359,note_on,359,0,1,,,,,,,,,0,,,32,0
36359,note_on,357,0,0,,,,,,,,,0,,,89,0
36359,note_on,0,0,0,,,,,,,,,0,,,101,0
36359,note_on,0,0,0,,,,,,,,,0,,,98,0
36359,note_on,0,0,0,,,,,,,,,0,,,96,0
36359,note_on,0,0,1,,,,,,,,,0,,,36,0
36359,note_on,0,0,1,,,,,,,,,0,,,44,0
36359,note_on,0,0,1,,,,,,,,,0,,,38,0
36360,note_on,0,0,0,,,,,,,,,0,,,96,115
36360,note_on,0,0,1,,,,,,,,,0,,,38,115
36360,note_on,0,0,0,,,,,,,,,0,,,98,115
36360,note_on,0,0,1,,,,,,,,,0,,,44,115
36360,note_on,1,0,1,,,,,,,,,0,,,32,115
36360,note_on,1,0,0,,,,,,,,,0,,,89,115
36360,note_on,0,0,1,,,,,,,,,0,,,36,115
36360,note_on,0,0,0,,,,,,,,,0,,,101,115
36719,note_on,0,0,1,,,,,,,,,0,,,38,0
36719,note_on,0,0,0,,,,,,,,,0,,,96,0
36719,note_on,0,0,1,,,,,,,,,0,,,36,0
36719,note_on,0,0,0,,,,,,,,,0,,,101,0
36719,note_on,0,0,1,,,,,,,,,0,,,44,0
36719,note_on,359,0,1,,,,,,,,,0,,,32,0
36719,note_on,0,0,0,,,,,,,,,0,,,98,0
36719,note_on,359,0,0,,,,,,,,,0,,,89,0
36720,note_on,0,0,1,,,,,,,,,0,,,36,115
36720,note_on,0,0,1,,,,,,,,,0,,,38,115
36720,note_on,0,0,1,,,,,,,,,0,,,44,115
36720,note_on,1,0,0,,,,,,,,,0,,,89,115
36720,note_on,0,0,0,,,,,,,,,0,,,96,115
36720,note_on,0,0,0,,,,,,,,,0,,,98,115
36720,note_on,0,0,0,,,,,,,,,0,,,101,115
36720,note_on,1,0,1,,,,,,,,,0,,,32,115
37079,note_on,0,0,0,,,,,,,,,0,,,96,0
37079,note_on,0,0,0,,,,,,,,,0,,,98,0
37079,note_on,0,0,0,,,,,,,,,0,,,101,0
37079,note_on,359,0,0,,,,,,,,,0,,,89,0
37079,note_on,0,0,1,,,,,,,,,0,,,36,0
37079,note_on,0,0,1,,,,,,,,,0,,,44,0
37079,note_on,359,0,1,,,,,,,,,0,,,32,0
37079,note_on,0,0,1,,,,,,,,,0,,,38,0
37080,note_on,0,0,0,,,,,,,,,0,,,101,115
37080,note_on,0,0,1,,,,,,,,,0,,,36,115
37080,note_on,0,0,1,,,,,,,,,0,,,44,115
37080,note_on,0,0,0,,,,,,,,,0,,,98,115
37080,note_on,1,0,1,,,,,,,,,0,,,32,115
37080,note_on,0,0,0,,,,,,,,,0,,,96,115
37080,note_on,1,0,0,,,,,,,,,0,,,89,115
37080,note_on,0,0,1,,,,,,,,,0,,,38,115
37439,note_on,0,0,1,,,,,,,,,0,,,36,0
37439,note_on,0,0,1,,,,,,,,,0,,,44,0
37439,note_on,0,0,0,,,,,,,,,0,,,101,0
37439,note_on,0,0,0,,,,,,,,,0,,,96,0
37439,note_on,359,0,0,,,,,,,,,0,,,89,0
37439,note_on,0,0,0,,,,,,,,,0,,,98,0
37439,note_on,359,0,1,,,,,,,,,0,,,32,0
37439,note_on,0,0,1,,,,,,,,,0,,,38,0
37440,note_on,0,0,0,,,,,,,,,0,,,59,96
37440,note_on,1,0,1,,,,,,,,,0,,,31,96
37440,set_tempo,1,1,0,,,,,,461538,,,,,,,
37440,note_on,0,0,1,,,,,,,,,0,,,50,96
37440,note_on,0,0,1,,,,,,,,,0,,,35,96
37440,note_on,0,0,1,,,,,,,,,0,,,38,96
37440,note_on,0,0,1,,,,,,,,,0,,,43,96
37440,note_on,0,0,1,,,,,,,,,0,,,53,96
37441,control_change,1,0,0,,,,,,,64,0,0,,,,
37518,note_on,0,0,1,,,,,,,,,0,,,38,0
37518,note_on,0,0,1,,,,,,,,,0,,,35,0
37518,note_on,0,0,1,,,,,,,,,0,,,43,0
37518,note_on,77,0,0,,,,,,,,,0,,,59,0
37518,note_on,78,0,1,,,,,,,,,0,,,31,0
37518,note_on,0,0,1,,,,,,,,,0,,,50,0
37518,note_on,0,0,1,,,,,,,,,0,,,53,0
37680,note_on,162,0,1,,,,,,,,,0,,,80,115
37680,note_on,162,0,0,,,,,,,,,0,,,92,115
37714,note_on,34,0,0,,,,,,,,,0,,,92,0
37714,note_on,34,0,1,,,,,,,,,0,,,80,0
37733,note_on,19,0,1,,,,,,,,,0,,,79,96
37733,note_on,19,0,0,,,,,,,,,0,,,91,96
37785,note_on,52,0,0,,,,,,,,,0,,,91,0
37785,note_on,52,0,1,,,,,,,,,0,,,79,0
37787,note_on,2,0,0,,,,,,,,,0,,,90,96
37787,note_on,2,0,1,,,,,,,,,0,,,78,96
37839,note_on,52,0,0,,,,,,,,,0,,,90,0
37839,note_on,52,0,1,,,,,,,,,0,,,78,0
37840,note_on,1,0,1,,,,,,,,,0,,,77,96
37840,note_on,1,0,0,,,,,,,,,0,,,89,96
37892,note_on,52,0,0,,,,,,,,,0,,,89,0
37892,note_on,52,0,1,,,,,,,,,0,,,77,0
37893,note_on,1,0,0,,,,,,,,,0,,,88,96
37893,note_on,1,0,1,,,,,,,,,0,,,76,96
37945,note_on,52,0,0,,,,,,,,,0,,,88,0
37945,note_on,52,0,1,,,,,,,,,0,,,76,0
37947,note_on,2,0,1,,,,,,,,,0,,,75,96
37947,note_on,2,0,0,,,,,,,,,0,,,87,96
37999,note_on,52,0,1,,,,,,,,,0,,,75,0
37999,note_on,52,0,0,,,,,,,,,0,,,87,0
38000,note_on,1,0,0,,,,,,,,,0,,,86,96
38000,note_on,1,0,1,,,,,,,,,0,,,74,96
38052,note_on,52,0,0,,,,,,,,,0,,,86,0
38052,note_on,52,0,1,,,,,,,,,0,,,74,0
38053,note_on,1,0,0,,,,,,,,,0,,,85,96
38053,note_on,1,0,1,,,,,,,,,0,,,73,96
38105,note_on,52,0,1,,,,,,,,,0,,,73,0
38105,note_on,52,0,0,,,,,,,,,0,,,85,0
38107,note_on,2,0,0,,,,,,,,,0,,,84,96
38107,note_on,2,0,1,,,,,,,,,0,,,72,96
38156,note_on,49,0,0,,,,,,,,,0,,,84,0
38156,note_on,49,0,1,,,,,,,,,0,,,72,0
38160,note_on,4,0,1,,,,,,,,,0,,,71,96
38160,note_on,4,0,0,,,,,,,,,0,,,83,96
38238,note_on,78,0,0,,,,,,,,,0,,,83,0
38238,note_on,78,0,1,,,,,,,,,0,,,71,0
38400,note_on,162,0,0,,,,,,,,,0,,,80,115
38400,note_on,162,0,1,,,,,,,,,0,,,68,115
38434,note_on,34,0,0,,,,,,,,,0,,,80,0
38434,note_on,34,0,1,,,,,,,,,0,,,68,0
38453,note_on,19,0,1,,,,,,,,,0,,,67,96
38453,note_on,19,0,0,,,,,,,,,0,,,79,96
38505,note_on,52,0,1,,,,,,,,,0,,,67,0
38505,note_on,52,0,0,,,,,,,,,0,,,79,0
38507,note_on,2,0,0,,,,,,,,,0,,,78,96
38507,note_on,2,0,1,,,,,,,,,0,,,66,96
38559,note_on,52,0,1,,,,,,,,,0,,,66,0
38559,note_on,52,0,0,,,,,,,,,0,,,78,0
38560,note_on,1,0,0,,,,,,,,,0,,,77,96
38560,note_on,1,0,1,,,,,,,,,0,,,65,96
38612,note_on,52,0,0,,,,,,,,,0,,,77,0
38612,note_on,52,0,1,,,,,,,,,0,,,65,0
38613,note_on,1,0,0,,,,,,,,,0,,,76,96
38613,note_on,1,0,1,,,,,,,,,0,,,64,96
38665,note_on,52,0,1,,,,,,,,,0,,,64,0
38665,note_on,52,0,0,,,,,,,,,0,,,76,0
38667,note_on,2,0,1,,,,,,,,,0,,,63,96
38667,note_on,2,0,0,,,,,,,,,0,,,75,96
38719,note_on,52,0,0,,,,,,,,,0,,,75,0
38719,note_on,52,0,1,,,,,,,,,0,,,63,0
38720,note_on,1,0,0,,,,,,,,,0,,,74,96
38720,note_on,1,0,1,,,,,,,,,0,,,62,96
38772,note_on,52,0,0,,,,,,,,,0,,,74,0
38772,note_on,52,0,1,,,,,,,,,0,,,62,0
38773,note_on,1,0,0,,,,,,,,,0,,,73,96
38773,note_on,1,0,1,,,,,,,,,0,,,61,96
38825,note_on,52,0,1,,,,,,,,,0,,,61,0
38825,note_on,52,0,0,,,,,,,,,0,,,73,0
38827,note_on,2,0,1,,,,,,,,,0,,,60,96
38827,note_on,2,0,0,,,,,,,,,0,,,72,96
38876,note_on,49,0,0,,,,,,,,,0,,,72,0
38876,note_on,49,0,1,,,,,,,,,0,,,60,0
38880,note_on,4,0,1,,,,,,,,,0,,,59,96
38880,note_on,4,0,0,,,,,,,,,0,,,71,96
38958,note_on,78,0,1,,,,,,,,,0,,,59,0
38958,note_on,78,0,0,,,,,,,,,0,,,71,0
39120,note_on,162,0,1,,,,,,,,,0,,,56,115
39120,note_on,162,0,0,,,,,,,,,0,,,68,115
39154,note_on,34,0,0,,,,,,,,,0,,,68,0
39154,note_on,34,0,1,,,,,,,,,0,,,56,0
39173,note_on,19,0,0,,,,,,,,,0,,,67,96
39173,note_on,19,0,1,,,,,,,,,0,,,55,96
39225,note_on,52,0,1,,,,,,,,,0,,,55,0
39225,note_on,52,0,0,,,,,,,,,0,,,67,0
39227,note_on,2,0,1,,,,,,,,,0,,,54,96
39227,note_on,2,0,0,,,,,,,,,0,,,66,96
39279,note_on,52,0,1,,,,,,,,,0,,,54,0
39279,note_on,52,0,0,,,,,,,,,0,,,66,0
39280,note_on,1,0,0,,,,,,,,,0,,,65,96
39280,note_on,1,0,1,,,,,,,,,0,,,53,96
39332,note_on,52,0,0,,,,,,,,,0,,,65,0
39332,note_on,52,0,1,,,,,,,,,0,,,53,0
39333,note_on,1,0,1,,,,,,,,,0,,,52,96
39333,note_on,1,0,0,,,,,,,,,0,,,64,96
39385,note_on,52,0,0,,,,,,,,,0,,,64,0
39385,note_on,52,0,1,,,,,,,,,0,,,52,0
39387,note_on,2,0,1,,,,,,,,,0,,,51,96
39387,note_on,2,0,0,,,,,,,,,0,,,63,96
39439,note_on,52,0,0,,,,,,,,,0,,,63,0
39439,note_on,52,0,1,,,,,,,,,0,,,51,0
39440,note_on,1,0,0,,,,,,,,,0,,,62,96
39440,note_on,1,0,1,,,,,,,,,0,,,50,96
39492,note_on,52,0,0,,,,,,,,,0,,,62,0
39492,note_on,52,0,1,,,,,,,,,0,,,50,0
39493,note_on,1,0,1,,,,,,,,,0,,,49,96
39493,note_on,1,0,0,,,,,,,,,0,,,61,96
39545,note_on,52,0,0,,,,,,,,,0,,,61,0
39545,note_on,52,0,1,,,,,,,,,0,,,49,0
39547,note_on,2,0,0,,,,,,,,,0,,,60,96
39547,note_on,2,0,1,,,,,,,,,0,,,48,96
39596,note_on,49,0,1,,,,,,,,,0,,,48,0
39596,note_on,49,0,0,,,,,,,,,0,,,60,0
39600,note_on,4,0,1,,,,,,,,,0,,,47,96
39600,note_on,4,0,0,,,,,,,,,0,,,59,96
39678,note_on,78,0,0,,,,,,,,,0,,,59,0
39678,note_on,78,0,1,,,,,,,,,0,,,47,0
39840,note_on,162,0,0,,,,,,,,,0,,,56,115
39840,note_on,162,0,1,,,,,,,,,0,,,44,115
39874,note_on,34,0,1,,,,,,,,,0,,,44,0
39874,note_on,34,0,0,,,,,,,,,0,,,56,0
39893,note_on,19,0,0,,,,,,,,,0,,,55,96
39893,note_on,19,0,1,,,,,,,,,0,,,43,96
39945,note_on,52,0,0,,,,,,,,,0,,,55,0
39945,note_on,52,0,1,,,,,,,,,0,,,43,0
39947,note_on,2,0,0,,,,,,,,,0,,,54,96
39947,note_on,2,0,1,,,,,,,,,0,,,42,96
39999,note_on,52,0,1,,,,,,,,,0,,,42,0
39999,note_on,52,0,0,,,,,,,,,0,,,54,0
40000,note_on,1,0,1,,,,,,,,,0,,,41,96
40000,note_on,1,0,0,,,,,,,,,0,,,53,96
40052,note_on,52,0,0,,,,,,,,,0,,,53,0
40052,note_on,52,0,1,,,,,,,,,0,,,41,0
40053,note_on,1,0,1,,,,,,,,,0,,,40,96
40053,note_on,1,0,0,,,,,,,,,0,,,52,96
40105,note_on,52,0,0,,,,,,,,,0,,,52,0
40105,note_on,52,0,1,,,,,,,,,0,,,40,0
40107,note_on,2,0,0,,,,,,,,,0,,,51,96
40107,note_on,2,0,1,,,,,,,,,0,,,39,96
40159,note_on,52,0,1,,,,,,,,,0,,,39,0
40159,note_on,52,0,0,,,,,,,,,0,,,51,0
40160,note_on,1,0,1,,,,,,,,,0,,,38,96
40160,note_on,1,0,0,,,,,,,,,0,,,50,96
40212,note_on,52,0,0,,,,,,,,,0,,,50,0
40212,note_on,52,0,1,,,,,,,,,0,,,38,0
40213,note_on,1,0,0,,,,,,,,,0,,,49,96
40213,note_on,1,0,1,,,,,,,,,0,,,37,96
40265,note_on,52,0,1,,,,,,,,,0,,,37,0
40265,note_on,52,0,0,,,,,,,,,0,,,49,0
40267,note_on,2,0,1,,,,,,,,,0,,,36,96
40267,note_on,2,0,0,,,,,,,,,0,,,48,96
40316,note_on,49,0,0,,,,,,,,,0,,,48,0
40316,note_on,49,0,1,,,,,,,,,0,,,36,0
40320,note_on,0,0,0,,,,,,,,,0,,,47,96
40320,set_tempo,0,1,0,,,,,,545456,,,,,,,
40320,time_signature,4,1,0,4,8,24,8,,,,,,,,,
40320,note_on,4,0,1,,,,,,,,,0,,,35,96
40372,note_on,52,0,0,,,,,,,,,0,,,47,0
40372,note_on,52,0,1,,,,,,,,,0,,,35,0
40373,note_on,1,0,0,,,,,,,,,0,,,48,99
40373,note_on,1,0,1,,,,,,,,,0,,,36,99
40425,note_on,52,0,0,,,,,,,,,0,,,48,0
40425,note_on,52,0,1,,,,,,,,,0,,,36,0
40427,note_on,2,0,0,,,,,,,,,0,,,49,103
40427,note_on,2,0,1,,,,,,,,,0,,,37,103
40479,note_on,52,0,1,,,,,,,,,0,,,37,0
40479,note_on,52,0,0,,,,,,,,,0,,,49,0
40480,note_on,1,0,0,,,,,,,,,0,,,50,107
40480,note_on,1,0,1,,,,,,,,,0,,,38,107
40532,note_on,52,0,1,,,,,,,,,0,,,38,0
40532,note_on,52,0,0,,,,,,,,,0,,,50,0
40533,note_on,1,0,0,,,,,,,,,0,,,51,110
40533,note_on,1,0,1,,,,,,,,,0,,,39,110
40585,note_on,52,0,0,,,,,,,,,0,,,51,0
40585,note_on,52,0,1,,,,,,,,,0,,,39,0
40587,note_on,2,0,1,,,,,,,,,0,,,40,114
40587,note_on,2,0,0,,,,,,,,,0,,,52,114
40639,note_on,52,0,1,,,,,,,,,0,,,40,0
40639,note_on,52,0,0,,,,,,,,,0,,,52,0
40640,note_on,1,0,1,,,,,,,,,0,,,41,118
40640,note_on,1,0,0,,,,,,,,,0,,,53,118
40692,note_on,52,0,1,,,,,,,,,0,,,41,0
40692,note_on,52,0,0,,,,,,,,,0,,,53,0
40693,note_on,1,0,1,,,,,,,,,0,,,42,122
40693,note_on,1,0,0,,,,,,,,,0,,,54,122
40745,note_on,52,0,1,,,,,,,,,0,,,42,0
40745,note_on,52,0,0,,,,,,,,,0,,,54,0
40747,note_on,2,0,1,,,,,,,,,0,,,43,126
40747,note_on,2,0,0,,,,,,,,,0,,,55,126
40799,note_on,52,0,0,,,,,,,,,0,,,55,0
40799,note_on,52,0,1,,,,,,,,,0,,,43,0
40800,note_on,1,0,1,,,,,,,,,0,,,44,126
40800,set_tempo,1,1,0,,,,,,599999,,,,,,,
40800,note_on,0,0,0,,,,,,,,,0,,,56,126
40852,note_on,52,0,1,,,,,,,,,0,,,44,0
40852,note_on,52,0,0,,,,,,,,,0,,,56,0
40853,note_on,1,0,0,,,,,,,,,0,,,55,123
40853,note_on,1,0,1,,,,,,,,,0,,,43,123
40905,note_on,52,0,1,,,,,,,,,0,,,43,0
40905,note_on,52,0,0,,,,,,,,,0,,,55,0
40907,note_on,2,0,1,,,,,,,,,0,,,42,120
40907,note_on,2,0,0,,,,,,,,,0,,,54,120
40959,note_on,52,0,1,,,,,,,,,0,,,42,0
40959,note_on,52,0,0,,,,,,,,,0,,,54,0
40960,note_on,1,0,1,,,,,,,,,0,,,41,116
40960,note_on,1,0,0,,,,,,,,,0,,,53,116
41012,note_on,52,0,1,,,,,,,,,0,,,41,0
41012,note_on,52,0,0,,,,,,,,,0,,,53,0
41013,note_on,1,0,1,,,,,,,,,0,,,40,113
41013,note_on,1,0,0,,,,,,,,,0,,,52,113
41065,note_on,52,0,0,,,,,,,,,0,,,52,0
41065,note_on,52,0,1,,,,,,,,,0,,,40,0
41067,note_on,2,0,0,,,,,,,,,0,,,51,110
41067,note_on,2,0,1,,,,,,,,,0,,,39,110
41119,note_on,52,0,0,,,,,,,,,0,,,51,0
41119,note_on,52,0,1,,,,,,,,,0,,,39,0
41120,note_on,1,0,1,,,,,,,,,0,,,38,106
41120,note_on,1,0,0,,,,,,,,,0,,,50,106
41172,note_on,52,0,1,,,,,,,,,0,,,38,0
41172,note_on,52,0,0,,,,,,,,,0,,,50,0
41173,note_on,1,0,0,,,,,,,,,0,,,49,103
41173,note_on,1,0,1,,,,,,,,,0,,,37,103
41225,note_on,52,0,1,,,,,,,,,0,,,37,0
41225,note_on,52,0,0,,,,,,,,,0,,,49,0
41227,note_on,2,0,1,,,,,,,,,0,,,36,100
41227,note_on,2,0,0,,,,,,,,,0,,,48,100
41276,note_on,49,0,1,,,,,,,,,0,,,36,0
41276,note_on,49,0,0,,,,,,,,,0,,,48,0
41280,time_signature,4,1,0,6,8,24,8,,,,,,,,,
41280,note_on,4,0,1,,,,,,,,,0,,,35,70
41280,note_on,0,0,0,,,,,,,,,0,,,47,70
41507,note_on,227,0,0,,,,,,,,,0,,,47,0
41507,note_on,227,0,1,,,,,,,,,0,,,35,0
42000,note_on,493,0,0,,,,,,,,,0,,,55,70
42000,note_on,493,0,1,,,,,,,,,0,,,43,70
42227,note_on,227,0,1,,,,,,,,,0,,,43,0
42227,note_on,227,0,0,,,,,,,,,0,,,55,0
42240,set_tempo,13,1,0,,,,,,428572,,,,,,,
44160,note_on,1933,0,1,,,,,,,,,0,,,36,112
44280,note_on,2040,0,0,,,,,,,,,0,,,48,112
44282,control_change,2,0,0,,,,,,,64,127,0,,,,
44387,note_on,227,0,1,,,,,,,,,0,,,36,0
44393,note_on,111,0,0,,,,,,,,,0,,,48,0
44400,note_on,13,0,1,,,,,,,,,0,,,43,112
44520,note_on,127,0,0,,,,,,,,,0,,,55,112
44627,note_on,227,0,1,,,,,,,,,0,,,43,0
44633,note_on,113,0,0,,,,,,,,,0,,,55,0
44640,note_on,13,0,1,,,,,,,,,0,,,41,112
44760,note_on,127,0,0,,,,,,,,,0,,,53,112
44867,note_on,227,0,1,,,,,,,,,0,,,41,0
44873,note_on,113,0,0,,,,,,,,,0,,,53,0
44880,note_on,13,0,1,,,,,,,,,0,,,39,112
45000,note_on,127,0,0,,,,,,,,,0,,,51,112
45107,note_on,227,0,1,,,,,,,,,0,,,39,0
45113,note_on,113,0,0,,,,,,,,,0,,,51,0
45120,note_on,13,0,1,,,,,,,,,0,,,38,112
45240,note_on,127,0,0,,,,,,,,,0,,,50,112
45347,note_on,227,0,1,,,,,,,,,0,,,38,0
45353,note_on,113,0,0,,,,,,,,,0,,,50,0
45360,note_on,13,0,1,,,,,,,,,0,,,36,112
45480,note_on,127,0,0,,,,,,,,,0,,,48,112
45587,note_on,227,0,1,,,,,,,,,0,,,36,0
45593,note_on,113,0,0,,,,,,,,,0,,,48,0
45600,note_on,0,0,1,,,,,,,,,0,,,60,112
45600,note_on,13,0,1,,,,,,,,,0,,,48,112
45600,note_on,0,0,1,,,,,,,,,0,,,55,112
45600,note_on,7,0,0,,,,,,,,,0,,,72,112
45600,note_on,0,0,0,,,,,,,,,0,,,75,112
45600,note_on,0,0,1,,,,,,,,,0,,,51,112
45600,note_on,0,0,0,,,,,,,,,0,,,84,112
45678,note_on,0,0,0,,,,,,,,,0,,,75,0
45678,note_on,0,0,1,,,,,,,,,0,,,51,0
45678,note_on,0,0,1,,,,,,,,,0,,,55,0
45678,note_on,0,0,1,,,,,,,,,0,,,60,0
45678,note_on,78,0,0,,,,,,,,,0,,,72,0
45678,note_on,78,0,1,,,,,,,,,0,,,48,0
45678,note_on,0,0,0,,,,,,,,,0,,,84,0
45960,note_on,0,0,0,,,,,,,,,0,,,75,112
45960,note_on,0,0,1,,,,,,,,,0,,,60,112
45960,note_on,0,0,1,,,,,,,,,0,,,55,112
45960,note_on,0,0,1,,,,,,,,,0,,,51,112
45960,note_on,282,0,1,,,,,,,,,0,,,48,112
45960,note_on,282,0,0,,,,,,,,,0,,,67,112
45960,note_on,0,0,0,,,,,,,,,0,,,79,112
45960,note_on,0,0,0,,,,,,,,,0,,,72,112
45998,note_on,0,0,0,,,,,,,,,0,,,72,0
45998,note_on,0,0,1,,,,,,,,,0,,,60,0
45998,note_on,0,0,1,,,,,,,,,0,,,55,0
45998,note_on,0,0,0,,,,,,,,,0,,,79,0
45998,note_on,0,0,1,,,,,,,,,0,,,51,0
45998,note_on,0,0,0,,,,,,,,,0,,,75,0
45998,note_on,38,0,1,,,,,,,,,0,,,48,0
45998,note_on,38,0,0,,,,,,,,,0,,,67,0
46080,note_on,82,0,1,,,,,,,,,0,,,48,112
46080,note_on,0,0,1,,,,,,,,,0,,,60,112
46080,note_on,0,0,0,,,,,,,,,0,,,72,112
46080,note_on,0,0,1,,,,,,,,,0,,,55,112
46080,note_on,0,0,1,,,,,,,,,0,,,51,112
46080,note_on,0,0,0,,,,,,,,,0,,,75,112
46080,note_on,82,0,0,,,,,,,,,0,,,67,112
46080,note_on,0,0,0,,,,,,,,,0,,,79,112
46158,note_on,0,0,0,,,,,,,,,0,,,75,0
46158,note_on,0,0,1,,,,,,,,,0,,,60,0
46158,note_on,0,0,1,,,,,,,,,0,,,55,0
46158,note_on,0,0,1,,,,,,,,,0,,,51,0
46158,note_on,78,0,1,,,,,,,,,0,,,48,0
46158,note_on,0,0,0,,,,,,,,,0,,,79,0
46158,note_on,78,0,0,,,,,,,,,0,,,67,0
46158,note_on,0,0,0,,,,,,,,,0,,,72,0
46680,note_on,0,0,0,,,,,,,,,0,,,75,112
46680,note_on,0,0,1,,,,,,,,,0,,,60,112
46680,note_on,522,0,1,,,,,,,,,0,,,48,112
46680,note_on,0,0,0,,,,,,,,,0,,,67,112
46680,note_on,522,0,0,,,,,,,,,0,,,63,112
46680,note_on,0,0,1,,,,,,,,,0,,,51,112
46680,note_on,0,0,1,,,,,,,,,0,,,55,112
46718,note_on,38,0,1,,,,,,,,,0,,,48,0
46718,note_on,0,0,0,,,,,,,,,0,,,67,0
46718,note_on,0,0,1,,,,,,,,,0,,,60,0
46718,note_on,0,0,1,,,,,,,,,0,,,51,0
46718,note_on,38,0,0,,,,,,,,,0,,,63,0
46718,note_on,0,0,1,,,,,,,,,0,,,55,0
46718,note_on,0,0,0,,,,,,,,,0,,,75,0
46800,note_on,82,0,0,,,,,,,,,0,,,63,112
46800,note_on,0,0,1,,,,,,,,,0,,,51,112
46800,note_on,0,0,1,,,,,,,,,0,,,55,112
46800,note_on,0,0,1,,,,,,,,,0,,,60,112
46800,note_on,82,0,1,,,,,,,,,0,,,48,112
46800,note_on,0,0,0,,,,,,,,,0,,,67,112
46800,note_on,0,0,0,,,,,,,,,0,,,75,112
46878,note_on,78,0,0,,,,,,,,,0,,,63,0
46878,note_on,0,0,0,,,,,,,,,0,,,67,0
46878,note_on,0,0,1,,,,,,,,,0,,,60,0
46878,note_on,0,0,1,,,,,,,,,0,,,55,0
46878,note_on,0,0,1,,,,,,,,,0,,,51,0
46878,note_on,78,0,1,,,,,,,,,0,,,48,0
46878,note_on,0,0,0,,,,,,,,,0,,,75,0
47400,note_on,522,0,0,,,,,,,,,0,,,63,112
47400,note_on,0,0,0,,,,,,,,,0,,,72,112
47400,note_on,522,0,1,,,,,,,,,0,,,48,112
47400,note_on,0,0,1,,,,,,,,,0,,,60,112
47400,note_on,0,0,1,,,,,,,,,0,,,55,112
47400,note_on,0,0,1,,,,,,,,,0,,,51,112
47400,note_on,0,0,0,,,,,,,,,0,,,67,112
47438,note_on,38,0,0,,,,,,,,,0,,,63,0
47438,note_on,0,0,0,,,,,,,,,0,,,72,0
47438,note_on,38,0,1,,,,,,,,,0,,,48,0
47438,note_on,0,0,0,,,,,,,,,0,,,67,0
47438,note_on,0,0,1,,,,,,,,,0,,,51,0
47438,note_on,0,0,1,,,,,,,,,0,,,55,0
47438,note_on,0,0,1,,,,,,,,,0,,,60,0
47520,note_on,0,0,0,,,,,,,,,0,,,72,112
47520,note_on,0,0,1,,,,,,,,,0,,,51,112
47520,note_on,0,0,0,,,,,,,,,0,,,67,112
47520,note_on,0,0,1,,,,,,,,,0,,,55,112
47520,note_on,0,0,1,,,,,,,,,0,,,60,112
47520,note_on,82,0,0,,,,,,,,,0,,,63,112
47520,note_on,82,0,1,,,,,,,,,0,,,48,112
47598,note_on,0,0,0,,,,,,,,,0,,,67,0
47598,note_on,0,0,0,,,,,,,,,0,,,72,0
47598,note_on,78,0,1,,,,,,,,,0,,,48,0
47598,note_on,78,0,0,,,,,,,,,0,,,63,0
47598,note_on,0,0,1,,,,,,,,,0,,,55,0
47598,note_on,0,0,1,,,,,,,,,0,,,60,0
47598,note_on,0,0,1,,,,,,,,,0,,,51,0
47760,note_on,0,0,1,,,,,,,,,0,,,55,112
47760,note_on,0,0,1,,,,,,,,,0,,,51,112
47760,note_on,0,0,1,,,,,,,,,0,,,59,112
47760,note_on,0,0,0,,,,,,,,,0,,,71,112
47760,note_on,162,0,0,,,,,,,,,0,,,63,112
47760,note_on,162,0,1,,,,,,,,,0,,,48,112
47760,note_on,0,0,0,,,,,,,,,0,,,67,112
47838,note_on,0,0,0,,,,,,,,,0,,,67,0
47838,note_on,0,0,0,,,,,,,,,0,,,71,0
47838,note_on,0,0,1,,,,,,,,,0,,,51,0
47838,note_on,0,0,1,,,,,,,,,0,,,55,0
47838,note_on,0,0,1,,,,,,,,,0,,,59,0
47838,note_on,78,0,0,,,,,,,,,0,,,63,0
47838,note_on,78,0,1,,,,,,,,,0,,,48,0
48000,note_on,162,0,1,,,,,,,,,0,,,48,112
48000,note_on,0,0,0,,,,,,,,,0,,,72,112
48000,note_on,0,0,0,,,,,,,,,0,,,67,112
48000,note_on,0,0,1,,,,,,,,,0,,,60,112
48000,note_on,0,0,1,,,,,,,,,0,,,55,112
48000,note_on,0,0,1,,,,,,,,,0,,,51,112
48000,note_on,162,0,0,,,,,,,,,0,,,63,112
48001,control_change,1,0,0,,,,,,,64,0,0,,,,
48078,note_on,77,0,0,,,,,,,,,0,,,63,0
48078,note_on,0,0,0,,,,,,,,,0,,,72,0
48078,note_on,78,0,1,,,,,,,,,0,,,48,0
48078,note_on,0,0,1,,,,,,,,,0,,,60,0
48078,note_on,0,0,1,,,,,,,,,0,,,55,0
48078,note_on,0,0,1,,,,,,,,,0,,,51,0
48078,note_on,0,0,0,,,,,,,,,0,,,67,0
48480,note_on,0,0,1,,,,,,,,,0,,,37,112
48480,note_on,402,0,1,,,,,,,,,0,,,35,112
48600,note_on,522,0,0,,,,,,,,,0,,,49,112
48602,control_change,2,0,0,,,,,,,64,127,0,,,,
48707,note_on,0,0,1,,,,,,,,,0,,,37,0
48707,note_on,227,0,1,,,,,,,,,0,,,35,0
48713,note_on,111,0,0,,,,,,,,,0,,,49,0
48720,note_on,13,0,1,,,,,,,,,0,,,44,112
48840,note_on,127,0,0,,,,,,,,,0,,,56,112
48947,note_on,227,0,1,,,,,,,,,0,,,44,0
48953,note_on,113,0,0,,,,,,,,,0,,,56,0
48960,note_on,13,0,1,,,,,,,,,0,,,42,112
49080,note_on,127,0,0,,,,,,,,,0,,,54,112
49187,note_on,227,0,1,,,,,,,,,0,,,42,0
49193,note_on,113,0,0,,,,,,,,,0,,,54,0
49200,note_on,13,0,1,,,,,,,,,0,,,41,112
49320,note_on,127,0,0,,,,,,,,,0,,,53,112
49427,note_on,227,0,1,,,,,,,,,0,,,41,0
49433,note_on,113,0,0,,,,,,,,,0,,,53,0
49440,note_on,13,0,1,,,,,,,,,0,,,39,112
49560,note_on,127,0,0,,,,,,,,,0,,,51,112
49667,note_on,227,0,1,,,,,,,,,0,,,39,0
49673,note_on,113,0,0,,,,,,,,,0,,,51,0
49680,note_on,13,0,1,,,,,,,,,0,,,37,112
49800,note_on,127,0,0,,,,,,,,,0,,,49,112
49907,note_on,227,0,1,,,,,,,,,0,,,37,0
49913,note_on,113,0,0,,,,,,,,,0,,,49,0
49920,note_on,0,0,0,,,,,,,,,0,,,85,112
49920,note_on,0,0,0,,,,,,,,,0,,,77,112
49920,note_on,0,0,1,,,,,,,,,0,,,61,112
49920,note_on,7,0,0,,,,,,,,,0,,,73,112
49920,note_on,13,0,1,,,,,,,,,0,,,47,112
49920,note_on,0,0,1,,,,,,,,,0,,,56,112
49920,note_on,0,0,1,,,,,,,,,0,,,53,112
49998,note_on,0,0,1,,,,,,,,,0,,,61,0
49998,note_on,0,0,1,,,,,,,,,0,,,56,0
49998,note_on,78,0,1,,,,,,,,,0,,,47,0
49998,note_on,0,0,1,,,,,,,,,0,,,53,0
49998,note_on,78,0,0,,,,,,,,,0,,,73,0
49998,note_on,0,0,0,,,,,,,,,0,,,77,0
49998,note_on,0,0,0,,,,,,,,,0,,,85,0
50280,note_on,0,0,1,,,,,,,,,0,,,56,112
50280,note_on,282,0,1,,,,,,,,,0,,,47,112
50280,note_on,0,0,1,,,,,,,,,0,,,53,112
50280,note_on,0,0,0,,,,,,,,,0,,,73,112
50280,note_on,0,0,0,,,,,,,,,0,,,80,112
50280,note_on,282,0,0,,,,,,,,,0,,,68,112
50318,note_on,0,0,0,,,,,,,,,0,,,80,0
50318,note_on,38,0,1,,,,,,,,,0,,,47,0
50318,note_on,0,0,1,,,,,,,,,0,,,53,0
50318,note_on,0,0,1,,,,,,,,,0,,,56,0
50318,note_on,0,0,0,,,,,,,,,0,,,73,0
50318,note_on,38,0,0,,,,,,,,,0,,,68,0
50400,note_on,82,0,1,,,,,,,,,0,,,47,112
50400,note_on,0,0,1,,,,,,,,,0,,,53,112
50400,note_on,0,0,1,,,,,,,,,0,,,56,112
50400,note_on,82,0,0,,,,,,,,,0,,,68,112
50400,note_on,0,0,0,,,,,,,,,0,,,80,112
50400,note_on,0,0,0,,,,,,,,,0,,,73,112
50478,note_on,78,0,0,,,,,,,,,0,,,68,0
50478,note_on,0,0,1,,,,,,,,,0,,,56,0
50478,note_on,0,0,1,,,,,,,,,0,,,53,0
50478,note_on,0,0,0,,,,,,,,,0,,,80,0
50478,note_on,0,0,0,,,,,,,,,0,,,73,0
50478,note_on,78,0,1,,,,,,,,,0,,,47,0
51000,note_on,0,0,0,,,,,,,,,0,,,77,112
51000,note_on,0,0,1,,,,,,,,,0,,,61,112
51000,note_on,0,0,0,,,,,,,,,0,,,68,112
51000,note_on,522,0,0,,,,,,,,,0,,,65,112
51000,note_on,522,0,1,,,,,,,,,0,,,53,112
51000,note_on,0,0,1,,,,,,,,,0,,,56,112
51038,note_on,38,0,0,,,,,,,,,0,,,65,0
51038,note_on,38,0,1,,,,,,,,,0,,,53,0
51038,note_on,0,0,1,,,,,,,,,0,,,56,0
51038,note_on,0,0,1,,,,,,,,,0,,,61,0
51038,note_on,0,0,0,,,,,,,,,0,,,68,0
51038,note_on,0,0,0,,,,,,,,,0,,,77,0
51120,note_on,0,0,1,,,,,,,,,0,,,56,112
51120,note_on,0,0,1,,,,,,,,,0,,,61,112
51120,note_on,82,0,1,,,,,,,,,0,,,53,112
51120,note_on,0,0,0,,,,,,,,,0,,,68,112
51120,note_on,0,0,0,,,,,,,,,0,,,77,112
51120,note_on,82,0,0,,,,,,,,,0,,,65,112
51198,note_on,78,0,0,,,,,,,,,0,,,65,0
51198,note_on,0,0,1,,,,,,,,,0,,,56,0
51198,note_on,0,0,1,,,,,,,,,0,,,61,0
51198,note_on,0,0,0,,,,,,,,,0,,,68,0
51198,note_on,0,0,0,,,,,,,,,0,,,77,0
51198,note_on,78,0,1,,,,,,,,,0,,,53,0
51720,note_on,0,0,1,,,,,,,,,0,,,56,112
51720,note_on,522,0,0,,,,,,,,,0,,,61,112
51720,note_on,0,0,0,,,,,,,,,0,,,68,112
51720,note_on,0,0,0,,,,,,,,,0,,,73,112
51720,note_on,522,0,1,,,,,,,,,0,,,47,112
51720,note_on,0,0,1,,,,,,,,,0,,,53,112
51758,note_on,0,0,0,,,,,,,,,0,,,68,0
51758,note_on,0,0,0,,,,,,,,,0,,,73,0
51758,note_on,38,0,0,,,,,,,,,0,,,61,0
51758,note_on,0,0,1,,,,,,,,,0,,,56,0
51758,note_on,0,0,1,,,,,,,,,0,,,53,0
51758,note_on,38,0,1,,,,,,,,,0,,,47,0
51840,note_on,0,0,1,,,,,,,,,0,,,56,112
51840,note_on,0,0,1,,,,,,,,,0,,,53,112
51840,note_on,82,0,1,,,,,,,,,0,,,47,112
51840,note_on,0,0,0,,,,,,,,,0,,,73,112
51840,note_on,0,0,0,,,,,,,,,0,,,68,112
51840,note_on,82,0,0,,,,,,,,,0,,,61,112
51918,note_on,78,0,0,,,,,,,,,0,,,61,0
51918,note_on,0,0,1,,,,,,,,,0,,,53,0
51918,note_on,0,0,1,,,,,,,,,0,,,56,0
51918,note_on,78,0,1,,,,,,,,,0,,,47,0
51918,note_on,0,0,0,,,,,,,,,0,,,68,0
51918,note_on,0,0,0,,,,,,,,,0,,,73,0
52080,note_on,0,0,1,,,,,,,,,0,,,52,112
52080,note_on,162,0,1,,,,,,,,,0,,,47,112
52080,note_on,162,0,0,,,,,,,,,0,,,60,112
52080,note_on,0,0,0,,,,,,,,,0,,,68,112
52080,note_on,0,0,0,,,,,,,,,0,,,72,112
52080,note_on,0,0,1,,,,,,,,,0,,,56,112
52158,note_on,0,0,0,,,,,,,,,0,,,68,0
52158,note_on,78,0,1,,,,,,,,,0,,,47,0
52158,note_on,0,0,1,,,,,,,,,0,,,56,0
52158,note_on,0,0,1,,,,,,,,,0,,,52,0
52158,note_on,0,0,0,,,,,,,,,0,,,72,0
52158,note_on,78,0,0,,,,,,,,,0,,,60,0
52320,note_on,0,0,0,,,,,,,,,0,,,68,112
52320,note_on,0,0,0,,,,,,,,,0,,,73,112
52320,note_on,0,0,1,,,,,,,,,0,,,56,112
52320,note_on,0,0,1,,,,,,,,,0,,,53,112
52320,note_on,162,0,0,,,,,,,,,0,,,61,112
52320,note_on,162,0,1,,,,,,,,,0,,,47,112
52321,control_change,1,0,0,,,,,,,64,0,0,,,,
52398,note_on,77,0,0,,,,,,,,,0,,,61,0
52398,note_on,0,0,0,,,,,,,,,0,,,68,0
52398,note_on,78,0,1,,,,,,,,,0,,,47,0
52398,note_on,0,0,1,,,,,,,,,0,,,53,0
52398,note_on,0,0,1,,,,,,,,,0,,,56,0
52398,note_on,0,0,0,,,,,,,,,0,,,73,0
53040,note_on,642,0,0,,,,,,,,,0,,,62,112
53040,note_on,0,0,0,,,,,,,,,0,,,74,112
53040,note_on,642,0,1,,,,,,,,,0,,,34,112
53040,note_on,0,0,1,,,,,,,,,0,,,41,112
53040,note_on,0,0,1,,,,,,,,,0,,,46,112
53040,note_on,0,0,0,,,,,,,,,0,,,68,112
53042,control_change,2,0,0,,,,,,,64,127,0,,,,
53118,note_on,0,0,1,,,,,,,,,0,,,41,0
53118,note_on,0,0,1,,,,,,,,,0,,,46,0
53118,note_on,0,0,0,,,,,,,,,0,,,74,0
53118,note_on,78,0,1,,,,,,,,,0,,,34,0
53118,note_on,0,0,0,,,,,,,,,0,,,68,0
53118,note_on,76,0,0,,,,,,,,,0,,,62,0
53280,note_on,162,0,0,,,,,,,,,0,,,58,112
53280,note_on,162,0,1,,,,,,,,,0,,,46,112
53339,note_on,59,0,0,,,,,,,,,0,,,58,0
53339,note_on,59,0,1,,,,,,,,,0,,,46,0
53340,note_on,1,0,0,,,,,,,,,0,,,60,112
53340,note_on,1,0,1,,,,,,,,,0,,,48,112
53399,note_on,59,0,0,,,,,,,,,0,,,60,0
53399,note_on,59,0,1,,,,,,,,,0,,,48,0
53400,note_on,1,0,0,,,,,,,,,0,,,62,112
53400,note_on,1,0,1,,,,,,,,,0,,,50,112
53459,note_on,59,0,0,,,,,,,,,0,,,62,0
53459,note_on,59,0,1,,,,,,,,,0,,,50,0
53460,note_on,1,0,1,,,,,,,,,0,,,51,112
53460,note_on,1,0,0,,,,,,,,,0,,,63,112
53516,note_on,56,0,0,,,,,,,,,0,,,63,0
53516,note_on,56,0,1,,,,,,,,,0,,,51,0
53520,note_on,4,0,0,,,,,,,,,0,,,65,112
53520,note_on,4,0,1,,,,,,,,,0,,,53,112
53598,note_on,78,0,1,,,,,,,,,0,,,53,0
53598,note_on,78,0,0,,,,,,,,,0,,,65,0
53760,note_on,0,0,0,,,,,,,,,0,,,66,112
53760,note_on,162,0,0,,,,,,,,,0,,,63,112
53760,note_on,162,0,1,,,,,,,,,0,,,34,112
53760,note_on,0,0,1,,,,,,,,,0,,,46,112
53760,note_on,0,0,1,,,,,,,,,0,,,42,112
53760,note_on,0,0,0,,,,,,,,,0,,,75,112
53761,control_change,1,0,0,,,,,,,64,0,0,,,,
53838,note_on,77,0,0,,,,,,,,,0,,,63,0
53838,note_on,78,0,1,,,,,,,,,0,,,34,0
53838,note_on,0,0,1,,,,,,,,,0,,,46,0
53838,note_on,0,0,1,,,,,,,,,0,,,42,0
53838,note_on,0,0,0,,,,,,,,,0,,,66,0
53838,note_on,0,0,0,,,,,,,,,0,,,75,0
54000,note_on,0,0,0,,,,,,,,,0,,,78,112
54000,note_on,0,0,0,,,,,,,,,0,,,70,112
54000,note_on,0,0,1,,,,,,,,,0,,,46,112
54000,note_on,162,0,0,,,,,,,,,0,,,66,112
54000,note_on,162,0,1,,,,,,,,,0,,,34,112
54000,note_on,0,0,1,,,,,,,,,0,,,39,112
54078,note_on,0,0,0,,,,,,,,,0,,,70,0
54078,note_on,0,0,0,,,,,,,,,0,,,78,0
54078,note_on,78,0,1,,,,,,,,,0,,,34,0
54078,note_on,78,0,0,,,,,,,,,0,,,66,0
54078,note_on,0,0,1,,,,,,,,,0,,,46,0
54078,note_on,0,0,1,,,,,,,,,0,,,39,0
54240,note_on,0,0,1,,,,,,,,,0,,,46,112
54240,note_on,0,0,1,,,,,,,,,0,,,41,112
54240,note_on,0,0,0,,,,,,,,,0,,,82,112
54240,note_on,162,0,1,,,,,,,,,0,,,34,112
54240,note_on,0,0,0,,,,,,,,,0,,,74,112
54240,note_on,162,0,0,,,,,,,,,0,,,70,112
54242,control_change,2,0,0,,,,,,,64,127,0,,,,
54318,note_on,78,0,1,,,,,,,,,0,,,34,0
54318,note_on,76,0,0,,,,,,,,,0,,,70,0
54318,note_on,0,0,1,,,,,,,,,0,,,46,0
54318,note_on,0,0,0,,,,,,,,,0,,,74,0
54318,note_on,0,0,0,,,,,,,,,0,,,82,0
54318,note_on,0,0,1,,,,,,,,,0,,,41,0
54480,note_on,162,0,0,,,,,,,,,0,,,65,112
54480,note_on,162,0,1,,,,,,,,,0,,,53,112
54539,note_on,59,0,1,,,,,,,,,0,,,53,0
54539,note_on,59,0,0,,,,,,,,,0,,,65,0
54540,note_on,1,0,1,,,,,,,,,0,,,51,112
54540,note_on,1,0,0,,,,,,,,,0,,,63,112
54599,note_on,59,0,1,,,,,,,,,0,,,51,0
54599,note_on,59,0,0,,,,,,,,,0,,,63,0
54600,note_on,1,0,0,,,,,,,,,0,,,62,112
54600,note_on,1,0,1,,,,,,,,,0,,,50,112
54659,note_on,59,0,1,,,,,,,,,0,,,50,0
54659,note_on,59,0,0,,,,,,,,,0,,,62,0
54660,note_on,1,0,0,,,,,,,,,0,,,60,112
54660,note_on,1,0,1,,,,,,,,,0,,,48,112
54716,note_on,56,0,1,,,,,,,,,0,,,48,0
54716,note_on,56,0,0,,,,,,,,,0,,,60,0
54720,note_on,4,0,1,,,,,,,,,0,,,46,112
54720,note_on,4,0,0,,,,,,,,,0,,,58,112
54798,note_on,78,0,0,,,,,,,,,0,,,58,0
54798,note_on,78,0,1,,,,,,,,,0,,,46,0
54960,note_on,0,0,1,,,,,,,,,0,,,45,112
54960,note_on,0,0,1,,,,,,,,,0,,,42,112
54960,note_on,0,0,0,,,,,,,,,0,,,75,112
54960,note_on,162,0,1,,,,,,,,,0,,,33,112
54960,note_on,162,0,0,,,,,,,,,0,,,71,112
54960,note_on,0,0,0,,,,,,,,,0,,,83,112
54961,control_change,1,0,0,,,,,,,64,0,0,,,,
55038,note_on,78,0,1,,,,,,,,,0,,,33,0
55038,note_on,0,0,0,,,,,,,,,0,,,83,0
55038,note_on,77,0,0,,,,,,,,,0,,,71,0
55038,note_on,0,0,1,,,,,,,,,0,,,45,0
55038,note_on,0,0,1,,,,,,,,,0,,,42,0
55038,note_on,0,0,0,,,,,,,,,0,,,75,0
55200,note_on,0,0,1,,,,,,,,,0,,,45,112
55200,note_on,0,0,1,,,,,,,,,0,,,42,112
55200,note_on,0,0,0,,,,,,,,,0,,,87,112
55200,note_on,162,0,1,,,,,,,,,0,,,33,112
55200,note_on,162,0,0,,,,,,,,,0,,,75,112
55200,note_on,0,0,0,,,,,,,,,0,,,83,112
55278,note_on,78,0,1,,,,,,,,,0,,,33,0
55278,note_on,0,0,1,,,,,,,,,0,,,42,0
55278,note_on,0,0,1,,,,,,,,,0,,,45,0
55278,note_on,78,0,0,,,,,,,,,0,,,75,0
55278,note_on,0,0,0,,,,,,,,,0,,,87,0
55278,note_on,0,0,0,,,,,,,,,0,,,83,0
55440,note_on,162,0,1,,,,,,,,,0,,,32,112
55440,note_on,0,0,0,,,,,,,,,0,,,83,112
55440,note_on,0,0,0,,,,,,,,,0,,,88,112
55440,note_on,0,0,1,,,,,,,,,0,,,44,112
55440,note_on,162,0,0,,,,,,,,,0,,,76,112
55440,note_on,0,0,1,,,,,,,,,0,,,40,112
55518,note_on,0,0,1,,,,,,,,,0,,,44,0
55518,note_on,78,0,1,,,,,,,,,0,,,32,0
55518,note_on,0,0,1,,,,,,,,,0,,,40,0
55518,note_on,0,0,0,,,,,,,,,0,,,88,0
55518,note_on,78,0,0,,,,,,,,,0,,,76,0
55518,note_on,0,0,0,,,,,,,,,0,,,83,0
55680,note_on,162,0,1,,,,,,,,,0,,,52,112
55680,note_on,162,0,0,,,,,,,,,0,,,64,112
55682,control_change,2,0,0,,,,,,,64,127,0,,,,
55739,note_on,57,0,0,,,,,,,,,0,,,64,0
55739,note_on,59,0,1,,,,,,,,,0,,,52,0
55740,note_on,1,0,1,,,,,,,,,0,,,54,112
55740,note_on,1,0,0,,,,,,,,,0,,,66,112
55799,note_on,59,0,0,,,,,,,,,0,,,66,0
55799,note_on,59,0,1,,,,,,,,,0,,,54,0
55800,note_on,1,0,1,,,,,,,,,0,,,56,112
55800,note_on,1,0,0,,,,,,,,,0,,,68,112
55859,note_on,59,0,1,,,,,,,,,0,,,56,0
55859,note_on,59,0,0,,,,,,,,,0,,,68,0
55860,note_on,1,0,0,,,,,,,,,0,,,69,112
55860,note_on,1,0,1,,,,,,,,,0,,,57,112
55916,note_on,56,0,0,,,,,,,,,0,,,69,0
55916,note_on,56,0,1,,,,,,,,,0,,,57,0
55920,note_on,4,0,1,,,,,,,,,0,,,59,112
55920,note_on,4,0,0,,,,,,,,,0,,,71,112
55998,note_on,78,0,0,,,,,,,,,0,,,71,0
55998,note_on,78,0,1,,,,,,,,,0,,,59,0
56160,note_on,0,0,1,,,,,,,,,0,,,42,112
56160,note_on,162,0,0,,,,,,,,,0,,,75,112
56160,note_on,0,0,0,,,,,,,,,0,,,87,112
56160,note_on,0,0,0,,,,,,,,,0,,,84,112
56160,note_on,0,0,1,,,,,,,,,0,,,45,112
56160,note_on,162,0,1,,,,,,,,,0,,,33,112
56161,control_change,1,0,0,,,,,,,64,0,0,,,,
56238,note_on,0,0,1,,,,,,,,,0,,,45,0
56238,note_on,0,0,1,,,,,,,,,0,,,42,0
56238,note_on,0,0,0,,,,,,,,,0,,,84,0
56238,note_on,77,0,0,,,,,,,,,0,,,75,0
56238,note_on,78,0,1,,,,,,,,,0,,,33,0
56238,note_on,0,0,0,,,,,,,,,0,,,87,0
56400,note_on,0,0,0,,,,,,,,,0,,,87,112
56400,note_on,0,0,0,,,,,,,,,0,,,96,112
56400,note_on,162,0,0,,,,,,,,,0,,,84,112
56400,note_on,0,0,1,,,,,,,,,0,,,45,112
56400,note_on,0,0,1,,,,,,,,,0,,,42,112
56400,note_on,162,0,1,,,,,,,,,0,,,33,112
56478,note_on,78,0,1,,,,,,,,,0,,,33,0
56478,note_on,78,0,0,,,,,,,,,0,,,84,0
56478,note_on,0,0,0,,,,,,,,,0,,,96,0
56478,note_on,0,0,1,,,,,,,,,0,,,45,0
56478,note_on,0,0,1,,,,,,,,,0,,,42,0
56478,note_on,0,0,0,,,,,,,,,0,,,87,0
56640,note_on,162,0,1,,,,,,,,,0,,,32,112
56640,note_on,0,0,1,,,,,,,,,0,,,40,112
56640,note_on,162,0,0,,,,,,,,,0,,,83,112
56640,note_on,0,0,0,,,,,,,,,0,,,88,112
56640,note_on,0,0,0,,,,,,,,,0,,,95,112
56640,note_on,0,0,1,,,,,,,,,0,,,44,112
56718,note_on,0,0,0,,,,,,,,,0,,,88,0
56718,note_on,0,0,0,,,,,,,,,0,,,95,0
56718,note_on,78,0,1,,,,,,,,,0,,,32,0
56718,note_on,0,0,1,,,,,,,,,0,,,44,0
56718,note_on,0,0,1,,,,,,,,,0,,,40,0
56718,note_on,78,0,0,,,,,,,,,0,,,83,0
56880,note_on,162,0,0,,,,,,,,,0,,,71,112
56880,note_on,162,0,1,,,,,,,,,0,,,59,112
56882,control_change,2,0,1,,,,,,,64,127,0,,,,
56939,note_on,57,0,1,,,,,,,,,0,,,59,0
56939,note_on,59,0,0,,,,,,,,,0,,,71,0
56940,note_on,1,0,1,,,,,,,,,0,,,57,112
56940,note_on,1,0,0,,,,,,,,,0,,,69,112
56999,note_on,59,0,0,,,,,,,,,0,,,69,0
56999,note_on,59,0,1,,,,,,,,,0,,,57,0
57000,note_on,1,0,1,,,,,,,,,0,,,56,112
57000,note_on,1,0,0,,,,,,,,,0,,,68,112
57059,note_on,59,0,0,,,,,,,,,0,,,68,0
57059,note_on,59,0,1,,,,,,,,,0,,,56,0
57060,note_on,1,0,0,,,,,,,,,0,,,66,112
57060,note_on,1,0,1,,,,,,,,,0,,,54,112
57116,note_on,56,0,0,,,,,,,,,0,,,66,0
57116,note_on,56,0,1,,,,,,,,,0,,,54,0
57120,note_on,4,0,0,,,,,,,,,0,,,64,112
57120,note_on,4,0,1,,,,,,,,,0,,,52,112
57198,note_on,78,0,1,,,,,,,,,0,,,52,0
57198,note_on,78,0,0,,,,,,,,,0,,,64,0
57360,note_on,162,0,1,,,,,,,,,0,,,31,112
57360,note_on,162,0,0,,,,,,,,,0,,,82,112
57360,note_on,0,0,0,,,,,,,,,0,,,85,112
57360,note_on,0,0,0,,,,,,,,,0,,,94,112
57360,note_on,0,0,1,,,,,,,,,0,,,43,112
57360,note_on,0,0,1,,,,,,,,,0,,,40,112
57361,control_change,1,0,1,,,,,,,64,0,0,,,,
57438,note_on,78,0,0,,,,,,,,,0,,,82,0
57438,note_on,77,0,1,,,,,,,,,0,,,31,0
57438,note_on,0,0,0,,,,,,,,,0,,,94,0
57438,note_on,0,0,1,,,,,,,,,0,,,40,0
57438,note_on,0,0,0,,,,,,,,,0,,,85,0
57438,note_on,0,0,1,,,,,,,,,0,,,43,0
57600,note_on,162,0,0,,,,,,,,,0,,,85,112
57600,note_on,0,0,1,,,,,,,,,0,,,43,112
57600,note_on,0,0,0,,,,,,,,,0,,,94,112
57600,note_on,0,0,0,,,,,,,,,0,,,97,112
57600,note_on,162,0,1,,,,,,,,,0,,,31,112
57600,note_on,0,0,1,,,,,,,,,0,,,40,112
57678,note_on,0,0,0,,,,,,,,,0,,,97,0
57678,note_on,0,0,0,,,,,,,,,0,,,94,0
57678,note_on,78,0,0,,,,,,,,,0,,,85,0
57678,note_on,0,0,1,,,,,,,,,0,,,40,0
57678,note_on,0,0,1,,,,,,,,,0,,,43,0
57678,note_on,78,0,1,,,,,,,,,0,,,31,0
57840,note_on,0,0,0,,,,,,,,,0,,,98,112
57840,note_on,0,0,0,,,,,,,,,0,,,93,112
57840,note_on,162,0,1,,,,,,,,,0,,,30,112
57840,note_on,0,0,1,,,,,,,,,0,,,38,112
57840,note_on,0,0,1,,,,,,,,,0,,,42,112
57840,note_on,162,0,0,,,,,,,,,0,,,86,112
57918,note_on,78,0,1,,,,,,,,,0,,,30,0
57918,note_on,78,0,0,,,,,,,,,0,,,86,0
57918,note_on,0,0,0,,,,,,,,,0,,,98,0
57918,note_on,0,0,0,,,,,,,,,0,,,93,0
57918,note_on,0,0,1,,,,,,,,,0,,,38,0
57918,note_on,0,0,1,,,,,,,,,0,,,42,0
58080,note_on,162,0,0,,,,,,,,,0,,,62,112
58080,note_on,162,0,1,,,,,,,,,0,,,50,112
58082,control_change,2,0,0,,,,,,,64,127,0,,,,
58139,note_on,59,0,1,,,,,,,,,0,,,50,0
58139,note_on,57,0,0,,,,,,,,,0,,,62,0
58140,note_on,1,0,0,,,,,,,,,0,,,64,112
58140,note_on,1,0,1,,,,,,,,,0,,,52,112
58199,note_on,59,0,0,,,,,,,,,0,,,64,0
58199,note_on,59,0,1,,,,,,,,,0,,,52,0
58200,note_on,1,0,1,,,,,,,,,0,,,54,112
58200,note_on,1,0,0,,,,,,,,,0,,,66,112
58259,note_on,59,0,0,,,,,,,,,0,,,66,0
58259,note_on,59,0,1,,,,,,,,,0,,,54,0
58260,note_on,1,0,0,,,,,,,,,0,,,67,112
58260,note_on,1,0,1,,,,,,,,,0,,,55,112
58316,note_on,56,0,1,,,,,,,,,0,,,55,0
58316,note_on,56,0,0,,,,,,,,,0,,,67,0
58320,note_on,4,0,1,,,,,,,,,0,,,57,112
58320,note_on,4,0,0,,,,,,,,,0,,,69,112
58398,note_on,78,0,1,,,,,,,,,0,,,57,0
58398,note_on,78,0,0,,,,,,,,,0,,,69,0
58560,note_on,0,0,0,,,,,,,,,0,,,95,112
58560,note_on,162,0,0,,,,,,,,,0,,,86,112
58560,note_on,0,0,1,,,,,,,,,0,,,41,112
58560,note_on,162,0,1,,,,,,,,,0,,,29,112
58560,note_on,0,0,0,,,,,,,,,0,,,98,112
58560,note_on,0,0,1,,,,,,,,,0,,,38,112
58560,note_on,0,0,0,,,,,,,,,0,,,92,112
58561,control_change,1,0,1,,,,,,,64,0,0,,,,
58638,note_on,77,0,1,,,,,,,,,0,,,29,0
58638,note_on,0,0,1,,,,,,,,,0,,,41,0
58638,note_on,0,0,1,,,,,,,,,0,,,38,0
58638,note_on,0,0,0,,,,,,,,,0,,,92,0
58638,note_on,78,0,0,,,,,,,,,0,,,86,0
58638,note_on,0,0,0,,,,,,,,,0,,,95,0
58638,note_on,0,0,0,,,,,,,,,0,,,98,0
58800,note_on,162,0,0,,,,,,,,,0,,,62,112
58800,note_on,162,0,1,,,,,,,,,0,,,50,112
58802,control_change,2,0,1,,,,,,,64,127,0,,,,
58859,note_on,57,0,1,,,,,,,,,0,,,50,0
58859,note_on,59,0,0,,,,,,,,,0,,,62,0
58860,note_on,1,0,0,,,,,,,,,0,,,65,112
58860,note_on,1,0,1,,,,,,,,,0,,,53,112
58919,note_on,59,0,0,,,,,,,,,0,,,65,0
58919,note_on,59,0,1,,,,,,,,,0,,,53,0
58920,note_on,1,0,0,,,,,,,,,0,,,68,112
58920,note_on,1,0,1,,,,,,,,,0,,,56,112
58979,note_on,59,0,0,,,,,,,,,0,,,68,0
58979,note_on,59,0,1,,,,,,,,,0,,,56,0
58980,note_on,1,0,1,,,,,,,,,0,,,58,112
58980,note_on,1,0,0,,,,,,,,,0,,,70,112
59036,note_on,56,0,0,,,,,,,,,0,,,70,0
59036,note_on,56,0,1,,,,,,,,,0,,,58,0
59040,note_on,4,0,0,,,,,,,,,0,,,71,112
59040,note_on,4,0,1,,,,,,,,,0,,,59,112
59118,note_on,78,0,1,,,,,,,,,0,,,59,0
59118,note_on,78,0,0,,,,,,,,,0,,,71,0
59280,note_on,162,0,1,,,,,,,,,0,,,62,112
59280,note_on,162,0,0,,,,,,,,,0,,,74,112
59339,note_on,59,0,0,,,,,,,,,0,,,74,0
59339,note_on,59,0,1,,,,,,,,,0,,,62,0
59340,note_on,1,0,0,,,,,,,,,0,,,77,112
59340,note_on,1,0,1,,,,,,,,,0,,,65,112
59399,note_on,59,0,0,,,,,,,,,0,,,77,0
59399,note_on,59,0,1,,,,,,,,,0,,,65,0
59400,note_on,1,0,0,,,,,,,,,0,,,80,112
59400,note_on,1,0,1,,,,,,,,,0,,,68,112
59459,note_on,59,0,0,,,,,,,,,0,,,80,0
59459,note_on,59,0,1,,,,,,,,,0,,,68,0
59460,note_on,1,0,0,,,,,,,,,0,,,82,112
59460,note_on,1,0,1,,,,,,,,,0,,,70,112
59516,note_on,56,0,1,,,,,,,,,0,,,70,0
59516,note_on,56,0,0,,,,,,,,,0,,,82,0
59520,note_on,4,0,1,,,,,,,,,0,,,71,112
59520,note_on,4,0,0,,,,,,,,,0,,,83,112
59598,note_on,78,0,1,,,,,,,,,0,,,71,0
59598,note_on,78,0,0,,,,,,,,,0,,,83,0
59760,note_on,162,0,1,,,,,,,,,0,,,74,112
59760,note_on,162,0,0,,,,,,,,,0,,,86,112
59819,note_on,59,0,0,,,,,,,,,0,,,86,0
59819,note_on,59,0,1,,,,,,,,,0,,,74,0
59820,note_on,1,0,1,,,,,,,,,0,,,77,112
59820,note_on,1,0,0,,,,,,,,,0,,,89,112
59879,note_on,59,0,1,,,,,,,,,0,,,77,0
59879,note_on,59,0,0,,,,,,,,,0,,,89,0
59880,note_on,1,0,1,,,,,,,,,0,,,80,112
59880,note_on,1,0,0,,,,,,,,,0,,,92,112
59939,note_on,59,0,0,,,,,,,,,0,,,92,0
59939,note_on,59,0,1,,,,,,,,,0,,,80,0
59940,note_on,1,0,0,,,,,,,,,0,,,94,112
59940,note_on,1,0,1,,,,,,,,,0,,,82,112
59996,note_on,56,0,0,,,,,,,,,0,,,94,0
59996,note_on,56,0,1,,,,,,,,,0,,,82,0
60000,note_on,4,0,0,,,,,,,,,0,,,95,112
60000,note_on,4,0,1,,,,,,,,,0,,,83,112
60078,note_on,78,0,0,,,,,,,,,0,,,95,0
60078,note_on,78,0,1,,,,,,,,,0,,,83,0
60360,note_on,0,0,0,,,,,,,,,0,,,95,112
60360,note_on,282,0,1,,,,,,,,,0,,,30,112
60360,note_on,0,0,1,,,,,,,,,0,,,39,112
60360,note_on,0,0,0,,,,,,,,,0,,,99,112
60360,note_on,0,0,1,,,,,,,,,0,,,42,112
60360,note_on,282,0,0,,,,,,,,,0,,,87,112
60361,control_change,1,0,1,,,,,,,64,0,0,,,,
60362,control_change,2,0,0,,,,,,,64,127,0,,,,
60398,note_on,37,0,1,,,,,,,,,0,,,30,0
60398,note_on,0,0,1,,,,,,,,,0,,,39,0
60398,note_on,0,0,1,,,,,,,,,0,,,42,0
60398,note_on,0,0,0,,,,,,,,,0,,,95,0
60398,note_on,36,0,0,,,,,,,,,0,,,87,0
60398,note_on,0,0,0,,,,,,,,,0,,,99,0
60480,note_on,82,0,0,,,,,,,,,0,,,87,112
60480,note_on,0,0,0,,,,,,,,,0,,,99,112
60480,note_on,0,0,1,,,,,,,,,0,,,39,112
60480,note_on,0,0,1,,,,,,,,,0,,,42,112
60480,note_on,0,0,0,,,,,,,,,0,,,95,112
60480,note_on,82,0,1,,,,,,,,,0,,,30,112
60558,note_on,78,0,0,,,,,,,,,0,,,87,0
60558,note_on,0,0,1,,,,,,,,,0,,,39,0
60558,note_on,0,0,1,,,,,,,,,0,,,42,0
60558,note_on,0,0,0,,,,,,,,,0,,,95,0
60558,note_on,0,0,0,,,,,,,,,0,,,99,0
60558,note_on,78,0,1,,,,,,,,,0,,,30,0
60720,note_on,0,0,0,,,,,,,,,0,,,95,112
60720,note_on,162,0,1,,,,,,,,,0,,,35,112
60720,note_on,162,0,0,,,,,,,,,0,,,83,112
60720,note_on,0,0,0,,,,,,,,,0,,,87,112
60720,note_on,0,0,1,,,,,,,,,0,,,47,112
60720,note_on,0,0,1,,,,,,,,,0,,,42,112
60798,note_on,78,0,1,,,,,,,,,0,,,35,0
60798,note_on,0,0,1,,,,,,,,,0,,,42,0
60798,note_on,0,0,0,,,,,,,,,0,,,95,0
60798,note_on,78,0,0,,,,,,,,,0,,,83,0
60798,note_on,0,0,0,,,,,,,,,0,,,87,0
60798,note_on,0,0,1,,,,,,,,,0,,,47,0
61080,note_on,0,0,1,,,,,,,,,0,,,47,112
61080,note_on,0,0,1,,,,,,,,,0,,,51,112
61080,note_on,0,0,0,,,,,,,,,0,,,90,112
61080,note_on,282,0,1,,,,,,,,,0,,,39,112
61080,note_on,282,0,0,,,,,,,,,0,,,78,112
61080,note_on,0,0,0,,,,,,,,,0,,,83,112
61118,note_on,0,0,1,,,,,,,,,0,,,51,0
61118,note_on,0,0,1,,,,,,,,,0,,,47,0
61118,note_on,38,0,1,,,,,,,,,0,,,39,0
61118,note_on,38,0,0,,,,,,,,,0,,,78,0
61118,note_on,0,0,0,,,,,,,,,0,,,90,0
61118,note_on,0,0,0,,,,,,,,,0,,,83,0
61200,note_on,82,0,0,,,,,,,,,0,,,78,112
61200,note_on,0,0,0,,,,,,,,,0,,,90,112
61200,note_on,0,0,0,,,,,,,,,0,,,83,112
61200,note_on,82,0,1,,,,,,,,,0,,,39,112
61200,note_on,0,0,1,,,,,,,,,0,,,47,112
61200,note_on,0,0,1,,,,,,,,,0,,,51,112
61278,note_on,0,0,0,,,,,,,,,0,,,83,0
61278,note_on,0,0,1,,,,,,,,,0,,,47,0
61278,note_on,0,0,0,,,,,,,,,0,,,90,0
61278,note_on,0,0,1,,,,,,,,,0,,,51,0
61278,note_on,78,0,0,,,,,,,,,0,,,78,0
61278,note_on,78,0,1,,,,,,,,,0,,,39,0
61800,note_on,0,0,0,,,,,,,,,0,,,83,112
61800,note_on,0,0,0,,,,,,,,,0,,,87,112
61800,note_on,0,0,1,,,,,,,,,0,,,54,112
61800,note_on,0,0,1,,,,,,,,,0,,,47,112
61800,note_on,522,0,1,,,,,,,,,0,,,42,112
61800,note_on,522,0,0,,,,,,,,,0,,,75,112
61838,note_on,0,0,0,,,,,,,,,0,,,87,0
61838,note_on,38,0,0,,,,,,,,,0,,,75,0
61838,note_on,0,0,1,,,,,,,,,0,,,47,0
61838,note_on,0,0,1,,,,,,,,,0,,,54,0
61838,note_on,0,0,0,,,,,,,,,0,,,83,0
61838,note_on,38,0,1,,,,,,,,,0,,,42,0
61920,note_on,0,0,0,,,,,,,,,0,,,87,112
61920,note_on,0,0,1,,,,,,,,,0,,,54,112
61920,note_on,0,0,1,,,,,,,,,0,,,47,112
61920,note_on,82,0,0,,,,,,,,,0,,,75,112
61920,note_on,82,0,1,,,,,,,,,0,,,42,112
61920,note_on,0,0,0,,,,,,,,,0,,,83,112
61998,note_on,0,0,0,,,,,,,,,0,,,83,0
61998,note_on,78,0,1,,,,,,,,,0,,,42,0
61998,note_on,78,0,0,,,,,,,,,0,,,75,0
61998,note_on,0,0,1,,,,,,,,,0,,,47,0
61998,note_on,0,0,1,,,,,,,,,0,,,54,0
61998,note_on,0,0,0,,,,,,,,,0,,,87,0
62160,note_on,0,0,1,,,,,,,,,0,,,53,112
62160,note_on,0,0,1,,,,,,,,,0,,,47,112
62160,note_on,0,0,0,,,,,,,,,0,,,83,112
62160,note_on,0,0,0,,,,,,,,,0,,,86,112
62160,note_on,162,0,1,,,,,,,,,0,,,41,112
62160,note_on,162,0,0,,,,,,,,,0,,,74,112
62238,note_on,0,0,1,,,,,,,,,0,,,53,0
62238,note_on,0,0,0,,,,,,,,,0,,,86,0
62238,note_on,0,0,0,,,,,,,,,0,,,83,0
62238,note_on,0,0,1,,,,,,,,,0,,,47,0
62238,note_on,78,0,0,,,,,,,,,0,,,74,0
62238,note_on,78,0,1,,,,,,,,,0,,,41,0
62400,note_on,0,0,0,,,,,,,,,0,,,87,112
62400,note_on,0,0,0,,,,,,,,,0,,,83,112
62400,note_on,0,0,1,,,,,,,,,0,,,47,112
62400,note_on,0,0,1,,,,,,,,,0,,,54,112
62400,note_on,162,0,1,,,,,,,,,0,,,42,112
62400,note_on,162,0,0,,,,,,,,,0,,,75,112
62478,note_on,0,0,1,,,,,,,,,0,,,54,0
62478,note_on,78,0,1,,,,,,,,,0,,,42,0
62478,note_on,78,0,0,,,,,,,,,0,,,75,0
62478,note_on,0,0,0,,,,,,,,,0,,,87,0
62478,note_on,0,0,1,,,,,,,,,0,,,47,0
62478,note_on,0,0,0,,,,,,,,,0,,,83,0
62880,note_on,402,0,1,,,,,,,,,0,,,44,127
62880,note_on,402,0,0,,,,,,,,,0,,,78,127
62880,note_on,0,0,1,,,,,,,,,0,,,51,127
62880,note_on,0,0,0,,,,,,,,,0,,,90,127
62880,note_on,0,0,0,,,,,,,,,0,,,83,127
62880,note_on,0,0,1,,,,,,,,,0,,,56,127
62881,control_change,1,0,0,,,,,,,64,0,0,,,,
62882,control_change,1,0,0,,,,,,,64,127,0,,,,
63119,note_on,239,0,1,,,,,,,,,0,,,44,0
63119,note_on,0,0,1,,,,,,,,,0,,,56,0
63119,note_on,237,0,0,,,,,,,,,0,,,78,0
63119,note_on,0,0,0,,,,,,,,,0,,,90,0
63119,note_on,0,0,0,,,,,,,,,0,,,83,0
63119,note_on,0,0,1,,,,,,,,,0,,,51,0
63240,note_on,0,0,0,,,,,,,,,0,,,86,112
63240,note_on,0,0,1,,,,,,,,,0,,,62,112
63240,note_on,121,0,1,,,,,,,,,0,,,50,112
63240,note_on,121,0,0,,,,,,,,,0,,,74,112
63278,note_on,0,0,1,,,,,,,,,0,,,62,0
63278,note_on,38,0,0,,,,,,,,,0,,,74,0
63278,note_on,38,0,1,,,,,,,,,0,,,50,0
63278,note_on,0,0,0,,,,,,,,,0,,,86,0
63360,note_on,82,0,1,,,,,,,,,0,,,51,112
63360,note_on,0,0,0,,,,,,,,,0,,,87,112
63360,note_on,82,0,0,,,,,,,,,0,,,75,112
63360,note_on,0,0,1,,,,,,,,,0,,,63,112
63438,note_on,0,0,0,,,,,,,,,0,,,87,0
63438,note_on,78,0,0,,,,,,,,,0,,,75,0
63438,note_on,0,0,1,,,,,,,,,0,,,63,0
63438,note_on,78,0,1,,,,,,,,,0,,,51,0
63600,note_on,0,0,0,,,,,,,,,0,,,90,127
63600,note_on,0,0,0,,,,,,,,,0,,,84,127
63600,note_on,0,0,1,,,,,,,,,0,,,51,127
63600,note_on,162,0,1,,,,,,,,,0,,,45,127
63600,note_on,0,0,1,,,,,,,,,0,,,57,127
63600,note_on,162,0,0,,,,,,,,,0,,,78,127
63600,note_on,0,0,1,,,,,,,,,0,,,54,127
63601,control_change,1,0,0,,,,,,,64,0,0,,,,
63602,control_change,1,0,0,,,,,,,64,127,0,,,,
63839,note_on,239,0,1,,,,,,,,,0,,,45,0
63839,note_on,237,0,0,,,,,,,,,0,,,78,0
63839,note_on,0,0,1,,,,,,,,,0,,,57,0
63839,note_on,0,0,0,,,,,,,,,0,,,84,0
63839,note_on,0,0,0,,,,,,,,,0,,,90,0
63839,note_on,0,0,1,,,,,,,,,0,,,54,0
63839,note_on,0,0,1,,,,,,,,,0,,,51,0
63960,note_on,121,0,1,,,,,,,,,0,,,50,112
63960,note_on,0,0,0,,,,,,,,,0,,,86,112
63960,note_on,121,0,0,,,,,,,,,0,,,74,112
63960,note_on,0,0,1,,,,,,,,,0,,,62,112
63998,note_on,38,0,0,,,,,,,,,0,,,74,0
63998,note_on,0,0,0,,,,,,,,,0,,,86,0
63998,note_on,0,0,1,,,,,,,,,0,,,62,0
63998,note_on,38,0,1,,,,,,,,,0,,,50,0
64080,note_on,0,0,0,,,,,,,,,0,,,87,112
64080,note_on,82,0,1,,,,,,,,,0,,,51,112
64080,note_on,0,0,1,,,,,,,,,0,,,63,112
64080,note_on,82,0,0,,,,,,,,,0,,,75,112
64158,note_on,78,0,1,,,,,,,,,0,,,51,0
64158,note_on,78,0,0,,,,,,,,,0,,,75,0
64158,note_on,0,0,1,,,,,,,,,0,,,63,0
64158,note_on,0,0,0,,,,,,,,,0,,,87,0
64320,note_on,162,0,1,,,,,,,,,0,,,46,112
64320,note_on,0,0,1,,,,,,,,,0,,,53,112
64320,note_on,0,0,1,,,,,,,,,0,,,58,112
64320,note_on,162,0,0,,,,,,,,,0,,,82,112
64320,note_on,0,0,0,,,,,,,,,0,,,94,112
64320,note_on,0,0,0,,,,,,,,,0,,,86,112
64321,control_change,1,0,0,,,,,,,64,0,0,,,,
64398,note_on,0,0,0,,,,,,,,,0,,,94,0
64398,note_on,78,0,1,,,,,,,,,0,,,46,0
64398,note_on,0,0,0,,,,,,,,,0,,,86,0
64398,note_on,77,0,0,,,,,,,,,0,,,82,0
64398,note_on,0,0,1,,,,,,,,,0,,,58,0
64398,note_on,0,0,1,,,,,,,,,0,,,53,0
64560,note_on,162,0,1,,,,,,,,,0,,,41,112
64680,note_on,282,0,0,,,,,,,,,0,,,53,112
64787,note_on,227,0,1,,,,,,,,,0,,,41,0
64793,note_on,113,0,0,,,,,,,,,0,,,53,0
64800,note_on,13,0,1,,,,,,,,,0,,,39,111
64920,note_on,127,0,0,,,,,,,,,0,,,51,109
65027,note_on,227,0,1,,,,,,,,,0,,,39,0
65033,note_on,113,0,0,,,,,,,,,0,,,51,0
65040,note_on,13,0,1,,,,,,,,,0,,,38,107
65160,note_on,127,0,0,,,,,,,,,0,,,50,106
65267,note_on,227,0,1,,,,,,,,,0,,,38,0
65273,note_on,113,0,0,,,,,,,,,0,,,50,0
65280,note_on,13,0,1,,,,,,,,,0,,,35,104
65400,note_on,127,0,0,,,,,,,,,0,,,47,102
65507,note_on,227,0,1,,,,,,,,,0,,,35,0
65513,note_on,113,0,0,,,,,,,,,0,,,47,0
65520,note_on,13,0,1,,,,,,,,,0,,,34,101
65640,note_on,127,0,0,,,,,,,,,0,,,46,99
65747,note_on,227,0,1,,,,,,,,,0,,,34,0
65753,note_on,113,0,0,,,,,,,,,0,,,46,0
65760,note_on,0,0,0,,,,,,,,,0,,,81,96
65760,note_on,0,0,0,,,,,,,,,0,,,90,96
65760,note_on,7,0,0,,,,,,,,,0,,,78,96
65760,note_on,0,0,1,,,,,,,,,0,,,57,96
65760,note_on,0,0,1,,,,,,,,,0,,,54,96
65760,note_on,0,0,1,,,,,,,,,0,,,51,96
65760,note_on,0,0,1,,,,,,,,,0,,,48,96
65760,note_on,13,0,1,,,,,,,,,0,,,46,96
65762,control_change,2,0,1,,,,,,,64,127,0,,,,
65838,note_on,78,0,0,,,,,,,,,0,,,78,0
65838,note_on,76,0,1,,,,,,,,,0,,,46,0
65838,note_on,0,0,0,,,,,,,,,0,,,90,0
65838,note_on,0,0,0,,,,,,,,,0,,,81,0
65838,note_on,0,0,1,,,,,,,,,0,,,57,0
65838,note_on,0,0,1,,,,,,,,,0,,,51,0
65838,note_on,0,0,1,,,,,,,,,0,,,54,0
65838,note_on,0,0,1,,,,,,,,,0,,,48,0
66120,note_on,0,0,0,,,,,,,,,0,,,87,96
66120,note_on,0,0,0,,,,,,,,,0,,,78,96
66120,note_on,0,0,1,,,,,,,,,0,,,57,96
66120,note_on,0,0,1,,,,,,,,,0,,,54,96
66120,note_on,0,0,1,,,,,,,,,0,,,51,96
66120,note_on,0,0,1,,,,,,,,,0,,,48,96
66120,note_on,282,0,0,,,,,,,,,0,,,75,96
66120,note_on,282,0,1,,,,,,,,,0,,,46,96
66158,note_on,38,0,0,,,,,,,,,0,,,75,0
66158,note_on,38,0,1,,,,,,,,,0,,,46,0
66158,note_on,0,0,0,,,,,,,,,0,,,87,0
66158,note_on,0,0,1,,,,,,,,,0,,,48,0
66158,note_on,0,0,1,,,,,,,,,0,,,51,0
66158,note_on,0,0,0,,,,,,,,,0,,,78,0
66158,note_on,0,0,1,,,,,,,,,0,,,57,0
66158,note_on,0,0,1,,,,,,,,,0,,,54,0
66240,note_on,82,0,1,,,,,,,,,0,,,46,96
66240,note_on,0,0,1,,,,,,,,,0,,,48,96
66240,note_on,0,0,1,,,,,,,,,0,,,54,96
66240,note_on,0,0,0,,,,,,,,,0,,,78,96
66240,note_on,0,0,0,,,,,,,,,0,,,87,96
66240,note_on,0,0,1,,,,,,,,,0,,,51,96
66240,note_on,82,0,0,,,,,,,,,0,,,75,96
66240,note_on,0,0,1,,,,,,,,,0,,,57,96
66318,note_on,0,0,1,,,,,,,,,0,,,54,0
66318,note_on,78,0,0,,,,,,,,,0,,,75,0
66318,note_on,78,0,1,,,,,,,,,0,,,46,0
66318,note_on,0,0,1,,,,,,,,,0,,,51,0
66318,note_on,0,0,1,,,,,,,,,0,,,48,0
66318,note_on,0,0,0,,,,,,,,,0,,,78,0
66318,note_on,0,0,0,,,,,,,,,0,,,87,0
66318,note_on,0,0,1,,,,,,,,,0,,,57,0
66840,note_on,0,0,0,,,,,,,,,0,,,84,96
66840,note_on,522,0,1,,,,,,,,,0,,,46,96
66840,note_on,522,0,0,,,,,,,,,0,,,72,96
66840,note_on,0,0,0,,,,,,,,,0,,,75,96
66840,note_on,0,0,1,,,,,,,,,0,,,48,96
66840,note_on,0,0,1,,,,,,,,,0,,,57,96
66840,note_on,0,0,1,,,,,,,,,0,,,54,96
66840,note_on,0,0,1,,,,,,,,,0,,,51,96
66878,note_on,38,0,1,,,,,,,,,0,,,46,0
66878,note_on,0,0,0,,,,,,,,,0,,,84,0
66878,note_on,0,0,0,,,,,,,,,0,,,75,0
66878,note_on,38,0,0,,,,,,,,,0,,,72,0
66878,note_on,0,0,1,,,,,,,,,0,,,48,0
66878,note_on,0,0,1,,,,,,,,,0,,,51,0
66878,note_on,0,0,1,,,,,,,,,0,,,54,0
66878,note_on,0,0,1,,,,,,,,,0,,,57,0
66960,note_on,0,0,1,,,,,,,,,0,,,48,96
66960,note_on,0,0,1,,,,,,,,,0,,,51,96
66960,note_on,82,0,1,,,,,,,,,0,,,46,96
66960,note_on,0,0,0,,,,,,,,,0,,,84,96
66960,note_on,0,0,1,,,,,,,,,0,,,57,96
66960,note_on,0,0,1,,,,,,,,,0,,,54,96
66960,note_on,82,0,0,,,,,,,,,0,,,72,96
66960,note_on,0,0,0,,,,,,,,,0,,,75,96
67038,note_on,0,0,1,,,,,,,,,0,,,48,0
67038,note_on,78,0,0,,,,,,,,,0,,,72,0
67038,note_on,0,0,1,,,,,,,,,0,,,51,0
67038,note_on,0,0,1,,,,,,,,,0,,,54,0
67038,note_on,0,0,1,,,,,,,,,0,,,57,0
67038,note_on,0,0,0,,,,,,,,,0,,,84,0
67038,note_on,0,0,0,,,,,,,,,0,,,75,0
67038,note_on,78,0,1,,,,,,,,,0,,,46,0
67440,note_on,0,0,1,,,,,,,,,0,,,57,96
67440,note_on,402,0,1,,,,,,,,,0,,,46,96
67440,note_on,402,0,0,,,,,,,,,0,,,69,96
67440,note_on,0,0,0,,,,,,,,,0,,,72,96
67440,note_on,0,0,0,,,,,,,,,0,,,81,96
67440,note_on,0,0,1,,,,,,,,,0,,,54,96
67440,note_on,0,0,1,,,,,,,,,0,,,51,96
67440,note_on,0,0,1,,,,,,,,,0,,,48,96
67478,note_on,0,0,1,,,,,,,,,0,,,51,0
67478,note_on,38,0,0,,,,,,,,,0,,,69,0
67478,note_on,0,0,0,,,,,,,,,0,,,72,0
67478,note_on,0,0,0,,,,,,,,,0,,,81,0
67478,note_on,0,0,1,,,,,,,,,0,,,57,0
67478,note_on,38,0,1,,,,,,,,,0,,,46,0
67478,note_on,0,0,1,,,,,,,,,0,,,48,0
67478,note_on,0,0,1,,,,,,,,,0,,,54,0
67560,note_on,0,0,0,,,,,,,,,0,,,78,96
67560,note_on,0,0,1,,,,,,,,,0,,,57,96
67560,note_on,0,0,1,,,,,,,,,0,,,54,96
67560,note_on,82,0,1,,,,,,,,,0,,,46,96
67560,note_on,0,0,1,,,,,,,,,0,,,51,96
67560,note_on,82,0,0,,,,,,,,,0,,,66,96
67560,note_on,0,0,1,,,,,,,,,0,,,48,96
67598,note_on,38,0,0,,,,,,,,,0,,,66,0
67598,note_on,0,0,1,,,,,,,,,0,,,51,0
67598,note_on,0,0,1,,,,,,,,,0,,,48,0
67598,note_on,0,0,1,,,,,,,,,0,,,54,0
67598,note_on,0,0,1,,,,,,,,,0,,,57,0
67598,note_on,0,0,0,,,,,,,,,0,,,78,0
67598,note_on,38,0,1,,,,,,,,,0,,,46,0
67680,note_on,0,0,0,,,,,,,,,0,,,77,96
67680,note_on,0,0,1,,,,,,,,,0,,,48,96
67680,note_on,0,0,1,,,,,,,,,0,,,51,96
67680,note_on,0,0,1,,,,,,,,,0,,,54,96
67680,note_on,0,0,1,,,,,,,,,0,,,57,96
67680,note_on,82,0,0,,,,,,,,,0,,,65,96
67680,note_on,82,0,1,,,,,,,,,0,,,46,96
67718,note_on,0,0,1,,,,,,,,,0,,,51,0
67718,note_on,38,0,0,,,,,,,,,0,,,65,0
67718,note_on,38,0,1,,,,,,,,,0,,,46,0
67718,note_on,0,0,1,,,,,,,,,0,,,57,0
67718,note_on,0,0,1,,,,,,,,,0,,,54,0
67718,note_on,0,0,0,,,,,,,,,0,,,77,0
67718,note_on,0,0,1,,,,,,,,,0,,,48,0
67800,note_on,82,0,0,,,,,,,,,0,,,63,96
67800,note_on,0,0,1,,,,,,,,,0,,,57,96
67800,note_on,0,0,1,,,,,,,,,0,,,54,96
67800,note_on,0,0,1,,,,,,,,,0,,,51,96
67800,note_on,0,0,1,,,,,,,,,0,,,48,96
67800,note_on,82,0,1,,,,,,,,,0,,,46,96
67800,note_on,0,0,0,,,,,,,,,0,,,75,96
67838,note_on,38,0,0,,,,,,,,,0,,,63,0
67838,note_on,0,0,0,,,,,,,,,0,,,75,0
67838,note_on,38,0,1,,,,,,,,,0,,,46,0
67838,note_on,0,0,1,,,,,,,,,0,,,57,0
67838,note_on,0,0,1,,,,,,,,,0,,,48,0
67838,note_on,0,0,1,,,,,,,,,0,,,51,0
67838,note_on,0,0,1,,,,,,,,,0,,,54,0
67920,note_on,0,0,0,,,,,,,,,0,,,74,96
67920,note_on,0,0,0,,,,,,,,,0,,,82,96
67920,note_on,0,0,1,,,,,,,,,0,,,58,96
67920,note_on,0,0,1,,,,,,,,,0,,,53,96
67920,note_on,0,0,1,,,,,,,,,0,,,50,96
67920,note_on,82,0,1,,,,,,,,,0,,,46,96
67920,note_on,82,0,0,,,,,,,,,0,,,70,96
67921,control_change,1,0,1,,,,,,,64,0,0,,,,
67998,note_on,78,0,0,,,,,,,,,0,,,70,0
67998,note_on,77,0,1,,,,,,,,,0,,,46,0
67998,note_on,0,0,0,,,,,,,,,0,,,82,0
67998,note_on,0,0,0,,,,,,,,,0,,,74,0
67998,note_on,0,0,1,,,,,,,,,0,,,50,0
67998,note_on,0,0,1,,,,,,,,,0,,,53,0
67998,note_on,0,0,1,,,,,,,,,0,,,58,0
68160,note_on,0,0,1,,,,,,,,,0,,,53,96
68160,note_on,162,0,1,,,,,,,,,0,,,41,96
68280,note_on,282,0,0,,,,,,,,,0,,,65,96
68387,note_on,0,0,1,,,,,,,,,0,,,53,0
68387,note_on,227,0,1,,,,,,,,,0,,,41,0
68393,note_on,113,0,0,,,,,,,,,0,,,65,0
68400,note_on,0,0,1,,,,,,,,,0,,,51,94
68400,note_on,13,0,1,,,,,,,,,0,,,39,94
68520,note_on,127,0,0,,,,,,,,,0,,,63,92
68627,note_on,0,0,1,,,,,,,,,0,,,51,0
68627,note_on,227,0,1,,,,,,,,,0,,,39,0
68633,note_on,113,0,0,,,,,,,,,0,,,63,0
68640,note_on,13,0,1,,,,,,,,,0,,,38,90
68640,note_on,0,0,1,,,,,,,,,0,,,50,90
68760,note_on,127,0,0,,,,,,,,,0,,,62,88
68867,note_on,227,0,1,,,,,,,,,0,,,38,0
68867,note_on,0,0,1,,,,,,,,,0,,,50,0
68873,note_on,113,0,0,,,,,,,,,0,,,62,0
68880,note_on,13,0,1,,,,,,,,,0,,,35,86
68880,note_on,0,0,1,,,,,,,,,0,,,47,86
69000,note_on,127,0,0,,,,,,,,,0,,,59,84
69107,note_on,0,0,1,,,,,,,,,0,,,47,0
69107,note_on,227,0,1,,,,,,,,,0,,,35,0
69113,note_on,113,0,0,,,,,,,,,0,,,59,0
69120,note_on,0,0,1,,,,,,,,,0,,,46,81
69120,note_on,13,0,1,,,,,,,,,0,,,34,81
69240,note_on,127,0,0,,,,,,,,,0,,,58,81
69347,note_on,0,0,1,,,,,,,,,0,,,46,0
69347,note_on,227,0,1,,,,,,,,,0,,,34,0
69353,note_on,113,0,0,,,,,,,,,0,,,58,0
69360,note_on,0,0,0,,,,,,,,,0,,,99,96
69360,note_on,7,0,0,,,,,,,,,0,,,87,96
69360,note_on,0,0,1,,,,,,,,,0,,,48,96
69360,note_on,0,0,1,,,,,,,,,0,,,51,96
69360,note_on,0,0,0,,,,,,,,,0,,,90,96
69360,note_on,13,0,1,,,,,,,,,0,,,46,96
69360,note_on,0,0,1,,,,,,,,,0,,,54,96
69360,note_on,0,0,1,,,,,,,,,0,,,57,96
69362,control_change,2,0,1,,,,,,,64,127,0,,,,
69438,note_on,0,0,1,,,,,,,,,0,,,54,0
69438,note_on,76,0,1,,,,,,,,,0,,,46,0
69438,note_on,0,0,0,,,,,,,,,0,,,90,0
69438,note_on,78,0,0,,,,,,,,,0,,,87,0
69438,note_on,0,0,0,,,,,,,,,0,,,99,0
69438,note_on,0,0,1,,,,,,,,,0,,,48,0
69438,note_on,0,0,1,,,,,,,,,0,,,51,0
69438,note_on,0,0,1,,,,,,,,,0,,,57,0
69720,note_on,282,0,0,,,,,,,,,0,,,84,96
69720,note_on,0,0,1,,,,,,,,,0,,,51,96
69720,note_on,0,0,1,,,,,,,,,0,,,48,96
69720,note_on,282,0,1,,,,,,,,,0,,,46,96
69720,note_on,0,0,0,,,,,,,,,0,,,96,96
69720,note_on,0,0,0,,,,,,,,,0,,,87,96
69720,note_on,0,0,1,,,,,,,,,0,,,54,96
69720,note_on,0,0,1,,,,,,,,,0,,,57,96
69758,note_on,0,0,0,,,,,,,,,0,,,87,0
69758,note_on,0,0,0,,,,,,,,,0,,,96,0
69758,note_on,38,0,0,,,,,,,,,0,,,84,0
69758,note_on,0,0,1,,,,,,,,,0,,,54,0
69758,note_on,0,0,1,,,,,,,,,0,,,51,0
69758,note_on,0,0,1,,,,,,,,,0,,,48,0
69758,note_on,0,0,1,,,,,,,,,0,,,57,0
69758,note_on,38,0,1,,,,,,,,,0,,,46,0
69840,note_on,0,0,1,,,,,,,,,0,,,54,96
69840,note_on,0,0,0,,,,,,,,,0,,,96,96
69840,note_on,0,0,0,,,,,,,,,0,,,87,96
69840,note_on,0,0,1,,,,,,,,,0,,,57,96
69840,note_on,82,0,1,,,,,,,,,0,,,46,96
69840,note_on,82,0,0,,,,,,,,,0,,,84,96
69840,note_on,0,0,1,,,,,,,,,0,,,51,96
69840,note_on,0,0,1,,,,,,,,,0,,,48,96
69918,note_on,0,0,1,,,,,,,,,0,,,54,0
69918,note_on,78,0,1,,,,,,,,,0,,,46,0
69918,note_on,0,0,1,,,,,,,,,0,,,51,0
69918,note_on,0,0,1,,,,,,,,,0,,,48,0
69918,note_on,0,0,0,,,,,,,,,0,,,87,0
69918,note_on,0,0,0,,,,,,,,,0,,,96,0
69918,note_on,78,0,0,,,,,,,,,0,,,84,0
69918,note_on,0,0,1,,,,,,,,,0,,,57,0
70440,note_on,0,0,1,,,,,,,,,0,,,51,96
70440,note_on,0,0,0,,,,,,,,,0,,,84,96
70440,note_on,0,0,1,,,,,,,,,0,,,48,96
70440,note_on,0,0,1,,,,,,,,,0,,,54,96
70440,note_on,0,0,1,,,,,,,,,0,,,57,96
70440,note_on,522,0,0,,,,,,,,,0,,,81,96
70440,note_on,522,0,1,,,,,,,,,0,,,46,96
70440,note_on,0,0,0,,,,,,,,,0,,,93,96
70478,note_on,0,0,0,,,,,,,,,0,,,93,0
70478,note_on,0,0,1,,,,,,,,,0,,,48,0
70478,note_on,0,0,1,,,,,,,,,0,,,51,0
70478,note_on,0,0,1,,,,,,,,,0,,,54,0
70478,note_on,0,0,0,,,,,,,,,0,,,84,0
70478,note_on,0,0,1,,,,,,,,,0,,,57,0
70478,note_on,38,0,0,,,,,,,,,0,,,81,0
70478,note_on,38,0,1,,,,,,,,,0,,,46,0
70560,note_on,0,0,0,,,,,,,,,0,,,84,96
70560,note_on,0,0,0,,,,,,,,,0,,,93,96
70560,note_on,82,0,0,,,,,,,,,0,,,81,96
70560,note_on,82,0,1,,,,,,,,,0,,,46,96
70560,note_on,0,0,1,,,,,,,,,0,,,54,96
70560,note_on,0,0,1,,,,,,,,,0,,,57,96
70560,note_on,0,0,1,,,,,,,,,0,,,51,96
70560,note_on,0,0,1,,,,,,,,,0,,,48,96
70638,note_on,0,0,1,,,,,,,,,0,,,48,0
70638,note_on,78,0,1,,,,,,,,,0,,,46,0
70638,note_on,0,0,1,,,,,,,,,0,,,51,0
70638,note_on,0,0,1,,,,,,,,,0,,,54,0
70638,note_on,0,0,1,,,,,,,,,0,,,57,0
70638,note_on,0,0,0,,,,,,,,,0,,,93,0
70638,note_on,0,0,0,,,,,,,,,0,,,84,0
70638,note_on,78,0,0,,,,,,,,,0,,,81,0
71040,note_on,0,0,0,,,,,,,,,0,,,81,96
71040,note_on,0,0,1,,,,,,,,,0,,,57,96
71040,note_on,0,0,1,,,,,,,,,0,,,54,96
71040,note_on,0,0,1,,,,,,,,,0,,,51,96
71040,note_on,0,0,0,,,,,,,,,0,,,90,96
71040,note_on,402,0,1,,,,,,,,,0,,,46,96
71040,note_on,0,0,1,,,,,,,,,0,,,48,96
71040,note_on,402,0,0,,,,,,,,,0,,,78,96
71078,note_on,38,0,1,,,,,,,,,0,,,46,0
71078,note_on,0,0,0,,,,,,,,,0,,,81,0
71078,note_on,0,0,0,,,,,,,,,0,,,90,0
71078,note_on,0,0,1,,,,,,,,,0,,,57,0
71078,note_on,0,0,1,,,,,,,,,0,,,54,0
71078,note_on,0,0,1,,,,,,,,,0,,,51,0
71078,note_on,0,0,1,,,,,,,,,0,,,48,0
71078,note_on,38,0,0,,,,,,,,,0,,,78,0
71160,note_on,0,0,0,,,,,,,,,0,,,89,96
71160,note_on,0,0,1,,,,,,,,,0,,,48,96
71160,note_on,0,0,1,,,,,,,,,0,,,51,96
71160,note_on,0,0,1,,,,,,,,,0,,,57,96
71160,note_on,0,0,1,,,,,,,,,0,,,54,96
71160,note_on,82,0,0,,,,,,,,,0,,,77,96
71160,note_on,82,0,1,,,,,,,,,0,,,46,96
71198,note_on,0,0,0,,,,,,,,,0,,,89,0
71198,note_on,38,0,0,,,,,,,,,0,,,77,0
71198,note_on,0,0,1,,,,,,,,,0,,,48,0
71198,note_on,0,0,1,,,,,,,,,0,,,51,0
71198,note_on,0,0,1,,,,,,,,,0,,,54,0
71198,note_on,0,0,1,,,,,,,,,0,,,57,0
71198,note_on,38,0,1,,,,,,,,,0,,,46,0
71280,note_on,82,0,0,,,,,,,,,0,,,76,96
71280,note_on,0,0,1,,,,,,,,,0,,,51,96
71280,note_on,0,0,1,,,,,,,,,0,,,48,96
71280,note_on,0,0,0,,,,,,,,,0,,,88,96
71280,note_on,82,0,1,,,,,,,,,0,,,46,96
71280,note_on,0,0,1,,,,,,,,,0,,,57,96
71280,note_on,0,0,1,,,,,,,,,0,,,54,96
71318,note_on,0,0,1,,,,,,,,,0,,,57,0
71318,note_on,0,0,1,,,,,,,,,0,,,54,0
71318,note_on,38,0,0,,,,,,,,,0,,,76,0
71318,note_on,0,0,0,,,,,,,,,0,,,88,0
71318,note_on,38,0,1,,,,,,,,,0,,,46,0
71318,note_on,0,0,1,,,,,,,,,0,,,48,0
71318,note_on,0,0,1,,,,,,,,,0,,,51,0
71400,note_on,82,0,1,,,,,,,,,0,,,46,96
71400,note_on,0,0,1,,,,,,,,,0,,,57,96
71400,note_on,0,0,1,,,,,,,,,0,,,48,96
71400,note_on,0,0,1,,,,,,,,,0,,,51,96
71400,note_on,0,0,0,,,,,,,,,0,,,87,96
71400,note_on,82,0,0,,,,,,,,,0,,,75,96
71400,note_on,0,0,1,,,,,,,,,0,,,54,96
71438,note_on,0,0,1,,,,,,,,,0,,,54,0
71438,note_on,0,0,1,,,,,,,,,0,,,48,0
71438,note_on,0,0,0,,,,,,,,,0,,,87,0
71438,note_on,0,0,1,,,,,,,,,0,,,51,0
71438,note_on,38,0,1,,,,,,,,,0,,,46,0
71438,note_on,0,0,1,,,,,,,,,0,,,57,0
71438,note_on,38,0,0,,,,,,,,,0,,,75,0
71520,note_on,82,0,0,,,,,,,,,0,,,82,96
71520,note_on,0,0,1,,,,,,,,,0,,,53,96
71520,note_on,0,0,1,,,,,,,,,0,,,58,96
71520,note_on,0,0,1,,,,,,,,,0,,,50,96
71520,note_on,82,0,1,,,,,,,,,0,,,46,96
71520,note_on,0,0,0,,,,,,,,,0,,,94,96
71520,note_on,0,0,0,,,,,,,,,0,,,86,96
71521,control_change,1,0,1,,,,,,,64,0,0,,,,
71598,note_on,0,0,1,,,,,,,,,0,,,53,0
71598,note_on,0,0,0,,,,,,,,,0,,,86,0
71598,note_on,0,0,1,,,,,,,,,0,,,50,0
71598,note_on,77,0,1,,,,,,,,,0,,,46,0
71598,note_on,78,0,0,,,,,,,,,0,,,82,0
71598,note_on,0,0,0,,,,,,,,,0,,,94,0
71598,note_on,0,0,1,,,,,,,,,0,,,58,0
71760,note_on,162,0,0,,,,,,,,,0,,,65,96
71762,control_change,2,0,0,,,,,,,64,127,0,,,,
71873,note_on,111,0,0,,,,,,,,,0,,,65,0
71880,note_on,7,0,0,,,,,,,,,0,,,68,96
71880,note_on,0,0,0,,,,,,,,,0,,,70,96
71993,note_on,113,0,0,,,,,,,,,0,,,68,0
71993,note_on,0,0,0,,,,,,,,,0,,,70,0
72000,note_on,7,0,0,,,,,,,,,0,,,63,96
72113,note_on,113,0,0,,,,,,,,,0,,,63,0
72120,note_on,7,0,0,,,,,,,,,0,,,68,96
72120,note_on,0,0,0,,,,,,,,,0,,,70,96
72233,note_on,113,0,0,,,,,,,,,0,,,68,0
72233,note_on,0,0,0,,,,,,,,,0,,,70,0
72240,note_on,7,0,0,,,,,,,,,0,,,62,96
72353,note_on,113,0,0,,,,,,,,,0,,,62,0
72360,note_on,7,0,0,,,,,,,,,0,,,68,96
72360,note_on,0,0,0,,,,,,,,,0,,,70,96
72473,note_on,113,0,0,,,,,,,,,0,,,68,0
72473,note_on,0,0,0,,,,,,,,,0,,,70,0
72480,note_on,7,0,0,,,,,,,,,0,,,60,96
72593,note_on,113,0,0,,,,,,,,,0,,,60,0
72600,note_on,7,0,0,,,,,,,,,0,,,68,96
72600,note_on,0,0,0,,,,,,,,,0,,,70,96
72713,note_on,113,0,0,,,,,,,,,0,,,68,0
72713,note_on,0,0,0,,,,,,,,,0,,,70,0
72720,note_on,7,0,0,,,,,,,,,0,,,58,96
72833,note_on,113,0,0,,,,,,,,,0,,,58,0
72840,note_on,7,0,0,,,,,,,,,0,,,68,96
72840,note_on,0,0,0,,,,,,,,,0,,,70,96
72953,note_on,113,0,0,,,,,,,,,0,,,68,0
72953,note_on,0,0,0,,,,,,,,,0,,,70,0
72960,note_on,7,0,0,,,,,,,,,0,,,59,96
72960,note_on,1362,0,1,,,,,,,,,0,,,44,96
72960,note_on,0,0,1,,,,,,,,,0,,,52,96
72960,note_on,0,0,0,,,,,,,,,0,,,71,96
72960,note_on,0,0,1,,,,,,,,,0,,,56,96
72961,control_change,1,0,0,,,,,,,64,0,0,,,,
73038,note_on,0,0,1,,,,,,,,,0,,,56,0
73038,note_on,78,0,1,,,,,,,,,0,,,44,0
73038,note_on,0,0,1,,,,,,,,,0,,,52,0
73079,note_on,0,0,0,,,,,,,,,0,,,71,0
73079,note_on,118,0,0,,,,,,,,,0,,,59,0
73080,note_on,1,0,0,,,,,,,,,0,,,64,96
73199,note_on,119,0,0,,,,,,,,,0,,,64,0
73200,note_on,162,0,1,,,,,,,,,0,,,42,96
73200,note_on,1,0,0,,,,,,,,,0,,,68,96
73200,note_on,0,0,1,,,,,,,,,0,,,54,96
73278,note_on,0,0,1,,,,,,,,,0,,,54,0
73278,note_on,78,0,1,,,,,,,,,0,,,42,0
73319,note_on,119,0,0,,,,,,,,,0,,,68,0
73320,note_on,1,0,0,,,,,,,,,0,,,71,96
73439,note_on,119,0,0,,,,,,,,,0,,,71,0
73440,note_on,0,0,1,,,,,,,,,0,,,52,96
73440,note_on,162,0,1,,,,,,,,,0,,,40,96
73440,note_on,1,0,0,,,,,,,,,0,,,76,96
73518,note_on,78,0,1,,,,,,,,,0,,,40,0
73518,note_on,0,0,1,,,,,,,,,0,,,52,0
73559,note_on,119,0,0,,,,,,,,,0,,,76,0
73560,note_on,1,0,0,,,,,,,,,0,,,80,96
73679,note_on,119,0,0,,,,,,,,,0,,,80,0
73680,note_on,162,0,1,,,,,,,,,0,,,37,96
73680,note_on,1,0,0,,,,,,,,,0,,,83,96
73680,note_on,0,0,1,,,,,,,,,0,,,49,96
73758,note_on,78,0,1,,,,,,,,,0,,,37,0
73758,note_on,0,0,1,,,,,,,,,0,,,49,0
73799,note_on,119,0,0,,,,,,,,,0,,,83,0
73800,note_on,1,0,0,,,,,,,,,0,,,88,96
73919,note_on,119,0,0,,,,,,,,,0,,,88,0
73920,note_on,1,0,0,,,,,,,,,0,,,92,96
73920,note_on,0,0,1,,,,,,,,,0,,,47,96
73920,note_on,162,0,1,,,,,,,,,0,,,35,96
73998,note_on,78,0,1,,,,,,,,,0,,,35,0
73998,note_on,0,0,1,,,,,,,,,0,,,47,0
74039,note_on,119,0,0,,,,,,,,,0,,,92,0
74040,note_on,1,0,0,,,,,,,,,0,,,94,96
74153,note_on,113,0,0,,,,,,,,,0,,,94,0
74160,note_on,0,0,0,,,,,,,,,0,,,88,96
74160,note_on,0,0,0,,,,,,,,,0,,,95,96
74160,note_on,0,0,1,,,,,,,,,0,,,44,96
74160,note_on,162,0,1,,,,,,,,,0,,,32,96
74160,note_on,7,0,0,,,,,,,,,0,,,83,96
74238,note_on,0,0,0,,,,,,,,,0,,,95,0
74238,note_on,0,0,0,,,,,,,,,0,,,88,0
74238,note_on,78,0,0,,,,,,,,,0,,,83,0
74238,note_on,78,0,1,,,,,,,,,0,,,32,0
74238,note_on,0,0,1,,,,,,,,,0,,,44,0
74400,note_on,162,0,1,,,,,,,,,0,,,34,96
74400,note_on,0,0,0,,,,,,,,,0,,,98,96
74400,note_on,0,0,0,,,,,,,,,0,,,89,96
74400,note_on,162,0,0,,,,,,,,,0,,,86,96
74400,note_on,0,0,1,,,,,,,,,0,,,41,96
74400,note_on,0,0,1,,,,,,,,,0,,,46,96
74478,note_on,78,0,0,,,,,,,,,0,,,86,0
74478,note_on,78,0,1,,,,,,,,,0,,,34,0
74478,note_on,0,0,1,,,,,,,,,0,,,41,0
74478,note_on,0,0,1,,,,,,,,,0,,,46,0
74478,note_on,0,0,0,,,,,,,,,0,,,89,0
74478,note_on,0,0,0,,,,,,,,,0,,,98,0
74640,note_on,162,0,0,,,,,,,,,0,,,65,96
74642,control_change,2,0,0,,,,,,,64,127,0,,,,
74753,note_on,111,0,0,,,,,,,,,0,,,65,0
74760,note_on,7,0,0,,,,,,,,,0,,,68,96
74760,note_on,0,0,0,,,,,,,,,0,,,70,96
74873,note_on,0,0,0,,,,,,,,,0,,,70,0
74873,note_on,113,0,0,,,,,,,,,0,,,68,0
74880,note_on,7,0,0,,,,,,,,,0,,,63,96
74993,note_on,113,0,0,,,,,,,,,0,,,63,0
75000,note_on,7,0,0,,,,,,,,,0,,,68,96
75000,note_on,0,0,0,,,,,,,,,0,,,70,96
75113,note_on,113,0,0,,,,,,,,,0,,,68,0
75113,note_on,0,0,0,,,,,,,,,0,,,70,0
75120,note_on,7,0,0,,,,,,,,,0,,,62,96
75233,note_on,113,0,0,,,,,,,,,0,,,62,0
75240,note_on,7,0,0,,,,,,,,,0,,,68,96
75240,note_on,0,0,0,,,,,,,,,0,,,70,96
75353,note_on,0,0,0,,,,,,,,,0,,,70,0
75353,note_on,113,0,0,,,,,,,,,0,,,68,0
75360,note_on,7,0,0,,,,,,,,,0,,,60,96
75473,note_on,113,0,0,,,,,,,,,0,,,60,0
75480,note_on,0,0,0,,,,,,,,,0,,,70,96
75480,note_on,7,0,0,,,,,,,,,0,,,68,96
75593,note_on,0,0,0,,,,,,,,,0,,,70,0
75593,note_on,113,0,0,,,,,,,,,0,,,68,0
75600,note_on,7,0,0,,,,,,,,,0,,,58,96
75713,note_on,113,0,0,,,,,,,,,0,,,58,0
75720,note_on,0,0,0,,,,,,,,,0,,,70,96
75720,note_on,7,0,0,,,,,,,,,0,,,68,96
75833,note_on,113,0,0,,,,,,,,,0,,,68,0
75833,note_on,0,0,0,,,,,,,,,0,,,70,0
75840,note_on,1362,0,1,,,,,,,,,0,,,44,96
75840,note_on,0,0,1,,,,,,,,,0,,,56,96
75840,note_on,0,0,1,,,,,,,,,0,,,52,96
75840,note_on,7,0,0,,,,,,,,,0,,,59,96
75840,note_on,0,0,0,,,,,,,,,0,,,71,96
75841,control_change,1,0,0,,,,,,,64,0,0,,,,
75842,control_change,2,0,1,,,,,,,64,127,0,,,,
75918,note_on,76,0,1,,,,,,,,,0,,,44,0
75918,note_on,0,0,1,,,,,,,,,0,,,52,0
75918,note_on,0,0,1,,,,,,,,,0,,,56,0
75959,note_on,118,0,0,,,,,,,,,0,,,59,0
75959,note_on,0,0,0,,,,,,,,,0,,,71,0
75960,note_on,1,0,0,,,,,,,,,0,,,64,96
76079,note_on,119,0,0,,,,,,,,,0,,,64,0
76080,note_on,0,0,1,,,,,,,,,0,,,54,96
76080,note_on,162,0,1,,,,,,,,,0,,,42,96
76080,note_on,1,0,0,,,,,,,,,0,,,68,96
76158,note_on,78,0,1,,,,,,,,,0,,,42,0
76158,note_on,0,0,1,,,,,,,,,0,,,54,0
76199,note_on,119,0,0,,,,,,,,,0,,,68,0
76200,note_on,1,0,0,,,,,,,,,0,,,71,96
76319,note_on,119,0,0,,,,,,,,,0,,,71,0
76320,note_on,0,0,1,,,,,,,,,0,,,52,96
76320,note_on,162,0,1,,,,,,,,,0,,,40,96
76320,note_on,1,0,0,,,,,,,,,0,,,76,96
76398,note_on,0,0,1,,,,,,,,,0,,,52,0
76398,note_on,78,0,1,,,,,,,,,0,,,40,0
76439,note_on,119,0,0,,,,,,,,,0,,,76,0
76440,note_on,1,0,0,,,,,,,,,0,,,80,96
76559,note_on,119,0,0,,,,,,,,,0,,,80,0
76560,note_on,0,0,1,,,,,,,,,0,,,49,96
76560,note_on,162,0,1,,,,,,,,,0,,,37,96
76560,note_on,1,0,0,,,,,,,,,0,,,83,96
76638,note_on,78,0,1,,,,,,,,,0,,,37,0
76638,note_on,0,0,1,,,,,,,,,0,,,49,0
76679,note_on,119,0,0,,,,,,,,,0,,,83,0
76680,note_on,1,0,0,,,,,,,,,0,,,88,96
76799,note_on,119,0,0,,,,,,,,,0,,,88,0
76800,note_on,0,0,1,,,,,,,,,0,,,47,96
76800,note_on,162,0,1,,,,,,,,,0,,,35,96
76800,note_on,1,0,0,,,,,,,,,0,,,92,96
76878,note_on,0,0,1,,,,,,,,,0,,,47,0
76878,note_on,78,0,1,,,,,,,,,0,,,35,0
76919,note_on,119,0,0,,,,,,,,,0,,,92,0
76920,note_on,1,0,0,,,,,,,,,0,,,94,96
77033,note_on,113,0,0,,,,,,,,,0,,,94,0
77040,note_on,0,0,0,,,,,,,,,0,,,88,96
77040,note_on,0,0,0,,,,,,,,,0,,,95,96
77040,note_on,162,0,1,,,,,,,,,0,,,32,96
77040,note_on,0,0,1,,,,,,,,,0,,,44,96
77040,note_on,7,0,0,,,,,,,,,0,,,83,96
77118,note_on,0,0,1,,,,,,,,,0,,,44,0
77118,note_on,78,0,0,,,,,,,,,0,,,83,0
77118,note_on,0,0,0,,,,,,,,,0,,,95,0
77118,note_on,0,0,0,,,,,,,,,0,,,88,0
77118,note_on,78,0,1,,,,,,,,,0,,,32,0
77280,note_on,0,0,1,,,,,,,,,0,,,46,96
77280,note_on,162,0,0,,,,,,,,,0,,,86,96
77280,note_on,0,0,0,,,,,,,,,0,,,98,96
77280,note_on,0,0,1,,,,,,,,,0,,,41,96
77280,note_on,0,0,0,,,,,,,,,0,,,89,96
77280,note_on,162,0,1,,,,,,,,,0,,,34,96
77281,control_change,1,0,1,,,,,,,64,0,0,,,,
77358,note_on,78,0,0,,,,,,,,,0,,,86,0
77358,note_on,0,0,0,,,,,,,,,0,,,89,0
77358,note_on,0,0,0,,,,,,,,,0,,,98,0
77358,note_on,0,0,1,,,,,,,,,0,,,41,0
77358,note_on,0,0,1,,,,,,,,,0,,,46,0
77358,note_on,77,0,1,,,,,,,,,0,,,34,0
77640,note_on,0,0,0,,,,,,,,,0,,,82,96
77640,note_on,0,0,0,,,,,,,,,0,,,74,96
77640,note_on,0,0,1,,,,,,,,,0,,,68,96
77640,note_on,282,0,0,,,,,,,,,0,,,70,96
77640,note_on,0,0,1,,,,,,,,,0,,,65,96
77640,note_on,282,0,1,,,,,,,,,0,,,58,96
77753,note_on,0,0,0,,,,,,,,,0,,,82,0
77753,note_on,113,0,0,,,,,,,,,0,,,70,0
77753,note_on,0,0,0,,,,,,,,,0,,,74,0
77753,note_on,0,0,1,,,,,,,,,0,,,68,0
77753,note_on,113,0,1,,,,,,,,,0,,,58,0
77753,note_on,0,0,1,,,,,,,,,0,,,65,0
77760,note_on,7,0,0,,,,,,,,,0,,,70,96
77760,note_on,0,0,0,,,,,,,,,0,,,74,96
77760,note_on,0,0,1,,,,,,,,,0,,,65,96
77760,note_on,0,0,1,,,,,,,,,0,,,68,96
77760,note_on,0,0,0,,,,,,,,,0,,,82,96
77760,note_on,7,0,1,,,,,,,,,0,,,58,96
77987,note_on,0,0,0,,,,,,,,,0,,,74,0
77987,note_on,227,0,0,,,,,,,,,0,,,70,0
77987,note_on,0,0,1,,,,,,,,,0,,,68,0
77987,note_on,0,0,1,,,,,,,,,0,,,65,0
77987,note_on,0,0,0,,,,,,,,,0,,,82,0
77987,note_on,227,0,1,,,,,,,,,0,,,58,0
78000,note_on,0,0,0,,,,,,,,,0,,,74,96
78000,note_on,0,0,0,,,,,,,,,0,,,82,96
78000,note_on,13,0,0,,,,,,,,,0,,,70,96
78000,note_on,0,0,1,,,,,,,,,0,,,68,96
78000,note_on,0,0,1,,,,,,,,,0,,,65,96
78000,note_on,13,0,1,,,,,,,,,0,,,58,96
78078,note_on,0,0,0,,,,,,,,,0,,,74,0
78078,note_on,0,0,0,,,,,,,,,0,,,82,0
78078,note_on,78,0,0,,,,,,,,,0,,,70,0
78078,note_on,78,0,1,,,,,,,,,0,,,58,0
78078,note_on,0,0,1,,,,,,,,,0,,,68,0
78078,note_on,0,0,1,,,,,,,,,0,,,65,0
78360,note_on,282,0,1,,,,,,,,,0,,,57,96
78360,note_on,282,0,0,,,,,,,,,0,,,71,96
78360,note_on,0,0,1,,,,,,,,,0,,,66,96
78360,note_on,0,0,0,,,,,,,,,0,,,83,96
78360,note_on,0,0,1,,,,,,,,,0,,,63,96
78360,note_on,0,0,0,,,,,,,,,0,,,75,96
78473,note_on,0,0,0,,,,,,,,,0,,,83,0
78473,note_on,0,0,0,,,,,,,,,0,,,75,0
78473,note_on,113,0,0,,,,,,,,,0,,,71,0
78473,note_on,113,0,1,,,,,,,,,0,,,57,0
78473,note_on,0,0,1,,,,,,,,,0,,,63,0
78473,note_on,0,0,1,,,,,,,,,0,,,66,0
78480,note_on,0,0,0,,,,,,,,,0,,,83,96
78480,note_on,7,0,0,,,,,,,,,0,,,71,96
78480,note_on,7,0,1,,,,,,,,,0,,,57,96
78480,note_on,0,0,1,,,,,,,,,0,,,66,96
78480,note_on,0,0,1,,,,,,,,,0,,,63,96
78480,note_on,0,0,0,,,,,,,,,0,,,75,96
78707,note_on,227,0,0,,,,,,,,,0,,,71,0
78707,note_on,0,0,1,,,,,,,,,0,,,63,0
78707,note_on,0,0,1,,,,,,,,,0,,,66,0
78707,note_on,0,0,0,,,,,,,,,0,,,83,0
78707,note_on,0,0,0,,,,,,,,,0,,,75,0
78707,note_on,227,0,1,,,,,,,,,0,,,57,0
78720,note_on,0,0,1,,,,,,,,,0,,,63,96
78720,note_on,0,0,1,,,,,,,,,0,,,66,96
78720,note_on,13,0,1,,,,,,,,,0,,,57,96
78720,note_on,13,0,0,,,,,,,,,0,,,71,96
78720,note_on,0,0,0,,,,,,,,,0,,,83,96
78720,note_on,0,0,0,,,,,,,,,0,,,75,96
78798,note_on,0,0,0,,,,,,,,,0,,,75,0
78798,note_on,0,0,0,,,,,,,,,0,,,83,0
78798,note_on,0,0,1,,,,,,,,,0,,,63,0
78798,note_on,78,0,0,,,,,,,,,0,,,71,0
78798,note_on,0,0,1,,,,,,,,,0,,,66,0
78798,note_on,78,0,1,,,,,,,,,0,,,57,0
79080,note_on,282,0,1,,,,,,,,,0,,,55,96
79080,note_on,282,0,0,,,,,,,,,0,,,72,96
79080,note_on,0,0,1,,,,,,,,,0,,,58,96
79080,note_on,0,0,0,,,,,,,,,0,,,76,96
79080,note_on,0,0,1,,,,,,,,,0,,,64,96
79080,note_on,0,0,0,,,,,,,,,0,,,84,96
79193,note_on,0,0,1,,,,,,,,,0,,,58,0
79193,note_on,0,0,0,,,,,,,,,0,,,84,0
79193,note_on,113,0,0,,,,,,,,,0,,,72,0
79193,note_on,0,0,1,,,,,,,,,0,,,64,0
79193,note_on,113,0,1,,,,,,,,,0,,,55,0
79193,note_on,0,0,0,,,,,,,,,0,,,76,0
79200,note_on,7,0,0,,,,,,,,,0,,,72,96
79200,note_on,0,0,1,,,,,,,,,0,,,64,96
79200,note_on,0,0,0,,,,,,,,,0,,,76,96
79200,note_on,0,0,0,,,,,,,,,0,,,84,96
79200,note_on,0,0,1,,,,,,,,,0,,,58,96
79200,note_on,7,0,1,,,,,,,,,0,,,55,96
79427,note_on,227,0,1,,,,,,,,,0,,,55,0
79427,note_on,0,0,0,,,,,,,,,0,,,76,0
79427,note_on,0,0,1,,,,,,,,,0,,,64,0
79427,note_on,0,0,1,,,,,,,,,0,,,58,0
79427,note_on,0,0,0,,,,,,,,,0,,,84,0
79427,note_on,227,0,0,,,,,,,,,0,,,72,0
79440,note_on,0,0,0,,,,,,,,,0,,,76,96
79440,note_on,0,0,1,,,,,,,,,0,,,64,96
79440,note_on,13,0,1,,,,,,,,,0,,,55,96
79440,note_on,13,0,0,,,,,,,,,0,,,72,96
79440,note_on,0,0,0,,,,,,,,,0,,,84,96
79440,note_on,0,0,1,,,,,,,,,0,,,58,96
79518,note_on,0,0,0,,,,,,,,,0,,,84,0
79518,note_on,0,0,0,,,,,,,,,0,,,76,0
79518,note_on,78,0,0,,,,,,,,,0,,,72,0
79518,note_on,0,0,1,,,,,,,,,0,,,64,0
79518,note_on,0,0,1,,,,,,,,,0,,,58,0
79518,note_on,78,0,1,,,,,,,,,0,,,55,0
79800,note_on,282,0,1,,,,,,,,,0,,,53,96
79800,note_on,282,0,0,,,,,,,,,0,,,73,96
79800,note_on,0,0,0,,,,,,,,,0,,,77,96
79800,note_on,0,0,1,,,,,,,,,0,,,56,96
79800,note_on,0,0,0,,,,,,,,,0,,,85,96
79800,note_on,0,0,1,,,,,,,,,0,,,61,96
79913,note_on,0,0,0,,,,,,,,,0,,,85,0
79913,note_on,113,0,1,,,,,,,,,0,,,53,0
79913,note_on,0,0,0,,,,,,,,,0,,,77,0
79913,note_on,0,0,1,,,,,,,,,0,,,56,0
79913,note_on,0,0,1,,,,,,,,,0,,,61,0
79913,note_on,113,0,0,,,,,,,,,0,,,73,0
79920,note_on,0,0,0,,,,,,,,,0,,,85,96
79920,note_on,7,0,1,,,,,,,,,0,,,53,96
79920,note_on,0,0,1,,,,,,,,,0,,,56,96
79920,note_on,0,0,1,,,,,,,,,0,,,61,96
79920,note_on,0,0,0,,,,,,,,,0,,,77,96
79920,note_on,7,0,0,,,,,,,,,0,,,73,96
80147,note_on,0,0,1,,,,,,,,,0,,,61,0
80147,note_on,227,0,0,,,,,,,,,0,,,73,0
80147,note_on,227,0,1,,,,,,,,,0,,,53,0
80147,note_on,0,0,0,,,,,,,,,0,,,85,0
80147,note_on,0,0,0,,,,,,,,,0,,,77,0
80147,note_on,0,0,1,,,,,,,,,0,,,56,0
80160,note_on,0,0,1,,,,,,,,,0,,,56,96
80160,note_on,0,0,0,,,,,,,,,0,,,77,96
80160,note_on,13,0,1,,,,,,,,,0,,,53,96
80160,note_on,13,0,0,,,,,,,,,0,,,73,96
80160,note_on,0,0,0,,,,,,,,,0,,,85,96
80160,note_on,0,0,1,,,,,,,,,0,,,61,96
80238,note_on,0,0,0,,,,,,,,,0,,,77,0
80238,note_on,78,0,1,,,,,,,,,0,,,53,0
80238,note_on,0,0,1,,,,,,,,,0,,,56,0
80238,note_on,78,0,0,,,,,,,,,0,,,73,0
80238,note_on,0,0,0,,,,,,,,,0,,,85,0
80238,note_on,0,0,1,,,,,,,,,0,,,61,0
80520,note_on,0,0,0,,,,,,,,,0,,,89,96
80520,note_on,282,0,1,,,,,,,,,0,,,47,96
80520,note_on,0,0,0,,,,,,,,,0,,,85,96
80520,set_tempo,282,1,0,,,,,,461538,,,,,,,
80520,note_on,0,0,0,,,,,,,,,0,,,80,96
80520,note_on,0,0,0,,,,,,,,,0,,,77,96
80520,note_on,0,0,1,,,,,,,,,0,,,59,96
80520,note_on,0,0,1,,,,,,,,,0,,,53,96
80633,note_on,113,0,0,,,,,,,,,0,,,77,0
80633,note_on,113,0,1,,,,,,,,,0,,,47,0
80633,note_on,0,0,1,,,,,,,,,0,,,59,0
80633,note_on,0,0,1,,,,,,,,,0,,,53,0
80633,note_on,0,0,0,,,,,,,,,0,,,80,0
80633,note_on,0,0,0,,,,,,,,,0,,,85,0
80633,note_on,0,0,0,,,,,,,,,0,,,89,0
80640,note_on,7,0,0,,,,,,,,,0,,,77,96
80640,note_on,7,0,1,,,,,,,,,0,,,47,96
80640,note_on,0,0,0,,,,,,,,,0,,,80,96
80640,note_on,0,0,0,,,,,,,,,0,,,85,96
80640,note_on,0,0,1,,,,,,,,,0,,,59,96
80640,note_on,0,0,0,,,,,,,,,0,,,89,96
80640,note_on,0,0,1,,,,,,,,,0,,,53,96
80867,note_on,227,0,1,,,,,,,,,0,,,47,0
80867,note_on,0,0,0,,,,,,,,,0,,,85,0
80867,note_on,0,0,0,,,,,,,,,0,,,80,0
80867,note_on,0,0,0,,,,,,,,,0,,,89,0
80867,note_on,0,0,1,,,,,,,,,0,,,53,0
80867,note_on,0,0,1,,,,,,,,,0,,,59,0
80867,note_on,227,0,0,,,,,,,,,0,,,77,0
80880,note_on,13,0,1,,,,,,,,,0,,,47,96
80880,note_on,13,0,0,,,,,,,,,0,,,77,96
80880,note_on,0,0,0,,,,,,,,,0,,,85,96
80880,note_on,0,0,0,,,,,,,,,0,,,80,96
80880,note_on,0,0,0,,,,,,,,,0,,,89,96
80880,note_on,0,0,1,,,,,,,,,0,,,59,96
80880,note_on,0,0,1,,,,,,,,,0,,,53,96
80958,note_on,0,0,0,,,,,,,,,0,,,89,0
80958,note_on,0,0,0,,,,,,,,,0,,,85,0
80958,note_on,0,0,0,,,,,,,,,0,,,80,0
80958,note_on,0,0,1,,,,,,,,,0,,,53,0
80958,note_on,78,0,0,,,,,,,,,0,,,77,0
80958,note_on,78,0,1,,,,,,,,,0,,,47,0
80958,note_on,0,0,1,,,,,,,,,0,,,59,0
81240,set_tempo,282,1,0,,,,,,500000,,,,,,,
81240,note_on,282,0,1,,,,,,,,,0,,,46,96
81240,note_on,0,0,0,,,,,,,,,0,,,80,96
81240,note_on,0,0,0,,,,,,,,,0,,,86,96
81240,note_on,0,0,1,,,,,,,,,0,,,53,96
81240,note_on,0,0,1,,,,,,,,,0,,,58,96
81240,note_on,0,0,0,,,,,,,,,0,,,94,96
81353,note_on,113,0,0,,,,,,,,,0,,,80,0
81353,note_on,0,0,0,,,,,,,,,0,,,86,0
81353,note_on,0,0,0,,,,,,,,,0,,,94,0
81353,note_on,0,0,1,,,,,,,,,0,,,58,0
81353,note_on,0,0,1,,,,,,,,,0,,,53,0
81353,note_on,113,0,1,,,,,,,,,0,,,46,0
81360,note_on,0,0,0,,,,,,,,,0,,,86,96
81360,note_on,7,0,1,,,,,,,,,0,,,46,96
81360,set_tempo,7,1,0,,,,,,545455,,,,,,,
81360,note_on,0,0,0,,,,,,,,,0,,,80,96
81360,note_on,0,0,1,,,,,,,,,0,,,58,96
81360,note_on,0,0,1,,,,,,,,,0,,,53,96
81360,note_on,0,0,0,,,,,,,,,0,,,94,96
81587,note_on,227,0,0,,,,,,,,,0,,,80,0
81587,note_on,0,0,0,,,,,,,,,0,,,86,0
81587,note_on,0,0,0,,,,,,,,,0,,,94,0
81587,note_on,227,0,1,,,,,,,,,0,,,46,0
81587,note_on,0,0,1,,,,,,,,,0,,,53,0
81587,note_on,0,0,1,,,,,,,,,0,,,58,0
81600,note_on,0,0,0,,,,,,,,,0,,,86,96
81600,note_on,0,0,1,,,,,,,,,0,,,58,96
81600,set_tempo,13,1,0,,,,,,857143,,,,,,,
81600,note_on,0,0,0,,,,,,,,,0,,,94,96
81600,note_on,0,0,1,,,,,,,,,0,,,53,96
81600,note_on,0,0,0,,,,,,,,,0,,,80,96
81600,note_on,13,0,1,,,,,,,,,0,,,46,96
81602,control_change,2,0,1,,,,,,,64,127,0,,,,
81678,note_on,78,0,0,,,,,,,,,0,,,80,0
81678,note_on,0,0,1,,,,,,,,,0,,,58,0
81678,note_on,0,0,0,,,,,,,,,0,,,86,0
81678,note_on,0,0,0,,,,,,,,,0,,,94,0
81678,note_on,76,0,1,,,,,,,,,0,,,46,0
81678,note_on,0,0,1,,,,,,,,,0,,,53,0
81960,set_tempo,282,1,0,,,,,,600000,,,,,,,
81960,note_on,282,0,1,,,,,,,,,0,,,58,96
81960,note_on,0,0,0,,,,,,,,,0,,,70,96
81961,control_change,1,0,1,,,,,,,64,0,0,,,,
82073,note_on,112,0,1,,,,,,,,,0,,,58,0
82073,note_on,113,0,0,,,,,,,,,0,,,70,0
82080,note_on,7,0,1,,,,,,,,,0,,,58,96
82080,note_on,7,0,0,,,,,,,,,0,,,70,96
82307,note_on,227,0,1,,,,,,,,,0,,,58,0
82307,note_on,227,0,0,,,,,,,,,0,,,70,0
82320,note_on,13,0,1,,,,,,,,,0,,,58,96
82320,note_on,13,0,0,,,,,,,,,0,,,70,96
82322,control_change,2,0,1,,,,,,,64,127,0,,,,
82547,note_on,227,0,0,,,,,,,,,0,,,70,0
82547,note_on,225,0,1,,,,,,,,,0,,,58,0
82680,note_on,133,0,1,,,,,,,,,0,,,58,96
82680,note_on,0,0,0,,,,,,,,,0,,,70,96
82680,set_tempo,133,1,0,,,,,,666667,,,,,,,
82681,control_change,1,0,1,,,,,,,64,0,0,,,,
82793,note_on,113,0,0,,,,,,,,,0,,,70,0
82793,note_on,112,0,1,,,,,,,,,0,,,58,0
82800,note_on,0,0,0,,,,,,,,,0,,,70,96
82800,note_on,7,0,1,,,,,,,,,0,,,58,96
82800,set_tempo,7,1,0,,,,,,857143,,,,,,,
83027,note_on,227,0,1,,,,,,,,,0,,,58,0
83027,note_on,227,0,0,,,,,,,,,0,,,70,0
83040,note_on,0,0,1,,,,,,,,,0,,,58,80
83040,note_on,0,0,0,,,,,,,,,0,,,67,80
83040,set_tempo,13,1,0,,,,,,500000,,,,,,,
83040,note_on,13,0,1,,,,,,,,,0,,,51,80
83040,note_on,0,0,0,,,,,,,,,0,,,70,80
83040,note_on,0,0,0,,,,,,,,,0,,,79,80
83040,note_on,0,0,1,,,,,,,,,0,,,63,80
83267,note_on,0,0,1,,,,,,,,,0,,,58,0
83267,note_on,0,0,0,,,,,,,,,0,,,70,0
83267,note_on,0,0,0,,,,,,,,,0,,,79,0
83267,note_on,227,0,0,,,,,,,,,0,,,67,0
83267,note_on,0,0,1,,,,,,,,,0,,,63,0
83267,note_on,227,0,1,,,,,,,,,0,,,51,0
83400,note_on,0,0,1,,,,,,,,,0,,,67,80
83400,note_on,133,0,1,,,,,,,,,0,,,63,80
83400,note_on,133,0,0,,,,,,,,,0,,,70,80
83400,note_on,0,0,0,,,,,,,,,0,,,75,80
83513,note_on,113,0,0,,,,,,,,,0,,,70,0
83513,note_on,113,0,1,,,,,,,,,0,,,63,0
83513,note_on,0,0,1,,,,,,,,,0,,,67,0
83513,note_on,0,0,0,,,,,,,,,0,,,75,0
83520,note_on,7,0,0,,,,,,,,,0,,,70,80
83520,note_on,7,0,1,,,,,,,,,0,,,63,80
83520,note_on,0,0,1,,,,,,,,,0,,,67,80
83520,note_on,0,0,0,,,,,,,,,0,,,75,80
83747,note_on,0,0,1,,,,,,,,,0,,,67,0
83747,note_on,227,0,1,,,,,,,,,0,,,63,0
83747,note_on,227,0,0,,,,,,,,,0,,,70,0
83747,note_on,0,0,0,,,,,,,,,0,,,75,0
83760,note_on,0,0,0,,,,,,,,,0,,,75,80
83760,note_on,13,0,0,,,,,,,,,0,,,70,80
83760,note_on,0,0,1,,,,,,,,,0,,,67,80
83760,note_on,13,0,1,,,,,,,,,0,,,63,80
83987,note_on,0,0,0,,,,,,,,,0,,,75,0
83987,note_on,227,0,1,,,,,,,,,0,,,63,0
83987,note_on,227,0,0,,,,,,,,,0,,,70,0
83987,note_on,0,0,1,,,,,,,,,0,,,67,0
84120,note_on,133,0,1,,,,,,,,,0,,,58,80
84120,note_on,133,0,0,,,,,,,,,0,,,67,80
84120,note_on,0,0,1,,,,,,,,,0,,,63,80
84120,note_on,0,0,0,,,,,,,,,0,,,70,80
84233,note_on,113,0,1,,,,,,,,,0,,,58,0
84233,note_on,0,0,1,,,,,,,,,0,,,63,0
84233,note_on,113,0,0,,,,,,,,,0,,,67,0
84233,note_on,0,0,0,,,,,,,,,0,,,70,0
84240,note_on,7,0,0,,,,,,,,,0,,,67,80
84240,note_on,7,0,1,,,,,,,,,0,,,58,80
84240,note_on,0,0,0,,,,,,,,,0,,,70,80
84240,note_on,0,0,1,,,,,,,,,0,,,63,80
84467,note_on,0,0,1,,,,,,,,,0,,,63,0
84467,note_on,227,0,1,,,,,,,,,0,,,58,0
84467,note_on,227,0,0,,,,,,,,,0,,,67,0
84467,note_on,0,0,0,,,,,,,,,0,,,70,0
84480,note_on,13,0,0,,,,,,,,,0,,,63,80
84480,note_on,0,0,0,,,,,,,,,0,,,67,80
84480,note_on,13,0,1,,,,,,,,,0,,,60,80
84707,note_on,227,0,0,,,,,,,,,0,,,63,0
84707,note_on,227,0,1,,,,,,,,,0,,,60,0
84707,note_on,0,0,0,,,,,,,,,0,,,67,0
84840,note_on,133,0,1,,,,,,,,,0,,,48,80
84840,set_tempo,133,1,0,,,,,,461538,,,,,,,
84840,note_on,0,0,1,,,,,,,,,0,,,55,80
84840,note_on,0,0,0,,,,,,,,,0,,,63,80
84840,note_on,0,0,0,,,,,,,,,0,,,60,80
84953,note_on,113,0,0,,,,,,,,,0,,,60,0
84953,note_on,113,0,1,,,,,,,,,0,,,48,0
84953,note_on,0,0,1,,,,,,,,,0,,,55,0
84953,note_on,0,0,0,,,,,,,,,0,,,63,0
84960,note_on,7,0,0,,,,,,,,,0,,,60,80
84960,note_on,0,0,1,,,,,,,,,0,,,55,80
84960,note_on,7,0,1,,,,,,,,,0,,,48,80
84960,note_on,0,0,0,,,,,,,,,0,,,63,80
85187,note_on,0,0,1,,,,,,,,,0,,,55,0
85187,note_on,227,0,0,,,,,,,,,0,,,60,0
85187,note_on,227,0,1,,,,,,,,,0,,,48,0
85187,note_on,0,0,0,,,,,,,,,0,,,63,0
85200,note_on,0,0,1,,,,,,,,,0,,,55,96
85200,note_on,13,0,1,,,,,,,,,0,,,48,96
85200,note_on,0,0,0,,,,,,,,,0,,,63,96
85200,note_on,13,0,0,,,,,,,,,0,,,60,96
85681,note_on,0,0,1,,,,,,,,,0,,,55,0
85681,note_on,481,0,1,,,,,,,,,0,,,48,0
85681,note_on,0,0,0,,,,,,,,,0,,,63,0
85681,note_on,481,0,0,,,,,,,,,0,,,60,0
85920,note_on,239,0,0,,,,,,,,,0,,,58,80
85920,note_on,239,0,1,,,,,,,,,0,,,46,80
85920,note_on,0,0,0,,,,,,,,,0,,,62,80
85920,note_on,0,0,0,,,,,,,,,0,,,70,80
85920,note_on,0,0,1,,,,,,,,,0,,,53,80
85920,note_on,0,0,1,,,,,,,,,0,,,56,80
86147,note_on,0,0,1,,,,,,,,,0,,,56,0
86147,note_on,227,0,1,,,,,,,,,0,,,46,0
86147,note_on,0,0,0,,,,,,,,,0,,,62,0
86147,note_on,0,0,0,,,,,,,,,0,,,70,0
86147,note_on,0,0,1,,,,,,,,,0,,,53,0
86147,note_on,227,0,0,,,,,,,,,0,,,58,0
86280,note_on,133,0,1,,,,,,,,,0,,,46,80
86280,note_on,133,0,0,,,,,,,,,0,,,58,80
86280,note_on,0,0,0,,,,,,,,,0,,,65,80
86280,note_on,0,0,1,,,,,,,,,0,,,56,80
86280,note_on,0,0,1,,,,,,,,,0,,,53,80
86393,note_on,113,0,1,,,,,,,,,0,,,46,0
86393,note_on,0,0,0,,,,,,,,,0,,,65,0
86393,note_on,0,0,1,,,,,,,,,0,,,56,0
86393,note_on,0,0,1,,,,,,,,,0,,,53,0
86393,note_on,113,0,0,,,,,,,,,0,,,58,0
86400,note_on,7,0,1,,,,,,,,,0,,,46,80
86400,note_on,0,0,1,,,,,,,,,0,,,56,80
86400,note_on,0,0,1,,,,,,,,,0,,,53,80
86400,note_on,7,0,0,,,,,,,,,0,,,58,80
86400,note_on,0,0,0,,,,,,,,,0,,,65,80
86627,note_on,0,0,0,,,,,,,,,0,,,65,0
86627,note_on,227,0,1,,,,,,,,,0,,,46,0
86627,note_on,227,0,0,,,,,,,,,0,,,58,0
86627,note_on,0,0,1,,,,,,,,,0,,,53,0
86627,note_on,0,0,1,,,,,,,,,0,,,56,0
86640,note_on,0,0,1,,,,,,,,,0,,,49,80
86640,note_on,0,0,1,,,,,,,,,0,,,56,80
86640,note_on,13,0,1,,,,,,,,,0,,,46,80
86640,note_on,13,0,0,,,,,,,,,0,,,58,80
86640,note_on,0,0,0,,,,,,,,,0,,,64,80
86867,note_on,0,0,0,,,,,,,,,0,,,64,0
86867,note_on,0,0,1,,,,,,,,,0,,,49,0
86867,note_on,227,0,1,,,,,,,,,0,,,46,0
86867,note_on,0,0,1,,,,,,,,,0,,,56,0
86867,note_on,227,0,0,,,,,,,,,0,,,58,0
86880,note_on,13,0,0,,,,,,,,,0,,,58,80
86880,note_on,0,0,1,,,,,,,,,0,,,50,80
86880,note_on,13,0,1,,,,,,,,,0,,,46,80
86880,note_on,0,0,1,,,,,,,,,0,,,56,80
86880,note_on,0,0,0,,,,,,,,,0,,,65,80
87107,note_on,0,0,1,,,,,,,,,0,,,50,0
87107,note_on,227,0,0,,,,,,,,,0,,,58,0
87107,note_on,227,0,1,,,,,,,,,0,,,46,0
87107,note_on,0,0,0,,,,,,,,,0,,,65,0
87107,note_on,0,0,1,,,,,,,,,0,,,56,0
87120,note_on,13,0,0,,,,,,,,,0,,,58,80
87120,note_on,0,0,1,,,,,,,,,0,,,56,80
87120,note_on,0,0,1,,,,,,,,,0,,,50,80
87120,note_on,0,0,0,,,,,,,,,0,,,70,80
87120,note_on,0,0,0,,,,,,,,,0,,,66,80
87120,note_on,13,0,1,,,,,,,,,0,,,46,80
87347,note_on,0,0,1,,,,,,,,,0,,,56,0
87347,note_on,0,0,1,,,,,,,,,0,,,50,0
87347,note_on,0,0,0,,,,,,,,,0,,,70,0
87347,note_on,0,0,0,,,,,,,,,0,,,66,0
87347,note_on,227,0,0,,,,,,,,,0,,,58,0
87347,note_on,227,0,1,,,,,,,,,0,,,46,0
87360,note_on,0,0,0,,,,,,,,,0,,,70,96
87360,note_on,0,0,0,,,,,,,,,0,,,67,96
87360,note_on,0,0,1,,,,,,,,,0,,,55,96
87360,note_on,13,0,1,,,,,,,,,0,,,51,96
87360,note_on,13,0,0,,,,,,,,,0,,,58,96
87841,note_on,0,0,0,,,,,,,,,0,,,70,0
87841,note_on,481,0,0,,,,,,,,,0,,,58,0
87841,note_on,481,0,1,,,,,,,,,0,,,51,0
87841,note_on,0,0,1,,,,,,,,,0,,,55,0
87841,note_on,0,0,0,,,,,,,,,0,,,67,0
88080,note_on,239,0,1,,,,,,,,,0,,,51,96
88080,note_on,0,0,0,,,,,,,,,0,,,67,96
88080,note_on,0,0,1,,,,,,,,,0,,,58,96
88080,note_on,239,0,0,,,,,,,,,0,,,63,96
88239,note_on,0,0,0,,,,,,,,,0,,,67,0
88239,note_on,0,0,1,,,,,,,,,0,,,58,0
88239,note_on,159,0,0,,,,,,,,,0,,,63,0
88239,note_on,159,0,1,,,,,,,,,0,,,51,0
88800,note_on,561,0,1,,,,,,,,,0,,,63,80
88800,note_on,0,0,1,,,,,,,,,0,,,67,80
88800,note_on,0,0,0,,,,,,,,,0,,,79,80
88800,note_on,0,0,0,,,,,,,,,0,,,75,80
88800,note_on,561,0,0,,,,,,,,,0,,,70,80
89027,note_on,0,0,0,,,,,,,,,0,,,79,0
89027,note_on,227,0,1,,,,,,,,,0,,,63,0
89027,note_on,0,0,0,,,,,,,,,0,,,75,0
89027,note_on,227,0,0,,,,,,,,,0,,,70,0
89027,note_on,0,0,1,,,,,,,,,0,,,67,0
89160,note_on,133,0,0,,,,,,,,,0,,,67,80
89160,note_on,0,0,0,,,,,,,,,0,,,75,80
89160,note_on,0,0,0,,,,,,,,,0,,,70,80
89160,note_on,0,0,1,,,,,,,,,0,,,63,80
89160,note_on,133,0,1,,,,,,,,,0,,,58,80
89273,note_on,0,0,0,,,,,,,,,0,,,70,0
89273,note_on,0,0,0,,,,,,,,,0,,,75,0
89273,note_on,0,0,1,,,,,,,,,0,,,63,0
89273,note_on,113,0,0,,,,,,,,,0,,,67,0
89273,note_on,113,0,1,,,,,,,,,0,,,58,0
89280,note_on,0,0,1,,,,,,,,,0,,,63,80
89280,note_on,7,0,0,,,,,,,,,0,,,67,80
89280,note_on,7,0,1,,,,,,,,,0,,,58,80
89280,note_on,0,0,0,,,,,,,,,0,,,75,80
89280,note_on,0,0,0,,,,,,,,,0,,,70,80
89507,note_on,227,0,0,,,,,,,,,0,,,67,0
89507,note_on,0,0,0,,,,,,,,,0,,,70,0
89507,note_on,227,0,1,,,,,,,,,0,,,58,0
89507,note_on,0,0,0,,,,,,,,,0,,,75,0
89507,note_on,0,0,1,,,,,,,,,0,,,63,0
89520,note_on,0,0,0,,,,,,,,,0,,,75,80
89520,note_on,0,0,1,,,,,,,,,0,,,63,80
89520,note_on,13,0,1,,,,,,,,,0,,,58,80
89520,note_on,0,0,0,,,,,,,,,0,,,70,80
89520,note_on,13,0,0,,,,,,,,,0,,,67,80
89747,note_on,227,0,1,,,,,,,,,0,,,58,0
89747,note_on,0,0,1,,,,,,,,,0,,,63,0
89747,note_on,0,0,0,,,,,,,,,0,,,75,0
89747,note_on,0,0,0,,,,,,,,,0,,,70,0
89747,note_on,227,0,0,,,,,,,,,0,,,67,0
89880,note_on,0,0,0,,,,,,,,,0,,,67,80
89880,note_on,0,0,0,,,,,,,,,0,,,70,80
89880,note_on,133,0,0,,,,,,,,,0,,,63,80
89880,note_on,133,0,1,,,,,,,,,0,,,55,80
89880,note_on,0,0,1,,,,,,,,,0,,,58,80
89993,note_on,0,0,1,,,,,,,,,0,,,58,0
89993,note_on,0,0,0,,,,,,,,,0,,,70,0
89993,note_on,0,0,0,,,,,,,,,0,,,67,0
89993,note_on,113,0,1,,,,,,,,,0,,,55,0
89993,note_on,113,0,0,,,,,,,,,0,,,63,0
90000,note_on,7,0,1,,,,,,,,,0,,,55,80
90000,note_on,0,0,0,,,,,,,,,0,,,70,80
90000,note_on,7,0,0,,,,,,,,,0,,,63,80
90000,note_on,0,0,0,,,,,,,,,0,,,67,80
90000,note_on,0,0,1,,,,,,,,,0,,,58,80
90227,note_on,0,0,0,,,,,,,,,0,,,70,0
90227,note_on,0,0,0,,,,,,,,,0,,,67,0
90227,note_on,227,0,1,,,,,,,,,0,,,55,0
90227,note_on,0,0,1,,,,,,,,,0,,,58,0
90227,note_on,227,0,0,,,,,,,,,0,,,63,0
90240,note_on,0,0,1,,,,,,,,,0,,,60,80
90240,note_on,13,0,1,,,,,,,,,0,,,55,80
90240,note_on,13,0,0,,,,,,,,,0,,,63,80
90240,note_on,0,0,0,,,,,,,,,0,,,67,80
90467,note_on,0,0,0,,,,,,,,,0,,,67,0
90467,note_on,0,0,1,,,,,,,,,0,,,60,0
90467,note_on,227,0,0,,,,,,,,,0,,,63,0
90467,note_on,227,0,1,,,,,,,,,0,,,55,0
90600,note_on,133,0,0,,,,,,,,,0,,,60,80
90600,note_on,0,0,1,,,,,,,,,0,,,55,80
90600,note_on,133,0,1,,,,,,,,,0,,,48,80
90600,note_on,0,0,0,,,,,,,,,0,,,63,80
90713,note_on,113,0,0,,,,,,,,,0,,,60,0
90713,note_on,0,0,0,,,,,,,,,0,,,63,0
90713,note_on,113,0,1,,,,,,,,,0,,,48,0
90713,note_on,0,0,1,,,,,,,,,0,,,55,0
90720,note_on,0,0,0,,,,,,,,,0,,,63,80
90720,note_on,7,0,1,,,,,,,,,0,,,48,80
90720,note_on,0,0,1,,,,,,,,,0,,,55,80
90720,note_on,7,0,0,,,,,,,,,0,,,60,80
90947,note_on,0,0,1,,,,,,,,,0,,,55,0
90947,note_on,0,0,0,,,,,,,,,0,,,63,0
90947,note_on,227,0,1,,,,,,,,,0,,,48,0
90947,note_on,227,0,0,,,,,,,,,0,,,60,0
90960,note_on,13,0,0,,,,,,,,,0,,,60,96
90960,note_on,0,0,0,,,,,,,,,0,,,63,96
90960,note_on,0,0,1,,,,,,,,,0,,,55,96
90960,note_on,13,0,1,,,,,,,,,0,,,48,96
91441,note_on,0,0,1,,,,,,,,,0,,,55,0
91441,note_on,0,0,0,,,,,,,,,0,,,63,0
91441,note_on,481,0,0,,,,,,,,,0,,,60,0
91441,note_on,481,0,1,,,,,,,,,0,,,48,0
91680,note_on,0,0,0,,,,,,,,,0,,,59,80
91680,note_on,0,0,1,,,,,,,,,0,,,55,80
91680,note_on,0,0,0,,,,,,,,,0,,,71,80
91680,note_on,239,0,1,,,,,,,,,0,,,43,80
91680,note_on,0,0,1,,,,,,,,,0,,,50,80
91680,set_tempo,239,1,0,,,,,,428571,,,,,,,
91680,note_on,0,0,0,,,,,,,,,0,,,62,80
91907,note_on,0,0,1,,,,,,,,,0,,,55,0
91907,note_on,0,0,1,,,,,,,,,0,,,50,0
91907,note_on,227,0,1,,,,,,,,,0,,,43,0
91907,note_on,0,0,0,,,,,,,,,0,,,71,0
91907,note_on,227,0,0,,,,,,,,,0,,,59,0
91907,note_on,0,0,0,,,,,,,,,0,,,62,0
92040,note_on,0,0,0,,,,,,,,,0,,,62,80
92040,note_on,133,0,0,,,,,,,,,0,,,59,80
92040,note_on,0,0,1,,,,,,,,,0,,,55,80
92040,note_on,133,0,1,,,,,,,,,0,,,43,80
92040,note_on,0,0,1,,,,,,,,,0,,,50,80
92153,note_on,113,0,1,,,,,,,,,0,,,43,0
92153,note_on,0,0,1,,,,,,,,,0,,,50,0
92153,note_on,0,0,1,,,,,,,,,0,,,55,0
92153,note_on,113,0,0,,,,,,,,,0,,,59,0
92153,note_on,0,0,0,,,,,,,,,0,,,62,0
92160,note_on,7,0,0,,,,,,,,,0,,,59,81
92160,note_on,0,0,0,,,,,,,,,0,,,62,81
92160,note_on,0,0,1,,,,,,,,,0,,,55,81
92160,note_on,7,0,1,,,,,,,,,0,,,43,81
92160,note_on,0,0,1,,,,,,,,,0,,,50,81
92387,note_on,227,0,0,,,,,,,,,0,,,59,0
92387,note_on,0,0,0,,,,,,,,,0,,,62,0
92387,note_on,0,0,1,,,,,,,,,0,,,50,0
92387,note_on,227,0,1,,,,,,,,,0,,,43,0
92387,note_on,0,0,1,,,,,,,,,0,,,55,0
92400,note_on,0,0,1,,,,,,,,,0,,,55,82
92400,note_on,0,0,1,,,,,,,,,0,,,50,82
92400,note_on,0,0,0,,,,,,,,,0,,,61,82
92400,note_on,13,0,1,,,,,,,,,0,,,43,82
92400,note_on,13,0,0,,,,,,,,,0,,,59,82
92627,note_on,227,0,0,,,,,,,,,0,,,59,0
92627,note_on,0,0,1,,,,,,,,,0,,,55,0
92627,note_on,227,0,1,,,,,,,,,0,,,43,0
92627,note_on,0,0,1,,,,,,,,,0,,,50,0
92627,note_on,0,0,0,,,,,,,,,0,,,61,0
92640,note_on,13,0,1,,,,,,,,,0,,,43,83
92640,note_on,0,0,1,,,,,,,,,0,,,50,83
92640,note_on,0,0,1,,,,,,,,,0,,,55,83
92640,note_on,0,0,0,,,,,,,,,0,,,62,83
92640,note_on,13,0,0,,,,,,,,,0,,,59,83
92867,note_on,227,0,1,,,,,,,,,0,,,43,0
92867,note_on,227,0,0,,,,,,,,,0,,,59,0
92867,note_on,0,0,0,,,,,,,,,0,,,62,0
92867,note_on,0,0,1,,,,,,,,,0,,,50,0
92867,note_on,0,0,1,,,,,,,,,0,,,55,0
92880,note_on,0,0,0,,,,,,,,,0,,,62,84
92880,note_on,0,0,0,,,,,,,,,0,,,67,84
92880,note_on,0,0,1,,,,,,,,,0,,,55,84
92880,note_on,13,0,0,,,,,,,,,0,,,59,84
92880,note_on,13,0,1,,,,,,,,,0,,,43,84
92880,note_on,0,0,1,,,,,,,,,0,,,50,84
93107,note_on,0,0,0,,,,,,,,,0,,,62,0
93107,note_on,227,0,1,,,,,,,,,0,,,43,0
93107,note_on,0,0,1,,,,,,,,,0,,,50,0
93107,note_on,0,0,1,,,,,,,,,0,,,55,0
93107,note_on,227,0,0,,,,,,,,,0,,,59,0
93107,note_on,0,0,0,,,,,,,,,0,,,67,0
93120,set_tempo,13,1,0,,,,,,514286,,,,,,,
93120,note_on,0,0,1,,,,,,,,,0,,,50,102
93120,note_on,0,0,0,,,,,,,,,0,,,71,122
93120,note_on,0,0,1,,,,,,,,,0,,,55,102
93120,note_on,13,0,1,,,,,,,,,0,,,43,102
93120,note_on,0,0,0,,,,,,,,,0,,,59,122
93120,note_on,0,0,0,,,,,,,,,0,,,62,122
93601,note_on,481,0,1,,,,,,,,,0,,,43,0
93601,note_on,0,0,1,,,,,,,,,0,,,55,0
93601,note_on,0,0,1,,,,,,,,,0,,,50,0
93839,note_on,0,0,0,,,,,,,,,0,,,59,0
93839,set_tempo,719,1,0,,,,,,428571,,,,,,,
93839,note_on,0,0,0,,,,,,,,,0,,,62,0
93839,note_on,0,0,0,,,,,,,,,0,,,71,0
93840,set_tempo,1,1,0,,,,,,642857,,,,,,,
93840,note_on,0,0,1,,,,,,,,,0,,,58,102
93840,note_on,0,0,1,,,,,,,,,0,,,53,102
93840,note_on,239,0,1,,,,,,,,,0,,,46,102
93840,note_on,0,0,0,,,,,,,,,0,,,58,0
93840,note_on,0,0,0,,,,,,,,,0,,,62,122
93840,note_on,0,0,0,,,,,,,,,0,,,58,122
93840,note_on,0,0,0,,,,,,,,,0,,,70,122
94321,note_on,481,0,1,,,,,,,,,0,,,46,0
94321,note_on,0,0,1,,,,,,,,,0,,,53,0
94559,set_tempo,719,1,0,,,,,,428571,,,,,,,
94559,note_on,0,0,0,,,,,,,,,0,,,70,0
94559,note_on,238,0,1,,,,,,,,,0,,,58,0
94559,note_on,0,0,0,,,,,,,,,0,,,62,0
94560,note_on,1,0,1,,,,,,,,,0,,,39,85
94560,note_on,0,0,0,,,,,,,,,0,,,82,85
94560,note_on,1,0,0,,,,,,,,,0,,,79,85
94560,note_on,0,0,1,,,,,,,,,0,,,51,85
94560,note_on,0,0,1,,,,,,,,,0,,,46,85
94560,note_on,0,0,0,,,,,,,,,0,,,91,85
94562,control_change,2,0,0,,,,,,,64,127,0,,,,
94787,note_on,0,0,0,,,,,,,,,0,,,91,0
94787,note_on,227,0,1,,,,,,,,,0,,,39,0
94787,note_on,0,0,0,,,,,,,,,0,,,82,0
94787,note_on,0,0,1,,,,,,,,,0,,,51,0
94787,note_on,225,0,0,,,,,,,,,0,,,79,0
94787,note_on,0,0,1,,,,,,,,,0,,,46,0
94920,note_on,0,0,0,,,,,,,,,0,,,79,85
94920,note_on,0,0,0,,,,,,,,,0,,,87,85
94920,note_on,0,0,1,,,,,,,,,0,,,51,85
94920,note_on,133,0,0,,,,,,,,,0,,,75,85
94920,note_on,133,0,1,,,,,,,,,0,,,43,85
94920,note_on,0,0,1,,,,,,,,,0,,,55,85
95033,note_on,0,0,0,,,,,,,,,0,,,79,0
95033,note_on,113,0,1,,,,,,,,,0,,,43,0
95033,note_on,0,0,1,,,,,,,,,0,,,55,0
95033,note_on,113,0,0,,,,,,,,,0,,,75,0
95033,note_on,0,0,0,,,,,,,,,0,,,87,0
95033,note_on,0,0,1,,,,,,,,,0,,,51,0
95040,note_on,7,0,0,,,,,,,,,0,,,75,85
95040,note_on,0,0,0,,,,,,,,,0,,,79,85
95040,note_on,0,0,1,,,,,,,,,0,,,51,85
95040,note_on,0,0,0,,,,,,,,,0,,,87,85
95040,note_on,0,0,1,,,,,,,,,0,,,55,85
95040,note_on,7,0,1,,,,,,,,,0,,,43,85
95267,note_on,0,0,1,,,,,,,,,0,,,55,0
95267,note_on,0,0,0,,,,,,,,,0,,,87,0
95267,note_on,227,0,1,,,,,,,,,0,,,43,0
95267,note_on,0,0,0,,,,,,,,,0,,,79,0
95267,note_on,227,0,0,,,,,,,,,0,,,75,0
95267,note_on,0,0,1,,,,,,,,,0,,,51,0
95280,note_on,13,0,1,,,,,,,,,0,,,43,85
95280,note_on,0,0,0,,,,,,,,,0,,,79,85
95280,note_on,0,0,1,,,,,,,,,0,,,55,85
95280,note_on,0,0,1,,,,,,,,,0,,,51,85
95280,note_on,0,0,0,,,,,,,,,0,,,87,85
95280,note_on,13,0,0,,,,,,,,,0,,,75,85
95507,note_on,0,0,0,,,,,,,,,0,,,87,0
95507,note_on,227,0,0,,,,,,,,,0,,,75,0
95507,note_on,0,0,0,,,,,,,,,0,,,79,0
95507,note_on,0,0,1,,,,,,,,,0,,,55,0
95507,note_on,0,0,1,,,,,,,,,0,,,51,0
95507,note_on,227,0,1,,,,,,,,,0,,,43,0
95640,note_on,133,0,1,,,,,,,,,0,,,46,85
95640,note_on,0,0,0,,,,,,,,,0,,,82,85
95640,note_on,0,0,0,,,,,,,,,0,,,75,85
95640,note_on,133,0,0,,,,,,,,,0,,,70,85
95640,note_on,0,0,1,,,,,,,,,0,,,58,85
95640,note_on,0,0,1,,,,,,,,,0,,,55,85
95753,note_on,113,0,1,,,,,,,,,0,,,46,0
95753,note_on,113,0,0,,,,,,,,,0,,,70,0
95753,note_on,0,0,1,,,,,,,,,0,,,58,0
95753,note_on,0,0,0,,,,,,,,,0,,,82,0
95753,note_on,0,0,0,,,,,,,,,0,,,75,0
95753,note_on,0,0,1,,,,,,,,,0,,,55,0
95760,note_on,0,0,0,,,,,,,,,0,,,82,85
95760,note_on,0,0,0,,,,,,,,,0,,,75,85
95760,note_on,7,0,1,,,,,,,,,0,,,46,85
95760,note_on,7,0,0,,,,,,,,,0,,,70,85
95760,note_on,0,0,1,,,,,,,,,0,,,55,85
95760,note_on,0,0,1,,,,,,,,,0,,,58,85
95987,note_on,227,0,1,,,,,,,,,0,,,46,0
95987,note_on,0,0,1,,,,,,,,,0,,,58,0
95987,note_on,0,0,1,,,,,,,,,0,,,55,0
95987,note_on,0,0,0,,,,,,,,,0,,,75,0
95987,note_on,0,0,0,,,,,,,,,0,,,82,0
95987,note_on,227,0,0,,,,,,,,,0,,,70,0
96000,note_on,0,0,0,,,,,,,,,0,,,79,85
96000,note_on,13,0,1,,,,,,,,,0,,,48,85
96000,note_on,0,0,1,,,,,,,,,0,,,55,85
96000,note_on,0,0,0,,,,,,,,,0,,,75,85
96000,note_on,0,0,1,,,,,,,,,0,,,60,85
96000,note_on,13,0,0,,,,,,,,,0,,,67,85
96001,control_change,1,0,0,,,,,,,64,0,0,,,,
96002,control_change,1,0,0,,,,,,,64,127,0,,,,
96227,note_on,0,0,1,,,,,,,,,0,,,55,0
96227,note_on,227,0,1,,,,,,,,,0,,,48,0
96227,note_on,0,0,1,,,,,,,,,0,,,60,0
96227,note_on,225,0,0,,,,,,,,,0,,,67,0
96227,note_on,0,0,0,,,,,,,,,0,,,75,0
96227,note_on,0,0,0,,,,,,,,,0,,,79,0
96360,note_on,133,0,1,,,,,,,,,0,,,55,85
96360,note_on,0,0,0,,,,,,,,,0,,,72,85
96360,note_on,0,0,1,,,,,,,,,0,,,63,85
96360,note_on,0,0,1,,,,,,,,,0,,,60,85
96360,note_on,133,0,0,,,,,,,,,0,,,67,85
96360,note_on,0,0,0,,,,,,,,,0,,,75,85
96473,note_on,0,0,1,,,,,,,,,0,,,63,0
96473,note_on,0,0,1,,,,,,,,,0,,,60,0
96473,note_on,0,0,0,,,,,,,,,0,,,75,0
96473,note_on,0,0,0,,,,,,,,,0,,,72,0
96473,note_on,113,0,1,,,,,,,,,0,,,55,0
96473,note_on,113,0,0,,,,,,,,,0,,,67,0
96480,note_on,7,0,1,,,,,,,,,0,,,55,85
96480,note_on,0,0,1,,,,,,,,,0,,,60,85
96480,note_on,0,0,0,,,,,,,,,0,,,72,85
96480,note_on,0,0,0,,,,,,,,,0,,,75,85
96480,note_on,7,0,0,,,,,,,,,0,,,67,85
96480,note_on,0,0,1,,,,,,,,,0,,,63,85
96707,note_on,0,0,1,,,,,,,,,0,,,63,0
96707,note_on,227,0,0,,,,,,,,,0,,,67,0
96707,note_on,0,0,0,,,,,,,,,0,,,72,0
96707,note_on,0,0,0,,,,,,,,,0,,,75,0
96707,note_on,227,0,1,,,,,,,,,0,,,55,0
96707,note_on,0,0,1,,,,,,,,,0,,,60,0
96720,note_on,13,0,0,,,,,,,,,0,,,67,102
96720,note_on,13,0,1,,,,,,,,,0,,,55,102
96720,note_on,0,0,1,,,,,,,,,0,,,63,102
96720,note_on,0,0,0,,,,,,,,,0,,,75,102
96720,note_on,0,0,0,,,,,,,,,0,,,72,102
96720,note_on,0,0,1,,,,,,,,,0,,,60,102
97201,note_on,481,0,1,,,,,,,,,0,,,55,0
97201,note_on,0,0,0,,,,,,,,,0,,,75,0
97201,note_on,0,0,0,,,,,,,,,0,,,72,0
97201,note_on,0,0,1,,,,,,,,,0,,,63,0
97201,note_on,0,0,1,,,,,,,,,0,,,60,0
97201,note_on,481,0,0,,,,,,,,,0,,,67,0
97440,note_on,239,0,0,,,,,,,,,0,,,68,85
97440,note_on,239,0,1,,,,,,,,,0,,,46,85
97440,note_on,0,0,0,,,,,,,,,0,,,74,85
97440,note_on,0,0,1,,,,,,,,,0,,,58,85
97440,note_on,0,0,1,,,,,,,,,0,,,53,85
97440,note_on,0,0,0,,,,,,,,,0,,,70,85
97440,note_on,0,0,0,,,,,,,,,0,,,82,85
97441,control_change,1,0,0,,,,,,,64,0,0,,,,
97442,control_change,1,0,0,,,,,,,64,127,0,,,,
97667,note_on,0,0,0,,,,,,,,,0,,,70,0
97667,note_on,0,0,0,,,,,,,,,0,,,74,0
97667,note_on,0,0,0,,,,,,,,,0,,,82,0
97667,note_on,0,0,1,,,,,,,,,0,,,58,0
97667,note_on,0,0,1,,,,,,,,,0,,,53,0
97667,note_on,225,0,0,,,,,,,,,0,,,68,0
97667,note_on,227,0,1,,,,,,,,,0,,,46,0
97800,note_on,0,0,1,,,,,,,,,0,,,65,85
97800,note_on,0,0,1,,,,,,,,,0,,,62,85
97800,note_on,133,0,0,,,,,,,,,0,,,68,85
97800,note_on,0,0,0,,,,,,,,,0,,,70,85
97800,note_on,0,0,0,,,,,,,,,0,,,77,85
97800,note_on,133,0,1,,,,,,,,,0,,,58,85
97913,note_on,113,0,0,,,,,,,,,0,,,68,0
97913,note_on,113,0,1,,,,,,,,,0,,,58,0
97913,note_on,0,0,0,,,,,,,,,0,,,70,0
97913,note_on,0,0,0,,,,,,,,,0,,,77,0
97913,note_on,0,0,1,,,,,,,,,0,,,62,0
97913,note_on,0,0,1,,,,,,,,,0,,,65,0
97920,note_on,7,0,0,,,,,,,,,0,,,68,85
97920,note_on,0,0,0,,,,,,,,,0,,,70,85
97920,note_on,0,0,0,,,,,,,,,0,,,77,85
97920,note_on,7,0,1,,,,,,,,,0,,,58,85
97920,note_on,0,0,1,,,,,,,,,0,,,62,85
97920,note_on,0,0,1,,,,,,,,,0,,,65,85
98147,note_on,0,0,1,,,,,,,,,0,,,62,0
98147,note_on,0,0,1,,,,,,,,,0,,,65,0
98147,note_on,227,0,0,,,,,,,,,0,,,68,0
98147,note_on,0,0,0,,,,,,,,,0,,,77,0
98147,note_on,0,0,0,,,,,,,,,0,,,70,0
98147,note_on,227,0,1,,,,,,,,,0,,,58,0
98160,note_on,0,0,1,,,,,,,,,0,,,61,85
98160,note_on,13,0,0,,,,,,,,,0,,,68,85
98160,note_on,0,0,0,,,,,,,,,0,,,76,85
98160,note_on,0,0,0,,,,,,,,,0,,,70,85
98160,note_on,13,0,1,,,,,,,,,0,,,58,85
98160,note_on,0,0,1,,,,,,,,,0,,,64,85
98387,note_on,0,0,1,,,,,,,,,0,,,61,0
98387,note_on,0,0,1,,,,,,,,,0,,,64,0
98387,note_on,227,0,0,,,,,,,,,0,,,68,0
98387,note_on,227,0,1,,,,,,,,,0,,,58,0
98387,note_on,0,0,0,,,,,,,,,0,,,70,0
98387,note_on,0,0,0,,,,,,,,,0,,,76,0
98400,note_on,13,0,1,,,,,,,,,0,,,58,85
98400,note_on,13,0,0,,,,,,,,,0,,,68,85
98400,note_on,0,0,1,,,,,,,,,0,,,62,85
98400,note_on,0,0,1,,,,,,,,,0,,,65,85
98400,note_on,0,0,0,,,,,,,,,0,,,70,85
98400,note_on,0,0,0,,,,,,,,,0,,,77,85
98627,note_on,0,0,1,,,,,,,,,0,,,62,0
98627,note_on,0,0,0,,,,,,,,,0,,,70,0
98627,note_on,0,0,1,,,,,,,,,0,,,65,0
98627,note_on,0,0,0,,,,,,,,,0,,,77,0
98627,note_on,227,0,1,,,,,,,,,0,,,58,0
98627,note_on,227,0,0,,,,,,,,,0,,,68,0
98640,note_on,0,0,0,,,,,,,,,0,,,78,85
98640,note_on,0,0,0,,,,,,,,,0,,,82,85
98640,note_on,0,0,1,,,,,,,,,0,,,62,85
98640,note_on,13,0,0,,,,,,,,,0,,,68,85
98640,note_on,13,0,1,,,,,,,,,0,,,58,85
98640,note_on,0,0,0,,,,,,,,,0,,,70,85
98640,note_on,0,0,1,,,,,,,,,0,,,66,85
98867,note_on,0,0,1,,,,,,,,,0,,,62,0
98867,note_on,0,0,0,,,,,,,,,0,,,70,0
98867,note_on,0,0,1,,,,,,,,,0,,,66,0
98867,note_on,0,0,0,,,,,,,,,0,,,82,0
98867,note_on,227,0,1,,,,,,,,,0,,,58,0
98867,note_on,227,0,0,,,,,,,,,0,,,68,0
98867,note_on,0,0,0,,,,,,,,,0,,,78,0
98880,note_on,0,0,0,,,,,,,,,0,,,79,102
98880,note_on,0,0,0,,,,,,,,,0,,,82,102
98880,note_on,13,0,1,,,,,,,,,0,,,51,102
98880,note_on,0,0,1,,,,,,,,,0,,,58,102
98880,note_on,0,0,1,,,,,,,,,0,,,67,102
98880,note_on,13,0,0,,,,,,,,,0,,,70,102
98881,control_change,1,0,0,,,,,,,64,0,0,,,,
99361,note_on,481,0,1,,,,,,,,,0,,,51,0
99361,note_on,480,0,0,,,,,,,,,0,,,70,0
99361,note_on,0,0,0,,,,,,,,,0,,,79,0
99361,note_on,0,0,1,,,,,,,,,0,,,58,0
99361,note_on,0,0,1,,,,,,,,,0,,,67,0
99361,note_on,0,0,0,,,,,,,,,0,,,82,0
99600,note_on,239,0,1,,,,,,,,,0,,,51,85
99600,note_on,0,0,0,,,,,,,,,0,,,79,85
99600,note_on,239,0,0,,,,,,,,,0,,,67,85
99600,note_on,0,0,1,,,,,,,,,0,,,63,85
99600,note_on,0,0,0,,,,,,,,,0,,,70,85
99600,note_on,0,0,1,,,,,,,,,0,,,58,85
99719,note_on,0,0,1,,,,,,,,,0,,,58,0
99719,note_on,0,0,1,,,,,,,,,0,,,63,0
99719,note_on,119,0,1,,,,,,,,,0,,,51,0
99719,note_on,119,0,0,,,,,,,,,0,,,67,0
99719,note_on,0,0,0,,,,,,,,,0,,,79,0
99719,note_on,0,0,0,,,,,,,,,0,,,70,0
100320,note_on,0,0,0,,,,,,,,,0,,,91,85
100320,note_on,0,0,0,,,,,,,,,0,,,99,85
100320,note_on,0,0,1,,,,,,,,,0,,,51,85
100320,note_on,601,0,0,,,,,,,,,0,,,87,85
100320,note_on,601,0,1,,,,,,,,,0,,,39,85
100320,note_on,0,0,1,,,,,,,,,0,,,46,85
100322,control_change,2,0,0,,,,,,,64,127,0,,,,
100547,note_on,0,0,1,,,,,,,,,0,,,46,0
100547,note_on,0,0,0,,,,,,,,,0,,,91,0
100547,note_on,0,0,0,,,,,,,,,0,,,99,0
100547,note_on,0,0,1,,,,,,,,,0,,,51,0
100547,note_on,225,0,0,,,,,,,,,0,,,87,0
100547,note_on,227,0,1,,,,,,,,,0,,,39,0
100680,note_on,0,0,0,,,,,,,,,0,,,87,85
100680,note_on,133,0,0,,,,,,,,,0,,,82,85
100680,note_on,0,0,0,,,,,,,,,0,,,94,85
100680,note_on,0,0,1,,,,,,,,,0,,,55,85
100680,note_on,0,0,1,,,,,,,,,0,,,51,85
100680,note_on,133,0,1,,,,,,,,,0,,,43,85
100793,note_on,113,0,0,,,,,,,,,0,,,82,0
100793,note_on,0,0,1,,,,,,,,,0,,,51,0
100793,note_on,0,0,0,,,,,,,,,0,,,94,0
100793,note_on,0,0,0,,,,,,,,,0,,,87,0
100793,note_on,0,0,1,,,,,,,,,0,,,55,0
100793,note_on,113,0,1,,,,,,,,,0,,,43,0
100800,note_on,0,0,0,,,,,,,,,0,,,87,85
100800,note_on,0,0,1,,,,,,,,,0,,,55,85
100800,note_on,0,0,0,,,,,,,,,0,,,94,85
100800,note_on,7,0,0,,,,,,,,,0,,,82,85
100800,note_on,0,0,1,,,,,,,,,0,,,51,85
100800,note_on,7,0,1,,,,,,,,,0,,,43,85
101027,note_on,0,0,1,,,,,,,,,0,,,55,0
101027,note_on,227,0,0,,,,,,,,,0,,,82,0
101027,note_on,227,0,1,,,,,,,,,0,,,43,0
101027,note_on,0,0,0,,,,,,,,,0,,,87,0
101027,note_on,0,0,0,,,,,,,,,0,,,94,0
101027,note_on,0,0,1,,,,,,,,,0,,,51,0
101040,note_on,13,0,1,,,,,,,,,0,,,43,87
101040,note_on,0,0,1,,,,,,,,,0,,,55,87
101040,note_on,0,0,1,,,,,,,,,0,,,51,87
101040,note_on,13,0,0,,,,,,,,,0,,,82,87
101040,note_on,0,0,0,,,,,,,,,0,,,87,87
101040,note_on,0,0,0,,,,,,,,,0,,,94,87
101267,note_on,0,0,0,,,,,,,,,0,,,87,0
101267,note_on,0,0,0,,,,,,,,,0,,,94,0
101267,note_on,227,0,1,,,,,,,,,0,,,43,0
101267,note_on,0,0,1,,,,,,,,,0,,,55,0
101267,note_on,0,0,1,,,,,,,,,0,,,51,0
101267,note_on,227,0,0,,,,,,,,,0,,,82,0
101400,note_on,133,0,1,,,,,,,,,0,,,46,91
101400,note_on,0,0,1,,,,,,,,,0,,,58,91
101400,note_on,0,0,1,,,,,,,,,0,,,55,91
101400,note_on,0,0,0,,,,,,,,,0,,,91,91
101400,note_on,0,0,0,,,,,,,,,0,,,87,91
101400,note_on,133,0,0,,,,,,,,,0,,,79,91
101513,note_on,0,0,1,,,,,,,,,0,,,58,0
101513,note_on,0,0,0,,,,,,,,,0,,,91,0
101513,note_on,0,0,0,,,,,,,,,0,,,87,0
101513,note_on,113,0,1,,,,,,,,,0,,,46,0
101513,note_on,0,0,1,,,,,,,,,0,,,55,0
101513,note_on,113,0,0,,,,,,,,,0,,,79,0
101520,note_on,0,0,1,,,,,,,,,0,,,55,93
101520,note_on,0,0,1,,,,,,,,,0,,,58,93
101520,note_on,0,0,0,,,,,,,,,0,,,87,93
101520,note_on,0,0,0,,,,,,,,,0,,,91,93
101520,note_on,7,0,0,,,,,,,,,0,,,79,93
101520,note_on,7,0,1,,,,,,,,,0,,,46,93
101747,note_on,0,0,0,,,,,,,,,0,,,87,0
101747,note_on,0,0,1,,,,,,,,,0,,,58,0
101747,note_on,227,0,1,,,,,,,,,0,,,46,0
101747,note_on,0,0,1,,,,,,,,,0,,,55,0
101747,note_on,227,0,0,,,,,,,,,0,,,79,0
101747,note_on,0,0,0,,,,,,,,,0,,,91,0
101760,note_on,13,0,0,,,,,,,,,0,,,79,95
101760,note_on,0,0,0,,,,,,,,,0,,,91,95
101760,note_on,13,0,1,,,,,,,,,0,,,48,95
101760,note_on,0,0,1,,,,,,,,,0,,,55,95
101760,note_on,0,0,0,,,,,,,,,0,,,87,95
101760,note_on,0,0,1,,,,,,,,,0,,,60,95
101761,control_change,1,0,0,,,,,,,64,0,0,,,,
101762,control_change,1,0,0,,,,,,,64,127,0,,,,
101987,note_on,225,0,0,,,,,,,,,0,,,79,0
101987,note_on,227,0,1,,,,,,,,,0,,,48,0
101987,note_on,0,0,0,,,,,,,,,0,,,87,0
101987,note_on,0,0,0,,,,,,,,,0,,,91,0
101987,note_on,0,0,1,,,,,,,,,0,,,55,0
101987,note_on,0,0,1,,,,,,,,,0,,,60,0
102120,note_on,133,0,1,,,,,,,,,0,,,55,99
102120,note_on,133,0,0,,,,,,,,,0,,,75,99
102120,note_on,0,0,1,,,,,,,,,0,,,60,99
102120,note_on,0,0,0,,,,,,,,,0,,,87,99
102120,note_on,0,0,0,,,,,,,,,0,,,84,99
102120,note_on,0,0,1,,,,,,,,,0,,,63,99
102233,note_on,113,0,0,,,,,,,,,0,,,75,0
102233,note_on,0,0,0,,,,,,,,,0,,,87,0
102233,note_on,0,0,1,,,,,,,,,0,,,63,0
102233,note_on,0,0,1,,,,,,,,,0,,,60,0
102233,note_on,113,0,1,,,,,,,,,0,,,55,0
102233,note_on,0,0,0,,,,,,,,,0,,,84,0
102240,note_on,7,0,0,,,,,,,,,0,,,75,101
102240,note_on,7,0,1,,,,,,,,,0,,,55,101
102240,note_on,0,0,0,,,,,,,,,0,,,87,101
102240,note_on,0,0,0,,,,,,,,,0,,,84,101
102240,note_on,0,0,1,,,,,,,,,0,,,60,101
102240,note_on,0,0,1,,,,,,,,,0,,,63,101
102467,note_on,227,0,0,,,,,,,,,0,,,75,0
102467,note_on,0,0,0,,,,,,,,,0,,,84,0
102467,note_on,227,0,1,,,,,,,,,0,,,55,0
102467,note_on,0,0,0,,,,,,,,,0,,,87,0
102467,note_on,0,0,1,,,,,,,,,0,,,63,0
102467,note_on,0,0,1,,,,,,,,,0,,,60,0
102480,note_on,0,0,0,,,,,,,,,0,,,84,123
102480,note_on,13,0,0,,,,,,,,,0,,,75,123
102480,note_on,13,0,1,,,,,,,,,0,,,55,123
102480,note_on,0,0,1,,,,,,,,,0,,,63,123
102480,note_on,0,0,0,,,,,,,,,0,,,87,123
102480,note_on,0,0,1,,,,,,,,,0,,,60,123
102961,note_on,0,0,0,,,,,,,,,0,,,84,0
102961,note_on,0,0,0,,,,,,,,,0,,,87,0
102961,note_on,481,0,0,,,,,,,,,0,,,75,0
102961,note_on,481,0,1,,,,,,,,,0,,,55,0
102961,note_on,0,0,1,,,,,,,,,0,,,63,0
102961,note_on,0,0,1,,,,,,,,,0,,,60,0
103200,note_on,0,0,0,,,,,,,,,0,,,95,112
103200,note_on,0,0,0,,,,,,,,,0,,,86,112
103200,note_on,0,0,1,,,,,,,,,0,,,55,112
103200,note_on,239,0,1,,,,,,,,,0,,,43,112
103200,note_on,239,0,0,,,,,,,,,0,,,83,112
103200,note_on,0,0,1,,,,,,,,,0,,,50,112
103201,control_change,1,0,0,,,,,,,64,0,0,,,,
103202,control_change,1,0,0,,,,,,,64,127,0,,,,
103427,note_on,0,0,1,,,,,,,,,0,,,55,0
103427,note_on,0,0,1,,,,,,,,,0,,,50,0
103427,note_on,0,0,0,,,,,,,,,0,,,86,0
103427,note_on,227,0,1,,,,,,,,,0,,,43,0
103427,note_on,0,0,0,,,,,,,,,0,,,95,0
103427,note_on,225,0,0,,,,,,,,,0,,,83,0
103560,note_on,0,0,1,,,,,,,,,0,,,62,112
103560,note_on,133,0,0,,,,,,,,,0,,,74,112
103560,note_on,133,0,1,,,,,,,,,0,,,55,112
103560,note_on,0,0,0,,,,,,,,,0,,,83,112
103560,note_on,0,0,1,,,,,,,,,0,,,59,112
103560,note_on,0,0,0,,,,,,,,,0,,,86,112
103673,note_on,0,0,0,,,,,,,,,0,,,83,0
103673,note_on,113,0,1,,,,,,,,,0,,,55,0
103673,note_on,0,0,1,,,,,,,,,0,,,62,0
103673,note_on,0,0,1,,,,,,,,,0,,,59,0
103673,note_on,113,0,0,,,,,,,,,0,,,74,0
103673,note_on,0,0,0,,,,,,,,,0,,,86,0
103680,note_on,0,0,1,,,,,,,,,0,,,62,112
103680,note_on,0,0,1,,,,,,,,,0,,,59,112
103680,note_on,7,0,0,,,,,,,,,0,,,74,112
103680,note_on,0,0,0,,,,,,,,,0,,,86,112
103680,note_on,0,0,0,,,,,,,,,0,,,83,112
103680,note_on,7,0,1,,,,,,,,,0,,,55,112
103907,note_on,0,0,1,,,,,,,,,0,,,62,0
103907,note_on,227,0,1,,,,,,,,,0,,,55,0
103907,note_on,0,0,0,,,,,,,,,0,,,86,0
103907,note_on,0,0,0,,,,,,,,,0,,,83,0
103907,note_on,0,0,1,,,,,,,,,0,,,59,0
103907,note_on,227,0,0,,,,,,,,,0,,,74,0
103920,note_on,13,0,1,,,,,,,,,0,,,55,112
103920,note_on,13,0,0,,,,,,,,,0,,,73,112
103920,note_on,0,0,1,,,,,,,,,0,,,58,112
103920,note_on,0,0,1,,,,,,,,,0,,,61,112
103920,note_on,0,0,0,,,,,,,,,0,,,82,112
103920,note_on,0,0,0,,,,,,,,,0,,,85,112
104147,note_on,0,0,1,,,,,,,,,0,,,58,0
104147,note_on,0,0,1,,,,,,,,,0,,,61,0
104147,note_on,227,0,0,,,,,,,,,0,,,73,0
104147,note_on,0,0,0,,,,,,,,,0,,,85,0
104147,note_on,227,0,1,,,,,,,,,0,,,55,0
104147,note_on,0,0,0,,,,,,,,,0,,,82,0
104160,note_on,13,0,1,,,,,,,,,0,,,55,112
104160,note_on,13,0,0,,,,,,,,,0,,,74,112
104160,note_on,0,0,0,,,,,,,,,0,,,86,112
104160,note_on,0,0,0,,,,,,,,,0,,,83,112
104160,note_on,0,0,1,,,,,,,,,0,,,59,112
104160,note_on,0,0,1,,,,,,,,,0,,,62,112
104387,note_on,0,0,1,,,,,,,,,0,,,59,0
104387,note_on,227,0,1,,,,,,,,,0,,,55,0
104387,note_on,0,0,1,,,,,,,,,0,,,62,0
104387,note_on,0,0,0,,,,,,,,,0,,,83,0
104387,note_on,0,0,0,,,,,,,,,0,,,86,0
104387,note_on,227,0,0,,,,,,,,,0,,,74,0
104400,note_on,13,0,1,,,,,,,,,0,,,55,112
104400,note_on,0,0,1,,,,,,,,,0,,,67,112
104400,note_on,0,0,1,,,,,,,,,0,,,62,112
104400,note_on,0,0,0,,,,,,,,,0,,,83,112
104400,note_on,13,0,0,,,,,,,,,0,,,79,112
104400,note_on,0,0,0,,,,,,,,,0,,,91,112
104627,note_on,227,0,1,,,,,,,,,0,,,55,0
104627,note_on,0,0,0,,,,,,,,,0,,,91,0
104627,note_on,0,0,0,,,,,,,,,0,,,83,0
104627,note_on,0,0,1,,,,,,,,,0,,,67,0
104627,note_on,0,0,1,,,,,,,,,0,,,62,0
104627,note_on,227,0,0,,,,,,,,,0,,,79,0
104640,note_on,0,0,0,,,,,,,,,0,,,95,112
104640,note_on,0,0,0,,,,,,,,,0,,,86,112
104640,note_on,13,0,1,,,,,,,,,0,,,47,112
104640,note_on,0,0,1,,,,,,,,,0,,,54,112
104640,note_on,0,0,1,,,,,,,,,0,,,59,112
104640,note_on,13,0,0,,,,,,,,,0,,,83,112
104641,control_change,1,0,0,,,,,,,64,0,0,,,,
104642,control_change,1,0,0,,,,,,,64,127,0,,,,
104867,note_on,0,0,0,,,,,,,,,0,,,86,0
104867,note_on,0,0,0,,,,,,,,,0,,,95,0
104867,note_on,0,0,1,,,,,,,,,0,,,59,0
104867,note_on,227,0,1,,,,,,,,,0,,,47,0
104867,note_on,0,0,1,,,,,,,,,0,,,54,0
104867,note_on,225,0,0,,,,,,,,,0,,,83,0
105000,note_on,0,0,1,,,,,,,,,0,,,62,112
105000,note_on,133,0,0,,,,,,,,,0,,,78,112
105000,note_on,0,0,0,,,,,,,,,0,,,90,112
105000,note_on,0,0,0,,,,,,,,,0,,,86,112
105000,note_on,133,0,1,,,,,,,,,0,,,59,112
105000,note_on,0,0,1,,,,,,,,,0,,,66,112
105113,note_on,113,0,0,,,,,,,,,0,,,78,0
105113,note_on,0,0,1,,,,,,,,,0,,,66,0
105113,note_on,113,0,1,,,,,,,,,0,,,59,0
105113,note_on,0,0,0,,,,,,,,,0,,,90,0
105113,note_on,0,0,0,,,,,,,,,0,,,86,0
105113,note_on,0,0,1,,,,,,,,,0,,,62,0
105120,note_on,0,0,1,,,,,,,,,0,,,62,112
105120,note_on,0,0,1,,,,,,,,,0,,,66,112
105120,note_on,0,0,0,,,,,,,,,0,,,90,112
105120,note_on,7,0,1,,,,,,,,,0,,,59,112
105120,note_on,7,0,0,,,,,,,,,0,,,78,112
105120,note_on,0,0,0,,,,,,,,,0,,,86,112
105347,note_on,227,0,1,,,,,,,,,0,,,59,0
105347,note_on,0,0,1,,,,,,,,,0,,,66,0
105347,note_on,0,0,1,,,,,,,,,0,,,62,0
105347,note_on,227,0,0,,,,,,,,,0,,,78,0
105347,note_on,0,0,0,,,,,,,,,0,,,86,0
105347,note_on,0,0,0,,,,,,,,,0,,,90,0
105360,note_on,13,0,1,,,,,,,,,0,,,59,112
105360,note_on,0,0,1,,,,,,,,,0,,,66,112
105360,note_on,13,0,0,,,,,,,,,0,,,78,112
105360,note_on,0,0,0,,,,,,,,,0,,,86,112
105360,note_on,0,0,0,,,,,,,,,0,,,90,112
105360,note_on,0,0,1,,,,,,,,,0,,,62,112
106043,note_on,683,0,1,,,,,,,,,0,,,59,0
106043,note_on,683,0,0,,,,,,,,,0,,,78,0
106043,note_on,0,0,1,,,,,,,,,0,,,66,0
106043,note_on,0,0,1,,,,,,,,,0,,,62,0
106043,note_on,0,0,0,,,,,,,,,0,,,90,0
106043,note_on,0,0,0,,,,,,,,,0,,,86,0
106080,note_on,0,0,1,,,,,,,,,0,,,54,112
106080,note_on,0,0,1,,,,,,,,,0,,,49,112
106080,note_on,37,0,1,,,,,,,,,0,,,42,112
106080,note_on,37,0,0,,,,,,,,,0,,,82,112
106080,note_on,0,0,0,,,,,,,,,0,,,94,112
106080,note_on,0,0,0,,,,,,,,,0,,,85,112
106081,control_change,1,0,0,,,,,,,64,0,0,,,,
106082,control_change,1,0,0,,,,,,,64,127,0,,,,
106307,note_on,0,0,0,,,,,,,,,0,,,85,0
106307,note_on,0,0,1,,,,,,,,,0,,,49,0
106307,note_on,0,0,1,,,,,,,,,0,,,54,0
106307,note_on,227,0,1,,,,,,,,,0,,,42,0
106307,note_on,0,0,0,,,,,,,,,0,,,94,0
106307,note_on,225,0,0,,,,,,,,,0,,,82,0
106440,note_on,133,0,0,,,,,,,,,0,,,73,112
106440,note_on,0,0,0,,,,,,,,,0,,,82,112
106440,note_on,0,0,0,,,,,,,,,0,,,85,112
106440,note_on,133,0,1,,,,,,,,,0,,,54,112
106440,note_on,0,0,1,,,,,,,,,0,,,61,112
106440,note_on,0,0,1,,,,,,,,,0,,,58,112
106553,note_on,113,0,0,,,,,,,,,0,,,73,0
106553,note_on,0,0,0,,,,,,,,,0,,,82,0
106553,note_on,0,0,0,,,,,,,,,0,,,85,0
106553,note_on,113,0,1,,,,,,,,,0,,,54,0
106553,note_on,0,0,1,,,,,,,,,0,,,61,0
106553,note_on,0,0,1,,,,,,,,,0,,,58,0
106560,note_on,0,0,0,,,,,,,,,0,,,82,112
106560,note_on,7,0,0,,,,,,,,,0,,,73,112
106560,note_on,7,0,1,,,,,,,,,0,,,54,112
106560,note_on,0,0,0,,,,,,,,,0,,,85,112
106560,note_on,0,0,1,,,,,,,,,0,,,61,112
106560,note_on,0,0,1,,,,,,,,,0,,,58,112
106787,note_on,0,0,1,,,,,,,,,0,,,61,0
106787,note_on,0,0,0,,,,,,,,,0,,,82,0
106787,note_on,0,0,0,,,,,,,,,0,,,85,0
106787,note_on,0,0,1,,,,,,,,,0,,,58,0
106787,note_on,227,0,1,,,,,,,,,0,,,54,0
106787,note_on,227,0,0,,,,,,,,,0,,,73,0
106800,note_on,13,0,0,,,,,,,,,0,,,72,112
106800,note_on,13,0,1,,,,,,,,,0,,,54,112
106800,note_on,0,0,0,,,,,,,,,0,,,81,112
106800,note_on,0,0,0,,,,,,,,,0,,,84,112
106800,note_on,0,0,1,,,,,,,,,0,,,57,112
106800,note_on,0,0,1,,,,,,,,,0,,,60,112
107027,note_on,227,0,1,,,,,,,,,0,,,54,0
107027,note_on,227,0,0,,,,,,,,,0,,,72,0
107027,note_on,0,0,1,,,,,,,,,0,,,60,0
107027,note_on,0,0,1,,,,,,,,,0,,,57,0
107027,note_on,0,0,0,,,,,,,,,0,,,81,0
107027,note_on,0,0,0,,,,,,,,,0,,,84,0
107040,note_on,0,0,1,,,,,,,,,0,,,58,112
107040,note_on,13,0,1,,,,,,,,,0,,,54,112
107040,note_on,0,0,1,,,,,,,,,0,,,61,112
107040,note_on,0,0,0,,,,,,,,,0,,,82,112
107040,note_on,13,0,0,,,,,,,,,0,,,73,112
107040,note_on,0,0,0,,,,,,,,,0,,,85,112
107267,note_on,227,0,0,,,,,,,,,0,,,73,0
107267,note_on,0,0,0,,,,,,,,,0,,,82,0
107267,note_on,0,0,0,,,,,,,,,0,,,85,0
107267,note_on,227,0,1,,,,,,,,,0,,,54,0
107267,note_on,0,0,1,,,,,,,,,0,,,58,0
107267,note_on,0,0,1,,,,,,,,,0,,,61,0
107280,note_on,0,0,1,,,,,,,,,0,,,66,112
107280,note_on,0,0,0,,,,,,,,,0,,,90,112
107280,note_on,0,0,1,,,,,,,,,0,,,61,112
107280,note_on,13,0,0,,,,,,,,,0,,,78,112
107280,note_on,13,0,1,,,,,,,,,0,,,54,112
107280,note_on,0,0,0,,,,,,,,,0,,,85,112
107507,note_on,0,0,0,,,,,,,,,0,,,90,0
107507,note_on,227,0,1,,,,,,,,,0,,,54,0
107507,note_on,0,0,1,,,,,,,,,0,,,66,0
107507,note_on,227,0,0,,,,,,,,,0,,,78,0
107507,note_on,0,0,0,,,,,,,,,0,,,85,0
107507,note_on,0,0,1,,,,,,,,,0,,,61,0
107520,note_on,13,0,1,,,,,,,,,0,,,46,112
107520,note_on,0,0,1,,,,,,,,,0,,,53,112
107520,note_on,0,0,1,,,,,,,,,0,,,58,112
107520,note_on,0,0,0,,,,,,,,,0,,,85,112
107520,note_on,0,0,0,,,,,,,,,0,,,94,112
107520,note_on,13,0,0,,,,,,,,,0,,,82,112
107521,control_change,1,0,0,,,,,,,64,0,0,,,,
107522,control_change,1,0,0,,,,,,,64,127,0,,,,
107747,note_on,0,0,0,,,,,,,,,0,,,94,0
107747,note_on,0,0,1,,,,,,,,,0,,,58,0
107747,note_on,0,0,1,,,,,,,,,0,,,53,0
107747,note_on,227,0,1,,,,,,,,,0,,,46,0
107747,note_on,0,0,0,,,,,,,,,0,,,85,0
107747,note_on,225,0,0,,,,,,,,,0,,,82,0
107880,note_on,0,0,1,,,,,,,,,0,,,65,112
107880,note_on,133,0,0,,,,,,,,,0,,,77,112
107880,note_on,133,0,1,,,,,,,,,0,,,58,112
107880,note_on,0,0,0,,,,,,,,,0,,,89,112
107880,note_on,0,0,0,,,,,,,,,0,,,85,112
107880,note_on,0,0,1,,,,,,,,,0,,,61,112
107993,note_on,0,0,1,,,,,,,,,0,,,61,0
107993,note_on,0,0,1,,,,,,,,,0,,,65,0
107993,note_on,0,0,0,,,,,,,,,0,,,89,0
107993,note_on,0,0,0,,,,,,,,,0,,,85,0
107993,note_on,113,0,0,,,,,,,,,0,,,77,0
107993,note_on,113,0,1,,,,,,,,,0,,,58,0
108000,note_on,0,0,0,,,,,,,,,0,,,85,112
108000,note_on,7,0,0,,,,,,,,,0,,,77,112
108000,note_on,7,0,1,,,,,,,,,0,,,58,112
108000,note_on,0,0,1,,,,,,,,,0,,,61,112
108000,note_on,0,0,1,,,,,,,,,0,,,65,112
108000,note_on,0,0,0,,,,,,,,,0,,,89,112
108227,note_on,0,0,1,,,,,,,,,0,,,61,0
108227,note_on,0,0,1,,,,,,,,,0,,,65,0
108227,note_on,227,0,1,,,,,,,,,0,,,58,0
108227,note_on,0,0,0,,,,,,,,,0,,,85,0
108227,note_on,227,0,0,,,,,,,,,0,,,77,0
108227,note_on,0,0,0,,,,,,,,,0,,,89,0
108240,note_on,0,0,0,,,,,,,,,0,,,85,127
108240,note_on,0,0,1,,,,,,,,,0,,,65,127
108240,note_on,0,0,0,,,,,,,,,0,,,89,127
108240,note_on,0,0,1,,,,,,,,,0,,,61,127
108240,note_on,13,0,1,,,,,,,,,0,,,58,127
108240,note_on,13,0,0,,,,,,,,,0,,,77,127
108721,note_on,0,0,0,,,,,,,,,0,,,85,0
108721,note_on,481,0,0,,,,,,,,,0,,,77,0
108721,note_on,0,0,1,,,,,,,,,0,,,61,0
108721,note_on,0,0,1,,,,,,,,,0,,,65,0
108721,note_on,0,0,0,,,,,,,,,0,,,89,0
108721,note_on,481,0,1,,,,,,,,,0,,,58,0
108960,note_on,0,0,0,,,,,,,,,0,,,93,112
108960,note_on,239,0,1,,,,,,,,,0,,,41,112
108960,note_on,239,0,0,,,,,,,,,0,,,81,112
108960,note_on,0,0,1,,,,,,,,,0,,,48,112
108960,note_on,0,0,1,,,,,,,,,0,,,53,112
108960,note_on,0,0,0,,,,,,,,,0,,,84,112
108961,control_change,1,0,0,,,,,,,64,0,0,,,,
108962,control_change,1,0,0,,,,,,,64,127,0,,,,
109187,note_on,0,0,1,,,,,,,,,0,,,48,0
109187,note_on,225,0,0,,,,,,,,,0,,,81,0
109187,note_on,0,0,0,,,,,,,,,0,,,84,0
109187,note_on,0,0,0,,,,,,,,,0,,,93,0
109187,note_on,0,0,1,,,,,,,,,0,,,53,0
109187,note_on,227,0,1,,,,,,,,,0,,,41,0
109320,note_on,0,0,0,,,,,,,,,0,,,81,112
109320,note_on,0,0,0,,,,,,,,,0,,,84,112
109320,note_on,133,0,1,,,,,,,,,0,,,57,112
109320,note_on,133,0,0,,,,,,,,,0,,,72,112
109320,note_on,0,0,1,,,,,,,,,0,,,60,112
109433,note_on,113,0,0,,,,,,,,,0,,,72,0
109433,note_on,0,0,0,,,,,,,,,0,,,81,0
109433,note_on,113,0,1,,,,,,,,,0,,,57,0
109433,note_on,0,0,0,,,,,,,,,0,,,84,0
109433,note_on,0,0,1,,,,,,,,,0,,,60,0
109440,note_on,7,0,0,,,,,,,,,0,,,72,112
109440,note_on,0,0,0,,,,,,,,,0,,,81,112
109440,note_on,0,0,0,,,,,,,,,0,,,84,112
109440,note_on,7,0,1,,,,,,,,,0,,,57,112
109440,note_on,0,0,1,,,,,,,,,0,,,60,112
109667,note_on,227,0,0,,,,,,,,,0,,,72,0
109667,note_on,227,0,1,,,,,,,,,0,,,57,0
109667,note_on,0,0,0,,,,,,,,,0,,,81,0
109667,note_on,0,0,0,,,,,,,,,0,,,84,0
109667,note_on,0,0,1,,,,,,,,,0,,,60,0
109680,note_on,13,0,1,,,,,,,,,0,,,45,112
109680,note_on,0,0,0,,,,,,,,,0,,,84,112
109680,note_on,0,0,0,,,,,,,,,0,,,88,112
109680,note_on,0,0,1,,,,,,,,,0,,,57,112
109680,note_on,13,0,0,,,,,,,,,0,,,76,112
109680,note_on,0,0,1,,,,,,,,,0,,,52,112
109681,control_change,1,0,0,,,,,,,64,0,0,,,,
109682,control_change,1,0,0,,,,,,,64,127,0,,,,
109907,note_on,227,0,1,,,,,,,,,0,,,45,0
109907,note_on,0,0,1,,,,,,,,,0,,,52,0
109907,note_on,0,0,0,,,,,,,,,0,,,84,0
109907,note_on,0,0,0,,,,,,,,,0,,,88,0
109907,note_on,225,0,0,,,,,,,,,0,,,76,0
109907,note_on,0,0,1,,,,,,,,,0,,,57,0
110040,note_on,133,0,0,,,,,,,,,0,,,75,112
110040,note_on,0,0,1,,,,,,,,,0,,,59,112
110040,note_on,0,0,0,,,,,,,,,0,,,83,112
110040,note_on,133,0,1,,,,,,,,,0,,,57,112
110040,note_on,0,0,1,,,,,,,,,0,,,63,112
110040,note_on,0,0,0,,,,,,,,,0,,,87,112
110153,note_on,113,0,1,,,,,,,,,0,,,57,0
110153,note_on,0,0,1,,,,,,,,,0,,,59,0
110153,note_on,0,0,1,,,,,,,,,0,,,63,0
110153,note_on,113,0,0,,,,,,,,,0,,,75,0
110153,note_on,0,0,0,,,,,,,,,0,,,87,0
110153,note_on,0,0,0,,,,,,,,,0,,,83,0
110160,note_on,0,0,0,,,,,,,,,0,,,84,112
110160,note_on,0,0,1,,,,,,,,,0,,,60,112
110160,note_on,0,0,1,,,,,,,,,0,,,64,112
110160,note_on,0,0,0,,,,,,,,,0,,,88,112
110160,note_on,7,0,1,,,,,,,,,0,,,57,112
110160,note_on,7,0,0,,,,,,,,,0,,,76,112
110387,note_on,0,0,0,,,,,,,,,0,,,88,0
110387,note_on,227,0,1,,,,,,,,,0,,,57,0
110387,note_on,0,0,0,,,,,,,,,0,,,84,0
110387,note_on,227,0,0,,,,,,,,,0,,,76,0
110387,note_on,0,0,1,,,,,,,,,0,,,60,0
110387,note_on,0,0,1,,,,,,,,,0,,,64,0
110400,note_on,0,0,1,,,,,,,,,0,,,47,112
110400,note_on,13,0,0,,,,,,,,,0,,,80,112
110400,note_on,0,0,0,,,,,,,,,0,,,83,112
110400,note_on,0,0,0,,,,,,,,,0,,,92,112
110400,note_on,0,0,1,,,,,,,,,0,,,52,112
110400,note_on,13,0,1,,,,,,,,,0,,,40,112
110401,control_change,1,0,0,,,,,,,64,0,0,,,,
110402,control_change,1,0,0,,,,,,,64,127,0,,,,
110627,note_on,0,0,0,,,,,,,,,0,,,92,0
110627,note_on,0,0,0,,,,,,,,,0,,,83,0
110627,note_on,0,0,1,,,,,,,,,0,,,52,0
110627,note_on,0,0,1,,,,,,,,,0,,,47,0
110627,note_on,227,0,1,,,,,,,,,0,,,40,0
110627,note_on,225,0,0,,,,,,,,,0,,,80,0
110760,note_on,0,0,0,,,,,,,,,0,,,83,112
110760,note_on,133,0,1,,,,,,,,,0,,,56,112
110760,note_on,0,0,0,,,,,,,,,0,,,80,112
110760,note_on,0,0,1,,,,,,,,,0,,,59,112
110760,note_on,133,0,0,,,,,,,,,0,,,71,112
110873,note_on,0,0,1,,,,,,,,,0,,,59,0
110873,note_on,113,0,1,,,,,,,,,0,,,56,0
110873,note_on,113,0,0,,,,,,,,,0,,,71,0
110873,note_on,0,0,0,,,,,,,,,0,,,80,0
110873,note_on,0,0,0,,,,,,,,,0,,,83,0
110880,note_on,0,0,0,,,,,,,,,0,,,83,112
110880,note_on,7,0,1,,,,,,,,,0,,,56,112
110880,note_on,0,0,0,,,,,,,,,0,,,80,112
110880,note_on,0,0,1,,,,,,,,,0,,,59,112
110880,note_on,7,0,0,,,,,,,,,0,,,71,112
111107,note_on,227,0,1,,,,,,,,,0,,,56,0
111107,note_on,0,0,0,,,,,,,,,0,,,83,0
111107,note_on,0,0,0,,,,,,,,,0,,,80,0
111107,note_on,0,0,1,,,,,,,,,0,,,59,0
111107,note_on,227,0,0,,,,,,,,,0,,,71,0
111120,note_on,0,0,1,,,,,,,,,0,,,51,112
111120,note_on,13,0,1,,,,,,,,,0,,,44,112
111120,note_on,0,0,0,,,,,,,,,0,,,87,112
111120,note_on,0,0,0,,,,,,,,,0,,,83,112
111120,note_on,13,0,0,,,,,,,,,0,,,75,112
111120,note_on,0,0,1,,,,,,,,,0,,,56,112
111121,control_change,1,0,0,,,,,,,64,0,0,,,,
111122,control_change,1,0,0,,,,,,,64,127,0,,,,
111347,note_on,0,0,0,,,,,,,,,0,,,87,0
111347,note_on,0,0,1,,,,,,,,,0,,,51,0
111347,note_on,0,0,0,,,,,,,,,0,,,83,0
111347,note_on,0,0,1,,,,,,,,,0,,,56,0
111347,note_on,225,0,0,,,,,,,,,0,,,75,0
111347,note_on,227,0,1,,,,,,,,,0,,,44,0
111480,note_on,0,0,0,,,,,,,,,0,,,86,112
111480,note_on,0,0,1,,,,,,,,,0,,,62,112
111480,note_on,0,0,0,,,,,,,,,0,,,83,112
111480,note_on,133,0,1,,,,,,,,,0,,,56,112
111480,note_on,0,0,1,,,,,,,,,0,,,59,112
111480,note_on,133,0,0,,,,,,,,,0,,,74,112
111593,note_on,113,0,1,,,,,,,,,0,,,56,0
111593,note_on,0,0,0,,,,,,,,,0,,,83,0
111593,note_on,0,0,1,,,,,,,,,0,,,62,0
111593,note_on,113,0,0,,,,,,,,,0,,,74,0
111593,note_on,0,0,1,,,,,,,,,0,,,59,0
111593,note_on,0,0,0,,,,,,,,,0,,,86,0
111600,note_on,0,0,0,,,,,,,,,0,,,83,112
111600,note_on,7,0,1,,,,,,,,,0,,,56,112
111600,note_on,7,0,0,,,,,,,,,0,,,75,112
111600,note_on,0,0,0,,,,,,,,,0,,,87,112
111600,note_on,0,0,1,,,,,,,,,0,,,63,112
111600,note_on,0,0,1,,,,,,,,,0,,,59,112
111827,note_on,0,0,1,,,,,,,,,0,,,63,0
111827,note_on,227,0,0,,,,,,,,,0,,,75,0
111827,note_on,0,0,0,,,,,,,,,0,,,87,0
111827,note_on,0,0,0,,,,,,,,,0,,,83,0
111827,note_on,0,0,1,,,,,,,,,0,,,59,0
111827,note_on,227,0,1,,,,,,,,,0,,,56,0
111840,note_on,0,0,0,,,,,,,,,0,,,82,112
111840,note_on,0,0,1,,,,,,,,,0,,,51,112
111840,note_on,0,0,0,,,,,,,,,0,,,91,112
111840,note_on,13,0,0,,,,,,,,,0,,,79,112
111840,note_on,13,0,1,,,,,,,,,0,,,39,112
111841,control_change,1,0,0,,,,,,,64,0,0,,,,
111842,control_change,1,0,0,,,,,,,64,127,0,,,,
112067,note_on,0,0,1,,,,,,,,,0,,,51,0
112067,note_on,0,0,0,,,,,,,,,0,,,82,0
112067,note_on,0,0,0,,,,,,,,,0,,,91,0
112067,note_on,225,0,0,,,,,,,,,0,,,79,0
112067,note_on,227,0,1,,,,,,,,,0,,,39,0
112200,note_on,133,0,0,,,,,,,,,0,,,70,112
112200,note_on,0,0,1,,,,,,,,,0,,,63,112
112200,note_on,0,0,0,,,,,,,,,0,,,79,112
112200,note_on,133,0,1,,,,,,,,,0,,,58,112
112200,note_on,0,0,0,,,,,,,,,0,,,75,112
112200,note_on,0,0,1,,,,,,,,,0,,,67,112
112313,note_on,0,0,0,,,,,,,,,0,,,79,0
112313,note_on,0,0,1,,,,,,,,,0,,,63,0
112313,note_on,113,0,0,,,,,,,,,0,,,70,0
112313,note_on,0,0,1,,,,,,,,,0,,,67,0
112313,note_on,113,0,1,,,,,,,,,0,,,58,0
112313,note_on,0,0,0,,,,,,,,,0,,,75,0
112320,note_on,0,0,1,,,,,,,,,0,,,67,112
112320,note_on,7,0,1,,,,,,,,,0,,,58,112
112320,note_on,7,0,0,,,,,,,,,0,,,70,112
112320,note_on,0,0,1,,,,,,,,,0,,,63,112
112320,note_on,0,0,0,,,,,,,,,0,,,79,112
112320,note_on,0,0,0,,,,,,,,,0,,,75,112
112547,note_on,227,0,0,,,,,,,,,0,,,70,0
112547,note_on,0,0,1,,,,,,,,,0,,,67,0
112547,note_on,0,0,0,,,,,,,,,0,,,75,0
112547,note_on,0,0,0,,,,,,,,,0,,,79,0
112547,note_on,227,0,1,,,,,,,,,0,,,58,0
112547,note_on,0,0,1,,,,,,,,,0,,,63,0
112560,set_tempo,13,1,0,,,,,,444444,,,,,,,
112560,note_on,0,0,0,,,,,,,,,0,,,82,112
112560,note_on,0,0,0,,,,,,,,,0,,,90,112
112560,note_on,13,0,1,,,,,,,,,0,,,39,112
112560,note_on,0,0,1,,,,,,,,,0,,,51,112
112560,note_on,0,0,0,,,,,,,,,0,,,78,112
112561,control_change,1,0,0,,,,,,,64,0,0,,,,
112562,control_change,1,0,0,,,,,,,64,127,0,,,,
112787,note_on,225,0,0,,,,,,,,,0,,,78,0
112787,note_on,227,0,1,,,,,,,,,0,,,39,0
112787,note_on,0,0,0,,,,,,,,,0,,,90,0
112787,note_on,0,0,0,,,,,,,,,0,,,82,0
112787,note_on,0,0,1,,,,,,,,,0,,,51,0
112920,note_on,133,0,1,,,,,,,,,0,,,58,112
112920,note_on,0,0,1,,,,,,,,,0,,,66,112
112920,note_on,0,0,1,,,,,,,,,0,,,63,112
112920,note_on,0,0,0,,,,,,,,,0,,,78,112
112920,note_on,0,0,0,,,,,,,,,0,,,75,112
112920,note_on,133,0,0,,,,,,,,,0,,,70,112
113033,note_on,0,0,1,,,,,,,,,0,,,66,0
113033,note_on,113,0,0,,,,,,,,,0,,,70,0
113033,note_on,0,0,1,,,,,,,,,0,,,63,0
113033,note_on,113,0,1,,,,,,,,,0,,,58,0
113033,note_on,0,0,0,,,,,,,,,0,,,78,0
113033,note_on,0,0,0,,,,,,,,,0,,,75,0
113040,note_on,7,0,1,,,,,,,,,0,,,58,112
113040,note_on,0,0,1,,,,,,,,,0,,,66,112
113040,note_on,0,0,1,,,,,,,,,0,,,63,112
113040,note_on,7,0,0,,,,,,,,,0,,,70,112
113040,note_on,0,0,0,,,,,,,,,0,,,78,112
113040,note_on,0,0,0,,,,,,,,,0,,,75,112
113267,note_on,227,0,1,,,,,,,,,0,,,58,0
113267,note_on,0,0,1,,,,,,,,,0,,,66,0
113267,note_on,0,0,1,,,,,,,,,0,,,63,0
113267,note_on,0,0,0,,,,,,,,,0,,,75,0
113267,note_on,227,0,0,,,,,,,,,0,,,70,0
113267,note_on,0,0,0,,,,,,,,,0,,,78,0
113280,note_on,13,0,1,,,,,,,,,0,,,35,112
113280,note_on,0,0,1,,,,,,,,,0,,,47,112
113280,set_tempo,13,1,0,,,,,,461538,,,,,,,
113280,note_on,0,0,0,,,,,,,,,0,,,88,112
113280,note_on,0,0,0,,,,,,,,,0,,,80,112
113280,note_on,0,0,0,,,,,,,,,0,,,76,112
113281,control_change,1,0,0,,,,,,,64,0,0,,,,
113282,control_change,1,0,0,,,,,,,64,127,0,,,,
113507,note_on,227,0,1,,,,,,,,,0,,,35,0
113507,note_on,0,0,1,,,,,,,,,0,,,47,0
113507,note_on,0,0,0,,,,,,,,,0,,,80,0
113507,note_on,0,0,0,,,,,,,,,0,,,88,0
113507,note_on,225,0,0,,,,,,,,,0,,,76,0
113640,note_on,133,0,0,,,,,,,,,0,,,68,112
113640,note_on,0,0,1,,,,,,,,,0,,,64,112
113640,note_on,0,0,0,,,,,,,,,0,,,71,112
113640,note_on,0,0,0,,,,,,,,,0,,,76,112
113640,note_on,133,0,1,,,,,,,,,0,,,56,112
113640,note_on,0,0,1,,,,,,,,,0,,,59,112
113753,note_on,0,0,1,,,,,,,,,0,,,59,0
113753,note_on,0,0,1,,,,,,,,,0,,,64,0
113753,note_on,0,0,0,,,,,,,,,0,,,76,0
113753,note_on,113,0,1,,,,,,,,,0,,,56,0
113753,note_on,0,0,0,,,,,,,,,0,,,71,0
113753,note_on,113,0,0,,,,,,,,,0,,,68,0
113760,note_on,7,0,0,,,,,,,,,0,,,68,112
113760,note_on,0,0,0,,,,,,,,,0,,,71,112
113760,note_on,0,0,0,,,,,,,,,0,,,76,112
113760,note_on,0,0,1,,,,,,,,,0,,,64,112
113760,note_on,0,0,1,,,,,,,,,0,,,59,112
113760,note_on,7,0,1,,,,,,,,,0,,,56,112
113987,note_on,227,0,0,,,,,,,,,0,,,68,0
113987,note_on,0,0,1,,,,,,,,,0,,,64,0
113987,note_on,0,0,0,,,,,,,,,0,,,76,0
113987,note_on,227,0,1,,,,,,,,,0,,,56,0
113987,note_on,0,0,0,,,,,,,,,0,,,71,0
113987,note_on,0,0,1,,,,,,,,,0,,,59,0
114000,note_on,0,0,1,,,,,,,,,0,,,48,112
114000,note_on,13,0,1,,,,,,,,,0,,,36,112
114000,note_on,0,0,0,,,,,,,,,0,,,75,112
114000,note_on,0,0,0,,,,,,,,,0,,,78,112
114000,note_on,0,0,0,,,,,,,,,0,,,87,112
114000,set_tempo,13,1,0,,,,,,500000,,,,,,,
114001,control_change,1,0,0,,,,,,,64,0,0,,,,
114002,control_change,1,0,0,,,,,,,64,127,0,,,,
114227,note_on,0,0,0,,,,,,,,,0,,,87,0
114227,note_on,225,0,0,,,,,,,,,0,,,75,0
114227,note_on,227,0,1,,,,,,,,,0,,,36,0
114227,note_on,0,0,0,,,,,,,,,0,,,78,0
114227,note_on,0,0,1,,,,,,,,,0,,,48,0
114360,note_on,133,0,0,,,,,,,,,0,,,66,112
114360,note_on,0,0,0,,,,,,,,,0,,,75,112
114360,note_on,0,0,0,,,,,,,,,0,,,69,112
114360,note_on,133,0,1,,,,,,,,,0,,,54,112
114360,note_on,0,0,1,,,,,,,,,0,,,57,112
114360,note_on,0,0,1,,,,,,,,,0,,,63,112
114473,note_on,0,0,0,,,,,,,,,0,,,75,0
114473,note_on,0,0,0,,,,,,,,,0,,,69,0
114473,note_on,0,0,1,,,,,,,,,0,,,57,0
114473,note_on,113,0,1,,,,,,,,,0,,,54,0
114473,note_on,113,0,0,,,,,,,,,0,,,66,0
114473,note_on,0,0,1,,,,,,,,,0,,,63,0
114480,note_on,0,0,0,,,,,,,,,0,,,69,112
114480,note_on,0,0,0,,,,,,,,,0,,,75,112
114480,note_on,7,0,1,,,,,,,,,0,,,54,112
114480,note_on,7,0,0,,,,,,,,,0,,,66,112
114480,note_on,0,0,1,,,,,,,,,0,,,63,112
114480,note_on,0,0,1,,,,,,,,,0,,,57,112
114707,note_on,0,0,0,,,,,,,,,0,,,69,0
114707,note_on,0,0,1,,,,,,,,,0,,,57,0
114707,note_on,0,0,0,,,,,,,,,0,,,75,0
114707,note_on,0,0,1,,,,,,,,,0,,,63,0
114707,note_on,227,0,0,,,,,,,,,0,,,66,0
114707,note_on,227,0,1,,,,,,,,,0,,,54,0
114720,note_on,13,0,0,,,,,,,,,0,,,87,127
114720,note_on,13,0,1,,,,,,,,,0,,,37,127
114720,note_on,0,0,1,,,,,,,,,0,,,49,127
114721,control_change,1,0,0,,,,,,,64,0,0,,,,
114722,control_change,1,0,0,,,,,,,64,127,0,,,,
114781,note_on,59,0,0,,,,,,,,,0,,,87,0
114782,note_on,0,0,0,,,,,,,,,0,,,85,127
114782,note_on,1,0,0,,,,,,,,,0,,,73,127
114879,note_on,159,0,1,,,,,,,,,0,,,37,0
114879,note_on,0,0,1,,,,,,,,,0,,,49,0
114899,note_on,0,0,0,,,,,,,,,0,,,85,0
114899,note_on,117,0,0,,,,,,,,,0,,,73,0
115080,note_on,201,0,1,,,,,,,,,0,,,54,112
115080,note_on,181,0,0,,,,,,,,,0,,,66,112
115080,note_on,0,0,1,,,,,,,,,0,,,61,112
115080,note_on,0,0,1,,,,,,,,,0,,,58,112
115080,note_on,0,0,0,,,,,,,,,0,,,70,112
115080,note_on,0,0,0,,,,,,,,,0,,,73,112
115193,note_on,0,0,0,,,,,,,,,0,,,70,0
115193,note_on,0,0,0,,,,,,,,,0,,,73,0
115193,note_on,0,0,1,,,,,,,,,0,,,61,0
115193,note_on,0,0,1,,,,,,,,,0,,,58,0
115193,note_on,113,0,1,,,,,,,,,0,,,54,0
115193,note_on,113,0,0,,,,,,,,,0,,,66,0
115200,note_on,7,0,1,,,,,,,,,0,,,55,112
115200,note_on,0,0,1,,,,,,,,,0,,,58,112
115200,note_on,0,0,0,,,,,,,,,0,,,70,112
115200,note_on,0,0,0,,,,,,,,,0,,,73,112
115200,note_on,0,0,1,,,,,,,,,0,,,61,112
115200,note_on,7,0,0,,,,,,,,,0,,,67,112
115427,note_on,0,0,0,,,,,,,,,0,,,70,0
115427,note_on,0,0,0,,,,,,,,,0,,,73,0
115427,note_on,227,0,1,,,,,,,,,0,,,55,0
115427,note_on,227,0,0,,,,,,,,,0,,,67,0
115427,note_on,0,0,1,,,,,,,,,0,,,58,0
115427,note_on,0,0,1,,,,,,,,,0,,,61,0
115440,note_on,13,0,1,,,,,,,,,0,,,55,112
115440,note_on,0,0,0,,,,,,,,,0,,,73,112
115440,note_on,0,0,1,,,,,,,,,0,,,58,112
115440,note_on,0,0,1,,,,,,,,,0,,,61,112
115440,note_on,0,0,0,,,,,,,,,0,,,70,112
115440,note_on,13,0,0,,,,,,,,,0,,,67,112
115667,note_on,227,0,1,,,,,,,,,0,,,55,0
115667,note_on,227,0,0,,,,,,,,,0,,,67,0
115667,note_on,0,0,0,,,,,,,,,0,,,73,0
115667,note_on,0,0,0,,,,,,,,,0,,,70,0
115667,note_on,0,0,1,,,,,,,,,0,,,61,0
115667,note_on,0,0,1,,,,,,,,,0,,,58,0
115800,note_on,133,0,0,,,,,,,,,0,,,68,112
115800,note_on,0,0,0,,,,,,,,,0,,,73,112
115800,note_on,0,0,0,,,,,,,,,0,,,71,112
115800,note_on,0,0,1,,,,,,,,,0,,,59,112
115800,note_on,0,0,1,,,,,,,,,0,,,61,112
115800,note_on,133,0,1,,,,,,,,,0,,,56,112
115913,note_on,0,0,1,,,,,,,,,0,,,61,0
115913,note_on,113,0,0,,,,,,,,,0,,,68,0
115913,note_on,0,0,0,,,,,,,,,0,,,73,0
115913,note_on,0,0,1,,,,,,,,,0,,,59,0
115913,note_on,0,0,0,,,,,,,,,0,,,71,0
115913,note_on,113,0,1,,,,,,,,,0,,,56,0
115920,note_on,0,0,1,,,,,,,,,0,,,61,112
115920,note_on,7,0,1,,,,,,,,,0,,,53,112
115920,note_on,7,0,0,,,,,,,,,0,,,65,112
115920,note_on,0,0,1,,,,,,,,,0,,,56,112
115920,note_on,0,0,0,,,,,,,,,0,,,68,112
115920,note_on,0,0,0,,,,,,,,,0,,,73,112
116147,note_on,0,0,0,,,,,,,,,0,,,68,0
116147,note_on,0,0,1,,,,,,,,,0,,,61,0
116147,note_on,0,0,1,,,,,,,,,0,,,56,0
116147,note_on,0,0,0,,,,,,,,,0,,,73,0
116147,note_on,227,0,0,,,,,,,,,0,,,65,0
116147,note_on,227,0,1,,,,,,,,,0,,,53,0
116160,note_on,0,0,0,,,,,,,,,0,,,87,127
116160,set_tempo,13,1,0,,,,,,461538,,,,,,,
116160,note_on,13,0,1,,,,,,,,,0,,,37,127
116160,note_on,0,0,1,,,,,,,,,0,,,49,127
116161,control_change,1,0,0,,,,,,,64,0,0,,,,
116162,control_change,1,0,0,,,,,,,64,127,0,,,,
116226,note_on,64,0,0,,,,,,,,,0,,,87,0
116227,note_on,0,0,0,,,,,,,,,0,,,85,127
116227,note_on,1,0,0,,,,,,,,,0,,,73,127
116319,note_on,0,0,1,,,,,,,,,0,,,49,0
116319,note_on,159,0,1,,,,,,,,,0,,,37,0
116341,note_on,0,0,0,,,,,,,,,0,,,85,0
116341,note_on,114,0,0,,,,,,,,,0,,,73,0
116520,note_on,0,0,1,,,,,,,,,0,,,61,112
116520,note_on,0,0,1,,,,,,,,,0,,,58,112
116520,note_on,0,0,0,,,,,,,,,0,,,73,112
116520,note_on,0,0,0,,,,,,,,,0,,,70,112
116520,note_on,201,0,1,,,,,,,,,0,,,54,112
116520,note_on,179,0,0,,,,,,,,,0,,,66,112
116633,note_on,0,0,1,,,,,,,,,0,,,58,0
116633,note_on,0,0,1,,,,,,,,,0,,,61,0
116633,note_on,113,0,0,,,,,,,,,0,,,66,0
116633,note_on,0,0,0,,,,,,,,,0,,,70,0
116633,note_on,0,0,0,,,,,,,,,0,,,73,0
116633,note_on,113,0,1,,,,,,,,,0,,,54,0
116640,note_on,0,0,0,,,,,,,,,0,,,73,112
116640,note_on,0,0,1,,,,,,,,,0,,,61,112
116640,note_on,7,0,1,,,,,,,,,0,,,55,112
116640,note_on,0,0,1,,,,,,,,,0,,,58,112
116640,note_on,0,0,0,,,,,,,,,0,,,70,112
116640,note_on,7,0,0,,,,,,,,,0,,,66,112
116867,note_on,0,0,1,,,,,,,,,0,,,61,0
116867,note_on,0,0,1,,,,,,,,,0,,,58,0
116867,note_on,227,0,1,,,,,,,,,0,,,55,0
116867,note_on,0,0,0,,,,,,,,,0,,,73,0
116867,note_on,0,0,0,,,,,,,,,0,,,70,0
116867,note_on,227,0,0,,,,,,,,,0,,,66,0
116880,note_on,0,0,0,,,,,,,,,0,,,73,112
116880,note_on,0,0,0,,,,,,,,,0,,,70,112
116880,note_on,13,0,1,,,,,,,,,0,,,55,112
116880,note_on,0,0,1,,,,,,,,,0,,,61,112
116880,note_on,13,0,0,,,,,,,,,0,,,66,112
116880,note_on,0,0,1,,,,,,,,,0,,,58,112
117107,note_on,227,0,0,,,,,,,,,0,,,66,0
117107,note_on,0,0,0,,,,,,,,,0,,,70,0
117107,note_on,227,0,1,,,,,,,,,0,,,55,0
117107,note_on,0,0,1,,,,,,,,,0,,,61,0
117107,note_on,0,0,1,,,,,,,,,0,,,58,0
117107,note_on,0,0,0,,,,,,,,,0,,,73,0
117240,note_on,0,0,0,,,,,,,,,0,,,73,112
117240,note_on,0,0,1,,,,,,,,,0,,,61,112
117240,note_on,0,0,1,,,,,,,,,0,,,59,112
117240,note_on,133,0,1,,,,,,,,,0,,,56,112
117240,note_on,133,0,0,,,,,,,,,0,,,68,112
117240,note_on,0,0,0,,,,,,,,,0,,,71,112
117353,note_on,0,0,0,,,,,,,,,0,,,71,0
117353,note_on,0,0,0,,,,,,,,,0,,,73,0
117353,note_on,113,0,1,,,,,,,,,0,,,56,0
117353,note_on,113,0,0,,,,,,,,,0,,,68,0
117353,note_on,0,0,1,,,,,,,,,0,,,59,0
117353,note_on,0,0,1,,,,,,,,,0,,,61,0
117360,note_on,0,0,0,,,,,,,,,0,,,68,112
117360,note_on,0,0,0,,,,,,,,,0,,,73,112
117360,note_on,7,0,0,,,,,,,,,0,,,65,112
117360,note_on,0,0,1,,,,,,,,,0,,,61,112
117360,note_on,0,0,1,,,,,,,,,0,,,56,112
117360,note_on,7,0,1,,,,,,,,,0,,,53,112
117587,note_on,0,0,0,,,,,,,,,0,,,68,0
117587,note_on,0,0,1,,,,,,,,,0,,,61,0
117587,note_on,0,0,1,,,,,,,,,0,,,56,0
117587,note_on,0,0,0,,,,,,,,,0,,,73,0
117587,note_on,227,0,1,,,,,,,,,0,,,53,0
117587,note_on,227,0,0,,,,,,,,,0,,,65,0
117600,note_on,13,0,0,,,,,,,,,0,,,83,127
117600,note_on,0,0,1,,,,,,,,,0,,,46,127
117600,note_on,13,0,1,,,,,,,,,0,,,34,127
117601,control_change,1,0,0,,,,,,,64,0,0,,,,
117602,control_change,1,0,0,,,,,,,64,127,0,,,,
117666,note_on,64,0,0,,,,,,,,,0,,,83,0
117667,note_on,1,0,0,,,,,,,,,0,,,70,127
117667,note_on,0,0,0,,,,,,,,,0,,,82,127
117759,note_on,0,0,1,,,,,,,,,0,,,46,0
117759,note_on,159,0,1,,,,,,,,,0,,,34,0
117781,note_on,114,0,0,,,,,,,,,0,,,70,0
117781,note_on,0,0,0,,,,,,,,,0,,,82,0
117960,note_on,179,0,0,,,,,,,,,0,,,63,112
117960,note_on,0,0,1,,,,,,,,,0,,,54,112
117960,note_on,201,0,1,,,,,,,,,0,,,51,112
117960,note_on,0,0,0,,,,,,,,,0,,,66,112
117960,note_on,0,0,0,,,,,,,,,0,,,70,112
117960,note_on,0,0,1,,,,,,,,,0,,,58,112
118073,note_on,0,0,0,,,,,,,,,0,,,70,0
118073,note_on,0,0,1,,,,,,,,,0,,,54,0
118073,note_on,0,0,1,,,,,,,,,0,,,58,0
118073,note_on,113,0,1,,,,,,,,,0,,,51,0
118073,note_on,0,0,0,,,,,,,,,0,,,66,0
118073,note_on,113,0,0,,,,,,,,,0,,,63,0
118080,note_on,0,0,0,,,,,,,,,0,,,67,112
118080,note_on,7,0,0,,,,,,,,,0,,,64,112
118080,note_on,0,0,0,,,,,,,,,0,,,70,112
118080,note_on,0,0,1,,,,,,,,,0,,,58,112
118080,note_on,0,0,1,,,,,,,,,0,,,55,112
118080,note_on,7,0,1,,,,,,,,,0,,,52,112
118307,note_on,0,0,1,,,,,,,,,0,,,58,0
118307,note_on,0,0,1,,,,,,,,,0,,,55,0
118307,note_on,227,0,1,,,,,,,,,0,,,52,0
118307,note_on,227,0,0,,,,,,,,,0,,,64,0
118307,note_on,0,0,0,,,,,,,,,0,,,67,0
118307,note_on,0,0,0,,,,,,,,,0,,,70,0
118320,note_on,0,0,1,,,,,,,,,0,,,55,112
118320,note_on,13,0,1,,,,,,,,,0,,,52,112
118320,note_on,13,0,0,,,,,,,,,0,,,64,112
118320,note_on,0,0,0,,,,,,,,,0,,,67,112
118320,note_on,0,0,0,,,,,,,,,0,,,70,112
118320,note_on,0,0,1,,,,,,,,,0,,,58,112
118547,note_on,227,0,1,,,,,,,,,0,,,52,0
118547,note_on,0,0,0,,,,,,,,,0,,,67,0
118547,note_on,0,0,0,,,,,,,,,0,,,70,0
118547,note_on,0,0,1,,,,,,,,,0,,,55,0
118547,note_on,0,0,1,,,,,,,,,0,,,58,0
118547,note_on,227,0,0,,,,,,,,,0,,,64,0
118680,note_on,0,0,0,,,,,,,,,0,,,68,112
118680,note_on,0,0,0,,,,,,,,,0,,,70,112
118680,note_on,133,0,0,,,,,,,,,0,,,65,112
118680,note_on,133,0,1,,,,,,,,,0,,,53,112
118680,note_on,0,0,1,,,,,,,,,0,,,56,112
118680,note_on,0,0,1,,,,,,,,,0,,,58,112
118793,note_on,113,0,1,,,,,,,,,0,,,53,0
118793,note_on,0,0,0,,,,,,,,,0,,,70,0
118793,note_on,0,0,0,,,,,,,,,0,,,68,0
118793,note_on,113,0,0,,,,,,,,,0,,,65,0
118793,note_on,0,0,1,,,,,,,,,0,,,56,0
118793,note_on,0,0,1,,,,,,,,,0,,,58,0
118800,note_on,7,0,0,,,,,,,,,0,,,62,112
118800,note_on,7,0,1,,,,,,,,,0,,,50,112
118800,note_on,0,0,0,,,,,,,,,0,,,70,112
118800,note_on,0,0,1,,,,,,,,,0,,,53,112
118800,note_on,0,0,1,,,,,,,,,0,,,58,112
118800,note_on,0,0,0,,,,,,,,,0,,,65,112
119027,note_on,0,0,1,,,,,,,,,0,,,53,0
119027,note_on,0,0,1,,,,,,,,,0,,,58,0
119027,note_on,227,0,0,,,,,,,,,0,,,62,0
119027,note_on,0,0,0,,,,,,,,,0,,,70,0
119027,note_on,0,0,0,,,,,,,,,0,,,65,0
119027,note_on,227,0,1,,,,,,,,,0,,,50,0
119040,note_on,13,0,1,,,,,,,,,0,,,34,127
119040,note_on,0,0,1,,,,,,,,,0,,,46,127
119040,note_on,13,0,0,,,,,,,,,0,,,83,127
119041,control_change,1,0,0,,,,,,,64,0,0,,,,
119106,note_on,65,0,0,,,,,,,,,0,,,83,0
119107,note_on,0,0,0,,,,,,,,,0,,,82,127
119107,note_on,1,0,0,,,,,,,,,0,,,70,127
119199,note_on,0,0,1,,,,,,,,,0,,,46,0
119199,note_on,159,0,1,,,,,,,,,0,,,34,0
119221,note_on,114,0,0,,,,,,,,,0,,,70,0
119221,note_on,0,0,0,,,,,,,,,0,,,82,0
119400,note_on,0,0,1,,,,,,,,,0,,,54,112
119400,note_on,0,0,1,,,,,,,,,0,,,58,112
119400,set_tempo,179,1,0,,,,,,500000,,,,,,,
119400,note_on,0,0,0,,,,,,,,,0,,,70,112
119400,note_on,0,0,0,,,,,,,,,0,,,63,112
119400,note_on,201,0,1,,,,,,,,,0,,,51,112
119400,note_on,0,0,0,,,,,,,,,0,,,66,112
119513,note_on,0,0,0,,,,,,,,,0,,,66,0
119513,note_on,0,0,1,,,,,,,,,0,,,54,0
119513,note_on,0,0,1,,,,,,,,,0,,,58,0
119513,note_on,113,0,1,,,,,,,,,0,,,51,0
119513,note_on,113,0,0,,,,,,,,,0,,,63,0
119513,note_on,0,0,0,,,,,,,,,0,,,70,0
119520,note_on,0,0,0,,,,,,,,,0,,,67,105
119520,note_on,0,0,0,,,,,,,,,0,,,70,105
119520,note_on,7,0,0,,,,,,,,,0,,,64,105
119520,note_on,0,0,1,,,,,,,,,0,,,58,105
119520,note_on,7,0,1,,,,,,,,,0,,,52,105
119520,note_on,0,0,1,,,,,,,,,0,,,55,105
119747,note_on,227,0,1,,,,,,,,,0,,,52,0
119747,note_on,0,0,0,,,,,,,,,0,,,70,0
119747,note_on,227,0,0,,,,,,,,,0,,,64,0
119747,note_on,0,0,1,,,,,,,,,0,,,55,0
119747,note_on,0,0,1,,,,,,,,,0,,,58,0
119747,note_on,0,0,0,,,,,,,,,0,,,67,0
119760,note_on,0,0,1,,,,,,,,,0,,,58,90
119760,note_on,0,0,1,,,,,,,,,0,,,55,90
119760,note_on,0,0,0,,,,,,,,,0,,,64,90
119760,note_on,0,0,0,,,,,,,,,0,,,67,90
119760,note_on,13,0,1,,,,,,,,,0,,,52,90
119760,note_on,0,0,0,,,,,,,,,0,,,70,90
119760,set_tempo,13,1,0,,,,,,599999,,,,,,,
119987,note_on,227,0,0,,,,,,,,,0,,,64,0
119987,note_on,0,0,1,,,,,,,,,0,,,58,0
119987,note_on,0,0,0,,,,,,,,,0,,,67,0
119987,note_on,0,0,0,,,,,,,,,0,,,70,0
119987,note_on,0,0,1,,,,,,,,,0,,,55,0
119987,note_on,227,0,1,,,,,,,,,0,,,52,0
120120,note_on,133,0,1,,,,,,,,,0,,,53,68
120120,note_on,0,0,1,,,,,,,,,0,,,56,68
120120,note_on,0,0,1,,,,,,,,,0,,,58,68
120120,note_on,0,0,0,,,,,,,,,0,,,70,68
120120,note_on,0,0,0,,,,,,,,,0,,,68,68
120120,note_on,133,0,0,,,,,,,,,0,,,65,68
120233,note_on,0,0,0,,,,,,,,,0,,,70,0
120233,note_on,0,0,0,,,,,,,,,0,,,68,0
120233,note_on,0,0,1,,,,,,,,,0,,,56,0
120233,note_on,0,0,1,,,,,,,,,0,,,58,0
120233,note_on,113,0,0,,,,,,,,,0,,,65,0
120233,note_on,113,0,1,,,,,,,,,0,,,53,0
120240,note_on,0,0,1,,,,,,,,,0,,,58,60
120240,note_on,0,0,1,,,,,,,,,0,,,53,60
120240,note_on,0,0,0,,,,,,,,,0,,,70,60
120240,note_on,0,0,0,,,,,,,,,0,,,62,60
120240,note_on,0,0,0,,,,,,,,,0,,,65,60
120240,set_tempo,7,1,0,,,,,,1200000,,,,,,,
120240,note_on,7,0,1,,,,,,,,,0,,,50,60
120467,note_on,0,0,0,,,,,,,,,0,,,65,0
120467,note_on,227,0,1,,,,,,,,,0,,,50,0
120467,note_on,0,0,1,,,,,,,,,0,,,58,0
120467,note_on,0,0,1,,,,,,,,,0,,,53,0
120467,note_on,227,0,0,,,,,,,,,0,,,62,0
120467,note_on,0,0,0,,,,,,,,,0,,,70,0
120480,note_on,13,0,1,,,,,,,,,0,,,39,60
120480,note_on,0,0,1,,,,,,,,,0,,,46,60
120480,set_tempo,13,1,0,,,,,,666667,,,,,,,
120480,note_on,0,0,1,,,,,,,,,0,,,51,60
120480,note_on,0,0,0,,,,,,,,,0,,,67,72
120482,control_change,2,0,1,,,,,,,64,127,0,,,,
120599,note_on,0,0,1,,,,,,,,,0,,,51,0
120599,note_on,117,0,1,,,,,,,,,0,,,39,0
120599,note_on,0,0,1,,,,,,,,,0,,,46,0
120600,note_on,120,0,0,,,,,,,,,0,,,55,60
120713,note_on,113,0,0,,,,,,,,,0,,,55,0
120720,note_on,7,0,0,,,,,,,,,0,,,58,60
120833,note_on,113,0,0,,,,,,,,,0,,,58,0
120840,note_on,0,0,0,,,,,,,,,0,,,65,0
120840,note_on,0,0,1,,,,,,,,,0,,,51,60
120840,note_on,7,0,0,,,,,,,,,0,,,65,60
120840,note_on,241,0,1,,,,,,,,,0,,,39,60
120840,note_on,0,0,1,,,,,,,,,0,,,46,60
120840,note_on,0,0,0,,,,,,,,,0,,,65,60
120899,note_on,0,0,1,,,,,,,,,0,,,46,0
120899,note_on,0,0,1,,,,,,,,,0,,,51,0
120899,note_on,59,0,1,,,,,,,,,0,,,39,0
120960,note_on,120,0,0,,,,,,,,,0,,,55,60
120960,note_on,0,0,1,,,,,,,,,0,,,46,60
120960,note_on,61,0,1,,,,,,,,,0,,,39,60
120960,note_on,0,0,1,,,,,,,,,0,,,51,60
121073,note_on,113,0,0,,,,,,,,,0,,,55,0
121079,note_on,119,0,1,,,,,,,,,0,,,39,0
121079,note_on,0,0,1,,,,,,,,,0,,,46,0
121079,note_on,0,0,1,,,,,,,,,0,,,51,0
121080,note_on,7,0,0,,,,,,,,,0,,,58,60
121193,note_on,113,0,0,,,,,,,,,0,,,58,0
121199,note_on,6,0,0,,,,,,,,,0,,,65,0
121200,note_on,0,0,0,,,,,,,,,0,,,63,60
121200,note_on,0,0,0,,,,,,,,,0,,,63,60
121200,set_tempo,1,1,0,,,,,,571429,,,,,,,
121200,note_on,0,0,0,,,,,,,,,0,,,63,0
121320,note_on,120,0,0,,,,,,,,,0,,,55,60
121433,note_on,113,0,0,,,,,,,,,0,,,55,0
121440,note_on,7,0,0,,,,,,,,,0,,,58,60
121553,note_on,113,0,0,,,,,,,,,0,,,58,0
121559,note_on,6,0,0,,,,,,,,,0,,,63,0
121560,note_on,1,0,0,,,,,,,,,0,,,62,60
121560,note_on,0,0,0,,,,,,,,,0,,,62,60
121560,note_on,0,0,0,,,,,,,,,0,,,62,0
121680,note_on,120,0,0,,,,,,,,,0,,,55,60
121793,note_on,113,0,0,,,,,,,,,0,,,55,0
121800,note_on,7,0,0,,,,,,,,,0,,,58,60
121913,note_on,113,0,0,,,,,,,,,0,,,58,0
121919,note_on,0,0,0,,,,,,,,,0,,,62,0
121919,note_on,6,0,0,,,,,,,,,0,,,67,0
121920,note_on,0,0,1,,,,,,,,,0,,,46,60
121920,set_tempo,1,1,0,,,,,,500000,,,,,,,
121920,note_on,0,0,1,,,,,,,,,0,,,51,60
121920,note_on,0,0,0,,,,,,,,,0,,,67,72
121920,note_on,841,0,1,,,,,,,,,0,,,39,60
122039,note_on,119,0,1,,,,,,,,,0,,,39,0
122039,note_on,0,0,1,,,,,,,,,0,,,46,0
122039,note_on,0,0,1,,,,,,,,,0,,,51,0
122040,note_on,120,0,0,,,,,,,,,0,,,55,60
122153,note_on,113,0,0,,,,,,,,,0,,,55,0
122160,note_on,7,0,0,,,,,,,,,0,,,58,60
122273,note_on,113,0,0,,,,,,,,,0,,,58,0
122280,note_on,0,0,0,,,,,,,,,0,,,60,0
122280,note_on,0,0,0,,,,,,,,,0,,,60,60
122280,note_on,241,0,1,,,,,,,,,0,,,39,60
122280,note_on,0,0,1,,,,,,,,,0,,,46,60
122280,note_on,7,0,0,,,,,,,,,0,,,60,60
122280,note_on,0,0,1,,,,,,,,,0,,,51,60
122339,note_on,0,0,1,,,,,,,,,0,,,51,0
122339,note_on,59,0,1,,,,,,,,,0,,,39,0
122339,note_on,0,0,1,,,,,,,,,0,,,46,0
122400,note_on,0,0,1,,,,,,,,,0,,,51,60
122400,note_on,61,0,1,,,,,,,,,0,,,39,60
122400,note_on,120,0,0,,,,,,,,,0,,,55,60
122400,note_on,0,0,1,,,,,,,,,0,,,46,60
122513,note_on,113,0,0,,,,,,,,,0,,,55,0
122519,note_on,0,0,1,,,,,,,,,0,,,46,0
122519,note_on,0,0,1,,,,,,,,,0,,,51,0
122519,note_on,119,0,1,,,,,,,,,0,,,39,0
122520,note_on,7,0,0,,,,,,,,,0,,,57,60
122621,note_on,101,0,0,,,,,,,,,0,,,60,0
122633,note_on,12,0,0,,,,,,,,,0,,,57,0
122639,note_on,6,0,0,,,,,,,,,0,,,67,0
122640,note_on,1,0,0,,,,,,,,,0,,,67,72
122760,note_on,120,0,0,,,,,,,,,0,,,55,60
122873,note_on,113,0,0,,,,,,,,,0,,,55,0
122880,note_on,7,0,0,,,,,,,,,0,,,58,60
122993,note_on,113,0,0,,,,,,,,,0,,,58,0
123000,note_on,7,0,0,,,,,,,,,0,,,63,60
123113,note_on,113,0,0,,,,,,,,,0,,,63,0
123120,note_on,7,0,0,,,,,,,,,0,,,55,60
123233,note_on,113,0,0,,,,,,,,,0,,,55,0
123240,note_on,7,0,0,,,,,,,,,0,,,58,60
123353,note_on,113,0,0,,,,,,,,,0,,,58,0
123359,note_on,6,0,0,,,,,,,,,0,,,67,0
123360,note_on,1,0,0,,,,,,,,,0,,,67,60
123360,note_on,0,0,0,,,,,,,,,0,,,67,60
123360,note_on,0,0,0,,,,,,,,,0,,,67,0
123360,note_on,0,0,1,,,,,,,,,0,,,47,60
123360,note_on,841,0,1,,,,,,,,,0,,,39,60
123360,note_on,0,0,1,,,,,,,,,0,,,50,60
123361,control_change,1,0,1,,,,,,,64,0,0,,,,
123362,control_change,1,0,1,,,,,,,64,127,0,,,,
123479,note_on,0,0,1,,,,,,,,,0,,,47,0
123479,note_on,0,0,1,,,,,,,,,0,,,50,0
123479,note_on,117,0,1,,,,,,,,,0,,,39,0
123480,note_on,120,0,0,,,,,,,,,0,,,56,60
123593,note_on,113,0,0,,,,,,,,,0,,,56,0
123600,note_on,7,0,0,,,,,,,,,0,,,59,62
123701,note_on,101,0,0,,,,,,,,,0,,,67,0
123713,note_on,12,0,0,,,,,,,,,0,,,59,0
123720,note_on,0,0,0,,,,,,,,,0,,,64,0
123720,note_on,0,0,1,,,,,,,,,0,,,50,65
123720,note_on,0,0,1,,,,,,,,,0,,,47,65
123720,note_on,0,0,0,,,,,,,,,0,,,64,65
123720,note_on,7,0,0,,,,,,,,,0,,,64,65
123720,note_on,241,0,1,,,,,,,,,0,,,39,65
123779,note_on,59,0,1,,,,,,,,,0,,,39,0
123779,note_on,0,0,1,,,,,,,,,0,,,47,0
123779,note_on,0,0,1,,,,,,,,,0,,,50,0
123840,note_on,61,0,1,,,,,,,,,0,,,39,67
123840,note_on,0,0,1,,,,,,,,,0,,,47,67
123840,note_on,0,0,1,,,,,,,,,0,,,50,67
123840,note_on,120,0,0,,,,,,,,,0,,,56,67
123953,note_on,113,0,0,,,,,,,,,0,,,56,0
123959,note_on,0,0,1,,,,,,,,,0,,,50,0
123959,note_on,119,0,1,,,,,,,,,0,,,39,0
123959,note_on,0,0,1,,,,,,,,,0,,,47,0
123960,note_on,7,0,0,,,,,,,,,0,,,59,70
124061,note_on,101,0,0,,,,,,,,,0,,,64,0
124073,note_on,12,0,0,,,,,,,,,0,,,59,0
124080,note_on,7,0,0,,,,,,,,,0,,,65,72
124080,note_on,0,0,0,,,,,,,,,0,,,65,0
124080,note_on,0,0,0,,,,,,,,,0,,,65,72
124200,note_on,120,0,0,,,,,,,,,0,,,56,75
124313,note_on,113,0,0,,,,,,,,,0,,,56,0
124320,note_on,7,0,0,,,,,,,,,0,,,59,77
124421,note_on,101,0,0,,,,,,,,,0,,,65,0
124433,note_on,12,0,0,,,,,,,,,0,,,59,0
124440,note_on,0,0,0,,,,,,,,,0,,,67,80
124440,note_on,0,0,0,,,,,,,,,0,,,67,0
124440,note_on,7,0,0,,,,,,,,,0,,,67,80
124560,note_on,120,0,0,,,,,,,,,0,,,56,82
124673,note_on,113,0,0,,,,,,,,,0,,,56,0
124680,note_on,7,0,0,,,,,,,,,0,,,59,85
124781,note_on,101,0,0,,,,,,,,,0,,,67,0
124793,note_on,12,0,0,,,,,,,,,0,,,59,0
124800,note_on,0,0,1,,,,,,,,,0,,,50,87
124800,note_on,0,0,1,,,,,,,,,0,,,46,87
124800,note_on,0,0,0,,,,,,,,,0,,,68,0
124800,set_tempo,7,1,0,,,,,,545455,,,,,,,
124800,note_on,841,0,1,,,,,,,,,0,,,39,87
124800,note_on,0,0,0,,,,,,,,,0,,,68,87
124800,note_on,0,0,0,,,,,,,,,0,,,68,87
124919,note_on,119,0,1,,,,,,,,,0,,,39,0
124919,note_on,0,0,1,,,,,,,,,0,,,46,0
124919,note_on,0,0,1,,,,,,,,,0,,,50,0
124920,note_on,120,0,0,,,,,,,,,0,,,56,90
125033,note_on,113,0,0,,,,,,,,,0,,,56,0
125040,note_on,7,0,0,,,,,,,,,0,,,62,92
125141,note_on,101,0,0,,,,,,,,,0,,,68,0
125153,note_on,12,0,0,,,,,,,,,0,,,62,0
125160,note_on,0,0,0,,,,,,,,,0,,,69,0
125160,note_on,7,0,0,,,,,,,,,0,,,69,95
125160,note_on,241,0,1,,,,,,,,,0,,,39,95
125160,note_on,0,0,0,,,,,,,,,0,,,69,95
125160,note_on,0,0,1,,,,,,,,,0,,,50,95
125160,note_on,0,0,1,,,,,,,,,0,,,46,95
125219,note_on,0,0,1,,,,,,,,,0,,,46,0
125219,note_on,0,0,1,,,,,,,,,0,,,50,0
125219,note_on,59,0,1,,,,,,,,,0,,,39,0
125280,note_on,0,0,1,,,,,,,,,0,,,46,97
125280,note_on,120,0,0,,,,,,,,,0,,,56,97
125280,note_on,61,0,1,,,,,,,,,0,,,39,97
125280,note_on,0,0,1,,,,,,,,,0,,,50,97
125393,note_on,113,0,0,,,,,,,,,0,,,56,0
125399,note_on,0,0,1,,,,,,,,,0,,,50,0
125399,note_on,0,0,1,,,,,,,,,0,,,46,0
125399,note_on,119,0,1,,,,,,,,,0,,,39,0
125400,note_on,7,0,0,,,,,,,,,0,,,62,100
125501,note_on,101,0,0,,,,,,,,,0,,,69,0
125513,note_on,12,0,0,,,,,,,,,0,,,62,0
125520,note_on,0,0,0,,,,,,,,,0,,,72,100
125520,note_on,0,0,0,,,,,,,,,0,,,72,100
125520,note_on,0,0,0,,,,,,,,,0,,,72,0
125520,set_tempo,7,1,0,,,,,,600000,,,,,,,
125640,note_on,120,0,0,,,,,,,,,0,,,58,94
125753,note_on,113,0,0,,,,,,,,,0,,,58,0
125760,note_on,7,0,0,,,,,,,,,0,,,62,87
125861,note_on,101,0,0,,,,,,,,,0,,,72,0
125873,note_on,12,0,0,,,,,,,,,0,,,62,0
125880,note_on,0,0,0,,,,,,,,,0,,,70,80
125880,set_tempo,7,1,0,,,,,,666667,,,,,,,
125880,note_on,0,0,0,,,,,,,,,0,,,70,0
125880,note_on,0,0,0,,,,,,,,,0,,,70,80
126000,note_on,120,0,0,,,,,,,,,0,,,58,74
126113,note_on,113,0,0,,,,,,,,,0,,,58,0
126120,note_on,7,0,0,,,,,,,,,0,,,62,67
126221,note_on,101,0,0,,,,,,,,,0,,,70,0
126233,note_on,12,0,0,,,,,,,,,0,,,62,0
126240,note_on,0,0,1,,,,,,,,,0,,,51,60
126240,note_on,841,0,1,,,,,,,,,0,,,39,60
126240,note_on,0,0,1,,,,,,,,,0,,,46,60
126240,note_on,0,0,0,,,,,,,,,0,,,67,72
126240,set_tempo,7,1,0,,,,,,545455,,,,,,,
126241,control_change,1,0,1,,,,,,,64,0,0,,,,
126242,control_change,1,0,1,,,,,,,64,127,0,,,,
126359,note_on,117,0,1,,,,,,,,,0,,,39,0
126359,note_on,0,0,1,,,,,,,,,0,,,51,0
126359,note_on,0,0,1,,,,,,,,,0,,,46,0
126360,note_on,120,0,0,,,,,,,,,0,,,55,60
126473,note_on,113,0,0,,,,,,,,,0,,,55,0
126480,note_on,7,0,0,,,,,,,,,0,,,58,60
126593,note_on,113,0,0,,,,,,,,,0,,,58,0
126600,note_on,0,0,0,,,,,,,,,0,,,65,0
126600,note_on,0,0,0,,,,,,,,,0,,,65,60
126600,note_on,7,0,0,,,,,,,,,0,,,65,60
126600,note_on,241,0,1,,,,,,,,,0,,,39,60
126600,note_on,0,0,1,,,,,,,,,0,,,46,60
126600,note_on,0,0,1,,,,,,,,,0,,,51,60
126659,note_on,59,0,1,,,,,,,,,0,,,39,0
126659,note_on,0,0,1,,,,,,,,,0,,,51,0
126659,note_on,0,0,1,,,,,,,,,0,,,46,0
126720,note_on,61,0,1,,,,,,,,,0,,,39,60
126720,note_on,0,0,1,,,,,,,,,0,,,51,60
126720,note_on,0,0,1,,,,,,,,,0,,,46,60
126720,note_on,120,0,0,,,,,,,,,0,,,55,60
126833,note_on,113,0,0,,,,,,,,,0,,,55,0
126839,note_on,119,0,1,,,,,,,,,0,,,39,0
126839,note_on,0,0,1,,,,,,,,,0,,,51,0
126839,note_on,0,0,1,,,,,,,,,0,,,46,0
126840,note_on,7,0,0,,,,,,,,,0,,,58,60
126953,note_on,113,0,0,,,,,,,,,0,,,58,0
126959,note_on,6,0,0,,,,,,,,,0,,,65,0
126960,note_on,0,0,0,,,,,,,,,0,,,63,0
126960,set_tempo,1,1,0,,,,,,500000,,,,,,,
126960,note_on,0,0,0,,,,,,,,,0,,,63,60
126960,note_on,0,0,0,,,,,,,,,0,,,63,60
127080,note_on,120,0,0,,,,,,,,,0,,,55,60
127193,note_on,113,0,0,,,,,,,,,0,,,55,0
127200,note_on,7,0,0,,,,,,,,,0,,,58,60
127313,note_on,113,0,0,,,,,,,,,0,,,58,0
127319,note_on,6,0,0,,,,,,,,,0,,,63,0
127320,note_on,0,0,0,,,,,,,,,0,,,62,0
127320,note_on,1,0,0,,,,,,,,,0,,,62,60
127320,note_on,0,0,0,,,,,,,,,0,,,62,60
127440,note_on,120,0,0,,,,,,,,,0,,,55,60
127553,note_on,113,0,0,,,,,,,,,0,,,55,0
127560,note_on,7,0,0,,,,,,,,,0,,,58,60
127673,note_on,113,0,0,,,,,,,,,0,,,58,0
127679,note_on,6,0,0,,,,,,,,,0,,,67,0
127679,note_on,0,0,0,,,,,,,,,0,,,62,0
127680,set_tempo,1,1,0,,,,,,545455,,,,,,,
127680,note_on,0,0,0,,,,,,,,,0,,,67,60
127680,note_on,0,0,1,,,,,,,,,0,,,46,60
127680,note_on,0,0,1,,,,,,,,,0,,,51,60
127680,note_on,841,0,1,,,,,,,,,0,,,39,60
127799,note_on,119,0,1,,,,,,,,,0,,,39,0
127799,note_on,0,0,1,,,,,,,,,0,,,46,0
127799,note_on,0,0,1,,,,,,,,,0,,,51,0
127800,note_on,120,0,0,,,,,,,,,0,,,55,60
127913,note_on,113,0,0,,,,,,,,,0,,,55,0
127920,note_on,7,0,0,,,,,,,,,0,,,58,60
128033,note_on,113,0,0,,,,,,,,,0,,,58,0
128040,note_on,0,0,0,,,,,,,,,0,,,60,0
128040,note_on,0,0,1,,,,,,,,,0,,,51,60
128040,note_on,0,0,0,,,,,,,,,0,,,60,60
128040,note_on,0,0,1,,,,,,,,,0,,,46,60
128040,note_on,241,0,1,,,,,,,,,0,,,39,60
128040,note_on,7,0,0,,,,,,,,,0,,,60,60
128099,note_on,59,0,1,,,,,,,,,0,,,39,0
128099,note_on,0,0,1,,,,,,,,,0,,,51,0
128099,note_on,0,0,1,,,,,,,,,0,,,46,0
128160,note_on,61,0,1,,,,,,,,,0,,,39,60
128160,note_on,0,0,1,,,,,,,,,0,,,51,60
128160,note_on,0,0,1,,,,,,,,,0,,,46,60
128160,note_on,120,0,0,,,,,,,,,0,,,55,60
128273,note_on,113,0,0,,,,,,,,,0,,,55,0
128279,note_on,0,0,1,,,,,,,,,0,,,51,0
128279,note_on,0,0,1,,,,,,,,,0,,,46,0
128279,note_on,119,0,1,,,,,,,,,0,,,39,0
128280,note_on,7,0,0,,,,,,,,,0,,,57,60
128381,note_on,101,0,0,,,,,,,,,0,,,60,0
128393,note_on,12,0,0,,,,,,,,,0,,,57,0
128399,note_on,6,0,0,,,,,,,,,0,,,67,0
128400,note_on,0,0,0,,,,,,,,,0,,,67,60
128400,set_tempo,1,1,0,,,,,,600000,,,,,,,
128520,note_on,120,0,0,,,,,,,,,0,,,55,60
128633,note_on,113,0,0,,,,,,,,,0,,,55,0
128640,note_on,7,0,0,,,,,,,,,0,,,58,60
128753,note_on,113,0,0,,,,,,,,,0,,,58,0
128760,note_on,7,0,0,,,,,,,,,0,,,63,60
128873,note_on,113,0,0,,,,,,,,,0,,,63,0
128880,note_on,7,0,0,,,,,,,,,0,,,55,60
128993,note_on,113,0,0,,,,,,,,,0,,,55,0
129000,note_on,7,0,0,,,,,,,,,0,,,58,60
129113,note_on,113,0,0,,,,,,,,,0,,,58,0
129119,note_on,6,0,0,,,,,,,,,0,,,67,0
129120,note_on,0,0,0,,,,,,,,,0,,,67,0
129120,note_on,0,0,0,,,,,,,,,0,,,67,60
129120,note_on,0,0,0,,,,,,,,,0,,,67,72
129120,note_on,0,0,1,,,,,,,,,0,,,48,60
129120,set_tempo,1,1,0,,,,,,545455,,,,,,,
129120,note_on,841,0,1,,,,,,,,,0,,,38,60
129120,note_on,0,0,1,,,,,,,,,0,,,50,60
129121,control_change,1,0,1,,,,,,,64,0,0,,,,
129122,control_change,1,0,1,,,,,,,64,127,0,,,,
129239,note_on,117,0,1,,,,,,,,,0,,,38,0
129239,note_on,0,0,1,,,,,,,,,0,,,48,0
129239,note_on,0,0,1,,,,,,,,,0,,,50,0
129240,note_on,120,0,0,,,,,,,,,0,,,57,60
129353,note_on,113,0,0,,,,,,,,,0,,,57,0
129360,note_on,7,0,0,,,,,,,,,0,,,60,60
129473,note_on,113,0,0,,,,,,,,,0,,,60,0
129479,note_on,6,0,0,,,,,,,,,0,,,67,0
129480,note_on,0,0,0,,,,,,,,,0,,,66,60
129480,note_on,0,0,0,,,,,,,,,0,,,66,0
129480,note_on,241,0,1,,,,,,,,,0,,,38,60
129480,note_on,0,0,1,,,,,,,,,0,,,50,60
129480,note_on,1,0,0,,,,,,,,,0,,,66,60
129480,note_on,0,0,1,,,,,,,,,0,,,48,60
129539,note_on,0,0,1,,,,,,,,,0,,,48,0
129539,note_on,59,0,1,,,,,,,,,0,,,38,0
129539,note_on,0,0,1,,,,,,,,,0,,,50,0
129600,note_on,61,0,1,,,,,,,,,0,,,38,60
129600,note_on,0,0,1,,,,,,,,,0,,,48,60
129600,note_on,0,0,1,,,,,,,,,0,,,50,60
129600,note_on,120,0,0,,,,,,,,,0,,,57,60
129713,note_on,113,0,0,,,,,,,,,0,,,57,0
129719,note_on,119,0,1,,,,,,,,,0,,,38,0
129719,note_on,0,0,1,,,,,,,,,0,,,50,0
129719,note_on,0,0,1,,,,,,,,,0,,,48,0
129720,note_on,7,0,0,,,,,,,,,0,,,60,60
129821,note_on,101,0,0,,,,,,,,,0,,,66,0
129833,note_on,12,0,0,,,,,,,,,0,,,60,0
129840,note_on,0,0,0,,,,,,,,,0,,,70,72
129840,note_on,0,0,0,,,,,,,,,0,,,70,60
129840,set_tempo,7,1,0,,,,,,500000,,,,,,,
129840,note_on,0,0,0,,,,,,,,,0,,,70,0
129960,note_on,120,0,0,,,,,,,,,0,,,57,62
130073,note_on,113,0,0,,,,,,,,,0,,,57,0
130080,note_on,7,0,0,,,,,,,,,0,,,60,65
130193,note_on,113,0,0,,,,,,,,,0,,,60,0
130199,note_on,6,0,0,,,,,,,,,0,,,70,0
130200,note_on,0,0,1,,,,,,,,,0,,,54,68
130200,note_on,1,0,0,,,,,,,,,0,,,69,68
130200,note_on,0,0,0,,,,,,,,,0,,,69,68
130200,note_on,0,0,0,,,,,,,,,0,,,69,0
130200,note_on,481,0,1,,,,,,,,,0,,,50,68
130313,note_on,0,0,1,,,,,,,,,0,,,54,0
130313,note_on,113,0,1,,,,,,,,,0,,,50,0
130320,note_on,120,0,0,,,,,,,,,0,,,60,70
130320,note_on,7,0,1,,,,,,,,,0,,,50,70
130320,note_on,0,0,1,,,,,,,,,0,,,54,70
130433,note_on,113,0,0,,,,,,,,,0,,,60,0
130440,note_on,7,0,0,,,,,,,,,0,,,62,73
130541,note_on,101,0,0,,,,,,,,,0,,,69,0
130547,note_on,227,0,1,,,,,,,,,0,,,50,0
130547,note_on,0,0,1,,,,,,,,,0,,,54,0
130553,note_on,12,0,0,,,,,,,,,0,,,62,0
130560,note_on,0,0,0,,,,,,,,,0,,,72,76
130560,note_on,0,0,0,,,,,,,,,0,,,72,0
130560,note_on,0,0,0,,,,,,,,,0,,,72,76
130560,set_tempo,7,1,0,,,,,,545455,,,,,,,
130680,note_on,120,0,0,,,,,,,,,0,,,58,79
130793,note_on,113,0,0,,,,,,,,,0,,,58,0
130800,note_on,7,0,0,,,,,,,,,0,,,62,81
130901,note_on,101,0,0,,,,,,,,,0,,,72,0
130913,note_on,12,0,0,,,,,,,,,0,,,62,0
130920,note_on,0,0,0,,,,,,,,,0,,,70,84
130920,note_on,0,0,0,,,,,,,,,0,,,70,0
130920,note_on,0,0,1,,,,,,,,,0,,,55,84
130920,note_on,0,0,1,,,,,,,,,0,,,50,84
130920,note_on,373,0,1,,,,,,,,,0,,,43,84
130920,note_on,7,0,0,,,,,,,,,0,,,70,84
131033,note_on,0,0,1,,,,,,,,,0,,,55,0
131033,note_on,113,0,1,,,,,,,,,0,,,43,0
131033,note_on,0,0,1,,,,,,,,,0,,,50,0
131040,note_on,7,0,1,,,,,,,,,0,,,43,87
131040,note_on,0,0,1,,,,,,,,,0,,,55,87
131040,note_on,0,0,1,,,,,,,,,0,,,50,87
131040,note_on,120,0,0,,,,,,,,,0,,,58,87
131153,note_on,113,0,0,,,,,,,,,0,,,58,0
131160,note_on,7,0,0,,,,,,,,,0,,,62,90
131261,note_on,101,0,0,,,,,,,,,0,,,70,0
131267,note_on,0,0,1,,,,,,,,,0,,,55,0
131267,note_on,0,0,1,,,,,,,,,0,,,50,0
131267,note_on,227,0,1,,,,,,,,,0,,,43,0
131273,note_on,12,0,0,,,,,,,,,0,,,62,0
131280,note_on,0,0,0,,,,,,,,,0,,,74,0
131280,set_tempo,7,1,0,,,,,,666667,,,,,,,
131280,note_on,0,0,0,,,,,,,,,0,,,74,108
131280,note_on,0,0,0,,,,,,,,,0,,,74,90
131400,note_on,120,0,0,,,,,,,,,0,,,62,85
131513,note_on,113,0,0,,,,,,,,,0,,,62,0
131520,note_on,253,0,1,,,,,,,,,0,,,46,80
131520,note_on,7,0,0,,,,,,,,,0,,,65,80
131520,note_on,0,0,1,,,,,,,,,0,,,58,80
131520,note_on,0,0,1,,,,,,,,,0,,,56,80
131633,note_on,113,0,0,,,,,,,,,0,,,65,0
131639,note_on,6,0,0,,,,,,,,,0,,,74,0
131640,note_on,0,0,0,,,,,,,,,0,,,72,75
131640,note_on,0,0,0,,,,,,,,,0,,,72,75
131640,note_on,0,0,0,,,,,,,,,0,,,72,0
131640,set_tempo,1,1,0,,,,,,857143,,,,,,,
131747,note_on,0,0,1,,,,,,,,,0,,,56,0
131747,note_on,0,0,1,,,,,,,,,0,,,58,0
131747,note_on,227,0,1,,,,,,,,,0,,,46,0
131760,note_on,0,0,1,,,,,,,,,0,,,56,70
131760,note_on,0,0,1,,,,,,,,,0,,,58,70
131760,note_on,13,0,1,,,,,,,,,0,,,46,70
131760,note_on,120,0,0,,,,,,,,,0,,,62,70
131867,note_on,107,0,0,,,,,,,,,0,,,72,0
131873,note_on,6,0,0,,,,,,,,,0,,,62,0
131880,set_tempo,7,1,0,,,,,,1500000,,,,,,,
131880,note_on,0,0,0,,,,,,,,,0,,,70,0
131880,note_on,0,0,0,,,,,,,,,0,,,70,65
131880,note_on,0,0,0,,,,,,,,,0,,,70,65
131987,note_on,0,0,1,,,,,,,,,0,,,58,0
131987,note_on,227,0,1,,,,,,,,,0,,,46,0
131987,note_on,0,0,1,,,,,,,,,0,,,56,0
131999,note_on,119,0,0,,,,,,,,,0,,,70,0
132000,note_on,13,0,1,,,,,,,,,0,,,39,60
132000,note_on,0,0,0,,,,,,,,,0,,,79,72
132000,set_tempo,1,1,0,,,,,,600000,,,,,,,
132001,control_change,1,0,1,,,,,,,64,0,0,,,,
132002,control_change,1,0,1,,,,,,,64,127,0,,,,
132119,note_on,117,0,1,,,,,,,,,0,,,39,0
132120,note_on,120,0,0,,,,,,,,,0,,,67,60
132233,note_on,113,0,0,,,,,,,,,0,,,67,0
132240,note_on,121,0,1,,,,,,,,,0,,,55,60
132240,note_on,0,0,1,,,,,,,,,0,,,65,60
132240,note_on,0,0,1,,,,,,,,,0,,,58,60
132240,note_on,7,0,0,,,,,,,,,0,,,70,60
132353,note_on,113,0,0,,,,,,,,,0,,,70,0
132359,note_on,119,0,1,,,,,,,,,0,,,55,0
132359,note_on,0,0,1,,,,,,,,,0,,,58,0
132360,note_on,0,0,0,,,,,,,,,0,,,77,0
132360,note_on,0,0,0,,,,,,,,,0,,,77,60
132360,note_on,0,0,0,,,,,,,,,0,,,77,60
132360,set_tempo,7,1,0,,,,,,545455,,,,,,,
132467,note_on,108,0,1,,,,,,,,,0,,,65,0
132480,note_on,120,0,0,,,,,,,,,0,,,67,60
132480,note_on,13,0,1,,,,,,,,,0,,,43,60
132593,note_on,113,0,0,,,,,,,,,0,,,67,0
132599,note_on,119,0,1,,,,,,,,,0,,,43,0
132600,note_on,7,0,0,,,,,,,,,0,,,70,60
132713,note_on,113,0,0,,,,,,,,,0,,,70,0
132719,note_on,6,0,0,,,,,,,,,0,,,77,0
132720,note_on,0,0,1,,,,,,,,,0,,,58,60
132720,note_on,0,0,0,,,,,,,,,0,,,75,0
132720,note_on,0,0,0,,,,,,,,,0,,,75,60
132720,set_tempo,1,1,0,,,,,,500000,,,,,,,
132720,note_on,121,0,1,,,,,,,,,0,,,55,60
132720,note_on,0,0,1,,,,,,,,,0,,,63,60
132720,note_on,0,0,0,,,,,,,,,0,,,75,60
132839,note_on,119,0,1,,,,,,,,,0,,,55,0
132839,note_on,0,0,1,,,,,,,,,0,,,58,0
132840,note_on,120,0,0,,,,,,,,,0,,,67,60
132947,note_on,108,0,1,,,,,,,,,0,,,63,0
132953,note_on,113,0,0,,,,,,,,,0,,,67,0
132960,note_on,7,0,0,,,,,,,,,0,,,70,60
132960,note_on,13,0,1,,,,,,,,,0,,,46,60
133073,note_on,113,0,0,,,,,,,,,0,,,70,0
133079,note_on,119,0,1,,,,,,,,,0,,,46,0
133079,note_on,6,0,0,,,,,,,,,0,,,75,0
133080,note_on,0,0,0,,,,,,,,,0,,,74,60
133080,note_on,0,0,0,,,,,,,,,0,,,74,0
133080,note_on,1,0,0,,,,,,,,,0,,,74,60
133200,note_on,121,0,1,,,,,,,,,0,,,55,60
133200,note_on,0,0,1,,,,,,,,,0,,,62,60
133200,note_on,0,0,1,,,,,,,,,0,,,58,60
133200,note_on,120,0,0,,,,,,,,,0,,,67,60
133313,note_on,113,0,0,,,,,,,,,0,,,67,0
133319,note_on,119,0,1,,,,,,,,,0,,,55,0
133319,note_on,0,0,1,,,,,,,,,0,,,58,0
133320,note_on,7,0,0,,,,,,,,,0,,,70,60
133427,note_on,108,0,1,,,,,,,,,0,,,62,0
133433,note_on,113,0,0,,,,,,,,,0,,,70,0
133439,note_on,0,0,0,,,,,,,,,0,,,74,0
133439,note_on,6,0,0,,,,,,,,,0,,,79,0
133440,note_on,13,0,1,,,,,,,,,0,,,51,60
133440,note_on,1,0,0,,,,,,,,,0,,,79,72
133559,note_on,119,0,1,,,,,,,,,0,,,51,0
133560,note_on,120,0,0,,,,,,,,,0,,,67,60
133673,note_on,113,0,0,,,,,,,,,0,,,67,0
133680,note_on,121,0,1,,,,,,,,,0,,,55,60
133680,note_on,0,0,1,,,,,,,,,0,,,60,60
133680,note_on,7,0,0,,,,,,,,,0,,,70,60
133793,note_on,113,0,0,,,,,,,,,0,,,70,0
133799,note_on,119,0,1,,,,,,,,,0,,,55,0
133800,note_on,0,0,0,,,,,,,,,0,,,72,60
133800,note_on,0,0,0,,,,,,,,,0,,,72,0
133800,note_on,7,0,0,,,,,,,,,0,,,72,60
133907,note_on,108,0,1,,,,,,,,,0,,,60,0
133920,note_on,13,0,1,,,,,,,,,0,,,46,60
133920,note_on,120,0,0,,,,,,,,,0,,,67,60
134033,note_on,113,0,0,,,,,,,,,0,,,67,0
134039,note_on,119,0,1,,,,,,,,,0,,,46,0
134040,note_on,7,0,0,,,,,,,,,0,,,69,60
134141,note_on,101,0,0,,,,,,,,,0,,,72,0
134153,note_on,12,0,0,,,,,,,,,0,,,69,0
134159,note_on,6,0,0,,,,,,,,,0,,,79,0
134160,note_on,0,0,1,,,,,,,,,0,,,58,60
134160,set_tempo,1,1,0,,,,,,545455,,,,,,,
134160,note_on,121,0,1,,,,,,,,,0,,,55,60
134160,note_on,0,0,0,,,,,,,,,0,,,79,72
134279,note_on,119,0,1,,,,,,,,,0,,,55,0
134280,note_on,120,0,0,,,,,,,,,0,,,67,60
134387,note_on,108,0,1,,,,,,,,,0,,,58,0
134393,note_on,113,0,0,,,,,,,,,0,,,67,0
134400,note_on,13,0,1,,,,,,,,,0,,,43,60
134400,note_on,7,0,0,,,,,,,,,0,,,70,60
134513,note_on,113,0,0,,,,,,,,,0,,,70,0
134519,note_on,119,0,1,,,,,,,,,0,,,43,0
134520,note_on,7,0,0,,,,,,,,,0,,,75,60
134633,note_on,113,0,0,,,,,,,,,0,,,75,0
134640,note_on,0,0,1,,,,,,,,,0,,,58,60
134640,note_on,121,0,1,,,,,,,,,0,,,55,60
134640,note_on,7,0,0,,,,,,,,,0,,,67,60
134753,note_on,113,0,0,,,,,,,,,0,,,67,0
134759,note_on,119,0,1,,,,,,,,,0,,,55,0
134760,note_on,7,0,0,,,,,,,,,0,,,70,60
134867,note_on,108,0,1,,,,,,,,,0,,,58,0
134873,note_on,113,0,0,,,,,,,,,0,,,70,0
134879,note_on,6,0,0,,,,,,,,,0,,,79,0
134880,note_on,0,0,0,,,,,,,,,0,,,79,60
134880,note_on,1,0,0,,,,,,,,,0,,,67,60
134880,note_on,13,0,1,,,,,,,,,0,,,39,60
134881,control_change,1,0,1,,,,,,,64,0,0,,,,
134882,control_change,1,0,1,,,,,,,64,127,0,,,,
134993,note_on,113,0,0,,,,,,,,,0,,,67,0
134999,note_on,117,0,1,,,,,,,,,0,,,39,0
135000,note_on,7,0,0,,,,,,,,,0,,,68,60
135113,note_on,113,0,0,,,,,,,,,0,,,68,0
135120,note_on,7,0,0,,,,,,,,,0,,,71,60
135120,note_on,0,0,1,,,,,,,,,0,,,59,60
135120,note_on,0,0,1,,,,,,,,,0,,,62,60
135120,note_on,121,0,1,,,,,,,,,0,,,56,60
135221,note_on,101,0,0,,,,,,,,,0,,,79,0
135233,note_on,12,0,0,,,,,,,,,0,,,71,0
135239,note_on,119,0,1,,,,,,,,,0,,,56,0
135239,note_on,0,0,1,,,,,,,,,0,,,62,0
135239,note_on,0,0,1,,,,,,,,,0,,,59,0
135240,note_on,0,0,0,,,,,,,,,0,,,64,60
135240,set_tempo,7,1,0,,,,,,500000,,,,,,,
135240,note_on,0,0,0,,,,,,,,,0,,,76,60
135353,note_on,113,0,0,,,,,,,,,0,,,64,0
135360,note_on,121,0,1,,,,,,,,,0,,,44,60
135360,note_on,7,0,0,,,,,,,,,0,,,68,60
135473,note_on,113,0,0,,,,,,,,,0,,,68,0
135479,note_on,119,0,1,,,,,,,,,0,,,44,0
135480,note_on,7,0,0,,,,,,,,,0,,,71,60
135581,note_on,101,0,0,,,,,,,,,0,,,76,0
135593,note_on,12,0,0,,,,,,,,,0,,,71,0
135600,note_on,0,0,0,,,,,,,,,0,,,77,61
135600,note_on,0,0,1,,,,,,,,,0,,,62,61
135600,note_on,0,0,1,,,,,,,,,0,,,59,61
135600,note_on,121,0,1,,,,,,,,,0,,,56,61
135600,note_on,7,0,0,,,,,,,,,0,,,65,61
135713,note_on,113,0,0,,,,,,,,,0,,,65,0
135719,note_on,0,0,1,,,,,,,,,0,,,62,0
135719,note_on,119,0,1,,,,,,,,,0,,,56,0
135719,note_on,0,0,1,,,,,,,,,0,,,59,0
135720,note_on,7,0,0,,,,,,,,,0,,,68,63
135833,note_on,113,0,0,,,,,,,,,0,,,68,0
135840,note_on,7,0,0,,,,,,,,,0,,,71,64
135840,note_on,121,0,1,,,,,,,,,0,,,47,64
135941,note_on,101,0,0,,,,,,,,,0,,,77,0
135953,note_on,12,0,0,,,,,,,,,0,,,71,0
135959,note_on,119,0,1,,,,,,,,,0,,,47,0
135960,note_on,0,0,0,,,,,,,,,0,,,79,66
135960,note_on,7,0,0,,,,,,,,,0,,,67,66
136073,note_on,113,0,0,,,,,,,,,0,,,67,0
136080,note_on,121,0,1,,,,,,,,,0,,,56,67
136080,note_on,7,0,0,,,,,,,,,0,,,71,67
136080,note_on,0,0,1,,,,,,,,,0,,,62,67
136080,note_on,0,0,1,,,,,,,,,0,,,59,67
136193,note_on,113,0,0,,,,,,,,,0,,,71,0
136199,note_on,119,0,1,,,,,,,,,0,,,56,0
136199,note_on,0,0,1,,,,,,,,,0,,,59,0
136199,note_on,0,0,1,,,,,,,,,0,,,62,0
136200,note_on,7,0,0,,,,,,,,,0,,,74,69
136301,note_on,101,0,0,,,,,,,,,0,,,79,0
136313,note_on,12,0,0,,,,,,,,,0,,,74,0
136320,note_on,7,0,0,,,,,,,,,0,,,68,70
136320,note_on,121,0,1,,,,,,,,,0,,,39,70
136320,note_on,0,0,0,,,,,,,,,0,,,80,70
136433,note_on,113,0,0,,,,,,,,,0,,,68,0
136439,note_on,119,0,1,,,,,,,,,0,,,39,0
136440,note_on,7,0,0,,,,,,,,,0,,,74,72
136553,note_on,113,0,0,,,,,,,,,0,,,74,0
136560,note_on,7,0,0,,,,,,,,,0,,,77,73
136560,note_on,0,0,1,,,,,,,,,0,,,65,73
136560,note_on,121,0,1,,,,,,,,,0,,,56,73
136560,note_on,0,0,1,,,,,,,,,0,,,58,73
136661,note_on,101,0,0,,,,,,,,,0,,,80,0
136673,note_on,12,0,0,,,,,,,,,0,,,77,0
136679,note_on,0,0,1,,,,,,,,,0,,,65,0
136679,note_on,0,0,1,,,,,,,,,0,,,58,0
136679,note_on,119,0,1,,,,,,,,,0,,,56,0
136680,note_on,0,0,0,,,,,,,,,0,,,81,75
136680,note_on,7,0,0,,,,,,,,,0,,,69,75
136793,note_on,113,0,0,,,,,,,,,0,,,69,0
136800,note_on,121,0,1,,,,,,,,,0,,,46,76
136800,note_on,7,0,0,,,,,,,,,0,,,74,76
136913,note_on,113,0,0,,,,,,,,,0,,,74,0
136919,note_on,119,0,1,,,,,,,,,0,,,46,0
136920,note_on,7,0,0,,,,,,,,,0,,,77,78
137021,note_on,101,0,0,,,,,,,,,0,,,81,0
137033,note_on,12,0,0,,,,,,,,,0,,,77,0
137040,note_on,0,0,0,,,,,,,,,0,,,84,80
137040,note_on,0,0,0,,,,,,,,,0,,,72,80
137040,note_on,0,0,1,,,,,,,,,0,,,58,80
137040,set_tempo,7,1,0,,,,,,545455,,,,,,,
137040,note_on,121,0,1,,,,,,,,,0,,,56,80
137040,note_on,0,0,1,,,,,,,,,0,,,65,80
137153,note_on,113,0,0,,,,,,,,,0,,,72,0
137159,note_on,119,0,1,,,,,,,,,0,,,56,0
137159,note_on,0,0,1,,,,,,,,,0,,,58,0
137159,note_on,0,0,1,,,,,,,,,0,,,65,0
137160,note_on,7,0,0,,,,,,,,,0,,,74,77
137273,note_on,113,0,0,,,,,,,,,0,,,74,0
137280,note_on,7,0,0,,,,,,,,,0,,,77,74
137280,note_on,121,0,1,,,,,,,,,0,,,50,74
137381,note_on,101,0,0,,,,,,,,,0,,,84,0
137393,note_on,12,0,0,,,,,,,,,0,,,77,0
137399,note_on,119,0,1,,,,,,,,,0,,,50,0
137400,note_on,0,0,0,,,,,,,,,0,,,70,70
137400,set_tempo,7,1,0,,,,,,600000,,,,,,,
137400,note_on,0,0,0,,,,,,,,,0,,,82,70
137513,note_on,113,0,0,,,,,,,,,0,,,70,0
137520,note_on,7,0,0,,,,,,,,,0,,,74,67
137520,note_on,0,0,1,,,,,,,,,0,,,65,67
137520,note_on,0,0,1,,,,,,,,,0,,,58,67
137520,note_on,121,0,1,,,,,,,,,0,,,56,67
137633,note_on,113,0,0,,,,,,,,,0,,,74,0
137639,note_on,0,0,1,,,,,,,,,0,,,58,0
137639,note_on,0,0,1,,,,,,,,,0,,,65,0
137639,note_on,119,0,1,,,,,,,,,0,,,56,0
137640,note_on,7,0,0,,,,,,,,,0,,,77,64
137741,note_on,101,0,0,,,,,,,,,0,,,82,0
137753,note_on,12,0,0,,,,,,,,,0,,,77,0
137760,note_on,7,0,0,,,,,,,,,0,,,79,72
137760,note_on,121,0,1,,,,,,,,,0,,,39,60
137761,control_change,1,0,1,,,,,,,64,0,0,,,,
137762,control_change,1,0,1,,,,,,,64,127,0,,,,
137879,note_on,117,0,1,,,,,,,,,0,,,39,0
137880,note_on,120,0,0,,,,,,,,,0,,,67,60
137993,note_on,113,0,0,,,,,,,,,0,,,67,0
138000,note_on,0,0,1,,,,,,,,,0,,,65,60
138000,note_on,7,0,0,,,,,,,,,0,,,70,60
138000,note_on,0,0,1,,,,,,,,,0,,,58,60
138000,note_on,121,0,1,,,,,,,,,0,,,55,60
138113,note_on,113,0,0,,,,,,,,,0,,,70,0
138119,note_on,0,0,1,,,,,,,,,0,,,58,0
138119,note_on,0,0,1,,,,,,,,,0,,,65,0
138119,note_on,119,0,1,,,,,,,,,0,,,55,0
138120,note_on,0,0,0,,,,,,,,,0,,,77,0
138120,set_tempo,7,1,0,,,,,,545455,,,,,,,
138120,note_on,0,0,0,,,,,,,,,0,,,77,60
138120,note_on,0,0,0,,,,,,,,,0,,,77,60
138240,note_on,120,0,0,,,,,,,,,0,,,67,60
138240,note_on,121,0,1,,,,,,,,,0,,,43,60
138353,note_on,113,0,0,,,,,,,,,0,,,67,0
138359,note_on,119,0,1,,,,,,,,,0,,,43,0
138360,note_on,7,0,0,,,,,,,,,0,,,70,60
138473,note_on,113,0,0,,,,,,,,,0,,,70,0
138479,note_on,6,0,0,,,,,,,,,0,,,77,0
138480,note_on,121,0,1,,,,,,,,,0,,,55,60
138480,note_on,0,0,0,,,,,,,,,0,,,75,60
138480,note_on,0,0,0,,,,,,,,,0,,,75,60
138480,note_on,0,0,0,,,,,,,,,0,,,75,0
138480,note_on,0,0,1,,,,,,,,,0,,,63,60
138480,set_tempo,1,1,0,,,,,,500000,,,,,,,
138480,note_on,0,0,1,,,,,,,,,0,,,58,60
138599,note_on,0,0,1,,,,,,,,,0,,,58,0
138599,note_on,119,0,1,,,,,,,,,0,,,55,0
138599,note_on,0,0,1,,,,,,,,,0,,,63,0
138600,note_on,120,0,0,,,,,,,,,0,,,67,60
138713,note_on,113,0,0,,,,,,,,,0,,,67,0
138720,note_on,7,0,0,,,,,,,,,0,,,70,60
138720,note_on,121,0,1,,,,,,,,,0,,,46,60
138833,note_on,113,0,0,,,,,,,,,0,,,70,0
138839,note_on,6,0,0,,,,,,,,,0,,,75,0
138839,note_on,119,0,1,,,,,,,,,0,,,46,0
138840,note_on,0,0,0,,,,,,,,,0,,,74,0
138840,note_on,0,0,0,,,,,,,,,0,,,74,60
138840,note_on,1,0,0,,,,,,,,,0,,,74,60
138960,note_on,121,0,1,,,,,,,,,0,,,55,60
138960,note_on,0,0,1,,,,,,,,,0,,,58,60
138960,note_on,0,0,1,,,,,,,,,0,,,62,60
138960,note_on,120,0,0,,,,,,,,,0,,,67,60
139073,note_on,113,0,0,,,,,,,,,0,,,67,0
139079,note_on,119,0,1,,,,,,,,,0,,,55,0
139079,note_on,0,0,1,,,,,,,,,0,,,62,0
139079,note_on,0,0,1,,,,,,,,,0,,,58,0
139080,note_on,7,0,0,,,,,,,,,0,,,70,60
139193,note_on,113,0,0,,,,,,,,,0,,,70,0
139199,note_on,6,0,0,,,,,,,,,0,,,79,0
139199,note_on,0,0,0,,,,,,,,,0,,,74,0
139200,note_on,121,0,1,,,,,,,,,0,,,51,60
139200,note_on,1,0,0,,,,,,,,,0,,,79,72
139319,note_on,119,0,1,,,,,,,,,0,,,51,0
139320,note_on,120,0,0,,,,,,,,,0,,,67,60
139433,note_on,113,0,0,,,,,,,,,0,,,67,0
139440,note_on,7,0,0,,,,,,,,,0,,,70,60
139440,note_on,121,0,1,,,,,,,,,0,,,55,60
139440,note_on,0,0,1,,,,,,,,,0,,,60,60
139553,note_on,113,0,0,,,,,,,,,0,,,70,0
139559,note_on,0,0,1,,,,,,,,,0,,,60,0
139559,note_on,119,0,1,,,,,,,,,0,,,55,0
139560,note_on,0,0,0,,,,,,,,,0,,,72,60
139560,note_on,0,0,0,,,,,,,,,0,,,72,0
139560,note_on,7,0,0,,,,,,,,,0,,,72,60
139680,note_on,120,0,0,,,,,,,,,0,,,67,60
139680,note_on,121,0,1,,,,,,,,,0,,,46,60
139793,note_on,113,0,0,,,,,,,,,0,,,67,0
139799,note_on,119,0,1,,,,,,,,,0,,,46,0
139800,note_on,7,0,0,,,,,,,,,0,,,69,60
139901,note_on,101,0,0,,,,,,,,,0,,,72,0
139913,note_on,12,0,0,,,,,,,,,0,,,69,0
139919,note_on,6,0,0,,,,,,,,,0,,,79,0
139920,note_on,121,0,1,,,,,,,,,0,,,55,60
139920,note_on,0,0,1,,,,,,,,,0,,,58,60
139920,note_on,1,0,0,,,,,,,,,0,,,79,72
140039,note_on,0,0,1,,,,,,,,,0,,,58,0
140039,note_on,119,0,1,,,,,,,,,0,,,55,0
140040,note_on,120,0,0,,,,,,,,,0,,,67,60
140153,note_on,113,0,0,,,,,,,,,0,,,67,0
140160,note_on,7,0,0,,,,,,,,,0,,,70,60
140160,note_on,121,0,1,,,,,,,,,0,,,43,60
140273,note_on,113,0,0,,,,,,,,,0,,,70,0
140279,note_on,119,0,1,,,,,,,,,0,,,43,0
140280,note_on,7,0,0,,,,,,,,,0,,,75,60
140393,note_on,113,0,0,,,,,,,,,0,,,75,0
140400,note_on,0,0,1,,,,,,,,,0,,,58,60
140400,note_on,121,0,1,,,,,,,,,0,,,55,60
140400,note_on,7,0,0,,,,,,,,,0,,,67,60
140513,note_on,113,0,0,,,,,,,,,0,,,67,0
140519,note_on,0,0,1,,,,,,,,,0,,,58,0
140519,note_on,119,0,1,,,,,,,,,0,,,55,0
140520,note_on,7,0,0,,,,,,,,,0,,,70,60
140633,note_on,113,0,0,,,,,,,,,0,,,70,0
140639,note_on,6,0,0,,,,,,,,,0,,,79,0
140640,note_on,1,0,0,,,,,,,,,0,,,67,60
140640,note_on,121,0,1,,,,,,,,,0,,,38,60
140640,note_on,0,0,0,,,,,,,,,0,,,79,60
140641,control_change,1,0,1,,,,,,,64,0,0,,,,
140642,control_change,1,0,1,,,,,,,64,127,0,,,,
140753,note_on,113,0,0,,,,,,,,,0,,,67,0
140759,note_on,117,0,1,,,,,,,,,0,,,38,0
140760,note_on,7,0,0,,,,,,,,,0,,,69,63
140873,note_on,113,0,0,,,,,,,,,0,,,69,0
140880,note_on,0,0,1,,,,,,,,,0,,,62,66
140880,note_on,0,0,1,,,,,,,,,0,,,60,66
140880,note_on,7,0,0,,,,,,,,,0,,,72,66
140880,note_on,121,0,1,,,,,,,,,0,,,57,66
140981,note_on,101,0,0,,,,,,,,,0,,,79,0
140993,note_on,12,0,0,,,,,,,,,0,,,72,0
140999,note_on,0,0,1,,,,,,,,,0,,,60,0
140999,note_on,119,0,1,,,,,,,,,0,,,57,0
140999,note_on,0,0,1,,,,,,,,,0,,,62,0
141000,note_on,0,0,0,,,,,,,,,0,,,78,70
141000,note_on,7,0,0,,,,,,,,,0,,,66,70
141113,note_on,113,0,0,,,,,,,,,0,,,66,0
141120,note_on,121,0,1,,,,,,,,,0,,,45,73
141120,note_on,7,0,0,,,,,,,,,0,,,69,73
141233,note_on,113,0,0,,,,,,,,,0,,,69,0
141239,note_on,119,0,1,,,,,,,,,0,,,45,0
141240,note_on,7,0,0,,,,,,,,,0,,,72,76
141341,note_on,101,0,0,,,,,,,,,0,,,78,0
141353,note_on,12,0,0,,,,,,,,,0,,,72,0
141360,note_on,0,0,1,,,,,,,,,0,,,60,80
141360,note_on,0,0,1,,,,,,,,,0,,,63,80
141360,note_on,121,0,1,,,,,,,,,0,,,54,80
141360,note_on,0,0,0,,,,,,,,,0,,,87,80
141360,note_on,7,0,0,,,,,,,,,0,,,75,80
141473,note_on,113,0,0,,,,,,,,,0,,,75,0
141479,note_on,119,0,1,,,,,,,,,0,,,54,0
141479,note_on,0,0,1,,,,,,,,,0,,,60,0
141479,note_on,0,0,1,,,,,,,,,0,,,63,0
141480,note_on,7,0,0,,,,,,,,,0,,,77,79
141593,note_on,113,0,0,,,,,,,,,0,,,77,0
141600,note_on,121,0,1,,,,,,,,,0,,,50,77
141600,note_on,7,0,0,,,,,,,,,0,,,81,77
141701,note_on,101,0,0,,,,,,,,,0,,,87,0
141713,note_on,12,0,0,,,,,,,,,0,,,81,0
141719,note_on,119,0,1,,,,,,,,,0,,,50,0
141720,note_on,0,0,0,,,,,,,,,0,,,86,75
141720,note_on,7,0,0,,,,,,,,,0,,,74,75
141833,note_on,113,0,0,,,,,,,,,0,,,74,0
141840,note_on,0,0,1,,,,,,,,,0,,,62,74
141840,note_on,7,0,0,,,,,,,,,0,,,77,74
141840,note_on,0,0,1,,,,,,,,,0,,,60,74
141840,note_on,121,0,1,,,,,,,,,0,,,57,74
141953,note_on,113,0,0,,,,,,,,,0,,,77,0
141959,note_on,0,0,1,,,,,,,,,0,,,60,0
141959,note_on,119,0,1,,,,,,,,,0,,,57,0
141959,note_on,0,0,1,,,,,,,,,0,,,62,0
141960,note_on,7,0,0,,,,,,,,,0,,,81,72
142061,note_on,101,0,0,,,,,,,,,0,,,86,0
142073,note_on,12,0,0,,,,,,,,,0,,,81,0
142080,note_on,0,0,0,,,,,,,,,0,,,86,70
142080,note_on,7,0,0,,,,,,,,,0,,,74,70
142080,note_on,121,0,1,,,,,,,,,0,,,43,70
142081,control_change,1,0,1,,,,,,,64,0,0,,,,
142082,control_change,1,0,1,,,,,,,64,127,0,,,,
142193,note_on,113,0,0,,,,,,,,,0,,,74,0
142199,note_on,117,0,1,,,,,,,,,0,,,43,0
142200,note_on,7,0,0,,,,,,,,,0,,,79,70
142313,note_on,113,0,0,,,,,,,,,0,,,79,0
142320,note_on,121,0,1,,,,,,,,,0,,,59,69
142320,note_on,7,0,0,,,,,,,,,0,,,83,69
142320,note_on,0,0,1,,,,,,,,,0,,,62,69
142421,note_on,101,0,0,,,,,,,,,0,,,86,0
142433,note_on,12,0,0,,,,,,,,,0,,,83,0
142439,note_on,119,0,1,,,,,,,,,0,,,59,0
142439,note_on,0,0,1,,,,,,,,,0,,,62,0
142440,note_on,0,0,0,,,,,,,,,0,,,71,68
142440,note_on,0,0,0,,,,,,,,,0,,,83,68
142440,set_tempo,7,1,0,,,,,,545455,,,,,,,
142553,note_on,113,0,0,,,,,,,,,0,,,71,0
142560,note_on,7,0,0,,,,,,,,,0,,,74,67
142560,note_on,121,0,1,,,,,,,,,0,,,50,67
142673,note_on,113,0,0,,,,,,,,,0,,,74,0
142679,note_on,119,0,1,,,,,,,,,0,,,50,0
142680,note_on,7,0,0,,,,,,,,,0,,,79,66
142781,note_on,101,0,0,,,,,,,,,0,,,83,0
142793,note_on,12,0,0,,,,,,,,,0,,,79,0
142800,note_on,121,0,1,,,,,,,,,0,,,59,65
142800,note_on,0,0,1,,,,,,,,,0,,,62,65
142800,note_on,0,0,0,,,,,,,,,0,,,67,65
142800,note_on,0,0,0,,,,,,,,,0,,,79,65
142800,set_tempo,7,1,0,,,,,,600000,,,,,,,
142913,note_on,113,0,0,,,,,,,,,0,,,67,0
142919,note_on,119,0,1,,,,,,,,,0,,,59,0
142919,note_on,0,0,1,,,,,,,,,0,,,62,0
142920,note_on,7,0,0,,,,,,,,,0,,,71,65
143033,note_on,113,0,0,,,,,,,,,0,,,71,0
143040,note_on,121,0,1,,,,,,,,,0,,,55,64
143040,note_on,7,0,0,,,,,,,,,0,,,74,64
143141,note_on,101,0,0,,,,,,,,,0,,,79,0
143153,note_on,12,0,0,,,,,,,,,0,,,74,0
143159,note_on,119,0,1,,,,,,,,,0,,,55,0
143160,set_tempo,7,1,0,,,,,,857143,,,,,,,
143160,note_on,0,0,0,,,,,,,,,0,,,67,63
143160,note_on,0,0,0,,,,,,,,,0,,,79,63
143273,note_on,113,0,0,,,,,,,,,0,,,67,0
143280,note_on,7,0,0,,,,,,,,,0,,,71,62
143280,note_on,121,0,1,,,,,,,,,0,,,59,62
143280,note_on,0,0,1,,,,,,,,,0,,,62,62
143393,note_on,113,0,0,,,,,,,,,0,,,71,0
143399,note_on,0,0,1,,,,,,,,,0,,,62,0
143399,note_on,119,0,1,,,,,,,,,0,,,59,0
143400,note_on,7,0,0,,,,,,,,,0,,,74,61
143501,note_on,101,0,0,,,,,,,,,0,,,79,0
143513,note_on,12,0,0,,,,,,,,,0,,,74,0
143520,set_tempo,7,1,0,,,,,,600000,,,,,,,
143520,note_on,121,0,1,,,,,,,,,0,,,40,60
143520,note_on,0,0,0,,,,,,,,,0,,,79,72
143521,control_change,1,0,1,,,,,,,64,0,0,,,,
143522,control_change,1,0,1,,,,,,,64,127,0,,,,
143639,note_on,117,0,1,,,,,,,,,0,,,40,0
143640,note_on,120,0,0,,,,,,,,,0,,,67,60
143753,note_on,113,0,0,,,,,,,,,0,,,67,0
143760,note_on,0,0,1,,,,,,,,,0,,,66,60
143760,note_on,121,0,1,,,,,,,,,0,,,55,60
143760,note_on,7,0,0,,,,,,,,,0,,,71,60
143760,note_on,0,0,1,,,,,,,,,0,,,59,60
143873,note_on,113,0,0,,,,,,,,,0,,,71,0
143879,note_on,119,0,1,,,,,,,,,0,,,55,0
143879,note_on,0,0,1,,,,,,,,,0,,,59,0
143880,note_on,7,0,0,,,,,,,,,0,,,78,60
143880,note_on,0,0,0,,,,,,,,,0,,,78,60
143880,note_on,0,0,0,,,,,,,,,0,,,78,0
143987,note_on,108,0,1,,,,,,,,,0,,,66,0
144000,note_on,13,0,1,,,,,,,,,0,,,43,60
144000,note_on,120,0,0,,,,,,,,,0,,,67,60
144113,note_on,113,0,0,,,,,,,,,0,,,67,0
144119,note_on,119,0,1,,,,,,,,,0,,,43,0
144120,note_on,7,0,0,,,,,,,,,0,,,71,60
144233,note_on,113,0,0,,,,,,,,,0,,,71,0
144239,note_on,6,0,0,,,,,,,,,0,,,78,0
144240,note_on,0,0,1,,,,,,,,,0,,,64,60
144240,set_tempo,1,1,0,,,,,,545455,,,,,,,
144240,note_on,0,0,0,,,,,,,,,0,,,76,0
144240,note_on,0,0,0,,,,,,,,,0,,,76,60
144240,note_on,0,0,0,,,,,,,,,0,,,76,60
144240,note_on,121,0,1,,,,,,,,,0,,,55,60
144240,note_on,0,0,1,,,,,,,,,0,,,59,60
144359,note_on,0,0,1,,,,,,,,,0,,,59,0
144359,note_on,119,0,1,,,,,,,,,0,,,55,0
144360,note_on,120,0,0,,,,,,,,,0,,,67,60
144467,note_on,108,0,1,,,,,,,,,0,,,64,0
144473,note_on,113,0,0,,,,,,,,,0,,,67,0
144480,note_on,7,0,0,,,,,,,,,0,,,71,60
144480,note_on,13,0,1,,,,,,,,,0,,,47,60
144593,note_on,113,0,0,,,,,,,,,0,,,71,0
144599,note_on,6,0,0,,,,,,,,,0,,,76,0
144599,note_on,119,0,1,,,,,,,,,0,,,47,0
144600,note_on,0,0,0,,,,,,,,,0,,,74,60
144600,note_on,0,0,0,,,,,,,,,0,,,74,0
144600,note_on,1,0,0,,,,,,,,,0,,,74,60
144720,note_on,121,0,1,,,,,,,,,0,,,55,60
144720,note_on,120,0,0,,,,,,,,,0,,,67,60
144720,note_on,0,0,1,,,,,,,,,0,,,59,60
144720,note_on,0,0,1,,,,,,,,,0,,,62,60
144833,note_on,113,0,0,,,,,,,,,0,,,67,0
144839,note_on,119,0,1,,,,,,,,,0,,,55,0
144839,note_on,0,0,1,,,,,,,,,0,,,59,0
144840,note_on,7,0,0,,,,,,,,,0,,,71,60
144947,note_on,108,0,1,,,,,,,,,0,,,62,0
144953,note_on,113,0,0,,,,,,,,,0,,,71,0
144959,note_on,0,0,0,,,,,,,,,0,,,74,0
144959,note_on,6,0,0,,,,,,,,,0,,,79,0
144960,note_on,13,0,1,,,,,,,,,0,,,52,60
144960,note_on,1,0,0,,,,,,,,,0,,,79,72
144961,control_change,1,0,1,,,,,,,64,0,0,,,,
144962,control_change,1,0,1,,,,,,,64,127,0,,,,
145079,note_on,117,0,1,,,,,,,,,0,,,52,0
145080,note_on,120,0,0,,,,,,,,,0,,,67,60
145193,note_on,113,0,0,,,,,,,,,0,,,67,0
145200,note_on,0,0,1,,,,,,,,,0,,,60,60
145200,note_on,7,0,0,,,,,,,,,0,,,71,60
145200,note_on,121,0,1,,,,,,,,,0,,,55,60
145313,note_on,113,0,0,,,,,,,,,0,,,71,0
145319,note_on,119,0,1,,,,,,,,,0,,,55,0
145320,note_on,7,0,0,,,,,,,,,0,,,72,60
145427,note_on,108,0,1,,,,,,,,,0,,,60,0
145433,note_on,113,0,0,,,,,,,,,0,,,72,0
145440,note_on,13,0,1,,,,,,,,,0,,,47,60
145440,note_on,7,0,0,,,,,,,,,0,,,67,60
145553,note_on,113,0,0,,,,,,,,,0,,,67,0
145559,note_on,119,0,1,,,,,,,,,0,,,47,0
145560,note_on,7,0,0,,,,,,,,,0,,,71,60
145673,note_on,113,0,0,,,,,,,,,0,,,71,0
145679,note_on,6,0,0,,,,,,,,,0,,,79,0
145680,note_on,0,0,1,,,,,,,,,0,,,59,60
145680,note_on,0,0,0,,,,,,,,,0,,,79,72
145680,set_tempo,1,1,0,,,,,,500000,,,,,,,
145680,note_on,121,0,1,,,,,,,,,0,,,55,60
145799,note_on,119,0,1,,,,,,,,,0,,,55,0
145800,note_on,120,0,0,,,,,,,,,0,,,67,60
145907,note_on,108,0,1,,,,,,,,,0,,,59,0
145913,note_on,113,0,0,,,,,,,,,0,,,67,0
145920,note_on,13,0,1,,,,,,,,,0,,,40,60
145920,note_on,7,0,0,,,,,,,,,0,,,71,60
146033,note_on,113,0,0,,,,,,,,,0,,,71,0
146039,note_on,119,0,1,,,,,,,,,0,,,40,0
146040,note_on,7,0,0,,,,,,,,,0,,,76,60
146153,note_on,113,0,0,,,,,,,,,0,,,76,0
146160,note_on,121,0,1,,,,,,,,,0,,,55,60
146160,note_on,7,0,0,,,,,,,,,0,,,67,60
146160,note_on,0,0,1,,,,,,,,,0,,,59,60
146279,note_on,119,0,1,,,,,,,,,0,,,55,0
146279,note_on,119,0,0,,,,,,,,,0,,,67,0
146280,note_on,1,0,0,,,,,,,,,0,,,71,60
146387,note_on,108,0,1,,,,,,,,,0,,,59,0
146393,note_on,113,0,0,,,,,,,,,0,,,71,0
146399,note_on,6,0,0,,,,,,,,,0,,,79,0
146400,note_on,13,0,1,,,,,,,,,0,,,36,60
146400,note_on,0,0,0,,,,,,,,,0,,,79,60
146400,note_on,1,0,0,,,,,,,,,0,,,67,60
146401,control_change,1,0,1,,,,,,,64,0,0,,,,
146402,control_change,1,0,1,,,,,,,64,127,0,,,,
146513,note_on,113,0,0,,,,,,,,,0,,,67,0
146519,note_on,117,0,1,,,,,,,,,0,,,36,0
146520,note_on,7,0,0,,,,,,,,,0,,,69,60
146633,note_on,113,0,0,,,,,,,,,0,,,69,0
146640,note_on,0,0,1,,,,,,,,,0,,,57,60
146640,note_on,7,0,0,,,,,,,,,0,,,75,60
146640,note_on,121,0,1,,,,,,,,,0,,,55,60
146640,note_on,0,0,1,,,,,,,,,0,,,63,60
146741,note_on,101,0,0,,,,,,,,,0,,,79,0
146753,note_on,12,0,0,,,,,,,,,0,,,75,0
146759,note_on,0,0,1,,,,,,,,,0,,,63,0
146759,note_on,119,0,1,,,,,,,,,0,,,55,0
146759,note_on,0,0,1,,,,,,,,,0,,,57,0
146760,set_tempo,7,1,0,,,,,,600000,,,,,,,
146760,note_on,0,0,0,,,,,,,,,0,,,77,60
146760,note_on,0,0,0,,,,,,,,,0,,,65,60
146873,note_on,113,0,0,,,,,,,,,0,,,65,0
146880,note_on,7,0,0,,,,,,,,,0,,,69,60
146880,note_on,121,0,1,,,,,,,,,0,,,45,60
146993,note_on,113,0,0,,,,,,,,,0,,,69,0
146999,note_on,119,0,1,,,,,,,,,0,,,45,0
147000,note_on,7,0,0,,,,,,,,,0,,,75,60
147101,note_on,101,0,0,,,,,,,,,0,,,77,0
147113,note_on,12,0,0,,,,,,,,,0,,,75,0
147120,note_on,0,0,1,,,,,,,,,0,,,57,60
147120,note_on,0,0,1,,,,,,,,,0,,,63,60
147120,set_tempo,7,1,0,,,,,,545455,,,,,,,
147120,note_on,0,0,0,,,,,,,,,0,,,78,60
147120,note_on,121,0,1,,,,,,,,,0,,,54,60
147120,note_on,0,0,0,,,,,,,,,0,,,66,60
147233,note_on,113,0,0,,,,,,,,,0,,,66,0
147239,note_on,0,0,1,,,,,,,,,0,,,57,0
147239,note_on,0,0,1,,,,,,,,,0,,,63,0
147239,note_on,119,0,1,,,,,,,,,0,,,54,0
147240,note_on,7,0,0,,,,,,,,,0,,,69,61
147353,note_on,113,0,0,,,,,,,,,0,,,69,0
147360,note_on,121,0,1,,,,,,,,,0,,,48,63
147360,note_on,7,0,0,,,,,,,,,0,,,75,63
147461,note_on,101,0,0,,,,,,,,,0,,,78,0
147473,note_on,12,0,0,,,,,,,,,0,,,75,0
147479,note_on,119,0,1,,,,,,,,,0,,,48,0
147480,note_on,0,0,0,,,,,,,,,0,,,79,65
147480,note_on,0,0,0,,,,,,,,,0,,,67,65
147480,set_tempo,7,1,0,,,,,,500000,,,,,,,
147593,note_on,113,0,0,,,,,,,,,0,,,67,0
147600,note_on,7,0,0,,,,,,,,,0,,,69,67
147600,note_on,121,0,1,,,,,,,,,0,,,54,67
147600,note_on,0,0,1,,,,,,,,,0,,,57,67
147600,note_on,0,0,1,,,,,,,,,0,,,63,67
147713,note_on,113,0,0,,,,,,,,,0,,,69,0
147719,note_on,0,0,1,,,,,,,,,0,,,63,0
147719,note_on,0,0,1,,,,,,,,,0,,,57,0
147719,note_on,119,0,1,,,,,,,,,0,,,54,0
147720,note_on,7,0,0,,,,,,,,,0,,,75,69
147821,note_on,101,0,0,,,,,,,,,0,,,79,0
147833,note_on,12,0,0,,,,,,,,,0,,,75,0
147840,note_on,121,0,1,,,,,,,,,0,,,35,70
147840,note_on,0,0,0,,,,,,,,,0,,,80,70
147840,note_on,7,0,0,,,,,,,,,0,,,68,70
147841,control_change,1,0,1,,,,,,,64,0,0,,,,
147842,control_change,1,0,1,,,,,,,64,127,0,,,,
147953,note_on,113,0,0,,,,,,,,,0,,,68,0
147959,note_on,117,0,1,,,,,,,,,0,,,35,0
147960,note_on,7,0,0,,,,,,,,,0,,,75,72
148073,note_on,113,0,0,,,,,,,,,0,,,75,0
148080,note_on,0,0,1,,,,,,,,,0,,,63,74
148080,note_on,121,0,1,,,,,,,,,0,,,54,74
148080,note_on,0,0,1,,,,,,,,,0,,,57,74
148080,note_on,7,0,0,,,,,,,,,0,,,78,74
148181,note_on,101,0,0,,,,,,,,,0,,,80,0
148193,note_on,12,0,0,,,,,,,,,0,,,78,0
148199,note_on,119,0,1,,,,,,,,,0,,,54,0
148199,note_on,0,0,1,,,,,,,,,0,,,63,0
148199,note_on,0,0,1,,,,,,,,,0,,,57,0
148200,note_on,7,0,0,,,,,,,,,0,,,69,76
148200,note_on,0,0,0,,,,,,,,,0,,,81,76
148313,note_on,113,0,0,,,,,,,,,0,,,69,0
148320,note_on,121,0,1,,,,,,,,,0,,,47,78
148320,note_on,7,0,0,,,,,,,,,0,,,75,78
148433,note_on,113,0,0,,,,,,,,,0,,,75,0
148439,note_on,119,0,1,,,,,,,,,0,,,47,0
148440,note_on,7,0,0,,,,,,,,,0,,,78,80
148541,note_on,101,0,0,,,,,,,,,0,,,81,0
148553,note_on,12,0,0,,,,,,,,,0,,,78,0
148560,note_on,121,0,1,,,,,,,,,0,,,57,80
148560,note_on,0,0,1,,,,,,,,,0,,,66,80
148560,note_on,0,0,1,,,,,,,,,0,,,60,80
148560,note_on,0,0,0,,,,,,,,,0,,,84,80
148560,note_on,0,0,0,,,,,,,,,0,,,72,80
148560,set_tempo,7,1,0,,,,,,600000,,,,,,,
148673,note_on,113,0,0,,,,,,,,,0,,,72,0
148679,note_on,119,0,1,,,,,,,,,0,,,57,0
148679,note_on,0,0,1,,,,,,,,,0,,,66,0
148679,note_on,0,0,1,,,,,,,,,0,,,60,0
148680,note_on,7,0,0,,,,,,,,,0,,,75,77
148793,note_on,113,0,0,,,,,,,,,0,,,75,0
148800,note_on,7,0,0,,,,,,,,,0,,,78,74
148800,note_on,121,0,1,,,,,,,,,0,,,51,74
148901,note_on,101,0,0,,,,,,,,,0,,,84,0
148913,note_on,12,0,0,,,,,,,,,0,,,78,0
148919,note_on,119,0,1,,,,,,,,,0,,,51,0
148920,note_on,0,0,0,,,,,,,,,0,,,71,70
148920,note_on,0,0,0,,,,,,,,,0,,,83,70
148920,set_tempo,7,1,0,,,,,,666667,,,,,,,
149033,note_on,113,0,0,,,,,,,,,0,,,71,0
149040,note_on,7,0,0,,,,,,,,,0,,,75,67
149040,note_on,121,0,1,,,,,,,,,0,,,57,67
149040,note_on,0,0,1,,,,,,,,,0,,,59,67
149040,note_on,0,0,1,,,,,,,,,0,,,66,67
149153,note_on,113,0,0,,,,,,,,,0,,,75,0
149159,note_on,119,0,1,,,,,,,,,0,,,57,0
149159,note_on,0,0,1,,,,,,,,,0,,,66,0
149159,note_on,0,0,1,,,,,,,,,0,,,59,0
149160,note_on,7,0,0,,,,,,,,,0,,,78,64
149261,note_on,101,0,0,,,,,,,,,0,,,83,0
149273,note_on,12,0,0,,,,,,,,,0,,,78,0
149280,note_on,121,0,1,,,,,,,,,0,,,40,60
149280,note_on,0,0,0,,,,,,,,,0,,,79,60
149280,set_tempo,7,1,0,,,,,,600000,,,,,,,
149281,control_change,1,0,1,,,,,,,64,0,0,,,,
149282,control_change,1,0,1,,,,,,,64,127,0,,,,
149399,note_on,117,0,1,,,,,,,,,0,,,40,0
149400,note_on,120,0,0,,,,,,,,,0,,,67,60
149513,note_on,113,0,0,,,,,,,,,0,,,67,0
149520,note_on,0,0,1,,,,,,,,,0,,,66,60
149520,note_on,7,0,0,,,,,,,,,0,,,71,60
149520,note_on,121,0,1,,,,,,,,,0,,,55,60
149520,note_on,0,0,1,,,,,,,,,0,,,59,60
149633,note_on,113,0,0,,,,,,,,,0,,,71,0
149639,note_on,119,0,1,,,,,,,,,0,,,55,0
149639,note_on,0,0,1,,,,,,,,,0,,,59,0
149640,note_on,0,0,0,,,,,,,,,0,,,78,0
149640,set_tempo,7,1,0,,,,,,545455,,,,,,,
149640,note_on,0,0,0,,,,,,,,,0,,,78,60
149640,note_on,0,0,0,,,,,,,,,0,,,78,60
149747,note_on,108,0,1,,,,,,,,,0,,,66,0
149760,note_on,120,0,0,,,,,,,,,0,,,67,60
149760,note_on,13,0,1,,,,,,,,,0,,,43,60
149873,note_on,113,0,0,,,,,,,,,0,,,67,0
149879,note_on,119,0,1,,,,,,,,,0,,,43,0
149880,note_on,7,0,0,,,,,,,,,0,,,71,60
149981,note_on,101,0,0,,,,,,,,,0,,,78,0
149993,note_on,12,0,0,,,,,,,,,0,,,71,0
150000,note_on,121,0,1,,,,,,,,,0,,,55,60
150000,note_on,0,0,1,,,,,,,,,0,,,59,60
150000,note_on,0,0,1,,,,,,,,,0,,,64,60
150000,note_on,7,0,0,,,,,,,,,0,,,76,60
150000,note_on,0,0,0,,,,,,,,,0,,,76,0
150000,note_on,0,0,0,,,,,,,,,0,,,76,60
150119,note_on,119,0,1,,,,,,,,,0,,,55,0
150119,note_on,0,0,1,,,,,,,,,0,,,59,0
150120,note_on,120,0,0,,,,,,,,,0,,,67,60
150227,note_on,108,0,1,,,,,,,,,0,,,64,0
150233,note_on,113,0,0,,,,,,,,,0,,,67,0
150240,note_on,7,0,0,,,,,,,,,0,,,71,60
150240,note_on,13,0,1,,,,,,,,,0,,,47,60
150341,note_on,101,0,0,,,,,,,,,0,,,76,0
150353,note_on,12,0,0,,,,,,,,,0,,,71,0
150359,note_on,119,0,1,,,,,,,,,0,,,47,0
150360,note_on,0,0,0,,,,,,,,,0,,,74,0
150360,note_on,7,0,0,,,,,,,,,0,,,74,60
150360,note_on,0,0,0,,,,,,,,,0,,,74,60
150480,note_on,0,0,1,,,,,,,,,0,,,62,60
150480,note_on,121,0,1,,,,,,,,,0,,,55,60
150480,note_on,120,0,0,,,,,,,,,0,,,67,60
150480,note_on,0,0,1,,,,,,,,,0,,,59,60
150593,note_on,113,0,0,,,,,,,,,0,,,67,0
150599,note_on,119,0,1,,,,,,,,,0,,,55,0
150599,note_on,0,0,1,,,,,,,,,0,,,59,0
150600,note_on,7,0,0,,,,,,,,,0,,,71,60
150647,note_on,47,0,0,,,,,,,,,0,,,79,0
150701,note_on,54,0,0,,,,,,,,,0,,,74,0
150707,note_on,108,0,1,,,,,,,,,0,,,62,0
150713,note_on,12,0,0,,,,,,,,,0,,,71,0
150720,note_on,13,0,1,,,,,,,,,0,,,52,60
150720,note_on,7,0,0,,,,,,,,,0,,,79,72
150721,control_change,1,0,1,,,,,,,64,0,0,,,,
150722,control_change,1,0,1,,,,,,,64,127,0,,,,
150839,note_on,117,0,1,,,,,,,,,0,,,52,0
150840,note_on,120,0,0,,,,,,,,,0,,,67,60
150953,note_on,113,0,0,,,,,,,,,0,,,67,0
150960,note_on,0,0,0,,,,,,,,,0,,,71,60
150960,note_on,0,0,1,,,,,,,,,0,,,60,60
150960,set_tempo,7,1,0,,,,,,500000,,,,,,,
150960,note_on,121,0,1,,,,,,,,,0,,,55,60
151073,note_on,113,0,0,,,,,,,,,0,,,71,0
151079,note_on,119,0,1,,,,,,,,,0,,,55,0
151080,note_on,7,0,0,,,,,,,,,0,,,72,60
151187,note_on,108,0,1,,,,,,,,,0,,,60,0
151193,note_on,113,0,0,,,,,,,,,0,,,72,0
151200,note_on,13,0,1,,,,,,,,,0,,,47,60
151200,note_on,7,0,0,,,,,,,,,0,,,67,60
151313,note_on,113,0,0,,,,,,,,,0,,,67,0
151319,note_on,119,0,1,,,,,,,,,0,,,47,0
151320,note_on,7,0,0,,,,,,,,,0,,,71,60
151433,note_on,113,0,0,,,,,,,,,0,,,71,0
151439,note_on,6,0,0,,,,,,,,,0,,,79,0
151440,note_on,1,0,0,,,,,,,,,0,,,79,72
151440,note_on,121,0,1,,,,,,,,,0,,,55,60
151440,note_on,0,0,1,,,,,,,,,0,,,59,60
151559,note_on,119,0,1,,,,,,,,,0,,,55,0
151560,note_on,120,0,0,,,,,,,,,0,,,67,60
151667,note_on,108,0,1,,,,,,,,,0,,,59,0
151673,note_on,113,0,0,,,,,,,,,0,,,67,0
151680,note_on,13,0,1,,,,,,,,,0,,,40,60
151680,note_on,7,0,0,,,,,,,,,0,,,71,60
151793,note_on,113,0,0,,,,,,,,,0,,,71,0
151799,note_on,119,0,1,,,,,,,,,0,,,40,0
151800,note_on,7,0,0,,,,,,,,,0,,,76,60
151913,note_on,113,0,0,,,,,,,,,0,,,76,0
151920,note_on,0,0,1,,,,,,,,,0,,,59,60
151920,note_on,7,0,0,,,,,,,,,0,,,67,60
151920,note_on,121,0,1,,,,,,,,,0,,,55,60
152033,note_on,113,0,0,,,,,,,,,0,,,67,0
152039,note_on,119,0,1,,,,,,,,,0,,,55,0
152040,note_on,7,0,0,,,,,,,,,0,,,71,60
152147,note_on,108,0,1,,,,,,,,,0,,,59,0
152153,note_on,113,0,0,,,,,,,,,0,,,71,0
152159,note_on,6,0,0,,,,,,,,,0,,,79,0
152160,note_on,13,0,1,,,,,,,,,0,,,39,60
152160,note_on,0,0,0,,,,,,,,,0,,,79,60
152160,note_on,1,0,0,,,,,,,,,0,,,67,60
152161,control_change,1,0,1,,,,,,,64,0,0,,,,
152162,control_change,1,0,1,,,,,,,64,127,0,,,,
152273,note_on,113,0,0,,,,,,,,,0,,,67,0
152279,note_on,117,0,1,,,,,,,,,0,,,39,0
152280,note_on,7,0,0,,,,,,,,,0,,,69,60
152393,note_on,113,0,0,,,,,,,,,0,,,69,0
152400,note_on,121,0,1,,,,,,,,,0,,,55,60
152400,note_on,0,0,1,,,,,,,,,0,,,60,60
152400,note_on,7,0,0,,,,,,,,,0,,,72,60
152400,note_on,0,0,1,,,,,,,,,0,,,57,60
152501,note_on,101,0,0,,,,,,,,,0,,,79,0
152513,note_on,12,0,0,,,,,,,,,0,,,72,0
152519,note_on,0,0,1,,,,,,,,,0,,,60,0
152519,note_on,0,0,1,,,,,,,,,0,,,57,0
152519,note_on,119,0,1,,,,,,,,,0,,,55,0
152520,note_on,0,0,0,,,,,,,,,0,,,77,60
152520,note_on,7,0,0,,,,,,,,,0,,,65,60
152633,note_on,113,0,0,,,,,,,,,0,,,65,0
152640,note_on,121,0,1,,,,,,,,,0,,,45,60
152640,note_on,7,0,0,,,,,,,,,0,,,69,60
152753,note_on,113,0,0,,,,,,,,,0,,,69,0
152759,note_on,119,0,1,,,,,,,,,0,,,45,0
152760,note_on,7,0,0,,,,,,,,,0,,,72,60
152861,note_on,101,0,0,,,,,,,,,0,,,77,0
152873,note_on,12,0,0,,,,,,,,,0,,,72,0
152880,note_on,7,0,0,,,,,,,,,0,,,66,60
152880,note_on,0,0,0,,,,,,,,,0,,,78,60
152880,note_on,121,0,1,,,,,,,,,0,,,54,60
152880,note_on,0,0,1,,,,,,,,,0,,,57,60
152880,note_on,0,0,1,,,,,,,,,0,,,60,60
152993,note_on,113,0,0,,,,,,,,,0,,,66,0
152999,note_on,0,0,1,,,,,,,,,0,,,57,0
152999,note_on,119,0,1,,,,,,,,,0,,,54,0
152999,note_on,0,0,1,,,,,,,,,0,,,60,0
153000,note_on,7,0,0,,,,,,,,,0,,,69,62
153113,note_on,113,0,0,,,,,,,,,0,,,69,0
153120,note_on,121,0,1,,,,,,,,,0,,,48,65
153120,note_on,7,0,0,,,,,,,,,0,,,72,65
153221,note_on,101,0,0,,,,,,,,,0,,,78,0
153233,note_on,12,0,0,,,,,,,,,0,,,72,0
153239,note_on,119,0,1,,,,,,,,,0,,,48,0
153240,note_on,7,0,0,,,,,,,,,0,,,67,68
153240,note_on,0,0,0,,,,,,,,,0,,,79,68
153353,note_on,113,0,0,,,,,,,,,0,,,67,0
153360,note_on,0,0,1,,,,,,,,,0,,,63,70
153360,note_on,7,0,0,,,,,,,,,0,,,69,70
153360,note_on,121,0,1,,,,,,,,,0,,,54,70
153360,note_on,0,0,1,,,,,,,,,0,,,57,70
153473,note_on,113,0,0,,,,,,,,,0,,,69,0
153479,note_on,0,0,1,,,,,,,,,0,,,57,0
153479,note_on,119,0,1,,,,,,,,,0,,,54,0
153479,note_on,0,0,1,,,,,,,,,0,,,63,0
153480,note_on,7,0,0,,,,,,,,,0,,,72,73
153581,note_on,101,0,0,,,,,,,,,0,,,79,0
153593,note_on,12,0,0,,,,,,,,,0,,,72,0
153600,note_on,121,0,1,,,,,,,,,0,,,38,76
153600,note_on,0,0,0,,,,,,,,,0,,,80,76
153600,note_on,7,0,0,,,,,,,,,0,,,68,76
153601,control_change,1,0,1,,,,,,,64,0,0,,,,
153602,control_change,1,0,1,,,,,,,64,127,0,,,,
153713,note_on,113,0,0,,,,,,,,,0,,,68,0
153719,note_on,117,0,1,,,,,,,,,0,,,38,0
153720,note_on,7,0,0,,,,,,,,,0,,,72,79
153833,note_on,113,0,0,,,,,,,,,0,,,72,0
153840,note_on,121,0,1,,,,,,,,,0,,,54,81
153840,note_on,0,0,1,,,,,,,,,0,,,60,81
153840,note_on,0,0,1,,,,,,,,,0,,,63,81
153840,note_on,7,0,0,,,,,,,,,0,,,78,81
153941,note_on,101,0,0,,,,,,,,,0,,,80,0
153953,note_on,12,0,0,,,,,,,,,0,,,78,0
153959,note_on,0,0,1,,,,,,,,,0,,,63,0
153959,note_on,0,0,1,,,,,,,,,0,,,60,0
153959,note_on,119,0,1,,,,,,,,,0,,,54,0
153960,note_on,0,0,0,,,,,,,,,0,,,81,84
153960,note_on,7,0,0,,,,,,,,,0,,,69,84
154073,note_on,113,0,0,,,,,,,,,0,,,69,0
154080,note_on,7,0,0,,,,,,,,,0,,,72,87
154080,note_on,121,0,1,,,,,,,,,0,,,45,87
154193,note_on,113,0,0,,,,,,,,,0,,,72,0
154199,note_on,119,0,1,,,,,,,,,0,,,45,0
154200,note_on,7,0,0,,,,,,,,,0,,,78,90
154301,note_on,101,0,0,,,,,,,,,0,,,81,0
154313,note_on,12,0,0,,,,,,,,,0,,,78,0
154320,set_tempo,7,1,0,,,,,,545455,,,,,,,
154320,note_on,0,0,0,,,,,,,,,0,,,87,90
154320,note_on,0,0,1,,,,,,,,,0,,,60,90
154320,note_on,121,0,1,,,,,,,,,0,,,54,90
154320,note_on,0,0,1,,,,,,,,,0,,,63,90
154320,note_on,0,0,0,,,,,,,,,0,,,75,90
154433,note_on,113,0,0,,,,,,,,,0,,,75,0
154439,note_on,0,0,1,,,,,,,,,0,,,63,0
154439,note_on,119,0,1,,,,,,,,,0,,,54,0
154439,note_on,0,0,1,,,,,,,,,0,,,60,0
154440,note_on,7,0,0,,,,,,,,,0,,,78,84
154553,note_on,113,0,0,,,,,,,,,0,,,78,0
154560,note_on,121,0,1,,,,,,,,,0,,,50,78
154560,note_on,7,0,0,,,,,,,,,0,,,81,78
154661,note_on,101,0,0,,,,,,,,,0,,,87,0
154673,note_on,12,0,0,,,,,,,,,0,,,81,0
154679,note_on,119,0,1,,,,,,,,,0,,,50,0
154680,note_on,0,0,0,,,,,,,,,0,,,86,72
154680,note_on,0,0,0,,,,,,,,,0,,,74,72
154680,set_tempo,7,1,0,,,,,,600000,,,,,,,
154793,note_on,113,0,0,,,,,,,,,0,,,74,0
154800,note_on,7,0,0,,,,,,,,,0,,,78,66
154800,note_on,121,0,1,,,,,,,,,0,,,57,66
154800,note_on,0,0,1,,,,,,,,,0,,,60,66
154800,note_on,0,0,1,,,,,,,,,0,,,62,66
154913,note_on,113,0,0,,,,,,,,,0,,,78,0
154919,note_on,119,0,1,,,,,,,,,0,,,57,0
154919,note_on,0,0,1,,,,,,,,,0,,,62,0
154919,note_on,0,0,1,,,,,,,,,0,,,60,0
154920,note_on,7,0,0,,,,,,,,,0,,,81,60
155021,note_on,101,0,0,,,,,,,,,0,,,86,0
155033,note_on,12,0,0,,,,,,,,,0,,,81,0
155040,note_on,7,0,0,,,,,,,,,0,,,82,72
155040,note_on,121,0,1,,,,,,,,,0,,,43,60
155041,control_change,1,0,1,,,,,,,64,0,0,,,,
155042,control_change,1,0,1,,,,,,,64,127,0,,,,
155159,note_on,117,0,1,,,,,,,,,0,,,43,0
155160,note_on,120,0,0,,,,,,,,,0,,,70,60
155273,note_on,113,0,0,,,,,,,,,0,,,70,0
155280,note_on,0,0,1,,,,,,,,,0,,,62,60
155280,note_on,121,0,1,,,,,,,,,0,,,58,60
155280,note_on,7,0,0,,,,,,,,,0,,,74,60
155280,note_on,0,0,1,,,,,,,,,0,,,69,60
155393,note_on,113,0,0,,,,,,,,,0,,,74,0
155399,note_on,119,0,1,,,,,,,,,0,,,58,0
155399,note_on,0,0,1,,,,,,,,,0,,,69,0
155399,note_on,0,0,1,,,,,,,,,0,,,62,0
155400,note_on,0,0,0,,,,,,,,,0,,,81,60
155400,note_on,7,0,0,,,,,,,,,0,,,81,60
155400,note_on,0,0,0,,,,,,,,,0,,,81,0
155520,note_on,121,0,1,,,,,,,,,0,,,46,60
155520,note_on,120,0,0,,,,,,,,,0,,,70,60
155633,note_on,113,0,0,,,,,,,,,0,,,70,0
155639,note_on,119,0,1,,,,,,,,,0,,,46,0
155640,note_on,7,0,0,,,,,,,,,0,,,74,60
155741,note_on,101,0,0,,,,,,,,,0,,,81,0
155753,note_on,12,0,0,,,,,,,,,0,,,74,0
155760,note_on,0,0,1,,,,,,,,,0,,,62,60
155760,note_on,0,0,1,,,,,,,,,0,,,67,60
155760,set_tempo,7,1,0,,,,,,545455,,,,,,,
155760,note_on,0,0,0,,,,,,,,,0,,,79,0
155760,note_on,0,0,0,,,,,,,,,0,,,79,60
155760,note_on,121,0,1,,,,,,,,,0,,,58,60
155760,note_on,0,0,0,,,,,,,,,0,,,79,60
155879,note_on,0,0,1,,,,,,,,,0,,,67,0
155879,note_on,0,0,1,,,,,,,,,0,,,62,0
155879,note_on,119,0,1,,,,,,,,,0,,,58,0
155880,note_on,120,0,0,,,,,,,,,0,,,70,60
155993,note_on,113,0,0,,,,,,,,,0,,,70,0
156000,note_on,7,0,0,,,,,,,,,0,,,74,60
156000,note_on,121,0,1,,,,,,,,,0,,,50,60
156101,note_on,101,0,0,,,,,,,,,0,,,79,0
156113,note_on,12,0,0,,,,,,,,,0,,,74,0
156119,note_on,119,0,1,,,,,,,,,0,,,50,0
156120,note_on,0,0,0,,,,,,,,,0,,,77,60
156120,note_on,7,0,0,,,,,,,,,0,,,77,60
156120,note_on,0,0,0,,,,,,,,,0,,,77,0
156240,note_on,0,0,1,,,,,,,,,0,,,63,60
156240,note_on,0,0,1,,,,,,,,,0,,,58,60
156240,note_on,120,0,0,,,,,,,,,0,,,70,60
156240,note_on,121,0,1,,,,,,,,,0,,,55,60
156347,note_on,107,0,0,,,,,,,,,0,,,77,0
156353,note_on,6,0,0,,,,,,,,,0,,,70,0
156359,note_on,119,0,1,,,,,,,,,0,,,55,0
156359,note_on,0,0,1,,,,,,,,,0,,,58,0
156359,note_on,0,0,1,,,,,,,,,0,,,63,0
156360,note_on,7,0,0,,,,,,,,,0,,,75,61
156360,note_on,0,0,0,,,,,,,,,0,,,75,61
156360,note_on,0,0,0,,,,,,,,,0,,,75,0
156473,note_on,113,0,0,,,,,,,,,0,,,75,0
156479,note_on,6,0,0,,,,,,,,,0,,,82,0
156480,set_tempo,1,1,0,,,,,,500000,,,,,,,
156480,note_on,121,0,1,,,,,,,,,0,,,42,61
156480,note_on,0,0,0,,,,,,,,,0,,,84,73
156481,control_change,1,0,1,,,,,,,64,0,0,,,,
156482,control_change,1,0,1,,,,,,,64,127,0,,,,
156599,note_on,117,0,1,,,,,,,,,0,,,42,0
156600,note_on,120,0,0,,,,,,,,,0,,,72,61
156713,note_on,113,0,0,,,,,,,,,0,,,72,0
156720,note_on,7,0,0,,,,,,,,,0,,,75,62
156720,note_on,0,0,1,,,,,,,,,0,,,70,62
156720,note_on,121,0,1,,,,,,,,,0,,,60,62
156720,note_on,0,0,1,,,,,,,,,0,,,63,62
156833,note_on,113,0,0,,,,,,,,,0,,,75,0
156839,note_on,119,0,1,,,,,,,,,0,,,60,0
156839,note_on,0,0,1,,,,,,,,,0,,,63,0
156839,note_on,0,0,1,,,,,,,,,0,,,70,0
156840,note_on,0,0,0,,,,,,,,,0,,,82,63
156840,note_on,0,0,0,,,,,,,,,0,,,82,0
156840,note_on,7,0,0,,,,,,,,,0,,,82,63
156960,note_on,120,0,0,,,,,,,,,0,,,72,63
156960,note_on,121,0,1,,,,,,,,,0,,,41,63
157073,note_on,113,0,0,,,,,,,,,0,,,72,0
157079,note_on,119,0,1,,,,,,,,,0,,,41,0
157080,note_on,7,0,0,,,,,,,,,0,,,75,64
157181,note_on,101,0,0,,,,,,,,,0,,,82,0
157193,note_on,12,0,0,,,,,,,,,0,,,75,0
157199,note_on,6,0,0,,,,,,,,,0,,,84,0
157200,note_on,0,0,0,,,,,,,,,0,,,84,78
157200,note_on,1,0,0,,,,,,,,,0,,,81,65
157200,note_on,121,0,1,,,,,,,,,0,,,60,65
157200,note_on,0,0,1,,,,,,,,,0,,,63,65
157200,note_on,0,0,1,,,,,,,,,0,,,69,65
157313,note_on,113,0,0,,,,,,,,,0,,,81,0
157319,note_on,0,0,1,,,,,,,,,0,,,63,0
157319,note_on,119,0,1,,,,,,,,,0,,,60,0
157319,note_on,0,0,1,,,,,,,,,0,,,69,0
157320,note_on,7,0,0,,,,,,,,,0,,,72,66
157433,note_on,113,0,0,,,,,,,,,0,,,72,0
157440,note_on,7,0,0,,,,,,,,,0,,,75,66
157440,note_on,121,0,1,,,,,,,,,0,,,45,66
157553,note_on,113,0,0,,,,,,,,,0,,,75,0
157559,note_on,119,0,1,,,,,,,,,0,,,45,0
157560,note_on,0,0,0,,,,,,,,,0,,,78,0
157560,note_on,0,0,0,,,,,,,,,0,,,78,67
157560,note_on,0,0,0,,,,,,,,,0,,,78,67
157560,set_tempo,7,1,0,,,,,,600000,,,,,,,
157680,note_on,0,0,1,,,,,,,,,0,,,66,68
157680,note_on,121,0,1,,,,,,,,,0,,,60,68
157680,note_on,120,0,0,,,,,,,,,0,,,72,68
157680,note_on,0,0,1,,,,,,,,,0,,,63,68
157793,note_on,113,0,0,,,,,,,,,0,,,72,0
157799,note_on,119,0,1,,,,,,,,,0,,,60,0
157799,note_on,0,0,1,,,,,,,,,0,,,66,0
157799,note_on,0,0,1,,,,,,,,,0,,,63,0
157800,note_on,7,0,0,,,,,,,,,0,,,75,69
157901,note_on,101,0,0,,,,,,,,,0,,,78,0
157913,note_on,12,0,0,,,,,,,,,0,,,75,0
157919,note_on,6,0,0,,,,,,,,,0,,,84,0
157920,note_on,121,0,1,,,,,,,,,0,,,46,69
157920,note_on,0,0,0,,,,,,,,,0,,,85,82
157920,set_tempo,1,1,0,,,,,,500000,,,,,,,
157921,control_change,1,0,1,,,,,,,64,0,0,,,,
157922,control_change,1,0,1,,,,,,,64,127,0,,,,
158039,note_on,117,0,1,,,,,,,,,0,,,46,0
158040,note_on,120,0,0,,,,,,,,,0,,,73,70
158153,note_on,113,0,0,,,,,,,,,0,,,73,0
158160,note_on,7,0,0,,,,,,,,,0,,,77,71
158160,note_on,0,0,1,,,,,,,,,0,,,65,71
158160,note_on,121,0,1,,,,,,,,,0,,,61,71
158160,note_on,0,0,1,,,,,,,,,0,,,72,71
158273,note_on,113,0,0,,,,,,,,,0,,,77,0
158279,note_on,0,0,1,,,,,,,,,0,,,72,0
158279,note_on,0,0,1,,,,,,,,,0,,,65,0
158279,note_on,119,0,1,,,,,,,,,0,,,61,0
158280,note_on,0,0,0,,,,,,,,,0,,,84,71
158280,note_on,7,0,0,,,,,,,,,0,,,84,71
158280,note_on,0,0,0,,,,,,,,,0,,,84,0
158400,note_on,121,0,1,,,,,,,,,0,,,49,72
158400,note_on,120,0,0,,,,,,,,,0,,,73,72
158513,note_on,113,0,0,,,,,,,,,0,,,73,0
158519,note_on,119,0,1,,,,,,,,,0,,,49,0
158520,note_on,7,0,0,,,,,,,,,0,,,77,73
158621,note_on,101,0,0,,,,,,,,,0,,,84,0
158633,note_on,12,0,0,,,,,,,,,0,,,77,0
158640,note_on,0,0,0,,,,,,,,,0,,,82,0
158640,note_on,7,0,0,,,,,,,,,0,,,82,74
158640,note_on,0,0,1,,,,,,,,,0,,,70,74
158640,note_on,0,0,0,,,,,,,,,0,,,82,74
158640,note_on,0,0,1,,,,,,,,,0,,,65,74
158640,note_on,121,0,1,,,,,,,,,0,,,61,74
158759,note_on,0,0,1,,,,,,,,,0,,,65,0
158759,note_on,119,0,1,,,,,,,,,0,,,61,0
158759,note_on,0,0,1,,,,,,,,,0,,,70,0
158760,note_on,120,0,0,,,,,,,,,0,,,73,74
158873,note_on,113,0,0,,,,,,,,,0,,,73,0
158880,note_on,121,0,1,,,,,,,,,0,,,53,75
158880,note_on,7,0,0,,,,,,,,,0,,,77,75
158981,note_on,101,0,0,,,,,,,,,0,,,82,0
158993,note_on,12,0,0,,,,,,,,,0,,,77,0
158999,note_on,119,0,1,,,,,,,,,0,,,53,0
159000,note_on,7,0,0,,,,,,,,,0,,,80,76
159000,note_on,0,0,0,,,,,,,,,0,,,80,0
159000,note_on,0,0,0,,,,,,,,,0,,,80,76
159120,note_on,120,0,0,,,,,,,,,0,,,73,77
159120,note_on,0,0,1,,,,,,,,,0,,,66,77
159120,note_on,121,0,1,,,,,,,,,0,,,58,77
159120,note_on,0,0,1,,,,,,,,,0,,,61,77
159227,note_on,107,0,0,,,,,,,,,0,,,80,0
159233,note_on,6,0,0,,,,,,,,,0,,,73,0
159239,note_on,119,0,1,,,,,,,,,0,,,58,0
159239,note_on,0,0,1,,,,,,,,,0,,,61,0
159239,note_on,0,0,1,,,,,,,,,0,,,66,0
159240,note_on,0,0,0,,,,,,,,,0,,,78,0
159240,note_on,7,0,0,,,,,,,,,0,,,78,77
159240,note_on,0,0,0,,,,,,,,,0,,,78,77
159353,note_on,113,0,0,,,,,,,,,0,,,78,0
159359,note_on,6,0,0,,,,,,,,,0,,,85,0
159360,note_on,121,0,1,,,,,,,,,0,,,45,78
159360,note_on,1,0,0,,,,,,,,,0,,,87,93
159361,control_change,1,0,1,,,,,,,64,0,0,,,,
159362,control_change,1,0,1,,,,,,,64,127,0,,,,
159479,note_on,117,0,1,,,,,,,,,0,,,45,0
159480,note_on,120,0,0,,,,,,,,,0,,,75,79
159593,note_on,113,0,0,,,,,,,,,0,,,75,0
159600,note_on,7,0,0,,,,,,,,,0,,,78,79
159600,note_on,0,0,1,,,,,,,,,0,,,66,79
159600,note_on,0,0,1,,,,,,,,,0,,,73,79
159600,note_on,121,0,1,,,,,,,,,0,,,63,79
159713,note_on,113,0,0,,,,,,,,,0,,,78,0
159719,note_on,0,0,1,,,,,,,,,0,,,66,0
159719,note_on,119,0,1,,,,,,,,,0,,,63,0
159719,note_on,0,0,1,,,,,,,,,0,,,73,0
159720,note_on,0,0,0,,,,,,,,,0,,,85,0
159720,note_on,0,0,0,,,,,,,,,0,,,85,80
159720,note_on,0,0,0,,,,,,,,,0,,,85,80
159720,set_tempo,7,1,0,,,,,,545455,,,,,,,
159840,note_on,120,0,0,,,,,,,,,0,,,75,81
159840,note_on,121,0,1,,,,,,,,,0,,,44,81
159953,note_on,113,0,0,,,,,,,,,0,,,75,0
159959,note_on,119,0,1,,,,,,,,,0,,,44,0
159960,note_on,7,0,0,,,,,,,,,0,,,78,82
160061,note_on,101,0,0,,,,,,,,,0,,,85,0
160073,note_on,12,0,0,,,,,,,,,0,,,78,0
160079,note_on,6,0,0,,,,,,,,,0,,,87,0
160080,note_on,0,0,1,,,,,,,,,0,,,72,82
160080,note_on,1,0,0,,,,,,,,,0,,,84,82
160080,note_on,121,0,1,,,,,,,,,0,,,63,82
160080,note_on,0,0,0,,,,,,,,,0,,,87,98
160080,note_on,0,0,1,,,,,,,,,0,,,66,82
160193,note_on,113,0,0,,,,,,,,,0,,,84,0
160199,note_on,0,0,1,,,,,,,,,0,,,72,0
160199,note_on,119,0,1,,,,,,,,,0,,,63,0
160199,note_on,0,0,1,,,,,,,,,0,,,66,0
160200,note_on,7,0,0,,,,,,,,,0,,,75,83
160313,note_on,113,0,0,,,,,,,,,0,,,75,0
160320,note_on,121,0,1,,,,,,,,,0,,,48,84
160320,note_on,7,0,0,,,,,,,,,0,,,78,84
160433,note_on,113,0,0,,,,,,,,,0,,,78,0
160439,note_on,119,0,1,,,,,,,,,0,,,48,0
160440,note_on,0,0,0,,,,,,,,,0,,,81,85
160440,set_tempo,7,1,0,,,,,,600000,,,,,,,
160440,note_on,0,0,0,,,,,,,,,0,,,81,85
160440,note_on,0,0,0,,,,,,,,,0,,,81,0
160560,note_on,0,0,1,,,,,,,,,0,,,68,85
160560,note_on,121,0,1,,,,,,,,,0,,,63,85
160560,note_on,0,0,1,,,,,,,,,0,,,66,85
160560,note_on,120,0,0,,,,,,,,,0,,,75,85
160667,note_on,107,0,0,,,,,,,,,0,,,81,0
160673,note_on,6,0,0,,,,,,,,,0,,,75,0
160679,note_on,119,0,1,,,,,,,,,0,,,63,0
160679,note_on,0,0,1,,,,,,,,,0,,,68,0
160679,note_on,0,0,1,,,,,,,,,0,,,66,0
160680,note_on,7,0,0,,,,,,,,,0,,,80,86
160680,note_on,0,0,0,,,,,,,,,0,,,80,0
160680,note_on,0,0,0,,,,,,,,,0,,,80,86
160793,note_on,113,0,0,,,,,,,,,0,,,80,0
160799,note_on,6,0,0,,,,,,,,,0,,,87,0
160800,note_on,121,0,1,,,,,,,,,0,,,49,87
160800,note_on,1,0,0,,,,,,,,,0,,,89,104
160801,control_change,1,0,1,,,,,,,64,0,0,,,,
160802,control_change,1,0,1,,,,,,,64,127,0,,,,
160919,note_on,117,0,1,,,,,,,,,0,,,49,0
160920,note_on,120,0,0,,,,,,,,,0,,,77,87
161033,note_on,113,0,0,,,,,,,,,0,,,77,0
161040,note_on,7,0,0,,,,,,,,,0,,,80,88
161040,note_on,0,0,1,,,,,,,,,0,,,68,88
161040,note_on,0,0,1,,,,,,,,,0,,,75,88
161040,note_on,121,0,1,,,,,,,,,0,,,65,88
161153,note_on,113,0,0,,,,,,,,,0,,,80,0
161159,note_on,0,0,1,,,,,,,,,0,,,68,0
161159,note_on,0,0,1,,,,,,,,,0,,,75,0
161159,note_on,119,0,1,,,,,,,,,0,,,65,0
161160,note_on,0,0,0,,,,,,,,,0,,,87,89
161160,note_on,0,0,0,,,,,,,,,0,,,87,89
161160,set_tempo,7,1,0,,,,,,545455,,,,,,,
161160,note_on,0,0,0,,,,,,,,,0,,,87,0
161280,note_on,121,0,1,,,,,,,,,0,,,53,90
161280,note_on,120,0,0,,,,,,,,,0,,,77,90
161393,note_on,113,0,0,,,,,,,,,0,,,77,0
161399,note_on,119,0,1,,,,,,,,,0,,,53,0
161400,note_on,7,0,0,,,,,,,,,0,,,80,90
161501,note_on,101,0,0,,,,,,,,,0,,,87,0
161513,note_on,12,0,0,,,,,,,,,0,,,80,0
161520,note_on,0,0,1,,,,,,,,,0,,,73,91
161520,note_on,121,0,1,,,,,,,,,0,,,65,91
161520,set_tempo,7,1,0,,,,,,500000,,,,,,,
161520,note_on,0,0,1,,,,,,,,,0,,,68,91
161520,note_on,0,0,0,,,,,,,,,0,,,85,91
161520,note_on,0,0,0,,,,,,,,,0,,,85,0
161520,note_on,0,0,0,,,,,,,,,0,,,85,91
161639,note_on,0,0,1,,,,,,,,,0,,,73,0
161639,note_on,119,0,1,,,,,,,,,0,,,65,0
161639,note_on,0,0,1,,,,,,,,,0,,,68,0
161640,note_on,120,0,0,,,,,,,,,0,,,77,92
161753,note_on,113,0,0,,,,,,,,,0,,,77,0
161760,note_on,7,0,0,,,,,,,,,0,,,80,93
161760,note_on,121,0,1,,,,,,,,,0,,,56,93
161861,note_on,101,0,0,,,,,,,,,0,,,85,0
161873,note_on,12,0,0,,,,,,,,,0,,,80,0
161879,note_on,119,0,1,,,,,,,,,0,,,56,0
161880,note_on,0,0,0,,,,,,,,,0,,,84,0
161880,note_on,0,0,0,,,,,,,,,0,,,84,93
161880,note_on,7,0,0,,,,,,,,,0,,,84,93
162000,note_on,121,0,1,,,,,,,,,0,,,65,94
162000,note_on,0,0,1,,,,,,,,,0,,,72,94
162000,note_on,0,0,1,,,,,,,,,0,,,68,94
162000,note_on,120,0,0,,,,,,,,,0,,,77,94
162113,note_on,113,0,0,,,,,,,,,0,,,77,0
162119,note_on,0,0,1,,,,,,,,,0,,,72,0
162119,note_on,119,0,1,,,,,,,,,0,,,65,0
162119,note_on,0,0,1,,,,,,,,,0,,,68,0
162120,note_on,7,0,0,,,,,,,,,0,,,80,95
162221,note_on,101,0,0,,,,,,,,,0,,,84,0
162233,note_on,12,0,0,,,,,,,,,0,,,80,0
162239,note_on,6,0,0,,,,,,,,,0,,,89,0
162240,note_on,1,0,0,,,,,,,,,0,,,89,96
162240,note_on,121,0,1,,,,,,,,,0,,,47,96
162241,control_change,1,0,1,,,,,,,64,0,0,,,,
162242,control_change,1,0,1,,,,,,,64,127,0,,,,
162359,note_on,117,0,1,,,,,,,,,0,,,47,0
162360,note_on,120,0,0,,,,,,,,,0,,,75,97
162473,note_on,113,0,0,,,,,,,,,0,,,75,0
162480,note_on,0,0,1,,,,,,,,,0,,,71,98
162480,note_on,7,0,0,,,,,,,,,0,,,80,98
162480,note_on,0,0,1,,,,,,,,,0,,,68,98
162480,note_on,0,0,1,,,,,,,,,0,,,65,98
162480,note_on,121,0,1,,,,,,,,,0,,,63,98
162593,note_on,113,0,0,,,,,,,,,0,,,80,0
162599,note_on,0,0,1,,,,,,,,,0,,,71,0
162599,note_on,0,0,1,,,,,,,,,0,,,68,0
162599,note_on,0,0,1,,,,,,,,,0,,,65,0
162599,note_on,119,0,1,,,,,,,,,0,,,63,0
162600,note_on,0,0,0,,,,,,,,,0,,,83,0
162600,note_on,0,0,0,,,,,,,,,0,,,83,99
162600,note_on,7,0,0,,,,,,,,,0,,,83,99
162720,note_on,121,0,1,,,,,,,,,0,,,53,101
162720,note_on,120,0,0,,,,,,,,,0,,,75,101
162833,note_on,113,0,0,,,,,,,,,0,,,75,0
162839,note_on,119,0,1,,,,,,,,,0,,,53,0
162840,note_on,7,0,0,,,,,,,,,0,,,80,102
162923,note_on,83,0,0,,,,,,,,,0,,,89,0
162941,note_on,18,0,0,,,,,,,,,0,,,83,0
162953,note_on,12,0,0,,,,,,,,,0,,,80,0
162960,note_on,0,0,1,,,,,,,,,0,,,71,103
162960,note_on,0,0,1,,,,,,,,,0,,,65,103
162960,note_on,0,0,1,,,,,,,,,0,,,68,103
162960,note_on,7,0,0,,,,,,,,,0,,,89,103
162960,note_on,121,0,1,,,,,,,,,0,,,63,103
163079,note_on,119,0,1,,,,,,,,,0,,,63,0
163079,note_on,0,0,1,,,,,,,,,0,,,65,0
163079,note_on,0,0,1,,,,,,,,,0,,,68,0
163079,note_on,0,0,1,,,,,,,,,0,,,71,0
163080,note_on,120,0,0,,,,,,,,,0,,,75,104
163193,note_on,113,0,0,,,,,,,,,0,,,75,0
163200,note_on,121,0,1,,,,,,,,,0,,,59,106
163200,note_on,7,0,0,,,,,,,,,0,,,80,106
163313,note_on,113,0,0,,,,,,,,,0,,,80,0
163319,note_on,119,0,1,,,,,,,,,0,,,59,0
163320,note_on,0,0,0,,,,,,,,,0,,,83,0
163320,note_on,7,0,0,,,,,,,,,0,,,83,107
163320,note_on,0,0,0,,,,,,,,,0,,,83,107
163440,note_on,0,0,1,,,,,,,,,0,,,68,108
163440,note_on,0,0,1,,,,,,,,,0,,,71,108
163440,note_on,121,0,1,,,,,,,,,0,,,63,108
163440,note_on,120,0,0,,,,,,,,,0,,,75,108
163440,note_on,0,0,1,,,,,,,,,0,,,65,108
163553,note_on,113,0,0,,,,,,,,,0,,,75,0
163559,note_on,0,0,1,,,,,,,,,0,,,65,0
163559,note_on,0,0,1,,,,,,,,,0,,,68,0
163559,note_on,0,0,1,,,,,,,,,0,,,71,0
163559,note_on,119,0,1,,,,,,,,,0,,,63,0
163560,note_on,7,0,0,,,,,,,,,0,,,80,109
163643,note_on,83,0,0,,,,,,,,,0,,,89,0
163661,note_on,18,0,0,,,,,,,,,0,,,83,0
163673,note_on,12,0,0,,,,,,,,,0,,,80,0
163680,set_tempo,7,1,0,,,,,,545455,,,,,,,
163680,note_on,0,0,0,,,,,,,,,0,,,89,111
163680,note_on,121,0,1,,,,,,,,,0,,,46,111
163681,control_change,1,0,1,,,,,,,64,0,0,,,,
163682,control_change,1,0,1,,,,,,,64,127,0,,,,
163799,note_on,117,0,1,,,,,,,,,0,,,46,0
163800,note_on,120,0,0,,,,,,,,,0,,,74,112
163913,note_on,113,0,0,,,,,,,,,0,,,74,0
163920,note_on,121,0,1,,,,,,,,,0,,,62,113
163920,note_on,0,0,1,,,,,,,,,0,,,65,113
163920,note_on,0,0,1,,,,,,,,,0,,,68,113
163920,note_on,0,0,1,,,,,,,,,0,,,70,113
163920,note_on,7,0,0,,,,,,,,,0,,,80,113
163920,note_on,0,0,0,,,,,,,,,0,,,82,113
164033,note_on,113,0,0,,,,,,,,,0,,,80,0
164033,note_on,0,0,0,,,,,,,,,0,,,82,0
164039,note_on,119,0,1,,,,,,,,,0,,,62,0
164039,note_on,0,0,1,,,,,,,,,0,,,65,0
164039,note_on,0,0,1,,,,,,,,,0,,,68,0
164039,note_on,0,0,1,,,,,,,,,0,,,70,0
164040,note_on,0,0,0,,,,,,,,,0,,,89,114
164040,note_on,7,0,0,,,,,,,,,0,,,89,0
164160,note_on,120,0,0,,,,,,,,,0,,,74,116
164160,note_on,121,0,1,,,,,,,,,0,,,46,116
164273,note_on,113,0,0,,,,,,,,,0,,,74,0
164279,note_on,119,0,1,,,,,,,,,0,,,46,0
164280,note_on,0,0,0,,,,,,,,,0,,,82,117
164280,note_on,7,0,0,,,,,,,,,0,,,80,117
164363,note_on,83,0,0,,,,,,,,,0,,,89,0
164393,note_on,0,0,0,,,,,,,,,0,,,82,0
164393,note_on,30,0,0,,,,,,,,,0,,,80,0
164400,set_tempo,7,1,0,,,,,,600000,,,,,,,
164400,note_on,0,0,0,,,,,,,,,0,,,90,118
164400,note_on,0,0,1,,,,,,,,,0,,,68,118
164400,note_on,0,0,1,,,,,,,,,0,,,70,118
164400,note_on,121,0,1,,,,,,,,,0,,,62,118
164400,note_on,0,0,1,,,,,,,,,0,,,66,118
164519,note_on,0,0,1,,,,,,,,,0,,,70,0
164519,note_on,0,0,1,,,,,,,,,0,,,66,0
164519,note_on,0,0,1,,,,,,,,,0,,,68,0
164519,note_on,119,0,1,,,,,,,,,0,,,62,0
164520,note_on,120,0,0,,,,,,,,,0,,,74,119
164633,note_on,113,0,0,,,,,,,,,0,,,74,0
164640,note_on,121,0,1,,,,,,,,,0,,,46,121
164640,note_on,7,0,0,,,,,,,,,0,,,80,121
164640,note_on,0,0,0,,,,,,,,,0,,,82,121
164753,note_on,113,0,0,,,,,,,,,0,,,80,0
164753,note_on,0,0,0,,,,,,,,,0,,,82,0
164759,note_on,119,0,1,,,,,,,,,0,,,46,0
164760,note_on,0,0,0,,,,,,,,,0,,,90,122
164760,note_on,0,0,0,,,,,,,,,0,,,90,0
164760,set_tempo,7,1,0,,,,,,750000,,,,,,,
164880,note_on,0,0,1,,,,,,,,,0,,,70,123
164880,note_on,121,0,1,,,,,,,,,0,,,62,123
164880,note_on,0,0,0,,,,,,,,,0,,,74,123
164880,note_on,0,0,1,,,,,,,,,0,,,66,123
164880,note_on,0,0,1,,,,,,,,,0,,,68,123
164880,set_tempo,120,1,0,,,,,,857143,,,,,,,
164993,note_on,113,0,0,,,,,,,,,0,,,74,0
164999,note_on,0,0,1,,,,,,,,,0,,,70,0
164999,note_on,0,0,1,,,,,,,,,0,,,68,0
164999,note_on,0,0,1,,,,,,,,,0,,,66,0
164999,note_on,119,0,1,,,,,,,,,0,,,62,0
165000,set_tempo,7,1,0,,,,,,1000000,,,,,,,
165000,note_on,0,0,0,,,,,,,,,0,,,82,124
165000,note_on,0,0,0,,,,,,,,,0,,,80,124
165083,note_on,83,0,0,,,,,,,,,0,,,90,0
165113,note_on,0,0,0,,,,,,,,,0,,,82,0
165113,note_on,30,0,0,,,,,,,,,0,,,80,0
165120,note_on,0,0,0,,,,,,,,,0,,,79,126
165120,note_on,121,0,1,,,,,,,,,0,,,39,126
165120,note_on,0,0,0,,,,,,,,,0,,,91,127
165120,note_on,0,0,1,,,,,,,,,0,,,51,126
165120,time_signature,7,1,0,2,4,24,8,,,,,,,,,
165120,set_tempo,0,1,0,,,,,,1500000,,,,,,,
165121,control_change,1,0,1,,,,,,,64,0,0,,,,
165122,control_change,1,0,1,,,,,,,64,127,0,,,,
165199,note_on,79,0,0,,,,,,,,,0,,,91,0
165200,note_on,0,0,0,,,,,,,,,0,,,82,126
165200,set_tempo,1,1,0,,,,,,1000000,,,,,,,
165240,note_on,0,0,1,,,,,,,,,0,,,58,127
165240,note_on,118,0,1,,,,,,,,,0,,,55,127
165240,note_on,0,0,1,,,,,,,,,0,,,67,127
165275,note_on,75,0,0,,,,,,,,,0,,,82,0
165280,note_on,5,0,0,,,,,,,,,0,,,87,126
165347,note_on,67,0,0,,,,,,,,,0,,,79,0
165347,note_on,107,0,1,,,,,,,,,0,,,39,0
165347,note_on,0,0,1,,,,,,,,,0,,,51,0
165355,note_on,8,0,0,,,,,,,,,0,,,87,0
165360,note_on,0,0,0,,,,,,,,,0,,,89,127
165360,note_on,0,0,0,,,,,,,,,0,,,77,126
165360,set_tempo,5,1,0,,,,,,857143,,,,,,,
165439,note_on,79,0,0,,,,,,,,,0,,,89,0
165440,note_on,1,0,0,,,,,,,,,0,,,79,126
165479,note_on,132,0,1,,,,,,,,,0,,,55,0
165479,note_on,0,0,1,,,,,,,,,0,,,67,0
165479,note_on,0,0,1,,,,,,,,,0,,,58,0
165480,note_on,0,0,1,,,,,,,,,0,,,58,127
165480,note_on,0,0,1,,,,,,,,,0,,,65,127
165480,note_on,1,0,1,,,,,,,,,0,,,55,127
165515,note_on,75,0,0,,,,,,,,,0,,,79,0
165520,note_on,5,0,0,,,,,,,,,0,,,82,126
165587,note_on,67,0,0,,,,,,,,,0,,,77,0
165595,note_on,8,0,0,,,,,,,,,0,,,82,0
165600,set_tempo,5,1,0,,,,,,800000,,,,,,,
165600,note_on,0,0,0,,,,,,,,,0,,,75,126
165600,note_on,0,0,0,,,,,,,,,0,,,87,127
165679,note_on,79,0,0,,,,,,,,,0,,,87,0
165680,note_on,1,0,0,,,,,,,,,0,,,79,126
165719,note_on,0,0,1,,,,,,,,,0,,,58,0
165719,note_on,0,0,1,,,,,,,,,0,,,65,0
165719,note_on,239,0,1,,,,,,,,,0,,,55,0
165720,note_on,1,0,1,,,,,,,,,0,,,55,127
165720,note_on,0,0,1,,,,,,,,,0,,,58,127
165720,note_on,0,0,1,,,,,,,,,0,,,63,127
165755,note_on,75,0,0,,,,,,,,,0,,,79,0
165760,note_on,5,0,0,,,,,,,,,0,,,82,126
165827,note_on,67,0,0,,,,,,,,,0,,,75,0
165835,note_on,8,0,0,,,,,,,,,0,,,82,0
165840,note_on,0,0,0,,,,,,,,,0,,,86,127
165840,note_on,0,0,0,,,,,,,,,0,,,74,126
165840,set_tempo,5,1,0,,,,,,750000,,,,,,,
165919,note_on,79,0,0,,,,,,,,,0,,,86,0
165920,note_on,1,0,0,,,,,,,,,0,,,79,126
165959,note_on,0,0,1,,,,,,,,,0,,,58,0
165959,note_on,239,0,1,,,,,,,,,0,,,55,0
165959,note_on,0,0,1,,,,,,,,,0,,,63,0
165960,note_on,0,0,1,,,,,,,,,0,,,62,127
165960,note_on,1,0,1,,,,,,,,,0,,,55,127
165960,note_on,0,0,1,,,,,,,,,0,,,58,127
165995,note_on,75,0,0,,,,,,,,,0,,,79,0
166000,note_on,5,0,0,,,,,,,,,0,,,82,126
166067,note_on,67,0,0,,,,,,,,,0,,,74,0
166075,note_on,8,0,0,,,,,,,,,0,,,82,0
166079,note_on,0,0,1,,,,,,,,,0,,,62,0
166079,note_on,119,0,1,,,,,,,,,0,,,55,0
166079,note_on,0,0,1,,,,,,,,,0,,,58,0
166080,note_on,5,0,0,,,,,,,,,0,,,84,127
166080,note_on,1,0,1,,,,,,,,,0,,,39,126
166080,note_on,0,0,1,,,,,,,,,0,,,51,126
166080,note_on,0,0,0,,,,,,,,,0,,,72,126
166081,control_change,1,0,1,,,,,,,64,0,0,,,,
166082,control_change,1,0,1,,,,,,,64,127,0,,,,
166159,note_on,79,0,0,,,,,,,,,0,,,84,0
166160,note_on,1,0,0,,,,,,,,,0,,,75,126
166200,note_on,0,0,1,,,,,,,,,0,,,60,127
166200,note_on,118,0,1,,,,,,,,,0,,,51,0
166200,note_on,0,0,1,,,,,,,,,0,,,55,127
166200,note_on,0,0,1,,,,,,,,,0,,,51,127
166235,note_on,75,0,0,,,,,,,,,0,,,75,0
166240,note_on,5,0,0,,,,,,,,,0,,,79,126
166307,note_on,67,0,0,,,,,,,,,0,,,72,0
166307,note_on,107,0,1,,,,,,,,,0,,,39,0
166315,note_on,8,0,0,,,,,,,,,0,,,79,0
166320,note_on,0,0,0,,,,,,,,,0,,,69,126
166320,note_on,5,0,0,,,,,,,,,0,,,81,127
166399,note_on,79,0,0,,,,,,,,,0,,,81,0
166400,note_on,1,0,0,,,,,,,,,0,,,75,126
166439,note_on,0,0,1,,,,,,,,,0,,,60,0
166439,note_on,0,0,1,,,,,,,,,0,,,55,0
166439,note_on,132,0,1,,,,,,,,,0,,,51,0
166440,note_on,1,0,1,,,,,,,,,0,,,51,127
166440,note_on,0,0,1,,,,,,,,,0,,,55,127
166440,note_on,0,0,1,,,,,,,,,0,,,57,127
166475,note_on,75,0,0,,,,,,,,,0,,,75,0
166480,note_on,5,0,0,,,,,,,,,0,,,79,126
166547,note_on,67,0,0,,,,,,,,,0,,,69,0
166555,note_on,8,0,0,,,,,,,,,0,,,79,0
166560,note_on,5,0,0,,,,,,,,,0,,,82,127
166560,note_on,0,0,0,,,,,,,,,0,,,70,126
166639,note_on,79,0,0,,,,,,,,,0,,,82,0
166640,note_on,1,0,0,,,,,,,,,0,,,75,126
166679,note_on,239,0,1,,,,,,,,,0,,,51,0
166679,note_on,0,0,1,,,,,,,,,0,,,57,0
166679,note_on,0,0,1,,,,,,,,,0,,,55,0
166680,note_on,0,0,1,,,,,,,,,0,,,58,127
166680,note_on,0,0,1,,,,,,,,,0,,,55,127
166680,note_on,1,0,1,,,,,,,,,0,,,51,127
166715,note_on,75,0,0,,,,,,,,,0,,,75,0
166720,note_on,5,0,0,,,,,,,,,0,,,79,126
166787,note_on,67,0,0,,,,,,,,,0,,,70,0
166795,note_on,8,0,0,,,,,,,,,0,,,79,0
166800,note_on,0,0,0,,,,,,,,,0,,,91,126
166800,set_tempo,5,1,0,,,,,,1000000,,,,,,,
166800,note_on,0,0,0,,,,,,,,,0,,,79,126
166875,note_on,75,0,0,,,,,,,,,0,,,79,0
166880,note_on,5,0,0,,,,,,,,,0,,,82,126
166919,note_on,0,0,1,,,,,,,,,0,,,55,0
166919,note_on,0,0,1,,,,,,,,,0,,,58,0
166919,note_on,239,0,1,,,,,,,,,0,,,51,0
166920,note_on,1,0,1,,,,,,,,,0,,,55,127
166920,note_on,0,0,1,,,,,,,,,0,,,58,127
166920,note_on,0,0,1,,,,,,,,,0,,,67,127
166920,note_on,0,0,1,,,,,,,,,0,,,63,127
166955,note_on,75,0,0,,,,,,,,,0,,,82,0
166960,note_on,5,0,0,,,,,,,,,0,,,87,126
167027,note_on,67,0,0,,,,,,,,,0,,,91,0
167035,note_on,8,0,0,,,,,,,,,0,,,87,0
167039,note_on,0,0,1,,,,,,,,,0,,,58,0
167039,note_on,0,0,1,,,,,,,,,0,,,63,0
167039,note_on,119,0,1,,,,,,,,,0,,,55,0
167039,note_on,0,0,1,,,,,,,,,0,,,67,0
167040,note_on,5,0,0,,,,,,,,,0,,,79,126
167040,note_on,0,0,0,,,,,,,,,0,,,91,126
167040,note_on,1,0,1,,,,,,,,,0,,,39,126
167040,note_on,0,0,1,,,,,,,,,0,,,51,126
167041,control_change,1,0,1,,,,,,,64,0,0,,,,
167042,control_change,1,0,1,,,,,,,64,127,0,,,,
167115,note_on,75,0,0,,,,,,,,,0,,,79,0
167120,note_on,5,0,0,,,,,,,,,0,,,83,126
167160,note_on,0,0,1,,,,,,,,,0,,,59,126
167160,note_on,0,0,1,,,,,,,,,0,,,67,126
167160,note_on,118,0,1,,,,,,,,,0,,,56,126
167160,note_on,0,0,1,,,,,,,,,0,,,62,126
167195,note_on,75,0,0,,,,,,,,,0,,,83,0
167200,note_on,5,0,0,,,,,,,,,0,,,86,126
167267,note_on,107,0,1,,,,,,,,,0,,,39,0
167267,note_on,67,0,0,,,,,,,,,0,,,91,0
167267,note_on,0,0,1,,,,,,,,,0,,,51,0
167275,note_on,8,0,0,,,,,,,,,0,,,86,0
167280,set_tempo,5,1,0,,,,,,857143,,,,,,,
167280,note_on,0,0,0,,,,,,,,,0,,,76,127
167280,note_on,0,0,0,,,,,,,,,0,,,88,127
167355,note_on,75,0,0,,,,,,,,,0,,,76,0
167360,note_on,5,0,0,,,,,,,,,0,,,83,127
167387,note_on,0,0,1,,,,,,,,,0,,,62,0
167387,note_on,0,0,1,,,,,,,,,0,,,59,0
167387,note_on,120,0,1,,,,,,,,,0,,,56,0
167387,note_on,0,0,1,,,,,,,,,0,,,67,0
167400,note_on,0,0,1,,,,,,,,,0,,,59,127
167400,note_on,13,0,1,,,,,,,,,0,,,56,127
167400,note_on,0,0,1,,,,,,,,,0,,,64,127
167400,note_on,0,0,1,,,,,,,,,0,,,62,127
167435,note_on,75,0,0,,,,,,,,,0,,,83,0
167440,note_on,5,0,0,,,,,,,,,0,,,86,127
167507,note_on,67,0,0,,,,,,,,,0,,,88,0
167515,note_on,8,0,0,,,,,,,,,0,,,86,0
167520,set_tempo,5,1,0,,,,,,750000,,,,,,,
167520,note_on,0,0,0,,,,,,,,,0,,,89,127
167520,note_on,0,0,0,,,,,,,,,0,,,77,127
167595,note_on,75,0,0,,,,,,,,,0,,,77,0
167600,note_on,5,0,0,,,,,,,,,0,,,83,127
167627,note_on,0,0,1,,,,,,,,,0,,,59,0
167627,note_on,227,0,1,,,,,,,,,0,,,56,0
167627,note_on,0,0,1,,,,,,,,,0,,,62,0
167627,note_on,0,0,1,,,,,,,,,0,,,64,0
167640,note_on,0,0,1,,,,,,,,,0,,,62,127
167640,note_on,13,0,1,,,,,,,,,0,,,56,127
167640,note_on,0,0,1,,,,,,,,,0,,,65,127
167640,note_on,0,0,1,,,,,,,,,0,,,59,127
167675,note_on,75,0,0,,,,,,,,,0,,,83,0
167680,note_on,5,0,0,,,,,,,,,0,,,86,127
167747,note_on,67,0,0,,,,,,,,,0,,,89,0
167755,note_on,8,0,0,,,,,,,,,0,,,86,0
167760,note_on,0,0,0,,,,,,,,,0,,,91,127
167760,note_on,5,0,0,,,,,,,,,0,,,79,127
167835,note_on,75,0,0,,,,,,,,,0,,,79,0
167840,note_on,5,0,0,,,,,,,,,0,,,83,127
167867,note_on,0,0,1,,,,,,,,,0,,,59,0
167867,note_on,0,0,1,,,,,,,,,0,,,65,0
167867,note_on,0,0,1,,,,,,,,,0,,,62,0
167867,note_on,227,0,1,,,,,,,,,0,,,56,0
167880,note_on,13,0,1,,,,,,,,,0,,,56,127
167880,note_on,0,0,1,,,,,,,,,0,,,67,127
167880,note_on,0,0,1,,,,,,,,,0,,,62,127
167880,note_on,0,0,1,,,,,,,,,0,,,59,127
167915,note_on,75,0,0,,,,,,,,,0,,,83,0
167920,note_on,5,0,0,,,,,,,,,0,,,86,127
167987,note_on,67,0,0,,,,,,,,,0,,,91,0
167993,note_on,113,0,1,,,,,,,,,0,,,56,0
167993,note_on,0,0,1,,,,,,,,,0,,,59,0
167993,note_on,0,0,1,,,,,,,,,0,,,62,0
167993,note_on,0,0,1,,,,,,,,,0,,,67,0
167995,note_on,8,0,0,,,,,,,,,0,,,86,0
168000,set_tempo,5,1,0,,,,,,800000,,,,,,,
168000,note_on,0,0,0,,,,,,,,,0,,,92,127
168000,note_on,0,0,0,,,,,,,,,0,,,80,127
168000,note_on,7,0,1,,,,,,,,,0,,,39,127
168000,note_on,0,0,1,,,,,,,,,0,,,51,127
168001,control_change,1,0,1,,,,,,,64,0,0,,,,
168002,control_change,1,0,1,,,,,,,64,127,0,,,,
168075,note_on,75,0,0,,,,,,,,,0,,,80,0
168080,note_on,5,0,0,,,,,,,,,0,,,86,127
168120,note_on,0,0,1,,,,,,,,,0,,,62,127
168120,note_on,118,0,1,,,,,,,,,0,,,59,127
168120,note_on,0,0,1,,,,,,,,,0,,,65,127
168120,note_on,0,0,1,,,,,,,,,0,,,68,127
168155,note_on,75,0,0,,,,,,,,,0,,,86,0
168160,note_on,5,0,0,,,,,,,,,0,,,89,127
168227,note_on,67,0,0,,,,,,,,,0,,,92,0
168227,note_on,107,0,1,,,,,,,,,0,,,39,0
168227,note_on,0,0,1,,,,,,,,,0,,,51,0
168235,note_on,8,0,0,,,,,,,,,0,,,89,0
168240,set_tempo,5,1,0,,,,,,857143,,,,,,,
168240,note_on,0,0,0,,,,,,,,,0,,,93,127
168240,note_on,0,0,0,,,,,,,,,0,,,81,127
168315,note_on,75,0,0,,,,,,,,,0,,,81,0
168320,note_on,5,0,0,,,,,,,,,0,,,86,127
168347,note_on,0,0,1,,,,,,,,,0,,,62,0
168347,note_on,120,0,1,,,,,,,,,0,,,59,0
168347,note_on,0,0,1,,,,,,,,,0,,,65,0
168347,note_on,0,0,1,,,,,,,,,0,,,68,0
168360,note_on,13,0,1,,,,,,,,,0,,,59,127
168360,note_on,0,0,1,,,,,,,,,0,,,65,127
168360,note_on,0,0,1,,,,,,,,,0,,,69,127
168360,note_on,0,0,1,,,,,,,,,0,,,62,127
168395,note_on,75,0,0,,,,,,,,,0,,,86,0
168400,note_on,5,0,0,,,,,,,,,0,,,89,127
168467,note_on,67,0,0,,,,,,,,,0,,,93,0
168475,note_on,8,0,0,,,,,,,,,0,,,89,0
168480,note_on,0,0,0,,,,,,,,,0,,,96,127
168480,set_tempo,5,1,0,,,,,,923077,,,,,,,
168480,note_on,0,0,0,,,,,,,,,0,,,84,127
168555,note_on,75,0,0,,,,,,,,,0,,,84,0
168560,note_on,5,0,0,,,,,,,,,0,,,86,127
168587,note_on,227,0,1,,,,,,,,,0,,,59,0
168587,note_on,0,0,1,,,,,,,,,0,,,69,0
168587,note_on,0,0,1,,,,,,,,,0,,,65,0
168587,note_on,0,0,1,,,,,,,,,0,,,62,0
168600,note_on,13,0,1,,,,,,,,,0,,,58,127
168600,note_on,0,0,1,,,,,,,,,0,,,68,127
168600,note_on,0,0,1,,,,,,,,,0,,,65,127
168600,note_on,0,0,1,,,,,,,,,0,,,62,127
168600,note_on,0,0,1,,,,,,,,,0,,,72,127
168635,note_on,75,0,0,,,,,,,,,0,,,86,0
168640,note_on,5,0,0,,,,,,,,,0,,,89,127
168707,note_on,67,0,0,,,,,,,,,0,,,96,0
168715,note_on,8,0,0,,,,,,,,,0,,,89,0
168720,note_on,0,0,0,,,,,,,,,0,,,94,127
168720,note_on,0,0,0,,,,,,,,,0,,,82,127
168720,set_tempo,5,1,0,,,,,,1000000,,,,,,,
168795,note_on,75,0,0,,,,,,,,,0,,,82,0
168800,note_on,5,0,0,,,,,,,,,0,,,86,127
168827,note_on,0,0,1,,,,,,,,,0,,,72,0
168827,note_on,0,0,1,,,,,,,,,0,,,68,0
168827,note_on,227,0,1,,,,,,,,,0,,,58,0
168827,note_on,0,0,1,,,,,,,,,0,,,65,0
168827,note_on,0,0,1,,,,,,,,,0,,,62,0
168840,note_on,13,0,1,,,,,,,,,0,,,58,127
168840,note_on,0,0,1,,,,,,,,,0,,,68,127
168840,note_on,0,0,1,,,,,,,,,0,,,62,127
168840,note_on,0,0,1,,,,,,,,,0,,,70,127
168840,note_on,0,0,1,,,,,,,,,0,,,65,127
168875,note_on,75,0,0,,,,,,,,,0,,,86,0
168880,note_on,5,0,0,,,,,,,,,0,,,89,127
168947,note_on,67,0,0,,,,,,,,,0,,,94,0
168953,note_on,0,0,1,,,,,,,,,0,,,62,0
168953,note_on,0,0,1,,,,,,,,,0,,,68,0
168953,note_on,0,0,1,,,,,,,,,0,,,65,0
168953,note_on,113,0,1,,,,,,,,,0,,,58,0
168953,note_on,0,0,1,,,,,,,,,0,,,70,0
168955,note_on,8,0,0,,,,,,,,,0,,,89,0
168960,note_on,7,0,1,,,,,,,,,0,,,39,126
168960,note_on,0,0,0,,,,,,,,,0,,,79,126
168960,note_on,0,0,0,,,,,,,,,0,,,91,126
168960,note_on,0,0,1,,,,,,,,,0,,,51,126
168960,set_tempo,5,1,0,,,,,,857143,,,,,,,
168961,control_change,1,0,1,,,,,,,64,0,0,,,,
168962,control_change,1,0,1,,,,,,,64,127,0,,,,
169035,note_on,75,0,0,,,,,,,,,0,,,91,0
169040,note_on,5,0,0,,,,,,,,,0,,,82,126
169080,note_on,0,0,1,,,,,,,,,0,,,58,126
169080,note_on,118,0,1,,,,,,,,,0,,,55,126
169080,note_on,0,0,1,,,,,,,,,0,,,67,126
169115,note_on,75,0,0,,,,,,,,,0,,,82,0
169120,note_on,5,0,0,,,,,,,,,0,,,87,126
169187,note_on,67,0,0,,,,,,,,,0,,,79,0
169187,note_on,107,0,1,,,,,,,,,0,,,39,0
169187,note_on,0,0,1,,,,,,,,,0,,,51,0
169195,note_on,8,0,0,,,,,,,,,0,,,87,0
169200,note_on,0,0,0,,,,,,,,,0,,,77,126
169200,set_tempo,5,1,0,,,,,,800000,,,,,,,
169200,note_on,0,0,0,,,,,,,,,0,,,89,126
169275,note_on,75,0,0,,,,,,,,,0,,,89,0
169280,note_on,5,0,0,,,,,,,,,0,,,79,126
169307,note_on,0,0,1,,,,,,,,,0,,,58,0
169307,note_on,0,0,1,,,,,,,,,0,,,67,0
169307,note_on,120,0,1,,,,,,,,,0,,,55,0
169320,note_on,0,0,1,,,,,,,,,0,,,65,126
169320,note_on,13,0,1,,,,,,,,,0,,,55,126
169320,note_on,0,0,1,,,,,,,,,0,,,58,126
169355,note_on,75,0,0,,,,,,,,,0,,,79,0
169360,note_on,5,0,0,,,,,,,,,0,,,82,126
169427,note_on,67,0,0,,,,,,,,,0,,,77,0
169435,note_on,8,0,0,,,,,,,,,0,,,82,0
169440,note_on,0,0,0,,,,,,,,,0,,,87,126
169440,note_on,0,0,0,,,,,,,,,0,,,75,126
169440,set_tempo,5,1,0,,,,,,750000,,,,,,,
169515,note_on,75,0,0,,,,,,,,,0,,,87,0
169520,note_on,5,0,0,,,,,,,,,0,,,79,126
169547,note_on,227,0,1,,,,,,,,,0,,,55,0
169547,note_on,0,0,1,,,,,,,,,0,,,58,0
169547,note_on,0,0,1,,,,,,,,,0,,,65,0
169560,note_on,13,0,1,,,,,,,,,0,,,55,126
169560,note_on,0,0,1,,,,,,,,,0,,,58,126
169560,note_on,0,0,1,,,,,,,,,0,,,63,126
169595,note_on,75,0,0,,,,,,,,,0,,,79,0
169600,note_on,5,0,0,,,,,,,,,0,,,82,126
169667,note_on,67,0,0,,,,,,,,,0,,,75,0
169675,note_on,8,0,0,,,,,,,,,0,,,82,0
169680,note_on,5,0,0,,,,,,,,,0,,,86,126
169680,note_on,0,0,0,,,,,,,,,0,,,74,126
169755,note_on,75,0,0,,,,,,,,,0,,,86,0
169760,note_on,5,0,0,,,,,,,,,0,,,79,126
169787,note_on,0,0,1,,,,,,,,,0,,,63,0
169787,note_on,0,0,1,,,,,,,,,0,,,58,0
169787,note_on,227,0,1,,,,,,,,,0,,,55,0
169800,note_on,0,0,1,,,,,,,,,0,,,58,126
169800,note_on,13,0,1,,,,,,,,,0,,,55,126
169800,note_on,0,0,1,,,,,,,,,0,,,62,126
169835,note_on,75,0,0,,,,,,,,,0,,,79,0
169840,note_on,5,0,0,,,,,,,,,0,,,82,126
169907,note_on,67,0,0,,,,,,,,,0,,,74,0
169913,note_on,0,0,1,,,,,,,,,0,,,58,0
169913,note_on,113,0,1,,,,,,,,,0,,,55,0
169913,note_on,0,0,1,,,,,,,,,0,,,62,0
169915,note_on,8,0,0,,,,,,,,,0,,,82,0
169920,note_on,5,0,0,,,,,,,,,0,,,84,126
169920,note_on,0,0,1,,,,,,,,,0,,,51,126
169920,note_on,0,0,0,,,,,,,,,0,,,72,126
169920,note_on,7,0,1,,,,,,,,,0,,,39,126
169921,control_change,1,0,1,,,,,,,64,0,0,,,,
169922,control_change,1,0,1,,,,,,,64,127,0,,,,
169995,note_on,75,0,0,,,,,,,,,0,,,84,0
170000,note_on,5,0,0,,,,,,,,,0,,,75,126
170040,note_on,118,0,1,,,,,,,,,0,,,51,0
170040,note_on,0,0,1,,,,,,,,,0,,,60,126
170040,note_on,0,0,1,,,,,,,,,0,,,55,126
170040,note_on,0,0,1,,,,,,,,,0,,,51,126
170075,note_on,75,0,0,,,,,,,,,0,,,75,0
170080,note_on,5,0,0,,,,,,,,,0,,,79,126
170147,note_on,67,0,0,,,,,,,,,0,,,72,0
170147,note_on,107,0,1,,,,,,,,,0,,,39,0
170155,note_on,8,0,0,,,,,,,,,0,,,79,0
170160,note_on,0,0,0,,,,,,,,,0,,,69,126
170160,note_on,5,0,0,,,,,,,,,0,,,81,126
170235,note_on,75,0,0,,,,,,,,,0,,,81,0
170240,note_on,5,0,0,,,,,,,,,0,,,75,126
170267,note_on,0,0,1,,,,,,,,,0,,,60,0
170267,note_on,120,0,1,,,,,,,,,0,,,51,0
170267,note_on,0,0,1,,,,,,,,,0,,,55,0
170280,note_on,0,0,1,,,,,,,,,0,,,57,126
170280,note_on,0,0,1,,,,,,,,,0,,,55,126
170280,note_on,13,0,1,,,,,,,,,0,,,51,126
170315,note_on,75,0,0,,,,,,,,,0,,,75,0
170320,note_on,5,0,0,,,,,,,,,0,,,79,126
170387,note_on,67,0,0,,,,,,,,,0,,,69,0
170395,note_on,8,0,0,,,,,,,,,0,,,79,0
170400,note_on,5,0,0,,,,,,,,,0,,,82,126
170400,note_on,0,0,0,,,,,,,,,0,,,70,126
170475,note_on,75,0,0,,,,,,,,,0,,,82,0
170480,note_on,5,0,0,,,,,,,,,0,,,75,126
170507,note_on,227,0,1,,,,,,,,,0,,,51,0
170507,note_on,0,0,1,,,,,,,,,0,,,55,0
170507,note_on,0,0,1,,,,,,,,,0,,,57,0
170520,note_on,0,0,1,,,,,,,,,0,,,55,126
170520,note_on,0,0,1,,,,,,,,,0,,,58,126
170520,note_on,13,0,1,,,,,,,,,0,,,51,126
170555,note_on,75,0,0,,,,,,,,,0,,,75,0
170560,note_on,5,0,0,,,,,,,,,0,,,79,126
170627,note_on,67,0,0,,,,,,,,,0,,,70,0
170635,note_on,8,0,0,,,,,,,,,0,,,79,0
170640,set_tempo,5,1,0,,,,,,1000000,,,,,,,
170640,note_on,0,0,0,,,,,,,,,0,,,79,126
170640,note_on,0,0,0,,,,,,,,,0,,,91,126
170715,note_on,75,0,0,,,,,,,,,0,,,79,0
170720,note_on,5,0,0,,,,,,,,,0,,,82,126
170747,note_on,0,0,1,,,,,,,,,0,,,58,0
170747,note_on,0,0,1,,,,,,,,,0,,,55,0
170747,note_on,227,0,1,,,,,,,,,0,,,51,0
170760,note_on,0,0,1,,,,,,,,,0,,,63,126
170760,note_on,0,0,1,,,,,,,,,0,,,67,126
170760,note_on,13,0,1,,,,,,,,,0,,,55,126
170760,note_on,0,0,1,,,,,,,,,0,,,58,126
170795,note_on,75,0,0,,,,,,,,,0,,,82,0
170800,note_on,5,0,0,,,,,,,,,0,,,87,126
170867,note_on,67,0,0,,,,,,,,,0,,,91,0
170873,note_on,0,0,1,,,,,,,,,0,,,58,0
170873,note_on,0,0,1,,,,,,,,,0,,,63,0
170873,note_on,0,0,1,,,,,,,,,0,,,67,0
170873,note_on,113,0,1,,,,,,,,,0,,,55,0
170875,note_on,8,0,0,,,,,,,,,0,,,87,0
170880,note_on,7,0,1,,,,,,,,,0,,,38,126
170880,set_tempo,5,1,0,,,,,,857143,,,,,,,
170880,note_on,0,0,0,,,,,,,,,0,,,79,126
170880,note_on,0,0,0,,,,,,,,,0,,,91,126
170880,note_on,0,0,1,,,,,,,,,0,,,50,126
170881,control_change,1,0,1,,,,,,,64,0,0,,,,
170882,control_change,1,0,1,,,,,,,64,127,0,,,,
170955,note_on,75,0,0,,,,,,,,,0,,,79,0
170960,note_on,5,0,0,,,,,,,,,0,,,81,127
171000,note_on,118,0,1,,,,,,,,,0,,,57,127
171000,note_on,0,0,1,,,,,,,,,0,,,67,127
171000,note_on,0,0,1,,,,,,,,,0,,,60,127
171035,note_on,75,0,0,,,,,,,,,0,,,81,0
171040,note_on,5,0,0,,,,,,,,,0,,,84,127
171107,note_on,67,0,0,,,,,,,,,0,,,91,0
171107,note_on,0,0,1,,,,,,,,,0,,,50,0
171107,note_on,107,0,1,,,,,,,,,0,,,38,0
171115,note_on,8,0,0,,,,,,,,,0,,,84,0
171120,note_on,0,0,0,,,,,,,,,0,,,78,127
171120,note_on,0,0,0,,,,,,,,,0,,,90,127
171120,set_tempo,5,1,0,,,,,,800000,,,,,,,
171195,note_on,75,0,0,,,,,,,,,0,,,78,0
171200,note_on,5,0,0,,,,,,,,,0,,,81,127
171227,note_on,0,0,1,,,,,,,,,0,,,67,0
171227,note_on,0,0,1,,,,,,,,,0,,,60,0
171227,note_on,120,0,1,,,,,,,,,0,,,57,0
171240,note_on,0,0,1,,,,,,,,,0,,,66,127
171240,note_on,0,0,1,,,,,,,,,0,,,60,127
171240,note_on,13,0,1,,,,,,,,,0,,,57,127
171275,note_on,75,0,0,,,,,,,,,0,,,81,0
171280,note_on,5,0,0,,,,,,,,,0,,,84,127
171347,note_on,67,0,0,,,,,,,,,0,,,90,0
171355,note_on,8,0,0,,,,,,,,,0,,,84,0
171360,note_on,0,0,0,,,,,,,,,0,,,99,127
171360,note_on,0,0,0,,,,,,,,,0,,,87,127
171360,set_tempo,5,1,0,,,,,,750000,,,,,,,
171435,note_on,75,0,0,,,,,,,,,0,,,87,0
171440,note_on,5,0,0,,,,,,,,,0,,,90,127
171467,note_on,0,0,1,,,,,,,,,0,,,66,0
171467,note_on,227,0,1,,,,,,,,,0,,,57,0
171467,note_on,0,0,1,,,,,,,,,0,,,60,0
171480,note_on,13,0,1,,,,,,,,,0,,,66,127
171480,note_on,0,0,1,,,,,,,,,0,,,75,127
171480,note_on,0,0,1,,,,,,,,,0,,,69,127
171515,note_on,75,0,0,,,,,,,,,0,,,90,0
171519,note_on,4,0,0,,,,,,,,,0,,,99,0
171520,note_on,1,0,0,,,,,,,,,0,,,93,127
171595,note_on,75,0,0,,,,,,,,,0,,,93,0
171600,note_on,0,0,0,,,,,,,,,0,,,98,123
171600,note_on,5,0,0,,,,,,,,,0,,,86,123
171639,note_on,0,0,1,,,,,,,,,0,,,69,0
171639,note_on,0,0,1,,,,,,,,,0,,,75,0
171639,note_on,159,0,1,,,,,,,,,0,,,66,0
171675,note_on,75,0,0,,,,,,,,,0,,,86,0
171680,note_on,5,0,0,,,,,,,,,0,,,90,117
171720,note_on,0,0,1,,,,,,,,,0,,,69,114
171720,note_on,0,0,1,,,,,,,,,0,,,74,114
171720,note_on,81,0,1,,,,,,,,,0,,,66,114
171755,note_on,75,0,0,,,,,,,,,0,,,90,0
171760,note_on,5,0,0,,,,,,,,,0,,,93,111
171827,note_on,67,0,0,,,,,,,,,0,,,98,0
171833,note_on,0,0,1,,,,,,,,,0,,,74,0
171833,note_on,0,0,1,,,,,,,,,0,,,69,0
171833,note_on,113,0,1,,,,,,,,,0,,,66,0
171835,note_on,8,0,0,,,,,,,,,0,,,93,0
171840,note_on,0,0,0,,,,,,,,,0,,,98,111
171840,note_on,0,0,1,,,,,,,,,0,,,55,111
171840,note_on,5,0,0,,,,,,,,,0,,,86,111
171840,note_on,7,0,1,,,,,,,,,0,,,43,111
171841,control_change,1,0,1,,,,,,,64,0,0,,,,
171842,control_change,1,0,1,,,,,,,64,127,0,,,,
171915,note_on,75,0,0,,,,,,,,,0,,,86,0
171920,note_on,5,0,0,,,,,,,,,0,,,91,111
171960,note_on,0,0,1,,,,,,,,,0,,,71,111
171960,note_on,0,0,1,,,,,,,,,0,,,74,111
171960,note_on,118,0,1,,,,,,,,,0,,,67,111
171995,note_on,75,0,0,,,,,,,,,0,,,91,0
172000,note_on,5,0,0,,,,,,,,,0,,,95,111
172067,note_on,67,0,0,,,,,,,,,0,,,98,0
172067,note_on,0,0,1,,,,,,,,,0,,,55,0
172067,note_on,107,0,1,,,,,,,,,0,,,43,0
172075,note_on,8,0,0,,,,,,,,,0,,,95,0
172080,note_on,0,0,0,,,,,,,,,0,,,95,111
172080,note_on,5,0,0,,,,,,,,,0,,,83,111
172155,note_on,75,0,0,,,,,,,,,0,,,83,0
172160,note_on,5,0,0,,,,,,,,,0,,,86,111
172187,note_on,0,0,1,,,,,,,,,0,,,71,0
172187,note_on,0,0,1,,,,,,,,,0,,,74,0
172187,note_on,120,0,1,,,,,,,,,0,,,67,0
172200,note_on,0,0,1,,,,,,,,,0,,,71,111
172200,note_on,0,0,1,,,,,,,,,0,,,67,111
172200,note_on,13,0,1,,,,,,,,,0,,,62,111
172235,note_on,75,0,0,,,,,,,,,0,,,86,0
172240,note_on,5,0,0,,,,,,,,,0,,,91,111
172307,note_on,67,0,0,,,,,,,,,0,,,95,0
172315,note_on,8,0,0,,,,,,,,,0,,,91,0
172320,note_on,0,0,0,,,,,,,,,0,,,79,115
172320,set_tempo,5,1,0,,,,,,857143,,,,,,,
172320,note_on,0,0,0,,,,,,,,,0,,,91,115
172395,note_on,75,0,0,,,,,,,,,0,,,79,0
172400,note_on,5,0,0,,,,,,,,,0,,,83,119
172427,note_on,0,0,1,,,,,,,,,0,,,67,0
172427,note_on,227,0,1,,,,,,,,,0,,,62,0
172427,note_on,0,0,1,,,,,,,,,0,,,71,0
172440,note_on,0,0,1,,,,,,,,,0,,,62,121
172440,note_on,0,0,1,,,,,,,,,0,,,67,121
172440,note_on,13,0,1,,,,,,,,,0,,,59,121
172475,note_on,75,0,0,,,,,,,,,0,,,83,0
172480,note_on,5,0,0,,,,,,,,,0,,,86,123
172547,note_on,67,0,0,,,,,,,,,0,,,91,0
172555,note_on,8,0,0,,,,,,,,,0,,,86,0
172560,set_tempo,5,1,0,,,,,,1000000,,,,,,,
172560,note_on,0,0,0,,,,,,,,,0,,,91,127
172560,note_on,0,0,0,,,,,,,,,0,,,79,127
172635,note_on,75,0,0,,,,,,,,,0,,,79,0
172640,note_on,5,0,0,,,,,,,,,0,,,83,127
172667,note_on,0,0,1,,,,,,,,,0,,,67,0
172667,note_on,0,0,1,,,,,,,,,0,,,62,0
172667,note_on,227,0,1,,,,,,,,,0,,,59,0
172680,note_on,13,0,1,,,,,,,,,0,,,55,127
172680,note_on,0,0,1,,,,,,,,,0,,,67,127
172680,note_on,0,0,1,,,,,,,,,0,,,59,127
172680,note_on,0,0,1,,,,,,,,,0,,,62,127
172715,note_on,75,0,0,,,,,,,,,0,,,83,0
172720,note_on,5,0,0,,,,,,,,,0,,,86,127
172787,note_on,67,0,0,,,,,,,,,0,,,91,0
172793,note_on,113,0,1,,,,,,,,,0,,,55,0
172793,note_on,0,0,1,,,,,,,,,0,,,67,0
172793,note_on,0,0,1,,,,,,,,,0,,,59,0
172793,note_on,0,0,1,,,,,,,,,0,,,62,0
172795,note_on,8,0,0,,,,,,,,,0,,,86,0
172800,note_on,5,0,0,,,,,,,,,0,,,80,127
172800,note_on,7,0,1,,,,,,,,,0,,,43,127
172800,note_on,0,0,0,,,,,,,,,0,,,92,127
172801,control_change,1,0,1,,,,,,,64,0,0,,,,
172802,control_change,1,0,1,,,,,,,64,127,0,,,,
172875,note_on,75,0,0,,,,,,,,,0,,,80,0
172880,note_on,5,0,0,,,,,,,,,0,,,84,127
172920,note_on,118,0,1,,,,,,,,,0,,,60,127
172920,note_on,0,0,1,,,,,,,,,0,,,63,127
172920,note_on,0,0,1,,,,,,,,,0,,,68,127
172955,note_on,75,0,0,,,,,,,,,0,,,84,0
172959,note_on,4,0,0,,,,,,,,,0,,,92,0
172960,note_on,1,0,0,,,,,,,,,0,,,87,127
173027,note_on,107,0,1,,,,,,,,,0,,,43,0
173035,note_on,75,0,0,,,,,,,,,0,,,87,0
173040,note_on,0,0,0,,,,,,,,,0,,,79,127
173040,set_tempo,5,1,0,,,,,,857143,,,,,,,
173040,note_on,0,0,0,,,,,,,,,0,,,91,127
173115,note_on,75,0,0,,,,,,,,,0,,,79,0
173120,note_on,5,0,0,,,,,,,,,0,,,84,127
173147,note_on,0,0,1,,,,,,,,,0,,,63,0
173147,note_on,120,0,1,,,,,,,,,0,,,60,0
173147,note_on,0,0,1,,,,,,,,,0,,,68,0
173160,note_on,0,0,1,,,,,,,,,0,,,67,127
173160,note_on,13,0,1,,,,,,,,,0,,,60,127
173160,note_on,0,0,1,,,,,,,,,0,,,63,127
173195,note_on,75,0,0,,,,,,,,,0,,,84,0
173200,note_on,5,0,0,,,,,,,,,0,,,87,127
173267,note_on,67,0,0,,,,,,,,,0,,,91,0
173275,note_on,8,0,0,,,,,,,,,0,,,87,0
173280,set_tempo,5,1,0,,,,,,750000,,,,,,,
173280,note_on,0,0,0,,,,,,,,,0,,,89,127
173280,note_on,0,0,0,,,,,,,,,0,,,77,127
173355,note_on,75,0,0,,,,,,,,,0,,,77,0
173360,note_on,5,0,0,,,,,,,,,0,,,79,127
173387,note_on,0,0,1,,,,,,,,,0,,,63,0
173387,note_on,227,0,1,,,,,,,,,0,,,60,0
173387,note_on,0,0,1,,,,,,,,,0,,,67,0
173400,note_on,0,0,1,,,,,,,,,0,,,65,127
173400,note_on,13,0,1,,,,,,,,,0,,,55,127
173400,note_on,0,0,1,,,,,,,,,0,,,60,127
173435,note_on,75,0,0,,,,,,,,,0,,,79,0
173440,note_on,5,0,0,,,,,,,,,0,,,84,127
173507,note_on,67,0,0,,,,,,,,,0,,,89,0
173515,note_on,8,0,0,,,,,,,,,0,,,84,0
173520,note_on,0,0,0,,,,,,,,,0,,,87,127
173520,note_on,5,0,0,,,,,,,,,0,,,75,127
173595,note_on,75,0,0,,,,,,,,,0,,,75,0
173600,note_on,5,0,0,,,,,,,,,0,,,79,127
173627,note_on,227,0,1,,,,,,,,,0,,,55,0
173627,note_on,0,0,1,,,,,,,,,0,,,65,0
173627,note_on,0,0,1,,,,,,,,,0,,,60,0
173640,note_on,0,0,1,,,,,,,,,0,,,63,127
173640,note_on,13,0,1,,,,,,,,,0,,,55,127
173640,note_on,0,0,1,,,,,,,,,0,,,60,127
173675,note_on,75,0,0,,,,,,,,,0,,,79,0
173680,note_on,5,0,0,,,,,,,,,0,,,84,127
173747,note_on,67,0,0,,,,,,,,,0,,,87,0
173753,note_on,0,0,1,,,,,,,,,0,,,60,0
173753,note_on,0,0,1,,,,,,,,,0,,,63,0
173753,note_on,113,0,1,,,,,,,,,0,,,55,0
173755,note_on,8,0,0,,,,,,,,,0,,,84,0
173760,note_on,5,0,0,,,,,,,,,0,,,75,127
173760,note_on,7,0,1,,,,,,,,,0,,,41,127
173760,note_on,0,0,0,,,,,,,,,0,,,87,127
173761,control_change,1,0,1,,,,,,,64,0,0,,,,
173762,control_change,1,0,1,,,,,,,64,127,0,,,,
173835,note_on,75,0,0,,,,,,,,,0,,,75,0
173840,note_on,5,0,0,,,,,,,,,0,,,80,127
173880,note_on,0,0,1,,,,,,,,,0,,,63,127
173880,note_on,0,0,1,,,,,,,,,0,,,56,127
173880,note_on,118,0,1,,,,,,,,,0,,,53,127
173880,note_on,0,0,1,,,,,,,,,0,,,60,127
173915,note_on,75,0,0,,,,,,,,,0,,,80,0
173920,note_on,5,0,0,,,,,,,,,0,,,84,127
173987,note_on,67,0,0,,,,,,,,,0,,,87,0
173987,note_on,107,0,1,,,,,,,,,0,,,41,0
173995,note_on,8,0,0,,,,,,,,,0,,,84,0
174000,note_on,5,0,0,,,,,,,,,0,,,74,127
174000,note_on,0,0,0,,,,,,,,,0,,,86,127
174075,note_on,75,0,0,,,,,,,,,0,,,74,0
174080,note_on,5,0,0,,,,,,,,,0,,,80,127
174107,note_on,0,0,1,,,,,,,,,0,,,56,0
174107,note_on,120,0,1,,,,,,,,,0,,,53,0
174107,note_on,0,0,1,,,,,,,,,0,,,63,0
174107,note_on,0,0,1,,,,,,,,,0,,,60,0
174120,note_on,0,0,1,,,,,,,,,0,,,56,127
174120,note_on,13,0,1,,,,,,,,,0,,,53,127
174120,note_on,0,0,1,,,,,,,,,0,,,62,127
174120,note_on,0,0,1,,,,,,,,,0,,,60,127
174155,note_on,75,0,0,,,,,,,,,0,,,80,0
174160,note_on,5,0,0,,,,,,,,,0,,,84,127
174227,note_on,67,0,0,,,,,,,,,0,,,86,0
174235,note_on,8,0,0,,,,,,,,,0,,,84,0
174240,note_on,0,0,0,,,,,,,,,0,,,86,127
174240,note_on,5,0,0,,,,,,,,,0,,,74,127
174315,note_on,75,0,0,,,,,,,,,0,,,74,0
174320,note_on,5,0,0,,,,,,,,,0,,,80,126
174347,note_on,0,0,1,,,,,,,,,0,,,56,0
174347,note_on,0,0,1,,,,,,,,,0,,,60,0
174347,note_on,0,0,1,,,,,,,,,0,,,62,0
174347,note_on,227,0,1,,,,,,,,,0,,,53,0
174360,note_on,0,0,1,,,,,,,,,0,,,62,126
174360,note_on,13,0,1,,,,,,,,,0,,,56,126
174360,note_on,0,0,1,,,,,,,,,0,,,60,126
174395,note_on,75,0,0,,,,,,,,,0,,,80,0
174400,note_on,5,0,0,,,,,,,,,0,,,84,126
174467,note_on,67,0,0,,,,,,,,,0,,,86,0
174475,note_on,8,0,0,,,,,,,,,0,,,84,0
174480,note_on,0,0,0,,,,,,,,,0,,,86,126
174480,note_on,5,0,0,,,,,,,,,0,,,74,126
174555,note_on,75,0,0,,,,,,,,,0,,,74,0
174560,note_on,5,0,0,,,,,,,,,0,,,80,126
174587,note_on,0,0,1,,,,,,,,,0,,,60,0
174587,note_on,227,0,1,,,,,,,,,0,,,56,0
174587,note_on,0,0,1,,,,,,,,,0,,,62,0
174600,note_on,0,0,1,,,,,,,,,0,,,56,126
174600,note_on,0,0,1,,,,,,,,,0,,,60,126
174600,note_on,0,0,1,,,,,,,,,0,,,62,126
174600,note_on,13,0,1,,,,,,,,,0,,,53,126
174635,note_on,75,0,0,,,,,,,,,0,,,80,0
174640,note_on,5,0,0,,,,,,,,,0,,,84,126
174707,note_on,67,0,0,,,,,,,,,0,,,86,0
174713,note_on,0,0,1,,,,,,,,,0,,,56,0
174713,note_on,0,0,1,,,,,,,,,0,,,60,0
174713,note_on,113,0,1,,,,,,,,,0,,,53,0
174713,note_on,0,0,1,,,,,,,,,0,,,62,0
174715,note_on,8,0,0,,,,,,,,,0,,,84,0
174720,note_on,7,0,1,,,,,,,,,0,,,43,126
174720,note_on,0,0,0,,,,,,,,,0,,,87,127
174720,set_tempo,5,1,0,,,,,,857143,,,,,,,
174720,note_on,0,0,0,,,,,,,,,0,,,75,126
174721,control_change,1,0,1,,,,,,,64,0,0,,,,
174722,control_change,1,0,1,,,,,,,64,127,0,,,,
174795,note_on,75,0,0,,,,,,,,,0,,,75,0
174800,note_on,5,0,0,,,,,,,,,0,,,79,126
174840,note_on,118,0,1,,,,,,,,,0,,,55,126
174840,note_on,0,0,1,,,,,,,,,0,,,59,126
174840,note_on,0,0,1,,,,,,,,,0,,,63,126
174875,note_on,75,0,0,,,,,,,,,0,,,79,0
174879,note_on,4,0,0,,,,,,,,,0,,,87,0
174880,note_on,1,0,0,,,,,,,,,0,,,83,126
174947,note_on,107,0,1,,,,,,,,,0,,,43,0
174955,note_on,75,0,0,,,,,,,,,0,,,83,0
174960,note_on,0,0,0,,,,,,,,,0,,,74,126
174960,note_on,0,0,0,,,,,,,,,0,,,86,126
174960,set_tempo,5,1,0,,,,,,750000,,,,,,,
175035,note_on,75,0,0,,,,,,,,,0,,,74,0
175040,note_on,5,0,0,,,,,,,,,0,,,79,126
175067,note_on,0,0,1,,,,,,,,,0,,,59,0
175067,note_on,0,0,1,,,,,,,,,0,,,63,0
175067,note_on,120,0,1,,,,,,,,,0,,,55,0
175080,note_on,13,0,1,,,,,,,,,0,,,55,126
175080,note_on,0,0,1,,,,,,,,,0,,,59,126
175080,note_on,0,0,1,,,,,,,,,0,,,62,126
175115,note_on,75,0,0,,,,,,,,,0,,,79,0
175120,note_on,5,0,0,,,,,,,,,0,,,83,126
175187,note_on,67,0,0,,,,,,,,,0,,,86,0
175195,note_on,8,0,0,,,,,,,,,0,,,83,0
175200,note_on,5,0,0,,,,,,,,,0,,,72,126
175200,note_on,0,0,0,,,,,,,,,0,,,84,126
175275,note_on,75,0,0,,,,,,,,,0,,,72,0
175280,note_on,5,0,0,,,,,,,,,0,,,74,126
175307,note_on,227,0,1,,,,,,,,,0,,,55,0
175307,note_on,0,0,1,,,,,,,,,0,,,62,0
175307,note_on,0,0,1,,,,,,,,,0,,,59,0
175320,note_on,0,0,1,,,,,,,,,0,,,55,126
175320,note_on,0,0,1,,,,,,,,,0,,,60,126
175320,note_on,13,0,1,,,,,,,,,0,,,50,126
175355,note_on,75,0,0,,,,,,,,,0,,,74,0
175360,note_on,5,0,0,,,,,,,,,0,,,79,126
175427,note_on,67,0,0,,,,,,,,,0,,,84,0
175435,note_on,8,0,0,,,,,,,,,0,,,79,0
175440,note_on,0,0,0,,,,,,,,,0,,,83,126
175440,note_on,5,0,0,,,,,,,,,0,,,71,126
175515,note_on,75,0,0,,,,,,,,,0,,,71,0
175520,note_on,5,0,0,,,,,,,,,0,,,74,126
175547,note_on,227,0,1,,,,,,,,,0,,,50,0
175547,note_on,0,0,1,,,,,,,,,0,,,60,0
175547,note_on,0,0,1,,,,,,,,,0,,,55,0
175560,note_on,0,0,1,,,,,,,,,0,,,55,126
175560,note_on,13,0,1,,,,,,,,,0,,,50,126
175560,note_on,0,0,1,,,,,,,,,0,,,59,126
175595,note_on,75,0,0,,,,,,,,,0,,,74,0
175600,note_on,5,0,0,,,,,,,,,0,,,79,126
175667,note_on,67,0,0,,,,,,,,,0,,,83,0
175673,note_on,0,0,1,,,,,,,,,0,,,55,0
175673,note_on,0,0,1,,,,,,,,,0,,,59,0
175673,note_on,113,0,1,,,,,,,,,0,,,50,0
175675,note_on,8,0,0,,,,,,,,,0,,,79,0
175680,note_on,5,0,0,,,,,,,,,0,,,68,126
175680,note_on,0,0,0,,,,,,,,,0,,,80,126
175681,control_change,8,0,1,,,,,,,64,0,0,,,,
175682,control_change,1,0,1,,,,,,,64,127,0,,,,
175755,note_on,75,0,0,,,,,,,,,0,,,68,0
175760,note_on,5,0,0,,,,,,,,,0,,,71,124
175800,note_on,0,0,1,,,,,,,,,0,,,50,123
175800,note_on,0,0,1,,,,,,,,,0,,,56,123
175800,note_on,118,0,1,,,,,,,,,0,,,47,123
175835,note_on,75,0,0,,,,,,,,,0,,,71,0
175840,note_on,5,0,0,,,,,,,,,0,,,74,121
175907,note_on,67,0,0,,,,,,,,,0,,,80,0
175915,note_on,8,0,0,,,,,,,,,0,,,74,0
175920,note_on,0,0,0,,,,,,,,,0,,,79,119
175920,note_on,5,0,0,,,,,,,,,0,,,67,119
175995,note_on,75,0,0,,,,,,,,,0,,,67,0
176000,note_on,5,0,0,,,,,,,,,0,,,71,116
176027,note_on,227,0,1,,,,,,,,,0,,,47,0
176027,note_on,0,0,1,,,,,,,,,0,,,56,0
176027,note_on,0,0,1,,,,,,,,,0,,,50,0
176040,note_on,13,0,1,,,,,,,,,0,,,47,115
176040,note_on,0,0,1,,,,,,,,,0,,,55,115
176040,note_on,0,0,1,,,,,,,,,0,,,50,115
176075,note_on,75,0,0,,,,,,,,,0,,,71,0
176080,note_on,5,0,0,,,,,,,,,0,,,74,114
176147,note_on,67,0,0,,,,,,,,,0,,,79,0
176155,note_on,8,0,0,,,,,,,,,0,,,74,0
176160,note_on,0,0,0,,,,,,,,,0,,,79,111
176160,set_tempo,5,1,0,,,,,,857140,,,,,,,
176160,note_on,0,0,0,,,,,,,,,0,,,67,111
176235,note_on,75,0,0,,,,,,,,,0,,,67,0
176240,note_on,5,0,0,,,,,,,,,0,,,71,111
176267,note_on,0,0,1,,,,,,,,,0,,,55,0
176267,note_on,0,0,1,,,,,,,,,0,,,50,0
176267,note_on,227,0,1,,,,,,,,,0,,,47,0
176280,note_on,0,0,1,,,,,,,,,0,,,50,111
176280,note_on,13,0,1,,,,,,,,,0,,,47,111
176280,note_on,0,0,1,,,,,,,,,0,,,55,111
176315,note_on,75,0,0,,,,,,,,,0,,,71,0
176320,note_on,5,0,0,,,,,,,,,0,,,74,111
176387,note_on,67,0,0,,,,,,,,,0,,,79,0
176395,note_on,8,0,0,,,,,,,,,0,,,74,0
176400,note_on,0,0,0,,,,,,,,,0,,,67,111
176400,note_on,0,0,0,,,,,,,,,0,,,79,111
176400,set_tempo,5,1,0,,,,,,1000000,,,,,,,
176475,note_on,75,0,0,,,,,,,,,0,,,67,0
176480,note_on,5,0,0,,,,,,,,,0,,,71,111
176507,note_on,0,0,1,,,,,,,,,0,,,55,0
176507,note_on,0,0,1,,,,,,,,,0,,,50,0
176507,note_on,227,0,1,,,,,,,,,0,,,47,0
176520,note_on,0,0,1,,,,,,,,,0,,,50,111
176520,note_on,0,0,1,,,,,,,,,0,,,55,111
176520,note_on,13,0,1,,,,,,,,,0,,,47,111
176555,note_on,75,0,0,,,,,,,,,0,,,71,0
176560,note_on,5,0,0,,,,,,,,,0,,,74,111
176627,note_on,67,0,0,,,,,,,,,0,,,79,0
176633,note_on,113,0,1,,,,,,,,,0,,,47,0
176633,note_on,0,0,1,,,,,,,,,0,,,50,0
176633,note_on,0,0,1,,,,,,,,,0,,,55,0
176635,note_on,8,0,0,,,,,,,,,0,,,74,0
176640,set_tempo,5,1,0,,,,,,750002,,,,,,,
176640,note_on,0,0,0,,,,,,,,,0,,,70,111
176640,note_on,0,0,0,,,,,,,,,0,,,82,127
176640,note_on,7,0,1,,,,,,,,,0,,,31,111
176641,control_change,1,0,1,,,,,,,64,0,0,,,,
176642,control_change,1,0,1,,,,,,,64,127,0,,,,
176715,note_on,75,0,0,,,,,,,,,0,,,70,0
176720,note_on,5,0,0,,,,,,,,,0,,,72,111
176760,note_on,118,0,1,,,,,,,,,0,,,48,110
176760,note_on,0,0,1,,,,,,,,,0,,,51,110
176760,note_on,0,0,1,,,,,,,,,0,,,58,110
176795,note_on,75,0,0,,,,,,,,,0,,,72,0
176799,note_on,4,0,0,,,,,,,,,0,,,82,0
176800,note_on,1,0,0,,,,,,,,,0,,,75,110
176867,note_on,107,0,1,,,,,,,,,0,,,31,0
176875,note_on,75,0,0,,,,,,,,,0,,,75,0
176880,note_on,0,0,0,,,,,,,,,0,,,80,109
176880,note_on,5,0,0,,,,,,,,,0,,,68,109
176955,note_on,75,0,0,,,,,,,,,0,,,68,0
176960,note_on,5,0,0,,,,,,,,,0,,,72,108
176987,note_on,0,0,1,,,,,,,,,0,,,51,0
176987,note_on,0,0,1,,,,,,,,,0,,,58,0
176987,note_on,120,0,1,,,,,,,,,0,,,48,0
177000,note_on,13,0,1,,,,,,,,,0,,,48,108
177000,note_on,0,0,1,,,,,,,,,0,,,51,108
177000,note_on,0,0,1,,,,,,,,,0,,,56,108
177035,note_on,75,0,0,,,,,,,,,0,,,72,0
177040,note_on,5,0,0,,,,,,,,,0,,,75,107
177107,note_on,67,0,0,,,,,,,,,0,,,80,0
177115,note_on,8,0,0,,,,,,,,,0,,,75,0
177120,note_on,0,0,0,,,,,,,,,0,,,79,106
177120,note_on,5,0,0,,,,,,,,,0,,,67,106
177195,note_on,75,0,0,,,,,,,,,0,,,67,0
177200,note_on,5,0,0,,,,,,,,,0,,,72,106
177227,note_on,0,0,1,,,,,,,,,0,,,51,0
177227,note_on,227,0,1,,,,,,,,,0,,,48,0
177227,note_on,0,0,1,,,,,,,,,0,,,56,0
177240,note_on,0,0,1,,,,,,,,,0,,,55,105
177240,note_on,0,0,1,,,,,,,,,0,,,51,105
177240,note_on,0,0,1,,,,,,,,,0,,,48,105
177240,note_on,13,0,1,,,,,,,,,0,,,43,105
177275,note_on,75,0,0,,,,,,,,,0,,,72,0
177280,note_on,5,0,0,,,,,,,,,0,,,75,105
177347,note_on,67,0,0,,,,,,,,,0,,,79,0
177355,note_on,8,0,0,,,,,,,,,0,,,75,0
177360,note_on,0,0,0,,,,,,,,,0,,,77,104
177360,note_on,5,0,0,,,,,,,,,0,,,65,104
177435,note_on,75,0,0,,,,,,,,,0,,,65,0
177440,note_on,5,0,0,,,,,,,,,0,,,67,103
177467,note_on,0,0,1,,,,,,,,,0,,,55,0
177467,note_on,0,0,1,,,,,,,,,0,,,51,0
177467,note_on,0,0,1,,,,,,,,,0,,,48,0
177467,note_on,227,0,1,,,,,,,,,0,,,43,0
177480,note_on,0,0,1,,,,,,,,,0,,,48,103
177480,note_on,0,0,1,,,,,,,,,0,,,53,103
177480,note_on,13,0,1,,,,,,,,,0,,,43,103
177515,note_on,75,0,0,,,,,,,,,0,,,67,0
177520,note_on,5,0,0,,,,,,,,,0,,,72,102
177587,note_on,67,0,0,,,,,,,,,0,,,77,0
177593,note_on,113,0,1,,,,,,,,,0,,,43,0
177593,note_on,0,0,1,,,,,,,,,0,,,48,0
177593,note_on,0,0,1,,,,,,,,,0,,,53,0
177595,note_on,8,0,0,,,,,,,,,0,,,72,0
177600,note_on,5,0,0,,,,,,,,,0,,,63,101
177600,note_on,0,0,0,,,,,,,,,0,,,75,101
177600,note_on,7,0,1,,,,,,,,,0,,,29,101
177601,control_change,1,0,1,,,,,,,64,0,0,,,,
177602,control_change,1,0,1,,,,,,,64,127,0,,,,
177675,note_on,75,0,0,,,,,,,,,0,,,63,0
177680,note_on,5,0,0,,,,,,,,,0,,,68,100
177720,note_on,118,0,1,,,,,,,,,0,,,41,100
177720,note_on,0,0,1,,,,,,,,,0,,,44,100
177720,note_on,0,0,1,,,,,,,,,0,,,48,100
177720,note_on,0,0,1,,,,,,,,,0,,,51,100
177755,note_on,75,0,0,,,,,,,,,0,,,68,0
177760,note_on,5,0,0,,,,,,,,,0,,,72,100
177827,note_on,107,0,1,,,,,,,,,0,,,29,0
177827,note_on,67,0,0,,,,,,,,,0,,,75,0
177835,note_on,8,0,0,,,,,,,,,0,,,72,0
177840,note_on,0,0,0,,,,,,,,,0,,,74,99
177840,note_on,5,0,0,,,,,,,,,0,,,62,99
177915,note_on,75,0,0,,,,,,,,,0,,,62,0
177920,note_on,5,0,0,,,,,,,,,0,,,68,98
177947,note_on,120,0,1,,,,,,,,,0,,,41,0
177947,note_on,0,0,1,,,,,,,,,0,,,51,0
177947,note_on,0,0,1,,,,,,,,,0,,,48,0
177947,note_on,0,0,1,,,,,,,,,0,,,44,0
177960,note_on,0,0,1,,,,,,,,,0,,,48,97
177960,note_on,13,0,1,,,,,,,,,0,,,41,97
177960,note_on,0,0,1,,,,,,,,,0,,,44,97
177960,note_on,0,0,1,,,,,,,,,0,,,50,97
177995,note_on,75,0,0,,,,,,,,,0,,,68,0
178000,note_on,5,0,0,,,,,,,,,0,,,72,97
178067,note_on,67,0,0,,,,,,,,,0,,,74,0
178075,note_on,8,0,0,,,,,,,,,0,,,72,0
178080,note_on,5,0,0,,,,,,,,,0,,,62,96
178080,note_on,0,0,0,,,,,,,,,0,,,74,96
178155,note_on,75,0,0,,,,,,,,,0,,,62,0
178160,note_on,5,0,0,,,,,,,,,0,,,68,95
178187,note_on,0,0,1,,,,,,,,,0,,,50,0
178187,note_on,227,0,1,,,,,,,,,0,,,41,0
178187,note_on,0,0,1,,,,,,,,,0,,,44,0
178187,note_on,0,0,1,,,,,,,,,0,,,48,0
178200,note_on,0,0,1,,,,,,,,,0,,,48,95
178200,note_on,13,0,1,,,,,,,,,0,,,44,95
178200,note_on,0,0,1,,,,,,,,,0,,,50,95
178235,note_on,75,0,0,,,,,,,,,0,,,68,0
178240,note_on,5,0,0,,,,,,,,,0,,,72,94
178307,note_on,67,0,0,,,,,,,,,0,,,74,0
178315,note_on,8,0,0,,,,,,,,,0,,,72,0
178320,note_on,0,0,0,,,,,,,,,0,,,62,94
178320,set_tempo,5,1,0,,,,,,857143,,,,,,,
178320,note_on,0,0,0,,,,,,,,,0,,,74,94
178395,note_on,75,0,0,,,,,,,,,0,,,62,0
178400,note_on,5,0,0,,,,,,,,,0,,,68,93
178427,note_on,227,0,1,,,,,,,,,0,,,44,0
178427,note_on,0,0,1,,,,,,,,,0,,,48,0
178427,note_on,0,0,1,,,,,,,,,0,,,50,0
178440,note_on,0,0,1,,,,,,,,,0,,,44,92
178440,note_on,13,0,1,,,,,,,,,0,,,41,92
178440,note_on,0,0,1,,,,,,,,,0,,,48,92
178440,note_on,0,0,1,,,,,,,,,0,,,50,92
178475,note_on,75,0,0,,,,,,,,,0,,,68,0
178480,note_on,5,0,0,,,,,,,,,0,,,72,92
178547,note_on,67,0,0,,,,,,,,,0,,,74,0
178553,note_on,113,0,1,,,,,,,,,0,,,41,0
178553,note_on,0,0,1,,,,,,,,,0,,,50,0
178553,note_on,0,0,1,,,,,,,,,0,,,48,0
178553,note_on,0,0,1,,,,,,,,,0,,,44,0
178555,note_on,8,0,0,,,,,,,,,0,,,72,0
178560,set_tempo,5,1,0,,,,,,750000,,,,,,,
178560,note_on,0,0,0,,,,,,,,,0,,,63,91
178560,note_on,0,0,0,,,,,,,,,0,,,75,91
178560,note_on,7,0,1,,,,,,,,,0,,,31,91
178561,control_change,1,0,1,,,,,,,64,0,0,,,,
178562,control_change,1,0,1,,,,,,,64,127,0,,,,
178635,note_on,75,0,0,,,,,,,,,0,,,63,0
178640,note_on,5,0,0,,,,,,,,,0,,,67,90
178680,note_on,0,0,1,,,,,,,,,0,,,47,90
178680,note_on,0,0,1,,,,,,,,,0,,,51,90
178680,note_on,118,0,1,,,,,,,,,0,,,43,90
178715,note_on,75,0,0,,,,,,,,,0,,,67,0
178720,note_on,5,0,0,,,,,,,,,0,,,71,89
178787,note_on,107,0,1,,,,,,,,,0,,,31,0
178787,note_on,67,0,0,,,,,,,,,0,,,75,0
178795,note_on,8,0,0,,,,,,,,,0,,,71,0
178800,note_on,5,0,0,,,,,,,,,0,,,62,88
178800,note_on,0,0,0,,,,,,,,,0,,,74,88
178875,note_on,75,0,0,,,,,,,,,0,,,62,0
178880,note_on,5,0,0,,,,,,,,,0,,,67,88
178907,note_on,0,0,1,,,,,,,,,0,,,47,0
178907,note_on,0,0,1,,,,,,,,,0,,,51,0
178907,note_on,120,0,1,,,,,,,,,0,,,43,0
178920,note_on,13,0,1,,,,,,,,,0,,,43,87
178920,note_on,0,0,1,,,,,,,,,0,,,50,87
178920,note_on,0,0,1,,,,,,,,,0,,,47,87
178955,note_on,75,0,0,,,,,,,,,0,,,67,0
178960,note_on,5,0,0,,,,,,,,,0,,,71,87
179027,note_on,67,0,0,,,,,,,,,0,,,74,0
179035,note_on,8,0,0,,,,,,,,,0,,,71,0
179040,note_on,0,0,0,,,,,,,,,0,,,72,86
179040,note_on,5,0,0,,,,,,,,,0,,,60,86
179115,note_on,75,0,0,,,,,,,,,0,,,60,0
179120,note_on,5,0,0,,,,,,,,,0,,,63,85
179147,note_on,0,0,1,,,,,,,,,0,,,47,0
179147,note_on,0,0,1,,,,,,,,,0,,,50,0
179147,note_on,227,0,1,,,,,,,,,0,,,43,0
179160,note_on,13,0,1,,,,,,,,,0,,,51,85
179160,note_on,0,0,1,,,,,,,,,0,,,55,85
179195,note_on,75,0,0,,,,,,,,,0,,,63,0
179200,note_on,5,0,0,,,,,,,,,0,,,67,84
179267,note_on,67,0,0,,,,,,,,,0,,,72,0
179275,note_on,8,0,0,,,,,,,,,0,,,67,0
179280,note_on,5,0,0,,,,,,,,,0,,,59,83
179280,note_on,0,0,0,,,,,,,,,0,,,71,83
179355,note_on,75,0,0,,,,,,,,,0,,,59,0
179360,note_on,5,0,0,,,,,,,,,0,,,62,82
179387,note_on,227,0,1,,,,,,,,,0,,,51,0
179387,note_on,0,0,1,,,,,,,,,0,,,55,0
179400,note_on,0,0,1,,,,,,,,,0,,,55,82
179400,note_on,13,0,1,,,,,,,,,0,,,50,82
179435,note_on,75,0,0,,,,,,,,,0,,,62,0
179440,note_on,5,0,0,,,,,,,,,0,,,67,82
179507,note_on,67,0,0,,,,,,,,,0,,,71,0
179513,note_on,113,0,1,,,,,,,,,0,,,50,0
179513,note_on,0,0,1,,,,,,,,,0,,,55,0
179515,note_on,8,0,0,,,,,,,,,0,,,67,0
179520,note_on,0,0,0,,,,,,,,,0,,,58,81
179520,set_tempo,5,1,0,,,,,,800000,,,,,,,
179520,note_on,7,0,1,,,,,,,,,0,,,37,81
179520,note_on,0,0,0,,,,,,,,,0,,,70,81
179521,control_change,1,0,1,,,,,,,64,0,0,,,,
179522,control_change,1,0,1,,,,,,,64,127,0,,,,
179595,note_on,75,0,0,,,,,,,,,0,,,58,0
179600,note_on,5,0,0,,,,,,,,,0,,,61,80
179640,note_on,118,0,1,,,,,,,,,0,,,49,79
179640,note_on,0,0,1,,,,,,,,,0,,,53,79
179675,note_on,75,0,0,,,,,,,,,0,,,61,0
179680,note_on,5,0,0,,,,,,,,,0,,,65,79
179747,note_on,107,0,1,,,,,,,,,0,,,37,0
179747,note_on,67,0,0,,,,,,,,,0,,,70,0
179755,note_on,8,0,0,,,,,,,,,0,,,65,0
179760,note_on,0,0,0,,,,,,,,,0,,,56,78
179760,set_tempo,5,1,0,,,,,,857143,,,,,,,
179760,note_on,0,0,0,,,,,,,,,0,,,68,78
179835,note_on,75,0,0,,,,,,,,,0,,,56,0
179840,note_on,5,0,0,,,,,,,,,0,,,61,77
179867,note_on,0,0,1,,,,,,,,,0,,,53,0
179867,note_on,120,0,1,,,,,,,,,0,,,49,0
179880,note_on,0,0,1,,,,,,,,,0,,,53,77
179880,note_on,13,0,1,,,,,,,,,0,,,49,77
179915,note_on,75,0,0,,,,,,,,,0,,,61,0
179920,note_on,5,0,0,,,,,,,,,0,,,65,76
179987,note_on,67,0,0,,,,,,,,,0,,,68,0
179993,note_on,0,0,1,,,,,,,,,0,,,53,0
179993,note_on,113,0,1,,,,,,,,,0,,,49,0
179995,note_on,8,0,0,,,,,,,,,0,,,65,0
180000,note_on,0,0,0,,,,,,,,,0,,,67,76
180000,note_on,0,0,0,,,,,,,,,0,,,55,76
180000,set_tempo,5,1,0,,,,,,923077,,,,,,,
180075,note_on,75,0,0,,,,,,,,,0,,,55,0
180080,note_on,5,0,0,,,,,,,,,0,,,56,75
180120,note_on,0,0,1,,,,,,,,,0,,,44,74
180120,note_on,127,0,1,,,,,,,,,0,,,40,74
180120,note_on,0,0,1,,,,,,,,,0,,,49,74
180155,note_on,75,0,0,,,,,,,,,0,,,56,0
180160,note_on,5,0,0,,,,,,,,,0,,,61,74
180227,note_on,67,0,0,,,,,,,,,0,,,67,0
180235,note_on,8,0,0,,,,,,,,,0,,,61,0
180240,note_on,0,0,0,,,,,,,,,0,,,53,73
180240,note_on,0,0,0,,,,,,,,,0,,,65,73
180240,set_tempo,5,1,0,,,,,,1000000,,,,,,,
180315,note_on,75,0,0,,,,,,,,,0,,,53,0
180320,note_on,5,0,0,,,,,,,,,0,,,56,72
180347,note_on,0,0,1,,,,,,,,,0,,,49,0
180347,note_on,227,0,1,,,,,,,,,0,,,40,0
180347,note_on,0,0,1,,,,,,,,,0,,,44,0
180360,note_on,0,0,1,,,,,,,,,0,,,44,72
180360,note_on,0,0,1,,,,,,,,,0,,,49,72
180360,note_on,13,0,1,,,,,,,,,0,,,41,72
180395,note_on,75,0,0,,,,,,,,,0,,,56,0
180400,note_on,5,0,0,,,,,,,,,0,,,61,71
180467,note_on,67,0,0,,,,,,,,,0,,,65,0
180473,note_on,0,0,1,,,,,,,,,0,,,44,0
180473,note_on,113,0,1,,,,,,,,,0,,,41,0
180473,note_on,0,0,1,,,,,,,,,0,,,49,0
180475,note_on,8,0,0,,,,,,,,,0,,,61,0
180480,note_on,7,0,1,,,,,,,,,0,,,31,70
180480,note_on,5,0,0,,,,,,,,,0,,,63,70
180480,note_on,0,0,0,,,,,,,,,0,,,75,70
180481,control_change,1,0,1,,,,,,,64,0,0,,,,
180482,control_change,1,0,1,,,,,,,64,127,0,,,,
180555,note_on,75,0,0,,,,,,,,,0,,,63,0
180560,note_on,5,0,0,,,,,,,,,0,,,67,70
180600,note_on,0,0,1,,,,,,,,,0,,,47,70
180600,note_on,0,0,1,,,,,,,,,0,,,51,70
180600,note_on,118,0,1,,,,,,,,,0,,,43,70
180635,note_on,75,0,0,,,,,,,,,0,,,67,0
180640,note_on,5,0,0,,,,,,,,,0,,,71,70
180707,note_on,67,0,0,,,,,,,,,0,,,75,0
180707,note_on,107,0,1,,,,,,,,,0,,,31,0
180715,note_on,8,0,0,,,,,,,,,0,,,71,0
180720,note_on,5,0,0,,,,,,,,,0,,,62,69
180720,note_on,0,0,0,,,,,,,,,0,,,74,69
180795,note_on,75,0,0,,,,,,,,,0,,,62,0
180800,note_on,5,0,0,,,,,,,,,0,,,67,69
180827,note_on,120,0,1,,,,,,,,,0,,,43,0
180827,note_on,0,0,1,,,,,,,,,0,,,47,0
180827,note_on,0,0,1,,,,,,,,,0,,,51,0
180840,note_on,13,0,1,,,,,,,,,0,,,43,69
180840,note_on,0,0,1,,,,,,,,,0,,,47,69
180840,note_on,0,0,1,,,,,,,,,0,,,50,69
180875,note_on,75,0,0,,,,,,,,,0,,,67,0
180880,note_on,5,0,0,,,,,,,,,0,,,71,68
180947,note_on,67,0,0,,,,,,,,,0,,,74,0
180955,note_on,8,0,0,,,,,,,,,0,,,71,0
180960,note_on,0,0,0,,,,,,,,,0,,,72,68
180960,set_tempo,5,1,0,,,,,,1090909,,,,,,,
180960,note_on,0,0,0,,,,,,,,,0,,,60,68
181035,note_on,75,0,0,,,,,,,,,0,,,60,0
181040,note_on,5,0,0,,,,,,,,,0,,,63,68
181067,note_on,0,0,1,,,,,,,,,0,,,47,0
181067,note_on,227,0,1,,,,,,,,,0,,,43,0
181067,note_on,0,0,1,,,,,,,,,0,,,50,0
181080,note_on,0,0,1,,,,,,,,,0,,,55,67
181080,note_on,13,0,1,,,,,,,,,0,,,51,67
181115,note_on,75,0,0,,,,,,,,,0,,,63,0
181120,note_on,5,0,0,,,,,,,,,0,,,67,67
181187,note_on,67,0,0,,,,,,,,,0,,,72,0
181195,note_on,8,0,0,,,,,,,,,0,,,67,0
181200,note_on,0,0,0,,,,,,,,,0,,,59,67
181200,note_on,0,0,0,,,,,,,,,0,,,71,67
181200,set_tempo,5,1,0,,,,,,1200000,,,,,,,
181275,note_on,75,0,0,,,,,,,,,0,,,59,0
181280,note_on,5,0,0,,,,,,,,,0,,,62,66
181307,note_on,0,0,1,,,,,,,,,0,,,55,0
181307,note_on,227,0,1,,,,,,,,,0,,,51,0
181320,note_on,0,0,1,,,,,,,,,0,,,55,66
181320,note_on,13,0,1,,,,,,,,,0,,,50,66
181355,note_on,75,0,0,,,,,,,,,0,,,62,0
181360,note_on,5,0,0,,,,,,,,,0,,,67,66
181427,note_on,67,0,0,,,,,,,,,0,,,71,0
181433,note_on,0,0,1,,,,,,,,,0,,,55,0
181433,note_on,113,0,1,,,,,,,,,0,,,50,0
181435,note_on,8,0,0,,,,,,,,,0,,,67,0
181440,note_on,7,0,1,,,,,,,,,0,,,37,65
181440,note_on,0,0,0,,,,,,,,,0,,,70,65
181440,note_on,5,0,0,,,,,,,,,0,,,58,65
181441,control_change,1,0,1,,,,,,,64,0,0,,,,
181442,control_change,1,0,1,,,,,,,64,127,0,,,,
181515,note_on,75,0,0,,,,,,,,,0,,,58,0
181520,note_on,5,0,0,,,,,,,,,0,,,61,65
181560,note_on,0,0,1,,,,,,,,,0,,,53,65
181560,note_on,118,0,1,,,,,,,,,0,,,49,65
181595,note_on,75,0,0,,,,,,,,,0,,,61,0
181600,note_on,5,0,0,,,,,,,,,0,,,65,65
181667,note_on,67,0,0,,,,,,,,,0,,,70,0
181667,note_on,107,0,1,,,,,,,,,0,,,37,0
181675,note_on,8,0,0,,,,,,,,,0,,,65,0
181680,note_on,0,0,0,,,,,,,,,0,,,68,64
181680,note_on,5,0,0,,,,,,,,,0,,,56,64
181755,note_on,75,0,0,,,,,,,,,0,,,56,0
181760,note_on,5,0,0,,,,,,,,,0,,,61,64
181787,note_on,120,0,1,,,,,,,,,0,,,49,0
181787,note_on,0,0,1,,,,,,,,,0,,,53,0
181800,note_on,13,0,1,,,,,,,,,0,,,49,64
181800,note_on,0,0,1,,,,,,,,,0,,,53,64
181835,note_on,75,0,0,,,,,,,,,0,,,61,0
181840,note_on,5,0,0,,,,,,,,,0,,,65,63
181907,note_on,67,0,0,,,,,,,,,0,,,68,0
181913,note_on,0,0,1,,,,,,,,,0,,,53,0
181913,note_on,113,0,1,,,,,,,,,0,,,49,0
181915,note_on,8,0,0,,,,,,,,,0,,,65,0
181920,set_tempo,5,1,0,,,,,,1333333,,,,,,,
181920,note_on,0,0,0,,,,,,,,,0,,,55,63
181920,note_on,0,0,0,,,,,,,,,0,,,67,63
181995,note_on,75,0,0,,,,,,,,,0,,,55,0
182000,note_on,5,0,0,,,,,,,,,0,,,56,63
182040,note_on,127,0,1,,,,,,,,,0,,,40,62
182040,note_on,0,0,1,,,,,,,,,0,,,49,62
182040,note_on,0,0,1,,,,,,,,,0,,,44,62
182075,note_on,75,0,0,,,,,,,,,0,,,56,0
182080,note_on,5,0,0,,,,,,,,,0,,,61,62
182147,note_on,67,0,0,,,,,,,,,0,,,67,0
182155,note_on,8,0,0,,,,,,,,,0,,,61,0
182160,set_tempo,5,1,0,,,,,,1714286,,,,,,,
182160,note_on,0,0,0,,,,,,,,,0,,,53,62
182160,note_on,0,0,0,,,,,,,,,0,,,65,62
182235,note_on,75,0,0,,,,,,,,,0,,,53,0
182240,note_on,0,0,0,,,,,,,,,0,,,56,61
182240,set_tempo,5,1,0,,,,,,2400000,,,,,,,
182267,note_on,0,0,1,,,,,,,,,0,,,44,0
182267,note_on,227,0,1,,,,,,,,,0,,,40,0
182267,note_on,0,0,1,,,,,,,,,0,,,49,0
182280,note_on,0,0,1,,,,,,,,,0,,,44,61
182280,note_on,13,0,1,,,,,,,,,0,,,41,61
182280,note_on,0,0,1,,,,,,,,,0,,,49,61
182315,note_on,75,0,0,,,,,,,,,0,,,56,0
182320,note_on,0,0,0,,,,,,,,,0,,,61,61
182320,set_tempo,5,1,0,,,,,,4000000,,,,,,,
182387,note_on,67,0,0,,,,,,,,,0,,,65,0
182393,note_on,0,0,1,,,,,,,,,0,,,49,0
182393,note_on,113,0,1,,,,,,,,,0,,,41,0
182393,note_on,0,0,1,,,,,,,,,0,,,44,0
182395,note_on,8,0,0,,,,,,,,,0,,,61,0
182400,note_on,0,0,0,,,,,,,,,0,,,59,60
182400,note_on,0,0,0,,,,,,,,,0,,,62,60
182400,note_on,7,0,1,,,,,,,,,0,,,43,60
182400,set_tempo,0,1,0,,,,,,750000,,,,,,,
182400,note_on,0,0,1,,,,,,,,,0,,,50,60
182400,time_signature,5,1,0,6,8,24,8,,,,,,,,,
182401,control_change,1,0,1,,,,,,,64,0,0,,,,
182478,note_on,0,0,1,,,,,,,,,0,,,50,0
182478,note_on,78,0,0,,,,,,,,,0,,,59,0
182478,note_on,77,0,1,,,,,,,,,0,,,43,0
182478,note_on,0,0,0,,,,,,,,,0,,,62,0
182640,note_on,162,0,1,,,,,,,,,0,,,38,60
182640,set_tempo,162,1,0,,,,,,428571,,,,,,,
182760,note_on,120,0,0,,,,,,,,,0,,,50,60
182867,note_on,227,0,1,,,,,,,,,0,,,38,0
182873,note_on,113,0,0,,,,,,,,,0,,,50,0
182880,note_on,13,0,1,,,,,,,,,0,,,36,60
183000,note_on,127,0,0,,,,,,,,,0,,,48,60
183107,note_on,227,0,1,,,,,,,,,0,,,36,0
183113,note_on,113,0,0,,,,,,,,,0,,,48,0
183120,note_on,13,0,1,,,,,,,,,0,,,35,60
183240,note_on,127,0,0,,,,,,,,,0,,,47,60
183347,note_on,227,0,1,,,,,,,,,0,,,35,0
183353,note_on,113,0,0,,,,,,,,,0,,,47,0
183360,note_on,13,0,1,,,,,,,,,0,,,32,60
183480,note_on,127,0,0,,,,,,,,,0,,,44,60
183587,note_on,227,0,1,,,,,,,,,0,,,32,0
183593,note_on,113,0,0,,,,,,,,,0,,,44,0
183600,note_on,13,0,1,,,,,,,,,0,,,31,60
183720,note_on,127,0,0,,,,,,,,,0,,,43,60
183827,note_on,227,0,1,,,,,,,,,0,,,31,0
183833,note_on,113,0,0,,,,,,,,,0,,,43,0
183840,note_on,13,0,1,,,,,,,,,0,,,44,60
183960,note_on,127,0,0,,,,,,,,,0,,,56,60
184067,note_on,227,0,1,,,,,,,,,0,,,44,0
184073,note_on,113,0,0,,,,,,,,,0,,,56,0
184080,note_on,13,0,1,,,,,,,,,0,,,43,60
184200,note_on,127,0,0,,,,,,,,,0,,,55,60
184307,note_on,227,0,1,,,,,,,,,0,,,43,0
184313,note_on,113,0,0,,,,,,,,,0,,,55,0
184320,note_on,13,0,1,,,,,,,,,0,,,41,60
184440,note_on,127,0,0,,,,,,,,,0,,,53,60
184547,note_on,227,0,1,,,,,,,,,0,,,41,0
184553,note_on,113,0,0,,,,,,,,,0,,,53,0
184560,note_on,13,0,1,,,,,,,,,0,,,39,60
184680,note_on,127,0,0,,,,,,,,,0,,,51,60
184787,note_on,227,0,1,,,,,,,,,0,,,39,0
184793,note_on,113,0,0,,,,,,,,,0,,,51,0
184800,note_on,13,0,1,,,,,,,,,0,,,37,60
184920,note_on,127,0,0,,,,,,,,,0,,,49,60
185027,note_on,227,0,1,,,,,,,,,0,,,37,0
185033,note_on,113,0,0,,,,,,,,,0,,,49,0
185040,note_on,0,0,1,,,,,,,,,0,,,53,60
185040,note_on,7,0,0,,,,,,,,,0,,,56,60
185040,note_on,0,0,0,,,,,,,,,0,,,65,60
185040,note_on,13,0,1,,,,,,,,,0,,,49,60
185040,note_on,0,0,0,,,,,,,,,0,,,61,60
185118,note_on,0,0,1,,,,,,,,,0,,,53,0
185118,note_on,0,0,0,,,,,,,,,0,,,65,0
185118,note_on,0,0,0,,,,,,,,,0,,,61,0
185118,note_on,78,0,1,,,,,,,,,0,,,49,0
185118,note_on,78,0,0,,,,,,,,,0,,,56,0
185280,note_on,162,0,1,,,,,,,,,0,,,43,60
185280,note_on,0,0,0,,,,,,,,,0,,,59,60
185280,note_on,0,0,0,,,,,,,,,0,,,67,60
185280,note_on,162,0,0,,,,,,,,,0,,,55,60
185280,note_on,0,0,1,,,,,,,,,0,,,50,60
185358,note_on,78,0,1,,,,,,,,,0,,,43,0
185358,note_on,0,0,0,,,,,,,,,0,,,67,0
185358,note_on,0,0,1,,,,,,,,,0,,,50,0
185358,note_on,0,0,0,,,,,,,,,0,,,59,0
185358,note_on,78,0,0,,,,,,,,,0,,,55,0
185520,note_on,162,0,1,,,,,,,,,0,,,38,60
185640,note_on,282,0,0,,,,,,,,,0,,,50,60
185747,note_on,227,0,1,,,,,,,,,0,,,38,0
185753,note_on,113,0,0,,,,,,,,,0,,,50,0
185760,note_on,13,0,1,,,,,,,,,0,,,36,60
185880,note_on,127,0,0,,,,,,,,,0,,,48,60
185987,note_on,227,0,1,,,,,,,,,0,,,36,0
185993,note_on,113,0,0,,,,,,,,,0,,,48,0
186000,note_on,13,0,1,,,,,,,,,0,,,35,60
186120,note_on,127,0,0,,,,,,,,,0,,,47,60
186227,note_on,227,0,1,,,,,,,,,0,,,35,0
186233,note_on,113,0,0,,,,,,,,,0,,,47,0
186240,note_on,13,0,1,,,,,,,,,0,,,32,60
186360,note_on,127,0,0,,,,,,,,,0,,,44,60
186467,note_on,227,0,1,,,,,,,,,0,,,32,0
186473,note_on,113,0,0,,,,,,,,,0,,,44,0
186480,note_on,13,0,1,,,,,,,,,0,,,31,60
186600,note_on,127,0,0,,,,,,,,,0,,,43,60
186707,note_on,227,0,1,,,,,,,,,0,,,31,0
186713,note_on,113,0,0,,,,,,,,,0,,,43,0
186720,note_on,13,0,1,,,,,,,,,0,,,44,60
186840,note_on,127,0,0,,,,,,,,,0,,,56,60
186947,note_on,227,0,1,,,,,,,,,0,,,44,0
186953,note_on,113,0,0,,,,,,,,,0,,,56,0
186960,note_on,13,0,1,,,,,,,,,0,,,43,60
187080,note_on,127,0,0,,,,,,,,,0,,,55,60
187187,note_on,227,0,1,,,,,,,,,0,,,43,0
187193,note_on,113,0,0,,,,,,,,,0,,,55,0
187200,note_on,13,0,1,,,,,,,,,0,,,41,60
187320,note_on,127,0,0,,,,,,,,,0,,,53,60
187427,note_on,227,0,1,,,,,,,,,0,,,41,0
187433,note_on,113,0,0,,,,,,,,,0,,,53,0
187440,note_on,13,0,1,,,,,,,,,0,,,39,60
187560,note_on,127,0,0,,,,,,,,,0,,,51,60
187667,note_on,227,0,1,,,,,,,,,0,,,39,0
187673,note_on,113,0,0,,,,,,,,,0,,,51,0
187680,note_on,13,0,1,,,,,,,,,0,,,37,60
187800,note_on,127,0,0,,,,,,,,,0,,,49,60
187907,note_on,227,0,1,,,,,,,,,0,,,37,0
187913,note_on,113,0,0,,,,,,,,,0,,,49,0
187920,note_on,7,0,0,,,,,,,,,0,,,56,60
187920,note_on,0,0,0,,,,,,,,,0,,,61,60
187920,note_on,0,0,1,,,,,,,,,0,,,53,60
187920,note_on,0,0,0,,,,,,,,,0,,,65,60
187920,note_on,13,0,1,,,,,,,,,0,,,49,60
187998,note_on,0,0,1,,,,,,,,,0,,,53,0
187998,note_on,78,0,0,,,,,,,,,0,,,56,0
187998,note_on,0,0,0,,,,,,,,,0,,,65,0
187998,note_on,0,0,0,,,,,,,,,0,,,61,0
187998,note_on,78,0,1,,,,,,,,,0,,,49,0
188160,note_on,162,0,1,,,,,,,,,0,,,44,60
188160,note_on,162,0,0,,,,,,,,,0,,,56,60
188160,note_on,0,0,0,,,,,,,,,0,,,68,60
188160,note_on,0,0,0,,,,,,,,,0,,,60,60
188160,note_on,0,0,1,,,,,,,,,0,,,51,60
188238,note_on,0,0,0,,,,,,,,,0,,,60,0
188238,note_on,0,0,1,,,,,,,,,0,,,51,0
188238,note_on,0,0,0,,,,,,,,,0,,,68,0
188238,note_on,78,0,1,,,,,,,,,0,,,44,0
188238,note_on,78,0,0,,,,,,,,,0,,,56,0
188400,note_on,162,0,1,,,,,,,,,0,,,39,60
188520,note_on,282,0,0,,,,,,,,,0,,,51,60
188627,note_on,227,0,1,,,,,,,,,0,,,39,0
188633,note_on,113,0,0,,,,,,,,,0,,,51,0
188640,note_on,13,0,1,,,,,,,,,0,,,37,60
188760,note_on,127,0,0,,,,,,,,,0,,,49,60
188867,note_on,227,0,1,,,,,,,,,0,,,37,0
188873,note_on,113,0,0,,,,,,,,,0,,,49,0
188880,note_on,13,0,1,,,,,,,,,0,,,36,60
189000,note_on,127,0,0,,,,,,,,,0,,,48,60
189107,note_on,227,0,1,,,,,,,,,0,,,36,0
189113,note_on,113,0,0,,,,,,,,,0,,,48,0
189120,note_on,13,0,1,,,,,,,,,0,,,34,60
189240,note_on,127,0,0,,,,,,,,,0,,,46,60
189347,note_on,227,0,1,,,,,,,,,0,,,34,0
189353,note_on,113,0,0,,,,,,,,,0,,,46,0
189360,note_on,13,0,1,,,,,,,,,0,,,32,60
189480,note_on,127,0,0,,,,,,,,,0,,,44,60
189587,note_on,227,0,1,,,,,,,,,0,,,32,0
189593,note_on,113,0,0,,,,,,,,,0,,,44,0
189600,note_on,13,0,1,,,,,,,,,0,,,44,60
189720,note_on,127,0,0,,,,,,,,,0,,,56,60
189827,note_on,227,0,1,,,,,,,,,0,,,44,0
189833,note_on,113,0,0,,,,,,,,,0,,,56,0
189840,note_on,13,0,1,,,,,,,,,0,,,42,60
189960,note_on,127,0,0,,,,,,,,,0,,,54,60
190067,note_on,227,0,1,,,,,,,,,0,,,42,0
190073,note_on,113,0,0,,,,,,,,,0,,,54,0
190080,note_on,13,0,1,,,,,,,,,0,,,40,60
190200,note_on,127,0,0,,,,,,,,,0,,,52,60
190307,note_on,227,0,1,,,,,,,,,0,,,40,0
190313,note_on,113,0,0,,,,,,,,,0,,,52,0
190320,note_on,13,0,1,,,,,,,,,0,,,39,60
190440,note_on,127,0,0,,,,,,,,,0,,,51,60
190547,note_on,227,0,1,,,,,,,,,0,,,39,0
190553,note_on,113,0,0,,,,,,,,,0,,,51,0
190560,note_on,13,0,1,,,,,,,,,0,,,37,60
190680,note_on,127,0,0,,,,,,,,,0,,,49,60
190787,note_on,227,0,1,,,,,,,,,0,,,37,0
190793,note_on,113,0,0,,,,,,,,,0,,,49,0
190800,note_on,0,0,1,,,,,,,,,0,,,52,60
190800,note_on,0,0,0,,,,,,,,,0,,,64,60
190800,note_on,0,0,0,,,,,,,,,0,,,61,60
190800,note_on,7,0,0,,,,,,,,,0,,,56,60
190800,note_on,13,0,1,,,,,,,,,0,,,49,60
190878,note_on,78,0,1,,,,,,,,,0,,,49,0
190878,note_on,78,0,0,,,,,,,,,0,,,56,0
190878,note_on,0,0,1,,,,,,,,,0,,,52,0
190878,note_on,0,0,0,,,,,,,,,0,,,61,0
190878,note_on,0,0,0,,,,,,,,,0,,,64,0
191040,note_on,0,0,1,,,,,,,,,0,,,52,60
191040,note_on,0,0,0,,,,,,,,,0,,,61,60
191040,note_on,162,0,1,,,,,,,,,0,,,45,60
191040,note_on,162,0,0,,,,,,,,,0,,,57,60
191040,note_on,0,0,0,,,,,,,,,0,,,69,60
191118,note_on,0,0,0,,,,,,,,,0,,,69,0
191118,note_on,78,0,1,,,,,,,,,0,,,45,0
191118,note_on,0,0,0,,,,,,,,,0,,,61,0
191118,note_on,78,0,0,,,,,,,,,0,,,57,0
191118,note_on,0,0,1,,,,,,,,,0,,,52,0
191280,note_on,162,0,1,,,,,,,,,0,,,40,60
191400,note_on,282,0,0,,,,,,,,,0,,,52,60
191507,note_on,227,0,1,,,,,,,,,0,,,40,0
191513,note_on,113,0,0,,,,,,,,,0,,,52,0
191520,note_on,13,0,1,,,,,,,,,0,,,38,60
191640,note_on,127,0,0,,,,,,,,,0,,,50,60
191747,note_on,227,0,1,,,,,,,,,0,,,38,0
191753,note_on,113,0,0,,,,,,,,,0,,,50,0
191760,note_on,13,0,1,,,,,,,,,0,,,37,60
191880,note_on,127,0,0,,,,,,,,,0,,,49,60
191987,note_on,227,0,1,,,,,,,,,0,,,37,0
191993,note_on,113,0,0,,,,,,,,,0,,,49,0
192000,note_on,13,0,1,,,,,,,,,0,,,34,60
192120,note_on,127,0,0,,,,,,,,,0,,,46,60
192227,note_on,227,0,1,,,,,,,,,0,,,34,0
192233,note_on,113,0,0,,,,,,,,,0,,,46,0
192240,note_on,13,0,1,,,,,,,,,0,,,33,60
192360,note_on,127,0,0,,,,,,,,,0,,,45,60
192467,note_on,227,0,1,,,,,,,,,0,,,33,0
192473,note_on,113,0,0,,,,,,,,,0,,,45,0
192480,note_on,13,0,1,,,,,,,,,0,,,45,60
192600,note_on,127,0,0,,,,,,,,,0,,,57,60
192707,note_on,227,0,1,,,,,,,,,0,,,45,0
192713,note_on,113,0,0,,,,,,,,,0,,,57,0
192720,note_on,13,0,1,,,,,,,,,0,,,43,60
192840,note_on,127,0,0,,,,,,,,,0,,,55,60
192947,note_on,227,0,1,,,,,,,,,0,,,43,0
192953,note_on,113,0,0,,,,,,,,,0,,,55,0
192960,note_on,13,0,1,,,,,,,,,0,,,41,60
193080,note_on,127,0,0,,,,,,,,,0,,,53,60
193187,note_on,227,0,1,,,,,,,,,0,,,41,0
193193,note_on,113,0,0,,,,,,,,,0,,,53,0
193200,note_on,13,0,1,,,,,,,,,0,,,40,60
193320,note_on,127,0,0,,,,,,,,,0,,,52,60
193427,note_on,227,0,1,,,,,,,,,0,,,40,0
193433,note_on,113,0,0,,,,,,,,,0,,,52,0
193440,note_on,13,0,1,,,,,,,,,0,,,38,60
193560,note_on,127,0,0,,,,,,,,,0,,,50,60
193667,note_on,227,0,1,,,,,,,,,0,,,38,0
193673,note_on,113,0,0,,,,,,,,,0,,,50,0
193680,note_on,0,0,1,,,,,,,,,0,,,53,60
193680,note_on,0,0,0,,,,,,,,,0,,,65,60
193680,note_on,0,0,0,,,,,,,,,0,,,62,60
193680,note_on,7,0,0,,,,,,,,,0,,,57,60
193680,note_on,13,0,1,,,,,,,,,0,,,50,60
193758,note_on,0,0,1,,,,,,,,,0,,,53,0
193758,note_on,78,0,0,,,,,,,,,0,,,57,0
193758,note_on,78,0,1,,,,,,,,,0,,,50,0
193758,note_on,0,0,0,,,,,,,,,0,,,62,0
193758,note_on,0,0,0,,,,,,,,,0,,,65,0
193920,note_on,0,0,1,,,,,,,,,0,,,53,60
193920,note_on,162,0,0,,,,,,,,,0,,,58,60
193920,note_on,0,0,0,,,,,,,,,0,,,62,60
193920,note_on,0,0,0,,,,,,,,,0,,,70,60
193920,note_on,162,0,1,,,,,,,,,0,,,46,60
193998,note_on,78,0,1,,,,,,,,,0,,,46,0
193998,note_on,0,0,0,,,,,,,,,0,,,62,0
193998,note_on,78,0,0,,,,,,,,,0,,,58,0
193998,note_on,0,0,0,,,,,,,,,0,,,70,0
193998,note_on,0,0,1,,,,,,,,,0,,,53,0
194160,note_on,162,0,1,,,,,,,,,0,,,41,60
194280,note_on,282,0,0,,,,,,,,,0,,,53,60
194387,note_on,227,0,1,,,,,,,,,0,,,41,0
194393,note_on,113,0,0,,,,,,,,,0,,,53,0
194400,note_on,13,0,1,,,,,,,,,0,,,39,60
194520,note_on,127,0,0,,,,,,,,,0,,,51,60
194627,note_on,227,0,1,,,,,,,,,0,,,39,0
194633,note_on,113,0,0,,,,,,,,,0,,,51,0
194640,note_on,13,0,1,,,,,,,,,0,,,38,60
194760,note_on,127,0,0,,,,,,,,,0,,,50,60
194867,note_on,227,0,1,,,,,,,,,0,,,38,0
194873,note_on,113,0,0,,,,,,,,,0,,,50,0
194880,note_on,13,0,1,,,,,,,,,0,,,35,60
195000,note_on,127,0,0,,,,,,,,,0,,,47,60
195107,note_on,227,0,1,,,,,,,,,0,,,35,0
195113,note_on,113,0,0,,,,,,,,,0,,,47,0
195120,note_on,13,0,1,,,,,,,,,0,,,34,60
195240,note_on,127,0,0,,,,,,,,,0,,,46,60
195347,note_on,227,0,1,,,,,,,,,0,,,34,0
195353,note_on,113,0,0,,,,,,,,,0,,,46,0
195360,note_on,0,0,0,,,,,,,,,0,,,70,60
195360,note_on,0,0,0,,,,,,,,,0,,,63,60
195360,note_on,7,0,0,,,,,,,,,0,,,58,60
195360,note_on,0,0,1,,,,,,,,,0,,,54,60
195360,note_on,13,0,1,,,,,,,,,0,,,46,60
195438,note_on,0,0,0,,,,,,,,,0,,,63,0
195438,note_on,0,0,0,,,,,,,,,0,,,70,0
195438,note_on,0,0,1,,,,,,,,,0,,,54,0
195438,note_on,78,0,1,,,,,,,,,0,,,46,0
195438,note_on,78,0,0,,,,,,,,,0,,,58,0
195600,note_on,162,0,1,,,,,,,,,0,,,42,60
195720,note_on,282,0,0,,,,,,,,,0,,,54,60
195827,note_on,227,0,1,,,,,,,,,0,,,42,0
195833,note_on,113,0,0,,,,,,,,,0,,,54,0
195840,note_on,13,0,1,,,,,,,,,0,,,41,60
195960,note_on,127,0,0,,,,,,,,,0,,,53,60
196067,note_on,227,0,1,,,,,,,,,0,,,41,0
196073,note_on,113,0,0,,,,,,,,,0,,,53,0
196080,note_on,13,0,1,,,,,,,,,0,,,39,60
196200,note_on,127,0,0,,,,,,,,,0,,,51,60
196307,note_on,227,0,1,,,,,,,,,0,,,39,0
196313,note_on,113,0,0,,,,,,,,,0,,,51,0
196320,note_on,13,0,1,,,,,,,,,0,,,35,60
196440,note_on,127,0,0,,,,,,,,,0,,,47,60
196547,note_on,227,0,1,,,,,,,,,0,,,35,0
196553,note_on,113,0,0,,,,,,,,,0,,,47,0
196560,note_on,13,0,1,,,,,,,,,0,,,34,60
196680,note_on,127,0,0,,,,,,,,,0,,,46,60
196787,note_on,227,0,1,,,,,,,,,0,,,34,0
196793,note_on,113,0,0,,,,,,,,,0,,,46,0
196800,note_on,0,0,1,,,,,,,,,0,,,56,60
196800,note_on,0,0,0,,,,,,,,,0,,,65,60
196800,note_on,0,0,0,,,,,,,,,0,,,74,60
196800,note_on,7,0,0,,,,,,,,,0,,,62,60
196800,note_on,13,0,1,,,,,,,,,0,,,47,60
196800,note_on,0,0,1,,,,,,,,,0,,,59,60
196878,note_on,78,0,0,,,,,,,,,0,,,62,0
196878,note_on,0,0,1,,,,,,,,,0,,,59,0
196878,note_on,0,0,0,,,,,,,,,0,,,74,0
196878,note_on,78,0,1,,,,,,,,,0,,,47,0
196878,note_on,0,0,1,,,,,,,,,0,,,56,0
196878,note_on,0,0,0,,,,,,,,,0,,,65,0
197040,note_on,162,0,1,,,,,,,,,0,,,44,60
197160,note_on,282,0,0,,,,,,,,,0,,,56,60
197267,note_on,227,0,1,,,,,,,,,0,,,44,0
197273,note_on,113,0,0,,,,,,,,,0,,,56,0
197280,note_on,13,0,1,,,,,,,,,0,,,41,60
197400,note_on,127,0,0,,,,,,,,,0,,,53,60
197507,note_on,227,0,1,,,,,,,,,0,,,41,0
197513,note_on,113,0,0,,,,,,,,,0,,,53,0
197520,note_on,13,0,1,,,,,,,,,0,,,38,60
197640,note_on,127,0,0,,,,,,,,,0,,,50,60
197747,note_on,227,0,1,,,,,,,,,0,,,38,0
197753,note_on,113,0,0,,,,,,,,,0,,,50,0
197760,note_on,13,0,1,,,,,,,,,0,,,37,60
197880,note_on,127,0,0,,,,,,,,,0,,,49,60
197987,note_on,227,0,1,,,,,,,,,0,,,37,0
197993,note_on,113,0,0,,,,,,,,,0,,,49,0
198000,note_on,13,0,1,,,,,,,,,0,,,35,60
198120,note_on,127,0,0,,,,,,,,,0,,,47,60
198227,note_on,227,0,1,,,,,,,,,0,,,35,0
198233,note_on,113,0,0,,,,,,,,,0,,,47,0
198240,note_on,0,0,1,,,,,,,,,0,,,60,60
198240,note_on,13,0,1,,,,,,,,,0,,,51,60
198240,note_on,0,0,0,,,,,,,,,0,,,78,60
198240,note_on,0,0,0,,,,,,,,,0,,,69,60
198240,note_on,0,0,1,,,,,,,,,0,,,63,60
198240,note_on,7,0,0,,,,,,,,,0,,,66,60
198318,note_on,78,0,0,,,,,,,,,0,,,66,0
198318,note_on,78,0,1,,,,,,,,,0,,,51,0
198318,note_on,0,0,0,,,,,,,,,0,,,69,0
198318,note_on,0,0,1,,,,,,,,,0,,,60,0
198318,note_on,0,0,1,,,,,,,,,0,,,63,0
198318,note_on,0,0,0,,,,,,,,,0,,,78,0
198480,note_on,162,0,1,,,,,,,,,0,,,45,60
198600,note_on,282,0,0,,,,,,,,,0,,,57,60
198707,note_on,227,0,1,,,,,,,,,0,,,45,0
198713,note_on,113,0,0,,,,,,,,,0,,,57,0
198720,note_on,13,0,1,,,,,,,,,0,,,44,60
198840,note_on,127,0,0,,,,,,,,,0,,,56,60
198947,note_on,227,0,1,,,,,,,,,0,,,44,0
198953,note_on,113,0,0,,,,,,,,,0,,,56,0
198960,note_on,13,0,1,,,,,,,,,0,,,42,60
199080,note_on,127,0,0,,,,,,,,,0,,,54,60
199187,note_on,227,0,1,,,,,,,,,0,,,42,0
199193,note_on,113,0,0,,,,,,,,,0,,,54,0
199200,note_on,13,0,1,,,,,,,,,0,,,39,60
199320,note_on,127,0,0,,,,,,,,,0,,,51,60
199427,note_on,227,0,1,,,,,,,,,0,,,39,0
199433,note_on,113,0,0,,,,,,,,,0,,,51,0
199440,note_on,13,0,1,,,,,,,,,0,,,36,60
199560,note_on,127,0,0,,,,,,,,,0,,,48,60
199667,note_on,227,0,1,,,,,,,,,0,,,36,0
199673,note_on,113,0,0,,,,,,,,,0,,,48,0
199680,note_on,0,0,1,,,,,,,,,0,,,66,60
199680,note_on,0,0,1,,,,,,,,,0,,,69,60
199680,note_on,7,0,0,,,,,,,,,0,,,73,60
199680,note_on,13,0,1,,,,,,,,,0,,,61,60
199680,note_on,0,0,0,,,,,,,,,0,,,78,60
199680,note_on,0,0,0,,,,,,,,,0,,,81,60
199758,note_on,0,0,0,,,,,,,,,0,,,81,0
199758,note_on,78,0,1,,,,,,,,,0,,,61,0
199758,note_on,78,0,0,,,,,,,,,0,,,73,0
199758,note_on,0,0,1,,,,,,,,,0,,,69,0
199758,note_on,0,0,0,,,,,,,,,0,,,78,0
199758,note_on,0,0,1,,,,,,,,,0,,,66,0
200040,note_on,0,0,1,,,,,,,,,0,,,61,60
200040,note_on,0,0,1,,,,,,,,,0,,,66,60
200040,note_on,0,0,0,,,,,,,,,0,,,78,60
200040,note_on,282,0,1,,,,,,,,,0,,,57,60
200040,note_on,0,0,0,,,,,,,,,0,,,73,60
200040,note_on,282,0,0,,,,,,,,,0,,,69,60
200078,note_on,38,0,0,,,,,,,,,0,,,69,0
200078,note_on,38,0,1,,,,,,,,,0,,,57,0
200078,note_on,0,0,1,,,,,,,,,0,,,66,0
200078,note_on,0,0,1,,,,,,,,,0,,,61,0
200078,note_on,0,0,0,,,,,,,,,0,,,78,0
200078,note_on,0,0,0,,,,,,,,,0,,,73,0
200160,note_on,82,0,0,,,,,,,,,0,,,69,60
200160,note_on,0,0,0,,,,,,,,,0,,,78,60
200160,note_on,0,0,0,,,,,,,,,0,,,73,60
200160,note_on,0,0,1,,,,,,,,,0,,,66,60
200160,note_on,82,0,1,,,,,,,,,0,,,57,60
200160,note_on,0,0,1,,,,,,,,,0,,,61,60
200238,note_on,0,0,1,,,,,,,,,0,,,61,0
200238,note_on,0,0,1,,,,,,,,,0,,,66,0
200238,note_on,78,0,0,,,,,,,,,0,,,69,0
200238,note_on,78,0,1,,,,,,,,,0,,,57,0
200238,note_on,0,0,0,,,,,,,,,0,,,73,0
200238,note_on,0,0,0,,,,,,,,,0,,,78,0
200400,note_on,162,0,1,,,,,,,,,0,,,54,60
200400,note_on,0,0,1,,,,,,,,,0,,,61,60
200400,note_on,0,0,1,,,,,,,,,0,,,57,60
200400,note_on,0,0,0,,,,,,,,,0,,,69,60
200400,note_on,162,0,0,,,,,,,,,0,,,66,60
200400,note_on,0,0,0,,,,,,,,,0,,,73,60
200478,note_on,0,0,0,,,,,,,,,0,,,69,0
200478,note_on,78,0,0,,,,,,,,,0,,,66,0
200478,note_on,0,0,1,,,,,,,,,0,,,57,0
200478,note_on,0,0,1,,,,,,,,,0,,,61,0
200478,note_on,78,0,1,,,,,,,,,0,,,54,0
200478,note_on,0,0,0,,,,,,,,,0,,,73,0
200760,note_on,0,0,0,,,,,,,,,0,,,66,60
200760,note_on,0,0,1,,,,,,,,,0,,,57,60
200760,note_on,0,0,0,,,,,,,,,0,,,69,60
200760,note_on,0,0,1,,,,,,,,,0,,,54,60
200760,note_on,282,0,0,,,,,,,,,0,,,61,60
200760,note_on,282,0,1,,,,,,,,,0,,,49,60
200798,note_on,38,0,1,,,,,,,,,0,,,49,0
200798,note_on,38,0,0,,,,,,,,,0,,,61,0
200798,note_on,0,0,0,,,,,,,,,0,,,69,0
200798,note_on,0,0,1,,,,,,,,,0,,,57,0
200798,note_on,0,0,1,,,,,,,,,0,,,54,0
200798,note_on,0,0,0,,,,,,,,,0,,,66,0
200880,note_on,82,0,0,,,,,,,,,0,,,61,60
200880,note_on,82,0,1,,,,,,,,,0,,,49,60
200880,note_on,0,0,1,,,,,,,,,0,,,57,60
200880,note_on,0,0,0,,,,,,,,,0,,,66,60
200880,note_on,0,0,1,,,,,,,,,0,,,54,60
200880,note_on,0,0,0,,,,,,,,,0,,,69,60
200958,note_on,0,0,0,,,,,,,,,0,,,66,0
200958,note_on,0,0,1,,,,,,,,,0,,,54,0
200958,note_on,0,0,1,,,,,,,,,0,,,57,0
200958,note_on,0,0,0,,,,,,,,,0,,,69,0
200958,note_on,78,0,0,,,,,,,,,0,,,61,0
200958,note_on,78,0,1,,,,,,,,,0,,,49,0
201120,note_on,162,0,1,,,,,,,,,0,,,38,60
201240,note_on,282,0,0,,,,,,,,,0,,,50,60
201347,note_on,227,0,1,,,,,,,,,0,,,38,0
201353,note_on,113,0,0,,,,,,,,,0,,,50,0
201360,note_on,13,0,1,,,,,,,,,0,,,45,64
201480,note_on,127,0,0,,,,,,,,,0,,,57,68
201587,note_on,227,0,1,,,,,,,,,0,,,45,0
201593,note_on,113,0,0,,,,,,,,,0,,,57,0
201600,note_on,13,0,1,,,,,,,,,0,,,43,72
201720,note_on,127,0,0,,,,,,,,,0,,,55,76
201827,note_on,227,0,1,,,,,,,,,0,,,43,0
201833,note_on,113,0,0,,,,,,,,,0,,,55,0
201840,note_on,13,0,1,,,,,,,,,0,,,42,80
201960,note_on,127,0,0,,,,,,,,,0,,,54,80
202067,note_on,227,0,1,,,,,,,,,0,,,42,0
202073,note_on,113,0,0,,,,,,,,,0,,,54,0
202080,note_on,13,0,1,,,,,,,,,0,,,40,76
202200,note_on,127,0,0,,,,,,,,,0,,,52,72
202307,note_on,227,0,1,,,,,,,,,0,,,40,0
202313,note_on,113,0,0,,,,,,,,,0,,,52,0
202320,note_on,13,0,1,,,,,,,,,0,,,38,68
202440,note_on,127,0,0,,,,,,,,,0,,,50,64
202547,note_on,227,0,1,,,,,,,,,0,,,38,0
202553,note_on,113,0,0,,,,,,,,,0,,,50,0
202560,note_on,0,0,0,,,,,,,,,0,,,79,60
202560,note_on,13,0,1,,,,,,,,,0,,,62,60
202560,note_on,0,0,1,,,,,,,,,0,,,70,60
202560,note_on,0,0,0,,,,,,,,,0,,,82,60
202560,note_on,0,0,1,,,,,,,,,0,,,67,60
202560,note_on,7,0,0,,,,,,,,,0,,,74,60
202638,note_on,0,0,0,,,,,,,,,0,,,79,0
202638,note_on,0,0,0,,,,,,,,,0,,,82,0
202638,note_on,0,0,1,,,,,,,,,0,,,67,0
202638,note_on,78,0,0,,,,,,,,,0,,,74,0
202638,note_on,78,0,1,,,,,,,,,0,,,62,0
202638,note_on,0,0,1,,,,,,,,,0,,,70,0
202920,note_on,282,0,1,,,,,,,,,0,,,58,60
202920,note_on,0,0,1,,,,,,,,,0,,,67,60
202920,note_on,0,0,0,,,,,,,,,0,,,79,60
202920,note_on,0,0,0,,,,,,,,,0,,,74,60
202920,note_on,0,0,1,,,,,,,,,0,,,62,60
202920,note_on,282,0,0,,,,,,,,,0,,,70,60
202958,note_on,0,0,1,,,,,,,,,0,,,67,0
202958,note_on,0,0,0,,,,,,,,,0,,,74,0
202958,note_on,0,0,1,,,,,,,,,0,,,62,0
202958,note_on,0,0,0,,,,,,,,,0,,,79,0
202958,note_on,38,0,1,,,,,,,,,0,,,58,0
202958,note_on,38,0,0,,,,,,,,,0,,,70,0
203040,note_on,82,0,1,,,,,,,,,0,,,58,60
203040,note_on,0,0,1,,,,,,,,,0,,,67,60
203040,note_on,82,0,0,,,,,,,,,0,,,70,60
203040,note_on,0,0,1,,,,,,,,,0,,,62,60
203040,note_on,0,0,0,,,,,,,,,0,,,79,60
203040,note_on,0,0,0,,,,,,,,,0,,,74,60
203118,note_on,0,0,1,,,,,,,,,0,,,62,0
203118,note_on,0,0,1,,,,,,,,,0,,,67,0
203118,note_on,78,0,1,,,,,,,,,0,,,58,0
203118,note_on,0,0,0,,,,,,,,,0,,,79,0
203118,note_on,78,0,0,,,,,,,,,0,,,70,0
203118,note_on,0,0,0,,,,,,,,,0,,,74,0
203280,note_on,0,0,0,,,,,,,,,0,,,74,60
203280,note_on,0,0,1,,,,,,,,,0,,,62,60
203280,note_on,0,0,1,,,,,,,,,0,,,58,60
203280,note_on,0,0,0,,,,,,,,,0,,,70,60
203280,note_on,162,0,0,,,,,,,,,0,,,67,60
203280,note_on,162,0,1,,,,,,,,,0,,,55,60
203358,note_on,78,0,0,,,,,,,,,0,,,67,0
203358,note_on,0,0,1,,,,,,,,,0,,,58,0
203358,note_on,0,0,0,,,,,,,,,0,,,70,0
203358,note_on,0,0,1,,,,,,,,,0,,,62,0
203358,note_on,0,0,0,,,,,,,,,0,,,74,0
203358,note_on,78,0,1,,,,,,,,,0,,,55,0
203640,note_on,0,0,1,,,,,,,,,0,,,58,60
203640,note_on,282,0,1,,,,,,,,,0,,,50,60
203640,note_on,0,0,0,,,,,,,,,0,,,70,60
203640,note_on,0,0,0,,,,,,,,,0,,,67,60
203640,note_on,0,0,1,,,,,,,,,0,,,55,60
203640,note_on,282,0,0,,,,,,,,,0,,,62,60
203678,note_on,38,0,1,,,,,,,,,0,,,50,0
203678,note_on,38,0,0,,,,,,,,,0,,,62,0
203678,note_on,0,0,0,,,,,,,,,0,,,70,0
203678,note_on,0,0,1,,,,,,,,,0,,,55,0
203678,note_on,0,0,1,,,,,,,,,0,,,58,0
203678,note_on,0,0,0,,,,,,,,,0,,,67,0
203760,note_on,0,0,1,,,,,,,,,0,,,58,60
203760,note_on,82,0,0,,,,,,,,,0,,,62,60
203760,note_on,0,0,1,,,,,,,,,0,,,55,60
203760,note_on,82,0,1,,,,,,,,,0,,,50,60
203760,note_on,0,0,0,,,,,,,,,0,,,67,60
203760,note_on,0,0,0,,,,,,,,,0,,,70,60
203838,note_on,0,0,0,,,,,,,,,0,,,70,0
203838,note_on,0,0,1,,,,,,,,,0,,,55,0
203838,note_on,0,0,1,,,,,,,,,0,,,58,0
203838,note_on,0,0,0,,,,,,,,,0,,,67,0
203838,note_on,78,0,1,,,,,,,,,0,,,50,0
203838,note_on,78,0,0,,,,,,,,,0,,,62,0
204000,note_on,162,0,1,,,,,,,,,0,,,39,60
204120,note_on,282,0,0,,,,,,,,,0,,,51,60
204227,note_on,227,0,1,,,,,,,,,0,,,39,0
204233,note_on,113,0,0,,,,,,,,,0,,,51,0
204240,note_on,13,0,1,,,,,,,,,0,,,46,64
204360,note_on,127,0,0,,,,,,,,,0,,,58,68
204467,note_on,227,0,1,,,,,,,,,0,,,46,0
204473,note_on,113,0,0,,,,,,,,,0,,,58,0
204480,note_on,13,0,1,,,,,,,,,0,,,44,72
204600,note_on,127,0,0,,,,,,,,,0,,,56,76
204707,note_on,227,0,1,,,,,,,,,0,,,44,0
204713,note_on,113,0,0,,,,,,,,,0,,,56,0
204720,note_on,13,0,1,,,,,,,,,0,,,43,80
204840,note_on,127,0,0,,,,,,,,,0,,,55,80
204947,note_on,227,0,1,,,,,,,,,0,,,43,0
204953,note_on,113,0,0,,,,,,,,,0,,,55,0
204960,note_on,13,0,1,,,,,,,,,0,,,41,76
205080,note_on,127,0,0,,,,,,,,,0,,,53,72
205187,note_on,227,0,1,,,,,,,,,0,,,41,0
205193,note_on,113,0,0,,,,,,,,,0,,,53,0
205200,note_on,13,0,1,,,,,,,,,0,,,39,68
205320,note_on,127,0,0,,,,,,,,,0,,,51,64
205427,note_on,227,0,1,,,,,,,,,0,,,39,0
205433,note_on,113,0,0,,,,,,,,,0,,,51,0
205440,note_on,7,0,0,,,,,,,,,0,,,75,60
205440,note_on,13,0,1,,,,,,,,,0,,,63,60
205440,note_on,0,0,1,,,,,,,,,0,,,68,60
205440,note_on,0,0,1,,,,,,,,,0,,,71,60
205440,note_on,0,0,0,,,,,,,,,0,,,83,60
205440,note_on,0,0,0,,,,,,,,,0,,,80,60
205518,note_on,0,0,1,,,,,,,,,0,,,68,0
205518,note_on,0,0,1,,,,,,,,,0,,,71,0
205518,note_on,0,0,0,,,,,,,,,0,,,80,0
205518,note_on,0,0,0,,,,,,,,,0,,,83,0
205518,note_on,78,0,1,,,,,,,,,0,,,63,0
205518,note_on,78,0,0,,,,,,,,,0,,,75,0
205800,note_on,0,0,1,,,,,,,,,0,,,68,60
205800,note_on,282,0,0,,,,,,,,,0,,,71,60
205800,note_on,0,0,1,,,,,,,,,0,,,63,60
205800,note_on,282,0,1,,,,,,,,,0,,,59,60
205800,note_on,0,0,0,,,,,,,,,0,,,75,60
205800,note_on,0,0,0,,,,,,,,,0,,,80,60
205838,note_on,0,0,1,,,,,,,,,0,,,63,0
205838,note_on,38,0,1,,,,,,,,,0,,,59,0
205838,note_on,0,0,1,,,,,,,,,0,,,68,0
205838,note_on,0,0,0,,,,,,,,,0,,,80,0
205838,note_on,0,0,0,,,,,,,,,0,,,75,0
205838,note_on,38,0,0,,,,,,,,,0,,,71,0
205920,note_on,82,0,1,,,,,,,,,0,,,59,60
205920,note_on,0,0,1,,,,,,,,,0,,,68,60
205920,note_on,0,0,0,,,,,,,,,0,,,75,60
205920,note_on,82,0,0,,,,,,,,,0,,,71,60
205920,note_on,0,0,1,,,,,,,,,0,,,63,60
205920,note_on,0,0,0,,,,,,,,,0,,,80,60
205998,note_on,0,0,1,,,,,,,,,0,,,63,0
205998,note_on,0,0,1,,,,,,,,,0,,,68,0
205998,note_on,78,0,0,,,,,,,,,0,,,71,0
205998,note_on,78,0,1,,,,,,,,,0,,,59,0
205998,note_on,0,0,0,,,,,,,,,0,,,80,0
205998,note_on,0,0,0,,,,,,,,,0,,,75,0
206160,note_on,0,0,1,,,,,,,,,0,,,63,60
206160,note_on,0,0,1,,,,,,,,,0,,,59,60
206160,note_on,162,0,1,,,,,,,,,0,,,56,60
206160,note_on,162,0,0,,,,,,,,,0,,,68,60
206160,note_on,0,0,0,,,,,,,,,0,,,75,60
206160,note_on,0,0,0,,,,,,,,,0,,,71,60
206238,note_on,0,0,0,,,,,,,,,0,,,75,0
206238,note_on,0,0,1,,,,,,,,,0,,,63,0
206238,note_on,78,0,1,,,,,,,,,0,,,56,0
206238,note_on,0,0,1,,,,,,,,,0,,,59,0
206238,note_on,78,0,0,,,,,,,,,0,,,68,0
206238,note_on,0,0,0,,,,,,,,,0,,,71,0
206520,note_on,282,0,1,,,,,,,,,0,,,51,60
206520,note_on,0,0,0,,,,,,,,,0,,,71,60
206520,note_on,0,0,0,,,,,,,,,0,,,68,60
206520,note_on,0,0,1,,,,,,,,,0,,,59,60
206520,note_on,282,0,0,,,,,,,,,0,,,63,60
206520,note_on,0,0,1,,,,,,,,,0,,,56,60
206558,note_on,0,0,1,,,,,,,,,0,,,59,0
206558,note_on,0,0,0,,,,,,,,,0,,,68,0
206558,note_on,0,0,0,,,,,,,,,0,,,71,0
206558,note_on,0,0,1,,,,,,,,,0,,,56,0
206558,note_on,38,0,1,,,,,,,,,0,,,51,0
206558,note_on,38,0,0,,,,,,,,,0,,,63,0
206640,note_on,0,0,0,,,,,,,,,0,,,68,60
206640,note_on,0,0,0,,,,,,,,,0,,,71,60
206640,note_on,0,0,1,,,,,,,,,0,,,59,60
206640,note_on,82,0,0,,,,,,,,,0,,,63,60
206640,note_on,0,0,1,,,,,,,,,0,,,56,60
206640,note_on,82,0,1,,,,,,,,,0,,,51,60
206718,note_on,0,0,1,,,,,,,,,0,,,59,0
206718,note_on,0,0,1,,,,,,,,,0,,,56,0
206718,note_on,78,0,1,,,,,,,,,0,,,51,0
206718,note_on,78,0,0,,,,,,,,,0,,,63,0
206718,note_on,0,0,0,,,,,,,,,0,,,68,0
206718,note_on,0,0,0,,,,,,,,,0,,,71,0
206880,note_on,0,0,1,,,,,,,,,0,,,59,60
206880,note_on,162,0,1,,,,,,,,,0,,,52,60
206880,note_on,162,0,0,,,,,,,,,0,,,76,60
206880,note_on,0,0,0,,,,,,,,,0,,,88,60
206880,note_on,0,0,1,,,,,,,,,0,,,64,60
206880,note_on,0,0,0,,,,,,,,,0,,,80,60
206958,note_on,0,0,0,,,,,,,,,0,,,88,0
206958,note_on,0,0,0,,,,,,,,,0,,,80,0
206958,note_on,0,0,1,,,,,,,,,0,,,59,0
206958,note_on,0,0,1,,,,,,,,,0,,,64,0
206958,note_on,78,0,0,,,,,,,,,0,,,76,0
206958,note_on,78,0,1,,,,,,,,,0,,,52,0
207240,note_on,0,0,1,,,,,,,,,0,,,59,60
207240,note_on,282,0,0,,,,,,,,,0,,,71,60
207240,note_on,282,0,1,,,,,,,,,0,,,56,60
207240,note_on,0,0,0,,,,,,,,,0,,,83,60
207240,note_on,0,0,0,,,,,,,,,0,,,76,60
207278,note_on,38,0,0,,,,,,,,,0,,,71,0
207278,note_on,0,0,0,,,,,,,,,0,,,76,0
207278,note_on,0,0,0,,,,,,,,,0,,,83,0
207278,note_on,0,0,1,,,,,,,,,0,,,59,0
207278,note_on,38,0,1,,,,,,,,,0,,,56,0
207360,note_on,0,0,0,,,,,,,,,0,,,76,60
207360,note_on,0,0,0,,,,,,,,,0,,,83,60
207360,note_on,82,0,1,,,,,,,,,0,,,56,60
207360,note_on,82,0,0,,,,,,,,,0,,,71,60
207360,note_on,0,0,1,,,,,,,,,0,,,59,60
207438,note_on,0,0,1,,,,,,,,,0,,,59,0
207438,note_on,0,0,0,,,,,,,,,0,,,83,0
207438,note_on,78,0,0,,,,,,,,,0,,,71,0
207438,note_on,0,0,0,,,,,,,,,0,,,76,0
207438,note_on,78,0,1,,,,,,,,,0,,,56,0
207600,note_on,0,0,0,,,,,,,,,0,,,71,60
207600,note_on,162,0,0,,,,,,,,,0,,,68,60
207600,note_on,0,0,1,,,,,,,,,0,,,64,60
207600,note_on,0,0,0,,,,,,,,,0,,,80,60
207600,note_on,162,0,1,,,,,,,,,0,,,59,60
207678,note_on,0,0,0,,,,,,,,,0,,,71,0
207678,note_on,0,0,0,,,,,,,,,0,,,80,0
207678,note_on,78,0,0,,,,,,,,,0,,,68,0
207678,note_on,0,0,1,,,,,,,,,0,,,64,0
207678,note_on,78,0,1,,,,,,,,,0,,,59,0
207960,note_on,282,0,0,,,,,,,,,0,,,64,60
207960,note_on,0,0,1,,,,,,,,,0,,,59,60
207960,note_on,0,0,0,,,,,,,,,0,,,76,60
207960,note_on,0,0,0,,,,,,,,,0,,,68,60
207960,note_on,282,0,1,,,,,,,,,0,,,56,60
207998,note_on,38,0,1,,,,,,,,,0,,,56,0
207998,note_on,0,0,0,,,,,,,,,0,,,76,0
207998,note_on,38,0,0,,,,,,,,,0,,,64,0
207998,note_on,0,0,1,,,,,,,,,0,,,59,0
207998,note_on,0,0,0,,,,,,,,,0,,,68,0
208080,note_on,82,0,1,,,,,,,,,0,,,56,60
208080,note_on,0,0,0,,,,,,,,,0,,,76,60
208080,note_on,0,0,0,,,,,,,,,0,,,68,60
208080,note_on,0,0,1,,,,,,,,,0,,,59,60
208080,note_on,82,0,0,,,,,,,,,0,,,64,60
208158,note_on,78,0,0,,,,,,,,,0,,,64,0
208158,note_on,0,0,1,,,,,,,,,0,,,59,0
208158,note_on,78,0,1,,,,,,,,,0,,,56,0
208158,note_on,0,0,0,,,,,,,,,0,,,68,0
208158,note_on,0,0,0,,,,,,,,,0,,,76,0
208320,note_on,162,0,1,,,,,,,,,0,,,45,60
208320,note_on,0,0,0,,,,,,,,,0,,,81,60
208320,note_on,0,0,0,,,,,,,,,0,,,88,60
208320,note_on,0,0,1,,,,,,,,,0,,,60,60
208320,note_on,0,0,1,,,,,,,,,0,,,52,60
208320,note_on,162,0,0,,,,,,,,,0,,,76,60
208398,note_on,0,0,1,,,,,,,,,0,,,52,0
208398,note_on,0,0,1,,,,,,,,,0,,,60,0
208398,note_on,0,0,0,,,,,,,,,0,,,81,0
208398,note_on,0,0,0,,,,,,,,,0,,,88,0
208398,note_on,78,0,0,,,,,,,,,0,,,76,0
208398,note_on,78,0,1,,,,,,,,,0,,,45,0
208680,note_on,282,0,1,,,,,,,,,0,,,57,60
208680,note_on,0,0,0,,,,,,,,,0,,,84,60
208680,note_on,0,0,1,,,,,,,,,0,,,60,60
208680,note_on,0,0,0,,,,,,,,,0,,,76,60
208680,note_on,282,0,0,,,,,,,,,0,,,72,60
208718,note_on,0,0,1,,,,,,,,,0,,,60,0
208718,note_on,0,0,0,,,,,,,,,0,,,76,0
208718,note_on,38,0,1,,,,,,,,,0,,,57,0
208718,note_on,38,0,0,,,,,,,,,0,,,72,0
208718,note_on,0,0,0,,,,,,,,,0,,,84,0
208800,note_on,0,0,0,,,,,,,,,0,,,76,60
208800,note_on,0,0,1,,,,,,,,,0,,,60,60
208800,note_on,82,0,0,,,,,,,,,0,,,72,60
208800,note_on,0,0,0,,,,,,,,,0,,,84,60
208800,note_on,82,0,1,,,,,,,,,0,,,57,60
208878,note_on,0,0,0,,,,,,,,,0,,,84,0
208878,note_on,0,0,0,,,,,,,,,0,,,76,0
208878,note_on,78,0,0,,,,,,,,,0,,,72,0
208878,note_on,78,0,1,,,,,,,,,0,,,57,0
208878,note_on,0,0,1,,,,,,,,,0,,,60,0
209040,note_on,0,0,0,,,,,,,,,0,,,81,60
209040,note_on,162,0,1,,,,,,,,,0,,,60,60
209040,note_on,0,0,1,,,,,,,,,0,,,64,60
209040,note_on,0,0,0,,,,,,,,,0,,,72,60
209040,note_on,162,0,0,,,,,,,,,0,,,69,60
209118,note_on,78,0,1,,,,,,,,,0,,,60,0
209118,note_on,0,0,0,,,,,,,,,0,,,81,0
209118,note_on,0,0,0,,,,,,,,,0,,,72,0
209118,note_on,78,0,0,,,,,,,,,0,,,69,0
209118,note_on,0,0,1,,,,,,,,,0,,,64,0
209400,note_on,282,0,0,,,,,,,,,0,,,64,60
209400,note_on,0,0,0,,,,,,,,,0,,,76,60
209400,note_on,0,0,0,,,,,,,,,0,,,69,60
209400,note_on,0,0,1,,,,,,,,,0,,,60,60
209400,note_on,282,0,1,,,,,,,,,0,,,57,60
209438,note_on,0,0,0,,,,,,,,,0,,,69,0
209438,note_on,38,0,1,,,,,,,,,0,,,57,0
209438,note_on,38,0,0,,,,,,,,,0,,,64,0
209438,note_on,0,0,0,,,,,,,,,0,,,76,0
209438,note_on,0,0,1,,,,,,,,,0,,,60,0
209520,note_on,82,0,0,,,,,,,,,0,,,64,60
209520,note_on,0,0,0,,,,,,,,,0,,,69,60
209520,note_on,0,0,0,,,,,,,,,0,,,76,60
209520,note_on,82,0,1,,,,,,,,,0,,,57,60
209520,note_on,0,0,1,,,,,,,,,0,,,60,60
209598,note_on,78,0,0,,,,,,,,,0,,,64,0
209598,note_on,78,0,1,,,,,,,,,0,,,57,0
209598,note_on,0,0,1,,,,,,,,,0,,,60,0
209598,note_on,0,0,0,,,,,,,,,0,,,76,0
209598,note_on,0,0,0,,,,,,,,,0,,,69,0
209760,note_on,0,0,0,,,,,,,,,0,,,81,60
209760,note_on,0,0,0,,,,,,,,,0,,,89,60
209760,note_on,162,0,0,,,,,,,,,0,,,77,60
209760,note_on,0,0,1,,,,,,,,,0,,,57,60
209760,note_on,162,0,1,,,,,,,,,0,,,41,60
209760,note_on,0,0,1,,,,,,,,,0,,,48,60
209838,note_on,0,0,1,,,,,,,,,0,,,57,0
209838,note_on,0,0,1,,,,,,,,,0,,,48,0
209838,note_on,78,0,0,,,,,,,,,0,,,77,0
209838,note_on,78,0,1,,,,,,,,,0,,,41,0
209838,note_on,0,0,0,,,,,,,,,0,,,81,0
209838,note_on,0,0,0,,,,,,,,,0,,,89,0
210120,note_on,282,0,0,,,,,,,,,0,,,72,60
210120,note_on,0,0,0,,,,,,,,,0,,,84,60
210120,note_on,0,0,0,,,,,,,,,0,,,77,60
210120,note_on,0,0,1,,,,,,,,,0,,,57,60
210120,note_on,282,0,1,,,,,,,,,0,,,53,60
210120,note_on,0,0,1,,,,,,,,,0,,,60,60
210158,note_on,0,0,0,,,,,,,,,0,,,84,0
210158,note_on,38,0,0,,,,,,,,,0,,,72,0
210158,note_on,38,0,1,,,,,,,,,0,,,53,0
210158,note_on,0,0,1,,,,,,,,,0,,,57,0
210158,note_on,0,0,0,,,,,,,,,0,,,77,0
210158,note_on,0,0,1,,,,,,,,,0,,,60,0
210240,note_on,0,0,1,,,,,,,,,0,,,57,60
210240,note_on,0,0,1,,,,,,,,,0,,,60,60
210240,note_on,82,0,1,,,,,,,,,0,,,53,60
210240,note_on,82,0,0,,,,,,,,,0,,,72,60
210240,note_on,0,0,0,,,,,,,,,0,,,84,60
210240,note_on,0,0,0,,,,,,,,,0,,,77,60
210318,note_on,78,0,0,,,,,,,,,0,,,72,0
210318,note_on,0,0,0,,,,,,,,,0,,,84,0
210318,note_on,0,0,0,,,,,,,,,0,,,77,0
210318,note_on,78,0,1,,,,,,,,,0,,,53,0
210318,note_on,0,0,1,,,,,,,,,0,,,57,0
210318,note_on,0,0,1,,,,,,,,,0,,,60,0
210480,note_on,0,0,1,,,,,,,,,0,,,65,60
210480,note_on,0,0,1,,,,,,,,,0,,,60,60
210480,note_on,162,0,0,,,,,,,,,0,,,69,60
210480,note_on,162,0,1,,,,,,,,,0,,,57,60
210480,note_on,0,0,0,,,,,,,,,0,,,81,60
210480,note_on,0,0,0,,,,,,,,,0,,,72,60
210558,note_on,78,0,0,,,,,,,,,0,,,69,0
210558,note_on,0,0,1,,,,,,,,,0,,,65,0
210558,note_on,0,0,1,,,,,,,,,0,,,60,0
210558,note_on,78,0,1,,,,,,,,,0,,,57,0
210558,note_on,0,0,0,,,,,,,,,0,,,81,0
210558,note_on,0,0,0,,,,,,,,,0,,,72,0
210840,note_on,282,0,0,,,,,,,,,0,,,65,60
210840,note_on,282,0,1,,,,,,,,,0,,,53,60
210840,note_on,0,0,1,,,,,,,,,0,,,60,60
210840,note_on,0,0,1,,,,,,,,,0,,,57,60
210840,note_on,0,0,0,,,,,,,,,0,,,77,60
210840,note_on,0,0,0,,,,,,,,,0,,,69,60
210878,note_on,0,0,1,,,,,,,,,0,,,60,0
210878,note_on,38,0,0,,,,,,,,,0,,,65,0
210878,note_on,38,0,1,,,,,,,,,0,,,53,0
210878,note_on,0,0,0,,,,,,,,,0,,,69,0
210878,note_on,0,0,0,,,,,,,,,0,,,77,0
210878,note_on,0,0,1,,,,,,,,,0,,,57,0
210960,note_on,0,0,1,,,,,,,,,0,,,60,60
210960,note_on,0,0,0,,,,,,,,,0,,,69,60
210960,note_on,0,0,0,,,,,,,,,0,,,77,60
210960,note_on,0,0,1,,,,,,,,,0,,,57,60
210960,note_on,82,0,0,,,,,,,,,0,,,65,60
210960,note_on,82,0,1,,,,,,,,,0,,,53,60
211038,note_on,78,0,1,,,,,,,,,0,,,53,0
211038,note_on,78,0,0,,,,,,,,,0,,,65,0
211038,note_on,0,0,0,,,,,,,,,0,,,69,0
211038,note_on,0,0,1,,,,,,,,,0,,,57,0
211038,note_on,0,0,1,,,,,,,,,0,,,60,0
211038,note_on,0,0,0,,,,,,,,,0,,,77,0
211200,note_on,162,0,1,,,,,,,,,0,,,49,60
211200,note_on,0,0,0,,,,,,,,,0,,,89,60
211200,note_on,0,0,1,,,,,,,,,0,,,56,60
211200,note_on,0,0,1,,,,,,,,,0,,,61,60
211200,note_on,0,0,0,,,,,,,,,0,,,80,60
211200,note_on,162,0,0,,,,,,,,,0,,,77,60
211278,note_on,0,0,1,,,,,,,,,0,,,61,0
211278,note_on,0,0,0,,,,,,,,,0,,,80,0
211278,note_on,78,0,0,,,,,,,,,0,,,77,0
211278,note_on,0,0,0,,,,,,,,,0,,,89,0
211278,note_on,0,0,1,,,,,,,,,0,,,56,0
211278,note_on,78,0,1,,,,,,,,,0,,,49,0
211560,note_on,0,0,1,,,,,,,,,0,,,65,60
211560,note_on,282,0,0,,,,,,,,,0,,,73,60
211560,note_on,0,0,0,,,,,,,,,0,,,85,60
211560,note_on,282,0,1,,,,,,,,,0,,,53,60
211598,note_on,0,0,0,,,,,,,,,0,,,85,0
211598,note_on,0,0,1,,,,,,,,,0,,,65,0
211598,note_on,38,0,0,,,,,,,,,0,,,73,0
211598,note_on,38,0,1,,,,,,,,,0,,,53,0
211680,note_on,0,0,1,,,,,,,,,0,,,65,60
211680,note_on,82,0,1,,,,,,,,,0,,,53,60
211680,note_on,0,0,0,,,,,,,,,0,,,85,60
211680,note_on,82,0,0,,,,,,,,,0,,,73,60
211758,note_on,0,0,1,,,,,,,,,0,,,65,0
211758,note_on,0,0,0,,,,,,,,,0,,,85,0
211758,note_on,78,0,0,,,,,,,,,0,,,73,0
211758,note_on,78,0,1,,,,,,,,,0,,,53,0
211920,note_on,0,0,0,,,,,,,,,0,,,89,60
211920,note_on,0,0,0,,,,,,,,,0,,,82,60
211920,note_on,162,0,0,,,,,,,,,0,,,77,60
211920,note_on,0,0,0,,,,,,,,,0,,,85,60
211920,note_on,0,0,1,,,,,,,,,0,,,58,60
211920,note_on,162,0,1,,,,,,,,,0,,,46,60
211998,note_on,78,0,1,,,,,,,,,0,,,46,0
211998,note_on,0,0,0,,,,,,,,,0,,,89,0
211998,note_on,0,0,0,,,,,,,,,0,,,85,0
211998,note_on,0,0,1,,,,,,,,,0,,,58,0
211998,note_on,0,0,0,,,,,,,,,0,,,82,0
211998,note_on,78,0,0,,,,,,,,,0,,,77,0
212280,note_on,282,0,0,,,,,,,,,0,,,73,60
212280,note_on,282,0,1,,,,,,,,,0,,,49,60
212280,note_on,0,0,0,,,,,,,,,0,,,85,60
212280,note_on,0,0,1,,,,,,,,,0,,,61,60
212318,note_on,38,0,1,,,,,,,,,0,,,49,0
212318,note_on,0,0,0,,,,,,,,,0,,,85,0
212318,note_on,0,0,1,,,,,,,,,0,,,61,0
212318,note_on,38,0,0,,,,,,,,,0,,,73,0
212400,note_on,0,0,1,,,,,,,,,0,,,61,60
212400,note_on,82,0,0,,,,,,,,,0,,,73,60
212400,note_on,82,0,1,,,,,,,,,0,,,49,60
212400,note_on,0,0,0,,,,,,,,,0,,,85,60
212478,note_on,78,0,1,,,,,,,,,0,,,49,0
212478,note_on,78,0,0,,,,,,,,,0,,,73,0
212478,note_on,0,0,0,,,,,,,,,0,,,85,0
212478,note_on,0,0,1,,,,,,,,,0,,,61,0
212640,note_on,0,0,0,,,,,,,,,0,,,82,60
212640,note_on,162,0,0,,,,,,,,,0,,,78,60
212640,note_on,0,0,0,,,,,,,,,0,,,85,60
212640,note_on,162,0,1,,,,,,,,,0,,,42,60
212640,note_on,0,0,1,,,,,,,,,0,,,54,60
212640,note_on,0,0,0,,,,,,,,,0,,,90,60
212718,note_on,78,0,0,,,,,,,,,0,,,78,0
212718,note_on,0,0,0,,,,,,,,,0,,,82,0
212718,note_on,0,0,0,,,,,,,,,0,,,85,0
212718,note_on,0,0,0,,,,,,,,,0,,,90,0
212718,note_on,0,0,1,,,,,,,,,0,,,54,0
212718,note_on,78,0,1,,,,,,,,,0,,,42,0
213000,note_on,282,0,0,,,,,,,,,0,,,73,60
213000,note_on,0,0,1,,,,,,,,,0,,,58,60
213000,note_on,282,0,1,,,,,,,,,0,,,46,60
213000,note_on,0,0,0,,,,,,,,,0,,,85,60
213038,note_on,38,0,0,,,,,,,,,0,,,73,0
213038,note_on,0,0,0,,,,,,,,,0,,,85,0
213038,note_on,0,0,1,,,,,,,,,0,,,58,0
213038,note_on,38,0,1,,,,,,,,,0,,,46,0
213120,note_on,0,0,0,,,,,,,,,0,,,85,60
213120,note_on,82,0,1,,,,,,,,,0,,,46,60
213120,note_on,0,0,1,,,,,,,,,0,,,58,60
213120,note_on,82,0,0,,,,,,,,,0,,,73,60
213198,note_on,0,0,1,,,,,,,,,0,,,58,0
213198,note_on,78,0,1,,,,,,,,,0,,,46,0
213198,note_on,0,0,0,,,,,,,,,0,,,85,0
213198,note_on,78,0,0,,,,,,,,,0,,,73,0
213360,note_on,0,0,1,,,,,,,,,0,,,51,60
213360,note_on,162,0,1,,,,,,,,,0,,,39,60
213360,note_on,0,0,0,,,,,,,,,0,,,82,60
213360,note_on,0,0,0,,,,,,,,,0,,,87,60
213360,note_on,0,0,0,,,,,,,,,0,,,90,60
213360,note_on,162,0,0,,,,,,,,,0,,,78,60
213438,note_on,0,0,0,,,,,,,,,0,,,87,0
213438,note_on,78,0,1,,,,,,,,,0,,,39,0
213438,note_on,78,0,0,,,,,,,,,0,,,78,0
213438,note_on,0,0,0,,,,,,,,,0,,,82,0
213438,note_on,0,0,1,,,,,,,,,0,,,51,0
213438,note_on,0,0,0,,,,,,,,,0,,,90,0
213720,note_on,0,0,1,,,,,,,,,0,,,54,60
213720,note_on,0,0,0,,,,,,,,,0,,,87,60
213720,note_on,282,0,0,,,,,,,,,0,,,75,60
213720,note_on,282,0,1,,,,,,,,,0,,,42,60
213758,note_on,38,0,1,,,,,,,,,0,,,42,0
213758,note_on,0,0,1,,,,,,,,,0,,,54,0
213758,note_on,0,0,0,,,,,,,,,0,,,87,0
213758,note_on,38,0,0,,,,,,,,,0,,,75,0
213840,note_on,0,0,1,,,,,,,,,0,,,54,60
213840,note_on,82,0,1,,,,,,,,,0,,,42,60
213840,note_on,0,0,0,,,,,,,,,0,,,87,60
213840,note_on,82,0,0,,,,,,,,,0,,,75,60
213918,note_on,78,0,1,,,,,,,,,0,,,42,0
213918,note_on,78,0,0,,,,,,,,,0,,,75,0
213918,note_on,0,0,0,,,,,,,,,0,,,87,0
213918,note_on,0,0,1,,,,,,,,,0,,,54,0
214080,note_on,0,0,0,,,,,,,,,0,,,87,60
214080,note_on,162,0,0,,,,,,,,,0,,,78,60
214080,note_on,0,0,1,,,,,,,,,0,,,35,60
214080,note_on,162,0,1,,,,,,,,,0,,,47,60
214135,note_on,55,0,0,,,,,,,,,0,,,78,0
214135,note_on,0,0,0,,,,,,,,,0,,,87,0
214139,note_on,4,0,0,,,,,,,,,0,,,90,60
214194,note_on,55,0,0,,,,,,,,,0,,,90,0
214199,note_on,0,0,0,,,,,,,,,0,,,87,60
214199,note_on,5,0,0,,,,,,,,,0,,,78,60
214254,note_on,55,0,0,,,,,,,,,0,,,78,0
214254,note_on,0,0,0,,,,,,,,,0,,,87,0
214259,note_on,5,0,0,,,,,,,,,0,,,90,60
214307,note_on,0,0,1,,,,,,,,,0,,,35,0
214307,note_on,227,0,1,,,,,,,,,0,,,47,0
214314,note_on,55,0,0,,,,,,,,,0,,,90,0
214319,note_on,0,0,0,,,,,,,,,0,,,87,60
214319,note_on,5,0,0,,,,,,,,,0,,,78,60
214320,note_on,13,0,1,,,,,,,,,0,,,54,60
214374,note_on,0,0,0,,,,,,,,,0,,,87,0
214374,note_on,55,0,0,,,,,,,,,0,,,78,0
214378,note_on,4,0,0,,,,,,,,,0,,,90,60
214398,note_on,78,0,1,,,,,,,,,0,,,54,0
214433,note_on,55,0,0,,,,,,,,,0,,,90,0
214438,note_on,5,0,0,,,,,,,,,0,,,78,60
214438,note_on,0,0,0,,,,,,,,,0,,,87,60
214493,note_on,55,0,0,,,,,,,,,0,,,78,0
214493,note_on,0,0,0,,,,,,,,,0,,,87,0
214498,note_on,5,0,0,,,,,,,,,0,,,90,60
214553,note_on,55,0,0,,,,,,,,,0,,,90,0
214558,note_on,5,0,0,,,,,,,,,0,,,78,60
214558,note_on,0,0,0,,,,,,,,,0,,,87,60
214560,note_on,162,0,1,,,,,,,,,0,,,52,60
214613,note_on,0,0,0,,,,,,,,,0,,,87,0
214613,note_on,55,0,0,,,,,,,,,0,,,78,0
214617,note_on,4,0,0,,,,,,,,,0,,,90,60
214638,note_on,78,0,1,,,,,,,,,0,,,52,0
214672,note_on,55,0,0,,,,,,,,,0,,,90,0
214677,note_on,0,0,0,,,,,,,,,0,,,87,60
214677,note_on,5,0,0,,,,,,,,,0,,,78,60
214732,note_on,55,0,0,,,,,,,,,0,,,78,0
214732,note_on,0,0,0,,,,,,,,,0,,,87,0
214737,note_on,5,0,0,,,,,,,,,0,,,90,60
214792,note_on,55,0,0,,,,,,,,,0,,,90,0
214797,note_on,0,0,0,,,,,,,,,0,,,87,60
214797,note_on,5,0,0,,,,,,,,,0,,,78,60
214800,note_on,162,0,1,,,,,,,,,0,,,51,60
214852,note_on,55,0,0,,,,,,,,,0,,,78,0
214852,note_on,0,0,0,,,,,,,,,0,,,87,0
214856,note_on,4,0,0,,,,,,,,,0,,,90,60
214878,note_on,78,0,1,,,,,,,,,0,,,51,0
214911,note_on,55,0,0,,,,,,,,,0,,,90,0
214916,note_on,5,0,0,,,,,,,,,0,,,78,60
214916,note_on,0,0,0,,,,,,,,,0,,,87,60
214971,note_on,55,0,0,,,,,,,,,0,,,78,0
214971,note_on,0,0,0,,,,,,,,,0,,,87,0
214976,note_on,5,0,0,,,,,,,,,0,,,90,60
215031,note_on,55,0,0,,,,,,,,,0,,,90,0
215036,note_on,0,0,0,,,,,,,,,0,,,87,60
215036,note_on,5,0,0,,,,,,,,,0,,,78,60
215040,note_on,162,0,1,,,,,,,,,0,,,49,60
215091,note_on,55,0,0,,,,,,,,,0,,,78,0
215091,note_on,0,0,0,,,,,,,,,0,,,87,0
215095,note_on,4,0,0,,,,,,,,,0,,,90,60
215118,note_on,78,0,1,,,,,,,,,0,,,49,0
215150,note_on,55,0,0,,,,,,,,,0,,,90,0
215155,note_on,5,0,0,,,,,,,,,0,,,78,60
215155,note_on,0,0,0,,,,,,,,,0,,,87,60
215210,note_on,0,0,0,,,,,,,,,0,,,87,0
215210,note_on,55,0,0,,,,,,,,,0,,,78,0
215215,note_on,5,0,0,,,,,,,,,0,,,90,60
215270,note_on,55,0,0,,,,,,,,,0,,,90,0
215275,note_on,0,0,0,,,,,,,,,0,,,87,60
215275,note_on,5,0,0,,,,,,,,,0,,,78,60
215280,note_on,162,0,1,,,,,,,,,0,,,47,60
215330,note_on,0,0,0,,,,,,,,,0,,,87,0
215330,note_on,55,0,0,,,,,,,,,0,,,78,0
215334,note_on,4,0,0,,,,,,,,,0,,,90,60
215358,note_on,78,0,1,,,,,,,,,0,,,47,0
215389,note_on,55,0,0,,,,,,,,,0,,,90,0
215394,note_on,5,0,0,,,,,,,,,0,,,78,60
215394,note_on,0,0,0,,,,,,,,,0,,,87,60
215449,note_on,55,0,0,,,,,,,,,0,,,78,0
215449,note_on,0,0,0,,,,,,,,,0,,,87,0
215454,note_on,5,0,0,,,,,,,,,0,,,90,60
215509,note_on,55,0,0,,,,,,,,,0,,,90,0
215520,note_on,11,0,0,,,,,,,,,0,,,80,60
215520,note_on,162,0,1,,,,,,,,,0,,,63,60
215520,note_on,0,0,1,,,,,,,,,0,,,71,60
215520,note_on,0,0,0,,,,,,,,,0,,,87,60
215575,note_on,55,0,0,,,,,,,,,0,,,80,0
215575,note_on,0,0,0,,,,,,,,,0,,,87,0
215579,note_on,4,0,0,,,,,,,,,0,,,92,60
215598,note_on,78,0,1,,,,,,,,,0,,,63,0
215598,note_on,0,0,1,,,,,,,,,0,,,71,0
215634,note_on,55,0,0,,,,,,,,,0,,,92,0
215639,note_on,5,0,0,,,,,,,,,0,,,80,60
215639,note_on,0,0,0,,,,,,,,,0,,,87,60
215694,note_on,0,0,0,,,,,,,,,0,,,87,0
215694,note_on,55,0,0,,,,,,,,,0,,,80,0
215699,note_on,5,0,0,,,,,,,,,0,,,92,60
215754,note_on,55,0,0,,,,,,,,,0,,,92,0
215759,note_on,5,0,0,,,,,,,,,0,,,80,60
215759,note_on,0,0,0,,,,,,,,,0,,,87,60
215814,note_on,0,0,0,,,,,,,,,0,,,87,0
215814,note_on,55,0,0,,,,,,,,,0,,,80,0
215818,note_on,4,0,0,,,,,,,,,0,,,92,60
215873,note_on,55,0,0,,,,,,,,,0,,,92,0
215878,note_on,5,0,0,,,,,,,,,0,,,80,60
215878,note_on,0,0,0,,,,,,,,,0,,,87,60
215880,note_on,282,0,1,,,,,,,,,0,,,59,60
215880,note_on,0,0,1,,,,,,,,,0,,,68,60
215918,note_on,38,0,1,,,,,,,,,0,,,59,0
215918,note_on,0,0,1,,,,,,,,,0,,,68,0
215933,note_on,55,0,0,,,,,,,,,0,,,80,0
215933,note_on,0,0,0,,,,,,,,,0,,,87,0
215938,note_on,5,0,0,,,,,,,,,0,,,92,60
215993,note_on,55,0,0,,,,,,,,,0,,,92,0
215998,note_on,5,0,0,,,,,,,,,0,,,80,60
215998,note_on,0,0,0,,,,,,,,,0,,,87,60
216000,note_on,0,0,1,,,,,,,,,0,,,68,60
216000,note_on,82,0,1,,,,,,,,,0,,,59,60
216053,note_on,55,0,0,,,,,,,,,0,,,80,0
216053,note_on,0,0,0,,,,,,,,,0,,,87,0
216057,note_on,4,0,0,,,,,,,,,0,,,92,60
216078,note_on,78,0,1,,,,,,,,,0,,,59,0
216078,note_on,0,0,1,,,,,,,,,0,,,68,0
216112,note_on,55,0,0,,,,,,,,,0,,,92,0
216117,note_on,5,0,0,,,,,,,,,0,,,80,60
216117,note_on,0,0,0,,,,,,,,,0,,,87,60
216172,note_on,0,0,0,,,,,,,,,0,,,87,0
216172,note_on,55,0,0,,,,,,,,,0,,,80,0
216177,note_on,5,0,0,,,,,,,,,0,,,92,60
216232,note_on,55,0,0,,,,,,,,,0,,,92,0
216237,note_on,0,0,0,,,,,,,,,0,,,87,60
216237,note_on,5,0,0,,,,,,,,,0,,,80,60
216240,note_on,0,0,1,,,,,,,,,0,,,63,60
216240,note_on,162,0,1,,,,,,,,,0,,,56,60
216292,note_on,0,0,0,,,,,,,,,0,,,87,0
216292,note_on,55,0,0,,,,,,,,,0,,,80,0
216296,note_on,4,0,0,,,,,,,,,0,,,92,60
216318,note_on,0,0,1,,,,,,,,,0,,,63,0
216318,note_on,78,0,1,,,,,,,,,0,,,56,0
216351,note_on,55,0,0,,,,,,,,,0,,,92,0
216356,note_on,0,0,0,,,,,,,,,0,,,87,60
216356,note_on,5,0,0,,,,,,,,,0,,,80,60
216411,note_on,55,0,0,,,,,,,,,0,,,80,0
216411,note_on,0,0,0,,,,,,,,,0,,,87,0
216416,note_on,5,0,0,,,,,,,,,0,,,92,60
216471,note_on,55,0,0,,,,,,,,,0,,,92,0
216476,note_on,5,0,0,,,,,,,,,0,,,80,60
216476,note_on,0,0,0,,,,,,,,,0,,,87,60
216531,note_on,55,0,0,,,,,,,,,0,,,80,0
216531,note_on,0,0,0,,,,,,,,,0,,,87,0
216535,note_on,4,0,0,,,,,,,,,0,,,92,60
216590,note_on,55,0,0,,,,,,,,,0,,,92,0
216595,note_on,5,0,0,,,,,,,,,0,,,80,60
216595,note_on,0,0,0,,,,,,,,,0,,,87,60
216600,note_on,282,0,1,,,,,,,,,0,,,51,60
216600,note_on,0,0,1,,,,,,,,,0,,,59,60
216638,note_on,38,0,1,,,,,,,,,0,,,51,0
216638,note_on,0,0,1,,,,,,,,,0,,,59,0
216650,note_on,55,0,0,,,,,,,,,0,,,80,0
216650,note_on,0,0,0,,,,,,,,,0,,,87,0
216655,note_on,5,0,0,,,,,,,,,0,,,92,60
216710,note_on,55,0,0,,,,,,,,,0,,,92,0
216715,note_on,0,0,0,,,,,,,,,0,,,87,60
216715,note_on,5,0,0,,,,,,,,,0,,,80,60
216720,note_on,0,0,1,,,,,,,,,0,,,59,60
216720,note_on,82,0,1,,,,,,,,,0,,,51,60
216770,note_on,0,0,0,,,,,,,,,0,,,87,0
216770,note_on,55,0,0,,,,,,,,,0,,,80,0
216774,note_on,4,0,0,,,,,,,,,0,,,92,60
216798,note_on,78,0,1,,,,,,,,,0,,,51,0
216798,note_on,0,0,1,,,,,,,,,0,,,59,0
216829,note_on,55,0,0,,,,,,,,,0,,,92,0
216834,note_on,0,0,0,,,,,,,,,0,,,87,60
216834,note_on,5,0,0,,,,,,,,,0,,,80,60
216889,note_on,55,0,0,,,,,,,,,0,,,80,0
216889,note_on,0,0,0,,,,,,,,,0,,,87,0
216894,note_on,5,0,0,,,,,,,,,0,,,92,60
216949,note_on,55,0,0,,,,,,,,,0,,,92,0
216960,note_on,11,0,0,,,,,,,,,0,,,83,60
216960,note_on,0,0,0,,,,,,,,,0,,,87,60
216960,note_on,0,0,1,,,,,,,,,0,,,32,60
216960,note_on,162,0,1,,,,,,,,,0,,,44,60
217015,note_on,55,0,0,,,,,,,,,0,,,83,0
217015,note_on,0,0,0,,,,,,,,,0,,,87,0
217019,note_on,4,0,0,,,,,,,,,0,,,95,60
217074,note_on,55,0,0,,,,,,,,,0,,,95,0
217079,note_on,0,0,0,,,,,,,,,0,,,87,60
217079,note_on,5,0,0,,,,,,,,,0,,,83,60
217134,note_on,55,0,0,,,,,,,,,0,,,83,0
217134,note_on,0,0,0,,,,,,,,,0,,,87,0
217139,note_on,5,0,0,,,,,,,,,0,,,95,60
217187,note_on,0,0,1,,,,,,,,,0,,,32,0
217187,note_on,227,0,1,,,,,,,,,0,,,44,0
217194,note_on,55,0,0,,,,,,,,,0,,,95,0
217199,note_on,5,0,0,,,,,,,,,0,,,83,60
217199,note_on,0,0,0,,,,,,,,,0,,,87,60
217200,note_on,13,0,1,,,,,,,,,0,,,51,60
217254,note_on,55,0,0,,,,,,,,,0,,,83,0
217254,note_on,0,0,0,,,,,,,,,0,,,87,0
217258,note_on,4,0,0,,,,,,,,,0,,,95,60
217278,note_on,78,0,1,,,,,,,,,0,,,51,0
217313,note_on,55,0,0,,,,,,,,,0,,,95,0
217318,note_on,5,0,0,,,,,,,,,0,,,83,60
217318,note_on,0,0,0,,,,,,,,,0,,,87,60
217373,note_on,55,0,0,,,,,,,,,0,,,83,0
217373,note_on,0,0,0,,,,,,,,,0,,,87,0
217378,note_on,5,0,0,,,,,,,,,0,,,95,60
217433,note_on,55,0,0,,,,,,,,,0,,,95,0
217438,note_on,5,0,0,,,,,,,,,0,,,83,60
217438,note_on,0,0,0,,,,,,,,,0,,,87,60
217440,note_on,162,0,1,,,,,,,,,0,,,49,60
217493,note_on,55,0,0,,,,,,,,,0,,,83,0
217493,note_on,0,0,0,,,,,,,,,0,,,87,0
217497,note_on,4,0,0,,,,,,,,,0,,,95,60
217518,note_on,78,0,1,,,,,,,,,0,,,49,0
217552,note_on,55,0,0,,,,,,,,,0,,,95,0
217557,note_on,5,0,0,,,,,,,,,0,,,83,60
217557,note_on,0,0,0,,,,,,,,,0,,,87,60
217612,note_on,0,0,0,,,,,,,,,0,,,87,0
217612,note_on,55,0,0,,,,,,,,,0,,,83,0
217617,note_on,5,0,0,,,,,,,,,0,,,95,60
217672,note_on,55,0,0,,,,,,,,,0,,,95,0
217677,note_on,5,0,0,,,,,,,,,0,,,83,60
217677,note_on,0,0,0,,,,,,,,,0,,,87,60
217680,note_on,162,0,1,,,,,,,,,0,,,47,60
217732,note_on,0,0,0,,,,,,,,,0,,,87,0
217732,note_on,55,0,0,,,,,,,,,0,,,83,0
217736,note_on,4,0,0,,,,,,,,,0,,,95,60
217758,note_on,78,0,1,,,,,,,,,0,,,47,0
217791,note_on,55,0,0,,,,,,,,,0,,,95,0
217796,note_on,0,0,0,,,,,,,,,0,,,87,60
217796,note_on,5,0,0,,,,,,,,,0,,,83,60
217851,note_on,0,0,0,,,,,,,,,0,,,87,0
217851,note_on,55,0,0,,,,,,,,,0,,,83,0
217856,note_on,5,0,0,,,,,,,,,0,,,95,60
217911,note_on,55,0,0,,,,,,,,,0,,,95,0
217916,note_on,5,0,0,,,,,,,,,0,,,83,60
217916,note_on,0,0,0,,,,,,,,,0,,,87,60
217920,note_on,162,0,1,,,,,,,,,0,,,46,60
217971,note_on,0,0,0,,,,,,,,,0,,,87,0
217971,note_on,55,0,0,,,,,,,,,0,,,83,0
217975,note_on,4,0,0,,,,,,,,,0,,,95,60
217998,note_on,78,0,1,,,,,,,,,0,,,46,0
218030,note_on,55,0,0,,,,,,,,,0,,,95,0
218035,note_on,5,0,0,,,,,,,,,0,,,83,60
218035,note_on,0,0,0,,,,,,,,,0,,,87,60
218090,note_on,55,0,0,,,,,,,,,0,,,83,0
218090,note_on,0,0,0,,,,,,,,,0,,,87,0
218095,note_on,5,0,0,,,,,,,,,0,,,95,60
218150,note_on,55,0,0,,,,,,,,,0,,,95,0
218155,note_on,0,0,0,,,,,,,,,0,,,87,60
218155,note_on,5,0,0,,,,,,,,,0,,,83,60
218160,note_on,162,0,1,,,,,,,,,0,,,44,60
218210,note_on,55,0,0,,,,,,,,,0,,,83,0
218210,note_on,0,0,0,,,,,,,,,0,,,87,0
218214,note_on,4,0,0,,,,,,,,,0,,,95,60
218238,note_on,78,0,1,,,,,,,,,0,,,44,0
218269,note_on,55,0,0,,,,,,,,,0,,,95,0
218274,note_on,0,0,0,,,,,,,,,0,,,87,60
218274,note_on,5,0,0,,,,,,,,,0,,,83,60
218329,note_on,55,0,0,,,,,,,,,0,,,83,0
218329,note_on,0,0,0,,,,,,,,,0,,,87,0
218334,note_on,5,0,0,,,,,,,,,0,,,95,60
218389,note_on,55,0,0,,,,,,,,,0,,,95,0
218400,note_on,0,0,1,,,,,,,,,0,,,71,60
218400,note_on,11,0,0,,,,,,,,,0,,,83,60
218400,note_on,0,0,0,,,,,,,,,0,,,86,60
218400,note_on,162,0,1,,,,,,,,,0,,,62,60
218455,note_on,55,0,0,,,,,,,,,0,,,83,0
218455,note_on,0,0,0,,,,,,,,,0,,,86,0
218459,note_on,4,0,0,,,,,,,,,0,,,95,60
218478,note_on,0,0,1,,,,,,,,,0,,,71,0
218478,note_on,78,0,1,,,,,,,,,0,,,62,0
218514,note_on,55,0,0,,,,,,,,,0,,,95,0
218519,note_on,0,0,0,,,,,,,,,0,,,86,60
218519,note_on,5,0,0,,,,,,,,,0,,,83,60
218574,note_on,0,0,0,,,,,,,,,0,,,86,0
218574,note_on,55,0,0,,,,,,,,,0,,,83,0
218579,note_on,5,0,0,,,,,,,,,0,,,95,60
218634,note_on,55,0,0,,,,,,,,,0,,,95,0
218639,note_on,0,0,0,,,,,,,,,0,,,86,60
218639,note_on,5,0,0,,,,,,,,,0,,,83,60
218694,note_on,0,0,0,,,,,,,,,0,,,86,0
218694,note_on,55,0,0,,,,,,,,,0,,,83,0
218698,note_on,4,0,0,,,,,,,,,0,,,95,60
218753,note_on,55,0,0,,,,,,,,,0,,,95,0
218758,note_on,5,0,0,,,,,,,,,0,,,83,60
218758,note_on,0,0,0,,,,,,,,,0,,,86,60
218760,note_on,282,0,1,,,,,,,,,0,,,59,60
218760,note_on,0,0,1,,,,,,,,,0,,,65,60
218798,note_on,0,0,1,,,,,,,,,0,,,65,0
218798,note_on,38,0,1,,,,,,,,,0,,,59,0
218813,note_on,0,0,0,,,,,,,,,0,,,86,0
218813,note_on,55,0,0,,,,,,,,,0,,,83,0
218818,note_on,5,0,0,,,,,,,,,0,,,95,60
218873,note_on,55,0,0,,,,,,,,,0,,,95,0
218878,note_on,0,0,0,,,,,,,,,0,,,86,60
218878,note_on,5,0,0,,,,,,,,,0,,,83,60
218880,note_on,0,0,1,,,,,,,,,0,,,65,60
218880,note_on,82,0,1,,,,,,,,,0,,,59,60
218933,note_on,55,0,0,,,,,,,,,0,,,83,0
218933,note_on,0,0,0,,,,,,,,,0,,,86,0
218937,note_on,4,0,0,,,,,,,,,0,,,95,60
218958,note_on,0,0,1,,,,,,,,,0,,,65,0
218958,note_on,78,0,1,,,,,,,,,0,,,59,0
218992,note_on,55,0,0,,,,,,,,,0,,,95,0
218997,note_on,5,0,0,,,,,,,,,0,,,83,60
218997,note_on,0,0,0,,,,,,,,,0,,,86,60
219052,note_on,0,0,0,,,,,,,,,0,,,86,0
219052,note_on,55,0,0,,,,,,,,,0,,,83,0
219057,note_on,5,0,0,,,,,,,,,0,,,95,60
219112,note_on,55,0,0,,,,,,,,,0,,,95,0
219117,note_on,5,0,0,,,,,,,,,0,,,83,60
219117,note_on,0,0,0,,,,,,,,,0,,,86,60
219120,note_on,162,0,1,,,,,,,,,0,,,53,60
219120,note_on,0,0,1,,,,,,,,,0,,,62,60
219172,note_on,55,0,0,,,,,,,,,0,,,83,0
219172,note_on,0,0,0,,,,,,,,,0,,,86,0
219176,note_on,4,0,0,,,,,,,,,0,,,95,60
219198,note_on,78,0,1,,,,,,,,,0,,,53,0
219198,note_on,0,0,1,,,,,,,,,0,,,62,0
219231,note_on,55,0,0,,,,,,,,,0,,,95,0
219236,note_on,0,0,0,,,,,,,,,0,,,86,60
219236,note_on,5,0,0,,,,,,,,,0,,,83,60
219291,note_on,55,0,0,,,,,,,,,0,,,83,0
219291,note_on,0,0,0,,,,,,,,,0,,,86,0
219296,note_on,5,0,0,,,,,,,,,0,,,95,60
219351,note_on,55,0,0,,,,,,,,,0,,,95,0
219356,note_on,5,0,0,,,,,,,,,0,,,83,60
219356,note_on,0,0,0,,,,,,,,,0,,,86,60
219411,note_on,0,0,0,,,,,,,,,0,,,86,0
219411,note_on,55,0,0,,,,,,,,,0,,,83,0
219415,note_on,4,0,0,,,,,,,,,0,,,95,60
219470,note_on,55,0,0,,,,,,,,,0,,,95,0
219475,note_on,0,0,0,,,,,,,,,0,,,86,60
219475,note_on,5,0,0,,,,,,,,,0,,,83,60
219480,note_on,0,0,1,,,,,,,,,0,,,59,60
219480,note_on,282,0,1,,,,,,,,,0,,,50,60
219518,note_on,0,0,1,,,,,,,,,0,,,59,0
219518,note_on,38,0,1,,,,,,,,,0,,,50,0
219530,note_on,55,0,0,,,,,,,,,0,,,83,0
219530,note_on,0,0,0,,,,,,,,,0,,,86,0
219535,note_on,5,0,0,,,,,,,,,0,,,95,60
219590,note_on,55,0,0,,,,,,,,,0,,,95,0
219595,note_on,5,0,0,,,,,,,,,0,,,83,60
219595,note_on,0,0,0,,,,,,,,,0,,,86,60
219600,note_on,0,0,1,,,,,,,,,0,,,59,60
219600,note_on,82,0,1,,,,,,,,,0,,,50,60
219650,note_on,55,0,0,,,,,,,,,0,,,83,0
219650,note_on,0,0,0,,,,,,,,,0,,,86,0
219654,note_on,4,0,0,,,,,,,,,0,,,95,60
219678,note_on,78,0,1,,,,,,,,,0,,,50,0
219678,note_on,0,0,1,,,,,,,,,0,,,59,0
219709,note_on,55,0,0,,,,,,,,,0,,,95,0
219714,note_on,5,0,0,,,,,,,,,0,,,83,60
219714,note_on,0,0,0,,,,,,,,,0,,,86,60
219769,note_on,55,0,0,,,,,,,,,0,,,83,0
219769,note_on,0,0,0,,,,,,,,,0,,,86,0
219774,note_on,5,0,0,,,,,,,,,0,,,95,60
219829,note_on,55,0,0,,,,,,,,,0,,,95,0
219840,note_on,162,0,1,,,,,,,,,0,,,44,60
219840,note_on,0,0,0,,,,,,,,,0,,,87,60
219840,note_on,0,0,1,,,,,,,,,0,,,56,60
219840,note_on,11,0,0,,,,,,,,,0,,,84,60
219895,note_on,0,0,0,,,,,,,,,0,,,87,0
219895,note_on,55,0,0,,,,,,,,,0,,,84,0
219899,note_on,4,0,0,,,,,,,,,0,,,96,60
219918,note_on,78,0,1,,,,,,,,,0,,,44,0
219918,note_on,0,0,1,,,,,,,,,0,,,56,0
219954,note_on,55,0,0,,,,,,,,,0,,,96,0
219959,note_on,5,0,0,,,,,,,,,0,,,84,61
219959,note_on,0,0,0,,,,,,,,,0,,,87,61
220014,note_on,0,0,0,,,,,,,,,0,,,87,0
220014,note_on,55,0,0,,,,,,,,,0,,,84,0
220019,note_on,5,0,0,,,,,,,,,0,,,96,62
220074,note_on,55,0,0,,,,,,,,,0,,,96,0
220079,note_on,0,0,0,,,,,,,,,0,,,87,62
220079,note_on,5,0,0,,,,,,,,,0,,,84,62
220134,note_on,0,0,0,,,,,,,,,0,,,87,0
220134,note_on,55,0,0,,,,,,,,,0,,,84,0
220138,note_on,4,0,0,,,,,,,,,0,,,96,63
220193,note_on,55,0,0,,,,,,,,,0,,,96,0
220198,note_on,0,0,0,,,,,,,,,0,,,87,64
220198,note_on,5,0,0,,,,,,,,,0,,,84,64
220200,note_on,282,0,1,,,,,,,,,0,,,39,64
220200,note_on,0,0,1,,,,,,,,,0,,,51,64
220238,note_on,38,0,1,,,,,,,,,0,,,39,0
220238,note_on,0,0,1,,,,,,,,,0,,,51,0
220253,note_on,0,0,0,,,,,,,,,0,,,87,0
220253,note_on,55,0,0,,,,,,,,,0,,,84,0
220258,note_on,5,0,0,,,,,,,,,0,,,96,64
220313,note_on,55,0,0,,,,,,,,,0,,,96,0
220318,note_on,0,0,0,,,,,,,,,0,,,87,65
220318,note_on,5,0,0,,,,,,,,,0,,,84,65
220320,note_on,0,0,1,,,,,,,,,0,,,51,65
220320,note_on,82,0,1,,,,,,,,,0,,,39,65
220373,note_on,0,0,0,,,,,,,,,0,,,87,0
220373,note_on,55,0,0,,,,,,,,,0,,,84,0
220377,note_on,4,0,0,,,,,,,,,0,,,96,66
220398,note_on,0,0,1,,,,,,,,,0,,,51,0
220398,note_on,78,0,1,,,,,,,,,0,,,39,0
220432,note_on,55,0,0,,,,,,,,,0,,,96,0
220437,note_on,0,0,0,,,,,,,,,0,,,87,66
220437,note_on,5,0,0,,,,,,,,,0,,,84,66
220492,note_on,0,0,0,,,,,,,,,0,,,87,0
220492,note_on,55,0,0,,,,,,,,,0,,,84,0
220497,note_on,5,0,0,,,,,,,,,0,,,96,67
220552,note_on,55,0,0,,,,,,,,,0,,,96,0
220560,note_on,0,0,1,,,,,,,,,0,,,56,68
220560,note_on,8,0,0,,,,,,,,,0,,,85,68
220560,note_on,0,0,0,,,,,,,,,0,,,88,68
220560,note_on,162,0,1,,,,,,,,,0,,,44,68
220615,note_on,0,0,0,,,,,,,,,0,,,88,0
220615,note_on,55,0,0,,,,,,,,,0,,,85,0
220619,note_on,4,0,0,,,,,,,,,0,,,97,68
220638,note_on,78,0,1,,,,,,,,,0,,,44,0
220638,note_on,0,0,1,,,,,,,,,0,,,56,0
220674,note_on,55,0,0,,,,,,,,,0,,,97,0
220679,note_on,5,0,0,,,,,,,,,0,,,85,69
220679,note_on,0,0,0,,,,,,,,,0,,,88,69
220734,note_on,55,0,0,,,,,,,,,0,,,85,0
220734,note_on,0,0,0,,,,,,,,,0,,,88,0
220739,note_on,5,0,0,,,,,,,,,0,,,97,70
220794,note_on,55,0,0,,,,,,,,,0,,,97,0
220799,note_on,0,0,0,,,,,,,,,0,,,88,70
220799,note_on,5,0,0,,,,,,,,,0,,,85,70
220854,note_on,55,0,0,,,,,,,,,0,,,85,0
220854,note_on,0,0,0,,,,,,,,,0,,,88,0
220858,note_on,4,0,0,,,,,,,,,0,,,97,71
220913,note_on,55,0,0,,,,,,,,,0,,,97,0
220918,note_on,5,0,0,,,,,,,,,0,,,85,72
220918,note_on,0,0,0,,,,,,,,,0,,,88,72
220920,note_on,0,0,1,,,,,,,,,0,,,49,72
220920,note_on,282,0,1,,,,,,,,,0,,,37,72
220958,note_on,0,0,1,,,,,,,,,0,,,49,0
220958,note_on,38,0,1,,,,,,,,,0,,,37,0
220973,note_on,55,0,0,,,,,,,,,0,,,85,0
220973,note_on,0,0,0,,,,,,,,,0,,,88,0
220978,note_on,5,0,0,,,,,,,,,0,,,97,73
221033,note_on,55,0,0,,,,,,,,,0,,,97,0
221038,note_on,0,0,0,,,,,,,,,0,,,88,73
221038,note_on,5,0,0,,,,,,,,,0,,,85,73
221040,note_on,0,0,1,,,,,,,,,0,,,49,73
221040,note_on,82,0,1,,,,,,,,,0,,,37,73
221093,note_on,55,0,0,,,,,,,,,0,,,85,0
221093,note_on,0,0,0,,,,,,,,,0,,,88,0
221097,note_on,4,0,0,,,,,,,,,0,,,97,74
221118,note_on,78,0,1,,,,,,,,,0,,,37,0
221118,note_on,0,0,1,,,,,,,,,0,,,49,0
221152,note_on,55,0,0,,,,,,,,,0,,,97,0
221157,note_on,5,0,0,,,,,,,,,0,,,85,75
221157,note_on,0,0,0,,,,,,,,,0,,,88,75
221212,note_on,55,0,0,,,,,,,,,0,,,85,0
221212,note_on,0,0,0,,,,,,,,,0,,,88,0
221217,note_on,5,0,0,,,,,,,,,0,,,97,75
221272,note_on,55,0,0,,,,,,,,,0,,,97,0
221280,note_on,8,0,0,,,,,,,,,0,,,86,76
221280,note_on,0,0,1,,,,,,,,,0,,,56,76
221280,note_on,0,0,0,,,,,,,,,0,,,89,76
221280,note_on,162,0,1,,,,,,,,,0,,,44,76
221335,note_on,55,0,0,,,,,,,,,0,,,86,0
221335,note_on,0,0,0,,,,,,,,,0,,,89,0
221339,note_on,4,0,0,,,,,,,,,0,,,98,77
221358,note_on,78,0,1,,,,,,,,,0,,,44,0
221358,note_on,0,0,1,,,,,,,,,0,,,56,0
221394,note_on,55,0,0,,,,,,,,,0,,,98,0
221399,note_on,5,0,0,,,,,,,,,0,,,86,77
221399,note_on,0,0,0,,,,,,,,,0,,,89,77
221454,note_on,55,0,0,,,,,,,,,0,,,86,0
221454,note_on,0,0,0,,,,,,,,,0,,,89,0
221459,note_on,5,0,0,,,,,,,,,0,,,98,78
221514,note_on,55,0,0,,,,,,,,,0,,,98,0
221519,note_on,0,0,0,,,,,,,,,0,,,89,79
221519,note_on,5,0,0,,,,,,,,,0,,,86,79
221574,note_on,0,0,0,,,,,,,,,0,,,89,0
221574,note_on,55,0,0,,,,,,,,,0,,,86,0
221578,note_on,4,0,0,,,,,,,,,0,,,98,79
221633,note_on,55,0,0,,,,,,,,,0,,,98,0
221638,note_on,0,0,0,,,,,,,,,0,,,89,80
221638,note_on,5,0,0,,,,,,,,,0,,,86,80
221640,note_on,282,0,1,,,,,,,,,0,,,35,80
221640,note_on,0,0,1,,,,,,,,,0,,,47,80
221678,note_on,0,0,1,,,,,,,,,0,,,47,0
221678,note_on,38,0,1,,,,,,,,,0,,,35,0
221693,note_on,0,0,0,,,,,,,,,0,,,89,0
221693,note_on,55,0,0,,,,,,,,,0,,,86,0
221698,note_on,5,0,0,,,,,,,,,0,,,98,81
221753,note_on,55,0,0,,,,,,,,,0,,,98,0
221758,note_on,5,0,0,,,,,,,,,0,,,86,81
221758,note_on,0,0,0,,,,,,,,,0,,,89,81
221760,note_on,0,0,1,,,,,,,,,0,,,47,82
221760,note_on,82,0,1,,,,,,,,,0,,,35,82
221813,note_on,0,0,0,,,,,,,,,0,,,89,0
221813,note_on,55,0,0,,,,,,,,,0,,,86,0
221817,note_on,4,0,0,,,,,,,,,0,,,98,82
221838,note_on,0,0,1,,,,,,,,,0,,,47,0
221838,note_on,78,0,1,,,,,,,,,0,,,35,0
221872,note_on,55,0,0,,,,,,,,,0,,,98,0
221877,note_on,5,0,0,,,,,,,,,0,,,86,83
221877,note_on,0,0,0,,,,,,,,,0,,,89,83
221932,note_on,0,0,0,,,,,,,,,0,,,89,0
221932,note_on,55,0,0,,,,,,,,,0,,,86,0
221937,note_on,5,0,0,,,,,,,,,0,,,98,84
221992,note_on,55,0,0,,,,,,,,,0,,,98,0
221997,note_on,0,0,0,,,,,,,,,0,,,89,84
221997,note_on,5,0,0,,,,,,,,,0,,,86,84
222000,note_on,162,0,1,,,,,,,,,0,,,44,84
222000,note_on,0,0,1,,,,,,,,,0,,,56,84
222052,note_on,55,0,0,,,,,,,,,0,,,86,0
222052,note_on,0,0,0,,,,,,,,,0,,,89,0
222056,note_on,4,0,0,,,,,,,,,0,,,98,85
222078,note_on,78,0,1,,,,,,,,,0,,,44,0
222078,note_on,0,0,1,,,,,,,,,0,,,56,0
222111,note_on,55,0,0,,,,,,,,,0,,,98,0
222116,note_on,5,0,0,,,,,,,,,0,,,86,86
222116,note_on,0,0,0,,,,,,,,,0,,,89,86
222171,note_on,0,0,0,,,,,,,,,0,,,89,0
222171,note_on,55,0,0,,,,,,,,,0,,,86,0
222176,note_on,5,0,0,,,,,,,,,0,,,98,86
222231,note_on,55,0,0,,,,,,,,,0,,,98,0
222236,note_on,5,0,0,,,,,,,,,0,,,86,87
222236,note_on,0,0,0,,,,,,,,,0,,,89,87
222291,note_on,55,0,0,,,,,,,,,0,,,86,0
222291,note_on,0,0,0,,,,,,,,,0,,,89,0
222295,note_on,4,0,0,,,,,,,,,0,,,98,88
222350,note_on,55,0,0,,,,,,,,,0,,,98,0
222355,note_on,0,0,0,,,,,,,,,0,,,89,88
222355,note_on,5,0,0,,,,,,,,,0,,,86,88
222360,note_on,282,0,1,,,,,,,,,0,,,34,88
222360,note_on,0,0,1,,,,,,,,,0,,,46,88
222398,note_on,38,0,1,,,,,,,,,0,,,34,0
222398,note_on,0,0,1,,,,,,,,,0,,,46,0
222410,note_on,0,0,0,,,,,,,,,0,,,89,0
222410,note_on,55,0,0,,,,,,,,,0,,,86,0
222415,note_on,5,0,0,,,,,,,,,0,,,98,89
222470,note_on,55,0,0,,,,,,,,,0,,,98,0
222475,note_on,5,0,0,,,,,,,,,0,,,86,90
222475,note_on,0,0,0,,,,,,,,,0,,,89,90
222480,note_on,82,0,1,,,,,,,,,0,,,34,90
222480,note_on,0,0,1,,,,,,,,,0,,,46,90
222530,note_on,55,0,0,,,,,,,,,0,,,86,0
222530,note_on,0,0,0,,,,,,,,,0,,,89,0
222534,note_on,4,0,0,,,,,,,,,0,,,98,90
222558,note_on,78,0,1,,,,,,,,,0,,,34,0
222558,note_on,0,0,1,,,,,,,,,0,,,46,0
222589,note_on,55,0,0,,,,,,,,,0,,,98,0
222594,note_on,0,0,0,,,,,,,,,0,,,89,91
222594,note_on,5,0,0,,,,,,,,,0,,,86,91
222649,note_on,0,0,0,,,,,,,,,0,,,89,0
222649,note_on,55,0,0,,,,,,,,,0,,,86,0
222654,note_on,5,0,0,,,,,,,,,0,,,98,92
222709,note_on,55,0,0,,,,,,,,,0,,,98,0
222720,note_on,11,0,0,,,,,,,,,0,,,86,93
222720,note_on,0,0,1,,,,,,,,,0,,,57,93
222720,note_on,0,0,0,,,,,,,,,0,,,89,93
222720,note_on,162,0,1,,,,,,,,,0,,,45,93
222775,note_on,0,0,0,,,,,,,,,0,,,89,0
222775,note_on,55,0,0,,,,,,,,,0,,,86,0
222779,note_on,4,0,0,,,,,,,,,0,,,98,93
222834,note_on,55,0,0,,,,,,,,,0,,,98,0
222839,note_on,0,0,0,,,,,,,,,0,,,89,94
222839,note_on,5,0,0,,,,,,,,,0,,,86,94
222894,note_on,55,0,0,,,,,,,,,0,,,86,0
222894,note_on,0,0,0,,,,,,,,,0,,,89,0
222899,note_on,5,0,0,,,,,,,,,0,,,98,95
222947,note_on,227,0,1,,,,,,,,,0,,,45,0
222947,note_on,0,0,1,,,,,,,,,0,,,57,0
222954,note_on,55,0,0,,,,,,,,,0,,,98,0
222959,note_on,0,0,0,,,,,,,,,0,,,89,95
222959,note_on,5,0,0,,,,,,,,,0,,,86,95
223014,note_on,0,0,0,,,,,,,,,0,,,89,0
223014,note_on,55,0,0,,,,,,,,,0,,,86,0
223018,note_on,4,0,0,,,,,,,,,0,,,98,96
223073,note_on,55,0,0,,,,,,,,,0,,,98,0
223078,note_on,0,0,0,,,,,,,,,0,,,89,97
223078,note_on,5,0,0,,,,,,,,,0,,,86,97
223080,note_on,0,0,1,,,,,,,,,0,,,45,97
223080,note_on,133,0,1,,,,,,,,,0,,,33,97
223133,note_on,0,0,0,,,,,,,,,0,,,89,0
223133,note_on,55,0,0,,,,,,,,,0,,,86,0
223138,note_on,5,0,0,,,,,,,,,0,,,98,97
223193,note_on,55,0,0,,,,,,,,,0,,,98,0
223193,note_on,0,0,1,,,,,,,,,0,,,45,0
223193,note_on,113,0,1,,,,,,,,,0,,,33,0
223198,note_on,5,0,0,,,,,,,,,0,,,86,98
223198,note_on,0,0,0,,,,,,,,,0,,,89,98
223200,note_on,7,0,1,,,,,,,,,0,,,33,98
223200,note_on,0,0,1,,,,,,,,,0,,,45,98
223253,note_on,0,0,0,,,,,,,,,0,,,89,0
223253,note_on,55,0,0,,,,,,,,,0,,,86,0
223257,note_on,4,0,0,,,,,,,,,0,,,98,99
223312,note_on,55,0,0,,,,,,,,,0,,,98,0
223317,note_on,5,0,0,,,,,,,,,0,,,86,99
223317,note_on,0,0,0,,,,,,,,,0,,,89,99
223372,note_on,0,0,0,,,,,,,,,0,,,89,0
223372,note_on,55,0,0,,,,,,,,,0,,,86,0
223377,note_on,5,0,0,,,,,,,,,0,,,98,100
223427,note_on,0,0,1,,,,,,,,,0,,,45,0
223427,note_on,227,0,1,,,,,,,,,0,,,33,0
223432,note_on,55,0,0,,,,,,,,,0,,,98,0
223437,note_on,5,0,0,,,,,,,,,0,,,86,101
223437,note_on,0,0,0,,,,,,,,,0,,,89,101
223440,note_on,0,0,1,,,,,,,,,0,,,58,101
223440,note_on,13,0,1,,,,,,,,,0,,,46,101
223492,note_on,0,0,0,,,,,,,,,0,,,89,0
223492,note_on,55,0,0,,,,,,,,,0,,,86,0
223496,note_on,4,0,0,,,,,,,,,0,,,98,101
223551,note_on,55,0,0,,,,,,,,,0,,,98,0
223556,note_on,0,0,0,,,,,,,,,0,,,89,102
223556,note_on,5,0,0,,,,,,,,,0,,,86,102
223611,note_on,0,0,0,,,,,,,,,0,,,89,0
223611,note_on,55,0,0,,,,,,,,,0,,,86,0
223616,note_on,5,0,0,,,,,,,,,0,,,98,103
223667,note_on,227,0,1,,,,,,,,,0,,,46,0
223667,note_on,0,0,1,,,,,,,,,0,,,58,0
223671,note_on,55,0,0,,,,,,,,,0,,,98,0
223676,note_on,5,0,0,,,,,,,,,0,,,86,103
223676,note_on,0,0,0,,,,,,,,,0,,,89,103
223731,note_on,0,0,0,,,,,,,,,0,,,89,0
223731,note_on,55,0,0,,,,,,,,,0,,,86,0
223735,note_on,4,0,0,,,,,,,,,0,,,98,104
223790,note_on,55,0,0,,,,,,,,,0,,,98,0
223795,note_on,0,0,0,,,,,,,,,0,,,89,105
223795,note_on,5,0,0,,,,,,,,,0,,,86,105
223800,note_on,133,0,1,,,,,,,,,0,,,32,105
223800,note_on,0,0,1,,,,,,,,,0,,,44,105
223850,note_on,55,0,0,,,,,,,,,0,,,86,0
223850,note_on,0,0,0,,,,,,,,,0,,,89,0
223855,note_on,5,0,0,,,,,,,,,0,,,98,106
223910,note_on,55,0,0,,,,,,,,,0,,,98,0
223913,note_on,113,0,1,,,,,,,,,0,,,32,0
223913,note_on,0,0,1,,,,,,,,,0,,,44,0
223915,note_on,0,0,0,,,,,,,,,0,,,89,106
223915,note_on,5,0,0,,,,,,,,,0,,,86,106
223920,note_on,7,0,1,,,,,,,,,0,,,32,106
223920,note_on,0,0,1,,,,,,,,,0,,,44,106
223970,note_on,55,0,0,,,,,,,,,0,,,86,0
223970,note_on,0,0,0,,,,,,,,,0,,,89,0
223974,note_on,4,0,0,,,,,,,,,0,,,98,107
224029,note_on,55,0,0,,,,,,,,,0,,,98,0
224034,note_on,5,0,0,,,,,,,,,0,,,86,108
224034,note_on,0,0,0,,,,,,,,,0,,,89,108
224089,note_on,0,0,0,,,,,,,,,0,,,89,0
224089,note_on,55,0,0,,,,,,,,,0,,,86,0
224094,note_on,5,0,0,,,,,,,,,0,,,98,108
224147,note_on,227,0,1,,,,,,,,,0,,,32,0
224147,note_on,0,0,1,,,,,,,,,0,,,44,0
224149,note_on,55,0,0,,,,,,,,,0,,,98,0
224160,note_on,0,0,0,,,,,,,,,0,,,89,109
224160,note_on,13,0,1,,,,,,,,,0,,,47,109
224160,set_tempo,11,1,0,,,,,,500000,,,,,,,
224160,note_on,0,0,1,,,,,,,,,0,,,59,109
224160,note_on,0,0,0,,,,,,,,,0,,,86,109
224215,note_on,55,0,0,,,,,,,,,0,,,86,0
224215,note_on,0,0,0,,,,,,,,,0,,,89,0
224219,note_on,4,0,0,,,,,,,,,0,,,98,110
224274,note_on,55,0,0,,,,,,,,,0,,,98,0
224279,note_on,0,0,0,,,,,,,,,0,,,89,110
224279,note_on,5,0,0,,,,,,,,,0,,,86,110
224334,note_on,0,0,0,,,,,,,,,0,,,89,0
224334,note_on,55,0,0,,,,,,,,,0,,,86,0
224339,note_on,5,0,0,,,,,,,,,0,,,98,111
224387,note_on,227,0,1,,,,,,,,,0,,,47,0
224387,note_on,0,0,1,,,,,,,,,0,,,59,0
224394,note_on,55,0,0,,,,,,,,,0,,,98,0
224399,note_on,5,0,0,,,,,,,,,0,,,86,112
224399,note_on,0,0,0,,,,,,,,,0,,,89,112
224454,note_on,0,0,0,,,,,,,,,0,,,89,0
224454,note_on,55,0,0,,,,,,,,,0,,,86,0
224458,note_on,4,0,0,,,,,,,,,0,,,98,112
224513,note_on,55,0,0,,,,,,,,,0,,,98,0
224518,note_on,5,0,0,,,,,,,,,0,,,86,113
224518,note_on,0,0,0,,,,,,,,,0,,,89,113
224520,note_on,0,0,1,,,,,,,,,0,,,44,113
224520,note_on,133,0,1,,,,,,,,,0,,,32,113
224573,note_on,0,0,0,,,,,,,,,0,,,89,0
224573,note_on,55,0,0,,,,,,,,,0,,,86,0
224578,note_on,5,0,0,,,,,,,,,0,,,98,114
224633,note_on,55,0,0,,,,,,,,,0,,,98,0
224633,note_on,113,0,1,,,,,,,,,0,,,32,0
224633,note_on,0,0,1,,,,,,,,,0,,,44,0
224638,note_on,0,0,0,,,,,,,,,0,,,89,114
224638,note_on,5,0,0,,,,,,,,,0,,,86,114
224640,note_on,0,0,1,,,,,,,,,0,,,44,115
224640,note_on,7,0,1,,,,,,,,,0,,,32,115
224693,note_on,55,0,0,,,,,,,,,0,,,86,0
224693,note_on,0,0,0,,,,,,,,,0,,,89,0
224697,note_on,4,0,0,,,,,,,,,0,,,98,115
224752,note_on,55,0,0,,,,,,,,,0,,,98,0
224757,note_on,0,0,0,,,,,,,,,0,,,89,116
224757,note_on,5,0,0,,,,,,,,,0,,,86,116
224812,note_on,55,0,0,,,,,,,,,0,,,86,0
224812,note_on,0,0,0,,,,,,,,,0,,,89,0
224817,note_on,5,0,0,,,,,,,,,0,,,98,117
224867,note_on,227,0,1,,,,,,,,,0,,,32,0
224867,note_on,0,0,1,,,,,,,,,0,,,44,0
224872,note_on,55,0,0,,,,,,,,,0,,,98,0
224880,note_on,0,0,0,,,,,,,,,0,,,87,117
224880,note_on,0,0,1,,,,,,,,,0,,,59,117
224880,set_tempo,8,1,0,,,,,,599999,,,,,,,
224880,note_on,13,0,1,,,,,,,,,0,,,47,117
224880,note_on,0,0,0,,,,,,,,,0,,,90,117
224935,note_on,0,0,0,,,,,,,,,0,,,90,0
224935,note_on,55,0,0,,,,,,,,,0,,,87,0
224939,note_on,4,0,0,,,,,,,,,0,,,99,118
224994,note_on,55,0,0,,,,,,,,,0,,,99,0
224999,note_on,0,0,0,,,,,,,,,0,,,90,119
224999,note_on,5,0,0,,,,,,,,,0,,,87,119
225054,note_on,0,0,0,,,,,,,,,0,,,90,0
225054,note_on,55,0,0,,,,,,,,,0,,,87,0
225059,note_on,5,0,0,,,,,,,,,0,,,99,119
225107,note_on,0,0,1,,,,,,,,,0,,,59,0
225107,note_on,227,0,1,,,,,,,,,0,,,47,0
225114,note_on,55,0,0,,,,,,,,,0,,,99,0
225119,note_on,0,0,0,,,,,,,,,0,,,90,120
225119,note_on,5,0,0,,,,,,,,,0,,,87,120
225174,note_on,55,0,0,,,,,,,,,0,,,87,0
225174,note_on,0,0,0,,,,,,,,,0,,,90,0
225178,note_on,4,0,0,,,,,,,,,0,,,99,121
225233,note_on,55,0,0,,,,,,,,,0,,,99,0
225238,note_on,5,0,0,,,,,,,,,0,,,87,121
225238,note_on,0,0,0,,,,,,,,,0,,,90,121
225240,note_on,0,0,1,,,,,,,,,0,,,43,121
225240,set_tempo,2,1,0,,,,,,666667,,,,,,,
225240,note_on,133,0,1,,,,,,,,,0,,,31,121
225293,note_on,0,0,0,,,,,,,,,0,,,90,0
225293,note_on,53,0,0,,,,,,,,,0,,,87,0
225298,note_on,5,0,0,,,,,,,,,0,,,99,122
225353,note_on,113,0,1,,,,,,,,,0,,,31,0
225353,note_on,0,0,1,,,,,,,,,0,,,43,0
225353,note_on,55,0,0,,,,,,,,,0,,,99,0
225358,note_on,0,0,0,,,,,,,,,0,,,90,123
225358,note_on,5,0,0,,,,,,,,,0,,,87,123
225360,note_on,0,0,1,,,,,,,,,0,,,43,123
225360,note_on,7,0,1,,,,,,,,,0,,,31,123
225413,note_on,55,0,0,,,,,,,,,0,,,87,0
225413,note_on,0,0,0,,,,,,,,,0,,,90,0
225417,note_on,4,0,0,,,,,,,,,0,,,99,123
225472,note_on,55,0,0,,,,,,,,,0,,,99,0
225477,note_on,0,0,0,,,,,,,,,0,,,90,124
225477,note_on,5,0,0,,,,,,,,,0,,,87,124
225532,note_on,0,0,0,,,,,,,,,0,,,90,0
225532,note_on,55,0,0,,,,,,,,,0,,,87,0
225537,note_on,5,0,0,,,,,,,,,0,,,99,125
225587,note_on,227,0,1,,,,,,,,,0,,,31,0
225587,note_on,0,0,1,,,,,,,,,0,,,43,0
225592,note_on,55,0,0,,,,,,,,,0,,,99,0
225600,set_tempo,0,1,0,,,,,,428572,,,,,,,
225600,note_on,0,0,0,,,,,,,,,0,,,96,126
225600,note_on,0,0,1,,,,,,,,,0,,,43,126
225600,note_on,0,0,1,,,,,,,,,0,,,36,126
225600,note_on,0,0,0,,,,,,,,,0,,,91,126
225600,note_on,0,0,1,,,,,,,,,0,,,48,126
225600,key_signature,8,1,0,,,,,C,,,,,,,,
225600,key_signature,13,1,1,,,,,C,,,,,,,,
225600,note_on,0,0,0,,,,,,,,,0,,,88,126
225600,note_on,0,0,1,,,,,,,,,0,,,40,126
225600,note_on,0,0,0,,,,,,,,,0,,,100,126
225602,control_change,2,0,1,,,,,,,64,127,0,,,,
225827,note_on,227,0,0,,,,,,,,,0,,,88,0
225827,note_on,0,0,1,,,,,,,,,0,,,43,0
225827,note_on,0,0,1,,,,,,,,,0,,,40,0
225827,note_on,0,0,0,,,,,,,,,0,,,100,0
225827,note_on,0,0,1,,,,,,,,,0,,,48,0
225827,note_on,0,0,0,,,,,,,,,0,,,96,0
225827,note_on,0,0,0,,,,,,,,,0,,,91,0
225827,note_on,225,0,1,,,,,,,,,0,,,36,0
225960,note_on,133,0,0,,,,,,,,,0,,,84,126
225960,note_on,0,0,1,,,,,,,,,0,,,48,126
225960,note_on,0,0,1,,,,,,,,,0,,,52,126
225960,note_on,133,0,1,,,,,,,,,0,,,40,126
225960,note_on,0,0,0,,,,,,,,,0,,,96,126
225960,note_on,0,0,0,,,,,,,,,0,,,91,126
225960,note_on,0,0,0,,,,,,,,,0,,,88,126
225960,note_on,0,0,1,,,,,,,,,0,,,43,126
226073,note_on,0,0,1,,,,,,,,,0,,,43,0
226073,note_on,0,0,1,,,,,,,,,0,,,48,0
226073,note_on,0,0,1,,,,,,,,,0,,,52,0
226073,note_on,113,0,1,,,,,,,,,0,,,40,0
226073,note_on,0,0,0,,,,,,,,,0,,,88,0
226073,note_on,0,0,0,,,,,,,,,0,,,96,0
226073,note_on,0,0,0,,,,,,,,,0,,,91,0
226073,note_on,113,0,0,,,,,,,,,0,,,84,0
226080,note_on,0,0,0,,,,,,,,,0,,,96,126
226080,note_on,7,0,0,,,,,,,,,0,,,84,126
226080,note_on,0,0,0,,,,,,,,,0,,,91,126
226080,note_on,0,0,1,,,,,,,,,0,,,52,126
226080,note_on,0,0,1,,,,,,,,,0,,,48,126
226080,note_on,0,0,1,,,,,,,,,0,,,43,126
226080,note_on,0,0,0,,,,,,,,,0,,,88,126
226080,note_on,7,0,1,,,,,,,,,0,,,40,126
226307,note_on,0,0,0,,,,,,,,,0,,,96,0
226307,note_on,0,0,0,,,,,,,,,0,,,91,0
226307,note_on,0,0,0,,,,,,,,,0,,,88,0
226307,note_on,227,0,0,,,,,,,,,0,,,84,0
226307,note_on,0,0,1,,,,,,,,,0,,,52,0
226307,note_on,0,0,1,,,,,,,,,0,,,48,0
226307,note_on,227,0,1,,,,,,,,,0,,,40,0
226307,note_on,0,0,1,,,,,,,,,0,,,43,0
226320,note_on,0,0,0,,,,,,,,,0,,,96,126
226320,note_on,0,0,1,,,,,,,,,0,,,52,126
226320,note_on,0,0,1,,,,,,,,,0,,,48,126
226320,note_on,0,0,1,,,,,,,,,0,,,43,126
226320,note_on,13,0,1,,,,,,,,,0,,,40,126
226320,note_on,0,0,0,,,,,,,,,0,,,91,126
226320,note_on,0,0,0,,,,,,,,,0,,,88,126
226320,note_on,13,0,0,,,,,,,,,0,,,84,126
226547,note_on,227,0,0,,,,,,,,,0,,,84,0
226547,note_on,227,0,1,,,,,,,,,0,,,40,0
226547,note_on,0,0,0,,,,,,,,,0,,,91,0
226547,note_on,0,0,0,,,,,,,,,0,,,88,0
226547,note_on,0,0,1,,,,,,,,,0,,,43,0
226547,note_on,0,0,1,,,,,,,,,0,,,48,0
226547,note_on,0,0,1,,,,,,,,,0,,,52,0
226547,note_on,0,0,0,,,,,,,,,0,,,96,0
226680,note_on,0,0,1,,,,,,,,,0,,,48,126
226680,note_on,133,0,0,,,,,,,,,0,,,79,126
226680,note_on,0,0,1,,,,,,,,,0,,,55,126
226680,note_on,133,0,1,,,,,,,,,0,,,43,126
226680,note_on,0,0,1,,,,,,,,,0,,,52,126
226680,note_on,0,0,0,,,,,,,,,0,,,91,126
226680,note_on,0,0,0,,,,,,,,,0,,,88,126
226680,note_on,0,0,0,,,,,,,,,0,,,84,126
226793,note_on,0,0,1,,,,,,,,,0,,,55,0
226793,note_on,0,0,0,,,,,,,,,0,,,91,0
226793,note_on,0,0,0,,,,,,,,,0,,,88,0
226793,note_on,0,0,1,,,,,,,,,0,,,52,0
226793,note_on,0,0,1,,,,,,,,,0,,,48,0
226793,note_on,0,0,0,,,,,,,,,0,,,84,0
226793,note_on,113,0,0,,,,,,,,,0,,,79,0
226793,note_on,113,0,1,,,,,,,,,0,,,43,0
226800,note_on,7,0,0,,,,,,,,,0,,,79,126
226800,note_on,0,0,1,,,,,,,,,0,,,55,126
226800,note_on,0,0,0,,,,,,,,,0,,,91,126
226800,note_on,0,0,0,,,,,,,,,0,,,88,126
226800,note_on,0,0,0,,,,,,,,,0,,,84,126
226800,note_on,0,0,1,,,,,,,,,0,,,52,126
226800,note_on,0,0,1,,,,,,,,,0,,,48,126
226800,note_on,7,0,1,,,,,,,,,0,,,43,126
227027,note_on,227,0,0,,,,,,,,,0,,,79,0
227027,note_on,0,0,1,,,,,,,,,0,,,48,0
227027,note_on,0,0,1,,,,,,,,,0,,,52,0
227027,note_on,0,0,1,,,,,,,,,0,,,55,0
227027,note_on,0,0,0,,,,,,,,,0,,,91,0
227027,note_on,227,0,1,,,,,,,,,0,,,43,0
227027,note_on,0,0,0,,,,,,,,,0,,,84,0
227027,note_on,0,0,0,,,,,,,,,0,,,88,0
227040,note_on,0,0,0,,,,,,,,,0,,,88,126
227040,note_on,0,0,0,,,,,,,,,0,,,84,126
227040,note_on,0,0,0,,,,,,,,,0,,,81,126
227040,note_on,13,0,0,,,,,,,,,0,,,76,126
227040,note_on,0,0,1,,,,,,,,,0,,,57,126
227040,note_on,0,0,1,,,,,,,,,0,,,52,126
227040,note_on,0,0,1,,,,,,,,,0,,,48,126
227040,note_on,13,0,1,,,,,,,,,0,,,45,126
227041,control_change,1,0,1,,,,,,,64,0,0,,,,
227042,control_change,1,0,1,,,,,,,64,127,0,,,,
227267,note_on,0,0,1,,,,,,,,,0,,,57,0
227267,note_on,0,0,0,,,,,,,,,0,,,84,0
227267,note_on,0,0,0,,,,,,,,,0,,,81,0
227267,note_on,0,0,0,,,,,,,,,0,,,88,0
227267,note_on,225,0,1,,,,,,,,,0,,,45,0
227267,note_on,0,0,1,,,,,,,,,0,,,48,0
227267,note_on,0,0,1,,,,,,,,,0,,,52,0
227267,note_on,227,0,0,,,,,,,,,0,,,76,0
227400,note_on,0,0,1,,,,,,,,,0,,,60,126
227400,note_on,0,0,1,,,,,,,,,0,,,57,126
227400,note_on,133,0,0,,,,,,,,,0,,,72,126
227400,note_on,0,0,1,,,,,,,,,0,,,52,126
227400,note_on,0,0,0,,,,,,,,,0,,,76,126
227400,note_on,0,0,0,,,,,,,,,0,,,84,126
227400,note_on,0,0,0,,,,,,,,,0,,,81,126
227400,note_on,133,0,1,,,,,,,,,0,,,48,126
227513,note_on,113,0,0,,,,,,,,,0,,,72,0
227513,note_on,0,0,0,,,,,,,,,0,,,84,0
227513,note_on,0,0,0,,,,,,,,,0,,,81,0
227513,note_on,0,0,0,,,,,,,,,0,,,76,0
227513,note_on,0,0,1,,,,,,,,,0,,,52,0
227513,note_on,0,0,1,,,,,,,,,0,,,57,0
227513,note_on,113,0,1,,,,,,,,,0,,,48,0
227513,note_on,0,0,1,,,,,,,,,0,,,60,0
227520,note_on,0,0,1,,,,,,,,,0,,,52,126
227520,note_on,7,0,0,,,,,,,,,0,,,72,126
227520,note_on,0,0,1,,,,,,,,,0,,,60,126
227520,note_on,0,0,1,,,,,,,,,0,,,57,126
227520,note_on,7,0,1,,,,,,,,,0,,,48,126
227520,note_on,0,0,0,,,,,,,,,0,,,81,126
227520,note_on,0,0,0,,,,,,,,,0,,,84,126
227520,note_on,0,0,0,,,,,,,,,0,,,76,126
227747,note_on,0,0,1,,,,,,,,,0,,,60,0
227747,note_on,0,0,1,,,,,,,,,0,,,57,0
227747,note_on,227,0,1,,,,,,,,,0,,,48,0
227747,note_on,227,0,0,,,,,,,,,0,,,72,0
227747,note_on,0,0,0,,,,,,,,,0,,,84,0
227747,note_on,0,0,1,,,,,,,,,0,,,52,0
227747,note_on,0,0,0,,,,,,,,,0,,,76,0
227747,note_on,0,0,0,,,,,,,,,0,,,81,0
227760,note_on,0,0,0,,,,,,,,,0,,,76,126
227760,note_on,0,0,1,,,,,,,,,0,,,60,126
227760,note_on,0,0,1,,,,,,,,,0,,,57,126
227760,note_on,13,0,0,,,,,,,,,0,,,72,126
227760,note_on,13,0,1,,,,,,,,,0,,,48,126
227760,note_on,0,0,1,,,,,,,,,0,,,52,126
227760,note_on,0,0,0,,,,,,,,,0,,,81,126
227760,note_on,0,0,0,,,,,,,,,0,,,84,126
228443,note_on,683,0,1,,,,,,,,,0,,,48,0
228443,note_on,683,0,0,,,,,,,,,0,,,72,0
228443,note_on,0,0,1,,,,,,,,,0,,,52,0
228443,note_on,0,0,1,,,,,,,,,0,,,60,0
228443,note_on,0,0,0,,,,,,,,,0,,,84,0
228443,note_on,0,0,0,,,,,,,,,0,,,81,0
228443,note_on,0,0,0,,,,,,,,,0,,,76,0
228443,note_on,0,0,1,,,,,,,,,0,,,57,0
228480,note_on,0,0,1,,,,,,,,,0,,,50,126
228480,note_on,0,0,1,,,,,,,,,0,,,55,126
228480,note_on,37,0,1,,,,,,,,,0,,,43,126
228480,note_on,0,0,0,,,,,,,,,0,,,79,126
228480,note_on,0,0,0,,,,,,,,,0,,,83,126
228480,note_on,0,0,0,,,,,,,,,0,,,91,126
228480,note_on,37,0,0,,,,,,,,,0,,,77,126
228481,control_change,1,0,1,,,,,,,64,0,0,,,,
228482,control_change,1,0,1,,,,,,,64,127,0,,,,
228707,note_on,227,0,0,,,,,,,,,0,,,77,0
228707,note_on,0,0,1,,,,,,,,,0,,,55,0
228707,note_on,0,0,1,,,,,,,,,0,,,50,0
228707,note_on,0,0,0,,,,,,,,,0,,,91,0
228707,note_on,225,0,1,,,,,,,,,0,,,43,0
228707,note_on,0,0,0,,,,,,,,,0,,,79,0
228707,note_on,0,0,0,,,,,,,,,0,,,83,0
228840,note_on,0,0,0,,,,,,,,,0,,,79,126
228840,note_on,0,0,0,,,,,,,,,0,,,86,126
228840,note_on,133,0,0,,,,,,,,,0,,,74,126
228840,note_on,0,0,1,,,,,,,,,0,,,59,126
228840,note_on,0,0,1,,,,,,,,,0,,,65,126
228840,note_on,133,0,1,,,,,,,,,0,,,55,126
228953,note_on,113,0,1,,,,,,,,,0,,,55,0
228953,note_on,0,0,1,,,,,,,,,0,,,59,0
228953,note_on,0,0,0,,,,,,,,,0,,,86,0
228953,note_on,113,0,0,,,,,,,,,0,,,74,0
228953,note_on,0,0,0,,,,,,,,,0,,,79,0
228953,note_on,0,0,1,,,,,,,,,0,,,65,0
228960,note_on,7,0,0,,,,,,,,,0,,,74,126
228960,note_on,0,0,0,,,,,,,,,0,,,79,126
228960,note_on,0,0,1,,,,,,,,,0,,,65,126
228960,note_on,0,0,1,,,,,,,,,0,,,59,126
228960,note_on,7,0,1,,,,,,,,,0,,,55,126
228960,note_on,0,0,0,,,,,,,,,0,,,86,126
229187,note_on,0,0,1,,,,,,,,,0,,,65,0
229187,note_on,0,0,1,,,,,,,,,0,,,59,0
229187,note_on,227,0,1,,,,,,,,,0,,,55,0
229187,note_on,0,0,0,,,,,,,,,0,,,86,0
229187,note_on,0,0,0,,,,,,,,,0,,,79,0
229187,note_on,227,0,0,,,,,,,,,0,,,74,0
229200,note_on,0,0,1,,,,,,,,,0,,,65,126
229200,note_on,13,0,0,,,,,,,,,0,,,73,126
229200,note_on,0,0,0,,,,,,,,,0,,,85,126
229200,note_on,0,0,0,,,,,,,,,0,,,79,126
229200,note_on,0,0,1,,,,,,,,,0,,,58,126
229200,note_on,13,0,1,,,,,,,,,0,,,55,126
229278,note_on,0,0,0,,,,,,,,,0,,,79,0
229278,note_on,0,0,0,,,,,,,,,0,,,85,0
229278,note_on,0,0,1,,,,,,,,,0,,,58,0
229278,note_on,0,0,1,,,,,,,,,0,,,65,0
229278,note_on,78,0,1,,,,,,,,,0,,,55,0
229278,note_on,78,0,0,,,,,,,,,0,,,73,0
229440,note_on,162,0,0,,,,,,,,,0,,,74,126
229440,note_on,0,0,1,,,,,,,,,0,,,65,126
229440,note_on,0,0,1,,,,,,,,,0,,,59,126
229440,note_on,162,0,1,,,,,,,,,0,,,55,126
229440,note_on,0,0,0,,,,,,,,,0,,,86,126
229440,note_on,0,0,0,,,,,,,,,0,,,79,126
229518,note_on,0,0,0,,,,,,,,,0,,,86,0
229518,note_on,0,0,0,,,,,,,,,0,,,79,0
229518,note_on,0,0,1,,,,,,,,,0,,,65,0
229518,note_on,0,0,1,,,,,,,,,0,,,59,0
229518,note_on,78,0,0,,,,,,,,,0,,,74,0
229518,note_on,78,0,1,,,,,,,,,0,,,55,0
229680,note_on,0,0,0,,,,,,,,,0,,,79,126
229680,note_on,162,0,0,,,,,,,,,0,,,75,126
229680,note_on,162,0,1,,,,,,,,,0,,,55,126
229680,note_on,0,0,1,,,,,,,,,0,,,65,126
229680,note_on,0,0,1,,,,,,,,,0,,,59,126
229680,note_on,0,0,0,,,,,,,,,0,,,87,126
229681,control_change,1,0,1,,,,,,,64,0,0,,,,
229758,note_on,0,0,1,,,,,,,,,0,,,65,0
229758,note_on,0,0,0,,,,,,,,,0,,,87,0
229758,note_on,77,0,1,,,,,,,,,0,,,55,0
229758,note_on,0,0,0,,,,,,,,,0,,,79,0
229758,note_on,0,0,1,,,,,,,,,0,,,59,0
229758,note_on,78,0,0,,,,,,,,,0,,,75,0
229920,note_on,0,0,1,,,,,,,,,0,,,64,127
229920,note_on,162,0,0,,,,,,,,,0,,,76,127
229920,note_on,162,0,1,,,,,,,,,0,,,60,127
229920,note_on,0,0,0,,,,,,,,,0,,,79,127
229920,note_on,0,0,0,,,,,,,,,0,,,88,127
229922,control_change,2,0,1,,,,,,,64,127,0,,,,
230401,note_on,0,0,0,,,,,,,,,0,,,79,0
230401,note_on,0,0,0,,,,,,,,,0,,,88,0
230401,note_on,0,0,1,,,,,,,,,0,,,64,0
230401,note_on,481,0,0,,,,,,,,,0,,,76,0
230401,note_on,479,0,1,,,,,,,,,0,,,60,0
230640,note_on,239,0,0,,,,,,,,,0,,,72,126
230640,note_on,0,0,0,,,,,,,,,0,,,79,126
230640,note_on,0,0,0,,,,,,,,,0,,,84,126
230640,note_on,0,0,1,,,,,,,,,0,,,67,126
230640,note_on,239,0,1,,,,,,,,,0,,,64,126
230759,note_on,0,0,1,,,,,,,,,0,,,67,0
230759,note_on,119,0,0,,,,,,,,,0,,,72,0
230759,note_on,0,0,0,,,,,,,,,0,,,84,0
230759,note_on,119,0,1,,,,,,,,,0,,,64,0
230759,note_on,0,0,0,,,,,,,,,0,,,79,0
230881,control_change,122,0,1,,,,,,,64,0,0,,,,
231360,note_on,0,0,1,,,,,,,,,0,,,43,126
231360,note_on,479,0,1,,,,,,,,,0,,,36,126
231360,note_on,0,0,0,,,,,,,,,0,,,100,126
231360,note_on,0,0,0,,,,,,,,,0,,,91,126
231360,note_on,0,0,0,,,,,,,,,0,,,96,126
231360,note_on,601,0,0,,,,,,,,,0,,,88,126
231360,note_on,0,0,1,,,,,,,,,0,,,40,126
231360,note_on,0,0,1,,,,,,,,,0,,,48,126
231362,control_change,2,0,1,,,,,,,64,127,0,,,,
231587,note_on,225,0,1,,,,,,,,,0,,,36,0
231587,note_on,0,0,1,,,,,,,,,0,,,43,0
231587,note_on,0,0,1,,,,,,,,,0,,,48,0
231587,note_on,0,0,0,,,,,,,,,0,,,91,0
231587,note_on,227,0,0,,,,,,,,,0,,,88,0
231587,note_on,0,0,0,,,,,,,,,0,,,96,0
231587,note_on,0,0,1,,,,,,,,,0,,,40,0
231587,note_on,0,0,0,,,,,,,,,0,,,100,0
231720,note_on,0,0,0,,,,,,,,,0,,,88,126
231720,note_on,0,0,0,,,,,,,,,0,,,96,126
231720,note_on,0,0,0,,,,,,,,,0,,,91,126
231720,note_on,0,0,1,,,,,,,,,0,,,43,126
231720,note_on,133,0,0,,,,,,,,,0,,,84,126
231720,note_on,0,0,1,,,,,,,,,0,,,52,126
231720,note_on,0,0,1,,,,,,,,,0,,,48,126
231720,note_on,133,0,1,,,,,,,,,0,,,40,126
231833,note_on,113,0,1,,,,,,,,,0,,,40,0
231833,note_on,113,0,0,,,,,,,,,0,,,84,0
231833,note_on,0,0,1,,,,,,,,,0,,,48,0
231833,note_on,0,0,0,,,,,,,,,0,,,96,0
231833,note_on,0,0,1,,,,,,,,,0,,,52,0
231833,note_on,0,0,0,,,,,,,,,0,,,88,0
231833,note_on,0,0,1,,,,,,,,,0,,,43,0
231833,note_on,0,0,0,,,,,,,,,0,,,91,0
231840,note_on,0,0,0,,,,,,,,,0,,,88,126
231840,note_on,0,0,0,,,,,,,,,0,,,91,126
231840,note_on,0,0,0,,,,,,,,,0,,,96,126
231840,note_on,0,0,1,,,,,,,,,0,,,43,126
231840,note_on,7,0,0,,,,,,,,,0,,,84,126
231840,note_on,0,0,1,,,,,,,,,0,,,48,126
231840,note_on,7,0,1,,,,,,,,,0,,,40,126
231840,note_on,0,0,1,,,,,,,,,0,,,52,126
232067,note_on,227,0,0,,,,,,,,,0,,,84,0
232067,note_on,0,0,1,,,,,,,,,0,,,52,0
232067,note_on,0,0,1,,,,,,,,,0,,,48,0
232067,note_on,227,0,1,,,,,,,,,0,,,40,0
232067,note_on,0,0,0,,,,,,,,,0,,,91,0
232067,note_on,0,0,0,,,,,,,,,0,,,88,0
232067,note_on,0,0,1,,,,,,,,,0,,,43,0
232067,note_on,0,0,0,,,,,,,,,0,,,96,0
232080,note_on,13,0,0,,,,,,,,,0,,,84,126
232080,note_on,0,0,0,,,,,,,,,0,,,96,126
232080,note_on,0,0,0,,,,,,,,,0,,,91,126
232080,note_on,0,0,0,,,,,,,,,0,,,88,126
232080,note_on,13,0,1,,,,,,,,,0,,,40,126
232080,note_on,0,0,1,,,,,,,,,0,,,52,126
232080,note_on,0,0,1,,,,,,,,,0,,,48,126
232080,note_on,0,0,1,,,,,,,,,0,,,43,126
232307,note_on,0,0,0,,,,,,,,,0,,,96,0
232307,note_on,0,0,0,,,,,,,,,0,,,88,0
232307,note_on,227,0,0,,,,,,,,,0,,,84,0
232307,note_on,0,0,1,,,,,,,,,0,,,43,0
232307,note_on,227,0,1,,,,,,,,,0,,,40,0
232307,note_on,0,0,0,,,,,,,,,0,,,91,0
232307,note_on,0,0,1,,,,,,,,,0,,,52,0
232307,note_on,0,0,1,,,,,,,,,0,,,48,0
232440,note_on,0,0,1,,,,,,,,,0,,,48,126
232440,note_on,133,0,0,,,,,,,,,0,,,79,126
232440,note_on,0,0,1,,,,,,,,,0,,,52,126
232440,note_on,0,0,0,,,,,,,,,0,,,88,126
232440,note_on,0,0,0,,,,,,,,,0,,,91,126
232440,note_on,0,0,1,,,,,,,,,0,,,55,126
232440,note_on,0,0,0,,,,,,,,,0,,,84,126
232440,note_on,133,0,1,,,,,,,,,0,,,43,126
232553,note_on,0,0,0,,,,,,,,,0,,,84,0
232553,note_on,0,0,0,,,,,,,,,0,,,88,0
232553,note_on,0,0,0,,,,,,,,,0,,,91,0
232553,note_on,0,0,1,,,,,,,,,0,,,55,0
232553,note_on,113,0,0,,,,,,,,,0,,,79,0
232553,note_on,0,0,1,,,,,,,,,0,,,52,0
232553,note_on,0,0,1,,,,,,,,,0,,,48,0
232553,note_on,113,0,1,,,,,,,,,0,,,43,0
232560,note_on,0,0,0,,,,,,,,,0,,,84,126
232560,note_on,0,0,0,,,,,,,,,0,,,88,126
232560,note_on,0,0,0,,,,,,,,,0,,,91,126
232560,note_on,7,0,0,,,,,,,,,0,,,79,126
232560,note_on,7,0,1,,,,,,,,,0,,,43,126
232560,note_on,0,0,1,,,,,,,,,0,,,48,126
232560,note_on,0,0,1,,,,,,,,,0,,,52,126
232560,note_on,0,0,1,,,,,,,,,0,,,55,126
232787,note_on,0,0,0,,,,,,,,,0,,,91,0
232787,note_on,227,0,0,,,,,,,,,0,,,79,0
232787,note_on,0,0,0,,,,,,,,,0,,,88,0
232787,note_on,0,0,0,,,,,,,,,0,,,84,0
232787,note_on,227,0,1,,,,,,,,,0,,,43,0
232787,note_on,0,0,1,,,,,,,,,0,,,48,0
232787,note_on,0,0,1,,,,,,,,,0,,,52,0
232787,note_on,0,0,1,,,,,,,,,0,,,55,0
232800,note_on,0,0,0,,,,,,,,,0,,,88,126
232800,note_on,0,0,0,,,,,,,,,0,,,84,126
232800,note_on,0,0,0,,,,,,,,,0,,,81,126
232800,note_on,0,0,1,,,,,,,,,0,,,48,126
232800,note_on,0,0,1,,,,,,,,,0,,,52,126
232800,note_on,0,0,1,,,,,,,,,0,,,57,126
232800,note_on,13,0,0,,,,,,,,,0,,,76,126
232800,note_on,13,0,1,,,,,,,,,0,,,45,126
232801,control_change,1,0,1,,,,,,,64,0,0,,,,
232802,control_change,1,0,1,,,,,,,64,127,0,,,,
233027,note_on,0,0,1,,,,,,,,,0,,,48,0
233027,note_on,0,0,1,,,,,,,,,0,,,52,0
233027,note_on,0,0,1,,,,,,,,,0,,,57,0
233027,note_on,225,0,1,,,,,,,,,0,,,45,0
233027,note_on,227,0,0,,,,,,,,,0,,,76,0
233027,note_on,0,0,0,,,,,,,,,0,,,81,0
233027,note_on,0,0,0,,,,,,,,,0,,,84,0
233027,note_on,0,0,0,,,,,,,,,0,,,88,0
233160,note_on,0,0,0,,,,,,,,,0,,,76,126
233160,note_on,133,0,0,,,,,,,,,0,,,72,126
233160,note_on,0,0,0,,,,,,,,,0,,,81,126
233160,note_on,0,0,0,,,,,,,,,0,,,84,126
233160,note_on,133,0,1,,,,,,,,,0,,,48,126
233160,note_on,0,0,1,,,,,,,,,0,,,57,126
233160,note_on,0,0,1,,,,,,,,,0,,,60,126
233160,note_on,0,0,1,,,,,,,,,0,,,52,126
233273,note_on,0,0,0,,,,,,,,,0,,,81,0
233273,note_on,0,0,0,,,,,,,,,0,,,76,0
233273,note_on,0,0,1,,,,,,,,,0,,,52,0
233273,note_on,0,0,1,,,,,,,,,0,,,57,0
233273,note_on,0,0,1,,,,,,,,,0,,,60,0
233273,note_on,113,0,0,,,,,,,,,0,,,72,0
233273,note_on,113,0,1,,,,,,,,,0,,,48,0
233273,note_on,0,0,0,,,,,,,,,0,,,84,0
233280,note_on,7,0,0,,,,,,,,,0,,,72,126
233280,note_on,0,0,0,,,,,,,,,0,,,76,126
233280,note_on,0,0,0,,,,,,,,,0,,,81,126
233280,note_on,0,0,1,,,,,,,,,0,,,52,126
233280,note_on,0,0,1,,,,,,,,,0,,,57,126
233280,note_on,0,0,1,,,,,,,,,0,,,60,126
233280,note_on,7,0,1,,,,,,,,,0,,,48,126
233280,note_on,0,0,0,,,,,,,,,0,,,84,126
233507,note_on,0,0,1,,,,,,,,,0,,,57,0
233507,note_on,227,0,0,,,,,,,,,0,,,72,0
233507,note_on,227,0,1,,,,,,,,,0,,,48,0
233507,note_on,0,0,1,,,,,,,,,0,,,60,0
233507,note_on,0,0,0,,,,,,,,,0,,,76,0
233507,note_on,0,0,0,,,,,,,,,0,,,84,0
233507,note_on,0,0,1,,,,,,,,,0,,,52,0
233507,note_on,0,0,0,,,,,,,,,0,,,81,0
233520,note_on,13,0,0,,,,,,,,,0,,,72,126
233520,note_on,0,0,1,,,,,,,,,0,,,60,126
233520,note_on,13,0,1,,,,,,,,,0,,,48,126
233520,note_on,0,0,1,,,,,,,,,0,,,52,126
233520,note_on,0,0,0,,,,,,,,,0,,,76,126
233520,note_on,0,0,0,,,,,,,,,0,,,81,126
233520,note_on,0,0,0,,,,,,,,,0,,,84,126
233520,note_on,0,0,1,,,,,,,,,0,,,57,126
234203,note_on,0,0,0,,,,,,,,,0,,,84,0
234203,note_on,0,0,1,,,,,,,,,0,,,57,0
234203,note_on,0,0,0,,,,,,,,,0,,,76,0
234203,note_on,0,0,1,,,,,,,,,0,,,60,0
234203,note_on,683,0,0,,,,,,,,,0,,,72,0
234203,note_on,0,0,0,,,,,,,,,0,,,81,0
234203,note_on,683,0,1,,,,,,,,,0,,,48,0
234203,note_on,0,0,1,,,,,,,,,0,,,52,0
234240,note_on,37,0,1,,,,,,,,,0,,,47,126
234240,note_on,0,0,1,,,,,,,,,0,,,51,126
234240,note_on,0,0,1,,,,,,,,,0,,,54,126
234240,note_on,0,0,1,,,,,,,,,0,,,59,126
234240,note_on,37,0,0,,,,,,,,,0,,,75,126
234240,note_on,0,0,0,,,,,,,,,0,,,78,126
234240,note_on,0,0,0,,,,,,,,,0,,,87,126
234241,control_change,1,0,1,,,,,,,64,0,0,,,,
234242,control_change,1,0,1,,,,,,,64,127,0,,,,
234467,note_on,225,0,1,,,,,,,,,0,,,47,0
234467,note_on,0,0,0,,,,,,,,,0,,,87,0
234467,note_on,227,0,0,,,,,,,,,0,,,75,0
234467,note_on,0,0,1,,,,,,,,,0,,,54,0
234467,note_on,0,0,1,,,,,,,,,0,,,51,0
234467,note_on,0,0,0,,,,,,,,,0,,,78,0
234467,note_on,0,0,1,,,,,,,,,0,,,59,0
234600,note_on,0,0,0,,,,,,,,,0,,,75,126
234600,note_on,0,0,1,,,,,,,,,0,,,66,126
234600,note_on,133,0,0,,,,,,,,,0,,,71,126
234600,note_on,0,0,1,,,,,,,,,0,,,63,126
234600,note_on,0,0,0,,,,,,,,,0,,,78,126
234600,note_on,133,0,1,,,,,,,,,0,,,59,126
234713,note_on,0,0,0,,,,,,,,,0,,,78,0
234713,note_on,0,0,1,,,,,,,,,0,,,63,0
234713,note_on,0,0,1,,,,,,,,,0,,,66,0
234713,note_on,0,0,0,,,,,,,,,0,,,75,0
234713,note_on,113,0,0,,,,,,,,,0,,,71,0
234713,note_on,113,0,1,,,,,,,,,0,,,59,0
234720,note_on,7,0,1,,,,,,,,,0,,,59,126
234720,note_on,0,0,1,,,,,,,,,0,,,66,126
234720,note_on,0,0,1,,,,,,,,,0,,,63,126
234720,note_on,7,0,0,,,,,,,,,0,,,71,126
234720,note_on,0,0,0,,,,,,,,,0,,,75,126
234720,note_on,0,0,0,,,,,,,,,0,,,78,126
234947,note_on,0,0,0,,,,,,,,,0,,,75,0
234947,note_on,0,0,1,,,,,,,,,0,,,63,0
234947,note_on,0,0,1,,,,,,,,,0,,,66,0
234947,note_on,0,0,0,,,,,,,,,0,,,78,0
234947,note_on,227,0,1,,,,,,,,,0,,,59,0
234947,note_on,227,0,0,,,,,,,,,0,,,71,0
234960,note_on,0,0,0,,,,,,,,,0,,,75,126
234960,note_on,0,0,0,,,,,,,,,0,,,77,126
234960,note_on,13,0,1,,,,,,,,,0,,,59,126
234960,note_on,0,0,1,,,,,,,,,0,,,63,126
234960,note_on,0,0,1,,,,,,,,,0,,,65,126
234960,note_on,13,0,0,,,,,,,,,0,,,71,126
235038,note_on,0,0,0,,,,,,,,,0,,,77,0
235038,note_on,78,0,1,,,,,,,,,0,,,59,0
235038,note_on,0,0,1,,,,,,,,,0,,,63,0
235038,note_on,0,0,1,,,,,,,,,0,,,65,0
235038,note_on,0,0,0,,,,,,,,,0,,,75,0
235038,note_on,78,0,0,,,,,,,,,0,,,71,0
235200,note_on,0,0,0,,,,,,,,,0,,,78,127
235200,note_on,162,0,1,,,,,,,,,0,,,59,127
235200,note_on,0,0,1,,,,,,,,,0,,,63,127
235200,note_on,162,0,0,,,,,,,,,0,,,71,127
235200,note_on,0,0,0,,,,,,,,,0,,,75,127
235200,note_on,0,0,1,,,,,,,,,0,,,66,127
235278,note_on,0,0,1,,,,,,,,,0,,,63,0
235278,note_on,78,0,0,,,,,,,,,0,,,71,0
235278,note_on,78,0,1,,,,,,,,,0,,,59,0
235278,note_on,0,0,1,,,,,,,,,0,,,66,0
235278,note_on,0,0,0,,,,,,,,,0,,,78,0
235278,note_on,0,0,0,,,,,,,,,0,,,75,0
235440,note_on,162,0,1,,,,,,,,,0,,,59,127
235440,note_on,0,0,0,,,,,,,,,0,,,75,127
235440,note_on,0,0,1,,,,,,,,,0,,,66,127
235440,note_on,0,0,0,,,,,,,,,0,,,83,127
235440,note_on,162,0,0,,,,,,,,,0,,,71,127
235440,note_on,0,0,1,,,,,,,,,0,,,63,127
235441,control_change,1,0,1,,,,,,,64,0,0,,,,
235518,note_on,0,0,1,,,,,,,,,0,,,63,0
235518,note_on,0,0,1,,,,,,,,,0,,,66,0
235518,note_on,78,0,0,,,,,,,,,0,,,71,0
235518,note_on,0,0,0,,,,,,,,,0,,,83,0
235518,note_on,0,0,0,,,,,,,,,0,,,75,0
235518,note_on,77,0,1,,,,,,,,,0,,,59,0
235680,set_tempo,162,1,0,,,,,,600001,,,,,,,
235680,note_on,0,0,1,,,,,,,,,0,,,71,127
235680,note_on,162,0,1,,,,,,,,,0,,,59,127
235680,note_on,0,0,1,,,,,,,,,0,,,66,127
235680,note_on,0,0,0,,,,,,,,,0,,,75,127
235680,note_on,0,0,1,,,,,,,,,0,,,63,127
235680,note_on,0,0,0,,,,,,,,,0,,,78,127
235680,note_on,0,0,0,,,,,,,,,0,,,87,127
236363,note_on,0,0,1,,,,,,,,,0,,,71,0
236363,note_on,0,0,1,,,,,,,,,0,,,63,0
236363,note_on,0,0,1,,,,,,,,,0,,,66,0
236363,note_on,683,0,1,,,,,,,,,0,,,59,0
236363,note_on,683,0,0,,,,,,,,,0,,,75,0
236363,note_on,0,0,0,,,,,,,,,0,,,87,0
236363,note_on,0,0,0,,,,,,,,,0,,,78,0
236399,set_tempo,36,1,0,,,,,,428572,,,,,,,
236400,note_on,0,0,0,,,,,,,,,0,,,86,127
236400,note_on,0,0,0,,,,,,,,,0,,,79,127
236400,note_on,0,0,0,,,,,,,,,0,,,77,127
236400,note_on,0,0,0,,,,,,,,,0,,,74,127
236400,note_on,37,0,1,,,,,,,,,0,,,55,127
236400,set_tempo,1,1,0,,,,,,857144,,,,,,,
236400,note_on,0,0,1,,,,,,,,,0,,,62,127
236400,note_on,0,0,1,,,,,,,,,0,,,65,127
236400,note_on,0,0,1,,,,,,,,,0,,,71,127
237083,note_on,0,0,1,,,,,,,,,0,,,71,0
237083,note_on,0,0,0,,,,,,,,,0,,,79,0
237083,note_on,0,0,1,,,,,,,,,0,,,65,0
237083,note_on,683,0,0,,,,,,,,,0,,,74,0
237083,note_on,0,0,0,,,,,,,,,0,,,77,0
237083,note_on,0,0,1,,,,,,,,,0,,,62,0
237083,note_on,683,0,1,,,,,,,,,0,,,55,0
237083,note_on,0,0,0,,,,,,,,,0,,,86,0
237119,set_tempo,36,1,0,,,,,,428572,,,,,,,
237120,note_on,0,0,0,,,,,,,,,0,,,79,112
237120,note_on,0,0,0,,,,,,,,,0,,,76,112
237120,note_on,37,0,1,,,,,,,,,0,,,60,112
237120,note_on,0,0,0,,,,,,,,,0,,,84,112
237120,note_on,0,0,1,,,,,,,,,0,,,72,112
237120,note_on,0,0,1,,,,,,,,,0,,,67,112
237120,set_tempo,0,1,0,,,,,,666667,,,,,,,
237120,note_on,0,0,1,,,,,,,,,0,,,64,112
237120,time_signature,1,1,0,2,4,24,8,,,,,,,,,
237120,note_on,0,0,0,,,,,,,,,0,,,88,112
237122,control_change,2,0,1,,,,,,,64,127,0,,,,
237198,note_on,0,0,0,,,,,,,,,0,,,84,0
237198,note_on,78,0,0,,,,,,,,,0,,,76,0
237198,note_on,0,0,0,,,,,,,,,0,,,88,0
237198,note_on,0,0,0,,,,,,,,,0,,,79,0
237290,note_on,0,0,1,,,,,,,,,0,,,72,0
237290,note_on,0,0,1,,,,,,,,,0,,,64,0
237290,note_on,168,0,1,,,,,,,,,0,,,60,0
237290,note_on,0,0,1,,,,,,,,,0,,,67,0
237300,note_on,0,0,1,,,,,,,,,0,,,64,112
237300,note_on,0,0,1,,,,,,,,,0,,,60,112
237300,note_on,0,0,1,,,,,,,,,0,,,67,112
237300,note_on,10,0,1,,,,,,,,,0,,,55,112
237356,note_on,56,0,1,,,,,,,,,0,,,55,0
237356,note_on,0,0,1,,,,,,,,,0,,,67,0
237356,note_on,0,0,1,,,,,,,,,0,,,64,0
237356,note_on,0,0,1,,,,,,,,,0,,,60,0
237360,note_on,0,0,1,,,,,,,,,0,,,64,112
237360,note_on,0,0,1,,,,,,,,,0,,,60,112
237360,note_on,0,0,0,,,,,,,,,0,,,76,112
237360,note_on,0,0,0,,,,,,,,,0,,,79,112
237360,note_on,0,0,0,,,,,,,,,0,,,84,112
237360,note_on,162,0,0,,,,,,,,,0,,,72,112
237360,note_on,0,0,1,,,,,,,,,0,,,67,112
237360,note_on,4,0,1,,,,,,,,,0,,,55,112
237438,note_on,78,0,1,,,,,,,,,0,,,55,0
237438,note_on,0,0,1,,,,,,,,,0,,,60,0
237438,note_on,0,0,1,,,,,,,,,0,,,64,0
237438,note_on,0,0,1,,,,,,,,,0,,,67,0
237530,note_on,0,0,0,,,,,,,,,0,,,84,0
237530,note_on,170,0,0,,,,,,,,,0,,,72,0
237530,note_on,0,0,0,,,,,,,,,0,,,79,0
237530,note_on,0,0,0,,,,,,,,,0,,,76,0
237540,note_on,0,0,0,,,,,,,,,0,,,79,112
237540,note_on,0,0,0,,,,,,,,,0,,,76,112
237540,note_on,0,0,0,,,,,,,,,0,,,72,112
237540,note_on,10,0,0,,,,,,,,,0,,,67,112
237596,note_on,0,0,0,,,,,,,,,0,,,76,0
237596,note_on,56,0,0,,,,,,,,,0,,,67,0
237596,note_on,0,0,0,,,,,,,,,0,,,79,0
237596,note_on,0,0,0,,,,,,,,,0,,,72,0
237600,note_on,162,0,1,,,,,,,,,0,,,52,112
237600,note_on,4,0,0,,,,,,,,,0,,,67,112
237600,note_on,0,0,0,,,,,,,,,0,,,79,112
237600,note_on,0,0,0,,,,,,,,,0,,,76,112
237600,note_on,0,0,0,,,,,,,,,0,,,72,112
237600,note_on,0,0,1,,,,,,,,,0,,,55,112
237600,note_on,0,0,1,,,,,,,,,0,,,60,112
237600,note_on,0,0,1,,,,,,,,,0,,,64,112
237678,note_on,0,0,0,,,,,,,,,0,,,79,0
237678,note_on,78,0,0,,,,,,,,,0,,,67,0
237678,note_on,0,0,0,,,,,,,,,0,,,72,0
237678,note_on,0,0,0,,,,,,,,,0,,,76,0
237770,note_on,170,0,1,,,,,,,,,0,,,52,0
237770,note_on,0,0,1,,,,,,,,,0,,,60,0
237770,note_on,0,0,1,,,,,,,,,0,,,55,0
237770,note_on,0,0,1,,,,,,,,,0,,,64,0
237780,note_on,0,0,1,,,,,,,,,0,,,52,112
237780,note_on,0,0,1,,,,,,,,,0,,,55,112
237780,note_on,0,0,1,,,,,,,,,0,,,60,112
237780,note_on,10,0,1,,,,,,,,,0,,,48,112
237836,note_on,56,0,1,,,,,,,,,0,,,48,0
237836,note_on,0,0,1,,,,,,,,,0,,,52,0
237836,note_on,0,0,1,,,,,,,,,0,,,55,0
237836,note_on,0,0,1,,,,,,,,,0,,,60,0
237840,note_on,0,0,0,,,,,,,,,0,,,67,112
237840,note_on,0,0,0,,,,,,,,,0,,,72,112
237840,note_on,0,0,1,,,,,,,,,0,,,60,112
237840,note_on,0,0,1,,,,,,,,,0,,,52,112
237840,note_on,162,0,0,,,,,,,,,0,,,64,112
237840,note_on,0,0,0,,,,,,,,,0,,,76,112
237840,note_on,4,0,1,,,,,,,,,0,,,48,112
237840,note_on,0,0,1,,,,,,,,,0,,,55,112
237918,note_on,0,0,1,,,,,,,,,0,,,52,0
237918,note_on,0,0,1,,,,,,,,,0,,,55,0
237918,note_on,0,0,1,,,,,,,,,0,,,60,0
237918,note_on,78,0,1,,,,,,,,,0,,,48,0
238010,note_on,0,0,0,,,,,,,,,0,,,67,0
238010,note_on,0,0,0,,,,,,,,,0,,,76,0
238010,note_on,0,0,0,,,,,,,,,0,,,72,0
238010,note_on,170,0,0,,,,,,,,,0,,,64,0
238020,note_on,0,0,0,,,,,,,,,0,,,69,112
238020,note_on,0,0,0,,,,,,,,,0,,,72,112
238020,note_on,10,0,0,,,,,,,,,0,,,60,112
238020,note_on,0,0,0,,,,,,,,,0,,,64,112
238076,note_on,0,0,0,,,,,,,,,0,,,69,0
238076,note_on,0,0,0,,,,,,,,,0,,,64,0
238076,note_on,0,0,0,,,,,,,,,0,,,72,0
238076,note_on,56,0,0,,,,,,,,,0,,,60,0
238080,note_on,0,0,0,,,,,,,,,0,,,72,112
238080,note_on,0,0,1,,,,,,,,,0,,,48,112
238080,note_on,4,0,0,,,,,,,,,0,,,60,112
238080,note_on,0,0,0,,,,,,,,,0,,,69,112
238080,note_on,0,0,0,,,,,,,,,0,,,64,112
238080,note_on,162,0,1,,,,,,,,,0,,,45,112
238080,note_on,0,0,1,,,,,,,,,0,,,52,112
238080,note_on,0,0,1,,,,,,,,,0,,,57,112
238158,note_on,78,0,0,,,,,,,,,0,,,60,0
238158,note_on,0,0,0,,,,,,,,,0,,,64,0
238158,note_on,0,0,0,,,,,,,,,0,,,69,0
238158,note_on,0,0,0,,,,,,,,,0,,,72,0
238250,note_on,0,0,1,,,,,,,,,0,,,57,0
238250,note_on,0,0,1,,,,,,,,,0,,,48,0
238250,note_on,170,0,1,,,,,,,,,0,,,45,0
238250,note_on,0,0,1,,,,,,,,,0,,,52,0
238260,note_on,0,0,1,,,,,,,,,0,,,45,112
238260,note_on,10,0,1,,,,,,,,,0,,,40,112
238260,note_on,0,0,1,,,,,,,,,0,,,48,112
238260,note_on,0,0,1,,,,,,,,,0,,,52,112
238316,note_on,0,0,1,,,,,,,,,0,,,52,0
238316,note_on,0,0,1,,,,,,,,,0,,,48,0
238316,note_on,0,0,1,,,,,,,,,0,,,45,0
238316,note_on,56,0,1,,,,,,,,,0,,,40,0
238320,note_on,0,0,1,,,,,,,,,0,,,48,112
238320,note_on,0,0,1,,,,,,,,,0,,,52,112
238320,note_on,162,0,0,,,,,,,,,0,,,57,112
238320,note_on,0,0,1,,,,,,,,,0,,,45,112
238320,note_on,0,0,0,,,,,,,,,0,,,69,112
238320,note_on,0,0,0,,,,,,,,,0,,,64,112
238320,note_on,0,0,0,,,,,,,,,0,,,60,112
238320,note_on,4,0,1,,,,,,,,,0,,,40,112
238398,note_on,0,0,1,,,,,,,,,0,,,45,0
238398,note_on,0,0,1,,,,,,,,,0,,,52,0
238398,note_on,78,0,1,,,,,,,,,0,,,40,0
238398,note_on,0,0,1,,,,,,,,,0,,,48,0
238490,note_on,170,0,0,,,,,,,,,0,,,57,0
238490,note_on,0,0,0,,,,,,,,,0,,,69,0
238490,note_on,0,0,0,,,,,,,,,0,,,64,0
238490,note_on,0,0,0,,,,,,,,,0,,,60,0
238500,note_on,0,0,0,,,,,,,,,0,,,64,112
238500,note_on,10,0,0,,,,,,,,,0,,,52,112
238500,note_on,0,0,0,,,,,,,,,0,,,57,112
238500,note_on,0,0,0,,,,,,,,,0,,,60,112
238556,note_on,56,0,0,,,,,,,,,0,,,52,0
238556,note_on,0,0,0,,,,,,,,,0,,,57,0
238556,note_on,0,0,0,,,,,,,,,0,,,60,0
238556,note_on,0,0,0,,,,,,,,,0,,,64,0
238560,note_on,4,0,0,,,,,,,,,0,,,52,112
238560,note_on,0,0,0,,,,,,,,,0,,,57,112
238560,note_on,0,0,0,,,,,,,,,0,,,60,112
238560,note_on,0,0,0,,,,,,,,,0,,,64,112
238560,note_on,0,0,1,,,,,,,,,0,,,48,112
238560,note_on,0,0,1,,,,,,,,,0,,,45,112
238560,note_on,162,0,1,,,,,,,,,0,,,36,112
238560,note_on,0,0,1,,,,,,,,,0,,,40,112
238638,note_on,0,0,0,,,,,,,,,0,,,64,0
238638,note_on,0,0,0,,,,,,,,,0,,,60,0
238638,note_on,0,0,0,,,,,,,,,0,,,57,0
238638,note_on,78,0,0,,,,,,,,,0,,,52,0
238730,note_on,0,0,1,,,,,,,,,0,,,40,0
238730,note_on,0,0,1,,,,,,,,,0,,,45,0
238730,note_on,170,0,1,,,,,,,,,0,,,36,0
238730,note_on,0,0,1,,,,,,,,,0,,,48,0
238740,note_on,10,0,1,,,,,,,,,0,,,33,112
238740,note_on,0,0,1,,,,,,,,,0,,,40,112
238740,note_on,0,0,1,,,,,,,,,0,,,45,112
238740,note_on,0,0,1,,,,,,,,,0,,,36,112
238796,note_on,0,0,1,,,,,,,,,0,,,36,0
238796,note_on,0,0,1,,,,,,,,,0,,,40,0
238796,note_on,56,0,1,,,,,,,,,0,,,33,0
238796,note_on,0,0,1,,,,,,,,,0,,,45,0
238800,note_on,0,0,0,,,,,,,,,0,,,57,112
238800,note_on,4,0,1,,,,,,,,,0,,,33,112
238800,note_on,0,0,0,,,,,,,,,0,,,52,112
238800,note_on,0,0,0,,,,,,,,,0,,,60,112
238800,note_on,0,0,1,,,,,,,,,0,,,40,112
238800,note_on,0,0,1,,,,,,,,,0,,,45,112
238800,note_on,0,0,1,,,,,,,,,0,,,36,112
238800,note_on,162,0,0,,,,,,,,,0,,,48,112
238878,note_on,0,0,1,,,,,,,,,0,,,36,0
238878,note_on,0,0,1,,,,,,,,,0,,,40,0
238878,note_on,0,0,1,,,,,,,,,0,,,45,0
238878,note_on,78,0,1,,,,,,,,,0,,,33,0
238970,note_on,0,0,0,,,,,,,,,0,,,60,0
238970,note_on,170,0,0,,,,,,,,,0,,,48,0
238970,note_on,0,0,0,,,,,,,,,0,,,57,0
238970,note_on,0,0,0,,,,,,,,,0,,,52,0
238980,note_on,0,0,0,,,,,,,,,0,,,64,112
238980,note_on,10,0,0,,,,,,,,,0,,,52,112
239036,note_on,0,0,0,,,,,,,,,0,,,64,0
239036,note_on,56,0,0,,,,,,,,,0,,,52,0
239040,note_on,0,0,1,,,,,,,,,0,,,35,112
239040,note_on,0,0,1,,,,,,,,,0,,,43,112
239040,note_on,0,0,0,,,,,,,,,0,,,59,112
239040,set_tempo,0,1,0,,,,,,428572,,,,,,,
239040,note_on,162,0,1,,,,,,,,,0,,,29,112
239040,time_signature,4,1,0,6,8,24,8,,,,,,,,,
239040,note_on,0,0,0,,,,,,,,,0,,,67,112
239040,note_on,0,0,0,,,,,,,,,0,,,53,112
239041,control_change,1,0,1,,,,,,,64,0,0,,,,
239118,note_on,0,0,1,,,,,,,,,0,,,35,0
239118,note_on,78,0,0,,,,,,,,,0,,,53,0
239118,note_on,77,0,1,,,,,,,,,0,,,29,0
239118,note_on,0,0,0,,,,,,,,,0,,,67,0
239118,note_on,0,0,0,,,,,,,,,0,,,59,0
239118,note_on,0,0,1,,,,,,,,,0,,,43,0
239400,note_on,282,0,0,,,,,,,,,0,,,53,112
239400,note_on,0,0,1,,,,,,,,,0,,,47,112
239400,note_on,0,0,0,,,,,,,,,0,,,59,112
239400,note_on,0,0,0,,,,,,,,,0,,,62,112
239400,note_on,0,0,1,,,,,,,,,0,,,50,112
239400,note_on,282,0,1,,,,,,,,,0,,,43,112
239513,note_on,113,0,0,,,,,,,,,0,,,53,0
239513,note_on,0,0,0,,,,,,,,,0,,,59,0
239513,note_on,0,0,0,,,,,,,,,0,,,62,0
239513,note_on,113,0,1,,,,,,,,,0,,,43,0
239513,note_on,0,0,1,,,,,,,,,0,,,50,0
239513,note_on,0,0,1,,,,,,,,,0,,,47,0
239520,note_on,7,0,1,,,,,,,,,0,,,43,112
239520,note_on,0,0,1,,,,,,,,,0,,,50,112
239520,note_on,0,0,1,,,,,,,,,0,,,47,112
239520,note_on,0,0,0,,,,,,,,,0,,,59,112
239520,note_on,0,0,0,,,,,,,,,0,,,62,112
239520,note_on,7,0,0,,,,,,,,,0,,,53,112
239747,note_on,227,0,1,,,,,,,,,0,,,43,0
239747,note_on,0,0,0,,,,,,,,,0,,,59,0
239747,note_on,227,0,0,,,,,,,,,0,,,53,0
239747,note_on,0,0,1,,,,,,,,,0,,,50,0
239747,note_on,0,0,0,,,,,,,,,0,,,62,0
239747,note_on,0,0,1,,,,,,,,,0,,,47,0
239760,note_on,0,0,0,,,,,,,,,0,,,58,112
239760,note_on,0,0,0,,,,,,,,,0,,,61,112
239760,note_on,13,0,0,,,,,,,,,0,,,53,112
239760,note_on,13,0,1,,,,,,,,,0,,,41,112
239760,note_on,0,0,1,,,,,,,,,0,,,49,112
239760,note_on,0,0,1,,,,,,,,,0,,,46,112
239987,note_on,0,0,0,,,,,,,,,0,,,58,0
239987,note_on,0,0,0,,,,,,,,,0,,,61,0
239987,note_on,0,0,1,,,,,,,,,0,,,49,0
239987,note_on,227,0,1,,,,,,,,,0,,,41,0
239987,note_on,0,0,1,,,,,,,,,0,,,46,0
239987,note_on,227,0,0,,,,,,,,,0,,,53,0
240000,note_on,13,0,0,,,,,,,,,0,,,53,112
240000,note_on,0,0,1,,,,,,,,,0,,,50,112
240000,note_on,0,0,1,,,,,,,,,0,,,47,112
240000,note_on,13,0,1,,,,,,,,,0,,,43,112
240000,note_on,0,0,0,,,,,,,,,0,,,59,112
240000,note_on,0,0,0,,,,,,,,,0,,,62,112
240227,note_on,0,0,1,,,,,,,,,0,,,50,0
240227,note_on,227,0,0,,,,,,,,,0,,,53,0
240227,note_on,227,0,1,,,,,,,,,0,,,43,0
240227,note_on,0,0,0,,,,,,,,,0,,,59,0
240227,note_on,0,0,0,,,,,,,,,0,,,62,0
240227,note_on,0,0,1,,,,,,,,,0,,,47,0
240240,note_on,13,0,0,,,,,,,,,0,,,53,112
240240,note_on,0,0,1,,,,,,,,,0,,,47,112
240240,note_on,0,0,0,,,,,,,,,0,,,59,112
240240,note_on,0,0,0,,,,,,,,,0,,,63,112
240240,note_on,0,0,1,,,,,,,,,0,,,51,112
240240,note_on,13,0,1,,,,,,,,,0,,,43,112
240467,note_on,0,0,0,,,,,,,,,0,,,59,0
240467,note_on,0,0,0,,,,,,,,,0,,,63,0
240467,note_on,227,0,1,,,,,,,,,0,,,43,0
240467,note_on,0,0,1,,,,,,,,,0,,,47,0
240467,note_on,227,0,0,,,,,,,,,0,,,53,0
240467,note_on,0,0,1,,,,,,,,,0,,,51,0
240480,note_on,0,0,1,,,,,,,,,0,,,52,112
240480,note_on,13,0,1,,,,,,,,,0,,,48,112
240480,note_on,0,0,0,,,,,,,,,0,,,64,112
240480,note_on,13,0,0,,,,,,,,,0,,,60,112
240576,note_on,0,0,0,,,,,,,,,0,,,64,0
240576,note_on,96,0,0,,,,,,,,,0,,,60,0
240583,note_on,7,0,0,,,,,,,,,0,,,55,112
240679,note_on,96,0,0,,,,,,,,,0,,,55,0
240686,note_on,206,0,1,,,,,,,,,0,,,52,0
240686,note_on,7,0,0,,,,,,,,,0,,,52,112
240789,note_on,103,0,0,,,,,,,,,0,,,55,112
240885,note_on,96,0,0,,,,,,,,,0,,,55,0
240891,note_on,6,0,0,,,,,,,,,0,,,60,112
240987,note_on,96,0,0,,,,,,,,,0,,,60,0
240994,note_on,7,0,0,,,,,,,,,0,,,64,112
241090,note_on,96,0,0,,,,,,,,,0,,,64,0
241097,note_on,7,0,0,,,,,,,,,0,,,67,112
241163,note_on,477,0,1,,,,,,,,,0,,,48,0
241163,note_on,66,0,0,,,,,,,,,0,,,52,0
241193,note_on,30,0,0,,,,,,,,,0,,,67,0
241200,note_on,7,0,0,,,,,,,,,0,,,72,112
241200,note_on,0,0,1,,,,,,,,,0,,,48,112
241200,note_on,0,0,1,,,,,,,,,0,,,43,112
241200,note_on,37,0,1,,,,,,,,,0,,,36,112
241200,note_on,0,0,1,,,,,,,,,0,,,40,112
241296,note_on,96,0,0,,,,,,,,,0,,,72,0
241303,note_on,7,0,0,,,,,,,,,0,,,76,112
241399,note_on,96,0,0,,,,,,,,,0,,,76,0
241406,note_on,7,0,0,,,,,,,,,0,,,79,112
241427,note_on,0,0,1,,,,,,,,,0,,,48,0
241427,note_on,0,0,1,,,,,,,,,0,,,40,0
241427,note_on,0,0,1,,,,,,,,,0,,,43,0
241427,note_on,227,0,1,,,,,,,,,0,,,36,0
241502,note_on,96,0,0,,,,,,,,,0,,,79,0
241509,note_on,7,0,0,,,,,,,,,0,,,84,112
241605,note_on,96,0,0,,,,,,,,,0,,,84,0
241611,note_on,6,0,0,,,,,,,,,0,,,88,112
241707,note_on,96,0,0,,,,,,,,,0,,,88,0
241714,note_on,7,0,0,,,,,,,,,0,,,91,112
241810,note_on,96,0,0,,,,,,,,,0,,,91,0
241817,note_on,7,0,0,,,,,,,,,0,,,96,112
241913,note_on,96,0,0,,,,,,,,,0,,,96,0
241920,set_tempo,0,1,0,,,,,,666667,,,,,,,
241920,note_on,0,0,1,,,,,,,,,0,,,76,112
241920,note_on,0,0,1,,,,,,,,,0,,,79,112
241920,note_on,493,0,1,,,,,,,,,0,,,72,112
241920,note_on,0,0,1,,,,,,,,,0,,,84,112
241920,note_on,0,0,0,,,,,,,,,0,,,88,112
241920,note_on,0,0,0,,,,,,,,,0,,,91,112
241920,note_on,0,0,0,,,,,,,,,0,,,96,112
241920,note_on,0,0,0,,,,,,,,,0,,,100,112
241920,time_signature,7,1,0,2,4,24,8,,,,,,,,,
241922,control_change,2,0,1,,,,,,,64,127,0,,,,
241998,note_on,0,0,0,,,,,,,,,0,,,91,0
241998,note_on,0,0,0,,,,,,,,,0,,,100,0
241998,note_on,78,0,0,,,,,,,,,0,,,88,0
241998,note_on,0,0,0,,,,,,,,,0,,,96,0
242090,note_on,0,0,1,,,,,,,,,0,,,84,0
242090,note_on,0,0,1,,,,,,,,,0,,,79,0
242090,note_on,0,0,1,,,,,,,,,0,,,76,0
242090,note_on,168,0,1,,,,,,,,,0,,,72,0
242100,note_on,0,0,1,,,,,,,,,0,,,79,112
242100,note_on,0,0,1,,,,,,,,,0,,,72,112
242100,note_on,0,0,1,,,,,,,,,0,,,76,112
242100,note_on,10,0,1,,,,,,,,,0,,,67,112
242156,note_on,0,0,1,,,,,,,,,0,,,72,0
242156,note_on,56,0,1,,,,,,,,,0,,,67,0
242156,note_on,0,0,1,,,,,,,,,0,,,76,0
242156,note_on,0,0,1,,,,,,,,,0,,,79,0
242160,note_on,0,0,1,,,,,,,,,0,,,72,112
242160,note_on,0,0,0,,,,,,,,,0,,,96,112
242160,note_on,4,0,1,,,,,,,,,0,,,67,112
242160,note_on,0,0,0,,,,,,,,,0,,,88,112
242160,note_on,162,0,0,,,,,,,,,0,,,84,112
242160,note_on,0,0,0,,,,,,,,,0,,,91,112
242160,note_on,0,0,1,,,,,,,,,0,,,79,112
242160,note_on,0,0,1,,,,,,,,,0,,,76,112
242238,note_on,0,0,1,,,,,,,,,0,,,72,0
242238,note_on,78,0,1,,,,,,,,,0,,,67,0
242238,note_on,0,0,1,,,,,,,,,0,,,76,0
242238,note_on,0,0,1,,,,,,,,,0,,,79,0
242330,note_on,170,0,0,,,,,,,,,0,,,84,0
242330,note_on,0,0,0,,,,,,,,,0,,,88,0
242330,note_on,0,0,0,,,,,,,,,0,,,91,0
242330,note_on,0,0,0,,,,,,,,,0,,,96,0
242340,note_on,0,0,0,,,,,,,,,0,,,88,112
242340,note_on,0,0,0,,,,,,,,,0,,,84,112
242340,note_on,0,0,0,,,,,,,,,0,,,91,112
242340,note_on,10,0,0,,,,,,,,,0,,,79,112
242396,note_on,0,0,0,,,,,,,,,0,,,88,0
242396,note_on,0,0,0,,,,,,,,,0,,,84,0
242396,note_on,56,0,0,,,,,,,,,0,,,79,0
242396,note_on,0,0,0,,,,,,,,,0,,,91,0
242400,note_on,0,0,0,,,,,,,,,0,,,84,112
242400,note_on,162,0,1,,,,,,,,,0,,,64,112
242400,note_on,4,0,0,,,,,,,,,0,,,79,112
242400,note_on,0,0,1,,,,,,,,,0,,,67,112
242400,note_on,0,0,1,,,,,,,,,0,,,76,112
242400,note_on,0,0,1,,,,,,,,,0,,,72,112
242400,note_on,0,0,0,,,,,,,,,0,,,88,112
242400,note_on,0,0,0,,,,,,,,,0,,,91,112
242478,note_on,0,0,0,,,,,,,,,0,,,84,0
242478,note_on,0,0,0,,,,,,,,,0,,,88,0
242478,note_on,0,0,0,,,,,,,,,0,,,91,0
242478,note_on,78,0,0,,,,,,,,,0,,,79,0
242570,note_on,0,0,1,,,,,,,,,0,,,76,0
242570,note_on,0,0,1,,,,,,,,,0,,,67,0
242570,note_on,0,0,1,,,,,,,,,0,,,72,0
242570,note_on,170,0,1,,,,,,,,,0,,,64,0
242580,note_on,10,0,1,,,,,,,,,0,,,60,112
242580,note_on,0,0,1,,,,,,,,,0,,,64,112
242580,note_on,0,0,1,,,,,,,,,0,,,67,112
242580,note_on,0,0,1,,,,,,,,,0,,,72,112
242636,note_on,56,0,1,,,,,,,,,0,,,60,0
242636,note_on,0,0,1,,,,,,,,,0,,,72,0
242636,note_on,0,0,1,,,,,,,,,0,,,67,0
242636,note_on,0,0,1,,,,,,,,,0,,,64,0
242640,note_on,0,0,1,,,,,,,,,0,,,72,112
242640,note_on,0,0,0,,,,,,,,,0,,,88,112
242640,note_on,4,0,1,,,,,,,,,0,,,60,112
242640,note_on,162,0,0,,,,,,,,,0,,,76,112
242640,note_on,0,0,1,,,,,,,,,0,,,67,112
242640,note_on,0,0,0,,,,,,,,,0,,,79,112
242640,note_on,0,0,1,,,,,,,,,0,,,64,112
242640,note_on,0,0,0,,,,,,,,,0,,,84,112
242718,note_on,0,0,1,,,,,,,,,0,,,72,0
242718,note_on,78,0,1,,,,,,,,,0,,,60,0
242718,note_on,0,0,1,,,,,,,,,0,,,67,0
242718,note_on,0,0,1,,,,,,,,,0,,,64,0
242810,note_on,0,0,0,,,,,,,,,0,,,84,0
242810,note_on,0,0,0,,,,,,,,,0,,,79,0
242810,note_on,0,0,0,,,,,,,,,0,,,88,0
242810,note_on,170,0,0,,,,,,,,,0,,,76,0
242820,note_on,0,0,0,,,,,,,,,0,,,76,112
242820,note_on,0,0,0,,,,,,,,,0,,,81,112
242820,note_on,10,0,0,,,,,,,,,0,,,72,112
242820,note_on,0,0,0,,,,,,,,,0,,,84,112
242876,note_on,56,0,0,,,,,,,,,0,,,72,0
242876,note_on,0,0,0,,,,,,,,,0,,,84,0
242876,note_on,0,0,0,,,,,,,,,0,,,81,0
242876,note_on,0,0,0,,,,,,,,,0,,,76,0
242880,note_on,0,0,0,,,,,,,,,0,,,76,112
242880,note_on,0,0,1,,,,,,,,,0,,,64,112
242880,note_on,0,0,1,,,,,,,,,0,,,60,112
242880,note_on,4,0,0,,,,,,,,,0,,,72,112
242880,note_on,0,0,1,,,,,,,,,0,,,69,112
242880,note_on,0,0,0,,,,,,,,,0,,,81,112
242880,note_on,0,0,0,,,,,,,,,0,,,84,112
242880,note_on,162,0,1,,,,,,,,,0,,,57,112
242958,note_on,78,0,0,,,,,,,,,0,,,72,0
242958,note_on,0,0,0,,,,,,,,,0,,,76,0
242958,note_on,0,0,0,,,,,,,,,0,,,84,0
242958,note_on,0,0,0,,,,,,,,,0,,,81,0
243050,note_on,0,0,1,,,,,,,,,0,,,60,0
243050,note_on,0,0,1,,,,,,,,,0,,,69,0
243050,note_on,0,0,1,,,,,,,,,0,,,64,0
243050,note_on,170,0,1,,,,,,,,,0,,,57,0
243060,note_on,0,0,1,,,,,,,,,0,,,57,112
243060,note_on,10,0,1,,,,,,,,,0,,,52,112
243060,note_on,0,0,1,,,,,,,,,0,,,64,112
243060,note_on,0,0,1,,,,,,,,,0,,,60,112
243116,note_on,56,0,1,,,,,,,,,0,,,52,0
243116,note_on,0,0,1,,,,,,,,,0,,,60,0
243116,note_on,0,0,1,,,,,,,,,0,,,57,0
243116,note_on,0,0,1,,,,,,,,,0,,,64,0
243120,note_on,0,0,1,,,,,,,,,0,,,57,112
243120,note_on,0,0,0,,,,,,,,,0,,,72,112
243120,note_on,0,0,0,,,,,,,,,0,,,76,112
243120,note_on,0,0,0,,,,,,,,,0,,,81,112
243120,note_on,4,0,1,,,,,,,,,0,,,52,112
243120,note_on,0,0,1,,,,,,,,,0,,,64,112
243120,note_on,0,0,1,,,,,,,,,0,,,60,112
243120,note_on,162,0,0,,,,,,,,,0,,,69,112
243198,note_on,0,0,1,,,,,,,,,0,,,64,0
243198,note_on,0,0,1,,,,,,,,,0,,,60,0
243198,note_on,0,0,1,,,,,,,,,0,,,57,0
243198,note_on,78,0,1,,,,,,,,,0,,,52,0
243290,note_on,0,0,0,,,,,,,,,0,,,81,0
243290,note_on,0,0,0,,,,,,,,,0,,,76,0
243290,note_on,0,0,0,,,,,,,,,0,,,72,0
243290,note_on,170,0,0,,,,,,,,,0,,,69,0
243300,note_on,0,0,0,,,,,,,,,0,,,76,112
243300,note_on,0,0,0,,,,,,,,,0,,,69,112
243300,note_on,0,0,0,,,,,,,,,0,,,72,112
243300,note_on,10,0,0,,,,,,,,,0,,,64,112
243356,note_on,56,0,0,,,,,,,,,0,,,64,0
243356,note_on,0,0,0,,,,,,,,,0,,,69,0
243356,note_on,0,0,0,,,,,,,,,0,,,72,0
243356,note_on,0,0,0,,,,,,,,,0,,,76,0
243360,note_on,4,0,0,,,,,,,,,0,,,64,112
243360,note_on,0,0,0,,,,,,,,,0,,,69,112
243360,note_on,162,0,1,,,,,,,,,0,,,48,112
243360,note_on,0,0,1,,,,,,,,,0,,,60,112
243360,note_on,0,0,0,,,,,,,,,0,,,72,112
243360,note_on,0,0,1,,,,,,,,,0,,,57,112
243360,note_on,0,0,0,,,,,,,,,0,,,76,112
243360,note_on,0,0,1,,,,,,,,,0,,,52,112
243438,note_on,78,0,0,,,,,,,,,0,,,64,0
243438,note_on,0,0,0,,,,,,,,,0,,,76,0
243438,note_on,0,0,0,,,,,,,,,0,,,72,0
243438,note_on,0,0,0,,,,,,,,,0,,,69,0
243530,note_on,0,0,1,,,,,,,,,0,,,57,0
243530,note_on,0,0,1,,,,,,,,,0,,,60,0
243530,note_on,0,0,1,,,,,,,,,0,,,52,0
243530,note_on,170,0,1,,,,,,,,,0,,,48,0
243540,note_on,0,0,1,,,,,,,,,0,,,48,112
243540,note_on,0,0,1,,,,,,,,,0,,,57,112
243540,note_on,0,0,1,,,,,,,,,0,,,52,112
243540,note_on,10,0,1,,,,,,,,,0,,,45,112
243596,note_on,0,0,1,,,,,,,,,0,,,57,0
243596,note_on,0,0,1,,,,,,,,,0,,,52,0
243596,note_on,0,0,1,,,,,,,,,0,,,48,0
243596,note_on,56,0,1,,,,,,,,,0,,,45,0
243600,note_on,0,0,1,,,,,,,,,0,,,57,112
243600,note_on,162,0,0,,,,,,,,,0,,,60,112
243600,note_on,0,0,0,,,,,,,,,0,,,64,112
243600,note_on,0,0,1,,,,,,,,,0,,,48,112
243600,note_on,4,0,1,,,,,,,,,0,,,45,112
243600,note_on,0,0,1,,,,,,,,,0,,,52,112
243600,note_on,0,0,0,,,,,,,,,0,,,69,112
243600,note_on,0,0,0,,,,,,,,,0,,,72,112
243678,note_on,78,0,1,,,,,,,,,0,,,45,0
243678,note_on,0,0,0,,,,,,,,,0,,,69,0
243678,note_on,0,0,1,,,,,,,,,0,,,57,0
243678,note_on,0,0,1,,,,,,,,,0,,,48,0
243678,note_on,0,0,1,,,,,,,,,0,,,52,0
243678,note_on,78,0,0,,,,,,,,,0,,,60,0
243678,note_on,0,0,0,,,,,,,,,0,,,64,0
243678,note_on,0,0,0,,,,,,,,,0,,,72,0
243840,set_tempo,0,1,0,,,,,,428572,,,,,,,
243840,note_on,162,0,1,,,,,,,,,0,,,40,112
243840,time_signature,162,1,0,6,8,24,8,,,,,,,,,
243841,control_change,1,0,1,,,,,,,64,0,0,,,,
243842,control_change,1,0,1,,,,,,,64,127,0,,,,
243859,note_on,17,0,1,,,,,,,,,0,,,44,112
243878,note_on,19,0,1,,,,,,,,,0,,,47,112
243897,note_on,0,0,0,,,,,,,,,0,,,92,112
243897,note_on,19,0,1,,,,,,,,,0,,,52,112
243897,note_on,57,0,0,,,,,,,,,0,,,80,112
243897,note_on,0,0,0,,,,,,,,,0,,,83,112
243958,note_on,0,0,0,,,,,,,,,0,,,83,0
243958,note_on,0,0,0,,,,,,,,,0,,,92,0
243958,note_on,61,0,1,,,,,,,,,0,,,44,0
243958,note_on,0,0,1,,,,,,,,,0,,,47,0
243958,note_on,0,0,1,,,,,,,,,0,,,52,0
243958,note_on,61,0,0,,,,,,,,,0,,,80,0
243959,note_on,1,0,1,,,,,,,,,0,,,40,0
244200,note_on,0,0,1,,,,,,,,,0,,,59,112
244200,note_on,0,0,0,,,,,,,,,0,,,83,112
244200,note_on,241,0,1,,,,,,,,,0,,,47,112
244200,note_on,242,0,0,,,,,,,,,0,,,71,112
244201,control_change,1,0,1,,,,,,,64,0,0,,,,
244202,control_change,1,0,1,,,,,,,64,127,0,,,,
244313,note_on,0,0,0,,,,,,,,,0,,,83,0
244313,note_on,111,0,1,,,,,,,,,0,,,47,0
244313,note_on,0,0,1,,,,,,,,,0,,,59,0
244313,note_on,113,0,0,,,,,,,,,0,,,71,0
244320,note_on,7,0,1,,,,,,,,,0,,,47,112
244320,note_on,7,0,0,,,,,,,,,0,,,71,112
244320,note_on,0,0,1,,,,,,,,,0,,,59,112
244320,note_on,0,0,0,,,,,,,,,0,,,83,112
244547,note_on,0,0,1,,,,,,,,,0,,,59,0
244547,note_on,227,0,1,,,,,,,,,0,,,47,0
244547,note_on,0,0,0,,,,,,,,,0,,,83,0
244547,note_on,227,0,0,,,,,,,,,0,,,71,0
244560,note_on,13,0,1,,,,,,,,,0,,,46,112
244560,note_on,13,0,0,,,,,,,,,0,,,70,112
244560,note_on,0,0,0,,,,,,,,,0,,,82,112
244560,note_on,0,0,1,,,,,,,,,0,,,58,112
244787,note_on,0,0,1,,,,,,,,,0,,,58,0
244787,note_on,0,0,0,,,,,,,,,0,,,82,0
244787,note_on,227,0,1,,,,,,,,,0,,,46,0
244787,note_on,227,0,0,,,,,,,,,0,,,70,0
244800,note_on,13,0,0,,,,,,,,,0,,,71,112
244800,note_on,0,0,1,,,,,,,,,0,,,59,112
244800,note_on,0,0,0,,,,,,,,,0,,,83,112
244800,note_on,13,0,1,,,,,,,,,0,,,47,112
245027,note_on,227,0,1,,,,,,,,,0,,,47,0
245027,note_on,0,0,0,,,,,,,,,0,,,83,0
245027,note_on,227,0,0,,,,,,,,,0,,,71,0
245027,note_on,0,0,1,,,,,,,,,0,,,59,0
245040,note_on,0,0,0,,,,,,,,,0,,,88,112
245040,note_on,13,0,0,,,,,,,,,0,,,76,112
245040,note_on,0,0,1,,,,,,,,,0,,,64,112
245040,note_on,13,0,1,,,,,,,,,0,,,52,112
245267,note_on,0,0,0,,,,,,,,,0,,,88,0
245267,note_on,227,0,1,,,,,,,,,0,,,52,0
245267,note_on,227,0,0,,,,,,,,,0,,,76,0
245267,note_on,0,0,1,,,,,,,,,0,,,64,0
245280,note_on,13,0,1,,,,,,,,,0,,,44,112
245281,control_change,1,0,1,,,,,,,64,0,0,,,,
245282,control_change,1,0,1,,,,,,,64,127,0,,,,
245299,note_on,17,0,1,,,,,,,,,0,,,51,112
245318,note_on,19,0,1,,,,,,,,,0,,,56,112
245318,note_on,0,0,0,,,,,,,,,0,,,92,112
245318,note_on,0,0,0,,,,,,,,,0,,,84,112
245318,note_on,51,0,0,,,,,,,,,0,,,80,112
245398,note_on,0,0,0,,,,,,,,,0,,,92,0
245398,note_on,80,0,0,,,,,,,,,0,,,80,0
245398,note_on,80,0,1,,,,,,,,,0,,,51,0
245398,note_on,0,0,1,,,,,,,,,0,,,56,0
245398,note_on,0,0,0,,,,,,,,,0,,,84,0
245399,note_on,1,0,1,,,,,,,,,0,,,44,0
245640,note_on,242,0,0,,,,,,,,,0,,,75,112
245640,note_on,0,0,0,,,,,,,,,0,,,87,112
245640,note_on,0,0,1,,,,,,,,,0,,,63,112
245640,note_on,241,0,1,,,,,,,,,0,,,51,112
245641,control_change,1,0,1,,,,,,,64,0,0,,,,
245642,control_change,1,0,1,,,,,,,64,127,0,,,,
245753,note_on,0,0,1,,,,,,,,,0,,,63,0
245753,note_on,113,0,0,,,,,,,,,0,,,75,0
245753,note_on,0,0,0,,,,,,,,,0,,,87,0
245753,note_on,111,0,1,,,,,,,,,0,,,51,0
245760,note_on,0,0,1,,,,,,,,,0,,,63,112
245760,note_on,7,0,1,,,,,,,,,0,,,51,112
245760,note_on,0,0,0,,,,,,,,,0,,,87,112
245760,note_on,7,0,0,,,,,,,,,0,,,75,112
245987,note_on,227,0,1,,,,,,,,,0,,,51,0
245987,note_on,0,0,0,,,,,,,,,0,,,87,0
245987,note_on,227,0,0,,,,,,,,,0,,,75,0
245987,note_on,0,0,1,,,,,,,,,0,,,63,0
246000,note_on,13,0,1,,,,,,,,,0,,,50,112
246000,note_on,13,0,0,,,,,,,,,0,,,74,112
246000,note_on,0,0,1,,,,,,,,,0,,,62,112
246000,note_on,0,0,0,,,,,,,,,0,,,86,112
246227,note_on,227,0,1,,,,,,,,,0,,,50,0
246227,note_on,227,0,0,,,,,,,,,0,,,74,0
246227,note_on,0,0,1,,,,,,,,,0,,,62,0
246227,note_on,0,0,0,,,,,,,,,0,,,86,0
246240,note_on,0,0,0,,,,,,,,,0,,,87,112
246240,note_on,13,0,0,,,,,,,,,0,,,75,112
246240,note_on,13,0,1,,,,,,,,,0,,,51,112
246240,note_on,0,0,1,,,,,,,,,0,,,63,112
246467,note_on,227,0,0,,,,,,,,,0,,,75,0
246467,note_on,0,0,1,,,,,,,,,0,,,63,0
246467,note_on,0,0,0,,,,,,,,,0,,,87,0
246467,note_on,227,0,1,,,,,,,,,0,,,51,0
246480,note_on,0,0,1,,,,,,,,,0,,,63,112
246480,note_on,13,0,0,,,,,,,,,0,,,75,112
246480,note_on,13,0,1,,,,,,,,,0,,,51,112
246480,note_on,0,0,0,,,,,,,,,0,,,87,112
246707,note_on,227,0,1,,,,,,,,,0,,,51,0
246707,note_on,0,0,0,,,,,,,,,0,,,87,0
246707,note_on,0,0,1,,,,,,,,,0,,,63,0
246707,note_on,227,0,0,,,,,,,,,0,,,75,0
246720,note_on,13,0,1,,,,,,,,,0,,,39,112
246721,control_change,1,0,1,,,,,,,64,0,0,,,,
246722,control_change,1,0,1,,,,,,,64,127,0,,,,
246739,note_on,17,0,1,,,,,,,,,0,,,43,112
246758,note_on,19,0,1,,,,,,,,,0,,,46,112
246777,note_on,19,0,1,,,,,,,,,0,,,51,112
246777,note_on,0,0,0,,,,,,,,,0,,,91,112
246777,note_on,70,0,0,,,,,,,,,0,,,79,112
246777,note_on,0,0,0,,,,,,,,,0,,,82,112
246838,note_on,0,0,1,,,,,,,,,0,,,46,0
246838,note_on,0,0,1,,,,,,,,,0,,,51,0
246838,note_on,61,0,0,,,,,,,,,0,,,79,0
246838,note_on,0,0,0,,,,,,,,,0,,,82,0
246838,note_on,61,0,1,,,,,,,,,0,,,43,0
246838,note_on,0,0,0,,,,,,,,,0,,,91,0
246839,note_on,1,0,1,,,,,,,,,0,,,39,0
247080,note_on,0,0,1,,,,,,,,,0,,,58,112
247080,note_on,242,0,0,,,,,,,,,0,,,70,112
247080,note_on,241,0,1,,,,,,,,,0,,,46,112
247080,note_on,0,0,0,,,,,,,,,0,,,82,112
247081,control_change,1,0,1,,,,,,,64,0,0,,,,
247082,control_change,1,0,1,,,,,,,64,127,0,,,,
247193,note_on,111,0,1,,,,,,,,,0,,,46,0
247193,note_on,0,0,0,,,,,,,,,0,,,82,0
247193,note_on,0,0,1,,,,,,,,,0,,,58,0
247193,note_on,113,0,0,,,,,,,,,0,,,70,0
247200,note_on,7,0,1,,,,,,,,,0,,,46,112
247200,note_on,7,0,0,,,,,,,,,0,,,70,112
247200,note_on,0,0,0,,,,,,,,,0,,,82,112
247200,note_on,0,0,1,,,,,,,,,0,,,58,112
247427,note_on,227,0,0,,,,,,,,,0,,,70,0
247427,note_on,0,0,0,,,,,,,,,0,,,82,0
247427,note_on,227,0,1,,,,,,,,,0,,,46,0
247427,note_on,0,0,1,,,,,,,,,0,,,58,0
247440,note_on,0,0,0,,,,,,,,,0,,,81,112
247440,note_on,13,0,0,,,,,,,,,0,,,69,112
247440,note_on,0,0,1,,,,,,,,,0,,,57,112
247440,note_on,13,0,1,,,,,,,,,0,,,45,112
247667,note_on,227,0,0,,,,,,,,,0,,,69,0
247667,note_on,0,0,0,,,,,,,,,0,,,81,0
247667,note_on,227,0,1,,,,,,,,,0,,,45,0
247667,note_on,0,0,1,,,,,,,,,0,,,57,0
247680,note_on,0,0,1,,,,,,,,,0,,,58,112
247680,note_on,13,0,1,,,,,,,,,0,,,46,112
247680,note_on,0,0,0,,,,,,,,,0,,,82,112
247680,note_on,13,0,0,,,,,,,,,0,,,70,112
247907,note_on,0,0,0,,,,,,,,,0,,,82,0
247907,note_on,227,0,1,,,,,,,,,0,,,46,0
247907,note_on,227,0,0,,,,,,,,,0,,,70,0
247907,note_on,0,0,1,,,,,,,,,0,,,58,0
247920,note_on,0,0,1,,,,,,,,,0,,,63,112
247920,note_on,0,0,0,,,,,,,,,0,,,87,112
247920,note_on,13,0,1,,,,,,,,,0,,,51,112
247920,note_on,13,0,0,,,,,,,,,0,,,75,112
248147,note_on,227,0,1,,,,,,,,,0,,,51,0
248147,note_on,227,0,0,,,,,,,,,0,,,75,0
248147,note_on,0,0,1,,,,,,,,,0,,,63,0
248147,note_on,0,0,0,,,,,,,,,0,,,87,0
248160,note_on,13,0,1,,,,,,,,,0,,,43,112
248161,control_change,1,0,1,,,,,,,64,0,0,,,,
248162,control_change,1,0,1,,,,,,,64,127,0,,,,
248179,note_on,17,0,1,,,,,,,,,0,,,50,112
248198,note_on,0,0,0,,,,,,,,,0,,,82,112
248198,note_on,19,0,1,,,,,,,,,0,,,55,112
248198,note_on,0,0,0,,,,,,,,,0,,,91,112
248198,note_on,51,0,0,,,,,,,,,0,,,79,112
248278,note_on,80,0,1,,,,,,,,,0,,,50,0
248278,note_on,80,0,0,,,,,,,,,0,,,79,0
248278,note_on,0,0,1,,,,,,,,,0,,,55,0
248278,note_on,0,0,0,,,,,,,,,0,,,91,0
248278,note_on,0,0,0,,,,,,,,,0,,,82,0
248279,note_on,1,0,1,,,,,,,,,0,,,43,0
248520,note_on,241,0,1,,,,,,,,,0,,,50,112
248520,note_on,0,0,0,,,,,,,,,0,,,86,112
248520,note_on,0,0,1,,,,,,,,,0,,,62,112
248520,note_on,242,0,0,,,,,,,,,0,,,74,112
248521,control_change,1,0,1,,,,,,,64,0,0,,,,
248522,control_change,1,0,1,,,,,,,64,127,0,,,,
248633,note_on,0,0,0,,,,,,,,,0,,,86,0
248633,note_on,113,0,0,,,,,,,,,0,,,74,0
248633,note_on,0,0,1,,,,,,,,,0,,,62,0
248633,note_on,111,0,1,,,,,,,,,0,,,50,0
248640,note_on,7,0,1,,,,,,,,,0,,,50,112
248640,note_on,0,0,0,,,,,,,,,0,,,86,112
248640,note_on,0,0,1,,,,,,,,,0,,,62,112
248640,note_on,7,0,0,,,,,,,,,0,,,74,112
248867,note_on,0,0,0,,,,,,,,,0,,,86,0
248867,note_on,227,0,0,,,,,,,,,0,,,74,0
248867,note_on,227,0,1,,,,,,,,,0,,,50,0
248867,note_on,0,0,1,,,,,,,,,0,,,62,0
248880,note_on,0,0,0,,,,,,,,,0,,,85,112
248880,note_on,0,0,1,,,,,,,,,0,,,61,112
248880,note_on,13,0,1,,,,,,,,,0,,,49,112
248880,note_on,13,0,0,,,,,,,,,0,,,73,112
249107,note_on,0,0,0,,,,,,,,,0,,,85,0
249107,note_on,0,0,1,,,,,,,,,0,,,61,0
249107,note_on,227,0,1,,,,,,,,,0,,,49,0
249107,note_on,227,0,0,,,,,,,,,0,,,73,0
249120,note_on,13,0,0,,,,,,,,,0,,,74,112
249120,note_on,0,0,0,,,,,,,,,0,,,86,112
249120,note_on,0,0,1,,,,,,,,,0,,,62,112
249120,note_on,13,0,1,,,,,,,,,0,,,50,112
249347,note_on,0,0,1,,,,,,,,,0,,,62,0
249347,note_on,227,0,0,,,,,,,,,0,,,74,0
249347,note_on,227,0,1,,,,,,,,,0,,,50,0
249347,note_on,0,0,0,,,,,,,,,0,,,86,0
249360,note_on,13,0,1,,,,,,,,,0,,,50,112
249360,note_on,13,0,0,,,,,,,,,0,,,74,112
249360,note_on,0,0,1,,,,,,,,,0,,,62,112
249360,note_on,0,0,0,,,,,,,,,0,,,86,112
249587,note_on,0,0,0,,,,,,,,,0,,,86,0
249587,note_on,0,0,1,,,,,,,,,0,,,62,0
249587,note_on,227,0,0,,,,,,,,,0,,,74,0
249587,note_on,227,0,1,,,,,,,,,0,,,50,0
249600,note_on,0,0,0,,,,,,,,,0,,,81,127
249600,note_on,0,0,0,,,,,,,,,0,,,90,127
249600,note_on,13,0,1,,,,,,,,,0,,,38,127
249600,note_on,0,0,1,,,,,,,,,0,,,50,127
249600,note_on,13,0,0,,,,,,,,,0,,,78,127
249601,control_change,1,0,1,,,,,,,64,0,0,,,,
249602,control_change,2,0,0,,,,,,,64,127,0,,,,
249759,note_on,157,0,0,,,,,,,,,0,,,78,0
249759,note_on,0,0,1,,,,,,,,,0,,,50,0
249759,note_on,158,0,1,,,,,,,,,0,,,38,0
249759,note_on,0,0,0,,,,,,,,,0,,,81,0
249759,note_on,0,0,0,,,,,,,,,0,,,90,0
249840,note_on,81,0,0,,,,,,,,,0,,,69,112
249840,note_on,0,0,0,,,,,,,,,0,,,81,112
249840,note_on,0,0,0,,,,,,,,,0,,,78,112
249840,note_on,0,0,1,,,,,,,,,0,,,57,112
249840,note_on,81,0,1,,,,,,,,,0,,,50,112
249840,note_on,0,0,1,,,,,,,,,0,,,54,112
250067,note_on,0,0,0,,,,,,,,,0,,,81,0
250067,note_on,0,0,1,,,,,,,,,0,,,54,0
250067,note_on,0,0,1,,,,,,,,,0,,,57,0
250067,note_on,227,0,0,,,,,,,,,0,,,69,0
250067,note_on,0,0,0,,,,,,,,,0,,,78,0
250067,note_on,227,0,1,,,,,,,,,0,,,50,0
250080,note_on,13,0,0,,,,,,,,,0,,,71,112
250080,note_on,0,0,1,,,,,,,,,0,,,54,112
250080,note_on,0,0,1,,,,,,,,,0,,,59,112
250080,note_on,0,0,0,,,,,,,,,0,,,78,112
250080,note_on,13,0,1,,,,,,,,,0,,,50,112
250080,note_on,0,0,0,,,,,,,,,0,,,83,112
250307,note_on,0,0,1,,,,,,,,,0,,,54,0
250307,note_on,227,0,0,,,,,,,,,0,,,71,0
250307,note_on,0,0,1,,,,,,,,,0,,,59,0
250307,note_on,0,0,0,,,,,,,,,0,,,78,0
250307,note_on,0,0,0,,,,,,,,,0,,,83,0
250307,note_on,227,0,1,,,,,,,,,0,,,50,0
250320,note_on,0,0,0,,,,,,,,,0,,,85,127
250320,note_on,13,0,0,,,,,,,,,0,,,73,127
250320,note_on,13,0,1,,,,,,,,,0,,,42,127
250320,note_on,0,0,0,,,,,,,,,0,,,81,127
250320,note_on,0,0,1,,,,,,,,,0,,,54,127
250321,control_change,1,0,0,,,,,,,64,0,0,,,,
250322,control_change,1,0,0,,,,,,,64,127,0,,,,
250479,note_on,0,0,0,,,,,,,,,0,,,81,0
250479,note_on,0,0,1,,,,,,,,,0,,,54,0
250479,note_on,0,0,0,,,,,,,,,0,,,85,0
250479,note_on,159,0,1,,,,,,,,,0,,,42,0
250479,note_on,157,0,0,,,,,,,,,0,,,73,0
250560,note_on,81,0,1,,,,,,,,,0,,,54,112
250560,note_on,81,0,0,,,,,,,,,0,,,72,112
250560,note_on,0,0,0,,,,,,,,,0,,,80,112
250560,note_on,0,0,1,,,,,,,,,0,,,56,112
250560,note_on,0,0,0,,,,,,,,,0,,,84,112
250560,note_on,0,0,1,,,,,,,,,0,,,60,112
250787,note_on,227,0,1,,,,,,,,,0,,,54,0
250787,note_on,227,0,0,,,,,,,,,0,,,72,0
250787,note_on,0,0,1,,,,,,,,,0,,,60,0
250787,note_on,0,0,0,,,,,,,,,0,,,84,0
250787,note_on,0,0,0,,,,,,,,,0,,,80,0
250787,note_on,0,0,1,,,,,,,,,0,,,56,0
250800,note_on,13,0,0,,,,,,,,,0,,,73,112
250800,note_on,0,0,0,,,,,,,,,0,,,85,112
250800,note_on,0,0,0,,,,,,,,,0,,,81,112
250800,note_on,13,0,1,,,,,,,,,0,,,54,112
250800,note_on,0,0,1,,,,,,,,,0,,,57,112
250800,note_on,0,0,1,,,,,,,,,0,,,61,112
251027,note_on,0,0,1,,,,,,,,,0,,,57,0
251027,note_on,0,0,1,,,,,,,,,0,,,61,0
251027,note_on,227,0,1,,,,,,,,,0,,,54,0
251027,note_on,0,0,0,,,,,,,,,0,,,81,0
251027,note_on,0,0,0,,,,,,,,,0,,,85,0
251027,note_on,227,0,0,,,,,,,,,0,,,73,0
251040,note_on,13,0,0,,,,,,,,,0,,,77,127
251040,note_on,0,0,1,,,,,,,,,0,,,49,127
251040,note_on,0,0,0,,,,,,,,,0,,,80,127
251040,note_on,13,0,1,,,,,,,,,0,,,37,127
251040,note_on,0,0,0,,,,,,,,,0,,,89,127
251041,control_change,1,0,0,,,,,,,64,0,0,,,,
251042,control_change,1,0,0,,,,,,,64,127,0,,,,
251199,note_on,157,0,0,,,,,,,,,0,,,77,0
251199,note_on,159,0,1,,,,,,,,,0,,,37,0
251199,note_on,0,0,1,,,,,,,,,0,,,49,0
251199,note_on,0,0,0,,,,,,,,,0,,,80,0
251199,note_on,0,0,0,,,,,,,,,0,,,89,0
251280,note_on,0,0,0,,,,,,,,,0,,,77,112
251280,note_on,0,0,1,,,,,,,,,0,,,56,112
251280,note_on,81,0,0,,,,,,,,,0,,,68,112
251280,note_on,0,0,1,,,,,,,,,0,,,53,112
251280,note_on,0,0,0,,,,,,,,,0,,,80,112
251280,note_on,81,0,1,,,,,,,,,0,,,49,112
251507,note_on,227,0,1,,,,,,,,,0,,,49,0
251507,note_on,0,0,0,,,,,,,,,0,,,77,0
251507,note_on,0,0,1,,,,,,,,,0,,,53,0
251507,note_on,0,0,1,,,,,,,,,0,,,56,0
251507,note_on,227,0,0,,,,,,,,,0,,,68,0
251507,note_on,0,0,0,,,,,,,,,0,,,80,0
251520,note_on,0,0,1,,,,,,,,,0,,,53,112
251520,note_on,13,0,1,,,,,,,,,0,,,49,112
251520,note_on,0,0,1,,,,,,,,,0,,,58,112
251520,note_on,13,0,0,,,,,,,,,0,,,70,112
251520,note_on,0,0,0,,,,,,,,,0,,,77,112
251520,note_on,0,0,0,,,,,,,,,0,,,82,112
251747,note_on,0,0,1,,,,,,,,,0,,,53,0
251747,note_on,227,0,1,,,,,,,,,0,,,49,0
251747,note_on,227,0,0,,,,,,,,,0,,,70,0
251747,note_on,0,0,1,,,,,,,,,0,,,58,0
251747,note_on,0,0,0,,,,,,,,,0,,,82,0
251747,note_on,0,0,0,,,,,,,,,0,,,77,0
251760,note_on,0,0,0,,,,,,,,,0,,,80,127
251760,note_on,13,0,0,,,,,,,,,0,,,72,127
251760,note_on,0,0,1,,,,,,,,,0,,,53,127
251760,note_on,13,0,1,,,,,,,,,0,,,41,127
251760,note_on,0,0,0,,,,,,,,,0,,,84,127
251761,control_change,1,0,0,,,,,,,64,0,0,,,,
251762,control_change,1,0,0,,,,,,,64,127,0,,,,
251919,note_on,0,0,0,,,,,,,,,0,,,80,0
251919,note_on,0,0,0,,,,,,,,,0,,,84,0
251919,note_on,159,0,1,,,,,,,,,0,,,41,0
251919,note_on,0,0,1,,,,,,,,,0,,,53,0
251919,note_on,157,0,0,,,,,,,,,0,,,72,0
252000,note_on,0,0,1,,,,,,,,,0,,,59,112
252000,note_on,0,0,0,,,,,,,,,0,,,83,112
252000,note_on,0,0,0,,,,,,,,,0,,,79,112
252000,note_on,81,0,0,,,,,,,,,0,,,71,112
252000,note_on,81,0,1,,,,,,,,,0,,,53,112
252000,note_on,0,0,1,,,,,,,,,0,,,55,112
252227,note_on,0,0,0,,,,,,,,,0,,,83,0
252227,note_on,0,0,0,,,,,,,,,0,,,79,0
252227,note_on,227,0,1,,,,,,,,,0,,,53,0
252227,note_on,227,0,0,,,,,,,,,0,,,71,0
252227,note_on,0,0,1,,,,,,,,,0,,,59,0
252227,note_on,0,0,1,,,,,,,,,0,,,55,0
252240,note_on,0,0,1,,,,,,,,,0,,,56,112
252240,note_on,0,0,1,,,,,,,,,0,,,60,112
252240,note_on,0,0,0,,,,,,,,,0,,,84,112
252240,note_on,13,0,0,,,,,,,,,0,,,72,112
252240,note_on,0,0,0,,,,,,,,,0,,,80,112
252240,note_on,13,0,1,,,,,,,,,0,,,53,112
252467,note_on,0,0,0,,,,,,,,,0,,,80,0
252467,note_on,0,0,1,,,,,,,,,0,,,60,0
252467,note_on,227,0,0,,,,,,,,,0,,,72,0
252467,note_on,227,0,1,,,,,,,,,0,,,53,0
252467,note_on,0,0,1,,,,,,,,,0,,,56,0
252467,note_on,0,0,0,,,,,,,,,0,,,84,0
252480,note_on,0,0,0,,,,,,,,,0,,,79,112
252480,note_on,0,0,1,,,,,,,,,0,,,48,112
252480,note_on,13,0,1,,,,,,,,,0,,,36,112
252480,note_on,0,0,0,,,,,,,,,0,,,76,112
252480,note_on,0,0,0,,,,,,,,,0,,,88,112
252480,time_signature,13,1,0,2,4,24,8,,,,,,,,,
252480,set_tempo,0,1,0,,,,,,666667,,,,,,,
252481,control_change,1,0,0,,,,,,,64,0,0,,,,
252482,control_change,1,0,0,,,,,,,64,127,0,,,,
252593,note_on,0,0,0,,,,,,,,,0,,,88,0
252593,note_on,0,0,0,,,,,,,,,0,,,79,0
252593,note_on,0,0,1,,,,,,,,,0,,,48,0
252593,note_on,113,0,1,,,,,,,,,0,,,36,0
252593,note_on,111,0,0,,,,,,,,,0,,,76,0
252660,note_on,0,0,0,,,,,,,,,0,,,76,112
252660,note_on,0,0,1,,,,,,,,,0,,,60,112
252660,note_on,0,0,1,,,,,,,,,0,,,64,112
252660,note_on,67,0,1,,,,,,,,,0,,,55,112
252660,note_on,67,0,0,,,,,,,,,0,,,67,112
252660,note_on,0,0,0,,,,,,,,,0,,,72,112
252716,note_on,0,0,1,,,,,,,,,0,,,60,0
252716,note_on,0,0,1,,,,,,,,,0,,,64,0
252716,note_on,56,0,0,,,,,,,,,0,,,67,0
252716,note_on,56,0,1,,,,,,,,,0,,,55,0
252716,note_on,0,0,0,,,,,,,,,0,,,76,0
252716,note_on,0,0,0,,,,,,,,,0,,,72,0
252720,note_on,4,0,0,,,,,,,,,0,,,67,112
252720,note_on,0,0,1,,,,,,,,,0,,,64,112
252720,note_on,0,0,0,,,,,,,,,0,,,76,112
252720,note_on,0,0,0,,,,,,,,,0,,,72,112
252720,note_on,0,0,1,,,,,,,,,0,,,60,112
252720,note_on,4,0,1,,,,,,,,,0,,,55,112
252947,note_on,0,0,0,,,,,,,,,0,,,72,0
252947,note_on,227,0,1,,,,,,,,,0,,,55,0
252947,note_on,0,0,0,,,,,,,,,0,,,76,0
252947,note_on,227,0,0,,,,,,,,,0,,,67,0
252947,note_on,0,0,1,,,,,,,,,0,,,60,0
252947,note_on,0,0,1,,,,,,,,,0,,,64,0
252960,note_on,13,0,1,,,,,,,,,0,,,36,112
252960,note_on,0,0,0,,,,,,,,,0,,,79,112
252960,note_on,0,0,0,,,,,,,,,0,,,87,112
252960,note_on,0,0,1,,,,,,,,,0,,,48,112
252960,note_on,13,0,0,,,,,,,,,0,,,75,112
252961,control_change,1,0,0,,,,,,,64,0,0,,,,
252962,control_change,1,0,0,,,,,,,64,127,0,,,,
253073,note_on,111,0,0,,,,,,,,,0,,,75,0
253073,note_on,0,0,0,,,,,,,,,0,,,87,0
253073,note_on,0,0,1,,,,,,,,,0,,,48,0
253073,note_on,113,0,1,,,,,,,,,0,,,36,0
253073,note_on,0,0,0,,,,,,,,,0,,,79,0
253140,note_on,0,0,1,,,,,,,,,0,,,60,112
253140,note_on,0,0,0,,,,,,,,,0,,,72,112
253140,note_on,0,0,0,,,,,,,,,0,,,75,112
253140,note_on,0,0,1,,,,,,,,,0,,,63,112
253140,note_on,67,0,0,,,,,,,,,0,,,67,112
253140,note_on,67,0,1,,,,,,,,,0,,,55,112
253196,note_on,56,0,0,,,,,,,,,0,,,67,0
253196,note_on,0,0,0,,,,,,,,,0,,,75,0
253196,note_on,0,0,0,,,,,,,,,0,,,72,0
253196,note_on,0,0,1,,,,,,,,,0,,,63,0
253196,note_on,0,0,1,,,,,,,,,0,,,60,0
253196,note_on,56,0,1,,,,,,,,,0,,,55,0
253200,note_on,0,0,1,,,,,,,,,0,,,63,112
253200,note_on,0,0,1,,,,,,,,,0,,,60,112
253200,note_on,0,0,0,,,,,,,,,0,,,75,112
253200,note_on,4,0,1,,,,,,,,,0,,,55,112
253200,note_on,4,0,0,,,,,,,,,0,,,67,112
253200,note_on,0,0,0,,,,,,,,,0,,,72,112
253427,note_on,227,0,0,,,,,,,,,0,,,67,0
253427,note_on,0,0,0,,,,,,,,,0,,,75,0
253427,note_on,0,0,1,,,,,,,,,0,,,63,0
253427,note_on,227,0,1,,,,,,,,,0,,,55,0
253427,note_on,0,0,0,,,,,,,,,0,,,72,0
253427,note_on,0,0,1,,,,,,,,,0,,,60,0
253440,note_on,0,0,1,,,,,,,,,0,,,44,112
253440,note_on,13,0,1,,,,,,,,,0,,,32,112
253440,note_on,13,0,0,,,,,,,,,0,,,73,112
253440,note_on,0,0,0,,,,,,,,,0,,,77,112
253440,note_on,0,0,0,,,,,,,,,0,,,85,112
253441,control_change,1,0,0,,,,,,,64,0,0,,,,
253442,control_change,1,0,0,,,,,,,64,127,0,,,,
253553,note_on,0,0,0,,,,,,,,,0,,,77,0
253553,note_on,0,0,0,,,,,,,,,0,,,85,0
253553,note_on,113,0,1,,,,,,,,,0,,,32,0
253553,note_on,0,0,1,,,,,,,,,0,,,44,0
253553,note_on,111,0,0,,,,,,,,,0,,,73,0
253620,note_on,0,0,0,,,,,,,,,0,,,73,112
253620,note_on,0,0,1,,,,,,,,,0,,,61,112
253620,note_on,67,0,1,,,,,,,,,0,,,53,112
253620,note_on,67,0,0,,,,,,,,,0,,,65,112
253620,note_on,0,0,1,,,,,,,,,0,,,56,112
253620,note_on,0,0,0,,,,,,,,,0,,,68,112
253676,note_on,56,0,1,,,,,,,,,0,,,53,0
253676,note_on,0,0,1,,,,,,,,,0,,,56,0
253676,note_on,56,0,0,,,,,,,,,0,,,65,0
253676,note_on,0,0,1,,,,,,,,,0,,,61,0
253676,note_on,0,0,0,,,,,,,,,0,,,73,0
253676,note_on,0,0,0,,,,,,,,,0,,,68,0
253680,note_on,0,0,1,,,,,,,,,0,,,61,112
253680,note_on,4,0,0,,,,,,,,,0,,,65,112
253680,note_on,0,0,1,,,,,,,,,0,,,56,112
253680,note_on,0,0,0,,,,,,,,,0,,,68,112
253680,note_on,0,0,0,,,,,,,,,0,,,73,112
253680,note_on,4,0,1,,,,,,,,,0,,,53,112
253907,note_on,0,0,0,,,,,,,,,0,,,68,0
253907,note_on,0,0,0,,,,,,,,,0,,,73,0
253907,note_on,227,0,1,,,,,,,,,0,,,53,0
253907,note_on,227,0,0,,,,,,,,,0,,,65,0
253907,note_on,0,0,1,,,,,,,,,0,,,61,0
253907,note_on,0,0,1,,,,,,,,,0,,,56,0
253920,note_on,13,0,1,,,,,,,,,0,,,33,112
253920,note_on,0,0,0,,,,,,,,,0,,,75,112
253920,note_on,13,0,0,,,,,,,,,0,,,72,112
253920,note_on,0,0,0,,,,,,,,,0,,,84,112
253920,note_on,0,0,1,,,,,,,,,0,,,45,112
253921,control_change,1,0,0,,,,,,,64,0,0,,,,
253922,control_change,1,0,0,,,,,,,64,127,0,,,,
254033,note_on,0,0,1,,,,,,,,,0,,,45,0
254033,note_on,111,0,0,,,,,,,,,0,,,72,0
254033,note_on,113,0,1,,,,,,,,,0,,,33,0
254033,note_on,0,0,0,,,,,,,,,0,,,75,0
254033,note_on,0,0,0,,,,,,,,,0,,,84,0
254100,note_on,67,0,0,,,,,,,,,0,,,63,112
254100,note_on,67,0,1,,,,,,,,,0,,,51,112
254100,note_on,0,0,0,,,,,,,,,0,,,72,112
254100,note_on,0,0,0,,,,,,,,,0,,,66,112
254100,note_on,0,0,1,,,,,,,,,0,,,54,112
254100,note_on,0,0,1,,,,,,,,,0,,,60,112
254156,note_on,56,0,0,,,,,,,,,0,,,63,0
254156,note_on,56,0,1,,,,,,,,,0,,,51,0
254156,note_on,0,0,1,,,,,,,,,0,,,54,0
254156,note_on,0,0,0,,,,,,,,,0,,,72,0
254156,note_on,0,0,1,,,,,,,,,0,,,60,0
254156,note_on,0,0,0,,,,,,,,,0,,,66,0
254160,note_on,0,0,1,,,,,,,,,0,,,54,112
254160,note_on,0,0,0,,,,,,,,,0,,,72,112
254160,note_on,0,0,1,,,,,,,,,0,,,60,112
254160,note_on,0,0,0,,,,,,,,,0,,,66,112
254160,note_on,4,0,0,,,,,,,,,0,,,63,112
254160,note_on,4,0,1,,,,,,,,,0,,,51,112
254387,note_on,227,0,0,,,,,,,,,0,,,63,0
254387,note_on,0,0,1,,,,,,,,,0,,,54,0
254387,note_on,0,0,1,,,,,,,,,0,,,60,0
254387,note_on,0,0,0,,,,,,,,,0,,,66,0
254387,note_on,0,0,0,,,,,,,,,0,,,72,0
254387,note_on,227,0,1,,,,,,,,,0,,,51,0
254400,note_on,0,0,1,,,,,,,,,0,,,46,84
254400,set_tempo,0,1,0,,,,,,428572,,,,,,,
254400,note_on,0,0,0,,,,,,,,,0,,,70,84
254400,note_on,0,0,0,,,,,,,,,0,,,82,84
254400,time_signature,13,1,0,6,8,24,8,,,,,,,,,
254400,note_on,13,0,1,,,,,,,,,0,,,34,84
254401,control_change,1,0,0,,,,,,,64,0,0,,,,
254559,note_on,0,0,0,,,,,,,,,0,,,82,0
254559,note_on,159,0,1,,,,,,,,,0,,,34,0
254559,note_on,158,0,0,,,,,,,,,0,,,70,0
254559,note_on,0,0,1,,,,,,,,,0,,,46,0
254640,note_on,0,0,0,,,,,,,,,0,,,70,70
254640,note_on,81,0,0,,,,,,,,,0,,,58,70
254718,note_on,78,0,0,,,,,,,,,0,,,58,0
254718,note_on,0,0,0,,,,,,,,,0,,,70,0
254760,note_on,201,0,1,,,,,,,,,0,,,51,70
254760,note_on,0,0,1,,,,,,,,,0,,,54,70
254798,note_on,0,0,1,,,,,,,,,0,,,54,0
254798,note_on,38,0,1,,,,,,,,,0,,,51,0
254880,note_on,0,0,0,,,,,,,,,0,,,82,70
254880,note_on,82,0,1,,,,,,,,,0,,,52,70
254880,note_on,162,0,0,,,,,,,,,0,,,70,70
254880,note_on,0,0,1,,,,,,,,,0,,,55,70
254958,note_on,0,0,0,,,,,,,,,0,,,82,0
254958,note_on,78,0,1,,,,,,,,,0,,,52,0
254958,note_on,78,0,0,,,,,,,,,0,,,70,0
254958,note_on,0,0,1,,,,,,,,,0,,,55,0
255120,note_on,162,0,0,,,,,,,,,0,,,82,70
255120,note_on,0,0,0,,,,,,,,,0,,,94,70
255120,note_on,0,0,1,,,,,,,,,0,,,55,70
255120,note_on,162,0,1,,,,,,,,,0,,,52,70
255198,note_on,0,0,1,,,,,,,,,0,,,55,0
255198,note_on,0,0,0,,,,,,,,,0,,,94,0
255198,note_on,78,0,0,,,,,,,,,0,,,82,0
255198,note_on,78,0,1,,,,,,,,,0,,,52,0
255360,note_on,0,0,0,,,,,,,,,0,,,82,70
255360,note_on,162,0,0,,,,,,,,,0,,,70,70
255438,note_on,0,0,0,,,,,,,,,0,,,82,0
255438,note_on,78,0,0,,,,,,,,,0,,,70,0
255480,note_on,282,0,1,,,,,,,,,0,,,53,70
255480,note_on,0,0,1,,,,,,,,,0,,,56,70
255518,note_on,0,0,1,,,,,,,,,0,,,56,0
255518,note_on,38,0,1,,,,,,,,,0,,,53,0
255600,note_on,82,0,1,,,,,,,,,0,,,50,70
255600,note_on,0,0,0,,,,,,,,,0,,,70,70
255600,note_on,0,0,1,,,,,,,,,0,,,53,70
255600,note_on,162,0,0,,,,,,,,,0,,,58,70
255678,note_on,0,0,1,,,,,,,,,0,,,53,0
255678,note_on,0,0,0,,,,,,,,,0,,,70,0
255678,note_on,78,0,0,,,,,,,,,0,,,58,0
255678,note_on,78,0,1,,,,,,,,,0,,,50,0
255840,note_on,162,0,1,,,,,,,,,0,,,34,84
255840,note_on,0,0,1,,,,,,,,,0,,,46,84
255840,note_on,0,0,0,,,,,,,,,0,,,82,84
255840,note_on,162,0,0,,,,,,,,,0,,,70,84
255999,note_on,0,0,1,,,,,,,,,0,,,46,0
255999,note_on,159,0,0,,,,,,,,,0,,,70,0
255999,note_on,0,0,0,,,,,,,,,0,,,82,0
255999,note_on,159,0,1,,,,,,,,,0,,,34,0
256080,note_on,0,0,0,,,,,,,,,0,,,70,70
256080,note_on,81,0,0,,,,,,,,,0,,,58,70
256158,note_on,0,0,0,,,,,,,,,0,,,70,0
256158,note_on,78,0,0,,,,,,,,,0,,,58,0
256200,note_on,201,0,1,,,,,,,,,0,,,51,70
256200,note_on,0,0,1,,,,,,,,,0,,,54,70
256238,note_on,38,0,1,,,,,,,,,0,,,51,0
256238,note_on,0,0,1,,,,,,,,,0,,,54,0
256320,note_on,0,0,0,,,,,,,,,0,,,82,70
256320,note_on,0,0,1,,,,,,,,,0,,,55,70
256320,note_on,162,0,0,,,,,,,,,0,,,70,70
256320,note_on,82,0,1,,,,,,,,,0,,,52,70
256398,note_on,78,0,1,,,,,,,,,0,,,52,0
256398,note_on,0,0,0,,,,,,,,,0,,,82,0
256398,note_on,78,0,0,,,,,,,,,0,,,70,0
256398,note_on,0,0,1,,,,,,,,,0,,,55,0
256560,note_on,0,0,0,,,,,,,,,0,,,94,70
256560,note_on,162,0,0,,,,,,,,,0,,,82,70
256560,note_on,0,0,1,,,,,,,,,0,,,55,70
256560,note_on,162,0,1,,,,,,,,,0,,,52,70
256638,note_on,78,0,1,,,,,,,,,0,,,52,0
256638,note_on,0,0,1,,,,,,,,,0,,,55,0
256638,note_on,0,0,0,,,,,,,,,0,,,94,0
256638,note_on,78,0,0,,,,,,,,,0,,,82,0
256800,note_on,0,0,0,,,,,,,,,0,,,82,70
256800,note_on,162,0,0,,,,,,,,,0,,,70,70
256878,note_on,0,0,0,,,,,,,,,0,,,82,0
256878,note_on,78,0,0,,,,,,,,,0,,,70,0
256920,note_on,282,0,1,,,,,,,,,0,,,53,70
256920,note_on,0,0,1,,,,,,,,,0,,,56,70
256958,note_on,0,0,1,,,,,,,,,0,,,56,0
256958,note_on,38,0,1,,,,,,,,,0,,,53,0
257040,note_on,0,0,0,,,,,,,,,0,,,70,70
257040,note_on,162,0,0,,,,,,,,,0,,,58,70
257040,note_on,0,0,1,,,,,,,,,0,,,53,70
257040,note_on,82,0,1,,,,,,,,,0,,,50,70
257118,note_on,0,0,0,,,,,,,,,0,,,70,0
257118,note_on,78,0,0,,,,,,,,,0,,,58,0
257118,note_on,0,0,1,,,,,,,,,0,,,53,0
257118,note_on,78,0,1,,,,,,,,,0,,,50,0
257280,note_on,162,0,1,,,,,,,,,0,,,37,84
257280,note_on,162,0,0,,,,,,,,,0,,,73,84
257280,note_on,0,0,0,,,,,,,,,0,,,85,84
257280,note_on,0,0,1,,,,,,,,,0,,,49,84
257439,note_on,0,0,1,,,,,,,,,0,,,49,0
257439,note_on,0,0,0,,,,,,,,,0,,,85,0
257439,note_on,159,0,1,,,,,,,,,0,,,37,0
257439,note_on,159,0,0,,,,,,,,,0,,,73,0
257520,note_on,81,0,0,,,,,,,,,0,,,61,70
257520,note_on,0,0,0,,,,,,,,,0,,,73,70
257598,note_on,0,0,0,,,,,,,,,0,,,73,0
257598,note_on,78,0,0,,,,,,,,,0,,,61,0
257640,note_on,0,0,1,,,,,,,,,0,,,57,70
257640,note_on,201,0,1,,,,,,,,,0,,,54,70
257678,note_on,38,0,1,,,,,,,,,0,,,54,0
257678,note_on,0,0,1,,,,,,,,,0,,,57,0
257760,note_on,0,0,1,,,,,,,,,0,,,58,70
257760,note_on,162,0,0,,,,,,,,,0,,,73,70
257760,note_on,0,0,0,,,,,,,,,0,,,85,70
257760,note_on,82,0,1,,,,,,,,,0,,,55,70
257838,note_on,0,0,1,,,,,,,,,0,,,58,0
257838,note_on,0,0,0,,,,,,,,,0,,,85,0
257838,note_on,78,0,0,,,,,,,,,0,,,73,0
257838,note_on,78,0,1,,,,,,,,,0,,,55,0
258000,note_on,0,0,1,,,,,,,,,0,,,58,70
258000,note_on,162,0,1,,,,,,,,,0,,,55,70
258000,note_on,162,0,0,,,,,,,,,0,,,85,70
258000,note_on,0,0,0,,,,,,,,,0,,,97,70
258078,note_on,78,0,0,,,,,,,,,0,,,85,0
258078,note_on,0,0,0,,,,,,,,,0,,,97,0
258078,note_on,78,0,1,,,,,,,,,0,,,55,0
258078,note_on,0,0,1,,,,,,,,,0,,,58,0
258240,note_on,162,0,0,,,,,,,,,0,,,73,70
258240,note_on,0,0,0,,,,,,,,,0,,,85,70
258318,note_on,78,0,0,,,,,,,,,0,,,73,0
258318,note_on,0,0,0,,,,,,,,,0,,,85,0
258360,note_on,0,0,1,,,,,,,,,0,,,59,70
258360,note_on,282,0,1,,,,,,,,,0,,,56,70
258398,note_on,38,0,1,,,,,,,,,0,,,56,0
258398,note_on,0,0,1,,,,,,,,,0,,,59,0
258480,note_on,162,0,0,,,,,,,,,0,,,61,70
258480,note_on,0,0,1,,,,,,,,,0,,,56,70
258480,note_on,82,0,1,,,,,,,,,0,,,53,70
258480,note_on,0,0,0,,,,,,,,,0,,,73,70
258558,note_on,0,0,1,,,,,,,,,0,,,56,0
258558,note_on,78,0,0,,,,,,,,,0,,,61,0
258558,note_on,78,0,1,,,,,,,,,0,,,53,0
258558,note_on,0,0,0,,,,,,,,,0,,,73,0
258720,note_on,162,0,1,,,,,,,,,0,,,37,84
258720,note_on,0,0,1,,,,,,,,,0,,,49,84
258720,note_on,162,0,0,,,,,,,,,0,,,73,84
258720,note_on,0,0,0,,,,,,,,,0,,,85,84
258879,note_on,159,0,0,,,,,,,,,0,,,73,0
258879,note_on,159,0,1,,,,,,,,,0,,,37,0
258879,note_on,0,0,0,,,,,,,,,0,,,85,0
258879,note_on,0,0,1,,,,,,,,,0,,,49,0
258960,note_on,81,0,0,,,,,,,,,0,,,61,70
258960,note_on,0,0,0,,,,,,,,,0,,,73,70
259038,note_on,0,0,0,,,,,,,,,0,,,73,0
259038,note_on,78,0,0,,,,,,,,,0,,,61,0
259080,note_on,0,0,1,,,,,,,,,0,,,57,70
259080,note_on,201,0,1,,,,,,,,,0,,,54,70
259118,note_on,38,0,1,,,,,,,,,0,,,54,0
259118,note_on,0,0,1,,,,,,,,,0,,,57,0
259200,note_on,0,0,0,,,,,,,,,0,,,85,70
259200,note_on,82,0,1,,,,,,,,,0,,,55,70
259200,note_on,0,0,1,,,,,,,,,0,,,58,70
259200,note_on,162,0,0,,,,,,,,,0,,,73,70
259278,note_on,78,0,1,,,,,,,,,0,,,55,0
259278,note_on,0,0,1,,,,,,,,,0,,,58,0
259278,note_on,0,0,0,,,,,,,,,0,,,85,0
259278,note_on,78,0,0,,,,,,,,,0,,,73,0
259440,note_on,162,0,1,,,,,,,,,0,,,55,70
259440,note_on,162,0,0,,,,,,,,,0,,,85,70
259440,note_on,0,0,1,,,,,,,,,0,,,58,70
259440,note_on,0,0,0,,,,,,,,,0,,,97,70
259518,note_on,0,0,0,,,,,,,,,0,,,97,0
259518,note_on,0,0,1,,,,,,,,,0,,,58,0
259518,note_on,78,0,1,,,,,,,,,0,,,55,0
259518,note_on,78,0,0,,,,,,,,,0,,,85,0
259680,note_on,162,0,0,,,,,,,,,0,,,73,70
259680,note_on,0,0,0,,,,,,,,,0,,,85,70
259758,note_on,0,0,0,,,,,,,,,0,,,85,0
259758,note_on,78,0,0,,,,,,,,,0,,,73,0
259800,note_on,0,0,1,,,,,,,,,0,,,59,70
259800,note_on,282,0,1,,,,,,,,,0,,,56,70
259838,note_on,0,0,1,,,,,,,,,0,,,59,0
259838,note_on,38,0,1,,,,,,,,,0,,,56,0
259920,note_on,162,0,0,,,,,,,,,0,,,61,70
259920,note_on,82,0,1,,,,,,,,,0,,,53,70
259920,note_on,0,0,0,,,,,,,,,0,,,73,70
259920,note_on,0,0,1,,,,,,,,,0,,,56,70
259998,note_on,78,0,0,,,,,,,,,0,,,61,0
259998,note_on,0,0,0,,,,,,,,,0,,,73,0
259998,note_on,78,0,1,,,,,,,,,0,,,53,0
259998,note_on,0,0,1,,,,,,,,,0,,,56,0
260160,note_on,162,0,1,,,,,,,,,0,,,40,84
260160,note_on,162,0,0,,,,,,,,,0,,,76,84
260160,note_on,0,0,1,,,,,,,,,0,,,52,84
260160,note_on,0,0,0,,,,,,,,,0,,,88,84
260319,note_on,0,0,0,,,,,,,,,0,,,88,0
260319,note_on,159,0,1,,,,,,,,,0,,,40,0
260319,note_on,0,0,1,,,,,,,,,0,,,52,0
260319,note_on,159,0,0,,,,,,,,,0,,,76,0
260400,note_on,0,0,0,,,,,,,,,0,,,76,71
260400,note_on,81,0,0,,,,,,,,,0,,,64,71
260478,note_on,0,0,0,,,,,,,,,0,,,76,0
260478,note_on,78,0,0,,,,,,,,,0,,,64,0
260520,note_on,0,0,1,,,,,,,,,0,,,60,71
260520,note_on,201,0,1,,,,,,,,,0,,,57,71
260558,note_on,0,0,1,,,,,,,,,0,,,60,0
260558,note_on,38,0,1,,,,,,,,,0,,,57,0
260640,note_on,162,0,0,,,,,,,,,0,,,76,72
260640,note_on,0,0,1,,,,,,,,,0,,,61,72
260640,note_on,82,0,1,,,,,,,,,0,,,58,72
260640,note_on,0,0,0,,,,,,,,,0,,,88,72
260718,note_on,78,0,0,,,,,,,,,0,,,76,0
260718,note_on,78,0,1,,,,,,,,,0,,,58,0
260718,note_on,0,0,1,,,,,,,,,0,,,61,0
260718,note_on,0,0,0,,,,,,,,,0,,,88,0
260880,note_on,0,0,0,,,,,,,,,0,,,100,73
260880,note_on,0,0,1,,,,,,,,,0,,,61,73
260880,note_on,162,0,0,,,,,,,,,0,,,88,73
260880,note_on,162,0,1,,,,,,,,,0,,,58,73
260958,note_on,78,0,1,,,,,,,,,0,,,58,0
260958,note_on,0,0,1,,,,,,,,,0,,,61,0
260958,note_on,78,0,0,,,,,,,,,0,,,88,0
260958,note_on,0,0,0,,,,,,,,,0,,,100,0
261120,note_on,0,0,0,,,,,,,,,0,,,88,75
261120,note_on,162,0,0,,,,,,,,,0,,,76,75
261198,note_on,78,0,0,,,,,,,,,0,,,76,0
261198,note_on,0,0,0,,,,,,,,,0,,,88,0
261240,note_on,0,0,1,,,,,,,,,0,,,62,75
261240,note_on,282,0,1,,,,,,,,,0,,,59,75
261278,note_on,0,0,1,,,,,,,,,0,,,62,0
261278,note_on,38,0,1,,,,,,,,,0,,,59,0
261360,note_on,162,0,0,,,,,,,,,0,,,64,76
261360,note_on,0,0,0,,,,,,,,,0,,,76,76
261360,note_on,0,0,1,,,,,,,,,0,,,59,76
261360,note_on,82,0,1,,,,,,,,,0,,,56,76
261438,note_on,0,0,1,,,,,,,,,0,,,59,0
261438,note_on,78,0,0,,,,,,,,,0,,,64,0
261438,note_on,0,0,0,,,,,,,,,0,,,76,0
261438,note_on,78,0,1,,,,,,,,,0,,,56,0
261600,note_on,162,0,0,,,,,,,,,0,,,79,77
261600,note_on,0,0,0,,,,,,,,,0,,,91,77
261600,note_on,0,0,1,,,,,,,,,0,,,55,77
261600,note_on,162,0,1,,,,,,,,,0,,,43,77
261678,note_on,78,0,1,,,,,,,,,0,,,43,0
261678,note_on,0,0,0,,,,,,,,,0,,,91,0
261678,note_on,78,0,0,,,,,,,,,0,,,79,0
261678,note_on,0,0,1,,,,,,,,,0,,,55,0
261840,note_on,162,0,0,,,,,,,,,0,,,67,78
261840,note_on,0,0,0,,,,,,,,,0,,,79,78
261918,note_on,78,0,0,,,,,,,,,0,,,67,0
261918,note_on,0,0,0,,,,,,,,,0,,,79,0
261960,note_on,0,0,1,,,,,,,,,0,,,63,79
261960,note_on,282,0,1,,,,,,,,,0,,,60,79
261998,note_on,38,0,1,,,,,,,,,0,,,60,0
261998,note_on,0,0,1,,,,,,,,,0,,,63,0
262080,note_on,0,0,0,,,,,,,,,0,,,91,80
262080,note_on,0,0,1,,,,,,,,,0,,,64,80
262080,note_on,82,0,1,,,,,,,,,0,,,61,80
262080,note_on,162,0,0,,,,,,,,,0,,,79,80
262158,note_on,78,0,1,,,,,,,,,0,,,61,0
262158,note_on,78,0,0,,,,,,,,,0,,,79,0
262158,note_on,0,0,1,,,,,,,,,0,,,64,0
262158,note_on,0,0,0,,,,,,,,,0,,,91,0
262320,note_on,162,0,0,,,,,,,,,0,,,91,81
262320,note_on,162,0,1,,,,,,,,,0,,,61,81
262320,note_on,0,0,0,,,,,,,,,0,,,103,81
262320,note_on,0,0,1,,,,,,,,,0,,,64,81
262398,note_on,78,0,1,,,,,,,,,0,,,61,0
262398,note_on,0,0,0,,,,,,,,,0,,,103,0
262398,note_on,78,0,0,,,,,,,,,0,,,91,0
262398,note_on,0,0,1,,,,,,,,,0,,,64,0
262560,note_on,162,0,0,,,,,,,,,0,,,79,82
262560,note_on,0,0,0,,,,,,,,,0,,,91,82
262638,note_on,0,0,0,,,,,,,,,0,,,91,0
262638,note_on,78,0,0,,,,,,,,,0,,,79,0
262680,note_on,0,0,1,,,,,,,,,0,,,65,83
262680,note_on,282,0,1,,,,,,,,,0,,,62,83
262682,control_change,2,0,1,,,,,,,64,127,0,,,,
262718,note_on,36,0,1,,,,,,,,,0,,,62,0
262718,note_on,0,0,1,,,,,,,,,0,,,65,0
262800,note_on,82,0,1,,,,,,,,,0,,,59,83
262800,note_on,162,0,0,,,,,,,,,0,,,67,83
262800,note_on,0,0,1,,,,,,,,,0,,,62,83
262800,note_on,0,0,0,,,,,,,,,0,,,79,83
262878,note_on,78,0,1,,,,,,,,,0,,,59,0
262878,note_on,78,0,0,,,,,,,,,0,,,67,0
262878,note_on,0,0,1,,,,,,,,,0,,,62,0
262878,note_on,0,0,0,,,,,,,,,0,,,79,0
263040,note_on,162,0,0,,,,,,,,,0,,,82,85
263040,note_on,0,0,1,,,,,,,,,0,,,55,85
263040,note_on,162,0,1,,,,,,,,,0,,,43,85
263040,note_on,0,0,0,,,,,,,,,0,,,94,85
263118,note_on,0,0,0,,,,,,,,,0,,,94,0
263118,note_on,0,0,1,,,,,,,,,0,,,55,0
263118,note_on,78,0,1,,,,,,,,,0,,,43,0
263118,note_on,78,0,0,,,,,,,,,0,,,82,0
263280,note_on,0,0,0,,,,,,,,,0,,,82,91
263280,note_on,162,0,0,,,,,,,,,0,,,70,91
263358,note_on,0,0,0,,,,,,,,,0,,,82,0
263358,note_on,78,0,0,,,,,,,,,0,,,70,0
263400,note_on,282,0,1,,,,,,,,,0,,,60,95
263400,note_on,0,0,1,,,,,,,,,0,,,67,95
263400,note_on,0,0,1,,,,,,,,,0,,,63,95
263438,note_on,0,0,1,,,,,,,,,0,,,63,0
263438,note_on,0,0,1,,,,,,,,,0,,,67,0
263438,note_on,38,0,1,,,,,,,,,0,,,60,0
263520,note_on,162,0,0,,,,,,,,,0,,,82,98
263520,note_on,82,0,1,,,,,,,,,0,,,61,98
263520,note_on,0,0,0,,,,,,,,,0,,,94,98
263520,note_on,0,0,1,,,,,,,,,0,,,67,98
263520,note_on,0,0,1,,,,,,,,,0,,,64,98
263598,note_on,0,0,0,,,,,,,,,0,,,94,0
263598,note_on,78,0,1,,,,,,,,,0,,,61,0
263598,note_on,78,0,0,,,,,,,,,0,,,82,0
263598,note_on,0,0,1,,,,,,,,,0,,,67,0
263598,note_on,0,0,1,,,,,,,,,0,,,64,0
263760,note_on,0,0,1,,,,,,,,,0,,,64,105
263760,note_on,0,0,1,,,,,,,,,0,,,67,105
263760,note_on,0,0,0,,,,,,,,,0,,,106,105
263760,note_on,162,0,0,,,,,,,,,0,,,94,105
263760,note_on,162,0,1,,,,,,,,,0,,,61,105
263838,note_on,0,0,0,,,,,,,,,0,,,106,0
263838,note_on,0,0,1,,,,,,,,,0,,,67,0
263838,note_on,78,0,0,,,,,,,,,0,,,94,0
263838,note_on,78,0,1,,,,,,,,,0,,,61,0
263838,note_on,0,0,1,,,,,,,,,0,,,64,0
264000,note_on,162,0,0,,,,,,,,,0,,,82,112
264000,note_on,0,0,0,,,,,,,,,0,,,94,112
264078,note_on,78,0,0,,,,,,,,,0,,,82,0
264078,note_on,0,0,0,,,,,,,,,0,,,94,0
264120,note_on,0,0,1,,,,,,,,,0,,,67,115
264120,note_on,0,0,1,,,,,,,,,0,,,65,115
264120,note_on,282,0,1,,,,,,,,,0,,,62,115
264158,note_on,38,0,1,,,,,,,,,0,,,62,0
264158,note_on,0,0,1,,,,,,,,,0,,,67,0
264158,note_on,0,0,1,,,,,,,,,0,,,65,0
264240,note_on,162,0,0,,,,,,,,,0,,,70,119
264240,note_on,82,0,1,,,,,,,,,0,,,55,119
264240,note_on,0,0,1,,,,,,,,,0,,,67,119
264240,note_on,0,0,0,,,,,,,,,0,,,82,119
264240,note_on,0,0,1,,,,,,,,,0,,,62,119
264318,note_on,0,0,1,,,,,,,,,0,,,67,0
264318,note_on,78,0,0,,,,,,,,,0,,,70,0
264318,note_on,78,0,1,,,,,,,,,0,,,55,0
264318,note_on,0,0,1,,,,,,,,,0,,,62,0
264318,note_on,0,0,0,,,,,,,,,0,,,82,0
264480,note_on,0,0,1,,,,,,,,,0,,,55,126
264480,set_tempo,162,1,0,,,,,,500000,,,,,,,
264480,note_on,0,0,0,,,,,,,,,0,,,95,126
264480,note_on,0,0,0,,,,,,,,,0,,,83,126
264480,note_on,162,0,1,,,,,,,,,0,,,43,126
264481,control_change,1,0,1,,,,,,,64,0,0,,,,
264482,control_change,1,0,1,,,,,,,64,127,0,,,,
264558,note_on,0,0,1,,,,,,,,,0,,,55,0
264558,note_on,78,0,0,,,,,,,,,0,,,83,0
264558,note_on,76,0,1,,,,,,,,,0,,,43,0
264558,note_on,0,0,0,,,,,,,,,0,,,95,0
264720,note_on,0,0,0,,,,,,,,,0,,,83,126
264720,note_on,162,0,0,,,,,,,,,0,,,71,126
264798,note_on,78,0,0,,,,,,,,,0,,,71,0
264798,note_on,0,0,0,,,,,,,,,0,,,83,0
264840,note_on,282,0,1,,,,,,,,,0,,,61,126
264840,note_on,0,0,1,,,,,,,,,0,,,64,126
264840,note_on,0,0,1,,,,,,,,,0,,,67,126
264878,note_on,0,0,1,,,,,,,,,0,,,64,0
264878,note_on,38,0,1,,,,,,,,,0,,,61,0
264878,note_on,0,0,1,,,,,,,,,0,,,67,0
264960,note_on,0,0,1,,,,,,,,,0,,,65,126
264960,note_on,82,0,1,,,,,,,,,0,,,62,126
264960,note_on,162,0,0,,,,,,,,,0,,,83,126
264960,note_on,0,0,0,,,,,,,,,0,,,95,126
264960,note_on,0,0,1,,,,,,,,,0,,,67,126
265038,note_on,78,0,1,,,,,,,,,0,,,62,0
265038,note_on,0,0,1,,,,,,,,,0,,,67,0
265038,note_on,0,0,0,,,,,,,,,0,,,95,0
265038,note_on,78,0,0,,,,,,,,,0,,,83,0
265038,note_on,0,0,1,,,,,,,,,0,,,65,0
265200,note_on,0,0,1,,,,,,,,,0,,,65,126
265200,note_on,0,0,1,,,,,,,,,0,,,67,126
265200,set_tempo,162,1,0,,,,,,599999,,,,,,,
265200,note_on,162,0,1,,,,,,,,,0,,,62,126
265200,note_on,0,0,0,,,,,,,,,0,,,95,126
265200,note_on,0,0,0,,,,,,,,,0,,,107,126
265278,note_on,0,0,0,,,,,,,,,0,,,107,0
265278,note_on,78,0,0,,,,,,,,,0,,,95,0
265278,note_on,0,0,1,,,,,,,,,0,,,67,0
265278,note_on,0,0,1,,,,,,,,,0,,,65,0
265278,note_on,78,0,1,,,,,,,,,0,,,62,0
265440,note_on,162,0,0,,,,,,,,,0,,,83,126
265440,note_on,0,0,0,,,,,,,,,0,,,95,126
265518,note_on,78,0,0,,,,,,,,,0,,,83,0
265518,note_on,0,0,0,,,,,,,,,0,,,95,0
265560,note_on,0,0,1,,,,,,,,,0,,,62,126
265560,note_on,0,0,1,,,,,,,,,0,,,65,126
265560,note_on,0,0,1,,,,,,,,,0,,,68,126
265560,note_on,282,0,1,,,,,,,,,0,,,56,126
265598,note_on,0,0,1,,,,,,,,,0,,,62,0
265598,note_on,0,0,1,,,,,,,,,0,,,68,0
265598,note_on,0,0,1,,,,,,,,,0,,,65,0
265598,note_on,38,0,1,,,,,,,,,0,,,56,0
265680,note_on,0,0,1,,,,,,,,,0,,,65,126
265680,note_on,0,0,0,,,,,,,,,0,,,83,126
265680,note_on,0,0,1,,,,,,,,,0,,,62,126
265680,note_on,0,0,1,,,,,,,,,0,,,67,126
265680,note_on,82,0,1,,,,,,,,,0,,,55,126
265680,note_on,162,0,0,,,,,,,,,0,,,71,126
265758,note_on,0,0,1,,,,,,,,,0,,,62,0
265758,note_on,0,0,1,,,,,,,,,0,,,65,0
265758,note_on,0,0,0,,,,,,,,,0,,,83,0
265758,note_on,78,0,0,,,,,,,,,0,,,71,0
265758,note_on,0,0,1,,,,,,,,,0,,,67,0
265758,note_on,78,0,1,,,,,,,,,0,,,55,0
265920,set_tempo,162,1,0,,,,,,666667,,,,,,,
265920,note_on,0,0,0,,,,,,,,,0,,,88,84
265920,note_on,0,0,0,,,,,,,,,0,,,76,84
265920,note_on,0,0,0,,,,,,,,,0,,,76,70
265920,note_on,0,0,0,,,,,,,,,0,,,76,0
265920,note_on,162,0,1,,,,,,,,,0,,,36,70
265920,note_on,0,0,1,,,,,,,,,0,,,48,70
265921,control_change,1,0,1,,,,,,,64,0,0,,,,
265922,control_change,1,0,1,,,,,,,64,127,0,,,,
265998,note_on,0,0,1,,,,,,,,,0,,,48,0
265998,note_on,76,0,1,,,,,,,,,0,,,36,0
266040,note_on,120,0,0,,,,,,,,,0,,,79,70
266153,note_on,113,0,0,,,,,,,,,0,,,79,0
266160,note_on,0,0,1,,,,,,,,,0,,,62,70
266160,note_on,162,0,1,,,,,,,,,0,,,52,70
266160,note_on,0,0,1,,,,,,,,,0,,,55,70
266160,note_on,7,0,0,,,,,,,,,0,,,76,0
266160,note_on,0,0,0,,,,,,,,,0,,,84,70
266160,note_on,0,0,0,,,,,,,,,0,,,88,0
266273,note_on,113,0,0,,,,,,,,,0,,,84,0
266279,note_on,0,0,1,,,,,,,,,0,,,55,0
266279,note_on,0,0,1,,,,,,,,,0,,,62,0
266279,note_on,119,0,1,,,,,,,,,0,,,52,0
266280,set_tempo,7,1,0,,,,,,600000,,,,,,,
266280,note_on,0,0,0,,,,,,,,,0,,,74,70
266280,note_on,0,0,0,,,,,,,,,0,,,74,70
266280,note_on,0,0,0,,,,,,,,,0,,,86,70
266280,note_on,0,0,0,,,,,,,,,0,,,74,0
266400,note_on,121,0,1,,,,,,,,,0,,,48,70
266400,note_on,120,0,0,,,,,,,,,0,,,76,70
266513,note_on,113,0,0,,,,,,,,,0,,,76,0
266519,note_on,119,0,1,,,,,,,,,0,,,48,0
266520,note_on,7,0,0,,,,,,,,,0,,,79,70
266621,note_on,0,0,0,,,,,,,,,0,,,86,0
266621,note_on,101,0,0,,,,,,,,,0,,,74,0
266633,note_on,12,0,0,,,,,,,,,0,,,79,0
266640,note_on,121,0,1,,,,,,,,,0,,,52,70
266640,set_tempo,7,1,0,,,,,,545455,,,,,,,
266640,note_on,0,0,1,,,,,,,,,0,,,55,70
266640,note_on,0,0,0,,,,,,,,,0,,,72,70
266640,note_on,0,0,1,,,,,,,,,0,,,60,70
266640,note_on,0,0,0,,,,,,,,,0,,,84,70
266640,note_on,0,0,0,,,,,,,,,0,,,72,70
266640,note_on,0,0,0,,,,,,,,,0,,,72,0
266759,note_on,0,0,1,,,,,,,,,0,,,60,0
266759,note_on,119,0,1,,,,,,,,,0,,,52,0
266759,note_on,0,0,1,,,,,,,,,0,,,55,0
266760,note_on,120,0,0,,,,,,,,,0,,,76,70
266873,note_on,113,0,0,,,,,,,,,0,,,76,0
266880,note_on,121,0,1,,,,,,,,,0,,,48,70
266880,note_on,7,0,0,,,,,,,,,0,,,79,70
266981,note_on,0,0,0,,,,,,,,,0,,,84,0
266981,note_on,101,0,0,,,,,,,,,0,,,72,0
266993,note_on,12,0,0,,,,,,,,,0,,,79,0
266999,note_on,119,0,1,,,,,,,,,0,,,48,0
267000,note_on,0,0,0,,,,,,,,,0,,,71,70
267000,note_on,0,0,0,,,,,,,,,0,,,71,70
267000,note_on,0,0,0,,,,,,,,,0,,,71,0
267000,note_on,0,0,0,,,,,,,,,0,,,83,70
267000,set_tempo,7,1,0,,,,,,500000,,,,,,,
267120,note_on,0,0,1,,,,,,,,,0,,,59,70
267120,note_on,121,0,1,,,,,,,,,0,,,52,70
267120,note_on,120,0,0,,,,,,,,,0,,,76,70
267120,note_on,0,0,1,,,,,,,,,0,,,55,70
267233,note_on,113,0,0,,,,,,,,,0,,,76,0
267239,note_on,119,0,1,,,,,,,,,0,,,52,0
267239,note_on,0,0,1,,,,,,,,,0,,,55,0
267239,note_on,0,0,1,,,,,,,,,0,,,59,0
267240,note_on,7,0,0,,,,,,,,,0,,,79,70
267341,note_on,0,0,0,,,,,,,,,0,,,83,0
267341,note_on,101,0,0,,,,,,,,,0,,,71,0
267353,note_on,12,0,0,,,,,,,,,0,,,79,0
267360,note_on,0,0,0,,,,,,,,,0,,,81,70
267360,note_on,121,0,1,,,,,,,,,0,,,36,70
267360,note_on,0,0,0,,,,,,,,,0,,,69,70
267360,note_on,0,0,0,,,,,,,,,0,,,69,0
267360,note_on,7,0,0,,,,,,,,,0,,,69,70
267361,control_change,1,0,1,,,,,,,64,0,0,,,,
267362,control_change,1,0,1,,,,,,,64,127,0,,,,
267438,note_on,76,0,1,,,,,,,,,0,,,36,0
267480,note_on,120,0,0,,,,,,,,,0,,,72,70
267593,note_on,113,0,0,,,,,,,,,0,,,72,0
267600,note_on,7,0,0,,,,,,,,,0,,,76,70
267600,note_on,0,0,1,,,,,,,,,0,,,54,70
267600,note_on,162,0,1,,,,,,,,,0,,,52,70
267600,note_on,0,0,1,,,,,,,,,0,,,57,70
267701,note_on,101,0,0,,,,,,,,,0,,,69,0
267701,note_on,0,0,0,,,,,,,,,0,,,81,0
267713,note_on,12,0,0,,,,,,,,,0,,,76,0
267719,note_on,119,0,1,,,,,,,,,0,,,52,0
267719,note_on,0,0,1,,,,,,,,,0,,,57,0
267719,note_on,0,0,1,,,,,,,,,0,,,54,0
267720,note_on,0,0,0,,,,,,,,,0,,,78,70
267720,note_on,7,0,0,,,,,,,,,0,,,66,70
267720,note_on,0,0,0,,,,,,,,,0,,,66,70
267720,note_on,0,0,0,,,,,,,,,0,,,66,0
267840,note_on,121,0,1,,,,,,,,,0,,,48,70
267840,note_on,120,0,0,,,,,,,,,0,,,72,70
267953,note_on,113,0,0,,,,,,,,,0,,,72,0
267959,note_on,119,0,1,,,,,,,,,0,,,48,0
267960,note_on,7,0,0,,,,,,,,,0,,,76,70
268061,note_on,101,0,0,,,,,,,,,0,,,66,0
268061,note_on,0,0,0,,,,,,,,,0,,,78,0
268073,note_on,12,0,0,,,,,,,,,0,,,76,0
268080,note_on,0,0,0,,,,,,,,,0,,,79,70
268080,note_on,0,0,0,,,,,,,,,0,,,67,70
268080,note_on,0,0,0,,,,,,,,,0,,,67,0
268080,note_on,121,0,1,,,,,,,,,0,,,52,70
268080,note_on,0,0,1,,,,,,,,,0,,,55,70
268080,note_on,7,0,0,,,,,,,,,0,,,67,70
268199,note_on,119,0,1,,,,,,,,,0,,,52,0
268199,note_on,0,0,1,,,,,,,,,0,,,55,0
268200,note_on,120,0,0,,,,,,,,,0,,,72,70
268313,note_on,113,0,0,,,,,,,,,0,,,72,0
268320,note_on,121,0,1,,,,,,,,,0,,,48,70
268320,note_on,7,0,0,,,,,,,,,0,,,76,70
268421,note_on,101,0,0,,,,,,,,,0,,,67,0
268421,note_on,0,0,0,,,,,,,,,0,,,79,0
268433,note_on,12,0,0,,,,,,,,,0,,,76,0
268439,note_on,119,0,1,,,,,,,,,0,,,48,0
268440,note_on,0,0,0,,,,,,,,,0,,,76,70
268440,note_on,7,0,0,,,,,,,,,0,,,76,70
268440,note_on,0,0,0,,,,,,,,,0,,,76,0
268440,note_on,0,0,0,,,,,,,,,0,,,88,70
268560,note_on,0,0,1,,,,,,,,,0,,,64,70
268560,note_on,0,0,1,,,,,,,,,0,,,60,70
268560,note_on,120,0,0,,,,,,,,,0,,,79,70
268560,note_on,121,0,1,,,,,,,,,0,,,55,70
268673,note_on,113,0,0,,,,,,,,,0,,,79,0
268679,note_on,119,0,1,,,,,,,,,0,,,55,0
268679,note_on,0,0,1,,,,,,,,,0,,,60,0
268679,note_on,0,0,1,,,,,,,,,0,,,64,0
268680,note_on,7,0,0,,,,,,,,,0,,,84,70
268781,note_on,101,0,0,,,,,,,,,0,,,76,0
268781,note_on,0,0,0,,,,,,,,,0,,,88,0
268793,note_on,12,0,0,,,,,,,,,0,,,84,0
268800,set_tempo,7,1,0,,,,,,461538,,,,,,,
268800,note_on,0,0,0,,,,,,,,,0,,,76,70
268800,note_on,0,0,1,,,,,,,,,0,,,48,70
268800,note_on,0,0,0,,,,,,,,,0,,,76,70
268800,note_on,121,0,1,,,,,,,,,0,,,36,70
268800,note_on,0,0,0,,,,,,,,,0,,,76,0
268800,note_on,0,0,0,,,,,,,,,0,,,88,70
268801,control_change,1,0,1,,,,,,,64,0,0,,,,
268802,control_change,1,0,1,,,,,,,64,127,0,,,,
268878,note_on,76,0,1,,,,,,,,,0,,,36,0
268878,note_on,0,0,1,,,,,,,,,0,,,48,0
268920,note_on,120,0,0,,,,,,,,,0,,,78,70
269033,note_on,113,0,0,,,,,,,,,0,,,78,0
269040,note_on,162,0,1,,,,,,,,,0,,,54,70
269040,note_on,7,0,0,,,,,,,,,0,,,81,70
269040,note_on,0,0,1,,,,,,,,,0,,,64,70
269040,note_on,0,0,1,,,,,,,,,0,,,57,70
269141,note_on,0,0,0,,,,,,,,,0,,,88,0
269141,note_on,101,0,0,,,,,,,,,0,,,76,0
269153,note_on,12,0,0,,,,,,,,,0,,,81,0
269159,note_on,0,0,1,,,,,,,,,0,,,64,0
269159,note_on,119,0,1,,,,,,,,,0,,,54,0
269159,note_on,0,0,1,,,,,,,,,0,,,57,0
269160,note_on,7,0,0,,,,,,,,,0,,,73,70
269160,note_on,0,0,0,,,,,,,,,0,,,85,70
269160,note_on,0,0,0,,,,,,,,,0,,,73,0
269160,note_on,0,0,0,,,,,,,,,0,,,73,70
269280,note_on,120,0,0,,,,,,,,,0,,,78,70
269280,note_on,121,0,1,,,,,,,,,0,,,48,70
269393,note_on,113,0,0,,,,,,,,,0,,,78,0
269399,note_on,119,0,1,,,,,,,,,0,,,48,0
269400,note_on,7,0,0,,,,,,,,,0,,,81,70
269501,note_on,0,0,0,,,,,,,,,0,,,85,0
269501,note_on,101,0,0,,,,,,,,,0,,,73,0
269513,note_on,12,0,0,,,,,,,,,0,,,81,0
269520,note_on,0,0,0,,,,,,,,,0,,,74,0
269520,note_on,0,0,1,,,,,,,,,0,,,57,70
269520,note_on,0,0,0,,,,,,,,,0,,,74,70
269520,note_on,0,0,0,,,,,,,,,0,,,86,70
269520,note_on,121,0,1,,,,,,,,,0,,,54,70
269520,note_on,0,0,1,,,,,,,,,0,,,62,70
269520,note_on,7,0,0,,,,,,,,,0,,,74,70
269639,note_on,0,0,1,,,,,,,,,0,,,57,0
269639,note_on,0,0,1,,,,,,,,,0,,,62,0
269639,note_on,119,0,1,,,,,,,,,0,,,54,0
269640,note_on,120,0,0,,,,,,,,,0,,,78,72
269753,note_on,113,0,0,,,,,,,,,0,,,78,0
269760,note_on,121,0,1,,,,,,,,,0,,,48,75
269760,note_on,7,0,0,,,,,,,,,0,,,81,75
269861,note_on,101,0,0,,,,,,,,,0,,,74,0
269861,note_on,0,0,0,,,,,,,,,0,,,86,0
269873,note_on,12,0,0,,,,,,,,,0,,,81,0
269879,note_on,119,0,1,,,,,,,,,0,,,48,0
269880,note_on,0,0,0,,,,,,,,,0,,,88,78
269880,note_on,0,0,0,,,,,,,,,0,,,76,0
269880,note_on,0,0,0,,,,,,,,,0,,,76,78
269880,note_on,7,0,0,,,,,,,,,0,,,76,78
270000,note_on,0,0,1,,,,,,,,,0,,,57,81
270000,note_on,120,0,0,,,,,,,,,0,,,78,81
270000,note_on,0,0,1,,,,,,,,,0,,,64,81
270000,note_on,121,0,1,,,,,,,,,0,,,54,81
270113,note_on,113,0,0,,,,,,,,,0,,,78,0
270119,note_on,0,0,1,,,,,,,,,0,,,57,0
270119,note_on,0,0,1,,,,,,,,,0,,,64,0
270119,note_on,119,0,1,,,,,,,,,0,,,54,0
270120,note_on,7,0,0,,,,,,,,,0,,,81,84
270221,note_on,0,0,0,,,,,,,,,0,,,88,0
270221,note_on,101,0,0,,,,,,,,,0,,,76,0
270233,note_on,12,0,0,,,,,,,,,0,,,81,0
270240,note_on,0,0,0,,,,,,,,,0,,,77,87
270240,note_on,0,0,0,,,,,,,,,0,,,89,87
270240,note_on,121,0,1,,,,,,,,,0,,,48,87
270240,note_on,0,0,0,,,,,,,,,0,,,77,0
270240,note_on,7,0,0,,,,,,,,,0,,,77,87
270241,control_change,1,0,1,,,,,,,64,0,0,,,,
270242,control_change,1,0,1,,,,,,,64,127,0,,,,
270318,note_on,76,0,1,,,,,,,,,0,,,48,0
270360,note_on,120,0,0,,,,,,,,,0,,,83,90
270473,note_on,113,0,0,,,,,,,,,0,,,83,0
270480,note_on,0,0,1,,,,,,,,,0,,,59,88
270480,note_on,0,0,1,,,,,,,,,0,,,65,88
270480,note_on,7,0,0,,,,,,,,,0,,,86,88
270480,note_on,162,0,1,,,,,,,,,0,,,55,88
270581,note_on,101,0,0,,,,,,,,,0,,,77,0
270581,note_on,0,0,0,,,,,,,,,0,,,89,0
270593,note_on,12,0,0,,,,,,,,,0,,,86,0
270599,note_on,119,0,1,,,,,,,,,0,,,55,0
270599,note_on,0,0,1,,,,,,,,,0,,,65,0
270599,note_on,0,0,1,,,,,,,,,0,,,59,0
270600,note_on,7,0,0,,,,,,,,,0,,,78,85
270600,note_on,0,0,0,,,,,,,,,0,,,90,85
270600,note_on,0,0,0,,,,,,,,,0,,,78,85
270600,note_on,0,0,0,,,,,,,,,0,,,78,0
270720,note_on,120,0,0,,,,,,,,,0,,,83,83
270720,note_on,121,0,1,,,,,,,,,0,,,48,83
270833,note_on,113,0,0,,,,,,,,,0,,,83,0
270839,note_on,119,0,1,,,,,,,,,0,,,48,0
270840,note_on,7,0,0,,,,,,,,,0,,,86,80
270941,note_on,0,0,0,,,,,,,,,0,,,90,0
270941,note_on,101,0,0,,,,,,,,,0,,,78,0
270953,note_on,12,0,0,,,,,,,,,0,,,86,0
270960,note_on,0,0,0,,,,,,,,,0,,,81,0
270960,note_on,0,0,1,,,,,,,,,0,,,69,78
270960,note_on,0,0,1,,,,,,,,,0,,,65,78
270960,note_on,0,0,0,,,,,,,,,0,,,81,78
270960,note_on,0,0,0,,,,,,,,,0,,,93,78
270960,note_on,0,0,0,,,,,,,,,0,,,81,78
270960,note_on,121,0,1,,,,,,,,,0,,,59,78
270960,set_tempo,7,1,0,,,,,,500000,,,,,,,
271079,note_on,0,0,1,,,,,,,,,0,,,65,0
271079,note_on,119,0,1,,,,,,,,,0,,,59,0
271079,note_on,0,0,1,,,,,,,,,0,,,69,0
271080,note_on,120,0,0,,,,,,,,,0,,,83,75
271193,note_on,113,0,0,,,,,,,,,0,,,83,0
271200,note_on,7,0,0,,,,,,,,,0,,,86,73
271200,note_on,121,0,1,,,,,,,,,0,,,48,73
271301,note_on,0,0,0,,,,,,,,,0,,,93,0
271301,note_on,101,0,0,,,,,,,,,0,,,81,0
271313,note_on,12,0,0,,,,,,,,,0,,,86,0
271319,note_on,119,0,1,,,,,,,,,0,,,48,0
271320,note_on,0,0,0,,,,,,,,,0,,,79,0
271320,note_on,0,0,0,,,,,,,,,0,,,79,70
271320,note_on,0,0,0,,,,,,,,,0,,,79,70
271320,note_on,0,0,0,,,,,,,,,0,,,91,70
271320,set_tempo,7,1,0,,,,,,545455,,,,,,,
271440,note_on,121,0,1,,,,,,,,,0,,,59,70
271440,note_on,0,0,1,,,,,,,,,0,,,65,70
271440,note_on,0,0,1,,,,,,,,,0,,,67,70
271440,note_on,120,0,0,,,,,,,,,0,,,83,70
271553,note_on,113,0,0,,,,,,,,,0,,,83,0
271559,note_on,119,0,1,,,,,,,,,0,,,59,0
271559,note_on,0,0,1,,,,,,,,,0,,,65,0
271559,note_on,0,0,1,,,,,,,,,0,,,67,0
271560,note_on,7,0,0,,,,,,,,,0,,,86,70
271661,note_on,0,0,0,,,,,,,,,0,,,91,0
271661,note_on,101,0,0,,,,,,,,,0,,,79,0
271673,note_on,12,0,0,,,,,,,,,0,,,86,0
271680,note_on,121,0,1,,,,,,,,,0,,,36,70
271680,note_on,0,0,1,,,,,,,,,0,,,48,70
271680,note_on,0,0,0,,,,,,,,,0,,,88,70
271680,note_on,7,0,0,,,,,,,,,0,,,76,70
271681,control_change,1,0,1,,,,,,,64,0,0,,,,
271682,control_change,1,0,1,,,,,,,64,127,0,,,,
271758,note_on,0,0,1,,,,,,,,,0,,,48,0
271758,note_on,76,0,1,,,,,,,,,0,,,36,0
271793,note_on,113,0,0,,,,,,,,,0,,,76,0
271793,note_on,0,0,0,,,,,,,,,0,,,88,0
271800,note_on,7,0,0,,,,,,,,,0,,,79,70
271913,note_on,113,0,0,,,,,,,,,0,,,79,0
271920,note_on,162,0,1,,,,,,,,,0,,,52,70
271920,note_on,0,0,1,,,,,,,,,0,,,55,70
271920,note_on,7,0,0,,,,,,,,,0,,,84,70
271920,note_on,0,0,1,,,,,,,,,0,,,62,70
272033,note_on,113,0,0,,,,,,,,,0,,,84,0
272040,note_on,0,0,0,,,,,,,,,0,,,86,70
272040,note_on,7,0,0,,,,,,,,,0,,,74,70
272147,note_on,0,0,1,,,,,,,,,0,,,55,0
272147,note_on,0,0,1,,,,,,,,,0,,,62,0
272147,note_on,227,0,1,,,,,,,,,0,,,52,0
272153,note_on,113,0,0,,,,,,,,,0,,,74,0
272153,note_on,0,0,0,,,,,,,,,0,,,86,0
272160,note_on,7,0,0,,,,,,,,,0,,,76,70
272160,note_on,13,0,1,,,,,,,,,0,,,48,70
272273,note_on,113,0,0,,,,,,,,,0,,,76,0
272280,note_on,7,0,0,,,,,,,,,0,,,79,70
272387,note_on,227,0,1,,,,,,,,,0,,,48,0
272393,note_on,113,0,0,,,,,,,,,0,,,79,0
272400,note_on,13,0,1,,,,,,,,,0,,,52,70
272400,note_on,0,0,0,,,,,,,,,0,,,84,70
272400,note_on,0,0,0,,,,,,,,,0,,,72,70
272400,set_tempo,7,1,0,,,,,,500000,,,,,,,
272400,note_on,0,0,1,,,,,,,,,0,,,60,70
272400,note_on,0,0,1,,,,,,,,,0,,,55,70
272513,note_on,0,0,0,,,,,,,,,0,,,84,0
272513,note_on,113,0,0,,,,,,,,,0,,,72,0
272520,note_on,7,0,0,,,,,,,,,0,,,76,70
272627,note_on,227,0,1,,,,,,,,,0,,,52,0
272627,note_on,0,0,1,,,,,,,,,0,,,60,0
272627,note_on,0,0,1,,,,,,,,,0,,,55,0
272633,note_on,113,0,0,,,,,,,,,0,,,76,0
272640,note_on,7,0,0,,,,,,,,,0,,,79,70
272640,note_on,13,0,1,,,,,,,,,0,,,48,70
272753,note_on,113,0,0,,,,,,,,,0,,,79,0
272760,note_on,0,0,0,,,,,,,,,0,,,83,70
272760,note_on,7,0,0,,,,,,,,,0,,,71,70
272867,note_on,227,0,1,,,,,,,,,0,,,48,0
272873,note_on,0,0,0,,,,,,,,,0,,,83,0
272873,note_on,113,0,0,,,,,,,,,0,,,71,0
272880,note_on,0,0,1,,,,,,,,,0,,,55,70
272880,note_on,13,0,1,,,,,,,,,0,,,52,70
272880,note_on,0,0,1,,,,,,,,,0,,,59,70
272880,note_on,7,0,0,,,,,,,,,0,,,76,70
272993,note_on,113,0,0,,,,,,,,,0,,,76,0
273000,note_on,7,0,0,,,,,,,,,0,,,79,70
273107,note_on,227,0,1,,,,,,,,,0,,,52,0
273107,note_on,0,0,1,,,,,,,,,0,,,55,0
273107,note_on,0,0,1,,,,,,,,,0,,,59,0
273113,note_on,113,0,0,,,,,,,,,0,,,79,0
273120,set_tempo,7,1,0,,,,,,480000,,,,,,,
273120,note_on,0,0,0,,,,,,,,,0,,,81,70
273120,note_on,0,0,0,,,,,,,,,0,,,69,70
273120,note_on,13,0,1,,,,,,,,,0,,,48,70
273121,control_change,1,0,1,,,,,,,64,0,0,,,,
273122,control_change,1,0,1,,,,,,,64,127,0,,,,
273233,note_on,0,0,0,,,,,,,,,0,,,81,0
273233,note_on,113,0,0,,,,,,,,,0,,,69,0
273240,note_on,7,0,0,,,,,,,,,0,,,72,70
273347,note_on,225,0,1,,,,,,,,,0,,,48,0
273353,note_on,113,0,0,,,,,,,,,0,,,72,0
273360,note_on,7,0,0,,,,,,,,,0,,,76,70
273360,note_on,13,0,1,,,,,,,,,0,,,52,70
273360,note_on,0,0,1,,,,,,,,,0,,,54,70
273360,note_on,0,0,1,,,,,,,,,0,,,57,70
273473,note_on,113,0,0,,,,,,,,,0,,,76,0
273480,note_on,7,0,0,,,,,,,,,0,,,66,70
273480,note_on,0,0,0,,,,,,,,,0,,,78,70
273587,note_on,0,0,1,,,,,,,,,0,,,54,0
273587,note_on,0,0,1,,,,,,,,,0,,,57,0
273587,note_on,227,0,1,,,,,,,,,0,,,52,0
273593,note_on,0,0,0,,,,,,,,,0,,,78,0
273593,note_on,113,0,0,,,,,,,,,0,,,66,0
273600,note_on,13,0,1,,,,,,,,,0,,,48,70
273600,note_on,7,0,0,,,,,,,,,0,,,72,70
273713,note_on,113,0,0,,,,,,,,,0,,,72,0
273720,note_on,7,0,0,,,,,,,,,0,,,76,70
273827,note_on,227,0,1,,,,,,,,,0,,,48,0
273833,note_on,113,0,0,,,,,,,,,0,,,76,0
273840,note_on,13,0,1,,,,,,,,,0,,,52,70
273840,note_on,0,0,0,,,,,,,,,0,,,79,70
273840,note_on,0,0,1,,,,,,,,,0,,,55,70
273840,note_on,7,0,0,,,,,,,,,0,,,67,70
273953,note_on,113,0,0,,,,,,,,,0,,,67,0
273953,note_on,0,0,0,,,,,,,,,0,,,79,0
273960,note_on,7,0,0,,,,,,,,,0,,,72,70
274067,note_on,227,0,1,,,,,,,,,0,,,52,0
274067,note_on,0,0,1,,,,,,,,,0,,,55,0
274073,note_on,113,0,0,,,,,,,,,0,,,72,0
274080,note_on,7,0,0,,,,,,,,,0,,,76,70
274080,note_on,13,0,1,,,,,,,,,0,,,48,70
274193,note_on,113,0,0,,,,,,,,,0,,,76,0
274200,note_on,0,0,0,,,,,,,,,0,,,88,70
274200,note_on,7,0,0,,,,,,,,,0,,,76,70
274307,note_on,227,0,1,,,,,,,,,0,,,48,0
274313,note_on,0,0,0,,,,,,,,,0,,,88,0
274313,note_on,113,0,0,,,,,,,,,0,,,76,0
274320,note_on,7,0,0,,,,,,,,,0,,,79,70
274320,note_on,0,0,1,,,,,,,,,0,,,64,70
274320,note_on,0,0,1,,,,,,,,,0,,,60,70
274320,note_on,13,0,1,,,,,,,,,0,,,55,70
274433,note_on,113,0,0,,,,,,,,,0,,,79,0
274440,note_on,0,0,0,,,,,,,,,0,,,84,70
274440,set_tempo,7,1,0,,,,,,461538,,,,,,,
274547,note_on,227,0,1,,,,,,,,,0,,,55,0
274547,note_on,0,0,1,,,,,,,,,0,,,64,0
274547,note_on,0,0,1,,,,,,,,,0,,,60,0
274553,note_on,113,0,0,,,,,,,,,0,,,84,0
274560,note_on,13,0,1,,,,,,,,,0,,,35,70
274560,note_on,7,0,0,,,,,,,,,0,,,76,70
274560,note_on,0,0,0,,,,,,,,,0,,,88,70
274561,control_change,1,0,1,,,,,,,64,0,0,,,,
274562,control_change,1,0,1,,,,,,,64,127,0,,,,
274673,note_on,113,0,0,,,,,,,,,0,,,76,0
274673,note_on,0,0,0,,,,,,,,,0,,,88,0
274680,note_on,7,0,0,,,,,,,,,0,,,78,70
274787,note_on,225,0,1,,,,,,,,,0,,,35,0
274793,note_on,113,0,0,,,,,,,,,0,,,78,0
274800,note_on,0,0,1,,,,,,,,,0,,,63,70
274800,note_on,0,0,1,,,,,,,,,0,,,57,70
274800,note_on,7,0,0,,,,,,,,,0,,,81,70
274800,note_on,13,0,1,,,,,,,,,0,,,54,70
274913,note_on,113,0,0,,,,,,,,,0,,,81,0
274920,note_on,7,0,0,,,,,,,,,0,,,75,72
274920,note_on,0,0,0,,,,,,,,,0,,,87,72
275027,note_on,227,0,1,,,,,,,,,0,,,54,0
275027,note_on,0,0,1,,,,,,,,,0,,,63,0
275027,note_on,0,0,1,,,,,,,,,0,,,57,0
275033,note_on,0,0,0,,,,,,,,,0,,,87,0
275033,note_on,113,0,0,,,,,,,,,0,,,75,0
275040,note_on,7,0,0,,,,,,,,,0,,,78,75
275040,note_on,13,0,1,,,,,,,,,0,,,47,72
275153,note_on,113,0,0,,,,,,,,,0,,,78,0
275160,note_on,7,0,0,,,,,,,,,0,,,81,77
275267,note_on,227,0,1,,,,,,,,,0,,,47,0
275273,note_on,113,0,0,,,,,,,,,0,,,81,0
275280,note_on,13,0,1,,,,,,,,,0,,,57,74
275280,note_on,0,0,1,,,,,,,,,0,,,63,74
275280,note_on,0,0,1,,,,,,,,,0,,,67,74
275280,note_on,0,0,0,,,,,,,,,0,,,91,80
275280,note_on,7,0,0,,,,,,,,,0,,,79,80
275393,note_on,0,0,0,,,,,,,,,0,,,91,0
275393,note_on,113,0,0,,,,,,,,,0,,,79,0
275400,note_on,7,0,0,,,,,,,,,0,,,81,82
275507,note_on,227,0,1,,,,,,,,,0,,,57,0
275507,note_on,0,0,1,,,,,,,,,0,,,63,0
275507,note_on,0,0,1,,,,,,,,,0,,,67,0
275513,note_on,113,0,0,,,,,,,,,0,,,81,0
275520,note_on,13,0,1,,,,,,,,,0,,,47,76
275520,note_on,7,0,0,,,,,,,,,0,,,87,85
275633,note_on,113,0,0,,,,,,,,,0,,,87,0
275640,note_on,7,0,0,,,,,,,,,0,,,78,87
275640,note_on,0,0,0,,,,,,,,,0,,,90,87
275747,note_on,227,0,1,,,,,,,,,0,,,47,0
275753,note_on,113,0,0,,,,,,,,,0,,,78,0
275753,note_on,0,0,0,,,,,,,,,0,,,90,0
275760,note_on,7,0,0,,,,,,,,,0,,,81,90
275760,note_on,13,0,1,,,,,,,,,0,,,57,78
275760,note_on,0,0,1,,,,,,,,,0,,,63,78
275760,note_on,0,0,1,,,,,,,,,0,,,66,78
275873,note_on,113,0,0,,,,,,,,,0,,,81,0
275880,note_on,7,0,0,,,,,,,,,0,,,87,92
275987,note_on,0,0,1,,,,,,,,,0,,,63,0
275987,note_on,0,0,1,,,,,,,,,0,,,66,0
275987,note_on,227,0,1,,,,,,,,,0,,,57,0
275993,note_on,113,0,0,,,,,,,,,0,,,87,0
276000,note_on,7,0,0,,,,,,,,,0,,,81,95
276000,note_on,13,0,1,,,,,,,,,0,,,40,80
276000,note_on,0,0,1,,,,,,,,,0,,,52,80
276000,note_on,0,0,0,,,,,,,,,0,,,93,95
276001,control_change,1,0,1,,,,,,,64,0,0,,,,
276002,control_change,1,0,1,,,,,,,64,127,0,,,,
276113,note_on,113,0,0,,,,,,,,,0,,,81,0
276113,note_on,0,0,0,,,,,,,,,0,,,93,0
276120,note_on,7,0,0,,,,,,,,,0,,,83,98
276227,note_on,0,0,1,,,,,,,,,0,,,52,0
276227,note_on,225,0,1,,,,,,,,,0,,,40,0
276233,note_on,113,0,0,,,,,,,,,0,,,83,0
276240,note_on,13,0,1,,,,,,,,,0,,,59,87
276240,note_on,0,0,1,,,,,,,,,0,,,64,87
276240,note_on,7,0,0,,,,,,,,,0,,,88,100
276240,note_on,0,0,1,,,,,,,,,0,,,69,87
276353,note_on,113,0,0,,,,,,,,,0,,,88,0
276360,note_on,0,0,0,,,,,,,,,0,,,91,103
276360,note_on,7,0,0,,,,,,,,,0,,,79,103
276467,note_on,0,0,1,,,,,,,,,0,,,64,0
276467,note_on,0,0,1,,,,,,,,,0,,,69,0
276467,note_on,227,0,1,,,,,,,,,0,,,59,0
276473,note_on,0,0,0,,,,,,,,,0,,,91,0
276473,note_on,113,0,0,,,,,,,,,0,,,79,0
276480,note_on,7,0,0,,,,,,,,,0,,,83,105
276480,note_on,0,0,1,,,,,,,,,0,,,64,95
276480,note_on,0,0,1,,,,,,,,,0,,,67,95
276480,note_on,13,0,1,,,,,,,,,0,,,59,95
276593,note_on,113,0,0,,,,,,,,,0,,,83,0
276600,note_on,7,0,0,,,,,,,,,0,,,88,108
276707,note_on,227,0,1,,,,,,,,,0,,,59,0
276707,note_on,0,0,1,,,,,,,,,0,,,67,0
276707,note_on,0,0,1,,,,,,,,,0,,,64,0
276713,note_on,113,0,0,,,,,,,,,0,,,88,0
276720,note_on,13,0,1,,,,,,,,,0,,,43,103
276720,note_on,0,0,1,,,,,,,,,0,,,55,103
276720,set_tempo,7,1,0,,,,,,500000,,,,,,,
276720,note_on,0,0,0,,,,,,,,,0,,,95,110
276720,note_on,0,0,0,,,,,,,,,0,,,83,110
276833,note_on,113,0,0,,,,,,,,,0,,,83,0
276833,note_on,0,0,0,,,,,,,,,0,,,95,0
276840,note_on,7,0,0,,,,,,,,,0,,,86,113
276947,note_on,0,0,1,,,,,,,,,0,,,55,0
276947,note_on,227,0,1,,,,,,,,,0,,,43,0
276953,note_on,113,0,0,,,,,,,,,0,,,86,0
276960,note_on,0,0,1,,,,,,,,,0,,,62,110
276960,note_on,0,0,1,,,,,,,,,0,,,69,110
276960,set_tempo,7,1,0,,,,,,600000,,,,,,,
276960,note_on,0,0,1,,,,,,,,,0,,,65,110
276960,note_on,13,0,1,,,,,,,,,0,,,59,110
276960,note_on,0,0,0,,,,,,,,,0,,,89,115
277073,note_on,113,0,0,,,,,,,,,0,,,89,0
277080,note_on,7,0,0,,,,,,,,,0,,,81,118
277080,note_on,0,0,0,,,,,,,,,0,,,93,118
277187,note_on,227,0,1,,,,,,,,,0,,,59,0
277187,note_on,0,0,1,,,,,,,,,0,,,69,0
277187,note_on,0,0,1,,,,,,,,,0,,,65,0
277187,note_on,0,0,1,,,,,,,,,0,,,62,0
277193,note_on,113,0,0,,,,,,,,,0,,,81,0
277193,note_on,0,0,0,,,,,,,,,0,,,93,0
277200,note_on,13,0,1,,,,,,,,,0,,,59,118
277200,note_on,0,0,1,,,,,,,,,0,,,67,118
277200,note_on,0,0,1,,,,,,,,,0,,,65,118
277200,note_on,0,0,1,,,,,,,,,0,,,62,118
277200,note_on,0,0,0,,,,,,,,,0,,,86,120
277200,set_tempo,7,1,0,,,,,,857143,,,,,,,
277200,note_on,0,0,0,,,,,,,,,0,,,89,120
277313,note_on,113,0,0,,,,,,,,,0,,,86,0
277313,note_on,0,0,0,,,,,,,,,0,,,89,0
277320,note_on,7,0,0,,,,,,,,,0,,,79,123
277320,note_on,0,0,0,,,,,,,,,0,,,91,123
277427,note_on,0,0,1,,,,,,,,,0,,,62,0
277427,note_on,0,0,1,,,,,,,,,0,,,65,0
277427,note_on,227,0,1,,,,,,,,,0,,,59,0
277427,note_on,0,0,1,,,,,,,,,0,,,67,0
277433,note_on,0,0,0,,,,,,,,,0,,,91,0
277433,note_on,113,0,0,,,,,,,,,0,,,79,0
277440,note_on,0,0,0,,,,,,,,,0,,,100,126
277440,set_tempo,0,1,0,,,,,,666667,,,,,,,
277440,note_on,13,0,1,,,,,,,,,0,,,36,126
277440,time_signature,7,1,0,2,4,24,8,,,,,,,,,
277440,note_on,0,0,0,,,,,,,,,0,,,91,126
277440,note_on,0,0,0,,,,,,,,,0,,,88,126
277440,note_on,0,0,1,,,,,,,,,0,,,48,126
277441,control_change,1,0,1,,,,,,,64,0,0,,,,
277442,control_change,1,0,1,,,,,,,64,127,0,,,,
277518,note_on,0,0,0,,,,,,,,,0,,,100,0
277518,note_on,78,0,0,,,,,,,,,0,,,88,0
277518,note_on,0,0,0,,,,,,,,,0,,,91,0
277553,note_on,0,0,1,,,,,,,,,0,,,48,0
277553,note_on,111,0,1,,,,,,,,,0,,,36,0
277560,note_on,0,0,1,,,,,,,,,0,,,67,126
277560,note_on,0,0,1,,,,,,,,,0,,,76,126
277560,note_on,7,0,1,,,,,,,,,0,,,64,126
277680,note_on,162,0,0,,,,,,,,,0,,,86,126
277680,note_on,0,0,0,,,,,,,,,0,,,88,126
277680,note_on,0,0,0,,,,,,,,,0,,,91,126
277680,note_on,0,0,0,,,,,,,,,0,,,98,126
277758,note_on,0,0,0,,,,,,,,,0,,,98,0
277758,note_on,0,0,0,,,,,,,,,0,,,91,0
277758,note_on,78,0,0,,,,,,,,,0,,,86,0
277758,note_on,0,0,0,,,,,,,,,0,,,88,0
277787,note_on,0,0,1,,,,,,,,,0,,,76,0
277787,note_on,0,0,1,,,,,,,,,0,,,67,0
277787,note_on,227,0,1,,,,,,,,,0,,,64,0
277800,note_on,0,0,1,,,,,,,,,0,,,67,126
277800,note_on,0,0,1,,,,,,,,,0,,,74,126
277800,note_on,13,0,1,,,,,,,,,0,,,62,126
277800,note_on,0,0,1,,,,,,,,,0,,,64,126
277920,note_on,0,0,0,,,,,,,,,0,,,88,126
277920,note_on,0,0,0,,,,,,,,,0,,,96,126
277920,note_on,0,0,0,,,,,,,,,0,,,91,126
277920,note_on,162,0,0,,,,,,,,,0,,,84,126
277998,note_on,78,0,0,,,,,,,,,0,,,84,0
277998,note_on,0,0,0,,,,,,,,,0,,,88,0
277998,note_on,0,0,0,,,,,,,,,0,,,91,0
277998,note_on,0,0,0,,,,,,,,,0,,,96,0
278027,note_on,0,0,1,,,,,,,,,0,,,67,0
278027,note_on,0,0,1,,,,,,,,,0,,,74,0
278027,note_on,227,0,1,,,,,,,,,0,,,62,0
278027,note_on,0,0,1,,,,,,,,,0,,,64,0
278040,note_on,0,0,1,,,,,,,,,0,,,72,126
278040,note_on,0,0,1,,,,,,,,,0,,,64,126
278040,note_on,0,0,1,,,,,,,,,0,,,67,126
278040,note_on,13,0,1,,,,,,,,,0,,,60,126
278160,note_on,162,0,0,,,,,,,,,0,,,83,126
278160,note_on,0,0,0,,,,,,,,,0,,,95,126
278160,note_on,0,0,0,,,,,,,,,0,,,91,126
278160,note_on,0,0,0,,,,,,,,,0,,,88,126
278238,note_on,0,0,0,,,,,,,,,0,,,88,0
278238,note_on,78,0,0,,,,,,,,,0,,,83,0
278238,note_on,0,0,0,,,,,,,,,0,,,95,0
278238,note_on,0,0,0,,,,,,,,,0,,,91,0
278267,note_on,227,0,1,,,,,,,,,0,,,60,0
278267,note_on,0,0,1,,,,,,,,,0,,,72,0
278267,note_on,0,0,1,,,,,,,,,0,,,67,0
278267,note_on,0,0,1,,,,,,,,,0,,,64,0
278280,note_on,0,0,1,,,,,,,,,0,,,64,126
278280,note_on,13,0,1,,,,,,,,,0,,,59,126
278280,note_on,0,0,1,,,,,,,,,0,,,71,126
278280,note_on,0,0,1,,,,,,,,,0,,,67,126
278393,note_on,113,0,1,,,,,,,,,0,,,59,0
278393,note_on,0,0,1,,,,,,,,,0,,,64,0
278393,note_on,0,0,1,,,,,,,,,0,,,71,0
278393,note_on,0,0,1,,,,,,,,,0,,,67,0
278400,note_on,0,0,0,,,,,,,,,0,,,88,126
278400,note_on,162,0,0,,,,,,,,,0,,,81,126
278400,note_on,0,0,0,,,,,,,,,0,,,84,126
278400,note_on,0,0,0,,,,,,,,,0,,,93,126
278478,note_on,0,0,0,,,,,,,,,0,,,88,0
278478,note_on,0,0,0,,,,,,,,,0,,,93,0
278478,note_on,78,0,0,,,,,,,,,0,,,81,0
278478,note_on,0,0,0,,,,,,,,,0,,,84,0
278520,note_on,127,0,1,,,,,,,,,0,,,57,126
278520,note_on,0,0,1,,,,,,,,,0,,,60,126
278520,note_on,0,0,1,,,,,,,,,0,,,64,126
278520,note_on,0,0,1,,,,,,,,,0,,,69,126
278640,note_on,0,0,0,,,,,,,,,0,,,84,126
278640,note_on,162,0,0,,,,,,,,,0,,,78,126
278640,note_on,0,0,0,,,,,,,,,0,,,90,126
278640,note_on,0,0,0,,,,,,,,,0,,,88,126
278718,note_on,0,0,0,,,,,,,,,0,,,84,0
278718,note_on,0,0,0,,,,,,,,,0,,,88,0
278718,note_on,78,0,0,,,,,,,,,0,,,78,0
278718,note_on,0,0,0,,,,,,,,,0,,,90,0
278747,note_on,227,0,1,,,,,,,,,0,,,57,0
278747,note_on,0,0,1,,,,,,,,,0,,,60,0
278747,note_on,0,0,1,,,,,,,,,0,,,69,0
278747,note_on,0,0,1,,,,,,,,,0,,,64,0
278760,note_on,0,0,1,,,,,,,,,0,,,66,126
278760,note_on,0,0,1,,,,,,,,,0,,,60,126
278760,note_on,13,0,1,,,,,,,,,0,,,54,126
278760,note_on,0,0,1,,,,,,,,,0,,,64,126
278880,note_on,162,0,0,,,,,,,,,0,,,79,126
278880,note_on,0,0,0,,,,,,,,,0,,,91,126
278880,note_on,0,0,0,,,,,,,,,0,,,88,126
278880,note_on,0,0,0,,,,,,,,,0,,,84,126
278958,note_on,78,0,0,,,,,,,,,0,,,79,0
278958,note_on,0,0,0,,,,,,,,,0,,,91,0
278958,note_on,0,0,0,,,,,,,,,0,,,88,0
278958,note_on,0,0,0,,,,,,,,,0,,,84,0
278987,note_on,0,0,1,,,,,,,,,0,,,60,0
278987,note_on,0,0,1,,,,,,,,,0,,,64,0
278987,note_on,0,0,1,,,,,,,,,0,,,66,0
278987,note_on,227,0,1,,,,,,,,,0,,,54,0
279000,note_on,0,0,1,,,,,,,,,0,,,60,126
279000,note_on,13,0,1,,,,,,,,,0,,,55,126
279000,note_on,0,0,1,,,,,,,,,0,,,64,126
279000,note_on,0,0,1,,,,,,,,,0,,,67,126
279113,note_on,113,0,1,,,,,,,,,0,,,55,0
279113,note_on,0,0,1,,,,,,,,,0,,,60,0
279113,note_on,0,0,1,,,,,,,,,0,,,64,0
279113,note_on,0,0,1,,,,,,,,,0,,,67,0
279120,note_on,0,0,0,,,,,,,,,0,,,91,126
279120,note_on,0,0,0,,,,,,,,,0,,,96,126
279120,note_on,162,0,0,,,,,,,,,0,,,88,126
279120,note_on,0,0,0,,,,,,,,,0,,,100,126
279198,note_on,0,0,0,,,,,,,,,0,,,91,0
279198,note_on,0,0,0,,,,,,,,,0,,,96,0
279198,note_on,0,0,0,,,,,,,,,0,,,100,0
279198,note_on,78,0,0,,,,,,,,,0,,,88,0
279240,note_on,127,0,1,,,,,,,,,0,,,36,126
279241,control_change,1,0,1,,,,,,,64,0,0,,,,
279360,note_on,0,0,0,,,,,,,,,0,,,93,126
279360,note_on,162,0,0,,,,,,,,,0,,,88,126
279360,note_on,0,0,0,,,,,,,,,0,,,90,126
279360,note_on,0,0,0,,,,,,,,,0,,,100,126
279360,note_on,119,0,1,,,,,,,,,0,,,48,126
279362,control_change,2,0,1,,,,,,,64,127,0,,,,
279398,note_on,36,0,1,,,,,,,,,0,,,36,0
279398,note_on,0,0,1,,,,,,,,,0,,,48,0
279480,note_on,82,0,1,,,,,,,,,0,,,64,126
279480,note_on,0,0,1,,,,,,,,,0,,,76,126
279480,note_on,0,0,1,,,,,,,,,0,,,69,126
279480,note_on,0,0,1,,,,,,,,,0,,,66,126
279587,note_on,0,0,0,,,,,,,,,0,,,90,0
279587,note_on,0,0,0,,,,,,,,,0,,,93,0
279587,note_on,0,0,0,,,,,,,,,0,,,100,0
279587,note_on,227,0,0,,,,,,,,,0,,,88,0
279600,note_on,0,0,0,,,,,,,,,0,,,97,126
279600,note_on,13,0,0,,,,,,,,,0,,,85,126
279600,note_on,0,0,0,,,,,,,,,0,,,93,126
279600,note_on,0,0,0,,,,,,,,,0,,,90,126
279707,note_on,227,0,1,,,,,,,,,0,,,64,0
279707,note_on,0,0,1,,,,,,,,,0,,,66,0
279707,note_on,0,0,1,,,,,,,,,0,,,76,0
279707,note_on,0,0,1,,,,,,,,,0,,,69,0
279720,note_on,0,0,1,,,,,,,,,0,,,73,126
279720,note_on,0,0,1,,,,,,,,,0,,,66,126
279720,note_on,13,0,1,,,,,,,,,0,,,61,126
279720,note_on,0,0,1,,,,,,,,,0,,,69,126
279827,note_on,227,0,0,,,,,,,,,0,,,85,0
279827,note_on,0,0,0,,,,,,,,,0,,,97,0
279827,note_on,0,0,0,,,,,,,,,0,,,90,0
279827,note_on,0,0,0,,,,,,,,,0,,,93,0
279840,note_on,0,0,0,,,,,,,,,0,,,90,126
279840,note_on,0,0,0,,,,,,,,,0,,,93,126
279840,note_on,13,0,0,,,,,,,,,0,,,86,126
279840,note_on,0,0,0,,,,,,,,,0,,,98,126
279947,note_on,0,0,1,,,,,,,,,0,,,66,0
279947,note_on,0,0,1,,,,,,,,,0,,,69,0
279947,note_on,0,0,1,,,,,,,,,0,,,73,0
279947,note_on,227,0,1,,,,,,,,,0,,,61,0
279960,note_on,13,0,1,,,,,,,,,0,,,62,126
279960,note_on,0,0,1,,,,,,,,,0,,,74,126
279960,note_on,0,0,1,,,,,,,,,0,,,69,126
279960,note_on,0,0,1,,,,,,,,,0,,,66,126
280067,note_on,0,0,0,,,,,,,,,0,,,93,0
280067,note_on,0,0,0,,,,,,,,,0,,,90,0
280067,note_on,0,0,0,,,,,,,,,0,,,98,0
280067,note_on,227,0,0,,,,,,,,,0,,,86,0
280080,note_on,0,0,0,,,,,,,,,0,,,90,126
280080,note_on,0,0,0,,,,,,,,,0,,,93,126
280080,note_on,0,0,0,,,,,,,,,0,,,100,126
280080,note_on,13,0,0,,,,,,,,,0,,,88,126
280187,note_on,227,0,1,,,,,,,,,0,,,62,0
280187,note_on,0,0,1,,,,,,,,,0,,,66,0
280187,note_on,0,0,1,,,,,,,,,0,,,69,0
280187,note_on,0,0,1,,,,,,,,,0,,,74,0
280200,note_on,0,0,1,,,,,,,,,0,,,69,126
280200,note_on,13,0,1,,,,,,,,,0,,,64,126
280200,note_on,0,0,1,,,,,,,,,0,,,66,126
280200,note_on,0,0,1,,,,,,,,,0,,,76,126
280307,note_on,227,0,0,,,,,,,,,0,,,88,0
280307,note_on,0,0,0,,,,,,,,,0,,,100,0
280307,note_on,0,0,0,,,,,,,,,0,,,93,0
280307,note_on,0,0,0,,,,,,,,,0,,,90,0
280313,note_on,0,0,1,,,,,,,,,0,,,66,0
280313,note_on,0,0,1,,,,,,,,,0,,,69,0
280313,note_on,0,0,1,,,,,,,,,0,,,76,0
280313,note_on,113,0,1,,,,,,,,,0,,,64,0
280320,note_on,13,0,0,,,,,,,,,0,,,89,126
280320,note_on,0,0,0,,,,,,,,,0,,,92,126
280320,note_on,0,0,0,,,,,,,,,0,,,95,126
280320,note_on,0,0,0,,,,,,,,,0,,,101,126
280321,control_change,8,0,1,,,,,,,64,0,0,,,,
280322,control_change,1,0,1,,,,,,,64,127,0,,,,
280440,note_on,0,0,1,,,,,,,,,0,,,77,126
280440,note_on,0,0,1,,,,,,,,,0,,,71,126
280440,note_on,0,0,1,,,,,,,,,0,,,68,126
280440,note_on,118,0,1,,,,,,,,,0,,,65,126
280547,note_on,0,0,0,,,,,,,,,0,,,95,0
280547,note_on,0,0,0,,,,,,,,,0,,,101,0
280547,note_on,0,0,0,,,,,,,,,0,,,92,0
280547,note_on,227,0,0,,,,,,,,,0,,,89,0
280560,note_on,0,0,0,,,,,,,,,0,,,89,126
280560,note_on,13,0,0,,,,,,,,,0,,,86,126
280560,note_on,0,0,0,,,,,,,,,0,,,98,126
280560,note_on,0,0,0,,,,,,,,,0,,,92,126
280667,note_on,227,0,1,,,,,,,,,0,,,65,0
280667,note_on,0,0,1,,,,,,,,,0,,,68,0
280667,note_on,0,0,1,,,,,,,,,0,,,77,0
280667,note_on,0,0,1,,,,,,,,,0,,,71,0
280680,note_on,13,0,1,,,,,,,,,0,,,62,126
280680,note_on,0,0,1,,,,,,,,,0,,,65,126
280680,note_on,0,0,1,,,,,,,,,0,,,74,126
280680,note_on,0,0,1,,,,,,,,,0,,,68,126
280787,note_on,0,0,0,,,,,,,,,0,,,89,0
280787,note_on,0,0,0,,,,,,,,,0,,,98,0
280787,note_on,227,0,0,,,,,,,,,0,,,86,0
280787,note_on,0,0,0,,,,,,,,,0,,,92,0
280800,note_on,0,0,0,,,,,,,,,0,,,86,126
280800,note_on,0,0,0,,,,,,,,,0,,,92,126
280800,note_on,0,0,0,,,,,,,,,0,,,83,126
280800,note_on,13,0,0,,,,,,,,,0,,,80,126
280907,note_on,0,0,1,,,,,,,,,0,,,68,0
280907,note_on,0,0,1,,,,,,,,,0,,,65,0
280907,note_on,0,0,1,,,,,,,,,0,,,74,0
280907,note_on,227,0,1,,,,,,,,,0,,,62,0
280920,note_on,0,0,1,,,,,,,,,0,,,62,126
280920,note_on,0,0,1,,,,,,,,,0,,,65,126
280920,note_on,0,0,1,,,,,,,,,0,,,71,126
280920,note_on,13,0,1,,,,,,,,,0,,,59,126
281027,note_on,227,0,0,,,,,,,,,0,,,80,0
281027,note_on,0,0,0,,,,,,,,,0,,,86,0
281027,note_on,0,0,0,,,,,,,,,0,,,83,0
281027,note_on,0,0,0,,,,,,,,,0,,,92,0
281033,note_on,0,0,1,,,,,,,,,0,,,65,0
281033,note_on,0,0,1,,,,,,,,,0,,,62,0
281033,note_on,113,0,1,,,,,,,,,0,,,59,0
281033,note_on,0,0,1,,,,,,,,,0,,,71,0
281040,note_on,0,0,0,,,,,,,,,0,,,86,126
281040,note_on,0,0,0,,,,,,,,,0,,,91,126
281040,note_on,13,0,0,,,,,,,,,0,,,79,126
281040,note_on,0,0,0,,,,,,,,,0,,,83,126
281160,note_on,127,0,1,,,,,,,,,0,,,36,126
281267,note_on,227,0,0,,,,,,,,,0,,,79,0
281267,note_on,0,0,0,,,,,,,,,0,,,83,0
281267,note_on,0,0,0,,,,,,,,,0,,,86,0
281267,note_on,0,0,0,,,,,,,,,0,,,91,0
281280,note_on,0,0,0,,,,,,,,,0,,,88,126
281280,note_on,0,0,0,,,,,,,,,0,,,79,126
281280,note_on,120,0,1,,,,,,,,,0,,,48,126
281280,note_on,13,0,0,,,,,,,,,0,,,76,126
281281,control_change,1,0,1,,,,,,,64,0,0,,,,
281282,control_change,1,0,1,,,,,,,64,127,0,,,,
281318,note_on,0,0,1,,,,,,,,,0,,,48,0
281318,note_on,36,0,1,,,,,,,,,0,,,36,0
281400,note_on,0,0,1,,,,,,,,,0,,,64,126
281400,note_on,0,0,1,,,,,,,,,0,,,55,126
281400,note_on,82,0,1,,,,,,,,,0,,,52,126
281507,note_on,0,0,0,,,,,,,,,0,,,88,0
281507,note_on,0,0,0,,,,,,,,,0,,,79,0
281507,note_on,227,0,0,,,,,,,,,0,,,76,0
281520,note_on,0,0,0,,,,,,,,,0,,,86,126
281520,note_on,0,0,0,,,,,,,,,0,,,79,126
281520,note_on,13,0,0,,,,,,,,,0,,,74,126
281520,note_on,0,0,0,,,,,,,,,0,,,76,126
281627,note_on,0,0,1,,,,,,,,,0,,,64,0
281627,note_on,227,0,1,,,,,,,,,0,,,52,0
281627,note_on,0,0,1,,,,,,,,,0,,,55,0
281640,note_on,13,0,1,,,,,,,,,0,,,52,126
281640,note_on,0,0,1,,,,,,,,,0,,,62,126
281640,note_on,0,0,1,,,,,,,,,0,,,55,126
281747,note_on,227,0,0,,,,,,,,,0,,,74,0
281747,note_on,0,0,0,,,,,,,,,0,,,76,0
281747,note_on,0,0,0,,,,,,,,,0,,,79,0
281747,note_on,0,0,0,,,,,,,,,0,,,86,0
281760,note_on,13,0,0,,,,,,,,,0,,,72,126
281760,note_on,0,0,0,,,,,,,,,0,,,76,126
281760,note_on,0,0,0,,,,,,,,,0,,,84,126
281760,note_on,0,0,0,,,,,,,,,0,,,79,126
281867,note_on,0,0,1,,,,,,,,,0,,,55,0
281867,note_on,227,0,1,,,,,,,,,0,,,52,0
281867,note_on,0,0,1,,,,,,,,,0,,,62,0
281880,note_on,13,0,1,,,,,,,,,0,,,52,126
281880,note_on,0,0,1,,,,,,,,,0,,,55,126
281880,note_on,0,0,1,,,,,,,,,0,,,60,126
281987,note_on,227,0,0,,,,,,,,,0,,,72,0
281987,note_on,0,0,0,,,,,,,,,0,,,84,0
281987,note_on,0,0,0,,,,,,,,,0,,,79,0
281987,note_on,0,0,0,,,,,,,,,0,,,76,0
282000,note_on,13,0,0,,,,,,,,,0,,,71,126
282000,note_on,0,0,0,,,,,,,,,0,,,83,126
282000,note_on,0,0,0,,,,,,,,,0,,,76,126
282000,note_on,0,0,0,,,,,,,,,0,,,79,126
282107,note_on,0,0,1,,,,,,,,,0,,,60,0
282107,note_on,227,0,1,,,,,,,,,0,,,52,0
282107,note_on,0,0,1,,,,,,,,,0,,,55,0
282120,note_on,0,0,1,,,,,,,,,0,,,55,126
282120,note_on,0,0,1,,,,,,,,,0,,,59,126
282120,note_on,13,0,1,,,,,,,,,0,,,52,126
282227,note_on,0,0,0,,,,,,,,,0,,,83,0
282227,note_on,227,0,0,,,,,,,,,0,,,71,0
282227,note_on,0,0,0,,,,,,,,,0,,,76,0
282227,note_on,0,0,0,,,,,,,,,0,,,79,0
282233,note_on,0,0,1,,,,,,,,,0,,,55,0
282233,note_on,0,0,1,,,,,,,,,0,,,59,0
282233,note_on,113,0,1,,,,,,,,,0,,,52,0
282240,note_on,0,0,0,,,,,,,,,0,,,72,126
282240,note_on,0,0,0,,,,,,,,,0,,,76,126
282240,note_on,0,0,0,,,,,,,,,0,,,81,126
282240,note_on,13,0,0,,,,,,,,,0,,,69,126
282360,note_on,0,0,1,,,,,,,,,0,,,57,126
282360,note_on,127,0,1,,,,,,,,,0,,,48,126
282360,note_on,0,0,1,,,,,,,,,0,,,52,126
282467,note_on,0,0,0,,,,,,,,,0,,,76,0
282467,note_on,227,0,0,,,,,,,,,0,,,69,0
282467,note_on,0,0,0,,,,,,,,,0,,,81,0
282467,note_on,0,0,0,,,,,,,,,0,,,72,0
282480,note_on,13,0,0,,,,,,,,,0,,,66,126
282480,note_on,0,0,0,,,,,,,,,0,,,72,126
282480,note_on,0,0,0,,,,,,,,,0,,,76,126
282480,note_on,0,0,0,,,,,,,,,0,,,78,126
282587,note_on,0,0,1,,,,,,,,,0,,,57,0
282587,note_on,0,0,1,,,,,,,,,0,,,52,0
282587,note_on,227,0,1,,,,,,,,,0,,,48,0
282600,note_on,0,0,1,,,,,,,,,0,,,52,126
282600,note_on,0,0,1,,,,,,,,,0,,,54,126
282600,note_on,13,0,1,,,,,,,,,0,,,48,126
282707,note_on,0,0,0,,,,,,,,,0,,,78,0
282707,note_on,227,0,0,,,,,,,,,0,,,66,0
282707,note_on,0,0,0,,,,,,,,,0,,,72,0
282707,note_on,0,0,0,,,,,,,,,0,,,76,0
282720,note_on,13,0,0,,,,,,,,,0,,,67,126
282720,note_on,0,0,0,,,,,,,,,0,,,72,126
282720,note_on,0,0,0,,,,,,,,,0,,,76,126
282720,note_on,0,0,0,,,,,,,,,0,,,79,126
282827,note_on,0,0,1,,,,,,,,,0,,,52,0
282827,note_on,0,0,1,,,,,,,,,0,,,54,0
282827,note_on,227,0,1,,,,,,,,,0,,,48,0
282840,note_on,13,0,1,,,,,,,,,0,,,48,126
282840,note_on,0,0,1,,,,,,,,,0,,,52,126
282840,note_on,0,0,1,,,,,,,,,0,,,55,126
282947,note_on,227,0,0,,,,,,,,,0,,,67,0
282947,note_on,0,0,0,,,,,,,,,0,,,79,0
282947,note_on,0,0,0,,,,,,,,,0,,,72,0
282947,note_on,0,0,0,,,,,,,,,0,,,76,0
282953,note_on,0,0,1,,,,,,,,,0,,,52,0
282953,note_on,0,0,1,,,,,,,,,0,,,55,0
282953,note_on,113,0,1,,,,,,,,,0,,,48,0
282960,note_on,13,0,0,,,,,,,,,0,,,76,126
282960,note_on,0,0,0,,,,,,,,,0,,,79,126
282960,note_on,0,0,0,,,,,,,,,0,,,84,126
282960,note_on,0,0,0,,,,,,,,,0,,,88,126
283080,note_on,127,0,1,,,,,,,,,0,,,36,126
283187,note_on,227,0,0,,,,,,,,,0,,,76,0
283187,note_on,0,0,0,,,,,,,,,0,,,79,0
283187,note_on,0,0,0,,,,,,,,,0,,,84,0
283187,note_on,0,0,0,,,,,,,,,0,,,88,0
283200,note_on,0,0,0,,,,,,,,,0,,,89,127
283200,note_on,13,0,0,,,,,,,,,0,,,77,127
283200,note_on,0,0,0,,,,,,,,,0,,,80,127
283200,note_on,120,0,1,,,,,,,,,0,,,48,126
283201,control_change,1,0,1,,,,,,,64,0,0,,,,
283202,control_change,1,0,1,,,,,,,64,127,0,,,,
283238,note_on,36,0,1,,,,,,,,,0,,,36,0
283238,note_on,0,0,1,,,,,,,,,0,,,48,0
283320,note_on,82,0,1,,,,,,,,,0,,,53,126
283320,note_on,0,0,1,,,,,,,,,0,,,65,126
283320,note_on,0,0,1,,,,,,,,,0,,,56,126
283439,note_on,0,0,0,,,,,,,,,0,,,80,0
283439,note_on,0,0,0,,,,,,,,,0,,,89,0
283439,note_on,239,0,0,,,,,,,,,0,,,77,0
283440,note_on,0,0,0,,,,,,,,,0,,,87,126
283440,note_on,1,0,0,,,,,,,,,0,,,75,126
283440,note_on,0,0,0,,,,,,,,,0,,,80,126
283547,note_on,0,0,1,,,,,,,,,0,,,65,0
283547,note_on,0,0,1,,,,,,,,,0,,,56,0
283547,note_on,227,0,1,,,,,,,,,0,,,53,0
283560,note_on,0,0,1,,,,,,,,,0,,,63,126
283560,note_on,13,0,1,,,,,,,,,0,,,53,126
283560,note_on,0,0,1,,,,,,,,,0,,,56,126
283667,note_on,0,0,0,,,,,,,,,0,,,80,0
283667,note_on,0,0,0,,,,,,,,,0,,,87,0
283667,note_on,227,0,0,,,,,,,,,0,,,75,0
283680,note_on,0,0,0,,,,,,,,,0,,,80,126
283680,note_on,13,0,0,,,,,,,,,0,,,73,126
283680,note_on,0,0,0,,,,,,,,,0,,,85,126
283787,note_on,0,0,1,,,,,,,,,0,,,56,0
283787,note_on,0,0,1,,,,,,,,,0,,,63,0
283787,note_on,227,0,1,,,,,,,,,0,,,53,0
283800,note_on,0,0,1,,,,,,,,,0,,,56,126
283800,note_on,13,0,1,,,,,,,,,0,,,53,126
283800,note_on,0,0,1,,,,,,,,,0,,,61,126
283907,note_on,0,0,0,,,,,,,,,0,,,85,0
283907,note_on,227,0,0,,,,,,,,,0,,,73,0
283907,note_on,0,0,0,,,,,,,,,0,,,80,0
283920,note_on,0,0,0,,,,,,,,,0,,,84,126
283920,note_on,0,0,0,,,,,,,,,0,,,80,126
283920,note_on,13,0,0,,,,,,,,,0,,,72,126
284027,note_on,0,0,1,,,,,,,,,0,,,61,0
284027,note_on,227,0,1,,,,,,,,,0,,,53,0
284027,note_on,0,0,1,,,,,,,,,0,,,56,0
284040,note_on,0,0,1,,,,,,,,,0,,,56,126
284040,note_on,13,0,1,,,,,,,,,0,,,53,126
284040,note_on,0,0,1,,,,,,,,,0,,,60,126
284147,note_on,0,0,0,,,,,,,,,0,,,80,0
284147,note_on,0,0,0,,,,,,,,,0,,,84,0
284147,note_on,227,0,0,,,,,,,,,0,,,72,0
284153,note_on,0,0,1,,,,,,,,,0,,,60,0
284153,note_on,0,0,1,,,,,,,,,0,,,56,0
284153,note_on,113,0,1,,,,,,,,,0,,,53,0
284160,note_on,0,0,0,,,,,,,,,0,,,77,126
284160,note_on,0,0,0,,,,,,,,,0,,,73,126
284160,note_on,13,0,0,,,,,,,,,0,,,70,126
284160,note_on,0,0,0,,,,,,,,,0,,,82,126
284280,note_on,0,0,1,,,,,,,,,0,,,58,126
284280,note_on,0,0,1,,,,,,,,,0,,,53,126
284280,note_on,127,0,1,,,,,,,,,0,,,48,126
284387,note_on,0,0,0,,,,,,,,,0,,,77,0
284387,note_on,0,0,0,,,,,,,,,0,,,82,0
284387,note_on,0,0,0,,,,,,,,,0,,,73,0
284387,note_on,227,0,0,,,,,,,,,0,,,70,0
284400,note_on,0,0,0,,,,,,,,,0,,,79,126
284400,note_on,13,0,0,,,,,,,,,0,,,67,126
284400,note_on,0,0,0,,,,,,,,,0,,,77,126
284400,note_on,0,0,0,,,,,,,,,0,,,73,126
284507,note_on,0,0,1,,,,,,,,,0,,,53,0
284507,note_on,0,0,1,,,,,,,,,0,,,58,0
284507,note_on,227,0,1,,,,,,,,,0,,,48,0
284520,note_on,13,0,1,,,,,,,,,0,,,48,126
284520,note_on,0,0,1,,,,,,,,,0,,,55,126
284520,note_on,0,0,1,,,,,,,,,0,,,53,126
284627,note_on,0,0,0,,,,,,,,,0,,,79,0
284627,note_on,0,0,0,,,,,,,,,0,,,77,0
284627,note_on,227,0,0,,,,,,,,,0,,,67,0
284627,note_on,0,0,0,,,,,,,,,0,,,73,0
284640,note_on,0,0,0,,,,,,,,,0,,,73,126
284640,note_on,0,0,0,,,,,,,,,0,,,77,126
284640,note_on,0,0,0,,,,,,,,,0,,,80,126
284640,note_on,13,0,0,,,,,,,,,0,,,68,126
284747,note_on,0,0,1,,,,,,,,,0,,,53,0
284747,note_on,227,0,1,,,,,,,,,0,,,48,0
284747,note_on,0,0,1,,,,,,,,,0,,,55,0
284760,note_on,13,0,1,,,,,,,,,0,,,48,126
284760,note_on,0,0,1,,,,,,,,,0,,,53,126
284760,note_on,0,0,1,,,,,,,,,0,,,56,126
284867,note_on,0,0,0,,,,,,,,,0,,,77,0
284867,note_on,0,0,0,,,,,,,,,0,,,80,0
284867,note_on,0,0,0,,,,,,,,,0,,,73,0
284867,note_on,227,0,0,,,,,,,,,0,,,68,0
284873,note_on,113,0,1,,,,,,,,,0,,,48,0
284873,note_on,0,0,1,,,,,,,,,0,,,53,0
284873,note_on,0,0,1,,,,,,,,,0,,,56,0
284880,note_on,0,0,0,,,,,,,,,0,,,80,126
284880,note_on,0,0,0,,,,,,,,,0,,,85,126
284880,note_on,13,0,0,,,,,,,,,0,,,77,126
284880,note_on,0,0,0,,,,,,,,,0,,,89,126
285000,note_on,127,0,1,,,,,,,,,0,,,36,126
285107,note_on,227,0,0,,,,,,,,,0,,,77,0
285107,note_on,0,0,0,,,,,,,,,0,,,80,0
285107,note_on,0,0,0,,,,,,,,,0,,,89,0
285107,note_on,0,0,0,,,,,,,,,0,,,85,0
285120,note_on,13,0,0,,,,,,,,,0,,,78,127
285120,note_on,0,0,0,,,,,,,,,0,,,81,127
285120,note_on,0,0,0,,,,,,,,,0,,,90,127
285120,note_on,120,0,1,,,,,,,,,0,,,48,126
285121,control_change,1,0,1,,,,,,,64,0,0,,,,
285122,control_change,1,0,1,,,,,,,64,127,0,,,,
285158,note_on,36,0,1,,,,,,,,,0,,,36,0
285158,note_on,0,0,1,,,,,,,,,0,,,48,0
285240,note_on,82,0,1,,,,,,,,,0,,,54,126
285240,note_on,0,0,1,,,,,,,,,0,,,66,126
285240,note_on,0,0,1,,,,,,,,,0,,,57,126
285359,note_on,0,0,0,,,,,,,,,0,,,81,0
285359,note_on,0,0,0,,,,,,,,,0,,,90,0
285359,note_on,239,0,0,,,,,,,,,0,,,78,0
285360,note_on,1,0,0,,,,,,,,,0,,,76,126
285360,note_on,0,0,0,,,,,,,,,0,,,81,126
285360,note_on,0,0,0,,,,,,,,,0,,,88,126
285467,note_on,227,0,1,,,,,,,,,0,,,54,0
285467,note_on,0,0,1,,,,,,,,,0,,,66,0
285467,note_on,0,0,1,,,,,,,,,0,,,57,0
285480,note_on,0,0,1,,,,,,,,,0,,,64,126
285480,note_on,0,0,1,,,,,,,,,0,,,57,126
285480,note_on,13,0,1,,,,,,,,,0,,,54,126
285587,note_on,0,0,0,,,,,,,,,0,,,81,0
285587,note_on,0,0,0,,,,,,,,,0,,,88,0
285587,note_on,227,0,0,,,,,,,,,0,,,76,0
285600,note_on,0,0,0,,,,,,,,,0,,,78,126
285600,note_on,0,0,0,,,,,,,,,0,,,81,126
285600,note_on,0,0,0,,,,,,,,,0,,,86,126
285600,note_on,13,0,0,,,,,,,,,0,,,74,126
285707,note_on,227,0,1,,,,,,,,,0,,,54,0
285707,note_on,0,0,1,,,,,,,,,0,,,64,0
285707,note_on,0,0,1,,,,,,,,,0,,,57,0
285720,note_on,0,0,1,,,,,,,,,0,,,62,126
285720,note_on,0,0,1,,,,,,,,,0,,,57,126
285720,note_on,13,0,1,,,,,,,,,0,,,54,126
285827,note_on,227,0,0,,,,,,,,,0,,,74,0
285827,note_on,0,0,0,,,,,,,,,0,,,86,0
285827,note_on,0,0,0,,,,,,,,,0,,,78,0
285827,note_on,0,0,0,,,,,,,,,0,,,81,0
285833,note_on,0,0,1,,,,,,,,,0,,,57,0
285833,note_on,0,0,1,,,,,,,,,0,,,62,0
285833,note_on,113,0,1,,,,,,,,,0,,,54,0
285840,note_on,0,0,0,,,,,,,,,0,,,78,126
285840,note_on,0,0,0,,,,,,,,,0,,,74,126
285840,note_on,0,0,0,,,,,,,,,0,,,81,126
285840,note_on,13,0,0,,,,,,,,,0,,,69,126
285960,note_on,127,0,1,,,,,,,,,0,,,36,126
286067,note_on,0,0,0,,,,,,,,,0,,,81,0
286067,note_on,0,0,0,,,,,,,,,0,,,74,0
286067,note_on,227,0,0,,,,,,,,,0,,,69,0
286067,note_on,0,0,0,,,,,,,,,0,,,78,0
286080,note_on,120,0,1,,,,,,,,,0,,,48,126
286080,note_on,0,0,0,,,,,,,,,0,,,82,127
286080,note_on,0,0,0,,,,,,,,,0,,,91,127
286080,note_on,13,0,0,,,,,,,,,0,,,79,127
286081,control_change,1,0,1,,,,,,,64,0,0,,,,
286082,control_change,1,0,1,,,,,,,64,127,0,,,,
286118,note_on,36,0,1,,,,,,,,,0,,,36,0
286118,note_on,0,0,1,,,,,,,,,0,,,48,0
286200,note_on,82,0,1,,,,,,,,,0,,,55,126
286200,note_on,0,0,1,,,,,,,,,0,,,58,126
286200,note_on,0,0,1,,,,,,,,,0,,,67,126
286319,note_on,239,0,0,,,,,,,,,0,,,79,0
286319,note_on,0,0,0,,,,,,,,,0,,,91,0
286319,note_on,0,0,0,,,,,,,,,0,,,82,0
286320,note_on,1,0,0,,,,,,,,,0,,,77,126
286320,note_on,0,0,0,,,,,,,,,0,,,89,126
286320,note_on,0,0,0,,,,,,,,,0,,,82,126
286427,note_on,227,0,1,,,,,,,,,0,,,55,0
286427,note_on,0,0,1,,,,,,,,,0,,,58,0
286427,note_on,0,0,1,,,,,,,,,0,,,67,0
286440,note_on,0,0,1,,,,,,,,,0,,,65,126
286440,note_on,13,0,1,,,,,,,,,0,,,55,126
286440,note_on,0,0,1,,,,,,,,,0,,,58,126
286547,note_on,227,0,0,,,,,,,,,0,,,77,0
286547,note_on,0,0,0,,,,,,,,,0,,,89,0
286547,note_on,0,0,0,,,,,,,,,0,,,82,0
286560,note_on,13,0,0,,,,,,,,,0,,,76,126
286560,note_on,0,0,0,,,,,,,,,0,,,88,126
286560,note_on,0,0,0,,,,,,,,,0,,,82,126
286667,note_on,227,0,1,,,,,,,,,0,,,55,0
286667,note_on,0,0,1,,,,,,,,,0,,,65,0
286667,note_on,0,0,1,,,,,,,,,0,,,58,0
286680,note_on,13,0,1,,,,,,,,,0,,,55,126
286680,note_on,0,0,1,,,,,,,,,0,,,64,126
286680,note_on,0,0,1,,,,,,,,,0,,,58,126
286787,note_on,227,0,0,,,,,,,,,0,,,76,0
286787,note_on,0,0,0,,,,,,,,,0,,,88,0
286787,note_on,0,0,0,,,,,,,,,0,,,82,0
286793,note_on,113,0,1,,,,,,,,,0,,,55,0
286793,note_on,0,0,1,,,,,,,,,0,,,58,0
286793,note_on,0,0,1,,,,,,,,,0,,,64,0
286800,note_on,0,0,0,,,,,,,,,0,,,76,126
286800,note_on,0,0,0,,,,,,,,,0,,,82,126
286800,note_on,13,0,0,,,,,,,,,0,,,70,126
286920,note_on,127,0,1,,,,,,,,,0,,,36,126
287027,note_on,0,0,0,,,,,,,,,0,,,76,0
287027,note_on,227,0,0,,,,,,,,,0,,,70,0
287027,note_on,0,0,0,,,,,,,,,0,,,82,0
287040,note_on,120,0,1,,,,,,,,,0,,,48,112
287040,note_on,0,0,0,,,,,,,,,0,,,86,112
287040,note_on,0,0,0,,,,,,,,,0,,,92,112
287040,note_on,13,0,0,,,,,,,,,0,,,80,112
287040,note_on,0,0,0,,,,,,,,,0,,,83,112
287041,control_change,1,0,1,,,,,,,64,0,0,,,,
287042,control_change,1,0,1,,,,,,,64,127,0,,,,
287078,note_on,36,0,1,,,,,,,,,0,,,36,0
287078,note_on,0,0,1,,,,,,,,,0,,,48,0
287160,note_on,0,0,1,,,,,,,,,0,,,68,112
287160,note_on,0,0,1,,,,,,,,,0,,,62,112
287160,note_on,82,0,1,,,,,,,,,0,,,59,112
287267,note_on,0,0,0,,,,,,,,,0,,,83,0
287267,note_on,0,0,0,,,,,,,,,0,,,92,0
287267,note_on,0,0,0,,,,,,,,,0,,,86,0
287267,note_on,227,0,0,,,,,,,,,0,,,80,0
287280,note_on,13,0,0,,,,,,,,,0,,,79,112
287280,note_on,0,0,0,,,,,,,,,0,,,91,112
287280,note_on,0,0,0,,,,,,,,,0,,,83,112
287280,note_on,0,0,0,,,,,,,,,0,,,86,112
287387,note_on,227,0,1,,,,,,,,,0,,,59,0
287387,note_on,0,0,1,,,,,,,,,0,,,68,0
287387,note_on,0,0,1,,,,,,,,,0,,,62,0
287400,note_on,0,0,1,,,,,,,,,0,,,67,112
287400,note_on,0,0,1,,,,,,,,,0,,,62,112
287400,note_on,13,0,1,,,,,,,,,0,,,59,112
287507,note_on,0,0,0,,,,,,,,,0,,,83,0
287507,note_on,227,0,0,,,,,,,,,0,,,79,0
287507,note_on,0,0,0,,,,,,,,,0,,,91,0
287507,note_on,0,0,0,,,,,,,,,0,,,86,0
287520,note_on,0,0,0,,,,,,,,,0,,,80,112
287520,note_on,0,0,0,,,,,,,,,0,,,83,112
287520,note_on,0,0,0,,,,,,,,,0,,,89,112
287520,note_on,13,0,0,,,,,,,,,0,,,77,112
287627,note_on,227,0,1,,,,,,,,,0,,,59,0
287627,note_on,0,0,1,,,,,,,,,0,,,62,0
287627,note_on,0,0,1,,,,,,,,,0,,,67,0
287640,note_on,13,0,1,,,,,,,,,0,,,56,112
287640,note_on,0,0,1,,,,,,,,,0,,,65,112
287640,note_on,0,0,1,,,,,,,,,0,,,59,112
287747,note_on,0,0,0,,,,,,,,,0,,,80,0
287747,note_on,0,0,0,,,,,,,,,0,,,83,0
287747,note_on,0,0,0,,,,,,,,,0,,,89,0
287747,note_on,227,0,0,,,,,,,,,0,,,77,0
287760,note_on,0,0,0,,,,,,,,,0,,,86,112
287760,note_on,13,0,0,,,,,,,,,0,,,74,112
287760,note_on,0,0,0,,,,,,,,,0,,,77,112
287760,note_on,0,0,0,,,,,,,,,0,,,80,112
287867,note_on,0,0,1,,,,,,,,,0,,,65,0
287867,note_on,227,0,1,,,,,,,,,0,,,56,0
287867,note_on,0,0,1,,,,,,,,,0,,,59,0
287880,note_on,13,0,1,,,,,,,,,0,,,53,112
287880,note_on,0,0,1,,,,,,,,,0,,,62,112
287880,note_on,0,0,1,,,,,,,,,0,,,56,112
287987,note_on,227,0,0,,,,,,,,,0,,,74,0
287987,note_on,0,0,0,,,,,,,,,0,,,77,0
287987,note_on,0,0,0,,,,,,,,,0,,,80,0
287987,note_on,0,0,0,,,,,,,,,0,,,86,0
287993,note_on,0,0,1,,,,,,,,,0,,,62,0
287993,note_on,0,0,1,,,,,,,,,0,,,56,0
287993,note_on,113,0,1,,,,,,,,,0,,,53,0
288000,note_on,0,0,0,,,,,,,,,0,,,74,112
288000,note_on,0,0,0,,,,,,,,,0,,,77,112
288000,note_on,0,0,0,,,,,,,,,0,,,83,112
288000,note_on,13,0,0,,,,,,,,,0,,,71,112
288120,note_on,0,0,1,,,,,,,,,0,,,53,112
288120,note_on,0,0,1,,,,,,,,,0,,,59,112
288120,note_on,127,0,1,,,,,,,,,0,,,50,112
288227,note_on,227,0,0,,,,,,,,,0,,,71,0
288227,note_on,0,0,0,,,,,,,,,0,,,83,0
288227,note_on,0,0,0,,,,,,,,,0,,,74,0
288227,note_on,0,0,0,,,,,,,,,0,,,77,0
288240,note_on,0,0,0,,,,,,,,,0,,,80,112
288240,note_on,0,0,0,,,,,,,,,0,,,74,112
288240,note_on,13,0,0,,,,,,,,,0,,,68,112
288240,note_on,0,0,0,,,,,,,,,0,,,71,112
288347,note_on,227,0,1,,,,,,,,,0,,,50,0
288347,note_on,0,0,1,,,,,,,,,0,,,53,0
288347,note_on,0,0,1,,,,,,,,,0,,,59,0
288360,note_on,13,0,1,,,,,,,,,0,,,47,112
288360,note_on,0,0,1,,,,,,,,,0,,,56,112
288360,note_on,0,0,1,,,,,,,,,0,,,50,112
288467,note_on,0,0,0,,,,,,,,,0,,,74,0
288467,note_on,0,0,0,,,,,,,,,0,,,80,0
288467,note_on,227,0,0,,,,,,,,,0,,,68,0
288467,note_on,0,0,0,,,,,,,,,0,,,71,0
288480,note_on,0,0,0,,,,,,,,,0,,,79,112
288480,note_on,13,0,0,,,,,,,,,0,,,67,112
288480,note_on,0,0,0,,,,,,,,,0,,,71,112
288480,note_on,0,0,0,,,,,,,,,0,,,74,112
288587,note_on,0,0,1,,,,,,,,,0,,,50,0
288587,note_on,0,0,1,,,,,,,,,0,,,56,0
288587,note_on,227,0,1,,,,,,,,,0,,,47,0
288600,note_on,13,0,1,,,,,,,,,0,,,47,112
288600,note_on,0,0,1,,,,,,,,,0,,,50,112
288600,note_on,0,0,1,,,,,,,,,0,,,55,112
288707,note_on,227,0,0,,,,,,,,,0,,,67,0
288707,note_on,0,0,0,,,,,,,,,0,,,79,0
288707,note_on,0,0,0,,,,,,,,,0,,,74,0
288707,note_on,0,0,0,,,,,,,,,0,,,71,0
288720,note_on,0,0,0,,,,,,,,,0,,,68,112
288720,note_on,0,0,0,,,,,,,,,0,,,71,112
288720,note_on,0,0,0,,,,,,,,,0,,,77,112
288720,note_on,13,0,0,,,,,,,,,0,,,65,112
288827,note_on,0,0,1,,,,,,,,,0,,,50,0
288827,note_on,227,0,1,,,,,,,,,0,,,47,0
288827,note_on,0,0,1,,,,,,,,,0,,,55,0
288840,note_on,13,0,1,,,,,,,,,0,,,44,112
288840,note_on,0,0,1,,,,,,,,,0,,,53,112
288840,note_on,0,0,1,,,,,,,,,0,,,47,112
288947,note_on,227,0,0,,,,,,,,,0,,,65,0
288947,note_on,0,0,0,,,,,,,,,0,,,68,0
288947,note_on,0,0,0,,,,,,,,,0,,,77,0
288947,note_on,0,0,0,,,,,,,,,0,,,71,0
288953,note_on,0,0,1,,,,,,,,,0,,,53,0
288953,note_on,113,0,1,,,,,,,,,0,,,44,0
288953,note_on,0,0,1,,,,,,,,,0,,,47,0
288960,note_on,13,0,0,,,,,,,,,0,,,62,112
288960,note_on,0,0,0,,,,,,,,,0,,,65,112
288960,note_on,0,0,0,,,,,,,,,0,,,68,112
288960,note_on,0,0,0,,,,,,,,,0,,,74,112
289080,note_on,0,0,1,,,,,,,,,0,,,50,112
289080,note_on,0,0,1,,,,,,,,,0,,,44,112
289080,note_on,127,0,1,,,,,,,,,0,,,41,112
289187,note_on,0,0,0,,,,,,,,,0,,,65,0
289187,note_on,0,0,0,,,,,,,,,0,,,74,0
289187,note_on,227,0,0,,,,,,,,,0,,,62,0
289187,note_on,0,0,0,,,,,,,,,0,,,68,0
289200,note_on,0,0,0,,,,,,,,,0,,,62,112
289200,note_on,0,0,0,,,,,,,,,0,,,65,112
289200,note_on,0,0,0,,,,,,,,,0,,,71,112
289200,note_on,13,0,0,,,,,,,,,0,,,59,112
289307,note_on,0,0,1,,,,,,,,,0,,,50,0
289307,note_on,0,0,1,,,,,,,,,0,,,44,0
289307,note_on,227,0,1,,,,,,,,,0,,,41,0
289320,note_on,0,0,1,,,,,,,,,0,,,43,112
289320,note_on,13,0,1,,,,,,,,,0,,,38,112
289320,note_on,0,0,1,,,,,,,,,0,,,41,112
289427,note_on,0,0,0,,,,,,,,,0,,,65,0
289427,note_on,0,0,0,,,,,,,,,0,,,62,0
289427,note_on,0,0,0,,,,,,,,,0,,,71,0
289427,note_on,227,0,0,,,,,,,,,0,,,59,0
289440,note_on,0,0,0,,,,,,,,,0,,,68,112
289440,note_on,0,0,0,,,,,,,,,0,,,62,112
289440,note_on,0,0,0,,,,,,,,,0,,,59,112
289440,note_on,13,0,0,,,,,,,,,0,,,56,112
289547,note_on,227,0,1,,,,,,,,,0,,,38,0
289547,note_on,0,0,1,,,,,,,,,0,,,41,0
289547,note_on,0,0,1,,,,,,,,,0,,,43,0
289560,note_on,0,0,1,,,,,,,,,0,,,44,112
289560,note_on,13,0,1,,,,,,,,,0,,,35,112
289560,note_on,0,0,1,,,,,,,,,0,,,38,112
289667,note_on,0,0,0,,,,,,,,,0,,,62,0
289667,note_on,0,0,0,,,,,,,,,0,,,59,0
289667,note_on,227,0,0,,,,,,,,,0,,,56,0
289667,note_on,0,0,0,,,,,,,,,0,,,68,0
289680,note_on,0,0,0,,,,,,,,,0,,,62,112
289680,note_on,0,0,0,,,,,,,,,0,,,67,112
289680,note_on,0,0,0,,,,,,,,,0,,,59,112
289680,note_on,13,0,0,,,,,,,,,0,,,55,112
289787,note_on,0,0,1,,,,,,,,,0,,,44,0
289787,note_on,0,0,1,,,,,,,,,0,,,38,0
289787,note_on,227,0,1,,,,,,,,,0,,,35,0
289800,note_on,0,0,1,,,,,,,,,0,,,43,112
289800,note_on,13,0,1,,,,,,,,,0,,,35,112
289800,note_on,0,0,1,,,,,,,,,0,,,38,112
289907,note_on,227,0,0,,,,,,,,,0,,,55,0
289907,note_on,0,0,0,,,,,,,,,0,,,59,0
289907,note_on,0,0,0,,,,,,,,,0,,,62,0
289907,note_on,0,0,0,,,,,,,,,0,,,67,0
289913,note_on,113,0,1,,,,,,,,,0,,,35,0
289913,note_on,0,0,1,,,,,,,,,0,,,43,0
289913,note_on,0,0,1,,,,,,,,,0,,,38,0
289920,note_on,0,0,0,,,,,,,,,0,,,65,112
289920,note_on,0,0,1,,,,,,,,,0,,,59,112
289920,note_on,13,0,0,,,,,,,,,0,,,62,112
289920,note_on,7,0,1,,,,,,,,,0,,,53,112
290040,note_on,0,0,1,,,,,,,,,0,,,38,112
290040,note_on,120,0,1,,,,,,,,,0,,,35,112
290040,note_on,0,0,1,,,,,,,,,0,,,41,112
290147,note_on,0,0,1,,,,,,,,,0,,,59,0
290147,note_on,227,0,0,,,,,,,,,0,,,62,0
290147,note_on,107,0,1,,,,,,,,,0,,,53,0
290147,note_on,0,0,0,,,,,,,,,0,,,65,0
290160,note_on,13,0,0,,,,,,,,,0,,,62,112
290160,note_on,13,0,1,,,,,,,,,0,,,56,112
290160,note_on,0,0,1,,,,,,,,,0,,,59,112
290160,note_on,0,0,0,,,,,,,,,0,,,68,112
290267,note_on,0,0,1,,,,,,,,,0,,,38,0
290267,note_on,0,0,1,,,,,,,,,0,,,41,0
290267,note_on,107,0,1,,,,,,,,,0,,,35,0
290280,note_on,0,0,1,,,,,,,,,0,,,35,112
290280,note_on,0,0,1,,,,,,,,,0,,,38,112
290280,note_on,13,0,1,,,,,,,,,0,,,32,112
290280,note_on,0,0,1,,,,,,,,,0,,,44,112
290387,note_on,107,0,1,,,,,,,,,0,,,56,0
290387,note_on,227,0,0,,,,,,,,,0,,,62,0
290387,note_on,0,0,0,,,,,,,,,0,,,68,0
290387,note_on,0,0,1,,,,,,,,,0,,,59,0
290400,note_on,13,0,0,,,,,,,,,0,,,62,112
290400,note_on,0,0,1,,,,,,,,,0,,,59,112
290400,note_on,0,0,0,,,,,,,,,0,,,67,112
290400,note_on,13,0,1,,,,,,,,,0,,,55,112
290507,note_on,107,0,1,,,,,,,,,0,,,32,0
290507,note_on,0,0,1,,,,,,,,,0,,,44,0
290507,note_on,0,0,1,,,,,,,,,0,,,35,0
290507,note_on,0,0,1,,,,,,,,,0,,,38,0
290520,note_on,0,0,1,,,,,,,,,0,,,38,112
290520,note_on,0,0,1,,,,,,,,,0,,,35,112
290520,note_on,0,0,1,,,,,,,,,0,,,43,112
290520,note_on,13,0,1,,,,,,,,,0,,,31,112
290627,note_on,227,0,0,,,,,,,,,0,,,62,0
290627,note_on,107,0,1,,,,,,,,,0,,,55,0
290627,note_on,0,0,0,,,,,,,,,0,,,67,0
290627,note_on,0,0,1,,,,,,,,,0,,,59,0
290640,note_on,13,0,0,,,,,,,,,0,,,62,112
290640,note_on,0,0,1,,,,,,,,,0,,,56,112
290640,note_on,13,0,1,,,,,,,,,0,,,53,112
290640,note_on,0,0,0,,,,,,,,,0,,,65,112
290747,note_on,107,0,1,,,,,,,,,0,,,31,0
290747,note_on,0,0,1,,,,,,,,,0,,,35,0
290747,note_on,0,0,1,,,,,,,,,0,,,43,0
290747,note_on,0,0,1,,,,,,,,,0,,,38,0
290760,note_on,0,0,1,,,,,,,,,0,,,35,112
290760,note_on,0,0,1,,,,,,,,,0,,,41,112
290760,note_on,13,0,1,,,,,,,,,0,,,29,112
290760,note_on,0,0,1,,,,,,,,,0,,,38,112
290867,note_on,107,0,1,,,,,,,,,0,,,53,0
290867,note_on,227,0,0,,,,,,,,,0,,,62,0
290867,note_on,0,0,1,,,,,,,,,0,,,56,0
290867,note_on,0,0,0,,,,,,,,,0,,,65,0
290873,note_on,6,0,1,,,,,,,,,0,,,29,0
290873,note_on,0,0,1,,,,,,,,,0,,,38,0
290873,note_on,0,0,1,,,,,,,,,0,,,41,0
290873,note_on,0,0,1,,,,,,,,,0,,,35,0
290880,note_on,0,0,1,,,,,,,,,0,,,48,126
290880,note_on,0,0,1,,,,,,,,,0,,,48,0
290880,note_on,0,0,1,,,,,,,,,0,,,48,126
290880,set_tempo,0,1,0,,,,,,428572,,,,,,,
290880,note_on,0,0,1,,,,,,,,,0,,,28,127
290880,time_signature,13,1,0,6,8,24,8,,,,,,,,,
290880,note_on,0,0,1,,,,,,,,,0,,,36,127
290880,note_on,0,0,1,,,,,,,,,0,,,31,127
290880,note_on,7,0,1,,,,,,,,,0,,,24,127
290880,note_on,0,0,0,,,,,,,,,0,,,60,127
290881,control_change,1,0,1,,,,,,,64,0,0,,,,
290882,control_change,1,0,1,,,,,,,64,127,0,,,,
290959,note_on,79,0,0,,,,,,,,,0,,,60,0
291000,note_on,118,0,1,,,,,,,,,0,,,52,126
291000,note_on,41,0,0,,,,,,,,,0,,,55,126
291113,note_on,113,0,0,,,,,,,,,0,,,55,0
291113,note_on,113,0,1,,,,,,,,,0,,,52,0
291120,note_on,7,0,0,,,,,,,,,0,,,60,126
291233,note_on,113,0,0,,,,,,,,,0,,,60,0
291240,note_on,7,0,0,,,,,,,,,0,,,60,126
291353,note_on,113,0,0,,,,,,,,,0,,,60,0
291360,note_on,0,0,0,,,,,,,,,0,,,67,126
291360,note_on,7,0,0,,,,,,,,,0,,,64,126
291361,note_on,0,0,1,,,,,,,,,0,,,28,0
291361,note_on,248,0,1,,,,,,,,,0,,,24,0
291361,note_on,0,0,1,,,,,,,,,0,,,31,0
291361,note_on,0,0,1,,,,,,,,,0,,,36,0
291473,note_on,113,0,0,,,,,,,,,0,,,64,0
291473,note_on,0,0,0,,,,,,,,,0,,,67,0
291480,note_on,7,0,0,,,,,,,,,0,,,72,126
291563,note_on,202,0,1,,,,,,,,,0,,,48,0
291593,note_on,113,0,0,,,,,,,,,0,,,72,0
291600,note_on,7,0,0,,,,,,,,,0,,,72,126
291600,note_on,0,0,1,,,,,,,,,0,,,60,126
291600,note_on,37,0,1,,,,,,,,,0,,,52,126
291600,note_on,0,0,1,,,,,,,,,0,,,55,126
291678,note_on,0,0,1,,,,,,,,,0,,,60,0
291678,note_on,0,0,1,,,,,,,,,0,,,55,0
291678,note_on,78,0,1,,,,,,,,,0,,,52,0
291713,note_on,113,0,0,,,,,,,,,0,,,72,0
291720,note_on,7,0,0,,,,,,,,,0,,,76,126
291720,note_on,0,0,0,,,,,,,,,0,,,79,126
291833,note_on,0,0,0,,,,,,,,,0,,,79,0
291833,note_on,113,0,0,,,,,,,,,0,,,76,0
291840,note_on,7,0,0,,,,,,,,,0,,,84,126
291953,note_on,113,0,0,,,,,,,,,0,,,84,0
291960,note_on,0,0,1,,,,,,,,,0,,,52,126
291960,note_on,7,0,0,,,,,,,,,0,,,84,126
291960,note_on,282,0,1,,,,,,,,,0,,,48,126
291960,note_on,0,0,1,,,,,,,,,0,,,55,126
291998,note_on,0,0,1,,,,,,,,,0,,,52,0
291998,note_on,0,0,1,,,,,,,,,0,,,55,0
291998,note_on,38,0,1,,,,,,,,,0,,,48,0
292073,note_on,113,0,0,,,,,,,,,0,,,84,0
292080,note_on,0,0,1,,,,,,,,,0,,,55,126
292080,note_on,82,0,1,,,,,,,,,0,,,48,126
292080,note_on,7,0,0,,,,,,,,,0,,,88,126
292080,note_on,0,0,1,,,,,,,,,0,,,52,126
292154,note_on,74,0,0,,,,,,,,,0,,,91,126
292158,note_on,0,0,1,,,,,,,,,0,,,52,0
292158,note_on,0,0,1,,,,,,,,,0,,,55,0
292158,note_on,78,0,1,,,,,,,,,0,,,48,0
292229,note_on,75,0,0,,,,,,,,,0,,,96,126
292318,note_on,0,0,0,,,,,,,,,0,,,96,0
292318,note_on,89,0,0,,,,,,,,,0,,,91,0
292319,note_on,1,0,0,,,,,,,,,0,,,88,0
292320,note_on,0,0,1,,,,,,,,,0,,,34,127
292320,note_on,0,0,1,,,,,,,,,0,,,37,127
292320,note_on,0,0,1,,,,,,,,,0,,,43,127
292320,note_on,162,0,1,,,,,,,,,0,,,31,127
292320,note_on,0,0,1,,,,,,,,,0,,,49,0
292320,note_on,0,0,1,,,,,,,,,0,,,49,126
292320,note_on,1,0,0,,,,,,,,,0,,,60,127
292320,note_on,0,0,1,,,,,,,,,0,,,49,126
292321,control_change,1,0,1,,,,,,,64,0,0,,,,
292322,control_change,1,0,1,,,,,,,64,127,0,,,,
292399,note_on,79,0,0,,,,,,,,,0,,,60,0
292440,note_on,118,0,1,,,,,,,,,0,,,53,126
292440,note_on,41,0,0,,,,,,,,,0,,,53,126
292440,note_on,0,0,0,,,,,,,,,0,,,53,0
292553,note_on,113,0,1,,,,,,,,,0,,,53,0
292560,note_on,7,0,1,,,,,,,,,0,,,58,126
292560,note_on,120,0,0,,,,,,,,,0,,,61,126
292673,note_on,113,0,1,,,,,,,,,0,,,58,0
292673,note_on,113,0,0,,,,,,,,,0,,,61,0
292680,note_on,7,0,0,,,,,,,,,0,,,61,126
292793,note_on,113,0,0,,,,,,,,,0,,,61,0
292800,note_on,7,0,0,,,,,,,,,0,,,65,126
292801,note_on,0,0,1,,,,,,,,,0,,,34,0
292801,note_on,128,0,1,,,,,,,,,0,,,31,0
292801,note_on,0,0,1,,,,,,,,,0,,,37,0
292801,note_on,0,0,1,,,,,,,,,0,,,43,0
292913,note_on,113,0,0,,,,,,,,,0,,,65,0
292920,note_on,0,0,0,,,,,,,,,0,,,73,126
292920,note_on,7,0,0,,,,,,,,,0,,,70,126
293003,note_on,202,0,1,,,,,,,,,0,,,49,0
293033,note_on,113,0,0,,,,,,,,,0,,,70,0
293033,note_on,0,0,0,,,,,,,,,0,,,73,0
293040,note_on,7,0,0,,,,,,,,,0,,,73,126
293040,note_on,0,0,1,,,,,,,,,0,,,58,126
293040,note_on,37,0,1,,,,,,,,,0,,,53,126
293040,note_on,0,0,1,,,,,,,,,0,,,61,126
293118,note_on,0,0,1,,,,,,,,,0,,,61,0
293118,note_on,78,0,1,,,,,,,,,0,,,53,0
293118,note_on,0,0,1,,,,,,,,,0,,,58,0
293153,note_on,113,0,0,,,,,,,,,0,,,73,0
293160,note_on,7,0,0,,,,,,,,,0,,,77,126
293273,note_on,113,0,0,,,,,,,,,0,,,77,0
293280,note_on,7,0,0,,,,,,,,,0,,,82,126
293280,note_on,0,0,0,,,,,,,,,0,,,85,126
293393,note_on,113,0,0,,,,,,,,,0,,,82,0
293393,note_on,0,0,0,,,,,,,,,0,,,85,0
293400,note_on,282,0,1,,,,,,,,,0,,,49,126
293400,note_on,7,0,0,,,,,,,,,0,,,85,126
293400,note_on,0,0,1,,,,,,,,,0,,,53,126
293400,note_on,0,0,1,,,,,,,,,0,,,58,126
293438,note_on,0,0,1,,,,,,,,,0,,,53,0
293438,note_on,0,0,1,,,,,,,,,0,,,58,0
293438,note_on,38,0,1,,,,,,,,,0,,,49,0
293513,note_on,113,0,0,,,,,,,,,0,,,85,0
293520,note_on,0,0,1,,,,,,,,,0,,,58,126
293520,note_on,7,0,0,,,,,,,,,0,,,89,126
293520,note_on,0,0,1,,,,,,,,,0,,,53,126
293520,note_on,82,0,1,,,,,,,,,0,,,49,126
293594,note_on,74,0,0,,,,,,,,,0,,,94,126
293598,note_on,0,0,1,,,,,,,,,0,,,53,0
293598,note_on,0,0,1,,,,,,,,,0,,,58,0
293598,note_on,78,0,1,,,,,,,,,0,,,49,0
293669,note_on,75,0,0,,,,,,,,,0,,,97,126
293758,note_on,0,0,0,,,,,,,,,0,,,97,0
293758,note_on,89,0,0,,,,,,,,,0,,,94,0
293759,note_on,1,0,0,,,,,,,,,0,,,89,0
293760,note_on,162,0,1,,,,,,,,,0,,,24,127
293760,note_on,1,0,0,,,,,,,,,0,,,60,127
293760,note_on,0,0,1,,,,,,,,,0,,,28,127
293760,note_on,0,0,1,,,,,,,,,0,,,31,127
293760,note_on,0,0,1,,,,,,,,,0,,,36,127
293760,note_on,0,0,1,,,,,,,,,0,,,48,0
293760,note_on,0,0,1,,,,,,,,,0,,,48,126
293760,note_on,0,0,1,,,,,,,,,0,,,48,126
293761,control_change,1,0,1,,,,,,,64,0,0,,,,
293762,control_change,1,0,1,,,,,,,64,127,0,,,,
293839,note_on,79,0,0,,,,,,,,,0,,,60,0
293880,note_on,118,0,1,,,,,,,,,0,,,52,126
293880,note_on,41,0,0,,,,,,,,,0,,,55,126
293993,note_on,113,0,0,,,,,,,,,0,,,55,0
293993,note_on,113,0,1,,,,,,,,,0,,,52,0
294000,note_on,7,0,0,,,,,,,,,0,,,60,126
294113,note_on,113,0,0,,,,,,,,,0,,,60,0
294120,note_on,7,0,0,,,,,,,,,0,,,60,126
294233,note_on,113,0,0,,,,,,,,,0,,,60,0
294240,note_on,0,0,0,,,,,,,,,0,,,67,126
294240,note_on,7,0,0,,,,,,,,,0,,,64,126
294241,note_on,0,0,1,,,,,,,,,0,,,28,0
294241,note_on,0,0,1,,,,,,,,,0,,,31,0
294241,note_on,0,0,1,,,,,,,,,0,,,36,0
294241,note_on,248,0,1,,,,,,,,,0,,,24,0
294353,note_on,113,0,0,,,,,,,,,0,,,64,0
294353,note_on,0,0,0,,,,,,,,,0,,,67,0
294360,note_on,7,0,0,,,,,,,,,0,,,72,126
294443,note_on,202,0,1,,,,,,,,,0,,,48,0
294473,note_on,113,0,0,,,,,,,,,0,,,72,0
294480,note_on,0,0,1,,,,,,,,,0,,,55,126
294480,note_on,0,0,1,,,,,,,,,0,,,60,126
294480,note_on,7,0,0,,,,,,,,,0,,,72,126
294480,note_on,37,0,1,,,,,,,,,0,,,52,126
294558,note_on,0,0,1,,,,,,,,,0,,,55,0
294558,note_on,0,0,1,,,,,,,,,0,,,60,0
294558,note_on,78,0,1,,,,,,,,,0,,,52,0
294593,note_on,113,0,0,,,,,,,,,0,,,72,0
294600,note_on,7,0,0,,,,,,,,,0,,,76,126
294600,note_on,0,0,0,,,,,,,,,0,,,79,126
294713,note_on,113,0,0,,,,,,,,,0,,,76,0
294713,note_on,0,0,0,,,,,,,,,0,,,79,0
294720,note_on,7,0,0,,,,,,,,,0,,,84,126
294833,note_on,113,0,0,,,,,,,,,0,,,84,0
294840,note_on,0,0,1,,,,,,,,,0,,,55,126
294840,note_on,7,0,0,,,,,,,,,0,,,84,126
294840,note_on,282,0,1,,,,,,,,,0,,,48,126
294840,note_on,0,0,1,,,,,,,,,0,,,52,126
294878,note_on,38,0,1,,,,,,,,,0,,,48,0
294878,note_on,0,0,1,,,,,,,,,0,,,52,0
294878,note_on,0,0,1,,,,,,,,,0,,,55,0
294953,note_on,113,0,0,,,,,,,,,0,,,84,0
294960,note_on,0,0,1,,,,,,,,,0,,,55,126
294960,note_on,0,0,1,,,,,,,,,0,,,52,126
294960,note_on,82,0,1,,,,,,,,,0,,,48,126
294960,note_on,7,0,0,,,,,,,,,0,,,88,126
295034,note_on,74,0,0,,,,,,,,,0,,,91,126
295038,note_on,0,0,1,,,,,,,,,0,,,55,0
295038,note_on,0,0,1,,,,,,,,,0,,,52,0
295038,note_on,78,0,1,,,,,,,,,0,,,48,0
295109,note_on,75,0,0,,,,,,,,,0,,,96,126
295198,note_on,89,0,0,,,,,,,,,0,,,91,0
295198,note_on,0,0,0,,,,,,,,,0,,,96,0
295199,note_on,1,0,0,,,,,,,,,0,,,88,0
295200,note_on,162,0,1,,,,,,,,,0,,,29,127
295200,note_on,1,0,0,,,,,,,,,0,,,60,127
295200,note_on,0,0,1,,,,,,,,,0,,,53,126
295200,note_on,0,0,1,,,,,,,,,0,,,32,127
295200,note_on,0,0,1,,,,,,,,,0,,,35,127
295200,note_on,0,0,1,,,,,,,,,0,,,38,127
295200,note_on,0,0,1,,,,,,,,,0,,,41,127
295200,note_on,0,0,1,,,,,,,,,0,,,53,0
295200,note_on,0,0,1,,,,,,,,,0,,,53,126
295201,control_change,1,0,1,,,,,,,64,0,0,,,,
295202,control_change,1,0,1,,,,,,,64,127,0,,,,
295279,note_on,79,0,0,,,,,,,,,0,,,60,0
295320,note_on,118,0,1,,,,,,,,,0,,,56,126
295320,note_on,41,0,0,,,,,,,,,0,,,59,126
295433,note_on,113,0,0,,,,,,,,,0,,,59,0
295433,note_on,113,0,1,,,,,,,,,0,,,56,0
295440,note_on,7,0,0,,,,,,,,,0,,,65,126
295553,note_on,113,0,0,,,,,,,,,0,,,65,0
295560,note_on,7,0,0,,,,,,,,,0,,,65,126
295673,note_on,113,0,0,,,,,,,,,0,,,65,0
295680,note_on,0,0,0,,,,,,,,,0,,,71,126
295680,note_on,7,0,0,,,,,,,,,0,,,68,126
295681,note_on,0,0,1,,,,,,,,,0,,,35,0
295681,note_on,0,0,1,,,,,,,,,0,,,38,0
295681,note_on,0,0,1,,,,,,,,,0,,,41,0
295681,note_on,0,0,1,,,,,,,,,0,,,32,0
295681,note_on,248,0,1,,,,,,,,,0,,,29,0
295793,note_on,113,0,0,,,,,,,,,0,,,68,0
295793,note_on,0,0,0,,,,,,,,,0,,,71,0
295800,note_on,7,0,0,,,,,,,,,0,,,77,126
295883,note_on,202,0,1,,,,,,,,,0,,,53,0
295913,note_on,113,0,0,,,,,,,,,0,,,77,0
295920,note_on,0,0,1,,,,,,,,,0,,,68,126
295920,note_on,0,0,1,,,,,,,,,0,,,62,126
295920,note_on,7,0,0,,,,,,,,,0,,,77,126
295920,note_on,37,0,1,,,,,,,,,0,,,59,126
295998,note_on,78,0,1,,,,,,,,,0,,,59,0
295998,note_on,0,0,1,,,,,,,,,0,,,62,0
295998,note_on,0,0,1,,,,,,,,,0,,,68,0
296033,note_on,113,0,0,,,,,,,,,0,,,77,0
296040,note_on,0,0,0,,,,,,,,,0,,,83,126
296040,note_on,7,0,0,,,,,,,,,0,,,80,126
296153,note_on,113,0,0,,,,,,,,,0,,,80,0
296153,note_on,0,0,0,,,,,,,,,0,,,83,0
296160,note_on,7,0,0,,,,,,,,,0,,,89,126
296273,note_on,113,0,0,,,,,,,,,0,,,89,0
296280,note_on,0,0,1,,,,,,,,,0,,,59,126
296280,note_on,7,0,0,,,,,,,,,0,,,89,126
296280,note_on,0,0,1,,,,,,,,,0,,,65,126
296280,note_on,282,0,1,,,,,,,,,0,,,56,126
296318,note_on,38,0,1,,,,,,,,,0,,,56,0
296318,note_on,0,0,1,,,,,,,,,0,,,59,0
296318,note_on,0,0,1,,,,,,,,,0,,,65,0
296393,note_on,113,0,0,,,,,,,,,0,,,89,0
296400,note_on,7,0,0,,,,,,,,,0,,,92,126
296400,note_on,82,0,1,,,,,,,,,0,,,56,126
296400,note_on,0,0,1,,,,,,,,,0,,,65,126
296400,note_on,0,0,1,,,,,,,,,0,,,59,126
296474,note_on,74,0,0,,,,,,,,,0,,,95,126
296478,note_on,0,0,1,,,,,,,,,0,,,59,0
296478,note_on,0,0,1,,,,,,,,,0,,,65,0
296478,note_on,78,0,1,,,,,,,,,0,,,56,0
296549,note_on,75,0,0,,,,,,,,,0,,,101,126
296638,note_on,89,0,0,,,,,,,,,0,,,95,0
296638,note_on,0,0,0,,,,,,,,,0,,,101,0
296639,note_on,1,0,0,,,,,,,,,0,,,92,0
296640,note_on,1,0,0,,,,,,,,,0,,,64,127
296640,note_on,0,0,1,,,,,,,,,0,,,48,127
296640,note_on,162,0,1,,,,,,,,,0,,,36,127
296640,note_on,0,0,1,,,,,,,,,0,,,43,127
296640,note_on,0,0,1,,,,,,,,,0,,,40,127
296640,note_on,0,0,1,,,,,,,,,0,,,52,126
296641,control_change,1,0,1,,,,,,,64,0,0,,,,
296642,control_change,1,0,1,,,,,,,64,127,0,,,,
296719,note_on,79,0,0,,,,,,,,,0,,,64,0
296759,note_on,117,0,1,,,,,,,,,0,,,52,0
296760,note_on,41,0,0,,,,,,,,,0,,,55,126
296760,note_on,1,0,1,,,,,,,,,0,,,55,126
296760,note_on,0,0,0,,,,,,,,,0,,,55,0
296879,note_on,119,0,1,,,,,,,,,0,,,55,0
296880,note_on,120,0,0,,,,,,,,,0,,,60,126
296960,note_on,0,0,1,,,,,,,,,0,,,43,0
296960,note_on,0,0,1,,,,,,,,,0,,,40,0
296960,note_on,81,0,1,,,,,,,,,0,,,36,0
296960,note_on,0,0,1,,,,,,,,,0,,,48,0
296993,note_on,113,0,0,,,,,,,,,0,,,60,0
297000,note_on,7,0,0,,,,,,,,,0,,,64,126
297113,note_on,113,0,0,,,,,,,,,0,,,64,0
297120,note_on,0,0,1,,,,,,,,,0,,,60,126
297120,note_on,0,0,0,,,,,,,,,0,,,76,126
297120,note_on,7,0,0,,,,,,,,,0,,,67,126
297120,note_on,160,0,1,,,,,,,,,0,,,55,126
297120,note_on,0,0,0,,,,,,,,,0,,,72,126
297198,note_on,78,0,1,,,,,,,,,0,,,55,0
297198,note_on,78,0,0,,,,,,,,,0,,,67,0
297198,note_on,0,0,0,,,,,,,,,0,,,72,0
297198,note_on,0,0,0,,,,,,,,,0,,,76,0
297198,note_on,0,0,1,,,,,,,,,0,,,60,0
297360,note_on,0,0,1,,,,,,,,,0,,,43,127
297360,note_on,0,0,1,,,,,,,,,0,,,34,127
297360,note_on,0,0,1,,,,,,,,,0,,,37,127
297360,note_on,162,0,0,,,,,,,,,0,,,61,127
297360,note_on,0,0,0,,,,,,,,,0,,,73,127
297360,note_on,162,0,1,,,,,,,,,0,,,31,127
297361,control_change,1,0,1,,,,,,,64,0,0,,,,
297362,control_change,1,0,1,,,,,,,64,127,0,,,,
297439,note_on,79,0,0,,,,,,,,,0,,,61,0
297439,note_on,0,0,0,,,,,,,,,0,,,73,0
297480,note_on,41,0,0,,,,,,,,,0,,,65,126
297599,note_on,119,0,0,,,,,,,,,0,,,65,0
297600,note_on,1,0,0,,,,,,,,,0,,,70,126
297600,note_on,0,0,0,,,,,,,,,0,,,73,126
297680,note_on,0,0,1,,,,,,,,,0,,,43,0
297680,note_on,0,0,1,,,,,,,,,0,,,37,0
297680,note_on,0,0,1,,,,,,,,,0,,,34,0
297680,note_on,318,0,1,,,,,,,,,0,,,31,0
297719,note_on,119,0,0,,,,,,,,,0,,,70,0
297719,note_on,0,0,0,,,,,,,,,0,,,73,0
297720,note_on,1,0,0,,,,,,,,,0,,,73,126
297833,note_on,113,0,0,,,,,,,,,0,,,73,0
297840,note_on,0,0,1,,,,,,,,,0,,,58,126
297840,note_on,7,0,0,,,,,,,,,0,,,77,126
297840,note_on,0,0,1,,,,,,,,,0,,,61,126
297840,note_on,0,0,0,,,,,,,,,0,,,85,126
297840,note_on,0,0,0,,,,,,,,,0,,,82,126
297840,note_on,160,0,1,,,,,,,,,0,,,53,126
297918,note_on,0,0,1,,,,,,,,,0,,,58,0
297918,note_on,0,0,1,,,,,,,,,0,,,61,0
297918,note_on,78,0,0,,,,,,,,,0,,,77,0
297918,note_on,0,0,0,,,,,,,,,0,,,82,0
297918,note_on,0,0,0,,,,,,,,,0,,,85,0
297918,note_on,78,0,1,,,,,,,,,0,,,53,0
298080,note_on,162,0,1,,,,,,,,,0,,,36,127
298080,note_on,0,0,0,,,,,,,,,0,,,72,127
298080,note_on,0,0,1,,,,,,,,,0,,,43,127
298080,note_on,162,0,0,,,,,,,,,0,,,60,127
298080,note_on,0,0,1,,,,,,,,,0,,,40,127
298080,note_on,0,0,1,,,,,,,,,0,,,48,127
298081,control_change,1,0,1,,,,,,,64,0,0,,,,
298082,control_change,1,0,1,,,,,,,64,127,0,,,,
298159,note_on,0,0,0,,,,,,,,,0,,,72,0
298159,note_on,79,0,0,,,,,,,,,0,,,60,0
298200,note_on,0,0,0,,,,,,,,,0,,,67,126
298200,note_on,41,0,0,,,,,,,,,0,,,64,126
298319,note_on,0,0,0,,,,,,,,,0,,,67,0
298319,note_on,119,0,0,,,,,,,,,0,,,64,0
298320,note_on,1,0,0,,,,,,,,,0,,,72,126
298400,note_on,318,0,1,,,,,,,,,0,,,36,0
298400,note_on,0,0,1,,,,,,,,,0,,,40,0
298400,note_on,0,0,1,,,,,,,,,0,,,43,0
298400,note_on,0,0,1,,,,,,,,,0,,,48,0
298439,note_on,119,0,0,,,,,,,,,0,,,72,0
298440,note_on,1,0,0,,,,,,,,,0,,,72,126
298553,note_on,113,0,0,,,,,,,,,0,,,72,0
298560,note_on,160,0,1,,,,,,,,,0,,,52,126
298560,note_on,0,0,0,,,,,,,,,0,,,84,126
298560,note_on,7,0,0,,,,,,,,,0,,,76,126
298560,note_on,0,0,0,,,,,,,,,0,,,79,126
298560,note_on,0,0,1,,,,,,,,,0,,,55,126
298560,note_on,0,0,1,,,,,,,,,0,,,60,126
298638,note_on,78,0,1,,,,,,,,,0,,,52,0
298638,note_on,0,0,1,,,,,,,,,0,,,55,0
298638,note_on,0,0,0,,,,,,,,,0,,,84,0
298638,note_on,78,0,0,,,,,,,,,0,,,76,0
298638,note_on,0,0,1,,,,,,,,,0,,,60,0
298638,note_on,0,0,0,,,,,,,,,0,,,79,0
298800,note_on,0,0,1,,,,,,,,,0,,,38,127
298800,note_on,0,0,1,,,,,,,,,0,,,35,127
298800,note_on,0,0,0,,,,,,,,,0,,,89,127
298800,note_on,0,0,1,,,,,,,,,0,,,32,127
298800,note_on,162,0,1,,,,,,,,,0,,,29,127
298800,note_on,0,0,1,,,,,,,,,0,,,41,127
298800,note_on,162,0,0,,,,,,,,,0,,,77,127
298801,control_change,1,0,1,,,,,,,64,0,0,,,,
298802,control_change,1,0,1,,,,,,,64,127,0,,,,
298879,note_on,0,0,0,,,,,,,,,0,,,89,0
298879,note_on,79,0,0,,,,,,,,,0,,,77,0
298920,note_on,0,0,0,,,,,,,,,0,,,83,126
298920,note_on,41,0,0,,,,,,,,,0,,,80,126
299039,note_on,0,0,0,,,,,,,,,0,,,83,0
299039,note_on,119,0,0,,,,,,,,,0,,,80,0
299040,note_on,1,0,0,,,,,,,,,0,,,89,126
299120,note_on,0,0,1,,,,,,,,,0,,,41,0
299120,note_on,0,0,1,,,,,,,,,0,,,38,0
299120,note_on,0,0,1,,,,,,,,,0,,,32,0
299120,note_on,0,0,1,,,,,,,,,0,,,35,0
299120,note_on,318,0,1,,,,,,,,,0,,,29,0
299159,note_on,119,0,0,,,,,,,,,0,,,89,0
299160,note_on,1,0,0,,,,,,,,,0,,,89,126
299273,note_on,113,0,0,,,,,,,,,0,,,89,0
299280,note_on,0,0,0,,,,,,,,,0,,,101,126
299280,note_on,0,0,1,,,,,,,,,0,,,59,126
299280,note_on,0,0,1,,,,,,,,,0,,,65,126
299280,note_on,160,0,1,,,,,,,,,0,,,56,126
299280,note_on,7,0,0,,,,,,,,,0,,,92,126
299280,note_on,0,0,0,,,,,,,,,0,,,95,126
299280,note_on,0,0,1,,,,,,,,,0,,,62,126
299358,note_on,0,0,1,,,,,,,,,0,,,62,0
299358,note_on,0,0,1,,,,,,,,,0,,,59,0
299358,note_on,0,0,0,,,,,,,,,0,,,101,0
299358,note_on,0,0,0,,,,,,,,,0,,,95,0
299358,note_on,78,0,0,,,,,,,,,0,,,92,0
299358,note_on,0,0,1,,,,,,,,,0,,,65,0
299358,note_on,78,0,1,,,,,,,,,0,,,56,0
299520,note_on,0,0,0,,,,,,,,,0,,,96,126
299520,note_on,0,0,0,,,,,,,,,0,,,100,126
299520,note_on,0,0,1,,,,,,,,,0,,,48,126
299520,note_on,162,0,0,,,,,,,,,0,,,91,126
299520,note_on,162,0,1,,,,,,,,,0,,,36,126
299521,control_change,1,0,1,,,,,,,64,0,0,,,,
299522,control_change,1,0,1,,,,,,,64,127,0,,,,
299598,note_on,0,0,0,,,,,,,,,0,,,100,0
299598,note_on,76,0,1,,,,,,,,,0,,,36,0
299598,note_on,78,0,0,,,,,,,,,0,,,91,0
299598,note_on,0,0,1,,,,,,,,,0,,,48,0
299598,note_on,0,0,0,,,,,,,,,0,,,96,0
299760,set_tempo,162,1,0,,,,,,375000,,,,,,,
299760,note_on,0,0,0,,,,,,,,,0,,,97,126
299760,note_on,0,0,0,,,,,,,,,0,,,94,126
299760,note_on,0,0,0,,,,,,,,,0,,,89,126
299760,note_on,162,0,1,,,,,,,,,0,,,31,126
299760,note_on,0,0,1,,,,,,,,,0,,,43,126
299838,note_on,78,0,1,,,,,,,,,0,,,31,0
299838,note_on,78,0,0,,,,,,,,,0,,,89,0
299838,note_on,0,0,0,,,,,,,,,0,,,94,0
299838,note_on,0,0,0,,,,,,,,,0,,,97,0
299838,note_on,0,0,1,,,,,,,,,0,,,43,0
300000,note_on,0,0,1,,,,,,,,,0,,,48,126
300000,note_on,162,0,1,,,,,,,,,0,,,36,126
300000,note_on,0,0,0,,,,,,,,,0,,,88,126
300000,note_on,0,0,0,,,,,,,,,0,,,91,126
300000,note_on,0,0,0,,,,,,,,,0,,,96,126
300000,set_tempo,162,1,0,,,,,,352941,,,,,,,
300078,note_on,78,0,0,,,,,,,,,0,,,88,0
300078,note_on,78,0,1,,,,,,,,,0,,,36,0
300078,note_on,0,0,1,,,,,,,,,0,,,48,0
300078,note_on,0,0,0,,,,,,,,,0,,,91,0
300078,note_on,0,0,0,,,,,,,,,0,,,96,0
300240,note_on,162,0,1,,,,,,,,,0,,,31,126
300240,note_on,0,0,0,,,,,,,,,0,,,94,126
300240,note_on,0,0,0,,,,,,,,,0,,,89,126
300240,note_on,0,0,1,,,,,,,,,0,,,43,126
300240,note_on,162,0,0,,,,,,,,,0,,,85,126
300318,note_on,0,0,0,,,,,,,,,0,,,89,0
300318,note_on,0,0,0,,,,,,,,,0,,,94,0
300318,note_on,0,0,1,,,,,,,,,0,,,43,0
300318,note_on,78,0,1,,,,,,,,,0,,,31,0
300318,note_on,78,0,0,,,,,,,,,0,,,85,0
300480,note_on,0,0,0,,,,,,,,,0,,,84,126
300480,note_on,0,0,0,,,,,,,,,0,,,88,126
300480,note_on,0,0,0,,,,,,,,,0,,,91,126
300480,note_on,0,0,1,,,,,,,,,0,,,48,126
300480,set_tempo,162,1,0,,,,,,333333,,,,,,,
300480,note_on,162,0,1,,,,,,,,,0,,,36,126
300558,note_on,78,0,0,,,,,,,,,0,,,84,0
300558,note_on,0,0,0,,,,,,,,,0,,,88,0
300558,note_on,0,0,0,,,,,,,,,0,,,91,0
300558,note_on,0,0,1,,,,,,,,,0,,,48,0
300558,note_on,78,0,1,,,,,,,,,0,,,36,0
300720,note_on,0,0,0,,,,,,,,,0,,,89,126
300720,note_on,0,0,1,,,,,,,,,0,,,41,126
300720,note_on,0,0,0,,,,,,,,,0,,,83,126
300720,note_on,0,0,0,,,,,,,,,0,,,86,126
300720,note_on,162,0,0,,,,,,,,,0,,,80,126
300720,note_on,162,0,1,,,,,,,,,0,,,29,126
300798,note_on,0,0,1,,,,,,,,,0,,,41,0
300798,note_on,78,0,0,,,,,,,,,0,,,80,0
300798,note_on,0,0,0,,,,,,,,,0,,,83,0
300798,note_on,0,0,0,,,,,,,,,0,,,86,0
300798,note_on,0,0,0,,,,,,,,,0,,,89,0
300798,note_on,78,0,1,,,,,,,,,0,,,29,0
300960,note_on,0,0,0,,,,,,,,,0,,,88,126
300960,note_on,162,0,1,,,,,,,,,0,,,36,126
300960,set_tempo,162,1,0,,,,,,315789,,,,,,,
300960,note_on,0,0,0,,,,,,,,,0,,,84,126
300960,note_on,0,0,0,,,,,,,,,0,,,79,126
300960,note_on,0,0,1,,,,,,,,,0,,,48,126
300961,control_change,1,0,1,,,,,,,64,0,0,,,,
300962,control_change,1,0,1,,,,,,,64,127,0,,,,
301038,note_on,76,0,1,,,,,,,,,0,,,36,0
301038,note_on,0,0,1,,,,,,,,,0,,,48,0
301038,note_on,78,0,0,,,,,,,,,0,,,79,0
301038,note_on,0,0,0,,,,,,,,,0,,,88,0
301038,note_on,0,0,0,,,,,,,,,0,,,84,0
301200,note_on,162,0,0,,,,,,,,,0,,,77,126
301200,note_on,162,0,1,,,,,,,,,0,,,31,126
301200,note_on,0,0,0,,,,,,,,,0,,,85,126
301200,note_on,0,0,0,,,,,,,,,0,,,82,126
301200,note_on,0,0,1,,,,,,,,,0,,,43,126
301278,note_on,78,0,0,,,,,,,,,0,,,77,0
301278,note_on,78,0,1,,,,,,,,,0,,,31,0
301278,note_on,0,0,0,,,,,,,,,0,,,82,0
301278,note_on,0,0,0,,,,,,,,,0,,,85,0
301278,note_on,0,0,1,,,,,,,,,0,,,43,0
301440,note_on,162,0,1,,,,,,,,,0,,,36,126
301440,note_on,0,0,0,,,,,,,,,0,,,84,126
301440,note_on,162,0,0,,,,,,,,,0,,,76,126
301440,note_on,0,0,1,,,,,,,,,0,,,48,126
301440,note_on,0,0,0,,,,,,,,,0,,,79,126
301518,note_on,0,0,0,,,,,,,,,0,,,84,0
301518,note_on,0,0,0,,,,,,,,,0,,,79,0
301518,note_on,78,0,1,,,,,,,,,0,,,36,0
301518,note_on,0,0,1,,,,,,,,,0,,,48,0
301518,note_on,78,0,0,,,,,,,,,0,,,76,0
301680,note_on,0,0,1,,,,,,,,,0,,,43,126
301680,note_on,0,0,0,,,,,,,,,0,,,82,126
301680,note_on,0,0,0,,,,,,,,,0,,,77,126
301680,note_on,162,0,0,,,,,,,,,0,,,73,126
301680,note_on,162,0,1,,,,,,,,,0,,,31,126
301758,note_on,0,0,0,,,,,,,,,0,,,82,0
301758,note_on,78,0,0,,,,,,,,,0,,,73,0
301758,note_on,0,0,0,,,,,,,,,0,,,77,0
301758,note_on,0,0,1,,,,,,,,,0,,,43,0
301758,note_on,78,0,1,,,,,,,,,0,,,31,0
301920,note_on,0,0,0,,,,,,,,,0,,,76,126
301920,note_on,0,0,1,,,,,,,,,0,,,48,126
301920,note_on,162,0,1,,,,,,,,,0,,,36,126
301920,note_on,0,0,0,,,,,,,,,0,,,79,126
301920,note_on,162,0,0,,,,,,,,,0,,,72,126
301998,note_on,0,0,0,,,,,,,,,0,,,76,0
301998,note_on,78,0,0,,,,,,,,,0,,,72,0
301998,note_on,78,0,1,,,,,,,,,0,,,36,0
301998,note_on,0,0,1,,,,,,,,,0,,,48,0
301998,note_on,0,0,0,,,,,,,,,0,,,79,0
302160,note_on,0,0,0,,,,,,,,,0,,,71,126
302160,note_on,0,0,1,,,,,,,,,0,,,41,126
302160,note_on,0,0,0,,,,,,,,,0,,,74,126
302160,note_on,0,0,0,,,,,,,,,0,,,77,126
302160,note_on,162,0,1,,,,,,,,,0,,,29,126
302160,note_on,162,0,0,,,,,,,,,0,,,68,126
302238,note_on,78,0,1,,,,,,,,,0,,,29,0
302238,note_on,0,0,0,,,,,,,,,0,,,71,0
302238,note_on,0,0,0,,,,,,,,,0,,,74,0
302238,note_on,0,0,0,,,,,,,,,0,,,77,0
302238,note_on,78,0,0,,,,,,,,,0,,,68,0
302238,note_on,0,0,1,,,,,,,,,0,,,41,0
302400,note_on,0,0,0,,,,,,,,,0,,,67,126
302400,note_on,0,0,0,,,,,,,,,0,,,72,126
302400,note_on,0,0,0,,,,,,,,,0,,,76,126
302400,set_tempo,162,1,0,,,,,,300000,,,,,,,
302400,note_on,0,0,1,,,,,,,,,0,,,48,126
302400,note_on,162,0,1,,,,,,,,,0,,,36,126
302401,control_change,1,0,1,,,,,,,64,0,0,,,,
302402,control_change,1,0,1,,,,,,,64,127,0,,,,
302478,note_on,78,0,0,,,,,,,,,0,,,67,0
302478,note_on,76,0,1,,,,,,,,,0,,,36,0
302478,note_on,0,0,0,,,,,,,,,0,,,72,0
302478,note_on,0,0,0,,,,,,,,,0,,,76,0
302478,note_on,0,0,1,,,,,,,,,0,,,48,0
302640,note_on,162,0,0,,,,,,,,,0,,,65,126
302640,note_on,162,0,1,,,,,,,,,0,,,31,126
302640,note_on,0,0,0,,,,,,,,,0,,,70,126
302640,note_on,0,0,0,,,,,,,,,0,,,73,126
302640,note_on,0,0,1,,,,,,,,,0,,,43,126
302718,note_on,0,0,0,,,,,,,,,0,,,70,0
302718,note_on,0,0,0,,,,,,,,,0,,,73,0
302718,note_on,78,0,0,,,,,,,,,0,,,65,0
302718,note_on,0,0,1,,,,,,,,,0,,,43,0
302718,note_on,78,0,1,,,,,,,,,0,,,31,0
302880,note_on,0,0,1,,,,,,,,,0,,,48,126
302880,note_on,0,0,0,,,,,,,,,0,,,67,126
302880,note_on,0,0,0,,,,,,,,,0,,,72,126
302880,note_on,162,0,1,,,,,,,,,0,,,36,126
302880,note_on,162,0,0,,,,,,,,,0,,,64,126
302958,note_on,78,0,1,,,,,,,,,0,,,36,0
302958,note_on,0,0,1,,,,,,,,,0,,,48,0
302958,note_on,78,0,0,,,,,,,,,0,,,64,0
302958,note_on,0,0,0,,,,,,,,,0,,,67,0
302958,note_on,0,0,0,,,,,,,,,0,,,72,0
303120,note_on,0,0,1,,,,,,,,,0,,,43,126
303120,note_on,162,0,0,,,,,,,,,0,,,61,126
303120,note_on,0,0,0,,,,,,,,,0,,,70,126
303120,note_on,0,0,0,,,,,,,,,0,,,65,126
303120,note_on,162,0,1,,,,,,,,,0,,,31,126
303198,note_on,0,0,0,,,,,,,,,0,,,70,0
303198,note_on,0,0,0,,,,,,,,,0,,,65,0
303198,note_on,0,0,1,,,,,,,,,0,,,43,0
303198,note_on,78,0,1,,,,,,,,,0,,,31,0
303198,note_on,78,0,0,,,,,,,,,0,,,61,0
303360,note_on,0,0,1,,,,,,,,,0,,,48,126
303360,note_on,162,0,1,,,,,,,,,0,,,36,126
303360,note_on,0,0,0,,,,,,,,,0,,,64,126
303360,note_on,0,0,0,,,,,,,,,0,,,67,126
303360,note_on,162,0,0,,,,,,,,,0,,,60,126
303438,note_on,0,0,0,,,,,,,,,0,,,67,0
303438,note_on,0,0,1,,,,,,,,,0,,,48,0
303438,note_on,0,0,0,,,,,,,,,0,,,64,0
303438,note_on,78,0,1,,,,,,,,,0,,,36,0
303438,note_on,78,0,0,,,,,,,,,0,,,60,0
303600,note_on,162,0,0,,,,,,,,,0,,,56,126
303600,note_on,162,0,1,,,,,,,,,0,,,29,126
303600,note_on,0,0,0,,,,,,,,,0,,,59,126
303600,note_on,0,0,0,,,,,,,,,0,,,62,126
303600,note_on,0,0,0,,,,,,,,,0,,,65,126
303600,note_on,0,0,1,,,,,,,,,0,,,41,126
303678,note_on,78,0,1,,,,,,,,,0,,,29,0
303678,note_on,78,0,0,,,,,,,,,0,,,56,0
303678,note_on,0,0,0,,,,,,,,,0,,,62,0
303678,note_on,0,0,0,,,,,,,,,0,,,65,0
303678,note_on,0,0,1,,,,,,,,,0,,,41,0
303678,note_on,0,0,0,,,,,,,,,0,,,59,0
303840,note_on,162,0,1,,,,,,,,,0,,,36,126
303840,note_on,0,0,0,,,,,,,,,0,,,55,126
303840,note_on,0,0,0,,,,,,,,,0,,,60,126
303840,note_on,0,0,0,,,,,,,,,0,,,64,126
303840,note_on,0,0,1,,,,,,,,,0,,,48,126
303840,set_tempo,162,1,0,,,,,,315789,,,,,,,
303841,control_change,1,0,1,,,,,,,64,0,0,,,,
303842,control_change,1,0,1,,,,,,,64,127,0,,,,
303918,note_on,0,0,1,,,,,,,,,0,,,48,0
303918,note_on,76,0,1,,,,,,,,,0,,,36,0
303918,note_on,0,0,0,,,,,,,,,0,,,60,0
303918,note_on,0,0,0,,,,,,,,,0,,,64,0
303918,note_on,78,0,0,,,,,,,,,0,,,55,0
304080,set_tempo,162,1,0,,,,,,333333,,,,,,,
304080,note_on,0,0,0,,,,,,,,,0,,,61,126
304080,note_on,162,0,1,,,,,,,,,0,,,31,126
304080,note_on,0,0,1,,,,,,,,,0,,,43,126
304080,note_on,0,0,0,,,,,,,,,0,,,58,126
304080,note_on,0,0,0,,,,,,,,,0,,,53,126
304158,note_on,0,0,0,,,,,,,,,0,,,58,0
304158,note_on,0,0,0,,,,,,,,,0,,,61,0
304158,note_on,0,0,1,,,,,,,,,0,,,43,0
304158,note_on,78,0,1,,,,,,,,,0,,,31,0
304158,note_on,78,0,0,,,,,,,,,0,,,53,0
304320,set_tempo,162,1,0,,,,,,352941,,,,,,,
304320,note_on,0,0,0,,,,,,,,,0,,,52,126
304320,note_on,0,0,0,,,,,,,,,0,,,55,126
304320,note_on,0,0,0,,,,,,,,,0,,,60,126
304320,note_on,162,0,1,,,,,,,,,0,,,36,126
304320,note_on,0,0,1,,,,,,,,,0,,,48,126
304398,note_on,0,0,0,,,,,,,,,0,,,55,0
304398,note_on,0,0,0,,,,,,,,,0,,,60,0
304398,note_on,78,0,0,,,,,,,,,0,,,52,0
304398,note_on,0,0,1,,,,,,,,,0,,,48,0
304398,note_on,78,0,1,,,,,,,,,0,,,36,0
304560,note_on,0,0,0,,,,,,,,,0,,,49,126
304560,note_on,0,0,0,,,,,,,,,0,,,53,126
304560,note_on,0,0,0,,,,,,,,,0,,,58,126
304560,note_on,0,0,1,,,,,,,,,0,,,43,126
304560,set_tempo,162,1,0,,,,,,375000,,,,,,,
304560,note_on,162,0,1,,,,,,,,,0,,,31,126
304561,control_change,1,0,1,,,,,,,64,0,0,,,,
304562,control_change,1,0,1,,,,,,,64,127,0,,,,
304638,note_on,0,0,0,,,,,,,,,0,,,53,0
304638,note_on,78,0,0,,,,,,,,,0,,,49,0
304638,note_on,0,0,1,,,,,,,,,0,,,43,0
304638,note_on,76,0,1,,,,,,,,,0,,,31,0
304638,note_on,0,0,0,,,,,,,,,0,,,58,0
304800,note_on,0,0,1,,,,,,,,,0,,,48,126
304800,note_on,162,0,1,,,,,,,,,0,,,36,126
304800,note_on,0,0,0,,,,,,,,,0,,,55,126
304800,set_tempo,162,1,0,,,,,,428571,,,,,,,
304800,note_on,0,0,0,,,,,,,,,0,,,52,126
304878,note_on,0,0,0,,,,,,,,,0,,,55,0
304878,note_on,0,0,1,,,,,,,,,0,,,48,0
304878,note_on,78,0,1,,,,,,,,,0,,,36,0
304878,note_on,78,0,0,,,,,,,,,0,,,52,0
305040,note_on,162,0,1,,,,,,,,,0,,,29,127
305040,note_on,0,0,1,,,,,,,,,0,,,41,127
305040,note_on,162,0,0,,,,,,,,,0,,,44,127
305040,note_on,0,0,1,,,,,,,,,0,,,35,127
305040,note_on,0,0,0,,,,,,,,,0,,,53,127
305040,note_on,0,0,0,,,,,,,,,0,,,47,127
305040,note_on,0,0,1,,,,,,,,,0,,,38,127
305041,control_change,1,0,1,,,,,,,64,0,0,,,,
305042,control_change,1,0,1,,,,,,,64,127,0,,,,
305199,note_on,159,0,0,,,,,,,,,0,,,44,0
305199,note_on,0,0,0,,,,,,,,,0,,,47,0
305199,note_on,0,0,0,,,,,,,,,0,,,53,0
305199,note_on,0,0,1,,,,,,,,,0,,,35,0
305199,note_on,0,0,1,,,,,,,,,0,,,38,0
305199,note_on,157,0,1,,,,,,,,,0,,,29,0
305199,note_on,0,0,1,,,,,,,,,0,,,41,0
305760,set_tempo,561,1,0,,,,,,500000,,,,,,,
305760,note_on,0,0,0,,,,,,,,,0,,,44,127
305760,note_on,0,0,0,,,,,,,,,0,,,47,127
305760,note_on,0,0,0,,,,,,,,,0,,,50,127
305760,note_on,0,0,1,,,,,,,,,0,,,35,127
305760,note_on,0,0,1,,,,,,,,,0,,,38,127
305760,note_on,0,0,1,,,,,,,,,0,,,41,127
305760,note_on,561,0,1,,,,,,,,,0,,,29,127
305761,control_change,1,0,1,,,,,,,64,0,0,,,,
305762,control_change,1,0,1,,,,,,,64,127,0,,,,
305919,note_on,159,0,0,,,,,,,,,0,,,44,0
305919,note_on,157,0,1,,,,,,,,,0,,,29,0
305919,note_on,0,0,1,,,,,,,,,0,,,41,0
305919,note_on,0,0,0,,,,,,,,,0,,,50,0
305919,note_on,0,0,0,,,,,,,,,0,,,47,0
305919,note_on,0,0,1,,,,,,,,,0,,,35,0
305919,note_on,0,0,1,,,,,,,,,0,,,38,0
306480,note_on,561,0,1,,,,,,,,,0,,,29,126
306480,note_on,0,0,1,,,,,,,,,0,,,35,126
306480,note_on,0,0,0,,,,,,,,,0,,,47,126
306480,note_on,0,0,1,,,,,,,,,0,,,41,126
306480,note_on,561,0,0,,,,,,,,,0,,,44,126
306480,note_on,0,0,1,,,,,,,,,0,,,38,126
306481,control_change,1,0,1,,,,,,,64,0,0,,,,
306482,control_change,1,0,1,,,,,,,64,127,0,,,,
306707,note_on,227,0,0,,,,,,,,,0,,,44,0
306707,note_on,0,0,1,,,,,,,,,0,,,35,0
306707,note_on,225,0,1,,,,,,,,,0,,,29,0
306707,note_on,0,0,1,,,,,,,,,0,,,41,0
306707,note_on,0,0,1,,,,,,,,,0,,,38,0
306707,note_on,0,0,0,,,,,,,,,0,,,47,0
306720,note_on,0,0,0,,,,,,,,,0,,,47,127
306720,note_on,0,0,1,,,,,,,,,0,,,41,126
306720,note_on,0,0,1,,,,,,,,,0,,,38,126
306720,note_on,0,0,1,,,,,,,,,0,,,35,126
306720,note_on,0,0,0,,,,,,,,,0,,,44,127
306720,note_on,13,0,1,,,,,,,,,0,,,29,126
306720,set_tempo,13,1,0,,,,,,428571,,,,,,,
306720,note_on,0,0,0,,,,,,,,,0,,,56,127
306721,control_change,1,0,1,,,,,,,64,0,0,,,,
306722,control_change,1,0,1,,,,,,,64,127,0,,,,
306798,note_on,76,0,1,,,,,,,,,0,,,29,0
306798,note_on,0,0,1,,,,,,,,,0,,,41,0
306798,note_on,0,0,1,,,,,,,,,0,,,35,0
306798,note_on,0,0,1,,,,,,,,,0,,,38,0
306959,note_on,0,0,0,,,,,,,,,0,,,56,0
306959,note_on,239,0,0,,,,,,,,,0,,,44,0
306959,note_on,0,0,0,,,,,,,,,0,,,47,0
306960,note_on,162,0,1,,,,,,,,,0,,,29,126
306960,note_on,0,0,0,,,,,,,,,0,,,47,127
306960,set_tempo,1,1,0,,,,,,500000,,,,,,,
306960,note_on,0,0,1,,,,,,,,,0,,,35,126
306960,note_on,0,0,0,,,,,,,,,0,,,53,127
306960,note_on,0,0,1,,,,,,,,,0,,,38,126
306960,note_on,0,0,1,,,,,,,,,0,,,41,126
306960,note_on,0,0,0,,,,,,,,,0,,,44,127
306961,control_change,1,0,1,,,,,,,64,0,0,,,,
306962,control_change,1,0,1,,,,,,,64,127,0,,,,
307038,note_on,0,0,1,,,,,,,,,0,,,35,0
307038,note_on,0,0,1,,,,,,,,,0,,,38,0
307038,note_on,76,0,1,,,,,,,,,0,,,29,0
307038,note_on,0,0,1,,,,,,,,,0,,,41,0
307199,note_on,239,0,0,,,,,,,,,0,,,44,0
307199,note_on,0,0,0,,,,,,,,,0,,,53,0
307199,note_on,0,0,0,,,,,,,,,0,,,47,0
307440,set_tempo,241,1,0,,,,,,1000000,,,,,,,
307441,control_change,403,0,1,,,,,,,64,0,0,,,,
307679,set_tempo,239,1,0,,,,,,500000,,,,,,,
307680,note_on,0,0,0,,,,,,,,,0,,,44,126
307680,note_on,239,0,1,,,,,,,,,0,,,32,126
307680,set_tempo,1,1,0,,,,,,1200000,,,,,,,
307682,control_change,2,0,1,,,,,,,64,127,0,,,,
307718,note_on,36,0,1,,,,,,,,,0,,,32,0
307718,note_on,38,0,0,,,,,,,,,0,,,44,0
307800,set_tempo,82,1,0,,,,,,666667,,,,,,,
307800,note_on,82,0,1,,,,,,,,,0,,,31,126
307800,note_on,0,0,0,,,,,,,,,0,,,43,126
307801,control_change,1,0,1,,,,,,,64,0,0,,,,
307838,note_on,37,0,1,,,,,,,,,0,,,31,0
307838,note_on,38,0,0,,,,,,,,,0,,,43,0
307920,note_on,82,0,1,,,,,,,,,0,,,30,126
307920,note_on,0,0,0,,,,,,,,,0,,,42,126
307920,set_tempo,82,1,0,,,,,,600000,,,,,,,
307958,note_on,38,0,1,,,,,,,,,0,,,30,0
307958,note_on,38,0,0,,,,,,,,,0,,,42,0
308040,note_on,82,0,1,,,,,,,,,0,,,29,126
308040,set_tempo,82,1,0,,,,,,545455,,,,,,,
308040,note_on,0,0,0,,,,,,,,,0,,,41,126
308078,note_on,38,0,0,,,,,,,,,0,,,41,0
308078,note_on,38,0,1,,,,,,,,,0,,,29,0
308160,note_on,0,0,1,,,,,,,,,0,,,36,126
308160,note_on,82,0,1,,,,,,,,,0,,,24,126
308160,note_on,0,0,0,,,,,,,,,0,,,40,126
308160,note_on,0,0,0,,,,,,,,,0,,,43,126
308160,note_on,0,0,0,,,,,,,,,0,,,48,126
308160,set_tempo,82,1,0,,,,,,1285714,,,,,,,
308160,note_on,0,0,1,,,,,,,,,0,,,31,126
308160,note_on,0,0,1,,,,,,,,,0,,,28,126
309527,note_on,0,0,1,,,,,,,,,0,,,28,0
309527,note_on,0,0,1,,,,,,,,,0,,,31,0
309527,note_on,0,0,1,,,,,,,,,0,,,36,0
309527,note_on,0,0,0,,,,,,,,,0,,,43,0
309527,note_on,0,0,0,,,,,,,,,0,,,48,0
309527,note_on,1367,0,1,,,,,,,,,0,,,24,0
309527,note_on,1367,0,0,,,,,,,,,0,,,40,0
309528,end_of_track,1,1,1,,,,,,,,,,,,,
309599,set_tempo,72,1,0,,,,,,428571,,,,,,,
309600,end_of_track,1,1,0,,,,,,,,,,,,,
