tick,type,time,meta,track,numerator,denominator,clocks_per_click,notated_32nd_notes_per_beat,key,tempo,port,program,channel,control,value,note,velocity
0,control_change,0,0,1,,,,,,,,,0,7,127,,
0,midi_port,0,1,1,,,,,,,0,,,,,,
0,midi_port,0,1,2,,,,,,,0,,,,,,
0,midi_port,0,1,3,,,,,,,0,,,,,,
0,midi_port,0,1,4,,,,,,,0,,,,,,
0,note_on,0,0,3,,,,,,,,,2,,,36,88
0,note_on,0,0,3,,,,,,,,,2,,,48,88
0,track_name,0,1,3,,,,,,,,,,,,,
0,program_change,0,0,1,,,,,,,,0,0,,,,
0,program_change,0,0,2,,,,,,,,0,1,,,,
0,program_change,0,0,3,,,,,,,,0,2,,,,
0,program_change,0,0,4,,,,,,,,0,3,,,,
0,set_tempo,0,1,0,,,,,,625000,,,,,,,
0,text,0,1,0,,,,,,,,,,,,,
0,time_signature,0,1,0,4,4,24,8,,,,,,,,,
0,track_name,0,1,0,,,,,,,,,,,,,
0,track_name,0,1,1,,,,,,,,,,,,,
0,track_name,0,1,2,,,,,,,,,,,,,
0,key_signature,0,1,0,,,,,C,,,,,,,,
0,copyright,0,1,0,,,,,,,,,,,,,
0,track_name,0,1,4,,,,,,,,,,,,,
0,control_change,0,0,1,,,,,,,,,0,10,97,,
0,control_change,0,0,2,,,,,,,,,1,7,127,,
0,control_change,0,0,2,,,,,,,,,1,10,97,,
0,control_change,0,0,3,,,,,,,,,2,7,127,,
0,control_change,0,0,3,,,,,,,,,2,10,30,,
0,control_change,0,0,4,,,,,,,,,3,10,30,,
0,control_change,0,0,4,,,,,,,,,3,7,127,,
1,copyright,1,1,5,,,,,,,,,,,,,
1,end_of_track,0,1,5,,,,,,,,,,,,,
30,set_tempo,30,1,0,,,,,,454545,,,,,,,
120,note_on,120,0,1,,,,,,,,,0,,,60,62
240,note_on,120,0,1,,,,,,,,,0,,,60,0
240,note_on,0,0,1,,,,,,,,,0,,,72,62
360,note_on,0,0,1,,,,,,,,,0,,,70,75
360,note_on,120,0,1,,,,,,,,,0,,,72,0
480,note_on,0,0,1,,,,,,,,,0,,,67,75
480,note_on,120,0,1,,,,,,,,,0,,,70,0
600,note_on,0,0,1,,,,,,,,,0,,,64,75
600,note_on,120,0,1,,,,,,,,,0,,,67,0
720,note_on,0,0,1,,,,,,,,,0,,,60,62
720,note_on,120,0,1,,,,,,,,,0,,,64,0
840,note_on,0,0,1,,,,,,,,,0,,,58,62
840,note_on,120,0,1,,,,,,,,,0,,,60,0
960,note_on,120,0,1,,,,,,,,,0,,,58,0
960,note_on,960,0,2,,,,,,,,,1,,,55,62
1080,note_on,0,0,2,,,,,,,,,1,,,52,62
1080,note_on,120,0,2,,,,,,,,,1,,,55,0
1200,note_on,0,0,2,,,,,,,,,1,,,48,62
1200,note_on,120,0,2,,,,,,,,,1,,,52,0
1320,note_on,120,0,2,,,,,,,,,1,,,48,0
1320,note_on,0,0,2,,,,,,,,,1,,,46,62
1440,note_on,1440,0,3,,,,,,,,,2,,,48,0
1440,note_on,120,0,2,,,,,,,,,1,,,46,0
1440,note_on,0,0,3,,,,,,,,,2,,,36,0
1440,note_on,0,0,2,,,,,,,,,1,,,43,62
1560,note_on,120,0,2,,,,,,,,,1,,,43,0
1560,note_on,0,0,2,,,,,,,,,1,,,50,62
1680,note_on,0,0,2,,,,,,,,,1,,,48,62
1680,note_on,120,0,2,,,,,,,,,1,,,50,0
1680,note_on,240,0,3,,,,,,,,,2,,,40,75
1800,note_on,0,0,2,,,,,,,,,1,,,46,62
1800,note_on,120,0,2,,,,,,,,,1,,,48,0
1920,note_on,240,0,3,,,,,,,,,2,,,40,0
1920,note_on,120,0,2,,,,,,,,,1,,,46,0
1920,note_on,0,0,2,,,,,,,,,1,,,45,62
1920,note_on,0,0,3,,,,,,,,,2,,,41,75
1967,note_on,47,0,3,,,,,,,,,2,,,41,0
2040,note_on,0,0,2,,,,,,,,,1,,,52,62
2040,note_on,120,0,2,,,,,,,,,1,,,45,0
2160,note_on,193,0,3,,,,,,,,,2,,,42,75
2160,note_on,0,0,2,,,,,,,,,1,,,50,62
2160,note_on,120,0,2,,,,,,,,,1,,,52,0
2207,note_on,47,0,3,,,,,,,,,2,,,42,0
2280,note_on,120,0,2,,,,,,,,,1,,,50,0
2280,note_on,0,0,2,,,,,,,,,1,,,48,62
2400,note_on,0,0,2,,,,,,,,,1,,,47,62
2400,note_on,120,0,2,,,,,,,,,1,,,48,0
2400,note_on,193,0,3,,,,,,,,,2,,,43,75
2447,note_on,47,0,3,,,,,,,,,2,,,43,0
2520,note_on,0,0,2,,,,,,,,,1,,,53,62
2520,note_on,120,0,2,,,,,,,,,1,,,47,0
2640,note_on,0,0,2,,,,,,,,,1,,,52,62
2640,note_on,120,0,2,,,,,,,,,1,,,53,0
2640,note_on,193,0,3,,,,,,,,,2,,,44,75
2687,note_on,47,0,3,,,,,,,,,2,,,44,0
2760,note_on,0,0,2,,,,,,,,,1,,,50,62
2760,note_on,120,0,2,,,,,,,,,1,,,52,0
2880,note_on,120,0,2,,,,,,,,,1,,,50,0
2880,note_on,0,0,2,,,,,,,,,1,,,48,62
2880,note_on,193,0,3,,,,,,,,,2,,,45,75
3000,note_on,0,0,2,,,,,,,,,1,,,55,62
3000,note_on,120,0,2,,,,,,,,,1,,,48,0
3120,note_on,0,0,2,,,,,,,,,1,,,53,62
3120,note_on,120,0,2,,,,,,,,,1,,,55,0
3240,note_on,0,0,2,,,,,,,,,1,,,52,62
3240,note_on,120,0,2,,,,,,,,,1,,,53,0
3360,note_on,0,0,3,,,,,,,,,2,,,46,75
3360,note_on,480,0,3,,,,,,,,,2,,,45,0
3360,note_on,0,0,2,,,,,,,,,1,,,50,75
3360,note_on,120,0,2,,,,,,,,,1,,,52,0
3480,note_on,120,0,2,,,,,,,,,1,,,50,0
3480,note_on,0,0,2,,,,,,,,,1,,,57,75
3600,note_on,120,0,2,,,,,,,,,1,,,57,0
3600,note_on,0,0,2,,,,,,,,,1,,,55,75
3600,note_on,0,0,3,,,,,,,,,2,,,47,75
3600,note_on,240,0,3,,,,,,,,,2,,,46,0
3720,note_on,0,0,2,,,,,,,,,1,,,53,75
3720,note_on,120,0,2,,,,,,,,,1,,,55,0
3840,note_on,0,0,3,,,,,,,,,2,,,36,88
3840,note_on,0,0,3,,,,,,,,,2,,,48,88
3840,note_on,240,0,3,,,,,,,,,2,,,47,0
3840,note_on,2880,0,1,,,,,,,,,0,,,52,75
3840,note_on,120,0,2,,,,,,,,,1,,,53,0
3960,note_on,0,0,1,,,,,,,,,0,,,60,75
3960,note_on,120,0,1,,,,,,,,,0,,,52,0
4080,note_on,0,0,1,,,,,,,,,0,,,72,75
4080,note_on,120,0,1,,,,,,,,,0,,,60,0
4200,note_on,0,0,1,,,,,,,,,0,,,70,75
4200,note_on,120,0,1,,,,,,,,,0,,,72,0
4320,note_on,0,0,1,,,,,,,,,0,,,67,75
4320,note_on,120,0,1,,,,,,,,,0,,,70,0
4440,note_on,0,0,1,,,,,,,,,0,,,64,75
4440,note_on,120,0,1,,,,,,,,,0,,,67,0
4560,note_on,120,0,1,,,,,,,,,0,,,64,0
4560,note_on,0,0,1,,,,,,,,,0,,,60,75
4680,note_on,0,0,1,,,,,,,,,0,,,58,75
4680,note_on,120,0,1,,,,,,,,,0,,,60,0
4800,note_on,120,0,1,,,,,,,,,0,,,58,0
4800,note_on,960,0,2,,,,,,,,,1,,,55,75
4920,note_on,120,0,2,,,,,,,,,1,,,55,0
4920,note_on,0,0,2,,,,,,,,,1,,,52,75
5040,note_on,0,0,2,,,,,,,,,1,,,48,75
5040,note_on,120,0,2,,,,,,,,,1,,,52,0
5160,note_on,0,0,2,,,,,,,,,1,,,46,75
5160,note_on,120,0,2,,,,,,,,,1,,,48,0
5280,note_on,0,0,3,,,,,,,,,2,,,36,0
5280,note_on,1440,0,3,,,,,,,,,2,,,48,0
5280,note_on,120,0,2,,,,,,,,,1,,,46,0
5280,note_on,0,0,2,,,,,,,,,1,,,43,75
5400,note_on,120,0,2,,,,,,,,,1,,,43,0
5400,note_on,0,0,2,,,,,,,,,1,,,50,75
5520,note_on,0,0,2,,,,,,,,,1,,,48,75
5520,note_on,120,0,2,,,,,,,,,1,,,50,0
5520,note_on,240,0,3,,,,,,,,,2,,,40,75
5567,note_on,47,0,3,,,,,,,,,2,,,40,0
5640,note_on,0,0,2,,,,,,,,,1,,,46,75
5640,note_on,120,0,2,,,,,,,,,1,,,48,0
5760,note_on,0,0,2,,,,,,,,,1,,,45,75
5760,note_on,193,0,3,,,,,,,,,2,,,41,75
5760,note_on,120,0,2,,,,,,,,,1,,,46,0
5807,note_on,47,0,3,,,,,,,,,2,,,41,0
5880,note_on,0,0,2,,,,,,,,,1,,,52,75
5880,note_on,120,0,2,,,,,,,,,1,,,45,0
6000,note_on,0,0,2,,,,,,,,,1,,,50,75
6000,note_on,120,0,2,,,,,,,,,1,,,52,0
6000,note_on,193,0,3,,,,,,,,,2,,,42,75
6047,note_on,47,0,3,,,,,,,,,2,,,42,0
6120,note_on,0,0,2,,,,,,,,,1,,,48,75
6120,note_on,120,0,2,,,,,,,,,1,,,50,0
6240,note_on,120,0,2,,,,,,,,,1,,,48,0
6240,note_on,193,0,3,,,,,,,,,2,,,43,75
6240,note_on,0,0,2,,,,,,,,,1,,,47,75
6287,note_on,47,0,3,,,,,,,,,2,,,43,0
6360,note_on,120,0,2,,,,,,,,,1,,,47,0
6360,note_on,0,0,2,,,,,,,,,1,,,53,75
6480,note_on,120,0,2,,,,,,,,,1,,,53,0
6480,note_on,0,0,2,,,,,,,,,1,,,52,75
6480,note_on,193,0,3,,,,,,,,,2,,,44,75
6527,note_on,47,0,3,,,,,,,,,2,,,44,0
6600,note_on,120,0,2,,,,,,,,,1,,,52,0
6600,note_on,0,0,2,,,,,,,,,1,,,50,75
6720,note_on,193,0,3,,,,,,,,,2,,,45,75
6720,note_on,0,0,2,,,,,,,,,1,,,48,75
6720,note_on,120,0,2,,,,,,,,,1,,,50,0
6840,note_on,0,0,2,,,,,,,,,1,,,55,75
6840,note_on,120,0,2,,,,,,,,,1,,,48,0
6960,note_on,0,0,2,,,,,,,,,1,,,53,75
6960,note_on,120,0,2,,,,,,,,,1,,,55,0
7080,note_on,0,0,2,,,,,,,,,1,,,52,75
7080,note_on,120,0,2,,,,,,,,,1,,,53,0
7200,note_on,0,0,3,,,,,,,,,2,,,46,75
7200,note_on,0,0,2,,,,,,,,,1,,,50,75
7200,note_on,480,0,3,,,,,,,,,2,,,45,0
7200,note_on,120,0,2,,,,,,,,,1,,,52,0
7320,note_on,0,0,2,,,,,,,,,1,,,57,75
7320,note_on,120,0,2,,,,,,,,,1,,,50,0
7440,note_on,0,0,2,,,,,,,,,1,,,55,75
7440,note_on,240,0,3,,,,,,,,,2,,,46,0
7440,note_on,0,0,3,,,,,,,,,2,,,47,75
7440,note_on,120,0,2,,,,,,,,,1,,,57,0
7560,note_on,0,0,2,,,,,,,,,1,,,53,75
7560,note_on,120,0,2,,,,,,,,,1,,,55,0
7680,note_on,2880,0,1,,,,,,,,,0,,,52,75
7680,note_on,240,0,3,,,,,,,,,2,,,47,0
7680,note_on,0,0,3,,,,,,,,,2,,,48,75
7680,note_on,120,0,2,,,,,,,,,1,,,53,0
7800,note_on,120,0,1,,,,,,,,,0,,,52,0
7800,note_on,0,0,1,,,,,,,,,0,,,67,75
7920,note_on,120,0,1,,,,,,,,,0,,,67,0
7920,note_on,0,0,1,,,,,,,,,0,,,78,62
7920,note_on,240,0,3,,,,,,,,,2,,,48,0
8040,note_on,120,0,1,,,,,,,,,0,,,78,0
8040,note_on,0,0,1,,,,,,,,,0,,,79,62
8160,note_on,0,0,3,,,,,,,,,2,,,64,49
8160,note_on,0,0,3,,,,,,,,,2,,,60,49
8160,note_on,0,0,1,,,,,,,,,0,,,75,62
8160,note_on,240,0,3,,,,,,,,,2,,,55,49
8160,note_on,120,0,1,,,,,,,,,0,,,79,0
8280,note_on,120,0,1,,,,,,,,,0,,,75,0
8280,note_on,0,0,1,,,,,,,,,0,,,76,62
8400,note_on,240,0,3,,,,,,,,,2,,,64,0
8400,note_on,0,0,3,,,,,,,,,2,,,60,0
8400,note_on,0,0,3,,,,,,,,,2,,,55,0
8400,note_on,0,0,1,,,,,,,,,0,,,71,62
8400,note_on,120,0,1,,,,,,,,,0,,,76,0
8520,note_on,0,0,1,,,,,,,,,0,,,72,62
8520,note_on,120,0,1,,,,,,,,,0,,,71,0
8640,note_on,0,0,1,,,,,,,,,0,,,66,62
8640,note_on,240,0,3,,,,,,,,,2,,,48,49
8640,note_on,120,0,1,,,,,,,,,0,,,72,0
8760,note_on,0,0,1,,,,,,,,,0,,,67,62
8760,note_on,120,0,1,,,,,,,,,0,,,66,0
8880,note_on,120,0,1,,,,,,,,,0,,,67,0
8880,note_on,0,0,1,,,,,,,,,0,,,78,62
8880,note_on,240,0,3,,,,,,,,,2,,,48,0
9000,note_on,0,0,1,,,,,,,,,0,,,79,62
9000,note_on,120,0,1,,,,,,,,,0,,,78,0
9120,note_on,0,0,3,,,,,,,,,2,,,64,49
9120,note_on,120,0,1,,,,,,,,,0,,,79,0
9120,note_on,0,0,3,,,,,,,,,2,,,60,49
9120,note_on,0,0,1,,,,,,,,,0,,,75,62
9120,note_on,240,0,3,,,,,,,,,2,,,55,49
9240,note_on,0,0,1,,,,,,,,,0,,,76,62
9240,note_on,120,0,1,,,,,,,,,0,,,75,0
9360,note_on,0,0,3,,,,,,,,,2,,,55,0
9360,note_on,240,0,3,,,,,,,,,2,,,64,0
9360,note_on,0,0,3,,,,,,,,,2,,,60,0
9360,note_on,0,0,1,,,,,,,,,0,,,71,62
9360,note_on,120,0,1,,,,,,,,,0,,,76,0
9480,note_on,120,0,1,,,,,,,,,0,,,71,0
9480,note_on,0,0,1,,,,,,,,,0,,,72,62
9600,note_on,1920,0,2,,,,,,,,,1,,,49,62
9600,note_on,9600,0,4,,,,,,,,,3,,,55,49
9600,note_on,240,0,3,,,,,,,,,2,,,62,49
9600,note_on,0,0,3,,,,,,,,,2,,,65,49
9600,note_on,120,0,1,,,,,,,,,0,,,72,0
9720,note_on,0,0,2,,,,,,,,,1,,,50,62
9720,note_on,120,0,2,,,,,,,,,1,,,49,0
9840,note_on,0,0,2,,,,,,,,,1,,,53,62
9840,note_on,240,0,1,,,,,,,,,0,,,77,75
9840,note_on,240,0,4,,,,,,,,,3,,,55,0
9840,note_on,0,0,4,,,,,,,,,3,,,56,49
9840,note_on,120,0,2,,,,,,,,,1,,,50,0
9960,note_on,0,0,2,,,,,,,,,1,,,52,62
9960,note_on,120,0,2,,,,,,,,,1,,,53,0
10080,note_on,120,0,2,,,,,,,,,1,,,52,0
10080,note_on,0,0,2,,,,,,,,,1,,,49,62
10080,note_on,0,0,4,,,,,,,,,3,,,55,49
10080,note_on,240,0,1,,,,,,,,,0,,,77,0
10080,note_on,240,0,4,,,,,,,,,3,,,56,0
10200,note_on,0,0,2,,,,,,,,,1,,,50,62
10200,note_on,120,0,2,,,,,,,,,1,,,49,0
10320,note_on,120,0,2,,,,,,,,,1,,,50,0
10320,note_on,0,0,2,,,,,,,,,1,,,53,62
10320,note_on,240,0,4,,,,,,,,,3,,,55,0
10320,note_on,0,0,4,,,,,,,,,3,,,56,49
10320,note_on,240,0,1,,,,,,,,,0,,,77,75
10440,note_on,0,0,2,,,,,,,,,1,,,52,62
10440,note_on,120,0,2,,,,,,,,,1,,,53,0
10560,note_on,240,0,1,,,,,,,,,0,,,77,0
10560,note_on,120,0,2,,,,,,,,,1,,,52,0
10560,note_on,0,0,4,,,,,,,,,3,,,55,49
10560,note_on,240,0,4,,,,,,,,,3,,,56,0
10560,note_on,0,0,2,,,,,,,,,1,,,49,62
10680,note_on,0,0,2,,,,,,,,,1,,,50,62
10680,note_on,120,0,2,,,,,,,,,1,,,49,0
10800,note_on,0,0,3,,,,,,,,,2,,,62,0
10800,note_on,0,0,4,,,,,,,,,3,,,62,49
10800,note_on,0,0,4,,,,,,,,,3,,,59,49
10800,note_on,120,0,2,,,,,,,,,1,,,50,0
10800,note_on,0,0,3,,,,,,,,,2,,,67,49
10800,note_on,240,0,4,,,,,,,,,3,,,55,0
10800,note_on,0,0,2,,,,,,,,,1,,,53,62
10800,note_on,1200,0,3,,,,,,,,,2,,,65,0
10920,note_on,360,0,1,,,,,,,,,0,,,79,75
11040,note_on,120,0,1,,,,,,,,,0,,,79,0
11040,note_on,0,0,3,,,,,,,,,2,,,66,49
11040,note_on,0,0,1,,,,,,,,,0,,,78,75
11040,note_on,0,0,4,,,,,,,,,3,,,62,49
11040,note_on,240,0,3,,,,,,,,,2,,,67,0
11040,note_on,0,0,4,,,,,,,,,3,,,57,49
11040,note_on,240,0,4,,,,,,,,,3,,,62,0
11040,note_on,0,0,4,,,,,,,,,3,,,59,0
11160,note_on,0,0,2,,,,,,,,,1,,,52,62
11160,note_on,360,0,2,,,,,,,,,1,,,53,0
11280,note_on,0,0,3,,,,,,,,,2,,,67,49
11280,note_on,120,0,2,,,,,,,,,1,,,52,0
11280,note_on,0,0,4,,,,,,,,,3,,,57,0
11280,note_on,240,0,3,,,,,,,,,2,,,66,0
11280,note_on,0,0,4,,,,,,,,,3,,,62,49
11280,note_on,240,0,1,,,,,,,,,0,,,78,0
11280,note_on,0,0,2,,,,,,,,,1,,,50,62
11280,note_on,240,0,4,,,,,,,,,3,,,62,0
11280,note_on,0,0,4,,,,,,,,,3,,,59,49
11280,note_on,0,0,1,,,,,,,,,0,,,77,75
11400,note_on,120,0,2,,,,,,,,,1,,,50,0
11400,note_on,0,0,2,,,,,,,,,1,,,53,62
11520,note_on,0,0,1,,,,,,,,,0,,,76,75
11520,note_on,240,0,4,,,,,,,,,3,,,62,0
11520,note_on,120,0,2,,,,,,,,,1,,,53,0
11520,note_on,240,0,3,,,,,,,,,2,,,67,0
11520,note_on,240,0,1,,,,,,,,,0,,,77,0
11520,note_on,0,0,3,,,,,,,,,2,,,60,49
11520,note_on,0,0,3,,,,,,,,,2,,,64,49
11520,note_on,0,0,1,,,,,,,,,0,,,72,75
11520,note_on,0,0,4,,,,,,,,,3,,,59,0
11640,note_on,120,0,1,,,,,,,,,0,,,76,0
11640,note_on,0,0,1,,,,,,,,,0,,,72,0
11640,note_on,0,0,1,,,,,,,,,0,,,67,75
11760,note_on,0,0,1,,,,,,,,,0,,,78,75
11760,note_on,0,0,3,,,,,,,,,2,,,60,0
11760,note_on,120,0,1,,,,,,,,,0,,,67,0
11760,note_on,240,0,3,,,,,,,,,2,,,64,0
11880,note_on,0,0,1,,,,,,,,,0,,,79,75
11880,note_on,120,0,1,,,,,,,,,0,,,78,0
12000,note_on,0,0,3,,,,,,,,,2,,,60,49
12000,note_on,120,0,1,,,,,,,,,0,,,79,0
12000,note_on,240,0,3,,,,,,,,,2,,,55,49
12000,note_on,0,0,3,,,,,,,,,2,,,64,49
12000,note_on,0,0,1,,,,,,,,,0,,,75,75
12120,note_on,0,0,1,,,,,,,,,0,,,76,75
12120,note_on,120,0,1,,,,,,,,,0,,,75,0
12240,note_on,240,0,3,,,,,,,,,2,,,64,0
12240,note_on,0,0,3,,,,,,,,,2,,,60,0
12240,note_on,0,0,3,,,,,,,,,2,,,55,0
12240,note_on,120,0,1,,,,,,,,,0,,,76,0
12240,note_on,0,0,1,,,,,,,,,0,,,71,75
12360,note_on,120,0,1,,,,,,,,,0,,,71,0
12360,note_on,0,0,1,,,,,,,,,0,,,72,75
12480,note_on,0,0,1,,,,,,,,,0,,,66,75
12480,note_on,120,0,1,,,,,,,,,0,,,72,0
12480,note_on,240,0,3,,,,,,,,,2,,,48,49
12600,note_on,0,0,1,,,,,,,,,0,,,67,75
12600,note_on,120,0,1,,,,,,,,,0,,,66,0
12720,note_on,0,0,1,,,,,,,,,0,,,78,75
12720,note_on,120,0,1,,,,,,,,,0,,,67,0
12720,note_on,240,0,3,,,,,,,,,2,,,48,0
12840,note_on,120,0,1,,,,,,,,,0,,,78,0
12840,note_on,0,0,1,,,,,,,,,0,,,79,75
12960,note_on,120,0,1,,,,,,,,,0,,,79,0
12960,note_on,240,0,3,,,,,,,,,2,,,55,49
12960,note_on,0,0,1,,,,,,,,,0,,,75,75
12960,note_on,0,0,3,,,,,,,,,2,,,60,49
12960,note_on,0,0,3,,,,,,,,,2,,,64,49
13080,note_on,120,0,1,,,,,,,,,0,,,75,0
13080,note_on,0,0,1,,,,,,,,,0,,,76,75
13200,note_on,120,0,1,,,,,,,,,0,,,76,0
13200,note_on,0,0,1,,,,,,,,,0,,,71,75
13200,note_on,0,0,3,,,,,,,,,2,,,55,0
13200,note_on,0,0,3,,,,,,,,,2,,,60,0
13200,note_on,240,0,3,,,,,,,,,2,,,64,0
13320,note_on,120,0,1,,,,,,,,,0,,,71,0
13320,note_on,0,0,1,,,,,,,,,0,,,72,75
13440,note_on,1920,0,4,,,,,,,,,3,,,55,49
13440,note_on,120,0,1,,,,,,,,,0,,,72,0
13440,note_on,240,0,3,,,,,,,,,2,,,62,49
13440,note_on,1920,0,2,,,,,,,,,1,,,49,62
13440,note_on,0,0,3,,,,,,,,,2,,,65,49
13560,note_on,120,0,2,,,,,,,,,1,,,49,0
13560,note_on,0,0,2,,,,,,,,,1,,,50,62
13680,note_on,120,0,2,,,,,,,,,1,,,50,0
13680,note_on,0,0,2,,,,,,,,,1,,,53,62
13680,note_on,240,0,4,,,,,,,,,3,,,55,0
13680,note_on,240,0,1,,,,,,,,,0,,,77,101
13680,note_on,0,0,4,,,,,,,,,3,,,56,49
13800,note_on,0,0,2,,,,,,,,,1,,,52,62
13800,note_on,120,0,2,,,,,,,,,1,,,53,0
13920,note_on,240,0,4,,,,,,,,,3,,,56,0
13920,note_on,240,0,1,,,,,,,,,0,,,77,0
13920,note_on,0,0,4,,,,,,,,,3,,,55,49
13920,note_on,120,0,2,,,,,,,,,1,,,52,0
13920,note_on,0,0,2,,,,,,,,,1,,,49,62
14040,note_on,120,0,2,,,,,,,,,1,,,49,0
14040,note_on,0,0,2,,,,,,,,,1,,,50,62
14160,note_on,240,0,4,,,,,,,,,3,,,55,0
14160,note_on,120,0,2,,,,,,,,,1,,,50,0
14160,note_on,0,0,2,,,,,,,,,1,,,53,62
14160,note_on,0,0,4,,,,,,,,,3,,,56,49
14160,note_on,240,0,1,,,,,,,,,0,,,77,101
14280,note_on,120,0,2,,,,,,,,,1,,,53,0
14280,note_on,0,0,2,,,,,,,,,1,,,52,62
14400,note_on,120,0,2,,,,,,,,,1,,,52,0
14400,note_on,240,0,1,,,,,,,,,0,,,77,0
14400,note_on,240,0,4,,,,,,,,,3,,,56,0
14400,note_on,0,0,2,,,,,,,,,1,,,49,62
14400,note_on,0,0,4,,,,,,,,,3,,,55,49
14520,note_on,120,0,2,,,,,,,,,1,,,49,0
14520,note_on,0,0,2,,,,,,,,,1,,,50,62
14640,note_on,240,0,4,,,,,,,,,3,,,55,0
14640,note_on,0,0,3,,,,,,,,,2,,,67,49
14640,note_on,0,0,4,,,,,,,,,3,,,59,49
14640,note_on,0,0,4,,,,,,,,,3,,,62,49
14640,note_on,120,0,2,,,,,,,,,1,,,50,0
14640,note_on,1200,0,3,,,,,,,,,2,,,65,0
14640,note_on,0,0,3,,,,,,,,,2,,,62,0
14640,note_on,0,0,2,,,,,,,,,1,,,53,62
14760,note_on,360,0,1,,,,,,,,,0,,,79,75
14880,note_on,0,0,1,,,,,,,,,0,,,78,75
14880,note_on,120,0,1,,,,,,,,,0,,,79,0
14880,note_on,0,0,3,,,,,,,,,2,,,66,49
14880,note_on,240,0,3,,,,,,,,,2,,,67,0
14880,note_on,0,0,4,,,,,,,,,3,,,57,49
14880,note_on,0,0,4,,,,,,,,,3,,,59,0
14880,note_on,240,0,4,,,,,,,,,3,,,62,0
14880,note_on,0,0,4,,,,,,,,,3,,,62,49
15000,note_on,0,0,2,,,,,,,,,1,,,52,62
15000,note_on,360,0,2,,,,,,,,,1,,,53,0
15120,note_on,0,0,4,,,,,,,,,3,,,57,0
15120,note_on,240,0,4,,,,,,,,,3,,,62,0
15120,note_on,0,0,3,,,,,,,,,2,,,67,49
15120,note_on,0,0,4,,,,,,,,,3,,,59,49
15120,note_on,120,0,2,,,,,,,,,1,,,52,0
15120,note_on,0,0,1,,,,,,,,,0,,,77,101
15120,note_on,240,0,1,,,,,,,,,0,,,78,0
15120,note_on,0,0,4,,,,,,,,,3,,,62,49
15120,note_on,240,0,3,,,,,,,,,2,,,66,0
15120,note_on,0,0,2,,,,,,,,,1,,,50,62
15240,note_on,0,0,2,,,,,,,,,1,,,53,62
15240,note_on,120,0,2,,,,,,,,,1,,,50,0
15360,note_on,0,0,1,,,,,,,,,0,,,72,75
15360,note_on,0,0,1,,,,,,,,,0,,,76,75
15360,note_on,240,0,3,,,,,,,,,2,,,67,0
15360,note_on,0,0,3,,,,,,,,,2,,,60,62
15360,note_on,0,0,3,,,,,,,,,2,,,64,62
15360,note_on,240,0,4,,,,,,,,,3,,,62,0
15360,note_on,0,0,4,,,,,,,,,3,,,59,0
15360,note_on,120,0,2,,,,,,,,,1,,,53,0
15360,note_on,240,0,1,,,,,,,,,0,,,77,0
15480,note_on,120,0,3,,,,,,,,,2,,,64,0
15480,note_on,0,0,3,,,,,,,,,2,,,48,62
15480,note_on,0,0,1,,,,,,,,,0,,,72,0
15480,note_on,0,0,1,,,,,,,,,0,,,64,75
15480,note_on,0,0,3,,,,,,,,,2,,,60,0
15480,note_on,120,0,1,,,,,,,,,0,,,76,0
15600,note_on,120,0,3,,,,,,,,,2,,,48,0
15600,note_on,0,0,1,,,,,,,,,0,,,75,75
15600,note_on,120,0,1,,,,,,,,,0,,,64,0
15600,note_on,0,0,3,,,,,,,,,2,,,59,62
15720,note_on,0,0,1,,,,,,,,,0,,,76,75
15720,note_on,120,0,3,,,,,,,,,2,,,59,0
15720,note_on,120,0,1,,,,,,,,,0,,,75,0
15720,note_on,0,0,3,,,,,,,,,2,,,60,62
15840,note_on,0,0,1,,,,,,,,,0,,,65,75
15840,note_on,120,0,3,,,,,,,,,2,,,60,0
15840,note_on,120,0,1,,,,,,,,,0,,,76,0
15840,note_on,0,0,3,,,,,,,,,2,,,50,62
15960,note_on,120,0,3,,,,,,,,,2,,,50,0
15960,note_on,120,0,1,,,,,,,,,0,,,65,0
15960,note_on,0,0,1,,,,,,,,,0,,,77,75
15960,note_on,0,0,3,,,,,,,,,2,,,62,62
16080,note_on,0,0,3,,,,,,,,,2,,,52,62
16080,note_on,120,0,1,,,,,,,,,0,,,77,0
16080,note_on,120,0,3,,,,,,,,,2,,,62,0
16080,note_on,0,0,1,,,,,,,,,0,,,67,75
16200,note_on,0,0,1,,,,,,,,,0,,,79,75
16200,note_on,0,0,3,,,,,,,,,2,,,64,62
16200,note_on,120,0,1,,,,,,,,,0,,,67,0
16200,note_on,120,0,3,,,,,,,,,2,,,52,0
16320,note_on,0,0,3,,,,,,,,,2,,,53,62
16320,note_on,120,0,1,,,,,,,,,0,,,79,0
16320,note_on,120,0,3,,,,,,,,,2,,,64,0
16320,note_on,0,0,1,,,,,,,,,0,,,69,75
16440,note_on,120,0,3,,,,,,,,,2,,,53,0
16440,note_on,0,0,1,,,,,,,,,0,,,81,75
16440,note_on,120,0,1,,,,,,,,,0,,,69,0
16440,note_on,0,0,3,,,,,,,,,2,,,65,62
16560,note_on,120,0,1,,,,,,,,,0,,,81,0
16560,note_on,0,0,3,,,,,,,,,2,,,55,62
16560,note_on,120,0,3,,,,,,,,,2,,,65,0
16560,note_on,0,0,1,,,,,,,,,0,,,71,75
16680,note_on,120,0,3,,,,,,,,,2,,,55,0
16680,note_on,120,0,1,,,,,,,,,0,,,71,0
16680,note_on,0,0,1,,,,,,,,,0,,,83,75
16680,note_on,0,0,3,,,,,,,,,2,,,67,62
16800,note_on,120,0,1,,,,,,,,,0,,,83,0
16800,note_on,0,0,3,,,,,,,,,2,,,57,62
16800,note_on,120,0,3,,,,,,,,,2,,,67,0
16800,note_on,0,0,1,,,,,,,,,0,,,72,75
16920,note_on,0,0,1,,,,,,,,,0,,,84,75
16920,note_on,120,0,3,,,,,,,,,2,,,57,0
16920,note_on,120,0,1,,,,,,,,,0,,,72,0
16920,note_on,0,0,3,,,,,,,,,2,,,69,62
17040,note_on,0,0,1,,,,,,,,,0,,,74,75
17040,note_on,120,0,3,,,,,,,,,2,,,69,0
17040,note_on,0,0,3,,,,,,,,,2,,,59,62
17040,note_on,120,0,1,,,,,,,,,0,,,84,0
17160,note_on,0,0,3,,,,,,,,,2,,,71,62
17160,note_on,120,0,1,,,,,,,,,0,,,74,0
17160,note_on,120,0,3,,,,,,,,,2,,,59,0
17160,note_on,0,0,1,,,,,,,,,0,,,86,75
17280,note_on,0,0,3,,,,,,,,,2,,,59,75
17280,note_on,120,0,3,,,,,,,,,2,,,71,0
17280,note_on,120,0,1,,,,,,,,,0,,,86,0
17280,note_on,0,0,1,,,,,,,,,0,,,75,88
17400,note_on,0,0,3,,,,,,,,,2,,,60,75
17400,note_on,0,0,1,,,,,,,,,0,,,76,88
17400,note_on,120,0,3,,,,,,,,,2,,,59,0
17400,note_on,120,0,1,,,,,,,,,0,,,75,0
17520,note_on,0,0,1,,,,,,,,,0,,,87,88
17520,note_on,120,0,3,,,,,,,,,2,,,60,0
17520,note_on,120,0,1,,,,,,,,,0,,,76,0
17520,note_on,0,0,3,,,,,,,,,2,,,71,75
17640,note_on,120,0,3,,,,,,,,,2,,,71,0
17640,note_on,120,0,1,,,,,,,,,0,,,87,0
17640,note_on,0,0,1,,,,,,,,,0,,,88,88
17640,note_on,0,0,3,,,,,,,,,2,,,72,75
17760,note_on,0,0,3,,,,,,,,,2,,,62,75
17760,note_on,120,0,1,,,,,,,,,0,,,88,0
17760,note_on,0,0,1,,,,,,,,,0,,,77,88
17760,note_on,120,0,3,,,,,,,,,2,,,72,0
17880,note_on,0,0,3,,,,,,,,,2,,,74,75
17880,note_on,120,0,1,,,,,,,,,0,,,77,0
17880,note_on,0,0,1,,,,,,,,,0,,,89,88
17880,note_on,120,0,3,,,,,,,,,2,,,62,0
18000,note_on,0,0,3,,,,,,,,,2,,,64,75
18000,note_on,120,0,1,,,,,,,,,0,,,89,0
18000,note_on,0,0,1,,,,,,,,,0,,,79,88
18000,note_on,120,0,3,,,,,,,,,2,,,74,0
18120,note_on,120,0,1,,,,,,,,,0,,,79,0
18120,note_on,0,0,1,,,,,,,,,0,,,91,88
18120,note_on,120,0,3,,,,,,,,,2,,,64,0
18120,note_on,0,0,3,,,,,,,,,2,,,76,75
18240,note_on,0,0,3,,,,,,,,,2,,,65,62
18240,note_on,0,0,1,,,,,,,,,0,,,81,75
18240,note_on,120,0,1,,,,,,,,,0,,,91,0
18240,note_on,120,0,3,,,,,,,,,2,,,76,0
18360,note_on,120,0,3,,,,,,,,,2,,,65,0
18360,note_on,0,0,3,,,,,,,,,2,,,77,62
18360,note_on,0,0,1,,,,,,,,,0,,,93,75
18360,note_on,120,0,1,,,,,,,,,0,,,81,0
18480,note_on,0,0,3,,,,,,,,,2,,,67,62
18480,note_on,120,0,3,,,,,,,,,2,,,77,0
18480,note_on,0,0,1,,,,,,,,,0,,,83,75
18480,note_on,120,0,1,,,,,,,,,0,,,93,0
18600,note_on,0,0,3,,,,,,,,,2,,,79,62
18600,note_on,0,0,1,,,,,,,,,0,,,95,75
18600,note_on,120,0,3,,,,,,,,,2,,,67,0
18600,note_on,120,0,1,,,,,,,,,0,,,83,0
18720,note_on,0,0,3,,,,,,,,,2,,,69,49
18720,note_on,120,0,1,,,,,,,,,0,,,95,0
18720,note_on,0,0,1,,,,,,,,,0,,,84,62
18720,note_on,120,0,3,,,,,,,,,2,,,79,0
18840,note_on,120,0,3,,,,,,,,,2,,,69,0
18840,note_on,0,0,3,,,,,,,,,2,,,81,49
18840,note_on,0,0,1,,,,,,,,,0,,,96,62
18840,note_on,120,0,1,,,,,,,,,0,,,84,0
18960,note_on,120,0,3,,,,,,,,,2,,,81,0
18960,note_on,0,0,1,,,,,,,,,0,,,86,62
18960,note_on,0,0,3,,,,,,,,,2,,,71,49
18960,note_on,120,0,1,,,,,,,,,0,,,96,0
19080,note_on,0,0,1,,,,,,,,,0,,,98,62
19080,note_on,120,0,3,,,,,,,,,2,,,71,0
19080,note_on,120,0,1,,,,,,,,,0,,,86,0
19080,note_on,0,0,3,,,,,,,,,2,,,83,49
19200,note_on,0,0,1,,,,,,,,,0,,,88,62
19200,note_on,0,0,3,,,,,,,,,2,,,72,49
19200,note_on,0,0,3,,,,,,,,,2,,,84,49
19200,note_on,120,0,3,,,,,,,,,2,,,83,0
19200,note_on,120,0,1,,,,,,,,,0,,,98,0
19320,note_on,120,0,1,,,,,,,,,0,,,88,0
19320,note_on,0,0,1,,,,,,,,,0,,,100,62
19440,control_change,0,0,3,,,,,,,,,2,64,127,,
19440,note_on,0,0,1,,,,,,,,,0,,,92,88
19440,note_on,0,0,3,,,,,,,,,2,,,83,101
19440,note_on,0,0,3,,,,,,,,,2,,,72,0
19440,note_on,120,0,1,,,,,,,,,0,,,100,0
19440,note_on,4080,0,4,,,,,,,,,3,,,76,101
19440,note_on,240,0,3,,,,,,,,,2,,,84,0
19560,note_on,0,0,1,,,,,,,,,0,,,100,62
19560,note_on,120,0,1,,,,,,,,,0,,,92,0
19680,note_on,0,0,1,,,,,,,,,0,,,93,62
19680,note_on,0,0,3,,,,,,,,,2,,,84,62
19680,note_on,240,0,3,,,,,,,,,2,,,83,0
19680,note_on,120,0,1,,,,,,,,,0,,,100,0
19800,note_on,0,0,1,,,,,,,,,0,,,100,62
19800,note_on,120,0,1,,,,,,,,,0,,,93,0
19920,note_on,0,0,3,,,,,,,,,2,,,85,62
19920,note_on,0,0,1,,,,,,,,,0,,,94,62
19920,note_on,120,0,1,,,,,,,,,0,,,100,0
19920,note_on,240,0,3,,,,,,,,,2,,,84,0
20040,note_on,120,0,1,,,,,,,,,0,,,94,0
20040,note_on,0,0,1,,,,,,,,,0,,,100,62
20160,note_on,0,0,3,,,,,,,,,2,,,86,62
20160,note_on,0,0,1,,,,,,,,,0,,,95,62
20160,note_on,240,0,3,,,,,,,,,2,,,85,0
20160,note_on,120,0,1,,,,,,,,,0,,,100,0
20280,note_on,0,0,1,,,,,,,,,0,,,100,62
20280,note_on,120,0,1,,,,,,,,,0,,,95,0
20400,note_on,240,0,3,,,,,,,,,2,,,86,0
20400,note_on,0,0,1,,,,,,,,,0,,,94,62
20400,note_on,0,0,3,,,,,,,,,2,,,85,62
20400,note_on,120,0,1,,,,,,,,,0,,,100,0
20520,note_on,0,0,1,,,,,,,,,0,,,100,62
20520,note_on,120,0,1,,,,,,,,,0,,,94,0
20640,note_on,240,0,3,,,,,,,,,2,,,85,0
20640,note_on,120,0,1,,,,,,,,,0,,,100,0
20640,note_on,0,0,3,,,,,,,,,2,,,86,62
20640,note_on,0,0,1,,,,,,,,,0,,,95,62
20760,note_on,120,0,1,,,,,,,,,0,,,95,0
20760,note_on,0,0,1,,,,,,,,,0,,,100,62
20880,note_on,0,0,1,,,,,,,,,0,,,92,62
20880,note_on,0,0,1,,,,,,,,,0,,,86,62
20880,note_on,120,0,1,,,,,,,,,0,,,100,0
20880,control_change,0,0,3,,,,,,,,,2,64,0,,
20880,note_on,240,0,3,,,,,,,,,2,,,86,0
20880,note_on,0,0,3,,,,,,,,,2,,,83,62
21000,note_on,0,0,1,,,,,,,,,0,,,86,0
21000,note_on,0,0,1,,,,,,,,,0,,,100,62
21000,note_on,120,0,1,,,,,,,,,0,,,92,0
21120,note_on,120,0,1,,,,,,,,,0,,,100,0
21120,note_on,1680,0,4,,,,,,,,,3,,,76,0
21120,note_on,0,0,3,,,,,,,,,2,,,84,88
21120,note_on,0,0,3,,,,,,,,,2,,,81,88
21120,note_on,240,0,3,,,,,,,,,2,,,83,0
21120,note_on,0,0,1,,,,,,,,,0,,,93,62
21360,note_on,0,0,3,,,,,,,,,2,,,81,0
21360,note_on,0,0,3,,,,,,,,,2,,,79,62
21360,note_on,0,0,1,,,,,,,,,0,,,88,88
21360,note_on,240,0,4,,,,,,,,,3,,,72,75
21360,note_on,240,0,1,,,,,,,,,0,,,93,0
21360,note_on,240,0,3,,,,,,,,,2,,,84,0
21360,control_change,0,0,3,,,,,,,,,2,64,127,,
21480,note_on,0,0,1,,,,,,,,,0,,,96,62
21480,note_on,120,0,1,,,,,,,,,0,,,88,0
21600,note_on,120,0,1,,,,,,,,,0,,,96,0
21600,note_on,0,0,3,,,,,,,,,2,,,80,62
21600,note_on,0,0,1,,,,,,,,,0,,,89,62
21600,note_on,240,0,3,,,,,,,,,2,,,79,0
21720,note_on,0,0,1,,,,,,,,,0,,,96,62
21720,note_on,120,0,1,,,,,,,,,0,,,89,0
21840,note_on,0,0,3,,,,,,,,,2,,,81,62
21840,note_on,240,0,3,,,,,,,,,2,,,80,0
21840,note_on,0,0,1,,,,,,,,,0,,,90,62
21840,note_on,120,0,1,,,,,,,,,0,,,96,0
21960,note_on,120,0,1,,,,,,,,,0,,,90,0
21960,note_on,0,0,1,,,,,,,,,0,,,96,62
22080,note_on,120,0,1,,,,,,,,,0,,,96,0
22080,note_on,0,0,1,,,,,,,,,0,,,91,62
22080,note_on,240,0,3,,,,,,,,,2,,,81,0
22080,note_on,0,0,3,,,,,,,,,2,,,82,62
22200,note_on,120,0,1,,,,,,,,,0,,,91,0
22200,note_on,0,0,1,,,,,,,,,0,,,96,62
22320,note_on,120,0,1,,,,,,,,,0,,,96,0
22320,note_on,0,0,3,,,,,,,,,2,,,81,62
22320,note_on,240,0,3,,,,,,,,,2,,,82,0
22320,note_on,0,0,1,,,,,,,,,0,,,90,62
22440,note_on,0,0,1,,,,,,,,,0,,,96,62
22440,note_on,120,0,1,,,,,,,,,0,,,90,0
22560,note_on,0,0,3,,,,,,,,,2,,,82,62
22560,note_on,240,0,3,,,,,,,,,2,,,81,0
22560,note_on,0,0,1,,,,,,,,,0,,,91,62
22560,note_on,120,0,1,,,,,,,,,0,,,96,0
22680,note_on,120,0,1,,,,,,,,,0,,,91,0
22680,note_on,0,0,1,,,,,,,,,0,,,96,62
22800,control_change,0,0,3,,,,,,,,,2,64,0,,
22800,note_on,120,0,1,,,,,,,,,0,,,96,0
22800,note_on,0,0,1,,,,,,,,,0,,,82,62
22800,note_on,0,0,1,,,,,,,,,0,,,88,62
22800,note_on,240,0,3,,,,,,,,,2,,,82,0
22800,note_on,0,0,3,,,,,,,,,2,,,79,62
22920,note_on,120,0,1,,,,,,,,,0,,,88,0
22920,note_on,0,0,1,,,,,,,,,0,,,96,62
22920,note_on,0,0,1,,,,,,,,,0,,,82,0
23040,note_on,0,0,3,,,,,,,,,2,,,77,75
23040,note_on,1680,0,4,,,,,,,,,3,,,72,0
23040,note_on,0,0,3,,,,,,,,,2,,,81,75
23040,note_on,120,0,1,,,,,,,,,0,,,96,0
23040,note_on,240,0,3,,,,,,,,,2,,,79,0
23040,note_on,0,0,1,,,,,,,,,0,,,89,88
23280,note_on,0,0,3,,,,,,,,,2,,,76,49
23280,note_on,240,0,4,,,,,,,,,3,,,69,49
23280,note_on,0,0,3,,,,,,,,,2,,,77,0
23280,note_on,0,0,1,,,,,,,,,0,,,85,62
23280,note_on,240,0,3,,,,,,,,,2,,,81,0
23280,note_on,240,0,1,,,,,,,,,0,,,89,0
23280,control_change,0,0,3,,,,,,,,,2,64,127,,
23400,note_on,120,0,1,,,,,,,,,0,,,85,0
23400,note_on,0,0,1,,,,,,,,,0,,,93,62
23520,note_on,0,0,3,,,,,,,,,2,,,77,49
23520,note_on,120,0,1,,,,,,,,,0,,,93,0
23520,note_on,0,0,1,,,,,,,,,0,,,86,62
23520,note_on,240,0,3,,,,,,,,,2,,,76,0
23640,note_on,0,0,1,,,,,,,,,0,,,93,62
23640,note_on,120,0,1,,,,,,,,,0,,,86,0
23760,note_on,240,0,3,,,,,,,,,2,,,77,0
23760,note_on,120,0,1,,,,,,,,,0,,,93,0
23760,note_on,0,0,1,,,,,,,,,0,,,87,62
23760,note_on,0,0,3,,,,,,,,,2,,,78,49
23880,note_on,0,0,1,,,,,,,,,0,,,93,62
23880,note_on,120,0,1,,,,,,,,,0,,,87,0
24000,note_on,0,0,1,,,,,,,,,0,,,88,62
24000,note_on,240,0,3,,,,,,,,,2,,,78,0
24000,note_on,120,0,1,,,,,,,,,0,,,93,0
24000,note_on,0,0,3,,,,,,,,,2,,,79,49
24120,note_on,0,0,1,,,,,,,,,0,,,93,62
24120,note_on,120,0,1,,,,,,,,,0,,,88,0
24240,note_on,240,0,3,,,,,,,,,2,,,79,0
24240,note_on,0,0,3,,,,,,,,,2,,,78,49
24240,note_on,120,0,1,,,,,,,,,0,,,93,0
24240,note_on,0,0,1,,,,,,,,,0,,,87,62
24360,note_on,0,0,1,,,,,,,,,0,,,93,62
24360,note_on,120,0,1,,,,,,,,,0,,,87,0
24480,note_on,120,0,1,,,,,,,,,0,,,93,0
24480,note_on,240,0,3,,,,,,,,,2,,,78,0
24480,note_on,0,0,3,,,,,,,,,2,,,79,49
24480,note_on,0,0,1,,,,,,,,,0,,,88,62
24600,note_on,120,0,1,,,,,,,,,0,,,88,0
24600,note_on,0,0,1,,,,,,,,,0,,,93,62
24720,note_on,120,0,1,,,,,,,,,0,,,93,0
24720,control_change,0,0,3,,,,,,,,,2,64,0,,
24720,note_on,0,0,1,,,,,,,,,0,,,79,62
24720,note_on,0,0,1,,,,,,,,,0,,,85,62
24720,note_on,0,0,3,,,,,,,,,2,,,76,49
24720,note_on,240,0,3,,,,,,,,,2,,,79,0
24840,note_on,0,0,1,,,,,,,,,0,,,79,0
24840,note_on,0,0,1,,,,,,,,,0,,,93,62
24840,note_on,120,0,1,,,,,,,,,0,,,85,0
24960,note_on,0,0,1,,,,,,,,,0,,,86,62
24960,note_on,0,0,3,,,,,,,,,2,,,74,49
24960,note_on,1680,0,4,,,,,,,,,3,,,69,0
24960,note_on,240,0,3,,,,,,,,,2,,,76,0
24960,note_on,120,0,1,,,,,,,,,0,,,93,0
24960,note_on,0,0,3,,,,,,,,,2,,,77,49
25080,note_on,120,0,1,,,,,,,,,0,,,86,0
25080,note_on,0,0,1,,,,,,,,,0,,,93,62
25200,note_on,120,0,1,,,,,,,,,0,,,93,0
25200,note_on,0,0,1,,,,,,,,,0,,,89,62
25320,note_on,120,0,1,,,,,,,,,0,,,89,0
25320,note_on,0,0,1,,,,,,,,,0,,,86,62
25440,note_on,480,0,3,,,,,,,,,2,,,77,0
25440,note_on,0,0,1,,,,,,,,,0,,,81,62
25440,note_on,0,0,3,,,,,,,,,2,,,74,0
25440,note_on,120,0,1,,,,,,,,,0,,,86,0
25560,note_on,120,0,1,,,,,,,,,0,,,81,0
25560,note_on,0,0,1,,,,,,,,,0,,,77,62
25680,note_on,120,0,1,,,,,,,,,0,,,77,0
25680,note_on,0,0,1,,,,,,,,,0,,,74,62
25800,note_on,0,0,1,,,,,,,,,0,,,68,62
25800,note_on,120,0,1,,,,,,,,,0,,,74,0
25920,note_on,0,0,3,,,,,,,,,2,,,65,49
25920,note_on,120,0,1,,,,,,,,,0,,,68,0
25920,note_on,480,0,3,,,,,,,,,2,,,62,49
25920,note_on,0,0,1,,,,,,,,,0,,,69,62
26040,note_on,0,0,1,,,,,,,,,0,,,77,62
26040,note_on,120,0,1,,,,,,,,,0,,,69,0
26160,note_on,120,0,1,,,,,,,,,0,,,77,0
26160,note_on,0,0,1,,,,,,,,,0,,,74,62
26160,note_on,240,0,3,,,,,,,,,2,,,65,0
26160,note_on,0,0,3,,,,,,,,,2,,,62,0
26280,note_on,120,0,1,,,,,,,,,0,,,74,0
26280,note_on,0,0,1,,,,,,,,,0,,,81,62
26400,note_on,240,0,3,,,,,,,,,2,,,60,49
26400,note_on,0,0,3,,,,,,,,,2,,,62,49
26400,note_on,0,0,1,,,,,,,,,0,,,68,62
26400,note_on,0,0,3,,,,,,,,,2,,,65,49
26400,note_on,120,0,1,,,,,,,,,0,,,81,0
26520,note_on,120,0,1,,,,,,,,,0,,,68,0
26520,note_on,0,0,1,,,,,,,,,0,,,77,62
26640,note_on,120,0,1,,,,,,,,,0,,,77,0
26640,note_on,0,0,1,,,,,,,,,0,,,74,62
26760,note_on,120,0,1,,,,,,,,,0,,,74,0
26760,note_on,0,0,1,,,,,,,,,0,,,80,62
26880,note_on,480,0,3,,,,,,,,,2,,,65,0
26880,note_on,120,0,1,,,,,,,,,0,,,80,0
26880,note_on,0,0,3,,,,,,,,,2,,,62,49
26880,note_on,0,0,3,,,,,,,,,2,,,62,0
26880,note_on,0,0,3,,,,,,,,,2,,,65,49
26880,note_on,0,0,3,,,,,,,,,2,,,59,49
26880,note_on,0,0,1,,,,,,,,,0,,,67,62
26880,note_on,0,0,3,,,,,,,,,2,,,60,0
27000,note_on,0,0,1,,,,,,,,,0,,,71,62
27000,note_on,120,0,1,,,,,,,,,0,,,67,0
27120,note_on,0,0,1,,,,,,,,,0,,,74,62
27120,note_on,120,0,1,,,,,,,,,0,,,71,0
27240,note_on,0,0,1,,,,,,,,,0,,,77,62
27240,note_on,120,0,1,,,,,,,,,0,,,74,0
27360,note_on,120,0,1,,,,,,,,,0,,,77,0
27360,note_on,0,0,3,,,,,,,,,2,,,59,0
27360,note_on,0,0,3,,,,,,,,,2,,,62,0
27360,note_on,0,0,1,,,,,,,,,0,,,79,62
27360,note_on,480,0,3,,,,,,,,,2,,,65,0
27480,note_on,0,0,1,,,,,,,,,0,,,83,62
27480,note_on,120,0,1,,,,,,,,,0,,,79,0
27600,note_on,0,0,1,,,,,,,,,0,,,86,62
27600,note_on,120,0,1,,,,,,,,,0,,,83,0
27720,note_on,120,0,1,,,,,,,,,0,,,86,0
27720,note_on,0,0,1,,,,,,,,,0,,,89,62
27840,note_on,0,0,1,,,,,,,,,0,,,91,62
27840,note_on,120,0,1,,,,,,,,,0,,,89,0
27960,note_on,0,0,1,,,,,,,,,0,,,95,62
27960,note_on,120,0,1,,,,,,,,,0,,,91,0
28080,note_on,0,0,1,,,,,,,,,0,,,98,62
28080,note_on,120,0,1,,,,,,,,,0,,,95,0
28200,note_on,120,0,1,,,,,,,,,0,,,98,0
28200,note_on,0,0,1,,,,,,,,,0,,,100,62
28320,note_on,3360,0,4,,,,,,,,,3,,,71,49
28320,note_on,960,0,3,,,,,,,,,2,,,71,49
28320,note_on,0,0,1,,,,,,,,,0,,,101,88
28320,note_on,120,0,1,,,,,,,,,0,,,100,0
28440,note_on,0,0,1,,,,,,,,,0,,,89,62
28440,note_on,120,0,1,,,,,,,,,0,,,101,0
28560,note_on,0,0,4,,,,,,,,,3,,,74,49
28560,note_on,0,0,4,,,,,,,,,3,,,77,49
28560,note_on,0,0,4,,,,,,,,,3,,,80,49
28560,note_on,0,0,1,,,,,,,,,0,,,92,62
28560,note_on,120,0,1,,,,,,,,,0,,,89,0
28560,note_on,240,0,4,,,,,,,,,3,,,71,0
28680,note_on,0,0,1,,,,,,,,,0,,,89,62
28680,note_on,120,0,1,,,,,,,,,0,,,92,0
28800,note_on,480,0,3,,,,,,,,,2,,,71,0
28800,note_on,120,0,1,,,,,,,,,0,,,89,0
28800,note_on,0,0,4,,,,,,,,,3,,,74,0
28800,note_on,0,0,4,,,,,,,,,3,,,72,62
28800,note_on,0,0,4,,,,,,,,,3,,,77,0
28800,note_on,0,0,3,,,,,,,,,2,,,72,62
28800,note_on,0,0,1,,,,,,,,,0,,,100,75
28800,note_on,240,0,4,,,,,,,,,3,,,80,0
28920,note_on,0,0,1,,,,,,,,,0,,,88,75
28920,note_on,120,0,1,,,,,,,,,0,,,100,0
29040,note_on,0,0,1,,,,,,,,,0,,,91,75
29040,note_on,0,0,4,,,,,,,,,3,,,76,62
29040,note_on,0,0,4,,,,,,,,,3,,,79,62
29040,note_on,120,0,1,,,,,,,,,0,,,88,0
29040,note_on,240,0,4,,,,,,,,,3,,,72,0
29160,note_on,0,0,1,,,,,,,,,0,,,88,75
29160,note_on,120,0,1,,,,,,,,,0,,,91,0
29280,note_on,0,0,1,,,,,,,,,0,,,98,101
29280,note_on,240,0,4,,,,,,,,,3,,,79,0
29280,note_on,0,0,4,,,,,,,,,3,,,76,0
29280,note_on,480,0,3,,,,,,,,,2,,,72,0
29280,note_on,0,0,4,,,,,,,,,3,,,68,62
29280,note_on,120,0,1,,,,,,,,,0,,,88,0
29280,note_on,0,0,3,,,,,,,,,2,,,68,62
29400,note_on,0,0,1,,,,,,,,,0,,,86,75
29400,note_on,120,0,1,,,,,,,,,0,,,98,0
29520,note_on,0,0,1,,,,,,,,,0,,,89,75
29520,note_on,240,0,4,,,,,,,,,3,,,68,0
29520,note_on,0,0,4,,,,,,,,,3,,,74,62
29520,note_on,120,0,1,,,,,,,,,0,,,86,0
29520,note_on,0,0,4,,,,,,,,,3,,,71,62
29520,note_on,0,0,4,,,,,,,,,3,,,77,62
29640,note_on,120,0,1,,,,,,,,,0,,,89,0
29640,note_on,0,0,1,,,,,,,,,0,,,86,75
29760,note_on,0,0,4,,,,,,,,,3,,,74,0
29760,note_on,120,0,1,,,,,,,,,0,,,86,0
29760,note_on,240,0,4,,,,,,,,,3,,,77,0
29760,note_on,480,0,3,,,,,,,,,2,,,68,0
29760,note_on,0,0,3,,,,,,,,,2,,,69,62
29760,note_on,0,0,1,,,,,,,,,0,,,96,75
29760,note_on,0,0,4,,,,,,,,,3,,,69,62
29760,note_on,0,0,4,,,,,,,,,3,,,71,0
29880,note_on,0,0,1,,,,,,,,,0,,,84,75
29880,note_on,120,0,1,,,,,,,,,0,,,96,0
30000,note_on,120,0,1,,,,,,,,,0,,,84,0
30000,note_on,240,0,4,,,,,,,,,3,,,69,0
30000,note_on,0,0,4,,,,,,,,,3,,,72,62
30000,note_on,0,0,4,,,,,,,,,3,,,76,62
30000,note_on,0,0,1,,,,,,,,,0,,,88,75
30120,note_on,120,0,1,,,,,,,,,0,,,88,0
30120,note_on,0,0,1,,,,,,,,,0,,,84,75
30240,note_on,0,0,1,,,,,,,,,0,,,95,101
30240,note_on,0,0,3,,,,,,,,,2,,,64,62
30240,note_on,0,0,4,,,,,,,,,3,,,64,62
30240,note_on,240,0,4,,,,,,,,,3,,,76,0
30240,note_on,480,0,3,,,,,,,,,2,,,69,0
30240,note_on,0,0,4,,,,,,,,,3,,,72,0
30240,note_on,120,0,1,,,,,,,,,0,,,84,0
30360,note_on,120,0,1,,,,,,,,,0,,,95,0
30360,note_on,0,0,1,,,,,,,,,0,,,83,75
30480,note_on,240,0,4,,,,,,,,,3,,,64,0
30480,note_on,0,0,4,,,,,,,,,3,,,68,62
30480,note_on,120,0,1,,,,,,,,,0,,,83,0
30480,note_on,0,0,4,,,,,,,,,3,,,71,62
30480,note_on,0,0,4,,,,,,,,,3,,,74,62
30480,note_on,0,0,1,,,,,,,,,0,,,86,75
30600,note_on,120,0,1,,,,,,,,,0,,,86,0
30600,note_on,0,0,1,,,,,,,,,0,,,83,75
30720,note_on,480,0,3,,,,,,,,,2,,,64,0
30720,note_on,240,0,4,,,,,,,,,3,,,74,0
30720,note_on,0,0,4,,,,,,,,,3,,,71,0
30720,note_on,120,0,1,,,,,,,,,0,,,83,0
30720,note_on,0,0,1,,,,,,,,,0,,,93,75
30720,note_on,0,0,4,,,,,,,,,3,,,65,62
30720,note_on,0,0,4,,,,,,,,,3,,,68,0
30720,note_on,0,0,3,,,,,,,,,2,,,65,62
30840,note_on,120,0,1,,,,,,,,,0,,,93,0
30840,note_on,0,0,1,,,,,,,,,0,,,81,75
30960,note_on,120,0,1,,,,,,,,,0,,,81,0
30960,note_on,240,0,4,,,,,,,,,3,,,65,0
30960,note_on,0,0,4,,,,,,,,,3,,,72,62
30960,note_on,0,0,1,,,,,,,,,0,,,84,75
30960,note_on,0,0,4,,,,,,,,,3,,,69,62
31080,note_on,0,0,1,,,,,,,,,0,,,81,75
31080,note_on,120,0,1,,,,,,,,,0,,,84,0
31200,note_on,120,0,1,,,,,,,,,0,,,81,0
31200,note_on,0,0,4,,,,,,,,,3,,,61,62
31200,note_on,0,0,4,,,,,,,,,3,,,69,0
31200,note_on,0,0,1,,,,,,,,,0,,,91,101
31200,note_on,480,0,3,,,,,,,,,2,,,65,0
31200,note_on,0,0,3,,,,,,,,,2,,,61,62
31200,note_on,240,0,4,,,,,,,,,3,,,72,0
31320,note_on,120,0,1,,,,,,,,,0,,,91,0
31320,note_on,0,0,1,,,,,,,,,0,,,79,75
31440,note_on,240,0,4,,,,,,,,,3,,,61,0
31440,note_on,0,0,4,,,,,,,,,3,,,64,62
31440,note_on,120,0,1,,,,,,,,,0,,,79,0
31440,note_on,0,0,4,,,,,,,,,3,,,67,62
31440,note_on,0,0,4,,,,,,,,,3,,,70,62
31440,note_on,0,0,1,,,,,,,,,0,,,82,75
31560,note_on,0,0,1,,,,,,,,,0,,,79,75
31560,note_on,120,0,1,,,,,,,,,0,,,82,0
31680,note_on,240,0,4,,,,,,,,,3,,,70,0
31680,note_on,0,0,4,,,,,,,,,3,,,62,62
31680,note_on,0,0,4,,,,,,,,,3,,,64,0
31680,note_on,480,0,3,,,,,,,,,2,,,61,0
31680,note_on,0,0,1,,,,,,,,,0,,,90,75
31680,note_on,0,0,3,,,,,,,,,2,,,62,62
31680,note_on,120,0,1,,,,,,,,,0,,,79,0
31680,note_on,0,0,4,,,,,,,,,3,,,67,0
31800,note_on,0,0,1,,,,,,,,,0,,,78,75
31800,note_on,120,0,1,,,,,,,,,0,,,90,0
31920,note_on,120,0,1,,,,,,,,,0,,,78,0
31920,note_on,240,0,4,,,,,,,,,3,,,62,0
31920,note_on,0,0,4,,,,,,,,,3,,,66,62
31920,note_on,0,0,1,,,,,,,,,0,,,81,75
31920,note_on,0,0,4,,,,,,,,,3,,,69,62
32040,note_on,0,0,1,,,,,,,,,0,,,78,75
32040,note_on,120,0,1,,,,,,,,,0,,,81,0
32160,note_on,480,0,3,,,,,,,,,2,,,62,0
32160,note_on,0,0,4,,,,,,,,,3,,,59,62
32160,note_on,240,0,4,,,,,,,,,3,,,69,0
32160,note_on,0,0,1,,,,,,,,,0,,,89,101
32160,note_on,120,0,1,,,,,,,,,0,,,78,0
32160,note_on,0,0,3,,,,,,,,,2,,,59,62
32160,note_on,0,0,4,,,,,,,,,3,,,66,0
32280,note_on,120,0,1,,,,,,,,,0,,,89,0
32280,note_on,0,0,1,,,,,,,,,0,,,77,75
32400,note_on,240,0,4,,,,,,,,,3,,,59,0
32400,note_on,0,0,4,,,,,,,,,3,,,62,62
32400,note_on,0,0,1,,,,,,,,,0,,,80,75
32400,note_on,120,0,1,,,,,,,,,0,,,77,0
32400,note_on,0,0,4,,,,,,,,,3,,,68,62
32400,note_on,0,0,4,,,,,,,,,3,,,65,62
32520,note_on,0,0,1,,,,,,,,,0,,,77,75
32520,note_on,120,0,1,,,,,,,,,0,,,80,0
32640,note_on,240,0,4,,,,,,,,,3,,,68,0
32640,note_on,0,0,1,,,,,,,,,0,,,88,88
32640,note_on,120,0,1,,,,,,,,,0,,,77,0
32640,note_on,480,0,3,,,,,,,,,2,,,59,0
32640,end_of_track,0,1,4,,,,,,,,,,,,,
32640,note_on,0,0,3,,,,,,,,,2,,,67,75
32640,note_on,0,0,4,,,,,,,,,3,,,62,0
32640,note_on,0,0,4,,,,,,,,,3,,,65,0
32640,note_on,0,0,3,,,,,,,,,2,,,64,75
32640,note_on,0,0,3,,,,,,,,,2,,,60,75
32760,note_on,120,0,1,,,,,,,,,0,,,88,0
32760,note_on,0,0,1,,,,,,,,,0,,,76,88
32880,note_on,0,0,1,,,,,,,,,0,,,79,88
32880,note_on,120,0,1,,,,,,,,,0,,,76,0
33000,note_on,0,0,1,,,,,,,,,0,,,84,88
33000,note_on,120,0,1,,,,,,,,,0,,,79,0
33120,note_on,0,0,1,,,,,,,,,0,,,88,88
33120,note_on,120,0,1,,,,,,,,,0,,,84,0
33240,note_on,0,0,1,,,,,,,,,0,,,91,88
33240,note_on,120,0,1,,,,,,,,,0,,,88,0
33360,note_on,120,0,1,,,,,,,,,0,,,91,0
33360,note_on,0,0,1,,,,,,,,,0,,,96,88
33480,note_on,120,0,1,,,,,,,,,0,,,96,0
33480,note_on,0,0,1,,,,,,,,,0,,,100,88
33600,note_on,960,0,3,,,,,,,,,2,,,67,0
33600,note_on,0,0,1,,,,,,,,,0,,,98,88
33600,note_on,0,0,3,,,,,,,,,2,,,64,0
33600,note_on,120,0,1,,,,,,,,,0,,,100,0
33600,note_on,0,0,3,,,,,,,,,2,,,57,75
33600,note_on,0,0,3,,,,,,,,,2,,,60,0
33600,note_on,0,0,3,,,,,,,,,2,,,65,75
33600,note_on,0,0,3,,,,,,,,,2,,,62,75
33600,note_on,0,0,3,,,,,,,,,2,,,53,75
33720,note_on,120,0,1,,,,,,,,,0,,,98,0
33720,note_on,0,0,1,,,,,,,,,0,,,96,88
33840,note_on,0,0,1,,,,,,,,,0,,,95,88
33840,note_on,120,0,1,,,,,,,,,0,,,96,0
33960,note_on,120,0,1,,,,,,,,,0,,,95,0
33960,note_on,0,0,1,,,,,,,,,0,,,93,88
34080,note_on,120,0,1,,,,,,,,,0,,,93,0
34080,note_on,0,0,1,,,,,,,,,0,,,91,88
34200,note_on,0,0,1,,,,,,,,,0,,,89,88
34200,note_on,120,0,1,,,,,,,,,0,,,91,0
34320,note_on,0,0,1,,,,,,,,,0,,,88,88
34320,note_on,120,0,1,,,,,,,,,0,,,89,0
34440,note_on,0,0,1,,,,,,,,,0,,,86,88
34440,note_on,120,0,1,,,,,,,,,0,,,88,0
34560,note_on,120,0,1,,,,,,,,,0,,,86,0
34560,note_on,0,0,3,,,,,,,,,2,,,53,0
34560,note_on,0,0,3,,,,,,,,,2,,,55,62
34560,note_on,0,0,3,,,,,,,,,2,,,57,0
34560,note_on,960,0,3,,,,,,,,,2,,,65,0
34560,note_on,0,0,3,,,,,,,,,2,,,60,62
34560,note_on,0,0,3,,,,,,,,,2,,,64,62
34560,note_on,0,0,3,,,,,,,,,2,,,62,0
34560,note_on,0,0,1,,,,,,,,,0,,,79,75
34560,note_on,0,0,1,,,,,,,,,0,,,91,75
34800,note_on,240,0,1,,,,,,,,,0,,,91,0
34800,note_on,0,0,1,,,,,,,,,0,,,79,0
34800,note_on,0,0,1,,,,,,,,,0,,,88,75
34920,note_on,120,0,1,,,,,,,,,0,,,88,0
34920,note_on,0,0,1,,,,,,,,,0,,,84,75
35040,note_on,120,0,1,,,,,,,,,0,,,84,0
35040,note_on,0,0,3,,,,,,,,,2,,,60,0
35040,note_on,0,0,3,,,,,,,,,2,,,55,0
35040,note_on,480,0,3,,,,,,,,,2,,,64,0
35040,note_on,0,0,1,,,,,,,,,0,,,79,75
35160,note_on,0,0,1,,,,,,,,,0,,,76,75
35160,note_on,120,0,1,,,,,,,,,0,,,79,0
35280,note_on,0,0,1,,,,,,,,,0,,,72,75
35280,note_on,120,0,1,,,,,,,,,0,,,76,0
35400,note_on,0,0,1,,,,,,,,,0,,,67,75
35400,note_on,120,0,1,,,,,,,,,0,,,72,0
35520,note_on,0,0,3,,,,,,,,,2,,,55,88
35520,note_on,0,0,3,,,,,,,,,2,,,50,88
35520,note_on,0,0,3,,,,,,,,,2,,,47,88
35520,note_on,0,0,1,,,,,,,,,0,,,67,101
35520,note_on,480,0,3,,,,,,,,,2,,,43,88
35520,note_on,120,0,1,,,,,,,,,0,,,67,0
35520,note_on,0,0,1,,,,,,,,,0,,,79,101
35640,note_on,120,0,1,,,,,,,,,0,,,79,0
35640,note_on,0,0,1,,,,,,,,,0,,,67,0
35640,note_on,0,0,1,,,,,,,,,0,,,77,75
35760,note_on,120,0,1,,,,,,,,,0,,,77,0
35760,note_on,0,0,1,,,,,,,,,0,,,74,75
35880,note_on,120,0,1,,,,,,,,,0,,,74,0
35880,note_on,0,0,1,,,,,,,,,0,,,71,75
36000,note_on,480,0,3,,,,,,,,,2,,,55,0
36000,note_on,0,0,3,,,,,,,,,2,,,47,0
36000,note_on,0,0,3,,,,,,,,,2,,,50,0
36000,note_on,0,0,1,,,,,,,,,0,,,67,75
36000,note_on,0,0,3,,,,,,,,,2,,,43,0
36000,note_on,120,0,1,,,,,,,,,0,,,71,0
36120,note_on,0,0,1,,,,,,,,,0,,,65,75
36120,note_on,120,0,1,,,,,,,,,0,,,67,0
36240,note_on,0,0,1,,,,,,,,,0,,,62,75
36240,note_on,120,0,1,,,,,,,,,0,,,65,0
36360,note_on,0,0,1,,,,,,,,,0,,,59,75
36360,note_on,120,0,1,,,,,,,,,0,,,62,0
36480,note_on,120,0,1,,,,,,,,,0,,,59,0
36480,note_on,0,0,3,,,,,,,,,2,,,48,88
36480,note_on,480,0,3,,,,,,,,,2,,,36,88
36600,note_on,120,0,1,,,,,,,,,0,,,60,62
36720,note_on,0,0,1,,,,,,,,,0,,,72,62
36720,note_on,120,0,1,,,,,,,,,0,,,60,0
36840,note_on,0,0,1,,,,,,,,,0,,,70,75
36840,note_on,120,0,1,,,,,,,,,0,,,72,0
36960,note_on,0,0,1,,,,,,,,,0,,,67,75
36960,note_on,120,0,1,,,,,,,,,0,,,70,0
37080,note_on,0,0,1,,,,,,,,,0,,,64,75
37080,note_on,120,0,1,,,,,,,,,0,,,67,0
37200,note_on,0,0,1,,,,,,,,,0,,,60,62
37200,note_on,120,0,1,,,,,,,,,0,,,64,0
37320,note_on,0,0,1,,,,,,,,,0,,,58,62
37320,note_on,120,0,1,,,,,,,,,0,,,60,0
37440,note_on,22080,0,2,,,,,,,,,1,,,55,62
37440,note_on,120,0,1,,,,,,,,,0,,,58,0
37560,note_on,0,0,2,,,,,,,,,1,,,52,62
37560,note_on,120,0,2,,,,,,,,,1,,,55,0
37680,note_on,120,0,2,,,,,,,,,1,,,52,0
37680,note_on,0,0,2,,,,,,,,,1,,,48,62
37800,note_on,0,0,2,,,,,,,,,1,,,46,62
37800,note_on,120,0,2,,,,,,,,,1,,,48,0
37920,note_on,0,0,2,,,,,,,,,1,,,43,62
37920,note_on,120,0,2,,,,,,,,,1,,,46,0
37920,note_on,1440,0,3,,,,,,,,,2,,,48,0
37920,note_on,0,0,3,,,,,,,,,2,,,36,0
38040,note_on,120,0,2,,,,,,,,,1,,,43,0
38040,note_on,0,0,2,,,,,,,,,1,,,50,62
38160,note_on,120,0,2,,,,,,,,,1,,,50,0
38160,note_on,240,0,3,,,,,,,,,2,,,40,75
38160,note_on,0,0,2,,,,,,,,,1,,,48,62
38280,note_on,0,0,2,,,,,,,,,1,,,46,62
38280,note_on,120,0,2,,,,,,,,,1,,,48,0
38400,note_on,0,0,2,,,,,,,,,1,,,45,62
38400,note_on,0,0,3,,,,,,,,,2,,,41,75
38400,note_on,120,0,2,,,,,,,,,1,,,46,0
38400,note_on,240,0,3,,,,,,,,,2,,,40,0
38447,note_on,47,0,3,,,,,,,,,2,,,41,0
38520,note_on,120,0,2,,,,,,,,,1,,,45,0
38520,note_on,0,0,2,,,,,,,,,1,,,52,62
38640,note_on,0,0,2,,,,,,,,,1,,,50,62
38640,note_on,193,0,3,,,,,,,,,2,,,42,75
38640,note_on,120,0,2,,,,,,,,,1,,,52,0
38687,note_on,47,0,3,,,,,,,,,2,,,42,0
38760,note_on,0,0,2,,,,,,,,,1,,,48,62
38760,note_on,120,0,2,,,,,,,,,1,,,50,0
38880,note_on,193,0,3,,,,,,,,,2,,,43,75
38880,note_on,120,0,2,,,,,,,,,1,,,48,0
38880,note_on,0,0,2,,,,,,,,,1,,,47,62
38927,note_on,47,0,3,,,,,,,,,2,,,43,0
39000,note_on,120,0,2,,,,,,,,,1,,,47,0
39000,note_on,0,0,2,,,,,,,,,1,,,53,62
39120,note_on,120,0,2,,,,,,,,,1,,,53,0
39120,note_on,193,0,3,,,,,,,,,2,,,44,75
39120,note_on,0,0,2,,,,,,,,,1,,,52,62
39167,note_on,47,0,3,,,,,,,,,2,,,44,0
39240,note_on,120,0,2,,,,,,,,,1,,,52,0
39240,note_on,0,0,2,,,,,,,,,1,,,50,62
39360,note_on,193,0,3,,,,,,,,,2,,,45,75
39360,note_on,120,0,2,,,,,,,,,1,,,50,0
39360,note_on,0,0,2,,,,,,,,,1,,,48,62
39480,note_on,120,0,2,,,,,,,,,1,,,48,0
39480,note_on,0,0,2,,,,,,,,,1,,,55,62
39600,note_on,120,0,2,,,,,,,,,1,,,55,0
39600,note_on,0,0,2,,,,,,,,,1,,,53,62
39720,note_on,0,0,2,,,,,,,,,1,,,52,62
39720,note_on,120,0,2,,,,,,,,,1,,,53,0
39840,note_on,0,0,2,,,,,,,,,1,,,50,75
39840,note_on,480,0,3,,,,,,,,,2,,,45,0
39840,note_on,120,0,2,,,,,,,,,1,,,52,0
39840,note_on,0,0,3,,,,,,,,,2,,,46,75
39960,note_on,0,0,2,,,,,,,,,1,,,57,75
39960,note_on,120,0,2,,,,,,,,,1,,,50,0
40080,note_on,0,0,2,,,,,,,,,1,,,55,75
40080,note_on,240,0,3,,,,,,,,,2,,,46,0
40080,note_on,0,0,3,,,,,,,,,2,,,47,75
40080,note_on,120,0,2,,,,,,,,,1,,,57,0
40200,note_on,120,0,2,,,,,,,,,1,,,55,0
40200,note_on,0,0,2,,,,,,,,,1,,,53,75
40320,note_on,120,0,2,,,,,,,,,1,,,53,0
40320,note_on,2880,0,1,,,,,,,,,0,,,52,75
40320,note_on,0,0,3,,,,,,,,,2,,,48,88
40320,note_on,0,0,3,,,,,,,,,2,,,36,88
40320,note_on,240,0,3,,,,,,,,,2,,,47,0
40440,note_on,120,0,1,,,,,,,,,0,,,52,0
40440,note_on,0,0,1,,,,,,,,,0,,,60,75
40560,note_on,120,0,1,,,,,,,,,0,,,60,0
40560,note_on,0,0,1,,,,,,,,,0,,,72,88
40680,note_on,0,0,1,,,,,,,,,0,,,70,88
40680,note_on,120,0,1,,,,,,,,,0,,,72,0
40800,note_on,0,0,1,,,,,,,,,0,,,67,88
40800,note_on,120,0,1,,,,,,,,,0,,,70,0
40920,note_on,120,0,1,,,,,,,,,0,,,67,0
40920,note_on,0,0,1,,,,,,,,,0,,,64,88
41040,note_on,0,0,1,,,,,,,,,0,,,60,75
41040,note_on,120,0,1,,,,,,,,,0,,,64,0
41160,note_on,0,0,1,,,,,,,,,0,,,58,75
41160,note_on,120,0,1,,,,,,,,,0,,,60,0
41280,note_on,120,0,1,,,,,,,,,0,,,58,0
41280,note_on,960,0,2,,,,,,,,,1,,,55,75
41400,note_on,120,0,2,,,,,,,,,1,,,55,0
41400,note_on,0,0,2,,,,,,,,,1,,,52,75
41520,note_on,120,0,2,,,,,,,,,1,,,52,0
41520,note_on,0,0,2,,,,,,,,,1,,,48,75
41640,note_on,0,0,2,,,,,,,,,1,,,46,75
41640,note_on,120,0,2,,,,,,,,,1,,,48,0
41760,note_on,120,0,2,,,,,,,,,1,,,46,0
41760,note_on,0,0,2,,,,,,,,,1,,,43,75
41760,note_on,1440,0,3,,,,,,,,,2,,,48,0
41760,note_on,0,0,3,,,,,,,,,2,,,36,0
41880,note_on,0,0,2,,,,,,,,,1,,,50,75
41880,note_on,120,0,2,,,,,,,,,1,,,43,0
42000,note_on,0,0,2,,,,,,,,,1,,,48,75
42000,note_on,240,0,3,,,,,,,,,2,,,40,75
42000,note_on,120,0,2,,,,,,,,,1,,,50,0
42047,note_on,47,0,3,,,,,,,,,2,,,40,0
42120,note_on,0,0,2,,,,,,,,,1,,,46,75
42120,note_on,120,0,2,,,,,,,,,1,,,48,0
42240,note_on,120,0,2,,,,,,,,,1,,,46,0
42240,note_on,0,0,2,,,,,,,,,1,,,45,75
42240,note_on,193,0,3,,,,,,,,,2,,,41,75
42287,note_on,47,0,3,,,,,,,,,2,,,41,0
42360,note_on,120,0,2,,,,,,,,,1,,,45,0
42360,note_on,0,0,2,,,,,,,,,1,,,52,75
42480,note_on,0,0,2,,,,,,,,,1,,,50,75
42480,note_on,193,0,3,,,,,,,,,2,,,42,75
42480,note_on,120,0,2,,,,,,,,,1,,,52,0
42527,note_on,47,0,3,,,,,,,,,2,,,42,0
42600,note_on,120,0,2,,,,,,,,,1,,,50,0
42600,note_on,0,0,2,,,,,,,,,1,,,48,75
42720,note_on,193,0,3,,,,,,,,,2,,,43,75
42720,note_on,120,0,2,,,,,,,,,1,,,48,0
42720,note_on,0,0,2,,,,,,,,,1,,,47,75
42767,note_on,47,0,3,,,,,,,,,2,,,43,0
42840,note_on,120,0,2,,,,,,,,,1,,,47,0
42840,note_on,0,0,2,,,,,,,,,1,,,53,75
42960,note_on,120,0,2,,,,,,,,,1,,,53,0
42960,note_on,0,0,2,,,,,,,,,1,,,52,75
42960,note_on,193,0,3,,,,,,,,,2,,,44,75
43007,note_on,47,0,3,,,,,,,,,2,,,44,0
43080,note_on,0,0,2,,,,,,,,,1,,,50,75
43080,note_on,120,0,2,,,,,,,,,1,,,52,0
43200,note_on,0,0,2,,,,,,,,,1,,,48,75
43200,note_on,193,0,3,,,,,,,,,2,,,45,75
43200,note_on,120,0,2,,,,,,,,,1,,,50,0
43320,note_on,0,0,2,,,,,,,,,1,,,55,75
43320,note_on,120,0,2,,,,,,,,,1,,,48,0
43440,note_on,0,0,2,,,,,,,,,1,,,53,75
43440,note_on,120,0,2,,,,,,,,,1,,,55,0
43560,note_on,0,0,2,,,,,,,,,1,,,52,75
43560,note_on,120,0,2,,,,,,,,,1,,,53,0
43680,note_on,0,0,2,,,,,,,,,1,,,50,75
43680,note_on,120,0,2,,,,,,,,,1,,,52,0
43680,note_on,0,0,3,,,,,,,,,2,,,46,75
43680,note_on,480,0,3,,,,,,,,,2,,,45,0
43800,note_on,120,0,2,,,,,,,,,1,,,50,0
43800,note_on,0,0,2,,,,,,,,,1,,,57,75
43920,note_on,120,0,2,,,,,,,,,1,,,57,0
43920,note_on,0,0,2,,,,,,,,,1,,,55,75
43920,note_on,240,0,3,,,,,,,,,2,,,46,0
43920,note_on,0,0,3,,,,,,,,,2,,,47,75
44040,note_on,120,0,2,,,,,,,,,1,,,55,0
44040,note_on,0,0,2,,,,,,,,,1,,,53,75
44160,note_on,0,0,2,,,,,,,,,1,,,52,88
44160,note_on,240,0,3,,,,,,,,,2,,,47,0
44160,note_on,0,0,3,,,,,,,,,2,,,48,75
44160,note_on,120,0,2,,,,,,,,,1,,,53,0
44280,note_on,120,0,2,,,,,,,,,1,,,52,0
44280,note_on,0,0,2,,,,,,,,,1,,,58,88
44400,note_on,0,0,3,,,,,,,,,2,,,49,75
44400,note_on,120,0,2,,,,,,,,,1,,,58,0
44400,note_on,240,0,3,,,,,,,,,2,,,48,0
44400,note_on,0,0,2,,,,,,,,,1,,,57,88
44520,note_on,120,0,2,,,,,,,,,1,,,57,0
44520,note_on,0,0,2,,,,,,,,,1,,,55,88
44640,note_on,240,0,3,,,,,,,,,2,,,49,0
44640,note_on,0,0,3,,,,,,,,,2,,,50,75
44640,note_on,120,0,2,,,,,,,,,1,,,55,0
44640,note_on,0,0,2,,,,,,,,,1,,,53,88
44760,note_on,120,0,2,,,,,,,,,1,,,53,0
44760,note_on,0,0,2,,,,,,,,,1,,,60,88
44880,note_on,120,0,2,,,,,,,,,1,,,60,0
44880,note_on,0,0,2,,,,,,,,,1,,,59,88
45000,note_on,120,0,2,,,,,,,,,1,,,59,0
45000,note_on,0,0,2,,,,,,,,,1,,,57,88
45120,end_of_track,0,1,2,,,,,,,,,,,,,
45120,note_on,120,0,2,,,,,,,,,1,,,57,0
45120,note_on,3840,0,1,,,,,,,,,0,,,55,75
45120,note_on,480,0,3,,,,,,,,,2,,,50,0
45120,note_on,0,0,3,,,,,,,,,2,,,51,75
45240,note_on,0,0,1,,,,,,,,,0,,,62,75
45240,note_on,120,0,1,,,,,,,,,0,,,55,0
45360,note_on,0,0,1,,,,,,,,,0,,,60,75
45360,note_on,120,0,1,,,,,,,,,0,,,62,0
45360,note_on,0,0,3,,,,,,,,,2,,,52,75
45360,note_on,240,0,3,,,,,,,,,2,,,51,0
45480,note_on,120,0,1,,,,,,,,,0,,,60,0
45480,note_on,0,0,1,,,,,,,,,0,,,58,75
45600,note_on,240,0,3,,,,,,,,,2,,,52,0
45600,note_on,0,0,1,,,,,,,,,0,,,57,75
45600,note_on,0,0,3,,,,,,,,,2,,,53,75
45600,note_on,120,0,1,,,,,,,,,0,,,58,0
45720,note_on,120,0,1,,,,,,,,,0,,,57,0
45720,note_on,0,0,1,,,,,,,,,0,,,64,75
45840,note_on,120,0,1,,,,,,,,,0,,,64,0
45840,note_on,240,0,3,,,,,,,,,2,,,53,0
45840,note_on,0,0,3,,,,,,,,,2,,,54,75
45840,note_on,0,0,1,,,,,,,,,0,,,62,75
45960,note_on,120,0,1,,,,,,,,,0,,,62,0
45960,note_on,0,0,1,,,,,,,,,0,,,60,75
46080,note_on,120,0,1,,,,,,,,,0,,,60,0
46080,note_on,240,0,3,,,,,,,,,2,,,54,0
46080,note_on,0,0,3,,,,,,,,,2,,,55,75
46080,note_on,0,0,1,,,,,,,,,0,,,59,75
46127,note_on,47,0,3,,,,,,,,,2,,,55,0
46200,note_on,120,0,1,,,,,,,,,0,,,59,0
46200,note_on,0,0,1,,,,,,,,,0,,,65,75
46320,note_on,193,0,3,,,,,,,,,2,,,56,75
46320,note_on,0,0,1,,,,,,,,,0,,,64,75
46320,note_on,120,0,1,,,,,,,,,0,,,65,0
46367,note_on,47,0,3,,,,,,,,,2,,,56,0
46440,note_on,0,0,1,,,,,,,,,0,,,62,75
46440,note_on,120,0,1,,,,,,,,,0,,,64,0
46560,note_on,193,0,3,,,,,,,,,2,,,57,75
46560,note_on,120,0,1,,,,,,,,,0,,,62,0
46560,note_on,0,0,1,,,,,,,,,0,,,60,75
46680,note_on,0,0,1,,,,,,,,,0,,,67,75
46680,note_on,120,0,1,,,,,,,,,0,,,60,0
46800,note_on,120,0,1,,,,,,,,,0,,,67,0
46800,note_on,0,0,1,,,,,,,,,0,,,65,75
46920,note_on,120,0,1,,,,,,,,,0,,,65,0
46920,note_on,0,0,1,,,,,,,,,0,,,64,75
47040,note_on,120,0,1,,,,,,,,,0,,,64,0
47040,note_on,480,0,3,,,,,,,,,2,,,57,0
47040,note_on,0,0,3,,,,,,,,,2,,,58,75
47040,note_on,0,0,1,,,,,,,,,0,,,62,88
47160,note_on,120,0,1,,,,,,,,,0,,,62,0
47160,note_on,0,0,1,,,,,,,,,0,,,69,88
47280,note_on,0,0,3,,,,,,,,,2,,,59,75
47280,note_on,120,0,1,,,,,,,,,0,,,69,0
47280,note_on,0,0,1,,,,,,,,,0,,,67,88
47280,note_on,240,0,3,,,,,,,,,2,,,58,0
47327,note_on,47,0,3,,,,,,,,,2,,,59,0
47400,note_on,0,0,1,,,,,,,,,0,,,65,88
47400,note_on,120,0,1,,,,,,,,,0,,,67,0
47520,note_on,0,0,1,,,,,,,,,0,,,64,88
47520,note_on,193,0,3,,,,,,,,,2,,,60,75
47520,note_on,120,0,1,,,,,,,,,0,,,65,0
47567,note_on,47,0,3,,,,,,,,,2,,,60,0
47640,note_on,0,0,1,,,,,,,,,0,,,70,88
47640,note_on,120,0,1,,,,,,,,,0,,,64,0
47760,note_on,0,0,1,,,,,,,,,0,,,69,88
47760,note_on,193,0,3,,,,,,,,,2,,,61,75
47760,note_on,120,0,1,,,,,,,,,0,,,70,0
47807,note_on,47,0,3,,,,,,,,,2,,,61,0
47880,note_on,120,0,1,,,,,,,,,0,,,69,0
47880,note_on,0,0,1,,,,,,,,,0,,,67,88
48000,note_on,193,0,3,,,,,,,,,2,,,62,75
48000,note_on,120,0,1,,,,,,,,,0,,,67,0
48000,note_on,0,0,1,,,,,,,,,0,,,65,88
48120,note_on,120,0,1,,,,,,,,,0,,,65,0
48120,note_on,0,0,1,,,,,,,,,0,,,72,88
48240,note_on,0,0,1,,,,,,,,,0,,,70,88
48240,note_on,120,0,1,,,,,,,,,0,,,72,0
48360,note_on,0,0,1,,,,,,,,,0,,,69,88
48360,note_on,120,0,1,,,,,,,,,0,,,70,0
48480,note_on,0,0,1,,,,,,,,,0,,,67,88
48480,control_change,0,0,3,,,,,,,,,2,64,127,,
48480,note_on,120,0,1,,,,,,,,,0,,,69,0
48480,note_on,480,0,3,,,,,,,,,2,,,62,0
48480,note_on,0,0,3,,,,,,,,,2,,,63,75
48600,note_on,0,0,1,,,,,,,,,0,,,74,88
48600,note_on,120,0,1,,,,,,,,,0,,,67,0
48720,note_on,0,0,3,,,,,,,,,2,,,64,75
48720,note_on,120,0,1,,,,,,,,,0,,,74,0
48720,note_on,0,0,1,,,,,,,,,0,,,72,88
48720,note_on,240,0,3,,,,,,,,,2,,,63,0
48840,note_on,120,0,1,,,,,,,,,0,,,72,0
48840,note_on,0,0,1,,,,,,,,,0,,,70,88
48960,note_on,120,0,1,,,,,,,,,0,,,70,0
48960,note_on,0,0,1,,,,,,,,,0,,,69,88
48960,note_on,240,0,3,,,,,,,,,2,,,64,0
48960,note_on,0,0,3,,,,,,,,,2,,,65,75
49080,note_on,120,0,1,,,,,,,,,0,,,69,0
49080,note_on,0,0,1,,,,,,,,,0,,,76,88
49200,note_on,0,0,1,,,,,,,,,0,,,74,88
49200,note_on,240,0,3,,,,,,,,,2,,,65,0
49200,note_on,120,0,1,,,,,,,,,0,,,76,0
49200,note_on,0,0,3,,,,,,,,,2,,,66,75
49320,note_on,120,0,1,,,,,,,,,0,,,74,0
49320,note_on,0,0,1,,,,,,,,,0,,,72,88
49440,note_on,0,0,3,,,,,,,,,2,,,67,62
49440,note_on,240,0,3,,,,,,,,,2,,,66,0
49440,note_on,120,0,1,,,,,,,,,0,,,72,0
49440,note_on,0,0,1,,,,,,,,,0,,,71,75
49560,note_on,0,0,1,,,,,,,,,0,,,77,75
49560,note_on,120,0,1,,,,,,,,,0,,,71,0
49680,note_on,120,0,1,,,,,,,,,0,,,77,0
49680,control_change,0,0,3,,,,,,,,,2,64,0,,
49680,note_on,240,0,3,,,,,,,,,2,,,67,0
49680,note_on,0,0,1,,,,,,,,,0,,,76,75
49680,note_on,0,0,3,,,,,,,,,2,,,68,62
49800,note_on,0,0,1,,,,,,,,,0,,,74,75
49800,note_on,120,0,1,,,,,,,,,0,,,76,0
49920,note_on,0,0,1,,,,,,,,,0,,,72,75
49920,note_on,0,0,3,,,,,,,,,2,,,69,62
49920,note_on,240,0,3,,,,,,,,,2,,,68,0
49920,note_on,120,0,1,,,,,,,,,0,,,74,0
50040,note_on,0,0,1,,,,,,,,,0,,,79,75
50040,note_on,120,0,1,,,,,,,,,0,,,72,0
50160,note_on,0,0,1,,,,,,,,,0,,,77,75
50160,note_on,120,0,1,,,,,,,,,0,,,79,0
50280,note_on,120,0,1,,,,,,,,,0,,,77,0
50280,note_on,0,0,1,,,,,,,,,0,,,76,75
50400,note_on,0,0,3,,,,,,,,,2,,,70,62
50400,note_on,0,0,1,,,,,,,,,0,,,74,75
50400,note_on,120,0,1,,,,,,,,,0,,,76,0
50400,note_on,480,0,3,,,,,,,,,2,,,69,0
50520,note_on,120,0,1,,,,,,,,,0,,,74,0
50520,note_on,0,0,1,,,,,,,,,0,,,81,75
50640,note_on,120,0,1,,,,,,,,,0,,,81,0
50640,note_on,0,0,1,,,,,,,,,0,,,79,75
50640,note_on,240,0,3,,,,,,,,,2,,,70,0
50640,note_on,0,0,3,,,,,,,,,2,,,71,62
50760,note_on,120,0,1,,,,,,,,,0,,,79,0
50760,note_on,0,0,1,,,,,,,,,0,,,77,75
50880,note_on,0,0,3,,,,,,,,,2,,,72,62
50880,note_on,240,0,3,,,,,,,,,2,,,71,0
50880,note_on,0,0,1,,,,,,,,,0,,,76,75
50880,note_on,120,0,1,,,,,,,,,0,,,77,0
51000,note_on,120,0,1,,,,,,,,,0,,,76,0
51000,note_on,0,0,1,,,,,,,,,0,,,81,75
51120,note_on,0,0,1,,,,,,,,,0,,,79,75
51120,note_on,120,0,1,,,,,,,,,0,,,81,0
51120,note_on,0,0,3,,,,,,,,,2,,,71,62
51120,note_on,240,0,3,,,,,,,,,2,,,72,0
51240,note_on,120,0,1,,,,,,,,,0,,,79,0
51240,note_on,0,0,1,,,,,,,,,0,,,77,75
51360,note_on,120,0,1,,,,,,,,,0,,,77,0
51360,note_on,0,0,1,,,,,,,,,0,,,76,75
51360,note_on,0,0,3,,,,,,,,,2,,,72,62
51360,note_on,240,0,3,,,,,,,,,2,,,71,0
51480,note_on,0,0,1,,,,,,,,,0,,,81,75
51480,note_on,120,0,1,,,,,,,,,0,,,76,0
51600,note_on,0,0,3,,,,,,,,,2,,,71,62
51600,note_on,0,0,1,,,,,,,,,0,,,79,75
51600,note_on,120,0,1,,,,,,,,,0,,,81,0
51600,note_on,240,0,3,,,,,,,,,2,,,72,0
51720,note_on,120,0,1,,,,,,,,,0,,,79,0
51720,note_on,0,0,1,,,,,,,,,0,,,77,75
51840,note_on,120,0,1,,,,,,,,,0,,,77,0
51840,note_on,240,0,3,,,,,,,,,2,,,71,0
51840,note_on,0,0,1,,,,,,,,,0,,,76,88
51840,note_on,0,0,3,,,,,,,,,2,,,72,75
51960,note_on,120,0,1,,,,,,,,,0,,,76,0
51960,note_on,0,0,1,,,,,,,,,0,,,93,88
52080,note_on,120,0,1,,,,,,,,,0,,,93,0
52080,note_on,0,0,3,,,,,,,,,2,,,83,75
52080,note_on,240,0,3,,,,,,,,,2,,,72,0
52080,note_on,0,0,1,,,,,,,,,0,,,91,88
52200,note_on,0,0,1,,,,,,,,,0,,,89,88
52200,note_on,120,0,1,,,,,,,,,0,,,91,0
52320,note_on,240,0,3,,,,,,,,,2,,,83,0
52320,note_on,120,0,1,,,,,,,,,0,,,89,0
52320,note_on,0,0,3,,,,,,,,,2,,,84,75
52320,note_on,0,0,1,,,,,,,,,0,,,88,88
52440,note_on,120,0,1,,,,,,,,,0,,,88,0
52440,note_on,0,0,1,,,,,,,,,0,,,93,88
52560,note_on,120,0,1,,,,,,,,,0,,,93,0
52560,note_on,0,0,3,,,,,,,,,2,,,83,75
52560,note_on,240,0,3,,,,,,,,,2,,,84,0
52560,note_on,0,0,1,,,,,,,,,0,,,91,88
52680,note_on,120,0,1,,,,,,,,,0,,,91,0
52680,note_on,0,0,1,,,,,,,,,0,,,89,88
52800,note_on,0,0,1,,,,,,,,,0,,,88,88
52800,note_on,0,0,3,,,,,,,,,2,,,84,75
52800,note_on,120,0,1,,,,,,,,,0,,,89,0
52800,note_on,240,0,3,,,,,,,,,2,,,83,0
52920,note_on,0,0,1,,,,,,,,,0,,,93,88
52920,note_on,120,0,1,,,,,,,,,0,,,88,0
53040,note_on,0,0,3,,,,,,,,,2,,,83,75
53040,note_on,120,0,1,,,,,,,,,0,,,93,0
53040,note_on,0,0,1,,,,,,,,,0,,,91,88
53040,note_on,240,0,3,,,,,,,,,2,,,84,0
53160,note_on,0,0,1,,,,,,,,,0,,,89,88
53160,note_on,120,0,1,,,,,,,,,0,,,91,0
53280,note_on,0,0,1,,,,,,,,,0,,,88,88
53280,note_on,120,0,1,,,,,,,,,0,,,89,0
53280,note_on,0,0,3,,,,,,,,,2,,,84,75
53280,note_on,240,0,3,,,,,,,,,2,,,83,0
53400,note_on,0,0,1,,,,,,,,,0,,,93,88
53400,note_on,120,0,1,,,,,,,,,0,,,88,0
53520,note_on,0,0,3,,,,,,,,,2,,,83,75
53520,note_on,0,0,1,,,,,,,,,0,,,91,88
53520,note_on,240,0,3,,,,,,,,,2,,,84,0
53520,note_on,120,0,1,,,,,,,,,0,,,93,0
53640,note_on,0,0,1,,,,,,,,,0,,,89,88
53640,note_on,120,0,1,,,,,,,,,0,,,91,0
53760,note_on,0,0,3,,,,,,,,,2,,,84,75
53760,note_on,240,0,3,,,,,,,,,2,,,83,0
53760,note_on,0,0,1,,,,,,,,,0,,,88,88
53760,note_on,120,0,1,,,,,,,,,0,,,89,0
54000,note_on,240,0,1,,,,,,,,,0,,,88,0
54000,note_on,240,0,3,,,,,,,,,2,,,84,0
54240,note_on,240,0,3,,,,,,,,,2,,,46,75
54240,note_on,240,0,1,,,,,,,,,0,,,64,88
54240,note_on,0,0,1,,,,,,,,,0,,,67,88
54240,note_on,0,0,1,,,,,,,,,0,,,72,88
54240,note_on,0,0,1,,,,,,,,,0,,,76,88
54240,note_on,0,0,3,,,,,,,,,2,,,58,75
54720,note_on,0,0,3,,,,,,,,,2,,,46,0
54720,note_on,0,0,3,,,,,,,,,2,,,57,75
54720,note_on,480,0,1,,,,,,,,,0,,,76,0
54720,note_on,0,0,1,,,,,,,,,0,,,64,0
54720,note_on,0,0,1,,,,,,,,,0,,,65,88
54720,note_on,0,0,1,,,,,,,,,0,,,69,88
54720,note_on,0,0,1,,,,,,,,,0,,,72,0
54720,note_on,0,0,1,,,,,,,,,0,,,72,88
54720,note_on,0,0,1,,,,,,,,,0,,,77,88
54720,note_on,480,0,3,,,,,,,,,2,,,58,0
54720,note_on,0,0,1,,,,,,,,,0,,,67,0
54720,note_on,0,0,3,,,,,,,,,2,,,45,75
55200,note_on,480,0,1,,,,,,,,,0,,,77,0
55200,note_on,0,0,3,,,,,,,,,2,,,56,75
55200,note_on,0,0,3,,,,,,,,,2,,,45,0
55200,note_on,480,0,3,,,,,,,,,2,,,57,0
55200,note_on,0,0,1,,,,,,,,,0,,,72,0
55200,note_on,0,0,3,,,,,,,,,2,,,44,75
55200,note_on,0,0,1,,,,,,,,,0,,,65,0
55200,note_on,0,0,1,,,,,,,,,0,,,66,88
55200,note_on,0,0,1,,,,,,,,,0,,,78,88
55200,note_on,0,0,1,,,,,,,,,0,,,75,88
55200,note_on,0,0,1,,,,,,,,,0,,,72,88
55200,note_on,0,0,1,,,,,,,,,0,,,69,0
55680,note_on,0,0,3,,,,,,,,,2,,,55,75
55680,note_on,0,0,3,,,,,,,,,2,,,43,75
55680,note_on,0,0,1,,,,,,,,,0,,,79,88
55680,note_on,0,0,3,,,,,,,,,2,,,44,0
55680,note_on,0,0,1,,,,,,,,,0,,,75,0
55680,note_on,480,0,3,,,,,,,,,2,,,56,0
55680,note_on,0,0,1,,,,,,,,,0,,,66,0
55680,note_on,0,0,1,,,,,,,,,0,,,76,88
55680,note_on,0,0,1,,,,,,,,,0,,,72,88
55680,note_on,0,0,1,,,,,,,,,0,,,72,0
55680,note_on,0,0,1,,,,,,,,,0,,,67,88
55680,note_on,480,0,1,,,,,,,,,0,,,78,0
56640,note_on,0,0,1,,,,,,,,,0,,,62,88
56640,note_on,0,0,1,,,,,,,,,0,,,65,88
56640,note_on,0,0,1,,,,,,,,,0,,,67,0
56640,note_on,0,0,1,,,,,,,,,0,,,67,88
56640,note_on,0,0,1,,,,,,,,,0,,,71,88
56640,note_on,0,0,1,,,,,,,,,0,,,72,0
56640,note_on,960,0,3,,,,,,,,,2,,,55,0
56640,note_on,0,0,3,,,,,,,,,2,,,50,75
56640,note_on,0,0,3,,,,,,,,,2,,,55,75
56640,note_on,0,0,3,,,,,,,,,2,,,47,75
56640,note_on,0,0,3,,,,,,,,,2,,,43,75
56640,note_on,0,0,3,,,,,,,,,2,,,43,0
56640,note_on,960,0,1,,,,,,,,,0,,,79,0
56640,note_on,0,0,1,,,,,,,,,0,,,76,0
57600,note_on,0,0,1,,,,,,,,,0,,,62,0
57600,note_on,0,0,1,,,,,,,,,0,,,67,0
57600,note_on,0,0,1,,,,,,,,,0,,,65,0
57600,note_on,960,0,3,,,,,,,,,2,,,55,0
57600,note_on,960,0,1,,,,,,,,,0,,,71,0
57600,note_on,0,0,3,,,,,,,,,2,,,50,0
57600,note_on,0,0,3,,,,,,,,,2,,,47,0
57600,note_on,0,0,3,,,,,,,,,2,,,43,0
57600,note_on,0,0,3,,,,,,,,,2,,,36,62
57720,note_on,120,0,3,,,,,,,,,2,,,36,0
57720,note_on,0,0,3,,,,,,,,,2,,,40,62
57840,note_on,120,0,3,,,,,,,,,2,,,40,0
57840,note_on,0,0,3,,,,,,,,,2,,,43,62
57960,note_on,120,0,3,,,,,,,,,2,,,43,0
57960,note_on,0,0,3,,,,,,,,,2,,,48,62
58080,note_on,0,0,3,,,,,,,,,2,,,52,62
58080,note_on,120,0,3,,,,,,,,,2,,,48,0
58200,note_on,0,0,3,,,,,,,,,2,,,55,62
58200,note_on,120,0,3,,,,,,,,,2,,,52,0
58320,note_on,0,0,3,,,,,,,,,2,,,60,62
58320,note_on,120,0,3,,,,,,,,,2,,,55,0
58440,note_on,0,0,3,,,,,,,,,2,,,64,62
58440,note_on,120,0,3,,,,,,,,,2,,,60,0
58560,note_on,960,0,1,,,,,,,,,0,,,67,62
58560,note_on,120,0,3,,,,,,,,,2,,,64,0
58680,note_on,0,0,1,,,,,,,,,0,,,71,62
58680,note_on,120,0,1,,,,,,,,,0,,,67,0
58800,note_on,120,0,1,,,,,,,,,0,,,71,0
58800,note_on,0,0,1,,,,,,,,,0,,,74,62
58920,note_on,0,0,1,,,,,,,,,0,,,77,62
58920,note_on,120,0,1,,,,,,,,,0,,,74,0
59040,note_on,0,0,1,,,,,,,,,0,,,79,62
59040,note_on,120,0,1,,,,,,,,,0,,,77,0
59160,note_on,0,0,1,,,,,,,,,0,,,83,62
59160,note_on,120,0,1,,,,,,,,,0,,,79,0
59280,note_on,0,0,1,,,,,,,,,0,,,86,62
59280,note_on,120,0,1,,,,,,,,,0,,,83,0
59400,note_on,120,0,1,,,,,,,,,0,,,86,0
59400,note_on,0,0,1,,,,,,,,,0,,,91,62
59520,note_on,960,0,3,,,,,,,,,2,,,36,62
59520,note_on,120,0,1,,,,,,,,,0,,,91,0
59640,note_on,120,0,3,,,,,,,,,2,,,36,0
59640,note_on,0,0,3,,,,,,,,,2,,,40,62
59760,note_on,0,0,3,,,,,,,,,2,,,43,62
59760,note_on,120,0,3,,,,,,,,,2,,,40,0
59880,note_on,120,0,3,,,,,,,,,2,,,43,0
59880,note_on,0,0,3,,,,,,,,,2,,,48,62
60000,note_on,0,0,3,,,,,,,,,2,,,52,62
60000,note_on,120,0,3,,,,,,,,,2,,,48,0
60120,note_on,0,0,3,,,,,,,,,2,,,55,62
60120,note_on,120,0,3,,,,,,,,,2,,,52,0
60240,note_on,120,0,3,,,,,,,,,2,,,55,0
60240,note_on,0,0,3,,,,,,,,,2,,,60,62
60360,note_on,0,0,3,,,,,,,,,2,,,64,62
60360,note_on,120,0,3,,,,,,,,,2,,,60,0
60480,note_on,960,0,1,,,,,,,,,0,,,67,62
60480,note_on,120,0,3,,,,,,,,,2,,,64,0
60600,note_on,120,0,1,,,,,,,,,0,,,67,0
60600,note_on,0,0,1,,,,,,,,,0,,,71,62
60720,note_on,120,0,1,,,,,,,,,0,,,71,0
60720,note_on,0,0,1,,,,,,,,,0,,,74,62
60840,note_on,120,0,1,,,,,,,,,0,,,74,0
60840,note_on,0,0,1,,,,,,,,,0,,,77,62
60960,note_on,0,0,1,,,,,,,,,0,,,79,62
60960,note_on,120,0,1,,,,,,,,,0,,,77,0
61080,note_on,120,0,1,,,,,,,,,0,,,79,0
61080,note_on,0,0,1,,,,,,,,,0,,,83,62
61200,note_on,120,0,1,,,,,,,,,0,,,83,0
61200,note_on,0,0,1,,,,,,,,,0,,,86,62
61320,note_on,120,0,1,,,,,,,,,0,,,86,0
61320,note_on,0,0,1,,,,,,,,,0,,,91,62
61440,note_on,120,0,1,,,,,,,,,0,,,91,0
61440,control_change,0,0,1,,,,,,,,,0,64,127,,
61440,note_on,0,0,3,,,,,,,,,2,,,36,62
61440,control_change,960,0,3,,,,,,,,,2,64,127,,
61560,note_on,120,0,3,,,,,,,,,2,,,36,0
61560,note_on,0,0,3,,,,,,,,,2,,,40,62
61680,note_on,0,0,3,,,,,,,,,2,,,43,62
61680,note_on,120,0,3,,,,,,,,,2,,,40,0
61800,note_on,0,0,3,,,,,,,,,2,,,48,62
61800,note_on,120,0,3,,,,,,,,,2,,,43,0
61920,note_on,0,0,3,,,,,,,,,2,,,52,62
61920,note_on,120,0,3,,,,,,,,,2,,,48,0
62040,note_on,0,0,3,,,,,,,,,2,,,55,62
62040,note_on,120,0,3,,,,,,,,,2,,,52,0
62160,note_on,120,0,3,,,,,,,,,2,,,55,0
62160,note_on,0,0,3,,,,,,,,,2,,,60,62
62280,note_on,0,0,3,,,,,,,,,2,,,64,62
62280,note_on,120,0,3,,,,,,,,,2,,,60,0
62400,note_on,120,0,3,,,,,,,,,2,,,64,0
62400,note_on,960,0,1,,,,,,,,,0,,,67,62
62520,note_on,0,0,1,,,,,,,,,0,,,72,62
62520,note_on,120,0,1,,,,,,,,,0,,,67,0
62640,note_on,0,0,1,,,,,,,,,0,,,76,62
62640,note_on,120,0,1,,,,,,,,,0,,,72,0
62760,note_on,0,0,1,,,,,,,,,0,,,79,62
62760,note_on,120,0,1,,,,,,,,,0,,,76,0
62880,note_on,0,0,1,,,,,,,,,0,,,84,62
62880,note_on,120,0,1,,,,,,,,,0,,,79,0
63000,note_on,0,0,1,,,,,,,,,0,,,88,62
63000,note_on,120,0,1,,,,,,,,,0,,,84,0
63120,note_on,0,0,1,,,,,,,,,0,,,91,62
63120,note_on,120,0,1,,,,,,,,,0,,,88,0
63240,note_on,0,0,1,,,,,,,,,0,,,96,62
63240,note_on,120,0,1,,,,,,,,,0,,,91,0
63360,note_on,960,0,3,,,,,,,,,2,,,36,75
63360,note_on,120,0,1,,,,,,,,,0,,,96,0
63480,note_on,0,0,3,,,,,,,,,2,,,40,75
63480,note_on,120,0,3,,,,,,,,,2,,,36,0
63600,note_on,120,0,3,,,,,,,,,2,,,40,0
63600,note_on,0,0,3,,,,,,,,,2,,,43,75
63720,note_on,120,0,3,,,,,,,,,2,,,43,0
63720,note_on,0,0,3,,,,,,,,,2,,,48,75
63840,note_on,0,0,3,,,,,,,,,2,,,52,75
63840,note_on,120,0,3,,,,,,,,,2,,,48,0
63960,note_on,0,0,3,,,,,,,,,2,,,55,75
63960,note_on,120,0,3,,,,,,,,,2,,,52,0
64080,note_on,0,0,3,,,,,,,,,2,,,60,75
64080,note_on,120,0,3,,,,,,,,,2,,,55,0
64200,note_on,0,0,3,,,,,,,,,2,,,64,75
64200,note_on,120,0,3,,,,,,,,,2,,,60,0
64320,note_on,960,0,1,,,,,,,,,0,,,67,75
64320,note_on,120,0,3,,,,,,,,,2,,,64,0
64440,note_on,120,0,1,,,,,,,,,0,,,67,0
64440,note_on,0,0,1,,,,,,,,,0,,,72,75
64560,note_on,120,0,1,,,,,,,,,0,,,72,0
64560,note_on,0,0,1,,,,,,,,,0,,,76,75
64680,note_on,120,0,1,,,,,,,,,0,,,76,0
64680,note_on,0,0,1,,,,,,,,,0,,,79,75
64800,note_on,0,0,1,,,,,,,,,0,,,84,75
64800,note_on,120,0,1,,,,,,,,,0,,,79,0
64920,note_on,0,0,1,,,,,,,,,0,,,88,75
64920,note_on,120,0,1,,,,,,,,,0,,,84,0
65040,note_on,0,0,1,,,,,,,,,0,,,91,75
65040,note_on,120,0,1,,,,,,,,,0,,,88,0
65160,note_on,0,0,1,,,,,,,,,0,,,96,75
65160,note_on,120,0,1,,,,,,,,,0,,,91,0
65280,note_on,120,0,1,,,,,,,,,0,,,96,0
65280,note_on,960,0,3,,,,,,,,,2,,,36,88
65400,note_on,0,0,3,,,,,,,,,2,,,40,88
65400,note_on,120,0,3,,,,,,,,,2,,,36,0
65520,note_on,120,0,3,,,,,,,,,2,,,40,0
65520,note_on,0,0,3,,,,,,,,,2,,,43,88
65640,note_on,120,0,3,,,,,,,,,2,,,43,0
65640,note_on,0,0,3,,,,,,,,,2,,,48,88
65760,note_on,120,0,3,,,,,,,,,2,,,48,0
65760,note_on,0,0,3,,,,,,,,,2,,,52,88
65880,note_on,120,0,3,,,,,,,,,2,,,52,0
65880,note_on,0,0,3,,,,,,,,,2,,,55,88
66000,note_on,0,0,3,,,,,,,,,2,,,60,88
66000,note_on,120,0,3,,,,,,,,,2,,,55,0
66120,note_on,0,0,3,,,,,,,,,2,,,64,88
66120,note_on,120,0,3,,,,,,,,,2,,,60,0
66240,note_on,960,0,1,,,,,,,,,0,,,67,88
66240,note_on,120,0,3,,,,,,,,,2,,,64,0
66360,note_on,0,0,1,,,,,,,,,0,,,72,88
66360,note_on,120,0,1,,,,,,,,,0,,,67,0
66480,note_on,0,0,1,,,,,,,,,0,,,76,88
66480,note_on,120,0,1,,,,,,,,,0,,,72,0
66600,note_on,0,0,1,,,,,,,,,0,,,79,88
66600,note_on,120,0,1,,,,,,,,,0,,,76,0
66720,note_on,0,0,1,,,,,,,,,0,,,84,75
66720,note_on,120,0,1,,,,,,,,,0,,,79,0
66840,note_on,120,0,1,,,,,,,,,0,,,84,0
66840,note_on,0,0,1,,,,,,,,,0,,,88,75
66960,note_on,0,0,1,,,,,,,,,0,,,91,75
66960,note_on,120,0,1,,,,,,,,,0,,,88,0
67080,note_on,0,0,1,,,,,,,,,0,,,96,75
67080,note_on,120,0,1,,,,,,,,,0,,,91,0
67200,note_on,120,0,1,,,,,,,,,0,,,96,0
67200,time_signature,67170,1,0,8,4,24,8,,,,,,,,,
67200,control_change,0,0,1,,,,,,,,,0,64,127,,
67200,note_on,960,0,3,,,,,,,,,2,,,36,88
67200,end_of_track,0,1,0,,,,,,,,,,,,,
69120,note_on,1920,0,3,,,,,,,,,2,,,36,0
70560,end_of_track,0,1,3,,,,,,,,,,,,,
70560,control_change,3360,0,1,,,,,,,,,0,64,0,,
70560,end_of_track,0,1,1,,,,,,,,,,,,,
70560,control_change,1440,0,3,,,,,,,,,2,64,0,,
