tick,type,time,meta,track,numerator,denominator,clocks_per_click,notated_32nd_notes_per_beat,key,tempo,port,program,channel,control,value,note,velocity
0,control_change,0,0,1,,,,,,,,,0,7,127,,
0,key_signature,0,1,0,,,,,Eb,,,,,,,,
0,midi_port,0,1,1,,,,,,,0,,,,,,
0,midi_port,0,1,2,,,,,,,0,,,,,,
0,midi_port,0,1,3,,,,,,,0,,,,,,
0,midi_port,0,1,4,,,,,,,0,,,,,,
0,note_on,0,0,1,,,,,,,,,0,,,72,88
0,note_on,0,0,1,,,,,,,,,0,,,75,88
0,note_on,0,0,1,,,,,,,,,0,,,79,88
0,note_on,0,0,1,,,,,,,,,0,,,84,88
0,note_on,0,0,3,,,,,,,,,2,,,36,88
0,track_name,0,1,3,,,,,,,,,,,,,
0,program_change,0,0,1,,,,,,,,0,0,,,,
0,program_change,0,0,2,,,,,,,,0,1,,,,
0,program_change,0,0,3,,,,,,,,0,2,,,,
0,program_change,0,0,4,,,,,,,,0,3,,,,
0,set_tempo,0,1,0,,,,,,625000,,,,,,,
0,text,0,1,0,,,,,,,,,,,,,
0,time_signature,0,1,0,4,4,24,8,,,,,,,,,
0,track_name,0,1,0,,,,,,,,,,,,,
0,track_name,0,1,1,,,,,,,,,,,,,
0,track_name,0,1,2,,,,,,,,,,,,,
0,end_of_track,0,1,4,,,,,,,,,,,,,
0,copyright,0,1,0,,,,,,,,,,,,,
0,track_name,0,1,4,,,,,,,,,,,,,
0,control_change,0,0,3,,,,,,,,,2,10,30,,
0,control_change,0,0,1,,,,,,,,,0,10,97,,
0,control_change,0,0,2,,,,,,,,,1,10,97,,
0,control_change,0,0,2,,,,,,,,,1,7,127,,
0,control_change,0,0,3,,,,,,,,,2,7,127,,
0,control_change,0,0,4,,,,,,,,,3,7,127,,
0,control_change,0,0,4,,,,,,,,,3,10,30,,
1,copyright,1,1,5,,,,,,,,,,,,,
1,end_of_track,0,1,5,,,,,,,,,,,,,
39,set_tempo,39,1,0,,,,,,340909,,,,,,,
120,note_on,0,0,3,,,,,,,,,2,,,38,88
120,note_on,120,0,3,,,,,,,,,2,,,36,0
240,note_on,120,0,3,,,,,,,,,2,,,38,0
240,note_on,0,0,3,,,,,,,,,2,,,39,88
360,note_on,0,0,3,,,,,,,,,2,,,41,88
360,note_on,120,0,3,,,,,,,,,2,,,39,0
480,note_on,120,0,3,,,,,,,,,2,,,41,0
480,note_on,0,0,3,,,,,,,,,2,,,43,88
600,note_on,0,0,3,,,,,,,,,2,,,45,88
600,note_on,120,0,3,,,,,,,,,2,,,43,0
720,note_on,0,0,3,,,,,,,,,2,,,46,88
720,note_on,120,0,3,,,,,,,,,2,,,45,0
840,note_on,0,0,3,,,,,,,,,2,,,47,88
840,note_on,120,0,3,,,,,,,,,2,,,46,0
960,note_on,0,0,1,,,,,,,,,0,,,67,75
960,note_on,0,0,3,,,,,,,,,2,,,48,75
960,note_on,120,0,3,,,,,,,,,2,,,47,0
960,note_on,960,0,1,,,,,,,,,0,,,84,0
960,note_on,0,0,1,,,,,,,,,0,,,79,75
960,note_on,0,0,1,,,,,,,,,0,,,79,0
960,note_on,0,0,1,,,,,,,,,0,,,75,75
960,note_on,0,0,1,,,,,,,,,0,,,75,0
960,note_on,0,0,1,,,,,,,,,0,,,72,75
960,note_on,0,0,1,,,,,,,,,0,,,72,0
1080,note_on,0,0,3,,,,,,,,,2,,,50,75
1080,note_on,120,0,3,,,,,,,,,2,,,48,0
1200,note_on,120,0,3,,,,,,,,,2,,,50,0
1200,note_on,0,0,3,,,,,,,,,2,,,51,75
1320,note_on,0,0,3,,,,,,,,,2,,,53,75
1320,note_on,120,0,3,,,,,,,,,2,,,51,0
1440,note_on,0,0,3,,,,,,,,,2,,,55,75
1440,note_on,120,0,3,,,,,,,,,2,,,53,0
1560,note_on,0,0,3,,,,,,,,,2,,,57,75
1560,note_on,120,0,3,,,,,,,,,2,,,55,0
1680,note_on,120,0,3,,,,,,,,,2,,,57,0
1680,note_on,0,0,3,,,,,,,,,2,,,58,75
1800,note_on,0,0,3,,,,,,,,,2,,,59,75
1800,note_on,120,0,3,,,,,,,,,2,,,58,0
1920,note_on,0,0,1,,,,,,,,,0,,,75,62
1920,note_on,0,0,1,,,,,,,,,0,,,75,0
1920,note_on,0,0,1,,,,,,,,,0,,,72,0
1920,note_on,0,0,1,,,,,,,,,0,,,67,62
1920,note_on,120,0,3,,,,,,,,,2,,,59,0
1920,note_on,0,0,1,,,,,,,,,0,,,67,0
1920,note_on,0,0,1,,,,,,,,,0,,,63,62
1920,note_on,0,0,1,,,,,,,,,0,,,72,62
1920,note_on,960,0,1,,,,,,,,,0,,,79,0
1920,note_on,0,0,3,,,,,,,,,2,,,60,62
2040,note_on,0,0,3,,,,,,,,,2,,,55,62
2040,note_on,120,0,3,,,,,,,,,2,,,60,0
2160,note_on,240,0,1,,,,,,,,,0,,,75,0
2160,note_on,120,0,3,,,,,,,,,2,,,55,0
2160,note_on,0,0,1,,,,,,,,,0,,,63,0
2160,note_on,0,0,1,,,,,,,,,0,,,67,0
2160,note_on,0,0,1,,,,,,,,,0,,,72,0
2160,note_on,0,0,3,,,,,,,,,2,,,59,62
2280,note_on,0,0,3,,,,,,,,,2,,,60,62
2280,note_on,120,0,3,,,,,,,,,2,,,59,0
2400,note_on,240,0,1,,,,,,,,,0,,,67,62
2400,note_on,0,0,3,,,,,,,,,2,,,63,62
2400,note_on,120,0,3,,,,,,,,,2,,,60,0
2400,note_on,0,0,1,,,,,,,,,0,,,72,62
2520,note_on,0,0,3,,,,,,,,,2,,,55,62
2520,note_on,120,0,3,,,,,,,,,2,,,63,0
2640,note_on,0,0,3,,,,,,,,,2,,,62,62
2640,note_on,120,0,3,,,,,,,,,2,,,55,0
2760,note_on,120,0,3,,,,,,,,,2,,,62,0
2760,note_on,0,0,3,,,,,,,,,2,,,63,62
2880,note_on,120,0,3,,,,,,,,,2,,,63,0
2880,note_on,480,0,1,,,,,,,,,0,,,72,0
2880,note_on,0,0,1,,,,,,,,,0,,,71,62
2880,note_on,0,0,1,,,,,,,,,0,,,65,62
2880,note_on,0,0,1,,,,,,,,,0,,,67,0
2880,note_on,0,0,3,,,,,,,,,2,,,62,62
3000,note_on,120,0,3,,,,,,,,,2,,,62,0
3000,note_on,0,0,3,,,,,,,,,2,,,55,62
3120,note_on,120,0,3,,,,,,,,,2,,,55,0
3120,note_on,0,0,3,,,,,,,,,2,,,61,62
3240,note_on,0,0,3,,,,,,,,,2,,,62,62
3240,note_on,120,0,3,,,,,,,,,2,,,61,0
3360,note_on,480,0,1,,,,,,,,,0,,,71,0
3360,note_on,0,0,1,,,,,,,,,0,,,63,62
3360,note_on,0,0,1,,,,,,,,,0,,,65,0
3360,note_on,0,0,1,,,,,,,,,0,,,72,62
3360,note_on,120,0,3,,,,,,,,,2,,,62,0
3360,note_on,0,0,3,,,,,,,,,2,,,60,62
3480,note_on,0,0,3,,,,,,,,,2,,,55,62
3480,note_on,120,0,3,,,,,,,,,2,,,60,0
3600,note_on,120,0,3,,,,,,,,,2,,,55,0
3600,note_on,0,0,3,,,,,,,,,2,,,59,62
3720,note_on,0,0,3,,,,,,,,,2,,,60,62
3720,note_on,120,0,3,,,,,,,,,2,,,59,0
3840,note_on,120,0,3,,,,,,,,,2,,,60,0
3840,note_on,0,0,3,,,,,,,,,2,,,35,88
3840,note_on,480,0,1,,,,,,,,,0,,,72,0
3840,note_on,0,0,1,,,,,,,,,0,,,63,0
3840,note_on,0,0,1,,,,,,,,,0,,,86,88
3840,note_on,0,0,1,,,,,,,,,0,,,79,88
3840,note_on,0,0,1,,,,,,,,,0,,,77,88
3840,note_on,0,0,1,,,,,,,,,0,,,74,88
3960,note_on,120,0,3,,,,,,,,,2,,,35,0
3960,note_on,0,0,3,,,,,,,,,2,,,36,88
4080,note_on,120,0,3,,,,,,,,,2,,,36,0
4080,note_on,0,0,3,,,,,,,,,2,,,38,88
4200,note_on,120,0,3,,,,,,,,,2,,,38,0
4200,note_on,0,0,3,,,,,,,,,2,,,39,88
4320,note_on,120,0,3,,,,,,,,,2,,,39,0
4320,note_on,0,0,3,,,,,,,,,2,,,41,88
4440,note_on,0,0,3,,,,,,,,,2,,,43,88
4440,note_on,120,0,3,,,,,,,,,2,,,41,0
4560,note_on,0,0,3,,,,,,,,,2,,,45,88
4560,note_on,120,0,3,,,,,,,,,2,,,43,0
4680,note_on,0,0,3,,,,,,,,,2,,,46,88
4680,note_on,120,0,3,,,,,,,,,2,,,45,0
4800,note_on,0,0,1,,,,,,,,,0,,,67,75
4800,note_on,0,0,3,,,,,,,,,2,,,47,75
4800,note_on,120,0,3,,,,,,,,,2,,,46,0
4800,note_on,0,0,1,,,,,,,,,0,,,79,0
4800,note_on,0,0,1,,,,,,,,,0,,,79,75
4800,note_on,0,0,1,,,,,,,,,0,,,74,0
4800,note_on,0,0,1,,,,,,,,,0,,,77,75
4800,note_on,0,0,1,,,,,,,,,0,,,77,0
4800,note_on,0,0,1,,,,,,,,,0,,,74,75
4800,note_on,960,0,1,,,,,,,,,0,,,86,0
4920,note_on,120,0,3,,,,,,,,,2,,,47,0
4920,note_on,0,0,3,,,,,,,,,2,,,48,75
5040,note_on,0,0,3,,,,,,,,,2,,,50,75
5040,note_on,120,0,3,,,,,,,,,2,,,48,0
5160,note_on,120,0,3,,,,,,,,,2,,,50,0
5160,note_on,0,0,3,,,,,,,,,2,,,51,75
5280,note_on,120,0,3,,,,,,,,,2,,,51,0
5280,note_on,0,0,3,,,,,,,,,2,,,53,75
5400,note_on,0,0,3,,,,,,,,,2,,,55,75
5400,note_on,120,0,3,,,,,,,,,2,,,53,0
5520,note_on,0,0,3,,,,,,,,,2,,,57,75
5520,note_on,120,0,3,,,,,,,,,2,,,55,0
5640,note_on,120,0,3,,,,,,,,,2,,,57,0
5640,note_on,0,0,3,,,,,,,,,2,,,58,75
5760,note_on,0,0,1,,,,,,,,,0,,,65,62
5760,note_on,0,0,1,,,,,,,,,0,,,74,0
5760,note_on,0,0,1,,,,,,,,,0,,,67,62
5760,note_on,0,0,1,,,,,,,,,0,,,77,0
5760,note_on,0,0,1,,,,,,,,,0,,,74,62
5760,note_on,0,0,1,,,,,,,,,0,,,67,0
5760,note_on,960,0,1,,,,,,,,,0,,,79,0
5760,note_on,0,0,1,,,,,,,,,0,,,77,62
5760,note_on,0,0,3,,,,,,,,,2,,,59,62
5760,note_on,120,0,3,,,,,,,,,2,,,58,0
5880,note_on,0,0,3,,,,,,,,,2,,,55,62
5880,note_on,120,0,3,,,,,,,,,2,,,59,0
6000,note_on,0,0,1,,,,,,,,,0,,,67,0
6000,note_on,0,0,1,,,,,,,,,0,,,74,0
6000,note_on,0,0,1,,,,,,,,,0,,,65,0
6000,note_on,0,0,3,,,,,,,,,2,,,58,62
6000,note_on,240,0,1,,,,,,,,,0,,,77,0
6000,note_on,120,0,3,,,,,,,,,2,,,55,0
6120,note_on,0,0,3,,,,,,,,,2,,,59,62
6120,note_on,120,0,3,,,,,,,,,2,,,58,0
6240,note_on,0,0,3,,,,,,,,,2,,,65,62
6240,note_on,240,0,1,,,,,,,,,0,,,67,62
6240,note_on,0,0,1,,,,,,,,,0,,,74,62
6240,note_on,120,0,3,,,,,,,,,2,,,59,0
6360,note_on,120,0,3,,,,,,,,,2,,,65,0
6360,note_on,0,0,3,,,,,,,,,2,,,55,62
6480,note_on,120,0,3,,,,,,,,,2,,,55,0
6480,note_on,0,0,3,,,,,,,,,2,,,64,62
6600,note_on,0,0,3,,,,,,,,,2,,,65,62
6600,note_on,120,0,3,,,,,,,,,2,,,64,0
6720,note_on,120,0,3,,,,,,,,,2,,,65,0
6720,note_on,0,0,1,,,,,,,,,0,,,67,62
6720,note_on,0,0,1,,,,,,,,,0,,,72,62
6720,note_on,0,0,1,,,,,,,,,0,,,67,0
6720,note_on,0,0,3,,,,,,,,,2,,,63,62
6720,note_on,480,0,1,,,,,,,,,0,,,74,0
6840,note_on,0,0,3,,,,,,,,,2,,,55,62
6840,note_on,120,0,3,,,,,,,,,2,,,63,0
6960,note_on,120,0,3,,,,,,,,,2,,,55,0
6960,note_on,0,0,3,,,,,,,,,2,,,62,62
7080,note_on,120,0,3,,,,,,,,,2,,,62,0
7080,note_on,0,0,3,,,,,,,,,2,,,63,62
7200,note_on,120,0,3,,,,,,,,,2,,,63,0
7200,note_on,0,0,1,,,,,,,,,0,,,74,62
7200,note_on,0,0,1,,,,,,,,,0,,,67,62
7200,note_on,0,0,1,,,,,,,,,0,,,67,0
7200,note_on,480,0,1,,,,,,,,,0,,,72,0
7200,note_on,0,0,1,,,,,,,,,0,,,65,62
7200,note_on,0,0,3,,,,,,,,,2,,,59,62
7320,note_on,0,0,3,,,,,,,,,2,,,55,62
7320,note_on,120,0,3,,,,,,,,,2,,,59,0
7440,note_on,120,0,3,,,,,,,,,2,,,55,0
7440,note_on,0,0,3,,,,,,,,,2,,,58,62
7560,note_on,120,0,3,,,,,,,,,2,,,58,0
7560,note_on,0,0,3,,,,,,,,,2,,,59,62
7680,note_on,0,0,3,,,,,,,,,2,,,60,62
7680,note_on,120,0,3,,,,,,,,,2,,,59,0
7680,note_on,0,0,1,,,,,,,,,0,,,75,62
7680,note_on,0,0,1,,,,,,,,,0,,,72,62
7680,note_on,0,0,1,,,,,,,,,0,,,67,62
7680,note_on,0,0,1,,,,,,,,,0,,,67,0
7680,note_on,0,0,1,,,,,,,,,0,,,65,0
7680,note_on,480,0,1,,,,,,,,,0,,,74,0
7800,note_on,0,0,3,,,,,,,,,2,,,62,62
7800,note_on,120,0,3,,,,,,,,,2,,,60,0
7920,note_on,120,0,3,,,,,,,,,2,,,62,0
7920,note_on,0,0,3,,,,,,,,,2,,,63,62
8040,note_on,0,0,3,,,,,,,,,2,,,62,62
8040,note_on,120,0,3,,,,,,,,,2,,,63,0
8160,note_on,120,0,3,,,,,,,,,2,,,62,0
8160,note_on,0,0,3,,,,,,,,,2,,,60,62
8280,note_on,120,0,3,,,,,,,,,2,,,60,0
8280,note_on,0,0,3,,,,,,,,,2,,,62,62
8400,note_on,120,0,3,,,,,,,,,2,,,62,0
8400,note_on,0,0,3,,,,,,,,,2,,,58,62
8520,note_on,120,0,3,,,,,,,,,2,,,58,0
8520,note_on,0,0,3,,,,,,,,,2,,,60,62
8640,note_on,0,0,1,,,,,,,,,0,,,77,62
8640,note_on,0,0,1,,,,,,,,,0,,,67,0
8640,note_on,0,0,1,,,,,,,,,0,,,72,0
8640,note_on,0,0,2,,,,,,,,,1,,,72,49
8640,note_on,8640,0,2,,,,,,,,,1,,,65,49
8640,note_on,120,0,3,,,,,,,,,2,,,60,0
8640,note_on,0,0,3,,,,,,,,,2,,,56,62
8640,note_on,960,0,1,,,,,,,,,0,,,75,0
8760,note_on,0,0,3,,,,,,,,,2,,,58,62
8760,note_on,120,0,3,,,,,,,,,2,,,56,0
8880,note_on,0,0,3,,,,,,,,,2,,,60,62
8880,note_on,120,0,3,,,,,,,,,2,,,58,0
9000,note_on,0,0,3,,,,,,,,,2,,,58,62
9000,note_on,120,0,3,,,,,,,,,2,,,60,0
9120,note_on,120,0,3,,,,,,,,,2,,,58,0
9120,note_on,0,0,3,,,,,,,,,2,,,56,62
9240,note_on,0,0,3,,,,,,,,,2,,,58,62
9240,note_on,120,0,3,,,,,,,,,2,,,56,0
9360,note_on,720,0,1,,,,,,,,,0,,,77,0
9360,note_on,0,0,3,,,,,,,,,2,,,55,62
9360,note_on,120,0,3,,,,,,,,,2,,,58,0
9360,note_on,0,0,1,,,,,,,,,0,,,75,62
9480,note_on,120,0,3,,,,,,,,,2,,,55,0
9480,note_on,0,0,3,,,,,,,,,2,,,56,62
9600,note_on,0,0,2,,,,,,,,,1,,,65,0
9600,note_on,0,0,3,,,,,,,,,2,,,58,62
9600,note_on,240,0,1,,,,,,,,,0,,,75,0
9600,note_on,0,0,1,,,,,,,,,0,,,74,62
9600,note_on,120,0,3,,,,,,,,,2,,,56,0
9600,note_on,0,0,2,,,,,,,,,1,,,65,49
9600,note_on,960,0,2,,,,,,,,,1,,,72,0
9600,note_on,0,0,2,,,,,,,,,1,,,70,49
9720,note_on,120,0,3,,,,,,,,,2,,,58,0
9720,note_on,0,0,3,,,,,,,,,2,,,60,62
9840,note_on,0,0,3,,,,,,,,,2,,,58,62
9840,note_on,120,0,3,,,,,,,,,2,,,60,0
9960,note_on,0,0,3,,,,,,,,,2,,,56,62
9960,note_on,120,0,3,,,,,,,,,2,,,58,0
10080,note_on,120,0,3,,,,,,,,,2,,,56,0
10080,note_on,0,0,1,,,,,,,,,0,,,75,62
10080,note_on,480,0,1,,,,,,,,,0,,,74,0
10080,note_on,0,0,2,,,,,,,,,1,,,70,49
10080,note_on,0,0,2,,,,,,,,,1,,,65,0
10080,note_on,0,0,2,,,,,,,,,1,,,63,49
10080,note_on,0,0,3,,,,,,,,,2,,,55,62
10080,note_on,480,0,2,,,,,,,,,1,,,70,0
10200,note_on,0,0,3,,,,,,,,,2,,,51,62
10200,note_on,120,0,3,,,,,,,,,2,,,55,0
10320,note_on,0,0,1,,,,,,,,,0,,,74,62
10320,note_on,120,0,3,,,,,,,,,2,,,51,0
10320,note_on,240,0,1,,,,,,,,,0,,,75,0
10320,note_on,0,0,3,,,,,,,,,2,,,53,62
10440,note_on,120,0,3,,,,,,,,,2,,,53,0
10440,note_on,0,0,3,,,,,,,,,2,,,55,62
10560,note_on,0,0,2,,,,,,,,,1,,,63,49
10560,note_on,0,0,2,,,,,,,,,1,,,68,49
10560,note_on,120,0,3,,,,,,,,,2,,,55,0
10560,note_on,0,0,2,,,,,,,,,1,,,63,0
10560,note_on,0,0,3,,,,,,,,,2,,,56,62
10560,note_on,480,0,2,,,,,,,,,1,,,70,0
10560,note_on,240,0,1,,,,,,,,,0,,,74,0
10560,note_on,0,0,1,,,,,,,,,0,,,72,62
10680,note_on,0,0,3,,,,,,,,,2,,,58,62
10680,note_on,120,0,3,,,,,,,,,2,,,56,0
10800,note_on,0,0,3,,,,,,,,,2,,,56,62
10800,note_on,120,0,3,,,,,,,,,2,,,58,0
10920,note_on,0,0,3,,,,,,,,,2,,,55,62
10920,note_on,120,0,3,,,,,,,,,2,,,56,0
11040,note_on,0,0,2,,,,,,,,,1,,,68,49
11040,note_on,0,0,1,,,,,,,,,0,,,74,62
11040,note_on,0,0,3,,,,,,,,,2,,,53,62
11040,note_on,120,0,3,,,,,,,,,2,,,55,0
11040,note_on,0,0,2,,,,,,,,,1,,,63,0
11040,note_on,0,0,2,,,,,,,,,1,,,62,49
11040,note_on,480,0,1,,,,,,,,,0,,,72,0
11040,note_on,480,0,2,,,,,,,,,1,,,68,0
11160,note_on,120,0,3,,,,,,,,,2,,,53,0
11160,note_on,0,0,3,,,,,,,,,2,,,50,62
11280,note_on,0,0,1,,,,,,,,,0,,,72,62
11280,note_on,0,0,3,,,,,,,,,2,,,51,62
11280,note_on,240,0,1,,,,,,,,,0,,,74,0
11280,note_on,120,0,3,,,,,,,,,2,,,50,0
11400,note_on,0,0,3,,,,,,,,,2,,,53,62
11400,note_on,120,0,3,,,,,,,,,2,,,51,0
11520,note_on,480,0,2,,,,,,,,,1,,,68,0
11520,note_on,0,0,2,,,,,,,,,1,,,62,0
11520,note_on,0,0,2,,,,,,,,,1,,,68,49
11520,note_on,0,0,3,,,,,,,,,2,,,55,62
11520,note_on,240,0,1,,,,,,,,,0,,,72,0
11520,note_on,120,0,3,,,,,,,,,2,,,53,0
11520,note_on,0,0,1,,,,,,,,,0,,,70,62
11520,note_on,0,0,2,,,,,,,,,1,,,63,49
11640,note_on,0,0,3,,,,,,,,,2,,,56,62
11640,note_on,120,0,3,,,,,,,,,2,,,55,0
11760,note_on,120,0,3,,,,,,,,,2,,,56,0
11760,note_on,0,0,3,,,,,,,,,2,,,55,62
11880,note_on,0,0,3,,,,,,,,,2,,,53,62
11880,note_on,120,0,3,,,,,,,,,2,,,55,0
12000,note_on,0,0,3,,,,,,,,,2,,,52,62
12000,note_on,480,0,1,,,,,,,,,0,,,70,0
12000,note_on,480,0,2,,,,,,,,,1,,,68,0
12000,note_on,0,0,2,,,,,,,,,1,,,67,49
12000,note_on,120,0,3,,,,,,,,,2,,,53,0
12000,note_on,0,0,1,,,,,,,,,0,,,72,62
12000,note_on,0,0,2,,,,,,,,,1,,,63,0
12000,note_on,0,0,2,,,,,,,,,1,,,60,49
12120,note_on,120,0,3,,,,,,,,,2,,,52,0
12120,note_on,0,0,3,,,,,,,,,2,,,48,62
12240,note_on,0,0,1,,,,,,,,,0,,,70,62
12240,note_on,240,0,1,,,,,,,,,0,,,72,0
12240,note_on,120,0,3,,,,,,,,,2,,,48,0
12240,note_on,0,0,3,,,,,,,,,2,,,50,62
12360,note_on,120,0,3,,,,,,,,,2,,,50,0
12360,note_on,0,0,3,,,,,,,,,2,,,52,62
12480,note_on,480,0,2,,,,,,,,,1,,,67,0
12480,note_on,0,0,1,,,,,,,,,0,,,68,62
12480,note_on,0,0,3,,,,,,,,,2,,,53,62
12480,note_on,240,0,1,,,,,,,,,0,,,70,0
12480,note_on,120,0,3,,,,,,,,,2,,,52,0
12480,note_on,0,0,2,,,,,,,,,1,,,60,49
12480,note_on,0,0,2,,,,,,,,,1,,,65,49
12480,note_on,0,0,2,,,,,,,,,1,,,60,0
12600,note_on,120,0,3,,,,,,,,,2,,,53,0
12600,note_on,0,0,3,,,,,,,,,2,,,55,62
12720,note_on,120,0,3,,,,,,,,,2,,,55,0
12720,note_on,0,0,3,,,,,,,,,2,,,53,62
12840,note_on,120,0,3,,,,,,,,,2,,,53,0
12840,note_on,0,0,3,,,,,,,,,2,,,51,62
12960,note_on,0,0,1,,,,,,,,,0,,,70,62
12960,note_on,0,0,2,,,,,,,,,1,,,58,49
12960,note_on,480,0,1,,,,,,,,,0,,,68,0
12960,note_on,0,0,2,,,,,,,,,1,,,65,49
12960,note_on,0,0,2,,,,,,,,,1,,,60,0
12960,note_on,480,0,2,,,,,,,,,1,,,65,0
12960,note_on,120,0,3,,,,,,,,,2,,,51,0
12960,note_on,0,0,3,,,,,,,,,2,,,50,62
13080,note_on,0,0,3,,,,,,,,,2,,,46,62
13080,note_on,120,0,3,,,,,,,,,2,,,50,0
13200,note_on,240,0,1,,,,,,,,,0,,,70,0
13200,note_on,120,0,3,,,,,,,,,2,,,46,0
13200,note_on,0,0,3,,,,,,,,,2,,,48,62
13200,note_on,0,0,1,,,,,,,,,0,,,68,62
13320,note_on,0,0,3,,,,,,,,,2,,,50,62
13320,note_on,120,0,3,,,,,,,,,2,,,48,0
13440,note_on,0,0,3,,,,,,,,,2,,,51,62
13440,note_on,240,0,1,,,,,,,,,0,,,68,0
13440,note_on,480,0,2,,,,,,,,,1,,,65,0
13440,note_on,0,0,1,,,,,,,,,0,,,67,62
13440,note_on,0,0,2,,,,,,,,,1,,,63,49
13440,note_on,0,0,2,,,,,,,,,1,,,58,49
13440,note_on,0,0,2,,,,,,,,,1,,,58,0
13440,note_on,120,0,3,,,,,,,,,2,,,50,0
13560,note_on,120,0,3,,,,,,,,,2,,,51,0
13560,note_on,0,0,3,,,,,,,,,2,,,53,62
13680,note_on,120,0,3,,,,,,,,,2,,,53,0
13680,note_on,0,0,3,,,,,,,,,2,,,51,62
13800,note_on,120,0,3,,,,,,,,,2,,,51,0
13800,note_on,0,0,3,,,,,,,,,2,,,50,62
13920,note_on,0,0,3,,,,,,,,,2,,,48,62
13920,note_on,480,0,2,,,,,,,,,1,,,63,0
13920,note_on,480,0,1,,,,,,,,,0,,,67,0
13920,note_on,0,0,1,,,,,,,,,0,,,68,62
13920,note_on,0,0,2,,,,,,,,,1,,,58,0
13920,note_on,0,0,2,,,,,,,,,1,,,56,49
13920,note_on,0,0,2,,,,,,,,,1,,,63,49
13920,note_on,120,0,3,,,,,,,,,2,,,50,0
14040,note_on,0,0,3,,,,,,,,,2,,,44,62
14040,note_on,120,0,3,,,,,,,,,2,,,48,0
14160,note_on,0,0,1,,,,,,,,,0,,,67,62
14160,note_on,240,0,1,,,,,,,,,0,,,68,0
14160,note_on,120,0,3,,,,,,,,,2,,,44,0
14160,note_on,0,0,3,,,,,,,,,2,,,46,62
14280,note_on,0,0,3,,,,,,,,,2,,,48,62
14280,note_on,120,0,3,,,,,,,,,2,,,46,0
14400,note_on,0,0,3,,,,,,,,,2,,,50,62
14400,note_on,480,0,2,,,,,,,,,1,,,63,0
14400,note_on,240,0,1,,,,,,,,,0,,,67,0
14400,note_on,0,0,1,,,,,,,,,0,,,56,88
14400,note_on,0,0,1,,,,,,,,,0,,,62,88
14400,note_on,0,0,2,,,,,,,,,1,,,56,0
14400,note_on,0,0,1,,,,,,,,,0,,,65,88
14400,note_on,120,0,3,,,,,,,,,2,,,48,0
14520,note_on,120,0,3,,,,,,,,,2,,,50,0
14520,note_on,0,0,3,,,,,,,,,2,,,49,62
14640,note_on,0,0,3,,,,,,,,,2,,,50,62
14640,note_on,120,0,3,,,,,,,,,2,,,49,0
14760,note_on,0,0,3,,,,,,,,,2,,,51,62
14760,note_on,120,0,3,,,,,,,,,2,,,50,0
14880,note_on,0,0,1,,,,,,,,,0,,,56,0
14880,note_on,480,0,1,,,,,,,,,0,,,65,0
14880,note_on,120,0,3,,,,,,,,,2,,,51,0
14880,note_on,0,0,1,,,,,,,,,0,,,62,88
14880,note_on,0,0,1,,,,,,,,,0,,,62,0
14880,note_on,0,0,1,,,,,,,,,0,,,57,88
14880,note_on,0,0,1,,,,,,,,,0,,,66,88
14880,note_on,0,0,3,,,,,,,,,2,,,50,62
15000,note_on,0,0,3,,,,,,,,,2,,,48,62
15000,note_on,120,0,3,,,,,,,,,2,,,50,0
15120,note_on,120,0,3,,,,,,,,,2,,,48,0
15120,note_on,0,0,3,,,,,,,,,2,,,47,62
15240,note_on,0,0,3,,,,,,,,,2,,,45,62
15240,note_on,120,0,3,,,,,,,,,2,,,47,0
15360,note_on,0,0,3,,,,,,,,,2,,,43,62
15360,note_on,480,0,1,,,,,,,,,0,,,66,0
15360,note_on,0,0,1,,,,,,,,,0,,,59,88
15360,note_on,0,0,1,,,,,,,,,0,,,57,0
15360,note_on,0,0,1,,,,,,,,,0,,,67,88
15360,note_on,120,0,3,,,,,,,,,2,,,45,0
15360,note_on,0,0,1,,,,,,,,,0,,,62,0
15360,note_on,0,0,1,,,,,,,,,0,,,62,88
15600,note_on,0,0,3,,,,,,,,,2,,,45,62
15600,note_on,240,0,3,,,,,,,,,2,,,43,0
15720,note_on,0,0,3,,,,,,,,,2,,,47,62
15720,note_on,120,0,3,,,,,,,,,2,,,45,0
15840,note_on,0,0,1,,,,,,,,,0,,,59,0
15840,note_on,0,0,1,,,,,,,,,0,,,62,0
15840,note_on,480,0,1,,,,,,,,,0,,,67,0
15840,note_on,120,0,3,,,,,,,,,2,,,47,0
15840,note_on,0,0,3,,,,,,,,,2,,,48,62
15960,note_on,0,0,3,,,,,,,,,2,,,50,62
15960,note_on,120,0,3,,,,,,,,,2,,,48,0
16080,note_on,0,0,3,,,,,,,,,2,,,52,62
16080,note_on,120,0,3,,,,,,,,,2,,,50,0
16200,note_on,0,0,3,,,,,,,,,2,,,54,62
16200,note_on,120,0,3,,,,,,,,,2,,,52,0
16320,note_on,120,0,3,,,,,,,,,2,,,54,0
16320,note_on,0,0,3,,,,,,,,,2,,,55,62
16440,note_on,120,0,3,,,,,,,,,2,,,55,0
16440,note_on,0,0,3,,,,,,,,,2,,,57,62
16560,note_on,120,0,3,,,,,,,,,2,,,57,0
16560,note_on,0,0,3,,,,,,,,,2,,,59,62
16680,note_on,120,0,3,,,,,,,,,2,,,59,0
16680,note_on,0,0,3,,,,,,,,,2,,,60,62
16800,note_on,120,0,3,,,,,,,,,2,,,60,0
16800,note_on,0,0,3,,,,,,,,,2,,,62,62
16920,note_on,0,0,3,,,,,,,,,2,,,64,62
16920,note_on,120,0,3,,,,,,,,,2,,,62,0
17040,note_on,120,0,3,,,,,,,,,2,,,64,0
17040,note_on,0,0,3,,,,,,,,,2,,,65,62
17160,note_on,120,0,3,,,,,,,,,2,,,65,0
17160,note_on,0,0,3,,,,,,,,,2,,,66,62
17280,note_on,0,0,3,,,,,,,,,2,,,67,62
17280,note_on,120,0,3,,,,,,,,,2,,,66,0
17280,note_on,0,0,1,,,,,,,,,0,,,75,62
17280,note_on,1440,0,1,,,,,,,,,0,,,72,62
17280,note_on,0,0,1,,,,,,,,,0,,,81,62
17280,note_on,0,0,1,,,,,,,,,0,,,78,62
17400,note_on,0,0,3,,,,,,,,,2,,,68,62
17400,note_on,120,0,3,,,,,,,,,2,,,67,0
17520,note_on,0,0,3,,,,,,,,,2,,,69,62
17520,note_on,120,0,3,,,,,,,,,2,,,68,0
17640,note_on,120,0,3,,,,,,,,,2,,,69,0
17640,note_on,0,0,3,,,,,,,,,2,,,67,62
17760,note_on,120,0,3,,,,,,,,,2,,,67,0
17760,note_on,0,0,3,,,,,,,,,2,,,66,62
17880,note_on,120,0,3,,,,,,,,,2,,,66,0
17880,note_on,0,0,3,,,,,,,,,2,,,64,62
18000,note_on,120,0,3,,,,,,,,,2,,,64,0
18000,note_on,0,0,3,,,,,,,,,2,,,62,62
18120,note_on,0,0,3,,,,,,,,,2,,,60,62
18120,note_on,120,0,3,,,,,,,,,2,,,62,0
18240,note_on,0,0,1,,,,,,,,,0,,,72,62
18240,note_on,120,0,3,,,,,,,,,2,,,60,0
18240,note_on,0,0,1,,,,,,,,,0,,,74,62
18240,note_on,960,0,1,,,,,,,,,0,,,81,0
18240,note_on,0,0,1,,,,,,,,,0,,,72,0
18240,note_on,0,0,1,,,,,,,,,0,,,78,0
18240,note_on,0,0,1,,,,,,,,,0,,,75,0
18240,note_on,0,0,1,,,,,,,,,0,,,84,62
18240,note_on,0,0,3,,,,,,,,,2,,,59,62
18240,note_on,0,0,1,,,,,,,,,0,,,81,62
18360,note_on,0,0,3,,,,,,,,,2,,,57,62
18360,note_on,120,0,3,,,,,,,,,2,,,59,0
18480,note_on,120,0,3,,,,,,,,,2,,,57,0
18480,note_on,0,0,3,,,,,,,,,2,,,55,62
18600,note_on,120,0,3,,,,,,,,,2,,,55,0
18600,note_on,0,0,3,,,,,,,,,2,,,54,62
18720,note_on,120,0,3,,,,,,,,,2,,,54,0
18720,note_on,0,0,3,,,,,,,,,2,,,52,62
18840,note_on,0,0,3,,,,,,,,,2,,,50,62
18840,note_on,120,0,3,,,,,,,,,2,,,52,0
18960,note_on,120,0,3,,,,,,,,,2,,,50,0
18960,note_on,0,0,3,,,,,,,,,2,,,52,62
19080,note_on,0,0,3,,,,,,,,,2,,,54,62
19080,note_on,120,0,3,,,,,,,,,2,,,52,0
19200,note_on,120,0,3,,,,,,,,,2,,,54,0
19200,note_on,960,0,1,,,,,,,,,0,,,84,0
19200,note_on,0,0,1,,,,,,,,,0,,,83,62
19200,note_on,0,0,1,,,,,,,,,0,,,81,0
19200,note_on,0,0,1,,,,,,,,,0,,,71,62
19200,note_on,0,0,1,,,,,,,,,0,,,72,0
19200,note_on,0,0,3,,,,,,,,,2,,,55,62
19200,note_on,0,0,1,,,,,,,,,0,,,79,62
19200,note_on,0,0,1,,,,,,,,,0,,,74,0
19200,note_on,0,0,1,,,,,,,,,0,,,74,62
19320,note_on,0,0,3,,,,,,,,,2,,,43,62
19320,note_on,120,0,3,,,,,,,,,2,,,55,0
19440,note_on,0,0,3,,,,,,,,,2,,,45,62
19440,note_on,120,0,3,,,,,,,,,2,,,43,0
19560,note_on,0,0,3,,,,,,,,,2,,,47,62
19560,note_on,120,0,3,,,,,,,,,2,,,45,0
19680,note_on,0,0,1,,,,,,,,,0,,,71,0
19680,note_on,480,0,1,,,,,,,,,0,,,83,0
19680,note_on,0,0,1,,,,,,,,,0,,,79,0
19680,note_on,0,0,1,,,,,,,,,0,,,74,0
19680,note_on,120,0,3,,,,,,,,,2,,,47,0
19680,note_on,0,0,3,,,,,,,,,2,,,48,62
19800,note_on,120,0,3,,,,,,,,,2,,,48,0
19800,note_on,0,0,3,,,,,,,,,2,,,50,62
19920,note_on,120,0,3,,,,,,,,,2,,,50,0
19920,note_on,0,0,3,,,,,,,,,2,,,52,62
20040,note_on,0,0,3,,,,,,,,,2,,,54,62
20040,note_on,120,0,3,,,,,,,,,2,,,52,0
20160,note_on,0,0,3,,,,,,,,,2,,,55,62
20160,note_on,120,0,3,,,,,,,,,2,,,54,0
20280,note_on,0,0,3,,,,,,,,,2,,,57,62
20280,note_on,120,0,3,,,,,,,,,2,,,55,0
20400,note_on,0,0,3,,,,,,,,,2,,,59,62
20400,note_on,120,0,3,,,,,,,,,2,,,57,0
20520,note_on,120,0,3,,,,,,,,,2,,,59,0
20520,note_on,0,0,3,,,,,,,,,2,,,60,62
20640,note_on,0,0,3,,,,,,,,,2,,,62,62
20640,note_on,120,0,3,,,,,,,,,2,,,60,0
20760,note_on,0,0,3,,,,,,,,,2,,,64,62
20760,note_on,120,0,3,,,,,,,,,2,,,62,0
20880,note_on,0,0,3,,,,,,,,,2,,,65,62
20880,note_on,120,0,3,,,,,,,,,2,,,64,0
21000,note_on,120,0,3,,,,,,,,,2,,,65,0
21000,note_on,0,0,3,,,,,,,,,2,,,66,62
21120,note_on,0,0,1,,,,,,,,,0,,,78,62
21120,note_on,120,0,3,,,,,,,,,2,,,66,0
21120,note_on,0,0,1,,,,,,,,,0,,,81,62
21120,note_on,0,0,3,,,,,,,,,2,,,67,62
21120,note_on,1440,0,1,,,,,,,,,0,,,72,62
21120,note_on,0,0,1,,,,,,,,,0,,,75,62
21240,note_on,120,0,3,,,,,,,,,2,,,67,0
21240,note_on,0,0,3,,,,,,,,,2,,,68,62
21360,note_on,120,0,3,,,,,,,,,2,,,68,0
21360,note_on,0,0,3,,,,,,,,,2,,,69,62
21480,note_on,120,0,3,,,,,,,,,2,,,69,0
21480,note_on,0,0,3,,,,,,,,,2,,,67,62
21600,note_on,0,0,3,,,,,,,,,2,,,66,62
21600,note_on,120,0,3,,,,,,,,,2,,,67,0
21720,note_on,0,0,3,,,,,,,,,2,,,64,62
21720,note_on,120,0,3,,,,,,,,,2,,,66,0
21840,note_on,120,0,3,,,,,,,,,2,,,64,0
21840,note_on,0,0,3,,,,,,,,,2,,,62,62
21960,note_on,120,0,3,,,,,,,,,2,,,62,0
21960,note_on,0,0,3,,,,,,,,,2,,,60,62
22080,note_on,0,0,1,,,,,,,,,0,,,78,0
22080,note_on,0,0,3,,,,,,,,,2,,,59,62
22080,note_on,0,0,1,,,,,,,,,0,,,72,0
22080,note_on,0,0,1,,,,,,,,,0,,,72,62
22080,note_on,0,0,1,,,,,,,,,0,,,74,62
22080,note_on,0,0,1,,,,,,,,,0,,,75,0
22080,note_on,0,0,1,,,,,,,,,0,,,81,62
22080,note_on,0,0,1,,,,,,,,,0,,,84,62
22080,note_on,960,0,1,,,,,,,,,0,,,81,0
22080,note_on,120,0,3,,,,,,,,,2,,,60,0
22200,note_on,0,0,3,,,,,,,,,2,,,57,62
22200,note_on,120,0,3,,,,,,,,,2,,,59,0
22320,note_on,0,0,3,,,,,,,,,2,,,55,62
22320,note_on,120,0,3,,,,,,,,,2,,,57,0
22440,note_on,0,0,3,,,,,,,,,2,,,54,62
22440,note_on,120,0,3,,,,,,,,,2,,,55,0
22560,note_on,0,0,3,,,,,,,,,2,,,52,62
22560,note_on,120,0,3,,,,,,,,,2,,,54,0
22680,note_on,0,0,3,,,,,,,,,2,,,50,62
22680,note_on,120,0,3,,,,,,,,,2,,,52,0
22800,note_on,120,0,3,,,,,,,,,2,,,50,0
22800,note_on,0,0,3,,,,,,,,,2,,,52,62
22920,note_on,0,0,3,,,,,,,,,2,,,54,62
22920,note_on,120,0,3,,,,,,,,,2,,,52,0
23040,note_on,0,0,3,,,,,,,,,2,,,55,62
23040,note_on,0,0,1,,,,,,,,,0,,,79,62
23040,note_on,0,0,1,,,,,,,,,0,,,72,0
23040,note_on,0,0,1,,,,,,,,,0,,,71,62
23040,note_on,0,0,1,,,,,,,,,0,,,74,0
23040,note_on,0,0,1,,,,,,,,,0,,,74,62
23040,note_on,0,0,1,,,,,,,,,0,,,81,0
23040,note_on,0,0,1,,,,,,,,,0,,,83,62
23040,note_on,120,0,3,,,,,,,,,2,,,54,0
23040,note_on,960,0,1,,,,,,,,,0,,,84,0
23280,note_on,0,0,1,,,,,,,,,0,,,71,0
23280,note_on,0,0,1,,,,,,,,,0,,,74,0
23280,note_on,0,0,3,,,,,,,,,2,,,43,62
23280,note_on,0,0,1,,,,,,,,,0,,,79,0
23280,note_on,240,0,1,,,,,,,,,0,,,83,0
23280,note_on,240,0,3,,,,,,,,,2,,,55,0
23280,note_on,0,0,1,,,,,,,,,0,,,55,62
23400,note_on,120,0,3,,,,,,,,,2,,,43,0
23400,note_on,0,0,3,,,,,,,,,2,,,45,62
23400,note_on,0,0,1,,,,,,,,,0,,,57,62
23400,note_on,120,0,1,,,,,,,,,0,,,55,0
23520,note_on,120,0,1,,,,,,,,,0,,,57,0
23520,note_on,0,0,1,,,,,,,,,0,,,59,62
23520,note_on,120,0,3,,,,,,,,,2,,,45,0
23520,note_on,0,0,3,,,,,,,,,2,,,47,62
23640,note_on,0,0,3,,,,,,,,,2,,,48,62
23640,note_on,120,0,3,,,,,,,,,2,,,47,0
23640,note_on,120,0,1,,,,,,,,,0,,,59,0
23640,note_on,0,0,1,,,,,,,,,0,,,60,62
23760,note_on,0,0,3,,,,,,,,,2,,,50,62
23760,note_on,120,0,1,,,,,,,,,0,,,60,0
23760,note_on,120,0,3,,,,,,,,,2,,,48,0
23760,note_on,0,0,1,,,,,,,,,0,,,62,62
23880,note_on,0,0,3,,,,,,,,,2,,,51,62
23880,note_on,120,0,1,,,,,,,,,0,,,62,0
23880,note_on,120,0,3,,,,,,,,,2,,,50,0
23880,note_on,0,0,1,,,,,,,,,0,,,63,62
24000,note_on,0,0,3,,,,,,,,,2,,,53,75
24000,note_on,120,0,1,,,,,,,,,0,,,63,0
24000,note_on,120,0,3,,,,,,,,,2,,,51,0
24000,note_on,0,0,1,,,,,,,,,0,,,65,75
24120,note_on,120,0,1,,,,,,,,,0,,,65,0
24120,note_on,0,0,3,,,,,,,,,2,,,55,75
24120,note_on,120,0,3,,,,,,,,,2,,,53,0
24120,note_on,0,0,1,,,,,,,,,0,,,67,75
24240,note_on,0,0,1,,,,,,,,,0,,,68,75
24240,note_on,0,0,3,,,,,,,,,2,,,56,75
24240,note_on,120,0,1,,,,,,,,,0,,,67,0
24240,note_on,120,0,3,,,,,,,,,2,,,55,0
24360,note_on,0,0,3,,,,,,,,,2,,,55,75
24360,note_on,120,0,1,,,,,,,,,0,,,68,0
24360,note_on,0,0,1,,,,,,,,,0,,,67,75
24360,note_on,120,0,3,,,,,,,,,2,,,56,0
24480,note_on,120,0,3,,,,,,,,,2,,,55,0
24480,note_on,0,0,3,,,,,,,,,2,,,53,88
24480,note_on,0,0,1,,,,,,,,,0,,,65,88
24480,note_on,120,0,1,,,,,,,,,0,,,67,0
24600,note_on,120,0,3,,,,,,,,,2,,,53,0
24600,note_on,120,0,1,,,,,,,,,0,,,65,0
24600,note_on,0,0,3,,,,,,,,,2,,,51,88
24600,note_on,0,0,1,,,,,,,,,0,,,63,88
24720,note_on,120,0,1,,,,,,,,,0,,,63,0
24720,note_on,0,0,1,,,,,,,,,0,,,62,88
24720,note_on,0,0,3,,,,,,,,,2,,,50,88
24720,note_on,120,0,3,,,,,,,,,2,,,51,0
24840,note_on,120,0,3,,,,,,,,,2,,,50,0
24840,note_on,0,0,3,,,,,,,,,2,,,48,88
24840,note_on,0,0,1,,,,,,,,,0,,,60,88
24840,note_on,120,0,1,,,,,,,,,0,,,62,0
24960,note_on,120,0,3,,,,,,,,,2,,,48,0
24960,note_on,0,0,3,,,,,,,,,2,,,47,88
24960,note_on,120,0,1,,,,,,,,,0,,,60,0
24960,note_on,0,0,1,,,,,,,,,0,,,59,88
25080,note_on,120,0,3,,,,,,,,,2,,,47,0
25080,note_on,120,0,1,,,,,,,,,0,,,59,0
25080,note_on,0,0,1,,,,,,,,,0,,,60,88
25080,note_on,0,0,3,,,,,,,,,2,,,48,88
25200,note_on,0,0,3,,,,,,,,,2,,,50,88
25200,note_on,0,0,1,,,,,,,,,0,,,62,88
25200,note_on,120,0,3,,,,,,,,,2,,,48,0
25200,note_on,120,0,1,,,,,,,,,0,,,60,0
25320,note_on,0,0,1,,,,,,,,,0,,,63,88
25320,note_on,120,0,3,,,,,,,,,2,,,50,0
25320,note_on,0,0,3,,,,,,,,,2,,,51,88
25320,note_on,120,0,1,,,,,,,,,0,,,62,0
25440,note_on,120,0,1,,,,,,,,,0,,,63,0
25440,note_on,0,0,1,,,,,,,,,0,,,65,75
25440,note_on,0,0,3,,,,,,,,,2,,,53,75
25440,note_on,120,0,3,,,,,,,,,2,,,51,0
25560,note_on,120,0,1,,,,,,,,,0,,,65,0
25560,note_on,0,0,3,,,,,,,,,2,,,55,75
25560,note_on,0,0,1,,,,,,,,,0,,,67,75
25560,note_on,120,0,3,,,,,,,,,2,,,53,0
25680,note_on,0,0,1,,,,,,,,,0,,,68,75
25680,note_on,120,0,1,,,,,,,,,0,,,67,0
25680,note_on,0,0,3,,,,,,,,,2,,,56,75
25680,note_on,120,0,3,,,,,,,,,2,,,55,0
25800,note_on,120,0,3,,,,,,,,,2,,,56,0
25800,note_on,0,0,1,,,,,,,,,0,,,67,75
25800,note_on,0,0,3,,,,,,,,,2,,,55,75
25800,note_on,120,0,1,,,,,,,,,0,,,68,0
25920,note_on,120,0,3,,,,,,,,,2,,,55,0
25920,note_on,0,0,1,,,,,,,,,0,,,65,75
25920,note_on,0,0,3,,,,,,,,,2,,,53,75
25920,note_on,120,0,1,,,,,,,,,0,,,67,0
26040,note_on,0,0,1,,,,,,,,,0,,,63,75
26040,note_on,120,0,1,,,,,,,,,0,,,65,0
26040,note_on,120,0,3,,,,,,,,,2,,,53,0
26040,note_on,0,0,3,,,,,,,,,2,,,51,75
26160,note_on,0,0,1,,,,,,,,,0,,,62,75
26160,note_on,0,0,3,,,,,,,,,2,,,50,75
26160,note_on,120,0,3,,,,,,,,,2,,,51,0
26160,note_on,120,0,1,,,,,,,,,0,,,63,0
26280,note_on,120,0,1,,,,,,,,,0,,,62,0
26280,note_on,0,0,1,,,,,,,,,0,,,60,75
26280,note_on,120,0,3,,,,,,,,,2,,,50,0
26280,note_on,0,0,3,,,,,,,,,2,,,48,75
26400,note_on,0,0,1,,,,,,,,,0,,,59,62
26400,note_on,120,0,1,,,,,,,,,0,,,60,0
26400,note_on,120,0,3,,,,,,,,,2,,,48,0
26400,note_on,0,0,3,,,,,,,,,2,,,47,62
26520,note_on,120,0,3,,,,,,,,,2,,,47,0
26520,note_on,120,0,1,,,,,,,,,0,,,59,0
26520,note_on,0,0,1,,,,,,,,,0,,,60,62
26520,note_on,0,0,3,,,,,,,,,2,,,48,62
26640,note_on,120,0,1,,,,,,,,,0,,,60,0
26640,note_on,0,0,3,,,,,,,,,2,,,50,62
26640,note_on,120,0,3,,,,,,,,,2,,,48,0
26640,note_on,0,0,1,,,,,,,,,0,,,62,62
26760,note_on,0,0,1,,,,,,,,,0,,,63,62
26760,note_on,120,0,3,,,,,,,,,2,,,50,0
26760,note_on,120,0,1,,,,,,,,,0,,,62,0
26760,note_on,0,0,3,,,,,,,,,2,,,51,62
26880,note_on,0,0,1,,,,,,,,,0,,,65,62
26880,note_on,120,0,1,,,,,,,,,0,,,63,0
26880,note_on,120,0,3,,,,,,,,,2,,,51,0
26880,note_on,0,0,3,,,,,,,,,2,,,53,62
27000,note_on,120,0,1,,,,,,,,,0,,,65,0
27000,note_on,120,0,3,,,,,,,,,2,,,53,0
27000,note_on,0,0,3,,,,,,,,,2,,,55,62
27000,note_on,0,0,1,,,,,,,,,0,,,67,62
27120,note_on,120,0,1,,,,,,,,,0,,,67,0
27120,note_on,0,0,3,,,,,,,,,2,,,56,62
27120,note_on,120,0,3,,,,,,,,,2,,,55,0
27120,note_on,0,0,1,,,,,,,,,0,,,68,62
27240,note_on,0,0,3,,,,,,,,,2,,,55,62
27240,note_on,0,0,1,,,,,,,,,0,,,67,62
27240,note_on,120,0,3,,,,,,,,,2,,,56,0
27240,note_on,120,0,1,,,,,,,,,0,,,68,0
27360,note_on,120,0,1,,,,,,,,,0,,,67,0
27360,note_on,0,0,1,,,,,,,,,0,,,65,62
27360,note_on,120,0,3,,,,,,,,,2,,,55,0
27360,note_on,0,0,3,,,,,,,,,2,,,53,62
27480,note_on,120,0,1,,,,,,,,,0,,,65,0
27480,note_on,0,0,3,,,,,,,,,2,,,51,62
27480,note_on,120,0,3,,,,,,,,,2,,,53,0
27480,note_on,0,0,1,,,,,,,,,0,,,63,62
27600,note_on,0,0,3,,,,,,,,,2,,,50,62
27600,note_on,120,0,3,,,,,,,,,2,,,51,0
27600,note_on,0,0,1,,,,,,,,,0,,,62,62
27600,note_on,120,0,1,,,,,,,,,0,,,63,0
27720,note_on,120,0,3,,,,,,,,,2,,,50,0
27720,note_on,0,0,3,,,,,,,,,2,,,48,62
27720,note_on,0,0,1,,,,,,,,,0,,,60,62
27720,note_on,120,0,1,,,,,,,,,0,,,62,0
27840,note_on,120,0,3,,,,,,,,,2,,,48,0
27840,note_on,0,0,3,,,,,,,,,2,,,47,62
27840,note_on,13440,0,2,,,,,,,,,1,,,59,49
27840,note_on,120,0,1,,,,,,,,,0,,,60,0
27960,note_on,0,0,3,,,,,,,,,2,,,44,62
27960,note_on,120,0,3,,,,,,,,,2,,,47,0
27960,note_on,120,0,2,,,,,,,,,1,,,59,0
27960,note_on,0,0,2,,,,,,,,,1,,,56,49
28080,note_on,120,0,3,,,,,,,,,2,,,44,0
28080,note_on,0,0,2,,,,,,,,,1,,,55,49
28080,note_on,0,0,3,,,,,,,,,2,,,43,62
28080,note_on,120,0,2,,,,,,,,,1,,,56,0
28200,note_on,120,0,3,,,,,,,,,2,,,43,0
28200,note_on,0,0,2,,,,,,,,,1,,,53,49
28200,note_on,0,0,3,,,,,,,,,2,,,41,62
28200,note_on,120,0,2,,,,,,,,,1,,,55,0
28320,note_on,120,0,2,,,,,,,,,1,,,53,0
28320,note_on,120,0,3,,,,,,,,,2,,,41,0
28320,note_on,0,0,2,,,,,,,,,1,,,51,49
28320,note_on,0,0,3,,,,,,,,,2,,,39,62
28440,note_on,120,0,3,,,,,,,,,2,,,39,0
28440,note_on,0,0,3,,,,,,,,,2,,,38,62
28440,note_on,0,0,2,,,,,,,,,1,,,50,49
28440,note_on,120,0,2,,,,,,,,,1,,,51,0
28560,note_on,120,0,3,,,,,,,,,2,,,38,0
28560,note_on,120,0,2,,,,,,,,,1,,,50,0
28560,note_on,0,0,3,,,,,,,,,2,,,36,62
28560,note_on,0,0,2,,,,,,,,,1,,,48,49
28680,note_on,120,0,2,,,,,,,,,1,,,48,0
28680,note_on,0,0,3,,,,,,,,,2,,,35,62
28680,note_on,120,0,3,,,,,,,,,2,,,36,0
28680,note_on,0,0,2,,,,,,,,,1,,,47,49
28800,note_on,120,0,3,,,,,,,,,2,,,35,0
28800,note_on,120,0,2,,,,,,,,,1,,,47,0
28800,note_on,0,0,3,,,,,,,,,2,,,32,62
28800,note_on,0,0,2,,,,,,,,,1,,,44,49
28920,note_on,0,0,2,,,,,,,,,1,,,43,49
28920,note_on,120,0,2,,,,,,,,,1,,,44,0
28920,note_on,120,0,3,,,,,,,,,2,,,32,0
28920,note_on,0,0,3,,,,,,,,,2,,,31,62
29040,note_on,120,0,3,,,,,,,,,2,,,31,0
29040,note_on,0,0,3,,,,,,,,,2,,,30,62
29040,note_on,120,0,2,,,,,,,,,1,,,43,0
29040,note_on,0,0,2,,,,,,,,,1,,,42,49
29160,note_on,120,0,2,,,,,,,,,1,,,42,0
29160,note_on,0,0,2,,,,,,,,,1,,,43,49
29160,note_on,0,0,3,,,,,,,,,2,,,31,62
29160,note_on,120,0,3,,,,,,,,,2,,,30,0
29280,note_on,120,0,3,,,,,,,,,2,,,31,0
29280,note_on,0,0,2,,,,,,,,,1,,,45,49
29280,note_on,120,0,2,,,,,,,,,1,,,43,0
29280,note_on,0,0,3,,,,,,,,,2,,,33,62
29400,note_on,120,0,3,,,,,,,,,2,,,33,0
29400,note_on,0,0,2,,,,,,,,,1,,,47,49
29400,note_on,120,0,2,,,,,,,,,1,,,45,0
29400,note_on,0,0,3,,,,,,,,,2,,,35,62
29520,note_on,0,0,2,,,,,,,,,1,,,48,49
29520,note_on,120,0,3,,,,,,,,,2,,,35,0
29520,note_on,0,0,3,,,,,,,,,2,,,36,62
29520,note_on,120,0,2,,,,,,,,,1,,,47,0
29640,note_on,0,0,2,,,,,,,,,1,,,50,49
29640,note_on,120,0,2,,,,,,,,,1,,,48,0
29640,note_on,0,0,3,,,,,,,,,2,,,38,62
29640,note_on,120,0,3,,,,,,,,,2,,,36,0
29760,note_on,0,0,2,,,,,,,,,1,,,51,49
29760,note_on,120,0,2,,,,,,,,,1,,,50,0
29760,note_on,0,0,3,,,,,,,,,2,,,39,62
29760,note_on,120,0,3,,,,,,,,,2,,,38,0
29880,note_on,0,0,3,,,,,,,,,2,,,40,62
29880,note_on,0,0,2,,,,,,,,,1,,,52,49
29880,note_on,120,0,3,,,,,,,,,2,,,39,0
29880,note_on,120,0,2,,,,,,,,,1,,,51,0
30000,note_on,120,0,3,,,,,,,,,2,,,40,0
30000,note_on,0,0,3,,,,,,,,,2,,,41,62
30000,note_on,0,0,2,,,,,,,,,1,,,53,49
30000,note_on,120,0,2,,,,,,,,,1,,,52,0
30120,note_on,120,0,3,,,,,,,,,2,,,41,0
30120,note_on,0,0,3,,,,,,,,,2,,,42,62
30120,note_on,120,0,2,,,,,,,,,1,,,53,0
30120,note_on,0,0,2,,,,,,,,,1,,,54,49
30240,note_on,0,0,2,,,,,,,,,1,,,55,49
30240,note_on,0,0,3,,,,,,,,,2,,,43,62
30240,note_on,120,0,3,,,,,,,,,2,,,42,0
30240,note_on,120,0,2,,,,,,,,,1,,,54,0
30360,note_on,0,0,2,,,,,,,,,1,,,53,49
30360,note_on,120,0,2,,,,,,,,,1,,,55,0
30360,note_on,0,0,3,,,,,,,,,2,,,41,62
30360,note_on,120,0,3,,,,,,,,,2,,,43,0
30480,note_on,120,0,2,,,,,,,,,1,,,53,0
30480,note_on,0,0,2,,,,,,,,,1,,,51,49
30480,note_on,120,0,3,,,,,,,,,2,,,41,0
30480,note_on,0,0,3,,,,,,,,,2,,,39,62
30600,note_on,120,0,3,,,,,,,,,2,,,39,0
30600,note_on,0,0,2,,,,,,,,,1,,,50,49
30600,note_on,120,0,2,,,,,,,,,1,,,51,0
30600,note_on,0,0,3,,,,,,,,,2,,,38,62
30720,note_on,120,0,3,,,,,,,,,2,,,38,0
30720,note_on,0,0,1,,,,,,,,,0,,,84,88
30720,note_on,120,0,2,,,,,,,,,1,,,50,0
30720,note_on,0,0,3,,,,,,,,,2,,,36,88
30720,note_on,2880,0,1,,,,,,,,,0,,,72,88
30840,note_on,120,0,3,,,,,,,,,2,,,36,0
30840,note_on,0,0,3,,,,,,,,,2,,,38,88
30960,note_on,0,0,3,,,,,,,,,2,,,39,88
30960,note_on,120,0,3,,,,,,,,,2,,,38,0
31080,note_on,0,0,3,,,,,,,,,2,,,41,88
31080,note_on,120,0,3,,,,,,,,,2,,,39,0
31200,note_on,0,0,3,,,,,,,,,2,,,43,88
31200,note_on,120,0,3,,,,,,,,,2,,,41,0
31320,note_on,120,0,3,,,,,,,,,2,,,43,0
31320,note_on,0,0,3,,,,,,,,,2,,,45,88
31440,note_on,120,0,3,,,,,,,,,2,,,45,0
31440,note_on,0,0,3,,,,,,,,,2,,,46,88
31560,note_on,120,0,3,,,,,,,,,2,,,46,0
31560,note_on,0,0,3,,,,,,,,,2,,,47,88
31680,note_on,0,0,1,,,,,,,,,0,,,75,75
31680,note_on,960,0,1,,,,,,,,,0,,,84,0
31680,note_on,0,0,3,,,,,,,,,2,,,48,75
31680,note_on,0,0,1,,,,,,,,,0,,,72,0
31680,note_on,0,0,1,,,,,,,,,0,,,79,75
31680,note_on,120,0,3,,,,,,,,,2,,,47,0
31680,note_on,0,0,1,,,,,,,,,0,,,67,75
31680,note_on,0,0,1,,,,,,,,,0,,,72,75
31800,note_on,120,0,3,,,,,,,,,2,,,48,0
31800,note_on,0,0,3,,,,,,,,,2,,,50,75
31920,note_on,120,0,3,,,,,,,,,2,,,50,0
31920,note_on,0,0,3,,,,,,,,,2,,,51,75
32040,note_on,120,0,3,,,,,,,,,2,,,51,0
32040,note_on,0,0,3,,,,,,,,,2,,,53,75
32160,note_on,0,0,3,,,,,,,,,2,,,55,75
32160,note_on,120,0,3,,,,,,,,,2,,,53,0
32280,note_on,120,0,3,,,,,,,,,2,,,55,0
32280,note_on,0,0,3,,,,,,,,,2,,,57,75
32400,note_on,0,0,3,,,,,,,,,2,,,58,75
32400,note_on,120,0,3,,,,,,,,,2,,,57,0
32520,note_on,0,0,3,,,,,,,,,2,,,59,75
32520,note_on,120,0,3,,,,,,,,,2,,,58,0
32640,note_on,0,0,3,,,,,,,,,2,,,60,62
32640,note_on,0,0,1,,,,,,,,,0,,,63,62
32640,note_on,960,0,1,,,,,,,,,0,,,79,0
32640,note_on,0,0,1,,,,,,,,,0,,,67,62
32640,note_on,0,0,1,,,,,,,,,0,,,72,0
32640,note_on,0,0,1,,,,,,,,,0,,,72,62
32640,note_on,0,0,1,,,,,,,,,0,,,75,0
32640,note_on,0,0,1,,,,,,,,,0,,,75,62
32640,note_on,120,0,3,,,,,,,,,2,,,59,0
32640,note_on,0,0,1,,,,,,,,,0,,,67,0
32760,note_on,120,0,3,,,,,,,,,2,,,60,0
32760,note_on,0,0,3,,,,,,,,,2,,,55,62
32880,note_on,120,0,3,,,,,,,,,2,,,55,0
32880,note_on,240,0,1,,,,,,,,,0,,,75,0
32880,note_on,0,0,1,,,,,,,,,0,,,67,0
32880,note_on,0,0,1,,,,,,,,,0,,,63,0
32880,note_on,0,0,1,,,,,,,,,0,,,72,0
32880,note_on,0,0,3,,,,,,,,,2,,,59,62
33000,note_on,0,0,3,,,,,,,,,2,,,60,62
33000,note_on,120,0,3,,,,,,,,,2,,,59,0
33120,note_on,0,0,3,,,,,,,,,2,,,63,62
33120,note_on,240,0,1,,,,,,,,,0,,,67,62
33120,note_on,120,0,3,,,,,,,,,2,,,60,0
33120,note_on,0,0,1,,,,,,,,,0,,,72,62
33240,note_on,0,0,3,,,,,,,,,2,,,55,62
33240,note_on,120,0,3,,,,,,,,,2,,,63,0
33360,note_on,0,0,3,,,,,,,,,2,,,62,62
33360,note_on,120,0,3,,,,,,,,,2,,,55,0
33480,note_on,120,0,3,,,,,,,,,2,,,62,0
33480,note_on,0,0,3,,,,,,,,,2,,,63,62
33600,note_on,480,0,1,,,,,,,,,0,,,72,0
33600,note_on,0,0,3,,,,,,,,,2,,,62,62
33600,note_on,0,0,1,,,,,,,,,0,,,71,62
33600,note_on,0,0,1,,,,,,,,,0,,,67,0
33600,note_on,120,0,3,,,,,,,,,2,,,63,0
33600,note_on,0,0,1,,,,,,,,,0,,,65,62
33720,note_on,120,0,3,,,,,,,,,2,,,62,0
33720,note_on,0,0,3,,,,,,,,,2,,,55,62
33840,note_on,120,0,3,,,,,,,,,2,,,55,0
33840,note_on,0,0,3,,,,,,,,,2,,,61,62
33960,note_on,120,0,3,,,,,,,,,2,,,61,0
33960,note_on,0,0,3,,,,,,,,,2,,,62,62
34080,note_on,480,0,1,,,,,,,,,0,,,71,0
34080,note_on,120,0,3,,,,,,,,,2,,,62,0
34080,note_on,0,0,1,,,,,,,,,0,,,65,0
34080,note_on,0,0,1,,,,,,,,,0,,,63,62
34080,note_on,0,0,1,,,,,,,,,0,,,72,62
34080,note_on,0,0,3,,,,,,,,,2,,,60,62
34200,note_on,0,0,3,,,,,,,,,2,,,55,62
34200,note_on,120,0,3,,,,,,,,,2,,,60,0
34320,note_on,120,0,3,,,,,,,,,2,,,55,0
34320,note_on,0,0,3,,,,,,,,,2,,,59,62
34440,note_on,0,0,3,,,,,,,,,2,,,60,62
34440,note_on,120,0,3,,,,,,,,,2,,,59,0
34560,note_on,120,0,3,,,,,,,,,2,,,60,0
34560,note_on,480,0,1,,,,,,,,,0,,,72,0
34560,note_on,0,0,3,,,,,,,,,2,,,35,88
34560,note_on,0,0,1,,,,,,,,,0,,,86,88
34560,note_on,0,0,1,,,,,,,,,0,,,79,88
34560,note_on,0,0,1,,,,,,,,,0,,,77,88
34560,note_on,0,0,1,,,,,,,,,0,,,74,88
34560,note_on,0,0,1,,,,,,,,,0,,,63,0
34680,note_on,0,0,3,,,,,,,,,2,,,36,88
34680,note_on,120,0,3,,,,,,,,,2,,,35,0
34800,note_on,0,0,3,,,,,,,,,2,,,38,88
34800,note_on,120,0,3,,,,,,,,,2,,,36,0
34920,note_on,0,0,3,,,,,,,,,2,,,39,88
34920,note_on,120,0,3,,,,,,,,,2,,,38,0
35040,note_on,0,0,3,,,,,,,,,2,,,41,88
35040,note_on,120,0,3,,,,,,,,,2,,,39,0
35160,note_on,0,0,3,,,,,,,,,2,,,43,88
35160,note_on,120,0,3,,,,,,,,,2,,,41,0
35280,note_on,120,0,3,,,,,,,,,2,,,43,0
35280,note_on,0,0,3,,,,,,,,,2,,,45,88
35400,note_on,0,0,3,,,,,,,,,2,,,46,88
35400,note_on,120,0,3,,,,,,,,,2,,,45,0
35520,note_on,0,0,3,,,,,,,,,2,,,47,75
35520,note_on,120,0,3,,,,,,,,,2,,,46,0
35520,note_on,0,0,1,,,,,,,,,0,,,79,75
35520,note_on,0,0,1,,,,,,,,,0,,,74,0
35520,note_on,0,0,1,,,,,,,,,0,,,79,0
35520,note_on,960,0,1,,,,,,,,,0,,,86,0
35520,note_on,0,0,1,,,,,,,,,0,,,74,75
35520,note_on,0,0,1,,,,,,,,,0,,,77,0
35520,note_on,0,0,1,,,,,,,,,0,,,77,75
35520,note_on,0,0,1,,,,,,,,,0,,,67,75
35640,note_on,120,0,3,,,,,,,,,2,,,47,0
35640,note_on,0,0,3,,,,,,,,,2,,,48,75
35760,note_on,0,0,3,,,,,,,,,2,,,50,75
35760,note_on,120,0,3,,,,,,,,,2,,,48,0
35880,note_on,120,0,3,,,,,,,,,2,,,50,0
35880,note_on,0,0,3,,,,,,,,,2,,,51,75
36000,note_on,0,0,3,,,,,,,,,2,,,53,75
36000,note_on,120,0,3,,,,,,,,,2,,,51,0
36120,note_on,0,0,3,,,,,,,,,2,,,55,75
36120,note_on,120,0,3,,,,,,,,,2,,,53,0
36240,note_on,120,0,3,,,,,,,,,2,,,55,0
36240,note_on,0,0,3,,,,,,,,,2,,,57,75
36360,note_on,0,0,3,,,,,,,,,2,,,58,75
36360,note_on,120,0,3,,,,,,,,,2,,,57,0
36480,note_on,0,0,3,,,,,,,,,2,,,59,62
36480,note_on,0,0,1,,,,,,,,,0,,,77,0
36480,note_on,0,0,1,,,,,,,,,0,,,74,62
36480,note_on,120,0,3,,,,,,,,,2,,,58,0
36480,note_on,0,0,1,,,,,,,,,0,,,74,0
36480,note_on,0,0,1,,,,,,,,,0,,,67,62
36480,note_on,960,0,1,,,,,,,,,0,,,79,0
36480,note_on,0,0,1,,,,,,,,,0,,,67,0
36480,note_on,0,0,1,,,,,,,,,0,,,77,62
36480,note_on,0,0,1,,,,,,,,,0,,,65,62
36600,note_on,0,0,3,,,,,,,,,2,,,55,62
36600,note_on,120,0,3,,,,,,,,,2,,,59,0
36720,note_on,0,0,1,,,,,,,,,0,,,67,0
36720,note_on,0,0,1,,,,,,,,,0,,,74,0
36720,note_on,240,0,1,,,,,,,,,0,,,77,0
36720,note_on,120,0,3,,,,,,,,,2,,,55,0
36720,note_on,0,0,3,,,,,,,,,2,,,58,62
36720,note_on,0,0,1,,,,,,,,,0,,,65,0
36840,note_on,120,0,3,,,,,,,,,2,,,58,0
36840,note_on,0,0,3,,,,,,,,,2,,,59,62
36960,note_on,240,0,1,,,,,,,,,0,,,68,62
36960,note_on,0,0,1,,,,,,,,,0,,,74,62
36960,note_on,120,0,3,,,,,,,,,2,,,59,0
36960,note_on,0,0,3,,,,,,,,,2,,,65,62
37080,note_on,0,0,3,,,,,,,,,2,,,55,62
37080,note_on,120,0,3,,,,,,,,,2,,,65,0
37200,note_on,0,0,3,,,,,,,,,2,,,64,62
37200,note_on,120,0,3,,,,,,,,,2,,,55,0
37320,note_on,0,0,3,,,,,,,,,2,,,65,62
37320,note_on,120,0,3,,,,,,,,,2,,,64,0
37440,note_on,0,0,3,,,,,,,,,2,,,63,62
37440,note_on,0,0,1,,,,,,,,,0,,,72,62
37440,note_on,480,0,1,,,,,,,,,0,,,74,0
37440,note_on,120,0,3,,,,,,,,,2,,,65,0
37440,note_on,0,0,1,,,,,,,,,0,,,68,0
37440,note_on,0,0,1,,,,,,,,,0,,,67,62
37560,note_on,0,0,3,,,,,,,,,2,,,55,62
37560,note_on,120,0,3,,,,,,,,,2,,,63,0
37680,note_on,0,0,3,,,,,,,,,2,,,62,62
37680,note_on,120,0,3,,,,,,,,,2,,,55,0
37800,note_on,120,0,3,,,,,,,,,2,,,62,0
37800,note_on,0,0,3,,,,,,,,,2,,,63,62
37920,note_on,0,0,1,,,,,,,,,0,,,67,62
37920,note_on,480,0,1,,,,,,,,,0,,,72,0
37920,note_on,0,0,3,,,,,,,,,2,,,59,62
37920,note_on,0,0,1,,,,,,,,,0,,,65,62
37920,note_on,0,0,1,,,,,,,,,0,,,67,0
37920,note_on,120,0,3,,,,,,,,,2,,,63,0
37920,note_on,0,0,1,,,,,,,,,0,,,74,62
38040,note_on,120,0,3,,,,,,,,,2,,,59,0
38040,note_on,0,0,3,,,,,,,,,2,,,55,62
38160,note_on,120,0,3,,,,,,,,,2,,,55,0
38160,note_on,0,0,3,,,,,,,,,2,,,58,62
38280,note_on,0,0,3,,,,,,,,,2,,,59,62
38280,note_on,120,0,3,,,,,,,,,2,,,58,0
38400,note_on,0,0,1,,,,,,,,,0,,,72,62
38400,note_on,120,0,3,,,,,,,,,2,,,59,0
38400,note_on,480,0,1,,,,,,,,,0,,,74,0
38400,note_on,0,0,1,,,,,,,,,0,,,67,0
38400,note_on,0,0,1,,,,,,,,,0,,,67,62
38400,note_on,0,0,1,,,,,,,,,0,,,75,62
38400,note_on,0,0,1,,,,,,,,,0,,,65,0
38400,note_on,0,0,3,,,,,,,,,2,,,60,62
38520,note_on,120,0,3,,,,,,,,,2,,,60,0
38520,note_on,0,0,3,,,,,,,,,2,,,62,62
38640,note_on,120,0,3,,,,,,,,,2,,,62,0
38640,note_on,0,0,3,,,,,,,,,2,,,63,62
38760,note_on,0,0,3,,,,,,,,,2,,,62,62
38760,note_on,120,0,3,,,,,,,,,2,,,63,0
38880,note_on,120,0,3,,,,,,,,,2,,,62,0
38880,note_on,0,0,3,,,,,,,,,2,,,60,62
39000,note_on,120,0,3,,,,,,,,,2,,,60,0
39000,note_on,0,0,3,,,,,,,,,2,,,62,62
39120,note_on,0,0,3,,,,,,,,,2,,,58,62
39120,note_on,120,0,3,,,,,,,,,2,,,62,0
39240,note_on,0,0,3,,,,,,,,,2,,,60,62
39240,note_on,120,0,3,,,,,,,,,2,,,58,0
39360,note_on,8640,0,2,,,,,,,,,1,,,65,49
39360,note_on,0,0,3,,,,,,,,,2,,,56,62
39360,note_on,120,0,3,,,,,,,,,2,,,60,0
39360,note_on,0,0,1,,,,,,,,,0,,,67,0
39360,note_on,0,0,1,,,,,,,,,0,,,72,0
39360,note_on,960,0,1,,,,,,,,,0,,,75,0
39360,note_on,0,0,2,,,,,,,,,1,,,72,49
39360,note_on,0,0,1,,,,,,,,,0,,,77,62
39480,note_on,120,0,3,,,,,,,,,2,,,56,0
39480,note_on,0,0,3,,,,,,,,,2,,,58,62
39600,note_on,120,0,3,,,,,,,,,2,,,58,0
39600,note_on,0,0,3,,,,,,,,,2,,,60,62
39720,note_on,120,0,3,,,,,,,,,2,,,60,0
39720,note_on,0,0,3,,,,,,,,,2,,,58,62
39840,note_on,120,0,3,,,,,,,,,2,,,58,0
39840,note_on,0,0,3,,,,,,,,,2,,,56,62
39960,note_on,0,0,3,,,,,,,,,2,,,58,62
39960,note_on,120,0,3,,,,,,,,,2,,,56,0
40080,note_on,720,0,1,,,,,,,,,0,,,77,0
40080,note_on,0,0,3,,,,,,,,,2,,,55,62
40080,note_on,0,0,1,,,,,,,,,0,,,75,62
40080,note_on,120,0,3,,,,,,,,,2,,,58,0
40200,note_on,0,0,3,,,,,,,,,2,,,56,62
40200,note_on,120,0,3,,,,,,,,,2,,,55,0
40320,note_on,0,0,1,,,,,,,,,0,,,70,62
40320,note_on,0,0,3,,,,,,,,,2,,,58,62
40320,note_on,960,0,2,,,,,,,,,1,,,72,0
40320,note_on,240,0,1,,,,,,,,,0,,,75,0
40320,note_on,0,0,1,,,,,,,,,0,,,65,62
40320,note_on,0,0,1,,,,,,,,,0,,,74,62
40320,note_on,120,0,3,,,,,,,,,2,,,56,0
40320,note_on,0,0,2,,,,,,,,,1,,,65,0
40440,note_on,0,0,3,,,,,,,,,2,,,60,62
40440,note_on,120,0,3,,,,,,,,,2,,,58,0
40560,note_on,120,0,3,,,,,,,,,2,,,60,0
40560,note_on,0,0,3,,,,,,,,,2,,,62,62
40680,note_on,120,0,3,,,,,,,,,2,,,62,0
40680,note_on,0,0,3,,,,,,,,,2,,,60,62
40800,note_on,120,0,3,,,,,,,,,2,,,60,0
40800,note_on,0,0,3,,,,,,,,,2,,,58,62
40920,note_on,0,0,3,,,,,,,,,2,,,60,62
40920,note_on,120,0,3,,,,,,,,,2,,,58,0
41040,note_on,0,0,3,,,,,,,,,2,,,56,62
41040,note_on,120,0,3,,,,,,,,,2,,,60,0
41160,note_on,0,0,3,,,,,,,,,2,,,58,62
41160,note_on,120,0,3,,,,,,,,,2,,,56,0
41280,note_on,0,0,1,,,,,,,,,0,,,65,0
41280,note_on,120,0,3,,,,,,,,,2,,,58,0
41280,note_on,0,0,1,,,,,,,,,0,,,75,62
41280,note_on,960,0,2,,,,,,,,,1,,,63,49
41280,note_on,960,0,1,,,,,,,,,0,,,74,0
41280,note_on,0,0,1,,,,,,,,,0,,,70,0
41280,note_on,0,0,3,,,,,,,,,2,,,55,62
41280,note_on,0,0,2,,,,,,,,,1,,,70,49
41400,note_on,120,0,3,,,,,,,,,2,,,55,0
41400,note_on,0,0,3,,,,,,,,,2,,,56,62
41520,note_on,120,0,3,,,,,,,,,2,,,56,0
41520,note_on,0,0,3,,,,,,,,,2,,,58,62
41640,note_on,120,0,3,,,,,,,,,2,,,58,0
41640,note_on,0,0,3,,,,,,,,,2,,,56,62
41760,note_on,0,0,3,,,,,,,,,2,,,55,62
41760,note_on,120,0,3,,,,,,,,,2,,,56,0
41880,note_on,120,0,3,,,,,,,,,2,,,55,0
41880,note_on,0,0,3,,,,,,,,,2,,,56,62
42000,note_on,0,0,3,,,,,,,,,2,,,53,62
42000,note_on,0,0,1,,,,,,,,,0,,,74,62
42000,note_on,120,0,3,,,,,,,,,2,,,56,0
42000,note_on,720,0,1,,,,,,,,,0,,,75,0
42120,note_on,0,0,3,,,,,,,,,2,,,55,62
42120,note_on,120,0,3,,,,,,,,,2,,,53,0
42240,note_on,0,0,1,,,,,,,,,0,,,72,62
42240,note_on,240,0,1,,,,,,,,,0,,,74,0
42240,note_on,0,0,2,,,,,,,,,1,,,63,0
42240,note_on,0,0,3,,,,,,,,,2,,,56,62
42240,note_on,0,0,2,,,,,,,,,1,,,68,49
42240,note_on,0,0,2,,,,,,,,,1,,,63,49
42240,note_on,960,0,2,,,,,,,,,1,,,70,0
42240,note_on,120,0,3,,,,,,,,,2,,,55,0
42360,note_on,0,0,3,,,,,,,,,2,,,58,62
42360,note_on,120,0,3,,,,,,,,,2,,,56,0
42480,note_on,120,0,3,,,,,,,,,2,,,58,0
42480,note_on,0,0,3,,,,,,,,,2,,,56,62
42600,note_on,120,0,3,,,,,,,,,2,,,56,0
42600,note_on,0,0,3,,,,,,,,,2,,,55,62
42720,note_on,0,0,3,,,,,,,,,2,,,53,62
42720,note_on,480,0,2,,,,,,,,,1,,,68,0
42720,note_on,0,0,2,,,,,,,,,1,,,68,49
42720,note_on,0,0,2,,,,,,,,,1,,,63,0
42720,note_on,120,0,3,,,,,,,,,2,,,55,0
42720,note_on,0,0,2,,,,,,,,,1,,,62,49
42720,note_on,480,0,1,,,,,,,,,0,,,72,0
42720,note_on,0,0,1,,,,,,,,,0,,,74,62
42840,note_on,120,0,3,,,,,,,,,2,,,53,0
42840,note_on,0,0,3,,,,,,,,,2,,,50,62
42960,note_on,0,0,3,,,,,,,,,2,,,51,62
42960,note_on,240,0,1,,,,,,,,,0,,,74,0
42960,note_on,120,0,3,,,,,,,,,2,,,50,0
42960,note_on,0,0,1,,,,,,,,,0,,,72,62
43080,note_on,0,0,3,,,,,,,,,2,,,53,62
43080,note_on,120,0,3,,,,,,,,,2,,,51,0
43200,note_on,120,0,3,,,,,,,,,2,,,53,0
43200,note_on,0,0,2,,,,,,,,,1,,,67,49
43200,note_on,0,0,2,,,,,,,,,1,,,62,49
43200,note_on,0,0,2,,,,,,,,,1,,,62,0
43200,note_on,240,0,1,,,,,,,,,0,,,72,0
43200,note_on,0,0,3,,,,,,,,,2,,,55,62
43200,note_on,0,0,1,,,,,,,,,0,,,70,62
43200,note_on,480,0,2,,,,,,,,,1,,,68,0
43320,note_on,0,0,3,,,,,,,,,2,,,56,62
43320,note_on,120,0,3,,,,,,,,,2,,,55,0
43440,note_on,120,0,3,,,,,,,,,2,,,56,0
43440,note_on,0,0,3,,,,,,,,,2,,,55,62
43560,note_on,0,0,3,,,,,,,,,2,,,53,62
43560,note_on,120,0,3,,,,,,,,,2,,,55,0
43680,note_on,0,0,2,,,,,,,,,1,,,60,49
43680,note_on,120,0,3,,,,,,,,,2,,,53,0
43680,note_on,0,0,1,,,,,,,,,0,,,72,62
43680,note_on,480,0,1,,,,,,,,,0,,,70,0
43680,note_on,480,0,2,,,,,,,,,1,,,67,0
43680,note_on,0,0,2,,,,,,,,,1,,,62,0
43680,note_on,0,0,3,,,,,,,,,2,,,52,62
43680,note_on,0,0,2,,,,,,,,,1,,,67,49
43800,note_on,120,0,3,,,,,,,,,2,,,52,0
43800,note_on,0,0,3,,,,,,,,,2,,,48,62
43920,note_on,240,0,1,,,,,,,,,0,,,72,0
43920,note_on,0,0,1,,,,,,,,,0,,,70,62
43920,note_on,120,0,3,,,,,,,,,2,,,48,0
43920,note_on,0,0,3,,,,,,,,,2,,,50,62
44040,note_on,0,0,3,,,,,,,,,2,,,52,62
44040,note_on,120,0,3,,,,,,,,,2,,,50,0
44160,note_on,0,0,3,,,,,,,,,2,,,53,62
44160,note_on,0,0,1,,,,,,,,,0,,,60,62
44160,note_on,480,0,2,,,,,,,,,1,,,67,0
44160,note_on,0,0,1,,,,,,,,,0,,,65,62
44160,note_on,0,0,1,,,,,,,,,0,,,68,62
44160,note_on,0,0,2,,,,,,,,,1,,,60,0
44160,note_on,120,0,3,,,,,,,,,2,,,52,0
44160,note_on,240,0,1,,,,,,,,,0,,,70,0
44280,note_on,120,0,3,,,,,,,,,2,,,53,0
44280,note_on,0,0,3,,,,,,,,,2,,,55,62
44400,note_on,0,0,3,,,,,,,,,2,,,53,62
44400,note_on,120,0,3,,,,,,,,,2,,,55,0
44520,note_on,0,0,3,,,,,,,,,2,,,51,62
44520,note_on,120,0,3,,,,,,,,,2,,,53,0
44640,note_on,120,0,3,,,,,,,,,2,,,51,0
44640,note_on,0,0,1,,,,,,,,,0,,,60,0
44640,note_on,0,0,1,,,,,,,,,0,,,65,0
44640,note_on,0,0,1,,,,,,,,,0,,,70,62
44640,note_on,0,0,2,,,,,,,,,1,,,65,49
44640,note_on,0,0,3,,,,,,,,,2,,,50,62
44640,note_on,480,0,2,,,,,,,,,1,,,58,49
44640,note_on,480,0,1,,,,,,,,,0,,,68,0
44760,note_on,120,0,3,,,,,,,,,2,,,50,0
44760,note_on,0,0,3,,,,,,,,,2,,,46,62
44880,note_on,120,0,3,,,,,,,,,2,,,46,0
44880,note_on,240,0,1,,,,,,,,,0,,,70,0
44880,note_on,0,0,3,,,,,,,,,2,,,48,62
44880,note_on,0,0,1,,,,,,,,,0,,,68,62
45000,note_on,0,0,3,,,,,,,,,2,,,50,62
45000,note_on,120,0,3,,,,,,,,,2,,,48,0
45120,note_on,0,0,2,,,,,,,,,1,,,58,0
45120,note_on,120,0,3,,,,,,,,,2,,,50,0
45120,control_change,0,0,1,,,,,,,,,0,64,127,,
45120,note_on,480,0,2,,,,,,,,,1,,,65,0
45120,note_on,240,0,1,,,,,,,,,0,,,68,0
45120,note_on,0,0,1,,,,,,,,,0,,,58,49
45120,note_on,0,0,3,,,,,,,,,2,,,51,49
45120,note_on,0,0,1,,,,,,,,,0,,,66,49
45120,note_on,0,0,1,,,,,,,,,0,,,63,49
45240,note_on,0,0,3,,,,,,,,,2,,,53,49
45240,note_on,120,0,3,,,,,,,,,2,,,51,0
45360,note_on,0,0,3,,,,,,,,,2,,,54,49
45360,note_on,120,0,3,,,,,,,,,2,,,53,0
45480,note_on,120,0,3,,,,,,,,,2,,,54,0
45480,note_on,0,0,3,,,,,,,,,2,,,53,49
45600,note_on,0,0,3,,,,,,,,,2,,,51,49
45600,note_on,120,0,3,,,,,,,,,2,,,53,0
45720,note_on,0,0,3,,,,,,,,,2,,,49,49
45720,note_on,120,0,3,,,,,,,,,2,,,51,0
45840,note_on,120,0,3,,,,,,,,,2,,,49,0
45840,note_on,0,0,3,,,,,,,,,2,,,47,49
45960,note_on,0,0,3,,,,,,,,,2,,,46,49
45960,note_on,120,0,3,,,,,,,,,2,,,47,0
46080,note_on,0,0,1,,,,,,,,,0,,,58,0
46080,note_on,0,0,1,,,,,,,,,0,,,59,49
46080,note_on,0,0,1,,,,,,,,,0,,,63,0
46080,note_on,0,0,1,,,,,,,,,0,,,63,49
46080,note_on,0,0,1,,,,,,,,,0,,,66,49
46080,note_on,0,0,3,,,,,,,,,2,,,44,49
46080,note_on,120,0,3,,,,,,,,,2,,,46,0
46080,note_on,960,0,1,,,,,,,,,0,,,66,0
46200,note_on,0,0,3,,,,,,,,,2,,,46,49
46200,note_on,120,0,3,,,,,,,,,2,,,44,0
46320,note_on,0,0,3,,,,,,,,,2,,,47,49
46320,note_on,120,0,3,,,,,,,,,2,,,46,0
46440,note_on,0,0,3,,,,,,,,,2,,,46,49
46440,note_on,120,0,3,,,,,,,,,2,,,47,0
46560,note_on,0,0,3,,,,,,,,,2,,,44,49
46560,note_on,120,0,3,,,,,,,,,2,,,46,0
46680,note_on,0,0,3,,,,,,,,,2,,,42,49
46680,note_on,120,0,3,,,,,,,,,2,,,44,0
46800,note_on,120,0,3,,,,,,,,,2,,,42,0
46800,note_on,0,0,3,,,,,,,,,2,,,41,49
46920,note_on,120,0,3,,,,,,,,,2,,,41,0
46920,note_on,0,0,3,,,,,,,,,2,,,39,49
47040,note_on,120,0,3,,,,,,,,,2,,,39,0
47040,note_on,0,0,3,,,,,,,,,2,,,37,49
47040,note_on,0,0,1,,,,,,,,,0,,,65,49
47040,note_on,0,0,1,,,,,,,,,0,,,59,49
47040,note_on,0,0,1,,,,,,,,,0,,,61,49
47040,note_on,0,0,1,,,,,,,,,0,,,71,49
47040,note_on,960,0,1,,,,,,,,,0,,,66,0
47040,note_on,0,0,1,,,,,,,,,0,,,59,0
47040,note_on,0,0,1,,,,,,,,,0,,,63,0
47160,note_on,0,0,3,,,,,,,,,2,,,39,49
47160,note_on,120,0,3,,,,,,,,,2,,,37,0
47280,note_on,0,0,3,,,,,,,,,2,,,41,49
47280,note_on,120,0,3,,,,,,,,,2,,,39,0
47400,note_on,120,0,3,,,,,,,,,2,,,41,0
47400,note_on,0,0,3,,,,,,,,,2,,,39,49
47520,note_on,0,0,3,,,,,,,,,2,,,37,49
47520,note_on,120,0,3,,,,,,,,,2,,,39,0
47640,note_on,0,0,3,,,,,,,,,2,,,35,49
47640,note_on,120,0,3,,,,,,,,,2,,,37,0
47760,note_on,0,0,3,,,,,,,,,2,,,34,49
47760,note_on,120,0,3,,,,,,,,,2,,,35,0
47880,note_on,120,0,3,,,,,,,,,2,,,34,0
47880,note_on,0,0,3,,,,,,,,,2,,,32,49
48000,note_on,960,0,1,,,,,,,,,0,,,71,0
48000,note_on,0,0,3,,,,,,,,,2,,,30,49
48000,note_on,0,0,1,,,,,,,,,0,,,70,49
48000,note_on,120,0,3,,,,,,,,,2,,,32,0
48000,note_on,0,0,1,,,,,,,,,0,,,58,49
48000,note_on,0,0,1,,,,,,,,,0,,,59,0
48000,note_on,0,0,1,,,,,,,,,0,,,61,0
48000,note_on,0,0,1,,,,,,,,,0,,,61,49
48000,note_on,0,0,1,,,,,,,,,0,,,65,0
48000,note_on,0,0,1,,,,,,,,,0,,,66,49
48000,control_change,0,0,1,,,,,,,,,0,64,0,,
48120,note_on,120,0,3,,,,,,,,,2,,,30,0
48120,note_on,0,0,3,,,,,,,,,2,,,32,49
48240,note_on,120,0,3,,,,,,,,,2,,,32,0
48240,note_on,0,0,3,,,,,,,,,2,,,34,49
48360,note_on,120,0,3,,,,,,,,,2,,,34,0
48360,note_on,0,0,3,,,,,,,,,2,,,35,49
48480,note_on,0,0,3,,,,,,,,,2,,,37,49
48480,note_on,120,0,3,,,,,,,,,2,,,35,0
48600,note_on,0,0,3,,,,,,,,,2,,,39,49
48600,note_on,120,0,3,,,,,,,,,2,,,37,0
48720,note_on,0,0,3,,,,,,,,,2,,,41,49
48720,note_on,120,0,3,,,,,,,,,2,,,39,0
48840,note_on,120,0,3,,,,,,,,,2,,,41,0
48840,note_on,0,0,3,,,,,,,,,2,,,42,49
48960,note_on,120,0,3,,,,,,,,,2,,,42,0
48960,note_on,0,0,3,,,,,,,,,2,,,35,49
48960,note_on,0,0,2,,,,,,,,,1,,,63,49
48960,note_on,960,0,1,,,,,,,,,0,,,70,0
48960,note_on,0,0,1,,,,,,,,,0,,,61,0
48960,note_on,0,0,1,,,,,,,,,0,,,66,0
48960,note_on,0,0,1,,,,,,,,,0,,,70,75
48960,note_on,0,0,1,,,,,,,,,0,,,58,0
48960,note_on,3840,0,2,,,,,,,,,1,,,59,49
49080,note_on,120,0,3,,,,,,,,,2,,,35,0
49080,note_on,0,0,3,,,,,,,,,2,,,37,49
49200,note_on,120,0,3,,,,,,,,,2,,,37,0
49200,note_on,0,0,3,,,,,,,,,2,,,39,49
49320,note_on,120,0,3,,,,,,,,,2,,,39,0
49320,note_on,0,0,3,,,,,,,,,2,,,41,49
49440,note_on,0,0,3,,,,,,,,,2,,,42,49
49440,note_on,480,0,1,,,,,,,,,0,,,70,0
49440,note_on,0,0,1,,,,,,,,,0,,,68,49
49440,note_on,120,0,3,,,,,,,,,2,,,41,0
49560,note_on,0,0,3,,,,,,,,,2,,,44,49
49560,note_on,120,0,3,,,,,,,,,2,,,42,0
49680,note_on,120,0,3,,,,,,,,,2,,,44,0
49680,note_on,0,0,3,,,,,,,,,2,,,46,49
49800,note_on,120,0,3,,,,,,,,,2,,,46,0
49800,note_on,0,0,3,,,,,,,,,2,,,47,49
49920,note_on,0,0,3,,,,,,,,,2,,,37,49
49920,note_on,0,0,1,,,,,,,,,0,,,68,75
49920,note_on,960,0,2,,,,,,,,,1,,,63,0
49920,note_on,0,0,2,,,,,,,,,1,,,61,49
49920,note_on,0,0,2,,,,,,,,,1,,,59,0
49920,note_on,0,0,2,,,,,,,,,1,,,58,49
49920,note_on,480,0,1,,,,,,,,,0,,,68,0
49920,note_on,120,0,3,,,,,,,,,2,,,47,0
50040,note_on,0,0,3,,,,,,,,,2,,,39,49
50040,note_on,120,0,3,,,,,,,,,2,,,37,0
50160,note_on,0,0,3,,,,,,,,,2,,,41,49
50160,note_on,120,0,3,,,,,,,,,2,,,39,0
50280,note_on,0,0,3,,,,,,,,,2,,,42,49
50280,note_on,120,0,3,,,,,,,,,2,,,41,0
50400,note_on,480,0,1,,,,,,,,,0,,,68,0
50400,note_on,0,0,1,,,,,,,,,0,,,66,49
50400,note_on,0,0,3,,,,,,,,,2,,,44,49
50400,note_on,120,0,3,,,,,,,,,2,,,42,0
50520,note_on,120,0,3,,,,,,,,,2,,,44,0
50520,note_on,0,0,3,,,,,,,,,2,,,46,49
50640,note_on,0,0,3,,,,,,,,,2,,,47,49
50640,note_on,120,0,3,,,,,,,,,2,,,46,0
50760,note_on,0,0,3,,,,,,,,,2,,,49,49
50760,note_on,120,0,3,,,,,,,,,2,,,47,0
50880,note_on,0,0,2,,,,,,,,,1,,,58,0
50880,note_on,120,0,3,,,,,,,,,2,,,49,0
50880,note_on,960,0,2,,,,,,,,,1,,,61,0
50880,note_on,0,0,2,,,,,,,,,1,,,56,49
50880,note_on,0,0,1,,,,,,,,,0,,,66,75
50880,note_on,480,0,1,,,,,,,,,0,,,66,0
50880,note_on,0,0,3,,,,,,,,,2,,,38,49
50880,note_on,0,0,2,,,,,,,,,1,,,59,49
51000,note_on,120,0,3,,,,,,,,,2,,,38,0
51000,note_on,0,0,3,,,,,,,,,2,,,39,49
51120,note_on,0,0,3,,,,,,,,,2,,,41,49
51120,note_on,120,0,3,,,,,,,,,2,,,39,0
51240,note_on,0,0,3,,,,,,,,,2,,,42,49
51240,note_on,120,0,3,,,,,,,,,2,,,41,0
51360,note_on,0,0,3,,,,,,,,,2,,,44,49
51360,note_on,120,0,3,,,,,,,,,2,,,42,0
51360,note_on,0,0,1,,,,,,,,,0,,,65,49
51360,note_on,480,0,1,,,,,,,,,0,,,66,0
51480,note_on,120,0,3,,,,,,,,,2,,,44,0
51480,note_on,0,0,3,,,,,,,,,2,,,46,49
51600,note_on,0,0,3,,,,,,,,,2,,,48,49
51600,note_on,120,0,3,,,,,,,,,2,,,46,0
51720,note_on,0,0,3,,,,,,,,,2,,,50,49
51720,note_on,120,0,3,,,,,,,,,2,,,48,0
51840,note_on,120,0,3,,,,,,,,,2,,,50,0
51840,note_on,0,0,2,,,,,,,,,1,,,54,49
51840,note_on,0,0,3,,,,,,,,,2,,,39,62
51840,note_on,0,0,2,,,,,,,,,1,,,58,49
51840,note_on,960,0,2,,,,,,,,,1,,,59,0
51840,note_on,0,0,1,,,,,,,,,0,,,65,88
51840,note_on,480,0,1,,,,,,,,,0,,,65,0
51840,note_on,0,0,2,,,,,,,,,1,,,56,0
51960,note_on,120,0,3,,,,,,,,,2,,,39,0
51960,note_on,0,0,3,,,,,,,,,2,,,41,62
52080,note_on,120,0,3,,,,,,,,,2,,,41,0
52080,note_on,0,0,3,,,,,,,,,2,,,42,62
52200,note_on,120,0,3,,,,,,,,,2,,,42,0
52200,note_on,0,0,3,,,,,,,,,2,,,44,62
52320,note_on,120,0,3,,,,,,,,,2,,,44,0
52320,note_on,480,0,1,,,,,,,,,0,,,65,0
52320,note_on,0,0,3,,,,,,,,,2,,,46,62
52320,note_on,0,0,1,,,,,,,,,0,,,63,62
52440,note_on,120,0,3,,,,,,,,,2,,,46,0
52440,note_on,0,0,3,,,,,,,,,2,,,48,62
52560,note_on,120,0,3,,,,,,,,,2,,,48,0
52560,note_on,0,0,3,,,,,,,,,2,,,50,62
52680,note_on,0,0,3,,,,,,,,,2,,,51,62
52680,note_on,120,0,3,,,,,,,,,2,,,50,0
52800,note_on,0,0,3,,,,,,,,,2,,,40,62
52800,note_on,0,0,2,,,,,,,,,1,,,54,0
52800,note_on,960,0,2,,,,,,,,,1,,,58,0
52800,note_on,0,0,1,,,,,,,,,0,,,75,88
52800,note_on,480,0,1,,,,,,,,,0,,,63,0
52800,note_on,0,0,2,,,,,,,,,1,,,68,49
52800,note_on,120,0,3,,,,,,,,,2,,,51,0
52800,note_on,0,0,2,,,,,,,,,1,,,64,49
52920,note_on,120,0,3,,,,,,,,,2,,,40,0
52920,note_on,0,0,3,,,,,,,,,2,,,42,62
53040,note_on,120,0,3,,,,,,,,,2,,,42,0
53040,note_on,0,0,3,,,,,,,,,2,,,44,62
53160,note_on,120,0,3,,,,,,,,,2,,,44,0
53160,note_on,0,0,3,,,,,,,,,2,,,46,62
53280,note_on,0,0,1,,,,,,,,,0,,,73,62
53280,note_on,0,0,3,,,,,,,,,2,,,47,62
53280,note_on,480,0,1,,,,,,,,,0,,,75,0
53280,note_on,120,0,3,,,,,,,,,2,,,46,0
53400,note_on,120,0,3,,,,,,,,,2,,,47,0
53400,note_on,0,0,3,,,,,,,,,2,,,49,62
53520,note_on,120,0,3,,,,,,,,,2,,,49,0
53520,note_on,0,0,3,,,,,,,,,2,,,51,62
53640,note_on,120,0,3,,,,,,,,,2,,,51,0
53640,note_on,0,0,3,,,,,,,,,2,,,52,62
53760,note_on,0,0,1,,,,,,,,,0,,,73,101
53760,note_on,0,0,3,,,,,,,,,2,,,42,75
53760,note_on,480,0,1,,,,,,,,,0,,,73,0
53760,note_on,0,0,2,,,,,,,,,1,,,63,62
53760,note_on,960,0,2,,,,,,,,,1,,,68,0
53760,note_on,0,0,2,,,,,,,,,1,,,66,62
53760,note_on,120,0,3,,,,,,,,,2,,,52,0
53760,note_on,0,0,2,,,,,,,,,1,,,64,0
53760,time_signature,53721,1,0,2,4,24,8,,,,,,,,,
53880,note_on,0,0,3,,,,,,,,,2,,,44,75
53880,note_on,120,0,3,,,,,,,,,2,,,42,0
54000,note_on,0,0,3,,,,,,,,,2,,,46,75
54000,note_on,120,0,3,,,,,,,,,2,,,44,0
54120,note_on,0,0,3,,,,,,,,,2,,,47,75
54120,note_on,120,0,3,,,,,,,,,2,,,46,0
54240,note_on,0,0,1,,,,,,,,,0,,,71,75
54240,note_on,0,0,3,,,,,,,,,2,,,49,75
54240,note_on,480,0,1,,,,,,,,,0,,,73,0
54240,note_on,120,0,3,,,,,,,,,2,,,47,0
54360,note_on,0,0,3,,,,,,,,,2,,,51,75
54360,note_on,120,0,3,,,,,,,,,2,,,49,0
54480,note_on,120,0,3,,,,,,,,,2,,,51,0
54480,note_on,0,0,3,,,,,,,,,2,,,52,75
54600,note_on,120,0,3,,,,,,,,,2,,,52,0
54600,note_on,0,0,3,,,,,,,,,2,,,54,75
54720,note_on,0,0,3,,,,,,,,,2,,,43,75
54720,note_on,480,0,1,,,,,,,,,0,,,71,0
54720,note_on,960,0,2,,,,,,,,,1,,,66,0
54720,note_on,0,0,2,,,,,,,,,1,,,61,62
54720,note_on,0,0,1,,,,,,,,,0,,,71,101
54720,key_signature,960,1,0,,,,,E,,,,,,,,
54720,note_on,120,0,3,,,,,,,,,2,,,54,0
54720,note_on,0,0,2,,,,,,,,,1,,,63,0
54720,note_on,0,0,2,,,,,,,,,1,,,64,62
54840,note_on,0,0,3,,,,,,,,,2,,,44,75
54840,note_on,120,0,3,,,,,,,,,2,,,43,0
54960,note_on,120,0,3,,,,,,,,,2,,,44,0
54960,note_on,0,0,3,,,,,,,,,2,,,46,75
55080,note_on,0,0,3,,,,,,,,,2,,,47,75
55080,note_on,120,0,3,,,,,,,,,2,,,46,0
55200,note_on,0,0,1,,,,,,,,,0,,,70,75
55200,note_on,0,0,3,,,,,,,,,2,,,49,75
55200,note_on,480,0,1,,,,,,,,,0,,,71,0
55200,note_on,120,0,3,,,,,,,,,2,,,47,0
55320,note_on,0,0,3,,,,,,,,,2,,,51,75
55320,note_on,120,0,3,,,,,,,,,2,,,49,0
55440,note_on,0,0,3,,,,,,,,,2,,,53,75
55440,note_on,120,0,3,,,,,,,,,2,,,51,0
55560,note_on,120,0,3,,,,,,,,,2,,,53,0
55560,note_on,0,0,3,,,,,,,,,2,,,55,75
55680,note_on,0,0,1,,,,,,,,,0,,,70,101
55680,note_on,960,0,2,,,,,,,,,1,,,64,0
55680,note_on,0,0,3,,,,,,,,,2,,,44,75
55680,note_on,0,0,2,,,,,,,,,1,,,61,0
55680,note_on,480,0,1,,,,,,,,,0,,,70,0
55680,time_signature,960,1,0,4,4,24,8,,,,,,,,,
55680,note_on,0,0,2,,,,,,,,,1,,,63,62
55680,note_on,120,0,3,,,,,,,,,2,,,55,0
55680,note_on,0,0,2,,,,,,,,,1,,,59,62
55800,note_on,120,0,3,,,,,,,,,2,,,44,0
55800,note_on,0,0,3,,,,,,,,,2,,,46,75
55920,note_on,0,0,3,,,,,,,,,2,,,47,75
55920,note_on,120,0,3,,,,,,,,,2,,,46,0
56040,note_on,120,0,3,,,,,,,,,2,,,47,0
56040,note_on,0,0,3,,,,,,,,,2,,,49,75
56160,note_on,0,0,3,,,,,,,,,2,,,51,75
56160,note_on,480,0,1,,,,,,,,,0,,,70,0
56160,note_on,0,0,1,,,,,,,,,0,,,68,75
56160,note_on,120,0,3,,,,,,,,,2,,,49,0
56280,note_on,120,0,3,,,,,,,,,2,,,51,0
56280,note_on,0,0,3,,,,,,,,,2,,,53,75
56400,note_on,120,0,3,,,,,,,,,2,,,53,0
56400,note_on,0,0,3,,,,,,,,,2,,,55,75
56520,note_on,0,0,3,,,,,,,,,2,,,56,75
56520,note_on,120,0,3,,,,,,,,,2,,,55,0
56640,note_on,480,0,1,,,,,,,,,0,,,68,0
56640,note_on,960,0,2,,,,,,,,,1,,,63,0
56640,note_on,120,0,3,,,,,,,,,2,,,56,0
56640,note_on,0,0,3,,,,,,,,,2,,,45,88
56640,note_on,0,0,2,,,,,,,,,1,,,59,0
56640,note_on,0,0,1,,,,,,,,,0,,,80,88
56640,note_on,0,0,2,,,,,,,,,1,,,73,75
56640,note_on,0,0,2,,,,,,,,,1,,,69,75
56760,note_on,120,0,3,,,,,,,,,2,,,45,0
56760,note_on,0,0,3,,,,,,,,,2,,,47,88
56880,note_on,120,0,3,,,,,,,,,2,,,47,0
56880,note_on,0,0,3,,,,,,,,,2,,,49,88
57000,note_on,120,0,3,,,,,,,,,2,,,49,0
57000,note_on,0,0,3,,,,,,,,,2,,,51,88
57120,note_on,0,0,3,,,,,,,,,2,,,52,88
57120,note_on,480,0,1,,,,,,,,,0,,,80,0
57120,note_on,120,0,3,,,,,,,,,2,,,51,0
57120,note_on,0,0,1,,,,,,,,,0,,,78,88
57240,note_on,0,0,3,,,,,,,,,2,,,54,88
57240,note_on,120,0,3,,,,,,,,,2,,,52,0
57360,note_on,0,0,3,,,,,,,,,2,,,56,88
57360,note_on,120,0,3,,,,,,,,,2,,,54,0
57480,note_on,0,0,3,,,,,,,,,2,,,57,88
57480,note_on,120,0,3,,,,,,,,,2,,,56,0
57600,note_on,0,0,2,,,,,,,,,1,,,71,75
57600,note_on,0,0,2,,,,,,,,,1,,,69,0
57600,note_on,0,0,1,,,,,,,,,0,,,78,88
57600,note_on,0,0,2,,,,,,,,,1,,,68,75
57600,note_on,120,0,3,,,,,,,,,2,,,57,0
57600,note_on,0,0,3,,,,,,,,,2,,,47,88
57600,note_on,480,0,1,,,,,,,,,0,,,78,0
57600,note_on,960,0,2,,,,,,,,,1,,,73,0
57720,note_on,120,0,3,,,,,,,,,2,,,47,0
57720,note_on,0,0,3,,,,,,,,,2,,,49,88
57840,note_on,0,0,3,,,,,,,,,2,,,51,88
57840,note_on,120,0,3,,,,,,,,,2,,,49,0
57960,note_on,120,0,3,,,,,,,,,2,,,51,0
57960,note_on,0,0,3,,,,,,,,,2,,,52,88
58080,note_on,0,0,1,,,,,,,,,0,,,76,88
58080,note_on,120,0,3,,,,,,,,,2,,,52,0
58080,note_on,0,0,3,,,,,,,,,2,,,54,88
58080,note_on,480,0,1,,,,,,,,,0,,,78,0
58200,note_on,0,0,3,,,,,,,,,2,,,56,88
58200,note_on,120,0,3,,,,,,,,,2,,,54,0
58320,note_on,0,0,3,,,,,,,,,2,,,57,88
58320,note_on,120,0,3,,,,,,,,,2,,,56,0
58440,note_on,0,0,3,,,,,,,,,2,,,58,88
58440,note_on,120,0,3,,,,,,,,,2,,,57,0
58560,note_on,0,0,3,,,,,,,,,2,,,59,88
58560,note_on,0,0,1,,,,,,,,,0,,,76,88
58560,note_on,960,0,2,,,,,,,,,1,,,71,0
58560,note_on,120,0,3,,,,,,,,,2,,,58,0
58560,note_on,0,0,2,,,,,,,,,1,,,69,75
58560,note_on,0,0,2,,,,,,,,,1,,,68,0
58560,note_on,0,0,2,,,,,,,,,1,,,66,75
58560,note_on,480,0,1,,,,,,,,,0,,,76,0
58680,note_on,0,0,3,,,,,,,,,2,,,58,88
58680,note_on,120,0,3,,,,,,,,,2,,,59,0
58800,note_on,0,0,3,,,,,,,,,2,,,59,88
58800,note_on,120,0,3,,,,,,,,,2,,,58,0
58920,note_on,120,0,3,,,,,,,,,2,,,59,0
58920,note_on,0,0,3,,,,,,,,,2,,,61,88
59040,note_on,120,0,3,,,,,,,,,2,,,61,0
59040,note_on,0,0,3,,,,,,,,,2,,,59,88
59040,note_on,480,0,1,,,,,,,,,0,,,76,0
59040,note_on,0,0,1,,,,,,,,,0,,,75,88
59160,note_on,0,0,3,,,,,,,,,2,,,57,88
59160,note_on,120,0,3,,,,,,,,,2,,,59,0
59280,note_on,0,0,3,,,,,,,,,2,,,56,88
59280,note_on,120,0,3,,,,,,,,,2,,,57,0
59400,note_on,0,0,3,,,,,,,,,2,,,54,88
59400,note_on,120,0,3,,,,,,,,,2,,,56,0
59520,note_on,0,0,1,,,,,,,,,0,,,83,101
59520,note_on,0,0,3,,,,,,,,,2,,,52,101
59520,note_on,0,0,1,,,,,,,,,0,,,80,101
59520,note_on,0,0,1,,,,,,,,,0,,,76,101
59520,note_on,480,0,1,,,,,,,,,0,,,75,0
59520,note_on,960,0,2,,,,,,,,,1,,,69,0
59520,note_on,0,0,1,,,,,,,,,0,,,88,101
59520,note_on,0,0,2,,,,,,,,,1,,,66,0
59520,note_on,120,0,3,,,,,,,,,2,,,54,0
59640,note_on,0,0,3,,,,,,,,,2,,,40,101
59640,note_on,120,0,3,,,,,,,,,2,,,52,0
59760,note_on,0,0,3,,,,,,,,,2,,,42,101
59760,note_on,120,0,3,,,,,,,,,2,,,40,0
59880,note_on,120,0,3,,,,,,,,,2,,,42,0
59880,note_on,0,0,3,,,,,,,,,2,,,44,101
60000,note_on,0,0,3,,,,,,,,,2,,,45,101
60000,note_on,120,0,3,,,,,,,,,2,,,44,0
60120,note_on,120,0,3,,,,,,,,,2,,,45,0
60120,note_on,0,0,3,,,,,,,,,2,,,47,101
60240,note_on,0,0,3,,,,,,,,,2,,,49,101
60240,note_on,120,0,3,,,,,,,,,2,,,47,0
60360,note_on,120,0,3,,,,,,,,,2,,,49,0
60360,note_on,0,0,3,,,,,,,,,2,,,51,101
60480,note_on,0,0,1,,,,,,,,,0,,,83,88
60480,note_on,0,0,1,,,,,,,,,0,,,83,0
60480,note_on,0,0,1,,,,,,,,,0,,,80,88
60480,note_on,0,0,1,,,,,,,,,0,,,80,0
60480,note_on,0,0,1,,,,,,,,,0,,,76,88
60480,note_on,0,0,1,,,,,,,,,0,,,76,0
60480,note_on,0,0,1,,,,,,,,,0,,,71,88
60480,note_on,0,0,3,,,,,,,,,2,,,52,88
60480,note_on,120,0,3,,,,,,,,,2,,,51,0
60480,note_on,960,0,1,,,,,,,,,0,,,88,0
60600,note_on,120,0,3,,,,,,,,,2,,,52,0
60600,note_on,0,0,3,,,,,,,,,2,,,54,88
60720,note_on,120,0,3,,,,,,,,,2,,,54,0
60720,note_on,0,0,3,,,,,,,,,2,,,56,88
60840,note_on,0,0,3,,,,,,,,,2,,,57,88
60840,note_on,120,0,3,,,,,,,,,2,,,56,0
60960,note_on,120,0,3,,,,,,,,,2,,,57,0
60960,note_on,0,0,3,,,,,,,,,2,,,59,88
61080,note_on,120,0,3,,,,,,,,,2,,,59,0
61080,note_on,0,0,3,,,,,,,,,2,,,61,88
61200,note_on,120,0,3,,,,,,,,,2,,,61,0
61200,note_on,0,0,3,,,,,,,,,2,,,62,88
61320,note_on,120,0,3,,,,,,,,,2,,,62,0
61320,note_on,0,0,3,,,,,,,,,2,,,63,88
61440,note_on,120,0,3,,,,,,,,,2,,,63,0
61440,note_on,960,0,1,,,,,,,,,0,,,83,0
61440,note_on,0,0,1,,,,,,,,,0,,,80,75
61440,note_on,0,0,1,,,,,,,,,0,,,80,0
61440,note_on,0,0,1,,,,,,,,,0,,,76,75
61440,note_on,0,0,1,,,,,,,,,0,,,76,0
61440,note_on,0,0,1,,,,,,,,,0,,,71,75
61440,note_on,0,0,1,,,,,,,,,0,,,71,0
61440,note_on,0,0,1,,,,,,,,,0,,,68,75
61440,note_on,0,0,3,,,,,,,,,2,,,64,75
61560,note_on,0,0,3,,,,,,,,,2,,,59,75
61560,note_on,120,0,3,,,,,,,,,2,,,64,0
61680,note_on,0,0,3,,,,,,,,,2,,,63,75
61680,note_on,240,0,1,,,,,,,,,0,,,80,0
61680,note_on,120,0,3,,,,,,,,,2,,,59,0
61680,note_on,0,0,1,,,,,,,,,0,,,68,0
61680,note_on,0,0,1,,,,,,,,,0,,,71,0
61680,note_on,0,0,1,,,,,,,,,0,,,76,0
61800,note_on,0,0,3,,,,,,,,,2,,,64,75
61800,note_on,120,0,3,,,,,,,,,2,,,63,0
61920,note_on,0,0,3,,,,,,,,,2,,,68,62
61920,note_on,120,0,3,,,,,,,,,2,,,64,0
61920,note_on,240,0,1,,,,,,,,,0,,,71,62
61920,note_on,0,0,1,,,,,,,,,0,,,76,62
62040,note_on,0,0,3,,,,,,,,,2,,,59,62
62040,note_on,120,0,3,,,,,,,,,2,,,68,0
62160,note_on,120,0,3,,,,,,,,,2,,,59,0
62160,note_on,0,0,3,,,,,,,,,2,,,67,62
62280,note_on,120,0,3,,,,,,,,,2,,,67,0
62280,note_on,0,0,3,,,,,,,,,2,,,68,62
62400,note_on,120,0,3,,,,,,,,,2,,,68,0
62400,note_on,0,0,1,,,,,,,,,0,,,71,0
62400,note_on,0,0,1,,,,,,,,,0,,,75,62
62400,note_on,0,0,3,,,,,,,,,2,,,66,62
62400,note_on,0,0,1,,,,,,,,,0,,,69,62
62400,note_on,480,0,1,,,,,,,,,0,,,76,0
62520,note_on,120,0,3,,,,,,,,,2,,,66,0
62520,note_on,0,0,3,,,,,,,,,2,,,59,62
62640,note_on,120,0,3,,,,,,,,,2,,,59,0
62640,note_on,0,0,3,,,,,,,,,2,,,65,62
62760,note_on,0,0,3,,,,,,,,,2,,,66,62
62760,note_on,120,0,3,,,,,,,,,2,,,65,0
62880,note_on,0,0,1,,,,,,,,,0,,,69,0
62880,note_on,0,0,1,,,,,,,,,0,,,76,62
62880,note_on,120,0,3,,,,,,,,,2,,,66,0
62880,note_on,0,0,3,,,,,,,,,2,,,64,62
62880,note_on,0,0,1,,,,,,,,,0,,,68,62
62880,note_on,480,0,1,,,,,,,,,0,,,75,0
63000,note_on,120,0,3,,,,,,,,,2,,,64,0
63000,note_on,0,0,3,,,,,,,,,2,,,59,62
63120,note_on,120,0,3,,,,,,,,,2,,,59,0
63120,note_on,0,0,3,,,,,,,,,2,,,63,62
63240,note_on,120,0,3,,,,,,,,,2,,,63,0
63240,note_on,0,0,3,,,,,,,,,2,,,64,62
63360,note_on,0,0,1,,,,,,,,,0,,,90,101
63360,note_on,0,0,1,,,,,,,,,0,,,81,101
63360,note_on,0,0,1,,,,,,,,,0,,,83,101
63360,note_on,480,0,1,,,,,,,,,0,,,76,0
63360,note_on,0,0,3,,,,,,,,,2,,,39,101
63360,note_on,120,0,3,,,,,,,,,2,,,64,0
63360,note_on,0,0,1,,,,,,,,,0,,,78,101
63360,note_on,0,0,1,,,,,,,,,0,,,68,0
63480,note_on,120,0,3,,,,,,,,,2,,,39,0
63480,note_on,0,0,3,,,,,,,,,2,,,40,101
63600,note_on,120,0,3,,,,,,,,,2,,,40,0
63600,note_on,0,0,3,,,,,,,,,2,,,42,101
63720,note_on,0,0,3,,,,,,,,,2,,,44,101
63720,note_on,120,0,3,,,,,,,,,2,,,42,0
63840,note_on,0,0,3,,,,,,,,,2,,,45,101
63840,note_on,120,0,3,,,,,,,,,2,,,44,0
63960,note_on,0,0,3,,,,,,,,,2,,,47,101
63960,note_on,120,0,3,,,,,,,,,2,,,45,0
64080,note_on,0,0,3,,,,,,,,,2,,,49,101
64080,note_on,120,0,3,,,,,,,,,2,,,47,0
64200,note_on,0,0,3,,,,,,,,,2,,,50,101
64200,note_on,120,0,3,,,,,,,,,2,,,49,0
64320,note_on,0,0,1,,,,,,,,,0,,,81,88
64320,note_on,960,0,1,,,,,,,,,0,,,90,0
64320,note_on,0,0,3,,,,,,,,,2,,,51,88
64320,note_on,120,0,3,,,,,,,,,2,,,50,0
64320,note_on,0,0,1,,,,,,,,,0,,,81,0
64320,note_on,0,0,1,,,,,,,,,0,,,83,0
64320,note_on,0,0,1,,,,,,,,,0,,,83,88
64320,note_on,0,0,1,,,,,,,,,0,,,78,88
64320,note_on,0,0,1,,,,,,,,,0,,,71,88
64320,note_on,0,0,1,,,,,,,,,0,,,78,0
64440,note_on,0,0,3,,,,,,,,,2,,,52,88
64440,note_on,120,0,3,,,,,,,,,2,,,51,0
64560,note_on,120,0,3,,,,,,,,,2,,,52,0
64560,note_on,0,0,3,,,,,,,,,2,,,54,88
64680,note_on,0,0,3,,,,,,,,,2,,,56,88
64680,note_on,120,0,3,,,,,,,,,2,,,54,0
64800,note_on,120,0,3,,,,,,,,,2,,,56,0
64800,note_on,0,0,3,,,,,,,,,2,,,57,88
64920,note_on,120,0,3,,,,,,,,,2,,,57,0
64920,note_on,0,0,3,,,,,,,,,2,,,59,88
65040,note_on,0,0,3,,,,,,,,,2,,,61,88
65040,note_on,120,0,3,,,,,,,,,2,,,59,0
65160,note_on,120,0,3,,,,,,,,,2,,,61,0
65160,note_on,0,0,3,,,,,,,,,2,,,62,88
65280,note_on,0,0,1,,,,,,,,,0,,,69,75
65280,note_on,0,0,1,,,,,,,,,0,,,71,0
65280,note_on,0,0,1,,,,,,,,,0,,,71,75
65280,note_on,0,0,1,,,,,,,,,0,,,78,0
65280,note_on,120,0,3,,,,,,,,,2,,,62,0
65280,note_on,960,0,1,,,,,,,,,0,,,83,0
65280,note_on,0,0,3,,,,,,,,,2,,,63,75
65280,note_on,0,0,1,,,,,,,,,0,,,78,75
65280,note_on,0,0,1,,,,,,,,,0,,,81,0
65280,note_on,0,0,1,,,,,,,,,0,,,81,75
65400,note_on,0,0,3,,,,,,,,,2,,,59,75
65400,note_on,120,0,3,,,,,,,,,2,,,63,0
65520,note_on,0,0,3,,,,,,,,,2,,,62,75
65520,note_on,0,0,1,,,,,,,,,0,,,69,0
65520,note_on,240,0,1,,,,,,,,,0,,,81,0
65520,note_on,0,0,1,,,,,,,,,0,,,71,0
65520,note_on,120,0,3,,,,,,,,,2,,,59,0
65520,note_on,0,0,1,,,,,,,,,0,,,78,0
65640,note_on,0,0,3,,,,,,,,,2,,,63,75
65640,note_on,120,0,3,,,,,,,,,2,,,62,0
65760,note_on,120,0,3,,,,,,,,,2,,,63,0
65760,note_on,240,0,1,,,,,,,,,0,,,71,62
65760,note_on,0,0,1,,,,,,,,,0,,,78,62
65760,note_on,0,0,3,,,,,,,,,2,,,69,62
65880,note_on,120,0,3,,,,,,,,,2,,,69,0
65880,note_on,0,0,3,,,,,,,,,2,,,59,62
66000,note_on,0,0,3,,,,,,,,,2,,,68,62
66000,note_on,120,0,3,,,,,,,,,2,,,59,0
66120,note_on,120,0,3,,,,,,,,,2,,,68,0
66120,note_on,0,0,3,,,,,,,,,2,,,69,62
66240,note_on,0,0,1,,,,,,,,,0,,,71,0
66240,note_on,0,0,1,,,,,,,,,0,,,71,62
66240,note_on,0,0,1,,,,,,,,,0,,,76,62
66240,note_on,0,0,3,,,,,,,,,2,,,68,62
66240,note_on,480,0,1,,,,,,,,,0,,,78,0
66240,note_on,120,0,3,,,,,,,,,2,,,69,0
66360,note_on,120,0,3,,,,,,,,,2,,,68,0
66360,note_on,0,0,3,,,,,,,,,2,,,59,62
66480,note_on,0,0,3,,,,,,,,,2,,,67,62
66480,note_on,120,0,3,,,,,,,,,2,,,59,0
66600,note_on,120,0,3,,,,,,,,,2,,,67,0
66600,note_on,0,0,3,,,,,,,,,2,,,68,62
66720,note_on,0,0,3,,,,,,,,,2,,,63,62
66720,note_on,0,0,1,,,,,,,,,0,,,71,0
66720,note_on,0,0,1,,,,,,,,,0,,,71,62
66720,note_on,0,0,1,,,,,,,,,0,,,78,62
66720,note_on,120,0,3,,,,,,,,,2,,,68,0
66720,note_on,480,0,1,,,,,,,,,0,,,76,0
66840,note_on,120,0,3,,,,,,,,,2,,,63,0
66840,note_on,0,0,3,,,,,,,,,2,,,59,62
66960,note_on,120,0,3,,,,,,,,,2,,,59,0
66960,note_on,0,0,3,,,,,,,,,2,,,62,62
67080,note_on,120,0,3,,,,,,,,,2,,,62,0
67080,note_on,0,0,3,,,,,,,,,2,,,63,62
67200,note_on,0,0,3,,,,,,,,,2,,,52,88
67200,note_on,0,0,1,,,,,,,,,0,,,71,101
67200,note_on,0,0,3,,,,,,,,,2,,,64,88
67200,note_on,0,0,1,,,,,,,,,0,,,76,101
67200,note_on,0,0,1,,,,,,,,,0,,,80,101
67200,note_on,120,0,3,,,,,,,,,2,,,63,0
67200,note_on,480,0,1,,,,,,,,,0,,,78,0
67200,note_on,0,0,1,,,,,,,,,0,,,71,0
67440,note_on,0,0,1,,,,,,,,,0,,,66,101
67440,note_on,0,0,1,,,,,,,,,0,,,71,0
67440,note_on,0,0,1,,,,,,,,,0,,,76,0
67440,note_on,240,0,1,,,,,,,,,0,,,80,0
67560,note_on,120,0,1,,,,,,,,,0,,,66,0
67560,note_on,0,0,1,,,,,,,,,0,,,68,101
67680,note_on,120,0,1,,,,,,,,,0,,,68,0
67680,note_on,0,0,1,,,,,,,,,0,,,69,101
67800,note_on,0,0,1,,,,,,,,,0,,,71,101
67800,note_on,120,0,1,,,,,,,,,0,,,69,0
67920,note_on,120,0,1,,,,,,,,,0,,,71,0
67920,note_on,0,0,1,,,,,,,,,0,,,73,101
68040,note_on,120,0,1,,,,,,,,,0,,,73,0
68040,note_on,0,0,1,,,,,,,,,0,,,75,101
68160,note_on,0,0,3,,,,,,,,,2,,,56,88
68160,note_on,0,0,3,,,,,,,,,2,,,59,88
68160,note_on,0,0,3,,,,,,,,,2,,,52,88
68160,note_on,0,0,3,,,,,,,,,2,,,52,0
68160,note_on,960,0,3,,,,,,,,,2,,,64,0
68160,note_on,120,0,1,,,,,,,,,0,,,75,0
68160,note_on,0,0,3,,,,,,,,,2,,,47,88
68160,note_on,0,0,1,,,,,,,,,0,,,76,101
68280,note_on,120,0,1,,,,,,,,,0,,,76,0
68280,note_on,0,0,1,,,,,,,,,0,,,78,101
68400,note_on,120,0,1,,,,,,,,,0,,,78,0
68400,note_on,0,0,1,,,,,,,,,0,,,80,101
68520,note_on,120,0,1,,,,,,,,,0,,,80,0
68520,note_on,0,0,1,,,,,,,,,0,,,81,101
68640,note_on,120,0,1,,,,,,,,,0,,,81,0
68640,note_on,0,0,1,,,,,,,,,0,,,83,101
68760,note_on,0,0,1,,,,,,,,,0,,,85,101
68760,note_on,120,0,1,,,,,,,,,0,,,83,0
68880,note_on,120,0,1,,,,,,,,,0,,,85,0
68880,note_on,0,0,1,,,,,,,,,0,,,86,101
69000,note_on,120,0,1,,,,,,,,,0,,,86,0
69000,note_on,0,0,1,,,,,,,,,0,,,87,101
69120,note_on,0,0,3,,,,,,,,,2,,,52,0
69120,note_on,0,0,3,,,,,,,,,2,,,47,88
69120,note_on,0,0,3,,,,,,,,,2,,,47,0
69120,note_on,0,0,3,,,,,,,,,2,,,56,0
69120,note_on,0,0,3,,,,,,,,,2,,,44,88
69120,note_on,0,0,3,,,,,,,,,2,,,56,88
69120,note_on,0,0,3,,,,,,,,,2,,,52,88
69120,note_on,0,0,1,,,,,,,,,0,,,88,101
69120,note_on,960,0,3,,,,,,,,,2,,,59,0
69120,note_on,120,0,1,,,,,,,,,0,,,87,0
69240,note_on,120,0,1,,,,,,,,,0,,,88,0
69240,note_on,0,0,1,,,,,,,,,0,,,90,101
69360,note_on,120,0,1,,,,,,,,,0,,,90,0
69360,note_on,240,0,3,,,,,,,,,2,,,56,0
69360,note_on,0,0,3,,,,,,,,,2,,,44,0
69360,note_on,0,0,1,,,,,,,,,0,,,92,101
69360,note_on,0,0,3,,,,,,,,,2,,,52,0
69360,note_on,0,0,3,,,,,,,,,2,,,47,0
69480,note_on,120,0,1,,,,,,,,,0,,,92,0
69480,note_on,0,0,1,,,,,,,,,0,,,93,101
69600,control_change,240,0,3,,,,,,,,,2,64,127,,
69600,note_on,0,0,3,,,,,,,,,2,,,40,88
69600,note_on,0,0,3,,,,,,,,,2,,,52,88
69600,note_on,0,0,1,,,,,,,,,0,,,95,101
69600,note_on,120,0,1,,,,,,,,,0,,,93,0
69720,note_on,120,0,1,,,,,,,,,0,,,95,0
69720,note_on,0,0,1,,,,,,,,,0,,,97,101
69840,note_on,0,0,1,,,,,,,,,0,,,98,101
69840,note_on,120,0,1,,,,,,,,,0,,,97,0
69960,note_on,120,0,1,,,,,,,,,0,,,98,0
69960,note_on,0,0,1,,,,,,,,,0,,,97,101
70080,note_on,0,0,3,,,,,,,,,2,,,40,0
70080,note_on,480,0,3,,,,,,,,,2,,,52,0
70080,note_on,0,0,3,,,,,,,,,2,,,38,75
70080,note_on,120,0,1,,,,,,,,,0,,,97,0
70080,note_on,0,0,1,,,,,,,,,0,,,100,88
70080,note_on,0,0,3,,,,,,,,,2,,,50,75
70200,note_on,120,0,1,,,,,,,,,0,,,100,0
70200,note_on,0,0,1,,,,,,,,,0,,,98,88
70320,note_on,0,0,1,,,,,,,,,0,,,95,88
70320,note_on,120,0,1,,,,,,,,,0,,,98,0
70440,note_on,120,0,1,,,,,,,,,0,,,95,0
70440,note_on,0,0,1,,,,,,,,,0,,,92,88
70560,note_on,120,0,1,,,,,,,,,0,,,92,0
70560,control_change,0,0,3,,,,,,,,,2,64,0,,
70560,note_on,0,0,1,,,,,,,,,0,,,88,75
70560,note_on,0,0,3,,,,,,,,,2,,,35,62
70560,note_on,480,0,3,,,,,,,,,2,,,50,0
70560,note_on,0,0,3,,,,,,,,,2,,,38,0
70560,note_on,0,0,3,,,,,,,,,2,,,47,62
70680,note_on,120,0,1,,,,,,,,,0,,,88,0
70680,note_on,0,0,1,,,,,,,,,0,,,86,75
70800,note_on,0,0,1,,,,,,,,,0,,,85,75
70800,note_on,120,0,1,,,,,,,,,0,,,86,0
70920,note_on,0,0,1,,,,,,,,,0,,,83,75
70920,note_on,120,0,1,,,,,,,,,0,,,85,0
71040,note_on,0,0,3,,,,,,,,,2,,,45,101
71040,note_on,480,0,3,,,,,,,,,2,,,47,0
71040,key_signature,15360,1,0,,,,,Eb,,,,,,,,
71040,note_on,0,0,3,,,,,,,,,2,,,35,0
71040,note_on,0,0,1,,,,,,,,,0,,,93,101
71040,note_on,0,0,1,,,,,,,,,0,,,81,101
71040,note_on,0,0,3,,,,,,,,,2,,,33,101
71040,note_on,120,0,1,,,,,,,,,0,,,83,0
71280,note_on,0,0,3,,,,,,,,,2,,,35,101
71280,note_on,240,0,3,,,,,,,,,2,,,45,0
71280,note_on,0,0,3,,,,,,,,,2,,,33,0
71400,note_on,0,0,3,,,,,,,,,2,,,36,101
71400,note_on,120,0,3,,,,,,,,,2,,,35,0
71520,note_on,0,0,3,,,,,,,,,2,,,38,101
71520,note_on,120,0,3,,,,,,,,,2,,,36,0
71640,note_on,0,0,3,,,,,,,,,2,,,40,101
71640,note_on,120,0,3,,,,,,,,,2,,,38,0
71760,note_on,120,0,3,,,,,,,,,2,,,40,0
71760,note_on,0,0,3,,,,,,,,,2,,,42,101
71880,note_on,120,0,3,,,,,,,,,2,,,42,0
71880,note_on,0,0,3,,,,,,,,,2,,,44,101
72000,note_on,0,0,1,,,,,,,,,0,,,76,101
72000,note_on,120,0,3,,,,,,,,,2,,,44,0
72000,note_on,0,0,1,,,,,,,,,0,,,88,101
72000,note_on,0,0,1,,,,,,,,,0,,,84,101
72000,note_on,0,0,1,,,,,,,,,0,,,81,101
72000,note_on,960,0,1,,,,,,,,,0,,,93,0
72000,note_on,0,0,1,,,,,,,,,0,,,81,0
72000,note_on,0,0,3,,,,,,,,,2,,,45,101
72120,note_on,0,0,3,,,,,,,,,2,,,47,101
72120,note_on,120,0,3,,,,,,,,,2,,,45,0
72240,note_on,0,0,3,,,,,,,,,2,,,48,101
72240,note_on,120,0,3,,,,,,,,,2,,,47,0
72360,note_on,0,0,3,,,,,,,,,2,,,50,101
72360,note_on,120,0,3,,,,,,,,,2,,,48,0
72480,note_on,120,0,3,,,,,,,,,2,,,50,0
72480,note_on,0,0,3,,,,,,,,,2,,,52,101
72600,note_on,0,0,3,,,,,,,,,2,,,54,101
72600,note_on,120,0,3,,,,,,,,,2,,,52,0
72720,note_on,0,0,3,,,,,,,,,2,,,55,101
72720,note_on,120,0,3,,,,,,,,,2,,,54,0
72840,note_on,120,0,3,,,,,,,,,2,,,55,0
72840,note_on,0,0,3,,,,,,,,,2,,,56,101
72960,note_on,0,0,1,,,,,,,,,0,,,76,0
72960,note_on,0,0,1,,,,,,,,,0,,,72,101
72960,note_on,0,0,1,,,,,,,,,0,,,81,0
72960,note_on,0,0,1,,,,,,,,,0,,,76,101
72960,note_on,0,0,1,,,,,,,,,0,,,84,0
72960,note_on,960,0,1,,,,,,,,,0,,,88,0
72960,note_on,0,0,1,,,,,,,,,0,,,81,101
72960,note_on,0,0,3,,,,,,,,,2,,,57,101
72960,note_on,120,0,3,,,,,,,,,2,,,56,0
72960,note_on,0,0,1,,,,,,,,,0,,,84,101
73080,note_on,120,0,3,,,,,,,,,2,,,57,0
73080,note_on,0,0,3,,,,,,,,,2,,,59,101
73200,note_on,0,0,1,,,,,,,,,0,,,76,0
73200,note_on,0,0,1,,,,,,,,,0,,,81,0
73200,note_on,0,0,3,,,,,,,,,2,,,60,101
73200,note_on,120,0,3,,,,,,,,,2,,,59,0
73200,note_on,240,0,1,,,,,,,,,0,,,84,0
73200,note_on,0,0,1,,,,,,,,,0,,,72,0
73320,note_on,0,0,3,,,,,,,,,2,,,62,101
73320,note_on,120,0,3,,,,,,,,,2,,,60,0
73440,note_on,0,0,1,,,,,,,,,0,,,69,101
73440,note_on,0,0,3,,,,,,,,,2,,,64,101
73440,note_on,120,0,3,,,,,,,,,2,,,62,0
73440,control_change,240,0,1,,,,,,,,,0,64,127,,
73440,note_on,0,0,1,,,,,,,,,0,,,81,101
73560,note_on,120,0,3,,,,,,,,,2,,,64,0
73560,note_on,0,0,3,,,,,,,,,2,,,66,101
73680,note_on,120,0,3,,,,,,,,,2,,,66,0
73680,note_on,0,0,3,,,,,,,,,2,,,67,101
73800,note_on,120,0,3,,,,,,,,,2,,,67,0
73800,note_on,0,0,3,,,,,,,,,2,,,68,101
73920,note_on,480,0,1,,,,,,,,,0,,,81,0
73920,note_on,0,0,1,,,,,,,,,0,,,79,101
73920,note_on,0,0,1,,,,,,,,,0,,,73,101
73920,note_on,0,0,3,,,,,,,,,2,,,69,101
73920,note_on,0,0,1,,,,,,,,,0,,,69,0
73920,note_on,120,0,3,,,,,,,,,2,,,68,0
74040,note_on,0,0,3,,,,,,,,,2,,,67,101
74040,note_on,120,0,3,,,,,,,,,2,,,69,0
74160,note_on,0,0,3,,,,,,,,,2,,,64,101
74160,note_on,120,0,3,,,,,,,,,2,,,67,0
74280,note_on,120,0,3,,,,,,,,,2,,,64,0
74280,note_on,0,0,3,,,,,,,,,2,,,61,101
74400,note_on,0,0,1,,,,,,,,,0,,,73,0
74400,note_on,0,0,1,,,,,,,,,0,,,76,101
74400,note_on,0,0,1,,,,,,,,,0,,,69,101
74400,note_on,0,0,3,,,,,,,,,2,,,57,101
74400,note_on,0,0,1,,,,,,,,,0,,,67,101
74400,note_on,480,0,1,,,,,,,,,0,,,79,0
74400,note_on,0,0,1,,,,,,,,,0,,,64,101
74400,note_on,120,0,3,,,,,,,,,2,,,61,0
74400,control_change,0,0,1,,,,,,,,,0,64,0,,
74520,note_on,120,0,3,,,,,,,,,2,,,57,0
74520,note_on,0,0,3,,,,,,,,,2,,,55,101
74640,note_on,120,0,3,,,,,,,,,2,,,55,0
74640,note_on,0,0,3,,,,,,,,,2,,,52,101
74760,note_on,120,0,3,,,,,,,,,2,,,52,0
74760,note_on,0,0,3,,,,,,,,,2,,,49,101
74880,note_on,0,0,1,,,,,,,,,0,,,62,101
74880,note_on,0,0,1,,,,,,,,,0,,,64,0
74880,note_on,0,0,1,,,,,,,,,0,,,65,101
74880,note_on,0,0,1,,,,,,,,,0,,,67,0
74880,note_on,0,0,1,,,,,,,,,0,,,69,0
74880,note_on,480,0,1,,,,,,,,,0,,,76,0
74880,note_on,0,0,1,,,,,,,,,0,,,74,101
74880,note_on,0,0,3,,,,,,,,,2,,,50,101
74880,note_on,120,0,3,,,,,,,,,2,,,49,0
74880,note_on,0,0,1,,,,,,,,,0,,,69,101
75120,note_on,0,0,1,,,,,,,,,0,,,62,0
75120,note_on,0,0,1,,,,,,,,,0,,,69,0
75120,note_on,240,0,1,,,,,,,,,0,,,74,0
75120,note_on,0,0,1,,,,,,,,,0,,,65,0
75120,note_on,0,0,1,,,,,,,,,0,,,64,101
75240,note_on,0,0,1,,,,,,,,,0,,,65,101
75240,note_on,120,0,1,,,,,,,,,0,,,64,0
75360,note_on,0,0,1,,,,,,,,,0,,,67,101
75360,note_on,120,0,1,,,,,,,,,0,,,65,0
75480,note_on,0,0,1,,,,,,,,,0,,,69,101
75480,note_on,120,0,1,,,,,,,,,0,,,67,0
75600,note_on,120,0,1,,,,,,,,,0,,,69,0
75600,note_on,0,0,1,,,,,,,,,0,,,71,101
75720,note_on,0,0,1,,,,,,,,,0,,,73,101
75720,note_on,120,0,1,,,,,,,,,0,,,71,0
75840,note_on,0,0,1,,,,,,,,,0,,,74,101
75840,note_on,120,0,1,,,,,,,,,0,,,73,0
75840,note_on,0,0,3,,,,,,,,,2,,,57,101
75840,note_on,0,0,3,,,,,,,,,2,,,45,101
75840,note_on,960,0,3,,,,,,,,,2,,,50,0
75960,note_on,0,0,1,,,,,,,,,0,,,76,101
75960,note_on,120,0,1,,,,,,,,,0,,,74,0
76080,note_on,0,0,1,,,,,,,,,0,,,77,101
76080,note_on,120,0,1,,,,,,,,,0,,,76,0
76200,note_on,0,0,1,,,,,,,,,0,,,79,101
76200,note_on,120,0,1,,,,,,,,,0,,,77,0
76320,note_on,0,0,1,,,,,,,,,0,,,81,101
76320,note_on,120,0,1,,,,,,,,,0,,,79,0
76440,note_on,120,0,1,,,,,,,,,0,,,81,0
76440,note_on,0,0,1,,,,,,,,,0,,,83,101
76560,note_on,0,0,1,,,,,,,,,0,,,84,101
76560,note_on,120,0,1,,,,,,,,,0,,,83,0
76680,note_on,120,0,1,,,,,,,,,0,,,84,0
76680,note_on,0,0,1,,,,,,,,,0,,,85,101
76800,note_on,120,0,1,,,,,,,,,0,,,85,0
76800,note_on,0,0,1,,,,,,,,,0,,,86,101
76800,note_on,960,0,3,,,,,,,,,2,,,57,0
76800,note_on,0,0,3,,,,,,,,,2,,,41,101
76800,note_on,0,0,3,,,,,,,,,2,,,45,0
76800,note_on,0,0,3,,,,,,,,,2,,,53,101
76920,note_on,0,0,1,,,,,,,,,0,,,88,101
76920,note_on,120,0,1,,,,,,,,,0,,,86,0
77040,note_on,240,0,3,,,,,,,,,2,,,53,0
77040,note_on,0,0,1,,,,,,,,,0,,,89,101
77040,note_on,120,0,1,,,,,,,,,0,,,88,0
77040,note_on,0,0,3,,,,,,,,,2,,,41,0
77160,note_on,0,0,1,,,,,,,,,0,,,91,101
77160,note_on,120,0,1,,,,,,,,,0,,,89,0
77280,note_on,120,0,1,,,,,,,,,0,,,91,0
77280,note_on,0,0,1,,,,,,,,,0,,,93,88
77280,note_on,0,0,3,,,,,,,,,2,,,50,88
77280,note_on,240,0,3,,,,,,,,,2,,,38,88
77400,note_on,120,0,1,,,,,,,,,0,,,93,0
77400,note_on,0,0,1,,,,,,,,,0,,,95,88
77520,note_on,0,0,1,,,,,,,,,0,,,96,88
77520,note_on,120,0,1,,,,,,,,,0,,,95,0
77640,note_on,0,0,1,,,,,,,,,0,,,97,88
77640,note_on,120,0,1,,,,,,,,,0,,,96,0
77760,note_on,0,0,3,,,,,,,,,2,,,48,75
77760,note_on,480,0,3,,,,,,,,,2,,,50,0
77760,note_on,0,0,3,,,,,,,,,2,,,38,0
77760,note_on,0,0,3,,,,,,,,,2,,,36,75
77760,note_on,120,0,1,,,,,,,,,0,,,97,0
77760,note_on,0,0,1,,,,,,,,,0,,,98,75
77880,note_on,120,0,1,,,,,,,,,0,,,98,0
77880,note_on,0,0,1,,,,,,,,,0,,,96,75
78000,note_on,120,0,1,,,,,,,,,0,,,96,0
78000,note_on,0,0,1,,,,,,,,,0,,,93,75
78120,note_on,120,0,1,,,,,,,,,0,,,93,0
78120,note_on,0,0,1,,,,,,,,,0,,,90,75
78240,note_on,0,0,1,,,,,,,,,0,,,86,75
78240,note_on,120,0,1,,,,,,,,,0,,,90,0
78240,note_on,480,0,3,,,,,,,,,2,,,48,0
78240,note_on,0,0,3,,,,,,,,,2,,,45,75
78240,note_on,0,0,3,,,,,,,,,2,,,36,0
78240,note_on,0,0,3,,,,,,,,,2,,,33,75
78360,note_on,0,0,1,,,,,,,,,0,,,84,75
78360,note_on,120,0,1,,,,,,,,,0,,,86,0
78480,note_on,0,0,1,,,,,,,,,0,,,81,75
78480,note_on,120,0,1,,,,,,,,,0,,,84,0
78600,note_on,120,0,1,,,,,,,,,0,,,81,0
78600,note_on,0,0,1,,,,,,,,,0,,,78,75
78720,note_on,0,0,3,,,,,,,,,2,,,33,0
78720,note_on,0,0,1,,,,,,,,,0,,,79,75
78720,note_on,120,0,1,,,,,,,,,0,,,78,0
78720,note_on,0,0,1,,,,,,,,,0,,,91,75
78720,note_on,0,0,3,,,,,,,,,2,,,43,75
78720,note_on,480,0,3,,,,,,,,,2,,,45,0
78720,note_on,0,0,3,,,,,,,,,2,,,31,75
78960,note_on,240,0,3,,,,,,,,,2,,,43,0
78960,note_on,0,0,3,,,,,,,,,2,,,31,0
78960,note_on,0,0,3,,,,,,,,,2,,,33,75
79080,note_on,0,0,3,,,,,,,,,2,,,35,75
79080,note_on,120,0,3,,,,,,,,,2,,,33,0
79200,note_on,120,0,3,,,,,,,,,2,,,35,0
79200,note_on,0,0,3,,,,,,,,,2,,,36,75
79320,note_on,0,0,3,,,,,,,,,2,,,38,75
79320,note_on,120,0,3,,,,,,,,,2,,,36,0
79440,note_on,120,0,3,,,,,,,,,2,,,38,0
79440,note_on,0,0,3,,,,,,,,,2,,,40,75
79560,note_on,120,0,3,,,,,,,,,2,,,40,0
79560,note_on,0,0,3,,,,,,,,,2,,,42,75
79680,note_on,0,0,1,,,,,,,,,0,,,74,75
79680,note_on,0,0,1,,,,,,,,,0,,,79,75
79680,note_on,0,0,3,,,,,,,,,2,,,43,75
79680,note_on,0,0,1,,,,,,,,,0,,,83,75
79680,note_on,0,0,1,,,,,,,,,0,,,79,0
79680,note_on,120,0,3,,,,,,,,,2,,,42,0
79680,note_on,960,0,1,,,,,,,,,0,,,91,0
79680,note_on,0,0,1,,,,,,,,,0,,,86,75
79800,note_on,0,0,3,,,,,,,,,2,,,45,75
79800,note_on,120,0,3,,,,,,,,,2,,,43,0
79920,note_on,0,0,3,,,,,,,,,2,,,47,75
79920,note_on,120,0,3,,,,,,,,,2,,,45,0
80040,note_on,120,0,3,,,,,,,,,2,,,47,0
80040,note_on,0,0,3,,,,,,,,,2,,,48,75
80160,note_on,120,0,3,,,,,,,,,2,,,48,0
80160,note_on,0,0,3,,,,,,,,,2,,,50,75
80280,note_on,120,0,3,,,,,,,,,2,,,50,0
80280,note_on,0,0,3,,,,,,,,,2,,,52,75
80400,note_on,120,0,3,,,,,,,,,2,,,52,0
80400,note_on,0,0,3,,,,,,,,,2,,,53,75
80520,note_on,0,0,3,,,,,,,,,2,,,54,75
80520,note_on,120,0,3,,,,,,,,,2,,,53,0
80640,note_on,120,0,3,,,,,,,,,2,,,54,0
80640,note_on,0,0,1,,,,,,,,,0,,,74,0
80640,note_on,0,0,3,,,,,,,,,2,,,55,75
80640,note_on,960,0,1,,,,,,,,,0,,,86,0
80640,note_on,0,0,1,,,,,,,,,0,,,83,75
80640,note_on,0,0,1,,,,,,,,,0,,,71,75
80640,note_on,0,0,1,,,,,,,,,0,,,79,75
80640,note_on,0,0,1,,,,,,,,,0,,,83,0
80640,note_on,0,0,1,,,,,,,,,0,,,74,75
80640,note_on,0,0,1,,,,,,,,,0,,,79,0
80880,note_on,0,0,1,,,,,,,,,0,,,67,75
80880,note_on,0,0,1,,,,,,,,,0,,,71,0
80880,note_on,0,0,1,,,,,,,,,0,,,74,0
80880,note_on,0,0,1,,,,,,,,,0,,,79,0
80880,note_on,240,0,3,,,,,,,,,2,,,55,0
80880,note_on,240,0,1,,,,,,,,,0,,,83,0
81000,note_on,0,0,1,,,,,,,,,0,,,69,75
81000,note_on,120,0,1,,,,,,,,,0,,,67,0
81120,note_on,0,0,1,,,,,,,,,0,,,71,75
81120,note_on,120,0,1,,,,,,,,,0,,,69,0
81120,note_on,0,0,3,,,,,,,,,2,,,50,75
81120,note_on,0,0,3,,,,,,,,,2,,,38,75
81120,control_change,240,0,3,,,,,,,,,2,64,127,,
81240,note_on,0,0,1,,,,,,,,,0,,,72,75
81240,note_on,120,0,1,,,,,,,,,0,,,71,0
81360,note_on,120,0,1,,,,,,,,,0,,,72,0
81360,note_on,0,0,1,,,,,,,,,0,,,74,75
81480,note_on,120,0,1,,,,,,,,,0,,,74,0
81480,note_on,0,0,1,,,,,,,,,0,,,75,75
81600,note_on,0,0,1,,,,,,,,,0,,,77,75
81600,note_on,120,0,1,,,,,,,,,0,,,75,0
81600,note_on,480,0,3,,,,,,,,,2,,,50,0
81600,note_on,0,0,3,,,,,,,,,2,,,35,75
81600,note_on,0,0,3,,,,,,,,,2,,,38,0
81600,note_on,0,0,3,,,,,,,,,2,,,47,75
81720,note_on,120,0,1,,,,,,,,,0,,,77,0
81720,note_on,0,0,1,,,,,,,,,0,,,79,75
81840,note_on,120,0,1,,,,,,,,,0,,,79,0
81840,note_on,0,0,1,,,,,,,,,0,,,81,75
81960,note_on,120,0,1,,,,,,,,,0,,,81,0
81960,note_on,0,0,1,,,,,,,,,0,,,83,75
82080,note_on,0,0,1,,,,,,,,,0,,,84,75
82080,note_on,120,0,1,,,,,,,,,0,,,83,0
82080,note_on,0,0,3,,,,,,,,,2,,,43,75
82080,control_change,0,0,3,,,,,,,,,2,64,0,,
82080,note_on,0,0,3,,,,,,,,,2,,,31,75
82080,note_on,480,0,3,,,,,,,,,2,,,47,0
82080,note_on,0,0,3,,,,,,,,,2,,,35,0
82200,note_on,120,0,1,,,,,,,,,0,,,84,0
82200,note_on,0,0,1,,,,,,,,,0,,,86,75
82320,note_on,120,0,1,,,,,,,,,0,,,86,0
82320,note_on,0,0,1,,,,,,,,,0,,,87,75
82440,note_on,120,0,1,,,,,,,,,0,,,87,0
82440,note_on,0,0,1,,,,,,,,,0,,,89,75
82560,note_on,0,0,1,,,,,,,,,0,,,79,75
82560,note_on,0,0,1,,,,,,,,,0,,,84,75
82560,note_on,0,0,1,,,,,,,,,0,,,91,75
82560,note_on,0,0,3,,,,,,,,,2,,,31,75
82560,note_on,0,0,3,,,,,,,,,2,,,31,0
82560,note_on,0,0,3,,,,,,,,,2,,,43,75
82560,note_on,0,0,1,,,,,,,,,0,,,87,75
82560,note_on,480,0,3,,,,,,,,,2,,,43,0
82560,note_on,120,0,1,,,,,,,,,0,,,89,0
82800,note_on,0,0,3,,,,,,,,,2,,,33,75
82800,note_on,0,0,3,,,,,,,,,2,,,31,0
82800,note_on,240,0,3,,,,,,,,,2,,,43,0
82920,note_on,120,0,3,,,,,,,,,2,,,33,0
82920,note_on,0,0,3,,,,,,,,,2,,,35,75
83040,note_on,0,0,3,,,,,,,,,2,,,36,75
83040,note_on,120,0,3,,,,,,,,,2,,,35,0
83160,note_on,120,0,3,,,,,,,,,2,,,36,0
83160,note_on,0,0,3,,,,,,,,,2,,,38,75
83280,note_on,0,0,3,,,,,,,,,2,,,39,75
83280,note_on,120,0,3,,,,,,,,,2,,,38,0
83400,note_on,120,0,3,,,,,,,,,2,,,39,0
83400,note_on,0,0,3,,,,,,,,,2,,,41,75
83520,note_on,0,0,1,,,,,,,,,0,,,84,0
83520,note_on,0,0,1,,,,,,,,,0,,,87,88
83520,note_on,120,0,3,,,,,,,,,2,,,41,0
83520,note_on,0,0,1,,,,,,,,,0,,,79,88
83520,note_on,0,0,1,,,,,,,,,0,,,79,0
83520,note_on,960,0,1,,,,,,,,,0,,,91,0
83520,note_on,0,0,1,,,,,,,,,0,,,75,88
83520,note_on,0,0,3,,,,,,,,,2,,,43,88
83520,note_on,0,0,1,,,,,,,,,0,,,84,88
83520,note_on,0,0,1,,,,,,,,,0,,,87,0
83640,note_on,120,0,3,,,,,,,,,2,,,43,0
83640,note_on,0,0,3,,,,,,,,,2,,,45,88
83760,note_on,0,0,3,,,,,,,,,2,,,47,88
83760,note_on,120,0,3,,,,,,,,,2,,,45,0
83880,note_on,0,0,3,,,,,,,,,2,,,48,88
83880,note_on,120,0,3,,,,,,,,,2,,,47,0
84000,note_on,120,0,3,,,,,,,,,2,,,48,0
84000,note_on,0,0,3,,,,,,,,,2,,,50,88
84120,note_on,120,0,3,,,,,,,,,2,,,50,0
84120,note_on,0,0,3,,,,,,,,,2,,,51,88
84240,note_on,120,0,3,,,,,,,,,2,,,51,0
84240,note_on,0,0,3,,,,,,,,,2,,,53,88
84360,note_on,120,0,3,,,,,,,,,2,,,53,0
84360,note_on,0,0,3,,,,,,,,,2,,,54,88
84480,note_on,0,0,1,,,,,,,,,0,,,75,0
84480,note_on,960,0,1,,,,,,,,,0,,,87,0
84480,note_on,0,0,1,,,,,,,,,0,,,84,88
84480,note_on,0,0,1,,,,,,,,,0,,,84,0
84480,note_on,0,0,1,,,,,,,,,0,,,79,88
84480,note_on,0,0,1,,,,,,,,,0,,,79,0
84480,note_on,0,0,3,,,,,,,,,2,,,55,88
84480,note_on,0,0,1,,,,,,,,,0,,,75,88
84480,note_on,120,0,3,,,,,,,,,2,,,54,0
84480,note_on,0,0,1,,,,,,,,,0,,,72,88
84720,note_on,240,0,3,,,,,,,,,2,,,55,0
84720,note_on,240,0,1,,,,,,,,,0,,,84,0
84720,note_on,0,0,1,,,,,,,,,0,,,67,88
84720,note_on,0,0,1,,,,,,,,,0,,,72,0
84720,note_on,0,0,1,,,,,,,,,0,,,75,0
84720,note_on,0,0,1,,,,,,,,,0,,,79,0
84840,note_on,120,0,1,,,,,,,,,0,,,67,0
84840,note_on,0,0,1,,,,,,,,,0,,,69,88
84960,note_on,120,0,1,,,,,,,,,0,,,69,0
84960,note_on,0,0,3,,,,,,,,,2,,,51,88
84960,control_change,240,0,3,,,,,,,,,2,64,127,,
84960,note_on,0,0,1,,,,,,,,,0,,,71,88
84960,note_on,0,0,3,,,,,,,,,2,,,39,88
85080,note_on,0,0,1,,,,,,,,,0,,,72,88
85080,note_on,120,0,1,,,,,,,,,0,,,71,0
85200,note_on,0,0,1,,,,,,,,,0,,,74,88
85200,note_on,120,0,1,,,,,,,,,0,,,72,0
85320,note_on,120,0,1,,,,,,,,,0,,,74,0
85320,note_on,0,0,1,,,,,,,,,0,,,75,88
85440,note_on,0,0,3,,,,,,,,,2,,,36,88
85440,note_on,480,0,3,,,,,,,,,2,,,51,0
85440,note_on,120,0,1,,,,,,,,,0,,,75,0
85440,note_on,0,0,1,,,,,,,,,0,,,77,88
85440,note_on,0,0,3,,,,,,,,,2,,,39,0
85440,note_on,0,0,3,,,,,,,,,2,,,48,88
85560,note_on,0,0,1,,,,,,,,,0,,,79,88
85560,note_on,120,0,1,,,,,,,,,0,,,77,0
85680,note_on,0,0,1,,,,,,,,,0,,,81,88
85680,note_on,120,0,1,,,,,,,,,0,,,79,0
85800,note_on,0,0,1,,,,,,,,,0,,,83,88
85800,note_on,120,0,1,,,,,,,,,0,,,81,0
85920,note_on,0,0,1,,,,,,,,,0,,,84,88
85920,control_change,0,0,3,,,,,,,,,2,64,0,,
85920,note_on,0,0,3,,,,,,,,,2,,,43,88
85920,note_on,120,0,1,,,,,,,,,0,,,83,0
85920,note_on,480,0,3,,,,,,,,,2,,,48,0
85920,note_on,0,0,3,,,,,,,,,2,,,36,0
85920,note_on,0,0,3,,,,,,,,,2,,,31,88
86040,note_on,0,0,1,,,,,,,,,0,,,86,88
86040,note_on,120,0,1,,,,,,,,,0,,,84,0
86160,note_on,120,0,1,,,,,,,,,0,,,86,0
86160,note_on,0,0,1,,,,,,,,,0,,,87,88
86280,note_on,0,0,1,,,,,,,,,0,,,89,88
86280,note_on,120,0,1,,,,,,,,,0,,,87,0
86400,note_on,0,0,1,,,,,,,,,0,,,85,88
86400,note_on,0,0,1,,,,,,,,,0,,,79,88
86400,note_on,0,0,3,,,,,,,,,2,,,31,0
86400,note_on,480,0,3,,,,,,,,,2,,,43,0
86400,note_on,120,0,1,,,,,,,,,0,,,89,0
86400,note_on,0,0,3,,,,,,,,,2,,,31,88
86400,note_on,0,0,3,,,,,,,,,2,,,43,88
86400,note_on,0,0,1,,,,,,,,,0,,,88,88
86400,note_on,0,0,1,,,,,,,,,0,,,91,88
86640,note_on,0,0,3,,,,,,,,,2,,,33,88
86640,note_on,0,0,3,,,,,,,,,2,,,31,0
86640,note_on,240,0,3,,,,,,,,,2,,,43,0
86760,note_on,0,0,3,,,,,,,,,2,,,35,88
86760,note_on,120,0,3,,,,,,,,,2,,,33,0
86880,note_on,0,0,3,,,,,,,,,2,,,37,88
86880,note_on,120,0,3,,,,,,,,,2,,,35,0
87000,note_on,0,0,3,,,,,,,,,2,,,38,88
87000,note_on,120,0,3,,,,,,,,,2,,,37,0
87120,note_on,0,0,3,,,,,,,,,2,,,40,88
87120,note_on,120,0,3,,,,,,,,,2,,,38,0
87240,note_on,120,0,3,,,,,,,,,2,,,40,0
87240,note_on,0,0,3,,,,,,,,,2,,,41,88
87360,note_on,960,0,1,,,,,,,,,0,,,91,0
87360,note_on,0,0,1,,,,,,,,,0,,,79,88
87360,note_on,0,0,3,,,,,,,,,2,,,43,88
87360,note_on,0,0,1,,,,,,,,,0,,,79,0
87360,note_on,0,0,1,,,,,,,,,0,,,85,0
87360,note_on,120,0,3,,,,,,,,,2,,,41,0
87360,note_on,0,0,1,,,,,,,,,0,,,88,88
87360,note_on,0,0,1,,,,,,,,,0,,,88,0
87360,note_on,0,0,1,,,,,,,,,0,,,76,88
87360,note_on,0,0,1,,,,,,,,,0,,,85,88
87480,note_on,120,0,3,,,,,,,,,2,,,43,0
87480,note_on,0,0,3,,,,,,,,,2,,,45,88
87600,note_on,120,0,3,,,,,,,,,2,,,45,0
87600,note_on,0,0,3,,,,,,,,,2,,,47,88
87720,note_on,120,0,3,,,,,,,,,2,,,47,0
87720,note_on,0,0,3,,,,,,,,,2,,,49,88
87840,note_on,0,0,3,,,,,,,,,2,,,50,88
87840,note_on,120,0,3,,,,,,,,,2,,,49,0
87960,note_on,120,0,3,,,,,,,,,2,,,50,0
87960,note_on,0,0,3,,,,,,,,,2,,,52,88
88080,note_on,120,0,3,,,,,,,,,2,,,52,0
88080,note_on,0,0,3,,,,,,,,,2,,,53,88
88200,note_on,0,0,3,,,,,,,,,2,,,54,88
88200,note_on,120,0,3,,,,,,,,,2,,,53,0
88320,note_on,960,0,1,,,,,,,,,0,,,88,0
88320,note_on,0,0,1,,,,,,,,,0,,,76,0
88320,note_on,120,0,3,,,,,,,,,2,,,54,0
88320,note_on,0,0,3,,,,,,,,,2,,,55,88
88320,note_on,0,0,1,,,,,,,,,0,,,73,88
88320,note_on,0,0,1,,,,,,,,,0,,,76,88
88320,note_on,0,0,1,,,,,,,,,0,,,79,0
88320,note_on,0,0,1,,,,,,,,,0,,,79,88
88320,note_on,0,0,1,,,,,,,,,0,,,85,0
88320,note_on,0,0,1,,,,,,,,,0,,,85,88
88560,note_on,240,0,1,,,,,,,,,0,,,85,0
88560,note_on,240,0,3,,,,,,,,,2,,,55,0
88560,note_on,0,0,1,,,,,,,,,0,,,73,0
88560,note_on,0,0,1,,,,,,,,,0,,,67,88
88560,note_on,0,0,1,,,,,,,,,0,,,76,0
88560,note_on,0,0,1,,,,,,,,,0,,,79,0
88680,note_on,0,0,1,,,,,,,,,0,,,69,88
88680,note_on,120,0,1,,,,,,,,,0,,,67,0
88800,note_on,0,0,1,,,,,,,,,0,,,71,88
88800,note_on,120,0,1,,,,,,,,,0,,,69,0
88800,note_on,0,0,3,,,,,,,,,2,,,52,88
88800,note_on,0,0,3,,,,,,,,,2,,,40,88
88800,control_change,240,0,3,,,,,,,,,2,64,127,,
88920,note_on,120,0,1,,,,,,,,,0,,,71,0
88920,note_on,0,0,1,,,,,,,,,0,,,73,88
89040,note_on,120,0,1,,,,,,,,,0,,,73,0
89040,note_on,0,0,1,,,,,,,,,0,,,74,88
89160,note_on,0,0,1,,,,,,,,,0,,,76,88
89160,note_on,120,0,1,,,,,,,,,0,,,74,0
89280,note_on,0,0,3,,,,,,,,,2,,,40,0
89280,note_on,0,0,3,,,,,,,,,2,,,49,88
89280,note_on,0,0,3,,,,,,,,,2,,,37,88
89280,note_on,480,0,3,,,,,,,,,2,,,52,0
89280,note_on,120,0,1,,,,,,,,,0,,,76,0
89280,note_on,0,0,1,,,,,,,,,0,,,77,88
89400,note_on,120,0,1,,,,,,,,,0,,,77,0
89400,note_on,0,0,1,,,,,,,,,0,,,79,88
89520,note_on,120,0,1,,,,,,,,,0,,,79,0
89520,note_on,0,0,1,,,,,,,,,0,,,81,88
89640,note_on,120,0,1,,,,,,,,,0,,,81,0
89640,note_on,0,0,1,,,,,,,,,0,,,83,88
89760,note_on,0,0,1,,,,,,,,,0,,,85,88
89760,note_on,480,0,3,,,,,,,,,2,,,49,0
89760,note_on,0,0,3,,,,,,,,,2,,,31,88
89760,note_on,0,0,3,,,,,,,,,2,,,37,0
89760,note_on,0,0,3,,,,,,,,,2,,,43,88
89760,note_on,120,0,1,,,,,,,,,0,,,83,0
89760,control_change,0,0,1,,,,,,,,,0,64,127,,
89856,note_on,0,0,1,,,,,,,,,0,,,86,88
89856,note_on,96,0,1,,,,,,,,,0,,,85,0
89952,note_on,0,0,1,,,,,,,,,0,,,88,88
89952,note_on,96,0,1,,,,,,,,,0,,,86,0
90047,note_on,95,0,1,,,,,,,,,0,,,88,0
90047,note_on,0,0,1,,,,,,,,,0,,,89,88
90143,note_on,0,0,1,,,,,,,,,0,,,90,88
90143,note_on,96,0,1,,,,,,,,,0,,,89,0
90240,control_change,0,0,3,,,,,,,,,2,64,0,,
90240,note_on,0,0,3,,,,,,,,,2,,,31,88
90240,note_on,0,0,3,,,,,,,,,2,,,43,88
90240,note_on,0,0,1,,,,,,,,,0,,,91,88
90240,note_on,0,0,3,,,,,,,,,2,,,41,88
90240,note_on,0,0,1,,,,,,,,,0,,,79,88
90240,control_change,0,0,1,,,,,,,,,0,64,0,,
90240,note_on,480,0,3,,,,,,,,,2,,,43,0
90240,note_on,97,0,1,,,,,,,,,0,,,90,0
90240,note_on,0,0,3,,,,,,,,,2,,,31,0
90240,note_on,0,0,3,,,,,,,,,2,,,38,88
90480,note_on,240,0,1,,,,,,,,,0,,,91,0
90480,note_on,0,0,3,,,,,,,,,2,,,31,0
90480,note_on,0,0,3,,,,,,,,,2,,,41,0
90480,note_on,0,0,3,,,,,,,,,2,,,38,0
90480,note_on,0,0,1,,,,,,,,,0,,,79,0
90480,note_on,0,0,1,,,,,,,,,0,,,55,88
90480,note_on,240,0,3,,,,,,,,,2,,,43,0
90480,note_on,0,0,3,,,,,,,,,2,,,43,88
90600,note_on,0,0,1,,,,,,,,,0,,,57,88
90600,note_on,120,0,1,,,,,,,,,0,,,55,0
90600,note_on,0,0,3,,,,,,,,,2,,,45,88
90600,note_on,120,0,3,,,,,,,,,2,,,43,0
90720,note_on,120,0,1,,,,,,,,,0,,,57,0
90720,note_on,120,0,3,,,,,,,,,2,,,45,0
90720,note_on,0,0,3,,,,,,,,,2,,,47,88
90720,note_on,0,0,1,,,,,,,,,0,,,59,88
90840,note_on,0,0,1,,,,,,,,,0,,,60,88
90840,note_on,120,0,1,,,,,,,,,0,,,59,0
90840,note_on,120,0,3,,,,,,,,,2,,,47,0
90840,note_on,0,0,3,,,,,,,,,2,,,48,88
90960,note_on,0,0,1,,,,,,,,,0,,,62,88
90960,note_on,120,0,3,,,,,,,,,2,,,48,0
90960,note_on,120,0,1,,,,,,,,,0,,,60,0
90960,note_on,0,0,3,,,,,,,,,2,,,50,88
91080,note_on,120,0,3,,,,,,,,,2,,,50,0
91080,note_on,0,0,3,,,,,,,,,2,,,51,88
91080,note_on,0,0,1,,,,,,,,,0,,,63,88
91080,note_on,120,0,1,,,,,,,,,0,,,62,0
91200,note_on,120,0,1,,,,,,,,,0,,,63,0
91200,note_on,0,0,1,,,,,,,,,0,,,65,88
91200,note_on,0,0,3,,,,,,,,,2,,,53,88
91200,note_on,120,0,3,,,,,,,,,2,,,51,0
91320,note_on,0,0,1,,,,,,,,,0,,,67,88
91320,note_on,120,0,1,,,,,,,,,0,,,65,0
91320,note_on,0,0,3,,,,,,,,,2,,,55,88
91320,note_on,120,0,3,,,,,,,,,2,,,53,0
91440,note_on,120,0,3,,,,,,,,,2,,,55,0
91440,note_on,120,0,1,,,,,,,,,0,,,67,0
91440,note_on,0,0,1,,,,,,,,,0,,,68,88
91440,note_on,0,0,3,,,,,,,,,2,,,56,88
91560,note_on,120,0,3,,,,,,,,,2,,,56,0
91560,note_on,120,0,1,,,,,,,,,0,,,68,0
91560,note_on,0,0,1,,,,,,,,,0,,,67,88
91560,note_on,0,0,3,,,,,,,,,2,,,55,88
91680,note_on,120,0,1,,,,,,,,,0,,,67,0
91680,note_on,120,0,3,,,,,,,,,2,,,55,0
91680,note_on,0,0,3,,,,,,,,,2,,,53,88
91680,note_on,0,0,1,,,,,,,,,0,,,65,88
91800,note_on,0,0,1,,,,,,,,,0,,,63,88
91800,note_on,120,0,1,,,,,,,,,0,,,65,0
91800,note_on,120,0,3,,,,,,,,,2,,,53,0
91800,note_on,0,0,3,,,,,,,,,2,,,51,88
91920,note_on,0,0,1,,,,,,,,,0,,,62,88
91920,note_on,120,0,1,,,,,,,,,0,,,63,0
91920,note_on,120,0,3,,,,,,,,,2,,,51,0
91920,note_on,0,0,3,,,,,,,,,2,,,50,88
92040,note_on,120,0,3,,,,,,,,,2,,,50,0
92040,note_on,0,0,3,,,,,,,,,2,,,48,88
92040,note_on,120,0,1,,,,,,,,,0,,,62,0
92040,note_on,0,0,1,,,,,,,,,0,,,60,88
92160,note_on,120,0,3,,,,,,,,,2,,,48,0
92160,note_on,0,0,3,,,,,,,,,2,,,47,75
92160,note_on,120,0,1,,,,,,,,,0,,,60,0
92160,note_on,0,0,1,,,,,,,,,0,,,59,75
92280,note_on,0,0,1,,,,,,,,,0,,,60,75
92280,note_on,0,0,3,,,,,,,,,2,,,48,75
92280,note_on,120,0,1,,,,,,,,,0,,,59,0
92280,note_on,120,0,3,,,,,,,,,2,,,47,0
92400,note_on,0,0,3,,,,,,,,,2,,,50,75
92400,note_on,120,0,3,,,,,,,,,2,,,48,0
92400,note_on,0,0,1,,,,,,,,,0,,,62,75
92400,note_on,120,0,1,,,,,,,,,0,,,60,0
92520,note_on,120,0,3,,,,,,,,,2,,,50,0
92520,note_on,0,0,3,,,,,,,,,2,,,51,75
92520,note_on,0,0,1,,,,,,,,,0,,,63,75
92520,note_on,120,0,1,,,,,,,,,0,,,62,0
92640,note_on,0,0,3,,,,,,,,,2,,,53,88
92640,note_on,120,0,3,,,,,,,,,2,,,51,0
92640,note_on,0,0,1,,,,,,,,,0,,,65,88
92640,note_on,120,0,1,,,,,,,,,0,,,63,0
92760,note_on,120,0,1,,,,,,,,,0,,,65,0
92760,note_on,120,0,3,,,,,,,,,2,,,53,0
92760,note_on,0,0,3,,,,,,,,,2,,,55,88
92760,note_on,0,0,1,,,,,,,,,0,,,67,88
92880,note_on,120,0,1,,,,,,,,,0,,,67,0
92880,note_on,120,0,3,,,,,,,,,2,,,55,0
92880,note_on,0,0,3,,,,,,,,,2,,,56,88
92880,note_on,0,0,1,,,,,,,,,0,,,68,88
93000,note_on,120,0,3,,,,,,,,,2,,,56,0
93000,note_on,120,0,1,,,,,,,,,0,,,68,0
93000,note_on,0,0,1,,,,,,,,,0,,,67,88
93000,note_on,0,0,3,,,,,,,,,2,,,55,88
93120,note_on,120,0,1,,,,,,,,,0,,,67,0
93120,note_on,120,0,3,,,,,,,,,2,,,55,0
93120,note_on,0,0,3,,,,,,,,,2,,,53,88
93120,note_on,0,0,1,,,,,,,,,0,,,65,88
93240,note_on,0,0,1,,,,,,,,,0,,,63,88
93240,note_on,0,0,3,,,,,,,,,2,,,51,88
93240,note_on,120,0,1,,,,,,,,,0,,,65,0
93240,note_on,120,0,3,,,,,,,,,2,,,53,0
93360,note_on,0,0,1,,,,,,,,,0,,,62,88
93360,note_on,0,0,3,,,,,,,,,2,,,50,88
93360,note_on,120,0,1,,,,,,,,,0,,,63,0
93360,note_on,120,0,3,,,,,,,,,2,,,51,0
93480,note_on,0,0,1,,,,,,,,,0,,,60,88
93480,note_on,0,0,3,,,,,,,,,2,,,48,88
93480,note_on,120,0,1,,,,,,,,,0,,,62,0
93480,note_on,120,0,3,,,,,,,,,2,,,50,0
93600,note_on,120,0,1,,,,,,,,,0,,,60,0
93600,note_on,120,0,3,,,,,,,,,2,,,48,0
93600,note_on,0,0,3,,,,,,,,,2,,,47,75
93600,note_on,0,0,1,,,,,,,,,0,,,59,75
93720,note_on,0,0,1,,,,,,,,,0,,,60,75
93720,note_on,120,0,3,,,,,,,,,2,,,47,0
93720,note_on,0,0,3,,,,,,,,,2,,,48,75
93720,note_on,120,0,1,,,,,,,,,0,,,59,0
93840,note_on,0,0,1,,,,,,,,,0,,,62,75
93840,note_on,120,0,1,,,,,,,,,0,,,60,0
93840,note_on,120,0,3,,,,,,,,,2,,,48,0
93840,note_on,0,0,3,,,,,,,,,2,,,50,75
93960,note_on,120,0,1,,,,,,,,,0,,,62,0
93960,note_on,0,0,1,,,,,,,,,0,,,63,75
93960,note_on,0,0,3,,,,,,,,,2,,,51,75
93960,note_on,120,0,3,,,,,,,,,2,,,50,0
94080,note_on,120,0,1,,,,,,,,,0,,,63,0
94080,note_on,0,0,3,,,,,,,,,2,,,53,75
94080,note_on,0,0,1,,,,,,,,,0,,,65,75
94080,note_on,120,0,3,,,,,,,,,2,,,51,0
94200,note_on,120,0,1,,,,,,,,,0,,,65,0
94200,note_on,0,0,1,,,,,,,,,0,,,67,75
94200,note_on,0,0,3,,,,,,,,,2,,,55,75
94200,note_on,120,0,3,,,,,,,,,2,,,53,0
94320,note_on,0,0,1,,,,,,,,,0,,,68,75
94320,note_on,0,0,3,,,,,,,,,2,,,56,75
94320,note_on,120,0,3,,,,,,,,,2,,,55,0
94320,note_on,120,0,1,,,,,,,,,0,,,67,0
94440,note_on,0,0,1,,,,,,,,,0,,,67,75
94440,note_on,120,0,3,,,,,,,,,2,,,56,0
94440,note_on,120,0,1,,,,,,,,,0,,,68,0
94440,note_on,0,0,3,,,,,,,,,2,,,55,75
94560,note_on,0,0,1,,,,,,,,,0,,,65,75
94560,note_on,120,0,3,,,,,,,,,2,,,55,0
94560,note_on,120,0,1,,,,,,,,,0,,,67,0
94560,note_on,0,0,3,,,,,,,,,2,,,53,75
94680,note_on,0,0,3,,,,,,,,,2,,,51,75
94680,note_on,120,0,1,,,,,,,,,0,,,65,0
94680,note_on,0,0,1,,,,,,,,,0,,,63,75
94680,note_on,120,0,3,,,,,,,,,2,,,53,0
94800,note_on,0,0,1,,,,,,,,,0,,,62,75
94800,note_on,120,0,3,,,,,,,,,2,,,51,0
94800,note_on,0,0,3,,,,,,,,,2,,,50,75
94800,note_on,120,0,1,,,,,,,,,0,,,63,0
94920,note_on,120,0,1,,,,,,,,,0,,,62,0
94920,note_on,0,0,1,,,,,,,,,0,,,60,75
94920,note_on,0,0,3,,,,,,,,,2,,,48,75
94920,note_on,120,0,3,,,,,,,,,2,,,50,0
95040,note_on,0,0,1,,,,,,,,,0,,,59,75
95040,note_on,0,0,3,,,,,,,,,2,,,47,75
95040,note_on,120,0,3,,,,,,,,,2,,,48,0
95040,note_on,120,0,1,,,,,,,,,0,,,60,0
95160,note_on,0,0,1,,,,,,,,,0,,,56,75
95160,note_on,120,0,3,,,,,,,,,2,,,47,0
95160,note_on,120,0,1,,,,,,,,,0,,,59,0
95160,note_on,0,0,3,,,,,,,,,2,,,44,75
95280,note_on,120,0,3,,,,,,,,,2,,,44,0
95280,note_on,0,0,1,,,,,,,,,0,,,55,75
95280,note_on,120,0,1,,,,,,,,,0,,,56,0
95280,note_on,0,0,3,,,,,,,,,2,,,43,75
95400,note_on,120,0,3,,,,,,,,,2,,,43,0
95400,note_on,0,0,1,,,,,,,,,0,,,53,75
95400,note_on,0,0,3,,,,,,,,,2,,,41,75
95400,note_on,120,0,1,,,,,,,,,0,,,55,0
95520,note_on,120,0,3,,,,,,,,,2,,,41,0
95520,note_on,0,0,3,,,,,,,,,2,,,39,75
95520,note_on,0,0,1,,,,,,,,,0,,,51,75
95520,note_on,120,0,1,,,,,,,,,0,,,53,0
95640,note_on,120,0,3,,,,,,,,,2,,,39,0
95640,note_on,0,0,3,,,,,,,,,2,,,38,75
95640,note_on,120,0,1,,,,,,,,,0,,,51,0
95640,note_on,0,0,1,,,,,,,,,0,,,50,75
95760,note_on,0,0,1,,,,,,,,,0,,,48,75
95760,note_on,0,0,3,,,,,,,,,2,,,36,75
95760,note_on,120,0,1,,,,,,,,,0,,,50,0
95760,note_on,120,0,3,,,,,,,,,2,,,38,0
95880,note_on,120,0,1,,,,,,,,,0,,,48,0
95880,note_on,0,0,3,,,,,,,,,2,,,35,75
95880,note_on,120,0,3,,,,,,,,,2,,,36,0
95880,note_on,0,0,1,,,,,,,,,0,,,47,75
96000,note_on,120,0,3,,,,,,,,,2,,,35,0
96000,note_on,120,0,1,,,,,,,,,0,,,47,0
96000,note_on,0,0,1,,,,,,,,,0,,,44,75
96000,note_on,0,0,3,,,,,,,,,2,,,32,75
96120,note_on,0,0,3,,,,,,,,,2,,,31,75
96120,note_on,120,0,1,,,,,,,,,0,,,44,0
96120,note_on,120,0,3,,,,,,,,,2,,,32,0
96120,note_on,0,0,1,,,,,,,,,0,,,43,75
96240,note_on,0,0,1,,,,,,,,,0,,,42,75
96240,note_on,120,0,3,,,,,,,,,2,,,31,0
96240,note_on,120,0,1,,,,,,,,,0,,,43,0
96240,note_on,0,0,3,,,,,,,,,2,,,30,75
96360,note_on,0,0,1,,,,,,,,,0,,,43,75
96360,note_on,120,0,3,,,,,,,,,2,,,30,0
96360,note_on,0,0,3,,,,,,,,,2,,,31,75
96360,note_on,120,0,1,,,,,,,,,0,,,42,0
96480,note_on,120,0,1,,,,,,,,,0,,,43,0
96480,note_on,0,0,3,,,,,,,,,2,,,33,75
96480,note_on,0,0,1,,,,,,,,,0,,,45,75
96480,note_on,120,0,3,,,,,,,,,2,,,31,0
96600,note_on,0,0,1,,,,,,,,,0,,,47,75
96600,note_on,120,0,1,,,,,,,,,0,,,45,0
96600,note_on,0,0,3,,,,,,,,,2,,,35,75
96600,note_on,120,0,3,,,,,,,,,2,,,33,0
96720,note_on,120,0,1,,,,,,,,,0,,,47,0
96720,note_on,0,0,1,,,,,,,,,0,,,48,75
96720,note_on,120,0,3,,,,,,,,,2,,,35,0
96720,note_on,0,0,3,,,,,,,,,2,,,36,75
96840,note_on,120,0,3,,,,,,,,,2,,,36,0
96840,note_on,0,0,3,,,,,,,,,2,,,38,75
96840,note_on,0,0,1,,,,,,,,,0,,,50,75
96840,note_on,120,0,1,,,,,,,,,0,,,48,0
96960,note_on,120,0,1,,,,,,,,,0,,,50,0
96960,note_on,0,0,1,,,,,,,,,0,,,51,75
96960,note_on,0,0,3,,,,,,,,,2,,,39,75
96960,note_on,120,0,3,,,,,,,,,2,,,38,0
97080,note_on,0,0,3,,,,,,,,,2,,,40,75
97080,note_on,120,0,1,,,,,,,,,0,,,51,0
97080,note_on,120,0,3,,,,,,,,,2,,,39,0
97080,note_on,0,0,1,,,,,,,,,0,,,52,75
97200,note_on,0,0,1,,,,,,,,,0,,,53,75
97200,note_on,0,0,3,,,,,,,,,2,,,41,75
97200,note_on,120,0,1,,,,,,,,,0,,,52,0
97200,note_on,120,0,3,,,,,,,,,2,,,40,0
97320,note_on,0,0,3,,,,,,,,,2,,,42,75
97320,note_on,0,0,1,,,,,,,,,0,,,54,75
97320,note_on,120,0,3,,,,,,,,,2,,,41,0
97320,note_on,120,0,1,,,,,,,,,0,,,53,0
97440,note_on,120,0,1,,,,,,,,,0,,,54,0
97440,note_on,0,0,3,,,,,,,,,2,,,43,75
97440,note_on,0,0,1,,,,,,,,,0,,,55,75
97440,note_on,120,0,3,,,,,,,,,2,,,42,0
97560,note_on,120,0,1,,,,,,,,,0,,,55,0
97560,note_on,120,0,3,,,,,,,,,2,,,43,0
97560,note_on,0,0,1,,,,,,,,,0,,,53,75
97560,note_on,0,0,3,,,,,,,,,2,,,41,75
97680,note_on,0,0,3,,,,,,,,,2,,,39,75
97680,note_on,120,0,1,,,,,,,,,0,,,53,0
97680,note_on,0,0,1,,,,,,,,,0,,,51,75
97680,note_on,120,0,3,,,,,,,,,2,,,41,0
97800,note_on,0,0,1,,,,,,,,,0,,,50,75
97800,note_on,0,0,3,,,,,,,,,2,,,38,75
97800,note_on,120,0,1,,,,,,,,,0,,,51,0
97800,note_on,120,0,3,,,,,,,,,2,,,39,0
97920,note_on,0,0,3,,,,,,,,,2,,,36,88
97920,note_on,0,0,1,,,,,,,,,0,,,72,101
97920,note_on,0,0,1,,,,,,,,,0,,,84,101
97920,note_on,120,0,1,,,,,,,,,0,,,50,0
97920,note_on,120,0,3,,,,,,,,,2,,,38,0
98160,note_on,0,0,3,,,,,,,,,2,,,38,88
98160,note_on,240,0,3,,,,,,,,,2,,,36,0
98280,note_on,120,0,3,,,,,,,,,2,,,38,0
98280,note_on,0,0,3,,,,,,,,,2,,,39,88
98400,note_on,120,0,3,,,,,,,,,2,,,39,0
98400,note_on,0,0,3,,,,,,,,,2,,,41,88
98520,note_on,120,0,3,,,,,,,,,2,,,41,0
98520,note_on,0,0,3,,,,,,,,,2,,,43,88
98640,note_on,120,0,3,,,,,,,,,2,,,43,0
98640,note_on,0,0,3,,,,,,,,,2,,,45,88
98760,note_on,120,0,3,,,,,,,,,2,,,45,0
98760,note_on,0,0,3,,,,,,,,,2,,,47,88
98880,note_on,0,0,3,,,,,,,,,2,,,48,75
98880,note_on,120,0,3,,,,,,,,,2,,,47,0
98880,note_on,960,0,1,,,,,,,,,0,,,84,0
98880,note_on,0,0,1,,,,,,,,,0,,,67,75
98880,note_on,0,0,1,,,,,,,,,0,,,72,0
98880,note_on,0,0,1,,,,,,,,,0,,,72,75
98880,note_on,0,0,1,,,,,,,,,0,,,75,75
98880,note_on,0,0,1,,,,,,,,,0,,,79,75
99000,note_on,0,0,3,,,,,,,,,2,,,50,75
99000,note_on,120,0,3,,,,,,,,,2,,,48,0
99120,note_on,120,0,3,,,,,,,,,2,,,50,0
99120,note_on,0,0,3,,,,,,,,,2,,,51,75
99240,note_on,0,0,3,,,,,,,,,2,,,53,75
99240,note_on,120,0,3,,,,,,,,,2,,,51,0
99360,note_on,120,0,3,,,,,,,,,2,,,53,0
99360,note_on,0,0,3,,,,,,,,,2,,,55,75
99480,note_on,120,0,3,,,,,,,,,2,,,55,0
99480,note_on,0,0,3,,,,,,,,,2,,,57,75
99600,note_on,120,0,3,,,,,,,,,2,,,57,0
99600,note_on,0,0,3,,,,,,,,,2,,,58,75
99720,note_on,120,0,3,,,,,,,,,2,,,58,0
99720,note_on,0,0,3,,,,,,,,,2,,,59,75
99840,note_on,960,0,1,,,,,,,,,0,,,79,0
99840,note_on,120,0,3,,,,,,,,,2,,,59,0
99840,note_on,0,0,3,,,,,,,,,2,,,60,62
99840,note_on,0,0,1,,,,,,,,,0,,,67,62
99840,note_on,0,0,1,,,,,,,,,0,,,75,62
99840,note_on,0,0,1,,,,,,,,,0,,,75,0
99840,note_on,0,0,1,,,,,,,,,0,,,72,62
99840,note_on,0,0,1,,,,,,,,,0,,,63,62
99840,note_on,0,0,1,,,,,,,,,0,,,67,0
99840,note_on,0,0,1,,,,,,,,,0,,,72,0
99960,note_on,120,0,3,,,,,,,,,2,,,60,0
99960,note_on,0,0,3,,,,,,,,,2,,,55,62
100080,note_on,0,0,1,,,,,,,,,0,,,72,0
100080,note_on,0,0,3,,,,,,,,,2,,,59,62
100080,note_on,0,0,1,,,,,,,,,0,,,67,0
100080,note_on,240,0,1,,,,,,,,,0,,,75,0
100080,note_on,120,0,3,,,,,,,,,2,,,55,0
100080,note_on,0,0,1,,,,,,,,,0,,,63,0
100200,note_on,120,0,3,,,,,,,,,2,,,59,0
100200,note_on,0,0,3,,,,,,,,,2,,,60,62
100320,note_on,240,0,1,,,,,,,,,0,,,67,62
100320,note_on,120,0,3,,,,,,,,,2,,,60,0
100320,note_on,0,0,1,,,,,,,,,0,,,72,62
100320,note_on,0,0,3,,,,,,,,,2,,,63,62
100440,note_on,0,0,3,,,,,,,,,2,,,55,62
100440,note_on,120,0,3,,,,,,,,,2,,,63,0
100560,note_on,0,0,3,,,,,,,,,2,,,62,62
100560,note_on,120,0,3,,,,,,,,,2,,,55,0
100680,note_on,0,0,3,,,,,,,,,2,,,63,62
100680,note_on,120,0,3,,,,,,,,,2,,,62,0
100800,note_on,480,0,1,,,,,,,,,0,,,72,0
100800,note_on,0,0,3,,,,,,,,,2,,,62,62
100800,note_on,120,0,3,,,,,,,,,2,,,63,0
100800,note_on,0,0,1,,,,,,,,,0,,,65,62
100800,note_on,0,0,1,,,,,,,,,0,,,71,62
100800,note_on,0,0,1,,,,,,,,,0,,,67,0
100920,note_on,0,0,3,,,,,,,,,2,,,55,62
100920,note_on,120,0,3,,,,,,,,,2,,,62,0
101040,note_on,0,0,3,,,,,,,,,2,,,61,62
101040,note_on,120,0,3,,,,,,,,,2,,,55,0
101160,note_on,0,0,3,,,,,,,,,2,,,62,62
101160,note_on,120,0,3,,,,,,,,,2,,,61,0
101280,note_on,0,0,1,,,,,,,,,0,,,72,62
101280,note_on,480,0,1,,,,,,,,,0,,,71,0
101280,note_on,120,0,3,,,,,,,,,2,,,62,0
101280,note_on,0,0,1,,,,,,,,,0,,,63,62
101280,note_on,0,0,3,,,,,,,,,2,,,60,62
101280,note_on,0,0,1,,,,,,,,,0,,,65,0
101400,note_on,120,0,3,,,,,,,,,2,,,60,0
101400,note_on,0,0,3,,,,,,,,,2,,,55,62
101520,note_on,120,0,3,,,,,,,,,2,,,55,0
101520,note_on,0,0,3,,,,,,,,,2,,,59,62
101640,note_on,0,0,3,,,,,,,,,2,,,60,62
101640,note_on,120,0,3,,,,,,,,,2,,,59,0
101760,note_on,120,0,3,,,,,,,,,2,,,60,0
101760,note_on,0,0,1,,,,,,,,,0,,,63,0
101760,note_on,0,0,1,,,,,,,,,0,,,74,62
101760,note_on,0,0,1,,,,,,,,,0,,,77,62
101760,note_on,0,0,1,,,,,,,,,0,,,86,62
101760,note_on,0,0,1,,,,,,,,,0,,,79,62
101760,note_on,0,0,3,,,,,,,,,2,,,35,62
101760,note_on,480,0,1,,,,,,,,,0,,,72,0
101880,note_on,120,0,3,,,,,,,,,2,,,35,0
101880,note_on,0,0,3,,,,,,,,,2,,,36,62
102000,note_on,0,0,3,,,,,,,,,2,,,38,62
102000,note_on,120,0,3,,,,,,,,,2,,,36,0
102120,note_on,0,0,3,,,,,,,,,2,,,39,62
102120,note_on,120,0,3,,,,,,,,,2,,,38,0
102240,note_on,0,0,3,,,,,,,,,2,,,41,62
102240,note_on,120,0,3,,,,,,,,,2,,,39,0
102360,note_on,0,0,3,,,,,,,,,2,,,43,62
102360,note_on,120,0,3,,,,,,,,,2,,,41,0
102480,note_on,120,0,3,,,,,,,,,2,,,43,0
102480,note_on,0,0,3,,,,,,,,,2,,,45,62
102600,note_on,120,0,3,,,,,,,,,2,,,45,0
102600,note_on,0,0,3,,,,,,,,,2,,,46,62
102720,note_on,960,0,1,,,,,,,,,0,,,86,0
102720,note_on,0,0,1,,,,,,,,,0,,,79,62
102720,note_on,0,0,1,,,,,,,,,0,,,79,0
102720,note_on,120,0,3,,,,,,,,,2,,,46,0
102720,note_on,0,0,1,,,,,,,,,0,,,77,62
102720,note_on,0,0,1,,,,,,,,,0,,,77,0
102720,note_on,0,0,1,,,,,,,,,0,,,74,62
102720,note_on,0,0,1,,,,,,,,,0,,,74,0
102720,note_on,0,0,1,,,,,,,,,0,,,67,62
102720,note_on,0,0,3,,,,,,,,,2,,,47,62
102840,note_on,120,0,3,,,,,,,,,2,,,47,0
102840,note_on,0,0,3,,,,,,,,,2,,,48,62
102960,note_on,0,0,3,,,,,,,,,2,,,50,62
102960,note_on,120,0,3,,,,,,,,,2,,,48,0
103080,note_on,0,0,3,,,,,,,,,2,,,51,62
103080,note_on,120,0,3,,,,,,,,,2,,,50,0
103200,note_on,120,0,3,,,,,,,,,2,,,51,0
103200,note_on,0,0,3,,,,,,,,,2,,,53,62
103320,note_on,120,0,3,,,,,,,,,2,,,53,0
103320,note_on,0,0,3,,,,,,,,,2,,,55,62
103440,note_on,120,0,3,,,,,,,,,2,,,55,0
103440,note_on,0,0,3,,,,,,,,,2,,,57,62
103560,note_on,120,0,3,,,,,,,,,2,,,57,0
103560,note_on,0,0,3,,,,,,,,,2,,,58,62
103680,note_on,120,0,3,,,,,,,,,2,,,58,0
103680,note_on,0,0,1,,,,,,,,,0,,,74,0
103680,note_on,0,0,1,,,,,,,,,0,,,65,62
103680,note_on,0,0,1,,,,,,,,,0,,,67,0
103680,note_on,0,0,1,,,,,,,,,0,,,67,62
103680,note_on,0,0,3,,,,,,,,,2,,,59,62
103680,note_on,0,0,1,,,,,,,,,0,,,77,0
103680,note_on,0,0,1,,,,,,,,,0,,,74,62
103680,note_on,960,0,1,,,,,,,,,0,,,79,0
103680,note_on,0,0,1,,,,,,,,,0,,,77,62
103800,note_on,0,0,3,,,,,,,,,2,,,55,62
103800,note_on,120,0,3,,,,,,,,,2,,,59,0
103920,note_on,0,0,1,,,,,,,,,0,,,65,0
103920,note_on,120,0,3,,,,,,,,,2,,,55,0
103920,note_on,0,0,1,,,,,,,,,0,,,74,0
103920,note_on,0,0,1,,,,,,,,,0,,,67,0
103920,note_on,240,0,1,,,,,,,,,0,,,77,0
103920,note_on,0,0,3,,,,,,,,,2,,,58,62
104040,note_on,0,0,3,,,,,,,,,2,,,59,62
104040,note_on,120,0,3,,,,,,,,,2,,,58,0
104160,note_on,120,0,3,,,,,,,,,2,,,59,0
104160,note_on,0,0,3,,,,,,,,,2,,,65,62
104160,note_on,0,0,1,,,,,,,,,0,,,74,62
104160,control_change,240,0,1,,,,,,,,,0,64,127,,
104160,note_on,0,0,1,,,,,,,,,0,,,67,62
104280,note_on,120,0,3,,,,,,,,,2,,,65,0
104280,note_on,0,0,3,,,,,,,,,2,,,55,62
104400,note_on,0,0,3,,,,,,,,,2,,,64,62
104400,note_on,120,0,3,,,,,,,,,2,,,55,0
104520,note_on,0,0,3,,,,,,,,,2,,,65,62
104520,note_on,120,0,3,,,,,,,,,2,,,64,0
104640,note_on,0,0,1,,,,,,,,,0,,,67,0
104640,note_on,0,0,3,,,,,,,,,2,,,63,62
104640,note_on,0,0,1,,,,,,,,,0,,,67,62
104640,note_on,0,0,1,,,,,,,,,0,,,72,62
104640,note_on,480,0,1,,,,,,,,,0,,,74,0
104640,note_on,120,0,3,,,,,,,,,2,,,65,0
104760,note_on,120,0,3,,,,,,,,,2,,,63,0
104760,note_on,0,0,3,,,,,,,,,2,,,55,62
104880,note_on,120,0,3,,,,,,,,,2,,,55,0
104880,note_on,0,0,3,,,,,,,,,2,,,62,62
105000,note_on,120,0,3,,,,,,,,,2,,,62,0
105000,note_on,0,0,3,,,,,,,,,2,,,63,62
105120,note_on,120,0,3,,,,,,,,,2,,,63,0
105120,note_on,0,0,3,,,,,,,,,2,,,59,62
105120,note_on,480,0,1,,,,,,,,,0,,,72,0
105120,note_on,0,0,1,,,,,,,,,0,,,74,62
105120,note_on,0,0,1,,,,,,,,,0,,,65,62
105120,note_on,0,0,1,,,,,,,,,0,,,67,0
105120,note_on,0,0,1,,,,,,,,,0,,,67,62
105240,note_on,0,0,3,,,,,,,,,2,,,55,62
105240,note_on,120,0,3,,,,,,,,,2,,,59,0
105360,note_on,0,0,3,,,,,,,,,2,,,58,62
105360,note_on,120,0,3,,,,,,,,,2,,,55,0
105480,note_on,0,0,3,,,,,,,,,2,,,59,62
105480,note_on,120,0,3,,,,,,,,,2,,,58,0
105600,note_on,0,0,1,,,,,,,,,0,,,65,0
105600,note_on,0,0,3,,,,,,,,,2,,,60,62
105600,note_on,120,0,3,,,,,,,,,2,,,59,0
105600,note_on,0,0,1,,,,,,,,,0,,,67,62
105600,note_on,480,0,1,,,,,,,,,0,,,74,0
105600,note_on,0,0,1,,,,,,,,,0,,,67,0
105600,control_change,0,0,1,,,,,,,,,0,64,0,,
105600,note_on,0,0,1,,,,,,,,,0,,,75,62
105600,note_on,0,0,1,,,,,,,,,0,,,72,62
105720,note_on,120,0,3,,,,,,,,,2,,,60,0
105720,note_on,0,0,3,,,,,,,,,2,,,62,62
105840,note_on,120,0,3,,,,,,,,,2,,,62,0
105840,note_on,0,0,3,,,,,,,,,2,,,63,62
105960,note_on,120,0,3,,,,,,,,,2,,,63,0
105960,note_on,0,0,3,,,,,,,,,2,,,62,62
106080,note_on,0,0,3,,,,,,,,,2,,,60,62
106080,note_on,120,0,3,,,,,,,,,2,,,62,0
106200,note_on,0,0,3,,,,,,,,,2,,,62,62
106200,note_on,120,0,3,,,,,,,,,2,,,60,0
106320,note_on,0,0,3,,,,,,,,,2,,,58,62
106320,note_on,120,0,3,,,,,,,,,2,,,62,0
106440,note_on,120,0,3,,,,,,,,,2,,,58,0
106440,note_on,0,0,3,,,,,,,,,2,,,60,62
106560,note_on,47040,0,2,,,,,,,,,1,,,65,49
106560,note_on,0,0,1,,,,,,,,,0,,,67,0
106560,note_on,0,0,1,,,,,,,,,0,,,72,0
106560,note_on,0,0,1,,,,,,,,,0,,,77,62
106560,note_on,960,0,1,,,,,,,,,0,,,75,0
106560,note_on,0,0,3,,,,,,,,,2,,,56,62
106560,note_on,120,0,3,,,,,,,,,2,,,60,0
106560,note_on,0,0,2,,,,,,,,,1,,,72,49
106680,note_on,0,0,3,,,,,,,,,2,,,58,62
106680,note_on,120,0,3,,,,,,,,,2,,,56,0
106800,note_on,0,0,3,,,,,,,,,2,,,60,62
106800,note_on,120,0,3,,,,,,,,,2,,,58,0
106920,note_on,120,0,3,,,,,,,,,2,,,60,0
106920,note_on,0,0,3,,,,,,,,,2,,,58,62
107040,note_on,0,0,3,,,,,,,,,2,,,56,62
107040,note_on,120,0,3,,,,,,,,,2,,,58,0
107160,note_on,0,0,3,,,,,,,,,2,,,58,62
107160,note_on,120,0,3,,,,,,,,,2,,,56,0
107280,note_on,120,0,3,,,,,,,,,2,,,58,0
107280,note_on,720,0,1,,,,,,,,,0,,,77,0
107280,note_on,0,0,3,,,,,,,,,2,,,55,62
107280,note_on,0,0,1,,,,,,,,,0,,,75,62
107400,note_on,120,0,3,,,,,,,,,2,,,55,0
107400,note_on,0,0,3,,,,,,,,,2,,,56,62
107520,note_on,0,0,1,,,,,,,,,0,,,74,62
107520,note_on,120,0,3,,,,,,,,,2,,,56,0
107520,note_on,240,0,1,,,,,,,,,0,,,75,0
107520,note_on,0,0,2,,,,,,,,,1,,,65,49
107520,note_on,960,0,2,,,,,,,,,1,,,72,0
107520,note_on,0,0,3,,,,,,,,,2,,,58,62
107520,note_on,0,0,2,,,,,,,,,1,,,65,0
107520,note_on,0,0,2,,,,,,,,,1,,,70,49
107640,note_on,120,0,3,,,,,,,,,2,,,58,0
107640,note_on,0,0,3,,,,,,,,,2,,,60,62
107760,note_on,120,0,3,,,,,,,,,2,,,60,0
107760,note_on,0,0,3,,,,,,,,,2,,,58,62
107880,note_on,120,0,3,,,,,,,,,2,,,58,0
107880,note_on,0,0,3,,,,,,,,,2,,,56,62
108000,note_on,120,0,3,,,,,,,,,2,,,56,0
108000,note_on,0,0,1,,,,,,,,,0,,,75,62
108000,note_on,480,0,1,,,,,,,,,0,,,74,0
108000,note_on,0,0,2,,,,,,,,,1,,,63,75
108000,note_on,0,0,2,,,,,,,,,1,,,70,75
108000,note_on,480,0,2,,,,,,,,,1,,,70,0
108000,note_on,0,0,3,,,,,,,,,2,,,55,62
108000,note_on,0,0,2,,,,,,,,,1,,,65,0
108120,note_on,0,0,3,,,,,,,,,2,,,51,62
108120,note_on,120,0,3,,,,,,,,,2,,,55,0
108240,note_on,240,0,1,,,,,,,,,0,,,75,0
108240,note_on,0,0,3,,,,,,,,,2,,,53,62
108240,note_on,0,0,1,,,,,,,,,0,,,74,62
108240,note_on,120,0,3,,,,,,,,,2,,,51,0
108360,note_on,120,0,3,,,,,,,,,2,,,53,0
108360,note_on,0,0,3,,,,,,,,,2,,,55,62
108480,note_on,0,0,3,,,,,,,,,2,,,56,62
108480,note_on,0,0,2,,,,,,,,,1,,,63,49
108480,note_on,0,0,2,,,,,,,,,1,,,63,0
108480,note_on,0,0,1,,,,,,,,,0,,,72,62
108480,note_on,0,0,2,,,,,,,,,1,,,68,49
108480,note_on,120,0,3,,,,,,,,,2,,,55,0
108480,note_on,240,0,1,,,,,,,,,0,,,74,0
108480,note_on,480,0,2,,,,,,,,,1,,,70,0
108600,note_on,120,0,3,,,,,,,,,2,,,56,0
108600,note_on,0,0,3,,,,,,,,,2,,,58,62
108720,note_on,0,0,3,,,,,,,,,2,,,56,62
108720,note_on,120,0,3,,,,,,,,,2,,,58,0
108840,note_on,120,0,3,,,,,,,,,2,,,56,0
108840,note_on,0,0,3,,,,,,,,,2,,,55,62
108960,note_on,0,0,2,,,,,,,,,1,,,63,0
108960,note_on,0,0,2,,,,,,,,,1,,,68,75
108960,note_on,120,0,3,,,,,,,,,2,,,55,0
108960,note_on,480,0,1,,,,,,,,,0,,,72,0
108960,note_on,0,0,1,,,,,,,,,0,,,74,62
108960,note_on,0,0,3,,,,,,,,,2,,,53,62
108960,note_on,480,0,2,,,,,,,,,1,,,68,0
108960,note_on,0,0,2,,,,,,,,,1,,,62,75
109080,note_on,0,0,3,,,,,,,,,2,,,50,62
109080,note_on,120,0,3,,,,,,,,,2,,,53,0
109200,note_on,120,0,3,,,,,,,,,2,,,50,0
109200,note_on,0,0,1,,,,,,,,,0,,,72,62
109200,note_on,240,0,1,,,,,,,,,0,,,74,0
109200,note_on,0,0,3,,,,,,,,,2,,,51,62
109320,note_on,120,0,3,,,,,,,,,2,,,51,0
109320,note_on,0,0,3,,,,,,,,,2,,,53,62
109440,note_on,0,0,2,,,,,,,,,1,,,62,0
109440,note_on,0,0,2,,,,,,,,,1,,,63,49
109440,note_on,0,0,2,,,,,,,,,1,,,68,49
109440,note_on,0,0,3,,,,,,,,,2,,,55,62
109440,note_on,0,0,1,,,,,,,,,0,,,70,62
109440,note_on,480,0,2,,,,,,,,,1,,,68,0
109440,note_on,240,0,1,,,,,,,,,0,,,72,0
109440,note_on,120,0,3,,,,,,,,,2,,,53,0
109560,note_on,0,0,3,,,,,,,,,2,,,56,62
109560,note_on,120,0,3,,,,,,,,,2,,,55,0
109680,note_on,0,0,3,,,,,,,,,2,,,55,62
109680,note_on,120,0,3,,,,,,,,,2,,,56,0
109800,note_on,0,0,3,,,,,,,,,2,,,53,62
109800,note_on,120,0,3,,,,,,,,,2,,,55,0
109920,note_on,480,0,2,,,,,,,,,1,,,68,0
109920,note_on,120,0,3,,,,,,,,,2,,,53,0
109920,note_on,0,0,2,,,,,,,,,1,,,67,75
109920,note_on,0,0,3,,,,,,,,,2,,,52,62
109920,note_on,0,0,1,,,,,,,,,0,,,72,62
109920,note_on,0,0,2,,,,,,,,,1,,,63,0
109920,note_on,0,0,2,,,,,,,,,1,,,60,75
109920,note_on,480,0,1,,,,,,,,,0,,,70,0
110040,note_on,120,0,3,,,,,,,,,2,,,52,0
110040,note_on,0,0,3,,,,,,,,,2,,,48,62
110160,note_on,240,0,1,,,,,,,,,0,,,72,0
110160,note_on,0,0,3,,,,,,,,,2,,,50,62
110160,note_on,0,0,1,,,,,,,,,0,,,70,62
110160,note_on,120,0,3,,,,,,,,,2,,,48,0
110280,note_on,0,0,3,,,,,,,,,2,,,52,62
110280,note_on,120,0,3,,,,,,,,,2,,,50,0
110400,note_on,0,0,1,,,,,,,,,0,,,68,62
110400,note_on,480,0,2,,,,,,,,,1,,,67,0
110400,note_on,120,0,3,,,,,,,,,2,,,52,0
110400,note_on,0,0,3,,,,,,,,,2,,,53,62
110400,note_on,0,0,2,,,,,,,,,1,,,65,49
110400,note_on,0,0,2,,,,,,,,,1,,,60,49
110400,note_on,0,0,2,,,,,,,,,1,,,60,0
110400,note_on,240,0,1,,,,,,,,,0,,,70,0
110520,note_on,0,0,3,,,,,,,,,2,,,55,62
110520,note_on,120,0,3,,,,,,,,,2,,,53,0
110640,note_on,0,0,3,,,,,,,,,2,,,53,62
110640,note_on,120,0,3,,,,,,,,,2,,,55,0
110760,note_on,0,0,3,,,,,,,,,2,,,51,62
110760,note_on,120,0,3,,,,,,,,,2,,,53,0
110880,note_on,0,0,2,,,,,,,,,1,,,58,75
110880,note_on,0,0,2,,,,,,,,,1,,,60,0
110880,note_on,0,0,2,,,,,,,,,1,,,65,75
110880,note_on,480,0,2,,,,,,,,,1,,,65,0
110880,note_on,480,0,1,,,,,,,,,0,,,68,0
110880,note_on,0,0,3,,,,,,,,,2,,,50,62
110880,note_on,0,0,1,,,,,,,,,0,,,70,62
110880,note_on,120,0,3,,,,,,,,,2,,,51,0
111000,note_on,120,0,3,,,,,,,,,2,,,50,0
111000,note_on,0,0,3,,,,,,,,,2,,,46,62
111120,note_on,240,0,1,,,,,,,,,0,,,70,0
111120,note_on,0,0,3,,,,,,,,,2,,,48,62
111120,note_on,0,0,1,,,,,,,,,0,,,68,62
111120,note_on,120,0,3,,,,,,,,,2,,,46,0
111240,note_on,120,0,3,,,,,,,,,2,,,48,0
111240,note_on,0,0,3,,,,,,,,,2,,,50,62
111360,note_on,0,0,1,,,,,,,,,0,,,63,62
111360,note_on,480,0,2,,,,,,,,,1,,,65,0
111360,note_on,0,0,1,,,,,,,,,0,,,58,62
111360,note_on,0,0,1,,,,,,,,,0,,,67,62
111360,note_on,0,0,2,,,,,,,,,1,,,58,0
111360,end_of_track,0,1,2,,,,,,,,,,,,,
111360,note_on,120,0,3,,,,,,,,,2,,,50,0
111360,note_on,0,0,3,,,,,,,,,2,,,51,62
111360,note_on,240,0,1,,,,,,,,,0,,,68,0
111840,note_on,0,0,1,,,,,,,,,0,,,63,0
111840,note_on,0,0,1,,,,,,,,,0,,,58,0
111840,note_on,0,0,3,,,,,,,,,2,,,40,49
111840,note_on,0,0,1,,,,,,,,,0,,,67,62
111840,note_on,480,0,1,,,,,,,,,0,,,67,0
111840,note_on,480,0,3,,,,,,,,,2,,,51,0
111960,note_on,0,0,1,,,,,,,,,0,,,55,62
111960,note_on,120,0,1,,,,,,,,,0,,,67,0
112080,note_on,120,0,1,,,,,,,,,0,,,55,0
112080,note_on,0,0,1,,,,,,,,,0,,,61,62
112080,note_on,0,0,3,,,,,,,,,2,,,46,49
112080,note_on,0,0,3,,,,,,,,,2,,,49,49
112080,note_on,0,0,3,,,,,,,,,2,,,52,49
112080,note_on,240,0,3,,,,,,,,,2,,,40,0
112200,note_on,0,0,1,,,,,,,,,0,,,58,62
112200,note_on,120,0,1,,,,,,,,,0,,,61,0
112320,note_on,0,0,3,,,,,,,,,2,,,49,0
112320,note_on,0,0,1,,,,,,,,,0,,,68,62
112320,note_on,240,0,3,,,,,,,,,2,,,52,0
112320,note_on,0,0,3,,,,,,,,,2,,,46,0
112320,note_on,120,0,1,,,,,,,,,0,,,58,0
112320,note_on,0,0,3,,,,,,,,,2,,,41,49
112440,note_on,120,0,1,,,,,,,,,0,,,68,0
112440,note_on,0,0,1,,,,,,,,,0,,,56,62
112560,note_on,120,0,1,,,,,,,,,0,,,56,0
112560,note_on,240,0,3,,,,,,,,,2,,,41,0
112560,note_on,0,0,1,,,,,,,,,0,,,62,62
112560,note_on,0,0,3,,,,,,,,,2,,,53,49
112560,note_on,0,0,3,,,,,,,,,2,,,47,49
112560,note_on,0,0,3,,,,,,,,,2,,,50,49
112680,note_on,0,0,1,,,,,,,,,0,,,59,62
112680,note_on,120,0,1,,,,,,,,,0,,,62,0
112800,note_on,0,0,3,,,,,,,,,2,,,42,62
112800,note_on,0,0,3,,,,,,,,,2,,,47,0
112800,note_on,0,0,3,,,,,,,,,2,,,50,0
112800,note_on,0,0,1,,,,,,,,,0,,,69,75
112800,note_on,120,0,1,,,,,,,,,0,,,59,0
112800,note_on,240,0,3,,,,,,,,,2,,,53,0
112920,note_on,0,0,1,,,,,,,,,0,,,57,75
112920,note_on,120,0,1,,,,,,,,,0,,,69,0
113040,note_on,0,0,3,,,,,,,,,2,,,51,62
113040,note_on,0,0,3,,,,,,,,,2,,,54,62
113040,note_on,0,0,3,,,,,,,,,2,,,48,62
113040,note_on,240,0,3,,,,,,,,,2,,,42,0
113040,note_on,0,0,1,,,,,,,,,0,,,63,75
113040,note_on,120,0,1,,,,,,,,,0,,,57,0
113160,note_on,0,0,1,,,,,,,,,0,,,60,75
113160,note_on,120,0,1,,,,,,,,,0,,,63,0
113280,note_on,240,0,3,,,,,,,,,2,,,54,0
113280,note_on,0,0,3,,,,,,,,,2,,,43,62
113280,note_on,0,0,1,,,,,,,,,0,,,70,75
113280,note_on,0,0,3,,,,,,,,,2,,,48,0
113280,note_on,0,0,3,,,,,,,,,2,,,51,0
113280,note_on,120,0,1,,,,,,,,,0,,,60,0
113400,note_on,0,0,1,,,,,,,,,0,,,58,75
113400,note_on,120,0,1,,,,,,,,,0,,,70,0
113520,note_on,240,0,3,,,,,,,,,2,,,43,0
113520,note_on,0,0,1,,,,,,,,,0,,,64,75
113520,note_on,120,0,1,,,,,,,,,0,,,58,0
113520,note_on,0,0,3,,,,,,,,,2,,,49,62
113520,note_on,0,0,3,,,,,,,,,2,,,52,62
113520,note_on,0,0,3,,,,,,,,,2,,,55,62
113640,note_on,0,0,1,,,,,,,,,0,,,61,75
113640,note_on,120,0,1,,,,,,,,,0,,,64,0
113760,note_on,0,0,3,,,,,,,,,2,,,44,62
113760,note_on,0,0,3,,,,,,,,,2,,,52,0
113760,note_on,240,0,3,,,,,,,,,2,,,55,0
113760,note_on,0,0,3,,,,,,,,,2,,,49,0
113760,note_on,120,0,1,,,,,,,,,0,,,61,0
113760,note_on,0,0,1,,,,,,,,,0,,,71,75
113880,note_on,120,0,1,,,,,,,,,0,,,71,0
113880,note_on,0,0,1,,,,,,,,,0,,,59,75
114000,note_on,0,0,3,,,,,,,,,2,,,50,62
114000,note_on,120,0,1,,,,,,,,,0,,,59,0
114000,note_on,240,0,3,,,,,,,,,2,,,44,0
114000,note_on,0,0,3,,,,,,,,,2,,,56,62
114000,note_on,0,0,1,,,,,,,,,0,,,65,75
114000,note_on,0,0,3,,,,,,,,,2,,,53,62
114120,note_on,0,0,1,,,,,,,,,0,,,62,75
114120,note_on,120,0,1,,,,,,,,,0,,,65,0
114240,note_on,0,0,3,,,,,,,,,2,,,45,62
114240,note_on,0,0,3,,,,,,,,,2,,,53,0
114240,note_on,0,0,3,,,,,,,,,2,,,50,0
114240,note_on,0,0,1,,,,,,,,,0,,,72,75
114240,note_on,120,0,1,,,,,,,,,0,,,62,0
114240,note_on,240,0,3,,,,,,,,,2,,,56,0
114360,note_on,0,0,1,,,,,,,,,0,,,60,75
114360,note_on,120,0,1,,,,,,,,,0,,,72,0
114480,note_on,0,0,3,,,,,,,,,2,,,54,62
114480,note_on,0,0,1,,,,,,,,,0,,,66,75
114480,note_on,240,0,3,,,,,,,,,2,,,45,0
114480,note_on,120,0,1,,,,,,,,,0,,,60,0
114480,note_on,0,0,3,,,,,,,,,2,,,57,62
114480,note_on,0,0,3,,,,,,,,,2,,,51,62
114600,note_on,120,0,1,,,,,,,,,0,,,66,0
114600,note_on,0,0,1,,,,,,,,,0,,,63,75
114720,note_on,0,0,3,,,,,,,,,2,,,51,0
114720,note_on,240,0,3,,,,,,,,,2,,,57,0
114720,note_on,0,0,3,,,,,,,,,2,,,54,0
114720,note_on,0,0,1,,,,,,,,,0,,,73,75
114720,note_on,0,0,3,,,,,,,,,2,,,46,62
114720,note_on,120,0,1,,,,,,,,,0,,,63,0
114840,note_on,120,0,1,,,,,,,,,0,,,73,0
114840,note_on,0,0,1,,,,,,,,,0,,,61,75
114960,note_on,0,0,1,,,,,,,,,0,,,67,75
114960,note_on,240,0,3,,,,,,,,,2,,,46,0
114960,note_on,0,0,3,,,,,,,,,2,,,52,62
114960,note_on,120,0,1,,,,,,,,,0,,,61,0
114960,note_on,0,0,3,,,,,,,,,2,,,55,62
114960,note_on,0,0,3,,,,,,,,,2,,,58,62
115080,note_on,120,0,1,,,,,,,,,0,,,67,0
115080,note_on,0,0,1,,,,,,,,,0,,,64,75
115200,note_on,0,0,3,,,,,,,,,2,,,55,0
115200,note_on,240,0,3,,,,,,,,,2,,,58,0
115200,note_on,0,0,3,,,,,,,,,2,,,47,75
115200,note_on,0,0,3,,,,,,,,,2,,,52,0
115200,note_on,120,0,1,,,,,,,,,0,,,64,0
115200,note_on,0,0,1,,,,,,,,,0,,,74,88
115320,note_on,0,0,1,,,,,,,,,0,,,62,88
115320,note_on,120,0,1,,,,,,,,,0,,,74,0
115440,note_on,120,0,1,,,,,,,,,0,,,62,0
115440,note_on,0,0,3,,,,,,,,,2,,,53,75
115440,note_on,0,0,3,,,,,,,,,2,,,56,75
115440,note_on,0,0,3,,,,,,,,,2,,,59,75
115440,note_on,0,0,1,,,,,,,,,0,,,68,88
115440,note_on,240,0,3,,,,,,,,,2,,,47,0
115560,note_on,0,0,1,,,,,,,,,0,,,65,88
115560,note_on,120,0,1,,,,,,,,,0,,,68,0
115680,note_on,0,0,3,,,,,,,,,2,,,48,75
115680,note_on,0,0,3,,,,,,,,,2,,,53,0
115680,note_on,0,0,3,,,,,,,,,2,,,56,0
115680,note_on,0,0,1,,,,,,,,,0,,,75,88
115680,note_on,240,0,3,,,,,,,,,2,,,59,0
115680,note_on,120,0,1,,,,,,,,,0,,,65,0
115800,note_on,0,0,1,,,,,,,,,0,,,63,88
115800,note_on,120,0,1,,,,,,,,,0,,,75,0
115920,note_on,120,0,1,,,,,,,,,0,,,63,0
115920,note_on,0,0,3,,,,,,,,,2,,,60,75
115920,note_on,0,0,1,,,,,,,,,0,,,69,88
115920,note_on,0,0,3,,,,,,,,,2,,,57,75
115920,note_on,240,0,3,,,,,,,,,2,,,48,0
115920,note_on,0,0,3,,,,,,,,,2,,,54,75
116040,note_on,0,0,1,,,,,,,,,0,,,66,88
116040,note_on,120,0,1,,,,,,,,,0,,,69,0
116160,note_on,0,0,3,,,,,,,,,2,,,49,75
116160,note_on,0,0,3,,,,,,,,,2,,,54,0
116160,note_on,0,0,3,,,,,,,,,2,,,57,0
116160,note_on,0,0,1,,,,,,,,,0,,,76,88
116160,note_on,240,0,3,,,,,,,,,2,,,60,0
116160,note_on,120,0,1,,,,,,,,,0,,,66,0
116280,note_on,0,0,1,,,,,,,,,0,,,64,88
116280,note_on,120,0,1,,,,,,,,,0,,,76,0
116400,note_on,120,0,1,,,,,,,,,0,,,64,0
116400,note_on,240,0,3,,,,,,,,,2,,,49,0
116400,note_on,0,0,3,,,,,,,,,2,,,61,75
116400,note_on,0,0,3,,,,,,,,,2,,,58,75
116400,note_on,0,0,3,,,,,,,,,2,,,55,75
116400,note_on,0,0,1,,,,,,,,,0,,,70,88
116520,note_on,120,0,1,,,,,,,,,0,,,70,0
116520,note_on,0,0,1,,,,,,,,,0,,,67,88
116640,note_on,120,0,1,,,,,,,,,0,,,67,0
116640,note_on,240,0,3,,,,,,,,,2,,,61,0
116640,note_on,0,0,3,,,,,,,,,2,,,58,0
116640,note_on,0,0,3,,,,,,,,,2,,,55,0
116640,note_on,0,0,3,,,,,,,,,2,,,50,75
116640,note_on,0,0,1,,,,,,,,,0,,,77,88
116760,note_on,120,0,1,,,,,,,,,0,,,77,0
116760,note_on,0,0,1,,,,,,,,,0,,,65,88
116880,note_on,0,0,1,,,,,,,,,0,,,71,88
116880,note_on,120,0,1,,,,,,,,,0,,,65,0
116880,note_on,0,0,3,,,,,,,,,2,,,56,75
116880,note_on,0,0,3,,,,,,,,,2,,,59,75
116880,note_on,0,0,3,,,,,,,,,2,,,62,75
116880,note_on,240,0,3,,,,,,,,,2,,,50,0
117000,note_on,0,0,1,,,,,,,,,0,,,68,88
117000,note_on,120,0,1,,,,,,,,,0,,,71,0
117120,note_on,0,0,3,,,,,,,,,2,,,59,0
117120,note_on,0,0,3,,,,,,,,,2,,,56,0
117120,note_on,0,0,3,,,,,,,,,2,,,51,88
117120,note_on,240,0,3,,,,,,,,,2,,,62,0
117120,note_on,0,0,1,,,,,,,,,0,,,78,101
117120,note_on,120,0,1,,,,,,,,,0,,,68,0
117240,note_on,0,0,1,,,,,,,,,0,,,66,101
117240,note_on,120,0,1,,,,,,,,,0,,,78,0
117360,note_on,0,0,3,,,,,,,,,2,,,57,88
117360,note_on,0,0,3,,,,,,,,,2,,,63,88
117360,note_on,0,0,3,,,,,,,,,2,,,60,88
117360,note_on,120,0,1,,,,,,,,,0,,,66,0
117360,note_on,240,0,3,,,,,,,,,2,,,51,0
117360,note_on,0,0,1,,,,,,,,,0,,,72,101
117480,note_on,120,0,1,,,,,,,,,0,,,72,0
117480,note_on,0,0,1,,,,,,,,,0,,,69,101
117600,note_on,0,0,3,,,,,,,,,2,,,57,0
117600,note_on,0,0,3,,,,,,,,,2,,,60,0
117600,note_on,120,0,1,,,,,,,,,0,,,69,0
117600,note_on,0,0,3,,,,,,,,,2,,,52,88
117600,note_on,240,0,3,,,,,,,,,2,,,63,0
117600,note_on,0,0,1,,,,,,,,,0,,,79,101
117720,note_on,120,0,1,,,,,,,,,0,,,79,0
117720,note_on,0,0,1,,,,,,,,,0,,,67,101
117840,note_on,0,0,1,,,,,,,,,0,,,73,101
117840,note_on,0,0,3,,,,,,,,,2,,,61,88
117840,note_on,0,0,3,,,,,,,,,2,,,58,88
117840,note_on,120,0,1,,,,,,,,,0,,,67,0
117840,note_on,0,0,3,,,,,,,,,2,,,64,88
117840,note_on,240,0,3,,,,,,,,,2,,,52,0
117960,note_on,0,0,1,,,,,,,,,0,,,70,101
117960,note_on,120,0,1,,,,,,,,,0,,,73,0
118080,note_on,0,0,3,,,,,,,,,2,,,61,0
118080,note_on,0,0,3,,,,,,,,,2,,,58,0
118080,note_on,120,0,1,,,,,,,,,0,,,70,0
118080,note_on,0,0,3,,,,,,,,,2,,,53,88
118080,note_on,240,0,3,,,,,,,,,2,,,64,0
118080,note_on,0,0,1,,,,,,,,,0,,,80,101
118200,note_on,120,0,1,,,,,,,,,0,,,80,0
118200,note_on,0,0,1,,,,,,,,,0,,,68,101
118320,note_on,120,0,1,,,,,,,,,0,,,68,0
118320,note_on,240,0,3,,,,,,,,,2,,,53,0
118320,note_on,0,0,3,,,,,,,,,2,,,65,88
118320,note_on,0,0,3,,,,,,,,,2,,,59,88
118320,note_on,0,0,3,,,,,,,,,2,,,62,88
118320,note_on,0,0,1,,,,,,,,,0,,,74,101
118440,note_on,120,0,1,,,,,,,,,0,,,74,0
118440,note_on,0,0,1,,,,,,,,,0,,,71,101
118560,note_on,120,0,1,,,,,,,,,0,,,71,0
118560,note_on,0,0,3,,,,,,,,,2,,,54,88
118560,note_on,0,0,3,,,,,,,,,2,,,59,0
118560,note_on,0,0,3,,,,,,,,,2,,,62,0
118560,note_on,0,0,1,,,,,,,,,0,,,81,101
118560,note_on,240,0,3,,,,,,,,,2,,,65,0
118680,note_on,0,0,1,,,,,,,,,0,,,69,101
118680,note_on,120,0,1,,,,,,,,,0,,,81,0
118800,note_on,240,0,3,,,,,,,,,2,,,54,0
118800,note_on,0,0,3,,,,,,,,,2,,,63,88
118800,note_on,0,0,3,,,,,,,,,2,,,60,88
118800,note_on,120,0,1,,,,,,,,,0,,,69,0
118800,note_on,0,0,3,,,,,,,,,2,,,66,88
118800,note_on,0,0,1,,,,,,,,,0,,,75,101
118920,note_on,120,0,1,,,,,,,,,0,,,75,0
118920,note_on,0,0,1,,,,,,,,,0,,,72,101
119040,note_on,0,0,3,,,,,,,,,2,,,60,88
119040,note_on,0,0,3,,,,,,,,,2,,,63,0
119040,note_on,0,0,3,,,,,,,,,2,,,63,88
119040,note_on,0,0,3,,,,,,,,,2,,,67,88
119040,note_on,120,0,1,,,,,,,,,0,,,72,0
119040,note_on,0,0,3,,,,,,,,,2,,,55,88
119040,note_on,0,0,1,,,,,,,,,0,,,79,101
119040,note_on,0,0,3,,,,,,,,,2,,,60,0
119040,note_on,240,0,3,,,,,,,,,2,,,66,0
119520,note_on,480,0,1,,,,,,,,,0,,,79,0
119520,note_on,480,0,3,,,,,,,,,2,,,67,0
119520,note_on,0,0,3,,,,,,,,,2,,,55,0
119520,note_on,0,0,3,,,,,,,,,2,,,60,0
119520,note_on,0,0,3,,,,,,,,,2,,,63,0
120000,note_on,480,0,3,,,,,,,,,2,,,43,88
120000,note_on,0,0,3,,,,,,,,,2,,,47,88
120000,note_on,0,0,3,,,,,,,,,2,,,50,88
120000,note_on,480,0,1,,,,,,,,,0,,,71,101
120000,note_on,0,0,1,,,,,,,,,0,,,79,101
120000,note_on,0,0,1,,,,,,,,,0,,,77,101
120000,note_on,0,0,1,,,,,,,,,0,,,74,101
120000,note_on,0,0,3,,,,,,,,,2,,,55,88
120000,note_on,0,0,1,,,,,,,,,0,,,83,101
120480,note_on,0,0,3,,,,,,,,,2,,,47,0
120480,note_on,0,0,3,,,,,,,,,2,,,43,0
120480,note_on,0,0,3,,,,,,,,,2,,,50,0
120480,note_on,480,0,3,,,,,,,,,2,,,55,0
120480,note_on,0,0,1,,,,,,,,,0,,,77,0
120480,note_on,0,0,1,,,,,,,,,0,,,79,0
120480,note_on,0,0,1,,,,,,,,,0,,,74,0
120480,note_on,0,0,1,,,,,,,,,0,,,71,0
120480,note_on,480,0,1,,,,,,,,,0,,,83,0
120960,end_of_track,0,1,0,,,,,,,,,,,,,
120960,note_on,0,0,3,,,,,,,,,2,,,43,88
120960,note_on,0,0,3,,,,,,,,,2,,,39,88
120960,time_signature,49920,1,0,8,4,24,8,,,,,,,,,
120960,note_on,0,0,1,,,,,,,,,0,,,84,127
120960,note_on,0,0,1,,,,,,,,,0,,,79,127
120960,note_on,0,0,1,,,,,,,,,0,,,75,127
120960,note_on,0,0,3,,,,,,,,,2,,,48,88
120960,note_on,480,0,3,,,,,,,,,2,,,36,88
120960,note_on,480,0,1,,,,,,,,,0,,,72,127
122880,note_on,0,0,1,,,,,,,,,0,,,79,0
122880,note_on,0,0,3,,,,,,,,,2,,,43,0
122880,end_of_track,0,1,3,,,,,,,,,,,,,
122880,note_on,0,0,3,,,,,,,,,2,,,39,0
122880,control_change,0,0,1,,,,,,,,,0,64,127,,
122880,note_on,1920,0,3,,,,,,,,,2,,,48,0
122880,note_on,1920,0,1,,,,,,,,,0,,,84,0
122880,note_on,0,0,1,,,,,,,,,0,,,72,0
122880,note_on,0,0,1,,,,,,,,,0,,,75,0
122880,note_on,0,0,3,,,,,,,,,2,,,36,0
124320,end_of_track,0,1,1,,,,,,,,,,,,,
124320,control_change,1440,0,1,,,,,,,,,0,64,0,,
