tick,type,numerator,denominator,clocks_per_click,notated_32nd_notes_per_beat,time,meta,track,key,tempo,control,value,channel,program,port,note,velocity
0,control_change,,,,,0,0,0,,,7,100,0,,,,
0,key_signature,,,,,0,1,0,C,,,,,,,,
0,key_signature,,,,,0,1,1,C,,,,,,,,
0,midi_port,,,,,0,1,0,,,,,,,0,,
0,midi_port,,,,,0,1,1,,,,,,,0,,
0,program_change,,,,,0,0,0,,,,,0,0,,,
0,time_signature,4,4,24,8,0,1,0,,,,,,,,,
0,set_tempo,,,,,0,1,0,,599999,,,,,,,
0,control_change,,,,,0,0,0,,,10,64,0,,,,
0,control_change,,,,,0,0,0,,,91,0,0,,,,
0,control_change,,,,,0,0,0,,,93,0,0,,,,
0,control_change,,,,,0,0,0,,,121,0,0,,,,
2,control_change,,,,,2,0,0,,,64,127,0,,,,
360,note_on,,,,,358,0,0,,,,,0,,,60,96
360,note_on,,,,,0,0,0,,,,,0,,,48,96
480,note_on,,,,,480,0,1,,,,,0,,,24,96
701,note_on,,,,,341,0,0,,,,,0,,,60,0
701,note_on,,,,,0,0,0,,,,,0,,,48,0
707,note_on,,,,,227,0,1,,,,,0,,,24,0
960,set_tempo,,,,,259,1,0,,1000000,,,,,,,
960,note_on,,,,,0,0,0,,,,,0,,,84,115
960,note_on,,,,,253,0,1,,,,,0,,,60,96
975,note_on,,,,,15,0,0,,,,,0,,,84,0
985,note_on,,,,,10,0,0,,,,,0,,,88,96
985,note_on,,,,,0,0,0,,,,,0,,,96,96
1002,note_on,,,,,42,0,1,,,,,0,,,67,96
1009,note_on,,,,,0,0,0,,,,,0,,,96,0
1009,note_on,,,,,24,0,0,,,,,0,,,88,0
1010,note_on,,,,,1,0,0,,,,,0,,,94,96
1034,note_on,,,,,24,0,0,,,,,0,,,94,0
1035,note_on,,,,,1,0,0,,,,,0,,,91,96
1044,note_on,,,,,42,0,1,,,,,0,,,70,96
1059,note_on,,,,,24,0,0,,,,,0,,,91,0
1060,note_on,,,,,1,0,0,,,,,0,,,88,96
1084,note_on,,,,,24,0,0,,,,,0,,,88,0
1085,note_on,,,,,1,0,0,,,,,0,,,84,96
1086,note_on,,,,,42,0,1,,,,,0,,,76,96
1109,note_on,,,,,24,0,0,,,,,0,,,84,0
1110,note_on,,,,,1,0,0,,,,,0,,,82,96
1134,note_on,,,,,24,0,0,,,,,0,,,82,0
1135,note_on,,,,,1,0,0,,,,,0,,,79,96
1159,note_on,,,,,24,0,0,,,,,0,,,79,0
1160,note_on,,,,,1,0,0,,,,,0,,,76,96
1184,note_on,,,,,24,0,0,,,,,0,,,76,0
1185,note_on,,,,,1,0,0,,,,,0,,,72,96
1199,note_on,,,,,0,0,1,,,,,0,,,76,0
1199,note_on,,,,,0,0,1,,,,,0,,,67,0
1199,note_on,,,,,113,0,1,,,,,0,,,60,0
1199,note_on,,,,,0,0,1,,,,,0,,,70,0
1209,note_on,,,,,24,0,0,,,,,0,,,72,0
1210,note_on,,,,,1,0,0,,,,,0,,,70,96
1234,note_on,,,,,24,0,0,,,,,0,,,70,0
1235,note_on,,,,,1,0,0,,,,,0,,,67,96
1259,note_on,,,,,24,0,0,,,,,0,,,67,0
1260,note_on,,,,,1,0,0,,,,,0,,,64,96
1284,note_on,,,,,24,0,0,,,,,0,,,64,0
1285,note_on,,,,,1,0,0,,,,,0,,,60,96
1309,note_on,,,,,24,0,0,,,,,0,,,60,0
1310,note_on,,,,,1,0,0,,,,,0,,,58,93
1334,note_on,,,,,24,0,0,,,,,0,,,58,0
1335,note_on,,,,,1,0,0,,,,,0,,,55,90
1359,note_on,,,,,24,0,0,,,,,0,,,55,0
1360,note_on,,,,,1,0,0,,,,,0,,,52,87
1384,note_on,,,,,24,0,0,,,,,0,,,52,0
1385,note_on,,,,,1,0,0,,,,,0,,,48,84
1409,note_on,,,,,24,0,0,,,,,0,,,48,0
1410,note_on,,,,,1,0,0,,,,,0,,,46,81
1432,note_on,,,,,22,0,0,,,,,0,,,46,0
1440,note_on,,,,,0,0,0,,,,,0,,,43,81
1440,set_tempo,,,,,8,1,0,,428572,,,,,,,
1440,note_on,,,,,0,0,0,,,,,0,,,43,81
1441,control_change,,,,,1,0,0,,,64,0,0,,,,
1553,note_on,,,,,112,0,0,,,,,0,,,43,0
1553,note_on,,,,,0,0,0,,,,,0,,,43,0
1560,note_on,,,,,7,0,0,,,,,0,,,50,81
1673,note_on,,,,,113,0,0,,,,,0,,,50,0
1680,note_on,,,,,481,0,1,,,,,0,,,40,81
1680,note_on,,,,,7,0,0,,,,,0,,,48,81
1680,note_on,,,,,0,0,0,,,,,0,,,44,81
1758,note_on,,,,,78,0,1,,,,,0,,,40,0
1793,note_on,,,,,0,0,0,,,,,0,,,44,0
1793,note_on,,,,,113,0,0,,,,,0,,,48,0
1800,note_on,,,,,7,0,0,,,,,0,,,46,81
1913,note_on,,,,,113,0,0,,,,,0,,,46,0
1920,note_on,,,,,0,0,0,,,,,0,,,45,81
1920,note_on,,,,,162,0,1,,,,,0,,,41,81
1920,note_on,,,,,7,0,0,,,,,0,,,45,81
1998,note_on,,,,,78,0,1,,,,,0,,,41,0
2033,note_on,,,,,0,0,0,,,,,0,,,45,0
2033,note_on,,,,,113,0,0,,,,,0,,,45,0
2040,note_on,,,,,7,0,0,,,,,0,,,52,81
2153,note_on,,,,,113,0,0,,,,,0,,,52,0
2160,note_on,,,,,162,0,1,,,,,0,,,42,82
2160,note_on,,,,,0,0,0,,,,,0,,,46,82
2160,note_on,,,,,7,0,0,,,,,0,,,50,82
2238,note_on,,,,,78,0,1,,,,,0,,,42,0
2273,note_on,,,,,0,0,0,,,,,0,,,46,0
2273,note_on,,,,,113,0,0,,,,,0,,,50,0
2280,note_on,,,,,7,0,0,,,,,0,,,48,83
2393,note_on,,,,,113,0,0,,,,,0,,,48,0
2400,note_on,,,,,0,0,0,,,,,0,,,47,84
2400,note_on,,,,,162,0,1,,,,,0,,,43,84
2400,note_on,,,,,7,0,0,,,,,0,,,47,84
2478,note_on,,,,,78,0,1,,,,,0,,,43,0
2513,note_on,,,,,0,0,0,,,,,0,,,47,0
2513,note_on,,,,,113,0,0,,,,,0,,,47,0
2520,note_on,,,,,7,0,0,,,,,0,,,53,85
2633,note_on,,,,,113,0,0,,,,,0,,,53,0
2640,note_on,,,,,0,0,0,,,,,0,,,47,86
2640,note_on,,,,,7,0,0,,,,,0,,,52,86
2640,note_on,,,,,162,0,1,,,,,0,,,44,86
2718,note_on,,,,,78,0,1,,,,,0,,,44,0
2753,note_on,,,,,0,0,0,,,,,0,,,47,0
2753,note_on,,,,,113,0,0,,,,,0,,,52,0
2760,note_on,,,,,7,0,0,,,,,0,,,50,87
2873,note_on,,,,,113,0,0,,,,,0,,,50,0
2880,note_on,,,,,162,0,1,,,,,0,,,45,88
2880,note_on,,,,,0,0,0,,,,,0,,,48,88
2880,note_on,,,,,7,0,0,,,,,0,,,48,88
2993,note_on,,,,,113,0,0,,,,,0,,,48,0
2993,note_on,,,,,0,0,0,,,,,0,,,48,0
3000,note_on,,,,,7,0,0,,,,,0,,,55,89
3113,note_on,,,,,113,0,0,,,,,0,,,55,0
3120,note_on,,,,,0,0,0,,,,,0,,,49,90
3120,note_on,,,,,7,0,0,,,,,0,,,53,90
3233,note_on,,,,,113,0,0,,,,,0,,,53,0
3233,note_on,,,,,0,0,0,,,,,0,,,49,0
3240,note_on,,,,,7,0,0,,,,,0,,,52,91
3335,note_on,,,,,455,0,1,,,,,0,,,45,0
3353,note_on,,,,,113,0,0,,,,,0,,,52,0
3360,note_on,,,,,7,0,0,,,,,0,,,50,92
3360,note_on,,,,,25,0,1,,,,,0,,,46,92
3360,note_on,,,,,0,0,0,,,,,0,,,50,92
3438,note_on,,,,,78,0,1,,,,,0,,,46,0
3473,note_on,,,,,113,0,0,,,,,0,,,50,0
3473,note_on,,,,,0,0,0,,,,,0,,,50,0
3480,note_on,,,,,7,0,0,,,,,0,,,57,93
3593,note_on,,,,,113,0,0,,,,,0,,,57,0
3600,note_on,,,,,7,0,0,,,,,0,,,55,94
3600,note_on,,,,,0,0,0,,,,,0,,,51,94
3600,note_on,,,,,162,0,1,,,,,0,,,47,94
3678,note_on,,,,,78,0,1,,,,,0,,,47,0
3713,note_on,,,,,113,0,0,,,,,0,,,55,0
3713,note_on,,,,,0,0,0,,,,,0,,,51,0
3720,note_on,,,,,7,0,0,,,,,0,,,53,95
3833,note_on,,,,,113,0,0,,,,,0,,,53,0
3840,note_on,,,,,162,0,1,,,,,0,,,48,96
3840,note_on,,,,,0,0,0,,,,,0,,,52,96
3840,set_tempo,,,,,7,1,0,,599999,,,,,,,
3918,note_on,,,,,78,0,1,,,,,0,,,48,0
3918,note_on,,,,,78,0,0,,,,,0,,,52,0
4200,note_on,,,,,0,0,0,,,,,0,,,48,112
4200,note_on,,,,,282,0,0,,,,,0,,,60,112
4202,control_change,,,,,2,0,0,,,64,127,0,,,,
4319,note_on,,,,,117,0,0,,,,,0,,,48,0
4320,note_on,,,,,402,0,1,,,,,0,,,24,112
4320,note_on,,,,,1,0,0,,,,,0,,,48,112
4547,note_on,,,,,227,0,1,,,,,0,,,24,0
4547,note_on,,,,,0,0,0,,,,,0,,,48,0
4547,note_on,,,,,227,0,0,,,,,0,,,60,0
4800,note_on,,,,,253,0,1,,,,,0,,,60,112
4800,note_on,,,,,0,0,0,,,,,0,,,84,127
4800,set_tempo,,,,,253,1,0,,1000000,,,,,,,
4815,note_on,,,,,15,0,0,,,,,0,,,84,0
4825,note_on,,,,,0,0,0,,,,,0,,,96,112
4825,note_on,,,,,10,0,0,,,,,0,,,88,112
4842,note_on,,,,,42,0,1,,,,,0,,,67,112
4849,note_on,,,,,0,0,0,,,,,0,,,96,0
4849,note_on,,,,,24,0,0,,,,,0,,,88,0
4850,note_on,,,,,1,0,0,,,,,0,,,94,112
4874,note_on,,,,,24,0,0,,,,,0,,,94,0
4875,note_on,,,,,1,0,0,,,,,0,,,91,112
4884,note_on,,,,,42,0,1,,,,,0,,,70,112
4899,note_on,,,,,24,0,0,,,,,0,,,91,0
4900,note_on,,,,,1,0,0,,,,,0,,,88,112
4924,note_on,,,,,24,0,0,,,,,0,,,88,0
4925,note_on,,,,,1,0,0,,,,,0,,,84,112
4926,note_on,,,,,42,0,1,,,,,0,,,76,112
4949,note_on,,,,,24,0,0,,,,,0,,,84,0
4950,note_on,,,,,1,0,0,,,,,0,,,82,112
4974,note_on,,,,,24,0,0,,,,,0,,,82,0
4975,note_on,,,,,1,0,0,,,,,0,,,79,112
4999,note_on,,,,,24,0,0,,,,,0,,,79,0
5000,note_on,,,,,1,0,0,,,,,0,,,76,112
5024,note_on,,,,,24,0,0,,,,,0,,,76,0
5025,note_on,,,,,1,0,0,,,,,0,,,72,112
5039,note_on,,,,,113,0,1,,,,,0,,,60,0
5039,note_on,,,,,0,0,1,,,,,0,,,76,0
5039,note_on,,,,,0,0,1,,,,,0,,,70,0
5039,note_on,,,,,0,0,1,,,,,0,,,67,0
5049,note_on,,,,,24,0,0,,,,,0,,,72,0
5050,note_on,,,,,1,0,0,,,,,0,,,70,112
5074,note_on,,,,,24,0,0,,,,,0,,,70,0
5075,note_on,,,,,1,0,0,,,,,0,,,67,112
5099,note_on,,,,,24,0,0,,,,,0,,,67,0
5100,note_on,,,,,1,0,0,,,,,0,,,64,112
5124,note_on,,,,,24,0,0,,,,,0,,,64,0
5125,note_on,,,,,1,0,0,,,,,0,,,60,112
5149,note_on,,,,,24,0,0,,,,,0,,,60,0
5150,note_on,,,,,1,0,0,,,,,0,,,58,104
5174,note_on,,,,,24,0,0,,,,,0,,,58,0
5175,note_on,,,,,1,0,0,,,,,0,,,55,96
5199,note_on,,,,,24,0,0,,,,,0,,,55,0
5200,note_on,,,,,1,0,0,,,,,0,,,52,87
5224,note_on,,,,,24,0,0,,,,,0,,,52,0
5225,note_on,,,,,1,0,0,,,,,0,,,48,79
5249,note_on,,,,,24,0,0,,,,,0,,,48,0
5250,note_on,,,,,1,0,0,,,,,0,,,46,70
5272,note_on,,,,,22,0,0,,,,,0,,,46,0
5280,note_on,,,,,0,0,0,,,,,0,,,43,70
5280,note_on,,,,,0,0,0,,,,,0,,,43,70
5280,set_tempo,,,,,8,1,0,,428572,,,,,,,
5281,control_change,,,,,1,0,0,,,64,0,0,,,,
5393,note_on,,,,,0,0,0,,,,,0,,,43,0
5393,note_on,,,,,112,0,0,,,,,0,,,43,0
5400,note_on,,,,,7,0,0,,,,,0,,,50,70
5513,note_on,,,,,113,0,0,,,,,0,,,50,0
5520,note_on,,,,,0,0,0,,,,,0,,,44,70
5520,note_on,,,,,481,0,1,,,,,0,,,40,70
5520,note_on,,,,,7,0,0,,,,,0,,,48,70
5598,note_on,,,,,78,0,1,,,,,0,,,40,0
5633,note_on,,,,,0,0,0,,,,,0,,,44,0
5633,note_on,,,,,113,0,0,,,,,0,,,48,0
5640,note_on,,,,,7,0,0,,,,,0,,,46,70
5753,note_on,,,,,113,0,0,,,,,0,,,46,0
5760,note_on,,,,,0,0,0,,,,,0,,,45,70
5760,note_on,,,,,7,0,0,,,,,0,,,45,70
5760,note_on,,,,,162,0,1,,,,,0,,,41,70
5838,note_on,,,,,78,0,1,,,,,0,,,41,0
5873,note_on,,,,,113,0,0,,,,,0,,,45,0
5873,note_on,,,,,0,0,0,,,,,0,,,45,0
5880,note_on,,,,,7,0,0,,,,,0,,,52,70
5993,note_on,,,,,113,0,0,,,,,0,,,52,0
6000,note_on,,,,,0,0,0,,,,,0,,,46,70
6000,note_on,,,,,162,0,1,,,,,0,,,42,70
6000,note_on,,,,,7,0,0,,,,,0,,,50,70
6078,note_on,,,,,78,0,1,,,,,0,,,42,0
6113,note_on,,,,,113,0,0,,,,,0,,,50,0
6113,note_on,,,,,0,0,0,,,,,0,,,46,0
6120,note_on,,,,,7,0,0,,,,,0,,,48,70
6233,note_on,,,,,113,0,0,,,,,0,,,48,0
6240,note_on,,,,,162,0,1,,,,,0,,,43,70
6240,note_on,,,,,0,0,0,,,,,0,,,47,70
6240,note_on,,,,,7,0,0,,,,,0,,,47,70
6318,note_on,,,,,78,0,1,,,,,0,,,43,0
6353,note_on,,,,,0,0,0,,,,,0,,,47,0
6353,note_on,,,,,113,0,0,,,,,0,,,47,0
6360,note_on,,,,,7,0,0,,,,,0,,,53,72
6473,note_on,,,,,113,0,0,,,,,0,,,53,0
6480,note_on,,,,,7,0,0,,,,,0,,,52,74
6480,note_on,,,,,162,0,1,,,,,0,,,44,74
6480,note_on,,,,,0,0,0,,,,,0,,,47,74
6558,note_on,,,,,78,0,1,,,,,0,,,44,0
6593,note_on,,,,,113,0,0,,,,,0,,,52,0
6593,note_on,,,,,0,0,0,,,,,0,,,47,0
6600,note_on,,,,,7,0,0,,,,,0,,,50,76
6713,note_on,,,,,113,0,0,,,,,0,,,50,0
6720,note_on,,,,,162,0,1,,,,,0,,,45,78
6720,note_on,,,,,7,0,0,,,,,0,,,48,78
6720,note_on,,,,,0,0,0,,,,,0,,,48,78
6833,note_on,,,,,0,0,0,,,,,0,,,48,0
6833,note_on,,,,,113,0,0,,,,,0,,,48,0
6840,note_on,,,,,7,0,0,,,,,0,,,55,80
6953,note_on,,,,,113,0,0,,,,,0,,,55,0
6960,note_on,,,,,0,0,0,,,,,0,,,49,82
6960,note_on,,,,,7,0,0,,,,,0,,,53,82
7073,note_on,,,,,0,0,0,,,,,0,,,49,0
7073,note_on,,,,,113,0,0,,,,,0,,,53,0
7080,note_on,,,,,7,0,0,,,,,0,,,52,84
7175,note_on,,,,,455,0,1,,,,,0,,,45,0
7193,note_on,,,,,113,0,0,,,,,0,,,52,0
7200,note_on,,,,,0,0,0,,,,,0,,,50,86
7200,note_on,,,,,25,0,1,,,,,0,,,46,86
7200,note_on,,,,,7,0,0,,,,,0,,,50,86
7278,note_on,,,,,78,0,1,,,,,0,,,46,0
7313,note_on,,,,,113,0,0,,,,,0,,,50,0
7313,note_on,,,,,0,0,0,,,,,0,,,50,0
7320,note_on,,,,,7,0,0,,,,,0,,,57,88
7433,note_on,,,,,113,0,0,,,,,0,,,57,0
7440,note_on,,,,,7,0,0,,,,,0,,,55,90
7440,note_on,,,,,162,0,1,,,,,0,,,47,90
7440,note_on,,,,,0,0,0,,,,,0,,,51,90
7518,note_on,,,,,78,0,1,,,,,0,,,47,0
7553,note_on,,,,,113,0,0,,,,,0,,,55,0
7553,note_on,,,,,0,0,0,,,,,0,,,51,0
7560,note_on,,,,,7,0,0,,,,,0,,,53,92
7673,note_on,,,,,113,0,0,,,,,0,,,53,0
7680,note_on,,,,,0,0,0,,,,,0,,,52,94
7680,note_on,,,,,7,0,0,,,,,0,,,52,94
7680,note_on,,,,,162,0,1,,,,,0,,,48,94
7758,note_on,,,,,78,0,1,,,,,0,,,48,0
7793,note_on,,,,,113,0,0,,,,,0,,,52,0
7793,note_on,,,,,0,0,0,,,,,0,,,52,0
7800,note_on,,,,,7,0,0,,,,,0,,,58,96
7913,note_on,,,,,113,0,0,,,,,0,,,58,0
7920,note_on,,,,,7,0,0,,,,,0,,,57,98
7920,note_on,,,,,162,0,1,,,,,0,,,49,98
7998,note_on,,,,,78,0,1,,,,,0,,,49,0
8033,note_on,,,,,113,0,0,,,,,0,,,57,0
8040,note_on,,,,,7,0,0,,,,,0,,,55,100
8153,note_on,,,,,113,0,0,,,,,0,,,55,0
8160,note_on,,,,,162,0,1,,,,,0,,,50,102
8160,note_on,,,,,7,0,0,,,,,0,,,53,102
8160,note_on,,,,,0,0,0,,,,,0,,,53,102
8238,note_on,,,,,78,0,1,,,,,0,,,50,0
8273,note_on,,,,,113,0,0,,,,,0,,,53,0
8273,note_on,,,,,0,0,0,,,,,0,,,53,0
8280,note_on,,,,,7,0,0,,,,,0,,,60,104
8393,note_on,,,,,113,0,0,,,,,0,,,60,0
8400,note_on,,,,,0,0,0,,,,,0,,,54,106
8400,note_on,,,,,162,0,1,,,,,0,,,51,106
8400,note_on,,,,,7,0,0,,,,,0,,,59,106
8478,note_on,,,,,78,0,1,,,,,0,,,51,0
8513,note_on,,,,,113,0,0,,,,,0,,,59,0
8513,note_on,,,,,0,0,0,,,,,0,,,54,0
8520,note_on,,,,,7,0,0,,,,,0,,,57,108
8633,note_on,,,,,113,0,0,,,,,0,,,57,0
8640,note_on,,,,,0,0,0,,,,,0,,,55,110
8640,note_on,,,,,162,0,1,,,,,0,,,52,110
8640,note_on,,,,,7,0,0,,,,,0,,,55,110
8753,note_on,,,,,0,0,0,,,,,0,,,55,0
8753,note_on,,,,,113,0,0,,,,,0,,,55,0
8760,note_on,,,,,7,0,0,,,,,0,,,62,112
8873,note_on,,,,,113,0,0,,,,,0,,,62,0
8880,note_on,,,,,7,0,0,,,,,0,,,60,114
8880,note_on,,,,,0,0,0,,,,,0,,,56,114
8993,note_on,,,,,113,0,0,,,,,0,,,60,0
8993,note_on,,,,,0,0,0,,,,,0,,,56,0
9000,note_on,,,,,7,0,0,,,,,0,,,58,116
9095,note_on,,,,,455,0,1,,,,,0,,,52,0
9113,note_on,,,,,113,0,0,,,,,0,,,58,0
9120,note_on,,,,,25,0,1,,,,,0,,,53,118
9120,note_on,,,,,7,0,0,,,,,0,,,57,118
9120,note_on,,,,,0,0,0,,,,,0,,,57,118
9198,note_on,,,,,78,0,1,,,,,0,,,53,0
9233,note_on,,,,,113,0,0,,,,,0,,,57,0
9233,note_on,,,,,0,0,0,,,,,0,,,57,0
9240,note_on,,,,,7,0,0,,,,,0,,,64,120
9353,note_on,,,,,113,0,0,,,,,0,,,64,0
9360,note_on,,,,,162,0,1,,,,,0,,,54,122
9360,note_on,,,,,7,0,0,,,,,0,,,62,122
9360,note_on,,,,,0,0,0,,,,,0,,,58,122
9438,note_on,,,,,78,0,1,,,,,0,,,54,0
9473,note_on,,,,,113,0,0,,,,,0,,,62,0
9473,note_on,,,,,0,0,0,,,,,0,,,58,0
9480,note_on,,,,,7,0,0,,,,,0,,,60,124
9593,note_on,,,,,113,0,0,,,,,0,,,60,0
9600,note_on,,,,,162,0,1,,,,,0,,,55,126
9600,note_on,,,,,0,0,0,,,,,0,,,59,126
9600,note_on,,,,,7,0,0,,,,,0,,,59,126
9678,note_on,,,,,78,0,1,,,,,0,,,55,0
9713,note_on,,,,,113,0,0,,,,,0,,,59,0
9713,note_on,,,,,0,0,0,,,,,0,,,59,0
9720,note_on,,,,,7,0,0,,,,,0,,,65,126
9833,note_on,,,,,113,0,0,,,,,0,,,65,0
9840,note_on,,,,,162,0,1,,,,,0,,,56,126
9840,note_on,,,,,7,0,0,,,,,0,,,64,126
9918,note_on,,,,,78,0,1,,,,,0,,,56,0
9953,note_on,,,,,113,0,0,,,,,0,,,64,0
9960,note_on,,,,,7,0,0,,,,,0,,,62,126
10073,note_on,,,,,113,0,0,,,,,0,,,62,0
10080,note_on,,,,,0,0,0,,,,,0,,,60,126
10080,note_on,,,,,7,0,0,,,,,0,,,60,126
10080,note_on,,,,,162,0,1,,,,,0,,,57,126
10193,note_on,,,,,0,0,0,,,,,0,,,60,0
10193,note_on,,,,,113,0,0,,,,,0,,,60,0
10200,note_on,,,,,7,0,0,,,,,0,,,67,126
10313,note_on,,,,,113,0,0,,,,,0,,,67,0
10320,note_on,,,,,0,0,0,,,,,0,,,61,126
10320,note_on,,,,,7,0,0,,,,,0,,,65,126
10433,note_on,,,,,113,0,0,,,,,0,,,65,0
10433,note_on,,,,,0,0,0,,,,,0,,,61,0
10440,note_on,,,,,7,0,0,,,,,0,,,64,126
10535,note_on,,,,,455,0,1,,,,,0,,,57,0
10553,note_on,,,,,113,0,0,,,,,0,,,64,0
10560,note_on,,,,,7,0,0,,,,,0,,,62,126
10560,note_on,,,,,0,0,0,,,,,0,,,62,126
10560,note_on,,,,,25,0,1,,,,,0,,,58,126
10638,note_on,,,,,78,0,1,,,,,0,,,58,0
10673,note_on,,,,,113,0,0,,,,,0,,,62,0
10673,note_on,,,,,0,0,0,,,,,0,,,62,0
10680,note_on,,,,,7,0,0,,,,,0,,,69,126
10793,note_on,,,,,113,0,0,,,,,0,,,69,0
10800,note_on,,,,,7,0,0,,,,,0,,,67,126
10800,note_on,,,,,0,0,0,,,,,0,,,63,126
10800,note_on,,,,,162,0,1,,,,,0,,,59,126
10878,note_on,,,,,78,0,1,,,,,0,,,59,0
10913,note_on,,,,,0,0,0,,,,,0,,,63,0
10913,note_on,,,,,113,0,0,,,,,0,,,67,0
10920,note_on,,,,,7,0,0,,,,,0,,,65,126
11033,note_on,,,,,113,0,0,,,,,0,,,65,0
11040,note_on,,,,,162,0,1,,,,,0,,,60,126
11040,note_on,,,,,7,0,0,,,,,0,,,64,126
11040,note_on,,,,,0,0,0,,,,,0,,,64,126
11118,note_on,,,,,78,0,1,,,,,0,,,60,0
11153,note_on,,,,,0,0,0,,,,,0,,,64,0
11153,note_on,,,,,113,0,0,,,,,0,,,64,0
11160,note_on,,,,,7,0,0,,,,,0,,,77,126
11273,note_on,,,,,113,0,0,,,,,0,,,77,0
11280,note_on,,,,,0,0,0,,,,,0,,,71,126
11280,note_on,,,,,162,0,1,,,,,0,,,56,126
11280,note_on,,,,,0,0,1,,,,,0,,,64,126
11280,note_on,,,,,7,0,0,,,,,0,,,76,126
11358,note_on,,,,,0,0,1,,,,,0,,,64,0
11358,note_on,,,,,78,0,1,,,,,0,,,56,0
11393,note_on,,,,,0,0,0,,,,,0,,,71,0
11393,note_on,,,,,113,0,0,,,,,0,,,76,0
11400,note_on,,,,,7,0,0,,,,,0,,,74,126
11513,note_on,,,,,113,0,0,,,,,0,,,74,0
11520,note_on,,,,,162,0,1,,,,,0,,,57,126
11520,note_on,,,,,7,0,0,,,,,0,,,72,126
11520,note_on,,,,,0,0,0,,,,,0,,,72,126
11520,note_on,,,,,0,0,1,,,,,0,,,64,126
11598,note_on,,,,,78,0,1,,,,,0,,,57,0
11598,note_on,,,,,0,0,1,,,,,0,,,64,0
11633,note_on,,,,,113,0,0,,,,,0,,,72,0
11640,note_on,,,,,7,0,0,,,,,0,,,81,126
11747,note_on,,,,,107,0,0,,,,,0,,,72,0
11753,note_on,,,,,6,0,0,,,,,0,,,81,0
11760,note_on,,,,,7,0,0,,,,,0,,,79,126
11760,note_on,,,,,0,0,0,,,,,0,,,74,126
11760,note_on,,,,,0,0,1,,,,,0,,,67,126
11760,note_on,,,,,162,0,1,,,,,0,,,59,126
11838,note_on,,,,,0,0,1,,,,,0,,,67,0
11838,note_on,,,,,78,0,1,,,,,0,,,59,0
11873,note_on,,,,,113,0,0,,,,,0,,,79,0
11880,note_on,,,,,7,0,0,,,,,0,,,77,126
11987,note_on,,,,,107,0,0,,,,,0,,,74,0
11993,note_on,,,,,6,0,0,,,,,0,,,77,0
12000,note_on,,,,,0,0,0,,,,,0,,,76,126
12000,note_on,,,,,7,0,0,,,,,0,,,76,126
12000,note_on,,,,,0,0,1,,,,,0,,,67,126
12000,note_on,,,,,162,0,1,,,,,0,,,60,126
12078,note_on,,,,,0,0,1,,,,,0,,,67,0
12078,note_on,,,,,78,0,1,,,,,0,,,60,0
12113,note_on,,,,,113,0,0,,,,,0,,,76,0
12120,note_on,,,,,7,0,0,,,,,0,,,89,126
12227,note_on,,,,,107,0,0,,,,,0,,,76,0
12233,note_on,,,,,6,0,0,,,,,0,,,89,0
12240,note_on,,,,,162,0,1,,,,,0,,,56,126
12240,note_on,,,,,0,0,1,,,,,0,,,64,126
12240,note_on,,,,,0,0,0,,,,,0,,,83,126
12240,note_on,,,,,7,0,0,,,,,0,,,88,126
12318,note_on,,,,,0,0,1,,,,,0,,,64,0
12318,note_on,,,,,78,0,1,,,,,0,,,56,0
12353,note_on,,,,,113,0,0,,,,,0,,,88,0
12360,note_on,,,,,7,0,0,,,,,0,,,86,126
12467,note_on,,,,,107,0,0,,,,,0,,,83,0
12473,note_on,,,,,6,0,0,,,,,0,,,86,0
12480,note_on,,,,,7,0,0,,,,,0,,,84,126
12480,note_on,,,,,0,0,0,,,,,0,,,84,126
12480,note_on,,,,,162,0,1,,,,,0,,,57,126
12480,note_on,,,,,0,0,1,,,,,0,,,64,126
12558,note_on,,,,,0,0,1,,,,,0,,,64,0
12558,note_on,,,,,78,0,1,,,,,0,,,57,0
12593,note_on,,,,,113,0,0,,,,,0,,,84,0
12600,note_on,,,,,7,0,0,,,,,0,,,93,126
12707,note_on,,,,,107,0,0,,,,,0,,,84,0
12713,note_on,,,,,6,0,0,,,,,0,,,93,0
12720,note_on,,,,,7,0,0,,,,,0,,,91,126
12720,note_on,,,,,0,0,1,,,,,0,,,67,126
12720,note_on,,,,,162,0,1,,,,,0,,,59,126
12720,note_on,,,,,0,0,0,,,,,0,,,86,126
12798,note_on,,,,,78,0,1,,,,,0,,,59,0
12798,note_on,,,,,0,0,1,,,,,0,,,67,0
12833,note_on,,,,,113,0,0,,,,,0,,,91,0
12840,note_on,,,,,7,0,0,,,,,0,,,89,126
12947,note_on,,,,,107,0,0,,,,,0,,,86,0
12953,note_on,,,,,6,0,0,,,,,0,,,89,0
12960,note_on,,,,,7,0,0,,,,,0,,,88,126
12960,note_on,,,,,0,0,0,,,,,0,,,88,126
12960,note_on,,,,,0,0,1,,,,,0,,,67,126
12960,note_on,,,,,162,0,1,,,,,0,,,60,126
13038,note_on,,,,,0,0,1,,,,,0,,,67,0
13038,note_on,,,,,78,0,1,,,,,0,,,60,0
13073,note_on,,,,,113,0,0,,,,,0,,,88,0
13080,note_on,,,,,7,0,0,,,,,0,,,101,126
13187,note_on,,,,,107,0,0,,,,,0,,,88,0
13193,note_on,,,,,6,0,0,,,,,0,,,101,0
13200,note_on,,,,,0,0,0,,,,,0,,,95,126
13200,note_on,,,,,162,0,1,,,,,0,,,59,126
13200,note_on,,,,,7,0,0,,,,,0,,,100,126
13200,note_on,,,,,0,0,1,,,,,0,,,67,126
13278,note_on,,,,,78,0,1,,,,,0,,,59,0
13278,note_on,,,,,0,0,1,,,,,0,,,67,0
13313,note_on,,,,,113,0,0,,,,,0,,,100,0
13320,note_on,,,,,7,0,0,,,,,0,,,98,126
13427,note_on,,,,,107,0,0,,,,,0,,,95,0
13433,note_on,,,,,6,0,0,,,,,0,,,98,0
13440,note_on,,,,,0,0,0,,,,,0,,,96,126
13440,note_on,,,,,162,0,1,,,,,0,,,60,126
13440,note_on,,,,,7,0,0,,,,,0,,,96,126
13440,note_on,,,,,0,0,1,,,,,0,,,67,126
13518,note_on,,,,,0,0,1,,,,,0,,,67,0
13518,note_on,,,,,78,0,1,,,,,0,,,60,0
13553,note_on,,,,,113,0,0,,,,,0,,,96,0
13560,note_on,,,,,7,0,0,,,,,0,,,105,126
13667,note_on,,,,,107,0,0,,,,,0,,,96,0
13673,note_on,,,,,6,0,0,,,,,0,,,105,0
13680,note_on,,,,,162,0,1,,,,,0,,,59,126
13680,note_on,,,,,0,0,0,,,,,0,,,98,126
13680,note_on,,,,,0,0,1,,,,,0,,,67,126
13680,note_on,,,,,7,0,0,,,,,0,,,103,126
13758,note_on,,,,,78,0,1,,,,,0,,,59,0
13758,note_on,,,,,0,0,1,,,,,0,,,67,0
13793,note_on,,,,,113,0,0,,,,,0,,,103,0
13800,note_on,,,,,7,0,0,,,,,0,,,101,126
13907,note_on,,,,,107,0,0,,,,,0,,,98,0
13913,note_on,,,,,6,0,0,,,,,0,,,101,0
13920,note_on,,,,,7,0,0,,,,,0,,,100,126
13920,note_on,,,,,162,0,1,,,,,0,,,60,126
13920,note_on,,,,,0,0,0,,,,,0,,,100,126
13920,note_on,,,,,0,0,1,,,,,0,,,67,126
13998,note_on,,,,,78,0,1,,,,,0,,,60,0
13998,note_on,,,,,0,0,1,,,,,0,,,67,0
14033,note_on,,,,,113,0,0,,,,,0,,,100,0
14040,note_on,,,,,7,0,0,,,,,0,,,105,126
14147,note_on,,,,,107,0,0,,,,,0,,,100,0
14153,note_on,,,,,6,0,0,,,,,0,,,105,0
14160,note_on,,,,,0,0,0,,,,,0,,,103,126
14160,note_on,,,,,0,0,1,,,,,0,,,59,126
14160,note_on,,,,,162,0,1,,,,,0,,,47,126
14160,note_on,,,,,0,0,1,,,,,0,,,55,126
14160,note_on,,,,,7,0,0,,,,,0,,,98,126
14160,note_on,,,,,0,0,0,,,,,0,,,91,126
14238,note_on,,,,,0,0,1,,,,,0,,,55,0
14238,note_on,,,,,78,0,1,,,,,0,,,47,0
14238,note_on,,,,,0,0,1,,,,,0,,,59,0
14273,note_on,,,,,0,0,0,,,,,0,,,103,0
14273,note_on,,,,,113,0,0,,,,,0,,,98,0
14280,note_on,,,,,7,0,0,,,,,0,,,101,126
14387,note_on,,,,,107,0,0,,,,,0,,,91,0
14393,note_on,,,,,6,0,0,,,,,0,,,101,0
14400,note_on,,,,,162,0,1,,,,,0,,,48,126
14400,note_on,,,,,7,0,0,,,,,0,,,100,126
14400,note_on,,,,,0,0,1,,,,,0,,,55,126
14400,note_on,,,,,0,0,1,,,,,0,,,60,126
14478,note_on,,,,,0,0,1,,,,,0,,,60,0
14478,note_on,,,,,78,0,1,,,,,0,,,48,0
14478,note_on,,,,,0,0,1,,,,,0,,,55,0
14513,note_on,,,,,113,0,0,,,,,0,,,100,0
14520,note_on,,,,,7,0,0,,,,,0,,,105,126
14633,note_on,,,,,113,0,0,,,,,0,,,105,0
14640,note_on,,,,,0,0,0,,,,,0,,,91,126
14640,note_on,,,,,0,0,0,,,,,0,,,103,126
14640,note_on,,,,,7,0,0,,,,,0,,,98,126
14640,note_on,,,,,0,0,1,,,,,0,,,43,126
14640,note_on,,,,,162,0,1,,,,,0,,,35,126
14640,note_on,,,,,0,0,1,,,,,0,,,47,126
14718,note_on,,,,,0,0,1,,,,,0,,,43,0
14718,note_on,,,,,0,0,1,,,,,0,,,47,0
14718,note_on,,,,,78,0,1,,,,,0,,,35,0
14753,note_on,,,,,0,0,0,,,,,0,,,103,0
14753,note_on,,,,,113,0,0,,,,,0,,,98,0
14760,note_on,,,,,7,0,0,,,,,0,,,101,126
14867,note_on,,,,,107,0,0,,,,,0,,,91,0
14873,note_on,,,,,6,0,0,,,,,0,,,101,0
14880,note_on,,,,,0,0,1,,,,,0,,,43,126
14880,note_on,,,,,0,0,1,,,,,0,,,48,126
14880,note_on,,,,,0,0,0,,,,,0,,,91,126
14880,note_on,,,,,162,0,1,,,,,0,,,36,126
14880,note_on,,,,,7,0,0,,,,,0,,,100,126
14958,note_on,,,,,0,0,1,,,,,0,,,48,0
14958,note_on,,,,,0,0,1,,,,,0,,,43,0
14958,note_on,,,,,78,0,1,,,,,0,,,36,0
14993,note_on,,,,,113,0,0,,,,,0,,,100,0
15000,note_on,,,,,7,0,0,,,,,0,,,105,126
15107,note_on,,,,,107,0,0,,,,,0,,,91,0
15113,note_on,,,,,6,0,0,,,,,0,,,105,0
15120,note_on,,,,,0,0,1,,,,,0,,,47,126
15120,note_on,,,,,7,0,0,,,,,0,,,98,126
15120,note_on,,,,,0,0,1,,,,,0,,,43,126
15120,note_on,,,,,0,0,0,,,,,0,,,91,126
15120,note_on,,,,,0,0,0,,,,,0,,,103,126
15120,note_on,,,,,162,0,1,,,,,0,,,35,126
15198,note_on,,,,,78,0,1,,,,,0,,,35,0
15198,note_on,,,,,0,0,1,,,,,0,,,43,0
15198,note_on,,,,,0,0,1,,,,,0,,,47,0
15233,note_on,,,,,0,0,0,,,,,0,,,103,0
15233,note_on,,,,,113,0,0,,,,,0,,,98,0
15240,note_on,,,,,7,0,0,,,,,0,,,101,126
15347,note_on,,,,,107,0,0,,,,,0,,,91,0
15353,note_on,,,,,6,0,0,,,,,0,,,101,0
15360,note_on,,,,,0,0,1,,,,,0,,,43,126
15360,note_on,,,,,0,0,1,,,,,0,,,48,126
15360,note_on,,,,,0,0,0,,,,,0,,,100,126
15360,note_on,,,,,7,0,0,,,,,0,,,88,126
15360,note_on,,,,,162,0,1,,,,,0,,,36,126
15438,note_on,,,,,78,0,0,,,,,0,,,88,0
15438,note_on,,,,,0,0,1,,,,,0,,,48,0
15438,note_on,,,,,0,0,0,,,,,0,,,100,0
15438,note_on,,,,,78,0,1,,,,,0,,,36,0
15438,note_on,,,,,0,0,1,,,,,0,,,43,0
15840,note_on,,,,,0,0,0,,,,,0,,,76,126
15840,note_on,,,,,0,0,0,,,,,0,,,73,126
15840,note_on,,,,,0,0,0,,,,,0,,,67,126
15840,note_on,,,,,402,0,0,,,,,0,,,64,126
15840,note_on,,,,,0,0,1,,,,,0,,,55,126
15840,note_on,,,,,402,0,1,,,,,0,,,46,126
15840,note_on,,,,,0,0,1,,,,,0,,,58,126
15840,note_on,,,,,0,0,1,,,,,0,,,52,126
15840,note_on,,,,,0,0,1,,,,,0,,,49,126
15918,note_on,,,,,0,0,0,,,,,0,,,76,0
15918,note_on,,,,,0,0,0,,,,,0,,,73,0
15918,note_on,,,,,0,0,1,,,,,0,,,49,0
15918,note_on,,,,,0,0,1,,,,,0,,,52,0
15918,note_on,,,,,0,0,0,,,,,0,,,67,0
15918,note_on,,,,,78,0,1,,,,,0,,,46,0
15918,note_on,,,,,0,0,1,,,,,0,,,58,0
15918,note_on,,,,,0,0,1,,,,,0,,,55,0
15918,note_on,,,,,78,0,0,,,,,0,,,64,0
16320,note_on,,,,,0,0,1,,,,,0,,,53,126
16320,note_on,,,,,0,0,1,,,,,0,,,49,126
16320,note_on,,,,,0,0,0,,,,,0,,,77,126
16320,note_on,,,,,0,0,0,,,,,0,,,73,126
16320,note_on,,,,,402,0,1,,,,,0,,,44,126
16320,note_on,,,,,402,0,0,,,,,0,,,65,126
16320,note_on,,,,,0,0,0,,,,,0,,,68,126
16320,note_on,,,,,0,0,1,,,,,0,,,56,126
16398,note_on,,,,,78,0,0,,,,,0,,,65,0
16398,note_on,,,,,0,0,1,,,,,0,,,56,0
16398,note_on,,,,,0,0,1,,,,,0,,,49,0
16398,note_on,,,,,0,0,1,,,,,0,,,53,0
16398,note_on,,,,,0,0,0,,,,,0,,,77,0
16398,note_on,,,,,0,0,0,,,,,0,,,73,0
16398,note_on,,,,,78,0,1,,,,,0,,,44,0
16398,note_on,,,,,0,0,0,,,,,0,,,68,0
16800,note_on,,,,,0,0,1,,,,,0,,,48,126
16800,note_on,,,,,0,0,1,,,,,0,,,51,126
16800,note_on,,,,,0,0,1,,,,,0,,,54,126
16800,note_on,,,,,402,0,0,,,,,0,,,68,126
16800,note_on,,,,,402,0,1,,,,,0,,,42,126
16800,note_on,,,,,0,0,0,,,,,0,,,80,126
16800,note_on,,,,,0,0,0,,,,,0,,,75,126
16800,note_on,,,,,0,0,0,,,,,0,,,72,126
16878,note_on,,,,,78,0,1,,,,,0,,,42,0
16878,note_on,,,,,0,0,0,,,,,0,,,72,0
16878,note_on,,,,,0,0,0,,,,,0,,,75,0
16878,note_on,,,,,78,0,0,,,,,0,,,68,0
16878,note_on,,,,,0,0,1,,,,,0,,,48,0
16878,note_on,,,,,0,0,0,,,,,0,,,80,0
16878,note_on,,,,,0,0,1,,,,,0,,,54,0
16878,note_on,,,,,0,0,1,,,,,0,,,51,0
17280,note_on,,,,,0,0,1,,,,,0,,,44,126
17280,note_on,,,,,402,0,0,,,,,0,,,73,126
17280,note_on,,,,,402,0,1,,,,,0,,,41,126
17280,note_on,,,,,0,0,0,,,,,0,,,85,126
17280,note_on,,,,,0,0,0,,,,,0,,,80,126
17280,note_on,,,,,0,0,0,,,,,0,,,77,126
17280,note_on,,,,,0,0,1,,,,,0,,,49,126
17280,note_on,,,,,0,0,1,,,,,0,,,53,126
17358,note_on,,,,,0,0,0,,,,,0,,,80,0
17358,note_on,,,,,78,0,0,,,,,0,,,73,0
17358,note_on,,,,,0,0,1,,,,,0,,,53,0
17358,note_on,,,,,0,0,0,,,,,0,,,77,0
17358,note_on,,,,,0,0,1,,,,,0,,,44,0
17358,note_on,,,,,0,0,0,,,,,0,,,85,0
17358,note_on,,,,,0,0,1,,,,,0,,,49,0
17358,note_on,,,,,78,0,1,,,,,0,,,41,0
17760,note_on,,,,,402,0,0,,,,,0,,,78,126
17760,note_on,,,,,0,0,0,,,,,0,,,90,126
17760,note_on,,,,,0,0,0,,,,,0,,,85,126
17760,note_on,,,,,402,0,1,,,,,0,,,40,126
17760,note_on,,,,,0,0,1,,,,,0,,,46,126
17760,note_on,,,,,0,0,0,,,,,0,,,82,126
17760,note_on,,,,,0,0,1,,,,,0,,,52,126
17760,note_on,,,,,0,0,1,,,,,0,,,49,126
17838,note_on,,,,,78,0,0,,,,,0,,,78,0
17838,note_on,,,,,0,0,1,,,,,0,,,49,0
17838,note_on,,,,,0,0,0,,,,,0,,,85,0
17838,note_on,,,,,0,0,1,,,,,0,,,46,0
17838,note_on,,,,,78,0,1,,,,,0,,,40,0
17838,note_on,,,,,0,0,0,,,,,0,,,82,0
17838,note_on,,,,,0,0,1,,,,,0,,,52,0
17838,note_on,,,,,0,0,0,,,,,0,,,90,0
18240,note_on,,,,,0,0,0,,,,,0,,,95,126
18240,note_on,,,,,0,0,0,,,,,0,,,90,126
18240,note_on,,,,,0,0,0,,,,,0,,,87,126
18240,note_on,,,,,0,0,1,,,,,0,,,47,126
18240,note_on,,,,,0,0,1,,,,,0,,,51,126
18240,note_on,,,,,0,0,1,,,,,0,,,42,126
18240,note_on,,,,,402,0,0,,,,,0,,,83,126
18240,note_on,,,,,402,0,1,,,,,0,,,39,126
18318,note_on,,,,,0,0,1,,,,,0,,,42,0
18318,note_on,,,,,0,0,1,,,,,0,,,47,0
18318,note_on,,,,,0,0,1,,,,,0,,,51,0
18318,note_on,,,,,0,0,0,,,,,0,,,90,0
18318,note_on,,,,,78,0,1,,,,,0,,,39,0
18318,note_on,,,,,78,0,0,,,,,0,,,83,0
18318,note_on,,,,,0,0,0,,,,,0,,,95,0
18318,note_on,,,,,0,0,0,,,,,0,,,87,0
18720,note_on,,,,,402,0,1,,,,,0,,,38,126
18720,note_on,,,,,0,0,0,,,,,0,,,95,126
18720,note_on,,,,,0,0,0,,,,,0,,,92,126
18720,note_on,,,,,402,0,0,,,,,0,,,88,126
18720,note_on,,,,,0,0,0,,,,,0,,,100,126
18720,note_on,,,,,0,0,1,,,,,0,,,47,126
18720,note_on,,,,,0,0,1,,,,,0,,,50,126
18720,note_on,,,,,0,0,1,,,,,0,,,44,126
18798,note_on,,,,,0,0,0,,,,,0,,,95,0
18798,note_on,,,,,0,0,0,,,,,0,,,92,0
18798,note_on,,,,,0,0,0,,,,,0,,,100,0
18798,note_on,,,,,78,0,0,,,,,0,,,88,0
18798,note_on,,,,,78,0,1,,,,,0,,,38,0
18798,note_on,,,,,0,0,1,,,,,0,,,44,0
18798,note_on,,,,,0,0,1,,,,,0,,,47,0
18798,note_on,,,,,0,0,1,,,,,0,,,50,0
19200,note_on,,,,,0,0,0,,,,,0,,,88,126
19200,note_on,,,,,0,0,1,,,,,0,,,40,126
19200,note_on,,,,,0,0,1,,,,,0,,,49,126
19200,note_on,,,,,402,0,0,,,,,0,,,81,126
19200,note_on,,,,,402,0,1,,,,,0,,,37,126
19200,note_on,,,,,0,0,0,,,,,0,,,93,126
19200,note_on,,,,,0,0,1,,,,,0,,,45,126
19357,note_on,,,,,0,0,0,,,,,0,,,93,0
19357,note_on,,,,,0,0,0,,,,,0,,,88,0
19357,note_on,,,,,157,0,0,,,,,0,,,81,0
19357,note_on,,,,,0,0,1,,,,,0,,,45,0
19357,note_on,,,,,157,0,1,,,,,0,,,37,0
19357,note_on,,,,,0,0,1,,,,,0,,,40,0
19357,note_on,,,,,0,0,1,,,,,0,,,49,0
20160,note_on,,,,,0,0,1,,,,,0,,,45,126
20160,note_on,,,,,0,0,1,,,,,0,,,50,126
20160,note_on,,,,,803,0,0,,,,,0,,,89,126
20160,note_on,,,,,0,0,0,,,,,0,,,98,126
20160,note_on,,,,,803,0,1,,,,,0,,,38,126
20160,note_on,,,,,0,0,0,,,,,0,,,93,126
20160,note_on,,,,,0,0,0,,,,,0,,,101,126
20160,note_on,,,,,0,0,1,,,,,0,,,41,126
20317,note_on,,,,,0,0,1,,,,,0,,,50,0
20317,note_on,,,,,0,0,1,,,,,0,,,45,0
20317,note_on,,,,,0,0,0,,,,,0,,,101,0
20317,note_on,,,,,157,0,0,,,,,0,,,89,0
20317,note_on,,,,,0,0,1,,,,,0,,,41,0
20317,note_on,,,,,0,0,0,,,,,0,,,98,0
20317,note_on,,,,,157,0,1,,,,,0,,,38,0
20317,note_on,,,,,0,0,0,,,,,0,,,93,0
21120,note_on,,,,,803,0,1,,,,,0,,,46,126
21120,note_on,,,,,0,0,0,,,,,0,,,62,126
21120,note_on,,,,,0,0,0,,,,,0,,,58,126
21120,note_on,,,,,803,0,0,,,,,0,,,53,126
21122,control_change,,,,,2,0,1,,,64,127,0,,,,
21182,note_on,,,,,60,0,1,,,,,0,,,46,0
21187,note_on,,,,,5,0,1,,,,,0,,,48,126
21249,note_on,,,,,62,0,1,,,,,0,,,48,0
21256,note_on,,,,,7,0,1,,,,,0,,,46,126
21318,note_on,,,,,62,0,1,,,,,0,,,46,0
21325,note_on,,,,,7,0,1,,,,,0,,,48,126
21387,note_on,,,,,62,0,1,,,,,0,,,48,0
21395,note_on,,,,,8,0,1,,,,,0,,,46,126
21457,note_on,,,,,62,0,1,,,,,0,,,46,0
21464,note_on,,,,,7,0,1,,,,,0,,,48,126
21526,note_on,,,,,62,0,1,,,,,0,,,48,0
21533,note_on,,,,,7,0,1,,,,,0,,,46,126
21595,note_on,,,,,62,0,1,,,,,0,,,46,0
21602,note_on,,,,,7,0,1,,,,,0,,,48,126
21664,note_on,,,,,62,0,1,,,,,0,,,48,0
21671,note_on,,,,,7,0,1,,,,,0,,,46,126
21733,note_on,,,,,62,0,1,,,,,0,,,46,0
21740,note_on,,,,,7,0,1,,,,,0,,,48,126
21802,note_on,,,,,62,0,1,,,,,0,,,48,0
21809,note_on,,,,,7,0,1,,,,,0,,,46,126
21871,note_on,,,,,62,0,1,,,,,0,,,46,0
21878,note_on,,,,,7,0,1,,,,,0,,,48,126
21940,note_on,,,,,62,0,1,,,,,0,,,48,0
21948,note_on,,,,,8,0,1,,,,,0,,,46,126
22010,note_on,,,,,62,0,1,,,,,0,,,46,0
22015,note_on,,,,,5,0,1,,,,,0,,,48,126
22077,note_on,,,,,62,0,1,,,,,0,,,48,0
22084,note_on,,,,,7,0,1,,,,,0,,,46,126
22146,note_on,,,,,62,0,1,,,,,0,,,46,0
22153,note_on,,,,,7,0,1,,,,,0,,,48,126
22215,note_on,,,,,62,0,1,,,,,0,,,48,0
22223,note_on,,,,,8,0,1,,,,,0,,,46,126
22285,note_on,,,,,62,0,1,,,,,0,,,46,0
22292,note_on,,,,,7,0,1,,,,,0,,,48,126
22354,note_on,,,,,62,0,1,,,,,0,,,48,0
22361,note_on,,,,,7,0,1,,,,,0,,,46,126
22423,note_on,,,,,62,0,1,,,,,0,,,46,0
22430,note_on,,,,,7,0,1,,,,,0,,,48,126
22549,note_on,,,,,119,0,1,,,,,0,,,48,0
22560,note_on,,,,,11,0,1,,,,,0,,,44,126
22560,set_tempo,,,,,1440,1,0,,500000,,,,,,,
22615,note_on,,,,,55,0,1,,,,,0,,,44,0
22620,note_on,,,,,5,0,1,,,,,0,,,46,126
22675,note_on,,,,,55,0,1,,,,,0,,,46,0
22680,note_on,,,,,5,0,1,,,,,0,,,44,126
22735,note_on,,,,,55,0,1,,,,,0,,,44,0
22740,note_on,,,,,5,0,1,,,,,0,,,46,126
22795,note_on,,,,,55,0,1,,,,,0,,,46,0
22800,note_on,,,,,5,0,1,,,,,0,,,44,126
22855,note_on,,,,,55,0,1,,,,,0,,,44,0
22860,note_on,,,,,5,0,1,,,,,0,,,46,126
22915,note_on,,,,,55,0,1,,,,,0,,,46,0
22920,note_on,,,,,5,0,1,,,,,0,,,44,126
22943,note_on,,,,,0,0,0,,,,,0,,,62,0
22943,note_on,,,,,0,0,0,,,,,0,,,58,0
22943,note_on,,,,,383,0,0,,,,,0,,,53,0
22975,note_on,,,,,55,0,1,,,,,0,,,44,0
22980,note_on,,,,,5,0,1,,,,,0,,,46,126
23035,note_on,,,,,55,0,1,,,,,0,,,46,0
23040,note_on,,,,,0,0,0,,,,,0,,,62,126
23040,note_on,,,,,0,0,0,,,,,0,,,67,126
23040,note_on,,,,,0,0,1,,,,,0,,,53,126
23040,note_on,,,,,5,0,1,,,,,0,,,43,127
23040,note_on,,,,,0,0,0,,,,,0,,,59,126
23040,note_on,,,,,0,0,1,,,,,0,,,55,126
23040,time_signature,8,4,24,8,97,1,0,,,,,,,,,
23041,control_change,,,,,1,0,1,,,64,0,0,,,,
23042,control_change,,,,,2,0,0,,,64,127,0,,,,
23078,note_on,,,,,37,0,1,,,,,0,,,43,0
23100,note_on,,,,,22,0,1,,,,,0,,,45,127
23138,note_on,,,,,38,0,1,,,,,0,,,45,0
23160,note_on,,,,,22,0,1,,,,,0,,,43,127
23198,note_on,,,,,38,0,1,,,,,0,,,43,0
23220,note_on,,,,,22,0,1,,,,,0,,,45,127
23258,note_on,,,,,38,0,1,,,,,0,,,45,0
23280,note_on,,,,,22,0,1,,,,,0,,,43,127
23318,note_on,,,,,38,0,1,,,,,0,,,43,0
23340,note_on,,,,,22,0,1,,,,,0,,,45,127
23378,note_on,,,,,38,0,1,,,,,0,,,45,0
23400,note_on,,,,,22,0,1,,,,,0,,,43,127
23438,note_on,,,,,38,0,1,,,,,0,,,43,0
23460,note_on,,,,,22,0,1,,,,,0,,,45,127
23498,note_on,,,,,38,0,1,,,,,0,,,45,0
23520,note_on,,,,,22,0,1,,,,,0,,,41,127
23558,note_on,,,,,38,0,1,,,,,0,,,41,0
23580,note_on,,,,,22,0,1,,,,,0,,,43,127
23618,note_on,,,,,38,0,1,,,,,0,,,43,0
23640,note_on,,,,,22,0,1,,,,,0,,,41,127
23678,note_on,,,,,38,0,1,,,,,0,,,41,0
23700,note_on,,,,,22,0,1,,,,,0,,,43,127
23738,note_on,,,,,38,0,1,,,,,0,,,43,0
23760,note_on,,,,,22,0,1,,,,,0,,,41,127
23798,note_on,,,,,38,0,1,,,,,0,,,41,0
23820,note_on,,,,,22,0,1,,,,,0,,,43,127
23858,note_on,,,,,38,0,1,,,,,0,,,43,0
23880,note_on,,,,,22,0,1,,,,,0,,,41,127
23918,note_on,,,,,38,0,1,,,,,0,,,41,0
23940,note_on,,,,,22,0,1,,,,,0,,,43,127
23978,note_on,,,,,38,0,1,,,,,0,,,43,0
24000,note_on,,,,,22,0,1,,,,,0,,,38,127
24038,note_on,,,,,38,0,1,,,,,0,,,38,0
24060,note_on,,,,,22,0,1,,,,,0,,,40,127
24098,note_on,,,,,38,0,1,,,,,0,,,40,0
24120,note_on,,,,,22,0,1,,,,,0,,,38,127
24158,note_on,,,,,38,0,1,,,,,0,,,38,0
24180,note_on,,,,,22,0,1,,,,,0,,,40,127
24218,note_on,,,,,38,0,1,,,,,0,,,40,0
24240,note_on,,,,,22,0,1,,,,,0,,,38,127
24278,note_on,,,,,38,0,1,,,,,0,,,38,0
24300,note_on,,,,,22,0,1,,,,,0,,,40,127
24338,note_on,,,,,38,0,1,,,,,0,,,40,0
24360,note_on,,,,,22,0,1,,,,,0,,,38,127
24398,note_on,,,,,38,0,1,,,,,0,,,38,0
24420,note_on,,,,,22,0,1,,,,,0,,,40,127
24458,note_on,,,,,38,0,1,,,,,0,,,40,0
24480,note_on,,,,,22,0,1,,,,,0,,,35,127
24518,note_on,,,,,38,0,1,,,,,0,,,35,0
24540,note_on,,,,,22,0,1,,,,,0,,,36,127
24578,note_on,,,,,38,0,1,,,,,0,,,36,0
24600,note_on,,,,,22,0,1,,,,,0,,,35,127
24638,note_on,,,,,38,0,1,,,,,0,,,35,0
24660,note_on,,,,,22,0,1,,,,,0,,,36,127
24698,note_on,,,,,38,0,1,,,,,0,,,36,0
24720,note_on,,,,,22,0,1,,,,,0,,,35,127
24758,note_on,,,,,38,0,1,,,,,0,,,35,0
24780,note_on,,,,,22,0,1,,,,,0,,,36,127
24818,note_on,,,,,38,0,1,,,,,0,,,36,0
24840,note_on,,,,,22,0,1,,,,,0,,,35,127
24878,note_on,,,,,38,0,1,,,,,0,,,35,0
24900,note_on,,,,,22,0,1,,,,,0,,,36,127
24938,note_on,,,,,38,0,1,,,,,0,,,36,0
24960,note_on,,,,,22,0,1,,,,,0,,,31,126
25014,note_on,,,,,54,0,1,,,,,0,,,31,0
25019,note_on,,,,,5,0,1,,,,,0,,,33,126
25073,note_on,,,,,54,0,1,,,,,0,,,33,0
25080,note_on,,,,,7,0,1,,,,,0,,,31,126
25134,note_on,,,,,54,0,1,,,,,0,,,31,0
25139,note_on,,,,,5,0,1,,,,,0,,,33,126
25193,note_on,,,,,54,0,1,,,,,0,,,33,0
25200,note_on,,,,,7,0,1,,,,,0,,,31,126
25254,note_on,,,,,54,0,1,,,,,0,,,31,0
25259,note_on,,,,,5,0,1,,,,,0,,,33,126
25313,note_on,,,,,54,0,1,,,,,0,,,33,0
25320,note_on,,,,,7,0,1,,,,,0,,,31,126
25374,note_on,,,,,54,0,1,,,,,0,,,31,0
25379,note_on,,,,,5,0,1,,,,,0,,,33,126
25433,note_on,,,,,54,0,1,,,,,0,,,33,0
25440,note_on,,,,,7,0,1,,,,,0,,,31,126
25494,note_on,,,,,54,0,1,,,,,0,,,31,0
25499,note_on,,,,,5,0,1,,,,,0,,,33,126
25553,note_on,,,,,54,0,1,,,,,0,,,33,0
25560,note_on,,,,,7,0,1,,,,,0,,,31,126
25614,note_on,,,,,54,0,1,,,,,0,,,31,0
25619,note_on,,,,,5,0,1,,,,,0,,,33,126
25673,note_on,,,,,54,0,1,,,,,0,,,33,0
25680,note_on,,,,,7,0,1,,,,,0,,,31,126
25734,note_on,,,,,54,0,1,,,,,0,,,31,0
25739,note_on,,,,,5,0,1,,,,,0,,,33,126
25793,note_on,,,,,54,0,1,,,,,0,,,33,0
25800,note_on,,,,,7,0,1,,,,,0,,,31,126
25854,note_on,,,,,54,0,1,,,,,0,,,31,0
25859,note_on,,,,,5,0,1,,,,,0,,,33,126
25913,note_on,,,,,54,0,1,,,,,0,,,33,0
25920,note_on,,,,,7,0,1,,,,,0,,,31,126
25974,note_on,,,,,54,0,1,,,,,0,,,31,0
25979,note_on,,,,,5,0,1,,,,,0,,,33,126
26033,note_on,,,,,54,0,1,,,,,0,,,33,0
26040,note_on,,,,,7,0,1,,,,,0,,,31,126
26094,note_on,,,,,54,0,1,,,,,0,,,31,0
26099,note_on,,,,,5,0,1,,,,,0,,,33,126
26160,note_on,,,,,61,0,1,,,,,0,,,30,111
26198,note_on,,,,,38,0,1,,,,,0,,,30,0
26280,note_on,,,,,82,0,1,,,,,0,,,31,114
26318,note_on,,,,,38,0,1,,,,,0,,,31,0
26381,note_on,,,,,63,0,1,,,,,0,,,33,0
26400,note_on,,,,,19,0,1,,,,,0,,,32,117
26438,note_on,,,,,38,0,1,,,,,0,,,32,0
26520,note_on,,,,,82,0,1,,,,,0,,,33,120
26558,note_on,,,,,38,0,1,,,,,0,,,33,0
26640,note_on,,,,,82,0,1,,,,,0,,,34,123
26678,note_on,,,,,38,0,1,,,,,0,,,34,0
26687,note_on,,,,,0,0,0,,,,,0,,,67,0
26687,note_on,,,,,3645,0,0,,,,,0,,,59,0
26687,note_on,,,,,0,0,1,,,,,0,,,55,0
26687,note_on,,,,,0,0,0,,,,,0,,,62,0
26687,note_on,,,,,9,0,1,,,,,0,,,53,0
26760,note_on,,,,,73,0,1,,,,,0,,,35,126
26798,note_on,,,,,38,0,1,,,,,0,,,35,0
26880,time_signature,4,4,24,8,193,1,0,,,,,,,,,
26880,note_on,,,,,82,0,1,,,,,0,,,36,80
26880,note_on,,,,,0,0,1,,,,,0,,,36,96
26881,control_change,,,,,1,0,0,,,64,0,0,,,,
26882,control_change,,,,,2,0,1,,,64,127,0,,,,
26999,note_on,,,,,117,0,1,,,,,0,,,36,0
27000,note_on,,,,,1,0,1,,,,,0,,,40,86
27119,note_on,,,,,119,0,1,,,,,0,,,40,0
27120,note_on,,,,,1,0,1,,,,,0,,,43,93
27239,note_on,,,,,119,0,1,,,,,0,,,43,0
27240,note_on,,,,,1,0,1,,,,,0,,,48,99
27359,note_on,,,,,0,0,1,,,,,0,,,48,0
27359,note_on,,,,,119,0,1,,,,,0,,,36,0
27360,note_on,,,,,1,0,1,,,,,0,,,52,106
27479,note_on,,,,,119,0,1,,,,,0,,,52,0
27480,note_on,,,,,1,0,1,,,,,0,,,55,112
27599,note_on,,,,,119,0,1,,,,,0,,,55,0
27600,note_on,,,,,1,0,1,,,,,0,,,60,119
27719,note_on,,,,,119,0,1,,,,,0,,,60,0
27720,note_on,,,,,1,0,1,,,,,0,,,64,126
27833,note_on,,,,,113,0,1,,,,,0,,,64,0
27840,note_on,,,,,7,0,1,,,,,0,,,56,127
27840,note_on,,,,,0,0,1,,,,,0,,,68,127
27841,control_change,,,,,1,0,1,,,64,0,0,,,,
27842,control_change,,,,,1,0,1,,,64,127,0,,,,
27960,note_on,,,,,118,0,1,,,,,0,,,71,126
28079,note_on,,,,,119,0,1,,,,,0,,,71,0
28080,note_on,,,,,1,0,1,,,,,0,,,74,126
28160,note_on,,,,,80,0,1,,,,,0,,,56,0
28160,note_on,,,,,0,0,1,,,,,0,,,68,0
28199,note_on,,,,,39,0,1,,,,,0,,,74,0
28200,note_on,,,,,1,0,1,,,,,0,,,80,126
28319,note_on,,,,,119,0,1,,,,,0,,,80,0
28320,note_on,,,,,0,0,1,,,,,0,,,55,126
28320,note_on,,,,,1,0,1,,,,,0,,,79,126
28362,note_on,,,,,42,0,1,,,,,0,,,59,126
28404,note_on,,,,,42,0,1,,,,,0,,,62,126
28439,note_on,,,,,35,0,1,,,,,0,,,79,0
28440,note_on,,,,,1,0,1,,,,,0,,,83,126
28446,note_on,,,,,6,0,1,,,,,0,,,65,126
28488,note_on,,,,,42,0,1,,,,,0,,,67,126
28559,note_on,,,,,0,0,1,,,,,0,,,83,0
28559,note_on,,,,,0,0,1,,,,,0,,,67,0
28559,note_on,,,,,0,0,1,,,,,0,,,65,0
28559,note_on,,,,,0,0,1,,,,,0,,,62,0
28559,note_on,,,,,0,0,1,,,,,0,,,59,0
28559,note_on,,,,,71,0,1,,,,,0,,,55,0
28560,note_on,,,,,1,0,1,,,,,0,,,86,126
28679,note_on,,,,,119,0,1,,,,,0,,,86,0
28680,note_on,,,,,1,0,1,,,,,0,,,91,126
28793,note_on,,,,,113,0,1,,,,,0,,,91,0
28800,note_on,,,,,7,0,1,,,,,0,,,36,126
28801,control_change,,,,,1,0,1,,,64,0,0,,,,
28802,control_change,,,,,1,0,1,,,64,127,0,,,,
28919,note_on,,,,,117,0,1,,,,,0,,,36,0
28920,note_on,,,,,1,0,1,,,,,0,,,40,126
29039,note_on,,,,,119,0,1,,,,,0,,,40,0
29040,note_on,,,,,1,0,1,,,,,0,,,43,126
29159,note_on,,,,,119,0,1,,,,,0,,,43,0
29160,note_on,,,,,1,0,1,,,,,0,,,48,126
29279,note_on,,,,,119,0,1,,,,,0,,,48,0
29280,note_on,,,,,1,0,1,,,,,0,,,52,126
29399,note_on,,,,,119,0,1,,,,,0,,,52,0
29400,note_on,,,,,1,0,1,,,,,0,,,55,126
29519,note_on,,,,,119,0,1,,,,,0,,,55,0
29520,note_on,,,,,1,0,1,,,,,0,,,60,126
29639,note_on,,,,,119,0,1,,,,,0,,,60,0
29640,note_on,,,,,1,0,1,,,,,0,,,64,126
29753,note_on,,,,,113,0,1,,,,,0,,,64,0
29760,note_on,,,,,0,0,1,,,,,0,,,68,127
29760,note_on,,,,,7,0,1,,,,,0,,,56,127
29761,control_change,,,,,1,0,1,,,64,0,0,,,,
29762,control_change,,,,,1,0,1,,,64,127,0,,,,
29880,note_on,,,,,118,0,1,,,,,0,,,71,126
29999,note_on,,,,,119,0,1,,,,,0,,,71,0
30000,note_on,,,,,1,0,1,,,,,0,,,74,126
30080,note_on,,,,,80,0,1,,,,,0,,,56,0
30080,note_on,,,,,0,0,1,,,,,0,,,68,0
30119,note_on,,,,,39,0,1,,,,,0,,,74,0
30120,note_on,,,,,1,0,1,,,,,0,,,80,126
30239,note_on,,,,,119,0,1,,,,,0,,,80,0
30240,note_on,,,,,1,0,1,,,,,0,,,79,126
30240,note_on,,,,,0,0,1,,,,,0,,,55,126
30282,note_on,,,,,42,0,1,,,,,0,,,59,126
30324,note_on,,,,,42,0,1,,,,,0,,,62,126
30359,note_on,,,,,35,0,1,,,,,0,,,79,0
30360,note_on,,,,,1,0,1,,,,,0,,,83,126
30366,note_on,,,,,6,0,1,,,,,0,,,65,126
30408,note_on,,,,,42,0,1,,,,,0,,,67,126
30479,note_on,,,,,0,0,1,,,,,0,,,62,0
30479,note_on,,,,,0,0,1,,,,,0,,,83,0
30479,note_on,,,,,71,0,1,,,,,0,,,55,0
30479,note_on,,,,,0,0,1,,,,,0,,,59,0
30479,note_on,,,,,0,0,1,,,,,0,,,65,0
30479,note_on,,,,,0,0,1,,,,,0,,,67,0
30480,note_on,,,,,1,0,1,,,,,0,,,86,126
30599,note_on,,,,,119,0,1,,,,,0,,,86,0
30600,note_on,,,,,1,0,1,,,,,0,,,91,126
30713,note_on,,,,,113,0,1,,,,,0,,,91,0
30720,note_on,,,,,7,0,1,,,,,0,,,36,126
30721,control_change,,,,,1,0,1,,,64,0,0,,,,
30722,control_change,,,,,1,0,1,,,64,127,0,,,,
30839,note_on,,,,,117,0,1,,,,,0,,,36,0
30840,note_on,,,,,1,0,1,,,,,0,,,40,126
30959,note_on,,,,,119,0,1,,,,,0,,,40,0
30960,note_on,,,,,1,0,1,,,,,0,,,43,126
31079,note_on,,,,,119,0,1,,,,,0,,,43,0
31080,note_on,,,,,1,0,1,,,,,0,,,48,126
31199,note_on,,,,,119,0,1,,,,,0,,,48,0
31200,note_on,,,,,1,0,1,,,,,0,,,52,126
31319,note_on,,,,,119,0,1,,,,,0,,,52,0
31320,note_on,,,,,1,0,1,,,,,0,,,55,126
31439,note_on,,,,,119,0,1,,,,,0,,,55,0
31440,note_on,,,,,1,0,1,,,,,0,,,60,126
31559,note_on,,,,,119,0,1,,,,,0,,,60,0
31560,note_on,,,,,1,0,1,,,,,0,,,64,126
31673,note_on,,,,,113,0,1,,,,,0,,,64,0
31680,note_on,,,,,0,0,1,,,,,0,,,69,127
31680,note_on,,,,,0,0,1,,,,,0,,,64,127
31680,note_on,,,,,0,0,1,,,,,0,,,60,127
31680,note_on,,,,,7,0,1,,,,,0,,,57,127
31681,control_change,,,,,1,0,1,,,64,0,0,,,,
31682,control_change,,,,,1,0,1,,,64,127,0,,,,
31800,note_on,,,,,118,0,1,,,,,0,,,72,126
31919,note_on,,,,,119,0,1,,,,,0,,,72,0
31920,note_on,,,,,1,0,1,,,,,0,,,76,126
32039,note_on,,,,,119,0,1,,,,,0,,,76,0
32040,note_on,,,,,1,0,1,,,,,0,,,81,126
32159,note_on,,,,,119,0,1,,,,,0,,,81,0
32160,note_on,,,,,1,0,1,,,,,0,,,84,126
32279,note_on,,,,,119,0,1,,,,,0,,,84,0
32280,note_on,,,,,1,0,1,,,,,0,,,88,126
32322,note_on,,,,,0,0,1,,,,,0,,,64,0
32322,note_on,,,,,0,0,1,,,,,0,,,69,0
32322,note_on,,,,,42,0,1,,,,,0,,,57,0
32322,note_on,,,,,0,0,1,,,,,0,,,60,0
32399,note_on,,,,,77,0,1,,,,,0,,,88,0
32400,note_on,,,,,1,0,1,,,,,0,,,93,126
32519,note_on,,,,,119,0,1,,,,,0,,,93,0
32520,note_on,,,,,1,0,1,,,,,0,,,98,126
32639,note_on,,,,,119,0,1,,,,,0,,,98,0
32640,note_on,,,,,5759,0,0,,,,,0,,,96,126
32640,note_on,,,,,0,0,1,,,,,0,,,60,127
32640,note_on,,,,,0,0,1,,,,,0,,,64,127
32640,note_on,,,,,0,0,1,,,,,0,,,67,127
32640,note_on,,,,,1,0,1,,,,,0,,,55,127
32641,control_change,,,,,1,0,1,,,64,0,0,,,,
32642,control_change,,,,,1,0,1,,,64,127,0,,,,
32753,note_on,,,,,113,0,0,,,,,0,,,96,0
32760,note_on,,,,,7,0,0,,,,,0,,,91,126
32873,note_on,,,,,113,0,0,,,,,0,,,91,0
32880,note_on,,,,,7,0,0,,,,,0,,,88,126
32993,note_on,,,,,113,0,0,,,,,0,,,88,0
33000,note_on,,,,,7,0,0,,,,,0,,,84,126
33113,note_on,,,,,113,0,0,,,,,0,,,84,0
33120,note_on,,,,,7,0,0,,,,,0,,,79,126
33233,note_on,,,,,113,0,0,,,,,0,,,79,0
33240,note_on,,,,,7,0,0,,,,,0,,,76,126
33282,note_on,,,,,0,0,1,,,,,0,,,60,0
33282,note_on,,,,,0,0,1,,,,,0,,,64,0
33282,note_on,,,,,640,0,1,,,,,0,,,55,0
33282,note_on,,,,,0,0,1,,,,,0,,,67,0
33353,note_on,,,,,113,0,0,,,,,0,,,76,0
33360,note_on,,,,,7,0,0,,,,,0,,,72,126
33473,note_on,,,,,113,0,0,,,,,0,,,72,0
33480,note_on,,,,,7,0,0,,,,,0,,,67,126
33593,note_on,,,,,113,0,0,,,,,0,,,67,0
33600,note_on,,,,,0,0,1,,,,,0,,,57,127
33600,note_on,,,,,0,0,1,,,,,0,,,64,127
33600,note_on,,,,,318,0,1,,,,,0,,,52,127
33600,note_on,,,,,0,0,1,,,,,0,,,60,127
33601,control_change,,,,,1,0,1,,,64,0,0,,,,
33602,control_change,,,,,1,0,1,,,64,127,0,,,,
33720,note_on,,,,,127,0,0,,,,,0,,,69,126
33839,note_on,,,,,119,0,0,,,,,0,,,69,0
33840,note_on,,,,,1,0,0,,,,,0,,,72,126
33959,note_on,,,,,119,0,0,,,,,0,,,72,0
33960,note_on,,,,,1,0,0,,,,,0,,,76,126
34079,note_on,,,,,119,0,0,,,,,0,,,76,0
34080,note_on,,,,,1,0,0,,,,,0,,,81,126
34199,note_on,,,,,119,0,0,,,,,0,,,81,0
34200,note_on,,,,,1,0,0,,,,,0,,,84,126
34242,note_on,,,,,0,0,1,,,,,0,,,64,0
34242,note_on,,,,,0,0,1,,,,,0,,,60,0
34242,note_on,,,,,0,0,1,,,,,0,,,57,0
34242,note_on,,,,,640,0,1,,,,,0,,,52,0
34319,note_on,,,,,119,0,0,,,,,0,,,84,0
34320,note_on,,,,,1,0,0,,,,,0,,,88,126
34439,note_on,,,,,119,0,0,,,,,0,,,88,0
34440,note_on,,,,,1,0,0,,,,,0,,,96,126
34559,note_on,,,,,119,0,0,,,,,0,,,96,0
34560,note_on,,,,,0,0,1,,,,,0,,,60,127
34560,note_on,,,,,0,0,1,,,,,0,,,55,127
34560,note_on,,,,,0,0,1,,,,,0,,,52,127
34560,note_on,,,,,318,0,1,,,,,0,,,48,127
34560,note_on,,,,,1,0,0,,,,,0,,,91,127
34561,control_change,,,,,1,0,1,,,64,0,0,,,,
34679,note_on,,,,,119,0,0,,,,,0,,,91,0
34680,note_on,,,,,1,0,0,,,,,0,,,88,127
34799,note_on,,,,,119,0,0,,,,,0,,,88,0
34800,note_on,,,,,1,0,0,,,,,0,,,84,127
34919,note_on,,,,,119,0,0,,,,,0,,,84,0
34920,note_on,,,,,1,0,0,,,,,0,,,79,127
35039,note_on,,,,,119,0,0,,,,,0,,,79,0
35040,note_on,,,,,1,0,0,,,,,0,,,76,127
35159,note_on,,,,,119,0,0,,,,,0,,,76,0
35160,note_on,,,,,1,0,0,,,,,0,,,72,127
35202,note_on,,,,,0,0,1,,,,,0,,,55,0
35202,note_on,,,,,0,0,1,,,,,0,,,60,0
35202,note_on,,,,,0,0,1,,,,,0,,,52,0
35202,note_on,,,,,641,0,1,,,,,0,,,48,0
35279,note_on,,,,,119,0,0,,,,,0,,,72,0
35280,note_on,,,,,1,0,0,,,,,0,,,67,127
35399,note_on,,,,,119,0,0,,,,,0,,,67,0
35400,note_on,,,,,1,0,0,,,,,0,,,64,127
35513,note_on,,,,,113,0,0,,,,,0,,,64,0
35520,note_on,,,,,0,0,1,,,,,0,,,57,127
35520,note_on,,,,,0,0,1,,,,,0,,,52,127
35520,note_on,,,,,318,0,1,,,,,0,,,45,127
35520,note_on,,,,,0,0,1,,,,,0,,,48,127
35640,note_on,,,,,127,0,0,,,,,0,,,60,127
35759,note_on,,,,,119,0,0,,,,,0,,,60,0
35760,note_on,,,,,1,0,0,,,,,0,,,64,127
35879,note_on,,,,,119,0,0,,,,,0,,,64,0
35880,note_on,,,,,1,0,0,,,,,0,,,69,127
35999,note_on,,,,,119,0,0,,,,,0,,,69,0
36000,note_on,,,,,1,0,0,,,,,0,,,72,127
36119,note_on,,,,,119,0,0,,,,,0,,,72,0
36120,note_on,,,,,1,0,0,,,,,0,,,76,127
36162,note_on,,,,,0,0,1,,,,,0,,,57,0
36162,note_on,,,,,0,0,1,,,,,0,,,52,0
36162,note_on,,,,,642,0,1,,,,,0,,,45,0
36162,note_on,,,,,0,0,1,,,,,0,,,48,0
36239,note_on,,,,,119,0,0,,,,,0,,,76,0
36240,note_on,,,,,1,0,0,,,,,0,,,81,127
36359,note_on,,,,,119,0,0,,,,,0,,,81,0
36360,note_on,,,,,1,0,0,,,,,0,,,88,127
36479,note_on,,,,,119,0,0,,,,,0,,,88,0
36480,note_on,,,,,0,0,1,,,,,0,,,48,127
36480,note_on,,,,,318,0,1,,,,,0,,,43,127
36480,note_on,,,,,0,0,1,,,,,0,,,55,127
36480,note_on,,,,,1,0,0,,,,,0,,,84,127
36480,note_on,,,,,0,0,1,,,,,0,,,52,127
36599,note_on,,,,,119,0,0,,,,,0,,,84,0
36600,note_on,,,,,1,0,0,,,,,0,,,79,127
36719,note_on,,,,,119,0,0,,,,,0,,,79,0
36720,note_on,,,,,1,0,0,,,,,0,,,76,127
36839,note_on,,,,,119,0,0,,,,,0,,,76,0
36840,note_on,,,,,1,0,0,,,,,0,,,72,127
36959,note_on,,,,,119,0,0,,,,,0,,,72,0
36960,note_on,,,,,1,0,0,,,,,0,,,67,127
37079,note_on,,,,,119,0,0,,,,,0,,,67,0
37080,note_on,,,,,1,0,0,,,,,0,,,64,127
37122,note_on,,,,,642,0,1,,,,,0,,,43,0
37122,note_on,,,,,0,0,1,,,,,0,,,52,0
37122,note_on,,,,,0,0,1,,,,,0,,,55,0
37122,note_on,,,,,0,0,1,,,,,0,,,48,0
37199,note_on,,,,,119,0,0,,,,,0,,,64,0
37200,note_on,,,,,1,0,0,,,,,0,,,60,127
37319,note_on,,,,,119,0,0,,,,,0,,,60,0
37320,note_on,,,,,1,0,0,,,,,0,,,55,127
37433,note_on,,,,,113,0,0,,,,,0,,,55,0
37440,note_on,,,,,0,0,1,,,,,0,,,52,127
37440,note_on,,,,,318,0,1,,,,,0,,,40,127
37440,note_on,,,,,0,0,1,,,,,0,,,45,127
37440,note_on,,,,,0,0,1,,,,,0,,,48,127
37560,note_on,,,,,127,0,0,,,,,0,,,57,127
37679,note_on,,,,,119,0,0,,,,,0,,,57,0
37680,note_on,,,,,1,0,0,,,,,0,,,60,127
37799,note_on,,,,,119,0,0,,,,,0,,,60,0
37800,note_on,,,,,1,0,0,,,,,0,,,64,127
37919,note_on,,,,,119,0,0,,,,,0,,,64,0
37920,note_on,,,,,1,0,0,,,,,0,,,69,127
38039,note_on,,,,,119,0,0,,,,,0,,,69,0
38040,note_on,,,,,1,0,0,,,,,0,,,72,127
38082,note_on,,,,,642,0,1,,,,,0,,,40,0
38082,note_on,,,,,0,0,1,,,,,0,,,52,0
38082,note_on,,,,,0,0,1,,,,,0,,,45,0
38082,note_on,,,,,0,0,1,,,,,0,,,48,0
38159,note_on,,,,,119,0,0,,,,,0,,,72,0
38160,note_on,,,,,1,0,0,,,,,0,,,76,127
38279,note_on,,,,,119,0,0,,,,,0,,,76,0
38280,note_on,,,,,1,0,0,,,,,0,,,84,127
38399,note_on,,,,,119,0,0,,,,,0,,,84,0
38400,note_on,,,,,1,0,0,,,,,0,,,79,127
38400,note_on,,,,,0,0,1,,,,,0,,,48,127
38400,note_on,,,,,0,0,1,,,,,0,,,40,127
38400,note_on,,,,,318,0,1,,,,,0,,,36,127
38400,note_on,,,,,0,0,1,,,,,0,,,43,127
38519,note_on,,,,,119,0,0,,,,,0,,,79,0
38520,note_on,,,,,1,0,0,,,,,0,,,76,127
38639,note_on,,,,,119,0,0,,,,,0,,,76,0
38640,note_on,,,,,1,0,0,,,,,0,,,72,127
38759,note_on,,,,,119,0,0,,,,,0,,,72,0
38760,note_on,,,,,1,0,0,,,,,0,,,67,127
38879,note_on,,,,,119,0,0,,,,,0,,,67,0
38880,note_on,,,,,1,0,0,,,,,0,,,64,127
38999,note_on,,,,,119,0,0,,,,,0,,,64,0
39000,note_on,,,,,1,0,0,,,,,0,,,60,127
39042,note_on,,,,,0,0,1,,,,,0,,,40,0
39042,note_on,,,,,0,0,1,,,,,0,,,43,0
39042,note_on,,,,,0,0,1,,,,,0,,,48,0
39042,note_on,,,,,642,0,1,,,,,0,,,36,0
39119,note_on,,,,,119,0,0,,,,,0,,,60,0
39120,note_on,,,,,1,0,0,,,,,0,,,55,127
39239,note_on,,,,,119,0,0,,,,,0,,,55,0
39240,note_on,,,,,1,0,0,,,,,0,,,52,127
39353,note_on,,,,,113,0,0,,,,,0,,,52,0
39360,note_on,,,,,0,0,1,,,,,0,,,40,127
39360,note_on,,,,,318,0,1,,,,,0,,,33,127
39360,note_on,,,,,0,0,1,,,,,0,,,36,127
39360,note_on,,,,,0,0,1,,,,,0,,,45,127
39480,note_on,,,,,127,0,0,,,,,0,,,48,127
39599,note_on,,,,,119,0,0,,,,,0,,,48,0
39600,note_on,,,,,1,0,0,,,,,0,,,52,127
39719,note_on,,,,,119,0,0,,,,,0,,,52,0
39720,note_on,,,,,1,0,0,,,,,0,,,57,127
39839,note_on,,,,,119,0,0,,,,,0,,,57,0
39840,note_on,,,,,1,0,0,,,,,0,,,60,127
39959,note_on,,,,,119,0,0,,,,,0,,,60,0
39960,note_on,,,,,1,0,0,,,,,0,,,64,127
40002,note_on,,,,,642,0,1,,,,,0,,,33,0
40002,note_on,,,,,0,0,1,,,,,0,,,45,0
40002,note_on,,,,,0,0,1,,,,,0,,,36,0
40002,note_on,,,,,0,0,1,,,,,0,,,40,0
40079,note_on,,,,,119,0,0,,,,,0,,,64,0
40080,note_on,,,,,1,0,0,,,,,0,,,69,127
40199,note_on,,,,,119,0,0,,,,,0,,,69,0
40200,note_on,,,,,1,0,0,,,,,0,,,76,127
40319,note_on,,,,,119,0,0,,,,,0,,,76,0
40320,note_on,,,,,0,0,1,,,,,0,,,36,127
40320,note_on,,,,,318,0,1,,,,,0,,,31,127
40320,note_on,,,,,0,0,1,,,,,0,,,43,127
40320,note_on,,,,,1,0,0,,,,,0,,,72,127
40320,note_on,,,,,0,0,1,,,,,0,,,40,127
40322,control_change,,,,,2,0,1,,,64,127,0,,,,
40439,note_on,,,,,119,0,0,,,,,0,,,72,0
40440,note_on,,,,,1,0,0,,,,,0,,,67,127
40559,note_on,,,,,119,0,0,,,,,0,,,67,0
40560,note_on,,,,,1,0,0,,,,,0,,,64,127
40679,note_on,,,,,119,0,0,,,,,0,,,64,0
40680,note_on,,,,,1,0,0,,,,,0,,,60,127
40799,note_on,,,,,119,0,0,,,,,0,,,60,0
40800,note_on,,,,,1,0,0,,,,,0,,,55,127
40919,note_on,,,,,119,0,0,,,,,0,,,55,0
40920,note_on,,,,,1,0,0,,,,,0,,,52,127
40962,note_on,,,,,0,0,1,,,,,0,,,36,0
40962,note_on,,,,,0,0,1,,,,,0,,,43,0
40962,note_on,,,,,0,0,1,,,,,0,,,40,0
40962,note_on,,,,,640,0,1,,,,,0,,,31,0
41039,note_on,,,,,119,0,0,,,,,0,,,52,0
41040,note_on,,,,,1,0,0,,,,,0,,,48,127
41159,note_on,,,,,119,0,0,,,,,0,,,48,0
41160,note_on,,,,,1,0,0,,,,,0,,,43,127
41273,note_on,,,,,113,0,0,,,,,0,,,43,0
41280,note_on,,,,,0,0,1,,,,,0,,,33,127
41280,note_on,,,,,0,0,1,,,,,0,,,36,127
41280,note_on,,,,,0,0,1,,,,,0,,,41,127
41280,note_on,,,,,318,0,1,,,,,0,,,29,127
41281,control_change,,,,,1,0,1,,,64,0,0,,,,
41282,control_change,,,,,1,0,1,,,64,127,0,,,,
41400,note_on,,,,,127,0,0,,,,,0,,,45,126
41519,note_on,,,,,119,0,0,,,,,0,,,45,0
41520,note_on,,,,,1,0,0,,,,,0,,,48,126
41639,note_on,,,,,119,0,0,,,,,0,,,48,0
41640,note_on,,,,,1,0,0,,,,,0,,,53,126
41759,note_on,,,,,119,0,0,,,,,0,,,53,0
41760,note_on,,,,,1,0,0,,,,,0,,,57,126
41879,note_on,,,,,119,0,0,,,,,0,,,57,0
41880,note_on,,,,,1,0,0,,,,,0,,,60,126
41999,note_on,,,,,119,0,0,,,,,0,,,60,0
42000,note_on,,,,,1,0,0,,,,,0,,,65,126
42119,note_on,,,,,119,0,0,,,,,0,,,65,0
42120,note_on,,,,,1,0,0,,,,,0,,,69,126
42239,note_on,,,,,119,0,0,,,,,0,,,69,0
42240,note_on,,,,,1,0,0,,,,,0,,,72,126
42335,note_on,,,,,95,0,0,,,,,0,,,72,0
42336,note_on,,,,,1,0,0,,,,,0,,,77,126
42378,note_on,,,,,0,0,1,,,,,0,,,41,0
42378,note_on,,,,,1096,0,1,,,,,0,,,29,0
42378,note_on,,,,,0,0,1,,,,,0,,,36,0
42378,note_on,,,,,0,0,1,,,,,0,,,33,0
42431,note_on,,,,,95,0,0,,,,,0,,,77,0
42432,note_on,,,,,1,0,0,,,,,0,,,81,126
42527,note_on,,,,,95,0,0,,,,,0,,,81,0
42528,note_on,,,,,1,0,0,,,,,0,,,84,126
42623,note_on,,,,,95,0,0,,,,,0,,,84,0
42624,note_on,,,,,1,0,0,,,,,0,,,89,126
42714,note_on,,,,,90,0,0,,,,,0,,,89,0
42720,set_tempo,,,,,6,1,0,,545456,,,,,,,
42720,note_on,,,,,0,0,1,,,,,0,,,41,127
42720,note_on,,,,,0,0,1,,,,,0,,,36,127
42720,note_on,,,,,0,0,1,,,,,0,,,33,127
42720,note_on,,,,,342,0,1,,,,,0,,,29,127
42720,note_on,,,,,0,0,0,,,,,0,,,84,127
42720,note_on,,,,,0,0,0,,,,,0,,,89,127
42720,note_on,,,,,0,0,0,,,,,0,,,93,127
42799,note_on,,,,,0,0,0,,,,,0,,,93,0
42799,note_on,,,,,79,0,0,,,,,0,,,84,0
42799,note_on,,,,,0,0,0,,,,,0,,,89,0
42840,note_on,,,,,41,0,0,,,,,0,,,96,126
42959,note_on,,,,,119,0,0,,,,,0,,,96,0
42960,note_on,,,,,1,0,0,,,,,0,,,89,126
43040,note_on,,,,,0,0,1,,,,,0,,,41,0
43040,note_on,,,,,0,0,1,,,,,0,,,33,0
43040,note_on,,,,,0,0,1,,,,,0,,,36,0
43040,note_on,,,,,320,0,1,,,,,0,,,29,0
43079,note_on,,,,,119,0,0,,,,,0,,,89,0
43080,note_on,,,,,1,0,0,,,,,0,,,84,126
43193,note_on,,,,,113,0,0,,,,,0,,,84,0
43200,note_on,,,,,0,0,1,,,,,0,,,69,127
43200,note_on,,,,,0,0,1,,,,,0,,,65,127
43200,note_on,,,,,0,0,1,,,,,0,,,60,127
43200,note_on,,,,,7,0,0,,,,,0,,,84,127
43200,note_on,,,,,160,0,1,,,,,0,,,57,127
43200,note_on,,,,,0,0,0,,,,,0,,,93,127
43200,note_on,,,,,0,0,0,,,,,0,,,89,127
43279,note_on,,,,,79,0,0,,,,,0,,,84,0
43279,note_on,,,,,0,0,0,,,,,0,,,93,0
43279,note_on,,,,,0,0,0,,,,,0,,,89,0
43320,note_on,,,,,41,0,0,,,,,0,,,96,126
43439,note_on,,,,,119,0,0,,,,,0,,,96,0
43440,note_on,,,,,1,0,0,,,,,0,,,89,126
43520,note_on,,,,,320,0,1,,,,,0,,,57,0
43520,note_on,,,,,0,0,1,,,,,0,,,60,0
43520,note_on,,,,,0,0,1,,,,,0,,,65,0
43520,note_on,,,,,0,0,1,,,,,0,,,69,0
43559,note_on,,,,,119,0,0,,,,,0,,,89,0
43560,note_on,,,,,1,0,0,,,,,0,,,84,126
43673,note_on,,,,,113,0,0,,,,,0,,,84,0
43680,note_on,,,,,0,0,1,,,,,0,,,33,127
43680,note_on,,,,,160,0,1,,,,,0,,,29,127
43680,note_on,,,,,0,0,1,,,,,0,,,41,127
43680,note_on,,,,,7,0,0,,,,,0,,,84,127
43680,note_on,,,,,0,0,0,,,,,0,,,89,127
43680,note_on,,,,,0,0,0,,,,,0,,,93,127
43680,note_on,,,,,0,0,1,,,,,0,,,36,127
43759,note_on,,,,,0,0,0,,,,,0,,,93,0
43759,note_on,,,,,79,0,0,,,,,0,,,84,0
43759,note_on,,,,,0,0,0,,,,,0,,,89,0
43800,note_on,,,,,41,0,0,,,,,0,,,96,126
43919,note_on,,,,,119,0,0,,,,,0,,,96,0
43920,note_on,,,,,1,0,0,,,,,0,,,89,126
44000,note_on,,,,,0,0,1,,,,,0,,,36,0
44000,note_on,,,,,0,0,1,,,,,0,,,41,0
44000,note_on,,,,,320,0,1,,,,,0,,,29,0
44000,note_on,,,,,0,0,1,,,,,0,,,33,0
44039,note_on,,,,,119,0,0,,,,,0,,,89,0
44040,note_on,,,,,1,0,0,,,,,0,,,84,126
44153,note_on,,,,,113,0,0,,,,,0,,,84,0
44160,time_signature,9,8,24,8,7,1,0,,,,,,,,,
44160,note_on,,,,,160,0,1,,,,,0,,,36,126
44161,control_change,,,,,1,0,1,,,64,0,0,,,,
44162,control_change,,,,,1,0,1,,,64,127,0,,,,
44216,note_on,,,,,54,0,1,,,,,0,,,36,0
44220,note_on,,,,,4,0,1,,,,,0,,,40,126
44276,note_on,,,,,56,0,1,,,,,0,,,40,0
44280,note_on,,,,,4,0,1,,,,,0,,,43,126
44336,note_on,,,,,56,0,1,,,,,0,,,43,0
44340,note_on,,,,,4,0,1,,,,,0,,,48,126
44396,note_on,,,,,56,0,1,,,,,0,,,48,0
44400,note_on,,,,,0,0,0,,,,,0,,,100,126
44400,note_on,,,,,0,0,0,,,,,0,,,88,126
44400,set_tempo,,,,,240,1,0,,1090911,,,,,,,
44400,note_on,,,,,4,0,1,,,,,0,,,60,126
44400,note_on,,,,,0,0,1,,,,,0,,,72,126
44400,note_on,,,,,0,0,1,,,,,0,,,67,126
44400,note_on,,,,,0,0,1,,,,,0,,,64,126
44400,note_on,,,,,0,0,0,,,,,0,,,91,126
46223,note_on,,,,,1823,0,0,,,,,0,,,88,0
46223,note_on,,,,,0,0,1,,,,,0,,,72,0
46223,note_on,,,,,0,0,1,,,,,0,,,67,0
46223,note_on,,,,,0,0,0,,,,,0,,,91,0
46223,note_on,,,,,0,0,0,,,,,0,,,100,0
46223,note_on,,,,,0,0,1,,,,,0,,,64,0
46223,note_on,,,,,1823,0,1,,,,,0,,,60,0
46319,set_tempo,,,,,96,1,0,,545456,,,,,,,
46320,control_change,,,,,97,0,1,,,64,0,0,,,,
46320,end_of_track,,,,,1,1,0,,,,,,,,,
46321,end_of_track,,,,,1,1,1,,,,,,,,,
