tick,type,time,meta,track,numerator,denominator,clocks_per_click,notated_32nd_notes_per_beat,key,tempo,port,program,channel,control,value,note,velocity
0,control_change,0,0,1,,,,,,,,,0,7,127,,
0,control_change,0,0,3,,,,,,,,,2,7,127,,
0,control_change,0,0,3,,,,,,,,,2,10,30,,
0,control_change,0,0,3,,,,,,,,,2,64,127,,
0,control_change,0,0,4,,,,,,,,,3,7,127,,
0,control_change,0,0,4,,,,,,,,,3,10,30,,
0,copyright,0,1,0,,,,,,,,,,,,,
0,key_signature,0,1,0,,,,,F,,,,,,,,
0,midi_port,0,1,1,,,,,,,0,,,,,,
0,midi_port,0,1,2,,,,,,,0,,,,,,
0,midi_port,0,1,3,,,,,,,0,,,,,,
0,midi_port,0,1,4,,,,,,,0,,,,,,
0,control_change,0,0,2,,,,,,,,,1,10,97,,
0,note_on,0,0,1,,,,,,,,,0,,,81,62
0,track_name,0,1,3,,,,,,,,,,,,,
0,program_change,0,0,1,,,,,,,,0,0,,,,
0,program_change,0,0,2,,,,,,,,0,1,,,,
0,program_change,0,0,3,,,,,,,,0,2,,,,
0,program_change,0,0,4,,,,,,,,0,3,,,,
0,set_tempo,0,1,0,,,,,,625000,,,,,,,
0,text,0,1,0,,,,,,,,,,,,,
0,time_signature,0,1,0,4,4,24,8,,,,,,,,,
0,track_name,0,1,0,,,,,,,,,,,,,
0,track_name,0,1,1,,,,,,,,,,,,,
0,track_name,0,1,2,,,,,,,,,,,,,
0,note_on,0,0,3,,,,,,,,,2,,,65,49
0,control_change,0,0,2,,,,,,,,,1,7,127,,
0,track_name,0,1,4,,,,,,,,,,,,,
0,control_change,0,0,1,,,,,,,,,0,64,127,,
0,control_change,0,0,1,,,,,,,,,0,10,97,,
1,end_of_track,0,1,5,,,,,,,,,,,,,
1,copyright,1,1,5,,,,,,,,,,,,,
80,set_tempo,80,1,0,,,,,,375000,,,,,,,
240,note_on,240,0,3,,,,,,,,,2,,,65,0
240,note_on,0,0,1,,,,,,,,,0,,,69,62
240,note_on,0,0,3,,,,,,,,,2,,,53,49
240,note_on,240,0,1,,,,,,,,,0,,,81,0
480,note_on,240,0,3,,,,,,,,,2,,,53,0
480,note_on,0,0,1,,,,,,,,,0,,,81,62
480,note_on,0,0,3,,,,,,,,,2,,,65,49
480,note_on,240,0,1,,,,,,,,,0,,,69,0
720,note_on,0,0,1,,,,,,,,,0,,,79,62
720,note_on,0,0,3,,,,,,,,,2,,,64,49
720,note_on,240,0,1,,,,,,,,,0,,,81,0
720,note_on,240,0,3,,,,,,,,,2,,,65,0
960,note_on,0,0,1,,,,,,,,,0,,,77,62
960,note_on,240,0,3,,,,,,,,,2,,,64,0
960,note_on,0,0,3,,,,,,,,,2,,,62,49
960,note_on,240,0,1,,,,,,,,,0,,,79,0
1200,note_on,240,0,1,,,,,,,,,0,,,77,0
1200,note_on,240,0,3,,,,,,,,,2,,,62,0
1200,note_on,0,0,3,,,,,,,,,2,,,53,49
1200,note_on,0,0,1,,,,,,,,,0,,,65,62
1440,note_on,0,0,1,,,,,,,,,0,,,77,62
1440,note_on,0,0,3,,,,,,,,,2,,,62,49
1440,note_on,240,0,3,,,,,,,,,2,,,53,0
1440,note_on,240,0,1,,,,,,,,,0,,,65,0
1680,note_on,0,0,1,,,,,,,,,0,,,76,62
1680,control_change,0,0,3,,,,,,,,,2,64,0,,
1680,note_on,240,0,3,,,,,,,,,2,,,62,0
1680,note_on,0,0,3,,,,,,,,,2,,,60,49
1680,control_change,0,0,1,,,,,,,,,0,64,0,,
1680,note_on,240,0,1,,,,,,,,,0,,,77,0
1920,note_on,240,0,1,,,,,,,,,0,,,76,0
1920,note_on,0,0,3,,,,,,,,,2,,,58,49
1920,control_change,0,0,1,,,,,,,,,0,64,127,,
1920,note_on,240,0,3,,,,,,,,,2,,,60,0
1920,note_on,0,0,1,,,,,,,,,0,,,74,62
1920,control_change,0,0,3,,,,,,,,,2,64,127,,
2160,note_on,0,0,3,,,,,,,,,2,,,53,49
2160,note_on,0,0,1,,,,,,,,,0,,,65,62
2160,note_on,240,0,3,,,,,,,,,2,,,58,0
2160,note_on,240,0,1,,,,,,,,,0,,,74,0
2400,note_on,0,0,3,,,,,,,,,2,,,58,49
2400,note_on,240,0,3,,,,,,,,,2,,,53,0
2400,note_on,0,0,1,,,,,,,,,0,,,74,62
2400,note_on,240,0,1,,,,,,,,,0,,,65,0
2640,note_on,0,0,3,,,,,,,,,2,,,57,49
2640,note_on,240,0,3,,,,,,,,,2,,,58,0
2640,note_on,240,0,1,,,,,,,,,0,,,74,0
2640,note_on,0,0,1,,,,,,,,,0,,,72,62
2880,note_on,240,0,3,,,,,,,,,2,,,57,0
2880,note_on,0,0,3,,,,,,,,,2,,,56,49
2880,note_on,240,0,1,,,,,,,,,0,,,72,0
2880,note_on,0,0,1,,,,,,,,,0,,,71,62
3120,note_on,0,0,1,,,,,,,,,0,,,65,62
3120,note_on,3120,0,4,,,,,,,,,3,,,55,49
3120,note_on,240,0,3,,,,,,,,,2,,,56,0
3120,note_on,240,0,1,,,,,,,,,0,,,71,0
3120,note_on,0,0,3,,,,,,,,,2,,,55,49
3360,note_on,0,0,1,,,,,,,,,0,,,76,62
3360,note_on,0,0,3,,,,,,,,,2,,,48,49
3360,note_on,240,0,1,,,,,,,,,0,,,65,0
3360,note_on,240,0,3,,,,,,,,,2,,,55,0
3360,note_on,0,0,1,,,,,,,,,0,,,72,62
3600,note_on,240,0,1,,,,,,,,,0,,,76,0
3600,control_change,0,0,3,,,,,,,,,2,64,0,,
3600,control_change,0,0,1,,,,,,,,,0,64,0,,
3600,note_on,240,0,3,,,,,,,,,2,,,48,0
3600,note_on,0,0,1,,,,,,,,,0,,,72,0
3600,note_on,0,0,1,,,,,,,,,0,,,70,62
3600,note_on,0,0,3,,,,,,,,,2,,,60,49
3840,note_on,0,0,3,,,,,,,,,2,,,53,49
3840,note_on,720,0,4,,,,,,,,,3,,,55,0
3840,note_on,0,0,1,,,,,,,,,0,,,77,62
3840,note_on,0,0,1,,,,,,,,,0,,,69,62
3840,note_on,240,0,3,,,,,,,,,2,,,60,0
3840,note_on,240,0,1,,,,,,,,,0,,,70,0
3840,control_change,0,0,3,,,,,,,,,2,64,127,,
3840,control_change,0,0,1,,,,,,,,,0,64,127,,
4080,note_on,240,0,3,,,,,,,,,2,,,53,0
4080,note_on,0,0,1,,,,,,,,,0,,,69,0
4080,note_on,240,0,1,,,,,,,,,0,,,77,0
4080,note_on,0,0,1,,,,,,,,,0,,,72,62
4080,note_on,0,0,3,,,,,,,,,2,,,57,49
4320,note_on,0,0,3,,,,,,,,,2,,,65,49
4320,note_on,240,0,3,,,,,,,,,2,,,57,0
4320,note_on,240,0,1,,,,,,,,,0,,,72,0
4320,note_on,0,0,1,,,,,,,,,0,,,81,62
4560,note_on,0,0,3,,,,,,,,,2,,,64,49
4560,note_on,0,0,1,,,,,,,,,0,,,79,62
4560,note_on,240,0,3,,,,,,,,,2,,,65,0
4560,note_on,240,0,1,,,,,,,,,0,,,81,0
4800,note_on,0,0,1,,,,,,,,,0,,,77,62
4800,note_on,240,0,1,,,,,,,,,0,,,79,0
4800,note_on,0,0,3,,,,,,,,,2,,,62,49
4800,note_on,240,0,3,,,,,,,,,2,,,64,0
5040,note_on,0,0,3,,,,,,,,,2,,,53,49
5040,note_on,240,0,1,,,,,,,,,0,,,77,0
5040,note_on,240,0,3,,,,,,,,,2,,,62,0
5040,note_on,0,0,1,,,,,,,,,0,,,65,62
5280,note_on,0,0,1,,,,,,,,,0,,,77,62
5280,note_on,0,0,3,,,,,,,,,2,,,62,49
5280,note_on,240,0,3,,,,,,,,,2,,,53,0
5280,note_on,240,0,1,,,,,,,,,0,,,65,0
5520,control_change,0,0,3,,,,,,,,,2,64,0,,
5520,note_on,240,0,1,,,,,,,,,0,,,77,0
5520,note_on,240,0,3,,,,,,,,,2,,,62,0
5520,note_on,0,0,1,,,,,,,,,0,,,76,62
5520,note_on,0,0,3,,,,,,,,,2,,,60,49
5520,control_change,0,0,1,,,,,,,,,0,64,0,,
5760,control_change,0,0,1,,,,,,,,,0,64,127,,
5760,note_on,0,0,1,,,,,,,,,0,,,74,62
5760,control_change,0,0,3,,,,,,,,,2,64,127,,
5760,note_on,240,0,1,,,,,,,,,0,,,76,0
5760,note_on,240,0,3,,,,,,,,,2,,,60,0
5760,note_on,0,0,3,,,,,,,,,2,,,58,49
6000,note_on,240,0,1,,,,,,,,,0,,,74,0
6000,note_on,0,0,3,,,,,,,,,2,,,53,49
6000,note_on,0,0,1,,,,,,,,,0,,,65,62
6000,note_on,240,0,3,,,,,,,,,2,,,58,0
6240,note_on,240,0,1,,,,,,,,,0,,,65,0
6240,note_on,240,0,3,,,,,,,,,2,,,53,0
6240,note_on,0,0,1,,,,,,,,,0,,,74,62
6240,note_on,0,0,3,,,,,,,,,2,,,58,49
6480,note_on,240,0,1,,,,,,,,,0,,,74,0
6480,note_on,0,0,1,,,,,,,,,0,,,72,62
6480,note_on,240,0,3,,,,,,,,,2,,,58,0
6480,note_on,0,0,3,,,,,,,,,2,,,57,49
6720,note_on,240,0,3,,,,,,,,,2,,,57,0
6720,note_on,240,0,1,,,,,,,,,0,,,72,0
6720,note_on,0,0,1,,,,,,,,,0,,,71,62
6720,note_on,0,0,3,,,,,,,,,2,,,56,49
6960,note_on,0,0,1,,,,,,,,,0,,,65,62
6960,note_on,0,0,3,,,,,,,,,2,,,55,49
6960,note_on,240,0,1,,,,,,,,,0,,,71,0
6960,note_on,240,0,3,,,,,,,,,2,,,56,0
6960,note_on,3120,0,4,,,,,,,,,3,,,55,49
7200,note_on,240,0,1,,,,,,,,,0,,,65,0
7200,note_on,0,0,1,,,,,,,,,0,,,72,62
7200,note_on,0,0,1,,,,,,,,,0,,,76,62
7200,note_on,240,0,3,,,,,,,,,2,,,55,0
7200,note_on,0,0,3,,,,,,,,,2,,,48,49
7440,note_on,0,0,1,,,,,,,,,0,,,70,62
7440,control_change,0,0,1,,,,,,,,,0,64,0,,
7440,note_on,240,0,1,,,,,,,,,0,,,76,0
7440,note_on,0,0,1,,,,,,,,,0,,,72,0
7440,control_change,0,0,3,,,,,,,,,2,64,0,,
7440,note_on,240,0,3,,,,,,,,,2,,,48,0
7440,note_on,0,0,3,,,,,,,,,2,,,60,49
7680,note_on,720,0,4,,,,,,,,,3,,,55,0
7680,control_change,0,0,3,,,,,,,,,2,64,127,,
7680,note_on,240,0,1,,,,,,,,,0,,,70,0
7680,note_on,240,0,3,,,,,,,,,2,,,60,0
7680,control_change,7680,0,2,,,,,,,,,1,64,127,,
7680,note_on,0,0,3,,,,,,,,,2,,,53,49
7680,note_on,0,0,2,,,,,,,,,1,,,69,62
7680,note_on,0,0,2,,,,,,,,,1,,,77,62
7920,note_on,0,0,2,,,,,,,,,1,,,72,62
7920,note_on,0,0,3,,,,,,,,,2,,,57,49
7920,note_on,240,0,3,,,,,,,,,2,,,53,0
7920,note_on,240,0,2,,,,,,,,,1,,,77,0
7920,note_on,0,0,2,,,,,,,,,1,,,69,0
8160,note_on,240,0,2,,,,,,,,,1,,,72,0
8160,note_on,0,0,3,,,,,,,,,2,,,65,49
8160,note_on,0,0,2,,,,,,,,,1,,,81,62
8160,note_on,480,0,1,,,,,,,,,0,,,81,62
8160,note_on,240,0,3,,,,,,,,,2,,,57,0
8400,note_on,0,0,2,,,,,,,,,1,,,79,62
8400,note_on,0,0,3,,,,,,,,,2,,,64,49
8400,note_on,240,0,2,,,,,,,,,1,,,81,0
8400,note_on,240,0,3,,,,,,,,,2,,,65,0
8640,note_on,240,0,3,,,,,,,,,2,,,64,0
8640,note_on,240,0,2,,,,,,,,,1,,,79,0
8640,note_on,0,0,2,,,,,,,,,1,,,77,62
8640,note_on,0,0,3,,,,,,,,,2,,,62,49
8880,note_on,240,0,3,,,,,,,,,2,,,62,0
8880,note_on,240,0,2,,,,,,,,,1,,,77,0
8880,note_on,0,0,3,,,,,,,,,2,,,57,49
8880,note_on,0,0,2,,,,,,,,,1,,,69,62
9120,note_on,0,0,3,,,,,,,,,2,,,64,49
9120,note_on,0,0,2,,,,,,,,,1,,,79,62
9120,note_on,960,0,1,,,,,,,,,0,,,81,0
9120,note_on,240,0,3,,,,,,,,,2,,,57,0
9120,note_on,240,0,2,,,,,,,,,1,,,69,0
9360,note_on,240,0,2,,,,,,,,,1,,,79,0
9360,control_change,0,0,3,,,,,,,,,2,64,0,,
9360,note_on,0,0,3,,,,,,,,,2,,,62,49
9360,control_change,0,0,2,,,,,,,,,1,64,0,,
9360,note_on,240,0,3,,,,,,,,,2,,,64,0
9360,note_on,0,0,2,,,,,,,,,1,,,77,62
9600,note_on,240,0,2,,,,,,,,,1,,,77,0
9600,note_on,240,0,3,,,,,,,,,2,,,62,0
9600,note_on,0,0,2,,,,,,,,,1,,,76,62
9600,control_change,0,0,2,,,,,,,,,1,64,127,,
9600,control_change,0,0,3,,,,,,,,,2,64,127,,
9600,note_on,0,0,3,,,,,,,,,2,,,61,49
9840,note_on,240,0,3,,,,,,,,,2,,,61,0
9840,note_on,0,0,2,,,,,,,,,1,,,69,62
9840,note_on,240,0,2,,,,,,,,,1,,,76,0
9840,note_on,0,0,3,,,,,,,,,2,,,57,49
10080,note_on,960,0,1,,,,,,,,,0,,,82,62
10080,note_on,240,0,3,,,,,,,,,2,,,57,0
10080,note_on,240,0,2,,,,,,,,,1,,,69,0
10080,note_on,0,0,3,,,,,,,,,2,,,67,49
10080,note_on,0,0,2,,,,,,,,,1,,,82,62
10320,note_on,0,0,3,,,,,,,,,2,,,65,49
10320,note_on,240,0,3,,,,,,,,,2,,,67,0
10320,note_on,240,0,2,,,,,,,,,1,,,82,0
10320,note_on,0,0,2,,,,,,,,,1,,,81,62
10560,note_on,0,0,2,,,,,,,,,1,,,79,62
10560,note_on,240,0,3,,,,,,,,,2,,,65,0
10560,note_on,0,0,3,,,,,,,,,2,,,64,49
10560,note_on,240,0,2,,,,,,,,,1,,,81,0
10800,note_on,0,0,3,,,,,,,,,2,,,57,49
10800,note_on,240,0,2,,,,,,,,,1,,,79,0
10800,note_on,240,0,3,,,,,,,,,2,,,64,0
10800,note_on,720,0,1,,,,,,,,,0,,,82,0
10800,note_on,0,0,2,,,,,,,,,1,,,69,62
10800,set_tempo,10720,1,0,,,,,,389610,,,,,,,
11040,note_on,240,0,2,,,,,,,,,1,,,69,0
11040,note_on,240,0,3,,,,,,,,,2,,,57,0
11040,note_on,0,0,3,,,,,,,,,2,,,65,49
11040,note_on,0,0,2,,,,,,,,,1,,,81,62
11040,set_tempo,240,1,0,,,,,,405405,,,,,,,
11280,set_tempo,240,1,0,,,,,,422535,,,,,,,
11280,note_on,0,0,3,,,,,,,,,2,,,64,49
11280,note_on,240,0,2,,,,,,,,,1,,,81,0
11280,control_change,0,0,2,,,,,,,,,1,64,0,,
11280,note_on,0,0,2,,,,,,,,,1,,,79,62
11280,note_on,240,0,3,,,,,,,,,2,,,65,0
11280,control_change,0,0,3,,,,,,,,,2,64,0,,
11520,set_tempo,240,1,0,,,,,,447761,,,,,,,
11520,control_change,0,0,3,,,,,,,,,2,64,127,,
11520,note_on,240,0,3,,,,,,,,,2,,,64,0
11520,note_on,240,0,2,,,,,,,,,1,,,79,0
11520,note_on,0,0,1,,,,,,,,,0,,,77,62
11520,note_on,0,0,3,,,,,,,,,2,,,62,49
11520,control_change,720,0,1,,,,,,,,,0,64,127,,
11760,note_on,0,0,1,,,,,,,,,0,,,69,62
11760,note_on,240,0,3,,,,,,,,,2,,,62,0
11760,note_on,240,0,1,,,,,,,,,0,,,77,0
11760,set_tempo,240,1,0,,,,,,468750,,,,,,,
11760,note_on,0,0,3,,,,,,,,,2,,,57,49
12000,note_on,240,0,1,,,,,,,,,0,,,69,0
12000,note_on,0,0,1,,,,,,,,,0,,,79,62
12000,note_on,240,0,3,,,,,,,,,2,,,57,0
12000,note_on,0,0,3,,,,,,,,,2,,,64,49
12000,set_tempo,240,1,0,,,,,,491803,,,,,,,
12240,note_on,0,0,3,,,,,,,,,2,,,65,49
12240,note_on,0,0,1,,,,,,,,,0,,,81,62
12240,set_tempo,240,1,0,,,,,,517241,,,,,,,
12240,note_on,240,0,1,,,,,,,,,0,,,79,0
12240,note_on,240,0,3,,,,,,,,,2,,,64,0
12480,note_on,0,0,3,,,,,,,,,2,,,65,49
12480,note_on,960,0,2,,,,,,,,,1,,,71,49
12480,note_on,240,0,1,,,,,,,,,0,,,81,0
12480,set_tempo,240,1,0,,,,,,555556,,,,,,,
12480,note_on,240,0,3,,,,,,,,,2,,,65,0
12480,note_on,4800,0,4,,,,,,,,,3,,,55,49
12480,note_on,0,0,1,,,,,,,,,0,,,81,49
12720,note_on,240,0,1,,,,,,,,,0,,,81,0
12720,note_on,0,0,1,,,,,,,,,0,,,80,49
12960,note_on,0,0,3,,,,,,,,,2,,,64,49
12960,note_on,0,0,1,,,,,,,,,0,,,79,49
12960,note_on,480,0,3,,,,,,,,,2,,,65,0
12960,note_on,240,0,1,,,,,,,,,0,,,80,0
13200,note_on,240,0,1,,,,,,,,,0,,,79,0
13200,note_on,240,0,3,,,,,,,,,2,,,64,0
13200,note_on,0,0,1,,,,,,,,,0,,,77,49
13200,note_on,0,0,3,,,,,,,,,2,,,62,49
13200,control_change,0,0,3,,,,,,,,,2,64,0,,
13200,control_change,0,0,1,,,,,,,,,0,64,0,,
13440,control_change,0,0,3,,,,,,,,,2,64,127,,
13440,note_on,0,0,1,,,,,,,,,0,,,76,62
13440,note_on,240,0,3,,,,,,,,,2,,,62,0
13440,note_on,0,0,1,,,,,,,,,0,,,72,62
13440,note_on,960,0,2,,,,,,,,,1,,,71,0
13440,note_on,960,0,4,,,,,,,,,3,,,55,0
13440,note_on,0,0,3,,,,,,,,,2,,,60,49
13440,note_on,240,0,1,,,,,,,,,0,,,77,0
13457,set_tempo,977,1,0,,,,,,375000,,,,,,,
13680,note_on,0,0,3,,,,,,,,,2,,,60,49
13680,note_on,0,0,1,,,,,,,,,0,,,72,62
13680,note_on,240,0,3,,,,,,,,,2,,,60,0
13680,note_on,240,0,1,,,,,,,,,0,,,76,0
13680,note_on,0,0,1,,,,,,,,,0,,,72,0
13920,note_on,240,0,3,,,,,,,,,2,,,60,0
13920,note_on,0,0,3,,,,,,,,,2,,,70,49
13920,note_on,240,0,1,,,,,,,,,0,,,72,0
13920,note_on,0,0,1,,,,,,,,,0,,,86,62
14160,note_on,240,0,1,,,,,,,,,0,,,86,0
14160,note_on,0,0,1,,,,,,,,,0,,,84,62
14160,note_on,240,0,3,,,,,,,,,2,,,70,0
14160,note_on,0,0,3,,,,,,,,,2,,,69,49
14400,note_on,240,0,1,,,,,,,,,0,,,84,0
14400,note_on,0,0,1,,,,,,,,,0,,,82,62
14400,note_on,240,0,3,,,,,,,,,2,,,69,0
14400,note_on,0,0,3,,,,,,,,,2,,,67,49
14447,note_on,47,0,1,,,,,,,,,0,,,82,0
14640,note_on,193,0,1,,,,,,,,,0,,,72,62
14640,note_on,240,0,3,,,,,,,,,2,,,67,0
14640,note_on,0,0,3,,,,,,,,,2,,,60,49
14880,note_on,240,0,3,,,,,,,,,2,,,60,0
14880,note_on,0,0,3,,,,,,,,,2,,,69,49
14880,note_on,0,0,1,,,,,,,,,0,,,84,62
14880,note_on,240,0,1,,,,,,,,,0,,,72,0
15120,note_on,0,0,1,,,,,,,,,0,,,82,62
15120,note_on,0,0,3,,,,,,,,,2,,,67,49
15120,control_change,0,0,3,,,,,,,,,2,64,0,,
15120,note_on,240,0,3,,,,,,,,,2,,,69,0
15120,note_on,240,0,1,,,,,,,,,0,,,84,0
15360,note_on,0,0,1,,,,,,,,,0,,,81,62
15360,control_change,0,0,3,,,,,,,,,2,64,127,,
15360,note_on,240,0,3,,,,,,,,,2,,,67,0
15360,note_on,240,0,1,,,,,,,,,0,,,82,0
15360,note_on,0,0,3,,,,,,,,,2,,,65,49
15407,note_on,47,0,1,,,,,,,,,0,,,81,0
15600,note_on,193,0,1,,,,,,,,,0,,,72,62
15600,note_on,240,0,3,,,,,,,,,2,,,65,0
15600,note_on,0,0,3,,,,,,,,,2,,,60,49
15840,note_on,240,0,3,,,,,,,,,2,,,60,0
15840,note_on,0,0,3,,,,,,,,,2,,,67,49
15840,note_on,0,0,1,,,,,,,,,0,,,82,62
15840,note_on,240,0,1,,,,,,,,,0,,,72,0
16080,note_on,240,0,1,,,,,,,,,0,,,82,0
16080,note_on,0,0,3,,,,,,,,,2,,,65,49
16080,note_on,240,0,3,,,,,,,,,2,,,67,0
16080,note_on,0,0,1,,,,,,,,,0,,,81,62
16320,note_on,0,0,1,,,,,,,,,0,,,79,62
16320,note_on,0,0,3,,,,,,,,,2,,,64,49
16320,note_on,240,0,3,,,,,,,,,2,,,65,0
16320,note_on,240,0,1,,,,,,,,,0,,,81,0
16367,note_on,47,0,1,,,,,,,,,0,,,79,0
16560,note_on,0,0,3,,,,,,,,,2,,,60,49
16560,note_on,193,0,1,,,,,,,,,0,,,72,62
16560,note_on,240,0,3,,,,,,,,,2,,,64,0
16800,note_on,0,0,3,,,,,,,,,2,,,70,49
16800,note_on,240,0,1,,,,,,,,,0,,,72,0
16800,note_on,240,0,3,,,,,,,,,2,,,60,0
16800,note_on,0,0,1,,,,,,,,,0,,,86,62
17040,note_on,0,0,1,,,,,,,,,0,,,84,62
17040,note_on,0,0,3,,,,,,,,,2,,,69,49
17040,note_on,240,0,3,,,,,,,,,2,,,70,0
17040,control_change,0,0,3,,,,,,,,,2,64,0,,
17040,note_on,240,0,1,,,,,,,,,0,,,86,0
17280,note_on,0,0,1,,,,,,,,,0,,,82,62
17280,note_on,240,0,3,,,,,,,,,2,,,69,0
17280,note_on,240,0,1,,,,,,,,,0,,,84,0
17280,note_on,0,0,3,,,,,,,,,2,,,67,49
17280,control_change,0,0,3,,,,,,,,,2,64,127,,
17327,note_on,47,0,1,,,,,,,,,0,,,82,0
17520,note_on,0,0,3,,,,,,,,,2,,,60,49
17520,note_on,240,0,3,,,,,,,,,2,,,67,0
17520,note_on,193,0,1,,,,,,,,,0,,,72,62
17760,note_on,0,0,1,,,,,,,,,0,,,84,62
17760,note_on,240,0,1,,,,,,,,,0,,,72,0
17760,note_on,240,0,3,,,,,,,,,2,,,60,0
17760,note_on,0,0,3,,,,,,,,,2,,,69,49
18000,note_on,240,0,3,,,,,,,,,2,,,69,0
18000,note_on,0,0,1,,,,,,,,,0,,,82,62
18000,note_on,240,0,1,,,,,,,,,0,,,84,0
18000,note_on,0,0,3,,,,,,,,,2,,,67,49
18240,note_on,0,0,3,,,,,,,,,2,,,65,49
18240,note_on,0,0,1,,,,,,,,,0,,,81,62
18240,note_on,240,0,1,,,,,,,,,0,,,82,0
18240,note_on,240,0,3,,,,,,,,,2,,,67,0
18287,note_on,47,0,1,,,,,,,,,0,,,81,0
18480,note_on,240,0,3,,,,,,,,,2,,,65,0
18480,note_on,193,0,1,,,,,,,,,0,,,72,62
18480,note_on,0,0,3,,,,,,,,,2,,,60,49
18720,note_on,240,0,3,,,,,,,,,2,,,60,0
18720,note_on,0,0,3,,,,,,,,,2,,,67,49
18720,note_on,240,0,1,,,,,,,,,0,,,72,0
18720,note_on,0,0,1,,,,,,,,,0,,,82,62
18960,note_on,0,0,3,,,,,,,,,2,,,65,49
18960,control_change,0,0,3,,,,,,,,,2,64,0,,
18960,note_on,240,0,3,,,,,,,,,2,,,67,0
18960,note_on,0,0,1,,,,,,,,,0,,,81,62
18960,note_on,240,0,1,,,,,,,,,0,,,82,0
19200,note_on,0,0,3,,,,,,,,,2,,,64,49
19200,note_on,240,0,1,,,,,,,,,0,,,81,0
19200,note_on,5760,0,2,,,,,,,,,1,,,79,49
19200,note_on,240,0,3,,,,,,,,,2,,,65,0
19440,note_on,240,0,1,,,,,,,,,0,,,84,62
19440,note_on,0,0,2,,,,,,,,,1,,,84,49
19440,note_on,240,0,3,,,,,,,,,2,,,64,0
19440,note_on,6000,0,4,,,,,,,,,3,,,72,49
19440,note_on,240,0,2,,,,,,,,,1,,,79,0
19440,note_on,0,0,3,,,,,,,,,2,,,72,49
19680,note_on,0,0,2,,,,,,,,,1,,,76,49
19680,note_on,240,0,2,,,,,,,,,1,,,84,0
19680,note_on,240,0,3,,,,,,,,,2,,,72,0
19680,note_on,0,0,3,,,,,,,,,2,,,60,49
19920,note_on,240,0,2,,,,,,,,,1,,,76,0
19920,note_on,240,0,3,,,,,,,,,2,,,60,0
19920,note_on,0,0,3,,,,,,,,,2,,,62,49
19920,note_on,0,0,2,,,,,,,,,1,,,77,49
20160,note_on,0,0,3,,,,,,,,,2,,,64,49
20160,note_on,240,0,3,,,,,,,,,2,,,62,0
20160,note_on,0,0,2,,,,,,,,,1,,,79,49
20160,note_on,720,0,4,,,,,,,,,3,,,72,0
20160,note_on,240,0,2,,,,,,,,,1,,,77,0
20160,note_on,720,0,1,,,,,,,,,0,,,84,0
20400,note_on,0,0,3,,,,,,,,,2,,,72,49
20400,note_on,240,0,1,,,,,,,,,0,,,84,62
20400,note_on,240,0,4,,,,,,,,,3,,,72,49
20400,note_on,0,0,2,,,,,,,,,1,,,84,49
20400,note_on,240,0,2,,,,,,,,,1,,,79,0
20400,note_on,240,0,3,,,,,,,,,2,,,64,0
20640,note_on,0,0,3,,,,,,,,,2,,,62,49
20640,note_on,0,0,2,,,,,,,,,1,,,76,49
20640,note_on,240,0,3,,,,,,,,,2,,,72,0
20640,note_on,240,0,2,,,,,,,,,1,,,84,0
20880,note_on,240,0,3,,,,,,,,,2,,,62,0
20880,note_on,240,0,2,,,,,,,,,1,,,76,0
20880,note_on,0,0,2,,,,,,,,,1,,,77,49
20880,note_on,0,0,3,,,,,,,,,2,,,64,49
21120,note_on,720,0,4,,,,,,,,,3,,,72,0
21120,note_on,0,0,3,,,,,,,,,2,,,65,49
21120,note_on,240,0,3,,,,,,,,,2,,,64,0
21120,note_on,240,0,2,,,,,,,,,1,,,77,0
21120,note_on,0,0,2,,,,,,,,,1,,,81,49
21120,note_on,720,0,1,,,,,,,,,0,,,84,0
21360,note_on,240,0,4,,,,,,,,,3,,,72,49
21360,note_on,240,0,1,,,,,,,,,0,,,84,62
21360,note_on,240,0,2,,,,,,,,,1,,,81,0
21360,note_on,0,0,2,,,,,,,,,1,,,84,49
21360,note_on,240,0,3,,,,,,,,,2,,,65,0
21360,note_on,0,0,3,,,,,,,,,2,,,72,49
21600,note_on,0,0,3,,,,,,,,,2,,,62,49
21600,note_on,0,0,2,,,,,,,,,1,,,77,49
21600,note_on,240,0,2,,,,,,,,,1,,,84,0
21600,note_on,240,0,3,,,,,,,,,2,,,72,0
21840,note_on,0,0,3,,,,,,,,,2,,,64,49
21840,note_on,0,0,2,,,,,,,,,1,,,79,49
21840,note_on,240,0,3,,,,,,,,,2,,,62,0
21840,note_on,240,0,2,,,,,,,,,1,,,77,0
22080,note_on,0,0,2,,,,,,,,,1,,,81,75
22080,note_on,720,0,1,,,,,,,,,0,,,84,0
22080,note_on,240,0,2,,,,,,,,,1,,,79,0
22080,note_on,240,0,3,,,,,,,,,2,,,64,0
22080,note_on,0,0,3,,,,,,,,,2,,,65,62
22080,note_on,720,0,4,,,,,,,,,3,,,72,0
22320,note_on,0,0,3,,,,,,,,,2,,,72,62
22320,note_on,0,0,2,,,,,,,,,1,,,84,75
22320,note_on,240,0,4,,,,,,,,,3,,,72,62
22320,note_on,240,0,1,,,,,,,,,0,,,84,75
22320,note_on,240,0,2,,,,,,,,,1,,,81,0
22320,note_on,240,0,3,,,,,,,,,2,,,65,0
22560,note_on,0,0,3,,,,,,,,,2,,,64,62
22560,note_on,0,0,2,,,,,,,,,1,,,77,75
22560,note_on,240,0,3,,,,,,,,,2,,,72,0
22560,note_on,240,0,2,,,,,,,,,1,,,84,0
22800,note_on,0,0,2,,,,,,,,,1,,,79,75
22800,note_on,240,0,2,,,,,,,,,1,,,77,0
22800,note_on,240,0,3,,,,,,,,,2,,,64,0
22800,note_on,0,0,3,,,,,,,,,2,,,65,62
23040,note_on,0,0,2,,,,,,,,,1,,,82,75
23040,note_on,720,0,1,,,,,,,,,0,,,84,0
23040,note_on,240,0,3,,,,,,,,,2,,,65,0
23040,note_on,240,0,2,,,,,,,,,1,,,79,0
23040,note_on,720,0,4,,,,,,,,,3,,,72,0
23040,note_on,0,0,3,,,,,,,,,2,,,67,62
23280,note_on,0,0,2,,,,,,,,,1,,,84,75
23280,note_on,0,0,3,,,,,,,,,2,,,72,62
23280,note_on,240,0,3,,,,,,,,,2,,,67,0
23280,note_on,240,0,1,,,,,,,,,0,,,84,75
23280,note_on,240,0,2,,,,,,,,,1,,,82,0
23520,note_on,0,0,2,,,,,,,,,1,,,79,75
23520,note_on,0,0,3,,,,,,,,,2,,,64,62
23520,note_on,240,0,3,,,,,,,,,2,,,72,0
23520,note_on,240,0,2,,,,,,,,,1,,,84,0
23760,note_on,240,0,2,,,,,,,,,1,,,79,0
23760,note_on,0,0,2,,,,,,,,,1,,,81,75
23760,note_on,240,0,3,,,,,,,,,2,,,64,0
23760,note_on,0,0,3,,,,,,,,,2,,,65,62
24000,note_on,0,0,3,,,,,,,,,2,,,67,62
24000,note_on,720,0,1,,,,,,,,,0,,,84,0
24000,note_on,0,0,2,,,,,,,,,1,,,82,75
24000,note_on,240,0,2,,,,,,,,,1,,,81,0
24000,note_on,240,0,3,,,,,,,,,2,,,65,0
24240,note_on,0,0,3,,,,,,,,,2,,,72,62
24240,note_on,0,0,2,,,,,,,,,1,,,84,75
24240,note_on,240,0,2,,,,,,,,,1,,,82,0
24240,note_on,240,0,1,,,,,,,,,0,,,84,75
24240,note_on,240,0,3,,,,,,,,,2,,,67,0
24480,note_on,0,0,3,,,,,,,,,2,,,64,62
24480,note_on,240,0,2,,,,,,,,,1,,,84,0
24480,note_on,240,0,3,,,,,,,,,2,,,72,0
24480,note_on,0,0,2,,,,,,,,,1,,,79,75
24720,note_on,0,0,3,,,,,,,,,2,,,66,62
24720,note_on,0,0,2,,,,,,,,,1,,,81,75
24720,note_on,240,0,2,,,,,,,,,1,,,79,0
24720,note_on,240,0,3,,,,,,,,,2,,,64,0
24960,control_change,0,0,1,,,,,,,,,0,64,127,,
24960,note_on,0,0,3,,,,,,,,,2,,,67,62
24960,note_on,240,0,2,,,,,,,,,1,,,81,0
24960,note_on,240,0,3,,,,,,,,,2,,,66,0
24960,note_on,0,0,1,,,,,,,,,0,,,82,75
24960,note_on,720,0,1,,,,,,,,,0,,,84,0
25200,note_on,240,0,1,,,,,,,,,0,,,82,0
25200,note_on,0,0,1,,,,,,,,,0,,,79,75
25200,note_on,0,0,1,,,,,,,,,0,,,84,75
25200,note_on,0,0,3,,,,,,,,,2,,,64,62
25200,note_on,240,0,3,,,,,,,,,2,,,67,0
25440,note_on,0,0,3,,,,,,,,,2,,,65,62
25440,note_on,240,0,3,,,,,,,,,2,,,64,0
25440,note_on,240,0,1,,,,,,,,,0,,,84,0
25440,note_on,0,0,1,,,,,,,,,0,,,79,0
25440,note_on,0,0,1,,,,,,,,,0,,,81,75
25680,note_on,240,0,3,,,,,,,,,2,,,65,0
25680,note_on,0,0,1,,,,,,,,,0,,,82,75
25680,note_on,0,0,3,,,,,,,,,2,,,62,62
25680,note_on,240,0,1,,,,,,,,,0,,,81,0
25680,note_on,0,0,1,,,,,,,,,0,,,77,75
25920,note_on,0,0,1,,,,,,,,,0,,,79,75
25920,note_on,240,0,3,,,,,,,,,2,,,62,0
25920,note_on,0,0,3,,,,,,,,,2,,,64,62
25920,note_on,240,0,1,,,,,,,,,0,,,82,0
25920,note_on,0,0,1,,,,,,,,,0,,,77,0
26160,note_on,0,0,3,,,,,,,,,2,,,60,62
26160,note_on,240,0,1,,,,,,,,,0,,,79,0
26160,note_on,0,0,1,,,,,,,,,0,,,76,75
26160,note_on,0,0,1,,,,,,,,,0,,,81,75
26160,set_tempo,12703,1,0,,,,,,389610,,,,,,,
26160,note_on,240,0,3,,,,,,,,,2,,,64,0
26400,note_on,0,0,3,,,,,,,,,2,,,62,62
26400,note_on,240,0,1,,,,,,,,,0,,,81,0
26400,note_on,0,0,1,,,,,,,,,0,,,77,75
26400,set_tempo,240,1,0,,,,,,405405,,,,,,,
26400,note_on,0,0,1,,,,,,,,,0,,,76,0
26400,note_on,240,0,3,,,,,,,,,2,,,60,0
26640,note_on,240,0,1,,,,,,,,,0,,,77,0
26640,control_change,0,0,1,,,,,,,,,0,64,0,,
26640,note_on,0,0,1,,,,,,,,,0,,,79,75
26640,set_tempo,240,1,0,,,,,,422535,,,,,,,
26640,note_on,0,0,3,,,,,,,,,2,,,59,62
26640,note_on,240,0,3,,,,,,,,,2,,,62,0
26640,note_on,0,0,1,,,,,,,,,0,,,74,75
26880,note_on,0,0,3,,,,,,,,,2,,,60,62
26880,note_on,240,0,3,,,,,,,,,2,,,59,0
26880,note_on,0,0,1,,,,,,,,,0,,,76,75
26880,set_tempo,240,1,0,,,,,,447761,,,,,,,
26880,control_change,0,0,1,,,,,,,,,0,64,127,,
26880,note_on,0,0,1,,,,,,,,,0,,,74,0
26880,note_on,240,0,1,,,,,,,,,0,,,79,0
27120,note_on,0,0,1,,,,,,,,,0,,,72,75
27120,set_tempo,240,1,0,,,,,,468750,,,,,,,
27120,note_on,0,0,3,,,,,,,,,2,,,57,62
27120,note_on,240,0,3,,,,,,,,,2,,,60,0
27120,note_on,240,0,1,,,,,,,,,0,,,76,0
27120,note_on,0,0,1,,,,,,,,,0,,,77,75
27360,note_on,240,0,1,,,,,,,,,0,,,77,0
27360,note_on,0,0,1,,,,,,,,,0,,,72,0
27360,note_on,240,0,3,,,,,,,,,2,,,57,0
27360,note_on,0,0,3,,,,,,,,,2,,,58,62
27360,note_on,0,0,1,,,,,,,,,0,,,74,75
27360,set_tempo,240,1,0,,,,,,491803,,,,,,,
27600,note_on,240,0,3,,,,,,,,,2,,,58,0
27600,note_on,0,0,1,,,,,,,,,0,,,76,75
27600,note_on,0,0,1,,,,,,,,,0,,,70,75
27600,note_on,240,0,1,,,,,,,,,0,,,74,0
27600,note_on,0,0,3,,,,,,,,,2,,,55,62
27600,set_tempo,240,1,0,,,,,,517241,,,,,,,
27840,set_tempo,240,1,0,,,,,,555556,,,,,,,
27840,note_on,240,0,3,,,,,,,,,2,,,55,0
27840,note_on,240,0,1,,,,,,,,,0,,,76,0
27840,note_on,0,0,1,,,,,,,,,0,,,70,0
27840,note_on,0,0,3,,,,,,,,,2,,,57,49
27840,note_on,0,0,1,,,,,,,,,0,,,72,62
28080,note_on,0,0,1,,,,,,,,,0,,,69,62
28080,note_on,0,0,1,,,,,,,,,0,,,74,62
28080,note_on,240,0,1,,,,,,,,,0,,,72,0
28080,note_on,240,0,3,,,,,,,,,2,,,57,0
28080,note_on,0,0,3,,,,,,,,,2,,,54,49
28320,note_on,0,0,1,,,,,,,,,0,,,69,0
28320,note_on,0,0,1,,,,,,,,,0,,,70,62
28320,note_on,0,0,3,,,,,,,,,2,,,55,49
28320,note_on,240,0,3,,,,,,,,,2,,,54,0
28320,note_on,240,0,1,,,,,,,,,0,,,74,0
28560,note_on,240,0,3,,,,,,,,,2,,,55,0
28560,control_change,0,0,1,,,,,,,,,0,64,0,,
28560,note_on,0,0,1,,,,,,,,,0,,,67,62
28560,note_on,0,0,3,,,,,,,,,2,,,52,49
28560,note_on,240,0,1,,,,,,,,,0,,,70,0
28560,note_on,0,0,1,,,,,,,,,0,,,72,62
28800,note_on,0,0,2,,,,,,,,,1,,,69,49
28800,note_on,0,0,3,,,,,,,,,2,,,65,49
28800,control_change,3840,0,2,,,,,,,,,1,64,127,,
28800,control_change,0,0,1,,,,,,,,,0,64,127,,
28800,note_on,0,0,1,,,,,,,,,0,,,81,62
28800,note_on,240,0,1,,,,,,,,,0,,,72,0
28800,note_on,240,0,3,,,,,,,,,2,,,52,0
28800,control_change,0,0,3,,,,,,,,,2,64,127,,
28800,note_on,0,0,1,,,,,,,,,0,,,67,0
28822,set_tempo,982,1,0,,,,,,375000,,,,,,,
29040,note_on,0,0,3,,,,,,,,,2,,,53,49
29040,note_on,240,0,3,,,,,,,,,2,,,65,0
29040,note_on,0,0,2,,,,,,,,,1,,,70,49
29040,note_on,240,0,2,,,,,,,,,1,,,69,0
29280,note_on,0,0,1,,,,,,,,,0,,,81,62
29280,note_on,480,0,1,,,,,,,,,0,,,81,0
29280,note_on,240,0,2,,,,,,,,,1,,,70,0
29280,note_on,240,0,3,,,,,,,,,2,,,53,0
29280,note_on,0,0,3,,,,,,,,,2,,,65,49
29280,note_on,0,0,2,,,,,,,,,1,,,72,49
29520,note_on,240,0,3,,,,,,,,,2,,,65,0
29520,note_on,0,0,2,,,,,,,,,1,,,73,49
29520,note_on,240,0,2,,,,,,,,,1,,,72,0
29520,note_on,240,0,1,,,,,,,,,0,,,81,0
29520,note_on,0,0,1,,,,,,,,,0,,,79,62
29520,note_on,0,0,3,,,,,,,,,2,,,64,49
29760,note_on,240,0,1,,,,,,,,,0,,,79,0
29760,note_on,0,0,1,,,,,,,,,0,,,77,62
29760,note_on,0,0,3,,,,,,,,,2,,,62,49
29760,note_on,0,0,2,,,,,,,,,1,,,74,49
29760,note_on,240,0,2,,,,,,,,,1,,,73,0
29760,note_on,240,0,3,,,,,,,,,2,,,64,0
30000,note_on,240,0,3,,,,,,,,,2,,,62,0
30000,note_on,0,0,1,,,,,,,,,0,,,65,62
30000,note_on,240,0,1,,,,,,,,,0,,,77,0
30000,note_on,0,0,3,,,,,,,,,2,,,53,49
30240,note_on,0,0,3,,,,,,,,,2,,,62,49
30240,note_on,0,0,1,,,,,,,,,0,,,77,62
30240,note_on,0,0,2,,,,,,,,,1,,,68,49
30240,note_on,480,0,2,,,,,,,,,1,,,74,0
30240,note_on,240,0,1,,,,,,,,,0,,,65,0
30240,note_on,240,0,3,,,,,,,,,2,,,53,0
30480,note_on,0,0,3,,,,,,,,,2,,,60,49
30480,note_on,240,0,3,,,,,,,,,2,,,62,0
30480,control_change,0,0,3,,,,,,,,,2,64,0,,
30480,note_on,240,0,2,,,,,,,,,1,,,68,0
30480,control_change,0,0,2,,,,,,,,,1,64,0,,
30480,note_on,0,0,2,,,,,,,,,1,,,69,49
30480,note_on,240,0,1,,,,,,,,,0,,,77,0
30480,note_on,0,0,1,,,,,,,,,0,,,76,62
30480,control_change,0,0,1,,,,,,,,,0,64,0,,
30720,note_on,240,0,2,,,,,,,,,1,,,69,0
30720,note_on,0,0,3,,,,,,,,,2,,,58,49
30720,note_on,240,0,1,,,,,,,,,0,,,76,0
30720,control_change,0,0,2,,,,,,,,,1,64,127,,
30720,note_on,0,0,2,,,,,,,,,1,,,70,49
30720,note_on,0,0,1,,,,,,,,,0,,,74,62
30720,control_change,0,0,1,,,,,,,,,0,64,127,,
30720,note_on,240,0,3,,,,,,,,,2,,,60,0
30720,control_change,0,0,3,,,,,,,,,2,64,127,,
30960,note_on,0,0,1,,,,,,,,,0,,,62,62
30960,note_on,240,0,3,,,,,,,,,2,,,58,0
30960,note_on,0,0,3,,,,,,,,,2,,,53,49
30960,note_on,240,0,1,,,,,,,,,0,,,74,0
31200,note_on,480,0,2,,,,,,,,,1,,,70,0
31200,note_on,240,0,3,,,,,,,,,2,,,53,0
31200,note_on,0,0,3,,,,,,,,,2,,,58,49
31200,note_on,240,0,1,,,,,,,,,0,,,62,0
31200,note_on,0,0,1,,,,,,,,,0,,,74,62
31200,note_on,0,0,2,,,,,,,,,1,,,65,49
31440,note_on,240,0,3,,,,,,,,,2,,,58,0
31440,note_on,0,0,2,,,,,,,,,1,,,66,49
31440,note_on,0,0,1,,,,,,,,,0,,,72,62
31440,note_on,240,0,1,,,,,,,,,0,,,74,0
31440,note_on,240,0,2,,,,,,,,,1,,,65,0
31440,note_on,0,0,3,,,,,,,,,2,,,57,49
31680,note_on,0,0,2,,,,,,,,,1,,,67,49
31680,note_on,240,0,3,,,,,,,,,2,,,57,0
31680,note_on,240,0,1,,,,,,,,,0,,,72,0
31680,note_on,0,0,3,,,,,,,,,2,,,55,49
31680,note_on,0,0,1,,,,,,,,,0,,,70,62
31680,note_on,240,0,2,,,,,,,,,1,,,66,0
31920,note_on,0,0,3,,,,,,,,,2,,,53,49
31920,note_on,0,0,1,,,,,,,,,0,,,71,62
31920,note_on,240,0,3,,,,,,,,,2,,,55,0
31920,note_on,0,0,1,,,,,,,,,0,,,74,62
31920,note_on,240,0,1,,,,,,,,,0,,,70,0
32160,note_on,240,0,3,,,,,,,,,2,,,53,0
32160,note_on,0,0,3,,,,,,,,,2,,,52,49
32160,control_change,0,0,2,,,,,,,,,1,64,0,,
32160,note_on,240,0,1,,,,,,,,,0,,,74,0
32160,note_on,0,0,1,,,,,,,,,0,,,71,0
32160,note_on,0,0,1,,,,,,,,,0,,,72,62
32160,note_on,0,0,1,,,,,,,,,0,,,79,62
32160,note_on,480,0,2,,,,,,,,,1,,,67,0
32400,note_on,0,0,3,,,,,,,,,2,,,55,49
32400,note_on,240,0,3,,,,,,,,,2,,,52,0
32400,note_on,0,0,3,,,,,,,,,2,,,48,49
32400,note_on,240,0,1,,,,,,,,,0,,,79,0
32400,control_change,0,0,3,,,,,,,,,2,64,0,,
32400,note_on,0,0,1,,,,,,,,,0,,,76,62
32400,note_on,0,0,1,,,,,,,,,0,,,70,62
32400,note_on,0,0,1,,,,,,,,,0,,,72,0
32400,control_change,0,0,1,,,,,,,,,0,64,0,,
32640,control_change,0,0,3,,,,,,,,,2,64,127,,
32640,note_on,0,0,3,,,,,,,,,2,,,57,49
32640,note_on,0,0,3,,,,,,,,,2,,,48,0
32640,note_on,0,0,2,,,,,,,,,1,,,69,49
32640,control_change,480,0,2,,,,,,,,,1,64,127,,
32640,note_on,240,0,1,,,,,,,,,0,,,76,0
32640,note_on,240,0,3,,,,,,,,,2,,,55,0
32640,note_on,0,0,3,,,,,,,,,2,,,53,49
32640,control_change,0,0,1,,,,,,,,,0,64,127,,
32640,note_on,0,0,1,,,,,,,,,0,,,70,0
32640,note_on,0,0,1,,,,,,,,,0,,,77,62
32880,note_on,0,0,3,,,,,,,,,2,,,53,0
32880,note_on,240,0,1,,,,,,,,,0,,,77,0
32880,note_on,240,0,3,,,,,,,,,2,,,57,0
32880,note_on,0,0,3,,,,,,,,,2,,,53,49
32880,note_on,0,0,1,,,,,,,,,0,,,72,62
33120,note_on,0,0,1,,,,,,,,,0,,,81,88
33120,note_on,0,0,1,,,,,,,,,0,,,72,88
33120,note_on,480,0,2,,,,,,,,,1,,,69,0
33120,note_on,240,0,1,,,,,,,,,0,,,72,0
33120,note_on,0,0,3,,,,,,,,,2,,,65,62
33120,note_on,0,0,2,,,,,,,,,1,,,69,75
33120,note_on,240,0,3,,,,,,,,,2,,,53,0
33360,note_on,240,0,2,,,,,,,,,1,,,69,0
33360,note_on,0,0,3,,,,,,,,,2,,,64,62
33360,note_on,0,0,3,,,,,,,,,2,,,57,62
33360,note_on,240,0,1,,,,,,,,,0,,,81,0
33360,note_on,0,0,1,,,,,,,,,0,,,72,0
33360,note_on,0,0,1,,,,,,,,,0,,,73,88
33360,note_on,0,0,1,,,,,,,,,0,,,79,88
33360,note_on,0,0,2,,,,,,,,,1,,,67,75
33360,note_on,240,0,3,,,,,,,,,2,,,65,0
33600,note_on,0,0,3,,,,,,,,,2,,,62,62
33600,note_on,0,0,1,,,,,,,,,0,,,77,88
33600,note_on,240,0,3,,,,,,,,,2,,,64,0
33600,note_on,0,0,1,,,,,,,,,0,,,74,88
33600,note_on,0,0,1,,,,,,,,,0,,,73,0
33600,note_on,0,0,3,,,,,,,,,2,,,58,62
33600,note_on,0,0,3,,,,,,,,,2,,,57,0
33600,note_on,240,0,1,,,,,,,,,0,,,79,0
33600,note_on,0,0,2,,,,,,,,,1,,,65,75
33600,note_on,240,0,2,,,,,,,,,1,,,67,0
33840,note_on,0,0,3,,,,,,,,,2,,,58,0
33840,note_on,0,0,3,,,,,,,,,2,,,50,62
33840,note_on,0,0,1,,,,,,,,,0,,,74,0
33840,note_on,0,0,1,,,,,,,,,0,,,65,88
33840,note_on,240,0,3,,,,,,,,,2,,,62,0
33840,note_on,240,0,1,,,,,,,,,0,,,77,0
34080,note_on,240,0,1,,,,,,,,,0,,,65,0
34080,note_on,0,0,2,,,,,,,,,1,,,68,75
34080,note_on,0,0,3,,,,,,,,,2,,,62,62
34080,note_on,0,0,3,,,,,,,,,2,,,59,62
34080,note_on,0,0,3,,,,,,,,,2,,,53,62
34080,note_on,480,0,2,,,,,,,,,1,,,65,0
34080,note_on,240,0,3,,,,,,,,,2,,,50,0
34080,note_on,0,0,1,,,,,,,,,0,,,77,88
34320,note_on,0,0,3,,,,,,,,,2,,,60,62
34320,note_on,0,0,3,,,,,,,,,2,,,59,0
34320,note_on,0,0,3,,,,,,,,,2,,,54,62
34320,note_on,0,0,3,,,,,,,,,2,,,53,0
34320,control_change,0,0,2,,,,,,,,,1,64,0,,
34320,note_on,240,0,3,,,,,,,,,2,,,62,0
34320,note_on,0,0,1,,,,,,,,,0,,,75,88
34320,note_on,240,0,2,,,,,,,,,1,,,68,0
34320,note_on,0,0,2,,,,,,,,,1,,,69,75
34320,control_change,0,0,1,,,,,,,,,0,64,0,,
34320,note_on,240,0,1,,,,,,,,,0,,,77,0
34320,control_change,0,0,3,,,,,,,,,2,64,0,,
34560,control_change,0,0,2,,,,,,,,,1,64,127,,
34560,note_on,0,0,1,,,,,,,,,0,,,74,88
34560,note_on,0,0,3,,,,,,,,,2,,,54,0
34560,note_on,0,0,3,,,,,,,,,2,,,55,62
34560,note_on,0,0,3,,,,,,,,,2,,,58,62
34560,note_on,0,0,2,,,,,,,,,1,,,70,75
34560,note_on,240,0,1,,,,,,,,,0,,,75,0
34560,control_change,0,0,3,,,,,,,,,2,64,127,,
34560,note_on,240,0,3,,,,,,,,,2,,,60,0
34560,control_change,0,0,1,,,,,,,,,0,64,127,,
34560,note_on,240,0,2,,,,,,,,,1,,,69,0
34800,note_on,240,0,3,,,,,,,,,2,,,58,0
34800,note_on,240,0,1,,,,,,,,,0,,,74,0
34800,note_on,0,0,3,,,,,,,,,2,,,55,0
34800,note_on,0,0,3,,,,,,,,,2,,,43,62
34800,note_on,0,0,1,,,,,,,,,0,,,62,88
35040,note_on,240,0,3,,,,,,,,,2,,,43,0
35040,note_on,240,0,1,,,,,,,,,0,,,62,0
35040,note_on,0,0,3,,,,,,,,,2,,,55,62
35040,note_on,0,0,2,,,,,,,,,1,,,70,75
35040,note_on,0,0,1,,,,,,,,,0,,,74,88
35040,note_on,480,0,2,,,,,,,,,1,,,70,0
35040,note_on,0,0,3,,,,,,,,,2,,,58,62
35280,note_on,240,0,3,,,,,,,,,2,,,58,0
35280,note_on,0,0,1,,,,,,,,,0,,,73,88
35280,note_on,0,0,3,,,,,,,,,2,,,53,62
35280,note_on,0,0,3,,,,,,,,,2,,,55,0
35280,note_on,0,0,3,,,,,,,,,2,,,56,62
35280,note_on,0,0,3,,,,,,,,,2,,,61,62
35280,note_on,240,0,2,,,,,,,,,1,,,70,0
35280,note_on,0,0,2,,,,,,,,,1,,,68,75
35280,note_on,240,0,1,,,,,,,,,0,,,74,0
35520,note_on,240,0,1,,,,,,,,,0,,,73,0
35520,note_on,0,0,1,,,,,,,,,0,,,72,88
35520,note_on,240,0,2,,,,,,,,,1,,,68,0
35520,note_on,0,0,3,,,,,,,,,2,,,56,0
35520,note_on,0,0,3,,,,,,,,,2,,,55,62
35520,note_on,240,0,3,,,,,,,,,2,,,61,0
35520,note_on,0,0,3,,,,,,,,,2,,,53,0
35520,note_on,0,0,3,,,,,,,,,2,,,52,62
35520,note_on,0,0,2,,,,,,,,,1,,,67,75
35520,note_on,0,0,3,,,,,,,,,2,,,60,62
35760,note_on,0,0,2,,,,,,,,,1,,,71,75
35760,note_on,240,0,1,,,,,,,,,0,,,72,0
35760,note_on,0,0,3,,,,,,,,,2,,,53,62
35760,note_on,0,0,3,,,,,,,,,2,,,55,0
35760,note_on,0,0,3,,,,,,,,,2,,,56,62
35760,note_on,240,0,3,,,,,,,,,2,,,60,0
35760,note_on,240,0,2,,,,,,,,,1,,,67,0
35760,note_on,0,0,1,,,,,,,,,0,,,74,88
35760,note_on,0,0,3,,,,,,,,,2,,,52,0
36000,note_on,0,0,2,,,,,,,,,1,,,72,75
36000,note_on,240,0,3,,,,,,,,,2,,,56,0
36000,note_on,240,0,2,,,,,,,,,1,,,71,0
36000,note_on,0,0,1,,,,,,,,,0,,,79,88
36000,note_on,0,0,3,,,,,,,,,2,,,55,62
36000,note_on,0,0,3,,,,,,,,,2,,,53,0
36000,note_on,0,0,3,,,,,,,,,2,,,52,62
36000,note_on,240,0,1,,,,,,,,,0,,,74,0
36240,note_on,240,0,3,,,,,,,,,2,,,55,0
36240,control_change,0,0,1,,,,,,,,,0,64,0,,
36240,note_on,240,0,1,,,,,,,,,0,,,79,0
36240,note_on,240,0,2,,,,,,,,,1,,,72,0
36240,note_on,0,0,3,,,,,,,,,2,,,60,62
36240,note_on,0,0,3,,,,,,,,,2,,,55,62
36240,note_on,0,0,3,,,,,,,,,2,,,52,0
36240,note_on,0,0,3,,,,,,,,,2,,,48,62
36240,note_on,0,0,2,,,,,,,,,1,,,70,75
36240,note_on,0,0,1,,,,,,,,,0,,,76,88
36240,control_change,0,0,2,,,,,,,,,1,64,0,,
36240,control_change,0,0,3,,,,,,,,,2,64,0,,
36480,note_on,240,0,1,,,,,,,,,0,,,76,0
36480,note_on,240,0,3,,,,,,,,,2,,,60,0
36480,note_on,0,0,2,,,,,,,,,1,,,69,75
36480,note_on,0,0,1,,,,,,,,,0,,,77,88
36480,control_change,0,0,3,,,,,,,,,2,64,127,,
36480,note_on,240,0,2,,,,,,,,,1,,,70,0
36480,note_on,0,0,3,,,,,,,,,2,,,57,62
36480,note_on,0,0,3,,,,,,,,,2,,,55,0
36480,note_on,0,0,3,,,,,,,,,2,,,48,0
36480,control_change,0,0,1,,,,,,,,,0,64,127,,
36480,note_on,0,0,3,,,,,,,,,2,,,53,62
36480,control_change,0,0,2,,,,,,,,,1,64,127,,
36960,note_on,0,0,3,,,,,,,,,2,,,53,0
36960,note_on,0,0,1,,,,,,,,,0,,,69,62
36960,note_on,480,0,1,,,,,,,,,0,,,77,0
36960,note_on,480,0,2,,,,,,,,,1,,,69,0
36960,note_on,0,0,3,,,,,,,,,2,,,53,49
36960,note_on,480,0,3,,,,,,,,,2,,,57,0
37200,note_on,0,0,1,,,,,,,,,0,,,70,62
37200,note_on,0,0,3,,,,,,,,,2,,,55,49
37200,note_on,240,0,1,,,,,,,,,0,,,69,0
37200,note_on,240,0,3,,,,,,,,,2,,,53,0
37440,note_on,240,0,3,,,,,,,,,2,,,55,0
37440,note_on,480,0,2,,,,,,,,,1,,,72,49
37440,note_on,240,0,1,,,,,,,,,0,,,70,0
37440,note_on,0,0,3,,,,,,,,,2,,,57,49
37680,note_on,0,0,2,,,,,,,,,1,,,77,49
37680,note_on,0,0,1,,,,,,,,,0,,,77,88
37680,note_on,240,0,3,,,,,,,,,2,,,57,0
37680,note_on,14640,0,4,,,,,,,,,3,,,65,49
37680,note_on,0,0,3,,,,,,,,,2,,,65,49
37680,control_change,240,0,1,,,,,,,,,0,64,0,,
37680,note_on,240,0,2,,,,,,,,,1,,,72,0
37920,note_on,0,0,3,,,,,,,,,2,,,55,49
37920,note_on,0,0,2,,,,,,,,,1,,,70,49
37920,note_on,240,0,3,,,,,,,,,2,,,65,0
37920,note_on,240,0,2,,,,,,,,,1,,,77,0
38160,note_on,240,0,3,,,,,,,,,2,,,55,0
38160,control_change,0,0,2,,,,,,,,,1,64,0,,
38160,note_on,0,0,3,,,,,,,,,2,,,57,49
38160,note_on,0,0,2,,,,,,,,,1,,,72,49
38160,note_on,240,0,2,,,,,,,,,1,,,70,0
38160,control_change,0,0,3,,,,,,,,,2,64,0,,
38400,note_on,0,0,2,,,,,,,,,1,,,74,49
38400,control_change,0,0,2,,,,,,,,,1,64,127,,
38400,note_on,240,0,2,,,,,,,,,1,,,72,0
38400,note_on,0,0,3,,,,,,,,,2,,,58,49
38400,note_on,240,0,3,,,,,,,,,2,,,57,0
38400,note_on,720,0,1,,,,,,,,,0,,,77,0
38400,control_change,0,0,3,,,,,,,,,2,64,127,,
38400,note_on,720,0,4,,,,,,,,,3,,,65,0
38640,note_on,240,0,4,,,,,,,,,3,,,65,49
38640,note_on,0,0,1,,,,,,,,,0,,,77,88
38640,note_on,0,0,2,,,,,,,,,1,,,77,49
38640,note_on,240,0,2,,,,,,,,,1,,,74,0
38640,note_on,240,0,3,,,,,,,,,2,,,58,0
38640,control_change,240,0,1,,,,,,,,,0,64,0,,
38640,note_on,0,0,3,,,,,,,,,2,,,65,49
38880,note_on,240,0,2,,,,,,,,,1,,,77,0
38880,note_on,240,0,3,,,,,,,,,2,,,65,0
38880,note_on,0,0,3,,,,,,,,,2,,,55,49
38880,note_on,0,0,2,,,,,,,,,1,,,70,49
39120,note_on,0,0,2,,,,,,,,,1,,,72,49
39120,note_on,240,0,2,,,,,,,,,1,,,70,0
39120,note_on,240,0,3,,,,,,,,,2,,,55,0
39120,note_on,0,0,3,,,,,,,,,2,,,57,49
39360,note_on,0,0,3,,,,,,,,,2,,,58,49
39360,note_on,720,0,1,,,,,,,,,0,,,77,0
39360,note_on,0,0,2,,,,,,,,,1,,,74,49
39360,note_on,720,0,4,,,,,,,,,3,,,65,0
39360,note_on,240,0,2,,,,,,,,,1,,,72,0
39360,note_on,240,0,3,,,,,,,,,2,,,57,0
39600,control_change,240,0,1,,,,,,,,,0,64,0,,
39600,note_on,240,0,2,,,,,,,,,1,,,74,0
39600,note_on,240,0,3,,,,,,,,,2,,,58,0
39600,note_on,0,0,1,,,,,,,,,0,,,77,88
39600,note_on,0,0,3,,,,,,,,,2,,,65,49
39600,note_on,240,0,4,,,,,,,,,3,,,65,49
39600,note_on,0,0,2,,,,,,,,,1,,,77,49
39840,note_on,240,0,2,,,,,,,,,1,,,77,0
39840,note_on,0,0,2,,,,,,,,,1,,,72,49
39840,note_on,0,0,3,,,,,,,,,2,,,57,49
39840,note_on,240,0,3,,,,,,,,,2,,,65,0
40080,control_change,0,0,2,,,,,,,,,1,64,0,,
40080,control_change,0,0,3,,,,,,,,,2,64,0,,
40080,note_on,240,0,2,,,,,,,,,1,,,72,0
40080,note_on,0,0,2,,,,,,,,,1,,,74,49
40080,note_on,0,0,3,,,,,,,,,2,,,58,49
40080,note_on,240,0,3,,,,,,,,,2,,,57,0
40320,note_on,240,0,2,,,,,,,,,1,,,74,0
40320,control_change,0,0,1,,,,,,,,,0,64,127,,
40320,note_on,0,0,1,,,,,,,,,0,,,75,62
40320,note_on,720,0,1,,,,,,,,,0,,,77,0
40320,note_on,0,0,3,,,,,,,,,2,,,60,49
40320,control_change,0,0,3,,,,,,,,,2,64,127,,
40320,note_on,240,0,3,,,,,,,,,2,,,58,0
40320,note_on,720,0,4,,,,,,,,,3,,,65,0
40560,note_on,240,0,3,,,,,,,,,2,,,60,0
40560,note_on,240,0,1,,,,,,,,,0,,,75,0
40560,note_on,0,0,3,,,,,,,,,2,,,65,49
40560,note_on,0,0,1,,,,,,,,,0,,,77,62
40800,note_on,240,0,1,,,,,,,,,0,,,77,0
40800,note_on,0,0,1,,,,,,,,,0,,,72,62
40800,note_on,240,0,3,,,,,,,,,2,,,65,0
40800,note_on,0,0,3,,,,,,,,,2,,,57,49
41040,note_on,0,0,1,,,,,,,,,0,,,74,62
41040,note_on,240,0,3,,,,,,,,,2,,,57,0
41040,note_on,0,0,3,,,,,,,,,2,,,58,49
41040,note_on,240,0,1,,,,,,,,,0,,,72,0
41280,control_change,0,0,3,,,,,,,,,2,64,0,,
41280,note_on,0,0,3,,,,,,,,,2,,,66,49
41280,note_on,960,0,4,,,,,,,,,3,,,60,49
41280,note_on,240,0,3,,,,,,,,,2,,,58,0
41280,note_on,240,0,1,,,,,,,,,0,,,74,0
41280,note_on,0,0,1,,,,,,,,,0,,,78,62
41280,note_on,960,0,2,,,,,,,,,1,,,75,49
41360,note_on,80,0,1,,,,,,,,,0,,,78,0
41360,note_on,0,0,1,,,,,,,,,0,,,79,62
41439,note_on,79,0,1,,,,,,,,,0,,,79,0
41439,note_on,0,0,1,,,,,,,,,0,,,78,62
41520,note_on,0,0,4,,,,,,,,,3,,,59,49
41520,note_on,81,0,1,,,,,,,,,0,,,78,0
41520,note_on,0,0,1,,,,,,,,,0,,,79,62
41520,note_on,240,0,4,,,,,,,,,3,,,60,0
41600,note_on,80,0,1,,,,,,,,,0,,,79,0
41600,note_on,0,0,1,,,,,,,,,0,,,78,62
41679,note_on,0,0,1,,,,,,,,,0,,,79,62
41679,note_on,79,0,1,,,,,,,,,0,,,78,0
41760,note_on,480,0,2,,,,,,,,,1,,,75,0
41760,note_on,0,0,1,,,,,,,,,0,,,78,62
41760,note_on,0,0,2,,,,,,,,,1,,,74,49
41760,note_on,0,0,4,,,,,,,,,3,,,60,49
41760,note_on,240,0,4,,,,,,,,,3,,,59,0
41760,note_on,81,0,1,,,,,,,,,0,,,79,0
41840,note_on,0,0,1,,,,,,,,,0,,,79,62
41840,note_on,80,0,1,,,,,,,,,0,,,78,0
41919,note_on,0,0,1,,,,,,,,,0,,,78,62
41919,note_on,79,0,1,,,,,,,,,0,,,79,0
42000,note_on,240,0,2,,,,,,,,,1,,,74,0
42000,note_on,0,0,1,,,,,,,,,0,,,76,62
42000,note_on,0,0,2,,,,,,,,,1,,,72,49
42000,note_on,240,0,4,,,,,,,,,3,,,60,0
42000,note_on,0,0,4,,,,,,,,,3,,,56,49
42000,note_on,81,0,1,,,,,,,,,0,,,78,0
42000,control_change,0,0,2,,,,,,,,,1,64,0,,
42120,control_change,0,0,1,,,,,,,,,0,64,0,,
42120,note_on,0,0,1,,,,,,,,,0,,,78,62
42120,note_on,120,0,1,,,,,,,,,0,,,76,0
42240,note_on,120,0,1,,,,,,,,,0,,,78,0
42240,control_change,0,0,3,,,,,,,,,2,64,127,,
42240,note_on,960,0,3,,,,,,,,,2,,,66,0
42240,note_on,240,0,2,,,,,,,,,1,,,72,0
42240,note_on,240,0,4,,,,,,,,,3,,,56,0
42240,note_on,0,0,3,,,,,,,,,2,,,67,49
42240,note_on,0,0,3,,,,,,,,,2,,,55,49
42240,note_on,0,0,1,,,,,,,,,0,,,71,75
42240,control_change,0,0,1,,,,,,,,,0,64,127,,
42240,note_on,0,0,1,,,,,,,,,0,,,79,75
42720,note_on,0,0,1,,,,,,,,,0,,,71,0
42720,note_on,0,0,3,,,,,,,,,2,,,55,0
42720,note_on,480,0,3,,,,,,,,,2,,,67,0
42720,note_on,0,0,3,,,,,,,,,2,,,55,49
42720,note_on,0,0,1,,,,,,,,,0,,,71,75
42720,note_on,480,0,1,,,,,,,,,0,,,79,0
42960,note_on,0,0,1,,,,,,,,,0,,,72,75
42960,note_on,0,0,3,,,,,,,,,2,,,57,49
42960,note_on,240,0,3,,,,,,,,,2,,,55,0
42960,note_on,240,0,1,,,,,,,,,0,,,71,0
43200,note_on,0,0,3,,,,,,,,,2,,,59,49
43200,note_on,240,0,3,,,,,,,,,2,,,57,0
43200,note_on,0,0,1,,,,,,,,,0,,,74,75
43200,note_on,240,0,1,,,,,,,,,0,,,72,0
43440,note_on,1200,0,4,,,,,,,,,3,,,67,49
43440,note_on,0,0,2,,,,,,,,,1,,,79,49
43440,note_on,0,0,3,,,,,,,,,2,,,67,49
43440,control_change,1200,0,2,,,,,,,,,1,64,127,,
43440,note_on,240,0,3,,,,,,,,,2,,,59,0
43440,note_on,0,0,1,,,,,,,,,0,,,79,75
43440,control_change,0,0,1,,,,,,,,,0,64,0,,
43440,note_on,240,0,1,,,,,,,,,0,,,74,0
43680,note_on,0,0,2,,,,,,,,,1,,,72,49
43680,note_on,240,0,2,,,,,,,,,1,,,79,0
43680,note_on,240,0,3,,,,,,,,,2,,,67,0
43680,note_on,0,0,3,,,,,,,,,2,,,57,49
43920,note_on,240,0,2,,,,,,,,,1,,,72,0
43920,control_change,0,0,2,,,,,,,,,1,64,0,,
43920,control_change,0,0,3,,,,,,,,,2,64,0,,
43920,note_on,240,0,3,,,,,,,,,2,,,57,0
43920,note_on,0,0,3,,,,,,,,,2,,,59,49
43920,note_on,0,0,2,,,,,,,,,1,,,74,49
44160,note_on,0,0,2,,,,,,,,,1,,,76,49
44160,note_on,240,0,2,,,,,,,,,1,,,74,0
44160,control_change,0,0,3,,,,,,,,,2,64,127,,
44160,note_on,240,0,3,,,,,,,,,2,,,59,0
44160,control_change,0,0,2,,,,,,,,,1,64,127,,
44160,note_on,720,0,4,,,,,,,,,3,,,67,0
44160,note_on,0,0,3,,,,,,,,,2,,,60,49
44160,note_on,720,0,1,,,,,,,,,0,,,79,0
44400,note_on,240,0,2,,,,,,,,,1,,,76,0
44400,note_on,240,0,3,,,,,,,,,2,,,60,0
44400,note_on,240,0,1,,,,,,,,,0,,,79,75
44400,note_on,0,0,3,,,,,,,,,2,,,67,49
44400,note_on,240,0,4,,,,,,,,,3,,,67,49
44400,note_on,0,0,2,,,,,,,,,1,,,79,49
44640,note_on,0,0,2,,,,,,,,,1,,,72,49
44640,note_on,240,0,2,,,,,,,,,1,,,79,0
44640,note_on,240,0,3,,,,,,,,,2,,,67,0
44640,note_on,0,0,3,,,,,,,,,2,,,57,49
44880,note_on,0,0,2,,,,,,,,,1,,,74,49
44880,note_on,240,0,3,,,,,,,,,2,,,57,0
44880,note_on,240,0,2,,,,,,,,,1,,,72,0
44880,note_on,0,0,3,,,,,,,,,2,,,59,49
45120,note_on,720,0,1,,,,,,,,,0,,,79,0
45120,note_on,720,0,4,,,,,,,,,3,,,67,0
45120,note_on,0,0,2,,,,,,,,,1,,,76,49
45120,note_on,240,0,2,,,,,,,,,1,,,74,0
45120,note_on,240,0,3,,,,,,,,,2,,,59,0
45120,note_on,0,0,3,,,,,,,,,2,,,60,49
45360,note_on,240,0,4,,,,,,,,,3,,,67,49
45360,note_on,240,0,1,,,,,,,,,0,,,79,75
45360,note_on,240,0,3,,,,,,,,,2,,,60,0
45360,note_on,240,0,2,,,,,,,,,1,,,76,0
45360,note_on,0,0,3,,,,,,,,,2,,,67,49
45360,note_on,0,0,2,,,,,,,,,1,,,79,49
45600,note_on,0,0,3,,,,,,,,,2,,,59,49
45600,note_on,240,0,2,,,,,,,,,1,,,79,0
45600,note_on,240,0,3,,,,,,,,,2,,,67,0
45600,note_on,0,0,2,,,,,,,,,1,,,74,49
45840,note_on,0,0,3,,,,,,,,,2,,,60,49
45840,note_on,0,0,2,,,,,,,,,1,,,76,49
45840,note_on,240,0,3,,,,,,,,,2,,,59,0
45840,note_on,240,0,2,,,,,,,,,1,,,74,0
45840,control_change,0,0,3,,,,,,,,,2,64,0,,
45840,control_change,0,0,2,,,,,,,,,1,64,0,,
46080,note_on,0,0,2,,,,,,,,,1,,,77,49
46080,note_on,240,0,2,,,,,,,,,1,,,76,0
46080,note_on,240,0,3,,,,,,,,,2,,,60,0
46080,note_on,720,0,1,,,,,,,,,0,,,79,0
46080,note_on,720,0,4,,,,,,,,,3,,,67,0
46080,note_on,0,0,3,,,,,,,,,2,,,62,49
46320,note_on,240,0,2,,,,,,,,,1,,,77,0
46320,note_on,0,0,2,,,,,,,,,1,,,79,49
46320,note_on,240,0,4,,,,,,,,,3,,,67,49
46320,note_on,240,0,1,,,,,,,,,0,,,79,75
46320,note_on,0,0,3,,,,,,,,,2,,,67,49
46320,note_on,240,0,3,,,,,,,,,2,,,62,0
46560,note_on,0,0,2,,,,,,,,,1,,,74,49
46560,note_on,0,0,3,,,,,,,,,2,,,59,49
46560,note_on,240,0,2,,,,,,,,,1,,,79,0
46560,note_on,240,0,3,,,,,,,,,2,,,67,0
46800,note_on,0,0,2,,,,,,,,,1,,,76,49
46800,note_on,0,0,3,,,,,,,,,2,,,60,49
46800,note_on,240,0,2,,,,,,,,,1,,,74,0
46800,note_on,240,0,3,,,,,,,,,2,,,59,0
47040,note_on,720,0,1,,,,,,,,,0,,,79,0
47040,note_on,720,0,4,,,,,,,,,3,,,67,0
47040,note_on,0,0,4,,,,,,,,,3,,,62,49
47040,note_on,240,0,2,,,,,,,,,1,,,76,0
47040,note_on,0,0,2,,,,,,,,,1,,,77,49
47040,note_on,240,0,3,,,,,,,,,2,,,60,0
47040,note_on,0,0,3,,,,,,,,,2,,,68,49
47040,note_on,0,0,1,,,,,,,,,0,,,80,75
47120,note_on,0,0,1,,,,,,,,,0,,,81,75
47120,note_on,80,0,1,,,,,,,,,0,,,80,0
47199,note_on,0,0,1,,,,,,,,,0,,,80,75
47199,note_on,79,0,1,,,,,,,,,0,,,81,0
47280,note_on,81,0,1,,,,,,,,,0,,,80,0
47280,note_on,240,0,4,,,,,,,,,3,,,62,0
47280,note_on,0,0,1,,,,,,,,,0,,,81,75
47280,note_on,0,0,4,,,,,,,,,3,,,61,49
47360,note_on,0,0,1,,,,,,,,,0,,,80,75
47360,note_on,80,0,1,,,,,,,,,0,,,81,0
47439,note_on,0,0,1,,,,,,,,,0,,,81,75
47439,note_on,79,0,1,,,,,,,,,0,,,80,0
47520,note_on,480,0,2,,,,,,,,,1,,,77,0
47520,note_on,0,0,1,,,,,,,,,0,,,80,75
47520,note_on,0,0,2,,,,,,,,,1,,,76,49
47520,note_on,81,0,1,,,,,,,,,0,,,81,0
47520,note_on,0,0,4,,,,,,,,,3,,,62,49
47520,note_on,240,0,4,,,,,,,,,3,,,61,0
47600,note_on,0,0,1,,,,,,,,,0,,,81,75
47600,note_on,80,0,1,,,,,,,,,0,,,80,0
47679,note_on,79,0,1,,,,,,,,,0,,,81,0
47679,note_on,0,0,1,,,,,,,,,0,,,80,75
47760,note_on,240,0,4,,,,,,,,,3,,,62,0
47760,note_on,81,0,1,,,,,,,,,0,,,80,0
47760,note_on,0,0,4,,,,,,,,,3,,,58,49
47760,note_on,0,0,2,,,,,,,,,1,,,74,49
47760,note_on,0,0,1,,,,,,,,,0,,,78,75
47760,note_on,240,0,2,,,,,,,,,1,,,76,0
47880,note_on,120,0,1,,,,,,,,,0,,,78,0
47880,note_on,0,0,1,,,,,,,,,0,,,80,75
48000,note_on,960,0,3,,,,,,,,,2,,,68,0
48000,note_on,120,0,1,,,,,,,,,0,,,80,0
48000,note_on,0,0,1,,,,,,,,,0,,,81,62
48000,note_on,0,0,3,,,,,,,,,2,,,57,49
48000,note_on,0,0,3,,,,,,,,,2,,,69,49
48000,note_on,0,0,1,,,,,,,,,0,,,73,62
48000,note_on,240,0,4,,,,,,,,,3,,,58,0
48000,note_on,240,0,2,,,,,,,,,1,,,74,0
48480,note_on,480,0,3,,,,,,,,,2,,,69,0
48480,note_on,0,0,1,,,,,,,,,0,,,73,0
48480,note_on,0,0,1,,,,,,,,,0,,,73,62
48480,note_on,0,0,3,,,,,,,,,2,,,57,0
48480,note_on,0,0,3,,,,,,,,,2,,,57,49
48480,note_on,480,0,1,,,,,,,,,0,,,81,0
48720,note_on,240,0,3,,,,,,,,,2,,,57,0
48720,note_on,240,0,1,,,,,,,,,0,,,73,0
48720,note_on,0,0,1,,,,,,,,,0,,,74,62
48720,note_on,0,0,3,,,,,,,,,2,,,59,49
48960,note_on,240,0,1,,,,,,,,,0,,,74,0
48960,note_on,0,0,1,,,,,,,,,0,,,76,62
48960,note_on,240,0,3,,,,,,,,,2,,,59,0
48960,note_on,0,0,3,,,,,,,,,2,,,61,49
49200,note_on,0,0,3,,,,,,,,,2,,,69,49
49200,note_on,0,0,1,,,,,,,,,0,,,81,62
49200,note_on,240,0,1,,,,,,,,,0,,,76,0
49200,note_on,240,0,3,,,,,,,,,2,,,61,0
49440,note_on,0,0,1,,,,,,,,,0,,,74,62
49440,note_on,240,0,3,,,,,,,,,2,,,69,0
49440,note_on,240,0,1,,,,,,,,,0,,,81,0
49440,note_on,0,0,3,,,,,,,,,2,,,59,49
49680,note_on,240,0,1,,,,,,,,,0,,,74,0
49680,note_on,0,0,3,,,,,,,,,2,,,61,49
49680,note_on,0,0,1,,,,,,,,,0,,,76,62
49680,note_on,240,0,3,,,,,,,,,2,,,59,0
49920,note_on,0,0,3,,,,,,,,,2,,,62,49
49920,note_on,0,0,1,,,,,,,,,0,,,77,62
49920,note_on,240,0,3,,,,,,,,,2,,,61,0
49920,note_on,240,0,1,,,,,,,,,0,,,76,0
50160,note_on,0,0,1,,,,,,,,,0,,,81,62
50160,note_on,240,0,3,,,,,,,,,2,,,62,0
50160,note_on,240,0,1,,,,,,,,,0,,,77,0
50160,note_on,0,0,3,,,,,,,,,2,,,69,49
50400,note_on,240,0,1,,,,,,,,,0,,,81,0
50400,note_on,0,0,1,,,,,,,,,0,,,74,62
50400,note_on,240,0,3,,,,,,,,,2,,,69,0
50400,note_on,0,0,3,,,,,,,,,2,,,59,49
50640,note_on,240,0,1,,,,,,,,,0,,,74,0
50640,note_on,240,0,3,,,,,,,,,2,,,59,0
50640,note_on,0,0,3,,,,,,,,,2,,,61,49
50640,note_on,0,0,1,,,,,,,,,0,,,76,62
50880,note_on,0,0,1,,,,,,,,,0,,,77,62
50880,note_on,240,0,1,,,,,,,,,0,,,76,0
50880,note_on,0,0,3,,,,,,,,,2,,,62,49
50880,note_on,240,0,3,,,,,,,,,2,,,61,0
51120,note_on,240,0,1,,,,,,,,,0,,,77,0
51120,note_on,240,0,3,,,,,,,,,2,,,62,0
51120,note_on,0,0,1,,,,,,,,,0,,,81,62
51120,note_on,0,0,3,,,,,,,,,2,,,69,49
51360,note_on,240,0,3,,,,,,,,,2,,,69,0
51360,note_on,0,0,1,,,,,,,,,0,,,74,62
51360,note_on,0,0,3,,,,,,,,,2,,,61,49
51360,note_on,240,0,1,,,,,,,,,0,,,81,0
51600,note_on,0,0,3,,,,,,,,,2,,,62,49
51600,note_on,240,0,3,,,,,,,,,2,,,61,0
51600,note_on,0,0,1,,,,,,,,,0,,,76,62
51600,note_on,240,0,1,,,,,,,,,0,,,74,0
51840,note_on,0,0,3,,,,,,,,,2,,,64,49
51840,note_on,240,0,3,,,,,,,,,2,,,62,0
51840,note_on,240,0,1,,,,,,,,,0,,,76,0
51840,note_on,0,0,1,,,,,,,,,0,,,79,62
52080,note_on,240,0,1,,,,,,,,,0,,,79,0
52080,set_tempo,23258,1,0,,,,,,389610,,,,,,,
52080,note_on,0,0,3,,,,,,,,,2,,,69,49
52080,note_on,240,0,3,,,,,,,,,2,,,64,0
52080,note_on,0,0,1,,,,,,,,,0,,,81,62
52320,note_on,0,0,1,,,,,,,,,0,,,76,62
52320,note_on,0,0,3,,,,,,,,,2,,,61,49
52320,note_on,240,0,1,,,,,,,,,0,,,81,0
52320,note_on,240,0,3,,,,,,,,,2,,,69,0
52320,set_tempo,240,1,0,,,,,,405405,,,,,,,
52560,note_on,240,0,1,,,,,,,,,0,,,76,0
52560,note_on,240,0,3,,,,,,,,,2,,,61,0
52560,note_on,0,0,1,,,,,,,,,0,,,77,62
52560,note_on,0,0,3,,,,,,,,,2,,,62,49
52560,set_tempo,240,1,0,,,,,,422535,,,,,,,
52800,set_tempo,240,1,0,,,,,,447761,,,,,,,
52800,note_on,0,0,3,,,,,,,,,2,,,64,49
52800,note_on,0,0,1,,,,,,,,,0,,,79,62
52800,note_on,240,0,1,,,,,,,,,0,,,77,0
52800,note_on,240,0,3,,,,,,,,,2,,,62,0
53040,note_on,0,0,1,,,,,,,,,0,,,81,62
53040,note_on,240,0,1,,,,,,,,,0,,,79,0
53040,note_on,240,0,3,,,,,,,,,2,,,64,0
53040,set_tempo,240,1,0,,,,,,468750,,,,,,,
53040,note_on,0,0,3,,,,,,,,,2,,,69,49
53280,note_on,240,0,3,,,,,,,,,2,,,69,0
53280,note_on,0,0,3,,,,,,,,,2,,,61,49
53280,note_on,0,0,1,,,,,,,,,0,,,76,62
53280,note_on,240,0,1,,,,,,,,,0,,,81,0
53280,set_tempo,240,1,0,,,,,,491803,,,,,,,
53520,note_on,240,0,3,,,,,,,,,2,,,61,0
53520,note_on,240,0,1,,,,,,,,,0,,,76,0
53520,note_on,0,0,1,,,,,,,,,0,,,77,62
53520,set_tempo,240,1,0,,,,,,517241,,,,,,,
53520,note_on,0,0,3,,,,,,,,,2,,,62,49
53760,note_on,0,0,1,,,,,,,,,0,,,78,62
53760,note_on,240,0,1,,,,,,,,,0,,,77,0
53760,set_tempo,240,1,0,,,,,,555556,,,,,,,
53760,note_on,240,0,3,,,,,,,,,2,,,62,0
53760,note_on,0,0,3,,,,,,,,,2,,,63,49
54000,note_on,0,0,1,,,,,,,,,0,,,81,62
54000,note_on,240,0,3,,,,,,,,,2,,,63,0
54000,note_on,240,0,1,,,,,,,,,0,,,78,0
54000,note_on,0,0,3,,,,,,,,,2,,,69,49
54240,note_on,240,0,1,,,,,,,,,0,,,81,0
54240,note_on,0,0,3,,,,,,,,,2,,,60,49
54240,note_on,0,0,1,,,,,,,,,0,,,75,62
54240,note_on,240,0,3,,,,,,,,,2,,,69,0
54480,note_on,0,0,3,,,,,,,,,2,,,62,49
54480,note_on,240,0,1,,,,,,,,,0,,,75,0
54480,note_on,240,0,3,,,,,,,,,2,,,60,0
54480,note_on,0,0,1,,,,,,,,,0,,,77,62
54720,note_on,0,0,3,,,,,,,,,2,,,63,49
54720,note_on,6720,0,2,,,,,,,,,1,,,79,49
54720,note_on,240,0,3,,,,,,,,,2,,,62,0
54720,note_on,0,0,1,,,,,,,,,0,,,79,62
54720,note_on,240,0,1,,,,,,,,,0,,,77,0
54809,set_tempo,1049,1,0,,,,,,375000,,,,,,,
54960,note_on,6960,0,4,,,,,,,,,3,,,53,49
54960,note_on,240,0,2,,,,,,,,,1,,,79,0
54960,note_on,0,0,2,,,,,,,,,1,,,69,49
55200,note_on,0,0,3,,,,,,,,,2,,,62,49
55200,note_on,0,0,2,,,,,,,,,1,,,68,49
55200,note_on,0,0,1,,,,,,,,,0,,,77,62
55200,note_on,480,0,3,,,,,,,,,2,,,63,0
55200,note_on,240,0,2,,,,,,,,,1,,,69,0
55200,note_on,480,0,1,,,,,,,,,0,,,79,0
55440,note_on,240,0,1,,,,,,,,,0,,,77,0
55440,note_on,0,0,2,,,,,,,,,1,,,69,49
55440,note_on,0,0,1,,,,,,,,,0,,,75,62
55440,note_on,240,0,3,,,,,,,,,2,,,62,0
55440,note_on,240,0,2,,,,,,,,,1,,,68,0
55440,note_on,0,0,3,,,,,,,,,2,,,60,49
55680,note_on,0,0,1,,,,,,,,,0,,,74,62
55680,note_on,0,0,1,,,,,,,,,0,,,70,62
55680,note_on,0,0,3,,,,,,,,,2,,,58,49
55680,note_on,240,0,1,,,,,,,,,0,,,75,0
55680,note_on,240,0,3,,,,,,,,,2,,,60,0
55680,note_on,240,0,2,,,,,,,,,1,,,69,0
55680,note_on,720,0,4,,,,,,,,,3,,,53,0
55920,note_on,0,0,3,,,,,,,,,2,,,46,49
55920,note_on,240,0,3,,,,,,,,,2,,,58,0
55920,note_on,0,0,1,,,,,,,,,0,,,62,62
55920,note_on,0,0,1,,,,,,,,,0,,,70,0
55920,note_on,240,0,1,,,,,,,,,0,,,74,0
56160,note_on,0,0,1,,,,,,,,,0,,,74,62
56160,note_on,240,0,1,,,,,,,,,0,,,62,0
56160,note_on,0,0,3,,,,,,,,,2,,,58,49
56160,note_on,240,0,3,,,,,,,,,2,,,46,0
56400,note_on,0,0,1,,,,,,,,,0,,,72,62
56400,note_on,0,0,3,,,,,,,,,2,,,57,49
56400,note_on,240,0,3,,,,,,,,,2,,,58,0
56400,note_on,240,0,1,,,,,,,,,0,,,74,0
56640,note_on,0,0,1,,,,,,,,,0,,,70,62
56640,note_on,0,0,3,,,,,,,,,2,,,55,49
56640,note_on,240,0,1,,,,,,,,,0,,,72,0
56640,note_on,240,0,3,,,,,,,,,2,,,57,0
56880,note_on,240,0,1,,,,,,,,,0,,,70,0
56880,note_on,0,0,1,,,,,,,,,0,,,58,62
56880,note_on,240,0,3,,,,,,,,,2,,,55,0
56880,note_on,0,0,3,,,,,,,,,2,,,46,49
57120,note_on,240,0,1,,,,,,,,,0,,,58,0
57120,note_on,240,0,3,,,,,,,,,2,,,46,0
57120,note_on,0,0,3,,,,,,,,,2,,,55,49
57120,note_on,0,0,1,,,,,,,,,0,,,70,62
57360,note_on,240,0,3,,,,,,,,,2,,,55,0
57360,note_on,240,0,1,,,,,,,,,0,,,70,0
57360,note_on,0,0,1,,,,,,,,,0,,,69,62
57360,note_on,0,0,3,,,,,,,,,2,,,53,49
57600,note_on,240,0,1,,,,,,,,,0,,,69,0
57600,note_on,240,0,3,,,,,,,,,2,,,53,0
57600,note_on,0,0,1,,,,,,,,,0,,,67,62
57600,note_on,0,0,3,,,,,,,,,2,,,51,49
57840,note_on,0,0,3,,,,,,,,,2,,,46,49
57840,note_on,240,0,3,,,,,,,,,2,,,51,0
57840,note_on,0,0,1,,,,,,,,,0,,,58,62
57840,note_on,240,0,1,,,,,,,,,0,,,67,0
58080,note_on,0,0,1,,,,,,,,,0,,,67,62
58080,note_on,240,0,1,,,,,,,,,0,,,58,0
58080,note_on,240,0,3,,,,,,,,,2,,,46,0
58080,note_on,0,0,3,,,,,,,,,2,,,51,49
58320,note_on,240,0,1,,,,,,,,,0,,,67,0
58320,note_on,0,0,3,,,,,,,,,2,,,50,49
58320,note_on,240,0,3,,,,,,,,,2,,,51,0
58320,note_on,0,0,1,,,,,,,,,0,,,65,62
58560,note_on,0,0,1,,,,,,,,,0,,,64,62
58560,note_on,240,0,1,,,,,,,,,0,,,65,0
58560,note_on,240,0,3,,,,,,,,,2,,,50,0
58560,note_on,0,0,3,,,,,,,,,2,,,49,49
58800,note_on,0,0,3,,,,,,,,,2,,,48,49
58800,note_on,0,0,1,,,,,,,,,0,,,58,62
58800,note_on,240,0,3,,,,,,,,,2,,,49,0
58800,note_on,240,0,1,,,,,,,,,0,,,64,0
59040,note_on,0,0,1,,,,,,,,,0,,,69,62
59040,note_on,0,0,3,,,,,,,,,2,,,41,49
59040,note_on,3360,0,2,,,,,,,,,1,,,65,49
59040,note_on,240,0,3,,,,,,,,,2,,,48,0
59040,note_on,240,0,1,,,,,,,,,0,,,58,0
59280,note_on,240,0,2,,,,,,,,,1,,,65,0
59280,note_on,0,0,2,,,,,,,,,1,,,63,49
59280,note_on,240,0,3,,,,,,,,,2,,,41,0
59280,note_on,0,0,3,,,,,,,,,2,,,53,49
59520,note_on,0,0,3,,,,,,,,,2,,,46,49
59520,note_on,240,0,3,,,,,,,,,2,,,53,0
59520,note_on,480,0,1,,,,,,,,,0,,,69,0
59520,note_on,240,0,2,,,,,,,,,1,,,63,0
59520,note_on,0,0,1,,,,,,,,,0,,,62,62
59520,note_on,0,0,1,,,,,,,,,0,,,70,62
59760,note_on,0,0,1,,,,,,,,,0,,,62,0
59760,note_on,240,0,1,,,,,,,,,0,,,70,0
59760,note_on,240,0,3,,,,,,,,,2,,,46,0
59760,note_on,0,0,3,,,,,,,,,2,,,46,49
59760,note_on,0,0,1,,,,,,,,,0,,,62,62
60000,note_on,240,0,1,,,,,,,,,0,,,62,0
60000,note_on,0,0,1,,,,,,,,,0,,,65,62
60000,note_on,0,0,1,,,,,,,,,0,,,74,62
60000,note_on,240,0,3,,,,,,,,,2,,,46,0
60000,note_on,0,0,3,,,,,,,,,2,,,58,49
60240,note_on,0,0,1,,,,,,,,,0,,,65,0
60240,note_on,0,0,1,,,,,,,,,0,,,72,62
60240,note_on,0,0,3,,,,,,,,,2,,,57,49
60240,note_on,240,0,1,,,,,,,,,0,,,74,0
60240,note_on,240,0,3,,,,,,,,,2,,,58,0
60240,note_on,0,0,1,,,,,,,,,0,,,66,62
60480,note_on,0,0,1,,,,,,,,,0,,,66,0
60480,note_on,0,0,1,,,,,,,,,0,,,67,62
60480,note_on,0,0,3,,,,,,,,,2,,,55,49
60480,note_on,240,0,1,,,,,,,,,0,,,72,0
60480,note_on,240,0,3,,,,,,,,,2,,,57,0
60480,note_on,0,0,1,,,,,,,,,0,,,70,62
60720,note_on,0,0,1,,,,,,,,,0,,,58,62
60720,note_on,0,0,1,,,,,,,,,0,,,67,0
60720,note_on,240,0,1,,,,,,,,,0,,,70,0
60720,note_on,0,0,3,,,,,,,,,2,,,46,49
60720,note_on,240,0,3,,,,,,,,,2,,,55,0
60960,note_on,240,0,3,,,,,,,,,2,,,46,0
60960,note_on,240,0,1,,,,,,,,,0,,,58,0
60960,note_on,0,0,3,,,,,,,,,2,,,55,49
60960,note_on,0,0,1,,,,,,,,,0,,,61,62
60960,note_on,0,0,1,,,,,,,,,0,,,70,62
61200,note_on,240,0,3,,,,,,,,,2,,,55,0
61200,note_on,0,0,3,,,,,,,,,2,,,53,49
61200,note_on,0,0,1,,,,,,,,,0,,,61,0
61200,note_on,0,0,1,,,,,,,,,0,,,62,62
61200,note_on,0,0,1,,,,,,,,,0,,,68,62
61200,note_on,240,0,1,,,,,,,,,0,,,70,0
61440,note_on,240,0,1,,,,,,,,,0,,,68,0
61440,note_on,240,0,3,,,,,,,,,2,,,53,0
61440,note_on,0,0,1,,,,,,,,,0,,,67,62
61440,note_on,0,0,1,,,,,,,,,0,,,62,0
61440,note_on,0,0,3,,,,,,,,,2,,,51,49
61440,note_on,1920,0,2,,,,,,,,,1,,,63,49
61680,note_on,0,0,2,,,,,,,,,1,,,58,49
61680,note_on,240,0,2,,,,,,,,,1,,,63,0
61680,note_on,0,0,3,,,,,,,,,2,,,48,49
61680,note_on,240,0,3,,,,,,,,,2,,,51,0
61920,note_on,240,0,3,,,,,,,,,2,,,48,0
61920,note_on,0,0,3,,,,,,,,,2,,,51,49
61920,note_on,240,0,2,,,,,,,,,1,,,58,0
61920,note_on,0,0,2,,,,,,,,,1,,,57,49
62160,note_on,0,0,3,,,,,,,,,2,,,50,49
62160,note_on,240,0,2,,,,,,,,,1,,,57,0
62160,note_on,0,0,2,,,,,,,,,1,,,58,49
62160,note_on,720,0,1,,,,,,,,,0,,,67,0
62160,note_on,0,0,1,,,,,,,,,0,,,65,62
62160,note_on,240,0,3,,,,,,,,,2,,,51,0
62400,note_on,0,0,1,,,,,,,,,0,,,64,62
62400,note_on,0,0,3,,,,,,,,,2,,,49,49
62400,note_on,240,0,2,,,,,,,,,1,,,58,0
62400,note_on,0,0,2,,,,,,,,,1,,,64,49
62400,note_on,240,0,1,,,,,,,,,0,,,65,0
62400,note_on,240,0,3,,,,,,,,,2,,,50,0
62640,note_on,240,0,3,,,,,,,,,2,,,49,0
62640,note_on,240,0,2,,,,,,,,,1,,,64,0
62640,note_on,0,0,3,,,,,,,,,2,,,48,49
62640,note_on,0,0,2,,,,,,,,,1,,,58,49
62880,note_on,240,0,3,,,,,,,,,2,,,48,0
62880,note_on,0,0,1,,,,,,,,,0,,,69,62
62880,note_on,240,0,2,,,,,,,,,1,,,58,0
62880,note_on,0,0,2,,,,,,,,,1,,,65,49
62880,note_on,480,0,1,,,,,,,,,0,,,64,0
62880,note_on,0,0,2,,,,,,,,,1,,,57,49
62880,note_on,0,0,3,,,,,,,,,2,,,41,49
63120,note_on,0,0,3,,,,,,,,,2,,,53,49
63120,note_on,0,0,2,,,,,,,,,1,,,57,0
63120,note_on,0,0,2,,,,,,,,,1,,,63,49
63120,note_on,240,0,2,,,,,,,,,1,,,65,0
63120,note_on,240,0,3,,,,,,,,,2,,,41,0
63360,note_on,240,0,2,,,,,,,,,1,,,63,0
63360,note_on,0,0,3,,,,,,,,,2,,,46,49
63360,note_on,240,0,3,,,,,,,,,2,,,53,0
63360,note_on,480,0,1,,,,,,,,,0,,,69,0
63360,note_on,0,0,1,,,,,,,,,0,,,70,62
63360,note_on,0,0,1,,,,,,,,,0,,,62,62
63600,note_on,240,0,3,,,,,,,,,2,,,46,0
63600,note_on,0,0,1,,,,,,,,,0,,,62,62
63600,note_on,0,0,1,,,,,,,,,0,,,62,0
63600,note_on,240,0,1,,,,,,,,,0,,,70,0
63600,note_on,0,0,3,,,,,,,,,2,,,46,49
63840,note_on,0,0,3,,,,,,,,,2,,,58,49
63840,note_on,240,0,3,,,,,,,,,2,,,46,0
63840,note_on,0,0,1,,,,,,,,,0,,,74,62
63840,note_on,240,0,1,,,,,,,,,0,,,62,0
64080,note_on,240,0,3,,,,,,,,,2,,,58,0
64080,note_on,240,0,1,,,,,,,,,0,,,72,62
64080,note_on,0,0,3,,,,,,,,,2,,,57,49
64320,note_on,0,0,1,,,,,,,,,0,,,70,62
64320,note_on,0,0,1,,,,,,,,,0,,,74,0
64320,note_on,240,0,1,,,,,,,,,0,,,72,0
64320,note_on,0,0,3,,,,,,,,,2,,,55,49
64320,note_on,240,0,3,,,,,,,,,2,,,57,0
64560,note_on,0,0,1,,,,,,,,,0,,,62,62
64560,note_on,240,0,1,,,,,,,,,0,,,70,0
64560,note_on,0,0,3,,,,,,,,,2,,,46,49
64560,note_on,240,0,3,,,,,,,,,2,,,55,0
64800,note_on,240,0,1,,,,,,,,,0,,,62,0
64800,note_on,0,0,3,,,,,,,,,2,,,57,49
64800,note_on,240,0,3,,,,,,,,,2,,,46,0
64800,note_on,0,0,1,,,,,,,,,0,,,72,62
65040,note_on,0,0,3,,,,,,,,,2,,,55,49
65040,note_on,0,0,1,,,,,,,,,0,,,70,62
65040,note_on,240,0,3,,,,,,,,,2,,,57,0
65040,note_on,240,0,1,,,,,,,,,0,,,72,0
65280,note_on,0,0,3,,,,,,,,,2,,,54,49
65280,note_on,240,0,1,,,,,,,,,0,,,70,0
65280,note_on,240,0,3,,,,,,,,,2,,,55,0
65280,note_on,0,0,1,,,,,,,,,0,,,69,62
65520,note_on,0,0,3,,,,,,,,,2,,,50,49
65520,note_on,240,0,3,,,,,,,,,2,,,54,0
65520,note_on,0,0,1,,,,,,,,,0,,,62,62
65520,note_on,240,0,1,,,,,,,,,0,,,69,0
65760,note_on,0,0,1,,,,,,,,,0,,,75,62
65760,note_on,0,0,3,,,,,,,,,2,,,60,49
65760,note_on,240,0,3,,,,,,,,,2,,,50,0
65760,note_on,240,0,1,,,,,,,,,0,,,62,0
66000,note_on,240,0,1,,,,,,,,,0,,,75,0
66000,note_on,0,0,3,,,,,,,,,2,,,58,49
66000,note_on,0,0,1,,,,,,,,,0,,,74,62
66000,note_on,240,0,3,,,,,,,,,2,,,60,0
66240,note_on,0,0,1,,,,,,,,,0,,,72,62
66240,note_on,240,0,3,,,,,,,,,2,,,58,0
66240,note_on,0,0,3,,,,,,,,,2,,,57,49
66240,note_on,240,0,1,,,,,,,,,0,,,74,0
66480,note_on,0,0,1,,,,,,,,,0,,,62,62
66480,note_on,240,0,1,,,,,,,,,0,,,72,0
66480,note_on,0,0,3,,,,,,,,,2,,,50,49
66480,note_on,240,0,3,,,,,,,,,2,,,57,0
66720,note_on,0,0,1,,,,,,,,,0,,,74,62
66720,note_on,0,0,3,,,,,,,,,2,,,58,49
66720,note_on,240,0,3,,,,,,,,,2,,,50,0
66720,note_on,240,0,1,,,,,,,,,0,,,62,0
66960,note_on,0,0,1,,,,,,,,,0,,,72,62
66960,note_on,240,0,3,,,,,,,,,2,,,58,0
66960,note_on,0,0,3,,,,,,,,,2,,,57,49
66960,note_on,240,0,1,,,,,,,,,0,,,74,0
67200,note_on,0,0,1,,,,,,,,,0,,,70,62
67200,note_on,240,0,1,,,,,,,,,0,,,72,0
67200,note_on,240,0,3,,,,,,,,,2,,,57,0
67200,note_on,0,0,3,,,,,,,,,2,,,55,49
67440,note_on,240,0,3,,,,,,,,,2,,,55,0
67440,note_on,0,0,1,,,,,,,,,0,,,62,62
67440,note_on,0,0,3,,,,,,,,,2,,,43,49
67440,note_on,240,0,1,,,,,,,,,0,,,70,0
67680,note_on,0,0,1,,,,,,,,,0,,,72,62
67680,note_on,240,0,3,,,,,,,,,2,,,43,0
67680,note_on,240,0,1,,,,,,,,,0,,,62,0
67680,note_on,0,0,3,,,,,,,,,2,,,57,49
67920,note_on,240,0,1,,,,,,,,,0,,,72,0
67920,note_on,240,0,3,,,,,,,,,2,,,57,0
67920,note_on,0,0,3,,,,,,,,,2,,,58,49
67920,note_on,0,0,1,,,,,,,,,0,,,74,62
68160,note_on,0,0,1,,,,,,,,,0,,,74,62
68160,note_on,12480,0,4,,,,,,,,,3,,,48,49
68160,note_on,240,0,1,,,,,,,,,0,,,74,0
68160,note_on,4800,0,2,,,,,,,,,1,,,64,49
68160,note_on,0,0,3,,,,,,,,,2,,,58,49
68160,note_on,240,0,3,,,,,,,,,2,,,58,0
68400,note_on,0,0,1,,,,,,,,,0,,,73,62
68400,note_on,240,0,1,,,,,,,,,0,,,74,0
68640,note_on,240,0,1,,,,,,,,,0,,,73,0
68640,note_on,0,0,3,,,,,,,,,2,,,57,49
68640,note_on,0,0,1,,,,,,,,,0,,,72,62
68640,note_on,480,0,3,,,,,,,,,2,,,58,0
68880,note_on,0,0,1,,,,,,,,,0,,,70,62
68880,note_on,0,0,3,,,,,,,,,2,,,55,49
68880,note_on,240,0,1,,,,,,,,,0,,,72,0
68880,note_on,240,0,3,,,,,,,,,2,,,57,0
69120,note_on,0,0,1,,,,,,,,,0,,,69,62
69120,note_on,960,0,2,,,,,,,,,1,,,64,0
69120,note_on,960,0,4,,,,,,,,,3,,,48,0
69120,note_on,240,0,3,,,,,,,,,2,,,55,0
69120,note_on,0,0,3,,,,,,,,,2,,,53,49
69120,note_on,240,0,1,,,,,,,,,0,,,70,0
69360,note_on,240,0,3,,,,,,,,,2,,,53,0
69360,note_on,240,0,1,,,,,,,,,0,,,69,0
69360,note_on,0,0,1,,,,,,,,,0,,,75,62
69360,note_on,0,0,3,,,,,,,,,2,,,60,49
69600,note_on,240,0,3,,,,,,,,,2,,,60,0
69600,note_on,0,0,1,,,,,,,,,0,,,77,62
69600,note_on,240,0,1,,,,,,,,,0,,,75,0
69600,note_on,0,0,3,,,,,,,,,2,,,62,49
69840,note_on,240,0,1,,,,,,,,,0,,,77,0
69840,note_on,240,0,3,,,,,,,,,2,,,62,0
69840,note_on,0,0,3,,,,,,,,,2,,,63,49
69840,note_on,0,0,1,,,,,,,,,0,,,79,62
70080,note_on,0,0,1,,,,,,,,,0,,,79,49
70080,note_on,240,0,3,,,,,,,,,2,,,63,0
70080,note_on,960,0,2,,,,,,,,,1,,,69,49
70080,note_on,960,0,4,,,,,,,,,3,,,53,49
70080,note_on,240,0,1,,,,,,,,,0,,,79,0
70080,note_on,0,0,3,,,,,,,,,2,,,63,49
70320,note_on,240,0,1,,,,,,,,,0,,,79,0
70320,note_on,0,0,1,,,,,,,,,0,,,78,49
70560,note_on,0,0,1,,,,,,,,,0,,,77,49
70560,note_on,480,0,3,,,,,,,,,2,,,63,0
70560,note_on,0,0,3,,,,,,,,,2,,,61,49
70560,note_on,240,0,1,,,,,,,,,0,,,78,0
70800,note_on,0,0,3,,,,,,,,,2,,,60,49
70800,note_on,240,0,1,,,,,,,,,0,,,77,0
70800,note_on,240,0,3,,,,,,,,,2,,,61,0
70800,note_on,0,0,1,,,,,,,,,0,,,75,49
71040,note_on,960,0,4,,,,,,,,,3,,,53,0
71040,note_on,0,0,1,,,,,,,,,0,,,73,49
71040,note_on,0,0,1,,,,,,,,,0,,,70,49
71040,note_on,240,0,1,,,,,,,,,0,,,75,0
71040,note_on,240,0,3,,,,,,,,,2,,,60,0
71040,note_on,0,0,3,,,,,,,,,2,,,58,49
71040,note_on,960,0,2,,,,,,,,,1,,,69,0
71280,note_on,240,0,3,,,,,,,,,2,,,58,0
71280,note_on,0,0,1,,,,,,,,,0,,,61,49
71280,note_on,0,0,3,,,,,,,,,2,,,46,49
71280,note_on,0,0,1,,,,,,,,,0,,,70,0
71280,note_on,240,0,1,,,,,,,,,0,,,73,0
71520,note_on,240,0,3,,,,,,,,,2,,,46,0
71520,note_on,0,0,1,,,,,,,,,0,,,73,49
71520,note_on,0,0,3,,,,,,,,,2,,,58,49
71520,note_on,240,0,1,,,,,,,,,0,,,61,0
71760,note_on,0,0,1,,,,,,,,,0,,,72,49
71760,note_on,240,0,1,,,,,,,,,0,,,73,0
71760,note_on,0,0,3,,,,,,,,,2,,,56,49
71760,note_on,240,0,3,,,,,,,,,2,,,58,0
72000,note_on,0,0,1,,,,,,,,,0,,,70,49
72000,note_on,240,0,1,,,,,,,,,0,,,72,0
72000,note_on,240,0,3,,,,,,,,,2,,,56,0
72000,note_on,0,0,3,,,,,,,,,2,,,54,49
72240,note_on,0,0,1,,,,,,,,,0,,,58,49
72240,note_on,240,0,3,,,,,,,,,2,,,54,0
72240,note_on,240,0,1,,,,,,,,,0,,,70,0
72240,note_on,0,0,3,,,,,,,,,2,,,46,49
72480,note_on,0,0,1,,,,,,,,,0,,,70,49
72480,note_on,240,0,1,,,,,,,,,0,,,58,0
72480,note_on,240,0,3,,,,,,,,,2,,,46,0
72480,note_on,0,0,3,,,,,,,,,2,,,54,49
72720,note_on,0,0,1,,,,,,,,,0,,,68,49
72720,note_on,240,0,3,,,,,,,,,2,,,54,0
72720,note_on,0,0,3,,,,,,,,,2,,,53,49
72720,note_on,240,0,1,,,,,,,,,0,,,70,0
72960,note_on,240,0,1,,,,,,,,,0,,,68,0
72960,note_on,240,0,3,,,,,,,,,2,,,53,0
72960,note_on,0,0,3,,,,,,,,,2,,,51,49
72960,note_on,0,0,1,,,,,,,,,0,,,66,49
73200,note_on,240,0,3,,,,,,,,,2,,,51,0
73200,note_on,0,0,1,,,,,,,,,0,,,58,49
73200,note_on,240,0,1,,,,,,,,,0,,,66,0
73200,note_on,0,0,3,,,,,,,,,2,,,46,49
73440,note_on,240,0,3,,,,,,,,,2,,,46,0
73440,note_on,0,0,3,,,,,,,,,2,,,51,49
73440,note_on,0,0,1,,,,,,,,,0,,,66,49
73440,note_on,240,0,1,,,,,,,,,0,,,58,0
73680,note_on,0,0,1,,,,,,,,,0,,,65,49
73680,note_on,240,0,1,,,,,,,,,0,,,66,0
73680,note_on,240,0,3,,,,,,,,,2,,,51,0
73680,note_on,0,0,3,,,,,,,,,2,,,50,49
73920,note_on,0,0,3,,,,,,,,,2,,,49,49
73920,note_on,240,0,3,,,,,,,,,2,,,50,0
73920,note_on,0,0,1,,,,,,,,,0,,,64,49
73920,note_on,240,0,1,,,,,,,,,0,,,65,0
74160,note_on,240,0,1,,,,,,,,,0,,,64,0
74160,note_on,240,0,3,,,,,,,,,2,,,49,0
74160,note_on,0,0,1,,,,,,,,,0,,,58,49
74160,note_on,0,0,3,,,,,,,,,2,,,48,49
74400,note_on,0,0,1,,,,,,,,,0,,,69,49
74400,note_on,240,0,1,,,,,,,,,0,,,58,0
74400,note_on,0,0,3,,,,,,,,,2,,,41,49
74400,note_on,240,0,3,,,,,,,,,2,,,48,0
74400,note_on,0,0,1,,,,,,,,,0,,,65,49
74640,note_on,0,0,1,,,,,,,,,0,,,65,0
74640,note_on,240,0,1,,,,,,,,,0,,,69,0
74640,note_on,0,0,1,,,,,,,,,0,,,63,49
74640,note_on,0,0,3,,,,,,,,,2,,,53,49
74640,note_on,240,0,3,,,,,,,,,2,,,41,0
74880,note_on,0,0,1,,,,,,,,,0,,,70,49
74880,note_on,240,0,1,,,,,,,,,0,,,63,0
74880,note_on,0,0,1,,,,,,,,,0,,,61,49
74880,note_on,0,0,3,,,,,,,,,2,,,46,49
74880,note_on,240,0,3,,,,,,,,,2,,,53,0
75120,note_on,240,0,3,,,,,,,,,2,,,46,0
75120,note_on,240,0,1,,,,,,,,,0,,,70,0
75120,note_on,0,0,1,,,,,,,,,0,,,61,49
75120,note_on,0,0,3,,,,,,,,,2,,,46,49
75120,note_on,0,0,1,,,,,,,,,0,,,61,0
75360,note_on,240,0,3,,,,,,,,,2,,,46,0
75360,note_on,240,0,1,,,,,,,,,0,,,61,0
75360,note_on,0,0,3,,,,,,,,,2,,,58,49
75360,note_on,0,0,1,,,,,,,,,0,,,73,49
75600,note_on,0,0,3,,,,,,,,,2,,,56,49
75600,note_on,240,0,1,,,,,,,,,0,,,73,0
75600,note_on,240,0,3,,,,,,,,,2,,,58,0
75600,note_on,0,0,1,,,,,,,,,0,,,72,49
75840,note_on,240,0,1,,,,,,,,,0,,,72,0
75840,note_on,0,0,3,,,,,,,,,2,,,54,49
75840,note_on,0,0,1,,,,,,,,,0,,,70,49
75840,note_on,240,0,3,,,,,,,,,2,,,56,0
76080,note_on,0,0,3,,,,,,,,,2,,,46,49
76080,note_on,0,0,1,,,,,,,,,0,,,58,49
76080,note_on,240,0,3,,,,,,,,,2,,,54,0
76080,note_on,240,0,1,,,,,,,,,0,,,70,0
76320,note_on,0,0,1,,,,,,,,,0,,,70,49
76320,note_on,240,0,3,,,,,,,,,2,,,46,0
76320,note_on,240,0,1,,,,,,,,,0,,,58,0
76320,note_on,0,0,3,,,,,,,,,2,,,54,49
76560,note_on,240,0,1,,,,,,,,,0,,,70,0
76560,note_on,0,0,3,,,,,,,,,2,,,53,49
76560,note_on,240,0,3,,,,,,,,,2,,,54,0
76560,note_on,0,0,1,,,,,,,,,0,,,68,49
76800,note_on,0,0,3,,,,,,,,,2,,,51,49
76800,note_on,240,0,3,,,,,,,,,2,,,53,0
76800,note_on,240,0,1,,,,,,,,,0,,,68,0
76800,note_on,0,0,1,,,,,,,,,0,,,66,49
77040,note_on,0,0,3,,,,,,,,,2,,,46,49
77040,note_on,240,0,3,,,,,,,,,2,,,51,0
77040,note_on,240,0,1,,,,,,,,,0,,,66,0
77040,note_on,0,0,1,,,,,,,,,0,,,58,49
77280,note_on,0,0,1,,,,,,,,,0,,,66,49
77280,note_on,240,0,1,,,,,,,,,0,,,58,0
77280,note_on,240,0,3,,,,,,,,,2,,,46,0
77280,note_on,0,0,3,,,,,,,,,2,,,51,49
77520,note_on,240,0,1,,,,,,,,,0,,,66,0
77520,note_on,0,0,1,,,,,,,,,0,,,65,49
77520,note_on,240,0,3,,,,,,,,,2,,,51,0
77520,note_on,0,0,3,,,,,,,,,2,,,50,49
77760,note_on,240,0,3,,,,,,,,,2,,,50,0
77760,note_on,240,0,1,,,,,,,,,0,,,65,0
77760,note_on,0,0,1,,,,,,,,,0,,,64,49
77760,note_on,0,0,3,,,,,,,,,2,,,49,49
78000,note_on,240,0,3,,,,,,,,,2,,,49,0
78000,note_on,0,0,3,,,,,,,,,2,,,48,49
78000,note_on,240,0,1,,,,,,,,,0,,,64,0
78000,note_on,0,0,1,,,,,,,,,0,,,58,49
78240,note_on,0,0,3,,,,,,,,,2,,,41,49
78240,note_on,0,0,1,,,,,,,,,0,,,69,49
78240,note_on,240,0,1,,,,,,,,,0,,,58,0
78240,note_on,240,0,3,,,,,,,,,2,,,48,0
78240,note_on,0,0,1,,,,,,,,,0,,,65,49
78480,note_on,0,0,1,,,,,,,,,0,,,65,0
78480,note_on,240,0,3,,,,,,,,,2,,,41,0
78480,note_on,240,0,1,,,,,,,,,0,,,69,0
78480,note_on,0,0,1,,,,,,,,,0,,,63,49
78480,note_on,0,0,3,,,,,,,,,2,,,53,49
78720,note_on,0,0,1,,,,,,,,,0,,,70,49
78720,note_on,0,0,1,,,,,,,,,0,,,61,49
78720,control_change,0,0,3,,,,,,,,,2,64,127,,
78720,note_on,240,0,1,,,,,,,,,0,,,63,0
78720,control_change,0,0,1,,,,,,,,,0,64,127,,
78720,note_on,240,0,3,,,,,,,,,2,,,53,0
78720,note_on,0,0,3,,,,,,,,,2,,,46,49
78960,note_on,240,0,3,,,,,,,,,2,,,46,0
78960,note_on,0,0,1,,,,,,,,,0,,,61,62
78960,note_on,0,0,1,,,,,,,,,0,,,61,0
78960,note_on,0,0,3,,,,,,,,,2,,,46,49
78960,note_on,240,0,1,,,,,,,,,0,,,70,0
79200,note_on,240,0,3,,,,,,,,,2,,,46,0
79200,note_on,0,0,1,,,,,,,,,0,,,73,62
79200,note_on,240,0,1,,,,,,,,,0,,,61,0
79200,note_on,0,0,3,,,,,,,,,2,,,58,49
79440,note_on,0,0,1,,,,,,,,,0,,,72,62
79440,note_on,240,0,3,,,,,,,,,2,,,58,0
79440,note_on,240,0,1,,,,,,,,,0,,,73,0
79440,note_on,0,0,3,,,,,,,,,2,,,56,49
79680,note_on,240,0,3,,,,,,,,,2,,,56,0
79680,note_on,0,0,3,,,,,,,,,2,,,54,49
79680,note_on,240,0,1,,,,,,,,,0,,,72,0
79680,note_on,0,0,1,,,,,,,,,0,,,70,62
79920,note_on,240,0,3,,,,,,,,,2,,,54,0
79920,note_on,0,0,3,,,,,,,,,2,,,54,49
79920,note_on,240,0,1,,,,,,,,,0,,,70,0
79920,note_on,0,0,1,,,,,,,,,0,,,70,62
80160,note_on,240,0,3,,,,,,,,,2,,,54,0
80160,note_on,0,0,3,,,,,,,,,2,,,66,49
80160,note_on,0,0,1,,,,,,,,,0,,,82,62
80160,note_on,240,0,1,,,,,,,,,0,,,70,0
80400,note_on,0,0,1,,,,,,,,,0,,,80,62
80400,control_change,0,0,1,,,,,,,,,0,64,0,,
80400,note_on,240,0,1,,,,,,,,,0,,,82,0
80400,control_change,0,0,3,,,,,,,,,2,64,0,,
80400,note_on,240,0,3,,,,,,,,,2,,,66,0
80400,note_on,0,0,3,,,,,,,,,2,,,65,49
80640,note_on,0,0,3,,,,,,,,,2,,,63,49
80640,control_change,0,0,3,,,,,,,,,2,64,127,,
80640,note_on,240,0,1,,,,,,,,,0,,,80,0
80640,note_on,0,0,1,,,,,,,,,0,,,78,62
80640,note_on,240,0,3,,,,,,,,,2,,,65,0
80640,control_change,0,0,1,,,,,,,,,0,64,127,,
80880,note_on,0,0,1,,,,,,,,,0,,,66,62
80880,note_on,240,0,1,,,,,,,,,0,,,78,0
80880,note_on,240,0,3,,,,,,,,,2,,,63,0
80880,note_on,0,0,3,,,,,,,,,2,,,51,49
81120,note_on,240,0,3,,,,,,,,,2,,,51,0
81120,note_on,0,0,1,,,,,,,,,0,,,78,62
81120,note_on,240,0,1,,,,,,,,,0,,,66,0
81120,note_on,0,0,3,,,,,,,,,2,,,63,49
81360,note_on,0,0,3,,,,,,,,,2,,,61,49
81360,note_on,240,0,1,,,,,,,,,0,,,78,0
81360,note_on,240,0,3,,,,,,,,,2,,,63,0
81360,note_on,0,0,1,,,,,,,,,0,,,77,62
81600,note_on,240,0,1,,,,,,,,,0,,,77,0
81600,note_on,0,0,3,,,,,,,,,2,,,60,49
81600,note_on,240,0,3,,,,,,,,,2,,,61,0
81600,note_on,0,0,1,,,,,,,,,0,,,75,62
81840,note_on,0,0,1,,,,,,,,,0,,,63,62
81840,note_on,240,0,3,,,,,,,,,2,,,60,0
81840,note_on,0,0,3,,,,,,,,,2,,,48,49
81840,note_on,240,0,1,,,,,,,,,0,,,75,0
82080,note_on,240,0,1,,,,,,,,,0,,,63,0
82080,note_on,0,0,1,,,,,,,,,0,,,75,62
82080,note_on,240,0,3,,,,,,,,,2,,,48,0
82080,note_on,0,0,3,,,,,,,,,2,,,60,49
82320,note_on,0,0,1,,,,,,,,,0,,,73,62
82320,note_on,0,0,3,,,,,,,,,2,,,58,49
82320,note_on,240,0,3,,,,,,,,,2,,,60,0
82320,control_change,0,0,3,,,,,,,,,2,64,0,,
82320,note_on,240,0,1,,,,,,,,,0,,,75,0
82320,control_change,0,0,1,,,,,,,,,0,64,0,,
82560,note_on,240,0,3,,,,,,,,,2,,,58,0
82560,note_on,240,0,1,,,,,,,,,0,,,73,0
82560,note_on,0,0,1,,,,,,,,,0,,,72,62
82560,control_change,0,0,1,,,,,,,,,0,64,127,,
82560,note_on,0,0,3,,,,,,,,,2,,,56,49
82560,control_change,0,0,3,,,,,,,,,2,64,127,,
82800,note_on,240,0,1,,,,,,,,,0,,,72,0
82800,note_on,0,0,3,,,,,,,,,2,,,56,49
82800,note_on,240,0,3,,,,,,,,,2,,,56,0
82800,note_on,0,0,1,,,,,,,,,0,,,72,62
83040,note_on,240,0,3,,,,,,,,,2,,,56,0
83040,note_on,240,0,1,,,,,,,,,0,,,72,0
83040,note_on,0,0,1,,,,,,,,,0,,,84,62
83040,note_on,0,0,3,,,,,,,,,2,,,68,49
83280,note_on,240,0,3,,,,,,,,,2,,,68,0
83280,note_on,240,0,1,,,,,,,,,0,,,84,0
83280,note_on,0,0,1,,,,,,,,,0,,,82,62
83280,note_on,0,0,3,,,,,,,,,2,,,66,49
83520,note_on,0,0,3,,,,,,,,,2,,,65,49
83520,note_on,240,0,3,,,,,,,,,2,,,66,0
83520,note_on,240,0,1,,,,,,,,,0,,,82,0
83520,note_on,0,0,1,,,,,,,,,0,,,80,62
83760,note_on,240,0,1,,,,,,,,,0,,,80,0
83760,note_on,0,0,1,,,,,,,,,0,,,68,62
83760,note_on,0,0,3,,,,,,,,,2,,,53,49
83760,note_on,240,0,3,,,,,,,,,2,,,65,0
84000,note_on,0,0,3,,,,,,,,,2,,,65,49
84000,note_on,0,0,1,,,,,,,,,0,,,80,62
84000,note_on,240,0,3,,,,,,,,,2,,,53,0
84000,note_on,240,0,1,,,,,,,,,0,,,68,0
84240,note_on,0,0,1,,,,,,,,,0,,,78,62
84240,control_change,0,0,1,,,,,,,,,0,64,0,,
84240,control_change,0,0,3,,,,,,,,,2,64,0,,
84240,note_on,240,0,3,,,,,,,,,2,,,65,0
84240,note_on,0,0,3,,,,,,,,,2,,,63,49
84240,note_on,240,0,1,,,,,,,,,0,,,80,0
84480,note_on,240,0,1,,,,,,,,,0,,,78,0
84480,note_on,0,0,3,,,,,,,,,2,,,61,49
84480,note_on,240,0,3,,,,,,,,,2,,,63,0
84480,note_on,0,0,1,,,,,,,,,0,,,77,62
84480,control_change,0,0,1,,,,,,,,,0,64,127,,
84480,control_change,0,0,3,,,,,,,,,2,64,127,,
84720,note_on,0,0,3,,,,,,,,,2,,,49,49
84720,note_on,240,0,3,,,,,,,,,2,,,61,0
84720,note_on,0,0,1,,,,,,,,,0,,,65,62
84720,note_on,240,0,1,,,,,,,,,0,,,77,0
84960,note_on,240,0,3,,,,,,,,,2,,,49,0
84960,note_on,0,0,1,,,,,,,,,0,,,77,62
84960,note_on,240,0,1,,,,,,,,,0,,,65,0
84960,note_on,0,0,3,,,,,,,,,2,,,61,49
85200,note_on,0,0,3,,,,,,,,,2,,,60,49
85200,note_on,0,0,1,,,,,,,,,0,,,75,62
85200,note_on,240,0,3,,,,,,,,,2,,,61,0
85200,note_on,240,0,1,,,,,,,,,0,,,77,0
85440,note_on,240,0,3,,,,,,,,,2,,,60,0
85440,note_on,0,0,1,,,,,,,,,0,,,73,62
85440,note_on,0,0,3,,,,,,,,,2,,,58,49
85440,note_on,240,0,1,,,,,,,,,0,,,75,0
85680,note_on,0,0,1,,,,,,,,,0,,,73,62
85680,note_on,0,0,3,,,,,,,,,2,,,58,49
85680,note_on,240,0,1,,,,,,,,,0,,,73,0
85680,note_on,240,0,3,,,,,,,,,2,,,58,0
85920,note_on,0,0,1,,,,,,,,,0,,,85,62
85920,note_on,0,0,3,,,,,,,,,2,,,70,49
85920,note_on,240,0,1,,,,,,,,,0,,,73,0
85920,note_on,240,0,3,,,,,,,,,2,,,58,0
86160,note_on,0,0,1,,,,,,,,,0,,,84,62
86160,note_on,0,0,3,,,,,,,,,2,,,68,49
86160,control_change,0,0,1,,,,,,,,,0,64,0,,
86160,note_on,240,0,1,,,,,,,,,0,,,85,0
86160,note_on,240,0,3,,,,,,,,,2,,,70,0
86160,control_change,0,0,3,,,,,,,,,2,64,0,,
86400,note_on,240,0,1,,,,,,,,,0,,,84,0
86400,note_on,0,0,1,,,,,,,,,0,,,82,62
86400,note_on,240,0,3,,,,,,,,,2,,,68,0
86400,note_on,0,0,3,,,,,,,,,2,,,67,49
86640,note_on,0,0,1,,,,,,,,,0,,,70,62
86640,note_on,240,0,3,,,,,,,,,2,,,67,0
86640,note_on,0,0,3,,,,,,,,,2,,,55,49
86640,note_on,240,0,1,,,,,,,,,0,,,82,0
86880,note_on,0,0,3,,,,,,,,,2,,,67,49
86880,note_on,240,0,1,,,,,,,,,0,,,70,0
86880,note_on,0,0,1,,,,,,,,,0,,,82,62
86880,note_on,240,0,3,,,,,,,,,2,,,55,0
87120,note_on,0,0,1,,,,,,,,,0,,,80,62
87120,note_on,240,0,1,,,,,,,,,0,,,82,0
87120,note_on,240,0,3,,,,,,,,,2,,,67,0
87120,note_on,0,0,3,,,,,,,,,2,,,65,49
87360,note_on,0,0,3,,,,,,,,,2,,,67,49
87360,note_on,0,0,1,,,,,,,,,0,,,82,62
87360,note_on,240,0,1,,,,,,,,,0,,,80,0
87360,note_on,240,0,3,,,,,,,,,2,,,65,0
87600,set_tempo,32791,1,0,,,,,,389610,,,,,,,
87600,note_on,240,0,3,,,,,,,,,2,,,67,0
87600,note_on,240,0,1,,,,,,,,,0,,,82,0
87600,note_on,0,0,3,,,,,,,,,2,,,55,49
87600,note_on,0,0,1,,,,,,,,,0,,,70,62
87840,note_on,240,0,3,,,,,,,,,2,,,55,0
87840,note_on,240,0,1,,,,,,,,,0,,,70,0
87840,note_on,0,0,1,,,,,,,,,0,,,82,62
87840,set_tempo,240,1,0,,,,,,405405,,,,,,,
87840,note_on,0,0,3,,,,,,,,,2,,,67,49
88080,note_on,240,0,1,,,,,,,,,0,,,82,0
88080,set_tempo,240,1,0,,,,,,422535,,,,,,,
88080,note_on,0,0,1,,,,,,,,,0,,,80,62
88080,note_on,240,0,3,,,,,,,,,2,,,67,0
88080,note_on,0,0,3,,,,,,,,,2,,,65,49
88320,note_on,240,0,3,,,,,,,,,2,,,65,0
88320,note_on,0,0,3,,,,,,,,,2,,,64,49
88320,note_on,240,0,1,,,,,,,,,0,,,80,0
88320,note_on,0,0,1,,,,,,,,,0,,,79,88
88320,set_tempo,240,1,0,,,,,,447761,,,,,,,
88560,note_on,0,0,3,,,,,,,,,2,,,52,49
88560,note_on,0,0,1,,,,,,,,,0,,,67,62
88560,note_on,240,0,1,,,,,,,,,0,,,79,0
88560,note_on,240,0,3,,,,,,,,,2,,,64,0
88560,set_tempo,240,1,0,,,,,,468750,,,,,,,
88800,note_on,240,0,3,,,,,,,,,2,,,52,0
88800,note_on,0,0,1,,,,,,,,,0,,,79,62
88800,note_on,240,0,1,,,,,,,,,0,,,67,0
88800,note_on,0,0,3,,,,,,,,,2,,,64,49
88800,set_tempo,240,1,0,,,,,,491803,,,,,,,
89040,note_on,0,0,3,,,,,,,,,2,,,62,49
89040,set_tempo,240,1,0,,,,,,517241,,,,,,,
89040,note_on,240,0,1,,,,,,,,,0,,,79,0
89040,note_on,0,0,1,,,,,,,,,0,,,77,62
89040,note_on,240,0,3,,,,,,,,,2,,,64,0
89280,note_on,240,0,1,,,,,,,,,0,,,77,0
89280,set_tempo,240,1,0,,,,,,555556,,,,,,,
89280,note_on,240,0,3,,,,,,,,,2,,,62,0
89280,note_on,0,0,3,,,,,,,,,2,,,60,49
89280,note_on,0,0,1,,,,,,,,,0,,,76,62
89520,note_on,240,0,1,,,,,,,,,0,,,76,0
89520,note_on,240,0,3,,,,,,,,,2,,,60,0
89520,note_on,0,0,3,,,,,,,,,2,,,48,49
89520,note_on,0,0,1,,,,,,,,,0,,,64,62
89760,note_on,0,0,1,,,,,,,,,0,,,76,62
89760,note_on,0,0,3,,,,,,,,,2,,,60,49
89760,note_on,240,0,1,,,,,,,,,0,,,64,0
89760,note_on,240,0,3,,,,,,,,,2,,,48,0
90000,note_on,0,0,1,,,,,,,,,0,,,74,62
90000,note_on,0,0,3,,,,,,,,,2,,,59,49
90000,note_on,240,0,1,,,,,,,,,0,,,76,0
90000,note_on,240,0,3,,,,,,,,,2,,,60,0
90240,note_on,0,0,1,,,,,,,,,0,,,72,75
90240,note_on,0,0,3,,,,,,,,,2,,,60,62
90240,note_on,240,0,1,,,,,,,,,0,,,74,0
90240,note_on,240,0,3,,,,,,,,,2,,,59,0
90306,set_tempo,1026,1,0,,,,,,375000,,,,,,,
90720,note_on,0,0,3,,,,,,,,,2,,,36,62
90720,note_on,0,0,3,,,,,,,,,2,,,48,62
90720,note_on,480,0,1,,,,,,,,,0,,,72,0
90720,note_on,0,0,1,,,,,,,,,0,,,60,75
90720,note_on,0,0,1,,,,,,,,,0,,,64,75
90720,note_on,480,0,3,,,,,,,,,2,,,60,0
90960,note_on,240,0,3,,,,,,,,,2,,,48,0
90960,note_on,0,0,1,,,,,,,,,0,,,60,0
90960,note_on,0,0,1,,,,,,,,,0,,,60,75
90960,note_on,0,0,1,,,,,,,,,0,,,65,75
90960,note_on,240,0,1,,,,,,,,,0,,,64,0
90960,note_on,0,0,3,,,,,,,,,2,,,36,0
90960,note_on,0,0,3,,,,,,,,,2,,,38,62
90960,note_on,0,0,3,,,,,,,,,2,,,50,62
91200,note_on,0,0,3,,,,,,,,,2,,,40,62
91200,note_on,240,0,1,,,,,,,,,0,,,65,0
91200,note_on,0,0,3,,,,,,,,,2,,,38,0
91200,note_on,0,0,3,,,,,,,,,2,,,52,62
91200,note_on,240,0,3,,,,,,,,,2,,,50,0
91200,note_on,20160,0,2,,,,,,,,,1,,,60,62
91200,note_on,0,0,1,,,,,,,,,0,,,60,0
91200,note_on,0,0,1,,,,,,,,,0,,,67,75
91440,note_on,0,0,1,,,,,,,,,0,,,72,75
91440,note_on,240,0,1,,,,,,,,,0,,,67,0
91680,note_on,0,0,3,,,,,,,,,2,,,50,62
91680,note_on,0,0,3,,,,,,,,,2,,,40,0
91680,note_on,0,0,3,,,,,,,,,2,,,38,62
91680,note_on,0,0,1,,,,,,,,,0,,,60,75
91680,note_on,0,0,1,,,,,,,,,0,,,65,75
91680,note_on,240,0,1,,,,,,,,,0,,,72,0
91680,note_on,480,0,2,,,,,,,,,1,,,60,0
91680,note_on,480,0,3,,,,,,,,,2,,,52,0
91920,note_on,0,0,1,,,,,,,,,0,,,67,75
91920,note_on,0,0,1,,,,,,,,,0,,,60,75
91920,note_on,0,0,1,,,,,,,,,0,,,60,0
91920,note_on,0,0,3,,,,,,,,,2,,,52,62
91920,note_on,240,0,1,,,,,,,,,0,,,65,0
91920,note_on,0,0,3,,,,,,,,,2,,,40,62
91920,note_on,0,0,3,,,,,,,,,2,,,38,0
91920,note_on,240,0,3,,,,,,,,,2,,,50,0
92160,note_on,0,0,1,,,,,,,,,0,,,60,0
92160,note_on,0,0,3,,,,,,,,,2,,,40,0
92160,note_on,240,0,3,,,,,,,,,2,,,52,0
92160,note_on,0,0,1,,,,,,,,,0,,,69,75
92160,note_on,240,0,1,,,,,,,,,0,,,67,0
92160,note_on,0,0,3,,,,,,,,,2,,,41,62
92160,note_on,480,0,2,,,,,,,,,1,,,60,62
92160,note_on,0,0,3,,,,,,,,,2,,,53,62
92400,note_on,0,0,1,,,,,,,,,0,,,72,75
92400,note_on,240,0,1,,,,,,,,,0,,,69,0
92640,note_on,0,0,1,,,,,,,,,0,,,60,62
92640,note_on,0,0,3,,,,,,,,,2,,,41,0
92640,note_on,0,0,3,,,,,,,,,2,,,50,49
92640,note_on,240,0,1,,,,,,,,,0,,,72,0
92640,note_on,480,0,3,,,,,,,,,2,,,53,0
92640,note_on,480,0,2,,,,,,,,,1,,,60,0
92640,note_on,0,0,1,,,,,,,,,0,,,65,62
92880,note_on,0,0,1,,,,,,,,,0,,,60,0
92880,note_on,0,0,1,,,,,,,,,0,,,60,62
92880,note_on,0,0,3,,,,,,,,,2,,,52,49
92880,note_on,240,0,3,,,,,,,,,2,,,50,0
92880,note_on,240,0,1,,,,,,,,,0,,,65,0
92880,note_on,0,0,1,,,,,,,,,0,,,67,62
93120,note_on,0,0,1,,,,,,,,,0,,,60,0
93120,note_on,0,0,1,,,,,,,,,0,,,69,62
93120,note_on,240,0,3,,,,,,,,,2,,,52,0
93120,note_on,0,0,3,,,,,,,,,2,,,53,49
93120,note_on,240,0,1,,,,,,,,,0,,,67,0
93120,note_on,480,0,2,,,,,,,,,1,,,60,49
93360,note_on,0,0,1,,,,,,,,,0,,,72,62
93360,note_on,240,0,1,,,,,,,,,0,,,69,0
93600,note_on,0,0,3,,,,,,,,,2,,,52,49
93600,note_on,240,0,1,,,,,,,,,0,,,72,0
93600,note_on,480,0,3,,,,,,,,,2,,,53,0
93600,note_on,0,0,1,,,,,,,,,0,,,67,62
93600,note_on,0,0,1,,,,,,,,,0,,,60,62
93600,note_on,480,0,2,,,,,,,,,1,,,60,0
93840,note_on,0,0,1,,,,,,,,,0,,,69,62
93840,note_on,240,0,1,,,,,,,,,0,,,67,0
93840,note_on,0,0,3,,,,,,,,,2,,,53,49
93840,note_on,0,0,1,,,,,,,,,0,,,60,0
93840,note_on,240,0,3,,,,,,,,,2,,,52,0
93840,note_on,0,0,1,,,,,,,,,0,,,60,62
94080,note_on,0,0,1,,,,,,,,,0,,,70,62
94080,note_on,0,0,1,,,,,,,,,0,,,60,0
94080,note_on,240,0,3,,,,,,,,,2,,,53,0
94080,note_on,240,0,1,,,,,,,,,0,,,69,0
94080,note_on,0,0,3,,,,,,,,,2,,,52,49
94080,note_on,0,0,3,,,,,,,,,2,,,55,49
94080,note_on,480,0,2,,,,,,,,,1,,,60,49
94320,note_on,240,0,1,,,,,,,,,0,,,70,0
94320,note_on,0,0,1,,,,,,,,,0,,,72,62
94560,note_on,240,0,1,,,,,,,,,0,,,72,0
94560,note_on,0,0,2,,,,,,,,,1,,,60,75
94560,note_on,480,0,3,,,,,,,,,2,,,55,0
94560,note_on,0,0,1,,,,,,,,,0,,,67,88
94560,note_on,480,0,2,,,,,,,,,1,,,60,0
94560,note_on,0,0,3,,,,,,,,,2,,,52,75
94560,note_on,0,0,3,,,,,,,,,2,,,52,0
94560,note_on,0,0,3,,,,,,,,,2,,,40,75
94800,note_on,0,0,3,,,,,,,,,2,,,41,75
94800,note_on,0,0,3,,,,,,,,,2,,,40,0
94800,note_on,0,0,3,,,,,,,,,2,,,53,75
94800,note_on,240,0,1,,,,,,,,,0,,,67,0
94800,note_on,240,0,3,,,,,,,,,2,,,52,0
94800,note_on,0,0,2,,,,,,,,,1,,,60,75
94800,note_on,0,0,1,,,,,,,,,0,,,69,88
94800,note_on,240,0,2,,,,,,,,,1,,,60,0
95040,note_on,0,0,2,,,,,,,,,1,,,60,75
95040,note_on,240,0,3,,,,,,,,,2,,,53,0
95040,note_on,0,0,3,,,,,,,,,2,,,55,75
95040,note_on,240,0,2,,,,,,,,,1,,,60,0
95040,note_on,0,0,3,,,,,,,,,2,,,43,75
95040,note_on,0,0,3,,,,,,,,,2,,,41,0
95040,note_on,0,0,1,,,,,,,,,0,,,70,88
95040,note_on,240,0,1,,,,,,,,,0,,,69,0
95280,note_on,240,0,1,,,,,,,,,0,,,70,0
95280,note_on,0,0,1,,,,,,,,,0,,,72,88
95520,note_on,240,0,1,,,,,,,,,0,,,72,0
95520,note_on,480,0,2,,,,,,,,,1,,,60,0
95520,note_on,0,0,2,,,,,,,,,1,,,60,75
95520,note_on,0,0,1,,,,,,,,,0,,,67,88
95520,note_on,0,0,3,,,,,,,,,2,,,40,75
95520,note_on,0,0,3,,,,,,,,,2,,,43,0
95520,note_on,0,0,3,,,,,,,,,2,,,52,75
95520,note_on,480,0,3,,,,,,,,,2,,,55,0
95760,note_on,0,0,3,,,,,,,,,2,,,42,75
95760,note_on,0,0,3,,,,,,,,,2,,,54,75
95760,note_on,0,0,3,,,,,,,,,2,,,40,0
95760,note_on,240,0,1,,,,,,,,,0,,,67,0
95760,note_on,0,0,1,,,,,,,,,0,,,69,88
95760,note_on,240,0,2,,,,,,,,,1,,,60,0
95760,note_on,0,0,2,,,,,,,,,1,,,60,75
95760,note_on,240,0,3,,,,,,,,,2,,,52,0
96000,note_on,240,0,1,,,,,,,,,0,,,69,0
96000,note_on,0,0,1,,,,,,,,,0,,,70,88
96000,note_on,0,0,3,,,,,,,,,2,,,55,75
96000,note_on,0,0,3,,,,,,,,,2,,,43,75
96000,note_on,240,0,2,,,,,,,,,1,,,60,0
96000,note_on,0,0,3,,,,,,,,,2,,,42,0
96000,note_on,0,0,2,,,,,,,,,1,,,60,75
96000,note_on,240,0,3,,,,,,,,,2,,,54,0
96240,note_on,240,0,1,,,,,,,,,0,,,70,0
96240,note_on,0,0,1,,,,,,,,,0,,,72,88
96480,note_on,0,0,3,,,,,,,,,2,,,43,0
96480,note_on,480,0,2,,,,,,,,,1,,,60,0
96480,note_on,0,0,2,,,,,,,,,1,,,60,75
96480,note_on,240,0,1,,,,,,,,,0,,,72,0
96480,note_on,0,0,3,,,,,,,,,2,,,41,75
96480,note_on,480,0,3,,,,,,,,,2,,,55,0
96480,note_on,0,0,3,,,,,,,,,2,,,53,75
96480,note_on,0,0,1,,,,,,,,,0,,,69,88
96720,note_on,240,0,1,,,,,,,,,0,,,69,0
96720,note_on,0,0,1,,,,,,,,,0,,,72,88
96960,note_on,480,0,3,,,,,,,,,2,,,53,0
96960,note_on,480,0,2,,,,,,,,,1,,,60,0
96960,note_on,0,0,3,,,,,,,,,2,,,52,88
96960,note_on,0,0,3,,,,,,,,,2,,,41,0
96960,note_on,0,0,3,,,,,,,,,2,,,40,88
96960,note_on,0,0,2,,,,,,,,,1,,,60,88
96960,note_on,0,0,1,,,,,,,,,0,,,67,101
96960,note_on,240,0,1,,,,,,,,,0,,,72,0
97200,note_on,240,0,1,,,,,,,,,0,,,67,0
97200,note_on,0,0,1,,,,,,,,,0,,,72,101
97440,note_on,240,0,1,,,,,,,,,0,,,72,0
97440,note_on,0,0,2,,,,,,,,,1,,,60,88
97440,note_on,0,0,3,,,,,,,,,2,,,50,88
97440,note_on,0,0,1,,,,,,,,,0,,,65,101
97440,note_on,0,0,3,,,,,,,,,2,,,40,0
97440,note_on,480,0,2,,,,,,,,,1,,,60,0
97440,note_on,0,0,3,,,,,,,,,2,,,38,88
97440,note_on,480,0,3,,,,,,,,,2,,,52,0
97680,note_on,0,0,1,,,,,,,,,0,,,72,101
97680,note_on,240,0,1,,,,,,,,,0,,,65,0
97920,note_on,480,0,2,,,,,,,,,1,,,60,0
97920,control_change,0,0,3,,,,,,,,,2,64,127,,
97920,control_change,0,0,1,,,,,,,,,0,64,127,,
97920,note_on,480,0,3,,,,,,,,,2,,,50,0
97920,note_on,0,0,3,,,,,,,,,2,,,36,88
97920,note_on,0,0,1,,,,,,,,,0,,,60,101
97920,note_on,240,0,1,,,,,,,,,0,,,72,0
97920,note_on,0,0,3,,,,,,,,,2,,,48,88
97920,note_on,0,0,3,,,,,,,,,2,,,38,0
97920,note_on,0,0,1,,,,,,,,,0,,,64,101
98400,note_on,0,0,3,,,,,,,,,2,,,36,0
98400,note_on,0,0,3,,,,,,,,,2,,,76,49
98400,note_on,480,0,1,,,,,,,,,0,,,64,0
98400,note_on,0,0,1,,,,,,,,,0,,,91,62
98400,note_on,0,0,1,,,,,,,,,0,,,60,0
98400,note_on,480,0,3,,,,,,,,,2,,,48,0
98640,note_on,0,0,3,,,,,,,,,2,,,72,49
98640,note_on,240,0,3,,,,,,,,,2,,,76,0
98640,note_on,0,0,1,,,,,,,,,0,,,82,62
98640,note_on,240,0,1,,,,,,,,,0,,,91,0
98880,note_on,240,0,3,,,,,,,,,2,,,72,0
98880,note_on,240,0,1,,,,,,,,,0,,,82,0
98880,note_on,0,0,3,,,,,,,,,2,,,77,49
98880,note_on,0,0,1,,,,,,,,,0,,,82,62
99120,note_on,240,0,1,,,,,,,,,0,,,82,0
99120,note_on,240,0,3,,,,,,,,,2,,,77,0
99120,note_on,0,0,1,,,,,,,,,0,,,81,62
99120,note_on,0,0,3,,,,,,,,,2,,,76,49
99360,note_on,240,0,3,,,,,,,,,2,,,76,0
99360,note_on,240,0,1,,,,,,,,,0,,,81,0
99360,note_on,0,0,3,,,,,,,,,2,,,74,49
99360,note_on,0,0,1,,,,,,,,,0,,,89,62
99600,note_on,0,0,1,,,,,,,,,0,,,81,62
99600,note_on,240,0,3,,,,,,,,,2,,,74,0
99600,note_on,0,0,3,,,,,,,,,2,,,70,49
99600,note_on,240,0,1,,,,,,,,,0,,,89,0
99840,note_on,0,0,1,,,,,,,,,0,,,81,62
99840,note_on,240,0,3,,,,,,,,,2,,,70,0
99840,note_on,0,0,3,,,,,,,,,2,,,76,49
99840,note_on,240,0,1,,,,,,,,,0,,,81,0
100080,note_on,240,0,3,,,,,,,,,2,,,76,0
100080,note_on,0,0,3,,,,,,,,,2,,,74,49
100080,note_on,0,0,1,,,,,,,,,0,,,80,62
100080,note_on,240,0,1,,,,,,,,,0,,,81,0
100320,note_on,0,0,1,,,,,,,,,0,,,88,62
100320,note_on,240,0,1,,,,,,,,,0,,,80,0
100320,note_on,240,0,3,,,,,,,,,2,,,74,0
100320,note_on,0,0,3,,,,,,,,,2,,,73,49
100560,note_on,240,0,3,,,,,,,,,2,,,73,0
100560,note_on,0,0,3,,,,,,,,,2,,,69,49
100560,note_on,0,0,1,,,,,,,,,0,,,79,62
100560,note_on,240,0,1,,,,,,,,,0,,,88,0
100800,note_on,240,0,3,,,,,,,,,2,,,69,0
100800,note_on,0,0,3,,,,,,,,,2,,,74,49
100800,note_on,0,0,1,,,,,,,,,0,,,79,62
100800,note_on,240,0,1,,,,,,,,,0,,,79,0
101040,note_on,0,0,3,,,,,,,,,2,,,72,49
101040,note_on,240,0,1,,,,,,,,,0,,,79,0
101040,note_on,0,0,1,,,,,,,,,0,,,78,62
101040,note_on,240,0,3,,,,,,,,,2,,,74,0
101280,note_on,240,0,1,,,,,,,,,0,,,78,0
101280,note_on,0,0,3,,,,,,,,,2,,,70,49
101280,note_on,0,0,1,,,,,,,,,0,,,86,62
101280,note_on,240,0,3,,,,,,,,,2,,,72,0
101520,control_change,0,0,3,,,,,,,,,2,64,0,,
101520,note_on,0,0,3,,,,,,,,,2,,,67,49
101520,note_on,0,0,1,,,,,,,,,0,,,77,62
101520,control_change,0,0,1,,,,,,,,,0,64,0,,
101520,note_on,240,0,1,,,,,,,,,0,,,86,0
101520,note_on,240,0,3,,,,,,,,,2,,,70,0
101760,control_change,0,0,1,,,,,,,,,0,64,127,,
101760,note_on,0,0,3,,,,,,,,,2,,,72,49
101760,control_change,0,0,3,,,,,,,,,2,64,127,,
101760,note_on,240,0,1,,,,,,,,,0,,,77,0
101760,note_on,0,0,1,,,,,,,,,0,,,77,62
101760,note_on,240,0,3,,,,,,,,,2,,,67,0
102000,note_on,0,0,3,,,,,,,,,2,,,70,49
102000,note_on,240,0,1,,,,,,,,,0,,,77,0
102000,note_on,240,0,3,,,,,,,,,2,,,72,0
102000,note_on,0,0,1,,,,,,,,,0,,,76,62
102240,note_on,0,0,3,,,,,,,,,2,,,69,49
102240,note_on,240,0,3,,,,,,,,,2,,,70,0
102240,note_on,240,0,1,,,,,,,,,0,,,76,0
102240,note_on,0,0,1,,,,,,,,,0,,,84,62
102480,note_on,240,0,3,,,,,,,,,2,,,69,0
102480,note_on,0,0,3,,,,,,,,,2,,,65,49
102480,note_on,0,0,1,,,,,,,,,0,,,75,62
102480,note_on,240,0,1,,,,,,,,,0,,,84,0
102720,note_on,0,0,3,,,,,,,,,2,,,70,49
102720,note_on,240,0,3,,,,,,,,,2,,,65,0
102720,note_on,0,0,1,,,,,,,,,0,,,75,62
102720,note_on,240,0,1,,,,,,,,,0,,,75,0
102960,note_on,0,0,3,,,,,,,,,2,,,69,49
102960,note_on,240,0,1,,,,,,,,,0,,,75,0
102960,note_on,240,0,3,,,,,,,,,2,,,70,0
102960,note_on,0,0,1,,,,,,,,,0,,,74,62
103200,note_on,240,0,3,,,,,,,,,2,,,69,0
103200,note_on,240,0,1,,,,,,,,,0,,,74,0
103200,note_on,0,0,1,,,,,,,,,0,,,82,62
103200,note_on,0,0,3,,,,,,,,,2,,,67,49
103440,note_on,0,0,3,,,,,,,,,2,,,64,49
103440,note_on,240,0,3,,,,,,,,,2,,,67,0
103440,note_on,240,0,1,,,,,,,,,0,,,82,0
103440,note_on,0,0,1,,,,,,,,,0,,,74,62
103680,note_on,240,0,3,,,,,,,,,2,,,64,0
103680,note_on,0,0,3,,,,,,,,,2,,,69,49
103680,note_on,0,0,1,,,,,,,,,0,,,74,62
103680,note_on,240,0,1,,,,,,,,,0,,,74,0
103920,note_on,240,0,1,,,,,,,,,0,,,74,0
103920,note_on,240,0,3,,,,,,,,,2,,,69,0
103920,note_on,0,0,1,,,,,,,,,0,,,73,62
103920,note_on,0,0,3,,,,,,,,,2,,,67,49
104160,note_on,0,0,3,,,,,,,,,2,,,66,49
104160,note_on,240,0,3,,,,,,,,,2,,,67,0
104160,note_on,0,0,1,,,,,,,,,0,,,81,62
104160,note_on,240,0,1,,,,,,,,,0,,,73,0
104400,note_on,240,0,3,,,,,,,,,2,,,66,0
104400,note_on,0,0,3,,,,,,,,,2,,,62,49
104400,note_on,0,0,1,,,,,,,,,0,,,72,62
104400,note_on,240,0,1,,,,,,,,,0,,,81,0
104640,note_on,240,0,1,,,,,,,,,0,,,72,0
104640,note_on,240,0,3,,,,,,,,,2,,,62,0
104640,note_on,0,0,3,,,,,,,,,2,,,67,49
104640,note_on,0,0,1,,,,,,,,,0,,,72,62
104880,note_on,0,0,3,,,,,,,,,2,,,65,49
104880,note_on,0,0,1,,,,,,,,,0,,,71,62
104880,note_on,240,0,3,,,,,,,,,2,,,67,0
104880,note_on,240,0,1,,,,,,,,,0,,,72,0
105120,note_on,240,0,3,,,,,,,,,2,,,65,0
105120,note_on,0,0,1,,,,,,,,,0,,,79,62
105120,note_on,240,0,1,,,,,,,,,0,,,71,0
105120,note_on,0,0,3,,,,,,,,,2,,,64,49
105360,control_change,0,0,1,,,,,,,,,0,64,0,,
105360,note_on,0,0,1,,,,,,,,,0,,,72,62
105360,note_on,240,0,3,,,,,,,,,2,,,64,0
105360,note_on,0,0,3,,,,,,,,,2,,,60,49
105360,note_on,240,0,1,,,,,,,,,0,,,79,0
105360,note_on,0,0,1,,,,,,,,,0,,,70,62
105360,control_change,0,0,3,,,,,,,,,2,64,0,,
105600,note_on,0,0,1,,,,,,,,,0,,,81,62
105600,note_on,0,0,1,,,,,,,,,0,,,70,0
105600,control_change,0,0,3,,,,,,,,,2,64,127,,
105600,note_on,240,0,1,,,,,,,,,0,,,72,0
105600,note_on,0,0,3,,,,,,,,,2,,,65,49
105600,note_on,240,0,3,,,,,,,,,2,,,60,0
105600,control_change,0,0,1,,,,,,,,,0,64,127,,
105600,note_on,7680,0,2,,,,,,,,,1,,,69,88
105840,note_on,240,0,2,,,,,,,,,1,,,69,0
105840,note_on,240,0,3,,,,,,,,,2,,,65,0
105840,note_on,0,0,3,,,,,,,,,2,,,53,49
105840,note_on,0,0,2,,,,,,,,,1,,,70,88
106080,note_on,240,0,3,,,,,,,,,2,,,53,0
106080,note_on,240,0,2,,,,,,,,,1,,,70,0
106080,note_on,0,0,2,,,,,,,,,1,,,72,88
106080,note_on,0,0,3,,,,,,,,,2,,,65,49
106320,note_on,0,0,2,,,,,,,,,1,,,73,88
106320,note_on,240,0,2,,,,,,,,,1,,,72,0
106320,note_on,0,0,3,,,,,,,,,2,,,64,49
106320,note_on,720,0,1,,,,,,,,,0,,,81,0
106320,note_on,0,0,1,,,,,,,,,0,,,79,62
106320,note_on,240,0,3,,,,,,,,,2,,,65,0
106560,note_on,0,0,3,,,,,,,,,2,,,62,49
106560,note_on,240,0,1,,,,,,,,,0,,,79,0
106560,note_on,240,0,2,,,,,,,,,1,,,73,0
106560,note_on,0,0,2,,,,,,,,,1,,,74,88
106560,note_on,240,0,3,,,,,,,,,2,,,64,0
106560,note_on,0,0,1,,,,,,,,,0,,,77,62
106800,note_on,240,0,2,,,,,,,,,1,,,74,0
106800,note_on,0,0,3,,,,,,,,,2,,,53,49
106800,note_on,0,0,2,,,,,,,,,1,,,65,88
106800,note_on,240,0,3,,,,,,,,,2,,,62,0
107040,note_on,240,0,3,,,,,,,,,2,,,53,0
107040,note_on,0,0,2,,,,,,,,,1,,,68,88
107040,note_on,0,0,3,,,,,,,,,2,,,62,49
107040,note_on,240,0,2,,,,,,,,,1,,,65,0
107280,note_on,0,0,1,,,,,,,,,0,,,76,62
107280,note_on,240,0,3,,,,,,,,,2,,,62,0
107280,note_on,0,0,2,,,,,,,,,1,,,69,88
107280,note_on,240,0,2,,,,,,,,,1,,,68,0
107280,note_on,0,0,3,,,,,,,,,2,,,60,49
107280,note_on,720,0,1,,,,,,,,,0,,,77,0
107520,note_on,0,0,1,,,,,,,,,0,,,74,62
107520,control_change,0,0,1,,,,,,,,,0,64,0,,
107520,note_on,240,0,1,,,,,,,,,0,,,76,0
107520,note_on,0,0,3,,,,,,,,,2,,,58,49
107520,note_on,240,0,2,,,,,,,,,1,,,69,0
107520,control_change,0,0,2,,,,,,,,,1,64,0,,
107520,control_change,0,0,3,,,,,,,,,2,64,0,,
107520,note_on,0,0,2,,,,,,,,,1,,,70,88
107520,note_on,240,0,3,,,,,,,,,2,,,60,0
107760,note_on,0,0,3,,,,,,,,,2,,,53,49
107760,note_on,0,0,2,,,,,,,,,1,,,62,88
107760,note_on,240,0,2,,,,,,,,,1,,,70,0
107760,note_on,240,0,3,,,,,,,,,2,,,58,0
108000,note_on,240,0,3,,,,,,,,,2,,,53,0
108000,note_on,0,0,3,,,,,,,,,2,,,58,49
108000,note_on,240,0,2,,,,,,,,,1,,,62,0
108000,note_on,0,0,2,,,,,,,,,1,,,64,88
108240,note_on,720,0,1,,,,,,,,,0,,,74,0
108240,note_on,240,0,3,,,,,,,,,2,,,58,0
108240,note_on,0,0,3,,,,,,,,,2,,,57,49
108240,note_on,0,0,1,,,,,,,,,0,,,72,62
108240,note_on,0,0,2,,,,,,,,,1,,,65,88
108240,note_on,240,0,2,,,,,,,,,1,,,64,0
108480,note_on,240,0,1,,,,,,,,,0,,,72,0
108480,note_on,0,0,2,,,,,,,,,1,,,62,88
108480,note_on,0,0,1,,,,,,,,,0,,,71,62
108480,note_on,240,0,2,,,,,,,,,1,,,65,0
108480,note_on,0,0,3,,,,,,,,,2,,,56,49
108480,note_on,240,0,3,,,,,,,,,2,,,57,0
108720,note_on,240,0,3,,,,,,,,,2,,,56,0
108720,note_on,240,0,2,,,,,,,,,1,,,62,0
108720,note_on,0,0,3,,,,,,,,,2,,,55,49
108720,note_on,0,0,2,,,,,,,,,1,,,65,88
108960,note_on,0,0,2,,,,,,,,,1,,,72,88
108960,note_on,240,0,2,,,,,,,,,1,,,65,0
108960,note_on,0,0,3,,,,,,,,,2,,,48,49
108960,note_on,0,0,1,,,,,,,,,0,,,64,62
108960,note_on,480,0,1,,,,,,,,,0,,,71,0
108960,note_on,0,0,1,,,,,,,,,0,,,76,62
108960,note_on,240,0,3,,,,,,,,,2,,,55,0
109200,note_on,240,0,3,,,,,,,,,2,,,48,0
109200,note_on,0,0,3,,,,,,,,,2,,,60,49
109200,note_on,240,0,2,,,,,,,,,1,,,72,0
109200,note_on,0,0,2,,,,,,,,,1,,,70,88
109440,note_on,0,0,2,,,,,,,,,1,,,65,88
109440,note_on,240,0,3,,,,,,,,,2,,,53,49
109440,note_on,0,0,1,,,,,,,,,0,,,77,62
109440,note_on,0,0,1,,,,,,,,,0,,,64,0
109440,note_on,480,0,1,,,,,,,,,0,,,76,0
109440,note_on,0,0,2,,,,,,,,,1,,,69,88
109440,note_on,240,0,2,,,,,,,,,1,,,70,0
109680,note_on,240,0,1,,,,,,,,,0,,,77,0
109680,note_on,0,0,1,,,,,,,,,0,,,72,62
109680,note_on,240,0,3,,,,,,,,,2,,,53,0
109680,note_on,0,0,3,,,,,,,,,2,,,60,0
109680,note_on,0,0,3,,,,,,,,,2,,,57,49
109920,note_on,0,0,1,,,,,,,,,0,,,81,88
109920,note_on,0,0,2,,,,,,,,,1,,,72,75
109920,note_on,0,0,2,,,,,,,,,1,,,69,75
109920,note_on,480,0,2,,,,,,,,,1,,,69,0
109920,note_on,0,0,2,,,,,,,,,1,,,65,0
109920,note_on,240,0,3,,,,,,,,,2,,,57,0
109920,note_on,0,0,3,,,,,,,,,2,,,53,75
109920,note_on,240,0,1,,,,,,,,,0,,,72,0
109920,note_on,0,0,3,,,,,,,,,2,,,65,75
110160,note_on,0,0,1,,,,,,,,,0,,,79,88
110160,note_on,0,0,2,,,,,,,,,1,,,73,75
110160,note_on,0,0,3,,,,,,,,,2,,,53,0
110160,note_on,240,0,1,,,,,,,,,0,,,81,0
110160,note_on,240,0,3,,,,,,,,,2,,,65,0
110160,note_on,0,0,2,,,,,,,,,1,,,69,0
110160,note_on,0,0,2,,,,,,,,,1,,,67,75
110160,note_on,0,0,3,,,,,,,,,2,,,57,75
110160,note_on,0,0,3,,,,,,,,,2,,,64,75
110160,note_on,240,0,2,,,,,,,,,1,,,72,0
110400,note_on,240,0,1,,,,,,,,,0,,,79,0
110400,note_on,0,0,1,,,,,,,,,0,,,77,88
110400,note_on,240,0,2,,,,,,,,,1,,,73,0
110400,note_on,0,0,3,,,,,,,,,2,,,58,75
110400,note_on,240,0,3,,,,,,,,,2,,,64,0
110400,note_on,0,0,2,,,,,,,,,1,,,65,75
110400,note_on,0,0,2,,,,,,,,,1,,,67,0
110400,note_on,0,0,2,,,,,,,,,1,,,74,75
110400,note_on,0,0,3,,,,,,,,,2,,,57,0
110400,note_on,0,0,3,,,,,,,,,2,,,62,75
110640,note_on,0,0,3,,,,,,,,,2,,,58,0
110640,note_on,240,0,3,,,,,,,,,2,,,62,0
110640,note_on,0,0,2,,,,,,,,,1,,,62,75
110640,note_on,240,0,2,,,,,,,,,1,,,74,0
110640,note_on,0,0,2,,,,,,,,,1,,,65,0
110640,note_on,0,0,3,,,,,,,,,2,,,46,75
110880,note_on,0,0,2,,,,,,,,,1,,,65,75
110880,note_on,0,0,1,,,,,,,,,0,,,77,88
110880,note_on,0,0,2,,,,,,,,,1,,,74,75
110880,note_on,0,0,3,,,,,,,,,2,,,62,75
110880,note_on,240,0,3,,,,,,,,,2,,,46,0
110880,note_on,240,0,2,,,,,,,,,1,,,62,0
110880,note_on,480,0,1,,,,,,,,,0,,,77,0
110880,note_on,0,0,3,,,,,,,,,2,,,58,75
111120,note_on,0,0,2,,,,,,,,,1,,,63,75
111120,note_on,240,0,3,,,,,,,,,2,,,62,0
111120,note_on,0,0,2,,,,,,,,,1,,,69,75
111120,note_on,0,0,2,,,,,,,,,1,,,65,0
111120,note_on,0,0,3,,,,,,,,,2,,,54,75
111120,note_on,0,0,3,,,,,,,,,2,,,58,0
111120,note_on,0,0,3,,,,,,,,,2,,,60,75
111120,note_on,0,0,1,,,,,,,,,0,,,75,88
111120,note_on,240,0,1,,,,,,,,,0,,,77,0
111120,note_on,240,0,2,,,,,,,,,1,,,74,0
111360,note_on,0,0,3,,,,,,,,,2,,,55,75
111360,note_on,240,0,2,,,,,,,,,1,,,69,0
111360,note_on,0,0,1,,,,,,,,,0,,,74,88
111360,note_on,240,0,1,,,,,,,,,0,,,75,0
111360,note_on,0,0,2,,,,,,,,,1,,,62,75
111360,note_on,0,0,2,,,,,,,,,1,,,63,0
111360,note_on,0,0,2,,,,,,,,,1,,,70,75
111360,note_on,0,0,3,,,,,,,,,2,,,54,0
111360,note_on,240,0,3,,,,,,,,,2,,,60,0
111360,note_on,0,0,3,,,,,,,,,2,,,58,75
111600,note_on,0,0,3,,,,,,,,,2,,,55,0
111600,note_on,240,0,3,,,,,,,,,2,,,58,0
111600,note_on,0,0,2,,,,,,,,,1,,,58,75
111600,note_on,0,0,2,,,,,,,,,1,,,62,0
111600,note_on,240,0,2,,,,,,,,,1,,,70,0
111600,note_on,0,0,3,,,,,,,,,2,,,43,75
111840,note_on,240,0,3,,,,,,,,,2,,,43,0
111840,note_on,0,0,1,,,,,,,,,0,,,74,88
111840,note_on,240,0,2,,,,,,,,,1,,,58,0
111840,note_on,0,0,3,,,,,,,,,2,,,55,75
111840,note_on,480,0,1,,,,,,,,,0,,,74,0
111840,note_on,0,0,2,,,,,,,,,1,,,70,75
111840,note_on,0,0,3,,,,,,,,,2,,,58,75
112080,note_on,240,0,3,,,,,,,,,2,,,58,0
112080,note_on,0,0,1,,,,,,,,,0,,,73,88
112080,note_on,240,0,1,,,,,,,,,0,,,74,0
112080,note_on,240,0,2,,,,,,,,,1,,,70,0
112080,note_on,0,0,2,,,,,,,,,1,,,68,75
112080,note_on,0,0,3,,,,,,,,,2,,,55,0
112080,note_on,0,0,3,,,,,,,,,2,,,56,75
112080,note_on,0,0,3,,,,,,,,,2,,,61,75
112080,note_on,0,0,3,,,,,,,,,2,,,53,75
112320,note_on,0,0,3,,,,,,,,,2,,,52,75
112320,note_on,0,0,3,,,,,,,,,2,,,53,0
112320,note_on,0,0,3,,,,,,,,,2,,,55,75
112320,note_on,0,0,3,,,,,,,,,2,,,56,0
112320,note_on,0,0,3,,,,,,,,,2,,,60,75
112320,note_on,0,0,1,,,,,,,,,0,,,72,88
112320,note_on,240,0,1,,,,,,,,,0,,,73,0
112320,note_on,0,0,2,,,,,,,,,1,,,67,75
112320,note_on,240,0,3,,,,,,,,,2,,,61,0
112320,note_on,240,0,2,,,,,,,,,1,,,68,0
112560,note_on,0,0,1,,,,,,,,,0,,,74,88
112560,note_on,240,0,3,,,,,,,,,2,,,60,0
112560,note_on,0,0,3,,,,,,,,,2,,,53,75
112560,note_on,240,0,2,,,,,,,,,1,,,67,0
112560,note_on,240,0,1,,,,,,,,,0,,,72,0
112560,note_on,0,0,2,,,,,,,,,1,,,71,75
112560,note_on,0,0,3,,,,,,,,,2,,,52,0
112560,note_on,0,0,3,,,,,,,,,2,,,56,75
112560,note_on,0,0,3,,,,,,,,,2,,,59,75
112560,note_on,0,0,3,,,,,,,,,2,,,55,0
112800,note_on,240,0,1,,,,,,,,,0,,,74,0
112800,note_on,0,0,3,,,,,,,,,2,,,55,75
112800,note_on,0,0,3,,,,,,,,,2,,,53,0
112800,note_on,0,0,3,,,,,,,,,2,,,52,75
112800,note_on,240,0,3,,,,,,,,,2,,,59,0
112800,note_on,0,0,3,,,,,,,,,2,,,60,75
112800,note_on,0,0,1,,,,,,,,,0,,,79,88
112800,note_on,0,0,3,,,,,,,,,2,,,56,0
112800,note_on,0,0,2,,,,,,,,,1,,,72,75
112800,note_on,240,0,2,,,,,,,,,1,,,71,0
113040,note_on,240,0,2,,,,,,,,,1,,,72,0
113040,note_on,0,0,3,,,,,,,,,2,,,48,75
113040,note_on,240,0,3,,,,,,,,,2,,,60,0
113040,note_on,0,0,3,,,,,,,,,2,,,52,0
113040,note_on,0,0,2,,,,,,,,,1,,,67,75
113040,note_on,0,0,3,,,,,,,,,2,,,60,75
113040,note_on,240,0,1,,,,,,,,,0,,,79,0
113040,note_on,0,0,3,,,,,,,,,2,,,55,0
113040,note_on,0,0,1,,,,,,,,,0,,,76,88
113040,note_on,0,0,2,,,,,,,,,1,,,70,75
113280,note_on,240,0,3,,,,,,,,,2,,,60,0
113280,note_on,0,0,3,,,,,,,,,2,,,60,75
113280,note_on,0,0,3,,,,,,,,,2,,,53,75
113280,note_on,0,0,3,,,,,,,,,2,,,48,0
113280,note_on,240,0,2,,,,,,,,,1,,,70,0
113280,note_on,0,0,2,,,,,,,,,1,,,67,0
113280,note_on,240,0,1,,,,,,,,,0,,,76,0
113280,note_on,0,0,1,,,,,,,,,0,,,69,88
113280,note_on,0,0,1,,,,,,,,,0,,,77,88
113520,note_on,0,0,3,,,,,,,,,2,,,57,75
113520,note_on,0,0,3,,,,,,,,,2,,,53,0
113520,note_on,0,0,1,,,,,,,,,0,,,69,88
113520,note_on,240,0,3,,,,,,,,,2,,,60,0
113520,note_on,42480,0,4,,,,,,,,,3,,,57,75
113520,note_on,0,0,1,,,,,,,,,0,,,69,0
113520,note_on,240,0,1,,,,,,,,,0,,,77,0
113760,note_on,240,0,3,,,,,,,,,2,,,57,0
113760,note_on,0,0,1,,,,,,,,,0,,,72,88
113760,note_on,240,0,1,,,,,,,,,0,,,69,0
113760,note_on,0,0,1,,,,,,,,,0,,,81,88
113760,note_on,0,0,3,,,,,,,,,2,,,65,75
114000,note_on,240,0,3,,,,,,,,,2,,,65,0
114000,note_on,0,0,1,,,,,,,,,0,,,79,88
114000,note_on,0,0,1,,,,,,,,,0,,,73,88
114000,note_on,0,0,1,,,,,,,,,0,,,72,0
114000,note_on,0,0,3,,,,,,,,,2,,,64,75
114000,note_on,240,0,1,,,,,,,,,0,,,81,0
114000,note_on,480,0,4,,,,,,,,,3,,,57,0
114240,note_on,240,0,3,,,,,,,,,2,,,64,0
114240,note_on,0,0,3,,,,,,,,,2,,,62,49
114240,note_on,0,0,1,,,,,,,,,0,,,73,0
114240,note_on,0,0,1,,,,,,,,,0,,,74,62
114240,note_on,0,0,1,,,,,,,,,0,,,77,62
114240,note_on,240,0,1,,,,,,,,,0,,,79,0
114480,note_on,0,0,3,,,,,,,,,2,,,57,49
114480,note_on,240,0,3,,,,,,,,,2,,,62,0
114480,note_on,240,0,1,,,,,,,,,0,,,77,0
114480,note_on,0,0,1,,,,,,,,,0,,,69,62
114480,note_on,0,0,1,,,,,,,,,0,,,74,0
114720,note_on,0,0,1,,,,,,,,,0,,,73,62
114720,note_on,0,0,1,,,,,,,,,0,,,79,62
114720,note_on,240,0,1,,,,,,,,,0,,,69,0
114720,note_on,0,0,3,,,,,,,,,2,,,64,49
114720,note_on,240,0,3,,,,,,,,,2,,,57,0
114720,note_on,720,0,4,,,,,,,,,3,,,57,49
114960,note_on,0,0,1,,,,,,,,,0,,,77,62
114960,note_on,0,0,1,,,,,,,,,0,,,74,62
114960,note_on,0,0,1,,,,,,,,,0,,,73,0
114960,note_on,240,0,3,,,,,,,,,2,,,64,0
114960,note_on,240,0,1,,,,,,,,,0,,,79,0
114960,note_on,0,0,3,,,,,,,,,2,,,62,49
114960,note_on,0,0,3,,,,,,,,,2,,,57,49
115200,note_on,480,0,4,,,,,,,,,3,,,57,0
115200,note_on,240,0,3,,,,,,,,,2,,,62,0
115200,note_on,240,0,1,,,,,,,,,0,,,77,0
115200,note_on,0,0,1,,,,,,,,,0,,,74,0
115200,note_on,0,0,3,,,,,,,,,2,,,57,0
115200,note_on,0,0,3,,,,,,,,,2,,,61,49
115200,note_on,0,0,1,,,,,,,,,0,,,76,62
115440,note_on,240,0,3,,,,,,,,,2,,,61,0
115440,note_on,240,0,1,,,,,,,,,0,,,76,0
115440,note_on,0,0,1,,,,,,,,,0,,,69,62
115440,note_on,0,0,3,,,,,,,,,2,,,57,49
115680,note_on,0,0,3,,,,,,,,,2,,,67,49
115680,note_on,240,0,1,,,,,,,,,0,,,69,0
115680,note_on,0,0,1,,,,,,,,,0,,,82,62
115680,note_on,0,0,1,,,,,,,,,0,,,73,62
115680,note_on,240,0,3,,,,,,,,,2,,,57,0
115680,note_on,480,0,4,,,,,,,,,3,,,57,49
115920,note_on,0,0,1,,,,,,,,,0,,,73,0
115920,note_on,0,0,1,,,,,,,,,0,,,81,62
115920,note_on,240,0,3,,,,,,,,,2,,,67,0
115920,note_on,0,0,1,,,,,,,,,0,,,74,62
115920,note_on,240,0,1,,,,,,,,,0,,,82,0
115920,note_on,0,0,3,,,,,,,,,2,,,65,49
116160,note_on,240,0,3,,,,,,,,,2,,,65,0
116160,note_on,240,0,1,,,,,,,,,0,,,81,0
116160,note_on,0,0,3,,,,,,,,,2,,,64,49
116160,note_on,0,0,1,,,,,,,,,0,,,74,0
116160,note_on,0,0,1,,,,,,,,,0,,,76,62
116160,note_on,0,0,1,,,,,,,,,0,,,79,62
116400,note_on,240,0,3,,,,,,,,,2,,,64,0
116400,note_on,0,0,1,,,,,,,,,0,,,76,0
116400,note_on,240,0,1,,,,,,,,,0,,,79,0
116400,note_on,0,0,3,,,,,,,,,2,,,57,49
116400,note_on,0,0,1,,,,,,,,,0,,,69,62
116640,note_on,240,0,1,,,,,,,,,0,,,69,0
116640,note_on,0,0,1,,,,,,,,,0,,,81,62
116640,note_on,960,0,4,,,,,,,,,3,,,57,0
116640,note_on,0,0,4,,,,,,,,,3,,,57,49
116640,note_on,0,0,3,,,,,,,,,2,,,65,49
116640,note_on,240,0,3,,,,,,,,,2,,,57,0
116640,note_on,0,0,1,,,,,,,,,0,,,72,62
116880,note_on,0,0,1,,,,,,,,,0,,,72,0
116880,note_on,0,0,1,,,,,,,,,0,,,73,62
116880,note_on,240,0,3,,,,,,,,,2,,,65,0
116880,note_on,0,0,3,,,,,,,,,2,,,64,49
116880,note_on,0,0,1,,,,,,,,,0,,,79,62
116880,note_on,240,0,1,,,,,,,,,0,,,81,0
117120,note_on,480,0,4,,,,,,,,,3,,,57,0
117120,note_on,0,0,3,,,,,,,,,2,,,62,49
117120,note_on,3840,0,2,,,,,,,,,1,,,74,75
117120,note_on,0,0,1,,,,,,,,,0,,,73,0
117120,note_on,0,0,1,,,,,,,,,0,,,77,62
117120,note_on,240,0,1,,,,,,,,,0,,,79,0
117120,note_on,240,0,3,,,,,,,,,2,,,64,0
117360,note_on,0,0,2,,,,,,,,,1,,,69,75
117360,note_on,240,0,2,,,,,,,,,1,,,74,0
117360,note_on,0,0,3,,,,,,,,,2,,,50,49
117360,note_on,240,0,3,,,,,,,,,2,,,62,0
117600,note_on,0,0,1,,,,,,,,,0,,,79,62
117600,note_on,240,0,3,,,,,,,,,2,,,50,0
117600,note_on,0,0,3,,,,,,,,,2,,,64,49
117600,note_on,480,0,1,,,,,,,,,0,,,77,0
117840,note_on,240,0,1,,,,,,,,,0,,,79,0
117840,note_on,0,0,3,,,,,,,,,2,,,65,49
117840,note_on,0,0,1,,,,,,,,,0,,,81,62
117840,note_on,240,0,3,,,,,,,,,2,,,64,0
118080,note_on,960,0,4,,,,,,,,,3,,,55,49
118080,note_on,720,0,2,,,,,,,,,1,,,69,0
118080,note_on,0,0,2,,,,,,,,,1,,,71,75
118320,note_on,0,0,3,,,,,,,,,2,,,65,49
118320,note_on,0,0,1,,,,,,,,,0,,,80,62
118320,note_on,480,0,1,,,,,,,,,0,,,81,0
118320,note_on,480,0,3,,,,,,,,,2,,,65,0
118560,note_on,0,0,1,,,,,,,,,0,,,79,62
118560,note_on,240,0,1,,,,,,,,,0,,,80,0
118560,note_on,0,0,3,,,,,,,,,2,,,64,49
118560,note_on,240,0,3,,,,,,,,,2,,,65,0
118800,note_on,240,0,3,,,,,,,,,2,,,64,0
118800,note_on,0,0,1,,,,,,,,,0,,,77,62
118800,note_on,240,0,1,,,,,,,,,0,,,79,0
118800,note_on,0,0,3,,,,,,,,,2,,,62,49
119040,note_on,0,0,3,,,,,,,,,2,,,60,49
119040,note_on,240,0,3,,,,,,,,,2,,,62,0
119040,note_on,0,0,1,,,,,,,,,0,,,72,62
119040,note_on,240,0,1,,,,,,,,,0,,,77,0
119040,control_change,0,0,3,,,,,,,,,2,64,127,,
119040,note_on,960,0,4,,,,,,,,,3,,,55,0
119040,note_on,0,0,1,,,,,,,,,0,,,76,62
119040,control_change,0,0,1,,,,,,,,,0,64,127,,
119040,note_on,960,0,2,,,,,,,,,1,,,71,0
119280,note_on,0,0,1,,,,,,,,,0,,,72,0
119280,note_on,0,0,1,,,,,,,,,0,,,72,62
119280,note_on,0,0,3,,,,,,,,,2,,,60,49
119280,note_on,240,0,3,,,,,,,,,2,,,60,0
119280,note_on,240,0,1,,,,,,,,,0,,,76,0
119520,note_on,0,0,1,,,,,,,,,0,,,86,62
119520,note_on,240,0,1,,,,,,,,,0,,,72,0
119520,note_on,0,0,3,,,,,,,,,2,,,70,49
119520,note_on,240,0,3,,,,,,,,,2,,,60,0
119760,note_on,0,0,1,,,,,,,,,0,,,84,62
119760,note_on,240,0,1,,,,,,,,,0,,,86,0
119760,note_on,0,0,3,,,,,,,,,2,,,69,49
119760,note_on,240,0,3,,,,,,,,,2,,,70,0
120000,note_on,0,0,1,,,,,,,,,0,,,82,62
120000,note_on,240,0,1,,,,,,,,,0,,,84,0
120000,note_on,240,0,3,,,,,,,,,2,,,69,0
120000,note_on,0,0,3,,,,,,,,,2,,,67,49
120240,note_on,240,0,1,,,,,,,,,0,,,82,0
120240,note_on,240,0,3,,,,,,,,,2,,,67,0
120240,note_on,0,0,1,,,,,,,,,0,,,72,62
120240,note_on,0,0,3,,,,,,,,,2,,,60,49
120480,note_on,0,0,3,,,,,,,,,2,,,69,49
120480,note_on,240,0,3,,,,,,,,,2,,,60,0
120480,note_on,0,0,1,,,,,,,,,0,,,84,62
120480,note_on,240,0,1,,,,,,,,,0,,,72,0
120720,note_on,240,0,3,,,,,,,,,2,,,69,0
120720,note_on,0,0,3,,,,,,,,,2,,,67,49
120720,control_change,0,0,1,,,,,,,,,0,64,0,,
120720,control_change,0,0,3,,,,,,,,,2,64,0,,
120720,note_on,240,0,1,,,,,,,,,0,,,84,0
120720,note_on,0,0,1,,,,,,,,,0,,,82,62
120960,note_on,240,0,3,,,,,,,,,2,,,67,0
120960,control_change,0,0,1,,,,,,,,,0,64,127,,
120960,control_change,0,0,3,,,,,,,,,2,64,127,,
120960,note_on,0,0,3,,,,,,,,,2,,,65,49
120960,note_on,240,0,1,,,,,,,,,0,,,82,0
120960,note_on,0,0,1,,,,,,,,,0,,,81,62
121200,note_on,240,0,1,,,,,,,,,0,,,81,0
121200,note_on,240,0,3,,,,,,,,,2,,,65,0
121200,note_on,0,0,1,,,,,,,,,0,,,72,62
121200,note_on,0,0,3,,,,,,,,,2,,,60,49
121440,note_on,0,0,3,,,,,,,,,2,,,67,49
121440,note_on,0,0,1,,,,,,,,,0,,,82,62
121440,note_on,240,0,3,,,,,,,,,2,,,60,0
121440,note_on,240,0,1,,,,,,,,,0,,,72,0
121680,note_on,0,0,1,,,,,,,,,0,,,81,62
121680,note_on,0,0,3,,,,,,,,,2,,,65,49
121680,note_on,240,0,3,,,,,,,,,2,,,67,0
121680,note_on,240,0,1,,,,,,,,,0,,,82,0
121920,note_on,0,0,1,,,,,,,,,0,,,79,62
121920,note_on,0,0,3,,,,,,,,,2,,,64,49
121920,note_on,240,0,3,,,,,,,,,2,,,65,0
121920,note_on,240,0,1,,,,,,,,,0,,,81,0
122160,note_on,240,0,1,,,,,,,,,0,,,79,0
122160,note_on,240,0,3,,,,,,,,,2,,,64,0
122160,note_on,0,0,3,,,,,,,,,2,,,60,49
122160,note_on,0,0,1,,,,,,,,,0,,,72,62
122400,note_on,0,0,1,,,,,,,,,0,,,86,62
122400,note_on,0,0,1,,,,,,,,,0,,,76,62
122400,note_on,240,0,3,,,,,,,,,2,,,60,0
122400,note_on,0,0,3,,,,,,,,,2,,,70,49
122400,note_on,240,0,1,,,,,,,,,0,,,72,0
122640,note_on,240,0,1,,,,,,,,,0,,,86,0
122640,note_on,0,0,1,,,,,,,,,0,,,76,0
122640,note_on,0,0,1,,,,,,,,,0,,,77,62
122640,note_on,0,0,1,,,,,,,,,0,,,84,62
122640,note_on,240,0,3,,,,,,,,,2,,,70,0
122640,note_on,0,0,3,,,,,,,,,2,,,69,49
122880,note_on,240,0,1,,,,,,,,,0,,,84,0
122880,note_on,0,0,1,,,,,,,,,0,,,82,62
122880,note_on,240,0,3,,,,,,,,,2,,,69,0
122880,note_on,0,0,1,,,,,,,,,0,,,77,0
122880,note_on,0,0,1,,,,,,,,,0,,,79,62
122880,note_on,0,0,3,,,,,,,,,2,,,67,49
123120,note_on,0,0,3,,,,,,,,,2,,,60,49
123120,note_on,240,0,1,,,,,,,,,0,,,82,0
123120,note_on,240,0,3,,,,,,,,,2,,,67,0
123120,note_on,0,0,1,,,,,,,,,0,,,72,62
123120,note_on,0,0,1,,,,,,,,,0,,,79,0
123360,note_on,240,0,3,,,,,,,,,2,,,60,0
123360,note_on,0,0,3,,,,,,,,,2,,,69,49
123360,note_on,0,0,1,,,,,,,,,0,,,84,62
123360,note_on,0,0,1,,,,,,,,,0,,,76,62
123360,note_on,240,0,1,,,,,,,,,0,,,72,0
123600,note_on,240,0,1,,,,,,,,,0,,,84,0
123600,note_on,0,0,1,,,,,,,,,0,,,76,0
123600,note_on,0,0,1,,,,,,,,,0,,,82,62
123600,note_on,0,0,1,,,,,,,,,0,,,79,62
123600,note_on,0,0,3,,,,,,,,,2,,,67,49
123600,note_on,240,0,3,,,,,,,,,2,,,69,0
123840,note_on,240,0,1,,,,,,,,,0,,,82,0
123840,note_on,0,0,1,,,,,,,,,0,,,79,0
123840,note_on,0,0,1,,,,,,,,,0,,,81,62
123840,note_on,0,0,3,,,,,,,,,2,,,65,49
123840,note_on,240,0,3,,,,,,,,,2,,,67,0
124080,note_on,240,0,1,,,,,,,,,0,,,81,0
124080,note_on,240,0,3,,,,,,,,,2,,,65,0
124080,note_on,0,0,3,,,,,,,,,2,,,60,49
124080,note_on,0,0,1,,,,,,,,,0,,,69,62
124320,note_on,0,0,3,,,,,,,,,2,,,67,49
124320,note_on,0,0,1,,,,,,,,,0,,,82,62
124320,note_on,240,0,3,,,,,,,,,2,,,60,0
124320,note_on,240,0,1,,,,,,,,,0,,,69,0
124560,note_on,240,0,1,,,,,,,,,0,,,82,0
124560,note_on,0,0,1,,,,,,,,,0,,,81,62
124560,note_on,240,0,3,,,,,,,,,2,,,67,0
124560,control_change,0,0,1,,,,,,,,,0,64,0,,
124560,note_on,0,0,3,,,,,,,,,2,,,65,49
124560,control_change,0,0,3,,,,,,,,,2,64,0,,
124800,control_change,5760,0,2,,,,,,,,,1,64,127,,
124800,control_change,5760,0,4,,,,,,,,,3,64,127,,
124800,note_on,240,0,3,,,,,,,,,2,,,65,0
124800,note_on,240,0,1,,,,,,,,,0,,,81,0
124800,note_on,0,0,4,,,,,,,,,3,,,64,49
124800,note_on,0,0,2,,,,,,,,,1,,,79,75
125040,note_on,0,0,2,,,,,,,,,1,,,84,75
125040,note_on,240,0,3,,,,,,,,,2,,,72,49
125040,note_on,0,0,4,,,,,,,,,3,,,72,49
125040,note_on,240,0,1,,,,,,,,,0,,,84,62
125040,note_on,240,0,4,,,,,,,,,3,,,64,0
125040,note_on,240,0,2,,,,,,,,,1,,,79,0
125280,note_on,0,0,2,,,,,,,,,1,,,76,75
125280,note_on,0,0,4,,,,,,,,,3,,,60,49
125280,note_on,240,0,2,,,,,,,,,1,,,84,0
125280,note_on,240,0,4,,,,,,,,,3,,,72,0
125520,note_on,0,0,4,,,,,,,,,3,,,62,49
125520,note_on,240,0,4,,,,,,,,,3,,,60,0
125520,note_on,0,0,2,,,,,,,,,1,,,77,75
125520,note_on,240,0,2,,,,,,,,,1,,,76,0
125760,note_on,240,0,4,,,,,,,,,3,,,62,0
125760,note_on,0,0,2,,,,,,,,,1,,,79,75
125760,note_on,0,0,4,,,,,,,,,3,,,64,49
125760,note_on,720,0,3,,,,,,,,,2,,,72,0
125760,note_on,720,0,1,,,,,,,,,0,,,84,0
125760,note_on,240,0,2,,,,,,,,,1,,,77,0
126000,note_on,0,0,2,,,,,,,,,1,,,84,75
126000,note_on,0,0,4,,,,,,,,,3,,,72,49
126000,note_on,240,0,2,,,,,,,,,1,,,79,0
126000,note_on,240,0,3,,,,,,,,,2,,,72,49
126000,note_on,240,0,4,,,,,,,,,3,,,64,0
126000,note_on,240,0,1,,,,,,,,,0,,,84,62
126240,note_on,0,0,4,,,,,,,,,3,,,62,49
126240,note_on,240,0,4,,,,,,,,,3,,,72,0
126240,note_on,240,0,2,,,,,,,,,1,,,84,0
126240,note_on,0,0,2,,,,,,,,,1,,,77,75
126480,note_on,240,0,4,,,,,,,,,3,,,62,0
126480,note_on,0,0,4,,,,,,,,,3,,,64,49
126480,note_on,240,0,2,,,,,,,,,1,,,77,0
126480,note_on,0,0,2,,,,,,,,,1,,,79,75
126720,note_on,720,0,3,,,,,,,,,2,,,72,0
126720,note_on,0,0,2,,,,,,,,,1,,,81,75
126720,note_on,720,0,1,,,,,,,,,0,,,84,0
126720,note_on,0,0,4,,,,,,,,,3,,,65,49
126720,note_on,240,0,2,,,,,,,,,1,,,79,0
126720,note_on,240,0,4,,,,,,,,,3,,,64,0
126960,note_on,0,0,2,,,,,,,,,1,,,84,75
126960,note_on,240,0,2,,,,,,,,,1,,,81,0
126960,note_on,240,0,1,,,,,,,,,0,,,84,62
126960,note_on,240,0,4,,,,,,,,,3,,,65,0
126960,note_on,240,0,3,,,,,,,,,2,,,72,49
126960,note_on,0,0,4,,,,,,,,,3,,,72,49
127200,note_on,0,0,2,,,,,,,,,1,,,77,75
127200,note_on,240,0,2,,,,,,,,,1,,,84,0
127200,note_on,240,0,4,,,,,,,,,3,,,72,0
127200,note_on,0,0,4,,,,,,,,,3,,,62,49
127440,note_on,0,0,2,,,,,,,,,1,,,79,75
127440,note_on,240,0,2,,,,,,,,,1,,,77,0
127440,note_on,240,0,4,,,,,,,,,3,,,62,0
127440,note_on,0,0,4,,,,,,,,,3,,,64,49
127680,note_on,720,0,3,,,,,,,,,2,,,72,0
127680,note_on,240,0,2,,,,,,,,,1,,,79,0
127680,note_on,0,0,4,,,,,,,,,3,,,65,49
127680,note_on,720,0,1,,,,,,,,,0,,,84,0
127680,note_on,240,0,4,,,,,,,,,3,,,64,0
127680,note_on,0,0,2,,,,,,,,,1,,,81,75
127920,note_on,0,0,2,,,,,,,,,1,,,84,75
127920,note_on,240,0,2,,,,,,,,,1,,,81,0
127920,note_on,0,0,4,,,,,,,,,3,,,72,49
127920,note_on,240,0,3,,,,,,,,,2,,,72,49
127920,note_on,240,0,4,,,,,,,,,3,,,65,0
127920,note_on,240,0,1,,,,,,,,,0,,,84,62
128160,note_on,240,0,2,,,,,,,,,1,,,84,0
128160,note_on,240,0,4,,,,,,,,,3,,,72,0
128160,note_on,0,0,4,,,,,,,,,3,,,64,49
128160,note_on,0,0,2,,,,,,,,,1,,,79,75
128400,note_on,0,0,2,,,,,,,,,1,,,81,75
128400,control_change,0,0,4,,,,,,,,,3,64,0,,
128400,note_on,0,0,4,,,,,,,,,3,,,65,49
128400,control_change,0,0,2,,,,,,,,,1,64,0,,
128400,note_on,240,0,4,,,,,,,,,3,,,64,0
128400,note_on,240,0,2,,,,,,,,,1,,,79,0
128640,note_on,0,0,1,,,,,,,,,0,,,82,75
128640,note_on,240,0,2,,,,,,,,,1,,,81,0
128640,note_on,0,0,3,,,,,,,,,2,,,67,62
128640,note_on,720,0,1,,,,,,,,,0,,,84,0
128640,control_change,0,0,1,,,,,,,,,0,64,127,,
128640,note_on,720,0,3,,,,,,,,,2,,,72,0
128640,note_on,240,0,4,,,,,,,,,3,,,65,0
128880,note_on,240,0,3,,,,,,,,,2,,,67,0
128880,note_on,0,0,1,,,,,,,,,0,,,84,101
128880,note_on,0,0,3,,,,,,,,,2,,,64,62
128880,note_on,240,0,1,,,,,,,,,0,,,82,0
128880,note_on,0,0,1,,,,,,,,,0,,,79,101
128880,note_on,0,0,3,,,,,,,,,2,,,72,62
129120,note_on,240,0,1,,,,,,,,,0,,,84,0
129120,note_on,240,0,3,,,,,,,,,2,,,72,0
129120,note_on,0,0,3,,,,,,,,,2,,,64,0
129120,note_on,0,0,3,,,,,,,,,2,,,65,62
129120,note_on,0,0,1,,,,,,,,,0,,,81,75
129120,note_on,0,0,1,,,,,,,,,0,,,79,0
129360,note_on,240,0,1,,,,,,,,,0,,,81,0
129360,note_on,0,0,1,,,,,,,,,0,,,82,101
129360,note_on,0,0,1,,,,,,,,,0,,,77,101
129360,note_on,240,0,3,,,,,,,,,2,,,65,0
129360,note_on,0,0,3,,,,,,,,,2,,,70,62
129360,note_on,0,0,3,,,,,,,,,2,,,62,62
129600,note_on,240,0,3,,,,,,,,,2,,,70,0
129600,note_on,240,0,1,,,,,,,,,0,,,82,0
129600,note_on,0,0,1,,,,,,,,,0,,,79,88
129600,note_on,0,0,1,,,,,,,,,0,,,77,0
129600,note_on,0,0,3,,,,,,,,,2,,,62,0
129600,note_on,0,0,3,,,,,,,,,2,,,64,75
129840,note_on,0,0,3,,,,,,,,,2,,,60,75
129840,note_on,0,0,3,,,,,,,,,2,,,69,75
129840,note_on,0,0,1,,,,,,,,,0,,,76,114
129840,note_on,0,0,1,,,,,,,,,0,,,81,114
129840,note_on,240,0,3,,,,,,,,,2,,,64,0
129840,note_on,240,0,1,,,,,,,,,0,,,79,0
130080,note_on,240,0,3,,,,,,,,,2,,,69,0
130080,note_on,240,0,1,,,,,,,,,0,,,81,0
130080,note_on,0,0,1,,,,,,,,,0,,,77,88
130080,note_on,0,0,1,,,,,,,,,0,,,76,0
130080,note_on,0,0,3,,,,,,,,,2,,,62,75
130080,note_on,0,0,3,,,,,,,,,2,,,60,0
130320,note_on,240,0,1,,,,,,,,,0,,,77,0
130320,note_on,0,0,3,,,,,,,,,2,,,59,75
130320,note_on,0,0,3,,,,,,,,,2,,,67,75
130320,note_on,0,0,1,,,,,,,,,0,,,79,114
130320,note_on,240,0,3,,,,,,,,,2,,,62,0
130320,control_change,0,0,1,,,,,,,,,0,64,0,,
130320,note_on,0,0,1,,,,,,,,,0,,,74,114
130560,note_on,240,0,3,,,,,,,,,2,,,67,0
130560,note_on,0,0,3,,,,,,,,,2,,,59,0
130560,note_on,0,0,3,,,,,,,,,2,,,60,75
130560,note_on,0,0,1,,,,,,,,,0,,,76,88
130560,note_on,0,0,1,,,,,,,,,0,,,74,0
130560,note_on,240,0,1,,,,,,,,,0,,,79,0
130800,note_on,0,0,3,,,,,,,,,2,,,57,75
130800,note_on,0,0,3,,,,,,,,,2,,,65,75
130800,note_on,0,0,1,,,,,,,,,0,,,72,114
130800,note_on,0,0,1,,,,,,,,,0,,,77,114
130800,note_on,240,0,3,,,,,,,,,2,,,60,0
130800,note_on,240,0,1,,,,,,,,,0,,,76,0
131040,note_on,0,0,3,,,,,,,,,2,,,57,0
131040,note_on,0,0,3,,,,,,,,,2,,,58,75
131040,note_on,0,0,1,,,,,,,,,0,,,72,0
131040,note_on,0,0,1,,,,,,,,,0,,,74,88
131040,note_on,240,0,3,,,,,,,,,2,,,65,0
131040,note_on,240,0,1,,,,,,,,,0,,,77,0
131280,note_on,240,0,3,,,,,,,,,2,,,58,0
131280,note_on,240,0,1,,,,,,,,,0,,,74,0
131280,note_on,0,0,3,,,,,,,,,2,,,64,75
131280,note_on,0,0,1,,,,,,,,,0,,,76,114
131280,note_on,0,0,1,,,,,,,,,0,,,70,114
131280,note_on,0,0,3,,,,,,,,,2,,,55,75
131520,note_on,240,0,1,,,,,,,,,0,,,76,0
131520,note_on,0,0,3,,,,,,,,,2,,,55,0
131520,note_on,240,0,3,,,,,,,,,2,,,64,0
131520,note_on,0,0,3,,,,,,,,,2,,,57,75
131520,note_on,0,0,1,,,,,,,,,0,,,70,0
131520,note_on,0,0,1,,,,,,,,,0,,,72,88
131760,note_on,240,0,3,,,,,,,,,2,,,57,0
131760,note_on,0,0,1,,,,,,,,,0,,,69,114
131760,note_on,0,0,1,,,,,,,,,0,,,74,114
131760,note_on,240,0,1,,,,,,,,,0,,,72,0
131760,note_on,0,0,3,,,,,,,,,2,,,54,75
131760,note_on,0,0,3,,,,,,,,,2,,,62,75
132000,note_on,240,0,3,,,,,,,,,2,,,62,0
132000,note_on,0,0,1,,,,,,,,,0,,,69,0
132000,note_on,0,0,1,,,,,,,,,0,,,70,88
132000,note_on,240,0,1,,,,,,,,,0,,,74,0
132000,note_on,0,0,3,,,,,,,,,2,,,55,75
132000,note_on,0,0,3,,,,,,,,,2,,,54,0
132240,note_on,0,0,1,,,,,,,,,0,,,67,114
132240,note_on,240,0,1,,,,,,,,,0,,,70,0
132240,note_on,240,0,3,,,,,,,,,2,,,55,0
132240,note_on,0,0,3,,,,,,,,,2,,,52,75
132240,note_on,0,0,3,,,,,,,,,2,,,60,75
132240,note_on,0,0,1,,,,,,,,,0,,,72,114
132480,note_on,240,0,1,,,,,,,,,0,,,72,0
132480,note_on,0,0,3,,,,,,,,,2,,,65,75
132480,note_on,0,0,3,,,,,,,,,2,,,52,0
132480,note_on,0,0,1,,,,,,,,,0,,,81,88
132480,note_on,0,0,1,,,,,,,,,0,,,67,0
132480,note_on,0,0,3,,,,,,,,,2,,,53,75
132480,note_on,240,0,3,,,,,,,,,2,,,60,0
132720,note_on,0,0,1,,,,,,,,,0,,,69,88
132720,note_on,240,0,1,,,,,,,,,0,,,81,0
132960,note_on,0,0,1,,,,,,,,,0,,,81,88
132960,note_on,0,0,1,,,,,,,,,0,,,72,88
132960,note_on,240,0,1,,,,,,,,,0,,,69,0
133200,note_on,0,0,1,,,,,,,,,0,,,72,0
133200,note_on,0,0,3,,,,,,,,,2,,,52,101
133200,note_on,0,0,1,,,,,,,,,0,,,79,88
133200,note_on,0,0,1,,,,,,,,,0,,,73,88
133200,note_on,720,0,3,,,,,,,,,2,,,65,0
133200,note_on,240,0,1,,,,,,,,,0,,,81,0
133200,note_on,0,0,3,,,,,,,,,2,,,53,0
133200,note_on,0,0,3,,,,,,,,,2,,,64,101
133440,note_on,0,0,1,,,,,,,,,0,,,77,88
133440,note_on,0,0,1,,,,,,,,,0,,,74,88
133440,note_on,240,0,1,,,,,,,,,0,,,79,0
133440,note_on,0,0,3,,,,,,,,,2,,,50,101
133440,note_on,0,0,1,,,,,,,,,0,,,73,0
133440,note_on,0,0,3,,,,,,,,,2,,,52,0
133440,note_on,240,0,3,,,,,,,,,2,,,64,0
133440,note_on,0,0,3,,,,,,,,,2,,,62,101
133680,note_on,0,0,1,,,,,,,,,0,,,65,88
133680,note_on,0,0,1,,,,,,,,,0,,,74,0
133680,note_on,240,0,1,,,,,,,,,0,,,77,0
133920,note_on,240,0,1,,,,,,,,,0,,,65,0
133920,note_on,0,0,1,,,,,,,,,0,,,68,88
133920,note_on,0,0,1,,,,,,,,,0,,,77,88
134160,note_on,0,0,1,,,,,,,,,0,,,68,0
134160,note_on,0,0,1,,,,,,,,,0,,,69,88
134160,note_on,0,0,1,,,,,,,,,0,,,76,88
134160,note_on,720,0,3,,,,,,,,,2,,,62,0
134160,note_on,240,0,1,,,,,,,,,0,,,77,0
134160,note_on,0,0,3,,,,,,,,,2,,,50,0
134160,note_on,0,0,3,,,,,,,,,2,,,60,101
134160,note_on,0,0,3,,,,,,,,,2,,,48,101
134400,note_on,0,0,1,,,,,,,,,0,,,69,0
134400,note_on,0,0,3,,,,,,,,,2,,,46,101
134400,note_on,0,0,3,,,,,,,,,2,,,48,0
134400,note_on,0,0,3,,,,,,,,,2,,,58,101
134400,note_on,240,0,3,,,,,,,,,2,,,60,0
134400,note_on,0,0,1,,,,,,,,,0,,,70,101
134400,note_on,0,0,1,,,,,,,,,0,,,74,101
134400,note_on,240,0,1,,,,,,,,,0,,,76,0
134640,note_on,0,0,1,,,,,,,,,0,,,74,101
134640,note_on,0,0,1,,,,,,,,,0,,,70,0
134640,note_on,240,0,1,,,,,,,,,0,,,74,0
134880,note_on,0,0,1,,,,,,,,,0,,,86,101
134880,note_on,0,0,1,,,,,,,,,0,,,77,101
134880,note_on,240,0,1,,,,,,,,,0,,,74,0
135120,note_on,0,0,1,,,,,,,,,0,,,78,101
135120,note_on,0,0,3,,,,,,,,,2,,,57,101
135120,note_on,0,0,3,,,,,,,,,2,,,46,0
135120,note_on,720,0,3,,,,,,,,,2,,,58,0
135120,note_on,0,0,1,,,,,,,,,0,,,84,101
135120,note_on,0,0,3,,,,,,,,,2,,,45,101
135120,note_on,0,0,1,,,,,,,,,0,,,77,0
135120,note_on,240,0,1,,,,,,,,,0,,,86,0
135360,note_on,0,0,3,,,,,,,,,2,,,55,101
135360,note_on,240,0,1,,,,,,,,,0,,,84,0
135360,note_on,0,0,3,,,,,,,,,2,,,45,0
135360,note_on,0,0,3,,,,,,,,,2,,,43,101
135360,note_on,240,0,3,,,,,,,,,2,,,57,0
135360,note_on,0,0,1,,,,,,,,,0,,,78,0
135360,note_on,0,0,1,,,,,,,,,0,,,79,101
135360,note_on,0,0,1,,,,,,,,,0,,,82,101
135600,note_on,0,0,1,,,,,,,,,0,,,79,0
135600,note_on,0,0,1,,,,,,,,,0,,,82,101
135600,note_on,240,0,1,,,,,,,,,0,,,82,0
135840,note_on,0,0,1,,,,,,,,,0,,,94,101
135840,note_on,0,0,1,,,,,,,,,0,,,86,101
135840,note_on,240,0,1,,,,,,,,,0,,,82,0
136080,note_on,0,0,1,,,,,,,,,0,,,93,101
136080,note_on,0,0,3,,,,,,,,,2,,,43,0
136080,note_on,240,0,1,,,,,,,,,0,,,94,0
136080,note_on,720,0,3,,,,,,,,,2,,,55,0
136080,note_on,0,0,3,,,,,,,,,2,,,41,101
136080,note_on,0,0,1,,,,,,,,,0,,,86,0
136080,note_on,0,0,3,,,,,,,,,2,,,53,101
136320,note_on,0,0,3,,,,,,,,,2,,,40,88
136320,note_on,0,0,3,,,,,,,,,2,,,41,0
136320,note_on,0,0,3,,,,,,,,,2,,,52,88
136320,note_on,0,0,1,,,,,,,,,0,,,79,101
136320,note_on,240,0,3,,,,,,,,,2,,,53,0
136320,note_on,240,0,1,,,,,,,,,0,,,93,0
136320,note_on,0,0,1,,,,,,,,,0,,,91,101
136560,note_on,240,0,1,,,,,,,,,0,,,91,0
136560,note_on,0,0,1,,,,,,,,,0,,,79,0
136560,note_on,0,0,1,,,,,,,,,0,,,77,101
136560,note_on,0,0,3,,,,,,,,,2,,,41,88
136560,note_on,0,0,3,,,,,,,,,2,,,40,0
136560,note_on,0,0,1,,,,,,,,,0,,,89,101
136560,note_on,240,0,3,,,,,,,,,2,,,52,0
136560,note_on,0,0,3,,,,,,,,,2,,,53,88
136800,note_on,0,0,3,,,,,,,,,2,,,41,0
136800,note_on,0,0,1,,,,,,,,,0,,,77,0
136800,note_on,0,0,1,,,,,,,,,0,,,88,101
136800,note_on,0,0,3,,,,,,,,,2,,,55,88
136800,note_on,240,0,1,,,,,,,,,0,,,89,0
136800,note_on,0,0,1,,,,,,,,,0,,,76,101
136800,note_on,0,0,3,,,,,,,,,2,,,43,88
136800,note_on,240,0,3,,,,,,,,,2,,,53,0
137040,note_on,0,0,1,,,,,,,,,0,,,86,101
137040,note_on,240,0,3,,,,,,,,,2,,,55,0
137040,note_on,0,0,1,,,,,,,,,0,,,74,101
137040,note_on,0,0,3,,,,,,,,,2,,,44,88
137040,note_on,0,0,3,,,,,,,,,2,,,43,0
137040,note_on,0,0,3,,,,,,,,,2,,,56,88
137040,note_on,240,0,1,,,,,,,,,0,,,88,0
137040,note_on,0,0,1,,,,,,,,,0,,,76,0
137280,note_on,240,0,1,,,,,,,,,0,,,86,0
137280,note_on,240,0,3,,,,,,,,,2,,,56,0
137280,note_on,0,0,3,,,,,,,,,2,,,44,0
137280,note_on,0,0,3,,,,,,,,,2,,,45,88
137280,note_on,0,0,3,,,,,,,,,2,,,57,88
137280,note_on,0,0,1,,,,,,,,,0,,,74,0
137280,note_on,0,0,1,,,,,,,,,0,,,84,101
137280,note_on,0,0,1,,,,,,,,,0,,,72,101
137520,note_on,0,0,3,,,,,,,,,2,,,58,88
137520,note_on,0,0,3,,,,,,,,,2,,,46,88
137520,note_on,0,0,3,,,,,,,,,2,,,45,0
137520,note_on,0,0,1,,,,,,,,,0,,,70,101
137520,note_on,240,0,3,,,,,,,,,2,,,57,0
137520,note_on,0,0,1,,,,,,,,,0,,,82,101
137520,note_on,240,0,1,,,,,,,,,0,,,84,0
137520,note_on,0,0,1,,,,,,,,,0,,,72,0
137760,note_on,240,0,3,,,,,,,,,2,,,58,0
137760,note_on,240,0,1,,,,,,,,,0,,,82,0
137760,note_on,0,0,3,,,,,,,,,2,,,48,88
137760,note_on,0,0,3,,,,,,,,,2,,,46,0
137760,note_on,0,0,1,,,,,,,,,0,,,81,101
137760,note_on,0,0,1,,,,,,,,,0,,,69,101
137760,note_on,0,0,3,,,,,,,,,2,,,60,88
137760,note_on,0,0,1,,,,,,,,,0,,,70,0
138000,note_on,0,0,1,,,,,,,,,0,,,79,101
138000,note_on,0,0,3,,,,,,,,,2,,,61,88
138000,note_on,0,0,3,,,,,,,,,2,,,48,0
138000,note_on,0,0,3,,,,,,,,,2,,,49,88
138000,note_on,240,0,1,,,,,,,,,0,,,81,0
138000,note_on,0,0,1,,,,,,,,,0,,,69,0
138000,note_on,0,0,1,,,,,,,,,0,,,67,101
138000,note_on,240,0,3,,,,,,,,,2,,,60,0
138240,note_on,0,0,1,,,,,,,,,0,,,77,101
138240,note_on,0,0,1,,,,,,,,,0,,,65,101
138240,note_on,240,0,1,,,,,,,,,0,,,79,0
138240,note_on,240,0,3,,,,,,,,,2,,,61,0
138240,note_on,0,0,1,,,,,,,,,0,,,67,0
138240,note_on,0,0,3,,,,,,,,,2,,,50,88
138240,note_on,0,0,3,,,,,,,,,2,,,49,0
138240,note_on,0,0,3,,,,,,,,,2,,,62,88
138720,note_on,0,0,1,,,,,,,,,0,,,75,101
138720,note_on,0,0,1,,,,,,,,,0,,,69,101
138720,note_on,0,0,1,,,,,,,,,0,,,66,101
138720,note_on,0,0,1,,,,,,,,,0,,,65,0
138720,note_on,0,0,3,,,,,,,,,2,,,48,88
138720,note_on,0,0,1,,,,,,,,,0,,,78,101
138720,note_on,0,0,3,,,,,,,,,2,,,60,88
138720,note_on,480,0,3,,,,,,,,,2,,,62,0
138720,note_on,480,0,1,,,,,,,,,0,,,77,0
138720,note_on,0,0,3,,,,,,,,,2,,,50,0
139200,note_on,0,0,1,,,,,,,,,0,,,67,101
139200,note_on,0,0,1,,,,,,,,,0,,,75,0
139200,note_on,0,0,1,,,,,,,,,0,,,79,101
139200,note_on,0,0,1,,,,,,,,,0,,,70,101
139200,note_on,0,0,1,,,,,,,,,0,,,69,0
139200,note_on,0,0,1,,,,,,,,,0,,,74,101
139200,note_on,0,0,3,,,,,,,,,2,,,58,88
139200,note_on,0,0,1,,,,,,,,,0,,,66,0
139200,note_on,0,0,3,,,,,,,,,2,,,48,0
139200,note_on,0,0,3,,,,,,,,,2,,,46,88
139200,note_on,480,0,3,,,,,,,,,2,,,60,0
139200,note_on,480,0,1,,,,,,,,,0,,,78,0
139680,note_on,0,0,3,,,,,,,,,2,,,46,0
139680,note_on,0,0,3,,,,,,,,,2,,,43,88
139680,note_on,0,0,1,,,,,,,,,0,,,79,101
139680,note_on,0,0,1,,,,,,,,,0,,,82,101
139680,note_on,0,0,3,,,,,,,,,2,,,55,88
139680,note_on,0,0,1,,,,,,,,,0,,,74,101
139680,note_on,0,0,1,,,,,,,,,0,,,67,0
139680,note_on,0,0,1,,,,,,,,,0,,,70,101
139680,note_on,0,0,1,,,,,,,,,0,,,70,0
139680,note_on,0,0,1,,,,,,,,,0,,,74,0
139680,note_on,480,0,3,,,,,,,,,2,,,58,0
139680,note_on,480,0,1,,,,,,,,,0,,,79,0
140160,note_on,480,0,1,,,,,,,,,0,,,82,0
140160,note_on,0,0,1,,,,,,,,,0,,,79,0
140160,note_on,480,0,3,,,,,,,,,2,,,55,0
140160,note_on,0,0,1,,,,,,,,,0,,,74,0
140160,note_on,0,0,3,,,,,,,,,2,,,43,0
140160,note_on,0,0,3,,,,,,,,,2,,,48,101
140160,note_on,0,0,1,,,,,,,,,0,,,65,101
140160,note_on,0,0,1,,,,,,,,,0,,,60,101
140160,note_on,0,0,1,,,,,,,,,0,,,57,101
140160,note_on,0,0,1,,,,,,,,,0,,,53,101
140160,note_on,0,0,1,,,,,,,,,0,,,70,0
140640,note_on,480,0,3,,,,,,,,,2,,,48,0
140640,note_on,0,0,3,,,,,,,,,2,,,36,101
141120,note_on,480,0,3,,,,,,,,,2,,,36,0
141120,note_on,0,0,1,,,,,,,,,0,,,65,101
141120,note_on,0,0,1,,,,,,,,,0,,,56,101
141120,note_on,0,0,1,,,,,,,,,0,,,60,0
141120,note_on,0,0,1,,,,,,,,,0,,,57,0
141120,note_on,0,0,1,,,,,,,,,0,,,53,101
141120,note_on,0,0,1,,,,,,,,,0,,,53,0
141120,note_on,960,0,1,,,,,,,,,0,,,65,0
141120,note_on,0,0,3,,,,,,,,,2,,,48,101
141120,note_on,0,0,3,,,,,,,,,2,,,36,101
141120,note_on,0,0,1,,,,,,,,,0,,,62,101
141360,set_tempo,51054,1,0,,,,,,389610,,,,,,,
141600,note_on,480,0,3,,,,,,,,,2,,,48,0
141600,note_on,0,0,3,,,,,,,,,2,,,47,101
141600,set_tempo,240,1,0,,,,,,405405,,,,,,,
141840,set_tempo,240,1,0,,,,,,422535,,,,,,,
142080,note_on,0,0,3,,,,,,,,,2,,,46,101
142080,note_on,0,0,1,,,,,,,,,0,,,53,0
142080,note_on,480,0,3,,,,,,,,,2,,,47,0
142080,set_tempo,240,1,0,,,,,,447761,,,,,,,
142080,note_on,13440,0,4,,,,,,,,,3,,,53,49
142080,note_on,13440,0,2,,,,,,,,,1,,,61,75
142080,note_on,0,0,1,,,,,,,,,0,,,65,101
142080,note_on,0,0,1,,,,,,,,,0,,,62,0
142080,note_on,0,0,1,,,,,,,,,0,,,56,0
142080,note_on,0,0,4,,,,,,,,,3,,,55,49
142080,note_on,960,0,1,,,,,,,,,0,,,65,0
142320,set_tempo,240,1,0,,,,,,468750,,,,,,,
142560,set_tempo,240,1,0,,,,,,491803,,,,,,,
142560,note_on,0,0,3,,,,,,,,,2,,,45,101
142560,note_on,480,0,3,,,,,,,,,2,,,46,0
142800,set_tempo,240,1,0,,,,,,517241,,,,,,,
143040,note_on,480,0,3,,,,,,,,,2,,,45,0
143040,note_on,0,0,3,,,,,,,,,2,,,36,0
143040,note_on,0,0,3,,,,,,,,,2,,,36,101
143040,note_on,0,0,4,,,,,,,,,3,,,52,49
143040,note_on,960,0,4,,,,,,,,,3,,,53,0
143040,set_tempo,240,1,0,,,,,,555556,,,,,,,
143040,note_on,0,0,1,,,,,,,,,0,,,64,101
143040,note_on,960,0,1,,,,,,,,,0,,,65,0
143040,note_on,0,0,3,,,,,,,,,2,,,43,101
143520,note_on,0,0,3,,,,,,,,,2,,,48,101
143520,note_on,480,0,3,,,,,,,,,2,,,43,0
143520,note_on,1440,0,2,,,,,,,,,1,,,61,0
143520,note_on,0,0,2,,,,,,,,,1,,,60,75
143760,note_on,0,0,2,,,,,,,,,1,,,58,75
143760,note_on,240,0,2,,,,,,,,,1,,,60,0
144000,note_on,240,0,2,,,,,,,,,1,,,58,0
144000,end_of_track,0,1,2,,,,,,,,,,,,,
144000,note_on,0,0,1,,,,,,,,,0,,,65,101
144000,note_on,0,0,4,,,,,,,,,3,,,41,49
144000,note_on,0,0,4,,,,,,,,,3,,,55,0
144000,note_on,0,0,4,,,,,,,,,3,,,48,49
144000,note_on,0,0,3,,,,,,,,,2,,,36,0
144000,note_on,0,0,3,,,,,,,,,2,,,53,101
144000,note_on,0,0,3,,,,,,,,,2,,,57,101
144000,note_on,960,0,4,,,,,,,,,3,,,52,0
144000,note_on,960,0,1,,,,,,,,,0,,,64,0
144000,note_on,480,0,3,,,,,,,,,2,,,48,0
144213,set_tempo,1173,1,0,,,,,,375000,,,,,,,
145920,time_signature,1707,1,0,6,4,24,8,,,,,,,,,
145920,end_of_track,0,1,0,,,,,,,,,,,,,
146400,note_on,2400,0,1,,,,,,,,,0,,,65,0
146400,note_on,2400,0,3,,,,,,,,,2,,,57,0
146400,note_on,2400,0,4,,,,,,,,,3,,,48,0
146400,end_of_track,0,1,4,,,,,,,,,,,,,
146400,note_on,0,0,4,,,,,,,,,3,,,41,0
146400,end_of_track,0,1,3,,,,,,,,,,,,,
146400,control_change,0,0,1,,,,,,,,,0,64,127,,
146400,note_on,0,0,3,,,,,,,,,2,,,53,0
148320,end_of_track,0,1,1,,,,,,,,,,,,,
148320,control_change,1920,0,1,,,,,,,,,0,64,0,,
