tick,type,time,meta,track,numerator,denominator,clocks_per_click,notated_32nd_notes_per_beat,key,tempo,port,program,channel,control,value,note,velocity
0,control_change,0,0,1,,,,,,,,,0,7,127,,
0,control_change,0,0,4,,,,,,,,,3,10,30,,
0,copyright,0,1,0,,,,,,,,,,,,,
0,key_signature,0,1,0,,,,,Eb,,,,,,,,
0,midi_port,0,1,1,,,,,,,0,,,,,,
0,midi_port,0,1,2,,,,,,,0,,,,,,
0,midi_port,0,1,3,,,,,,,0,,,,,,
0,midi_port,0,1,4,,,,,,,0,,,,,,
0,note_on,0,0,3,,,,,,,,,2,,,39,49
0,track_name,0,1,3,,,,,,,,,,,,,
0,control_change,0,0,4,,,,,,,,,3,7,127,,
0,note_on,0,0,4,,,,,,,,,3,,,39,49
0,program_change,0,0,2,,,,,,,,0,1,,,,
0,program_change,0,0,3,,,,,,,,0,2,,,,
0,program_change,0,0,4,,,,,,,,0,3,,,,
0,set_tempo,0,1,0,,,,,,625000,,,,,,,
0,text,0,1,0,,,,,,,,,,,,,
0,time_signature,0,1,0,4,4,24,8,,,,,,,,,
0,track_name,0,1,0,,,,,,,,,,,,,
0,track_name,0,1,1,,,,,,,,,,,,,
0,track_name,0,1,2,,,,,,,,,,,,,
0,program_change,0,0,1,,,,,,,,0,0,,,,
0,control_change,0,0,3,,,,,,,,,2,10,30,,
0,track_name,0,1,4,,,,,,,,,,,,,
0,control_change,0,0,2,,,,,,,,,1,10,97,,
0,control_change,0,0,3,,,,,,,,,2,7,127,,
0,control_change,0,0,2,,,,,,,,,1,7,127,,
0,control_change,0,0,1,,,,,,,,,0,10,97,,
1,end_of_track,0,1,5,,,,,,,,,,,,,
1,copyright,1,1,5,,,,,,,,,,,,,
21,set_tempo,21,1,0,,,,,,625000,,,,,,,
120,note_on,120,0,1,,,,,,,,,0,,,67,62
120,note_on,0,0,1,,,,,,,,,0,,,79,62
120,note_on,0,0,1,,,,,,,,,0,,,70,62
240,note_on,240,0,3,,,,,,,,,2,,,39,0
240,note_on,0,0,3,,,,,,,,,2,,,51,49
360,note_on,240,0,1,,,,,,,,,0,,,79,0
360,note_on,0,0,1,,,,,,,,,0,,,75,62
360,note_on,0,0,1,,,,,,,,,0,,,70,0
360,note_on,0,0,1,,,,,,,,,0,,,67,0
480,note_on,240,0,3,,,,,,,,,2,,,51,0
480,note_on,0,0,3,,,,,,,,,2,,,58,49
600,note_on,0,0,1,,,,,,,,,0,,,70,62
600,note_on,240,0,1,,,,,,,,,0,,,75,0
720,note_on,240,0,3,,,,,,,,,2,,,58,0
720,note_on,0,0,3,,,,,,,,,2,,,63,49
840,note_on,240,0,1,,,,,,,,,0,,,70,0
840,note_on,0,0,1,,,,,,,,,0,,,67,62
960,note_on,240,0,3,,,,,,,,,2,,,63,0
960,note_on,0,0,3,,,,,,,,,2,,,62,49
1080,note_on,240,0,1,,,,,,,,,0,,,67,0
1080,note_on,0,0,1,,,,,,,,,0,,,65,62
1200,note_on,0,0,3,,,,,,,,,2,,,61,49
1200,note_on,240,0,3,,,,,,,,,2,,,62,0
1320,note_on,0,0,1,,,,,,,,,0,,,63,62
1320,note_on,0,0,1,,,,,,,,,0,,,67,62
1320,note_on,240,0,1,,,,,,,,,0,,,65,0
1440,note_on,240,0,3,,,,,,,,,2,,,61,0
1440,note_on,0,0,3,,,,,,,,,2,,,60,49
1560,note_on,0,0,1,,,,,,,,,0,,,63,0
1560,note_on,0,0,1,,,,,,,,,0,,,63,62
1560,note_on,0,0,1,,,,,,,,,0,,,68,62
1560,note_on,240,0,1,,,,,,,,,0,,,67,0
1680,note_on,240,0,3,,,,,,,,,2,,,60,0
1680,note_on,0,0,3,,,,,,,,,2,,,59,49
1800,note_on,240,0,1,,,,,,,,,0,,,68,0
1800,note_on,0,0,1,,,,,,,,,0,,,63,0
1800,note_on,0,0,1,,,,,,,,,0,,,63,62
1800,note_on,0,0,1,,,,,,,,,0,,,66,62
1800,note_on,0,0,1,,,,,,,,,0,,,69,62
1920,note_on,240,0,3,,,,,,,,,2,,,59,0
1920,note_on,1920,0,4,,,,,,,,,3,,,39,0
1920,note_on,0,0,3,,,,,,,,,2,,,58,49
2040,note_on,0,0,1,,,,,,,,,0,,,67,62
2040,note_on,0,0,1,,,,,,,,,0,,,70,62
2040,note_on,0,0,1,,,,,,,,,0,,,63,62
2040,note_on,0,0,1,,,,,,,,,0,,,63,0
2040,note_on,240,0,1,,,,,,,,,0,,,69,0
2040,note_on,0,0,1,,,,,,,,,0,,,66,0
2160,note_on,240,0,3,,,,,,,,,2,,,58,0
2160,note_on,0,0,3,,,,,,,,,2,,,57,49
2280,note_on,240,0,1,,,,,,,,,0,,,70,0
2280,note_on,0,0,1,,,,,,,,,0,,,63,62
2280,note_on,0,0,1,,,,,,,,,0,,,63,0
2280,note_on,0,0,1,,,,,,,,,0,,,66,62
2280,note_on,0,0,1,,,,,,,,,0,,,67,0
2280,note_on,0,0,1,,,,,,,,,0,,,72,62
2400,note_on,0,0,3,,,,,,,,,2,,,56,49
2400,note_on,240,0,3,,,,,,,,,2,,,57,0
2520,note_on,0,0,1,,,,,,,,,0,,,65,62
2520,note_on,0,0,1,,,,,,,,,0,,,63,0
2520,note_on,0,0,1,,,,,,,,,0,,,74,62
2520,note_on,0,0,1,,,,,,,,,0,,,66,0
2520,note_on,240,0,1,,,,,,,,,0,,,72,0
2520,note_on,0,0,1,,,,,,,,,0,,,71,62
2640,note_on,0,0,3,,,,,,,,,2,,,55,49
2640,note_on,240,0,3,,,,,,,,,2,,,56,0
2760,note_on,0,0,1,,,,,,,,,0,,,65,0
2760,note_on,0,0,1,,,,,,,,,0,,,75,62
2760,note_on,0,0,1,,,,,,,,,0,,,71,0
2760,note_on,0,0,1,,,,,,,,,0,,,70,62
2760,note_on,0,0,1,,,,,,,,,0,,,67,62
2760,note_on,240,0,1,,,,,,,,,0,,,74,0
2880,note_on,0,0,3,,,,,,,,,2,,,53,49
2880,note_on,240,0,3,,,,,,,,,2,,,55,0
3000,note_on,0,0,1,,,,,,,,,0,,,77,62
3000,note_on,0,0,1,,,,,,,,,0,,,70,62
3000,note_on,0,0,1,,,,,,,,,0,,,70,0
3000,note_on,0,0,1,,,,,,,,,0,,,68,62
3000,note_on,0,0,1,,,,,,,,,0,,,67,0
3000,note_on,240,0,1,,,,,,,,,0,,,75,0
3120,note_on,240,0,3,,,,,,,,,2,,,53,0
3120,note_on,0,0,3,,,,,,,,,2,,,51,49
3240,note_on,240,0,1,,,,,,,,,0,,,77,0
3240,note_on,0,0,1,,,,,,,,,0,,,67,62
3240,note_on,0,0,1,,,,,,,,,0,,,68,0
3240,note_on,0,0,1,,,,,,,,,0,,,70,0
3240,note_on,0,0,1,,,,,,,,,0,,,70,62
3240,note_on,0,0,1,,,,,,,,,0,,,79,62
3360,note_on,0,0,3,,,,,,,,,2,,,50,49
3360,note_on,240,0,3,,,,,,,,,2,,,51,0
3480,note_on,240,0,1,,,,,,,,,0,,,79,0
3480,note_on,0,0,1,,,,,,,,,0,,,68,62
3480,note_on,0,0,1,,,,,,,,,0,,,70,0
3480,note_on,0,0,1,,,,,,,,,0,,,80,62
3480,note_on,0,0,1,,,,,,,,,0,,,67,0
3480,note_on,0,0,1,,,,,,,,,0,,,70,62
3600,note_on,240,0,3,,,,,,,,,2,,,50,0
3600,note_on,0,0,3,,,,,,,,,2,,,46,49
3720,note_on,240,0,1,,,,,,,,,0,,,80,0
3720,note_on,0,0,1,,,,,,,,,0,,,70,0
3720,note_on,0,0,1,,,,,,,,,0,,,77,62
3720,note_on,0,0,1,,,,,,,,,0,,,68,62
3720,note_on,0,0,1,,,,,,,,,0,,,68,0
3720,note_on,0,0,1,,,,,,,,,0,,,70,62
3840,note_on,120,0,1,,,,,,,,,0,,,77,0
3840,note_on,240,0,3,,,,,,,,,2,,,46,0
3840,note_on,0,0,1,,,,,,,,,0,,,70,0
3840,note_on,0,0,3,,,,,,,,,2,,,39,49
3840,note_on,1920,0,4,,,,,,,,,3,,,39,49
3840,note_on,0,0,1,,,,,,,,,0,,,68,0
3960,note_on,0,0,1,,,,,,,,,0,,,70,62
3960,note_on,0,0,1,,,,,,,,,0,,,79,62
3960,note_on,120,0,1,,,,,,,,,0,,,67,62
4080,note_on,0,0,3,,,,,,,,,2,,,51,49
4080,note_on,240,0,3,,,,,,,,,2,,,39,0
4200,note_on,0,0,1,,,,,,,,,0,,,75,62
4200,note_on,0,0,1,,,,,,,,,0,,,67,0
4200,note_on,240,0,1,,,,,,,,,0,,,79,0
4200,note_on,0,0,1,,,,,,,,,0,,,70,0
4320,note_on,240,0,3,,,,,,,,,2,,,51,0
4320,note_on,0,0,3,,,,,,,,,2,,,58,49
4440,note_on,0,0,1,,,,,,,,,0,,,70,62
4440,note_on,240,0,1,,,,,,,,,0,,,75,0
4560,note_on,240,0,3,,,,,,,,,2,,,58,0
4560,note_on,0,0,3,,,,,,,,,2,,,63,49
4680,note_on,0,0,1,,,,,,,,,0,,,67,62
4680,note_on,240,0,1,,,,,,,,,0,,,70,0
4800,note_on,240,0,3,,,,,,,,,2,,,63,0
4800,note_on,0,0,3,,,,,,,,,2,,,62,49
4920,note_on,0,0,1,,,,,,,,,0,,,65,62
4920,note_on,240,0,1,,,,,,,,,0,,,67,0
5040,note_on,0,0,3,,,,,,,,,2,,,61,49
5040,note_on,240,0,3,,,,,,,,,2,,,62,0
5160,note_on,0,0,1,,,,,,,,,0,,,67,62
5160,note_on,0,0,1,,,,,,,,,0,,,63,62
5160,note_on,240,0,1,,,,,,,,,0,,,65,0
5280,note_on,240,0,3,,,,,,,,,2,,,61,0
5280,note_on,0,0,3,,,,,,,,,2,,,60,49
5400,note_on,240,0,1,,,,,,,,,0,,,67,0
5400,note_on,0,0,1,,,,,,,,,0,,,68,62
5400,note_on,0,0,1,,,,,,,,,0,,,63,0
5400,note_on,0,0,1,,,,,,,,,0,,,63,62
5520,note_on,240,0,3,,,,,,,,,2,,,60,0
5520,note_on,0,0,3,,,,,,,,,2,,,59,49
5640,note_on,240,0,1,,,,,,,,,0,,,68,0
5640,note_on,0,0,1,,,,,,,,,0,,,63,0
5640,note_on,0,0,1,,,,,,,,,0,,,63,62
5640,note_on,0,0,1,,,,,,,,,0,,,66,62
5640,note_on,0,0,1,,,,,,,,,0,,,69,62
5760,note_on,1920,0,4,,,,,,,,,3,,,39,0
5760,note_on,0,0,4,,,,,,,,,3,,,58,49
5760,note_on,0,0,3,,,,,,,,,2,,,58,49
5760,note_on,240,0,3,,,,,,,,,2,,,59,0
5880,note_on,0,0,1,,,,,,,,,0,,,66,0
5880,note_on,0,0,1,,,,,,,,,0,,,63,62
5880,note_on,240,0,1,,,,,,,,,0,,,69,0
5880,note_on,0,0,1,,,,,,,,,0,,,63,0
5880,note_on,0,0,1,,,,,,,,,0,,,67,62
5880,note_on,0,0,1,,,,,,,,,0,,,70,62
6000,note_on,240,0,3,,,,,,,,,2,,,58,0
6000,note_on,0,0,3,,,,,,,,,2,,,57,49
6120,note_on,0,0,1,,,,,,,,,0,,,63,62
6120,note_on,0,0,1,,,,,,,,,0,,,72,62
6120,note_on,0,0,1,,,,,,,,,0,,,67,0
6120,note_on,0,0,1,,,,,,,,,0,,,63,0
6120,note_on,240,0,1,,,,,,,,,0,,,70,0
6120,note_on,0,0,1,,,,,,,,,0,,,66,62
6240,note_on,240,0,3,,,,,,,,,2,,,57,0
6240,note_on,0,0,3,,,,,,,,,2,,,56,49
6360,note_on,240,0,1,,,,,,,,,0,,,72,0
6360,note_on,0,0,1,,,,,,,,,0,,,71,62
6360,note_on,0,0,1,,,,,,,,,0,,,66,0
6360,note_on,0,0,1,,,,,,,,,0,,,65,62
6360,note_on,0,0,1,,,,,,,,,0,,,63,0
6360,note_on,0,0,1,,,,,,,,,0,,,74,62
6480,note_on,0,0,3,,,,,,,,,2,,,55,49
6480,note_on,240,0,3,,,,,,,,,2,,,56,0
6600,note_on,0,0,1,,,,,,,,,0,,,70,75
6600,note_on,0,0,1,,,,,,,,,0,,,67,75
6600,note_on,240,0,1,,,,,,,,,0,,,74,0
6600,note_on,0,0,1,,,,,,,,,0,,,65,0
6600,note_on,0,0,1,,,,,,,,,0,,,75,75
6600,note_on,0,0,1,,,,,,,,,0,,,71,0
6720,note_on,240,0,3,,,,,,,,,2,,,55,0
6720,note_on,0,0,3,,,,,,,,,2,,,53,62
6840,note_on,240,0,1,,,,,,,,,0,,,75,0
6840,note_on,0,0,1,,,,,,,,,0,,,68,75
6840,note_on,0,0,1,,,,,,,,,0,,,67,0
6840,note_on,0,0,1,,,,,,,,,0,,,70,75
6840,note_on,0,0,1,,,,,,,,,0,,,77,75
6840,note_on,0,0,1,,,,,,,,,0,,,70,0
6960,note_on,0,0,3,,,,,,,,,2,,,51,62
6960,note_on,240,0,3,,,,,,,,,2,,,53,0
7080,note_on,0,0,1,,,,,,,,,0,,,67,75
7080,note_on,0,0,1,,,,,,,,,0,,,68,0
7080,note_on,0,0,1,,,,,,,,,0,,,70,0
7080,note_on,0,0,1,,,,,,,,,0,,,70,75
7080,note_on,0,0,1,,,,,,,,,0,,,79,75
7080,note_on,240,0,1,,,,,,,,,0,,,77,0
7200,note_on,0,0,3,,,,,,,,,2,,,50,62
7200,note_on,240,0,3,,,,,,,,,2,,,51,0
7320,note_on,0,0,1,,,,,,,,,0,,,70,75
7320,note_on,240,0,1,,,,,,,,,0,,,79,0
7320,note_on,0,0,1,,,,,,,,,0,,,68,75
7320,note_on,0,0,1,,,,,,,,,0,,,67,0
7320,note_on,0,0,1,,,,,,,,,0,,,70,0
7320,note_on,0,0,1,,,,,,,,,0,,,80,75
7440,note_on,0,0,3,,,,,,,,,2,,,46,62
7440,note_on,240,0,3,,,,,,,,,2,,,50,0
7560,note_on,0,0,1,,,,,,,,,0,,,68,0
7560,note_on,0,0,1,,,,,,,,,0,,,68,75
7560,note_on,0,0,1,,,,,,,,,0,,,70,0
7560,note_on,0,0,1,,,,,,,,,0,,,70,75
7560,note_on,0,0,1,,,,,,,,,0,,,77,75
7560,note_on,240,0,1,,,,,,,,,0,,,80,0
7680,note_on,0,0,3,,,,,,,,,2,,,51,62
7680,note_on,240,0,3,,,,,,,,,2,,,46,0
7680,note_on,1920,0,4,,,,,,,,,3,,,58,0
7800,note_on,240,0,1,,,,,,,,,0,,,77,0
7800,note_on,0,0,1,,,,,,,,,0,,,79,75
7800,note_on,0,0,1,,,,,,,,,0,,,70,75
7800,note_on,0,0,1,,,,,,,,,0,,,70,0
7800,note_on,0,0,1,,,,,,,,,0,,,68,0
7800,note_on,0,0,1,,,,,,,,,0,,,67,75
7920,note_on,0,0,3,,,,,,,,,2,,,67,62
7920,note_on,240,0,3,,,,,,,,,2,,,51,0
8040,note_on,0,0,1,,,,,,,,,0,,,70,75
8040,note_on,0,0,1,,,,,,,,,0,,,75,75
8040,note_on,0,0,1,,,,,,,,,0,,,70,0
8040,note_on,0,0,1,,,,,,,,,0,,,67,0
8040,note_on,240,0,1,,,,,,,,,0,,,79,0
8160,note_on,240,0,3,,,,,,,,,2,,,67,0
8160,note_on,0,0,3,,,,,,,,,2,,,65,62
8280,note_on,0,0,1,,,,,,,,,0,,,74,75
8280,note_on,0,0,1,,,,,,,,,0,,,70,75
8280,note_on,0,0,1,,,,,,,,,0,,,70,0
8280,note_on,240,0,1,,,,,,,,,0,,,75,0
8400,note_on,240,0,3,,,,,,,,,2,,,65,0
8400,note_on,0,0,3,,,,,,,,,2,,,63,62
8520,note_on,0,0,1,,,,,,,,,0,,,70,75
8520,note_on,0,0,1,,,,,,,,,0,,,70,0
8520,note_on,240,0,1,,,,,,,,,0,,,74,0
8520,note_on,0,0,1,,,,,,,,,0,,,72,75
8640,note_on,0,0,3,,,,,,,,,2,,,62,62
8640,note_on,240,0,3,,,,,,,,,2,,,63,0
8760,note_on,240,0,1,,,,,,,,,0,,,72,0
8760,note_on,0,0,1,,,,,,,,,0,,,70,75
8760,note_on,0,0,1,,,,,,,,,0,,,77,75
8760,note_on,0,0,1,,,,,,,,,0,,,70,0
8880,note_on,0,0,3,,,,,,,,,2,,,67,62
8880,note_on,240,0,3,,,,,,,,,2,,,62,0
9000,note_on,0,0,1,,,,,,,,,0,,,70,0
9000,note_on,0,0,1,,,,,,,,,0,,,70,75
9000,note_on,0,0,1,,,,,,,,,0,,,75,75
9000,note_on,240,0,1,,,,,,,,,0,,,77,0
9120,note_on,240,0,3,,,,,,,,,2,,,67,0
9120,note_on,0,0,3,,,,,,,,,2,,,65,62
9240,note_on,240,0,1,,,,,,,,,0,,,75,0
9240,note_on,0,0,1,,,,,,,,,0,,,70,0
9240,note_on,0,0,1,,,,,,,,,0,,,74,75
9240,note_on,0,0,1,,,,,,,,,0,,,70,75
9360,note_on,240,0,3,,,,,,,,,2,,,65,0
9360,note_on,0,0,3,,,,,,,,,2,,,63,62
9480,note_on,0,0,1,,,,,,,,,0,,,72,75
9480,note_on,0,0,1,,,,,,,,,0,,,70,75
9480,note_on,0,0,1,,,,,,,,,0,,,70,0
9480,note_on,240,0,1,,,,,,,,,0,,,74,0
9600,note_on,0,0,3,,,,,,,,,2,,,62,62
9600,note_on,240,0,3,,,,,,,,,2,,,63,0
9720,note_on,240,0,1,,,,,,,,,0,,,72,0
9720,note_on,0,0,1,,,,,,,,,0,,,70,0
9720,note_on,0,0,1,,,,,,,,,0,,,70,75
9840,note_on,240,0,3,,,,,,,,,2,,,62,0
9840,note_on,0,0,3,,,,,,,,,2,,,66,62
9960,note_on,240,0,1,,,,,,,,,0,,,70,0
9960,note_on,0,0,1,,,,,,,,,0,,,70,75
9960,note_on,0,0,1,,,,,,,,,0,,,75,75
10080,note_on,0,0,3,,,,,,,,,2,,,65,62
10080,note_on,240,0,3,,,,,,,,,2,,,66,0
10200,note_on,0,0,1,,,,,,,,,0,,,70,0
10200,note_on,240,0,1,,,,,,,,,0,,,75,0
10200,note_on,0,0,1,,,,,,,,,0,,,70,75
10200,note_on,0,0,1,,,,,,,,,0,,,74,75
10320,note_on,0,0,3,,,,,,,,,2,,,63,62
10320,note_on,240,0,3,,,,,,,,,2,,,65,0
10440,note_on,0,0,1,,,,,,,,,0,,,72,75
10440,note_on,0,0,1,,,,,,,,,0,,,70,75
10440,note_on,240,0,1,,,,,,,,,0,,,74,0
10440,note_on,0,0,1,,,,,,,,,0,,,70,0
10560,note_on,240,0,3,,,,,,,,,2,,,63,0
10560,note_on,0,0,3,,,,,,,,,2,,,62,62
10680,note_on,0,0,1,,,,,,,,,0,,,70,75
10680,note_on,0,0,1,,,,,,,,,0,,,70,0
10680,note_on,240,0,1,,,,,,,,,0,,,72,0
10680,note_on,0,0,1,,,,,,,,,0,,,77,75
10800,note_on,0,0,3,,,,,,,,,2,,,63,62
10800,note_on,0,0,3,,,,,,,,,2,,,60,62
10800,note_on,0,0,3,,,,,,,,,2,,,54,62
10800,note_on,0,0,3,,,,,,,,,2,,,51,62
10800,note_on,240,0,3,,,,,,,,,2,,,62,0
10920,note_on,0,0,1,,,,,,,,,0,,,75,75
10920,note_on,0,0,1,,,,,,,,,0,,,72,75
10920,note_on,0,0,1,,,,,,,,,0,,,70,0
10920,note_on,0,0,1,,,,,,,,,0,,,66,75
10920,note_on,240,0,1,,,,,,,,,0,,,77,0
11040,note_on,240,0,3,,,,,,,,,2,,,63,0
11040,note_on,0,0,3,,,,,,,,,2,,,54,0
11040,note_on,0,0,3,,,,,,,,,2,,,58,49
11040,note_on,0,0,3,,,,,,,,,2,,,60,0
11040,note_on,0,0,3,,,,,,,,,2,,,62,49
11040,note_on,0,0,3,,,,,,,,,2,,,51,0
11040,note_on,0,0,3,,,,,,,,,2,,,53,49
11160,note_on,0,0,1,,,,,,,,,0,,,65,62
11160,note_on,0,0,1,,,,,,,,,0,,,66,0
11160,note_on,240,0,1,,,,,,,,,0,,,75,0
11160,note_on,0,0,1,,,,,,,,,0,,,74,62
11160,note_on,0,0,1,,,,,,,,,0,,,72,0
11160,note_on,0,0,1,,,,,,,,,0,,,70,62
11280,note_on,240,0,3,,,,,,,,,2,,,62,0
11280,note_on,0,0,3,,,,,,,,,2,,,53,49
11280,note_on,0,0,3,,,,,,,,,2,,,60,49
11280,note_on,0,0,3,,,,,,,,,2,,,58,0
11280,note_on,0,0,3,,,,,,,,,2,,,53,0
11280,note_on,0,0,3,,,,,,,,,2,,,63,49
11400,note_on,0,0,1,,,,,,,,,0,,,65,62
11400,note_on,0,0,1,,,,,,,,,0,,,65,0
11400,note_on,0,0,1,,,,,,,,,0,,,69,62
11400,note_on,0,0,1,,,,,,,,,0,,,72,62
11400,note_on,240,0,1,,,,,,,,,0,,,74,0
11400,note_on,0,0,1,,,,,,,,,0,,,70,0
11520,note_on,0,0,3,,,,,,,,,2,,,62,49
11520,note_on,0,0,3,,,,,,,,,2,,,60,0
11520,note_on,0,0,3,,,,,,,,,2,,,53,0
11520,note_on,3840,0,4,,,,,,,,,3,,,62,49
11520,note_on,240,0,3,,,,,,,,,2,,,63,0
11640,note_on,0,0,1,,,,,,,,,0,,,65,0
11640,note_on,0,0,1,,,,,,,,,0,,,70,62
11640,note_on,240,0,1,,,,,,,,,0,,,72,0
11640,note_on,0,0,1,,,,,,,,,0,,,69,0
11760,note_on,0,0,3,,,,,,,,,2,,,67,49
11760,note_on,0,0,3,,,,,,,,,2,,,70,49
11760,note_on,240,0,3,,,,,,,,,2,,,62,0
11880,note_on,240,0,1,,,,,,,,,0,,,70,0
11880,note_on,0,0,1,,,,,,,,,0,,,84,62
11880,note_on,0,0,1,,,,,,,,,0,,,76,62
12000,note_on,0,0,3,,,,,,,,,2,,,67,0
12000,note_on,0,0,3,,,,,,,,,2,,,65,49
12000,note_on,240,0,3,,,,,,,,,2,,,70,0
12000,note_on,0,0,3,,,,,,,,,2,,,68,49
12120,note_on,240,0,1,,,,,,,,,0,,,84,0
12120,note_on,0,0,1,,,,,,,,,0,,,76,0
12120,note_on,0,0,1,,,,,,,,,0,,,77,62
12120,note_on,0,0,1,,,,,,,,,0,,,80,62
12240,note_on,0,0,3,,,,,,,,,2,,,65,0
12240,note_on,240,0,3,,,,,,,,,2,,,68,0
12240,note_on,0,0,3,,,,,,,,,2,,,65,49
12240,note_on,0,0,3,,,,,,,,,2,,,68,49
12360,note_on,0,0,1,,,,,,,,,0,,,77,0
12360,note_on,0,0,1,,,,,,,,,0,,,82,62
12360,note_on,240,0,1,,,,,,,,,0,,,80,0
12360,note_on,0,0,1,,,,,,,,,0,,,74,62
12480,note_on,0,0,3,,,,,,,,,2,,,63,49
12480,note_on,240,0,3,,,,,,,,,2,,,68,0
12480,note_on,0,0,3,,,,,,,,,2,,,67,49
12480,note_on,0,0,3,,,,,,,,,2,,,65,0
12600,note_on,0,0,1,,,,,,,,,0,,,79,62
12600,note_on,0,0,1,,,,,,,,,0,,,75,62
12600,note_on,0,0,1,,,,,,,,,0,,,74,0
12600,note_on,240,0,1,,,,,,,,,0,,,82,0
12720,note_on,0,0,3,,,,,,,,,2,,,63,0
12720,note_on,240,0,3,,,,,,,,,2,,,67,0
12720,note_on,0,0,3,,,,,,,,,2,,,63,49
12720,note_on,0,0,3,,,,,,,,,2,,,67,49
12840,note_on,0,0,1,,,,,,,,,0,,,80,62
12840,note_on,240,0,1,,,,,,,,,0,,,79,0
12840,note_on,0,0,1,,,,,,,,,0,,,75,0
12840,note_on,0,0,1,,,,,,,,,0,,,72,62
12960,note_on,0,0,3,,,,,,,,,2,,,62,49
12960,note_on,0,0,3,,,,,,,,,2,,,63,0
12960,note_on,0,0,3,,,,,,,,,2,,,65,49
12960,note_on,240,0,3,,,,,,,,,2,,,67,0
13080,note_on,0,0,1,,,,,,,,,0,,,74,62
13080,note_on,0,0,1,,,,,,,,,0,,,72,0
13080,note_on,240,0,1,,,,,,,,,0,,,80,0
13080,note_on,0,0,1,,,,,,,,,0,,,77,62
13200,note_on,240,0,3,,,,,,,,,2,,,65,0
13200,note_on,0,0,3,,,,,,,,,2,,,62,0
13200,note_on,0,0,3,,,,,,,,,2,,,65,49
13200,note_on,0,0,3,,,,,,,,,2,,,62,49
13320,note_on,0,0,1,,,,,,,,,0,,,79,62
13320,note_on,0,0,1,,,,,,,,,0,,,74,0
13320,note_on,240,0,1,,,,,,,,,0,,,77,0
13320,note_on,0,0,1,,,,,,,,,0,,,71,62
13440,note_on,1920,0,4,,,,,,,,,3,,,62,0
13440,note_on,0,0,3,,,,,,,,,2,,,63,49
13440,note_on,0,0,3,,,,,,,,,2,,,62,0
13440,note_on,0,0,3,,,,,,,,,2,,,60,49
13440,note_on,240,0,3,,,,,,,,,2,,,65,0
13560,note_on,0,0,1,,,,,,,,,0,,,72,62
13560,note_on,240,0,1,,,,,,,,,0,,,79,0
13560,note_on,0,0,1,,,,,,,,,0,,,75,62
13560,note_on,0,0,1,,,,,,,,,0,,,71,0
13680,note_on,0,0,3,,,,,,,,,2,,,60,0
13680,set_tempo,13659,1,0,,,,,,645161,,,,,,,
13680,note_on,240,0,3,,,,,,,,,2,,,63,0
13680,note_on,0,0,3,,,,,,,,,2,,,46,49
13800,note_on,240,0,1,,,,,,,,,0,,,75,0
13800,note_on,0,0,1,,,,,,,,,0,,,69,62
13800,note_on,0,0,1,,,,,,,,,0,,,72,0
13800,note_on,0,0,1,,,,,,,,,0,,,78,62
13920,note_on,0,0,3,,,,,,,,,2,,,60,49
13920,note_on,0,0,3,,,,,,,,,2,,,63,49
13920,note_on,240,0,3,,,,,,,,,2,,,46,0
13920,set_tempo,240,1,0,,,,,,666667,,,,,,,
14040,note_on,0,0,1,,,,,,,,,0,,,69,0
14040,note_on,240,0,1,,,,,,,,,0,,,78,0
14040,note_on,0,0,1,,,,,,,,,0,,,75,62
14040,note_on,0,0,1,,,,,,,,,0,,,72,62
14160,set_tempo,240,1,0,,,,,,689655,,,,,,,
14160,note_on,0,0,3,,,,,,,,,2,,,60,0
14160,note_on,0,0,3,,,,,,,,,2,,,46,49
14160,note_on,240,0,3,,,,,,,,,2,,,63,0
14280,note_on,0,0,1,,,,,,,,,0,,,69,62
14280,note_on,0,0,1,,,,,,,,,0,,,72,0
14280,note_on,0,0,1,,,,,,,,,0,,,77,62
14280,note_on,240,0,1,,,,,,,,,0,,,75,0
14400,note_on,0,0,3,,,,,,,,,2,,,58,49
14400,set_tempo,240,1,0,,,,,,722892,,,,,,,
14400,note_on,0,0,3,,,,,,,,,2,,,62,49
14400,note_on,240,0,3,,,,,,,,,2,,,46,0
14520,note_on,240,0,1,,,,,,,,,0,,,77,0
14520,note_on,0,0,1,,,,,,,,,0,,,74,62
14520,note_on,0,0,1,,,,,,,,,0,,,70,62
14520,note_on,0,0,1,,,,,,,,,0,,,69,0
14640,note_on,0,0,3,,,,,,,,,2,,,56,49
14640,set_tempo,240,1,0,,,,,,750000,,,,,,,
14640,note_on,240,0,3,,,,,,,,,2,,,62,0
14640,note_on,0,0,3,,,,,,,,,2,,,60,49
14640,note_on,0,0,3,,,,,,,,,2,,,58,0
14760,note_on,0,0,1,,,,,,,,,0,,,72,62
14760,note_on,0,0,1,,,,,,,,,0,,,70,0
14760,note_on,240,0,1,,,,,,,,,0,,,74,0
14760,note_on,0,0,1,,,,,,,,,0,,,68,62
14880,set_tempo,240,1,0,,,,,,779221,,,,,,,
14880,note_on,0,0,3,,,,,,,,,2,,,56,0
14880,note_on,0,0,3,,,,,,,,,2,,,55,49
14880,note_on,0,0,3,,,,,,,,,2,,,58,49
14880,note_on,240,0,3,,,,,,,,,2,,,60,0
15000,note_on,0,0,1,,,,,,,,,0,,,70,62
15000,note_on,0,0,1,,,,,,,,,0,,,68,0
15000,note_on,0,0,1,,,,,,,,,0,,,67,62
15000,note_on,240,0,1,,,,,,,,,0,,,72,0
15120,note_on,0,0,3,,,,,,,,,2,,,53,49
15120,note_on,0,0,3,,,,,,,,,2,,,55,0
15120,note_on,0,0,3,,,,,,,,,2,,,56,49
15120,set_tempo,240,1,0,,,,,,810811,,,,,,,
15120,note_on,240,0,3,,,,,,,,,2,,,58,0
15240,note_on,0,0,1,,,,,,,,,0,,,67,0
15240,note_on,0,0,1,,,,,,,,,0,,,68,62
15240,note_on,0,0,1,,,,,,,,,0,,,65,62
15240,note_on,240,0,1,,,,,,,,,0,,,70,0
15360,note_on,120,0,1,,,,,,,,,0,,,68,0
15360,control_change,0,0,3,,,,,,,,,2,64,127,,
15360,note_on,0,0,3,,,,,,,,,2,,,53,0
15360,note_on,0,0,3,,,,,,,,,2,,,39,49
15360,note_on,240,0,3,,,,,,,,,2,,,56,0
15360,set_tempo,240,1,0,,,,,,857143,,,,,,,
15360,note_on,1920,0,4,,,,,,,,,3,,,39,49
15360,note_on,0,0,1,,,,,,,,,0,,,65,0
15360,control_change,0,0,1,,,,,,,,,0,64,127,,
15392,set_tempo,32,1,0,,,,,,625000,,,,,,,
15480,note_on,0,0,1,,,,,,,,,0,,,70,62
15480,note_on,0,0,1,,,,,,,,,0,,,79,62
15480,note_on,120,0,1,,,,,,,,,0,,,67,62
15600,note_on,0,0,3,,,,,,,,,2,,,51,49
15600,note_on,240,0,3,,,,,,,,,2,,,39,0
15720,note_on,0,0,1,,,,,,,,,0,,,75,62
15720,note_on,240,0,1,,,,,,,,,0,,,79,0
15720,note_on,0,0,1,,,,,,,,,0,,,70,0
15720,note_on,0,0,1,,,,,,,,,0,,,67,0
15840,note_on,240,0,3,,,,,,,,,2,,,51,0
15840,note_on,0,0,3,,,,,,,,,2,,,58,49
15960,note_on,240,0,1,,,,,,,,,0,,,75,0
15960,note_on,0,0,1,,,,,,,,,0,,,70,62
16080,note_on,240,0,3,,,,,,,,,2,,,58,0
16080,note_on,0,0,3,,,,,,,,,2,,,63,49
16200,note_on,240,0,1,,,,,,,,,0,,,70,0
16200,note_on,0,0,1,,,,,,,,,0,,,67,62
16320,note_on,0,0,3,,,,,,,,,2,,,62,49
16320,note_on,240,0,3,,,,,,,,,2,,,63,0
16440,note_on,0,0,1,,,,,,,,,0,,,65,62
16440,note_on,240,0,1,,,,,,,,,0,,,67,0
16560,note_on,0,0,3,,,,,,,,,2,,,61,49
16560,note_on,240,0,3,,,,,,,,,2,,,62,0
16680,note_on,0,0,1,,,,,,,,,0,,,64,62
16680,note_on,0,0,1,,,,,,,,,0,,,67,62
16680,note_on,240,0,1,,,,,,,,,0,,,65,0
16800,note_on,0,0,3,,,,,,,,,2,,,60,49
16800,note_on,240,0,3,,,,,,,,,2,,,61,0
16920,note_on,0,0,1,,,,,,,,,0,,,63,62
16920,note_on,0,0,1,,,,,,,,,0,,,64,0
16920,note_on,0,0,1,,,,,,,,,0,,,68,62
16920,note_on,240,0,1,,,,,,,,,0,,,67,0
17040,control_change,0,0,3,,,,,,,,,2,64,0,,
17040,note_on,0,0,3,,,,,,,,,2,,,59,49
17040,note_on,240,0,3,,,,,,,,,2,,,60,0
17160,note_on,0,0,1,,,,,,,,,0,,,66,62
17160,control_change,0,0,1,,,,,,,,,0,64,0,,
17160,note_on,0,0,1,,,,,,,,,0,,,63,0
17160,note_on,0,0,1,,,,,,,,,0,,,63,62
17160,note_on,0,0,1,,,,,,,,,0,,,69,62
17160,note_on,240,0,1,,,,,,,,,0,,,68,0
17280,note_on,0,0,3,,,,,,,,,2,,,58,49
17280,note_on,240,0,3,,,,,,,,,2,,,59,0
17280,note_on,1920,0,4,,,,,,,,,3,,,39,0
17400,note_on,240,0,1,,,,,,,,,0,,,69,0
17400,note_on,0,0,1,,,,,,,,,0,,,67,62
17400,note_on,0,0,1,,,,,,,,,0,,,63,0
17400,note_on,0,0,1,,,,,,,,,0,,,70,62
17400,note_on,0,0,1,,,,,,,,,0,,,63,62
17400,note_on,0,0,1,,,,,,,,,0,,,66,0
17520,note_on,240,0,3,,,,,,,,,2,,,58,0
17520,note_on,0,0,3,,,,,,,,,2,,,57,49
17640,note_on,0,0,1,,,,,,,,,0,,,63,0
17640,note_on,0,0,1,,,,,,,,,0,,,72,62
17640,note_on,0,0,1,,,,,,,,,0,,,67,0
17640,note_on,0,0,1,,,,,,,,,0,,,66,62
17640,note_on,0,0,1,,,,,,,,,0,,,63,62
17640,note_on,240,0,1,,,,,,,,,0,,,70,0
17760,note_on,240,0,3,,,,,,,,,2,,,57,0
17760,note_on,0,0,3,,,,,,,,,2,,,56,49
17880,note_on,240,0,1,,,,,,,,,0,,,72,0
17880,note_on,0,0,1,,,,,,,,,0,,,74,62
17880,note_on,0,0,1,,,,,,,,,0,,,65,62
17880,note_on,0,0,1,,,,,,,,,0,,,66,0
17880,note_on,0,0,1,,,,,,,,,0,,,71,62
17880,note_on,0,0,1,,,,,,,,,0,,,63,0
18000,note_on,240,0,3,,,,,,,,,2,,,56,0
18000,note_on,0,0,3,,,,,,,,,2,,,55,49
18120,note_on,240,0,1,,,,,,,,,0,,,74,0
18120,note_on,0,0,1,,,,,,,,,0,,,71,0
18120,note_on,0,0,1,,,,,,,,,0,,,65,0
18120,note_on,0,0,1,,,,,,,,,0,,,67,75
18120,note_on,0,0,1,,,,,,,,,0,,,70,75
18120,note_on,0,0,1,,,,,,,,,0,,,75,75
18240,note_on,240,0,3,,,,,,,,,2,,,55,0
18240,note_on,0,0,3,,,,,,,,,2,,,53,62
18360,note_on,0,0,1,,,,,,,,,0,,,77,75
18360,note_on,0,0,1,,,,,,,,,0,,,67,0
18360,note_on,240,0,1,,,,,,,,,0,,,75,0
18360,note_on,0,0,1,,,,,,,,,0,,,70,75
18360,note_on,0,0,1,,,,,,,,,0,,,70,0
18360,note_on,0,0,1,,,,,,,,,0,,,68,75
18480,note_on,240,0,3,,,,,,,,,2,,,53,0
18480,note_on,0,0,3,,,,,,,,,2,,,51,62
18600,note_on,240,0,1,,,,,,,,,0,,,77,0
18600,note_on,0,0,1,,,,,,,,,0,,,70,0
18600,note_on,0,0,1,,,,,,,,,0,,,70,75
18600,note_on,0,0,1,,,,,,,,,0,,,79,75
18600,note_on,0,0,1,,,,,,,,,0,,,67,75
18600,note_on,0,0,1,,,,,,,,,0,,,68,0
18720,note_on,240,0,3,,,,,,,,,2,,,51,0
18720,note_on,0,0,3,,,,,,,,,2,,,50,62
18840,note_on,0,0,1,,,,,,,,,0,,,67,0
18840,note_on,0,0,1,,,,,,,,,0,,,68,75
18840,note_on,240,0,1,,,,,,,,,0,,,79,0
18840,note_on,0,0,1,,,,,,,,,0,,,70,0
18840,note_on,0,0,1,,,,,,,,,0,,,70,75
18840,note_on,0,0,1,,,,,,,,,0,,,80,75
18960,note_on,0,0,3,,,,,,,,,2,,,46,62
18960,note_on,240,0,3,,,,,,,,,2,,,50,0
19080,note_on,0,0,1,,,,,,,,,0,,,68,0
19080,note_on,0,0,1,,,,,,,,,0,,,77,75
19080,note_on,0,0,1,,,,,,,,,0,,,70,75
19080,note_on,0,0,1,,,,,,,,,0,,,70,0
19080,note_on,0,0,1,,,,,,,,,0,,,68,75
19080,note_on,240,0,1,,,,,,,,,0,,,80,0
19200,note_on,0,0,3,,,,,,,,,2,,,39,62
19200,note_on,1920,0,4,,,,,,,,,3,,,39,49
19200,note_on,240,0,3,,,,,,,,,2,,,46,0
19200,control_change,0,0,3,,,,,,,,,2,64,127,,
19320,note_on,240,0,1,,,,,,,,,0,,,77,0
19320,note_on,0,0,1,,,,,,,,,0,,,67,75
19320,note_on,0,0,1,,,,,,,,,0,,,68,0
19320,note_on,0,0,1,,,,,,,,,0,,,79,75
19320,note_on,0,0,1,,,,,,,,,0,,,70,75
19320,control_change,0,0,1,,,,,,,,,0,64,127,,
19320,note_on,0,0,1,,,,,,,,,0,,,70,0
19440,note_on,240,0,3,,,,,,,,,2,,,39,0
19440,note_on,0,0,3,,,,,,,,,2,,,51,62
19560,note_on,240,0,1,,,,,,,,,0,,,79,0
19560,note_on,0,0,1,,,,,,,,,0,,,67,0
19560,note_on,0,0,1,,,,,,,,,0,,,70,0
19560,note_on,0,0,1,,,,,,,,,0,,,75,75
19680,note_on,0,0,3,,,,,,,,,2,,,58,62
19680,note_on,240,0,3,,,,,,,,,2,,,51,0
19800,note_on,240,0,1,,,,,,,,,0,,,75,0
19800,note_on,0,0,1,,,,,,,,,0,,,70,75
19920,note_on,0,0,3,,,,,,,,,2,,,63,62
19920,note_on,240,0,3,,,,,,,,,2,,,58,0
20040,note_on,0,0,1,,,,,,,,,0,,,67,75
20040,note_on,240,0,1,,,,,,,,,0,,,70,0
20160,note_on,240,0,3,,,,,,,,,2,,,63,0
20160,note_on,0,0,3,,,,,,,,,2,,,62,62
20280,note_on,240,0,1,,,,,,,,,0,,,67,0
20280,note_on,0,0,1,,,,,,,,,0,,,65,75
20400,note_on,0,0,3,,,,,,,,,2,,,61,62
20400,note_on,240,0,3,,,,,,,,,2,,,62,0
20520,note_on,0,0,1,,,,,,,,,0,,,67,75
20520,note_on,0,0,1,,,,,,,,,0,,,64,75
20520,note_on,240,0,1,,,,,,,,,0,,,65,0
20640,note_on,0,0,3,,,,,,,,,2,,,60,62
20640,note_on,240,0,3,,,,,,,,,2,,,61,0
20760,note_on,240,0,1,,,,,,,,,0,,,67,0
20760,note_on,0,0,1,,,,,,,,,0,,,64,0
20760,note_on,0,0,1,,,,,,,,,0,,,68,75
20760,note_on,0,0,1,,,,,,,,,0,,,63,75
20880,control_change,0,0,3,,,,,,,,,2,64,0,,
20880,note_on,240,0,3,,,,,,,,,2,,,60,0
20880,note_on,0,0,3,,,,,,,,,2,,,59,62
21000,note_on,0,0,1,,,,,,,,,0,,,66,75
21000,note_on,0,0,1,,,,,,,,,0,,,63,75
21000,note_on,0,0,1,,,,,,,,,0,,,69,75
21000,note_on,0,0,1,,,,,,,,,0,,,63,0
21000,note_on,240,0,1,,,,,,,,,0,,,68,0
21120,control_change,120,0,1,,,,,,,,,0,64,0,,
21120,note_on,240,0,3,,,,,,,,,2,,,59,0
21120,note_on,0,0,3,,,,,,,,,2,,,58,62
21120,note_on,1920,0,4,,,,,,,,,3,,,39,0
21240,note_on,0,0,1,,,,,,,,,0,,,67,75
21240,note_on,0,0,1,,,,,,,,,0,,,63,0
21240,note_on,0,0,1,,,,,,,,,0,,,63,75
21240,note_on,0,0,1,,,,,,,,,0,,,66,0
21240,note_on,0,0,1,,,,,,,,,0,,,70,75
21240,note_on,120,0,1,,,,,,,,,0,,,69,0
21360,note_on,240,0,3,,,,,,,,,2,,,58,0
21360,note_on,0,0,3,,,,,,,,,2,,,57,62
21480,note_on,0,0,1,,,,,,,,,0,,,63,0
21480,note_on,240,0,1,,,,,,,,,0,,,70,0
21480,note_on,0,0,1,,,,,,,,,0,,,72,75
21480,note_on,0,0,1,,,,,,,,,0,,,67,0
21480,note_on,0,0,1,,,,,,,,,0,,,66,75
21480,note_on,0,0,1,,,,,,,,,0,,,63,75
21600,note_on,0,0,3,,,,,,,,,2,,,58,62
21600,note_on,240,0,3,,,,,,,,,2,,,57,0
21720,note_on,0,0,1,,,,,,,,,0,,,67,75
21720,note_on,0,0,1,,,,,,,,,0,,,63,75
21720,note_on,0,0,1,,,,,,,,,0,,,66,0
21720,note_on,0,0,1,,,,,,,,,0,,,70,75
21720,note_on,0,0,1,,,,,,,,,0,,,63,0
21720,note_on,240,0,1,,,,,,,,,0,,,72,0
21840,note_on,0,0,3,,,,,,,,,2,,,57,62
21840,note_on,240,0,3,,,,,,,,,2,,,58,0
21960,note_on,0,0,1,,,,,,,,,0,,,63,0
21960,note_on,0,0,1,,,,,,,,,0,,,63,75
21960,note_on,0,0,1,,,,,,,,,0,,,66,75
21960,note_on,0,0,1,,,,,,,,,0,,,67,0
21960,note_on,0,0,1,,,,,,,,,0,,,72,75
21960,note_on,240,0,1,,,,,,,,,0,,,70,0
22080,note_on,960,0,4,,,,,,,,,3,,,58,49
22080,note_on,0,0,3,,,,,,,,,2,,,58,62
22080,note_on,240,0,3,,,,,,,,,2,,,57,0
22200,note_on,0,0,1,,,,,,,,,0,,,66,0
22200,note_on,0,0,1,,,,,,,,,0,,,63,75
22200,note_on,240,0,1,,,,,,,,,0,,,72,0
22200,note_on,0,0,1,,,,,,,,,0,,,67,75
22200,note_on,0,0,1,,,,,,,,,0,,,70,75
22200,note_on,0,0,1,,,,,,,,,0,,,63,0
22320,note_on,240,0,3,,,,,,,,,2,,,58,0
22320,note_on,0,0,3,,,,,,,,,2,,,46,62
22440,note_on,0,0,1,,,,,,,,,0,,,63,0
22440,note_on,240,0,1,,,,,,,,,0,,,70,0
22440,note_on,0,0,1,,,,,,,,,0,,,75,75
22440,note_on,0,0,1,,,,,,,,,0,,,67,75
22440,note_on,0,0,1,,,,,,,,,0,,,63,75
22440,note_on,0,0,1,,,,,,,,,0,,,67,0
22560,note_on,240,0,3,,,,,,,,,2,,,46,0
22560,note_on,0,0,3,,,,,,,,,2,,,47,62
22680,note_on,0,0,1,,,,,,,,,0,,,68,75
22680,note_on,0,0,1,,,,,,,,,0,,,67,0
22680,note_on,0,0,1,,,,,,,,,0,,,65,75
22680,note_on,0,0,1,,,,,,,,,0,,,63,0
22680,note_on,240,0,1,,,,,,,,,0,,,75,0
22680,note_on,0,0,1,,,,,,,,,0,,,74,75
22800,note_on,240,0,3,,,,,,,,,2,,,47,0
22800,note_on,0,0,3,,,,,,,,,2,,,46,62
22920,note_on,0,0,1,,,,,,,,,0,,,65,0
22920,note_on,0,0,1,,,,,,,,,0,,,68,75
22920,note_on,0,0,1,,,,,,,,,0,,,77,75
22920,note_on,0,0,1,,,,,,,,,0,,,65,75
22920,note_on,240,0,1,,,,,,,,,0,,,74,0
22920,note_on,0,0,1,,,,,,,,,0,,,68,0
23040,note_on,240,0,3,,,,,,,,,2,,,46,0
23040,note_on,0,0,3,,,,,,,,,2,,,51,62
23040,note_on,960,0,4,,,,,,,,,3,,,58,0
23160,note_on,0,0,1,,,,,,,,,0,,,75,75
23160,note_on,0,0,1,,,,,,,,,0,,,65,0
23160,note_on,0,0,1,,,,,,,,,0,,,67,75
23160,note_on,0,0,1,,,,,,,,,0,,,68,0
23160,note_on,240,0,1,,,,,,,,,0,,,77,0
23280,note_on,240,0,3,,,,,,,,,2,,,51,0
23280,note_on,0,0,3,,,,,,,,,2,,,36,75
23400,note_on,0,0,1,,,,,,,,,0,,,48,88
23400,note_on,0,0,1,,,,,,,,,0,,,67,0
23400,note_on,240,0,1,,,,,,,,,0,,,75,0
23520,note_on,0,0,3,,,,,,,,,2,,,38,75
23520,note_on,240,0,3,,,,,,,,,2,,,36,0
23640,note_on,240,0,1,,,,,,,,,0,,,48,0
23640,note_on,0,0,1,,,,,,,,,0,,,50,88
23760,note_on,240,0,3,,,,,,,,,2,,,38,0
23760,note_on,0,0,3,,,,,,,,,2,,,36,75
23880,note_on,0,0,1,,,,,,,,,0,,,48,88
23880,note_on,240,0,1,,,,,,,,,0,,,50,0
24000,note_on,240,0,3,,,,,,,,,2,,,36,0
24000,note_on,0,0,3,,,,,,,,,2,,,35,75
24120,note_on,240,0,1,,,,,,,,,0,,,48,0
24120,note_on,0,0,1,,,,,,,,,0,,,47,88
24240,note_on,240,0,3,,,,,,,,,2,,,35,0
24240,note_on,0,0,3,,,,,,,,,2,,,44,75
24360,note_on,240,0,1,,,,,,,,,0,,,47,0
24360,note_on,0,0,1,,,,,,,,,0,,,56,88
24480,note_on,240,0,3,,,,,,,,,2,,,44,0
24480,note_on,0,0,3,,,,,,,,,2,,,43,75
24600,note_on,0,0,1,,,,,,,,,0,,,55,88
24600,note_on,240,0,1,,,,,,,,,0,,,56,0
24720,note_on,240,0,3,,,,,,,,,2,,,43,0
24720,note_on,0,0,3,,,,,,,,,2,,,41,75
24840,note_on,0,0,1,,,,,,,,,0,,,53,88
24840,note_on,240,0,1,,,,,,,,,0,,,55,0
24960,note_on,240,0,3,,,,,,,,,2,,,41,0
24960,note_on,0,0,3,,,,,,,,,2,,,39,75
25080,note_on,0,0,1,,,,,,,,,0,,,51,88
25080,note_on,240,0,1,,,,,,,,,0,,,53,0
25200,note_on,0,0,3,,,,,,,,,2,,,63,75
25200,note_on,0,0,3,,,,,,,,,2,,,60,75
25200,note_on,2160,0,4,,,,,,,,,3,,,67,49
25200,note_on,240,0,3,,,,,,,,,2,,,39,0
25320,note_on,240,0,1,,,,,,,,,0,,,51,0
25320,note_on,0,0,1,,,,,,,,,0,,,72,88
25320,note_on,0,0,1,,,,,,,,,0,,,75,88
25320,note_on,25320,0,2,,,,,,,,,1,,,79,64
25440,note_on,240,0,3,,,,,,,,,2,,,63,0
25440,note_on,0,0,3,,,,,,,,,2,,,60,0
25440,note_on,0,0,3,,,,,,,,,2,,,59,75
25440,note_on,0,0,3,,,,,,,,,2,,,62,75
25560,note_on,0,0,1,,,,,,,,,0,,,71,88
25560,note_on,0,0,1,,,,,,,,,0,,,74,88
25560,note_on,240,0,1,,,,,,,,,0,,,75,0
25560,note_on,0,0,1,,,,,,,,,0,,,72,0
25680,note_on,0,0,3,,,,,,,,,2,,,57,75
25680,note_on,0,0,3,,,,,,,,,2,,,59,0
25680,note_on,240,0,3,,,,,,,,,2,,,62,0
25680,note_on,0,0,3,,,,,,,,,2,,,60,75
25800,note_on,0,0,1,,,,,,,,,0,,,72,88
25800,note_on,240,0,1,,,,,,,,,0,,,74,0
25800,note_on,480,0,2,,,,,,,,,1,,,79,0
25800,note_on,0,0,1,,,,,,,,,0,,,69,88
25800,note_on,0,0,1,,,,,,,,,0,,,71,0
25920,note_on,0,0,3,,,,,,,,,2,,,55,75
25920,note_on,0,0,3,,,,,,,,,2,,,59,75
25920,note_on,0,0,3,,,,,,,,,2,,,57,0
25920,note_on,240,0,3,,,,,,,,,2,,,60,0
26040,note_on,240,0,1,,,,,,,,,0,,,72,0
26040,note_on,0,0,1,,,,,,,,,0,,,71,88
26040,note_on,0,0,1,,,,,,,,,0,,,69,0
26040,note_on,0,0,1,,,,,,,,,0,,,67,88
26160,note_on,0,0,3,,,,,,,,,2,,,55,0
26160,note_on,0,0,3,,,,,,,,,2,,,65,75
26160,note_on,0,0,3,,,,,,,,,2,,,68,75
26160,note_on,240,0,3,,,,,,,,,2,,,59,0
26160,note_on,960,0,4,,,,,,,,,3,,,67,0
26280,note_on,0,0,1,,,,,,,,,0,,,80,88
26280,note_on,0,0,1,,,,,,,,,0,,,67,0
26280,note_on,0,0,1,,,,,,,,,0,,,77,88
26280,note_on,240,0,1,,,,,,,,,0,,,71,0
26400,note_on,0,0,3,,,,,,,,,2,,,67,75
26400,note_on,0,0,3,,,,,,,,,2,,,65,0
26400,note_on,0,0,3,,,,,,,,,2,,,63,75
26400,note_on,240,0,3,,,,,,,,,2,,,68,0
26520,note_on,0,0,1,,,,,,,,,0,,,79,88
26520,note_on,0,0,1,,,,,,,,,0,,,77,0
26520,note_on,0,0,1,,,,,,,,,0,,,75,88
26520,note_on,240,0,1,,,,,,,,,0,,,80,0
26640,note_on,0,0,3,,,,,,,,,2,,,62,75
26640,note_on,0,0,3,,,,,,,,,2,,,65,75
26640,note_on,240,0,3,,,,,,,,,2,,,67,0
26640,note_on,0,0,3,,,,,,,,,2,,,63,0
26760,note_on,0,0,1,,,,,,,,,0,,,77,88
26760,note_on,0,0,1,,,,,,,,,0,,,75,0
26760,note_on,0,0,1,,,,,,,,,0,,,74,88
26760,note_on,240,0,1,,,,,,,,,0,,,79,0
26880,note_on,0,0,3,,,,,,,,,2,,,63,75
26880,note_on,0,0,3,,,,,,,,,2,,,62,0
26880,note_on,0,0,3,,,,,,,,,2,,,60,75
26880,note_on,240,0,3,,,,,,,,,2,,,65,0
27000,note_on,0,0,1,,,,,,,,,0,,,74,0
27000,note_on,0,0,1,,,,,,,,,0,,,72,88
27000,note_on,0,0,1,,,,,,,,,0,,,75,88
27000,note_on,240,0,1,,,,,,,,,0,,,77,0
27120,note_on,240,0,3,,,,,,,,,2,,,63,0
27120,note_on,0,0,3,,,,,,,,,2,,,44,49
27120,note_on,0,0,3,,,,,,,,,2,,,60,0
27240,note_on,0,0,1,,,,,,,,,0,,,72,0
27240,note_on,240,0,1,,,,,,,,,0,,,75,0
27240,note_on,0,0,1,,,,,,,,,0,,,56,62
27360,note_on,240,0,3,,,,,,,,,2,,,44,0
27360,note_on,0,0,3,,,,,,,,,2,,,46,49
27480,note_on,0,0,1,,,,,,,,,0,,,58,62
27480,note_on,240,0,1,,,,,,,,,0,,,56,0
27600,note_on,0,0,3,,,,,,,,,2,,,44,49
27600,note_on,240,0,3,,,,,,,,,2,,,46,0
27720,note_on,0,0,1,,,,,,,,,0,,,56,62
27720,note_on,240,0,1,,,,,,,,,0,,,58,0
27840,note_on,0,0,3,,,,,,,,,2,,,43,49
27840,note_on,240,0,3,,,,,,,,,2,,,44,0
27960,note_on,0,0,1,,,,,,,,,0,,,55,62
27960,note_on,240,0,1,,,,,,,,,0,,,56,0
28080,note_on,240,0,3,,,,,,,,,2,,,43,0
28080,note_on,0,0,3,,,,,,,,,2,,,53,49
28200,note_on,240,0,1,,,,,,,,,0,,,55,0
28200,note_on,0,0,1,,,,,,,,,0,,,65,62
28320,note_on,240,0,3,,,,,,,,,2,,,53,0
28320,note_on,0,0,3,,,,,,,,,2,,,51,49
28440,note_on,0,0,1,,,,,,,,,0,,,63,62
28440,note_on,240,0,1,,,,,,,,,0,,,65,0
28560,note_on,0,0,3,,,,,,,,,2,,,49,49
28560,note_on,240,0,3,,,,,,,,,2,,,51,0
28680,note_on,0,0,1,,,,,,,,,0,,,61,62
28680,note_on,240,0,1,,,,,,,,,0,,,63,0
28800,note_on,0,0,3,,,,,,,,,2,,,48,49
28800,note_on,240,0,3,,,,,,,,,2,,,49,0
28920,note_on,0,0,1,,,,,,,,,0,,,60,62
28920,note_on,240,0,1,,,,,,,,,0,,,61,0
29040,note_on,0,0,3,,,,,,,,,2,,,60,49
29040,note_on,0,0,3,,,,,,,,,2,,,56,49
29040,note_on,2880,0,4,,,,,,,,,3,,,67,49
29040,note_on,240,0,3,,,,,,,,,2,,,48,0
29160,note_on,0,0,1,,,,,,,,,0,,,75,62
29160,note_on,0,0,1,,,,,,,,,0,,,72,62
29160,note_on,0,0,1,,,,,,,,,0,,,68,62
29160,note_on,240,0,1,,,,,,,,,0,,,60,0
29280,note_on,240,0,3,,,,,,,,,2,,,60,0
29280,note_on,0,0,3,,,,,,,,,2,,,58,49
29280,note_on,0,0,3,,,,,,,,,2,,,56,0
29280,note_on,0,0,3,,,,,,,,,2,,,55,49
29400,note_on,240,0,1,,,,,,,,,0,,,75,0
29400,note_on,0,0,1,,,,,,,,,0,,,70,62
29400,note_on,0,0,1,,,,,,,,,0,,,68,0
29400,note_on,0,0,1,,,,,,,,,0,,,67,62
29400,note_on,0,0,1,,,,,,,,,0,,,72,0
29520,note_on,0,0,3,,,,,,,,,2,,,53,49
29520,note_on,0,0,3,,,,,,,,,2,,,56,49
29520,note_on,240,0,3,,,,,,,,,2,,,58,0
29520,note_on,0,0,3,,,,,,,,,2,,,55,0
29640,note_on,0,0,1,,,,,,,,,0,,,67,0
29640,note_on,0,0,1,,,,,,,,,0,,,68,62
29640,note_on,0,0,1,,,,,,,,,0,,,65,62
29640,note_on,240,0,1,,,,,,,,,0,,,70,0
29760,note_on,240,0,3,,,,,,,,,2,,,56,0
29760,note_on,0,0,3,,,,,,,,,2,,,51,49
29760,note_on,0,0,3,,,,,,,,,2,,,53,0
29760,note_on,0,0,3,,,,,,,,,2,,,55,49
29880,note_on,0,0,1,,,,,,,,,0,,,65,0
29880,note_on,0,0,1,,,,,,,,,0,,,67,62
29880,note_on,240,0,1,,,,,,,,,0,,,68,0
29880,note_on,0,0,1,,,,,,,,,0,,,63,62
30000,note_on,960,0,4,,,,,,,,,3,,,67,0
30000,note_on,0,0,3,,,,,,,,,2,,,65,49
30000,note_on,0,0,3,,,,,,,,,2,,,61,49
30000,note_on,240,0,3,,,,,,,,,2,,,55,0
30000,note_on,0,0,3,,,,,,,,,2,,,51,0
30120,note_on,0,0,1,,,,,,,,,0,,,77,88
30120,note_on,240,0,1,,,,,,,,,0,,,67,0
30120,note_on,0,0,1,,,,,,,,,0,,,63,0
30120,note_on,0,0,1,,,,,,,,,0,,,73,88
30240,note_on,240,0,3,,,,,,,,,2,,,65,0
30240,note_on,0,0,3,,,,,,,,,2,,,60,49
30240,note_on,0,0,3,,,,,,,,,2,,,63,49
30240,note_on,0,0,3,,,,,,,,,2,,,61,0
30360,note_on,240,0,1,,,,,,,,,0,,,77,0
30360,note_on,0,0,1,,,,,,,,,0,,,72,62
30360,note_on,0,0,1,,,,,,,,,0,,,73,0
30360,note_on,0,0,1,,,,,,,,,0,,,75,62
30480,note_on,240,0,3,,,,,,,,,2,,,63,0
30480,note_on,0,0,3,,,,,,,,,2,,,58,49
30480,note_on,0,0,3,,,,,,,,,2,,,60,0
30480,note_on,0,0,3,,,,,,,,,2,,,61,49
30600,note_on,240,0,1,,,,,,,,,0,,,75,0
30600,note_on,0,0,1,,,,,,,,,0,,,70,62
30600,note_on,0,0,1,,,,,,,,,0,,,72,0
30600,note_on,0,0,1,,,,,,,,,0,,,73,62
30720,note_on,0,0,4,,,,,,,,,3,,,60,49
30720,note_on,0,0,3,,,,,,,,,2,,,63,49
30720,note_on,0,0,3,,,,,,,,,2,,,58,0
30720,note_on,720,0,4,,,,,,,,,3,,,56,49
30720,note_on,240,0,3,,,,,,,,,2,,,61,0
30840,note_on,0,0,1,,,,,,,,,0,,,75,75
30840,note_on,240,0,1,,,,,,,,,0,,,73,0
30840,note_on,5040,0,2,,,,,,,,,1,,,68,62
30840,note_on,0,0,1,,,,,,,,,0,,,70,0
30840,note_on,0,0,2,,,,,,,,,1,,,72,62
30960,note_on,0,0,4,,,,,,,,,3,,,56,0
30960,note_on,0,0,4,,,,,,,,,3,,,59,49
30960,note_on,240,0,4,,,,,,,,,3,,,60,0
30960,note_on,0,0,4,,,,,,,,,3,,,55,49
31080,note_on,0,0,2,,,,,,,,,1,,,68,0
31080,note_on,240,0,2,,,,,,,,,1,,,72,0
31080,note_on,0,0,2,,,,,,,,,1,,,67,62
31080,note_on,0,0,2,,,,,,,,,1,,,71,62
31200,note_on,0,0,4,,,,,,,,,3,,,60,49
31200,note_on,240,0,4,,,,,,,,,3,,,59,0
31200,note_on,0,0,4,,,,,,,,,3,,,55,0
31200,note_on,0,0,4,,,,,,,,,3,,,56,49
31320,note_on,0,0,2,,,,,,,,,1,,,72,62
31320,note_on,0,0,2,,,,,,,,,1,,,68,62
31320,note_on,240,0,2,,,,,,,,,1,,,71,0
31320,note_on,0,0,2,,,,,,,,,1,,,67,0
31440,note_on,0,0,4,,,,,,,,,3,,,58,49
31440,note_on,0,0,4,,,,,,,,,3,,,56,0
31440,note_on,0,0,4,,,,,,,,,3,,,54,49
31440,note_on,240,0,4,,,,,,,,,3,,,60,0
31440,note_on,0,0,3,,,,,,,,,2,,,64,49
31440,note_on,720,0,3,,,,,,,,,2,,,63,0
31560,note_on,240,0,2,,,,,,,,,1,,,72,0
31560,note_on,0,0,2,,,,,,,,,1,,,66,62
31560,note_on,0,0,2,,,,,,,,,1,,,68,0
31560,note_on,0,0,2,,,,,,,,,1,,,70,62
31560,note_on,720,0,1,,,,,,,,,0,,,75,0
31560,note_on,0,0,1,,,,,,,,,0,,,76,88
31680,note_on,0,0,3,,,,,,,,,2,,,65,49
31680,note_on,0,0,4,,,,,,,,,3,,,53,49
31680,note_on,0,0,4,,,,,,,,,3,,,54,0
31680,note_on,0,0,4,,,,,,,,,3,,,57,49
31680,note_on,240,0,3,,,,,,,,,2,,,64,0
31680,note_on,240,0,4,,,,,,,,,3,,,58,0
31800,note_on,0,0,2,,,,,,,,,1,,,69,62
31800,note_on,0,0,2,,,,,,,,,1,,,66,0
31800,note_on,0,0,2,,,,,,,,,1,,,65,62
31800,note_on,240,0,2,,,,,,,,,1,,,70,0
31800,note_on,0,0,1,,,,,,,,,0,,,77,88
31800,note_on,240,0,1,,,,,,,,,0,,,76,0
31920,note_on,0,0,4,,,,,,,,,3,,,57,49
31920,note_on,0,0,4,,,,,,,,,3,,,53,49
31920,note_on,0,0,4,,,,,,,,,3,,,53,0
31920,note_on,240,0,4,,,,,,,,,3,,,57,0
32040,note_on,0,0,2,,,,,,,,,1,,,65,62
32040,note_on,0,0,2,,,,,,,,,1,,,65,0
32040,note_on,240,0,2,,,,,,,,,1,,,69,0
32040,note_on,0,0,2,,,,,,,,,1,,,69,62
32160,note_on,240,0,4,,,,,,,,,3,,,57,0
32160,note_on,0,0,4,,,,,,,,,3,,,58,49
32160,note_on,0,0,4,,,,,,,,,3,,,53,0
32160,note_on,0,0,4,,,,,,,,,3,,,55,49
32280,note_on,0,0,2,,,,,,,,,1,,,70,62
32280,note_on,240,0,2,,,,,,,,,1,,,69,0
32280,note_on,0,0,2,,,,,,,,,1,,,67,62
32280,note_on,0,0,2,,,,,,,,,1,,,65,0
32400,note_on,0,0,4,,,,,,,,,3,,,57,49
32400,note_on,0,0,4,,,,,,,,,3,,,60,49
32400,note_on,240,0,4,,,,,,,,,3,,,58,0
32400,note_on,0,0,4,,,,,,,,,3,,,55,0
32520,note_on,240,0,2,,,,,,,,,1,,,70,0
32520,note_on,0,0,2,,,,,,,,,1,,,72,62
32520,note_on,0,0,2,,,,,,,,,1,,,69,62
32520,note_on,0,0,2,,,,,,,,,1,,,67,0
32520,note_on,720,0,1,,,,,,,,,0,,,77,0
32640,note_on,0,0,3,,,,,,,,,2,,,65,49
32640,note_on,960,0,3,,,,,,,,,2,,,65,0
32640,note_on,0,0,4,,,,,,,,,3,,,58,49
32640,note_on,240,0,4,,,,,,,,,3,,,60,0
32640,note_on,0,0,4,,,,,,,,,3,,,57,0
32640,note_on,0,0,4,,,,,,,,,3,,,62,49
32760,note_on,240,0,1,,,,,,,,,0,,,77,75
32760,note_on,240,0,2,,,,,,,,,1,,,72,0
32760,note_on,0,0,2,,,,,,,,,1,,,69,0
32760,note_on,0,0,2,,,,,,,,,1,,,70,62
32760,note_on,0,0,2,,,,,,,,,1,,,74,62
32880,note_on,0,0,4,,,,,,,,,3,,,57,49
32880,note_on,0,0,4,,,,,,,,,3,,,58,0
32880,note_on,0,0,4,,,,,,,,,3,,,61,49
32880,note_on,240,0,4,,,,,,,,,3,,,62,0
33000,note_on,240,0,2,,,,,,,,,1,,,74,0
33000,note_on,0,0,2,,,,,,,,,1,,,70,0
33000,note_on,0,0,2,,,,,,,,,1,,,73,62
33000,note_on,0,0,2,,,,,,,,,1,,,69,62
33120,note_on,240,0,4,,,,,,,,,3,,,61,0
33120,note_on,0,0,4,,,,,,,,,3,,,57,0
33120,note_on,0,0,4,,,,,,,,,3,,,62,49
33120,note_on,0,0,4,,,,,,,,,3,,,58,49
33240,note_on,240,0,2,,,,,,,,,1,,,73,0
33240,note_on,0,0,2,,,,,,,,,1,,,74,62
33240,note_on,0,0,2,,,,,,,,,1,,,70,62
33240,note_on,0,0,2,,,,,,,,,1,,,69,0
33360,note_on,720,0,3,,,,,,,,,2,,,65,0
33360,note_on,0,0,4,,,,,,,,,3,,,58,0
33360,note_on,0,0,4,,,,,,,,,3,,,60,49
33360,note_on,0,0,3,,,,,,,,,2,,,66,49
33360,note_on,0,0,4,,,,,,,,,3,,,56,49
33360,note_on,240,0,4,,,,,,,,,3,,,62,0
33480,note_on,0,0,1,,,,,,,,,0,,,78,88
33480,note_on,240,0,2,,,,,,,,,1,,,74,0
33480,note_on,0,0,2,,,,,,,,,1,,,68,62
33480,note_on,0,0,2,,,,,,,,,1,,,70,0
33480,note_on,0,0,2,,,,,,,,,1,,,72,62
33480,note_on,720,0,1,,,,,,,,,0,,,77,0
33600,note_on,0,0,4,,,,,,,,,3,,,59,49
33600,note_on,0,0,4,,,,,,,,,3,,,56,0
33600,note_on,0,0,3,,,,,,,,,2,,,67,49
33600,note_on,0,0,4,,,,,,,,,3,,,55,49
33600,note_on,240,0,4,,,,,,,,,3,,,60,0
33600,note_on,240,0,3,,,,,,,,,2,,,66,0
33720,note_on,0,0,1,,,,,,,,,0,,,79,88
33720,note_on,0,0,2,,,,,,,,,1,,,67,62
33720,note_on,0,0,2,,,,,,,,,1,,,68,0
33720,note_on,0,0,2,,,,,,,,,1,,,71,62
33720,note_on,240,0,1,,,,,,,,,0,,,78,0
33720,note_on,240,0,2,,,,,,,,,1,,,72,0
33840,note_on,240,0,4,,,,,,,,,3,,,59,0
33840,note_on,0,0,4,,,,,,,,,3,,,55,0
33840,note_on,0,0,4,,,,,,,,,3,,,55,49
33840,note_on,0,0,4,,,,,,,,,3,,,59,49
33960,note_on,240,0,2,,,,,,,,,1,,,71,0
33960,note_on,0,0,2,,,,,,,,,1,,,67,0
33960,note_on,0,0,2,,,,,,,,,1,,,71,62
33960,note_on,0,0,2,,,,,,,,,1,,,67,62
34080,note_on,0,0,4,,,,,,,,,3,,,60,49
34080,note_on,240,0,4,,,,,,,,,3,,,59,0
34080,note_on,0,0,4,,,,,,,,,3,,,55,0
34080,note_on,0,0,4,,,,,,,,,3,,,57,49
34200,note_on,0,0,2,,,,,,,,,1,,,72,62
34200,note_on,240,0,2,,,,,,,,,1,,,71,0
34200,note_on,0,0,2,,,,,,,,,1,,,67,0
34200,note_on,0,0,2,,,,,,,,,1,,,69,62
34320,note_on,0,0,4,,,,,,,,,3,,,59,49
34320,note_on,240,0,4,,,,,,,,,3,,,60,0
34320,note_on,0,0,4,,,,,,,,,3,,,57,0
34320,note_on,0,0,4,,,,,,,,,3,,,62,49
34440,note_on,240,0,2,,,,,,,,,1,,,72,0
34440,note_on,0,0,2,,,,,,,,,1,,,69,0
34440,note_on,0,0,2,,,,,,,,,1,,,74,62
34440,note_on,0,0,2,,,,,,,,,1,,,71,62
34440,note_on,720,0,1,,,,,,,,,0,,,79,0
34560,note_on,0,0,4,,,,,,,,,3,,,59,0
34560,note_on,240,0,4,,,,,,,,,3,,,62,0
34560,note_on,0,0,4,,,,,,,,,3,,,63,49
34560,note_on,960,0,3,,,,,,,,,2,,,67,0
34560,note_on,0,0,3,,,,,,,,,2,,,67,49
34560,note_on,0,0,4,,,,,,,,,3,,,60,49
34680,note_on,240,0,2,,,,,,,,,1,,,74,0
34680,note_on,0,0,2,,,,,,,,,1,,,71,0
34680,note_on,0,0,2,,,,,,,,,1,,,72,62
34680,note_on,0,0,2,,,,,,,,,1,,,75,62
34680,note_on,240,0,1,,,,,,,,,0,,,79,75
34800,note_on,0,0,4,,,,,,,,,3,,,59,49
34800,note_on,0,0,4,,,,,,,,,3,,,60,0
34800,note_on,240,0,4,,,,,,,,,3,,,63,0
34800,note_on,0,0,4,,,,,,,,,3,,,62,49
34920,note_on,240,0,2,,,,,,,,,1,,,75,0
34920,note_on,0,0,2,,,,,,,,,1,,,71,62
34920,note_on,0,0,2,,,,,,,,,1,,,72,0
34920,note_on,0,0,2,,,,,,,,,1,,,74,62
35040,note_on,0,0,4,,,,,,,,,3,,,60,49
35040,note_on,0,0,4,,,,,,,,,3,,,63,49
35040,note_on,240,0,4,,,,,,,,,3,,,62,0
35040,note_on,0,0,4,,,,,,,,,3,,,59,0
35160,note_on,240,0,2,,,,,,,,,1,,,74,0
35160,note_on,0,0,2,,,,,,,,,1,,,75,62
35160,note_on,0,0,2,,,,,,,,,1,,,72,62
35160,note_on,0,0,2,,,,,,,,,1,,,71,0
35280,note_on,720,0,3,,,,,,,,,2,,,67,0
35280,note_on,0,0,4,,,,,,,,,3,,,60,0
35280,note_on,0,0,3,,,,,,,,,2,,,67,49
35280,note_on,0,0,4,,,,,,,,,3,,,58,49
35280,note_on,240,0,4,,,,,,,,,3,,,63,0
35280,note_on,0,0,4,,,,,,,,,3,,,62,49
35400,note_on,0,0,1,,,,,,,,,0,,,79,88
35400,note_on,720,0,1,,,,,,,,,0,,,79,0
35400,note_on,0,0,2,,,,,,,,,1,,,72,0
35400,note_on,0,0,2,,,,,,,,,1,,,70,62
35400,note_on,0,0,2,,,,,,,,,1,,,74,62
35400,note_on,240,0,2,,,,,,,,,1,,,75,0
35520,note_on,0,0,4,,,,,,,,,3,,,56,49
35520,note_on,240,0,4,,,,,,,,,3,,,62,0
35520,note_on,0,0,4,,,,,,,,,3,,,58,0
35520,note_on,0,0,4,,,,,,,,,3,,,60,49
35520,note_on,240,0,3,,,,,,,,,2,,,67,0
35520,note_on,0,0,3,,,,,,,,,2,,,68,49
35640,note_on,0,0,2,,,,,,,,,1,,,68,62
35640,note_on,240,0,1,,,,,,,,,0,,,79,0
35640,note_on,0,0,1,,,,,,,,,0,,,80,88
35640,note_on,240,0,2,,,,,,,,,1,,,74,0
35640,note_on,0,0,2,,,,,,,,,1,,,70,0
35640,note_on,0,0,2,,,,,,,,,1,,,72,62
35760,note_on,0,0,4,,,,,,,,,3,,,56,0
35760,note_on,0,0,4,,,,,,,,,3,,,56,49
35760,note_on,0,0,4,,,,,,,,,3,,,60,49
35760,note_on,240,0,4,,,,,,,,,3,,,60,0
35880,note_on,0,0,2,,,,,,,,,1,,,72,62
35880,note_on,0,0,2,,,,,,,,,1,,,68,62
35880,note_on,0,0,2,,,,,,,,,1,,,68,0
35880,note_on,240,0,2,,,,,,,,,1,,,72,0
36000,note_on,0,0,4,,,,,,,,,3,,,62,49
36000,note_on,0,0,4,,,,,,,,,3,,,58,49
36000,note_on,240,0,4,,,,,,,,,3,,,60,0
36000,note_on,0,0,4,,,,,,,,,3,,,56,0
36120,note_on,0,0,2,,,,,,,,,1,,,68,0
36120,note_on,0,0,2,,,,,,,,,1,,,70,62
36120,note_on,0,0,2,,,,,,,,,1,,,74,62
36120,note_on,240,0,2,,,,,,,,,1,,,72,0
36240,note_on,0,0,4,,,,,,,,,3,,,63,49
36240,note_on,0,0,4,,,,,,,,,3,,,60,49
36240,note_on,0,0,4,,,,,,,,,3,,,58,0
36240,note_on,240,0,4,,,,,,,,,3,,,62,0
36360,note_on,0,0,2,,,,,,,,,1,,,75,62
36360,note_on,0,0,2,,,,,,,,,1,,,72,62
36360,note_on,240,0,2,,,,,,,,,1,,,74,0
36360,note_on,720,0,1,,,,,,,,,0,,,80,0
36360,note_on,0,0,2,,,,,,,,,1,,,70,0
36480,note_on,0,0,1,,,,,,,,,0,,,77,88
36480,note_on,0,0,2,,,,,,,,,1,,,72,0
36480,note_on,0,0,3,,,,,,,,,2,,,65,75
36480,note_on,0,0,3,,,,,,,,,2,,,62,75
36480,note_on,0,0,3,,,,,,,,,2,,,58,75
36480,note_on,120,0,1,,,,,,,,,0,,,70,88
36480,note_on,240,0,4,,,,,,,,,3,,,63,0
36480,note_on,0,0,1,,,,,,,,,0,,,80,88
36480,note_on,120,0,2,,,,,,,,,1,,,75,0
36480,note_on,0,0,4,,,,,,,,,3,,,60,0
36480,note_on,960,0,3,,,,,,,,,2,,,68,0
36480,note_on,0,0,3,,,,,,,,,2,,,68,75
36480,note_on,0,0,1,,,,,,,,,0,,,74,88
36720,note_on,0,0,1,,,,,,,,,0,,,70,0
36720,note_on,0,0,1,,,,,,,,,0,,,74,0
36720,note_on,240,0,3,,,,,,,,,2,,,68,0
36720,note_on,240,0,1,,,,,,,,,0,,,80,0
36720,note_on,0,0,3,,,,,,,,,2,,,71,62
36720,note_on,0,0,3,,,,,,,,,2,,,65,0
36720,note_on,0,0,3,,,,,,,,,2,,,62,0
36720,note_on,0,0,1,,,,,,,,,0,,,77,0
36720,note_on,0,0,3,,,,,,,,,2,,,58,0
36840,note_on,120,0,1,,,,,,,,,0,,,83,62
36960,note_on,0,0,3,,,,,,,,,2,,,70,62
36960,note_on,240,0,3,,,,,,,,,2,,,71,0
37080,note_on,0,0,1,,,,,,,,,0,,,82,62
37080,note_on,240,0,1,,,,,,,,,0,,,83,0
37200,note_on,240,0,3,,,,,,,,,2,,,70,0
37200,note_on,0,0,3,,,,,,,,,2,,,68,62
37320,note_on,0,0,1,,,,,,,,,0,,,80,62
37320,note_on,240,0,1,,,,,,,,,0,,,82,0
37440,note_on,0,0,3,,,,,,,,,2,,,66,62
37440,note_on,240,0,3,,,,,,,,,2,,,68,0
37560,note_on,240,0,1,,,,,,,,,0,,,80,0
37560,note_on,0,0,1,,,,,,,,,0,,,78,49
37680,note_on,0,0,3,,,,,,,,,2,,,65,49
37680,note_on,240,0,3,,,,,,,,,2,,,66,0
37800,note_on,240,0,1,,,,,,,,,0,,,78,0
37800,note_on,0,0,1,,,,,,,,,0,,,77,49
37920,note_on,0,0,3,,,,,,,,,2,,,63,49
37920,note_on,240,0,3,,,,,,,,,2,,,65,0
38040,note_on,240,0,1,,,,,,,,,0,,,77,0
38040,note_on,0,0,1,,,,,,,,,0,,,75,49
38160,note_on,0,0,3,,,,,,,,,2,,,62,49
38160,note_on,240,0,3,,,,,,,,,2,,,63,0
38280,note_on,0,0,1,,,,,,,,,0,,,74,49
38280,note_on,240,0,1,,,,,,,,,0,,,75,0
38400,note_on,0,0,1,,,,,,,,,0,,,70,88
38400,note_on,0,0,3,,,,,,,,,2,,,68,75
38400,note_on,240,0,3,,,,,,,,,2,,,62,0
38400,note_on,0,0,1,,,,,,,,,0,,,77,88
38400,note_on,0,0,1,,,,,,,,,0,,,80,88
38400,note_on,120,0,1,,,,,,,,,0,,,74,0
38400,note_on,0,0,3,,,,,,,,,2,,,58,75
38400,note_on,0,0,3,,,,,,,,,2,,,62,75
38400,note_on,0,0,1,,,,,,,,,0,,,74,88
38400,note_on,0,0,3,,,,,,,,,2,,,65,75
38640,note_on,0,0,1,,,,,,,,,0,,,70,0
38640,note_on,0,0,1,,,,,,,,,0,,,77,0
38640,note_on,0,0,3,,,,,,,,,2,,,62,0
38640,note_on,0,0,3,,,,,,,,,2,,,65,0
38640,note_on,0,0,3,,,,,,,,,2,,,71,62
38640,note_on,0,0,1,,,,,,,,,0,,,74,0
38640,note_on,240,0,1,,,,,,,,,0,,,80,0
38640,note_on,240,0,3,,,,,,,,,2,,,68,0
38640,note_on,0,0,3,,,,,,,,,2,,,58,0
38760,note_on,120,0,1,,,,,,,,,0,,,83,62
38880,note_on,240,0,3,,,,,,,,,2,,,71,0
38880,note_on,0,0,3,,,,,,,,,2,,,70,62
39000,note_on,240,0,1,,,,,,,,,0,,,83,0
39000,note_on,0,0,1,,,,,,,,,0,,,82,62
39120,note_on,0,0,3,,,,,,,,,2,,,68,62
39120,note_on,240,0,3,,,,,,,,,2,,,70,0
39240,note_on,240,0,1,,,,,,,,,0,,,82,0
39240,note_on,0,0,1,,,,,,,,,0,,,80,62
39360,note_on,240,0,3,,,,,,,,,2,,,68,0
39360,note_on,0,0,3,,,,,,,,,2,,,66,49
39480,note_on,240,0,1,,,,,,,,,0,,,80,0
39480,note_on,0,0,1,,,,,,,,,0,,,78,49
39600,note_on,240,0,3,,,,,,,,,2,,,66,0
39600,note_on,0,0,3,,,,,,,,,2,,,65,49
39720,note_on,240,0,1,,,,,,,,,0,,,78,0
39720,note_on,0,0,1,,,,,,,,,0,,,77,49
39840,note_on,0,0,3,,,,,,,,,2,,,63,49
39840,note_on,240,0,3,,,,,,,,,2,,,65,0
39960,note_on,240,0,1,,,,,,,,,0,,,77,0
39960,note_on,0,0,1,,,,,,,,,0,,,75,49
40080,note_on,0,0,3,,,,,,,,,2,,,62,49
40080,note_on,240,0,3,,,,,,,,,2,,,63,0
40200,note_on,240,0,1,,,,,,,,,0,,,75,0
40200,note_on,0,0,1,,,,,,,,,0,,,74,49
40320,note_on,0,0,3,,,,,,,,,2,,,59,62
40320,note_on,240,0,3,,,,,,,,,2,,,62,0
40440,note_on,0,0,1,,,,,,,,,0,,,71,62
40440,note_on,240,0,1,,,,,,,,,0,,,74,0
40560,note_on,0,0,3,,,,,,,,,2,,,58,62
40560,note_on,240,0,3,,,,,,,,,2,,,59,0
40680,note_on,0,0,1,,,,,,,,,0,,,70,62
40680,note_on,240,0,1,,,,,,,,,0,,,71,0
40800,note_on,240,0,3,,,,,,,,,2,,,58,0
40800,note_on,0,0,3,,,,,,,,,2,,,56,62
40920,note_on,0,0,1,,,,,,,,,0,,,68,62
40920,note_on,240,0,1,,,,,,,,,0,,,70,0
41040,note_on,0,0,3,,,,,,,,,2,,,54,62
41040,note_on,240,0,3,,,,,,,,,2,,,56,0
41160,note_on,0,0,1,,,,,,,,,0,,,66,62
41160,note_on,240,0,1,,,,,,,,,0,,,68,0
41280,note_on,240,0,3,,,,,,,,,2,,,54,0
41280,note_on,0,0,3,,,,,,,,,2,,,53,75
41400,note_on,240,0,1,,,,,,,,,0,,,66,0
41400,note_on,0,0,1,,,,,,,,,0,,,65,75
41520,note_on,0,0,3,,,,,,,,,2,,,51,75
41520,note_on,240,0,3,,,,,,,,,2,,,53,0
41640,note_on,240,0,1,,,,,,,,,0,,,65,0
41640,note_on,0,0,1,,,,,,,,,0,,,63,75
41760,note_on,0,0,3,,,,,,,,,2,,,50,75
41760,note_on,240,0,3,,,,,,,,,2,,,51,0
41880,note_on,0,0,1,,,,,,,,,0,,,62,75
41880,note_on,240,0,1,,,,,,,,,0,,,63,0
42000,note_on,0,0,3,,,,,,,,,2,,,47,75
42000,note_on,240,0,3,,,,,,,,,2,,,50,0
42120,note_on,0,0,1,,,,,,,,,0,,,59,75
42120,note_on,240,0,1,,,,,,,,,0,,,62,0
42240,note_on,240,0,3,,,,,,,,,2,,,47,0
42240,note_on,0,0,3,,,,,,,,,2,,,46,88
42360,note_on,240,0,1,,,,,,,,,0,,,59,0
42360,note_on,0,0,1,,,,,,,,,0,,,58,88
42480,note_on,240,0,3,,,,,,,,,2,,,46,0
42480,note_on,0,0,3,,,,,,,,,2,,,50,88
42600,note_on,240,0,1,,,,,,,,,0,,,58,0
42600,note_on,0,0,1,,,,,,,,,0,,,62,88
42720,note_on,240,0,3,,,,,,,,,2,,,50,0
42720,note_on,0,0,3,,,,,,,,,2,,,53,88
42840,note_on,240,0,1,,,,,,,,,0,,,62,0
42840,note_on,0,0,1,,,,,,,,,0,,,65,88
42960,note_on,240,0,3,,,,,,,,,2,,,53,0
42960,note_on,0,0,3,,,,,,,,,2,,,58,88
43080,note_on,240,0,1,,,,,,,,,0,,,65,0
43080,note_on,0,0,1,,,,,,,,,0,,,70,88
43200,note_on,240,0,3,,,,,,,,,2,,,58,0
43200,note_on,0,0,3,,,,,,,,,2,,,47,62
43320,note_on,0,0,1,,,,,,,,,0,,,59,62
43320,note_on,240,0,1,,,,,,,,,0,,,70,0
43320,note_on,0,0,1,,,,,,,,,0,,,63,62
43440,note_on,240,0,3,,,,,,,,,2,,,47,0
43440,note_on,0,0,3,,,,,,,,,2,,,58,62
43560,note_on,240,0,1,,,,,,,,,0,,,63,0
43560,note_on,0,0,1,,,,,,,,,0,,,59,0
43560,note_on,0,0,1,,,,,,,,,0,,,70,62
43680,note_on,240,0,3,,,,,,,,,2,,,58,0
43680,note_on,0,0,3,,,,,,,,,2,,,56,62
43800,note_on,0,0,1,,,,,,,,,0,,,68,62
43800,note_on,240,0,1,,,,,,,,,0,,,70,0
43920,note_on,240,0,3,,,,,,,,,2,,,56,0
43920,note_on,0,0,3,,,,,,,,,2,,,59,62
44040,note_on,0,0,1,,,,,,,,,0,,,71,62
44040,note_on,240,0,1,,,,,,,,,0,,,68,0
44160,note_on,240,0,3,,,,,,,,,2,,,59,0
44160,note_on,0,0,3,,,,,,,,,2,,,46,88
44280,note_on,240,0,1,,,,,,,,,0,,,71,0
44280,note_on,0,0,1,,,,,,,,,0,,,58,88
44400,note_on,0,0,3,,,,,,,,,2,,,50,88
44400,note_on,240,0,3,,,,,,,,,2,,,46,0
44520,note_on,0,0,1,,,,,,,,,0,,,62,88
44520,note_on,240,0,1,,,,,,,,,0,,,58,0
44640,note_on,0,0,3,,,,,,,,,2,,,53,88
44640,note_on,240,0,3,,,,,,,,,2,,,50,0
44760,note_on,0,0,1,,,,,,,,,0,,,65,88
44760,note_on,240,0,1,,,,,,,,,0,,,62,0
44880,note_on,0,0,3,,,,,,,,,2,,,58,88
44880,note_on,240,0,3,,,,,,,,,2,,,53,0
45000,note_on,0,0,1,,,,,,,,,0,,,70,88
45000,note_on,240,0,1,,,,,,,,,0,,,65,0
45120,note_on,0,0,3,,,,,,,,,2,,,47,62
45120,note_on,240,0,3,,,,,,,,,2,,,58,0
45240,note_on,240,0,1,,,,,,,,,0,,,70,0
45240,note_on,0,0,1,,,,,,,,,0,,,59,62
45240,note_on,0,0,1,,,,,,,,,0,,,63,62
45360,note_on,240,0,3,,,,,,,,,2,,,47,0
45360,note_on,0,0,3,,,,,,,,,2,,,58,62
45480,note_on,0,0,1,,,,,,,,,0,,,59,0
45480,note_on,240,0,1,,,,,,,,,0,,,63,0
45480,note_on,0,0,1,,,,,,,,,0,,,70,62
45600,note_on,240,0,3,,,,,,,,,2,,,58,0
45600,note_on,0,0,3,,,,,,,,,2,,,56,62
45720,note_on,0,0,1,,,,,,,,,0,,,68,62
45720,note_on,240,0,1,,,,,,,,,0,,,70,0
45840,note_on,0,0,3,,,,,,,,,2,,,59,62
45840,note_on,240,0,3,,,,,,,,,2,,,56,0
45960,note_on,240,0,1,,,,,,,,,0,,,68,0
45960,note_on,0,0,1,,,,,,,,,0,,,71,62
46080,note_on,0,0,3,,,,,,,,,2,,,46,75
46080,note_on,240,0,3,,,,,,,,,2,,,59,0
46200,note_on,240,0,1,,,,,,,,,0,,,71,0
46200,note_on,0,0,1,,,,,,,,,0,,,58,75
46320,note_on,0,0,3,,,,,,,,,2,,,50,75
46320,note_on,240,0,3,,,,,,,,,2,,,46,0
46440,note_on,240,0,1,,,,,,,,,0,,,58,0
46440,note_on,0,0,1,,,,,,,,,0,,,62,75
46560,note_on,240,0,3,,,,,,,,,2,,,50,0
46560,note_on,0,0,3,,,,,,,,,2,,,53,88
46680,note_on,240,0,1,,,,,,,,,0,,,62,0
46680,note_on,0,0,1,,,,,,,,,0,,,65,88
46800,note_on,240,0,3,,,,,,,,,2,,,53,0
46800,note_on,0,0,3,,,,,,,,,2,,,58,88
46920,note_on,240,0,1,,,,,,,,,0,,,65,0
46920,note_on,0,0,1,,,,,,,,,0,,,70,88
47040,note_on,0,0,3,,,,,,,,,2,,,45,88
47040,note_on,240,0,3,,,,,,,,,2,,,58,0
47160,note_on,240,0,1,,,,,,,,,0,,,70,0
47160,set_tempo,31768,1,0,,,,,,645161,,,,,,,
47160,note_on,0,0,1,,,,,,,,,0,,,57,88
47280,note_on,240,0,3,,,,,,,,,2,,,45,0
47280,note_on,0,0,3,,,,,,,,,2,,,50,88
47400,set_tempo,240,1,0,,,,,,666667,,,,,,,
47400,note_on,0,0,1,,,,,,,,,0,,,62,88
47400,note_on,240,0,1,,,,,,,,,0,,,57,0
47520,note_on,240,0,3,,,,,,,,,2,,,50,0
47520,note_on,0,0,3,,,,,,,,,2,,,53,88
47640,set_tempo,240,1,0,,,,,,689655,,,,,,,
47640,note_on,240,0,1,,,,,,,,,0,,,62,0
47640,note_on,0,0,1,,,,,,,,,0,,,65,88
47760,note_on,0,0,3,,,,,,,,,2,,,58,88
47760,note_on,240,0,3,,,,,,,,,2,,,53,0
47880,set_tempo,240,1,0,,,,,,722892,,,,,,,
47880,note_on,240,0,1,,,,,,,,,0,,,65,0
47880,note_on,0,0,1,,,,,,,,,0,,,70,88
48000,note_on,240,0,3,,,,,,,,,2,,,58,0
48000,note_on,0,0,3,,,,,,,,,2,,,44,88
48120,note_on,240,0,1,,,,,,,,,0,,,70,0
48120,set_tempo,240,1,0,,,,,,750000,,,,,,,
48120,note_on,0,0,1,,,,,,,,,0,,,56,75
48240,note_on,240,0,3,,,,,,,,,2,,,44,0
48240,note_on,0,0,3,,,,,,,,,2,,,50,75
48360,note_on,240,0,1,,,,,,,,,0,,,56,0
48360,set_tempo,240,1,0,,,,,,779221,,,,,,,
48360,note_on,0,0,1,,,,,,,,,0,,,62,75
48480,note_on,0,0,3,,,,,,,,,2,,,53,75
48480,note_on,240,0,3,,,,,,,,,2,,,50,0
48600,note_on,240,0,1,,,,,,,,,0,,,62,0
48600,set_tempo,240,1,0,,,,,,810811,,,,,,,
48600,note_on,0,0,1,,,,,,,,,0,,,65,75
48720,note_on,240,0,3,,,,,,,,,2,,,53,0
48720,note_on,0,0,3,,,,,,,,,2,,,58,75
48840,note_on,240,0,1,,,,,,,,,0,,,65,0
48840,note_on,0,0,1,,,,,,,,,0,,,70,75
48840,set_tempo,240,1,0,,,,,,857143,,,,,,,
48960,note_on,240,0,3,,,,,,,,,2,,,58,0
48960,note_on,0,0,3,,,,,,,,,2,,,41,62
49080,note_on,240,0,1,,,,,,,,,0,,,70,0
49080,note_on,0,0,1,,,,,,,,,0,,,53,62
49200,note_on,0,0,3,,,,,,,,,2,,,46,62
49200,note_on,240,0,3,,,,,,,,,2,,,41,0
49320,note_on,240,0,1,,,,,,,,,0,,,53,0
49320,note_on,0,0,1,,,,,,,,,0,,,58,62
49440,note_on,240,0,3,,,,,,,,,2,,,46,0
49440,note_on,0,0,3,,,,,,,,,2,,,50,62
49560,note_on,0,0,1,,,,,,,,,0,,,62,62
49560,note_on,240,0,1,,,,,,,,,0,,,58,0
49680,note_on,240,0,3,,,,,,,,,2,,,50,0
49680,note_on,0,0,3,,,,,,,,,2,,,58,62
49800,note_on,240,0,1,,,,,,,,,0,,,62,0
49800,note_on,0,0,1,,,,,,,,,0,,,70,62
49920,note_on,0,0,1,,,,,,,,,0,,,70,62
49920,note_on,0,0,1,,,,,,,,,0,,,79,62
49920,note_on,240,0,3,,,,,,,,,2,,,58,0
49920,note_on,120,0,1,,,,,,,,,0,,,70,0
49920,control_change,0,0,1,,,,,,,,,0,64,127,,
49920,note_on,0,0,1,,,,,,,,,0,,,67,62
49981,set_tempo,1141,1,0,,,,,,625000,,,,,,,
50040,note_on,120,0,3,,,,,,,,,2,,,39,49
50160,note_on,120,0,3,,,,,,,,,2,,,39,0
50160,note_on,0,0,1,,,,,,,,,0,,,67,0
50160,note_on,0,0,1,,,,,,,,,0,,,75,62
50160,note_on,0,0,1,,,,,,,,,0,,,70,0
50160,note_on,240,0,1,,,,,,,,,0,,,79,0
50280,note_on,120,0,3,,,,,,,,,2,,,51,49
50400,note_on,240,0,1,,,,,,,,,0,,,75,0
50400,note_on,0,0,1,,,,,,,,,0,,,70,62
50400,note_on,120,0,3,,,,,,,,,2,,,51,0
50520,note_on,120,0,3,,,,,,,,,2,,,58,49
50640,note_on,120,0,3,,,,,,,,,2,,,58,0
50640,note_on,240,0,1,,,,,,,,,0,,,70,0
50640,note_on,0,0,1,,,,,,,,,0,,,68,62
50760,note_on,120,0,3,,,,,,,,,2,,,63,49
50880,note_on,120,0,3,,,,,,,,,2,,,63,0
50880,note_on,240,0,1,,,,,,,,,0,,,68,0
50880,note_on,0,0,1,,,,,,,,,0,,,65,62
51000,note_on,120,0,3,,,,,,,,,2,,,62,49
51120,note_on,240,0,1,,,,,,,,,0,,,65,0
51120,note_on,120,0,3,,,,,,,,,2,,,62,0
51120,note_on,0,0,1,,,,,,,,,0,,,67,62
51120,note_on,0,0,1,,,,,,,,,0,,,64,62
51240,note_on,120,0,3,,,,,,,,,2,,,61,49
51360,note_on,0,0,1,,,,,,,,,0,,,68,62
51360,note_on,0,0,1,,,,,,,,,0,,,64,0
51360,note_on,0,0,1,,,,,,,,,0,,,63,62
51360,note_on,120,0,3,,,,,,,,,2,,,61,0
51360,note_on,240,0,1,,,,,,,,,0,,,67,0
51480,note_on,120,0,3,,,,,,,,,2,,,60,49
51600,control_change,0,0,1,,,,,,,,,0,64,0,,
51600,note_on,120,0,3,,,,,,,,,2,,,60,0
51600,note_on,0,0,1,,,,,,,,,0,,,66,62
51600,note_on,0,0,1,,,,,,,,,0,,,63,62
51600,note_on,0,0,1,,,,,,,,,0,,,69,62
51600,note_on,0,0,1,,,,,,,,,0,,,63,0
51600,note_on,240,0,1,,,,,,,,,0,,,68,0
51720,note_on,120,0,3,,,,,,,,,2,,,59,49
51840,note_on,0,0,1,,,,,,,,,0,,,67,62
51840,note_on,240,0,1,,,,,,,,,0,,,69,0
51840,note_on,0,0,1,,,,,,,,,0,,,63,0
51840,note_on,0,0,1,,,,,,,,,0,,,63,62
51840,note_on,0,0,1,,,,,,,,,0,,,66,0
51840,note_on,0,0,1,,,,,,,,,0,,,70,62
51840,note_on,120,0,3,,,,,,,,,2,,,59,0
51840,control_change,0,0,1,,,,,,,,,0,64,127,,
51960,note_on,120,0,3,,,,,,,,,2,,,58,49
52080,note_on,0,0,1,,,,,,,,,0,,,67,0
52080,note_on,0,0,1,,,,,,,,,0,,,66,62
52080,note_on,0,0,1,,,,,,,,,0,,,63,62
52080,note_on,0,0,1,,,,,,,,,0,,,63,0
52080,note_on,120,0,3,,,,,,,,,2,,,58,0
52080,note_on,0,0,1,,,,,,,,,0,,,72,62
52080,note_on,240,0,1,,,,,,,,,0,,,70,0
52200,note_on,120,0,3,,,,,,,,,2,,,57,49
52320,note_on,120,0,3,,,,,,,,,2,,,57,0
52320,note_on,240,0,1,,,,,,,,,0,,,72,0
52320,note_on,0,0,1,,,,,,,,,0,,,71,62
52320,note_on,0,0,1,,,,,,,,,0,,,66,0
52320,note_on,0,0,1,,,,,,,,,0,,,65,62
52320,note_on,0,0,1,,,,,,,,,0,,,63,0
52320,note_on,0,0,1,,,,,,,,,0,,,74,62
52440,note_on,120,0,3,,,,,,,,,2,,,56,49
52560,note_on,240,0,1,,,,,,,,,0,,,74,0
52560,note_on,0,0,1,,,,,,,,,0,,,70,62
52560,note_on,0,0,1,,,,,,,,,0,,,75,62
52560,note_on,0,0,1,,,,,,,,,0,,,65,0
52560,note_on,0,0,1,,,,,,,,,0,,,67,62
52560,note_on,120,0,3,,,,,,,,,2,,,56,0
52560,note_on,0,0,1,,,,,,,,,0,,,71,0
52680,note_on,120,0,3,,,,,,,,,2,,,55,62
52800,note_on,120,0,3,,,,,,,,,2,,,55,0
52800,note_on,0,0,1,,,,,,,,,0,,,70,0
52800,note_on,240,0,1,,,,,,,,,0,,,75,0
52800,note_on,0,0,1,,,,,,,,,0,,,70,75
52800,note_on,0,0,1,,,,,,,,,0,,,67,0
52800,note_on,0,0,1,,,,,,,,,0,,,68,75
52800,note_on,0,0,1,,,,,,,,,0,,,77,75
52920,note_on,120,0,3,,,,,,,,,2,,,53,62
53040,note_on,0,0,1,,,,,,,,,0,,,70,0
53040,note_on,0,0,1,,,,,,,,,0,,,68,0
53040,note_on,0,0,1,,,,,,,,,0,,,67,75
53040,note_on,240,0,1,,,,,,,,,0,,,77,0
53040,note_on,0,0,1,,,,,,,,,0,,,70,75
53040,note_on,0,0,1,,,,,,,,,0,,,79,75
53040,note_on,120,0,3,,,,,,,,,2,,,53,0
53160,note_on,120,0,3,,,,,,,,,2,,,51,62
53280,note_on,0,0,1,,,,,,,,,0,,,80,75
53280,note_on,0,0,1,,,,,,,,,0,,,68,75
53280,note_on,0,0,1,,,,,,,,,0,,,67,0
53280,note_on,0,0,1,,,,,,,,,0,,,70,0
53280,note_on,240,0,1,,,,,,,,,0,,,79,0
53280,note_on,120,0,3,,,,,,,,,2,,,51,0
53280,note_on,0,0,1,,,,,,,,,0,,,70,75
53400,note_on,120,0,3,,,,,,,,,2,,,50,62
53520,note_on,120,0,3,,,,,,,,,2,,,50,0
53520,control_change,0,0,1,,,,,,,,,0,64,0,,
53520,note_on,0,0,1,,,,,,,,,0,,,68,0
53520,note_on,0,0,1,,,,,,,,,0,,,70,0
53520,note_on,0,0,1,,,,,,,,,0,,,70,75
53520,note_on,0,0,1,,,,,,,,,0,,,77,75
53520,note_on,240,0,1,,,,,,,,,0,,,80,0
53520,note_on,0,0,1,,,,,,,,,0,,,68,75
53640,note_on,120,0,3,,,,,,,,,2,,,46,62
53760,note_on,0,0,1,,,,,,,,,0,,,67,62
53760,note_on,0,0,1,,,,,,,,,0,,,68,0
53760,note_on,240,0,1,,,,,,,,,0,,,77,0
53760,note_on,0,0,1,,,,,,,,,0,,,79,62
53760,note_on,120,0,3,,,,,,,,,2,,,46,0
53760,note_on,0,0,1,,,,,,,,,0,,,70,62
53760,note_on,0,0,1,,,,,,,,,0,,,70,0
53760,control_change,0,0,1,,,,,,,,,0,64,127,,
53880,note_on,120,0,3,,,,,,,,,2,,,39,49
54000,note_on,0,0,1,,,,,,,,,0,,,75,62
54000,note_on,0,0,1,,,,,,,,,0,,,70,0
54000,note_on,0,0,1,,,,,,,,,0,,,67,0
54000,note_on,240,0,1,,,,,,,,,0,,,79,0
54000,note_on,120,0,3,,,,,,,,,2,,,39,0
54120,note_on,120,0,3,,,,,,,,,2,,,51,49
54240,note_on,0,0,1,,,,,,,,,0,,,70,62
54240,note_on,240,0,1,,,,,,,,,0,,,75,0
54240,note_on,120,0,3,,,,,,,,,2,,,51,0
54360,note_on,120,0,3,,,,,,,,,2,,,58,49
54480,note_on,0,0,1,,,,,,,,,0,,,68,62
54480,note_on,240,0,1,,,,,,,,,0,,,70,0
54480,note_on,120,0,3,,,,,,,,,2,,,58,0
54600,note_on,120,0,3,,,,,,,,,2,,,63,49
54720,note_on,0,0,1,,,,,,,,,0,,,65,62
54720,note_on,120,0,3,,,,,,,,,2,,,63,0
54720,note_on,240,0,1,,,,,,,,,0,,,68,0
54840,note_on,120,0,3,,,,,,,,,2,,,62,49
54960,note_on,120,0,3,,,,,,,,,2,,,62,0
54960,note_on,240,0,1,,,,,,,,,0,,,65,0
54960,note_on,0,0,1,,,,,,,,,0,,,64,62
54960,note_on,0,0,1,,,,,,,,,0,,,67,62
55080,note_on,120,0,3,,,,,,,,,2,,,61,49
55200,note_on,120,0,3,,,,,,,,,2,,,61,0
55200,note_on,240,0,1,,,,,,,,,0,,,67,0
55200,note_on,0,0,1,,,,,,,,,0,,,63,62
55200,note_on,0,0,1,,,,,,,,,0,,,64,0
55200,note_on,0,0,1,,,,,,,,,0,,,68,62
55320,note_on,120,0,3,,,,,,,,,2,,,60,49
55440,note_on,0,0,1,,,,,,,,,0,,,66,62
55440,note_on,120,0,3,,,,,,,,,2,,,60,0
55440,note_on,0,0,1,,,,,,,,,0,,,69,62
55440,note_on,240,0,1,,,,,,,,,0,,,68,0
55440,note_on,0,0,1,,,,,,,,,0,,,63,0
55440,control_change,0,0,1,,,,,,,,,0,64,0,,
55440,note_on,0,0,1,,,,,,,,,0,,,63,62
55560,note_on,120,0,3,,,,,,,,,2,,,59,49
55680,control_change,0,0,1,,,,,,,,,0,64,127,,
55680,note_on,0,0,1,,,,,,,,,0,,,70,62
55680,note_on,120,0,3,,,,,,,,,2,,,59,0
55680,note_on,0,0,1,,,,,,,,,0,,,66,0
55680,note_on,0,0,1,,,,,,,,,0,,,67,62
55680,note_on,0,0,1,,,,,,,,,0,,,63,62
55680,note_on,0,0,1,,,,,,,,,0,,,63,0
55680,note_on,240,0,1,,,,,,,,,0,,,69,0
55800,note_on,120,0,3,,,,,,,,,2,,,58,49
55920,note_on,240,0,1,,,,,,,,,0,,,70,0
55920,note_on,0,0,1,,,,,,,,,0,,,63,0
55920,note_on,0,0,1,,,,,,,,,0,,,63,62
55920,note_on,0,0,1,,,,,,,,,0,,,66,62
55920,note_on,0,0,1,,,,,,,,,0,,,67,0
55920,note_on,0,0,1,,,,,,,,,0,,,72,62
55920,note_on,120,0,3,,,,,,,,,2,,,58,0
56040,note_on,120,0,3,,,,,,,,,2,,,57,49
56160,note_on,240,0,1,,,,,,,,,0,,,72,0
56160,note_on,0,0,1,,,,,,,,,0,,,74,62
56160,note_on,0,0,1,,,,,,,,,0,,,71,62
56160,note_on,0,0,1,,,,,,,,,0,,,66,0
56160,note_on,0,0,1,,,,,,,,,0,,,65,62
56160,note_on,0,0,1,,,,,,,,,0,,,63,0
56160,note_on,120,0,3,,,,,,,,,2,,,57,0
56280,note_on,120,0,3,,,,,,,,,2,,,56,49
56400,note_on,240,0,1,,,,,,,,,0,,,74,0
56400,note_on,0,0,1,,,,,,,,,0,,,75,62
56400,note_on,0,0,1,,,,,,,,,0,,,71,0
56400,note_on,0,0,1,,,,,,,,,0,,,70,62
56400,note_on,0,0,1,,,,,,,,,0,,,67,62
56400,note_on,120,0,3,,,,,,,,,2,,,56,0
56400,note_on,0,0,1,,,,,,,,,0,,,65,0
56520,note_on,120,0,3,,,,,,,,,2,,,55,49
56640,note_on,120,0,3,,,,,,,,,2,,,55,0
56640,note_on,0,0,1,,,,,,,,,0,,,70,0
56640,note_on,0,0,1,,,,,,,,,0,,,70,75
56640,note_on,0,0,1,,,,,,,,,0,,,77,75
56640,note_on,240,0,1,,,,,,,,,0,,,75,0
56640,note_on,0,0,1,,,,,,,,,0,,,68,75
56640,note_on,0,0,1,,,,,,,,,0,,,67,0
56760,note_on,120,0,3,,,,,,,,,2,,,53,62
56880,note_on,0,0,1,,,,,,,,,0,,,70,75
56880,note_on,240,0,1,,,,,,,,,0,,,77,0
56880,note_on,120,0,3,,,,,,,,,2,,,53,0
56880,note_on,0,0,1,,,,,,,,,0,,,67,75
56880,note_on,0,0,1,,,,,,,,,0,,,79,75
56880,note_on,0,0,1,,,,,,,,,0,,,68,0
56880,note_on,0,0,1,,,,,,,,,0,,,70,0
57000,note_on,120,0,3,,,,,,,,,2,,,51,62
57120,note_on,0,0,1,,,,,,,,,0,,,67,0
57120,note_on,0,0,1,,,,,,,,,0,,,68,75
57120,note_on,0,0,1,,,,,,,,,0,,,70,0
57120,note_on,0,0,1,,,,,,,,,0,,,80,75
57120,note_on,240,0,1,,,,,,,,,0,,,79,0
57120,note_on,0,0,1,,,,,,,,,0,,,70,75
57120,note_on,120,0,3,,,,,,,,,2,,,51,0
57240,note_on,120,0,3,,,,,,,,,2,,,50,62
57360,note_on,120,0,3,,,,,,,,,2,,,50,0
57360,note_on,0,0,1,,,,,,,,,0,,,68,0
57360,note_on,0,0,1,,,,,,,,,0,,,70,0
57360,note_on,0,0,1,,,,,,,,,0,,,70,75
57360,note_on,0,0,1,,,,,,,,,0,,,77,75
57360,note_on,240,0,1,,,,,,,,,0,,,80,0
57360,control_change,0,0,1,,,,,,,,,0,64,0,,
57360,note_on,0,0,1,,,,,,,,,0,,,68,75
57480,note_on,120,0,3,,,,,,,,,2,,,46,62
57600,note_on,0,0,1,,,,,,,,,0,,,68,0
57600,note_on,120,0,3,,,,,,,,,2,,,46,0
57600,note_on,0,0,1,,,,,,,,,0,,,67,75
57600,note_on,21120,0,4,,,,,,,,,3,,,51,62
57600,note_on,240,0,1,,,,,,,,,0,,,77,0
57600,note_on,0,0,1,,,,,,,,,0,,,70,0
57600,note_on,0,0,1,,,,,,,,,0,,,79,75
57600,note_on,0,0,1,,,,,,,,,0,,,70,75
57840,note_on,240,0,1,,,,,,,,,0,,,79,0
57840,note_on,0,0,4,,,,,,,,,3,,,55,62
57840,note_on,240,0,3,,,,,,,,,2,,,63,101
57840,note_on,0,0,1,,,,,,,,,0,,,67,0
57840,note_on,240,0,4,,,,,,,,,3,,,51,0
57840,note_on,0,0,1,,,,,,,,,0,,,70,0
57960,note_on,0,0,1,,,,,,,,,0,,,73,75
57960,note_on,120,0,1,,,,,,,,,0,,,70,75
58080,note_on,240,0,4,,,,,,,,,3,,,55,0
58080,note_on,0,0,4,,,,,,,,,3,,,56,62
58200,note_on,240,0,1,,,,,,,,,0,,,73,0
58200,note_on,0,0,1,,,,,,,,,0,,,72,75
58200,note_on,0,0,1,,,,,,,,,0,,,70,0
58200,note_on,0,0,1,,,,,,,,,0,,,68,75
58320,note_on,240,0,4,,,,,,,,,3,,,56,0
58320,note_on,0,0,4,,,,,,,,,3,,,55,62
58440,note_on,0,0,1,,,,,,,,,0,,,73,75
58440,note_on,0,0,1,,,,,,,,,0,,,70,75
58440,note_on,240,0,1,,,,,,,,,0,,,72,0
58440,note_on,0,0,1,,,,,,,,,0,,,68,0
58560,note_on,0,0,4,,,,,,,,,3,,,56,62
58560,note_on,240,0,4,,,,,,,,,3,,,55,0
58680,note_on,0,0,1,,,,,,,,,0,,,70,0
58680,note_on,0,0,1,,,,,,,,,0,,,72,75
58680,note_on,0,0,1,,,,,,,,,0,,,68,75
58680,note_on,240,0,1,,,,,,,,,0,,,73,0
58800,note_on,240,0,4,,,,,,,,,3,,,56,0
58800,note_on,0,0,3,,,,,,,,,2,,,62,101
58800,note_on,0,0,4,,,,,,,,,3,,,54,62
58800,note_on,960,0,3,,,,,,,,,2,,,63,0
58920,note_on,240,0,1,,,,,,,,,0,,,72,0
58920,note_on,0,0,1,,,,,,,,,0,,,72,75
58920,note_on,0,0,1,,,,,,,,,0,,,69,75
58920,note_on,0,0,1,,,,,,,,,0,,,68,0
59040,note_on,0,0,4,,,,,,,,,3,,,55,62
59040,note_on,240,0,4,,,,,,,,,3,,,54,0
59160,note_on,0,0,1,,,,,,,,,0,,,71,75
59160,note_on,0,0,1,,,,,,,,,0,,,69,0
59160,note_on,0,0,1,,,,,,,,,0,,,67,75
59160,note_on,240,0,1,,,,,,,,,0,,,72,0
59280,note_on,0,0,4,,,,,,,,,3,,,54,62
59280,note_on,240,0,4,,,,,,,,,3,,,55,0
59400,note_on,0,0,1,,,,,,,,,0,,,67,0
59400,note_on,0,0,1,,,,,,,,,0,,,69,75
59400,note_on,240,0,1,,,,,,,,,0,,,71,0
59400,note_on,0,0,1,,,,,,,,,0,,,72,75
59520,note_on,0,0,4,,,,,,,,,3,,,55,62
59520,note_on,240,0,4,,,,,,,,,3,,,54,0
59640,note_on,0,0,1,,,,,,,,,0,,,71,75
59640,note_on,240,0,1,,,,,,,,,0,,,72,0
59640,note_on,0,0,1,,,,,,,,,0,,,69,0
59640,note_on,0,0,1,,,,,,,,,0,,,67,75
59760,note_on,0,0,4,,,,,,,,,3,,,52,62
59760,note_on,0,0,3,,,,,,,,,2,,,60,101
59760,note_on,960,0,3,,,,,,,,,2,,,62,0
59760,note_on,240,0,4,,,,,,,,,3,,,55,0
59880,note_on,0,0,1,,,,,,,,,0,,,79,75
59880,note_on,240,0,1,,,,,,,,,0,,,71,0
59880,note_on,23400,0,2,,,,,,,,,1,,,70,75
59880,note_on,0,0,1,,,,,,,,,0,,,67,0
60000,note_on,0,0,4,,,,,,,,,3,,,53,62
60000,note_on,240,0,4,,,,,,,,,3,,,52,0
60120,note_on,0,0,2,,,,,,,,,1,,,69,75
60120,note_on,240,0,2,,,,,,,,,1,,,70,0
60240,note_on,480,0,3,,,,,,,,,2,,,60,0
60240,note_on,240,0,4,,,,,,,,,3,,,53,0
60240,note_on,0,0,4,,,,,,,,,3,,,50,62
60240,note_on,0,0,3,,,,,,,,,2,,,58,101
60360,note_on,240,0,2,,,,,,,,,1,,,69,0
60360,note_on,0,0,1,,,,,,,,,0,,,77,75
60360,note_on,0,0,2,,,,,,,,,1,,,68,75
60360,note_on,480,0,1,,,,,,,,,0,,,79,0
60480,note_on,0,0,4,,,,,,,,,3,,,51,62
60480,note_on,240,0,4,,,,,,,,,3,,,50,0
60600,note_on,240,0,2,,,,,,,,,1,,,68,0
60600,note_on,0,0,2,,,,,,,,,1,,,67,75
60720,note_on,480,0,3,,,,,,,,,2,,,58,0
60720,note_on,0,0,4,,,,,,,,,3,,,45,62
60720,note_on,240,0,4,,,,,,,,,3,,,51,0
60720,note_on,0,0,3,,,,,,,,,2,,,60,75
60840,note_on,240,0,2,,,,,,,,,1,,,67,0
60840,note_on,0,0,1,,,,,,,,,0,,,75,75
60840,note_on,480,0,1,,,,,,,,,0,,,77,0
60840,note_on,0,0,2,,,,,,,,,1,,,66,75
60960,note_on,0,0,4,,,,,,,,,3,,,46,62
60960,note_on,240,0,3,,,,,,,,,2,,,60,0
60960,note_on,240,0,4,,,,,,,,,3,,,45,0
60960,note_on,0,0,3,,,,,,,,,2,,,58,75
61080,note_on,240,0,2,,,,,,,,,1,,,66,0
61080,note_on,0,0,2,,,,,,,,,1,,,65,75
61200,note_on,240,0,3,,,,,,,,,2,,,58,0
61200,note_on,0,0,3,,,,,,,,,2,,,56,75
61320,note_on,0,0,2,,,,,,,,,1,,,65,75
61320,note_on,240,0,2,,,,,,,,,1,,,65,0
61320,note_on,0,0,2,,,,,,,,,1,,,74,75
61320,note_on,0,0,1,,,,,,,,,0,,,74,75
61320,note_on,480,0,1,,,,,,,,,0,,,75,0
61440,note_on,120,0,1,,,,,,,,,0,,,74,0
61440,note_on,240,0,3,,,,,,,,,2,,,56,0
61440,note_on,0,0,4,,,,,,,,,3,,,51,62
61440,note_on,0,0,4,,,,,,,,,3,,,55,62
61440,note_on,480,0,4,,,,,,,,,3,,,46,0
61560,note_on,0,0,2,,,,,,,,,1,,,65,0
61560,note_on,0,0,2,,,,,,,,,1,,,67,75
61560,note_on,0,0,2,,,,,,,,,1,,,75,75
61560,note_on,240,0,2,,,,,,,,,1,,,74,0
61680,note_on,240,0,3,,,,,,,,,2,,,63,101
61680,note_on,240,0,4,,,,,,,,,3,,,55,0
61680,note_on,0,0,4,,,,,,,,,3,,,51,0
61680,note_on,0,0,4,,,,,,,,,3,,,55,62
61800,note_on,0,0,2,,,,,,,,,1,,,67,0
61800,note_on,0,0,2,,,,,,,,,1,,,70,75
61800,note_on,0,0,2,,,,,,,,,1,,,73,75
61800,note_on,240,0,2,,,,,,,,,1,,,75,0
61920,note_on,240,0,4,,,,,,,,,3,,,55,0
61920,note_on,0,0,4,,,,,,,,,3,,,56,62
62040,note_on,0,0,2,,,,,,,,,1,,,68,75
62040,note_on,240,0,2,,,,,,,,,1,,,73,0
62040,note_on,0,0,2,,,,,,,,,1,,,70,0
62040,note_on,0,0,2,,,,,,,,,1,,,72,75
62160,note_on,240,0,4,,,,,,,,,3,,,56,0
62160,note_on,0,0,4,,,,,,,,,3,,,55,62
62280,note_on,0,0,2,,,,,,,,,1,,,73,75
62280,note_on,0,0,2,,,,,,,,,1,,,70,75
62280,note_on,0,0,2,,,,,,,,,1,,,68,0
62280,note_on,240,0,2,,,,,,,,,1,,,72,0
62400,note_on,0,0,4,,,,,,,,,3,,,56,62
62400,note_on,240,0,4,,,,,,,,,3,,,55,0
62520,note_on,0,0,2,,,,,,,,,1,,,70,0
62520,note_on,0,0,2,,,,,,,,,1,,,68,75
62520,note_on,0,0,2,,,,,,,,,1,,,72,75
62520,note_on,240,0,2,,,,,,,,,1,,,73,0
62640,note_on,0,0,4,,,,,,,,,3,,,54,62
62640,note_on,960,0,3,,,,,,,,,2,,,63,0
62640,note_on,240,0,4,,,,,,,,,3,,,56,0
62640,note_on,0,0,3,,,,,,,,,2,,,62,101
62760,note_on,240,0,2,,,,,,,,,1,,,72,0
62760,note_on,0,0,2,,,,,,,,,1,,,68,0
62760,note_on,0,0,2,,,,,,,,,1,,,69,75
62760,note_on,0,0,2,,,,,,,,,1,,,72,75
62880,note_on,0,0,4,,,,,,,,,3,,,55,62
62880,note_on,240,0,4,,,,,,,,,3,,,54,0
63000,note_on,0,0,2,,,,,,,,,1,,,67,75
63000,note_on,0,0,2,,,,,,,,,1,,,69,0
63000,note_on,240,0,2,,,,,,,,,1,,,72,0
63000,note_on,0,0,2,,,,,,,,,1,,,71,75
63120,note_on,240,0,4,,,,,,,,,3,,,55,0
63120,note_on,0,0,4,,,,,,,,,3,,,54,62
63240,note_on,0,0,2,,,,,,,,,1,,,67,0
63240,note_on,0,0,2,,,,,,,,,1,,,69,75
63240,note_on,0,0,2,,,,,,,,,1,,,72,75
63240,note_on,240,0,2,,,,,,,,,1,,,71,0
63360,note_on,240,0,4,,,,,,,,,3,,,54,0
63360,note_on,0,0,4,,,,,,,,,3,,,55,62
63480,note_on,0,0,2,,,,,,,,,1,,,67,75
63480,note_on,0,0,2,,,,,,,,,1,,,69,0
63480,note_on,0,0,2,,,,,,,,,1,,,71,75
63480,note_on,240,0,2,,,,,,,,,1,,,72,0
63600,note_on,960,0,3,,,,,,,,,2,,,62,0
63600,note_on,0,0,4,,,,,,,,,3,,,52,62
63600,note_on,0,0,3,,,,,,,,,2,,,60,101
63600,note_on,240,0,4,,,,,,,,,3,,,55,0
63720,note_on,2280,0,1,,,,,,,,,0,,,79,75
63720,note_on,240,0,2,,,,,,,,,1,,,71,0
63720,note_on,0,0,2,,,,,,,,,1,,,67,0
63720,note_on,0,0,2,,,,,,,,,1,,,70,75
63840,note_on,0,0,4,,,,,,,,,3,,,53,62
63840,note_on,240,0,4,,,,,,,,,3,,,52,0
63960,note_on,240,0,2,,,,,,,,,1,,,70,0
63960,note_on,0,0,2,,,,,,,,,1,,,69,75
64080,note_on,0,0,4,,,,,,,,,3,,,50,62
64080,note_on,240,0,4,,,,,,,,,3,,,53,0
64080,note_on,0,0,3,,,,,,,,,2,,,58,101
64080,note_on,480,0,3,,,,,,,,,2,,,60,0
64200,note_on,0,0,1,,,,,,,,,0,,,77,75
64200,note_on,0,0,2,,,,,,,,,1,,,68,75
64200,note_on,240,0,2,,,,,,,,,1,,,69,0
64200,note_on,480,0,1,,,,,,,,,0,,,79,0
64320,note_on,0,0,4,,,,,,,,,3,,,51,62
64320,note_on,240,0,4,,,,,,,,,3,,,50,0
64440,note_on,240,0,2,,,,,,,,,1,,,68,0
64440,note_on,0,0,2,,,,,,,,,1,,,67,75
64560,note_on,0,0,4,,,,,,,,,3,,,45,62
64560,note_on,480,0,3,,,,,,,,,2,,,58,0
64560,note_on,0,0,3,,,,,,,,,2,,,60,75
64560,note_on,240,0,4,,,,,,,,,3,,,51,0
64680,note_on,240,0,2,,,,,,,,,1,,,67,0
64680,note_on,480,0,1,,,,,,,,,0,,,77,0
64680,note_on,0,0,2,,,,,,,,,1,,,66,75
64680,note_on,0,0,1,,,,,,,,,0,,,75,75
64800,note_on,240,0,4,,,,,,,,,3,,,45,0
64800,note_on,240,0,3,,,,,,,,,2,,,60,0
64800,note_on,0,0,4,,,,,,,,,3,,,46,62
64800,note_on,0,0,3,,,,,,,,,2,,,58,75
64920,note_on,240,0,2,,,,,,,,,1,,,66,0
64920,note_on,0,0,2,,,,,,,,,1,,,65,75
65040,note_on,0,0,3,,,,,,,,,2,,,56,75
65040,note_on,240,0,3,,,,,,,,,2,,,58,0
65160,note_on,480,0,1,,,,,,,,,0,,,75,0
65160,note_on,0,0,2,,,,,,,,,1,,,65,75
65160,note_on,240,0,2,,,,,,,,,1,,,65,0
65160,note_on,0,0,1,,,,,,,,,0,,,74,75
65280,note_on,240,0,3,,,,,,,,,2,,,56,0
65280,note_on,120,0,1,,,,,,,,,0,,,74,0
65280,note_on,0,0,4,,,,,,,,,3,,,51,75
65280,note_on,480,0,4,,,,,,,,,3,,,46,0
65280,note_on,120,0,2,,,,,,,,,1,,,74,75
65280,note_on,0,0,4,,,,,,,,,3,,,55,75
65400,note_on,0,0,2,,,,,,,,,1,,,65,0
65400,note_on,0,0,2,,,,,,,,,1,,,67,75
65400,note_on,120,0,2,,,,,,,,,1,,,74,0
65400,note_on,0,0,2,,,,,,,,,1,,,75,75
65520,note_on,240,0,3,,,,,,,,,2,,,60,101
65520,note_on,0,0,4,,,,,,,,,3,,,51,0
65520,note_on,240,0,4,,,,,,,,,3,,,55,0
65520,note_on,0,0,4,,,,,,,,,3,,,52,75
65640,note_on,240,0,2,,,,,,,,,1,,,75,0
65640,note_on,0,0,2,,,,,,,,,1,,,70,75
65640,note_on,0,0,2,,,,,,,,,1,,,67,0
65640,note_on,360,0,1,,,,,,,,,0,,,79,88
65760,note_on,240,0,4,,,,,,,,,3,,,52,0
65760,note_on,0,0,4,,,,,,,,,3,,,53,75
65880,set_tempo,15899,1,0,,,,,,645161,,,,,,,
65880,note_on,240,0,2,,,,,,,,,1,,,70,0
65880,note_on,0,0,2,,,,,,,,,1,,,69,75
66000,note_on,240,0,4,,,,,,,,,3,,,53,0
66000,note_on,0,0,3,,,,,,,,,2,,,59,101
66000,note_on,480,0,3,,,,,,,,,2,,,60,0
66000,note_on,0,0,4,,,,,,,,,3,,,50,75
66120,note_on,480,0,1,,,,,,,,,0,,,79,0
66120,set_tempo,240,1,0,,,,,,666667,,,,,,,
66120,note_on,240,0,2,,,,,,,,,1,,,69,0
66120,note_on,0,0,2,,,,,,,,,1,,,68,75
66120,note_on,0,0,1,,,,,,,,,0,,,77,88
66240,note_on,0,0,4,,,,,,,,,3,,,51,75
66240,note_on,240,0,4,,,,,,,,,3,,,50,0
66360,set_tempo,240,1,0,,,,,,689655,,,,,,,
66360,note_on,0,0,2,,,,,,,,,1,,,67,75
66360,note_on,240,0,2,,,,,,,,,1,,,68,0
66480,note_on,0,0,3,,,,,,,,,2,,,60,75
66480,note_on,240,0,4,,,,,,,,,3,,,51,0
66480,note_on,480,0,3,,,,,,,,,2,,,59,0
66480,note_on,0,0,4,,,,,,,,,3,,,45,75
66600,set_tempo,240,1,0,,,,,,722892,,,,,,,
66600,note_on,240,0,2,,,,,,,,,1,,,67,0
66600,note_on,0,0,1,,,,,,,,,0,,,75,88
66600,note_on,0,0,2,,,,,,,,,1,,,66,75
66600,note_on,480,0,1,,,,,,,,,0,,,77,0
66720,note_on,0,0,3,,,,,,,,,2,,,58,75
66720,note_on,0,0,4,,,,,,,,,3,,,46,75
66720,note_on,240,0,4,,,,,,,,,3,,,45,0
66720,note_on,240,0,3,,,,,,,,,2,,,60,0
66840,set_tempo,240,1,0,,,,,,750000,,,,,,,
66840,note_on,240,0,2,,,,,,,,,1,,,66,0
66840,note_on,0,0,2,,,,,,,,,1,,,65,75
66960,note_on,240,0,3,,,,,,,,,2,,,58,0
66960,note_on,0,0,3,,,,,,,,,2,,,56,75
67080,note_on,0,0,2,,,,,,,,,1,,,74,75
67080,note_on,480,0,1,,,,,,,,,0,,,75,0
67080,set_tempo,240,1,0,,,,,,779221,,,,,,,
67080,note_on,240,0,2,,,,,,,,,1,,,65,0
67080,note_on,0,0,2,,,,,,,,,1,,,65,75
67080,note_on,0,0,1,,,,,,,,,0,,,74,88
67200,note_on,120,0,1,,,,,,,,,0,,,74,0
67200,note_on,240,0,3,,,,,,,,,2,,,56,0
67200,note_on,0,0,4,,,,,,,,,3,,,55,62
67200,note_on,0,0,4,,,,,,,,,3,,,51,62
67200,note_on,480,0,4,,,,,,,,,3,,,46,0
67320,note_on,240,0,2,,,,,,,,,1,,,74,0
67320,note_on,0,0,2,,,,,,,,,1,,,65,0
67320,note_on,0,0,2,,,,,,,,,1,,,67,62
67320,note_on,0,0,2,,,,,,,,,1,,,75,62
67320,set_tempo,240,1,0,,,,,,810811,,,,,,,
67440,note_on,240,0,4,,,,,,,,,3,,,55,0
67440,note_on,0,0,4,,,,,,,,,3,,,51,0
67440,note_on,0,0,4,,,,,,,,,3,,,52,62
67440,note_on,240,0,3,,,,,,,,,2,,,60,88
67560,note_on,240,0,2,,,,,,,,,1,,,75,0
67560,note_on,360,0,1,,,,,,,,,0,,,79,75
67560,note_on,0,0,2,,,,,,,,,1,,,70,62
67560,note_on,0,0,2,,,,,,,,,1,,,67,0
67560,set_tempo,240,1,0,,,,,,857143,,,,,,,
67680,note_on,0,0,4,,,,,,,,,3,,,53,62
67680,note_on,240,0,4,,,,,,,,,3,,,52,0
67800,note_on,0,0,2,,,,,,,,,1,,,69,62
67800,note_on,240,0,2,,,,,,,,,1,,,70,0
67920,note_on,480,0,3,,,,,,,,,2,,,60,0
67920,note_on,240,0,4,,,,,,,,,3,,,53,0
67920,note_on,0,0,4,,,,,,,,,3,,,50,62
67920,note_on,0,0,3,,,,,,,,,2,,,59,88
68040,note_on,0,0,1,,,,,,,,,0,,,77,75
68040,note_on,0,0,2,,,,,,,,,1,,,68,62
68040,note_on,480,0,1,,,,,,,,,0,,,79,0
68040,note_on,240,0,2,,,,,,,,,1,,,69,0
68160,note_on,0,0,4,,,,,,,,,3,,,51,62
68160,note_on,240,0,4,,,,,,,,,3,,,50,0
68280,note_on,0,0,2,,,,,,,,,1,,,67,62
68280,note_on,240,0,2,,,,,,,,,1,,,68,0
68400,note_on,0,0,4,,,,,,,,,3,,,45,62
68400,note_on,240,0,4,,,,,,,,,3,,,51,0
68400,note_on,480,0,3,,,,,,,,,2,,,59,0
68400,note_on,0,0,3,,,,,,,,,2,,,60,62
68520,note_on,0,0,1,,,,,,,,,0,,,75,62
68520,note_on,240,0,2,,,,,,,,,1,,,67,0
68520,note_on,480,0,1,,,,,,,,,0,,,77,0
68520,note_on,0,0,2,,,,,,,,,1,,,66,49
68640,note_on,0,0,3,,,,,,,,,2,,,58,49
68640,note_on,0,0,4,,,,,,,,,3,,,46,62
68640,note_on,240,0,4,,,,,,,,,3,,,45,0
68640,note_on,240,0,3,,,,,,,,,2,,,60,0
68760,note_on,0,0,2,,,,,,,,,1,,,65,49
68760,note_on,240,0,2,,,,,,,,,1,,,66,0
68880,note_on,0,0,3,,,,,,,,,2,,,56,49
68880,note_on,240,0,3,,,,,,,,,2,,,58,0
69000,note_on,0,0,2,,,,,,,,,1,,,74,49
69000,note_on,0,0,2,,,,,,,,,1,,,65,49
69000,note_on,480,0,1,,,,,,,,,0,,,75,0
69000,note_on,0,0,1,,,,,,,,,0,,,74,62
69000,note_on,240,0,2,,,,,,,,,1,,,65,0
69120,note_on,0,0,1,,,,,,,,,0,,,73,49
69120,note_on,480,0,4,,,,,,,,,3,,,46,0
69120,note_on,120,0,1,,,,,,,,,0,,,74,0
69120,note_on,120,0,2,,,,,,,,,1,,,74,0
69120,control_change,0,0,1,,,,,,,,,0,64,127,,
69120,end_of_track,0,1,2,,,,,,,,,,,,,
69120,note_on,240,0,3,,,,,,,,,2,,,56,0
69120,note_on,0,0,3,,,,,,,,,2,,,58,49
69120,note_on,0,0,3,,,,,,,,,2,,,56,49
69120,note_on,0,0,3,,,,,,,,,2,,,53,49
69120,note_on,0,0,3,,,,,,,,,2,,,50,49
69120,note_on,0,0,3,,,,,,,,,2,,,46,49
69120,end_of_track,0,1,4,,,,,,,,,,,,,
69120,note_on,0,0,2,,,,,,,,,1,,,65,0
69130,set_tempo,1570,1,0,,,,,,625000,,,,,,,
69200,note_on,0,0,1,,,,,,,,,0,,,74,49
69200,note_on,80,0,1,,,,,,,,,0,,,73,0
69279,note_on,0,0,1,,,,,,,,,0,,,75,49
69279,note_on,79,0,1,,,,,,,,,0,,,74,0
69360,note_on,0,0,1,,,,,,,,,0,,,74,49
69360,note_on,81,0,1,,,,,,,,,0,,,75,0
69420,note_on,60,0,1,,,,,,,,,0,,,74,0
69420,note_on,0,0,1,,,,,,,,,0,,,75,49
69480,note_on,60,0,1,,,,,,,,,0,,,75,0
69480,note_on,0,0,1,,,,,,,,,0,,,74,49
69540,note_on,0,0,1,,,,,,,,,0,,,75,49
69540,note_on,60,0,1,,,,,,,,,0,,,74,0
69600,note_on,60,0,1,,,,,,,,,0,,,75,0
69600,note_on,0,0,1,,,,,,,,,0,,,74,49
69660,note_on,0,0,1,,,,,,,,,0,,,75,49
69660,note_on,60,0,1,,,,,,,,,0,,,74,0
69720,note_on,0,0,1,,,,,,,,,0,,,74,49
69720,note_on,60,0,1,,,,,,,,,0,,,75,0
69780,note_on,0,0,1,,,,,,,,,0,,,75,49
69780,note_on,60,0,1,,,,,,,,,0,,,74,0
69840,note_on,60,0,1,,,,,,,,,0,,,75,0
69840,note_on,0,0,1,,,,,,,,,0,,,74,49
69900,note_on,0,0,1,,,,,,,,,0,,,75,49
69900,note_on,60,0,1,,,,,,,,,0,,,74,0
69960,note_on,0,0,1,,,,,,,,,0,,,74,49
69960,note_on,60,0,1,,,,,,,,,0,,,75,0
70020,note_on,60,0,1,,,,,,,,,0,,,74,0
70020,note_on,0,0,1,,,,,,,,,0,,,75,49
70080,note_on,60,0,1,,,,,,,,,0,,,75,0
70080,note_on,0,0,1,,,,,,,,,0,,,74,49
70140,note_on,60,0,1,,,,,,,,,0,,,74,0
70140,note_on,0,0,1,,,,,,,,,0,,,75,49
70200,note_on,0,0,1,,,,,,,,,0,,,74,49
70200,note_on,60,0,1,,,,,,,,,0,,,75,0
70260,note_on,0,0,1,,,,,,,,,0,,,75,49
70260,note_on,60,0,1,,,,,,,,,0,,,74,0
70320,note_on,0,0,1,,,,,,,,,0,,,74,49
70320,note_on,60,0,1,,,,,,,,,0,,,75,0
70380,note_on,60,0,1,,,,,,,,,0,,,74,0
70380,note_on,0,0,1,,,,,,,,,0,,,75,49
70440,note_on,0,0,1,,,,,,,,,0,,,74,49
70440,note_on,60,0,1,,,,,,,,,0,,,75,0
70500,note_on,60,0,1,,,,,,,,,0,,,74,0
70500,note_on,0,0,1,,,,,,,,,0,,,75,49
70560,note_on,60,0,1,,,,,,,,,0,,,75,0
70560,note_on,0,0,1,,,,,,,,,0,,,74,49
70620,note_on,0,0,1,,,,,,,,,0,,,75,49
70620,note_on,60,0,1,,,,,,,,,0,,,74,0
70680,note_on,0,0,1,,,,,,,,,0,,,74,49
70680,note_on,60,0,1,,,,,,,,,0,,,75,0
70740,note_on,0,0,1,,,,,,,,,0,,,75,49
70740,note_on,60,0,1,,,,,,,,,0,,,74,0
70800,note_on,0,0,1,,,,,,,,,0,,,74,49
70800,note_on,60,0,1,,,,,,,,,0,,,75,0
70860,note_on,60,0,1,,,,,,,,,0,,,74,0
70860,note_on,0,0,1,,,,,,,,,0,,,75,49
70920,note_on,60,0,1,,,,,,,,,0,,,75,0
70920,note_on,0,0,1,,,,,,,,,0,,,74,49
70980,control_change,0,0,1,,,,,,,,,0,64,0,,
70980,note_on,60,0,1,,,,,,,,,0,,,74,0
70980,note_on,0,0,1,,,,,,,,,0,,,75,49
71040,note_on,0,0,3,,,,,,,,,2,,,56,0
71040,note_on,0,0,3,,,,,,,,,2,,,53,0
71040,time_signature,1910,1,0,3,4,24,8,,,,,,,,,
71040,note_on,0,0,3,,,,,,,,,2,,,50,0
71040,note_on,0,0,1,,,,,,,,,0,,,72,49
71040,note_on,60,0,1,,,,,,,,,0,,,75,0
71040,note_on,0,0,3,,,,,,,,,2,,,46,0
71040,note_on,1920,0,3,,,,,,,,,2,,,58,0
71040,control_change,0,0,1,,,,,,,,,0,64,127,,
71100,note_on,60,0,1,,,,,,,,,0,,,72,0
71100,note_on,0,0,1,,,,,,,,,0,,,74,49
71160,note_on,60,0,1,,,,,,,,,0,,,74,0
71160,note_on,0,0,1,,,,,,,,,0,,,75,49
71220,note_on,0,0,1,,,,,,,,,0,,,77,49
71220,note_on,60,0,1,,,,,,,,,0,,,75,0
71280,note_on,0,0,1,,,,,,,,,0,,,79,49
71280,note_on,60,0,1,,,,,,,,,0,,,77,0
71340,note_on,0,0,1,,,,,,,,,0,,,80,49
71340,note_on,60,0,1,,,,,,,,,0,,,79,0
71400,note_on,0,0,1,,,,,,,,,0,,,82,49
71400,note_on,60,0,1,,,,,,,,,0,,,80,0
71460,note_on,0,0,1,,,,,,,,,0,,,84,49
71460,note_on,60,0,1,,,,,,,,,0,,,82,0
71520,note_on,0,0,1,,,,,,,,,0,,,86,49
71520,note_on,60,0,1,,,,,,,,,0,,,84,0
71580,note_on,60,0,1,,,,,,,,,0,,,86,0
71580,note_on,0,0,1,,,,,,,,,0,,,87,49
71640,note_on,60,0,1,,,,,,,,,0,,,87,0
71640,note_on,0,0,1,,,,,,,,,0,,,89,49
71700,note_on,0,0,1,,,,,,,,,0,,,91,49
71700,note_on,60,0,1,,,,,,,,,0,,,89,0
71760,note_on,60,0,1,,,,,,,,,0,,,91,0
71760,note_on,0,0,1,,,,,,,,,0,,,92,49
71820,note_on,0,0,1,,,,,,,,,0,,,94,49
71820,note_on,60,0,1,,,,,,,,,0,,,92,0
71880,note_on,60,0,1,,,,,,,,,0,,,94,0
71880,note_on,0,0,1,,,,,,,,,0,,,96,49
71940,note_on,60,0,1,,,,,,,,,0,,,96,0
71940,note_on,0,0,1,,,,,,,,,0,,,95,49
72000,note_on,60,0,1,,,,,,,,,0,,,95,0
72000,note_on,0,0,1,,,,,,,,,0,,,98,49
72060,note_on,60,0,1,,,,,,,,,0,,,98,0
72060,note_on,0,0,1,,,,,,,,,0,,,96,49
72120,note_on,0,0,1,,,,,,,,,0,,,92,49
72120,note_on,60,0,1,,,,,,,,,0,,,96,0
72180,note_on,60,0,1,,,,,,,,,0,,,92,0
72180,note_on,0,0,1,,,,,,,,,0,,,91,49
72240,note_on,60,0,1,,,,,,,,,0,,,91,0
72240,note_on,0,0,1,,,,,,,,,0,,,94,49
72300,note_on,60,0,1,,,,,,,,,0,,,94,0
72300,note_on,0,0,1,,,,,,,,,0,,,92,49
72360,note_on,60,0,1,,,,,,,,,0,,,92,0
72360,note_on,0,0,1,,,,,,,,,0,,,89,49
72420,note_on,0,0,1,,,,,,,,,0,,,88,49
72420,note_on,60,0,1,,,,,,,,,0,,,89,0
72480,note_on,60,0,1,,,,,,,,,0,,,88,0
72480,time_signature,1440,1,0,4,4,24,8,,,,,,,,,
72480,note_on,0,0,1,,,,,,,,,0,,,91,49
72540,note_on,60,0,1,,,,,,,,,0,,,91,0
72540,note_on,0,0,1,,,,,,,,,0,,,89,49
72600,note_on,0,0,1,,,,,,,,,0,,,86,49
72600,note_on,60,0,1,,,,,,,,,0,,,89,0
72660,note_on,0,0,1,,,,,,,,,0,,,85,49
72660,note_on,60,0,1,,,,,,,,,0,,,86,0
72720,note_on,0,0,1,,,,,,,,,0,,,87,49
72720,note_on,60,0,1,,,,,,,,,0,,,85,0
72780,note_on,60,0,1,,,,,,,,,0,,,87,0
72780,note_on,0,0,1,,,,,,,,,0,,,86,49
72840,note_on,60,0,1,,,,,,,,,0,,,86,0
72840,note_on,0,0,1,,,,,,,,,0,,,82,49
72900,note_on,60,0,1,,,,,,,,,0,,,82,0
72900,note_on,0,0,1,,,,,,,,,0,,,81,49
72960,note_on,60,0,1,,,,,,,,,0,,,81,0
72960,note_on,0,0,1,,,,,,,,,0,,,84,49
73020,note_on,60,0,1,,,,,,,,,0,,,84,0
73020,note_on,0,0,1,,,,,,,,,0,,,82,49
73080,note_on,60,0,1,,,,,,,,,0,,,82,0
73080,note_on,0,0,1,,,,,,,,,0,,,80,49
73140,note_on,60,0,1,,,,,,,,,0,,,80,0
73140,note_on,0,0,1,,,,,,,,,0,,,79,49
73200,note_on,0,0,1,,,,,,,,,0,,,82,49
73200,note_on,60,0,1,,,,,,,,,0,,,79,0
73260,note_on,0,0,1,,,,,,,,,0,,,80,49
73260,note_on,60,0,1,,,,,,,,,0,,,82,0
73320,note_on,0,0,1,,,,,,,,,0,,,77,49
73320,note_on,60,0,1,,,,,,,,,0,,,80,0
73380,note_on,60,0,1,,,,,,,,,0,,,77,0
73380,note_on,0,0,1,,,,,,,,,0,,,76,49
73440,note_on,60,0,1,,,,,,,,,0,,,76,0
73440,note_on,0,0,1,,,,,,,,,0,,,79,49
73500,note_on,0,0,1,,,,,,,,,0,,,77,49
73500,note_on,60,0,1,,,,,,,,,0,,,79,0
73560,note_on,0,0,1,,,,,,,,,0,,,74,49
73560,note_on,60,0,1,,,,,,,,,0,,,77,0
73620,note_on,60,0,1,,,,,,,,,0,,,74,0
73620,note_on,0,0,1,,,,,,,,,0,,,73,49
73680,note_on,0,0,1,,,,,,,,,0,,,75,49
73680,note_on,60,0,1,,,,,,,,,0,,,73,0
73740,note_on,0,0,1,,,,,,,,,0,,,74,49
73740,note_on,60,0,1,,,,,,,,,0,,,75,0
73800,note_on,0,0,1,,,,,,,,,0,,,70,49
73800,note_on,60,0,1,,,,,,,,,0,,,74,0
73860,note_on,0,0,1,,,,,,,,,0,,,69,49
73860,note_on,60,0,1,,,,,,,,,0,,,70,0
73920,note_on,0,0,1,,,,,,,,,0,,,70,49
73920,note_on,60,0,1,,,,,,,,,0,,,69,0
73980,note_on,60,0,1,,,,,,,,,0,,,70,0
73980,note_on,0,0,1,,,,,,,,,0,,,72,49
74040,note_on,60,0,1,,,,,,,,,0,,,72,0
74040,note_on,0,0,1,,,,,,,,,0,,,70,49
74100,note_on,60,0,1,,,,,,,,,0,,,70,0
74100,note_on,0,0,1,,,,,,,,,0,,,69,49
74160,note_on,60,0,1,,,,,,,,,0,,,69,0
74160,note_on,0,0,1,,,,,,,,,0,,,70,49
74220,note_on,0,0,1,,,,,,,,,0,,,72,49
74220,note_on,60,0,1,,,,,,,,,0,,,70,0
74280,note_on,60,0,1,,,,,,,,,0,,,72,0
74280,note_on,0,0,1,,,,,,,,,0,,,74,49
74340,note_on,60,0,1,,,,,,,,,0,,,74,0
74340,note_on,0,0,1,,,,,,,,,0,,,75,49
74400,time_signature,1920,1,0,7,8,12,8,,,,,,,,,
74400,note_on,60,0,1,,,,,,,,,0,,,75,0
74400,note_on,0,0,1,,,,,,,,,0,,,77,49
74460,note_on,0,0,1,,,,,,,,,0,,,79,49
74460,note_on,60,0,1,,,,,,,,,0,,,77,0
74520,note_on,60,0,1,,,,,,,,,0,,,79,0
74520,note_on,0,0,1,,,,,,,,,0,,,80,49
74580,note_on,0,0,1,,,,,,,,,0,,,82,49
74580,note_on,60,0,1,,,,,,,,,0,,,80,0
74640,note_on,0,0,1,,,,,,,,,0,,,84,49
74640,note_on,60,0,1,,,,,,,,,0,,,82,0
74700,note_on,0,0,1,,,,,,,,,0,,,82,49
74700,note_on,60,0,1,,,,,,,,,0,,,84,0
74760,note_on,60,0,1,,,,,,,,,0,,,82,0
74760,note_on,0,0,1,,,,,,,,,0,,,80,49
74820,note_on,0,0,1,,,,,,,,,0,,,77,49
74820,note_on,60,0,1,,,,,,,,,0,,,80,0
74880,note_on,60,0,1,,,,,,,,,0,,,77,0
74880,note_on,0,0,1,,,,,,,,,0,,,74,49
74960,note_on,0,0,1,,,,,,,,,0,,,70,49
74960,note_on,80,0,1,,,,,,,,,0,,,74,0
75039,note_on,0,0,1,,,,,,,,,0,,,71,49
75039,control_change,0,0,1,,,,,,,,,0,64,0,,
75039,note_on,79,0,1,,,,,,,,,0,,,70,0
75120,control_change,0,0,1,,,,,,,,,0,64,127,,
75120,note_on,0,0,1,,,,,,,,,0,,,74,49
75120,note_on,81,0,1,,,,,,,,,0,,,71,0
75279,note_on,159,0,1,,,,,,,,,0,,,74,0
75279,note_on,0,0,1,,,,,,,,,0,,,72,49
75440,control_change,0,0,1,,,,,,,,,0,64,0,,
75440,note_on,0,0,1,,,,,,,,,0,,,67,49
75440,note_on,161,0,1,,,,,,,,,0,,,72,0
75600,note_on,160,0,1,,,,,,,,,0,,,67,0
75600,note_on,0,0,1,,,,,,,,,0,,,70,49
75600,control_change,0,0,1,,,,,,,,,0,64,127,,
75759,note_on,0,0,1,,,,,,,,,0,,,68,49
75759,note_on,159,0,1,,,,,,,,,0,,,70,0
75920,note_on,0,0,1,,,,,,,,,0,,,65,49
75920,control_change,0,0,1,,,,,,,,,0,64,0,,
75920,note_on,161,0,1,,,,,,,,,0,,,68,0
76080,time_signature,1680,1,0,4,4,24,8,,,,,,,,,
76080,note_on,0,0,3,,,,,,,,,2,,,39,49
76080,control_change,5040,0,3,,,,,,,,,2,64,127,,
76080,note_on,160,0,1,,,,,,,,,0,,,65,0
76200,note_on,0,0,3,,,,,,,,,2,,,43,49
76200,note_on,120,0,3,,,,,,,,,2,,,39,0
76320,note_on,0,0,3,,,,,,,,,2,,,46,49
76320,note_on,120,0,3,,,,,,,,,2,,,43,0
76440,note_on,0,0,3,,,,,,,,,2,,,51,49
76440,note_on,120,0,3,,,,,,,,,2,,,46,0
76560,note_on,120,0,3,,,,,,,,,2,,,51,0
76560,note_on,0,0,1,,,,,,,,,0,,,55,49
76560,control_change,480,0,1,,,,,,,,,0,64,127,,
76719,note_on,159,0,1,,,,,,,,,0,,,55,0
76719,note_on,0,0,1,,,,,,,,,0,,,58,49
76880,note_on,161,0,1,,,,,,,,,0,,,58,0
76880,note_on,0,0,1,,,,,,,,,0,,,63,49
77040,note_on,160,0,1,,,,,,,,,0,,,63,0
77040,note_on,0,0,1,,,,,,,,,0,,,67,49
77160,note_on,0,0,1,,,,,,,,,0,,,63,49
77160,note_on,120,0,1,,,,,,,,,0,,,67,0
77280,note_on,0,0,1,,,,,,,,,0,,,58,49
77280,note_on,120,0,1,,,,,,,,,0,,,63,0
77400,note_on,0,0,1,,,,,,,,,0,,,55,49
77400,note_on,120,0,1,,,,,,,,,0,,,58,0
77520,note_on,960,0,3,,,,,,,,,2,,,51,49
77520,note_on,120,0,1,,,,,,,,,0,,,55,0
77679,note_on,159,0,3,,,,,,,,,2,,,51,0
77679,note_on,0,0,3,,,,,,,,,2,,,46,49
77840,note_on,0,0,3,,,,,,,,,2,,,43,49
77840,note_on,161,0,3,,,,,,,,,2,,,46,0
78000,time_signature,1920,1,0,10,4,24,8,,,,,,,,,
78000,note_on,160,0,3,,,,,,,,,2,,,43,0
78000,end_of_track,0,1,0,,,,,,,,,,,,,
78000,note_on,0,0,3,,,,,,,,,2,,,39,49
78960,note_on,960,0,3,,,,,,,,,2,,,39,0
79920,control_change,2400,0,1,,,,,,,,,0,64,0,,
79920,end_of_track,0,1,1,,,,,,,,,,,,,
79920,control_change,960,0,3,,,,,,,,,2,64,0,,
80400,control_change,480,0,3,,,,,,,,,2,64,127,,
82320,control_change,1920,0,3,,,,,,,,,2,64,0,,
82320,end_of_track,0,1,3,,,,,,,,,,,,,
