tick,type,numerator,denominator,clocks_per_click,notated_32nd_notes_per_beat,time,meta,track,key,tempo,control,value,channel,program,port,note,velocity
0,control_change,,,,,0,0,0,,,7,100,0,,,,
0,midi_port,,,,,0,1,1,,,,,,,0,,
0,midi_port,,,,,0,1,0,,,,,,,0,,
0,key_signature,,,,,0,1,1,Ab,,,,,,,,
0,key_signature,,,,,0,1,0,Ab,,,,,,,,
0,program_change,,,,,0,0,0,,,,,0,0,,,
0,set_tempo,,,,,0,1,0,,599999,,,,,,,
0,note_on,,,,,0,0,1,,,,,0,,,51,80
0,time_signature,7,8,24,8,0,1,0,,,,,,,,,
0,control_change,,,,,0,0,0,,,10,64,0,,,,
0,control_change,,,,,0,0,0,,,91,0,0,,,,
0,control_change,,,,,0,0,0,,,93,0,0,,,,
0,control_change,,,,,0,0,0,,,121,0,0,,,,
227,note_on,,,,,227,0,1,,,,,0,,,51,0
240,note_on,,,,,13,0,1,,,,,0,,,51,80
240,set_tempo,,,,,240,1,0,,1200000,,,,,,,
399,note_on,,,,,159,0,1,,,,,0,,,51,0
400,set_tempo,,,,,160,1,0,,461538,,,,,,,
400,note_on,,,,,1,0,1,,,,,0,,,53,80
559,note_on,,,,,159,0,1,,,,,0,,,53,0
560,note_on,,,,,1,0,1,,,,,0,,,51,80
711,note_on,,,,,151,0,1,,,,,0,,,51,0
720,note_on,,,,,9,0,1,,,,,0,,,50,80
947,note_on,,,,,227,0,1,,,,,0,,,50,0
960,note_on,,,,,13,0,1,,,,,0,,,51,80
1187,note_on,,,,,227,0,1,,,,,0,,,51,0
1200,note_on,,,,,13,0,1,,,,,0,,,55,80
1359,note_on,,,,,159,0,1,,,,,0,,,55,0
1360,note_on,,,,,1,0,1,,,,,0,,,58,80
1519,note_on,,,,,159,0,1,,,,,0,,,58,0
1520,note_on,,,,,1,0,1,,,,,0,,,61,80
1671,note_on,,,,,151,0,1,,,,,0,,,61,0
1680,note_on,,,,,9,0,1,,,,,0,,,65,96
1680,time_signature,6,4,24,8,1280,1,0,,,,,,,,,
1680,set_tempo,,,,,0,1,0,,750002,,,,,,,
2160,note_on,,,,,480,0,1,,,,,0,,,51,80
2223,note_on,,,,,63,0,1,,,,,0,,,55,80
2287,note_on,,,,,64,0,1,,,,,0,,,61,80
2398,note_on,,,,,111,0,1,,,,,0,,,55,0
2398,note_on,,,,,0,0,1,,,,,0,,,61,0
2399,note_on,,,,,0,0,1,,,,,0,,,51,0
2399,note_on,,,,,1,0,1,,,,,0,,,65,0
2400,note_on,,,,,1,0,1,,,,,0,,,63,80
2639,note_on,,,,,239,0,1,,,,,0,,,63,0
2640,note_on,,,,,1,0,1,,,,,0,,,57,80
2879,note_on,,,,,239,0,1,,,,,0,,,57,0
2880,note_on,,,,,1,0,1,,,,,0,,,58,80
3107,note_on,,,,,227,0,1,,,,,0,,,58,0
3120,note_on,,,,,13,0,1,,,,,0,,,61,96
3600,note_on,,,,,480,0,1,,,,,0,,,51,80
3663,note_on,,,,,63,0,1,,,,,0,,,57,80
3838,note_on,,,,,175,0,1,,,,,0,,,57,0
3839,note_on,,,,,1,0,1,,,,,0,,,61,0
3839,note_on,,,,,0,0,1,,,,,0,,,51,0
3840,note_on,,,,,1,0,1,,,,,0,,,60,80
4079,note_on,,,,,239,0,1,,,,,0,,,60,0
4080,note_on,,,,,1,0,1,,,,,0,,,52,80
4319,note_on,,,,,239,0,1,,,,,0,,,52,0
4320,note_on,,,,,1,0,1,,,,,0,,,53,80
4547,note_on,,,,,227,0,1,,,,,0,,,53,0
4560,note_on,,,,,13,0,1,,,,,0,,,56,80
4560,set_tempo,,,,,2880,1,0,,857140,,,,,,,
5040,note_on,,,,,480,0,1,,,,,0,,,47,80
5103,note_on,,,,,63,0,1,,,,,0,,,50,80
5167,note_on,,,,,64,0,1,,,,,0,,,53,80
5278,note_on,,,,,111,0,1,,,,,0,,,50,0
5278,note_on,,,,,0,0,1,,,,,0,,,53,0
5279,note_on,,,,,1,0,1,,,,,0,,,47,0
5520,note_on,,,,,241,0,1,,,,,0,,,46,80
5583,note_on,,,,,63,0,1,,,,,0,,,49,80
5647,note_on,,,,,64,0,1,,,,,0,,,52,80
5758,note_on,,,,,111,0,1,,,,,0,,,49,0
5758,note_on,,,,,0,0,1,,,,,0,,,52,0
5759,note_on,,,,,1,0,1,,,,,0,,,46,0
5813,note_on,,,,,54,0,1,,,,,0,,,56,0
5880,note_on,,,,,67,0,1,,,,,0,,,55,80
5993,note_on,,,,,113,0,1,,,,,0,,,55,0
6000,note_on,,,,,7,0,1,,,,,0,,,58,80
6000,note_on,,,,,0,0,1,,,,,0,,,43,80
6063,note_on,,,,,63,0,1,,,,,0,,,49,80
6127,note_on,,,,,64,0,1,,,,,0,,,52,80
6238,note_on,,,,,0,0,1,,,,,0,,,52,0
6238,note_on,,,,,111,0,1,,,,,0,,,49,0
6239,note_on,,,,,1,0,1,,,,,0,,,43,0
7367,note_on,,,,,1128,0,1,,,,,0,,,58,0
7440,note_on,,,,,73,0,1,,,,,0,,,58,80
7440,set_tempo,,,,,2880,1,0,,750002,,,,,,,
7442,control_change,,,,,2,0,1,,,64,127,0,,,,
7920,note_on,,,,,478,0,1,,,,,0,,,42,80
7983,note_on,,,,,63,0,1,,,,,0,,,49,80
8047,note_on,,,,,64,0,1,,,,,0,,,52,80
8398,note_on,,,,,351,0,1,,,,,0,,,49,0
8398,note_on,,,,,0,0,1,,,,,0,,,52,0
8399,note_on,,,,,1,0,1,,,,,0,,,42,0
8400,note_on,,,,,1,0,1,,,,,0,,,42,80
8463,note_on,,,,,63,0,1,,,,,0,,,49,80
8527,note_on,,,,,64,0,1,,,,,0,,,52,80
8693,note_on,,,,,166,0,1,,,,,0,,,58,0
8760,note_on,,,,,67,0,1,,,,,0,,,58,81
8873,note_on,,,,,113,0,1,,,,,0,,,58,0
8878,note_on,,,,,5,0,1,,,,,0,,,49,0
8878,note_on,,,,,0,0,1,,,,,0,,,52,0
8879,note_on,,,,,1,0,1,,,,,0,,,42,0
8880,note_on,,,,,1,0,1,,,,,0,,,58,82
8975,note_on,,,,,95,0,1,,,,,0,,,58,0
8976,note_on,,,,,1,0,1,,,,,0,,,59,83
9071,note_on,,,,,95,0,1,,,,,0,,,59,0
9072,note_on,,,,,1,0,1,,,,,0,,,58,83
9167,note_on,,,,,95,0,1,,,,,0,,,58,0
9168,note_on,,,,,1,0,1,,,,,0,,,57,84
9263,note_on,,,,,95,0,1,,,,,0,,,57,0
9264,note_on,,,,,1,0,1,,,,,0,,,58,84
9354,note_on,,,,,90,0,1,,,,,0,,,58,0
9360,note_on,,,,,6,0,1,,,,,0,,,68,85
9360,note_on,,,,,1920,0,0,,,,,0,,,42,85
9360,note_on,,,,,0,0,0,,,,,0,,,46,85
9360,note_on,,,,,0,0,0,,,,,0,,,52,85
9599,note_on,,,,,239,0,0,,,,,0,,,42,0
9599,note_on,,,,,0,0,0,,,,,0,,,46,0
9599,note_on,,,,,0,0,0,,,,,0,,,52,0
9840,note_on,,,,,241,0,0,,,,,0,,,42,87
9840,note_on,,,,,0,0,0,,,,,0,,,46,87
9840,note_on,,,,,0,0,0,,,,,0,,,52,87
10079,note_on,,,,,0,0,0,,,,,0,,,46,0
10079,note_on,,,,,0,0,0,,,,,0,,,52,0
10079,note_on,,,,,239,0,0,,,,,0,,,42,0
10157,note_on,,,,,797,0,1,,,,,0,,,68,0
10200,note_on,,,,,43,0,1,,,,,0,,,66,89
10313,note_on,,,,,113,0,1,,,,,0,,,66,0
10320,note_on,,,,,7,0,1,,,,,0,,,66,90
10321,control_change,,,,,1,0,1,,,64,0,0,,,,
10322,control_change,,,,,1,0,1,,,64,127,0,,,,
10800,note_on,,,,,721,0,0,,,,,0,,,42,88
10800,note_on,,,,,0,0,0,,,,,0,,,47,88
10800,note_on,,,,,0,0,0,,,,,0,,,51,88
11039,note_on,,,,,0,0,0,,,,,0,,,51,0
11039,note_on,,,,,239,0,0,,,,,0,,,42,0
11039,note_on,,,,,0,0,0,,,,,0,,,47,0
11280,note_on,,,,,0,0,0,,,,,0,,,51,85
11280,note_on,,,,,241,0,0,,,,,0,,,42,85
11280,note_on,,,,,0,0,0,,,,,0,,,47,85
11519,note_on,,,,,239,0,0,,,,,0,,,42,0
11519,note_on,,,,,0,0,0,,,,,0,,,47,0
11519,note_on,,,,,0,0,0,,,,,0,,,51,0
11687,note_on,,,,,1365,0,1,,,,,0,,,66,0
11760,note_on,,,,,73,0,1,,,,,0,,,63,83
12240,note_on,,,,,0,0,1,,,,,0,,,47,80
12240,note_on,,,,,0,0,1,,,,,0,,,51,80
12240,note_on,,,,,480,0,1,,,,,0,,,42,80
12443,note_on,,,,,203,0,1,,,,,0,,,63,0
12695,note_on,,,,,0,0,1,,,,,0,,,47,0
12695,note_on,,,,,0,0,1,,,,,0,,,51,0
12695,note_on,,,,,252,0,1,,,,,0,,,42,0
12720,note_on,,,,,0,0,1,,,,,0,,,51,80
12720,note_on,,,,,0,0,1,,,,,0,,,47,80
12720,note_on,,,,,25,0,1,,,,,0,,,42,80
12960,note_on,,,,,240,0,1,,,,,0,,,59,80
13175,note_on,,,,,0,0,1,,,,,0,,,47,0
13175,note_on,,,,,215,0,1,,,,,0,,,42,0
13175,note_on,,,,,0,0,1,,,,,0,,,51,0
13187,note_on,,,,,12,0,1,,,,,0,,,59,0
13200,note_on,,,,,13,0,1,,,,,0,,,58,80
13201,control_change,,,,,1,0,1,,,64,0,0,,,,
13202,control_change,,,,,1,0,1,,,64,127,0,,,,
13680,note_on,,,,,0,0,1,,,,,0,,,52,80
13680,note_on,,,,,478,0,1,,,,,0,,,43,80
13680,note_on,,,,,0,0,1,,,,,0,,,49,80
14135,note_on,,,,,0,0,1,,,,,0,,,49,0
14135,note_on,,,,,0,0,1,,,,,0,,,52,0
14135,note_on,,,,,455,0,1,,,,,0,,,43,0
14160,note_on,,,,,0,0,1,,,,,0,,,49,80
14160,note_on,,,,,25,0,1,,,,,0,,,43,80
14160,note_on,,,,,0,0,1,,,,,0,,,52,80
14453,note_on,,,,,293,0,1,,,,,0,,,58,0
14520,note_on,,,,,67,0,1,,,,,0,,,58,80
14615,note_on,,,,,0,0,1,,,,,0,,,52,0
14615,note_on,,,,,0,0,1,,,,,0,,,49,0
14615,note_on,,,,,95,0,1,,,,,0,,,43,0
14633,note_on,,,,,18,0,1,,,,,0,,,58,0
14640,note_on,,,,,7,0,1,,,,,0,,,58,80
14735,note_on,,,,,95,0,1,,,,,0,,,58,0
14736,note_on,,,,,1,0,1,,,,,0,,,59,80
14831,note_on,,,,,95,0,1,,,,,0,,,59,0
14832,note_on,,,,,1,0,1,,,,,0,,,58,80
14927,note_on,,,,,95,0,1,,,,,0,,,58,0
14928,note_on,,,,,1,0,1,,,,,0,,,57,80
15023,note_on,,,,,95,0,1,,,,,0,,,57,0
15024,note_on,,,,,1,0,1,,,,,0,,,58,80
15114,note_on,,,,,90,0,1,,,,,0,,,58,0
15120,note_on,,,,,3601,0,0,,,,,0,,,43,80
15120,note_on,,,,,0,0,0,,,,,0,,,52,80
15120,note_on,,,,,0,0,0,,,,,0,,,46,80
15120,note_on,,,,,6,0,1,,,,,0,,,64,80
15359,note_on,,,,,0,0,0,,,,,0,,,52,0
15359,note_on,,,,,239,0,0,,,,,0,,,43,0
15359,note_on,,,,,0,0,0,,,,,0,,,46,0
15439,note_on,,,,,319,0,1,,,,,0,,,64,0
15440,note_on,,,,,1,0,1,,,,,0,,,63,80
15440,set_tempo,,,,,81,1,0,,1000000,,,,,,,
15600,note_on,,,,,0,0,0,,,,,0,,,46,80
15600,note_on,,,,,0,0,0,,,,,0,,,52,80
15600,note_on,,,,,160,0,0,,,,,0,,,43,80
15839,note_on,,,,,239,0,0,,,,,0,,,43,0
15839,note_on,,,,,0,0,0,,,,,0,,,52,0
15839,note_on,,,,,0,0,0,,,,,0,,,46,0
15919,note_on,,,,,479,0,1,,,,,0,,,63,0
15920,note_on,,,,,1,0,1,,,,,0,,,61,80
16071,note_on,,,,,151,0,1,,,,,0,,,61,0
16080,set_tempo,,,,,241,1,0,,750002,,,,,,,
16080,note_on,,,,,9,0,1,,,,,0,,,61,80
16081,control_change,,,,,1,0,1,,,64,0,0,,,,
16082,control_change,,,,,1,0,1,,,64,127,0,,,,
16560,note_on,,,,,0,0,1,,,,,0,,,51,80
16560,note_on,,,,,478,0,1,,,,,0,,,44,80
17015,note_on,,,,,0,0,1,,,,,0,,,51,0
17015,note_on,,,,,455,0,1,,,,,0,,,44,0
17040,note_on,,,,,0,0,1,,,,,0,,,51,80
17040,note_on,,,,,25,0,1,,,,,0,,,44,80
17040,set_tempo,,,,,960,1,0,,857140,,,,,,,
17333,note_on,,,,,293,0,1,,,,,0,,,61,0
17400,note_on,,,,,67,0,1,,,,,0,,,60,80
17495,note_on,,,,,0,0,1,,,,,0,,,51,0
17495,note_on,,,,,95,0,1,,,,,0,,,44,0
17513,note_on,,,,,18,0,1,,,,,0,,,60,0
17520,note_on,,,,,7,0,1,,,,,0,,,59,80
17521,control_change,,,,,1,0,1,,,64,0,0,,,,
18000,note_on,,,,,479,0,1,,,,,0,,,44,83
18000,note_on,,,,,0,0,1,,,,,0,,,51,83
18002,control_change,,,,,2,0,1,,,64,127,0,,,,
18203,note_on,,,,,201,0,1,,,,,0,,,59,0
18240,note_on,,,,,37,0,1,,,,,0,,,59,102
18455,note_on,,,,,0,0,1,,,,,0,,,51,0
18455,note_on,,,,,215,0,1,,,,,0,,,44,0
18480,note_on,,,,,0,0,1,,,,,0,,,51,86
18480,note_on,,,,,25,0,1,,,,,0,,,44,86
18719,note_on,,,,,239,0,1,,,,,0,,,59,0
18720,note_on,,,,,1,0,1,,,,,0,,,59,88
18935,note_on,,,,,0,0,1,,,,,0,,,51,0
18935,note_on,,,,,215,0,1,,,,,0,,,44,0
18947,note_on,,,,,12,0,1,,,,,0,,,59,0
18960,time_signature,21,8,24,8,1920,1,0,,,,,,,,,
18960,note_on,,,,,0,0,1,,,,,0,,,37,90
18960,note_on,,,,,0,0,1,,,,,0,,,52,90
18960,note_on,,,,,13,0,1,,,,,0,,,59,90
18961,control_change,,,,,1,0,1,,,64,0,0,,,,
18962,control_change,,,,,1,0,1,,,64,127,0,,,,
19415,note_on,,,,,453,0,1,,,,,0,,,37,0
19415,note_on,,,,,0,0,1,,,,,0,,,52,0
20099,note_on,,,,,684,0,1,,,,,0,,,59,0
20160,note_on,,,,,61,0,1,,,,,0,,,57,90
20160,set_tempo,,,,,1200,1,0,,500000,,,,,,,
20387,note_on,,,,,227,0,1,,,,,0,,,57,0
20400,note_on,,,,,13,0,1,,,,,0,,,56,90
20627,note_on,,,,,227,0,1,,,,,0,,,56,0
20640,set_tempo,,,,,480,1,0,,400000,,,,,,,
20640,note_on,,,,,13,0,1,,,,,0,,,57,90
20867,note_on,,,,,227,0,1,,,,,0,,,57,0
20880,note_on,,,,,13,0,1,,,,,0,,,51,90
21107,note_on,,,,,227,0,1,,,,,0,,,51,0
21120,note_on,,,,,13,0,1,,,,,0,,,52,90
21347,note_on,,,,,227,0,1,,,,,0,,,52,0
21360,set_tempo,,,,,720,1,0,,250000,,,,,,,
21360,note_on,,,,,13,0,1,,,,,0,,,48,90
21587,note_on,,,,,227,0,1,,,,,0,,,48,0
21600,note_on,,,,,13,0,1,,,,,0,,,49,90
21839,note_on,,,,,239,0,1,,,,,0,,,49,0
21840,note_on,,,,,1,0,1,,,,,0,,,52,90
22079,note_on,,,,,239,0,1,,,,,0,,,52,0
22080,note_on,,,,,1,0,1,,,,,0,,,57,90
22319,note_on,,,,,239,0,1,,,,,0,,,57,0
22320,note_on,,,,,1,0,1,,,,,0,,,61,90
22559,note_on,,,,,239,0,1,,,,,0,,,61,0
22560,note_on,,,,,1,0,1,,,,,0,,,64,90
22799,note_on,,,,,239,0,1,,,,,0,,,64,0
22800,note_on,,,,,1,0,1,,,,,0,,,69,90
23039,note_on,,,,,239,0,1,,,,,0,,,69,0
23040,note_on,,,,,1,0,1,,,,,0,,,73,90
23279,note_on,,,,,239,0,1,,,,,0,,,73,0
23280,note_on,,,,,1,0,1,,,,,0,,,76,90
23281,control_change,,,,,1,0,1,,,64,0,0,,,,
23519,note_on,,,,,238,0,1,,,,,0,,,76,0
23520,note_on,,,,,1,0,1,,,,,0,,,85,90
23759,note_on,,,,,239,0,1,,,,,0,,,85,0
23760,note_on,,,,,1,0,1,,,,,0,,,80,90
23987,note_on,,,,,227,0,1,,,,,0,,,80,0
24000,set_tempo,,,,,0,1,0,,500000,,,,,,,
24000,note_on,,,,,13,0,1,,,,,0,,,83,90
24000,time_signature,6,4,24,8,2640,1,0,,,,,,,,,
24719,note_on,,,,,719,0,1,,,,,0,,,83,0
24720,note_on,,,,,1,0,1,,,,,0,,,81,90
24959,note_on,,,,,239,0,1,,,,,0,,,81,0
24960,note_on,,,,,1,0,1,,,,,0,,,74,90
25199,note_on,,,,,239,0,1,,,,,0,,,74,0
25200,note_on,,,,,1,0,1,,,,,0,,,75,90
25427,note_on,,,,,227,0,1,,,,,0,,,75,0
25440,note_on,,,,,13,0,1,,,,,0,,,78,90
26159,note_on,,,,,719,0,1,,,,,0,,,78,0
26160,set_tempo,,,,,2160,1,0,,750002,,,,,,,
26160,note_on,,,,,1,0,1,,,,,0,,,76,90
26399,note_on,,,,,239,0,1,,,,,0,,,76,0
26400,note_on,,,,,1,0,1,,,,,0,,,75,90
26639,note_on,,,,,239,0,1,,,,,0,,,75,0
26640,note_on,,,,,1,0,1,,,,,0,,,73,90
26867,note_on,,,,,227,0,1,,,,,0,,,73,0
26880,set_tempo,,,,,0,1,0,,1875005,,,,,,,
26880,note_on,,,,,13,0,1,,,,,0,,,50,90
26880,note_on,,,,,0,0,0,,,,,0,,,68,90
26880,note_on,,,,,0,0,0,,,,,0,,,73,108
26880,time_signature,21,4,24,8,720,1,0,,,,,,,,,
26943,note_on,,,,,63,0,1,,,,,0,,,65,90
27107,note_on,,,,,227,0,0,,,,,0,,,68,0
27118,note_on,,,,,175,0,1,,,,,0,,,65,0
27119,note_on,,,,,1,0,1,,,,,0,,,50,0
27599,set_tempo,,,,,492,1,0,,750002,,,,,,,
27599,note_on,,,,,0,0,0,,,,,0,,,73,0
27600,note_on,,,,,1,0,0,,,,,0,,,71,90
27827,note_on,,,,,227,0,0,,,,,0,,,71,0
27840,note_on,,,,,13,0,0,,,,,0,,,67,90
28067,note_on,,,,,227,0,0,,,,,0,,,67,0
28080,note_on,,,,,13,0,0,,,,,0,,,68,90
28307,note_on,,,,,227,0,0,,,,,0,,,68,0
28320,set_tempo,,,,,13,1,0,,500000,,,,,,,
28320,note_on,,,,,0,0,0,,,,,0,,,64,90
28547,note_on,,,,,227,0,0,,,,,0,,,64,0
28560,note_on,,,,,13,0,0,,,,,0,,,65,90
28787,note_on,,,,,227,0,0,,,,,0,,,65,0
28800,note_on,,,,,13,0,0,,,,,0,,,61,90
29027,note_on,,,,,227,0,0,,,,,0,,,61,0
29040,note_on,,,,,0,0,0,,,,,0,,,62,90
29040,set_tempo,,,,,13,1,0,,333333,,,,,,,
29267,note_on,,,,,227,0,0,,,,,0,,,62,0
29280,note_on,,,,,13,0,0,,,,,0,,,65,90
29282,control_change,,,,,2,0,0,,,64,127,0,,,,
29507,note_on,,,,,225,0,0,,,,,0,,,65,0
29520,note_on,,,,,13,0,0,,,,,0,,,68,80
29747,note_on,,,,,227,0,0,,,,,0,,,68,0
29760,set_tempo,,,,,13,1,0,,250000,,,,,,,
29760,note_on,,,,,0,0,0,,,,,0,,,71,80
29987,note_on,,,,,227,0,0,,,,,0,,,71,0
30000,note_on,,,,,13,0,0,,,,,0,,,73,81
30227,note_on,,,,,227,0,0,,,,,0,,,73,0
30240,note_on,,,,,13,0,0,,,,,0,,,77,82
30467,note_on,,,,,227,0,0,,,,,0,,,77,0
30480,note_on,,,,,13,0,0,,,,,0,,,80,83
30707,note_on,,,,,227,0,0,,,,,0,,,80,0
30720,note_on,,,,,13,0,0,,,,,0,,,83,84
30947,note_on,,,,,227,0,0,,,,,0,,,83,0
30960,note_on,,,,,13,0,0,,,,,0,,,86,85
31187,note_on,,,,,227,0,0,,,,,0,,,86,0
31200,note_on,,,,,13,0,0,,,,,0,,,89,86
31427,note_on,,,,,227,0,0,,,,,0,,,89,0
31440,note_on,,,,,13,0,0,,,,,0,,,92,87
31667,note_on,,,,,227,0,0,,,,,0,,,92,0
31680,note_on,,,,,13,0,0,,,,,0,,,95,88
31907,note_on,,,,,227,0,0,,,,,0,,,95,0
31920,note_on,,,,,13,0,0,,,,,0,,,91,89
32147,note_on,,,,,227,0,0,,,,,0,,,91,0
32160,note_on,,,,,0,0,0,,,,,0,,,94,108
32160,set_tempo,,,,,13,1,0,,1000000,,,,,,,
32447,note_on,,,,,287,0,0,,,,,0,,,94,0
32448,note_on,,,,,1,0,0,,,,,0,,,92,90
32543,note_on,,,,,95,0,0,,,,,0,,,92,0
32544,set_tempo,,,,,1,1,0,,2000000,,,,,,,
32544,note_on,,,,,0,0,0,,,,,0,,,86,90
32575,note_on,,,,,31,0,0,,,,,0,,,86,0
32576,note_on,,,,,1,0,0,,,,,0,,,87,90
32607,note_on,,,,,31,0,0,,,,,0,,,87,0
32608,note_on,,,,,1,0,0,,,,,0,,,88,90
32637,note_on,,,,,29,0,0,,,,,0,,,88,0
32640,set_tempo,,,,,3,1,0,,1000000,,,,,,,
32640,note_on,,,,,0,0,0,,,,,0,,,91,108
32927,note_on,,,,,287,0,0,,,,,0,,,91,0
32928,note_on,,,,,1,0,0,,,,,0,,,89,90
33023,note_on,,,,,95,0,0,,,,,0,,,89,0
33024,note_on,,,,,0,0,0,,,,,0,,,83,90
33024,set_tempo,,,,,1,1,0,,2000000,,,,,,,
33055,note_on,,,,,31,0,0,,,,,0,,,83,0
33056,note_on,,,,,1,0,0,,,,,0,,,84,90
33087,note_on,,,,,31,0,0,,,,,0,,,84,0
33088,note_on,,,,,1,0,0,,,,,0,,,85,90
33117,note_on,,,,,29,0,0,,,,,0,,,85,0
33120,note_on,,,,,0,0,0,,,,,0,,,87,90
33120,set_tempo,,,,,3,1,0,,666667,,,,,,,
33215,note_on,,,,,95,0,0,,,,,0,,,87,0
33216,note_on,,,,,1,0,0,,,,,0,,,86,90
33311,note_on,,,,,95,0,0,,,,,0,,,86,0
33312,note_on,,,,,1,0,0,,,,,0,,,80,90
33407,note_on,,,,,95,0,0,,,,,0,,,80,0
33408,note_on,,,,,1,0,0,,,,,0,,,81,90
33503,note_on,,,,,95,0,0,,,,,0,,,81,0
33504,note_on,,,,,1,0,0,,,,,0,,,82,90
33594,note_on,,,,,90,0,0,,,,,0,,,82,0
33600,note_on,,,,,0,0,0,,,,,0,,,85,90
33600,set_tempo,,,,,6,1,0,,500000,,,,,,,
33695,note_on,,,,,95,0,0,,,,,0,,,85,0
33696,note_on,,,,,1,0,0,,,,,0,,,83,90
33791,note_on,,,,,95,0,0,,,,,0,,,83,0
33792,note_on,,,,,1,0,0,,,,,0,,,74,90
33887,note_on,,,,,95,0,0,,,,,0,,,74,0
33888,note_on,,,,,1,0,0,,,,,0,,,75,90
33983,note_on,,,,,95,0,0,,,,,0,,,75,0
33984,note_on,,,,,1,0,0,,,,,0,,,76,90
34074,note_on,,,,,90,0,0,,,,,0,,,76,0
34080,note_on,,,,,6,0,0,,,,,0,,,79,90
34081,control_change,,,,,1,0,0,,,64,0,0,,,,
34175,note_on,,,,,94,0,0,,,,,0,,,79,0
34176,note_on,,,,,1,0,0,,,,,0,,,77,90
34271,note_on,,,,,95,0,0,,,,,0,,,77,0
34272,note_on,,,,,1,0,0,,,,,0,,,71,90
34367,note_on,,,,,95,0,0,,,,,0,,,71,0
34368,note_on,,,,,1,0,0,,,,,0,,,72,90
34463,note_on,,,,,95,0,0,,,,,0,,,72,0
34464,note_on,,,,,1,0,0,,,,,0,,,73,90
34554,note_on,,,,,90,0,0,,,,,0,,,73,0
34560,note_on,,,,,6,0,0,,,,,0,,,75,90
34655,note_on,,,,,95,0,0,,,,,0,,,75,0
34656,note_on,,,,,1,0,0,,,,,0,,,74,90
34751,note_on,,,,,95,0,0,,,,,0,,,74,0
34752,note_on,,,,,1,0,0,,,,,0,,,68,90
34847,note_on,,,,,95,0,0,,,,,0,,,68,0
34848,note_on,,,,,1,0,0,,,,,0,,,69,90
34943,note_on,,,,,95,0,0,,,,,0,,,69,0
34944,note_on,,,,,1,0,0,,,,,0,,,70,90
35034,note_on,,,,,90,0,0,,,,,0,,,70,0
35040,note_on,,,,,6,0,0,,,,,0,,,73,90
35135,note_on,,,,,95,0,0,,,,,0,,,73,0
35136,note_on,,,,,1,0,0,,,,,0,,,71,90
35231,note_on,,,,,95,0,0,,,,,0,,,71,0
35232,note_on,,,,,1,0,0,,,,,0,,,62,90
35327,note_on,,,,,95,0,0,,,,,0,,,62,0
35328,note_on,,,,,1,0,0,,,,,0,,,63,90
35423,note_on,,,,,95,0,0,,,,,0,,,63,0
35424,note_on,,,,,1,0,0,,,,,0,,,64,90
35514,note_on,,,,,90,0,0,,,,,0,,,64,0
35520,note_on,,,,,6,0,0,,,,,0,,,67,108
35615,note_on,,,,,95,0,0,,,,,0,,,67,0
35616,note_on,,,,,1,0,0,,,,,0,,,65,90
35711,note_on,,,,,95,0,0,,,,,0,,,65,0
35712,note_on,,,,,1,0,0,,,,,0,,,59,90
35807,note_on,,,,,95,0,0,,,,,0,,,59,0
35808,note_on,,,,,1,0,0,,,,,0,,,60,90
35903,note_on,,,,,95,0,0,,,,,0,,,60,0
35904,note_on,,,,,1,0,0,,,,,0,,,61,90
35994,note_on,,,,,90,0,0,,,,,0,,,61,0
36000,note_on,,,,,0,0,0,,,,,0,,,63,108
36000,set_tempo,,,,,6,1,0,,666667,,,,,,,
36095,note_on,,,,,95,0,0,,,,,0,,,63,0
36096,note_on,,,,,1,0,0,,,,,0,,,62,90
36191,note_on,,,,,95,0,0,,,,,0,,,62,0
36192,note_on,,,,,0,0,0,,,,,0,,,56,90
36192,set_tempo,,,,,1,1,0,,1200000,,,,,,,
36287,note_on,,,,,95,0,0,,,,,0,,,56,0
36288,note_on,,,,,1,0,0,,,,,0,,,57,90
36383,note_on,,,,,95,0,0,,,,,0,,,57,0
36384,note_on,,,,,1,0,0,,,,,0,,,59,90
36474,note_on,,,,,90,0,0,,,,,0,,,59,0
36480,note_on,,,,,6,0,0,,,,,0,,,61,108
36519,note_on,,,,,39,0,0,,,,,0,,,61,0
36540,note_on,,,,,21,0,0,,,,,0,,,59,91
36599,note_on,,,,,59,0,0,,,,,0,,,59,0
36600,note_on,,,,,1,0,0,,,,,0,,,50,92
36629,note_on,,,,,29,0,0,,,,,0,,,50,0
36660,note_on,,,,,0,0,0,,,,,0,,,53,93
36660,set_tempo,,,,,31,1,0,,1499999,,,,,,,
36689,note_on,,,,,29,0,0,,,,,0,,,53,0
36720,note_on,,,,,31,0,0,,,,,0,,,57,95
36749,note_on,,,,,29,0,0,,,,,0,,,57,0
36780,note_on,,,,,31,0,0,,,,,0,,,59,96
36809,note_on,,,,,29,0,0,,,,,0,,,59,0
36840,note_on,,,,,31,0,0,,,,,0,,,62,97
36869,note_on,,,,,29,0,0,,,,,0,,,62,0
36900,note_on,,,,,31,0,0,,,,,0,,,65,98
36929,note_on,,,,,29,0,0,,,,,0,,,65,0
36960,time_signature,6,4,24,8,31,1,0,,,,,,,,,
36960,set_tempo,,,,,0,1,0,,1000000,,,,,,,
36960,note_on,,,,,0,0,0,,,,,0,,,65,120
37440,note_on,,,,,10321,0,1,,,,,0,,,39,100
37503,note_on,,,,,63,0,1,,,,,0,,,48,100
37567,note_on,,,,,64,0,1,,,,,0,,,56,100
37678,note_on,,,,,111,0,1,,,,,0,,,48,0
37678,note_on,,,,,0,0,1,,,,,0,,,56,0
37679,set_tempo,,,,,719,1,0,,500000,,,,,,,
37679,note_on,,,,,0,0,0,,,,,0,,,65,0
37679,note_on,,,,,1,0,1,,,,,0,,,39,0
37680,note_on,,,,,1,0,0,,,,,0,,,63,100
37919,note_on,,,,,239,0,0,,,,,0,,,63,0
37920,note_on,,,,,1,0,0,,,,,0,,,60,100
38159,note_on,,,,,239,0,0,,,,,0,,,60,0
38160,note_on,,,,,1,0,0,,,,,0,,,56,100
38387,note_on,,,,,227,0,0,,,,,0,,,56,0
38400,note_on,,,,,13,0,0,,,,,0,,,54,100
38880,note_on,,,,,1201,0,1,,,,,0,,,39,100
38943,note_on,,,,,63,0,1,,,,,0,,,48,100
39007,note_on,,,,,64,0,1,,,,,0,,,57,100
39118,note_on,,,,,0,0,1,,,,,0,,,57,0
39118,note_on,,,,,111,0,1,,,,,0,,,48,0
39119,note_on,,,,,1,0,1,,,,,0,,,39,0
39119,note_on,,,,,719,0,0,,,,,0,,,54,0
39120,note_on,,,,,1,0,0,,,,,0,,,53,100
39359,note_on,,,,,239,0,0,,,,,0,,,53,0
39360,note_on,,,,,1,0,0,,,,,0,,,61,100
39599,note_on,,,,,239,0,0,,,,,0,,,61,0
39600,note_on,,,,,1,0,0,,,,,0,,,57,100
39827,note_on,,,,,227,0,0,,,,,0,,,57,0
39840,note_on,,,,,13,0,0,,,,,0,,,67,120
40320,note_on,,,,,1201,0,1,,,,,0,,,39,100
40383,note_on,,,,,63,0,1,,,,,0,,,49,100
40447,note_on,,,,,64,0,1,,,,,0,,,58,100
40558,note_on,,,,,0,0,1,,,,,0,,,58,0
40558,note_on,,,,,111,0,1,,,,,0,,,49,0
40559,note_on,,,,,719,0,0,,,,,0,,,67,0
40559,note_on,,,,,1,0,1,,,,,0,,,39,0
40560,note_on,,,,,1,0,0,,,,,0,,,65,100
40799,note_on,,,,,239,0,0,,,,,0,,,65,0
40800,note_on,,,,,1,0,0,,,,,0,,,61,100
41039,note_on,,,,,239,0,0,,,,,0,,,61,0
41040,note_on,,,,,1,0,0,,,,,0,,,58,100
41267,note_on,,,,,227,0,0,,,,,0,,,58,0
41280,note_on,,,,,13,0,0,,,,,0,,,56,100
41760,note_on,,,,,1201,0,1,,,,,0,,,39,100
41823,note_on,,,,,63,0,1,,,,,0,,,50,100
41887,note_on,,,,,64,0,1,,,,,0,,,59,100
41998,note_on,,,,,0,0,1,,,,,0,,,59,0
41998,note_on,,,,,111,0,1,,,,,0,,,50,0
41999,note_on,,,,,1,0,1,,,,,0,,,39,0
41999,note_on,,,,,719,0,0,,,,,0,,,56,0
42000,note_on,,,,,1,0,0,,,,,0,,,55,100
42239,note_on,,,,,239,0,0,,,,,0,,,55,0
42240,note_on,,,,,1,0,0,,,,,0,,,63,100
42479,note_on,,,,,239,0,0,,,,,0,,,63,0
42480,note_on,,,,,1,0,0,,,,,0,,,59,100
42707,note_on,,,,,227,0,0,,,,,0,,,59,0
42720,note_on,,,,,13,0,0,,,,,0,,,68,120
43200,note_on,,,,,1201,0,1,,,,,0,,,39,100
43242,note_on,,,,,42,0,1,,,,,0,,,51,100
43284,note_on,,,,,42,0,1,,,,,0,,,55,100
43326,note_on,,,,,42,0,1,,,,,0,,,60,100
43439,note_on,,,,,0,0,1,,,,,0,,,51,0
43439,note_on,,,,,0,0,1,,,,,0,,,55,0
43439,note_on,,,,,0,0,1,,,,,0,,,60,0
43439,note_on,,,,,113,0,1,,,,,0,,,39,0
43439,note_on,,,,,719,0,0,,,,,0,,,68,0
43440,note_on,,,,,1,0,0,,,,,0,,,67,100
43679,note_on,,,,,239,0,0,,,,,0,,,67,0
43680,note_on,,,,,1,0,0,,,,,0,,,63,100
43919,note_on,,,,,239,0,0,,,,,0,,,63,0
43920,note_on,,,,,1,0,0,,,,,0,,,60,100
44147,note_on,,,,,227,0,0,,,,,0,,,60,0
44160,note_on,,,,,13,0,0,,,,,0,,,69,120
44640,note_on,,,,,1201,0,1,,,,,0,,,39,100
44682,note_on,,,,,42,0,1,,,,,0,,,51,100
44724,note_on,,,,,42,0,1,,,,,0,,,54,100
44766,note_on,,,,,42,0,1,,,,,0,,,60,100
44879,note_on,,,,,113,0,1,,,,,0,,,39,0
44879,note_on,,,,,0,0,1,,,,,0,,,60,0
44879,note_on,,,,,0,0,1,,,,,0,,,54,0
44879,note_on,,,,,0,0,1,,,,,0,,,51,0
44879,note_on,,,,,719,0,0,,,,,0,,,69,0
44880,set_tempo,,,,,1,1,0,,666667,,,,,,,
44880,note_on,,,,,0,0,0,,,,,0,,,68,100
45119,note_on,,,,,239,0,0,,,,,0,,,68,0
45120,note_on,,,,,1,0,0,,,,,0,,,66,100
45359,note_on,,,,,239,0,0,,,,,0,,,66,0
45360,note_on,,,,,1,0,0,,,,,0,,,63,100
45587,note_on,,,,,227,0,0,,,,,0,,,63,0
45600,time_signature,27,8,24,8,13,1,0,,,,,,,,,
45600,note_on,,,,,0,0,0,,,,,0,,,69,100
45602,control_change,,,,,2,0,0,,,64,127,0,,,,
46080,note_on,,,,,1201,0,1,,,,,0,,,39,120
46122,note_on,,,,,42,0,1,,,,,0,,,52,120
46164,note_on,,,,,42,0,1,,,,,0,,,56,120
46206,note_on,,,,,42,0,1,,,,,0,,,61,120
46215,note_on,,,,,613,0,0,,,,,0,,,69,0
46240,note_on,,,,,25,0,0,,,,,0,,,68,100
46319,note_on,,,,,0,0,1,,,,,0,,,61,0
46319,note_on,,,,,0,0,1,,,,,0,,,56,0
46319,note_on,,,,,0,0,1,,,,,0,,,52,0
46319,note_on,,,,,113,0,1,,,,,0,,,39,0
46399,note_on,,,,,159,0,0,,,,,0,,,68,0
46400,note_on,,,,,1,0,0,,,,,0,,,64,100
46551,note_on,,,,,151,0,0,,,,,0,,,64,0
46560,note_on,,,,,0,0,0,,,,,0,,,61,100
46560,set_tempo,,,,,9,1,0,,500000,,,,,,,
46719,note_on,,,,,159,0,0,,,,,0,,,61,0
46720,note_on,,,,,1,0,0,,,,,0,,,75,100
46879,note_on,,,,,159,0,0,,,,,0,,,75,0
46880,note_on,,,,,1,0,0,,,,,0,,,73,100
47031,note_on,,,,,151,0,0,,,,,0,,,73,0
47040,note_on,,,,,9,0,0,,,,,0,,,68,100
47199,note_on,,,,,159,0,0,,,,,0,,,68,0
47200,note_on,,,,,1,0,0,,,,,0,,,64,100
47359,note_on,,,,,159,0,0,,,,,0,,,64,0
47360,note_on,,,,,1,0,0,,,,,0,,,78,100
47511,note_on,,,,,151,0,0,,,,,0,,,78,0
47520,note_on,,,,,9,0,0,,,,,0,,,76,100
47633,note_on,,,,,113,0,0,,,,,0,,,76,0
47640,note_on,,,,,7,0,0,,,,,0,,,73,100
47753,note_on,,,,,113,0,0,,,,,0,,,73,0
47760,note_on,,,,,7,0,0,,,,,0,,,68,100
47873,note_on,,,,,113,0,0,,,,,0,,,68,0
47880,note_on,,,,,7,0,0,,,,,0,,,81,100
47993,note_on,,,,,113,0,0,,,,,0,,,81,0
48000,note_on,,,,,7,0,0,,,,,0,,,80,100
48113,note_on,,,,,113,0,0,,,,,0,,,80,0
48120,note_on,,,,,7,0,0,,,,,0,,,76,100
48233,note_on,,,,,113,0,0,,,,,0,,,76,0
48240,note_on,,,,,7,0,0,,,,,0,,,73,100
48353,note_on,,,,,113,0,0,,,,,0,,,73,0
48360,note_on,,,,,7,0,0,,,,,0,,,87,100
48473,note_on,,,,,113,0,0,,,,,0,,,87,0
48480,note_on,,,,,7,0,0,,,,,0,,,85,100
48570,note_on,,,,,90,0,0,,,,,0,,,85,0
48576,note_on,,,,,6,0,0,,,,,0,,,80,100
48666,note_on,,,,,90,0,0,,,,,0,,,80,0
48672,note_on,,,,,6,0,0,,,,,0,,,76,100
48762,note_on,,,,,90,0,0,,,,,0,,,76,0
48768,note_on,,,,,6,0,0,,,,,0,,,90,100
48858,note_on,,,,,90,0,0,,,,,0,,,90,0
48864,note_on,,,,,6,0,0,,,,,0,,,88,100
48954,note_on,,,,,90,0,0,,,,,0,,,88,0
48960,note_on,,,,,6,0,0,,,,,0,,,85,100
49050,note_on,,,,,90,0,0,,,,,0,,,85,0
49056,note_on,,,,,6,0,0,,,,,0,,,80,100
49146,note_on,,,,,90,0,0,,,,,0,,,80,0
49152,note_on,,,,,6,0,0,,,,,0,,,93,100
49242,note_on,,,,,90,0,0,,,,,0,,,93,0
49248,note_on,,,,,6,0,0,,,,,0,,,92,100
49338,note_on,,,,,90,0,0,,,,,0,,,92,0
49344,note_on,,,,,6,0,0,,,,,0,,,88,100
49434,note_on,,,,,90,0,0,,,,,0,,,88,0
49440,note_on,,,,,6,0,0,,,,,0,,,85,100
49530,note_on,,,,,90,0,0,,,,,0,,,85,0
49536,note_on,,,,,6,0,0,,,,,0,,,99,100
49626,note_on,,,,,90,0,0,,,,,0,,,99,0
49632,note_on,,,,,6,0,0,,,,,0,,,97,100
49722,note_on,,,,,90,0,0,,,,,0,,,97,0
49728,note_on,,,,,6,0,0,,,,,0,,,92,100
49818,note_on,,,,,90,0,0,,,,,0,,,92,0
49824,note_on,,,,,6,0,0,,,,,0,,,88,100
49914,note_on,,,,,90,0,0,,,,,0,,,88,0
49920,note_on,,,,,6,0,0,,,,,0,,,100,100
50010,note_on,,,,,90,0,0,,,,,0,,,100,0
50016,note_on,,,,,6,0,0,,,,,0,,,99,100
50106,note_on,,,,,90,0,0,,,,,0,,,99,0
50112,note_on,,,,,6,0,0,,,,,0,,,97,100
50202,note_on,,,,,90,0,0,,,,,0,,,97,0
50208,note_on,,,,,6,0,0,,,,,0,,,91,100
50298,note_on,,,,,90,0,0,,,,,0,,,91,0
50304,note_on,,,,,6,0,0,,,,,0,,,92,100
50394,note_on,,,,,90,0,0,,,,,0,,,92,0
50400,note_on,,,,,6,0,0,,,,,0,,,100,100
50495,note_on,,,,,95,0,0,,,,,0,,,100,0
50496,note_on,,,,,1,0,0,,,,,0,,,99,100
50591,note_on,,,,,95,0,0,,,,,0,,,99,0
50592,note_on,,,,,1,0,0,,,,,0,,,97,100
50687,note_on,,,,,95,0,0,,,,,0,,,97,0
50688,note_on,,,,,1,0,0,,,,,0,,,91,100
50783,note_on,,,,,95,0,0,,,,,0,,,91,0
50784,note_on,,,,,1,0,0,,,,,0,,,92,100
50874,note_on,,,,,90,0,0,,,,,0,,,92,0
50880,note_on,,,,,0,0,0,,,,,0,,,100,100
50880,set_tempo,,,,,6,1,0,,666667,,,,,,,
50924,note_on,,,,,44,0,0,,,,,0,,,100,0
50928,note_on,,,,,4,0,0,,,,,0,,,99,100
50972,note_on,,,,,44,0,0,,,,,0,,,99,0
50976,note_on,,,,,4,0,0,,,,,0,,,97,100
51020,note_on,,,,,44,0,0,,,,,0,,,97,0
51024,note_on,,,,,4,0,0,,,,,0,,,91,100
51068,note_on,,,,,44,0,0,,,,,0,,,91,0
51072,note_on,,,,,4,0,0,,,,,0,,,92,100
51116,note_on,,,,,44,0,0,,,,,0,,,92,0
51120,note_on,,,,,4,0,0,,,,,0,,,100,100
51164,note_on,,,,,44,0,0,,,,,0,,,100,0
51168,note_on,,,,,4,0,0,,,,,0,,,99,100
51212,note_on,,,,,44,0,0,,,,,0,,,99,0
51216,note_on,,,,,4,0,0,,,,,0,,,97,100
51260,note_on,,,,,44,0,0,,,,,0,,,97,0
51264,note_on,,,,,4,0,0,,,,,0,,,91,100
51308,note_on,,,,,44,0,0,,,,,0,,,91,0
51312,note_on,,,,,4,0,0,,,,,0,,,92,100
51356,note_on,,,,,44,0,0,,,,,0,,,92,0
51360,note_on,,,,,4,0,0,,,,,0,,,100,100
51404,note_on,,,,,44,0,0,,,,,0,,,100,0
51408,note_on,,,,,4,0,0,,,,,0,,,99,100
51452,note_on,,,,,44,0,0,,,,,0,,,99,0
51456,note_on,,,,,4,0,0,,,,,0,,,97,100
51500,note_on,,,,,44,0,0,,,,,0,,,97,0
51504,note_on,,,,,4,0,0,,,,,0,,,91,100
51548,note_on,,,,,44,0,0,,,,,0,,,91,0
51552,note_on,,,,,4,0,0,,,,,0,,,92,100
51596,note_on,,,,,44,0,0,,,,,0,,,92,0
51600,note_on,,,,,4,0,0,,,,,0,,,100,100
51644,note_on,,,,,44,0,0,,,,,0,,,100,0
51648,note_on,,,,,4,0,0,,,,,0,,,99,100
51692,note_on,,,,,44,0,0,,,,,0,,,99,0
51696,note_on,,,,,4,0,0,,,,,0,,,97,100
51740,note_on,,,,,44,0,0,,,,,0,,,97,0
51744,note_on,,,,,4,0,0,,,,,0,,,91,100
51788,note_on,,,,,44,0,0,,,,,0,,,91,0
51792,note_on,,,,,4,0,0,,,,,0,,,92,100
51836,note_on,,,,,44,0,0,,,,,0,,,92,0
51840,note_on,,,,,4,0,0,,,,,0,,,100,100
51884,note_on,,,,,44,0,0,,,,,0,,,100,0
51888,note_on,,,,,4,0,0,,,,,0,,,99,100
51932,note_on,,,,,44,0,0,,,,,0,,,99,0
51936,note_on,,,,,4,0,0,,,,,0,,,97,100
51980,note_on,,,,,44,0,0,,,,,0,,,97,0
51984,note_on,,,,,4,0,0,,,,,0,,,91,100
52028,note_on,,,,,44,0,0,,,,,0,,,91,0
52032,note_on,,,,,4,0,0,,,,,0,,,92,100
52076,note_on,,,,,44,0,0,,,,,0,,,92,0
52080,set_tempo,,,,,0,1,0,,800000,,,,,,,
52080,time_signature,6,4,24,8,4,1,0,,,,,,,,,
52080,note_on,,,,,0,0,0,,,,,0,,,100,100
52124,note_on,,,,,44,0,0,,,,,0,,,100,0
52128,note_on,,,,,4,0,0,,,,,0,,,99,100
52172,note_on,,,,,44,0,0,,,,,0,,,99,0
52176,note_on,,,,,4,0,0,,,,,0,,,97,100
52220,note_on,,,,,44,0,0,,,,,0,,,97,0
52224,note_on,,,,,4,0,0,,,,,0,,,91,100
52268,note_on,,,,,44,0,0,,,,,0,,,91,0
52272,note_on,,,,,4,0,0,,,,,0,,,92,100
52316,note_on,,,,,44,0,0,,,,,0,,,92,0
52320,note_on,,,,,4,0,0,,,,,0,,,100,100
52364,note_on,,,,,44,0,0,,,,,0,,,100,0
52368,note_on,,,,,4,0,0,,,,,0,,,99,100
52412,note_on,,,,,44,0,0,,,,,0,,,99,0
52416,note_on,,,,,4,0,0,,,,,0,,,97,100
52460,note_on,,,,,44,0,0,,,,,0,,,97,0
52464,note_on,,,,,4,0,0,,,,,0,,,91,100
52508,note_on,,,,,44,0,0,,,,,0,,,91,0
52512,note_on,,,,,4,0,0,,,,,0,,,92,100
52556,note_on,,,,,44,0,0,,,,,0,,,92,0
52560,note_on,,,,,4,0,0,,,,,0,,,100,100
52604,note_on,,,,,44,0,0,,,,,0,,,100,0
52608,note_on,,,,,4,0,0,,,,,0,,,99,100
52652,note_on,,,,,44,0,0,,,,,0,,,99,0
52656,note_on,,,,,4,0,0,,,,,0,,,97,100
52700,note_on,,,,,44,0,0,,,,,0,,,97,0
52704,note_on,,,,,4,0,0,,,,,0,,,91,100
52748,note_on,,,,,44,0,0,,,,,0,,,91,0
52752,note_on,,,,,4,0,0,,,,,0,,,92,100
52796,note_on,,,,,44,0,0,,,,,0,,,92,0
52800,set_tempo,,,,,4,1,0,,1000000,,,,,,,
52800,note_on,,,,,0,0,0,,,,,0,,,100,100
52844,note_on,,,,,44,0,0,,,,,0,,,100,0
52848,note_on,,,,,4,0,0,,,,,0,,,99,100
52892,note_on,,,,,44,0,0,,,,,0,,,99,0
52896,note_on,,,,,4,0,0,,,,,0,,,97,100
52940,note_on,,,,,44,0,0,,,,,0,,,97,0
52944,note_on,,,,,4,0,0,,,,,0,,,91,100
52988,note_on,,,,,44,0,0,,,,,0,,,91,0
52992,note_on,,,,,4,0,0,,,,,0,,,92,100
53036,note_on,,,,,44,0,0,,,,,0,,,92,0
53040,set_tempo,,,,,4,1,0,,800000,,,,,,,
53040,note_on,,,,,6721,0,1,,,,,0,,,39,100
53040,note_on,,,,,0,0,0,,,,,0,,,100,120
53041,control_change,,,,,1,0,0,,,64,0,0,,,,
53042,control_change,,,,,1,0,0,,,64,127,0,,,,
53087,note_on,,,,,45,0,0,,,,,0,,,100,0
53088,note_on,,,,,1,0,0,,,,,0,,,99,100
53135,note_on,,,,,47,0,0,,,,,0,,,99,0
53136,note_on,,,,,1,0,0,,,,,0,,,97,100
53159,note_on,,,,,119,0,1,,,,,0,,,39,0
53160,note_on,,,,,1,0,1,,,,,0,,,46,100
53183,note_on,,,,,47,0,0,,,,,0,,,97,0
53184,note_on,,,,,1,0,0,,,,,0,,,93,100
53231,note_on,,,,,47,0,0,,,,,0,,,93,0
53232,note_on,,,,,1,0,0,,,,,0,,,94,100
53276,note_on,,,,,44,0,0,,,,,0,,,94,0
53279,note_on,,,,,119,0,1,,,,,0,,,46,0
53280,set_tempo,,,,,4,1,0,,666667,,,,,,,
53280,note_on,,,,,1,0,1,,,,,0,,,49,100
53280,note_on,,,,,0,0,0,,,,,0,,,100,120
53327,note_on,,,,,47,0,0,,,,,0,,,100,0
53328,note_on,,,,,1,0,0,,,,,0,,,99,100
53375,note_on,,,,,47,0,0,,,,,0,,,99,0
53376,note_on,,,,,1,0,0,,,,,0,,,97,100
53399,note_on,,,,,119,0,1,,,,,0,,,49,0
53400,note_on,,,,,1,0,1,,,,,0,,,55,100
53423,note_on,,,,,47,0,0,,,,,0,,,97,0
53424,note_on,,,,,1,0,0,,,,,0,,,93,100
53471,note_on,,,,,47,0,0,,,,,0,,,93,0
53472,note_on,,,,,1,0,0,,,,,0,,,94,100
53516,note_on,,,,,44,0,0,,,,,0,,,94,0
53519,note_on,,,,,119,0,1,,,,,0,,,55,0
53520,note_on,,,,,1,0,1,,,,,0,,,58,100
53520,note_on,,,,,4,0,0,,,,,0,,,100,120
53567,note_on,,,,,47,0,0,,,,,0,,,100,0
53568,note_on,,,,,1,0,0,,,,,0,,,99,100
53615,note_on,,,,,47,0,0,,,,,0,,,99,0
53616,note_on,,,,,1,0,0,,,,,0,,,97,100
53639,note_on,,,,,119,0,1,,,,,0,,,58,0
53640,note_on,,,,,1,0,1,,,,,0,,,61,100
53663,note_on,,,,,47,0,0,,,,,0,,,97,0
53664,note_on,,,,,1,0,0,,,,,0,,,93,100
53711,note_on,,,,,47,0,0,,,,,0,,,93,0
53712,note_on,,,,,1,0,0,,,,,0,,,94,100
53756,note_on,,,,,44,0,0,,,,,0,,,94,0
53759,note_on,,,,,119,0,1,,,,,0,,,61,0
53760,note_on,,,,,1,0,1,,,,,0,,,67,100
53760,note_on,,,,,4,0,0,,,,,0,,,101,120
53807,note_on,,,,,47,0,0,,,,,0,,,101,0
53808,note_on,,,,,1,0,0,,,,,0,,,99,100
53855,note_on,,,,,47,0,0,,,,,0,,,99,0
53856,note_on,,,,,1,0,0,,,,,0,,,97,100
53879,note_on,,,,,119,0,1,,,,,0,,,67,0
53880,note_on,,,,,1,0,1,,,,,0,,,70,100
53903,note_on,,,,,47,0,0,,,,,0,,,97,0
53904,note_on,,,,,1,0,0,,,,,0,,,93,100
53951,note_on,,,,,47,0,0,,,,,0,,,93,0
53952,note_on,,,,,1,0,0,,,,,0,,,94,100
53996,note_on,,,,,44,0,0,,,,,0,,,94,0
53999,note_on,,,,,119,0,1,,,,,0,,,70,0
54000,note_on,,,,,1,0,1,,,,,0,,,73,100
54000,note_on,,,,,4,0,0,,,,,0,,,101,120
54047,note_on,,,,,47,0,0,,,,,0,,,101,0
54048,note_on,,,,,1,0,0,,,,,0,,,99,100
54095,note_on,,,,,47,0,0,,,,,0,,,99,0
54096,note_on,,,,,1,0,0,,,,,0,,,97,100
54119,note_on,,,,,119,0,1,,,,,0,,,73,0
54120,note_on,,,,,1,0,1,,,,,0,,,79,100
54143,note_on,,,,,47,0,0,,,,,0,,,97,0
54144,note_on,,,,,1,0,0,,,,,0,,,93,100
54191,note_on,,,,,47,0,0,,,,,0,,,93,0
54192,note_on,,,,,1,0,0,,,,,0,,,94,100
54236,note_on,,,,,44,0,0,,,,,0,,,94,0
54239,note_on,,,,,119,0,1,,,,,0,,,79,0
54240,note_on,,,,,4,0,0,,,,,0,,,101,120
54240,note_on,,,,,1,0,1,,,,,0,,,82,100
54287,note_on,,,,,47,0,0,,,,,0,,,101,0
54288,note_on,,,,,1,0,0,,,,,0,,,99,100
54335,note_on,,,,,47,0,0,,,,,0,,,99,0
54336,note_on,,,,,1,0,0,,,,,0,,,97,100
54359,note_on,,,,,119,0,1,,,,,0,,,82,0
54360,note_on,,,,,1,0,1,,,,,0,,,85,100
54383,note_on,,,,,47,0,0,,,,,0,,,97,0
54384,note_on,,,,,1,0,0,,,,,0,,,93,100
54431,note_on,,,,,47,0,0,,,,,0,,,93,0
54432,note_on,,,,,1,0,0,,,,,0,,,94,100
54476,note_on,,,,,44,0,0,,,,,0,,,94,0
54479,note_on,,,,,119,0,1,,,,,0,,,85,0
54480,note_on,,,,,1,0,1,,,,,0,,,91,100
54480,note_on,,,,,4,0,0,,,,,0,,,101,120
54527,note_on,,,,,47,0,0,,,,,0,,,101,0
54528,note_on,,,,,1,0,0,,,,,0,,,99,100
54575,note_on,,,,,47,0,0,,,,,0,,,99,0
54576,note_on,,,,,1,0,0,,,,,0,,,97,100
54623,note_on,,,,,47,0,0,,,,,0,,,97,0
54624,note_on,,,,,1,0,0,,,,,0,,,93,100
54671,note_on,,,,,47,0,0,,,,,0,,,93,0
54672,note_on,,,,,1,0,0,,,,,0,,,94,100
54707,note_on,,,,,227,0,1,,,,,0,,,91,0
54716,note_on,,,,,44,0,0,,,,,0,,,94,0
54720,note_on,,,,,4,0,0,,,,,0,,,101,120
54767,note_on,,,,,47,0,0,,,,,0,,,101,0
54768,note_on,,,,,1,0,0,,,,,0,,,99,99
54815,note_on,,,,,47,0,0,,,,,0,,,99,0
54816,note_on,,,,,1,0,0,,,,,0,,,97,97
54863,note_on,,,,,47,0,0,,,,,0,,,97,0
54864,note_on,,,,,1,0,0,,,,,0,,,93,96
54911,note_on,,,,,47,0,0,,,,,0,,,93,0
54912,note_on,,,,,1,0,0,,,,,0,,,94,94
54956,note_on,,,,,44,0,0,,,,,0,,,94,0
54960,note_on,,,,,4,0,0,,,,,0,,,101,92
55007,note_on,,,,,47,0,0,,,,,0,,,101,0
55008,note_on,,,,,1,0,0,,,,,0,,,99,91
55055,note_on,,,,,47,0,0,,,,,0,,,99,0
55056,note_on,,,,,1,0,0,,,,,0,,,97,89
55103,note_on,,,,,47,0,0,,,,,0,,,97,0
55104,note_on,,,,,1,0,0,,,,,0,,,93,88
55151,note_on,,,,,47,0,0,,,,,0,,,93,0
55152,note_on,,,,,1,0,0,,,,,0,,,94,86
55196,note_on,,,,,44,0,0,,,,,0,,,94,0
55200,note_on,,,,,4,0,0,,,,,0,,,101,84
55247,note_on,,,,,47,0,0,,,,,0,,,101,0
55248,note_on,,,,,1,0,0,,,,,0,,,99,83
55295,note_on,,,,,47,0,0,,,,,0,,,99,0
55296,note_on,,,,,1,0,0,,,,,0,,,97,81
55343,note_on,,,,,47,0,0,,,,,0,,,97,0
55344,note_on,,,,,1,0,0,,,,,0,,,93,80
55391,note_on,,,,,47,0,0,,,,,0,,,93,0
55392,note_on,,,,,1,0,0,,,,,0,,,94,78
55436,note_on,,,,,44,0,0,,,,,0,,,94,0
55440,note_on,,,,,4,0,0,,,,,0,,,97,76
55487,note_on,,,,,47,0,0,,,,,0,,,97,0
55488,note_on,,,,,1,0,0,,,,,0,,,96,75
55535,note_on,,,,,47,0,0,,,,,0,,,96,0
55536,note_on,,,,,1,0,0,,,,,0,,,94,73
55583,note_on,,,,,47,0,0,,,,,0,,,94,0
55584,note_on,,,,,1,0,0,,,,,0,,,90,72
55631,note_on,,,,,47,0,0,,,,,0,,,90,0
55632,note_on,,,,,1,0,0,,,,,0,,,91,70
55676,note_on,,,,,44,0,0,,,,,0,,,91,0
55680,note_on,,,,,4,0,0,,,,,0,,,94,68
55727,note_on,,,,,47,0,0,,,,,0,,,94,0
55728,note_on,,,,,1,0,0,,,,,0,,,92,67
55775,note_on,,,,,47,0,0,,,,,0,,,92,0
55776,note_on,,,,,1,0,0,,,,,0,,,91,65
55823,note_on,,,,,47,0,0,,,,,0,,,91,0
55824,note_on,,,,,1,0,0,,,,,0,,,86,64
55871,note_on,,,,,47,0,0,,,,,0,,,86,0
55872,note_on,,,,,1,0,0,,,,,0,,,87,62
55916,note_on,,,,,44,0,0,,,,,0,,,87,0
55920,note_on,,,,,4,0,0,,,,,0,,,91,60
55967,note_on,,,,,47,0,0,,,,,0,,,91,0
55968,note_on,,,,,1,0,0,,,,,0,,,89,60
56015,note_on,,,,,47,0,0,,,,,0,,,89,0
56016,note_on,,,,,1,0,0,,,,,0,,,87,60
56063,note_on,,,,,47,0,0,,,,,0,,,87,0
56064,note_on,,,,,1,0,0,,,,,0,,,84,60
56111,note_on,,,,,47,0,0,,,,,0,,,84,0
56112,note_on,,,,,1,0,0,,,,,0,,,85,60
56156,note_on,,,,,44,0,0,,,,,0,,,85,0
56160,note_on,,,,,4,0,0,,,,,0,,,89,60
56207,note_on,,,,,47,0,0,,,,,0,,,89,0
56208,note_on,,,,,1,0,0,,,,,0,,,87,60
56255,note_on,,,,,47,0,0,,,,,0,,,87,0
56256,note_on,,,,,1,0,0,,,,,0,,,85,60
56303,note_on,,,,,47,0,0,,,,,0,,,85,0
56304,note_on,,,,,1,0,0,,,,,0,,,81,60
56351,note_on,,,,,47,0,0,,,,,0,,,81,0
56352,note_on,,,,,1,0,0,,,,,0,,,82,60
56396,note_on,,,,,44,0,0,,,,,0,,,82,0
56400,note_on,,,,,4,0,0,,,,,0,,,85,60
56447,note_on,,,,,47,0,0,,,,,0,,,85,0
56448,note_on,,,,,1,0,0,,,,,0,,,84,60
56495,note_on,,,,,47,0,0,,,,,0,,,84,0
56496,note_on,,,,,1,0,0,,,,,0,,,82,60
56543,note_on,,,,,47,0,0,,,,,0,,,82,0
56544,note_on,,,,,1,0,0,,,,,0,,,78,60
56591,note_on,,,,,47,0,0,,,,,0,,,78,0
56592,note_on,,,,,1,0,0,,,,,0,,,79,60
56636,note_on,,,,,44,0,0,,,,,0,,,79,0
56640,note_on,,,,,4,0,0,,,,,0,,,82,60
56641,control_change,,,,,1,0,0,,,64,0,0,,,,
56687,note_on,,,,,46,0,0,,,,,0,,,82,0
56688,note_on,,,,,1,0,0,,,,,0,,,80,60
56735,note_on,,,,,47,0,0,,,,,0,,,80,0
56736,note_on,,,,,1,0,0,,,,,0,,,79,60
56783,note_on,,,,,47,0,0,,,,,0,,,79,0
56784,note_on,,,,,1,0,0,,,,,0,,,74,60
56831,note_on,,,,,47,0,0,,,,,0,,,74,0
56832,note_on,,,,,1,0,0,,,,,0,,,75,60
56876,note_on,,,,,44,0,0,,,,,0,,,75,0
56880,note_on,,,,,4,0,0,,,,,0,,,79,60
56927,note_on,,,,,47,0,0,,,,,0,,,79,0
56928,note_on,,,,,1,0,0,,,,,0,,,77,60
56975,note_on,,,,,47,0,0,,,,,0,,,77,0
56976,note_on,,,,,1,0,0,,,,,0,,,75,60
57023,note_on,,,,,47,0,0,,,,,0,,,75,0
57024,note_on,,,,,1,0,0,,,,,0,,,72,60
57071,note_on,,,,,47,0,0,,,,,0,,,72,0
57072,note_on,,,,,1,0,0,,,,,0,,,73,60
57116,note_on,,,,,44,0,0,,,,,0,,,73,0
57120,note_on,,,,,4,0,0,,,,,0,,,77,60
57167,note_on,,,,,47,0,0,,,,,0,,,77,0
57168,note_on,,,,,1,0,0,,,,,0,,,75,60
57215,note_on,,,,,47,0,0,,,,,0,,,75,0
57216,note_on,,,,,1,0,0,,,,,0,,,73,60
57263,note_on,,,,,47,0,0,,,,,0,,,73,0
57264,note_on,,,,,1,0,0,,,,,0,,,69,60
57311,note_on,,,,,47,0,0,,,,,0,,,69,0
57312,note_on,,,,,1,0,0,,,,,0,,,70,60
57356,note_on,,,,,44,0,0,,,,,0,,,70,0
57360,note_on,,,,,4,0,0,,,,,0,,,73,60
57407,note_on,,,,,47,0,0,,,,,0,,,73,0
57408,note_on,,,,,1,0,0,,,,,0,,,72,60
57455,note_on,,,,,47,0,0,,,,,0,,,72,0
57456,note_on,,,,,1,0,0,,,,,0,,,70,60
57503,note_on,,,,,47,0,0,,,,,0,,,70,0
57504,note_on,,,,,1,0,0,,,,,0,,,66,60
57551,note_on,,,,,47,0,0,,,,,0,,,66,0
57552,note_on,,,,,1,0,0,,,,,0,,,67,60
57596,note_on,,,,,44,0,0,,,,,0,,,67,0
57600,note_on,,,,,4,0,0,,,,,0,,,70,60
57647,note_on,,,,,47,0,0,,,,,0,,,70,0
57648,note_on,,,,,1,0,0,,,,,0,,,69,60
57695,note_on,,,,,47,0,0,,,,,0,,,69,0
57696,note_on,,,,,1,0,0,,,,,0,,,67,60
57743,note_on,,,,,47,0,0,,,,,0,,,67,0
57744,note_on,,,,,1,0,0,,,,,0,,,62,60
57791,note_on,,,,,47,0,0,,,,,0,,,62,0
57792,note_on,,,,,1,0,0,,,,,0,,,63,60
57836,note_on,,,,,44,0,0,,,,,0,,,63,0
57840,note_on,,,,,0,0,0,,,,,0,,,67,50
57840,time_signature,7,4,24,8,4,1,0,,,,,,,,,
57842,control_change,,,,,2,0,0,,,64,127,0,,,,
57887,note_on,,,,,45,0,0,,,,,0,,,67,0
57888,note_on,,,,,1,0,0,,,,,0,,,65,50
57935,note_on,,,,,47,0,0,,,,,0,,,65,0
57936,note_on,,,,,1,0,0,,,,,0,,,64,50
57983,note_on,,,,,47,0,0,,,,,0,,,64,0
57984,note_on,,,,,1,0,0,,,,,0,,,62,50
58031,note_on,,,,,47,0,0,,,,,0,,,62,0
58032,note_on,,,,,1,0,0,,,,,0,,,63,50
58076,note_on,,,,,44,0,0,,,,,0,,,63,0
58080,note_on,,,,,4,0,0,,,,,0,,,67,50
58127,note_on,,,,,47,0,0,,,,,0,,,67,0
58128,note_on,,,,,1,0,0,,,,,0,,,65,50
58175,note_on,,,,,47,0,0,,,,,0,,,65,0
58176,note_on,,,,,1,0,0,,,,,0,,,64,50
58223,note_on,,,,,47,0,0,,,,,0,,,64,0
58224,note_on,,,,,1,0,0,,,,,0,,,62,50
58271,note_on,,,,,47,0,0,,,,,0,,,62,0
58272,note_on,,,,,1,0,0,,,,,0,,,63,50
58316,note_on,,,,,44,0,0,,,,,0,,,63,0
58320,note_on,,,,,4,0,0,,,,,0,,,67,50
58367,note_on,,,,,47,0,0,,,,,0,,,67,0
58368,note_on,,,,,1,0,0,,,,,0,,,65,50
58415,note_on,,,,,47,0,0,,,,,0,,,65,0
58416,note_on,,,,,1,0,0,,,,,0,,,64,50
58463,note_on,,,,,47,0,0,,,,,0,,,64,0
58464,note_on,,,,,1,0,0,,,,,0,,,62,50
58511,note_on,,,,,47,0,0,,,,,0,,,62,0
58512,note_on,,,,,1,0,0,,,,,0,,,63,50
58556,note_on,,,,,44,0,0,,,,,0,,,63,0
58560,set_tempo,,,,,4,1,0,,800000,,,,,,,
58560,note_on,,,,,0,0,0,,,,,0,,,67,50
58599,note_on,,,,,39,0,0,,,,,0,,,67,0
58600,note_on,,,,,1,0,0,,,,,0,,,65,50
58639,note_on,,,,,39,0,0,,,,,0,,,65,0
58640,note_on,,,,,1,0,0,,,,,0,,,64,50
58679,note_on,,,,,39,0,0,,,,,0,,,64,0
58680,note_on,,,,,1,0,0,,,,,0,,,62,50
58719,note_on,,,,,39,0,0,,,,,0,,,62,0
58720,note_on,,,,,1,0,0,,,,,0,,,63,50
58759,note_on,,,,,39,0,0,,,,,0,,,63,0
58760,note_on,,,,,1,0,0,,,,,0,,,67,50
58799,note_on,,,,,39,0,0,,,,,0,,,67,0
58800,note_on,,,,,1,0,0,,,,,0,,,70,50
58839,note_on,,,,,39,0,0,,,,,0,,,70,0
58840,note_on,,,,,1,0,0,,,,,0,,,73,50
58879,note_on,,,,,39,0,0,,,,,0,,,73,0
58880,note_on,,,,,1,0,0,,,,,0,,,75,50
58919,note_on,,,,,39,0,0,,,,,0,,,75,0
58920,note_on,,,,,1,0,0,,,,,0,,,79,50
58959,note_on,,,,,39,0,0,,,,,0,,,79,0
58960,note_on,,,,,1,0,0,,,,,0,,,82,50
58999,note_on,,,,,39,0,0,,,,,0,,,82,0
59000,note_on,,,,,1,0,0,,,,,0,,,85,50
59039,note_on,,,,,39,0,0,,,,,0,,,85,0
59040,note_on,,,,,0,0,0,,,,,0,,,89,50
59040,set_tempo,,,,,1,1,0,,1499999,,,,,,,
59159,note_on,,,,,119,0,0,,,,,0,,,89,0
59280,note_on,,,,,4573,0,1,,,,,0,,,63,50
59343,note_on,,,,,63,0,1,,,,,0,,,70,50
59400,set_tempo,,,,,241,1,0,,2000000,,,,,,,
59400,note_on,,,,,0,0,0,,,,,0,,,87,50
59407,note_on,,,,,64,0,1,,,,,0,,,73,50
59472,note_on,,,,,65,0,1,,,,,0,,,79,50
59519,note_on,,,,,119,0,0,,,,,0,,,87,0
59520,note_on,,,,,0,0,0,,,,,0,,,81,50
59520,set_tempo,,,,,1,1,0,,3000003,,,,,,,
59639,note_on,,,,,119,0,0,,,,,0,,,81,0
59640,note_on,,,,,1,0,0,,,,,0,,,82,50
59753,note_on,,,,,113,0,0,,,,,0,,,82,0
59758,note_on,,,,,0,0,1,,,,,0,,,73,0
59758,note_on,,,,,286,0,1,,,,,0,,,70,0
59759,note_on,,,,,0,0,1,,,,,0,,,79,0
59759,note_on,,,,,1,0,1,,,,,0,,,63,0
60000,set_tempo,,,,,247,1,0,,800000,,,,,,,
60000,note_on,,,,,0,0,0,,,,,0,,,62,42
60001,control_change,,,,,1,0,0,,,64,0,0,,,,
60002,control_change,,,,,1,0,0,,,64,127,0,,,,
60073,note_on,,,,,71,0,0,,,,,0,,,62,0
60074,note_on,,,,,1,0,0,,,,,0,,,63,42
60147,note_on,,,,,73,0,0,,,,,0,,,63,0
60148,note_on,,,,,1,0,0,,,,,0,,,67,42
60221,note_on,,,,,73,0,0,,,,,0,,,67,0
60222,note_on,,,,,1,0,0,,,,,0,,,71,42
60295,note_on,,,,,73,0,0,,,,,0,,,71,0
60296,note_on,,,,,1,0,0,,,,,0,,,73,42
60332,note_on,,,,,36,0,0,,,,,0,,,73,0
60333,note_on,,,,,1,0,0,,,,,0,,,75,42
60369,note_on,,,,,36,0,0,,,,,0,,,75,0
60370,note_on,,,,,1,0,0,,,,,0,,,79,42
60406,note_on,,,,,36,0,0,,,,,0,,,79,0
60407,note_on,,,,,1,0,0,,,,,0,,,83,42
60443,note_on,,,,,36,0,0,,,,,0,,,83,0
60444,note_on,,,,,1,0,0,,,,,0,,,85,42
60480,note_on,,,,,0,0,0,,,,,0,,,85,0
60480,set_tempo,,,,,36,1,0,,1499999,,,,,,,
60480,note_on,,,,,0,0,0,,,,,0,,,89,42
60599,note_on,,,,,119,0,0,,,,,0,,,89,0
60720,note_on,,,,,961,0,1,,,,,0,,,63,42
60783,note_on,,,,,63,0,1,,,,,0,,,71,42
60840,set_tempo,,,,,241,1,0,,2000000,,,,,,,
60840,note_on,,,,,0,0,0,,,,,0,,,87,42
60847,note_on,,,,,64,0,1,,,,,0,,,73,42
60912,note_on,,,,,65,0,1,,,,,0,,,79,42
60959,note_on,,,,,119,0,0,,,,,0,,,87,0
60960,note_on,,,,,0,0,0,,,,,0,,,82,42
60960,set_tempo,,,,,1,1,0,,3000003,,,,,,,
61079,note_on,,,,,119,0,0,,,,,0,,,82,0
61080,note_on,,,,,1,0,0,,,,,0,,,83,42
61193,note_on,,,,,113,0,0,,,,,0,,,83,0
61198,note_on,,,,,0,0,1,,,,,0,,,73,0
61198,note_on,,,,,286,0,1,,,,,0,,,71,0
61199,note_on,,,,,1,0,1,,,,,0,,,63,0
61199,note_on,,,,,0,0,1,,,,,0,,,79,0
61200,time_signature,9,8,24,8,7,1,0,,,,,,,,,
61200,set_tempo,,,,,0,1,0,,1000000,,,,,,,
63121,control_change,,,,,1921,0,0,,,64,0,0,,,,
63360,set_tempo,,,,,0,1,0,,1499999,,,,,,,
63360,note_on,,,,,0,0,0,,,,,0,,,75,80
63360,time_signature,3,8,24,8,239,1,0,,,,,,,,,
63379,note_on,,,,,19,0,0,,,,,0,,,75,0
63380,note_on,,,,,1,0,0,,,,,0,,,75,80
63404,note_on,,,,,24,0,0,,,,,0,,,75,0
63408,note_on,,,,,4,0,0,,,,,0,,,77,80
63452,note_on,,,,,44,0,0,,,,,0,,,77,0
63456,note_on,,,,,4,0,0,,,,,0,,,75,80
63500,note_on,,,,,44,0,0,,,,,0,,,75,0
63504,note_on,,,,,4,0,0,,,,,0,,,74,80
63548,note_on,,,,,44,0,0,,,,,0,,,74,0
63552,note_on,,,,,4,0,0,,,,,0,,,75,80
63596,note_on,,,,,44,0,0,,,,,0,,,75,0
63600,note_on,,,,,4,0,0,,,,,0,,,84,80
63719,note_on,,,,,119,0,0,,,,,0,,,84,0
63840,note_on,,,,,0,0,0,,,,,0,,,79,80
63840,set_tempo,,,,,121,1,0,,666667,,,,,,,
63959,note_on,,,,,119,0,0,,,,,0,,,79,0
64080,time_signature,6,4,24,8,121,1,0,,,,,,,,,
64080,note_on,,,,,2881,0,1,,,,,0,,,44,80
64082,control_change,,,,,2,0,0,,,64,127,0,,,,
64319,note_on,,,,,239,0,1,,,,,0,,,44,0
64320,note_on,,,,,238,0,0,,,,,0,,,82,96
64320,note_on,,,,,1,0,1,,,,,0,,,51,80
64383,note_on,,,,,63,0,1,,,,,0,,,60,80
64558,note_on,,,,,175,0,1,,,,,0,,,60,0
64559,note_on,,,,,1,0,1,,,,,0,,,51,0
64560,note_on,,,,,1,0,1,,,,,0,,,56,80
64560,note_on,,,,,0,0,1,,,,,0,,,63,80
64799,note_on,,,,,0,0,1,,,,,0,,,63,0
64799,note_on,,,,,479,0,0,,,,,0,,,82,0
64799,note_on,,,,,239,0,1,,,,,0,,,56,0
64800,note_on,,,,,1,0,1,,,,,0,,,60,80
64800,note_on,,,,,0,0,1,,,,,0,,,68,80
64800,note_on,,,,,1,0,0,,,,,0,,,80,80
65027,note_on,,,,,0,0,1,,,,,0,,,68,0
65027,note_on,,,,,227,0,1,,,,,0,,,60,0
65039,note_on,,,,,239,0,0,,,,,0,,,80,0
65040,note_on,,,,,1,0,0,,,,,0,,,72,80
65279,note_on,,,,,239,0,0,,,,,0,,,72,0
65280,note_on,,,,,1,0,0,,,,,0,,,73,80
65507,note_on,,,,,227,0,0,,,,,0,,,73,0
65520,note_on,,,,,493,0,1,,,,,0,,,44,80
65759,note_on,,,,,239,0,1,,,,,0,,,44,0
65760,note_on,,,,,253,0,0,,,,,0,,,77,96
65760,note_on,,,,,1,0,1,,,,,0,,,51,80
65823,note_on,,,,,63,0,1,,,,,0,,,60,80
65998,note_on,,,,,175,0,1,,,,,0,,,60,0
65999,note_on,,,,,1,0,1,,,,,0,,,51,0
66000,note_on,,,,,0,0,1,,,,,0,,,63,80
66000,note_on,,,,,1,0,1,,,,,0,,,56,80
66239,note_on,,,,,0,0,1,,,,,0,,,63,0
66239,note_on,,,,,239,0,1,,,,,0,,,56,0
66239,note_on,,,,,479,0,0,,,,,0,,,77,0
66240,note_on,,,,,1,0,1,,,,,0,,,60,80
66240,note_on,,,,,0,0,1,,,,,0,,,68,80
66240,note_on,,,,,1,0,0,,,,,0,,,75,80
66467,note_on,,,,,227,0,1,,,,,0,,,60,0
66467,note_on,,,,,0,0,1,,,,,0,,,68,0
66479,note_on,,,,,239,0,0,,,,,0,,,75,0
66480,note_on,,,,,1,0,0,,,,,0,,,73,80
66719,note_on,,,,,239,0,0,,,,,0,,,73,0
66720,note_on,,,,,1,0,0,,,,,0,,,72,80
66947,note_on,,,,,227,0,0,,,,,0,,,72,0
66960,note_on,,,,,493,0,1,,,,,0,,,44,80
66960,time_signature,15,8,24,8,13,1,0,,,,,,,,,
66961,control_change,,,,,1,0,0,,,64,0,0,,,,
66962,control_change,,,,,1,0,0,,,64,127,0,,,,
67187,note_on,,,,,227,0,1,,,,,0,,,44,0
67200,note_on,,,,,238,0,0,,,,,0,,,72,96
67200,note_on,,,,,0,0,1,,,,,0,,,62,80
67200,note_on,,,,,13,0,1,,,,,0,,,53,80
67427,note_on,,,,,227,0,1,,,,,0,,,53,0
67427,note_on,,,,,0,0,1,,,,,0,,,62,0
67440,note_on,,,,,0,0,1,,,,,0,,,65,80
67440,note_on,,,,,13,0,1,,,,,0,,,56,80
67667,note_on,,,,,0,0,1,,,,,0,,,65,0
67667,note_on,,,,,227,0,1,,,,,0,,,56,0
67679,note_on,,,,,479,0,0,,,,,0,,,72,0
67680,note_on,,,,,0,0,1,,,,,0,,,70,80
67680,note_on,,,,,1,0,0,,,,,0,,,70,80
67680,note_on,,,,,13,0,1,,,,,0,,,62,80
67907,note_on,,,,,227,0,1,,,,,0,,,62,0
67907,note_on,,,,,0,0,1,,,,,0,,,70,0
67919,note_on,,,,,239,0,0,,,,,0,,,70,0
67920,note_on,,,,,1,0,0,,,,,0,,,69,80
68159,note_on,,,,,239,0,0,,,,,0,,,69,0
68160,note_on,,,,,1,0,0,,,,,0,,,70,80
68399,note_on,,,,,239,0,0,,,,,0,,,70,0
68400,note_on,,,,,1,0,0,,,,,0,,,69,80
68479,note_on,,,,,79,0,0,,,,,0,,,69,0
68480,note_on,,,,,1,0,0,,,,,0,,,70,80
68559,note_on,,,,,79,0,0,,,,,0,,,70,0
68560,note_on,,,,,1,0,0,,,,,0,,,72,80
68639,note_on,,,,,79,0,0,,,,,0,,,72,0
68640,note_on,,,,,1,0,0,,,,,0,,,70,80
68698,note_on,,,,,58,0,0,,,,,0,,,70,0
68699,note_on,,,,,1,0,0,,,,,0,,,72,80
68757,note_on,,,,,58,0,0,,,,,0,,,72,0
68760,note_on,,,,,3,0,0,,,,,0,,,70,80
68818,note_on,,,,,58,0,0,,,,,0,,,70,0
68819,note_on,,,,,1,0,0,,,,,0,,,72,80
68877,note_on,,,,,58,0,0,,,,,0,,,72,0
68880,note_on,,,,,3,0,0,,,,,0,,,70,80
68938,note_on,,,,,58,0,0,,,,,0,,,70,0
68939,note_on,,,,,1,0,0,,,,,0,,,72,80
68997,note_on,,,,,58,0,0,,,,,0,,,72,0
69000,note_on,,,,,3,0,0,,,,,0,,,70,80
69058,note_on,,,,,58,0,0,,,,,0,,,70,0
69059,note_on,,,,,1,0,0,,,,,0,,,72,80
69117,note_on,,,,,58,0,0,,,,,0,,,72,0
69120,note_on,,,,,3,0,0,,,,,0,,,70,80
69178,note_on,,,,,58,0,0,,,,,0,,,70,0
69179,note_on,,,,,1,0,0,,,,,0,,,72,80
69237,note_on,,,,,58,0,0,,,,,0,,,72,0
69240,note_on,,,,,3,0,0,,,,,0,,,70,80
69298,note_on,,,,,58,0,0,,,,,0,,,70,0
69299,note_on,,,,,1,0,0,,,,,0,,,72,80
69357,note_on,,,,,58,0,0,,,,,0,,,72,0
69360,note_on,,,,,3,0,0,,,,,0,,,70,80
69418,note_on,,,,,58,0,0,,,,,0,,,70,0
69419,note_on,,,,,1,0,0,,,,,0,,,72,80
69477,note_on,,,,,58,0,0,,,,,0,,,72,0
69480,note_on,,,,,3,0,0,,,,,0,,,70,80
69538,note_on,,,,,58,0,0,,,,,0,,,70,0
69539,note_on,,,,,1,0,0,,,,,0,,,72,80
69597,note_on,,,,,58,0,0,,,,,0,,,72,0
69600,note_on,,,,,0,0,0,,,,,0,,,69,80
69600,set_tempo,,,,,3,1,0,,545456,,,,,,,
69679,note_on,,,,,79,0,0,,,,,0,,,69,0
69680,note_on,,,,,1,0,0,,,,,0,,,70,80
69759,note_on,,,,,79,0,0,,,,,0,,,70,0
69760,note_on,,,,,1,0,0,,,,,0,,,73,80
69839,note_on,,,,,79,0,0,,,,,0,,,73,0
69840,note_on,,,,,1,0,0,,,,,0,,,74,80
69919,note_on,,,,,79,0,0,,,,,0,,,74,0
69920,note_on,,,,,1,0,0,,,,,0,,,76,80
69999,note_on,,,,,79,0,0,,,,,0,,,76,0
70000,note_on,,,,,1,0,0,,,,,0,,,77,80
70079,note_on,,,,,79,0,0,,,,,0,,,77,0
70080,note_on,,,,,1,0,0,,,,,0,,,79,80
70159,note_on,,,,,79,0,0,,,,,0,,,79,0
70160,note_on,,,,,1,0,0,,,,,0,,,80,80
70239,note_on,,,,,79,0,0,,,,,0,,,80,0
70240,note_on,,,,,1,0,0,,,,,0,,,81,80
70319,note_on,,,,,79,0,0,,,,,0,,,81,0
70320,note_on,,,,,1,0,0,,,,,0,,,82,80
70399,note_on,,,,,79,0,0,,,,,0,,,82,0
70400,note_on,,,,,1,0,0,,,,,0,,,85,80
70479,note_on,,,,,79,0,0,,,,,0,,,85,0
70480,note_on,,,,,1,0,0,,,,,0,,,86,80
70555,note_on,,,,,75,0,0,,,,,0,,,86,0
70560,set_tempo,,,,,0,1,0,,666667,,,,,,,
70560,note_on,,,,,2653,0,1,,,,,0,,,44,80
70560,time_signature,6,4,24,8,5,1,0,,,,,,,,,
70561,control_change,,,,,1,0,0,,,64,0,0,,,,
70562,control_change,,,,,1,0,0,,,64,127,0,,,,
70799,note_on,,,,,239,0,1,,,,,0,,,44,0
70800,note_on,,,,,238,0,0,,,,,0,,,89,96
70800,note_on,,,,,1,0,1,,,,,0,,,51,80
70863,note_on,,,,,63,0,1,,,,,0,,,61,80
71038,note_on,,,,,175,0,1,,,,,0,,,61,0
71039,note_on,,,,,1,0,1,,,,,0,,,51,0
71040,note_on,,,,,1,0,1,,,,,0,,,56,80
71040,note_on,,,,,0,0,1,,,,,0,,,63,80
71279,note_on,,,,,239,0,1,,,,,0,,,56,0
71279,note_on,,,,,479,0,0,,,,,0,,,89,0
71279,note_on,,,,,0,0,1,,,,,0,,,63,0
71280,note_on,,,,,1,0,0,,,,,0,,,87,80
71280,note_on,,,,,1,0,1,,,,,0,,,61,80
71280,note_on,,,,,0,0,1,,,,,0,,,70,80
71507,note_on,,,,,227,0,1,,,,,0,,,61,0
71507,note_on,,,,,0,0,1,,,,,0,,,70,0
71519,note_on,,,,,239,0,0,,,,,0,,,87,0
71520,note_on,,,,,1,0,0,,,,,0,,,85,80
71759,note_on,,,,,239,0,0,,,,,0,,,85,0
71760,note_on,,,,,1,0,0,,,,,0,,,82,80
71987,note_on,,,,,227,0,0,,,,,0,,,82,0
72000,note_on,,,,,493,0,1,,,,,0,,,44,80
72239,note_on,,,,,239,0,1,,,,,0,,,44,0
72240,note_on,,,,,253,0,0,,,,,0,,,77,96
72240,note_on,,,,,1,0,1,,,,,0,,,51,80
72303,note_on,,,,,63,0,1,,,,,0,,,61,80
72478,note_on,,,,,175,0,1,,,,,0,,,61,0
72479,note_on,,,,,1,0,1,,,,,0,,,51,0
72480,note_on,,,,,0,0,1,,,,,0,,,63,80
72480,note_on,,,,,1,0,1,,,,,0,,,55,80
72719,note_on,,,,,0,0,1,,,,,0,,,63,0
72719,note_on,,,,,479,0,0,,,,,0,,,77,0
72719,note_on,,,,,239,0,1,,,,,0,,,55,0
72720,note_on,,,,,1,0,1,,,,,0,,,61,80
72720,note_on,,,,,1,0,0,,,,,0,,,75,80
72720,note_on,,,,,0,0,1,,,,,0,,,67,80
72947,note_on,,,,,227,0,1,,,,,0,,,61,0
72947,note_on,,,,,0,0,1,,,,,0,,,67,0
72959,note_on,,,,,239,0,0,,,,,0,,,75,0
72960,note_on,,,,,1,0,0,,,,,0,,,73,80
73199,note_on,,,,,239,0,0,,,,,0,,,73,0
73200,note_on,,,,,1,0,0,,,,,0,,,70,80
73427,note_on,,,,,227,0,0,,,,,0,,,70,0
73440,note_on,,,,,13,0,0,,,,,0,,,67,80
73440,note_on,,,,,493,0,1,,,,,0,,,44,80
73441,control_change,,,,,1,0,0,,,64,0,0,,,,
73442,control_change,,,,,1,0,0,,,64,127,0,,,,
73667,note_on,,,,,225,0,0,,,,,0,,,67,0
73667,note_on,,,,,227,0,1,,,,,0,,,44,0
73680,note_on,,,,,13,0,1,,,,,0,,,51,80
73680,note_on,,,,,0,0,1,,,,,0,,,60,80
73680,note_on,,,,,13,0,0,,,,,0,,,68,80
73907,note_on,,,,,0,0,1,,,,,0,,,60,0
73907,note_on,,,,,227,0,0,,,,,0,,,68,0
73907,note_on,,,,,227,0,1,,,,,0,,,51,0
73920,note_on,,,,,13,0,1,,,,,0,,,56,80
73920,note_on,,,,,13,0,0,,,,,0,,,72,80
73920,note_on,,,,,0,0,1,,,,,0,,,63,80
74147,note_on,,,,,0,0,1,,,,,0,,,63,0
74147,note_on,,,,,227,0,1,,,,,0,,,56,0
74147,note_on,,,,,227,0,0,,,,,0,,,72,0
74160,note_on,,,,,0,0,1,,,,,0,,,68,80
74160,note_on,,,,,13,0,0,,,,,0,,,75,80
74160,note_on,,,,,13,0,1,,,,,0,,,60,80
74387,note_on,,,,,227,0,0,,,,,0,,,75,0
74387,note_on,,,,,0,0,1,,,,,0,,,68,0
74387,note_on,,,,,227,0,1,,,,,0,,,60,0
74400,note_on,,,,,13,0,0,,,,,0,,,79,80
74513,note_on,,,,,113,0,0,,,,,0,,,79,0
74520,note_on,,,,,7,0,0,,,,,0,,,80,80
74633,note_on,,,,,113,0,0,,,,,0,,,80,0
74640,note_on,,,,,7,0,0,,,,,0,,,84,80
74719,note_on,,,,,79,0,0,,,,,0,,,84,0
74720,note_on,,,,,1,0,0,,,,,0,,,87,80
74799,note_on,,,,,79,0,0,,,,,0,,,87,0
74800,note_on,,,,,1,0,0,,,,,0,,,96,80
74875,note_on,,,,,75,0,0,,,,,0,,,96,0
74880,note_on,,,,,5,0,0,,,,,0,,,92,80
75120,note_on,,,,,0,0,1,,,,,0,,,68,80
75120,note_on,,,,,733,0,1,,,,,0,,,60,80
75335,note_on,,,,,455,0,0,,,,,0,,,92,0
75359,note_on,,,,,0,0,1,,,,,0,,,68,0
75359,note_on,,,,,239,0,1,,,,,0,,,60,0
75360,note_on,,,,,0,0,1,,,,,0,,,72,80
75360,note_on,,,,,1,0,1,,,,,0,,,63,80
75599,note_on,,,,,239,0,1,,,,,0,,,63,0
75599,note_on,,,,,0,0,1,,,,,0,,,72,0
75600,note_on,,,,,0,0,1,,,,,0,,,75,80
75600,note_on,,,,,1,0,1,,,,,0,,,68,80
75713,note_on,,,,,113,0,1,,,,,0,,,68,0
75713,note_on,,,,,0,0,1,,,,,0,,,75,0
75720,note_on,,,,,0,0,0,,,,,0,,,75,80
75720,set_tempo,,,,,385,1,0,,2000000,,,,,,,
75741,note_on,,,,,21,0,0,,,,,0,,,75,0
75744,note_on,,,,,3,0,0,,,,,0,,,77,80
75765,note_on,,,,,21,0,0,,,,,0,,,77,0
75768,note_on,,,,,3,0,0,,,,,0,,,75,80
75789,note_on,,,,,21,0,0,,,,,0,,,75,0
75792,note_on,,,,,3,0,0,,,,,0,,,74,80
75813,note_on,,,,,21,0,0,,,,,0,,,74,0
75816,note_on,,,,,3,0,0,,,,,0,,,75,80
75837,note_on,,,,,21,0,0,,,,,0,,,75,0
75840,set_tempo,,,,,3,1,0,,1000000,,,,,,,
75840,note_on,,,,,0,0,0,,,,,0,,,84,80
75959,note_on,,,,,119,0,0,,,,,0,,,84,0
76080,set_tempo,,,,,121,1,0,,666667,,,,,,,
76080,note_on,,,,,0,0,0,,,,,0,,,79,80
76199,note_on,,,,,119,0,0,,,,,0,,,79,0
76320,note_on,,,,,607,0,1,,,,,0,,,44,80
76321,control_change,,,,,122,0,0,,,64,0,0,,,,
76322,control_change,,,,,1,0,0,,,64,127,0,,,,
76547,note_on,,,,,227,0,1,,,,,0,,,44,0
76560,note_on,,,,,13,0,1,,,,,0,,,51,80
76560,note_on,,,,,0,0,1,,,,,0,,,60,80
76560,note_on,,,,,238,0,0,,,,,0,,,82,96
76787,note_on,,,,,0,0,1,,,,,0,,,60,0
76787,note_on,,,,,227,0,1,,,,,0,,,51,0
76800,note_on,,,,,13,0,1,,,,,0,,,56,80
76800,note_on,,,,,0,0,1,,,,,0,,,63,80
77027,note_on,,,,,227,0,1,,,,,0,,,56,0
77027,note_on,,,,,0,0,1,,,,,0,,,63,0
77039,note_on,,,,,479,0,0,,,,,0,,,82,0
77040,note_on,,,,,0,0,1,,,,,0,,,68,80
77040,note_on,,,,,1,0,0,,,,,0,,,80,80
77040,note_on,,,,,13,0,1,,,,,0,,,60,80
77267,note_on,,,,,0,0,1,,,,,0,,,68,0
77267,note_on,,,,,227,0,1,,,,,0,,,60,0
77279,note_on,,,,,239,0,0,,,,,0,,,80,0
77280,note_on,,,,,1,0,0,,,,,0,,,72,80
77519,note_on,,,,,239,0,0,,,,,0,,,72,0
77520,note_on,,,,,1,0,0,,,,,0,,,73,80
77747,note_on,,,,,227,0,0,,,,,0,,,73,0
77760,note_on,,,,,493,0,1,,,,,0,,,44,80
77987,note_on,,,,,227,0,1,,,,,0,,,44,0
78000,note_on,,,,,253,0,0,,,,,0,,,77,96
78000,note_on,,,,,0,0,1,,,,,0,,,60,80
78000,note_on,,,,,13,0,1,,,,,0,,,51,80
78227,note_on,,,,,227,0,1,,,,,0,,,51,0
78227,note_on,,,,,0,0,1,,,,,0,,,60,0
78240,note_on,,,,,0,0,1,,,,,0,,,63,80
78240,note_on,,,,,13,0,1,,,,,0,,,56,80
78467,note_on,,,,,0,0,1,,,,,0,,,63,0
78467,note_on,,,,,227,0,1,,,,,0,,,56,0
78479,note_on,,,,,479,0,0,,,,,0,,,77,0
78480,note_on,,,,,0,0,1,,,,,0,,,68,80
78480,note_on,,,,,13,0,1,,,,,0,,,60,80
78480,note_on,,,,,1,0,0,,,,,0,,,75,80
78707,note_on,,,,,0,0,1,,,,,0,,,68,0
78707,note_on,,,,,227,0,1,,,,,0,,,60,0
78719,note_on,,,,,239,0,0,,,,,0,,,75,0
78720,note_on,,,,,1,0,0,,,,,0,,,73,80
78959,note_on,,,,,239,0,0,,,,,0,,,73,0
78960,note_on,,,,,1,0,0,,,,,0,,,72,80
79187,note_on,,,,,227,0,0,,,,,0,,,72,0
79200,time_signature,15,8,24,8,13,1,0,,,,,,,,,
79200,note_on,,,,,493,0,1,,,,,0,,,38,80
79201,control_change,,,,,1,0,0,,,64,0,0,,,,
79202,control_change,,,,,1,0,0,,,64,127,0,,,,
79427,note_on,,,,,227,0,1,,,,,0,,,38,0
79440,note_on,,,,,0,0,1,,,,,0,,,56,80
79440,note_on,,,,,13,0,1,,,,,0,,,50,80
79440,note_on,,,,,238,0,0,,,,,0,,,72,96
79667,note_on,,,,,227,0,1,,,,,0,,,50,0
79667,note_on,,,,,0,0,1,,,,,0,,,56,0
79680,note_on,,,,,0,0,1,,,,,0,,,62,80
79680,note_on,,,,,13,0,1,,,,,0,,,53,80
79907,note_on,,,,,0,0,1,,,,,0,,,62,0
79907,note_on,,,,,227,0,1,,,,,0,,,53,0
79919,note_on,,,,,479,0,0,,,,,0,,,72,0
79920,note_on,,,,,0,0,1,,,,,0,,,65,80
79920,note_on,,,,,13,0,1,,,,,0,,,56,80
79920,note_on,,,,,1,0,0,,,,,0,,,70,80
80147,note_on,,,,,227,0,1,,,,,0,,,56,0
80147,note_on,,,,,0,0,1,,,,,0,,,65,0
80159,note_on,,,,,239,0,0,,,,,0,,,70,0
80160,note_on,,,,,1,0,0,,,,,0,,,69,80
80399,note_on,,,,,239,0,0,,,,,0,,,69,0
80400,note_on,,,,,1,0,0,,,,,0,,,70,80
80639,note_on,,,,,239,0,0,,,,,0,,,70,0
80640,note_on,,,,,1,0,0,,,,,0,,,69,80
80719,note_on,,,,,79,0,0,,,,,0,,,69,0
80720,note_on,,,,,1,0,0,,,,,0,,,70,80
80799,note_on,,,,,79,0,0,,,,,0,,,70,0
80800,note_on,,,,,1,0,0,,,,,0,,,72,80
80879,note_on,,,,,79,0,0,,,,,0,,,72,0
80880,note_on,,,,,1,0,0,,,,,0,,,70,80
80938,note_on,,,,,58,0,0,,,,,0,,,70,0
80939,note_on,,,,,1,0,0,,,,,0,,,72,80
80997,note_on,,,,,58,0,0,,,,,0,,,72,0
81000,note_on,,,,,3,0,0,,,,,0,,,70,80
81058,note_on,,,,,58,0,0,,,,,0,,,70,0
81059,note_on,,,,,1,0,0,,,,,0,,,72,80
81117,note_on,,,,,58,0,0,,,,,0,,,72,0
81120,note_on,,,,,3,0,0,,,,,0,,,70,80
81178,note_on,,,,,58,0,0,,,,,0,,,70,0
81179,note_on,,,,,1,0,0,,,,,0,,,72,80
81237,note_on,,,,,58,0,0,,,,,0,,,72,0
81240,note_on,,,,,3,0,0,,,,,0,,,70,80
81298,note_on,,,,,58,0,0,,,,,0,,,70,0
81299,note_on,,,,,1,0,0,,,,,0,,,72,80
81357,note_on,,,,,58,0,0,,,,,0,,,72,0
81360,note_on,,,,,0,0,1,,,,,0,,,68,80
81360,note_on,,,,,1213,0,1,,,,,0,,,53,80
81360,note_on,,,,,0,0,1,,,,,0,,,62,80
81360,note_on,,,,,3,0,0,,,,,0,,,70,80
81418,note_on,,,,,58,0,0,,,,,0,,,70,0
81419,note_on,,,,,1,0,0,,,,,0,,,72,80
81477,note_on,,,,,58,0,0,,,,,0,,,72,0
81480,note_on,,,,,3,0,0,,,,,0,,,70,80
81538,note_on,,,,,58,0,0,,,,,0,,,70,0
81539,note_on,,,,,1,0,0,,,,,0,,,72,80
81587,note_on,,,,,0,0,1,,,,,0,,,62,0
81587,note_on,,,,,227,0,1,,,,,0,,,53,0
81587,note_on,,,,,0,0,1,,,,,0,,,68,0
81597,note_on,,,,,58,0,0,,,,,0,,,72,0
81600,note_on,,,,,3,0,0,,,,,0,,,70,80
81658,note_on,,,,,58,0,0,,,,,0,,,70,0
81659,note_on,,,,,1,0,0,,,,,0,,,72,80
81717,note_on,,,,,58,0,0,,,,,0,,,72,0
81720,note_on,,,,,3,0,0,,,,,0,,,70,80
81778,note_on,,,,,58,0,0,,,,,0,,,70,0
81779,note_on,,,,,1,0,0,,,,,0,,,72,80
81837,note_on,,,,,58,0,0,,,,,0,,,72,0
81840,set_tempo,,,,,3,1,0,,545456,,,,,,,
81840,note_on,,,,,0,0,0,,,,,0,,,69,80
81919,note_on,,,,,79,0,0,,,,,0,,,69,0
81920,note_on,,,,,1,0,0,,,,,0,,,70,80
81999,note_on,,,,,79,0,0,,,,,0,,,70,0
82000,note_on,,,,,1,0,0,,,,,0,,,73,80
82079,note_on,,,,,79,0,0,,,,,0,,,73,0
82080,note_on,,,,,1,0,0,,,,,0,,,74,80
82159,note_on,,,,,79,0,0,,,,,0,,,74,0
82160,note_on,,,,,1,0,0,,,,,0,,,76,80
82239,note_on,,,,,79,0,0,,,,,0,,,76,0
82240,note_on,,,,,1,0,0,,,,,0,,,77,80
82319,note_on,,,,,79,0,0,,,,,0,,,77,0
82320,note_on,,,,,1,0,0,,,,,0,,,79,80
82399,note_on,,,,,79,0,0,,,,,0,,,79,0
82400,note_on,,,,,1,0,0,,,,,0,,,80,80
82479,note_on,,,,,79,0,0,,,,,0,,,80,0
82480,note_on,,,,,1,0,0,,,,,0,,,81,80
82559,note_on,,,,,79,0,0,,,,,0,,,81,0
82560,note_on,,,,,1,0,0,,,,,0,,,82,80
82639,note_on,,,,,79,0,0,,,,,0,,,82,0
82640,note_on,,,,,1,0,0,,,,,0,,,85,80
82719,note_on,,,,,79,0,0,,,,,0,,,85,0
82720,note_on,,,,,1,0,0,,,,,0,,,86,80
82795,note_on,,,,,75,0,0,,,,,0,,,86,0
82800,note_on,,,,,1213,0,1,,,,,0,,,39,80
82800,time_signature,6,4,24,8,5,1,0,,,,,,,,,
82800,set_tempo,,,,,0,1,0,,666667,,,,,,,
82801,control_change,,,,,1,0,0,,,64,0,0,,,,
82802,control_change,,,,,1,0,0,,,64,127,0,,,,
83027,note_on,,,,,227,0,1,,,,,0,,,39,0
83040,note_on,,,,,238,0,0,,,,,0,,,89,96
83040,note_on,,,,,13,0,1,,,,,0,,,60,80
83040,note_on,,,,,0,0,1,,,,,0,,,68,80
83267,note_on,,,,,227,0,1,,,,,0,,,60,0
83267,note_on,,,,,0,0,1,,,,,0,,,68,0
83280,note_on,,,,,13,0,1,,,,,0,,,63,80
83280,note_on,,,,,0,0,1,,,,,0,,,72,80
83507,note_on,,,,,0,0,1,,,,,0,,,72,0
83507,note_on,,,,,227,0,1,,,,,0,,,63,0
83519,note_on,,,,,479,0,0,,,,,0,,,89,0
83520,note_on,,,,,0,0,1,,,,,0,,,75,80
83520,note_on,,,,,13,0,1,,,,,0,,,68,80
83520,note_on,,,,,1,0,0,,,,,0,,,87,80
83747,note_on,,,,,227,0,1,,,,,0,,,68,0
83747,note_on,,,,,0,0,1,,,,,0,,,75,0
83759,note_on,,,,,239,0,0,,,,,0,,,87,0
83760,note_on,,,,,1,0,0,,,,,0,,,84,80
83999,note_on,,,,,239,0,0,,,,,0,,,84,0
84000,note_on,,,,,1,0,0,,,,,0,,,80,80
84227,note_on,,,,,227,0,0,,,,,0,,,80,0
84240,note_on,,,,,493,0,1,,,,,0,,,39,80
84241,control_change,,,,,14,0,0,,,64,0,0,,,,
84242,control_change,,,,,1,0,0,,,64,127,0,,,,
84467,note_on,,,,,227,0,1,,,,,0,,,39,0
84480,note_on,,,,,0,0,1,,,,,0,,,61,80
84480,note_on,,,,,13,0,1,,,,,0,,,51,80
84480,note_on,,,,,238,0,0,,,,,0,,,77,96
84707,note_on,,,,,227,0,1,,,,,0,,,51,0
84707,note_on,,,,,0,0,1,,,,,0,,,61,0
84720,note_on,,,,,13,0,1,,,,,0,,,55,80
84720,note_on,,,,,0,0,1,,,,,0,,,63,80
84947,note_on,,,,,227,0,1,,,,,0,,,55,0
84947,note_on,,,,,0,0,1,,,,,0,,,63,0
84959,note_on,,,,,479,0,0,,,,,0,,,77,0
84960,note_on,,,,,13,0,1,,,,,0,,,61,80
84960,note_on,,,,,1,0,0,,,,,0,,,75,80
84960,note_on,,,,,0,0,1,,,,,0,,,67,80
85187,note_on,,,,,227,0,1,,,,,0,,,61,0
85187,note_on,,,,,0,0,1,,,,,0,,,67,0
85199,note_on,,,,,239,0,0,,,,,0,,,75,0
85200,note_on,,,,,1,0,0,,,,,0,,,73,80
85439,note_on,,,,,239,0,0,,,,,0,,,73,0
85440,note_on,,,,,1,0,0,,,,,0,,,70,80
85667,note_on,,,,,227,0,0,,,,,0,,,70,0
85680,note_on,,,,,0,0,0,,,,,0,,,67,80
85680,time_signature,13,8,24,8,13,1,0,,,,,,,,,
85681,control_change,,,,,1,0,0,,,64,0,0,,,,
85682,control_change,,,,,1,0,0,,,64,127,0,,,,
85907,note_on,,,,,225,0,0,,,,,0,,,67,0
85920,note_on,,,,,0,0,1,,,,,0,,,60,80
85920,note_on,,,,,733,0,1,,,,,0,,,51,80
85920,note_on,,,,,13,0,0,,,,,0,,,68,80
86147,note_on,,,,,227,0,0,,,,,0,,,68,0
86147,note_on,,,,,0,0,1,,,,,0,,,60,0
86147,note_on,,,,,227,0,1,,,,,0,,,51,0
86160,note_on,,,,,13,0,1,,,,,0,,,56,80
86160,note_on,,,,,0,0,1,,,,,0,,,63,80
86160,note_on,,,,,13,0,0,,,,,0,,,72,80
86387,note_on,,,,,0,0,1,,,,,0,,,63,0
86387,note_on,,,,,227,0,0,,,,,0,,,72,0
86387,note_on,,,,,227,0,1,,,,,0,,,56,0
86400,note_on,,,,,0,0,1,,,,,0,,,68,80
86400,note_on,,,,,13,0,1,,,,,0,,,60,80
86400,note_on,,,,,13,0,0,,,,,0,,,75,80
86627,note_on,,,,,227,0,1,,,,,0,,,60,0
86627,note_on,,,,,227,0,0,,,,,0,,,75,0
86627,note_on,,,,,0,0,1,,,,,0,,,68,0
86640,note_on,,,,,0,0,1,,,,,0,,,72,80
86640,note_on,,,,,13,0,0,,,,,0,,,79,80
86640,note_on,,,,,13,0,1,,,,,0,,,63,80
86753,note_on,,,,,113,0,0,,,,,0,,,79,0
86760,note_on,,,,,7,0,0,,,,,0,,,80,80
86867,note_on,,,,,0,0,1,,,,,0,,,72,0
86867,note_on,,,,,227,0,1,,,,,0,,,63,0
86873,note_on,,,,,113,0,0,,,,,0,,,80,0
86880,note_on,,,,,0,0,1,,,,,0,,,75,80
86880,note_on,,,,,7,0,0,,,,,0,,,84,80
86880,note_on,,,,,13,0,1,,,,,0,,,68,80
86959,note_on,,,,,79,0,0,,,,,0,,,84,0
86960,note_on,,,,,1,0,0,,,,,0,,,87,80
87039,note_on,,,,,79,0,0,,,,,0,,,87,0
87040,note_on,,,,,1,0,0,,,,,0,,,96,80
87107,note_on,,,,,227,0,1,,,,,0,,,68,0
87107,note_on,,,,,0,0,1,,,,,0,,,75,0
87115,note_on,,,,,75,0,0,,,,,0,,,96,0
87120,note_on,,,,,0,0,1,,,,,0,,,80,80
87120,note_on,,,,,5,0,0,,,,,0,,,92,80
87120,note_on,,,,,13,0,1,,,,,0,,,72,80
87575,note_on,,,,,455,0,1,,,,,0,,,72,0
87575,note_on,,,,,455,0,0,,,,,0,,,92,0
87575,note_on,,,,,0,0,1,,,,,0,,,80,0
87600,set_tempo,,,,,25,1,0,,2000000,,,,,,,
88079,set_tempo,,,,,479,1,0,,666667,,,,,,,
88080,note_on,,,,,1,0,0,,,,,0,,,72,80
88081,control_change,,,,,1,0,0,,,64,0,0,,,,
88155,note_on,,,,,74,0,0,,,,,0,,,72,0
88160,note_on,,,,,5,0,0,,,,,0,,,72,80
88235,note_on,,,,,75,0,0,,,,,0,,,72,0
88240,note_on,,,,,5,0,0,,,,,0,,,75,80
88315,note_on,,,,,75,0,0,,,,,0,,,75,0
88320,set_tempo,,,,,5,1,0,,1000000,,,,,,,
88320,note_on,,,,,0,0,0,,,,,0,,,73,80
88547,note_on,,,,,227,0,0,,,,,0,,,73,0
88560,note_on,,,,,0,0,0,,,,,0,,,72,80
88560,set_tempo,,,,,13,1,0,,666667,,,,,,,
88787,note_on,,,,,227,0,0,,,,,0,,,72,0
88800,note_on,,,,,0,0,0,,,,,0,,,72,96
88800,time_signature,7,4,24,8,13,1,0,,,,,,,,,
88800,note_on,,,,,1225,0,1,,,,,0,,,40,80
88863,note_on,,,,,63,0,0,,,,,0,,,84,96
89027,note_on,,,,,227,0,1,,,,,0,,,40,0
89040,note_on,,,,,13,0,1,,,,,0,,,60,80
89040,note_on,,,,,0,0,1,,,,,0,,,58,80
89279,note_on,,,,,239,0,1,,,,,0,,,60,0
89279,note_on,,,,,0,0,1,,,,,0,,,58,0
89280,set_tempo,,,,,417,1,0,,250000,,,,,,,
89280,note_on,,,,,1,0,1,,,,,0,,,52,80
89360,note_on,,,,,80,0,1,,,,,0,,,58,80
89440,note_on,,,,,80,0,1,,,,,0,,,63,80
89519,note_on,,,,,79,0,1,,,,,0,,,63,0
89520,note_on,,,,,1,0,1,,,,,0,,,61,80
89520,set_tempo,,,,,240,1,0,,666667,,,,,,,
89758,note_on,,,,,238,0,0,,,,,0,,,84,0
89759,note_on,,,,,239,0,1,,,,,0,,,61,0
89759,note_on,,,,,1,0,0,,,,,0,,,72,0
89760,note_on,,,,,1,0,1,,,,,0,,,60,80
89839,note_on,,,,,79,0,1,,,,,0,,,52,0
89919,note_on,,,,,80,0,1,,,,,0,,,58,0
89987,note_on,,,,,68,0,1,,,,,0,,,60,0
90000,note_on,,,,,13,0,1,,,,,0,,,72,80
90000,note_on,,,,,0,0,0,,,,,0,,,79,80
90000,note_on,,,,,241,0,0,,,,,0,,,67,80
90000,note_on,,,,,0,0,1,,,,,0,,,64,80
90000,note_on,,,,,0,0,1,,,,,0,,,70,80
90239,note_on,,,,,239,0,1,,,,,0,,,72,0
90240,note_on,,,,,1,0,1,,,,,0,,,60,80
90455,note_on,,,,,455,0,0,,,,,0,,,67,0
90455,note_on,,,,,0,0,0,,,,,0,,,79,0
90467,note_on,,,,,227,0,1,,,,,0,,,60,0
90479,note_on,,,,,12,0,1,,,,,0,,,64,0
90479,note_on,,,,,0,0,1,,,,,0,,,70,0
90480,note_on,,,,,25,0,0,,,,,0,,,67,80
90480,note_on,,,,,1,0,1,,,,,0,,,40,80
90480,note_on,,,,,0,0,0,,,,,0,,,79,80
90707,note_on,,,,,227,0,1,,,,,0,,,40,0
90720,note_on,,,,,13,0,1,,,,,0,,,60,80
90720,note_on,,,,,0,0,1,,,,,0,,,58,80
90959,note_on,,,,,0,0,0,,,,,0,,,79,0
90959,note_on,,,,,0,0,1,,,,,0,,,58,0
90959,note_on,,,,,479,0,0,,,,,0,,,67,0
90959,note_on,,,,,239,0,1,,,,,0,,,60,0
90960,note_on,,,,,0,0,0,,,,,0,,,82,80
90960,set_tempo,,,,,1,1,0,,250000,,,,,,,
90960,note_on,,,,,1,0,1,,,,,0,,,52,80
91040,note_on,,,,,80,0,1,,,,,0,,,58,80
91083,note_on,,,,,123,0,0,,,,,0,,,82,0
91084,note_on,,,,,0,0,0,,,,,0,,,80,80
91084,note_on,,,,,1,0,0,,,,,0,,,68,80
91120,note_on,,,,,80,0,1,,,,,0,,,63,80
91199,note_on,,,,,79,0,1,,,,,0,,,63,0
91200,note_on,,,,,1,0,1,,,,,0,,,61,80
91200,set_tempo,,,,,116,1,0,,666667,,,,,,,
91439,note_on,,,,,239,0,1,,,,,0,,,61,0
91440,note_on,,,,,1,0,1,,,,,0,,,60,80
91519,note_on,,,,,79,0,1,,,,,0,,,52,0
91599,note_on,,,,,80,0,1,,,,,0,,,58,0
91667,note_on,,,,,68,0,1,,,,,0,,,60,0
91678,note_on,,,,,478,0,0,,,,,0,,,68,0
91678,note_on,,,,,0,0,0,,,,,0,,,80,0
91680,note_on,,,,,0,0,1,,,,,0,,,70,80
91680,note_on,,,,,0,0,1,,,,,0,,,64,80
91680,note_on,,,,,13,0,1,,,,,0,,,72,80
91919,note_on,,,,,239,0,1,,,,,0,,,72,0
91920,note_on,,,,,1,0,1,,,,,0,,,60,80
91920,note_on,,,,,242,0,0,,,,,0,,,67,80
91920,note_on,,,,,0,0,0,,,,,0,,,79,80
92147,note_on,,,,,227,0,0,,,,,0,,,67,0
92147,note_on,,,,,227,0,1,,,,,0,,,60,0
92147,note_on,,,,,0,0,0,,,,,0,,,79,0
92159,note_on,,,,,0,0,1,,,,,0,,,70,0
92159,note_on,,,,,12,0,1,,,,,0,,,64,0
92160,note_on,,,,,0,0,0,,,,,0,,,79,96
92160,note_on,,,,,13,0,0,,,,,0,,,67,96
92160,note_on,,,,,1,0,1,,,,,0,,,41,80
92387,note_on,,,,,227,0,1,,,,,0,,,41,0
92400,note_on,,,,,13,0,1,,,,,0,,,60,80
92400,note_on,,,,,0,0,1,,,,,0,,,56,80
92639,note_on,,,,,239,0,1,,,,,0,,,60,0
92639,note_on,,,,,0,0,1,,,,,0,,,56,0
92640,note_on,,,,,1,0,1,,,,,0,,,53,80
92640,set_tempo,,,,,480,1,0,,250000,,,,,,,
92720,note_on,,,,,80,0,1,,,,,0,,,56,80
92800,note_on,,,,,80,0,1,,,,,0,,,63,80
92879,note_on,,,,,79,0,1,,,,,0,,,63,0
92880,set_tempo,,,,,240,1,0,,666667,,,,,,,
92880,note_on,,,,,1,0,1,,,,,0,,,61,80
93119,note_on,,,,,239,0,1,,,,,0,,,61,0
93120,note_on,,,,,1,0,1,,,,,0,,,60,80
93199,note_on,,,,,79,0,1,,,,,0,,,53,0
93279,note_on,,,,,80,0,1,,,,,0,,,56,0
93347,note_on,,,,,68,0,1,,,,,0,,,60,0
93360,note_on,,,,,13,0,1,,,,,0,,,72,80
93360,note_on,,,,,0,0,1,,,,,0,,,65,80
93360,note_on,,,,,0,0,1,,,,,0,,,68,80
93461,note_on,,,,,581,0,0,,,,,0,,,67,0
93461,note_on,,,,,0,0,0,,,,,0,,,79,0
93599,note_on,,,,,239,0,1,,,,,0,,,72,0
93600,note_on,,,,,1,0,1,,,,,0,,,60,80
93720,note_on,,,,,0,0,0,,,,,0,,,80,80
93720,note_on,,,,,259,0,0,,,,,0,,,68,80
93827,note_on,,,,,227,0,1,,,,,0,,,60,0
93833,note_on,,,,,113,0,0,,,,,0,,,68,0
93833,note_on,,,,,0,0,0,,,,,0,,,80,0
93839,note_on,,,,,0,0,1,,,,,0,,,68,0
93839,note_on,,,,,12,0,1,,,,,0,,,65,0
93840,note_on,,,,,0,0,0,,,,,0,,,77,80
93840,note_on,,,,,7,0,0,,,,,0,,,65,80
93840,note_on,,,,,1,0,1,,,,,0,,,41,80
94067,note_on,,,,,227,0,1,,,,,0,,,41,0
94080,note_on,,,,,13,0,1,,,,,0,,,60,80
94080,note_on,,,,,0,0,1,,,,,0,,,56,80
94319,note_on,,,,,239,0,1,,,,,0,,,60,0
94319,note_on,,,,,0,0,1,,,,,0,,,56,0
94320,set_tempo,,,,,480,1,0,,250000,,,,,,,
94320,note_on,,,,,1,0,1,,,,,0,,,53,81
94375,note_on,,,,,0,0,0,,,,,0,,,77,0
94375,note_on,,,,,55,0,0,,,,,0,,,65,0
94400,note_on,,,,,80,0,1,,,,,0,,,56,82
94480,note_on,,,,,80,0,1,,,,,0,,,63,82
94559,note_on,,,,,79,0,1,,,,,0,,,63,0
94560,set_tempo,,,,,185,1,0,,666667,,,,,,,
94560,note_on,,,,,1,0,1,,,,,0,,,61,83
94720,note_on,,,,,0,0,0,,,,,0,,,79,84
94720,note_on,,,,,160,0,0,,,,,0,,,67,84
94799,note_on,,,,,239,0,1,,,,,0,,,61,0
94799,note_on,,,,,79,0,0,,,,,0,,,67,0
94799,note_on,,,,,0,0,0,,,,,0,,,79,0
94800,note_on,,,,,1,0,1,,,,,0,,,60,85
94879,note_on,,,,,79,0,1,,,,,0,,,53,0
94880,note_on,,,,,81,0,0,,,,,0,,,68,85
94880,note_on,,,,,0,0,0,,,,,0,,,80,85
94959,note_on,,,,,80,0,1,,,,,0,,,56,0
94959,note_on,,,,,0,0,0,,,,,0,,,80,0
94959,note_on,,,,,79,0,0,,,,,0,,,68,0
95027,note_on,,,,,68,0,1,,,,,0,,,60,0
95040,note_on,,,,,81,0,0,,,,,0,,,69,86
95040,note_on,,,,,0,0,1,,,,,0,,,68,86
95040,note_on,,,,,0,0,1,,,,,0,,,65,86
95040,note_on,,,,,13,0,1,,,,,0,,,72,86
95040,note_on,,,,,0,0,0,,,,,0,,,81,86
95119,note_on,,,,,0,0,0,,,,,0,,,81,0
95119,note_on,,,,,79,0,0,,,,,0,,,69,0
95200,note_on,,,,,0,0,0,,,,,0,,,82,87
95200,note_on,,,,,81,0,0,,,,,0,,,70,87
95279,note_on,,,,,79,0,0,,,,,0,,,70,0
95279,note_on,,,,,239,0,1,,,,,0,,,72,0
95279,note_on,,,,,0,0,0,,,,,0,,,82,0
95280,note_on,,,,,1,0,1,,,,,0,,,60,88
95360,note_on,,,,,81,0,0,,,,,0,,,71,88
95360,note_on,,,,,0,0,0,,,,,0,,,83,88
95439,note_on,,,,,79,0,0,,,,,0,,,71,0
95439,note_on,,,,,0,0,0,,,,,0,,,83,0
95507,note_on,,,,,227,0,1,,,,,0,,,60,0
95519,note_on,,,,,12,0,1,,,,,0,,,65,0
95519,note_on,,,,,0,0,1,,,,,0,,,68,0
95520,note_on,,,,,81,0,0,,,,,0,,,72,90
95520,note_on,,,,,0,0,0,,,,,0,,,84,90
95520,note_on,,,,,1,0,1,,,,,0,,,40,90
95747,note_on,,,,,227,0,1,,,,,0,,,40,0
95759,note_on,,,,,239,0,0,,,,,0,,,72,0
95759,note_on,,,,,0,0,0,,,,,0,,,84,0
95760,note_on,,,,,0,0,1,,,,,0,,,58,90
95760,note_on,,,,,13,0,1,,,,,0,,,60,90
95999,note_on,,,,,0,0,1,,,,,0,,,58,0
95999,note_on,,,,,239,0,1,,,,,0,,,60,0
96000,note_on,,,,,1,0,1,,,,,0,,,52,90
96000,set_tempo,,,,,241,1,0,,250000,,,,,,,
96080,note_on,,,,,80,0,1,,,,,0,,,58,90
96160,note_on,,,,,80,0,1,,,,,0,,,63,90
96239,note_on,,,,,79,0,1,,,,,0,,,63,0
96240,set_tempo,,,,,240,1,0,,666667,,,,,,,
96240,note_on,,,,,0,0,0,,,,,0,,,85,108
96240,note_on,,,,,1,0,1,,,,,0,,,61,90
96240,note_on,,,,,0,0,0,,,,,0,,,73,108
96479,note_on,,,,,239,0,1,,,,,0,,,61,0
96480,note_on,,,,,1,0,1,,,,,0,,,60,90
96559,note_on,,,,,79,0,1,,,,,0,,,52,0
96639,note_on,,,,,80,0,1,,,,,0,,,58,0
96707,note_on,,,,,68,0,1,,,,,0,,,60,0
96720,note_on,,,,,0,0,1,,,,,0,,,70,90
96720,note_on,,,,,13,0,1,,,,,0,,,72,90
96720,note_on,,,,,0,0,1,,,,,0,,,64,90
96721,note_on,,,,,0,0,0,,,,,0,,,85,0
96721,note_on,,,,,481,0,0,,,,,0,,,73,0
96959,note_on,,,,,239,0,1,,,,,0,,,72,0
96960,note_on,,,,,1,0,1,,,,,0,,,60,90
96960,note_on,,,,,239,0,0,,,,,0,,,72,90
96960,note_on,,,,,0,0,0,,,,,0,,,84,90
97187,note_on,,,,,227,0,1,,,,,0,,,60,0
97199,note_on,,,,,12,0,1,,,,,0,,,64,0
97199,note_on,,,,,0,0,0,,,,,0,,,84,0
97199,note_on,,,,,239,0,0,,,,,0,,,72,0
97199,note_on,,,,,0,0,1,,,,,0,,,70,0
97200,note_on,,,,,1,0,1,,,,,0,,,40,90
97200,note_on,,,,,0,0,0,,,,,0,,,79,90
97200,note_on,,,,,1,0,0,,,,,0,,,67,90
97427,note_on,,,,,227,0,1,,,,,0,,,40,0
97440,note_on,,,,,0,0,1,,,,,0,,,58,90
97440,note_on,,,,,13,0,1,,,,,0,,,60,90
97679,note_on,,,,,239,0,1,,,,,0,,,60,0
97679,note_on,,,,,0,0,1,,,,,0,,,58,0
97679,note_on,,,,,0,0,0,,,,,0,,,79,0
97679,note_on,,,,,479,0,0,,,,,0,,,67,0
97680,set_tempo,,,,,1,1,0,,250000,,,,,,,
97680,note_on,,,,,1,0,1,,,,,0,,,52,90
97760,note_on,,,,,80,0,1,,,,,0,,,58,90
97840,note_on,,,,,80,0,1,,,,,0,,,63,90
97919,note_on,,,,,79,0,1,,,,,0,,,63,0
97920,set_tempo,,,,,240,1,0,,666667,,,,,,,
97920,note_on,,,,,0,0,0,,,,,0,,,82,108
97920,note_on,,,,,0,0,0,,,,,0,,,70,108
97920,note_on,,,,,1,0,1,,,,,0,,,61,90
97965,note_on,,,,,0,0,0,,,,,0,,,82,0
97965,note_on,,,,,45,0,0,,,,,0,,,70,0
97966,note_on,,,,,1,0,0,,,,,0,,,68,108
97966,note_on,,,,,0,0,0,,,,,0,,,80,108
98159,note_on,,,,,239,0,1,,,,,0,,,61,0
98160,note_on,,,,,1,0,1,,,,,0,,,60,90
98239,note_on,,,,,79,0,1,,,,,0,,,52,0
98319,note_on,,,,,80,0,1,,,,,0,,,58,0
98387,note_on,,,,,68,0,1,,,,,0,,,60,0
98400,note_on,,,,,13,0,1,,,,,0,,,72,90
98400,note_on,,,,,0,0,1,,,,,0,,,64,90
98400,note_on,,,,,0,0,1,,,,,0,,,70,90
98639,note_on,,,,,239,0,1,,,,,0,,,72,0
98640,note_on,,,,,1,0,1,,,,,0,,,60,90
98758,note_on,,,,,792,0,0,,,,,0,,,68,0
98758,note_on,,,,,0,0,0,,,,,0,,,80,0
98760,note_on,,,,,0,0,0,,,,,0,,,79,90
98760,note_on,,,,,2,0,0,,,,,0,,,67,90
98867,note_on,,,,,227,0,1,,,,,0,,,60,0
98873,note_on,,,,,0,0,0,,,,,0,,,79,0
98873,note_on,,,,,113,0,0,,,,,0,,,67,0
98879,note_on,,,,,0,0,1,,,,,0,,,70,0
98879,note_on,,,,,12,0,1,,,,,0,,,64,0
98880,note_on,,,,,0,0,0,,,,,0,,,79,90
98880,note_on,,,,,7,0,0,,,,,0,,,67,90
98880,note_on,,,,,1,0,1,,,,,0,,,41,90
99107,note_on,,,,,227,0,1,,,,,0,,,41,0
99120,note_on,,,,,13,0,1,,,,,0,,,60,90
99120,note_on,,,,,0,0,1,,,,,0,,,56,90
99359,note_on,,,,,239,0,1,,,,,0,,,60,0
99359,note_on,,,,,0,0,1,,,,,0,,,56,0
99360,set_tempo,,,,,480,1,0,,250000,,,,,,,
99360,note_on,,,,,1,0,1,,,,,0,,,53,90
99440,note_on,,,,,80,0,1,,,,,0,,,56,90
99520,note_on,,,,,80,0,1,,,,,0,,,63,90
99599,note_on,,,,,79,0,1,,,,,0,,,63,0
99599,note_on,,,,,0,0,0,,,,,0,,,79,0
99599,note_on,,,,,239,0,0,,,,,0,,,67,0
99600,note_on,,,,,1,0,1,,,,,0,,,61,90
99600,set_tempo,,,,,1,1,0,,666667,,,,,,,
99827,note_on,,,,,227,0,1,,,,,0,,,61,0
99840,note_on,,,,,0,0,0,,,,,0,,,80,90
99840,note_on,,,,,13,0,1,,,,,0,,,60,90
99840,note_on,,,,,240,0,0,,,,,0,,,68,90
99895,note_on,,,,,55,0,1,,,,,0,,,53,0
99975,note_on,,,,,80,0,1,,,,,0,,,56,0
100067,note_on,,,,,92,0,1,,,,,0,,,60,0
100079,note_on,,,,,0,0,0,,,,,0,,,80,0
100079,note_on,,,,,239,0,0,,,,,0,,,68,0
100080,note_on,,,,,13,0,1,,,,,0,,,72,90
100080,note_on,,,,,1,0,0,,,,,0,,,64,90
100080,note_on,,,,,0,0,1,,,,,0,,,68,90
100080,note_on,,,,,0,0,0,,,,,0,,,76,90
100080,note_on,,,,,0,0,1,,,,,0,,,65,90
100319,note_on,,,,,239,0,1,,,,,0,,,72,0
100320,note_on,,,,,1,0,1,,,,,0,,,60,90
100439,note_on,,,,,0,0,0,,,,,0,,,76,0
100439,note_on,,,,,359,0,0,,,,,0,,,64,0
100440,note_on,,,,,0,0,0,,,,,0,,,77,90
100440,note_on,,,,,1,0,0,,,,,0,,,65,90
100547,note_on,,,,,227,0,1,,,,,0,,,60,0
100553,note_on,,,,,0,0,0,,,,,0,,,77,0
100553,note_on,,,,,113,0,0,,,,,0,,,65,0
100559,note_on,,,,,12,0,1,,,,,0,,,65,0
100559,note_on,,,,,0,0,1,,,,,0,,,68,0
100560,note_on,,,,,1,0,1,,,,,0,,,41,90
100560,note_on,,,,,7,0,0,,,,,0,,,65,90
100560,note_on,,,,,0,0,0,,,,,0,,,77,90
100787,note_on,,,,,227,0,1,,,,,0,,,41,0
100800,note_on,,,,,13,0,1,,,,,0,,,60,90
100800,note_on,,,,,0,0,1,,,,,0,,,56,90
101039,note_on,,,,,0,0,1,,,,,0,,,56,0
101039,note_on,,,,,239,0,1,,,,,0,,,60,0
101040,set_tempo,,,,,480,1,0,,250000,,,,,,,
101040,note_on,,,,,1,0,1,,,,,0,,,53,90
101120,note_on,,,,,80,0,1,,,,,0,,,56,90
101200,note_on,,,,,80,0,1,,,,,0,,,63,90
101279,note_on,,,,,239,0,0,,,,,0,,,65,0
101279,note_on,,,,,0,0,0,,,,,0,,,77,0
101279,note_on,,,,,79,0,1,,,,,0,,,63,0
101280,note_on,,,,,1,0,1,,,,,0,,,61,90
101519,note_on,,,,,239,0,1,,,,,0,,,61,0
101520,note_on,,,,,0,0,0,,,,,0,,,79,90
101520,note_on,,,,,0,0,0,,,,,0,,,67,90
101520,set_tempo,,,,,241,1,0,,857140,,,,,,,
101520,note_on,,,,,1,0,1,,,,,0,,,60,90
101599,note_on,,,,,79,0,1,,,,,0,,,53,0
101639,note_on,,,,,0,0,0,,,,,0,,,79,0
101639,note_on,,,,,119,0,0,,,,,0,,,67,0
101679,note_on,,,,,80,0,1,,,,,0,,,56,0
101747,note_on,,,,,68,0,1,,,,,0,,,60,0
101760,note_on,,,,,0,0,0,,,,,0,,,80,90
101760,note_on,,,,,13,0,1,,,,,0,,,61,90
101760,note_on,,,,,0,0,1,,,,,0,,,56,90
101760,note_on,,,,,0,0,1,,,,,0,,,53,90
101760,note_on,,,,,0,0,1,,,,,0,,,51,90
101760,note_on,,,,,121,0,0,,,,,0,,,68,90
101879,note_on,,,,,119,0,0,,,,,0,,,68,0
101879,note_on,,,,,0,0,0,,,,,0,,,80,0
101999,note_on,,,,,239,0,1,,,,,0,,,61,0
102000,note_on,,,,,1,0,1,,,,,0,,,59,90
102000,note_on,,,,,0,0,0,,,,,0,,,69,90
102000,note_on,,,,,0,0,0,,,,,0,,,81,90
102000,set_tempo,,,,,121,1,0,,1200000,,,,,,,
102119,note_on,,,,,119,0,0,,,,,0,,,69,0
102119,note_on,,,,,0,0,0,,,,,0,,,81,0
102227,note_on,,,,,227,0,1,,,,,0,,,59,0
102239,note_on,,,,,12,0,1,,,,,0,,,51,0
102239,note_on,,,,,0,0,1,,,,,0,,,56,0
102239,note_on,,,,,0,0,1,,,,,0,,,53,0
102240,time_signature,6,4,24,8,121,1,0,,,,,,,,,
102240,note_on,,,,,0,0,0,,,,,0,,,70,90
102240,note_on,,,,,1,0,1,,,,,0,,,50,90
102240,note_on,,,,,0,0,0,,,,,0,,,82,90
102240,set_tempo,,,,,0,1,0,,857140,,,,,,,
102467,note_on,,,,,227,0,1,,,,,0,,,50,0
102480,note_on,,,,,0,0,1,,,,,0,,,68,60
102480,note_on,,,,,13,0,1,,,,,0,,,65,60
102480,note_on,,,,,0,0,1,,,,,0,,,58,60
102599,note_on,,,,,119,0,1,,,,,0,,,65,0
102599,note_on,,,,,0,0,1,,,,,0,,,68,0
102719,note_on,,,,,120,0,1,,,,,0,,,58,0
102720,set_tempo,,,,,480,1,0,,599999,,,,,,,
102720,note_on,,,,,0,0,1,,,,,0,,,60,60
102720,note_on,,,,,1,0,1,,,,,0,,,62,60
102770,note_on,,,,,50,0,1,,,,,0,,,62,0
102771,note_on,,,,,1,0,1,,,,,0,,,65,60
102771,note_on,,,,,0,0,1,,,,,0,,,68,60
102809,note_on,,,,,0,0,0,,,,,0,,,82,0
102809,note_on,,,,,89,0,0,,,,,0,,,70,0
102840,note_on,,,,,31,0,0,,,,,0,,,70,60
102840,note_on,,,,,0,0,0,,,,,0,,,82,60
102864,note_on,,,,,0,0,1,,,,,0,,,68,0
102864,note_on,,,,,93,0,1,,,,,0,,,65,0
102899,note_on,,,,,0,0,0,,,,,0,,,82,0
102899,note_on,,,,,59,0,0,,,,,0,,,70,0
102959,note_on,,,,,95,0,1,,,,,0,,,60,0
102960,note_on,,,,,61,0,0,,,,,0,,,74,60
102960,note_on,,,,,0,0,1,,,,,0,,,68,60
102960,note_on,,,,,0,0,1,,,,,0,,,58,60
102960,note_on,,,,,1,0,1,,,,,0,,,65,60
102960,note_on,,,,,0,0,0,,,,,0,,,82,60
103019,note_on,,,,,0,0,0,,,,,0,,,82,0
103019,note_on,,,,,59,0,0,,,,,0,,,74,0
103079,note_on,,,,,0,0,1,,,,,0,,,68,0
103079,note_on,,,,,119,0,1,,,,,0,,,65,0
103080,note_on,,,,,0,0,0,,,,,0,,,82,60
103080,note_on,,,,,61,0,0,,,,,0,,,77,60
103139,note_on,,,,,59,0,0,,,,,0,,,77,0
103139,note_on,,,,,0,0,0,,,,,0,,,82,0
103187,note_on,,,,,108,0,1,,,,,0,,,58,0
103200,note_on,,,,,61,0,0,,,,,0,,,82,60
103259,note_on,,,,,59,0,0,,,,,0,,,82,0
103320,note_on,,,,,0,0,0,,,,,0,,,86,60
103320,note_on,,,,,61,0,0,,,,,0,,,82,60
103379,note_on,,,,,59,0,0,,,,,0,,,82,0
103379,note_on,,,,,0,0,0,,,,,0,,,86,0
103440,note_on,,,,,61,0,0,,,,,0,,,82,60
103440,note_on,,,,,0,0,0,,,,,0,,,89,60
103499,note_on,,,,,59,0,0,,,,,0,,,82,0
103499,note_on,,,,,0,0,0,,,,,0,,,89,0
103560,note_on,,,,,61,0,0,,,,,0,,,82,60
103560,note_on,,,,,0,0,0,,,,,0,,,96,60
103619,note_on,,,,,0,0,0,,,,,0,,,96,0
103619,note_on,,,,,59,0,0,,,,,0,,,82,0
103680,note_on,,,,,493,0,1,,,,,0,,,51,60
103680,note_on,,,,,0,0,0,,,,,0,,,94,60
103680,note_on,,,,,61,0,0,,,,,0,,,82,60
103907,note_on,,,,,227,0,1,,,,,0,,,51,0
103920,note_on,,,,,0,0,1,,,,,0,,,58,60
103920,note_on,,,,,13,0,1,,,,,0,,,63,60
103920,note_on,,,,,0,0,1,,,,,0,,,67,60
104039,note_on,,,,,119,0,1,,,,,0,,,63,0
104039,note_on,,,,,0,0,1,,,,,0,,,67,0
104159,note_on,,,,,120,0,1,,,,,0,,,58,0
104160,note_on,,,,,1,0,1,,,,,0,,,62,60
104160,note_on,,,,,0,0,1,,,,,0,,,60,60
104210,note_on,,,,,50,0,1,,,,,0,,,62,0
104211,note_on,,,,,0,0,1,,,,,0,,,67,60
104211,note_on,,,,,1,0,1,,,,,0,,,63,60
104249,note_on,,,,,569,0,0,,,,,0,,,82,0
104249,note_on,,,,,0,0,0,,,,,0,,,94,0
104280,note_on,,,,,31,0,0,,,,,0,,,91,60
104280,note_on,,,,,0,0,0,,,,,0,,,94,60
104304,note_on,,,,,93,0,1,,,,,0,,,63,0
104304,note_on,,,,,0,0,1,,,,,0,,,67,0
104339,note_on,,,,,0,0,0,,,,,0,,,94,0
104339,note_on,,,,,59,0,0,,,,,0,,,91,0
104399,note_on,,,,,95,0,1,,,,,0,,,60,0
104400,note_on,,,,,61,0,0,,,,,0,,,87,60
104400,note_on,,,,,0,0,0,,,,,0,,,94,60
104400,note_on,,,,,0,0,1,,,,,0,,,58,60
104400,note_on,,,,,0,0,1,,,,,0,,,67,60
104400,note_on,,,,,1,0,1,,,,,0,,,63,60
104459,note_on,,,,,0,0,0,,,,,0,,,94,0
104459,note_on,,,,,59,0,0,,,,,0,,,87,0
104519,note_on,,,,,0,0,1,,,,,0,,,67,0
104519,note_on,,,,,119,0,1,,,,,0,,,63,0
104520,note_on,,,,,61,0,0,,,,,0,,,84,60
104520,note_on,,,,,0,0,0,,,,,0,,,94,60
104579,note_on,,,,,0,0,0,,,,,0,,,94,0
104579,note_on,,,,,59,0,0,,,,,0,,,84,0
104627,note_on,,,,,108,0,1,,,,,0,,,58,0
104640,note_on,,,,,61,0,0,,,,,0,,,82,60
104640,note_on,,,,,0,0,0,,,,,0,,,94,60
104699,note_on,,,,,0,0,0,,,,,0,,,94,0
104699,note_on,,,,,59,0,0,,,,,0,,,82,0
104760,note_on,,,,,0,0,0,,,,,0,,,82,60
104760,note_on,,,,,61,0,0,,,,,0,,,79,60
104819,note_on,,,,,59,0,0,,,,,0,,,79,0
104819,note_on,,,,,0,0,0,,,,,0,,,82,0
104880,note_on,,,,,0,0,0,,,,,0,,,82,60
104880,note_on,,,,,61,0,0,,,,,0,,,75,60
104939,note_on,,,,,59,0,0,,,,,0,,,75,0
104939,note_on,,,,,0,0,0,,,,,0,,,82,0
105000,note_on,,,,,0,0,0,,,,,0,,,82,60
105000,note_on,,,,,61,0,0,,,,,0,,,72,60
105059,note_on,,,,,0,0,0,,,,,0,,,82,0
105059,note_on,,,,,59,0,0,,,,,0,,,72,0
105120,note_on,,,,,61,0,0,,,,,0,,,70,60
105120,note_on,,,,,0,0,0,,,,,0,,,82,60
105120,note_on,,,,,493,0,1,,,,,0,,,50,60
105347,note_on,,,,,227,0,1,,,,,0,,,50,0
105360,note_on,,,,,13,0,1,,,,,0,,,65,60
105360,note_on,,,,,0,0,1,,,,,0,,,58,60
105360,note_on,,,,,0,0,1,,,,,0,,,68,60
105479,note_on,,,,,119,0,1,,,,,0,,,65,0
105479,note_on,,,,,0,0,1,,,,,0,,,68,0
105599,note_on,,,,,120,0,1,,,,,0,,,58,0
105600,note_on,,,,,0,0,1,,,,,0,,,59,80
105600,note_on,,,,,1,0,1,,,,,0,,,61,80
105650,note_on,,,,,50,0,1,,,,,0,,,61,0
105651,note_on,,,,,1,0,1,,,,,0,,,65,80
105651,note_on,,,,,0,0,1,,,,,0,,,68,80
105689,note_on,,,,,0,0,0,,,,,0,,,82,0
105689,note_on,,,,,569,0,0,,,,,0,,,70,0
105720,note_on,,,,,31,0,0,,,,,0,,,70,81
105720,note_on,,,,,0,0,0,,,,,0,,,82,81
105744,note_on,,,,,0,0,1,,,,,0,,,68,0
105744,note_on,,,,,93,0,1,,,,,0,,,65,0
105779,note_on,,,,,59,0,0,,,,,0,,,70,0
105779,note_on,,,,,0,0,0,,,,,0,,,82,0
105839,note_on,,,,,95,0,1,,,,,0,,,59,0
105840,note_on,,,,,61,0,0,,,,,0,,,74,82
105840,note_on,,,,,0,0,1,,,,,0,,,58,82
105840,note_on,,,,,0,0,0,,,,,0,,,82,82
105840,note_on,,,,,0,0,1,,,,,0,,,68,82
105840,note_on,,,,,1,0,1,,,,,0,,,65,82
105899,note_on,,,,,0,0,0,,,,,0,,,82,0
105899,note_on,,,,,59,0,0,,,,,0,,,74,0
105959,note_on,,,,,0,0,1,,,,,0,,,68,0
105959,note_on,,,,,119,0,1,,,,,0,,,65,0
105960,note_on,,,,,0,0,0,,,,,0,,,82,83
105960,note_on,,,,,61,0,0,,,,,0,,,77,83
106019,note_on,,,,,59,0,0,,,,,0,,,77,0
106019,note_on,,,,,0,0,0,,,,,0,,,82,0
106067,note_on,,,,,108,0,1,,,,,0,,,58,0
106080,note_on,,,,,61,0,0,,,,,0,,,82,85
106139,note_on,,,,,59,0,0,,,,,0,,,82,0
106200,note_on,,,,,0,0,0,,,,,0,,,86,86
106200,note_on,,,,,61,0,0,,,,,0,,,82,86
106259,note_on,,,,,0,0,0,,,,,0,,,86,0
106259,note_on,,,,,59,0,0,,,,,0,,,82,0
106320,note_on,,,,,61,0,0,,,,,0,,,82,87
106320,note_on,,,,,0,0,0,,,,,0,,,89,87
106379,note_on,,,,,59,0,0,,,,,0,,,82,0
106379,note_on,,,,,0,0,0,,,,,0,,,89,0
106440,note_on,,,,,61,0,0,,,,,0,,,82,88
106440,note_on,,,,,0,0,0,,,,,0,,,95,88
106499,note_on,,,,,59,0,0,,,,,0,,,82,0
106499,note_on,,,,,0,0,0,,,,,0,,,95,0
106560,set_tempo,,,,,61,1,0,,571429,,,,,,,
106560,note_on,,,,,0,0,0,,,,,0,,,82,90
106560,note_on,,,,,0,0,0,,,,,0,,,94,90
106560,note_on,,,,,493,0,1,,,,,0,,,51,90
106787,note_on,,,,,227,0,1,,,,,0,,,51,0
106800,note_on,,,,,0,0,1,,,,,0,,,58,91
106800,note_on,,,,,13,0,1,,,,,0,,,63,91
106800,note_on,,,,,0,0,1,,,,,0,,,66,91
106919,note_on,,,,,119,0,1,,,,,0,,,63,0
106919,note_on,,,,,0,0,1,,,,,0,,,66,0
107039,note_on,,,,,120,0,1,,,,,0,,,58,0
107040,note_on,,,,,1,0,1,,,,,0,,,61,92
107040,note_on,,,,,0,0,1,,,,,0,,,59,92
107093,note_on,,,,,53,0,1,,,,,0,,,61,0
107094,note_on,,,,,0,0,1,,,,,0,,,66,92
107094,note_on,,,,,1,0,1,,,,,0,,,63,92
107129,note_on,,,,,0,0,0,,,,,0,,,94,0
107129,note_on,,,,,569,0,0,,,,,0,,,82,0
107160,note_on,,,,,31,0,0,,,,,0,,,90,92
107160,note_on,,,,,0,0,0,,,,,0,,,94,92
107185,note_on,,,,,0,0,1,,,,,0,,,66,0
107185,note_on,,,,,91,0,1,,,,,0,,,63,0
107219,note_on,,,,,0,0,0,,,,,0,,,94,0
107219,note_on,,,,,59,0,0,,,,,0,,,90,0
107279,note_on,,,,,94,0,1,,,,,0,,,59,0
107280,note_on,,,,,0,0,1,,,,,0,,,58,93
107280,note_on,,,,,0,0,0,,,,,0,,,94,93
107280,note_on,,,,,1,0,1,,,,,0,,,63,93
107280,note_on,,,,,61,0,0,,,,,0,,,87,93
107280,note_on,,,,,0,0,1,,,,,0,,,66,93
107339,note_on,,,,,0,0,0,,,,,0,,,94,0
107339,note_on,,,,,59,0,0,,,,,0,,,87,0
107399,note_on,,,,,0,0,1,,,,,0,,,66,0
107399,note_on,,,,,119,0,1,,,,,0,,,63,0
107400,note_on,,,,,0,0,0,,,,,0,,,94,93
107400,note_on,,,,,61,0,0,,,,,0,,,83,93
107459,note_on,,,,,0,0,0,,,,,0,,,94,0
107459,note_on,,,,,59,0,0,,,,,0,,,83,0
107507,note_on,,,,,108,0,1,,,,,0,,,58,0
107520,note_on,,,,,0,0,0,,,,,0,,,94,94
107520,note_on,,,,,61,0,0,,,,,0,,,82,94
107579,note_on,,,,,0,0,0,,,,,0,,,94,0
107579,note_on,,,,,59,0,0,,,,,0,,,82,0
107640,note_on,,,,,0,0,0,,,,,0,,,82,94
107640,note_on,,,,,61,0,0,,,,,0,,,78,94
107699,note_on,,,,,59,0,0,,,,,0,,,78,0
107699,note_on,,,,,0,0,0,,,,,0,,,82,0
107760,note_on,,,,,61,0,0,,,,,0,,,75,95
107760,note_on,,,,,0,0,0,,,,,0,,,82,95
107819,note_on,,,,,0,0,0,,,,,0,,,82,0
107819,note_on,,,,,59,0,0,,,,,0,,,75,0
107880,note_on,,,,,61,0,0,,,,,0,,,70,95
107880,note_on,,,,,0,0,0,,,,,0,,,82,95
107939,note_on,,,,,0,0,0,,,,,0,,,82,0
107939,note_on,,,,,59,0,0,,,,,0,,,70,0
108000,note_on,,,,,0,0,0,,,,,0,,,83,115
108000,note_on,,,,,493,0,1,,,,,0,,,33,96
108000,note_on,,,,,0,0,1,,,,,0,,,45,96
108000,set_tempo,,,,,61,1,0,,857143,,,,,,,
108002,control_change,,,,,2,0,0,,,64,127,0,,,,
108050,note_on,,,,,48,0,0,,,,,0,,,99,115
108227,note_on,,,,,0,0,1,,,,,0,,,45,0
108227,note_on,,,,,227,0,1,,,,,0,,,33,0
108240,note_on,,,,,0,0,1,,,,,0,,,71,96
108240,note_on,,,,,0,0,1,,,,,0,,,66,96
108240,note_on,,,,,0,0,1,,,,,0,,,63,96
108240,note_on,,,,,13,0,1,,,,,0,,,57,96
108467,note_on,,,,,0,0,1,,,,,0,,,71,0
108467,note_on,,,,,0,0,1,,,,,0,,,66,0
108467,note_on,,,,,0,0,1,,,,,0,,,63,0
108467,note_on,,,,,227,0,1,,,,,0,,,57,0
108479,set_tempo,,,,,429,1,0,,571429,,,,,,,
108480,note_on,,,,,13,0,1,,,,,0,,,75,96
108533,note_on,,,,,53,0,1,,,,,0,,,75,0
108534,note_on,,,,,0,0,1,,,,,0,,,63,96
108534,note_on,,,,,0,0,1,,,,,0,,,73,96
108534,note_on,,,,,1,0,1,,,,,0,,,57,96
108534,note_on,,,,,0,0,1,,,,,0,,,66,96
108592,note_on,,,,,113,0,0,,,,,0,,,99,0
108593,note_on,,,,,1,0,0,,,,,0,,,83,0
108600,note_on,,,,,0,0,0,,,,,0,,,99,96
108600,note_on,,,,,7,0,0,,,,,0,,,97,96
108709,note_on,,,,,0,0,1,,,,,0,,,63,0
108709,note_on,,,,,175,0,1,,,,,0,,,57,0
108709,note_on,,,,,0,0,1,,,,,0,,,66,0
108709,note_on,,,,,0,0,1,,,,,0,,,73,0
108713,note_on,,,,,0,0,0,,,,,0,,,99,0
108713,note_on,,,,,113,0,0,,,,,0,,,97,0
108720,note_on,,,,,0,0,1,,,,,0,,,63,96
108720,note_on,,,,,0,0,1,,,,,0,,,66,96
108720,note_on,,,,,0,0,0,,,,,0,,,99,96
108720,note_on,,,,,0,0,1,,,,,0,,,71,96
108720,note_on,,,,,11,0,1,,,,,0,,,57,96
108720,note_on,,,,,7,0,0,,,,,0,,,95,96
108833,note_on,,,,,0,0,0,,,,,0,,,99,0
108833,note_on,,,,,113,0,0,,,,,0,,,95,0
108840,note_on,,,,,0,0,0,,,,,0,,,99,96
108840,note_on,,,,,7,0,0,,,,,0,,,92,96
108947,note_on,,,,,0,0,1,,,,,0,,,66,0
108947,note_on,,,,,0,0,1,,,,,0,,,63,0
108947,note_on,,,,,227,0,1,,,,,0,,,57,0
108947,note_on,,,,,0,0,1,,,,,0,,,71,0
108953,note_on,,,,,0,0,0,,,,,0,,,99,0
108953,note_on,,,,,113,0,0,,,,,0,,,92,0
108960,set_tempo,,,,,7,1,0,,631580,,,,,,,
108960,note_on,,,,,0,0,0,,,,,0,,,99,96
108960,note_on,,,,,0,0,0,,,,,0,,,90,96
109073,note_on,,,,,113,0,0,,,,,0,,,90,0
109073,note_on,,,,,0,0,0,,,,,0,,,99,0
109080,note_on,,,,,0,0,0,,,,,0,,,99,96
109080,note_on,,,,,7,0,0,,,,,0,,,87,96
109193,note_on,,,,,113,0,0,,,,,0,,,87,0
109193,note_on,,,,,0,0,0,,,,,0,,,99,0
109200,note_on,,,,,0,0,0,,,,,0,,,97,96
109200,note_on,,,,,7,0,0,,,,,0,,,87,96
109313,note_on,,,,,0,0,0,,,,,0,,,97,0
109313,note_on,,,,,113,0,0,,,,,0,,,87,0
109320,note_on,,,,,7,0,0,,,,,0,,,87,96
109320,note_on,,,,,0,0,0,,,,,0,,,95,96
109433,note_on,,,,,0,0,0,,,,,0,,,95,0
109433,note_on,,,,,113,0,0,,,,,0,,,87,0
109440,note_on,,,,,7,0,0,,,,,0,,,87,96
109440,note_on,,,,,0,0,0,,,,,0,,,92,96
109553,note_on,,,,,0,0,0,,,,,0,,,92,0
109553,note_on,,,,,113,0,0,,,,,0,,,87,0
109560,note_on,,,,,7,0,0,,,,,0,,,87,96
109560,note_on,,,,,0,0,0,,,,,0,,,90,96
109673,note_on,,,,,0,0,0,,,,,0,,,90,0
109673,note_on,,,,,113,0,0,,,,,0,,,87,0
109680,note_on,,,,,7,0,0,,,,,0,,,87,96
109793,note_on,,,,,113,0,0,,,,,0,,,87,0
109800,note_on,,,,,7,0,0,,,,,0,,,85,96
109800,note_on,,,,,0,0,0,,,,,0,,,87,96
109913,note_on,,,,,0,0,0,,,,,0,,,87,0
109913,note_on,,,,,113,0,0,,,,,0,,,85,0
109920,note_on,,,,,0,0,0,,,,,0,,,87,96
109920,note_on,,,,,7,0,0,,,,,0,,,83,96
110033,note_on,,,,,113,0,0,,,,,0,,,83,0
110033,note_on,,,,,0,0,0,,,,,0,,,87,0
110040,note_on,,,,,0,0,0,,,,,0,,,87,96
110040,note_on,,,,,7,0,0,,,,,0,,,80,96
110153,note_on,,,,,113,0,0,,,,,0,,,80,0
110153,note_on,,,,,0,0,0,,,,,0,,,87,0
110160,note_on,,,,,0,0,0,,,,,0,,,87,96
110160,note_on,,,,,7,0,0,,,,,0,,,78,96
110273,note_on,,,,,0,0,0,,,,,0,,,87,0
110273,note_on,,,,,113,0,0,,,,,0,,,78,0
110280,note_on,,,,,7,0,0,,,,,0,,,75,96
110280,note_on,,,,,0,0,0,,,,,0,,,87,96
110393,note_on,,,,,113,0,0,,,,,0,,,75,0
110393,note_on,,,,,0,0,0,,,,,0,,,87,0
110400,note_on,,,,,0,0,0,,,,,0,,,85,96
110400,note_on,,,,,7,0,0,,,,,0,,,75,96
110513,note_on,,,,,0,0,0,,,,,0,,,85,0
110513,note_on,,,,,113,0,0,,,,,0,,,75,0
110520,note_on,,,,,0,0,0,,,,,0,,,75,96
110520,set_tempo,,,,,7,1,0,,857140,,,,,,,
110520,note_on,,,,,0,0,0,,,,,0,,,83,96
110633,note_on,,,,,113,0,0,,,,,0,,,75,0
110633,note_on,,,,,0,0,0,,,,,0,,,83,0
110640,note_on,,,,,0,0,0,,,,,0,,,80,96
110640,note_on,,,,,0,0,0,,,,,0,,,75,96
110640,note_on,,,,,0,0,0,,,,,0,,,71,96
110640,set_tempo,,,,,7,1,0,,1200000,,,,,,,
110699,note_on,,,,,0,0,0,,,,,0,,,80,0
110699,note_on,,,,,0,0,0,,,,,0,,,75,0
110699,note_on,,,,,59,0,0,,,,,0,,,71,0
110820,note_on,,,,,0,0,0,,,,,0,,,78,96
110820,note_on,,,,,0,0,0,,,,,0,,,75,96
110820,note_on,,,,,121,0,0,,,,,0,,,71,96
110876,note_on,,,,,0,0,0,,,,,0,,,78,0
110876,note_on,,,,,56,0,0,,,,,0,,,71,0
110876,note_on,,,,,0,0,0,,,,,0,,,75,0
110880,note_on,,,,,0,0,0,,,,,0,,,71,72
110880,note_on,,,,,1933,0,1,,,,,0,,,32,60
110880,time_signature,13,8,24,8,4,1,0,,,,,,,,,
110880,note_on,,,,,0,0,1,,,,,0,,,44,60
110880,set_tempo,,,,,0,1,0,,1800001,,,,,,,
110881,control_change,,,,,1,0,0,,,64,0,0,,,,
110882,control_change,,,,,1,0,0,,,64,127,0,,,,
110922,note_on,,,,,40,0,0,,,,,0,,,76,72
110964,note_on,,,,,42,0,0,,,,,0,,,85,72
111107,note_on,,,,,227,0,1,,,,,0,,,32,0
111107,note_on,,,,,0,0,1,,,,,0,,,44,0
111120,note_on,,,,,0,0,1,,,,,0,,,64,60
111120,note_on,,,,,0,0,1,,,,,0,,,71,60
111120,note_on,,,,,13,0,1,,,,,0,,,56,60
111347,note_on,,,,,227,0,1,,,,,0,,,56,0
111347,note_on,,,,,0,0,1,,,,,0,,,71,0
111347,note_on,,,,,0,0,1,,,,,0,,,64,0
111358,note_on,,,,,394,0,0,,,,,0,,,76,0
111359,note_on,,,,,0,0,0,,,,,0,,,71,0
111359,set_tempo,,,,,1,1,0,,1200000,,,,,,,
111360,note_on,,,,,13,0,1,,,,,0,,,75,60
111360,set_tempo,,,,,1,1,0,,631580,,,,,,,
111408,note_on,,,,,48,0,1,,,,,0,,,75,0
111409,note_on,,,,,0,0,1,,,,,0,,,64,60
111409,note_on,,,,,1,0,1,,,,,0,,,56,60
111409,note_on,,,,,0,0,1,,,,,0,,,73,60
111586,note_on,,,,,226,0,0,,,,,0,,,85,0
111589,note_on,,,,,0,0,1,,,,,0,,,73,0
111589,note_on,,,,,0,0,1,,,,,0,,,64,0
111589,note_on,,,,,180,0,1,,,,,0,,,56,0
111600,note_on,,,,,14,0,0,,,,,0,,,83,60
111623,note_on,,,,,23,0,0,,,,,0,,,83,0
111624,note_on,,,,,1,0,0,,,,,0,,,83,60
111645,note_on,,,,,21,0,0,,,,,0,,,83,0
111648,note_on,,,,,3,0,0,,,,,0,,,85,60
111692,note_on,,,,,44,0,0,,,,,0,,,85,0
111696,note_on,,,,,4,0,0,,,,,0,,,83,60
111740,note_on,,,,,44,0,0,,,,,0,,,83,0
111744,note_on,,,,,4,0,0,,,,,0,,,82,60
111788,note_on,,,,,44,0,0,,,,,0,,,82,0
111792,note_on,,,,,4,0,0,,,,,0,,,83,60
111836,note_on,,,,,44,0,0,,,,,0,,,83,0
111840,note_on,,,,,251,0,1,,,,,0,,,56,60
111840,note_on,,,,,0,0,1,,,,,0,,,71,60
111840,note_on,,,,,0,0,1,,,,,0,,,64,60
111840,note_on,,,,,4,0,0,,,,,0,,,92,60
111953,note_on,,,,,113,0,0,,,,,0,,,92,0
111960,note_on,,,,,7,0,0,,,,,0,,,87,60
112067,note_on,,,,,227,0,1,,,,,0,,,56,0
112067,note_on,,,,,0,0,1,,,,,0,,,64,0
112067,note_on,,,,,0,0,1,,,,,0,,,71,0
112073,note_on,,,,,113,0,0,,,,,0,,,87,0
112080,note_on,,,,,7,0,0,,,,,0,,,90,60
112193,note_on,,,,,113,0,0,,,,,0,,,90,0
112200,note_on,,,,,7,0,0,,,,,0,,,88,60
112313,note_on,,,,,113,0,0,,,,,0,,,88,0
112320,note_on,,,,,7,0,0,,,,,0,,,80,60
112433,note_on,,,,,113,0,0,,,,,0,,,80,0
112440,note_on,,,,,7,0,0,,,,,0,,,81,60
112553,note_on,,,,,113,0,0,,,,,0,,,81,0
112560,note_on,,,,,7,0,0,,,,,0,,,85,60
112616,note_on,,,,,56,0,0,,,,,0,,,85,0
112821,note_on,,,,,205,0,0,,,,,0,,,86,60
112902,note_on,,,,,81,0,0,,,,,0,,,86,0
112908,note_on,,,,,6,0,0,,,,,0,,,75,60
113073,note_on,,,,,165,0,0,,,,,0,,,75,0
113082,note_on,,,,,9,0,0,,,,,0,,,76,60
113247,note_on,,,,,165,0,0,,,,,0,,,76,0
113256,note_on,,,,,9,0,0,,,,,0,,,81,60
113421,note_on,,,,,165,0,0,,,,,0,,,81,0
113430,note_on,,,,,9,0,0,,,,,0,,,80,60
113511,note_on,,,,,81,0,0,,,,,0,,,80,0
113520,note_on,,,,,9,0,0,,,,,0,,,81,60
113595,note_on,,,,,75,0,0,,,,,0,,,81,0
113600,note_on,,,,,5,0,0,,,,,0,,,80,60
113675,note_on,,,,,75,0,0,,,,,0,,,80,0
113680,set_tempo,,,,,5,1,0,,857140,,,,,,,
113680,note_on,,,,,0,0,0,,,,,0,,,78,60
113831,note_on,,,,,151,0,0,,,,,0,,,78,0
113840,note_on,,,,,0,0,0,,,,,0,,,76,60
113840,set_tempo,,,,,9,1,0,,1200000,,,,,,,
113991,note_on,,,,,151,0,0,,,,,0,,,76,0
114000,note_on,,,,,9,0,0,,,,,0,,,71,72
114000,note_on,,,,,1933,0,1,,,,,0,,,33,60
114000,note_on,,,,,0,0,1,,,,,0,,,45,60
114001,control_change,,,,,1,0,0,,,64,0,0,,,,
114036,note_on,,,,,35,0,0,,,,,0,,,87,72
114227,note_on,,,,,227,0,1,,,,,0,,,33,0
114227,note_on,,,,,0,0,1,,,,,0,,,45,0
114240,note_on,,,,,0,0,1,,,,,0,,,71,60
114240,note_on,,,,,13,0,1,,,,,0,,,57,60
114240,note_on,,,,,0,0,1,,,,,0,,,66,60
114240,note_on,,,,,0,0,1,,,,,0,,,63,60
114467,note_on,,,,,0,0,1,,,,,0,,,63,0
114467,note_on,,,,,0,0,1,,,,,0,,,66,0
114467,note_on,,,,,0,0,1,,,,,0,,,71,0
114467,note_on,,,,,227,0,1,,,,,0,,,57,0
114480,set_tempo,,,,,444,1,0,,631580,,,,,,,
114480,note_on,,,,,13,0,1,,,,,0,,,57,62
114540,note_on,,,,,60,0,1,,,,,0,,,63,63
114592,note_on,,,,,112,0,0,,,,,0,,,87,0
114593,note_on,,,,,1,0,0,,,,,0,,,71,0
114600,note_on,,,,,60,0,1,,,,,0,,,66,63
114660,note_on,,,,,60,0,1,,,,,0,,,74,64
114716,note_on,,,,,56,0,1,,,,,0,,,74,0
114720,set_tempo,,,,,127,1,0,,1200000,,,,,,,
114720,note_on,,,,,4,0,1,,,,,0,,,72,65
114764,note_on,,,,,44,0,1,,,,,0,,,57,0
114824,note_on,,,,,60,0,1,,,,,0,,,63,0
114840,note_on,,,,,120,0,0,,,,,0,,,84,66
114840,note_on,,,,,0,0,0,,,,,0,,,87,66
114884,note_on,,,,,60,0,1,,,,,0,,,66,0
114947,note_on,,,,,63,0,1,,,,,0,,,72,0
114953,note_on,,,,,113,0,0,,,,,0,,,84,0
114953,note_on,,,,,0,0,0,,,,,0,,,87,0
114960,note_on,,,,,0,0,1,,,,,0,,,66,67
114960,note_on,,,,,0,0,1,,,,,0,,,63,67
114960,note_on,,,,,0,0,0,,,,,0,,,87,67
114960,note_on,,,,,13,0,1,,,,,0,,,57,67
114960,note_on,,,,,0,0,1,,,,,0,,,71,67
114960,note_on,,,,,7,0,0,,,,,0,,,83,67
115073,note_on,,,,,0,0,0,,,,,0,,,87,0
115073,note_on,,,,,113,0,0,,,,,0,,,83,0
115080,set_tempo,,,,,7,1,0,,857140,,,,,,,
115080,note_on,,,,,0,0,0,,,,,0,,,80,68
115080,note_on,,,,,0,0,0,,,,,0,,,87,68
115187,note_on,,,,,0,0,1,,,,,0,,,71,0
115187,note_on,,,,,0,0,1,,,,,0,,,66,0
115187,note_on,,,,,0,0,1,,,,,0,,,63,0
115187,note_on,,,,,227,0,1,,,,,0,,,57,0
115193,note_on,,,,,0,0,0,,,,,0,,,87,0
115193,note_on,,,,,113,0,0,,,,,0,,,80,0
115200,note_on,,,,,0,0,0,,,,,0,,,87,70
115200,note_on,,,,,7,0,0,,,,,0,,,78,70
115313,note_on,,,,,113,0,0,,,,,0,,,78,0
115313,note_on,,,,,0,0,0,,,,,0,,,87,0
115320,note_on,,,,,7,0,0,,,,,0,,,75,70
115320,note_on,,,,,0,0,0,,,,,0,,,87,70
115433,note_on,,,,,113,0,0,,,,,0,,,75,0
115433,note_on,,,,,0,0,0,,,,,0,,,87,0
115440,note_on,,,,,7,0,0,,,,,0,,,75,70
115440,note_on,,,,,0,0,0,,,,,0,,,84,70
115553,note_on,,,,,113,0,0,,,,,0,,,75,0
115553,note_on,,,,,0,0,0,,,,,0,,,84,0
115560,note_on,,,,,0,0,0,,,,,0,,,75,70
115560,note_on,,,,,0,0,0,,,,,0,,,83,70
115560,set_tempo,,,,,7,1,0,,631580,,,,,,,
115673,note_on,,,,,113,0,0,,,,,0,,,75,0
115673,note_on,,,,,0,0,0,,,,,0,,,83,0
115680,note_on,,,,,7,0,0,,,,,0,,,75,70
115680,note_on,,,,,0,0,0,,,,,0,,,80,70
115793,note_on,,,,,113,0,0,,,,,0,,,75,0
115793,note_on,,,,,0,0,0,,,,,0,,,80,0
115800,note_on,,,,,7,0,0,,,,,0,,,75,70
115800,note_on,,,,,0,0,0,,,,,0,,,78,70
115913,note_on,,,,,0,0,0,,,,,0,,,78,0
115913,note_on,,,,,113,0,0,,,,,0,,,75,0
115920,set_tempo,,,,,7,1,0,,571429,,,,,,,
115920,note_on,,,,,0,0,0,,,,,0,,,75,70
116033,note_on,,,,,113,0,0,,,,,0,,,75,0
116040,note_on,,,,,0,0,0,,,,,0,,,75,70
116040,note_on,,,,,7,0,0,,,,,0,,,72,70
116153,note_on,,,,,0,0,0,,,,,0,,,75,0
116153,note_on,,,,,113,0,0,,,,,0,,,72,0
116160,note_on,,,,,0,0,0,,,,,0,,,75,70
116160,note_on,,,,,7,0,0,,,,,0,,,71,70
116273,note_on,,,,,0,0,0,,,,,0,,,75,0
116273,note_on,,,,,113,0,0,,,,,0,,,71,0
116280,note_on,,,,,7,0,0,,,,,0,,,68,70
116280,note_on,,,,,0,0,0,,,,,0,,,75,70
116393,note_on,,,,,0,0,0,,,,,0,,,75,0
116393,note_on,,,,,113,0,0,,,,,0,,,68,0
116400,note_on,,,,,7,0,0,,,,,0,,,66,70
116400,note_on,,,,,0,0,0,,,,,0,,,75,70
116513,note_on,,,,,0,0,0,,,,,0,,,75,0
116513,note_on,,,,,113,0,0,,,,,0,,,66,0
116520,note_on,,,,,7,0,0,,,,,0,,,63,70
116520,note_on,,,,,0,0,0,,,,,0,,,75,70
116633,note_on,,,,,0,0,0,,,,,0,,,75,0
116633,note_on,,,,,113,0,0,,,,,0,,,63,0
116640,note_on,,,,,7,0,0,,,,,0,,,62,70
116640,note_on,,,,,0,0,0,,,,,0,,,74,70
116753,note_on,,,,,0,0,0,,,,,0,,,74,0
116753,note_on,,,,,113,0,0,,,,,0,,,62,0
116760,note_on,,,,,0,0,0,,,,,0,,,73,70
116760,note_on,,,,,7,0,0,,,,,0,,,61,70
116873,note_on,,,,,0,0,0,,,,,0,,,73,0
116873,note_on,,,,,113,0,0,,,,,0,,,61,0
116880,set_tempo,,,,,7,1,0,,857140,,,,,,,
116880,note_on,,,,,0,0,0,,,,,0,,,60,70
116880,note_on,,,,,0,0,0,,,,,0,,,72,70
116918,note_on,,,,,38,0,0,,,,,0,,,60,0
116918,note_on,,,,,0,0,0,,,,,0,,,72,0
117060,set_tempo,,,,,142,1,0,,1200000,,,,,,,
117060,note_on,,,,,0,0,0,,,,,0,,,59,70
117060,note_on,,,,,0,0,0,,,,,0,,,71,70
117116,note_on,,,,,56,0,0,,,,,0,,,59,0
117116,note_on,,,,,0,0,0,,,,,0,,,71,0
117120,set_tempo,,,,,4,1,0,,857140,,,,,,,
117120,note_on,,,,,0,0,1,,,,,0,,,46,70
117120,note_on,,,,,1933,0,1,,,,,0,,,34,70
117120,note_on,,,,,0,0,0,,,,,0,,,71,84
117120,note_on,,,,,0,0,0,,,,,0,,,59,84
117347,note_on,,,,,0,0,1,,,,,0,,,46,0
117347,note_on,,,,,227,0,1,,,,,0,,,34,0
117360,note_on,,,,,0,0,1,,,,,0,,,63,70
117360,note_on,,,,,13,0,1,,,,,0,,,55,70
117360,note_on,,,,,0,0,1,,,,,0,,,67,70
117560,note_on,,,,,0,0,0,,,,,0,,,71,0
117560,note_on,,,,,440,0,0,,,,,0,,,59,0
117587,note_on,,,,,0,0,1,,,,,0,,,63,0
117587,note_on,,,,,0,0,1,,,,,0,,,67,0
117587,note_on,,,,,227,0,1,,,,,0,,,55,0
117600,note_on,,,,,0,0,1,,,,,0,,,51,70
117600,note_on,,,,,0,0,1,,,,,0,,,55,70
117600,note_on,,,,,13,0,1,,,,,0,,,46,70
117720,note_on,,,,,160,0,0,,,,,0,,,58,70
117720,note_on,,,,,0,0,0,,,,,0,,,70,70
117827,note_on,,,,,227,0,1,,,,,0,,,46,0
117827,note_on,,,,,0,0,1,,,,,0,,,55,0
117827,note_on,,,,,0,0,1,,,,,0,,,51,0
117839,note_on,,,,,0,0,0,,,,,0,,,70,0
117839,note_on,,,,,119,0,0,,,,,0,,,58,0
117840,note_on,,,,,1,0,0,,,,,0,,,67,70
117840,note_on,,,,,0,0,0,,,,,0,,,79,70
117959,note_on,,,,,0,0,0,,,,,0,,,79,0
117959,note_on,,,,,119,0,0,,,,,0,,,67,0
117960,note_on,,,,,1,0,0,,,,,0,,,62,70
117960,note_on,,,,,0,0,0,,,,,0,,,74,70
118079,note_on,,,,,119,0,0,,,,,0,,,62,0
118079,note_on,,,,,0,0,0,,,,,0,,,74,0
118080,note_on,,,,,0,0,0,,,,,0,,,77,70
118080,note_on,,,,,1,0,0,,,,,0,,,65,70
118199,note_on,,,,,119,0,0,,,,,0,,,65,0
118199,note_on,,,,,0,0,0,,,,,0,,,77,0
118200,note_on,,,,,1,0,0,,,,,0,,,63,70
118200,note_on,,,,,0,0,0,,,,,0,,,75,70
118319,note_on,,,,,119,0,0,,,,,0,,,63,0
118319,note_on,,,,,0,0,0,,,,,0,,,75,0
118320,note_on,,,,,0,0,0,,,,,0,,,67,70
118320,note_on,,,,,1,0,0,,,,,0,,,55,70
118499,note_on,,,,,179,0,0,,,,,0,,,55,0
118499,note_on,,,,,0,0,0,,,,,0,,,67,0
118500,note_on,,,,,0,0,0,,,,,0,,,72,70
118500,note_on,,,,,1,0,0,,,,,0,,,60,70
118556,note_on,,,,,0,0,0,,,,,0,,,72,0
118556,note_on,,,,,56,0,0,,,,,0,,,60,0
118560,note_on,,,,,733,0,1,,,,,0,,,34,70
118560,note_on,,,,,4,0,0,,,,,0,,,60,84
118560,note_on,,,,,0,0,0,,,,,0,,,72,84
118560,note_on,,,,,0,0,1,,,,,0,,,46,70
118787,note_on,,,,,227,0,1,,,,,0,,,34,0
118787,note_on,,,,,0,0,1,,,,,0,,,46,0
118800,note_on,,,,,0,0,1,,,,,0,,,65,70
118800,note_on,,,,,13,0,1,,,,,0,,,62,70
118800,note_on,,,,,0,0,1,,,,,0,,,68,70
118994,note_on,,,,,0,0,0,,,,,0,,,72,0
118994,note_on,,,,,434,0,0,,,,,0,,,60,0
119027,note_on,,,,,0,0,1,,,,,0,,,65,0
119027,note_on,,,,,227,0,1,,,,,0,,,62,0
119027,note_on,,,,,0,0,1,,,,,0,,,68,0
119040,note_on,,,,,0,0,1,,,,,0,,,62,70
119040,note_on,,,,,0,0,1,,,,,0,,,53,70
119040,note_on,,,,,13,0,1,,,,,0,,,46,70
119040,note_on,,,,,0,0,1,,,,,0,,,56,70
119160,note_on,,,,,166,0,0,,,,,0,,,58,70
119160,note_on,,,,,0,0,0,,,,,0,,,70,70
119267,note_on,,,,,0,0,1,,,,,0,,,56,0
119267,note_on,,,,,0,0,1,,,,,0,,,53,0
119267,note_on,,,,,0,0,1,,,,,0,,,62,0
119267,note_on,,,,,227,0,1,,,,,0,,,46,0
119279,note_on,,,,,119,0,0,,,,,0,,,58,0
119279,note_on,,,,,0,0,0,,,,,0,,,70,0
119280,note_on,,,,,0,0,0,,,,,0,,,86,70
119280,note_on,,,,,1,0,0,,,,,0,,,74,70
119399,note_on,,,,,0,0,0,,,,,0,,,86,0
119399,note_on,,,,,119,0,0,,,,,0,,,74,0
119400,note_on,,,,,1,0,0,,,,,0,,,72,70
119400,note_on,,,,,0,0,0,,,,,0,,,84,70
119519,note_on,,,,,119,0,0,,,,,0,,,72,0
119519,note_on,,,,,0,0,0,,,,,0,,,84,0
119520,note_on,,,,,1,0,0,,,,,0,,,70,70
119520,note_on,,,,,0,0,0,,,,,0,,,82,70
119639,note_on,,,,,0,0,0,,,,,0,,,82,0
119639,note_on,,,,,119,0,0,,,,,0,,,70,0
119640,note_on,,,,,1,0,0,,,,,0,,,68,70
119640,note_on,,,,,0,0,0,,,,,0,,,80,70
119753,note_on,,,,,113,0,0,,,,,0,,,68,0
119753,note_on,,,,,0,0,0,,,,,0,,,80,0
119760,set_tempo,,,,,7,1,0,,1000000,,,,,,,
119760,note_on,,,,,0,0,0,,,,,0,,,59,70
119760,note_on,,,,,0,0,0,,,,,0,,,71,70
119873,note_on,,,,,113,0,0,,,,,0,,,59,0
119873,note_on,,,,,0,0,0,,,,,0,,,71,0
119880,note_on,,,,,7,0,0,,,,,0,,,60,70
119880,note_on,,,,,0,0,0,,,,,0,,,72,70
119993,note_on,,,,,113,0,0,,,,,0,,,60,0
119993,note_on,,,,,0,0,0,,,,,0,,,72,0
120000,note_on,,,,,0,0,0,,,,,0,,,61,70
120000,note_on,,,,,0,0,0,,,,,0,,,73,70
120000,set_tempo,,,,,7,1,0,,1200000,,,,,,,
120113,note_on,,,,,113,0,0,,,,,0,,,61,0
120113,note_on,,,,,0,0,0,,,,,0,,,73,0
120120,note_on,,,,,7,0,0,,,,,0,,,62,70
120120,note_on,,,,,0,0,0,,,,,0,,,74,70
120233,note_on,,,,,113,0,0,,,,,0,,,62,0
120233,note_on,,,,,0,0,0,,,,,0,,,74,0
120240,note_on,,,,,0,0,0,,,,,0,,,63,70
120240,set_tempo,,,,,0,1,0,,666667,,,,,,,
120240,note_on,,,,,973,0,1,,,,,0,,,39,70
120240,note_on,,,,,0,0,1,,,,,0,,,46,70
120240,time_signature,6,4,24,8,7,1,0,,,,,,,,,
120240,note_on,,,,,0,0,0,,,,,0,,,75,70
120240,note_on,,,,,0,0,1,,,,,0,,,55,70
120318,note_on,,,,,78,0,0,,,,,0,,,63,0
120318,note_on,,,,,78,0,1,,,,,0,,,39,0
120318,note_on,,,,,0,0,0,,,,,0,,,75,0
120318,note_on,,,,,0,0,1,,,,,0,,,55,0
120318,note_on,,,,,0,0,1,,,,,0,,,46,0
120720,note_on,,,,,0,0,1,,,,,0,,,51,70
120720,note_on,,,,,402,0,1,,,,,0,,,51,70
120765,note_on,,,,,45,0,1,,,,,0,,,51,0
120773,note_on,,,,,8,0,1,,,,,0,,,51,0
120779,note_on,,,,,6,0,1,,,,,0,,,53,70
120832,note_on,,,,,53,0,1,,,,,0,,,53,0
120839,note_on,,,,,7,0,1,,,,,0,,,51,70
120892,note_on,,,,,53,0,1,,,,,0,,,51,0
120900,note_on,,,,,8,0,1,,,,,0,,,53,70
120953,note_on,,,,,53,0,1,,,,,0,,,53,0
120959,note_on,,,,,6,0,1,,,,,0,,,51,70
121012,note_on,,,,,53,0,1,,,,,0,,,51,0
121019,note_on,,,,,7,0,1,,,,,0,,,53,70
121072,note_on,,,,,53,0,1,,,,,0,,,53,0
121080,note_on,,,,,8,0,1,,,,,0,,,51,70
121133,note_on,,,,,53,0,1,,,,,0,,,51,0
121139,note_on,,,,,6,0,1,,,,,0,,,53,70
121192,note_on,,,,,53,0,1,,,,,0,,,53,0
121199,note_on,,,,,7,0,1,,,,,0,,,51,70
121252,note_on,,,,,53,0,1,,,,,0,,,51,0
121260,note_on,,,,,8,0,1,,,,,0,,,53,70
121313,note_on,,,,,53,0,1,,,,,0,,,53,0
121319,note_on,,,,,6,0,1,,,,,0,,,51,70
121372,note_on,,,,,53,0,1,,,,,0,,,51,0
121379,note_on,,,,,7,0,1,,,,,0,,,53,70
121432,note_on,,,,,53,0,1,,,,,0,,,53,0
121440,note_on,,,,,8,0,1,,,,,0,,,51,70
121493,note_on,,,,,53,0,1,,,,,0,,,51,0
121499,note_on,,,,,6,0,1,,,,,0,,,53,70
121552,note_on,,,,,53,0,1,,,,,0,,,53,0
121559,note_on,,,,,7,0,1,,,,,0,,,51,70
121612,note_on,,,,,53,0,1,,,,,0,,,51,0
121620,note_on,,,,,8,0,1,,,,,0,,,53,70
121673,note_on,,,,,53,0,1,,,,,0,,,53,0
121679,note_on,,,,,6,0,1,,,,,0,,,51,70
121732,note_on,,,,,53,0,1,,,,,0,,,51,0
121739,note_on,,,,,7,0,1,,,,,0,,,53,70
121792,note_on,,,,,53,0,1,,,,,0,,,53,0
121800,note_on,,,,,8,0,1,,,,,0,,,51,70
121853,note_on,,,,,53,0,1,,,,,0,,,51,0
121859,note_on,,,,,6,0,1,,,,,0,,,53,70
121912,note_on,,,,,53,0,1,,,,,0,,,53,0
121919,note_on,,,,,7,0,1,,,,,0,,,51,70
121972,note_on,,,,,53,0,1,,,,,0,,,51,0
121980,note_on,,,,,8,0,1,,,,,0,,,53,70
122033,note_on,,,,,53,0,1,,,,,0,,,53,0
122039,note_on,,,,,6,0,1,,,,,0,,,51,70
122092,note_on,,,,,53,0,1,,,,,0,,,51,0
122099,note_on,,,,,7,0,1,,,,,0,,,53,70
122152,note_on,,,,,53,0,1,,,,,0,,,53,0
122160,set_tempo,,,,,1842,1,0,,428572,,,,,,,
122160,note_on,,,,,8,0,1,,,,,0,,,50,70
122266,note_on,,,,,106,0,1,,,,,0,,,50,0
122267,note_on,,,,,1,0,1,,,,,0,,,51,69
122373,note_on,,,,,106,0,1,,,,,0,,,51,0
122374,note_on,,,,,1,0,1,,,,,0,,,55,68
122480,note_on,,,,,106,0,1,,,,,0,,,55,0
122481,note_on,,,,,1,0,1,,,,,0,,,58,67
122587,note_on,,,,,106,0,1,,,,,0,,,58,0
122588,note_on,,,,,1,0,1,,,,,0,,,61,66
122694,note_on,,,,,106,0,1,,,,,0,,,61,0
122695,note_on,,,,,1,0,1,,,,,0,,,63,65
122801,note_on,,,,,106,0,1,,,,,0,,,63,0
122802,note_on,,,,,1,0,1,,,,,0,,,67,64
122908,note_on,,,,,106,0,1,,,,,0,,,67,0
122909,note_on,,,,,1,0,1,,,,,0,,,70,63
123015,note_on,,,,,106,0,1,,,,,0,,,70,0
123016,note_on,,,,,1,0,1,,,,,0,,,73,62
123116,note_on,,,,,100,0,1,,,,,0,,,73,0
123120,note_on,,,,,0,0,0,,,,,0,,,77,72
123120,set_tempo,,,,,960,1,0,,666667,,,,,,,
123240,note_on,,,,,124,0,1,,,,,0,,,51,60
123359,note_on,,,,,119,0,1,,,,,0,,,51,0
123360,note_on,,,,,1,0,1,,,,,0,,,65,60
123360,note_on,,,,,240,0,0,,,,,0,,,61,60
123360,note_on,,,,,0,0,0,,,,,0,,,67,60
123479,note_on,,,,,119,0,1,,,,,0,,,65,0
123480,note_on,,,,,1,0,1,,,,,0,,,63,60
123599,note_on,,,,,0,0,0,,,,,0,,,67,0
123599,note_on,,,,,119,0,1,,,,,0,,,63,0
123599,note_on,,,,,239,0,0,,,,,0,,,61,0
123600,note_on,,,,,0,0,0,,,,,0,,,67,60
123600,note_on,,,,,1,0,1,,,,,0,,,60,60
123600,note_on,,,,,1,0,0,,,,,0,,,61,60
123719,note_on,,,,,119,0,1,,,,,0,,,60,0
123720,note_on,,,,,1,0,1,,,,,0,,,58,60
123839,note_on,,,,,0,0,0,,,,,0,,,61,0
123839,note_on,,,,,0,0,0,,,,,0,,,67,0
123839,note_on,,,,,239,0,0,,,,,0,,,77,0
123839,note_on,,,,,119,0,1,,,,,0,,,58,0
123840,note_on,,,,,1,0,1,,,,,0,,,53,60
123840,note_on,,,,,1,0,0,,,,,0,,,75,60
123840,note_on,,,,,0,0,0,,,,,0,,,61,60
123840,note_on,,,,,0,0,0,,,,,0,,,67,60
123959,note_on,,,,,119,0,1,,,,,0,,,53,0
123960,note_on,,,,,1,0,1,,,,,0,,,51,60
124079,note_on,,,,,239,0,0,,,,,0,,,75,0
124079,note_on,,,,,119,0,1,,,,,0,,,51,0
124079,note_on,,,,,0,0,0,,,,,0,,,67,0
124079,note_on,,,,,0,0,0,,,,,0,,,61,0
124080,note_on,,,,,1,0,0,,,,,0,,,69,60
124080,note_on,,,,,1,0,1,,,,,0,,,48,60
124080,note_on,,,,,0,0,0,,,,,0,,,61,60
124080,note_on,,,,,0,0,0,,,,,0,,,67,60
124199,note_on,,,,,119,0,1,,,,,0,,,48,0
124200,note_on,,,,,1,0,1,,,,,0,,,46,60
124319,note_on,,,,,0,0,0,,,,,0,,,61,0
124319,note_on,,,,,239,0,0,,,,,0,,,69,0
124319,note_on,,,,,119,0,1,,,,,0,,,46,0
124319,note_on,,,,,0,0,0,,,,,0,,,67,0
124320,note_on,,,,,1,0,0,,,,,0,,,70,60
124320,note_on,,,,,0,0,0,,,,,0,,,67,60
124320,note_on,,,,,0,0,0,,,,,0,,,61,60
124320,note_on,,,,,1,0,1,,,,,0,,,41,60
124439,note_on,,,,,119,0,1,,,,,0,,,41,0
124440,note_on,,,,,1,0,1,,,,,0,,,39,60
124547,note_on,,,,,0,0,0,,,,,0,,,61,0
124547,note_on,,,,,0,0,0,,,,,0,,,67,0
124547,note_on,,,,,227,0,0,,,,,0,,,70,0
124553,note_on,,,,,113,0,1,,,,,0,,,39,0
124560,note_on,,,,,13,0,0,,,,,0,,,78,72
124680,note_on,,,,,127,0,1,,,,,0,,,51,60
124799,note_on,,,,,119,0,1,,,,,0,,,51,0
124800,note_on,,,,,1,0,1,,,,,0,,,66,60
124800,note_on,,,,,240,0,0,,,,,0,,,63,60
124800,note_on,,,,,0,0,0,,,,,0,,,69,60
124919,note_on,,,,,119,0,1,,,,,0,,,66,0
124920,note_on,,,,,1,0,1,,,,,0,,,65,60
125039,note_on,,,,,239,0,0,,,,,0,,,63,0
125039,note_on,,,,,0,0,0,,,,,0,,,69,0
125039,note_on,,,,,119,0,1,,,,,0,,,65,0
125040,note_on,,,,,1,0,1,,,,,0,,,61,60
125040,note_on,,,,,1,0,0,,,,,0,,,63,60
125040,note_on,,,,,0,0,0,,,,,0,,,69,60
125159,note_on,,,,,119,0,1,,,,,0,,,61,0
125160,note_on,,,,,1,0,1,,,,,0,,,60,60
125279,note_on,,,,,0,0,0,,,,,0,,,63,0
125279,note_on,,,,,119,0,1,,,,,0,,,60,0
125279,note_on,,,,,0,0,0,,,,,0,,,69,0
125279,note_on,,,,,239,0,0,,,,,0,,,78,0
125280,note_on,,,,,0,0,0,,,,,0,,,63,60
125280,note_on,,,,,1,0,0,,,,,0,,,77,60
125280,note_on,,,,,1,0,1,,,,,0,,,54,60
125280,note_on,,,,,0,0,0,,,,,0,,,69,60
125399,note_on,,,,,119,0,1,,,,,0,,,54,0
125400,note_on,,,,,1,0,1,,,,,0,,,53,60
125519,note_on,,,,,0,0,0,,,,,0,,,63,0
125519,note_on,,,,,0,0,0,,,,,0,,,69,0
125519,note_on,,,,,119,0,1,,,,,0,,,53,0
125519,note_on,,,,,239,0,0,,,,,0,,,77,0
125520,note_on,,,,,1,0,0,,,,,0,,,71,60
125520,note_on,,,,,1,0,1,,,,,0,,,49,60
125520,note_on,,,,,0,0,0,,,,,0,,,63,60
125520,note_on,,,,,0,0,0,,,,,0,,,69,60
125639,note_on,,,,,119,0,1,,,,,0,,,49,0
125640,note_on,,,,,1,0,1,,,,,0,,,48,60
125759,note_on,,,,,0,0,0,,,,,0,,,63,0
125759,note_on,,,,,0,0,0,,,,,0,,,69,0
125759,note_on,,,,,239,0,0,,,,,0,,,71,0
125759,note_on,,,,,119,0,1,,,,,0,,,48,0
125760,note_on,,,,,1,0,0,,,,,0,,,72,60
125760,note_on,,,,,1,0,1,,,,,0,,,42,60
125760,note_on,,,,,0,0,0,,,,,0,,,69,60
125760,note_on,,,,,0,0,0,,,,,0,,,63,60
125879,note_on,,,,,119,0,1,,,,,0,,,42,0
125880,note_on,,,,,1,0,1,,,,,0,,,39,60
125987,note_on,,,,,0,0,0,,,,,0,,,69,0
125987,note_on,,,,,0,0,0,,,,,0,,,63,0
125987,note_on,,,,,227,0,0,,,,,0,,,72,0
125993,note_on,,,,,113,0,1,,,,,0,,,39,0
126000,note_on,,,,,13,0,0,,,,,0,,,80,60
126120,note_on,,,,,127,0,1,,,,,0,,,51,60
126239,note_on,,,,,119,0,1,,,,,0,,,51,0
126240,note_on,,,,,1,0,1,,,,,0,,,68,60
126240,note_on,,,,,0,0,0,,,,,0,,,71,60
126240,note_on,,,,,240,0,0,,,,,0,,,65,60
126359,note_on,,,,,119,0,1,,,,,0,,,68,0
126360,note_on,,,,,1,0,1,,,,,0,,,67,60
126467,note_on,,,,,227,0,0,,,,,0,,,65,0
126467,note_on,,,,,0,0,0,,,,,0,,,71,0
126479,note_on,,,,,119,0,1,,,,,0,,,67,0
126480,note_on,,,,,1,0,1,,,,,0,,,63,60
126480,note_on,,,,,13,0,0,,,,,0,,,65,60
126480,note_on,,,,,0,0,0,,,,,0,,,71,60
126599,note_on,,,,,119,0,1,,,,,0,,,63,0
126600,note_on,,,,,1,0,1,,,,,0,,,62,60
126707,note_on,,,,,227,0,0,,,,,0,,,65,0
126707,note_on,,,,,0,0,0,,,,,0,,,71,0
126719,note_on,,,,,119,0,1,,,,,0,,,62,0
126720,note_on,,,,,0,0,0,,,,,0,,,71,60
126720,note_on,,,,,13,0,0,,,,,0,,,65,60
126720,note_on,,,,,1,0,1,,,,,0,,,56,60
126839,note_on,,,,,119,0,1,,,,,0,,,56,0
126840,note_on,,,,,1,0,1,,,,,0,,,55,60
126911,note_on,,,,,191,0,0,,,,,0,,,80,0
126947,note_on,,,,,36,0,0,,,,,0,,,65,0
126947,note_on,,,,,0,0,0,,,,,0,,,71,0
126959,note_on,,,,,119,0,1,,,,,0,,,55,0
126960,note_on,,,,,0,0,0,,,,,0,,,65,60
126960,note_on,,,,,0,0,0,,,,,0,,,71,60
126960,note_on,,,,,1,0,1,,,,,0,,,51,60
126960,note_on,,,,,13,0,0,,,,,0,,,79,60
127079,note_on,,,,,119,0,1,,,,,0,,,51,0
127080,note_on,,,,,1,0,1,,,,,0,,,50,60
127187,note_on,,,,,0,0,0,,,,,0,,,71,0
127187,note_on,,,,,227,0,0,,,,,0,,,65,0
127199,note_on,,,,,119,0,1,,,,,0,,,50,0
127200,note_on,,,,,13,0,0,,,,,0,,,65,60
127200,note_on,,,,,1,0,1,,,,,0,,,44,60
127200,note_on,,,,,0,0,0,,,,,0,,,71,60
127319,note_on,,,,,119,0,1,,,,,0,,,44,0
127320,note_on,,,,,1,0,1,,,,,0,,,43,60
127415,note_on,,,,,215,0,0,,,,,0,,,79,0
127427,note_on,,,,,0,0,0,,,,,0,,,71,0
127427,note_on,,,,,12,0,0,,,,,0,,,65,0
127433,note_on,,,,,113,0,1,,,,,0,,,43,0
127440,note_on,,,,,0,0,0,,,,,0,,,73,60
127440,note_on,,,,,0,0,0,,,,,0,,,67,60
127440,note_on,,,,,13,0,0,,,,,0,,,82,60
127518,note_on,,,,,78,0,0,,,,,0,,,82,0
127667,note_on,,,,,0,0,0,,,,,0,,,73,0
127667,note_on,,,,,149,0,0,,,,,0,,,67,0
127680,note_on,,,,,0,0,1,,,,,0,,,39,60
127680,note_on,,,,,247,0,1,,,,,0,,,39,60
127725,note_on,,,,,45,0,1,,,,,0,,,39,0
127735,note_on,,,,,10,0,1,,,,,0,,,39,0
127740,note_on,,,,,5,0,1,,,,,0,,,41,60
127795,note_on,,,,,55,0,1,,,,,0,,,41,0
127800,note_on,,,,,5,0,1,,,,,0,,,39,60
127855,note_on,,,,,55,0,1,,,,,0,,,39,0
127860,note_on,,,,,5,0,1,,,,,0,,,41,60
127915,note_on,,,,,55,0,1,,,,,0,,,41,0
127920,note_on,,,,,5,0,1,,,,,0,,,39,60
127975,note_on,,,,,55,0,1,,,,,0,,,39,0
127980,note_on,,,,,5,0,1,,,,,0,,,41,60
128035,note_on,,,,,55,0,1,,,,,0,,,41,0
128040,note_on,,,,,5,0,1,,,,,0,,,39,60
128095,note_on,,,,,55,0,1,,,,,0,,,39,0
128100,note_on,,,,,5,0,1,,,,,0,,,41,60
128155,note_on,,,,,55,0,1,,,,,0,,,41,0
128160,note_on,,,,,5,0,1,,,,,0,,,38,60
128239,note_on,,,,,79,0,1,,,,,0,,,38,0
128240,note_on,,,,,1,0,1,,,,,0,,,39,60
128319,note_on,,,,,79,0,1,,,,,0,,,39,0
128320,note_on,,,,,1,0,1,,,,,0,,,43,60
128399,note_on,,,,,79,0,1,,,,,0,,,43,0
128400,note_on,,,,,1,0,1,,,,,0,,,46,60
128479,note_on,,,,,79,0,1,,,,,0,,,46,0
128480,note_on,,,,,1,0,1,,,,,0,,,49,60
128559,note_on,,,,,79,0,1,,,,,0,,,49,0
128560,note_on,,,,,1,0,1,,,,,0,,,51,60
128639,note_on,,,,,79,0,1,,,,,0,,,51,0
128640,note_on,,,,,1,0,1,,,,,0,,,55,60
128719,note_on,,,,,79,0,1,,,,,0,,,55,0
128720,note_on,,,,,1,0,1,,,,,0,,,58,60
128799,note_on,,,,,79,0,1,,,,,0,,,58,0
128800,note_on,,,,,1,0,1,,,,,0,,,61,60
128875,note_on,,,,,75,0,1,,,,,0,,,61,0
128880,note_on,,,,,5,0,1,,,,,0,,,65,84
128882,control_change,,,,,2,0,1,,,64,127,0,,,,
128960,note_on,,,,,1293,0,0,,,,,0,,,67,70
129039,note_on,,,,,79,0,0,,,,,0,,,67,0
129040,note_on,,,,,1,0,0,,,,,0,,,70,70
129119,note_on,,,,,79,0,0,,,,,0,,,70,0
129120,note_on,,,,,0,0,1,,,,,0,,,61,70
129120,note_on,,,,,238,0,1,,,,,0,,,51,70
129120,note_on,,,,,0,0,1,,,,,0,,,55,70
129120,note_on,,,,,1,0,0,,,,,0,,,73,70
129199,note_on,,,,,79,0,0,,,,,0,,,73,0
129200,note_on,,,,,1,0,0,,,,,0,,,75,70
129239,note_on,,,,,119,0,1,,,,,0,,,51,0
129239,note_on,,,,,0,0,1,,,,,0,,,55,0
129239,note_on,,,,,0,0,1,,,,,0,,,61,0
129279,note_on,,,,,79,0,0,,,,,0,,,75,0
129280,note_on,,,,,1,0,0,,,,,0,,,79,70
129359,note_on,,,,,79,0,0,,,,,0,,,79,0
129360,note_on,,,,,121,0,1,,,,,0,,,51,70
129360,note_on,,,,,1,0,0,,,,,0,,,82,70
129360,note_on,,,,,0,0,1,,,,,0,,,55,70
129360,note_on,,,,,0,0,1,,,,,0,,,61,70
129439,note_on,,,,,79,0,0,,,,,0,,,82,0
129440,note_on,,,,,1,0,0,,,,,0,,,85,70
129479,note_on,,,,,0,0,1,,,,,0,,,55,0
129479,note_on,,,,,0,0,1,,,,,0,,,61,0
129479,note_on,,,,,119,0,1,,,,,0,,,51,0
129519,note_on,,,,,79,0,0,,,,,0,,,85,0
129520,note_on,,,,,1,0,0,,,,,0,,,89,70
129599,note_on,,,,,79,0,0,,,,,0,,,89,0
129599,note_on,,,,,120,0,1,,,,,0,,,65,0
129600,note_on,,,,,1,0,1,,,,,0,,,63,70
129600,note_on,,,,,1,0,0,,,,,0,,,87,70
129679,note_on,,,,,79,0,0,,,,,0,,,87,0
129680,note_on,,,,,1,0,0,,,,,0,,,85,70
129759,note_on,,,,,79,0,0,,,,,0,,,85,0
129760,note_on,,,,,1,0,0,,,,,0,,,82,70
129839,note_on,,,,,239,0,1,,,,,0,,,63,0
129839,note_on,,,,,79,0,0,,,,,0,,,82,0
129840,note_on,,,,,1,0,0,,,,,0,,,79,70
129840,note_on,,,,,1,0,1,,,,,0,,,57,70
129919,note_on,,,,,79,0,0,,,,,0,,,79,0
129920,note_on,,,,,1,0,0,,,,,0,,,75,70
129999,note_on,,,,,79,0,0,,,,,0,,,75,0
130000,note_on,,,,,1,0,0,,,,,0,,,73,70
130079,note_on,,,,,79,0,0,,,,,0,,,73,0
130079,note_on,,,,,239,0,1,,,,,0,,,57,0
130080,note_on,,,,,1,0,0,,,,,0,,,70,70
130080,note_on,,,,,1,0,1,,,,,0,,,58,70
130159,note_on,,,,,79,0,0,,,,,0,,,70,0
130160,note_on,,,,,1,0,0,,,,,0,,,67,70
130239,note_on,,,,,79,0,0,,,,,0,,,67,0
130240,note_on,,,,,1,0,0,,,,,0,,,63,70
130307,note_on,,,,,227,0,1,,,,,0,,,58,0
130315,note_on,,,,,75,0,0,,,,,0,,,63,0
130320,note_on,,,,,13,0,1,,,,,0,,,66,84
130321,control_change,,,,,1,0,1,,,64,0,0,,,,
130322,control_change,,,,,1,0,1,,,64,127,0,,,,
130400,note_on,,,,,85,0,0,,,,,0,,,69,70
130479,note_on,,,,,79,0,0,,,,,0,,,69,0
130480,note_on,,,,,1,0,0,,,,,0,,,72,70
130559,note_on,,,,,79,0,0,,,,,0,,,72,0
130560,note_on,,,,,0,0,1,,,,,0,,,57,70
130560,note_on,,,,,1,0,0,,,,,0,,,75,70
130560,note_on,,,,,0,0,1,,,,,0,,,60,70
130560,note_on,,,,,238,0,1,,,,,0,,,51,70
130639,note_on,,,,,79,0,0,,,,,0,,,75,0
130640,note_on,,,,,1,0,0,,,,,0,,,78,70
130679,note_on,,,,,0,0,1,,,,,0,,,60,0
130679,note_on,,,,,0,0,1,,,,,0,,,57,0
130679,note_on,,,,,119,0,1,,,,,0,,,51,0
130719,note_on,,,,,79,0,0,,,,,0,,,78,0
130720,note_on,,,,,1,0,0,,,,,0,,,81,70
130799,note_on,,,,,79,0,0,,,,,0,,,81,0
130800,note_on,,,,,121,0,1,,,,,0,,,51,70
130800,note_on,,,,,1,0,0,,,,,0,,,84,70
130800,note_on,,,,,0,0,1,,,,,0,,,57,70
130800,note_on,,,,,0,0,1,,,,,0,,,60,70
130879,note_on,,,,,79,0,0,,,,,0,,,84,0
130880,note_on,,,,,1,0,0,,,,,0,,,87,70
130919,note_on,,,,,0,0,1,,,,,0,,,57,0
130919,note_on,,,,,0,0,1,,,,,0,,,60,0
130919,note_on,,,,,119,0,1,,,,,0,,,51,0
130959,note_on,,,,,79,0,0,,,,,0,,,87,0
130960,note_on,,,,,1,0,0,,,,,0,,,90,70
131039,note_on,,,,,120,0,1,,,,,0,,,66,0
131039,note_on,,,,,79,0,0,,,,,0,,,90,0
131040,note_on,,,,,1,0,1,,,,,0,,,65,70
131040,note_on,,,,,1,0,0,,,,,0,,,89,70
131119,note_on,,,,,79,0,0,,,,,0,,,89,0
131120,note_on,,,,,1,0,0,,,,,0,,,87,70
131199,note_on,,,,,79,0,0,,,,,0,,,87,0
131200,note_on,,,,,1,0,0,,,,,0,,,84,70
131279,note_on,,,,,79,0,0,,,,,0,,,84,0
131279,note_on,,,,,239,0,1,,,,,0,,,65,0
131280,note_on,,,,,1,0,0,,,,,0,,,81,70
131280,note_on,,,,,1,0,1,,,,,0,,,59,70
131359,note_on,,,,,79,0,0,,,,,0,,,81,0
131360,note_on,,,,,1,0,0,,,,,0,,,77,70
131439,note_on,,,,,79,0,0,,,,,0,,,77,0
131440,note_on,,,,,1,0,0,,,,,0,,,75,70
131519,note_on,,,,,239,0,1,,,,,0,,,59,0
131519,note_on,,,,,79,0,0,,,,,0,,,75,0
131520,note_on,,,,,1,0,0,,,,,0,,,72,70
131520,note_on,,,,,1,0,1,,,,,0,,,60,70
131599,note_on,,,,,79,0,0,,,,,0,,,72,0
131600,note_on,,,,,1,0,0,,,,,0,,,69,70
131679,note_on,,,,,79,0,0,,,,,0,,,69,0
131680,note_on,,,,,1,0,0,,,,,0,,,65,70
131747,note_on,,,,,227,0,1,,,,,0,,,60,0
131755,note_on,,,,,75,0,0,,,,,0,,,65,0
131760,note_on,,,,,13,0,1,,,,,0,,,68,84
131761,control_change,,,,,1,0,1,,,64,0,0,,,,
131840,note_on,,,,,85,0,0,,,,,0,,,71,70
131919,note_on,,,,,79,0,0,,,,,0,,,71,0
131920,note_on,,,,,1,0,0,,,,,0,,,74,71
131999,note_on,,,,,79,0,0,,,,,0,,,74,0
132000,note_on,,,,,0,0,1,,,,,0,,,59,72
132000,note_on,,,,,0,0,1,,,,,0,,,62,72
132000,note_on,,,,,239,0,1,,,,,0,,,51,72
132000,note_on,,,,,1,0,0,,,,,0,,,77,72
132079,note_on,,,,,79,0,0,,,,,0,,,77,0
132080,note_on,,,,,1,0,0,,,,,0,,,80,73
132119,note_on,,,,,0,0,1,,,,,0,,,62,0
132119,note_on,,,,,119,0,1,,,,,0,,,51,0
132119,note_on,,,,,0,0,1,,,,,0,,,59,0
132159,note_on,,,,,79,0,0,,,,,0,,,80,0
132160,note_on,,,,,1,0,0,,,,,0,,,83,75
132239,note_on,,,,,79,0,0,,,,,0,,,83,0
132240,note_on,,,,,121,0,1,,,,,0,,,51,75
132240,note_on,,,,,1,0,0,,,,,0,,,86,75
132240,note_on,,,,,0,0,1,,,,,0,,,59,75
132240,note_on,,,,,0,0,1,,,,,0,,,62,75
132319,note_on,,,,,79,0,0,,,,,0,,,86,0
132320,note_on,,,,,1,0,0,,,,,0,,,89,75
132359,note_on,,,,,119,0,1,,,,,0,,,51,0
132359,note_on,,,,,0,0,1,,,,,0,,,59,0
132359,note_on,,,,,0,0,1,,,,,0,,,62,0
132399,note_on,,,,,79,0,0,,,,,0,,,89,0
132400,note_on,,,,,1,0,0,,,,,0,,,92,75
132402,note_on,,,,,43,0,1,,,,,0,,,68,0
132479,note_on,,,,,79,0,0,,,,,0,,,92,0
132480,note_on,,,,,0,0,1,,,,,0,,,62,75
132480,note_on,,,,,0,0,1,,,,,0,,,59,75
132480,note_on,,,,,78,0,1,,,,,0,,,51,75
132480,note_on,,,,,1,0,0,,,,,0,,,91,75
132559,note_on,,,,,79,0,0,,,,,0,,,91,0
132560,note_on,,,,,1,0,0,,,,,0,,,89,75
132599,note_on,,,,,0,0,1,,,,,0,,,59,0
132599,note_on,,,,,0,0,1,,,,,0,,,62,0
132599,note_on,,,,,119,0,1,,,,,0,,,51,0
132639,note_on,,,,,79,0,0,,,,,0,,,89,0
132640,note_on,,,,,1,0,0,,,,,0,,,86,75
132719,note_on,,,,,79,0,0,,,,,0,,,86,0
132720,note_on,,,,,1,0,0,,,,,0,,,83,75
132720,note_on,,,,,121,0,1,,,,,0,,,67,75
132799,note_on,,,,,79,0,0,,,,,0,,,83,0
132800,note_on,,,,,1,0,0,,,,,0,,,79,75
132879,note_on,,,,,79,0,0,,,,,0,,,79,0
132880,note_on,,,,,1,0,0,,,,,0,,,77,75
132959,note_on,,,,,79,0,0,,,,,0,,,77,0
132960,note_on,,,,,1,0,0,,,,,0,,,74,75
132960,note_on,,,,,0,0,1,,,,,0,,,62,75
132960,note_on,,,,,0,0,1,,,,,0,,,59,75
132960,note_on,,,,,240,0,1,,,,,0,,,51,75
133039,note_on,,,,,79,0,0,,,,,0,,,74,0
133040,note_on,,,,,1,0,0,,,,,0,,,71,75
133119,note_on,,,,,79,0,0,,,,,0,,,71,0
133120,note_on,,,,,1,0,0,,,,,0,,,67,75
133175,note_on,,,,,215,0,1,,,,,0,,,67,0
133187,note_on,,,,,0,0,1,,,,,0,,,62,0
133187,note_on,,,,,0,0,1,,,,,0,,,59,0
133187,note_on,,,,,12,0,1,,,,,0,,,51,0
133195,note_on,,,,,75,0,0,,,,,0,,,67,0
133200,note_on,,,,,13,0,1,,,,,0,,,70,75
133280,note_on,,,,,85,0,0,,,,,0,,,73,75
133359,note_on,,,,,79,0,0,,,,,0,,,73,0
133360,note_on,,,,,1,0,0,,,,,0,,,76,77
133439,note_on,,,,,79,0,0,,,,,0,,,76,0
133440,note_on,,,,,0,0,1,,,,,0,,,64,79
133440,note_on,,,,,240,0,1,,,,,0,,,51,79
133440,note_on,,,,,1,0,0,,,,,0,,,79,79
133440,note_on,,,,,0,0,1,,,,,0,,,61,79
133519,note_on,,,,,79,0,0,,,,,0,,,79,0
133520,note_on,,,,,1,0,0,,,,,0,,,82,81
133559,note_on,,,,,119,0,1,,,,,0,,,51,0
133559,note_on,,,,,0,0,1,,,,,0,,,64,0
133559,note_on,,,,,0,0,1,,,,,0,,,61,0
133599,note_on,,,,,79,0,0,,,,,0,,,82,0
133600,note_on,,,,,1,0,0,,,,,0,,,85,83
133679,note_on,,,,,79,0,0,,,,,0,,,85,0
133680,note_on,,,,,0,0,1,,,,,0,,,64,85
133680,note_on,,,,,1,0,0,,,,,0,,,88,85
133680,note_on,,,,,121,0,1,,,,,0,,,51,85
133680,note_on,,,,,0,0,1,,,,,0,,,61,85
133759,note_on,,,,,79,0,0,,,,,0,,,88,0
133760,note_on,,,,,1,0,0,,,,,0,,,91,85
133799,note_on,,,,,119,0,1,,,,,0,,,51,0
133799,note_on,,,,,0,0,1,,,,,0,,,61,0
133799,note_on,,,,,0,0,1,,,,,0,,,64,0
133839,note_on,,,,,79,0,0,,,,,0,,,91,0
133840,note_on,,,,,1,0,0,,,,,0,,,96,85
133919,note_on,,,,,79,0,0,,,,,0,,,96,0
133920,note_on,,,,,1,0,0,,,,,0,,,94,85
133920,note_on,,,,,0,0,1,,,,,0,,,64,85
133920,note_on,,,,,0,0,1,,,,,0,,,61,85
133920,note_on,,,,,121,0,1,,,,,0,,,51,85
133999,note_on,,,,,79,0,0,,,,,0,,,94,0
134000,note_on,,,,,1,0,0,,,,,0,,,91,85
134039,note_on,,,,,119,0,1,,,,,0,,,51,0
134039,note_on,,,,,0,0,1,,,,,0,,,64,0
134039,note_on,,,,,0,0,1,,,,,0,,,61,0
134079,note_on,,,,,79,0,0,,,,,0,,,91,0
134080,note_on,,,,,1,0,0,,,,,0,,,88,85
134111,note_on,,,,,72,0,1,,,,,0,,,70,0
134159,note_on,,,,,79,0,0,,,,,0,,,88,0
134160,note_on,,,,,1,0,0,,,,,0,,,85,85
134228,note_on,,,,,68,0,0,,,,,0,,,85,0
134229,note_on,,,,,1,0,0,,,,,0,,,82,85
134297,note_on,,,,,68,0,0,,,,,0,,,82,0
134298,note_on,,,,,1,0,0,,,,,0,,,79,85
134366,note_on,,,,,68,0,0,,,,,0,,,79,0
134367,note_on,,,,,1,0,0,,,,,0,,,76,85
134400,note_on,,,,,289,0,1,,,,,0,,,51,85
134400,note_on,,,,,0,0,1,,,,,0,,,61,85
134400,note_on,,,,,0,0,1,,,,,0,,,64,85
134435,note_on,,,,,68,0,0,,,,,0,,,76,0
134436,note_on,,,,,1,0,0,,,,,0,,,73,85
134504,note_on,,,,,68,0,0,,,,,0,,,73,0
134505,note_on,,,,,1,0,0,,,,,0,,,70,85
134573,note_on,,,,,68,0,0,,,,,0,,,70,0
134574,note_on,,,,,1,0,0,,,,,0,,,67,85
134627,note_on,,,,,227,0,1,,,,,0,,,51,0
134627,note_on,,,,,0,0,1,,,,,0,,,64,0
134627,note_on,,,,,0,0,1,,,,,0,,,61,0
134638,note_on,,,,,64,0,0,,,,,0,,,67,0
134640,note_on,,,,,13,0,1,,,,,0,,,68,102
134720,note_on,,,,,82,0,0,,,,,0,,,71,85
134799,note_on,,,,,79,0,0,,,,,0,,,71,0
134800,note_on,,,,,1,0,0,,,,,0,,,74,85
134879,note_on,,,,,79,0,0,,,,,0,,,74,0
134880,note_on,,,,,240,0,1,,,,,0,,,51,85
134880,note_on,,,,,1,0,0,,,,,0,,,77,85
134880,note_on,,,,,0,0,1,,,,,0,,,59,85
134880,note_on,,,,,0,0,1,,,,,0,,,62,85
134959,note_on,,,,,79,0,0,,,,,0,,,77,0
134960,note_on,,,,,1,0,0,,,,,0,,,80,85
135039,note_on,,,,,79,0,0,,,,,0,,,80,0
135040,note_on,,,,,1,0,0,,,,,0,,,83,85
135119,note_on,,,,,0,0,1,,,,,0,,,62,0
135119,note_on,,,,,79,0,0,,,,,0,,,83,0
135119,note_on,,,,,239,0,1,,,,,0,,,51,0
135119,note_on,,,,,0,0,1,,,,,0,,,59,0
135120,note_on,,,,,0,0,1,,,,,0,,,59,85
135120,note_on,,,,,1,0,0,,,,,0,,,86,85
135120,note_on,,,,,0,0,1,,,,,0,,,62,85
135120,note_on,,,,,1,0,1,,,,,0,,,51,85
135199,note_on,,,,,79,0,0,,,,,0,,,86,0
135200,note_on,,,,,1,0,0,,,,,0,,,89,85
135279,note_on,,,,,79,0,0,,,,,0,,,89,0
135280,note_on,,,,,1,0,0,,,,,0,,,92,85
135282,note_on,,,,,162,0,1,,,,,0,,,68,0
135359,note_on,,,,,79,0,0,,,,,0,,,92,0
135359,note_on,,,,,77,0,1,,,,,0,,,51,0
135359,note_on,,,,,0,0,1,,,,,0,,,59,0
135359,note_on,,,,,0,0,1,,,,,0,,,62,0
135360,note_on,,,,,1,0,1,,,,,0,,,51,85
135360,note_on,,,,,1,0,0,,,,,0,,,91,85
135360,note_on,,,,,0,0,1,,,,,0,,,59,85
135360,note_on,,,,,0,0,1,,,,,0,,,62,85
135439,note_on,,,,,79,0,0,,,,,0,,,91,0
135440,note_on,,,,,1,0,0,,,,,0,,,89,85
135519,note_on,,,,,79,0,0,,,,,0,,,89,0
135520,note_on,,,,,1,0,0,,,,,0,,,86,85
135599,note_on,,,,,239,0,1,,,,,0,,,51,0
135599,note_on,,,,,79,0,0,,,,,0,,,86,0
135599,note_on,,,,,0,0,1,,,,,0,,,59,0
135599,note_on,,,,,0,0,1,,,,,0,,,62,0
135600,note_on,,,,,1,0,0,,,,,0,,,83,85
135600,note_on,,,,,1,0,1,,,,,0,,,67,85
135679,note_on,,,,,79,0,0,,,,,0,,,83,0
135680,note_on,,,,,1,0,0,,,,,0,,,79,85
135759,note_on,,,,,79,0,0,,,,,0,,,79,0
135760,note_on,,,,,1,0,0,,,,,0,,,77,85
135839,note_on,,,,,79,0,0,,,,,0,,,77,0
135840,note_on,,,,,240,0,1,,,,,0,,,51,85
135840,note_on,,,,,1,0,0,,,,,0,,,74,85
135840,note_on,,,,,0,0,1,,,,,0,,,62,85
135840,note_on,,,,,0,0,1,,,,,0,,,59,85
135919,note_on,,,,,79,0,0,,,,,0,,,74,0
135920,note_on,,,,,1,0,0,,,,,0,,,71,85
135999,note_on,,,,,79,0,0,,,,,0,,,71,0
136000,note_on,,,,,1,0,0,,,,,0,,,67,85
136055,note_on,,,,,215,0,1,,,,,0,,,67,0
136067,note_on,,,,,0,0,1,,,,,0,,,62,0
136067,note_on,,,,,12,0,1,,,,,0,,,51,0
136067,note_on,,,,,0,0,1,,,,,0,,,59,0
136075,note_on,,,,,75,0,0,,,,,0,,,67,0
136080,note_on,,,,,13,0,1,,,,,0,,,73,102
136160,note_on,,,,,85,0,0,,,,,0,,,76,85
136239,note_on,,,,,79,0,0,,,,,0,,,76,0
136240,note_on,,,,,1,0,0,,,,,0,,,79,85
136319,note_on,,,,,79,0,0,,,,,0,,,79,0
136320,note_on,,,,,0,0,1,,,,,0,,,61,85
136320,note_on,,,,,0,0,1,,,,,0,,,64,85
136320,note_on,,,,,1,0,0,,,,,0,,,82,85
136320,note_on,,,,,240,0,1,,,,,0,,,51,85
136399,note_on,,,,,79,0,0,,,,,0,,,82,0
136400,note_on,,,,,1,0,0,,,,,0,,,85,85
136479,note_on,,,,,79,0,0,,,,,0,,,85,0
136480,note_on,,,,,1,0,0,,,,,0,,,88,85
136547,note_on,,,,,227,0,1,,,,,0,,,51,0
136547,note_on,,,,,0,0,1,,,,,0,,,61,0
136547,note_on,,,,,0,0,1,,,,,0,,,64,0
136559,note_on,,,,,79,0,0,,,,,0,,,88,0
136560,note_on,,,,,1,0,0,,,,,0,,,91,85
136560,note_on,,,,,0,0,1,,,,,0,,,61,85
136560,note_on,,,,,0,0,1,,,,,0,,,64,85
136560,note_on,,,,,13,0,1,,,,,0,,,51,85
136639,note_on,,,,,79,0,0,,,,,0,,,91,0
136640,note_on,,,,,1,0,0,,,,,0,,,94,85
136719,note_on,,,,,79,0,0,,,,,0,,,94,0
136720,note_on,,,,,1,0,0,,,,,0,,,99,85
136722,note_on,,,,,162,0,1,,,,,0,,,73,0
136787,note_on,,,,,0,0,1,,,,,0,,,61,0
136787,note_on,,,,,0,0,1,,,,,0,,,64,0
136787,note_on,,,,,65,0,1,,,,,0,,,51,0
136799,note_on,,,,,79,0,0,,,,,0,,,99,0
136800,note_on,,,,,0,0,1,,,,,0,,,61,85
136800,note_on,,,,,1,0,0,,,,,0,,,97,85
136800,note_on,,,,,13,0,1,,,,,0,,,51,85
136800,note_on,,,,,0,0,1,,,,,0,,,64,85
136879,note_on,,,,,79,0,0,,,,,0,,,97,0
136880,note_on,,,,,1,0,0,,,,,0,,,94,85
136959,note_on,,,,,79,0,0,,,,,0,,,94,0
136960,note_on,,,,,1,0,0,,,,,0,,,91,85
137027,note_on,,,,,227,0,1,,,,,0,,,51,0
137027,note_on,,,,,0,0,1,,,,,0,,,61,0
137027,note_on,,,,,0,0,1,,,,,0,,,64,0
137039,note_on,,,,,79,0,0,,,,,0,,,91,0
137040,note_on,,,,,1,0,0,,,,,0,,,88,85
137099,note_on,,,,,59,0,0,,,,,0,,,88,0
137100,note_on,,,,,1,0,0,,,,,0,,,85,85
137159,note_on,,,,,59,0,0,,,,,0,,,85,0
137160,note_on,,,,,1,0,0,,,,,0,,,82,85
137219,note_on,,,,,59,0,0,,,,,0,,,82,0
137220,note_on,,,,,1,0,0,,,,,0,,,79,85
137279,note_on,,,,,59,0,0,,,,,0,,,79,0
137280,note_on,,,,,1,0,0,,,,,0,,,76,85
137280,note_on,,,,,253,0,1,,,,,0,,,51,85
137280,note_on,,,,,0,0,1,,,,,0,,,61,85
137280,note_on,,,,,0,0,1,,,,,0,,,64,85
137339,note_on,,,,,59,0,0,,,,,0,,,76,0
137340,note_on,,,,,1,0,0,,,,,0,,,73,85
137399,note_on,,,,,59,0,0,,,,,0,,,73,0
137400,note_on,,,,,1,0,0,,,,,0,,,70,85
137459,note_on,,,,,59,0,0,,,,,0,,,70,0
137460,note_on,,,,,1,0,0,,,,,0,,,67,85
137507,note_on,,,,,227,0,1,,,,,0,,,51,0
137507,note_on,,,,,0,0,1,,,,,0,,,61,0
137507,note_on,,,,,0,0,1,,,,,0,,,64,0
137516,note_on,,,,,56,0,0,,,,,0,,,67,0
137520,note_on,,,,,13,0,1,,,,,0,,,67,85
137520,time_signature,13,8,24,8,4,1,0,,,,,,,,,
137595,note_on,,,,,75,0,1,,,,,0,,,67,0
137600,note_on,,,,,5,0,1,,,,,0,,,68,85
137675,note_on,,,,,75,0,1,,,,,0,,,68,0
137680,note_on,,,,,5,0,1,,,,,0,,,70,85
137755,note_on,,,,,75,0,1,,,,,0,,,70,0
137760,note_on,,,,,5,0,1,,,,,0,,,68,85
137840,note_on,,,,,320,0,0,,,,,0,,,71,85
137919,note_on,,,,,79,0,0,,,,,0,,,71,0
137920,note_on,,,,,1,0,0,,,,,0,,,74,85
137999,note_on,,,,,79,0,0,,,,,0,,,74,0
138000,note_on,,,,,1,0,0,,,,,0,,,77,85
138000,note_on,,,,,240,0,1,,,,,0,,,51,85
138000,note_on,,,,,0,0,1,,,,,0,,,59,85
138000,note_on,,,,,0,0,1,,,,,0,,,62,85
138079,note_on,,,,,79,0,0,,,,,0,,,77,0
138080,note_on,,,,,1,0,0,,,,,0,,,80,85
138159,note_on,,,,,79,0,0,,,,,0,,,80,0
138160,note_on,,,,,1,0,0,,,,,0,,,83,85
138239,note_on,,,,,239,0,1,,,,,0,,,51,0
138239,note_on,,,,,79,0,0,,,,,0,,,83,0
138239,note_on,,,,,0,0,1,,,,,0,,,62,0
138239,note_on,,,,,0,0,1,,,,,0,,,59,0
138240,note_on,,,,,1,0,1,,,,,0,,,51,85
138240,note_on,,,,,1,0,0,,,,,0,,,86,85
138240,note_on,,,,,0,0,1,,,,,0,,,62,85
138240,note_on,,,,,0,0,1,,,,,0,,,59,85
138319,note_on,,,,,79,0,0,,,,,0,,,86,0
138320,note_on,,,,,1,0,0,,,,,0,,,89,85
138399,note_on,,,,,79,0,0,,,,,0,,,89,0
138400,note_on,,,,,1,0,0,,,,,0,,,92,85
138479,note_on,,,,,0,0,1,,,,,0,,,59,0
138479,note_on,,,,,0,0,1,,,,,0,,,62,0
138479,note_on,,,,,239,0,1,,,,,0,,,51,0
138479,note_on,,,,,79,0,0,,,,,0,,,92,0
138480,note_on,,,,,1,0,0,,,,,0,,,91,85
138480,note_on,,,,,0,0,1,,,,,0,,,59,85
138480,note_on,,,,,1,0,1,,,,,0,,,51,85
138480,note_on,,,,,0,0,1,,,,,0,,,62,85
138559,note_on,,,,,79,0,0,,,,,0,,,91,0
138560,note_on,,,,,1,0,0,,,,,0,,,89,85
138639,note_on,,,,,79,0,0,,,,,0,,,89,0
138640,note_on,,,,,1,0,0,,,,,0,,,86,85
138719,note_on,,,,,0,0,1,,,,,0,,,51,0
138719,note_on,,,,,79,0,0,,,,,0,,,86,0
138719,note_on,,,,,239,0,1,,,,,0,,,68,0
138719,note_on,,,,,0,0,1,,,,,0,,,59,0
138719,note_on,,,,,0,0,1,,,,,0,,,62,0
138720,note_on,,,,,1,0,0,,,,,0,,,83,85
138720,note_on,,,,,1,0,1,,,,,0,,,67,85
138799,note_on,,,,,79,0,0,,,,,0,,,83,0
138800,note_on,,,,,1,0,0,,,,,0,,,79,85
138879,note_on,,,,,79,0,0,,,,,0,,,79,0
138880,note_on,,,,,1,0,0,,,,,0,,,77,85
138959,note_on,,,,,79,0,0,,,,,0,,,77,0
138960,note_on,,,,,1,0,0,,,,,0,,,74,85
138960,note_on,,,,,240,0,1,,,,,0,,,51,85
138960,note_on,,,,,0,0,1,,,,,0,,,59,85
138960,note_on,,,,,0,0,1,,,,,0,,,62,85
139039,note_on,,,,,79,0,0,,,,,0,,,74,0
139040,note_on,,,,,1,0,0,,,,,0,,,71,85
139119,note_on,,,,,79,0,0,,,,,0,,,71,0
139120,note_on,,,,,1,0,0,,,,,0,,,67,85
139175,note_on,,,,,215,0,1,,,,,0,,,67,0
139187,note_on,,,,,0,0,1,,,,,0,,,59,0
139187,note_on,,,,,0,0,1,,,,,0,,,62,0
139187,note_on,,,,,12,0,1,,,,,0,,,51,0
139195,note_on,,,,,75,0,0,,,,,0,,,67,0
139200,note_on,,,,,13,0,1,,,,,0,,,76,102
139280,note_on,,,,,85,0,0,,,,,0,,,79,85
139359,note_on,,,,,79,0,0,,,,,0,,,79,0
139360,note_on,,,,,1,0,0,,,,,0,,,82,85
139439,note_on,,,,,79,0,0,,,,,0,,,82,0
139440,note_on,,,,,0,0,1,,,,,0,,,61,85
139440,note_on,,,,,1,0,0,,,,,0,,,85,85
139440,note_on,,,,,240,0,1,,,,,0,,,51,85
139440,note_on,,,,,0,0,1,,,,,0,,,64,85
139499,note_on,,,,,59,0,0,,,,,0,,,85,0
139500,note_on,,,,,1,0,0,,,,,0,,,88,85
139559,note_on,,,,,59,0,0,,,,,0,,,88,0
139560,note_on,,,,,1,0,0,,,,,0,,,91,85
139619,note_on,,,,,59,0,0,,,,,0,,,91,0
139620,note_on,,,,,1,0,0,,,,,0,,,94,85
139667,note_on,,,,,0,0,1,,,,,0,,,64,0
139667,note_on,,,,,227,0,1,,,,,0,,,51,0
139667,note_on,,,,,0,0,1,,,,,0,,,61,0
139679,note_on,,,,,59,0,0,,,,,0,,,94,0
139680,note_on,,,,,0,0,1,,,,,0,,,61,85
139680,note_on,,,,,0,0,1,,,,,0,,,64,85
139680,note_on,,,,,13,0,1,,,,,0,,,51,85
139680,note_on,,,,,1,0,0,,,,,0,,,100,85
139759,note_on,,,,,79,0,0,,,,,0,,,100,0
139760,note_on,,,,,1,0,0,,,,,0,,,97,85
139839,note_on,,,,,79,0,0,,,,,0,,,97,0
139840,note_on,,,,,1,0,0,,,,,0,,,94,85
139842,note_on,,,,,162,0,1,,,,,0,,,76,0
139907,note_on,,,,,65,0,1,,,,,0,,,51,0
139907,note_on,,,,,0,0,1,,,,,0,,,64,0
139907,note_on,,,,,0,0,1,,,,,0,,,61,0
139919,note_on,,,,,79,0,0,,,,,0,,,94,0
139920,note_on,,,,,1,0,0,,,,,0,,,91,85
139920,note_on,,,,,0,0,1,,,,,0,,,64,85
139920,note_on,,,,,0,0,1,,,,,0,,,61,85
139920,note_on,,,,,13,0,1,,,,,0,,,51,85
139999,note_on,,,,,79,0,0,,,,,0,,,91,0
140000,note_on,,,,,1,0,0,,,,,0,,,88,85
140079,note_on,,,,,79,0,0,,,,,0,,,88,0
140080,note_on,,,,,1,0,0,,,,,0,,,85,85
140147,note_on,,,,,227,0,1,,,,,0,,,51,0
140147,note_on,,,,,0,0,1,,,,,0,,,64,0
140147,note_on,,,,,0,0,1,,,,,0,,,61,0
140159,note_on,,,,,79,0,0,,,,,0,,,85,0
140160,note_on,,,,,1,0,0,,,,,0,,,82,85
140239,note_on,,,,,79,0,0,,,,,0,,,82,0
140240,note_on,,,,,1,0,0,,,,,0,,,79,85
140319,note_on,,,,,79,0,0,,,,,0,,,79,0
140320,note_on,,,,,1,0,0,,,,,0,,,76,85
140399,note_on,,,,,79,0,0,,,,,0,,,76,0
140400,note_on,,,,,0,0,1,,,,,0,,,61,85
140400,note_on,,,,,0,0,1,,,,,0,,,64,85
140400,note_on,,,,,253,0,1,,,,,0,,,51,85
140400,note_on,,,,,1,0,0,,,,,0,,,73,85
140479,note_on,,,,,79,0,0,,,,,0,,,73,0
140480,note_on,,,,,1,0,0,,,,,0,,,70,85
140559,note_on,,,,,79,0,0,,,,,0,,,70,0
140560,note_on,,,,,1,0,0,,,,,0,,,67,85
140627,note_on,,,,,227,0,1,,,,,0,,,51,0
140627,note_on,,,,,0,0,1,,,,,0,,,61,0
140627,note_on,,,,,0,0,1,,,,,0,,,64,0
140635,note_on,,,,,75,0,0,,,,,0,,,67,0
140640,time_signature,23,16,24,8,5,1,0,,,,,,,,,
140640,note_on,,,,,0,0,0,,,,,0,,,66,85
140699,note_on,,,,,59,0,0,,,,,0,,,66,0
140700,note_on,,,,,1,0,0,,,,,0,,,67,85
140759,note_on,,,,,59,0,0,,,,,0,,,67,0
140760,note_on,,,,,1,0,0,,,,,0,,,70,85
140819,note_on,,,,,59,0,0,,,,,0,,,70,0
140820,note_on,,,,,1,0,0,,,,,0,,,73,85
140879,note_on,,,,,59,0,0,,,,,0,,,73,0
140880,note_on,,,,,1,0,0,,,,,0,,,76,85
140939,note_on,,,,,59,0,0,,,,,0,,,76,0
140940,note_on,,,,,1,0,0,,,,,0,,,79,85
140999,note_on,,,,,59,0,0,,,,,0,,,79,0
141000,note_on,,,,,1,0,0,,,,,0,,,82,85
141059,note_on,,,,,59,0,0,,,,,0,,,82,0
141060,note_on,,,,,1,0,0,,,,,0,,,85,85
141119,note_on,,,,,59,0,0,,,,,0,,,85,0
141120,note_on,,,,,1,0,0,,,,,0,,,88,85
141179,note_on,,,,,59,0,0,,,,,0,,,88,0
141180,note_on,,,,,1,0,0,,,,,0,,,91,85
141239,note_on,,,,,59,0,0,,,,,0,,,91,0
141240,note_on,,,,,1,0,0,,,,,0,,,94,85
141299,note_on,,,,,59,0,0,,,,,0,,,94,0
141300,note_on,,,,,1,0,0,,,,,0,,,100,85
141359,note_on,,,,,59,0,0,,,,,0,,,100,0
141360,note_on,,,,,1,0,0,,,,,0,,,97,85
141419,note_on,,,,,59,0,0,,,,,0,,,97,0
141420,note_on,,,,,1,0,0,,,,,0,,,94,85
141479,note_on,,,,,59,0,0,,,,,0,,,94,0
141480,note_on,,,,,1,0,0,,,,,0,,,91,85
141539,note_on,,,,,59,0,0,,,,,0,,,91,0
141540,note_on,,,,,1,0,0,,,,,0,,,88,85
141599,note_on,,,,,59,0,0,,,,,0,,,88,0
141600,note_on,,,,,1,0,0,,,,,0,,,85,85
141659,note_on,,,,,59,0,0,,,,,0,,,85,0
141660,note_on,,,,,1,0,0,,,,,0,,,82,85
141719,note_on,,,,,59,0,0,,,,,0,,,82,0
141720,note_on,,,,,1,0,0,,,,,0,,,79,85
141779,note_on,,,,,59,0,0,,,,,0,,,79,0
141780,note_on,,,,,1,0,0,,,,,0,,,76,85
141839,note_on,,,,,59,0,0,,,,,0,,,76,0
141840,note_on,,,,,1,0,0,,,,,0,,,73,85
141899,note_on,,,,,59,0,0,,,,,0,,,73,0
141900,note_on,,,,,1,0,0,,,,,0,,,70,85
141959,note_on,,,,,59,0,0,,,,,0,,,70,0
141960,note_on,,,,,1,0,0,,,,,0,,,67,85
142016,note_on,,,,,56,0,0,,,,,0,,,67,0
142020,note_on,,,,,4,0,0,,,,,0,,,66,85
142079,note_on,,,,,59,0,0,,,,,0,,,66,0
142080,note_on,,,,,1,0,0,,,,,0,,,67,85
142139,note_on,,,,,59,0,0,,,,,0,,,67,0
142140,note_on,,,,,1,0,0,,,,,0,,,70,85
142199,note_on,,,,,59,0,0,,,,,0,,,70,0
142200,note_on,,,,,1,0,0,,,,,0,,,73,85
142259,note_on,,,,,59,0,0,,,,,0,,,73,0
142260,note_on,,,,,1,0,0,,,,,0,,,76,85
142319,note_on,,,,,59,0,0,,,,,0,,,76,0
142320,note_on,,,,,1,0,0,,,,,0,,,79,85
142379,note_on,,,,,59,0,0,,,,,0,,,79,0
142380,note_on,,,,,1,0,0,,,,,0,,,82,85
142439,note_on,,,,,59,0,0,,,,,0,,,82,0
142440,note_on,,,,,1,0,0,,,,,0,,,85,85
142499,note_on,,,,,59,0,0,,,,,0,,,85,0
142500,note_on,,,,,1,0,0,,,,,0,,,88,85
142559,note_on,,,,,59,0,0,,,,,0,,,88,0
142560,note_on,,,,,1,0,0,,,,,0,,,91,85
142619,note_on,,,,,59,0,0,,,,,0,,,91,0
142620,note_on,,,,,1,0,0,,,,,0,,,94,85
142679,note_on,,,,,59,0,0,,,,,0,,,94,0
142680,note_on,,,,,1,0,0,,,,,0,,,100,85
142739,note_on,,,,,59,0,0,,,,,0,,,100,0
142740,note_on,,,,,1,0,0,,,,,0,,,97,85
142799,note_on,,,,,59,0,0,,,,,0,,,97,0
142800,note_on,,,,,1,0,0,,,,,0,,,94,85
142859,note_on,,,,,59,0,0,,,,,0,,,94,0
142860,note_on,,,,,1,0,0,,,,,0,,,91,85
142919,note_on,,,,,59,0,0,,,,,0,,,91,0
142920,note_on,,,,,1,0,0,,,,,0,,,88,85
142979,note_on,,,,,59,0,0,,,,,0,,,88,0
142980,note_on,,,,,1,0,0,,,,,0,,,85,85
143039,note_on,,,,,59,0,0,,,,,0,,,85,0
143040,note_on,,,,,1,0,0,,,,,0,,,82,85
143099,note_on,,,,,59,0,0,,,,,0,,,82,0
143100,note_on,,,,,1,0,0,,,,,0,,,79,85
143159,note_on,,,,,59,0,0,,,,,0,,,79,0
143160,note_on,,,,,1,0,0,,,,,0,,,76,85
143219,note_on,,,,,59,0,0,,,,,0,,,76,0
143220,note_on,,,,,1,0,0,,,,,0,,,73,85
143279,note_on,,,,,59,0,0,,,,,0,,,73,0
143280,note_on,,,,,1,0,0,,,,,0,,,70,85
143339,note_on,,,,,59,0,0,,,,,0,,,70,0
143340,note_on,,,,,1,0,0,,,,,0,,,67,85
143396,note_on,,,,,56,0,0,,,,,0,,,67,0
143400,time_signature,11,8,24,8,4,1,0,,,,,,,,,
143400,note_on,,,,,0,0,0,,,,,0,,,66,85
143456,note_on,,,,,56,0,0,,,,,0,,,66,0
143460,note_on,,,,,4,0,0,,,,,0,,,67,85
143516,note_on,,,,,56,0,0,,,,,0,,,67,0
143520,note_on,,,,,4,0,0,,,,,0,,,70,85
143576,note_on,,,,,56,0,0,,,,,0,,,70,0
143580,note_on,,,,,4,0,0,,,,,0,,,73,85
143636,note_on,,,,,56,0,0,,,,,0,,,73,0
143640,note_on,,,,,4,0,0,,,,,0,,,76,85
143696,note_on,,,,,56,0,0,,,,,0,,,76,0
143700,note_on,,,,,4,0,0,,,,,0,,,79,85
143756,note_on,,,,,56,0,0,,,,,0,,,79,0
143760,note_on,,,,,4,0,0,,,,,0,,,82,85
143816,note_on,,,,,56,0,0,,,,,0,,,82,0
143820,note_on,,,,,4,0,0,,,,,0,,,85,85
143876,note_on,,,,,56,0,0,,,,,0,,,85,0
143880,note_on,,,,,4,0,0,,,,,0,,,88,85
143936,note_on,,,,,56,0,0,,,,,0,,,88,0
143940,note_on,,,,,4,0,0,,,,,0,,,91,85
143996,note_on,,,,,56,0,0,,,,,0,,,91,0
144000,note_on,,,,,4,0,0,,,,,0,,,94,85
144056,note_on,,,,,56,0,0,,,,,0,,,94,0
144060,note_on,,,,,4,0,0,,,,,0,,,97,85
144116,note_on,,,,,56,0,0,,,,,0,,,97,0
144120,note_on,,,,,4,0,0,,,,,0,,,100,85
144176,note_on,,,,,56,0,0,,,,,0,,,100,0
144180,note_on,,,,,4,0,0,,,,,0,,,98,85
144236,note_on,,,,,56,0,0,,,,,0,,,98,0
144240,note_on,,,,,4,0,0,,,,,0,,,99,85
144296,note_on,,,,,56,0,0,,,,,0,,,99,0
144300,note_on,,,,,4,0,0,,,,,0,,,97,85
144356,note_on,,,,,56,0,0,,,,,0,,,97,0
144360,note_on,,,,,4,0,0,,,,,0,,,98,84
144416,note_on,,,,,56,0,0,,,,,0,,,98,0
144420,note_on,,,,,4,0,0,,,,,0,,,96,84
144476,note_on,,,,,56,0,0,,,,,0,,,96,0
144480,note_on,,,,,4,0,0,,,,,0,,,97,84
144536,note_on,,,,,56,0,0,,,,,0,,,97,0
144540,note_on,,,,,4,0,0,,,,,0,,,95,83
144596,note_on,,,,,56,0,0,,,,,0,,,95,0
144600,note_on,,,,,4,0,0,,,,,0,,,96,83
144656,note_on,,,,,56,0,0,,,,,0,,,96,0
144660,note_on,,,,,4,0,0,,,,,0,,,94,83
144716,note_on,,,,,56,0,0,,,,,0,,,94,0
144720,note_on,,,,,4,0,0,,,,,0,,,95,82
144776,note_on,,,,,56,0,0,,,,,0,,,95,0
144780,note_on,,,,,4,0,0,,,,,0,,,93,82
144836,note_on,,,,,56,0,0,,,,,0,,,93,0
144840,note_on,,,,,4,0,0,,,,,0,,,94,82
144896,note_on,,,,,56,0,0,,,,,0,,,94,0
144900,note_on,,,,,4,0,0,,,,,0,,,92,81
144956,note_on,,,,,56,0,0,,,,,0,,,92,0
144960,note_on,,,,,4,0,0,,,,,0,,,93,81
145016,note_on,,,,,56,0,0,,,,,0,,,93,0
145020,note_on,,,,,4,0,0,,,,,0,,,91,81
145076,note_on,,,,,56,0,0,,,,,0,,,91,0
145080,note_on,,,,,4,0,0,,,,,0,,,92,80
145136,note_on,,,,,56,0,0,,,,,0,,,92,0
145140,note_on,,,,,4,0,0,,,,,0,,,90,80
145196,note_on,,,,,56,0,0,,,,,0,,,90,0
145200,note_on,,,,,4,0,0,,,,,0,,,91,80
145256,note_on,,,,,56,0,0,,,,,0,,,91,0
145260,note_on,,,,,4,0,0,,,,,0,,,89,79
145316,note_on,,,,,56,0,0,,,,,0,,,89,0
145320,note_on,,,,,4,0,0,,,,,0,,,90,79
145376,note_on,,,,,56,0,0,,,,,0,,,90,0
145380,note_on,,,,,4,0,0,,,,,0,,,88,79
145436,note_on,,,,,56,0,0,,,,,0,,,88,0
145440,note_on,,,,,4,0,0,,,,,0,,,89,78
145496,note_on,,,,,56,0,0,,,,,0,,,89,0
145500,note_on,,,,,4,0,0,,,,,0,,,87,78
145556,note_on,,,,,56,0,0,,,,,0,,,87,0
145560,note_on,,,,,4,0,0,,,,,0,,,88,78
145616,note_on,,,,,56,0,0,,,,,0,,,88,0
145620,note_on,,,,,4,0,0,,,,,0,,,86,77
145676,note_on,,,,,56,0,0,,,,,0,,,86,0
145680,note_on,,,,,4,0,0,,,,,0,,,87,77
145736,note_on,,,,,56,0,0,,,,,0,,,87,0
145740,note_on,,,,,4,0,0,,,,,0,,,85,77
145796,note_on,,,,,56,0,0,,,,,0,,,85,0
145800,note_on,,,,,4,0,0,,,,,0,,,86,76
145856,note_on,,,,,56,0,0,,,,,0,,,86,0
145860,note_on,,,,,4,0,0,,,,,0,,,84,76
145916,note_on,,,,,56,0,0,,,,,0,,,84,0
145920,note_on,,,,,4,0,0,,,,,0,,,85,76
145976,note_on,,,,,56,0,0,,,,,0,,,85,0
145980,note_on,,,,,4,0,0,,,,,0,,,83,75
146036,note_on,,,,,56,0,0,,,,,0,,,83,0
146040,time_signature,5,4,24,8,4,1,0,,,,,,,,,
146040,note_on,,,,,0,0,0,,,,,0,,,84,75
146096,note_on,,,,,56,0,0,,,,,0,,,84,0
146100,note_on,,,,,4,0,0,,,,,0,,,82,75
146156,note_on,,,,,56,0,0,,,,,0,,,82,0
146160,note_on,,,,,4,0,0,,,,,0,,,83,75
146216,note_on,,,,,56,0,0,,,,,0,,,83,0
146220,note_on,,,,,4,0,0,,,,,0,,,81,75
146276,note_on,,,,,56,0,0,,,,,0,,,81,0
146280,note_on,,,,,4,0,0,,,,,0,,,82,74
146336,note_on,,,,,56,0,0,,,,,0,,,82,0
146340,note_on,,,,,4,0,0,,,,,0,,,80,74
146396,note_on,,,,,56,0,0,,,,,0,,,80,0
146400,note_on,,,,,4,0,0,,,,,0,,,81,74
146456,note_on,,,,,56,0,0,,,,,0,,,81,0
146460,note_on,,,,,4,0,0,,,,,0,,,79,74
146516,note_on,,,,,56,0,0,,,,,0,,,79,0
146520,note_on,,,,,4,0,0,,,,,0,,,80,73
146576,note_on,,,,,56,0,0,,,,,0,,,80,0
146580,note_on,,,,,4,0,0,,,,,0,,,78,73
146636,note_on,,,,,56,0,0,,,,,0,,,78,0
146640,note_on,,,,,4,0,0,,,,,0,,,79,73
146696,note_on,,,,,56,0,0,,,,,0,,,79,0
146700,note_on,,,,,4,0,0,,,,,0,,,77,73
146756,note_on,,,,,56,0,0,,,,,0,,,77,0
146760,note_on,,,,,4,0,0,,,,,0,,,78,72
146816,note_on,,,,,56,0,0,,,,,0,,,78,0
146820,note_on,,,,,4,0,0,,,,,0,,,76,72
146876,note_on,,,,,56,0,0,,,,,0,,,76,0
146880,note_on,,,,,4,0,0,,,,,0,,,77,72
146936,note_on,,,,,56,0,0,,,,,0,,,77,0
146940,note_on,,,,,4,0,0,,,,,0,,,75,71
146996,note_on,,,,,56,0,0,,,,,0,,,75,0
147000,note_on,,,,,4,0,0,,,,,0,,,76,71
147056,note_on,,,,,56,0,0,,,,,0,,,76,0
147060,note_on,,,,,4,0,0,,,,,0,,,74,71
147116,note_on,,,,,56,0,0,,,,,0,,,74,0
147120,note_on,,,,,4,0,0,,,,,0,,,77,71
147176,note_on,,,,,56,0,0,,,,,0,,,77,0
147180,note_on,,,,,4,0,0,,,,,0,,,75,70
147236,note_on,,,,,56,0,0,,,,,0,,,75,0
147240,note_on,,,,,4,0,0,,,,,0,,,76,70
147296,note_on,,,,,56,0,0,,,,,0,,,76,0
147300,note_on,,,,,4,0,0,,,,,0,,,74,70
147356,note_on,,,,,56,0,0,,,,,0,,,74,0
147360,note_on,,,,,4,0,0,,,,,0,,,77,70
147416,note_on,,,,,56,0,0,,,,,0,,,77,0
147420,note_on,,,,,4,0,0,,,,,0,,,75,69
147476,note_on,,,,,56,0,0,,,,,0,,,75,0
147480,note_on,,,,,4,0,0,,,,,0,,,76,69
147536,note_on,,,,,56,0,0,,,,,0,,,76,0
147540,note_on,,,,,4,0,0,,,,,0,,,74,69
147596,note_on,,,,,56,0,0,,,,,0,,,74,0
147600,note_on,,,,,4,0,0,,,,,0,,,77,69
147656,note_on,,,,,56,0,0,,,,,0,,,77,0
147660,note_on,,,,,4,0,0,,,,,0,,,75,68
147716,note_on,,,,,56,0,0,,,,,0,,,75,0
147720,note_on,,,,,4,0,0,,,,,0,,,76,68
147776,note_on,,,,,56,0,0,,,,,0,,,76,0
147780,note_on,,,,,4,0,0,,,,,0,,,73,68
147836,note_on,,,,,56,0,0,,,,,0,,,73,0
147840,note_on,,,,,4,0,0,,,,,0,,,77,67
147896,note_on,,,,,56,0,0,,,,,0,,,77,0
147900,note_on,,,,,4,0,0,,,,,0,,,75,67
147956,note_on,,,,,56,0,0,,,,,0,,,75,0
147960,note_on,,,,,4,0,0,,,,,0,,,76,67
148016,note_on,,,,,56,0,0,,,,,0,,,76,0
148020,note_on,,,,,4,0,0,,,,,0,,,73,67
148076,note_on,,,,,56,0,0,,,,,0,,,73,0
148080,note_on,,,,,4,0,0,,,,,0,,,77,66
148136,note_on,,,,,56,0,0,,,,,0,,,77,0
148140,note_on,,,,,4,0,0,,,,,0,,,75,66
148196,note_on,,,,,56,0,0,,,,,0,,,75,0
148200,note_on,,,,,4,0,0,,,,,0,,,76,66
148256,note_on,,,,,56,0,0,,,,,0,,,76,0
148260,note_on,,,,,4,0,0,,,,,0,,,73,66
148316,note_on,,,,,56,0,0,,,,,0,,,73,0
148320,note_on,,,,,4,0,0,,,,,0,,,77,65
148376,note_on,,,,,56,0,0,,,,,0,,,77,0
148380,note_on,,,,,4,0,0,,,,,0,,,75,65
148436,note_on,,,,,56,0,0,,,,,0,,,75,0
148440,time_signature,7,4,24,8,4,1,0,,,,,,,,,
148440,note_on,,,,,0,0,0,,,,,0,,,76,65
148484,note_on,,,,,44,0,0,,,,,0,,,76,0
148488,note_on,,,,,4,0,0,,,,,0,,,70,65
148532,note_on,,,,,44,0,0,,,,,0,,,70,0
148536,note_on,,,,,4,0,0,,,,,0,,,77,64
148580,note_on,,,,,44,0,0,,,,,0,,,77,0
148584,note_on,,,,,4,0,0,,,,,0,,,75,64
148628,note_on,,,,,44,0,0,,,,,0,,,75,0
148632,note_on,,,,,4,0,0,,,,,0,,,73,64
148676,note_on,,,,,44,0,0,,,,,0,,,73,0
148680,note_on,,,,,4,0,0,,,,,0,,,76,64
148724,note_on,,,,,44,0,0,,,,,0,,,76,0
148728,note_on,,,,,4,0,0,,,,,0,,,70,63
148772,note_on,,,,,44,0,0,,,,,0,,,70,0
148776,note_on,,,,,4,0,0,,,,,0,,,77,63
148820,note_on,,,,,44,0,0,,,,,0,,,77,0
148824,note_on,,,,,4,0,0,,,,,0,,,75,63
148868,note_on,,,,,44,0,0,,,,,0,,,75,0
148872,note_on,,,,,4,0,0,,,,,0,,,73,63
148916,note_on,,,,,44,0,0,,,,,0,,,73,0
148920,note_on,,,,,4,0,0,,,,,0,,,76,63
148964,note_on,,,,,44,0,0,,,,,0,,,76,0
148968,note_on,,,,,4,0,0,,,,,0,,,70,62
149012,note_on,,,,,44,0,0,,,,,0,,,70,0
149016,note_on,,,,,4,0,0,,,,,0,,,77,62
149060,note_on,,,,,44,0,0,,,,,0,,,77,0
149064,note_on,,,,,4,0,0,,,,,0,,,75,62
149108,note_on,,,,,44,0,0,,,,,0,,,75,0
149112,note_on,,,,,4,0,0,,,,,0,,,73,62
149156,note_on,,,,,44,0,0,,,,,0,,,73,0
149160,note_on,,,,,4,0,0,,,,,0,,,76,62
149204,note_on,,,,,44,0,0,,,,,0,,,76,0
149208,note_on,,,,,4,0,0,,,,,0,,,67,61
149252,note_on,,,,,44,0,0,,,,,0,,,67,0
149256,note_on,,,,,4,0,0,,,,,0,,,77,61
149300,note_on,,,,,44,0,0,,,,,0,,,77,0
149304,note_on,,,,,4,0,0,,,,,0,,,75,61
149348,note_on,,,,,44,0,0,,,,,0,,,75,0
149352,note_on,,,,,4,0,0,,,,,0,,,73,61
149396,note_on,,,,,44,0,0,,,,,0,,,73,0
149400,note_on,,,,,0,0,0,,,,,0,,,63,60
149400,set_tempo,,,,,4,1,0,,1499999,,,,,,,
149431,note_on,,,,,31,0,0,,,,,0,,,63,0
149434,note_on,,,,,3,0,0,,,,,0,,,67,60
149465,note_on,,,,,31,0,0,,,,,0,,,67,0
149468,note_on,,,,,3,0,0,,,,,0,,,63,60
149499,note_on,,,,,31,0,0,,,,,0,,,63,0
149502,note_on,,,,,3,0,0,,,,,0,,,62,60
149533,note_on,,,,,31,0,0,,,,,0,,,62,0
149536,note_on,,,,,3,0,0,,,,,0,,,63,60
149567,note_on,,,,,31,0,0,,,,,0,,,63,0
149570,note_on,,,,,3,0,0,,,,,0,,,67,60
149601,note_on,,,,,31,0,0,,,,,0,,,67,0
149604,note_on,,,,,3,0,0,,,,,0,,,70,60
149635,note_on,,,,,31,0,0,,,,,0,,,70,0
149640,set_tempo,,,,,5,1,0,,1000000,,,,,,,
149640,note_on,,,,,0,0,0,,,,,0,,,73,60
149696,note_on,,,,,56,0,0,,,,,0,,,73,0
149700,note_on,,,,,4,0,0,,,,,0,,,75,60
149756,note_on,,,,,56,0,0,,,,,0,,,75,0
149760,note_on,,,,,4,0,0,,,,,0,,,79,60
149816,note_on,,,,,56,0,0,,,,,0,,,79,0
149820,note_on,,,,,0,0,0,,,,,0,,,82,60
149820,set_tempo,,,,,4,1,0,,3000003,,,,,,,
149876,note_on,,,,,56,0,0,,,,,0,,,82,0
149880,set_tempo,,,,,4,1,0,,1499999,,,,,,,
149880,note_on,,,,,0,0,0,,,,,0,,,63,50
149911,note_on,,,,,31,0,0,,,,,0,,,63,0
149914,note_on,,,,,3,0,0,,,,,0,,,65,50
149945,note_on,,,,,31,0,0,,,,,0,,,65,0
149948,note_on,,,,,3,0,0,,,,,0,,,63,50
149979,note_on,,,,,31,0,0,,,,,0,,,63,0
149982,note_on,,,,,3,0,0,,,,,0,,,62,50
150013,note_on,,,,,31,0,0,,,,,0,,,62,0
150016,note_on,,,,,3,0,0,,,,,0,,,63,50
150047,note_on,,,,,31,0,0,,,,,0,,,63,0
150050,note_on,,,,,3,0,0,,,,,0,,,67,50
150081,note_on,,,,,31,0,0,,,,,0,,,67,0
150084,note_on,,,,,3,0,0,,,,,0,,,71,50
150115,note_on,,,,,31,0,0,,,,,0,,,71,0
150120,note_on,,,,,5,0,0,,,,,0,,,73,50
150176,note_on,,,,,56,0,0,,,,,0,,,73,0
150180,note_on,,,,,4,0,0,,,,,0,,,75,50
150236,note_on,,,,,56,0,0,,,,,0,,,75,0
150240,note_on,,,,,0,0,0,,,,,0,,,79,50
150240,set_tempo,,,,,4,1,0,,3000003,,,,,,,
150296,note_on,,,,,56,0,0,,,,,0,,,79,0
150300,note_on,,,,,4,0,0,,,,,0,,,83,50
150356,note_on,,,,,56,0,0,,,,,0,,,83,0
150840,set_tempo,,,,,484,1,0,,750002,,,,,,,
150840,note_on,,,,,0,0,0,,,,,0,,,75,50
150880,note_on,,,,,40,0,0,,,,,0,,,75,0
150881,note_on,,,,,1,0,0,,,,,0,,,75,50
150934,note_on,,,,,53,0,0,,,,,0,,,75,0
150936,note_on,,,,,2,0,0,,,,,0,,,77,50
151031,note_on,,,,,95,0,0,,,,,0,,,77,0
151032,note_on,,,,,1,0,0,,,,,0,,,75,50
151127,note_on,,,,,95,0,0,,,,,0,,,75,0
151128,note_on,,,,,1,0,0,,,,,0,,,74,50
151223,note_on,,,,,95,0,0,,,,,0,,,74,0
151224,note_on,,,,,1,0,0,,,,,0,,,75,50
151319,note_on,,,,,95,0,0,,,,,0,,,75,0
151320,note_on,,,,,1,0,0,,,,,0,,,84,50
151439,note_on,,,,,119,0,0,,,,,0,,,84,0
151560,note_on,,,,,121,0,0,,,,,0,,,79,50
151679,note_on,,,,,119,0,0,,,,,0,,,79,0
151800,set_tempo,,,,,0,1,0,,666667,,,,,,,
151800,time_signature,6,4,24,8,121,1,0,,,,,,,,,
151800,note_on,,,,,11173,0,1,,,,,0,,,44,50
151802,control_change,,,,,2,0,0,,,64,127,0,,,,
152039,note_on,,,,,239,0,1,,,,,0,,,44,0
152040,note_on,,,,,238,0,0,,,,,0,,,82,60
152040,note_on,,,,,1,0,1,,,,,0,,,51,50
152103,note_on,,,,,63,0,1,,,,,0,,,60,50
152278,note_on,,,,,175,0,1,,,,,0,,,60,0
152279,note_on,,,,,1,0,1,,,,,0,,,51,0
152280,note_on,,,,,0,0,1,,,,,0,,,63,50
152280,note_on,,,,,1,0,1,,,,,0,,,56,50
152519,note_on,,,,,0,0,1,,,,,0,,,63,0
152519,note_on,,,,,479,0,0,,,,,0,,,82,0
152519,note_on,,,,,239,0,1,,,,,0,,,56,0
152520,note_on,,,,,0,0,1,,,,,0,,,68,50
152520,note_on,,,,,1,0,0,,,,,0,,,80,50
152520,note_on,,,,,1,0,1,,,,,0,,,60,50
152747,note_on,,,,,227,0,1,,,,,0,,,60,0
152747,note_on,,,,,0,0,1,,,,,0,,,68,0
152759,note_on,,,,,239,0,0,,,,,0,,,80,0
152760,note_on,,,,,1,0,0,,,,,0,,,72,50
152999,note_on,,,,,239,0,0,,,,,0,,,72,0
153000,note_on,,,,,1,0,0,,,,,0,,,73,50
153227,note_on,,,,,227,0,0,,,,,0,,,73,0
153240,note_on,,,,,493,0,1,,,,,0,,,44,50
153479,note_on,,,,,239,0,1,,,,,0,,,44,0
153480,note_on,,,,,1,0,1,,,,,0,,,51,50
153480,note_on,,,,,253,0,0,,,,,0,,,77,60
153543,note_on,,,,,63,0,1,,,,,0,,,60,50
153718,note_on,,,,,175,0,1,,,,,0,,,60,0
153719,note_on,,,,,1,0,1,,,,,0,,,51,0
153720,note_on,,,,,1,0,1,,,,,0,,,56,50
153720,note_on,,,,,0,0,1,,,,,0,,,63,50
153959,note_on,,,,,0,0,1,,,,,0,,,63,0
153959,note_on,,,,,239,0,1,,,,,0,,,56,0
153959,note_on,,,,,479,0,0,,,,,0,,,77,0
153960,note_on,,,,,1,0,1,,,,,0,,,60,50
153960,note_on,,,,,0,0,1,,,,,0,,,68,50
153960,note_on,,,,,1,0,0,,,,,0,,,75,50
154187,note_on,,,,,227,0,1,,,,,0,,,60,0
154187,note_on,,,,,0,0,1,,,,,0,,,68,0
154199,note_on,,,,,239,0,0,,,,,0,,,75,0
154200,note_on,,,,,1,0,0,,,,,0,,,73,50
154439,note_on,,,,,239,0,0,,,,,0,,,73,0
154440,note_on,,,,,1,0,0,,,,,0,,,72,50
154667,note_on,,,,,227,0,0,,,,,0,,,72,0
154680,note_on,,,,,493,0,1,,,,,0,,,44,50
154680,time_signature,15,8,24,8,13,1,0,,,,,,,,,
154681,control_change,,,,,1,0,0,,,64,0,0,,,,
154682,control_change,,,,,1,0,0,,,64,127,0,,,,
154907,note_on,,,,,227,0,1,,,,,0,,,44,0
154920,note_on,,,,,13,0,1,,,,,0,,,53,50
154920,note_on,,,,,0,0,1,,,,,0,,,62,50
154920,note_on,,,,,238,0,0,,,,,0,,,72,60
155147,note_on,,,,,0,0,1,,,,,0,,,62,0
155147,note_on,,,,,227,0,1,,,,,0,,,53,0
155160,note_on,,,,,13,0,1,,,,,0,,,56,50
155160,note_on,,,,,0,0,1,,,,,0,,,65,50
155387,note_on,,,,,0,0,1,,,,,0,,,65,0
155387,note_on,,,,,227,0,1,,,,,0,,,56,0
155399,note_on,,,,,479,0,0,,,,,0,,,72,0
155400,note_on,,,,,13,0,1,,,,,0,,,62,50
155400,note_on,,,,,1,0,0,,,,,0,,,70,50
155400,note_on,,,,,0,0,1,,,,,0,,,70,50
155627,note_on,,,,,0,0,1,,,,,0,,,70,0
155627,note_on,,,,,227,0,1,,,,,0,,,62,0
155639,note_on,,,,,239,0,0,,,,,0,,,70,0
155640,note_on,,,,,1,0,0,,,,,0,,,69,50
155879,note_on,,,,,239,0,0,,,,,0,,,69,0
155880,note_on,,,,,1,0,0,,,,,0,,,70,50
156119,note_on,,,,,239,0,0,,,,,0,,,70,0
156120,note_on,,,,,1,0,0,,,,,0,,,69,50
156199,note_on,,,,,79,0,0,,,,,0,,,69,0
156200,note_on,,,,,1,0,0,,,,,0,,,70,50
156279,note_on,,,,,79,0,0,,,,,0,,,70,0
156280,note_on,,,,,1,0,0,,,,,0,,,72,50
156359,note_on,,,,,79,0,0,,,,,0,,,72,0
156360,note_on,,,,,1,0,0,,,,,0,,,70,50
156418,note_on,,,,,58,0,0,,,,,0,,,70,0
156419,note_on,,,,,1,0,0,,,,,0,,,72,50
156477,note_on,,,,,58,0,0,,,,,0,,,72,0
156480,note_on,,,,,3,0,0,,,,,0,,,70,50
156538,note_on,,,,,58,0,0,,,,,0,,,70,0
156539,note_on,,,,,1,0,0,,,,,0,,,72,50
156597,note_on,,,,,58,0,0,,,,,0,,,72,0
156600,note_on,,,,,3,0,0,,,,,0,,,70,50
156658,note_on,,,,,58,0,0,,,,,0,,,70,0
156659,note_on,,,,,1,0,0,,,,,0,,,72,50
156717,note_on,,,,,58,0,0,,,,,0,,,72,0
156720,note_on,,,,,3,0,0,,,,,0,,,70,50
156778,note_on,,,,,58,0,0,,,,,0,,,70,0
156779,note_on,,,,,1,0,0,,,,,0,,,72,50
156837,note_on,,,,,58,0,0,,,,,0,,,72,0
156840,note_on,,,,,3,0,0,,,,,0,,,70,50
156898,note_on,,,,,58,0,0,,,,,0,,,70,0
156899,note_on,,,,,1,0,0,,,,,0,,,72,50
156957,note_on,,,,,58,0,0,,,,,0,,,72,0
156960,note_on,,,,,3,0,0,,,,,0,,,70,50
157018,note_on,,,,,58,0,0,,,,,0,,,70,0
157019,note_on,,,,,1,0,0,,,,,0,,,72,50
157077,note_on,,,,,58,0,0,,,,,0,,,72,0
157080,note_on,,,,,3,0,0,,,,,0,,,70,50
157138,note_on,,,,,58,0,0,,,,,0,,,70,0
157139,note_on,,,,,1,0,0,,,,,0,,,72,50
157197,note_on,,,,,58,0,0,,,,,0,,,72,0
157200,note_on,,,,,3,0,0,,,,,0,,,70,50
157258,note_on,,,,,58,0,0,,,,,0,,,70,0
157259,note_on,,,,,1,0,0,,,,,0,,,72,50
157317,note_on,,,,,58,0,0,,,,,0,,,72,0
157320,note_on,,,,,0,0,0,,,,,0,,,69,50
157320,set_tempo,,,,,3,1,0,,545456,,,,,,,
157399,note_on,,,,,79,0,0,,,,,0,,,69,0
157400,note_on,,,,,1,0,0,,,,,0,,,70,50
157479,note_on,,,,,79,0,0,,,,,0,,,70,0
157480,note_on,,,,,1,0,0,,,,,0,,,73,50
157559,note_on,,,,,79,0,0,,,,,0,,,73,0
157560,note_on,,,,,1,0,0,,,,,0,,,74,50
157639,note_on,,,,,79,0,0,,,,,0,,,74,0
157640,note_on,,,,,1,0,0,,,,,0,,,76,50
157719,note_on,,,,,79,0,0,,,,,0,,,76,0
157720,note_on,,,,,1,0,0,,,,,0,,,77,50
157799,note_on,,,,,79,0,0,,,,,0,,,77,0
157800,note_on,,,,,1,0,0,,,,,0,,,79,50
157879,note_on,,,,,79,0,0,,,,,0,,,79,0
157880,note_on,,,,,1,0,0,,,,,0,,,80,50
157959,note_on,,,,,79,0,0,,,,,0,,,80,0
157960,note_on,,,,,1,0,0,,,,,0,,,81,50
158039,note_on,,,,,79,0,0,,,,,0,,,81,0
158040,note_on,,,,,1,0,0,,,,,0,,,82,50
158119,note_on,,,,,79,0,0,,,,,0,,,82,0
158120,note_on,,,,,1,0,0,,,,,0,,,85,50
158199,note_on,,,,,79,0,0,,,,,0,,,85,0
158200,note_on,,,,,1,0,0,,,,,0,,,86,50
158275,note_on,,,,,75,0,0,,,,,0,,,86,0
158280,note_on,,,,,2653,0,1,,,,,0,,,44,50
158280,set_tempo,,,,,0,1,0,,666667,,,,,,,
158280,time_signature,6,4,24,8,5,1,0,,,,,,,,,
158281,control_change,,,,,1,0,0,,,64,0,0,,,,
158282,control_change,,,,,1,0,0,,,64,127,0,,,,
158507,note_on,,,,,227,0,1,,,,,0,,,44,0
158520,note_on,,,,,13,0,1,,,,,0,,,51,50
158520,note_on,,,,,0,0,1,,,,,0,,,61,50
158520,note_on,,,,,238,0,0,,,,,0,,,89,60
158747,note_on,,,,,0,0,1,,,,,0,,,61,0
158747,note_on,,,,,227,0,1,,,,,0,,,51,0
158760,note_on,,,,,13,0,1,,,,,0,,,56,50
158760,note_on,,,,,0,0,1,,,,,0,,,63,50
158987,note_on,,,,,227,0,1,,,,,0,,,56,0
158987,note_on,,,,,0,0,1,,,,,0,,,63,0
158999,note_on,,,,,479,0,0,,,,,0,,,89,0
159000,note_on,,,,,0,0,1,,,,,0,,,70,50
159000,note_on,,,,,1,0,0,,,,,0,,,87,50
159000,note_on,,,,,13,0,1,,,,,0,,,61,50
159227,note_on,,,,,227,0,1,,,,,0,,,61,0
159227,note_on,,,,,0,0,1,,,,,0,,,70,0
159239,note_on,,,,,239,0,0,,,,,0,,,87,0
159240,note_on,,,,,1,0,0,,,,,0,,,85,50
159479,note_on,,,,,239,0,0,,,,,0,,,85,0
159480,note_on,,,,,1,0,0,,,,,0,,,82,50
159707,note_on,,,,,227,0,0,,,,,0,,,82,0
159720,note_on,,,,,493,0,1,,,,,0,,,44,50
159947,note_on,,,,,227,0,1,,,,,0,,,44,0
159960,note_on,,,,,253,0,0,,,,,0,,,77,60
159960,note_on,,,,,13,0,1,,,,,0,,,51,50
160023,note_on,,,,,63,0,1,,,,,0,,,61,50
160198,note_on,,,,,175,0,1,,,,,0,,,61,0
160199,note_on,,,,,1,0,1,,,,,0,,,51,0
160200,note_on,,,,,1,0,1,,,,,0,,,55,50
160200,note_on,,,,,0,0,1,,,,,0,,,63,50
160427,note_on,,,,,227,0,1,,,,,0,,,55,0
160427,note_on,,,,,0,0,1,,,,,0,,,63,0
160439,note_on,,,,,479,0,0,,,,,0,,,77,0
160440,note_on,,,,,0,0,1,,,,,0,,,67,50
160440,note_on,,,,,13,0,1,,,,,0,,,61,50
160440,note_on,,,,,1,0,0,,,,,0,,,75,50
160667,note_on,,,,,0,0,1,,,,,0,,,67,0
160667,note_on,,,,,227,0,1,,,,,0,,,61,0
160679,note_on,,,,,239,0,0,,,,,0,,,75,0
160680,note_on,,,,,1,0,0,,,,,0,,,73,50
160919,note_on,,,,,239,0,0,,,,,0,,,73,0
160920,note_on,,,,,1,0,0,,,,,0,,,70,50
161147,note_on,,,,,227,0,0,,,,,0,,,70,0
161160,note_on,,,,,13,0,0,,,,,0,,,67,50
161160,note_on,,,,,493,0,1,,,,,0,,,44,50
161161,control_change,,,,,1,0,0,,,64,0,0,,,,
161162,control_change,,,,,1,0,0,,,64,127,0,,,,
161387,note_on,,,,,225,0,0,,,,,0,,,67,0
161387,note_on,,,,,227,0,1,,,,,0,,,44,0
161400,note_on,,,,,13,0,0,,,,,0,,,68,50
161400,note_on,,,,,13,0,1,,,,,0,,,51,50
161400,note_on,,,,,0,0,1,,,,,0,,,60,50
161627,note_on,,,,,0,0,1,,,,,0,,,60,0
161627,note_on,,,,,227,0,1,,,,,0,,,51,0
161627,note_on,,,,,227,0,0,,,,,0,,,68,0
161640,note_on,,,,,0,0,1,,,,,0,,,63,50
161640,note_on,,,,,13,0,1,,,,,0,,,56,50
161640,note_on,,,,,13,0,0,,,,,0,,,72,50
161867,note_on,,,,,227,0,0,,,,,0,,,72,0
161867,note_on,,,,,0,0,1,,,,,0,,,63,0
161867,note_on,,,,,227,0,1,,,,,0,,,56,0
161880,note_on,,,,,13,0,1,,,,,0,,,60,50
161880,note_on,,,,,0,0,1,,,,,0,,,68,50
161880,note_on,,,,,13,0,0,,,,,0,,,75,50
162107,note_on,,,,,0,0,1,,,,,0,,,68,0
162107,note_on,,,,,227,0,1,,,,,0,,,60,0
162107,note_on,,,,,227,0,0,,,,,0,,,75,0
162120,note_on,,,,,13,0,0,,,,,0,,,79,50
162233,note_on,,,,,113,0,0,,,,,0,,,79,0
162240,note_on,,,,,7,0,0,,,,,0,,,80,50
162353,note_on,,,,,113,0,0,,,,,0,,,80,0
162360,note_on,,,,,7,0,0,,,,,0,,,84,50
162439,note_on,,,,,79,0,0,,,,,0,,,84,0
162440,note_on,,,,,1,0,0,,,,,0,,,87,50
162519,note_on,,,,,79,0,0,,,,,0,,,87,0
162520,note_on,,,,,1,0,0,,,,,0,,,96,50
162595,note_on,,,,,75,0,0,,,,,0,,,96,0
162600,note_on,,,,,5,0,0,,,,,0,,,92,50
162840,note_on,,,,,733,0,1,,,,,0,,,60,50
162840,note_on,,,,,0,0,1,,,,,0,,,68,50
163055,note_on,,,,,455,0,0,,,,,0,,,92,0
163079,note_on,,,,,239,0,1,,,,,0,,,60,0
163079,note_on,,,,,0,0,1,,,,,0,,,68,0
163080,note_on,,,,,1,0,1,,,,,0,,,63,50
163080,note_on,,,,,0,0,1,,,,,0,,,72,50
163319,note_on,,,,,239,0,1,,,,,0,,,63,0
163319,note_on,,,,,0,0,1,,,,,0,,,72,0
163320,note_on,,,,,0,0,1,,,,,0,,,75,50
163320,note_on,,,,,1,0,1,,,,,0,,,68,50
163433,note_on,,,,,0,0,1,,,,,0,,,75,0
163433,note_on,,,,,113,0,1,,,,,0,,,68,0
163440,set_tempo,,,,,385,1,0,,2000000,,,,,,,
163440,note_on,,,,,0,0,0,,,,,0,,,75,50
163461,note_on,,,,,21,0,0,,,,,0,,,75,0
163464,note_on,,,,,3,0,0,,,,,0,,,77,50
163485,note_on,,,,,21,0,0,,,,,0,,,77,0
163488,note_on,,,,,3,0,0,,,,,0,,,75,50
163509,note_on,,,,,21,0,0,,,,,0,,,75,0
163512,note_on,,,,,3,0,0,,,,,0,,,74,50
163533,note_on,,,,,21,0,0,,,,,0,,,74,0
163536,note_on,,,,,3,0,0,,,,,0,,,75,50
163557,note_on,,,,,21,0,0,,,,,0,,,75,0
163560,set_tempo,,,,,3,1,0,,1000000,,,,,,,
163560,note_on,,,,,0,0,0,,,,,0,,,84,50
163679,note_on,,,,,119,0,0,,,,,0,,,84,0
163800,set_tempo,,,,,121,1,0,,666667,,,,,,,
163800,note_on,,,,,0,0,0,,,,,0,,,79,50
163919,note_on,,,,,119,0,0,,,,,0,,,79,0
164040,note_on,,,,,607,0,1,,,,,0,,,44,50
164041,control_change,,,,,122,0,0,,,64,0,0,,,,
164042,control_change,,,,,1,0,0,,,64,127,0,,,,
164267,note_on,,,,,227,0,1,,,,,0,,,44,0
164280,note_on,,,,,13,0,1,,,,,0,,,51,50
164280,note_on,,,,,238,0,0,,,,,0,,,82,60
164280,note_on,,,,,0,0,1,,,,,0,,,60,50
164507,note_on,,,,,0,0,1,,,,,0,,,60,0
164507,note_on,,,,,227,0,1,,,,,0,,,51,0
164520,note_on,,,,,13,0,1,,,,,0,,,56,50
164520,note_on,,,,,0,0,1,,,,,0,,,63,50
164747,note_on,,,,,0,0,1,,,,,0,,,63,0
164747,note_on,,,,,227,0,1,,,,,0,,,56,0
164759,note_on,,,,,479,0,0,,,,,0,,,82,0
164760,note_on,,,,,13,0,1,,,,,0,,,60,50
164760,note_on,,,,,0,0,1,,,,,0,,,68,50
164760,note_on,,,,,1,0,0,,,,,0,,,80,50
164987,note_on,,,,,0,0,1,,,,,0,,,68,0
164987,note_on,,,,,227,0,1,,,,,0,,,60,0
164999,note_on,,,,,239,0,0,,,,,0,,,80,0
165000,note_on,,,,,1,0,0,,,,,0,,,72,50
165239,note_on,,,,,239,0,0,,,,,0,,,72,0
165240,note_on,,,,,1,0,0,,,,,0,,,73,50
165467,note_on,,,,,227,0,0,,,,,0,,,73,0
165480,note_on,,,,,493,0,1,,,,,0,,,44,50
165707,note_on,,,,,227,0,1,,,,,0,,,44,0
165720,note_on,,,,,13,0,1,,,,,0,,,51,50
165720,note_on,,,,,253,0,0,,,,,0,,,77,60
165720,note_on,,,,,0,0,1,,,,,0,,,60,50
165947,note_on,,,,,227,0,1,,,,,0,,,51,0
165947,note_on,,,,,0,0,1,,,,,0,,,60,0
165960,note_on,,,,,0,0,1,,,,,0,,,63,50
165960,note_on,,,,,13,0,1,,,,,0,,,56,50
166187,note_on,,,,,0,0,1,,,,,0,,,63,0
166187,note_on,,,,,227,0,1,,,,,0,,,56,0
166199,note_on,,,,,479,0,0,,,,,0,,,77,0
166200,note_on,,,,,13,0,1,,,,,0,,,60,50
166200,note_on,,,,,1,0,0,,,,,0,,,75,50
166200,note_on,,,,,0,0,1,,,,,0,,,68,50
166427,note_on,,,,,0,0,1,,,,,0,,,68,0
166427,note_on,,,,,227,0,1,,,,,0,,,60,0
166439,note_on,,,,,239,0,0,,,,,0,,,75,0
166440,note_on,,,,,1,0,0,,,,,0,,,73,50
166679,note_on,,,,,239,0,0,,,,,0,,,73,0
166680,note_on,,,,,1,0,0,,,,,0,,,72,50
166907,note_on,,,,,227,0,0,,,,,0,,,72,0
166920,time_signature,15,8,24,8,13,1,0,,,,,,,,,
166920,note_on,,,,,493,0,1,,,,,0,,,38,50
166921,control_change,,,,,1,0,0,,,64,0,0,,,,
166922,control_change,,,,,1,0,0,,,64,127,0,,,,
167147,note_on,,,,,227,0,1,,,,,0,,,38,0
167160,note_on,,,,,0,0,1,,,,,0,,,56,50
167160,note_on,,,,,238,0,0,,,,,0,,,72,60
167160,note_on,,,,,13,0,1,,,,,0,,,50,50
167387,note_on,,,,,227,0,1,,,,,0,,,50,0
167387,note_on,,,,,0,0,1,,,,,0,,,56,0
167400,note_on,,,,,0,0,1,,,,,0,,,62,50
167400,note_on,,,,,13,0,1,,,,,0,,,53,50
167627,note_on,,,,,0,0,1,,,,,0,,,62,0
167627,note_on,,,,,227,0,1,,,,,0,,,53,0
167639,note_on,,,,,479,0,0,,,,,0,,,72,0
167640,note_on,,,,,0,0,1,,,,,0,,,65,50
167640,note_on,,,,,13,0,1,,,,,0,,,56,50
167640,note_on,,,,,1,0,0,,,,,0,,,70,50
167867,note_on,,,,,227,0,1,,,,,0,,,56,0
167867,note_on,,,,,0,0,1,,,,,0,,,65,0
167879,note_on,,,,,239,0,0,,,,,0,,,70,0
167880,note_on,,,,,1,0,0,,,,,0,,,69,50
168119,note_on,,,,,239,0,0,,,,,0,,,69,0
168120,note_on,,,,,1,0,0,,,,,0,,,70,50
168359,note_on,,,,,239,0,0,,,,,0,,,70,0
168360,note_on,,,,,1,0,0,,,,,0,,,69,50
168439,note_on,,,,,79,0,0,,,,,0,,,69,0
168440,note_on,,,,,1,0,0,,,,,0,,,70,50
168519,note_on,,,,,79,0,0,,,,,0,,,70,0
168520,note_on,,,,,1,0,0,,,,,0,,,72,50
168599,note_on,,,,,79,0,0,,,,,0,,,72,0
168600,note_on,,,,,1,0,0,,,,,0,,,70,50
168658,note_on,,,,,58,0,0,,,,,0,,,70,0
168659,note_on,,,,,1,0,0,,,,,0,,,72,50
168717,note_on,,,,,58,0,0,,,,,0,,,72,0
168720,note_on,,,,,3,0,0,,,,,0,,,70,50
168778,note_on,,,,,58,0,0,,,,,0,,,70,0
168779,note_on,,,,,1,0,0,,,,,0,,,72,50
168837,note_on,,,,,58,0,0,,,,,0,,,72,0
168840,note_on,,,,,3,0,0,,,,,0,,,70,50
168898,note_on,,,,,58,0,0,,,,,0,,,70,0
168899,note_on,,,,,1,0,0,,,,,0,,,72,50
168957,note_on,,,,,58,0,0,,,,,0,,,72,0
168960,note_on,,,,,3,0,0,,,,,0,,,70,50
169018,note_on,,,,,58,0,0,,,,,0,,,70,0
169019,note_on,,,,,1,0,0,,,,,0,,,72,50
169077,note_on,,,,,58,0,0,,,,,0,,,72,0
169080,note_on,,,,,0,0,1,,,,,0,,,68,50
169080,note_on,,,,,0,0,1,,,,,0,,,62,50
169080,note_on,,,,,3,0,0,,,,,0,,,70,50
169080,note_on,,,,,1213,0,1,,,,,0,,,53,50
169138,note_on,,,,,58,0,0,,,,,0,,,70,0
169139,note_on,,,,,1,0,0,,,,,0,,,72,50
169197,note_on,,,,,58,0,0,,,,,0,,,72,0
169200,note_on,,,,,3,0,0,,,,,0,,,70,50
169258,note_on,,,,,58,0,0,,,,,0,,,70,0
169259,note_on,,,,,1,0,0,,,,,0,,,72,50
169307,note_on,,,,,0,0,1,,,,,0,,,62,0
169307,note_on,,,,,0,0,1,,,,,0,,,68,0
169307,note_on,,,,,227,0,1,,,,,0,,,53,0
169317,note_on,,,,,58,0,0,,,,,0,,,72,0
169320,note_on,,,,,3,0,0,,,,,0,,,70,50
169378,note_on,,,,,58,0,0,,,,,0,,,70,0
169379,note_on,,,,,1,0,0,,,,,0,,,72,50
169437,note_on,,,,,58,0,0,,,,,0,,,72,0
169440,note_on,,,,,3,0,0,,,,,0,,,70,50
169498,note_on,,,,,58,0,0,,,,,0,,,70,0
169499,note_on,,,,,1,0,0,,,,,0,,,72,50
169557,note_on,,,,,58,0,0,,,,,0,,,72,0
169560,set_tempo,,,,,3,1,0,,545456,,,,,,,
169560,note_on,,,,,0,0,0,,,,,0,,,69,50
169639,note_on,,,,,79,0,0,,,,,0,,,69,0
169640,note_on,,,,,1,0,0,,,,,0,,,70,50
169719,note_on,,,,,79,0,0,,,,,0,,,70,0
169720,note_on,,,,,1,0,0,,,,,0,,,73,50
169799,note_on,,,,,79,0,0,,,,,0,,,73,0
169800,note_on,,,,,1,0,0,,,,,0,,,74,50
169879,note_on,,,,,79,0,0,,,,,0,,,74,0
169880,note_on,,,,,1,0,0,,,,,0,,,76,50
169959,note_on,,,,,79,0,0,,,,,0,,,76,0
169960,note_on,,,,,1,0,0,,,,,0,,,77,50
170039,note_on,,,,,79,0,0,,,,,0,,,77,0
170040,note_on,,,,,1,0,0,,,,,0,,,79,50
170119,note_on,,,,,79,0,0,,,,,0,,,79,0
170120,note_on,,,,,1,0,0,,,,,0,,,80,50
170199,note_on,,,,,79,0,0,,,,,0,,,80,0
170200,note_on,,,,,1,0,0,,,,,0,,,81,50
170279,note_on,,,,,79,0,0,,,,,0,,,81,0
170280,note_on,,,,,1,0,0,,,,,0,,,82,50
170359,note_on,,,,,79,0,0,,,,,0,,,82,0
170360,note_on,,,,,1,0,0,,,,,0,,,85,50
170439,note_on,,,,,79,0,0,,,,,0,,,85,0
170440,note_on,,,,,1,0,0,,,,,0,,,86,50
170515,note_on,,,,,75,0,0,,,,,0,,,86,0
170520,set_tempo,,,,,0,1,0,,666667,,,,,,,
170520,note_on,,,,,1213,0,1,,,,,0,,,39,50
170520,time_signature,6,4,24,8,5,1,0,,,,,,,,,
170521,control_change,,,,,1,0,0,,,64,0,0,,,,
170522,control_change,,,,,1,0,0,,,64,127,0,,,,
170747,note_on,,,,,227,0,1,,,,,0,,,39,0
170760,note_on,,,,,238,0,0,,,,,0,,,89,60
170760,note_on,,,,,13,0,1,,,,,0,,,60,50
170760,note_on,,,,,0,0,1,,,,,0,,,68,50
170987,note_on,,,,,227,0,1,,,,,0,,,60,0
170987,note_on,,,,,0,0,1,,,,,0,,,68,0
171000,note_on,,,,,0,0,1,,,,,0,,,72,50
171000,note_on,,,,,13,0,1,,,,,0,,,63,50
171227,note_on,,,,,0,0,1,,,,,0,,,72,0
171227,note_on,,,,,227,0,1,,,,,0,,,63,0
171239,note_on,,,,,479,0,0,,,,,0,,,89,0
171240,note_on,,,,,13,0,1,,,,,0,,,68,50
171240,note_on,,,,,0,0,1,,,,,0,,,75,50
171240,note_on,,,,,1,0,0,,,,,0,,,87,50
171467,note_on,,,,,0,0,1,,,,,0,,,75,0
171467,note_on,,,,,227,0,1,,,,,0,,,68,0
171479,note_on,,,,,239,0,0,,,,,0,,,87,0
171480,note_on,,,,,1,0,0,,,,,0,,,84,50
171719,note_on,,,,,239,0,0,,,,,0,,,84,0
171720,note_on,,,,,1,0,0,,,,,0,,,80,50
171947,note_on,,,,,227,0,0,,,,,0,,,80,0
171960,note_on,,,,,493,0,1,,,,,0,,,39,50
171961,control_change,,,,,14,0,0,,,64,0,0,,,,
171962,control_change,,,,,1,0,0,,,64,127,0,,,,
172187,note_on,,,,,227,0,1,,,,,0,,,39,0
172200,note_on,,,,,13,0,1,,,,,0,,,51,50
172200,note_on,,,,,238,0,0,,,,,0,,,77,60
172200,note_on,,,,,0,0,1,,,,,0,,,61,50
172427,note_on,,,,,0,0,1,,,,,0,,,61,0
172427,note_on,,,,,227,0,1,,,,,0,,,51,0
172440,note_on,,,,,13,0,1,,,,,0,,,55,50
172440,note_on,,,,,0,0,1,,,,,0,,,63,50
172667,note_on,,,,,227,0,1,,,,,0,,,55,0
172667,note_on,,,,,0,0,1,,,,,0,,,63,0
172679,note_on,,,,,479,0,0,,,,,0,,,77,0
172680,note_on,,,,,0,0,1,,,,,0,,,67,50
172680,note_on,,,,,13,0,1,,,,,0,,,61,50
172680,note_on,,,,,1,0,0,,,,,0,,,75,50
172907,note_on,,,,,0,0,1,,,,,0,,,67,0
172907,note_on,,,,,227,0,1,,,,,0,,,61,0
172919,note_on,,,,,239,0,0,,,,,0,,,75,0
172920,note_on,,,,,1,0,0,,,,,0,,,73,50
173159,note_on,,,,,239,0,0,,,,,0,,,73,0
173160,note_on,,,,,1,0,0,,,,,0,,,70,50
173387,note_on,,,,,227,0,0,,,,,0,,,70,0
173400,time_signature,13,8,24,8,13,1,0,,,,,,,,,
173400,note_on,,,,,0,0,0,,,,,0,,,67,50
173400,note_on,,,,,493,0,1,,,,,0,,,44,50
173401,control_change,,,,,1,0,0,,,64,0,0,,,,
173402,control_change,,,,,1,0,0,,,64,127,0,,,,
173627,note_on,,,,,225,0,0,,,,,0,,,67,0
173627,note_on,,,,,227,0,1,,,,,0,,,44,0
173640,note_on,,,,,13,0,1,,,,,0,,,51,50
173640,note_on,,,,,13,0,0,,,,,0,,,68,50
173640,note_on,,,,,0,0,1,,,,,0,,,60,50
173867,note_on,,,,,0,0,1,,,,,0,,,60,0
173867,note_on,,,,,227,0,1,,,,,0,,,51,0
173867,note_on,,,,,227,0,0,,,,,0,,,68,0
173880,note_on,,,,,13,0,1,,,,,0,,,56,50
173880,note_on,,,,,13,0,0,,,,,0,,,72,50
173880,note_on,,,,,0,0,1,,,,,0,,,63,50
174107,note_on,,,,,227,0,0,,,,,0,,,72,0
174107,note_on,,,,,227,0,1,,,,,0,,,56,0
174107,note_on,,,,,0,0,1,,,,,0,,,63,0
174120,note_on,,,,,13,0,0,,,,,0,,,75,50
174120,note_on,,,,,13,0,1,,,,,0,,,60,50
174120,note_on,,,,,0,0,1,,,,,0,,,68,50
174347,note_on,,,,,227,0,0,,,,,0,,,75,0
174347,note_on,,,,,227,0,1,,,,,0,,,60,0
174347,note_on,,,,,0,0,1,,,,,0,,,68,0
174360,note_on,,,,,13,0,0,,,,,0,,,79,50
174360,note_on,,,,,13,0,1,,,,,0,,,63,50
174360,note_on,,,,,0,0,1,,,,,0,,,72,50
174473,note_on,,,,,113,0,0,,,,,0,,,79,0
174480,note_on,,,,,7,0,0,,,,,0,,,80,50
174587,note_on,,,,,227,0,1,,,,,0,,,63,0
174587,note_on,,,,,0,0,1,,,,,0,,,72,0
174593,note_on,,,,,113,0,0,,,,,0,,,80,0
174600,note_on,,,,,13,0,1,,,,,0,,,68,50
174600,note_on,,,,,0,0,1,,,,,0,,,75,50
174600,note_on,,,,,7,0,0,,,,,0,,,84,50
174679,note_on,,,,,79,0,0,,,,,0,,,84,0
174680,note_on,,,,,1,0,0,,,,,0,,,87,50
174759,note_on,,,,,79,0,0,,,,,0,,,87,0
174760,note_on,,,,,1,0,0,,,,,0,,,96,50
174827,note_on,,,,,227,0,1,,,,,0,,,68,0
174827,note_on,,,,,0,0,1,,,,,0,,,75,0
174835,note_on,,,,,75,0,0,,,,,0,,,96,0
174840,note_on,,,,,13,0,1,,,,,0,,,72,50
174840,note_on,,,,,5,0,0,,,,,0,,,92,50
174840,note_on,,,,,0,0,1,,,,,0,,,80,50
175295,note_on,,,,,455,0,1,,,,,0,,,72,0
175295,note_on,,,,,0,0,1,,,,,0,,,80,0
175295,note_on,,,,,455,0,0,,,,,0,,,92,0
175320,set_tempo,,,,,25,1,0,,2000000,,,,,,,
175799,set_tempo,,,,,479,1,0,,666667,,,,,,,
175800,note_on,,,,,1,0,0,,,,,0,,,56,50
175801,control_change,,,,,1,0,0,,,64,0,0,,,,
175875,note_on,,,,,74,0,0,,,,,0,,,56,0
175880,note_on,,,,,5,0,0,,,,,0,,,56,50
175955,note_on,,,,,75,0,0,,,,,0,,,56,0
175960,note_on,,,,,5,0,0,,,,,0,,,60,50
176035,note_on,,,,,75,0,0,,,,,0,,,60,0
176040,note_on,,,,,5,0,0,,,,,0,,,58,50
176267,note_on,,,,,227,0,0,,,,,0,,,58,0
176280,note_on,,,,,13,0,0,,,,,0,,,56,50
176507,note_on,,,,,227,0,0,,,,,0,,,56,0
176520,time_signature,6,4,24,8,13,1,0,,,,,,,,,
176520,note_on,,,,,0,0,0,,,,,0,,,65,50
176520,note_on,,,,,0,0,1,,,,,0,,,37,50
176520,note_on,,,,,0,0,1,,,,,0,,,44,50
176520,note_on,,,,,0,0,1,,,,,0,,,49,50
176520,note_on,,,,,0,0,1,,,,,0,,,53,50
176520,note_on,,,,,0,0,1,,,,,0,,,56,50
176520,key_signature,,,,,1225,1,1,Db,,,,,,,,
176520,key_signature,,,,,0,1,0,Db,,,,,,,,
176522,control_change,,,,,2,0,1,,,64,127,0,,,,
176747,note_on,,,,,225,0,1,,,,,0,,,53,0
176747,note_on,,,,,0,0,1,,,,,0,,,44,0
176747,note_on,,,,,0,0,1,,,,,0,,,56,0
176747,note_on,,,,,0,0,1,,,,,0,,,49,0
176747,note_on,,,,,0,0,1,,,,,0,,,37,0
176760,note_on,,,,,13,0,1,,,,,0,,,53,50
176760,note_on,,,,,0,0,1,,,,,0,,,56,50
176760,note_on,,,,,0,0,1,,,,,0,,,37,50
176760,note_on,,,,,0,0,1,,,,,0,,,44,50
176760,note_on,,,,,0,0,1,,,,,0,,,49,50
176987,note_on,,,,,227,0,1,,,,,0,,,53,0
176987,note_on,,,,,0,0,1,,,,,0,,,37,0
176987,note_on,,,,,0,0,1,,,,,0,,,44,0
176987,note_on,,,,,0,0,1,,,,,0,,,49,0
176987,note_on,,,,,0,0,1,,,,,0,,,56,0
177000,note_on,,,,,13,0,1,,,,,0,,,53,50
177000,note_on,,,,,0,0,1,,,,,0,,,37,50
177000,note_on,,,,,0,0,1,,,,,0,,,56,50
177000,note_on,,,,,0,0,1,,,,,0,,,49,50
177000,note_on,,,,,0,0,1,,,,,0,,,44,50
177227,note_on,,,,,0,0,1,,,,,0,,,56,0
177227,note_on,,,,,0,0,1,,,,,0,,,49,0
177227,note_on,,,,,227,0,1,,,,,0,,,53,0
177227,note_on,,,,,0,0,1,,,,,0,,,44,0
177227,note_on,,,,,0,0,1,,,,,0,,,37,0
177239,note_on,,,,,719,0,0,,,,,0,,,65,0
177240,note_on,,,,,0,0,1,,,,,0,,,56,50
177240,note_on,,,,,13,0,1,,,,,0,,,53,50
177240,note_on,,,,,0,0,1,,,,,0,,,44,50
177240,note_on,,,,,0,0,1,,,,,0,,,37,50
177240,note_on,,,,,1,0,0,,,,,0,,,64,50
177240,note_on,,,,,0,0,1,,,,,0,,,49,50
177359,note_on,,,,,119,0,0,,,,,0,,,64,0
177467,note_on,,,,,227,0,1,,,,,0,,,53,0
177467,note_on,,,,,0,0,1,,,,,0,,,49,0
177467,note_on,,,,,0,0,1,,,,,0,,,56,0
177467,note_on,,,,,0,0,1,,,,,0,,,44,0
177467,note_on,,,,,0,0,1,,,,,0,,,37,0
177480,note_on,,,,,0,0,1,,,,,0,,,44,50
177480,note_on,,,,,0,0,1,,,,,0,,,37,50
177480,note_on,,,,,13,0,1,,,,,0,,,53,50
177480,note_on,,,,,121,0,0,,,,,0,,,65,50
177480,note_on,,,,,0,0,1,,,,,0,,,56,50
177480,note_on,,,,,0,0,1,,,,,0,,,49,50
177599,note_on,,,,,119,0,0,,,,,0,,,65,0
177707,note_on,,,,,227,0,1,,,,,0,,,53,0
177707,note_on,,,,,0,0,1,,,,,0,,,49,0
177707,note_on,,,,,0,0,1,,,,,0,,,44,0
177707,note_on,,,,,0,0,1,,,,,0,,,56,0
177707,note_on,,,,,0,0,1,,,,,0,,,37,0
177720,note_on,,,,,13,0,1,,,,,0,,,53,50
177720,note_on,,,,,121,0,0,,,,,0,,,64,50
177720,note_on,,,,,0,0,1,,,,,0,,,37,50
177720,note_on,,,,,0,0,1,,,,,0,,,44,50
177720,note_on,,,,,0,0,1,,,,,0,,,49,50
177720,note_on,,,,,0,0,1,,,,,0,,,56,50
177839,note_on,,,,,119,0,0,,,,,0,,,64,0
177947,note_on,,,,,0,0,1,,,,,0,,,49,0
177947,note_on,,,,,0,0,1,,,,,0,,,44,0
177947,note_on,,,,,0,0,1,,,,,0,,,56,0
177947,note_on,,,,,227,0,1,,,,,0,,,53,0
177947,note_on,,,,,0,0,1,,,,,0,,,37,0
177960,note_on,,,,,0,0,1,,,,,0,,,37,50
177960,note_on,,,,,0,0,1,,,,,0,,,44,50
177960,note_on,,,,,0,0,1,,,,,0,,,49,50
177960,note_on,,,,,0,0,1,,,,,0,,,56,50
177960,note_on,,,,,13,0,1,,,,,0,,,53,50
177960,note_on,,,,,121,0,0,,,,,0,,,65,50
178079,note_on,,,,,119,0,0,,,,,0,,,65,0
178187,note_on,,,,,227,0,1,,,,,0,,,53,0
178187,note_on,,,,,0,0,1,,,,,0,,,37,0
178187,note_on,,,,,0,0,1,,,,,0,,,44,0
178187,note_on,,,,,0,0,1,,,,,0,,,49,0
178187,note_on,,,,,0,0,1,,,,,0,,,56,0
178200,note_on,,,,,13,0,1,,,,,0,,,53,50
178200,note_on,,,,,0,0,1,,,,,0,,,56,50
178200,note_on,,,,,121,0,0,,,,,0,,,64,50
178200,note_on,,,,,0,0,1,,,,,0,,,44,50
178200,note_on,,,,,0,0,1,,,,,0,,,49,50
178200,note_on,,,,,0,0,1,,,,,0,,,37,50
178319,note_on,,,,,119,0,0,,,,,0,,,64,0
178427,note_on,,,,,0,0,1,,,,,0,,,37,0
178427,note_on,,,,,0,0,1,,,,,0,,,44,0
178427,note_on,,,,,0,0,1,,,,,0,,,49,0
178427,note_on,,,,,227,0,1,,,,,0,,,53,0
178427,note_on,,,,,0,0,1,,,,,0,,,56,0
178440,note_on,,,,,0,0,1,,,,,0,,,56,50
178440,note_on,,,,,0,0,1,,,,,0,,,49,50
178440,note_on,,,,,0,0,1,,,,,0,,,44,50
178440,note_on,,,,,121,0,0,,,,,0,,,65,50
178440,note_on,,,,,0,0,1,,,,,0,,,37,50
178440,note_on,,,,,13,0,1,,,,,0,,,53,50
178559,note_on,,,,,119,0,0,,,,,0,,,65,0
178667,note_on,,,,,0,0,1,,,,,0,,,56,0
178667,note_on,,,,,227,0,1,,,,,0,,,53,0
178667,note_on,,,,,0,0,1,,,,,0,,,44,0
178667,note_on,,,,,0,0,1,,,,,0,,,49,0
178667,note_on,,,,,0,0,1,,,,,0,,,37,0
178680,note_on,,,,,0,0,1,,,,,0,,,49,50
178680,note_on,,,,,121,0,0,,,,,0,,,63,50
178680,note_on,,,,,13,0,1,,,,,0,,,53,50
178680,note_on,,,,,0,0,1,,,,,0,,,37,50
178680,note_on,,,,,0,0,1,,,,,0,,,44,50
178680,note_on,,,,,0,0,1,,,,,0,,,56,50
178799,note_on,,,,,119,0,0,,,,,0,,,63,0
178907,note_on,,,,,0,0,1,,,,,0,,,56,0
178907,note_on,,,,,0,0,1,,,,,0,,,44,0
178907,note_on,,,,,0,0,1,,,,,0,,,37,0
178907,note_on,,,,,227,0,1,,,,,0,,,53,0
178907,note_on,,,,,0,0,1,,,,,0,,,49,0
178920,note_on,,,,,0,0,1,,,,,0,,,37,50
178920,note_on,,,,,0,0,1,,,,,0,,,44,50
178920,note_on,,,,,0,0,1,,,,,0,,,49,50
178920,note_on,,,,,13,0,1,,,,,0,,,53,50
178920,note_on,,,,,121,0,0,,,,,0,,,61,50
178920,note_on,,,,,0,0,1,,,,,0,,,56,50
179039,note_on,,,,,119,0,0,,,,,0,,,61,0
179147,note_on,,,,,227,0,1,,,,,0,,,53,0
179147,note_on,,,,,0,0,1,,,,,0,,,56,0
179147,note_on,,,,,0,0,1,,,,,0,,,37,0
179147,note_on,,,,,0,0,1,,,,,0,,,44,0
179147,note_on,,,,,0,0,1,,,,,0,,,49,0
179160,note_on,,,,,13,0,1,,,,,0,,,53,50
179160,note_on,,,,,0,0,1,,,,,0,,,56,50
179160,note_on,,,,,0,0,1,,,,,0,,,49,50
179160,note_on,,,,,0,0,1,,,,,0,,,44,50
179160,note_on,,,,,0,0,1,,,,,0,,,37,50
179160,note_on,,,,,121,0,0,,,,,0,,,60,50
179279,note_on,,,,,119,0,0,,,,,0,,,60,0
179387,note_on,,,,,227,0,1,,,,,0,,,53,0
179387,note_on,,,,,0,0,1,,,,,0,,,37,0
179387,note_on,,,,,0,0,1,,,,,0,,,44,0
179387,note_on,,,,,0,0,1,,,,,0,,,49,0
179387,note_on,,,,,0,0,1,,,,,0,,,56,0
179400,note_on,,,,,0,0,1,,,,,0,,,37,50
179400,note_on,,,,,121,0,0,,,,,0,,,58,50
179400,note_on,,,,,0,0,1,,,,,0,,,53,50
179400,note_on,,,,,13,0,1,,,,,0,,,49,50
179400,note_on,,,,,0,0,1,,,,,0,,,44,50
179401,control_change,,,,,1,0,1,,,64,0,0,,,,
179402,control_change,,,,,1,0,1,,,64,127,0,,,,
179519,note_on,,,,,119,0,0,,,,,0,,,58,0
179627,note_on,,,,,0,0,1,,,,,0,,,37,0
179627,note_on,,,,,0,0,1,,,,,0,,,44,0
179627,note_on,,,,,225,0,1,,,,,0,,,49,0
179627,note_on,,,,,0,0,1,,,,,0,,,53,0
179640,note_on,,,,,0,0,1,,,,,0,,,37,50
179640,note_on,,,,,0,0,1,,,,,0,,,53,50
179640,note_on,,,,,0,0,1,,,,,0,,,44,50
179640,note_on,,,,,121,0,0,,,,,0,,,56,50
179640,note_on,,,,,13,0,1,,,,,0,,,49,50
179759,note_on,,,,,119,0,0,,,,,0,,,56,0
179867,note_on,,,,,227,0,1,,,,,0,,,49,0
179867,note_on,,,,,0,0,1,,,,,0,,,44,0
179867,note_on,,,,,0,0,1,,,,,0,,,37,0
179867,note_on,,,,,0,0,1,,,,,0,,,53,0
179880,note_on,,,,,0,0,1,,,,,0,,,44,50
179880,note_on,,,,,121,0,0,,,,,0,,,55,50
179880,note_on,,,,,0,0,1,,,,,0,,,53,50
179880,note_on,,,,,0,0,1,,,,,0,,,37,50
179880,note_on,,,,,13,0,1,,,,,0,,,49,50
179999,note_on,,,,,119,0,0,,,,,0,,,55,0
180107,note_on,,,,,0,0,1,,,,,0,,,37,0
180107,note_on,,,,,227,0,1,,,,,0,,,49,0
180107,note_on,,,,,0,0,1,,,,,0,,,53,0
180107,note_on,,,,,0,0,1,,,,,0,,,44,0
180120,note_on,,,,,0,0,1,,,,,0,,,44,50
180120,note_on,,,,,0,0,1,,,,,0,,,37,50
180120,note_on,,,,,0,0,1,,,,,0,,,53,50
180120,note_on,,,,,13,0,1,,,,,0,,,49,50
180120,note_on,,,,,121,0,0,,,,,0,,,56,50
180239,note_on,,,,,119,0,0,,,,,0,,,56,0
180347,note_on,,,,,0,0,1,,,,,0,,,53,0
180347,note_on,,,,,227,0,1,,,,,0,,,49,0
180347,note_on,,,,,0,0,1,,,,,0,,,37,0
180347,note_on,,,,,0,0,1,,,,,0,,,44,0
180360,note_on,,,,,121,0,0,,,,,0,,,55,50
180360,note_on,,,,,0,0,1,,,,,0,,,44,50
180360,note_on,,,,,0,0,1,,,,,0,,,53,50
180360,note_on,,,,,13,0,1,,,,,0,,,49,50
180360,note_on,,,,,0,0,1,,,,,0,,,37,50
180479,note_on,,,,,119,0,0,,,,,0,,,55,0
180587,note_on,,,,,0,0,1,,,,,0,,,53,0
180587,note_on,,,,,0,0,1,,,,,0,,,44,0
180587,note_on,,,,,0,0,1,,,,,0,,,37,0
180587,note_on,,,,,227,0,1,,,,,0,,,49,0
180600,note_on,,,,,0,0,1,,,,,0,,,37,50
180600,note_on,,,,,121,0,0,,,,,0,,,56,50
180600,note_on,,,,,0,0,1,,,,,0,,,53,50
180600,note_on,,,,,0,0,1,,,,,0,,,44,50
180600,note_on,,,,,13,0,1,,,,,0,,,49,50
180719,note_on,,,,,119,0,0,,,,,0,,,56,0
180827,note_on,,,,,0,0,1,,,,,0,,,37,0
180827,note_on,,,,,0,0,1,,,,,0,,,44,0
180827,note_on,,,,,227,0,1,,,,,0,,,49,0
180827,note_on,,,,,0,0,1,,,,,0,,,53,0
180840,note_on,,,,,0,0,1,,,,,0,,,44,50
180840,note_on,,,,,0,0,1,,,,,0,,,53,50
180840,note_on,,,,,121,0,0,,,,,0,,,57,50
180840,note_on,,,,,0,0,1,,,,,0,,,37,50
180840,note_on,,,,,13,0,1,,,,,0,,,49,50
180959,note_on,,,,,119,0,0,,,,,0,,,57,0
181067,note_on,,,,,0,0,1,,,,,0,,,44,0
181067,note_on,,,,,227,0,1,,,,,0,,,49,0
181067,note_on,,,,,0,0,1,,,,,0,,,53,0
181067,note_on,,,,,0,0,1,,,,,0,,,37,0
181080,note_on,,,,,0,0,1,,,,,0,,,53,51
181080,note_on,,,,,0,0,1,,,,,0,,,37,51
181080,note_on,,,,,13,0,1,,,,,0,,,49,51
181080,note_on,,,,,121,0,0,,,,,0,,,58,51
181080,note_on,,,,,0,0,1,,,,,0,,,44,51
181199,note_on,,,,,119,0,0,,,,,0,,,58,0
181307,note_on,,,,,0,0,1,,,,,0,,,37,0
181307,note_on,,,,,227,0,1,,,,,0,,,49,0
181307,note_on,,,,,0,0,1,,,,,0,,,53,0
181307,note_on,,,,,0,0,1,,,,,0,,,44,0
181320,note_on,,,,,0,0,1,,,,,0,,,44,53
181320,note_on,,,,,0,0,1,,,,,0,,,49,53
181320,note_on,,,,,0,0,1,,,,,0,,,37,53
181320,note_on,,,,,0,0,1,,,,,0,,,56,53
181320,note_on,,,,,121,0,0,,,,,0,,,59,53
181320,note_on,,,,,13,0,1,,,,,0,,,53,53
181439,note_on,,,,,119,0,0,,,,,0,,,59,0
181547,note_on,,,,,0,0,1,,,,,0,,,49,0
181547,note_on,,,,,227,0,1,,,,,0,,,53,0
181547,note_on,,,,,0,0,1,,,,,0,,,37,0
181547,note_on,,,,,0,0,1,,,,,0,,,44,0
181547,note_on,,,,,0,0,1,,,,,0,,,56,0
181560,note_on,,,,,0,0,1,,,,,0,,,56,55
181560,note_on,,,,,121,0,0,,,,,0,,,60,55
181560,note_on,,,,,0,0,1,,,,,0,,,44,55
181560,note_on,,,,,0,0,1,,,,,0,,,49,55
181560,note_on,,,,,13,0,1,,,,,0,,,53,55
181560,note_on,,,,,0,0,1,,,,,0,,,37,55
181679,note_on,,,,,119,0,0,,,,,0,,,60,0
181787,note_on,,,,,0,0,1,,,,,0,,,56,0
181787,note_on,,,,,0,0,1,,,,,0,,,49,0
181787,note_on,,,,,227,0,1,,,,,0,,,53,0
181787,note_on,,,,,0,0,1,,,,,0,,,37,0
181787,note_on,,,,,0,0,1,,,,,0,,,44,0
181800,note_on,,,,,0,0,1,,,,,0,,,44,56
181800,note_on,,,,,0,0,1,,,,,0,,,37,56
181800,note_on,,,,,0,0,1,,,,,0,,,49,56
181800,note_on,,,,,0,0,1,,,,,0,,,56,56
181800,note_on,,,,,121,0,0,,,,,0,,,61,56
181800,note_on,,,,,13,0,1,,,,,0,,,53,56
181919,note_on,,,,,119,0,0,,,,,0,,,61,0
182027,note_on,,,,,0,0,1,,,,,0,,,37,0
182027,note_on,,,,,0,0,1,,,,,0,,,56,0
182027,note_on,,,,,0,0,1,,,,,0,,,44,0
182027,note_on,,,,,0,0,1,,,,,0,,,49,0
182027,note_on,,,,,227,0,1,,,,,0,,,53,0
182040,note_on,,,,,13,0,1,,,,,0,,,53,58
182040,note_on,,,,,0,0,1,,,,,0,,,37,58
182040,note_on,,,,,0,0,1,,,,,0,,,44,58
182040,note_on,,,,,0,0,1,,,,,0,,,49,58
182040,note_on,,,,,0,0,1,,,,,0,,,56,58
182040,note_on,,,,,121,0,0,,,,,0,,,62,58
182159,note_on,,,,,119,0,0,,,,,0,,,62,0
182267,note_on,,,,,227,0,1,,,,,0,,,53,0
182267,note_on,,,,,0,0,1,,,,,0,,,56,0
182267,note_on,,,,,0,0,1,,,,,0,,,37,0
182267,note_on,,,,,0,0,1,,,,,0,,,44,0
182267,note_on,,,,,0,0,1,,,,,0,,,49,0
182280,note_on,,,,,0,0,1,,,,,0,,,54,60
182280,note_on,,,,,0,0,1,,,,,0,,,46,60
182280,note_on,,,,,121,0,0,,,,,0,,,63,60
182280,note_on,,,,,0,0,1,,,,,0,,,42,60
182280,note_on,,,,,13,0,1,,,,,0,,,51,60
182280,note_on,,,,,0,0,1,,,,,0,,,37,60
182281,control_change,,,,,1,0,1,,,64,0,0,,,,
182282,control_change,,,,,1,0,1,,,64,127,0,,,,
182507,note_on,,,,,0,0,1,,,,,0,,,37,0
182507,note_on,,,,,0,0,1,,,,,0,,,42,0
182507,note_on,,,,,0,0,1,,,,,0,,,46,0
182507,note_on,,,,,0,0,1,,,,,0,,,54,0
182507,note_on,,,,,225,0,1,,,,,0,,,51,0
182520,note_on,,,,,0,0,1,,,,,0,,,37,60
182520,note_on,,,,,0,0,1,,,,,0,,,42,60
182520,note_on,,,,,0,0,1,,,,,0,,,46,60
182520,note_on,,,,,0,0,1,,,,,0,,,54,60
182520,note_on,,,,,13,0,1,,,,,0,,,51,60
182747,note_on,,,,,227,0,1,,,,,0,,,51,0
182747,note_on,,,,,0,0,1,,,,,0,,,54,0
182747,note_on,,,,,0,0,1,,,,,0,,,46,0
182747,note_on,,,,,0,0,1,,,,,0,,,42,0
182747,note_on,,,,,0,0,1,,,,,0,,,37,0
182760,note_on,,,,,13,0,1,,,,,0,,,51,60
182760,note_on,,,,,0,0,1,,,,,0,,,46,60
182760,note_on,,,,,0,0,1,,,,,0,,,54,60
182760,note_on,,,,,0,0,1,,,,,0,,,42,60
182760,note_on,,,,,0,0,1,,,,,0,,,37,60
182987,note_on,,,,,0,0,1,,,,,0,,,46,0
182987,note_on,,,,,0,0,1,,,,,0,,,42,0
182987,note_on,,,,,0,0,1,,,,,0,,,37,0
182987,note_on,,,,,0,0,1,,,,,0,,,54,0
182987,note_on,,,,,227,0,1,,,,,0,,,51,0
183000,note_on,,,,,0,0,1,,,,,0,,,37,60
183000,note_on,,,,,0,0,1,,,,,0,,,54,60
183000,note_on,,,,,0,0,1,,,,,0,,,46,60
183000,note_on,,,,,0,0,1,,,,,0,,,42,60
183000,note_on,,,,,13,0,1,,,,,0,,,51,60
183227,note_on,,,,,0,0,1,,,,,0,,,42,0
183227,note_on,,,,,0,0,1,,,,,0,,,37,0
183227,note_on,,,,,227,0,1,,,,,0,,,51,0
183227,note_on,,,,,0,0,1,,,,,0,,,54,0
183227,note_on,,,,,0,0,1,,,,,0,,,46,0
183239,note_on,,,,,959,0,0,,,,,0,,,63,0
183240,note_on,,,,,0,0,1,,,,,0,,,46,60
183240,note_on,,,,,0,0,1,,,,,0,,,42,60
183240,note_on,,,,,0,0,1,,,,,0,,,54,60
183240,note_on,,,,,0,0,1,,,,,0,,,37,60
183240,note_on,,,,,1,0,0,,,,,0,,,58,60
183240,note_on,,,,,13,0,1,,,,,0,,,51,60
183467,note_on,,,,,0,0,1,,,,,0,,,37,0
183467,note_on,,,,,0,0,1,,,,,0,,,42,0
183467,note_on,,,,,0,0,1,,,,,0,,,54,0
183467,note_on,,,,,0,0,1,,,,,0,,,46,0
183467,note_on,,,,,227,0,1,,,,,0,,,51,0
183480,note_on,,,,,0,0,1,,,,,0,,,54,60
183480,note_on,,,,,13,0,1,,,,,0,,,51,60
183480,note_on,,,,,0,0,1,,,,,0,,,37,60
183480,note_on,,,,,0,0,1,,,,,0,,,42,60
183480,note_on,,,,,0,0,1,,,,,0,,,46,60
183695,note_on,,,,,455,0,0,,,,,0,,,58,0
183707,note_on,,,,,227,0,1,,,,,0,,,51,0
183707,note_on,,,,,0,0,1,,,,,0,,,54,0
183707,note_on,,,,,0,0,1,,,,,0,,,46,0
183707,note_on,,,,,0,0,1,,,,,0,,,37,0
183707,note_on,,,,,0,0,1,,,,,0,,,42,0
183720,note_on,,,,,0,0,1,,,,,0,,,46,60
183720,note_on,,,,,0,0,1,,,,,0,,,42,60
183720,note_on,,,,,0,0,1,,,,,0,,,37,60
183720,note_on,,,,,0,0,1,,,,,0,,,51,60
183720,note_on,,,,,0,0,1,,,,,0,,,58,60
183720,note_on,,,,,13,0,1,,,,,0,,,54,60
183720,note_on,,,,,25,0,0,,,,,0,,,66,72
183947,note_on,,,,,0,0,1,,,,,0,,,46,0
183947,note_on,,,,,0,0,1,,,,,0,,,51,0
183947,note_on,,,,,0,0,1,,,,,0,,,58,0
183947,note_on,,,,,0,0,1,,,,,0,,,42,0
183947,note_on,,,,,227,0,1,,,,,0,,,54,0
183947,note_on,,,,,0,0,1,,,,,0,,,37,0
183960,note_on,,,,,0,0,1,,,,,0,,,46,60
183960,note_on,,,,,13,0,1,,,,,0,,,54,60
183960,note_on,,,,,0,0,1,,,,,0,,,37,60
183960,note_on,,,,,0,0,1,,,,,0,,,42,60
183960,note_on,,,,,0,0,1,,,,,0,,,51,60
183960,note_on,,,,,0,0,1,,,,,0,,,58,60
184187,note_on,,,,,0,0,1,,,,,0,,,42,0
184187,note_on,,,,,227,0,1,,,,,0,,,54,0
184187,note_on,,,,,0,0,1,,,,,0,,,58,0
184187,note_on,,,,,0,0,1,,,,,0,,,37,0
184187,note_on,,,,,0,0,1,,,,,0,,,51,0
184187,note_on,,,,,0,0,1,,,,,0,,,46,0
184200,note_on,,,,,0,0,1,,,,,0,,,42,60
184200,note_on,,,,,13,0,1,,,,,0,,,54,60
184200,note_on,,,,,0,0,1,,,,,0,,,46,60
184200,note_on,,,,,0,0,1,,,,,0,,,37,60
184200,note_on,,,,,0,0,1,,,,,0,,,51,60
184200,note_on,,,,,0,0,1,,,,,0,,,58,60
184201,note_on,,,,,481,0,0,,,,,0,,,66,0
184427,note_on,,,,,0,0,1,,,,,0,,,58,0
184427,note_on,,,,,227,0,1,,,,,0,,,54,0
184427,note_on,,,,,0,0,1,,,,,0,,,51,0
184427,note_on,,,,,0,0,1,,,,,0,,,46,0
184427,note_on,,,,,0,0,1,,,,,0,,,37,0
184427,note_on,,,,,0,0,1,,,,,0,,,42,0
184440,note_on,,,,,0,0,1,,,,,0,,,58,60
184440,note_on,,,,,0,0,1,,,,,0,,,51,60
184440,note_on,,,,,0,0,1,,,,,0,,,37,60
184440,note_on,,,,,0,0,1,,,,,0,,,42,60
184440,note_on,,,,,0,0,1,,,,,0,,,46,60
184440,note_on,,,,,13,0,1,,,,,0,,,54,60
184440,note_on,,,,,239,0,0,,,,,0,,,65,60
184667,note_on,,,,,0,0,1,,,,,0,,,37,0
184667,note_on,,,,,0,0,1,,,,,0,,,51,0
184667,note_on,,,,,0,0,1,,,,,0,,,58,0
184667,note_on,,,,,227,0,1,,,,,0,,,54,0
184667,note_on,,,,,0,0,1,,,,,0,,,42,0
184667,note_on,,,,,0,0,1,,,,,0,,,46,0
184679,note_on,,,,,239,0,0,,,,,0,,,65,0
184680,note_on,,,,,0,0,1,,,,,0,,,42,60
184680,note_on,,,,,0,0,1,,,,,0,,,46,60
184680,note_on,,,,,0,0,1,,,,,0,,,51,60
184680,note_on,,,,,0,0,1,,,,,0,,,58,60
184680,note_on,,,,,1,0,0,,,,,0,,,63,60
184680,note_on,,,,,13,0,1,,,,,0,,,54,60
184680,note_on,,,,,0,0,1,,,,,0,,,37,60
184907,note_on,,,,,0,0,1,,,,,0,,,58,0
184907,note_on,,,,,0,0,1,,,,,0,,,51,0
184907,note_on,,,,,227,0,1,,,,,0,,,54,0
184907,note_on,,,,,0,0,1,,,,,0,,,42,0
184907,note_on,,,,,0,0,1,,,,,0,,,37,0
184907,note_on,,,,,0,0,1,,,,,0,,,46,0
184919,note_on,,,,,239,0,0,,,,,0,,,63,0
184920,note_on,,,,,0,0,1,,,,,0,,,37,60
184920,note_on,,,,,0,0,1,,,,,0,,,58,60
184920,note_on,,,,,0,0,1,,,,,0,,,46,60
184920,note_on,,,,,0,0,1,,,,,0,,,42,60
184920,note_on,,,,,1,0,0,,,,,0,,,61,60
184920,note_on,,,,,13,0,1,,,,,0,,,54,60
184920,note_on,,,,,0,0,1,,,,,0,,,51,60
185147,note_on,,,,,227,0,1,,,,,0,,,54,0
185147,note_on,,,,,227,0,0,,,,,0,,,61,0
185147,note_on,,,,,0,0,1,,,,,0,,,58,0
185147,note_on,,,,,0,0,1,,,,,0,,,37,0
185147,note_on,,,,,0,0,1,,,,,0,,,42,0
185147,note_on,,,,,0,0,1,,,,,0,,,51,0
185147,note_on,,,,,0,0,1,,,,,0,,,46,0
185160,note_on,,,,,13,0,0,,,,,0,,,61,72
185160,note_on,,,,,13,0,1,,,,,0,,,51,60
185160,note_on,,,,,0,0,1,,,,,0,,,54,60
185160,note_on,,,,,0,0,1,,,,,0,,,37,60
185160,note_on,,,,,0,0,1,,,,,0,,,44,60
185160,note_on,,,,,0,0,1,,,,,0,,,48,60
185161,control_change,,,,,1,0,1,,,64,0,0,,,,
185387,note_on,,,,,0,0,1,,,,,0,,,54,0
185387,note_on,,,,,0,0,1,,,,,0,,,48,0
185387,note_on,,,,,0,0,1,,,,,0,,,37,0
185387,note_on,,,,,226,0,1,,,,,0,,,51,0
185387,note_on,,,,,0,0,1,,,,,0,,,44,0
185400,note_on,,,,,0,0,1,,,,,0,,,48,60
185400,note_on,,,,,0,0,1,,,,,0,,,44,60
185400,note_on,,,,,0,0,1,,,,,0,,,54,60
185400,note_on,,,,,13,0,1,,,,,0,,,51,60
185400,note_on,,,,,0,0,1,,,,,0,,,37,60
185627,note_on,,,,,0,0,1,,,,,0,,,54,0
185627,note_on,,,,,227,0,1,,,,,0,,,51,0
185627,note_on,,,,,0,0,1,,,,,0,,,37,0
185627,note_on,,,,,0,0,1,,,,,0,,,44,0
185627,note_on,,,,,0,0,1,,,,,0,,,48,0
185640,note_on,,,,,0,0,1,,,,,0,,,44,60
185640,note_on,,,,,0,0,1,,,,,0,,,48,60
185640,note_on,,,,,0,0,1,,,,,0,,,54,60
185640,note_on,,,,,0,0,1,,,,,0,,,37,60
185640,note_on,,,,,13,0,1,,,,,0,,,51,60
185867,note_on,,,,,0,0,1,,,,,0,,,44,0
185867,note_on,,,,,227,0,1,,,,,0,,,51,0
185867,note_on,,,,,0,0,1,,,,,0,,,48,0
185867,note_on,,,,,0,0,1,,,,,0,,,54,0
185867,note_on,,,,,0,0,1,,,,,0,,,37,0
185879,note_on,,,,,719,0,0,,,,,0,,,61,0
185880,note_on,,,,,0,0,1,,,,,0,,,48,60
185880,note_on,,,,,1,0,0,,,,,0,,,60,60
185880,note_on,,,,,0,0,1,,,,,0,,,54,60
185880,note_on,,,,,0,0,1,,,,,0,,,44,60
185880,note_on,,,,,0,0,1,,,,,0,,,37,60
185880,note_on,,,,,13,0,1,,,,,0,,,51,60
186107,note_on,,,,,0,0,1,,,,,0,,,54,0
186107,note_on,,,,,0,0,1,,,,,0,,,37,0
186107,note_on,,,,,227,0,1,,,,,0,,,51,0
186107,note_on,,,,,0,0,1,,,,,0,,,44,0
186107,note_on,,,,,0,0,1,,,,,0,,,48,0
186119,note_on,,,,,239,0,0,,,,,0,,,60,0
186120,note_on,,,,,0,0,1,,,,,0,,,37,60
186120,note_on,,,,,0,0,1,,,,,0,,,44,60
186120,note_on,,,,,0,0,1,,,,,0,,,48,60
186120,note_on,,,,,0,0,1,,,,,0,,,54,60
186120,note_on,,,,,13,0,1,,,,,0,,,51,60
186120,note_on,,,,,1,0,0,,,,,0,,,58,60
186347,note_on,,,,,227,0,1,,,,,0,,,51,0
186347,note_on,,,,,0,0,1,,,,,0,,,48,0
186347,note_on,,,,,0,0,1,,,,,0,,,44,0
186347,note_on,,,,,0,0,1,,,,,0,,,37,0
186347,note_on,,,,,0,0,1,,,,,0,,,54,0
186359,note_on,,,,,239,0,0,,,,,0,,,58,0
186360,note_on,,,,,13,0,1,,,,,0,,,51,60
186360,note_on,,,,,1,0,0,,,,,0,,,56,60
186360,note_on,,,,,0,0,1,,,,,0,,,37,60
186360,note_on,,,,,0,0,1,,,,,0,,,54,60
186360,note_on,,,,,0,0,1,,,,,0,,,44,60
186360,note_on,,,,,0,0,1,,,,,0,,,48,60
186587,note_on,,,,,0,0,1,,,,,0,,,54,0
186587,note_on,,,,,0,0,1,,,,,0,,,37,0
186587,note_on,,,,,227,0,1,,,,,0,,,51,0
186587,note_on,,,,,0,0,1,,,,,0,,,44,0
186587,note_on,,,,,227,0,0,,,,,0,,,56,0
186587,note_on,,,,,0,0,1,,,,,0,,,48,0
186600,note_on,,,,,0,0,1,,,,,0,,,54,60
186600,note_on,,,,,0,0,1,,,,,0,,,48,60
186600,note_on,,,,,0,0,1,,,,,0,,,37,60
186600,note_on,,,,,0,0,1,,,,,0,,,44,60
186600,note_on,,,,,13,0,0,,,,,0,,,55,60
186600,note_on,,,,,13,0,1,,,,,0,,,51,60
186827,note_on,,,,,227,0,1,,,,,0,,,51,0
186827,note_on,,,,,0,0,1,,,,,0,,,54,0
186827,note_on,,,,,0,0,1,,,,,0,,,37,0
186827,note_on,,,,,0,0,1,,,,,0,,,44,0
186827,note_on,,,,,0,0,1,,,,,0,,,48,0
186839,note_on,,,,,239,0,0,,,,,0,,,55,0
186840,note_on,,,,,0,0,1,,,,,0,,,54,60
186840,note_on,,,,,0,0,1,,,,,0,,,48,60
186840,note_on,,,,,0,0,1,,,,,0,,,44,60
186840,note_on,,,,,13,0,1,,,,,0,,,51,60
186840,note_on,,,,,1,0,0,,,,,0,,,56,60
186840,note_on,,,,,0,0,1,,,,,0,,,37,60
187067,note_on,,,,,0,0,1,,,,,0,,,44,0
187067,note_on,,,,,0,0,1,,,,,0,,,37,0
187067,note_on,,,,,0,0,1,,,,,0,,,48,0
187067,note_on,,,,,227,0,1,,,,,0,,,51,0
187067,note_on,,,,,0,0,1,,,,,0,,,54,0
187079,note_on,,,,,239,0,0,,,,,0,,,56,0
187080,note_on,,,,,0,0,1,,,,,0,,,48,60
187080,note_on,,,,,0,0,1,,,,,0,,,54,60
187080,note_on,,,,,0,0,1,,,,,0,,,45,60
187080,note_on,,,,,0,0,1,,,,,0,,,37,60
187080,note_on,,,,,13,0,1,,,,,0,,,51,60
187080,note_on,,,,,1,0,0,,,,,0,,,57,60
187307,note_on,,,,,0,0,1,,,,,0,,,37,0
187307,note_on,,,,,0,0,1,,,,,0,,,45,0
187307,note_on,,,,,0,0,1,,,,,0,,,48,0
187307,note_on,,,,,0,0,1,,,,,0,,,54,0
187307,note_on,,,,,227,0,1,,,,,0,,,51,0
187319,note_on,,,,,239,0,0,,,,,0,,,57,0
187320,note_on,,,,,1,0,0,,,,,0,,,56,60
187320,note_on,,,,,0,0,1,,,,,0,,,54,60
187320,note_on,,,,,13,0,1,,,,,0,,,51,60
187320,note_on,,,,,0,0,1,,,,,0,,,44,60
187320,note_on,,,,,0,0,1,,,,,0,,,37,60
187320,note_on,,,,,0,0,1,,,,,0,,,48,60
187547,note_on,,,,,0,0,1,,,,,0,,,37,0
187547,note_on,,,,,0,0,1,,,,,0,,,48,0
187547,note_on,,,,,0,0,1,,,,,0,,,54,0
187547,note_on,,,,,227,0,1,,,,,0,,,51,0
187547,note_on,,,,,0,0,1,,,,,0,,,44,0
187559,note_on,,,,,239,0,0,,,,,0,,,56,0
187560,note_on,,,,,0,0,1,,,,,0,,,37,60
187560,note_on,,,,,0,0,1,,,,,0,,,46,60
187560,note_on,,,,,0,0,1,,,,,0,,,48,60
187560,note_on,,,,,0,0,1,,,,,0,,,54,60
187560,note_on,,,,,1,0,0,,,,,0,,,60,60
187560,note_on,,,,,13,0,1,,,,,0,,,51,60
187605,note_on,,,,,45,0,0,,,,,0,,,60,0
187606,note_on,,,,,1,0,0,,,,,0,,,58,60
187787,note_on,,,,,227,0,1,,,,,0,,,51,0
187787,note_on,,,,,0,0,1,,,,,0,,,37,0
187787,note_on,,,,,0,0,1,,,,,0,,,46,0
187787,note_on,,,,,0,0,1,,,,,0,,,48,0
187787,note_on,,,,,0,0,1,,,,,0,,,54,0
187798,note_on,,,,,192,0,0,,,,,0,,,58,0
187800,note_on,,,,,0,0,1,,,,,0,,,37,60
187800,note_on,,,,,0,0,1,,,,,0,,,48,60
187800,note_on,,,,,13,0,1,,,,,0,,,51,60
187800,note_on,,,,,2,0,0,,,,,0,,,56,60
187800,note_on,,,,,0,0,1,,,,,0,,,44,60
187800,note_on,,,,,0,0,1,,,,,0,,,54,60
188027,note_on,,,,,227,0,1,,,,,0,,,51,0
188027,note_on,,,,,227,0,0,,,,,0,,,56,0
188027,note_on,,,,,0,0,1,,,,,0,,,37,0
188027,note_on,,,,,0,0,1,,,,,0,,,54,0
188027,note_on,,,,,0,0,1,,,,,0,,,48,0
188027,note_on,,,,,0,0,1,,,,,0,,,44,0
188040,note_on,,,,,13,0,0,,,,,0,,,68,72
188040,note_on,,,,,0,0,1,,,,,0,,,56,60
188040,note_on,,,,,0,0,1,,,,,0,,,49,60
188040,note_on,,,,,0,0,1,,,,,0,,,44,60
188040,note_on,,,,,0,0,1,,,,,0,,,37,60
188040,note_on,,,,,13,0,1,,,,,0,,,53,60
188267,note_on,,,,,0,0,1,,,,,0,,,56,0
188267,note_on,,,,,0,0,1,,,,,0,,,49,0
188267,note_on,,,,,0,0,1,,,,,0,,,44,0
188267,note_on,,,,,0,0,1,,,,,0,,,37,0
188267,note_on,,,,,227,0,1,,,,,0,,,53,0
188280,note_on,,,,,0,0,1,,,,,0,,,37,60
188280,note_on,,,,,13,0,1,,,,,0,,,53,60
188280,note_on,,,,,0,0,1,,,,,0,,,44,60
188280,note_on,,,,,0,0,1,,,,,0,,,49,60
188280,note_on,,,,,0,0,1,,,,,0,,,56,60
188507,note_on,,,,,0,0,1,,,,,0,,,56,0
188507,note_on,,,,,0,0,1,,,,,0,,,49,0
188507,note_on,,,,,0,0,1,,,,,0,,,44,0
188507,note_on,,,,,227,0,1,,,,,0,,,53,0
188507,note_on,,,,,0,0,1,,,,,0,,,37,0
188520,note_on,,,,,13,0,1,,,,,0,,,53,60
188520,note_on,,,,,0,0,1,,,,,0,,,37,60
188520,note_on,,,,,0,0,1,,,,,0,,,44,60
188520,note_on,,,,,0,0,1,,,,,0,,,49,60
188520,note_on,,,,,0,0,1,,,,,0,,,56,60
188747,note_on,,,,,0,0,1,,,,,0,,,37,0
188747,note_on,,,,,0,0,1,,,,,0,,,44,0
188747,note_on,,,,,0,0,1,,,,,0,,,49,0
188747,note_on,,,,,0,0,1,,,,,0,,,56,0
188747,note_on,,,,,227,0,1,,,,,0,,,53,0
188760,note_on,,,,,13,0,1,,,,,0,,,53,60
188760,note_on,,,,,0,0,1,,,,,0,,,44,60
188760,note_on,,,,,0,0,1,,,,,0,,,37,60
188760,note_on,,,,,0,0,1,,,,,0,,,49,60
188760,note_on,,,,,0,0,1,,,,,0,,,56,60
188987,note_on,,,,,227,0,1,,,,,0,,,53,0
188987,note_on,,,,,0,0,1,,,,,0,,,37,0
188987,note_on,,,,,0,0,1,,,,,0,,,44,0
188987,note_on,,,,,0,0,1,,,,,0,,,49,0
188987,note_on,,,,,0,0,1,,,,,0,,,56,0
189000,note_on,,,,,0,0,1,,,,,0,,,44,60
189000,note_on,,,,,0,0,1,,,,,0,,,56,60
189000,note_on,,,,,13,0,1,,,,,0,,,53,60
189000,note_on,,,,,0,0,1,,,,,0,,,37,60
189000,note_on,,,,,0,0,1,,,,,0,,,49,60
189003,note_on,,,,,963,0,0,,,,,0,,,68,0
189227,note_on,,,,,0,0,1,,,,,0,,,49,0
189227,note_on,,,,,0,0,1,,,,,0,,,56,0
189227,note_on,,,,,227,0,1,,,,,0,,,53,0
189227,note_on,,,,,0,0,1,,,,,0,,,37,0
189227,note_on,,,,,0,0,1,,,,,0,,,44,0
189240,note_on,,,,,0,0,1,,,,,0,,,56,60
189240,note_on,,,,,0,0,1,,,,,0,,,49,60
189240,note_on,,,,,0,0,1,,,,,0,,,44,60
189240,note_on,,,,,13,0,1,,,,,0,,,53,60
189240,note_on,,,,,0,0,1,,,,,0,,,37,60
189467,note_on,,,,,227,0,1,,,,,0,,,53,0
189467,note_on,,,,,0,0,1,,,,,0,,,56,0
189467,note_on,,,,,0,0,1,,,,,0,,,44,0
189467,note_on,,,,,0,0,1,,,,,0,,,37,0
189467,note_on,,,,,0,0,1,,,,,0,,,49,0
189480,note_on,,,,,13,0,1,,,,,0,,,53,60
189480,note_on,,,,,477,0,0,,,,,0,,,65,60
189480,note_on,,,,,0,0,1,,,,,0,,,44,60
189480,note_on,,,,,0,0,1,,,,,0,,,49,60
189480,note_on,,,,,0,0,1,,,,,0,,,56,60
189480,note_on,,,,,0,0,1,,,,,0,,,37,60
189707,note_on,,,,,227,0,1,,,,,0,,,53,0
189707,note_on,,,,,0,0,1,,,,,0,,,37,0
189707,note_on,,,,,0,0,1,,,,,0,,,44,0
189707,note_on,,,,,0,0,1,,,,,0,,,49,0
189707,note_on,,,,,0,0,1,,,,,0,,,56,0
189720,note_on,,,,,0,0,1,,,,,0,,,37,60
189720,note_on,,,,,0,0,1,,,,,0,,,49,60
189720,note_on,,,,,0,0,1,,,,,0,,,56,60
189720,note_on,,,,,13,0,1,,,,,0,,,53,60
189720,note_on,,,,,0,0,1,,,,,0,,,44,60
189935,note_on,,,,,455,0,0,,,,,0,,,65,0
189947,note_on,,,,,227,0,1,,,,,0,,,53,0
189947,note_on,,,,,0,0,1,,,,,0,,,37,0
189947,note_on,,,,,0,0,1,,,,,0,,,49,0
189947,note_on,,,,,0,0,1,,,,,0,,,56,0
189947,note_on,,,,,0,0,1,,,,,0,,,44,0
189960,note_on,,,,,0,0,1,,,,,0,,,37,60
189960,note_on,,,,,0,0,1,,,,,0,,,56,60
189960,note_on,,,,,0,0,1,,,,,0,,,49,60
189960,note_on,,,,,0,0,1,,,,,0,,,44,60
189960,note_on,,,,,13,0,1,,,,,0,,,53,60
190187,note_on,,,,,227,0,1,,,,,0,,,53,0
190187,note_on,,,,,0,0,1,,,,,0,,,44,0
190187,note_on,,,,,0,0,1,,,,,0,,,37,0
190187,note_on,,,,,0,0,1,,,,,0,,,49,0
190187,note_on,,,,,0,0,1,,,,,0,,,56,0
190200,note_on,,,,,0,0,1,,,,,0,,,56,60
190200,note_on,,,,,0,0,1,,,,,0,,,49,60
190200,note_on,,,,,0,0,1,,,,,0,,,44,60
190200,note_on,,,,,13,0,1,,,,,0,,,53,60
190200,note_on,,,,,0,0,1,,,,,0,,,37,60
190427,note_on,,,,,0,0,1,,,,,0,,,37,0
190427,note_on,,,,,0,0,1,,,,,0,,,44,0
190427,note_on,,,,,0,0,1,,,,,0,,,49,0
190427,note_on,,,,,0,0,1,,,,,0,,,56,0
190427,note_on,,,,,227,0,1,,,,,0,,,53,0
190440,note_on,,,,,0,0,1,,,,,0,,,56,60
190440,note_on,,,,,0,0,1,,,,,0,,,37,60
190440,note_on,,,,,505,0,0,,,,,0,,,65,60
190440,note_on,,,,,0,0,1,,,,,0,,,49,60
190440,note_on,,,,,13,0,1,,,,,0,,,53,60
190440,note_on,,,,,0,0,1,,,,,0,,,44,60
190667,note_on,,,,,0,0,1,,,,,0,,,44,0
190667,note_on,,,,,0,0,1,,,,,0,,,49,0
190667,note_on,,,,,0,0,1,,,,,0,,,37,0
190667,note_on,,,,,0,0,1,,,,,0,,,56,0
190667,note_on,,,,,227,0,1,,,,,0,,,53,0
190680,note_on,,,,,0,0,1,,,,,0,,,49,60
190680,note_on,,,,,0,0,1,,,,,0,,,44,60
190680,note_on,,,,,13,0,1,,,,,0,,,53,60
190680,note_on,,,,,0,0,1,,,,,0,,,37,60
190680,note_on,,,,,0,0,1,,,,,0,,,56,60
190895,note_on,,,,,455,0,0,,,,,0,,,65,0
190907,note_on,,,,,0,0,1,,,,,0,,,37,0
190907,note_on,,,,,0,0,1,,,,,0,,,44,0
190907,note_on,,,,,0,0,1,,,,,0,,,56,0
190907,note_on,,,,,0,0,1,,,,,0,,,49,0
190907,note_on,,,,,227,0,1,,,,,0,,,53,0
190920,note_on,,,,,0,0,1,,,,,0,,,48,60
190920,note_on,,,,,0,0,1,,,,,0,,,60,60
190920,note_on,,,,,0,0,1,,,,,0,,,33,60
190920,note_on,,,,,25,0,0,,,,,0,,,65,60
190920,note_on,,,,,13,0,1,,,,,0,,,53,60
190920,note_on,,,,,0,0,1,,,,,0,,,41,60
190922,control_change,,,,,2,0,1,,,64,127,0,,,,
191147,note_on,,,,,225,0,1,,,,,0,,,53,0
191147,note_on,,,,,0,0,1,,,,,0,,,60,0
191147,note_on,,,,,0,0,1,,,,,0,,,33,0
191147,note_on,,,,,0,0,1,,,,,0,,,41,0
191147,note_on,,,,,0,0,1,,,,,0,,,48,0
191160,note_on,,,,,0,0,1,,,,,0,,,33,60
191160,note_on,,,,,0,0,1,,,,,0,,,41,60
191160,note_on,,,,,0,0,1,,,,,0,,,48,60
191160,note_on,,,,,0,0,1,,,,,0,,,60,60
191160,note_on,,,,,13,0,1,,,,,0,,,53,60
191387,note_on,,,,,227,0,1,,,,,0,,,53,0
191387,note_on,,,,,0,0,1,,,,,0,,,33,0
191387,note_on,,,,,0,0,1,,,,,0,,,41,0
191387,note_on,,,,,0,0,1,,,,,0,,,48,0
191387,note_on,,,,,0,0,1,,,,,0,,,60,0
191400,note_on,,,,,13,0,1,,,,,0,,,53,61
191400,note_on,,,,,0,0,1,,,,,0,,,60,61
191400,note_on,,,,,0,0,1,,,,,0,,,41,61
191400,note_on,,,,,0,0,1,,,,,0,,,33,61
191400,note_on,,,,,0,0,1,,,,,0,,,48,61
191627,note_on,,,,,0,0,1,,,,,0,,,33,0
191627,note_on,,,,,0,0,1,,,,,0,,,41,0
191627,note_on,,,,,0,0,1,,,,,0,,,48,0
191627,note_on,,,,,0,0,1,,,,,0,,,60,0
191627,note_on,,,,,227,0,1,,,,,0,,,53,0
191639,note_on,,,,,719,0,0,,,,,0,,,65,0
191640,note_on,,,,,1,0,0,,,,,0,,,64,62
191640,note_on,,,,,13,0,1,,,,,0,,,53,62
191640,note_on,,,,,0,0,1,,,,,0,,,33,62
191640,note_on,,,,,0,0,1,,,,,0,,,60,62
191640,note_on,,,,,0,0,1,,,,,0,,,48,62
191640,note_on,,,,,0,0,1,,,,,0,,,41,62
191759,note_on,,,,,119,0,0,,,,,0,,,64,0
191867,note_on,,,,,227,0,1,,,,,0,,,53,0
191867,note_on,,,,,0,0,1,,,,,0,,,33,0
191867,note_on,,,,,0,0,1,,,,,0,,,41,0
191867,note_on,,,,,0,0,1,,,,,0,,,48,0
191867,note_on,,,,,0,0,1,,,,,0,,,60,0
191880,note_on,,,,,0,0,1,,,,,0,,,48,63
191880,note_on,,,,,121,0,0,,,,,0,,,65,63
191880,note_on,,,,,0,0,1,,,,,0,,,33,63
191880,note_on,,,,,0,0,1,,,,,0,,,41,63
191880,note_on,,,,,0,0,1,,,,,0,,,60,63
191880,note_on,,,,,13,0,1,,,,,0,,,53,63
191999,note_on,,,,,119,0,0,,,,,0,,,65,0
192107,note_on,,,,,0,0,1,,,,,0,,,48,0
192107,note_on,,,,,0,0,1,,,,,0,,,41,0
192107,note_on,,,,,0,0,1,,,,,0,,,33,0
192107,note_on,,,,,0,0,1,,,,,0,,,60,0
192107,note_on,,,,,227,0,1,,,,,0,,,53,0
192120,note_on,,,,,0,0,1,,,,,0,,,33,64
192120,note_on,,,,,0,0,1,,,,,0,,,41,64
192120,note_on,,,,,0,0,1,,,,,0,,,48,64
192120,note_on,,,,,13,0,1,,,,,0,,,53,64
192120,note_on,,,,,0,0,1,,,,,0,,,60,64
192120,note_on,,,,,121,0,0,,,,,0,,,64,64
192239,note_on,,,,,119,0,0,,,,,0,,,64,0
192347,note_on,,,,,227,0,1,,,,,0,,,53,0
192347,note_on,,,,,0,0,1,,,,,0,,,48,0
192347,note_on,,,,,0,0,1,,,,,0,,,41,0
192347,note_on,,,,,0,0,1,,,,,0,,,33,0
192347,note_on,,,,,0,0,1,,,,,0,,,60,0
192360,note_on,,,,,13,0,1,,,,,0,,,53,65
192360,note_on,,,,,121,0,0,,,,,0,,,65,65
192360,note_on,,,,,0,0,1,,,,,0,,,33,65
192360,note_on,,,,,0,0,1,,,,,0,,,41,65
192360,note_on,,,,,0,0,1,,,,,0,,,48,65
192360,note_on,,,,,0,0,1,,,,,0,,,60,65
192479,note_on,,,,,119,0,0,,,,,0,,,65,0
192587,note_on,,,,,0,0,1,,,,,0,,,33,0
192587,note_on,,,,,0,0,1,,,,,0,,,48,0
192587,note_on,,,,,227,0,1,,,,,0,,,53,0
192587,note_on,,,,,0,0,1,,,,,0,,,60,0
192587,note_on,,,,,0,0,1,,,,,0,,,41,0
192600,note_on,,,,,13,0,1,,,,,0,,,53,65
192600,note_on,,,,,0,0,1,,,,,0,,,33,65
192600,note_on,,,,,121,0,0,,,,,0,,,64,65
192600,note_on,,,,,0,0,1,,,,,0,,,41,65
192600,note_on,,,,,0,0,1,,,,,0,,,48,65
192600,note_on,,,,,0,0,1,,,,,0,,,60,65
192719,note_on,,,,,119,0,0,,,,,0,,,64,0
192827,note_on,,,,,227,0,1,,,,,0,,,53,0
192827,note_on,,,,,0,0,1,,,,,0,,,48,0
192827,note_on,,,,,0,0,1,,,,,0,,,60,0
192827,note_on,,,,,0,0,1,,,,,0,,,41,0
192827,note_on,,,,,0,0,1,,,,,0,,,33,0
192840,note_on,,,,,0,0,1,,,,,0,,,60,66
192840,note_on,,,,,0,0,1,,,,,0,,,48,66
192840,note_on,,,,,0,0,1,,,,,0,,,41,66
192840,note_on,,,,,0,0,1,,,,,0,,,33,66
192840,note_on,,,,,13,0,1,,,,,0,,,53,66
192840,note_on,,,,,121,0,0,,,,,0,,,65,66
192959,note_on,,,,,119,0,0,,,,,0,,,65,0
193067,note_on,,,,,0,0,1,,,,,0,,,33,0
193067,note_on,,,,,0,0,1,,,,,0,,,60,0
193067,note_on,,,,,0,0,1,,,,,0,,,48,0
193067,note_on,,,,,227,0,1,,,,,0,,,53,0
193067,note_on,,,,,0,0,1,,,,,0,,,41,0
193080,note_on,,,,,0,0,1,,,,,0,,,41,67
193080,note_on,,,,,13,0,1,,,,,0,,,53,67
193080,note_on,,,,,0,0,1,,,,,0,,,48,67
193080,note_on,,,,,0,0,1,,,,,0,,,60,67
193080,note_on,,,,,0,0,1,,,,,0,,,33,67
193080,note_on,,,,,121,0,0,,,,,0,,,66,67
193199,note_on,,,,,119,0,0,,,,,0,,,66,0
193307,note_on,,,,,0,0,1,,,,,0,,,33,0
193307,note_on,,,,,0,0,1,,,,,0,,,41,0
193307,note_on,,,,,0,0,1,,,,,0,,,60,0
193307,note_on,,,,,0,0,1,,,,,0,,,48,0
193307,note_on,,,,,227,0,1,,,,,0,,,53,0
193320,note_on,,,,,121,0,0,,,,,0,,,65,68
193320,note_on,,,,,13,0,1,,,,,0,,,53,68
193320,note_on,,,,,0,0,1,,,,,0,,,33,68
193320,note_on,,,,,0,0,1,,,,,0,,,41,68
193320,note_on,,,,,0,0,1,,,,,0,,,48,68
193320,note_on,,,,,0,0,1,,,,,0,,,60,68
193439,note_on,,,,,119,0,0,,,,,0,,,65,0
193547,note_on,,,,,0,0,1,,,,,0,,,60,0
193547,note_on,,,,,0,0,1,,,,,0,,,48,0
193547,note_on,,,,,227,0,1,,,,,0,,,53,0
193547,note_on,,,,,0,0,1,,,,,0,,,41,0
193547,note_on,,,,,0,0,1,,,,,0,,,33,0
193560,note_on,,,,,0,0,1,,,,,0,,,48,69
193560,note_on,,,,,0,0,1,,,,,0,,,41,69
193560,note_on,,,,,0,0,1,,,,,0,,,60,69
193560,note_on,,,,,13,0,1,,,,,0,,,53,69
193560,note_on,,,,,121,0,0,,,,,0,,,63,69
193560,note_on,,,,,0,0,1,,,,,0,,,33,69
193679,note_on,,,,,119,0,0,,,,,0,,,63,0
193787,note_on,,,,,0,0,1,,,,,0,,,33,0
193787,note_on,,,,,0,0,1,,,,,0,,,41,0
193787,note_on,,,,,0,0,1,,,,,0,,,48,0
193787,note_on,,,,,0,0,1,,,,,0,,,60,0
193787,note_on,,,,,227,0,1,,,,,0,,,53,0
193800,note_on,,,,,121,0,0,,,,,0,,,63,84
193800,note_on,,,,,13,0,1,,,,,0,,,53,70
193800,note_on,,,,,0,0,1,,,,,0,,,34,70
193800,note_on,,,,,0,0,1,,,,,0,,,41,70
193800,note_on,,,,,0,0,1,,,,,0,,,46,70
193800,note_on,,,,,0,0,1,,,,,0,,,58,70
193801,control_change,,,,,1,0,1,,,64,0,0,,,,
193802,control_change,,,,,1,0,1,,,64,127,0,,,,
194027,note_on,,,,,0,0,1,,,,,0,,,34,0
194027,note_on,,,,,0,0,1,,,,,0,,,58,0
194027,note_on,,,,,0,0,1,,,,,0,,,46,0
194027,note_on,,,,,0,0,1,,,,,0,,,41,0
194027,note_on,,,,,225,0,1,,,,,0,,,53,0
194040,note_on,,,,,0,0,1,,,,,0,,,46,71
194040,note_on,,,,,0,0,1,,,,,0,,,34,71
194040,note_on,,,,,13,0,1,,,,,0,,,53,71
194040,note_on,,,,,0,0,1,,,,,0,,,58,71
194040,note_on,,,,,0,0,1,,,,,0,,,41,71
194267,note_on,,,,,0,0,1,,,,,0,,,34,0
194267,note_on,,,,,0,0,1,,,,,0,,,41,0
194267,note_on,,,,,0,0,1,,,,,0,,,46,0
194267,note_on,,,,,227,0,1,,,,,0,,,53,0
194267,note_on,,,,,0,0,1,,,,,0,,,58,0
194280,note_on,,,,,13,0,1,,,,,0,,,53,72
194280,note_on,,,,,0,0,1,,,,,0,,,34,72
194280,note_on,,,,,0,0,1,,,,,0,,,41,72
194280,note_on,,,,,0,0,1,,,,,0,,,46,72
194280,note_on,,,,,0,0,1,,,,,0,,,58,72
194507,note_on,,,,,227,0,1,,,,,0,,,53,0
194507,note_on,,,,,0,0,1,,,,,0,,,58,0
194507,note_on,,,,,0,0,1,,,,,0,,,46,0
194507,note_on,,,,,0,0,1,,,,,0,,,34,0
194507,note_on,,,,,0,0,1,,,,,0,,,41,0
194519,note_on,,,,,719,0,0,,,,,0,,,63,0
194520,note_on,,,,,13,0,1,,,,,0,,,53,73
194520,note_on,,,,,1,0,0,,,,,0,,,60,73
194520,note_on,,,,,0,0,1,,,,,0,,,34,73
194520,note_on,,,,,0,0,1,,,,,0,,,41,73
194520,note_on,,,,,0,0,1,,,,,0,,,46,73
194520,note_on,,,,,0,0,1,,,,,0,,,58,73
194639,note_on,,,,,119,0,0,,,,,0,,,60,0
194747,note_on,,,,,227,0,1,,,,,0,,,53,0
194747,note_on,,,,,0,0,1,,,,,0,,,58,0
194747,note_on,,,,,0,0,1,,,,,0,,,46,0
194747,note_on,,,,,0,0,1,,,,,0,,,41,0
194747,note_on,,,,,0,0,1,,,,,0,,,34,0
194760,note_on,,,,,13,0,1,,,,,0,,,53,74
194760,note_on,,,,,0,0,1,,,,,0,,,34,74
194760,note_on,,,,,0,0,1,,,,,0,,,41,74
194760,note_on,,,,,0,0,1,,,,,0,,,46,74
194760,note_on,,,,,0,0,1,,,,,0,,,58,74
194760,note_on,,,,,121,0,0,,,,,0,,,63,74
194879,note_on,,,,,119,0,0,,,,,0,,,63,0
194987,note_on,,,,,0,0,1,,,,,0,,,46,0
194987,note_on,,,,,227,0,1,,,,,0,,,53,0
194987,note_on,,,,,0,0,1,,,,,0,,,41,0
194987,note_on,,,,,0,0,1,,,,,0,,,58,0
194987,note_on,,,,,0,0,1,,,,,0,,,34,0
195000,note_on,,,,,0,0,1,,,,,0,,,58,75
195000,note_on,,,,,121,0,0,,,,,0,,,61,75
195000,note_on,,,,,0,0,1,,,,,0,,,34,75
195000,note_on,,,,,13,0,1,,,,,0,,,53,75
195000,note_on,,,,,0,0,1,,,,,0,,,41,75
195000,note_on,,,,,0,0,1,,,,,0,,,46,75
195119,note_on,,,,,119,0,0,,,,,0,,,61,0
195227,note_on,,,,,0,0,1,,,,,0,,,41,0
195227,note_on,,,,,0,0,1,,,,,0,,,34,0
195227,note_on,,,,,227,0,1,,,,,0,,,53,0
195227,note_on,,,,,0,0,1,,,,,0,,,46,0
195227,note_on,,,,,0,0,1,,,,,0,,,58,0
195240,note_on,,,,,0,0,1,,,,,0,,,31,76
195240,note_on,,,,,13,0,1,,,,,0,,,53,76
195240,note_on,,,,,0,0,1,,,,,0,,,61,76
195240,note_on,,,,,0,0,1,,,,,0,,,58,76
195240,note_on,,,,,0,0,1,,,,,0,,,46,76
195240,note_on,,,,,121,0,0,,,,,0,,,65,91
195240,note_on,,,,,0,0,1,,,,,0,,,37,76
195241,control_change,,,,,1,0,1,,,64,0,0,,,,
195242,control_change,,,,,1,0,1,,,64,127,0,,,,
195467,note_on,,,,,225,0,1,,,,,0,,,53,0
195467,note_on,,,,,0,0,1,,,,,0,,,37,0
195467,note_on,,,,,0,0,1,,,,,0,,,46,0
195467,note_on,,,,,0,0,1,,,,,0,,,58,0
195467,note_on,,,,,0,0,1,,,,,0,,,61,0
195467,note_on,,,,,0,0,1,,,,,0,,,31,0
195480,note_on,,,,,0,0,1,,,,,0,,,58,77
195480,note_on,,,,,13,0,1,,,,,0,,,53,77
195480,note_on,,,,,0,0,1,,,,,0,,,61,77
195480,note_on,,,,,0,0,1,,,,,0,,,37,77
195480,note_on,,,,,0,0,1,,,,,0,,,31,77
195480,note_on,,,,,0,0,1,,,,,0,,,46,77
195707,note_on,,,,,0,0,1,,,,,0,,,31,0
195707,note_on,,,,,0,0,1,,,,,0,,,37,0
195707,note_on,,,,,0,0,1,,,,,0,,,46,0
195707,note_on,,,,,0,0,1,,,,,0,,,58,0
195707,note_on,,,,,0,0,1,,,,,0,,,61,0
195707,note_on,,,,,227,0,1,,,,,0,,,53,0
195720,note_on,,,,,0,0,1,,,,,0,,,61,78
195720,note_on,,,,,0,0,1,,,,,0,,,58,78
195720,note_on,,,,,0,0,1,,,,,0,,,46,78
195720,note_on,,,,,0,0,1,,,,,0,,,37,78
195720,note_on,,,,,0,0,1,,,,,0,,,31,78
195720,note_on,,,,,13,0,1,,,,,0,,,53,78
195947,note_on,,,,,0,0,1,,,,,0,,,46,0
195947,note_on,,,,,0,0,1,,,,,0,,,61,0
195947,note_on,,,,,0,0,1,,,,,0,,,31,0
195947,note_on,,,,,0,0,1,,,,,0,,,37,0
195947,note_on,,,,,227,0,1,,,,,0,,,53,0
195947,note_on,,,,,0,0,1,,,,,0,,,58,0
195959,note_on,,,,,719,0,0,,,,,0,,,65,0
195960,note_on,,,,,0,0,1,,,,,0,,,37,79
195960,note_on,,,,,0,0,1,,,,,0,,,46,79
195960,note_on,,,,,0,0,1,,,,,0,,,58,79
195960,note_on,,,,,0,0,1,,,,,0,,,31,79
195960,note_on,,,,,1,0,0,,,,,0,,,63,79
195960,note_on,,,,,13,0,1,,,,,0,,,51,79
195960,note_on,,,,,0,0,1,,,,,0,,,61,79
196079,note_on,,,,,119,0,0,,,,,0,,,63,0
196187,note_on,,,,,227,0,1,,,,,0,,,51,0
196187,note_on,,,,,0,0,1,,,,,0,,,31,0
196187,note_on,,,,,0,0,1,,,,,0,,,37,0
196187,note_on,,,,,0,0,1,,,,,0,,,61,0
196187,note_on,,,,,0,0,1,,,,,0,,,58,0
196187,note_on,,,,,0,0,1,,,,,0,,,46,0
196200,note_on,,,,,0,0,1,,,,,0,,,61,80
196200,note_on,,,,,0,0,1,,,,,0,,,58,80
196200,note_on,,,,,0,0,1,,,,,0,,,37,80
196200,note_on,,,,,0,0,1,,,,,0,,,31,80
196200,note_on,,,,,0,0,1,,,,,0,,,46,80
196200,note_on,,,,,13,0,1,,,,,0,,,53,80
196200,note_on,,,,,121,0,0,,,,,0,,,65,80
196319,note_on,,,,,119,0,0,,,,,0,,,65,0
196427,note_on,,,,,0,0,1,,,,,0,,,58,0
196427,note_on,,,,,0,0,1,,,,,0,,,31,0
196427,note_on,,,,,0,0,1,,,,,0,,,61,0
196427,note_on,,,,,227,0,1,,,,,0,,,53,0
196427,note_on,,,,,0,0,1,,,,,0,,,46,0
196427,note_on,,,,,0,0,1,,,,,0,,,37,0
196440,note_on,,,,,0,0,1,,,,,0,,,31,81
196440,note_on,,,,,0,0,1,,,,,0,,,37,81
196440,note_on,,,,,0,0,1,,,,,0,,,46,81
196440,note_on,,,,,0,0,1,,,,,0,,,58,81
196440,note_on,,,,,13,0,1,,,,,0,,,52,81
196440,note_on,,,,,121,0,0,,,,,0,,,64,81
196440,note_on,,,,,0,0,1,,,,,0,,,61,81
196559,note_on,,,,,119,0,0,,,,,0,,,64,0
196667,note_on,,,,,227,0,1,,,,,0,,,52,0
196667,note_on,,,,,0,0,1,,,,,0,,,61,0
196667,note_on,,,,,0,0,1,,,,,0,,,58,0
196667,note_on,,,,,0,0,1,,,,,0,,,46,0
196667,note_on,,,,,0,0,1,,,,,0,,,31,0
196667,note_on,,,,,0,0,1,,,,,0,,,37,0
196680,note_on,,,,,13,0,1,,,,,0,,,55,83
196680,note_on,,,,,121,0,0,,,,,0,,,67,99
196680,note_on,,,,,0,0,1,,,,,0,,,32,83
196680,note_on,,,,,0,0,1,,,,,0,,,36,83
196680,note_on,,,,,0,0,1,,,,,0,,,44,83
196680,note_on,,,,,0,0,1,,,,,0,,,60,83
196681,control_change,,,,,1,0,1,,,64,0,0,,,,
196682,control_change,,,,,1,0,1,,,64,127,0,,,,
196907,note_on,,,,,0,0,1,,,,,0,,,32,0
196907,note_on,,,,,0,0,1,,,,,0,,,36,0
196907,note_on,,,,,0,0,1,,,,,0,,,44,0
196907,note_on,,,,,0,0,1,,,,,0,,,60,0
196907,note_on,,,,,225,0,1,,,,,0,,,55,0
196920,note_on,,,,,0,0,1,,,,,0,,,32,84
196920,note_on,,,,,0,0,1,,,,,0,,,44,84
196920,note_on,,,,,0,0,1,,,,,0,,,36,84
196920,note_on,,,,,0,0,1,,,,,0,,,60,84
196920,note_on,,,,,13,0,1,,,,,0,,,55,84
197147,note_on,,,,,227,0,1,,,,,0,,,55,0
197147,note_on,,,,,0,0,1,,,,,0,,,32,0
197147,note_on,,,,,0,0,1,,,,,0,,,60,0
197147,note_on,,,,,0,0,1,,,,,0,,,44,0
197147,note_on,,,,,0,0,1,,,,,0,,,36,0
197160,note_on,,,,,0,0,1,,,,,0,,,36,85
197160,note_on,,,,,0,0,1,,,,,0,,,44,85
197160,note_on,,,,,0,0,1,,,,,0,,,60,85
197160,note_on,,,,,0,0,1,,,,,0,,,32,85
197160,note_on,,,,,13,0,1,,,,,0,,,55,85
197161,note_on,,,,,481,0,0,,,,,0,,,67,0
197387,note_on,,,,,227,0,1,,,,,0,,,55,0
197387,note_on,,,,,0,0,1,,,,,0,,,44,0
197387,note_on,,,,,0,0,1,,,,,0,,,36,0
197387,note_on,,,,,0,0,1,,,,,0,,,32,0
197387,note_on,,,,,0,0,1,,,,,0,,,60,0
197400,note_on,,,,,0,0,1,,,,,0,,,36,86
197400,note_on,,,,,13,0,1,,,,,0,,,53,86
197400,note_on,,,,,0,0,1,,,,,0,,,32,86
197400,note_on,,,,,0,0,1,,,,,0,,,44,86
197400,note_on,,,,,0,0,1,,,,,0,,,60,86
197400,note_on,,,,,239,0,0,,,,,0,,,65,86
197627,note_on,,,,,0,0,1,,,,,0,,,44,0
197627,note_on,,,,,227,0,1,,,,,0,,,53,0
197627,note_on,,,,,0,0,1,,,,,0,,,36,0
197627,note_on,,,,,227,0,0,,,,,0,,,65,0
197627,note_on,,,,,0,0,1,,,,,0,,,32,0
197627,note_on,,,,,0,0,1,,,,,0,,,60,0
197640,note_on,,,,,13,0,1,,,,,0,,,56,87
197640,note_on,,,,,13,0,0,,,,,0,,,68,87
197640,note_on,,,,,0,0,1,,,,,0,,,28,87
197640,note_on,,,,,0,0,1,,,,,0,,,60,87
197640,note_on,,,,,0,0,1,,,,,0,,,40,87
197640,note_on,,,,,0,0,1,,,,,0,,,36,87
197641,control_change,,,,,1,0,1,,,64,0,0,,,,
197867,note_on,,,,,226,0,1,,,,,0,,,56,0
197867,note_on,,,,,0,0,1,,,,,0,,,28,0
197867,note_on,,,,,0,0,1,,,,,0,,,36,0
197867,note_on,,,,,0,0,1,,,,,0,,,60,0
197867,note_on,,,,,0,0,1,,,,,0,,,40,0
197879,note_on,,,,,239,0,0,,,,,0,,,68,0
197880,note_on,,,,,0,0,1,,,,,0,,,36,88
197880,note_on,,,,,0,0,1,,,,,0,,,40,88
197880,note_on,,,,,0,0,1,,,,,0,,,60,88
197880,note_on,,,,,0,0,1,,,,,0,,,28,88
197880,note_on,,,,,1,0,0,,,,,0,,,67,88
197880,note_on,,,,,13,0,1,,,,,0,,,55,88
198107,note_on,,,,,0,0,1,,,,,0,,,60,0
198107,note_on,,,,,0,0,1,,,,,0,,,40,0
198107,note_on,,,,,227,0,0,,,,,0,,,67,0
198107,note_on,,,,,0,0,1,,,,,0,,,36,0
198107,note_on,,,,,0,0,1,,,,,0,,,28,0
198107,note_on,,,,,227,0,1,,,,,0,,,55,0
198120,note_on,,,,,13,0,0,,,,,0,,,70,89
198120,note_on,,,,,0,0,1,,,,,0,,,29,89
198120,note_on,,,,,0,0,1,,,,,0,,,36,89
198120,note_on,,,,,0,0,1,,,,,0,,,41,89
198120,note_on,,,,,0,0,1,,,,,0,,,60,89
198120,note_on,,,,,13,0,1,,,,,0,,,58,89
198347,note_on,,,,,227,0,1,,,,,0,,,58,0
198347,note_on,,,,,0,0,1,,,,,0,,,41,0
198347,note_on,,,,,0,0,1,,,,,0,,,60,0
198347,note_on,,,,,0,0,1,,,,,0,,,29,0
198347,note_on,,,,,0,0,1,,,,,0,,,36,0
198359,note_on,,,,,239,0,0,,,,,0,,,70,0
198360,note_on,,,,,0,0,1,,,,,0,,,41,90
198360,note_on,,,,,0,0,1,,,,,0,,,60,90
198360,note_on,,,,,0,0,1,,,,,0,,,36,90
198360,note_on,,,,,13,0,1,,,,,0,,,56,90
198360,note_on,,,,,1,0,0,,,,,0,,,68,90
198360,note_on,,,,,0,0,1,,,,,0,,,29,90
198587,note_on,,,,,227,0,0,,,,,0,,,68,0
198587,note_on,,,,,227,0,1,,,,,0,,,56,0
198587,note_on,,,,,0,0,1,,,,,0,,,36,0
198587,note_on,,,,,0,0,1,,,,,0,,,29,0
198587,note_on,,,,,0,0,1,,,,,0,,,41,0
198587,note_on,,,,,0,0,1,,,,,0,,,60,0
198600,note_on,,,,,0,0,1,,,,,0,,,26,91
198600,note_on,,,,,0,0,1,,,,,0,,,38,91
198600,note_on,,,,,0,0,1,,,,,0,,,65,91
198600,note_on,,,,,13,0,1,,,,,0,,,60,91
198600,note_on,,,,,13,0,0,,,,,0,,,72,91
198827,note_on,,,,,227,0,1,,,,,0,,,60,0
198827,note_on,,,,,0,0,1,,,,,0,,,26,0
198827,note_on,,,,,0,0,1,,,,,0,,,38,0
198827,note_on,,,,,0,0,1,,,,,0,,,65,0
198839,note_on,,,,,239,0,0,,,,,0,,,72,0
198840,note_on,,,,,0,0,1,,,,,0,,,26,92
198840,note_on,,,,,0,0,1,,,,,0,,,38,92
198840,note_on,,,,,13,0,1,,,,,0,,,58,92
198840,note_on,,,,,0,0,1,,,,,0,,,65,92
198840,note_on,,,,,1,0,0,,,,,0,,,70,92
199067,note_on,,,,,0,0,1,,,,,0,,,65,0
199067,note_on,,,,,0,0,1,,,,,0,,,38,0
199067,note_on,,,,,227,0,1,,,,,0,,,58,0
199067,note_on,,,,,227,0,0,,,,,0,,,70,0
199067,note_on,,,,,0,0,1,,,,,0,,,26,0
199080,note_on,,,,,0,0,1,,,,,0,,,37,93
199080,note_on,,,,,0,0,1,,,,,0,,,68,93
199080,note_on,,,,,0,0,1,,,,,0,,,25,93
199080,note_on,,,,,13,0,1,,,,,0,,,65,93
199080,note_on,,,,,13,0,0,,,,,0,,,77,93
199307,note_on,,,,,227,0,1,,,,,0,,,65,0
199307,note_on,,,,,0,0,1,,,,,0,,,37,0
199307,note_on,,,,,0,0,1,,,,,0,,,25,0
199307,note_on,,,,,0,0,1,,,,,0,,,68,0
199319,note_on,,,,,239,0,0,,,,,0,,,77,0
199320,note_on,,,,,0,0,1,,,,,0,,,25,94
199320,note_on,,,,,13,0,1,,,,,0,,,65,94
199320,note_on,,,,,0,0,1,,,,,0,,,67,94
199320,note_on,,,,,0,0,1,,,,,0,,,37,94
199320,note_on,,,,,1,0,0,,,,,0,,,71,94
199547,note_on,,,,,227,0,1,,,,,0,,,65,0
199547,note_on,,,,,0,0,1,,,,,0,,,67,0
199547,note_on,,,,,0,0,1,,,,,0,,,37,0
199547,note_on,,,,,0,0,1,,,,,0,,,25,0
199547,note_on,,,,,227,0,0,,,,,0,,,71,0
199560,note_on,,,,,13,0,0,,,,,0,,,72,115
199560,note_on,,,,,0,0,1,,,,,0,,,36,96
199560,note_on,,,,,0,0,1,,,,,0,,,67,96
199560,note_on,,,,,13,0,1,,,,,0,,,64,96
199560,note_on,,,,,0,0,1,,,,,0,,,24,96
199880,note_on,,,,,320,0,0,,,,,0,,,72,0
200015,note_on,,,,,0,0,1,,,,,0,,,24,0
200015,note_on,,,,,0,0,1,,,,,0,,,36,0
200015,note_on,,,,,0,0,1,,,,,0,,,67,0
200015,note_on,,,,,455,0,1,,,,,0,,,64,0
200040,note_on,,,,,0,0,1,,,,,0,,,48,115
200040,note_on,,,,,25,0,1,,,,,0,,,48,115
200077,note_on,,,,,37,0,1,,,,,0,,,48,0
200085,note_on,,,,,8,0,1,,,,,0,,,48,0
200099,note_on,,,,,14,0,1,,,,,0,,,49,115
200136,note_on,,,,,37,0,1,,,,,0,,,49,0
200159,note_on,,,,,23,0,1,,,,,0,,,48,115
200196,note_on,,,,,37,0,1,,,,,0,,,48,0
200220,note_on,,,,,24,0,1,,,,,0,,,49,115
200257,note_on,,,,,37,0,1,,,,,0,,,49,0
200279,note_on,,,,,22,0,1,,,,,0,,,48,115
200316,note_on,,,,,37,0,1,,,,,0,,,48,0
200339,note_on,,,,,23,0,1,,,,,0,,,49,115
200376,note_on,,,,,37,0,1,,,,,0,,,49,0
200400,note_on,,,,,24,0,1,,,,,0,,,48,115
200437,note_on,,,,,37,0,1,,,,,0,,,48,0
200459,note_on,,,,,22,0,1,,,,,0,,,49,115
200496,note_on,,,,,37,0,1,,,,,0,,,49,0
200519,note_on,,,,,23,0,1,,,,,0,,,48,115
200556,note_on,,,,,37,0,1,,,,,0,,,48,0
200580,note_on,,,,,24,0,1,,,,,0,,,49,115
200617,note_on,,,,,37,0,1,,,,,0,,,49,0
200639,note_on,,,,,22,0,1,,,,,0,,,48,115
200676,note_on,,,,,37,0,1,,,,,0,,,48,0
200699,note_on,,,,,23,0,1,,,,,0,,,49,115
200736,note_on,,,,,37,0,1,,,,,0,,,49,0
200760,note_on,,,,,24,0,1,,,,,0,,,48,115
200797,note_on,,,,,37,0,1,,,,,0,,,48,0
200819,note_on,,,,,22,0,1,,,,,0,,,49,115
200856,note_on,,,,,37,0,1,,,,,0,,,49,0
200879,note_on,,,,,23,0,1,,,,,0,,,48,115
200916,note_on,,,,,37,0,1,,,,,0,,,48,0
200940,note_on,,,,,24,0,1,,,,,0,,,49,115
200977,note_on,,,,,37,0,1,,,,,0,,,49,0
200999,note_on,,,,,22,0,1,,,,,0,,,48,115
201036,note_on,,,,,37,0,1,,,,,0,,,48,0
201059,note_on,,,,,23,0,1,,,,,0,,,49,115
201096,note_on,,,,,37,0,1,,,,,0,,,49,0
201120,note_on,,,,,24,0,1,,,,,0,,,48,115
201157,note_on,,,,,37,0,1,,,,,0,,,48,0
201179,note_on,,,,,22,0,1,,,,,0,,,49,115
201216,note_on,,,,,37,0,1,,,,,0,,,49,0
201239,note_on,,,,,23,0,1,,,,,0,,,48,115
201276,note_on,,,,,37,0,1,,,,,0,,,48,0
201300,note_on,,,,,24,0,1,,,,,0,,,49,115
201337,note_on,,,,,37,0,1,,,,,0,,,49,0
201359,note_on,,,,,22,0,1,,,,,0,,,48,115
201396,note_on,,,,,37,0,1,,,,,0,,,48,0
201419,note_on,,,,,23,0,1,,,,,0,,,49,115
201456,note_on,,,,,37,0,1,,,,,0,,,49,0
201480,note_on,,,,,24,0,1,,,,,0,,,47,96
201586,note_on,,,,,106,0,1,,,,,0,,,47,0
201587,note_on,,,,,1,0,1,,,,,0,,,48,96
201693,note_on,,,,,106,0,1,,,,,0,,,48,0
201694,note_on,,,,,1,0,1,,,,,0,,,52,96
201800,note_on,,,,,106,0,1,,,,,0,,,52,0
201801,note_on,,,,,1,0,1,,,,,0,,,55,96
201907,note_on,,,,,106,0,1,,,,,0,,,55,0
201908,note_on,,,,,1,0,1,,,,,0,,,58,96
202014,note_on,,,,,106,0,1,,,,,0,,,58,0
202015,note_on,,,,,1,0,1,,,,,0,,,60,96
202121,note_on,,,,,106,0,1,,,,,0,,,60,0
202122,note_on,,,,,1,0,1,,,,,0,,,64,96
202228,note_on,,,,,106,0,1,,,,,0,,,64,0
202229,note_on,,,,,1,0,1,,,,,0,,,67,96
202335,note_on,,,,,106,0,1,,,,,0,,,67,0
202336,note_on,,,,,1,0,1,,,,,0,,,70,96
202436,note_on,,,,,100,0,1,,,,,0,,,70,0
202440,note_on,,,,,2560,0,0,,,,,0,,,73,115
202560,note_on,,,,,124,0,1,,,,,0,,,48,96
202679,note_on,,,,,119,0,1,,,,,0,,,48,0
202680,note_on,,,,,1,0,1,,,,,0,,,61,96
202680,note_on,,,,,0,0,0,,,,,0,,,64,96
202680,note_on,,,,,240,0,0,,,,,0,,,58,96
202799,note_on,,,,,119,0,1,,,,,0,,,61,0
202800,note_on,,,,,1,0,1,,,,,0,,,60,96
202919,note_on,,,,,119,0,1,,,,,0,,,60,0
202919,note_on,,,,,0,0,0,,,,,0,,,64,0
202919,note_on,,,,,239,0,0,,,,,0,,,58,0
202920,note_on,,,,,1,0,1,,,,,0,,,56,96
202920,note_on,,,,,0,0,0,,,,,0,,,64,96
202920,note_on,,,,,1,0,0,,,,,0,,,58,96
203039,note_on,,,,,119,0,1,,,,,0,,,56,0
203040,note_on,,,,,1,0,1,,,,,0,,,55,96
203159,note_on,,,,,0,0,0,,,,,0,,,64,0
203159,note_on,,,,,119,0,1,,,,,0,,,55,0
203159,note_on,,,,,239,0,0,,,,,0,,,73,0
203159,note_on,,,,,0,0,0,,,,,0,,,58,0
203160,note_on,,,,,1,0,0,,,,,0,,,72,96
203160,note_on,,,,,0,0,0,,,,,0,,,64,96
203160,note_on,,,,,0,0,0,,,,,0,,,58,96
203160,note_on,,,,,1,0,1,,,,,0,,,49,96
203279,note_on,,,,,119,0,1,,,,,0,,,49,0
203280,note_on,,,,,1,0,1,,,,,0,,,48,96
203399,note_on,,,,,119,0,1,,,,,0,,,48,0
203399,note_on,,,,,239,0,0,,,,,0,,,72,0
203399,note_on,,,,,0,0,0,,,,,0,,,58,0
203399,note_on,,,,,0,0,0,,,,,0,,,64,0
203400,note_on,,,,,0,0,0,,,,,0,,,58,96
203400,note_on,,,,,1,0,0,,,,,0,,,66,96
203400,note_on,,,,,1,0,1,,,,,0,,,44,96
203400,note_on,,,,,0,0,0,,,,,0,,,64,96
203519,note_on,,,,,119,0,1,,,,,0,,,44,0
203520,note_on,,,,,1,0,1,,,,,0,,,43,96
203639,note_on,,,,,239,0,0,,,,,0,,,66,0
203639,note_on,,,,,119,0,1,,,,,0,,,43,0
203639,note_on,,,,,0,0,0,,,,,0,,,64,0
203639,note_on,,,,,0,0,0,,,,,0,,,58,0
203640,note_on,,,,,1,0,1,,,,,0,,,37,96
203640,note_on,,,,,0,0,0,,,,,0,,,64,96
203640,note_on,,,,,0,0,0,,,,,0,,,58,96
203640,note_on,,,,,1,0,0,,,,,0,,,67,96
203759,note_on,,,,,119,0,1,,,,,0,,,37,0
203760,note_on,,,,,1,0,1,,,,,0,,,36,96
203867,note_on,,,,,0,0,0,,,,,0,,,64,0
203867,note_on,,,,,0,0,0,,,,,0,,,58,0
203867,note_on,,,,,227,0,0,,,,,0,,,67,0
203873,note_on,,,,,113,0,1,,,,,0,,,36,0
203880,note_on,,,,,13,0,0,,,,,0,,,75,115
204000,note_on,,,,,127,0,1,,,,,0,,,48,96
204119,note_on,,,,,119,0,1,,,,,0,,,48,0
204120,note_on,,,,,1,0,1,,,,,0,,,63,96
204120,note_on,,,,,240,0,0,,,,,0,,,58,96
204120,note_on,,,,,0,0,0,,,,,0,,,65,96
204239,note_on,,,,,119,0,1,,,,,0,,,63,0
204240,note_on,,,,,1,0,1,,,,,0,,,61,96
204359,note_on,,,,,239,0,0,,,,,0,,,58,0
204359,note_on,,,,,0,0,0,,,,,0,,,65,0
204359,note_on,,,,,119,0,1,,,,,0,,,61,0
204360,note_on,,,,,1,0,0,,,,,0,,,58,96
204360,note_on,,,,,0,0,0,,,,,0,,,65,96
204360,note_on,,,,,1,0,1,,,,,0,,,56,96
204479,note_on,,,,,119,0,1,,,,,0,,,56,0
204480,note_on,,,,,1,0,1,,,,,0,,,55,96
204599,note_on,,,,,0,0,0,,,,,0,,,65,0
204599,note_on,,,,,0,0,0,,,,,0,,,58,0
204599,note_on,,,,,119,0,1,,,,,0,,,55,0
204599,note_on,,,,,239,0,0,,,,,0,,,75,0
204600,note_on,,,,,1,0,1,,,,,0,,,53,96
204600,note_on,,,,,0,0,0,,,,,0,,,58,96
204600,note_on,,,,,1,0,0,,,,,0,,,73,96
204600,note_on,,,,,0,0,0,,,,,0,,,65,96
204719,note_on,,,,,119,0,1,,,,,0,,,53,0
204720,note_on,,,,,1,0,1,,,,,0,,,51,96
204839,note_on,,,,,0,0,0,,,,,0,,,65,0
204839,note_on,,,,,0,0,0,,,,,0,,,58,0
204839,note_on,,,,,239,0,0,,,,,0,,,73,0
204839,note_on,,,,,119,0,1,,,,,0,,,51,0
204840,note_on,,,,,1,0,0,,,,,0,,,68,96
204840,note_on,,,,,0,0,0,,,,,0,,,58,96
204840,note_on,,,,,0,0,0,,,,,0,,,65,96
204840,note_on,,,,,1,0,1,,,,,0,,,49,96
204959,note_on,,,,,119,0,1,,,,,0,,,49,0
204960,note_on,,,,,1,0,1,,,,,0,,,44,96
205079,note_on,,,,,239,0,0,,,,,0,,,68,0
205079,note_on,,,,,0,0,0,,,,,0,,,65,0
205079,note_on,,,,,0,0,0,,,,,0,,,58,0
205079,note_on,,,,,119,0,1,,,,,0,,,44,0
205080,note_on,,,,,1,0,0,,,,,0,,,70,96
205080,note_on,,,,,0,0,0,,,,,0,,,58,96
205080,note_on,,,,,1,0,1,,,,,0,,,43,96
205080,note_on,,,,,0,0,0,,,,,0,,,65,96
205199,note_on,,,,,119,0,1,,,,,0,,,43,0
205200,note_on,,,,,1,0,1,,,,,0,,,41,96
205307,note_on,,,,,0,0,0,,,,,0,,,58,0
205307,note_on,,,,,0,0,0,,,,,0,,,65,0
205307,note_on,,,,,227,0,0,,,,,0,,,70,0
205313,note_on,,,,,113,0,1,,,,,0,,,41,0
205320,note_on,,,,,0,0,0,,,,,0,,,60,96
205320,note_on,,,,,0,0,0,,,,,0,,,64,96
205320,note_on,,,,,7,0,1,,,,,0,,,36,96
205320,note_on,,,,,13,0,0,,,,,0,,,72,96
205547,note_on,,,,,227,0,0,,,,,0,,,72,0
205547,note_on,,,,,0,0,0,,,,,0,,,60,0
205547,note_on,,,,,227,0,1,,,,,0,,,36,0
205547,note_on,,,,,0,0,0,,,,,0,,,64,0
205740,note_on,,,,,193,0,1,,,,,0,,,36,96
205740,note_on,,,,,193,0,0,,,,,0,,,48,96
205796,note_on,,,,,56,0,0,,,,,0,,,48,0
205796,note_on,,,,,56,0,1,,,,,0,,,36,0
205800,note_on,,,,,4,0,0,,,,,0,,,25,96
205800,note_on,,,,,0,0,0,,,,,0,,,48,96
205800,note_on,,,,,4,0,1,,,,,0,,,37,115
205800,note_on,,,,,0,0,1,,,,,0,,,36,115
205837,note_on,,,,,37,0,1,,,,,0,,,36,0
205845,note_on,,,,,45,0,0,,,,,0,,,25,0
205845,note_on,,,,,8,0,1,,,,,0,,,37,0
205853,note_on,,,,,8,0,0,,,,,0,,,48,0
205859,note_on,,,,,6,0,0,,,,,0,,,25,96
205859,note_on,,,,,14,0,1,,,,,0,,,37,115
205896,note_on,,,,,37,0,1,,,,,0,,,37,0
205912,note_on,,,,,53,0,0,,,,,0,,,25,0
205919,note_on,,,,,7,0,0,,,,,0,,,48,96
205919,note_on,,,,,23,0,1,,,,,0,,,36,115
205956,note_on,,,,,37,0,1,,,,,0,,,36,0
205972,note_on,,,,,53,0,0,,,,,0,,,48,0
205980,note_on,,,,,24,0,1,,,,,0,,,37,115
205980,note_on,,,,,8,0,0,,,,,0,,,25,96
206017,note_on,,,,,37,0,1,,,,,0,,,37,0
206033,note_on,,,,,53,0,0,,,,,0,,,25,0
206039,note_on,,,,,6,0,0,,,,,0,,,48,96
206039,note_on,,,,,22,0,1,,,,,0,,,36,115
206076,note_on,,,,,37,0,1,,,,,0,,,36,0
206092,note_on,,,,,53,0,0,,,,,0,,,48,0
206099,note_on,,,,,23,0,1,,,,,0,,,37,115
206099,note_on,,,,,7,0,0,,,,,0,,,25,96
206136,note_on,,,,,37,0,1,,,,,0,,,37,0
206152,note_on,,,,,53,0,0,,,,,0,,,25,0
206160,note_on,,,,,8,0,0,,,,,0,,,48,96
206160,note_on,,,,,24,0,1,,,,,0,,,36,115
206197,note_on,,,,,37,0,1,,,,,0,,,36,0
206213,note_on,,,,,53,0,0,,,,,0,,,48,0
206219,note_on,,,,,22,0,1,,,,,0,,,37,115
206219,note_on,,,,,6,0,0,,,,,0,,,25,96
206256,note_on,,,,,37,0,1,,,,,0,,,37,0
206272,note_on,,,,,53,0,0,,,,,0,,,25,0
206279,note_on,,,,,23,0,1,,,,,0,,,36,115
206279,note_on,,,,,7,0,0,,,,,0,,,48,96
206316,note_on,,,,,37,0,1,,,,,0,,,36,0
206332,note_on,,,,,53,0,0,,,,,0,,,48,0
206340,note_on,,,,,24,0,1,,,,,0,,,37,115
206340,note_on,,,,,8,0,0,,,,,0,,,25,96
206377,note_on,,,,,37,0,1,,,,,0,,,37,0
206393,note_on,,,,,53,0,0,,,,,0,,,25,0
206399,note_on,,,,,6,0,0,,,,,0,,,48,96
206399,note_on,,,,,22,0,1,,,,,0,,,36,115
206436,note_on,,,,,37,0,1,,,,,0,,,36,0
206452,note_on,,,,,53,0,0,,,,,0,,,48,0
206459,note_on,,,,,23,0,1,,,,,0,,,37,115
206459,note_on,,,,,7,0,0,,,,,0,,,25,96
206496,note_on,,,,,37,0,1,,,,,0,,,37,0
206512,note_on,,,,,53,0,0,,,,,0,,,25,0
206520,note_on,,,,,8,0,0,,,,,0,,,48,96
206520,note_on,,,,,24,0,1,,,,,0,,,36,115
206557,note_on,,,,,37,0,1,,,,,0,,,36,0
206573,note_on,,,,,53,0,0,,,,,0,,,48,0
206579,note_on,,,,,22,0,1,,,,,0,,,37,115
206579,note_on,,,,,6,0,0,,,,,0,,,25,96
206616,note_on,,,,,37,0,1,,,,,0,,,37,0
206632,note_on,,,,,53,0,0,,,,,0,,,25,0
206639,note_on,,,,,7,0,0,,,,,0,,,48,96
206639,note_on,,,,,23,0,1,,,,,0,,,36,115
206676,note_on,,,,,37,0,1,,,,,0,,,36,0
206692,note_on,,,,,53,0,0,,,,,0,,,48,0
206700,note_on,,,,,8,0,0,,,,,0,,,25,96
206700,note_on,,,,,24,0,1,,,,,0,,,37,115
206737,note_on,,,,,37,0,1,,,,,0,,,37,0
206753,note_on,,,,,53,0,0,,,,,0,,,25,0
206759,note_on,,,,,6,0,0,,,,,0,,,48,96
206759,note_on,,,,,22,0,1,,,,,0,,,36,115
206796,note_on,,,,,37,0,1,,,,,0,,,36,0
206812,note_on,,,,,53,0,0,,,,,0,,,48,0
206819,note_on,,,,,23,0,1,,,,,0,,,37,115
206819,note_on,,,,,7,0,0,,,,,0,,,25,96
206856,note_on,,,,,37,0,1,,,,,0,,,37,0
206872,note_on,,,,,53,0,0,,,,,0,,,25,0
206880,note_on,,,,,8,0,0,,,,,0,,,48,96
206880,note_on,,,,,24,0,1,,,,,0,,,36,115
206917,note_on,,,,,37,0,1,,,,,0,,,36,0
206933,note_on,,,,,53,0,0,,,,,0,,,48,0
206939,note_on,,,,,22,0,1,,,,,0,,,37,115
206939,note_on,,,,,6,0,0,,,,,0,,,25,96
206976,note_on,,,,,37,0,1,,,,,0,,,37,0
206992,note_on,,,,,53,0,0,,,,,0,,,25,0
206999,note_on,,,,,7,0,0,,,,,0,,,48,96
206999,note_on,,,,,23,0,1,,,,,0,,,36,115
207036,note_on,,,,,37,0,1,,,,,0,,,36,0
207052,note_on,,,,,53,0,0,,,,,0,,,48,0
207060,note_on,,,,,24,0,1,,,,,0,,,37,115
207060,note_on,,,,,8,0,0,,,,,0,,,25,96
207097,note_on,,,,,37,0,1,,,,,0,,,37,0
207113,note_on,,,,,53,0,0,,,,,0,,,25,0
207119,note_on,,,,,22,0,1,,,,,0,,,36,115
207119,note_on,,,,,6,0,0,,,,,0,,,48,96
207156,note_on,,,,,37,0,1,,,,,0,,,36,0
207172,note_on,,,,,53,0,0,,,,,0,,,48,0
207179,note_on,,,,,23,0,1,,,,,0,,,37,115
207179,note_on,,,,,7,0,0,,,,,0,,,25,96
207216,note_on,,,,,37,0,1,,,,,0,,,37,0
207232,note_on,,,,,53,0,0,,,,,0,,,25,0
207240,note_on,,,,,24,0,1,,,,,0,,,35,96
207240,note_on,,,,,8,0,0,,,,,0,,,47,96
207309,note_on,,,,,69,0,0,,,,,0,,,47,0
207309,note_on,,,,,69,0,1,,,,,0,,,35,0
207314,note_on,,,,,5,0,0,,,,,0,,,48,96
207314,note_on,,,,,5,0,1,,,,,0,,,36,96
207383,note_on,,,,,69,0,0,,,,,0,,,48,0
207383,note_on,,,,,69,0,1,,,,,0,,,36,0
207388,note_on,,,,,5,0,0,,,,,0,,,52,96
207388,note_on,,,,,5,0,1,,,,,0,,,40,96
207457,note_on,,,,,69,0,1,,,,,0,,,40,0
207457,note_on,,,,,69,0,0,,,,,0,,,52,0
207462,note_on,,,,,5,0,1,,,,,0,,,43,96
207462,note_on,,,,,5,0,0,,,,,0,,,55,96
207531,note_on,,,,,69,0,0,,,,,0,,,55,0
207531,note_on,,,,,69,0,1,,,,,0,,,43,0
207536,note_on,,,,,5,0,1,,,,,0,,,46,96
207536,note_on,,,,,5,0,0,,,,,0,,,58,96
207605,note_on,,,,,69,0,1,,,,,0,,,46,0
207605,note_on,,,,,69,0,0,,,,,0,,,58,0
207610,note_on,,,,,5,0,0,,,,,0,,,60,96
207610,note_on,,,,,5,0,1,,,,,0,,,48,96
207679,note_on,,,,,69,0,1,,,,,0,,,48,0
207679,note_on,,,,,69,0,0,,,,,0,,,60,0
207684,note_on,,,,,5,0,0,,,,,0,,,64,96
207684,note_on,,,,,5,0,1,,,,,0,,,52,96
207753,note_on,,,,,69,0,1,,,,,0,,,52,0
207753,note_on,,,,,69,0,0,,,,,0,,,64,0
207758,note_on,,,,,5,0,0,,,,,0,,,67,96
207758,note_on,,,,,5,0,1,,,,,0,,,55,96
207827,note_on,,,,,69,0,1,,,,,0,,,55,0
207827,note_on,,,,,69,0,0,,,,,0,,,67,0
207832,note_on,,,,,5,0,1,,,,,0,,,58,96
207832,note_on,,,,,5,0,0,,,,,0,,,70,96
207901,note_on,,,,,69,0,1,,,,,0,,,58,0
207901,note_on,,,,,69,0,0,,,,,0,,,70,0
207906,note_on,,,,,5,0,1,,,,,0,,,60,96
207906,note_on,,,,,5,0,0,,,,,0,,,72,96
207975,note_on,,,,,69,0,0,,,,,0,,,72,0
207975,note_on,,,,,69,0,1,,,,,0,,,60,0
207980,note_on,,,,,5,0,1,,,,,0,,,64,96
207980,note_on,,,,,5,0,0,,,,,0,,,76,96
208049,note_on,,,,,69,0,1,,,,,0,,,64,0
208049,note_on,,,,,69,0,0,,,,,0,,,76,0
208054,note_on,,,,,5,0,1,,,,,0,,,67,96
208054,note_on,,,,,5,0,0,,,,,0,,,79,96
208123,note_on,,,,,69,0,1,,,,,0,,,67,0
208123,note_on,,,,,69,0,0,,,,,0,,,79,0
208128,note_on,,,,,5,0,1,,,,,0,,,70,96
208128,note_on,,,,,5,0,0,,,,,0,,,82,96
208197,note_on,,,,,69,0,0,,,,,0,,,82,0
208197,note_on,,,,,69,0,1,,,,,0,,,70,0
208200,note_on,,,,,3,0,0,,,,,0,,,85,115
208200,note_on,,,,,3,0,1,,,,,0,,,73,115
208279,note_on,,,,,79,0,1,,,,,0,,,73,0
208320,note_on,,,,,41,0,1,,,,,0,,,72,96
208439,note_on,,,,,119,0,1,,,,,0,,,72,0
208440,note_on,,,,,0,0,0,,,,,0,,,76,96
208440,note_on,,,,,1,0,1,,,,,0,,,68,96
208440,note_on,,,,,240,0,0,,,,,0,,,70,96
208559,note_on,,,,,119,0,1,,,,,0,,,68,0
208560,note_on,,,,,1,0,1,,,,,0,,,67,96
208679,note_on,,,,,119,0,1,,,,,0,,,67,0
208679,note_on,,,,,239,0,0,,,,,0,,,70,0
208679,note_on,,,,,0,0,0,,,,,0,,,76,0
208680,note_on,,,,,1,0,1,,,,,0,,,61,96
208680,note_on,,,,,1,0,0,,,,,0,,,70,96
208680,note_on,,,,,0,0,0,,,,,0,,,76,96
208681,note_on,,,,,1,0,0,,,,,0,,,85,0
208799,note_on,,,,,119,0,1,,,,,0,,,61,0
208800,note_on,,,,,1,0,1,,,,,0,,,60,96
208919,note_on,,,,,0,0,0,,,,,0,,,76,0
208919,note_on,,,,,119,0,1,,,,,0,,,60,0
208919,note_on,,,,,238,0,0,,,,,0,,,70,0
208920,note_on,,,,,0,0,0,,,,,0,,,76,96
208920,note_on,,,,,0,0,0,,,,,0,,,84,96
208920,note_on,,,,,1,0,1,,,,,0,,,56,96
208920,note_on,,,,,1,0,0,,,,,0,,,70,96
209039,note_on,,,,,119,0,1,,,,,0,,,56,0
209040,note_on,,,,,1,0,1,,,,,0,,,55,96
209159,note_on,,,,,0,0,0,,,,,0,,,84,0
209159,note_on,,,,,0,0,0,,,,,0,,,76,0
209159,note_on,,,,,239,0,0,,,,,0,,,70,0
209159,note_on,,,,,119,0,1,,,,,0,,,55,0
209160,note_on,,,,,0,0,0,,,,,0,,,76,96
209160,note_on,,,,,0,0,0,,,,,0,,,78,96
209160,note_on,,,,,1,0,0,,,,,0,,,70,96
209160,note_on,,,,,1,0,1,,,,,0,,,49,96
209279,note_on,,,,,119,0,1,,,,,0,,,49,0
209280,note_on,,,,,1,0,1,,,,,0,,,48,96
209399,note_on,,,,,239,0,0,,,,,0,,,70,0
209399,note_on,,,,,119,0,1,,,,,0,,,48,0
209399,note_on,,,,,0,0,0,,,,,0,,,76,0
209399,note_on,,,,,0,0,0,,,,,0,,,78,0
209400,note_on,,,,,0,0,0,,,,,0,,,76,96
209400,note_on,,,,,1,0,1,,,,,0,,,36,96
209400,note_on,,,,,1,0,0,,,,,0,,,70,96
209400,note_on,,,,,0,0,0,,,,,0,,,79,96
209513,note_on,,,,,113,0,1,,,,,0,,,36,0
209627,note_on,,,,,0,0,0,,,,,0,,,76,0
209627,note_on,,,,,0,0,0,,,,,0,,,79,0
209627,note_on,,,,,227,0,0,,,,,0,,,70,0
209640,note_on,,,,,127,0,1,,,,,0,,,75,115
209640,note_on,,,,,13,0,0,,,,,0,,,87,115
209719,note_on,,,,,79,0,1,,,,,0,,,75,0
209760,note_on,,,,,41,0,1,,,,,0,,,73,96
209879,note_on,,,,,119,0,1,,,,,0,,,73,0
209880,note_on,,,,,0,0,0,,,,,0,,,77,97
209880,note_on,,,,,240,0,0,,,,,0,,,71,97
209880,note_on,,,,,1,0,1,,,,,0,,,68,97
209999,note_on,,,,,119,0,1,,,,,0,,,68,0
210000,note_on,,,,,1,0,1,,,,,0,,,65,98
210119,note_on,,,,,0,0,0,,,,,0,,,77,0
210119,note_on,,,,,239,0,0,,,,,0,,,71,0
210119,note_on,,,,,119,0,1,,,,,0,,,65,0
210120,note_on,,,,,0,0,0,,,,,0,,,77,99
210120,note_on,,,,,1,0,1,,,,,0,,,63,99
210120,note_on,,,,,1,0,0,,,,,0,,,71,99
210121,note_on,,,,,1,0,0,,,,,0,,,87,0
210239,note_on,,,,,119,0,1,,,,,0,,,63,0
210240,note_on,,,,,1,0,1,,,,,0,,,61,100
210359,note_on,,,,,238,0,0,,,,,0,,,71,0
210359,note_on,,,,,0,0,0,,,,,0,,,77,0
210359,note_on,,,,,119,0,1,,,,,0,,,61,0
210360,note_on,,,,,1,0,0,,,,,0,,,71,101
210360,note_on,,,,,0,0,0,,,,,0,,,85,101
210360,note_on,,,,,1,0,1,,,,,0,,,56,101
210360,note_on,,,,,0,0,0,,,,,0,,,77,101
210479,note_on,,,,,119,0,1,,,,,0,,,56,0
210480,note_on,,,,,1,0,1,,,,,0,,,53,101
210599,note_on,,,,,119,0,1,,,,,0,,,53,0
210599,note_on,,,,,239,0,0,,,,,0,,,71,0
210599,note_on,,,,,0,0,0,,,,,0,,,77,0
210599,note_on,,,,,0,0,0,,,,,0,,,85,0
210600,note_on,,,,,1,0,1,,,,,0,,,51,102
210600,note_on,,,,,1,0,0,,,,,0,,,80,102
210600,note_on,,,,,0,0,0,,,,,0,,,92,102
210719,note_on,,,,,119,0,1,,,,,0,,,51,0
210720,note_on,,,,,1,0,1,,,,,0,,,49,103
210827,note_on,,,,,227,0,0,,,,,0,,,80,0
210827,note_on,,,,,0,0,0,,,,,0,,,92,0
210839,note_on,,,,,119,0,1,,,,,0,,,49,0
210840,note_on,,,,,0,0,0,,,,,0,,,71,104
210840,note_on,,,,,1,0,1,,,,,0,,,44,104
210840,note_on,,,,,13,0,0,,,,,0,,,61,104
210840,note_on,,,,,0,0,0,,,,,0,,,65,104
210959,note_on,,,,,119,0,1,,,,,0,,,44,0
210960,note_on,,,,,1,0,1,,,,,0,,,41,105
211067,note_on,,,,,0,0,0,,,,,0,,,65,0
211067,note_on,,,,,227,0,0,,,,,0,,,61,0
211067,note_on,,,,,0,0,0,,,,,0,,,71,0
211073,note_on,,,,,113,0,1,,,,,0,,,41,0
211080,note_on,,,,,0,0,0,,,,,0,,,72,106
211080,note_on,,,,,0,0,0,,,,,0,,,60,106
211080,note_on,,,,,7,0,1,,,,,0,,,36,106
211080,time_signature,7,4,24,8,13,1,0,,,,,,,,,
211080,note_on,,,,,0,0,0,,,,,0,,,64,106
211307,note_on,,,,,0,0,0,,,,,0,,,64,0
211307,note_on,,,,,0,0,0,,,,,0,,,72,0
211307,note_on,,,,,227,0,1,,,,,0,,,36,0
211307,note_on,,,,,227,0,0,,,,,0,,,60,0
211560,note_on,,,,,0,0,1,,,,,0,,,60,106
211560,note_on,,,,,253,0,0,,,,,0,,,72,127
211560,note_on,,,,,0,0,1,,,,,0,,,64,106
211560,note_on,,,,,253,0,1,,,,,0,,,67,106
211619,note_on,,,,,59,0,0,,,,,0,,,72,0
211620,note_on,,,,,1,0,0,,,,,0,,,73,127
211679,note_on,,,,,59,0,0,,,,,0,,,73,0
211680,note_on,,,,,1,0,0,,,,,0,,,72,127
211739,note_on,,,,,59,0,0,,,,,0,,,72,0
211740,note_on,,,,,1,0,0,,,,,0,,,73,127
211799,note_on,,,,,59,0,0,,,,,0,,,73,0
211800,note_on,,,,,1,0,0,,,,,0,,,72,127
211859,note_on,,,,,59,0,0,,,,,0,,,72,0
211860,note_on,,,,,1,0,0,,,,,0,,,73,127
211919,note_on,,,,,59,0,0,,,,,0,,,73,0
211920,note_on,,,,,1,0,0,,,,,0,,,72,127
211979,note_on,,,,,59,0,0,,,,,0,,,72,0
211980,note_on,,,,,1,0,0,,,,,0,,,73,127
212015,note_on,,,,,0,0,1,,,,,0,,,60,0
212015,note_on,,,,,0,0,1,,,,,0,,,64,0
212015,note_on,,,,,455,0,1,,,,,0,,,67,0
212039,note_on,,,,,59,0,0,,,,,0,,,73,0
212040,note_on,,,,,0,0,0,,,,,0,,,71,109
212040,set_tempo,,,,,1,1,0,,250000,,,,,,,
212153,note_on,,,,,113,0,0,,,,,0,,,71,0
212160,note_on,,,,,7,0,0,,,,,0,,,72,110
212273,note_on,,,,,113,0,0,,,,,0,,,72,0
212280,note_on,,,,,0,0,1,,,,,0,,,65,111
212280,note_on,,,,,0,0,1,,,,,0,,,59,111
212280,note_on,,,,,265,0,1,,,,,0,,,68,111
212280,note_on,,,,,0,0,0,,,,,0,,,73,127
212280,set_tempo,,,,,7,1,0,,666667,,,,,,,
212339,note_on,,,,,59,0,0,,,,,0,,,73,0
212340,note_on,,,,,1,0,0,,,,,0,,,75,127
212399,note_on,,,,,59,0,0,,,,,0,,,75,0
212400,note_on,,,,,1,0,0,,,,,0,,,73,127
212459,note_on,,,,,59,0,0,,,,,0,,,73,0
212460,note_on,,,,,1,0,0,,,,,0,,,75,127
212519,note_on,,,,,59,0,0,,,,,0,,,75,0
212520,note_on,,,,,1,0,0,,,,,0,,,73,127
212579,note_on,,,,,59,0,0,,,,,0,,,73,0
212580,note_on,,,,,1,0,0,,,,,0,,,75,127
212639,note_on,,,,,59,0,0,,,,,0,,,75,0
212640,note_on,,,,,1,0,0,,,,,0,,,73,127
212699,note_on,,,,,59,0,0,,,,,0,,,73,0
212700,note_on,,,,,1,0,0,,,,,0,,,75,127
212735,note_on,,,,,0,0,1,,,,,0,,,59,0
212735,note_on,,,,,455,0,1,,,,,0,,,68,0
212735,note_on,,,,,0,0,1,,,,,0,,,65,0
212759,note_on,,,,,59,0,0,,,,,0,,,75,0
212760,note_on,,,,,0,0,0,,,,,0,,,72,114
212760,set_tempo,,,,,1,1,0,,250000,,,,,,,
212873,note_on,,,,,113,0,0,,,,,0,,,72,0
212880,note_on,,,,,7,0,0,,,,,0,,,73,115
212993,note_on,,,,,113,0,0,,,,,0,,,73,0
213000,set_tempo,,,,,7,1,0,,666667,,,,,,,
213000,note_on,,,,,265,0,1,,,,,0,,,71,127
213000,note_on,,,,,0,0,1,,,,,0,,,58,127
213000,note_on,,,,,0,0,0,,,,,0,,,74,127
213058,note_on,,,,,58,0,0,,,,,0,,,74,0
213059,note_on,,,,,1,0,0,,,,,0,,,75,127
213063,note_on,,,,,63,0,1,,,,,0,,,65,127
213117,note_on,,,,,58,0,0,,,,,0,,,75,0
213119,note_on,,,,,2,0,0,,,,,0,,,74,127
213127,note_on,,,,,64,0,1,,,,,0,,,68,127
213177,note_on,,,,,58,0,0,,,,,0,,,74,0
213180,note_on,,,,,3,0,0,,,,,0,,,75,127
213238,note_on,,,,,58,0,0,,,,,0,,,75,0
213239,note_on,,,,,1,0,0,,,,,0,,,74,127
213297,note_on,,,,,58,0,0,,,,,0,,,74,0
213299,note_on,,,,,2,0,0,,,,,0,,,75,127
213357,note_on,,,,,58,0,0,,,,,0,,,75,0
213360,note_on,,,,,3,0,0,,,,,0,,,74,127
213418,note_on,,,,,58,0,0,,,,,0,,,74,0
213419,note_on,,,,,1,0,0,,,,,0,,,75,127
213477,note_on,,,,,58,0,0,,,,,0,,,75,0
213479,note_on,,,,,2,0,0,,,,,0,,,74,127
213481,note_on,,,,,354,0,1,,,,,0,,,71,0
213537,note_on,,,,,58,0,0,,,,,0,,,74,0
213540,note_on,,,,,3,0,0,,,,,0,,,75,127
213598,note_on,,,,,58,0,0,,,,,0,,,75,0
213599,note_on,,,,,1,0,0,,,,,0,,,74,127
213657,note_on,,,,,58,0,0,,,,,0,,,74,0
213659,note_on,,,,,2,0,0,,,,,0,,,75,127
213717,note_on,,,,,58,0,0,,,,,0,,,75,0
213720,note_on,,,,,239,0,1,,,,,0,,,70,116
213720,note_on,,,,,3,0,0,,,,,0,,,73,116
213749,note_on,,,,,29,0,0,,,,,0,,,73,0
213750,note_on,,,,,1,0,0,,,,,0,,,74,116
213779,note_on,,,,,29,0,0,,,,,0,,,74,0
213780,note_on,,,,,1,0,0,,,,,0,,,77,116
213839,note_on,,,,,59,0,0,,,,,0,,,77,0
213840,note_on,,,,,1,0,0,,,,,0,,,80,117
213899,note_on,,,,,59,0,0,,,,,0,,,80,0
213900,note_on,,,,,1,0,0,,,,,0,,,82,118
213958,note_on,,,,,0,0,1,,,,,0,,,68,0
213958,note_on,,,,,238,0,1,,,,,0,,,65,0
213959,note_on,,,,,1,0,1,,,,,0,,,58,0
213959,note_on,,,,,0,0,1,,,,,0,,,70,0
213959,note_on,,,,,59,0,0,,,,,0,,,82,0
213960,note_on,,,,,1,0,0,,,,,0,,,86,119
213960,note_on,,,,,1,0,1,,,,,0,,,64,119
214019,note_on,,,,,59,0,0,,,,,0,,,86,0
214020,note_on,,,,,1,0,0,,,,,0,,,89,120
214079,note_on,,,,,59,0,0,,,,,0,,,89,0
214080,note_on,,,,,1,0,0,,,,,0,,,92,121
214139,note_on,,,,,59,0,0,,,,,0,,,92,0
214140,note_on,,,,,1,0,0,,,,,0,,,95,121
214199,note_on,,,,,59,0,0,,,,,0,,,95,0
214199,note_on,,,,,239,0,1,,,,,0,,,64,0
214200,note_on,,,,,1,0,1,,,,,0,,,65,122
214200,note_on,,,,,1,0,0,,,,,0,,,94,122
214259,note_on,,,,,59,0,0,,,,,0,,,94,0
214260,note_on,,,,,1,0,0,,,,,0,,,92,123
214319,note_on,,,,,59,0,0,,,,,0,,,92,0
214320,note_on,,,,,1,0,0,,,,,0,,,89,124
214379,note_on,,,,,59,0,0,,,,,0,,,89,0
214380,note_on,,,,,1,0,0,,,,,0,,,86,125
214427,note_on,,,,,227,0,1,,,,,0,,,65,0
214439,note_on,,,,,59,0,0,,,,,0,,,86,0
214440,note_on,,,,,1,0,0,,,,,0,,,82,126
214519,note_on,,,,,79,0,0,,,,,0,,,82,0
214520,note_on,,,,,1,0,0,,,,,0,,,80,126
214599,note_on,,,,,79,0,0,,,,,0,,,80,0
214600,note_on,,,,,1,0,0,,,,,0,,,77,126
214679,note_on,,,,,79,0,0,,,,,0,,,77,0
214680,note_on,,,,,1,0,0,,,,,0,,,74,126
214759,note_on,,,,,79,0,0,,,,,0,,,74,0
214760,note_on,,,,,1,0,0,,,,,0,,,71,126
214839,note_on,,,,,79,0,0,,,,,0,,,71,0
214840,note_on,,,,,1,0,0,,,,,0,,,70,126
214915,note_on,,,,,75,0,0,,,,,0,,,70,0
214920,note_on,,,,,0,0,1,,,,,0,,,67,126
214920,note_on,,,,,5,0,0,,,,,0,,,75,127
214920,note_on,,,,,0,0,1,,,,,0,,,63,126
214920,note_on,,,,,493,0,1,,,,,0,,,70,126
214979,note_on,,,,,59,0,0,,,,,0,,,75,0
214980,note_on,,,,,1,0,0,,,,,0,,,77,127
215039,note_on,,,,,59,0,0,,,,,0,,,77,0
215040,note_on,,,,,1,0,0,,,,,0,,,75,127
215099,note_on,,,,,59,0,0,,,,,0,,,75,0
215100,note_on,,,,,1,0,0,,,,,0,,,77,127
215159,note_on,,,,,59,0,0,,,,,0,,,77,0
215160,note_on,,,,,1,0,0,,,,,0,,,75,127
215219,note_on,,,,,59,0,0,,,,,0,,,75,0
215220,note_on,,,,,1,0,0,,,,,0,,,77,127
215279,note_on,,,,,59,0,0,,,,,0,,,77,0
215280,note_on,,,,,1,0,0,,,,,0,,,75,127
215339,note_on,,,,,59,0,0,,,,,0,,,75,0
215340,note_on,,,,,1,0,0,,,,,0,,,77,127
215375,note_on,,,,,0,0,1,,,,,0,,,67,0
215375,note_on,,,,,0,0,1,,,,,0,,,63,0
215375,note_on,,,,,455,0,1,,,,,0,,,70,0
215399,note_on,,,,,59,0,0,,,,,0,,,77,0
215400,set_tempo,,,,,1,1,0,,250000,,,,,,,
215400,note_on,,,,,0,0,0,,,,,0,,,74,126
215513,note_on,,,,,113,0,0,,,,,0,,,74,0
215520,note_on,,,,,7,0,0,,,,,0,,,75,126
215633,note_on,,,,,113,0,0,,,,,0,,,75,0
215640,set_tempo,,,,,7,1,0,,666667,,,,,,,
215640,note_on,,,,,0,0,1,,,,,0,,,62,126
215640,note_on,,,,,0,0,1,,,,,0,,,68,126
215640,note_on,,,,,265,0,1,,,,,0,,,71,126
215640,note_on,,,,,0,0,0,,,,,0,,,76,127
215699,note_on,,,,,59,0,0,,,,,0,,,76,0
215700,note_on,,,,,1,0,0,,,,,0,,,77,127
215759,note_on,,,,,59,0,0,,,,,0,,,77,0
215760,note_on,,,,,1,0,0,,,,,0,,,76,127
215819,note_on,,,,,59,0,0,,,,,0,,,76,0
215820,note_on,,,,,1,0,0,,,,,0,,,77,127
215879,note_on,,,,,59,0,0,,,,,0,,,77,0
215880,note_on,,,,,1,0,0,,,,,0,,,76,127
215939,note_on,,,,,59,0,0,,,,,0,,,76,0
215940,note_on,,,,,1,0,0,,,,,0,,,77,127
215999,note_on,,,,,59,0,0,,,,,0,,,77,0
216000,note_on,,,,,1,0,0,,,,,0,,,76,127
216059,note_on,,,,,59,0,0,,,,,0,,,76,0
216060,note_on,,,,,1,0,0,,,,,0,,,77,127
216095,note_on,,,,,455,0,1,,,,,0,,,71,0
216095,note_on,,,,,0,0,1,,,,,0,,,68,0
216095,note_on,,,,,0,0,1,,,,,0,,,62,0
216119,note_on,,,,,59,0,0,,,,,0,,,77,0
216120,note_on,,,,,0,0,0,,,,,0,,,75,126
216120,set_tempo,,,,,1,1,0,,250000,,,,,,,
216233,note_on,,,,,113,0,0,,,,,0,,,75,0
216240,note_on,,,,,7,0,0,,,,,0,,,76,126
216353,note_on,,,,,113,0,0,,,,,0,,,76,0
216360,note_on,,,,,0,0,1,,,,,0,,,68,127
216360,note_on,,,,,0,0,1,,,,,0,,,71,127
216360,note_on,,,,,0,0,1,,,,,0,,,61,127
216360,note_on,,,,,0,0,0,,,,,0,,,77,127
216360,set_tempo,,,,,7,1,0,,666667,,,,,,,
216360,note_on,,,,,265,0,1,,,,,0,,,74,127
216418,note_on,,,,,58,0,0,,,,,0,,,77,0
216419,note_on,,,,,1,0,0,,,,,0,,,78,127
216477,note_on,,,,,58,0,0,,,,,0,,,78,0
216479,note_on,,,,,2,0,0,,,,,0,,,77,127
216537,note_on,,,,,58,0,0,,,,,0,,,77,0
216540,note_on,,,,,3,0,0,,,,,0,,,78,127
216598,note_on,,,,,58,0,0,,,,,0,,,78,0
216599,note_on,,,,,1,0,0,,,,,0,,,77,127
216657,note_on,,,,,58,0,0,,,,,0,,,77,0
216659,note_on,,,,,2,0,0,,,,,0,,,78,127
216717,note_on,,,,,58,0,0,,,,,0,,,78,0
216720,note_on,,,,,3,0,0,,,,,0,,,77,127
216778,note_on,,,,,58,0,0,,,,,0,,,77,0
216779,note_on,,,,,1,0,0,,,,,0,,,78,127
216837,note_on,,,,,58,0,0,,,,,0,,,78,0
216839,note_on,,,,,2,0,0,,,,,0,,,77,127
216841,note_on,,,,,481,0,1,,,,,0,,,74,0
216897,note_on,,,,,58,0,0,,,,,0,,,77,0
216900,note_on,,,,,3,0,0,,,,,0,,,78,127
216958,note_on,,,,,58,0,0,,,,,0,,,78,0
216959,note_on,,,,,1,0,0,,,,,0,,,77,127
217017,note_on,,,,,58,0,0,,,,,0,,,77,0
217019,note_on,,,,,2,0,0,,,,,0,,,78,127
217077,note_on,,,,,58,0,0,,,,,0,,,78,0
217080,note_on,,,,,3,0,0,,,,,0,,,76,127
217080,note_on,,,,,239,0,1,,,,,0,,,73,127
217109,note_on,,,,,29,0,0,,,,,0,,,76,0
217110,note_on,,,,,1,0,0,,,,,0,,,77,127
217139,note_on,,,,,29,0,0,,,,,0,,,77,0
217140,note_on,,,,,1,0,0,,,,,0,,,80,127
217199,note_on,,,,,59,0,0,,,,,0,,,80,0
217200,note_on,,,,,1,0,0,,,,,0,,,83,127
217259,note_on,,,,,59,0,0,,,,,0,,,83,0
217260,note_on,,,,,1,0,0,,,,,0,,,85,127
217319,note_on,,,,,0,0,1,,,,,0,,,68,0
217319,note_on,,,,,0,0,1,,,,,0,,,71,0
217319,note_on,,,,,0,0,1,,,,,0,,,73,0
217319,note_on,,,,,239,0,1,,,,,0,,,61,0
217319,note_on,,,,,59,0,0,,,,,0,,,85,0
217320,note_on,,,,,1,0,1,,,,,0,,,67,127
217320,note_on,,,,,1,0,0,,,,,0,,,89,127
217379,note_on,,,,,59,0,0,,,,,0,,,89,0
217380,note_on,,,,,1,0,0,,,,,0,,,92,127
217439,note_on,,,,,59,0,0,,,,,0,,,92,0
217440,note_on,,,,,1,0,0,,,,,0,,,95,127
217499,note_on,,,,,59,0,0,,,,,0,,,95,0
217500,note_on,,,,,1,0,0,,,,,0,,,98,127
217559,note_on,,,,,239,0,1,,,,,0,,,67,0
217559,note_on,,,,,59,0,0,,,,,0,,,98,0
217560,note_on,,,,,1,0,0,,,,,0,,,97,127
217560,note_on,,,,,1,0,1,,,,,0,,,68,127
217619,note_on,,,,,59,0,0,,,,,0,,,97,0
217620,note_on,,,,,1,0,0,,,,,0,,,95,127
217679,note_on,,,,,59,0,0,,,,,0,,,95,0
217680,note_on,,,,,1,0,0,,,,,0,,,92,127
217739,note_on,,,,,59,0,0,,,,,0,,,92,0
217740,note_on,,,,,1,0,0,,,,,0,,,89,127
217787,note_on,,,,,227,0,1,,,,,0,,,68,0
217799,note_on,,,,,59,0,0,,,,,0,,,89,0
217800,note_on,,,,,1,0,0,,,,,0,,,85,127
217879,note_on,,,,,79,0,0,,,,,0,,,85,0
217880,note_on,,,,,1,0,0,,,,,0,,,83,127
217959,note_on,,,,,79,0,0,,,,,0,,,83,0
217960,note_on,,,,,1,0,0,,,,,0,,,80,127
218039,note_on,,,,,79,0,0,,,,,0,,,80,0
218040,note_on,,,,,1,0,0,,,,,0,,,77,127
218119,note_on,,,,,79,0,0,,,,,0,,,77,0
218120,note_on,,,,,1,0,0,,,,,0,,,74,127
218199,note_on,,,,,79,0,0,,,,,0,,,74,0
218200,note_on,,,,,1,0,0,,,,,0,,,73,127
218275,note_on,,,,,75,0,0,,,,,0,,,73,0
218280,note_on,,,,,0,0,1,,,,,0,,,66,127
218280,note_on,,,,,5,0,0,,,,,0,,,78,127
218280,note_on,,,,,493,0,1,,,,,0,,,73,127
218280,note_on,,,,,0,0,1,,,,,0,,,70,127
218339,note_on,,,,,59,0,0,,,,,0,,,78,0
218340,note_on,,,,,1,0,0,,,,,0,,,80,127
218399,note_on,,,,,59,0,0,,,,,0,,,80,0
218400,note_on,,,,,1,0,0,,,,,0,,,78,127
218459,note_on,,,,,59,0,0,,,,,0,,,78,0
218460,note_on,,,,,1,0,0,,,,,0,,,80,127
218519,note_on,,,,,59,0,0,,,,,0,,,80,0
218520,note_on,,,,,1,0,0,,,,,0,,,78,127
218579,note_on,,,,,59,0,0,,,,,0,,,78,0
218580,note_on,,,,,1,0,0,,,,,0,,,80,127
218639,note_on,,,,,59,0,0,,,,,0,,,80,0
218640,note_on,,,,,1,0,0,,,,,0,,,78,127
218699,note_on,,,,,59,0,0,,,,,0,,,78,0
218700,note_on,,,,,1,0,0,,,,,0,,,80,127
218735,note_on,,,,,455,0,1,,,,,0,,,73,0
218735,note_on,,,,,0,0,1,,,,,0,,,70,0
218735,note_on,,,,,0,0,1,,,,,0,,,66,0
218759,note_on,,,,,59,0,0,,,,,0,,,80,0
218760,note_on,,,,,0,0,0,,,,,0,,,77,127
218760,set_tempo,,,,,1,1,0,,250000,,,,,,,
218873,note_on,,,,,113,0,0,,,,,0,,,77,0
218880,note_on,,,,,7,0,0,,,,,0,,,78,127
218993,note_on,,,,,113,0,0,,,,,0,,,78,0
219000,note_on,,,,,0,0,1,,,,,0,,,71,127
219000,note_on,,,,,0,0,1,,,,,0,,,65,127
219000,note_on,,,,,0,0,0,,,,,0,,,79,127
219000,note_on,,,,,265,0,1,,,,,0,,,74,127
219000,set_tempo,,,,,7,1,0,,666667,,,,,,,
219059,note_on,,,,,59,0,0,,,,,0,,,79,0
219060,note_on,,,,,1,0,0,,,,,0,,,80,127
219119,note_on,,,,,59,0,0,,,,,0,,,80,0
219120,note_on,,,,,1,0,0,,,,,0,,,79,127
219179,note_on,,,,,59,0,0,,,,,0,,,79,0
219180,note_on,,,,,1,0,0,,,,,0,,,80,127
219239,note_on,,,,,59,0,0,,,,,0,,,80,0
219240,note_on,,,,,1,0,0,,,,,0,,,79,127
219299,note_on,,,,,59,0,0,,,,,0,,,79,0
219300,note_on,,,,,1,0,0,,,,,0,,,80,127
219359,note_on,,,,,59,0,0,,,,,0,,,80,0
219360,note_on,,,,,1,0,0,,,,,0,,,79,127
219419,note_on,,,,,59,0,0,,,,,0,,,79,0
219420,note_on,,,,,1,0,0,,,,,0,,,80,127
219455,note_on,,,,,0,0,1,,,,,0,,,65,0
219455,note_on,,,,,455,0,1,,,,,0,,,74,0
219455,note_on,,,,,0,0,1,,,,,0,,,71,0
219479,note_on,,,,,59,0,0,,,,,0,,,80,0
219480,set_tempo,,,,,1,1,0,,250000,,,,,,,
219480,note_on,,,,,0,0,0,,,,,0,,,78,127
219593,note_on,,,,,113,0,0,,,,,0,,,78,0
219600,note_on,,,,,7,0,0,,,,,0,,,79,127
219713,note_on,,,,,113,0,0,,,,,0,,,79,0
219720,note_on,,,,,265,0,1,,,,,0,,,77,127
219720,set_tempo,,,,,7,1,0,,666667,,,,,,,
219720,note_on,,,,,0,0,0,,,,,0,,,80,127
219720,note_on,,,,,0,0,1,,,,,0,,,64,127
219783,note_on,,,,,63,0,1,,,,,0,,,71,127
219799,note_on,,,,,79,0,0,,,,,0,,,80,0
219800,note_on,,,,,1,0,0,,,,,0,,,81,127
219847,note_on,,,,,64,0,1,,,,,0,,,74,127
219879,note_on,,,,,79,0,0,,,,,0,,,81,0
219880,note_on,,,,,1,0,0,,,,,0,,,80,127
219959,note_on,,,,,79,0,0,,,,,0,,,80,0
219960,note_on,,,,,1,0,0,,,,,0,,,79,127
220039,note_on,,,,,79,0,0,,,,,0,,,79,0
220040,note_on,,,,,1,0,0,,,,,0,,,80,127
220119,note_on,,,,,79,0,0,,,,,0,,,80,0
220120,note_on,,,,,1,0,0,,,,,0,,,83,127
220199,note_on,,,,,79,0,0,,,,,0,,,83,0
220200,note_on,,,,,1,0,0,,,,,0,,,86,127
220201,note_on,,,,,354,0,1,,,,,0,,,77,0
220268,note_on,,,,,68,0,0,,,,,0,,,86,0
220269,note_on,,,,,1,0,0,,,,,0,,,89,127
220337,note_on,,,,,68,0,0,,,,,0,,,89,0
220338,note_on,,,,,1,0,0,,,,,0,,,92,127
220406,note_on,,,,,68,0,0,,,,,0,,,92,0
220407,note_on,,,,,1,0,0,,,,,0,,,95,127
220440,note_on,,,,,239,0,1,,,,,0,,,76,127
220475,note_on,,,,,68,0,0,,,,,0,,,95,0
220476,note_on,,,,,1,0,0,,,,,0,,,98,127
220544,note_on,,,,,68,0,0,,,,,0,,,98,0
220545,note_on,,,,,1,0,0,,,,,0,,,101,127
220613,note_on,,,,,68,0,0,,,,,0,,,101,0
220614,note_on,,,,,1,0,0,,,,,0,,,100,127
220678,note_on,,,,,0,0,1,,,,,0,,,74,0
220678,note_on,,,,,238,0,1,,,,,0,,,71,0
220679,note_on,,,,,0,0,1,,,,,0,,,76,0
220679,note_on,,,,,1,0,1,,,,,0,,,64,0
220680,note_on,,,,,1,0,1,,,,,0,,,70,127
220680,note_on,,,,,66,0,0,,,,,0,,,98,127
220682,note_on,,,,,2,0,0,,,,,0,,,100,0
220748,note_on,,,,,66,0,0,,,,,0,,,98,0
220749,note_on,,,,,1,0,0,,,,,0,,,95,127
220817,note_on,,,,,68,0,0,,,,,0,,,95,0
220818,note_on,,,,,1,0,0,,,,,0,,,92,127
220886,note_on,,,,,68,0,0,,,,,0,,,92,0
220887,note_on,,,,,1,0,0,,,,,0,,,88,127
220919,note_on,,,,,239,0,1,,,,,0,,,70,0
220920,note_on,,,,,1,0,1,,,,,0,,,71,127
220955,note_on,,,,,68,0,0,,,,,0,,,88,0
220956,note_on,,,,,1,0,0,,,,,0,,,86,127
221024,note_on,,,,,68,0,0,,,,,0,,,86,0
221025,note_on,,,,,1,0,0,,,,,0,,,83,127
221093,note_on,,,,,68,0,0,,,,,0,,,83,0
221094,note_on,,,,,1,0,0,,,,,0,,,80,127
221158,note_on,,,,,64,0,0,,,,,0,,,80,0
221159,note_on,,,,,239,0,1,,,,,0,,,71,0
221160,note_on,,,,,1,0,1,,,,,0,,,76,127
221160,note_on,,,,,0,0,0,,,,,0,,,79,127
221160,time_signature,6,4,24,8,2,1,0,,,,,,,,,
221160,note_on,,,,,0,0,1,,,,,0,,,64,127
221160,note_on,,,,,0,0,1,,,,,0,,,70,127
221160,note_on,,,,,0,0,1,,,,,0,,,73,127
221219,note_on,,,,,59,0,0,,,,,0,,,79,0
221220,note_on,,,,,1,0,0,,,,,0,,,80,127
221279,note_on,,,,,59,0,0,,,,,0,,,80,0
221280,note_on,,,,,1,0,0,,,,,0,,,79,127
221339,note_on,,,,,59,0,0,,,,,0,,,79,0
221340,note_on,,,,,1,0,0,,,,,0,,,78,127
221399,note_on,,,,,59,0,0,,,,,0,,,78,0
221400,note_on,,,,,1,0,0,,,,,0,,,79,127
221479,note_on,,,,,79,0,0,,,,,0,,,79,0
221480,note_on,,,,,1,0,0,,,,,0,,,82,127
221559,note_on,,,,,79,0,0,,,,,0,,,82,0
221560,note_on,,,,,1,0,0,,,,,0,,,85,127
221639,note_on,,,,,479,0,1,,,,,0,,,64,0
221639,note_on,,,,,79,0,0,,,,,0,,,85,0
221640,note_on,,,,,1,0,0,,,,,0,,,88,127
221640,note_on,,,,,1,0,1,,,,,0,,,63,127
221641,note_on,,,,,1,0,1,,,,,0,,,76,0
221719,note_on,,,,,79,0,0,,,,,0,,,88,0
221720,note_on,,,,,1,0,0,,,,,0,,,91,127
221799,note_on,,,,,79,0,0,,,,,0,,,91,0
221800,note_on,,,,,1,0,0,,,,,0,,,94,126
221879,note_on,,,,,79,0,0,,,,,0,,,94,0
221880,note_on,,,,,1,0,0,,,,,0,,,97,126
221880,note_on,,,,,239,0,1,,,,,0,,,75,126
221939,note_on,,,,,59,0,0,,,,,0,,,97,0
221940,note_on,,,,,1,0,0,,,,,0,,,100,126
221999,note_on,,,,,59,0,0,,,,,0,,,100,0
222000,note_on,,,,,1,0,0,,,,,0,,,99,126
222059,note_on,,,,,59,0,0,,,,,0,,,99,0
222060,note_on,,,,,1,0,0,,,,,0,,,97,126
222119,note_on,,,,,0,0,1,,,,,0,,,75,0
222119,note_on,,,,,0,0,1,,,,,0,,,73,0
222119,note_on,,,,,59,0,0,,,,,0,,,97,0
222119,note_on,,,,,239,0,1,,,,,0,,,70,0
222120,note_on,,,,,1,0,1,,,,,0,,,69,126
222120,note_on,,,,,1,0,0,,,,,0,,,94,126
222199,note_on,,,,,79,0,0,,,,,0,,,94,0
222200,note_on,,,,,1,0,0,,,,,0,,,91,125
222279,note_on,,,,,79,0,0,,,,,0,,,91,0
222280,note_on,,,,,1,0,0,,,,,0,,,87,125
222359,note_on,,,,,79,0,0,,,,,0,,,87,0
222359,note_on,,,,,239,0,1,,,,,0,,,69,0
222360,note_on,,,,,1,0,1,,,,,0,,,70,125
222360,note_on,,,,,1,0,0,,,,,0,,,85,125
222439,note_on,,,,,79,0,0,,,,,0,,,85,0
222440,note_on,,,,,1,0,0,,,,,0,,,82,125
222519,note_on,,,,,79,0,0,,,,,0,,,82,0
222520,note_on,,,,,1,0,0,,,,,0,,,79,124
222595,note_on,,,,,75,0,0,,,,,0,,,79,0
222599,note_on,,,,,239,0,1,,,,,0,,,63,0
222599,note_on,,,,,0,0,1,,,,,0,,,70,0
222600,note_on,,,,,0,0,1,,,,,0,,,63,124
222600,note_on,,,,,0,0,1,,,,,0,,,69,124
222600,note_on,,,,,1,0,1,,,,,0,,,75,127
222600,note_on,,,,,0,0,1,,,,,0,,,72,124
222600,note_on,,,,,5,0,0,,,,,0,,,78,124
222659,note_on,,,,,59,0,0,,,,,0,,,78,0
222660,note_on,,,,,1,0,0,,,,,0,,,79,124
222719,note_on,,,,,59,0,0,,,,,0,,,79,0
222720,note_on,,,,,1,0,0,,,,,0,,,78,124
222779,note_on,,,,,59,0,0,,,,,0,,,78,0
222780,note_on,,,,,1,0,0,,,,,0,,,77,124
222839,note_on,,,,,59,0,0,,,,,0,,,77,0
222840,note_on,,,,,1,0,0,,,,,0,,,78,124
222919,note_on,,,,,79,0,0,,,,,0,,,78,0
222920,note_on,,,,,1,0,0,,,,,0,,,81,123
222999,note_on,,,,,79,0,0,,,,,0,,,81,0
223000,note_on,,,,,1,0,0,,,,,0,,,84,123
223079,note_on,,,,,479,0,1,,,,,0,,,63,0
223079,note_on,,,,,79,0,0,,,,,0,,,84,0
223080,note_on,,,,,1,0,0,,,,,0,,,87,123
223080,note_on,,,,,1,0,1,,,,,0,,,62,123
223081,note_on,,,,,1,0,1,,,,,0,,,75,0
223159,note_on,,,,,79,0,0,,,,,0,,,87,0
223160,note_on,,,,,1,0,0,,,,,0,,,90,123
223239,note_on,,,,,79,0,0,,,,,0,,,90,0
223240,note_on,,,,,1,0,0,,,,,0,,,93,122
223319,note_on,,,,,79,0,0,,,,,0,,,93,0
223320,note_on,,,,,239,0,1,,,,,0,,,74,122
223320,note_on,,,,,1,0,0,,,,,0,,,96,122
223379,note_on,,,,,59,0,0,,,,,0,,,96,0
223380,note_on,,,,,1,0,0,,,,,0,,,99,122
223439,note_on,,,,,59,0,0,,,,,0,,,99,0
223440,note_on,,,,,1,0,0,,,,,0,,,98,122
223499,note_on,,,,,59,0,0,,,,,0,,,98,0
223500,note_on,,,,,1,0,0,,,,,0,,,96,122
223559,note_on,,,,,59,0,0,,,,,0,,,96,0
223559,note_on,,,,,0,0,1,,,,,0,,,72,0
223559,note_on,,,,,0,0,1,,,,,0,,,74,0
223559,note_on,,,,,239,0,1,,,,,0,,,69,0
223560,note_on,,,,,1,0,0,,,,,0,,,93,122
223560,note_on,,,,,1,0,1,,,,,0,,,68,122
223639,note_on,,,,,79,0,0,,,,,0,,,93,0
223640,note_on,,,,,1,0,0,,,,,0,,,90,121
223719,note_on,,,,,79,0,0,,,,,0,,,90,0
223720,note_on,,,,,1,0,0,,,,,0,,,86,121
223799,note_on,,,,,239,0,1,,,,,0,,,68,0
223799,note_on,,,,,79,0,0,,,,,0,,,86,0
223800,note_on,,,,,1,0,0,,,,,0,,,84,121
223800,note_on,,,,,1,0,1,,,,,0,,,69,121
223879,note_on,,,,,79,0,0,,,,,0,,,84,0
223880,note_on,,,,,1,0,0,,,,,0,,,81,121
223959,note_on,,,,,79,0,0,,,,,0,,,81,0
223960,note_on,,,,,1,0,0,,,,,0,,,78,121
224035,note_on,,,,,75,0,0,,,,,0,,,78,0
224039,note_on,,,,,0,0,1,,,,,0,,,69,0
224039,note_on,,,,,239,0,1,,,,,0,,,62,0
224040,note_on,,,,,1,0,1,,,,,0,,,74,120
224040,note_on,,,,,5,0,0,,,,,0,,,77,120
224040,note_on,,,,,0,0,1,,,,,0,,,71,120
224040,note_on,,,,,0,0,1,,,,,0,,,68,120
224040,note_on,,,,,0,0,1,,,,,0,,,61,120
224099,note_on,,,,,59,0,0,,,,,0,,,77,0
224100,note_on,,,,,1,0,0,,,,,0,,,78,120
224159,note_on,,,,,59,0,0,,,,,0,,,78,0
224160,note_on,,,,,1,0,0,,,,,0,,,77,120
224219,note_on,,,,,59,0,0,,,,,0,,,77,0
224220,note_on,,,,,1,0,0,,,,,0,,,76,120
224279,note_on,,,,,59,0,0,,,,,0,,,76,0
224280,note_on,,,,,1,0,0,,,,,0,,,77,120
224359,note_on,,,,,79,0,0,,,,,0,,,77,0
224360,note_on,,,,,1,0,0,,,,,0,,,80,119
224439,note_on,,,,,79,0,0,,,,,0,,,80,0
224440,note_on,,,,,1,0,0,,,,,0,,,83,119
224519,note_on,,,,,479,0,1,,,,,0,,,61,0
224519,note_on,,,,,79,0,0,,,,,0,,,83,0
224520,note_on,,,,,1,0,1,,,,,0,,,61,119
224520,note_on,,,,,1,0,0,,,,,0,,,86,119
224599,note_on,,,,,79,0,0,,,,,0,,,86,0
224600,note_on,,,,,1,0,0,,,,,0,,,89,119
224679,note_on,,,,,79,0,0,,,,,0,,,89,0
224680,note_on,,,,,1,0,0,,,,,0,,,92,119
224759,note_on,,,,,239,0,1,,,,,0,,,74,0
224759,note_on,,,,,79,0,0,,,,,0,,,92,0
224760,note_on,,,,,1,0,1,,,,,0,,,73,118
224760,note_on,,,,,1,0,0,,,,,0,,,95,118
224819,note_on,,,,,59,0,0,,,,,0,,,95,0
224820,note_on,,,,,1,0,0,,,,,0,,,98,118
224879,note_on,,,,,59,0,0,,,,,0,,,98,0
224880,note_on,,,,,1,0,0,,,,,0,,,97,118
224939,note_on,,,,,59,0,0,,,,,0,,,97,0
224940,note_on,,,,,1,0,0,,,,,0,,,95,118
224999,note_on,,,,,59,0,0,,,,,0,,,95,0
224999,note_on,,,,,0,0,1,,,,,0,,,73,0
224999,note_on,,,,,239,0,1,,,,,0,,,68,0
224999,note_on,,,,,0,0,1,,,,,0,,,71,0
225000,note_on,,,,,1,0,0,,,,,0,,,92,118
225000,note_on,,,,,1,0,1,,,,,0,,,67,118
225079,note_on,,,,,79,0,0,,,,,0,,,92,0
225080,note_on,,,,,1,0,0,,,,,0,,,89,117
225159,note_on,,,,,79,0,0,,,,,0,,,89,0
225160,note_on,,,,,1,0,0,,,,,0,,,85,117
225239,note_on,,,,,79,0,0,,,,,0,,,85,0
225239,note_on,,,,,239,0,1,,,,,0,,,67,0
225240,note_on,,,,,1,0,1,,,,,0,,,68,117
225240,note_on,,,,,1,0,0,,,,,0,,,83,117
225319,note_on,,,,,79,0,0,,,,,0,,,83,0
225320,note_on,,,,,1,0,0,,,,,0,,,80,117
225399,note_on,,,,,79,0,0,,,,,0,,,80,0
225400,note_on,,,,,1,0,0,,,,,0,,,77,117
225475,note_on,,,,,75,0,0,,,,,0,,,77,0
225479,note_on,,,,,239,0,1,,,,,0,,,61,0
225479,note_on,,,,,0,0,1,,,,,0,,,68,0
225480,note_on,,,,,0,0,1,,,,,0,,,61,116
225480,note_on,,,,,5,0,0,,,,,0,,,76,116
225480,note_on,,,,,0,0,1,,,,,0,,,67,116
225480,note_on,,,,,0,0,1,,,,,0,,,70,116
225480,note_on,,,,,1,0,1,,,,,0,,,73,116
225559,note_on,,,,,79,0,0,,,,,0,,,76,0
225560,note_on,,,,,1,0,0,,,,,0,,,77,116
225639,note_on,,,,,79,0,0,,,,,0,,,77,0
225640,note_on,,,,,1,0,0,,,,,0,,,76,116
225719,note_on,,,,,79,0,0,,,,,0,,,76,0
225720,note_on,,,,,1,0,0,,,,,0,,,75,116
225799,note_on,,,,,79,0,0,,,,,0,,,75,0
225800,note_on,,,,,1,0,0,,,,,0,,,76,116
225879,note_on,,,,,79,0,0,,,,,0,,,76,0
225880,note_on,,,,,1,0,0,,,,,0,,,79,115
225959,note_on,,,,,479,0,1,,,,,0,,,61,0
225959,note_on,,,,,79,0,0,,,,,0,,,79,0
225960,note_on,,,,,1,0,1,,,,,0,,,60,115
225960,note_on,,,,,1,0,0,,,,,0,,,82,115
226039,note_on,,,,,79,0,0,,,,,0,,,82,0
226040,note_on,,,,,1,0,0,,,,,0,,,85,115
226119,note_on,,,,,79,0,0,,,,,0,,,85,0
226120,note_on,,,,,1,0,0,,,,,0,,,88,115
226199,note_on,,,,,239,0,1,,,,,0,,,73,0
226199,note_on,,,,,79,0,0,,,,,0,,,88,0
226200,note_on,,,,,1,0,1,,,,,0,,,72,114
226200,note_on,,,,,1,0,0,,,,,0,,,91,114
226259,note_on,,,,,59,0,0,,,,,0,,,91,0
226260,note_on,,,,,1,0,0,,,,,0,,,94,114
226319,note_on,,,,,59,0,0,,,,,0,,,94,0
226320,note_on,,,,,1,0,0,,,,,0,,,97,114
226379,note_on,,,,,59,0,0,,,,,0,,,97,0
226380,note_on,,,,,1,0,0,,,,,0,,,96,114
226439,note_on,,,,,0,0,1,,,,,0,,,72,0
226439,note_on,,,,,0,0,1,,,,,0,,,70,0
226439,note_on,,,,,239,0,1,,,,,0,,,67,0
226439,note_on,,,,,59,0,0,,,,,0,,,96,0
226440,note_on,,,,,1,0,0,,,,,0,,,94,114
226440,note_on,,,,,1,0,1,,,,,0,,,66,114
226519,note_on,,,,,79,0,0,,,,,0,,,94,0
226520,note_on,,,,,1,0,0,,,,,0,,,91,114
226599,note_on,,,,,79,0,0,,,,,0,,,91,0
226600,note_on,,,,,1,0,0,,,,,0,,,88,113
226679,note_on,,,,,239,0,1,,,,,0,,,66,0
226679,note_on,,,,,79,0,0,,,,,0,,,88,0
226680,note_on,,,,,1,0,0,,,,,0,,,84,113
226680,note_on,,,,,1,0,1,,,,,0,,,67,113
226759,note_on,,,,,79,0,0,,,,,0,,,84,0
226760,note_on,,,,,1,0,0,,,,,0,,,82,113
226839,note_on,,,,,79,0,0,,,,,0,,,82,0
226840,note_on,,,,,1,0,0,,,,,0,,,79,113
226907,note_on,,,,,227,0,1,,,,,0,,,67,0
226915,note_on,,,,,75,0,0,,,,,0,,,79,0
226919,note_on,,,,,12,0,1,,,,,0,,,60,0
226920,note_on,,,,,5,0,0,,,,,0,,,76,112
226976,note_on,,,,,56,0,0,,,,,0,,,76,0
226980,note_on,,,,,4,0,0,,,,,0,,,77,112
227036,note_on,,,,,56,0,0,,,,,0,,,77,0
227040,note_on,,,,,4,0,0,,,,,0,,,76,112
227096,note_on,,,,,56,0,0,,,,,0,,,76,0
227100,note_on,,,,,4,0,0,,,,,0,,,75,112
227156,note_on,,,,,56,0,0,,,,,0,,,75,0
227160,note_on,,,,,4,0,0,,,,,0,,,76,112
227235,note_on,,,,,75,0,0,,,,,0,,,76,0
227240,note_on,,,,,5,0,0,,,,,0,,,79,112
227315,note_on,,,,,75,0,0,,,,,0,,,79,0
227320,note_on,,,,,5,0,0,,,,,0,,,82,112
227395,note_on,,,,,75,0,0,,,,,0,,,82,0
227400,note_on,,,,,5,0,0,,,,,0,,,85,112
227475,note_on,,,,,75,0,0,,,,,0,,,85,0
227480,note_on,,,,,5,0,0,,,,,0,,,88,112
227555,note_on,,,,,75,0,0,,,,,0,,,88,0
227560,note_on,,,,,5,0,0,,,,,0,,,91,112
227635,note_on,,,,,75,0,0,,,,,0,,,91,0
227640,note_on,,,,,5,0,0,,,,,0,,,94,112
227696,note_on,,,,,56,0,0,,,,,0,,,94,0
227700,note_on,,,,,4,0,0,,,,,0,,,97,112
227756,note_on,,,,,56,0,0,,,,,0,,,97,0
227760,note_on,,,,,4,0,0,,,,,0,,,96,112
227816,note_on,,,,,56,0,0,,,,,0,,,96,0
227820,note_on,,,,,4,0,0,,,,,0,,,94,112
227876,note_on,,,,,56,0,0,,,,,0,,,94,0
227880,note_on,,,,,4,0,0,,,,,0,,,91,112
227955,note_on,,,,,75,0,0,,,,,0,,,91,0
227960,note_on,,,,,5,0,0,,,,,0,,,88,112
228035,note_on,,,,,75,0,0,,,,,0,,,88,0
228040,note_on,,,,,5,0,0,,,,,0,,,85,112
228115,note_on,,,,,75,0,0,,,,,0,,,85,0
228120,note_on,,,,,5,0,0,,,,,0,,,82,112
228195,note_on,,,,,75,0,0,,,,,0,,,82,0
228200,note_on,,,,,5,0,0,,,,,0,,,79,112
228275,note_on,,,,,75,0,0,,,,,0,,,79,0
228280,note_on,,,,,5,0,0,,,,,0,,,76,112
228355,note_on,,,,,75,0,0,,,,,0,,,76,0
228360,note_on,,,,,0,0,1,,,,,0,,,58,112
228360,note_on,,,,,5,0,0,,,,,0,,,73,112
228360,note_on,,,,,1441,0,1,,,,,0,,,68,112
228360,note_on,,,,,0,0,1,,,,,0,,,64,112
228360,note_on,,,,,0,0,1,,,,,0,,,61,112
228416,note_on,,,,,56,0,0,,,,,0,,,73,0
228420,note_on,,,,,4,0,0,,,,,0,,,75,112
228476,note_on,,,,,56,0,0,,,,,0,,,75,0
228480,note_on,,,,,4,0,0,,,,,0,,,73,112
228536,note_on,,,,,56,0,0,,,,,0,,,73,0
228540,note_on,,,,,4,0,0,,,,,0,,,72,112
228596,note_on,,,,,56,0,0,,,,,0,,,72,0
228600,note_on,,,,,4,0,0,,,,,0,,,73,112
228675,note_on,,,,,75,0,0,,,,,0,,,73,0
228680,note_on,,,,,5,0,0,,,,,0,,,76,112
228755,note_on,,,,,75,0,0,,,,,0,,,76,0
228760,note_on,,,,,5,0,0,,,,,0,,,79,112
228835,note_on,,,,,75,0,0,,,,,0,,,79,0
228840,note_on,,,,,480,0,1,,,,,0,,,51,112
228840,note_on,,,,,5,0,0,,,,,0,,,82,112
228915,note_on,,,,,75,0,0,,,,,0,,,82,0
228920,note_on,,,,,5,0,0,,,,,0,,,85,112
228995,note_on,,,,,75,0,0,,,,,0,,,85,0
229000,note_on,,,,,5,0,0,,,,,0,,,88,112
229075,note_on,,,,,75,0,0,,,,,0,,,88,0
229079,note_on,,,,,239,0,1,,,,,0,,,68,0
229080,note_on,,,,,1,0,1,,,,,0,,,67,112
229080,note_on,,,,,5,0,0,,,,,0,,,91,112
229136,note_on,,,,,56,0,0,,,,,0,,,91,0
229140,note_on,,,,,4,0,0,,,,,0,,,96,112
229196,note_on,,,,,56,0,0,,,,,0,,,96,0
229200,note_on,,,,,4,0,0,,,,,0,,,94,112
229256,note_on,,,,,56,0,0,,,,,0,,,94,0
229260,note_on,,,,,4,0,0,,,,,0,,,91,112
229316,note_on,,,,,56,0,0,,,,,0,,,91,0
229319,note_on,,,,,239,0,1,,,,,0,,,58,0
229319,note_on,,,,,0,0,1,,,,,0,,,67,0
229319,note_on,,,,,0,0,1,,,,,0,,,64,0
229319,note_on,,,,,0,0,1,,,,,0,,,61,0
229320,note_on,,,,,4,0,0,,,,,0,,,88,112
229320,note_on,,,,,1,0,1,,,,,0,,,60,112
229395,note_on,,,,,75,0,0,,,,,0,,,88,0
229400,note_on,,,,,5,0,0,,,,,0,,,85,112
229475,note_on,,,,,75,0,0,,,,,0,,,85,0
229480,note_on,,,,,5,0,0,,,,,0,,,82,112
229555,note_on,,,,,75,0,0,,,,,0,,,82,0
229559,note_on,,,,,239,0,1,,,,,0,,,60,0
229560,note_on,,,,,1,0,1,,,,,0,,,61,112
229560,note_on,,,,,5,0,0,,,,,0,,,79,112
229635,note_on,,,,,75,0,0,,,,,0,,,79,0
229640,note_on,,,,,5,0,0,,,,,0,,,76,112
229715,note_on,,,,,75,0,0,,,,,0,,,76,0
229720,note_on,,,,,5,0,0,,,,,0,,,73,112
229787,note_on,,,,,227,0,1,,,,,0,,,61,0
229795,note_on,,,,,75,0,0,,,,,0,,,73,0
229799,note_on,,,,,12,0,1,,,,,0,,,51,0
229800,note_on,,,,,5,0,0,,,,,0,,,70,112
229856,note_on,,,,,56,0,0,,,,,0,,,70,0
229860,note_on,,,,,4,0,0,,,,,0,,,72,112
229916,note_on,,,,,56,0,0,,,,,0,,,72,0
229920,note_on,,,,,4,0,0,,,,,0,,,70,112
229976,note_on,,,,,56,0,0,,,,,0,,,70,0
229980,note_on,,,,,4,0,0,,,,,0,,,69,112
230036,note_on,,,,,56,0,0,,,,,0,,,69,0
230040,note_on,,,,,4,0,0,,,,,0,,,70,112
230115,note_on,,,,,75,0,0,,,,,0,,,70,0
230120,note_on,,,,,5,0,0,,,,,0,,,73,112
230195,note_on,,,,,75,0,0,,,,,0,,,73,0
230200,note_on,,,,,5,0,0,,,,,0,,,76,112
230275,note_on,,,,,75,0,0,,,,,0,,,76,0
230280,note_on,,,,,5,0,0,,,,,0,,,79,112
230355,note_on,,,,,75,0,0,,,,,0,,,79,0
230360,note_on,,,,,5,0,0,,,,,0,,,82,112
230435,note_on,,,,,75,0,0,,,,,0,,,82,0
230440,note_on,,,,,5,0,0,,,,,0,,,85,112
230515,note_on,,,,,75,0,0,,,,,0,,,85,0
230520,note_on,,,,,5,0,0,,,,,0,,,88,112
230576,note_on,,,,,56,0,0,,,,,0,,,88,0
230580,note_on,,,,,4,0,0,,,,,0,,,92,112
230636,note_on,,,,,56,0,0,,,,,0,,,92,0
230640,note_on,,,,,4,0,0,,,,,0,,,91,112
230696,note_on,,,,,56,0,0,,,,,0,,,91,0
230700,note_on,,,,,4,0,0,,,,,0,,,88,112
230756,note_on,,,,,56,0,0,,,,,0,,,88,0
230760,note_on,,,,,4,0,0,,,,,0,,,85,112
230835,note_on,,,,,75,0,0,,,,,0,,,85,0
230840,note_on,,,,,5,0,0,,,,,0,,,82,112
230915,note_on,,,,,75,0,0,,,,,0,,,82,0
230920,note_on,,,,,5,0,0,,,,,0,,,79,112
230995,note_on,,,,,75,0,0,,,,,0,,,79,0
231000,note_on,,,,,5,0,0,,,,,0,,,76,112
231075,note_on,,,,,75,0,0,,,,,0,,,76,0
231080,note_on,,,,,5,0,0,,,,,0,,,73,112
231155,note_on,,,,,75,0,0,,,,,0,,,73,0
231160,note_on,,,,,5,0,0,,,,,0,,,70,112
231235,note_on,,,,,75,0,0,,,,,0,,,70,0
231240,note_on,,,,,5,0,0,,,,,0,,,67,112
231296,note_on,,,,,56,0,0,,,,,0,,,67,0
231300,note_on,,,,,4,0,0,,,,,0,,,68,112
231356,note_on,,,,,56,0,0,,,,,0,,,68,0
231360,note_on,,,,,4,0,0,,,,,0,,,67,112
231416,note_on,,,,,56,0,0,,,,,0,,,67,0
231420,note_on,,,,,4,0,0,,,,,0,,,66,112
231476,note_on,,,,,56,0,0,,,,,0,,,66,0
231480,note_on,,,,,4,0,0,,,,,0,,,67,112
231555,note_on,,,,,75,0,0,,,,,0,,,67,0
231560,note_on,,,,,5,0,0,,,,,0,,,70,112
231635,note_on,,,,,75,0,0,,,,,0,,,70,0
231640,note_on,,,,,5,0,0,,,,,0,,,73,112
231715,note_on,,,,,75,0,0,,,,,0,,,73,0
231720,note_on,,,,,5,0,0,,,,,0,,,76,112
231795,note_on,,,,,75,0,0,,,,,0,,,76,0
231800,note_on,,,,,5,0,0,,,,,0,,,79,112
231875,note_on,,,,,75,0,0,,,,,0,,,79,0
231880,note_on,,,,,5,0,0,,,,,0,,,82,112
231955,note_on,,,,,75,0,0,,,,,0,,,82,0
231960,note_on,,,,,5,0,0,,,,,0,,,85,112
232016,note_on,,,,,56,0,0,,,,,0,,,85,0
232020,note_on,,,,,4,0,0,,,,,0,,,90,112
232076,note_on,,,,,56,0,0,,,,,0,,,90,0
232080,note_on,,,,,4,0,0,,,,,0,,,88,112
232136,note_on,,,,,56,0,0,,,,,0,,,88,0
232140,note_on,,,,,4,0,0,,,,,0,,,85,112
232196,note_on,,,,,56,0,0,,,,,0,,,85,0
232200,note_on,,,,,4,0,0,,,,,0,,,82,112
232275,note_on,,,,,75,0,0,,,,,0,,,82,0
232280,note_on,,,,,5,0,0,,,,,0,,,79,112
232355,note_on,,,,,75,0,0,,,,,0,,,79,0
232360,note_on,,,,,5,0,0,,,,,0,,,76,112
232435,note_on,,,,,75,0,0,,,,,0,,,76,0
232440,note_on,,,,,5,0,0,,,,,0,,,73,112
232515,note_on,,,,,75,0,0,,,,,0,,,73,0
232520,note_on,,,,,5,0,0,,,,,0,,,70,112
232595,note_on,,,,,75,0,0,,,,,0,,,70,0
232600,note_on,,,,,5,0,0,,,,,0,,,67,112
232675,note_on,,,,,75,0,0,,,,,0,,,67,0
232680,note_on,,,,,5,0,0,,,,,0,,,64,112
232736,note_on,,,,,56,0,0,,,,,0,,,64,0
232740,note_on,,,,,4,0,0,,,,,0,,,66,112
232796,note_on,,,,,56,0,0,,,,,0,,,66,0
232800,note_on,,,,,4,0,0,,,,,0,,,64,112
232856,note_on,,,,,56,0,0,,,,,0,,,64,0
232860,note_on,,,,,4,0,0,,,,,0,,,63,112
232916,note_on,,,,,56,0,0,,,,,0,,,63,0
232920,note_on,,,,,4,0,0,,,,,0,,,64,112
232995,note_on,,,,,75,0,0,,,,,0,,,64,0
233000,note_on,,,,,5,0,0,,,,,0,,,67,112
233075,note_on,,,,,75,0,0,,,,,0,,,67,0
233080,note_on,,,,,5,0,0,,,,,0,,,70,112
233155,note_on,,,,,75,0,0,,,,,0,,,70,0
233160,note_on,,,,,5,0,0,,,,,0,,,73,112
233235,note_on,,,,,75,0,0,,,,,0,,,73,0
233240,note_on,,,,,5,0,0,,,,,0,,,76,112
233315,note_on,,,,,75,0,0,,,,,0,,,76,0
233320,note_on,,,,,5,0,0,,,,,0,,,79,112
233395,note_on,,,,,75,0,0,,,,,0,,,79,0
233400,note_on,,,,,5,0,0,,,,,0,,,82,112
233456,note_on,,,,,56,0,0,,,,,0,,,82,0
233460,note_on,,,,,4,0,0,,,,,0,,,87,112
233516,note_on,,,,,56,0,0,,,,,0,,,87,0
233520,note_on,,,,,4,0,0,,,,,0,,,85,112
233576,note_on,,,,,56,0,0,,,,,0,,,85,0
233580,note_on,,,,,4,0,0,,,,,0,,,82,112
233636,note_on,,,,,56,0,0,,,,,0,,,82,0
233640,note_on,,,,,4,0,0,,,,,0,,,79,112
233715,note_on,,,,,75,0,0,,,,,0,,,79,0
233720,note_on,,,,,5,0,0,,,,,0,,,76,112
233795,note_on,,,,,75,0,0,,,,,0,,,76,0
233800,note_on,,,,,5,0,0,,,,,0,,,73,112
233875,note_on,,,,,75,0,0,,,,,0,,,73,0
233880,note_on,,,,,5,0,0,,,,,0,,,70,112
233955,note_on,,,,,75,0,0,,,,,0,,,70,0
233960,note_on,,,,,5,0,0,,,,,0,,,67,112
234035,note_on,,,,,75,0,0,,,,,0,,,67,0
234040,note_on,,,,,5,0,0,,,,,0,,,64,112
234115,note_on,,,,,75,0,0,,,,,0,,,64,0
234120,note_on,,,,,5,0,0,,,,,0,,,63,112
234176,note_on,,,,,56,0,0,,,,,0,,,63,0
234180,note_on,,,,,4,0,0,,,,,0,,,65,112
234236,note_on,,,,,56,0,0,,,,,0,,,65,0
234240,note_on,,,,,4,0,0,,,,,0,,,63,112
234296,note_on,,,,,56,0,0,,,,,0,,,63,0
234300,note_on,,,,,4,0,0,,,,,0,,,62,112
234356,note_on,,,,,56,0,0,,,,,0,,,62,0
234360,note_on,,,,,4,0,0,,,,,0,,,63,112
234416,note_on,,,,,56,0,0,,,,,0,,,63,0
234420,note_on,,,,,4,0,0,,,,,0,,,67,113
234476,note_on,,,,,56,0,0,,,,,0,,,67,0
234480,note_on,,,,,4,0,0,,,,,0,,,70,114
234536,note_on,,,,,56,0,0,,,,,0,,,70,0
234540,note_on,,,,,4,0,0,,,,,0,,,73,115
234596,note_on,,,,,56,0,0,,,,,0,,,73,0
234600,note_on,,,,,4,0,0,,,,,0,,,75,116
234656,note_on,,,,,56,0,0,,,,,0,,,75,0
234660,note_on,,,,,4,0,0,,,,,0,,,79,117
234716,note_on,,,,,56,0,0,,,,,0,,,79,0
234720,note_on,,,,,4,0,0,,,,,0,,,82,117
234776,note_on,,,,,56,0,0,,,,,0,,,82,0
234780,note_on,,,,,4,0,0,,,,,0,,,85,118
234836,note_on,,,,,56,0,0,,,,,0,,,85,0
234840,note_on,,,,,4,0,0,,,,,0,,,86,119
234896,note_on,,,,,56,0,0,,,,,0,,,86,0
234900,note_on,,,,,4,0,0,,,,,0,,,87,120
234956,note_on,,,,,56,0,0,,,,,0,,,87,0
234960,note_on,,,,,4,0,0,,,,,0,,,96,121
235016,note_on,,,,,56,0,0,,,,,0,,,96,0
235020,note_on,,,,,4,0,0,,,,,0,,,94,122
235076,note_on,,,,,56,0,0,,,,,0,,,94,0
235080,note_on,,,,,4,0,0,,,,,0,,,91,122
235129,note_on,,,,,49,0,0,,,,,0,,,91,0
235133,note_on,,,,,4,0,0,,,,,0,,,87,122
235182,note_on,,,,,49,0,0,,,,,0,,,87,0
235186,note_on,,,,,4,0,0,,,,,0,,,85,122
235235,note_on,,,,,49,0,0,,,,,0,,,85,0
235239,note_on,,,,,4,0,0,,,,,0,,,82,122
235288,note_on,,,,,49,0,0,,,,,0,,,82,0
235292,note_on,,,,,4,0,0,,,,,0,,,79,122
235341,note_on,,,,,49,0,0,,,,,0,,,79,0
235345,note_on,,,,,4,0,0,,,,,0,,,75,122
235394,note_on,,,,,49,0,0,,,,,0,,,75,0
235398,note_on,,,,,4,0,0,,,,,0,,,73,122
235447,note_on,,,,,49,0,0,,,,,0,,,73,0
235451,note_on,,,,,4,0,0,,,,,0,,,70,122
235500,note_on,,,,,49,0,0,,,,,0,,,70,0
235504,note_on,,,,,4,0,0,,,,,0,,,67,122
235553,note_on,,,,,49,0,0,,,,,0,,,67,0
235560,note_on,,,,,7,0,0,,,,,0,,,64,122
235609,note_on,,,,,49,0,0,,,,,0,,,64,0
235613,note_on,,,,,4,0,0,,,,,0,,,66,122
235662,note_on,,,,,49,0,0,,,,,0,,,66,0
235666,note_on,,,,,4,0,0,,,,,0,,,64,122
235715,note_on,,,,,49,0,0,,,,,0,,,64,0
235719,note_on,,,,,4,0,0,,,,,0,,,63,122
235768,note_on,,,,,49,0,0,,,,,0,,,63,0
235772,note_on,,,,,4,0,0,,,,,0,,,64,122
235821,note_on,,,,,49,0,0,,,,,0,,,64,0
235825,note_on,,,,,4,0,0,,,,,0,,,67,122
235874,note_on,,,,,49,0,0,,,,,0,,,67,0
235878,note_on,,,,,4,0,0,,,,,0,,,70,122
235927,note_on,,,,,49,0,0,,,,,0,,,70,0
235931,note_on,,,,,4,0,0,,,,,0,,,73,123
235980,note_on,,,,,49,0,0,,,,,0,,,73,0
235984,note_on,,,,,4,0,0,,,,,0,,,76,123
236033,note_on,,,,,49,0,0,,,,,0,,,76,0
236040,note_on,,,,,7,0,0,,,,,0,,,79,124
236089,note_on,,,,,49,0,0,,,,,0,,,79,0
236093,note_on,,,,,4,0,0,,,,,0,,,82,124
236142,note_on,,,,,49,0,0,,,,,0,,,82,0
236146,note_on,,,,,4,0,0,,,,,0,,,85,125
236195,note_on,,,,,49,0,0,,,,,0,,,85,0
236199,note_on,,,,,4,0,0,,,,,0,,,88,125
236248,note_on,,,,,49,0,0,,,,,0,,,88,0
236252,note_on,,,,,4,0,0,,,,,0,,,91,126
236301,note_on,,,,,49,0,0,,,,,0,,,91,0
236305,note_on,,,,,4,0,0,,,,,0,,,94,126
236354,note_on,,,,,49,0,0,,,,,0,,,94,0
236358,note_on,,,,,4,0,0,,,,,0,,,99,127
236407,note_on,,,,,49,0,0,,,,,0,,,99,0
236411,note_on,,,,,4,0,0,,,,,0,,,97,127
236460,note_on,,,,,49,0,0,,,,,0,,,97,0
236464,note_on,,,,,4,0,0,,,,,0,,,94,127
236513,note_on,,,,,49,0,0,,,,,0,,,94,0
236520,note_on,,,,,7,0,0,,,,,0,,,91,127
236564,note_on,,,,,44,0,0,,,,,0,,,91,0
236568,note_on,,,,,4,0,0,,,,,0,,,88,127
236612,note_on,,,,,44,0,0,,,,,0,,,88,0
236616,note_on,,,,,4,0,0,,,,,0,,,85,127
236660,note_on,,,,,44,0,0,,,,,0,,,85,0
236664,note_on,,,,,4,0,0,,,,,0,,,82,127
236708,note_on,,,,,44,0,0,,,,,0,,,82,0
236712,note_on,,,,,4,0,0,,,,,0,,,79,127
236756,note_on,,,,,44,0,0,,,,,0,,,79,0
236760,note_on,,,,,4,0,0,,,,,0,,,76,127
236804,note_on,,,,,44,0,0,,,,,0,,,76,0
236808,note_on,,,,,4,0,0,,,,,0,,,73,127
236852,note_on,,,,,44,0,0,,,,,0,,,73,0
236856,note_on,,,,,4,0,0,,,,,0,,,70,127
236900,note_on,,,,,44,0,0,,,,,0,,,70,0
236904,note_on,,,,,4,0,0,,,,,0,,,67,127
236948,note_on,,,,,44,0,0,,,,,0,,,67,0
236952,note_on,,,,,4,0,0,,,,,0,,,64,127
236996,note_on,,,,,44,0,0,,,,,0,,,64,0
237000,set_tempo,,,,,4,1,0,,400000,,,,,,,
237000,note_on,,,,,0,0,0,,,,,0,,,63,127
237090,note_on,,,,,90,0,0,,,,,0,,,63,0
237096,note_on,,,,,6,0,0,,,,,0,,,65,127
237186,note_on,,,,,90,0,0,,,,,0,,,65,0
237192,note_on,,,,,6,0,0,,,,,0,,,63,127
237282,note_on,,,,,90,0,0,,,,,0,,,63,0
237288,note_on,,,,,6,0,0,,,,,0,,,62,127
237378,note_on,,,,,90,0,0,,,,,0,,,62,0
237384,note_on,,,,,6,0,0,,,,,0,,,63,127
237474,note_on,,,,,90,0,0,,,,,0,,,63,0
237480,note_on,,,,,6,0,0,,,,,0,,,67,127
237570,note_on,,,,,90,0,0,,,,,0,,,67,0
237576,note_on,,,,,6,0,0,,,,,0,,,70,127
237666,note_on,,,,,90,0,0,,,,,0,,,70,0
237672,note_on,,,,,6,0,0,,,,,0,,,73,127
237762,note_on,,,,,90,0,0,,,,,0,,,73,0
237768,note_on,,,,,6,0,0,,,,,0,,,75,127
237858,note_on,,,,,90,0,0,,,,,0,,,75,0
237864,note_on,,,,,6,0,0,,,,,0,,,79,127
237954,note_on,,,,,90,0,0,,,,,0,,,79,0
237960,note_on,,,,,6,0,0,,,,,0,,,82,127
238035,note_on,,,,,75,0,0,,,,,0,,,82,0
238040,note_on,,,,,5,0,0,,,,,0,,,85,127
238115,note_on,,,,,75,0,0,,,,,0,,,85,0
238120,note_on,,,,,0,0,0,,,,,0,,,87,127
238120,set_tempo,,,,,5,1,0,,500000,,,,,,,
238195,note_on,,,,,75,0,0,,,,,0,,,87,0
238200,note_on,,,,,5,0,0,,,,,0,,,91,127
238275,note_on,,,,,75,0,0,,,,,0,,,91,0
238280,note_on,,,,,5,0,0,,,,,0,,,94,127
238355,note_on,,,,,75,0,0,,,,,0,,,94,0
238360,note_on,,,,,5,0,0,,,,,0,,,97,127
238435,note_on,,,,,75,0,0,,,,,0,,,97,0
238440,time_signature,13,8,24,8,5,1,0,,,,,,,,,
238440,set_tempo,,,,,0,1,0,,666667,,,,,,,
238440,note_on,,,,,0,0,0,,,,,0,,,90,127
238440,note_on,,,,,0,0,0,,,,,0,,,101,127
238496,note_on,,,,,56,0,0,,,,,0,,,101,0
238496,note_on,,,,,0,0,0,,,,,0,,,90,0
238500,note_on,,,,,0,0,0,,,,,0,,,94,127
238500,note_on,,,,,4,0,0,,,,,0,,,96,127
238556,note_on,,,,,0,0,0,,,,,0,,,94,0
238556,note_on,,,,,56,0,0,,,,,0,,,96,0
238560,note_on,,,,,0,0,0,,,,,0,,,90,126
238560,note_on,,,,,4,0,0,,,,,0,,,100,126
238616,note_on,,,,,56,0,0,,,,,0,,,100,0
238616,note_on,,,,,0,0,0,,,,,0,,,90,0
238620,note_on,,,,,0,0,0,,,,,0,,,94,126
238620,note_on,,,,,4,0,0,,,,,0,,,97,126
238676,note_on,,,,,0,0,0,,,,,0,,,94,0
238676,note_on,,,,,56,0,0,,,,,0,,,97,0
238680,note_on,,,,,0,0,0,,,,,0,,,90,125
238680,note_on,,,,,4,0,0,,,,,0,,,100,125
238736,note_on,,,,,0,0,0,,,,,0,,,90,0
238736,note_on,,,,,56,0,0,,,,,0,,,100,0
238740,note_on,,,,,4,0,0,,,,,0,,,95,124
238740,note_on,,,,,0,0,0,,,,,0,,,93,124
238796,note_on,,,,,0,0,0,,,,,0,,,93,0
238796,note_on,,,,,56,0,0,,,,,0,,,95,0
238800,note_on,,,,,0,0,0,,,,,0,,,90,124
238800,note_on,,,,,4,0,0,,,,,0,,,99,124
238856,note_on,,,,,0,0,0,,,,,0,,,90,0
238856,note_on,,,,,56,0,0,,,,,0,,,99,0
238860,note_on,,,,,4,0,0,,,,,0,,,96,123
238860,note_on,,,,,0,0,0,,,,,0,,,93,123
238916,note_on,,,,,56,0,0,,,,,0,,,96,0
238916,note_on,,,,,0,0,0,,,,,0,,,93,0
238920,note_on,,,,,4,0,0,,,,,0,,,99,122
238920,note_on,,,,,0,0,0,,,,,0,,,89,122
238976,note_on,,,,,56,0,0,,,,,0,,,99,0
238976,note_on,,,,,0,0,0,,,,,0,,,89,0
238980,note_on,,,,,0,0,0,,,,,0,,,92,122
238980,note_on,,,,,4,0,0,,,,,0,,,94,122
239036,note_on,,,,,0,0,0,,,,,0,,,92,0
239036,note_on,,,,,56,0,0,,,,,0,,,94,0
239040,note_on,,,,,0,0,0,,,,,0,,,89,121
239040,note_on,,,,,4,0,0,,,,,0,,,98,121
239096,note_on,,,,,0,0,0,,,,,0,,,89,0
239096,note_on,,,,,56,0,0,,,,,0,,,98,0
239100,note_on,,,,,4,0,0,,,,,0,,,95,121
239100,note_on,,,,,0,0,0,,,,,0,,,92,121
239156,note_on,,,,,56,0,0,,,,,0,,,95,0
239156,note_on,,,,,0,0,0,,,,,0,,,92,0
239160,note_on,,,,,0,0,0,,,,,0,,,88,120
239160,note_on,,,,,4,0,0,,,,,0,,,98,120
239216,note_on,,,,,0,0,0,,,,,0,,,88,0
239216,note_on,,,,,56,0,0,,,,,0,,,98,0
239220,note_on,,,,,0,0,0,,,,,0,,,91,119
239220,note_on,,,,,4,0,0,,,,,0,,,93,119
239276,note_on,,,,,56,0,0,,,,,0,,,93,0
239276,note_on,,,,,0,0,0,,,,,0,,,91,0
239280,note_on,,,,,0,0,0,,,,,0,,,88,119
239280,note_on,,,,,4,0,0,,,,,0,,,97,119
239336,note_on,,,,,56,0,0,,,,,0,,,97,0
239336,note_on,,,,,0,0,0,,,,,0,,,88,0
239340,note_on,,,,,4,0,0,,,,,0,,,94,118
239340,note_on,,,,,0,0,0,,,,,0,,,91,118
239396,note_on,,,,,0,0,0,,,,,0,,,91,0
239396,note_on,,,,,56,0,0,,,,,0,,,94,0
239400,note_on,,,,,0,0,0,,,,,0,,,87,117
239400,note_on,,,,,4,0,0,,,,,0,,,97,117
239456,note_on,,,,,0,0,0,,,,,0,,,87,0
239456,note_on,,,,,56,0,0,,,,,0,,,97,0
239460,note_on,,,,,4,0,0,,,,,0,,,92,117
239460,note_on,,,,,0,0,0,,,,,0,,,90,117
239516,note_on,,,,,56,0,0,,,,,0,,,92,0
239516,note_on,,,,,0,0,0,,,,,0,,,90,0
239520,note_on,,,,,4,0,0,,,,,0,,,96,116
239520,note_on,,,,,0,0,0,,,,,0,,,87,116
239576,note_on,,,,,56,0,0,,,,,0,,,96,0
239576,note_on,,,,,0,0,0,,,,,0,,,87,0
239580,note_on,,,,,0,0,0,,,,,0,,,90,116
239580,note_on,,,,,4,0,0,,,,,0,,,93,116
239636,note_on,,,,,0,0,0,,,,,0,,,90,0
239636,note_on,,,,,56,0,0,,,,,0,,,93,0
239640,note_on,,,,,4,0,0,,,,,0,,,96,115
239640,note_on,,,,,0,0,0,,,,,0,,,86,115
239696,note_on,,,,,56,0,0,,,,,0,,,96,0
239696,note_on,,,,,0,0,0,,,,,0,,,86,0
239700,note_on,,,,,0,0,0,,,,,0,,,89,114
239700,note_on,,,,,4,0,0,,,,,0,,,91,114
239756,note_on,,,,,56,0,0,,,,,0,,,91,0
239756,note_on,,,,,0,0,0,,,,,0,,,89,0
239760,note_on,,,,,0,0,0,,,,,0,,,86,114
239760,note_on,,,,,4,0,0,,,,,0,,,95,114
239816,note_on,,,,,56,0,0,,,,,0,,,95,0
239816,note_on,,,,,0,0,0,,,,,0,,,86,0
239820,note_on,,,,,0,0,0,,,,,0,,,89,113
239820,note_on,,,,,4,0,0,,,,,0,,,92,113
239876,note_on,,,,,56,0,0,,,,,0,,,92,0
239876,note_on,,,,,0,0,0,,,,,0,,,89,0
239880,note_on,,,,,4,0,0,,,,,0,,,95,112
239880,note_on,,,,,0,0,0,,,,,0,,,85,112
239936,note_on,,,,,56,0,0,,,,,0,,,95,0
239936,note_on,,,,,0,0,0,,,,,0,,,85,0
239940,note_on,,,,,0,0,0,,,,,0,,,88,112
239940,note_on,,,,,4,0,0,,,,,0,,,90,112
239996,note_on,,,,,56,0,0,,,,,0,,,90,0
239996,note_on,,,,,0,0,0,,,,,0,,,88,0
240000,note_on,,,,,4,0,0,,,,,0,,,94,111
240000,note_on,,,,,0,0,0,,,,,0,,,85,111
240056,note_on,,,,,0,0,0,,,,,0,,,85,0
240056,note_on,,,,,56,0,0,,,,,0,,,94,0
240060,note_on,,,,,4,0,0,,,,,0,,,91,111
240060,note_on,,,,,0,0,0,,,,,0,,,88,111
240116,note_on,,,,,56,0,0,,,,,0,,,91,0
240116,note_on,,,,,0,0,0,,,,,0,,,88,0
240120,note_on,,,,,4,0,0,,,,,0,,,94,110
240120,note_on,,,,,0,0,0,,,,,0,,,84,110
240176,note_on,,,,,56,0,0,,,,,0,,,94,0
240176,note_on,,,,,0,0,0,,,,,0,,,84,0
240180,note_on,,,,,0,0,0,,,,,0,,,87,109
240180,note_on,,,,,4,0,0,,,,,0,,,89,109
240236,note_on,,,,,56,0,0,,,,,0,,,89,0
240236,note_on,,,,,0,0,0,,,,,0,,,87,0
240240,note_on,,,,,0,0,0,,,,,0,,,84,109
240240,note_on,,,,,4,0,0,,,,,0,,,93,109
240296,note_on,,,,,0,0,0,,,,,0,,,84,0
240296,note_on,,,,,56,0,0,,,,,0,,,93,0
240300,note_on,,,,,0,0,0,,,,,0,,,87,108
240300,note_on,,,,,4,0,0,,,,,0,,,90,108
240356,note_on,,,,,56,0,0,,,,,0,,,90,0
240356,note_on,,,,,0,0,0,,,,,0,,,87,0
240360,note_on,,,,,4,0,0,,,,,0,,,93,107
240360,note_on,,,,,0,0,0,,,,,0,,,83,107
240416,note_on,,,,,56,0,0,,,,,0,,,93,0
240416,note_on,,,,,0,0,0,,,,,0,,,83,0
240420,note_on,,,,,4,0,0,,,,,0,,,88,107
240420,note_on,,,,,0,0,0,,,,,0,,,86,107
240476,note_on,,,,,56,0,0,,,,,0,,,88,0
240476,note_on,,,,,0,0,0,,,,,0,,,86,0
240480,note_on,,,,,0,0,0,,,,,0,,,83,107
240480,note_on,,,,,4,0,0,,,,,0,,,92,107
240536,note_on,,,,,0,0,0,,,,,0,,,83,0
240536,note_on,,,,,56,0,0,,,,,0,,,92,0
240540,note_on,,,,,4,0,0,,,,,0,,,89,107
240540,note_on,,,,,0,0,0,,,,,0,,,86,107
240596,note_on,,,,,0,0,0,,,,,0,,,86,0
240596,note_on,,,,,56,0,0,,,,,0,,,89,0
240600,note_on,,,,,0,0,0,,,,,0,,,82,107
240600,note_on,,,,,4,0,0,,,,,0,,,92,107
240656,note_on,,,,,0,0,0,,,,,0,,,82,0
240656,note_on,,,,,56,0,0,,,,,0,,,92,0
240660,note_on,,,,,0,0,0,,,,,0,,,85,107
240660,note_on,,,,,4,0,0,,,,,0,,,87,107
240716,note_on,,,,,0,0,0,,,,,0,,,85,0
240716,note_on,,,,,56,0,0,,,,,0,,,87,0
240720,note_on,,,,,0,0,0,,,,,0,,,82,107
240720,note_on,,,,,4,0,0,,,,,0,,,91,107
240776,note_on,,,,,56,0,0,,,,,0,,,91,0
240776,note_on,,,,,0,0,0,,,,,0,,,82,0
240780,note_on,,,,,4,0,0,,,,,0,,,88,107
240780,note_on,,,,,0,0,0,,,,,0,,,85,107
240836,note_on,,,,,56,0,0,,,,,0,,,88,0
240836,note_on,,,,,0,0,0,,,,,0,,,85,0
240840,note_on,,,,,4,0,0,,,,,0,,,91,107
240840,note_on,,,,,0,0,0,,,,,0,,,81,107
240896,note_on,,,,,56,0,0,,,,,0,,,91,0
240896,note_on,,,,,0,0,0,,,,,0,,,81,0
240900,note_on,,,,,4,0,0,,,,,0,,,86,107
240900,note_on,,,,,0,0,0,,,,,0,,,84,107
240956,note_on,,,,,56,0,0,,,,,0,,,86,0
240956,note_on,,,,,0,0,0,,,,,0,,,84,0
240960,note_on,,,,,4,0,0,,,,,0,,,90,107
240960,note_on,,,,,0,0,0,,,,,0,,,81,107
241016,note_on,,,,,0,0,0,,,,,0,,,81,0
241016,note_on,,,,,56,0,0,,,,,0,,,90,0
241020,note_on,,,,,0,0,0,,,,,0,,,84,107
241020,note_on,,,,,4,0,0,,,,,0,,,87,107
241076,note_on,,,,,0,0,0,,,,,0,,,84,0
241076,note_on,,,,,56,0,0,,,,,0,,,87,0
241080,note_on,,,,,0,0,0,,,,,0,,,80,107
241080,note_on,,,,,4,0,0,,,,,0,,,90,107
241136,note_on,,,,,56,0,0,,,,,0,,,90,0
241136,note_on,,,,,0,0,0,,,,,0,,,80,0
241140,note_on,,,,,0,0,0,,,,,0,,,83,107
241140,note_on,,,,,4,0,0,,,,,0,,,85,107
241196,note_on,,,,,0,0,0,,,,,0,,,83,0
241196,note_on,,,,,56,0,0,,,,,0,,,85,0
241200,note_on,,,,,4,0,0,,,,,0,,,89,107
241200,note_on,,,,,0,0,0,,,,,0,,,80,107
241256,note_on,,,,,0,0,0,,,,,0,,,80,0
241256,note_on,,,,,56,0,0,,,,,0,,,89,0
241260,note_on,,,,,4,0,0,,,,,0,,,86,107
241260,note_on,,,,,0,0,0,,,,,0,,,83,107
241316,note_on,,,,,0,0,0,,,,,0,,,83,0
241316,note_on,,,,,56,0,0,,,,,0,,,86,0
241320,note_on,,,,,4,0,0,,,,,0,,,89,107
241320,note_on,,,,,0,0,0,,,,,0,,,79,107
241376,note_on,,,,,0,0,0,,,,,0,,,79,0
241376,note_on,,,,,56,0,0,,,,,0,,,89,0
241380,note_on,,,,,4,0,0,,,,,0,,,84,107
241380,note_on,,,,,0,0,0,,,,,0,,,82,107
241436,note_on,,,,,0,0,0,,,,,0,,,82,0
241436,note_on,,,,,56,0,0,,,,,0,,,84,0
241440,note_on,,,,,0,0,0,,,,,0,,,79,107
241440,note_on,,,,,4,0,0,,,,,0,,,88,107
241496,note_on,,,,,56,0,0,,,,,0,,,88,0
241496,note_on,,,,,0,0,0,,,,,0,,,79,0
241500,note_on,,,,,4,0,0,,,,,0,,,85,107
241500,note_on,,,,,0,0,0,,,,,0,,,82,107
241556,note_on,,,,,56,0,0,,,,,0,,,85,0
241556,note_on,,,,,0,0,0,,,,,0,,,82,0
241560,note_on,,,,,4,0,0,,,,,0,,,88,107
241560,note_on,,,,,0,0,0,,,,,0,,,78,107
241616,note_on,,,,,0,0,0,,,,,0,,,78,0
241616,note_on,,,,,56,0,0,,,,,0,,,88,0
241620,note_on,,,,,4,0,0,,,,,0,,,83,107
241620,note_on,,,,,0,0,0,,,,,0,,,81,107
241676,note_on,,,,,0,0,0,,,,,0,,,81,0
241676,note_on,,,,,56,0,0,,,,,0,,,83,0
241680,note_on,,,,,0,0,0,,,,,0,,,78,107
241680,note_on,,,,,4,0,0,,,,,0,,,87,107
241736,note_on,,,,,56,0,0,,,,,0,,,87,0
241736,note_on,,,,,0,0,0,,,,,0,,,78,0
241740,note_on,,,,,0,0,0,,,,,0,,,81,107
241740,note_on,,,,,4,0,0,,,,,0,,,84,107
241796,note_on,,,,,56,0,0,,,,,0,,,84,0
241796,note_on,,,,,0,0,0,,,,,0,,,81,0
241800,note_on,,,,,4,0,0,,,,,0,,,87,107
241800,note_on,,,,,0,0,0,,,,,0,,,77,107
241856,note_on,,,,,56,0,0,,,,,0,,,87,0
241856,note_on,,,,,0,0,0,,,,,0,,,77,0
241860,note_on,,,,,4,0,0,,,,,0,,,82,107
241860,note_on,,,,,0,0,0,,,,,0,,,80,107
241916,note_on,,,,,56,0,0,,,,,0,,,82,0
241916,note_on,,,,,0,0,0,,,,,0,,,80,0
241920,note_on,,,,,0,0,0,,,,,0,,,77,107
241920,note_on,,,,,4,0,0,,,,,0,,,86,107
241976,note_on,,,,,56,0,0,,,,,0,,,86,0
241976,note_on,,,,,0,0,0,,,,,0,,,77,0
241980,note_on,,,,,4,0,0,,,,,0,,,83,107
241980,note_on,,,,,0,0,0,,,,,0,,,80,107
242036,note_on,,,,,56,0,0,,,,,0,,,83,0
242036,note_on,,,,,0,0,0,,,,,0,,,80,0
242040,note_on,,,,,4,0,0,,,,,0,,,86,107
242040,note_on,,,,,0,0,0,,,,,0,,,76,107
242096,note_on,,,,,56,0,0,,,,,0,,,86,0
242096,note_on,,,,,0,0,0,,,,,0,,,76,0
242100,note_on,,,,,4,0,0,,,,,0,,,81,107
242100,note_on,,,,,0,0,0,,,,,0,,,79,107
242156,note_on,,,,,56,0,0,,,,,0,,,81,0
242156,note_on,,,,,0,0,0,,,,,0,,,79,0
242160,note_on,,,,,4,0,0,,,,,0,,,85,107
242160,note_on,,,,,0,0,0,,,,,0,,,76,107
242216,note_on,,,,,0,0,0,,,,,0,,,76,0
242216,note_on,,,,,56,0,0,,,,,0,,,85,0
242220,note_on,,,,,0,0,0,,,,,0,,,79,107
242220,note_on,,,,,4,0,0,,,,,0,,,82,107
242276,note_on,,,,,56,0,0,,,,,0,,,82,0
242276,note_on,,,,,0,0,0,,,,,0,,,79,0
242280,note_on,,,,,4,0,0,,,,,0,,,85,107
242280,note_on,,,,,0,0,0,,,,,0,,,75,107
242336,note_on,,,,,0,0,0,,,,,0,,,75,0
242336,note_on,,,,,56,0,0,,,,,0,,,85,0
242340,note_on,,,,,4,0,0,,,,,0,,,80,107
242340,note_on,,,,,0,0,0,,,,,0,,,78,107
242396,note_on,,,,,0,0,0,,,,,0,,,78,0
242396,note_on,,,,,56,0,0,,,,,0,,,80,0
242400,note_on,,,,,0,0,0,,,,,0,,,75,107
242400,note_on,,,,,4,0,0,,,,,0,,,84,107
242456,note_on,,,,,0,0,0,,,,,0,,,75,0
242456,note_on,,,,,56,0,0,,,,,0,,,84,0
242460,note_on,,,,,0,0,0,,,,,0,,,78,107
242460,note_on,,,,,4,0,0,,,,,0,,,81,107
242516,note_on,,,,,0,0,0,,,,,0,,,78,0
242516,note_on,,,,,56,0,0,,,,,0,,,81,0
242520,note_on,,,,,4,0,0,,,,,0,,,84,107
242520,note_on,,,,,0,0,0,,,,,0,,,74,107
242576,note_on,,,,,56,0,0,,,,,0,,,84,0
242576,note_on,,,,,0,0,0,,,,,0,,,74,0
242580,note_on,,,,,0,0,0,,,,,0,,,77,107
242580,note_on,,,,,4,0,0,,,,,0,,,79,107
242636,note_on,,,,,0,0,0,,,,,0,,,77,0
242636,note_on,,,,,56,0,0,,,,,0,,,79,0
242640,note_on,,,,,0,0,0,,,,,0,,,74,107
242640,note_on,,,,,4,0,0,,,,,0,,,83,107
242696,note_on,,,,,56,0,0,,,,,0,,,83,0
242696,note_on,,,,,0,0,0,,,,,0,,,74,0
242700,note_on,,,,,4,0,0,,,,,0,,,80,107
242700,note_on,,,,,0,0,0,,,,,0,,,77,107
242756,note_on,,,,,0,0,0,,,,,0,,,77,0
242756,note_on,,,,,56,0,0,,,,,0,,,80,0
242760,note_on,,,,,0,0,0,,,,,0,,,73,107
242760,note_on,,,,,4,0,0,,,,,0,,,83,107
242816,note_on,,,,,56,0,0,,,,,0,,,83,0
242816,note_on,,,,,0,0,0,,,,,0,,,73,0
242820,note_on,,,,,0,0,0,,,,,0,,,76,107
242820,note_on,,,,,4,0,0,,,,,0,,,78,107
242876,note_on,,,,,0,0,0,,,,,0,,,76,0
242876,note_on,,,,,56,0,0,,,,,0,,,78,0
242880,note_on,,,,,0,0,0,,,,,0,,,73,107
242880,note_on,,,,,4,0,0,,,,,0,,,82,107
242936,note_on,,,,,56,0,0,,,,,0,,,82,0
242936,note_on,,,,,0,0,0,,,,,0,,,73,0
242940,note_on,,,,,0,0,0,,,,,0,,,76,107
242940,note_on,,,,,4,0,0,,,,,0,,,79,107
242996,note_on,,,,,0,0,0,,,,,0,,,76,0
242996,note_on,,,,,56,0,0,,,,,0,,,79,0
243000,note_on,,,,,4,0,0,,,,,0,,,82,107
243000,note_on,,,,,0,0,0,,,,,0,,,72,107
243056,note_on,,,,,0,0,0,,,,,0,,,72,0
243056,note_on,,,,,56,0,0,,,,,0,,,82,0
243060,note_on,,,,,0,0,0,,,,,0,,,75,107
243060,note_on,,,,,4,0,0,,,,,0,,,77,107
243116,note_on,,,,,56,0,0,,,,,0,,,77,0
243116,note_on,,,,,0,0,0,,,,,0,,,75,0
243120,note_on,,,,,4,0,0,,,,,0,,,81,107
243120,note_on,,,,,0,0,0,,,,,0,,,72,107
243176,note_on,,,,,0,0,0,,,,,0,,,72,0
243176,note_on,,,,,56,0,0,,,,,0,,,81,0
243180,note_on,,,,,0,0,0,,,,,0,,,75,107
243180,note_on,,,,,4,0,0,,,,,0,,,78,107
243236,note_on,,,,,0,0,0,,,,,0,,,75,0
243236,note_on,,,,,56,0,0,,,,,0,,,78,0
243240,note_on,,,,,0,0,0,,,,,0,,,71,107
243240,note_on,,,,,4,0,0,,,,,0,,,81,107
243296,note_on,,,,,56,0,0,,,,,0,,,81,0
243296,note_on,,,,,0,0,0,,,,,0,,,71,0
243300,note_on,,,,,0,0,0,,,,,0,,,74,107
243300,note_on,,,,,4,0,0,,,,,0,,,76,107
243356,note_on,,,,,0,0,0,,,,,0,,,74,0
243356,note_on,,,,,56,0,0,,,,,0,,,76,0
243360,note_on,,,,,4,0,0,,,,,0,,,80,107
243360,note_on,,,,,0,0,0,,,,,0,,,71,107
243416,note_on,,,,,56,0,0,,,,,0,,,80,0
243416,note_on,,,,,0,0,0,,,,,0,,,71,0
243420,note_on,,,,,4,0,0,,,,,0,,,77,107
243420,note_on,,,,,0,0,0,,,,,0,,,74,107
243476,note_on,,,,,56,0,0,,,,,0,,,77,0
243476,note_on,,,,,0,0,0,,,,,0,,,74,0
243480,note_on,,,,,0,0,0,,,,,0,,,70,107
243480,note_on,,,,,4,0,0,,,,,0,,,80,107
243536,note_on,,,,,0,0,0,,,,,0,,,70,0
243536,note_on,,,,,56,0,0,,,,,0,,,80,0
243540,note_on,,,,,4,0,0,,,,,0,,,75,107
243540,note_on,,,,,0,0,0,,,,,0,,,73,107
243596,note_on,,,,,0,0,0,,,,,0,,,73,0
243596,note_on,,,,,56,0,0,,,,,0,,,75,0
243600,note_on,,,,,4,0,0,,,,,0,,,79,107
243600,note_on,,,,,0,0,0,,,,,0,,,70,107
243656,note_on,,,,,56,0,0,,,,,0,,,79,0
243656,note_on,,,,,0,0,0,,,,,0,,,70,0
243660,note_on,,,,,4,0,0,,,,,0,,,76,107
243660,note_on,,,,,0,0,0,,,,,0,,,73,107
243716,note_on,,,,,56,0,0,,,,,0,,,76,0
243716,note_on,,,,,0,0,0,,,,,0,,,73,0
243720,note_on,,,,,0,0,0,,,,,0,,,69,107
243720,note_on,,,,,4,0,0,,,,,0,,,79,107
243776,note_on,,,,,56,0,0,,,,,0,,,79,0
243776,note_on,,,,,0,0,0,,,,,0,,,69,0
243780,note_on,,,,,0,0,0,,,,,0,,,72,107
243780,note_on,,,,,4,0,0,,,,,0,,,74,107
243836,note_on,,,,,56,0,0,,,,,0,,,74,0
243836,note_on,,,,,0,0,0,,,,,0,,,72,0
243840,note_on,,,,,0,0,0,,,,,0,,,69,107
243840,note_on,,,,,4,0,0,,,,,0,,,78,107
243896,note_on,,,,,56,0,0,,,,,0,,,78,0
243896,note_on,,,,,0,0,0,,,,,0,,,69,0
243900,note_on,,,,,0,0,0,,,,,0,,,72,107
243900,note_on,,,,,4,0,0,,,,,0,,,75,107
243956,note_on,,,,,56,0,0,,,,,0,,,75,0
243956,note_on,,,,,0,0,0,,,,,0,,,72,0
243960,note_on,,,,,0,0,0,,,,,0,,,68,107
243960,note_on,,,,,4,0,0,,,,,0,,,78,107
244016,note_on,,,,,0,0,0,,,,,0,,,68,0
244016,note_on,,,,,56,0,0,,,,,0,,,78,0
244020,note_on,,,,,0,0,0,,,,,0,,,71,107
244020,note_on,,,,,4,0,0,,,,,0,,,73,107
244076,note_on,,,,,0,0,0,,,,,0,,,71,0
244076,note_on,,,,,56,0,0,,,,,0,,,73,0
244080,note_on,,,,,4,0,0,,,,,0,,,77,107
244080,note_on,,,,,0,0,0,,,,,0,,,68,107
244136,note_on,,,,,0,0,0,,,,,0,,,68,0
244136,note_on,,,,,56,0,0,,,,,0,,,77,0
244140,note_on,,,,,4,0,0,,,,,0,,,74,107
244140,note_on,,,,,0,0,0,,,,,0,,,71,107
244196,note_on,,,,,56,0,0,,,,,0,,,74,0
244196,note_on,,,,,0,0,0,,,,,0,,,71,0
244200,note_on,,,,,0,0,0,,,,,0,,,67,107
244200,note_on,,,,,4,0,0,,,,,0,,,77,107
244256,note_on,,,,,0,0,0,,,,,0,,,67,0
244256,note_on,,,,,56,0,0,,,,,0,,,77,0
244260,note_on,,,,,0,0,0,,,,,0,,,70,107
244260,note_on,,,,,4,0,0,,,,,0,,,71,107
244316,note_on,,,,,0,0,0,,,,,0,,,70,0
244316,note_on,,,,,56,0,0,,,,,0,,,71,0
244320,note_on,,,,,4,0,0,,,,,0,,,76,107
244320,note_on,,,,,0,0,0,,,,,0,,,68,107
244376,note_on,,,,,0,0,0,,,,,0,,,68,0
244376,note_on,,,,,56,0,0,,,,,0,,,76,0
244380,note_on,,,,,0,0,0,,,,,0,,,70,107
244380,note_on,,,,,4,0,0,,,,,0,,,73,107
244436,note_on,,,,,0,0,0,,,,,0,,,70,0
244436,note_on,,,,,56,0,0,,,,,0,,,73,0
244440,note_on,,,,,0,0,0,,,,,0,,,67,107
244440,note_on,,,,,4,0,0,,,,,0,,,77,107
244496,note_on,,,,,0,0,0,,,,,0,,,67,0
244496,note_on,,,,,56,0,0,,,,,0,,,77,0
244500,note_on,,,,,0,0,0,,,,,0,,,70,107
244500,note_on,,,,,4,0,0,,,,,0,,,71,107
244556,note_on,,,,,56,0,0,,,,,0,,,71,0
244556,note_on,,,,,0,0,0,,,,,0,,,70,0
244560,note_on,,,,,0,0,0,,,,,0,,,68,107
244560,note_on,,,,,4,0,0,,,,,0,,,76,107
244616,note_on,,,,,56,0,0,,,,,0,,,76,0
244616,note_on,,,,,0,0,0,,,,,0,,,68,0
244620,note_on,,,,,0,0,0,,,,,0,,,70,107
244620,note_on,,,,,4,0,0,,,,,0,,,73,107
244676,note_on,,,,,0,0,0,,,,,0,,,70,0
244676,note_on,,,,,56,0,0,,,,,0,,,73,0
244680,note_on,,,,,0,0,0,,,,,0,,,77,107
244680,note_on,,,,,0,0,0,,,,,0,,,67,107
244680,time_signature,21,8,24,8,4,1,0,,,,,,,,,
244736,note_on,,,,,56,0,0,,,,,0,,,77,0
244736,note_on,,,,,0,0,0,,,,,0,,,67,0
244740,note_on,,,,,4,0,0,,,,,0,,,72,107
244740,note_on,,,,,0,0,0,,,,,0,,,70,107
244796,note_on,,,,,56,0,0,,,,,0,,,72,0
244796,note_on,,,,,0,0,0,,,,,0,,,70,0
244800,note_on,,,,,0,0,0,,,,,0,,,68,107
244800,note_on,,,,,4,0,0,,,,,0,,,76,107
244856,note_on,,,,,56,0,0,,,,,0,,,76,0
244856,note_on,,,,,0,0,0,,,,,0,,,68,0
244860,note_on,,,,,0,0,0,,,,,0,,,70,107
244860,note_on,,,,,4,0,0,,,,,0,,,73,107
244916,note_on,,,,,0,0,0,,,,,0,,,70,0
244916,note_on,,,,,56,0,0,,,,,0,,,73,0
244920,note_on,,,,,0,0,0,,,,,0,,,67,107
244920,note_on,,,,,4,0,0,,,,,0,,,77,107
244976,note_on,,,,,0,0,0,,,,,0,,,67,0
244976,note_on,,,,,56,0,0,,,,,0,,,77,0
244980,note_on,,,,,0,0,0,,,,,0,,,70,107
244980,note_on,,,,,4,0,0,,,,,0,,,72,107
245036,note_on,,,,,56,0,0,,,,,0,,,72,0
245036,note_on,,,,,0,0,0,,,,,0,,,70,0
245040,note_on,,,,,4,0,0,,,,,0,,,76,107
245040,note_on,,,,,0,0,0,,,,,0,,,68,107
245096,note_on,,,,,56,0,0,,,,,0,,,76,0
245096,note_on,,,,,0,0,0,,,,,0,,,68,0
245100,note_on,,,,,4,0,0,,,,,0,,,73,107
245100,note_on,,,,,0,0,0,,,,,0,,,70,107
245156,note_on,,,,,0,0,0,,,,,0,,,70,0
245156,note_on,,,,,56,0,0,,,,,0,,,73,0
245160,note_on,,,,,0,0,0,,,,,0,,,70,107
245160,note_on,,,,,0,0,0,,,,,0,,,67,107
245160,note_on,,,,,4,0,0,,,,,0,,,77,107
245216,note_on,,,,,56,0,0,,,,,0,,,77,0
245220,note_on,,,,,4,0,0,,,,,0,,,72,107
245276,note_on,,,,,56,0,0,,,,,0,,,72,0
245280,note_on,,,,,4,0,0,,,,,0,,,76,107
245336,note_on,,,,,56,0,0,,,,,0,,,76,0
245340,note_on,,,,,4,0,0,,,,,0,,,73,107
245387,note_on,,,,,47,0,0,,,,,0,,,67,0
245387,note_on,,,,,0,0,0,,,,,0,,,70,0
245396,note_on,,,,,9,0,0,,,,,0,,,73,0
245400,note_on,,,,,4,0,0,,,,,0,,,77,107
245456,note_on,,,,,56,0,0,,,,,0,,,77,0
245460,note_on,,,,,4,0,0,,,,,0,,,72,107
245516,note_on,,,,,56,0,0,,,,,0,,,72,0
245520,note_on,,,,,4,0,0,,,,,0,,,76,107
245576,note_on,,,,,56,0,0,,,,,0,,,76,0
245580,note_on,,,,,4,0,0,,,,,0,,,73,107
245636,note_on,,,,,56,0,0,,,,,0,,,73,0
245640,note_on,,,,,4,0,0,,,,,0,,,77,107
245696,note_on,,,,,56,0,0,,,,,0,,,77,0
245700,note_on,,,,,4,0,0,,,,,0,,,73,107
245756,note_on,,,,,56,0,0,,,,,0,,,73,0
245760,note_on,,,,,4,0,0,,,,,0,,,76,107
245816,note_on,,,,,56,0,0,,,,,0,,,76,0
245820,note_on,,,,,4,0,0,,,,,0,,,74,107
245876,note_on,,,,,56,0,0,,,,,0,,,74,0
245880,note_on,,,,,4,0,0,,,,,0,,,77,107
245936,note_on,,,,,56,0,0,,,,,0,,,77,0
245940,note_on,,,,,4,0,0,,,,,0,,,73,107
245996,note_on,,,,,56,0,0,,,,,0,,,73,0
246000,note_on,,,,,4,0,0,,,,,0,,,76,107
246056,note_on,,,,,56,0,0,,,,,0,,,76,0
246060,note_on,,,,,4,0,0,,,,,0,,,74,107
246116,note_on,,,,,56,0,0,,,,,0,,,74,0
246120,note_on,,,,,4,0,0,,,,,0,,,77,107
246176,note_on,,,,,56,0,0,,,,,0,,,77,0
246180,note_on,,,,,4,0,0,,,,,0,,,74,107
246236,note_on,,,,,56,0,0,,,,,0,,,74,0
246240,note_on,,,,,4,0,0,,,,,0,,,76,107
246296,note_on,,,,,56,0,0,,,,,0,,,76,0
246300,note_on,,,,,4,0,0,,,,,0,,,75,107
246356,note_on,,,,,56,0,0,,,,,0,,,75,0
246360,note_on,,,,,0,0,0,,,,,0,,,77,107
246360,set_tempo,,,,,4,1,0,,705881,,,,,,,
246416,note_on,,,,,56,0,0,,,,,0,,,77,0
246420,note_on,,,,,4,0,0,,,,,0,,,74,107
246476,note_on,,,,,56,0,0,,,,,0,,,74,0
246480,note_on,,,,,4,0,0,,,,,0,,,76,107
246536,note_on,,,,,56,0,0,,,,,0,,,76,0
246540,note_on,,,,,4,0,0,,,,,0,,,75,107
246596,note_on,,,,,56,0,0,,,,,0,,,75,0
246600,note_on,,,,,4,0,0,,,,,0,,,77,107
246656,note_on,,,,,56,0,0,,,,,0,,,77,0
246660,note_on,,,,,4,0,0,,,,,0,,,76,107
246716,note_on,,,,,56,0,0,,,,,0,,,76,0
246720,note_on,,,,,4,0,0,,,,,0,,,77,107
246776,note_on,,,,,56,0,0,,,,,0,,,77,0
246780,note_on,,,,,4,0,0,,,,,0,,,75,107
246836,note_on,,,,,56,0,0,,,,,0,,,75,0
246840,set_tempo,,,,,4,1,0,,750002,,,,,,,
246840,note_on,,,,,0,0,0,,,,,0,,,77,107
246896,note_on,,,,,56,0,0,,,,,0,,,77,0
246900,note_on,,,,,4,0,0,,,,,0,,,76,107
246956,note_on,,,,,56,0,0,,,,,0,,,76,0
246960,note_on,,,,,4,0,0,,,,,0,,,77,107
247016,note_on,,,,,56,0,0,,,,,0,,,77,0
247020,note_on,,,,,4,0,0,,,,,0,,,75,107
247076,note_on,,,,,56,0,0,,,,,0,,,75,0
247080,note_on,,,,,4,0,0,,,,,0,,,77,107
247136,note_on,,,,,56,0,0,,,,,0,,,77,0
247140,note_on,,,,,4,0,0,,,,,0,,,76,107
247196,note_on,,,,,56,0,0,,,,,0,,,76,0
247200,note_on,,,,,4,0,0,,,,,0,,,77,107
247256,note_on,,,,,56,0,0,,,,,0,,,77,0
247260,note_on,,,,,4,0,0,,,,,0,,,75,107
247316,note_on,,,,,56,0,0,,,,,0,,,75,0
247320,note_on,,,,,0,0,0,,,,,0,,,77,107
247320,set_tempo,,,,,4,1,0,,800000,,,,,,,
247376,note_on,,,,,56,0,0,,,,,0,,,77,0
247380,note_on,,,,,4,0,0,,,,,0,,,76,107
247436,note_on,,,,,56,0,0,,,,,0,,,76,0
247440,note_on,,,,,4,0,0,,,,,0,,,77,107
247496,note_on,,,,,56,0,0,,,,,0,,,77,0
247500,note_on,,,,,4,0,0,,,,,0,,,75,107
247556,note_on,,,,,56,0,0,,,,,0,,,75,0
247560,note_on,,,,,4,0,0,,,,,0,,,77,107
247560,note_on,,,,,0,0,0,,,,,0,,,75,107
247597,note_on,,,,,37,0,0,,,,,0,,,77,0
247613,note_on,,,,,16,0,0,,,,,0,,,75,0
247619,note_on,,,,,6,0,0,,,,,0,,,77,107
247672,note_on,,,,,53,0,0,,,,,0,,,77,0
247679,note_on,,,,,7,0,0,,,,,0,,,75,107
247732,note_on,,,,,53,0,0,,,,,0,,,75,0
247740,note_on,,,,,8,0,0,,,,,0,,,77,107
247793,note_on,,,,,53,0,0,,,,,0,,,77,0
247799,note_on,,,,,6,0,0,,,,,0,,,75,107
247852,note_on,,,,,53,0,0,,,,,0,,,75,0
247859,note_on,,,,,7,0,0,,,,,0,,,77,107
247912,note_on,,,,,53,0,0,,,,,0,,,77,0
247920,note_on,,,,,8,0,0,,,,,0,,,75,107
247973,note_on,,,,,53,0,0,,,,,0,,,75,0
247979,note_on,,,,,6,0,0,,,,,0,,,77,107
248032,note_on,,,,,53,0,0,,,,,0,,,77,0
248039,note_on,,,,,7,0,0,,,,,0,,,75,107
248092,note_on,,,,,53,0,0,,,,,0,,,75,0
248100,note_on,,,,,8,0,0,,,,,0,,,77,107
248153,note_on,,,,,53,0,0,,,,,0,,,77,0
248159,note_on,,,,,6,0,0,,,,,0,,,75,107
248212,note_on,,,,,53,0,0,,,,,0,,,75,0
248219,note_on,,,,,7,0,0,,,,,0,,,77,107
248272,note_on,,,,,53,0,0,,,,,0,,,77,0
248280,note_on,,,,,8,0,0,,,,,0,,,75,107
248333,note_on,,,,,53,0,0,,,,,0,,,75,0
248339,note_on,,,,,6,0,0,,,,,0,,,77,107
248392,note_on,,,,,53,0,0,,,,,0,,,77,0
248399,note_on,,,,,7,0,0,,,,,0,,,75,107
248452,note_on,,,,,53,0,0,,,,,0,,,75,0
248460,note_on,,,,,8,0,0,,,,,0,,,77,107
248513,note_on,,,,,53,0,0,,,,,0,,,77,0
248519,note_on,,,,,6,0,0,,,,,0,,,75,107
248572,note_on,,,,,53,0,0,,,,,0,,,75,0
248579,note_on,,,,,7,0,0,,,,,0,,,77,107
248632,note_on,,,,,53,0,0,,,,,0,,,77,0
248640,note_on,,,,,8,0,0,,,,,0,,,75,107
248693,note_on,,,,,53,0,0,,,,,0,,,75,0
248699,note_on,,,,,6,0,0,,,,,0,,,77,107
248752,note_on,,,,,53,0,0,,,,,0,,,77,0
248759,note_on,,,,,7,0,0,,,,,0,,,75,107
248812,note_on,,,,,53,0,0,,,,,0,,,75,0
248820,note_on,,,,,8,0,0,,,,,0,,,77,107
248873,note_on,,,,,53,0,0,,,,,0,,,77,0
248879,note_on,,,,,6,0,0,,,,,0,,,75,107
248932,note_on,,,,,53,0,0,,,,,0,,,75,0
248939,note_on,,,,,7,0,0,,,,,0,,,77,107
248992,note_on,,,,,53,0,0,,,,,0,,,77,0
249000,note_on,,,,,0,0,0,,,,,0,,,74,107
249000,set_tempo,,,,,8,1,0,,1333333,,,,,,,
249113,note_on,,,,,113,0,0,,,,,0,,,74,0
249120,note_on,,,,,7,0,0,,,,,0,,,75,107
249233,note_on,,,,,113,0,0,,,,,0,,,75,0
249240,note_on,,,,,0,0,0,,,,,0,,,84,107
249240,set_tempo,,,,,7,1,0,,5999988,,,,,,,
249467,note_on,,,,,227,0,0,,,,,0,,,84,0
249480,set_tempo,,,,,13,1,0,,2000000,,,,,,,
249480,note_on,,,,,0,0,0,,,,,0,,,79,107
249707,note_on,,,,,227,0,0,,,,,0,,,79,0
249720,set_tempo,,,,,0,1,0,,666667,,,,,,,
249720,time_signature,7,4,24,8,13,1,0,,,,,,,,,
249720,note_on,,,,,0,0,1,,,,,0,,,44,107
249720,key_signature,,,,,0,1,0,Ab,,,,,,,,
249720,key_signature,,,,,19921,1,1,Ab,,,,,,,,
249959,note_on,,,,,239,0,1,,,,,0,,,44,0
249960,note_on,,,,,0,0,0,,,,,0,,,63,107
249960,set_tempo,,,,,240,1,0,,333333,,,,,,,
250079,note_on,,,,,119,0,0,,,,,0,,,63,0
250080,note_on,,,,,1,0,0,,,,,0,,,72,107
250199,note_on,,,,,119,0,0,,,,,0,,,72,0
250200,set_tempo,,,,,1,1,0,,750002,,,,,,,
250200,note_on,,,,,241,0,1,,,,,0,,,51,107
250200,note_on,,,,,0,0,1,,,,,0,,,60,107
250200,note_on,,,,,0,0,0,,,,,0,,,82,107
250439,note_on,,,,,239,0,1,,,,,0,,,51,0
250439,note_on,,,,,0,0,1,,,,,0,,,60,0
250440,note_on,,,,,0,0,1,,,,,0,,,63,107
250440,note_on,,,,,1,0,1,,,,,0,,,56,107
250679,note_on,,,,,479,0,0,,,,,0,,,82,0
250679,note_on,,,,,0,0,1,,,,,0,,,63,0
250679,note_on,,,,,239,0,1,,,,,0,,,56,0
250680,note_on,,,,,1,0,1,,,,,0,,,60,107
250680,note_on,,,,,1,0,0,,,,,0,,,80,107
250680,note_on,,,,,0,0,1,,,,,0,,,68,107
250907,note_on,,,,,227,0,1,,,,,0,,,60,0
250907,note_on,,,,,0,0,1,,,,,0,,,68,0
250919,note_on,,,,,239,0,0,,,,,0,,,80,0
250920,note_on,,,,,1,0,0,,,,,0,,,72,107
251159,note_on,,,,,239,0,0,,,,,0,,,72,0
251160,note_on,,,,,1,0,0,,,,,0,,,73,107
251387,note_on,,,,,227,0,0,,,,,0,,,73,0
251400,note_on,,,,,493,0,1,,,,,0,,,44,107
251639,note_on,,,,,239,0,1,,,,,0,,,44,0
251640,set_tempo,,,,,253,1,0,,187500,,,,,,,
251640,note_on,,,,,0,0,0,,,,,0,,,63,107
251759,note_on,,,,,119,0,0,,,,,0,,,63,0
251760,note_on,,,,,1,0,0,,,,,0,,,68,107
251879,note_on,,,,,119,0,0,,,,,0,,,68,0
251880,note_on,,,,,241,0,1,,,,,0,,,51,107
251880,note_on,,,,,0,0,1,,,,,0,,,60,107
251880,note_on,,,,,0,0,0,,,,,0,,,77,107
251880,set_tempo,,,,,1,1,0,,666667,,,,,,,
252119,note_on,,,,,239,0,1,,,,,0,,,51,0
252119,note_on,,,,,0,0,1,,,,,0,,,60,0
252120,note_on,,,,,1,0,1,,,,,0,,,56,107
252120,note_on,,,,,0,0,1,,,,,0,,,63,107
252359,note_on,,,,,0,0,1,,,,,0,,,63,0
252359,note_on,,,,,239,0,1,,,,,0,,,56,0
252359,note_on,,,,,479,0,0,,,,,0,,,77,0
252360,note_on,,,,,0,0,1,,,,,0,,,68,107
252360,note_on,,,,,1,0,0,,,,,0,,,75,107
252360,note_on,,,,,1,0,1,,,,,0,,,60,107
252587,note_on,,,,,0,0,1,,,,,0,,,68,0
252587,note_on,,,,,227,0,1,,,,,0,,,60,0
252599,note_on,,,,,239,0,0,,,,,0,,,75,0
252600,note_on,,,,,1,0,0,,,,,0,,,73,107
252839,note_on,,,,,239,0,0,,,,,0,,,73,0
252840,note_on,,,,,1,0,0,,,,,0,,,72,107
253067,note_on,,,,,227,0,0,,,,,0,,,72,0
253080,note_on,,,,,493,0,1,,,,,0,,,44,107
253080,time_signature,16,8,24,8,13,1,0,,,,,,,,,
253307,note_on,,,,,227,0,1,,,,,0,,,44,0
253320,note_on,,,,,0,0,0,,,,,0,,,62,107
253320,set_tempo,,,,,240,1,0,,187500,,,,,,,
253433,note_on,,,,,113,0,0,,,,,0,,,62,0
253440,note_on,,,,,7,0,0,,,,,0,,,65,107
253553,note_on,,,,,113,0,0,,,,,0,,,65,0
253560,note_on,,,,,0,0,1,,,,,0,,,62,107
253560,set_tempo,,,,,7,1,0,,666667,,,,,,,
253560,note_on,,,,,0,0,0,,,,,0,,,72,107
253560,note_on,,,,,253,0,1,,,,,0,,,53,107
253799,note_on,,,,,239,0,1,,,,,0,,,53,0
253799,note_on,,,,,0,0,1,,,,,0,,,62,0
253800,note_on,,,,,0,0,1,,,,,0,,,65,107
253800,note_on,,,,,1,0,1,,,,,0,,,56,107
254015,note_on,,,,,455,0,0,,,,,0,,,72,0
254039,note_on,,,,,0,0,1,,,,,0,,,65,0
254039,note_on,,,,,239,0,1,,,,,0,,,56,0
254040,note_on,,,,,25,0,0,,,,,0,,,70,107
254040,note_on,,,,,0,0,1,,,,,0,,,70,107
254040,note_on,,,,,1,0,1,,,,,0,,,62,107
254267,note_on,,,,,227,0,0,,,,,0,,,70,0
254267,note_on,,,,,0,0,1,,,,,0,,,70,0
254267,note_on,,,,,227,0,1,,,,,0,,,62,0
254280,note_on,,,,,13,0,0,,,,,0,,,69,107
254507,note_on,,,,,227,0,0,,,,,0,,,69,0
254520,note_on,,,,,13,0,0,,,,,0,,,70,107
254747,note_on,,,,,227,0,0,,,,,0,,,70,0
254760,note_on,,,,,13,0,0,,,,,0,,,69,107
254835,note_on,,,,,75,0,0,,,,,0,,,69,0
254840,note_on,,,,,5,0,0,,,,,0,,,70,107
254915,note_on,,,,,75,0,0,,,,,0,,,70,0
254920,note_on,,,,,5,0,0,,,,,0,,,72,107
254995,note_on,,,,,75,0,0,,,,,0,,,72,0
255000,note_on,,,,,5,0,0,,,,,0,,,70,107
255054,note_on,,,,,54,0,0,,,,,0,,,70,0
255059,note_on,,,,,5,0,0,,,,,0,,,72,107
255113,note_on,,,,,54,0,0,,,,,0,,,72,0
255120,note_on,,,,,7,0,0,,,,,0,,,70,107
255174,note_on,,,,,54,0,0,,,,,0,,,70,0
255179,note_on,,,,,5,0,0,,,,,0,,,72,107
255233,note_on,,,,,54,0,0,,,,,0,,,72,0
255240,note_on,,,,,7,0,0,,,,,0,,,70,107
255294,note_on,,,,,54,0,0,,,,,0,,,70,0
255299,note_on,,,,,5,0,0,,,,,0,,,72,107
255353,note_on,,,,,54,0,0,,,,,0,,,72,0
255360,note_on,,,,,7,0,0,,,,,0,,,70,107
255414,note_on,,,,,54,0,0,,,,,0,,,70,0
255419,note_on,,,,,5,0,0,,,,,0,,,72,107
255473,note_on,,,,,54,0,0,,,,,0,,,72,0
255480,note_on,,,,,7,0,0,,,,,0,,,70,107
255534,note_on,,,,,54,0,0,,,,,0,,,70,0
255539,note_on,,,,,5,0,0,,,,,0,,,72,107
255593,note_on,,,,,54,0,0,,,,,0,,,72,0
255600,note_on,,,,,7,0,0,,,,,0,,,70,107
255654,note_on,,,,,54,0,0,,,,,0,,,70,0
255659,note_on,,,,,5,0,0,,,,,0,,,72,107
255713,note_on,,,,,54,0,0,,,,,0,,,72,0
255720,note_on,,,,,7,0,0,,,,,0,,,70,107
255774,note_on,,,,,54,0,0,,,,,0,,,70,0
255779,note_on,,,,,5,0,0,,,,,0,,,72,107
255833,note_on,,,,,54,0,0,,,,,0,,,72,0
255840,note_on,,,,,7,0,0,,,,,0,,,70,107
255894,note_on,,,,,54,0,0,,,,,0,,,70,0
255899,note_on,,,,,5,0,0,,,,,0,,,72,107
255953,note_on,,,,,54,0,0,,,,,0,,,72,0
255960,note_on,,,,,0,0,0,,,,,0,,,69,107
255960,set_tempo,,,,,7,1,0,,545456,,,,,,,
256035,note_on,,,,,75,0,0,,,,,0,,,69,0
256040,note_on,,,,,5,0,0,,,,,0,,,70,107
256115,note_on,,,,,75,0,0,,,,,0,,,70,0
256120,note_on,,,,,5,0,0,,,,,0,,,73,107
256195,note_on,,,,,75,0,0,,,,,0,,,73,0
256200,note_on,,,,,5,0,0,,,,,0,,,74,107
256275,note_on,,,,,75,0,0,,,,,0,,,74,0
256280,note_on,,,,,5,0,0,,,,,0,,,76,107
256355,note_on,,,,,75,0,0,,,,,0,,,76,0
256360,note_on,,,,,5,0,0,,,,,0,,,77,107
256435,note_on,,,,,75,0,0,,,,,0,,,77,0
256440,note_on,,,,,5,0,0,,,,,0,,,79,107
256515,note_on,,,,,75,0,0,,,,,0,,,79,0
256520,note_on,,,,,5,0,0,,,,,0,,,80,107
256595,note_on,,,,,75,0,0,,,,,0,,,80,0
256600,note_on,,,,,5,0,0,,,,,0,,,81,107
256675,note_on,,,,,75,0,0,,,,,0,,,81,0
256680,note_on,,,,,5,0,0,,,,,0,,,82,107
256755,note_on,,,,,75,0,0,,,,,0,,,82,0
256760,note_on,,,,,5,0,0,,,,,0,,,85,107
256835,note_on,,,,,75,0,0,,,,,0,,,85,0
256840,note_on,,,,,5,0,0,,,,,0,,,86,107
256915,note_on,,,,,75,0,0,,,,,0,,,86,0
256920,time_signature,7,4,24,8,5,1,0,,,,,,,,,
256920,set_tempo,,,,,0,1,0,,666667,,,,,,,
256920,note_on,,,,,2653,0,1,,,,,0,,,44,107
257159,note_on,,,,,239,0,1,,,,,0,,,44,0
257160,note_on,,,,,0,0,0,,,,,0,,,73,107
257160,set_tempo,,,,,240,1,0,,187500,,,,,,,
257279,note_on,,,,,119,0,0,,,,,0,,,73,0
257280,note_on,,,,,1,0,0,,,,,0,,,79,107
257399,note_on,,,,,119,0,0,,,,,0,,,79,0
257400,note_on,,,,,0,0,1,,,,,0,,,61,107
257400,note_on,,,,,0,0,0,,,,,0,,,89,127
257400,note_on,,,,,241,0,1,,,,,0,,,51,107
257400,set_tempo,,,,,1,1,0,,666667,,,,,,,
257639,note_on,,,,,239,0,1,,,,,0,,,51,0
257639,note_on,,,,,0,0,1,,,,,0,,,61,0
257640,note_on,,,,,1,0,1,,,,,0,,,55,107
257640,note_on,,,,,0,0,1,,,,,0,,,63,107
257879,note_on,,,,,479,0,0,,,,,0,,,89,0
257879,note_on,,,,,239,0,1,,,,,0,,,55,0
257879,note_on,,,,,0,0,1,,,,,0,,,63,0
257880,note_on,,,,,1,0,0,,,,,0,,,87,107
257880,note_on,,,,,1,0,1,,,,,0,,,61,107
257880,note_on,,,,,0,0,1,,,,,0,,,67,107
258107,note_on,,,,,227,0,1,,,,,0,,,61,0
258107,note_on,,,,,0,0,1,,,,,0,,,67,0
258119,note_on,,,,,239,0,0,,,,,0,,,87,0
258120,note_on,,,,,1,0,0,,,,,0,,,85,107
258359,note_on,,,,,239,0,0,,,,,0,,,85,0
258360,note_on,,,,,1,0,0,,,,,0,,,82,107
258587,note_on,,,,,227,0,0,,,,,0,,,82,0
258600,note_on,,,,,493,0,1,,,,,0,,,44,107
258839,note_on,,,,,239,0,1,,,,,0,,,44,0
258840,set_tempo,,,,,253,1,0,,187500,,,,,,,
258840,note_on,,,,,0,0,0,,,,,0,,,61,107
258959,note_on,,,,,119,0,0,,,,,0,,,61,0
258960,note_on,,,,,1,0,0,,,,,0,,,67,107
259079,note_on,,,,,119,0,0,,,,,0,,,67,0
259080,set_tempo,,,,,1,1,0,,666667,,,,,,,
259080,note_on,,,,,0,0,0,,,,,0,,,77,127
259080,note_on,,,,,241,0,1,,,,,0,,,51,107
259080,note_on,,,,,0,0,1,,,,,0,,,61,107
259319,note_on,,,,,0,0,1,,,,,0,,,61,0
259319,note_on,,,,,239,0,1,,,,,0,,,51,0
259320,note_on,,,,,0,0,1,,,,,0,,,63,107
259320,note_on,,,,,1,0,1,,,,,0,,,55,107
259559,note_on,,,,,479,0,0,,,,,0,,,77,0
259559,note_on,,,,,0,0,1,,,,,0,,,63,0
259559,note_on,,,,,239,0,1,,,,,0,,,55,0
259560,note_on,,,,,0,0,1,,,,,0,,,67,107
259560,note_on,,,,,1,0,1,,,,,0,,,61,107
259560,note_on,,,,,1,0,0,,,,,0,,,75,107
259787,note_on,,,,,227,0,1,,,,,0,,,61,0
259787,note_on,,,,,0,0,1,,,,,0,,,67,0
259799,note_on,,,,,239,0,0,,,,,0,,,75,0
259800,note_on,,,,,1,0,0,,,,,0,,,73,107
260039,note_on,,,,,239,0,0,,,,,0,,,73,0
260040,note_on,,,,,1,0,0,,,,,0,,,70,107
260267,note_on,,,,,227,0,0,,,,,0,,,70,0
260280,time_signature,6,4,24,8,13,1,0,,,,,,,,,
260280,note_on,,,,,0,0,0,,,,,0,,,67,107
260280,note_on,,,,,493,0,1,,,,,0,,,44,107
260507,note_on,,,,,227,0,1,,,,,0,,,44,0
260519,note_on,,,,,239,0,0,,,,,0,,,67,0
260520,note_on,,,,,13,0,1,,,,,0,,,51,107
260520,note_on,,,,,0,0,1,,,,,0,,,60,107
260520,note_on,,,,,1,0,0,,,,,0,,,68,107
260747,note_on,,,,,227,0,1,,,,,0,,,51,0
260747,note_on,,,,,0,0,1,,,,,0,,,60,0
260759,note_on,,,,,239,0,0,,,,,0,,,68,0
260760,note_on,,,,,1,0,0,,,,,0,,,72,107
260760,note_on,,,,,0,0,1,,,,,0,,,63,107
260760,note_on,,,,,13,0,1,,,,,0,,,56,107
260987,note_on,,,,,0,0,1,,,,,0,,,63,0
260987,note_on,,,,,227,0,1,,,,,0,,,56,0
260999,note_on,,,,,239,0,0,,,,,0,,,72,0
261000,note_on,,,,,0,0,1,,,,,0,,,68,107
261000,note_on,,,,,13,0,1,,,,,0,,,60,107
261000,note_on,,,,,1,0,0,,,,,0,,,75,107
261227,note_on,,,,,0,0,1,,,,,0,,,68,0
261227,note_on,,,,,227,0,1,,,,,0,,,60,0
261239,note_on,,,,,239,0,0,,,,,0,,,75,0
261240,note_on,,,,,1,0,0,,,,,0,,,79,107
261359,note_on,,,,,119,0,0,,,,,0,,,79,0
261360,note_on,,,,,1,0,0,,,,,0,,,80,107
261479,note_on,,,,,119,0,0,,,,,0,,,80,0
261480,note_on,,,,,1,0,0,,,,,0,,,84,107
261559,note_on,,,,,79,0,0,,,,,0,,,84,0
261560,note_on,,,,,1,0,0,,,,,0,,,87,107
261639,note_on,,,,,79,0,0,,,,,0,,,87,0
261640,note_on,,,,,1,0,0,,,,,0,,,96,107
261719,note_on,,,,,79,0,0,,,,,0,,,96,0
261720,note_on,,,,,1,0,0,,,,,0,,,92,107
261960,note_on,,,,,0,0,1,,,,,0,,,68,107
261960,note_on,,,,,733,0,1,,,,,0,,,60,107
262175,note_on,,,,,455,0,0,,,,,0,,,92,0
262199,note_on,,,,,239,0,1,,,,,0,,,60,0
262199,note_on,,,,,0,0,1,,,,,0,,,68,0
262200,note_on,,,,,1,0,1,,,,,0,,,63,107
262200,note_on,,,,,0,0,1,,,,,0,,,72,107
262439,note_on,,,,,239,0,1,,,,,0,,,63,0
262439,note_on,,,,,0,0,1,,,,,0,,,72,0
262440,note_on,,,,,0,0,1,,,,,0,,,75,107
262440,note_on,,,,,1,0,1,,,,,0,,,68,107
262553,note_on,,,,,0,0,1,,,,,0,,,75,0
262553,note_on,,,,,113,0,1,,,,,0,,,68,0
262560,note_on,,,,,0,0,0,,,,,0,,,75,107
262560,set_tempo,,,,,385,1,0,,2000000,,,,,,,
262581,note_on,,,,,21,0,0,,,,,0,,,75,0
262584,note_on,,,,,3,0,0,,,,,0,,,77,107
262605,note_on,,,,,21,0,0,,,,,0,,,77,0
262608,note_on,,,,,3,0,0,,,,,0,,,75,107
262629,note_on,,,,,21,0,0,,,,,0,,,75,0
262632,note_on,,,,,3,0,0,,,,,0,,,74,107
262653,note_on,,,,,21,0,0,,,,,0,,,74,0
262656,note_on,,,,,3,0,0,,,,,0,,,75,107
262677,note_on,,,,,21,0,0,,,,,0,,,75,0
262680,note_on,,,,,0,0,0,,,,,0,,,83,107
262680,set_tempo,,,,,3,1,0,,1200000,,,,,,,
262769,note_on,,,,,89,0,0,,,,,0,,,83,0
262860,note_on,,,,,91,0,0,,,,,0,,,84,107
262916,note_on,,,,,56,0,0,,,,,0,,,84,0
262920,note_on,,,,,4,0,0,,,,,0,,,78,107
263099,note_on,,,,,179,0,0,,,,,0,,,78,0
263100,note_on,,,,,1,0,0,,,,,0,,,79,107
263156,note_on,,,,,56,0,0,,,,,0,,,79,0
263160,note_on,,,,,607,0,1,,,,,0,,,44,107
263160,set_tempo,,,,,0,1,0,,666667,,,,,,,
263160,time_signature,7,4,24,8,4,1,0,,,,,,,,,
263387,note_on,,,,,227,0,1,,,,,0,,,44,0
263400,set_tempo,,,,,240,1,0,,187500,,,,,,,
263400,note_on,,,,,0,0,0,,,,,0,,,63,107
263513,note_on,,,,,113,0,0,,,,,0,,,63,0
263520,note_on,,,,,7,0,0,,,,,0,,,72,107
263633,note_on,,,,,113,0,0,,,,,0,,,72,0
263640,note_on,,,,,0,0,0,,,,,0,,,82,127
263640,set_tempo,,,,,7,1,0,,666667,,,,,,,
263640,note_on,,,,,253,0,1,,,,,0,,,51,107
263640,note_on,,,,,0,0,1,,,,,0,,,60,107
263867,note_on,,,,,0,0,1,,,,,0,,,60,0
263867,note_on,,,,,227,0,1,,,,,0,,,51,0
263880,note_on,,,,,0,0,1,,,,,0,,,63,107
263880,note_on,,,,,13,0,1,,,,,0,,,56,107
264107,note_on,,,,,0,0,1,,,,,0,,,63,0
264107,note_on,,,,,227,0,1,,,,,0,,,56,0
264119,note_on,,,,,479,0,0,,,,,0,,,82,0
264120,note_on,,,,,0,0,1,,,,,0,,,68,107
264120,note_on,,,,,13,0,1,,,,,0,,,60,107
264120,note_on,,,,,1,0,0,,,,,0,,,80,107
264347,note_on,,,,,227,0,1,,,,,0,,,60,0
264347,note_on,,,,,0,0,1,,,,,0,,,68,0
264359,note_on,,,,,239,0,0,,,,,0,,,80,0
264360,note_on,,,,,1,0,0,,,,,0,,,72,107
264599,note_on,,,,,239,0,0,,,,,0,,,72,0
264600,note_on,,,,,1,0,0,,,,,0,,,73,107
264827,note_on,,,,,227,0,0,,,,,0,,,73,0
264840,note_on,,,,,493,0,1,,,,,0,,,44,107
265067,note_on,,,,,227,0,1,,,,,0,,,44,0
265080,note_on,,,,,0,0,0,,,,,0,,,63,107
265080,set_tempo,,,,,253,1,0,,187500,,,,,,,
265193,note_on,,,,,113,0,0,,,,,0,,,63,0
265200,note_on,,,,,7,0,0,,,,,0,,,68,107
265313,note_on,,,,,113,0,0,,,,,0,,,68,0
265320,note_on,,,,,0,0,1,,,,,0,,,60,107
265320,note_on,,,,,253,0,1,,,,,0,,,51,107
265320,note_on,,,,,0,0,0,,,,,0,,,77,107
265320,set_tempo,,,,,7,1,0,,666667,,,,,,,
265547,note_on,,,,,227,0,1,,,,,0,,,51,0
265547,note_on,,,,,0,0,1,,,,,0,,,60,0
265560,note_on,,,,,0,0,1,,,,,0,,,63,107
265560,note_on,,,,,13,0,1,,,,,0,,,56,107
265707,note_on,,,,,387,0,0,,,,,0,,,77,0
265720,note_on,,,,,13,0,0,,,,,0,,,76,107
265787,note_on,,,,,0,0,1,,,,,0,,,63,0
265787,note_on,,,,,227,0,1,,,,,0,,,56,0
265799,note_on,,,,,79,0,0,,,,,0,,,76,0
265800,note_on,,,,,0,0,1,,,,,0,,,68,107
265800,note_on,,,,,13,0,1,,,,,0,,,60,107
265880,note_on,,,,,81,0,0,,,,,0,,,75,107
265959,note_on,,,,,79,0,0,,,,,0,,,75,0
266027,note_on,,,,,0,0,1,,,,,0,,,68,0
266027,note_on,,,,,227,0,1,,,,,0,,,60,0
266040,note_on,,,,,81,0,0,,,,,0,,,74,107
266119,note_on,,,,,79,0,0,,,,,0,,,74,0
266200,note_on,,,,,81,0,0,,,,,0,,,73,107
266279,note_on,,,,,79,0,0,,,,,0,,,73,0
266360,note_on,,,,,81,0,0,,,,,0,,,72,107
266439,note_on,,,,,79,0,0,,,,,0,,,72,0
266520,note_on,,,,,493,0,1,,,,,0,,,38,107
266520,time_signature,16,8,24,8,81,1,0,,,,,,,,,
266747,note_on,,,,,227,0,1,,,,,0,,,38,0
266760,set_tempo,,,,,240,1,0,,187500,,,,,,,
266760,note_on,,,,,0,0,0,,,,,0,,,56,107
266873,note_on,,,,,113,0,0,,,,,0,,,56,0
266880,note_on,,,,,7,0,0,,,,,0,,,65,107
266993,note_on,,,,,113,0,0,,,,,0,,,65,0
267000,note_on,,,,,0,0,0,,,,,0,,,72,107
267000,note_on,,,,,0,0,1,,,,,0,,,58,107
267000,set_tempo,,,,,7,1,0,,666667,,,,,,,
267000,note_on,,,,,253,0,1,,,,,0,,,50,107
267227,note_on,,,,,227,0,1,,,,,0,,,50,0
267227,note_on,,,,,0,0,1,,,,,0,,,58,0
267240,note_on,,,,,13,0,1,,,,,0,,,53,107
267240,note_on,,,,,0,0,1,,,,,0,,,62,107
267379,note_on,,,,,379,0,0,,,,,0,,,72,0
267400,note_on,,,,,21,0,0,,,,,0,,,71,107
267467,note_on,,,,,227,0,1,,,,,0,,,53,0
267467,note_on,,,,,0,0,1,,,,,0,,,62,0
267479,note_on,,,,,79,0,0,,,,,0,,,71,0
267480,note_on,,,,,13,0,1,,,,,0,,,56,107
267480,note_on,,,,,0,0,1,,,,,0,,,65,107
267560,note_on,,,,,81,0,0,,,,,0,,,70,107
267639,note_on,,,,,79,0,0,,,,,0,,,70,0
267707,note_on,,,,,227,0,1,,,,,0,,,56,0
267707,note_on,,,,,0,0,1,,,,,0,,,65,0
267720,note_on,,,,,81,0,0,,,,,0,,,69,107
267779,note_on,,,,,59,0,0,,,,,0,,,69,0
267840,note_on,,,,,61,0,0,,,,,0,,,72,107
267899,note_on,,,,,59,0,0,,,,,0,,,72,0
267960,note_on,,,,,61,0,0,,,,,0,,,71,107
268019,note_on,,,,,59,0,0,,,,,0,,,71,0
268080,note_on,,,,,61,0,0,,,,,0,,,70,107
268139,note_on,,,,,59,0,0,,,,,0,,,70,0
268200,note_on,,,,,0,0,0,,,,,0,,,69,107
268200,set_tempo,,,,,61,1,0,,333333,,,,,,,
268275,note_on,,,,,75,0,0,,,,,0,,,69,0
268280,note_on,,,,,5,0,0,,,,,0,,,70,107
268355,note_on,,,,,75,0,0,,,,,0,,,70,0
268360,note_on,,,,,5,0,0,,,,,0,,,72,107
268435,note_on,,,,,75,0,0,,,,,0,,,72,0
268440,set_tempo,,,,,5,1,0,,666667,,,,,,,
268440,note_on,,,,,0,0,0,,,,,0,,,70,107
268494,note_on,,,,,54,0,0,,,,,0,,,70,0
268499,note_on,,,,,5,0,0,,,,,0,,,72,107
268553,note_on,,,,,54,0,0,,,,,0,,,72,0
268560,note_on,,,,,7,0,0,,,,,0,,,70,107
268614,note_on,,,,,54,0,0,,,,,0,,,70,0
268619,note_on,,,,,5,0,0,,,,,0,,,72,107
268673,note_on,,,,,54,0,0,,,,,0,,,72,0
268680,note_on,,,,,7,0,0,,,,,0,,,70,107
268734,note_on,,,,,54,0,0,,,,,0,,,70,0
268739,note_on,,,,,5,0,0,,,,,0,,,72,107
268793,note_on,,,,,54,0,0,,,,,0,,,72,0
268800,note_on,,,,,7,0,0,,,,,0,,,70,107
268854,note_on,,,,,54,0,0,,,,,0,,,70,0
268859,note_on,,,,,5,0,0,,,,,0,,,72,107
268913,note_on,,,,,54,0,0,,,,,0,,,72,0
268920,note_on,,,,,0,0,1,,,,,0,,,65,107
268920,note_on,,,,,7,0,0,,,,,0,,,70,107
268920,note_on,,,,,1213,0,1,,,,,0,,,50,107
268920,note_on,,,,,0,0,1,,,,,0,,,56,107
268920,note_on,,,,,0,0,1,,,,,0,,,58,107
268974,note_on,,,,,54,0,0,,,,,0,,,70,0
268979,note_on,,,,,5,0,0,,,,,0,,,72,107
269033,note_on,,,,,54,0,0,,,,,0,,,72,0
269040,note_on,,,,,7,0,0,,,,,0,,,70,107
269094,note_on,,,,,54,0,0,,,,,0,,,70,0
269099,note_on,,,,,5,0,0,,,,,0,,,72,107
269147,note_on,,,,,0,0,1,,,,,0,,,58,0
269147,note_on,,,,,0,0,1,,,,,0,,,65,0
269147,note_on,,,,,227,0,1,,,,,0,,,50,0
269147,note_on,,,,,0,0,1,,,,,0,,,56,0
269153,note_on,,,,,54,0,0,,,,,0,,,72,0
269160,note_on,,,,,7,0,0,,,,,0,,,70,107
269214,note_on,,,,,54,0,0,,,,,0,,,70,0
269219,note_on,,,,,5,0,0,,,,,0,,,72,107
269273,note_on,,,,,54,0,0,,,,,0,,,72,0
269280,note_on,,,,,7,0,0,,,,,0,,,70,107
269334,note_on,,,,,54,0,0,,,,,0,,,70,0
269339,note_on,,,,,5,0,0,,,,,0,,,72,107
269393,note_on,,,,,54,0,0,,,,,0,,,72,0
269400,set_tempo,,,,,7,1,0,,545456,,,,,,,
269400,note_on,,,,,0,0,0,,,,,0,,,69,107
269456,note_on,,,,,56,0,0,,,,,0,,,69,0
269460,note_on,,,,,4,0,0,,,,,0,,,70,107
269516,note_on,,,,,56,0,0,,,,,0,,,70,0
269520,note_on,,,,,4,0,0,,,,,0,,,71,107
269576,note_on,,,,,56,0,0,,,,,0,,,71,0
269580,note_on,,,,,4,0,0,,,,,0,,,72,107
269636,note_on,,,,,56,0,0,,,,,0,,,72,0
269640,note_on,,,,,4,0,0,,,,,0,,,73,108
269696,note_on,,,,,56,0,0,,,,,0,,,73,0
269700,note_on,,,,,4,0,0,,,,,0,,,74,108
269756,note_on,,,,,56,0,0,,,,,0,,,74,0
269760,set_tempo,,,,,4,1,0,,705881,,,,,,,
269760,note_on,,,,,0,0,0,,,,,0,,,75,108
269816,note_on,,,,,56,0,0,,,,,0,,,75,0
269820,note_on,,,,,4,0,0,,,,,0,,,76,109
269876,note_on,,,,,56,0,0,,,,,0,,,76,0
269880,note_on,,,,,4,0,0,,,,,0,,,77,109
269936,note_on,,,,,56,0,0,,,,,0,,,77,0
269940,set_tempo,,,,,4,1,0,,857140,,,,,,,
269940,note_on,,,,,0,0,0,,,,,0,,,78,109
269996,note_on,,,,,56,0,0,,,,,0,,,78,0
270000,note_on,,,,,4,0,0,,,,,0,,,79,110
270056,note_on,,,,,56,0,0,,,,,0,,,79,0
270060,note_on,,,,,4,0,0,,,,,0,,,80,110
270116,note_on,,,,,56,0,0,,,,,0,,,80,0
270120,note_on,,,,,0,0,0,,,,,0,,,81,110
270120,set_tempo,,,,,4,1,0,,1333333,,,,,,,
270176,note_on,,,,,56,0,0,,,,,0,,,81,0
270180,note_on,,,,,4,0,0,,,,,0,,,82,111
270236,note_on,,,,,56,0,0,,,,,0,,,82,0
270240,note_on,,,,,4,0,0,,,,,0,,,83,111
270296,note_on,,,,,56,0,0,,,,,0,,,83,0
270300,note_on,,,,,0,0,0,,,,,0,,,84,111
270300,set_tempo,,,,,4,1,0,,2399998,,,,,,,
270356,note_on,,,,,56,0,0,,,,,0,,,84,0
270360,note_on,,,,,1213,0,1,,,,,0,,,37,112
270360,time_signature,6,4,24,8,4,1,0,,,,,,,,,
270360,note_on,,,,,0,0,1,,,,,0,,,49,112
270360,set_tempo,,,,,0,1,0,,666667,,,,,,,
270362,control_change,,,,,2,0,1,,,64,127,0,,,,
270587,note_on,,,,,225,0,1,,,,,0,,,37,0
270587,note_on,,,,,0,0,1,,,,,0,,,49,0
270600,note_on,,,,,0,0,1,,,,,0,,,58,112
270600,note_on,,,,,240,0,0,,,,,0,,,75,127
270600,note_on,,,,,0,0,0,,,,,0,,,87,127
270600,note_on,,,,,0,0,1,,,,,0,,,54,112
270600,note_on,,,,,13,0,1,,,,,0,,,49,112
270827,note_on,,,,,0,0,1,,,,,0,,,58,0
270827,note_on,,,,,0,0,1,,,,,0,,,54,0
270827,note_on,,,,,227,0,1,,,,,0,,,49,0
270840,note_on,,,,,13,0,1,,,,,0,,,54,112
270840,note_on,,,,,0,0,1,,,,,0,,,58,112
270840,note_on,,,,,0,0,1,,,,,0,,,61,112
270840,note_on,,,,,240,0,0,,,,,0,,,78,112
270840,note_on,,,,,0,0,0,,,,,0,,,82,112
271067,note_on,,,,,227,0,1,,,,,0,,,54,0
271067,note_on,,,,,0,0,1,,,,,0,,,61,0
271067,note_on,,,,,0,0,1,,,,,0,,,58,0
271079,note_on,,,,,239,0,0,,,,,0,,,75,0
271079,note_on,,,,,0,0,0,,,,,0,,,78,0
271079,note_on,,,,,0,0,0,,,,,0,,,82,0
271079,note_on,,,,,0,0,0,,,,,0,,,87,0
271080,note_on,,,,,13,0,1,,,,,0,,,58,112
271080,note_on,,,,,1,0,0,,,,,0,,,73,112
271080,note_on,,,,,0,0,1,,,,,0,,,61,112
271080,note_on,,,,,0,0,1,,,,,0,,,66,112
271080,note_on,,,,,0,0,0,,,,,0,,,85,112
271307,note_on,,,,,227,0,1,,,,,0,,,58,0
271307,note_on,,,,,0,0,1,,,,,0,,,66,0
271307,note_on,,,,,0,0,1,,,,,0,,,61,0
271319,note_on,,,,,0,0,0,,,,,0,,,85,0
271319,note_on,,,,,239,0,0,,,,,0,,,73,0
271320,note_on,,,,,0,0,0,,,,,0,,,82,112
271320,note_on,,,,,1,0,0,,,,,0,,,70,112
271559,note_on,,,,,0,0,0,,,,,0,,,82,0
271559,note_on,,,,,239,0,0,,,,,0,,,70,0
271560,note_on,,,,,0,0,0,,,,,0,,,78,112
271560,note_on,,,,,1,0,0,,,,,0,,,66,112
271787,note_on,,,,,227,0,0,,,,,0,,,66,0
271787,note_on,,,,,0,0,0,,,,,0,,,78,0
271800,note_on,,,,,0,0,1,,,,,0,,,37,112
271800,note_on,,,,,493,0,1,,,,,0,,,25,112
271801,control_change,,,,,1,0,1,,,64,0,0,,,,
271802,control_change,,,,,1,0,1,,,64,127,0,,,,
272027,note_on,,,,,0,0,1,,,,,0,,,37,0
272027,note_on,,,,,225,0,1,,,,,0,,,25,0
272040,note_on,,,,,253,0,0,,,,,0,,,63,112
272040,note_on,,,,,0,0,0,,,,,0,,,75,112
272280,note_on,,,,,0,0,1,,,,,0,,,65,112
272280,note_on,,,,,253,0,1,,,,,0,,,49,112
272280,note_on,,,,,0,0,1,,,,,0,,,56,112
272280,note_on,,,,,0,0,1,,,,,0,,,59,112
272358,note_on,,,,,0,0,1,,,,,0,,,65,0
272358,note_on,,,,,78,0,1,,,,,0,,,49,0
272358,note_on,,,,,0,0,1,,,,,0,,,59,0
272358,note_on,,,,,0,0,1,,,,,0,,,56,0
272495,note_on,,,,,0,0,0,,,,,0,,,75,0
272495,note_on,,,,,455,0,0,,,,,0,,,63,0
272520,note_on,,,,,25,0,0,,,,,0,,,62,112
272520,note_on,,,,,0,0,0,,,,,0,,,74,112
272760,note_on,,,,,402,0,1,,,,,0,,,53,112
272760,note_on,,,,,0,0,1,,,,,0,,,68,112
272760,note_on,,,,,0,0,1,,,,,0,,,59,112
272838,note_on,,,,,0,0,1,,,,,0,,,68,0
272838,note_on,,,,,78,0,1,,,,,0,,,53,0
272838,note_on,,,,,0,0,1,,,,,0,,,59,0
272975,note_on,,,,,455,0,0,,,,,0,,,62,0
272975,note_on,,,,,0,0,0,,,,,0,,,74,0
273000,note_on,,,,,0,0,0,,,,,0,,,73,112
273000,note_on,,,,,25,0,0,,,,,0,,,61,112
273227,note_on,,,,,0,0,0,,,,,0,,,73,0
273227,note_on,,,,,227,0,0,,,,,0,,,61,0
273240,note_on,,,,,402,0,1,,,,,0,,,37,112
273240,note_on,,,,,0,0,1,,,,,0,,,49,112
273241,control_change,,,,,1,0,1,,,64,0,0,,,,
273242,control_change,,,,,1,0,1,,,64,127,0,,,,
273467,note_on,,,,,225,0,1,,,,,0,,,37,0
273467,note_on,,,,,0,0,1,,,,,0,,,49,0
273480,note_on,,,,,0,0,1,,,,,0,,,54,112
273480,note_on,,,,,0,0,1,,,,,0,,,58,112
273480,note_on,,,,,0,0,0,,,,,0,,,92,127
273480,note_on,,,,,253,0,0,,,,,0,,,80,127
273480,note_on,,,,,13,0,1,,,,,0,,,49,112
273707,note_on,,,,,0,0,1,,,,,0,,,54,0
273707,note_on,,,,,0,0,1,,,,,0,,,58,0
273707,note_on,,,,,227,0,1,,,,,0,,,49,0
273720,note_on,,,,,0,0,1,,,,,0,,,61,112
273720,note_on,,,,,0,0,1,,,,,0,,,58,112
273720,note_on,,,,,13,0,1,,,,,0,,,54,112
273720,note_on,,,,,240,0,0,,,,,0,,,82,112
273720,note_on,,,,,0,0,0,,,,,0,,,85,112
273947,note_on,,,,,227,0,1,,,,,0,,,54,0
273947,note_on,,,,,0,0,1,,,,,0,,,61,0
273947,note_on,,,,,0,0,1,,,,,0,,,58,0
273959,note_on,,,,,239,0,0,,,,,0,,,80,0
273959,note_on,,,,,0,0,0,,,,,0,,,85,0
273959,note_on,,,,,0,0,0,,,,,0,,,82,0
273959,note_on,,,,,0,0,0,,,,,0,,,92,0
273960,note_on,,,,,13,0,1,,,,,0,,,58,112
273960,note_on,,,,,0,0,1,,,,,0,,,66,112
273960,note_on,,,,,0,0,1,,,,,0,,,61,112
273960,note_on,,,,,1,0,0,,,,,0,,,78,112
273960,note_on,,,,,0,0,0,,,,,0,,,90,112
274187,note_on,,,,,0,0,1,,,,,0,,,61,0
274187,note_on,,,,,227,0,1,,,,,0,,,58,0
274187,note_on,,,,,0,0,1,,,,,0,,,66,0
274199,note_on,,,,,0,0,0,,,,,0,,,90,0
274199,note_on,,,,,239,0,0,,,,,0,,,78,0
274200,note_on,,,,,0,0,0,,,,,0,,,85,112
274200,note_on,,,,,1,0,0,,,,,0,,,73,112
274439,note_on,,,,,0,0,0,,,,,0,,,85,0
274439,note_on,,,,,239,0,0,,,,,0,,,73,0
274440,note_on,,,,,0,0,0,,,,,0,,,82,112
274440,note_on,,,,,1,0,0,,,,,0,,,70,112
274667,note_on,,,,,227,0,0,,,,,0,,,70,0
274667,note_on,,,,,0,0,0,,,,,0,,,82,0
274680,note_on,,,,,0,0,1,,,,,0,,,38,112
274680,note_on,,,,,493,0,1,,,,,0,,,26,112
274681,control_change,,,,,1,0,1,,,64,0,0,,,,
274682,control_change,,,,,1,0,1,,,64,127,0,,,,
274907,note_on,,,,,0,0,1,,,,,0,,,38,0
274907,note_on,,,,,225,0,1,,,,,0,,,26,0
274920,note_on,,,,,253,0,0,,,,,0,,,70,127
274920,note_on,,,,,0,0,0,,,,,0,,,82,127
275160,note_on,,,,,0,0,1,,,,,0,,,59,112
275160,note_on,,,,,253,0,1,,,,,0,,,50,112
275160,note_on,,,,,0,0,1,,,,,0,,,56,112
275160,note_on,,,,,0,0,1,,,,,0,,,65,112
275387,note_on,,,,,0,0,1,,,,,0,,,59,0
275387,note_on,,,,,0,0,1,,,,,0,,,65,0
275387,note_on,,,,,0,0,1,,,,,0,,,56,0
275387,note_on,,,,,227,0,1,,,,,0,,,50,0
275399,note_on,,,,,0,0,0,,,,,0,,,82,0
275399,note_on,,,,,479,0,0,,,,,0,,,70,0
275400,note_on,,,,,0,0,0,,,,,0,,,81,112
275400,note_on,,,,,1,0,0,,,,,0,,,69,112
275640,note_on,,,,,0,0,1,,,,,0,,,71,112
275640,note_on,,,,,253,0,1,,,,,0,,,56,112
275640,note_on,,,,,0,0,1,,,,,0,,,65,112
275640,note_on,,,,,0,0,1,,,,,0,,,62,112
275855,note_on,,,,,455,0,0,,,,,0,,,69,0
275855,note_on,,,,,0,0,0,,,,,0,,,81,0
275867,note_on,,,,,0,0,1,,,,,0,,,62,0
275867,note_on,,,,,227,0,1,,,,,0,,,56,0
275867,note_on,,,,,0,0,1,,,,,0,,,71,0
275867,note_on,,,,,0,0,1,,,,,0,,,65,0
275880,note_on,,,,,25,0,0,,,,,0,,,68,112
275880,note_on,,,,,0,0,0,,,,,0,,,80,112
276107,note_on,,,,,227,0,0,,,,,0,,,68,0
276107,note_on,,,,,0,0,0,,,,,0,,,80,0
276120,note_on,,,,,253,0,1,,,,,0,,,27,112
276120,note_on,,,,,0,0,1,,,,,0,,,39,112
276121,control_change,,,,,1,0,1,,,64,0,0,,,,
276122,control_change,,,,,1,0,1,,,64,127,0,,,,
276347,note_on,,,,,0,0,1,,,,,0,,,39,0
276347,note_on,,,,,225,0,1,,,,,0,,,27,0
276360,note_on,,,,,13,0,1,,,,,0,,,51,127
276360,note_on,,,,,0,0,0,,,,,0,,,77,127
276360,note_on,,,,,0,0,0,,,,,0,,,80,127
276360,note_on,,,,,0,0,0,,,,,0,,,84,127
276360,set_tempo,,,,,253,1,0,,766667,,,,,,,
276360,note_on,,,,,0,0,0,,,,,0,,,89,127
276360,note_on,,,,,0,0,1,,,,,0,,,60,127
276360,note_on,,,,,0,0,1,,,,,0,,,65,127
276360,note_on,,,,,0,0,1,,,,,0,,,56,127
276680,note_on,,,,,320,0,0,,,,,0,,,77,0
276680,note_on,,,,,0,0,0,,,,,0,,,80,0
276680,note_on,,,,,0,0,1,,,,,0,,,60,0
276680,note_on,,,,,0,0,1,,,,,0,,,56,0
276680,note_on,,,,,0,0,1,,,,,0,,,65,0
276680,note_on,,,,,0,0,0,,,,,0,,,89,0
276680,note_on,,,,,320,0,1,,,,,0,,,51,0
276680,note_on,,,,,0,0,0,,,,,0,,,84,0
276839,set_tempo,,,,,159,1,0,,666667,,,,,,,
276840,note_on,,,,,160,0,1,,,,,0,,,51,112
276840,note_on,,,,,0,0,1,,,,,0,,,63,112
276840,note_on,,,,,0,0,0,,,,,0,,,80,112
276840,note_on,,,,,0,0,1,,,,,0,,,60,112
276840,note_on,,,,,0,0,1,,,,,0,,,56,112
276840,note_on,,,,,1,0,0,,,,,0,,,75,112
276840,note_on,,,,,0,0,0,,,,,0,,,87,112
277067,note_on,,,,,0,0,1,,,,,0,,,56,0
277067,note_on,,,,,0,0,1,,,,,0,,,60,0
277067,note_on,,,,,0,0,1,,,,,0,,,63,0
277067,note_on,,,,,227,0,0,,,,,0,,,75,0
277067,note_on,,,,,227,0,1,,,,,0,,,51,0
277067,note_on,,,,,0,0,0,,,,,0,,,80,0
277067,note_on,,,,,0,0,0,,,,,0,,,87,0
277080,note_on,,,,,13,0,0,,,,,0,,,72,112
277080,note_on,,,,,0,0,1,,,,,0,,,56,112
277080,note_on,,,,,0,0,1,,,,,0,,,60,112
277080,note_on,,,,,0,0,1,,,,,0,,,63,112
277080,note_on,,,,,0,0,0,,,,,0,,,75,112
277080,note_on,,,,,0,0,0,,,,,0,,,84,112
277080,note_on,,,,,13,0,1,,,,,0,,,51,112
277307,note_on,,,,,227,0,1,,,,,0,,,51,0
277307,note_on,,,,,0,0,0,,,,,0,,,75,0
277307,note_on,,,,,0,0,1,,,,,0,,,63,0
277307,note_on,,,,,0,0,0,,,,,0,,,84,0
277307,note_on,,,,,0,0,1,,,,,0,,,60,0
277307,note_on,,,,,227,0,0,,,,,0,,,72,0
277307,note_on,,,,,0,0,1,,,,,0,,,56,0
277320,note_on,,,,,13,0,0,,,,,0,,,68,112
277320,note_on,,,,,0,0,0,,,,,0,,,75,112
277320,note_on,,,,,0,0,0,,,,,0,,,80,112
277320,note_on,,,,,13,0,1,,,,,0,,,51,112
277320,note_on,,,,,0,0,1,,,,,0,,,60,112
277320,note_on,,,,,0,0,1,,,,,0,,,56,112
277320,note_on,,,,,0,0,1,,,,,0,,,63,112
277321,control_change,,,,,1,0,1,,,64,0,0,,,,
277547,note_on,,,,,226,0,1,,,,,0,,,51,0
277547,note_on,,,,,0,0,1,,,,,0,,,56,0
277547,note_on,,,,,0,0,1,,,,,0,,,60,0
277547,note_on,,,,,0,0,0,,,,,0,,,75,0
277547,note_on,,,,,0,0,0,,,,,0,,,80,0
277547,note_on,,,,,0,0,1,,,,,0,,,63,0
277547,note_on,,,,,227,0,0,,,,,0,,,68,0
277560,note_on,,,,,0,0,1,,,,,0,,,63,112
277560,note_on,,,,,13,0,0,,,,,0,,,65,112
277560,note_on,,,,,0,0,0,,,,,0,,,69,112
277560,note_on,,,,,13,0,1,,,,,0,,,51,112
277560,note_on,,,,,0,0,1,,,,,0,,,57,112
277560,note_on,,,,,0,0,1,,,,,0,,,60,112
277560,note_on,,,,,0,0,0,,,,,0,,,77,112
277562,control_change,,,,,2,0,1,,,64,127,0,,,,
277787,note_on,,,,,0,0,0,,,,,0,,,77,0
277787,note_on,,,,,227,0,0,,,,,0,,,65,0
277787,note_on,,,,,0,0,0,,,,,0,,,69,0
277787,note_on,,,,,0,0,1,,,,,0,,,57,0
277787,note_on,,,,,0,0,1,,,,,0,,,63,0
277787,note_on,,,,,0,0,1,,,,,0,,,60,0
277787,note_on,,,,,225,0,1,,,,,0,,,51,0
277800,note_on,,,,,0,0,1,,,,,0,,,60,112
277800,note_on,,,,,0,0,1,,,,,0,,,57,112
277800,note_on,,,,,13,0,1,,,,,0,,,51,112
277800,note_on,,,,,0,0,1,,,,,0,,,63,112
277800,note_on,,,,,0,0,0,,,,,0,,,69,112
277800,note_on,,,,,13,0,0,,,,,0,,,65,112
277800,note_on,,,,,0,0,0,,,,,0,,,75,112
278027,note_on,,,,,0,0,0,,,,,0,,,69,0
278027,note_on,,,,,0,0,0,,,,,0,,,75,0
278027,note_on,,,,,227,0,1,,,,,0,,,51,0
278027,note_on,,,,,227,0,0,,,,,0,,,65,0
278027,note_on,,,,,0,0,1,,,,,0,,,57,0
278027,note_on,,,,,0,0,1,,,,,0,,,60,0
278027,note_on,,,,,0,0,1,,,,,0,,,63,0
278040,note_on,,,,,13,0,0,,,,,0,,,63,112
278040,note_on,,,,,13,0,1,,,,,0,,,51,112
278040,note_on,,,,,0,0,1,,,,,0,,,60,112
278040,note_on,,,,,0,0,0,,,,,0,,,72,112
278040,note_on,,,,,0,0,0,,,,,0,,,65,112
278040,note_on,,,,,0,0,1,,,,,0,,,57,112
278267,note_on,,,,,0,0,0,,,,,0,,,65,0
278267,note_on,,,,,227,0,1,,,,,0,,,51,0
278267,note_on,,,,,227,0,0,,,,,0,,,63,0
278267,note_on,,,,,0,0,1,,,,,0,,,60,0
278267,note_on,,,,,0,0,0,,,,,0,,,72,0
278267,note_on,,,,,0,0,1,,,,,0,,,57,0
278280,note_on,,,,,0,0,1,,,,,0,,,57,112
278280,note_on,,,,,0,0,1,,,,,0,,,60,112
278280,note_on,,,,,0,0,0,,,,,0,,,65,112
278280,note_on,,,,,13,0,0,,,,,0,,,63,112
278280,note_on,,,,,13,0,1,,,,,0,,,51,112
278280,note_on,,,,,0,0,0,,,,,0,,,69,112
278507,note_on,,,,,0,0,1,,,,,0,,,57,0
278507,note_on,,,,,0,0,1,,,,,0,,,60,0
278507,note_on,,,,,227,0,0,,,,,0,,,63,0
278507,note_on,,,,,0,0,0,,,,,0,,,65,0
278507,note_on,,,,,227,0,1,,,,,0,,,51,0
278507,note_on,,,,,0,0,0,,,,,0,,,69,0
278520,note_on,,,,,0,0,0,,,,,0,,,66,112
278520,note_on,,,,,13,0,1,,,,,0,,,51,112
278520,note_on,,,,,0,0,0,,,,,0,,,63,112
278520,note_on,,,,,0,0,1,,,,,0,,,57,112
278520,note_on,,,,,13,0,0,,,,,0,,,60,112
278747,note_on,,,,,0,0,0,,,,,0,,,63,0
278747,note_on,,,,,227,0,1,,,,,0,,,51,0
278747,note_on,,,,,0,0,0,,,,,0,,,66,0
278747,note_on,,,,,227,0,0,,,,,0,,,60,0
278747,note_on,,,,,0,0,1,,,,,0,,,57,0
278760,note_on,,,,,13,0,0,,,,,0,,,60,112
278760,note_on,,,,,0,0,0,,,,,0,,,65,112
278760,note_on,,,,,0,0,1,,,,,0,,,57,112
278760,note_on,,,,,0,0,0,,,,,0,,,63,112
278760,note_on,,,,,13,0,1,,,,,0,,,51,112
278987,note_on,,,,,0,0,0,,,,,0,,,65,0
278987,note_on,,,,,0,0,1,,,,,0,,,57,0
278987,note_on,,,,,227,0,0,,,,,0,,,60,0
278987,note_on,,,,,227,0,1,,,,,0,,,51,0
278987,note_on,,,,,0,0,0,,,,,0,,,63,0
279000,note_on,,,,,13,0,1,,,,,0,,,27,112
279000,note_on,,,,,0,0,1,,,,,0,,,39,112
279001,control_change,,,,,1,0,1,,,64,0,0,,,,
279002,control_change,,,,,1,0,1,,,64,127,0,,,,
279227,note_on,,,,,0,0,1,,,,,0,,,39,0
279227,note_on,,,,,225,0,1,,,,,0,,,27,0
279240,note_on,,,,,0,0,1,,,,,0,,,58,127
279240,note_on,,,,,0,0,1,,,,,0,,,67,127
279240,note_on,,,,,0,0,0,,,,,0,,,91,127
279240,note_on,,,,,253,0,0,,,,,0,,,79,127
279240,note_on,,,,,13,0,1,,,,,0,,,51,127
279240,note_on,,,,,0,0,1,,,,,0,,,61,127
279240,note_on,,,,,0,0,0,,,,,0,,,82,127
279560,note_on,,,,,0,0,0,,,,,0,,,91,0
279560,note_on,,,,,0,0,0,,,,,0,,,82,0
279560,note_on,,,,,320,0,0,,,,,0,,,79,0
279560,note_on,,,,,0,0,1,,,,,0,,,67,0
279560,note_on,,,,,0,0,1,,,,,0,,,61,0
279560,note_on,,,,,0,0,1,,,,,0,,,58,0
279560,note_on,,,,,320,0,1,,,,,0,,,51,0
279720,note_on,,,,,160,0,1,,,,,0,,,51,112
279720,note_on,,,,,160,0,0,,,,,0,,,77,112
279720,note_on,,,,,0,0,1,,,,,0,,,61,112
279720,note_on,,,,,0,0,1,,,,,0,,,58,112
279720,note_on,,,,,0,0,0,,,,,0,,,82,112
279720,note_on,,,,,0,0,0,,,,,0,,,89,112
279720,note_on,,,,,0,0,1,,,,,0,,,65,112
279947,note_on,,,,,227,0,1,,,,,0,,,51,0
279947,note_on,,,,,0,0,1,,,,,0,,,65,0
279947,note_on,,,,,0,0,0,,,,,0,,,89,0
279947,note_on,,,,,0,0,0,,,,,0,,,82,0
279947,note_on,,,,,227,0,0,,,,,0,,,77,0
279947,note_on,,,,,0,0,1,,,,,0,,,58,0
279947,note_on,,,,,0,0,1,,,,,0,,,61,0
279960,note_on,,,,,0,0,0,,,,,0,,,85,112
279960,note_on,,,,,13,0,0,,,,,0,,,73,112
279960,note_on,,,,,13,0,1,,,,,0,,,51,112
279960,note_on,,,,,0,0,1,,,,,0,,,58,112
279960,note_on,,,,,0,0,1,,,,,0,,,65,112
279960,note_on,,,,,0,0,1,,,,,0,,,61,112
280187,note_on,,,,,0,0,1,,,,,0,,,58,0
280187,note_on,,,,,0,0,1,,,,,0,,,61,0
280187,note_on,,,,,227,0,0,,,,,0,,,73,0
280187,note_on,,,,,227,0,1,,,,,0,,,51,0
280187,note_on,,,,,0,0,0,,,,,0,,,85,0
280187,note_on,,,,,0,0,1,,,,,0,,,65,0
280200,note_on,,,,,0,0,1,,,,,0,,,65,112
280200,note_on,,,,,13,0,1,,,,,0,,,51,112
280200,note_on,,,,,0,0,0,,,,,0,,,82,112
280200,note_on,,,,,0,0,1,,,,,0,,,58,112
280200,note_on,,,,,0,0,1,,,,,0,,,61,112
280200,note_on,,,,,13,0,0,,,,,0,,,70,112
280427,note_on,,,,,0,0,0,,,,,0,,,82,0
280427,note_on,,,,,0,0,1,,,,,0,,,58,0
280427,note_on,,,,,0,0,1,,,,,0,,,61,0
280427,note_on,,,,,0,0,1,,,,,0,,,65,0
280427,note_on,,,,,227,0,1,,,,,0,,,51,0
280427,note_on,,,,,227,0,0,,,,,0,,,70,0
280440,note_on,,,,,13,0,0,,,,,0,,,65,112
280440,note_on,,,,,13,0,1,,,,,0,,,51,112
280440,note_on,,,,,0,0,0,,,,,0,,,67,112
280440,note_on,,,,,0,0,1,,,,,0,,,62,112
280440,note_on,,,,,0,0,1,,,,,0,,,59,112
280440,note_on,,,,,0,0,0,,,,,0,,,79,112
280440,note_on,,,,,0,0,0,,,,,0,,,71,112
280441,control_change,,,,,1,0,1,,,64,0,0,,,,
280442,control_change,,,,,1,0,1,,,64,127,0,,,,
280667,note_on,,,,,0,0,0,,,,,0,,,67,0
280667,note_on,,,,,225,0,1,,,,,0,,,51,0
280667,note_on,,,,,227,0,0,,,,,0,,,65,0
280667,note_on,,,,,0,0,1,,,,,0,,,59,0
280667,note_on,,,,,0,0,0,,,,,0,,,71,0
280667,note_on,,,,,0,0,1,,,,,0,,,62,0
280667,note_on,,,,,0,0,0,,,,,0,,,79,0
280680,note_on,,,,,0,0,1,,,,,0,,,62,112
280680,note_on,,,,,13,0,0,,,,,0,,,65,112
280680,note_on,,,,,0,0,1,,,,,0,,,59,112
280680,note_on,,,,,13,0,1,,,,,0,,,51,112
280680,note_on,,,,,0,0,0,,,,,0,,,77,112
280680,note_on,,,,,0,0,0,,,,,0,,,71,112
280680,note_on,,,,,0,0,0,,,,,0,,,67,112
280907,note_on,,,,,0,0,1,,,,,0,,,59,0
280907,note_on,,,,,0,0,1,,,,,0,,,62,0
280907,note_on,,,,,227,0,0,,,,,0,,,65,0
280907,note_on,,,,,0,0,0,,,,,0,,,77,0
280907,note_on,,,,,0,0,0,,,,,0,,,71,0
280907,note_on,,,,,0,0,0,,,,,0,,,67,0
280907,note_on,,,,,227,0,1,,,,,0,,,51,0
280920,note_on,,,,,0,0,1,,,,,0,,,59,112
280920,note_on,,,,,0,0,1,,,,,0,,,62,112
280920,note_on,,,,,13,0,0,,,,,0,,,65,112
280920,note_on,,,,,0,0,0,,,,,0,,,74,112
280920,note_on,,,,,0,0,0,,,,,0,,,67,112
280920,note_on,,,,,13,0,1,,,,,0,,,51,112
281147,note_on,,,,,227,0,1,,,,,0,,,51,0
281147,note_on,,,,,0,0,0,,,,,0,,,67,0
281147,note_on,,,,,0,0,1,,,,,0,,,62,0
281147,note_on,,,,,0,0,1,,,,,0,,,59,0
281147,note_on,,,,,0,0,0,,,,,0,,,74,0
281147,note_on,,,,,227,0,0,,,,,0,,,65,0
281160,note_on,,,,,13,0,0,,,,,0,,,65,112
281160,note_on,,,,,0,0,0,,,,,0,,,67,112
281160,note_on,,,,,0,0,1,,,,,0,,,59,112
281160,note_on,,,,,0,0,0,,,,,0,,,71,112
281160,note_on,,,,,0,0,1,,,,,0,,,62,112
281160,note_on,,,,,13,0,1,,,,,0,,,51,112
281387,note_on,,,,,227,0,1,,,,,0,,,51,0
281387,note_on,,,,,0,0,1,,,,,0,,,62,0
281387,note_on,,,,,0,0,1,,,,,0,,,59,0
281387,note_on,,,,,0,0,0,,,,,0,,,67,0
281387,note_on,,,,,227,0,0,,,,,0,,,65,0
281387,note_on,,,,,0,0,0,,,,,0,,,71,0
281400,note_on,,,,,13,0,0,,,,,0,,,62,112
281400,note_on,,,,,0,0,1,,,,,0,,,59,112
281400,note_on,,,,,0,0,0,,,,,0,,,68,112
281400,note_on,,,,,13,0,1,,,,,0,,,51,112
281400,note_on,,,,,0,0,0,,,,,0,,,65,112
281627,note_on,,,,,0,0,1,,,,,0,,,59,0
281627,note_on,,,,,0,0,0,,,,,0,,,65,0
281627,note_on,,,,,0,0,0,,,,,0,,,68,0
281627,note_on,,,,,227,0,0,,,,,0,,,62,0
281627,note_on,,,,,227,0,1,,,,,0,,,51,0
281640,note_on,,,,,0,0,0,,,,,0,,,65,112
281640,note_on,,,,,13,0,0,,,,,0,,,62,112
281640,note_on,,,,,0,0,0,,,,,0,,,67,112
281640,note_on,,,,,13,0,1,,,,,0,,,51,112
281640,note_on,,,,,0,0,1,,,,,0,,,59,112
281867,note_on,,,,,0,0,0,,,,,0,,,65,0
281867,note_on,,,,,0,0,0,,,,,0,,,67,0
281867,note_on,,,,,227,0,0,,,,,0,,,62,0
281867,note_on,,,,,227,0,1,,,,,0,,,51,0
281867,note_on,,,,,0,0,1,,,,,0,,,59,0
281880,note_on,,,,,0,0,1,,,,,0,,,51,112
281880,note_on,,,,,13,0,1,,,,,0,,,39,112
281881,control_change,,,,,1,0,1,,,64,0,0,,,,
281882,control_change,,,,,1,0,1,,,64,127,0,,,,
282107,note_on,,,,,0,0,1,,,,,0,,,51,0
282107,note_on,,,,,225,0,1,,,,,0,,,39,0
282120,note_on,,,,,0,0,1,,,,,0,,,60,112
282120,note_on,,,,,0,0,0,,,,,0,,,92,127
282120,note_on,,,,,0,0,0,,,,,0,,,84,127
282120,note_on,,,,,253,0,0,,,,,0,,,80,127
282120,note_on,,,,,0,0,1,,,,,0,,,63,112
282120,note_on,,,,,13,0,1,,,,,0,,,51,112
282347,note_on,,,,,227,0,1,,,,,0,,,51,0
282347,note_on,,,,,0,0,1,,,,,0,,,60,0
282347,note_on,,,,,0,0,1,,,,,0,,,63,0
282360,note_on,,,,,0,0,1,,,,,0,,,60,112
282360,note_on,,,,,0,0,1,,,,,0,,,67,112
282360,note_on,,,,,13,0,1,,,,,0,,,55,112
282360,note_on,,,,,0,0,1,,,,,0,,,63,112
282587,note_on,,,,,0,0,1,,,,,0,,,63,0
282587,note_on,,,,,0,0,1,,,,,0,,,67,0
282587,note_on,,,,,227,0,1,,,,,0,,,55,0
282587,note_on,,,,,0,0,1,,,,,0,,,60,0
282599,note_on,,,,,0,0,0,,,,,0,,,92,0
282599,note_on,,,,,0,0,0,,,,,0,,,84,0
282599,note_on,,,,,479,0,0,,,,,0,,,80,0
282600,note_on,,,,,0,0,1,,,,,0,,,67,112
282600,note_on,,,,,1,0,0,,,,,0,,,79,112
282600,note_on,,,,,0,0,0,,,,,0,,,91,112
282600,note_on,,,,,13,0,1,,,,,0,,,60,112
282600,note_on,,,,,0,0,1,,,,,0,,,63,112
282600,note_on,,,,,0,0,1,,,,,0,,,72,112
282827,note_on,,,,,0,0,1,,,,,0,,,67,0
282827,note_on,,,,,0,0,1,,,,,0,,,72,0
282827,note_on,,,,,0,0,1,,,,,0,,,63,0
282827,note_on,,,,,227,0,0,,,,,0,,,79,0
282827,note_on,,,,,227,0,1,,,,,0,,,60,0
282827,note_on,,,,,0,0,0,,,,,0,,,91,0
282840,note_on,,,,,0,0,0,,,,,0,,,87,112
282840,note_on,,,,,13,0,0,,,,,0,,,75,112
283067,note_on,,,,,0,0,0,,,,,0,,,87,0
283067,note_on,,,,,227,0,0,,,,,0,,,75,0
283080,note_on,,,,,13,0,0,,,,,0,,,72,112
283080,note_on,,,,,0,0,0,,,,,0,,,84,112
283307,note_on,,,,,227,0,0,,,,,0,,,72,0
283307,note_on,,,,,0,0,0,,,,,0,,,84,0
283320,note_on,,,,,0,0,1,,,,,0,,,51,112
283320,note_on,,,,,493,0,1,,,,,0,,,39,112
283321,control_change,,,,,1,0,1,,,64,0,0,,,,
283322,control_change,,,,,1,0,1,,,64,127,0,,,,
283547,note_on,,,,,225,0,1,,,,,0,,,39,0
283547,note_on,,,,,0,0,1,,,,,0,,,51,0
283560,note_on,,,,,0,0,1,,,,,0,,,54,112
283560,note_on,,,,,13,0,1,,,,,0,,,51,112
283560,note_on,,,,,0,0,1,,,,,0,,,60,112
283560,note_on,,,,,253,0,0,,,,,0,,,81,127
283560,note_on,,,,,0,0,1,,,,,0,,,63,112
283560,note_on,,,,,0,0,0,,,,,0,,,93,127
283787,note_on,,,,,0,0,1,,,,,0,,,63,0
283787,note_on,,,,,0,0,1,,,,,0,,,60,0
283787,note_on,,,,,227,0,1,,,,,0,,,51,0
283787,note_on,,,,,0,0,1,,,,,0,,,54,0
283800,note_on,,,,,0,0,1,,,,,0,,,66,112
283800,note_on,,,,,0,0,1,,,,,0,,,63,112
283800,note_on,,,,,0,0,1,,,,,0,,,60,112
283800,note_on,,,,,13,0,1,,,,,0,,,54,112
284027,note_on,,,,,0,0,1,,,,,0,,,63,0
284027,note_on,,,,,227,0,1,,,,,0,,,54,0
284027,note_on,,,,,0,0,1,,,,,0,,,66,0
284027,note_on,,,,,0,0,1,,,,,0,,,60,0
284039,note_on,,,,,0,0,0,,,,,0,,,93,0
284039,note_on,,,,,479,0,0,,,,,0,,,81,0
284040,note_on,,,,,13,0,1,,,,,0,,,60,112
284040,note_on,,,,,0,0,1,,,,,0,,,63,112
284040,note_on,,,,,0,0,1,,,,,0,,,66,112
284040,note_on,,,,,0,0,1,,,,,0,,,72,112
284040,note_on,,,,,1,0,0,,,,,0,,,80,112
284040,note_on,,,,,0,0,0,,,,,0,,,92,112
284267,note_on,,,,,0,0,1,,,,,0,,,63,0
284267,note_on,,,,,227,0,1,,,,,0,,,60,0
284267,note_on,,,,,0,0,1,,,,,0,,,66,0
284267,note_on,,,,,0,0,1,,,,,0,,,72,0
284279,note_on,,,,,0,0,0,,,,,0,,,92,0
284279,note_on,,,,,239,0,0,,,,,0,,,80,0
284280,note_on,,,,,0,0,0,,,,,0,,,90,112
284280,note_on,,,,,1,0,0,,,,,0,,,78,112
284519,note_on,,,,,239,0,0,,,,,0,,,78,0
284519,note_on,,,,,0,0,0,,,,,0,,,90,0
284520,note_on,,,,,0,0,0,,,,,0,,,87,112
284520,note_on,,,,,1,0,0,,,,,0,,,75,112
284747,note_on,,,,,227,0,0,,,,,0,,,75,0
284747,note_on,,,,,0,0,0,,,,,0,,,87,0
284760,note_on,,,,,493,0,1,,,,,0,,,27,112
284761,control_change,,,,,1,0,1,,,64,0,0,,,,
284987,note_on,,,,,226,0,1,,,,,0,,,27,0
285000,note_on,,,,,0,0,0,,,,,0,,,85,127
285000,note_on,,,,,253,0,0,,,,,0,,,81,127
285000,note_on,,,,,0,0,0,,,,,0,,,88,127
285000,note_on,,,,,0,0,1,,,,,0,,,56,112
285000,note_on,,,,,0,0,1,,,,,0,,,61,112
285000,note_on,,,,,0,0,1,,,,,0,,,64,112
285000,note_on,,,,,13,0,1,,,,,0,,,51,112
285000,note_on,,,,,0,0,0,,,,,0,,,93,127
285227,note_on,,,,,227,0,1,,,,,0,,,51,0
285227,note_on,,,,,0,0,1,,,,,0,,,64,0
285227,note_on,,,,,0,0,1,,,,,0,,,61,0
285227,note_on,,,,,0,0,1,,,,,0,,,56,0
285240,note_on,,,,,0,0,1,,,,,0,,,61,112
285240,note_on,,,,,0,0,1,,,,,0,,,56,112
285240,note_on,,,,,13,0,1,,,,,0,,,51,112
285240,note_on,,,,,0,0,1,,,,,0,,,64,112
285320,note_on,,,,,0,0,0,,,,,0,,,88,0
285320,note_on,,,,,0,0,0,,,,,0,,,93,0
285320,note_on,,,,,320,0,0,,,,,0,,,81,0
285320,note_on,,,,,0,0,0,,,,,0,,,85,0
285467,note_on,,,,,0,0,1,,,,,0,,,61,0
285467,note_on,,,,,0,0,1,,,,,0,,,64,0
285467,note_on,,,,,227,0,1,,,,,0,,,51,0
285467,note_on,,,,,0,0,1,,,,,0,,,56,0
285480,note_on,,,,,0,0,1,,,,,0,,,56,112
285480,note_on,,,,,0,0,1,,,,,0,,,64,112
285480,note_on,,,,,0,0,1,,,,,0,,,61,112
285480,note_on,,,,,160,0,0,,,,,0,,,80,112
285480,note_on,,,,,0,0,0,,,,,0,,,92,112
285480,note_on,,,,,13,0,1,,,,,0,,,51,112
285707,note_on,,,,,0,0,0,,,,,0,,,92,0
285707,note_on,,,,,227,0,0,,,,,0,,,80,0
285707,note_on,,,,,0,0,1,,,,,0,,,56,0
285707,note_on,,,,,0,0,1,,,,,0,,,61,0
285707,note_on,,,,,0,0,1,,,,,0,,,64,0
285707,note_on,,,,,227,0,1,,,,,0,,,51,0
285720,note_on,,,,,0,0,1,,,,,0,,,56,112
285720,note_on,,,,,0,0,1,,,,,0,,,61,112
285720,note_on,,,,,13,0,1,,,,,0,,,51,112
285720,note_on,,,,,13,0,0,,,,,0,,,88,112
285720,note_on,,,,,0,0,1,,,,,0,,,64,112
285720,note_on,,,,,0,0,0,,,,,0,,,100,112
285947,note_on,,,,,0,0,1,,,,,0,,,56,0
285947,note_on,,,,,0,0,1,,,,,0,,,61,0
285947,note_on,,,,,0,0,1,,,,,0,,,64,0
285947,note_on,,,,,227,0,0,,,,,0,,,88,0
285947,note_on,,,,,227,0,1,,,,,0,,,51,0
285947,note_on,,,,,0,0,0,,,,,0,,,100,0
285960,note_on,,,,,0,0,1,,,,,0,,,64,112
285960,note_on,,,,,0,0,1,,,,,0,,,61,112
285960,note_on,,,,,0,0,1,,,,,0,,,56,112
285960,note_on,,,,,13,0,0,,,,,0,,,87,112
285960,note_on,,,,,13,0,1,,,,,0,,,51,112
285960,note_on,,,,,0,0,0,,,,,0,,,99,112
286187,note_on,,,,,0,0,0,,,,,0,,,99,0
286187,note_on,,,,,227,0,1,,,,,0,,,51,0
286187,note_on,,,,,0,0,1,,,,,0,,,61,0
286187,note_on,,,,,0,0,1,,,,,0,,,64,0
286187,note_on,,,,,0,0,1,,,,,0,,,56,0
286187,note_on,,,,,227,0,0,,,,,0,,,87,0
286200,note_on,,,,,13,0,1,,,,,0,,,51,112
286200,note_on,,,,,0,0,1,,,,,0,,,56,112
286200,note_on,,,,,13,0,0,,,,,0,,,85,112
286200,note_on,,,,,0,0,1,,,,,0,,,61,112
286200,note_on,,,,,0,0,1,,,,,0,,,64,112
286200,note_on,,,,,0,0,0,,,,,0,,,97,112
286427,note_on,,,,,227,0,0,,,,,0,,,85,0
286427,note_on,,,,,0,0,1,,,,,0,,,56,0
286427,note_on,,,,,0,0,1,,,,,0,,,64,0
286427,note_on,,,,,0,0,1,,,,,0,,,61,0
286427,note_on,,,,,0,0,0,,,,,0,,,97,0
286427,note_on,,,,,227,0,1,,,,,0,,,51,0
286440,note_on,,,,,13,0,1,,,,,0,,,51,112
286440,note_on,,,,,13,0,0,,,,,0,,,83,112
286440,note_on,,,,,0,0,1,,,,,0,,,64,112
286440,note_on,,,,,0,0,1,,,,,0,,,61,112
286440,note_on,,,,,0,0,0,,,,,0,,,95,112
286440,note_on,,,,,0,0,1,,,,,0,,,56,112
286667,note_on,,,,,0,0,0,,,,,0,,,95,0
286667,note_on,,,,,0,0,1,,,,,0,,,56,0
286667,note_on,,,,,0,0,1,,,,,0,,,61,0
286667,note_on,,,,,0,0,1,,,,,0,,,64,0
286667,note_on,,,,,227,0,0,,,,,0,,,83,0
286667,note_on,,,,,227,0,1,,,,,0,,,51,0
286680,note_on,,,,,0,0,1,,,,,0,,,56,112
286680,note_on,,,,,0,0,1,,,,,0,,,61,112
286680,note_on,,,,,0,0,1,,,,,0,,,64,112
286680,note_on,,,,,13,0,1,,,,,0,,,51,112
286680,note_on,,,,,0,0,0,,,,,0,,,93,112
286680,note_on,,,,,13,0,0,,,,,0,,,81,112
286907,note_on,,,,,227,0,0,,,,,0,,,81,0
286907,note_on,,,,,227,0,1,,,,,0,,,51,0
286907,note_on,,,,,0,0,0,,,,,0,,,93,0
286907,note_on,,,,,0,0,1,,,,,0,,,64,0
286907,note_on,,,,,0,0,1,,,,,0,,,61,0
286907,note_on,,,,,0,0,1,,,,,0,,,56,0
286920,note_on,,,,,13,0,1,,,,,0,,,51,112
286920,note_on,,,,,13,0,0,,,,,0,,,80,112
286920,note_on,,,,,0,0,1,,,,,0,,,56,112
286920,note_on,,,,,0,0,0,,,,,0,,,92,112
286920,note_on,,,,,0,0,1,,,,,0,,,64,112
286920,note_on,,,,,0,0,1,,,,,0,,,61,112
287147,note_on,,,,,227,0,1,,,,,0,,,51,0
287147,note_on,,,,,0,0,0,,,,,0,,,92,0
287147,note_on,,,,,227,0,0,,,,,0,,,80,0
287147,note_on,,,,,0,0,1,,,,,0,,,64,0
287147,note_on,,,,,0,0,1,,,,,0,,,56,0
287147,note_on,,,,,0,0,1,,,,,0,,,61,0
287160,note_on,,,,,13,0,1,,,,,0,,,51,112
287160,note_on,,,,,13,0,0,,,,,0,,,78,112
287160,note_on,,,,,0,0,1,,,,,0,,,56,112
287160,note_on,,,,,0,0,1,,,,,0,,,61,112
287160,note_on,,,,,0,0,1,,,,,0,,,64,112
287160,note_on,,,,,0,0,0,,,,,0,,,90,112
287387,note_on,,,,,0,0,0,,,,,0,,,90,0
287387,note_on,,,,,227,0,0,,,,,0,,,78,0
287387,note_on,,,,,227,0,1,,,,,0,,,51,0
287387,note_on,,,,,0,0,1,,,,,0,,,64,0
287387,note_on,,,,,0,0,1,,,,,0,,,61,0
287387,note_on,,,,,0,0,1,,,,,0,,,56,0
287400,note_on,,,,,13,0,1,,,,,0,,,51,112
287400,note_on,,,,,0,0,1,,,,,0,,,61,112
287400,note_on,,,,,13,0,0,,,,,0,,,76,112
287400,note_on,,,,,0,0,1,,,,,0,,,56,112
287400,note_on,,,,,0,0,0,,,,,0,,,88,112
287400,note_on,,,,,0,0,1,,,,,0,,,64,112
287627,note_on,,,,,227,0,1,,,,,0,,,51,0
287627,note_on,,,,,227,0,0,,,,,0,,,76,0
287627,note_on,,,,,0,0,0,,,,,0,,,88,0
287627,note_on,,,,,0,0,1,,,,,0,,,64,0
287627,note_on,,,,,0,0,1,,,,,0,,,61,0
287627,note_on,,,,,0,0,1,,,,,0,,,56,0
287640,note_on,,,,,13,0,1,,,,,0,,,51,112
287640,note_on,,,,,13,0,0,,,,,0,,,75,112
287640,note_on,,,,,0,0,1,,,,,0,,,64,112
287640,note_on,,,,,0,0,1,,,,,0,,,56,112
287640,note_on,,,,,0,0,0,,,,,0,,,87,112
287640,note_on,,,,,0,0,1,,,,,0,,,61,112
287867,note_on,,,,,227,0,1,,,,,0,,,51,0
287867,note_on,,,,,227,0,0,,,,,0,,,75,0
287867,note_on,,,,,0,0,0,,,,,0,,,87,0
287867,note_on,,,,,0,0,1,,,,,0,,,56,0
287867,note_on,,,,,0,0,1,,,,,0,,,61,0
287867,note_on,,,,,0,0,1,,,,,0,,,64,0
287880,note_on,,,,,13,0,0,,,,,0,,,76,112
287880,note_on,,,,,13,0,1,,,,,0,,,51,112
287880,note_on,,,,,0,0,0,,,,,0,,,88,112
287880,note_on,,,,,0,0,1,,,,,0,,,56,112
287880,note_on,,,,,0,0,1,,,,,0,,,61,112
287880,note_on,,,,,0,0,1,,,,,0,,,64,112
288107,note_on,,,,,0,0,1,,,,,0,,,61,0
288107,note_on,,,,,227,0,1,,,,,0,,,51,0
288107,note_on,,,,,0,0,1,,,,,0,,,64,0
288107,note_on,,,,,0,0,0,,,,,0,,,88,0
288107,note_on,,,,,227,0,0,,,,,0,,,76,0
288107,note_on,,,,,0,0,1,,,,,0,,,56,0
288120,note_on,,,,,0,0,1,,,,,0,,,56,112
288120,note_on,,,,,0,0,1,,,,,0,,,64,112
288120,note_on,,,,,13,0,1,,,,,0,,,51,112
288120,note_on,,,,,13,0,0,,,,,0,,,72,112
288120,note_on,,,,,0,0,1,,,,,0,,,61,112
288120,note_on,,,,,0,0,0,,,,,0,,,84,112
288347,note_on,,,,,227,0,1,,,,,0,,,51,0
288347,note_on,,,,,0,0,1,,,,,0,,,64,0
288347,note_on,,,,,0,0,1,,,,,0,,,61,0
288347,note_on,,,,,0,0,1,,,,,0,,,56,0
288347,note_on,,,,,227,0,0,,,,,0,,,72,0
288347,note_on,,,,,0,0,0,,,,,0,,,84,0
288360,note_on,,,,,13,0,0,,,,,0,,,73,112
288360,note_on,,,,,0,0,1,,,,,0,,,64,112
288360,note_on,,,,,0,0,1,,,,,0,,,61,112
288360,note_on,,,,,0,0,1,,,,,0,,,56,112
288360,note_on,,,,,0,0,0,,,,,0,,,85,112
288360,note_on,,,,,13,0,1,,,,,0,,,51,112
288587,note_on,,,,,0,0,0,,,,,0,,,85,0
288587,note_on,,,,,0,0,1,,,,,0,,,61,0
288587,note_on,,,,,227,0,1,,,,,0,,,51,0
288587,note_on,,,,,0,0,1,,,,,0,,,56,0
288587,note_on,,,,,227,0,0,,,,,0,,,73,0
288587,note_on,,,,,0,0,1,,,,,0,,,64,0
288600,note_on,,,,,13,0,1,,,,,0,,,51,112
288600,note_on,,,,,13,0,0,,,,,0,,,67,112
288600,note_on,,,,,0,0,1,,,,,0,,,56,112
288600,note_on,,,,,0,0,0,,,,,0,,,79,112
288600,note_on,,,,,0,0,1,,,,,0,,,61,112
288600,note_on,,,,,0,0,1,,,,,0,,,64,112
288827,note_on,,,,,0,0,1,,,,,0,,,56,0
288827,note_on,,,,,0,0,1,,,,,0,,,61,0
288827,note_on,,,,,0,0,1,,,,,0,,,64,0
288827,note_on,,,,,0,0,0,,,,,0,,,79,0
288827,note_on,,,,,227,0,0,,,,,0,,,67,0
288827,note_on,,,,,227,0,1,,,,,0,,,51,0
288840,note_on,,,,,0,0,1,,,,,0,,,56,112
288840,note_on,,,,,0,0,1,,,,,0,,,61,112
288840,note_on,,,,,0,0,1,,,,,0,,,64,112
288840,note_on,,,,,13,0,0,,,,,0,,,68,112
288840,note_on,,,,,0,0,0,,,,,0,,,80,112
288840,note_on,,,,,13,0,1,,,,,0,,,51,112
289067,note_on,,,,,227,0,1,,,,,0,,,51,0
289067,note_on,,,,,0,0,0,,,,,0,,,80,0
289067,note_on,,,,,0,0,1,,,,,0,,,56,0
289067,note_on,,,,,0,0,1,,,,,0,,,61,0
289067,note_on,,,,,0,0,1,,,,,0,,,64,0
289067,note_on,,,,,227,0,0,,,,,0,,,68,0
289080,note_on,,,,,13,0,1,,,,,0,,,51,112
289080,note_on,,,,,0,0,0,,,,,0,,,81,112
289080,note_on,,,,,0,0,1,,,,,0,,,56,112
289080,note_on,,,,,13,0,0,,,,,0,,,69,112
289080,note_on,,,,,0,0,1,,,,,0,,,61,112
289080,note_on,,,,,0,0,1,,,,,0,,,64,112
289239,note_on,,,,,0,0,0,,,,,0,,,81,0
289239,note_on,,,,,159,0,0,,,,,0,,,69,0
289240,note_on,,,,,0,0,0,,,,,0,,,82,112
289240,note_on,,,,,1,0,0,,,,,0,,,70,112
289307,note_on,,,,,227,0,1,,,,,0,,,51,0
289307,note_on,,,,,0,0,1,,,,,0,,,64,0
289307,note_on,,,,,0,0,1,,,,,0,,,56,0
289307,note_on,,,,,0,0,1,,,,,0,,,61,0
289320,note_on,,,,,13,0,1,,,,,0,,,51,112
289320,note_on,,,,,0,0,1,,,,,0,,,56,112
289320,note_on,,,,,0,0,1,,,,,0,,,64,112
289320,note_on,,,,,0,0,1,,,,,0,,,61,112
289399,note_on,,,,,0,0,0,,,,,0,,,82,0
289399,note_on,,,,,159,0,0,,,,,0,,,70,0
289400,note_on,,,,,1,0,0,,,,,0,,,71,113
289400,note_on,,,,,0,0,0,,,,,0,,,83,113
289547,note_on,,,,,0,0,1,,,,,0,,,64,0
289547,note_on,,,,,0,0,1,,,,,0,,,56,0
289547,note_on,,,,,0,0,1,,,,,0,,,61,0
289547,note_on,,,,,227,0,1,,,,,0,,,51,0
289551,note_on,,,,,151,0,0,,,,,0,,,71,0
289551,note_on,,,,,0,0,0,,,,,0,,,83,0
289560,note_on,,,,,0,0,0,,,,,0,,,84,115
289560,note_on,,,,,9,0,0,,,,,0,,,72,115
289560,note_on,,,,,0,0,1,,,,,0,,,64,115
289560,note_on,,,,,0,0,1,,,,,0,,,61,115
289560,note_on,,,,,0,0,1,,,,,0,,,56,115
289560,note_on,,,,,13,0,1,,,,,0,,,51,115
289673,note_on,,,,,0,0,0,,,,,0,,,84,0
289673,note_on,,,,,113,0,0,,,,,0,,,72,0
289680,note_on,,,,,7,0,0,,,,,0,,,73,116
289680,note_on,,,,,0,0,0,,,,,0,,,85,116
289787,note_on,,,,,0,0,1,,,,,0,,,61,0
289787,note_on,,,,,0,0,1,,,,,0,,,64,0
289787,note_on,,,,,227,0,1,,,,,0,,,51,0
289787,note_on,,,,,0,0,1,,,,,0,,,56,0
289793,note_on,,,,,113,0,0,,,,,0,,,73,0
289793,note_on,,,,,0,0,0,,,,,0,,,85,0
289800,note_on,,,,,0,0,1,,,,,0,,,64,117
289800,note_on,,,,,13,0,1,,,,,0,,,51,117
289800,note_on,,,,,0,0,1,,,,,0,,,61,117
289800,note_on,,,,,0,0,0,,,,,0,,,86,117
289800,note_on,,,,,7,0,0,,,,,0,,,74,117
289800,note_on,,,,,0,0,1,,,,,0,,,56,117
289913,note_on,,,,,113,0,0,,,,,0,,,74,0
289913,note_on,,,,,0,0,0,,,,,0,,,86,0
289920,note_on,,,,,7,0,0,,,,,0,,,75,118
289920,note_on,,,,,0,0,0,,,,,0,,,87,118
290027,note_on,,,,,0,0,1,,,,,0,,,61,0
290027,note_on,,,,,227,0,1,,,,,0,,,51,0
290027,note_on,,,,,0,0,1,,,,,0,,,56,0
290027,note_on,,,,,0,0,1,,,,,0,,,64,0
290033,note_on,,,,,113,0,0,,,,,0,,,75,0
290033,note_on,,,,,0,0,0,,,,,0,,,87,0
290040,note_on,,,,,13,0,1,,,,,0,,,51,119
290040,note_on,,,,,0,0,0,,,,,0,,,90,119
290040,note_on,,,,,0,0,1,,,,,0,,,56,119
290040,note_on,,,,,0,0,1,,,,,0,,,64,119
290040,note_on,,,,,0,0,1,,,,,0,,,61,119
290040,note_on,,,,,7,0,0,,,,,0,,,78,119
290118,note_on,,,,,0,0,0,,,,,0,,,90,0
290118,note_on,,,,,78,0,0,,,,,0,,,78,0
290267,note_on,,,,,0,0,1,,,,,0,,,61,0
290267,note_on,,,,,0,0,1,,,,,0,,,64,0
290267,note_on,,,,,0,0,1,,,,,0,,,56,0
290267,note_on,,,,,227,0,1,,,,,0,,,51,0
290280,note_on,,,,,0,0,1,,,,,0,,,56,122
290280,note_on,,,,,0,0,1,,,,,0,,,61,122
290280,note_on,,,,,0,0,1,,,,,0,,,64,122
290280,note_on,,,,,13,0,1,,,,,0,,,51,122
290400,note_on,,,,,0,0,0,,,,,0,,,88,122
290400,note_on,,,,,282,0,0,,,,,0,,,76,122
290507,note_on,,,,,227,0,1,,,,,0,,,51,0
290507,note_on,,,,,0,0,1,,,,,0,,,56,0
290507,note_on,,,,,0,0,1,,,,,0,,,64,0
290507,note_on,,,,,0,0,1,,,,,0,,,61,0
290513,note_on,,,,,0,0,0,,,,,0,,,88,0
290513,note_on,,,,,113,0,0,,,,,0,,,76,0
290520,note_on,,,,,13,0,1,,,,,0,,,51,122
290520,note_on,,,,,7,0,0,,,,,0,,,76,127
290520,note_on,,,,,0,0,1,,,,,0,,,55,122
290520,note_on,,,,,0,0,1,,,,,0,,,58,122
290520,note_on,,,,,0,0,1,,,,,0,,,61,122
290520,note_on,,,,,0,0,1,,,,,0,,,64,122
290520,note_on,,,,,0,0,0,,,,,0,,,88,127
290747,note_on,,,,,0,0,1,,,,,0,,,58,0
290747,note_on,,,,,0,0,1,,,,,0,,,64,0
290747,note_on,,,,,227,0,1,,,,,0,,,51,0
290747,note_on,,,,,0,0,1,,,,,0,,,55,0
290747,note_on,,,,,0,0,1,,,,,0,,,61,0
290760,note_on,,,,,0,0,1,,,,,0,,,55,122
290760,note_on,,,,,0,0,1,,,,,0,,,58,122
290760,note_on,,,,,13,0,1,,,,,0,,,51,122
290760,note_on,,,,,0,0,1,,,,,0,,,64,122
290760,note_on,,,,,0,0,1,,,,,0,,,61,122
290987,note_on,,,,,0,0,1,,,,,0,,,55,0
290987,note_on,,,,,227,0,1,,,,,0,,,51,0
290987,note_on,,,,,0,0,1,,,,,0,,,58,0
290987,note_on,,,,,0,0,1,,,,,0,,,64,0
290987,note_on,,,,,0,0,1,,,,,0,,,61,0
291000,note_on,,,,,0,0,1,,,,,0,,,55,122
291000,note_on,,,,,0,0,1,,,,,0,,,58,122
291000,note_on,,,,,13,0,1,,,,,0,,,51,122
291000,note_on,,,,,0,0,1,,,,,0,,,61,122
291000,note_on,,,,,0,0,1,,,,,0,,,64,122
291001,note_on,,,,,0,0,0,,,,,0,,,88,0
291001,note_on,,,,,481,0,0,,,,,0,,,76,0
291227,note_on,,,,,0,0,1,,,,,0,,,61,0
291227,note_on,,,,,0,0,1,,,,,0,,,64,0
291227,note_on,,,,,0,0,1,,,,,0,,,55,0
291227,note_on,,,,,227,0,1,,,,,0,,,51,0
291227,note_on,,,,,0,0,1,,,,,0,,,58,0
291240,note_on,,,,,0,0,1,,,,,0,,,55,122
291240,note_on,,,,,0,0,1,,,,,0,,,58,122
291240,note_on,,,,,0,0,1,,,,,0,,,61,122
291240,note_on,,,,,0,0,1,,,,,0,,,64,122
291240,note_on,,,,,13,0,1,,,,,0,,,51,122
291240,note_on,,,,,239,0,0,,,,,0,,,85,122
291467,note_on,,,,,0,0,1,,,,,0,,,55,0
291467,note_on,,,,,0,0,1,,,,,0,,,58,0
291467,note_on,,,,,0,0,1,,,,,0,,,61,0
291467,note_on,,,,,227,0,1,,,,,0,,,51,0
291467,note_on,,,,,0,0,1,,,,,0,,,64,0
291479,note_on,,,,,239,0,0,,,,,0,,,85,0
291480,note_on,,,,,0,0,1,,,,,0,,,55,122
291480,note_on,,,,,0,0,1,,,,,0,,,58,122
291480,note_on,,,,,0,0,1,,,,,0,,,61,122
291480,note_on,,,,,0,0,1,,,,,0,,,64,122
291480,note_on,,,,,13,0,1,,,,,0,,,51,122
291480,note_on,,,,,1,0,0,,,,,0,,,79,122
291707,note_on,,,,,0,0,1,,,,,0,,,55,0
291707,note_on,,,,,227,0,1,,,,,0,,,51,0
291707,note_on,,,,,0,0,1,,,,,0,,,58,0
291707,note_on,,,,,0,0,1,,,,,0,,,61,0
291707,note_on,,,,,0,0,1,,,,,0,,,64,0
291719,note_on,,,,,239,0,0,,,,,0,,,79,0
291720,note_on,,,,,0,0,1,,,,,0,,,64,122
291720,note_on,,,,,0,0,1,,,,,0,,,61,122
291720,note_on,,,,,0,0,1,,,,,0,,,55,122
291720,note_on,,,,,0,0,1,,,,,0,,,58,122
291720,note_on,,,,,13,0,1,,,,,0,,,51,122
291720,note_on,,,,,1,0,0,,,,,0,,,80,122
291947,note_on,,,,,0,0,1,,,,,0,,,58,0
291947,note_on,,,,,0,0,1,,,,,0,,,61,0
291947,note_on,,,,,0,0,1,,,,,0,,,55,0
291947,note_on,,,,,0,0,1,,,,,0,,,64,0
291947,note_on,,,,,227,0,0,,,,,0,,,80,0
291947,note_on,,,,,227,0,1,,,,,0,,,51,0
291960,note_on,,,,,13,0,1,,,,,0,,,51,122
291960,note_on,,,,,0,0,1,,,,,0,,,55,122
291960,note_on,,,,,0,0,1,,,,,0,,,58,122
291960,note_on,,,,,0,0,1,,,,,0,,,61,122
291960,note_on,,,,,0,0,1,,,,,0,,,64,122
291960,set_tempo,,,,,13,1,0,,733333,,,,,,,
291960,note_on,,,,,0,0,0,,,,,0,,,80,127
292001,note_on,,,,,41,0,0,,,,,0,,,80,0
292002,note_on,,,,,1,0,0,,,,,0,,,83,127
292187,note_on,,,,,227,0,1,,,,,0,,,51,0
292187,note_on,,,,,0,0,1,,,,,0,,,55,0
292187,note_on,,,,,0,0,1,,,,,0,,,58,0
292187,note_on,,,,,0,0,1,,,,,0,,,61,0
292187,note_on,,,,,0,0,1,,,,,0,,,64,0
292200,note_on,,,,,0,0,1,,,,,0,,,64,122
292200,note_on,,,,,0,0,1,,,,,0,,,55,122
292200,note_on,,,,,0,0,1,,,,,0,,,58,122
292200,note_on,,,,,0,0,1,,,,,0,,,61,122
292200,note_on,,,,,13,0,1,,,,,0,,,51,122
292294,note_on,,,,,292,0,0,,,,,0,,,83,0
292427,note_on,,,,,0,0,1,,,,,0,,,64,0
292427,note_on,,,,,0,0,1,,,,,0,,,55,0
292427,note_on,,,,,0,0,1,,,,,0,,,61,0
292427,note_on,,,,,227,0,1,,,,,0,,,51,0
292427,note_on,,,,,0,0,1,,,,,0,,,58,0
292439,set_tempo,,,,,145,1,0,,666667,,,,,,,
292440,note_on,,,,,0,0,1,,,,,0,,,55,122
292440,note_on,,,,,0,0,1,,,,,0,,,58,122
292440,note_on,,,,,0,0,1,,,,,0,,,64,122
292440,note_on,,,,,1,0,0,,,,,0,,,82,122
292440,note_on,,,,,0,0,1,,,,,0,,,61,122
292440,note_on,,,,,13,0,1,,,,,0,,,51,122
292667,note_on,,,,,0,0,1,,,,,0,,,61,0
292667,note_on,,,,,227,0,1,,,,,0,,,51,0
292667,note_on,,,,,0,0,1,,,,,0,,,55,0
292667,note_on,,,,,0,0,1,,,,,0,,,58,0
292667,note_on,,,,,0,0,1,,,,,0,,,64,0
292679,note_on,,,,,239,0,0,,,,,0,,,82,0
292680,note_on,,,,,0,0,1,,,,,0,,,58,122
292680,note_on,,,,,0,0,1,,,,,0,,,55,122
292680,note_on,,,,,13,0,1,,,,,0,,,51,122
292680,note_on,,,,,1,0,0,,,,,0,,,73,122
292680,note_on,,,,,0,0,1,,,,,0,,,64,122
292680,note_on,,,,,0,0,1,,,,,0,,,61,122
292907,note_on,,,,,0,0,1,,,,,0,,,64,0
292907,note_on,,,,,0,0,1,,,,,0,,,55,0
292907,note_on,,,,,0,0,1,,,,,0,,,61,0
292907,note_on,,,,,0,0,1,,,,,0,,,58,0
292907,note_on,,,,,227,0,1,,,,,0,,,51,0
292919,note_on,,,,,239,0,0,,,,,0,,,73,0
292920,note_on,,,,,0,0,1,,,,,0,,,58,122
292920,note_on,,,,,0,0,1,,,,,0,,,55,122
292920,note_on,,,,,1,0,0,,,,,0,,,74,122
292920,note_on,,,,,0,0,1,,,,,0,,,64,122
292920,note_on,,,,,13,0,1,,,,,0,,,51,122
292920,note_on,,,,,0,0,1,,,,,0,,,61,122
293147,note_on,,,,,0,0,1,,,,,0,,,61,0
293147,note_on,,,,,0,0,1,,,,,0,,,64,0
293147,note_on,,,,,0,0,1,,,,,0,,,58,0
293147,note_on,,,,,227,0,1,,,,,0,,,51,0
293147,note_on,,,,,0,0,1,,,,,0,,,55,0
293159,note_on,,,,,239,0,0,,,,,0,,,74,0
293160,note_on,,,,,1,0,0,,,,,0,,,75,122
293160,note_on,,,,,0,0,1,,,,,0,,,55,122
293160,note_on,,,,,0,0,1,,,,,0,,,64,122
293160,note_on,,,,,13,0,1,,,,,0,,,51,122
293160,note_on,,,,,0,0,1,,,,,0,,,61,122
293160,note_on,,,,,0,0,1,,,,,0,,,58,122
293387,note_on,,,,,227,0,1,,,,,0,,,51,0
293387,note_on,,,,,0,0,1,,,,,0,,,64,0
293387,note_on,,,,,0,0,1,,,,,0,,,61,0
293387,note_on,,,,,0,0,1,,,,,0,,,58,0
293387,note_on,,,,,0,0,1,,,,,0,,,55,0
293387,note_on,,,,,227,0,0,,,,,0,,,75,0
293400,note_on,,,,,0,0,1,,,,,0,,,61,122
293400,note_on,,,,,13,0,0,,,,,0,,,75,127
293400,note_on,,,,,0,0,1,,,,,0,,,55,122
293400,note_on,,,,,0,0,1,,,,,0,,,58,122
293400,note_on,,,,,0,0,1,,,,,0,,,64,122
293400,note_on,,,,,13,0,1,,,,,0,,,51,122
293445,note_on,,,,,45,0,0,,,,,0,,,75,0
293446,note_on,,,,,1,0,0,,,,,0,,,78,127
293627,note_on,,,,,0,0,1,,,,,0,,,61,0
293627,note_on,,,,,227,0,1,,,,,0,,,51,0
293627,note_on,,,,,0,0,1,,,,,0,,,64,0
293627,note_on,,,,,0,0,1,,,,,0,,,55,0
293627,note_on,,,,,0,0,1,,,,,0,,,58,0
293640,note_on,,,,,0,0,1,,,,,0,,,55,122
293640,note_on,,,,,0,0,1,,,,,0,,,64,122
293640,note_on,,,,,0,0,1,,,,,0,,,61,122
293640,note_on,,,,,0,0,1,,,,,0,,,58,122
293640,note_on,,,,,13,0,1,,,,,0,,,51,122
293718,note_on,,,,,272,0,0,,,,,0,,,78,0
293720,note_on,,,,,2,0,0,,,,,0,,,76,122
293867,note_on,,,,,0,0,1,,,,,0,,,58,0
293867,note_on,,,,,227,0,1,,,,,0,,,51,0
293867,note_on,,,,,0,0,1,,,,,0,,,64,0
293867,note_on,,,,,0,0,1,,,,,0,,,61,0
293867,note_on,,,,,0,0,1,,,,,0,,,55,0
293871,note_on,,,,,151,0,0,,,,,0,,,76,0
293880,note_on,,,,,0,0,1,,,,,0,,,58,122
293880,note_on,,,,,0,0,1,,,,,0,,,55,122
293880,note_on,,,,,0,0,1,,,,,0,,,64,122
293880,note_on,,,,,0,0,1,,,,,0,,,61,122
293880,note_on,,,,,13,0,1,,,,,0,,,51,122
293880,note_on,,,,,9,0,0,,,,,0,,,67,122
294031,note_on,,,,,151,0,0,,,,,0,,,67,0
294040,note_on,,,,,9,0,0,,,,,0,,,68,122
294107,note_on,,,,,0,0,1,,,,,0,,,64,0
294107,note_on,,,,,0,0,1,,,,,0,,,61,0
294107,note_on,,,,,0,0,1,,,,,0,,,58,0
294107,note_on,,,,,0,0,1,,,,,0,,,55,0
294107,note_on,,,,,227,0,1,,,,,0,,,51,0
294120,note_on,,,,,0,0,1,,,,,0,,,64,122
294120,note_on,,,,,0,0,1,,,,,0,,,61,122
294120,note_on,,,,,0,0,1,,,,,0,,,58,122
294120,note_on,,,,,0,0,1,,,,,0,,,55,122
294120,note_on,,,,,13,0,1,,,,,0,,,51,122
294191,note_on,,,,,151,0,0,,,,,0,,,68,0
294200,note_on,,,,,9,0,0,,,,,0,,,69,122
294347,note_on,,,,,227,0,1,,,,,0,,,51,0
294347,note_on,,,,,0,0,1,,,,,0,,,55,0
294347,note_on,,,,,0,0,1,,,,,0,,,58,0
294347,note_on,,,,,0,0,1,,,,,0,,,64,0
294347,note_on,,,,,0,0,1,,,,,0,,,61,0
294351,note_on,,,,,151,0,0,,,,,0,,,69,0
294360,note_on,,,,,0,0,1,,,,,0,,,58,122
294360,note_on,,,,,0,0,1,,,,,0,,,55,122
294360,note_on,,,,,0,0,1,,,,,0,,,64,122
294360,note_on,,,,,9,0,0,,,,,0,,,69,127
294360,note_on,,,,,13,0,1,,,,,0,,,51,122
294360,note_on,,,,,0,0,1,,,,,0,,,61,122
294405,note_on,,,,,45,0,0,,,,,0,,,69,0
294406,note_on,,,,,1,0,0,,,,,0,,,71,127
294478,note_on,,,,,72,0,0,,,,,0,,,71,0
294480,note_on,,,,,2,0,0,,,,,0,,,70,122
294587,note_on,,,,,0,0,1,,,,,0,,,55,0
294587,note_on,,,,,0,0,1,,,,,0,,,58,0
294587,note_on,,,,,227,0,1,,,,,0,,,51,0
294587,note_on,,,,,0,0,1,,,,,0,,,64,0
294587,note_on,,,,,0,0,1,,,,,0,,,61,0
294599,note_on,,,,,119,0,0,,,,,0,,,70,0
294600,note_on,,,,,1,0,0,,,,,0,,,62,122
294719,note_on,,,,,119,0,0,,,,,0,,,62,0
294720,note_on,,,,,1,0,0,,,,,0,,,63,122
294833,note_on,,,,,113,0,0,,,,,0,,,63,0
294840,note_on,,,,,7,0,0,,,,,0,,,63,127
294885,note_on,,,,,45,0,0,,,,,0,,,63,0
294886,note_on,,,,,1,0,0,,,,,0,,,66,127
294958,note_on,,,,,72,0,0,,,,,0,,,66,0
294960,note_on,,,,,2,0,0,,,,,0,,,64,122
295079,note_on,,,,,119,0,0,,,,,0,,,64,0
295080,note_on,,,,,1,0,0,,,,,0,,,55,122
295199,note_on,,,,,119,0,0,,,,,0,,,55,0
295200,note_on,,,,,1,0,0,,,,,0,,,56,122
295313,note_on,,,,,113,0,0,,,,,0,,,56,0
295320,note_on,,,,,7,0,0,,,,,0,,,56,127
295365,note_on,,,,,45,0,0,,,,,0,,,56,0
295366,note_on,,,,,1,0,0,,,,,0,,,59,127
295438,note_on,,,,,72,0,0,,,,,0,,,59,0
295440,note_on,,,,,2,0,0,,,,,0,,,58,122
295559,note_on,,,,,119,0,0,,,,,0,,,58,0
295560,note_on,,,,,1,0,0,,,,,0,,,50,122
295679,note_on,,,,,119,0,0,,,,,0,,,50,0
295680,note_on,,,,,1,0,0,,,,,0,,,51,122
295793,note_on,,,,,113,0,0,,,,,0,,,51,0
295800,set_tempo,,,,,7,1,0,,750002,,,,,,,
295800,note_on,,,,,0,0,0,,,,,0,,,51,127
295840,note_on,,,,,40,0,0,,,,,0,,,51,0
295841,note_on,,,,,1,0,0,,,,,0,,,54,127
295918,note_on,,,,,77,0,0,,,,,0,,,54,0
295920,note_on,,,,,2,0,0,,,,,0,,,52,122
296039,note_on,,,,,119,0,0,,,,,0,,,52,0
296040,note_on,,,,,1,0,0,,,,,0,,,43,122
296159,note_on,,,,,119,0,0,,,,,0,,,43,0
296160,note_on,,,,,1,0,0,,,,,0,,,44,122
296273,note_on,,,,,113,0,0,,,,,0,,,44,0
296280,set_tempo,,,,,0,1,0,,857140,,,,,,,
296280,note_on,,,,,0,0,0,,,,,0,,,44,122
296280,time_signature,13,8,24,8,7,1,0,,,,,,,,,
296315,note_on,,,,,35,0,0,,,,,0,,,44,0
296316,note_on,,,,,1,0,0,,,,,0,,,47,122
296398,note_on,,,,,82,0,0,,,,,0,,,47,0
296400,note_on,,,,,2,0,0,,,,,0,,,46,122
296519,note_on,,,,,119,0,0,,,,,0,,,46,0
296520,note_on,,,,,1,0,0,,,,,0,,,38,122
296639,note_on,,,,,119,0,0,,,,,0,,,38,0
296640,note_on,,,,,1,0,0,,,,,0,,,39,122
296753,note_on,,,,,113,0,0,,,,,0,,,39,0
296760,note_on,,,,,0,0,0,,,,,0,,,39,122
296760,set_tempo,,,,,7,1,0,,500000,,,,,,,
296873,note_on,,,,,113,0,0,,,,,0,,,39,0
296880,note_on,,,,,7,0,0,,,,,0,,,42,122
296993,note_on,,,,,113,0,0,,,,,0,,,42,0
297000,note_on,,,,,2413,0,1,,,,,0,,,40,127
297000,set_tempo,,,,,7,1,0,,857140,,,,,,,
298362,note_on,,,,,1362,0,1,,,,,0,,,40,0
298680,note_on,,,,,318,0,1,,,,,0,,,39,122
298919,note_on,,,,,239,0,1,,,,,0,,,39,0
298920,note_on,,,,,1,0,1,,,,,0,,,33,122
299159,note_on,,,,,239,0,1,,,,,0,,,33,0
299160,note_on,,,,,1,0,1,,,,,0,,,34,122
299387,note_on,,,,,227,0,1,,,,,0,,,34,0
299400,time_signature,6,4,24,8,2400,1,0,,,,,,,,,
299400,set_tempo,,,,,0,1,0,,1285711,,,,,,,
299400,note_on,,,,,13,0,1,,,,,0,,,41,127
300603,note_on,,,,,1203,0,1,,,,,0,,,41,0
300839,set_tempo,,,,,1439,1,0,,857140,,,,,,,
301080,set_tempo,,,,,241,1,0,,1200000,,,,,,,
301080,note_on,,,,,477,0,1,,,,,0,,,39,120
301319,note_on,,,,,239,0,1,,,,,0,,,39,0
301320,note_on,,,,,1,0,1,,,,,0,,,33,118
301559,note_on,,,,,239,0,1,,,,,0,,,33,0
301560,note_on,,,,,1,0,1,,,,,0,,,34,116
301799,note_on,,,,,239,0,1,,,,,0,,,34,0
301800,note_on,,,,,0,0,0,,,,,0,,,55,114
301800,set_tempo,,,,,720,1,0,,1200000,,,,,,,
301800,note_on,,,,,0,0,0,,,,,0,,,63,114
301800,note_on,,,,,0,0,0,,,,,0,,,58,114
301800,note_on,,,,,1,0,1,,,,,0,,,37,114
302039,note_on,,,,,239,0,1,,,,,0,,,37,0
302040,note_on,,,,,1,0,1,,,,,0,,,36,112
302255,note_on,,,,,0,0,0,,,,,0,,,58,0
302255,note_on,,,,,0,0,0,,,,,0,,,63,0
302255,note_on,,,,,455,0,0,,,,,0,,,55,0
302267,note_on,,,,,227,0,1,,,,,0,,,36,0
302280,note_on,,,,,25,0,0,,,,,0,,,72,64
302280,note_on,,,,,0,0,0,,,,,0,,,60,64
302280,note_on,,,,,13,0,1,,,,,0,,,32,34
302343,note_on,,,,,63,0,0,,,,,0,,,63,64
302507,note_on,,,,,227,0,1,,,,,0,,,32,0
302518,note_on,,,,,175,0,0,,,,,0,,,63,0
302519,note_on,,,,,1,0,0,,,,,0,,,60,0
302520,set_tempo,,,,,1,1,0,,1200000,,,,,,,
302520,note_on,,,,,0,0,0,,,,,0,,,60,64
302520,note_on,,,,,0,0,1,,,,,0,,,51,34
302520,note_on,,,,,0,0,0,,,,,0,,,63,64
302520,note_on,,,,,0,0,1,,,,,0,,,56,34
302520,note_on,,,,,13,0,1,,,,,0,,,44,34
302639,note_on,,,,,119,0,1,,,,,0,,,44,0
302639,note_on,,,,,0,0,1,,,,,0,,,56,0
302639,note_on,,,,,0,0,1,,,,,0,,,51,0
302759,note_on,,,,,239,0,0,,,,,0,,,60,0
302759,note_on,,,,,0,0,0,,,,,0,,,63,0
302760,note_on,,,,,0,0,1,,,,,0,,,56,34
302760,note_on,,,,,0,0,1,,,,,0,,,51,34
302760,note_on,,,,,1,0,0,,,,,0,,,60,64
302760,note_on,,,,,0,0,0,,,,,0,,,63,64
302760,note_on,,,,,121,0,1,,,,,0,,,44,34
302879,note_on,,,,,119,0,1,,,,,0,,,44,0
302879,note_on,,,,,0,0,1,,,,,0,,,51,0
302879,note_on,,,,,0,0,1,,,,,0,,,56,0
302999,note_on,,,,,0,0,0,,,,,0,,,63,0
302999,note_on,,,,,0,0,0,,,,,0,,,60,0
302999,note_on,,,,,239,0,0,,,,,0,,,72,0
303000,note_on,,,,,121,0,1,,,,,0,,,44,34
303000,set_tempo,,,,,1,1,0,,857140,,,,,,,
303000,note_on,,,,,0,0,0,,,,,0,,,71,64
303000,note_on,,,,,0,0,0,,,,,0,,,63,64
303000,note_on,,,,,0,0,1,,,,,0,,,56,34
303000,note_on,,,,,0,0,0,,,,,0,,,60,64
303000,note_on,,,,,0,0,1,,,,,0,,,51,34
303119,note_on,,,,,0,0,1,,,,,0,,,51,0
303119,note_on,,,,,0,0,1,,,,,0,,,56,0
303119,note_on,,,,,119,0,0,,,,,0,,,71,0
303119,note_on,,,,,119,0,1,,,,,0,,,44,0
303239,note_on,,,,,120,0,0,,,,,0,,,60,0
303239,note_on,,,,,0,0,0,,,,,0,,,63,0
303240,note_on,,,,,121,0,1,,,,,0,,,44,34
303240,note_on,,,,,1,0,0,,,,,0,,,72,64
303240,note_on,,,,,0,0,1,,,,,0,,,56,34
303240,note_on,,,,,0,0,0,,,,,0,,,60,64
303240,note_on,,,,,0,0,0,,,,,0,,,63,64
303240,note_on,,,,,0,0,1,,,,,0,,,51,34
303359,note_on,,,,,119,0,0,,,,,0,,,72,0
303359,note_on,,,,,0,0,1,,,,,0,,,56,0
303359,note_on,,,,,119,0,1,,,,,0,,,44,0
303359,note_on,,,,,0,0,1,,,,,0,,,51,0
303479,note_on,,,,,120,0,0,,,,,0,,,60,0
303479,note_on,,,,,0,0,0,,,,,0,,,63,0
303480,note_on,,,,,1,0,0,,,,,0,,,71,64
303480,note_on,,,,,121,0,1,,,,,0,,,44,34
303480,note_on,,,,,0,0,0,,,,,0,,,60,64
303480,note_on,,,,,0,0,0,,,,,0,,,63,64
303480,note_on,,,,,0,0,1,,,,,0,,,56,34
303480,note_on,,,,,0,0,1,,,,,0,,,51,34
303599,note_on,,,,,0,0,1,,,,,0,,,51,0
303599,note_on,,,,,0,0,1,,,,,0,,,56,0
303599,note_on,,,,,119,0,1,,,,,0,,,44,0
303599,note_on,,,,,119,0,0,,,,,0,,,71,0
303707,note_on,,,,,108,0,0,,,,,0,,,60,0
303707,note_on,,,,,0,0,0,,,,,0,,,63,0
303720,note_on,,,,,13,0,0,,,,,0,,,72,64
303720,note_on,,,,,121,0,1,,,,,0,,,44,34
303720,note_on,,,,,0,0,1,,,,,0,,,51,34
303720,note_on,,,,,0,0,1,,,,,0,,,56,34
303720,note_on,,,,,0,0,0,,,,,0,,,60,64
303720,note_on,,,,,0,0,0,,,,,0,,,63,64
303839,note_on,,,,,119,0,1,,,,,0,,,44,0
303839,note_on,,,,,119,0,0,,,,,0,,,72,0
303839,note_on,,,,,0,0,1,,,,,0,,,51,0
303839,note_on,,,,,0,0,1,,,,,0,,,56,0
303959,note_on,,,,,0,0,0,,,,,0,,,63,0
303959,note_on,,,,,120,0,0,,,,,0,,,60,0
303960,note_on,,,,,0,0,0,,,,,0,,,63,64
303960,note_on,,,,,0,0,0,,,,,0,,,60,64
303960,note_on,,,,,0,0,1,,,,,0,,,51,34
303960,note_on,,,,,121,0,1,,,,,0,,,44,34
303960,note_on,,,,,1,0,0,,,,,0,,,71,64
303960,note_on,,,,,0,0,1,,,,,0,,,56,34
304079,note_on,,,,,0,0,1,,,,,0,,,56,0
304079,note_on,,,,,119,0,0,,,,,0,,,71,0
304079,note_on,,,,,119,0,1,,,,,0,,,44,0
304079,note_on,,,,,0,0,1,,,,,0,,,51,0
304199,note_on,,,,,120,0,0,,,,,0,,,60,0
304199,note_on,,,,,0,0,0,,,,,0,,,63,0
304200,note_on,,,,,121,0,1,,,,,0,,,44,34
304200,note_on,,,,,1,0,0,,,,,0,,,72,64
304200,note_on,,,,,0,0,1,,,,,0,,,51,34
304200,note_on,,,,,0,0,1,,,,,0,,,56,34
304200,note_on,,,,,0,0,0,,,,,0,,,60,64
304200,note_on,,,,,0,0,0,,,,,0,,,63,64
304319,note_on,,,,,119,0,1,,,,,0,,,44,0
304319,note_on,,,,,0,0,1,,,,,0,,,56,0
304319,note_on,,,,,0,0,1,,,,,0,,,51,0
304319,note_on,,,,,119,0,0,,,,,0,,,72,0
304439,note_on,,,,,120,0,0,,,,,0,,,60,0
304439,note_on,,,,,0,0,0,,,,,0,,,63,0
304440,set_tempo,,,,,1,1,0,,800000,,,,,,,
304440,note_on,,,,,0,0,0,,,,,0,,,70,64
304440,note_on,,,,,0,0,0,,,,,0,,,63,64
304440,note_on,,,,,121,0,1,,,,,0,,,44,34
304440,note_on,,,,,0,0,1,,,,,0,,,51,34
304440,note_on,,,,,0,0,1,,,,,0,,,56,34
304440,note_on,,,,,0,0,0,,,,,0,,,60,64
304559,note_on,,,,,0,0,1,,,,,0,,,51,0
304559,note_on,,,,,119,0,1,,,,,0,,,44,0
304559,note_on,,,,,0,0,1,,,,,0,,,56,0
304559,note_on,,,,,119,0,0,,,,,0,,,70,0
304679,note_on,,,,,0,0,0,,,,,0,,,63,0
304679,note_on,,,,,120,0,0,,,,,0,,,60,0
304680,note_on,,,,,1,0,0,,,,,0,,,68,64
304680,note_on,,,,,0,0,0,,,,,0,,,60,64
304680,note_on,,,,,121,0,1,,,,,0,,,44,34
304680,note_on,,,,,0,0,0,,,,,0,,,63,64
304680,note_on,,,,,0,0,1,,,,,0,,,56,34
304680,note_on,,,,,0,0,1,,,,,0,,,51,34
304799,note_on,,,,,119,0,1,,,,,0,,,44,0
304799,note_on,,,,,0,0,1,,,,,0,,,56,0
304799,note_on,,,,,0,0,1,,,,,0,,,51,0
304799,note_on,,,,,119,0,0,,,,,0,,,68,0
304919,note_on,,,,,0,0,0,,,,,0,,,63,0
304919,note_on,,,,,120,0,0,,,,,0,,,60,0
304920,note_on,,,,,0,0,0,,,,,0,,,60,64
304920,note_on,,,,,121,0,1,,,,,0,,,44,34
304920,note_on,,,,,0,0,0,,,,,0,,,63,64
304920,note_on,,,,,1,0,0,,,,,0,,,67,64
304920,note_on,,,,,0,0,1,,,,,0,,,56,34
304920,note_on,,,,,0,0,1,,,,,0,,,51,34
305039,note_on,,,,,0,0,1,,,,,0,,,51,0
305039,note_on,,,,,119,0,1,,,,,0,,,44,0
305039,note_on,,,,,0,0,1,,,,,0,,,56,0
305039,note_on,,,,,119,0,0,,,,,0,,,67,0
305147,note_on,,,,,108,0,0,,,,,0,,,60,0
305147,note_on,,,,,0,0,0,,,,,0,,,63,0
305160,note_on,,,,,13,0,0,,,,,0,,,65,64
305160,note_on,,,,,121,0,1,,,,,0,,,32,34
305279,note_on,,,,,119,0,0,,,,,0,,,65,0
305387,note_on,,,,,227,0,1,,,,,0,,,32,0
305400,note_on,,,,,121,0,0,,,,,0,,,63,64
305400,note_on,,,,,0,0,0,,,,,0,,,56,64
305400,note_on,,,,,0,0,1,,,,,0,,,54,34
305400,note_on,,,,,0,0,1,,,,,0,,,51,34
305400,note_on,,,,,0,0,0,,,,,0,,,60,64
305400,note_on,,,,,13,0,1,,,,,0,,,44,34
305519,note_on,,,,,119,0,0,,,,,0,,,63,0
305519,note_on,,,,,0,0,1,,,,,0,,,51,0
305519,note_on,,,,,119,0,1,,,,,0,,,44,0
305519,note_on,,,,,0,0,1,,,,,0,,,54,0
305639,note_on,,,,,0,0,0,,,,,0,,,60,0
305639,note_on,,,,,120,0,0,,,,,0,,,56,0
305640,note_on,,,,,0,0,1,,,,,0,,,54,34
305640,note_on,,,,,1,0,0,,,,,0,,,62,64
305640,note_on,,,,,0,0,1,,,,,0,,,51,34
305640,note_on,,,,,121,0,1,,,,,0,,,44,34
305640,note_on,,,,,0,0,0,,,,,0,,,56,64
305640,note_on,,,,,0,0,0,,,,,0,,,60,64
305759,note_on,,,,,119,0,1,,,,,0,,,44,0
305759,note_on,,,,,119,0,0,,,,,0,,,62,0
305759,note_on,,,,,0,0,1,,,,,0,,,54,0
305759,note_on,,,,,0,0,1,,,,,0,,,51,0
305879,note_on,,,,,0,0,0,,,,,0,,,60,0
305879,note_on,,,,,120,0,0,,,,,0,,,56,0
305880,note_on,,,,,0,0,1,,,,,0,,,54,34
305880,note_on,,,,,0,0,1,,,,,0,,,51,34
305880,note_on,,,,,0,0,0,,,,,0,,,60,64
305880,note_on,,,,,0,0,0,,,,,0,,,56,64
305880,note_on,,,,,1,0,0,,,,,0,,,63,64
305880,note_on,,,,,121,0,1,,,,,0,,,44,34
305999,note_on,,,,,119,0,0,,,,,0,,,63,0
305999,note_on,,,,,0,0,1,,,,,0,,,54,0
305999,note_on,,,,,0,0,1,,,,,0,,,51,0
305999,note_on,,,,,119,0,1,,,,,0,,,44,0
306119,note_on,,,,,120,0,0,,,,,0,,,56,0
306119,note_on,,,,,0,0,0,,,,,0,,,60,0
306120,note_on,,,,,0,0,1,,,,,0,,,54,34
306120,note_on,,,,,0,0,0,,,,,0,,,60,64
306120,note_on,,,,,121,0,1,,,,,0,,,44,34
306120,note_on,,,,,0,0,0,,,,,0,,,56,64
306120,note_on,,,,,1,0,0,,,,,0,,,62,64
306120,note_on,,,,,0,0,1,,,,,0,,,51,34
306239,note_on,,,,,0,0,1,,,,,0,,,51,0
306239,note_on,,,,,119,0,1,,,,,0,,,44,0
306239,note_on,,,,,119,0,0,,,,,0,,,62,0
306239,note_on,,,,,0,0,1,,,,,0,,,54,0
306359,note_on,,,,,120,0,0,,,,,0,,,56,0
306359,note_on,,,,,0,0,0,,,,,0,,,60,0
306360,note_on,,,,,121,0,1,,,,,0,,,44,34
306360,note_on,,,,,0,0,1,,,,,0,,,51,34
306360,note_on,,,,,0,0,1,,,,,0,,,54,34
306360,note_on,,,,,0,0,0,,,,,0,,,56,64
306360,note_on,,,,,1,0,0,,,,,0,,,63,64
306360,note_on,,,,,0,0,0,,,,,0,,,60,64
306479,note_on,,,,,119,0,1,,,,,0,,,44,0
306479,note_on,,,,,0,0,1,,,,,0,,,51,0
306479,note_on,,,,,0,0,1,,,,,0,,,54,0
306479,note_on,,,,,119,0,0,,,,,0,,,63,0
306599,note_on,,,,,0,0,0,,,,,0,,,60,0
306599,note_on,,,,,120,0,0,,,,,0,,,56,0
306600,note_on,,,,,0,0,0,,,,,0,,,60,64
306600,note_on,,,,,0,0,1,,,,,0,,,51,64
306600,note_on,,,,,0,0,0,,,,,0,,,56,64
306600,note_on,,,,,1,0,0,,,,,0,,,64,64
306600,note_on,,,,,121,0,1,,,,,0,,,44,64
306600,note_on,,,,,0,0,1,,,,,0,,,54,64
306719,note_on,,,,,0,0,1,,,,,0,,,54,0
306719,note_on,,,,,119,0,0,,,,,0,,,64,0
306719,note_on,,,,,119,0,1,,,,,0,,,44,0
306719,note_on,,,,,0,0,1,,,,,0,,,51,0
306839,note_on,,,,,120,0,0,,,,,0,,,56,0
306839,note_on,,,,,0,0,0,,,,,0,,,60,0
306840,note_on,,,,,1,0,0,,,,,0,,,65,65
306840,note_on,,,,,0,0,1,,,,,0,,,51,65
306840,note_on,,,,,0,0,1,,,,,0,,,54,65
306840,note_on,,,,,0,0,0,,,,,0,,,60,65
306840,note_on,,,,,0,0,0,,,,,0,,,56,65
306840,note_on,,,,,121,0,1,,,,,0,,,44,65
306959,note_on,,,,,119,0,0,,,,,0,,,65,0
306959,note_on,,,,,119,0,1,,,,,0,,,44,0
306959,note_on,,,,,0,0,1,,,,,0,,,51,0
306959,note_on,,,,,0,0,1,,,,,0,,,54,0
307079,note_on,,,,,120,0,0,,,,,0,,,56,0
307079,note_on,,,,,0,0,0,,,,,0,,,60,0
307080,note_on,,,,,0,0,1,,,,,0,,,51,67
307080,note_on,,,,,121,0,1,,,,,0,,,44,67
307080,note_on,,,,,0,0,1,,,,,0,,,54,67
307080,note_on,,,,,0,0,0,,,,,0,,,56,67
307080,note_on,,,,,0,0,0,,,,,0,,,60,67
307080,note_on,,,,,1,0,0,,,,,0,,,66,67
307199,note_on,,,,,119,0,0,,,,,0,,,66,0
307199,note_on,,,,,119,0,1,,,,,0,,,44,0
307199,note_on,,,,,0,0,1,,,,,0,,,51,0
307199,note_on,,,,,0,0,1,,,,,0,,,54,0
307319,note_on,,,,,0,0,0,,,,,0,,,60,0
307319,note_on,,,,,120,0,0,,,,,0,,,56,0
307320,note_on,,,,,0,0,0,,,,,0,,,56,69
307320,note_on,,,,,0,0,0,,,,,0,,,60,69
307320,note_on,,,,,0,0,1,,,,,0,,,51,69
307320,note_on,,,,,121,0,1,,,,,0,,,44,69
307320,note_on,,,,,0,0,1,,,,,0,,,54,69
307320,note_on,,,,,1,0,0,,,,,0,,,67,69
307439,note_on,,,,,119,0,1,,,,,0,,,44,0
307439,note_on,,,,,119,0,0,,,,,0,,,67,0
307439,note_on,,,,,0,0,1,,,,,0,,,51,0
307439,note_on,,,,,0,0,1,,,,,0,,,54,0
307559,note_on,,,,,120,0,0,,,,,0,,,56,0
307559,note_on,,,,,0,0,0,,,,,0,,,60,0
307560,note_on,,,,,0,0,1,,,,,0,,,51,70
307560,note_on,,,,,1,0,0,,,,,0,,,68,70
307560,note_on,,,,,0,0,0,,,,,0,,,56,70
307560,note_on,,,,,0,0,1,,,,,0,,,54,70
307560,note_on,,,,,0,0,0,,,,,0,,,60,70
307560,note_on,,,,,121,0,1,,,,,0,,,44,70
307679,note_on,,,,,0,0,1,,,,,0,,,54,0
307679,note_on,,,,,119,0,1,,,,,0,,,44,0
307679,note_on,,,,,119,0,0,,,,,0,,,68,0
307679,note_on,,,,,0,0,1,,,,,0,,,51,0
307799,note_on,,,,,0,0,0,,,,,0,,,60,0
307799,note_on,,,,,120,0,0,,,,,0,,,56,0
307800,note_on,,,,,1,0,0,,,,,0,,,69,72
307800,note_on,,,,,0,0,1,,,,,0,,,51,72
307800,note_on,,,,,0,0,1,,,,,0,,,54,72
307800,note_on,,,,,0,0,0,,,,,0,,,60,72
307800,note_on,,,,,121,0,1,,,,,0,,,44,72
307800,note_on,,,,,0,0,0,,,,,0,,,56,72
307919,note_on,,,,,0,0,1,,,,,0,,,54,0
307919,note_on,,,,,0,0,1,,,,,0,,,51,0
307919,note_on,,,,,119,0,0,,,,,0,,,69,0
307919,note_on,,,,,119,0,1,,,,,0,,,44,0
308027,note_on,,,,,108,0,0,,,,,0,,,56,0
308027,note_on,,,,,0,0,0,,,,,0,,,60,0
308040,note_on,,,,,13,0,0,,,,,0,,,70,88
308040,note_on,,,,,121,0,1,,,,,0,,,32,74
308267,note_on,,,,,227,0,1,,,,,0,,,32,0
308280,note_on,,,,,13,0,1,,,,,0,,,44,74
308280,note_on,,,,,240,0,0,,,,,0,,,56,74
308280,note_on,,,,,0,0,1,,,,,0,,,53,74
308280,note_on,,,,,0,0,1,,,,,0,,,50,74
308280,note_on,,,,,0,0,0,,,,,0,,,58,74
308280,note_on,,,,,0,0,0,,,,,0,,,62,74
308399,note_on,,,,,0,0,0,,,,,0,,,58,0
308399,note_on,,,,,0,0,1,,,,,0,,,50,0
308399,note_on,,,,,0,0,1,,,,,0,,,53,0
308399,note_on,,,,,119,0,0,,,,,0,,,56,0
308399,note_on,,,,,119,0,1,,,,,0,,,44,0
308399,note_on,,,,,0,0,0,,,,,0,,,62,0
308520,note_on,,,,,0,0,0,,,,,0,,,58,74
308520,note_on,,,,,0,0,0,,,,,0,,,62,74
308520,note_on,,,,,0,0,1,,,,,0,,,53,74
308520,note_on,,,,,121,0,0,,,,,0,,,56,74
308520,note_on,,,,,121,0,1,,,,,0,,,44,74
308520,note_on,,,,,0,0,1,,,,,0,,,50,74
308639,note_on,,,,,0,0,0,,,,,0,,,58,0
308639,note_on,,,,,0,0,1,,,,,0,,,50,0
308639,note_on,,,,,0,0,0,,,,,0,,,62,0
308639,note_on,,,,,0,0,1,,,,,0,,,53,0
308639,note_on,,,,,119,0,0,,,,,0,,,56,0
308639,note_on,,,,,119,0,1,,,,,0,,,44,0
308760,note_on,,,,,0,0,1,,,,,0,,,50,74
308760,note_on,,,,,0,0,0,,,,,0,,,62,74
308760,note_on,,,,,121,0,1,,,,,0,,,44,74
308760,note_on,,,,,0,0,1,,,,,0,,,53,74
308760,note_on,,,,,0,0,0,,,,,0,,,58,74
308760,note_on,,,,,121,0,0,,,,,0,,,56,74
308879,note_on,,,,,0,0,1,,,,,0,,,53,0
308879,note_on,,,,,119,0,0,,,,,0,,,56,0
308879,note_on,,,,,0,0,1,,,,,0,,,50,0
308879,note_on,,,,,0,0,0,,,,,0,,,62,0
308879,note_on,,,,,119,0,1,,,,,0,,,44,0
308879,note_on,,,,,0,0,0,,,,,0,,,58,0
308999,note_on,,,,,120,0,0,,,,,0,,,70,0
309000,note_on,,,,,121,0,1,,,,,0,,,44,74
309000,note_on,,,,,1,0,0,,,,,0,,,65,74
309000,note_on,,,,,0,0,0,,,,,0,,,56,74
309000,note_on,,,,,0,0,1,,,,,0,,,53,74
309000,note_on,,,,,0,0,0,,,,,0,,,58,74
309000,note_on,,,,,0,0,1,,,,,0,,,50,74
309000,note_on,,,,,0,0,0,,,,,0,,,62,74
309119,note_on,,,,,0,0,1,,,,,0,,,53,0
309119,note_on,,,,,0,0,1,,,,,0,,,50,0
309119,note_on,,,,,0,0,0,,,,,0,,,58,0
309119,note_on,,,,,119,0,1,,,,,0,,,44,0
309119,note_on,,,,,0,0,0,,,,,0,,,62,0
309119,note_on,,,,,119,0,0,,,,,0,,,56,0
309240,note_on,,,,,0,0,0,,,,,0,,,62,74
309240,note_on,,,,,0,0,0,,,,,0,,,58,74
309240,note_on,,,,,0,0,1,,,,,0,,,53,74
309240,note_on,,,,,0,0,1,,,,,0,,,50,74
309240,note_on,,,,,121,0,0,,,,,0,,,56,74
309240,note_on,,,,,121,0,1,,,,,0,,,44,74
309359,note_on,,,,,0,0,1,,,,,0,,,53,0
309359,note_on,,,,,0,0,1,,,,,0,,,50,0
309359,note_on,,,,,0,0,0,,,,,0,,,58,0
309359,note_on,,,,,119,0,0,,,,,0,,,56,0
309359,note_on,,,,,0,0,0,,,,,0,,,62,0
309359,note_on,,,,,119,0,1,,,,,0,,,44,0
309455,note_on,,,,,96,0,0,,,,,0,,,65,0
309480,note_on,,,,,0,0,0,,,,,0,,,61,74
309480,note_on,,,,,0,0,0,,,,,0,,,65,74
309480,note_on,,,,,121,0,1,,,,,0,,,44,74
309480,note_on,,,,,0,0,1,,,,,0,,,58,74
309480,note_on,,,,,25,0,0,,,,,0,,,73,88
309480,note_on,,,,,0,0,1,,,,,0,,,53,74
309480,note_on,,,,,0,0,1,,,,,0,,,49,74
309599,note_on,,,,,0,0,1,,,,,0,,,58,0
309599,note_on,,,,,0,0,1,,,,,0,,,49,0
309599,note_on,,,,,0,0,1,,,,,0,,,53,0
309599,note_on,,,,,119,0,1,,,,,0,,,44,0
309719,note_on,,,,,0,0,0,,,,,0,,,65,0
309719,note_on,,,,,239,0,0,,,,,0,,,61,0
309720,note_on,,,,,0,0,0,,,,,0,,,65,74
309720,note_on,,,,,0,0,1,,,,,0,,,53,74
309720,note_on,,,,,1,0,0,,,,,0,,,61,74
309720,note_on,,,,,0,0,1,,,,,0,,,49,74
309720,note_on,,,,,121,0,1,,,,,0,,,44,74
309720,note_on,,,,,0,0,1,,,,,0,,,58,74
309839,note_on,,,,,0,0,1,,,,,0,,,58,0
309839,note_on,,,,,119,0,1,,,,,0,,,44,0
309839,note_on,,,,,0,0,1,,,,,0,,,53,0
309839,note_on,,,,,0,0,1,,,,,0,,,49,0
309959,note_on,,,,,0,0,0,,,,,0,,,65,0
309959,note_on,,,,,239,0,0,,,,,0,,,61,0
309960,note_on,,,,,0,0,0,,,,,0,,,65,74
309960,note_on,,,,,121,0,1,,,,,0,,,44,74
309960,note_on,,,,,1,0,0,,,,,0,,,61,74
309960,note_on,,,,,0,0,1,,,,,0,,,49,74
309960,note_on,,,,,0,0,1,,,,,0,,,53,74
309960,note_on,,,,,0,0,1,,,,,0,,,58,74
309961,note_on,,,,,1,0,0,,,,,0,,,73,0
310079,note_on,,,,,0,0,1,,,,,0,,,49,0
310079,note_on,,,,,119,0,1,,,,,0,,,44,0
310079,note_on,,,,,0,0,1,,,,,0,,,58,0
310079,note_on,,,,,0,0,1,,,,,0,,,53,0
310199,note_on,,,,,0,0,0,,,,,0,,,65,0
310199,note_on,,,,,238,0,0,,,,,0,,,61,0
310200,note_on,,,,,0,0,1,,,,,0,,,58,74
310200,note_on,,,,,121,0,1,,,,,0,,,44,74
310200,note_on,,,,,1,0,0,,,,,0,,,72,74
310200,note_on,,,,,0,0,1,,,,,0,,,49,74
310200,note_on,,,,,0,0,1,,,,,0,,,53,74
310200,note_on,,,,,0,0,0,,,,,0,,,65,74
310200,note_on,,,,,0,0,0,,,,,0,,,61,74
310319,note_on,,,,,119,0,1,,,,,0,,,44,0
310319,note_on,,,,,0,0,1,,,,,0,,,58,0
310319,note_on,,,,,0,0,1,,,,,0,,,53,0
310319,note_on,,,,,0,0,1,,,,,0,,,49,0
310439,note_on,,,,,239,0,0,,,,,0,,,72,0
310439,note_on,,,,,0,0,0,,,,,0,,,65,0
310439,note_on,,,,,0,0,0,,,,,0,,,61,0
310440,note_on,,,,,121,0,1,,,,,0,,,44,74
310440,note_on,,,,,0,0,1,,,,,0,,,53,74
310440,note_on,,,,,0,0,1,,,,,0,,,49,74
310440,note_on,,,,,1,0,0,,,,,0,,,70,74
310440,note_on,,,,,0,0,0,,,,,0,,,61,74
310440,note_on,,,,,0,0,0,,,,,0,,,65,74
310440,note_on,,,,,0,0,1,,,,,0,,,58,74
310559,note_on,,,,,0,0,1,,,,,0,,,58,0
310559,note_on,,,,,0,0,1,,,,,0,,,53,0
310559,note_on,,,,,119,0,1,,,,,0,,,44,0
310559,note_on,,,,,0,0,1,,,,,0,,,49,0
310679,note_on,,,,,0,0,0,,,,,0,,,61,0
310679,note_on,,,,,239,0,0,,,,,0,,,70,0
310679,note_on,,,,,0,0,0,,,,,0,,,65,0
310680,note_on,,,,,0,0,1,,,,,0,,,53,74
310680,note_on,,,,,1,0,0,,,,,0,,,68,74
310680,note_on,,,,,0,0,1,,,,,0,,,58,74
310680,note_on,,,,,0,0,1,,,,,0,,,49,74
310680,note_on,,,,,0,0,0,,,,,0,,,65,74
310680,note_on,,,,,0,0,0,,,,,0,,,61,74
310680,note_on,,,,,121,0,1,,,,,0,,,44,74
310799,note_on,,,,,119,0,1,,,,,0,,,44,0
310799,note_on,,,,,0,0,1,,,,,0,,,49,0
310799,note_on,,,,,0,0,1,,,,,0,,,53,0
310799,note_on,,,,,0,0,1,,,,,0,,,58,0
310907,note_on,,,,,0,0,0,,,,,0,,,61,0
310907,note_on,,,,,227,0,0,,,,,0,,,68,0
310907,note_on,,,,,0,0,0,,,,,0,,,65,0
310920,note_on,,,,,121,0,1,,,,,0,,,32,74
310920,note_on,,,,,13,0,0,,,,,0,,,68,74
311147,note_on,,,,,227,0,1,,,,,0,,,32,0
311160,note_on,,,,,0,0,1,,,,,0,,,56,72
311160,note_on,,,,,0,0,1,,,,,0,,,52,72
311160,note_on,,,,,13,0,1,,,,,0,,,44,72
311160,note_on,,,,,0,0,0,,,,,0,,,61,72
311160,note_on,,,,,240,0,0,,,,,0,,,58,72
311279,note_on,,,,,0,0,1,,,,,0,,,52,0
311279,note_on,,,,,119,0,1,,,,,0,,,44,0
311279,note_on,,,,,0,0,1,,,,,0,,,56,0
311399,note_on,,,,,0,0,0,,,,,0,,,61,0
311399,note_on,,,,,239,0,0,,,,,0,,,58,0
311400,note_on,,,,,0,0,0,,,,,0,,,61,70
311400,note_on,,,,,1,0,0,,,,,0,,,58,70
311400,note_on,,,,,0,0,1,,,,,0,,,52,70
311400,note_on,,,,,0,0,1,,,,,0,,,56,70
311400,note_on,,,,,121,0,1,,,,,0,,,44,70
311519,note_on,,,,,119,0,1,,,,,0,,,44,0
311519,note_on,,,,,0,0,1,,,,,0,,,56,0
311519,note_on,,,,,0,0,1,,,,,0,,,52,0
311639,note_on,,,,,0,0,0,,,,,0,,,58,0
311639,note_on,,,,,0,0,0,,,,,0,,,61,0
311639,note_on,,,,,239,0,0,,,,,0,,,68,0
311640,note_on,,,,,1,0,0,,,,,0,,,67,68
311640,note_on,,,,,0,0,1,,,,,0,,,55,68
311640,note_on,,,,,0,0,1,,,,,0,,,52,68
311640,note_on,,,,,0,0,0,,,,,0,,,58,68
311640,note_on,,,,,0,0,0,,,,,0,,,61,68
311640,note_on,,,,,121,0,1,,,,,0,,,44,68
311759,note_on,,,,,119,0,0,,,,,0,,,67,0
311759,note_on,,,,,119,0,1,,,,,0,,,44,0
311759,note_on,,,,,0,0,1,,,,,0,,,52,0
311759,note_on,,,,,0,0,1,,,,,0,,,55,0
311879,note_on,,,,,120,0,0,,,,,0,,,58,0
311879,note_on,,,,,0,0,0,,,,,0,,,61,0
311880,note_on,,,,,121,0,1,,,,,0,,,44,66
311880,note_on,,,,,0,0,0,,,,,0,,,58,66
311880,note_on,,,,,0,0,1,,,,,0,,,52,66
311880,note_on,,,,,1,0,0,,,,,0,,,64,66
311880,note_on,,,,,0,0,0,,,,,0,,,55,66
311880,note_on,,,,,0,0,1,,,,,0,,,49,66
311999,note_on,,,,,0,0,1,,,,,0,,,49,0
311999,note_on,,,,,119,0,0,,,,,0,,,64,0
311999,note_on,,,,,119,0,1,,,,,0,,,44,0
311999,note_on,,,,,0,0,1,,,,,0,,,52,0
312119,note_on,,,,,0,0,0,,,,,0,,,58,0
312119,note_on,,,,,120,0,0,,,,,0,,,55,0
312120,note_on,,,,,1,0,0,,,,,0,,,63,64
312120,note_on,,,,,0,0,0,,,,,0,,,55,64
312120,note_on,,,,,121,0,1,,,,,0,,,44,64
312120,note_on,,,,,0,0,0,,,,,0,,,58,64
312120,note_on,,,,,0,0,1,,,,,0,,,51,64
312120,note_on,,,,,0,0,1,,,,,0,,,49,64
312239,note_on,,,,,0,0,1,,,,,0,,,51,0
312239,note_on,,,,,119,0,0,,,,,0,,,63,0
312239,note_on,,,,,0,0,1,,,,,0,,,49,0
312239,note_on,,,,,119,0,1,,,,,0,,,44,0
312347,note_on,,,,,0,0,0,,,,,0,,,58,0
312347,note_on,,,,,108,0,0,,,,,0,,,55,0
312360,note_on,,,,,0,0,0,,,,,0,,,58,64
312360,note_on,,,,,0,0,1,,,,,0,,,50,64
312360,note_on,,,,,0,0,1,,,,,0,,,49,64
312360,note_on,,,,,121,0,1,,,,,0,,,44,64
312360,note_on,,,,,13,0,0,,,,,0,,,62,64
312360,note_on,,,,,0,0,0,,,,,0,,,55,64
312479,note_on,,,,,0,0,1,,,,,0,,,50,0
312479,note_on,,,,,119,0,0,,,,,0,,,62,0
312479,note_on,,,,,0,0,1,,,,,0,,,49,0
312479,note_on,,,,,119,0,1,,,,,0,,,44,0
312599,note_on,,,,,0,0,0,,,,,0,,,58,0
312599,note_on,,,,,120,0,0,,,,,0,,,55,0
312600,note_on,,,,,1,0,0,,,,,0,,,63,65
312600,note_on,,,,,121,0,1,,,,,0,,,44,65
312600,note_on,,,,,0,0,1,,,,,0,,,51,65
312600,note_on,,,,,0,0,1,,,,,0,,,50,65
312600,note_on,,,,,0,0,0,,,,,0,,,58,65
312600,note_on,,,,,0,0,0,,,,,0,,,55,65
312719,note_on,,,,,0,0,1,,,,,0,,,50,0
312719,note_on,,,,,0,0,1,,,,,0,,,51,0
312719,note_on,,,,,119,0,0,,,,,0,,,63,0
312719,note_on,,,,,119,0,1,,,,,0,,,44,0
312839,note_on,,,,,120,0,0,,,,,0,,,55,0
312839,note_on,,,,,0,0,0,,,,,0,,,58,0
312840,note_on,,,,,0,0,1,,,,,0,,,52,67
312840,note_on,,,,,0,0,1,,,,,0,,,50,67
312840,note_on,,,,,0,0,0,,,,,0,,,58,67
312840,note_on,,,,,121,0,1,,,,,0,,,44,67
312840,note_on,,,,,0,0,0,,,,,0,,,55,67
312840,note_on,,,,,1,0,0,,,,,0,,,64,67
312959,note_on,,,,,0,0,1,,,,,0,,,52,0
312959,note_on,,,,,119,0,1,,,,,0,,,44,0
312959,note_on,,,,,0,0,1,,,,,0,,,50,0
312959,note_on,,,,,119,0,0,,,,,0,,,64,0
313079,note_on,,,,,120,0,0,,,,,0,,,55,0
313079,note_on,,,,,0,0,0,,,,,0,,,58,0
313080,note_on,,,,,121,0,1,,,,,0,,,44,69
313080,note_on,,,,,0,0,1,,,,,0,,,51,69
313080,note_on,,,,,0,0,0,,,,,0,,,58,69
313080,note_on,,,,,0,0,0,,,,,0,,,55,69
313080,note_on,,,,,1,0,0,,,,,0,,,63,69
313080,note_on,,,,,0,0,1,,,,,0,,,50,69
313199,note_on,,,,,119,0,0,,,,,0,,,63,0
313199,note_on,,,,,119,0,1,,,,,0,,,44,0
313199,note_on,,,,,0,0,1,,,,,0,,,51,0
313199,note_on,,,,,0,0,1,,,,,0,,,50,0
313319,note_on,,,,,0,0,0,,,,,0,,,58,0
313319,note_on,,,,,120,0,0,,,,,0,,,55,0
313320,note_on,,,,,121,0,1,,,,,0,,,44,70
313320,note_on,,,,,0,0,0,,,,,0,,,58,70
313320,note_on,,,,,1,0,0,,,,,0,,,67,70
313320,note_on,,,,,0,0,1,,,,,0,,,50,70
313320,note_on,,,,,0,0,1,,,,,0,,,53,70
313320,note_on,,,,,0,0,0,,,,,0,,,55,70
313357,note_on,,,,,37,0,0,,,,,0,,,67,0
313358,note_on,,,,,1,0,0,,,,,0,,,65,70
313439,note_on,,,,,119,0,1,,,,,0,,,44,0
313439,note_on,,,,,0,0,1,,,,,0,,,50,0
313439,note_on,,,,,0,0,1,,,,,0,,,53,0
313457,note_on,,,,,99,0,0,,,,,0,,,65,0
313559,note_on,,,,,102,0,0,,,,,0,,,55,0
313559,note_on,,,,,0,0,0,,,,,0,,,58,0
313560,note_on,,,,,121,0,1,,,,,0,,,44,72
313560,note_on,,,,,1,0,0,,,,,0,,,63,72
313560,note_on,,,,,0,0,1,,,,,0,,,50,72
313560,note_on,,,,,0,0,0,,,,,0,,,55,72
313560,note_on,,,,,0,0,0,,,,,0,,,58,72
313560,note_on,,,,,0,0,1,,,,,0,,,51,72
313679,note_on,,,,,119,0,0,,,,,0,,,63,0
313679,note_on,,,,,119,0,1,,,,,0,,,44,0
313679,note_on,,,,,0,0,1,,,,,0,,,51,0
313679,note_on,,,,,0,0,1,,,,,0,,,50,0
313787,note_on,,,,,0,0,0,,,,,0,,,58,0
313787,note_on,,,,,108,0,0,,,,,0,,,55,0
313800,note_on,,,,,13,0,0,,,,,0,,,75,88
313800,note_on,,,,,121,0,1,,,,,0,,,32,74
314027,note_on,,,,,227,0,1,,,,,0,,,32,0
314040,note_on,,,,,13,0,1,,,,,0,,,54,74
314040,note_on,,,,,240,0,0,,,,,0,,,60,74
314040,note_on,,,,,0,0,1,,,,,0,,,57,74
314040,note_on,,,,,0,0,1,,,,,0,,,63,74
314040,note_on,,,,,0,0,0,,,,,0,,,66,74
314267,note_on,,,,,0,0,1,,,,,0,,,57,0
314267,note_on,,,,,227,0,0,,,,,0,,,60,0
314267,note_on,,,,,0,0,1,,,,,0,,,63,0
314267,note_on,,,,,227,0,1,,,,,0,,,54,0
314267,note_on,,,,,0,0,0,,,,,0,,,66,0
314280,note_on,,,,,0,0,0,,,,,0,,,66,74
314280,note_on,,,,,13,0,1,,,,,0,,,54,74
314280,note_on,,,,,0,0,1,,,,,0,,,57,74
314280,note_on,,,,,0,0,1,,,,,0,,,63,74
314280,note_on,,,,,13,0,0,,,,,0,,,60,74
314507,note_on,,,,,227,0,1,,,,,0,,,54,0
314507,note_on,,,,,0,0,0,,,,,0,,,66,0
314507,note_on,,,,,227,0,0,,,,,0,,,60,0
314507,note_on,,,,,0,0,1,,,,,0,,,57,0
314507,note_on,,,,,0,0,1,,,,,0,,,63,0
314520,note_on,,,,,13,0,1,,,,,0,,,54,74
314520,note_on,,,,,0,0,1,,,,,0,,,57,74
314520,note_on,,,,,0,0,1,,,,,0,,,63,74
314520,note_on,,,,,0,0,0,,,,,0,,,66,74
314520,note_on,,,,,13,0,0,,,,,0,,,60,74
314747,note_on,,,,,0,0,1,,,,,0,,,57,0
314747,note_on,,,,,0,0,0,,,,,0,,,66,0
314747,note_on,,,,,227,0,0,,,,,0,,,60,0
314747,note_on,,,,,227,0,1,,,,,0,,,54,0
314747,note_on,,,,,0,0,1,,,,,0,,,63,0
314760,note_on,,,,,13,0,1,,,,,0,,,54,74
314760,note_on,,,,,0,0,1,,,,,0,,,63,74
314760,note_on,,,,,13,0,0,,,,,0,,,60,74
314760,note_on,,,,,0,0,0,,,,,0,,,66,74
314760,note_on,,,,,0,0,1,,,,,0,,,56,74
314763,note_on,,,,,3,0,0,,,,,0,,,75,0
314987,note_on,,,,,227,0,1,,,,,0,,,54,0
314987,note_on,,,,,0,0,0,,,,,0,,,66,0
314987,note_on,,,,,0,0,1,,,,,0,,,63,0
314987,note_on,,,,,224,0,0,,,,,0,,,60,0
314987,note_on,,,,,0,0,1,,,,,0,,,56,0
315000,note_on,,,,,13,0,1,,,,,0,,,54,74
315000,note_on,,,,,13,0,0,,,,,0,,,60,74
315000,note_on,,,,,0,0,0,,,,,0,,,66,74
315000,note_on,,,,,0,0,1,,,,,0,,,63,74
315000,note_on,,,,,0,0,1,,,,,0,,,56,74
315227,note_on,,,,,0,0,1,,,,,0,,,56,0
315227,note_on,,,,,0,0,1,,,,,0,,,63,0
315227,note_on,,,,,0,0,0,,,,,0,,,66,0
315227,note_on,,,,,227,0,1,,,,,0,,,54,0
315227,note_on,,,,,227,0,0,,,,,0,,,60,0
315240,set_tempo,,,,,13,1,0,,821916,,,,,,,
315240,note_on,,,,,0,0,0,,,,,0,,,74,88
315480,note_on,,,,,0,0,1,,,,,0,,,56,74
315480,note_on,,,,,253,0,1,,,,,0,,,54,74
315480,note_on,,,,,0,0,1,,,,,0,,,62,74
315480,note_on,,,,,240,0,0,,,,,0,,,60,74
315480,note_on,,,,,0,0,0,,,,,0,,,66,74
315707,note_on,,,,,0,0,1,,,,,0,,,56,0
315707,note_on,,,,,227,0,0,,,,,0,,,60,0
315707,note_on,,,,,227,0,1,,,,,0,,,54,0
315707,note_on,,,,,0,0,0,,,,,0,,,66,0
315707,note_on,,,,,0,0,1,,,,,0,,,62,0
315720,note_on,,,,,13,0,0,,,,,0,,,60,74
315720,note_on,,,,,13,0,1,,,,,0,,,54,74
315720,note_on,,,,,0,0,1,,,,,0,,,56,74
315720,note_on,,,,,0,0,1,,,,,0,,,62,74
315720,note_on,,,,,0,0,0,,,,,0,,,66,74
315947,note_on,,,,,227,0,0,,,,,0,,,60,0
315947,note_on,,,,,0,0,1,,,,,0,,,56,0
315947,note_on,,,,,0,0,1,,,,,0,,,62,0
315947,note_on,,,,,0,0,0,,,,,0,,,66,0
315947,note_on,,,,,227,0,1,,,,,0,,,54,0
315960,note_on,,,,,13,0,0,,,,,0,,,60,74
315960,note_on,,,,,0,0,1,,,,,0,,,56,74
315960,note_on,,,,,0,0,1,,,,,0,,,62,74
315960,note_on,,,,,0,0,0,,,,,0,,,66,74
315960,note_on,,,,,13,0,1,,,,,0,,,54,74
316187,note_on,,,,,0,0,1,,,,,0,,,56,0
316187,note_on,,,,,0,0,1,,,,,0,,,62,0
316187,note_on,,,,,0,0,0,,,,,0,,,66,0
316187,note_on,,,,,227,0,0,,,,,0,,,60,0
316187,note_on,,,,,227,0,1,,,,,0,,,54,0
316200,note_on,,,,,13,0,0,,,,,0,,,59,74
316200,note_on,,,,,13,0,1,,,,,0,,,53,74
316200,note_on,,,,,0,0,0,,,,,0,,,65,74
316200,note_on,,,,,0,0,1,,,,,0,,,56,74
316200,note_on,,,,,0,0,1,,,,,0,,,62,74
316427,note_on,,,,,227,0,0,,,,,0,,,59,0
316427,note_on,,,,,0,0,0,,,,,0,,,65,0
316427,note_on,,,,,0,0,1,,,,,0,,,62,0
316427,note_on,,,,,0,0,1,,,,,0,,,56,0
316427,note_on,,,,,227,0,1,,,,,0,,,53,0
316440,note_on,,,,,0,0,1,,,,,0,,,62,74
316440,note_on,,,,,0,0,1,,,,,0,,,56,74
316440,note_on,,,,,0,0,0,,,,,0,,,65,74
316440,note_on,,,,,13,0,0,,,,,0,,,59,74
316440,note_on,,,,,13,0,1,,,,,0,,,53,74
316667,note_on,,,,,227,0,0,,,,,0,,,59,0
316667,note_on,,,,,0,0,1,,,,,0,,,62,0
316667,note_on,,,,,227,0,1,,,,,0,,,53,0
316667,note_on,,,,,0,0,0,,,,,0,,,65,0
316667,note_on,,,,,0,0,1,,,,,0,,,56,0
316679,note_on,,,,,12,0,0,,,,,0,,,74,0
316680,note_on,,,,,13,0,1,,,,,0,,,44,74
316680,note_on,,,,,0,0,0,,,,,0,,,73,88
316680,set_tempo,,,,,1,1,0,,845073,,,,,,,
316907,note_on,,,,,227,0,1,,,,,0,,,44,0
316920,note_on,,,,,0,0,1,,,,,0,,,56,74
316920,note_on,,,,,0,0,0,,,,,0,,,65,74
316920,note_on,,,,,13,0,1,,,,,0,,,53,74
316920,note_on,,,,,0,0,1,,,,,0,,,61,74
316920,note_on,,,,,240,0,0,,,,,0,,,59,74
317147,note_on,,,,,0,0,1,,,,,0,,,61,0
317147,note_on,,,,,0,0,0,,,,,0,,,65,0
317147,note_on,,,,,227,0,1,,,,,0,,,53,0
317147,note_on,,,,,0,0,1,,,,,0,,,56,0
317147,note_on,,,,,227,0,0,,,,,0,,,59,0
317160,note_on,,,,,13,0,1,,,,,0,,,53,74
317160,note_on,,,,,0,0,0,,,,,0,,,65,74
317160,note_on,,,,,0,0,1,,,,,0,,,56,74
317160,note_on,,,,,0,0,1,,,,,0,,,61,74
317160,note_on,,,,,13,0,0,,,,,0,,,59,74
317387,note_on,,,,,0,0,0,,,,,0,,,65,0
317387,note_on,,,,,227,0,0,,,,,0,,,59,0
317387,note_on,,,,,0,0,1,,,,,0,,,56,0
317387,note_on,,,,,0,0,1,,,,,0,,,61,0
317387,note_on,,,,,227,0,1,,,,,0,,,53,0
317400,note_on,,,,,13,0,0,,,,,0,,,59,74
317400,note_on,,,,,13,0,1,,,,,0,,,53,74
317400,note_on,,,,,0,0,0,,,,,0,,,65,74
317400,note_on,,,,,0,0,1,,,,,0,,,56,74
317400,note_on,,,,,0,0,1,,,,,0,,,61,74
317627,note_on,,,,,0,0,0,,,,,0,,,65,0
317627,note_on,,,,,227,0,0,,,,,0,,,59,0
317627,note_on,,,,,0,0,1,,,,,0,,,56,0
317627,note_on,,,,,0,0,1,,,,,0,,,61,0
317627,note_on,,,,,227,0,1,,,,,0,,,53,0
317640,note_on,,,,,13,0,1,,,,,0,,,52,74
317640,note_on,,,,,13,0,0,,,,,0,,,58,74
317640,note_on,,,,,0,0,1,,,,,0,,,55,74
317640,note_on,,,,,0,0,0,,,,,0,,,64,74
317640,note_on,,,,,0,0,1,,,,,0,,,61,74
317867,note_on,,,,,0,0,1,,,,,0,,,61,0
317867,note_on,,,,,227,0,0,,,,,0,,,58,0
317867,note_on,,,,,0,0,1,,,,,0,,,55,0
317867,note_on,,,,,0,0,0,,,,,0,,,64,0
317867,note_on,,,,,227,0,1,,,,,0,,,52,0
317880,note_on,,,,,0,0,1,,,,,0,,,55,74
317880,note_on,,,,,0,0,1,,,,,0,,,61,74
317880,note_on,,,,,13,0,0,,,,,0,,,58,74
317880,note_on,,,,,0,0,0,,,,,0,,,64,74
317880,note_on,,,,,13,0,1,,,,,0,,,52,74
318107,note_on,,,,,227,0,0,,,,,0,,,58,0
318107,note_on,,,,,0,0,1,,,,,0,,,61,0
318107,note_on,,,,,0,0,0,,,,,0,,,64,0
318107,note_on,,,,,0,0,1,,,,,0,,,55,0
318107,note_on,,,,,227,0,1,,,,,0,,,52,0
318119,note_on,,,,,12,0,0,,,,,0,,,73,0
318120,note_on,,,,,0,0,0,,,,,0,,,72,88
318120,set_tempo,,,,,1,1,0,,869565,,,,,,,
318360,note_on,,,,,0,0,0,,,,,0,,,64,74
318360,note_on,,,,,0,0,1,,,,,0,,,55,74
318360,note_on,,,,,253,0,1,,,,,0,,,52,74
318360,note_on,,,,,240,0,0,,,,,0,,,58,74
318360,note_on,,,,,0,0,1,,,,,0,,,60,74
318587,note_on,,,,,227,0,0,,,,,0,,,58,0
318587,note_on,,,,,0,0,1,,,,,0,,,55,0
318587,note_on,,,,,0,0,1,,,,,0,,,60,0
318587,note_on,,,,,0,0,0,,,,,0,,,64,0
318587,note_on,,,,,227,0,1,,,,,0,,,52,0
318600,note_on,,,,,13,0,1,,,,,0,,,52,74
318600,note_on,,,,,0,0,1,,,,,0,,,60,74
318600,note_on,,,,,0,0,1,,,,,0,,,55,74
318600,note_on,,,,,0,0,0,,,,,0,,,64,74
318600,note_on,,,,,13,0,0,,,,,0,,,58,74
318827,note_on,,,,,0,0,0,,,,,0,,,64,0
318827,note_on,,,,,227,0,0,,,,,0,,,58,0
318827,note_on,,,,,0,0,1,,,,,0,,,55,0
318827,note_on,,,,,227,0,1,,,,,0,,,52,0
318827,note_on,,,,,0,0,1,,,,,0,,,60,0
318840,note_on,,,,,0,0,1,,,,,0,,,60,74
318840,note_on,,,,,13,0,1,,,,,0,,,52,74
318840,note_on,,,,,13,0,0,,,,,0,,,58,74
318840,note_on,,,,,0,0,0,,,,,0,,,64,74
318840,note_on,,,,,0,0,1,,,,,0,,,55,74
319067,note_on,,,,,0,0,1,,,,,0,,,60,0
319067,note_on,,,,,0,0,0,,,,,0,,,64,0
319067,note_on,,,,,0,0,1,,,,,0,,,55,0
319067,note_on,,,,,227,0,0,,,,,0,,,58,0
319067,note_on,,,,,227,0,1,,,,,0,,,52,0
319080,note_on,,,,,13,0,1,,,,,0,,,51,74
319080,note_on,,,,,0,0,1,,,,,0,,,54,74
319080,note_on,,,,,0,0,1,,,,,0,,,60,74
319080,note_on,,,,,13,0,0,,,,,0,,,57,74
319080,note_on,,,,,0,0,0,,,,,0,,,63,74
319307,note_on,,,,,227,0,0,,,,,0,,,57,0
319307,note_on,,,,,227,0,1,,,,,0,,,51,0
319307,note_on,,,,,0,0,1,,,,,0,,,54,0
319307,note_on,,,,,0,0,1,,,,,0,,,60,0
319307,note_on,,,,,0,0,0,,,,,0,,,63,0
319320,note_on,,,,,13,0,1,,,,,0,,,51,74
319320,note_on,,,,,0,0,0,,,,,0,,,63,74
319320,note_on,,,,,0,0,1,,,,,0,,,60,74
319320,note_on,,,,,0,0,1,,,,,0,,,54,74
319320,note_on,,,,,13,0,0,,,,,0,,,57,74
319547,note_on,,,,,0,0,1,,,,,0,,,54,0
319547,note_on,,,,,0,0,1,,,,,0,,,60,0
319547,note_on,,,,,227,0,0,,,,,0,,,57,0
319547,note_on,,,,,0,0,0,,,,,0,,,63,0
319547,note_on,,,,,227,0,1,,,,,0,,,51,0
319559,note_on,,,,,12,0,0,,,,,0,,,72,0
319560,set_tempo,,,,,1,1,0,,895520,,,,,,,
319560,note_on,,,,,0,0,0,,,,,0,,,71,88
319800,note_on,,,,,240,0,0,,,,,0,,,57,74
319800,note_on,,,,,0,0,1,,,,,0,,,59,74
319800,note_on,,,,,0,0,1,,,,,0,,,54,74
319800,note_on,,,,,0,0,0,,,,,0,,,63,74
319800,note_on,,,,,253,0,1,,,,,0,,,51,74
320027,note_on,,,,,0,0,1,,,,,0,,,59,0
320027,note_on,,,,,227,0,0,,,,,0,,,57,0
320027,note_on,,,,,0,0,1,,,,,0,,,54,0
320027,note_on,,,,,0,0,0,,,,,0,,,63,0
320027,note_on,,,,,227,0,1,,,,,0,,,51,0
320040,note_on,,,,,13,0,1,,,,,0,,,51,74
320040,note_on,,,,,13,0,0,,,,,0,,,57,74
320040,note_on,,,,,0,0,1,,,,,0,,,59,74
320040,note_on,,,,,0,0,1,,,,,0,,,54,74
320040,note_on,,,,,0,0,0,,,,,0,,,63,74
320267,note_on,,,,,227,0,1,,,,,0,,,51,0
320267,note_on,,,,,0,0,1,,,,,0,,,54,0
320267,note_on,,,,,227,0,0,,,,,0,,,57,0
320267,note_on,,,,,0,0,0,,,,,0,,,63,0
320267,note_on,,,,,0,0,1,,,,,0,,,59,0
320280,note_on,,,,,13,0,0,,,,,0,,,57,74
320280,note_on,,,,,0,0,0,,,,,0,,,63,74
320280,note_on,,,,,13,0,1,,,,,0,,,51,74
320280,note_on,,,,,0,0,1,,,,,0,,,59,74
320280,note_on,,,,,0,0,1,,,,,0,,,54,74
320507,note_on,,,,,227,0,1,,,,,0,,,51,0
320507,note_on,,,,,0,0,1,,,,,0,,,59,0
320507,note_on,,,,,227,0,0,,,,,0,,,57,0
320507,note_on,,,,,0,0,1,,,,,0,,,54,0
320507,note_on,,,,,0,0,0,,,,,0,,,63,0
320520,note_on,,,,,0,0,0,,,,,0,,,63,74
320520,note_on,,,,,0,0,1,,,,,0,,,59,74
320520,note_on,,,,,0,0,1,,,,,0,,,54,74
320520,note_on,,,,,13,0,0,,,,,0,,,57,74
320520,note_on,,,,,13,0,1,,,,,0,,,51,74
320747,note_on,,,,,0,0,1,,,,,0,,,59,0
320747,note_on,,,,,0,0,0,,,,,0,,,63,0
320747,note_on,,,,,0,0,1,,,,,0,,,54,0
320747,note_on,,,,,227,0,0,,,,,0,,,57,0
320747,note_on,,,,,227,0,1,,,,,0,,,51,0
320760,note_on,,,,,0,0,1,,,,,0,,,59,74
320760,note_on,,,,,13,0,0,,,,,0,,,57,74
320760,note_on,,,,,0,0,1,,,,,0,,,54,74
320760,note_on,,,,,0,0,0,,,,,0,,,63,74
320760,note_on,,,,,13,0,1,,,,,0,,,51,74
320987,note_on,,,,,227,0,1,,,,,0,,,51,0
320987,note_on,,,,,0,0,1,,,,,0,,,59,0
320987,note_on,,,,,0,0,0,,,,,0,,,63,0
320987,note_on,,,,,0,0,1,,,,,0,,,54,0
320987,note_on,,,,,227,0,0,,,,,0,,,57,0
320999,note_on,,,,,12,0,0,,,,,0,,,71,0
321000,set_tempo,,,,,1,1,0,,923080,,,,,,,
321000,note_on,,,,,0,0,0,,,,,0,,,71,74
321240,note_on,,,,,0,0,1,,,,,0,,,54,74
321240,note_on,,,,,240,0,0,,,,,0,,,57,74
321240,note_on,,,,,253,0,1,,,,,0,,,51,74
321240,note_on,,,,,0,0,0,,,,,0,,,63,74
321467,note_on,,,,,0,0,1,,,,,0,,,54,0
321467,note_on,,,,,227,0,0,,,,,0,,,57,0
321467,note_on,,,,,227,0,1,,,,,0,,,51,0
321467,note_on,,,,,0,0,0,,,,,0,,,63,0
321479,note_on,,,,,12,0,0,,,,,0,,,71,0
321480,note_on,,,,,13,0,1,,,,,0,,,41,74
321480,note_on,,,,,1,0,0,,,,,0,,,71,74
321480,note_on,,,,,0,0,0,,,,,0,,,71,74
321707,note_on,,,,,227,0,0,,,,,0,,,71,0
321707,note_on,,,,,227,0,1,,,,,0,,,41,0
321720,note_on,,,,,0,0,0,,,,,0,,,63,74
321720,note_on,,,,,13,0,0,,,,,0,,,57,74
321720,note_on,,,,,0,0,1,,,,,0,,,54,74
321720,note_on,,,,,13,0,1,,,,,0,,,51,74
321947,note_on,,,,,227,0,1,,,,,0,,,51,0
321947,note_on,,,,,0,0,1,,,,,0,,,54,0
321947,note_on,,,,,227,0,0,,,,,0,,,57,0
321947,note_on,,,,,0,0,0,,,,,0,,,63,0
321959,note_on,,,,,12,0,0,,,,,0,,,71,0
321960,note_on,,,,,0,0,0,,,,,0,,,71,74
321960,note_on,,,,,1,0,0,,,,,0,,,71,74
321960,note_on,,,,,13,0,1,,,,,0,,,42,74
322187,note_on,,,,,227,0,0,,,,,0,,,71,0
322187,note_on,,,,,227,0,1,,,,,0,,,42,0
322200,note_on,,,,,13,0,1,,,,,0,,,51,74
322200,note_on,,,,,0,0,1,,,,,0,,,54,74
322200,note_on,,,,,0,0,0,,,,,0,,,63,74
322200,note_on,,,,,13,0,0,,,,,0,,,57,74
322427,note_on,,,,,0,0,1,,,,,0,,,54,0
322427,note_on,,,,,0,0,0,,,,,0,,,63,0
322427,note_on,,,,,227,0,1,,,,,0,,,51,0
322427,note_on,,,,,227,0,0,,,,,0,,,57,0
322439,note_on,,,,,12,0,0,,,,,0,,,71,0
322440,set_tempo,,,,,1,1,0,,952381,,,,,,,
322440,note_on,,,,,13,0,1,,,,,0,,,44,74
322440,note_on,,,,,0,0,0,,,,,0,,,71,88
322440,note_on,,,,,0,0,0,,,,,0,,,71,74
322667,note_on,,,,,227,0,0,,,,,0,,,71,0
322679,note_on,,,,,239,0,1,,,,,0,,,44,0
322680,note_on,,,,,1,0,1,,,,,0,,,50,74
322680,note_on,,,,,13,0,0,,,,,0,,,56,74
322680,note_on,,,,,0,0,1,,,,,0,,,53,74
322680,note_on,,,,,0,0,0,,,,,0,,,62,74
322907,note_on,,,,,227,0,0,,,,,0,,,56,0
322907,note_on,,,,,0,0,0,,,,,0,,,62,0
322919,note_on,,,,,239,0,1,,,,,0,,,50,0
322919,note_on,,,,,12,0,0,,,,,0,,,71,0
322919,note_on,,,,,0,0,1,,,,,0,,,53,0
322920,note_on,,,,,1,0,0,,,,,0,,,70,73
322920,note_on,,,,,1,0,1,,,,,0,,,47,73
322920,note_on,,,,,0,0,0,,,,,0,,,70,73
323147,note_on,,,,,227,0,0,,,,,0,,,70,0
323159,note_on,,,,,239,0,1,,,,,0,,,47,0
323160,note_on,,,,,0,0,0,,,,,0,,,62,72
323160,note_on,,,,,0,0,1,,,,,0,,,53,72
323160,note_on,,,,,13,0,0,,,,,0,,,56,72
323160,note_on,,,,,1,0,1,,,,,0,,,50,72
323375,note_on,,,,,215,0,0,,,,,0,,,70,0
323387,note_on,,,,,12,0,0,,,,,0,,,56,0
323387,note_on,,,,,0,0,0,,,,,0,,,62,0
323399,note_on,,,,,239,0,1,,,,,0,,,50,0
323399,note_on,,,,,0,0,1,,,,,0,,,53,0
323400,note_on,,,,,0,0,0,,,,,0,,,68,71
323400,note_on,,,,,1,0,1,,,,,0,,,41,71
323400,note_on,,,,,13,0,0,,,,,0,,,68,71
323627,note_on,,,,,227,0,0,,,,,0,,,68,0
323639,note_on,,,,,239,0,1,,,,,0,,,41,0
323640,note_on,,,,,1,0,1,,,,,0,,,50,70
323640,note_on,,,,,13,0,0,,,,,0,,,56,70
323640,note_on,,,,,0,0,0,,,,,0,,,59,70
323640,note_on,,,,,0,0,1,,,,,0,,,53,70
323855,note_on,,,,,215,0,0,,,,,0,,,68,0
323867,note_on,,,,,12,0,0,,,,,0,,,56,0
323867,note_on,,,,,0,0,0,,,,,0,,,59,0
323879,note_on,,,,,0,0,1,,,,,0,,,53,0
323879,note_on,,,,,239,0,1,,,,,0,,,50,0
323880,note_on,,,,,1,0,1,,,,,0,,,40,69
323880,note_on,,,,,0,0,0,,,,,0,,,68,69
323880,set_tempo,,,,,13,1,0,,983603,,,,,,,
323880,note_on,,,,,0,0,0,,,,,0,,,68,69
324107,note_on,,,,,227,0,0,,,,,0,,,68,0
324119,note_on,,,,,239,0,1,,,,,0,,,40,0
324120,note_on,,,,,0,0,1,,,,,0,,,52,68
324120,note_on,,,,,0,0,0,,,,,0,,,59,68
324120,note_on,,,,,13,0,0,,,,,0,,,56,68
324120,note_on,,,,,1,0,1,,,,,0,,,50,68
324335,note_on,,,,,215,0,0,,,,,0,,,68,0
324347,note_on,,,,,0,0,0,,,,,0,,,59,0
324347,note_on,,,,,12,0,0,,,,,0,,,56,0
324359,note_on,,,,,239,0,1,,,,,0,,,50,0
324359,note_on,,,,,0,0,1,,,,,0,,,52,0
324360,note_on,,,,,0,0,0,,,,,0,,,66,67
324360,note_on,,,,,1,0,1,,,,,0,,,38,67
324360,note_on,,,,,13,0,0,,,,,0,,,66,67
324587,note_on,,,,,227,0,0,,,,,0,,,66,0
324599,note_on,,,,,239,0,1,,,,,0,,,38,0
324600,note_on,,,,,13,0,0,,,,,0,,,56,66
324600,note_on,,,,,0,0,0,,,,,0,,,59,66
324600,note_on,,,,,1,0,1,,,,,0,,,50,66
324600,note_on,,,,,0,0,1,,,,,0,,,52,66
324815,note_on,,,,,215,0,0,,,,,0,,,66,0
324827,note_on,,,,,0,0,0,,,,,0,,,59,0
324827,note_on,,,,,12,0,0,,,,,0,,,56,0
324839,note_on,,,,,239,0,1,,,,,0,,,50,0
324839,note_on,,,,,0,0,1,,,,,0,,,52,0
324840,note_on,,,,,0,0,0,,,,,0,,,64,65
324840,note_on,,,,,0,0,0,,,,,0,,,64,65
324840,note_on,,,,,1,0,1,,,,,0,,,35,65
324840,set_tempo,,,,,13,1,0,,1090909,,,,,,,
325067,note_on,,,,,227,0,0,,,,,0,,,64,0
325079,note_on,,,,,239,0,1,,,,,0,,,35,0
325080,note_on,,,,,1,0,1,,,,,0,,,52,64
325080,note_on,,,,,0,0,0,,,,,0,,,56,64
325080,note_on,,,,,13,0,0,,,,,0,,,49,64
325295,note_on,,,,,215,0,0,,,,,0,,,64,0
325307,note_on,,,,,0,0,0,,,,,0,,,56,0
325307,note_on,,,,,227,0,1,,,,,0,,,52,0
325307,note_on,,,,,12,0,0,,,,,0,,,49,0
325320,note_on,,,,,0,0,0,,,,,0,,,63,64
325320,note_on,,,,,0,0,1,,,,,0,,,48,64
325320,set_tempo,,,,,13,1,0,,1200000,,,,,,,
325320,note_on,,,,,13,0,1,,,,,0,,,32,64
325383,note_on,,,,,0,0,1,,,,,0,,,56,64
325383,note_on,,,,,63,0,1,,,,,0,,,51,64
325775,note_on,,,,,455,0,0,,,,,0,,,63,0
325798,note_on,,,,,415,0,1,,,,,0,,,51,0
325798,note_on,,,,,0,0,1,,,,,0,,,56,0
325799,note_on,,,,,1,0,1,,,,,0,,,32,0
325799,note_on,,,,,0,0,1,,,,,0,,,48,0
326040,note_on,,,,,241,0,1,,,,,0,,,51,64
326040,set_tempo,,,,,265,1,0,,1499999,,,,,,,
326087,note_on,,,,,47,0,1,,,,,0,,,51,0
326088,note_on,,,,,1,0,1,,,,,0,,,53,64
326135,note_on,,,,,47,0,1,,,,,0,,,53,0
326136,note_on,,,,,1,0,1,,,,,0,,,51,64
326183,note_on,,,,,47,0,1,,,,,0,,,51,0
326184,note_on,,,,,1,0,1,,,,,0,,,50,64
326231,note_on,,,,,47,0,1,,,,,0,,,50,0
326232,note_on,,,,,1,0,1,,,,,0,,,51,64
326279,note_on,,,,,47,0,1,,,,,0,,,51,0
326280,note_on,,,,,1,0,1,,,,,0,,,60,64
326519,note_on,,,,,239,0,1,,,,,0,,,60,0
326520,set_tempo,,,,,480,1,0,,333333,,,,,,,
326520,note_on,,,,,1,0,1,,,,,0,,,55,64
326747,note_on,,,,,227,0,1,,,,,0,,,55,0
326760,note_on,,,,,13,0,1,,,,,0,,,58,64
326760,set_tempo,,,,,240,1,0,,666667,,,,,,,
327479,note_on,,,,,719,0,1,,,,,0,,,58,0
327480,note_on,,,,,1,0,1,,,,,0,,,56,64
327719,note_on,,,,,239,0,1,,,,,0,,,56,0
327720,note_on,,,,,1,0,1,,,,,0,,,48,64
327959,note_on,,,,,239,0,1,,,,,0,,,48,0
327960,note_on,,,,,1,0,1,,,,,0,,,49,64
328187,note_on,,,,,227,0,1,,,,,0,,,49,0
328200,note_on,,,,,13,0,1,,,,,0,,,53,64
328680,note_on,,,,,480,0,1,,,,,0,,,39,64
328680,note_on,,,,,0,0,1,,,,,0,,,46,64
328680,note_on,,,,,0,0,1,,,,,0,,,49,64
329135,note_on,,,,,0,0,1,,,,,0,,,49,0
329135,note_on,,,,,0,0,1,,,,,0,,,46,0
329135,note_on,,,,,455,0,1,,,,,0,,,39,0
329160,note_on,,,,,0,0,1,,,,,0,,,49,64
329160,note_on,,,,,25,0,1,,,,,0,,,39,64
329160,note_on,,,,,0,0,1,,,,,0,,,46,64
329234,note_on,,,,,2474,0,0,,,,,0,,,55,64
329307,note_on,,,,,73,0,0,,,,,0,,,55,0
329308,note_on,,,,,1,0,0,,,,,0,,,58,64
329381,note_on,,,,,73,0,0,,,,,0,,,58,0
329382,note_on,,,,,1,0,0,,,,,0,,,61,64
329455,note_on,,,,,73,0,0,,,,,0,,,61,0
329456,note_on,,,,,1,0,0,,,,,0,,,63,64
329529,note_on,,,,,73,0,0,,,,,0,,,63,0
329530,note_on,,,,,1,0,0,,,,,0,,,67,64
329603,note_on,,,,,73,0,0,,,,,0,,,67,0
329604,note_on,,,,,1,0,0,,,,,0,,,70,64
329615,note_on,,,,,455,0,1,,,,,0,,,39,0
329615,note_on,,,,,0,0,1,,,,,0,,,46,0
329615,note_on,,,,,0,0,1,,,,,0,,,49,0
329640,note_on,,,,,25,0,1,,,,,0,,,39,64
329640,note_on,,,,,0,0,1,,,,,0,,,49,64
329640,note_on,,,,,0,0,1,,,,,0,,,46,64
329677,note_on,,,,,73,0,0,,,,,0,,,70,0
329678,note_on,,,,,1,0,0,,,,,0,,,73,64
329751,note_on,,,,,73,0,0,,,,,0,,,73,0
329752,note_on,,,,,1,0,0,,,,,0,,,75,64
329795,note_on,,,,,155,0,1,,,,,0,,,53,0
329825,note_on,,,,,73,0,0,,,,,0,,,75,0
329826,note_on,,,,,1,0,0,,,,,0,,,79,64
329880,note_on,,,,,85,0,1,,,,,0,,,51,64
329899,note_on,,,,,73,0,0,,,,,0,,,79,0
329900,note_on,,,,,1,0,0,,,,,0,,,82,64
329973,note_on,,,,,73,0,0,,,,,0,,,82,0
329974,note_on,,,,,1,0,0,,,,,0,,,85,64
330047,note_on,,,,,73,0,0,,,,,0,,,85,0
330048,note_on,,,,,1,0,0,,,,,0,,,89,64
330095,note_on,,,,,0,0,1,,,,,0,,,46,0
330095,note_on,,,,,215,0,1,,,,,0,,,39,0
330095,note_on,,,,,0,0,1,,,,,0,,,49,0
330107,note_on,,,,,12,0,1,,,,,0,,,51,0
330120,note_on,,,,,13,0,1,,,,,0,,,45,64
330121,note_on,,,,,73,0,0,,,,,0,,,89,0
330122,note_on,,,,,1,0,0,,,,,0,,,87,64
330195,note_on,,,,,73,0,0,,,,,0,,,87,0
330196,note_on,,,,,1,0,0,,,,,0,,,85,64
330269,note_on,,,,,73,0,0,,,,,0,,,85,0
330270,note_on,,,,,1,0,0,,,,,0,,,82,64
330343,note_on,,,,,73,0,0,,,,,0,,,82,0
330344,note_on,,,,,1,0,0,,,,,0,,,79,64
330347,note_on,,,,,227,0,1,,,,,0,,,45,0
330360,note_on,,,,,13,0,1,,,,,0,,,46,64
330417,note_on,,,,,73,0,0,,,,,0,,,79,0
330418,note_on,,,,,1,0,0,,,,,0,,,75,64
330491,note_on,,,,,73,0,0,,,,,0,,,75,0
330492,note_on,,,,,1,0,0,,,,,0,,,73,64
330565,note_on,,,,,73,0,0,,,,,0,,,73,0
330566,note_on,,,,,1,0,0,,,,,0,,,70,64
330587,note_on,,,,,227,0,1,,,,,0,,,46,0
330600,note_on,,,,,13,0,1,,,,,0,,,49,64
330600,set_tempo,,,,,34,1,0,,857140,,,,,,,
330639,note_on,,,,,39,0,0,,,,,0,,,70,0
330640,note_on,,,,,1,0,0,,,,,0,,,67,64
330713,note_on,,,,,73,0,0,,,,,0,,,67,0
330714,note_on,,,,,1,0,0,,,,,0,,,63,64
330787,note_on,,,,,73,0,0,,,,,0,,,63,0
330788,note_on,,,,,1,0,0,,,,,0,,,61,64
330827,note_on,,,,,227,0,1,,,,,0,,,49,0
330840,note_on,,,,,13,0,1,,,,,0,,,48,64
330861,note_on,,,,,73,0,0,,,,,0,,,61,0
330862,note_on,,,,,1,0,0,,,,,0,,,58,64
330935,note_on,,,,,73,0,0,,,,,0,,,58,0
330936,note_on,,,,,1,0,0,,,,,0,,,55,64
331009,note_on,,,,,73,0,0,,,,,0,,,55,0
331010,note_on,,,,,1,0,0,,,,,0,,,51,64
331067,note_on,,,,,227,0,1,,,,,0,,,48,0
331079,note_on,,,,,69,0,0,,,,,0,,,51,0
331080,note_on,,,,,0,0,1,,,,,0,,,44,64
331080,note_on,,,,,0,0,1,,,,,0,,,39,64
331080,set_tempo,,,,,1,1,0,,1499999,,,,,,,
331080,note_on,,,,,13,0,1,,,,,0,,,32,64
331080,note_on,,,,,0,0,0,,,,,0,,,48,64
331199,note_on,,,,,119,0,0,,,,,0,,,48,0
331307,note_on,,,,,0,0,1,,,,,0,,,39,0
331307,note_on,,,,,227,0,1,,,,,0,,,32,0
331307,note_on,,,,,0,0,1,,,,,0,,,44,0
331800,note_on,,,,,493,0,1,,,,,0,,,51,64
331819,note_on,,,,,19,0,1,,,,,0,,,51,0
331820,note_on,,,,,1,0,1,,,,,0,,,51,64
331844,note_on,,,,,24,0,1,,,,,0,,,51,0
331848,note_on,,,,,4,0,1,,,,,0,,,53,64
331892,note_on,,,,,44,0,1,,,,,0,,,53,0
331896,note_on,,,,,4,0,1,,,,,0,,,51,64
331940,note_on,,,,,44,0,1,,,,,0,,,51,0
331944,note_on,,,,,4,0,1,,,,,0,,,50,64
331988,note_on,,,,,44,0,1,,,,,0,,,50,0
331992,note_on,,,,,4,0,1,,,,,0,,,51,64
332036,note_on,,,,,44,0,1,,,,,0,,,51,0
332040,set_tempo,,,,,841,1,0,,666667,,,,,,,
332040,note_on,,,,,4,0,1,,,,,0,,,63,64
332199,note_on,,,,,159,0,1,,,,,0,,,63,0
332200,note_on,,,,,1,0,1,,,,,0,,,60,64
332359,note_on,,,,,159,0,1,,,,,0,,,60,0
332360,note_on,,,,,1,0,1,,,,,0,,,55,64
332511,note_on,,,,,151,0,1,,,,,0,,,55,0
332520,note_on,,,,,9,0,1,,,,,0,,,58,76
333239,note_on,,,,,719,0,1,,,,,0,,,58,0
333240,note_on,,,,,1,0,1,,,,,0,,,56,64
333479,note_on,,,,,239,0,1,,,,,0,,,56,0
333480,note_on,,,,,1,0,1,,,,,0,,,48,64
333719,note_on,,,,,239,0,1,,,,,0,,,48,0
333720,note_on,,,,,1,0,1,,,,,0,,,49,64
333947,note_on,,,,,227,0,1,,,,,0,,,49,0
333960,note_on,,,,,13,0,1,,,,,0,,,53,76
334440,note_on,,,,,480,0,1,,,,,0,,,39,67
334440,note_on,,,,,0,0,1,,,,,0,,,49,67
334440,note_on,,,,,0,0,1,,,,,0,,,46,67
334520,note_on,,,,,2480,0,0,,,,,0,,,55,67
334595,note_on,,,,,75,0,0,,,,,0,,,55,0
334600,note_on,,,,,5,0,0,,,,,0,,,58,68
334675,note_on,,,,,75,0,0,,,,,0,,,58,0
334680,note_on,,,,,5,0,0,,,,,0,,,61,69
334755,note_on,,,,,75,0,0,,,,,0,,,61,0
334760,note_on,,,,,5,0,0,,,,,0,,,63,69
334835,note_on,,,,,75,0,0,,,,,0,,,63,0
334840,note_on,,,,,5,0,0,,,,,0,,,67,70
334895,note_on,,,,,0,0,1,,,,,0,,,46,0
334895,note_on,,,,,0,0,1,,,,,0,,,49,0
334895,note_on,,,,,455,0,1,,,,,0,,,39,0
334915,note_on,,,,,75,0,0,,,,,0,,,67,0
334920,note_on,,,,,5,0,0,,,,,0,,,70,70
334920,note_on,,,,,25,0,1,,,,,0,,,39,70
334920,note_on,,,,,0,0,1,,,,,0,,,46,70
334920,note_on,,,,,0,0,1,,,,,0,,,49,70
334984,note_on,,,,,64,0,0,,,,,0,,,70,0
334989,note_on,,,,,5,0,0,,,,,0,,,73,71
335053,note_on,,,,,64,0,0,,,,,0,,,73,0
335058,note_on,,,,,5,0,0,,,,,0,,,75,71
335122,note_on,,,,,64,0,0,,,,,0,,,75,0
335127,note_on,,,,,5,0,0,,,,,0,,,79,72
335191,note_on,,,,,64,0,0,,,,,0,,,79,0
335196,note_on,,,,,5,0,0,,,,,0,,,82,72
335260,note_on,,,,,64,0,0,,,,,0,,,82,0
335265,note_on,,,,,5,0,0,,,,,0,,,85,73
335329,note_on,,,,,64,0,0,,,,,0,,,85,0
335334,note_on,,,,,5,0,0,,,,,0,,,87,73
335375,note_on,,,,,0,0,1,,,,,0,,,49,0
335375,note_on,,,,,455,0,1,,,,,0,,,39,0
335375,note_on,,,,,0,0,1,,,,,0,,,46,0
335398,note_on,,,,,64,0,0,,,,,0,,,87,0
335400,note_on,,,,,25,0,1,,,,,0,,,39,74
335400,note_on,,,,,0,0,1,,,,,0,,,49,74
335400,note_on,,,,,0,0,1,,,,,0,,,46,74
335400,note_on,,,,,2,0,0,,,,,0,,,91,74
335464,note_on,,,,,64,0,0,,,,,0,,,91,0
335469,note_on,,,,,5,0,0,,,,,0,,,94,74
335533,note_on,,,,,64,0,0,,,,,0,,,94,0
335538,note_on,,,,,5,0,0,,,,,0,,,97,73
335602,note_on,,,,,64,0,0,,,,,0,,,97,0
335607,note_on,,,,,5,0,0,,,,,0,,,101,73
335639,note_on,,,,,239,0,1,,,,,0,,,53,0
335640,note_on,,,,,1,0,1,,,,,0,,,51,73
335671,note_on,,,,,64,0,0,,,,,0,,,101,0
335676,note_on,,,,,5,0,0,,,,,0,,,99,72
335740,note_on,,,,,64,0,0,,,,,0,,,99,0
335745,note_on,,,,,5,0,0,,,,,0,,,97,72
335809,note_on,,,,,64,0,0,,,,,0,,,97,0
335814,note_on,,,,,5,0,0,,,,,0,,,94,71
335878,note_on,,,,,64,0,0,,,,,0,,,94,0
335879,note_on,,,,,239,0,1,,,,,0,,,39,0
335879,note_on,,,,,0,0,1,,,,,0,,,49,0
335879,note_on,,,,,0,0,1,,,,,0,,,51,0
335879,note_on,,,,,0,0,1,,,,,0,,,46,0
335880,note_on,,,,,2,0,0,,,,,0,,,91,71
335880,note_on,,,,,1,0,1,,,,,0,,,45,71
335944,note_on,,,,,64,0,0,,,,,0,,,91,0
335949,note_on,,,,,5,0,0,,,,,0,,,87,70
336013,note_on,,,,,64,0,0,,,,,0,,,87,0
336018,note_on,,,,,5,0,0,,,,,0,,,85,70
336082,note_on,,,,,64,0,0,,,,,0,,,85,0
336087,note_on,,,,,5,0,0,,,,,0,,,82,69
336119,note_on,,,,,239,0,1,,,,,0,,,45,0
336120,note_on,,,,,1,0,1,,,,,0,,,46,69
336151,note_on,,,,,64,0,0,,,,,0,,,82,0
336156,note_on,,,,,5,0,0,,,,,0,,,79,69
336220,note_on,,,,,64,0,0,,,,,0,,,79,0
336225,note_on,,,,,5,0,0,,,,,0,,,75,68
336289,note_on,,,,,64,0,0,,,,,0,,,75,0
336294,note_on,,,,,5,0,0,,,,,0,,,73,68
336358,note_on,,,,,64,0,0,,,,,0,,,73,0
336359,note_on,,,,,239,0,1,,,,,0,,,46,0
336360,note_on,,,,,2,0,0,,,,,0,,,70,67
336360,note_on,,,,,1,0,1,,,,,0,,,49,67
336424,note_on,,,,,64,0,0,,,,,0,,,70,0
336429,note_on,,,,,5,0,0,,,,,0,,,67,67
336493,note_on,,,,,64,0,0,,,,,0,,,67,0
336498,note_on,,,,,5,0,0,,,,,0,,,63,66
336562,note_on,,,,,64,0,0,,,,,0,,,63,0
336567,note_on,,,,,5,0,0,,,,,0,,,61,66
336631,note_on,,,,,64,0,0,,,,,0,,,61,0
336636,note_on,,,,,5,0,0,,,,,0,,,58,65
336700,note_on,,,,,64,0,0,,,,,0,,,58,0
336705,note_on,,,,,5,0,0,,,,,0,,,55,65
336719,note_on,,,,,359,0,1,,,,,0,,,49,0
336720,note_on,,,,,1,0,1,,,,,0,,,48,64
336769,note_on,,,,,64,0,0,,,,,0,,,55,0
336774,note_on,,,,,5,0,0,,,,,0,,,51,64
336833,note_on,,,,,113,0,1,,,,,0,,,48,0
336838,note_on,,,,,64,0,0,,,,,0,,,51,0
336840,note_on,,,,,7,0,1,,,,,0,,,44,64
336936,note_on,,,,,98,0,0,,,,,0,,,48,64
337031,note_on,,,,,95,0,0,,,,,0,,,48,0
337032,note_on,,,,,1,0,0,,,,,0,,,51,64
337127,note_on,,,,,95,0,0,,,,,0,,,51,0
337128,note_on,,,,,1,0,0,,,,,0,,,56,64
337223,note_on,,,,,95,0,0,,,,,0,,,56,0
337224,note_on,,,,,1,0,0,,,,,0,,,58,64
337319,note_on,,,,,95,0,0,,,,,0,,,58,0
337320,note_on,,,,,480,0,1,,,,,0,,,32,64
337320,note_on,,,,,1,0,0,,,,,0,,,60,64
337320,note_on,,,,,0,0,1,,,,,0,,,39,64
337415,note_on,,,,,95,0,0,,,,,0,,,60,0
337416,note_on,,,,,1,0,0,,,,,0,,,63,64
337511,note_on,,,,,95,0,0,,,,,0,,,63,0
337512,note_on,,,,,1,0,0,,,,,0,,,68,64
337607,note_on,,,,,95,0,0,,,,,0,,,68,0
337608,note_on,,,,,1,0,0,,,,,0,,,70,64
337703,note_on,,,,,95,0,0,,,,,0,,,70,0
337704,note_on,,,,,1,0,0,,,,,0,,,72,64
337775,note_on,,,,,455,0,1,,,,,0,,,32,0
337775,note_on,,,,,0,0,1,,,,,0,,,39,0
337799,note_on,,,,,95,0,0,,,,,0,,,72,0
337800,note_on,,,,,1,0,0,,,,,0,,,75,64
337800,note_on,,,,,25,0,1,,,,,0,,,32,64
337800,note_on,,,,,0,0,1,,,,,0,,,39,64
337879,note_on,,,,,79,0,0,,,,,0,,,75,0
337880,note_on,,,,,1,0,0,,,,,0,,,80,64
337959,note_on,,,,,79,0,0,,,,,0,,,80,0
337960,note_on,,,,,1,0,0,,,,,0,,,82,64
338039,note_on,,,,,79,0,0,,,,,0,,,82,0
338040,note_on,,,,,1,0,0,,,,,0,,,84,64
338119,note_on,,,,,79,0,0,,,,,0,,,84,0
338120,note_on,,,,,1,0,0,,,,,0,,,87,64
338199,note_on,,,,,79,0,0,,,,,0,,,87,0
338200,note_on,,,,,1,0,0,,,,,0,,,92,64
338255,note_on,,,,,0,0,1,,,,,0,,,39,0
338255,note_on,,,,,455,0,1,,,,,0,,,32,0
338279,note_on,,,,,79,0,0,,,,,0,,,92,0
338280,note_on,,,,,25,0,1,,,,,0,,,37,64
338280,note_on,,,,,1,0,0,,,,,0,,,94,64
338280,note_on,,,,,0,0,1,,,,,0,,,40,64
338359,note_on,,,,,79,0,0,,,,,0,,,94,0
338360,note_on,,,,,1,0,0,,,,,0,,,96,64
338439,note_on,,,,,79,0,0,,,,,0,,,96,0
338440,note_on,,,,,1,0,0,,,,,0,,,94,63
338447,note_on,,,,,167,0,1,,,,,0,,,44,0
338519,note_on,,,,,79,0,0,,,,,0,,,94,0
338520,note_on,,,,,73,0,1,,,,,0,,,43,62
338520,note_on,,,,,1,0,0,,,,,0,,,92,62
338599,note_on,,,,,79,0,0,,,,,0,,,92,0
338600,note_on,,,,,1,0,0,,,,,0,,,88,62
338679,note_on,,,,,79,0,0,,,,,0,,,88,0
338680,note_on,,,,,1,0,0,,,,,0,,,85,61
338759,note_on,,,,,79,0,0,,,,,0,,,85,0
338759,note_on,,,,,239,0,1,,,,,0,,,37,0
338759,note_on,,,,,0,0,1,,,,,0,,,43,0
338759,note_on,,,,,0,0,1,,,,,0,,,40,0
338760,note_on,,,,,1,0,0,,,,,0,,,82,60
338760,note_on,,,,,1,0,1,,,,,0,,,46,60
338839,note_on,,,,,79,0,0,,,,,0,,,82,0
338840,note_on,,,,,1,0,0,,,,,0,,,80,60
338919,note_on,,,,,79,0,0,,,,,0,,,80,0
338920,note_on,,,,,1,0,0,,,,,0,,,76,59
338999,note_on,,,,,239,0,1,,,,,0,,,46,0
338999,note_on,,,,,79,0,0,,,,,0,,,76,0
339000,note_on,,,,,1,0,1,,,,,0,,,44,58
339000,note_on,,,,,1,0,0,,,,,0,,,73,58
339079,note_on,,,,,79,0,0,,,,,0,,,73,0
339080,note_on,,,,,1,0,0,,,,,0,,,70,58
339159,note_on,,,,,79,0,0,,,,,0,,,70,0
339160,note_on,,,,,1,0,0,,,,,0,,,68,57
339239,note_on,,,,,239,0,1,,,,,0,,,44,0
339239,note_on,,,,,79,0,0,,,,,0,,,68,0
339240,note_on,,,,,1,0,0,,,,,0,,,64,56
339240,note_on,,,,,1,0,1,,,,,0,,,49,56
339319,note_on,,,,,79,0,0,,,,,0,,,64,0
339320,note_on,,,,,1,0,0,,,,,0,,,61,56
339399,note_on,,,,,79,0,0,,,,,0,,,61,0
339400,note_on,,,,,1,0,0,,,,,0,,,58,55
339479,note_on,,,,,239,0,1,,,,,0,,,49,0
339479,note_on,,,,,79,0,0,,,,,0,,,58,0
339480,note_on,,,,,1,0,1,,,,,0,,,46,54
339480,note_on,,,,,1,0,0,,,,,0,,,56,54
339559,note_on,,,,,79,0,0,,,,,0,,,56,0
339560,note_on,,,,,1,0,0,,,,,0,,,52,54
339639,note_on,,,,,79,0,0,,,,,0,,,52,0
339640,note_on,,,,,1,0,0,,,,,0,,,49,54
339707,note_on,,,,,227,0,1,,,,,0,,,46,0
339715,note_on,,,,,75,0,0,,,,,0,,,49,0
339720,note_on,,,,,13,0,1,,,,,0,,,44,54
339816,note_on,,,,,101,0,0,,,,,0,,,48,54
339911,note_on,,,,,95,0,0,,,,,0,,,48,0
339912,note_on,,,,,1,0,0,,,,,0,,,51,54
340007,note_on,,,,,95,0,0,,,,,0,,,51,0
340008,note_on,,,,,1,0,0,,,,,0,,,56,54
340103,note_on,,,,,95,0,0,,,,,0,,,56,0
340104,note_on,,,,,1,0,0,,,,,0,,,58,54
340199,note_on,,,,,95,0,0,,,,,0,,,58,0
340200,note_on,,,,,0,0,1,,,,,0,,,39,64
340200,note_on,,,,,1,0,0,,,,,0,,,60,64
340200,note_on,,,,,480,0,1,,,,,0,,,32,64
340295,note_on,,,,,95,0,0,,,,,0,,,60,0
340296,note_on,,,,,1,0,0,,,,,0,,,63,65
340391,note_on,,,,,95,0,0,,,,,0,,,63,0
340392,note_on,,,,,1,0,0,,,,,0,,,68,66
340487,note_on,,,,,95,0,0,,,,,0,,,68,0
340488,note_on,,,,,1,0,0,,,,,0,,,70,67
340583,note_on,,,,,95,0,0,,,,,0,,,70,0
340584,note_on,,,,,1,0,0,,,,,0,,,72,68
340655,note_on,,,,,0,0,1,,,,,0,,,39,0
340655,note_on,,,,,455,0,1,,,,,0,,,32,0
340679,note_on,,,,,95,0,0,,,,,0,,,72,0
340680,note_on,,,,,25,0,1,,,,,0,,,32,69
340680,note_on,,,,,1,0,0,,,,,0,,,75,69
340680,note_on,,,,,0,0,1,,,,,0,,,39,69
340759,note_on,,,,,79,0,0,,,,,0,,,75,0
340760,note_on,,,,,1,0,0,,,,,0,,,80,69
340839,note_on,,,,,79,0,0,,,,,0,,,80,0
340840,note_on,,,,,1,0,0,,,,,0,,,82,70
340919,note_on,,,,,79,0,0,,,,,0,,,82,0
340920,note_on,,,,,1,0,0,,,,,0,,,84,71
340999,note_on,,,,,79,0,0,,,,,0,,,84,0
341000,note_on,,,,,1,0,0,,,,,0,,,87,72
341079,note_on,,,,,79,0,0,,,,,0,,,87,0
341080,note_on,,,,,1,0,0,,,,,0,,,92,73
341135,note_on,,,,,0,0,1,,,,,0,,,39,0
341135,note_on,,,,,455,0,1,,,,,0,,,32,0
341159,note_on,,,,,79,0,0,,,,,0,,,92,0
341160,note_on,,,,,1,0,0,,,,,0,,,94,74
341160,note_on,,,,,25,0,1,,,,,0,,,37,74
341160,note_on,,,,,0,0,1,,,,,0,,,41,74
341239,note_on,,,,,79,0,0,,,,,0,,,94,0
341240,note_on,,,,,1,0,0,,,,,0,,,97,74
341315,note_on,,,,,155,0,1,,,,,0,,,44,0
341319,note_on,,,,,79,0,0,,,,,0,,,97,0
341320,note_on,,,,,1,0,0,,,,,0,,,94,73
341399,note_on,,,,,79,0,0,,,,,0,,,94,0
341400,note_on,,,,,1,0,0,,,,,0,,,92,72
341400,note_on,,,,,85,0,1,,,,,0,,,43,72
341479,note_on,,,,,79,0,0,,,,,0,,,92,0
341480,note_on,,,,,1,0,0,,,,,0,,,89,72
341559,note_on,,,,,79,0,0,,,,,0,,,89,0
341560,note_on,,,,,1,0,0,,,,,0,,,85,71
341615,note_on,,,,,0,0,1,,,,,0,,,41,0
341615,note_on,,,,,215,0,1,,,,,0,,,37,0
341627,note_on,,,,,12,0,1,,,,,0,,,43,0
341639,note_on,,,,,79,0,0,,,,,0,,,85,0
341640,note_on,,,,,13,0,1,,,,,0,,,46,70
341640,note_on,,,,,1,0,0,,,,,0,,,82,70
341719,note_on,,,,,79,0,0,,,,,0,,,82,0
341720,note_on,,,,,1,0,0,,,,,0,,,80,70
341799,note_on,,,,,79,0,0,,,,,0,,,80,0
341800,note_on,,,,,1,0,0,,,,,0,,,77,69
341867,note_on,,,,,227,0,1,,,,,0,,,46,0
341879,note_on,,,,,79,0,0,,,,,0,,,77,0
341880,note_on,,,,,1,0,0,,,,,0,,,73,68
341880,note_on,,,,,13,0,1,,,,,0,,,44,68
341959,note_on,,,,,79,0,0,,,,,0,,,73,0
341960,note_on,,,,,1,0,0,,,,,0,,,70,68
342039,note_on,,,,,79,0,0,,,,,0,,,70,0
342040,note_on,,,,,1,0,0,,,,,0,,,68,67
342107,note_on,,,,,227,0,1,,,,,0,,,44,0
342119,note_on,,,,,79,0,0,,,,,0,,,68,0
342120,note_on,,,,,1,0,0,,,,,0,,,65,66
342120,note_on,,,,,13,0,1,,,,,0,,,53,66
342199,note_on,,,,,79,0,0,,,,,0,,,65,0
342200,note_on,,,,,1,0,0,,,,,0,,,61,66
342271,note_on,,,,,151,0,1,,,,,0,,,53,0
342279,note_on,,,,,79,0,0,,,,,0,,,61,0
342280,note_on,,,,,1,0,0,,,,,0,,,58,65
342280,note_on,,,,,9,0,1,,,,,0,,,49,65
342359,note_on,,,,,79,0,0,,,,,0,,,58,0
342360,note_on,,,,,1,0,0,,,,,0,,,56,64
342431,note_on,,,,,151,0,1,,,,,0,,,49,0
342439,note_on,,,,,79,0,0,,,,,0,,,56,0
342440,set_tempo,,,,,1,1,0,,1000000,,,,,,,
342440,note_on,,,,,0,0,0,,,,,0,,,53,64
342440,note_on,,,,,9,0,1,,,,,0,,,46,64
342519,note_on,,,,,79,0,0,,,,,0,,,53,0
342520,note_on,,,,,1,0,0,,,,,0,,,49,64
342591,note_on,,,,,151,0,1,,,,,0,,,46,0
342595,note_on,,,,,75,0,0,,,,,0,,,49,0
342600,note_on,,,,,9,0,1,,,,,0,,,44,64
342600,set_tempo,,,,,5,1,0,,750002,,,,,,,
342602,control_change,,,,,2,0,0,,,64,127,0,,,,
342696,note_on,,,,,94,0,0,,,,,0,,,48,64
342786,note_on,,,,,90,0,0,,,,,0,,,48,0
342792,note_on,,,,,6,0,0,,,,,0,,,51,64
342882,note_on,,,,,90,0,0,,,,,0,,,51,0
342888,note_on,,,,,6,0,0,,,,,0,,,56,64
342978,note_on,,,,,90,0,0,,,,,0,,,56,0
342984,note_on,,,,,6,0,0,,,,,0,,,58,64
343074,note_on,,,,,90,0,0,,,,,0,,,58,0
343080,note_on,,,,,0,0,1,,,,,0,,,39,64
343080,note_on,,,,,480,0,1,,,,,0,,,32,64
343080,note_on,,,,,6,0,0,,,,,0,,,60,64
343193,note_on,,,,,113,0,0,,,,,0,,,60,0
343200,note_on,,,,,7,0,0,,,,,0,,,63,64
343313,note_on,,,,,113,0,0,,,,,0,,,63,0
343319,note_on,,,,,0,0,1,,,,,0,,,39,0
343319,note_on,,,,,239,0,1,,,,,0,,,32,0
343320,note_on,,,,,7,0,0,,,,,0,,,68,64
343433,note_on,,,,,113,0,0,,,,,0,,,68,0
343440,note_on,,,,,7,0,0,,,,,0,,,70,64
343553,note_on,,,,,113,0,0,,,,,0,,,70,0
343560,note_on,,,,,0,0,1,,,,,0,,,39,64
343560,note_on,,,,,7,0,0,,,,,0,,,72,64
343560,note_on,,,,,241,0,1,,,,,0,,,32,64
343673,note_on,,,,,113,0,0,,,,,0,,,72,0
343680,note_on,,,,,7,0,0,,,,,0,,,75,64
343793,note_on,,,,,113,0,0,,,,,0,,,75,0
343799,note_on,,,,,0,0,1,,,,,0,,,39,0
343799,note_on,,,,,239,0,1,,,,,0,,,32,0
343800,note_on,,,,,7,0,0,,,,,0,,,80,64
343913,note_on,,,,,113,0,0,,,,,0,,,80,0
343920,note_on,,,,,7,0,0,,,,,0,,,82,64
344033,note_on,,,,,113,0,0,,,,,0,,,82,0
344040,note_on,,,,,241,0,1,,,,,0,,,32,64
344040,note_on,,,,,7,0,0,,,,,0,,,84,64
344040,note_on,,,,,0,0,1,,,,,0,,,39,64
344153,note_on,,,,,113,0,0,,,,,0,,,84,0
344160,note_on,,,,,7,0,0,,,,,0,,,87,64
344273,note_on,,,,,113,0,0,,,,,0,,,87,0
344279,note_on,,,,,239,0,1,,,,,0,,,32,0
344279,note_on,,,,,0,0,1,,,,,0,,,39,0
344280,note_on,,,,,7,0,0,,,,,0,,,92,64
344393,note_on,,,,,113,0,0,,,,,0,,,92,0
344400,note_on,,,,,7,0,0,,,,,0,,,94,64
344513,note_on,,,,,113,0,0,,,,,0,,,94,0
344520,note_on,,,,,7,0,0,,,,,0,,,96,64
344520,note_on,,,,,0,0,1,,,,,0,,,39,64
344520,note_on,,,,,241,0,1,,,,,0,,,32,64
344633,note_on,,,,,113,0,0,,,,,0,,,96,0
344640,note_on,,,,,7,0,0,,,,,0,,,99,64
344753,note_on,,,,,113,0,0,,,,,0,,,99,0
344759,note_on,,,,,239,0,1,,,,,0,,,32,0
344759,note_on,,,,,0,0,1,,,,,0,,,39,0
344760,note_on,,,,,7,0,0,,,,,0,,,101,64
344873,note_on,,,,,113,0,0,,,,,0,,,101,0
344880,note_on,,,,,7,0,0,,,,,0,,,99,64
344993,note_on,,,,,113,0,0,,,,,0,,,99,0
345000,note_on,,,,,241,0,1,,,,,0,,,32,64
345000,note_on,,,,,0,0,1,,,,,0,,,39,64
345000,note_on,,,,,7,0,0,,,,,0,,,96,64
345113,note_on,,,,,113,0,0,,,,,0,,,96,0
345120,note_on,,,,,7,0,0,,,,,0,,,94,64
345233,note_on,,,,,113,0,0,,,,,0,,,94,0
345239,note_on,,,,,239,0,1,,,,,0,,,32,0
345239,note_on,,,,,0,0,1,,,,,0,,,39,0
345240,note_on,,,,,7,0,0,,,,,0,,,92,64
345335,note_on,,,,,96,0,1,,,,,0,,,44,0
345353,note_on,,,,,113,0,0,,,,,0,,,92,0
345360,note_on,,,,,7,0,0,,,,,0,,,87,64
345473,note_on,,,,,113,0,0,,,,,0,,,87,0
345480,note_on,,,,,145,0,1,,,,,0,,,48,64
345480,note_on,,,,,7,0,0,,,,,0,,,84,64
345593,note_on,,,,,113,0,0,,,,,0,,,84,0
345600,note_on,,,,,7,0,0,,,,,0,,,82,64
345713,note_on,,,,,113,0,0,,,,,0,,,82,0
345720,note_on,,,,,7,0,0,,,,,0,,,80,64
345833,note_on,,,,,113,0,0,,,,,0,,,80,0
345840,note_on,,,,,7,0,0,,,,,0,,,75,64
345953,note_on,,,,,113,0,0,,,,,0,,,75,0
345960,note_on,,,,,480,0,1,,,,,0,,,32,64
345960,note_on,,,,,7,0,0,,,,,0,,,72,64
345960,note_on,,,,,0,0,1,,,,,0,,,39,64
346073,note_on,,,,,113,0,0,,,,,0,,,72,0
346080,note_on,,,,,7,0,0,,,,,0,,,70,64
346193,note_on,,,,,113,0,0,,,,,0,,,70,0
346200,note_on,,,,,7,0,0,,,,,0,,,68,63
346313,note_on,,,,,113,0,0,,,,,0,,,68,0
346320,note_on,,,,,7,0,0,,,,,0,,,63,63
346415,note_on,,,,,455,0,1,,,,,0,,,32,0
346415,note_on,,,,,0,0,1,,,,,0,,,39,0
346433,note_on,,,,,113,0,0,,,,,0,,,63,0
346440,note_on,,,,,7,0,0,,,,,0,,,60,63
346440,note_on,,,,,25,0,1,,,,,0,,,32,63
346440,note_on,,,,,0,0,1,,,,,0,,,39,63
346553,note_on,,,,,113,0,0,,,,,0,,,60,0
346560,note_on,,,,,7,0,0,,,,,0,,,63,62
346673,note_on,,,,,113,0,0,,,,,0,,,63,0
346680,note_on,,,,,7,0,0,,,,,0,,,68,62
346793,note_on,,,,,113,0,0,,,,,0,,,68,0
346800,note_on,,,,,7,0,0,,,,,0,,,70,61
346847,note_on,,,,,407,0,1,,,,,0,,,48,0
346895,note_on,,,,,0,0,1,,,,,0,,,39,0
346895,note_on,,,,,48,0,1,,,,,0,,,32,0
346913,note_on,,,,,113,0,0,,,,,0,,,70,0
346920,note_on,,,,,25,0,1,,,,,0,,,51,61
346920,note_on,,,,,7,0,0,,,,,0,,,72,61
347033,note_on,,,,,113,0,0,,,,,0,,,72,0
347040,note_on,,,,,7,0,0,,,,,0,,,75,61
347153,note_on,,,,,113,0,0,,,,,0,,,75,0
347160,note_on,,,,,7,0,0,,,,,0,,,80,60
347273,note_on,,,,,113,0,0,,,,,0,,,80,0
347280,note_on,,,,,7,0,0,,,,,0,,,82,60
347393,note_on,,,,,113,0,0,,,,,0,,,82,0
347400,note_on,,,,,480,0,1,,,,,0,,,32,60
347400,note_on,,,,,0,0,1,,,,,0,,,39,60
347400,note_on,,,,,7,0,0,,,,,0,,,84,60
347513,note_on,,,,,113,0,0,,,,,0,,,84,0
347520,note_on,,,,,7,0,0,,,,,0,,,87,59
347633,note_on,,,,,113,0,0,,,,,0,,,87,0
347640,note_on,,,,,7,0,0,,,,,0,,,92,59
347753,note_on,,,,,113,0,0,,,,,0,,,92,0
347760,note_on,,,,,7,0,0,,,,,0,,,94,58
347855,note_on,,,,,0,0,1,,,,,0,,,39,0
347855,note_on,,,,,455,0,1,,,,,0,,,32,0
347873,note_on,,,,,113,0,0,,,,,0,,,94,0
347880,note_on,,,,,7,0,0,,,,,0,,,96,58
347880,note_on,,,,,0,0,1,,,,,0,,,39,58
347880,note_on,,,,,25,0,1,,,,,0,,,32,58
347993,note_on,,,,,113,0,0,,,,,0,,,96,0
348000,note_on,,,,,7,0,0,,,,,0,,,99,58
348113,note_on,,,,,113,0,0,,,,,0,,,99,0
348120,note_on,,,,,7,0,0,,,,,0,,,101,57
348233,note_on,,,,,113,0,0,,,,,0,,,101,0
348240,note_on,,,,,7,0,0,,,,,0,,,99,57
348287,note_on,,,,,407,0,1,,,,,0,,,51,0
348335,note_on,,,,,48,0,1,,,,,0,,,32,0
348335,note_on,,,,,0,0,1,,,,,0,,,39,0
348353,note_on,,,,,113,0,0,,,,,0,,,99,0
348360,note_on,,,,,7,0,0,,,,,0,,,96,56
348360,note_on,,,,,25,0,1,,,,,0,,,56,56
348473,note_on,,,,,113,0,0,,,,,0,,,96,0
348480,note_on,,,,,7,0,0,,,,,0,,,94,56
348593,note_on,,,,,113,0,0,,,,,0,,,94,0
348600,note_on,,,,,7,0,0,,,,,0,,,92,56
348713,note_on,,,,,113,0,0,,,,,0,,,92,0
348720,note_on,,,,,7,0,0,,,,,0,,,87,55
348833,note_on,,,,,113,0,0,,,,,0,,,87,0
348840,note_on,,,,,0,0,1,,,,,0,,,39,55
348840,note_on,,,,,7,0,0,,,,,0,,,84,55
348840,note_on,,,,,480,0,1,,,,,0,,,32,55
348953,note_on,,,,,113,0,0,,,,,0,,,84,0
348960,note_on,,,,,7,0,0,,,,,0,,,82,55
349073,note_on,,,,,113,0,0,,,,,0,,,82,0
349080,note_on,,,,,7,0,0,,,,,0,,,80,54
349193,note_on,,,,,113,0,0,,,,,0,,,80,0
349200,note_on,,,,,7,0,0,,,,,0,,,75,54
349295,note_on,,,,,0,0,1,,,,,0,,,39,0
349295,note_on,,,,,455,0,1,,,,,0,,,32,0
349313,note_on,,,,,113,0,0,,,,,0,,,75,0
349320,note_on,,,,,25,0,1,,,,,0,,,32,53
349320,note_on,,,,,0,0,1,,,,,0,,,39,53
349320,note_on,,,,,7,0,0,,,,,0,,,72,53
349433,note_on,,,,,113,0,0,,,,,0,,,72,0
349440,note_on,,,,,7,0,0,,,,,0,,,75,53
349553,note_on,,,,,113,0,0,,,,,0,,,75,0
349560,note_on,,,,,7,0,0,,,,,0,,,80,53
349673,note_on,,,,,113,0,0,,,,,0,,,80,0
349680,note_on,,,,,7,0,0,,,,,0,,,82,52
349775,note_on,,,,,455,0,1,,,,,0,,,32,0
349775,note_on,,,,,0,0,1,,,,,0,,,39,0
349793,note_on,,,,,113,0,0,,,,,0,,,82,0
349800,set_tempo,,,,,7,1,0,,800000,,,,,,,
349800,note_on,,,,,0,0,0,,,,,0,,,84,52
349913,note_on,,,,,113,0,0,,,,,0,,,84,0
349920,note_on,,,,,7,0,0,,,,,0,,,87,51
350033,note_on,,,,,113,0,0,,,,,0,,,87,0
350040,note_on,,,,,7,0,0,,,,,0,,,92,51
350153,note_on,,,,,113,0,0,,,,,0,,,92,0
350160,note_on,,,,,7,0,0,,,,,0,,,94,51
350273,note_on,,,,,113,0,0,,,,,0,,,94,0
350280,note_on,,,,,505,0,1,,,,,0,,,32,50
350280,note_on,,,,,7,0,0,,,,,0,,,96,50
350280,note_on,,,,,0,0,1,,,,,0,,,39,50
350393,note_on,,,,,113,0,0,,,,,0,,,96,0
350400,note_on,,,,,7,0,0,,,,,0,,,99,50
350513,note_on,,,,,113,0,0,,,,,0,,,99,0
350520,note_on,,,,,7,0,0,,,,,0,,,101,50
350633,note_on,,,,,113,0,0,,,,,0,,,101,0
350640,note_on,,,,,7,0,0,,,,,0,,,99,49
350735,note_on,,,,,455,0,1,,,,,0,,,32,0
350735,note_on,,,,,0,0,1,,,,,0,,,39,0
350753,note_on,,,,,113,0,0,,,,,0,,,99,0
350760,note_on,,,,,0,0,1,,,,,0,,,39,49
350760,note_on,,,,,7,0,0,,,,,0,,,96,49
350760,note_on,,,,,25,0,1,,,,,0,,,32,49
350873,note_on,,,,,113,0,0,,,,,0,,,96,0
350880,note_on,,,,,7,0,0,,,,,0,,,94,48
350993,note_on,,,,,113,0,0,,,,,0,,,94,0
351000,note_on,,,,,7,0,0,,,,,0,,,92,48
351095,note_on,,,,,335,0,1,,,,,0,,,56,0
351113,note_on,,,,,113,0,0,,,,,0,,,92,0
351120,note_on,,,,,7,0,0,,,,,0,,,87,48
351215,note_on,,,,,120,0,1,,,,,0,,,32,0
351215,note_on,,,,,0,0,1,,,,,0,,,39,0
351233,note_on,,,,,113,0,0,,,,,0,,,87,0
351240,note_on,,,,,0,0,0,,,,,0,,,84,47
351240,set_tempo,,,,,7,1,0,,857140,,,,,,,
351353,note_on,,,,,113,0,0,,,,,0,,,84,0
351360,note_on,,,,,7,0,0,,,,,0,,,87,47
351473,note_on,,,,,113,0,0,,,,,0,,,87,0
351480,note_on,,,,,7,0,0,,,,,0,,,92,47
351593,note_on,,,,,113,0,0,,,,,0,,,92,0
351600,note_on,,,,,7,0,0,,,,,0,,,94,46
351713,note_on,,,,,113,0,0,,,,,0,,,94,0
351720,note_on,,,,,7,0,0,,,,,0,,,96,46
351833,note_on,,,,,113,0,0,,,,,0,,,96,0
351840,note_on,,,,,7,0,0,,,,,0,,,99,45
351953,note_on,,,,,113,0,0,,,,,0,,,99,0
351960,note_on,,,,,7,0,0,,,,,0,,,101,45
352073,note_on,,,,,113,0,0,,,,,0,,,101,0
352080,note_on,,,,,7,0,0,,,,,0,,,99,45
352193,note_on,,,,,113,0,0,,,,,0,,,99,0
352200,note_on,,,,,7,0,0,,,,,0,,,96,44
352313,note_on,,,,,113,0,0,,,,,0,,,96,0
352320,note_on,,,,,7,0,0,,,,,0,,,94,44
352433,note_on,,,,,113,0,0,,,,,0,,,94,0
352440,note_on,,,,,7,0,0,,,,,0,,,92,43
352553,note_on,,,,,113,0,0,,,,,0,,,92,0
352560,note_on,,,,,7,0,0,,,,,0,,,87,43
352673,note_on,,,,,113,0,0,,,,,0,,,87,0
352680,note_on,,,,,0,0,0,,,,,0,,,84,43
352680,set_tempo,,,,,7,1,0,,923080,,,,,,,
352793,note_on,,,,,113,0,0,,,,,0,,,84,0
352800,note_on,,,,,7,0,0,,,,,0,,,87,42
352913,note_on,,,,,113,0,0,,,,,0,,,87,0
352920,note_on,,,,,7,0,0,,,,,0,,,92,42
353033,note_on,,,,,113,0,0,,,,,0,,,92,0
353040,note_on,,,,,7,0,0,,,,,0,,,94,42
353153,note_on,,,,,113,0,0,,,,,0,,,94,0
353160,note_on,,,,,7,0,0,,,,,0,,,96,41
353273,note_on,,,,,113,0,0,,,,,0,,,96,0
353280,note_on,,,,,7,0,0,,,,,0,,,99,41
353393,note_on,,,,,113,0,0,,,,,0,,,99,0
353400,note_on,,,,,0,0,0,,,,,0,,,101,40
353400,set_tempo,,,,,7,1,0,,1000000,,,,,,,
353513,note_on,,,,,113,0,0,,,,,0,,,101,0
353520,note_on,,,,,7,0,0,,,,,0,,,99,40
353633,note_on,,,,,113,0,0,,,,,0,,,99,0
353640,note_on,,,,,7,0,0,,,,,0,,,96,40
353753,note_on,,,,,113,0,0,,,,,0,,,96,0
353760,note_on,,,,,7,0,0,,,,,0,,,94,39
353873,note_on,,,,,113,0,0,,,,,0,,,94,0
353880,note_on,,,,,7,0,0,,,,,0,,,92,39
353993,note_on,,,,,113,0,0,,,,,0,,,92,0
354000,note_on,,,,,7,0,0,,,,,0,,,87,38
354113,note_on,,,,,113,0,0,,,,,0,,,87,0
354120,note_on,,,,,0,0,0,,,,,0,,,84,38
354120,set_tempo,,,,,7,1,0,,1090909,,,,,,,
354210,note_on,,,,,90,0,0,,,,,0,,,84,0
354216,note_on,,,,,6,0,0,,,,,0,,,82,38
354306,note_on,,,,,90,0,0,,,,,0,,,82,0
354312,note_on,,,,,6,0,0,,,,,0,,,80,37
354402,note_on,,,,,90,0,0,,,,,0,,,80,0
354408,note_on,,,,,0,0,0,,,,,0,,,77,37
354408,set_tempo,,,,,6,1,0,,5999988,,,,,,,
354498,note_on,,,,,90,0,0,,,,,0,,,77,0
354504,set_tempo,,,,,6,1,0,,857140,,,,,,,
354504,note_on,,,,,0,0,0,,,,,0,,,75,37
354594,note_on,,,,,90,0,0,,,,,0,,,75,0
354600,note_on,,,,,0,0,0,,,,,0,,,75,37
354600,set_tempo,,,,,6,1,0,,666667,,,,,,,
354690,note_on,,,,,90,0,0,,,,,0,,,75,0
354696,note_on,,,,,6,0,0,,,,,0,,,77,36
354786,note_on,,,,,90,0,0,,,,,0,,,77,0
354792,note_on,,,,,6,0,0,,,,,0,,,75,36
354882,note_on,,,,,90,0,0,,,,,0,,,75,0
354888,note_on,,,,,6,0,0,,,,,0,,,74,36
354978,note_on,,,,,90,0,0,,,,,0,,,74,0
354984,note_on,,,,,6,0,0,,,,,0,,,75,35
355074,note_on,,,,,90,0,0,,,,,0,,,75,0
355080,note_on,,,,,0,0,0,,,,,0,,,84,35
355080,set_tempo,,,,,6,1,0,,1200000,,,,,,,
355307,note_on,,,,,227,0,0,,,,,0,,,84,0
355440,note_on,,,,,0,0,0,,,,,0,,,79,34
355440,set_tempo,,,,,133,1,0,,3000003,,,,,,,
355553,note_on,,,,,113,0,0,,,,,0,,,79,0
355560,note_on,,,,,4345,0,1,,,,,0,,,56,33
355560,set_tempo,,,,,7,1,0,,1000000,,,,,,,
355560,note_on,,,,,0,0,0,,,,,0,,,75,33
355560,note_on,,,,,0,0,0,,,,,0,,,68,33
355560,note_on,,,,,0,0,0,,,,,0,,,82,33
355623,note_on,,,,,63,0,1,,,,,0,,,63,33
355687,note_on,,,,,64,0,1,,,,,0,,,72,33
355798,note_on,,,,,111,0,1,,,,,0,,,63,0
355798,note_on,,,,,0,0,1,,,,,0,,,72,0
355799,note_on,,,,,0,0,0,,,,,0,,,75,0
355799,note_on,,,,,239,0,0,,,,,0,,,68,0
355799,note_on,,,,,1,0,1,,,,,0,,,56,0
356279,note_on,,,,,480,0,0,,,,,0,,,82,0
356280,set_tempo,,,,,1,1,0,,857140,,,,,,,
356280,note_on,,,,,0,0,0,,,,,0,,,80,33
356519,note_on,,,,,239,0,0,,,,,0,,,80,0
356520,note_on,,,,,1,0,0,,,,,0,,,72,33
356759,note_on,,,,,239,0,0,,,,,0,,,72,0
356760,note_on,,,,,1,0,0,,,,,0,,,73,33
356987,note_on,,,,,227,0,0,,,,,0,,,73,0
357000,note_on,,,,,1201,0,1,,,,,0,,,44,33
357000,note_on,,,,,13,0,0,,,,,0,,,63,33
357063,note_on,,,,,63,0,0,,,,,0,,,68,33
357063,note_on,,,,,63,0,1,,,,,0,,,51,33
357127,note_on,,,,,64,0,0,,,,,0,,,77,33
357127,note_on,,,,,64,0,1,,,,,0,,,60,33
357478,note_on,,,,,351,0,0,,,,,0,,,68,0
357478,note_on,,,,,0,0,0,,,,,0,,,77,0
357478,note_on,,,,,351,0,1,,,,,0,,,51,0
357478,note_on,,,,,0,0,1,,,,,0,,,60,0
357479,note_on,,,,,1,0,0,,,,,0,,,63,0
357479,note_on,,,,,1,0,1,,,,,0,,,44,0
357960,note_on,,,,,481,0,0,,,,,0,,,63,33
357960,note_on,,,,,481,0,1,,,,,0,,,44,33
358023,note_on,,,,,63,0,1,,,,,0,,,51,33
358023,note_on,,,,,63,0,0,,,,,0,,,68,33
358087,note_on,,,,,64,0,0,,,,,0,,,75,33
358087,note_on,,,,,64,0,1,,,,,0,,,60,33
358438,note_on,,,,,351,0,1,,,,,0,,,51,0
358438,note_on,,,,,0,0,0,,,,,0,,,75,0
358438,note_on,,,,,351,0,0,,,,,0,,,68,0
358438,note_on,,,,,0,0,1,,,,,0,,,60,0
358439,note_on,,,,,1,0,0,,,,,0,,,63,0
358439,note_on,,,,,1,0,1,,,,,0,,,44,0
358440,note_on,,,,,1,0,0,,,,,0,,,63,33
358440,note_on,,,,,1,0,1,,,,,0,,,44,33
358503,note_on,,,,,63,0,1,,,,,0,,,51,33
358503,note_on,,,,,63,0,0,,,,,0,,,68,33
358567,note_on,,,,,64,0,1,,,,,0,,,60,33
358567,note_on,,,,,64,0,0,,,,,0,,,73,33
358918,note_on,,,,,0,0,0,,,,,0,,,73,0
358918,note_on,,,,,351,0,0,,,,,0,,,68,0
358918,note_on,,,,,351,0,1,,,,,0,,,51,0
358918,note_on,,,,,0,0,1,,,,,0,,,60,0
358919,note_on,,,,,1,0,1,,,,,0,,,44,0
358919,note_on,,,,,1,0,0,,,,,0,,,63,0
358920,note_on,,,,,1,0,1,,,,,0,,,44,33
358920,note_on,,,,,0,0,0,,,,,0,,,63,33
358920,set_tempo,,,,,1,1,0,,1600000,,,,,,,
358983,note_on,,,,,63,0,1,,,,,0,,,51,33
358983,note_on,,,,,63,0,0,,,,,0,,,68,33
359047,note_on,,,,,64,0,0,,,,,0,,,72,33
359047,note_on,,,,,64,0,1,,,,,0,,,60,33
359878,note_on,,,,,0,0,1,,,,,0,,,60,0
359878,note_on,,,,,831,0,0,,,,,0,,,68,0
359878,note_on,,,,,831,0,1,,,,,0,,,51,0
359878,note_on,,,,,0,0,0,,,,,0,,,72,0
359879,note_on,,,,,0,0,0,,,,,0,,,63,0
359879,note_on,,,,,1,0,1,,,,,0,,,44,0
359879,set_tempo,,,,,1,1,0,,800000,,,,,,,
359880,end_of_track,,,,,1,1,1,,,,,,,,,
359880,control_change,,,,,1,0,0,,,64,0,0,,,,
359881,end_of_track,,,,,1,1,0,,,,,,,,,
