tick,type,time,meta,track,numerator,denominator,clocks_per_click,notated_32nd_notes_per_beat,key,tempo,port,program,channel,control,value,note,velocity
0,control_change,0,0,1,,,,,,,,,0,7,127,,
0,control_change,0,0,3,,,,,,,,,2,7,127,,
0,control_change,0,0,3,,,,,,,,,2,10,30,,
0,copyright,0,1,0,,,,,,,,,,,,,
0,key_signature,0,1,0,,,,,Ab,,,,,,,,
0,midi_port,0,1,1,,,,,,,0,,,,,,
0,midi_port,0,1,2,,,,,,,0,,,,,,
0,midi_port,0,1,3,,,,,,,0,,,,,,
0,control_change,0,0,2,,,,,,,,,1,10,97,,
0,track_name,0,1,2,,,,,,,,,,,,,
0,program_change,0,0,2,,,,,,,,0,1,,,,
0,program_change,0,0,3,,,,,,,,0,2,,,,
0,set_tempo,0,1,0,,,,,,600000,,,,,,,
0,text,0,1,0,,,,,,,,,,,,,
0,time_signature,0,1,0,4,4,24,8,,,,,,,,,
0,track_name,0,1,0,,,,,,,,,,,,,
0,track_name,0,1,1,,,,,,,,,,,,,
0,program_change,0,0,1,,,,,,,,0,0,,,,
0,control_change,0,0,2,,,,,,,,,1,7,127,,
0,track_name,0,1,3,,,,,,,,,,,,,
0,control_change,0,0,1,,,,,,,,,0,10,97,,
1,copyright,1,1,4,,,,,,,,,,,,,
1,end_of_track,0,1,4,,,,,,,,,,,,,
240,control_change,240,0,3,,,,,,,,,2,64,127,,
240,note_on,0,0,3,,,,,,,,,2,,,39,101
287,note_on,47,0,3,,,,,,,,,2,,,39,0
480,note_on,193,0,3,,,,,,,,,2,,,53,75
480,note_on,0,0,3,,,,,,,,,2,,,56,75
480,note_on,0,0,3,,,,,,,,,2,,,61,75
720,note_on,240,0,3,,,,,,,,,2,,,61,0
720,note_on,0,0,3,,,,,,,,,2,,,56,0
720,note_on,0,0,3,,,,,,,,,2,,,53,0
840,note_on,0,0,3,,,,,,,,,2,,,60,75
840,note_on,0,0,3,,,,,,,,,2,,,56,75
840,note_on,120,0,3,,,,,,,,,2,,,51,75
960,note_on,0,0,3,,,,,,,,,2,,,60,101
960,note_on,0,0,3,,,,,,,,,2,,,56,101
960,note_on,0,0,3,,,,,,,,,2,,,51,101
960,note_on,0,0,3,,,,,,,,,2,,,56,0
960,note_on,0,0,3,,,,,,,,,2,,,51,0
960,note_on,120,0,3,,,,,,,,,2,,,60,0
1440,note_on,480,0,3,,,,,,,,,2,,,60,0
1440,note_on,0,0,3,,,,,,,,,2,,,58,101
1440,note_on,0,0,3,,,,,,,,,2,,,56,0
1440,note_on,0,0,3,,,,,,,,,2,,,53,101
1440,note_on,0,0,3,,,,,,,,,2,,,51,0
1440,note_on,0,0,3,,,,,,,,,2,,,49,101
1487,note_on,0,0,3,,,,,,,,,2,,,49,0
1487,note_on,47,0,3,,,,,,,,,2,,,58,0
1487,note_on,0,0,3,,,,,,,,,2,,,53,0
1680,control_change,193,0,3,,,,,,,,,2,64,0,,
2160,note_on,0,0,3,,,,,,,,,2,,,39,101
2160,control_change,480,0,3,,,,,,,,,2,64,127,,
2207,note_on,47,0,3,,,,,,,,,2,,,39,0
2310,note_on,103,0,3,,,,,,,,,2,,,49,101
2340,note_on,30,0,3,,,,,,,,,2,,,56,101
2370,note_on,30,0,3,,,,,,,,,2,,,58,101
2400,note_on,30,0,3,,,,,,,,,2,,,65,101
2559,note_on,159,0,3,,,,,,,,,2,,,65,0
2559,note_on,0,0,3,,,,,,,,,2,,,58,0
2559,note_on,0,0,3,,,,,,,,,2,,,61,75
2559,note_on,0,0,3,,,,,,,,,2,,,56,75
2559,note_on,0,0,3,,,,,,,,,2,,,53,75
2559,note_on,0,0,3,,,,,,,,,2,,,49,0
2559,note_on,0,0,3,,,,,,,,,2,,,56,0
2720,note_on,0,0,3,,,,,,,,,2,,,56,0
2720,note_on,0,0,3,,,,,,,,,2,,,53,0
2720,note_on,161,0,3,,,,,,,,,2,,,61,0
2799,note_on,0,0,3,,,,,,,,,2,,,60,75
2799,note_on,0,0,3,,,,,,,,,2,,,56,75
2799,note_on,79,0,3,,,,,,,,,2,,,51,75
2880,note_on,81,0,3,,,,,,,,,2,,,60,0
2880,note_on,0,0,3,,,,,,,,,2,,,51,101
2880,note_on,0,0,3,,,,,,,,,2,,,51,0
2880,note_on,0,0,3,,,,,,,,,2,,,56,0
2880,note_on,0,0,3,,,,,,,,,2,,,56,101
2880,note_on,0,0,3,,,,,,,,,2,,,60,101
3360,note_on,0,0,3,,,,,,,,,2,,,59,101
3360,note_on,0,0,3,,,,,,,,,2,,,56,101
3360,note_on,0,0,3,,,,,,,,,2,,,56,0
3360,note_on,0,0,3,,,,,,,,,2,,,53,101
3360,note_on,480,0,3,,,,,,,,,2,,,60,0
3360,note_on,0,0,3,,,,,,,,,2,,,50,101
3360,note_on,0,0,3,,,,,,,,,2,,,51,0
3407,note_on,0,0,3,,,,,,,,,2,,,50,0
3407,note_on,0,0,3,,,,,,,,,2,,,53,0
3407,note_on,0,0,3,,,,,,,,,2,,,56,0
3407,note_on,47,0,3,,,,,,,,,2,,,59,0
3600,control_change,193,0,3,,,,,,,,,2,64,0,,
4080,control_change,480,0,3,,,,,,,,,2,64,127,,
4080,note_on,0,0,3,,,,,,,,,2,,,39,101
4127,note_on,47,0,3,,,,,,,,,2,,,39,0
4320,note_on,0,0,3,,,,,,,,,2,,,62,101
4320,note_on,0,0,3,,,,,,,,,2,,,65,101
4320,note_on,0,0,3,,,,,,,,,2,,,71,101
4320,note_on,193,0,3,,,,,,,,,2,,,56,101
4560,note_on,240,0,3,,,,,,,,,2,,,71,0
4560,note_on,0,0,3,,,,,,,,,2,,,62,0
4560,note_on,0,0,3,,,,,,,,,2,,,56,0
4560,note_on,0,0,3,,,,,,,,,2,,,65,0
4680,note_on,0,0,3,,,,,,,,,2,,,61,75
4680,note_on,120,0,3,,,,,,,,,2,,,55,75
4680,note_on,0,0,1,,,,,,,,,0,,,70,75
4680,note_on,4680,0,1,,,,,,,,,0,,,64,75
4800,note_on,0,0,1,,,,,,,,,0,,,64,75
4800,note_on,0,0,1,,,,,,,,,0,,,64,0
4800,note_on,0,0,3,,,,,,,,,2,,,55,0
4800,note_on,0,0,1,,,,,,,,,0,,,70,75
4800,note_on,120,0,3,,,,,,,,,2,,,61,0
4800,note_on,0,0,3,,,,,,,,,2,,,61,75
4800,note_on,120,0,1,,,,,,,,,0,,,70,0
4800,note_on,0,0,3,,,,,,,,,2,,,55,75
4920,set_tempo,4920,1,0,,,,,,582524,,,,,,,
4959,note_on,0,0,1,,,,,,,,,0,,,63,75
4959,note_on,0,0,1,,,,,,,,,0,,,64,0
4959,note_on,0,0,1,,,,,,,,,0,,,69,75
4959,note_on,0,0,3,,,,,,,,,2,,,60,75
4959,note_on,159,0,1,,,,,,,,,0,,,70,0
4959,note_on,0,0,3,,,,,,,,,2,,,55,0
4959,note_on,0,0,3,,,,,,,,,2,,,54,75
4959,note_on,159,0,3,,,,,,,,,2,,,61,0
5120,note_on,0,0,3,,,,,,,,,2,,,65,75
5120,note_on,0,0,3,,,,,,,,,2,,,59,75
5120,note_on,0,0,3,,,,,,,,,2,,,54,0
5120,note_on,0,0,1,,,,,,,,,0,,,63,0
5120,note_on,0,0,1,,,,,,,,,0,,,74,75
5120,note_on,161,0,1,,,,,,,,,0,,,69,0
5120,note_on,0,0,1,,,,,,,,,0,,,68,75
5120,note_on,161,0,3,,,,,,,,,2,,,60,0
5160,set_tempo,240,1,0,,,,,,566038,,,,,,,
5280,note_on,0,0,1,,,,,,,,,0,,,74,75
5280,note_on,0,0,1,,,,,,,,,0,,,68,75
5280,note_on,0,0,1,,,,,,,,,0,,,68,0
5280,note_on,0,0,3,,,,,,,,,2,,,59,0
5280,note_on,160,0,3,,,,,,,,,2,,,65,0
5280,note_on,160,0,1,,,,,,,,,0,,,74,0
5280,note_on,0,0,3,,,,,,,,,2,,,65,75
5280,note_on,0,0,3,,,,,,,,,2,,,59,75
5400,set_tempo,240,1,0,,,,,,550459,,,,,,,
5439,note_on,159,0,1,,,,,,,,,0,,,74,0
5439,note_on,0,0,3,,,,,,,,,2,,,58,75
5439,note_on,0,0,1,,,,,,,,,0,,,67,75
5439,note_on,0,0,1,,,,,,,,,0,,,68,0
5439,note_on,0,0,1,,,,,,,,,0,,,73,75
5439,note_on,0,0,3,,,,,,,,,2,,,59,0
5439,note_on,159,0,3,,,,,,,,,2,,,65,0
5439,note_on,0,0,3,,,,,,,,,2,,,64,75
5600,note_on,0,0,1,,,,,,,,,0,,,78,75
5600,note_on,161,0,3,,,,,,,,,2,,,64,0
5600,note_on,0,0,3,,,,,,,,,2,,,63,75
5600,note_on,0,0,3,,,,,,,,,2,,,69,75
5600,note_on,161,0,1,,,,,,,,,0,,,73,0
5600,note_on,0,0,1,,,,,,,,,0,,,72,75
5600,note_on,0,0,1,,,,,,,,,0,,,67,0
5600,note_on,0,0,3,,,,,,,,,2,,,58,0
5640,set_tempo,240,1,0,,,,,,530973,,,,,,,
5760,note_on,0,0,1,,,,,,,,,0,,,78,75
5760,note_on,0,0,1,,,,,,,,,0,,,72,75
5760,note_on,0,0,1,,,,,,,,,0,,,72,0
5760,note_on,0,0,3,,,,,,,,,2,,,63,75
5760,note_on,0,0,3,,,,,,,,,2,,,69,75
5760,note_on,160,0,1,,,,,,,,,0,,,78,0
5760,note_on,160,0,3,,,,,,,,,2,,,69,0
5760,note_on,0,0,3,,,,,,,,,2,,,63,0
5880,set_tempo,240,1,0,,,,,,517241,,,,,,,
5919,note_on,0,0,3,,,,,,,,,2,,,68,75
5919,note_on,0,0,1,,,,,,,,,0,,,71,75
5919,note_on,159,0,3,,,,,,,,,2,,,69,0
5919,note_on,159,0,1,,,,,,,,,0,,,78,0
5919,note_on,0,0,3,,,,,,,,,2,,,62,75
5919,note_on,0,0,3,,,,,,,,,2,,,63,0
5919,note_on,0,0,1,,,,,,,,,0,,,77,75
5919,note_on,0,0,1,,,,,,,,,0,,,72,0
6080,note_on,0,0,3,,,,,,,,,2,,,67,75
6080,note_on,0,0,3,,,,,,,,,2,,,62,0
6080,note_on,0,0,3,,,,,,,,,2,,,73,75
6080,note_on,0,0,1,,,,,,,,,0,,,76,75
6080,note_on,0,0,1,,,,,,,,,0,,,82,75
6080,note_on,161,0,3,,,,,,,,,2,,,68,0
6080,note_on,161,0,1,,,,,,,,,0,,,77,0
6080,note_on,0,0,1,,,,,,,,,0,,,71,0
6120,set_tempo,240,1,0,,,,,,504202,,,,,,,
6240,note_on,0,0,1,,,,,,,,,0,,,76,0
6240,note_on,160,0,3,,,,,,,,,2,,,73,0
6240,note_on,0,0,3,,,,,,,,,2,,,67,0
6240,note_on,0,0,3,,,,,,,,,2,,,67,88
6240,note_on,0,0,3,,,,,,,,,2,,,73,88
6240,note_on,0,0,1,,,,,,,,,0,,,76,88
6240,note_on,0,0,1,,,,,,,,,0,,,82,88
6240,note_on,160,0,1,,,,,,,,,0,,,82,0
6360,set_tempo,240,1,0,,,,,,491803,,,,,,,
6399,note_on,0,0,3,,,,,,,,,2,,,66,88
6399,note_on,0,0,1,,,,,,,,,0,,,75,88
6399,note_on,159,0,3,,,,,,,,,2,,,73,0
6399,note_on,0,0,1,,,,,,,,,0,,,76,0
6399,note_on,0,0,1,,,,,,,,,0,,,81,88
6399,note_on,159,0,1,,,,,,,,,0,,,82,0
6399,note_on,0,0,3,,,,,,,,,2,,,72,88
6399,note_on,0,0,3,,,,,,,,,2,,,67,0
6560,note_on,161,0,3,,,,,,,,,2,,,72,0
6560,note_on,161,0,1,,,,,,,,,0,,,81,0
6560,note_on,0,0,1,,,,,,,,,0,,,86,88
6560,note_on,0,0,3,,,,,,,,,2,,,71,88
6560,note_on,0,0,1,,,,,,,,,0,,,80,88
6560,note_on,0,0,1,,,,,,,,,0,,,75,0
6560,note_on,0,0,3,,,,,,,,,2,,,77,88
6560,note_on,0,0,3,,,,,,,,,2,,,66,0
6600,set_tempo,240,1,0,,,,,,476190,,,,,,,
6720,note_on,0,0,1,,,,,,,,,0,,,86,114
6720,note_on,0,0,3,,,,,,,,,2,,,77,114
6720,note_on,160,0,3,,,,,,,,,2,,,77,0
6720,note_on,0,0,3,,,,,,,,,2,,,71,0
6720,note_on,0,0,3,,,,,,,,,2,,,71,114
6720,note_on,0,0,1,,,,,,,,,0,,,80,0
6720,note_on,160,0,1,,,,,,,,,0,,,86,0
6720,note_on,0,0,1,,,,,,,,,0,,,80,114
6767,note_on,47,0,3,,,,,,,,,2,,,77,0
6767,note_on,0,0,1,,,,,,,,,0,,,80,0
6767,note_on,0,0,3,,,,,,,,,2,,,71,0
6767,note_on,47,0,1,,,,,,,,,0,,,86,0
6960,control_change,193,0,3,,,,,,,,,2,64,0,,
7920,note_on,0,0,1,,,,,,,,,0,,,39,114
7920,control_change,1153,0,1,,,,,,,,,0,64,127,,
7967,note_on,47,0,1,,,,,,,,,0,,,39,0
8160,note_on,193,0,1,,,,,,,,,0,,,51,88
8220,note_on,60,0,1,,,,,,,,,0,,,51,0
8220,note_on,0,0,1,,,,,,,,,0,,,58,88
8280,note_on,60,0,1,,,,,,,,,0,,,58,0
8280,note_on,0,0,1,,,,,,,,,0,,,61,88
8340,note_on,60,0,1,,,,,,,,,0,,,61,0
8340,note_on,0,0,1,,,,,,,,,0,,,67,88
8400,note_on,60,0,1,,,,,,,,,0,,,67,0
8400,note_on,0,0,1,,,,,,,,,0,,,73,88
8460,note_on,0,0,1,,,,,,,,,0,,,79,88
8460,note_on,60,0,1,,,,,,,,,0,,,73,0
8520,note_on,60,0,1,,,,,,,,,0,,,79,0
8520,note_on,0,0,1,,,,,,,,,0,,,82,88
8580,note_on,0,0,1,,,,,,,,,0,,,89,114
8580,note_on,60,0,1,,,,,,,,,0,,,82,0
8627,note_on,47,0,1,,,,,,,,,0,,,89,0
8880,control_change,253,0,1,,,,,,,,,0,64,0,,
9000,note_on,2040,0,3,,,,,,,,,2,,,73,75
9000,note_on,120,0,1,,,,,,,,,0,,,82,75
9000,note_on,0,0,3,,,,,,,,,2,,,79,75
9000,note_on,0,0,1,,,,,,,,,0,,,88,75
9120,note_on,0,0,1,,,,,,,,,0,,,88,75
9120,note_on,0,0,3,,,,,,,,,2,,,79,75
9120,note_on,0,0,3,,,,,,,,,2,,,73,0
9120,note_on,0,0,3,,,,,,,,,2,,,73,75
9120,note_on,0,0,1,,,,,,,,,0,,,82,0
9120,note_on,120,0,3,,,,,,,,,2,,,79,0
9120,note_on,120,0,1,,,,,,,,,0,,,88,0
9120,note_on,0,0,1,,,,,,,,,0,,,82,75
9279,note_on,0,0,3,,,,,,,,,2,,,72,75
9279,note_on,159,0,3,,,,,,,,,2,,,79,0
9279,note_on,0,0,3,,,,,,,,,2,,,73,0
9279,note_on,159,0,1,,,,,,,,,0,,,88,0
9279,note_on,0,0,1,,,,,,,,,0,,,81,75
9279,note_on,0,0,1,,,,,,,,,0,,,82,0
9279,note_on,0,0,1,,,,,,,,,0,,,87,75
9279,note_on,0,0,3,,,,,,,,,2,,,78,75
9440,note_on,161,0,1,,,,,,,,,0,,,87,0
9440,note_on,161,0,3,,,,,,,,,2,,,78,0
9440,note_on,0,0,1,,,,,,,,,0,,,81,0
9440,note_on,0,0,3,,,,,,,,,2,,,77,75
9440,note_on,0,0,3,,,,,,,,,2,,,71,75
9440,note_on,0,0,3,,,,,,,,,2,,,72,0
9440,note_on,0,0,1,,,,,,,,,0,,,92,75
9440,note_on,0,0,1,,,,,,,,,0,,,86,75
9600,note_on,0,0,1,,,,,,,,,0,,,86,0
9600,note_on,0,0,3,,,,,,,,,2,,,77,75
9600,note_on,0,0,3,,,,,,,,,2,,,71,75
9600,note_on,160,0,1,,,,,,,,,0,,,92,0
9600,note_on,160,0,3,,,,,,,,,2,,,77,0
9600,note_on,0,0,3,,,,,,,,,2,,,71,0
9600,note_on,0,0,1,,,,,,,,,0,,,92,75
9600,note_on,0,0,1,,,,,,,,,0,,,86,75
9759,note_on,0,0,1,,,,,,,,,0,,,91,75
9759,note_on,0,0,1,,,,,,,,,0,,,86,0
9759,note_on,0,0,1,,,,,,,,,0,,,85,75
9759,note_on,159,0,1,,,,,,,,,0,,,92,0
9759,note_on,159,0,3,,,,,,,,,2,,,77,0
9759,note_on,0,0,3,,,,,,,,,2,,,70,75
9759,note_on,0,0,3,,,,,,,,,2,,,76,75
9759,note_on,0,0,3,,,,,,,,,2,,,71,0
9920,note_on,161,0,1,,,,,,,,,0,,,91,0
9920,note_on,0,0,3,,,,,,,,,2,,,75,75
9920,note_on,0,0,3,,,,,,,,,2,,,70,0
9920,note_on,0,0,3,,,,,,,,,2,,,69,75
9920,note_on,161,0,3,,,,,,,,,2,,,76,0
9920,note_on,0,0,1,,,,,,,,,0,,,90,75
9920,note_on,0,0,1,,,,,,,,,0,,,96,75
9920,note_on,0,0,1,,,,,,,,,0,,,85,0
10080,note_on,0,0,3,,,,,,,,,2,,,69,88
10080,note_on,0,0,3,,,,,,,,,2,,,69,0
10080,note_on,0,0,1,,,,,,,,,0,,,96,88
10080,note_on,0,0,1,,,,,,,,,0,,,90,88
10080,note_on,0,0,1,,,,,,,,,0,,,90,0
10080,note_on,160,0,1,,,,,,,,,0,,,96,0
10080,note_on,0,0,3,,,,,,,,,2,,,75,88
10080,note_on,160,0,3,,,,,,,,,2,,,75,0
10239,note_on,0,0,3,,,,,,,,,2,,,69,0
10239,note_on,159,0,1,,,,,,,,,0,,,96,0
10239,note_on,0,0,3,,,,,,,,,2,,,74,88
10239,note_on,159,0,3,,,,,,,,,2,,,75,0
10239,note_on,0,0,1,,,,,,,,,0,,,89,88
10239,note_on,0,0,1,,,,,,,,,0,,,90,0
10239,note_on,0,0,1,,,,,,,,,0,,,95,88
10239,note_on,0,0,3,,,,,,,,,2,,,68,88
10400,note_on,0,0,3,,,,,,,,,2,,,68,0
10400,note_on,0,0,3,,,,,,,,,2,,,73,88
10400,note_on,0,0,3,,,,,,,,,2,,,67,88
10400,note_on,0,0,1,,,,,,,,,0,,,89,0
10400,note_on,0,0,1,,,,,,,,,0,,,94,88
10400,note_on,161,0,3,,,,,,,,,2,,,74,0
10400,note_on,161,0,1,,,,,,,,,0,,,95,0
10400,note_on,0,0,1,,,,,,,,,0,,,100,88
10560,note_on,160,0,1,,,,,,,,,0,,,100,0
10560,note_on,0,0,3,,,,,,,,,2,,,67,0
10560,note_on,0,0,1,,,,,,,,,0,,,100,114
10560,note_on,0,0,1,,,,,,,,,0,,,94,114
10560,note_on,0,0,1,,,,,,,,,0,,,94,0
10560,control_change,0,0,3,,,,,,,,,2,64,127,,
10560,note_on,0,0,3,,,,,,,,,2,,,67,114
10560,note_on,0,0,3,,,,,,,,,2,,,73,114
10560,control_change,0,0,1,,,,,,,,,0,64,127,,
10560,note_on,160,0,3,,,,,,,,,2,,,73,0
11280,note_on,0,0,3,,,,,,,,,2,,,66,88
11280,note_on,0,0,3,,,,,,,,,2,,,67,0
11280,note_on,0,0,1,,,,,,,,,0,,,93,88
11280,note_on,0,0,1,,,,,,,,,0,,,94,0
11280,note_on,0,0,1,,,,,,,,,0,,,99,88
11280,note_on,720,0,3,,,,,,,,,2,,,73,0
11280,note_on,0,0,3,,,,,,,,,2,,,72,88
11280,note_on,720,0,1,,,,,,,,,0,,,100,0
11520,note_on,0,0,3,,,,,,,,,2,,,77,88
11520,note_on,0,0,3,,,,,,,,,2,,,66,0
11520,note_on,0,0,3,,,,,,,,,2,,,71,88
11520,note_on,0,0,1,,,,,,,,,0,,,92,88
11520,note_on,0,0,1,,,,,,,,,0,,,98,88
11520,note_on,240,0,1,,,,,,,,,0,,,99,0
11520,note_on,0,0,1,,,,,,,,,0,,,93,0
11520,note_on,240,0,3,,,,,,,,,2,,,72,0
11679,note_on,0,0,3,,,,,,,,,2,,,71,0
11679,note_on,0,0,1,,,,,,,,,0,,,91,88
11679,note_on,0,0,1,,,,,,,,,0,,,92,0
11679,note_on,0,0,1,,,,,,,,,0,,,97,88
11679,note_on,159,0,1,,,,,,,,,0,,,98,0
11679,note_on,159,0,3,,,,,,,,,2,,,77,0
11679,note_on,0,0,3,,,,,,,,,2,,,70,88
11679,note_on,0,0,3,,,,,,,,,2,,,76,88
11840,note_on,161,0,3,,,,,,,,,2,,,76,0
11840,note_on,0,0,3,,,,,,,,,2,,,75,88
11840,note_on,0,0,3,,,,,,,,,2,,,70,0
11840,note_on,0,0,1,,,,,,,,,0,,,96,88
11840,note_on,0,0,1,,,,,,,,,0,,,91,0
11840,note_on,0,0,1,,,,,,,,,0,,,90,88
11840,note_on,161,0,1,,,,,,,,,0,,,97,0
11840,note_on,0,0,3,,,,,,,,,2,,,81,88
12000,note_on,0,0,1,,,,,,,,,0,,,90,0
12000,note_on,0,0,3,,,,,,,,,2,,,74,88
12000,note_on,0,0,3,,,,,,,,,2,,,75,0
12000,note_on,160,0,3,,,,,,,,,2,,,81,0
12000,note_on,0,0,1,,,,,,,,,0,,,89,75
12000,note_on,160,0,1,,,,,,,,,0,,,96,0
12000,note_on,0,0,1,,,,,,,,,0,,,95,75
12000,note_on,0,0,3,,,,,,,,,2,,,80,88
12159,note_on,159,0,3,,,,,,,,,2,,,80,0
12159,note_on,0,0,3,,,,,,,,,2,,,74,0
12159,note_on,159,0,1,,,,,,,,,0,,,95,0
12159,note_on,0,0,3,,,,,,,,,2,,,79,88
12159,note_on,0,0,1,,,,,,,,,0,,,89,0
12159,note_on,0,0,1,,,,,,,,,0,,,88,75
12159,note_on,0,0,1,,,,,,,,,0,,,94,75
12159,note_on,0,0,3,,,,,,,,,2,,,85,88
12320,note_on,0,0,1,,,,,,,,,0,,,87,75
12320,note_on,0,0,1,,,,,,,,,0,,,88,0
12320,note_on,0,0,3,,,,,,,,,2,,,79,0
12320,note_on,161,0,1,,,,,,,,,0,,,94,0
12320,note_on,0,0,3,,,,,,,,,2,,,84,88
12320,note_on,0,0,3,,,,,,,,,2,,,78,88
12320,note_on,161,0,3,,,,,,,,,2,,,85,0
12320,note_on,0,0,1,,,,,,,,,0,,,93,75
12480,note_on,160,0,1,,,,,,,,,0,,,93,0
12480,note_on,160,0,3,,,,,,,,,2,,,84,0
12480,note_on,0,0,1,,,,,,,,,0,,,86,75
12480,note_on,0,0,3,,,,,,,,,2,,,77,88
12480,note_on,0,0,3,,,,,,,,,2,,,78,0
12480,note_on,0,0,3,,,,,,,,,2,,,83,88
12480,note_on,0,0,1,,,,,,,,,0,,,92,75
12480,note_on,0,0,1,,,,,,,,,0,,,87,0
12639,note_on,159,0,1,,,,,,,,,0,,,92,0
12639,note_on,0,0,3,,,,,,,,,2,,,76,88
12639,note_on,0,0,3,,,,,,,,,2,,,77,0
12639,note_on,0,0,3,,,,,,,,,2,,,82,88
12639,note_on,0,0,1,,,,,,,,,0,,,85,75
12639,note_on,159,0,3,,,,,,,,,2,,,83,0
12639,note_on,0,0,1,,,,,,,,,0,,,86,0
12639,note_on,0,0,1,,,,,,,,,0,,,91,75
12720,set_tempo,6120,1,0,,,,,,487805,,,,,,,
12800,note_on,161,0,3,,,,,,,,,2,,,82,0
12800,note_on,0,0,1,,,,,,,,,0,,,90,75
12800,note_on,0,0,1,,,,,,,,,0,,,85,0
12800,note_on,0,0,1,,,,,,,,,0,,,84,75
12800,note_on,161,0,1,,,,,,,,,0,,,91,0
12800,note_on,0,0,3,,,,,,,,,2,,,75,88
12800,note_on,0,0,3,,,,,,,,,2,,,76,0
12800,note_on,0,0,3,,,,,,,,,2,,,81,88
12960,note_on,0,0,1,,,,,,,,,0,,,89,75
12960,note_on,160,0,3,,,,,,,,,2,,,81,0
12960,note_on,0,0,3,,,,,,,,,2,,,74,88
12960,note_on,160,0,1,,,,,,,,,0,,,90,0
12960,set_tempo,240,1,0,,,,,,500000,,,,,,,
12960,note_on,0,0,3,,,,,,,,,2,,,75,0
12960,note_on,0,0,1,,,,,,,,,0,,,83,75
12960,note_on,0,0,3,,,,,,,,,2,,,80,88
12960,note_on,0,0,1,,,,,,,,,0,,,84,0
13200,note_on,0,0,3,,,,,,,,,2,,,74,0
13200,note_on,0,0,3,,,,,,,,,2,,,73,88
13200,note_on,0,0,3,,,,,,,,,2,,,79,88
13200,note_on,0,0,1,,,,,,,,,0,,,82,75
13200,note_on,0,0,1,,,,,,,,,0,,,83,0
13200,note_on,240,0,3,,,,,,,,,2,,,80,0
13200,set_tempo,240,1,0,,,,,,512821,,,,,,,
13200,note_on,240,0,1,,,,,,,,,0,,,89,0
13200,note_on,0,0,1,,,,,,,,,0,,,88,75
13440,note_on,240,0,3,,,,,,,,,2,,,79,0
13440,note_on,240,0,1,,,,,,,,,0,,,88,0
13440,set_tempo,240,1,0,,,,,,530973,,,,,,,
13440,note_on,0,0,3,,,,,,,,,2,,,73,0
13440,note_on,0,0,3,,,,,,,,,2,,,78,88
13440,note_on,0,0,1,,,,,,,,,0,,,81,75
13440,note_on,0,0,1,,,,,,,,,0,,,82,0
13440,note_on,0,0,1,,,,,,,,,0,,,87,75
13440,note_on,0,0,3,,,,,,,,,2,,,72,88
13680,note_on,0,0,1,,,,,,,,,0,,,81,0
13680,note_on,0,0,1,,,,,,,,,0,,,86,75
13680,note_on,0,0,3,,,,,,,,,2,,,72,0
13680,note_on,0,0,3,,,,,,,,,2,,,77,88
13680,note_on,240,0,3,,,,,,,,,2,,,78,0
13680,control_change,0,0,1,,,,,,,,,0,64,0,,
13680,note_on,240,0,1,,,,,,,,,0,,,87,0
13680,control_change,0,0,3,,,,,,,,,2,64,0,,
13680,set_tempo,240,1,0,,,,,,545455,,,,,,,
13680,note_on,0,0,1,,,,,,,,,0,,,80,75
13680,note_on,0,0,3,,,,,,,,,2,,,71,88
13920,note_on,0,0,3,,,,,,,,,2,,,70,88
13920,control_change,0,0,3,,,,,,,,,2,64,127,,
13920,note_on,0,0,3,,,,,,,,,2,,,71,0
13920,note_on,0,0,1,,,,,,,,,0,,,85,75
13920,note_on,0,0,1,,,,,,,,,0,,,80,0
13920,note_on,240,0,1,,,,,,,,,0,,,86,0
13920,note_on,240,0,3,,,,,,,,,2,,,77,0
13920,note_on,0,0,1,,,,,,,,,0,,,79,75
13920,note_on,0,0,3,,,,,,,,,2,,,76,88
13920,set_tempo,240,1,0,,,,,,560748,,,,,,,
13920,control_change,0,0,1,,,,,,,,,0,64,127,,
13967,note_on,47,0,3,,,,,,,,,2,,,76,0
13967,note_on,47,0,1,,,,,,,,,0,,,85,0
13967,note_on,0,0,3,,,,,,,,,2,,,70,0
13967,note_on,0,0,1,,,,,,,,,0,,,79,0
14160,note_on,0,0,3,,,,,,,,,2,,,76,88
14160,note_on,193,0,1,,,,,,,,,0,,,79,75
14160,note_on,0,0,1,,,,,,,,,0,,,85,75
14160,set_tempo,240,1,0,,,,,,576923,,,,,,,
14160,note_on,193,0,3,,,,,,,,,2,,,69,88
14207,note_on,47,0,3,,,,,,,,,2,,,76,0
14207,note_on,0,0,3,,,,,,,,,2,,,69,0
14207,note_on,47,0,1,,,,,,,,,0,,,85,0
14207,note_on,0,0,1,,,,,,,,,0,,,79,0
14400,note_on,193,0,3,,,,,,,,,2,,,68,88
14400,note_on,193,0,1,,,,,,,,,0,,,80,75
14400,note_on,0,0,1,,,,,,,,,0,,,85,75
14400,note_on,0,0,3,,,,,,,,,2,,,76,88
14400,set_tempo,240,1,0,,,,,,600000,,,,,,,
14447,note_on,0,0,3,,,,,,,,,2,,,68,0
14447,note_on,47,0,3,,,,,,,,,2,,,76,0
14447,note_on,47,0,1,,,,,,,,,0,,,85,0
14447,note_on,0,0,1,,,,,,,,,0,,,80,0
14640,note_on,0,0,3,,,,,,,,,2,,,76,88
14640,note_on,0,0,3,,,,,,,,,2,,,67,88
14640,control_change,193,0,3,,,,,,,,,2,64,0,,
14640,note_on,0,0,1,,,,,,,,,0,,,81,75
14640,control_change,193,0,1,,,,,,,,,0,64,0,,
14640,note_on,0,0,1,,,,,,,,,0,,,85,75
14687,note_on,0,0,1,,,,,,,,,0,,,81,0
14687,note_on,0,0,3,,,,,,,,,2,,,67,0
14687,note_on,47,0,3,,,,,,,,,2,,,76,0
14687,note_on,47,0,1,,,,,,,,,0,,,85,0
14880,note_on,14880,0,2,,,,,,,,,1,,,82,64
14880,control_change,193,0,1,,,,,,,,,0,64,127,,
14880,note_on,193,0,3,,,,,,,,,2,,,66,88
14880,note_on,0,0,1,,,,,,,,,0,,,85,75
14880,note_on,0,0,3,,,,,,,,,2,,,76,88
14940,note_on,60,0,1,,,,,,,,,0,,,85,0
14940,note_on,0,0,1,,,,,,,,,0,,,87,75
15000,note_on,60,0,1,,,,,,,,,0,,,87,0
15000,note_on,0,0,1,,,,,,,,,0,,,85,75
15060,note_on,60,0,1,,,,,,,,,0,,,85,0
15060,note_on,0,0,1,,,,,,,,,0,,,87,75
15120,note_on,60,0,1,,,,,,,,,0,,,87,0
15120,note_on,0,0,1,,,,,,,,,0,,,85,75
15180,note_on,0,0,1,,,,,,,,,0,,,87,75
15180,note_on,60,0,1,,,,,,,,,0,,,85,0
15240,note_on,60,0,1,,,,,,,,,0,,,87,0
15240,note_on,0,0,1,,,,,,,,,0,,,85,75
15300,note_on,60,0,1,,,,,,,,,0,,,85,0
15300,note_on,0,0,1,,,,,,,,,0,,,87,75
15360,note_on,0,0,1,,,,,,,,,0,,,85,75
15360,note_on,60,0,1,,,,,,,,,0,,,87,0
15360,time_signature,960,1,0,2,4,24,8,,,,,,,,,
15360,note_on,480,0,2,,,,,,,,,1,,,82,0
15420,note_on,60,0,1,,,,,,,,,0,,,85,0
15420,note_on,0,0,1,,,,,,,,,0,,,87,75
15480,note_on,0,0,1,,,,,,,,,0,,,85,75
15480,note_on,60,0,1,,,,,,,,,0,,,87,0
15540,note_on,0,0,1,,,,,,,,,0,,,87,75
15540,note_on,60,0,1,,,,,,,,,0,,,85,0
15600,note_on,0,0,1,,,,,,,,,0,,,85,75
15600,note_on,60,0,1,,,,,,,,,0,,,87,0
15660,note_on,60,0,1,,,,,,,,,0,,,85,0
15660,note_on,0,0,1,,,,,,,,,0,,,87,75
15720,note_on,0,0,1,,,,,,,,,0,,,85,75
15720,note_on,60,0,1,,,,,,,,,0,,,87,0
15780,note_on,60,0,1,,,,,,,,,0,,,85,0
15780,control_change,0,0,1,,,,,,,,,0,64,0,,
15780,note_on,0,0,1,,,,,,,,,0,,,85,75
15840,note_on,0,0,3,,,,,,,,,2,,,66,0
15840,control_change,0,0,1,,,,,,,,,0,64,127,,
15840,note_on,60,0,1,,,,,,,,,0,,,85,0
15840,note_on,960,0,3,,,,,,,,,2,,,76,0
15840,note_on,0,0,1,,,,,,,,,0,,,81,75
15855,note_on,15,0,1,,,,,,,,,0,,,81,0
15920,note_on,65,0,1,,,,,,,,,0,,,82,75
15936,note_on,16,0,1,,,,,,,,,0,,,82,0
15999,note_on,63,0,1,,,,,,,,,0,,,83,75
16015,note_on,16,0,1,,,,,,,,,0,,,83,0
16080,note_on,65,0,1,,,,,,,,,0,,,84,75
16095,note_on,15,0,1,,,,,,,,,0,,,84,0
16160,note_on,65,0,1,,,,,,,,,0,,,85,75
16176,note_on,16,0,1,,,,,,,,,0,,,85,0
16239,note_on,0,0,1,,,,,,,,,0,,,86,75
16239,control_change,63,0,1,,,,,,,,,0,64,0,,
16255,note_on,16,0,1,,,,,,,,,0,,,86,0
16320,note_on,0,0,3,,,,,,,,,2,,,70,62
16320,note_on,480,0,3,,,,,,,,,2,,,61,62
16320,note_on,0,0,1,,,,,,,,,0,,,87,62
16320,note_on,960,0,2,,,,,,,,,1,,,80,64
16320,control_change,65,0,1,,,,,,,,,0,64,127,,
16320,time_signature,960,1,0,4,4,24,8,,,,,,,,,
16320,set_tempo,0,1,0,,,,,,600000,,,,,,,
16479,note_on,159,0,1,,,,,,,,,0,,,87,0
16479,note_on,0,0,1,,,,,,,,,0,,,88,62
16560,set_tempo,240,1,0,,,,,,618557,,,,,,,
16640,note_on,0,0,1,,,,,,,,,0,,,87,62
16640,note_on,161,0,1,,,,,,,,,0,,,88,0
16800,note_on,0,0,1,,,,,,,,,0,,,90,75
16800,note_on,160,0,1,,,,,,,,,0,,,87,0
16800,set_tempo,240,1,0,,,,,,638298,,,,,,,
16959,note_on,159,0,1,,,,,,,,,0,,,90,0
16959,note_on,0,0,1,,,,,,,,,0,,,88,75
17040,set_tempo,240,1,0,,,,,,659341,,,,,,,
17199,note_on,0,0,1,,,,,,,,,0,,,88,75
17199,control_change,0,0,1,,,,,,,,,0,64,0,,
17199,note_on,240,0,1,,,,,,,,,0,,,88,0
17280,note_on,0,0,1,,,,,,,,,0,,,88,75
17280,note_on,0,0,3,,,,,,,,,2,,,61,0
17280,note_on,960,0,3,,,,,,,,,2,,,70,0
17280,note_on,960,0,2,,,,,,,,,1,,,80,0
17280,note_on,81,0,1,,,,,,,,,0,,,88,0
17280,set_tempo,240,1,0,,,,,,689655,,,,,,,
17439,note_on,159,0,1,,,,,,,,,0,,,88,0
17439,note_on,0,0,1,,,,,,,,,0,,,88,75
17520,set_tempo,240,1,0,,,,,,714286,,,,,,,
17600,note_on,0,0,1,,,,,,,,,0,,,88,75
17600,note_on,161,0,1,,,,,,,,,0,,,88,0
17760,set_tempo,240,1,0,,,,,,740741,,,,,,,
17760,note_on,160,0,1,,,,,,,,,0,,,88,0
17760,note_on,0,0,1,,,,,,,,,0,,,88,75
17919,note_on,159,0,1,,,,,,,,,0,,,88,0
17919,note_on,0,0,1,,,,,,,,,0,,,88,75
18000,set_tempo,240,1,0,,,,,,769231,,,,,,,
18080,note_on,161,0,1,,,,,,,,,0,,,88,0
18080,note_on,0,0,1,,,,,,,,,0,,,88,75
18240,note_on,0,0,1,,,,,,,,,0,,,88,75
18240,note_on,160,0,1,,,,,,,,,0,,,88,0
18240,set_tempo,240,1,0,,,,,,810811,,,,,,,
18399,note_on,159,0,1,,,,,,,,,0,,,88,0
18399,note_on,0,0,1,,,,,,,,,0,,,88,75
18639,note_on,0,0,1,,,,,,,,,0,,,88,75
18639,note_on,240,0,1,,,,,,,,,0,,,88,0
18720,note_on,0,0,1,,,,,,,,,0,,,88,75
18720,note_on,1440,0,3,,,,,,,,,2,,,63,62
18720,note_on,1440,0,2,,,,,,,,,1,,,79,64
18720,note_on,0,0,3,,,,,,,,,2,,,73,62
18720,note_on,81,0,1,,,,,,,,,0,,,88,0
18720,note_on,0,0,3,,,,,,,,,2,,,70,62
19440,note_on,720,0,3,,,,,,,,,2,,,73,0
19440,note_on,720,0,2,,,,,,,,,1,,,79,0
19440,note_on,0,0,3,,,,,,,,,2,,,70,0
19440,note_on,0,0,3,,,,,,,,,2,,,63,0
19680,set_tempo,1440,1,0,,,,,,400000,,,,,,,
19800,note_on,0,0,1,,,,,,,,,0,,,88,75
19800,note_on,1080,0,1,,,,,,,,,0,,,88,0
19920,note_on,0,0,1,,,,,,,,,0,,,84,75
19920,note_on,120,0,1,,,,,,,,,0,,,88,0
20040,note_on,0,0,1,,,,,,,,,0,,,85,75
20040,note_on,120,0,1,,,,,,,,,0,,,84,0
20160,note_on,120,0,1,,,,,,,,,0,,,85,0
20160,note_on,0,0,1,,,,,,,,,0,,,81,75
20280,note_on,120,0,1,,,,,,,,,0,,,81,0
20280,note_on,0,0,1,,,,,,,,,0,,,82,75
20400,note_on,120,0,1,,,,,,,,,0,,,82,0
20400,note_on,0,0,1,,,,,,,,,0,,,78,75
20520,note_on,0,0,1,,,,,,,,,0,,,79,75
20520,note_on,120,0,1,,,,,,,,,0,,,78,0
20640,note_on,0,0,1,,,,,,,,,0,,,76,75
20640,note_on,120,0,1,,,,,,,,,0,,,79,0
20760,note_on,0,0,1,,,,,,,,,0,,,77,75
20760,note_on,120,0,1,,,,,,,,,0,,,76,0
20880,note_on,0,0,1,,,,,,,,,0,,,72,75
20880,note_on,120,0,1,,,,,,,,,0,,,77,0
21000,note_on,0,0,1,,,,,,,,,0,,,73,75
21000,note_on,120,0,1,,,,,,,,,0,,,72,0
21120,note_on,120,0,1,,,,,,,,,0,,,73,0
21120,note_on,0,0,1,,,,,,,,,0,,,69,75
21240,note_on,120,0,1,,,,,,,,,0,,,69,0
21240,note_on,0,0,1,,,,,,,,,0,,,70,75
21360,note_on,120,0,1,,,,,,,,,0,,,70,0
21360,note_on,0,0,1,,,,,,,,,0,,,66,75
21480,note_on,120,0,1,,,,,,,,,0,,,66,0
21480,note_on,0,0,1,,,,,,,,,0,,,67,75
21600,note_on,120,0,1,,,,,,,,,0,,,67,0
21600,note_on,0,0,1,,,,,,,,,0,,,64,75
21720,note_on,0,0,1,,,,,,,,,0,,,65,75
21720,note_on,120,0,1,,,,,,,,,0,,,64,0
21840,note_on,120,0,1,,,,,,,,,0,,,65,0
21840,note_on,0,0,1,,,,,,,,,0,,,62,75
22020,note_on,180,0,1,,,,,,,,,0,,,62,0
22020,note_on,0,0,1,,,,,,,,,0,,,63,75
22080,set_tempo,2400,1,0,,,,,,600000,,,,,,,
22080,note_on,0,0,1,,,,,,,,,0,,,62,75
22080,note_on,60,0,1,,,,,,,,,0,,,63,0
22140,note_on,0,0,1,,,,,,,,,0,,,63,75
22140,note_on,60,0,1,,,,,,,,,0,,,62,0
22200,note_on,0,0,1,,,,,,,,,0,,,65,75
22200,note_on,60,0,1,,,,,,,,,0,,,63,0
22260,note_on,0,0,1,,,,,,,,,0,,,63,75
22260,note_on,60,0,1,,,,,,,,,0,,,65,0
22320,note_on,0,0,1,,,,,,,,,0,,,65,75
22320,note_on,60,0,1,,,,,,,,,0,,,63,0
22320,set_tempo,240,1,0,,,,,,659341,,,,,,,
22380,note_on,0,0,1,,,,,,,,,0,,,63,75
22380,note_on,60,0,1,,,,,,,,,0,,,65,0
22440,note_on,60,0,1,,,,,,,,,0,,,63,0
22440,note_on,0,0,1,,,,,,,,,0,,,65,75
22500,note_on,0,0,1,,,,,,,,,0,,,63,75
22500,note_on,60,0,1,,,,,,,,,0,,,65,0
22560,set_tempo,240,1,0,,,,,,731707,,,,,,,
22560,note_on,0,0,1,,,,,,,,,0,,,65,75
22560,note_on,60,0,1,,,,,,,,,0,,,63,0
22620,note_on,0,0,1,,,,,,,,,0,,,63,75
22620,note_on,60,0,1,,,,,,,,,0,,,65,0
22680,note_on,60,0,1,,,,,,,,,0,,,63,0
22680,note_on,0,0,1,,,,,,,,,0,,,65,75
22740,note_on,60,0,1,,,,,,,,,0,,,65,0
22740,note_on,0,0,1,,,,,,,,,0,,,63,75
22800,note_on,0,0,1,,,,,,,,,0,,,65,75
22800,note_on,60,0,1,,,,,,,,,0,,,63,0
22800,set_tempo,240,1,0,,,,,,821918,,,,,,,
22860,note_on,0,0,1,,,,,,,,,0,,,63,75
22860,note_on,60,0,1,,,,,,,,,0,,,65,0
22920,note_on,0,0,1,,,,,,,,,0,,,65,75
22920,note_on,60,0,1,,,,,,,,,0,,,63,0
22980,note_on,60,0,1,,,,,,,,,0,,,65,0
22980,note_on,0,0,1,,,,,,,,,0,,,63,75
23040,note_on,0,0,1,,,,,,,,,0,,,65,75
23040,set_tempo,240,1,0,,,,,,983607,,,,,,,
23040,note_on,60,0,1,,,,,,,,,0,,,63,0
23100,note_on,60,0,1,,,,,,,,,0,,,65,0
23100,note_on,0,0,1,,,,,,,,,0,,,63,75
23160,note_on,0,0,1,,,,,,,,,0,,,65,75
23160,note_on,60,0,1,,,,,,,,,0,,,63,0
23220,note_on,0,0,1,,,,,,,,,0,,,63,75
23220,note_on,60,0,1,,,,,,,,,0,,,65,0
23280,note_on,0,0,1,,,,,,,,,0,,,65,75
23280,set_tempo,240,1,0,,,,,,1153846,,,,,,,
23280,note_on,60,0,1,,,,,,,,,0,,,63,0
23340,note_on,60,0,1,,,,,,,,,0,,,65,0
23340,note_on,0,0,1,,,,,,,,,0,,,63,75
23400,note_on,0,0,1,,,,,,,,,0,,,62,75
23400,note_on,60,0,1,,,,,,,,,0,,,63,0
23460,note_on,60,0,1,,,,,,,,,0,,,62,0
23460,note_on,0,0,1,,,,,,,,,0,,,63,75
23520,note_on,0,0,1,,,,,,,,,0,,,73,101
23520,note_on,4080,0,2,,,,,,,,,1,,,73,62
23520,set_tempo,240,1,0,,,,,,618557,,,,,,,
23520,note_on,60,0,1,,,,,,,,,0,,,63,0
23520,control_change,4080,0,3,,,,,,,,,2,64,127,,
23520,note_on,0,0,3,,,,,,,,,2,,,63,62
23760,note_on,240,0,3,,,,,,,,,2,,,63,0
23760,note_on,0,0,3,,,,,,,,,2,,,56,62
23760,note_on,240,0,2,,,,,,,,,1,,,73,0
23760,note_on,0,0,2,,,,,,,,,1,,,63,62
23760,set_tempo,240,1,0,,,,,,681818,,,,,,,
23880,note_on,360,0,1,,,,,,,,,0,,,73,0
23880,note_on,0,0,1,,,,,,,,,0,,,72,75
24000,set_tempo,240,1,0,,,,,,681818,,,,,,,
24000,note_on,120,0,1,,,,,,,,,0,,,72,0
24000,note_on,240,0,3,,,,,,,,,2,,,56,0
24000,note_on,0,0,2,,,,,,,,,1,,,72,62
24000,note_on,0,0,1,,,,,,,,,0,,,72,75
24000,note_on,0,0,3,,,,,,,,,2,,,53,62
24000,note_on,240,0,2,,,,,,,,,1,,,63,0
24240,note_on,240,0,3,,,,,,,,,2,,,53,0
24240,note_on,0,0,3,,,,,,,,,2,,,44,62
24240,note_on,0,0,2,,,,,,,,,1,,,62,62
24240,control_change,0,0,3,,,,,,,,,2,64,0,,
24240,note_on,240,0,2,,,,,,,,,1,,,72,0
24480,note_on,480,0,1,,,,,,,,,0,,,72,0
24480,note_on,0,0,3,,,,,,,,,2,,,62,62
24480,note_on,0,0,1,,,,,,,,,0,,,70,75
24480,control_change,0,0,3,,,,,,,,,2,64,127,,
24480,note_on,240,0,2,,,,,,,,,1,,,62,0
24480,note_on,240,0,3,,,,,,,,,2,,,44,0
24480,note_on,0,0,2,,,,,,,,,1,,,65,62
24720,note_on,240,0,1,,,,,,,,,0,,,70,0
24720,note_on,0,0,2,,,,,,,,,1,,,77,62
24720,note_on,240,0,2,,,,,,,,,1,,,65,0
24720,note_on,240,0,3,,,,,,,,,2,,,62,0
24720,note_on,0,0,3,,,,,,,,,2,,,56,62
24960,note_on,240,0,3,,,,,,,,,2,,,56,0
24960,note_on,240,0,2,,,,,,,,,1,,,77,0
24960,note_on,0,0,3,,,,,,,,,2,,,51,62
24960,note_on,0,0,2,,,,,,,,,1,,,61,62
25200,note_on,240,0,2,,,,,,,,,1,,,61,0
25200,control_change,0,0,3,,,,,,,,,2,64,0,,
25200,note_on,0,0,3,,,,,,,,,2,,,44,62
25200,note_on,240,0,3,,,,,,,,,2,,,51,0
25200,note_on,0,0,2,,,,,,,,,1,,,63,62
25440,note_on,240,0,2,,,,,,,,,1,,,63,0
25440,note_on,720,0,1,,,,,,,,,0,,,72,101
25440,note_on,0,0,2,,,,,,,,,1,,,72,62
25440,note_on,0,0,3,,,,,,,,,2,,,61,62
25440,note_on,240,0,3,,,,,,,,,2,,,44,0
25680,note_on,240,0,2,,,,,,,,,1,,,72,0
25680,note_on,0,0,3,,,,,,,,,2,,,55,62
25680,note_on,0,0,2,,,,,,,,,1,,,63,62
25680,note_on,240,0,3,,,,,,,,,2,,,61,0
25800,note_on,0,0,1,,,,,,,,,0,,,70,75
25800,note_on,360,0,1,,,,,,,,,0,,,72,0
25920,note_on,0,0,3,,,,,,,,,2,,,51,62
25920,note_on,240,0,3,,,,,,,,,2,,,55,0
25920,note_on,0,0,2,,,,,,,,,1,,,70,62
25920,note_on,0,0,1,,,,,,,,,0,,,70,75
25920,note_on,240,0,2,,,,,,,,,1,,,63,0
25920,set_tempo,1920,1,0,,,,,,600000,,,,,,,
25920,note_on,120,0,1,,,,,,,,,0,,,70,0
26160,note_on,0,0,2,,,,,,,,,1,,,60,62
26160,note_on,0,0,3,,,,,,,,,2,,,44,62
26160,note_on,240,0,2,,,,,,,,,1,,,70,0
26160,note_on,240,0,3,,,,,,,,,2,,,51,0
26400,note_on,0,0,1,,,,,,,,,0,,,68,75
26400,note_on,240,0,2,,,,,,,,,1,,,60,0
26400,note_on,240,0,3,,,,,,,,,2,,,44,0
26400,note_on,0,0,2,,,,,,,,,1,,,63,62
26400,note_on,0,0,3,,,,,,,,,2,,,60,62
26400,note_on,480,0,1,,,,,,,,,0,,,70,0
26640,note_on,0,0,3,,,,,,,,,2,,,56,62
26640,note_on,0,0,2,,,,,,,,,1,,,75,62
26640,note_on,240,0,1,,,,,,,,,0,,,68,0
26640,note_on,240,0,2,,,,,,,,,1,,,63,0
26640,note_on,240,0,3,,,,,,,,,2,,,60,0
26880,control_change,0,0,3,,,,,,,,,2,64,127,,
26880,note_on,240,0,3,,,,,,,,,2,,,56,0
26880,note_on,0,0,3,,,,,,,,,2,,,41,62
26880,note_on,0,0,2,,,,,,,,,1,,,56,62
26880,note_on,240,0,2,,,,,,,,,1,,,75,0
27120,note_on,0,0,2,,,,,,,,,1,,,59,62
27120,note_on,240,0,3,,,,,,,,,2,,,41,0
27120,note_on,240,0,2,,,,,,,,,1,,,56,0
27120,note_on,0,0,3,,,,,,,,,2,,,50,62
27300,note_on,660,0,1,,,,,,,,,0,,,59,75
27360,note_on,240,0,3,,,,,,,,,2,,,50,0
27360,note_on,240,0,2,,,,,,,,,1,,,59,0
27360,note_on,60,0,1,,,,,,,,,0,,,67,75
27360,note_on,0,0,3,,,,,,,,,2,,,38,62
27600,note_on,240,0,2,,,,,,,,,1,,,56,62
27600,note_on,240,0,3,,,,,,,,,2,,,38,0
27600,control_change,0,0,3,,,,,,,,,2,64,0,,
27600,note_on,0,0,3,,,,,,,,,2,,,47,62
27720,note_on,360,0,1,,,,,,,,,0,,,67,0
27720,note_on,0,0,1,,,,,,,,,0,,,59,0
27720,note_on,0,0,1,,,,,,,,,0,,,65,75
27840,note_on,240,0,3,,,,,,,,,2,,,47,0
27840,note_on,0,0,1,,,,,,,,,0,,,65,75
27840,control_change,0,0,3,,,,,,,,,2,64,127,,
27840,note_on,240,0,2,,,,,,,,,1,,,56,0
27840,note_on,0,0,3,,,,,,,,,2,,,39,62
27840,note_on,120,0,1,,,,,,,,,0,,,65,0
27840,note_on,0,0,2,,,,,,,,,1,,,61,62
28080,note_on,240,0,2,,,,,,,,,1,,,61,0
28080,note_on,240,0,3,,,,,,,,,2,,,39,0
28080,note_on,0,0,2,,,,,,,,,1,,,55,62
28080,note_on,0,0,3,,,,,,,,,2,,,46,62
28320,note_on,0,0,3,,,,,,,,,2,,,51,62
28320,note_on,0,0,2,,,,,,,,,1,,,61,62
28320,note_on,240,0,2,,,,,,,,,1,,,55,0
28320,note_on,240,0,3,,,,,,,,,2,,,46,0
28560,note_on,0,0,1,,,,,,,,,0,,,63,75
28560,control_change,0,0,3,,,,,,,,,2,64,0,,
28560,note_on,240,0,2,,,,,,,,,1,,,61,0
28560,note_on,0,0,3,,,,,,,,,2,,,46,62
28560,note_on,720,0,1,,,,,,,,,0,,,65,0
28560,note_on,0,0,2,,,,,,,,,1,,,63,62
28560,note_on,240,0,3,,,,,,,,,2,,,51,0
28740,note_on,180,0,1,,,,,,,,,0,,,63,101
28800,note_on,60,0,1,,,,,,,,,0,,,63,0
28800,note_on,0,0,1,,,,,,,,,0,,,72,101
28800,note_on,240,0,2,,,,,,,,,1,,,63,0
28800,note_on,0,0,3,,,,,,,,,2,,,39,62
28800,control_change,0,0,3,,,,,,,,,2,64,127,,
28800,note_on,240,0,3,,,,,,,,,2,,,46,0
29040,note_on,240,0,3,,,,,,,,,2,,,39,0
29040,note_on,240,0,2,,,,,,,,,1,,,61,62
29040,note_on,0,0,3,,,,,,,,,2,,,51,62
29280,note_on,0,0,2,,,,,,,,,1,,,63,62
29280,note_on,240,0,3,,,,,,,,,2,,,51,0
29280,note_on,240,0,2,,,,,,,,,1,,,61,0
29280,note_on,0,0,3,,,,,,,,,2,,,55,62
29520,note_on,0,0,1,,,,,,,,,0,,,70,75
29520,note_on,0,0,1,,,,,,,,,0,,,63,0
29520,control_change,0,0,3,,,,,,,,,2,64,0,,
29520,note_on,240,0,2,,,,,,,,,1,,,63,0
29520,note_on,0,0,3,,,,,,,,,2,,,51,62
29520,note_on,240,0,3,,,,,,,,,2,,,55,0
29520,note_on,0,0,2,,,,,,,,,1,,,70,62
29520,note_on,720,0,1,,,,,,,,,0,,,72,0
29760,note_on,0,0,1,,,,,,,,,0,,,68,75
29760,note_on,240,0,1,,,,,,,,,0,,,70,0
29760,note_on,0,0,2,,,,,,,,,1,,,68,62
29760,note_on,240,0,3,,,,,,,,,2,,,51,0
29760,control_change,0,0,2,,,,,,,,,1,64,127,,
29760,note_on,240,0,2,,,,,,,,,1,,,70,0
30000,note_on,0,0,3,,,,,,,,,2,,,51,62
30000,note_on,0,0,2,,,,,,,,,1,,,63,62
30000,control_change,240,0,3,,,,,,,,,2,64,127,,
30000,note_on,240,0,2,,,,,,,,,1,,,68,0
30240,note_on,0,0,3,,,,,,,,,2,,,44,62
30240,note_on,480,0,1,,,,,,,,,0,,,68,0
30240,note_on,240,0,2,,,,,,,,,1,,,63,0
30240,note_on,240,0,3,,,,,,,,,2,,,51,0
30240,note_on,0,0,2,,,,,,,,,1,,,60,62
30480,note_on,0,0,2,,,,,,,,,1,,,63,62
30480,note_on,240,0,2,,,,,,,,,1,,,60,0
30480,note_on,0,0,3,,,,,,,,,2,,,51,62
30480,note_on,240,0,3,,,,,,,,,2,,,44,0
30720,note_on,240,0,2,,,,,,,,,1,,,63,0
30720,note_on,480,0,1,,,,,,,,,0,,,68,75
30720,note_on,0,0,2,,,,,,,,,1,,,60,62
30720,note_on,0,0,3,,,,,,,,,2,,,56,62
30720,note_on,240,0,3,,,,,,,,,2,,,51,0
30960,note_on,0,0,2,,,,,,,,,1,,,63,62
30960,note_on,0,0,3,,,,,,,,,2,,,51,62
30960,control_change,0,0,3,,,,,,,,,2,64,0,,
30960,control_change,0,0,2,,,,,,,,,1,64,0,,
30960,note_on,240,0,3,,,,,,,,,2,,,56,0
30960,note_on,240,0,2,,,,,,,,,1,,,60,0
31140,note_on,420,0,1,,,,,,,,,0,,,56,101
31200,note_on,240,0,3,,,,,,,,,2,,,51,0
31200,note_on,0,0,1,,,,,,,,,0,,,61,101
31200,note_on,60,0,1,,,,,,,,,0,,,68,0
31200,note_on,240,0,2,,,,,,,,,1,,,63,0
31440,note_on,240,0,3,,,,,,,,,2,,,51,62
31560,note_on,360,0,1,,,,,,,,,0,,,61,0
31560,note_on,0,0,1,,,,,,,,,0,,,56,0
31560,note_on,0,0,1,,,,,,,,,0,,,60,75
31680,note_on,240,0,3,,,,,,,,,2,,,51,0
31680,note_on,0,0,1,,,,,,,,,0,,,60,75
31680,note_on,120,0,1,,,,,,,,,0,,,60,0
31920,control_change,240,0,3,,,,,,,,,2,64,127,,
31920,note_on,0,0,3,,,,,,,,,2,,,44,62
32080,note_on,400,0,1,,,,,,,,,0,,,50,75
32120,note_on,40,0,1,,,,,,,,,0,,,53,75
32160,note_on,40,0,1,,,,,,,,,0,,,60,0
32160,note_on,240,0,3,,,,,,,,,2,,,44,0
32160,note_on,0,0,1,,,,,,,,,0,,,59,75
32400,note_on,240,0,3,,,,,,,,,2,,,65,62
32640,note_on,480,0,1,,,,,,,,,0,,,59,0
32640,note_on,0,0,3,,,,,,,,,2,,,58,62
32640,note_on,0,0,1,,,,,,,,,0,,,50,0
32640,note_on,240,0,3,,,,,,,,,2,,,65,0
32640,note_on,0,0,1,,,,,,,,,0,,,53,0
32880,note_on,240,0,3,,,,,,,,,2,,,58,0
32880,control_change,0,0,3,,,,,,,,,2,64,0,,
32880,note_on,0,0,3,,,,,,,,,2,,,53,62
33040,note_on,400,0,1,,,,,,,,,0,,,49,101
33080,note_on,40,0,1,,,,,,,,,0,,,55,101
33120,note_on,40,0,1,,,,,,,,,0,,,60,101
33120,note_on,240,0,3,,,,,,,,,2,,,53,0
33360,note_on,240,0,3,,,,,,,,,2,,,51,62
33480,note_on,0,0,1,,,,,,,,,0,,,49,0
33480,note_on,360,0,1,,,,,,,,,0,,,60,0
33480,note_on,0,0,1,,,,,,,,,0,,,58,75
33480,note_on,0,0,1,,,,,,,,,0,,,55,0
33600,note_on,120,0,1,,,,,,,,,0,,,58,0
33600,note_on,0,0,1,,,,,,,,,0,,,58,75
33600,note_on,240,0,3,,,,,,,,,2,,,51,0
33840,control_change,240,0,3,,,,,,,,,2,64,127,,
33840,note_on,0,0,3,,,,,,,,,2,,,44,62
34000,note_on,400,0,1,,,,,,,,,0,,,48,75
34040,note_on,40,0,1,,,,,,,,,0,,,51,75
34080,note_on,0,0,1,,,,,,,,,0,,,56,75
34080,note_on,40,0,1,,,,,,,,,0,,,58,0
34080,note_on,240,0,3,,,,,,,,,2,,,44,0
34320,note_on,240,0,3,,,,,,,,,2,,,63,62
34560,note_on,480,0,1,,,,,,,,,0,,,56,0
34560,note_on,0,0,3,,,,,,,,,2,,,56,62
34560,note_on,240,0,3,,,,,,,,,2,,,63,0
34560,note_on,0,0,1,,,,,,,,,0,,,48,0
34560,note_on,0,0,1,,,,,,,,,0,,,51,0
34800,note_on,0,0,3,,,,,,,,,2,,,51,62
34800,control_change,0,0,3,,,,,,,,,2,64,0,,
34800,note_on,240,0,3,,,,,,,,,2,,,56,0
35040,note_on,0,0,3,,,,,,,,,2,,,50,62
35040,note_on,0,0,3,,,,,,,,,2,,,47,62
35040,note_on,480,0,1,,,,,,,,,0,,,55,101
35040,note_on,240,0,3,,,,,,,,,2,,,51,0
35280,note_on,0,0,3,,,,,,,,,2,,,47,0
35280,note_on,0,0,3,,,,,,,,,2,,,44,62
35280,note_on,240,0,3,,,,,,,,,2,,,50,0
35400,note_on,0,0,1,,,,,,,,,0,,,53,75
35400,note_on,360,0,1,,,,,,,,,0,,,55,0
35520,note_on,0,0,1,,,,,,,,,0,,,53,101
35520,note_on,240,0,3,,,,,,,,,2,,,44,0
35520,note_on,120,0,1,,,,,,,,,0,,,53,0
35760,note_on,240,0,3,,,,,,,,,2,,,43,62
36000,note_on,240,0,3,,,,,,,,,2,,,43,0
36000,note_on,0,0,3,,,,,,,,,2,,,48,62
36000,note_on,480,0,1,,,,,,,,,0,,,53,0
36000,note_on,0,0,1,,,,,,,,,0,,,51,75
36240,note_on,240,0,1,,,,,,,,,0,,,51,0
36240,note_on,240,0,3,,,,,,,,,2,,,48,0
36240,note_on,0,0,3,,,,,,,,,2,,,43,62
36480,note_on,240,0,1,,,,,,,,,0,,,56,101
36480,note_on,240,0,3,,,,,,,,,2,,,43,0
36720,note_on,240,0,3,,,,,,,,,2,,,43,62
36960,note_on,0,0,3,,,,,,,,,2,,,47,62
36960,note_on,0,0,3,,,,,,,,,2,,,53,62
36960,note_on,240,0,3,,,,,,,,,2,,,43,0
37140,note_on,660,0,1,,,,,,,,,0,,,43,75
37200,note_on,0,0,3,,,,,,,,,2,,,47,0
37200,note_on,240,0,3,,,,,,,,,2,,,53,0
37200,note_on,0,0,1,,,,,,,,,0,,,55,75
37200,note_on,60,0,1,,,,,,,,,0,,,56,0
37440,note_on,240,0,1,,,,,,,,,0,,,55,0
37440,note_on,0,0,1,,,,,,,,,0,,,55,101
37440,note_on,0,0,1,,,,,,,,,0,,,43,0
37680,control_change,480,0,3,,,,,,,,,2,64,127,,
37680,note_on,0,0,3,,,,,,,,,2,,,36,62
37920,note_on,0,0,3,,,,,,,,,2,,,43,62
37920,note_on,240,0,3,,,,,,,,,2,,,36,0
38160,note_on,240,0,3,,,,,,,,,2,,,43,0
38160,note_on,0,0,1,,,,,,,,,0,,,44,75
38160,note_on,0,0,3,,,,,,,,,2,,,48,62
38160,note_on,720,0,1,,,,,,,,,0,,,55,0
38400,note_on,240,0,3,,,,,,,,,2,,,48,0
38400,note_on,0,0,3,,,,,,,,,2,,,51,62
38640,note_on,0,0,3,,,,,,,,,2,,,55,62
38640,note_on,240,0,3,,,,,,,,,2,,,51,0
38640,control_change,0,0,3,,,,,,,,,2,64,0,,
38640,note_on,480,0,1,,,,,,,,,0,,,44,0
38880,note_on,7680,0,2,,,,,,,,,1,,,63,62
38880,note_on,240,0,1,,,,,,,,,0,,,75,101
38880,note_on,0,0,3,,,,,,,,,2,,,48,62
38880,note_on,0,0,3,,,,,,,,,2,,,55,62
38880,note_on,240,0,3,,,,,,,,,2,,,55,0
39120,note_on,240,0,2,,,,,,,,,1,,,63,0
39120,note_on,240,0,3,,,,,,,,,2,,,55,0
39120,note_on,0,0,3,,,,,,,,,2,,,60,62
39120,note_on,0,0,2,,,,,,,,,1,,,67,62
39120,note_on,0,0,3,,,,,,,,,2,,,48,0
39240,note_on,0,0,1,,,,,,,,,0,,,73,75
39240,note_on,360,0,1,,,,,,,,,0,,,75,0
39360,note_on,240,0,2,,,,,,,,,1,,,67,0
39360,note_on,240,0,3,,,,,,,,,2,,,60,0
39360,note_on,0,0,1,,,,,,,,,0,,,73,75
39360,note_on,120,0,1,,,,,,,,,0,,,73,0
39600,control_change,240,0,3,,,,,,,,,2,64,127,,
39600,note_on,240,0,2,,,,,,,,,1,,,65,62
39600,note_on,0,0,3,,,,,,,,,2,,,56,62
39780,note_on,420,0,1,,,,,,,,,0,,,68,75
39840,note_on,240,0,2,,,,,,,,,1,,,65,0
39840,note_on,0,0,1,,,,,,,,,0,,,80,75
39840,note_on,240,0,3,,,,,,,,,2,,,56,0
39840,note_on,60,0,1,,,,,,,,,0,,,73,0
39840,note_on,0,0,3,,,,,,,,,2,,,65,62
40080,note_on,0,0,3,,,,,,,,,2,,,61,62
40080,note_on,240,0,2,,,,,,,,,1,,,73,62
40080,note_on,240,0,3,,,,,,,,,2,,,65,0
40320,note_on,480,0,1,,,,,,,,,0,,,80,0
40320,note_on,0,0,1,,,,,,,,,0,,,68,0
40320,note_on,240,0,2,,,,,,,,,1,,,73,0
40320,note_on,240,0,3,,,,,,,,,2,,,61,0
40440,control_change,120,0,1,,,,,,,,,0,64,127,,
40440,note_on,0,0,1,,,,,,,,,0,,,79,75
40487,note_on,47,0,1,,,,,,,,,0,,,79,0
40560,note_on,0,0,3,,,,,,,,,2,,,61,62
40560,note_on,240,0,3,,,,,,,,,2,,,56,62
40680,note_on,193,0,1,,,,,,,,,0,,,77,75
40727,note_on,47,0,1,,,,,,,,,0,,,77,0
40800,note_on,0,0,3,,,,,,,,,2,,,56,0
40800,note_on,0,0,3,,,,,,,,,2,,,68,62
40800,note_on,0,0,3,,,,,,,,,2,,,65,62
40800,note_on,240,0,3,,,,,,,,,2,,,61,0
40920,note_on,193,0,1,,,,,,,,,0,,,75,75
40967,note_on,47,0,1,,,,,,,,,0,,,75,0
41040,control_change,0,0,3,,,,,,,,,2,64,0,,
41040,note_on,240,0,3,,,,,,,,,2,,,68,0
41040,note_on,0,0,3,,,,,,,,,2,,,56,62
41040,note_on,0,0,3,,,,,,,,,2,,,65,0
41040,note_on,0,0,3,,,,,,,,,2,,,65,62
41160,control_change,193,0,1,,,,,,,,,0,64,0,,
41160,note_on,0,0,1,,,,,,,,,0,,,71,75
41183,note_on,23,0,1,,,,,,,,,0,,,71,0
41280,note_on,97,0,1,,,,,,,,,0,,,71,75
41280,note_on,240,0,3,,,,,,,,,2,,,65,0
41280,note_on,0,0,3,,,,,,,,,2,,,56,0
41520,note_on,1200,0,2,,,,,,,,,1,,,63,62
41520,control_change,240,0,3,,,,,,,,,2,64,127,,
41520,note_on,0,0,3,,,,,,,,,2,,,36,62
41520,note_on,0,0,2,,,,,,,,,1,,,67,62
41760,note_on,0,0,1,,,,,,,,,0,,,72,101
41760,note_on,240,0,3,,,,,,,,,2,,,36,0
41760,note_on,0,0,3,,,,,,,,,2,,,43,62
41760,note_on,480,0,1,,,,,,,,,0,,,71,0
42000,note_on,0,0,2,,,,,,,,,1,,,63,62
42000,note_on,0,0,2,,,,,,,,,1,,,63,0
42000,note_on,0,0,2,,,,,,,,,1,,,60,62
42000,note_on,240,0,3,,,,,,,,,2,,,43,0
42000,note_on,480,0,2,,,,,,,,,1,,,67,0
42000,note_on,0,0,3,,,,,,,,,2,,,48,62
42240,note_on,480,0,1,,,,,,,,,0,,,72,0
42240,note_on,0,0,2,,,,,,,,,1,,,60,0
42240,note_on,0,0,3,,,,,,,,,2,,,51,62
42240,note_on,240,0,2,,,,,,,,,1,,,63,0
42240,note_on,240,0,3,,,,,,,,,2,,,48,0
42480,control_change,0,0,3,,,,,,,,,2,64,0,,
42480,note_on,240,0,3,,,,,,,,,2,,,51,0
42480,note_on,0,0,3,,,,,,,,,2,,,55,62
42640,note_on,400,0,1,,,,,,,,,0,,,48,101
42680,note_on,40,0,1,,,,,,,,,0,,,55,101
42720,note_on,240,0,3,,,,,,,,,2,,,55,0
42720,note_on,40,0,1,,,,,,,,,0,,,63,101
42960,note_on,240,0,3,,,,,,,,,2,,,51,62
43080,note_on,360,0,1,,,,,,,,,0,,,63,0
43080,note_on,0,0,1,,,,,,,,,0,,,48,0
43080,note_on,0,0,1,,,,,,,,,0,,,55,0
43080,note_on,0,0,1,,,,,,,,,0,,,61,75
43200,note_on,240,0,3,,,,,,,,,2,,,51,0
43200,note_on,0,0,1,,,,,,,,,0,,,61,75
43200,note_on,120,0,1,,,,,,,,,0,,,61,0
43440,note_on,240,0,3,,,,,,,,,2,,,47,62
43680,note_on,0,0,3,,,,,,,,,2,,,53,62
43680,note_on,0,0,3,,,,,,,,,2,,,56,62
43680,note_on,240,0,3,,,,,,,,,2,,,47,0
43680,note_on,0,0,1,,,,,,,,,0,,,68,75
43680,note_on,480,0,1,,,,,,,,,0,,,61,0
43920,note_on,0,0,3,,,,,,,,,2,,,61,62
43920,note_on,240,0,3,,,,,,,,,2,,,56,0
43920,note_on,0,0,3,,,,,,,,,2,,,53,0
44160,note_on,480,0,1,,,,,,,,,0,,,68,0
44160,note_on,0,0,3,,,,,,,,,2,,,46,62
44160,note_on,240,0,3,,,,,,,,,2,,,61,0
44160,control_change,0,0,3,,,,,,,,,2,64,127,,
44280,control_change,120,0,1,,,,,,,,,0,64,127,,
44280,note_on,0,0,1,,,,,,,,,0,,,67,75
44327,note_on,47,0,1,,,,,,,,,0,,,67,0
44400,note_on,0,0,3,,,,,,,,,2,,,53,62
44400,note_on,240,0,3,,,,,,,,,2,,,46,0
44400,note_on,0,0,3,,,,,,,,,2,,,56,62
44520,note_on,193,0,1,,,,,,,,,0,,,65,75
44567,note_on,47,0,1,,,,,,,,,0,,,65,0
44640,note_on,0,0,3,,,,,,,,,2,,,58,62
44640,note_on,240,0,3,,,,,,,,,2,,,56,0
44640,note_on,0,0,3,,,,,,,,,2,,,53,0
44760,note_on,193,0,1,,,,,,,,,0,,,61,75
44807,note_on,47,0,1,,,,,,,,,0,,,61,0
44880,control_change,0,0,3,,,,,,,,,2,64,0,,
44880,note_on,0,0,3,,,,,,,,,2,,,53,62
44880,note_on,240,0,3,,,,,,,,,2,,,58,0
44880,note_on,0,0,3,,,,,,,,,2,,,56,62
45000,note_on,0,0,1,,,,,,,,,0,,,62,75
45000,control_change,193,0,1,,,,,,,,,0,64,0,,
45023,note_on,23,0,1,,,,,,,,,0,,,62,0
45120,note_on,240,0,3,,,,,,,,,2,,,56,0
45120,note_on,97,0,1,,,,,,,,,0,,,62,75
45120,note_on,0,0,3,,,,,,,,,2,,,53,0
45360,note_on,0,0,3,,,,,,,,,2,,,39,62
45360,control_change,240,0,3,,,,,,,,,2,64,127,,
45360,note_on,3120,0,2,,,,,,,,,1,,,58,62
45600,note_on,0,0,3,,,,,,,,,2,,,46,62
45600,note_on,480,0,1,,,,,,,,,0,,,62,0
45600,note_on,240,0,3,,,,,,,,,2,,,39,0
45600,note_on,0,0,1,,,,,,,,,0,,,63,75
45600,note_on,240,0,2,,,,,,,,,1,,,58,0
45600,note_on,0,0,2,,,,,,,,,1,,,55,62
45840,note_on,0,0,2,,,,,,,,,1,,,58,62
45840,note_on,240,0,3,,,,,,,,,2,,,46,0
45840,note_on,240,0,2,,,,,,,,,1,,,55,0
45840,note_on,0,0,3,,,,,,,,,2,,,51,62
46080,note_on,240,0,2,,,,,,,,,1,,,58,0
46080,note_on,240,0,3,,,,,,,,,2,,,51,0
46080,note_on,480,0,1,,,,,,,,,0,,,63,0
46080,note_on,0,0,3,,,,,,,,,2,,,55,62
46320,control_change,0,0,3,,,,,,,,,2,64,0,,
46320,note_on,240,0,3,,,,,,,,,2,,,55,0
46320,note_on,0,0,3,,,,,,,,,2,,,58,62
46500,note_on,180,0,3,,,,,,,,,2,,,51,62
46500,note_on,420,0,1,,,,,,,,,0,,,67,101
46560,note_on,0,0,3,,,,,,,,,2,,,58,62
46560,note_on,60,0,1,,,,,,,,,0,,,78,101
46560,note_on,60,0,3,,,,,,,,,2,,,58,0
46560,control_change,0,0,3,,,,,,,,,2,64,127,,
46800,note_on,0,0,3,,,,,,,,,2,,,51,0
46800,note_on,720,0,2,,,,,,,,,1,,,70,62
46800,note_on,0,0,3,,,,,,,,,2,,,63,62
46800,note_on,240,0,3,,,,,,,,,2,,,58,0
46920,note_on,360,0,1,,,,,,,,,0,,,78,0
46920,note_on,0,0,1,,,,,,,,,0,,,76,75
46920,note_on,0,0,1,,,,,,,,,0,,,67,0
47040,note_on,240,0,2,,,,,,,,,1,,,70,0
47040,control_change,0,0,3,,,,,,,,,2,64,0,,
47040,note_on,0,0,1,,,,,,,,,0,,,76,75
47040,note_on,240,0,3,,,,,,,,,2,,,63,0
47040,note_on,120,0,1,,,,,,,,,0,,,76,0
47280,note_on,0,0,3,,,,,,,,,2,,,59,62
47280,control_change,240,0,3,,,,,,,,,2,64,127,,
47280,note_on,240,0,2,,,,,,,,,1,,,68,62
47460,note_on,420,0,1,,,,,,,,,0,,,71,75
47520,note_on,240,0,3,,,,,,,,,2,,,59,0
47520,note_on,240,0,2,,,,,,,,,1,,,68,0
47520,note_on,0,0,3,,,,,,,,,2,,,68,62
47520,note_on,0,0,1,,,,,,,,,0,,,83,75
47520,note_on,60,0,1,,,,,,,,,0,,,76,0
47760,note_on,0,0,3,,,,,,,,,2,,,64,62
47760,note_on,240,0,3,,,,,,,,,2,,,68,0
47760,note_on,240,0,2,,,,,,,,,1,,,76,62
48000,note_on,240,0,3,,,,,,,,,2,,,64,0
48000,note_on,0,0,1,,,,,,,,,0,,,71,0
48000,note_on,240,0,2,,,,,,,,,1,,,76,0
48000,note_on,480,0,1,,,,,,,,,0,,,83,0
48120,note_on,0,0,1,,,,,,,,,0,,,82,75
48120,control_change,120,0,1,,,,,,,,,0,64,127,,
48167,note_on,47,0,1,,,,,,,,,0,,,82,0
48240,note_on,240,0,3,,,,,,,,,2,,,59,62
48240,note_on,0,0,3,,,,,,,,,2,,,64,62
48360,note_on,193,0,1,,,,,,,,,0,,,80,75
48407,note_on,47,0,1,,,,,,,,,0,,,80,0
48480,note_on,240,0,3,,,,,,,,,2,,,64,0
48480,note_on,0,0,3,,,,,,,,,2,,,59,0
48480,note_on,0,0,3,,,,,,,,,2,,,71,62
48480,note_on,0,0,3,,,,,,,,,2,,,68,62
48600,note_on,193,0,1,,,,,,,,,0,,,78,75
48647,note_on,47,0,1,,,,,,,,,0,,,78,0
48720,note_on,240,0,3,,,,,,,,,2,,,71,0
48720,note_on,0,0,3,,,,,,,,,2,,,59,62
48720,control_change,0,0,3,,,,,,,,,2,64,0,,
48720,note_on,0,0,3,,,,,,,,,2,,,68,0
48720,note_on,0,0,3,,,,,,,,,2,,,68,62
48840,note_on,0,0,1,,,,,,,,,0,,,74,75
48840,control_change,193,0,1,,,,,,,,,0,64,0,,
48863,note_on,23,0,1,,,,,,,,,0,,,74,0
48960,note_on,0,0,3,,,,,,,,,2,,,59,0
48960,note_on,240,0,3,,,,,,,,,2,,,68,0
48960,note_on,97,0,1,,,,,,,,,0,,,74,75
49200,note_on,0,0,2,,,,,,,,,1,,,70,62
49200,note_on,0,0,3,,,,,,,,,2,,,39,62
49200,control_change,240,0,3,,,,,,,,,2,64,127,,
49200,note_on,1200,0,2,,,,,,,,,1,,,67,62
49440,note_on,0,0,1,,,,,,,,,0,,,75,75
49440,note_on,240,0,3,,,,,,,,,2,,,39,0
49440,note_on,0,0,3,,,,,,,,,2,,,46,62
49440,note_on,480,0,1,,,,,,,,,0,,,74,0
49680,note_on,0,0,3,,,,,,,,,2,,,51,62
49680,note_on,480,0,2,,,,,,,,,1,,,70,0
49680,note_on,240,0,3,,,,,,,,,2,,,46,0
49680,note_on,0,0,2,,,,,,,,,1,,,67,62
49680,note_on,0,0,2,,,,,,,,,1,,,63,62
49680,note_on,0,0,2,,,,,,,,,1,,,67,0
49920,note_on,0,0,2,,,,,,,,,1,,,63,0
49920,note_on,240,0,3,,,,,,,,,2,,,51,0
49920,note_on,240,0,2,,,,,,,,,1,,,67,0
49920,note_on,480,0,1,,,,,,,,,0,,,75,0
49920,note_on,0,0,3,,,,,,,,,2,,,55,62
50160,control_change,0,0,3,,,,,,,,,2,64,0,,
50160,note_on,0,0,3,,,,,,,,,2,,,58,62
50160,note_on,240,0,3,,,,,,,,,2,,,55,0
50320,note_on,400,0,1,,,,,,,,,0,,,51,101
50360,note_on,40,0,1,,,,,,,,,0,,,58,101
50400,note_on,240,0,3,,,,,,,,,2,,,58,0
50400,note_on,40,0,1,,,,,,,,,0,,,66,101
50640,note_on,240,0,3,,,,,,,,,2,,,55,62
50760,note_on,0,0,1,,,,,,,,,0,,,51,0
50760,note_on,0,0,1,,,,,,,,,0,,,58,0
50760,note_on,0,0,1,,,,,,,,,0,,,64,75
50760,note_on,360,0,1,,,,,,,,,0,,,66,0
50880,note_on,0,0,1,,,,,,,,,0,,,64,75
50880,note_on,120,0,1,,,,,,,,,0,,,64,0
50880,note_on,240,0,3,,,,,,,,,2,,,55,0
51120,note_on,0,0,3,,,,,,,,,2,,,50,62
51120,control_change,240,0,3,,,,,,,,,2,64,127,,
51360,note_on,0,0,3,,,,,,,,,2,,,59,62
51360,note_on,0,0,3,,,,,,,,,2,,,56,62
51360,note_on,480,0,1,,,,,,,,,0,,,64,0
51360,note_on,240,0,3,,,,,,,,,2,,,50,0
51360,note_on,0,0,1,,,,,,,,,0,,,71,75
51600,note_on,0,0,3,,,,,,,,,2,,,56,0
51600,note_on,240,0,3,,,,,,,,,2,,,59,0
51600,note_on,0,0,3,,,,,,,,,2,,,64,62
51840,note_on,480,0,1,,,,,,,,,0,,,71,0
51840,note_on,0,0,3,,,,,,,,,2,,,50,62
51840,note_on,240,0,3,,,,,,,,,2,,,64,0
51960,control_change,120,0,1,,,,,,,,,0,64,127,,
51960,note_on,0,0,1,,,,,,,,,0,,,69,75
52007,note_on,47,0,1,,,,,,,,,0,,,69,0
52080,note_on,0,0,3,,,,,,,,,2,,,64,62
52080,note_on,240,0,3,,,,,,,,,2,,,50,0
52200,note_on,193,0,1,,,,,,,,,0,,,68,75
52247,note_on,47,0,1,,,,,,,,,0,,,68,0
52320,note_on,240,0,3,,,,,,,,,2,,,64,0
52320,note_on,0,0,3,,,,,,,,,2,,,59,62
52320,note_on,0,0,3,,,,,,,,,2,,,56,62
52440,note_on,193,0,1,,,,,,,,,0,,,66,75
52487,note_on,47,0,1,,,,,,,,,0,,,66,0
52560,note_on,240,0,3,,,,,,,,,2,,,59,0
52560,note_on,0,0,3,,,,,,,,,2,,,56,0
52560,control_change,0,0,3,,,,,,,,,2,64,0,,
52560,note_on,0,0,3,,,,,,,,,2,,,50,62
52680,note_on,0,0,1,,,,,,,,,0,,,64,75
52680,control_change,193,0,1,,,,,,,,,0,64,0,,
52703,note_on,23,0,1,,,,,,,,,0,,,64,0
52800,note_on,240,0,3,,,,,,,,,2,,,50,0
52800,note_on,97,0,1,,,,,,,,,0,,,64,75
53040,control_change,240,0,3,,,,,,,,,2,64,127,,
53040,note_on,0,0,3,,,,,,,,,2,,,49,62
53280,note_on,240,0,3,,,,,,,,,2,,,49,0
53280,note_on,480,0,1,,,,,,,,,0,,,64,0
53280,note_on,0,0,1,,,,,,,,,0,,,73,75
53280,note_on,0,0,3,,,,,,,,,2,,,61,62
53280,note_on,0,0,3,,,,,,,,,2,,,57,62
53520,note_on,0,0,3,,,,,,,,,2,,,57,0
53520,note_on,240,0,3,,,,,,,,,2,,,61,0
53520,note_on,0,0,3,,,,,,,,,2,,,64,62
53760,note_on,0,0,3,,,,,,,,,2,,,49,62
53760,note_on,240,0,3,,,,,,,,,2,,,64,0
53760,note_on,480,0,1,,,,,,,,,0,,,73,0
53880,note_on,0,0,1,,,,,,,,,0,,,71,75
53880,control_change,120,0,1,,,,,,,,,0,64,127,,
53927,note_on,47,0,1,,,,,,,,,0,,,71,0
54000,note_on,240,0,3,,,,,,,,,2,,,49,0
54000,note_on,0,0,3,,,,,,,,,2,,,64,62
54120,note_on,193,0,1,,,,,,,,,0,,,69,75
54167,note_on,47,0,1,,,,,,,,,0,,,69,0
54240,note_on,0,0,3,,,,,,,,,2,,,61,62
54240,note_on,0,0,3,,,,,,,,,2,,,57,62
54240,note_on,240,0,3,,,,,,,,,2,,,64,0
54360,note_on,193,0,1,,,,,,,,,0,,,68,75
54407,note_on,47,0,1,,,,,,,,,0,,,68,0
54480,control_change,0,0,3,,,,,,,,,2,64,0,,
54480,note_on,240,0,3,,,,,,,,,2,,,61,0
54480,note_on,0,0,3,,,,,,,,,2,,,57,0
54480,note_on,0,0,3,,,,,,,,,2,,,49,62
54600,note_on,0,0,1,,,,,,,,,0,,,66,75
54600,control_change,193,0,1,,,,,,,,,0,64,0,,
54623,note_on,23,0,1,,,,,,,,,0,,,66,0
54720,note_on,97,0,1,,,,,,,,,0,,,66,75
54720,note_on,240,0,3,,,,,,,,,2,,,49,0
54960,note_on,0,0,3,,,,,,,,,2,,,47,62
54960,control_change,240,0,3,,,,,,,,,2,64,127,,
54960,note_on,0,0,1,,,,,,,,,0,,,64,75
54960,note_on,240,0,1,,,,,,,,,0,,,66,0
55200,control_change,0,0,1,,,,,,,,,0,64,127,,
55200,note_on,240,0,3,,,,,,,,,2,,,47,0
55200,note_on,0,0,3,,,,,,,,,2,,,62,62
55200,note_on,0,0,1,,,,,,,,,0,,,74,101
55200,note_on,240,0,1,,,,,,,,,0,,,64,0
55200,note_on,0,0,3,,,,,,,,,2,,,56,62
55440,note_on,0,0,3,,,,,,,,,2,,,56,0
55440,note_on,240,0,3,,,,,,,,,2,,,62,0
55440,note_on,0,0,3,,,,,,,,,2,,,64,62
55680,note_on,240,0,3,,,,,,,,,2,,,64,0
56240,note_on,1040,0,1,,,,,,,,,0,,,74,0
56240,note_on,0,0,1,,,,,,,,,0,,,70,75
56319,note_on,79,0,1,,,,,,,,,0,,,70,0
56319,note_on,0,0,1,,,,,,,,,0,,,71,75
56400,note_on,81,0,1,,,,,,,,,0,,,71,0
56400,note_on,0,0,1,,,,,,,,,0,,,78,75
56480,note_on,0,0,1,,,,,,,,,0,,,76,75
56480,note_on,80,0,1,,,,,,,,,0,,,78,0
56559,note_on,0,0,1,,,,,,,,,0,,,74,75
56559,note_on,79,0,1,,,,,,,,,0,,,76,0
56640,note_on,81,0,1,,,,,,,,,0,,,74,0
56640,note_on,0,0,1,,,,,,,,,0,,,71,75
56720,note_on,0,0,1,,,,,,,,,0,,,68,75
56720,note_on,80,0,1,,,,,,,,,0,,,71,0
56799,note_on,79,0,1,,,,,,,,,0,,,68,0
56799,note_on,0,0,1,,,,,,,,,0,,,74,75
56880,note_on,0,0,1,,,,,,,,,0,,,71,75
56880,note_on,81,0,1,,,,,,,,,0,,,74,0
56960,note_on,0,0,1,,,,,,,,,0,,,68,75
56960,note_on,80,0,1,,,,,,,,,0,,,71,0
57039,note_on,79,0,1,,,,,,,,,0,,,68,0
57039,note_on,0,0,1,,,,,,,,,0,,,63,75
57120,note_on,81,0,1,,,,,,,,,0,,,63,0
57120,note_on,0,0,1,,,,,,,,,0,,,64,75
57200,note_on,80,0,1,,,,,,,,,0,,,64,0
57200,note_on,0,0,1,,,,,,,,,0,,,65,75
57279,note_on,79,0,1,,,,,,,,,0,,,65,0
57279,note_on,0,0,1,,,,,,,,,0,,,68,75
57360,note_on,81,0,1,,,,,,,,,0,,,68,0
57360,note_on,0,0,1,,,,,,,,,0,,,66,75
57440,note_on,0,0,1,,,,,,,,,0,,,64,75
57440,note_on,80,0,1,,,,,,,,,0,,,66,0
57519,note_on,79,0,1,,,,,,,,,0,,,64,0
57519,note_on,0,0,1,,,,,,,,,0,,,58,75
57600,note_on,81,0,1,,,,,,,,,0,,,58,0
57600,control_change,1920,0,3,,,,,,,,,2,64,0,,
57600,note_on,0,0,1,,,,,,,,,0,,,59,75
57780,note_on,0,0,1,,,,,,,,,0,,,66,75
57780,note_on,180,0,1,,,,,,,,,0,,,59,0
57780,control_change,0,0,1,,,,,,,,,0,64,0,,
57960,note_on,0,0,1,,,,,,,,,0,,,64,101
57960,note_on,180,0,1,,,,,,,,,0,,,66,0
58007,note_on,47,0,1,,,,,,,,,0,,,64,0
58320,note_on,313,0,1,,,,,,,,,0,,,60,75
58440,note_on,120,0,1,,,,,,,,,0,,,60,0
58560,key_signature,32640,1,0,,,,,A,,,,,,,,
58560,note_on,120,0,1,,,,,,,,,0,,,60,101
59040,note_on,480,0,1,,,,,,,,,0,,,60,0
59040,note_on,0,0,1,,,,,,,,,0,,,61,75
59040,control_change,9120,0,2,,,,,,,,,1,64,127,,
59040,note_on,0,0,2,,,,,,,,,1,,,61,62
59280,note_on,240,0,2,,,,,,,,,1,,,61,0
59280,note_on,0,0,2,,,,,,,,,1,,,64,62
59520,note_on,240,0,2,,,,,,,,,1,,,64,0
59520,note_on,480,0,1,,,,,,,,,0,,,61,0
59520,note_on,0,0,2,,,,,,,,,1,,,61,62
59760,control_change,0,0,2,,,,,,,,,1,64,0,,
59760,note_on,240,0,2,,,,,,,,,1,,,61,0
59760,note_on,0,0,2,,,,,,,,,1,,,64,62
60000,note_on,240,0,2,,,,,,,,,1,,,64,0
60000,note_on,2400,0,3,,,,,,,,,2,,,62,88
60000,note_on,480,0,1,,,,,,,,,0,,,74,101
60240,note_on,0,0,2,,,,,,,,,1,,,69,62
60240,note_on,240,0,2,,,,,,,,,1,,,64,62
60360,note_on,0,0,3,,,,,,,,,2,,,61,62
60360,note_on,0,0,1,,,,,,,,,0,,,73,75
60360,note_on,360,0,1,,,,,,,,,0,,,74,0
60360,note_on,360,0,3,,,,,,,,,2,,,62,0
60480,note_on,0,0,3,,,,,,,,,2,,,61,88
60480,note_on,120,0,1,,,,,,,,,0,,,73,0
60480,note_on,0,0,1,,,,,,,,,0,,,73,101
60480,note_on,0,0,2,,,,,,,,,1,,,64,0
60480,note_on,240,0,2,,,,,,,,,1,,,69,0
60480,note_on,120,0,3,,,,,,,,,2,,,61,0
60720,control_change,240,0,2,,,,,,,,,1,64,127,,
60720,note_on,0,0,2,,,,,,,,,1,,,63,62
60720,note_on,0,0,2,,,,,,,,,1,,,66,62
60960,note_on,240,0,2,,,,,,,,,1,,,66,0
60960,note_on,0,0,1,,,,,,,,,0,,,72,75
60960,note_on,0,0,2,,,,,,,,,1,,,72,62
60960,note_on,480,0,3,,,,,,,,,2,,,61,0
60960,note_on,0,0,2,,,,,,,,,1,,,63,0
60960,note_on,0,0,3,,,,,,,,,2,,,60,62
60960,note_on,480,0,1,,,,,,,,,0,,,73,0
61200,note_on,0,0,2,,,,,,,,,1,,,78,62
61200,note_on,240,0,2,,,,,,,,,1,,,72,0
61440,note_on,480,0,3,,,,,,,,,2,,,60,0
61440,note_on,0,0,2,,,,,,,,,1,,,72,62
61440,note_on,240,0,2,,,,,,,,,1,,,78,0
61440,note_on,480,0,1,,,,,,,,,0,,,72,0
61680,note_on,0,0,2,,,,,,,,,1,,,66,62
61680,note_on,0,0,2,,,,,,,,,1,,,63,62
61680,control_change,0,0,2,,,,,,,,,1,64,0,,
61680,note_on,240,0,2,,,,,,,,,1,,,72,0
61920,note_on,0,0,2,,,,,,,,,1,,,63,0
61920,note_on,480,0,1,,,,,,,,,0,,,73,101
61920,note_on,240,0,2,,,,,,,,,1,,,66,0
61920,note_on,480,0,3,,,,,,,,,2,,,61,88
62160,note_on,240,0,2,,,,,,,,,1,,,62,62
62160,note_on,0,0,2,,,,,,,,,1,,,65,62
62280,note_on,360,0,1,,,,,,,,,0,,,73,0
62280,note_on,0,0,1,,,,,,,,,0,,,71,75
62280,note_on,0,0,3,,,,,,,,,2,,,59,62
62280,note_on,360,0,3,,,,,,,,,2,,,61,0
62400,note_on,0,0,1,,,,,,,,,0,,,71,101
62400,note_on,240,0,2,,,,,,,,,1,,,65,0
62400,note_on,0,0,2,,,,,,,,,1,,,62,0
62400,note_on,120,0,3,,,,,,,,,2,,,59,0
62400,note_on,0,0,3,,,,,,,,,2,,,59,88
62400,note_on,120,0,1,,,,,,,,,0,,,71,0
62640,note_on,0,0,2,,,,,,,,,1,,,61,62
62640,note_on,0,0,2,,,,,,,,,1,,,64,62
62640,control_change,240,0,2,,,,,,,,,1,64,127,,
62880,note_on,480,0,3,,,,,,,,,2,,,59,0
62880,note_on,0,0,2,,,,,,,,,1,,,61,0
62880,note_on,0,0,2,,,,,,,,,1,,,69,62
62880,note_on,0,0,3,,,,,,,,,2,,,57,62
62880,note_on,0,0,1,,,,,,,,,0,,,69,75
62880,note_on,480,0,1,,,,,,,,,0,,,71,0
62880,note_on,240,0,2,,,,,,,,,1,,,64,0
63120,note_on,0,0,2,,,,,,,,,1,,,76,62
63120,note_on,240,0,2,,,,,,,,,1,,,69,0
63360,note_on,480,0,1,,,,,,,,,0,,,69,0
63360,note_on,0,0,2,,,,,,,,,1,,,69,62
63360,note_on,480,0,3,,,,,,,,,2,,,57,0
63360,note_on,240,0,2,,,,,,,,,1,,,76,0
63600,note_on,0,0,2,,,,,,,,,1,,,64,62
63600,note_on,0,0,2,,,,,,,,,1,,,61,62
63600,control_change,0,0,2,,,,,,,,,1,64,0,,
63600,note_on,240,0,2,,,,,,,,,1,,,69,0
63840,note_on,480,0,3,,,,,,,,,2,,,56,88
63840,note_on,0,0,2,,,,,,,,,1,,,61,0
63840,note_on,240,0,2,,,,,,,,,1,,,64,0
63840,note_on,480,0,1,,,,,,,,,0,,,68,101
64080,note_on,0,0,2,,,,,,,,,1,,,60,62
64080,note_on,240,0,2,,,,,,,,,1,,,57,62
64200,note_on,0,0,1,,,,,,,,,0,,,66,75
64200,note_on,360,0,1,,,,,,,,,0,,,68,0
64200,note_on,0,0,3,,,,,,,,,2,,,54,62
64200,note_on,360,0,3,,,,,,,,,2,,,56,0
64320,note_on,120,0,1,,,,,,,,,0,,,66,0
64320,note_on,0,0,3,,,,,,,,,2,,,54,62
64320,note_on,120,0,3,,,,,,,,,2,,,54,0
64320,note_on,240,0,2,,,,,,,,,1,,,60,0
64320,note_on,0,0,2,,,,,,,,,1,,,57,0
64320,note_on,0,0,1,,,,,,,,,0,,,66,75
64560,note_on,0,0,2,,,,,,,,,1,,,62,62
64560,note_on,240,0,2,,,,,,,,,1,,,56,62
64800,note_on,0,0,2,,,,,,,,,1,,,56,0
64800,note_on,480,0,1,,,,,,,,,0,,,66,0
64800,note_on,480,0,3,,,,,,,,,2,,,54,0
64800,note_on,0,0,3,,,,,,,,,2,,,53,62
64800,note_on,0,0,1,,,,,,,,,0,,,65,75
64800,note_on,240,0,2,,,,,,,,,1,,,62,0
65040,note_on,0,0,1,,,,,,,,,0,,,64,75
65040,note_on,240,0,1,,,,,,,,,0,,,65,0
65040,note_on,0,0,3,,,,,,,,,2,,,52,62
65040,note_on,240,0,3,,,,,,,,,2,,,53,0
65280,note_on,240,0,3,,,,,,,,,2,,,52,0
65280,note_on,0,0,1,,,,,,,,,0,,,73,101
65280,note_on,240,0,1,,,,,,,,,0,,,64,0
65280,note_on,0,0,3,,,,,,,,,2,,,61,88
65520,note_on,0,0,2,,,,,,,,,1,,,64,62
65520,note_on,720,0,2,,,,,,,,,1,,,62,62
65760,note_on,0,0,2,,,,,,,,,1,,,56,62
65760,note_on,0,0,2,,,,,,,,,1,,,62,0
65760,note_on,240,0,2,,,,,,,,,1,,,64,0
66000,note_on,240,0,2,,,,,,,,,1,,,56,0
66000,note_on,720,0,3,,,,,,,,,2,,,61,0
66000,note_on,720,0,1,,,,,,,,,0,,,73,0
66000,note_on,0,0,1,,,,,,,,,0,,,71,75
66000,note_on,0,0,3,,,,,,,,,2,,,59,62
66240,note_on,0,0,3,,,,,,,,,2,,,57,62
66240,note_on,240,0,3,,,,,,,,,2,,,59,0
66240,note_on,240,0,1,,,,,,,,,0,,,71,0
66240,note_on,0,0,1,,,,,,,,,0,,,69,75
66480,note_on,0,0,2,,,,,,,,,1,,,61,62
66480,note_on,0,0,2,,,,,,,,,1,,,57,62
66480,control_change,480,0,2,,,,,,,,,1,64,127,,
66720,note_on,0,0,2,,,,,,,,,1,,,64,62
66720,note_on,0,0,2,,,,,,,,,1,,,57,0
66720,note_on,240,0,2,,,,,,,,,1,,,61,0
66960,note_on,0,0,2,,,,,,,,,1,,,57,62
66960,note_on,0,0,2,,,,,,,,,1,,,61,62
66960,note_on,240,0,2,,,,,,,,,1,,,64,0
67200,note_on,0,0,2,,,,,,,,,1,,,57,0
67200,note_on,0,0,2,,,,,,,,,1,,,57,62
67200,note_on,240,0,2,,,,,,,,,1,,,61,0
67200,note_on,0,0,2,,,,,,,,,1,,,61,62
67200,note_on,960,0,1,,,,,,,,,0,,,69,0
67200,note_on,960,0,3,,,,,,,,,2,,,57,0
67440,control_change,0,0,2,,,,,,,,,1,64,0,,
67440,note_on,0,0,2,,,,,,,,,1,,,57,0
67440,note_on,0,0,2,,,,,,,,,1,,,64,62
67440,note_on,240,0,2,,,,,,,,,1,,,61,0
67680,note_on,480,0,3,,,,,,,,,2,,,62,88
67680,note_on,240,0,2,,,,,,,,,1,,,64,0
67680,note_on,480,0,1,,,,,,,,,0,,,74,101
67920,note_on,240,0,2,,,,,,,,,1,,,64,62
67920,note_on,0,0,2,,,,,,,,,1,,,69,62
68040,note_on,0,0,1,,,,,,,,,0,,,73,75
68040,note_on,360,0,1,,,,,,,,,0,,,74,0
68040,note_on,360,0,3,,,,,,,,,2,,,62,0
68040,note_on,0,0,3,,,,,,,,,2,,,61,62
68160,note_on,120,0,3,,,,,,,,,2,,,61,0
68160,note_on,120,0,1,,,,,,,,,0,,,73,0
68160,control_change,0,0,3,,,,,,,,,2,64,127,,
68160,set_tempo,9600,1,0,,,,,,500000,,,,,,,
68160,note_on,0,0,2,,,,,,,,,1,,,64,0
68160,note_on,0,0,1,,,,,,,,,0,,,73,101
68160,control_change,0,0,1,,,,,,,,,0,64,127,,
68160,note_on,0,0,3,,,,,,,,,2,,,61,88
68160,note_on,240,0,2,,,,,,,,,1,,,69,0
68400,note_on,0,0,2,,,,,,,,,1,,,63,62
68400,note_on,0,0,2,,,,,,,,,1,,,66,62
68400,control_change,240,0,2,,,,,,,,,1,64,127,,
68640,note_on,0,0,3,,,,,,,,,2,,,60,62
68640,note_on,480,0,3,,,,,,,,,2,,,61,0
68640,note_on,0,0,1,,,,,,,,,0,,,72,75
68640,note_on,240,0,2,,,,,,,,,1,,,66,0
68640,note_on,480,0,1,,,,,,,,,0,,,73,0
68640,note_on,0,0,2,,,,,,,,,1,,,63,0
68640,note_on,0,0,2,,,,,,,,,1,,,72,62
68880,note_on,0,0,2,,,,,,,,,1,,,78,62
68880,note_on,240,0,2,,,,,,,,,1,,,72,0
69120,note_on,480,0,1,,,,,,,,,0,,,72,0
69120,note_on,480,0,3,,,,,,,,,2,,,60,0
69120,note_on,0,0,2,,,,,,,,,1,,,72,62
69120,note_on,240,0,2,,,,,,,,,1,,,78,0
69360,note_on,0,0,2,,,,,,,,,1,,,63,62
69360,note_on,0,0,2,,,,,,,,,1,,,66,62
69360,note_on,240,0,2,,,,,,,,,1,,,72,0
69360,control_change,0,0,2,,,,,,,,,1,64,0,,
69540,note_on,420,0,3,,,,,,,,,2,,,60,88
69540,note_on,420,0,1,,,,,,,,,0,,,72,101
69600,note_on,240,0,2,,,,,,,,,1,,,66,0
69600,note_on,60,0,1,,,,,,,,,0,,,76,101
69600,note_on,60,0,3,,,,,,,,,2,,,64,88
69600,note_on,0,0,2,,,,,,,,,1,,,63,0
69840,note_on,0,0,2,,,,,,,,,1,,,66,62
69840,note_on,240,0,2,,,,,,,,,1,,,60,62
69960,control_change,0,0,1,,,,,,,,,0,64,0,,
69960,note_on,0,0,3,,,,,,,,,2,,,63,62
69960,note_on,0,0,3,,,,,,,,,2,,,60,0
69960,control_change,0,0,3,,,,,,,,,2,64,0,,
69960,note_on,0,0,1,,,,,,,,,0,,,75,75
69960,note_on,360,0,3,,,,,,,,,2,,,64,0
69960,note_on,360,0,1,,,,,,,,,0,,,76,0
69960,note_on,0,0,1,,,,,,,,,0,,,72,0
70080,note_on,120,0,3,,,,,,,,,2,,,63,0
70080,note_on,0,0,1,,,,,,,,,0,,,75,101
70080,control_change,0,0,1,,,,,,,,,0,64,127,,
70080,note_on,0,0,3,,,,,,,,,2,,,63,88
70080,note_on,0,0,2,,,,,,,,,1,,,60,0
70080,note_on,120,0,1,,,,,,,,,0,,,75,0
70080,control_change,0,0,3,,,,,,,,,2,64,127,,
70080,note_on,240,0,2,,,,,,,,,1,,,66,0
70320,note_on,0,0,2,,,,,,,,,1,,,68,62
70320,note_on,240,0,2,,,,,,,,,1,,,61,62
70560,note_on,0,0,1,,,,,,,,,0,,,73,75
70560,note_on,480,0,1,,,,,,,,,0,,,75,0
70560,note_on,0,0,2,,,,,,,,,1,,,61,0
70560,note_on,480,0,3,,,,,,,,,2,,,63,0
70560,note_on,240,0,2,,,,,,,,,1,,,68,0
70560,note_on,0,0,3,,,,,,,,,2,,,61,62
70800,note_on,0,0,2,,,,,,,,,1,,,68,62
70800,note_on,240,0,2,,,,,,,,,1,,,61,62
70920,note_on,360,0,1,,,,,,,,,0,,,73,75
70920,note_on,360,0,3,,,,,,,,,2,,,61,62
70980,note_on,0,0,1,,,,,,,,,0,,,73,75
70980,note_on,60,0,1,,,,,,,,,0,,,73,0
70980,note_on,0,0,3,,,,,,,,,2,,,61,62
70980,note_on,60,0,3,,,,,,,,,2,,,61,0
71040,note_on,60,0,3,,,,,,,,,2,,,61,0
71040,note_on,60,0,1,,,,,,,,,0,,,73,0
71040,note_on,0,0,3,,,,,,,,,2,,,61,0
71040,note_on,0,0,2,,,,,,,,,1,,,61,0
71040,note_on,0,0,1,,,,,,,,,0,,,73,0
71040,note_on,0,0,1,,,,,,,,,0,,,78,101
71040,note_on,240,0,2,,,,,,,,,1,,,68,0
71040,note_on,0,0,3,,,,,,,,,2,,,66,88
71280,note_on,240,0,2,,,,,,,,,1,,,67,62
71280,set_tempo,3120,1,0,,,,,,512821,,,,,,,
71280,note_on,0,0,2,,,,,,,,,1,,,70,62
71520,set_tempo,240,1,0,,,,,,526316,,,,,,,
71520,note_on,0,0,2,,,,,,,,,1,,,67,62
71520,note_on,0,0,2,,,,,,,,,1,,,67,0
71520,note_on,0,0,2,,,,,,,,,1,,,64,62
71520,note_on,240,0,2,,,,,,,,,1,,,70,0
71760,note_on,720,0,1,,,,,,,,,0,,,78,0
71760,control_change,0,0,1,,,,,,,,,0,64,0,,
71760,control_change,0,0,3,,,,,,,,,2,64,0,,
71760,note_on,0,0,2,,,,,,,,,1,,,64,0
71760,note_on,0,0,1,,,,,,,,,0,,,76,75
71760,note_on,240,0,2,,,,,,,,,1,,,67,0
71760,set_tempo,240,1,0,,,,,,540541,,,,,,,
71760,note_on,720,0,3,,,,,,,,,2,,,66,0
71760,note_on,0,0,3,,,,,,,,,2,,,64,62
72000,note_on,0,0,1,,,,,,,,,0,,,76,101
72000,note_on,240,0,1,,,,,,,,,0,,,76,0
72000,note_on,240,0,3,,,,,,,,,2,,,64,0
72000,control_change,0,0,1,,,,,,,,,0,64,127,,
72000,note_on,0,0,3,,,,,,,,,2,,,64,88
72000,time_signature,240,1,0,5,4,24,8,,,,,,,,,
72000,set_tempo,0,1,0,,,,,,560748,,,,,,,
72000,control_change,0,0,3,,,,,,,,,2,64,127,,
72240,set_tempo,240,1,0,,,,,,576923,,,,,,,
72240,note_on,0,0,2,,,,,,,,,1,,,71,88
72240,note_on,480,0,2,,,,,,,,,1,,,67,88
72287,note_on,0,0,2,,,,,,,,,1,,,67,0
72287,note_on,47,0,2,,,,,,,,,1,,,71,0
72480,set_tempo,240,1,0,,,,,,594059,,,,,,,
72480,note_on,480,0,1,,,,,,,,,0,,,76,0
72480,note_on,0,0,1,,,,,,,,,0,,,75,101
72480,note_on,0,0,3,,,,,,,,,2,,,63,88
72480,note_on,480,0,3,,,,,,,,,2,,,64,0
72720,set_tempo,240,1,0,,,,,,612245,,,,,,,
72720,note_on,0,0,2,,,,,,,,,1,,,67,88
72720,note_on,0,0,2,,,,,,,,,1,,,71,88
72720,note_on,433,0,2,,,,,,,,,1,,,62,88
72767,note_on,47,0,2,,,,,,,,,1,,,71,0
72767,note_on,0,0,2,,,,,,,,,1,,,67,0
72767,note_on,0,0,2,,,,,,,,,1,,,62,0
72960,note_on,480,0,1,,,,,,,,,0,,,75,0
72960,set_tempo,240,1,0,,,,,,638298,,,,,,,
72960,note_on,0,0,1,,,,,,,,,0,,,83,101
72960,note_on,480,0,3,,,,,,,,,2,,,63,0
72960,note_on,0,0,3,,,,,,,,,2,,,71,88
73200,note_on,0,0,2,,,,,,,,,1,,,66,62
73200,note_on,0,0,2,,,,,,,,,1,,,72,62
73200,note_on,433,0,2,,,,,,,,,1,,,62,62
73680,note_on,480,0,2,,,,,,,,,1,,,72,0
73680,note_on,0,0,2,,,,,,,,,1,,,66,0
73680,note_on,0,0,2,,,,,,,,,1,,,62,0
74160,note_on,1200,0,1,,,,,,,,,0,,,83,0
74160,note_on,0,0,3,,,,,,,,,2,,,69,62
74160,control_change,0,0,3,,,,,,,,,2,64,0,,
74160,note_on,1200,0,3,,,,,,,,,2,,,71,0
74160,note_on,0,0,1,,,,,,,,,0,,,81,75
74160,control_change,0,0,1,,,,,,,,,0,64,0,,
74400,note_on,240,0,1,,,,,,,,,0,,,81,0
74400,note_on,0,0,3,,,,,,,,,2,,,67,62
74400,time_signature,1440,1,0,4,4,24,8,,,,,,,,,
74400,key_signature,0,1,0,,,,,G,,,,,,,,
74400,note_on,240,0,3,,,,,,,,,2,,,69,0
74400,note_on,0,0,1,,,,,,,,,0,,,79,75
74400,set_tempo,0,1,0,,,,,,500000,,,,,,,
74880,note_on,480,0,1,,,,,,,,,0,,,79,0
74880,control_change,1200,0,2,,,,,,,,,1,64,127,,
74880,note_on,480,0,3,,,,,,,,,2,,,67,0
74880,note_on,0,0,2,,,,,,,,,1,,,59,62
75120,note_on,240,0,2,,,,,,,,,1,,,59,0
75120,note_on,0,0,2,,,,,,,,,1,,,62,62
75360,note_on,0,0,2,,,,,,,,,1,,,59,62
75360,note_on,240,0,2,,,,,,,,,1,,,62,0
75600,note_on,240,0,2,,,,,,,,,1,,,59,0
75600,note_on,0,0,2,,,,,,,,,1,,,62,62
75780,note_on,900,0,1,,,,,,,,,0,,,67,75
75840,note_on,240,0,2,,,,,,,,,1,,,62,0
75840,note_on,60,0,1,,,,,,,,,0,,,72,75
76080,note_on,0,0,2,,,,,,,,,1,,,62,62
76080,control_change,240,0,2,,,,,,,,,1,64,0,,
76200,note_on,360,0,1,,,,,,,,,0,,,72,0
76200,note_on,0,0,1,,,,,,,,,0,,,71,75
76200,note_on,0,0,1,,,,,,,,,0,,,67,0
76320,note_on,0,0,1,,,,,,,,,0,,,71,75
76320,note_on,240,0,2,,,,,,,,,1,,,62,0
76320,note_on,120,0,1,,,,,,,,,0,,,71,0
76560,control_change,1680,0,3,,,,,,,,,2,64,127,,
76560,note_on,0,0,2,,,,,,,,,1,,,61,62
76560,note_on,0,0,2,,,,,,,,,1,,,64,62
76560,note_on,0,0,3,,,,,,,,,2,,,52,62
76560,control_change,240,0,2,,,,,,,,,1,64,127,,
76800,note_on,0,0,3,,,,,,,,,2,,,43,62
76800,note_on,480,0,1,,,,,,,,,0,,,71,0
76800,note_on,0,0,1,,,,,,,,,0,,,70,75
76800,note_on,240,0,3,,,,,,,,,2,,,52,0
77040,note_on,480,0,2,,,,,,,,,1,,,64,0
77040,note_on,0,0,2,,,,,,,,,1,,,64,62
77040,note_on,0,0,2,,,,,,,,,1,,,61,0
77040,note_on,240,0,3,,,,,,,,,2,,,43,0
77040,note_on,0,0,3,,,,,,,,,2,,,52,62
77040,note_on,0,0,2,,,,,,,,,1,,,61,62
77280,note_on,240,0,2,,,,,,,,,1,,,64,0
77280,note_on,240,0,3,,,,,,,,,2,,,52,0
77280,control_change,0,0,1,,,,,,,,,0,64,127,,
77280,note_on,0,0,3,,,,,,,,,2,,,58,62
77280,note_on,0,0,2,,,,,,,,,1,,,61,0
77280,note_on,0,0,1,,,,,,,,,0,,,70,75
77280,note_on,480,0,1,,,,,,,,,0,,,70,0
77376,note_on,96,0,1,,,,,,,,,0,,,70,0
77520,note_on,240,0,2,,,,,,,,,1,,,61,62
77520,note_on,0,0,2,,,,,,,,,1,,,64,62
77520,note_on,0,0,3,,,,,,,,,2,,,52,62
77520,note_on,240,0,3,,,,,,,,,2,,,58,0
77760,note_on,0,0,2,,,,,,,,,1,,,61,0
77760,note_on,0,0,1,,,,,,,,,0,,,70,75
77760,note_on,240,0,3,,,,,,,,,2,,,52,0
77760,note_on,240,0,2,,,,,,,,,1,,,64,0
77760,control_change,384,0,1,,,,,,,,,0,64,0,,
77760,note_on,0,0,3,,,,,,,,,2,,,61,62
77856,note_on,96,0,1,,,,,,,,,0,,,70,0
78000,note_on,0,0,2,,,,,,,,,1,,,64,62
78000,note_on,0,0,2,,,,,,,,,1,,,61,62
78000,note_on,0,0,3,,,,,,,,,2,,,55,62
78000,control_change,240,0,2,,,,,,,,,1,64,0,,
78000,control_change,0,0,3,,,,,,,,,2,64,0,,
78000,note_on,240,0,3,,,,,,,,,2,,,61,0
78240,note_on,384,0,1,,,,,,,,,0,,,76,101
78240,note_on,0,0,2,,,,,,,,,1,,,61,0
78240,note_on,240,0,3,,,,,,,,,2,,,55,0
78240,note_on,240,0,2,,,,,,,,,1,,,64,0
78480,control_change,240,0,2,,,,,,,,,1,64,127,,
78480,note_on,0,0,2,,,,,,,,,1,,,59,62
78480,note_on,0,0,2,,,,,,,,,1,,,67,62
78480,control_change,240,0,3,,,,,,,,,2,64,127,,
78480,note_on,0,0,3,,,,,,,,,2,,,50,62
78720,note_on,240,0,3,,,,,,,,,2,,,50,0
78720,note_on,480,0,1,,,,,,,,,0,,,76,0
78720,note_on,0,0,1,,,,,,,,,0,,,74,75
78720,note_on,0,0,3,,,,,,,,,2,,,43,62
78960,note_on,0,0,2,,,,,,,,,1,,,59,0
78960,note_on,0,0,3,,,,,,,,,2,,,50,62
78960,note_on,0,0,2,,,,,,,,,1,,,67,62
78960,note_on,480,0,2,,,,,,,,,1,,,67,0
78960,note_on,240,0,3,,,,,,,,,2,,,43,0
78960,note_on,0,0,2,,,,,,,,,1,,,59,62
79200,note_on,240,0,3,,,,,,,,,2,,,50,0
79200,note_on,240,0,2,,,,,,,,,1,,,67,0
79200,note_on,480,0,1,,,,,,,,,0,,,74,0
79200,note_on,0,0,2,,,,,,,,,1,,,59,0
79200,note_on,0,0,3,,,,,,,,,2,,,59,62
79440,note_on,240,0,2,,,,,,,,,1,,,59,62
79440,note_on,0,0,3,,,,,,,,,2,,,50,62
79440,note_on,240,0,3,,,,,,,,,2,,,59,0
79440,note_on,0,0,2,,,,,,,,,1,,,67,62
79680,note_on,0,0,3,,,,,,,,,2,,,62,62
79680,note_on,240,0,3,,,,,,,,,2,,,50,0
79680,note_on,240,0,2,,,,,,,,,1,,,67,0
79680,note_on,480,0,1,,,,,,,,,0,,,72,75
79680,note_on,0,0,2,,,,,,,,,1,,,59,0
79920,note_on,0,0,2,,,,,,,,,1,,,62,62
79920,note_on,0,0,2,,,,,,,,,1,,,67,62
79920,note_on,240,0,3,,,,,,,,,2,,,62,0
79920,note_on,0,0,3,,,,,,,,,2,,,55,62
79920,control_change,240,0,2,,,,,,,,,1,64,0,,
79920,control_change,0,0,3,,,,,,,,,2,64,0,,
80040,note_on,0,0,1,,,,,,,,,0,,,71,75
80040,note_on,360,0,1,,,,,,,,,0,,,72,0
80160,note_on,0,0,2,,,,,,,,,1,,,62,0
80160,note_on,240,0,2,,,,,,,,,1,,,67,0
80160,note_on,120,0,1,,,,,,,,,0,,,71,0
80160,note_on,0,0,1,,,,,,,,,0,,,71,75
80160,note_on,240,0,3,,,,,,,,,2,,,55,0
80400,note_on,240,0,2,,,,,,,,,1,,,61,62
80400,note_on,0,0,2,,,,,,,,,1,,,64,62
80400,note_on,240,0,3,,,,,,,,,2,,,52,62
80640,note_on,0,0,1,,,,,,,,,0,,,69,75
80640,note_on,480,0,1,,,,,,,,,0,,,71,0
80640,note_on,240,0,3,,,,,,,,,2,,,52,0
80640,note_on,0,0,3,,,,,,,,,2,,,43,62
80880,note_on,480,0,2,,,,,,,,,1,,,64,0
80880,note_on,0,0,3,,,,,,,,,2,,,57,62
80880,note_on,0,0,3,,,,,,,,,2,,,52,62
80880,note_on,240,0,3,,,,,,,,,2,,,43,0
80880,note_on,0,0,2,,,,,,,,,1,,,64,62
80880,note_on,0,0,2,,,,,,,,,1,,,61,62
80880,note_on,0,0,2,,,,,,,,,1,,,61,0
81120,note_on,240,0,3,,,,,,,,,2,,,57,0
81120,note_on,240,0,2,,,,,,,,,1,,,64,0
81120,note_on,0,0,1,,,,,,,,,0,,,71,75
81120,note_on,0,0,3,,,,,,,,,2,,,52,0
81120,note_on,480,0,1,,,,,,,,,0,,,69,0
81120,note_on,0,0,2,,,,,,,,,1,,,61,0
81360,note_on,0,0,3,,,,,,,,,2,,,54,62
81360,note_on,240,0,2,,,,,,,,,1,,,60,62
81360,note_on,0,0,2,,,,,,,,,1,,,63,62
81360,note_on,240,0,3,,,,,,,,,2,,,51,62
81600,note_on,0,0,3,,,,,,,,,2,,,43,62
81600,note_on,0,0,3,,,,,,,,,2,,,51,0
81600,note_on,0,0,1,,,,,,,,,0,,,72,75
81600,note_on,240,0,3,,,,,,,,,2,,,54,0
81600,note_on,480,0,1,,,,,,,,,0,,,71,0
81840,note_on,0,0,3,,,,,,,,,2,,,57,62
81840,note_on,0,0,2,,,,,,,,,1,,,63,62
81840,note_on,240,0,3,,,,,,,,,2,,,43,0
81840,note_on,480,0,2,,,,,,,,,1,,,63,0
81840,note_on,0,0,2,,,,,,,,,1,,,60,0
81840,note_on,0,0,2,,,,,,,,,1,,,60,62
81840,note_on,0,0,3,,,,,,,,,2,,,54,62
81960,note_on,0,0,1,,,,,,,,,0,,,66,75
81960,note_on,360,0,1,,,,,,,,,0,,,72,0
82080,note_on,0,0,1,,,,,,,,,0,,,69,75
82080,note_on,0,0,3,,,,,,,,,2,,,54,0
82080,note_on,240,0,2,,,,,,,,,1,,,63,0
82080,note_on,240,0,3,,,,,,,,,2,,,57,0
82080,note_on,0,0,2,,,,,,,,,1,,,60,0
82080,note_on,120,0,1,,,,,,,,,0,,,66,0
82320,note_on,0,0,2,,,,,,,,,1,,,59,62
82320,note_on,0,0,2,,,,,,,,,1,,,62,62
82320,control_change,240,0,3,,,,,,,,,2,64,127,,
82320,control_change,240,0,2,,,,,,,,,1,64,127,,
82320,note_on,0,0,3,,,,,,,,,2,,,50,62
82560,note_on,240,0,3,,,,,,,,,2,,,50,0
82560,note_on,480,0,1,,,,,,,,,0,,,69,0
82560,note_on,0,0,1,,,,,,,,,0,,,67,75
82560,note_on,0,0,3,,,,,,,,,2,,,43,62
82800,note_on,0,0,2,,,,,,,,,1,,,59,62
82800,note_on,0,0,3,,,,,,,,,2,,,50,62
82800,note_on,0,0,2,,,,,,,,,1,,,62,62
82800,note_on,480,0,2,,,,,,,,,1,,,62,0
82800,note_on,0,0,2,,,,,,,,,1,,,59,0
82800,note_on,240,0,3,,,,,,,,,2,,,43,0
83040,note_on,240,0,3,,,,,,,,,2,,,50,0
83040,note_on,0,0,2,,,,,,,,,1,,,59,0
83040,note_on,0,0,3,,,,,,,,,2,,,55,62
83040,note_on,240,0,2,,,,,,,,,1,,,62,0
83280,note_on,0,0,2,,,,,,,,,1,,,62,62
83280,note_on,0,0,3,,,,,,,,,2,,,50,62
83280,note_on,240,0,2,,,,,,,,,1,,,59,62
83280,note_on,240,0,3,,,,,,,,,2,,,55,0
83520,note_on,0,0,3,,,,,,,,,2,,,62,62
83520,note_on,0,0,1,,,,,,,,,0,,,72,75
83520,note_on,240,0,3,,,,,,,,,2,,,50,0
83520,note_on,960,0,1,,,,,,,,,0,,,67,0
83520,note_on,240,0,2,,,,,,,,,1,,,62,0
83520,note_on,0,0,2,,,,,,,,,1,,,59,0
83760,note_on,0,0,2,,,,,,,,,1,,,62,62
83760,control_change,0,0,3,,,,,,,,,2,64,0,,
83760,control_change,240,0,2,,,,,,,,,1,64,0,,
83760,note_on,240,0,3,,,,,,,,,2,,,62,0
83760,note_on,0,0,3,,,,,,,,,2,,,55,62
83760,note_on,0,0,2,,,,,,,,,1,,,67,62
83880,note_on,0,0,1,,,,,,,,,0,,,71,75
83880,note_on,360,0,1,,,,,,,,,0,,,72,0
84000,note_on,240,0,3,,,,,,,,,2,,,55,0
84000,note_on,0,0,1,,,,,,,,,0,,,71,75
84000,note_on,0,0,2,,,,,,,,,1,,,62,0
84000,note_on,240,0,2,,,,,,,,,1,,,67,0
84000,note_on,120,0,1,,,,,,,,,0,,,71,0
84240,note_on,0,0,3,,,,,,,,,2,,,52,62
84240,control_change,240,0,3,,,,,,,,,2,64,127,,
84240,note_on,0,0,2,,,,,,,,,1,,,61,62
84240,control_change,240,0,2,,,,,,,,,1,64,127,,
84240,note_on,0,0,2,,,,,,,,,1,,,64,62
84480,note_on,0,0,1,,,,,,,,,0,,,70,75
84480,note_on,480,0,1,,,,,,,,,0,,,71,0
84480,note_on,240,0,3,,,,,,,,,2,,,52,0
84480,note_on,0,0,3,,,,,,,,,2,,,43,62
84720,note_on,0,0,3,,,,,,,,,2,,,52,62
84720,note_on,480,0,2,,,,,,,,,1,,,64,0
84720,note_on,0,0,2,,,,,,,,,1,,,61,62
84720,note_on,0,0,2,,,,,,,,,1,,,61,0
84720,note_on,240,0,3,,,,,,,,,2,,,43,0
84720,note_on,0,0,2,,,,,,,,,1,,,64,62
84960,note_on,0,0,3,,,,,,,,,2,,,58,62
84960,note_on,0,0,2,,,,,,,,,1,,,61,0
84960,note_on,240,0,3,,,,,,,,,2,,,52,0
84960,note_on,0,0,1,,,,,,,,,0,,,70,75
84960,control_change,0,0,1,,,,,,,,,0,64,127,,
84960,note_on,480,0,1,,,,,,,,,0,,,70,0
84960,note_on,240,0,2,,,,,,,,,1,,,64,0
85056,note_on,96,0,1,,,,,,,,,0,,,70,0
85200,note_on,0,0,3,,,,,,,,,2,,,52,62
85200,note_on,240,0,3,,,,,,,,,2,,,58,0
85200,note_on,240,0,2,,,,,,,,,1,,,61,62
85200,note_on,0,0,2,,,,,,,,,1,,,64,62
85440,note_on,0,0,1,,,,,,,,,0,,,70,75
85440,note_on,240,0,3,,,,,,,,,2,,,52,0
85440,note_on,240,0,2,,,,,,,,,1,,,64,0
85440,note_on,0,0,2,,,,,,,,,1,,,61,0
85440,control_change,384,0,1,,,,,,,,,0,64,0,,
85440,note_on,0,0,3,,,,,,,,,2,,,61,62
85536,note_on,96,0,1,,,,,,,,,0,,,70,0
85680,note_on,0,0,2,,,,,,,,,1,,,61,62
85680,note_on,0,0,2,,,,,,,,,1,,,64,62
85680,note_on,240,0,3,,,,,,,,,2,,,61,0
85680,control_change,240,0,2,,,,,,,,,1,64,0,,
85680,note_on,0,0,3,,,,,,,,,2,,,55,62
85680,control_change,0,0,3,,,,,,,,,2,64,0,,
85920,note_on,384,0,1,,,,,,,,,0,,,76,101
85920,note_on,240,0,3,,,,,,,,,2,,,55,0
85920,note_on,240,0,2,,,,,,,,,1,,,64,0
85920,note_on,0,0,2,,,,,,,,,1,,,61,0
86160,note_on,0,0,3,,,,,,,,,2,,,50,62
86160,control_change,240,0,3,,,,,,,,,2,64,127,,
86160,control_change,240,0,2,,,,,,,,,1,64,127,,
86160,note_on,0,0,2,,,,,,,,,1,,,67,62
86160,note_on,0,0,2,,,,,,,,,1,,,59,62
86400,note_on,480,0,1,,,,,,,,,0,,,76,0
86400,note_on,0,0,1,,,,,,,,,0,,,74,75
86400,note_on,0,0,3,,,,,,,,,2,,,43,62
86400,note_on,240,0,3,,,,,,,,,2,,,50,0
86640,note_on,480,0,2,,,,,,,,,1,,,67,0
86640,note_on,0,0,2,,,,,,,,,1,,,67,62
86640,note_on,0,0,2,,,,,,,,,1,,,59,62
86640,note_on,240,0,3,,,,,,,,,2,,,43,0
86640,note_on,0,0,2,,,,,,,,,1,,,59,0
86640,note_on,0,0,3,,,,,,,,,2,,,50,62
86880,note_on,240,0,3,,,,,,,,,2,,,50,0
86880,note_on,0,0,3,,,,,,,,,2,,,55,62
86880,note_on,240,0,2,,,,,,,,,1,,,67,0
86880,note_on,0,0,2,,,,,,,,,1,,,59,0
87120,note_on,240,0,3,,,,,,,,,2,,,55,0
87120,note_on,240,0,2,,,,,,,,,1,,,59,62
87120,note_on,0,0,2,,,,,,,,,1,,,67,62
87120,note_on,0,0,3,,,,,,,,,2,,,50,62
87360,note_on,0,0,2,,,,,,,,,1,,,59,0
87360,note_on,0,0,1,,,,,,,,,0,,,72,75
87360,note_on,0,0,1,,,,,,,,,0,,,76,75
87360,note_on,0,0,3,,,,,,,,,2,,,62,62
87360,note_on,240,0,2,,,,,,,,,1,,,67,0
87360,note_on,240,0,3,,,,,,,,,2,,,50,0
87360,note_on,960,0,1,,,,,,,,,0,,,74,0
87600,note_on,0,0,2,,,,,,,,,1,,,67,62
87600,note_on,0,0,3,,,,,,,,,2,,,55,62
87600,control_change,0,0,3,,,,,,,,,2,64,0,,
87600,control_change,240,0,2,,,,,,,,,1,64,0,,
87600,note_on,240,0,3,,,,,,,,,2,,,62,0
87600,note_on,0,0,2,,,,,,,,,1,,,62,62
87720,note_on,0,0,1,,,,,,,,,0,,,72,0
87720,note_on,0,0,1,,,,,,,,,0,,,71,75
87720,note_on,0,0,1,,,,,,,,,0,,,74,75
87720,note_on,360,0,1,,,,,,,,,0,,,76,0
87840,note_on,120,0,1,,,,,,,,,0,,,74,0
87840,note_on,0,0,1,,,,,,,,,0,,,71,0
87840,note_on,0,0,1,,,,,,,,,0,,,71,75
87840,note_on,240,0,3,,,,,,,,,2,,,55,0
87840,note_on,0,0,1,,,,,,,,,0,,,74,75
87840,note_on,240,0,2,,,,,,,,,1,,,67,0
87840,note_on,0,0,2,,,,,,,,,1,,,62,0
88080,note_on,0,0,2,,,,,,,,,1,,,64,62
88080,note_on,240,0,3,,,,,,,,,2,,,43,62
88080,note_on,240,0,2,,,,,,,,,1,,,61,62
88320,note_on,480,0,1,,,,,,,,,0,,,74,0
88320,note_on,0,0,1,,,,,,,,,0,,,73,75
88320,note_on,0,0,1,,,,,,,,,0,,,71,0
88320,note_on,0,0,3,,,,,,,,,2,,,58,62
88320,note_on,0,0,1,,,,,,,,,0,,,70,75
88320,note_on,240,0,3,,,,,,,,,2,,,43,0
88560,note_on,0,0,3,,,,,,,,,2,,,52,62
88560,note_on,240,0,3,,,,,,,,,2,,,58,0
88560,note_on,0,0,2,,,,,,,,,1,,,61,0
88560,note_on,0,0,2,,,,,,,,,1,,,61,62
88560,note_on,0,0,2,,,,,,,,,1,,,64,62
88560,note_on,480,0,2,,,,,,,,,1,,,64,0
88800,note_on,0,0,1,,,,,,,,,0,,,70,0
88800,note_on,0,0,1,,,,,,,,,0,,,70,75
88800,note_on,480,0,1,,,,,,,,,0,,,73,0
88800,note_on,0,0,1,,,,,,,,,0,,,73,75
88800,control_change,0,0,1,,,,,,,,,0,64,127,,
88800,note_on,0,0,3,,,,,,,,,2,,,42,88
88800,note_on,0,0,2,,,,,,,,,1,,,61,0
88800,note_on,240,0,2,,,,,,,,,1,,,64,0
88800,note_on,240,0,3,,,,,,,,,2,,,52,0
88896,note_on,0,0,1,,,,,,,,,0,,,70,0
88896,note_on,96,0,1,,,,,,,,,0,,,73,0
89040,note_on,240,0,3,,,,,,,,,2,,,42,0
89040,note_on,240,0,2,,,,,,,,,1,,,61,62
89040,note_on,0,0,2,,,,,,,,,1,,,66,62
89040,note_on,0,0,3,,,,,,,,,2,,,58,62
89280,control_change,384,0,1,,,,,,,,,0,64,0,,
89280,note_on,240,0,3,,,,,,,,,2,,,58,0
89280,note_on,240,0,2,,,,,,,,,1,,,66,0
89280,note_on,0,0,2,,,,,,,,,1,,,61,0
89280,note_on,0,0,1,,,,,,,,,0,,,73,75
89280,note_on,0,0,1,,,,,,,,,0,,,70,75
89280,note_on,0,0,3,,,,,,,,,2,,,40,88
89376,note_on,96,0,1,,,,,,,,,0,,,73,0
89376,note_on,0,0,1,,,,,,,,,0,,,70,0
89520,note_on,240,0,2,,,,,,,,,1,,,61,62
89520,note_on,0,0,3,,,,,,,,,2,,,58,62
89520,note_on,0,0,2,,,,,,,,,1,,,67,62
89520,note_on,240,0,3,,,,,,,,,2,,,40,0
89760,note_on,240,0,2,,,,,,,,,1,,,67,0
89760,note_on,0,0,2,,,,,,,,,1,,,61,0
89760,note_on,0,0,1,,,,,,,,,0,,,79,101
89760,note_on,240,0,3,,,,,,,,,2,,,58,0
89760,note_on,384,0,1,,,,,,,,,0,,,76,101
90000,note_on,240,0,3,,,,,,,,,2,,,38,62
90240,note_on,0,0,3,,,,,,,,,2,,,59,62
90240,note_on,480,0,1,,,,,,,,,0,,,79,0
90240,note_on,0,0,3,,,,,,,,,2,,,66,62
90240,note_on,0,0,1,,,,,,,,,0,,,76,0
90240,note_on,0,0,1,,,,,,,,,0,,,78,75
90240,note_on,240,0,3,,,,,,,,,2,,,38,0
90240,note_on,0,0,1,,,,,,,,,0,,,74,75
90480,note_on,240,0,3,,,,,,,,,2,,,66,0
90480,note_on,0,0,3,,,,,,,,,2,,,54,62
90480,note_on,0,0,3,,,,,,,,,2,,,59,0
90480,note_on,0,0,3,,,,,,,,,2,,,62,62
90720,note_on,0,0,3,,,,,,,,,2,,,54,0
90720,note_on,240,0,3,,,,,,,,,2,,,62,0
90960,note_on,720,0,1,,,,,,,,,0,,,78,0
90960,note_on,240,0,3,,,,,,,,,2,,,40,62
90960,note_on,0,0,1,,,,,,,,,0,,,72,75
90960,note_on,0,0,1,,,,,,,,,0,,,74,0
90960,note_on,0,0,1,,,,,,,,,0,,,76,75
91140,note_on,180,0,1,,,,,,,,,0,,,79,75
91200,note_on,60,0,1,,,,,,,,,0,,,79,0
91200,note_on,240,0,3,,,,,,,,,2,,,40,0
91200,note_on,0,0,1,,,,,,,,,0,,,72,0
91200,note_on,0,0,1,,,,,,,,,0,,,74,75
91200,note_on,0,0,1,,,,,,,,,0,,,76,0
91200,note_on,0,0,1,,,,,,,,,0,,,78,75
91200,note_on,0,0,3,,,,,,,,,2,,,55,62
91200,note_on,0,0,3,,,,,,,,,2,,,64,62
91440,note_on,0,0,1,,,,,,,,,0,,,76,75
91440,note_on,0,0,3,,,,,,,,,2,,,52,62
91440,note_on,0,0,1,,,,,,,,,0,,,74,0
91440,note_on,0,0,3,,,,,,,,,2,,,60,62
91440,note_on,240,0,1,,,,,,,,,0,,,78,0
91440,note_on,240,0,3,,,,,,,,,2,,,64,0
91440,note_on,0,0,1,,,,,,,,,0,,,72,75
91440,note_on,0,0,3,,,,,,,,,2,,,55,0
91680,note_on,0,0,3,,,,,,,,,2,,,52,0
91680,note_on,240,0,3,,,,,,,,,2,,,60,0
91680,note_on,240,0,1,,,,,,,,,0,,,76,0
91680,note_on,0,0,1,,,,,,,,,0,,,72,0
91680,note_on,0,0,1,,,,,,,,,0,,,72,101
91680,note_on,0,0,1,,,,,,,,,0,,,76,101
91920,note_on,240,0,3,,,,,,,,,2,,,42,62
92160,note_on,0,0,1,,,,,,,,,0,,,72,0
92160,note_on,240,0,3,,,,,,,,,2,,,42,0
92160,note_on,0,0,3,,,,,,,,,2,,,62,62
92160,note_on,0,0,3,,,,,,,,,2,,,54,62
92160,note_on,0,0,1,,,,,,,,,0,,,71,75
92160,note_on,0,0,1,,,,,,,,,0,,,74,75
92160,note_on,480,0,1,,,,,,,,,0,,,76,0
92400,note_on,240,0,3,,,,,,,,,2,,,62,0
92400,note_on,0,0,3,,,,,,,,,2,,,54,0
92400,note_on,0,0,3,,,,,,,,,2,,,50,62
92400,note_on,0,0,3,,,,,,,,,2,,,59,62
92640,note_on,240,0,3,,,,,,,,,2,,,59,0
92640,note_on,0,0,3,,,,,,,,,2,,,50,0
92880,note_on,0,0,1,,,,,,,,,0,,,71,0
92880,note_on,0,0,1,,,,,,,,,0,,,70,62
92880,note_on,720,0,1,,,,,,,,,0,,,74,0
92880,note_on,0,0,1,,,,,,,,,0,,,73,62
92880,note_on,240,0,3,,,,,,,,,2,,,40,62
93120,note_on,240,0,3,,,,,,,,,2,,,40,0
93120,note_on,0,0,3,,,,,,,,,2,,,61,62
93120,note_on,0,0,1,,,,,,,,,0,,,70,0
93120,note_on,240,0,1,,,,,,,,,0,,,73,0
93120,note_on,0,0,1,,,,,,,,,0,,,74,62
93120,note_on,0,0,1,,,,,,,,,0,,,71,62
93120,note_on,0,0,3,,,,,,,,,2,,,54,62
93360,note_on,0,0,1,,,,,,,,,0,,,73,75
93360,note_on,240,0,1,,,,,,,,,0,,,74,0
93360,note_on,0,0,3,,,,,,,,,2,,,54,0
93360,note_on,0,0,3,,,,,,,,,2,,,58,62
93360,note_on,0,0,3,,,,,,,,,2,,,66,62
93360,note_on,0,0,1,,,,,,,,,0,,,71,0
93360,note_on,240,0,3,,,,,,,,,2,,,61,0
93360,note_on,0,0,1,,,,,,,,,0,,,76,75
93600,note_on,240,0,3,,,,,,,,,2,,,66,0
93600,note_on,240,0,1,,,,,,,,,0,,,76,0
93600,note_on,0,0,1,,,,,,,,,0,,,76,75
93600,note_on,0,0,1,,,,,,,,,0,,,73,0
93600,note_on,0,0,3,,,,,,,,,2,,,58,0
93600,note_on,0,0,1,,,,,,,,,0,,,79,75
93840,note_on,0,0,1,,,,,,,,,0,,,76,0
93840,note_on,240,0,3,,,,,,,,,2,,,38,62
93840,note_on,0,0,1,,,,,,,,,0,,,74,75
93840,note_on,240,0,1,,,,,,,,,0,,,79,0
93840,note_on,0,0,1,,,,,,,,,0,,,78,75
94080,note_on,240,0,3,,,,,,,,,2,,,38,0
94080,note_on,0,0,1,,,,,,,,,0,,,81,101
94080,note_on,0,0,1,,,,,,,,,0,,,74,0
94080,control_change,0,0,1,,,,,,,,,0,64,127,,
94080,note_on,0,0,3,,,,,,,,,2,,,66,62
94080,note_on,0,0,3,,,,,,,,,2,,,59,62
94080,note_on,240,0,1,,,,,,,,,0,,,78,0
94080,note_on,0,0,1,,,,,,,,,0,,,78,101
94320,note_on,240,0,3,,,,,,,,,2,,,66,0
94320,note_on,0,0,3,,,,,,,,,2,,,62,62
94320,note_on,0,0,3,,,,,,,,,2,,,59,0
94320,note_on,0,0,3,,,,,,,,,2,,,54,62
94560,note_on,0,0,3,,,,,,,,,2,,,54,0
94560,note_on,240,0,3,,,,,,,,,2,,,62,0
94719,note_on,0,0,1,,,,,,,,,0,,,79,75
94719,note_on,0,0,1,,,,,,,,,0,,,78,0
94719,note_on,0,0,1,,,,,,,,,0,,,76,75
94719,note_on,639,0,1,,,,,,,,,0,,,81,0
94800,note_on,240,0,3,,,,,,,,,2,,,40,62
94880,note_on,0,0,1,,,,,,,,,0,,,74,75
94880,note_on,0,0,1,,,,,,,,,0,,,78,75
94880,note_on,161,0,1,,,,,,,,,0,,,79,0
94880,note_on,0,0,1,,,,,,,,,0,,,76,0
95040,note_on,0,0,1,,,,,,,,,0,,,74,0
95040,note_on,0,0,1,,,,,,,,,0,,,76,75
95040,note_on,0,0,1,,,,,,,,,0,,,79,75
95040,note_on,240,0,3,,,,,,,,,2,,,40,0
95040,note_on,160,0,1,,,,,,,,,0,,,78,0
95040,note_on,0,0,3,,,,,,,,,2,,,55,62
95040,note_on,0,0,3,,,,,,,,,2,,,64,62
95199,note_on,0,0,1,,,,,,,,,0,,,78,75
95199,note_on,159,0,1,,,,,,,,,0,,,79,0
95199,note_on,0,0,1,,,,,,,,,0,,,76,0
95199,note_on,0,0,1,,,,,,,,,0,,,74,75
95280,note_on,0,0,3,,,,,,,,,2,,,55,0
95280,note_on,0,0,3,,,,,,,,,2,,,60,62
95280,note_on,240,0,3,,,,,,,,,2,,,64,0
95280,note_on,0,0,3,,,,,,,,,2,,,52,62
95360,note_on,161,0,1,,,,,,,,,0,,,78,0
95360,control_change,0,0,1,,,,,,,,,0,64,0,,
95360,note_on,0,0,1,,,,,,,,,0,,,76,75
95360,note_on,0,0,1,,,,,,,,,0,,,74,0
95360,note_on,0,0,1,,,,,,,,,0,,,72,75
95520,note_on,0,0,3,,,,,,,,,2,,,52,0
95520,note_on,160,0,1,,,,,,,,,0,,,76,0
95520,note_on,240,0,3,,,,,,,,,2,,,60,0
95520,note_on,0,0,1,,,,,,,,,0,,,76,75
95520,note_on,0,0,1,,,,,,,,,0,,,72,75
95520,note_on,0,0,1,,,,,,,,,0,,,72,0
95520,control_change,0,0,1,,,,,,,,,0,64,127,,
95760,note_on,0,0,1,,,,,,,,,0,,,74,75
95760,note_on,0,0,1,,,,,,,,,0,,,72,0
95760,note_on,0,0,1,,,,,,,,,0,,,71,75
95760,note_on,240,0,3,,,,,,,,,2,,,42,62
95760,note_on,240,0,1,,,,,,,,,0,,,76,0
95880,note_on,0,0,1,,,,,,,,,0,,,71,0
95880,note_on,0,0,1,,,,,,,,,0,,,72,75
95880,note_on,0,0,1,,,,,,,,,0,,,76,75
95880,note_on,120,0,1,,,,,,,,,0,,,74,0
95940,note_on,0,0,1,,,,,,,,,0,,,71,75
95940,note_on,60,0,1,,,,,,,,,0,,,76,0
95940,note_on,0,0,1,,,,,,,,,0,,,72,0
95940,note_on,0,0,1,,,,,,,,,0,,,74,75
96000,note_on,0,0,3,,,,,,,,,2,,,62,62
96000,note_on,0,0,3,,,,,,,,,2,,,54,62
96000,note_on,240,0,3,,,,,,,,,2,,,42,0
96000,note_on,0,0,1,,,,,,,,,0,,,70,75
96000,note_on,0,0,1,,,,,,,,,0,,,71,0
96000,note_on,0,0,1,,,,,,,,,0,,,73,75
96000,note_on,60,0,1,,,,,,,,,0,,,74,0
96240,note_on,0,0,3,,,,,,,,,2,,,54,0
96240,note_on,0,0,3,,,,,,,,,2,,,50,62
96240,control_change,0,0,1,,,,,,,,,0,64,0,,
96240,note_on,0,0,1,,,,,,,,,0,,,71,75
96240,note_on,0,0,1,,,,,,,,,0,,,74,75
96240,note_on,240,0,1,,,,,,,,,0,,,73,0
96240,note_on,240,0,3,,,,,,,,,2,,,62,0
96240,note_on,0,0,3,,,,,,,,,2,,,59,62
96240,note_on,0,0,1,,,,,,,,,0,,,70,0
96480,control_change,0,0,1,,,,,,,,,0,64,127,,
96480,note_on,0,0,1,,,,,,,,,0,,,71,0
96480,note_on,0,0,1,,,,,,,,,0,,,42,75
96480,note_on,240,0,3,,,,,,,,,2,,,59,0
96480,note_on,240,0,1,,,,,,,,,0,,,74,0
96480,note_on,0,0,3,,,,,,,,,2,,,50,0
96540,note_on,0,0,1,,,,,,,,,0,,,49,75
96540,note_on,60,0,1,,,,,,,,,0,,,42,0
96600,note_on,60,0,1,,,,,,,,,0,,,49,0
96600,note_on,0,0,1,,,,,,,,,0,,,58,75
96660,note_on,60,0,1,,,,,,,,,0,,,58,0
96660,note_on,0,0,1,,,,,,,,,0,,,64,75
96720,note_on,0,0,1,,,,,,,,,0,,,70,75
96720,note_on,60,0,1,,,,,,,,,0,,,64,0
96780,note_on,0,0,1,,,,,,,,,0,,,78,75
96780,note_on,60,0,1,,,,,,,,,0,,,70,0
97020,note_on,0,0,1,,,,,,,,,0,,,73,75
97020,note_on,0,0,1,,,,,,,,,0,,,64,75
97020,control_change,0,0,1,,,,,,,,,0,64,0,,
97020,note_on,240,0,1,,,,,,,,,0,,,78,0
97260,note_on,0,0,1,,,,,,,,,0,,,67,101
97260,note_on,0,0,1,,,,,,,,,0,,,76,101
97260,control_change,0,0,1,,,,,,,,,0,64,127,,
97260,note_on,240,0,1,,,,,,,,,0,,,73,0
97260,note_on,0,0,1,,,,,,,,,0,,,64,0
98559,note_on,0,0,1,,,,,,,,,0,,,67,0
98559,note_on,0,0,1,,,,,,,,,0,,,75,75
98559,note_on,1299,0,1,,,,,,,,,0,,,76,0
98559,note_on,0,0,1,,,,,,,,,0,,,66,75
98720,note_on,161,0,1,,,,,,,,,0,,,75,0
98720,note_on,0,0,1,,,,,,,,,0,,,74,75
98720,note_on,0,0,1,,,,,,,,,0,,,66,0
98720,note_on,0,0,1,,,,,,,,,0,,,65,75
98880,note_on,0,0,1,,,,,,,,,0,,,65,0
98880,note_on,0,0,1,,,,,,,,,0,,,73,75
98880,note_on,0,0,1,,,,,,,,,0,,,64,75
98880,note_on,160,0,1,,,,,,,,,0,,,74,0
99039,note_on,159,0,1,,,,,,,,,0,,,73,0
99039,note_on,0,0,1,,,,,,,,,0,,,63,75
99039,note_on,0,0,1,,,,,,,,,0,,,64,0
99039,note_on,0,0,1,,,,,,,,,0,,,72,75
99200,note_on,0,0,1,,,,,,,,,0,,,62,75
99200,note_on,0,0,1,,,,,,,,,0,,,71,75
99200,note_on,161,0,1,,,,,,,,,0,,,72,0
99200,note_on,0,0,1,,,,,,,,,0,,,63,0
99360,note_on,0,0,1,,,,,,,,,0,,,61,88
99360,note_on,0,0,1,,,,,,,,,0,,,62,0
99360,note_on,160,0,1,,,,,,,,,0,,,71,0
99360,note_on,0,0,1,,,,,,,,,0,,,70,88
99360,time_signature,24960,1,0,2,4,24,8,,,,,,,,,
99519,note_on,159,0,1,,,,,,,,,0,,,70,0
99519,note_on,0,0,1,,,,,,,,,0,,,61,0
99519,note_on,0,0,1,,,,,,,,,0,,,69,88
99519,note_on,0,0,1,,,,,,,,,0,,,60,88
99680,note_on,161,0,1,,,,,,,,,0,,,69,0
99680,note_on,0,0,1,,,,,,,,,0,,,59,88
99680,note_on,0,0,1,,,,,,,,,0,,,60,0
99680,note_on,0,0,1,,,,,,,,,0,,,68,88
99840,note_on,160,0,1,,,,,,,,,0,,,68,0
99840,note_on,0,0,1,,,,,,,,,0,,,67,88
99840,note_on,0,0,1,,,,,,,,,0,,,58,88
99840,note_on,0,0,1,,,,,,,,,0,,,59,0
99999,note_on,0,0,1,,,,,,,,,0,,,66,88
99999,note_on,0,0,1,,,,,,,,,0,,,58,0
99999,note_on,0,0,1,,,,,,,,,0,,,57,88
99999,note_on,159,0,1,,,,,,,,,0,,,67,0
100160,note_on,0,0,1,,,,,,,,,0,,,56,88
100160,control_change,0,0,1,,,,,,,,,0,64,0,,
100160,note_on,0,0,1,,,,,,,,,0,,,57,0
100160,note_on,161,0,1,,,,,,,,,0,,,66,0
100160,note_on,0,0,1,,,,,,,,,0,,,65,88
100320,note_on,3840,0,3,,,,,,,,,2,,,55,114
100320,time_signature,960,1,0,4,4,24,8,,,,,,,,,
100320,note_on,160,0,1,,,,,,,,,0,,,65,0
100320,note_on,0,0,3,,,,,,,,,2,,,64,114
100320,note_on,0,0,1,,,,,,,,,0,,,56,0
102240,note_on,1920,0,3,,,,,,,,,2,,,64,0
102240,set_tempo,0,1,0,,,,,,600000,,,,,,,
102240,time_signature,1920,1,0,2,4,24,8,,,,,,,,,
102240,note_on,0,0,3,,,,,,,,,2,,,63,75
102240,control_change,0,0,3,,,,,,,,,2,64,127,,
102240,note_on,0,0,3,,,,,,,,,2,,,55,0
102240,note_on,0,0,3,,,,,,,,,2,,,54,75
102480,note_on,240,0,3,,,,,,,,,2,,,63,0
102480,note_on,0,0,3,,,,,,,,,2,,,55,101
102480,note_on,0,0,3,,,,,,,,,2,,,64,101
102480,note_on,0,0,3,,,,,,,,,2,,,54,0
102720,note_on,0,0,3,,,,,,,,,2,,,58,75
102720,note_on,240,0,3,,,,,,,,,2,,,55,0
102960,note_on,240,0,3,,,,,,,,,2,,,58,0
102960,note_on,0,0,3,,,,,,,,,2,,,54,75
102960,note_on,0,0,3,,,,,,,,,2,,,59,75
102960,note_on,0,0,3,,,,,,,,,2,,,63,75
102960,note_on,0,0,3,,,,,,,,,2,,,64,0
102960,control_change,0,0,3,,,,,,,,,2,64,0,,
103200,note_on,0,0,3,,,,,,,,,2,,,59,0
103200,time_signature,960,1,0,5,4,24,8,,,,,,,,,
103200,control_change,0,0,3,,,,,,,,,2,64,127,,
103200,note_on,0,0,3,,,,,,,,,2,,,54,49
103200,set_tempo,0,1,0,,,,,,600000,,,,,,,
103200,note_on,0,0,3,,,,,,,,,2,,,54,0
103200,note_on,240,0,3,,,,,,,,,2,,,63,0
103200,note_on,2880,0,1,,,,,,,,,0,,,63,88
103200,key_signature,0,1,0,,,,,B,,,,,,,,
103359,note_on,159,0,3,,,,,,,,,2,,,54,0
103359,note_on,0,0,3,,,,,,,,,2,,,56,49
103520,note_on,0,0,3,,,,,,,,,2,,,47,49
103520,note_on,161,0,3,,,,,,,,,2,,,56,0
103680,note_on,0,0,1,,,,,,,,,0,,,62,88
103680,note_on,480,0,1,,,,,,,,,0,,,63,0
103680,note_on,0,0,3,,,,,,,,,2,,,53,49
103680,note_on,160,0,3,,,,,,,,,2,,,47,0
103839,control_change,0,0,1,,,,,,,,,0,64,127,,
103839,note_on,0,0,1,,,,,,,,,0,,,59,62
103839,note_on,0,0,1,,,,,,,,,0,,,68,62
103839,note_on,159,0,1,,,,,,,,,0,,,62,0
103920,note_on,240,0,3,,,,,,,,,2,,,53,0
104000,note_on,0,0,1,,,,,,,,,0,,,74,49
104000,note_on,161,0,1,,,,,,,,,0,,,68,0
104000,note_on,0,0,1,,,,,,,,,0,,,65,49
104000,note_on,0,0,1,,,,,,,,,0,,,59,0
104160,note_on,0,0,1,,,,,,,,,0,,,80,49
104160,note_on,0,0,1,,,,,,,,,0,,,71,49
104160,note_on,0,0,1,,,,,,,,,0,,,65,0
104160,note_on,160,0,1,,,,,,,,,0,,,74,0
104319,note_on,0,0,1,,,,,,,,,0,,,86,49
104319,note_on,0,0,1,,,,,,,,,0,,,77,49
104319,note_on,0,0,1,,,,,,,,,0,,,71,0
104319,note_on,159,0,1,,,,,,,,,0,,,80,0
104400,control_change,480,0,3,,,,,,,,,2,64,0,,
104480,note_on,0,0,1,,,,,,,,,0,,,77,0
104480,note_on,0,0,1,,,,,,,,,0,,,83,49
104480,note_on,0,0,1,,,,,,,,,0,,,92,49
104480,note_on,161,0,1,,,,,,,,,0,,,86,0
104640,note_on,0,0,1,,,,,,,,,0,,,83,0
104640,note_on,160,0,1,,,,,,,,,0,,,92,0
104640,control_change,0,0,1,,,,,,,,,0,64,0,,
105120,note_on,720,0,3,,,,,,,,,2,,,54,49
105120,note_on,480,0,1,,,,,,,,,0,,,54,88
105120,note_on,0,0,1,,,,,,,,,0,,,63,88
105279,note_on,0,0,3,,,,,,,,,2,,,58,49
105279,note_on,0,0,3,,,,,,,,,2,,,55,49
105279,note_on,159,0,3,,,,,,,,,2,,,54,0
105440,note_on,0,0,1,,,,,,,,,0,,,52,62
105440,note_on,0,0,1,,,,,,,,,0,,,54,0
105440,note_on,0,0,1,,,,,,,,,0,,,61,62
105440,note_on,0,0,3,,,,,,,,,2,,,52,49
105440,note_on,320,0,1,,,,,,,,,0,,,63,0
105440,note_on,161,0,3,,,,,,,,,2,,,58,0
105440,note_on,0,0,3,,,,,,,,,2,,,55,0
105600,note_on,0,0,1,,,,,,,,,0,,,61,62
105600,note_on,0,0,1,,,,,,,,,0,,,52,62
105600,note_on,0,0,1,,,,,,,,,0,,,52,0
105600,control_change,0,0,3,,,,,,,,,2,64,127,,
105600,note_on,160,0,1,,,,,,,,,0,,,61,0
105600,note_on,0,0,3,,,,,,,,,2,,,52,49
105600,note_on,160,0,3,,,,,,,,,2,,,52,0
105759,note_on,159,0,3,,,,,,,,,2,,,52,0
105759,note_on,0,0,3,,,,,,,,,2,,,54,49
105920,note_on,161,0,3,,,,,,,,,2,,,54,0
105920,note_on,0,0,3,,,,,,,,,2,,,47,49
106080,note_on,0,0,1,,,,,,,,,0,,,52,0
106080,note_on,0,0,3,,,,,,,,,2,,,51,49
106080,note_on,480,0,1,,,,,,,,,0,,,61,0
106080,note_on,0,0,1,,,,,,,,,0,,,59,62
106080,note_on,0,0,1,,,,,,,,,0,,,51,62
106080,note_on,160,0,3,,,,,,,,,2,,,47,0
106239,note_on,0,0,1,,,,,,,,,0,,,66,49
106239,note_on,159,0,1,,,,,,,,,0,,,59,0
106239,note_on,0,0,1,,,,,,,,,0,,,54,49
106239,note_on,0,0,1,,,,,,,,,0,,,51,0
106239,control_change,0,0,1,,,,,,,,,0,64,127,,
106320,note_on,240,0,3,,,,,,,,,2,,,51,0
106400,note_on,0,0,1,,,,,,,,,0,,,63,49
106400,note_on,161,0,1,,,,,,,,,0,,,66,0
106400,note_on,0,0,1,,,,,,,,,0,,,71,49
106400,note_on,0,0,1,,,,,,,,,0,,,54,0
106560,note_on,0,0,1,,,,,,,,,0,,,78,49
106560,note_on,160,0,1,,,,,,,,,0,,,71,0
106560,note_on,0,0,1,,,,,,,,,0,,,66,49
106560,note_on,0,0,1,,,,,,,,,0,,,63,0
106719,note_on,0,0,1,,,,,,,,,0,,,83,49
106719,note_on,0,0,1,,,,,,,,,0,,,66,0
106719,note_on,0,0,1,,,,,,,,,0,,,75,49
106719,note_on,159,0,1,,,,,,,,,0,,,78,0
106880,note_on,0,0,1,,,,,,,,,0,,,90,49
106880,note_on,0,0,1,,,,,,,,,0,,,78,49
106880,note_on,0,0,1,,,,,,,,,0,,,75,0
106880,note_on,161,0,1,,,,,,,,,0,,,83,0
107040,note_on,0,0,1,,,,,,,,,0,,,78,0
107040,control_change,720,0,3,,,,,,,,,2,64,0,,
107040,control_change,0,0,1,,,,,,,,,0,64,0,,
107040,note_on,160,0,1,,,,,,,,,0,,,90,0
107520,note_on,0,0,1,,,,,,,,,0,,,58,88
107520,note_on,480,0,1,,,,,,,,,0,,,49,88
107520,note_on,480,0,3,,,,,,,,,2,,,49,49
107679,note_on,0,0,3,,,,,,,,,2,,,50,49
107679,note_on,159,0,3,,,,,,,,,2,,,49,0
107840,note_on,0,0,1,,,,,,,,,0,,,47,62
107840,note_on,0,0,1,,,,,,,,,0,,,49,0
107840,note_on,0,0,1,,,,,,,,,0,,,56,62
107840,note_on,0,0,3,,,,,,,,,2,,,41,49
107840,note_on,161,0,3,,,,,,,,,2,,,50,0
107840,note_on,320,0,1,,,,,,,,,0,,,58,0
108000,note_on,160,0,3,,,,,,,,,2,,,41,0
108000,time_signature,4800,1,0,4,4,24,8,,,,,,,,,
108000,note_on,160,0,1,,,,,,,,,0,,,56,0
108000,note_on,0,0,1,,,,,,,,,0,,,56,62
108000,note_on,0,0,1,,,,,,,,,0,,,52,62
108000,note_on,0,0,1,,,,,,,,,0,,,47,0
108159,control_change,159,0,3,,,,,,,,,2,64,127,,
108159,note_on,0,0,3,,,,,,,,,2,,,42,49
108320,note_on,161,0,3,,,,,,,,,2,,,42,0
108320,note_on,0,0,3,,,,,,,,,2,,,47,49
108480,note_on,480,0,1,,,,,,,,,0,,,56,0
108480,note_on,0,0,3,,,,,,,,,2,,,51,49
108480,note_on,160,0,3,,,,,,,,,2,,,47,0
108480,note_on,0,0,1,,,,,,,,,0,,,52,0
108480,note_on,0,0,1,,,,,,,,,0,,,54,62
108639,note_on,0,0,3,,,,,,,,,2,,,47,49
108639,note_on,159,0,3,,,,,,,,,2,,,51,0
108720,note_on,240,0,1,,,,,,,,,0,,,54,0
108800,note_on,161,0,3,,,,,,,,,2,,,47,0
108800,note_on,0,0,3,,,,,,,,,2,,,42,49
108960,note_on,240,0,1,,,,,,,,,0,,,54,88
108960,note_on,0,0,1,,,,,,,,,0,,,58,88
108960,note_on,0,0,1,,,,,,,,,0,,,63,88
108960,note_on,160,0,3,,,,,,,,,2,,,42,0
109119,note_on,159,0,3,,,,,,,,,2,,,42,49
109280,note_on,161,0,3,,,,,,,,,2,,,42,0
109280,note_on,0,0,3,,,,,,,,,2,,,52,49
109440,note_on,160,0,3,,,,,,,,,2,,,52,0
109440,note_on,0,0,3,,,,,,,,,2,,,58,49
109599,note_on,0,0,3,,,,,,,,,2,,,66,49
109599,note_on,159,0,3,,,,,,,,,2,,,58,0
109680,note_on,0,0,1,,,,,,,,,0,,,58,0
109680,note_on,0,0,1,,,,,,,,,0,,,61,62
109680,note_on,720,0,1,,,,,,,,,0,,,63,0
109680,note_on,0,0,1,,,,,,,,,0,,,52,62
109680,note_on,0,0,1,,,,,,,,,0,,,54,0
109760,note_on,161,0,3,,,,,,,,,2,,,66,0
109760,control_change,0,0,3,,,,,,,,,2,64,0,,
109920,note_on,240,0,1,,,,,,,,,0,,,61,0
109920,note_on,0,0,1,,,,,,,,,0,,,52,0
109920,time_signature,1920,1,0,5,4,24,8,,,,,,,,,
109920,note_on,0,0,1,,,,,,,,,0,,,59,62
109920,note_on,0,0,1,,,,,,,,,0,,,51,62
110079,control_change,319,0,3,,,,,,,,,2,64,127,,
110079,note_on,0,0,3,,,,,,,,,2,,,35,49
110240,note_on,161,0,3,,,,,,,,,2,,,35,0
110240,note_on,0,0,3,,,,,,,,,2,,,42,49
110400,note_on,0,0,1,,,,,,,,,0,,,51,0
110400,note_on,160,0,3,,,,,,,,,2,,,42,0
110400,note_on,480,0,1,,,,,,,,,0,,,59,0
110400,note_on,0,0,3,,,,,,,,,2,,,47,49
110559,note_on,159,0,3,,,,,,,,,2,,,47,0
110559,note_on,0,0,3,,,,,,,,,2,,,54,49
110720,note_on,161,0,3,,,,,,,,,2,,,54,0
110720,note_on,0,0,3,,,,,,,,,2,,,59,49
110880,note_on,160,0,3,,,,,,,,,2,,,59,0
110880,note_on,0,0,3,,,,,,,,,2,,,66,49
111039,control_change,639,0,1,,,,,,,,,0,64,127,,
111039,note_on,0,0,3,,,,,,,,,2,,,71,49
111039,note_on,0,0,3,,,,,,,,,2,,,65,49
111039,note_on,159,0,3,,,,,,,,,2,,,66,0
111039,note_on,0,0,1,,,,,,,,,0,,,74,62
111120,note_on,81,0,1,,,,,,,,,0,,,77,62
111120,note_on,0,0,1,,,,,,,,,0,,,86,62
111200,note_on,161,0,3,,,,,,,,,2,,,71,0
111200,note_on,0,0,1,,,,,,,,,0,,,75,62
111200,note_on,0,0,3,,,,,,,,,2,,,65,0
111200,note_on,0,0,3,,,,,,,,,2,,,66,49
111200,note_on,0,0,3,,,,,,,,,2,,,71,49
111200,note_on,80,0,1,,,,,,,,,0,,,86,0
111200,note_on,0,0,1,,,,,,,,,0,,,74,0
111200,note_on,0,0,1,,,,,,,,,0,,,77,0
111279,note_on,79,0,1,,,,,,,,,0,,,78,62
111279,note_on,0,0,1,,,,,,,,,0,,,87,62
111360,note_on,0,0,1,,,,,,,,,0,,,78,0
111360,note_on,0,0,1,,,,,,,,,0,,,75,0
111360,note_on,81,0,1,,,,,,,,,0,,,87,0
111360,note_on,160,0,3,,,,,,,,,2,,,71,0
111360,note_on,0,0,1,,,,,,,,,0,,,78,88
111360,note_on,0,0,3,,,,,,,,,2,,,70,49
111360,note_on,0,0,3,,,,,,,,,2,,,66,0
111360,note_on,0,0,3,,,,,,,,,2,,,71,49
111920,note_on,0,0,1,,,,,,,,,0,,,90,62
111920,note_on,0,0,1,,,,,,,,,0,,,82,62
111920,note_on,560,0,1,,,,,,,,,0,,,78,0
111999,note_on,0,0,1,,,,,,,,,0,,,76,62
111999,note_on,79,0,1,,,,,,,,,0,,,90,0
111999,note_on,0,0,1,,,,,,,,,0,,,82,0
111999,note_on,639,0,3,,,,,,,,,2,,,71,0
111999,note_on,0,0,3,,,,,,,,,2,,,68,49
111999,note_on,0,0,3,,,,,,,,,2,,,70,0
112080,note_on,81,0,1,,,,,,,,,0,,,76,0
112080,note_on,0,0,1,,,,,,,,,0,,,88,62
112080,note_on,0,0,1,,,,,,,,,0,,,80,62
112160,control_change,0,0,3,,,,,,,,,2,64,0,,
112160,note_on,0,0,1,,,,,,,,,0,,,80,0
112160,note_on,0,0,3,,,,,,,,,2,,,71,49
112160,note_on,161,0,3,,,,,,,,,2,,,68,0
112160,note_on,0,0,1,,,,,,,,,0,,,75,62
112160,note_on,0,0,3,,,,,,,,,2,,,66,49
112160,note_on,80,0,1,,,,,,,,,0,,,88,0
112239,note_on,0,0,1,,,,,,,,,0,,,78,62
112239,note_on,0,0,1,,,,,,,,,0,,,87,62
112239,control_change,0,0,1,,,,,,,,,0,64,0,,
112239,note_on,79,0,1,,,,,,,,,0,,,75,0
112260,note_on,21,0,1,,,,,,,,,0,,,75,88
112320,note_on,0,0,1,,,,,,,,,0,,,87,88
112320,time_signature,2400,1,0,6,4,24,8,,,,,,,,,
112320,note_on,60,0,1,,,,,,,,,0,,,87,0
112320,note_on,160,0,3,,,,,,,,,2,,,71,0
112320,note_on,0,0,1,,,,,,,,,0,,,78,0
112320,note_on,0,0,3,,,,,,,,,2,,,66,0
112479,control_change,22719,0,2,,,,,,,,,1,64,127,,
112479,note_on,0,0,2,,,,,,,,,1,,,77,49
112479,note_on,0,0,2,,,,,,,,,1,,,80,49
112479,control_change,159,0,3,,,,,,,,,2,64,127,,
112479,note_on,0,0,3,,,,,,,,,2,,,35,49
112511,note_on,32,0,3,,,,,,,,,2,,,35,0
112640,note_on,0,0,2,,,,,,,,,1,,,77,49
112640,note_on,0,0,2,,,,,,,,,1,,,80,49
112640,note_on,161,0,2,,,,,,,,,1,,,80,0
112640,note_on,0,0,2,,,,,,,,,1,,,77,0
112640,note_on,129,0,3,,,,,,,,,2,,,47,49
112672,note_on,32,0,3,,,,,,,,,2,,,47,0
112800,note_on,0,0,2,,,,,,,,,1,,,77,49
112800,note_on,0,0,2,,,,,,,,,1,,,80,49
112800,note_on,0,0,1,,,,,,,,,0,,,75,0
112800,note_on,0,0,1,,,,,,,,,0,,,74,62
112800,note_on,0,0,2,,,,,,,,,1,,,77,0
112800,note_on,0,0,1,,,,,,,,,0,,,86,62
112800,note_on,160,0,2,,,,,,,,,1,,,80,0
112800,note_on,480,0,1,,,,,,,,,0,,,87,0
112800,note_on,128,0,3,,,,,,,,,2,,,53,49
112800,note_on,0,0,3,,,,,,,,,2,,,56,49
112831,note_on,31,0,3,,,,,,,,,2,,,56,0
112831,note_on,0,0,3,,,,,,,,,2,,,53,0
112959,note_on,159,0,2,,,,,,,,,1,,,80,0
112959,note_on,128,0,3,,,,,,,,,2,,,56,49
112959,note_on,0,0,2,,,,,,,,,1,,,77,0
112959,note_on,0,0,3,,,,,,,,,2,,,62,49
112959,note_on,0,0,2,,,,,,,,,1,,,80,49
112959,note_on,0,0,2,,,,,,,,,1,,,77,49
112991,note_on,32,0,3,,,,,,,,,2,,,62,0
112991,note_on,0,0,3,,,,,,,,,2,,,56,0
113120,note_on,161,0,2,,,,,,,,,1,,,80,0
113120,note_on,0,0,2,,,,,,,,,1,,,77,0
113120,note_on,0,0,2,,,,,,,,,1,,,77,49
113120,note_on,0,0,2,,,,,,,,,1,,,80,49
113120,note_on,0,0,3,,,,,,,,,2,,,65,49
113120,note_on,129,0,3,,,,,,,,,2,,,62,49
113152,note_on,0,0,3,,,,,,,,,2,,,62,0
113152,note_on,32,0,3,,,,,,,,,2,,,65,0
113280,note_on,0,0,2,,,,,,,,,1,,,80,49
113280,note_on,480,0,1,,,,,,,,,0,,,86,0
113280,note_on,160,0,2,,,,,,,,,1,,,80,0
113280,note_on,128,0,3,,,,,,,,,2,,,65,49
113280,note_on,0,0,1,,,,,,,,,0,,,74,0
113280,note_on,0,0,2,,,,,,,,,1,,,77,49
113280,control_change,0,0,2,,,,,,,,,1,64,0,,
113280,note_on,0,0,3,,,,,,,,,2,,,68,49
113280,note_on,0,0,2,,,,,,,,,1,,,77,0
113327,note_on,47,0,3,,,,,,,,,2,,,68,0
113327,note_on,0,0,3,,,,,,,,,2,,,65,0
113520,note_on,0,0,2,,,,,,,,,1,,,77,0
113520,note_on,240,0,2,,,,,,,,,1,,,80,0
113520,control_change,193,0,3,,,,,,,,,2,64,0,,
113760,control_change,240,0,3,,,,,,,,,2,64,127,,
113760,note_on,0,0,1,,,,,,,,,0,,,73,62
113760,control_change,480,0,1,,,,,,,,,0,64,127,,
113760,note_on,0,0,3,,,,,,,,,2,,,70,49
113775,note_on,15,0,1,,,,,,,,,0,,,73,0
113807,note_on,47,0,3,,,,,,,,,2,,,70,0
113840,note_on,0,0,1,,,,,,,,,0,,,85,62
113840,note_on,65,0,1,,,,,,,,,0,,,76,62
113919,note_on,0,0,1,,,,,,,,,0,,,76,0
113919,note_on,0,0,1,,,,,,,,,0,,,75,88
113919,note_on,79,0,1,,,,,,,,,0,,,85,0
113935,note_on,16,0,1,,,,,,,,,0,,,75,0
114000,note_on,65,0,1,,,,,,,,,0,,,78,62
114000,note_on,0,0,1,,,,,,,,,0,,,87,62
114000,note_on,193,0,3,,,,,,,,,2,,,70,49
114047,note_on,47,0,3,,,,,,,,,2,,,70,0
114240,note_on,240,0,1,,,,,,,,,0,,,87,0
114240,note_on,0,0,1,,,,,,,,,0,,,78,0
114240,note_on,0,0,1,,,,,,,,,0,,,78,88
114240,note_on,193,0,3,,,,,,,,,2,,,70,49
114800,note_on,0,0,1,,,,,,,,,0,,,81,62
114800,note_on,0,0,1,,,,,,,,,0,,,90,62
114800,note_on,560,0,1,,,,,,,,,0,,,78,0
114879,note_on,0,0,1,,,,,,,,,0,,,76,62
114879,note_on,0,0,1,,,,,,,,,0,,,81,0
114879,note_on,79,0,1,,,,,,,,,0,,,90,0
114960,note_on,0,0,1,,,,,,,,,0,,,79,62
114960,note_on,0,0,1,,,,,,,,,0,,,88,62
114960,note_on,81,0,1,,,,,,,,,0,,,76,0
115040,control_change,0,0,3,,,,,,,,,2,64,0,,
115040,note_on,800,0,3,,,,,,,,,2,,,70,0
115040,note_on,0,0,3,,,,,,,,,2,,,67,49
115040,note_on,80,0,1,,,,,,,,,0,,,88,0
115040,note_on,0,0,1,,,,,,,,,0,,,73,62
115040,note_on,0,0,1,,,,,,,,,0,,,79,0
115119,note_on,0,0,1,,,,,,,,,0,,,85,62
115119,control_change,0,0,1,,,,,,,,,0,64,0,,
115119,note_on,79,0,1,,,,,,,,,0,,,73,0
115119,note_on,0,0,1,,,,,,,,,0,,,76,62
115200,note_on,0,0,1,,,,,,,,,0,,,76,0
115200,note_on,0,0,1,,,,,,,,,0,,,73,88
115200,note_on,0,0,1,,,,,,,,,0,,,85,88
115200,note_on,160,0,3,,,,,,,,,2,,,67,0
115200,note_on,81,0,1,,,,,,,,,0,,,85,0
115359,control_change,159,0,3,,,,,,,,,2,64,127,,
115359,note_on,0,0,2,,,,,,,,,1,,,78,49
115359,note_on,0,0,3,,,,,,,,,2,,,35,49
115359,note_on,0,0,2,,,,,,,,,1,,,75,49
115359,control_change,1839,0,2,,,,,,,,,1,64,127,,
115391,note_on,32,0,3,,,,,,,,,2,,,35,0
115520,note_on,0,0,2,,,,,,,,,1,,,78,49
115520,note_on,0,0,2,,,,,,,,,1,,,75,49
115520,note_on,0,0,2,,,,,,,,,1,,,75,0
115520,note_on,161,0,2,,,,,,,,,1,,,78,0
115520,note_on,129,0,3,,,,,,,,,2,,,47,49
115552,note_on,32,0,3,,,,,,,,,2,,,47,0
115680,note_on,0,0,1,,,,,,,,,0,,,71,62
115680,note_on,160,0,2,,,,,,,,,1,,,78,0
115680,note_on,480,0,1,,,,,,,,,0,,,85,0
115680,note_on,0,0,3,,,,,,,,,2,,,54,49
115680,note_on,0,0,1,,,,,,,,,0,,,83,62
115680,note_on,0,0,2,,,,,,,,,1,,,78,49
115680,note_on,0,0,2,,,,,,,,,1,,,75,49
115680,note_on,0,0,2,,,,,,,,,1,,,75,0
115680,note_on,128,0,3,,,,,,,,,2,,,51,49
115680,note_on,0,0,1,,,,,,,,,0,,,73,0
115711,note_on,31,0,3,,,,,,,,,2,,,54,0
115711,note_on,0,0,3,,,,,,,,,2,,,51,0
115839,note_on,0,0,2,,,,,,,,,1,,,78,49
115839,note_on,0,0,3,,,,,,,,,2,,,59,49
115839,note_on,0,0,2,,,,,,,,,1,,,75,49
115839,note_on,0,0,2,,,,,,,,,1,,,75,0
115839,note_on,128,0,3,,,,,,,,,2,,,54,49
115839,note_on,159,0,2,,,,,,,,,1,,,78,0
115871,note_on,32,0,3,,,,,,,,,2,,,59,0
115871,note_on,0,0,3,,,,,,,,,2,,,54,0
116000,note_on,0,0,2,,,,,,,,,1,,,75,49
116000,note_on,161,0,2,,,,,,,,,1,,,78,0
116000,note_on,129,0,3,,,,,,,,,2,,,59,49
116000,note_on,0,0,2,,,,,,,,,1,,,75,0
116000,note_on,0,0,2,,,,,,,,,1,,,78,49
116000,note_on,0,0,3,,,,,,,,,2,,,63,49
116032,note_on,0,0,3,,,,,,,,,2,,,59,0
116032,note_on,32,0,3,,,,,,,,,2,,,63,0
116160,note_on,0,0,3,,,,,,,,,2,,,66,49
116160,control_change,0,0,2,,,,,,,,,1,64,0,,
116160,note_on,128,0,3,,,,,,,,,2,,,63,49
116160,note_on,0,0,2,,,,,,,,,1,,,78,49
116160,note_on,0,0,2,,,,,,,,,1,,,75,0
116160,note_on,160,0,2,,,,,,,,,1,,,78,0
116160,note_on,0,0,2,,,,,,,,,1,,,75,49
116160,note_on,0,0,1,,,,,,,,,0,,,71,0
116160,note_on,480,0,1,,,,,,,,,0,,,83,0
116207,note_on,0,0,3,,,,,,,,,2,,,63,0
116207,note_on,47,0,3,,,,,,,,,2,,,66,0
116400,control_change,193,0,3,,,,,,,,,2,64,0,,
116400,note_on,0,0,2,,,,,,,,,1,,,75,0
116400,note_on,240,0,2,,,,,,,,,1,,,78,0
116640,note_on,0,0,3,,,,,,,,,2,,,62,49
116640,note_on,0,0,1,,,,,,,,,0,,,70,62
116640,control_change,480,0,1,,,,,,,,,0,64,127,,
116640,control_change,240,0,3,,,,,,,,,2,64,127,,
116655,note_on,15,0,1,,,,,,,,,0,,,70,0
116687,note_on,47,0,3,,,,,,,,,2,,,62,0
116720,note_on,0,0,1,,,,,,,,,0,,,82,62
116720,note_on,65,0,1,,,,,,,,,0,,,74,62
116799,note_on,0,0,1,,,,,,,,,0,,,74,0
116799,note_on,79,0,1,,,,,,,,,0,,,82,0
116799,note_on,0,0,1,,,,,,,,,0,,,71,88
116815,note_on,16,0,1,,,,,,,,,0,,,71,0
116880,note_on,193,0,3,,,,,,,,,2,,,63,49
116880,note_on,65,0,1,,,,,,,,,0,,,75,62
116880,note_on,0,0,1,,,,,,,,,0,,,83,62
116927,note_on,47,0,3,,,,,,,,,2,,,63,0
117120,note_on,193,0,3,,,,,,,,,2,,,64,49
117120,note_on,0,0,1,,,,,,,,,0,,,75,0
117120,note_on,240,0,1,,,,,,,,,0,,,83,0
117120,note_on,0,0,1,,,,,,,,,0,,,73,88
117680,note_on,0,0,1,,,,,,,,,0,,,76,62
117680,note_on,560,0,1,,,,,,,,,0,,,73,0
117680,note_on,0,0,1,,,,,,,,,0,,,85,62
117759,note_on,79,0,1,,,,,,,,,0,,,85,0
117759,note_on,0,0,3,,,,,,,,,2,,,63,49
117759,note_on,0,0,1,,,,,,,,,0,,,71,62
117759,note_on,0,0,1,,,,,,,,,0,,,76,0
117759,note_on,639,0,3,,,,,,,,,2,,,64,0
117840,note_on,0,0,1,,,,,,,,,0,,,83,62
117840,note_on,81,0,1,,,,,,,,,0,,,71,0
117840,note_on,0,0,1,,,,,,,,,0,,,75,62
117920,control_change,0,0,3,,,,,,,,,2,64,0,,
117920,note_on,161,0,3,,,,,,,,,2,,,63,0
117920,note_on,0,0,1,,,,,,,,,0,,,68,62
117920,note_on,0,0,1,,,,,,,,,0,,,75,0
117920,note_on,80,0,1,,,,,,,,,0,,,83,0
117920,note_on,0,0,3,,,,,,,,,2,,,59,49
117999,note_on,0,0,1,,,,,,,,,0,,,71,62
117999,note_on,0,0,1,,,,,,,,,0,,,80,62
117999,control_change,0,0,1,,,,,,,,,0,64,0,,
117999,note_on,79,0,1,,,,,,,,,0,,,68,0
118080,time_signature,5760,1,0,4,4,24,8,,,,,,,,,
118080,note_on,81,0,1,,,,,,,,,0,,,80,0
118080,note_on,0,0,1,,,,,,,,,0,,,79,75
118080,control_change,0,0,3,,,,,,,,,2,64,127,,
118080,note_on,0,0,1,,,,,,,,,0,,,71,0
118080,note_on,0,0,1,,,,,,,,,0,,,67,75
118080,control_change,0,0,1,,,,,,,,,0,64,127,,
118080,note_on,160,0,3,,,,,,,,,2,,,59,0
118080,control_change,1680,0,2,,,,,,,,,1,64,127,,
118239,note_on,0,0,3,,,,,,,,,2,,,59,62
118239,note_on,0,0,2,,,,,,,,,1,,,75,62
118239,note_on,159,0,2,,,,,,,,,1,,,71,62
118239,note_on,0,0,3,,,,,,,,,2,,,55,62
118239,note_on,159,0,3,,,,,,,,,2,,,46,62
118400,note_on,0,0,2,,,,,,,,,1,,,71,62
118400,note_on,0,0,3,,,,,,,,,2,,,55,62
118400,note_on,161,0,2,,,,,,,,,1,,,75,0
118400,note_on,0,0,3,,,,,,,,,2,,,46,62
118400,note_on,161,0,3,,,,,,,,,2,,,59,0
118400,note_on,0,0,3,,,,,,,,,2,,,46,0
118400,note_on,0,0,3,,,,,,,,,2,,,59,62
118400,note_on,0,0,2,,,,,,,,,1,,,75,62
118400,note_on,0,0,3,,,,,,,,,2,,,55,0
118400,note_on,0,0,2,,,,,,,,,1,,,71,0
118560,note_on,0,0,1,,,,,,,,,0,,,78,75
118560,note_on,0,0,1,,,,,,,,,0,,,67,0
118560,note_on,0,0,3,,,,,,,,,2,,,46,0
118560,note_on,480,0,1,,,,,,,,,0,,,79,0
118560,note_on,160,0,3,,,,,,,,,2,,,59,0
118560,note_on,0,0,1,,,,,,,,,0,,,66,75
118560,note_on,0,0,2,,,,,,,,,1,,,71,0
118560,note_on,0,0,3,,,,,,,,,2,,,55,0
118560,note_on,160,0,2,,,,,,,,,1,,,75,0
118719,note_on,0,0,2,,,,,,,,,1,,,75,62
118719,note_on,0,0,3,,,,,,,,,2,,,58,62
118719,note_on,159,0,2,,,,,,,,,1,,,70,62
118719,note_on,0,0,3,,,,,,,,,2,,,54,62
118719,note_on,159,0,3,,,,,,,,,2,,,46,62
118880,note_on,0,0,2,,,,,,,,,1,,,70,0
118880,note_on,0,0,3,,,,,,,,,2,,,46,0
118880,note_on,0,0,3,,,,,,,,,2,,,46,62
118880,note_on,0,0,3,,,,,,,,,2,,,54,0
118880,note_on,0,0,3,,,,,,,,,2,,,54,62
118880,note_on,0,0,3,,,,,,,,,2,,,58,62
118880,note_on,161,0,2,,,,,,,,,1,,,75,0
118880,note_on,0,0,2,,,,,,,,,1,,,70,62
118880,note_on,0,0,2,,,,,,,,,1,,,75,62
118880,note_on,161,0,3,,,,,,,,,2,,,58,0
119040,note_on,0,0,1,,,,,,,,,0,,,83,101
119040,note_on,0,0,2,,,,,,,,,1,,,70,0
119040,note_on,0,0,1,,,,,,,,,0,,,71,101
119040,note_on,160,0,3,,,,,,,,,2,,,58,0
119040,note_on,0,0,1,,,,,,,,,0,,,66,0
119040,note_on,480,0,1,,,,,,,,,0,,,78,0
119040,note_on,0,0,3,,,,,,,,,2,,,54,0
119040,note_on,160,0,2,,,,,,,,,1,,,75,0
119040,note_on,0,0,3,,,,,,,,,2,,,46,0
119199,note_on,0,0,3,,,,,,,,,2,,,68,62
119199,note_on,159,0,2,,,,,,,,,1,,,74,62
119199,note_on,0,0,3,,,,,,,,,2,,,62,62
119199,note_on,159,0,3,,,,,,,,,2,,,58,62
119199,note_on,0,0,3,,,,,,,,,2,,,65,62
119199,note_on,0,0,2,,,,,,,,,1,,,77,62
119360,note_on,0,0,3,,,,,,,,,2,,,62,0
119360,note_on,0,0,3,,,,,,,,,2,,,62,62
119360,note_on,0,0,2,,,,,,,,,1,,,74,62
119360,note_on,0,0,3,,,,,,,,,2,,,65,0
119360,note_on,0,0,2,,,,,,,,,1,,,74,0
119360,note_on,0,0,3,,,,,,,,,2,,,58,0
119360,note_on,0,0,3,,,,,,,,,2,,,68,62
119360,note_on,161,0,3,,,,,,,,,2,,,68,0
119360,note_on,161,0,2,,,,,,,,,1,,,77,0
119360,note_on,0,0,2,,,,,,,,,1,,,77,62
119360,note_on,0,0,3,,,,,,,,,2,,,65,62
119360,note_on,0,0,3,,,,,,,,,2,,,58,62
119520,note_on,160,0,2,,,,,,,,,1,,,77,0
119520,note_on,0,0,2,,,,,,,,,1,,,74,0
119520,note_on,0,0,3,,,,,,,,,2,,,62,0
119520,note_on,0,0,2,,,,,,,,,1,,,74,62
119520,note_on,0,0,2,,,,,,,,,1,,,77,62
119520,note_on,160,0,3,,,,,,,,,2,,,68,0
119520,note_on,0,0,3,,,,,,,,,2,,,58,0
119520,note_on,0,0,3,,,,,,,,,2,,,58,62
119520,note_on,0,0,3,,,,,,,,,2,,,62,62
119520,note_on,0,0,3,,,,,,,,,2,,,65,0
119520,note_on,0,0,3,,,,,,,,,2,,,68,62
119520,note_on,0,0,3,,,,,,,,,2,,,65,62
119679,note_on,159,0,2,,,,,,,,,1,,,77,0
119679,note_on,0,0,3,,,,,,,,,2,,,65,0
119679,note_on,0,0,3,,,,,,,,,2,,,62,62
119679,note_on,0,0,2,,,,,,,,,1,,,74,0
119679,note_on,0,0,2,,,,,,,,,1,,,74,62
119679,note_on,0,0,2,,,,,,,,,1,,,77,62
119679,note_on,159,0,3,,,,,,,,,2,,,68,0
119679,note_on,0,0,3,,,,,,,,,2,,,65,62
119679,note_on,0,0,3,,,,,,,,,2,,,58,62
119679,note_on,0,0,3,,,,,,,,,2,,,58,0
119679,note_on,0,0,3,,,,,,,,,2,,,68,62
119679,note_on,0,0,3,,,,,,,,,2,,,62,0
119760,control_change,0,0,1,,,,,,,,,0,64,0,,
119760,note_on,720,0,1,,,,,,,,,0,,,83,0
119760,note_on,0,0,1,,,,,,,,,0,,,82,75
119760,note_on,0,0,1,,,,,,,,,0,,,71,0
119760,note_on,0,0,1,,,,,,,,,0,,,70,75
119840,note_on,0,0,2,,,,,,,,,1,,,74,0
119840,control_change,0,0,2,,,,,,,,,1,64,0,,
119840,note_on,161,0,3,,,,,,,,,2,,,68,0
119840,note_on,0,0,3,,,,,,,,,2,,,65,0
119840,note_on,0,0,3,,,,,,,,,2,,,58,0
119840,note_on,161,0,2,,,,,,,,,1,,,77,0
119840,note_on,0,0,3,,,,,,,,,2,,,62,0
119840,control_change,0,0,3,,,,,,,,,2,64,0,,
120000,note_on,0,0,1,,,,,,,,,0,,,68,75
120000,note_on,0,0,1,,,,,,,,,0,,,80,75
120000,note_on,0,0,1,,,,,,,,,0,,,70,0
120000,control_change,0,0,1,,,,,,,,,0,64,127,,
120000,control_change,160,0,3,,,,,,,,,2,64,127,,
120000,note_on,240,0,1,,,,,,,,,0,,,82,0
120000,control_change,160,0,2,,,,,,,,,1,64,127,,
120159,note_on,0,0,2,,,,,,,,,1,,,75,62
120159,note_on,0,0,3,,,,,,,,,2,,,56,62
120159,note_on,0,0,3,,,,,,,,,2,,,59,62
120159,note_on,159,0,3,,,,,,,,,2,,,46,62
120159,note_on,159,0,2,,,,,,,,,1,,,71,62
120320,note_on,161,0,3,,,,,,,,,2,,,59,0
120320,note_on,0,0,3,,,,,,,,,2,,,59,62
120320,note_on,161,0,2,,,,,,,,,1,,,75,0
120320,note_on,0,0,2,,,,,,,,,1,,,71,0
120320,note_on,0,0,2,,,,,,,,,1,,,71,62
120320,note_on,0,0,2,,,,,,,,,1,,,75,62
120320,note_on,0,0,3,,,,,,,,,2,,,56,62
120320,note_on,0,0,3,,,,,,,,,2,,,56,0
120320,note_on,0,0,3,,,,,,,,,2,,,46,62
120320,note_on,0,0,3,,,,,,,,,2,,,46,0
120480,note_on,160,0,2,,,,,,,,,1,,,75,0
120480,note_on,0,0,3,,,,,,,,,2,,,56,0
120480,note_on,0,0,1,,,,,,,,,0,,,66,75
120480,note_on,0,0,2,,,,,,,,,1,,,71,0
120480,note_on,480,0,1,,,,,,,,,0,,,80,0
120480,note_on,0,0,1,,,,,,,,,0,,,78,75
120480,note_on,0,0,1,,,,,,,,,0,,,68,0
120480,note_on,0,0,3,,,,,,,,,2,,,46,0
120480,note_on,160,0,3,,,,,,,,,2,,,59,0
120639,note_on,159,0,3,,,,,,,,,2,,,46,62
120639,note_on,0,0,3,,,,,,,,,2,,,54,62
120639,note_on,0,0,2,,,,,,,,,1,,,75,62
120639,note_on,159,0,2,,,,,,,,,1,,,70,62
120639,note_on,0,0,3,,,,,,,,,2,,,58,62
120800,note_on,161,0,2,,,,,,,,,1,,,75,0
120800,note_on,0,0,3,,,,,,,,,2,,,58,62
120800,note_on,0,0,3,,,,,,,,,2,,,54,62
120800,note_on,0,0,2,,,,,,,,,1,,,75,62
120800,note_on,0,0,3,,,,,,,,,2,,,46,62
120800,note_on,0,0,3,,,,,,,,,2,,,46,0
120800,note_on,0,0,2,,,,,,,,,1,,,70,62
120800,note_on,0,0,2,,,,,,,,,1,,,70,0
120800,note_on,161,0,3,,,,,,,,,2,,,58,0
120800,note_on,0,0,3,,,,,,,,,2,,,54,0
120960,note_on,0,0,3,,,,,,,,,2,,,46,0
120960,note_on,0,0,3,,,,,,,,,2,,,54,0
120960,note_on,160,0,2,,,,,,,,,1,,,75,0
120960,note_on,0,0,1,,,,,,,,,0,,,66,0
120960,note_on,160,0,3,,,,,,,,,2,,,58,0
120960,note_on,0,0,1,,,,,,,,,0,,,73,101
120960,note_on,0,0,1,,,,,,,,,0,,,85,101
120960,note_on,480,0,1,,,,,,,,,0,,,78,0
120960,note_on,0,0,2,,,,,,,,,1,,,70,0
121119,note_on,0,0,3,,,,,,,,,2,,,68,62
121119,note_on,159,0,2,,,,,,,,,1,,,77,62
121119,note_on,159,0,3,,,,,,,,,2,,,58,62
121119,note_on,0,0,3,,,,,,,,,2,,,65,62
121119,note_on,0,0,3,,,,,,,,,2,,,62,62
121119,note_on,0,0,2,,,,,,,,,1,,,80,62
121280,note_on,0,0,3,,,,,,,,,2,,,65,0
121280,note_on,0,0,3,,,,,,,,,2,,,58,62
121280,note_on,0,0,3,,,,,,,,,2,,,58,0
121280,note_on,0,0,2,,,,,,,,,1,,,77,0
121280,note_on,0,0,2,,,,,,,,,1,,,80,62
121280,note_on,161,0,2,,,,,,,,,1,,,80,0
121280,note_on,161,0,3,,,,,,,,,2,,,68,0
121280,note_on,0,0,3,,,,,,,,,2,,,68,62
121280,note_on,0,0,3,,,,,,,,,2,,,65,62
121280,note_on,0,0,3,,,,,,,,,2,,,62,0
121280,note_on,0,0,2,,,,,,,,,1,,,77,62
121280,note_on,0,0,3,,,,,,,,,2,,,62,62
121440,note_on,0,0,3,,,,,,,,,2,,,62,62
121440,note_on,0,0,3,,,,,,,,,2,,,62,0
121440,note_on,0,0,3,,,,,,,,,2,,,58,62
121440,note_on,0,0,3,,,,,,,,,2,,,58,0
121440,note_on,0,0,3,,,,,,,,,2,,,68,62
121440,note_on,0,0,1,,,,,,,,,0,,,71,75
121440,note_on,0,0,1,,,,,,,,,0,,,73,0
121440,note_on,0,0,1,,,,,,,,,0,,,83,75
121440,note_on,0,0,3,,,,,,,,,2,,,65,62
121440,note_on,0,0,2,,,,,,,,,1,,,80,62
121440,note_on,0,0,2,,,,,,,,,1,,,77,62
121440,note_on,0,0,2,,,,,,,,,1,,,77,0
121440,note_on,160,0,2,,,,,,,,,1,,,80,0
121440,note_on,160,0,3,,,,,,,,,2,,,68,0
121440,note_on,480,0,1,,,,,,,,,0,,,85,0
121440,note_on,0,0,3,,,,,,,,,2,,,65,0
121599,note_on,159,0,2,,,,,,,,,1,,,80,0
121599,note_on,0,0,3,,,,,,,,,2,,,65,62
121599,note_on,0,0,2,,,,,,,,,1,,,77,0
121599,note_on,0,0,2,,,,,,,,,1,,,80,62
121599,note_on,0,0,3,,,,,,,,,2,,,65,0
121599,note_on,0,0,3,,,,,,,,,2,,,62,62
121599,note_on,0,0,3,,,,,,,,,2,,,68,62
121599,note_on,0,0,2,,,,,,,,,1,,,77,62
121599,note_on,0,0,3,,,,,,,,,2,,,58,62
121599,note_on,0,0,3,,,,,,,,,2,,,58,0
121599,note_on,159,0,3,,,,,,,,,2,,,68,0
121599,note_on,0,0,3,,,,,,,,,2,,,62,0
121760,note_on,161,0,3,,,,,,,,,2,,,68,0
121760,note_on,0,0,1,,,,,,,,,0,,,82,75
121760,note_on,0,0,1,,,,,,,,,0,,,71,0
121760,note_on,0,0,3,,,,,,,,,2,,,65,0
121760,control_change,0,0,2,,,,,,,,,1,64,0,,
121760,note_on,0,0,2,,,,,,,,,1,,,77,0
121760,note_on,0,0,3,,,,,,,,,2,,,62,0
121760,note_on,0,0,1,,,,,,,,,0,,,70,75
121760,control_change,0,0,1,,,,,,,,,0,64,0,,
121760,note_on,161,0,2,,,,,,,,,1,,,80,0
121760,note_on,320,0,1,,,,,,,,,0,,,83,0
121760,control_change,0,0,3,,,,,,,,,2,64,0,,
121760,note_on,0,0,3,,,,,,,,,2,,,58,0
121920,note_on,160,0,1,,,,,,,,,0,,,82,0
121920,note_on,0,0,1,,,,,,,,,0,,,70,0
121920,control_change,160,0,3,,,,,,,,,2,64,127,,
121920,note_on,0,0,1,,,,,,,,,0,,,68,75
121920,note_on,0,0,1,,,,,,,,,0,,,80,75
122079,note_on,0,0,3,,,,,,,,,2,,,54,62
122079,note_on,0,0,3,,,,,,,,,2,,,58,62
122079,note_on,159,0,3,,,,,,,,,2,,,46,62
122079,note_on,319,0,2,,,,,,,,,1,,,70,62
122079,note_on,0,0,2,,,,,,,,,1,,,75,62
122160,note_on,0,0,1,,,,,,,,,0,,,78,75
122160,note_on,0,0,1,,,,,,,,,0,,,68,0
122160,note_on,0,0,1,,,,,,,,,0,,,66,75
122160,note_on,240,0,1,,,,,,,,,0,,,80,0
122240,note_on,161,0,3,,,,,,,,,2,,,58,0
122240,note_on,0,0,3,,,,,,,,,2,,,46,0
122240,note_on,0,0,3,,,,,,,,,2,,,46,62
122240,note_on,161,0,2,,,,,,,,,1,,,75,0
122240,note_on,0,0,2,,,,,,,,,1,,,70,62
122240,note_on,0,0,2,,,,,,,,,1,,,70,0
122240,note_on,0,0,3,,,,,,,,,2,,,54,62
122240,note_on,0,0,2,,,,,,,,,1,,,75,62
122240,note_on,0,0,3,,,,,,,,,2,,,54,0
122240,note_on,0,0,3,,,,,,,,,2,,,58,62
122400,note_on,160,0,2,,,,,,,,,1,,,75,0
122400,note_on,160,0,3,,,,,,,,,2,,,58,0
122400,note_on,0,0,3,,,,,,,,,2,,,54,0
122400,note_on,0,0,1,,,,,,,,,0,,,66,0
122400,note_on,0,0,1,,,,,,,,,0,,,92,88
122400,note_on,0,0,1,,,,,,,,,0,,,80,88
122400,note_on,0,0,2,,,,,,,,,1,,,70,0
122400,note_on,0,0,3,,,,,,,,,2,,,46,0
122400,note_on,240,0,1,,,,,,,,,0,,,78,0
122559,note_on,0,0,3,,,,,,,,,2,,,63,62
122559,note_on,159,0,3,,,,,,,,,2,,,54,62
122559,note_on,0,0,3,,,,,,,,,2,,,58,62
122559,note_on,0,0,2,,,,,,,,,1,,,87,75
122559,note_on,159,0,2,,,,,,,,,1,,,82,75
122640,note_on,0,0,1,,,,,,,,,0,,,80,0
122640,note_on,0,0,1,,,,,,,,,0,,,90,88
122640,note_on,0,0,1,,,,,,,,,0,,,78,88
122640,note_on,240,0,1,,,,,,,,,0,,,92,0
122720,note_on,0,0,3,,,,,,,,,2,,,58,62
122720,note_on,161,0,2,,,,,,,,,1,,,87,0
122720,note_on,0,0,2,,,,,,,,,1,,,87,75
122720,note_on,161,0,3,,,,,,,,,2,,,63,0
122720,note_on,0,0,3,,,,,,,,,2,,,54,62
122720,note_on,0,0,3,,,,,,,,,2,,,58,0
122720,note_on,0,0,2,,,,,,,,,1,,,82,0
122720,note_on,0,0,3,,,,,,,,,2,,,54,0
122720,note_on,0,0,2,,,,,,,,,1,,,82,75
122720,note_on,0,0,3,,,,,,,,,2,,,63,62
122880,note_on,0,0,2,,,,,,,,,1,,,82,0
122880,note_on,0,0,3,,,,,,,,,2,,,54,0
122880,note_on,0,0,3,,,,,,,,,2,,,58,0
122880,note_on,240,0,1,,,,,,,,,0,,,90,0
122880,note_on,160,0,3,,,,,,,,,2,,,63,0
122880,note_on,0,0,3,,,,,,,,,2,,,58,62
122880,note_on,0,0,1,,,,,,,,,0,,,77,88
122880,note_on,0,0,1,,,,,,,,,0,,,78,0
122880,note_on,0,0,1,,,,,,,,,0,,,89,88
122880,note_on,0,0,3,,,,,,,,,2,,,54,62
122880,note_on,160,0,2,,,,,,,,,1,,,87,0
122880,note_on,0,0,3,,,,,,,,,2,,,63,62
123039,note_on,0,0,3,,,,,,,,,2,,,58,0
123039,note_on,0,0,3,,,,,,,,,2,,,54,62
123039,note_on,0,0,3,,,,,,,,,2,,,63,62
123039,note_on,0,0,3,,,,,,,,,2,,,65,62
123039,note_on,0,0,3,,,,,,,,,2,,,54,0
123039,note_on,0,0,2,,,,,,,,,1,,,82,75
123039,note_on,0,0,3,,,,,,,,,2,,,58,62
123039,note_on,159,0,2,,,,,,,,,1,,,78,75
123039,note_on,159,0,3,,,,,,,,,2,,,63,0
123120,note_on,0,0,1,,,,,,,,,0,,,75,88
123120,note_on,0,0,1,,,,,,,,,0,,,77,0
123120,note_on,240,0,1,,,,,,,,,0,,,89,0
123120,note_on,0,0,1,,,,,,,,,0,,,87,88
123200,note_on,161,0,2,,,,,,,,,1,,,82,0
123200,note_on,0,0,2,,,,,,,,,1,,,78,0
123200,note_on,0,0,3,,,,,,,,,2,,,54,62
123200,note_on,0,0,3,,,,,,,,,2,,,54,0
123200,note_on,0,0,3,,,,,,,,,2,,,58,62
123200,note_on,0,0,3,,,,,,,,,2,,,58,0
123200,note_on,0,0,3,,,,,,,,,2,,,63,0
123200,note_on,0,0,2,,,,,,,,,1,,,78,75
123200,note_on,0,0,3,,,,,,,,,2,,,65,62
123200,note_on,0,0,2,,,,,,,,,1,,,82,75
123200,note_on,161,0,3,,,,,,,,,2,,,65,0
123200,note_on,0,0,3,,,,,,,,,2,,,63,62
123360,note_on,0,0,2,,,,,,,,,1,,,78,0
123360,note_on,0,0,1,,,,,,,,,0,,,81,101
123360,note_on,0,0,1,,,,,,,,,0,,,75,0
123360,note_on,0,0,1,,,,,,,,,0,,,69,101
123360,note_on,160,0,3,,,,,,,,,2,,,65,0
123360,note_on,0,0,3,,,,,,,,,2,,,65,88
123360,note_on,0,0,3,,,,,,,,,2,,,63,88
123360,note_on,0,0,3,,,,,,,,,2,,,63,0
123360,note_on,0,0,3,,,,,,,,,2,,,58,88
123360,note_on,0,0,3,,,,,,,,,2,,,58,0
123360,note_on,160,0,2,,,,,,,,,1,,,82,0
123360,note_on,0,0,3,,,,,,,,,2,,,54,0
123360,note_on,240,0,1,,,,,,,,,0,,,87,0
123360,note_on,0,0,3,,,,,,,,,2,,,54,88
123519,note_on,159,0,2,,,,,,,,,1,,,75,88
123519,note_on,0,0,3,,,,,,,,,2,,,63,88
123519,note_on,0,0,2,,,,,,,,,1,,,78,88
123519,note_on,159,0,3,,,,,,,,,2,,,65,0
123519,note_on,0,0,3,,,,,,,,,2,,,63,0
123519,note_on,0,0,3,,,,,,,,,2,,,58,88
123519,note_on,0,0,3,,,,,,,,,2,,,54,0
123519,note_on,0,0,3,,,,,,,,,2,,,54,88
123519,note_on,0,0,3,,,,,,,,,2,,,58,0
123519,note_on,0,0,3,,,,,,,,,2,,,66,88
123600,note_on,0,0,1,,,,,,,,,0,,,70,101
123600,note_on,0,0,1,,,,,,,,,0,,,82,101
123600,note_on,240,0,1,,,,,,,,,0,,,81,0
123600,note_on,0,0,1,,,,,,,,,0,,,69,0
123680,note_on,0,0,2,,,,,,,,,1,,,75,88
123680,note_on,0,0,2,,,,,,,,,1,,,78,88
123680,note_on,0,0,2,,,,,,,,,1,,,75,0
123680,note_on,0,0,3,,,,,,,,,2,,,58,0
123680,note_on,161,0,2,,,,,,,,,1,,,78,0
123680,note_on,0,0,3,,,,,,,,,2,,,54,0
123680,note_on,0,0,3,,,,,,,,,2,,,66,88
123680,note_on,0,0,3,,,,,,,,,2,,,63,0
123680,control_change,0,0,3,,,,,,,,,2,64,0,,
123680,note_on,0,0,3,,,,,,,,,2,,,63,88
123680,note_on,161,0,3,,,,,,,,,2,,,66,0
123680,note_on,0,0,3,,,,,,,,,2,,,58,88
123680,note_on,0,0,3,,,,,,,,,2,,,54,88
123840,note_on,0,0,2,,,,,,,,,1,,,75,0
123840,time_signature,5760,1,0,5,4,24,8,,,,,,,,,
123840,control_change,0,0,3,,,,,,,,,2,64,127,,
123840,note_on,240,0,1,,,,,,,,,0,,,82,0
123840,note_on,160,0,3,,,,,,,,,2,,,66,0
123840,note_on,0,0,1,,,,,,,,,0,,,73,127
123840,note_on,0,0,1,,,,,,,,,0,,,85,127
123840,note_on,0,0,3,,,,,,,,,2,,,63,0
123840,note_on,0,0,3,,,,,,,,,2,,,58,0
123840,note_on,0,0,3,,,,,,,,,2,,,54,0
123840,note_on,0,0,1,,,,,,,,,0,,,70,0
123840,note_on,160,0,2,,,,,,,,,1,,,78,0
123999,note_on,159,0,2,,,,,,,,,1,,,75,88
123999,note_on,159,0,3,,,,,,,,,2,,,34,114
123999,note_on,0,0,3,,,,,,,,,2,,,46,114
123999,note_on,0,0,2,,,,,,,,,1,,,77,88
123999,note_on,0,0,2,,,,,,,,,1,,,80,88
124160,note_on,161,0,2,,,,,,,,,1,,,80,0
124160,note_on,161,0,3,,,,,,,,,2,,,46,0
124160,note_on,0,0,2,,,,,,,,,1,,,80,88
124160,note_on,0,0,2,,,,,,,,,1,,,77,0
124160,note_on,0,0,2,,,,,,,,,1,,,77,88
124160,note_on,0,0,2,,,,,,,,,1,,,75,0
124160,note_on,0,0,3,,,,,,,,,2,,,68,88
124160,note_on,0,0,3,,,,,,,,,2,,,34,0
124160,note_on,0,0,3,,,,,,,,,2,,,65,88
124160,note_on,0,0,3,,,,,,,,,2,,,63,88
124160,note_on,0,0,3,,,,,,,,,2,,,56,88
124160,note_on,0,0,2,,,,,,,,,1,,,75,88
124160,note_on,0,0,3,,,,,,,,,2,,,59,88
124320,note_on,0,0,3,,,,,,,,,2,,,65,88
124320,note_on,0,0,3,,,,,,,,,2,,,65,0
124320,note_on,0,0,3,,,,,,,,,2,,,63,88
124320,note_on,0,0,3,,,,,,,,,2,,,63,0
124320,note_on,0,0,3,,,,,,,,,2,,,56,0
124320,note_on,160,0,2,,,,,,,,,1,,,80,0
124320,note_on,0,0,2,,,,,,,,,1,,,80,88
124320,note_on,0,0,2,,,,,,,,,1,,,77,0
124320,note_on,0,0,2,,,,,,,,,1,,,75,88
124320,note_on,0,0,2,,,,,,,,,1,,,75,0
124320,note_on,0,0,3,,,,,,,,,2,,,59,0
124320,note_on,0,0,3,,,,,,,,,2,,,59,88
124320,note_on,0,0,2,,,,,,,,,1,,,77,88
124320,note_on,0,0,3,,,,,,,,,2,,,56,88
124320,note_on,160,0,3,,,,,,,,,2,,,68,0
124320,note_on,0,0,3,,,,,,,,,2,,,68,88
124479,note_on,0,0,3,,,,,,,,,2,,,59,88
124479,note_on,0,0,3,,,,,,,,,2,,,65,88
124479,note_on,159,0,3,,,,,,,,,2,,,68,0
124479,note_on,0,0,3,,,,,,,,,2,,,65,0
124479,note_on,0,0,3,,,,,,,,,2,,,63,88
124479,note_on,0,0,3,,,,,,,,,2,,,63,0
124479,note_on,0,0,3,,,,,,,,,2,,,59,0
124479,note_on,0,0,2,,,,,,,,,1,,,75,0
124479,note_on,0,0,2,,,,,,,,,1,,,75,88
124479,note_on,0,0,2,,,,,,,,,1,,,77,0
124479,note_on,0,0,2,,,,,,,,,1,,,77,88
124479,note_on,0,0,2,,,,,,,,,1,,,80,88
124479,note_on,0,0,3,,,,,,,,,2,,,68,88
124479,note_on,0,0,3,,,,,,,,,2,,,56,0
124479,note_on,159,0,2,,,,,,,,,1,,,80,0
124479,note_on,0,0,3,,,,,,,,,2,,,56,88
124640,note_on,0,0,3,,,,,,,,,2,,,63,88
124640,note_on,0,0,3,,,,,,,,,2,,,65,88
124640,note_on,0,0,3,,,,,,,,,2,,,68,88
124640,note_on,0,0,3,,,,,,,,,2,,,59,0
124640,note_on,161,0,3,,,,,,,,,2,,,68,0
124640,note_on,0,0,2,,,,,,,,,1,,,80,88
124640,note_on,0,0,2,,,,,,,,,1,,,75,88
124640,note_on,0,0,3,,,,,,,,,2,,,56,0
124640,note_on,0,0,3,,,,,,,,,2,,,59,88
124640,note_on,0,0,3,,,,,,,,,2,,,65,0
124640,note_on,0,0,2,,,,,,,,,1,,,77,88
124640,note_on,0,0,3,,,,,,,,,2,,,56,88
124640,note_on,0,0,2,,,,,,,,,1,,,77,0
124640,note_on,0,0,3,,,,,,,,,2,,,63,0
124640,note_on,161,0,2,,,,,,,,,1,,,80,0
124640,note_on,0,0,2,,,,,,,,,1,,,75,0
124800,note_on,160,0,2,,,,,,,,,1,,,80,0
124800,note_on,0,0,2,,,,,,,,,1,,,80,88
124800,note_on,0,0,2,,,,,,,,,1,,,77,88
124800,note_on,0,0,2,,,,,,,,,1,,,77,0
124800,note_on,0,0,2,,,,,,,,,1,,,75,0
124800,note_on,0,0,3,,,,,,,,,2,,,59,88
124800,note_on,0,0,3,,,,,,,,,2,,,56,0
124800,note_on,160,0,3,,,,,,,,,2,,,68,0
124800,note_on,0,0,3,,,,,,,,,2,,,63,0
124800,note_on,0,0,3,,,,,,,,,2,,,63,88
124800,note_on,0,0,3,,,,,,,,,2,,,65,0
124800,note_on,0,0,3,,,,,,,,,2,,,68,88
124800,note_on,0,0,3,,,,,,,,,2,,,65,88
124800,note_on,0,0,2,,,,,,,,,1,,,75,88
124800,note_on,0,0,3,,,,,,,,,2,,,59,0
124800,note_on,0,0,3,,,,,,,,,2,,,56,88
124959,note_on,0,0,3,,,,,,,,,2,,,63,88
124959,note_on,0,0,3,,,,,,,,,2,,,56,88
124959,note_on,0,0,3,,,,,,,,,2,,,59,0
124959,note_on,0,0,3,,,,,,,,,2,,,59,88
124959,note_on,0,0,3,,,,,,,,,2,,,63,0
124959,note_on,0,0,3,,,,,,,,,2,,,56,0
124959,note_on,0,0,2,,,,,,,,,1,,,75,0
124959,note_on,0,0,3,,,,,,,,,2,,,65,0
124959,note_on,0,0,2,,,,,,,,,1,,,77,0
124959,note_on,0,0,2,,,,,,,,,1,,,77,88
124959,note_on,0,0,2,,,,,,,,,1,,,80,88
124959,note_on,159,0,2,,,,,,,,,1,,,80,0
124959,note_on,0,0,2,,,,,,,,,1,,,75,88
124959,note_on,159,0,3,,,,,,,,,2,,,68,0
124959,note_on,0,0,3,,,,,,,,,2,,,65,88
124959,note_on,0,0,3,,,,,,,,,2,,,68,88
125120,note_on,161,0,2,,,,,,,,,1,,,80,0
125120,note_on,0,0,3,,,,,,,,,2,,,68,88
125120,note_on,0,0,3,,,,,,,,,2,,,65,88
125120,note_on,0,0,3,,,,,,,,,2,,,65,0
125120,note_on,0,0,3,,,,,,,,,2,,,63,88
125120,note_on,0,0,3,,,,,,,,,2,,,63,0
125120,note_on,0,0,3,,,,,,,,,2,,,59,0
125120,note_on,0,0,3,,,,,,,,,2,,,56,88
125120,note_on,0,0,3,,,,,,,,,2,,,59,88
125120,note_on,161,0,3,,,,,,,,,2,,,68,0
125120,note_on,0,0,3,,,,,,,,,2,,,56,0
125120,note_on,0,0,2,,,,,,,,,1,,,75,0
125120,note_on,0,0,2,,,,,,,,,1,,,75,88
125120,note_on,0,0,2,,,,,,,,,1,,,77,0
125120,note_on,0,0,2,,,,,,,,,1,,,77,88
125120,note_on,0,0,2,,,,,,,,,1,,,80,88
125184,note_on,64,0,3,,,,,,,,,2,,,56,88
125184,note_on,1344,0,1,,,,,,,,,0,,,71,101
125208,note_on,24,0,3,,,,,,,,,2,,,59,88
125208,note_on,24,0,1,,,,,,,,,0,,,73,101
125232,note_on,24,0,1,,,,,,,,,0,,,77,101
125232,note_on,24,0,3,,,,,,,,,2,,,63,88
125256,note_on,24,0,1,,,,,,,,,0,,,80,101
125256,note_on,24,0,3,,,,,,,,,2,,,65,88
125280,note_on,0,0,3,,,,,,,,,2,,,68,88
125280,note_on,0,0,3,,,,,,,,,2,,,65,0
125280,note_on,0,0,3,,,,,,,,,2,,,63,0
125280,note_on,0,0,3,,,,,,,,,2,,,59,0
125280,note_on,0,0,2,,,,,,,,,1,,,77,0
125280,note_on,0,0,2,,,,,,,,,1,,,75,0
125280,note_on,24,0,3,,,,,,,,,2,,,68,0
125280,note_on,160,0,2,,,,,,,,,1,,,80,0
125280,note_on,0,0,1,,,,,,,,,0,,,83,101
125280,note_on,0,0,1,,,,,,,,,0,,,73,0
125280,note_on,24,0,1,,,,,,,,,0,,,85,0
125280,note_on,0,0,3,,,,,,,,,2,,,56,0
125760,control_change,0,0,3,,,,,,,,,2,64,0,,
125760,note_on,480,0,3,,,,,,,,,2,,,68,0
125760,note_on,0,0,1,,,,,,,,,0,,,71,0
125760,note_on,0,0,3,,,,,,,,,2,,,59,0
125760,note_on,0,0,1,,,,,,,,,0,,,73,0
125760,note_on,480,0,1,,,,,,,,,0,,,83,0
125760,note_on,0,0,1,,,,,,,,,0,,,77,0
125760,note_on,0,0,3,,,,,,,,,2,,,65,0
125760,note_on,0,0,3,,,,,,,,,2,,,56,0
125760,note_on,0,0,1,,,,,,,,,0,,,80,0
125760,note_on,0,0,3,,,,,,,,,2,,,63,0
126240,control_change,480,0,1,,,,,,,,,0,64,127,,
126240,time_signature,2400,1,0,6,4,24,8,,,,,,,,,
126480,set_tempo,240,1,0,,,,,,618557,,,,,,,
126560,note_on,320,0,1,,,,,,,,,0,,,68,75
126720,set_tempo,240,1,0,,,,,,638298,,,,,,,
126879,note_on,319,0,1,,,,,,,,,0,,,68,0
126879,note_on,0,0,1,,,,,,,,,0,,,70,75
126960,set_tempo,240,1,0,,,,,,659341,,,,,,,
127104,note_on,225,0,1,,,,,,,,,0,,,46,75
127128,note_on,24,0,1,,,,,,,,,0,,,53,75
127152,note_on,24,0,1,,,,,,,,,0,,,62,75
127176,note_on,24,0,1,,,,,,,,,0,,,68,75
127200,note_on,24,0,1,,,,,,,,,0,,,70,0
127200,note_on,0,0,1,,,,,,,,,0,,,73,75
127200,set_tempo,240,1,0,,,,,,689655,,,,,,,
127440,set_tempo,240,1,0,,,,,,714286,,,,,,,
127680,note_on,0,0,1,,,,,,,,,0,,,46,0
127680,note_on,0,0,1,,,,,,,,,0,,,53,0
127680,note_on,0,0,1,,,,,,,,,0,,,62,0
127680,note_on,480,0,1,,,,,,,,,0,,,73,0
127680,set_tempo,240,1,0,,,,,,740741,,,,,,,
127680,note_on,0,0,1,,,,,,,,,0,,,71,75
127680,note_on,0,0,1,,,,,,,,,0,,,68,0
127920,set_tempo,240,1,0,,,,,,769231,,,,,,,
128160,set_tempo,240,1,0,,,,,,810811,,,,,,,
128880,note_on,0,0,1,,,,,,,,,0,,,70,75
128880,note_on,1200,0,1,,,,,,,,,0,,,71,0
128880,control_change,0,0,1,,,,,,,,,0,64,0,,
129040,note_on,160,0,1,,,,,,,,,0,,,55,75
129080,note_on,40,0,1,,,,,,,,,0,,,63,75
129120,control_change,3360,0,3,,,,,,,,,2,64,127,,
129120,control_change,0,0,1,,,,,,,,,0,64,127,,
129120,set_tempo,0,1,0,,,,,,500000,,,,,,,
129120,time_signature,960,1,0,4,4,24,8,,,,,,,,,
129120,note_on,0,0,1,,,,,,,,,0,,,70,75
129120,note_on,40,0,1,,,,,,,,,0,,,70,0
129279,note_on,159,0,3,,,,,,,,,2,,,39,62
129440,note_on,161,0,3,,,,,,,,,2,,,39,0
129440,note_on,0,0,3,,,,,,,,,2,,,46,62
129600,note_on,480,0,1,,,,,,,,,0,,,70,0
129600,note_on,160,0,3,,,,,,,,,2,,,46,0
129600,note_on,0,0,1,,,,,,,,,0,,,63,75
129600,note_on,0,0,1,,,,,,,,,0,,,63,0
129600,note_on,0,0,3,,,,,,,,,2,,,51,62
129600,note_on,0,0,1,,,,,,,,,0,,,55,0
129759,note_on,159,0,3,,,,,,,,,2,,,51,0
129759,note_on,0,0,3,,,,,,,,,2,,,55,62
129920,note_on,161,0,3,,,,,,,,,2,,,55,0
129920,note_on,0,0,3,,,,,,,,,2,,,58,62
130080,note_on,0,0,3,,,,,,,,,2,,,67,62
130080,note_on,160,0,3,,,,,,,,,2,,,58,0
130080,note_on,480,0,1,,,,,,,,,0,,,63,0
130239,note_on,159,0,3,,,,,,,,,2,,,67,0
130239,note_on,0,0,3,,,,,,,,,2,,,63,62
130400,note_on,0,0,3,,,,,,,,,2,,,58,62
130400,note_on,161,0,3,,,,,,,,,2,,,63,0
130560,note_on,160,0,3,,,,,,,,,2,,,58,0
130560,note_on,0,0,3,,,,,,,,,2,,,55,62
130560,note_on,0,0,1,,,,,,,,,0,,,63,75
130560,control_change,480,0,1,,,,,,,,,0,64,0,,
130719,note_on,159,0,3,,,,,,,,,2,,,55,0
130719,note_on,0,0,3,,,,,,,,,2,,,51,62
130880,control_change,0,0,3,,,,,,,,,2,64,0,,
130880,note_on,0,0,3,,,,,,,,,2,,,46,62
130880,note_on,161,0,3,,,,,,,,,2,,,51,0
131040,note_on,160,0,3,,,,,,,,,2,,,46,0
131040,control_change,0,0,3,,,,,,,,,2,64,127,,
131040,note_on,0,0,1,,,,,,,,,0,,,64,75
131040,note_on,480,0,1,,,,,,,,,0,,,63,0
131040,control_change,0,0,1,,,,,,,,,0,64,127,,
131199,note_on,159,0,3,,,,,,,,,2,,,39,62
131360,note_on,0,0,3,,,,,,,,,2,,,47,62
131360,note_on,161,0,3,,,,,,,,,2,,,39,0
131520,note_on,480,0,1,,,,,,,,,0,,,64,0
131520,note_on,160,0,3,,,,,,,,,2,,,47,0
131520,note_on,0,0,3,,,,,,,,,2,,,52,62
131520,note_on,0,0,1,,,,,,,,,0,,,71,75
131679,note_on,0,0,3,,,,,,,,,2,,,56,62
131679,note_on,159,0,3,,,,,,,,,2,,,52,0
131840,note_on,0,0,3,,,,,,,,,2,,,59,62
131840,note_on,161,0,3,,,,,,,,,2,,,56,0
132000,note_on,480,0,1,,,,,,,,,0,,,71,0
132000,note_on,0,0,3,,,,,,,,,2,,,70,62
132000,note_on,0,0,1,,,,,,,,,0,,,70,75
132000,note_on,160,0,3,,,,,,,,,2,,,59,0
132159,note_on,159,0,3,,,,,,,,,2,,,70,0
132159,note_on,0,0,3,,,,,,,,,2,,,64,62
132240,note_on,0,0,1,,,,,,,,,0,,,68,75
132240,note_on,240,0,1,,,,,,,,,0,,,70,0
132320,note_on,161,0,3,,,,,,,,,2,,,64,0
132320,note_on,0,0,3,,,,,,,,,2,,,59,62
132480,note_on,240,0,1,,,,,,,,,0,,,68,0
132480,note_on,0,0,1,,,,,,,,,0,,,66,75
132480,note_on,160,0,3,,,,,,,,,2,,,59,0
132480,note_on,0,0,3,,,,,,,,,2,,,56,62
132639,note_on,0,0,3,,,,,,,,,2,,,52,62
132639,note_on,159,0,3,,,,,,,,,2,,,56,0
132800,note_on,0,0,3,,,,,,,,,2,,,47,62
132800,note_on,161,0,3,,,,,,,,,2,,,52,0
132800,control_change,0,0,3,,,,,,,,,2,64,0,,
132840,control_change,0,0,1,,,,,,,,,0,64,0,,
132840,note_on,360,0,1,,,,,,,,,0,,,66,0
132840,note_on,0,0,1,,,,,,,,,0,,,62,75
132960,control_change,0,0,1,,,,,,,,,0,64,127,,
132960,note_on,160,0,3,,,,,,,,,2,,,47,0
132960,note_on,0,0,1,,,,,,,,,0,,,62,75
132960,note_on,120,0,1,,,,,,,,,0,,,62,0
133119,control_change,159,0,3,,,,,,,,,2,64,127,,
133119,note_on,0,0,3,,,,,,,,,2,,,39,62
133280,note_on,161,0,3,,,,,,,,,2,,,39,0
133280,note_on,0,0,3,,,,,,,,,2,,,46,62
133440,note_on,160,0,3,,,,,,,,,2,,,46,0
133440,note_on,480,0,1,,,,,,,,,0,,,62,0
133440,note_on,0,0,3,,,,,,,,,2,,,51,62
133440,note_on,0,0,1,,,,,,,,,0,,,63,75
133599,note_on,159,0,3,,,,,,,,,2,,,51,0
133599,note_on,0,0,3,,,,,,,,,2,,,55,62
133760,note_on,161,0,3,,,,,,,,,2,,,55,0
133760,note_on,0,0,3,,,,,,,,,2,,,58,62
133920,note_on,160,0,3,,,,,,,,,2,,,58,0
133920,note_on,480,0,1,,,,,,,,,0,,,63,0
133920,note_on,0,0,3,,,,,,,,,2,,,67,62
134079,note_on,159,0,3,,,,,,,,,2,,,67,0
134079,note_on,0,0,3,,,,,,,,,2,,,63,62
134240,note_on,161,0,3,,,,,,,,,2,,,63,0
134240,note_on,0,0,3,,,,,,,,,2,,,58,62
134400,control_change,480,0,1,,,,,,,,,0,64,0,,
134400,note_on,0,0,1,,,,,,,,,0,,,87,75
134400,note_on,0,0,1,,,,,,,,,0,,,75,75
134400,note_on,160,0,3,,,,,,,,,2,,,58,0
134400,note_on,0,0,3,,,,,,,,,2,,,55,62
134559,note_on,159,0,3,,,,,,,,,2,,,55,0
134559,note_on,0,0,3,,,,,,,,,2,,,51,62
134720,note_on,161,0,3,,,,,,,,,2,,,51,0
134720,control_change,0,0,3,,,,,,,,,2,64,0,,
134720,note_on,0,0,3,,,,,,,,,2,,,46,62
134880,note_on,160,0,3,,,,,,,,,2,,,46,0
134880,note_on,0,0,1,,,,,,,,,0,,,75,0
134880,note_on,0,0,1,,,,,,,,,0,,,88,75
134880,note_on,480,0,1,,,,,,,,,0,,,87,0
134880,control_change,0,0,1,,,,,,,,,0,64,127,,
134880,note_on,0,0,1,,,,,,,,,0,,,76,75
135039,note_on,0,0,3,,,,,,,,,2,,,38,62
135039,control_change,159,0,3,,,,,,,,,2,64,127,,
135200,note_on,161,0,3,,,,,,,,,2,,,38,0
135200,note_on,0,0,3,,,,,,,,,2,,,47,62
135360,note_on,160,0,3,,,,,,,,,2,,,47,0
135360,note_on,0,0,1,,,,,,,,,0,,,95,75
135360,note_on,480,0,1,,,,,,,,,0,,,88,0
135360,note_on,0,0,1,,,,,,,,,0,,,83,75
135360,note_on,0,0,1,,,,,,,,,0,,,76,0
135360,note_on,0,0,3,,,,,,,,,2,,,52,62
135519,note_on,159,0,3,,,,,,,,,2,,,52,0
135519,note_on,0,0,3,,,,,,,,,2,,,56,62
135680,note_on,161,0,3,,,,,,,,,2,,,56,0
135680,note_on,0,0,3,,,,,,,,,2,,,59,62
135680,note_on,0,0,3,,,,,,,,,2,,,64,62
135840,note_on,480,0,1,,,,,,,,,0,,,95,0
135840,note_on,0,0,3,,,,,,,,,2,,,59,0
135840,note_on,0,0,1,,,,,,,,,0,,,94,88
135840,note_on,0,0,1,,,,,,,,,0,,,83,0
135840,note_on,0,0,1,,,,,,,,,0,,,82,88
135840,note_on,160,0,3,,,,,,,,,2,,,64,0
135840,control_change,0,0,3,,,,,,,,,2,64,0,,
135999,control_change,159,0,3,,,,,,,,,2,64,127,,
135999,note_on,0,0,3,,,,,,,,,2,,,37,75
136080,note_on,0,0,1,,,,,,,,,0,,,92,88
136080,note_on,0,0,1,,,,,,,,,0,,,82,0
136080,note_on,0,0,1,,,,,,,,,0,,,80,88
136080,note_on,240,0,1,,,,,,,,,0,,,94,0
136160,note_on,161,0,3,,,,,,,,,2,,,37,0
136160,note_on,0,0,3,,,,,,,,,2,,,47,75
136320,note_on,240,0,1,,,,,,,,,0,,,92,0
136320,note_on,0,0,1,,,,,,,,,0,,,87,88
136320,note_on,0,0,1,,,,,,,,,0,,,80,0
136320,note_on,0,0,3,,,,,,,,,2,,,53,75
136320,note_on,0,0,1,,,,,,,,,0,,,75,88
136320,note_on,160,0,3,,,,,,,,,2,,,47,0
136479,note_on,0,0,3,,,,,,,,,2,,,56,75
136479,note_on,159,0,3,,,,,,,,,2,,,53,0
136640,note_on,161,0,3,,,,,,,,,2,,,56,0
136640,control_change,0,0,3,,,,,,,,,2,64,0,,
136640,note_on,0,0,3,,,,,,,,,2,,,59,75
136640,note_on,0,0,3,,,,,,,,,2,,,65,75
136680,note_on,0,0,1,,,,,,,,,0,,,77,88
136680,note_on,0,0,1,,,,,,,,,0,,,89,88
136680,note_on,0,0,1,,,,,,,,,0,,,75,0
136680,control_change,0,0,1,,,,,,,,,0,64,0,,
136680,note_on,360,0,1,,,,,,,,,0,,,87,0
136800,note_on,160,0,3,,,,,,,,,2,,,65,0
136800,note_on,0,0,1,,,,,,,,,0,,,89,88
136800,note_on,0,0,3,,,,,,,,,2,,,59,0
136800,note_on,0,0,1,,,,,,,,,0,,,77,88
136800,control_change,0,0,1,,,,,,,,,0,64,127,,
136800,note_on,120,0,1,,,,,,,,,0,,,89,0
136800,note_on,0,0,1,,,,,,,,,0,,,77,0
136959,note_on,0,0,3,,,,,,,,,2,,,42,75
136959,control_change,159,0,3,,,,,,,,,2,64,127,,
137120,note_on,161,0,3,,,,,,,,,2,,,42,0
137120,note_on,0,0,3,,,,,,,,,2,,,49,75
137280,note_on,0,0,3,,,,,,,,,2,,,54,75
137280,note_on,0,0,1,,,,,,,,,0,,,90,88
137280,note_on,160,0,3,,,,,,,,,2,,,49,0
137280,note_on,480,0,1,,,,,,,,,0,,,89,0
137280,note_on,0,0,1,,,,,,,,,0,,,77,0
137280,note_on,0,0,1,,,,,,,,,0,,,78,88
137439,note_on,159,0,3,,,,,,,,,2,,,54,0
137439,note_on,0,0,3,,,,,,,,,2,,,58,75
137600,note_on,161,0,3,,,,,,,,,2,,,58,0
137600,note_on,0,0,3,,,,,,,,,2,,,61,75
137760,note_on,0,0,1,,,,,,,,,0,,,78,0
137760,note_on,480,0,1,,,,,,,,,0,,,90,0
137760,note_on,0,0,3,,,,,,,,,2,,,70,75
137760,note_on,160,0,3,,,,,,,,,2,,,61,0
137919,note_on,0,0,3,,,,,,,,,2,,,66,75
137919,note_on,159,0,3,,,,,,,,,2,,,70,0
138080,note_on,161,0,3,,,,,,,,,2,,,66,0
138080,note_on,0,0,3,,,,,,,,,2,,,61,75
138240,control_change,480,0,1,,,,,,,,,0,64,0,,
138240,note_on,160,0,3,,,,,,,,,2,,,61,0
138240,note_on,0,0,1,,,,,,,,,0,,,66,88
138240,note_on,0,0,3,,,,,,,,,2,,,58,75
138399,note_on,0,0,3,,,,,,,,,2,,,54,75
138399,note_on,159,0,3,,,,,,,,,2,,,58,0
138560,note_on,0,0,3,,,,,,,,,2,,,49,75
138560,note_on,161,0,3,,,,,,,,,2,,,54,0
138560,control_change,0,0,3,,,,,,,,,2,64,0,,
138720,control_change,0,0,1,,,,,,,,,0,64,127,,
138720,note_on,160,0,3,,,,,,,,,2,,,49,0
138720,note_on,480,0,1,,,,,,,,,0,,,66,0
138720,note_on,0,0,1,,,,,,,,,0,,,67,88
138879,note_on,0,0,3,,,,,,,,,2,,,42,75
138879,control_change,159,0,3,,,,,,,,,2,64,127,,
139040,note_on,161,0,3,,,,,,,,,2,,,42,0
139040,note_on,0,0,3,,,,,,,,,2,,,50,75
139200,note_on,480,0,1,,,,,,,,,0,,,67,0
139200,note_on,0,0,1,,,,,,,,,0,,,74,88
139200,note_on,0,0,3,,,,,,,,,2,,,55,75
139200,note_on,160,0,3,,,,,,,,,2,,,50,0
139359,note_on,0,0,3,,,,,,,,,2,,,59,75
139359,note_on,159,0,3,,,,,,,,,2,,,55,0
139520,note_on,0,0,3,,,,,,,,,2,,,62,75
139520,note_on,161,0,3,,,,,,,,,2,,,59,0
139680,note_on,480,0,1,,,,,,,,,0,,,74,0
139680,note_on,0,0,3,,,,,,,,,2,,,72,75
139680,note_on,0,0,1,,,,,,,,,0,,,72,88
139680,note_on,160,0,3,,,,,,,,,2,,,62,0
139839,note_on,0,0,3,,,,,,,,,2,,,67,75
139839,note_on,159,0,3,,,,,,,,,2,,,72,0
139920,note_on,0,0,1,,,,,,,,,0,,,71,88
139920,note_on,240,0,1,,,,,,,,,0,,,72,0
140000,note_on,0,0,3,,,,,,,,,2,,,62,75
140000,note_on,161,0,3,,,,,,,,,2,,,67,0
140160,note_on,160,0,3,,,,,,,,,2,,,62,0
140160,note_on,0,0,3,,,,,,,,,2,,,59,75
140160,note_on,0,0,1,,,,,,,,,0,,,69,88
140160,note_on,240,0,1,,,,,,,,,0,,,71,0
140319,note_on,0,0,3,,,,,,,,,2,,,55,75
140319,note_on,159,0,3,,,,,,,,,2,,,59,0
140480,control_change,0,0,3,,,,,,,,,2,64,0,,
140480,note_on,0,0,3,,,,,,,,,2,,,50,75
140480,note_on,161,0,3,,,,,,,,,2,,,55,0
140520,note_on,0,0,1,,,,,,,,,0,,,65,88
140520,note_on,360,0,1,,,,,,,,,0,,,69,0
140520,control_change,0,0,1,,,,,,,,,0,64,0,,
140640,note_on,0,0,1,,,,,,,,,0,,,65,88
140640,note_on,160,0,3,,,,,,,,,2,,,50,0
140640,control_change,0,0,1,,,,,,,,,0,64,127,,
140640,note_on,120,0,1,,,,,,,,,0,,,65,0
140799,note_on,0,0,3,,,,,,,,,2,,,42,75
140799,control_change,159,0,3,,,,,,,,,2,64,127,,
140960,note_on,0,0,3,,,,,,,,,2,,,49,75
140960,note_on,161,0,3,,,,,,,,,2,,,42,0
141120,note_on,480,0,1,,,,,,,,,0,,,65,0
141120,note_on,0,0,1,,,,,,,,,0,,,66,88
141120,note_on,0,0,3,,,,,,,,,2,,,54,75
141120,note_on,160,0,3,,,,,,,,,2,,,49,0
141279,note_on,0,0,3,,,,,,,,,2,,,58,75
141279,note_on,159,0,3,,,,,,,,,2,,,54,0
141440,note_on,0,0,3,,,,,,,,,2,,,61,75
141440,note_on,161,0,3,,,,,,,,,2,,,58,0
141600,note_on,160,0,3,,,,,,,,,2,,,61,0
141600,note_on,480,0,1,,,,,,,,,0,,,66,0
141600,note_on,0,0,3,,,,,,,,,2,,,70,75
141759,note_on,159,0,3,,,,,,,,,2,,,70,0
141759,note_on,0,0,3,,,,,,,,,2,,,66,75
141920,note_on,161,0,3,,,,,,,,,2,,,66,0
141920,note_on,0,0,3,,,,,,,,,2,,,61,75
142080,note_on,160,0,3,,,,,,,,,2,,,61,0
142080,note_on,0,0,1,,,,,,,,,0,,,90,88
142080,control_change,480,0,1,,,,,,,,,0,64,0,,
142080,note_on,0,0,3,,,,,,,,,2,,,58,75
142080,note_on,0,0,1,,,,,,,,,0,,,78,88
142239,note_on,0,0,3,,,,,,,,,2,,,54,75
142239,note_on,159,0,3,,,,,,,,,2,,,58,0
142400,note_on,0,0,3,,,,,,,,,2,,,49,75
142400,note_on,161,0,3,,,,,,,,,2,,,54,0
142400,control_change,0,0,3,,,,,,,,,2,64,0,,
142560,note_on,160,0,3,,,,,,,,,2,,,49,0
142560,note_on,480,0,1,,,,,,,,,0,,,90,0
142560,note_on,0,0,1,,,,,,,,,0,,,79,88
142560,control_change,0,0,1,,,,,,,,,0,64,127,,
142560,note_on,0,0,1,,,,,,,,,0,,,91,88
142560,note_on,0,0,1,,,,,,,,,0,,,78,0
142719,control_change,159,0,3,,,,,,,,,2,64,127,,
142719,note_on,0,0,3,,,,,,,,,2,,,41,75
142880,note_on,161,0,3,,,,,,,,,2,,,41,0
142880,note_on,0,0,3,,,,,,,,,2,,,50,75
143040,note_on,160,0,3,,,,,,,,,2,,,50,0
143040,note_on,0,0,1,,,,,,,,,0,,,98,88
143040,note_on,480,0,1,,,,,,,,,0,,,91,0
143040,note_on,0,0,3,,,,,,,,,2,,,55,75
143040,note_on,0,0,1,,,,,,,,,0,,,79,0
143040,note_on,0,0,1,,,,,,,,,0,,,86,88
143199,note_on,0,0,3,,,,,,,,,2,,,59,75
143199,note_on,159,0,3,,,,,,,,,2,,,55,0
143360,note_on,0,0,3,,,,,,,,,2,,,62,75
143360,note_on,161,0,3,,,,,,,,,2,,,59,0
143520,note_on,480,0,1,,,,,,,,,0,,,98,0
143520,note_on,0,0,1,,,,,,,,,0,,,84,88
143520,note_on,0,0,3,,,,,,,,,2,,,71,75
143520,note_on,0,0,1,,,,,,,,,0,,,96,88
143520,note_on,160,0,3,,,,,,,,,2,,,62,0
143520,note_on,0,0,1,,,,,,,,,0,,,86,0
143679,note_on,0,0,3,,,,,,,,,2,,,67,75
143679,note_on,159,0,3,,,,,,,,,2,,,71,0
143760,note_on,0,0,1,,,,,,,,,0,,,95,88
143760,note_on,0,0,1,,,,,,,,,0,,,84,0
143760,note_on,0,0,1,,,,,,,,,0,,,83,88
143760,note_on,240,0,1,,,,,,,,,0,,,96,0
143840,note_on,161,0,3,,,,,,,,,2,,,67,0
143840,note_on,0,0,3,,,,,,,,,2,,,62,75
144000,note_on,0,0,1,,,,,,,,,0,,,92,88
144000,note_on,0,0,1,,,,,,,,,0,,,80,88
144000,note_on,0,0,1,,,,,,,,,0,,,83,0
144000,note_on,160,0,3,,,,,,,,,2,,,62,0
144000,note_on,240,0,1,,,,,,,,,0,,,95,0
144000,note_on,0,0,3,,,,,,,,,2,,,59,75
144159,note_on,0,0,3,,,,,,,,,2,,,55,75
144159,note_on,159,0,3,,,,,,,,,2,,,59,0
144240,note_on,240,0,1,,,,,,,,,0,,,92,0
144240,note_on,0,0,1,,,,,,,,,0,,,91,88
144240,note_on,0,0,1,,,,,,,,,0,,,80,0
144240,note_on,0,0,1,,,,,,,,,0,,,79,88
144240,control_change,0,0,1,,,,,,,,,0,64,0,,
144320,control_change,0,0,3,,,,,,,,,2,64,0,,
144320,note_on,0,0,3,,,,,,,,,2,,,50,75
144320,note_on,161,0,3,,,,,,,,,2,,,55,0
144480,note_on,0,0,1,,,,,,,,,0,,,91,88
144480,control_change,0,0,1,,,,,,,,,0,64,127,,
144480,note_on,240,0,1,,,,,,,,,0,,,91,0
144480,note_on,0,0,1,,,,,,,,,0,,,79,0
144480,note_on,0,0,1,,,,,,,,,0,,,79,88
144480,note_on,160,0,3,,,,,,,,,2,,,50,0
144639,control_change,159,0,3,,,,,,,,,2,64,127,,
144639,note_on,0,0,3,,,,,,,,,2,,,39,75
144800,note_on,161,0,3,,,,,,,,,2,,,39,0
144800,note_on,0,0,3,,,,,,,,,2,,,51,75
144960,note_on,160,0,3,,,,,,,,,2,,,51,0
144960,note_on,0,0,3,,,,,,,,,2,,,55,75
144960,note_on,480,0,1,,,,,,,,,0,,,91,0
144960,note_on,0,0,1,,,,,,,,,0,,,79,0
144960,note_on,0,0,1,,,,,,,,,0,,,87,88
144960,note_on,0,0,1,,,,,,,,,0,,,99,88
145119,note_on,159,0,3,,,,,,,,,2,,,55,0
145119,note_on,0,0,3,,,,,,,,,2,,,60,75
145280,note_on,161,0,3,,,,,,,,,2,,,60,0
145280,note_on,0,0,3,,,,,,,,,2,,,63,75
145440,note_on,0,0,1,,,,,,,,,0,,,86,88
145440,note_on,0,0,1,,,,,,,,,0,,,87,0
145440,note_on,0,0,1,,,,,,,,,0,,,98,88
145440,note_on,0,0,3,,,,,,,,,2,,,72,75
145440,note_on,480,0,1,,,,,,,,,0,,,99,0
145440,note_on,160,0,3,,,,,,,,,2,,,63,0
145599,note_on,159,0,3,,,,,,,,,2,,,72,0
145599,note_on,0,0,3,,,,,,,,,2,,,67,75
145680,note_on,240,0,1,,,,,,,,,0,,,98,0
145680,note_on,0,0,1,,,,,,,,,0,,,84,88
145680,note_on,0,0,1,,,,,,,,,0,,,86,0
145680,note_on,0,0,1,,,,,,,,,0,,,96,88
145760,note_on,161,0,3,,,,,,,,,2,,,67,0
145760,note_on,0,0,3,,,,,,,,,2,,,63,75
145920,note_on,0,0,1,,,,,,,,,0,,,94,88
145920,note_on,160,0,3,,,,,,,,,2,,,63,0
145920,note_on,240,0,1,,,,,,,,,0,,,96,0
145920,note_on,0,0,3,,,,,,,,,2,,,60,75
145920,note_on,0,0,1,,,,,,,,,0,,,84,0
145920,note_on,0,0,1,,,,,,,,,0,,,82,88
146079,note_on,159,0,3,,,,,,,,,2,,,60,0
146079,note_on,0,0,3,,,,,,,,,2,,,55,75
146160,control_change,0,0,1,,,,,,,,,0,64,0,,
146160,note_on,0,0,1,,,,,,,,,0,,,92,88
146160,note_on,240,0,1,,,,,,,,,0,,,94,0
146160,note_on,0,0,1,,,,,,,,,0,,,80,88
146160,note_on,0,0,1,,,,,,,,,0,,,82,0
146240,note_on,161,0,3,,,,,,,,,2,,,55,0
146240,note_on,0,0,3,,,,,,,,,2,,,51,75
146240,control_change,0,0,3,,,,,,,,,2,64,0,,
146400,control_change,0,0,1,,,,,,,,,0,64,127,,
146400,note_on,240,0,1,,,,,,,,,0,,,92,0
146400,note_on,0,0,1,,,,,,,,,0,,,80,0
146400,note_on,0,0,1,,,,,,,,,0,,,80,101
146400,note_on,160,0,3,,,,,,,,,2,,,51,0
146400,note_on,0,0,1,,,,,,,,,0,,,92,101
146559,control_change,159,0,3,,,,,,,,,2,64,127,,
146559,note_on,0,0,3,,,,,,,,,2,,,38,114
146640,note_on,240,0,1,,,,,,,,,0,,,92,0
146640,note_on,0,0,1,,,,,,,,,0,,,91,101
146640,note_on,0,0,1,,,,,,,,,0,,,80,0
146640,note_on,0,0,1,,,,,,,,,0,,,79,101
146720,note_on,161,0,3,,,,,,,,,2,,,38,0
146720,note_on,0,0,3,,,,,,,,,2,,,47,88
146880,note_on,240,0,1,,,,,,,,,0,,,91,0
146880,note_on,0,0,3,,,,,,,,,2,,,55,88
146880,note_on,160,0,3,,,,,,,,,2,,,47,0
146880,note_on,0,0,1,,,,,,,,,0,,,79,0
146880,note_on,0,0,1,,,,,,,,,0,,,89,127
146880,note_on,0,0,1,,,,,,,,,0,,,101,127
147039,note_on,0,0,3,,,,,,,,,2,,,59,88
147039,note_on,159,0,3,,,,,,,,,2,,,55,0
147120,set_tempo,18000,1,0,,,,,,526316,,,,,,,
147200,note_on,161,0,3,,,,,,,,,2,,,59,0
147200,note_on,0,0,3,,,,,,,,,2,,,65,88
147360,set_tempo,240,1,0,,,,,,555556,,,,,,,
147360,note_on,160,0,3,,,,,,,,,2,,,65,0
147360,note_on,0,0,3,,,,,,,,,2,,,74,88
147600,set_tempo,240,1,0,,,,,,588235,,,,,,,
147840,note_on,960,0,1,,,,,,,,,0,,,89,0
147840,set_tempo,240,1,0,,,,,,638298,,,,,,,
147840,note_on,480,0,3,,,,,,,,,2,,,74,0
147900,note_on,0,0,1,,,,,,,,,0,,,98,101
147900,note_on,60,0,1,,,,,,,,,0,,,101,0
147960,note_on,60,0,1,,,,,,,,,0,,,98,0
147960,note_on,0,0,1,,,,,,,,,0,,,95,101
148020,note_on,60,0,1,,,,,,,,,0,,,95,0
148020,note_on,0,0,1,,,,,,,,,0,,,92,101
148080,set_tempo,240,1,0,,,,,,681818,,,,,,,
148080,note_on,60,0,1,,,,,,,,,0,,,92,0
148080,note_on,0,0,1,,,,,,,,,0,,,91,101
148140,note_on,60,0,1,,,,,,,,,0,,,91,0
148140,note_on,0,0,1,,,,,,,,,0,,,90,101
148200,note_on,0,0,1,,,,,,,,,0,,,89,101
148200,note_on,60,0,1,,,,,,,,,0,,,90,0
148260,note_on,0,0,1,,,,,,,,,0,,,86,101
148260,note_on,60,0,1,,,,,,,,,0,,,89,0
148320,note_on,60,0,1,,,,,,,,,0,,,86,0
148320,set_tempo,240,1,0,,,,,,731707,,,,,,,
148320,note_on,0,0,1,,,,,,,,,0,,,83,101
148380,note_on,0,0,1,,,,,,,,,0,,,80,101
148380,note_on,60,0,1,,,,,,,,,0,,,83,0
148440,note_on,60,0,1,,,,,,,,,0,,,80,0
148440,note_on,0,0,1,,,,,,,,,0,,,79,101
148500,note_on,60,0,1,,,,,,,,,0,,,79,0
148500,note_on,0,0,1,,,,,,,,,0,,,79,101
148560,note_on,60,0,1,,,,,,,,,0,,,79,0
148560,set_tempo,240,1,0,,,,,,789474,,,,,,,
148560,note_on,0,0,1,,,,,,,,,0,,,80,101
148620,note_on,0,0,1,,,,,,,,,0,,,79,101
148620,note_on,60,0,1,,,,,,,,,0,,,80,0
148680,note_on,0,0,1,,,,,,,,,0,,,78,101
148680,note_on,60,0,1,,,,,,,,,0,,,79,0
148740,note_on,0,0,1,,,,,,,,,0,,,79,101
148740,note_on,60,0,1,,,,,,,,,0,,,78,0
148800,set_tempo,240,1,0,,,,,,882353,,,,,,,
148800,note_on,0,0,1,,,,,,,,,0,,,82,101
148800,note_on,60,0,1,,,,,,,,,0,,,79,0
148860,note_on,0,0,1,,,,,,,,,0,,,80,101
148860,note_on,60,0,1,,,,,,,,,0,,,82,0
148920,note_on,0,0,1,,,,,,,,,0,,,79,101
148920,note_on,60,0,1,,,,,,,,,0,,,80,0
148980,note_on,0,0,1,,,,,,,,,0,,,78,101
148980,note_on,60,0,1,,,,,,,,,0,,,79,0
149040,note_on,60,0,1,,,,,,,,,0,,,78,0
149040,note_on,0,0,1,,,,,,,,,0,,,77,101
149100,note_on,0,0,1,,,,,,,,,0,,,74,101
149100,note_on,60,0,1,,,,,,,,,0,,,77,0
149160,note_on,0,0,1,,,,,,,,,0,,,71,101
149160,note_on,60,0,1,,,,,,,,,0,,,74,0
149240,note_on,0,0,1,,,,,,,,,0,,,68,101
149240,note_on,80,0,1,,,,,,,,,0,,,71,0
149319,note_on,0,0,1,,,,,,,,,0,,,71,101
149319,note_on,79,0,1,,,,,,,,,0,,,68,0
149400,note_on,0,0,1,,,,,,,,,0,,,67,101
149400,note_on,81,0,1,,,,,,,,,0,,,71,0
149480,note_on,80,0,1,,,,,,,,,0,,,67,0
149480,note_on,0,0,1,,,,,,,,,0,,,71,101
149559,note_on,79,0,1,,,,,,,,,0,,,71,0
149559,note_on,0,0,1,,,,,,,,,0,,,66,101
149640,note_on,0,0,1,,,,,,,,,0,,,71,101
149640,note_on,81,0,1,,,,,,,,,0,,,66,0
149720,note_on,0,0,1,,,,,,,,,0,,,65,101
149720,note_on,80,0,1,,,,,,,,,0,,,71,0
149760,control_change,1920,0,3,,,,,,,,,2,64,0,,
149799,note_on,0,0,1,,,,,,,,,0,,,71,101
149799,note_on,79,0,1,,,,,,,,,0,,,65,0
149880,note_on,81,0,1,,,,,,,,,0,,,71,0
150000,control_change,120,0,1,,,,,,,,,0,64,0,,
150240,control_change,240,0,1,,,,,,,,,0,64,127,,
150240,key_signature,1440,1,0,,,,,C,,,,,,,,
150240,set_tempo,0,1,0,,,,,,500000,,,,,,,
150240,note_on,0,0,1,,,,,,,,,0,,,64,75
150399,note_on,0,0,3,,,,,,,,,2,,,50,62
150399,control_change,639,0,3,,,,,,,,,2,64,127,,
150560,note_on,0,0,3,,,,,,,,,2,,,56,62
150560,note_on,161,0,3,,,,,,,,,2,,,50,0
150720,note_on,0,0,3,,,,,,,,,2,,,64,62
150720,note_on,160,0,3,,,,,,,,,2,,,56,0
150720,note_on,480,0,1,,,,,,,,,0,,,64,0
150720,note_on,0,0,1,,,,,,,,,0,,,71,75
150879,note_on,159,0,3,,,,,,,,,2,,,64,0
150879,note_on,0,0,3,,,,,,,,,2,,,68,62
151040,note_on,161,0,3,,,,,,,,,2,,,68,0
151040,note_on,0,0,3,,,,,,,,,2,,,76,62
151200,note_on,480,0,1,,,,,,,,,0,,,71,0
151200,note_on,160,0,3,,,,,,,,,2,,,76,0
151200,note_on,0,0,3,,,,,,,,,2,,,83,62
151200,note_on,0,0,1,,,,,,,,,0,,,69,75
151359,note_on,0,0,3,,,,,,,,,2,,,76,62
151359,note_on,159,0,3,,,,,,,,,2,,,83,0
151520,note_on,0,0,3,,,,,,,,,2,,,68,62
151520,note_on,320,0,1,,,,,,,,,0,,,69,0
151520,note_on,0,0,1,,,,,,,,,0,,,68,75
151520,note_on,161,0,3,,,,,,,,,2,,,76,0
151680,note_on,0,0,3,,,,,,,,,2,,,65,62
151680,note_on,0,0,1,,,,,,,,,0,,,65,101
151680,note_on,160,0,3,,,,,,,,,2,,,68,0
151680,note_on,160,0,1,,,,,,,,,0,,,68,0
151839,note_on,0,0,3,,,,,,,,,2,,,56,62
151839,note_on,159,0,3,,,,,,,,,2,,,65,0
152000,control_change,0,0,3,,,,,,,,,2,64,0,,
152000,note_on,0,0,3,,,,,,,,,2,,,50,62
152000,note_on,161,0,3,,,,,,,,,2,,,56,0
152040,note_on,360,0,1,,,,,,,,,0,,,65,0
152040,control_change,0,0,1,,,,,,,,,0,64,0,,
152040,note_on,0,0,1,,,,,,,,,0,,,64,75
152160,note_on,120,0,1,,,,,,,,,0,,,64,0
152160,note_on,160,0,3,,,,,,,,,2,,,50,0
152160,note_on,0,0,1,,,,,,,,,0,,,64,75
152160,control_change,0,0,1,,,,,,,,,0,64,127,,
152319,control_change,159,0,3,,,,,,,,,2,64,127,,
152319,note_on,0,0,3,,,,,,,,,2,,,48,62
152480,note_on,0,0,3,,,,,,,,,2,,,57,62
152480,note_on,161,0,3,,,,,,,,,2,,,48,0
152640,note_on,0,0,3,,,,,,,,,2,,,64,62
152640,note_on,160,0,3,,,,,,,,,2,,,57,0
152640,note_on,0,0,1,,,,,,,,,0,,,72,75
152640,note_on,480,0,1,,,,,,,,,0,,,64,0
152799,note_on,0,0,3,,,,,,,,,2,,,69,62
152799,note_on,159,0,3,,,,,,,,,2,,,64,0
152960,note_on,0,0,3,,,,,,,,,2,,,76,62
152960,note_on,161,0,3,,,,,,,,,2,,,69,0
153120,note_on,480,0,1,,,,,,,,,0,,,72,0
153120,note_on,160,0,3,,,,,,,,,2,,,76,0
153120,note_on,0,0,3,,,,,,,,,2,,,84,62
153120,note_on,0,0,1,,,,,,,,,0,,,71,75
153279,note_on,159,0,3,,,,,,,,,2,,,84,0
153279,note_on,0,0,3,,,,,,,,,2,,,76,62
153440,note_on,320,0,1,,,,,,,,,0,,,71,0
153440,note_on,0,0,1,,,,,,,,,0,,,69,75
153440,note_on,161,0,3,,,,,,,,,2,,,76,0
153440,note_on,0,0,3,,,,,,,,,2,,,69,62
153600,note_on,160,0,3,,,,,,,,,2,,,69,0
153600,note_on,160,0,1,,,,,,,,,0,,,69,0
153600,note_on,0,0,1,,,,,,,,,0,,,65,101
153600,note_on,0,0,3,,,,,,,,,2,,,65,62
153759,note_on,159,0,3,,,,,,,,,2,,,65,0
153759,note_on,0,0,3,,,,,,,,,2,,,57,62
153920,note_on,161,0,3,,,,,,,,,2,,,57,0
153920,note_on,0,0,3,,,,,,,,,2,,,48,62
153920,control_change,0,0,3,,,,,,,,,2,64,0,,
153960,note_on,0,0,1,,,,,,,,,0,,,64,75
153960,note_on,360,0,1,,,,,,,,,0,,,65,0
153960,control_change,0,0,1,,,,,,,,,0,64,0,,
154020,note_on,60,0,1,,,,,,,,,0,,,67,75
154080,note_on,160,0,3,,,,,,,,,2,,,48,0
154080,note_on,0,0,1,,,,,,,,,0,,,64,0
154080,control_change,0,0,1,,,,,,,,,0,64,127,,
154080,note_on,60,0,1,,,,,,,,,0,,,67,0
154080,note_on,0,0,1,,,,,,,,,0,,,65,75
154239,control_change,159,0,3,,,,,,,,,2,64,127,,
154239,note_on,0,0,3,,,,,,,,,2,,,47,75
154320,note_on,240,0,1,,,,,,,,,0,,,65,0
154320,note_on,0,0,1,,,,,,,,,0,,,64,75
154400,note_on,0,0,3,,,,,,,,,2,,,56,75
154400,note_on,161,0,3,,,,,,,,,2,,,47,0
154560,note_on,240,0,1,,,,,,,,,0,,,64,0
154560,note_on,160,0,3,,,,,,,,,2,,,56,0
154560,note_on,0,0,3,,,,,,,,,2,,,64,75
154560,note_on,0,0,1,,,,,,,,,0,,,74,101
154719,note_on,0,0,3,,,,,,,,,2,,,68,75
154719,note_on,159,0,3,,,,,,,,,2,,,64,0
154880,note_on,161,0,3,,,,,,,,,2,,,68,0
154880,note_on,0,0,3,,,,,,,,,2,,,76,75
155040,note_on,0,0,3,,,,,,,,,2,,,86,75
155040,note_on,160,0,3,,,,,,,,,2,,,76,0
155280,note_on,240,0,3,,,,,,,,,2,,,86,0
155520,set_tempo,5280,1,0,,,,,,600000,,,,,,,
155580,note_on,0,0,1,,,,,,,,,0,,,70,75
155580,note_on,1020,0,1,,,,,,,,,0,,,74,0
155640,note_on,60,0,1,,,,,,,,,0,,,70,0
155640,note_on,0,0,1,,,,,,,,,0,,,71,75
155700,note_on,0,0,1,,,,,,,,,0,,,77,75
155700,note_on,60,0,1,,,,,,,,,0,,,71,0
155760,note_on,0,0,1,,,,,,,,,0,,,76,75
155760,note_on,60,0,1,,,,,,,,,0,,,77,0
155820,note_on,0,0,1,,,,,,,,,0,,,74,75
155820,note_on,60,0,1,,,,,,,,,0,,,76,0
155880,note_on,60,0,1,,,,,,,,,0,,,74,0
155880,note_on,0,0,1,,,,,,,,,0,,,71,75
155940,note_on,0,0,1,,,,,,,,,0,,,68,75
155940,note_on,60,0,1,,,,,,,,,0,,,71,0
156000,note_on,0,0,1,,,,,,,,,0,,,71,75
156000,note_on,60,0,1,,,,,,,,,0,,,68,0
156060,note_on,60,0,1,,,,,,,,,0,,,71,0
156060,note_on,0,0,1,,,,,,,,,0,,,62,75
156120,note_on,0,0,1,,,,,,,,,0,,,63,75
156120,note_on,60,0,1,,,,,,,,,0,,,62,0
156180,note_on,0,0,1,,,,,,,,,0,,,64,75
156180,note_on,60,0,1,,,,,,,,,0,,,63,0
156240,set_tempo,720,1,0,,,,,,618557,,,,,,,
156240,note_on,0,0,1,,,,,,,,,0,,,67,75
156240,note_on,60,0,1,,,,,,,,,0,,,64,0
156300,note_on,0,0,1,,,,,,,,,0,,,65,75
156300,note_on,60,0,1,,,,,,,,,0,,,67,0
156360,note_on,60,0,1,,,,,,,,,0,,,65,0
156360,note_on,0,0,1,,,,,,,,,0,,,64,75
156420,note_on,60,0,1,,,,,,,,,0,,,64,0
156420,note_on,0,0,1,,,,,,,,,0,,,62,75
156480,note_on,60,0,1,,,,,,,,,0,,,62,0
156480,set_tempo,240,1,0,,,,,,638298,,,,,,,
156480,note_on,1200,0,3,,,,,,,,,2,,,59,75
156540,note_on,60,0,3,,,,,,,,,2,,,59,0
156540,note_on,0,0,3,,,,,,,,,2,,,56,75
156600,note_on,60,0,3,,,,,,,,,2,,,56,0
156600,note_on,0,0,3,,,,,,,,,2,,,59,75
156660,note_on,60,0,3,,,,,,,,,2,,,59,0
156660,note_on,0,0,3,,,,,,,,,2,,,50,75
156720,note_on,0,0,3,,,,,,,,,2,,,51,75
156720,set_tempo,240,1,0,,,,,,659341,,,,,,,
156720,note_on,60,0,3,,,,,,,,,2,,,50,0
156780,note_on,60,0,3,,,,,,,,,2,,,51,0
156780,note_on,0,0,3,,,,,,,,,2,,,52,75
156840,note_on,0,0,3,,,,,,,,,2,,,55,75
156840,note_on,60,0,3,,,,,,,,,2,,,52,0
156900,note_on,0,0,3,,,,,,,,,2,,,53,75
156900,note_on,60,0,3,,,,,,,,,2,,,55,0
156960,note_on,0,0,3,,,,,,,,,2,,,52,75
156960,set_tempo,240,1,0,,,,,,689655,,,,,,,
156960,note_on,60,0,3,,,,,,,,,2,,,53,0
157020,note_on,0,0,3,,,,,,,,,2,,,50,75
157020,note_on,60,0,3,,,,,,,,,2,,,52,0
157080,note_on,0,0,3,,,,,,,,,2,,,47,75
157080,note_on,60,0,3,,,,,,,,,2,,,50,0
157140,note_on,0,0,3,,,,,,,,,2,,,44,75
157140,note_on,60,0,3,,,,,,,,,2,,,47,0
157200,note_on,0,0,3,,,,,,,,,2,,,39,75
157200,set_tempo,240,1,0,,,,,,714286,,,,,,,
157200,note_on,60,0,3,,,,,,,,,2,,,44,0
157260,note_on,0,0,3,,,,,,,,,2,,,40,75
157260,control_change,0,0,3,,,,,,,,,2,64,0,,
157260,note_on,60,0,3,,,,,,,,,2,,,39,0
157320,control_change,0,0,3,,,,,,,,,2,64,127,,
157320,note_on,0,0,3,,,,,,,,,2,,,43,75
157320,note_on,60,0,3,,,,,,,,,2,,,40,0
157351,note_on,31,0,3,,,,,,,,,2,,,43,0
157440,set_tempo,240,1,0,,,,,,740741,,,,,,,
157479,note_on,128,0,3,,,,,,,,,2,,,42,75
157511,note_on,32,0,3,,,,,,,,,2,,,42,0
157640,note_on,129,0,3,,,,,,,,,2,,,41,75
157680,set_tempo,240,1,0,,,,,,769231,,,,,,,
157920,time_signature,240,1,0,1,4,24,8,,,,,,,,,
157920,set_tempo,0,1,0,,,,,,810811,,,,,,,
157920,note_on,0,0,3,,,,,,,,,2,,,40,75
157920,control_change,1440,0,1,,,,,,,,,0,64,0,,
157920,note_on,280,0,3,,,,,,,,,2,,,41,0
157951,note_on,31,0,3,,,,,,,,,2,,,40,0
158079,note_on,128,0,3,,,,,,,,,2,,,39,75
158111,note_on,32,0,3,,,,,,,,,2,,,39,0
158240,control_change,129,0,3,,,,,,,,,2,64,0,,
158240,note_on,0,0,3,,,,,,,,,2,,,38,75
158272,note_on,32,0,3,,,,,,,,,2,,,38,0
158400,control_change,480,0,1,,,,,,,,,0,64,127,,
158400,note_on,0,0,3,,,,,,,,,2,,,37,75
158400,control_change,128,0,3,,,,,,,,,2,64,127,,
158400,time_signature,480,1,0,4,4,24,8,,,,,,,,,
158400,control_change,33120,0,2,,,,,,,,,1,64,127,,
158400,set_tempo,0,1,0,,,,,,444444,,,,,,,
158559,note_on,159,0,1,,,,,,,,,0,,,59,62
158559,note_on,0,0,1,,,,,,,,,0,,,61,62
158720,note_on,161,0,1,,,,,,,,,0,,,61,0
158720,note_on,0,0,1,,,,,,,,,0,,,61,62
158720,note_on,0,0,1,,,,,,,,,0,,,59,62
158720,note_on,0,0,1,,,,,,,,,0,,,59,0
158880,note_on,0,0,3,,,,,,,,,2,,,44,75
158880,note_on,480,0,2,,,,,,,,,1,,,49,75
158880,note_on,480,0,3,,,,,,,,,2,,,37,0
159039,note_on,0,0,1,,,,,,,,,0,,,61,62
159039,note_on,0,0,1,,,,,,,,,0,,,59,62
159039,note_on,319,0,1,,,,,,,,,0,,,61,0
159039,note_on,0,0,1,,,,,,,,,0,,,59,0
159200,note_on,0,0,1,,,,,,,,,0,,,59,62
159200,note_on,0,0,1,,,,,,,,,0,,,59,0
159200,note_on,0,0,1,,,,,,,,,0,,,61,62
159200,note_on,161,0,1,,,,,,,,,0,,,61,0
159360,note_on,480,0,2,,,,,,,,,1,,,49,0
159360,note_on,0,0,3,,,,,,,,,2,,,42,75
159360,note_on,480,0,3,,,,,,,,,2,,,44,0
159360,note_on,0,0,2,,,,,,,,,1,,,50,75
159519,note_on,0,0,1,,,,,,,,,0,,,59,62
159519,note_on,0,0,1,,,,,,,,,0,,,59,0
159519,note_on,319,0,1,,,,,,,,,0,,,61,0
159519,note_on,0,0,1,,,,,,,,,0,,,61,62
159600,note_on,240,0,3,,,,,,,,,2,,,42,0
159600,note_on,0,0,3,,,,,,,,,2,,,41,75
159680,note_on,0,0,1,,,,,,,,,0,,,61,62
159680,note_on,161,0,1,,,,,,,,,0,,,61,0
159680,note_on,0,0,1,,,,,,,,,0,,,59,0
159680,note_on,0,0,1,,,,,,,,,0,,,59,62
159840,note_on,0,0,2,,,,,,,,,1,,,54,75
159840,note_on,480,0,2,,,,,,,,,1,,,50,0
159840,note_on,240,0,3,,,,,,,,,2,,,41,0
159840,control_change,0,0,2,,,,,,,,,1,64,0,,
159840,note_on,0,0,3,,,,,,,,,2,,,38,75
159999,note_on,0,0,1,,,,,,,,,0,,,59,0
159999,note_on,0,0,1,,,,,,,,,0,,,59,62
159999,note_on,0,0,1,,,,,,,,,0,,,61,62
159999,note_on,319,0,1,,,,,,,,,0,,,61,0
160080,note_on,0,0,3,,,,,,,,,2,,,37,75
160080,note_on,240,0,3,,,,,,,,,2,,,38,0
160080,control_change,0,0,3,,,,,,,,,2,64,0,,
160160,note_on,0,0,1,,,,,,,,,0,,,59,0
160160,note_on,0,0,1,,,,,,,,,0,,,59,62
160160,note_on,0,0,1,,,,,,,,,0,,,61,62
160160,control_change,0,0,1,,,,,,,,,0,64,0,,
160160,note_on,161,0,1,,,,,,,,,0,,,61,0
160320,note_on,480,0,2,,,,,,,,,1,,,54,0
160320,note_on,0,0,2,,,,,,,,,1,,,54,88
160320,note_on,240,0,3,,,,,,,,,2,,,37,0
160320,note_on,0,0,3,,,,,,,,,2,,,37,75
160320,control_change,0,0,3,,,,,,,,,2,64,127,,
160320,control_change,0,0,2,,,,,,,,,1,64,127,,
160320,control_change,160,0,1,,,,,,,,,0,64,127,,
160479,note_on,159,0,1,,,,,,,,,0,,,61,0
160479,note_on,0,0,1,,,,,,,,,0,,,61,75
160479,note_on,0,0,1,,,,,,,,,0,,,59,75
160479,note_on,0,0,1,,,,,,,,,0,,,59,0
160640,note_on,0,0,1,,,,,,,,,0,,,59,75
160640,note_on,0,0,1,,,,,,,,,0,,,61,75
160640,note_on,161,0,1,,,,,,,,,0,,,61,0
160640,note_on,0,0,1,,,,,,,,,0,,,59,0
160800,note_on,480,0,3,,,,,,,,,2,,,37,0
160800,note_on,0,0,3,,,,,,,,,2,,,74,114
160800,note_on,0,0,2,,,,,,,,,1,,,53,88
160800,note_on,480,0,2,,,,,,,,,1,,,54,0
160959,note_on,0,0,1,,,,,,,,,0,,,59,0
160959,note_on,0,0,1,,,,,,,,,0,,,59,75
160959,note_on,0,0,1,,,,,,,,,0,,,61,75
160959,note_on,319,0,1,,,,,,,,,0,,,61,0
161120,note_on,0,0,1,,,,,,,,,0,,,59,0
161120,note_on,0,0,1,,,,,,,,,0,,,59,75
161120,note_on,0,0,1,,,,,,,,,0,,,61,75
161120,note_on,161,0,1,,,,,,,,,0,,,61,0
161160,note_on,0,0,3,,,,,,,,,2,,,73,88
161160,note_on,360,0,3,,,,,,,,,2,,,74,0
161280,note_on,480,0,2,,,,,,,,,1,,,53,0
161280,note_on,120,0,3,,,,,,,,,2,,,73,0
161280,note_on,0,0,2,,,,,,,,,1,,,61,114
161280,note_on,0,0,3,,,,,,,,,2,,,73,88
161280,note_on,0,0,2,,,,,,,,,1,,,57,114
161439,note_on,319,0,1,,,,,,,,,0,,,61,0
161439,note_on,0,0,1,,,,,,,,,0,,,59,75
161439,note_on,0,0,1,,,,,,,,,0,,,59,0
161439,note_on,0,0,1,,,,,,,,,0,,,61,75
161600,note_on,0,0,1,,,,,,,,,0,,,59,75
161600,note_on,0,0,1,,,,,,,,,0,,,61,75
161600,note_on,0,0,1,,,,,,,,,0,,,59,0
161600,note_on,161,0,1,,,,,,,,,0,,,61,0
161760,note_on,480,0,2,,,,,,,,,1,,,61,0
161760,control_change,0,0,2,,,,,,,,,1,64,0,,
161760,note_on,0,0,2,,,,,,,,,1,,,57,0
161760,note_on,0,0,2,,,,,,,,,1,,,56,88
161919,note_on,319,0,1,,,,,,,,,0,,,61,0
161919,note_on,0,0,1,,,,,,,,,0,,,61,75
161919,note_on,0,0,1,,,,,,,,,0,,,59,75
161919,note_on,0,0,1,,,,,,,,,0,,,59,0
162000,note_on,720,0,3,,,,,,,,,2,,,73,0
162000,control_change,0,0,3,,,,,,,,,2,64,0,,
162000,note_on,0,0,3,,,,,,,,,2,,,37,88
162080,note_on,0,0,1,,,,,,,,,0,,,61,75
162080,note_on,0,0,1,,,,,,,,,0,,,59,75
162080,note_on,161,0,1,,,,,,,,,0,,,61,0
162080,note_on,0,0,1,,,,,,,,,0,,,59,0
162080,control_change,0,0,1,,,,,,,,,0,64,0,,
162240,control_change,0,0,3,,,,,,,,,2,64,127,,
162240,note_on,0,0,1,,,,,,,,,0,,,59,0
162240,note_on,0,0,3,,,,,,,,,2,,,38,75
162240,note_on,160,0,1,,,,,,,,,0,,,61,0
162240,note_on,240,0,3,,,,,,,,,2,,,37,0
162240,note_on,480,0,2,,,,,,,,,1,,,56,0
162399,control_change,159,0,1,,,,,,,,,0,64,127,,
162399,note_on,0,0,1,,,,,,,,,0,,,60,62
162399,note_on,0,0,1,,,,,,,,,0,,,62,62
162560,note_on,0,0,1,,,,,,,,,0,,,60,0
162560,note_on,161,0,1,,,,,,,,,0,,,62,0
162560,note_on,0,0,1,,,,,,,,,0,,,60,62
162560,note_on,0,0,1,,,,,,,,,0,,,62,62
162720,note_on,480,0,3,,,,,,,,,2,,,38,0
162720,note_on,0,0,2,,,,,,,,,1,,,50,75
162720,note_on,0,0,3,,,,,,,,,2,,,45,75
162720,control_change,480,0,2,,,,,,,,,1,64,127,,
162879,note_on,319,0,1,,,,,,,,,0,,,62,0
162879,note_on,0,0,1,,,,,,,,,0,,,62,62
162879,note_on,0,0,1,,,,,,,,,0,,,60,62
162879,note_on,0,0,1,,,,,,,,,0,,,60,0
163040,note_on,0,0,1,,,,,,,,,0,,,62,62
163040,note_on,161,0,1,,,,,,,,,0,,,62,0
163040,note_on,0,0,1,,,,,,,,,0,,,60,62
163040,note_on,0,0,1,,,,,,,,,0,,,60,0
163200,note_on,480,0,2,,,,,,,,,1,,,50,0
163200,note_on,480,0,3,,,,,,,,,2,,,45,0
163200,note_on,0,0,2,,,,,,,,,1,,,51,75
163200,note_on,0,0,3,,,,,,,,,2,,,43,75
163359,note_on,0,0,1,,,,,,,,,0,,,60,62
163359,note_on,0,0,1,,,,,,,,,0,,,62,62
163359,note_on,0,0,1,,,,,,,,,0,,,60,0
163359,note_on,319,0,1,,,,,,,,,0,,,62,0
163440,note_on,0,0,3,,,,,,,,,2,,,42,75
163440,note_on,240,0,3,,,,,,,,,2,,,43,0
163520,note_on,0,0,1,,,,,,,,,0,,,60,62
163520,note_on,0,0,1,,,,,,,,,0,,,60,0
163520,note_on,0,0,1,,,,,,,,,0,,,62,62
163520,note_on,161,0,1,,,,,,,,,0,,,62,0
163680,control_change,0,0,2,,,,,,,,,1,64,0,,
163680,note_on,0,0,3,,,,,,,,,2,,,39,75
163680,note_on,240,0,3,,,,,,,,,2,,,42,0
163680,note_on,480,0,2,,,,,,,,,1,,,51,0
163680,note_on,0,0,2,,,,,,,,,1,,,55,75
163839,note_on,319,0,1,,,,,,,,,0,,,62,0
163839,note_on,0,0,1,,,,,,,,,0,,,60,0
163839,note_on,0,0,1,,,,,,,,,0,,,60,62
163839,note_on,0,0,1,,,,,,,,,0,,,62,62
163920,control_change,0,0,3,,,,,,,,,2,64,0,,
163920,note_on,0,0,3,,,,,,,,,2,,,38,75
163920,note_on,240,0,3,,,,,,,,,2,,,39,0
164000,note_on,0,0,1,,,,,,,,,0,,,60,0
164000,note_on,161,0,1,,,,,,,,,0,,,62,0
164000,note_on,0,0,1,,,,,,,,,0,,,62,62
164000,note_on,0,0,1,,,,,,,,,0,,,60,62
164000,control_change,0,0,1,,,,,,,,,0,64,0,,
164160,control_change,0,0,2,,,,,,,,,1,64,127,,
164160,control_change,0,0,3,,,,,,,,,2,64,127,,
164160,control_change,160,0,1,,,,,,,,,0,64,127,,
164160,note_on,0,0,2,,,,,,,,,1,,,55,88
164160,note_on,240,0,3,,,,,,,,,2,,,38,0
164160,note_on,480,0,2,,,,,,,,,1,,,55,0
164160,note_on,0,0,3,,,,,,,,,2,,,38,88
164319,note_on,159,0,1,,,,,,,,,0,,,62,0
164319,note_on,0,0,1,,,,,,,,,0,,,62,75
164319,note_on,0,0,1,,,,,,,,,0,,,60,75
164319,note_on,0,0,1,,,,,,,,,0,,,60,0
164480,note_on,161,0,1,,,,,,,,,0,,,62,0
164480,note_on,0,0,1,,,,,,,,,0,,,60,0
164480,note_on,0,0,1,,,,,,,,,0,,,60,75
164480,note_on,0,0,1,,,,,,,,,0,,,62,75
164640,note_on,0,0,2,,,,,,,,,1,,,54,88
164640,note_on,480,0,2,,,,,,,,,1,,,55,0
164640,note_on,480,0,3,,,,,,,,,2,,,38,0
164640,note_on,0,0,3,,,,,,,,,2,,,75,114
164799,note_on,319,0,1,,,,,,,,,0,,,62,0
164799,note_on,0,0,1,,,,,,,,,0,,,60,0
164799,note_on,0,0,1,,,,,,,,,0,,,60,75
164799,note_on,0,0,1,,,,,,,,,0,,,62,75
164960,note_on,0,0,1,,,,,,,,,0,,,60,0
164960,note_on,0,0,1,,,,,,,,,0,,,60,75
164960,note_on,161,0,1,,,,,,,,,0,,,62,0
164960,note_on,0,0,1,,,,,,,,,0,,,62,75
165000,note_on,360,0,3,,,,,,,,,2,,,75,0
165000,note_on,0,0,3,,,,,,,,,2,,,74,88
165120,note_on,0,0,2,,,,,,,,,1,,,62,88
165120,note_on,0,0,2,,,,,,,,,1,,,58,88
165120,note_on,0,0,3,,,,,,,,,2,,,74,88
165120,note_on,480,0,2,,,,,,,,,1,,,54,0
165120,note_on,120,0,3,,,,,,,,,2,,,74,0
165279,note_on,0,0,1,,,,,,,,,0,,,62,75
165279,note_on,319,0,1,,,,,,,,,0,,,62,0
165279,note_on,0,0,1,,,,,,,,,0,,,60,0
165279,note_on,0,0,1,,,,,,,,,0,,,60,75
165440,note_on,0,0,1,,,,,,,,,0,,,60,0
165440,note_on,0,0,1,,,,,,,,,0,,,60,75
165440,note_on,0,0,1,,,,,,,,,0,,,62,75
165440,note_on,161,0,1,,,,,,,,,0,,,62,0
165600,note_on,480,0,2,,,,,,,,,1,,,62,0
165600,control_change,0,0,2,,,,,,,,,1,64,0,,
165600,note_on,0,0,2,,,,,,,,,1,,,57,88
165600,note_on,0,0,2,,,,,,,,,1,,,58,0
165759,note_on,0,0,1,,,,,,,,,0,,,60,75
165759,note_on,319,0,1,,,,,,,,,0,,,62,0
165759,note_on,0,0,1,,,,,,,,,0,,,60,0
165759,note_on,0,0,1,,,,,,,,,0,,,62,75
165840,control_change,0,0,3,,,,,,,,,2,64,0,,
165840,note_on,720,0,3,,,,,,,,,2,,,74,0
165840,note_on,0,0,3,,,,,,,,,2,,,38,88
165920,note_on,0,0,1,,,,,,,,,0,,,62,75
165920,control_change,0,0,1,,,,,,,,,0,64,0,,
165920,note_on,0,0,1,,,,,,,,,0,,,60,0
165920,note_on,161,0,1,,,,,,,,,0,,,62,0
165920,note_on,0,0,1,,,,,,,,,0,,,60,75
166080,key_signature,7680,1,0,,,,,Ab,,,,,,,,
166080,note_on,0,0,3,,,,,,,,,2,,,39,75
166080,control_change,0,0,3,,,,,,,,,2,64,127,,
166080,note_on,0,0,1,,,,,,,,,0,,,60,0
166080,note_on,240,0,3,,,,,,,,,2,,,38,0
166080,note_on,480,0,2,,,,,,,,,1,,,57,0
166080,note_on,160,0,1,,,,,,,,,0,,,62,0
166239,note_on,0,0,1,,,,,,,,,0,,,61,62
166239,control_change,159,0,1,,,,,,,,,0,64,127,,
166239,note_on,0,0,1,,,,,,,,,0,,,63,62
166400,note_on,161,0,1,,,,,,,,,0,,,63,0
166400,note_on,0,0,1,,,,,,,,,0,,,63,62
166400,note_on,0,0,1,,,,,,,,,0,,,61,0
166400,note_on,0,0,1,,,,,,,,,0,,,61,62
166560,control_change,480,0,2,,,,,,,,,1,64,127,,
166560,note_on,0,0,3,,,,,,,,,2,,,46,75
166560,note_on,0,0,2,,,,,,,,,1,,,51,75
166560,note_on,480,0,3,,,,,,,,,2,,,39,0
166719,note_on,0,0,1,,,,,,,,,0,,,61,62
166719,note_on,0,0,1,,,,,,,,,0,,,63,62
166719,note_on,0,0,1,,,,,,,,,0,,,61,0
166719,note_on,319,0,1,,,,,,,,,0,,,63,0
166880,note_on,161,0,1,,,,,,,,,0,,,63,0
166880,note_on,0,0,1,,,,,,,,,0,,,61,0
166880,note_on,0,0,1,,,,,,,,,0,,,61,62
166880,note_on,0,0,1,,,,,,,,,0,,,63,62
167040,note_on,0,0,3,,,,,,,,,2,,,44,75
167040,note_on,480,0,3,,,,,,,,,2,,,46,0
167040,note_on,0,0,2,,,,,,,,,1,,,52,75
167040,note_on,480,0,2,,,,,,,,,1,,,51,0
167199,note_on,0,0,1,,,,,,,,,0,,,61,0
167199,note_on,0,0,1,,,,,,,,,0,,,61,62
167199,note_on,0,0,1,,,,,,,,,0,,,63,62
167199,note_on,319,0,1,,,,,,,,,0,,,63,0
167280,note_on,0,0,3,,,,,,,,,2,,,43,75
167280,note_on,240,0,3,,,,,,,,,2,,,44,0
167360,note_on,0,0,1,,,,,,,,,0,,,61,0
167360,note_on,0,0,1,,,,,,,,,0,,,61,62
167360,note_on,0,0,1,,,,,,,,,0,,,63,62
167360,note_on,161,0,1,,,,,,,,,0,,,63,0
167520,note_on,0,0,3,,,,,,,,,2,,,40,75
167520,control_change,0,0,2,,,,,,,,,1,64,0,,
167520,note_on,0,0,2,,,,,,,,,1,,,56,75
167520,note_on,480,0,2,,,,,,,,,1,,,52,0
167520,note_on,240,0,3,,,,,,,,,2,,,43,0
167679,note_on,319,0,1,,,,,,,,,0,,,63,0
167679,note_on,0,0,1,,,,,,,,,0,,,61,0
167679,note_on,0,0,1,,,,,,,,,0,,,61,62
167679,note_on,0,0,1,,,,,,,,,0,,,63,62
167760,note_on,0,0,3,,,,,,,,,2,,,39,75
167760,control_change,0,0,3,,,,,,,,,2,64,0,,
167760,note_on,240,0,3,,,,,,,,,2,,,40,0
167840,note_on,161,0,1,,,,,,,,,0,,,63,0
167840,note_on,0,0,1,,,,,,,,,0,,,61,0
167840,note_on,0,0,1,,,,,,,,,0,,,61,62
167840,note_on,0,0,1,,,,,,,,,0,,,63,62
167840,control_change,0,0,1,,,,,,,,,0,64,0,,
168000,note_on,0,0,3,,,,,,,,,2,,,39,88
168000,note_on,0,0,2,,,,,,,,,1,,,56,88
168000,control_change,0,0,2,,,,,,,,,1,64,127,,
168000,note_on,480,0,2,,,,,,,,,1,,,56,0
168000,control_change,0,0,3,,,,,,,,,2,64,127,,
168000,note_on,240,0,3,,,,,,,,,2,,,39,0
168000,note_on,0,0,1,,,,,,,,,0,,,61,75
168000,control_change,0,0,1,,,,,,,,,0,64,127,,
168000,note_on,0,0,1,,,,,,,,,0,,,63,75
168000,note_on,160,0,1,,,,,,,,,0,,,63,0
168000,note_on,0,0,1,,,,,,,,,0,,,61,0
168159,note_on,0,0,1,,,,,,,,,0,,,61,0
168159,note_on,0,0,1,,,,,,,,,0,,,61,75
168159,note_on,0,0,1,,,,,,,,,0,,,63,75
168159,note_on,159,0,1,,,,,,,,,0,,,63,0
168320,note_on,161,0,1,,,,,,,,,0,,,63,0
168320,note_on,0,0,1,,,,,,,,,0,,,61,0
168320,note_on,0,0,1,,,,,,,,,0,,,61,75
168320,note_on,0,0,1,,,,,,,,,0,,,63,75
168480,note_on,0,0,2,,,,,,,,,1,,,70,114
168480,note_on,480,0,3,,,,,,,,,2,,,39,0
168480,note_on,0,0,3,,,,,,,,,2,,,55,88
168480,note_on,0,0,2,,,,,,,,,1,,,76,114
168480,note_on,480,0,2,,,,,,,,,1,,,56,0
168639,note_on,0,0,1,,,,,,,,,0,,,61,75
168639,note_on,0,0,1,,,,,,,,,0,,,63,75
168639,note_on,0,0,1,,,,,,,,,0,,,61,0
168639,note_on,319,0,1,,,,,,,,,0,,,63,0
168800,note_on,0,0,1,,,,,,,,,0,,,61,75
168800,note_on,0,0,1,,,,,,,,,0,,,61,0
168800,note_on,161,0,1,,,,,,,,,0,,,63,0
168800,note_on,0,0,1,,,,,,,,,0,,,63,75
168840,note_on,0,0,2,,,,,,,,,1,,,70,0
168840,note_on,0,0,2,,,,,,,,,1,,,75,88
168840,note_on,360,0,2,,,,,,,,,1,,,76,0
168960,note_on,0,0,2,,,,,,,,,1,,,75,88
168960,note_on,0,0,3,,,,,,,,,2,,,68,88
168960,note_on,0,0,3,,,,,,,,,2,,,59,88
168960,note_on,120,0,2,,,,,,,,,1,,,75,0
168960,note_on,480,0,3,,,,,,,,,2,,,55,0
169119,note_on,319,0,1,,,,,,,,,0,,,63,0
169119,note_on,0,0,1,,,,,,,,,0,,,61,75
169119,note_on,0,0,1,,,,,,,,,0,,,61,0
169119,note_on,0,0,1,,,,,,,,,0,,,63,75
169200,note_on,0,0,3,,,,,,,,,2,,,67,88
169200,note_on,0,0,3,,,,,,,,,2,,,58,88
169200,note_on,0,0,3,,,,,,,,,2,,,59,0
169200,note_on,240,0,3,,,,,,,,,2,,,68,0
169280,note_on,0,0,1,,,,,,,,,0,,,61,0
169280,note_on,161,0,1,,,,,,,,,0,,,63,0
169280,note_on,0,0,1,,,,,,,,,0,,,61,75
169280,note_on,0,0,1,,,,,,,,,0,,,63,75
169440,note_on,480,0,2,,,,,,,,,1,,,75,0
169440,note_on,160,0,1,,,,,,,,,0,,,63,0
169440,note_on,0,0,1,,,,,,,,,0,,,61,75
169440,note_on,0,0,3,,,,,,,,,2,,,58,0
169440,note_on,0,0,3,,,,,,,,,2,,,64,88
169440,note_on,0,0,1,,,,,,,,,0,,,61,0
169440,note_on,0,0,3,,,,,,,,,2,,,56,88
169440,note_on,240,0,3,,,,,,,,,2,,,67,0
169440,control_change,0,0,2,,,,,,,,,1,64,0,,
169599,note_on,0,0,1,,,,,,,,,0,,,61,75
169599,note_on,159,0,1,,,,,,,,,0,,,61,0
169680,note_on,0,0,3,,,,,,,,,2,,,63,88
169680,note_on,240,0,3,,,,,,,,,2,,,64,0
169680,note_on,0,0,3,,,,,,,,,2,,,55,88
169680,control_change,0,0,3,,,,,,,,,2,64,0,,
169680,note_on,0,0,3,,,,,,,,,2,,,56,0
169760,note_on,161,0,1,,,,,,,,,0,,,61,0
169760,control_change,0,0,1,,,,,,,,,0,64,0,,
169760,note_on,0,0,1,,,,,,,,,0,,,61,75
169920,note_on,160,0,1,,,,,,,,,0,,,61,0
169920,note_on,0,0,3,,,,,,,,,2,,,55,0
169920,note_on,240,0,3,,,,,,,,,2,,,63,0
169920,note_on,0,0,3,,,,,,,,,2,,,39,75
169920,control_change,0,0,3,,,,,,,,,2,64,127,,
170079,control_change,159,0,1,,,,,,,,,0,64,127,,
170079,note_on,0,0,1,,,,,,,,,0,,,61,62
170079,note_on,0,0,1,,,,,,,,,0,,,63,62
170240,note_on,161,0,1,,,,,,,,,0,,,63,0
170240,note_on,0,0,1,,,,,,,,,0,,,63,62
170240,note_on,0,0,1,,,,,,,,,0,,,61,62
170240,note_on,0,0,1,,,,,,,,,0,,,61,0
170400,control_change,960,0,2,,,,,,,,,1,64,127,,
170400,note_on,0,0,3,,,,,,,,,2,,,46,75
170400,note_on,0,0,2,,,,,,,,,1,,,51,75
170400,note_on,480,0,3,,,,,,,,,2,,,39,0
170559,note_on,0,0,1,,,,,,,,,0,,,63,62
170559,note_on,0,0,1,,,,,,,,,0,,,61,0
170559,note_on,0,0,1,,,,,,,,,0,,,61,62
170559,note_on,319,0,1,,,,,,,,,0,,,63,0
170720,note_on,0,0,1,,,,,,,,,0,,,61,0
170720,note_on,161,0,1,,,,,,,,,0,,,63,0
170720,note_on,0,0,1,,,,,,,,,0,,,61,62
170720,note_on,0,0,1,,,,,,,,,0,,,63,62
170880,note_on,0,0,3,,,,,,,,,2,,,44,75
170880,note_on,480,0,3,,,,,,,,,2,,,46,0
170880,note_on,0,0,2,,,,,,,,,1,,,52,75
170880,note_on,480,0,2,,,,,,,,,1,,,51,0
171039,note_on,0,0,1,,,,,,,,,0,,,61,0
171039,note_on,0,0,1,,,,,,,,,0,,,61,62
171039,note_on,0,0,1,,,,,,,,,0,,,63,62
171039,note_on,319,0,1,,,,,,,,,0,,,63,0
171120,note_on,0,0,3,,,,,,,,,2,,,43,75
171120,note_on,240,0,3,,,,,,,,,2,,,44,0
171200,note_on,0,0,1,,,,,,,,,0,,,63,62
171200,note_on,0,0,1,,,,,,,,,0,,,61,62
171200,note_on,0,0,1,,,,,,,,,0,,,61,0
171200,note_on,161,0,1,,,,,,,,,0,,,63,0
171360,note_on,240,0,3,,,,,,,,,2,,,43,0
171360,control_change,0,0,2,,,,,,,,,1,64,0,,
171360,note_on,480,0,2,,,,,,,,,1,,,52,0
171360,note_on,0,0,3,,,,,,,,,2,,,40,75
171360,note_on,0,0,2,,,,,,,,,1,,,56,75
171519,note_on,0,0,1,,,,,,,,,0,,,63,62
171519,note_on,0,0,1,,,,,,,,,0,,,61,0
171519,note_on,319,0,1,,,,,,,,,0,,,63,0
171519,note_on,0,0,1,,,,,,,,,0,,,61,62
171600,note_on,0,0,3,,,,,,,,,2,,,39,75
171600,note_on,240,0,3,,,,,,,,,2,,,40,0
171600,control_change,0,0,3,,,,,,,,,2,64,0,,
171680,note_on,0,0,1,,,,,,,,,0,,,61,62
171680,note_on,0,0,1,,,,,,,,,0,,,61,0
171680,note_on,161,0,1,,,,,,,,,0,,,63,0
171680,control_change,0,0,1,,,,,,,,,0,64,0,,
171680,note_on,0,0,1,,,,,,,,,0,,,63,62
171840,control_change,0,0,3,,,,,,,,,2,64,127,,
171840,control_change,0,0,1,,,,,,,,,0,64,127,,
171840,note_on,0,0,3,,,,,,,,,2,,,39,88
171840,note_on,0,0,1,,,,,,,,,0,,,61,0
171840,note_on,0,0,1,,,,,,,,,0,,,61,75
171840,note_on,0,0,1,,,,,,,,,0,,,63,75
171840,note_on,240,0,3,,,,,,,,,2,,,39,0
171840,control_change,0,0,2,,,,,,,,,1,64,127,,
171840,note_on,160,0,1,,,,,,,,,0,,,63,0
171840,note_on,0,0,2,,,,,,,,,1,,,56,88
171840,note_on,480,0,2,,,,,,,,,1,,,56,0
171999,note_on,159,0,1,,,,,,,,,0,,,63,0
171999,note_on,0,0,1,,,,,,,,,0,,,61,0
171999,note_on,0,0,1,,,,,,,,,0,,,61,75
171999,note_on,0,0,1,,,,,,,,,0,,,63,75
172160,note_on,161,0,1,,,,,,,,,0,,,63,0
172160,note_on,0,0,1,,,,,,,,,0,,,61,0
172160,note_on,0,0,1,,,,,,,,,0,,,61,75
172160,note_on,0,0,1,,,,,,,,,0,,,63,75
172320,note_on,0,0,2,,,,,,,,,1,,,76,114
172320,note_on,480,0,3,,,,,,,,,2,,,39,0
172320,note_on,480,0,2,,,,,,,,,1,,,56,0
172320,note_on,0,0,2,,,,,,,,,1,,,70,114
172320,note_on,0,0,3,,,,,,,,,2,,,55,88
172479,note_on,0,0,1,,,,,,,,,0,,,61,75
172479,note_on,319,0,1,,,,,,,,,0,,,63,0
172479,note_on,0,0,1,,,,,,,,,0,,,61,0
172479,note_on,0,0,1,,,,,,,,,0,,,63,75
172640,note_on,161,0,1,,,,,,,,,0,,,63,0
172640,note_on,0,0,1,,,,,,,,,0,,,63,75
172640,note_on,0,0,1,,,,,,,,,0,,,61,75
172640,note_on,0,0,1,,,,,,,,,0,,,61,0
172680,note_on,360,0,2,,,,,,,,,1,,,76,0
172680,note_on,0,0,2,,,,,,,,,1,,,70,0
172680,note_on,0,0,2,,,,,,,,,1,,,75,88
172800,note_on,480,0,3,,,,,,,,,2,,,55,0
172800,note_on,0,0,3,,,,,,,,,2,,,59,88
172800,note_on,0,0,3,,,,,,,,,2,,,68,88
172800,note_on,0,0,2,,,,,,,,,1,,,75,88
172800,note_on,120,0,2,,,,,,,,,1,,,75,0
172959,note_on,319,0,1,,,,,,,,,0,,,63,0
172959,note_on,0,0,1,,,,,,,,,0,,,61,0
172959,note_on,0,0,1,,,,,,,,,0,,,61,75
172959,note_on,0,0,1,,,,,,,,,0,,,63,75
173040,note_on,0,0,3,,,,,,,,,2,,,58,88
173040,note_on,0,0,3,,,,,,,,,2,,,59,0
173040,note_on,240,0,3,,,,,,,,,2,,,68,0
173040,note_on,0,0,3,,,,,,,,,2,,,67,88
173120,note_on,0,0,1,,,,,,,,,0,,,61,0
173120,note_on,0,0,1,,,,,,,,,0,,,61,75
173120,note_on,161,0,1,,,,,,,,,0,,,63,0
173120,note_on,0,0,1,,,,,,,,,0,,,63,75
173280,note_on,0,0,1,,,,,,,,,0,,,61,0
173280,note_on,240,0,3,,,,,,,,,2,,,67,0
173280,note_on,480,0,2,,,,,,,,,1,,,75,0
173280,control_change,0,0,2,,,,,,,,,1,64,0,,
173280,note_on,0,0,1,,,,,,,,,0,,,61,75
173280,note_on,0,0,3,,,,,,,,,2,,,56,88
173280,note_on,0,0,3,,,,,,,,,2,,,58,0
173280,note_on,160,0,1,,,,,,,,,0,,,63,0
173280,note_on,0,0,3,,,,,,,,,2,,,64,88
173439,note_on,159,0,1,,,,,,,,,0,,,61,0
173439,note_on,0,0,1,,,,,,,,,0,,,61,75
173520,control_change,0,0,3,,,,,,,,,2,64,0,,
173520,note_on,240,0,3,,,,,,,,,2,,,64,0
173520,note_on,0,0,3,,,,,,,,,2,,,55,88
173520,note_on,0,0,3,,,,,,,,,2,,,63,88
173520,note_on,0,0,3,,,,,,,,,2,,,56,0
173600,note_on,0,0,1,,,,,,,,,0,,,61,75
173600,note_on,161,0,1,,,,,,,,,0,,,61,0
173600,control_change,0,0,1,,,,,,,,,0,64,0,,
173760,note_on,0,0,2,,,,,,,,,1,,,63,75
173760,control_change,0,0,3,,,,,,,,,2,64,127,,
173760,note_on,0,0,1,,,,,,,,,0,,,63,88
173760,control_change,480,0,2,,,,,,,,,1,64,127,,
173760,note_on,160,0,1,,,,,,,,,0,,,61,0
173760,control_change,0,0,1,,,,,,,,,0,64,127,,
173760,note_on,0,0,3,,,,,,,,,2,,,55,0
173760,note_on,240,0,3,,,,,,,,,2,,,63,0
173760,note_on,0,0,3,,,,,,,,,2,,,46,75
173760,note_on,0,0,1,,,,,,,,,0,,,55,88
173760,note_on,0,0,3,,,,,,,,,2,,,39,75
173760,note_on,0,0,3,,,,,,,,,2,,,34,75
173919,note_on,159,0,2,,,,,,,,,1,,,63,0
173919,note_on,0,0,2,,,,,,,,,1,,,61,75
173919,note_on,0,0,2,,,,,,,,,1,,,63,75
174080,note_on,161,0,2,,,,,,,,,1,,,63,0
174080,note_on,0,0,2,,,,,,,,,1,,,63,75
174080,note_on,0,0,2,,,,,,,,,1,,,61,75
174080,note_on,0,0,2,,,,,,,,,1,,,61,0
174240,note_on,0,0,2,,,,,,,,,1,,,61,0
174240,note_on,0,0,2,,,,,,,,,1,,,61,75
174240,note_on,0,0,2,,,,,,,,,1,,,63,75
174240,note_on,0,0,3,,,,,,,,,2,,,34,0
174240,note_on,0,0,3,,,,,,,,,2,,,77,88
174240,note_on,480,0,1,,,,,,,,,0,,,63,0
174240,note_on,160,0,2,,,,,,,,,1,,,63,0
174240,note_on,0,0,1,,,,,,,,,0,,,73,88
174240,note_on,0,0,3,,,,,,,,,2,,,39,0
174240,note_on,0,0,1,,,,,,,,,0,,,55,0
174240,note_on,480,0,3,,,,,,,,,2,,,46,0
174399,note_on,0,0,2,,,,,,,,,1,,,61,75
174399,note_on,0,0,2,,,,,,,,,1,,,63,75
174399,note_on,0,0,2,,,,,,,,,1,,,61,0
174399,note_on,159,0,2,,,,,,,,,1,,,63,0
174560,note_on,0,0,2,,,,,,,,,1,,,63,75
174560,note_on,161,0,2,,,,,,,,,1,,,63,0
174560,note_on,0,0,2,,,,,,,,,1,,,61,0
174560,note_on,0,0,2,,,,,,,,,1,,,61,75
174600,note_on,360,0,3,,,,,,,,,2,,,77,0
174600,note_on,0,0,3,,,,,,,,,2,,,75,88
174720,note_on,0,0,2,,,,,,,,,1,,,63,75
174720,note_on,160,0,2,,,,,,,,,1,,,63,0
174720,note_on,0,0,1,,,,,,,,,0,,,72,88
174720,note_on,120,0,3,,,,,,,,,2,,,75,0
174720,note_on,480,0,1,,,,,,,,,0,,,73,0
174720,note_on,0,0,3,,,,,,,,,2,,,75,88
174720,note_on,0,0,2,,,,,,,,,1,,,61,0
174720,note_on,0,0,2,,,,,,,,,1,,,61,75
174879,note_on,159,0,2,,,,,,,,,1,,,63,0
174879,note_on,0,0,2,,,,,,,,,1,,,61,75
174879,note_on,0,0,2,,,,,,,,,1,,,61,0
174879,note_on,0,0,2,,,,,,,,,1,,,63,75
174960,note_on,240,0,1,,,,,,,,,0,,,72,0
174960,note_on,0,0,1,,,,,,,,,0,,,70,88
175040,note_on,0,0,2,,,,,,,,,1,,,63,75
175040,note_on,0,0,2,,,,,,,,,1,,,61,75
175040,note_on,0,0,2,,,,,,,,,1,,,61,0
175040,note_on,161,0,2,,,,,,,,,1,,,63,0
175200,note_on,480,0,3,,,,,,,,,2,,,75,0
175200,note_on,0,0,2,,,,,,,,,1,,,61,0
175200,note_on,240,0,1,,,,,,,,,0,,,70,0
175200,note_on,0,0,2,,,,,,,,,1,,,61,75
175200,note_on,0,0,1,,,,,,,,,0,,,68,88
175200,note_on,0,0,2,,,,,,,,,1,,,63,75
175200,note_on,160,0,2,,,,,,,,,1,,,63,0
175359,note_on,0,0,2,,,,,,,,,1,,,63,75
175359,note_on,0,0,2,,,,,,,,,1,,,61,0
175359,note_on,159,0,2,,,,,,,,,1,,,63,0
175359,note_on,0,0,2,,,,,,,,,1,,,61,75
175520,note_on,161,0,2,,,,,,,,,1,,,63,0
175520,control_change,0,0,2,,,,,,,,,1,64,0,,
175520,note_on,0,0,2,,,,,,,,,1,,,61,0
175560,note_on,0,0,3,,,,,,,,,2,,,46,88
175560,note_on,0,0,3,,,,,,,,,2,,,39,88
175560,note_on,0,0,1,,,,,,,,,0,,,61,88
175560,note_on,360,0,1,,,,,,,,,0,,,68,0
175560,control_change,360,0,3,,,,,,,,,2,64,0,,
175560,note_on,0,0,1,,,,,,,,,0,,,67,88
175560,note_on,0,0,1,,,,,,,,,0,,,63,88
175560,control_change,0,0,1,,,,,,,,,0,64,0,,
175560,note_on,0,0,1,,,,,,,,,0,,,55,88
175560,note_on,0,0,3,,,,,,,,,2,,,34,88
175680,note_on,0,0,1,,,,,,,,,0,,,61,0
175680,note_on,0,0,3,,,,,,,,,2,,,39,88
175680,control_change,0,0,3,,,,,,,,,2,64,127,,
175680,note_on,0,0,3,,,,,,,,,2,,,34,0
175680,note_on,0,0,3,,,,,,,,,2,,,46,88
175680,note_on,0,0,3,,,,,,,,,2,,,39,0
175680,note_on,0,0,3,,,,,,,,,2,,,34,88
175680,note_on,0,0,1,,,,,,,,,0,,,55,101
175680,note_on,0,0,1,,,,,,,,,0,,,55,0
175680,note_on,0,0,1,,,,,,,,,0,,,61,101
175680,note_on,0,0,1,,,,,,,,,0,,,63,0
175680,note_on,0,0,1,,,,,,,,,0,,,63,101
175680,control_change,0,0,1,,,,,,,,,0,64,127,,
175680,note_on,120,0,1,,,,,,,,,0,,,67,0
175680,note_on,120,0,3,,,,,,,,,2,,,46,0
175680,note_on,0,0,1,,,,,,,,,0,,,67,101
175839,note_on,0,0,3,,,,,,,,,2,,,61,88
175839,note_on,0,0,3,,,,,,,,,2,,,55,88
175839,note_on,0,0,3,,,,,,,,,2,,,65,88
175839,note_on,0,0,3,,,,,,,,,2,,,34,0
175839,note_on,159,0,3,,,,,,,,,2,,,46,0
175839,note_on,0,0,3,,,,,,,,,2,,,39,0
176000,note_on,0,0,3,,,,,,,,,2,,,55,88
176000,note_on,161,0,3,,,,,,,,,2,,,65,0
176000,note_on,0,0,3,,,,,,,,,2,,,61,0
176000,note_on,0,0,3,,,,,,,,,2,,,61,88
176000,note_on,0,0,3,,,,,,,,,2,,,65,88
176000,note_on,0,0,3,,,,,,,,,2,,,55,0
176160,note_on,160,0,3,,,,,,,,,2,,,65,0
176160,note_on,480,0,1,,,,,,,,,0,,,67,0
176160,note_on,0,0,1,,,,,,,,,0,,,55,0
176160,note_on,0,0,3,,,,,,,,,2,,,55,88
176160,note_on,0,0,1,,,,,,,,,0,,,61,0
176160,note_on,0,0,3,,,,,,,,,2,,,61,88
176160,note_on,0,0,1,,,,,,,,,0,,,63,0
176160,note_on,0,0,3,,,,,,,,,2,,,55,0
176160,note_on,0,0,1,,,,,,,,,0,,,89,101
176160,note_on,0,0,1,,,,,,,,,0,,,77,101
176160,note_on,0,0,3,,,,,,,,,2,,,65,88
176160,note_on,0,0,3,,,,,,,,,2,,,61,0
176319,note_on,0,0,3,,,,,,,,,2,,,55,0
176319,note_on,0,0,3,,,,,,,,,2,,,55,88
176319,note_on,0,0,3,,,,,,,,,2,,,61,0
176319,note_on,0,0,3,,,,,,,,,2,,,61,88
176319,note_on,0,0,3,,,,,,,,,2,,,65,88
176319,note_on,159,0,3,,,,,,,,,2,,,65,0
176480,note_on,0,0,3,,,,,,,,,2,,,61,88
176480,note_on,0,0,3,,,,,,,,,2,,,55,0
176480,note_on,0,0,3,,,,,,,,,2,,,55,88
176480,note_on,0,0,3,,,,,,,,,2,,,61,0
176480,note_on,0,0,3,,,,,,,,,2,,,65,88
176480,note_on,161,0,3,,,,,,,,,2,,,65,0
176640,note_on,0,0,3,,,,,,,,,2,,,55,88
176640,note_on,160,0,3,,,,,,,,,2,,,65,0
176640,note_on,0,0,3,,,,,,,,,2,,,55,0
176640,note_on,0,0,3,,,,,,,,,2,,,61,88
176640,note_on,0,0,3,,,,,,,,,2,,,65,88
176640,note_on,0,0,3,,,,,,,,,2,,,61,0
176799,note_on,159,0,3,,,,,,,,,2,,,65,0
176799,note_on,0,0,3,,,,,,,,,2,,,55,0
176799,note_on,0,0,3,,,,,,,,,2,,,55,88
176799,note_on,0,0,3,,,,,,,,,2,,,61,0
176799,note_on,0,0,3,,,,,,,,,2,,,61,88
176799,note_on,0,0,3,,,,,,,,,2,,,65,88
176880,note_on,0,0,1,,,,,,,,,0,,,77,0
176880,note_on,720,0,1,,,,,,,,,0,,,89,0
176880,note_on,0,0,1,,,,,,,,,0,,,75,101
176880,note_on,0,0,1,,,,,,,,,0,,,87,101
176960,note_on,0,0,3,,,,,,,,,2,,,65,88
176960,note_on,161,0,3,,,,,,,,,2,,,65,0
176960,note_on,0,0,3,,,,,,,,,2,,,61,0
176960,note_on,0,0,3,,,,,,,,,2,,,55,88
176960,note_on,0,0,3,,,,,,,,,2,,,61,88
176960,note_on,0,0,3,,,,,,,,,2,,,55,0
177120,note_on,0,0,3,,,,,,,,,2,,,55,0
177120,note_on,0,0,3,,,,,,,,,2,,,61,0
177120,note_on,0,0,1,,,,,,,,,0,,,85,101
177120,note_on,0,0,1,,,,,,,,,0,,,73,101
177120,note_on,0,0,1,,,,,,,,,0,,,75,0
177120,note_on,160,0,3,,,,,,,,,2,,,65,0
177120,note_on,240,0,1,,,,,,,,,0,,,87,0
177279,note_on,159,0,3,,,,,,,,,2,,,54,88
177279,note_on,0,0,3,,,,,,,,,2,,,57,88
177279,note_on,0,0,3,,,,,,,,,2,,,63,88
177360,note_on,240,0,1,,,,,,,,,0,,,85,0
177360,control_change,0,0,1,,,,,,,,,0,64,0,,
177360,note_on,0,0,1,,,,,,,,,0,,,84,101
177360,note_on,0,0,1,,,,,,,,,0,,,73,0
177360,note_on,0,0,1,,,,,,,,,0,,,72,101
177440,note_on,0,0,3,,,,,,,,,2,,,57,88
177440,note_on,0,0,3,,,,,,,,,2,,,54,0
177440,note_on,0,0,3,,,,,,,,,2,,,54,88
177440,note_on,0,0,3,,,,,,,,,2,,,57,0
177440,note_on,161,0,3,,,,,,,,,2,,,63,0
177440,note_on,0,0,3,,,,,,,,,2,,,63,88
177440,control_change,0,0,3,,,,,,,,,2,64,0,,
177600,note_on,160,0,3,,,,,,,,,2,,,63,0
177600,note_on,240,0,1,,,,,,,,,0,,,84,0
177600,control_change,0,0,3,,,,,,,,,2,64,127,,
177600,note_on,0,0,1,,,,,,,,,0,,,72,101
177600,note_on,0,0,1,,,,,,,,,0,,,72,0
177600,note_on,0,0,3,,,,,,,,,2,,,54,0
177600,control_change,0,0,1,,,,,,,,,0,64,127,,
177600,note_on,0,0,1,,,,,,,,,0,,,84,101
177600,note_on,0,0,3,,,,,,,,,2,,,57,0
177759,note_on,0,0,3,,,,,,,,,2,,,58,88
177759,note_on,159,0,3,,,,,,,,,2,,,53,88
177759,note_on,0,0,3,,,,,,,,,2,,,61,88
177840,note_on,0,0,1,,,,,,,,,0,,,70,101
177840,note_on,240,0,1,,,,,,,,,0,,,84,0
177840,note_on,0,0,1,,,,,,,,,0,,,72,0
177840,note_on,0,0,1,,,,,,,,,0,,,82,101
177920,note_on,0,0,3,,,,,,,,,2,,,53,88
177920,note_on,161,0,3,,,,,,,,,2,,,61,0
177920,note_on,0,0,3,,,,,,,,,2,,,61,88
177920,note_on,0,0,3,,,,,,,,,2,,,58,88
177920,note_on,0,0,3,,,,,,,,,2,,,58,0
177920,note_on,0,0,3,,,,,,,,,2,,,53,0
178080,note_on,0,0,3,,,,,,,,,2,,,61,88
178080,note_on,0,0,3,,,,,,,,,2,,,58,88
178080,note_on,0,0,3,,,,,,,,,2,,,58,0
178080,note_on,0,0,3,,,,,,,,,2,,,53,0
178080,note_on,160,0,3,,,,,,,,,2,,,61,0
178080,note_on,0,0,1,,,,,,,,,0,,,68,101
178080,note_on,0,0,3,,,,,,,,,2,,,53,88
178080,note_on,0,0,1,,,,,,,,,0,,,80,101
178080,note_on,0,0,1,,,,,,,,,0,,,70,0
178080,note_on,240,0,1,,,,,,,,,0,,,82,0
178239,note_on,0,0,3,,,,,,,,,2,,,58,0
178239,note_on,0,0,3,,,,,,,,,2,,,58,88
178239,note_on,0,0,3,,,,,,,,,2,,,61,88
178239,note_on,0,0,3,,,,,,,,,2,,,53,0
178239,note_on,0,0,3,,,,,,,,,2,,,53,88
178239,note_on,159,0,3,,,,,,,,,2,,,61,0
178320,note_on,0,0,1,,,,,,,,,0,,,79,101
178320,note_on,0,0,1,,,,,,,,,0,,,68,0
178320,note_on,240,0,1,,,,,,,,,0,,,80,0
178320,note_on,0,0,1,,,,,,,,,0,,,67,101
178400,note_on,0,0,3,,,,,,,,,2,,,61,88
178400,note_on,0,0,3,,,,,,,,,2,,,58,88
178400,note_on,161,0,3,,,,,,,,,2,,,61,0
178400,note_on,0,0,3,,,,,,,,,2,,,53,88
178400,note_on,0,0,3,,,,,,,,,2,,,53,0
178400,note_on,0,0,3,,,,,,,,,2,,,58,0
178560,note_on,0,0,3,,,,,,,,,2,,,58,0
178560,note_on,0,0,3,,,,,,,,,2,,,53,0
178560,note_on,240,0,1,,,,,,,,,0,,,79,0
178560,note_on,0,0,1,,,,,,,,,0,,,79,101
178560,note_on,160,0,3,,,,,,,,,2,,,61,0
178560,note_on,0,0,1,,,,,,,,,0,,,67,101
178560,note_on,0,0,1,,,,,,,,,0,,,67,0
178719,note_on,159,0,3,,,,,,,,,2,,,56,88
178719,note_on,0,0,3,,,,,,,,,2,,,59,88
178800,note_on,0,0,1,,,,,,,,,0,,,77,101
178800,note_on,0,0,1,,,,,,,,,0,,,67,0
178800,note_on,0,0,1,,,,,,,,,0,,,65,101
178800,note_on,240,0,1,,,,,,,,,0,,,79,0
178880,note_on,0,0,3,,,,,,,,,2,,,56,0
178880,note_on,161,0,3,,,,,,,,,2,,,59,0
178880,note_on,0,0,3,,,,,,,,,2,,,59,88
178880,note_on,0,0,3,,,,,,,,,2,,,56,88
179040,note_on,0,0,3,,,,,,,,,2,,,56,0
179040,note_on,0,0,1,,,,,,,,,0,,,65,0
179040,note_on,160,0,3,,,,,,,,,2,,,59,0
179040,note_on,0,0,1,,,,,,,,,0,,,61,101
179040,note_on,0,0,1,,,,,,,,,0,,,73,101
179040,note_on,240,0,1,,,,,,,,,0,,,77,0
179199,note_on,0,0,3,,,,,,,,,2,,,59,88
179199,note_on,159,0,3,,,,,,,,,2,,,56,88
179280,note_on,0,0,1,,,,,,,,,0,,,61,0
179280,note_on,0,0,1,,,,,,,,,0,,,62,101
179280,note_on,240,0,1,,,,,,,,,0,,,73,0
179280,note_on,0,0,1,,,,,,,,,0,,,74,101
179280,control_change,0,0,1,,,,,,,,,0,64,0,,
179360,note_on,161,0,3,,,,,,,,,2,,,59,0
179360,note_on,0,0,3,,,,,,,,,2,,,56,0
179360,note_on,0,0,3,,,,,,,,,2,,,59,88
179360,control_change,0,0,3,,,,,,,,,2,64,0,,
179360,note_on,0,0,3,,,,,,,,,2,,,56,88
179520,control_change,0,0,1,,,,,,,,,0,64,127,,
179520,note_on,0,0,3,,,,,,,,,2,,,56,0
179520,note_on,0,0,1,,,,,,,,,0,,,62,0
179520,note_on,0,0,1,,,,,,,,,0,,,77,101
179520,note_on,240,0,1,,,,,,,,,0,,,74,0
179520,control_change,0,0,3,,,,,,,,,2,64,127,,
179520,note_on,0,0,1,,,,,,,,,0,,,65,101
179520,note_on,160,0,3,,,,,,,,,2,,,59,0
179679,note_on,159,0,3,,,,,,,,,2,,,56,88
179679,note_on,0,0,3,,,,,,,,,2,,,60,88
179760,note_on,240,0,1,,,,,,,,,0,,,77,0
179760,note_on,0,0,1,,,,,,,,,0,,,75,101
179760,note_on,0,0,1,,,,,,,,,0,,,65,0
179760,note_on,0,0,1,,,,,,,,,0,,,63,101
179840,note_on,161,0,3,,,,,,,,,2,,,60,0
179840,note_on,0,0,3,,,,,,,,,2,,,56,0
179840,note_on,0,0,3,,,,,,,,,2,,,56,88
179840,note_on,0,0,3,,,,,,,,,2,,,60,88
180000,note_on,0,0,3,,,,,,,,,2,,,56,0
180000,note_on,240,0,1,,,,,,,,,0,,,75,0
180000,note_on,0,0,3,,,,,,,,,2,,,60,88
180000,note_on,0,0,1,,,,,,,,,0,,,62,101
180000,note_on,0,0,1,,,,,,,,,0,,,74,101
180000,note_on,160,0,3,,,,,,,,,2,,,60,0
180000,note_on,0,0,1,,,,,,,,,0,,,63,0
180000,note_on,0,0,3,,,,,,,,,2,,,56,88
180159,note_on,159,0,3,,,,,,,,,2,,,60,0
180159,note_on,0,0,3,,,,,,,,,2,,,56,88
180159,note_on,0,0,3,,,,,,,,,2,,,60,88
180159,note_on,0,0,3,,,,,,,,,2,,,56,0
180240,note_on,240,0,1,,,,,,,,,0,,,74,0
180240,note_on,0,0,1,,,,,,,,,0,,,62,0
180240,note_on,0,0,1,,,,,,,,,0,,,75,101
180240,note_on,0,0,1,,,,,,,,,0,,,63,101
180320,note_on,161,0,3,,,,,,,,,2,,,60,0
180320,note_on,0,0,3,,,,,,,,,2,,,56,0
180320,note_on,0,0,3,,,,,,,,,2,,,60,88
180320,note_on,0,0,3,,,,,,,,,2,,,56,88
180480,note_on,0,0,1,,,,,,,,,0,,,77,101
180480,note_on,0,0,1,,,,,,,,,0,,,63,0
180480,note_on,160,0,3,,,,,,,,,2,,,60,0
180480,note_on,240,0,1,,,,,,,,,0,,,75,0
180480,note_on,0,0,3,,,,,,,,,2,,,56,0
180480,note_on,0,0,1,,,,,,,,,0,,,65,101
180639,note_on,0,0,3,,,,,,,,,2,,,61,88
180639,note_on,159,0,3,,,,,,,,,2,,,55,88
180720,note_on,0,0,1,,,,,,,,,0,,,65,0
180720,note_on,0,0,1,,,,,,,,,0,,,75,101
180720,note_on,240,0,1,,,,,,,,,0,,,77,0
180720,note_on,0,0,1,,,,,,,,,0,,,63,101
180800,note_on,0,0,3,,,,,,,,,2,,,61,88
180800,note_on,0,0,3,,,,,,,,,2,,,55,88
180800,note_on,0,0,3,,,,,,,,,2,,,55,0
180800,note_on,161,0,3,,,,,,,,,2,,,61,0
180960,note_on,0,0,1,,,,,,,,,0,,,63,0
180960,note_on,0,0,3,,,,,,,,,2,,,55,0
180960,note_on,240,0,1,,,,,,,,,0,,,75,0
180960,note_on,0,0,1,,,,,,,,,0,,,72,101
180960,note_on,0,0,1,,,,,,,,,0,,,84,101
180960,note_on,160,0,3,,,,,,,,,2,,,61,0
181119,note_on,0,0,3,,,,,,,,,2,,,58,88
181119,note_on,0,0,3,,,,,,,,,2,,,63,88
181119,note_on,159,0,3,,,,,,,,,2,,,55,88
181200,control_change,0,0,1,,,,,,,,,0,64,0,,
181200,note_on,240,0,1,,,,,,,,,0,,,84,0
181200,note_on,0,0,1,,,,,,,,,0,,,72,0
181200,note_on,0,0,1,,,,,,,,,0,,,70,101
181200,note_on,0,0,1,,,,,,,,,0,,,82,101
181280,control_change,0,0,3,,,,,,,,,2,64,0,,
181280,note_on,0,0,3,,,,,,,,,2,,,63,88
181280,note_on,0,0,3,,,,,,,,,2,,,58,88
181280,note_on,0,0,3,,,,,,,,,2,,,58,0
181280,note_on,0,0,3,,,,,,,,,2,,,55,88
181280,note_on,0,0,3,,,,,,,,,2,,,55,0
181280,note_on,161,0,3,,,,,,,,,2,,,63,0
181440,control_change,0,0,1,,,,,,,,,0,64,127,,
181440,note_on,0,0,3,,,,,,,,,2,,,58,0
181440,control_change,0,0,3,,,,,,,,,2,64,127,,
181440,note_on,240,0,1,,,,,,,,,0,,,82,0
181440,note_on,0,0,3,,,,,,,,,2,,,55,0
181440,note_on,160,0,3,,,,,,,,,2,,,63,0
181440,note_on,0,0,1,,,,,,,,,0,,,70,0
181599,note_on,0,0,3,,,,,,,,,2,,,57,88
181599,note_on,0,0,3,,,,,,,,,2,,,63,88
181599,note_on,0,0,3,,,,,,,,,2,,,66,88
181599,note_on,159,0,3,,,,,,,,,2,,,54,88
181760,note_on,161,0,3,,,,,,,,,2,,,66,0
181760,note_on,0,0,3,,,,,,,,,2,,,54,0
181760,note_on,0,0,3,,,,,,,,,2,,,57,0
181760,note_on,0,0,3,,,,,,,,,2,,,57,88
181760,note_on,0,0,3,,,,,,,,,2,,,63,0
181760,note_on,0,0,3,,,,,,,,,2,,,63,88
181760,note_on,0,0,3,,,,,,,,,2,,,66,88
181760,note_on,0,0,3,,,,,,,,,2,,,54,88
181920,note_on,480,0,1,,,,,,,,,0,,,89,127
181920,note_on,0,0,3,,,,,,,,,2,,,54,0
181920,note_on,0,0,3,,,,,,,,,2,,,54,88
181920,note_on,0,0,3,,,,,,,,,2,,,57,0
181920,note_on,0,0,3,,,,,,,,,2,,,63,0
181920,note_on,0,0,3,,,,,,,,,2,,,63,88
181920,note_on,0,0,3,,,,,,,,,2,,,66,88
181920,note_on,0,0,3,,,,,,,,,2,,,57,88
181920,note_on,160,0,3,,,,,,,,,2,,,66,0
181920,note_on,0,0,1,,,,,,,,,0,,,101,127
182079,note_on,0,0,3,,,,,,,,,2,,,66,88
182079,note_on,159,0,3,,,,,,,,,2,,,66,0
182079,note_on,0,0,3,,,,,,,,,2,,,54,0
182079,note_on,0,0,3,,,,,,,,,2,,,54,88
182079,note_on,0,0,3,,,,,,,,,2,,,57,0
182079,note_on,0,0,3,,,,,,,,,2,,,57,88
182079,note_on,0,0,3,,,,,,,,,2,,,63,0
182079,note_on,0,0,3,,,,,,,,,2,,,63,88
182240,note_on,0,0,3,,,,,,,,,2,,,66,88
182240,note_on,0,0,3,,,,,,,,,2,,,63,88
182240,note_on,0,0,3,,,,,,,,,2,,,63,0
182240,note_on,0,0,3,,,,,,,,,2,,,57,88
182240,note_on,0,0,3,,,,,,,,,2,,,54,88
182240,note_on,0,0,3,,,,,,,,,2,,,57,0
182240,note_on,161,0,3,,,,,,,,,2,,,66,0
182240,note_on,0,0,3,,,,,,,,,2,,,54,0
182400,note_on,0,0,3,,,,,,,,,2,,,63,88
182400,note_on,160,0,3,,,,,,,,,2,,,66,0
182400,note_on,0,0,3,,,,,,,,,2,,,54,0
182400,note_on,0,0,3,,,,,,,,,2,,,54,88
182400,note_on,0,0,3,,,,,,,,,2,,,57,0
182400,note_on,0,0,3,,,,,,,,,2,,,57,88
182400,note_on,0,0,3,,,,,,,,,2,,,63,0
182400,note_on,0,0,3,,,,,,,,,2,,,66,88
182559,note_on,0,0,3,,,,,,,,,2,,,54,88
182559,note_on,0,0,3,,,,,,,,,2,,,57,0
182559,note_on,0,0,3,,,,,,,,,2,,,63,0
182559,note_on,0,0,3,,,,,,,,,2,,,57,88
182559,note_on,0,0,3,,,,,,,,,2,,,63,88
182559,note_on,159,0,3,,,,,,,,,2,,,66,0
182559,note_on,0,0,3,,,,,,,,,2,,,54,0
182559,note_on,0,0,3,,,,,,,,,2,,,66,88
182640,note_on,720,0,1,,,,,,,,,0,,,101,0
182640,note_on,0,0,1,,,,,,,,,0,,,87,101
182640,note_on,0,0,1,,,,,,,,,0,,,89,0
182640,note_on,0,0,1,,,,,,,,,0,,,99,101
182720,note_on,0,0,3,,,,,,,,,2,,,57,0
182720,note_on,0,0,3,,,,,,,,,2,,,54,88
182720,note_on,0,0,3,,,,,,,,,2,,,54,0
182720,note_on,0,0,3,,,,,,,,,2,,,63,0
182720,note_on,0,0,3,,,,,,,,,2,,,63,88
182720,note_on,0,0,3,,,,,,,,,2,,,66,88
182720,note_on,161,0,3,,,,,,,,,2,,,66,0
182720,note_on,0,0,3,,,,,,,,,2,,,57,88
182880,note_on,240,0,1,,,,,,,,,0,,,99,0
182880,note_on,0,0,1,,,,,,,,,0,,,85,101
182880,note_on,0,0,1,,,,,,,,,0,,,87,0
182880,note_on,0,0,1,,,,,,,,,0,,,97,101
182880,note_on,160,0,3,,,,,,,,,2,,,66,0
182880,note_on,0,0,3,,,,,,,,,2,,,54,0
182880,note_on,0,0,3,,,,,,,,,2,,,57,0
182880,note_on,0,0,3,,,,,,,,,2,,,63,0
183039,note_on,0,0,3,,,,,,,,,2,,,60,88
183039,note_on,0,0,3,,,,,,,,,2,,,66,88
183039,note_on,0,0,3,,,,,,,,,2,,,69,88
183039,note_on,159,0,3,,,,,,,,,2,,,57,88
183120,note_on,240,0,1,,,,,,,,,0,,,97,0
183120,control_change,0,0,1,,,,,,,,,0,64,0,,
183120,note_on,0,0,1,,,,,,,,,0,,,84,101
183120,note_on,0,0,1,,,,,,,,,0,,,96,101
183120,note_on,0,0,1,,,,,,,,,0,,,85,0
183200,note_on,0,0,3,,,,,,,,,2,,,57,88
183200,note_on,0,0,3,,,,,,,,,2,,,60,0
183200,note_on,0,0,3,,,,,,,,,2,,,60,88
183200,note_on,0,0,3,,,,,,,,,2,,,66,0
183200,note_on,0,0,3,,,,,,,,,2,,,57,0
183200,note_on,0,0,3,,,,,,,,,2,,,66,88
183200,note_on,161,0,3,,,,,,,,,2,,,69,0
183200,control_change,0,0,3,,,,,,,,,2,64,0,,
183200,note_on,0,0,3,,,,,,,,,2,,,69,88
183360,note_on,0,0,3,,,,,,,,,2,,,57,0
183360,note_on,0,0,1,,,,,,,,,0,,,84,101
183360,note_on,0,0,3,,,,,,,,,2,,,66,0
183360,control_change,0,0,3,,,,,,,,,2,64,127,,
183360,control_change,0,0,1,,,,,,,,,0,64,127,,
183360,note_on,240,0,1,,,,,,,,,0,,,96,0
183360,note_on,160,0,3,,,,,,,,,2,,,69,0
183360,note_on,0,0,1,,,,,,,,,0,,,84,0
183360,note_on,0,0,1,,,,,,,,,0,,,96,101
183360,note_on,0,0,3,,,,,,,,,2,,,60,0
183519,note_on,159,0,3,,,,,,,,,2,,,58,88
183519,note_on,0,0,3,,,,,,,,,2,,,65,88
183519,note_on,0,0,3,,,,,,,,,2,,,70,88
183519,note_on,0,0,3,,,,,,,,,2,,,61,88
183600,note_on,240,0,1,,,,,,,,,0,,,96,0
183600,note_on,0,0,1,,,,,,,,,0,,,94,101
183600,note_on,0,0,1,,,,,,,,,0,,,84,0
183600,note_on,0,0,1,,,,,,,,,0,,,82,101
183680,note_on,0,0,3,,,,,,,,,2,,,61,88
183680,note_on,161,0,3,,,,,,,,,2,,,70,0
183680,note_on,0,0,3,,,,,,,,,2,,,58,0
183680,note_on,0,0,3,,,,,,,,,2,,,58,88
183680,note_on,0,0,3,,,,,,,,,2,,,61,0
183680,note_on,0,0,3,,,,,,,,,2,,,65,0
183680,note_on,0,0,3,,,,,,,,,2,,,65,88
183680,note_on,0,0,3,,,,,,,,,2,,,70,88
183840,note_on,0,0,1,,,,,,,,,0,,,92,101
183840,note_on,0,0,1,,,,,,,,,0,,,82,0
183840,note_on,0,0,1,,,,,,,,,0,,,80,101
183840,note_on,0,0,3,,,,,,,,,2,,,58,0
183840,note_on,0,0,3,,,,,,,,,2,,,58,88
183840,note_on,160,0,3,,,,,,,,,2,,,70,0
183840,note_on,0,0,3,,,,,,,,,2,,,61,88
183840,note_on,0,0,3,,,,,,,,,2,,,65,0
183840,note_on,0,0,3,,,,,,,,,2,,,65,88
183840,note_on,0,0,3,,,,,,,,,2,,,70,88
183840,note_on,0,0,3,,,,,,,,,2,,,61,0
183840,note_on,240,0,1,,,,,,,,,0,,,94,0
183999,note_on,0,0,3,,,,,,,,,2,,,65,0
183999,note_on,0,0,3,,,,,,,,,2,,,61,88
183999,note_on,0,0,3,,,,,,,,,2,,,61,0
183999,note_on,159,0,3,,,,,,,,,2,,,70,0
183999,note_on,0,0,3,,,,,,,,,2,,,70,88
183999,note_on,0,0,3,,,,,,,,,2,,,58,88
183999,note_on,0,0,3,,,,,,,,,2,,,58,0
183999,note_on,0,0,3,,,,,,,,,2,,,65,88
184080,note_on,240,0,1,,,,,,,,,0,,,92,0
184080,note_on,0,0,1,,,,,,,,,0,,,91,101
184080,note_on,0,0,1,,,,,,,,,0,,,80,0
184080,note_on,0,0,1,,,,,,,,,0,,,79,101
184160,note_on,0,0,3,,,,,,,,,2,,,70,88
184160,note_on,0,0,3,,,,,,,,,2,,,58,88
184160,note_on,0,0,3,,,,,,,,,2,,,61,0
184160,note_on,0,0,3,,,,,,,,,2,,,65,0
184160,note_on,0,0,3,,,,,,,,,2,,,58,0
184160,note_on,0,0,3,,,,,,,,,2,,,65,88
184160,note_on,0,0,3,,,,,,,,,2,,,61,88
184160,note_on,161,0,3,,,,,,,,,2,,,70,0
184320,note_on,0,0,1,,,,,,,,,0,,,91,101
184320,note_on,0,0,1,,,,,,,,,0,,,79,0
184320,note_on,0,0,1,,,,,,,,,0,,,79,101
184320,note_on,160,0,3,,,,,,,,,2,,,70,0
184320,note_on,0,0,3,,,,,,,,,2,,,65,0
184320,note_on,240,0,1,,,,,,,,,0,,,91,0
184320,note_on,0,0,3,,,,,,,,,2,,,61,0
184320,note_on,0,0,3,,,,,,,,,2,,,58,0
184479,note_on,0,0,3,,,,,,,,,2,,,71,88
184479,note_on,0,0,3,,,,,,,,,2,,,68,88
184479,note_on,0,0,3,,,,,,,,,2,,,65,88
184479,note_on,159,0,3,,,,,,,,,2,,,59,88
184560,note_on,0,0,1,,,,,,,,,0,,,77,101
184560,note_on,240,0,1,,,,,,,,,0,,,91,0
184560,note_on,0,0,1,,,,,,,,,0,,,79,0
184560,note_on,0,0,1,,,,,,,,,0,,,89,101
184640,note_on,161,0,3,,,,,,,,,2,,,71,0
184640,note_on,0,0,3,,,,,,,,,2,,,71,88
184640,note_on,0,0,3,,,,,,,,,2,,,68,0
184640,note_on,0,0,3,,,,,,,,,2,,,59,0
184640,note_on,0,0,3,,,,,,,,,2,,,59,88
184640,note_on,0,0,3,,,,,,,,,2,,,65,0
184640,note_on,0,0,3,,,,,,,,,2,,,65,88
184640,note_on,0,0,3,,,,,,,,,2,,,68,88
184800,note_on,0,0,1,,,,,,,,,0,,,73,101
184800,note_on,160,0,3,,,,,,,,,2,,,71,0
184800,note_on,240,0,1,,,,,,,,,0,,,89,0
184800,note_on,0,0,3,,,,,,,,,2,,,59,0
184800,note_on,0,0,1,,,,,,,,,0,,,85,101
184800,note_on,0,0,1,,,,,,,,,0,,,77,0
184800,note_on,0,0,3,,,,,,,,,2,,,65,0
184800,note_on,0,0,3,,,,,,,,,2,,,68,0
184959,note_on,159,0,3,,,,,,,,,2,,,59,88
184959,note_on,0,0,3,,,,,,,,,2,,,62,88
184959,note_on,0,0,3,,,,,,,,,2,,,71,88
184959,note_on,0,0,3,,,,,,,,,2,,,68,88
185040,control_change,0,0,1,,,,,,,,,0,64,0,,
185040,note_on,0,0,1,,,,,,,,,0,,,86,101
185040,note_on,0,0,1,,,,,,,,,0,,,74,101
185040,note_on,0,0,1,,,,,,,,,0,,,73,0
185040,note_on,240,0,1,,,,,,,,,0,,,85,0
185120,note_on,0,0,3,,,,,,,,,2,,,68,0
185120,note_on,0,0,3,,,,,,,,,2,,,68,88
185120,note_on,0,0,3,,,,,,,,,2,,,71,88
185120,note_on,0,0,3,,,,,,,,,2,,,59,88
185120,note_on,0,0,3,,,,,,,,,2,,,59,0
185120,control_change,0,0,3,,,,,,,,,2,64,0,,
185120,note_on,0,0,3,,,,,,,,,2,,,62,0
185120,note_on,0,0,3,,,,,,,,,2,,,62,88
185120,note_on,161,0,3,,,,,,,,,2,,,71,0
185280,control_change,0,0,1,,,,,,,,,0,64,127,,
185280,note_on,0,0,3,,,,,,,,,2,,,59,0
185280,note_on,0,0,3,,,,,,,,,2,,,62,0
185280,note_on,0,0,3,,,,,,,,,2,,,68,0
185280,note_on,240,0,1,,,,,,,,,0,,,86,0
185280,note_on,0,0,1,,,,,,,,,0,,,89,88
185280,note_on,160,0,3,,,,,,,,,2,,,71,0
185280,control_change,0,0,3,,,,,,,,,2,64,127,,
185280,note_on,0,0,1,,,,,,,,,0,,,77,88
185280,note_on,0,0,1,,,,,,,,,0,,,74,0
185439,note_on,0,0,3,,,,,,,,,2,,,63,75
185439,note_on,0,0,3,,,,,,,,,2,,,68,75
185439,note_on,0,0,3,,,,,,,,,2,,,72,75
185439,note_on,159,0,3,,,,,,,,,2,,,60,75
185520,note_on,0,0,1,,,,,,,,,0,,,75,88
185520,note_on,240,0,1,,,,,,,,,0,,,89,0
185520,note_on,0,0,1,,,,,,,,,0,,,87,88
185520,note_on,0,0,1,,,,,,,,,0,,,77,0
185600,note_on,0,0,3,,,,,,,,,2,,,63,0
185600,note_on,0,0,3,,,,,,,,,2,,,60,0
185600,note_on,0,0,3,,,,,,,,,2,,,63,75
185600,note_on,0,0,3,,,,,,,,,2,,,68,0
185600,note_on,0,0,3,,,,,,,,,2,,,72,75
185600,note_on,161,0,3,,,,,,,,,2,,,72,0
185600,note_on,0,0,3,,,,,,,,,2,,,68,75
185600,note_on,0,0,3,,,,,,,,,2,,,60,75
185760,note_on,0,0,3,,,,,,,,,2,,,60,75
185760,note_on,0,0,3,,,,,,,,,2,,,63,0
185760,note_on,0,0,3,,,,,,,,,2,,,60,0
185760,note_on,0,0,3,,,,,,,,,2,,,68,0
185760,note_on,0,0,3,,,,,,,,,2,,,68,75
185760,note_on,0,0,3,,,,,,,,,2,,,72,75
185760,note_on,240,0,1,,,,,,,,,0,,,87,0
185760,note_on,0,0,1,,,,,,,,,0,,,86,88
185760,note_on,0,0,1,,,,,,,,,0,,,75,0
185760,note_on,0,0,1,,,,,,,,,0,,,74,88
185760,note_on,160,0,3,,,,,,,,,2,,,72,0
185760,note_on,0,0,3,,,,,,,,,2,,,63,75
185919,note_on,0,0,3,,,,,,,,,2,,,60,0
185919,note_on,0,0,3,,,,,,,,,2,,,60,75
185919,note_on,0,0,3,,,,,,,,,2,,,63,0
185919,note_on,0,0,3,,,,,,,,,2,,,68,75
185919,note_on,0,0,3,,,,,,,,,2,,,72,75
185919,note_on,159,0,3,,,,,,,,,2,,,72,0
185919,note_on,0,0,3,,,,,,,,,2,,,63,75
185919,note_on,0,0,3,,,,,,,,,2,,,68,0
186000,note_on,0,0,1,,,,,,,,,0,,,74,0
186000,note_on,0,0,1,,,,,,,,,0,,,75,88
186000,note_on,0,0,1,,,,,,,,,0,,,87,88
186000,note_on,240,0,1,,,,,,,,,0,,,86,0
186080,note_on,0,0,3,,,,,,,,,2,,,72,75
186080,note_on,0,0,3,,,,,,,,,2,,,68,75
186080,note_on,0,0,3,,,,,,,,,2,,,68,0
186080,note_on,0,0,3,,,,,,,,,2,,,63,75
186080,note_on,0,0,3,,,,,,,,,2,,,60,75
186080,note_on,0,0,3,,,,,,,,,2,,,60,0
186080,note_on,161,0,3,,,,,,,,,2,,,72,0
186080,note_on,0,0,3,,,,,,,,,2,,,63,0
186240,note_on,0,0,3,,,,,,,,,2,,,72,88
186240,note_on,0,0,3,,,,,,,,,2,,,68,88
186240,note_on,0,0,3,,,,,,,,,2,,,68,0
186240,note_on,0,0,3,,,,,,,,,2,,,63,88
186240,note_on,0,0,3,,,,,,,,,2,,,63,0
186240,note_on,0,0,3,,,,,,,,,2,,,60,88
186240,note_on,0,0,3,,,,,,,,,2,,,60,0
186240,note_on,160,0,3,,,,,,,,,2,,,72,0
186240,note_on,0,0,1,,,,,,,,,0,,,75,0
186240,note_on,0,0,1,,,,,,,,,0,,,77,88
186240,note_on,0,0,1,,,,,,,,,0,,,89,88
186240,note_on,240,0,1,,,,,,,,,0,,,87,0
186399,note_on,159,0,1,,,,,,,,,0,,,89,0
186399,note_on,159,0,3,,,,,,,,,2,,,72,0
186399,note_on,0,0,3,,,,,,,,,2,,,63,88
186399,note_on,0,0,3,,,,,,,,,2,,,68,0
186399,note_on,0,0,3,,,,,,,,,2,,,68,88
186399,note_on,0,0,3,,,,,,,,,2,,,72,88
186399,note_on,0,0,3,,,,,,,,,2,,,60,0
186399,note_on,0,0,1,,,,,,,,,0,,,87,88
186399,note_on,0,0,3,,,,,,,,,2,,,60,88
186399,note_on,0,0,3,,,,,,,,,2,,,63,0
186399,note_on,0,0,1,,,,,,,,,0,,,75,88
186399,note_on,0,0,1,,,,,,,,,0,,,77,0
186560,note_on,0,0,3,,,,,,,,,2,,,60,88
186560,note_on,0,0,1,,,,,,,,,0,,,75,0
186560,note_on,161,0,3,,,,,,,,,2,,,72,0
186560,note_on,0,0,3,,,,,,,,,2,,,60,0
186560,note_on,161,0,1,,,,,,,,,0,,,87,0
186560,note_on,0,0,1,,,,,,,,,0,,,82,101
186560,note_on,0,0,1,,,,,,,,,0,,,94,101
186560,note_on,0,0,3,,,,,,,,,2,,,72,88
186560,note_on,0,0,3,,,,,,,,,2,,,68,88
186560,note_on,0,0,3,,,,,,,,,2,,,68,0
186560,note_on,0,0,3,,,,,,,,,2,,,63,88
186560,note_on,0,0,3,,,,,,,,,2,,,63,0
186720,note_on,160,0,1,,,,,,,,,0,,,94,0
186720,note_on,0,0,1,,,,,,,,,0,,,93,101
186720,note_on,0,0,1,,,,,,,,,0,,,82,0
186720,note_on,160,0,3,,,,,,,,,2,,,72,0
186720,note_on,0,0,3,,,,,,,,,2,,,68,0
186720,note_on,0,0,3,,,,,,,,,2,,,63,0
186720,note_on,0,0,3,,,,,,,,,2,,,60,0
186720,note_on,0,0,1,,,,,,,,,0,,,81,101
186879,note_on,159,0,1,,,,,,,,,0,,,93,0
186879,note_on,0,0,1,,,,,,,,,0,,,81,0
186879,note_on,0,0,3,,,,,,,,,2,,,72,88
186879,note_on,0,0,3,,,,,,,,,2,,,69,88
186879,note_on,0,0,3,,,,,,,,,2,,,66,88
186879,note_on,0,0,1,,,,,,,,,0,,,85,101
186879,note_on,0,0,1,,,,,,,,,0,,,97,101
186879,note_on,159,0,3,,,,,,,,,2,,,60,88
187040,control_change,0,0,3,,,,,,,,,2,64,0,,
187040,note_on,161,0,3,,,,,,,,,2,,,72,0
187040,note_on,0,0,3,,,,,,,,,2,,,66,0
187040,note_on,0,0,3,,,,,,,,,2,,,60,0
187040,note_on,0,0,3,,,,,,,,,2,,,60,88
187040,note_on,0,0,3,,,,,,,,,2,,,66,88
187040,note_on,0,0,3,,,,,,,,,2,,,69,0
187040,note_on,0,0,3,,,,,,,,,2,,,69,88
187040,note_on,0,0,3,,,,,,,,,2,,,72,88
187119,control_change,0,0,1,,,,,,,,,0,64,0,,
187119,note_on,0,0,1,,,,,,,,,0,,,84,101
187119,note_on,240,0,1,,,,,,,,,0,,,97,0
187119,note_on,0,0,1,,,,,,,,,0,,,85,0
187119,note_on,0,0,1,,,,,,,,,0,,,96,101
187200,note_on,81,0,1,,,,,,,,,0,,,96,0
187200,note_on,0,0,1,,,,,,,,,0,,,84,0
187200,note_on,0,0,1,,,,,,,,,0,,,84,88
187200,note_on,160,0,3,,,,,,,,,2,,,72,0
187200,control_change,0,0,3,,,,,,,,,2,64,127,,
187200,note_on,0,0,3,,,,,,,,,2,,,69,0
187200,control_change,0,0,1,,,,,,,,,0,64,127,,
187200,note_on,0,0,3,,,,,,,,,2,,,66,0
187200,note_on,0,0,3,,,,,,,,,2,,,60,0
187200,note_on,0,0,1,,,,,,,,,0,,,96,88
187359,note_on,0,0,3,,,,,,,,,2,,,70,75
187359,note_on,0,0,3,,,,,,,,,2,,,73,75
187359,note_on,159,0,3,,,,,,,,,2,,,61,75
187359,note_on,0,0,3,,,,,,,,,2,,,65,75
187440,note_on,0,0,1,,,,,,,,,0,,,94,88
187440,note_on,0,0,1,,,,,,,,,0,,,82,88
187440,note_on,0,0,1,,,,,,,,,0,,,84,0
187440,note_on,240,0,1,,,,,,,,,0,,,96,0
187520,note_on,0,0,3,,,,,,,,,2,,,70,75
187520,note_on,161,0,3,,,,,,,,,2,,,73,0
187520,note_on,0,0,3,,,,,,,,,2,,,70,0
187520,note_on,0,0,3,,,,,,,,,2,,,65,75
187520,note_on,0,0,3,,,,,,,,,2,,,73,75
187520,note_on,0,0,3,,,,,,,,,2,,,61,75
187520,note_on,0,0,3,,,,,,,,,2,,,65,0
187520,note_on,0,0,3,,,,,,,,,2,,,61,0
187680,note_on,0,0,1,,,,,,,,,0,,,82,0
187680,note_on,0,0,1,,,,,,,,,0,,,93,88
187680,note_on,160,0,3,,,,,,,,,2,,,73,0
187680,note_on,240,0,1,,,,,,,,,0,,,94,0
187680,note_on,0,0,1,,,,,,,,,0,,,81,88
187680,note_on,0,0,3,,,,,,,,,2,,,61,75
187680,note_on,0,0,3,,,,,,,,,2,,,61,0
187680,note_on,0,0,3,,,,,,,,,2,,,73,75
187680,note_on,0,0,3,,,,,,,,,2,,,70,0
187680,note_on,0,0,3,,,,,,,,,2,,,70,75
187680,note_on,0,0,3,,,,,,,,,2,,,65,0
187680,note_on,0,0,3,,,,,,,,,2,,,65,75
187839,note_on,159,0,3,,,,,,,,,2,,,73,0
187839,note_on,0,0,3,,,,,,,,,2,,,70,75
187839,note_on,0,0,3,,,,,,,,,2,,,61,0
187839,note_on,0,0,3,,,,,,,,,2,,,61,75
187839,note_on,0,0,3,,,,,,,,,2,,,65,0
187839,note_on,0,0,3,,,,,,,,,2,,,65,75
187839,note_on,0,0,3,,,,,,,,,2,,,70,0
187839,note_on,0,0,3,,,,,,,,,2,,,73,75
187920,note_on,0,0,1,,,,,,,,,0,,,81,0
187920,note_on,0,0,1,,,,,,,,,0,,,82,88
187920,note_on,0,0,1,,,,,,,,,0,,,94,88
187920,note_on,240,0,1,,,,,,,,,0,,,93,0
188000,note_on,0,0,3,,,,,,,,,2,,,61,75
188000,note_on,0,0,3,,,,,,,,,2,,,65,0
188000,note_on,0,0,3,,,,,,,,,2,,,65,75
188000,note_on,0,0,3,,,,,,,,,2,,,70,0
188000,note_on,0,0,3,,,,,,,,,2,,,70,75
188000,note_on,0,0,3,,,,,,,,,2,,,73,75
188000,note_on,161,0,3,,,,,,,,,2,,,73,0
188000,note_on,0,0,3,,,,,,,,,2,,,61,0
188160,note_on,160,0,3,,,,,,,,,2,,,73,0
188160,note_on,0,0,3,,,,,,,,,2,,,61,0
188160,note_on,0,0,1,,,,,,,,,0,,,97,88
188160,note_on,0,0,1,,,,,,,,,0,,,85,88
188160,note_on,0,0,1,,,,,,,,,0,,,82,0
188160,note_on,0,0,3,,,,,,,,,2,,,65,0
188160,note_on,0,0,3,,,,,,,,,2,,,70,0
188160,note_on,240,0,1,,,,,,,,,0,,,94,0
188319,note_on,159,0,1,,,,,,,,,0,,,97,0
188319,note_on,159,0,3,,,,,,,,,2,,,62,88
188319,note_on,0,0,1,,,,,,,,,0,,,95,88
188319,note_on,0,0,1,,,,,,,,,0,,,85,0
188319,note_on,0,0,1,,,,,,,,,0,,,83,88
188319,note_on,0,0,3,,,,,,,,,2,,,65,88
188319,note_on,0,0,3,,,,,,,,,2,,,68,88
188319,note_on,0,0,3,,,,,,,,,2,,,74,88
188480,note_on,0,0,3,,,,,,,,,2,,,62,88
188480,note_on,0,0,3,,,,,,,,,2,,,74,88
188480,note_on,0,0,3,,,,,,,,,2,,,68,88
188480,note_on,0,0,3,,,,,,,,,2,,,68,0
188480,note_on,0,0,3,,,,,,,,,2,,,65,88
188480,note_on,0,0,3,,,,,,,,,2,,,62,0
188480,note_on,161,0,3,,,,,,,,,2,,,74,0
188480,note_on,0,0,1,,,,,,,,,0,,,83,0
188480,note_on,0,0,1,,,,,,,,,0,,,99,101
188480,note_on,0,0,3,,,,,,,,,2,,,65,0
188480,note_on,161,0,1,,,,,,,,,0,,,95,0
188480,note_on,0,0,1,,,,,,,,,0,,,87,101
188640,note_on,0,0,3,,,,,,,,,2,,,65,0
188640,note_on,0,0,3,,,,,,,,,2,,,68,0
188640,note_on,160,0,1,,,,,,,,,0,,,99,0
188640,note_on,0,0,1,,,,,,,,,0,,,86,101
188640,note_on,0,0,1,,,,,,,,,0,,,87,0
188640,note_on,0,0,1,,,,,,,,,0,,,98,101
188640,note_on,160,0,3,,,,,,,,,2,,,74,0
188640,note_on,0,0,3,,,,,,,,,2,,,62,0
188799,note_on,0,0,3,,,,,,,,,2,,,62,88
188799,note_on,0,0,3,,,,,,,,,2,,,68,88
188799,note_on,0,0,3,,,,,,,,,2,,,71,88
188799,note_on,0,0,1,,,,,,,,,0,,,103,101
188799,note_on,0,0,1,,,,,,,,,0,,,86,0
188799,note_on,0,0,1,,,,,,,,,0,,,91,101
188799,note_on,159,0,1,,,,,,,,,0,,,98,0
188799,note_on,159,0,3,,,,,,,,,2,,,59,88
188960,note_on,0,0,3,,,,,,,,,2,,,59,0
188960,note_on,0,0,3,,,,,,,,,2,,,62,88
188960,note_on,0,0,3,,,,,,,,,2,,,68,0
188960,note_on,0,0,3,,,,,,,,,2,,,59,88
188960,note_on,0,0,3,,,,,,,,,2,,,62,0
188960,note_on,0,0,3,,,,,,,,,2,,,68,88
188960,control_change,0,0,3,,,,,,,,,2,64,0,,
188960,note_on,161,0,3,,,,,,,,,2,,,71,0
188960,note_on,0,0,3,,,,,,,,,2,,,71,88
189039,note_on,240,0,1,,,,,,,,,0,,,103,0
189039,note_on,0,0,1,,,,,,,,,0,,,101,101
189039,control_change,0,0,1,,,,,,,,,0,64,0,,
189039,note_on,0,0,1,,,,,,,,,0,,,91,0
189039,note_on,0,0,1,,,,,,,,,0,,,89,101
189120,note_on,0,0,1,,,,,,,,,0,,,89,101
189120,note_on,0,0,1,,,,,,,,,0,,,89,0
189120,note_on,0,0,3,,,,,,,,,2,,,62,0
189120,note_on,0,0,3,,,,,,,,,2,,,59,0
189120,note_on,0,0,3,,,,,,,,,2,,,51,101
189120,note_on,0,0,3,,,,,,,,,2,,,39,101
189120,note_on,0,0,3,,,,,,,,,2,,,68,0
189120,note_on,0,0,1,,,,,,,,,0,,,101,101
189120,control_change,0,0,3,,,,,,,,,2,64,127,,
189120,note_on,160,0,3,,,,,,,,,2,,,71,0
189120,control_change,0,0,1,,,,,,,,,0,64,127,,
189120,note_on,81,0,1,,,,,,,,,0,,,101,0
189360,note_on,0,0,3,,,,,,,,,2,,,55,114
189360,note_on,0,0,3,,,,,,,,,2,,,51,114
189360,note_on,0,0,3,,,,,,,,,2,,,39,0
189360,note_on,240,0,1,,,,,,,,,0,,,101,0
189360,note_on,240,0,3,,,,,,,,,2,,,51,0
189360,note_on,0,0,1,,,,,,,,,0,,,79,114
189360,note_on,0,0,1,,,,,,,,,0,,,75,114
189360,note_on,0,0,3,,,,,,,,,2,,,61,114
189360,note_on,0,0,1,,,,,,,,,0,,,89,0
189360,note_on,0,0,1,,,,,,,,,0,,,87,114
189360,note_on,0,0,1,,,,,,,,,0,,,85,114
189360,note_on,0,0,3,,,,,,,,,2,,,63,114
189600,note_on,240,0,1,,,,,,,,,0,,,87,0
189600,note_on,240,0,3,,,,,,,,,2,,,63,0
189600,note_on,0,0,3,,,,,,,,,2,,,51,0
189600,note_on,0,0,3,,,,,,,,,2,,,51,114
189600,note_on,0,0,1,,,,,,,,,0,,,86,114
189600,note_on,0,0,1,,,,,,,,,0,,,85,114
189600,note_on,0,0,1,,,,,,,,,0,,,85,0
189600,note_on,0,0,1,,,,,,,,,0,,,79,114
189600,note_on,0,0,1,,,,,,,,,0,,,79,0
189600,note_on,0,0,1,,,,,,,,,0,,,74,114
189600,note_on,0,0,1,,,,,,,,,0,,,75,0
189600,note_on,0,0,3,,,,,,,,,2,,,55,114
189600,note_on,0,0,3,,,,,,,,,2,,,55,0
189600,note_on,0,0,3,,,,,,,,,2,,,61,0
189600,note_on,0,0,3,,,,,,,,,2,,,61,114
189600,note_on,0,0,3,,,,,,,,,2,,,62,114
189840,note_on,0,0,1,,,,,,,,,0,,,87,114
189840,note_on,0,0,1,,,,,,,,,0,,,85,114
189840,note_on,240,0,1,,,,,,,,,0,,,86,0
189840,note_on,0,0,1,,,,,,,,,0,,,85,0
189840,note_on,0,0,1,,,,,,,,,0,,,79,114
189840,note_on,0,0,1,,,,,,,,,0,,,79,0
189840,note_on,0,0,1,,,,,,,,,0,,,75,114
189840,note_on,0,0,1,,,,,,,,,0,,,74,0
189840,note_on,0,0,3,,,,,,,,,2,,,51,0
189840,note_on,240,0,3,,,,,,,,,2,,,62,0
189840,note_on,0,0,3,,,,,,,,,2,,,51,114
189840,note_on,0,0,3,,,,,,,,,2,,,55,0
189840,note_on,0,0,3,,,,,,,,,2,,,55,114
189840,note_on,0,0,3,,,,,,,,,2,,,61,0
189840,note_on,0,0,3,,,,,,,,,2,,,61,114
189840,note_on,0,0,3,,,,,,,,,2,,,63,114
190080,note_on,0,0,1,,,,,,,,,0,,,89,114
190080,note_on,0,0,1,,,,,,,,,0,,,79,0
190080,note_on,0,0,1,,,,,,,,,0,,,77,114
190080,note_on,0,0,1,,,,,,,,,0,,,75,0
190080,note_on,240,0,1,,,,,,,,,0,,,87,0
190080,note_on,240,0,3,,,,,,,,,2,,,63,0
190080,note_on,0,0,1,,,,,,,,,0,,,79,114
190080,note_on,0,0,3,,,,,,,,,2,,,51,114
190080,note_on,0,0,3,,,,,,,,,2,,,65,114
190080,note_on,0,0,1,,,,,,,,,0,,,85,0
190080,note_on,0,0,3,,,,,,,,,2,,,61,114
190080,note_on,0,0,3,,,,,,,,,2,,,51,0
190080,note_on,0,0,1,,,,,,,,,0,,,85,114
190080,note_on,0,0,3,,,,,,,,,2,,,61,0
190080,note_on,0,0,3,,,,,,,,,2,,,55,0
190080,note_on,0,0,3,,,,,,,,,2,,,55,114
190320,note_on,0,0,1,,,,,,,,,0,,,75,127
190320,note_on,240,0,3,,,,,,,,,2,,,65,0
190320,note_on,0,0,1,,,,,,,,,0,,,85,0
190320,note_on,0,0,1,,,,,,,,,0,,,85,127
190320,note_on,0,0,1,,,,,,,,,0,,,87,127
190320,note_on,0,0,1,,,,,,,,,0,,,77,0
190320,note_on,0,0,1,,,,,,,,,0,,,79,0
190320,note_on,0,0,1,,,,,,,,,0,,,79,127
190320,note_on,0,0,3,,,,,,,,,2,,,55,0
190320,note_on,0,0,3,,,,,,,,,2,,,55,127
190320,note_on,0,0,3,,,,,,,,,2,,,51,0
190320,note_on,0,0,3,,,,,,,,,2,,,63,127
190320,note_on,240,0,1,,,,,,,,,0,,,89,0
190320,note_on,0,0,3,,,,,,,,,2,,,61,127
190320,note_on,0,0,3,,,,,,,,,2,,,51,127
190320,note_on,0,0,3,,,,,,,,,2,,,61,0
190560,note_on,0,0,1,,,,,,,,,0,,,85,0
190560,note_on,0,0,3,,,,,,,,,2,,,55,0
190560,note_on,0,0,3,,,,,,,,,2,,,51,0
190560,note_on,0,0,1,,,,,,,,,0,,,75,0
190560,note_on,0,0,1,,,,,,,,,0,,,79,0
190560,note_on,0,0,3,,,,,,,,,2,,,67,127
190560,note_on,0,0,1,,,,,,,,,0,,,85,127
190560,note_on,0,0,1,,,,,,,,,0,,,87,127
190560,note_on,0,0,1,,,,,,,,,0,,,96,127
190560,note_on,0,0,3,,,,,,,,,2,,,63,127
190560,note_on,0,0,3,,,,,,,,,2,,,61,0
190560,note_on,0,0,3,,,,,,,,,2,,,72,127
190560,note_on,240,0,1,,,,,,,,,0,,,87,0
190560,note_on,240,0,3,,,,,,,,,2,,,63,0
190632,note_on,0,0,3,,,,,,,,,2,,,63,0
190632,note_on,0,0,3,,,,,,,,,2,,,67,0
190632,note_on,72,0,1,,,,,,,,,0,,,96,0
190632,note_on,72,0,3,,,,,,,,,2,,,72,0
190632,note_on,0,0,1,,,,,,,,,0,,,85,0
190632,note_on,0,0,1,,,,,,,,,0,,,87,0
190920,note_on,0,0,3,,,,,,,,,2,,,61,101
190920,note_on,0,0,3,,,,,,,,,2,,,67,101
190920,note_on,0,0,3,,,,,,,,,2,,,70,101
190920,control_change,288,0,1,,,,,,,,,0,64,0,,
190920,note_on,0,0,1,,,,,,,,,0,,,82,101
190920,note_on,0,0,1,,,,,,,,,0,,,87,101
190920,note_on,0,0,1,,,,,,,,,0,,,94,101
190920,control_change,288,0,3,,,,,,,,,2,64,0,,
191040,note_on,0,0,1,,,,,,,,,0,,,82,0
191040,note_on,0,0,1,,,,,,,,,0,,,82,114
191040,note_on,0,0,1,,,,,,,,,0,,,87,0
191040,note_on,0,0,3,,,,,,,,,2,,,60,114
191040,note_on,0,0,3,,,,,,,,,2,,,61,0
191040,note_on,0,0,3,,,,,,,,,2,,,66,114
191040,note_on,0,0,3,,,,,,,,,2,,,70,114
191040,note_on,0,0,3,,,,,,,,,2,,,67,0
191040,note_on,0,0,1,,,,,,,,,0,,,87,114
191040,note_on,120,0,3,,,,,,,,,2,,,70,0
191040,control_change,0,0,1,,,,,,,,,0,64,127,,
191040,control_change,0,0,3,,,,,,,,,2,64,127,,
191040,note_on,120,0,1,,,,,,,,,0,,,94,0
191040,note_on,0,0,1,,,,,,,,,0,,,94,114
191280,note_on,240,0,1,,,,,,,,,0,,,94,0
191280,note_on,0,0,1,,,,,,,,,0,,,93,88
191280,note_on,0,0,1,,,,,,,,,0,,,87,88
191280,note_on,0,0,3,,,,,,,,,2,,,60,0
191280,note_on,0,0,1,,,,,,,,,0,,,82,0
191280,note_on,0,0,1,,,,,,,,,0,,,81,88
191280,note_on,0,0,1,,,,,,,,,0,,,87,0
191280,note_on,0,0,3,,,,,,,,,2,,,60,88
191280,note_on,0,0,3,,,,,,,,,2,,,66,0
191280,note_on,0,0,3,,,,,,,,,2,,,69,88
191280,note_on,0,0,3,,,,,,,,,2,,,66,88
191280,note_on,240,0,3,,,,,,,,,2,,,70,0
191520,note_on,0,0,3,,,,,,,,,2,,,69,114
191520,note_on,0,0,1,,,,,,,,,0,,,93,114
191520,note_on,0,0,1,,,,,,,,,0,,,87,0
191520,note_on,0,0,3,,,,,,,,,2,,,66,0
191520,note_on,0,0,1,,,,,,,,,0,,,81,114
191520,note_on,240,0,3,,,,,,,,,2,,,69,0
191520,note_on,0,0,1,,,,,,,,,0,,,86,114
191520,note_on,0,0,3,,,,,,,,,2,,,59,114
191520,note_on,0,0,1,,,,,,,,,0,,,81,0
191520,note_on,0,0,3,,,,,,,,,2,,,65,114
191520,note_on,240,0,1,,,,,,,,,0,,,93,0
191520,note_on,0,0,3,,,,,,,,,2,,,60,0
191592,note_on,0,0,1,,,,,,,,,0,,,81,0
191592,note_on,0,0,1,,,,,,,,,0,,,86,0
191592,note_on,0,0,3,,,,,,,,,2,,,65,0
191592,note_on,72,0,1,,,,,,,,,0,,,93,0
191592,note_on,0,0,3,,,,,,,,,2,,,59,0
191592,note_on,72,0,3,,,,,,,,,2,,,69,0
191880,note_on,0,0,3,,,,,,,,,2,,,68,88
191880,note_on,0,0,3,,,,,,,,,2,,,65,88
191880,note_on,0,0,1,,,,,,,,,0,,,86,88
191880,note_on,288,0,1,,,,,,,,,0,,,80,88
191880,note_on,288,0,3,,,,,,,,,2,,,59,88
191880,note_on,0,0,1,,,,,,,,,0,,,92,88
192000,note_on,120,0,1,,,,,,,,,0,,,92,0
192000,note_on,120,0,3,,,,,,,,,2,,,68,0
192000,note_on,0,0,3,,,,,,,,,2,,,68,114
192000,note_on,0,0,1,,,,,,,,,0,,,92,114
192000,note_on,0,0,1,,,,,,,,,0,,,86,0
192000,note_on,0,0,1,,,,,,,,,0,,,80,114
192000,note_on,0,0,1,,,,,,,,,0,,,80,0
192000,note_on,0,0,3,,,,,,,,,2,,,58,114
192000,note_on,0,0,3,,,,,,,,,2,,,59,0
192000,note_on,0,0,3,,,,,,,,,2,,,64,114
192000,note_on,0,0,3,,,,,,,,,2,,,65,0
192000,note_on,0,0,1,,,,,,,,,0,,,86,114
192240,note_on,0,0,1,,,,,,,,,0,,,79,88
192240,note_on,0,0,1,,,,,,,,,0,,,80,0
192240,note_on,0,0,1,,,,,,,,,0,,,86,0
192240,note_on,0,0,1,,,,,,,,,0,,,86,88
192240,note_on,0,0,1,,,,,,,,,0,,,91,88
192240,note_on,0,0,3,,,,,,,,,2,,,67,88
192240,note_on,0,0,3,,,,,,,,,2,,,64,0
192240,note_on,0,0,3,,,,,,,,,2,,,58,88
192240,note_on,0,0,3,,,,,,,,,2,,,58,0
192240,note_on,240,0,1,,,,,,,,,0,,,92,0
192240,note_on,240,0,3,,,,,,,,,2,,,68,0
192240,note_on,0,0,3,,,,,,,,,2,,,64,88
192480,note_on,0,0,1,,,,,,,,,0,,,79,0
192480,note_on,0,0,1,,,,,,,,,0,,,79,114
192480,note_on,0,0,1,,,,,,,,,0,,,83,114
192480,note_on,0,0,1,,,,,,,,,0,,,86,0
192480,note_on,0,0,1,,,,,,,,,0,,,91,114
192480,note_on,0,0,3,,,,,,,,,2,,,67,114
192480,note_on,0,0,3,,,,,,,,,2,,,58,0
192480,note_on,0,0,3,,,,,,,,,2,,,64,0
192480,note_on,0,0,3,,,,,,,,,2,,,56,114
192480,note_on,240,0,1,,,,,,,,,0,,,91,0
192480,note_on,240,0,3,,,,,,,,,2,,,67,0
192480,note_on,0,0,3,,,,,,,,,2,,,62,114
192552,note_on,0,0,1,,,,,,,,,0,,,83,0
192552,note_on,0,0,3,,,,,,,,,2,,,56,0
192552,note_on,0,0,3,,,,,,,,,2,,,62,0
192552,note_on,72,0,1,,,,,,,,,0,,,91,0
192552,note_on,72,0,3,,,,,,,,,2,,,67,0
192552,note_on,0,0,1,,,,,,,,,0,,,79,0
192840,note_on,0,0,1,,,,,,,,,0,,,83,88
192840,note_on,0,0,1,,,,,,,,,0,,,89,88
192840,note_on,0,0,3,,,,,,,,,2,,,62,88
192840,note_on,0,0,1,,,,,,,,,0,,,77,88
192840,note_on,0,0,3,,,,,,,,,2,,,65,88
192840,note_on,0,0,3,,,,,,,,,2,,,56,88
192840,control_change,288,0,1,,,,,,,,,0,64,0,,
192840,control_change,288,0,3,,,,,,,,,2,64,0,,
192960,control_change,0,0,1,,,,,,,,,0,64,127,,
192960,note_on,120,0,3,,,,,,,,,2,,,65,0
192960,note_on,120,0,1,,,,,,,,,0,,,89,0
192960,note_on,0,0,3,,,,,,,,,2,,,62,0
192960,note_on,0,0,3,,,,,,,,,2,,,56,0
192960,note_on,0,0,3,,,,,,,,,2,,,51,101
192960,control_change,0,0,3,,,,,,,,,2,64,127,,
192960,note_on,0,0,3,,,,,,,,,2,,,39,101
192960,note_on,0,0,1,,,,,,,,,0,,,77,0
192960,note_on,0,0,1,,,,,,,,,0,,,77,88
192960,note_on,0,0,1,,,,,,,,,0,,,89,88
192960,note_on,0,0,1,,,,,,,,,0,,,85,88
192960,note_on,0,0,1,,,,,,,,,0,,,83,0
192960,note_on,0,0,1,,,,,,,,,0,,,79,88
193200,note_on,0,0,1,,,,,,,,,0,,,85,114
193200,note_on,240,0,1,,,,,,,,,0,,,89,0
193200,note_on,0,0,3,,,,,,,,,2,,,63,114
193200,note_on,0,0,3,,,,,,,,,2,,,61,114
193200,note_on,240,0,3,,,,,,,,,2,,,51,0
193200,note_on,0,0,3,,,,,,,,,2,,,55,114
193200,note_on,0,0,3,,,,,,,,,2,,,39,0
193200,note_on,0,0,1,,,,,,,,,0,,,87,114
193200,note_on,0,0,1,,,,,,,,,0,,,75,114
193200,note_on,0,0,1,,,,,,,,,0,,,77,0
193200,note_on,0,0,1,,,,,,,,,0,,,79,0
193200,note_on,0,0,1,,,,,,,,,0,,,79,114
193200,note_on,0,0,1,,,,,,,,,0,,,85,0
193200,note_on,0,0,3,,,,,,,,,2,,,51,114
193440,note_on,0,0,3,,,,,,,,,2,,,51,0
193440,note_on,0,0,3,,,,,,,,,2,,,62,114
193440,note_on,240,0,3,,,,,,,,,2,,,63,0
193440,note_on,0,0,3,,,,,,,,,2,,,61,0
193440,note_on,240,0,1,,,,,,,,,0,,,87,0
193440,note_on,0,0,3,,,,,,,,,2,,,55,114
193440,note_on,0,0,3,,,,,,,,,2,,,61,114
193440,note_on,0,0,3,,,,,,,,,2,,,51,114
193440,note_on,0,0,3,,,,,,,,,2,,,55,0
193440,note_on,0,0,1,,,,,,,,,0,,,86,114
193440,note_on,0,0,1,,,,,,,,,0,,,79,0
193440,note_on,0,0,1,,,,,,,,,0,,,79,114
193440,note_on,0,0,1,,,,,,,,,0,,,85,0
193440,note_on,0,0,1,,,,,,,,,0,,,85,114
193440,note_on,0,0,1,,,,,,,,,0,,,75,0
193440,note_on,0,0,1,,,,,,,,,0,,,74,114
193680,note_on,0,0,1,,,,,,,,,0,,,85,114
193680,note_on,0,0,1,,,,,,,,,0,,,85,0
193680,note_on,240,0,1,,,,,,,,,0,,,86,0
193680,note_on,0,0,1,,,,,,,,,0,,,79,0
193680,note_on,0,0,1,,,,,,,,,0,,,75,114
193680,note_on,0,0,1,,,,,,,,,0,,,74,0
193680,note_on,0,0,3,,,,,,,,,2,,,55,114
193680,note_on,0,0,3,,,,,,,,,2,,,63,114
193680,note_on,0,0,3,,,,,,,,,2,,,61,114
193680,note_on,0,0,3,,,,,,,,,2,,,51,114
193680,note_on,0,0,3,,,,,,,,,2,,,55,0
193680,note_on,0,0,1,,,,,,,,,0,,,87,114
193680,note_on,0,0,1,,,,,,,,,0,,,79,114
193680,note_on,0,0,3,,,,,,,,,2,,,51,0
193680,note_on,0,0,3,,,,,,,,,2,,,61,0
193680,note_on,240,0,3,,,,,,,,,2,,,62,0
193920,note_on,0,0,1,,,,,,,,,0,,,89,114
193920,note_on,0,0,3,,,,,,,,,2,,,51,0
193920,note_on,0,0,3,,,,,,,,,2,,,51,114
193920,note_on,240,0,1,,,,,,,,,0,,,87,0
193920,note_on,0,0,1,,,,,,,,,0,,,85,114
193920,note_on,0,0,1,,,,,,,,,0,,,85,0
193920,note_on,0,0,1,,,,,,,,,0,,,79,114
193920,note_on,0,0,1,,,,,,,,,0,,,79,0
193920,note_on,0,0,1,,,,,,,,,0,,,77,114
193920,note_on,0,0,3,,,,,,,,,2,,,55,0
193920,note_on,0,0,3,,,,,,,,,2,,,55,114
193920,note_on,0,0,3,,,,,,,,,2,,,61,0
193920,note_on,0,0,3,,,,,,,,,2,,,61,114
193920,note_on,0,0,1,,,,,,,,,0,,,75,0
193920,note_on,0,0,3,,,,,,,,,2,,,65,114
193920,note_on,240,0,3,,,,,,,,,2,,,63,0
194160,note_on,0,0,1,,,,,,,,,0,,,85,127
194160,note_on,0,0,1,,,,,,,,,0,,,77,0
194160,note_on,0,0,1,,,,,,,,,0,,,75,127
194160,note_on,0,0,3,,,,,,,,,2,,,51,0
194160,note_on,0,0,1,,,,,,,,,0,,,79,0
194160,note_on,0,0,3,,,,,,,,,2,,,55,127
194160,note_on,240,0,1,,,,,,,,,0,,,89,0
194160,note_on,0,0,1,,,,,,,,,0,,,79,127
194160,note_on,0,0,3,,,,,,,,,2,,,61,0
194160,note_on,0,0,3,,,,,,,,,2,,,63,127
194160,note_on,0,0,1,,,,,,,,,0,,,87,127
194160,note_on,0,0,3,,,,,,,,,2,,,55,0
194160,note_on,0,0,1,,,,,,,,,0,,,85,0
194160,note_on,240,0,3,,,,,,,,,2,,,65,0
194160,note_on,0,0,3,,,,,,,,,2,,,61,127
194160,note_on,0,0,3,,,,,,,,,2,,,51,127
194400,note_on,0,0,3,,,,,,,,,2,,,51,0
194400,note_on,0,0,3,,,,,,,,,2,,,55,0
194400,note_on,0,0,3,,,,,,,,,2,,,61,0
194400,note_on,240,0,3,,,,,,,,,2,,,63,0
194400,note_on,0,0,3,,,,,,,,,2,,,63,127
194400,note_on,0,0,3,,,,,,,,,2,,,67,127
194400,note_on,0,0,3,,,,,,,,,2,,,72,127
194400,note_on,0,0,1,,,,,,,,,0,,,79,0
194400,note_on,0,0,1,,,,,,,,,0,,,75,0
194400,note_on,240,0,1,,,,,,,,,0,,,87,0
194400,note_on,0,0,1,,,,,,,,,0,,,85,0
194400,note_on,0,0,1,,,,,,,,,0,,,85,127
194400,note_on,0,0,1,,,,,,,,,0,,,87,127
194400,note_on,0,0,1,,,,,,,,,0,,,96,127
194472,note_on,0,0,3,,,,,,,,,2,,,67,0
194472,note_on,0,0,3,,,,,,,,,2,,,63,0
194472,note_on,0,0,1,,,,,,,,,0,,,85,0
194472,note_on,0,0,1,,,,,,,,,0,,,87,0
194472,note_on,72,0,1,,,,,,,,,0,,,96,0
194472,note_on,72,0,3,,,,,,,,,2,,,72,0
194760,note_on,0,0,3,,,,,,,,,2,,,61,101
194760,note_on,0,0,1,,,,,,,,,0,,,82,101
194760,note_on,0,0,1,,,,,,,,,0,,,87,101
194760,note_on,0,0,1,,,,,,,,,0,,,94,101
194760,control_change,288,0,1,,,,,,,,,0,64,0,,
194760,control_change,288,0,3,,,,,,,,,2,64,0,,
194760,note_on,0,0,3,,,,,,,,,2,,,70,101
194760,note_on,0,0,3,,,,,,,,,2,,,67,101
194880,note_on,120,0,3,,,,,,,,,2,,,70,0
194880,control_change,0,0,3,,,,,,,,,2,64,127,,
194880,note_on,0,0,3,,,,,,,,,2,,,60,114
194880,note_on,0,0,3,,,,,,,,,2,,,61,0
194880,note_on,0,0,3,,,,,,,,,2,,,66,114
194880,note_on,0,0,3,,,,,,,,,2,,,67,0
194880,note_on,0,0,3,,,,,,,,,2,,,70,114
194880,control_change,0,0,1,,,,,,,,,0,64,127,,
194880,note_on,120,0,1,,,,,,,,,0,,,94,0
194880,note_on,0,0,1,,,,,,,,,0,,,82,0
194880,note_on,0,0,1,,,,,,,,,0,,,82,114
194880,note_on,0,0,1,,,,,,,,,0,,,87,0
194880,note_on,0,0,1,,,,,,,,,0,,,87,114
194880,note_on,0,0,1,,,,,,,,,0,,,94,114
195120,note_on,0,0,3,,,,,,,,,2,,,69,88
195120,note_on,0,0,3,,,,,,,,,2,,,66,88
195120,note_on,0,0,3,,,,,,,,,2,,,66,0
195120,note_on,0,0,3,,,,,,,,,2,,,60,88
195120,note_on,0,0,3,,,,,,,,,2,,,60,0
195120,note_on,0,0,1,,,,,,,,,0,,,93,88
195120,note_on,0,0,1,,,,,,,,,0,,,87,0
195120,note_on,0,0,1,,,,,,,,,0,,,82,0
195120,note_on,0,0,1,,,,,,,,,0,,,81,88
195120,note_on,240,0,1,,,,,,,,,0,,,94,0
195120,note_on,240,0,3,,,,,,,,,2,,,70,0
195120,note_on,0,0,1,,,,,,,,,0,,,87,88
195360,note_on,0,0,3,,,,,,,,,2,,,69,114
195360,note_on,0,0,3,,,,,,,,,2,,,59,114
195360,note_on,0,0,3,,,,,,,,,2,,,60,0
195360,note_on,0,0,3,,,,,,,,,2,,,65,114
195360,note_on,0,0,3,,,,,,,,,2,,,66,0
195360,note_on,240,0,1,,,,,,,,,0,,,93,0
195360,note_on,240,0,3,,,,,,,,,2,,,69,0
195360,note_on,0,0,1,,,,,,,,,0,,,81,0
195360,note_on,0,0,1,,,,,,,,,0,,,81,114
195360,note_on,0,0,1,,,,,,,,,0,,,86,114
195360,note_on,0,0,1,,,,,,,,,0,,,87,0
195360,note_on,0,0,1,,,,,,,,,0,,,93,114
195432,note_on,0,0,1,,,,,,,,,0,,,86,0
195432,note_on,0,0,1,,,,,,,,,0,,,81,0
195432,note_on,72,0,3,,,,,,,,,2,,,69,0
195432,note_on,72,0,1,,,,,,,,,0,,,93,0
195432,note_on,0,0,3,,,,,,,,,2,,,59,0
195432,note_on,0,0,3,,,,,,,,,2,,,65,0
195720,note_on,288,0,1,,,,,,,,,0,,,80,88
195720,note_on,0,0,3,,,,,,,,,2,,,65,88
195720,note_on,0,0,3,,,,,,,,,2,,,68,88
195720,note_on,0,0,1,,,,,,,,,0,,,92,88
195720,note_on,0,0,1,,,,,,,,,0,,,86,88
195720,note_on,288,0,3,,,,,,,,,2,,,59,88
195840,note_on,0,0,1,,,,,,,,,0,,,80,114
195840,note_on,0,0,1,,,,,,,,,0,,,86,0
195840,note_on,0,0,1,,,,,,,,,0,,,92,114
195840,note_on,120,0,1,,,,,,,,,0,,,92,0
195840,note_on,120,0,3,,,,,,,,,2,,,68,0
195840,note_on,0,0,1,,,,,,,,,0,,,86,114
195840,note_on,0,0,1,,,,,,,,,0,,,80,0
195840,note_on,0,0,3,,,,,,,,,2,,,59,0
195840,note_on,0,0,3,,,,,,,,,2,,,64,114
195840,note_on,0,0,3,,,,,,,,,2,,,65,0
195840,note_on,0,0,3,,,,,,,,,2,,,68,114
195840,note_on,0,0,3,,,,,,,,,2,,,58,114
196080,note_on,240,0,1,,,,,,,,,0,,,92,0
196080,note_on,240,0,3,,,,,,,,,2,,,68,0
196080,note_on,0,0,3,,,,,,,,,2,,,67,88
196080,note_on,0,0,3,,,,,,,,,2,,,64,88
196080,note_on,0,0,3,,,,,,,,,2,,,58,88
196080,note_on,0,0,3,,,,,,,,,2,,,64,0
196080,note_on,0,0,1,,,,,,,,,0,,,86,88
196080,note_on,0,0,3,,,,,,,,,2,,,58,0
196080,note_on,0,0,1,,,,,,,,,0,,,86,0
196080,note_on,0,0,1,,,,,,,,,0,,,80,0
196080,note_on,0,0,1,,,,,,,,,0,,,79,88
196080,note_on,0,0,1,,,,,,,,,0,,,91,88
196320,note_on,0,0,1,,,,,,,,,0,,,79,114
196320,note_on,0,0,1,,,,,,,,,0,,,83,114
196320,note_on,0,0,1,,,,,,,,,0,,,86,0
196320,note_on,0,0,1,,,,,,,,,0,,,91,114
196320,note_on,240,0,1,,,,,,,,,0,,,91,0
196320,note_on,0,0,1,,,,,,,,,0,,,79,0
196320,note_on,0,0,3,,,,,,,,,2,,,67,114
196320,note_on,240,0,3,,,,,,,,,2,,,67,0
196320,note_on,0,0,3,,,,,,,,,2,,,64,0
196320,note_on,0,0,3,,,,,,,,,2,,,62,114
196320,note_on,0,0,3,,,,,,,,,2,,,58,0
196320,note_on,0,0,3,,,,,,,,,2,,,56,114
196392,note_on,0,0,1,,,,,,,,,0,,,83,0
196392,note_on,72,0,1,,,,,,,,,0,,,91,0
196392,note_on,0,0,1,,,,,,,,,0,,,79,0
196392,note_on,0,0,3,,,,,,,,,2,,,56,0
196392,note_on,0,0,3,,,,,,,,,2,,,62,0
196392,note_on,72,0,3,,,,,,,,,2,,,67,0
196680,note_on,0,0,1,,,,,,,,,0,,,89,88
196680,note_on,0,0,1,,,,,,,,,0,,,83,88
196680,note_on,0,0,3,,,,,,,,,2,,,65,88
196680,note_on,0,0,3,,,,,,,,,2,,,56,88
196680,control_change,288,0,3,,,,,,,,,2,64,0,,
196680,control_change,288,0,1,,,,,,,,,0,64,0,,
196680,note_on,0,0,1,,,,,,,,,0,,,77,88
196680,note_on,0,0,3,,,,,,,,,2,,,62,88
196800,note_on,0,0,1,,,,,,,,,0,,,77,0
196800,note_on,0,0,1,,,,,,,,,0,,,77,88
196800,note_on,0,0,1,,,,,,,,,0,,,79,88
196800,note_on,0,0,1,,,,,,,,,0,,,83,0
196800,note_on,0,0,1,,,,,,,,,0,,,85,88
196800,note_on,120,0,1,,,,,,,,,0,,,89,0
196800,note_on,120,0,3,,,,,,,,,2,,,65,0
196800,note_on,0,0,1,,,,,,,,,0,,,89,88
196800,note_on,0,0,3,,,,,,,,,2,,,62,0
196800,note_on,0,0,3,,,,,,,,,2,,,56,0
196800,note_on,0,0,3,,,,,,,,,2,,,51,88
196800,note_on,0,0,3,,,,,,,,,2,,,39,88
196800,control_change,0,0,3,,,,,,,,,2,64,127,,
196800,control_change,0,0,1,,,,,,,,,0,64,127,,
197040,note_on,0,0,3,,,,,,,,,2,,,55,114
197040,note_on,0,0,3,,,,,,,,,2,,,51,114
197040,note_on,0,0,3,,,,,,,,,2,,,61,114
197040,note_on,0,0,3,,,,,,,,,2,,,39,0
197040,note_on,0,0,3,,,,,,,,,2,,,63,114
197040,note_on,0,0,1,,,,,,,,,0,,,79,0
197040,note_on,0,0,1,,,,,,,,,0,,,75,114
197040,note_on,0,0,1,,,,,,,,,0,,,85,0
197040,note_on,0,0,1,,,,,,,,,0,,,85,114
197040,note_on,0,0,1,,,,,,,,,0,,,87,114
197040,note_on,0,0,1,,,,,,,,,0,,,77,0
197040,note_on,240,0,1,,,,,,,,,0,,,89,0
197040,note_on,0,0,1,,,,,,,,,0,,,79,114
197040,note_on,240,0,3,,,,,,,,,2,,,51,0
197280,note_on,0,0,3,,,,,,,,,2,,,61,114
197280,note_on,0,0,3,,,,,,,,,2,,,55,114
197280,note_on,0,0,1,,,,,,,,,0,,,74,114
197280,note_on,0,0,3,,,,,,,,,2,,,55,0
197280,note_on,0,0,1,,,,,,,,,0,,,75,0
197280,note_on,240,0,3,,,,,,,,,2,,,63,0
197280,note_on,0,0,3,,,,,,,,,2,,,51,114
197280,note_on,0,0,3,,,,,,,,,2,,,51,0
197280,note_on,0,0,3,,,,,,,,,2,,,61,0
197280,note_on,0,0,3,,,,,,,,,2,,,62,114
197280,note_on,0,0,1,,,,,,,,,0,,,79,0
197280,note_on,0,0,1,,,,,,,,,0,,,85,114
197280,note_on,0,0,1,,,,,,,,,0,,,79,114
197280,note_on,0,0,1,,,,,,,,,0,,,85,0
197280,note_on,240,0,1,,,,,,,,,0,,,87,0
197280,note_on,0,0,1,,,,,,,,,0,,,86,114
197520,note_on,0,0,3,,,,,,,,,2,,,63,114
197520,note_on,0,0,3,,,,,,,,,2,,,61,114
197520,note_on,0,0,3,,,,,,,,,2,,,61,0
197520,note_on,0,0,3,,,,,,,,,2,,,55,114
197520,note_on,240,0,1,,,,,,,,,0,,,86,0
197520,note_on,0,0,1,,,,,,,,,0,,,87,114
197520,note_on,0,0,1,,,,,,,,,0,,,74,0
197520,note_on,0,0,1,,,,,,,,,0,,,75,114
197520,note_on,0,0,1,,,,,,,,,0,,,79,0
197520,note_on,0,0,3,,,,,,,,,2,,,51,0
197520,note_on,0,0,3,,,,,,,,,2,,,51,114
197520,note_on,0,0,1,,,,,,,,,0,,,79,114
197520,note_on,0,0,1,,,,,,,,,0,,,85,0
197520,note_on,0,0,1,,,,,,,,,0,,,85,114
197520,note_on,0,0,3,,,,,,,,,2,,,55,0
197520,note_on,240,0,3,,,,,,,,,2,,,62,0
197760,note_on,0,0,3,,,,,,,,,2,,,51,0
197760,note_on,0,0,3,,,,,,,,,2,,,51,114
197760,note_on,0,0,3,,,,,,,,,2,,,55,0
197760,note_on,0,0,3,,,,,,,,,2,,,55,114
197760,note_on,0,0,3,,,,,,,,,2,,,61,114
197760,note_on,240,0,1,,,,,,,,,0,,,87,0
197760,note_on,240,0,3,,,,,,,,,2,,,63,0
197760,note_on,0,0,1,,,,,,,,,0,,,75,0
197760,note_on,0,0,1,,,,,,,,,0,,,77,114
197760,note_on,0,0,1,,,,,,,,,0,,,79,0
197760,note_on,0,0,1,,,,,,,,,0,,,79,114
197760,note_on,0,0,1,,,,,,,,,0,,,85,0
197760,note_on,0,0,1,,,,,,,,,0,,,85,114
197760,note_on,0,0,1,,,,,,,,,0,,,89,114
197760,note_on,0,0,3,,,,,,,,,2,,,65,114
197760,note_on,0,0,3,,,,,,,,,2,,,61,0
198000,note_on,0,0,3,,,,,,,,,2,,,61,0
198000,note_on,0,0,1,,,,,,,,,0,,,87,114
198000,note_on,0,0,1,,,,,,,,,0,,,85,114
198000,note_on,0,0,1,,,,,,,,,0,,,85,0
198000,note_on,0,0,1,,,,,,,,,0,,,79,114
198000,note_on,0,0,1,,,,,,,,,0,,,79,0
198000,note_on,0,0,1,,,,,,,,,0,,,77,0
198000,note_on,0,0,3,,,,,,,,,2,,,55,114
198000,note_on,0,0,3,,,,,,,,,2,,,51,114
198000,note_on,0,0,3,,,,,,,,,2,,,51,0
198000,note_on,240,0,1,,,,,,,,,0,,,89,0
198000,note_on,240,0,3,,,,,,,,,2,,,65,0
198000,note_on,0,0,1,,,,,,,,,0,,,75,114
198000,note_on,0,0,3,,,,,,,,,2,,,61,114
198000,note_on,0,0,3,,,,,,,,,2,,,63,114
198000,note_on,0,0,3,,,,,,,,,2,,,55,0
198240,note_on,0,0,1,,,,,,,,,0,,,79,0
198240,note_on,0,0,3,,,,,,,,,2,,,61,0
198240,note_on,0,0,3,,,,,,,,,2,,,55,0
198240,note_on,0,0,3,,,,,,,,,2,,,51,0
198240,note_on,0,0,3,,,,,,,,,2,,,49,114
198240,note_on,0,0,3,,,,,,,,,2,,,37,114
198240,note_on,240,0,1,,,,,,,,,0,,,87,0
198240,note_on,240,0,3,,,,,,,,,2,,,63,0
198240,note_on,0,0,1,,,,,,,,,0,,,75,0
198240,note_on,0,0,1,,,,,,,,,0,,,85,0
198240,note_on,0,0,1,,,,,,,,,0,,,85,88
198240,note_on,0,0,1,,,,,,,,,0,,,87,88
198240,note_on,0,0,1,,,,,,,,,0,,,96,88
198480,note_on,0,0,1,,,,,,,,,0,,,87,88
198480,note_on,0,0,1,,,,,,,,,0,,,87,0
198480,note_on,0,0,1,,,,,,,,,0,,,85,0
198480,control_change,0,0,3,,,,,,,,,2,64,0,,
198480,note_on,240,0,1,,,,,,,,,0,,,96,0
198480,control_change,0,0,1,,,,,,,,,0,64,0,,
198480,note_on,0,0,1,,,,,,,,,0,,,82,88
198480,note_on,240,0,3,,,,,,,,,2,,,49,0
198480,note_on,0,0,1,,,,,,,,,0,,,94,88
198480,note_on,0,0,3,,,,,,,,,2,,,37,0
198480,note_on,0,0,3,,,,,,,,,2,,,67,88
198480,note_on,0,0,3,,,,,,,,,2,,,63,88
198480,note_on,0,0,3,,,,,,,,,2,,,58,88
198480,note_on,0,0,3,,,,,,,,,2,,,55,88
198720,note_on,0,0,1,,,,,,,,,0,,,92,88
198720,note_on,240,0,1,,,,,,,,,0,,,94,0
198720,note_on,0,0,3,,,,,,,,,2,,,63,0
198720,note_on,0,0,3,,,,,,,,,2,,,58,0
198720,note_on,0,0,3,,,,,,,,,2,,,55,0
198720,note_on,240,0,3,,,,,,,,,2,,,67,0
198720,control_change,0,0,1,,,,,,,,,0,64,127,,
198720,note_on,0,0,1,,,,,,,,,0,,,82,0
198720,note_on,0,0,1,,,,,,,,,0,,,85,88
198720,note_on,0,0,1,,,,,,,,,0,,,87,0
198720,note_on,0,0,1,,,,,,,,,0,,,88,88
198720,note_on,0,0,1,,,,,,,,,0,,,97,88
198960,note_on,0,0,3,,,,,,,,,2,,,64,75
198960,set_tempo,32880,1,0,,,,,,454545,,,,,,,
198960,note_on,240,0,1,,,,,,,,,0,,,97,0
198960,note_on,0,0,1,,,,,,,,,0,,,85,0
198960,note_on,240,0,3,,,,,,,,,2,,,56,75
198960,note_on,0,0,3,,,,,,,,,2,,,68,75
198960,note_on,0,0,1,,,,,,,,,0,,,83,88
198960,note_on,0,0,3,,,,,,,,,2,,,59,75
198960,note_on,0,0,1,,,,,,,,,0,,,88,0
198960,note_on,0,0,1,,,,,,,,,0,,,88,88
198960,note_on,0,0,1,,,,,,,,,0,,,92,0
198960,note_on,0,0,1,,,,,,,,,0,,,92,88
198960,note_on,0,0,1,,,,,,,,,0,,,95,88
199200,set_tempo,240,1,0,,,,,,465116,,,,,,,
199200,note_on,0,0,3,,,,,,,,,2,,,68,75
199200,note_on,0,0,3,,,,,,,,,2,,,56,0
199200,note_on,0,0,1,,,,,,,,,0,,,82,88
199200,note_on,0,0,1,,,,,,,,,0,,,83,0
199200,note_on,0,0,3,,,,,,,,,2,,,56,75
199200,note_on,0,0,1,,,,,,,,,0,,,88,88
199200,note_on,0,0,3,,,,,,,,,2,,,58,75
199200,note_on,0,0,3,,,,,,,,,2,,,59,0
199200,note_on,240,0,1,,,,,,,,,0,,,95,0
199200,note_on,0,0,1,,,,,,,,,0,,,88,0
199200,note_on,0,0,3,,,,,,,,,2,,,64,75
199200,note_on,0,0,3,,,,,,,,,2,,,64,0
199200,note_on,0,0,1,,,,,,,,,0,,,94,88
199200,note_on,0,0,1,,,,,,,,,0,,,92,88
199200,note_on,0,0,1,,,,,,,,,0,,,92,0
199200,note_on,240,0,3,,,,,,,,,2,,,68,0
199440,note_on,0,0,3,,,,,,,,,2,,,56,75
199440,note_on,0,0,3,,,,,,,,,2,,,56,0
199440,note_on,0,0,3,,,,,,,,,2,,,59,75
199440,note_on,0,0,3,,,,,,,,,2,,,64,0
199440,note_on,0,0,3,,,,,,,,,2,,,64,75
199440,note_on,0,0,3,,,,,,,,,2,,,68,75
199440,note_on,0,0,3,,,,,,,,,2,,,58,0
199440,note_on,0,0,1,,,,,,,,,0,,,95,88
199440,note_on,240,0,1,,,,,,,,,0,,,94,0
199440,note_on,0,0,1,,,,,,,,,0,,,92,88
199440,note_on,0,0,1,,,,,,,,,0,,,92,0
199440,note_on,0,0,1,,,,,,,,,0,,,88,88
199440,note_on,0,0,1,,,,,,,,,0,,,88,0
199440,note_on,0,0,1,,,,,,,,,0,,,83,88
199440,note_on,240,0,3,,,,,,,,,2,,,68,0
199440,note_on,0,0,1,,,,,,,,,0,,,82,0
199440,set_tempo,240,1,0,,,,,,476190,,,,,,,
199680,note_on,0,0,1,,,,,,,,,0,,,87,88
199680,set_tempo,240,1,0,,,,,,491803,,,,,,,
199680,note_on,0,0,3,,,,,,,,,2,,,56,0
199680,note_on,0,0,3,,,,,,,,,2,,,59,0
199680,note_on,0,0,3,,,,,,,,,2,,,64,0
199680,note_on,0,0,1,,,,,,,,,0,,,85,88
199680,note_on,240,0,3,,,,,,,,,2,,,68,0
199680,note_on,0,0,1,,,,,,,,,0,,,88,0
199680,note_on,0,0,1,,,,,,,,,0,,,83,0
199680,note_on,0,0,1,,,,,,,,,0,,,93,88
199680,note_on,0,0,1,,,,,,,,,0,,,97,88
199680,note_on,0,0,1,,,,,,,,,0,,,92,0
199680,note_on,240,0,1,,,,,,,,,0,,,95,0
199920,note_on,240,0,1,,,,,,,,,0,,,97,0
199920,note_on,240,0,3,,,,,,,,,2,,,57,75
199920,note_on,0,0,3,,,,,,,,,2,,,59,75
199920,note_on,0,0,1,,,,,,,,,0,,,95,88
199920,note_on,0,0,1,,,,,,,,,0,,,93,0
199920,note_on,0,0,1,,,,,,,,,0,,,87,88
199920,note_on,0,0,1,,,,,,,,,0,,,87,0
199920,note_on,0,0,1,,,,,,,,,0,,,85,0
199920,note_on,0,0,3,,,,,,,,,2,,,69,75
199920,note_on,0,0,3,,,,,,,,,2,,,63,75
199920,note_on,0,0,1,,,,,,,,,0,,,83,88
199920,set_tempo,240,1,0,,,,,,504202,,,,,,,
200160,note_on,240,0,1,,,,,,,,,0,,,95,0
200160,set_tempo,240,1,0,,,,,,517241,,,,,,,
200160,note_on,0,0,1,,,,,,,,,0,,,92,88
200160,note_on,0,0,1,,,,,,,,,0,,,95,88
200160,note_on,240,0,3,,,,,,,,,2,,,69,0
200160,note_on,0,0,1,,,,,,,,,0,,,87,0
200160,note_on,0,0,1,,,,,,,,,0,,,83,0
200160,note_on,0,0,3,,,,,,,,,2,,,59,0
200160,note_on,0,0,1,,,,,,,,,0,,,104,88
200160,note_on,0,0,3,,,,,,,,,2,,,57,0
200160,note_on,0,0,3,,,,,,,,,2,,,63,0
200400,note_on,0,0,1,,,,,,,,,0,,,102,88
200400,note_on,0,0,3,,,,,,,,,2,,,54,75
200400,note_on,0,0,3,,,,,,,,,2,,,59,75
200400,note_on,0,0,3,,,,,,,,,2,,,63,75
200400,set_tempo,240,1,0,,,,,,530973,,,,,,,
200400,control_change,0,0,1,,,,,,,,,0,64,0,,
200400,note_on,240,0,3,,,,,,,,,2,,,51,75
200400,note_on,0,0,1,,,,,,,,,0,,,90,88
200400,note_on,0,0,1,,,,,,,,,0,,,92,0
200400,note_on,0,0,1,,,,,,,,,0,,,95,0
200400,note_on,0,0,1,,,,,,,,,0,,,95,88
200400,note_on,240,0,1,,,,,,,,,0,,,104,0
200640,set_tempo,240,1,0,,,,,,550459,,,,,,,
200640,note_on,0,0,1,,,,,,,,,0,,,95,0
200640,note_on,0,0,1,,,,,,,,,0,,,90,0
200640,note_on,0,0,3,,,,,,,,,2,,,59,0
200640,note_on,240,0,3,,,,,,,,,2,,,63,0
200640,note_on,0,0,3,,,,,,,,,2,,,54,0
200640,note_on,0,0,3,,,,,,,,,2,,,51,0
200640,note_on,240,0,1,,,,,,,,,0,,,102,0
200760,note_on,0,0,1,,,,,,,,,0,,,80,62
200760,note_on,0,0,1,,,,,,,,,0,,,68,62
200760,note_on,0,0,1,,,,,,,,,0,,,72,62
200760,note_on,0,0,1,,,,,,,,,0,,,75,62
200760,control_change,120,0,1,,,,,,,,,0,64,127,,
200807,note_on,47,0,1,,,,,,,,,0,,,80,0
200807,note_on,0,0,1,,,,,,,,,0,,,72,0
200807,note_on,0,0,1,,,,,,,,,0,,,75,0
200807,note_on,0,0,1,,,,,,,,,0,,,68,0
200880,note_on,0,0,3,,,,,,,,,2,,,55,62
200880,note_on,0,0,3,,,,,,,,,2,,,63,62
200880,note_on,0,0,3,,,,,,,,,2,,,60,62
200880,control_change,240,0,3,,,,,,,,,2,64,127,,
200880,note_on,0,0,3,,,,,,,,,2,,,51,62
200927,note_on,47,0,3,,,,,,,,,2,,,63,0
200927,note_on,0,0,3,,,,,,,,,2,,,55,0
200927,note_on,0,0,3,,,,,,,,,2,,,60,0
200927,note_on,0,0,3,,,,,,,,,2,,,51,0
201000,note_on,193,0,1,,,,,,,,,0,,,67,62
201000,note_on,0,0,1,,,,,,,,,0,,,79,62
201000,note_on,0,0,1,,,,,,,,,0,,,75,62
201000,note_on,0,0,1,,,,,,,,,0,,,72,62
201047,note_on,0,0,1,,,,,,,,,0,,,67,0
201047,note_on,0,0,1,,,,,,,,,0,,,75,0
201047,note_on,47,0,1,,,,,,,,,0,,,79,0
201047,note_on,0,0,1,,,,,,,,,0,,,72,0
201120,note_on,0,0,3,,,,,,,,,2,,,60,62
201120,note_on,0,0,3,,,,,,,,,2,,,54,62
201120,note_on,193,0,3,,,,,,,,,2,,,51,62
201120,note_on,0,0,3,,,,,,,,,2,,,63,62
201167,note_on,0,0,3,,,,,,,,,2,,,60,0
201167,note_on,47,0,3,,,,,,,,,2,,,63,0
201167,note_on,0,0,3,,,,,,,,,2,,,54,0
201167,note_on,0,0,3,,,,,,,,,2,,,51,0
201240,note_on,0,0,1,,,,,,,,,0,,,75,62
201240,note_on,0,0,1,,,,,,,,,0,,,78,62
201240,note_on,193,0,1,,,,,,,,,0,,,66,62
201240,note_on,0,0,1,,,,,,,,,0,,,72,62
201287,note_on,47,0,1,,,,,,,,,0,,,78,0
201287,note_on,0,0,1,,,,,,,,,0,,,72,0
201287,note_on,0,0,1,,,,,,,,,0,,,75,0
201287,note_on,0,0,1,,,,,,,,,0,,,66,0
201360,note_on,0,0,3,,,,,,,,,2,,,63,62
201360,note_on,0,0,3,,,,,,,,,2,,,55,62
201360,note_on,0,0,3,,,,,,,,,2,,,60,62
201360,note_on,193,0,3,,,,,,,,,2,,,51,62
201407,note_on,47,0,3,,,,,,,,,2,,,63,0
201407,note_on,0,0,3,,,,,,,,,2,,,55,0
201407,note_on,0,0,3,,,,,,,,,2,,,51,0
201407,note_on,0,0,3,,,,,,,,,2,,,60,0
201480,note_on,193,0,1,,,,,,,,,0,,,67,62
201480,note_on,0,0,1,,,,,,,,,0,,,72,62
201480,note_on,0,0,1,,,,,,,,,0,,,75,62
201480,note_on,0,0,1,,,,,,,,,0,,,79,62
201527,note_on,47,0,1,,,,,,,,,0,,,79,0
201527,note_on,0,0,1,,,,,,,,,0,,,72,0
201527,note_on,0,0,1,,,,,,,,,0,,,75,0
201527,note_on,0,0,1,,,,,,,,,0,,,67,0
201600,note_on,0,0,3,,,,,,,,,2,,,59,62
201600,note_on,0,0,3,,,,,,,,,2,,,56,62
201600,note_on,0,0,3,,,,,,,,,2,,,63,62
201600,note_on,193,0,3,,,,,,,,,2,,,53,62
201647,note_on,47,0,3,,,,,,,,,2,,,63,0
201647,note_on,0,0,3,,,,,,,,,2,,,59,0
201647,note_on,0,0,3,,,,,,,,,2,,,56,0
201647,note_on,0,0,3,,,,,,,,,2,,,53,0
201720,note_on,0,0,1,,,,,,,,,0,,,71,62
201720,note_on,0,0,1,,,,,,,,,0,,,80,62
201720,note_on,193,0,1,,,,,,,,,0,,,68,62
201767,note_on,0,0,1,,,,,,,,,0,,,71,0
201767,note_on,47,0,1,,,,,,,,,0,,,80,0
201767,note_on,0,0,1,,,,,,,,,0,,,68,0
201840,note_on,0,0,3,,,,,,,,,2,,,63,75
201840,note_on,0,0,3,,,,,,,,,2,,,55,75
201840,note_on,0,0,3,,,,,,,,,2,,,59,75
201840,note_on,193,0,3,,,,,,,,,2,,,53,75
201887,note_on,0,0,3,,,,,,,,,2,,,53,0
201887,note_on,0,0,3,,,,,,,,,2,,,59,0
201887,note_on,0,0,3,,,,,,,,,2,,,55,0
201887,note_on,47,0,3,,,,,,,,,2,,,63,0
201960,note_on,0,0,1,,,,,,,,,0,,,79,62
201960,note_on,193,0,1,,,,,,,,,0,,,67,62
201960,note_on,0,0,1,,,,,,,,,0,,,71,62
202007,note_on,0,0,1,,,,,,,,,0,,,67,0
202007,note_on,47,0,1,,,,,,,,,0,,,79,0
202007,note_on,0,0,1,,,,,,,,,0,,,71,0
202080,note_on,0,0,3,,,,,,,,,2,,,63,75
202080,note_on,0,0,3,,,,,,,,,2,,,59,75
202080,note_on,0,0,3,,,,,,,,,2,,,56,75
202080,note_on,193,0,3,,,,,,,,,2,,,53,75
202127,note_on,47,0,3,,,,,,,,,2,,,63,0
202127,note_on,0,0,3,,,,,,,,,2,,,56,0
202127,note_on,0,0,3,,,,,,,,,2,,,53,0
202127,note_on,0,0,3,,,,,,,,,2,,,59,0
202200,note_on,0,0,1,,,,,,,,,0,,,80,62
202200,note_on,193,0,1,,,,,,,,,0,,,75,62
202200,note_on,0,0,1,,,,,,,,,0,,,87,62
202247,note_on,0,0,1,,,,,,,,,0,,,75,0
202247,note_on,47,0,1,,,,,,,,,0,,,87,0
202247,note_on,0,0,1,,,,,,,,,0,,,80,0
202320,control_change,193,0,3,,,,,,,,,2,64,0,,
202320,note_on,0,0,3,,,,,,,,,2,,,56,62
202320,note_on,0,0,3,,,,,,,,,2,,,62,62
202320,note_on,0,0,3,,,,,,,,,2,,,59,62
202320,note_on,0,0,3,,,,,,,,,2,,,53,62
202367,note_on,0,0,3,,,,,,,,,2,,,56,0
202367,note_on,47,0,3,,,,,,,,,2,,,62,0
202367,note_on,0,0,3,,,,,,,,,2,,,53,0
202367,note_on,0,0,3,,,,,,,,,2,,,59,0
202440,control_change,193,0,1,,,,,,,,,0,64,0,,
202440,note_on,0,0,1,,,,,,,,,0,,,74,62
202440,note_on,0,0,1,,,,,,,,,0,,,80,62
202440,note_on,0,0,1,,,,,,,,,0,,,86,62
202463,note_on,0,0,1,,,,,,,,,0,,,80,0
202463,note_on,0,0,1,,,,,,,,,0,,,74,0
202463,note_on,23,0,1,,,,,,,,,0,,,86,0
202560,control_change,193,0,3,,,,,,,,,2,64,127,,
202680,note_on,0,0,1,,,,,,,,,0,,,72,62
202680,note_on,0,0,1,,,,,,,,,0,,,75,62
202680,note_on,0,0,1,,,,,,,,,0,,,80,62
202680,control_change,217,0,1,,,,,,,,,0,64,127,,
202680,note_on,0,0,1,,,,,,,,,0,,,68,62
202727,note_on,0,0,1,,,,,,,,,0,,,68,0
202727,note_on,0,0,1,,,,,,,,,0,,,75,0
202727,note_on,0,0,1,,,,,,,,,0,,,72,0
202727,note_on,47,0,1,,,,,,,,,0,,,80,0
202800,note_on,240,0,3,,,,,,,,,2,,,51,62
202800,note_on,0,0,3,,,,,,,,,2,,,63,62
202800,note_on,0,0,3,,,,,,,,,2,,,60,62
202800,note_on,0,0,3,,,,,,,,,2,,,55,62
202847,note_on,0,0,3,,,,,,,,,2,,,60,0
202847,note_on,0,0,3,,,,,,,,,2,,,55,0
202847,note_on,0,0,3,,,,,,,,,2,,,51,0
202847,note_on,47,0,3,,,,,,,,,2,,,63,0
202920,note_on,0,0,1,,,,,,,,,0,,,72,62
202920,note_on,0,0,1,,,,,,,,,0,,,75,62
202920,note_on,0,0,1,,,,,,,,,0,,,79,62
202920,note_on,193,0,1,,,,,,,,,0,,,67,62
203040,note_on,0,0,3,,,,,,,,,2,,,60,62
203040,note_on,193,0,3,,,,,,,,,2,,,51,62
203040,note_on,0,0,3,,,,,,,,,2,,,54,62
203040,note_on,0,0,3,,,,,,,,,2,,,63,62
203087,note_on,0,0,3,,,,,,,,,2,,,51,0
203087,note_on,0,0,3,,,,,,,,,2,,,54,0
203087,note_on,0,0,3,,,,,,,,,2,,,60,0
203087,note_on,47,0,3,,,,,,,,,2,,,63,0
203160,note_on,0,0,1,,,,,,,,,0,,,72,62
203160,note_on,0,0,1,,,,,,,,,0,,,75,0
203160,note_on,0,0,1,,,,,,,,,0,,,72,0
203160,note_on,0,0,1,,,,,,,,,0,,,67,0
203160,note_on,0,0,1,,,,,,,,,0,,,66,62
203160,note_on,0,0,1,,,,,,,,,0,,,75,62
203160,note_on,0,0,1,,,,,,,,,0,,,78,62
203160,note_on,240,0,1,,,,,,,,,0,,,79,0
203207,note_on,0,0,1,,,,,,,,,0,,,66,0
203207,note_on,0,0,1,,,,,,,,,0,,,72,0
203207,note_on,0,0,1,,,,,,,,,0,,,75,0
203207,note_on,47,0,1,,,,,,,,,0,,,78,0
203280,note_on,0,0,3,,,,,,,,,2,,,63,62
203280,note_on,0,0,3,,,,,,,,,2,,,60,62
203280,note_on,0,0,3,,,,,,,,,2,,,55,62
203280,note_on,193,0,3,,,,,,,,,2,,,51,62
203327,note_on,0,0,3,,,,,,,,,2,,,51,0
203327,note_on,0,0,3,,,,,,,,,2,,,60,0
203327,note_on,0,0,3,,,,,,,,,2,,,55,0
203327,note_on,47,0,3,,,,,,,,,2,,,63,0
203400,note_on,0,0,1,,,,,,,,,0,,,72,62
203400,note_on,0,0,1,,,,,,,,,0,,,75,62
203400,note_on,0,0,1,,,,,,,,,0,,,79,62
203400,note_on,193,0,1,,,,,,,,,0,,,67,62
203640,note_on,240,0,1,,,,,,,,,0,,,79,0
203640,note_on,0,0,1,,,,,,,,,0,,,80,75
203640,note_on,0,0,1,,,,,,,,,0,,,71,75
203640,note_on,0,0,1,,,,,,,,,0,,,75,0
203640,note_on,0,0,1,,,,,,,,,0,,,67,0
203640,note_on,0,0,1,,,,,,,,,0,,,74,75
203640,note_on,0,0,1,,,,,,,,,0,,,72,0
203640,note_on,0,0,1,,,,,,,,,0,,,68,75
203687,note_on,0,0,1,,,,,,,,,0,,,71,0
203687,note_on,47,0,1,,,,,,,,,0,,,80,0
203687,note_on,0,0,1,,,,,,,,,0,,,74,0
203687,note_on,0,0,1,,,,,,,,,0,,,68,0
203760,note_on,0,0,3,,,,,,,,,2,,,62,75
203760,note_on,433,0,3,,,,,,,,,2,,,53,75
203760,note_on,0,0,3,,,,,,,,,2,,,59,75
203760,note_on,0,0,3,,,,,,,,,2,,,55,75
203807,note_on,0,0,3,,,,,,,,,2,,,59,0
203807,note_on,0,0,3,,,,,,,,,2,,,55,0
203807,note_on,47,0,3,,,,,,,,,2,,,62,0
203807,note_on,0,0,3,,,,,,,,,2,,,53,0
203880,note_on,193,0,1,,,,,,,,,0,,,67,75
203880,note_on,0,0,1,,,,,,,,,0,,,71,75
203880,note_on,0,0,1,,,,,,,,,0,,,74,75
203880,note_on,0,0,1,,,,,,,,,0,,,79,75
203880,set_tempo,3240,1,0,,,,,,566038,,,,,,,
204000,note_on,0,0,3,,,,,,,,,2,,,56,75
204000,note_on,0,0,3,,,,,,,,,2,,,63,75
204000,note_on,0,0,3,,,,,,,,,2,,,59,75
204000,note_on,193,0,3,,,,,,,,,2,,,53,75
204047,note_on,0,0,3,,,,,,,,,2,,,59,0
204047,note_on,0,0,3,,,,,,,,,2,,,56,0
204047,note_on,0,0,3,,,,,,,,,2,,,53,0
204047,note_on,47,0,3,,,,,,,,,2,,,63,0
204120,set_tempo,240,1,0,,,,,,582524,,,,,,,
204120,note_on,0,0,1,,,,,,,,,0,,,83,75
204120,note_on,0,0,1,,,,,,,,,0,,,80,75
204120,note_on,240,0,1,,,,,,,,,0,,,79,0
204120,note_on,0,0,1,,,,,,,,,0,,,75,75
204120,note_on,0,0,1,,,,,,,,,0,,,74,0
204120,note_on,0,0,1,,,,,,,,,0,,,67,0
204120,note_on,0,0,1,,,,,,,,,0,,,71,0
204120,note_on,0,0,1,,,,,,,,,0,,,87,75
204167,note_on,0,0,1,,,,,,,,,0,,,80,0
204167,note_on,0,0,1,,,,,,,,,0,,,83,0
204167,note_on,47,0,1,,,,,,,,,0,,,87,0
204167,note_on,0,0,1,,,,,,,,,0,,,75,0
204240,note_on,0,0,3,,,,,,,,,2,,,62,75
204240,note_on,0,0,3,,,,,,,,,2,,,59,75
204240,control_change,193,0,3,,,,,,,,,2,64,0,,
204240,note_on,0,0,3,,,,,,,,,2,,,53,75
204240,note_on,0,0,3,,,,,,,,,2,,,56,75
204287,note_on,0,0,3,,,,,,,,,2,,,59,0
204287,note_on,47,0,3,,,,,,,,,2,,,62,0
204287,note_on,0,0,3,,,,,,,,,2,,,53,0
204287,note_on,0,0,3,,,,,,,,,2,,,56,0
204360,note_on,0,0,1,,,,,,,,,0,,,74,75
204360,control_change,193,0,1,,,,,,,,,0,64,0,,
204360,note_on,0,0,1,,,,,,,,,0,,,83,75
204360,note_on,0,0,1,,,,,,,,,0,,,86,75
204360,set_tempo,240,1,0,,,,,,600000,,,,,,,
204360,note_on,0,0,1,,,,,,,,,0,,,80,75
204383,note_on,23,0,1,,,,,,,,,0,,,86,0
204383,note_on,0,0,1,,,,,,,,,0,,,74,0
204383,note_on,0,0,1,,,,,,,,,0,,,80,0
204383,note_on,0,0,1,,,,,,,,,0,,,83,0
204480,time_signature,120,1,0,5,4,24,8,,,,,,,,,
204600,note_on,0,0,1,,,,,,,,,0,,,72,114
204600,note_on,0,0,1,,,,,,,,,0,,,77,114
204600,note_on,0,0,1,,,,,,,,,0,,,65,114
204600,control_change,217,0,1,,,,,,,,,0,64,127,,
204600,note_on,0,0,1,,,,,,,,,0,,,68,114
204600,set_tempo,120,1,0,,,,,,625000,,,,,,,
204720,note_on,0,0,3,,,,,,,,,2,,,63,114
204720,note_on,0,0,3,,,,,,,,,2,,,60,114
204720,note_on,0,0,3,,,,,,,,,2,,,56,114
204720,note_on,0,0,3,,,,,,,,,2,,,51,114
204720,control_change,433,0,3,,,,,,,,,2,64,127,,
204840,note_on,0,0,1,,,,,,,,,0,,,68,88
204840,note_on,0,0,1,,,,,,,,,0,,,75,88
204840,note_on,0,0,1,,,,,,,,,0,,,68,0
204840,note_on,0,0,1,,,,,,,,,0,,,65,0
204840,note_on,0,0,1,,,,,,,,,0,,,72,88
204840,note_on,0,0,1,,,,,,,,,0,,,63,88
204840,note_on,240,0,1,,,,,,,,,0,,,77,0
204840,note_on,0,0,1,,,,,,,,,0,,,72,0
204840,set_tempo,240,1,0,,,,,,645161,,,,,,,
204960,note_on,0,0,3,,,,,,,,,2,,,60,114
204960,note_on,240,0,3,,,,,,,,,2,,,63,0
204960,note_on,0,0,3,,,,,,,,,2,,,62,114
204960,note_on,0,0,3,,,,,,,,,2,,,60,0
204960,note_on,0,0,3,,,,,,,,,2,,,56,114
204960,note_on,0,0,3,,,,,,,,,2,,,56,0
204960,note_on,0,0,3,,,,,,,,,2,,,51,0
204960,note_on,0,0,3,,,,,,,,,2,,,51,114
205080,note_on,0,0,1,,,,,,,,,0,,,62,88
205080,note_on,240,0,1,,,,,,,,,0,,,75,0
205080,note_on,0,0,1,,,,,,,,,0,,,74,88
205080,note_on,0,0,1,,,,,,,,,0,,,72,88
205080,note_on,0,0,1,,,,,,,,,0,,,72,0
205080,note_on,0,0,1,,,,,,,,,0,,,68,88
205080,note_on,0,0,1,,,,,,,,,0,,,68,0
205080,note_on,0,0,1,,,,,,,,,0,,,63,0
205080,set_tempo,240,1,0,,,,,,666667,,,,,,,
205200,note_on,0,0,3,,,,,,,,,2,,,51,0
205200,note_on,0,0,3,,,,,,,,,2,,,51,114
205200,note_on,0,0,3,,,,,,,,,2,,,56,0
205200,note_on,0,0,3,,,,,,,,,2,,,60,0
205200,note_on,0,0,3,,,,,,,,,2,,,56,114
205200,note_on,0,0,3,,,,,,,,,2,,,63,114
205200,note_on,240,0,3,,,,,,,,,2,,,62,0
205200,note_on,0,0,3,,,,,,,,,2,,,60,114
205320,note_on,0,0,1,,,,,,,,,0,,,68,88
205320,note_on,0,0,1,,,,,,,,,0,,,75,88
205320,note_on,240,0,1,,,,,,,,,0,,,74,0
205320,note_on,0,0,1,,,,,,,,,0,,,72,88
205320,note_on,0,0,1,,,,,,,,,0,,,68,0
205320,note_on,0,0,1,,,,,,,,,0,,,72,0
205320,note_on,0,0,1,,,,,,,,,0,,,63,88
205320,note_on,0,0,1,,,,,,,,,0,,,62,0
205320,set_tempo,240,1,0,,,,,,689655,,,,,,,
205440,note_on,240,0,3,,,,,,,,,2,,,63,0
205440,note_on,0,0,3,,,,,,,,,2,,,65,114
205440,note_on,0,0,3,,,,,,,,,2,,,61,114
205440,note_on,0,0,3,,,,,,,,,2,,,51,0
205440,note_on,0,0,3,,,,,,,,,2,,,51,114
205440,note_on,0,0,3,,,,,,,,,2,,,55,114
205440,note_on,0,0,3,,,,,,,,,2,,,56,0
205440,note_on,0,0,3,,,,,,,,,2,,,60,0
205560,note_on,0,0,1,,,,,,,,,0,,,68,0
205560,note_on,0,0,1,,,,,,,,,0,,,67,88
205560,note_on,0,0,1,,,,,,,,,0,,,77,88
205560,note_on,240,0,1,,,,,,,,,0,,,75,0
205560,note_on,0,0,1,,,,,,,,,0,,,72,0
205560,note_on,0,0,1,,,,,,,,,0,,,63,0
205560,note_on,0,0,1,,,,,,,,,0,,,73,88
205560,set_tempo,240,1,0,,,,,,722892,,,,,,,
205560,note_on,0,0,1,,,,,,,,,0,,,65,88
205680,note_on,0,0,3,,,,,,,,,2,,,51,0
205680,note_on,0,0,3,,,,,,,,,2,,,51,114
205680,note_on,0,0,3,,,,,,,,,2,,,55,0
205680,note_on,0,0,3,,,,,,,,,2,,,55,114
205680,note_on,0,0,3,,,,,,,,,2,,,61,0
205680,note_on,0,0,3,,,,,,,,,2,,,61,114
205680,note_on,0,0,3,,,,,,,,,2,,,63,114
205680,note_on,240,0,3,,,,,,,,,2,,,65,0
205800,note_on,0,0,1,,,,,,,,,0,,,73,0
205800,note_on,0,0,1,,,,,,,,,0,,,63,88
205800,note_on,0,0,1,,,,,,,,,0,,,75,88
205800,note_on,0,0,1,,,,,,,,,0,,,73,88
205800,note_on,0,0,1,,,,,,,,,0,,,67,0
205800,note_on,0,0,1,,,,,,,,,0,,,65,0
205800,note_on,0,0,1,,,,,,,,,0,,,67,88
205800,note_on,240,0,1,,,,,,,,,0,,,77,0
205920,note_on,240,0,3,,,,,,,,,2,,,63,0
205920,note_on,0,0,3,,,,,,,,,2,,,67,114
205920,note_on,0,0,3,,,,,,,,,2,,,63,114
205920,note_on,0,0,3,,,,,,,,,2,,,61,0
205920,note_on,0,0,3,,,,,,,,,2,,,55,0
205920,note_on,0,0,3,,,,,,,,,2,,,51,0
205920,note_on,0,0,3,,,,,,,,,2,,,72,114
206040,note_on,0,0,1,,,,,,,,,0,,,84,114
206040,note_on,0,0,1,,,,,,,,,0,,,63,0
206040,note_on,0,0,1,,,,,,,,,0,,,67,0
206040,note_on,0,0,1,,,,,,,,,0,,,72,114
206040,note_on,0,0,1,,,,,,,,,0,,,73,0
206040,note_on,0,0,1,,,,,,,,,0,,,75,114
206040,note_on,240,0,1,,,,,,,,,0,,,75,0
206640,control_change,0,0,3,,,,,,,,,2,64,0,,
206640,note_on,0,0,3,,,,,,,,,2,,,67,88
206640,note_on,0,0,3,,,,,,,,,2,,,67,0
206640,note_on,0,0,3,,,,,,,,,2,,,63,0
206640,note_on,0,0,3,,,,,,,,,2,,,61,88
206640,note_on,0,0,3,,,,,,,,,2,,,70,88
206640,note_on,720,0,3,,,,,,,,,2,,,72,0
206760,control_change,0,0,1,,,,,,,,,0,64,0,,
206760,note_on,0,0,1,,,,,,,,,0,,,82,88
206760,note_on,720,0,1,,,,,,,,,0,,,84,0
206760,note_on,0,0,1,,,,,,,,,0,,,75,88
206760,note_on,0,0,1,,,,,,,,,0,,,75,0
206760,note_on,0,0,1,,,,,,,,,0,,,72,0
206760,note_on,0,0,1,,,,,,,,,0,,,70,88
206790,note_on,150,0,3,,,,,,,,,2,,,44,88
206820,note_on,30,0,3,,,,,,,,,2,,,51,88
206850,note_on,30,0,3,,,,,,,,,2,,,60,88
206880,control_change,0,0,3,,,,,,,,,2,64,127,,
206880,note_on,0,0,3,,,,,,,,,2,,,68,88
206880,control_change,31360,0,2,,,,,,,,,1,64,127,,
206880,note_on,0,0,1,,,,,,,,,0,,,70,0
206880,note_on,0,0,1,,,,,,,,,0,,,75,0
206880,note_on,0,0,1,,,,,,,,,0,,,80,88
206880,note_on,0,0,3,,,,,,,,,2,,,67,0
206880,note_on,0,0,1,,,,,,,,,0,,,92,88
206880,note_on,30,0,3,,,,,,,,,2,,,70,0
206880,note_on,120,0,1,,,,,,,,,0,,,82,0
206880,note_on,0,0,1,,,,,,,,,0,,,87,88
206880,note_on,0,0,3,,,,,,,,,2,,,61,0
206880,control_change,0,0,1,,,,,,,,,0,64,127,,
206880,time_signature,1320,1,0,4,4,24,8,,,,,,,,,
207120,note_on,0,0,3,,,,,,,,,2,,,51,0
207120,note_on,0,0,3,,,,,,,,,2,,,44,0
207120,note_on,0,0,3,,,,,,,,,2,,,60,0
207120,note_on,240,0,3,,,,,,,,,2,,,68,0
207360,note_on,240,0,3,,,,,,,,,2,,,51,49
207360,set_tempo,480,1,0,,,,,,600000,,,,,,,
207360,note_on,0,0,1,,,,,,,,,0,,,87,0
207360,note_on,0,0,1,,,,,,,,,0,,,80,0
207360,note_on,480,0,1,,,,,,,,,0,,,92,0
207360,note_on,480,0,2,,,,,,,,,1,,,60,49
207480,note_on,0,0,3,,,,,,,,,2,,,44,49
207480,note_on,0,0,2,,,,,,,,,1,,,63,49
207480,note_on,120,0,3,,,,,,,,,2,,,51,0
207480,note_on,120,0,2,,,,,,,,,1,,,60,0
207600,note_on,0,0,2,,,,,,,,,1,,,60,49
207600,note_on,120,0,3,,,,,,,,,2,,,44,0
207600,note_on,120,0,2,,,,,,,,,1,,,63,0
207600,note_on,0,0,3,,,,,,,,,2,,,51,49
207720,note_on,120,0,2,,,,,,,,,1,,,60,0
207720,note_on,120,0,3,,,,,,,,,2,,,51,0
207720,note_on,0,0,3,,,,,,,,,2,,,44,49
207720,note_on,0,0,2,,,,,,,,,1,,,63,49
207840,note_on,120,0,3,,,,,,,,,2,,,44,0
207840,note_on,0,0,3,,,,,,,,,2,,,51,49
207840,note_on,120,0,2,,,,,,,,,1,,,63,0
207840,note_on,0,0,2,,,,,,,,,1,,,60,49
207960,note_on,120,0,2,,,,,,,,,1,,,60,0
207960,note_on,0,0,3,,,,,,,,,2,,,56,49
207960,note_on,0,0,2,,,,,,,,,1,,,63,49
207960,note_on,120,0,3,,,,,,,,,2,,,51,0
208080,note_on,0,0,2,,,,,,,,,1,,,60,49
208080,note_on,0,0,3,,,,,,,,,2,,,51,49
208080,note_on,120,0,2,,,,,,,,,1,,,63,0
208080,note_on,120,0,3,,,,,,,,,2,,,56,0
208200,note_on,120,0,3,,,,,,,,,2,,,51,0
208200,note_on,120,0,2,,,,,,,,,1,,,60,0
208200,note_on,0,0,2,,,,,,,,,1,,,63,49
208200,note_on,0,0,3,,,,,,,,,2,,,56,49
208320,note_on,960,0,1,,,,,,,,,0,,,73,101
208320,note_on,120,0,3,,,,,,,,,2,,,56,0
208320,note_on,0,0,3,,,,,,,,,2,,,63,49
208320,note_on,0,0,2,,,,,,,,,1,,,73,49
208320,note_on,120,0,2,,,,,,,,,1,,,63,0
208440,note_on,120,0,3,,,,,,,,,2,,,63,0
208440,note_on,0,0,2,,,,,,,,,1,,,60,49
208440,note_on,120,0,2,,,,,,,,,1,,,73,0
208440,note_on,0,0,3,,,,,,,,,2,,,56,49
208560,note_on,120,0,2,,,,,,,,,1,,,60,0
208560,note_on,0,0,3,,,,,,,,,2,,,44,49
208560,note_on,120,0,3,,,,,,,,,2,,,56,0
208560,note_on,0,0,2,,,,,,,,,1,,,63,49
208680,note_on,0,0,3,,,,,,,,,2,,,51,49
208680,control_change,0,0,1,,,,,,,,,0,64,0,,
208680,note_on,120,0,2,,,,,,,,,1,,,63,0
208680,note_on,0,0,2,,,,,,,,,1,,,72,49
208680,note_on,360,0,1,,,,,,,,,0,,,73,0
208680,control_change,0,0,2,,,,,,,,,1,64,0,,
208680,note_on,0,0,1,,,,,,,,,0,,,72,75
208680,control_change,0,0,3,,,,,,,,,2,64,0,,
208680,note_on,120,0,3,,,,,,,,,2,,,44,0
208800,note_on,120,0,1,,,,,,,,,0,,,72,0
208800,control_change,0,0,2,,,,,,,,,1,64,127,,
208800,control_change,0,0,1,,,,,,,,,0,64,127,,
208800,control_change,0,0,3,,,,,,,,,2,64,127,,
208800,note_on,0,0,1,,,,,,,,,0,,,72,101
208800,note_on,0,0,2,,,,,,,,,1,,,72,49
208800,note_on,120,0,3,,,,,,,,,2,,,51,0
208800,note_on,120,0,2,,,,,,,,,1,,,72,0
208800,note_on,0,0,3,,,,,,,,,2,,,62,49
208920,note_on,120,0,2,,,,,,,,,1,,,72,0
208920,note_on,0,0,2,,,,,,,,,1,,,62,49
208920,note_on,0,0,3,,,,,,,,,2,,,53,49
208920,note_on,120,0,3,,,,,,,,,2,,,62,0
209040,note_on,120,0,2,,,,,,,,,1,,,62,0
209040,note_on,0,0,3,,,,,,,,,2,,,44,49
209040,note_on,0,0,2,,,,,,,,,1,,,65,49
209040,note_on,120,0,3,,,,,,,,,2,,,53,0
209160,note_on,120,0,2,,,,,,,,,1,,,65,0
209160,note_on,0,0,2,,,,,,,,,1,,,72,49
209160,note_on,120,0,3,,,,,,,,,2,,,44,0
209160,note_on,0,0,3,,,,,,,,,2,,,53,49
209280,note_on,120,0,2,,,,,,,,,1,,,72,0
209280,note_on,0,0,2,,,,,,,,,1,,,71,49
209280,note_on,120,0,3,,,,,,,,,2,,,53,0
209280,note_on,0,0,3,,,,,,,,,2,,,62,49
209280,note_on,0,0,1,,,,,,,,,0,,,71,75
209280,note_on,480,0,1,,,,,,,,,0,,,72,0
209400,note_on,120,0,3,,,,,,,,,2,,,62,0
209400,note_on,0,0,2,,,,,,,,,1,,,74,49
209400,note_on,0,0,3,,,,,,,,,2,,,65,49
209400,note_on,120,0,2,,,,,,,,,1,,,71,0
209520,note_on,0,0,3,,,,,,,,,2,,,71,49
209520,note_on,0,0,2,,,,,,,,,1,,,83,49
209520,note_on,120,0,3,,,,,,,,,2,,,65,0
209520,note_on,120,0,2,,,,,,,,,1,,,74,0
209640,note_on,120,0,2,,,,,,,,,1,,,83,0
209640,note_on,120,0,3,,,,,,,,,2,,,71,0
209640,note_on,0,0,2,,,,,,,,,1,,,89,49
209640,note_on,0,0,3,,,,,,,,,2,,,77,49
209760,note_on,0,0,2,,,,,,,,,1,,,83,49
209760,note_on,120,0,3,,,,,,,,,2,,,77,0
209760,note_on,120,0,2,,,,,,,,,1,,,89,0
209760,note_on,0,0,3,,,,,,,,,2,,,71,49
209880,note_on,120,0,3,,,,,,,,,2,,,71,0
209880,note_on,120,0,2,,,,,,,,,1,,,83,0
209880,note_on,0,0,2,,,,,,,,,1,,,74,49
209880,note_on,0,0,3,,,,,,,,,2,,,65,49
210000,note_on,120,0,3,,,,,,,,,2,,,65,0
210000,note_on,0,0,3,,,,,,,,,2,,,62,49
210000,note_on,0,0,2,,,,,,,,,1,,,71,49
210000,note_on,120,0,2,,,,,,,,,1,,,74,0
210120,note_on,120,0,3,,,,,,,,,2,,,62,0
210120,note_on,0,0,2,,,,,,,,,1,,,65,49
210120,note_on,120,0,2,,,,,,,,,1,,,71,0
210120,note_on,0,0,3,,,,,,,,,2,,,53,49
210240,note_on,120,0,3,,,,,,,,,2,,,53,0
210240,note_on,0,0,3,,,,,,,,,2,,,61,49
210240,note_on,120,0,2,,,,,,,,,1,,,65,0
210240,note_on,960,0,1,,,,,,,,,0,,,71,0
210240,note_on,0,0,2,,,,,,,,,1,,,72,49
210240,note_on,0,0,1,,,,,,,,,0,,,72,75
210360,note_on,120,0,3,,,,,,,,,2,,,61,0
210360,note_on,0,0,3,,,,,,,,,2,,,55,49
210360,note_on,120,0,2,,,,,,,,,1,,,72,0
210360,note_on,0,0,2,,,,,,,,,1,,,61,49
210480,note_on,0,0,3,,,,,,,,,2,,,44,49
210480,note_on,0,0,2,,,,,,,,,1,,,63,49
210480,note_on,120,0,3,,,,,,,,,2,,,55,0
210480,note_on,120,0,2,,,,,,,,,1,,,61,0
210600,note_on,120,0,2,,,,,,,,,1,,,63,0
210600,control_change,0,0,1,,,,,,,,,0,64,0,,
210600,control_change,0,0,2,,,,,,,,,1,64,0,,
210600,note_on,360,0,1,,,,,,,,,0,,,72,0
210600,note_on,0,0,3,,,,,,,,,2,,,51,49
210600,control_change,0,0,3,,,,,,,,,2,64,0,,
210600,note_on,120,0,3,,,,,,,,,2,,,44,0
210600,note_on,0,0,1,,,,,,,,,0,,,70,75
210600,note_on,0,0,2,,,,,,,,,1,,,70,49
210720,control_change,0,0,2,,,,,,,,,1,64,127,,
210720,note_on,120,0,3,,,,,,,,,2,,,51,0
210720,control_change,0,0,3,,,,,,,,,2,64,127,,
210720,note_on,120,0,1,,,,,,,,,0,,,70,0
210720,control_change,0,0,1,,,,,,,,,0,64,127,,
210720,note_on,0,0,3,,,,,,,,,2,,,60,49
210720,note_on,0,0,2,,,,,,,,,1,,,70,49
210720,note_on,120,0,2,,,,,,,,,1,,,70,0
210720,note_on,0,0,1,,,,,,,,,0,,,70,75
210840,note_on,0,0,3,,,,,,,,,2,,,51,49
210840,note_on,0,0,2,,,,,,,,,1,,,60,49
210840,note_on,120,0,2,,,,,,,,,1,,,70,0
210840,note_on,120,0,3,,,,,,,,,2,,,60,0
210960,note_on,0,0,3,,,,,,,,,2,,,44,49
210960,note_on,120,0,3,,,,,,,,,2,,,51,0
210960,note_on,0,0,2,,,,,,,,,1,,,63,49
210960,note_on,120,0,2,,,,,,,,,1,,,60,0
211080,note_on,120,0,3,,,,,,,,,2,,,44,0
211080,note_on,0,0,2,,,,,,,,,1,,,70,49
211080,note_on,120,0,2,,,,,,,,,1,,,63,0
211080,note_on,0,0,3,,,,,,,,,2,,,51,49
211200,note_on,120,0,2,,,,,,,,,1,,,70,0
211200,note_on,0,0,1,,,,,,,,,0,,,68,75
211200,note_on,0,0,2,,,,,,,,,1,,,68,49
211200,note_on,480,0,1,,,,,,,,,0,,,70,0
211200,note_on,120,0,3,,,,,,,,,2,,,51,0
211200,note_on,0,0,3,,,,,,,,,2,,,60,49
211320,note_on,120,0,3,,,,,,,,,2,,,60,0
211320,note_on,0,0,3,,,,,,,,,2,,,63,49
211320,note_on,120,0,2,,,,,,,,,1,,,68,0
211320,note_on,0,0,2,,,,,,,,,1,,,72,49
211440,note_on,120,0,3,,,,,,,,,2,,,63,0
211440,note_on,0,0,2,,,,,,,,,1,,,80,49
211440,note_on,0,0,3,,,,,,,,,2,,,68,49
211440,note_on,120,0,2,,,,,,,,,1,,,72,0
211560,note_on,120,0,3,,,,,,,,,2,,,68,0
211560,note_on,0,0,3,,,,,,,,,2,,,75,49
211560,note_on,0,0,2,,,,,,,,,1,,,87,49
211560,note_on,120,0,2,,,,,,,,,1,,,80,0
211680,note_on,0,0,3,,,,,,,,,2,,,68,49
211680,note_on,120,0,3,,,,,,,,,2,,,75,0
211680,note_on,120,0,2,,,,,,,,,1,,,87,0
211680,note_on,0,0,2,,,,,,,,,1,,,80,49
211800,note_on,0,0,2,,,,,,,,,1,,,72,49
211800,note_on,0,0,3,,,,,,,,,2,,,63,49
211800,note_on,120,0,3,,,,,,,,,2,,,68,0
211800,note_on,120,0,2,,,,,,,,,1,,,80,0
211920,note_on,0,0,2,,,,,,,,,1,,,68,49
211920,note_on,120,0,3,,,,,,,,,2,,,63,0
211920,note_on,120,0,2,,,,,,,,,1,,,72,0
211920,note_on,0,0,3,,,,,,,,,2,,,60,49
212040,note_on,0,0,2,,,,,,,,,1,,,63,49
212040,note_on,120,0,3,,,,,,,,,2,,,60,0
212040,note_on,120,0,2,,,,,,,,,1,,,68,0
212040,note_on,0,0,3,,,,,,,,,2,,,51,49
212160,note_on,0,0,1,,,,,,,,,0,,,67,75
212160,note_on,120,0,3,,,,,,,,,2,,,51,0
212160,note_on,0,0,3,,,,,,,,,2,,,47,49
212160,note_on,120,0,2,,,,,,,,,1,,,63,0
212160,note_on,960,0,1,,,,,,,,,0,,,68,0
212160,note_on,0,0,2,,,,,,,,,1,,,67,49
212280,note_on,0,0,3,,,,,,,,,2,,,50,49
212280,note_on,0,0,2,,,,,,,,,1,,,56,49
212280,note_on,120,0,2,,,,,,,,,1,,,67,0
212280,note_on,120,0,3,,,,,,,,,2,,,47,0
212400,note_on,120,0,3,,,,,,,,,2,,,50,0
212400,note_on,0,0,3,,,,,,,,,2,,,38,49
212400,note_on,120,0,2,,,,,,,,,1,,,56,0
212400,note_on,0,0,2,,,,,,,,,1,,,59,49
212520,note_on,0,0,1,,,,,,,,,0,,,65,75
212520,note_on,120,0,3,,,,,,,,,2,,,38,0
212520,control_change,0,0,2,,,,,,,,,1,64,0,,
212520,note_on,360,0,1,,,,,,,,,0,,,67,0
212520,note_on,0,0,2,,,,,,,,,1,,,65,49
212520,note_on,0,0,3,,,,,,,,,2,,,47,49
212520,control_change,0,0,3,,,,,,,,,2,64,0,,
212520,control_change,0,0,1,,,,,,,,,0,64,0,,
212520,note_on,120,0,2,,,,,,,,,1,,,59,0
212640,note_on,120,0,1,,,,,,,,,0,,,65,0
212640,note_on,0,0,3,,,,,,,,,2,,,39,49
212640,control_change,0,0,3,,,,,,,,,2,64,127,,
212640,note_on,120,0,3,,,,,,,,,2,,,47,0
212640,control_change,0,0,1,,,,,,,,,0,64,127,,
212640,note_on,0,0,1,,,,,,,,,0,,,65,75
212640,note_on,120,0,2,,,,,,,,,1,,,65,0
212640,note_on,0,0,2,,,,,,,,,1,,,61,49
212640,control_change,0,0,2,,,,,,,,,1,64,127,,
212760,note_on,0,0,3,,,,,,,,,2,,,46,49
212760,note_on,120,0,3,,,,,,,,,2,,,39,0
212760,note_on,120,0,2,,,,,,,,,1,,,61,0
212760,note_on,0,0,2,,,,,,,,,1,,,55,49
212880,note_on,120,0,3,,,,,,,,,2,,,46,0
212880,note_on,120,0,2,,,,,,,,,1,,,55,0
212880,note_on,0,0,2,,,,,,,,,1,,,61,49
212880,note_on,0,0,3,,,,,,,,,2,,,51,49
213000,note_on,120,0,3,,,,,,,,,2,,,51,0
213000,note_on,0,0,3,,,,,,,,,2,,,55,49
213000,note_on,120,0,2,,,,,,,,,1,,,61,0
213000,note_on,0,0,2,,,,,,,,,1,,,65,49
213120,note_on,120,0,3,,,,,,,,,2,,,55,0
213120,note_on,0,0,2,,,,,,,,,1,,,63,49
213120,note_on,0,0,1,,,,,,,,,0,,,63,75
213120,note_on,120,0,2,,,,,,,,,1,,,65,0
213120,note_on,480,0,1,,,,,,,,,0,,,65,0
213120,note_on,0,0,3,,,,,,,,,2,,,58,49
213240,note_on,120,0,3,,,,,,,,,2,,,58,0
213240,note_on,120,0,2,,,,,,,,,1,,,63,0
213240,note_on,0,0,3,,,,,,,,,2,,,63,49
213240,note_on,0,0,2,,,,,,,,,1,,,67,49
213360,note_on,0,0,2,,,,,,,,,1,,,73,49
213360,note_on,0,0,2,,,,,,,,,1,,,77,49
213360,note_on,0,0,3,,,,,,,,,2,,,67,49
213360,note_on,120,0,2,,,,,,,,,1,,,67,0
213360,note_on,120,0,3,,,,,,,,,2,,,63,0
213480,note_on,120,0,2,,,,,,,,,1,,,77,0
213480,note_on,0,0,2,,,,,,,,,1,,,75,49
213480,note_on,0,0,2,,,,,,,,,1,,,73,0
213480,note_on,120,0,3,,,,,,,,,2,,,67,0
213600,note_on,120,0,2,,,,,,,,,1,,,75,0
213600,note_on,0,0,2,,,,,,,,,1,,,72,49
213600,note_on,120,0,3,,,,,,,,,2,,,39,49
213600,note_on,480,0,1,,,,,,,,,0,,,63,0
213600,note_on,0,0,1,,,,,,,,,0,,,72,75
213720,note_on,0,0,3,,,,,,,,,2,,,51,49
213720,note_on,120,0,3,,,,,,,,,2,,,39,0
213720,note_on,0,0,2,,,,,,,,,1,,,61,49
213720,note_on,120,0,2,,,,,,,,,1,,,72,0
213840,note_on,120,0,3,,,,,,,,,2,,,51,0
213840,note_on,0,0,3,,,,,,,,,2,,,55,49
213840,note_on,0,0,2,,,,,,,,,1,,,63,49
213840,note_on,120,0,2,,,,,,,,,1,,,61,0
213960,note_on,120,0,3,,,,,,,,,2,,,55,0
213960,note_on,120,0,2,,,,,,,,,1,,,63,0
213960,note_on,0,0,3,,,,,,,,,2,,,61,49
213960,note_on,0,0,2,,,,,,,,,1,,,72,49
214080,note_on,0,0,2,,,,,,,,,1,,,70,49
214080,note_on,120,0,3,,,,,,,,,2,,,61,0
214080,control_change,0,0,1,,,,,,,,,0,64,0,,
214080,note_on,0,0,3,,,,,,,,,2,,,63,49
214080,note_on,480,0,1,,,,,,,,,0,,,72,0
214080,note_on,0,0,1,,,,,,,,,0,,,70,75
214080,note_on,120,0,2,,,,,,,,,1,,,72,0
214200,note_on,120,0,2,,,,,,,,,1,,,70,0
214200,note_on,0,0,2,,,,,,,,,1,,,73,49
214200,note_on,120,0,3,,,,,,,,,2,,,63,0
214200,note_on,0,0,3,,,,,,,,,2,,,67,49
214260,note_on,60,0,2,,,,,,,,,1,,,75,49
214320,note_on,60,0,2,,,,,,,,,1,,,73,0
214320,note_on,120,0,3,,,,,,,,,2,,,67,0
214320,note_on,0,0,3,,,,,,,,,2,,,73,49
214320,note_on,0,0,2,,,,,,,,,1,,,84,49
214440,note_on,0,0,2,,,,,,,,,1,,,75,0
214440,note_on,0,0,2,,,,,,,,,1,,,82,49
214440,control_change,0,0,2,,,,,,,,,1,64,0,,
214440,note_on,120,0,2,,,,,,,,,1,,,84,0
214440,note_on,120,0,3,,,,,,,,,2,,,73,0
214440,control_change,0,0,3,,,,,,,,,2,64,0,,
214560,control_change,0,0,2,,,,,,,,,1,64,127,,
214560,note_on,120,0,2,,,,,,,,,1,,,82,0
214560,control_change,0,0,1,,,,,,,,,0,64,127,,
214560,note_on,0,0,1,,,,,,,,,0,,,68,75
214560,note_on,480,0,1,,,,,,,,,0,,,70,0
214560,note_on,0,0,2,,,,,,,,,1,,,68,49
214680,note_on,120,0,2,,,,,,,,,1,,,68,0
214680,note_on,0,0,3,,,,,,,,,2,,,44,49
214680,note_on,0,0,2,,,,,,,,,1,,,60,49
214680,control_change,240,0,3,,,,,,,,,2,64,127,,
214800,note_on,0,0,2,,,,,,,,,1,,,68,49
214800,note_on,120,0,2,,,,,,,,,1,,,60,0
214800,note_on,120,0,3,,,,,,,,,2,,,44,0
214800,note_on,0,0,3,,,,,,,,,2,,,51,49
214920,note_on,120,0,3,,,,,,,,,2,,,51,0
214920,note_on,120,0,2,,,,,,,,,1,,,68,0
214920,note_on,0,0,3,,,,,,,,,2,,,60,49
214920,note_on,0,0,2,,,,,,,,,1,,,77,49
215040,note_on,120,0,2,,,,,,,,,1,,,77,0
215040,note_on,0,0,2,,,,,,,,,1,,,75,49
215040,note_on,0,0,3,,,,,,,,,2,,,63,49
215040,note_on,120,0,3,,,,,,,,,2,,,60,0
215160,note_on,120,0,2,,,,,,,,,1,,,75,0
215160,note_on,0,0,2,,,,,,,,,1,,,72,49
215160,note_on,0,0,3,,,,,,,,,2,,,56,49
215160,note_on,120,0,3,,,,,,,,,2,,,63,0
215280,note_on,120,0,3,,,,,,,,,2,,,56,0
215280,note_on,0,0,2,,,,,,,,,1,,,80,49
215280,note_on,0,0,3,,,,,,,,,2,,,63,49
215280,note_on,120,0,2,,,,,,,,,1,,,72,0
215400,note_on,0,0,2,,,,,,,,,1,,,89,49
215400,note_on,0,0,3,,,,,,,,,2,,,72,49
215400,note_on,120,0,3,,,,,,,,,2,,,63,0
215400,note_on,120,0,2,,,,,,,,,1,,,80,0
215520,note_on,0,0,2,,,,,,,,,1,,,87,49
215520,note_on,0,0,3,,,,,,,,,2,,,75,49
215520,note_on,120,0,3,,,,,,,,,2,,,72,0
215520,note_on,120,0,2,,,,,,,,,1,,,89,0
215640,note_on,120,0,3,,,,,,,,,2,,,75,0
215640,note_on,120,0,2,,,,,,,,,1,,,87,0
215640,note_on,0,0,3,,,,,,,,,2,,,72,49
215640,note_on,0,0,2,,,,,,,,,1,,,80,49
215760,note_on,0,0,2,,,,,,,,,1,,,72,49
215760,note_on,120,0,2,,,,,,,,,1,,,80,0
215760,note_on,120,0,3,,,,,,,,,2,,,72,0
215760,note_on,0,0,3,,,,,,,,,2,,,63,49
215880,note_on,0,0,2,,,,,,,,,1,,,63,49
215880,note_on,0,0,3,,,,,,,,,2,,,56,49
215880,note_on,120,0,2,,,,,,,,,1,,,72,0
215880,note_on,120,0,3,,,,,,,,,2,,,63,0
216000,note_on,120,0,3,,,,,,,,,2,,,56,0
216000,note_on,0,0,2,,,,,,,,,1,,,73,49
216000,note_on,1440,0,1,,,,,,,,,0,,,68,0
216000,note_on,120,0,2,,,,,,,,,1,,,63,0
216000,note_on,0,0,3,,,,,,,,,2,,,63,49
216000,note_on,0,0,1,,,,,,,,,0,,,73,101
216120,note_on,120,0,3,,,,,,,,,2,,,63,0
216120,note_on,120,0,2,,,,,,,,,1,,,73,0
216120,note_on,0,0,3,,,,,,,,,2,,,56,49
216120,note_on,0,0,2,,,,,,,,,1,,,60,49
216240,note_on,120,0,3,,,,,,,,,2,,,56,0
216240,note_on,0,0,2,,,,,,,,,1,,,63,49
216240,note_on,0,0,3,,,,,,,,,2,,,44,49
216240,note_on,120,0,2,,,,,,,,,1,,,60,0
216360,note_on,0,0,3,,,,,,,,,2,,,51,49
216360,control_change,0,0,2,,,,,,,,,1,64,0,,
216360,control_change,0,0,1,,,,,,,,,0,64,0,,
216360,note_on,120,0,3,,,,,,,,,2,,,44,0
216360,note_on,360,0,1,,,,,,,,,0,,,73,0
216360,control_change,0,0,3,,,,,,,,,2,64,0,,
216360,note_on,0,0,1,,,,,,,,,0,,,72,75
216360,note_on,120,0,2,,,,,,,,,1,,,63,0
216360,note_on,0,0,2,,,,,,,,,1,,,72,49
216480,note_on,120,0,3,,,,,,,,,2,,,51,0
216480,control_change,0,0,3,,,,,,,,,2,64,127,,
216480,control_change,0,0,2,,,,,,,,,1,64,127,,
216480,note_on,0,0,1,,,,,,,,,0,,,72,75
216480,note_on,0,0,2,,,,,,,,,1,,,72,49
216480,control_change,0,0,1,,,,,,,,,0,64,127,,
216480,note_on,120,0,2,,,,,,,,,1,,,72,0
216480,note_on,0,0,3,,,,,,,,,2,,,62,49
216480,note_on,120,0,1,,,,,,,,,0,,,72,0
216600,note_on,120,0,3,,,,,,,,,2,,,62,0
216600,note_on,0,0,2,,,,,,,,,1,,,62,49
216600,note_on,120,0,2,,,,,,,,,1,,,72,0
216600,note_on,0,0,3,,,,,,,,,2,,,53,49
216720,note_on,120,0,2,,,,,,,,,1,,,62,0
216720,note_on,120,0,3,,,,,,,,,2,,,53,0
216720,note_on,0,0,3,,,,,,,,,2,,,44,49
216720,note_on,0,0,2,,,,,,,,,1,,,65,49
216840,note_on,0,0,2,,,,,,,,,1,,,72,49
216840,note_on,120,0,3,,,,,,,,,2,,,44,0
216840,note_on,0,0,3,,,,,,,,,2,,,53,49
216840,note_on,120,0,2,,,,,,,,,1,,,65,0
216960,note_on,120,0,2,,,,,,,,,1,,,72,0
216960,note_on,0,0,2,,,,,,,,,1,,,71,49
216960,note_on,0,0,1,,,,,,,,,0,,,71,75
216960,note_on,120,0,3,,,,,,,,,2,,,53,0
216960,note_on,0,0,3,,,,,,,,,2,,,62,49
216960,note_on,480,0,1,,,,,,,,,0,,,72,0
217080,note_on,0,0,2,,,,,,,,,1,,,74,49
217080,note_on,120,0,2,,,,,,,,,1,,,71,0
217080,note_on,120,0,3,,,,,,,,,2,,,62,0
217080,note_on,0,0,3,,,,,,,,,2,,,65,49
217200,note_on,120,0,3,,,,,,,,,2,,,65,0
217200,note_on,120,0,2,,,,,,,,,1,,,74,0
217200,note_on,0,0,2,,,,,,,,,1,,,83,49
217200,note_on,0,0,3,,,,,,,,,2,,,71,49
217320,note_on,0,0,3,,,,,,,,,2,,,77,49
217320,note_on,0,0,2,,,,,,,,,1,,,89,49
217320,note_on,120,0,3,,,,,,,,,2,,,71,0
217320,note_on,120,0,2,,,,,,,,,1,,,83,0
217440,note_on,120,0,3,,,,,,,,,2,,,77,0
217440,note_on,0,0,2,,,,,,,,,1,,,83,49
217440,note_on,0,0,3,,,,,,,,,2,,,71,49
217440,note_on,120,0,2,,,,,,,,,1,,,89,0
217560,note_on,120,0,3,,,,,,,,,2,,,71,0
217560,note_on,0,0,3,,,,,,,,,2,,,65,49
217560,note_on,120,0,2,,,,,,,,,1,,,83,0
217560,note_on,0,0,2,,,,,,,,,1,,,74,49
217680,note_on,0,0,2,,,,,,,,,1,,,71,49
217680,note_on,120,0,2,,,,,,,,,1,,,74,0
217680,note_on,120,0,3,,,,,,,,,2,,,65,0
217680,note_on,0,0,3,,,,,,,,,2,,,62,49
217800,note_on,0,0,2,,,,,,,,,1,,,65,49
217800,note_on,0,0,3,,,,,,,,,2,,,53,49
217800,note_on,120,0,3,,,,,,,,,2,,,62,0
217800,note_on,120,0,2,,,,,,,,,1,,,71,0
217920,note_on,0,0,2,,,,,,,,,1,,,75,49
217920,note_on,0,0,1,,,,,,,,,0,,,75,101
217920,note_on,120,0,3,,,,,,,,,2,,,53,0
217920,note_on,960,0,1,,,,,,,,,0,,,71,0
217920,note_on,0,0,3,,,,,,,,,2,,,59,49
217920,note_on,120,0,2,,,,,,,,,1,,,65,0
218040,note_on,0,0,2,,,,,,,,,1,,,65,49
218040,note_on,120,0,2,,,,,,,,,1,,,75,0
218040,note_on,120,0,3,,,,,,,,,2,,,59,0
218040,note_on,0,0,3,,,,,,,,,2,,,53,49
218160,note_on,0,0,3,,,,,,,,,2,,,43,49
218160,note_on,0,0,2,,,,,,,,,1,,,68,49
218160,note_on,120,0,3,,,,,,,,,2,,,53,0
218160,note_on,120,0,2,,,,,,,,,1,,,65,0
218280,note_on,0,0,3,,,,,,,,,2,,,53,49
218280,control_change,0,0,1,,,,,,,,,0,64,0,,
218280,control_change,0,0,3,,,,,,,,,2,64,0,,
218280,note_on,0,0,2,,,,,,,,,1,,,74,49
218280,control_change,0,0,2,,,,,,,,,1,64,0,,
218280,note_on,360,0,1,,,,,,,,,0,,,75,0
218280,note_on,120,0,2,,,,,,,,,1,,,68,0
218280,note_on,0,0,1,,,,,,,,,0,,,74,75
218280,note_on,120,0,3,,,,,,,,,2,,,43,0
218400,note_on,0,0,1,,,,,,,,,0,,,74,101
218400,note_on,120,0,1,,,,,,,,,0,,,74,0
218400,control_change,0,0,1,,,,,,,,,0,64,127,,
218400,note_on,120,0,3,,,,,,,,,2,,,53,0
218400,control_change,0,0,2,,,,,,,,,1,64,127,,
218400,note_on,0,0,2,,,,,,,,,1,,,74,62
218400,control_change,0,0,3,,,,,,,,,2,64,127,,
218400,note_on,120,0,2,,,,,,,,,1,,,74,0
218520,note_on,0,0,2,,,,,,,,,1,,,63,62
218520,note_on,120,0,3,,,,,,,,,2,,,48,62
218520,note_on,120,0,2,,,,,,,,,1,,,74,0
218640,note_on,0,0,2,,,,,,,,,1,,,67,62
218640,note_on,120,0,3,,,,,,,,,2,,,48,0
218640,note_on,120,0,2,,,,,,,,,1,,,63,0
218640,note_on,0,0,3,,,,,,,,,2,,,55,62
218760,note_on,120,0,2,,,,,,,,,1,,,67,0
218760,note_on,0,0,3,,,,,,,,,2,,,60,62
218760,note_on,0,0,2,,,,,,,,,1,,,74,62
218760,note_on,120,0,3,,,,,,,,,2,,,55,0
218880,note_on,480,0,1,,,,,,,,,0,,,74,0
218880,note_on,120,0,2,,,,,,,,,1,,,74,0
218880,note_on,0,0,3,,,,,,,,,2,,,63,62
218880,note_on,0,0,2,,,,,,,,,1,,,72,62
218880,note_on,120,0,3,,,,,,,,,2,,,60,0
218880,note_on,0,0,1,,,,,,,,,0,,,72,75
219000,note_on,0,0,3,,,,,,,,,2,,,67,62
219000,note_on,120,0,2,,,,,,,,,1,,,72,0
219000,note_on,120,0,3,,,,,,,,,2,,,63,0
219000,note_on,0,0,2,,,,,,,,,1,,,75,62
219120,note_on,120,0,2,,,,,,,,,1,,,75,0
219120,note_on,0,0,3,,,,,,,,,2,,,72,62
219120,note_on,120,0,3,,,,,,,,,2,,,67,0
219120,note_on,0,0,2,,,,,,,,,1,,,79,62
219240,note_on,0,0,2,,,,,,,,,1,,,84,62
219240,note_on,120,0,2,,,,,,,,,1,,,79,0
219240,note_on,120,0,3,,,,,,,,,2,,,72,0
219240,note_on,0,0,3,,,,,,,,,2,,,75,62
219360,note_on,120,0,3,,,,,,,,,2,,,75,0
219360,note_on,0,0,1,,,,,,,,,0,,,77,101
219360,note_on,0,0,2,,,,,,,,,1,,,77,62
219360,note_on,480,0,1,,,,,,,,,0,,,72,0
219360,control_change,0,0,1,,,,,,,,,0,64,0,,
219360,note_on,120,0,2,,,,,,,,,1,,,84,0
219480,note_on,0,0,2,,,,,,,,,1,,,66,62
219480,note_on,120,0,3,,,,,,,,,2,,,48,62
219480,note_on,120,0,2,,,,,,,,,1,,,77,0
219600,note_on,120,0,3,,,,,,,,,2,,,48,0
219600,note_on,120,0,2,,,,,,,,,1,,,66,0
219600,note_on,0,0,2,,,,,,,,,1,,,69,62
219600,note_on,0,0,3,,,,,,,,,2,,,54,62
219720,note_on,120,0,2,,,,,,,,,1,,,69,0
219720,note_on,0,0,3,,,,,,,,,2,,,57,62
219720,note_on,0,0,2,,,,,,,,,1,,,77,62
219720,note_on,120,0,3,,,,,,,,,2,,,54,0
219840,note_on,0,0,3,,,,,,,,,2,,,63,62
219840,note_on,120,0,3,,,,,,,,,2,,,57,0
219960,note_on,240,0,2,,,,,,,,,1,,,77,0
219960,note_on,0,0,2,,,,,,,,,1,,,78,62
219960,note_on,120,0,3,,,,,,,,,2,,,63,0
219960,note_on,0,0,3,,,,,,,,,2,,,66,62
220080,note_on,0,0,2,,,,,,,,,1,,,81,62
220080,note_on,120,0,2,,,,,,,,,1,,,78,0
220080,note_on,120,0,3,,,,,,,,,2,,,66,0
220080,note_on,0,0,3,,,,,,,,,2,,,75,62
220200,note_on,120,0,2,,,,,,,,,1,,,81,0
220200,control_change,0,0,2,,,,,,,,,1,64,0,,
220200,control_change,0,0,3,,,,,,,,,2,64,0,,
220200,note_on,0,0,2,,,,,,,,,1,,,87,62
220200,note_on,120,0,3,,,,,,,,,2,,,75,0
220200,note_on,0,0,3,,,,,,,,,2,,,69,62
220320,note_on,960,0,1,,,,,,,,,0,,,77,0
220320,control_change,0,0,1,,,,,,,,,0,64,127,,
220320,note_on,120,0,3,,,,,,,,,2,,,69,0
220320,note_on,0,0,1,,,,,,,,,0,,,75,101
220320,note_on,120,0,2,,,,,,,,,1,,,87,0
220440,note_on,0,0,3,,,,,,,,,2,,,49,62
220440,note_on,0,0,2,,,,,,,,,1,,,66,62
220440,control_change,120,0,2,,,,,,,,,1,64,127,,
220440,control_change,120,0,3,,,,,,,,,2,64,127,,
220560,note_on,0,0,2,,,,,,,,,1,,,70,62
220560,note_on,120,0,2,,,,,,,,,1,,,66,0
220560,note_on,120,0,3,,,,,,,,,2,,,49,0
220560,set_tempo,13200,1,0,,,,,,618557,,,,,,,
220560,note_on,0,0,3,,,,,,,,,2,,,54,62
220680,note_on,0,0,2,,,,,,,,,1,,,75,62
220680,note_on,120,0,3,,,,,,,,,2,,,54,0
220680,note_on,120,0,2,,,,,,,,,1,,,70,0
220680,note_on,0,0,3,,,,,,,,,2,,,58,62
220800,set_tempo,240,1,0,,,,,,638298,,,,,,,
220800,note_on,480,0,1,,,,,,,,,0,,,75,0
220800,note_on,120,0,2,,,,,,,,,1,,,75,0
220800,note_on,0,0,1,,,,,,,,,0,,,73,101
220800,note_on,0,0,3,,,,,,,,,2,,,61,62
220800,note_on,0,0,2,,,,,,,,,1,,,73,62
220800,note_on,120,0,3,,,,,,,,,2,,,58,0
220920,note_on,120,0,2,,,,,,,,,1,,,73,0
220920,note_on,0,0,2,,,,,,,,,1,,,78,62
220920,note_on,0,0,3,,,,,,,,,2,,,66,62
220920,note_on,120,0,3,,,,,,,,,2,,,61,0
221040,note_on,0,0,3,,,,,,,,,2,,,70,62
221040,note_on,120,0,3,,,,,,,,,2,,,66,0
221040,note_on,0,0,2,,,,,,,,,1,,,82,62
221040,note_on,120,0,2,,,,,,,,,1,,,78,0
221040,set_tempo,240,1,0,,,,,,659341,,,,,,,
221160,note_on,120,0,2,,,,,,,,,1,,,82,0
221160,note_on,120,0,3,,,,,,,,,2,,,70,0
221160,note_on,0,0,3,,,,,,,,,2,,,73,62
221160,note_on,0,0,2,,,,,,,,,1,,,85,62
221280,set_tempo,240,1,0,,,,,,689655,,,,,,,
221280,note_on,120,0,3,,,,,,,,,2,,,73,0
221280,note_on,0,0,1,,,,,,,,,0,,,82,88
221280,note_on,0,0,3,,,,,,,,,2,,,70,49
221280,note_on,120,0,2,,,,,,,,,1,,,85,0
221280,note_on,0,0,2,,,,,,,,,1,,,82,49
221280,note_on,480,0,1,,,,,,,,,0,,,73,0
221400,note_on,120,0,3,,,,,,,,,2,,,70,0
221400,note_on,0,0,3,,,,,,,,,2,,,65,49
221400,note_on,0,0,2,,,,,,,,,1,,,85,49
221400,note_on,120,0,2,,,,,,,,,1,,,82,0
221520,note_on,0,0,2,,,,,,,,,1,,,89,49
221520,note_on,0,0,3,,,,,,,,,2,,,59,49
221520,note_on,120,0,3,,,,,,,,,2,,,65,0
221520,note_on,120,0,2,,,,,,,,,1,,,85,0
221520,set_tempo,240,1,0,,,,,,714286,,,,,,,
221640,note_on,0,0,2,,,,,,,,,1,,,97,49
221640,note_on,120,0,3,,,,,,,,,2,,,59,0
221640,note_on,0,0,3,,,,,,,,,2,,,49,49
221640,note_on,120,0,2,,,,,,,,,1,,,89,0
221760,note_on,0,0,2,,,,,,,,,1,,,89,49
221760,note_on,120,0,3,,,,,,,,,2,,,49,0
221760,set_tempo,240,1,0,,,,,,740741,,,,,,,
221760,note_on,120,0,2,,,,,,,,,1,,,97,0
221880,note_on,0,0,2,,,,,,,,,1,,,85,49
221880,note_on,120,0,3,,,,,,,,,2,,,68,49
221880,note_on,120,0,2,,,,,,,,,1,,,89,0
222000,set_tempo,240,1,0,,,,,,769231,,,,,,,
222000,note_on,0,0,2,,,,,,,,,1,,,80,49
222000,note_on,120,0,3,,,,,,,,,2,,,68,0
222000,note_on,0,0,1,,,,,,,,,0,,,80,62
222000,note_on,120,0,2,,,,,,,,,1,,,85,0
222000,note_on,0,0,3,,,,,,,,,2,,,65,49
222000,control_change,0,0,1,,,,,,,,,0,64,0,,
222000,note_on,720,0,1,,,,,,,,,0,,,82,0
222120,note_on,120,0,2,,,,,,,,,1,,,80,0
222120,note_on,0,0,3,,,,,,,,,2,,,59,49
222120,control_change,0,0,2,,,,,,,,,1,64,0,,
222120,control_change,0,0,3,,,,,,,,,2,64,0,,
222120,note_on,120,0,3,,,,,,,,,2,,,65,0
222120,note_on,0,0,2,,,,,,,,,1,,,85,49
222240,note_on,0,0,3,,,,,,,,,2,,,42,49
222240,note_on,240,0,1,,,,,,,,,0,,,80,0
222240,note_on,120,0,3,,,,,,,,,2,,,59,0
222240,key_signature,240,1,0,,,,,F#,,,,,,,,
222240,control_change,0,0,3,,,,,,,,,2,64,127,,
222240,note_on,120,0,2,,,,,,,,,1,,,85,0
222240,set_tempo,0,1,0,,,,,,625000,,,,,,,
222360,note_on,0,0,3,,,,,,,,,2,,,49,49
222360,note_on,120,0,3,,,,,,,,,2,,,42,0
222480,control_change,240,0,1,,,,,,,,,0,64,127,,
222480,note_on,0,0,1,,,,,,,,,0,,,58,49
222480,note_on,120,0,3,,,,,,,,,2,,,49,0
222600,note_on,0,0,1,,,,,,,,,0,,,66,49
222600,note_on,120,0,1,,,,,,,,,0,,,58,0
222720,note_on,120,0,1,,,,,,,,,0,,,66,0
222720,note_on,0,0,1,,,,,,,,,0,,,54,49
222840,note_on,120,0,1,,,,,,,,,0,,,54,0
222840,note_on,0,0,1,,,,,,,,,0,,,61,49
222960,note_on,0,0,1,,,,,,,,,0,,,70,49
222960,note_on,120,0,1,,,,,,,,,0,,,61,0
223080,note_on,120,0,1,,,,,,,,,0,,,70,0
223080,note_on,0,0,1,,,,,,,,,0,,,78,49
223200,note_on,120,0,1,,,,,,,,,0,,,78,0
223200,note_on,0,0,1,,,,,,,,,0,,,66,49
223320,note_on,0,0,1,,,,,,,,,0,,,73,49
223320,note_on,120,0,1,,,,,,,,,0,,,66,0
223440,note_on,0,0,1,,,,,,,,,0,,,82,62
223440,note_on,120,0,1,,,,,,,,,0,,,73,0
223560,note_on,0,0,1,,,,,,,,,0,,,90,62
223560,note_on,120,0,1,,,,,,,,,0,,,82,0
223680,note_on,120,0,1,,,,,,,,,0,,,90,0
223680,note_on,0,0,1,,,,,,,,,0,,,78,62
223800,note_on,0,0,1,,,,,,,,,0,,,85,62
223800,note_on,120,0,1,,,,,,,,,0,,,78,0
223920,note_on,120,0,1,,,,,,,,,0,,,85,0
223920,note_on,0,0,1,,,,,,,,,0,,,94,62
224040,note_on,120,0,1,,,,,,,,,0,,,94,0
224040,note_on,0,0,1,,,,,,,,,0,,,102,62
224160,note_on,120,0,1,,,,,,,,,0,,,102,0
224160,note_on,0,0,1,,,,,,,,,0,,,66,62
224280,note_on,120,0,1,,,,,,,,,0,,,66,0
224280,note_on,0,0,1,,,,,,,,,0,,,73,62
224400,note_on,120,0,1,,,,,,,,,0,,,73,0
224400,note_on,0,0,1,,,,,,,,,0,,,82,62
224520,note_on,120,0,1,,,,,,,,,0,,,82,0
224520,note_on,0,0,1,,,,,,,,,0,,,90,62
224640,note_on,120,0,1,,,,,,,,,0,,,90,0
224640,note_on,0,0,1,,,,,,,,,0,,,54,62
224760,note_on,120,0,1,,,,,,,,,0,,,54,0
224760,note_on,0,0,1,,,,,,,,,0,,,61,62
224880,note_on,120,0,1,,,,,,,,,0,,,61,0
224880,note_on,0,0,1,,,,,,,,,0,,,70,49
225000,note_on,0,0,1,,,,,,,,,0,,,78,49
225000,note_on,120,0,1,,,,,,,,,0,,,70,0
225120,note_on,120,0,1,,,,,,,,,0,,,78,0
225120,note_on,2640,0,3,,,,,,,,,2,,,42,49
225240,note_on,0,0,3,,,,,,,,,2,,,49,49
225240,note_on,120,0,3,,,,,,,,,2,,,42,0
225360,note_on,0,0,3,,,,,,,,,2,,,58,49
225360,note_on,120,0,3,,,,,,,,,2,,,49,0
225480,note_on,120,0,3,,,,,,,,,2,,,58,0
225480,note_on,0,0,3,,,,,,,,,2,,,66,49
225600,note_on,120,0,3,,,,,,,,,2,,,66,0
225600,note_on,480,0,1,,,,,,,,,0,,,71,75
225600,note_on,0,0,3,,,,,,,,,2,,,54,62
225720,note_on,0,0,3,,,,,,,,,2,,,61,62
225720,note_on,120,0,3,,,,,,,,,2,,,54,0
225840,note_on,120,0,3,,,,,,,,,2,,,61,0
225840,note_on,0,0,3,,,,,,,,,2,,,61,62
225960,note_on,0,0,1,,,,,,,,,0,,,70,75
225960,note_on,360,0,1,,,,,,,,,0,,,71,0
225960,note_on,120,0,3,,,,,,,,,2,,,61,0
225960,control_change,0,0,3,,,,,,,,,2,64,0,,
225960,control_change,0,0,1,,,,,,,,,0,64,0,,
225960,note_on,0,0,3,,,,,,,,,2,,,66,62
226080,note_on,0,0,3,,,,,,,,,2,,,42,62
226080,note_on,0,0,1,,,,,,,,,0,,,70,75
226080,control_change,0,0,1,,,,,,,,,0,64,127,,
226080,note_on,120,0,3,,,,,,,,,2,,,66,0
226080,control_change,0,0,3,,,,,,,,,2,64,127,,
226080,note_on,120,0,1,,,,,,,,,0,,,70,0
226200,note_on,0,0,3,,,,,,,,,2,,,51,62
226200,note_on,120,0,3,,,,,,,,,2,,,42,0
226320,note_on,0,0,3,,,,,,,,,2,,,60,62
226320,note_on,120,0,3,,,,,,,,,2,,,51,0
226440,note_on,120,0,3,,,,,,,,,2,,,60,0
226440,note_on,0,0,3,,,,,,,,,2,,,63,62
226560,note_on,0,0,3,,,,,,,,,2,,,54,62
226560,note_on,480,0,1,,,,,,,,,0,,,70,0
226560,note_on,0,0,1,,,,,,,,,0,,,69,75
226560,note_on,120,0,3,,,,,,,,,2,,,63,0
226656,note_on,96,0,1,,,,,,,,,0,,,69,0
226680,note_on,0,0,3,,,,,,,,,2,,,63,62
226680,note_on,120,0,3,,,,,,,,,2,,,54,0
226800,note_on,120,0,3,,,,,,,,,2,,,63,0
226800,note_on,0,0,3,,,,,,,,,2,,,60,62
226920,note_on,0,0,3,,,,,,,,,2,,,63,62
226920,note_on,120,0,3,,,,,,,,,2,,,60,0
227040,note_on,120,0,3,,,,,,,,,2,,,63,0
227040,note_on,384,0,1,,,,,,,,,0,,,69,75
227040,note_on,0,0,3,,,,,,,,,2,,,81,62
227136,note_on,96,0,1,,,,,,,,,0,,,69,0
227160,note_on,120,0,3,,,,,,,,,2,,,81,0
227160,note_on,0,0,3,,,,,,,,,2,,,75,62
227280,note_on,120,0,3,,,,,,,,,2,,,75,0
227280,note_on,0,0,3,,,,,,,,,2,,,60,62
227400,note_on,0,0,3,,,,,,,,,2,,,63,62
227400,note_on,120,0,3,,,,,,,,,2,,,60,0
227520,note_on,0,0,1,,,,,,,,,0,,,69,75
227520,note_on,0,0,3,,,,,,,,,2,,,54,62
227520,note_on,120,0,3,,,,,,,,,2,,,63,0
227520,control_change,384,0,1,,,,,,,,,0,64,0,,
227616,note_on,96,0,1,,,,,,,,,0,,,69,0
227640,note_on,120,0,3,,,,,,,,,2,,,54,0
227640,note_on,0,0,3,,,,,,,,,2,,,63,62
227760,note_on,120,0,3,,,,,,,,,2,,,63,0
227760,note_on,0,0,3,,,,,,,,,2,,,60,62
227880,note_on,0,0,3,,,,,,,,,2,,,63,62
227880,control_change,0,0,3,,,,,,,,,2,64,0,,
227880,note_on,120,0,3,,,,,,,,,2,,,60,0
228000,control_change,384,0,1,,,,,,,,,0,64,127,,
228000,note_on,0,0,3,,,,,,,,,2,,,42,62
228000,note_on,0,0,1,,,,,,,,,0,,,75,75
228000,control_change,0,0,3,,,,,,,,,2,64,127,,
228000,note_on,120,0,3,,,,,,,,,2,,,63,0
228120,note_on,0,0,3,,,,,,,,,2,,,49,62
228120,note_on,120,0,3,,,,,,,,,2,,,42,0
228240,note_on,0,0,3,,,,,,,,,2,,,58,62
228240,note_on,120,0,3,,,,,,,,,2,,,49,0
228360,note_on,0,0,3,,,,,,,,,2,,,66,62
228360,note_on,120,0,3,,,,,,,,,2,,,58,0
228480,note_on,480,0,1,,,,,,,,,0,,,75,0
228480,note_on,0,0,1,,,,,,,,,0,,,73,75
228480,note_on,120,0,3,,,,,,,,,2,,,66,0
228480,note_on,0,0,3,,,,,,,,,2,,,54,62
228600,note_on,0,0,3,,,,,,,,,2,,,61,62
228600,note_on,120,0,3,,,,,,,,,2,,,54,0
228720,note_on,120,0,3,,,,,,,,,2,,,61,0
228720,note_on,0,0,3,,,,,,,,,2,,,58,62
228840,note_on,0,0,3,,,,,,,,,2,,,66,62
228840,note_on,120,0,3,,,,,,,,,2,,,58,0
228960,note_on,120,0,3,,,,,,,,,2,,,66,0
228960,note_on,0,0,3,,,,,,,,,2,,,85,62
229080,note_on,120,0,3,,,,,,,,,2,,,85,0
229080,note_on,0,0,3,,,,,,,,,2,,,78,62
229200,note_on,0,0,3,,,,,,,,,2,,,58,62
229200,note_on,120,0,3,,,,,,,,,2,,,78,0
229320,note_on,120,0,3,,,,,,,,,2,,,58,0
229320,note_on,0,0,3,,,,,,,,,2,,,66,62
229440,note_on,960,0,1,,,,,,,,,0,,,73,0
229440,note_on,0,0,3,,,,,,,,,2,,,54,62
229440,note_on,0,0,1,,,,,,,,,0,,,71,75
229440,note_on,120,0,3,,,,,,,,,2,,,66,0
229560,note_on,120,0,3,,,,,,,,,2,,,54,0
229560,note_on,0,0,3,,,,,,,,,2,,,61,62
229680,note_on,120,0,3,,,,,,,,,2,,,61,0
229680,note_on,0,0,3,,,,,,,,,2,,,61,62
229800,note_on,120,0,3,,,,,,,,,2,,,61,0
229800,note_on,0,0,1,,,,,,,,,0,,,70,75
229800,control_change,0,0,1,,,,,,,,,0,64,0,,
229800,control_change,0,0,3,,,,,,,,,2,64,0,,
229800,note_on,360,0,1,,,,,,,,,0,,,71,0
229800,note_on,0,0,3,,,,,,,,,2,,,66,62
229920,note_on,0,0,3,,,,,,,,,2,,,42,62
229920,control_change,0,0,3,,,,,,,,,2,64,127,,
229920,control_change,0,0,1,,,,,,,,,0,64,127,,
229920,note_on,120,0,1,,,,,,,,,0,,,70,0
229920,note_on,120,0,3,,,,,,,,,2,,,66,0
229920,note_on,0,0,1,,,,,,,,,0,,,70,75
230040,note_on,0,0,3,,,,,,,,,2,,,51,62
230040,note_on,120,0,3,,,,,,,,,2,,,42,0
230160,note_on,0,0,3,,,,,,,,,2,,,60,62
230160,note_on,120,0,3,,,,,,,,,2,,,51,0
230280,note_on,0,0,3,,,,,,,,,2,,,63,62
230280,note_on,120,0,3,,,,,,,,,2,,,60,0
230400,note_on,120,0,3,,,,,,,,,2,,,63,0
230400,note_on,0,0,1,,,,,,,,,0,,,68,75
230400,note_on,0,0,3,,,,,,,,,2,,,80,62
230400,note_on,480,0,1,,,,,,,,,0,,,70,0
230520,note_on,120,0,3,,,,,,,,,2,,,80,0
230520,note_on,0,0,3,,,,,,,,,2,,,75,62
230520,note_on,0,0,3,,,,,,,,,2,,,72,62
230640,note_on,120,0,3,,,,,,,,,2,,,75,0
230640,note_on,0,0,3,,,,,,,,,2,,,60,62
230640,note_on,0,0,3,,,,,,,,,2,,,72,0
230760,note_on,0,0,3,,,,,,,,,2,,,63,62
230760,note_on,120,0,3,,,,,,,,,2,,,60,0
230880,note_on,0,0,3,,,,,,,,,2,,,42,62
230880,note_on,0,0,1,,,,,,,,,0,,,70,75
230880,note_on,120,0,3,,,,,,,,,2,,,63,0
230880,note_on,480,0,1,,,,,,,,,0,,,68,0
231000,note_on,0,0,3,,,,,,,,,2,,,53,62
231000,note_on,120,0,3,,,,,,,,,2,,,42,0
231000,note_on,0,0,3,,,,,,,,,2,,,50,62
231120,note_on,0,0,3,,,,,,,,,2,,,59,62
231120,note_on,0,0,3,,,,,,,,,2,,,50,0
231120,note_on,120,0,3,,,,,,,,,2,,,53,0
231240,note_on,120,0,3,,,,,,,,,2,,,59,0
231240,note_on,0,0,3,,,,,,,,,2,,,62,62
231360,note_on,0,0,3,,,,,,,,,2,,,83,62
231360,note_on,0,0,1,,,,,,,,,0,,,71,75
231360,note_on,120,0,3,,,,,,,,,2,,,62,0
231360,note_on,480,0,1,,,,,,,,,0,,,70,0
231480,note_on,120,0,3,,,,,,,,,2,,,83,0
231480,note_on,0,0,3,,,,,,,,,2,,,74,62
231480,note_on,0,0,3,,,,,,,,,2,,,77,62
231600,note_on,120,0,3,,,,,,,,,2,,,77,0
231600,note_on,0,0,3,,,,,,,,,2,,,59,62
231600,note_on,0,0,3,,,,,,,,,2,,,74,0
231720,note_on,0,0,1,,,,,,,,,0,,,65,75
231720,note_on,0,0,3,,,,,,,,,2,,,62,62
231720,note_on,360,0,1,,,,,,,,,0,,,71,0
231720,note_on,120,0,3,,,,,,,,,2,,,59,0
231720,control_change,0,0,1,,,,,,,,,0,64,0,,
231720,control_change,0,0,3,,,,,,,,,2,64,0,,
231840,control_change,0,0,1,,,,,,,,,0,64,127,,
231840,note_on,0,0,3,,,,,,,,,2,,,42,62
231840,note_on,120,0,3,,,,,,,,,2,,,62,0
231840,note_on,0,0,1,,,,,,,,,0,,,68,75
231840,note_on,120,0,1,,,,,,,,,0,,,65,0
231840,control_change,0,0,3,,,,,,,,,2,64,127,,
231960,note_on,0,0,3,,,,,,,,,2,,,49,62
231960,note_on,120,0,3,,,,,,,,,2,,,42,0
232080,note_on,120,0,3,,,,,,,,,2,,,49,0
232080,note_on,0,0,3,,,,,,,,,2,,,58,62
232200,note_on,120,0,3,,,,,,,,,2,,,58,0
232200,note_on,0,0,3,,,,,,,,,2,,,61,62
232320,note_on,0,0,1,,,,,,,,,0,,,66,75
232320,note_on,480,0,1,,,,,,,,,0,,,68,0
232320,note_on,120,0,3,,,,,,,,,2,,,61,0
232320,note_on,0,0,3,,,,,,,,,2,,,54,62
232440,note_on,120,0,3,,,,,,,,,2,,,54,0
232440,note_on,0,0,3,,,,,,,,,2,,,61,62
232560,note_on,120,0,3,,,,,,,,,2,,,61,0
232560,note_on,0,0,3,,,,,,,,,2,,,70,62
232680,note_on,0,0,3,,,,,,,,,2,,,78,62
232680,note_on,120,0,3,,,,,,,,,2,,,70,0
232800,note_on,0,0,3,,,,,,,,,2,,,66,62
232800,note_on,120,0,3,,,,,,,,,2,,,78,0
232920,note_on,0,0,3,,,,,,,,,2,,,73,62
232920,note_on,120,0,3,,,,,,,,,2,,,66,0
233040,note_on,120,0,3,,,,,,,,,2,,,73,0
233040,note_on,0,0,3,,,,,,,,,2,,,82,62
233160,note_on,0,0,3,,,,,,,,,2,,,90,62
233160,note_on,120,0,3,,,,,,,,,2,,,82,0
233280,note_on,960,0,1,,,,,,,,,0,,,66,0
233280,note_on,120,0,3,,,,,,,,,2,,,90,0
233280,note_on,0,0,1,,,,,,,,,0,,,71,75
233280,note_on,0,0,3,,,,,,,,,2,,,54,62
233400,note_on,0,0,3,,,,,,,,,2,,,61,62
233400,note_on,120,0,3,,,,,,,,,2,,,54,0
233520,note_on,0,0,3,,,,,,,,,2,,,61,62
233520,note_on,120,0,3,,,,,,,,,2,,,61,0
233640,note_on,0,0,1,,,,,,,,,0,,,70,75
233640,note_on,0,0,3,,,,,,,,,2,,,66,62
233640,note_on,360,0,1,,,,,,,,,0,,,71,0
233640,control_change,0,0,3,,,,,,,,,2,64,0,,
233640,note_on,120,0,3,,,,,,,,,2,,,61,0
233640,control_change,0,0,1,,,,,,,,,0,64,0,,
233760,note_on,0,0,3,,,,,,,,,2,,,42,62
233760,note_on,120,0,1,,,,,,,,,0,,,70,0
233760,control_change,0,0,1,,,,,,,,,0,64,127,,
233760,control_change,0,0,3,,,,,,,,,2,64,127,,
233760,note_on,0,0,1,,,,,,,,,0,,,70,75
233760,note_on,120,0,3,,,,,,,,,2,,,66,0
233880,note_on,0,0,3,,,,,,,,,2,,,51,62
233880,note_on,120,0,3,,,,,,,,,2,,,42,0
234000,note_on,0,0,3,,,,,,,,,2,,,60,62
234000,note_on,120,0,3,,,,,,,,,2,,,51,0
234120,note_on,0,0,3,,,,,,,,,2,,,63,62
234120,note_on,120,0,3,,,,,,,,,2,,,60,0
234240,note_on,480,0,1,,,,,,,,,0,,,70,0
234240,note_on,120,0,3,,,,,,,,,2,,,63,0
234240,note_on,0,0,3,,,,,,,,,2,,,54,62
234240,note_on,0,0,1,,,,,,,,,0,,,69,75
234336,note_on,96,0,1,,,,,,,,,0,,,69,0
234360,note_on,0,0,3,,,,,,,,,2,,,63,62
234360,note_on,120,0,3,,,,,,,,,2,,,54,0
234480,note_on,0,0,3,,,,,,,,,2,,,60,62
234480,note_on,120,0,3,,,,,,,,,2,,,63,0
234600,note_on,0,0,3,,,,,,,,,2,,,63,62
234600,note_on,120,0,3,,,,,,,,,2,,,60,0
234720,note_on,0,0,3,,,,,,,,,2,,,81,62
234720,note_on,384,0,1,,,,,,,,,0,,,69,75
234720,note_on,120,0,3,,,,,,,,,2,,,63,0
234816,note_on,96,0,1,,,,,,,,,0,,,69,0
234840,note_on,120,0,3,,,,,,,,,2,,,81,0
234840,note_on,0,0,3,,,,,,,,,2,,,75,62
234960,note_on,120,0,3,,,,,,,,,2,,,75,0
234960,note_on,0,0,3,,,,,,,,,2,,,60,62
235080,note_on,0,0,3,,,,,,,,,2,,,63,62
235080,note_on,120,0,3,,,,,,,,,2,,,60,0
235200,note_on,0,0,1,,,,,,,,,0,,,69,75
235200,note_on,0,0,3,,,,,,,,,2,,,54,62
235200,control_change,384,0,1,,,,,,,,,0,64,0,,
235200,note_on,120,0,3,,,,,,,,,2,,,63,0
235296,note_on,96,0,1,,,,,,,,,0,,,69,0
235320,note_on,120,0,3,,,,,,,,,2,,,54,0
235320,note_on,0,0,3,,,,,,,,,2,,,63,62
235440,note_on,0,0,3,,,,,,,,,2,,,60,62
235440,note_on,120,0,3,,,,,,,,,2,,,63,0
235560,control_change,0,0,3,,,,,,,,,2,64,0,,
235560,note_on,120,0,3,,,,,,,,,2,,,60,0
235560,note_on,0,0,3,,,,,,,,,2,,,63,62
235680,note_on,120,0,3,,,,,,,,,2,,,63,0
235680,note_on,0,0,1,,,,,,,,,0,,,75,75
235680,control_change,384,0,1,,,,,,,,,0,64,127,,
235680,note_on,0,0,3,,,,,,,,,2,,,42,62
235680,control_change,0,0,3,,,,,,,,,2,64,127,,
235800,note_on,0,0,3,,,,,,,,,2,,,58,62
235800,note_on,120,0,3,,,,,,,,,2,,,42,0
235920,note_on,120,0,3,,,,,,,,,2,,,58,0
235920,note_on,0,0,3,,,,,,,,,2,,,61,62
236040,note_on,120,0,3,,,,,,,,,2,,,61,0
236040,note_on,0,0,3,,,,,,,,,2,,,66,62
236160,note_on,120,0,3,,,,,,,,,2,,,66,0
236160,note_on,0,0,1,,,,,,,,,0,,,73,75
236160,note_on,0,0,3,,,,,,,,,2,,,54,62
236160,note_on,480,0,1,,,,,,,,,0,,,75,0
236160,note_on,0,0,1,,,,,,,,,0,,,70,75
236280,note_on,0,0,3,,,,,,,,,2,,,61,62
236280,note_on,120,0,3,,,,,,,,,2,,,54,0
236400,note_on,0,0,3,,,,,,,,,2,,,61,62
236400,note_on,120,0,3,,,,,,,,,2,,,61,0
236520,note_on,120,0,3,,,,,,,,,2,,,61,0
236520,note_on,0,0,3,,,,,,,,,2,,,66,62
236640,note_on,0,0,3,,,,,,,,,2,,,85,62
236640,note_on,120,0,3,,,,,,,,,2,,,66,0
236760,note_on,120,0,3,,,,,,,,,2,,,85,0
236760,note_on,0,0,3,,,,,,,,,2,,,78,62
236880,note_on,120,0,3,,,,,,,,,2,,,78,0
236880,note_on,0,0,3,,,,,,,,,2,,,61,62
237000,note_on,0,0,3,,,,,,,,,2,,,66,62
237000,note_on,120,0,3,,,,,,,,,2,,,61,0
237120,note_on,120,0,3,,,,,,,,,2,,,66,0
237120,note_on,960,0,1,,,,,,,,,0,,,73,0
237120,note_on,0,0,1,,,,,,,,,0,,,70,0
237120,note_on,0,0,1,,,,,,,,,0,,,71,101
237120,note_on,0,0,3,,,,,,,,,2,,,54,62
237120,note_on,0,0,1,,,,,,,,,0,,,75,101
237240,note_on,120,0,3,,,,,,,,,2,,,54,0
237240,note_on,0,0,3,,,,,,,,,2,,,61,62
237360,note_on,120,0,3,,,,,,,,,2,,,61,0
237360,note_on,0,0,3,,,,,,,,,2,,,61,62
237480,note_on,120,0,3,,,,,,,,,2,,,61,0
237480,note_on,0,0,1,,,,,,,,,0,,,71,0
237480,note_on,0,0,1,,,,,,,,,0,,,73,75
237480,note_on,0,0,3,,,,,,,,,2,,,66,62
237480,note_on,0,0,1,,,,,,,,,0,,,70,75
237480,control_change,0,0,3,,,,,,,,,2,64,0,,
237480,control_change,0,0,1,,,,,,,,,0,64,0,,
237480,note_on,360,0,1,,,,,,,,,0,,,75,0
237600,note_on,0,0,1,,,,,,,,,0,,,70,0
237600,note_on,0,0,1,,,,,,,,,0,,,73,75
237600,note_on,0,0,3,,,,,,,,,2,,,42,62
237600,note_on,120,0,3,,,,,,,,,2,,,66,0
237600,control_change,0,0,1,,,,,,,,,0,64,127,,
237600,note_on,120,0,1,,,,,,,,,0,,,73,0
237600,note_on,0,0,1,,,,,,,,,0,,,70,75
237600,control_change,0,0,3,,,,,,,,,2,64,127,,
237720,note_on,0,0,3,,,,,,,,,2,,,51,62
237720,note_on,120,0,3,,,,,,,,,2,,,42,0
237840,note_on,120,0,3,,,,,,,,,2,,,51,0
237840,note_on,0,0,3,,,,,,,,,2,,,60,62
237960,note_on,120,0,3,,,,,,,,,2,,,60,0
237960,note_on,0,0,3,,,,,,,,,2,,,63,62
238080,note_on,480,0,1,,,,,,,,,0,,,73,0
238080,note_on,0,0,3,,,,,,,,,2,,,81,62
238080,note_on,0,0,3,,,,,,,,,2,,,84,62
238080,note_on,120,0,3,,,,,,,,,2,,,63,0
238080,note_on,0,0,1,,,,,,,,,0,,,70,0
238080,note_on,0,0,1,,,,,,,,,0,,,69,75
238080,note_on,0,0,1,,,,,,,,,0,,,72,75
238176,note_on,96,0,1,,,,,,,,,0,,,72,0
238176,note_on,0,0,1,,,,,,,,,0,,,69,0
238200,note_on,120,0,3,,,,,,,,,2,,,84,0
238200,note_on,0,0,3,,,,,,,,,2,,,75,62
238200,note_on,0,0,3,,,,,,,,,2,,,81,0
238320,note_on,0,0,3,,,,,,,,,2,,,60,62
238320,note_on,120,0,3,,,,,,,,,2,,,75,0
238440,note_on,0,0,3,,,,,,,,,2,,,63,62
238440,note_on,120,0,3,,,,,,,,,2,,,60,0
238560,note_on,0,0,3,,,,,,,,,2,,,41,62
238560,note_on,0,0,1,,,,,,,,,0,,,72,75
238560,note_on,384,0,1,,,,,,,,,0,,,69,75
238560,note_on,120,0,3,,,,,,,,,2,,,63,0
238656,note_on,96,0,1,,,,,,,,,0,,,72,0
238656,note_on,0,0,1,,,,,,,,,0,,,69,0
238680,note_on,120,0,3,,,,,,,,,2,,,41,0
238680,note_on,0,0,3,,,,,,,,,2,,,57,62
238800,note_on,0,0,3,,,,,,,,,2,,,60,62
238800,note_on,120,0,3,,,,,,,,,2,,,57,0
238920,note_on,0,0,3,,,,,,,,,2,,,65,62
238920,note_on,120,0,3,,,,,,,,,2,,,60,0
239040,note_on,0,0,1,,,,,,,,,0,,,72,75
239040,note_on,0,0,1,,,,,,,,,0,,,69,75
239040,note_on,0,0,3,,,,,,,,,2,,,39,62
239040,control_change,384,0,1,,,,,,,,,0,64,0,,
239040,note_on,120,0,3,,,,,,,,,2,,,65,0
239136,note_on,96,0,1,,,,,,,,,0,,,72,0
239136,note_on,0,0,1,,,,,,,,,0,,,69,0
239160,note_on,120,0,3,,,,,,,,,2,,,39,0
239160,note_on,0,0,3,,,,,,,,,2,,,57,62
239280,note_on,0,0,3,,,,,,,,,2,,,60,62
239280,note_on,120,0,3,,,,,,,,,2,,,57,0
239400,note_on,0,0,3,,,,,,,,,2,,,66,62
239400,control_change,0,0,3,,,,,,,,,2,64,0,,
239400,note_on,120,0,3,,,,,,,,,2,,,60,0
239520,note_on,0,0,3,,,,,,,,,2,,,37,62
239520,note_on,0,0,1,,,,,,,,,0,,,78,101
239520,note_on,0,0,1,,,,,,,,,0,,,75,101
239520,note_on,120,0,3,,,,,,,,,2,,,66,0
239520,control_change,384,0,1,,,,,,,,,0,64,127,,
239520,control_change,0,0,3,,,,,,,,,2,64,127,,
239640,note_on,0,0,3,,,,,,,,,2,,,58,62
239640,note_on,120,0,3,,,,,,,,,2,,,37,0
239760,note_on,0,0,3,,,,,,,,,2,,,65,62
239760,note_on,120,0,3,,,,,,,,,2,,,58,0
239880,note_on,120,0,3,,,,,,,,,2,,,65,0
239880,note_on,0,0,3,,,,,,,,,2,,,70,62
240000,note_on,0,0,1,,,,,,,,,0,,,73,75
240000,note_on,0,0,1,,,,,,,,,0,,,75,0
240000,note_on,0,0,1,,,,,,,,,0,,,77,75
240000,note_on,480,0,1,,,,,,,,,0,,,78,0
240000,note_on,120,0,3,,,,,,,,,2,,,70,0
240000,note_on,0,0,3,,,,,,,,,2,,,85,62
240000,note_on,0,0,3,,,,,,,,,2,,,89,62
240120,note_on,0,0,3,,,,,,,,,2,,,82,62
240120,note_on,0,0,3,,,,,,,,,2,,,85,0
240120,note_on,120,0,3,,,,,,,,,2,,,89,0
240240,note_on,0,0,3,,,,,,,,,2,,,65,62
240240,note_on,120,0,3,,,,,,,,,2,,,82,0
240360,note_on,120,0,3,,,,,,,,,2,,,65,0
240360,note_on,0,0,3,,,,,,,,,2,,,70,62
240480,note_on,120,0,3,,,,,,,,,2,,,70,0
240480,note_on,0,0,3,,,,,,,,,2,,,39,62
240600,note_on,0,0,3,,,,,,,,,2,,,54,62
240600,note_on,120,0,3,,,,,,,,,2,,,39,0
240720,note_on,0,0,3,,,,,,,,,2,,,63,62
240720,note_on,120,0,3,,,,,,,,,2,,,54,0
240720,note_on,0,0,1,,,,,,,,,0,,,71,75
240720,note_on,720,0,1,,,,,,,,,0,,,77,0
240720,note_on,0,0,1,,,,,,,,,0,,,73,0
240720,note_on,0,0,1,,,,,,,,,0,,,75,75
240840,note_on,120,0,3,,,,,,,,,2,,,63,0
240840,note_on,0,0,3,,,,,,,,,2,,,66,62
240900,note_on,180,0,1,,,,,,,,,0,,,75,75
240900,note_on,0,0,1,,,,,,,,,0,,,78,75
240960,note_on,0,0,3,,,,,,,,,2,,,83,62
240960,note_on,0,0,1,,,,,,,,,0,,,71,0
240960,note_on,120,0,3,,,,,,,,,2,,,66,0
240960,note_on,0,0,1,,,,,,,,,0,,,77,75
240960,note_on,60,0,1,,,,,,,,,0,,,78,0
240960,note_on,0,0,1,,,,,,,,,0,,,75,0
240960,note_on,0,0,1,,,,,,,,,0,,,75,0
240960,note_on,0,0,3,,,,,,,,,2,,,87,62
240960,note_on,0,0,1,,,,,,,,,0,,,73,75
241080,note_on,120,0,3,,,,,,,,,2,,,87,0
241080,note_on,0,0,3,,,,,,,,,2,,,83,0
241080,note_on,0,0,3,,,,,,,,,2,,,78,62
241200,control_change,0,0,1,,,,,,,,,0,64,0,,
241200,note_on,0,0,3,,,,,,,,,2,,,63,62
241200,note_on,240,0,1,,,,,,,,,0,,,77,0
241200,note_on,120,0,3,,,,,,,,,2,,,78,0
241200,note_on,0,0,1,,,,,,,,,0,,,71,75
241200,note_on,0,0,1,,,,,,,,,0,,,73,0
241200,note_on,0,0,1,,,,,,,,,0,,,75,75
241320,control_change,0,0,3,,,,,,,,,2,64,0,,
241320,note_on,120,0,3,,,,,,,,,2,,,63,0
241320,note_on,0,0,3,,,,,,,,,2,,,66,62
241440,note_on,240,0,1,,,,,,,,,0,,,75,0
241440,note_on,0,0,1,,,,,,,,,0,,,71,0
241440,note_on,0,0,1,,,,,,,,,0,,,71,75
241440,note_on,0,0,1,,,,,,,,,0,,,75,75
241440,control_change,0,0,1,,,,,,,,,0,64,127,,
241440,control_change,0,0,3,,,,,,,,,2,64,127,,
241440,note_on,0,0,3,,,,,,,,,2,,,41,62
241440,note_on,120,0,3,,,,,,,,,2,,,66,0
241560,note_on,0,0,3,,,,,,,,,2,,,53,62
241560,note_on,120,0,3,,,,,,,,,2,,,41,0
241680,note_on,120,0,3,,,,,,,,,2,,,53,0
241680,note_on,0,0,3,,,,,,,,,2,,,61,62
241800,note_on,0,0,3,,,,,,,,,2,,,65,62
241800,note_on,120,0,3,,,,,,,,,2,,,61,0
241920,note_on,0,0,3,,,,,,,,,2,,,82,62
241920,note_on,0,0,3,,,,,,,,,2,,,85,62
241920,note_on,0,0,1,,,,,,,,,0,,,70,75
241920,note_on,0,0,1,,,,,,,,,0,,,73,75
241920,note_on,120,0,3,,,,,,,,,2,,,65,0
241920,note_on,480,0,1,,,,,,,,,0,,,75,0
241920,note_on,0,0,1,,,,,,,,,0,,,71,0
242040,note_on,0,0,3,,,,,,,,,2,,,82,0
242040,note_on,0,0,3,,,,,,,,,2,,,77,62
242040,note_on,120,0,3,,,,,,,,,2,,,85,0
242160,note_on,120,0,3,,,,,,,,,2,,,77,0
242160,note_on,0,0,3,,,,,,,,,2,,,61,62
242280,note_on,0,0,3,,,,,,,,,2,,,65,62
242280,note_on,120,0,3,,,,,,,,,2,,,61,0
242400,note_on,120,0,3,,,,,,,,,2,,,65,0
242400,note_on,0,0,3,,,,,,,,,2,,,39,62
242520,note_on,120,0,3,,,,,,,,,2,,,39,0
242520,note_on,0,0,3,,,,,,,,,2,,,53,62
242640,note_on,120,0,3,,,,,,,,,2,,,53,0
242640,note_on,720,0,1,,,,,,,,,0,,,73,0
242640,note_on,0,0,3,,,,,,,,,2,,,60,62
242640,note_on,0,0,1,,,,,,,,,0,,,69,62
242640,note_on,0,0,1,,,,,,,,,0,,,70,0
242640,note_on,0,0,1,,,,,,,,,0,,,72,62
242760,note_on,120,0,3,,,,,,,,,2,,,60,0
242760,note_on,0,0,3,,,,,,,,,2,,,65,62
242880,note_on,120,0,3,,,,,,,,,2,,,65,0
242880,note_on,240,0,1,,,,,,,,,0,,,72,0
242880,note_on,0,0,3,,,,,,,,,2,,,84,62
242880,note_on,0,0,1,,,,,,,,,0,,,70,62
242880,note_on,0,0,1,,,,,,,,,0,,,73,62
242880,note_on,0,0,1,,,,,,,,,0,,,69,0
242880,note_on,0,0,3,,,,,,,,,2,,,81,62
243000,note_on,120,0,3,,,,,,,,,2,,,84,0
243000,note_on,0,0,3,,,,,,,,,2,,,81,0
243000,note_on,0,0,3,,,,,,,,,2,,,77,62
243120,note_on,240,0,1,,,,,,,,,0,,,73,0
243120,note_on,0,0,3,,,,,,,,,2,,,65,62
243120,control_change,0,0,1,,,,,,,,,0,64,0,,
243120,note_on,120,0,3,,,,,,,,,2,,,77,0
243120,note_on,0,0,1,,,,,,,,,0,,,75,75
243120,note_on,0,0,1,,,,,,,,,0,,,72,75
243120,note_on,0,0,1,,,,,,,,,0,,,70,0
243240,note_on,120,0,3,,,,,,,,,2,,,65,0
243240,note_on,0,0,3,,,,,,,,,2,,,69,62
243240,control_change,0,0,3,,,,,,,,,2,64,0,,
243360,control_change,0,0,1,,,,,,,,,0,64,127,,
243360,control_change,0,0,3,,,,,,,,,2,64,127,,
243360,note_on,240,0,1,,,,,,,,,0,,,75,0
243360,note_on,120,0,3,,,,,,,,,2,,,69,0
243360,note_on,0,0,3,,,,,,,,,2,,,37,75
243360,note_on,0,0,1,,,,,,,,,0,,,78,88
243360,note_on,0,0,1,,,,,,,,,0,,,75,88
243360,note_on,0,0,1,,,,,,,,,0,,,72,0
243480,note_on,0,0,3,,,,,,,,,2,,,49,75
243480,note_on,120,0,3,,,,,,,,,2,,,37,0
243600,note_on,120,0,3,,,,,,,,,2,,,49,0
243600,note_on,240,0,1,,,,,,,,,0,,,78,0
243600,note_on,0,0,1,,,,,,,,,0,,,77,88
243600,note_on,0,0,3,,,,,,,,,2,,,65,75
243600,note_on,0,0,1,,,,,,,,,0,,,75,0
243600,note_on,0,0,1,,,,,,,,,0,,,73,88
243720,note_on,0,0,3,,,,,,,,,2,,,70,75
243720,note_on,120,0,3,,,,,,,,,2,,,65,0
243840,note_on,0,0,3,,,,,,,,,2,,,89,75
243840,note_on,0,0,3,,,,,,,,,2,,,92,75
243840,note_on,120,0,3,,,,,,,,,2,,,70,0
243840,note_on,0,0,1,,,,,,,,,0,,,73,0
243840,note_on,0,0,1,,,,,,,,,0,,,77,114
243840,note_on,0,0,1,,,,,,,,,0,,,80,114
243840,note_on,240,0,1,,,,,,,,,0,,,77,0
243960,note_on,0,0,3,,,,,,,,,2,,,82,75
243960,note_on,0,0,3,,,,,,,,,2,,,85,75
243960,note_on,0,0,3,,,,,,,,,2,,,89,0
243960,note_on,120,0,3,,,,,,,,,2,,,92,0
244080,note_on,0,0,3,,,,,,,,,2,,,65,75
244080,note_on,0,0,3,,,,,,,,,2,,,82,0
244080,note_on,120,0,3,,,,,,,,,2,,,85,0
244200,note_on,120,0,3,,,,,,,,,2,,,65,0
244200,note_on,0,0,3,,,,,,,,,2,,,70,75
244320,note_on,120,0,3,,,,,,,,,2,,,70,0
244320,note_on,0,0,3,,,,,,,,,2,,,39,75
244440,note_on,120,0,3,,,,,,,,,2,,,39,0
244440,note_on,0,0,3,,,,,,,,,2,,,54,75
244479,note_on,639,0,1,,,,,,,,,0,,,80,0
244479,note_on,0,0,1,,,,,,,,,0,,,75,88
244479,note_on,0,0,1,,,,,,,,,0,,,78,88
244479,note_on,0,0,1,,,,,,,,,0,,,77,0
244560,note_on,120,0,3,,,,,,,,,2,,,54,0
244640,note_on,0,0,1,,,,,,,,,0,,,77,88
244640,note_on,0,0,1,,,,,,,,,0,,,73,88
244640,note_on,0,0,1,,,,,,,,,0,,,75,0
244640,note_on,161,0,1,,,,,,,,,0,,,78,0
244800,note_on,0,0,1,,,,,,,,,0,,,75,88
244800,note_on,240,0,3,,,,,,,,,2,,,87,75
244800,note_on,160,0,1,,,,,,,,,0,,,77,0
244800,note_on,0,0,3,,,,,,,,,2,,,90,75
244800,note_on,0,0,1,,,,,,,,,0,,,78,88
244800,note_on,0,0,1,,,,,,,,,0,,,73,0
244920,note_on,0,0,3,,,,,,,,,2,,,87,0
244920,note_on,0,0,3,,,,,,,,,2,,,83,75
244920,note_on,0,0,3,,,,,,,,,2,,,78,75
244920,note_on,120,0,3,,,,,,,,,2,,,90,0
244959,note_on,159,0,1,,,,,,,,,0,,,78,0
244959,note_on,0,0,1,,,,,,,,,0,,,77,88
244959,note_on,0,0,1,,,,,,,,,0,,,75,0
244959,note_on,0,0,1,,,,,,,,,0,,,73,88
245040,note_on,0,0,3,,,,,,,,,2,,,78,0
245040,note_on,0,0,3,,,,,,,,,2,,,63,75
245040,note_on,120,0,3,,,,,,,,,2,,,83,0
245040,set_tempo,22800,1,0,,,,,,645161,,,,,,,
245120,note_on,0,0,1,,,,,,,,,0,,,71,88
245120,note_on,0,0,1,,,,,,,,,0,,,73,0
245120,note_on,161,0,1,,,,,,,,,0,,,77,0
245120,note_on,0,0,1,,,,,,,,,0,,,75,88
245120,control_change,0,0,1,,,,,,,,,0,64,0,,
245160,control_change,0,0,3,,,,,,,,,2,64,0,,
245160,note_on,120,0,3,,,,,,,,,2,,,63,0
245160,note_on,0,0,3,,,,,,,,,2,,,66,75
245280,note_on,120,0,3,,,,,,,,,2,,,66,0
245280,note_on,160,0,1,,,,,,,,,0,,,75,0
245280,note_on,0,0,1,,,,,,,,,0,,,71,0
245280,note_on,0,0,1,,,,,,,,,0,,,71,88
245280,control_change,0,0,3,,,,,,,,,2,64,127,,
245280,set_tempo,0,1,0,,,,,,666667,,,,,,,
245280,note_on,0,0,1,,,,,,,,,0,,,75,88
245280,time_signature,240,1,0,5,4,24,8,,,,,,,,,
245280,note_on,0,0,3,,,,,,,,,2,,,41,75
245280,control_change,0,0,1,,,,,,,,,0,64,127,,
245400,note_on,0,0,3,,,,,,,,,2,,,53,75
245400,note_on,120,0,3,,,,,,,,,2,,,41,0
245520,note_on,0,0,1,,,,,,,,,0,,,70,88
245520,note_on,0,0,1,,,,,,,,,0,,,71,0
245520,set_tempo,240,1,0,,,,,,689655,,,,,,,
245520,note_on,0,0,3,,,,,,,,,2,,,61,75
245520,note_on,120,0,3,,,,,,,,,2,,,53,0
245520,note_on,0,0,1,,,,,,,,,0,,,73,88
245520,note_on,240,0,1,,,,,,,,,0,,,75,0
245640,note_on,120,0,3,,,,,,,,,2,,,61,0
245640,note_on,0,0,3,,,,,,,,,2,,,65,75
245760,note_on,120,0,3,,,,,,,,,2,,,65,0
245760,note_on,0,0,3,,,,,,,,,2,,,82,75
245760,note_on,0,0,1,,,,,,,,,0,,,72,88
245760,note_on,240,0,1,,,,,,,,,0,,,73,0
245760,note_on,0,0,3,,,,,,,,,2,,,85,75
245760,note_on,0,0,1,,,,,,,,,0,,,70,0
245760,note_on,0,0,1,,,,,,,,,0,,,69,88
245760,set_tempo,240,1,0,,,,,,722892,,,,,,,
245880,note_on,120,0,3,,,,,,,,,2,,,85,0
245880,note_on,0,0,3,,,,,,,,,2,,,77,75
245880,note_on,0,0,3,,,,,,,,,2,,,82,0
246000,note_on,0,0,3,,,,,,,,,2,,,61,75
246000,note_on,120,0,3,,,,,,,,,2,,,77,0
246000,note_on,0,0,1,,,,,,,,,0,,,70,88
246000,note_on,240,0,1,,,,,,,,,0,,,72,0
246000,note_on,0,0,1,,,,,,,,,0,,,73,88
246000,set_tempo,240,1,0,,,,,,750000,,,,,,,
246000,note_on,0,0,1,,,,,,,,,0,,,69,0
246120,note_on,0,0,3,,,,,,,,,2,,,65,75
246120,note_on,120,0,3,,,,,,,,,2,,,61,0
246160,note_on,160,0,1,,,,,,,,,0,,,63,88
246200,note_on,40,0,1,,,,,,,,,0,,,69,88
246224,note_on,24,0,1,,,,,,,,,0,,,63,0
246240,note_on,16,0,1,,,,,,,,,0,,,70,0
246240,note_on,0,0,3,,,,,,,,,2,,,41,75
246240,note_on,0,0,1,,,,,,,,,0,,,73,0
246240,set_tempo,240,1,0,,,,,,779221,,,,,,,
246240,note_on,0,0,1,,,,,,,,,0,,,77,88
246240,note_on,120,0,3,,,,,,,,,2,,,65,0
246255,note_on,15,0,1,,,,,,,,,0,,,69,0
246287,note_on,32,0,1,,,,,,,,,0,,,77,0
246360,note_on,120,0,3,,,,,,,,,2,,,41,0
246360,note_on,0,0,3,,,,,,,,,2,,,51,75
246480,note_on,193,0,1,,,,,,,,,0,,,63,88
246480,note_on,0,0,1,,,,,,,,,0,,,72,88
246480,note_on,0,0,3,,,,,,,,,2,,,57,75
246480,note_on,120,0,3,,,,,,,,,2,,,51,0
246480,set_tempo,240,1,0,,,,,,810811,,,,,,,
246600,note_on,120,0,3,,,,,,,,,2,,,57,0
246600,note_on,0,0,3,,,,,,,,,2,,,63,75
246720,note_on,0,0,3,,,,,,,,,2,,,69,75
246720,note_on,120,0,3,,,,,,,,,2,,,63,0
246720,note_on,0,0,1,,,,,,,,,0,,,66,114
246720,note_on,0,0,1,,,,,,,,,0,,,75,114
246720,note_on,240,0,1,,,,,,,,,0,,,72,0
246720,note_on,0,0,1,,,,,,,,,0,,,63,0
246720,set_tempo,240,1,0,,,,,,857143,,,,,,,
246840,note_on,0,0,3,,,,,,,,,2,,,77,75
246840,note_on,120,0,3,,,,,,,,,2,,,69,0
246960,note_on,0,0,3,,,,,,,,,2,,,81,75
246960,note_on,120,0,3,,,,,,,,,2,,,77,0
247080,note_on,0,0,3,,,,,,,,,2,,,89,75
247080,note_on,120,0,3,,,,,,,,,2,,,81,0
247200,control_change,0,0,3,,,,,,,,,2,64,0,,
247200,note_on,120,0,3,,,,,,,,,2,,,89,0
247620,note_on,0,0,1,,,,,,,,,0,,,65,88
247620,note_on,0,0,1,,,,,,,,,0,,,66,0
247620,note_on,900,0,1,,,,,,,,,0,,,75,0
247620,control_change,0,0,1,,,,,,,,,0,64,0,,
247620,note_on,0,0,1,,,,,,,,,0,,,73,88
247680,set_tempo,0,1,0,,,,,,500000,,,,,,,
247680,note_on,0,0,3,,,,,,,,,2,,,34,88
247680,note_on,0,0,1,,,,,,,,,0,,,65,0
247680,control_change,480,0,3,,,,,,,,,2,64,127,,
247680,key_signature,0,1,0,,,,,Bb,,,,,,,,
247680,time_signature,960,1,0,4,4,24,8,,,,,,,,,
247680,note_on,60,0,1,,,,,,,,,0,,,73,0
247800,note_on,120,0,3,,,,,,,,,2,,,34,0
247800,note_on,0,0,3,,,,,,,,,2,,,53,88
247920,note_on,0,0,1,,,,,,,,,0,,,65,75
247920,note_on,0,0,1,,,,,,,,,0,,,62,75
247920,note_on,120,0,3,,,,,,,,,2,,,53,0
247920,control_change,240,0,1,,,,,,,,,0,64,127,,
248040,note_on,120,0,1,,,,,,,,,0,,,65,0
248040,note_on,0,0,1,,,,,,,,,0,,,70,75
248040,note_on,0,0,1,,,,,,,,,0,,,62,0
248160,note_on,0,0,1,,,,,,,,,0,,,53,75
248160,note_on,120,0,1,,,,,,,,,0,,,70,0
248280,note_on,0,0,1,,,,,,,,,0,,,58,75
248280,note_on,120,0,1,,,,,,,,,0,,,53,0
248400,note_on,120,0,1,,,,,,,,,0,,,58,0
248400,note_on,0,0,1,,,,,,,,,0,,,65,75
248400,note_on,0,0,1,,,,,,,,,0,,,62,75
248520,note_on,0,0,1,,,,,,,,,0,,,62,0
248520,note_on,120,0,1,,,,,,,,,0,,,65,0
248520,note_on,0,0,1,,,,,,,,,0,,,70,75
248640,note_on,120,0,1,,,,,,,,,0,,,70,0
248640,note_on,0,0,1,,,,,,,,,0,,,65,75
248760,note_on,0,0,1,,,,,,,,,0,,,70,75
248760,note_on,120,0,1,,,,,,,,,0,,,65,0
248880,note_on,0,0,1,,,,,,,,,0,,,74,88
248880,note_on,120,0,1,,,,,,,,,0,,,70,0
248880,note_on,0,0,1,,,,,,,,,0,,,77,88
249000,note_on,0,0,1,,,,,,,,,0,,,82,88
249000,note_on,120,0,1,,,,,,,,,0,,,77,0
249000,note_on,0,0,1,,,,,,,,,0,,,74,0
249120,note_on,120,0,1,,,,,,,,,0,,,82,0
249120,note_on,0,0,1,,,,,,,,,0,,,77,88
249240,note_on,0,0,1,,,,,,,,,0,,,82,88
249240,note_on,120,0,1,,,,,,,,,0,,,77,0
249360,note_on,120,0,1,,,,,,,,,0,,,82,0
249360,note_on,0,0,1,,,,,,,,,0,,,89,88
249360,note_on,0,0,1,,,,,,,,,0,,,86,88
249480,note_on,120,0,1,,,,,,,,,0,,,89,0
249480,note_on,0,0,1,,,,,,,,,0,,,94,88
249480,note_on,0,0,1,,,,,,,,,0,,,86,0
249600,note_on,120,0,1,,,,,,,,,0,,,94,0
249600,note_on,0,0,2,,,,,,,,,1,,,65,88
249600,control_change,27360,0,2,,,,,,,,,1,64,127,,
249720,note_on,0,0,2,,,,,,,,,1,,,70,88
249720,note_on,120,0,2,,,,,,,,,1,,,65,0
249840,note_on,0,0,2,,,,,,,,,1,,,77,88
249840,note_on,0,0,2,,,,,,,,,1,,,74,88
249840,note_on,120,0,2,,,,,,,,,1,,,70,0
249960,note_on,0,0,2,,,,,,,,,1,,,74,0
249960,note_on,0,0,2,,,,,,,,,1,,,82,88
249960,note_on,120,0,2,,,,,,,,,1,,,77,0
250080,note_on,0,0,2,,,,,,,,,1,,,53,88
250080,note_on,120,0,2,,,,,,,,,1,,,82,0
250200,note_on,120,0,2,,,,,,,,,1,,,53,0
250200,note_on,0,0,2,,,,,,,,,1,,,58,88
250320,note_on,0,0,2,,,,,,,,,1,,,62,88
250320,note_on,0,0,2,,,,,,,,,1,,,65,88
250320,note_on,120,0,2,,,,,,,,,1,,,58,0
250440,note_on,120,0,2,,,,,,,,,1,,,65,0
250440,note_on,0,0,2,,,,,,,,,1,,,70,88
250440,note_on,0,0,2,,,,,,,,,1,,,62,0
250560,note_on,120,0,2,,,,,,,,,1,,,70,0
250560,note_on,2640,0,3,,,,,,,,,2,,,46,75
250680,note_on,0,0,3,,,,,,,,,2,,,53,75
250680,note_on,120,0,3,,,,,,,,,2,,,46,0
250680,note_on,0,0,3,,,,,,,,,2,,,58,75
250800,note_on,0,0,3,,,,,,,,,2,,,65,75
250800,note_on,0,0,3,,,,,,,,,2,,,62,75
250800,note_on,120,0,3,,,,,,,,,2,,,58,0
250800,note_on,0,0,3,,,,,,,,,2,,,53,0
250920,note_on,120,0,3,,,,,,,,,2,,,65,0
250920,note_on,0,0,3,,,,,,,,,2,,,70,75
250920,note_on,0,0,3,,,,,,,,,2,,,62,0
251040,note_on,0,0,1,,,,,,,,,0,,,87,114
251040,note_on,1440,0,1,,,,,,,,,0,,,75,114
251040,note_on,120,0,3,,,,,,,,,2,,,70,0
251040,note_on,0,0,3,,,,,,,,,2,,,41,75
251040,control_change,480,0,2,,,,,,,,,1,64,0,,
251160,note_on,0,0,3,,,,,,,,,2,,,53,75
251160,note_on,120,0,3,,,,,,,,,2,,,41,0
251160,note_on,0,0,3,,,,,,,,,2,,,58,75
251280,note_on,0,0,3,,,,,,,,,2,,,65,75
251280,note_on,120,0,3,,,,,,,,,2,,,58,0
251280,note_on,0,0,3,,,,,,,,,2,,,53,0
251280,note_on,0,0,3,,,,,,,,,2,,,62,75
251400,note_on,0,0,3,,,,,,,,,2,,,62,0
251400,note_on,0,0,3,,,,,,,,,2,,,70,75
251400,control_change,0,0,3,,,,,,,,,2,64,0,,
251400,note_on,120,0,3,,,,,,,,,2,,,65,0
251460,note_on,0,0,1,,,,,,,,,0,,,86,88
251460,note_on,0,0,1,,,,,,,,,0,,,75,0
251460,note_on,0,0,1,,,,,,,,,0,,,74,88
251460,control_change,0,0,1,,,,,,,,,0,64,0,,
251460,note_on,420,0,1,,,,,,,,,0,,,87,0
251520,note_on,60,0,1,,,,,,,,,0,,,86,0
251520,note_on,0,0,1,,,,,,,,,0,,,74,0
251520,note_on,0,0,3,,,,,,,,,2,,,34,75
251520,note_on,0,0,1,,,,,,,,,0,,,74,88
251520,note_on,0,0,1,,,,,,,,,0,,,86,88
251520,note_on,120,0,3,,,,,,,,,2,,,70,0
251520,control_change,0,0,1,,,,,,,,,0,64,127,,
251520,control_change,0,0,3,,,,,,,,,2,64,127,,
251640,note_on,0,0,3,,,,,,,,,2,,,62,75
251640,note_on,120,0,3,,,,,,,,,2,,,34,0
251640,note_on,0,0,3,,,,,,,,,2,,,55,75
251760,note_on,0,0,3,,,,,,,,,2,,,55,0
251760,note_on,0,0,3,,,,,,,,,2,,,64,75
251760,note_on,120,0,3,,,,,,,,,2,,,62,0
251820,note_on,60,0,3,,,,,,,,,2,,,67,75
251880,note_on,0,0,3,,,,,,,,,2,,,74,75
251880,note_on,60,0,3,,,,,,,,,2,,,64,0
252000,note_on,0,0,1,,,,,,,,,0,,,74,0
252000,note_on,0,0,1,,,,,,,,,0,,,85,88
252000,note_on,480,0,1,,,,,,,,,0,,,86,0
252000,note_on,120,0,3,,,,,,,,,2,,,74,0
252000,note_on,0,0,1,,,,,,,,,0,,,73,88
252000,note_on,0,0,3,,,,,,,,,2,,,52,75
252000,note_on,0,0,3,,,,,,,,,2,,,67,0
252120,note_on,0,0,3,,,,,,,,,2,,,55,75
252120,note_on,0,0,3,,,,,,,,,2,,,61,75
252120,note_on,120,0,3,,,,,,,,,2,,,52,0
252240,note_on,0,0,3,,,,,,,,,2,,,55,0
252240,note_on,0,0,3,,,,,,,,,2,,,64,75
252240,note_on,120,0,3,,,,,,,,,2,,,61,0
252300,note_on,60,0,3,,,,,,,,,2,,,67,75
252360,note_on,60,0,3,,,,,,,,,2,,,64,0
252360,note_on,0,0,3,,,,,,,,,2,,,73,75
252480,note_on,480,0,1,,,,,,,,,0,,,85,0
252480,note_on,0,0,3,,,,,,,,,2,,,67,0
252480,note_on,0,0,3,,,,,,,,,2,,,46,75
252480,note_on,0,0,1,,,,,,,,,0,,,73,88
252480,note_on,0,0,1,,,,,,,,,0,,,85,88
252480,note_on,0,0,1,,,,,,,,,0,,,73,0
252480,note_on,120,0,3,,,,,,,,,2,,,73,0
252600,note_on,120,0,3,,,,,,,,,2,,,46,0
252600,note_on,0,0,3,,,,,,,,,2,,,55,75
252600,note_on,0,0,3,,,,,,,,,2,,,61,75
252720,note_on,120,0,3,,,,,,,,,2,,,61,0
252720,note_on,0,0,3,,,,,,,,,2,,,55,0
252720,note_on,0,0,3,,,,,,,,,2,,,64,75
252780,note_on,60,0,3,,,,,,,,,2,,,67,75
252840,note_on,60,0,3,,,,,,,,,2,,,64,0
252840,note_on,0,0,3,,,,,,,,,2,,,73,75
252960,note_on,0,0,3,,,,,,,,,2,,,40,75
252960,note_on,0,0,3,,,,,,,,,2,,,67,0
252960,note_on,480,0,1,,,,,,,,,0,,,85,0
252960,note_on,0,0,1,,,,,,,,,0,,,85,101
252960,note_on,0,0,1,,,,,,,,,0,,,73,101
252960,note_on,0,0,1,,,,,,,,,0,,,73,0
252960,control_change,0,0,1,,,,,,,,,0,64,0,,
252960,note_on,120,0,3,,,,,,,,,2,,,73,0
253080,note_on,120,0,3,,,,,,,,,2,,,40,0
253080,note_on,0,0,3,,,,,,,,,2,,,55,75
253080,note_on,0,0,3,,,,,,,,,2,,,61,75
253200,note_on,0,0,3,,,,,,,,,2,,,64,75
253200,note_on,120,0,3,,,,,,,,,2,,,61,0
253200,note_on,0,0,3,,,,,,,,,2,,,55,0
253260,note_on,60,0,3,,,,,,,,,2,,,67,75
253320,note_on,60,0,3,,,,,,,,,2,,,64,0
253320,control_change,0,0,3,,,,,,,,,2,64,0,,
253320,note_on,0,0,3,,,,,,,,,2,,,73,75
253440,note_on,0,0,3,,,,,,,,,2,,,67,0
253440,note_on,480,0,1,,,,,,,,,0,,,85,0
253440,control_change,0,0,1,,,,,,,,,0,64,127,,
253440,note_on,120,0,3,,,,,,,,,2,,,73,0
253440,note_on,0,0,1,,,,,,,,,0,,,73,0
253440,note_on,0,0,1,,,,,,,,,0,,,79,127
253440,note_on,0,0,1,,,,,,,,,0,,,91,127
253440,note_on,0,0,3,,,,,,,,,2,,,34,75
253440,control_change,0,0,3,,,,,,,,,2,64,127,,
253560,note_on,0,0,3,,,,,,,,,2,,,62,75
253560,note_on,0,0,3,,,,,,,,,2,,,67,75
253560,note_on,120,0,3,,,,,,,,,2,,,34,0
253680,note_on,0,0,3,,,,,,,,,2,,,62,0
253680,note_on,0,0,3,,,,,,,,,2,,,70,75
253680,note_on,120,0,3,,,,,,,,,2,,,67,0
253740,note_on,60,0,3,,,,,,,,,2,,,74,75
253800,note_on,0,0,3,,,,,,,,,2,,,79,75
253800,note_on,60,0,3,,,,,,,,,2,,,70,0
253920,note_on,480,0,1,,,,,,,,,0,,,91,0
253920,note_on,0,0,1,,,,,,,,,0,,,79,0
253920,note_on,0,0,1,,,,,,,,,0,,,77,88
253920,note_on,0,0,1,,,,,,,,,0,,,89,88
253920,note_on,0,0,3,,,,,,,,,2,,,53,75
253920,note_on,120,0,3,,,,,,,,,2,,,79,0
253920,note_on,0,0,3,,,,,,,,,2,,,74,0
254040,note_on,0,0,3,,,,,,,,,2,,,62,75
254040,note_on,120,0,3,,,,,,,,,2,,,53,0
254040,note_on,0,0,3,,,,,,,,,2,,,65,75
254160,note_on,120,0,3,,,,,,,,,2,,,65,0
254160,note_on,0,0,3,,,,,,,,,2,,,62,0
254160,note_on,0,0,3,,,,,,,,,2,,,70,75
254280,note_on,120,0,3,,,,,,,,,2,,,70,0
254280,note_on,0,0,3,,,,,,,,,2,,,74,75
254280,note_on,0,0,3,,,,,,,,,2,,,77,75
254400,note_on,0,0,3,,,,,,,,,2,,,74,0
254400,note_on,0,0,3,,,,,,,,,2,,,46,75
254400,note_on,120,0,3,,,,,,,,,2,,,77,0
254520,note_on,0,0,3,,,,,,,,,2,,,58,75
254520,note_on,0,0,3,,,,,,,,,2,,,62,75
254520,note_on,120,0,3,,,,,,,,,2,,,46,0
254640,note_on,0,0,3,,,,,,,,,2,,,58,0
254640,note_on,120,0,3,,,,,,,,,2,,,62,0
254640,note_on,0,0,3,,,,,,,,,2,,,65,75
254760,note_on,120,0,3,,,,,,,,,2,,,65,0
254760,note_on,0,0,3,,,,,,,,,2,,,77,75
254760,note_on,0,0,3,,,,,,,,,2,,,70,75
254880,note_on,0,0,1,,,,,,,,,0,,,77,0
254880,note_on,0,0,1,,,,,,,,,0,,,87,88
254880,note_on,960,0,1,,,,,,,,,0,,,89,0
254880,note_on,0,0,1,,,,,,,,,0,,,75,88
254880,note_on,120,0,3,,,,,,,,,2,,,77,0
254880,note_on,0,0,3,,,,,,,,,2,,,70,0
254880,note_on,0,0,3,,,,,,,,,2,,,41,75
255000,note_on,120,0,3,,,,,,,,,2,,,41,0
255000,note_on,0,0,3,,,,,,,,,2,,,62,75
255000,note_on,0,0,3,,,,,,,,,2,,,58,75
255120,note_on,0,0,3,,,,,,,,,2,,,58,0
255120,note_on,120,0,3,,,,,,,,,2,,,62,0
255120,note_on,0,0,3,,,,,,,,,2,,,65,75
255240,note_on,120,0,3,,,,,,,,,2,,,65,0
255240,control_change,0,0,3,,,,,,,,,2,64,0,,
255240,note_on,0,0,3,,,,,,,,,2,,,74,75
255240,note_on,0,0,3,,,,,,,,,2,,,70,75
255300,note_on,0,0,1,,,,,,,,,0,,,86,88
255300,note_on,0,0,1,,,,,,,,,0,,,75,0
255300,note_on,420,0,1,,,,,,,,,0,,,87,0
255300,control_change,0,0,1,,,,,,,,,0,64,0,,
255300,note_on,0,0,1,,,,,,,,,0,,,74,88
255360,note_on,120,0,3,,,,,,,,,2,,,74,0
255360,control_change,0,0,1,,,,,,,,,0,64,127,,
255360,note_on,0,0,3,,,,,,,,,2,,,34,75
255360,note_on,0,0,3,,,,,,,,,2,,,70,0
255360,note_on,0,0,1,,,,,,,,,0,,,86,88
255360,control_change,0,0,3,,,,,,,,,2,64,127,,
255360,note_on,0,0,1,,,,,,,,,0,,,74,88
255360,note_on,0,0,1,,,,,,,,,0,,,74,0
255360,note_on,60,0,1,,,,,,,,,0,,,86,0
255480,note_on,120,0,3,,,,,,,,,2,,,34,0
255480,note_on,0,0,3,,,,,,,,,2,,,55,75
255480,note_on,0,0,3,,,,,,,,,2,,,62,75
255600,note_on,120,0,3,,,,,,,,,2,,,62,0
255600,note_on,0,0,3,,,,,,,,,2,,,64,75
255600,note_on,0,0,3,,,,,,,,,2,,,55,0
255720,note_on,120,0,3,,,,,,,,,2,,,64,0
255720,note_on,0,0,3,,,,,,,,,2,,,74,75
255720,note_on,0,0,3,,,,,,,,,2,,,67,75
255840,note_on,0,0,1,,,,,,,,,0,,,74,0
255840,note_on,0,0,1,,,,,,,,,0,,,84,88
255840,note_on,0,0,3,,,,,,,,,2,,,52,75
255840,note_on,120,0,3,,,,,,,,,2,,,74,0
255840,note_on,480,0,1,,,,,,,,,0,,,86,0
255840,note_on,0,0,1,,,,,,,,,0,,,72,88
255840,note_on,0,0,3,,,,,,,,,2,,,67,0
255960,note_on,0,0,3,,,,,,,,,2,,,55,75
255960,note_on,0,0,3,,,,,,,,,2,,,60,75
255960,note_on,120,0,3,,,,,,,,,2,,,52,0
256080,note_on,0,0,3,,,,,,,,,2,,,55,0
256080,note_on,0,0,3,,,,,,,,,2,,,64,75
256080,note_on,120,0,3,,,,,,,,,2,,,60,0
256200,note_on,0,0,3,,,,,,,,,2,,,67,75
256200,note_on,0,0,3,,,,,,,,,2,,,72,75
256200,note_on,120,0,3,,,,,,,,,2,,,64,0
256200,control_change,0,0,3,,,,,,,,,2,64,0,,
256320,control_change,0,0,3,,,,,,,,,2,64,127,,
256320,note_on,0,0,1,,,,,,,,,0,,,86,88
256320,note_on,0,0,3,,,,,,,,,2,,,67,0
256320,note_on,120,0,3,,,,,,,,,2,,,72,0
256320,note_on,0,0,1,,,,,,,,,0,,,74,88
256320,note_on,0,0,3,,,,,,,,,2,,,46,75
256320,note_on,480,0,1,,,,,,,,,0,,,84,0
256320,note_on,0,0,1,,,,,,,,,0,,,72,0
256440,note_on,0,0,3,,,,,,,,,2,,,54,75
256440,note_on,0,0,3,,,,,,,,,2,,,62,75
256440,note_on,120,0,3,,,,,,,,,2,,,46,0
256440,note_on,0,0,3,,,,,,,,,2,,,57,75
256560,note_on,120,0,3,,,,,,,,,2,,,62,0
256560,note_on,0,0,3,,,,,,,,,2,,,54,0
256560,note_on,0,0,3,,,,,,,,,2,,,57,0
256560,note_on,0,0,3,,,,,,,,,2,,,63,75
256680,note_on,0,0,3,,,,,,,,,2,,,66,75
256680,note_on,0,0,3,,,,,,,,,2,,,74,75
256680,note_on,120,0,3,,,,,,,,,2,,,63,0
256800,note_on,0,0,1,,,,,,,,,0,,,74,0
256800,note_on,0,0,1,,,,,,,,,0,,,75,88
256800,note_on,0,0,1,,,,,,,,,0,,,87,88
256800,note_on,0,0,3,,,,,,,,,2,,,42,75
256800,note_on,480,0,1,,,,,,,,,0,,,86,0
256800,note_on,0,0,3,,,,,,,,,2,,,66,0
256800,note_on,120,0,3,,,,,,,,,2,,,74,0
256920,note_on,120,0,3,,,,,,,,,2,,,42,0
256920,note_on,0,0,3,,,,,,,,,2,,,57,75
256920,note_on,0,0,3,,,,,,,,,2,,,63,75
256920,note_on,0,0,3,,,,,,,,,2,,,54,75
257040,note_on,0,0,3,,,,,,,,,2,,,54,0
257040,note_on,0,0,3,,,,,,,,,2,,,57,0
257040,note_on,0,0,3,,,,,,,,,2,,,63,75
257040,note_on,120,0,3,,,,,,,,,2,,,63,0
257160,note_on,0,0,3,,,,,,,,,2,,,75,75
257160,control_change,0,0,3,,,,,,,,,2,64,0,,
257160,note_on,120,0,3,,,,,,,,,2,,,63,0
257160,note_on,0,0,3,,,,,,,,,2,,,66,75
257220,control_change,0,0,1,,,,,,,,,0,64,0,,
257220,note_on,420,0,1,,,,,,,,,0,,,87,0
257220,note_on,0,0,1,,,,,,,,,0,,,81,88
257220,note_on,0,0,1,,,,,,,,,0,,,75,0
257220,note_on,0,0,1,,,,,,,,,0,,,69,88
257280,control_change,0,0,3,,,,,,,,,2,64,127,,
257280,note_on,60,0,1,,,,,,,,,0,,,81,0
257280,note_on,0,0,1,,,,,,,,,0,,,84,114
257280,note_on,0,0,3,,,,,,,,,2,,,66,0
257280,note_on,120,0,3,,,,,,,,,2,,,75,0
257280,note_on,0,0,3,,,,,,,,,2,,,34,75
257280,control_change,0,0,1,,,,,,,,,0,64,127,,
257280,note_on,0,0,1,,,,,,,,,0,,,69,0
257280,note_on,0,0,1,,,,,,,,,0,,,72,114
257400,note_on,0,0,3,,,,,,,,,2,,,53,75
257400,note_on,120,0,3,,,,,,,,,2,,,34,0
257400,note_on,0,0,3,,,,,,,,,2,,,60,75
257520,note_on,0,0,3,,,,,,,,,2,,,62,75
257520,note_on,0,0,3,,,,,,,,,2,,,53,0
257520,note_on,120,0,3,,,,,,,,,2,,,60,0
257640,note_on,0,0,3,,,,,,,,,2,,,65,75
257640,note_on,0,0,3,,,,,,,,,2,,,72,75
257640,note_on,120,0,3,,,,,,,,,2,,,62,0
257760,note_on,0,0,1,,,,,,,,,0,,,82,88
257760,note_on,0,0,1,,,,,,,,,0,,,72,0
257760,note_on,0,0,3,,,,,,,,,2,,,65,0
257760,note_on,0,0,1,,,,,,,,,0,,,70,88
257760,note_on,480,0,1,,,,,,,,,0,,,84,0
257760,note_on,0,0,3,,,,,,,,,2,,,50,75
257760,note_on,120,0,3,,,,,,,,,2,,,72,0
257880,note_on,0,0,3,,,,,,,,,2,,,53,75
257880,note_on,0,0,3,,,,,,,,,2,,,58,75
257880,note_on,120,0,3,,,,,,,,,2,,,50,0
258000,note_on,0,0,3,,,,,,,,,2,,,53,0
258000,note_on,0,0,3,,,,,,,,,2,,,62,75
258000,note_on,120,0,3,,,,,,,,,2,,,58,0
258120,note_on,120,0,3,,,,,,,,,2,,,62,0
258120,note_on,0,0,3,,,,,,,,,2,,,65,75
258120,note_on,0,0,3,,,,,,,,,2,,,70,75
258240,note_on,0,0,3,,,,,,,,,2,,,46,75
258240,note_on,120,0,3,,,,,,,,,2,,,70,0
258240,note_on,0,0,3,,,,,,,,,2,,,65,0
258360,note_on,0,0,3,,,,,,,,,2,,,58,75
258360,note_on,0,0,3,,,,,,,,,2,,,53,75
258360,note_on,120,0,3,,,,,,,,,2,,,46,0
258480,note_on,0,0,3,,,,,,,,,2,,,53,0
258480,note_on,120,0,3,,,,,,,,,2,,,58,0
258480,note_on,0,0,3,,,,,,,,,2,,,62,75
258600,note_on,120,0,3,,,,,,,,,2,,,62,0
258600,note_on,0,0,3,,,,,,,,,2,,,65,75
258600,note_on,0,0,3,,,,,,,,,2,,,70,75
258720,note_on,0,0,1,,,,,,,,,0,,,75,88
258720,note_on,120,0,3,,,,,,,,,2,,,70,0
258720,note_on,0,0,3,,,,,,,,,2,,,41,75
258720,note_on,0,0,3,,,,,,,,,2,,,65,0
258720,note_on,0,0,1,,,,,,,,,0,,,87,88
258720,note_on,0,0,1,,,,,,,,,0,,,70,0
258720,note_on,960,0,1,,,,,,,,,0,,,82,0
258840,note_on,120,0,3,,,,,,,,,2,,,41,0
258840,note_on,0,0,3,,,,,,,,,2,,,53,75
258840,note_on,0,0,3,,,,,,,,,2,,,58,75
258960,note_on,0,0,3,,,,,,,,,2,,,53,0
258960,note_on,120,0,3,,,,,,,,,2,,,58,0
258960,note_on,0,0,3,,,,,,,,,2,,,62,75
259080,note_on,0,0,3,,,,,,,,,2,,,65,75
259080,note_on,0,0,3,,,,,,,,,2,,,70,75
259080,note_on,120,0,3,,,,,,,,,2,,,62,0
259080,control_change,0,0,3,,,,,,,,,2,64,0,,
259140,control_change,0,0,1,,,,,,,,,0,64,0,,
259140,note_on,0,0,1,,,,,,,,,0,,,86,88
259140,note_on,0,0,1,,,,,,,,,0,,,75,0
259140,note_on,420,0,1,,,,,,,,,0,,,87,0
259140,note_on,0,0,1,,,,,,,,,0,,,74,88
259200,note_on,60,0,1,,,,,,,,,0,,,86,0
259200,note_on,120,0,3,,,,,,,,,2,,,70,0
259200,control_change,0,0,3,,,,,,,,,2,64,127,,
259200,note_on,0,0,3,,,,,,,,,2,,,65,0
259200,note_on,0,0,1,,,,,,,,,0,,,74,88
259200,note_on,0,0,3,,,,,,,,,2,,,34,75
259200,control_change,0,0,1,,,,,,,,,0,64,127,,
259200,note_on,0,0,1,,,,,,,,,0,,,86,88
259200,note_on,0,0,1,,,,,,,,,0,,,74,0
259320,note_on,120,0,3,,,,,,,,,2,,,34,0
259320,note_on,0,0,3,,,,,,,,,2,,,62,75
259320,note_on,0,0,3,,,,,,,,,2,,,55,75
259440,note_on,120,0,3,,,,,,,,,2,,,62,0
259440,note_on,0,0,3,,,,,,,,,2,,,64,75
259440,note_on,0,0,3,,,,,,,,,2,,,55,0
259560,note_on,0,0,3,,,,,,,,,2,,,67,75
259560,note_on,0,0,3,,,,,,,,,2,,,74,75
259560,note_on,120,0,3,,,,,,,,,2,,,64,0
259680,note_on,0,0,3,,,,,,,,,2,,,67,0
259680,note_on,0,0,1,,,,,,,,,0,,,73,88
259680,note_on,0,0,1,,,,,,,,,0,,,74,0
259680,note_on,120,0,3,,,,,,,,,2,,,74,0
259680,note_on,480,0,1,,,,,,,,,0,,,86,0
259680,note_on,0,0,1,,,,,,,,,0,,,85,88
259680,note_on,0,0,3,,,,,,,,,2,,,52,75
259800,note_on,120,0,3,,,,,,,,,2,,,52,0
259800,note_on,0,0,3,,,,,,,,,2,,,55,75
259800,note_on,0,0,3,,,,,,,,,2,,,61,75
259920,note_on,0,0,3,,,,,,,,,2,,,64,75
259920,note_on,120,0,3,,,,,,,,,2,,,61,0
259920,note_on,0,0,3,,,,,,,,,2,,,55,0
260040,note_on,0,0,3,,,,,,,,,2,,,67,75
260040,note_on,0,0,3,,,,,,,,,2,,,72,75
260040,note_on,120,0,3,,,,,,,,,2,,,64,0
260160,note_on,480,0,1,,,,,,,,,0,,,85,0
260160,note_on,120,0,3,,,,,,,,,2,,,72,0
260160,note_on,0,0,1,,,,,,,,,0,,,73,0
260160,note_on,0,0,1,,,,,,,,,0,,,73,88
260160,note_on,0,0,3,,,,,,,,,2,,,46,75
260160,note_on,0,0,3,,,,,,,,,2,,,67,0
260160,note_on,0,0,1,,,,,,,,,0,,,85,88
260280,note_on,0,0,3,,,,,,,,,2,,,61,75
260280,note_on,120,0,3,,,,,,,,,2,,,46,0
260280,note_on,0,0,3,,,,,,,,,2,,,55,75
260400,note_on,0,0,3,,,,,,,,,2,,,64,75
260400,note_on,0,0,3,,,,,,,,,2,,,55,0
260400,note_on,120,0,3,,,,,,,,,2,,,61,0
260520,note_on,120,0,3,,,,,,,,,2,,,64,0
260520,note_on,0,0,3,,,,,,,,,2,,,67,75
260520,note_on,0,0,3,,,,,,,,,2,,,72,75
260640,note_on,0,0,1,,,,,,,,,0,,,73,0
260640,note_on,0,0,1,,,,,,,,,0,,,85,101
260640,control_change,0,0,1,,,,,,,,,0,64,0,,
260640,note_on,0,0,3,,,,,,,,,2,,,67,0
260640,note_on,0,0,1,,,,,,,,,0,,,73,101
260640,note_on,480,0,1,,,,,,,,,0,,,85,0
260640,note_on,0,0,3,,,,,,,,,2,,,40,75
260640,note_on,120,0,3,,,,,,,,,2,,,72,0
260760,note_on,120,0,3,,,,,,,,,2,,,40,0
260760,note_on,0,0,3,,,,,,,,,2,,,55,75
260760,note_on,0,0,3,,,,,,,,,2,,,61,75
260880,note_on,0,0,3,,,,,,,,,2,,,64,75
260880,note_on,120,0,3,,,,,,,,,2,,,61,0
260880,note_on,0,0,3,,,,,,,,,2,,,55,0
261000,note_on,120,0,3,,,,,,,,,2,,,64,0
261000,note_on,0,0,3,,,,,,,,,2,,,72,75
261000,note_on,0,0,3,,,,,,,,,2,,,67,75
261000,control_change,0,0,3,,,,,,,,,2,64,0,,
261120,control_change,0,0,3,,,,,,,,,2,64,127,,
261120,note_on,120,0,3,,,,,,,,,2,,,72,0
261120,note_on,0,0,3,,,,,,,,,2,,,34,75
261120,note_on,0,0,1,,,,,,,,,0,,,73,0
261120,control_change,0,0,1,,,,,,,,,0,64,127,,
261120,note_on,0,0,1,,,,,,,,,0,,,79,127
261120,note_on,480,0,1,,,,,,,,,0,,,85,0
261120,note_on,0,0,1,,,,,,,,,0,,,91,127
261120,note_on,0,0,3,,,,,,,,,2,,,67,0
261240,note_on,0,0,3,,,,,,,,,2,,,67,75
261240,note_on,0,0,3,,,,,,,,,2,,,62,75
261240,note_on,120,0,3,,,,,,,,,2,,,34,0
261360,note_on,120,0,3,,,,,,,,,2,,,67,0
261360,note_on,0,0,3,,,,,,,,,2,,,70,75
261360,note_on,0,0,3,,,,,,,,,2,,,62,0
261480,note_on,120,0,3,,,,,,,,,2,,,70,0
261480,note_on,0,0,3,,,,,,,,,2,,,79,75
261480,note_on,0,0,3,,,,,,,,,2,,,74,75
261600,note_on,480,0,1,,,,,,,,,0,,,91,0
261600,note_on,0,0,3,,,,,,,,,2,,,53,75
261600,note_on,0,0,1,,,,,,,,,0,,,89,88
261600,note_on,0,0,3,,,,,,,,,2,,,74,0
261600,note_on,0,0,1,,,,,,,,,0,,,77,88
261600,note_on,0,0,1,,,,,,,,,0,,,79,0
261600,note_on,120,0,3,,,,,,,,,2,,,79,0
261720,note_on,0,0,3,,,,,,,,,2,,,65,75
261720,note_on,0,0,3,,,,,,,,,2,,,62,75
261720,note_on,120,0,3,,,,,,,,,2,,,53,0
261840,note_on,0,0,3,,,,,,,,,2,,,62,0
261840,note_on,120,0,3,,,,,,,,,2,,,65,0
261840,note_on,0,0,3,,,,,,,,,2,,,70,75
261960,note_on,0,0,3,,,,,,,,,2,,,74,75
261960,note_on,0,0,3,,,,,,,,,2,,,77,75
261960,note_on,120,0,3,,,,,,,,,2,,,70,0
262080,note_on,120,0,3,,,,,,,,,2,,,77,0
262080,note_on,0,0,3,,,,,,,,,2,,,74,0
262080,note_on,0,0,3,,,,,,,,,2,,,50,75
262200,note_on,120,0,3,,,,,,,,,2,,,50,0
262200,note_on,0,0,3,,,,,,,,,2,,,62,75
262200,note_on,0,0,3,,,,,,,,,2,,,65,75
262320,note_on,120,0,3,,,,,,,,,2,,,65,0
262320,note_on,0,0,3,,,,,,,,,2,,,62,0
262320,note_on,0,0,3,,,,,,,,,2,,,70,75
262440,note_on,0,0,3,,,,,,,,,2,,,77,75
262440,note_on,0,0,3,,,,,,,,,2,,,74,75
262440,note_on,120,0,3,,,,,,,,,2,,,70,0
262560,note_on,0,0,1,,,,,,,,,0,,,77,0
262560,note_on,0,0,3,,,,,,,,,2,,,46,75
262560,note_on,0,0,3,,,,,,,,,2,,,74,0
262560,note_on,0,0,1,,,,,,,,,0,,,91,88
262560,note_on,120,0,3,,,,,,,,,2,,,77,0
262560,note_on,0,0,1,,,,,,,,,0,,,79,88
262560,note_on,960,0,1,,,,,,,,,0,,,89,0
262680,note_on,120,0,3,,,,,,,,,2,,,46,0
262680,note_on,0,0,3,,,,,,,,,2,,,58,75
262680,note_on,0,0,3,,,,,,,,,2,,,62,75
262800,note_on,0,0,3,,,,,,,,,2,,,58,0
262800,note_on,0,0,3,,,,,,,,,2,,,65,75
262800,note_on,120,0,3,,,,,,,,,2,,,62,0
262920,note_on,0,0,3,,,,,,,,,2,,,70,75
262920,note_on,0,0,3,,,,,,,,,2,,,74,75
262920,control_change,0,0,3,,,,,,,,,2,64,0,,
262920,note_on,120,0,3,,,,,,,,,2,,,65,0
262980,control_change,0,0,1,,,,,,,,,0,64,0,,
262980,note_on,0,0,1,,,,,,,,,0,,,77,88
262980,note_on,0,0,1,,,,,,,,,0,,,79,0
262980,note_on,420,0,1,,,,,,,,,0,,,91,0
262980,note_on,0,0,1,,,,,,,,,0,,,89,88
263040,note_on,0,0,1,,,,,,,,,0,,,77,0
263040,note_on,0,0,1,,,,,,,,,0,,,77,88
263040,note_on,0,0,1,,,,,,,,,0,,,89,88
263040,note_on,60,0,1,,,,,,,,,0,,,89,0
263040,control_change,0,0,3,,,,,,,,,2,64,127,,
263040,note_on,120,0,3,,,,,,,,,2,,,74,0
263040,control_change,0,0,1,,,,,,,,,0,64,127,,
263040,note_on,0,0,3,,,,,,,,,2,,,46,75
263040,note_on,0,0,3,,,,,,,,,2,,,70,0
263040,note_on,0,0,3,,,,,,,,,2,,,34,75
263160,note_on,120,0,3,,,,,,,,,2,,,46,0
263160,note_on,0,0,3,,,,,,,,,2,,,61,75
263160,note_on,0,0,3,,,,,,,,,2,,,34,0
263160,note_on,0,0,3,,,,,,,,,2,,,65,75
263280,note_on,120,0,3,,,,,,,,,2,,,65,0
263280,note_on,0,0,3,,,,,,,,,2,,,67,75
263280,note_on,0,0,3,,,,,,,,,2,,,61,0
263400,note_on,0,0,3,,,,,,,,,2,,,77,75
263400,note_on,120,0,3,,,,,,,,,2,,,67,0
263400,note_on,0,0,3,,,,,,,,,2,,,73,75
263520,note_on,0,0,1,,,,,,,,,0,,,76,88
263520,note_on,480,0,1,,,,,,,,,0,,,89,0
263520,note_on,0,0,1,,,,,,,,,0,,,88,88
263520,note_on,120,0,3,,,,,,,,,2,,,77,0
263520,note_on,0,0,1,,,,,,,,,0,,,77,0
263520,note_on,0,0,3,,,,,,,,,2,,,73,0
263520,note_on,0,0,3,,,,,,,,,2,,,55,75
263640,note_on,0,0,3,,,,,,,,,2,,,64,75
263640,note_on,0,0,3,,,,,,,,,2,,,61,75
263640,note_on,120,0,3,,,,,,,,,2,,,55,0
263760,note_on,120,0,3,,,,,,,,,2,,,64,0
263760,note_on,0,0,3,,,,,,,,,2,,,61,0
263760,note_on,0,0,3,,,,,,,,,2,,,67,75
263880,note_on,120,0,3,,,,,,,,,2,,,67,0
263880,note_on,0,0,3,,,,,,,,,2,,,76,75
263880,note_on,0,0,3,,,,,,,,,2,,,73,75
264000,note_on,0,0,3,,,,,,,,,2,,,73,0
264000,note_on,0,0,1,,,,,,,,,0,,,88,88
264000,note_on,480,0,1,,,,,,,,,0,,,88,0
264000,note_on,0,0,1,,,,,,,,,0,,,76,0
264000,note_on,120,0,3,,,,,,,,,2,,,76,0
264000,note_on,0,0,1,,,,,,,,,0,,,76,88
264000,note_on,0,0,3,,,,,,,,,2,,,45,75
264120,note_on,0,0,3,,,,,,,,,2,,,64,75
264120,note_on,120,0,3,,,,,,,,,2,,,45,0
264120,note_on,0,0,3,,,,,,,,,2,,,61,75
264240,note_on,0,0,3,,,,,,,,,2,,,61,0
264240,note_on,120,0,3,,,,,,,,,2,,,64,0
264240,note_on,0,0,3,,,,,,,,,2,,,69,75
264360,note_on,0,0,3,,,,,,,,,2,,,73,75
264360,note_on,0,0,3,,,,,,,,,2,,,76,75
264360,note_on,120,0,3,,,,,,,,,2,,,69,0
264480,note_on,120,0,3,,,,,,,,,2,,,76,0
264480,note_on,0,0,1,,,,,,,,,0,,,76,0
264480,note_on,0,0,1,,,,,,,,,0,,,76,101
264480,note_on,0,0,1,,,,,,,,,0,,,88,101
264480,note_on,480,0,1,,,,,,,,,0,,,88,0
264480,note_on,0,0,3,,,,,,,,,2,,,73,0
264480,note_on,0,0,3,,,,,,,,,2,,,43,75
264480,control_change,0,0,1,,,,,,,,,0,64,0,,
264600,note_on,0,0,3,,,,,,,,,2,,,64,75
264600,note_on,0,0,3,,,,,,,,,2,,,61,75
264600,note_on,120,0,3,,,,,,,,,2,,,43,0
264720,note_on,0,0,3,,,,,,,,,2,,,70,75
264720,note_on,120,0,3,,,,,,,,,2,,,64,0
264720,note_on,0,0,3,,,,,,,,,2,,,61,0
264840,note_on,0,0,3,,,,,,,,,2,,,73,75
264840,note_on,0,0,3,,,,,,,,,2,,,76,75
264840,note_on,120,0,3,,,,,,,,,2,,,70,0
264840,control_change,0,0,3,,,,,,,,,2,64,0,,
264960,note_on,480,0,1,,,,,,,,,0,,,88,0
264960,note_on,0,0,3,,,,,,,,,2,,,41,75
264960,control_change,0,0,1,,,,,,,,,0,64,127,,
264960,note_on,0,0,3,,,,,,,,,2,,,73,0
264960,control_change,0,0,3,,,,,,,,,2,64,127,,
264960,note_on,0,0,1,,,,,,,,,0,,,94,127
264960,note_on,0,0,1,,,,,,,,,0,,,82,127
264960,note_on,0,0,1,,,,,,,,,0,,,76,0
264960,note_on,120,0,3,,,,,,,,,2,,,76,0
265080,note_on,0,0,3,,,,,,,,,2,,,70,75
265080,note_on,120,0,3,,,,,,,,,2,,,41,0
265080,note_on,0,0,3,,,,,,,,,2,,,65,75
265200,note_on,120,0,3,,,,,,,,,2,,,70,0
265200,note_on,0,0,3,,,,,,,,,2,,,74,75
265200,note_on,0,0,3,,,,,,,,,2,,,65,0
265320,note_on,0,0,3,,,,,,,,,2,,,82,75
265320,note_on,0,0,3,,,,,,,,,2,,,77,75
265320,note_on,120,0,3,,,,,,,,,2,,,74,0
265440,note_on,0,0,1,,,,,,,,,0,,,81,88
265440,note_on,120,0,3,,,,,,,,,2,,,82,0
265440,note_on,480,0,1,,,,,,,,,0,,,94,0
265440,note_on,0,0,3,,,,,,,,,2,,,62,75
265440,note_on,0,0,1,,,,,,,,,0,,,93,88
265440,note_on,0,0,1,,,,,,,,,0,,,82,0
265440,note_on,0,0,3,,,,,,,,,2,,,77,0
265560,note_on,0,0,3,,,,,,,,,2,,,69,75
265560,note_on,120,0,3,,,,,,,,,2,,,62,0
265560,note_on,0,0,3,,,,,,,,,2,,,65,75
265680,note_on,0,0,3,,,,,,,,,2,,,74,75
265680,note_on,0,0,3,,,,,,,,,2,,,65,0
265680,note_on,120,0,3,,,,,,,,,2,,,69,0
265800,note_on,0,0,3,,,,,,,,,2,,,77,75
265800,note_on,120,0,3,,,,,,,,,2,,,74,0
265800,note_on,0,0,3,,,,,,,,,2,,,81,75
265920,note_on,0,0,3,,,,,,,,,2,,,55,75
265920,note_on,120,0,3,,,,,,,,,2,,,81,0
265920,note_on,0,0,3,,,,,,,,,2,,,77,0
265920,note_on,0,0,3,,,,,,,,,2,,,43,75
266040,note_on,0,0,3,,,,,,,,,2,,,43,0
266040,note_on,0,0,3,,,,,,,,,2,,,63,75
266040,note_on,0,0,3,,,,,,,,,2,,,69,75
266040,note_on,120,0,3,,,,,,,,,2,,,55,0
266160,note_on,0,0,3,,,,,,,,,2,,,70,75
266160,note_on,120,0,3,,,,,,,,,2,,,69,0
266160,note_on,0,0,3,,,,,,,,,2,,,63,0
266280,note_on,0,0,3,,,,,,,,,2,,,81,75
266280,note_on,120,0,3,,,,,,,,,2,,,70,0
266280,note_on,0,0,3,,,,,,,,,2,,,75,75
266400,note_on,0,0,3,,,,,,,,,2,,,75,0
266400,note_on,0,0,1,,,,,,,,,0,,,79,88
266400,note_on,0,0,1,,,,,,,,,0,,,81,0
266400,note_on,0,0,3,,,,,,,,,2,,,58,75
266400,note_on,0,0,1,,,,,,,,,0,,,91,88
266400,note_on,120,0,3,,,,,,,,,2,,,81,0
266400,note_on,960,0,1,,,,,,,,,0,,,93,0
266400,control_change,0,0,1,,,,,,,,,0,64,0,,
266520,note_on,120,0,3,,,,,,,,,2,,,58,0
266520,note_on,0,0,3,,,,,,,,,2,,,67,75
266520,note_on,0,0,3,,,,,,,,,2,,,63,75
266640,note_on,120,0,3,,,,,,,,,2,,,67,0
266640,note_on,0,0,3,,,,,,,,,2,,,70,75
266640,note_on,0,0,3,,,,,,,,,2,,,63,0
266760,note_on,120,0,3,,,,,,,,,2,,,70,0
266760,control_change,0,0,3,,,,,,,,,2,64,0,,
266760,note_on,0,0,3,,,,,,,,,2,,,79,75
266760,note_on,0,0,3,,,,,,,,,2,,,75,75
266880,note_on,480,0,1,,,,,,,,,0,,,91,0
266880,note_on,0,0,1,,,,,,,,,0,,,79,88
266880,note_on,0,0,1,,,,,,,,,0,,,91,88
266880,control_change,0,0,1,,,,,,,,,0,64,127,,
266880,note_on,120,0,3,,,,,,,,,2,,,79,0
266880,note_on,0,0,1,,,,,,,,,0,,,79,0
266880,control_change,0,0,3,,,,,,,,,2,64,127,,
266880,note_on,0,0,3,,,,,,,,,2,,,75,0
266880,note_on,0,0,3,,,,,,,,,2,,,45,75
266880,note_on,0,0,3,,,,,,,,,2,,,57,75
267000,note_on,120,0,3,,,,,,,,,2,,,57,0
267000,note_on,0,0,3,,,,,,,,,2,,,67,75
267000,note_on,0,0,3,,,,,,,,,2,,,45,0
267000,note_on,0,0,3,,,,,,,,,2,,,62,75
267120,note_on,0,0,3,,,,,,,,,2,,,62,0
267120,note_on,120,0,3,,,,,,,,,2,,,67,0
267120,note_on,0,0,3,,,,,,,,,2,,,69,75
267240,note_on,0,0,3,,,,,,,,,2,,,74,75
267240,note_on,120,0,3,,,,,,,,,2,,,69,0
267240,note_on,0,0,3,,,,,,,,,2,,,79,75
267360,note_on,480,0,1,,,,,,,,,0,,,91,0
267360,note_on,120,0,3,,,,,,,,,2,,,79,0
267360,note_on,0,0,1,,,,,,,,,0,,,77,88
267360,note_on,0,0,1,,,,,,,,,0,,,79,0
267360,note_on,0,0,1,,,,,,,,,0,,,89,88
267360,note_on,0,0,3,,,,,,,,,2,,,74,0
267360,note_on,0,0,3,,,,,,,,,2,,,57,75
267480,note_on,0,0,3,,,,,,,,,2,,,65,75
267480,note_on,120,0,3,,,,,,,,,2,,,57,0
267480,note_on,0,0,3,,,,,,,,,2,,,62,75
267600,note_on,0,0,3,,,,,,,,,2,,,62,0
267600,note_on,0,0,3,,,,,,,,,2,,,69,75
267600,note_on,120,0,3,,,,,,,,,2,,,65,0
267720,note_on,0,0,3,,,,,,,,,2,,,74,75
267720,note_on,120,0,3,,,,,,,,,2,,,69,0
267720,note_on,0,0,3,,,,,,,,,2,,,77,75
267840,note_on,0,0,3,,,,,,,,,2,,,74,0
267840,note_on,480,0,1,,,,,,,,,0,,,89,0
267840,note_on,0,0,3,,,,,,,,,2,,,43,75
267840,note_on,120,0,3,,,,,,,,,2,,,77,0
267840,note_on,0,0,1,,,,,,,,,0,,,77,0
267840,note_on,0,0,1,,,,,,,,,0,,,77,88
267840,note_on,0,0,1,,,,,,,,,0,,,89,88
267840,note_on,0,0,3,,,,,,,,,2,,,55,75
267960,note_on,0,0,3,,,,,,,,,2,,,65,75
267960,note_on,0,0,3,,,,,,,,,2,,,43,0
267960,note_on,0,0,3,,,,,,,,,2,,,61,75
267960,note_on,120,0,3,,,,,,,,,2,,,55,0
268080,note_on,0,0,3,,,,,,,,,2,,,61,0
268080,note_on,120,0,3,,,,,,,,,2,,,65,0
268080,note_on,0,0,3,,,,,,,,,2,,,70,75
268200,note_on,0,0,3,,,,,,,,,2,,,77,75
268200,note_on,120,0,3,,,,,,,,,2,,,70,0
268200,note_on,0,0,3,,,,,,,,,2,,,73,75
268320,note_on,0,0,3,,,,,,,,,2,,,73,0
268320,note_on,0,0,3,,,,,,,,,2,,,58,75
268320,note_on,480,0,1,,,,,,,,,0,,,89,0
268320,note_on,0,0,1,,,,,,,,,0,,,76,101
268320,note_on,0,0,1,,,,,,,,,0,,,77,0
268320,note_on,0,0,1,,,,,,,,,0,,,88,101
268320,note_on,120,0,3,,,,,,,,,2,,,77,0
268320,control_change,0,0,1,,,,,,,,,0,64,0,,
268440,note_on,0,0,3,,,,,,,,,2,,,61,75
268440,note_on,120,0,3,,,,,,,,,2,,,58,0
268440,note_on,0,0,3,,,,,,,,,2,,,64,75
268560,note_on,0,0,3,,,,,,,,,2,,,70,75
268560,note_on,120,0,3,,,,,,,,,2,,,64,0
268560,note_on,0,0,3,,,,,,,,,2,,,61,0
268680,note_on,120,0,3,,,,,,,,,2,,,70,0
268680,note_on,0,0,3,,,,,,,,,2,,,76,75
268680,note_on,0,0,3,,,,,,,,,2,,,73,75
268680,control_change,0,0,3,,,,,,,,,2,64,0,,
268800,control_change,0,0,3,,,,,,,,,2,64,127,,
268800,note_on,120,0,3,,,,,,,,,2,,,76,0
268800,control_change,0,0,1,,,,,,,,,0,64,127,,
268800,note_on,0,0,1,,,,,,,,,0,,,94,127
268800,note_on,0,0,1,,,,,,,,,0,,,82,127
268800,note_on,0,0,3,,,,,,,,,2,,,53,75
268800,note_on,0,0,1,,,,,,,,,0,,,76,0
268800,note_on,0,0,3,,,,,,,,,2,,,73,0
268800,note_on,480,0,1,,,,,,,,,0,,,88,0
268800,note_on,0,0,3,,,,,,,,,2,,,41,75
268920,note_on,0,0,3,,,,,,,,,2,,,70,75
268920,note_on,120,0,3,,,,,,,,,2,,,53,0
268920,note_on,0,0,3,,,,,,,,,2,,,65,75
268920,note_on,0,0,3,,,,,,,,,2,,,41,0
269040,note_on,120,0,3,,,,,,,,,2,,,70,0
269040,note_on,0,0,3,,,,,,,,,2,,,74,75
269040,note_on,0,0,3,,,,,,,,,2,,,65,0
269160,note_on,0,0,3,,,,,,,,,2,,,77,75
269160,note_on,0,0,3,,,,,,,,,2,,,82,75
269160,note_on,120,0,3,,,,,,,,,2,,,74,0
269280,note_on,0,0,1,,,,,,,,,0,,,93,88
269280,note_on,0,0,3,,,,,,,,,2,,,62,75
269280,note_on,480,0,1,,,,,,,,,0,,,94,0
269280,note_on,0,0,1,,,,,,,,,0,,,81,88
269280,note_on,120,0,3,,,,,,,,,2,,,82,0
269280,note_on,0,0,1,,,,,,,,,0,,,82,0
269280,note_on,0,0,3,,,,,,,,,2,,,77,0
269400,note_on,120,0,3,,,,,,,,,2,,,62,0
269400,note_on,0,0,3,,,,,,,,,2,,,69,75
269400,note_on,0,0,3,,,,,,,,,2,,,65,75
269520,note_on,120,0,3,,,,,,,,,2,,,69,0
269520,note_on,0,0,3,,,,,,,,,2,,,65,0
269520,note_on,0,0,3,,,,,,,,,2,,,74,75
269640,note_on,120,0,3,,,,,,,,,2,,,74,0
269640,note_on,0,0,3,,,,,,,,,2,,,77,75
269640,note_on,0,0,3,,,,,,,,,2,,,81,75
269760,note_on,120,0,3,,,,,,,,,2,,,81,0
269760,note_on,0,0,3,,,,,,,,,2,,,43,75
269760,note_on,0,0,3,,,,,,,,,2,,,77,0
269760,note_on,0,0,3,,,,,,,,,2,,,55,75
269880,note_on,0,0,3,,,,,,,,,2,,,63,75
269880,note_on,120,0,3,,,,,,,,,2,,,55,0
269880,note_on,0,0,3,,,,,,,,,2,,,43,0
269880,note_on,0,0,3,,,,,,,,,2,,,69,75
270000,note_on,120,0,3,,,,,,,,,2,,,69,0
270000,note_on,0,0,3,,,,,,,,,2,,,70,75
270000,note_on,0,0,3,,,,,,,,,2,,,63,0
270120,note_on,120,0,3,,,,,,,,,2,,,70,0
270120,note_on,0,0,3,,,,,,,,,2,,,75,75
270120,note_on,0,0,3,,,,,,,,,2,,,81,75
270240,note_on,0,0,1,,,,,,,,,0,,,79,88
270240,control_change,0,0,1,,,,,,,,,0,64,0,,
270240,note_on,0,0,1,,,,,,,,,0,,,81,0
270240,note_on,120,0,3,,,,,,,,,2,,,81,0
270240,note_on,0,0,3,,,,,,,,,2,,,58,75
270240,note_on,0,0,3,,,,,,,,,2,,,75,0
270240,note_on,960,0,1,,,,,,,,,0,,,93,0
270240,note_on,0,0,1,,,,,,,,,0,,,91,88
270360,note_on,0,0,3,,,,,,,,,2,,,67,75
270360,note_on,120,0,3,,,,,,,,,2,,,58,0
270360,note_on,0,0,3,,,,,,,,,2,,,63,75
270480,note_on,0,0,3,,,,,,,,,2,,,70,75
270480,note_on,0,0,3,,,,,,,,,2,,,63,0
270480,note_on,120,0,3,,,,,,,,,2,,,67,0
270600,note_on,0,0,3,,,,,,,,,2,,,75,75
270600,note_on,120,0,3,,,,,,,,,2,,,70,0
270600,control_change,0,0,3,,,,,,,,,2,64,0,,
270600,note_on,0,0,3,,,,,,,,,2,,,79,75
270720,note_on,480,0,1,,,,,,,,,0,,,91,0
270720,note_on,120,0,3,,,,,,,,,2,,,79,0
270720,control_change,0,0,3,,,,,,,,,2,64,127,,
270720,note_on,0,0,1,,,,,,,,,0,,,79,0
270720,note_on,0,0,3,,,,,,,,,2,,,45,75
270720,note_on,0,0,1,,,,,,,,,0,,,79,114
270720,note_on,0,0,3,,,,,,,,,2,,,75,0
270720,control_change,0,0,1,,,,,,,,,0,64,127,,
270720,note_on,0,0,3,,,,,,,,,2,,,57,75
270720,note_on,0,0,1,,,,,,,,,0,,,91,114
270840,note_on,0,0,3,,,,,,,,,2,,,62,75
270840,note_on,0,0,3,,,,,,,,,2,,,67,75
270840,note_on,0,0,3,,,,,,,,,2,,,45,0
270840,note_on,120,0,3,,,,,,,,,2,,,57,0
270960,note_on,0,0,3,,,,,,,,,2,,,62,0
270960,note_on,0,0,3,,,,,,,,,2,,,69,75
270960,note_on,120,0,3,,,,,,,,,2,,,67,0
271080,note_on,0,0,3,,,,,,,,,2,,,74,75
271080,note_on,120,0,3,,,,,,,,,2,,,69,0
271080,note_on,0,0,3,,,,,,,,,2,,,79,75
271200,note_on,0,0,1,,,,,,,,,0,,,79,0
271200,note_on,0,0,3,,,,,,,,,2,,,57,75
271200,note_on,480,0,1,,,,,,,,,0,,,91,0
271200,note_on,0,0,3,,,,,,,,,2,,,74,0
271200,note_on,0,0,1,,,,,,,,,0,,,89,88
271200,note_on,120,0,3,,,,,,,,,2,,,79,0
271200,note_on,0,0,1,,,,,,,,,0,,,77,88
271320,note_on,120,0,3,,,,,,,,,2,,,57,0
271320,note_on,0,0,3,,,,,,,,,2,,,65,75
271320,note_on,0,0,3,,,,,,,,,2,,,62,75
271440,note_on,120,0,3,,,,,,,,,2,,,65,0
271440,note_on,0,0,3,,,,,,,,,2,,,69,75
271440,note_on,0,0,3,,,,,,,,,2,,,62,0
271560,note_on,120,0,3,,,,,,,,,2,,,69,0
271560,note_on,0,0,3,,,,,,,,,2,,,74,75
271560,note_on,0,0,3,,,,,,,,,2,,,77,75
271680,note_on,0,0,1,,,,,,,,,0,,,77,0
271680,note_on,120,0,3,,,,,,,,,2,,,77,0
271680,note_on,480,0,1,,,,,,,,,0,,,89,0
271680,note_on,0,0,1,,,,,,,,,0,,,89,114
271680,note_on,0,0,1,,,,,,,,,0,,,77,114
271680,note_on,0,0,3,,,,,,,,,2,,,46,75
271680,note_on,0,0,3,,,,,,,,,2,,,74,0
271800,note_on,120,0,3,,,,,,,,,2,,,46,0
271800,note_on,0,0,3,,,,,,,,,2,,,65,75
271800,note_on,0,0,3,,,,,,,,,2,,,61,75
271920,note_on,0,0,3,,,,,,,,,2,,,67,75
271920,note_on,120,0,3,,,,,,,,,2,,,65,0
271920,note_on,0,0,3,,,,,,,,,2,,,61,0
272040,note_on,0,0,3,,,,,,,,,2,,,77,75
272040,note_on,0,0,3,,,,,,,,,2,,,73,75
272040,note_on,120,0,3,,,,,,,,,2,,,67,0
272160,note_on,0,0,3,,,,,,,,,2,,,73,0
272160,note_on,0,0,1,,,,,,,,,0,,,88,101
272160,note_on,120,0,3,,,,,,,,,2,,,77,0
272160,note_on,0,0,3,,,,,,,,,2,,,55,75
272160,control_change,0,0,1,,,,,,,,,0,64,0,,
272160,note_on,0,0,1,,,,,,,,,0,,,77,0
272160,note_on,0,0,1,,,,,,,,,0,,,76,101
272160,note_on,480,0,1,,,,,,,,,0,,,89,0
272280,note_on,120,0,3,,,,,,,,,2,,,55,0
272280,note_on,0,0,3,,,,,,,,,2,,,61,75
272280,note_on,0,0,3,,,,,,,,,2,,,64,75
272400,note_on,120,0,3,,,,,,,,,2,,,64,0
272400,note_on,0,0,3,,,,,,,,,2,,,61,0
272400,note_on,0,0,3,,,,,,,,,2,,,67,75
272520,note_on,0,0,3,,,,,,,,,2,,,73,75
272520,note_on,120,0,3,,,,,,,,,2,,,67,0
272520,control_change,0,0,3,,,,,,,,,2,64,0,,
272520,note_on,0,0,3,,,,,,,,,2,,,76,75
272640,note_on,480,0,1,,,,,,,,,0,,,88,0
272640,control_change,0,0,1,,,,,,,,,0,64,127,,
272640,note_on,0,0,1,,,,,,,,,0,,,76,0
272640,control_change,0,0,3,,,,,,,,,2,64,127,,
272640,note_on,0,0,1,,,,,,,,,0,,,88,127
272640,note_on,0,0,1,,,,,,,,,0,,,76,127
272640,note_on,0,0,3,,,,,,,,,2,,,73,0
272640,note_on,0,0,3,,,,,,,,,2,,,47,75
272640,note_on,0,0,3,,,,,,,,,2,,,35,75
272640,note_on,120,0,3,,,,,,,,,2,,,76,0
272760,note_on,0,0,3,,,,,,,,,2,,,35,0
272760,note_on,0,0,3,,,,,,,,,2,,,64,75
272760,note_on,0,0,3,,,,,,,,,2,,,59,75
272760,note_on,120,0,3,,,,,,,,,2,,,47,0
272880,note_on,0,0,3,,,,,,,,,2,,,59,0
272880,note_on,0,0,3,,,,,,,,,2,,,68,75
272880,note_on,120,0,3,,,,,,,,,2,,,64,0
273000,note_on,0,0,3,,,,,,,,,2,,,71,75
273000,note_on,0,0,3,,,,,,,,,2,,,76,75
273000,note_on,120,0,3,,,,,,,,,2,,,68,0
273120,note_on,0,0,3,,,,,,,,,2,,,71,0
273120,note_on,120,0,3,,,,,,,,,2,,,76,0
273120,note_on,480,0,1,,,,,,,,,0,,,88,0
273120,note_on,0,0,1,,,,,,,,,0,,,75,88
273120,note_on,0,0,1,,,,,,,,,0,,,76,0
273120,note_on,0,0,1,,,,,,,,,0,,,87,88
273120,note_on,0,0,3,,,,,,,,,2,,,56,75
273240,note_on,120,0,3,,,,,,,,,2,,,56,0
273240,note_on,0,0,3,,,,,,,,,2,,,59,75
273240,note_on,0,0,3,,,,,,,,,2,,,63,75
273360,note_on,0,0,3,,,,,,,,,2,,,68,75
273360,note_on,0,0,3,,,,,,,,,2,,,59,0
273360,note_on,120,0,3,,,,,,,,,2,,,63,0
273480,note_on,0,0,3,,,,,,,,,2,,,75,75
273480,note_on,0,0,3,,,,,,,,,2,,,71,75
273480,note_on,120,0,3,,,,,,,,,2,,,68,0
273600,note_on,0,0,3,,,,,,,,,2,,,40,75
273600,note_on,120,0,3,,,,,,,,,2,,,75,0
273600,note_on,0,0,3,,,,,,,,,2,,,71,0
273600,note_on,0,0,3,,,,,,,,,2,,,52,75
273720,note_on,120,0,3,,,,,,,,,2,,,52,0
273720,note_on,0,0,3,,,,,,,,,2,,,63,75
273720,note_on,0,0,3,,,,,,,,,2,,,40,0
273720,note_on,0,0,3,,,,,,,,,2,,,56,75
273840,note_on,0,0,3,,,,,,,,,2,,,56,0
273840,note_on,0,0,3,,,,,,,,,2,,,64,75
273840,note_on,120,0,3,,,,,,,,,2,,,63,0
273960,note_on,0,0,3,,,,,,,,,2,,,68,75
273960,note_on,0,0,3,,,,,,,,,2,,,75,75
273960,note_on,120,0,3,,,,,,,,,2,,,64,0
274080,note_on,0,0,1,,,,,,,,,0,,,85,88
274080,note_on,0,0,1,,,,,,,,,0,,,75,0
274080,note_on,0,0,1,,,,,,,,,0,,,73,88
274080,control_change,0,0,1,,,,,,,,,0,64,0,,
274080,note_on,960,0,1,,,,,,,,,0,,,87,0
274080,note_on,120,0,3,,,,,,,,,2,,,75,0
274080,note_on,0,0,3,,,,,,,,,2,,,68,0
274080,note_on,0,0,3,,,,,,,,,2,,,52,75
274200,note_on,120,0,3,,,,,,,,,2,,,52,0
274200,note_on,0,0,3,,,,,,,,,2,,,56,75
274200,note_on,0,0,3,,,,,,,,,2,,,61,75
274320,note_on,0,0,3,,,,,,,,,2,,,56,0
274320,note_on,0,0,3,,,,,,,,,2,,,64,75
274320,note_on,120,0,3,,,,,,,,,2,,,61,0
274440,note_on,120,0,3,,,,,,,,,2,,,64,0
274440,note_on,0,0,3,,,,,,,,,2,,,68,75
274440,note_on,0,0,3,,,,,,,,,2,,,73,75
274440,control_change,0,0,3,,,,,,,,,2,64,0,,
274560,control_change,0,0,3,,,,,,,,,2,64,127,,
274560,note_on,0,0,1,,,,,,,,,0,,,73,0
274560,note_on,0,0,1,,,,,,,,,0,,,73,114
274560,note_on,0,0,1,,,,,,,,,0,,,85,114
274560,note_on,120,0,3,,,,,,,,,2,,,73,0
274560,note_on,480,0,1,,,,,,,,,0,,,85,0
274560,control_change,0,0,1,,,,,,,,,0,64,127,,
274560,note_on,0,0,3,,,,,,,,,2,,,51,75
274560,note_on,0,0,3,,,,,,,,,2,,,68,0
274560,note_on,0,0,3,,,,,,,,,2,,,39,75
274680,note_on,120,0,3,,,,,,,,,2,,,51,0
274680,note_on,0,0,3,,,,,,,,,2,,,39,0
274680,note_on,0,0,3,,,,,,,,,2,,,56,75
274680,note_on,0,0,3,,,,,,,,,2,,,61,75
274800,note_on,0,0,3,,,,,,,,,2,,,63,75
274800,note_on,120,0,3,,,,,,,,,2,,,61,0
274800,note_on,0,0,3,,,,,,,,,2,,,56,0
274920,note_on,0,0,3,,,,,,,,,2,,,68,75
274920,note_on,0,0,3,,,,,,,,,2,,,72,75
274920,note_on,120,0,3,,,,,,,,,2,,,63,0
275040,note_on,0,0,1,,,,,,,,,0,,,83,88
275040,note_on,0,0,1,,,,,,,,,0,,,73,0
275040,note_on,0,0,1,,,,,,,,,0,,,71,88
275040,note_on,0,0,3,,,,,,,,,2,,,51,75
275040,note_on,120,0,3,,,,,,,,,2,,,72,0
275040,note_on,0,0,3,,,,,,,,,2,,,68,0
275040,note_on,480,0,1,,,,,,,,,0,,,85,0
275160,note_on,120,0,3,,,,,,,,,2,,,51,0
275160,note_on,0,0,3,,,,,,,,,2,,,59,75
275160,note_on,0,0,3,,,,,,,,,2,,,56,75
275280,note_on,0,0,3,,,,,,,,,2,,,63,75
275280,note_on,0,0,3,,,,,,,,,2,,,56,0
275280,note_on,120,0,3,,,,,,,,,2,,,59,0
275400,note_on,0,0,3,,,,,,,,,2,,,70,75
275400,note_on,0,0,3,,,,,,,,,2,,,68,75
275400,note_on,120,0,3,,,,,,,,,2,,,63,0
275520,note_on,0,0,3,,,,,,,,,2,,,68,0
275520,note_on,0,0,3,,,,,,,,,2,,,37,75
275520,note_on,0,0,1,,,,,,,,,0,,,83,114
275520,note_on,0,0,1,,,,,,,,,0,,,71,114
275520,note_on,120,0,3,,,,,,,,,2,,,70,0
275520,note_on,0,0,1,,,,,,,,,0,,,71,0
275520,note_on,0,0,3,,,,,,,,,2,,,49,75
275520,note_on,480,0,1,,,,,,,,,0,,,83,0
275640,note_on,0,0,3,,,,,,,,,2,,,37,0
275640,note_on,0,0,3,,,,,,,,,2,,,55,75
275640,note_on,120,0,3,,,,,,,,,2,,,49,0
275640,note_on,0,0,3,,,,,,,,,2,,,59,75
275760,note_on,0,0,3,,,,,,,,,2,,,55,0
275760,note_on,0,0,3,,,,,,,,,2,,,63,75
275760,note_on,120,0,3,,,,,,,,,2,,,59,0
275880,note_on,120,0,3,,,,,,,,,2,,,63,0
275880,note_on,0,0,3,,,,,,,,,2,,,70,75
275880,note_on,0,0,3,,,,,,,,,2,,,67,75
276000,note_on,480,0,1,,,,,,,,,0,,,83,0
276000,note_on,0,0,3,,,,,,,,,2,,,49,75
276000,note_on,0,0,3,,,,,,,,,2,,,67,0
276000,note_on,0,0,1,,,,,,,,,0,,,71,0
276000,note_on,0,0,1,,,,,,,,,0,,,82,101
276000,note_on,120,0,3,,,,,,,,,2,,,70,0
276000,control_change,0,0,1,,,,,,,,,0,64,0,,
276000,note_on,0,0,1,,,,,,,,,0,,,70,101
276120,note_on,0,0,3,,,,,,,,,2,,,58,75
276120,note_on,120,0,3,,,,,,,,,2,,,49,0
276120,note_on,0,0,3,,,,,,,,,2,,,55,75
276240,note_on,0,0,3,,,,,,,,,2,,,55,0
276240,note_on,0,0,3,,,,,,,,,2,,,63,75
276240,note_on,120,0,3,,,,,,,,,2,,,58,0
276360,note_on,0,0,3,,,,,,,,,2,,,67,75
276360,note_on,0,0,3,,,,,,,,,2,,,69,75
276360,control_change,0,0,3,,,,,,,,,2,64,0,,
276360,note_on,120,0,3,,,,,,,,,2,,,63,0
276480,note_on,0,0,3,,,,,,,,,2,,,47,75
276480,note_on,0,0,3,,,,,,,,,2,,,35,75
276480,note_on,0,0,1,,,,,,,,,0,,,88,127
276480,note_on,120,0,3,,,,,,,,,2,,,69,0
276480,note_on,480,0,1,,,,,,,,,0,,,82,0
276480,note_on,0,0,3,,,,,,,,,2,,,67,0
276480,note_on,0,0,1,,,,,,,,,0,,,76,127
276480,note_on,0,0,1,,,,,,,,,0,,,70,0
276480,control_change,0,0,1,,,,,,,,,0,64,127,,
276480,control_change,0,0,3,,,,,,,,,2,64,127,,
276600,note_on,0,0,3,,,,,,,,,2,,,64,75
276600,note_on,0,0,3,,,,,,,,,2,,,35,0
276600,note_on,120,0,3,,,,,,,,,2,,,47,0
276600,note_on,0,0,3,,,,,,,,,2,,,59,75
276720,note_on,0,0,3,,,,,,,,,2,,,68,75
276720,note_on,120,0,3,,,,,,,,,2,,,64,0
276720,note_on,0,0,3,,,,,,,,,2,,,59,0
276840,note_on,120,0,3,,,,,,,,,2,,,68,0
276840,note_on,0,0,3,,,,,,,,,2,,,71,75
276840,note_on,0,0,3,,,,,,,,,2,,,76,75
276960,note_on,0,0,1,,,,,,,,,0,,,75,88
276960,note_on,480,0,1,,,,,,,,,0,,,88,0
276960,note_on,120,0,3,,,,,,,,,2,,,76,0
276960,note_on,0,0,1,,,,,,,,,0,,,76,0
276960,note_on,0,0,1,,,,,,,,,0,,,87,88
276960,note_on,0,0,3,,,,,,,,,2,,,56,75
276960,note_on,0,0,3,,,,,,,,,2,,,71,0
277080,note_on,0,0,3,,,,,,,,,2,,,59,75
277080,note_on,0,0,3,,,,,,,,,2,,,63,75
277080,note_on,120,0,3,,,,,,,,,2,,,56,0
277200,note_on,120,0,3,,,,,,,,,2,,,63,0
277200,note_on,0,0,3,,,,,,,,,2,,,59,0
277200,note_on,0,0,3,,,,,,,,,2,,,68,75
277320,note_on,0,0,3,,,,,,,,,2,,,71,75
277320,note_on,0,0,3,,,,,,,,,2,,,75,75
277320,note_on,120,0,3,,,,,,,,,2,,,68,0
277440,note_on,0,0,3,,,,,,,,,2,,,37,75
277440,note_on,0,0,3,,,,,,,,,2,,,71,0
277440,note_on,120,0,3,,,,,,,,,2,,,75,0
277440,note_on,0,0,3,,,,,,,,,2,,,49,75
277560,note_on,0,0,3,,,,,,,,,2,,,57,75
277560,note_on,0,0,3,,,,,,,,,2,,,37,0
277560,note_on,120,0,3,,,,,,,,,2,,,49,0
277560,note_on,0,0,3,,,,,,,,,2,,,63,75
277680,note_on,120,0,3,,,,,,,,,2,,,63,0
277680,note_on,0,0,3,,,,,,,,,2,,,64,75
277680,note_on,0,0,3,,,,,,,,,2,,,57,0
277800,note_on,0,0,3,,,,,,,,,2,,,69,75
277800,note_on,0,0,3,,,,,,,,,2,,,75,75
277800,note_on,120,0,3,,,,,,,,,2,,,64,0
277920,note_on,0,0,1,,,,,,,,,0,,,75,0
277920,note_on,0,0,1,,,,,,,,,0,,,85,88
277920,note_on,120,0,3,,,,,,,,,2,,,75,0
277920,control_change,0,0,1,,,,,,,,,0,64,0,,
277920,note_on,0,0,3,,,,,,,,,2,,,52,75
277920,note_on,0,0,3,,,,,,,,,2,,,69,0
277920,note_on,960,0,1,,,,,,,,,0,,,87,0
277920,note_on,0,0,1,,,,,,,,,0,,,73,88
278040,note_on,0,0,3,,,,,,,,,2,,,61,75
278040,note_on,120,0,3,,,,,,,,,2,,,52,0
278040,note_on,0,0,3,,,,,,,,,2,,,57,75
278160,note_on,0,0,3,,,,,,,,,2,,,57,0
278160,note_on,0,0,3,,,,,,,,,2,,,64,75
278160,note_on,120,0,3,,,,,,,,,2,,,61,0
278280,note_on,120,0,3,,,,,,,,,2,,,64,0
278280,control_change,0,0,3,,,,,,,,,2,64,0,,
278280,note_on,0,0,3,,,,,,,,,2,,,73,75
278280,note_on,0,0,3,,,,,,,,,2,,,69,75
278400,note_on,0,0,1,,,,,,,,,0,,,73,114
278400,note_on,0,0,1,,,,,,,,,0,,,73,0
278400,note_on,480,0,1,,,,,,,,,0,,,85,0
278400,control_change,0,0,1,,,,,,,,,0,64,127,,
278400,control_change,0,0,3,,,,,,,,,2,64,127,,
278400,note_on,120,0,3,,,,,,,,,2,,,73,0
278400,note_on,0,0,1,,,,,,,,,0,,,85,114
278400,note_on,0,0,3,,,,,,,,,2,,,51,75
278400,note_on,0,0,3,,,,,,,,,2,,,39,75
278400,note_on,0,0,3,,,,,,,,,2,,,69,0
278520,note_on,0,0,3,,,,,,,,,2,,,39,0
278520,note_on,0,0,3,,,,,,,,,2,,,56,75
278520,note_on,120,0,3,,,,,,,,,2,,,51,0
278520,note_on,0,0,3,,,,,,,,,2,,,61,75
278640,note_on,0,0,3,,,,,,,,,2,,,56,0
278640,note_on,120,0,3,,,,,,,,,2,,,61,0
278640,note_on,0,0,3,,,,,,,,,2,,,63,75
278760,note_on,0,0,3,,,,,,,,,2,,,68,75
278760,note_on,0,0,3,,,,,,,,,2,,,72,75
278760,note_on,120,0,3,,,,,,,,,2,,,63,0
278880,note_on,480,0,1,,,,,,,,,0,,,85,0
278880,note_on,0,0,3,,,,,,,,,2,,,68,0
278880,note_on,0,0,3,,,,,,,,,2,,,51,75
278880,note_on,120,0,3,,,,,,,,,2,,,72,0
278880,note_on,0,0,1,,,,,,,,,0,,,71,88
278880,note_on,0,0,1,,,,,,,,,0,,,83,88
278880,note_on,0,0,1,,,,,,,,,0,,,73,0
279000,note_on,120,0,3,,,,,,,,,2,,,51,0
279000,note_on,0,0,3,,,,,,,,,2,,,56,75
279000,note_on,0,0,3,,,,,,,,,2,,,59,75
279120,note_on,0,0,3,,,,,,,,,2,,,63,75
279120,note_on,120,0,3,,,,,,,,,2,,,59,0
279120,note_on,0,0,3,,,,,,,,,2,,,56,0
279240,note_on,0,0,3,,,,,,,,,2,,,68,75
279240,note_on,0,0,3,,,,,,,,,2,,,71,75
279240,note_on,120,0,3,,,,,,,,,2,,,63,0
279360,note_on,0,0,3,,,,,,,,,2,,,68,0
279360,note_on,480,0,1,,,,,,,,,0,,,83,0
279360,note_on,0,0,3,,,,,,,,,2,,,39,75
279360,note_on,0,0,1,,,,,,,,,0,,,71,0
279360,note_on,120,0,3,,,,,,,,,2,,,71,0
279480,note_on,0,0,3,,,,,,,,,2,,,47,75
279480,note_on,120,0,3,,,,,,,,,2,,,39,0
279600,note_on,0,0,1,,,,,,,,,0,,,80,88
279600,note_on,120,0,3,,,,,,,,,2,,,47,0
279600,note_on,0,0,3,,,,,,,,,2,,,51,75
279600,note_on,240,0,1,,,,,,,,,0,,,71,88
279600,note_on,0,0,1,,,,,,,,,0,,,83,88
279720,note_on,0,0,3,,,,,,,,,2,,,56,75
279720,note_on,120,0,3,,,,,,,,,2,,,51,0
279840,note_on,120,0,3,,,,,,,,,2,,,56,0
279840,note_on,0,0,1,,,,,,,,,0,,,82,101
279840,note_on,0,0,1,,,,,,,,,0,,,80,0
279840,note_on,0,0,1,,,,,,,,,0,,,70,101
279840,note_on,0,0,1,,,,,,,,,0,,,79,101
279840,note_on,0,0,3,,,,,,,,,2,,,59,88
279840,note_on,240,0,1,,,,,,,,,0,,,83,0
279840,note_on,0,0,1,,,,,,,,,0,,,71,0
279960,note_on,120,0,3,,,,,,,,,2,,,59,0
279960,note_on,0,0,3,,,,,,,,,2,,,63,88
280080,control_change,0,0,1,,,,,,,,,0,64,0,,
280080,note_on,0,0,1,,,,,,,,,0,,,70,0
280080,note_on,240,0,1,,,,,,,,,0,,,82,0
280080,note_on,0,0,1,,,,,,,,,0,,,80,101
280080,note_on,0,0,1,,,,,,,,,0,,,71,101
280080,note_on,0,0,3,,,,,,,,,2,,,68,88
280080,note_on,120,0,3,,,,,,,,,2,,,63,0
280080,note_on,0,0,1,,,,,,,,,0,,,83,101
280080,note_on,0,0,1,,,,,,,,,0,,,79,0
280200,note_on,120,0,3,,,,,,,,,2,,,68,0
280200,control_change,0,0,3,,,,,,,,,2,64,0,,
280200,note_on,0,0,3,,,,,,,,,2,,,75,88
280230,note_on,30,0,3,,,,,,,,,2,,,51,114
280240,note_on,160,0,1,,,,,,,,,0,,,73,127
280260,note_on,30,0,3,,,,,,,,,2,,,58,114
280280,note_on,40,0,1,,,,,,,,,0,,,79,127
280290,note_on,30,0,3,,,,,,,,,2,,,61,114
280296,note_on,6,0,3,,,,,,,,,2,,,51,0
280304,note_on,24,0,1,,,,,,,,,0,,,73,0
280320,note_on,0,0,1,,,,,,,,,0,,,71,0
280320,time_signature,32640,1,0,5,4,24,8,,,,,,,,,
280320,note_on,0,0,1,,,,,,,,,0,,,80,0
280320,control_change,0,0,1,,,,,,,,,0,64,127,,
280320,note_on,0,0,3,,,,,,,,,2,,,67,114
280320,note_on,0,0,3,,,,,,,,,2,,,58,0
280320,control_change,0,0,3,,,,,,,,,2,64,127,,
280320,note_on,24,0,3,,,,,,,,,2,,,75,0
280320,note_on,16,0,1,,,,,,,,,0,,,83,0
280320,note_on,0,0,1,,,,,,,,,0,,,87,127
280335,note_on,15,0,1,,,,,,,,,0,,,79,0
280343,note_on,23,0,3,,,,,,,,,2,,,61,0
280367,note_on,32,0,1,,,,,,,,,0,,,87,0
280367,note_on,24,0,3,,,,,,,,,2,,,67,0
280560,note_on,193,0,3,,,,,,,,,2,,,64,88
280560,note_on,0,0,3,,,,,,,,,2,,,67,88
280560,note_on,193,0,1,,,,,,,,,0,,,73,88
280560,note_on,0,0,1,,,,,,,,,0,,,82,88
280800,note_on,0,0,1,,,,,,,,,0,,,73,0
280800,note_on,240,0,3,,,,,,,,,2,,,67,0
280800,note_on,0,0,3,,,,,,,,,2,,,67,88
280800,note_on,0,0,3,,,,,,,,,2,,,70,88
280800,note_on,0,0,3,,,,,,,,,2,,,64,0
280800,note_on,0,0,1,,,,,,,,,0,,,85,114
280800,note_on,0,0,1,,,,,,,,,0,,,76,114
280800,note_on,240,0,1,,,,,,,,,0,,,82,0
281919,note_on,0,0,3,,,,,,,,,2,,,67,0
281919,note_on,0,0,3,,,,,,,,,2,,,66,88
281919,note_on,0,0,3,,,,,,,,,2,,,69,88
281919,note_on,0,0,1,,,,,,,,,0,,,76,0
281919,note_on,0,0,1,,,,,,,,,0,,,84,88
281919,note_on,1119,0,1,,,,,,,,,0,,,85,0
281919,note_on,1119,0,3,,,,,,,,,2,,,70,0
281919,note_on,0,0,1,,,,,,,,,0,,,75,88
281951,note_on,0,0,1,,,,,,,,,0,,,75,0
281951,note_on,32,0,3,,,,,,,,,2,,,69,0
281951,note_on,32,0,1,,,,,,,,,0,,,84,0
281951,note_on,0,0,3,,,,,,,,,2,,,66,0
282080,note_on,0,0,1,,,,,,,,,0,,,83,88
282080,note_on,129,0,1,,,,,,,,,0,,,74,88
282080,note_on,0,0,3,,,,,,,,,2,,,68,88
282080,note_on,129,0,3,,,,,,,,,2,,,65,88
282112,note_on,32,0,1,,,,,,,,,0,,,83,0
282112,note_on,32,0,3,,,,,,,,,2,,,68,0
282112,note_on,0,0,3,,,,,,,,,2,,,65,0
282112,note_on,0,0,1,,,,,,,,,0,,,74,0
282240,note_on,128,0,1,,,,,,,,,0,,,73,88
282240,note_on,128,0,3,,,,,,,,,2,,,64,88
282240,note_on,0,0,1,,,,,,,,,0,,,82,88
282240,note_on,0,0,3,,,,,,,,,2,,,67,88
282271,note_on,31,0,1,,,,,,,,,0,,,82,0
282271,note_on,31,0,3,,,,,,,,,2,,,67,0
282271,note_on,0,0,3,,,,,,,,,2,,,64,0
282271,note_on,0,0,1,,,,,,,,,0,,,73,0
282399,note_on,128,0,1,,,,,,,,,0,,,72,88
282399,note_on,0,0,3,,,,,,,,,2,,,66,88
282399,note_on,128,0,3,,,,,,,,,2,,,63,88
282399,note_on,0,0,1,,,,,,,,,0,,,81,88
282431,note_on,32,0,1,,,,,,,,,0,,,81,0
282431,note_on,0,0,3,,,,,,,,,2,,,63,0
282431,note_on,32,0,3,,,,,,,,,2,,,66,0
282431,note_on,0,0,1,,,,,,,,,0,,,72,0
282560,note_on,0,0,1,,,,,,,,,0,,,80,88
282560,note_on,129,0,3,,,,,,,,,2,,,62,88
282560,note_on,0,0,3,,,,,,,,,2,,,65,88
282560,note_on,129,0,1,,,,,,,,,0,,,71,88
282592,note_on,0,0,3,,,,,,,,,2,,,62,0
282592,note_on,32,0,1,,,,,,,,,0,,,80,0
282592,note_on,0,0,1,,,,,,,,,0,,,71,0
282592,note_on,32,0,3,,,,,,,,,2,,,65,0
282720,note_on,0,0,1,,,,,,,,,0,,,70,88
282720,control_change,128,0,3,,,,,,,,,2,64,127,,
282720,note_on,0,0,1,,,,,,,,,0,,,79,88
282720,time_signature,2400,1,0,4,4,24,8,,,,,,,,,
282720,control_change,128,0,1,,,,,,,,,0,64,127,,
282720,note_on,0,0,3,,,,,,,,,2,,,61,88
282720,note_on,0,0,3,,,,,,,,,2,,,64,88
282751,note_on,0,0,3,,,,,,,,,2,,,61,0
282751,note_on,31,0,1,,,,,,,,,0,,,79,0
282751,note_on,0,0,1,,,,,,,,,0,,,70,0
282751,note_on,31,0,3,,,,,,,,,2,,,64,0
282879,note_on,128,0,1,,,,,,,,,0,,,69,88
282879,note_on,0,0,1,,,,,,,,,0,,,78,88
282879,note_on,128,0,3,,,,,,,,,2,,,60,88
282879,note_on,0,0,3,,,,,,,,,2,,,63,88
282911,note_on,32,0,3,,,,,,,,,2,,,63,0
282911,note_on,0,0,3,,,,,,,,,2,,,60,0
282911,note_on,32,0,1,,,,,,,,,0,,,78,0
282911,note_on,0,0,1,,,,,,,,,0,,,69,0
282960,set_tempo,240,1,0,,,,,,512821,,,,,,,
283040,note_on,129,0,1,,,,,,,,,0,,,68,88
283040,note_on,0,0,1,,,,,,,,,0,,,77,88
283040,note_on,129,0,3,,,,,,,,,2,,,59,88
283040,note_on,0,0,3,,,,,,,,,2,,,62,88
283072,note_on,32,0,1,,,,,,,,,0,,,77,0
283072,note_on,0,0,1,,,,,,,,,0,,,68,0
283072,note_on,32,0,3,,,,,,,,,2,,,62,0
283072,note_on,0,0,3,,,,,,,,,2,,,59,0
283200,note_on,0,0,1,,,,,,,,,0,,,76,88
283200,note_on,128,0,3,,,,,,,,,2,,,58,88
283200,note_on,128,0,1,,,,,,,,,0,,,67,88
283200,set_tempo,240,1,0,,,,,,526316,,,,,,,
283200,note_on,0,0,3,,,,,,,,,2,,,61,88
283231,note_on,31,0,1,,,,,,,,,0,,,76,0
283231,note_on,0,0,3,,,,,,,,,2,,,58,0
283231,note_on,31,0,3,,,,,,,,,2,,,61,0
283231,note_on,0,0,1,,,,,,,,,0,,,67,0
283359,note_on,128,0,1,,,,,,,,,0,,,66,88
283359,note_on,0,0,3,,,,,,,,,2,,,60,88
283359,note_on,128,0,3,,,,,,,,,2,,,57,88
283359,note_on,0,0,1,,,,,,,,,0,,,75,88
283391,note_on,32,0,3,,,,,,,,,2,,,60,0
283391,note_on,0,0,3,,,,,,,,,2,,,57,0
283391,note_on,0,0,1,,,,,,,,,0,,,66,0
283391,note_on,32,0,1,,,,,,,,,0,,,75,0
283440,set_tempo,240,1,0,,,,,,540541,,,,,,,
283520,note_on,129,0,1,,,,,,,,,0,,,65,88
283520,note_on,0,0,3,,,,,,,,,2,,,59,88
283520,note_on,0,0,1,,,,,,,,,0,,,74,88
283520,note_on,129,0,3,,,,,,,,,2,,,56,88
283552,note_on,0,0,3,,,,,,,,,2,,,56,0
283552,note_on,32,0,3,,,,,,,,,2,,,59,0
283552,note_on,0,0,1,,,,,,,,,0,,,65,0
283552,note_on,32,0,1,,,,,,,,,0,,,74,0
283680,note_on,0,0,1,,,,,,,,,0,,,73,88
283680,note_on,128,0,1,,,,,,,,,0,,,64,88
283680,set_tempo,240,1,0,,,,,,560748,,,,,,,
283680,note_on,0,0,3,,,,,,,,,2,,,58,88
283680,note_on,128,0,3,,,,,,,,,2,,,55,88
283727,note_on,0,0,3,,,,,,,,,2,,,55,0
283727,note_on,0,0,1,,,,,,,,,0,,,64,0
283727,note_on,47,0,1,,,,,,,,,0,,,73,0
283727,note_on,47,0,3,,,,,,,,,2,,,58,0
283920,note_on,193,0,3,,,,,,,,,2,,,54,88
283920,set_tempo,240,1,0,,,,,,576923,,,,,,,
283920,note_on,193,0,1,,,,,,,,,0,,,63,88
283920,note_on,0,0,1,,,,,,,,,0,,,72,88
283920,note_on,0,0,3,,,,,,,,,2,,,57,88
283967,note_on,47,0,3,,,,,,,,,2,,,57,0
283967,note_on,0,0,3,,,,,,,,,2,,,54,0
283967,note_on,0,0,1,,,,,,,,,0,,,63,0
283967,note_on,47,0,1,,,,,,,,,0,,,72,0
284160,note_on,0,0,3,,,,,,,,,2,,,56,88
284160,note_on,193,0,3,,,,,,,,,2,,,53,88
284160,set_tempo,240,1,0,,,,,,594059,,,,,,,
284160,note_on,193,0,1,,,,,,,,,0,,,62,88
284160,note_on,0,0,1,,,,,,,,,0,,,71,88
284207,note_on,0,0,1,,,,,,,,,0,,,62,0
284207,note_on,0,0,3,,,,,,,,,2,,,53,0
284207,note_on,47,0,3,,,,,,,,,2,,,56,0
284207,note_on,47,0,1,,,,,,,,,0,,,71,0
284400,set_tempo,240,1,0,,,,,,612245,,,,,,,
284400,note_on,193,0,3,,,,,,,,,2,,,52,88
284400,note_on,0,0,1,,,,,,,,,0,,,61,88
284400,note_on,0,0,1,,,,,,,,,0,,,70,88
284400,note_on,0,0,3,,,,,,,,,2,,,55,88
284400,control_change,193,0,1,,,,,,,,,0,64,0,,
284447,note_on,47,0,3,,,,,,,,,2,,,55,0
284447,note_on,0,0,1,,,,,,,,,0,,,61,0
284447,note_on,47,0,1,,,,,,,,,0,,,70,0
284447,note_on,0,0,3,,,,,,,,,2,,,52,0
284640,set_tempo,0,1,0,,,,,,638298,,,,,,,
284640,control_change,193,0,1,,,,,,,,,0,64,127,,
284640,note_on,193,0,3,,,,,,,,,2,,,54,88
284640,note_on,0,0,1,,,,,,,,,0,,,69,88
284640,note_on,0,0,1,,,,,,,,,0,,,60,88
284640,time_signature,240,1,0,5,4,24,8,,,,,,,,,
284880,note_on,0,0,1,,,,,,,,,0,,,61,88
284880,note_on,0,0,1,,,,,,,,,0,,,70,88
284880,note_on,0,0,1,,,,,,,,,0,,,60,0
284880,note_on,240,0,1,,,,,,,,,0,,,69,0
284880,note_on,240,0,3,,,,,,,,,2,,,54,0
284880,note_on,0,0,3,,,,,,,,,2,,,55,88
285120,note_on,240,0,1,,,,,,,,,0,,,70,0
285120,note_on,0,0,1,,,,,,,,,0,,,73,114
285120,note_on,0,0,3,,,,,,,,,2,,,55,88
285120,note_on,0,0,1,,,,,,,,,0,,,61,0
285120,note_on,0,0,1,,,,,,,,,0,,,65,114
285120,control_change,0,0,3,,,,,,,,,2,64,0,,
285120,note_on,240,0,3,,,,,,,,,2,,,55,0
286560,note_on,0,0,1,,,,,,,,,0,,,63,88
286560,control_change,0,0,1,,,,,,,,,0,64,0,,
286560,note_on,0,0,1,,,,,,,,,0,,,72,88
286560,note_on,0,0,1,,,,,,,,,0,,,65,0
286560,note_on,1440,0,1,,,,,,,,,0,,,73,0
287040,note_on,0,0,1,,,,,,,,,0,,,68,62
287040,control_change,36000,0,2,,,,,,,,,1,64,127,,
287040,note_on,1920,0,3,,,,,,,,,2,,,55,0
287040,note_on,0,0,2,,,,,,,,,1,,,60,49
287040,set_tempo,0,1,0,,,,,,600000,,,,,,,
287040,key_signature,0,1,0,,,,,Ab,,,,,,,,
287040,time_signature,2400,1,0,4,4,24,8,,,,,,,,,
287040,control_change,0,0,1,,,,,,,,,0,64,127,,
287040,note_on,480,0,1,,,,,,,,,0,,,72,0
287040,note_on,0,0,1,,,,,,,,,0,,,63,0
287280,note_on,240,0,2,,,,,,,,,1,,,60,0
287280,note_on,0,0,2,,,,,,,,,1,,,63,49
287280,note_on,240,0,3,,,,,,,,,2,,,51,49
287520,note_on,0,0,2,,,,,,,,,1,,,60,49
287520,note_on,240,0,3,,,,,,,,,2,,,51,0
287520,note_on,480,0,1,,,,,,,,,0,,,68,0
287520,note_on,0,0,3,,,,,,,,,2,,,44,49
287520,note_on,240,0,2,,,,,,,,,1,,,63,0
287760,note_on,240,0,3,,,,,,,,,2,,,44,0
287760,note_on,0,0,2,,,,,,,,,1,,,63,49
287760,note_on,0,0,3,,,,,,,,,2,,,51,49
287760,note_on,240,0,2,,,,,,,,,1,,,60,0
288000,note_on,240,0,3,,,,,,,,,2,,,51,0
288000,note_on,240,0,2,,,,,,,,,1,,,63,0
288000,note_on,0,0,2,,,,,,,,,1,,,60,49
288000,note_on,0,0,3,,,,,,,,,2,,,56,49
288240,note_on,240,0,2,,,,,,,,,1,,,60,0
288240,note_on,0,0,3,,,,,,,,,2,,,51,49
288240,note_on,0,0,2,,,,,,,,,1,,,63,49
288240,note_on,240,0,3,,,,,,,,,2,,,56,0
288400,note_on,880,0,1,,,,,,,,,0,,,60,62
288440,note_on,40,0,1,,,,,,,,,0,,,68,62
288480,note_on,40,0,1,,,,,,,,,0,,,73,62
288480,control_change,0,0,2,,,,,,,,,1,64,0,,
288480,note_on,240,0,3,,,,,,,,,2,,,51,0
288480,note_on,240,0,2,,,,,,,,,1,,,63,0
288480,note_on,0,0,3,,,,,,,,,2,,,63,49
288720,note_on,0,0,3,,,,,,,,,2,,,56,49
288720,note_on,240,0,3,,,,,,,,,2,,,63,0
288840,note_on,360,0,1,,,,,,,,,0,,,73,0
288840,control_change,0,0,1,,,,,,,,,0,64,0,,
288840,note_on,0,0,1,,,,,,,,,0,,,72,62
288840,note_on,0,0,1,,,,,,,,,0,,,68,0
288840,note_on,0,0,1,,,,,,,,,0,,,60,0
288960,control_change,0,0,1,,,,,,,,,0,64,127,,
288960,note_on,120,0,1,,,,,,,,,0,,,72,0
288960,note_on,0,0,1,,,,,,,,,0,,,72,62
288960,note_on,240,0,3,,,,,,,,,2,,,56,0
289200,note_on,0,0,2,,,,,,,,,1,,,62,49
289200,note_on,0,0,3,,,,,,,,,2,,,53,49
289200,note_on,0,0,2,,,,,,,,,1,,,65,49
289200,control_change,240,0,3,,,,,,,,,2,64,127,,
289200,control_change,720,0,2,,,,,,,,,1,64,127,,
289440,note_on,480,0,1,,,,,,,,,0,,,72,0
289440,note_on,240,0,3,,,,,,,,,2,,,53,0
289440,note_on,0,0,1,,,,,,,,,0,,,71,62
289440,note_on,0,0,3,,,,,,,,,2,,,44,49
289680,note_on,0,0,2,,,,,,,,,1,,,62,0
289680,note_on,0,0,3,,,,,,,,,2,,,53,49
289680,note_on,0,0,2,,,,,,,,,1,,,62,49
289680,note_on,480,0,2,,,,,,,,,1,,,65,0
289680,note_on,240,0,3,,,,,,,,,2,,,44,0
289680,note_on,0,0,2,,,,,,,,,1,,,65,49
289920,note_on,240,0,2,,,,,,,,,1,,,65,0
289920,note_on,240,0,3,,,,,,,,,2,,,53,0
289920,note_on,0,0,2,,,,,,,,,1,,,62,0
289920,note_on,0,0,1,,,,,,,,,0,,,71,62
289920,note_on,480,0,1,,,,,,,,,0,,,71,0
289920,note_on,0,0,3,,,,,,,,,2,,,59,49
290016,note_on,96,0,1,,,,,,,,,0,,,71,0
290160,note_on,240,0,2,,,,,,,,,1,,,62,49
290160,note_on,0,0,2,,,,,,,,,1,,,65,49
290160,note_on,240,0,3,,,,,,,,,2,,,59,0
290160,note_on,0,0,3,,,,,,,,,2,,,53,49
290400,note_on,0,0,3,,,,,,,,,2,,,62,49
290400,note_on,0,0,2,,,,,,,,,1,,,62,0
290400,control_change,384,0,1,,,,,,,,,0,64,0,,
290400,note_on,240,0,2,,,,,,,,,1,,,65,0
290400,note_on,240,0,3,,,,,,,,,2,,,53,0
290400,note_on,0,0,1,,,,,,,,,0,,,71,62
290496,note_on,96,0,1,,,,,,,,,0,,,71,0
290640,note_on,0,0,3,,,,,,,,,2,,,56,49
290640,note_on,0,0,2,,,,,,,,,1,,,62,49
290640,note_on,0,0,2,,,,,,,,,1,,,65,49
290640,note_on,240,0,3,,,,,,,,,2,,,62,0
290640,control_change,240,0,2,,,,,,,,,1,64,0,,
290880,note_on,240,0,3,,,,,,,,,2,,,56,0
290880,note_on,0,0,2,,,,,,,,,1,,,62,0
290880,control_change,384,0,1,,,,,,,,,0,64,127,,
290880,note_on,0,0,1,,,,,,,,,0,,,77,62
290880,note_on,240,0,2,,,,,,,,,1,,,65,0
291120,control_change,240,0,3,,,,,,,,,2,64,127,,
291120,note_on,0,0,3,,,,,,,,,2,,,51,49
291120,control_change,240,0,2,,,,,,,,,1,64,127,,
291120,note_on,0,0,2,,,,,,,,,1,,,68,49
291120,note_on,0,0,2,,,,,,,,,1,,,60,49
291360,note_on,240,0,3,,,,,,,,,2,,,51,0
291360,note_on,0,0,3,,,,,,,,,2,,,44,49
291360,note_on,480,0,1,,,,,,,,,0,,,77,0
291360,note_on,0,0,1,,,,,,,,,0,,,75,62
291600,note_on,0,0,2,,,,,,,,,1,,,60,0
291600,note_on,0,0,2,,,,,,,,,1,,,60,49
291600,note_on,0,0,2,,,,,,,,,1,,,68,49
291600,note_on,480,0,2,,,,,,,,,1,,,68,0
291600,note_on,0,0,3,,,,,,,,,2,,,51,49
291600,note_on,240,0,3,,,,,,,,,2,,,44,0
291840,note_on,0,0,2,,,,,,,,,1,,,60,0
291840,note_on,0,0,3,,,,,,,,,2,,,56,49
291840,note_on,240,0,3,,,,,,,,,2,,,51,0
291840,note_on,240,0,2,,,,,,,,,1,,,68,0
292080,note_on,0,0,2,,,,,,,,,1,,,68,49
292080,note_on,240,0,2,,,,,,,,,1,,,60,49
292080,note_on,240,0,3,,,,,,,,,2,,,56,0
292080,note_on,0,0,3,,,,,,,,,2,,,51,49
292320,note_on,0,0,1,,,,,,,,,0,,,73,62
292320,note_on,960,0,1,,,,,,,,,0,,,75,0
292320,note_on,0,0,2,,,,,,,,,1,,,60,0
292320,note_on,0,0,3,,,,,,,,,2,,,63,49
292320,note_on,240,0,2,,,,,,,,,1,,,68,0
292320,note_on,240,0,3,,,,,,,,,2,,,51,0
292560,note_on,240,0,3,,,,,,,,,2,,,63,0
292560,note_on,0,0,3,,,,,,,,,2,,,56,49
292560,control_change,0,0,3,,,,,,,,,2,64,0,,
292560,note_on,0,0,2,,,,,,,,,1,,,68,49
292560,note_on,0,0,2,,,,,,,,,1,,,63,49
292560,control_change,240,0,2,,,,,,,,,1,64,0,,
292680,note_on,0,0,1,,,,,,,,,0,,,72,62
292680,control_change,0,0,1,,,,,,,,,0,64,0,,
292680,note_on,360,0,1,,,,,,,,,0,,,73,0
292800,control_change,0,0,1,,,,,,,,,0,64,127,,
292800,note_on,120,0,1,,,,,,,,,0,,,72,0
292800,control_change,0,0,3,,,,,,,,,2,64,127,,
292800,note_on,240,0,2,,,,,,,,,1,,,68,0
292800,note_on,240,0,3,,,,,,,,,2,,,56,0
292800,note_on,0,0,1,,,,,,,,,0,,,72,62
292800,note_on,0,0,2,,,,,,,,,1,,,63,0
293040,control_change,240,0,2,,,,,,,,,1,64,127,,
293040,note_on,0,0,2,,,,,,,,,1,,,65,49
293040,note_on,0,0,2,,,,,,,,,1,,,62,49
293040,note_on,240,0,3,,,,,,,,,2,,,53,49
293280,note_on,0,0,3,,,,,,,,,2,,,44,49
293280,note_on,0,0,1,,,,,,,,,0,,,70,62
293280,note_on,240,0,3,,,,,,,,,2,,,53,0
293280,note_on,480,0,1,,,,,,,,,0,,,72,0
293520,note_on,0,0,2,,,,,,,,,1,,,62,49
293520,note_on,480,0,2,,,,,,,,,1,,,65,0
293520,note_on,0,0,3,,,,,,,,,2,,,58,49
293520,note_on,0,0,3,,,,,,,,,2,,,53,49
293520,note_on,240,0,3,,,,,,,,,2,,,44,0
293520,note_on,0,0,2,,,,,,,,,1,,,65,49
293520,note_on,0,0,2,,,,,,,,,1,,,62,0
293760,note_on,240,0,2,,,,,,,,,1,,,65,0
293760,note_on,240,0,3,,,,,,,,,2,,,58,0
293760,note_on,0,0,1,,,,,,,,,0,,,72,62
293760,note_on,0,0,2,,,,,,,,,1,,,62,0
293760,note_on,0,0,3,,,,,,,,,2,,,53,0
293760,note_on,480,0,1,,,,,,,,,0,,,70,0
294000,note_on,240,0,3,,,,,,,,,2,,,52,49
294000,note_on,0,0,3,,,,,,,,,2,,,55,49
294000,note_on,0,0,2,,,,,,,,,1,,,64,49
294000,note_on,240,0,2,,,,,,,,,1,,,61,49
294240,note_on,480,0,1,,,,,,,,,0,,,72,0
294240,note_on,0,0,1,,,,,,,,,0,,,73,62
294240,note_on,240,0,3,,,,,,,,,2,,,55,0
294240,note_on,0,0,3,,,,,,,,,2,,,44,49
294240,note_on,0,0,3,,,,,,,,,2,,,52,0
294480,note_on,240,0,3,,,,,,,,,2,,,44,0
294480,control_change,0,0,2,,,,,,,,,1,64,0,,
294480,note_on,0,0,3,,,,,,,,,2,,,55,49
294480,control_change,0,0,3,,,,,,,,,2,64,0,,
294480,note_on,0,0,3,,,,,,,,,2,,,58,49
294480,note_on,0,0,2,,,,,,,,,1,,,61,0
294480,note_on,0,0,2,,,,,,,,,1,,,61,49
294480,note_on,0,0,2,,,,,,,,,1,,,64,49
294480,note_on,480,0,2,,,,,,,,,1,,,64,0
294600,control_change,0,0,1,,,,,,,,,0,64,0,,
294600,note_on,0,0,1,,,,,,,,,0,,,67,62
294600,note_on,360,0,1,,,,,,,,,0,,,73,0
294720,note_on,0,0,3,,,,,,,,,2,,,55,0
294720,note_on,120,0,1,,,,,,,,,0,,,67,0
294720,note_on,0,0,2,,,,,,,,,1,,,61,0
294720,control_change,0,0,1,,,,,,,,,0,64,127,,
294720,note_on,240,0,2,,,,,,,,,1,,,64,0
294720,note_on,240,0,3,,,,,,,,,2,,,58,0
294720,note_on,0,0,1,,,,,,,,,0,,,70,62
294960,note_on,0,0,2,,,,,,,,,1,,,60,49
294960,control_change,240,0,3,,,,,,,,,2,64,127,,
294960,note_on,0,0,2,,,,,,,,,1,,,63,49
294960,control_change,240,0,2,,,,,,,,,1,64,127,,
294960,note_on,0,0,3,,,,,,,,,2,,,51,49
295200,note_on,480,0,1,,,,,,,,,0,,,70,0
295200,note_on,0,0,3,,,,,,,,,2,,,44,49
295200,note_on,0,0,1,,,,,,,,,0,,,68,62
295200,note_on,240,0,3,,,,,,,,,2,,,51,0
295440,note_on,0,0,2,,,,,,,,,1,,,60,49
295440,note_on,0,0,2,,,,,,,,,1,,,60,0
295440,note_on,0,0,3,,,,,,,,,2,,,51,49
295440,note_on,480,0,2,,,,,,,,,1,,,63,0
295440,note_on,0,0,2,,,,,,,,,1,,,63,49
295440,note_on,240,0,3,,,,,,,,,2,,,44,0
295680,note_on,240,0,3,,,,,,,,,2,,,51,0
295680,note_on,240,0,2,,,,,,,,,1,,,63,0
295680,note_on,0,0,3,,,,,,,,,2,,,56,49
295680,note_on,0,0,2,,,,,,,,,1,,,60,0
295920,note_on,240,0,2,,,,,,,,,1,,,60,49
295920,note_on,0,0,2,,,,,,,,,1,,,63,49
295920,note_on,240,0,3,,,,,,,,,2,,,56,0
295920,note_on,0,0,3,,,,,,,,,2,,,51,49
296160,note_on,240,0,2,,,,,,,,,1,,,63,0
296160,note_on,240,0,3,,,,,,,,,2,,,51,0
296160,note_on,960,0,1,,,,,,,,,0,,,68,0
296160,note_on,0,0,1,,,,,,,,,0,,,73,62
296160,note_on,0,0,2,,,,,,,,,1,,,60,0
296160,note_on,0,0,3,,,,,,,,,2,,,63,49
296400,note_on,240,0,3,,,,,,,,,2,,,63,0
296400,note_on,0,0,3,,,,,,,,,2,,,56,49
296400,control_change,0,0,3,,,,,,,,,2,64,0,,
296400,note_on,0,0,2,,,,,,,,,1,,,60,49
296400,control_change,240,0,2,,,,,,,,,1,64,0,,
296400,note_on,0,0,2,,,,,,,,,1,,,68,49
296520,note_on,360,0,1,,,,,,,,,0,,,73,0
296520,note_on,0,0,1,,,,,,,,,0,,,72,62
296520,control_change,0,0,1,,,,,,,,,0,64,0,,
296640,control_change,0,0,1,,,,,,,,,0,64,127,,
296640,note_on,240,0,2,,,,,,,,,1,,,68,0
296640,note_on,240,0,3,,,,,,,,,2,,,56,0
296640,note_on,0,0,2,,,,,,,,,1,,,60,0
296640,note_on,0,0,1,,,,,,,,,0,,,72,62
296640,note_on,120,0,1,,,,,,,,,0,,,72,0
296880,note_on,0,0,3,,,,,,,,,2,,,53,49
296880,note_on,0,0,2,,,,,,,,,1,,,65,49
296880,note_on,0,0,2,,,,,,,,,1,,,62,49
296880,control_change,240,0,3,,,,,,,,,2,64,127,,
296880,control_change,240,0,2,,,,,,,,,1,64,127,,
297120,note_on,240,0,3,,,,,,,,,2,,,53,0
297120,note_on,480,0,1,,,,,,,,,0,,,72,0
297120,note_on,0,0,1,,,,,,,,,0,,,71,62
297120,note_on,0,0,3,,,,,,,,,2,,,44,49
297360,note_on,0,0,2,,,,,,,,,1,,,62,49
297360,note_on,0,0,2,,,,,,,,,1,,,62,0
297360,note_on,0,0,3,,,,,,,,,2,,,53,49
297360,note_on,240,0,3,,,,,,,,,2,,,44,0
297360,note_on,0,0,2,,,,,,,,,1,,,65,49
297360,note_on,480,0,2,,,,,,,,,1,,,65,0
297600,note_on,0,0,1,,,,,,,,,0,,,71,62
297600,note_on,480,0,1,,,,,,,,,0,,,71,0
297600,note_on,240,0,2,,,,,,,,,1,,,65,0
297600,note_on,240,0,3,,,,,,,,,2,,,53,0
297600,note_on,0,0,3,,,,,,,,,2,,,59,49
297600,note_on,0,0,2,,,,,,,,,1,,,62,0
297696,note_on,96,0,1,,,,,,,,,0,,,71,0
297840,note_on,240,0,2,,,,,,,,,1,,,62,49
297840,note_on,0,0,3,,,,,,,,,2,,,53,49
297840,note_on,240,0,3,,,,,,,,,2,,,59,0
297840,note_on,0,0,2,,,,,,,,,1,,,65,49
298080,note_on,0,0,2,,,,,,,,,1,,,62,0
298080,note_on,240,0,2,,,,,,,,,1,,,65,0
298080,note_on,240,0,3,,,,,,,,,2,,,53,0
298080,note_on,0,0,1,,,,,,,,,0,,,71,75
298080,control_change,384,0,1,,,,,,,,,0,64,0,,
298080,note_on,0,0,3,,,,,,,,,2,,,62,49
298176,note_on,96,0,1,,,,,,,,,0,,,71,0
298320,note_on,240,0,3,,,,,,,,,2,,,62,0
298320,control_change,0,0,3,,,,,,,,,2,64,0,,
298320,note_on,0,0,3,,,,,,,,,2,,,56,49
298320,control_change,240,0,2,,,,,,,,,1,64,0,,
298320,note_on,0,0,2,,,,,,,,,1,,,62,49
298320,note_on,0,0,2,,,,,,,,,1,,,65,49
298560,control_change,384,0,1,,,,,,,,,0,64,127,,
298560,note_on,240,0,2,,,,,,,,,1,,,65,0
298560,note_on,0,0,1,,,,,,,,,0,,,80,101
298560,note_on,0,0,2,,,,,,,,,1,,,62,0
298560,note_on,240,0,3,,,,,,,,,2,,,56,0
298800,control_change,240,0,2,,,,,,,,,1,64,127,,
298800,note_on,0,0,3,,,,,,,,,2,,,54,49
298800,note_on,0,0,2,,,,,,,,,1,,,71,49
298800,set_tempo,11760,1,0,,,,,,582524,,,,,,,
298800,control_change,240,0,3,,,,,,,,,2,64,127,,
298800,note_on,0,0,2,,,,,,,,,1,,,63,49
299040,note_on,480,0,1,,,,,,,,,0,,,80,0
299040,note_on,240,0,3,,,,,,,,,2,,,54,0
299040,note_on,0,0,1,,,,,,,,,0,,,78,62
299040,note_on,0,0,3,,,,,,,,,2,,,42,49
299040,set_tempo,240,1,0,,,,,,566038,,,,,,,
299280,note_on,0,0,2,,,,,,,,,1,,,63,49
299280,note_on,0,0,2,,,,,,,,,1,,,71,49
299280,note_on,0,0,3,,,,,,,,,2,,,54,49
299280,note_on,480,0,2,,,,,,,,,1,,,71,0
299280,set_tempo,240,1,0,,,,,,550459,,,,,,,
299280,note_on,0,0,2,,,,,,,,,1,,,63,0
299280,note_on,240,0,3,,,,,,,,,2,,,42,0
299520,set_tempo,240,1,0,,,,,,530973,,,,,,,
299520,note_on,0,0,3,,,,,,,,,2,,,59,49
299520,note_on,240,0,3,,,,,,,,,2,,,54,0
299520,note_on,0,0,2,,,,,,,,,1,,,63,0
299520,note_on,240,0,2,,,,,,,,,1,,,71,0
299760,set_tempo,240,1,0,,,,,,517241,,,,,,,
299760,note_on,0,0,2,,,,,,,,,1,,,71,49
299760,note_on,0,0,3,,,,,,,,,2,,,54,49
299760,note_on,240,0,2,,,,,,,,,1,,,63,49
299760,note_on,240,0,3,,,,,,,,,2,,,59,0
300000,note_on,0,0,3,,,,,,,,,2,,,66,49
300000,note_on,0,0,2,,,,,,,,,1,,,63,0
300000,note_on,240,0,2,,,,,,,,,1,,,71,0
300000,note_on,0,0,1,,,,,,,,,0,,,76,62
300000,set_tempo,240,1,0,,,,,,504202,,,,,,,
300000,note_on,960,0,1,,,,,,,,,0,,,78,0
300000,note_on,240,0,3,,,,,,,,,2,,,54,0
300240,control_change,240,0,2,,,,,,,,,1,64,0,,
300240,control_change,0,0,3,,,,,,,,,2,64,0,,
300240,note_on,0,0,2,,,,,,,,,1,,,63,49
300240,set_tempo,240,1,0,,,,,,491803,,,,,,,
300240,note_on,0,0,2,,,,,,,,,1,,,71,49
300240,note_on,240,0,3,,,,,,,,,2,,,66,0
300240,note_on,0,0,3,,,,,,,,,2,,,59,49
300360,control_change,0,0,1,,,,,,,,,0,64,0,,
300360,note_on,360,0,1,,,,,,,,,0,,,76,0
300360,note_on,0,0,1,,,,,,,,,0,,,75,62
300480,note_on,0,0,2,,,,,,,,,1,,,63,0
300480,note_on,120,0,1,,,,,,,,,0,,,75,0
300480,note_on,240,0,3,,,,,,,,,2,,,59,0
300480,set_tempo,240,1,0,,,,,,476190,,,,,,,
300480,control_change,0,0,1,,,,,,,,,0,64,127,,
300480,note_on,240,0,2,,,,,,,,,1,,,71,0
300480,note_on,0,0,1,,,,,,,,,0,,,75,62
300720,note_on,0,0,3,,,,,,,,,2,,,42,49
300720,note_on,0,0,2,,,,,,,,,1,,,70,49
300720,control_change,240,0,3,,,,,,,,,2,64,127,,
300720,control_change,240,0,2,,,,,,,,,1,64,127,,
300720,note_on,0,0,2,,,,,,,,,1,,,64,49
300960,note_on,0,0,3,,,,,,,,,2,,,52,49
300960,note_on,480,0,1,,,,,,,,,0,,,75,0
300960,note_on,240,0,3,,,,,,,,,2,,,42,0
300960,note_on,0,0,1,,,,,,,,,0,,,73,62
301200,note_on,480,0,2,,,,,,,,,1,,,70,0
301200,note_on,0,0,3,,,,,,,,,2,,,58,49
301200,note_on,240,0,3,,,,,,,,,2,,,52,0
301200,note_on,0,0,2,,,,,,,,,1,,,70,49
301200,note_on,0,0,2,,,,,,,,,1,,,64,49
301200,note_on,0,0,2,,,,,,,,,1,,,64,0
301440,note_on,0,0,2,,,,,,,,,1,,,64,0
301440,note_on,240,0,2,,,,,,,,,1,,,70,0
301440,note_on,480,0,1,,,,,,,,,0,,,73,0
301440,note_on,240,0,3,,,,,,,,,2,,,58,0
301440,note_on,0,0,1,,,,,,,,,0,,,73,62
301536,note_on,96,0,1,,,,,,,,,0,,,73,0
301680,note_on,240,0,3,,,,,,,,,2,,,40,49
301680,note_on,0,0,2,,,,,,,,,1,,,69,49
301680,note_on,240,0,2,,,,,,,,,1,,,61,49
301680,note_on,0,0,3,,,,,,,,,2,,,57,49
301727,note_on,47,0,3,,,,,,,,,2,,,57,0
301727,note_on,0,0,3,,,,,,,,,2,,,40,0
301920,note_on,240,0,2,,,,,,,,,1,,,69,0
301920,note_on,0,0,2,,,,,,,,,1,,,61,0
301920,note_on,0,0,1,,,,,,,,,0,,,73,62
301920,control_change,384,0,1,,,,,,,,,0,64,0,,
302016,note_on,96,0,1,,,,,,,,,0,,,73,0
302160,note_on,0,0,2,,,,,,,,,1,,,68,49
302160,note_on,0,0,2,,,,,,,,,1,,,61,49
302160,note_on,0,0,3,,,,,,,,,2,,,40,49
302160,control_change,240,0,2,,,,,,,,,1,64,0,,
302160,note_on,0,0,3,,,,,,,,,2,,,56,49
302160,control_change,433,0,3,,,,,,,,,2,64,0,,
302207,note_on,47,0,3,,,,,,,,,2,,,56,0
302207,note_on,0,0,3,,,,,,,,,2,,,40,0
302400,note_on,0,0,2,,,,,,,,,1,,,61,0
302400,note_on,240,0,2,,,,,,,,,1,,,68,0
302400,set_tempo,1920,1,0,,,,,,500000,,,,,,,
302400,note_on,384,0,1,,,,,,,,,0,,,73,75
302640,control_change,240,0,2,,,,,,,,,1,64,127,,
302640,control_change,433,0,3,,,,,,,,,2,64,127,,
302640,note_on,0,0,3,,,,,,,,,2,,,39,62
302640,note_on,0,0,2,,,,,,,,,1,,,68,62
302640,note_on,0,0,2,,,,,,,,,1,,,61,62
302640,note_on,0,0,2,,,,,,,,,1,,,65,62
302880,note_on,0,0,3,,,,,,,,,2,,,56,88
302880,note_on,0,0,3,,,,,,,,,2,,,61,88
302880,note_on,0,0,3,,,,,,,,,2,,,53,88
302880,note_on,0,0,2,,,,,,,,,1,,,65,62
302880,note_on,0,0,2,,,,,,,,,1,,,68,62
302880,note_on,0,0,2,,,,,,,,,1,,,65,0
302880,note_on,0,0,2,,,,,,,,,1,,,61,0
302880,note_on,240,0,3,,,,,,,,,2,,,39,0
302880,note_on,240,0,2,,,,,,,,,1,,,68,0
302952,note_on,72,0,3,,,,,,,,,2,,,61,0
302952,note_on,0,0,3,,,,,,,,,2,,,53,0
302952,note_on,0,0,3,,,,,,,,,2,,,56,0
303120,note_on,0,0,2,,,,,,,,,1,,,65,0
303120,note_on,0,0,2,,,,,,,,,1,,,68,62
303120,note_on,0,0,2,,,,,,,,,1,,,65,62
303120,note_on,240,0,2,,,,,,,,,1,,,68,0
303240,note_on,288,0,3,,,,,,,,,2,,,51,62
303240,note_on,0,0,3,,,,,,,,,2,,,56,62
303240,note_on,0,0,3,,,,,,,,,2,,,60,62
303360,note_on,0,0,3,,,,,,,,,2,,,56,0
303360,note_on,0,0,3,,,,,,,,,2,,,51,88
303360,note_on,0,0,3,,,,,,,,,2,,,51,0
303360,note_on,0,0,3,,,,,,,,,2,,,60,88
303360,note_on,120,0,3,,,,,,,,,2,,,60,0
303360,note_on,240,0,2,,,,,,,,,1,,,68,0
303360,note_on,0,0,2,,,,,,,,,1,,,65,0
303360,note_on,0,0,2,,,,,,,,,1,,,65,62
303360,note_on,0,0,2,,,,,,,,,1,,,68,62
303360,note_on,0,0,3,,,,,,,,,2,,,56,88
303600,note_on,0,0,2,,,,,,,,,1,,,65,0
303600,note_on,240,0,2,,,,,,,,,1,,,68,0
303600,note_on,0,0,2,,,,,,,,,1,,,68,62
303600,note_on,0,0,2,,,,,,,,,1,,,65,62
303840,note_on,0,0,3,,,,,,,,,2,,,56,0
303840,note_on,480,0,3,,,,,,,,,2,,,60,0
303840,note_on,0,0,2,,,,,,,,,1,,,65,0
303840,note_on,0,0,3,,,,,,,,,2,,,58,62
303840,note_on,0,0,3,,,,,,,,,2,,,53,62
303840,note_on,0,0,3,,,,,,,,,2,,,51,0
303840,note_on,0,0,3,,,,,,,,,2,,,49,62
303840,note_on,1440,0,1,,,,,,,,,0,,,73,0
303840,note_on,0,0,1,,,,,,,,,0,,,73,75
303840,note_on,240,0,2,,,,,,,,,1,,,68,0
304080,note_on,0,0,2,,,,,,,,,1,,,68,62
304080,note_on,0,0,2,,,,,,,,,1,,,65,62
304080,note_on,0,0,2,,,,,,,,,1,,,61,62
304080,control_change,0,0,3,,,,,,,,,2,64,0,,
304080,note_on,240,0,3,,,,,,,,,2,,,58,0
304080,control_change,240,0,2,,,,,,,,,1,64,0,,
304080,note_on,0,0,3,,,,,,,,,2,,,49,0
304080,note_on,0,0,3,,,,,,,,,2,,,53,0
304320,note_on,0,0,1,,,,,,,,,0,,,77,88
304320,note_on,240,0,2,,,,,,,,,1,,,68,0
304320,note_on,480,0,1,,,,,,,,,0,,,73,0
304320,note_on,0,0,2,,,,,,,,,1,,,61,0
304320,note_on,0,0,2,,,,,,,,,1,,,65,0
304560,control_change,240,0,2,,,,,,,,,1,64,127,,
304560,note_on,0,0,2,,,,,,,,,1,,,73,75
304560,control_change,480,0,3,,,,,,,,,2,64,127,,
304560,note_on,0,0,2,,,,,,,,,1,,,65,75
304560,note_on,0,0,2,,,,,,,,,1,,,68,75
304560,note_on,0,0,3,,,,,,,,,2,,,39,75
304800,note_on,0,0,2,,,,,,,,,1,,,68,0
304800,note_on,0,0,2,,,,,,,,,1,,,73,75
304800,note_on,0,0,3,,,,,,,,,2,,,61,101
304800,note_on,240,0,2,,,,,,,,,1,,,73,0
304800,note_on,240,0,3,,,,,,,,,2,,,39,0
304800,note_on,0,0,3,,,,,,,,,2,,,56,101
304800,note_on,0,0,3,,,,,,,,,2,,,65,101
304800,note_on,0,0,2,,,,,,,,,1,,,65,0
304800,note_on,0,0,2,,,,,,,,,1,,,68,75
304872,note_on,0,0,3,,,,,,,,,2,,,61,0
304872,note_on,72,0,3,,,,,,,,,2,,,65,0
304872,note_on,0,0,3,,,,,,,,,2,,,56,0
305040,note_on,0,0,2,,,,,,,,,1,,,68,75
305040,note_on,0,0,2,,,,,,,,,1,,,73,75
305040,note_on,0,0,2,,,,,,,,,1,,,65,75
305040,note_on,240,0,2,,,,,,,,,1,,,73,0
305040,note_on,0,0,2,,,,,,,,,1,,,68,0
305160,note_on,0,0,3,,,,,,,,,2,,,61,75
305160,note_on,0,0,3,,,,,,,,,2,,,56,75
305160,note_on,288,0,3,,,,,,,,,2,,,53,75
305280,note_on,0,0,3,,,,,,,,,2,,,53,101
305280,note_on,0,0,3,,,,,,,,,2,,,56,0
305280,note_on,0,0,3,,,,,,,,,2,,,56,101
305280,note_on,120,0,3,,,,,,,,,2,,,61,0
305280,note_on,0,0,3,,,,,,,,,2,,,61,101
305280,note_on,0,0,3,,,,,,,,,2,,,53,0
305280,note_on,0,0,2,,,,,,,,,1,,,65,0
305280,note_on,0,0,2,,,,,,,,,1,,,68,0
305280,note_on,0,0,2,,,,,,,,,1,,,68,75
305280,note_on,0,0,2,,,,,,,,,1,,,73,75
305280,note_on,0,0,2,,,,,,,,,1,,,65,75
305280,note_on,240,0,2,,,,,,,,,1,,,73,0
305520,note_on,0,0,3,,,,,,,,,2,,,60,75
305520,note_on,240,0,3,,,,,,,,,2,,,61,0
305520,note_on,0,0,3,,,,,,,,,2,,,56,0
305520,note_on,0,0,3,,,,,,,,,2,,,51,75
305520,note_on,240,0,2,,,,,,,,,1,,,73,0
305520,note_on,0,0,3,,,,,,,,,2,,,56,75
305520,note_on,0,0,2,,,,,,,,,1,,,68,75
305520,note_on,0,0,2,,,,,,,,,1,,,68,0
305520,note_on,0,0,2,,,,,,,,,1,,,65,75
305520,note_on,0,0,2,,,,,,,,,1,,,65,0
305520,note_on,0,0,2,,,,,,,,,1,,,73,75
305520,note_on,0,0,3,,,,,,,,,2,,,53,0
305760,note_on,0,0,1,,,,,,,,,0,,,77,88
305760,note_on,0,0,2,,,,,,,,,1,,,65,0
305760,note_on,0,0,2,,,,,,,,,1,,,68,0
305760,note_on,240,0,2,,,,,,,,,1,,,73,0
305760,note_on,1440,0,1,,,,,,,,,0,,,77,0
306000,note_on,480,0,3,,,,,,,,,2,,,60,0
306000,note_on,0,0,2,,,,,,,,,1,,,68,75
306000,note_on,0,0,3,,,,,,,,,2,,,49,75
306000,note_on,0,0,3,,,,,,,,,2,,,51,0
306000,note_on,0,0,2,,,,,,,,,1,,,73,75
306000,note_on,0,0,3,,,,,,,,,2,,,53,75
306000,note_on,0,0,3,,,,,,,,,2,,,56,0
306000,note_on,0,0,3,,,,,,,,,2,,,58,75
306000,note_on,0,0,2,,,,,,,,,1,,,65,75
306000,control_change,240,0,2,,,,,,,,,1,64,0,,
306000,control_change,0,0,3,,,,,,,,,2,64,0,,
306150,note_on,390,0,1,,,,,,,,,0,,,65,114
306180,note_on,30,0,1,,,,,,,,,0,,,71,114
306210,note_on,30,0,1,,,,,,,,,0,,,74,114
306240,note_on,0,0,3,,,,,,,,,2,,,53,0
306240,note_on,0,0,2,,,,,,,,,1,,,65,0
306240,note_on,240,0,2,,,,,,,,,1,,,73,0
306240,time_signature,3840,1,0,7,4,24,8,,,,,,,,,
306240,note_on,0,0,3,,,,,,,,,2,,,49,0
306240,note_on,0,0,1,,,,,,,,,0,,,80,114
306240,control_change,0,0,1,,,,,,,,,0,64,127,,
306240,note_on,240,0,3,,,,,,,,,2,,,58,0
306240,note_on,30,0,1,,,,,,,,,0,,,77,0
306240,note_on,0,0,2,,,,,,,,,1,,,68,0
306263,note_on,23,0,1,,,,,,,,,0,,,65,0
306287,note_on,24,0,1,,,,,,,,,0,,,71,0
306312,note_on,25,0,1,,,,,,,,,0,,,74,0
306336,note_on,24,0,1,,,,,,,,,0,,,80,0
306480,note_on,0,0,3,,,,,,,,,2,,,39,75
306480,control_change,240,0,3,,,,,,,,,2,64,127,,
306720,note_on,0,0,3,,,,,,,,,2,,,56,101
306720,note_on,0,0,3,,,,,,,,,2,,,71,101
306720,control_change,0,0,3,,,,,,,,,2,64,0,,
306720,note_on,0,0,3,,,,,,,,,2,,,62,101
306720,note_on,240,0,3,,,,,,,,,2,,,39,0
306720,note_on,0,0,3,,,,,,,,,2,,,65,101
306960,control_change,624,0,1,,,,,,,,,0,64,0,,
307080,note_on,360,0,3,,,,,,,,,2,,,71,0
307080,control_change,0,0,3,,,,,,,,,2,64,127,,
307080,note_on,0,0,3,,,,,,,,,2,,,65,0
307080,note_on,0,0,3,,,,,,,,,2,,,62,0
307080,note_on,0,0,3,,,,,,,,,2,,,61,62
307080,control_change,120,0,1,,,,,,,,,0,64,127,,
307080,note_on,0,0,3,,,,,,,,,2,,,56,0
307080,note_on,0,0,1,,,,,,,,,0,,,64,62
307080,note_on,0,0,1,,,,,,,,,0,,,70,62
307080,note_on,0,0,3,,,,,,,,,2,,,55,62
307200,note_on,120,0,1,,,,,,,,,0,,,70,0
307200,note_on,120,0,3,,,,,,,,,2,,,61,0
307200,note_on,0,0,1,,,,,,,,,0,,,64,62
307200,note_on,0,0,1,,,,,,,,,0,,,70,62
307200,note_on,0,0,1,,,,,,,,,0,,,64,0
307200,note_on,0,0,3,,,,,,,,,2,,,55,0
307200,note_on,0,0,3,,,,,,,,,2,,,55,62
307200,note_on,0,0,3,,,,,,,,,2,,,61,62
307359,note_on,159,0,3,,,,,,,,,2,,,61,0
307359,note_on,0,0,1,,,,,,,,,0,,,63,62
307359,note_on,0,0,1,,,,,,,,,0,,,69,62
307359,note_on,159,0,1,,,,,,,,,0,,,70,0
307359,note_on,0,0,1,,,,,,,,,0,,,64,0
307359,note_on,0,0,3,,,,,,,,,2,,,55,0
307359,note_on,0,0,3,,,,,,,,,2,,,54,62
307359,note_on,0,0,3,,,,,,,,,2,,,60,62
307520,note_on,161,0,1,,,,,,,,,0,,,69,0
307520,note_on,0,0,3,,,,,,,,,2,,,54,0
307520,note_on,0,0,3,,,,,,,,,2,,,65,62
307520,note_on,0,0,1,,,,,,,,,0,,,74,62
307520,note_on,161,0,3,,,,,,,,,2,,,60,0
307520,note_on,0,0,1,,,,,,,,,0,,,68,62
307520,note_on,0,0,1,,,,,,,,,0,,,63,0
307520,note_on,0,0,3,,,,,,,,,2,,,59,62
307680,note_on,0,0,3,,,,,,,,,2,,,65,62
307680,note_on,0,0,1,,,,,,,,,0,,,68,0
307680,note_on,0,0,3,,,,,,,,,2,,,59,62
307680,note_on,0,0,1,,,,,,,,,0,,,74,62
307680,note_on,160,0,3,,,,,,,,,2,,,65,0
307680,note_on,0,0,1,,,,,,,,,0,,,68,62
307680,note_on,160,0,1,,,,,,,,,0,,,74,0
307680,note_on,0,0,3,,,,,,,,,2,,,59,0
307839,note_on,0,0,1,,,,,,,,,0,,,73,62
307839,note_on,0,0,1,,,,,,,,,0,,,68,0
307839,note_on,159,0,3,,,,,,,,,2,,,65,0
307839,note_on,0,0,1,,,,,,,,,0,,,67,62
307839,note_on,159,0,1,,,,,,,,,0,,,74,0
307839,note_on,0,0,3,,,,,,,,,2,,,64,62
307839,note_on,0,0,3,,,,,,,,,2,,,59,0
307839,note_on,0,0,3,,,,,,,,,2,,,58,62
308000,note_on,0,0,1,,,,,,,,,0,,,67,0
308000,note_on,161,0,3,,,,,,,,,2,,,64,0
308000,note_on,0,0,1,,,,,,,,,0,,,72,62
308000,note_on,161,0,1,,,,,,,,,0,,,73,0
308000,note_on,0,0,3,,,,,,,,,2,,,58,0
308000,note_on,0,0,3,,,,,,,,,2,,,63,62
308000,note_on,0,0,3,,,,,,,,,2,,,69,62
308000,note_on,0,0,1,,,,,,,,,0,,,78,62
308160,note_on,0,0,1,,,,,,,,,0,,,78,75
308160,note_on,160,0,1,,,,,,,,,0,,,78,0
308160,note_on,0,0,3,,,,,,,,,2,,,63,0
308160,note_on,0,0,3,,,,,,,,,2,,,63,75
308160,note_on,0,0,3,,,,,,,,,2,,,69,75
308160,note_on,160,0,3,,,,,,,,,2,,,69,0
308160,note_on,0,0,1,,,,,,,,,0,,,72,0
308160,note_on,0,0,1,,,,,,,,,0,,,72,75
308319,note_on,0,0,1,,,,,,,,,0,,,71,75
308319,note_on,0,0,1,,,,,,,,,0,,,72,0
308319,note_on,0,0,1,,,,,,,,,0,,,77,75
308319,note_on,159,0,3,,,,,,,,,2,,,69,0
308319,note_on,159,0,1,,,,,,,,,0,,,78,0
308319,note_on,0,0,3,,,,,,,,,2,,,62,75
308319,note_on,0,0,3,,,,,,,,,2,,,63,0
308319,note_on,0,0,3,,,,,,,,,2,,,68,75
308480,note_on,0,0,1,,,,,,,,,0,,,76,75
308480,note_on,161,0,1,,,,,,,,,0,,,77,0
308480,note_on,0,0,3,,,,,,,,,2,,,62,0
308480,note_on,0,0,3,,,,,,,,,2,,,67,75
308480,note_on,0,0,3,,,,,,,,,2,,,73,75
308480,note_on,0,0,1,,,,,,,,,0,,,71,0
308480,note_on,161,0,3,,,,,,,,,2,,,68,0
308480,note_on,0,0,1,,,,,,,,,0,,,82,75
308640,note_on,0,0,3,,,,,,,,,2,,,67,88
308640,note_on,0,0,3,,,,,,,,,2,,,73,88
308640,note_on,160,0,3,,,,,,,,,2,,,73,0
308640,note_on,0,0,1,,,,,,,,,0,,,82,88
308640,note_on,160,0,1,,,,,,,,,0,,,82,0
308640,note_on,0,0,1,,,,,,,,,0,,,76,0
308640,note_on,0,0,3,,,,,,,,,2,,,67,0
308640,note_on,0,0,1,,,,,,,,,0,,,76,88
308799,note_on,0,0,3,,,,,,,,,2,,,66,88
308799,note_on,0,0,3,,,,,,,,,2,,,67,0
308799,note_on,159,0,1,,,,,,,,,0,,,82,0
308799,note_on,0,0,3,,,,,,,,,2,,,72,88
308799,note_on,159,0,3,,,,,,,,,2,,,73,0
308799,note_on,0,0,1,,,,,,,,,0,,,75,88
308799,note_on,0,0,1,,,,,,,,,0,,,81,88
308799,note_on,0,0,1,,,,,,,,,0,,,76,0
308960,note_on,0,0,1,,,,,,,,,0,,,85,88
308960,note_on,0,0,1,,,,,,,,,0,,,80,88
308960,note_on,0,0,1,,,,,,,,,0,,,75,0
308960,note_on,161,0,1,,,,,,,,,0,,,81,0
308960,note_on,0,0,3,,,,,,,,,2,,,77,88
308960,note_on,0,0,3,,,,,,,,,2,,,66,0
308960,note_on,161,0,3,,,,,,,,,2,,,72,0
308960,note_on,0,0,3,,,,,,,,,2,,,71,88
309120,control_change,0,0,3,,,,,,,,,2,64,0,,
309120,note_on,160,0,1,,,,,,,,,0,,,85,0
309120,note_on,0,0,3,,,,,,,,,2,,,71,0
309120,note_on,0,0,3,,,,,,,,,2,,,71,114
309120,note_on,0,0,3,,,,,,,,,2,,,77,114
309120,control_change,0,0,1,,,,,,,,,0,64,0,,
309120,note_on,160,0,3,,,,,,,,,2,,,77,0
309120,note_on,0,0,1,,,,,,,,,0,,,80,0
309120,note_on,0,0,1,,,,,,,,,0,,,85,114
309120,note_on,0,0,1,,,,,,,,,0,,,80,114
309216,note_on,96,0,3,,,,,,,,,2,,,77,0
309216,note_on,0,0,3,,,,,,,,,2,,,71,0
309216,note_on,96,0,1,,,,,,,,,0,,,85,0
309216,note_on,0,0,1,,,,,,,,,0,,,80,0
309600,control_change,384,0,1,,,,,,,,,0,64,127,,
309600,time_signature,3360,1,0,4,4,24,8,,,,,,,,,
309600,control_change,384,0,3,,,,,,,,,2,64,127,,
309840,note_on,240,0,3,,,,,,,,,2,,,39,88
309990,note_on,150,0,3,,,,,,,,,2,,,51,114
310000,note_on,400,0,1,,,,,,,,,0,,,73,114
310020,note_on,30,0,3,,,,,,,,,2,,,58,114
310040,note_on,40,0,1,,,,,,,,,0,,,79,114
310050,note_on,30,0,3,,,,,,,,,2,,,61,114
310056,note_on,6,0,3,,,,,,,,,2,,,51,0
310080,note_on,24,0,3,,,,,,,,,2,,,39,0
310080,note_on,0,0,3,,,,,,,,,2,,,67,114
310080,note_on,0,0,3,,,,,,,,,2,,,58,0
310080,note_on,40,0,1,,,,,,,,,0,,,89,114
310103,note_on,23,0,3,,,,,,,,,2,,,61,0
310112,note_on,32,0,1,,,,,,,,,0,,,73,0
310127,note_on,24,0,3,,,,,,,,,2,,,67,0
310144,note_on,32,0,1,,,,,,,,,0,,,79,0
310176,note_on,32,0,1,,,,,,,,,0,,,89,0
310560,control_change,433,0,3,,,,,,,,,2,64,0,,
310920,note_on,744,0,1,,,,,,,,,0,,,82,62
310920,control_change,360,0,3,,,,,,,,,2,64,127,,
310920,note_on,0,0,3,,,,,,,,,2,,,79,62
310920,note_on,0,0,1,,,,,,,,,0,,,88,62
310920,note_on,0,0,3,,,,,,,,,2,,,73,62
311040,note_on,0,0,3,,,,,,,,,2,,,73,62
311040,note_on,0,0,1,,,,,,,,,0,,,82,62
311040,note_on,0,0,1,,,,,,,,,0,,,82,0
311040,note_on,0,0,3,,,,,,,,,2,,,73,0
311040,note_on,0,0,3,,,,,,,,,2,,,79,62
311040,note_on,0,0,1,,,,,,,,,0,,,88,62
311040,note_on,120,0,1,,,,,,,,,0,,,88,0
311040,note_on,120,0,3,,,,,,,,,2,,,79,0
311199,note_on,0,0,1,,,,,,,,,0,,,81,62
311199,note_on,0,0,3,,,,,,,,,2,,,73,0
311199,note_on,0,0,3,,,,,,,,,2,,,72,62
311199,note_on,0,0,1,,,,,,,,,0,,,82,0
311199,note_on,159,0,3,,,,,,,,,2,,,79,0
311199,note_on,0,0,1,,,,,,,,,0,,,87,62
311199,note_on,159,0,1,,,,,,,,,0,,,88,0
311199,note_on,0,0,3,,,,,,,,,2,,,78,62
311360,note_on,0,0,1,,,,,,,,,0,,,81,0
311360,note_on,0,0,1,,,,,,,,,0,,,86,62
311360,note_on,161,0,3,,,,,,,,,2,,,78,0
311360,note_on,0,0,3,,,,,,,,,2,,,72,0
311360,note_on,0,0,3,,,,,,,,,2,,,77,62
311360,note_on,161,0,1,,,,,,,,,0,,,87,0
311360,note_on,0,0,3,,,,,,,,,2,,,71,62
311360,note_on,0,0,1,,,,,,,,,0,,,92,62
311520,note_on,160,0,3,,,,,,,,,2,,,77,0
311520,note_on,160,0,1,,,,,,,,,0,,,92,0
311520,note_on,0,0,1,,,,,,,,,0,,,92,75
311520,note_on,0,0,1,,,,,,,,,0,,,86,75
311520,note_on,0,0,1,,,,,,,,,0,,,86,0
311520,note_on,0,0,3,,,,,,,,,2,,,77,75
311520,note_on,0,0,3,,,,,,,,,2,,,72,75
311520,note_on,0,0,3,,,,,,,,,2,,,71,0
311679,note_on,159,0,1,,,,,,,,,0,,,92,0
311679,note_on,0,0,3,,,,,,,,,2,,,72,0
311679,note_on,0,0,3,,,,,,,,,2,,,70,75
311679,note_on,0,0,3,,,,,,,,,2,,,76,75
311679,note_on,159,0,3,,,,,,,,,2,,,77,0
311679,note_on,0,0,1,,,,,,,,,0,,,85,75
311679,note_on,0,0,1,,,,,,,,,0,,,91,75
311679,note_on,0,0,1,,,,,,,,,0,,,86,0
311840,note_on,0,0,3,,,,,,,,,2,,,75,75
311840,note_on,0,0,1,,,,,,,,,0,,,96,75
311840,note_on,0,0,1,,,,,,,,,0,,,90,75
311840,note_on,0,0,1,,,,,,,,,0,,,85,0
311840,note_on,0,0,3,,,,,,,,,2,,,70,0
311840,note_on,161,0,1,,,,,,,,,0,,,91,0
311840,note_on,161,0,3,,,,,,,,,2,,,76,0
311840,note_on,0,0,3,,,,,,,,,2,,,69,75
312000,note_on,0,0,3,,,,,,,,,2,,,69,0
312000,note_on,0,0,3,,,,,,,,,2,,,69,75
312000,note_on,0,0,3,,,,,,,,,2,,,75,75
312000,note_on,160,0,3,,,,,,,,,2,,,75,0
312000,note_on,0,0,1,,,,,,,,,0,,,96,75
312000,note_on,160,0,1,,,,,,,,,0,,,96,0
312000,note_on,0,0,1,,,,,,,,,0,,,90,0
312000,note_on,0,0,1,,,,,,,,,0,,,90,75
312159,note_on,159,0,3,,,,,,,,,2,,,75,0
312159,note_on,0,0,3,,,,,,,,,2,,,74,75
312159,note_on,0,0,3,,,,,,,,,2,,,69,0
312159,note_on,0,0,3,,,,,,,,,2,,,68,75
312159,note_on,0,0,1,,,,,,,,,0,,,95,75
312159,note_on,0,0,1,,,,,,,,,0,,,90,0
312159,note_on,0,0,1,,,,,,,,,0,,,89,75
312159,note_on,159,0,1,,,,,,,,,0,,,96,0
312320,note_on,161,0,1,,,,,,,,,0,,,95,0
312320,note_on,161,0,3,,,,,,,,,2,,,74,0
312320,note_on,0,0,3,,,,,,,,,2,,,68,0
312320,note_on,0,0,3,,,,,,,,,2,,,73,88
312320,note_on,0,0,1,,,,,,,,,0,,,89,0
312320,note_on,0,0,1,,,,,,,,,0,,,94,88
312320,note_on,0,0,1,,,,,,,,,0,,,100,88
312320,note_on,0,0,3,,,,,,,,,2,,,67,88
312480,note_on,160,0,1,,,,,,,,,0,,,100,0
312480,note_on,0,0,1,,,,,,,,,0,,,94,114
312480,note_on,0,0,1,,,,,,,,,0,,,94,0
312480,note_on,0,0,3,,,,,,,,,2,,,73,114
312480,note_on,0,0,3,,,,,,,,,2,,,67,114
312480,note_on,0,0,3,,,,,,,,,2,,,67,0
312480,note_on,160,0,3,,,,,,,,,2,,,73,0
312480,note_on,0,0,1,,,,,,,,,0,,,100,114
313200,note_on,0,0,1,,,,,,,,,0,,,93,88
313200,note_on,720,0,3,,,,,,,,,2,,,73,0
313200,note_on,720,0,1,,,,,,,,,0,,,100,0
313200,note_on,0,0,1,,,,,,,,,0,,,94,0
313200,note_on,0,0,1,,,,,,,,,0,,,99,88
313200,note_on,0,0,3,,,,,,,,,2,,,66,88
313200,note_on,0,0,3,,,,,,,,,2,,,67,0
313200,note_on,0,0,3,,,,,,,,,2,,,72,88
313440,note_on,0,0,1,,,,,,,,,0,,,98,88
313440,note_on,0,0,1,,,,,,,,,0,,,93,0
313440,note_on,240,0,1,,,,,,,,,0,,,99,0
313440,note_on,0,0,1,,,,,,,,,0,,,92,88
313440,note_on,240,0,3,,,,,,,,,2,,,72,0
313440,note_on,0,0,3,,,,,,,,,2,,,66,0
313440,note_on,0,0,3,,,,,,,,,2,,,71,88
313440,note_on,0,0,3,,,,,,,,,2,,,77,88
313599,note_on,159,0,1,,,,,,,,,0,,,98,0
313599,note_on,0,0,1,,,,,,,,,0,,,91,88
313599,note_on,0,0,1,,,,,,,,,0,,,92,0
313599,note_on,0,0,1,,,,,,,,,0,,,97,88
313599,note_on,159,0,3,,,,,,,,,2,,,77,0
313599,note_on,0,0,3,,,,,,,,,2,,,70,88
313599,note_on,0,0,3,,,,,,,,,2,,,71,0
313599,note_on,0,0,3,,,,,,,,,2,,,76,88
313760,note_on,0,0,1,,,,,,,,,0,,,90,88
313760,note_on,0,0,3,,,,,,,,,2,,,70,0
313760,note_on,0,0,3,,,,,,,,,2,,,75,88
313760,note_on,0,0,3,,,,,,,,,2,,,81,88
313760,note_on,161,0,1,,,,,,,,,0,,,97,0
313760,note_on,0,0,1,,,,,,,,,0,,,91,0
313760,note_on,161,0,3,,,,,,,,,2,,,76,0
313760,note_on,0,0,1,,,,,,,,,0,,,96,88
313920,note_on,160,0,3,,,,,,,,,2,,,81,0
313920,note_on,160,0,1,,,,,,,,,0,,,96,0
313920,note_on,0,0,3,,,,,,,,,2,,,75,0
313920,note_on,0,0,3,,,,,,,,,2,,,74,88
313920,note_on,0,0,1,,,,,,,,,0,,,90,0
313920,note_on,0,0,1,,,,,,,,,0,,,89,88
313920,note_on,0,0,3,,,,,,,,,2,,,80,88
313920,note_on,0,0,1,,,,,,,,,0,,,95,88
314079,note_on,159,0,3,,,,,,,,,2,,,80,0
314079,note_on,159,0,1,,,,,,,,,0,,,95,0
314079,note_on,0,0,3,,,,,,,,,2,,,74,0
314079,note_on,0,0,3,,,,,,,,,2,,,79,88
314079,note_on,0,0,1,,,,,,,,,0,,,88,88
314079,note_on,0,0,1,,,,,,,,,0,,,89,0
314079,note_on,0,0,1,,,,,,,,,0,,,94,88
314079,note_on,0,0,3,,,,,,,,,2,,,85,88
314240,note_on,0,0,3,,,,,,,,,2,,,84,88
314240,note_on,0,0,3,,,,,,,,,2,,,79,0
314240,note_on,0,0,1,,,,,,,,,0,,,93,88
314240,note_on,0,0,3,,,,,,,,,2,,,78,88
314240,note_on,0,0,1,,,,,,,,,0,,,87,88
314240,note_on,161,0,3,,,,,,,,,2,,,85,0
314240,note_on,161,0,1,,,,,,,,,0,,,94,0
314240,note_on,0,0,1,,,,,,,,,0,,,88,0
314400,note_on,160,0,1,,,,,,,,,0,,,93,0
314400,note_on,160,0,3,,,,,,,,,2,,,84,0
314400,note_on,0,0,1,,,,,,,,,0,,,86,88
314400,note_on,0,0,1,,,,,,,,,0,,,87,0
314400,note_on,0,0,3,,,,,,,,,2,,,77,88
314400,note_on,0,0,3,,,,,,,,,2,,,78,0
314400,note_on,0,0,3,,,,,,,,,2,,,83,88
314400,note_on,0,0,1,,,,,,,,,0,,,92,88
314559,note_on,0,0,3,,,,,,,,,2,,,82,88
314559,note_on,0,0,3,,,,,,,,,2,,,76,88
314559,note_on,0,0,3,,,,,,,,,2,,,77,0
314559,note_on,159,0,3,,,,,,,,,2,,,83,0
314559,note_on,0,0,1,,,,,,,,,0,,,91,88
314559,note_on,0,0,1,,,,,,,,,0,,,86,0
314559,note_on,0,0,1,,,,,,,,,0,,,85,88
314559,note_on,159,0,1,,,,,,,,,0,,,92,0
314720,note_on,0,0,3,,,,,,,,,2,,,81,88
314720,note_on,0,0,1,,,,,,,,,0,,,90,88
314720,note_on,0,0,1,,,,,,,,,0,,,85,0
314720,note_on,0,0,1,,,,,,,,,0,,,84,88
314720,note_on,161,0,1,,,,,,,,,0,,,91,0
314720,note_on,161,0,3,,,,,,,,,2,,,82,0
314720,note_on,0,0,3,,,,,,,,,2,,,75,88
314720,note_on,0,0,3,,,,,,,,,2,,,76,0
314880,note_on,0,0,1,,,,,,,,,0,,,89,88
314880,note_on,0,0,1,,,,,,,,,0,,,84,0
314880,note_on,160,0,1,,,,,,,,,0,,,90,0
314880,note_on,0,0,1,,,,,,,,,0,,,83,88
314880,note_on,0,0,3,,,,,,,,,2,,,75,0
314880,note_on,0,0,3,,,,,,,,,2,,,80,88
314880,note_on,160,0,3,,,,,,,,,2,,,81,0
314880,note_on,0,0,3,,,,,,,,,2,,,74,88
315039,note_on,0,0,3,,,,,,,,,2,,,74,0
315039,note_on,159,0,3,,,,,,,,,2,,,80,0
315039,note_on,0,0,3,,,,,,,,,2,,,79,88
315039,note_on,159,0,1,,,,,,,,,0,,,89,0
315039,note_on,0,0,1,,,,,,,,,0,,,82,88
315039,note_on,0,0,1,,,,,,,,,0,,,83,0
315039,note_on,0,0,1,,,,,,,,,0,,,88,88
315039,note_on,0,0,3,,,,,,,,,2,,,73,88
315120,set_tempo,5520,1,0,,,,,,512821,,,,,,,
315200,note_on,0,0,1,,,,,,,,,0,,,87,88
315200,note_on,0,0,1,,,,,,,,,0,,,81,88
315200,note_on,0,0,1,,,,,,,,,0,,,82,0
315200,note_on,161,0,3,,,,,,,,,2,,,79,0
315200,note_on,0,0,3,,,,,,,,,2,,,78,88
315200,note_on,0,0,3,,,,,,,,,2,,,73,0
315200,note_on,0,0,3,,,,,,,,,2,,,72,88
315200,note_on,161,0,1,,,,,,,,,0,,,88,0
315360,note_on,160,0,3,,,,,,,,,2,,,78,0
315360,note_on,0,0,3,,,,,,,,,2,,,71,88
315360,note_on,0,0,3,,,,,,,,,2,,,72,0
315360,note_on,0,0,3,,,,,,,,,2,,,77,88
315360,note_on,160,0,1,,,,,,,,,0,,,87,0
315360,note_on,0,0,1,,,,,,,,,0,,,86,88
315360,note_on,0,0,1,,,,,,,,,0,,,81,0
315360,note_on,0,0,1,,,,,,,,,0,,,80,88
315360,set_tempo,240,1,0,,,,,,526316,,,,,,,
315519,note_on,0,0,1,,,,,,,,,0,,,85,88
315519,note_on,159,0,3,,,,,,,,,2,,,77,0
315519,note_on,159,0,1,,,,,,,,,0,,,86,0
315519,note_on,0,0,3,,,,,,,,,2,,,70,88
315519,note_on,0,0,1,,,,,,,,,0,,,80,0
315519,note_on,0,0,1,,,,,,,,,0,,,79,88
315519,note_on,0,0,3,,,,,,,,,2,,,71,0
315519,note_on,0,0,3,,,,,,,,,2,,,76,88
315600,set_tempo,240,1,0,,,,,,540541,,,,,,,
315680,note_on,0,0,1,,,,,,,,,0,,,84,88
315680,note_on,0,0,1,,,,,,,,,0,,,79,0
315680,note_on,0,0,1,,,,,,,,,0,,,78,88
315680,note_on,161,0,3,,,,,,,,,2,,,76,0
315680,note_on,161,0,1,,,,,,,,,0,,,85,0
315680,note_on,0,0,3,,,,,,,,,2,,,69,88
315680,note_on,0,0,3,,,,,,,,,2,,,70,0
315680,note_on,0,0,3,,,,,,,,,2,,,75,88
315840,note_on,0,0,3,,,,,,,,,2,,,69,0
315840,note_on,160,0,3,,,,,,,,,2,,,75,0
315840,note_on,0,0,3,,,,,,,,,2,,,68,88
315840,note_on,0,0,1,,,,,,,,,0,,,84,88
315840,note_on,0,0,1,,,,,,,,,0,,,78,0
315840,set_tempo,240,1,0,,,,,,560748,,,,,,,
315840,note_on,0,0,1,,,,,,,,,0,,,77,88
315840,note_on,160,0,1,,,,,,,,,0,,,84,0
315840,note_on,0,0,3,,,,,,,,,2,,,74,88
315999,note_on,0,0,1,,,,,,,,,0,,,82,88
315999,note_on,0,0,1,,,,,,,,,0,,,77,0
315999,note_on,0,0,1,,,,,,,,,0,,,76,88
315999,note_on,159,0,3,,,,,,,,,2,,,74,0
315999,note_on,0,0,3,,,,,,,,,2,,,68,0
315999,note_on,0,0,3,,,,,,,,,2,,,67,88
315999,note_on,159,0,1,,,,,,,,,0,,,84,0
315999,note_on,0,0,3,,,,,,,,,2,,,73,88
316080,set_tempo,240,1,0,,,,,,576923,,,,,,,
316160,note_on,161,0,1,,,,,,,,,0,,,82,0
316160,note_on,161,0,3,,,,,,,,,2,,,73,0
316160,note_on,0,0,3,,,,,,,,,2,,,72,88
316160,note_on,0,0,3,,,,,,,,,2,,,67,0
316160,note_on,0,0,3,,,,,,,,,2,,,66,88
316160,note_on,0,0,1,,,,,,,,,0,,,75,88
316160,note_on,0,0,1,,,,,,,,,0,,,76,0
316160,note_on,0,0,1,,,,,,,,,0,,,81,88
316320,note_on,0,0,1,,,,,,,,,0,,,80,88
316320,note_on,0,0,1,,,,,,,,,0,,,75,0
316320,note_on,160,0,3,,,,,,,,,2,,,72,0
316320,note_on,0,0,3,,,,,,,,,2,,,71,88
316320,set_tempo,240,1,0,,,,,,594059,,,,,,,
316320,note_on,0,0,3,,,,,,,,,2,,,66,0
316320,note_on,0,0,3,,,,,,,,,2,,,65,88
316320,note_on,0,0,1,,,,,,,,,0,,,74,88
316320,note_on,160,0,1,,,,,,,,,0,,,81,0
316479,note_on,0,0,3,,,,,,,,,2,,,64,88
316479,note_on,0,0,3,,,,,,,,,2,,,65,0
316479,note_on,159,0,3,,,,,,,,,2,,,71,0
316479,note_on,0,0,3,,,,,,,,,2,,,70,88
316479,note_on,159,0,1,,,,,,,,,0,,,80,0
316479,note_on,0,0,1,,,,,,,,,0,,,79,88
316479,note_on,0,0,1,,,,,,,,,0,,,73,88
316479,note_on,0,0,1,,,,,,,,,0,,,74,0
316560,set_tempo,240,1,0,,,,,,612245,,,,,,,
316640,note_on,161,0,3,,,,,,,,,2,,,70,0
316640,note_on,0,0,1,,,,,,,,,0,,,72,88
316640,note_on,0,0,3,,,,,,,,,2,,,63,88
316640,note_on,0,0,3,,,,,,,,,2,,,64,0
316640,note_on,0,0,3,,,,,,,,,2,,,69,88
316640,note_on,0,0,1,,,,,,,,,0,,,73,0
316640,note_on,161,0,1,,,,,,,,,0,,,79,0
316640,note_on,0,0,1,,,,,,,,,0,,,78,88
316800,note_on,0,0,1,,,,,,,,,0,,,71,88
316800,note_on,0,0,3,,,,,,,,,2,,,63,0
316800,note_on,0,0,3,,,,,,,,,2,,,62,88
316800,note_on,0,0,1,,,,,,,,,0,,,72,0
316800,note_on,160,0,1,,,,,,,,,0,,,78,0
316800,note_on,160,0,3,,,,,,,,,2,,,69,0
316800,set_tempo,240,1,0,,,,,,638298,,,,,,,
316800,note_on,0,0,1,,,,,,,,,0,,,77,88
316800,note_on,0,0,3,,,,,,,,,2,,,68,88
317040,note_on,240,0,3,,,,,,,,,2,,,68,0
317040,note_on,0,0,3,,,,,,,,,2,,,67,88
317040,note_on,240,0,1,,,,,,,,,0,,,77,0
317040,note_on,0,0,1,,,,,,,,,0,,,70,88
317040,note_on,0,0,1,,,,,,,,,0,,,71,0
317040,note_on,0,0,1,,,,,,,,,0,,,76,88
317040,note_on,0,0,3,,,,,,,,,2,,,62,0
317040,note_on,0,0,3,,,,,,,,,2,,,61,88
317087,note_on,0,0,1,,,,,,,,,0,,,70,0
317087,note_on,47,0,3,,,,,,,,,2,,,67,0
317087,note_on,47,0,1,,,,,,,,,0,,,76,0
317087,note_on,0,0,3,,,,,,,,,2,,,61,0
317280,note_on,0,0,1,,,,,,,,,0,,,76,88
317280,time_signature,480,1,0,2,4,24,8,,,,,,,,,
317280,note_on,193,0,3,,,,,,,,,2,,,60,88
317280,note_on,0,0,3,,,,,,,,,2,,,67,88
317280,note_on,193,0,1,,,,,,,,,0,,,70,88
317327,note_on,0,0,3,,,,,,,,,2,,,60,0
317327,note_on,47,0,1,,,,,,,,,0,,,76,0
317327,note_on,47,0,3,,,,,,,,,2,,,67,0
317327,note_on,0,0,1,,,,,,,,,0,,,70,0
317520,note_on,193,0,1,,,,,,,,,0,,,71,88
317520,note_on,0,0,3,,,,,,,,,2,,,67,88
317520,note_on,0,0,1,,,,,,,,,0,,,76,88
317520,note_on,193,0,3,,,,,,,,,2,,,59,88
317567,note_on,0,0,3,,,,,,,,,2,,,59,0
317567,note_on,47,0,1,,,,,,,,,0,,,76,0
317567,note_on,0,0,1,,,,,,,,,0,,,71,0
317567,note_on,47,0,3,,,,,,,,,2,,,67,0
317760,note_on,0,0,1,,,,,,,,,0,,,76,88
317760,note_on,193,0,3,,,,,,,,,2,,,58,88
317760,note_on,0,0,3,,,,,,,,,2,,,67,88
317760,note_on,193,0,1,,,,,,,,,0,,,72,88
317807,note_on,0,0,3,,,,,,,,,2,,,58,0
317807,note_on,47,0,3,,,,,,,,,2,,,67,0
317807,note_on,47,0,1,,,,,,,,,0,,,76,0
317807,note_on,0,0,1,,,,,,,,,0,,,72,0
318000,note_on,0,0,1,,,,,,,,,0,,,76,88
318000,note_on,0,0,1,,,,,,,,,0,,,73,88
318000,note_on,0,0,3,,,,,,,,,2,,,57,88
318000,note_on,0,0,3,,,,,,,,,2,,,67,88
318000,control_change,193,0,1,,,,,,,,,0,64,0,,
318000,control_change,193,0,3,,,,,,,,,2,64,0,,
318047,note_on,47,0,1,,,,,,,,,0,,,76,0
318047,note_on,0,0,1,,,,,,,,,0,,,73,0
318047,note_on,0,0,3,,,,,,,,,2,,,57,0
318047,note_on,47,0,3,,,,,,,,,2,,,67,0
318144,note_on,97,0,1,,,,,,,,,0,,,51,88
318168,note_on,24,0,1,,,,,,,,,0,,,61,88
318192,note_on,24,0,1,,,,,,,,,0,,,67,88
318216,note_on,24,0,1,,,,,,,,,0,,,70,88
318240,set_tempo,0,1,0,,,,,,600000,,,,,,,
318240,time_signature,960,1,0,6,4,24,8,,,,,,,,,
318240,control_change,24,0,1,,,,,,,,,0,64,127,,
318240,note_on,0,0,1,,,,,,,,,0,,,79,75
319200,note_on,0,0,1,,,,,,,,,0,,,51,0
319200,note_on,0,0,1,,,,,,,,,0,,,61,0
319200,note_on,960,0,1,,,,,,,,,0,,,70,0
319200,note_on,0,0,1,,,,,,,,,0,,,67,0
319359,note_on,0,0,1,,,,,,,,,0,,,77,75
319359,note_on,159,0,1,,,,,,,,,0,,,79,0
319391,note_on,32,0,1,,,,,,,,,0,,,77,0
319520,note_on,129,0,1,,,,,,,,,0,,,75,75
319552,note_on,32,0,1,,,,,,,,,0,,,75,0
319680,note_on,128,0,1,,,,,,,,,0,,,73,75
319711,note_on,31,0,1,,,,,,,,,0,,,73,0
319839,note_on,128,0,1,,,,,,,,,0,,,72,62
319871,note_on,32,0,1,,,,,,,,,0,,,72,0
320000,note_on,129,0,1,,,,,,,,,0,,,70,62
320032,note_on,32,0,1,,,,,,,,,0,,,70,0
320160,note_on,128,0,1,,,,,,,,,0,,,68,62
320191,note_on,31,0,1,,,,,,,,,0,,,68,0
320319,note_on,128,0,1,,,,,,,,,0,,,67,62
320351,note_on,32,0,1,,,,,,,,,0,,,67,0
320480,note_on,129,0,1,,,,,,,,,0,,,65,62
320512,note_on,32,0,1,,,,,,,,,0,,,65,0
320640,note_on,128,0,1,,,,,,,,,0,,,65,88
320880,note_on,14640,0,2,,,,,,,,,1,,,60,49
320880,note_on,0,0,2,,,,,,,,,1,,,68,49
321000,note_on,360,0,1,,,,,,,,,0,,,65,0
321000,control_change,0,0,1,,,,,,,,,0,64,0,,
321000,note_on,0,0,1,,,,,,,,,0,,,63,62
321120,time_signature,2880,1,0,4,4,24,8,,,,,,,,,
321120,note_on,240,0,2,,,,,,,,,1,,,68,0
321120,note_on,120,0,1,,,,,,,,,0,,,63,0
321120,note_on,0,0,2,,,,,,,,,1,,,60,0
321120,control_change,0,0,1,,,,,,,,,0,64,127,,
321120,note_on,0,0,1,,,,,,,,,0,,,63,62
321360,note_on,0,0,2,,,,,,,,,1,,,68,49
321360,note_on,240,0,2,,,,,,,,,1,,,59,49
321840,note_on,0,0,1,,,,,,,,,0,,,62,62
321840,note_on,720,0,1,,,,,,,,,0,,,63,0
322080,note_on,720,0,2,,,,,,,,,1,,,68,0
322080,note_on,0,0,2,,,,,,,,,1,,,59,0
322080,note_on,240,0,1,,,,,,,,,0,,,62,0
322560,note_on,480,0,1,,,,,,,,,0,,,63,88
322800,note_on,720,0,2,,,,,,,,,1,,,58,49
322800,note_on,0,0,2,,,,,,,,,1,,,68,49
322920,note_on,0,0,1,,,,,,,,,0,,,61,62
322920,note_on,360,0,1,,,,,,,,,0,,,63,0
322920,control_change,0,0,1,,,,,,,,,0,64,0,,
323040,note_on,120,0,1,,,,,,,,,0,,,61,0
323040,note_on,240,0,2,,,,,,,,,1,,,68,0
323040,control_change,0,0,1,,,,,,,,,0,64,127,,
323040,note_on,0,0,1,,,,,,,,,0,,,61,62
323040,note_on,0,0,2,,,,,,,,,1,,,58,0
323280,note_on,0,0,2,,,,,,,,,1,,,68,49
323280,note_on,240,0,2,,,,,,,,,1,,,56,49
323760,note_on,720,0,1,,,,,,,,,0,,,61,0
323760,note_on,0,0,1,,,,,,,,,0,,,60,62
324000,note_on,720,0,2,,,,,,,,,1,,,68,0
324000,note_on,0,0,2,,,,,,,,,1,,,56,0
324000,note_on,240,0,1,,,,,,,,,0,,,60,0
324480,control_change,480,0,1,,,,,,,,,0,64,0,,
324480,note_on,0,0,1,,,,,,,,,0,,,67,49
324480,note_on,480,0,2,,,,,,,,,1,,,60,62
324480,note_on,0,0,1,,,,,,,,,0,,,72,49
324480,note_on,0,0,1,,,,,,,,,0,,,64,49
324840,note_on,0,0,2,,,,,,,,,1,,,58,62
324840,note_on,360,0,2,,,,,,,,,1,,,60,0
324960,note_on,6913,0,3,,,,,,,,,2,,,41,49
324960,control_change,0,0,1,,,,,,,,,0,64,127,,
324960,control_change,0,0,2,,,,,,,,,1,64,127,,
324960,note_on,120,0,2,,,,,,,,,1,,,58,0
324960,note_on,0,0,1,,,,,,,,,0,,,67,0
324960,note_on,480,0,1,,,,,,,,,0,,,72,0
324960,note_on,0,0,1,,,,,,,,,0,,,72,49
324960,note_on,0,0,1,,,,,,,,,0,,,68,49
324960,note_on,0,0,1,,,,,,,,,0,,,64,0
324960,note_on,0,0,3,,,,,,,,,2,,,48,49
324960,note_on,0,0,1,,,,,,,,,0,,,65,49
324960,note_on,0,0,2,,,,,,,,,1,,,58,62
325440,note_on,0,0,2,,,,,,,,,1,,,56,62
325440,note_on,480,0,2,,,,,,,,,1,,,58,0
325840,note_on,880,0,1,,,,,,,,,0,,,61,49
325880,note_on,40,0,1,,,,,,,,,0,,,67,49
325920,note_on,0,0,3,,,,,,,,,2,,,51,49
325920,note_on,40,0,1,,,,,,,,,0,,,72,0
325920,note_on,0,0,1,,,,,,,,,0,,,72,62
325920,note_on,0,0,1,,,,,,,,,0,,,68,0
325920,note_on,0,0,1,,,,,,,,,0,,,65,0
325920,note_on,480,0,2,,,,,,,,,1,,,56,0
325920,note_on,960,0,3,,,,,,,,,2,,,48,0
325920,note_on,0,0,2,,,,,,,,,1,,,65,49
325920,note_on,0,0,3,,,,,,,,,2,,,39,49
325920,note_on,0,0,3,,,,,,,,,2,,,41,0
326400,note_on,480,0,2,,,,,,,,,1,,,65,0
326400,control_change,0,0,2,,,,,,,,,1,64,0,,
326400,note_on,0,0,2,,,,,,,,,1,,,63,49
326640,note_on,0,0,1,,,,,,,,,0,,,67,0
326640,note_on,0,0,1,,,,,,,,,0,,,61,0
326640,note_on,720,0,1,,,,,,,,,0,,,72,0
326640,control_change,0,0,1,,,,,,,,,0,64,0,,
326640,note_on,0,0,1,,,,,,,,,0,,,70,62
326880,note_on,0,0,2,,,,,,,,,1,,,60,49
326880,note_on,960,0,3,,,,,,,,,2,,,51,0
326880,note_on,0,0,2,,,,,,,,,1,,,63,49
326880,control_change,0,0,3,,,,,,,,,2,64,127,,
326880,note_on,480,0,2,,,,,,,,,1,,,63,0
326880,note_on,0,0,3,,,,,,,,,2,,,39,0
326880,note_on,240,0,1,,,,,,,,,0,,,70,0
326880,note_on,0,0,3,,,,,,,,,2,,,44,49
326880,note_on,0,0,3,,,,,,,,,2,,,51,49
326880,note_on,0,0,1,,,,,,,,,0,,,68,62
327360,note_on,480,0,2,,,,,,,,,1,,,63,0
327360,note_on,0,0,2,,,,,,,,,1,,,60,0
327360,note_on,480,0,1,,,,,,,,,0,,,68,0
327600,note_on,720,0,3,,,,,,,,,2,,,51,0
327600,note_on,0,0,3,,,,,,,,,2,,,44,0
327600,note_on,0,0,3,,,,,,,,,2,,,56,49
327840,note_on,0,0,3,,,,,,,,,2,,,56,49
327840,note_on,240,0,3,,,,,,,,,2,,,56,0
328320,note_on,0,0,2,,,,,,,,,1,,,63,88
328320,note_on,960,0,1,,,,,,,,,0,,,56,49
328320,note_on,480,0,3,,,,,,,,,2,,,56,0
328320,note_on,0,0,2,,,,,,,,,1,,,67,88
328320,control_change,0,0,3,,,,,,,,,2,64,0,,
328320,note_on,0,0,3,,,,,,,,,2,,,44,49
328320,note_on,0,0,1,,,,,,,,,0,,,68,49
328320,note_on,0,0,3,,,,,,,,,2,,,37,49
328320,control_change,960,0,2,,,,,,,,,1,64,127,,
328680,note_on,0,0,2,,,,,,,,,1,,,63,0
328680,note_on,0,0,2,,,,,,,,,1,,,65,62
328680,note_on,360,0,2,,,,,,,,,1,,,67,0
328680,note_on,0,0,2,,,,,,,,,1,,,61,62
328800,note_on,120,0,2,,,,,,,,,1,,,65,0
328800,note_on,0,0,1,,,,,,,,,0,,,56,49
328800,note_on,0,0,2,,,,,,,,,1,,,61,62
328800,note_on,0,0,2,,,,,,,,,1,,,65,62
328800,note_on,0,0,1,,,,,,,,,0,,,68,49
328800,note_on,0,0,1,,,,,,,,,0,,,56,0
328800,note_on,0,0,2,,,,,,,,,1,,,61,0
328800,note_on,0,0,3,,,,,,,,,2,,,44,49
328800,control_change,0,0,3,,,,,,,,,2,64,127,,
328800,note_on,0,0,3,,,,,,,,,2,,,32,49
328800,note_on,0,0,3,,,,,,,,,2,,,37,0
328800,note_on,480,0,1,,,,,,,,,0,,,68,0
328800,note_on,480,0,3,,,,,,,,,2,,,44,0
329280,note_on,0,0,2,,,,,,,,,1,,,63,62
329280,note_on,0,0,2,,,,,,,,,1,,,60,62
329280,control_change,0,0,2,,,,,,,,,1,64,0,,
329280,note_on,480,0,2,,,,,,,,,1,,,65,0
329280,note_on,0,0,2,,,,,,,,,1,,,61,0
329520,note_on,240,0,2,,,,,,,,,1,,,63,0
329520,note_on,0,0,2,,,,,,,,,1,,,60,0
329520,note_on,0,0,3,,,,,,,,,2,,,56,49
329520,note_on,0,0,3,,,,,,,,,2,,,32,0
329520,note_on,720,0,3,,,,,,,,,2,,,44,0
329520,note_on,720,0,1,,,,,,,,,0,,,68,0
329520,note_on,0,0,1,,,,,,,,,0,,,56,0
329760,note_on,0,0,3,,,,,,,,,2,,,56,49
329760,note_on,240,0,3,,,,,,,,,2,,,56,0
330240,note_on,720,0,2,,,,,,,,,1,,,56,62
330240,note_on,0,0,1,,,,,,,,,0,,,55,75
330240,control_change,0,0,3,,,,,,,,,2,64,0,,
330240,control_change,720,0,1,,,,,,,,,0,64,127,,
330240,note_on,0,0,1,,,,,,,,,0,,,63,75
330240,note_on,480,0,3,,,,,,,,,2,,,56,0
330240,note_on,0,0,3,,,,,,,,,2,,,44,49
330240,note_on,0,0,3,,,,,,,,,2,,,37,49
330600,note_on,0,0,1,,,,,,,,,0,,,55,0
330600,note_on,0,0,1,,,,,,,,,0,,,61,49
330600,note_on,360,0,1,,,,,,,,,0,,,63,0
330600,note_on,0,0,1,,,,,,,,,0,,,53,49
330720,note_on,0,0,1,,,,,,,,,0,,,53,0
330720,note_on,0,0,1,,,,,,,,,0,,,61,49
330720,note_on,0,0,2,,,,,,,,,1,,,56,62
330720,note_on,480,0,2,,,,,,,,,1,,,56,0
330720,control_change,0,0,3,,,,,,,,,2,64,127,,
330720,note_on,120,0,1,,,,,,,,,0,,,61,0
330720,note_on,0,0,1,,,,,,,,,0,,,53,49
330720,note_on,0,0,3,,,,,,,,,2,,,32,49
330720,note_on,480,0,3,,,,,,,,,2,,,44,0
330720,note_on,0,0,3,,,,,,,,,2,,,37,0
330720,note_on,0,0,3,,,,,,,,,2,,,44,49
331200,note_on,0,0,1,,,,,,,,,0,,,60,49
331200,control_change,0,0,1,,,,,,,,,0,64,0,,
331200,note_on,0,0,1,,,,,,,,,0,,,53,0
331200,note_on,0,0,1,,,,,,,,,0,,,51,49
331200,note_on,480,0,1,,,,,,,,,0,,,61,0
331440,note_on,0,0,1,,,,,,,,,0,,,51,0
331440,note_on,0,0,3,,,,,,,,,2,,,32,0
331440,note_on,0,0,3,,,,,,,,,2,,,44,49
331440,note_on,240,0,1,,,,,,,,,0,,,60,0
331440,note_on,720,0,2,,,,,,,,,1,,,56,0
331440,note_on,720,0,3,,,,,,,,,2,,,44,0
331440,end_of_track,0,1,2,,,,,,,,,,,,,
331680,note_on,0,0,3,,,,,,,,,2,,,44,49
331680,note_on,240,0,3,,,,,,,,,2,,,44,0
332160,note_on,0,0,1,,,,,,,,,0,,,56,49
332160,note_on,480,0,3,,,,,,,,,2,,,44,0
332160,note_on,720,0,1,,,,,,,,,0,,,49,49
332160,note_on,0,0,3,,,,,,,,,2,,,43,88
332520,note_on,0,0,3,,,,,,,,,2,,,41,62
332520,control_change,0,0,3,,,,,,,,,2,64,0,,
332520,note_on,360,0,3,,,,,,,,,2,,,43,0
332640,note_on,0,0,1,,,,,,,,,0,,,48,49
332640,note_on,0,0,3,,,,,,,,,2,,,41,62
332640,control_change,0,0,1,,,,,,,,,0,64,127,,
332640,note_on,0,0,1,,,,,,,,,0,,,56,49
332640,note_on,480,0,1,,,,,,,,,0,,,56,0
332640,note_on,0,0,1,,,,,,,,,0,,,49,0
332640,control_change,0,0,3,,,,,,,,,2,64,127,,
332640,note_on,120,0,3,,,,,,,,,2,,,41,0
332880,note_on,240,0,3,,,,,,,,,2,,,41,0
332880,note_on,0,0,3,,,,,,,,,2,,,39,62
333120,note_on,0,0,1,,,,,,,,,0,,,56,49
333120,note_on,0,0,1,,,,,,,,,0,,,53,49
333120,note_on,0,0,1,,,,,,,,,0,,,48,0
333120,note_on,480,0,1,,,,,,,,,0,,,56,0
333120,note_on,240,0,3,,,,,,,,,2,,,39,0
333120,note_on,0,0,3,,,,,,,,,2,,,39,88
333480,note_on,0,0,3,,,,,,,,,2,,,37,62
333480,note_on,360,0,3,,,,,,,,,2,,,39,0
333600,note_on,0,0,1,,,,,,,,,0,,,51,49
333600,note_on,480,0,1,,,,,,,,,0,,,56,0
333600,note_on,0,0,3,,,,,,,,,2,,,37,62
333600,note_on,120,0,3,,,,,,,,,2,,,37,0
333600,note_on,0,0,1,,,,,,,,,0,,,53,0
333600,note_on,0,0,1,,,,,,,,,0,,,56,49
333840,note_on,0,0,3,,,,,,,,,2,,,36,62
333840,note_on,240,0,3,,,,,,,,,2,,,37,0
334080,note_on,240,0,3,,,,,,,,,2,,,36,0
334080,note_on,0,0,3,,,,,,,,,2,,,36,88
334080,control_change,0,0,1,,,,,,,,,0,64,0,,
334080,note_on,0,0,1,,,,,,,,,0,,,51,0
334080,note_on,0,0,1,,,,,,,,,0,,,49,49
334080,note_on,0,0,1,,,,,,,,,0,,,56,49
334080,note_on,480,0,1,,,,,,,,,0,,,56,0
334440,note_on,360,0,3,,,,,,,,,2,,,36,0
334440,control_change,0,0,3,,,,,,,,,2,64,0,,
334440,note_on,0,0,3,,,,,,,,,2,,,34,62
334560,note_on,0,0,1,,,,,,,,,0,,,56,49
334560,note_on,0,0,3,,,,,,,,,2,,,34,49
334560,note_on,120,0,3,,,,,,,,,2,,,34,0
334560,note_on,0,0,1,,,,,,,,,0,,,48,49
334560,control_change,0,0,3,,,,,,,,,2,64,127,,
334560,note_on,0,0,1,,,,,,,,,0,,,49,0
334560,note_on,0,0,1,,,,,,,,,0,,,51,49
334560,note_on,480,0,1,,,,,,,,,0,,,56,0
334560,note_on,0,0,1,,,,,,,,,0,,,60,49
334620,note_on,60,0,3,,,,,,,,,2,,,34,0
334620,note_on,0,0,3,,,,,,,,,2,,,32,49
334680,note_on,0,0,3,,,,,,,,,2,,,34,49
334680,note_on,60,0,3,,,,,,,,,2,,,32,0
334740,note_on,60,0,3,,,,,,,,,2,,,34,0
334740,note_on,0,0,3,,,,,,,,,2,,,32,49
334800,note_on,60,0,3,,,,,,,,,2,,,32,0
334800,note_on,0,0,3,,,,,,,,,2,,,34,49
334860,note_on,60,0,3,,,,,,,,,2,,,34,0
334860,note_on,0,0,3,,,,,,,,,2,,,32,49
334920,note_on,60,0,3,,,,,,,,,2,,,32,0
334920,note_on,0,0,3,,,,,,,,,2,,,34,49
334980,note_on,0,0,3,,,,,,,,,2,,,32,49
334980,note_on,60,0,3,,,,,,,,,2,,,34,0
335040,note_on,0,0,3,,,,,,,,,2,,,34,49
335040,note_on,60,0,3,,,,,,,,,2,,,32,0
335100,note_on,0,0,3,,,,,,,,,2,,,32,49
335100,note_on,60,0,3,,,,,,,,,2,,,34,0
335160,note_on,0,0,3,,,,,,,,,2,,,34,49
335160,note_on,60,0,3,,,,,,,,,2,,,32,0
335220,note_on,60,0,3,,,,,,,,,2,,,34,0
335220,note_on,0,0,3,,,,,,,,,2,,,32,49
335280,note_on,0,0,3,,,,,,,,,2,,,34,49
335280,note_on,60,0,3,,,,,,,,,2,,,32,0
335340,note_on,60,0,3,,,,,,,,,2,,,34,0
335340,note_on,0,0,3,,,,,,,,,2,,,32,49
335400,note_on,0,0,3,,,,,,,,,2,,,34,49
335400,note_on,60,0,3,,,,,,,,,2,,,32,0
335460,note_on,0,0,3,,,,,,,,,2,,,32,49
335460,note_on,60,0,3,,,,,,,,,2,,,34,0
335520,note_on,0,0,3,,,,,,,,,2,,,34,49
335520,note_on,60,0,3,,,,,,,,,2,,,32,0
335580,note_on,0,0,3,,,,,,,,,2,,,32,49
335580,note_on,60,0,3,,,,,,,,,2,,,34,0
335640,note_on,60,0,3,,,,,,,,,2,,,32,0
335640,note_on,0,0,3,,,,,,,,,2,,,34,49
335700,note_on,60,0,3,,,,,,,,,2,,,34,0
335700,note_on,0,0,3,,,,,,,,,2,,,32,49
335760,note_on,60,0,3,,,,,,,,,2,,,32,0
335760,note_on,0,0,3,,,,,,,,,2,,,34,49
335820,note_on,60,0,3,,,,,,,,,2,,,34,0
335820,note_on,0,0,3,,,,,,,,,2,,,32,49
335880,note_on,60,0,3,,,,,,,,,2,,,32,0
335880,note_on,0,0,3,,,,,,,,,2,,,34,49
335940,note_on,0,0,3,,,,,,,,,2,,,32,49
335940,note_on,60,0,3,,,,,,,,,2,,,34,0
336000,note_on,0,0,3,,,,,,,,,2,,,34,49
336000,note_on,60,0,3,,,,,,,,,2,,,32,0
336060,note_on,0,0,3,,,,,,,,,2,,,32,49
336060,note_on,60,0,3,,,,,,,,,2,,,34,0
336120,note_on,0,0,3,,,,,,,,,2,,,34,49
336120,note_on,60,0,3,,,,,,,,,2,,,32,0
336180,note_on,0,0,3,,,,,,,,,2,,,32,49
336180,note_on,60,0,3,,,,,,,,,2,,,34,0
336240,note_on,0,0,3,,,,,,,,,2,,,34,49
336240,note_on,60,0,3,,,,,,,,,2,,,32,0
336300,note_on,0,0,3,,,,,,,,,2,,,32,49
336300,note_on,60,0,3,,,,,,,,,2,,,34,0
336360,note_on,0,0,3,,,,,,,,,2,,,34,49
336360,note_on,60,0,3,,,,,,,,,2,,,32,0
336420,note_on,60,0,3,,,,,,,,,2,,,34,0
336420,note_on,0,0,3,,,,,,,,,2,,,32,49
336480,note_on,60,0,3,,,,,,,,,2,,,32,0
336480,note_on,0,0,3,,,,,,,,,2,,,34,49
336480,note_on,0,0,1,,,,,,,,,0,,,60,49
336480,note_on,0,0,1,,,,,,,,,0,,,51,49
336480,note_on,0,0,1,,,,,,,,,0,,,48,0
336480,note_on,0,0,1,,,,,,,,,0,,,51,0
336480,note_on,0,0,1,,,,,,,,,0,,,48,49
336480,note_on,1920,0,1,,,,,,,,,0,,,60,0
336480,note_on,0,0,1,,,,,,,,,0,,,56,0
336480,note_on,0,0,1,,,,,,,,,0,,,56,49
336540,note_on,60,0,3,,,,,,,,,2,,,34,0
336540,note_on,0,0,3,,,,,,,,,2,,,32,49
336600,note_on,60,0,3,,,,,,,,,2,,,32,0
336600,note_on,0,0,3,,,,,,,,,2,,,34,49
336660,note_on,0,0,3,,,,,,,,,2,,,32,49
336660,note_on,60,0,3,,,,,,,,,2,,,34,0
336720,note_on,60,0,3,,,,,,,,,2,,,32,0
336720,note_on,0,0,3,,,,,,,,,2,,,34,49
336780,note_on,60,0,3,,,,,,,,,2,,,34,0
336780,note_on,0,0,3,,,,,,,,,2,,,32,49
336840,note_on,60,0,3,,,,,,,,,2,,,32,0
336840,note_on,0,0,3,,,,,,,,,2,,,34,49
336900,note_on,0,0,3,,,,,,,,,2,,,32,49
336900,note_on,60,0,3,,,,,,,,,2,,,34,0
336960,note_on,0,0,3,,,,,,,,,2,,,34,49
336960,note_on,60,0,3,,,,,,,,,2,,,32,0
337020,note_on,60,0,3,,,,,,,,,2,,,34,0
337020,note_on,0,0,3,,,,,,,,,2,,,32,49
337080,note_on,0,0,3,,,,,,,,,2,,,34,49
337080,note_on,60,0,3,,,,,,,,,2,,,32,0
337140,note_on,60,0,3,,,,,,,,,2,,,34,0
337140,note_on,0,0,3,,,,,,,,,2,,,32,49
337200,note_on,0,0,3,,,,,,,,,2,,,34,49
337200,note_on,60,0,3,,,,,,,,,2,,,32,0
337260,note_on,0,0,3,,,,,,,,,2,,,32,49
337260,note_on,60,0,3,,,,,,,,,2,,,34,0
337320,note_on,60,0,3,,,,,,,,,2,,,32,0
337320,note_on,0,0,3,,,,,,,,,2,,,34,49
337380,note_on,60,0,3,,,,,,,,,2,,,34,0
337380,note_on,0,0,3,,,,,,,,,2,,,32,49
337440,note_on,960,0,1,,,,,,,,,0,,,60,0
337440,note_on,0,0,3,,,,,,,,,2,,,34,49
337440,note_on,0,0,1,,,,,,,,,0,,,48,0
337440,note_on,60,0,3,,,,,,,,,2,,,32,0
337440,note_on,0,0,1,,,,,,,,,0,,,48,49
337440,note_on,0,0,1,,,,,,,,,0,,,51,0
337440,note_on,0,0,1,,,,,,,,,0,,,51,49
337440,note_on,0,0,1,,,,,,,,,0,,,56,0
337440,note_on,0,0,1,,,,,,,,,0,,,60,49
337440,note_on,0,0,1,,,,,,,,,0,,,56,49
337500,note_on,0,0,3,,,,,,,,,2,,,32,49
337500,note_on,60,0,3,,,,,,,,,2,,,34,0
337560,note_on,60,0,3,,,,,,,,,2,,,32,0
337560,note_on,0,0,3,,,,,,,,,2,,,34,49
337620,note_on,0,0,3,,,,,,,,,2,,,32,49
337620,note_on,60,0,3,,,,,,,,,2,,,34,0
337680,note_on,60,0,3,,,,,,,,,2,,,32,0
337680,note_on,0,0,3,,,,,,,,,2,,,34,49
337740,note_on,60,0,3,,,,,,,,,2,,,34,0
337740,note_on,0,0,3,,,,,,,,,2,,,32,49
337800,note_on,0,0,3,,,,,,,,,2,,,34,49
337800,note_on,60,0,3,,,,,,,,,2,,,32,0
337860,note_on,60,0,3,,,,,,,,,2,,,34,0
337860,note_on,0,0,3,,,,,,,,,2,,,32,49
337920,note_on,60,0,3,,,,,,,,,2,,,32,0
337920,note_on,0,0,3,,,,,,,,,2,,,34,49
337980,note_on,60,0,3,,,,,,,,,2,,,34,0
337980,note_on,0,0,3,,,,,,,,,2,,,32,49
338040,note_on,0,0,3,,,,,,,,,2,,,34,49
338040,note_on,60,0,3,,,,,,,,,2,,,32,0
338100,note_on,0,0,3,,,,,,,,,2,,,32,49
338100,note_on,60,0,3,,,,,,,,,2,,,34,0
338160,note_on,0,0,3,,,,,,,,,2,,,34,49
338160,note_on,60,0,3,,,,,,,,,2,,,32,0
338220,note_on,0,0,3,,,,,,,,,2,,,31,49
338220,note_on,60,0,3,,,,,,,,,2,,,34,0
338280,note_on,60,0,3,,,,,,,,,2,,,31,0
338280,note_on,0,0,3,,,,,,,,,2,,,32,49
338340,note_on,0,0,3,,,,,,,,,2,,,34,49
338340,control_change,0,0,3,,,,,,,,,2,64,0,,
338340,note_on,60,0,3,,,,,,,,,2,,,32,0
338400,note_on,960,0,1,,,,,,,,,0,,,60,0
338400,note_on,60,0,3,,,,,,,,,2,,,34,0
338400,note_on,0,0,1,,,,,,,,,0,,,48,0
338400,note_on,0,0,1,,,,,,,,,0,,,51,0
338400,note_on,0,0,1,,,,,,,,,0,,,56,0
338400,note_on,0,0,3,,,,,,,,,2,,,32,49
338400,control_change,0,0,3,,,,,,,,,2,64,127,,
338520,note_on,120,0,3,,,,,,,,,2,,,32,0
338520,note_on,0,0,3,,,,,,,,,2,,,39,49
338640,note_on,120,0,3,,,,,,,,,2,,,39,0
338640,note_on,0,0,3,,,,,,,,,2,,,44,49
338760,note_on,120,0,3,,,,,,,,,2,,,44,0
338760,note_on,0,0,3,,,,,,,,,2,,,48,49
338880,note_on,120,0,3,,,,,,,,,2,,,48,0
338880,note_on,0,0,3,,,,,,,,,2,,,51,49
339000,note_on,0,0,3,,,,,,,,,2,,,56,49
339000,note_on,120,0,3,,,,,,,,,2,,,51,0
339120,note_on,120,0,3,,,,,,,,,2,,,56,0
339120,note_on,0,0,3,,,,,,,,,2,,,60,49
339240,note_on,0,0,3,,,,,,,,,2,,,63,49
339240,note_on,120,0,3,,,,,,,,,2,,,60,0
339360,control_change,960,0,1,,,,,,,,,0,64,127,,
339360,note_on,120,0,3,,,,,,,,,2,,,63,0
339360,note_on,0,0,1,,,,,,,,,0,,,68,49
339480,note_on,120,0,1,,,,,,,,,0,,,68,0
339480,note_on,0,0,1,,,,,,,,,0,,,72,49
339600,note_on,0,0,1,,,,,,,,,0,,,75,49
339600,note_on,120,0,1,,,,,,,,,0,,,72,0
339720,note_on,0,0,1,,,,,,,,,0,,,80,49
339720,note_on,120,0,1,,,,,,,,,0,,,75,0
339840,note_on,0,0,1,,,,,,,,,0,,,84,49
339840,note_on,120,0,1,,,,,,,,,0,,,80,0
339999,note_on,0,0,1,,,,,,,,,0,,,87,49
339999,note_on,159,0,1,,,,,,,,,0,,,84,0
340160,note_on,161,0,1,,,,,,,,,0,,,87,0
340160,note_on,0,0,1,,,,,,,,,0,,,92,49
340320,note_on,160,0,1,,,,,,,,,0,,,92,0
340320,control_change,960,0,3,,,,,,,,,2,64,0,,
340320,time_signature,19200,1,0,5,4,24,8,,,,,,,,,
340320,note_on,0,0,1,,,,,,,,,0,,,87,49
340320,control_change,0,0,1,,,,,,,,,0,64,0,,
340320,end_of_track,0,1,0,,,,,,,,,,,,,
340320,note_on,0,0,1,,,,,,,,,0,,,80,49
340320,note_on,0,0,1,,,,,,,,,0,,,96,49
340320,end_of_track,0,1,3,,,,,,,,,,,,,
340800,note_on,480,0,1,,,,,,,,,0,,,96,0
340800,note_on,0,0,1,,,,,,,,,0,,,87,0
340800,note_on,0,0,1,,,,,,,,,0,,,80,0
340800,control_change,0,0,1,,,,,,,,,0,64,127,,
342240,control_change,1440,0,1,,,,,,,,,0,64,0,,
342240,end_of_track,0,1,1,,,,,,,,,,,,,
