tick,type,time,meta,track,numerator,denominator,clocks_per_click,notated_32nd_notes_per_beat,key,tempo,control,value,channel,program,port,note,velocity
0,control_change,0,0,0,,,,,,,7,100,0,,,,
0,time_signature,0,1,0,4,4,24,8,,,,,,,,,
0,set_tempo,0,1,0,,,,,,1000000,,,,,,,
0,program_change,0,0,0,,,,,,,,,0,0,,,
0,track_name,0,1,0,,,,,,,,,,,,,
0,midi_port,0,1,1,,,,,,,,,,,0,,
0,midi_port,0,1,0,,,,,,,,,,,0,,
0,key_signature,0,1,1,,,,,Db,,,,,,,,
0,key_signature,0,1,0,,,,,Db,,,,,,,,
0,track_name,0,1,1,,,,,,,,,,,,,
0,control_change,0,0,0,,,,,,,121,0,0,,,,
0,control_change,0,0,0,,,,,,,93,0,0,,,,
0,control_change,0,0,0,,,,,,,91,0,0,,,,
0,control_change,0,0,0,,,,,,,10,64,0,,,,
480,note_on,480,0,1,,,,,,,,,0,,,32,80
960,note_on,480,0,1,,,,,,,,,0,,,44,80
1439,note_on,479,0,1,,,,,,,,,0,,,32,0
1440,set_tempo,1440,1,0,,,,,,1200000,,,,,,,
1440,note_on,1,0,1,,,,,,,,,0,,,32,80
1919,note_on,479,0,1,,,,,,,,,0,,,44,0
1920,set_tempo,480,1,0,,,,,,4800002,,,,,,,
1920,note_on,1,0,1,,,,,,,,,0,,,44,80
2159,set_tempo,239,1,0,,,,,,1200000,,,,,,,
2160,note_on,0,0,0,,,,,,,,,0,,,64,70
2160,note_on,0,0,0,,,,,,,,,0,,,59,70
2160,note_on,1,0,0,,,,,,,,,0,,,56,70
2399,note_on,0,0,0,,,,,,,,,0,,,64,0
2399,note_on,0,0,0,,,,,,,,,0,,,59,0
2399,note_on,239,0,0,,,,,,,,,0,,,56,0
2400,note_on,0,0,0,,,,,,,,,0,,,61,70
2400,set_tempo,1,1,0,,,,,,857140,,,,,,,
2400,note_on,0,0,0,,,,,,,,,0,,,57,70
2639,note_on,0,0,0,,,,,,,,,0,,,61,0
2639,note_on,239,0,0,,,,,,,,,0,,,57,0
2640,note_on,0,0,0,,,,,,,,,0,,,59,70
2640,note_on,0,0,0,,,,,,,,,0,,,56,70
2640,note_on,1,0,0,,,,,,,,,0,,,52,70
2879,note_on,239,0,0,,,,,,,,,0,,,52,0
2879,note_on,0,0,0,,,,,,,,,0,,,56,0
2879,note_on,0,0,0,,,,,,,,,0,,,59,0
2880,note_on,0,0,0,,,,,,,,,0,,,61,70
2880,note_on,1,0,0,,,,,,,,,0,,,57,70
3119,note_on,0,0,0,,,,,,,,,0,,,61,0
3119,note_on,239,0,0,,,,,,,,,0,,,57,0
3120,note_on,0,0,0,,,,,,,,,0,,,64,70
3120,note_on,1,0,0,,,,,,,,,0,,,56,70
3120,note_on,0,0,0,,,,,,,,,0,,,59,70
3359,note_on,0,0,0,,,,,,,,,0,,,64,0
3359,note_on,239,0,0,,,,,,,,,0,,,56,0
3359,note_on,0,0,0,,,,,,,,,0,,,59,0
3360,note_on,1,0,0,,,,,,,,,0,,,57,70
3360,note_on,0,0,0,,,,,,,,,0,,,61,70
3599,note_on,239,0,0,,,,,,,,,0,,,57,0
3599,note_on,0,0,0,,,,,,,,,0,,,61,0
3600,note_on,0,0,0,,,,,,,,,0,,,61,70
3600,note_on,0,0,0,,,,,,,,,0,,,64,70
3600,note_on,0,0,0,,,,,,,,,0,,,69,70
3600,set_tempo,1,1,0,,,,,,1200000,,,,,,,
3839,note_on,239,0,0,,,,,,,,,0,,,61,0
3839,note_on,0,0,0,,,,,,,,,0,,,69,0
3839,note_on,0,0,0,,,,,,,,,0,,,64,0
3840,set_tempo,1,1,0,,,,,,2400001,,,,,,,
3840,note_on,0,0,0,,,,,,,,,0,,,62,70
3840,note_on,0,0,0,,,,,,,,,0,,,66,70
4199,note_on,2279,0,1,,,,,,,,,0,,,32,0
4199,note_on,0,0,1,,,,,,,,,0,,,44,0
4295,note_on,0,0,0,,,,,,,,,0,,,66,0
4295,note_on,455,0,0,,,,,,,,,0,,,62,0
4319,set_tempo,24,1,0,,,,,,1200000,,,,,,,
4320,note_on,121,0,1,,,,,,,,,0,,,32,80
4320,set_tempo,1,1,0,,,,,,1000000,,,,,,,
4800,note_on,480,0,1,,,,,,,,,0,,,44,80
5231,note_on,431,0,1,,,,,,,,,0,,,32,0
5280,note_on,49,0,1,,,,,,,,,0,,,32,80
5280,set_tempo,960,1,0,,,,,,1200000,,,,,,,
5711,note_on,431,0,1,,,,,,,,,0,,,44,0
5760,note_on,49,0,1,,,,,,,,,0,,,44,80
5760,set_tempo,480,1,0,,,,,,4800002,,,,,,,
5999,set_tempo,239,1,0,,,,,,1200000,,,,,,,
6000,note_on,1,0,0,,,,,,,,,0,,,61,70
6000,note_on,0,0,0,,,,,,,,,0,,,64,70
6000,note_on,0,0,0,,,,,,,,,0,,,69,70
6239,note_on,239,0,0,,,,,,,,,0,,,61,0
6239,note_on,0,0,0,,,,,,,,,0,,,64,0
6239,note_on,0,0,0,,,,,,,,,0,,,69,0
6240,set_tempo,1,1,0,,,,,,857140,,,,,,,
6240,note_on,0,0,0,,,,,,,,,0,,,62,70
6240,note_on,0,0,0,,,,,,,,,0,,,66,70
6479,note_on,239,0,0,,,,,,,,,0,,,62,0
6479,note_on,0,0,0,,,,,,,,,0,,,66,0
6480,note_on,0,0,0,,,,,,,,,0,,,61,70
6480,note_on,0,0,0,,,,,,,,,0,,,64,70
6480,note_on,1,0,0,,,,,,,,,0,,,57,70
6719,note_on,0,0,0,,,,,,,,,0,,,61,0
6719,note_on,0,0,0,,,,,,,,,0,,,64,0
6719,note_on,239,0,0,,,,,,,,,0,,,57,0
6720,note_on,0,0,0,,,,,,,,,0,,,66,70
6720,note_on,1,0,0,,,,,,,,,0,,,62,70
6959,note_on,239,0,0,,,,,,,,,0,,,62,0
6959,note_on,0,0,0,,,,,,,,,0,,,66,0
6960,note_on,1,0,0,,,,,,,,,0,,,61,70
6960,note_on,0,0,0,,,,,,,,,0,,,64,70
6960,note_on,0,0,0,,,,,,,,,0,,,69,70
7199,note_on,0,0,0,,,,,,,,,0,,,64,0
7199,note_on,0,0,0,,,,,,,,,0,,,69,0
7199,note_on,239,0,0,,,,,,,,,0,,,61,0
7200,note_on,0,0,0,,,,,,,,,0,,,66,70
7200,note_on,1,0,0,,,,,,,,,0,,,62,70
7439,note_on,0,0,0,,,,,,,,,0,,,66,0
7439,note_on,239,0,0,,,,,,,,,0,,,62,0
7440,note_on,0,0,0,,,,,,,,,0,,,69,70
7440,note_on,0,0,0,,,,,,,,,0,,,66,70
7440,note_on,0,0,0,,,,,,,,,0,,,74,70
7440,set_tempo,1,1,0,,,,,,1200000,,,,,,,
7679,note_on,0,0,0,,,,,,,,,0,,,69,0
7679,note_on,0,0,0,,,,,,,,,0,,,74,0
7679,note_on,239,0,0,,,,,,,,,0,,,66,0
7680,note_on,0,0,0,,,,,,,,,0,,,63,70
7680,set_tempo,1,1,0,,,,,,857140,,,,,,,
7716,note_on,36,0,0,,,,,,,,,0,,,66,70
7753,note_on,37,0,0,,,,,,,,,0,,,69,70
7791,note_on,38,0,0,,,,,,,,,0,,,72,70
8015,note_on,2255,0,1,,,,,,,,,0,,,32,0
8039,note_on,24,0,1,,,,,,,,,0,,,44,0
8160,note_on,121,0,1,,,,,,,,,0,,,32,80
8638,note_on,0,0,0,,,,,,,,,0,,,72,0
8638,note_on,0,0,0,,,,,,,,,0,,,69,0
8638,note_on,847,0,0,,,,,,,,,0,,,66,0
8639,note_on,1,0,0,,,,,,,,,0,,,63,0
8640,note_on,480,0,1,,,,,,,,,0,,,44,80
8640,note_on,1,0,0,,,,,,,,,0,,,61,70
8676,note_on,36,0,0,,,,,,,,,0,,,66,70
8713,note_on,37,0,0,,,,,,,,,0,,,69,70
8751,note_on,38,0,0,,,,,,,,,0,,,73,70
9071,note_on,431,0,1,,,,,,,,,0,,,32,0
9120,note_on,49,0,1,,,,,,,,,0,,,32,80
9551,note_on,431,0,1,,,,,,,,,0,,,44,0
9598,note_on,0,0,0,,,,,,,,,0,,,73,0
9598,note_on,847,0,0,,,,,,,,,0,,,66,0
9598,note_on,0,0,0,,,,,,,,,0,,,69,0
9599,note_on,1,0,0,,,,,,,,,0,,,61,0
9600,note_on,49,0,1,,,,,,,,,0,,,44,80
9600,set_tempo,1,1,0,,,,,,1000000,,,,,,,
9600,note_on,0,0,0,,,,,,,,,0,,,60,70
9630,note_on,30,0,0,,,,,,,,,0,,,66,70
9663,note_on,33,0,0,,,,,,,,,0,,,69,70
9696,note_on,33,0,0,,,,,,,,,0,,,75,70
10943,note_on,1343,0,1,,,,,,,,,0,,,32,0
11040,note_on,97,0,1,,,,,,,,,0,,,32,80
11423,note_on,383,0,1,,,,,,,,,0,,,44,0
11518,note_on,0,0,0,,,,,,,,,0,,,69,0
11518,note_on,1822,0,0,,,,,,,,,0,,,66,0
11519,note_on,96,0,1,,,,,,,,,0,,,32,0
11519,note_on,1,0,0,,,,,,,,,0,,,60,0
11519,note_on,0,0,0,,,,,,,,,0,,,75,0
11520,set_tempo,0,1,0,,,,,,375000,,,,,,,
11520,note_on,1,0,1,,,,,,,,,0,,,44,80
11520,time_signature,1,1,0,6,4,24,8,,,,,,,,,
11712,note_on,192,0,1,,,,,,,,,0,,,52,80
11904,note_on,192,0,1,,,,,,,,,0,,,59,80
12096,note_on,192,0,1,,,,,,,,,0,,,64,80
12288,note_on,192,0,1,,,,,,,,,0,,,71,80
12480,set_tempo,960,1,0,,,,,,1000000,,,,,,,
12480,note_on,0,0,0,,,,,,,,,0,,,76,70
13079,note_on,791,0,1,,,,,,,,,0,,,44,0
13727,note_on,648,0,1,,,,,,,,,0,,,52,0
13919,note_on,192,0,1,,,,,,,,,0,,,59,0
13920,note_on,1,0,1,,,,,,,,,0,,,32,80
14111,note_on,191,0,1,,,,,,,,,0,,,64,0
14293,note_on,182,0,1,,,,,,,,,0,,,71,0
14303,note_on,1823,0,0,,,,,,,,,0,,,76,0
14399,note_on,106,0,1,,,,,,,,,0,,,32,0
14400,set_tempo,97,1,0,,,,,,375000,,,,,,,
14400,note_on,1,0,1,,,,,,,,,0,,,44,80
14537,note_on,137,0,1,,,,,,,,,0,,,52,80
14674,note_on,137,0,1,,,,,,,,,0,,,57,80
14811,note_on,137,0,1,,,,,,,,,0,,,61,80
14949,note_on,138,0,1,,,,,,,,,0,,,64,80
15086,note_on,137,0,1,,,,,,,,,0,,,69,80
15223,note_on,137,0,1,,,,,,,,,0,,,73,80
15360,set_tempo,960,1,0,,,,,,750002,,,,,,,
15360,note_on,0,0,0,,,,,,,,,0,,,81,70
15448,note_on,225,0,1,,,,,,,,,0,,,44,0
15585,note_on,137,0,1,,,,,,,,,0,,,52,0
15722,note_on,137,0,1,,,,,,,,,0,,,57,0
15859,note_on,137,0,1,,,,,,,,,0,,,61,0
15997,note_on,138,0,1,,,,,,,,,0,,,64,0
16134,note_on,137,0,1,,,,,,,,,0,,,69,0
16271,note_on,137,0,1,,,,,,,,,0,,,73,0
16271,note_on,911,0,0,,,,,,,,,0,,,81,0
16320,note_on,49,0,1,,,,,,,,,0,,,44,80
16320,set_tempo,49,1,0,,,,,,857140,,,,,,,
16334,note_on,14,0,1,,,,,,,,,0,,,54,80
16348,note_on,14,0,1,,,,,,,,,0,,,57,80
16363,note_on,15,0,1,,,,,,,,,0,,,62,80
16377,note_on,57,0,0,,,,,,,,,0,,,69,70
16392,note_on,15,0,0,,,,,,,,,0,,,74,70
16406,note_on,14,0,0,,,,,,,,,0,,,78,70
16420,note_on,14,0,0,,,,,,,,,0,,,86,70
16774,note_on,0,0,1,,,,,,,,,0,,,62,0
16774,note_on,0,0,1,,,,,,,,,0,,,57,0
16774,note_on,411,0,1,,,,,,,,,0,,,54,0
16775,note_on,1,0,1,,,,,,,,,0,,,44,0
16798,note_on,0,0,0,,,,,,,,,0,,,78,0
16798,note_on,0,0,0,,,,,,,,,0,,,86,0
16798,note_on,378,0,0,,,,,,,,,0,,,69,0
16799,note_on,1,0,0,,,,,,,,,0,,,74,0
16800,note_on,25,0,1,,,,,,,,,0,,,44,80
16800,set_tempo,1,1,0,,,,,,1000000,,,,,,,
16814,note_on,14,0,1,,,,,,,,,0,,,54,80
16828,note_on,14,0,1,,,,,,,,,0,,,60,80
16843,note_on,15,0,1,,,,,,,,,0,,,63,80
16857,note_on,57,0,0,,,,,,,,,0,,,69,70
16872,note_on,15,0,0,,,,,,,,,0,,,75,70
16886,note_on,14,0,0,,,,,,,,,0,,,78,70
16900,note_on,14,0,0,,,,,,,,,0,,,87,70
17254,note_on,411,0,1,,,,,,,,,0,,,54,0
17254,note_on,0,0,1,,,,,,,,,0,,,60,0
17254,note_on,0,0,1,,,,,,,,,0,,,63,0
17255,note_on,1,0,1,,,,,,,,,0,,,44,0
17278,note_on,0,0,0,,,,,,,,,0,,,87,0
17278,note_on,378,0,0,,,,,,,,,0,,,69,0
17278,note_on,0,0,0,,,,,,,,,0,,,78,0
17279,note_on,1,0,0,,,,,,,,,0,,,75,0
17280,set_tempo,0,1,0,,,,,,750002,,,,,,,
17280,note_on,25,0,1,,,,,,,,,0,,,32,80
17280,time_signature,1,1,0,5,4,24,8,,,,,,,,,
17370,note_on,90,0,1,,,,,,,,,0,,,32,0
17376,note_on,6,0,1,,,,,,,,,0,,,44,80
17466,note_on,90,0,1,,,,,,,,,0,,,44,0
17472,note_on,6,0,1,,,,,,,,,0,,,51,80
17568,note_on,96,0,1,,,,,,,,,0,,,54,80
17664,note_on,96,0,1,,,,,,,,,0,,,60,80
17760,note_on,96,0,1,,,,,,,,,0,,,68,80
18000,note_on,0,0,0,,,,,,,,,0,,,72,70
18000,set_tempo,720,1,0,,,,,,1200000,,,,,,,
18079,note_on,79,0,0,,,,,,,,,0,,,72,0
18080,note_on,1,0,0,,,,,,,,,0,,,78,70
18159,note_on,79,0,0,,,,,,,,,0,,,78,0
18160,set_tempo,1,1,0,,,,,,2399998,,,,,,,
18160,note_on,0,0,0,,,,,,,,,0,,,84,70
18239,note_on,79,0,0,,,,,,,,,0,,,84,0
18240,set_tempo,1,1,0,,,,,,1200000,,,,,,,
18240,note_on,0,0,0,,,,,,,,,0,,,92,70
18242,control_change,2,0,0,,,,,,,64,127,0,,,,
18930,note_on,1170,0,1,,,,,,,,,0,,,51,0
19026,note_on,96,0,1,,,,,,,,,0,,,54,0
19122,note_on,96,0,1,,,,,,,,,0,,,60,0
19127,note_on,5,0,1,,,,,,,,,0,,,68,0
19151,note_on,909,0,0,,,,,,,,,0,,,92,0
19200,set_tempo,49,1,0,,,,,,2400001,,,,,,,
19201,control_change,1,0,0,,,,,,,64,0,0,,,,
19439,set_tempo,238,1,0,,,,,,1200000,,,,,,,
19440,note_on,313,0,1,,,,,,,,,0,,,56,80
19667,note_on,227,0,1,,,,,,,,,0,,,56,0
19680,note_on,13,0,1,,,,,,,,,0,,,49,80
19680,time_signature,241,1,0,4,4,24,8,,,,,,,,,
19706,note_on,26,0,1,,,,,,,,,0,,,56,80
19733,note_on,27,0,1,,,,,,,,,0,,,65,80
19918,note_on,185,0,1,,,,,,,,,0,,,56,0
19918,note_on,0,0,1,,,,,,,,,0,,,65,0
19919,note_on,1,0,1,,,,,,,,,0,,,49,0
19920,note_on,1,0,1,,,,,,,,,0,,,53,80
19920,note_on,0,0,1,,,,,,,,,0,,,61,80
20159,note_on,0,0,1,,,,,,,,,0,,,61,0
20159,note_on,239,0,1,,,,,,,,,0,,,53,0
20160,note_on,0,0,0,,,,,,,,,0,,,44,70
20160,note_on,0,0,1,,,,,,,,,0,,,56,80
20160,note_on,1,0,1,,,,,,,,,0,,,53,80
20160,note_on,480,0,0,,,,,,,,,0,,,37,70
20399,note_on,239,0,1,,,,,,,,,0,,,53,0
20399,note_on,0,0,1,,,,,,,,,0,,,56,0
20400,note_on,1,0,1,,,,,,,,,0,,,49,80
20400,set_tempo,240,1,0,,,,,,1000000,,,,,,,
20400,note_on,0,0,1,,,,,,,,,0,,,53,80
20639,note_on,0,0,1,,,,,,,,,0,,,53,0
20639,note_on,239,0,1,,,,,,,,,0,,,49,0
20640,note_on,0,0,1,,,,,,,,,0,,,51,80
20640,note_on,1,0,1,,,,,,,,,0,,,48,80
20879,note_on,0,0,1,,,,,,,,,0,,,51,0
20879,note_on,239,0,1,,,,,,,,,0,,,48,0
20880,note_on,0,0,1,,,,,,,,,0,,,53,80
20880,note_on,1,0,1,,,,,,,,,0,,,47,80
20880,set_tempo,480,1,0,,,,,,857140,,,,,,,
21071,note_on,0,0,0,,,,,,,,,0,,,44,0
21071,note_on,191,0,0,,,,,,,,,0,,,37,0
21119,note_on,0,0,1,,,,,,,,,0,,,53,0
21119,note_on,239,0,1,,,,,,,,,0,,,47,0
21120,note_on,0,0,0,,,,,,,,,0,,,44,70
21120,note_on,1,0,1,,,,,,,,,0,,,46,80
21120,note_on,0,0,1,,,,,,,,,0,,,54,80
21120,note_on,49,0,0,,,,,,,,,0,,,37,70
21359,note_on,0,0,1,,,,,,,,,0,,,54,0
21359,note_on,239,0,1,,,,,,,,,0,,,46,0
21360,note_on,0,0,1,,,,,,,,,0,,,55,80
21360,note_on,0,0,1,,,,,,,,,0,,,52,80
21360,note_on,1,0,1,,,,,,,,,0,,,45,80
21575,note_on,455,0,0,,,,,,,,,0,,,37,0
21575,note_on,0,0,0,,,,,,,,,0,,,44,0
21599,note_on,239,0,1,,,,,,,,,0,,,45,0
21599,note_on,0,0,1,,,,,,,,,0,,,52,0
21599,note_on,0,0,1,,,,,,,,,0,,,55,0
21600,note_on,1,0,1,,,,,,,,,0,,,44,80
21600,note_on,0,0,1,,,,,,,,,0,,,53,80
21600,note_on,25,0,0,,,,,,,,,0,,,37,70
21600,note_on,0,0,1,,,,,,,,,0,,,56,80
21636,note_on,36,0,0,,,,,,,,,0,,,44,70
21636,note_on,36,0,1,,,,,,,,,0,,,44,0
21839,note_on,0,0,1,,,,,,,,,0,,,56,0
21839,note_on,203,0,1,,,,,,,,,0,,,53,0
21840,note_on,0,0,1,,,,,,,,,0,,,58,80
21840,note_on,0,0,1,,,,,,,,,0,,,55,80
21840,note_on,1,0,1,,,,,,,,,0,,,52,80
22079,note_on,0,0,1,,,,,,,,,0,,,55,0
22079,note_on,0,0,1,,,,,,,,,0,,,58,0
22079,note_on,239,0,1,,,,,,,,,0,,,52,0
22080,note_on,0,0,0,,,,,,,,,0,,,80,70
22080,note_on,444,0,0,,,,,,,,,0,,,68,70
22080,note_on,0,0,1,,,,,,,,,0,,,60,80
22080,note_on,0,0,1,,,,,,,,,0,,,54,80
22080,note_on,1,0,1,,,,,,,,,0,,,51,80
22319,note_on,239,0,1,,,,,,,,,0,,,51,0
22319,note_on,0,0,1,,,,,,,,,0,,,60,0
22319,note_on,0,0,1,,,,,,,,,0,,,54,0
22320,note_on,0,0,1,,,,,,,,,0,,,56,80
22320,note_on,1,0,1,,,,,,,,,0,,,53,80
22320,note_on,0,0,1,,,,,,,,,0,,,61,80
22559,note_on,239,0,1,,,,,,,,,0,,,53,0
22559,note_on,0,0,0,,,,,,,,,0,,,80,0
22559,note_on,0,0,1,,,,,,,,,0,,,56,0
22559,note_on,479,0,0,,,,,,,,,0,,,68,0
22559,note_on,0,0,1,,,,,,,,,0,,,61,0
22560,note_on,0,0,1,,,,,,,,,0,,,60,80
22560,note_on,0,0,1,,,,,,,,,0,,,63,80
22560,note_on,1,0,1,,,,,,,,,0,,,54,80
22799,note_on,0,0,1,,,,,,,,,0,,,63,0
22799,note_on,0,0,1,,,,,,,,,0,,,60,0
22799,note_on,239,0,1,,,,,,,,,0,,,54,0
22800,note_on,1,0,1,,,,,,,,,0,,,53,80
22800,note_on,0,0,1,,,,,,,,,0,,,65,80
22800,note_on,0,0,1,,,,,,,,,0,,,61,80
23039,note_on,0,0,1,,,,,,,,,0,,,65,0
23039,note_on,239,0,1,,,,,,,,,0,,,53,0
23039,note_on,0,0,1,,,,,,,,,0,,,61,0
23040,note_on,0,0,1,,,,,,,,,0,,,66,80
23040,set_tempo,481,1,0,,,,,,1200000,,,,,,,
23040,note_on,1,0,1,,,,,,,,,0,,,51,80
23040,note_on,0,0,1,,,,,,,,,0,,,60,80
23040,note_on,0,0,0,,,,,,,,,0,,,68,70
23040,note_on,0,0,0,,,,,,,,,0,,,80,70
23279,note_on,239,0,1,,,,,,,,,0,,,51,0
23279,note_on,0,0,1,,,,,,,,,0,,,66,0
23279,note_on,0,0,1,,,,,,,,,0,,,60,0
23279,note_on,0,0,0,,,,,,,,,0,,,80,0
23279,note_on,239,0,0,,,,,,,,,0,,,68,0
23280,note_on,1,0,1,,,,,,,,,0,,,54,80
23280,note_on,0,0,1,,,,,,,,,0,,,60,80
23280,set_tempo,1,1,0,,,,,,1000000,,,,,,,
23280,note_on,0,0,1,,,,,,,,,0,,,63,80
23507,note_on,227,0,1,,,,,,,,,0,,,54,0
23507,note_on,0,0,1,,,,,,,,,0,,,63,0
23507,note_on,0,0,1,,,,,,,,,0,,,60,0
23518,note_on,238,0,0,,,,,,,,,0,,,44,0
23519,note_on,1,0,0,,,,,,,,,0,,,37,0
23520,note_on,0,0,1,,,,,,,,,0,,,56,80
23520,note_on,1,0,0,,,,,,,,,0,,,77,70
23520,note_on,0,0,1,,,,,,,,,0,,,65,80
23520,note_on,13,0,1,,,,,,,,,0,,,49,80
23551,note_on,31,0,0,,,,,,,,,0,,,92,70
23759,note_on,0,0,1,,,,,,,,,0,,,65,0
23759,note_on,0,0,1,,,,,,,,,0,,,56,0
23759,note_on,239,0,1,,,,,,,,,0,,,49,0
23760,note_on,0,0,1,,,,,,,,,0,,,61,80
23760,note_on,1,0,1,,,,,,,,,0,,,53,80
23998,note_on,447,0,0,,,,,,,,,0,,,92,0
23999,note_on,1,0,0,,,,,,,,,0,,,77,0
23999,note_on,239,0,1,,,,,,,,,0,,,53,0
23999,note_on,0,0,1,,,,,,,,,0,,,61,0
24000,note_on,0,0,0,,,,,,,,,0,,,44,70
24000,note_on,1,0,1,,,,,,,,,0,,,53,80
24000,set_tempo,1,1,0,,,,,,1200000,,,,,,,
24000,note_on,0,0,0,,,,,,,,,0,,,37,70
24000,note_on,0,0,1,,,,,,,,,0,,,56,80
24239,note_on,239,0,1,,,,,,,,,0,,,53,0
24239,note_on,0,0,1,,,,,,,,,0,,,56,0
24240,note_on,1,0,1,,,,,,,,,0,,,49,81
24240,note_on,0,0,1,,,,,,,,,0,,,53,81
24479,note_on,239,0,1,,,,,,,,,0,,,49,0
24479,note_on,0,0,1,,,,,,,,,0,,,53,0
24480,note_on,0,0,1,,,,,,,,,0,,,51,82
24480,set_tempo,480,1,0,,,,,,857140,,,,,,,
24480,note_on,1,0,1,,,,,,,,,0,,,48,82
24719,note_on,0,0,1,,,,,,,,,0,,,51,0
24719,note_on,239,0,1,,,,,,,,,0,,,48,0
24720,note_on,0,0,1,,,,,,,,,0,,,53,84
24720,note_on,1,0,1,,,,,,,,,0,,,47,84
24911,note_on,431,0,0,,,,,,,,,0,,,37,0
24911,note_on,0,0,0,,,,,,,,,0,,,44,0
24959,note_on,0,0,1,,,,,,,,,0,,,53,0
24959,note_on,239,0,1,,,,,,,,,0,,,47,0
24960,note_on,0,0,1,,,,,,,,,0,,,54,85
24960,note_on,1,0,1,,,,,,,,,0,,,46,85
24960,note_on,0,0,0,,,,,,,,,0,,,44,80
24960,note_on,49,0,0,,,,,,,,,0,,,37,80
25199,note_on,0,0,1,,,,,,,,,0,,,54,0
25199,note_on,239,0,1,,,,,,,,,0,,,46,0
25200,note_on,1,0,1,,,,,,,,,0,,,45,86
25200,note_on,0,0,1,,,,,,,,,0,,,55,86
25200,note_on,0,0,1,,,,,,,,,0,,,52,86
25415,note_on,455,0,0,,,,,,,,,0,,,37,0
25415,note_on,0,0,0,,,,,,,,,0,,,44,0
25439,note_on,0,0,1,,,,,,,,,0,,,52,0
25439,note_on,0,0,1,,,,,,,,,0,,,55,0
25439,note_on,239,0,1,,,,,,,,,0,,,45,0
25440,note_on,0,0,1,,,,,,,,,0,,,56,88
25440,note_on,0,0,1,,,,,,,,,0,,,53,88
25440,note_on,25,0,0,,,,,,,,,0,,,37,85
25440,note_on,1,0,1,,,,,,,,,0,,,44,88
25476,note_on,36,0,1,,,,,,,,,0,,,44,0
25476,note_on,36,0,0,,,,,,,,,0,,,44,85
25679,note_on,203,0,1,,,,,,,,,0,,,53,0
25679,note_on,0,0,1,,,,,,,,,0,,,56,0
25680,note_on,0,0,1,,,,,,,,,0,,,55,89
25680,note_on,1,0,1,,,,,,,,,0,,,52,89
25680,note_on,0,0,1,,,,,,,,,0,,,58,89
25919,note_on,239,0,1,,,,,,,,,0,,,52,0
25919,note_on,0,0,1,,,,,,,,,0,,,55,0
25919,note_on,0,0,1,,,,,,,,,0,,,58,0
25920,note_on,1,0,1,,,,,,,,,0,,,51,90
25920,note_on,444,0,0,,,,,,,,,0,,,68,91
25920,note_on,0,0,0,,,,,,,,,0,,,80,91
25920,note_on,0,0,1,,,,,,,,,0,,,60,90
25920,note_on,0,0,1,,,,,,,,,0,,,54,90
26159,note_on,0,0,1,,,,,,,,,0,,,54,0
26159,note_on,0,0,1,,,,,,,,,0,,,60,0
26159,note_on,239,0,1,,,,,,,,,0,,,51,0
26160,note_on,0,0,1,,,,,,,,,0,,,61,92
26160,note_on,1,0,1,,,,,,,,,0,,,53,92
26160,note_on,0,0,1,,,,,,,,,0,,,56,92
26399,note_on,0,0,0,,,,,,,,,0,,,80,0
26399,note_on,239,0,1,,,,,,,,,0,,,53,0
26399,note_on,0,0,1,,,,,,,,,0,,,56,0
26399,note_on,0,0,1,,,,,,,,,0,,,61,0
26399,note_on,479,0,0,,,,,,,,,0,,,68,0
26400,note_on,1,0,1,,,,,,,,,0,,,54,93
26400,note_on,0,0,1,,,,,,,,,0,,,60,93
26400,note_on,0,0,1,,,,,,,,,0,,,63,93
26639,note_on,239,0,1,,,,,,,,,0,,,54,0
26639,note_on,0,0,1,,,,,,,,,0,,,60,0
26639,note_on,0,0,1,,,,,,,,,0,,,63,0
26640,note_on,1,0,1,,,,,,,,,0,,,53,95
26640,note_on,0,0,1,,,,,,,,,0,,,65,95
26640,note_on,0,0,1,,,,,,,,,0,,,61,95
26879,note_on,0,0,1,,,,,,,,,0,,,65,0
26879,note_on,239,0,1,,,,,,,,,0,,,53,0
26879,note_on,0,0,1,,,,,,,,,0,,,61,0
26880,note_on,1,0,1,,,,,,,,,0,,,51,95
26880,note_on,0,0,0,,,,,,,,,0,,,80,100
26880,note_on,0,0,1,,,,,,,,,0,,,60,95
26880,note_on,0,0,1,,,,,,,,,0,,,66,95
26880,note_on,481,0,0,,,,,,,,,0,,,68,100
27119,note_on,239,0,1,,,,,,,,,0,,,51,0
27119,note_on,239,0,0,,,,,,,,,0,,,68,0
27119,note_on,0,0,1,,,,,,,,,0,,,60,0
27119,note_on,0,0,1,,,,,,,,,0,,,66,0
27119,note_on,0,0,0,,,,,,,,,0,,,80,0
27120,note_on,1,0,1,,,,,,,,,0,,,54,95
27120,note_on,0,0,1,,,,,,,,,0,,,60,95
27120,note_on,0,0,1,,,,,,,,,0,,,63,95
27347,note_on,227,0,1,,,,,,,,,0,,,54,0
27347,note_on,0,0,1,,,,,,,,,0,,,60,0
27347,note_on,0,0,1,,,,,,,,,0,,,63,0
27358,note_on,239,0,0,,,,,,,,,0,,,44,0
27359,note_on,1,0,0,,,,,,,,,0,,,37,0
27360,note_on,13,0,1,,,,,,,,,0,,,49,95
27397,note_on,37,0,1,,,,,,,,,0,,,56,95
27434,note_on,37,0,1,,,,,,,,,0,,,65,95
27434,note_on,75,0,0,,,,,,,,,0,,,77,100
27434,note_on,0,0,0,,,,,,,,,0,,,92,100
27598,note_on,0,0,0,,,,,,,,,0,,,92,0
27598,note_on,164,0,1,,,,,,,,,0,,,56,0
27598,note_on,164,0,0,,,,,,,,,0,,,77,0
27598,note_on,0,0,1,,,,,,,,,0,,,65,0
27599,note_on,1,0,1,,,,,,,,,0,,,49,0
27600,note_on,0,0,1,,,,,,,,,0,,,61,95
27600,note_on,1,0,1,,,,,,,,,0,,,53,95
27839,note_on,239,0,1,,,,,,,,,0,,,53,0
27839,note_on,0,0,1,,,,,,,,,0,,,61,0
27840,note_on,1,0,1,,,,,,,,,0,,,51,95
27840,note_on,242,0,0,,,,,,,,,0,,,68,100
27840,note_on,0,0,1,,,,,,,,,0,,,60,95
27876,note_on,36,0,0,,,,,,,,,0,,,80,100
27913,note_on,37,0,0,,,,,,,,,0,,,92,100
28079,note_on,0,0,1,,,,,,,,,0,,,60,0
28079,note_on,239,0,1,,,,,,,,,0,,,51,0
28080,note_on,0,0,1,,,,,,,,,0,,,58,95
28080,note_on,1,0,1,,,,,,,,,0,,,49,95
28319,note_on,0,0,1,,,,,,,,,0,,,58,0
28319,note_on,239,0,1,,,,,,,,,0,,,49,0
28320,note_on,0,0,1,,,,,,,,,0,,,56,95
28320,note_on,1,0,1,,,,,,,,,0,,,48,95
28320,note_on,0,0,1,,,,,,,,,0,,,63,95
28547,note_on,0,0,1,,,,,,,,,0,,,63,0
28547,note_on,0,0,1,,,,,,,,,0,,,56,0
28547,note_on,227,0,1,,,,,,,,,0,,,48,0
28560,note_on,13,0,1,,,,,,,,,0,,,53,95
28560,note_on,0,0,1,,,,,,,,,0,,,61,95
28798,note_on,0,0,0,,,,,,,,,0,,,92,0
28798,note_on,885,0,0,,,,,,,,,0,,,80,0
28799,note_on,1,0,0,,,,,,,,,0,,,68,0
28799,note_on,239,0,1,,,,,,,,,0,,,53,0
28799,note_on,0,0,1,,,,,,,,,0,,,61,0
28800,note_on,1,0,1,,,,,,,,,0,,,51,95
28800,note_on,0,0,1,,,,,,,,,0,,,60,95
28800,note_on,1,0,0,,,,,,,,,0,,,68,100
28836,note_on,36,0,0,,,,,,,,,0,,,80,100
28874,note_on,38,0,0,,,,,,,,,0,,,92,100
29039,note_on,0,0,1,,,,,,,,,0,,,60,0
29039,note_on,239,0,1,,,,,,,,,0,,,51,0
29040,note_on,0,0,1,,,,,,,,,0,,,58,95
29040,note_on,1,0,1,,,,,,,,,0,,,49,95
29278,note_on,404,0,0,,,,,,,,,0,,,80,0
29278,note_on,0,0,0,,,,,,,,,0,,,92,0
29279,note_on,0,0,1,,,,,,,,,0,,,58,0
29279,note_on,239,0,1,,,,,,,,,0,,,49,0
29279,note_on,1,0,0,,,,,,,,,0,,,68,0
29280,note_on,0,0,1,,,,,,,,,0,,,56,95
29280,note_on,1,0,0,,,,,,,,,0,,,75,100
29280,note_on,1,0,1,,,,,,,,,0,,,48,95
29317,note_on,37,0,0,,,,,,,,,0,,,87,100
29354,note_on,37,0,0,,,,,,,,,0,,,99,100
29507,note_on,227,0,1,,,,,,,,,0,,,48,0
29507,note_on,0,0,1,,,,,,,,,0,,,56,0
29518,note_on,164,0,0,,,,,,,,,0,,,87,0
29518,note_on,0,0,0,,,,,,,,,0,,,99,0
29519,note_on,1,0,0,,,,,,,,,0,,,75,0
29520,note_on,13,0,1,,,,,,,,,0,,,53,95
29520,note_on,0,0,1,,,,,,,,,0,,,61,95
29759,note_on,0,0,1,,,,,,,,,0,,,61,0
29759,note_on,239,0,1,,,,,,,,,0,,,53,0
29760,note_on,0,0,1,,,,,,,,,0,,,60,95
29760,note_on,241,0,0,,,,,,,,,0,,,39,100
29760,note_on,0,0,0,,,,,,,,,0,,,44,100
29760,note_on,1,0,1,,,,,,,,,0,,,51,95
29999,note_on,0,0,1,,,,,,,,,0,,,60,0
29999,note_on,239,0,1,,,,,,,,,0,,,51,0
30000,note_on,0,0,1,,,,,,,,,0,,,58,95
30000,note_on,1,0,1,,,,,,,,,0,,,49,95
30239,note_on,239,0,1,,,,,,,,,0,,,49,0
30239,note_on,0,0,1,,,,,,,,,0,,,58,0
30240,note_on,0,0,1,,,,,,,,,0,,,56,95
30240,note_on,1,0,1,,,,,,,,,0,,,48,95
30240,note_on,0,0,1,,,,,,,,,0,,,63,95
30467,note_on,227,0,1,,,,,,,,,0,,,48,0
30467,note_on,0,0,1,,,,,,,,,0,,,63,0
30467,note_on,0,0,1,,,,,,,,,0,,,56,0
30480,note_on,0,0,1,,,,,,,,,0,,,57,95
30480,note_on,0,0,1,,,,,,,,,0,,,52,95
30480,note_on,13,0,1,,,,,,,,,0,,,49,95
30480,note_on,0,0,1,,,,,,,,,0,,,61,95
30599,note_on,0,0,1,,,,,,,,,0,,,57,0
30599,note_on,0,0,1,,,,,,,,,0,,,52,0
30599,note_on,119,0,1,,,,,,,,,0,,,49,0
30599,note_on,0,0,1,,,,,,,,,0,,,61,0
30671,note_on,0,0,0,,,,,,,,,0,,,44,0
30671,note_on,911,0,0,,,,,,,,,0,,,39,0
30720,note_on,0,0,0,,,,,,,,,0,,,39,95
30720,note_on,0,0,1,,,,,,,,,0,,,60,90
30720,note_on,0,0,1,,,,,,,,,0,,,56,90
30720,set_tempo,49,1,0,,,,,,1000000,,,,,,,
30720,note_on,121,0,1,,,,,,,,,0,,,51,90
30839,note_on,119,0,1,,,,,,,,,0,,,51,0
30839,note_on,0,0,1,,,,,,,,,0,,,60,0
30839,note_on,0,0,1,,,,,,,,,0,,,56,0
30960,note_on,121,0,1,,,,,,,,,0,,,49,85
30960,note_on,0,0,1,,,,,,,,,0,,,55,85
30960,note_on,0,0,1,,,,,,,,,0,,,58,85
30960,set_tempo,240,1,0,,,,,,1499999,,,,,,,
31079,note_on,119,0,1,,,,,,,,,0,,,49,0
31079,note_on,0,0,1,,,,,,,,,0,,,58,0
31079,note_on,0,0,1,,,,,,,,,0,,,55,0
31175,note_on,215,0,0,,,,,,,,,0,,,39,0
31200,set_tempo,25,1,0,,,,,,3000003,,,,,,,
31200,note_on,0,0,0,,,,,,,,,0,,,32,85
31200,note_on,0,0,1,,,,,,,,,0,,,56,80
31200,note_on,121,0,1,,,,,,,,,0,,,48,80
31427,note_on,227,0,1,,,,,,,,,0,,,48,0
31427,note_on,0,0,1,,,,,,,,,0,,,56,0
31427,note_on,227,0,0,,,,,,,,,0,,,32,0
31440,set_tempo,13,1,0,,,,,,923080,,,,,,,
31440,note_on,0,0,0,,,,,,,,,0,,,74,70
31440,note_on,0,0,0,,,,,,,,,0,,,77,70
31440,note_on,0,0,0,,,,,,,,,0,,,68,70
31440,note_on,0,0,0,,,,,,,,,0,,,83,70
31679,note_on,0,0,0,,,,,,,,,0,,,77,0
31679,note_on,0,0,0,,,,,,,,,0,,,83,0
31679,note_on,239,0,0,,,,,,,,,0,,,68,0
31679,note_on,0,0,0,,,,,,,,,0,,,74,0
31680,note_on,0,0,0,,,,,,,,,0,,,75,70
31680,note_on,0,0,0,,,,,,,,,0,,,78,70
31680,note_on,1,0,0,,,,,,,,,0,,,70,70
31907,note_on,227,0,0,,,,,,,,,0,,,70,0
31907,note_on,0,0,0,,,,,,,,,0,,,78,0
31907,note_on,0,0,0,,,,,,,,,0,,,75,0
31920,note_on,0,0,0,,,,,,,,,0,,,75,70
31920,note_on,13,0,0,,,,,,,,,0,,,66,70
31920,note_on,0,0,0,,,,,,,,,0,,,81,70
31920,note_on,0,0,0,,,,,,,,,0,,,72,70
32159,note_on,0,0,0,,,,,,,,,0,,,72,0
32159,note_on,0,0,0,,,,,,,,,0,,,75,0
32159,note_on,239,0,0,,,,,,,,,0,,,66,0
32159,note_on,0,0,0,,,,,,,,,0,,,81,0
32160,note_on,0,0,0,,,,,,,,,0,,,73,70
32160,note_on,1,0,0,,,,,,,,,0,,,68,70
32160,note_on,0,0,0,,,,,,,,,0,,,77,70
32387,note_on,227,0,0,,,,,,,,,0,,,68,0
32387,note_on,0,0,0,,,,,,,,,0,,,73,0
32387,note_on,0,0,0,,,,,,,,,0,,,77,0
32400,note_on,0,0,0,,,,,,,,,0,,,80,70
32400,note_on,13,0,0,,,,,,,,,0,,,65,70
32400,note_on,0,0,0,,,,,,,,,0,,,74,70
32400,note_on,0,0,0,,,,,,,,,0,,,71,70
32639,note_on,0,0,0,,,,,,,,,0,,,71,0
32639,note_on,0,0,0,,,,,,,,,0,,,74,0
32639,note_on,0,0,0,,,,,,,,,0,,,80,0
32639,note_on,239,0,0,,,,,,,,,0,,,65,0
32640,note_on,0,0,0,,,,,,,,,0,,,70,70
32640,note_on,0,0,0,,,,,,,,,0,,,75,70
32640,note_on,1,0,0,,,,,,,,,0,,,66,70
32867,note_on,0,0,0,,,,,,,,,0,,,75,0
32867,note_on,0,0,0,,,,,,,,,0,,,70,0
32867,note_on,227,0,0,,,,,,,,,0,,,66,0
32880,note_on,0,0,0,,,,,,,,,0,,,69,70
32880,note_on,0,0,0,,,,,,,,,0,,,78,70
32880,note_on,0,0,0,,,,,,,,,0,,,72,70
32880,note_on,13,0,0,,,,,,,,,0,,,63,70
33119,note_on,0,0,0,,,,,,,,,0,,,72,0
33119,note_on,0,0,0,,,,,,,,,0,,,78,0
33119,note_on,239,0,0,,,,,,,,,0,,,63,0
33119,note_on,0,0,0,,,,,,,,,0,,,69,0
33120,note_on,0,0,1,,,,,,,,,0,,,70,70
33120,note_on,0,0,1,,,,,,,,,0,,,76,70
33120,set_tempo,1,1,0,,,,,,1499999,,,,,,,
33120,note_on,0,0,1,,,,,,,,,0,,,67,70
33120,note_on,1693,0,1,,,,,,,,,0,,,61,70
33122,control_change,2,0,0,,,,,,,64,127,0,,,,
33347,note_on,227,0,1,,,,,,,,,0,,,61,0
33347,note_on,0,0,1,,,,,,,,,0,,,70,0
33347,note_on,0,0,1,,,,,,,,,0,,,67,0
33347,note_on,0,0,1,,,,,,,,,0,,,76,0
33360,set_tempo,238,1,0,,,,,,923080,,,,,,,
33360,note_on,0,0,0,,,,,,,,,0,,,70,70
33382,note_on,22,0,0,,,,,,,,,0,,,76,70
33405,note_on,23,0,0,,,,,,,,,0,,,79,70
33428,note_on,23,0,0,,,,,,,,,0,,,85,70
33598,note_on,170,0,0,,,,,,,,,0,,,76,0
33598,note_on,0,0,0,,,,,,,,,0,,,79,0
33598,note_on,0,0,0,,,,,,,,,0,,,85,0
33599,note_on,1,0,0,,,,,,,,,0,,,70,0
33600,note_on,1,0,0,,,,,,,,,0,,,67,70
33600,note_on,253,0,1,,,,,,,,,0,,,32,70
33622,note_on,22,0,0,,,,,,,,,0,,,73,70
33633,note_on,33,0,1,,,,,,,,,0,,,37,70
33645,note_on,23,0,0,,,,,,,,,0,,,76,70
33668,note_on,23,0,0,,,,,,,,,0,,,82,70
33669,note_on,36,0,1,,,,,,,,,0,,,44,70
33703,note_on,34,0,1,,,,,,,,,0,,,49,70
33838,note_on,170,0,0,,,,,,,,,0,,,73,0
33838,note_on,0,0,0,,,,,,,,,0,,,76,0
33838,note_on,0,0,0,,,,,,,,,0,,,82,0
33839,note_on,1,0,0,,,,,,,,,0,,,67,0
33840,note_on,1,0,0,,,,,,,,,0,,,70,70
33862,note_on,22,0,0,,,,,,,,,0,,,76,70
33885,note_on,23,0,0,,,,,,,,,0,,,79,70
33908,note_on,23,0,0,,,,,,,,,0,,,85,70
34078,note_on,170,0,0,,,,,,,,,0,,,76,0
34078,note_on,0,0,0,,,,,,,,,0,,,79,0
34078,note_on,0,0,0,,,,,,,,,0,,,85,0
34079,note_on,1,0,0,,,,,,,,,0,,,70,0
34080,note_on,1,0,0,,,,,,,,,0,,,73,70
34102,note_on,22,0,0,,,,,,,,,0,,,79,70
34125,note_on,23,0,0,,,,,,,,,0,,,82,70
34148,note_on,23,0,0,,,,,,,,,0,,,88,70
34318,note_on,0,0,0,,,,,,,,,0,,,88,0
34318,note_on,170,0,0,,,,,,,,,0,,,79,0
34318,note_on,0,0,0,,,,,,,,,0,,,82,0
34319,note_on,1,0,0,,,,,,,,,0,,,73,0
34320,note_on,1,0,0,,,,,,,,,0,,,76,70
34342,note_on,22,0,0,,,,,,,,,0,,,82,70
34365,note_on,23,0,0,,,,,,,,,0,,,85,70
34388,note_on,23,0,0,,,,,,,,,0,,,90,70
34558,note_on,0,0,0,,,,,,,,,0,,,85,0
34558,note_on,855,0,1,,,,,,,,,0,,,37,0
34558,note_on,170,0,0,,,,,,,,,0,,,82,0
34558,note_on,0,0,1,,,,,,,,,0,,,49,0
34558,note_on,0,0,1,,,,,,,,,0,,,44,0
34558,note_on,0,0,0,,,,,,,,,0,,,90,0
34559,note_on,1,0,0,,,,,,,,,0,,,76,0
34559,note_on,1,0,1,,,,,,,,,0,,,32,0
34560,note_on,1,0,0,,,,,,,,,0,,,73,70
34560,note_on,1,0,1,,,,,,,,,0,,,32,70
34582,note_on,22,0,0,,,,,,,,,0,,,79,70
34594,note_on,34,0,1,,,,,,,,,0,,,37,70
34605,note_on,23,0,0,,,,,,,,,0,,,82,70
34628,note_on,23,0,0,,,,,,,,,0,,,88,70
34629,note_on,35,0,1,,,,,,,,,0,,,44,70
34663,note_on,34,0,1,,,,,,,,,0,,,49,70
34798,note_on,170,0,0,,,,,,,,,0,,,79,0
34798,note_on,0,0,0,,,,,,,,,0,,,82,0
34798,note_on,0,0,0,,,,,,,,,0,,,88,0
34799,note_on,1,0,0,,,,,,,,,0,,,73,0
34800,set_tempo,1,1,0,,,,,,1499999,,,,,,,
34800,note_on,0,0,0,,,,,,,,,0,,,70,70
34813,note_on,13,0,0,,,,,,,,,0,,,76,70
34827,note_on,14,0,0,,,,,,,,,0,,,79,70
34842,note_on,15,0,0,,,,,,,,,0,,,85,70
35038,note_on,196,0,0,,,,,,,,,0,,,76,0
35038,note_on,375,0,1,,,,,,,,,0,,,37,0
35038,note_on,0,0,1,,,,,,,,,0,,,49,0
35038,note_on,0,0,1,,,,,,,,,0,,,44,0
35038,note_on,0,0,0,,,,,,,,,0,,,79,0
35039,note_on,1,0,0,,,,,,,,,0,,,70,0
35039,note_on,1,0,1,,,,,,,,,0,,,32,0
35039,note_on,0,0,0,,,,,,,,,0,,,85,0
35040,note_on,1,0,1,,,,,,,,,0,,,32,70
35040,note_on,1,0,0,,,,,,,,,0,,,68,70
35041,control_change,1,0,0,,,,,,,64,0,0,,,,
35053,note_on,13,0,1,,,,,,,,,0,,,39,70
35061,note_on,20,0,0,,,,,,,,,0,,,75,70
35067,note_on,14,0,1,,,,,,,,,0,,,44,70
35082,note_on,15,0,1,,,,,,,,,0,,,51,70
35082,note_on,21,0,0,,,,,,,,,0,,,84,70
35095,note_on,13,0,1,,,,,,,,,0,,,56,70
35278,note_on,196,0,0,,,,,,,,,0,,,75,0
35278,note_on,183,0,1,,,,,,,,,0,,,39,0
35278,note_on,0,0,0,,,,,,,,,0,,,84,0
35278,note_on,0,0,1,,,,,,,,,0,,,44,0
35278,note_on,0,0,1,,,,,,,,,0,,,56,0
35279,note_on,1,0,1,,,,,,,,,0,,,32,0
35279,note_on,1,0,0,,,,,,,,,0,,,68,0
35279,note_on,0,0,1,,,,,,,,,0,,,51,0
35280,note_on,0,0,1,,,,,,,,,0,,,71,70
35280,note_on,1,0,1,,,,,,,,,0,,,62,70
35280,set_tempo,1,1,0,,,,,,923080,,,,,,,
35280,note_on,0,0,1,,,,,,,,,0,,,65,70
35519,note_on,0,0,1,,,,,,,,,0,,,71,0
35519,note_on,0,0,1,,,,,,,,,0,,,65,0
35519,note_on,239,0,1,,,,,,,,,0,,,62,0
35520,note_on,0,0,1,,,,,,,,,0,,,63,70
35520,note_on,0,0,1,,,,,,,,,0,,,66,70
35520,note_on,1,0,1,,,,,,,,,0,,,58,70
35747,note_on,0,0,1,,,,,,,,,0,,,63,0
35747,note_on,0,0,1,,,,,,,,,0,,,66,0
35747,note_on,227,0,1,,,,,,,,,0,,,58,0
35760,note_on,0,0,1,,,,,,,,,0,,,69,70
35760,note_on,13,0,1,,,,,,,,,0,,,60,70
35760,note_on,0,0,1,,,,,,,,,0,,,63,70
35999,note_on,0,0,1,,,,,,,,,0,,,63,0
35999,note_on,0,0,1,,,,,,,,,0,,,69,0
35999,note_on,239,0,1,,,,,,,,,0,,,60,0
36000,note_on,0,0,1,,,,,,,,,0,,,61,70
36000,note_on,1,0,1,,,,,,,,,0,,,56,70
36000,note_on,0,0,1,,,,,,,,,0,,,65,70
36227,note_on,0,0,1,,,,,,,,,0,,,61,0
36227,note_on,0,0,1,,,,,,,,,0,,,65,0
36227,note_on,227,0,1,,,,,,,,,0,,,56,0
36240,note_on,0,0,1,,,,,,,,,0,,,62,70
36240,note_on,0,0,1,,,,,,,,,0,,,68,70
36240,note_on,13,0,1,,,,,,,,,0,,,59,70
36479,note_on,0,0,1,,,,,,,,,0,,,62,0
36479,note_on,0,0,1,,,,,,,,,0,,,68,0
36479,note_on,239,0,1,,,,,,,,,0,,,59,0
36480,set_tempo,1200,1,0,,,,,,1000000,,,,,,,
36480,note_on,0,0,1,,,,,,,,,0,,,58,70
36480,note_on,0,0,1,,,,,,,,,0,,,63,70
36480,note_on,1,0,1,,,,,,,,,0,,,54,70
36707,note_on,0,0,1,,,,,,,,,0,,,63,0
36707,note_on,0,0,1,,,,,,,,,0,,,58,0
36707,note_on,227,0,1,,,,,,,,,0,,,54,0
36720,note_on,0,0,1,,,,,,,,,0,,,63,70
36720,set_tempo,240,1,0,,,,,,1499999,,,,,,,
36720,note_on,13,0,1,,,,,,,,,0,,,57,70
36720,note_on,0,0,1,,,,,,,,,0,,,60,70
36720,note_on,0,0,1,,,,,,,,,0,,,66,70
36959,note_on,0,0,1,,,,,,,,,0,,,60,0
36959,note_on,0,0,1,,,,,,,,,0,,,63,0
36959,note_on,0,0,1,,,,,,,,,0,,,66,0
36959,note_on,239,0,1,,,,,,,,,0,,,57,0
36960,note_on,0,0,1,,,,,,,,,0,,,59,70
36960,note_on,0,0,1,,,,,,,,,0,,,64,70
36960,note_on,1,0,1,,,,,,,,,0,,,56,70
36962,control_change,242,0,0,,,,,,,64,127,0,,,,
37187,note_on,0,0,1,,,,,,,,,0,,,59,0
37187,note_on,0,0,1,,,,,,,,,0,,,64,0
37187,note_on,227,0,1,,,,,,,,,0,,,56,0
37200,note_on,0,0,0,,,,,,,,,0,,,71,70
37200,set_tempo,238,1,0,,,,,,923080,,,,,,,
37200,note_on,0,0,0,,,,,,,,,0,,,68,70
37200,note_on,0,0,0,,,,,,,,,0,,,64,70
37439,note_on,0,0,0,,,,,,,,,0,,,71,0
37439,note_on,0,0,0,,,,,,,,,0,,,68,0
37439,note_on,239,0,0,,,,,,,,,0,,,64,0
37440,note_on,0,0,0,,,,,,,,,0,,,64,70
37440,note_on,1,0,0,,,,,,,,,0,,,59,70
37440,note_on,0,0,0,,,,,,,,,0,,,68,70
37440,note_on,253,0,1,,,,,,,,,0,,,32,70
37473,note_on,33,0,1,,,,,,,,,0,,,40,70
37509,note_on,36,0,1,,,,,,,,,0,,,47,70
37543,note_on,34,0,1,,,,,,,,,0,,,52,70
37679,note_on,0,0,0,,,,,,,,,0,,,68,0
37679,note_on,0,0,0,,,,,,,,,0,,,64,0
37679,note_on,239,0,0,,,,,,,,,0,,,59,0
37680,note_on,1,0,0,,,,,,,,,0,,,64,70
37680,note_on,0,0,0,,,,,,,,,0,,,68,70
37680,note_on,0,0,0,,,,,,,,,0,,,71,70
37919,note_on,0,0,0,,,,,,,,,0,,,68,0
37919,note_on,0,0,0,,,,,,,,,0,,,71,0
37919,note_on,239,0,0,,,,,,,,,0,,,64,0
37920,note_on,1,0,0,,,,,,,,,0,,,68,70
37920,note_on,0,0,0,,,,,,,,,0,,,71,70
37920,note_on,0,0,0,,,,,,,,,0,,,76,70
38159,note_on,239,0,0,,,,,,,,,0,,,68,0
38159,note_on,0,0,0,,,,,,,,,0,,,71,0
38159,note_on,0,0,0,,,,,,,,,0,,,76,0
38160,note_on,0,0,0,,,,,,,,,0,,,71,70
38160,note_on,1,0,0,,,,,,,,,0,,,68,70
38160,note_on,0,0,0,,,,,,,,,0,,,78,70
38398,note_on,0,0,1,,,,,,,,,0,,,47,0
38398,note_on,855,0,1,,,,,,,,,0,,,40,0
38398,note_on,0,0,1,,,,,,,,,0,,,52,0
38399,note_on,0,0,0,,,,,,,,,0,,,71,0
38399,note_on,0,0,0,,,,,,,,,0,,,78,0
38399,note_on,1,0,1,,,,,,,,,0,,,32,0
38399,note_on,239,0,0,,,,,,,,,0,,,68,0
38400,note_on,1,0,0,,,,,,,,,0,,,68,70
38400,note_on,0,0,0,,,,,,,,,0,,,76,70
38400,note_on,1,0,1,,,,,,,,,0,,,32,70
38400,note_on,0,0,0,,,,,,,,,0,,,71,70
38434,note_on,34,0,1,,,,,,,,,0,,,40,70
38469,note_on,35,0,1,,,,,,,,,0,,,47,70
38503,note_on,34,0,1,,,,,,,,,0,,,52,70
38639,note_on,0,0,0,,,,,,,,,0,,,71,0
38639,note_on,0,0,0,,,,,,,,,0,,,76,0
38639,note_on,239,0,0,,,,,,,,,0,,,68,0
38640,note_on,0,0,0,,,,,,,,,0,,,71,70
38640,note_on,0,0,0,,,,,,,,,0,,,68,70
38640,note_on,1,0,0,,,,,,,,,0,,,64,70
38867,note_on,227,0,0,,,,,,,,,0,,,64,0
38867,note_on,0,0,0,,,,,,,,,0,,,68,0
38867,note_on,0,0,0,,,,,,,,,0,,,71,0
38878,note_on,375,0,1,,,,,,,,,0,,,40,0
38878,note_on,0,0,1,,,,,,,,,0,,,47,0
38878,note_on,0,0,1,,,,,,,,,0,,,52,0
38879,note_on,1,0,1,,,,,,,,,0,,,32,0
38880,note_on,0,0,0,,,,,,,,,0,,,64,70
38880,note_on,0,0,0,,,,,,,,,0,,,69,70
38880,note_on,0,0,0,,,,,,,,,0,,,73,70
38880,set_tempo,13,1,0,,,,,,1000000,,,,,,,
38881,control_change,1,0,0,,,,,,,64,0,0,,,,
38882,control_change,1,0,0,,,,,,,64,127,0,,,,
39119,note_on,0,0,0,,,,,,,,,0,,,73,0
39119,note_on,0,0,0,,,,,,,,,0,,,69,0
39119,note_on,237,0,0,,,,,,,,,0,,,64,0
39120,note_on,0,0,0,,,,,,,,,0,,,66,70
39120,note_on,1,0,0,,,,,,,,,0,,,61,70
39120,note_on,0,0,0,,,,,,,,,0,,,69,70
39359,note_on,0,0,0,,,,,,,,,0,,,66,0
39359,note_on,0,0,0,,,,,,,,,0,,,69,0
39359,note_on,239,0,0,,,,,,,,,0,,,61,0
39360,note_on,1,0,0,,,,,,,,,0,,,57,70
39360,note_on,481,0,1,,,,,,,,,0,,,32,70
39360,note_on,0,0,0,,,,,,,,,0,,,64,70
39360,note_on,0,0,0,,,,,,,,,0,,,61,70
39391,note_on,31,0,1,,,,,,,,,0,,,40,70
39423,note_on,32,0,1,,,,,,,,,0,,,45,70
39456,note_on,33,0,1,,,,,,,,,0,,,49,70
39599,note_on,0,0,0,,,,,,,,,0,,,61,0
39599,note_on,239,0,0,,,,,,,,,0,,,57,0
39599,note_on,0,0,0,,,,,,,,,0,,,64,0
39600,note_on,1,0,0,,,,,,,,,0,,,57,70
39600,note_on,0,0,0,,,,,,,,,0,,,61,70
39827,note_on,227,0,0,,,,,,,,,0,,,57,0
39827,note_on,0,0,0,,,,,,,,,0,,,61,0
39838,note_on,382,0,1,,,,,,,,,0,,,40,0
39838,note_on,0,0,1,,,,,,,,,0,,,45,0
39839,note_on,1,0,1,,,,,,,,,0,,,32,0
39839,note_on,0,0,1,,,,,,,,,0,,,49,0
39840,note_on,0,0,0,,,,,,,,,0,,,62,70
39840,note_on,0,0,0,,,,,,,,,0,,,66,70
39840,set_tempo,13,1,0,,,,,,1090909,,,,,,,
39840,note_on,0,0,0,,,,,,,,,0,,,57,70
39841,control_change,1,0,0,,,,,,,64,0,0,,,,
39842,control_change,1,0,0,,,,,,,64,127,0,,,,
40079,note_on,0,0,0,,,,,,,,,0,,,62,0
40079,note_on,0,0,0,,,,,,,,,0,,,66,0
40079,note_on,237,0,0,,,,,,,,,0,,,57,0
40080,note_on,0,0,0,,,,,,,,,0,,,59,70
40080,note_on,1,0,0,,,,,,,,,0,,,54,70
40080,note_on,0,0,0,,,,,,,,,0,,,62,70
40319,note_on,239,0,0,,,,,,,,,0,,,54,0
40319,note_on,0,0,0,,,,,,,,,0,,,59,0
40319,note_on,0,0,0,,,,,,,,,0,,,62,0
40320,note_on,481,0,1,,,,,,,,,0,,,32,70
40320,note_on,1,0,0,,,,,,,,,0,,,54,70
40320,note_on,0,0,0,,,,,,,,,0,,,57,70
40348,note_on,28,0,1,,,,,,,,,0,,,42,70
40378,note_on,30,0,1,,,,,,,,,0,,,45,70
40407,note_on,29,0,1,,,,,,,,,0,,,50,70
40559,note_on,0,0,0,,,,,,,,,0,,,57,0
40559,note_on,239,0,0,,,,,,,,,0,,,54,0
40560,note_on,0,0,0,,,,,,,,,0,,,50,70
40560,note_on,0,0,0,,,,,,,,,0,,,54,70
40560,note_on,153,0,1,,,,,,,,,0,,,50,0
40560,set_tempo,1,1,0,,,,,,1333333,,,,,,,
40787,note_on,227,0,0,,,,,,,,,0,,,54,0
40798,note_on,11,0,0,,,,,,,,,0,,,50,0
40798,note_on,0,0,1,,,,,,,,,0,,,45,0
40798,note_on,238,0,1,,,,,,,,,0,,,42,0
40799,note_on,1,0,1,,,,,,,,,0,,,32,0
40800,set_tempo,2,1,0,,,,,,1000000,,,,,,,
40800,note_on,0,0,0,,,,,,,,,0,,,51,70
40800,note_on,0,0,0,,,,,,,,,0,,,60,70
40800,note_on,0,0,0,,,,,,,,,0,,,54,70
40801,control_change,1,0,0,,,,,,,64,0,0,,,,
40802,control_change,1,0,0,,,,,,,64,127,0,,,,
41027,note_on,225,0,0,,,,,,,,,0,,,51,0
41027,note_on,0,0,0,,,,,,,,,0,,,60,0
41027,note_on,0,0,0,,,,,,,,,0,,,54,0
41040,note_on,0,0,1,,,,,,,,,0,,,51,70
41040,note_on,241,0,1,,,,,,,,,0,,,39,70
41041,control_change,14,0,0,,,,,,,64,0,0,,,,
41279,note_on,0,0,1,,,,,,,,,0,,,51,0
41279,note_on,239,0,1,,,,,,,,,0,,,39,0
41280,note_on,0,0,0,,,,,,,,,0,,,54,70
41280,note_on,1,0,1,,,,,,,,,0,,,36,70
41280,note_on,0,0,0,,,,,,,,,0,,,60,70
41280,set_tempo,239,1,0,,,,,,800000,,,,,,,
41280,note_on,0,0,1,,,,,,,,,0,,,48,70
41280,note_on,0,0,0,,,,,,,,,0,,,68,70
41280,note_on,0,0,0,,,,,,,,,0,,,63,70
41280,note_on,0,0,0,,,,,,,,,0,,,56,70
41280,note_on,0,0,0,,,,,,,,,0,,,66,70
41519,note_on,0,0,1,,,,,,,,,0,,,48,0
41519,note_on,239,0,1,,,,,,,,,0,,,36,0
41520,note_on,0,0,1,,,,,,,,,0,,,51,70
41520,note_on,1,0,1,,,,,,,,,0,,,39,70
41759,note_on,239,0,1,,,,,,,,,0,,,39,0
41759,note_on,0,0,1,,,,,,,,,0,,,51,0
41760,note_on,1,0,1,,,,,,,,,0,,,41,71
41760,note_on,0,0,1,,,,,,,,,0,,,53,71
41999,note_on,0,0,1,,,,,,,,,0,,,53,0
41999,note_on,239,0,1,,,,,,,,,0,,,41,0
42000,note_on,0,0,1,,,,,,,,,0,,,56,72
42000,note_on,720,0,0,,,,,,,,,0,,,56,0
42000,note_on,1,0,1,,,,,,,,,0,,,44,72
42191,note_on,0,0,0,,,,,,,,,0,,,68,0
42191,note_on,191,0,0,,,,,,,,,0,,,54,0
42191,note_on,0,0,0,,,,,,,,,0,,,63,0
42191,note_on,0,0,0,,,,,,,,,0,,,60,0
42191,note_on,0,0,0,,,,,,,,,0,,,66,0
42239,note_on,0,0,1,,,,,,,,,0,,,56,0
42239,note_on,239,0,1,,,,,,,,,0,,,44,0
42240,note_on,0,0,0,,,,,,,,,0,,,78,72
42240,note_on,0,0,0,,,,,,,,,0,,,68,72
42240,note_on,0,0,0,,,,,,,,,0,,,72,72
42240,note_on,1,0,1,,,,,,,,,0,,,41,72
42240,note_on,0,0,0,,,,,,,,,0,,,75,72
42240,note_on,0,0,1,,,,,,,,,0,,,53,72
42240,note_on,0,0,0,,,,,,,,,0,,,80,72
42240,note_on,49,0,0,,,,,,,,,0,,,66,72
42479,note_on,239,0,1,,,,,,,,,0,,,41,0
42479,note_on,0,0,1,,,,,,,,,0,,,53,0
42480,note_on,1,0,1,,,,,,,,,0,,,39,73
42480,note_on,0,0,1,,,,,,,,,0,,,51,73
42695,note_on,0,0,0,,,,,,,,,0,,,68,0
42695,note_on,0,0,0,,,,,,,,,0,,,72,0
42695,note_on,0,0,0,,,,,,,,,0,,,75,0
42695,note_on,0,0,0,,,,,,,,,0,,,78,0
42695,note_on,455,0,0,,,,,,,,,0,,,66,0
42695,note_on,0,0,0,,,,,,,,,0,,,80,0
42719,note_on,239,0,1,,,,,,,,,0,,,39,0
42719,note_on,0,0,1,,,,,,,,,0,,,51,0
42720,note_on,0,0,0,,,,,,,,,0,,,90,74
42720,note_on,0,0,0,,,,,,,,,0,,,92,74
42720,note_on,25,0,0,,,,,,,,,0,,,78,74
42720,note_on,0,0,0,,,,,,,,,0,,,87,74
42720,note_on,1,0,1,,,,,,,,,0,,,36,74
42720,note_on,0,0,0,,,,,,,,,0,,,84,74
42720,note_on,0,0,0,,,,,,,,,0,,,80,74
42720,note_on,0,0,1,,,,,,,,,0,,,48,74
42947,note_on,227,0,1,,,,,,,,,0,,,36,0
42947,note_on,0,0,1,,,,,,,,,0,,,48,0
42960,note_on,0,0,1,,,,,,,,,0,,,46,75
42960,note_on,13,0,1,,,,,,,,,0,,,34,75
43175,note_on,0,0,0,,,,,,,,,0,,,90,0
43175,note_on,0,0,0,,,,,,,,,0,,,87,0
43175,note_on,455,0,0,,,,,,,,,0,,,78,0
43175,note_on,0,0,0,,,,,,,,,0,,,84,0
43175,note_on,0,0,0,,,,,,,,,0,,,92,0
43175,note_on,0,0,0,,,,,,,,,0,,,80,0
43199,note_on,0,0,1,,,,,,,,,0,,,46,0
43199,note_on,239,0,1,,,,,,,,,0,,,34,0
43200,note_on,0,0,1,,,,,,,,,0,,,44,75
43200,note_on,0,0,0,,,,,,,,,0,,,56,75
43200,note_on,0,0,0,,,,,,,,,0,,,60,75
43200,note_on,0,0,0,,,,,,,,,0,,,63,75
43200,note_on,0,0,0,,,,,,,,,0,,,68,75
43200,note_on,25,0,0,,,,,,,,,0,,,54,75
43200,note_on,1,0,1,,,,,,,,,0,,,32,75
43200,note_on,0,0,0,,,,,,,,,0,,,66,75
43439,note_on,239,0,1,,,,,,,,,0,,,32,0
43439,note_on,0,0,1,,,,,,,,,0,,,44,0
43440,note_on,0,0,1,,,,,,,,,0,,,46,76
43440,note_on,1,0,1,,,,,,,,,0,,,34,76
43679,note_on,239,0,1,,,,,,,,,0,,,34,0
43679,note_on,0,0,1,,,,,,,,,0,,,46,0
43680,note_on,1,0,1,,,,,,,,,0,,,36,77
43680,note_on,0,0,1,,,,,,,,,0,,,48,77
43919,note_on,0,0,1,,,,,,,,,0,,,48,0
43919,note_on,239,0,1,,,,,,,,,0,,,36,0
43920,note_on,1,0,1,,,,,,,,,0,,,39,77
43920,note_on,0,0,1,,,,,,,,,0,,,51,77
44111,note_on,0,0,0,,,,,,,,,0,,,68,0
44111,note_on,911,0,0,,,,,,,,,0,,,54,0
44111,note_on,0,0,0,,,,,,,,,0,,,56,0
44111,note_on,0,0,0,,,,,,,,,0,,,66,0
44111,note_on,0,0,0,,,,,,,,,0,,,63,0
44111,note_on,0,0,0,,,,,,,,,0,,,60,0
44159,note_on,239,0,1,,,,,,,,,0,,,39,0
44159,note_on,0,0,1,,,,,,,,,0,,,51,0
44160,note_on,1,0,1,,,,,,,,,0,,,36,78
44160,note_on,0,0,0,,,,,,,,,0,,,80,78
44160,note_on,0,0,0,,,,,,,,,0,,,78,78
44160,note_on,0,0,0,,,,,,,,,0,,,75,78
44160,note_on,0,0,0,,,,,,,,,0,,,72,78
44160,note_on,0,0,0,,,,,,,,,0,,,68,78
44160,note_on,0,0,1,,,,,,,,,0,,,48,78
44160,note_on,49,0,0,,,,,,,,,0,,,66,78
44399,note_on,239,0,1,,,,,,,,,0,,,36,0
44399,note_on,0,0,1,,,,,,,,,0,,,48,0
44400,note_on,1,0,1,,,,,,,,,0,,,32,79
44400,note_on,0,0,1,,,,,,,,,0,,,44,79
44615,note_on,0,0,0,,,,,,,,,0,,,80,0
44615,note_on,0,0,0,,,,,,,,,0,,,75,0
44615,note_on,0,0,0,,,,,,,,,0,,,78,0
44615,note_on,455,0,0,,,,,,,,,0,,,66,0
44615,note_on,0,0,0,,,,,,,,,0,,,72,0
44615,note_on,0,0,0,,,,,,,,,0,,,68,0
44639,note_on,0,0,1,,,,,,,,,0,,,44,0
44639,note_on,239,0,1,,,,,,,,,0,,,32,0
44640,note_on,0,0,0,,,,,,,,,0,,,92,80
44640,note_on,1,0,1,,,,,,,,,0,,,29,80
44640,note_on,0,0,0,,,,,,,,,0,,,87,80
44640,note_on,0,0,0,,,,,,,,,0,,,84,80
44640,note_on,0,0,0,,,,,,,,,0,,,80,80
44640,note_on,0,0,0,,,,,,,,,0,,,90,80
44640,note_on,25,0,0,,,,,,,,,0,,,78,80
44640,note_on,0,0,1,,,,,,,,,0,,,41,80
44867,note_on,0,0,1,,,,,,,,,0,,,41,0
44867,note_on,227,0,1,,,,,,,,,0,,,29,0
44880,note_on,13,0,1,,,,,,,,,0,,,39,84
45095,note_on,0,0,0,,,,,,,,,0,,,80,0
45095,note_on,0,0,0,,,,,,,,,0,,,84,0
45095,note_on,0,0,0,,,,,,,,,0,,,87,0
45095,note_on,0,0,0,,,,,,,,,0,,,92,0
45095,note_on,0,0,0,,,,,,,,,0,,,90,0
45095,note_on,455,0,0,,,,,,,,,0,,,78,0
45107,note_on,227,0,1,,,,,,,,,0,,,39,0
45120,note_on,0,0,0,,,,,,,,,0,,,68,88
45120,note_on,0,0,0,,,,,,,,,0,,,66,88
45120,note_on,0,0,0,,,,,,,,,0,,,56,88
45120,note_on,0,0,0,,,,,,,,,0,,,60,88
45120,note_on,0,0,0,,,,,,,,,0,,,63,88
45120,note_on,13,0,1,,,,,,,,,0,,,36,88
45120,note_on,25,0,0,,,,,,,,,0,,,54,88
45347,note_on,227,0,1,,,,,,,,,0,,,36,0
45360,note_on,13,0,1,,,,,,,,,0,,,44,92
45575,note_on,0,0,0,,,,,,,,,0,,,63,0
45575,note_on,455,0,0,,,,,,,,,0,,,54,0
45575,note_on,0,0,0,,,,,,,,,0,,,56,0
45575,note_on,0,0,0,,,,,,,,,0,,,60,0
45575,note_on,0,0,0,,,,,,,,,0,,,68,0
45575,note_on,0,0,0,,,,,,,,,0,,,66,0
45587,note_on,227,0,1,,,,,,,,,0,,,44,0
45600,note_on,0,0,0,,,,,,,,,0,,,80,96
45600,note_on,0,0,0,,,,,,,,,0,,,78,96
45600,note_on,0,0,0,,,,,,,,,0,,,75,96
45600,note_on,0,0,0,,,,,,,,,0,,,72,96
45600,note_on,0,0,0,,,,,,,,,0,,,68,96
45600,note_on,13,0,1,,,,,,,,,0,,,41,96
45600,note_on,0,0,0,,,,,,,,,0,,,66,96
45600,set_tempo,25,1,0,,,,,,1000000,,,,,,,
45827,note_on,227,0,1,,,,,,,,,0,,,41,0
45840,note_on,13,0,1,,,,,,,,,0,,,39,100
46055,note_on,0,0,0,,,,,,,,,0,,,80,0
46055,note_on,455,0,0,,,,,,,,,0,,,66,0
46055,note_on,0,0,0,,,,,,,,,0,,,78,0
46055,note_on,0,0,0,,,,,,,,,0,,,68,0
46055,note_on,0,0,0,,,,,,,,,0,,,72,0
46055,note_on,0,0,0,,,,,,,,,0,,,75,0
46067,note_on,227,0,1,,,,,,,,,0,,,39,0
46080,note_on,0,0,0,,,,,,,,,0,,,90,104
46080,note_on,0,0,0,,,,,,,,,0,,,92,104
46080,note_on,0,0,0,,,,,,,,,0,,,80,104
46080,set_tempo,25,1,0,,,,,,1000000,,,,,,,
46080,note_on,0,0,0,,,,,,,,,0,,,84,104
46080,note_on,0,0,0,,,,,,,,,0,,,87,104
46080,note_on,0,0,0,,,,,,,,,0,,,78,104
46080,note_on,13,0,1,,,,,,,,,0,,,36,104
46307,note_on,227,0,1,,,,,,,,,0,,,36,0
46320,note_on,13,0,1,,,,,,,,,0,,,32,108
46535,note_on,0,0,0,,,,,,,,,0,,,92,0
46535,note_on,0,0,0,,,,,,,,,0,,,87,0
46535,note_on,0,0,0,,,,,,,,,0,,,80,0
46535,note_on,0,0,0,,,,,,,,,0,,,84,0
46535,note_on,0,0,0,,,,,,,,,0,,,90,0
46535,note_on,455,0,0,,,,,,,,,0,,,78,0
46547,note_on,227,0,1,,,,,,,,,0,,,32,0
46560,note_on,13,0,1,,,,,,,,,0,,,25,112
46560,note_on,25,0,0,,,,,,,,,0,,,68,112
46580,note_on,20,0,0,,,,,,,,,0,,,77,111
46591,note_on,31,0,1,,,,,,,,,0,,,37,110
46602,note_on,22,0,0,,,,,,,,,0,,,80,109
46622,note_on,20,0,0,,,,,,,,,0,,,89,107
46798,note_on,207,0,1,,,,,,,,,0,,,37,0
46798,note_on,0,0,0,,,,,,,,,0,,,89,0
46798,note_on,176,0,0,,,,,,,,,0,,,77,0
46799,note_on,0,0,0,,,,,,,,,0,,,80,0
46799,note_on,1,0,0,,,,,,,,,0,,,68,0
46799,note_on,1,0,1,,,,,,,,,0,,,25,0
46800,note_on,1,0,1,,,,,,,,,0,,,49,94
46820,note_on,20,0,1,,,,,,,,,0,,,56,94
46842,note_on,22,0,1,,,,,,,,,0,,,61,94
46862,note_on,20,0,1,,,,,,,,,0,,,65,94
46920,note_on,0,0,0,,,,,,,,,0,,,68,94
46920,set_tempo,121,1,0,,,,,,857140,,,,,,,
46957,note_on,37,0,0,,,,,,,,,0,,,77,94
46994,note_on,37,0,0,,,,,,,,,0,,,85,94
47038,note_on,176,0,1,,,,,,,,,0,,,56,0
47038,note_on,0,0,1,,,,,,,,,0,,,65,0
47039,note_on,1,0,1,,,,,,,,,0,,,49,0
47039,note_on,0,0,1,,,,,,,,,0,,,61,0
47040,note_on,1,0,1,,,,,,,,,0,,,49,94
47064,note_on,24,0,1,,,,,,,,,0,,,56,94
47088,note_on,24,0,1,,,,,,,,,0,,,61,94
47113,note_on,25,0,1,,,,,,,,,0,,,65,94
47158,note_on,164,0,0,,,,,,,,,0,,,77,0
47158,note_on,0,0,0,,,,,,,,,0,,,85,0
47159,note_on,1,0,0,,,,,,,,,0,,,68,0
47160,note_on,1,0,0,,,,,,,,,0,,,68,94
47197,note_on,37,0,0,,,,,,,,,0,,,77,94
47234,note_on,37,0,0,,,,,,,,,0,,,80,94
47278,note_on,0,0,1,,,,,,,,,0,,,65,0
47278,note_on,0,0,1,,,,,,,,,0,,,61,0
47278,note_on,165,0,1,,,,,,,,,0,,,56,0
47279,note_on,1,0,1,,,,,,,,,0,,,49,0
47280,note_on,1,0,1,,,,,,,,,0,,,49,94
47317,note_on,37,0,1,,,,,,,,,0,,,56,94
47354,note_on,37,0,1,,,,,,,,,0,,,61,94
47398,note_on,164,0,0,,,,,,,,,0,,,77,0
47398,note_on,0,0,0,,,,,,,,,0,,,80,0
47399,note_on,1,0,0,,,,,,,,,0,,,68,0
47400,note_on,1,0,0,,,,,,,,,0,,,65,94
47437,note_on,37,0,0,,,,,,,,,0,,,73,94
47474,note_on,37,0,0,,,,,,,,,0,,,77,94
47518,note_on,0,0,1,,,,,,,,,0,,,61,0
47518,note_on,164,0,1,,,,,,,,,0,,,56,0
47519,note_on,1,0,1,,,,,,,,,0,,,49,0
47520,note_on,1,0,1,,,,,,,,,0,,,49,94
47557,note_on,37,0,1,,,,,,,,,0,,,60,94
47594,note_on,37,0,1,,,,,,,,,0,,,61,94
47638,note_on,0,0,0,,,,,,,,,0,,,77,0
47638,note_on,164,0,0,,,,,,,,,0,,,73,0
47639,note_on,1,0,0,,,,,,,,,0,,,65,0
47640,set_tempo,1,1,0,,,,,,800000,,,,,,,
47640,note_on,0,0,0,,,,,,,,,0,,,63,94
47679,note_on,39,0,0,,,,,,,,,0,,,68,94
47719,note_on,40,0,0,,,,,,,,,0,,,75,94
47758,note_on,164,0,1,,,,,,,,,0,,,60,0
47758,note_on,0,0,1,,,,,,,,,0,,,61,0
47759,note_on,1,0,1,,,,,,,,,0,,,49,0
47760,note_on,1,0,1,,,,,,,,,0,,,49,94
47799,note_on,39,0,1,,,,,,,,,0,,,59,94
47839,note_on,40,0,1,,,,,,,,,0,,,61,94
47878,note_on,0,0,0,,,,,,,,,0,,,75,0
47878,note_on,159,0,0,,,,,,,,,0,,,68,0
47879,note_on,1,0,0,,,,,,,,,0,,,63,0
47880,note_on,1,0,0,,,,,,,,,0,,,65,94
47919,note_on,39,0,0,,,,,,,,,0,,,68,94
47959,note_on,40,0,0,,,,,,,,,0,,,77,94
47998,note_on,159,0,1,,,,,,,,,0,,,59,0
47998,note_on,0,0,1,,,,,,,,,0,,,61,0
47999,note_on,1,0,1,,,,,,,,,0,,,49,0
48000,note_on,1,0,1,,,,,,,,,0,,,49,94
48039,note_on,39,0,1,,,,,,,,,0,,,58,94
48079,note_on,40,0,1,,,,,,,,,0,,,61,94
48118,note_on,159,0,0,,,,,,,,,0,,,68,0
48118,note_on,0,0,0,,,,,,,,,0,,,77,0
48119,note_on,1,0,0,,,,,,,,,0,,,65,0
48120,note_on,1,0,0,,,,,,,,,0,,,66,94
48159,note_on,39,0,0,,,,,,,,,0,,,70,94
48199,note_on,40,0,0,,,,,,,,,0,,,78,94
48238,note_on,159,0,1,,,,,,,,,0,,,58,0
48238,note_on,0,0,1,,,,,,,,,0,,,61,0
48239,note_on,1,0,1,,,,,,,,,0,,,49,0
48240,note_on,1,0,1,,,,,,,,,0,,,49,94
48279,note_on,39,0,1,,,,,,,,,0,,,57,94
48319,note_on,40,0,1,,,,,,,,,0,,,64,94
48358,note_on,0,0,0,,,,,,,,,0,,,78,0
48358,note_on,159,0,0,,,,,,,,,0,,,70,0
48359,note_on,1,0,0,,,,,,,,,0,,,66,0
48360,note_on,1,0,0,,,,,,,,,0,,,67,94
48423,note_on,63,0,0,,,,,,,,,0,,,73,94
48478,note_on,0,0,1,,,,,,,,,0,,,64,0
48478,note_on,159,0,1,,,,,,,,,0,,,57,0
48479,note_on,1,0,1,,,,,,,,,0,,,49,0
48479,note_on,56,0,0,,,,,,,,,0,,,79,94
48480,note_on,1,0,1,,,,,,,,,0,,,49,94
48519,note_on,39,0,1,,,,,,,,,0,,,56,94
48559,note_on,40,0,1,,,,,,,,,0,,,65,94
48592,note_on,113,0,0,,,,,,,,,0,,,73,0
48592,note_on,0,0,0,,,,,,,,,0,,,79,0
48593,note_on,1,0,0,,,,,,,,,0,,,67,0
48600,note_on,7,0,0,,,,,,,,,0,,,68,94
48639,note_on,39,0,0,,,,,,,,,0,,,73,94
48679,note_on,40,0,0,,,,,,,,,0,,,80,94
48718,note_on,0,0,1,,,,,,,,,0,,,65,0
48718,note_on,159,0,1,,,,,,,,,0,,,56,0
48719,note_on,1,0,1,,,,,,,,,0,,,49,0
48720,note_on,1,0,1,,,,,,,,,0,,,49,94
48746,note_on,26,0,1,,,,,,,,,0,,,55,94
48772,note_on,26,0,1,,,,,,,,,0,,,58,94
48798,note_on,26,0,1,,,,,,,,,0,,,64,94
48838,note_on,159,0,0,,,,,,,,,0,,,73,0
48838,note_on,0,0,0,,,,,,,,,0,,,80,0
48839,note_on,1,0,0,,,,,,,,,0,,,68,0
48840,note_on,1,0,0,,,,,,,,,0,,,67,94
48866,note_on,26,0,0,,,,,,,,,0,,,73,94
48892,note_on,26,0,0,,,,,,,,,0,,,76,94
48918,note_on,26,0,0,,,,,,,,,0,,,82,94
48958,note_on,160,0,1,,,,,,,,,0,,,55,0
48958,note_on,0,0,1,,,,,,,,,0,,,64,0
48958,note_on,0,0,1,,,,,,,,,0,,,58,0
48959,note_on,1,0,1,,,,,,,,,0,,,49,0
48960,note_on,1,0,1,,,,,,,,,0,,,49,94
48986,note_on,26,0,1,,,,,,,,,0,,,54,94
49012,note_on,26,0,1,,,,,,,,,0,,,57,94
49038,note_on,26,0,1,,,,,,,,,0,,,63,94
49078,note_on,160,0,0,,,,,,,,,0,,,73,0
49078,note_on,0,0,0,,,,,,,,,0,,,82,0
49078,note_on,0,0,0,,,,,,,,,0,,,76,0
49079,note_on,1,0,0,,,,,,,,,0,,,67,0
49080,note_on,1,0,0,,,,,,,,,0,,,69,94
49106,note_on,26,0,0,,,,,,,,,0,,,75,94
49132,note_on,26,0,0,,,,,,,,,0,,,78,94
49158,note_on,26,0,0,,,,,,,,,0,,,84,94
49198,note_on,0,0,1,,,,,,,,,0,,,57,0
49198,note_on,0,0,1,,,,,,,,,0,,,63,0
49198,note_on,160,0,1,,,,,,,,,0,,,54,0
49199,note_on,1,0,1,,,,,,,,,0,,,49,0
49200,note_on,1,0,1,,,,,,,,,0,,,49,94
49226,note_on,26,0,1,,,,,,,,,0,,,53,94
49252,note_on,26,0,1,,,,,,,,,0,,,56,94
49278,note_on,26,0,1,,,,,,,,,0,,,61,94
49318,note_on,0,0,0,,,,,,,,,0,,,84,0
49318,note_on,160,0,0,,,,,,,,,0,,,75,0
49318,note_on,0,0,0,,,,,,,,,0,,,78,0
49319,note_on,1,0,0,,,,,,,,,0,,,69,0
49320,note_on,1,0,0,,,,,,,,,0,,,68,94
49346,note_on,26,0,0,,,,,,,,,0,,,77,94
49372,note_on,26,0,0,,,,,,,,,0,,,80,94
49398,note_on,26,0,0,,,,,,,,,0,,,85,94
49438,note_on,0,0,1,,,,,,,,,0,,,61,0
49438,note_on,160,0,1,,,,,,,,,0,,,53,0
49438,note_on,0,0,1,,,,,,,,,0,,,56,0
49439,note_on,1,0,1,,,,,,,,,0,,,49,0
49440,note_on,1,0,1,,,,,,,,,0,,,49,94
49466,note_on,26,0,1,,,,,,,,,0,,,51,94
49492,note_on,26,0,1,,,,,,,,,0,,,56,94
49518,note_on,26,0,1,,,,,,,,,0,,,60,94
49558,note_on,0,0,0,,,,,,,,,0,,,85,0
49558,note_on,0,0,0,,,,,,,,,0,,,80,0
49558,note_on,160,0,0,,,,,,,,,0,,,77,0
49559,note_on,1,0,0,,,,,,,,,0,,,68,0
49560,note_on,1,0,0,,,,,,,,,0,,,72,95
49586,note_on,26,0,0,,,,,,,,,0,,,78,95
49612,note_on,26,0,0,,,,,,,,,0,,,80,95
49638,note_on,26,0,0,,,,,,,,,0,,,87,95
49678,note_on,0,0,1,,,,,,,,,0,,,60,0
49678,note_on,0,0,1,,,,,,,,,0,,,56,0
49678,note_on,160,0,1,,,,,,,,,0,,,51,0
49679,note_on,1,0,1,,,,,,,,,0,,,49,0
49680,note_on,1,0,1,,,,,,,,,0,,,49,95
49706,note_on,26,0,1,,,,,,,,,0,,,53,95
49732,note_on,26,0,1,,,,,,,,,0,,,56,95
49758,note_on,26,0,1,,,,,,,,,0,,,61,96
49798,note_on,160,0,0,,,,,,,,,0,,,78,0
49798,note_on,0,0,0,,,,,,,,,0,,,80,0
49798,note_on,0,0,0,,,,,,,,,0,,,87,0
49799,note_on,1,0,0,,,,,,,,,0,,,72,0
49800,note_on,1,0,0,,,,,,,,,0,,,73,96
49826,note_on,26,0,0,,,,,,,,,0,,,77,96
49852,note_on,26,0,0,,,,,,,,,0,,,80,96
49878,note_on,26,0,0,,,,,,,,,0,,,89,96
49918,note_on,0,0,1,,,,,,,,,0,,,56,0
49918,note_on,160,0,1,,,,,,,,,0,,,53,0
49918,note_on,0,0,1,,,,,,,,,0,,,61,0
49919,note_on,1,0,1,,,,,,,,,0,,,49,0
49920,note_on,1,0,1,,,,,,,,,0,,,49,96
49946,note_on,26,0,1,,,,,,,,,0,,,54,96
49972,note_on,26,0,1,,,,,,,,,0,,,56,97
49998,note_on,26,0,1,,,,,,,,,0,,,63,97
50038,note_on,0,0,0,,,,,,,,,0,,,80,0
50038,note_on,0,0,0,,,,,,,,,0,,,89,0
50038,note_on,160,0,0,,,,,,,,,0,,,77,0
50039,note_on,1,0,0,,,,,,,,,0,,,73,0
50040,set_tempo,1,1,0,,,,,,1090909,,,,,,,
50040,note_on,0,0,0,,,,,,,,,0,,,75,97
50059,note_on,19,0,0,,,,,,,,,0,,,80,97
50078,note_on,19,0,0,,,,,,,,,0,,,84,97
50097,note_on,19,0,0,,,,,,,,,0,,,90,97
50158,note_on,0,0,1,,,,,,,,,0,,,63,0
50158,note_on,0,0,1,,,,,,,,,0,,,56,0
50158,note_on,160,0,1,,,,,,,,,0,,,54,0
50159,note_on,1,0,1,,,,,,,,,0,,,49,0
50160,note_on,1,0,1,,,,,,,,,0,,,49,97
50198,note_on,38,0,1,,,,,,,,,0,,,56,98
50236,note_on,38,0,1,,,,,,,,,0,,,60,98
50275,note_on,39,0,1,,,,,,,,,0,,,66,98
50278,note_on,0,0,0,,,,,,,,,0,,,84,0
50278,note_on,0,0,0,,,,,,,,,0,,,90,0
50278,note_on,181,0,0,,,,,,,,,0,,,80,0
50279,note_on,1,0,0,,,,,,,,,0,,,75,0
50280,note_on,0,0,0,,,,,,,,,0,,,72,98
50280,set_tempo,1,1,0,,,,,,2400000,,,,,,,
50291,note_on,11,0,0,,,,,,,,,0,,,78,98
50303,note_on,12,0,0,,,,,,,,,0,,,80,98
50314,note_on,11,0,0,,,,,,,,,0,,,87,98
50398,note_on,0,0,0,,,,,,,,,0,,,80,0
50398,note_on,0,0,0,,,,,,,,,0,,,87,0
50398,note_on,123,0,1,,,,,,,,,0,,,56,0
50398,note_on,84,0,0,,,,,,,,,0,,,78,0
50398,note_on,0,0,1,,,,,,,,,0,,,66,0
50398,note_on,0,0,1,,,,,,,,,0,,,60,0
50399,note_on,1,0,1,,,,,,,,,0,,,49,0
50399,note_on,1,0,0,,,,,,,,,0,,,72,0
50400,note_on,1,0,1,,,,,,,,,0,,,25,99
50400,set_tempo,1,1,0,,,,,,857140,,,,,,,
50400,note_on,0,0,0,,,,,,,,,0,,,68,99
50424,note_on,24,0,0,,,,,,,,,0,,,77,99
50437,note_on,37,0,1,,,,,,,,,0,,,37,99
50448,note_on,24,0,0,,,,,,,,,0,,,80,99
50473,note_on,25,0,0,,,,,,,,,0,,,89,99
50638,note_on,165,0,0,,,,,,,,,0,,,77,0
50638,note_on,0,0,0,,,,,,,,,0,,,80,0
50638,note_on,0,0,0,,,,,,,,,0,,,89,0
50638,note_on,201,0,1,,,,,,,,,0,,,37,0
50639,note_on,1,0,1,,,,,,,,,0,,,25,0
50639,note_on,1,0,0,,,,,,,,,0,,,68,0
50640,note_on,1,0,1,,,,,,,,,0,,,49,99
50664,note_on,24,0,1,,,,,,,,,0,,,56,99
50688,note_on,24,0,1,,,,,,,,,0,,,61,99
50713,note_on,25,0,1,,,,,,,,,0,,,65,99
50760,note_on,121,0,0,,,,,,,,,0,,,68,99
50797,note_on,37,0,0,,,,,,,,,0,,,77,99
50834,note_on,37,0,0,,,,,,,,,0,,,85,99
50878,note_on,0,0,1,,,,,,,,,0,,,65,0
50878,note_on,0,0,1,,,,,,,,,0,,,61,0
50878,note_on,165,0,1,,,,,,,,,0,,,56,0
50879,note_on,1,0,1,,,,,,,,,0,,,49,0
50880,note_on,1,0,1,,,,,,,,,0,,,49,99
50904,note_on,24,0,1,,,,,,,,,0,,,56,99
50928,note_on,24,0,1,,,,,,,,,0,,,61,99
50953,note_on,25,0,1,,,,,,,,,0,,,65,99
50998,note_on,164,0,0,,,,,,,,,0,,,77,0
50998,note_on,0,0,0,,,,,,,,,0,,,85,0
50999,note_on,1,0,0,,,,,,,,,0,,,68,0
51000,note_on,1,0,0,,,,,,,,,0,,,68,99
51037,note_on,37,0,0,,,,,,,,,0,,,77,99
51074,note_on,37,0,0,,,,,,,,,0,,,80,99
51118,note_on,165,0,1,,,,,,,,,0,,,56,0
51118,note_on,0,0,1,,,,,,,,,0,,,61,0
51118,note_on,0,0,1,,,,,,,,,0,,,65,0
51119,note_on,1,0,1,,,,,,,,,0,,,49,0
51120,note_on,1,0,1,,,,,,,,,0,,,49,99
51157,note_on,37,0,1,,,,,,,,,0,,,56,99
51194,note_on,37,0,1,,,,,,,,,0,,,61,99
51238,note_on,0,0,0,,,,,,,,,0,,,80,0
51238,note_on,164,0,0,,,,,,,,,0,,,77,0
51239,note_on,1,0,0,,,,,,,,,0,,,68,0
51240,note_on,1,0,0,,,,,,,,,0,,,65,99
51277,note_on,37,0,0,,,,,,,,,0,,,73,99
51314,note_on,37,0,0,,,,,,,,,0,,,77,99
51358,note_on,164,0,1,,,,,,,,,0,,,56,0
51358,note_on,0,0,1,,,,,,,,,0,,,61,0
51359,note_on,1,0,1,,,,,,,,,0,,,49,0
51360,note_on,1,0,1,,,,,,,,,0,,,49,99
51397,note_on,37,0,1,,,,,,,,,0,,,60,99
51434,note_on,37,0,1,,,,,,,,,0,,,61,99
51478,note_on,0,0,0,,,,,,,,,0,,,77,0
51478,note_on,164,0,0,,,,,,,,,0,,,73,0
51479,note_on,1,0,0,,,,,,,,,0,,,65,0
51480,note_on,0,0,0,,,,,,,,,0,,,63,99
51480,set_tempo,1,1,0,,,,,,800000,,,,,,,
51519,note_on,39,0,0,,,,,,,,,0,,,68,99
51559,note_on,40,0,0,,,,,,,,,0,,,75,99
51598,note_on,164,0,1,,,,,,,,,0,,,60,0
51598,note_on,0,0,1,,,,,,,,,0,,,61,0
51599,note_on,1,0,1,,,,,,,,,0,,,49,0
51600,note_on,1,0,1,,,,,,,,,0,,,49,99
51639,note_on,39,0,1,,,,,,,,,0,,,59,99
51679,note_on,40,0,1,,,,,,,,,0,,,61,99
51718,note_on,0,0,0,,,,,,,,,0,,,75,0
51718,note_on,159,0,0,,,,,,,,,0,,,68,0
51719,note_on,1,0,0,,,,,,,,,0,,,63,0
51720,note_on,1,0,0,,,,,,,,,0,,,65,99
51759,note_on,39,0,0,,,,,,,,,0,,,68,99
51799,note_on,40,0,0,,,,,,,,,0,,,77,99
51838,note_on,0,0,1,,,,,,,,,0,,,61,0
51838,note_on,159,0,1,,,,,,,,,0,,,59,0
51839,note_on,1,0,1,,,,,,,,,0,,,49,0
51840,note_on,1,0,1,,,,,,,,,0,,,49,99
51879,note_on,39,0,1,,,,,,,,,0,,,58,99
51919,note_on,40,0,1,,,,,,,,,0,,,61,99
51958,note_on,159,0,0,,,,,,,,,0,,,68,0
51958,note_on,0,0,0,,,,,,,,,0,,,77,0
51959,note_on,1,0,0,,,,,,,,,0,,,65,0
51960,note_on,1,0,0,,,,,,,,,0,,,66,99
51999,note_on,39,0,0,,,,,,,,,0,,,70,99
52039,note_on,40,0,0,,,,,,,,,0,,,78,99
52078,note_on,0,0,1,,,,,,,,,0,,,61,0
52078,note_on,159,0,1,,,,,,,,,0,,,58,0
52079,note_on,1,0,1,,,,,,,,,0,,,49,0
52080,note_on,1,0,1,,,,,,,,,0,,,49,99
52119,note_on,39,0,1,,,,,,,,,0,,,57,99
52159,note_on,40,0,1,,,,,,,,,0,,,64,99
52198,note_on,0,0,0,,,,,,,,,0,,,78,0
52198,note_on,159,0,0,,,,,,,,,0,,,70,0
52199,note_on,1,0,0,,,,,,,,,0,,,66,0
52200,note_on,1,0,0,,,,,,,,,0,,,67,99
52263,note_on,63,0,0,,,,,,,,,0,,,73,99
52318,note_on,0,0,1,,,,,,,,,0,,,64,0
52318,note_on,159,0,1,,,,,,,,,0,,,57,0
52319,note_on,1,0,1,,,,,,,,,0,,,49,0
52319,note_on,56,0,0,,,,,,,,,0,,,79,99
52320,note_on,1,0,1,,,,,,,,,0,,,49,99
52359,note_on,39,0,1,,,,,,,,,0,,,56,99
52399,note_on,40,0,1,,,,,,,,,0,,,65,99
52432,note_on,0,0,0,,,,,,,,,0,,,79,0
52432,note_on,113,0,0,,,,,,,,,0,,,73,0
52433,note_on,1,0,0,,,,,,,,,0,,,67,0
52440,note_on,7,0,0,,,,,,,,,0,,,68,100
52479,note_on,39,0,0,,,,,,,,,0,,,73,100
52519,note_on,40,0,0,,,,,,,,,0,,,80,100
52558,note_on,159,0,1,,,,,,,,,0,,,56,0
52558,note_on,0,0,1,,,,,,,,,0,,,65,0
52559,note_on,1,0,1,,,,,,,,,0,,,49,0
52560,note_on,1,0,1,,,,,,,,,0,,,49,100
52586,note_on,26,0,1,,,,,,,,,0,,,55,100
52612,note_on,26,0,1,,,,,,,,,0,,,58,100
52638,note_on,26,0,1,,,,,,,,,0,,,64,100
52678,note_on,0,0,0,,,,,,,,,0,,,80,0
52678,note_on,159,0,0,,,,,,,,,0,,,73,0
52679,note_on,1,0,0,,,,,,,,,0,,,68,0
52680,note_on,1,0,0,,,,,,,,,0,,,67,100
52706,note_on,26,0,0,,,,,,,,,0,,,73,100
52732,note_on,26,0,0,,,,,,,,,0,,,76,100
52758,note_on,26,0,0,,,,,,,,,0,,,82,100
52798,note_on,160,0,1,,,,,,,,,0,,,55,0
52798,note_on,0,0,1,,,,,,,,,0,,,58,0
52798,note_on,0,0,1,,,,,,,,,0,,,64,0
52799,note_on,1,0,1,,,,,,,,,0,,,49,0
52800,note_on,1,0,1,,,,,,,,,0,,,49,100
52826,note_on,26,0,1,,,,,,,,,0,,,54,100
52852,note_on,26,0,1,,,,,,,,,0,,,57,100
52878,note_on,26,0,1,,,,,,,,,0,,,63,101
52918,note_on,0,0,0,,,,,,,,,0,,,76,0
52918,note_on,0,0,0,,,,,,,,,0,,,82,0
52918,note_on,160,0,0,,,,,,,,,0,,,73,0
52919,note_on,1,0,0,,,,,,,,,0,,,67,0
52920,note_on,1,0,0,,,,,,,,,0,,,69,101
52946,note_on,26,0,0,,,,,,,,,0,,,75,101
52972,note_on,26,0,0,,,,,,,,,0,,,78,101
52998,note_on,26,0,0,,,,,,,,,0,,,84,101
53038,note_on,0,0,1,,,,,,,,,0,,,57,0
53038,note_on,160,0,1,,,,,,,,,0,,,54,0
53038,note_on,0,0,1,,,,,,,,,0,,,63,0
53039,note_on,1,0,1,,,,,,,,,0,,,49,0
53040,note_on,1,0,1,,,,,,,,,0,,,49,101
53066,note_on,26,0,1,,,,,,,,,0,,,53,101
53092,note_on,26,0,1,,,,,,,,,0,,,56,101
53118,note_on,26,0,1,,,,,,,,,0,,,61,101
53158,note_on,160,0,0,,,,,,,,,0,,,75,0
53158,note_on,0,0,0,,,,,,,,,0,,,84,0
53158,note_on,0,0,0,,,,,,,,,0,,,78,0
53159,note_on,1,0,0,,,,,,,,,0,,,69,0
53160,note_on,1,0,0,,,,,,,,,0,,,68,101
53186,note_on,26,0,0,,,,,,,,,0,,,77,101
53212,note_on,26,0,0,,,,,,,,,0,,,80,101
53238,note_on,26,0,0,,,,,,,,,0,,,85,101
53278,note_on,0,0,1,,,,,,,,,0,,,61,0
53278,note_on,0,0,1,,,,,,,,,0,,,56,0
53278,note_on,160,0,1,,,,,,,,,0,,,53,0
53279,note_on,1,0,1,,,,,,,,,0,,,49,0
53280,note_on,1,0,1,,,,,,,,,0,,,49,101
53306,note_on,26,0,1,,,,,,,,,0,,,51,101
53332,note_on,26,0,1,,,,,,,,,0,,,56,102
53358,note_on,26,0,1,,,,,,,,,0,,,60,102
53398,note_on,160,0,0,,,,,,,,,0,,,77,0
53398,note_on,0,0,0,,,,,,,,,0,,,80,0
53398,note_on,0,0,0,,,,,,,,,0,,,85,0
53399,note_on,1,0,0,,,,,,,,,0,,,68,0
53400,note_on,1,0,0,,,,,,,,,0,,,72,102
53426,note_on,26,0,0,,,,,,,,,0,,,78,102
53452,note_on,26,0,0,,,,,,,,,0,,,80,102
53478,note_on,26,0,0,,,,,,,,,0,,,87,102
53518,note_on,0,0,1,,,,,,,,,0,,,56,0
53518,note_on,0,0,1,,,,,,,,,0,,,60,0
53518,note_on,160,0,1,,,,,,,,,0,,,51,0
53519,note_on,1,0,1,,,,,,,,,0,,,49,0
53520,note_on,1,0,1,,,,,,,,,0,,,49,102
53546,note_on,26,0,1,,,,,,,,,0,,,53,102
53572,note_on,26,0,1,,,,,,,,,0,,,56,102
53598,note_on,26,0,1,,,,,,,,,0,,,61,102
53638,note_on,0,0,0,,,,,,,,,0,,,87,0
53638,note_on,0,0,0,,,,,,,,,0,,,80,0
53638,note_on,160,0,0,,,,,,,,,0,,,78,0
53639,note_on,1,0,0,,,,,,,,,0,,,72,0
53640,note_on,1,0,0,,,,,,,,,0,,,73,102
53666,note_on,26,0,0,,,,,,,,,0,,,77,102
53692,note_on,26,0,0,,,,,,,,,0,,,80,102
53718,note_on,26,0,0,,,,,,,,,0,,,89,102
53758,note_on,0,0,1,,,,,,,,,0,,,56,0
53758,note_on,160,0,1,,,,,,,,,0,,,53,0
53758,note_on,0,0,1,,,,,,,,,0,,,61,0
53759,note_on,1,0,1,,,,,,,,,0,,,49,0
53760,note_on,1,0,1,,,,,,,,,0,,,49,102
53786,note_on,26,0,1,,,,,,,,,0,,,54,103
53812,note_on,26,0,1,,,,,,,,,0,,,56,103
53838,note_on,26,0,1,,,,,,,,,0,,,63,103
53878,note_on,0,0,0,,,,,,,,,0,,,89,0
53878,note_on,160,0,0,,,,,,,,,0,,,77,0
53878,note_on,0,0,0,,,,,,,,,0,,,80,0
53879,note_on,1,0,0,,,,,,,,,0,,,73,0
53880,note_on,0,0,0,,,,,,,,,0,,,75,103
53880,set_tempo,1,1,0,,,,,,1090909,,,,,,,
53899,note_on,19,0,0,,,,,,,,,0,,,80,103
53918,note_on,19,0,0,,,,,,,,,0,,,84,103
53937,note_on,19,0,0,,,,,,,,,0,,,90,103
53998,note_on,0,0,1,,,,,,,,,0,,,56,0
53998,note_on,160,0,1,,,,,,,,,0,,,54,0
53998,note_on,0,0,1,,,,,,,,,0,,,63,0
53999,note_on,1,0,1,,,,,,,,,0,,,49,0
54000,note_on,1,0,1,,,,,,,,,0,,,49,103
54038,note_on,38,0,1,,,,,,,,,0,,,56,103
54076,note_on,38,0,1,,,,,,,,,0,,,60,103
54115,note_on,39,0,1,,,,,,,,,0,,,66,103
54118,note_on,0,0,0,,,,,,,,,0,,,90,0
54118,note_on,181,0,0,,,,,,,,,0,,,80,0
54118,note_on,0,0,0,,,,,,,,,0,,,84,0
54119,note_on,1,0,0,,,,,,,,,0,,,75,0
54120,note_on,0,0,0,,,,,,,,,0,,,72,103
54120,set_tempo,1,1,0,,,,,,2400000,,,,,,,
54131,note_on,11,0,0,,,,,,,,,0,,,78,103
54143,note_on,12,0,0,,,,,,,,,0,,,80,103
54154,note_on,11,0,0,,,,,,,,,0,,,87,103
54238,note_on,0,0,0,,,,,,,,,0,,,80,0
54238,note_on,0,0,1,,,,,,,,,0,,,60,0
54238,note_on,0,0,1,,,,,,,,,0,,,66,0
54238,note_on,0,0,0,,,,,,,,,0,,,87,0
54238,note_on,84,0,0,,,,,,,,,0,,,78,0
54238,note_on,123,0,1,,,,,,,,,0,,,56,0
54239,note_on,1,0,0,,,,,,,,,0,,,72,0
54239,note_on,1,0,1,,,,,,,,,0,,,49,0
54240,note_on,1,0,1,,,,,,,,,0,,,49,104
54240,set_tempo,1,1,0,,,,,,857140,,,,,,,
54240,note_on,0,0,0,,,,,,,,,0,,,68,104
54264,note_on,24,0,0,,,,,,,,,0,,,77,104
54264,note_on,24,0,1,,,,,,,,,0,,,56,104
54288,note_on,24,0,1,,,,,,,,,0,,,61,104
54288,note_on,24,0,0,,,,,,,,,0,,,80,104
54313,note_on,25,0,0,,,,,,,,,0,,,89,104
54313,note_on,25,0,1,,,,,,,,,0,,,65,104
54478,note_on,0,0,1,,,,,,,,,0,,,65,0
54478,note_on,165,0,1,,,,,,,,,0,,,56,0
54478,note_on,165,0,0,,,,,,,,,0,,,77,0
54478,note_on,0,0,0,,,,,,,,,0,,,89,0
54478,note_on,0,0,0,,,,,,,,,0,,,80,0
54478,note_on,0,0,1,,,,,,,,,0,,,61,0
54479,note_on,1,0,0,,,,,,,,,0,,,68,0
54479,note_on,1,0,1,,,,,,,,,0,,,49,0
54480,note_on,1,0,1,,,,,,,,,0,,,53,104
54517,note_on,37,0,1,,,,,,,,,0,,,61,104
54554,note_on,37,0,1,,,,,,,,,0,,,68,104
54600,note_on,121,0,0,,,,,,,,,0,,,73,104
54637,note_on,37,0,0,,,,,,,,,0,,,80,104
54674,note_on,37,0,0,,,,,,,,,0,,,85,104
54718,note_on,164,0,1,,,,,,,,,0,,,61,0
54718,note_on,0,0,1,,,,,,,,,0,,,68,0
54719,note_on,1,0,1,,,,,,,,,0,,,53,0
54720,note_on,1,0,1,,,,,,,,,0,,,51,104
54757,note_on,37,0,1,,,,,,,,,0,,,60,104
54794,note_on,37,0,1,,,,,,,,,0,,,68,104
54838,note_on,0,0,0,,,,,,,,,0,,,85,0
54838,note_on,164,0,0,,,,,,,,,0,,,80,0
54839,note_on,1,0,0,,,,,,,,,0,,,73,0
54840,note_on,1,0,0,,,,,,,,,0,,,72,104
54877,note_on,37,0,0,,,,,,,,,0,,,80,104
54914,note_on,37,0,0,,,,,,,,,0,,,84,104
54958,note_on,164,0,1,,,,,,,,,0,,,60,0
54958,note_on,0,0,1,,,,,,,,,0,,,68,0
54959,note_on,1,0,1,,,,,,,,,0,,,51,0
54960,note_on,1,0,1,,,,,,,,,0,,,49,104
54997,note_on,37,0,1,,,,,,,,,0,,,58,104
55034,note_on,37,0,1,,,,,,,,,0,,,68,104
55078,note_on,164,0,0,,,,,,,,,0,,,80,0
55078,note_on,0,0,0,,,,,,,,,0,,,84,0
55079,note_on,1,0,0,,,,,,,,,0,,,72,0
55080,note_on,1,0,0,,,,,,,,,0,,,70,104
55117,note_on,37,0,0,,,,,,,,,0,,,80,104
55154,note_on,37,0,0,,,,,,,,,0,,,82,104
55198,note_on,164,0,1,,,,,,,,,0,,,58,0
55198,note_on,0,0,1,,,,,,,,,0,,,68,0
55199,note_on,1,0,1,,,,,,,,,0,,,49,0
55200,note_on,1,0,1,,,,,,,,,0,,,48,104
55237,note_on,37,0,1,,,,,,,,,0,,,56,104
55274,note_on,37,0,1,,,,,,,,,0,,,68,104
55318,note_on,0,0,0,,,,,,,,,0,,,82,0
55318,note_on,164,0,0,,,,,,,,,0,,,80,0
55319,note_on,1,0,0,,,,,,,,,0,,,70,0
55320,set_tempo,1,1,0,,,,,,800000,,,,,,,
55320,note_on,0,0,0,,,,,,,,,0,,,75,104
55359,note_on,39,0,0,,,,,,,,,0,,,80,104
55399,note_on,40,0,0,,,,,,,,,0,,,87,104
55438,note_on,0,0,1,,,,,,,,,0,,,68,0
55438,note_on,164,0,1,,,,,,,,,0,,,56,0
55439,note_on,1,0,1,,,,,,,,,0,,,48,0
55440,note_on,1,0,1,,,,,,,,,0,,,53,104
55479,note_on,39,0,1,,,,,,,,,0,,,61,104
55519,note_on,40,0,1,,,,,,,,,0,,,68,104
55558,note_on,159,0,0,,,,,,,,,0,,,80,0
55558,note_on,0,0,0,,,,,,,,,0,,,87,0
55559,note_on,1,0,0,,,,,,,,,0,,,75,0
55560,note_on,1,0,0,,,,,,,,,0,,,73,104
55599,note_on,39,0,0,,,,,,,,,0,,,80,104
55639,note_on,40,0,0,,,,,,,,,0,,,85,104
55678,note_on,159,0,1,,,,,,,,,0,,,61,0
55678,note_on,0,0,1,,,,,,,,,0,,,68,0
55679,note_on,1,0,1,,,,,,,,,0,,,53,0
55680,note_on,1,0,1,,,,,,,,,0,,,51,104
55719,note_on,39,0,1,,,,,,,,,0,,,60,104
55759,note_on,40,0,1,,,,,,,,,0,,,68,104
55798,note_on,159,0,0,,,,,,,,,0,,,80,0
55798,note_on,0,0,0,,,,,,,,,0,,,85,0
55799,note_on,1,0,0,,,,,,,,,0,,,73,0
55800,note_on,1,0,0,,,,,,,,,0,,,72,104
55839,note_on,39,0,0,,,,,,,,,0,,,80,104
55879,note_on,40,0,0,,,,,,,,,0,,,84,104
55918,note_on,159,0,1,,,,,,,,,0,,,60,0
55918,note_on,0,0,1,,,,,,,,,0,,,68,0
55919,note_on,1,0,1,,,,,,,,,0,,,51,0
55920,note_on,1,0,1,,,,,,,,,0,,,49,104
55959,note_on,39,0,1,,,,,,,,,0,,,58,104
55999,note_on,40,0,1,,,,,,,,,0,,,68,104
56038,note_on,159,0,0,,,,,,,,,0,,,80,0
56038,note_on,0,0,0,,,,,,,,,0,,,84,0
56039,note_on,1,0,0,,,,,,,,,0,,,72,0
56040,note_on,1,0,0,,,,,,,,,0,,,70,104
56103,note_on,63,0,0,,,,,,,,,0,,,80,104
56158,note_on,0,0,1,,,,,,,,,0,,,68,0
56158,note_on,159,0,1,,,,,,,,,0,,,58,0
56159,note_on,1,0,1,,,,,,,,,0,,,49,0
56159,note_on,56,0,0,,,,,,,,,0,,,82,104
56160,note_on,1,0,1,,,,,,,,,0,,,48,104
56199,note_on,39,0,1,,,,,,,,,0,,,56,104
56239,note_on,40,0,1,,,,,,,,,0,,,68,104
56272,note_on,113,0,0,,,,,,,,,0,,,80,0
56272,note_on,0,0,0,,,,,,,,,0,,,82,0
56273,note_on,1,0,0,,,,,,,,,0,,,70,0
56280,note_on,7,0,0,,,,,,,,,0,,,68,104
56280,note_on,41,0,1,,,,,,,,,0,,,68,0
56319,note_on,39,0,0,,,,,,,,,0,,,80,104
56398,note_on,118,0,1,,,,,,,,,0,,,56,0
56399,note_on,1,0,1,,,,,,,,,0,,,48,0
56400,note_on,1,0,1,,,,,,,,,0,,,52,104
56439,note_on,39,0,1,,,,,,,,,0,,,61,104
56479,note_on,160,0,0,,,,,,,,,0,,,68,0
56479,note_on,40,0,1,,,,,,,,,0,,,68,104
56518,note_on,39,0,0,,,,,,,,,0,,,80,0
56520,set_tempo,2,1,0,,,,,,857140,,,,,,,
56520,note_on,0,0,0,,,,,,,,,0,,,73,104
56557,note_on,37,0,0,,,,,,,,,0,,,80,104
56594,note_on,37,0,0,,,,,,,,,0,,,85,104
56638,note_on,0,0,1,,,,,,,,,0,,,68,0
56638,note_on,159,0,1,,,,,,,,,0,,,61,0
56639,note_on,1,0,1,,,,,,,,,0,,,52,0
56640,note_on,1,0,1,,,,,,,,,0,,,51,104
56677,note_on,37,0,1,,,,,,,,,0,,,59,104
56714,note_on,37,0,1,,,,,,,,,0,,,68,104
56758,note_on,164,0,0,,,,,,,,,0,,,80,0
56758,note_on,0,0,0,,,,,,,,,0,,,85,0
56759,note_on,1,0,0,,,,,,,,,0,,,73,0
56760,note_on,1,0,0,,,,,,,,,0,,,71,104
56797,note_on,37,0,0,,,,,,,,,0,,,80,104
56834,note_on,37,0,0,,,,,,,,,0,,,83,105
56878,note_on,0,0,1,,,,,,,,,0,,,68,0
56878,note_on,164,0,1,,,,,,,,,0,,,59,0
56879,note_on,1,0,1,,,,,,,,,0,,,51,0
56880,note_on,1,0,1,,,,,,,,,0,,,49,105
56917,note_on,37,0,1,,,,,,,,,0,,,58,105
56954,note_on,37,0,1,,,,,,,,,0,,,68,105
56998,note_on,164,0,0,,,,,,,,,0,,,80,0
56998,note_on,0,0,0,,,,,,,,,0,,,83,0
56999,note_on,1,0,0,,,,,,,,,0,,,71,0
57000,note_on,0,0,0,,,,,,,,,0,,,70,105
57000,set_tempo,1,1,0,,,,,,800000,,,,,,,
57039,note_on,39,0,0,,,,,,,,,0,,,80,105
57079,note_on,40,0,0,,,,,,,,,0,,,82,105
57118,note_on,164,0,1,,,,,,,,,0,,,58,0
57118,note_on,0,0,1,,,,,,,,,0,,,68,0
57119,note_on,1,0,1,,,,,,,,,0,,,49,0
57120,note_on,1,0,1,,,,,,,,,0,,,47,105
57159,note_on,39,0,1,,,,,,,,,0,,,56,106
57199,note_on,40,0,1,,,,,,,,,0,,,68,106
57238,note_on,0,0,0,,,,,,,,,0,,,82,0
57238,note_on,159,0,0,,,,,,,,,0,,,80,0
57239,note_on,1,0,0,,,,,,,,,0,,,70,0
57240,note_on,1,0,0,,,,,,,,,0,,,75,106
57279,note_on,39,0,0,,,,,,,,,0,,,80,106
57319,note_on,40,0,0,,,,,,,,,0,,,87,106
57358,note_on,0,0,1,,,,,,,,,0,,,68,0
57358,note_on,159,0,1,,,,,,,,,0,,,56,0
57359,note_on,1,0,1,,,,,,,,,0,,,47,0
57360,note_on,1,0,1,,,,,,,,,0,,,52,106
57386,note_on,26,0,1,,,,,,,,,0,,,55,106
57412,note_on,26,0,1,,,,,,,,,0,,,61,106
57438,note_on,26,0,1,,,,,,,,,0,,,67,106
57478,note_on,0,0,0,,,,,,,,,0,,,87,0
57478,note_on,159,0,0,,,,,,,,,0,,,80,0
57479,note_on,1,0,0,,,,,,,,,0,,,75,0
57480,note_on,1,0,0,,,,,,,,,0,,,73,107
57519,note_on,39,0,0,,,,,,,,,0,,,79,107
57559,note_on,40,0,0,,,,,,,,,0,,,85,107
57598,note_on,160,0,1,,,,,,,,,0,,,55,0
57598,note_on,0,0,1,,,,,,,,,0,,,67,0
57598,note_on,0,0,1,,,,,,,,,0,,,61,0
57599,note_on,1,0,1,,,,,,,,,0,,,52,0
57600,note_on,1,0,1,,,,,,,,,0,,,54,107
57626,note_on,26,0,1,,,,,,,,,0,,,59,107
57652,note_on,26,0,1,,,,,,,,,0,,,63,107
57678,note_on,26,0,1,,,,,,,,,0,,,66,107
57718,note_on,159,0,0,,,,,,,,,0,,,79,0
57718,note_on,0,0,0,,,,,,,,,0,,,85,0
57719,note_on,1,0,0,,,,,,,,,0,,,73,0
57720,set_tempo,1,1,0,,,,,,1090909,,,,,,,
57720,note_on,0,0,0,,,,,,,,,0,,,75,107
57739,note_on,19,0,0,,,,,,,,,0,,,78,107
57758,note_on,19,0,0,,,,,,,,,0,,,83,107
57777,note_on,19,0,0,,,,,,,,,0,,,90,108
57838,note_on,0,0,1,,,,,,,,,0,,,66,0
57838,note_on,160,0,1,,,,,,,,,0,,,59,0
57838,note_on,0,0,1,,,,,,,,,0,,,63,0
57839,note_on,1,0,1,,,,,,,,,0,,,54,0
57840,note_on,1,0,1,,,,,,,,,0,,,42,108
57898,note_on,58,0,1,,,,,,,,,0,,,54,108
57957,note_on,59,0,1,,,,,,,,,0,,,61,108
57958,note_on,181,0,0,,,,,,,,,0,,,78,0
57958,note_on,0,0,0,,,,,,,,,0,,,83,0
57958,note_on,0,0,0,,,,,,,,,0,,,90,0
57959,note_on,1,0,0,,,,,,,,,0,,,75,0
57960,set_tempo,1,1,0,,,,,,2400000,,,,,,,
57960,note_on,0,0,0,,,,,,,,,0,,,70,108
57971,note_on,11,0,0,,,,,,,,,0,,,76,108
57983,note_on,12,0,0,,,,,,,,,0,,,82,108
58078,note_on,0,0,1,,,,,,,,,0,,,61,0
58078,note_on,95,0,0,,,,,,,,,0,,,76,0
58078,note_on,0,0,0,,,,,,,,,0,,,82,0
58078,note_on,121,0,1,,,,,,,,,0,,,54,0
58079,note_on,1,0,0,,,,,,,,,0,,,70,0
58079,note_on,1,0,1,,,,,,,,,0,,,42,0
58080,note_on,0,0,0,,,,,,,,,0,,,71,109
58080,note_on,0,0,1,,,,,,,,,0,,,47,109
58080,set_tempo,0,1,0,,,,,,857140,,,,,,,
58080,time_signature,1,1,0,3,8,24,8,,,,,,,,,
58080,key_signature,1,1,1,,,,,Db,,,,,,,,
58080,key_signature,0,1,0,,,,,Db,,,,,,,,
58082,control_change,2,0,1,,,,,,,64,127,0,,,,
58117,note_on,37,0,0,,,,,,,,,0,,,75,109
58117,note_on,35,0,1,,,,,,,,,0,,,54,109
58154,note_on,37,0,1,,,,,,,,,0,,,59,109
58154,note_on,37,0,0,,,,,,,,,0,,,83,109
58318,note_on,0,0,0,,,,,,,,,0,,,83,0
58318,note_on,164,0,0,,,,,,,,,0,,,75,0
58318,note_on,164,0,1,,,,,,,,,0,,,54,0
58318,note_on,0,0,1,,,,,,,,,0,,,59,0
58319,note_on,1,0,1,,,,,,,,,0,,,47,0
58319,note_on,1,0,0,,,,,,,,,0,,,71,0
58800,key_signature,481,1,1,,,,,E,,,,,,,,
58800,time_signature,481,1,0,7,8,24,8,,,,,,,,,
58800,key_signature,0,1,0,,,,,E,,,,,,,,
58800,note_on,0,0,1,,,,,,,,,0,,,68,109
58800,note_on,0,0,1,,,,,,,,,0,,,74,109
58800,note_on,0,0,1,,,,,,,,,0,,,77,109
58800,note_on,0,0,1,,,,,,,,,0,,,83,109
58801,control_change,1,0,1,,,,,,,64,0,0,,,,
59039,note_on,0,0,1,,,,,,,,,0,,,77,0
59039,note_on,0,0,1,,,,,,,,,0,,,74,0
59039,note_on,0,0,1,,,,,,,,,0,,,83,0
59039,note_on,238,0,1,,,,,,,,,0,,,68,0
59040,note_on,1,0,1,,,,,,,,,0,,,70,109
59040,note_on,0,0,1,,,,,,,,,0,,,75,109
59040,note_on,0,0,1,,,,,,,,,0,,,78,109
59267,note_on,0,0,1,,,,,,,,,0,,,75,0
59267,note_on,227,0,1,,,,,,,,,0,,,70,0
59267,note_on,0,0,1,,,,,,,,,0,,,78,0
59280,note_on,0,0,1,,,,,,,,,0,,,75,109
59280,note_on,13,0,1,,,,,,,,,0,,,66,109
59280,note_on,0,0,1,,,,,,,,,0,,,72,109
59280,note_on,0,0,1,,,,,,,,,0,,,81,109
59519,note_on,0,0,1,,,,,,,,,0,,,75,0
59519,note_on,0,0,1,,,,,,,,,0,,,81,0
59519,note_on,239,0,1,,,,,,,,,0,,,66,0
59519,note_on,0,0,1,,,,,,,,,0,,,72,0
59520,note_on,0,0,1,,,,,,,,,0,,,76,109
59520,note_on,0,0,1,,,,,,,,,0,,,73,109
59520,note_on,1,0,1,,,,,,,,,0,,,68,109
59747,note_on,227,0,1,,,,,,,,,0,,,68,0
59747,note_on,0,0,1,,,,,,,,,0,,,73,0
59747,note_on,0,0,1,,,,,,,,,0,,,76,0
59760,note_on,0,0,1,,,,,,,,,0,,,71,109
59760,note_on,13,0,1,,,,,,,,,0,,,65,109
59760,set_tempo,960,1,0,,,,,,1000000,,,,,,,
59760,note_on,0,0,1,,,,,,,,,0,,,80,109
59760,note_on,0,0,1,,,,,,,,,0,,,74,109
59999,note_on,0,0,1,,,,,,,,,0,,,74,0
59999,note_on,0,0,1,,,,,,,,,0,,,80,0
59999,note_on,0,0,1,,,,,,,,,0,,,71,0
59999,note_on,239,0,1,,,,,,,,,0,,,65,0
60000,note_on,0,0,1,,,,,,,,,0,,,70,109
60000,note_on,0,0,1,,,,,,,,,0,,,75,109
60000,note_on,1,0,1,,,,,,,,,0,,,66,109
60227,note_on,227,0,1,,,,,,,,,0,,,66,0
60227,note_on,0,0,1,,,,,,,,,0,,,70,0
60227,note_on,0,0,1,,,,,,,,,0,,,75,0
60240,note_on,13,0,1,,,,,,,,,0,,,63,109
60240,note_on,0,0,1,,,,,,,,,0,,,78,109
60240,note_on,0,0,1,,,,,,,,,0,,,72,109
60240,note_on,0,0,1,,,,,,,,,0,,,69,109
60479,note_on,0,0,1,,,,,,,,,0,,,69,0
60479,note_on,0,0,1,,,,,,,,,0,,,78,0
60479,note_on,239,0,1,,,,,,,,,0,,,63,0
60479,note_on,0,0,1,,,,,,,,,0,,,72,0
60480,note_on,0,0,1,,,,,,,,,0,,,70,109
60480,time_signature,720,1,0,4,4,24,8,,,,,,,,,
60480,note_on,0,0,1,,,,,,,,,0,,,76,109
60480,note_on,1,0,1,,,,,,,,,0,,,67,109
60707,note_on,0,0,1,,,,,,,,,0,,,76,0
60707,note_on,0,0,1,,,,,,,,,0,,,70,0
60707,note_on,227,0,1,,,,,,,,,0,,,67,0
60720,note_on,0,0,0,,,,,,,,,0,,,85,109
60720,note_on,0,0,0,,,,,,,,,0,,,79,109
60720,note_on,0,0,0,,,,,,,,,0,,,76,109
60720,note_on,240,0,0,,,,,,,,,0,,,70,109
60722,control_change,2,0,0,,,,,,,64,127,0,,,,
60959,note_on,237,0,0,,,,,,,,,0,,,70,0
60959,note_on,0,0,0,,,,,,,,,0,,,76,0
60959,note_on,0,0,0,,,,,,,,,0,,,79,0
60959,note_on,0,0,0,,,,,,,,,0,,,85,0
60960,note_on,0,0,0,,,,,,,,,0,,,82,109
60960,note_on,0,0,0,,,,,,,,,0,,,76,109
60960,note_on,0,0,0,,,,,,,,,0,,,73,109
60960,note_on,0,0,0,,,,,,,,,0,,,67,109
60960,note_on,253,0,1,,,,,,,,,0,,,35,109
60960,set_tempo,1,1,0,,,,,,857140,,,,,,,
60996,note_on,36,0,1,,,,,,,,,0,,,40,109
61033,note_on,37,0,1,,,,,,,,,0,,,47,109
61071,note_on,38,0,1,,,,,,,,,0,,,52,109
61199,note_on,239,0,0,,,,,,,,,0,,,67,0
61199,note_on,0,0,0,,,,,,,,,0,,,73,0
61199,note_on,0,0,0,,,,,,,,,0,,,76,0
61199,note_on,0,0,0,,,,,,,,,0,,,82,0
61200,note_on,0,0,0,,,,,,,,,0,,,85,109
61200,note_on,0,0,0,,,,,,,,,0,,,79,109
61200,note_on,1,0,0,,,,,,,,,0,,,70,109
61200,note_on,0,0,0,,,,,,,,,0,,,76,109
61439,note_on,0,0,0,,,,,,,,,0,,,76,0
61439,note_on,0,0,0,,,,,,,,,0,,,79,0
61439,note_on,0,0,0,,,,,,,,,0,,,85,0
61439,note_on,239,0,0,,,,,,,,,0,,,70,0
61440,note_on,1,0,0,,,,,,,,,0,,,73,109
61440,note_on,0,0,0,,,,,,,,,0,,,79,109
61440,note_on,0,0,0,,,,,,,,,0,,,82,109
61440,note_on,0,0,0,,,,,,,,,0,,,88,109
61679,note_on,239,0,0,,,,,,,,,0,,,73,0
61679,note_on,0,0,0,,,,,,,,,0,,,79,0
61679,note_on,0,0,0,,,,,,,,,0,,,82,0
61679,note_on,0,0,0,,,,,,,,,0,,,88,0
61680,note_on,0,0,0,,,,,,,,,0,,,81,109
61680,note_on,0,0,0,,,,,,,,,0,,,85,109
61680,set_tempo,1,1,0,,,,,,1000000,,,,,,,
61680,note_on,0,0,0,,,,,,,,,0,,,76,109
61680,note_on,0,0,0,,,,,,,,,0,,,90,109
61918,note_on,847,0,1,,,,,,,,,0,,,40,0
61918,note_on,0,0,1,,,,,,,,,0,,,47,0
61918,note_on,0,0,1,,,,,,,,,0,,,52,0
61919,note_on,0,0,0,,,,,,,,,0,,,81,0
61919,note_on,1,0,1,,,,,,,,,0,,,35,0
61919,note_on,0,0,0,,,,,,,,,0,,,85,0
61919,note_on,0,0,0,,,,,,,,,0,,,90,0
61919,note_on,239,0,0,,,,,,,,,0,,,76,0
61920,note_on,0,0,0,,,,,,,,,0,,,79,109
61920,note_on,0,0,1,,,,,,,,,0,,,40,109
61920,note_on,0,0,1,,,,,,,,,0,,,52,109
61920,note_on,1,0,1,,,,,,,,,0,,,35,109
61920,note_on,0,0,1,,,,,,,,,0,,,47,109
61920,note_on,0,0,0,,,,,,,,,0,,,82,109
61920,note_on,0,0,0,,,,,,,,,0,,,88,109
61920,note_on,1,0,0,,,,,,,,,0,,,73,109
62159,note_on,0,0,0,,,,,,,,,0,,,79,0
62159,note_on,239,0,0,,,,,,,,,0,,,73,0
62159,note_on,0,0,0,,,,,,,,,0,,,82,0
62159,note_on,0,0,0,,,,,,,,,0,,,88,0
62160,note_on,0,0,0,,,,,,,,,0,,,79,109
62160,note_on,1,0,0,,,,,,,,,0,,,70,109
62160,note_on,0,0,0,,,,,,,,,0,,,85,109
62160,note_on,0,0,0,,,,,,,,,0,,,76,109
62375,note_on,455,0,1,,,,,,,,,0,,,35,0
62375,note_on,0,0,1,,,,,,,,,0,,,40,0
62375,note_on,0,0,1,,,,,,,,,0,,,47,0
62375,note_on,0,0,1,,,,,,,,,0,,,52,0
62387,note_on,0,0,0,,,,,,,,,0,,,76,0
62387,note_on,0,0,0,,,,,,,,,0,,,79,0
62387,note_on,227,0,0,,,,,,,,,0,,,70,0
62387,note_on,0,0,0,,,,,,,,,0,,,85,0
62400,note_on,13,0,0,,,,,,,,,0,,,71,109
62400,note_on,25,0,1,,,,,,,,,0,,,35,109
62400,note_on,0,0,1,,,,,,,,,0,,,59,109
62400,note_on,0,0,0,,,,,,,,,0,,,87,109
62400,note_on,0,0,0,,,,,,,,,0,,,78,109
62431,note_on,31,0,1,,,,,,,,,0,,,47,109
62627,note_on,0,0,0,,,,,,,,,0,,,87,0
62627,note_on,0,0,0,,,,,,,,,0,,,78,0
62627,note_on,227,0,0,,,,,,,,,0,,,71,0
62627,note_on,196,0,1,,,,,,,,,0,,,59,0
62638,note_on,11,0,1,,,,,,,,,0,,,47,0
62639,note_on,1,0,1,,,,,,,,,0,,,35,0
62640,note_on,0,0,1,,,,,,,,,0,,,65,109
62640,note_on,1,0,1,,,,,,,,,0,,,62,109
62640,note_on,0,0,1,,,,,,,,,0,,,68,109
62640,set_tempo,13,1,0,,,,,,857140,,,,,,,
62640,note_on,0,0,1,,,,,,,,,0,,,71,109
62641,control_change,1,0,0,,,,,,,64,0,0,,,,
62879,note_on,0,0,1,,,,,,,,,0,,,65,0
62879,note_on,0,0,1,,,,,,,,,0,,,68,0
62879,note_on,239,0,1,,,,,,,,,0,,,62,0
62879,note_on,0,0,1,,,,,,,,,0,,,71,0
62880,note_on,1,0,1,,,,,,,,,0,,,58,109
62880,note_on,0,0,1,,,,,,,,,0,,,63,109
62880,note_on,0,0,1,,,,,,,,,0,,,66,109
63107,note_on,227,0,1,,,,,,,,,0,,,58,0
63107,note_on,0,0,1,,,,,,,,,0,,,63,0
63107,note_on,0,0,1,,,,,,,,,0,,,66,0
63120,note_on,13,0,1,,,,,,,,,0,,,60,109
63120,note_on,0,0,1,,,,,,,,,0,,,63,109
63120,note_on,0,0,1,,,,,,,,,0,,,69,109
63359,note_on,0,0,1,,,,,,,,,0,,,69,0
63359,note_on,239,0,1,,,,,,,,,0,,,60,0
63359,note_on,0,0,1,,,,,,,,,0,,,63,0
63360,note_on,0,0,1,,,,,,,,,0,,,61,109
63360,note_on,0,0,1,,,,,,,,,0,,,64,109
63360,note_on,1,0,1,,,,,,,,,0,,,56,109
63587,note_on,0,0,1,,,,,,,,,0,,,61,0
63587,note_on,0,0,1,,,,,,,,,0,,,64,0
63587,note_on,227,0,1,,,,,,,,,0,,,56,0
63600,note_on,0,0,1,,,,,,,,,0,,,65,109
63600,note_on,13,0,1,,,,,,,,,0,,,60,109
63600,set_tempo,959,1,0,,,,,,1000000,,,,,,,
63600,note_on,0,0,1,,,,,,,,,0,,,62,109
63600,note_on,0,0,1,,,,,,,,,0,,,68,109
63839,note_on,239,0,1,,,,,,,,,0,,,60,0
63839,note_on,0,0,1,,,,,,,,,0,,,62,0
63839,note_on,0,0,1,,,,,,,,,0,,,68,0
63839,note_on,0,0,1,,,,,,,,,0,,,65,0
63840,note_on,0,0,1,,,,,,,,,0,,,58,109
63840,note_on,0,0,1,,,,,,,,,0,,,63,109
63840,note_on,1,0,1,,,,,,,,,0,,,54,109
64067,note_on,227,0,1,,,,,,,,,0,,,54,0
64067,note_on,0,0,1,,,,,,,,,0,,,58,0
64067,note_on,0,0,1,,,,,,,,,0,,,63,0
64080,note_on,13,0,1,,,,,,,,,0,,,57,109
64080,note_on,0,0,1,,,,,,,,,0,,,60,109
64080,note_on,0,0,1,,,,,,,,,0,,,66,109
64319,note_on,0,0,1,,,,,,,,,0,,,66,0
64319,note_on,239,0,1,,,,,,,,,0,,,57,0
64319,note_on,0,0,1,,,,,,,,,0,,,60,0
64320,note_on,0,0,1,,,,,,,,,0,,,60,109
64320,note_on,1,0,1,,,,,,,,,0,,,55,109
64320,note_on,0,0,1,,,,,,,,,0,,,64,109
64547,note_on,0,0,1,,,,,,,,,0,,,64,0
64547,note_on,0,0,1,,,,,,,,,0,,,60,0
64547,note_on,227,0,1,,,,,,,,,0,,,55,0
64560,note_on,0,0,0,,,,,,,,,0,,,67,109
64560,note_on,0,0,0,,,,,,,,,0,,,72,109
64560,note_on,960,0,0,,,,,,,,,0,,,64,109
64562,control_change,2,0,0,,,,,,,64,127,0,,,,
64799,note_on,237,0,0,,,,,,,,,0,,,64,0
64799,note_on,0,0,0,,,,,,,,,0,,,72,0
64799,note_on,0,0,0,,,,,,,,,0,,,67,0
64800,set_tempo,1,1,0,,,,,,857140,,,,,,,
64800,note_on,0,0,0,,,,,,,,,0,,,67,109
64800,note_on,0,0,0,,,,,,,,,0,,,64,109
64800,note_on,0,0,0,,,,,,,,,0,,,60,109
64800,note_on,253,0,1,,,,,,,,,0,,,35,109
64836,note_on,36,0,1,,,,,,,,,0,,,40,109
64873,note_on,37,0,1,,,,,,,,,0,,,43,109
64911,note_on,38,0,1,,,,,,,,,0,,,48,109
65039,note_on,0,0,0,,,,,,,,,0,,,64,0
65039,note_on,0,0,0,,,,,,,,,0,,,67,0
65039,note_on,239,0,0,,,,,,,,,0,,,60,0
65040,note_on,1,0,0,,,,,,,,,0,,,64,109
65040,note_on,0,0,0,,,,,,,,,0,,,67,109
65040,note_on,0,0,0,,,,,,,,,0,,,72,109
65279,note_on,239,0,0,,,,,,,,,0,,,64,0
65279,note_on,0,0,0,,,,,,,,,0,,,72,0
65279,note_on,0,0,0,,,,,,,,,0,,,67,0
65280,note_on,1,0,0,,,,,,,,,0,,,67,109
65280,note_on,0,0,0,,,,,,,,,0,,,76,109
65280,note_on,0,0,0,,,,,,,,,0,,,72,109
65519,note_on,0,0,0,,,,,,,,,0,,,76,0
65519,note_on,0,0,0,,,,,,,,,0,,,72,0
65519,note_on,239,0,0,,,,,,,,,0,,,67,0
65520,note_on,0,0,0,,,,,,,,,0,,,72,109
65520,set_tempo,1,1,0,,,,,,923080,,,,,,,
65520,note_on,0,0,0,,,,,,,,,0,,,76,109
65520,note_on,0,0,0,,,,,,,,,0,,,79,109
65758,note_on,0,0,1,,,,,,,,,0,,,43,0
65758,note_on,847,0,1,,,,,,,,,0,,,40,0
65758,note_on,0,0,1,,,,,,,,,0,,,48,0
65759,note_on,239,0,0,,,,,,,,,0,,,72,0
65759,note_on,0,0,0,,,,,,,,,0,,,76,0
65759,note_on,0,0,0,,,,,,,,,0,,,79,0
65759,note_on,1,0,1,,,,,,,,,0,,,35,0
65760,note_on,0,0,0,,,,,,,,,0,,,72,109
65760,note_on,0,0,0,,,,,,,,,0,,,76,109
65760,note_on,1,0,0,,,,,,,,,0,,,67,109
65760,note_on,1,0,1,,,,,,,,,0,,,35,109
65794,note_on,34,0,1,,,,,,,,,0,,,40,109
65829,note_on,35,0,1,,,,,,,,,0,,,43,109
65863,note_on,34,0,1,,,,,,,,,0,,,48,109
65999,note_on,0,0,0,,,,,,,,,0,,,76,0
65999,note_on,239,0,0,,,,,,,,,0,,,67,0
65999,note_on,0,0,0,,,,,,,,,0,,,72,0
66000,note_on,0,0,0,,,,,,,,,0,,,67,109
66000,note_on,0,0,0,,,,,,,,,0,,,72,109
66000,note_on,1,0,0,,,,,,,,,0,,,64,109
66227,note_on,227,0,0,,,,,,,,,0,,,64,0
66227,note_on,0,0,0,,,,,,,,,0,,,67,0
66227,note_on,0,0,0,,,,,,,,,0,,,72,0
66238,note_on,0,0,1,,,,,,,,,0,,,43,0
66238,note_on,0,0,1,,,,,,,,,0,,,48,0
66238,note_on,375,0,1,,,,,,,,,0,,,40,0
66239,note_on,1,0,1,,,,,,,,,0,,,35,0
66240,note_on,0,0,0,,,,,,,,,0,,,72,109
66240,note_on,0,0,0,,,,,,,,,0,,,69,109
66240,note_on,13,0,0,,,,,,,,,0,,,65,109
66241,control_change,1,0,0,,,,,,,64,0,0,,,,
66242,control_change,1,0,0,,,,,,,64,127,0,,,,
66479,note_on,0,0,0,,,,,,,,,0,,,72,0
66479,note_on,0,0,0,,,,,,,,,0,,,69,0
66479,note_on,237,0,0,,,,,,,,,0,,,65,0
66480,note_on,1,0,0,,,,,,,,,0,,,60,109
66480,note_on,0,0,0,,,,,,,,,0,,,69,109
66480,note_on,0,0,0,,,,,,,,,0,,,65,109
66719,note_on,0,0,0,,,,,,,,,0,,,69,0
66719,note_on,0,0,0,,,,,,,,,0,,,65,0
66719,note_on,239,0,0,,,,,,,,,0,,,60,0
66720,note_on,481,0,1,,,,,,,,,0,,,35,109
66720,note_on,0,0,0,,,,,,,,,0,,,65,109
66720,note_on,0,0,1,,,,,,,,,0,,,53,109
66720,note_on,0,0,1,,,,,,,,,0,,,48,109
66720,note_on,0,0,1,,,,,,,,,0,,,45,109
66720,note_on,1,0,0,,,,,,,,,0,,,57,109
66720,note_on,0,0,0,,,,,,,,,0,,,60,109
66959,note_on,0,0,0,,,,,,,,,0,,,60,0
66959,note_on,239,0,0,,,,,,,,,0,,,57,0
66959,note_on,0,0,0,,,,,,,,,0,,,65,0
66960,note_on,1,0,0,,,,,,,,,0,,,54,109
66960,note_on,0,0,0,,,,,,,,,0,,,60,109
66960,note_on,0,0,0,,,,,,,,,0,,,57,109
67175,note_on,0,0,1,,,,,,,,,0,,,45,0
67175,note_on,0,0,1,,,,,,,,,0,,,48,0
67175,note_on,0,0,1,,,,,,,,,0,,,53,0
67175,note_on,455,0,1,,,,,,,,,0,,,35,0
67187,note_on,0,0,0,,,,,,,,,0,,,60,0
67187,note_on,227,0,0,,,,,,,,,0,,,54,0
67187,note_on,0,0,0,,,,,,,,,0,,,57,0
67200,set_tempo,13,1,0,,,,,,1000000,,,,,,,
67200,note_on,0,0,0,,,,,,,,,0,,,57,109
67200,note_on,0,0,0,,,,,,,,,0,,,54,109
67200,note_on,0,0,0,,,,,,,,,0,,,62,109
67439,note_on,0,0,0,,,,,,,,,0,,,62,0
67439,note_on,0,0,0,,,,,,,,,0,,,57,0
67439,note_on,239,0,0,,,,,,,,,0,,,54,0
67440,note_on,0,0,0,,,,,,,,,0,,,57,109
67440,note_on,1,0,0,,,,,,,,,0,,,50,109
67440,note_on,0,0,0,,,,,,,,,0,,,54,109
67679,note_on,0,0,0,,,,,,,,,0,,,54,0
67679,note_on,239,0,0,,,,,,,,,0,,,50,0
67679,note_on,0,0,0,,,,,,,,,0,,,57,0
67680,note_on,0,0,1,,,,,,,,,0,,,45,109
67680,note_on,505,0,1,,,,,,,,,0,,,33,109
67680,note_on,0,0,1,,,,,,,,,0,,,41,109
67680,note_on,1,0,0,,,,,,,,,0,,,49,109
67680,note_on,0,0,0,,,,,,,,,0,,,54,109
67680,note_on,0,0,0,,,,,,,,,0,,,57,109
67919,note_on,239,0,0,,,,,,,,,0,,,49,0
67919,note_on,0,0,0,,,,,,,,,0,,,57,0
67919,note_on,0,0,0,,,,,,,,,0,,,54,0
67920,note_on,0,0,0,,,,,,,,,0,,,60,109
67920,note_on,1,0,0,,,,,,,,,0,,,52,109
68135,note_on,455,0,1,,,,,,,,,0,,,33,0
68135,note_on,0,0,1,,,,,,,,,0,,,41,0
68135,note_on,0,0,1,,,,,,,,,0,,,45,0
68147,note_on,0,0,0,,,,,,,,,0,,,60,0
68147,note_on,227,0,0,,,,,,,,,0,,,52,0
68160,note_on,0,0,0,,,,,,,,,0,,,57,109
68160,set_tempo,13,1,0,,,,,,750002,,,,,,,
68160,note_on,0,0,1,,,,,,,,,0,,,42,109
68160,note_on,0,0,0,,,,,,,,,0,,,51,109
68160,note_on,25,0,1,,,,,,,,,0,,,35,109
68160,note_on,0,0,0,,,,,,,,,0,,,59,109
68161,control_change,1,0,0,,,,,,,64,0,0,,,,
68387,note_on,0,0,1,,,,,,,,,0,,,42,0
68387,note_on,226,0,0,,,,,,,,,0,,,51,0
68387,note_on,0,0,0,,,,,,,,,0,,,57,0
68387,note_on,0,0,0,,,,,,,,,0,,,59,0
68387,note_on,227,0,1,,,,,,,,,0,,,35,0
68400,note_on,13,0,1,,,,,,,,,0,,,42,109
68520,note_on,133,0,0,,,,,,,,,0,,,54,109
68627,note_on,227,0,1,,,,,,,,,0,,,42,0
68640,note_on,13,0,1,,,,,,,,,0,,,39,109
68759,note_on,239,0,0,,,,,,,,,0,,,54,0
68760,note_on,0,0,0,,,,,,,,,0,,,51,109
68760,set_tempo,1,1,0,,,,,,666667,,,,,,,
68867,note_on,227,0,1,,,,,,,,,0,,,39,0
68880,note_on,13,0,1,,,,,,,,,0,,,42,111
68999,note_on,239,0,0,,,,,,,,,0,,,51,0
69000,note_on,1,0,0,,,,,,,,,0,,,54,114
69107,note_on,227,0,1,,,,,,,,,0,,,42,0
69120,note_on,13,0,1,,,,,,,,,0,,,43,117
69239,note_on,239,0,0,,,,,,,,,0,,,54,0
69240,note_on,1,0,0,,,,,,,,,0,,,55,119
69347,note_on,227,0,1,,,,,,,,,0,,,43,0
69360,note_on,13,0,1,,,,,,,,,0,,,47,122
69479,note_on,239,0,0,,,,,,,,,0,,,55,0
69480,note_on,1,0,0,,,,,,,,,0,,,59,125
69587,note_on,227,0,1,,,,,,,,,0,,,47,0
69600,note_on,13,0,1,,,,,,,,,0,,,43,127
69719,note_on,239,0,0,,,,,,,,,0,,,59,0
69720,note_on,1,0,0,,,,,,,,,0,,,55,127
69827,note_on,227,0,1,,,,,,,,,0,,,43,0
69840,note_on,13,0,1,,,,,,,,,0,,,42,127
69959,note_on,239,0,0,,,,,,,,,0,,,55,0
69960,note_on,1,0,0,,,,,,,,,0,,,54,127
70067,note_on,227,0,1,,,,,,,,,0,,,42,0
70080,note_on,13,0,1,,,,,,,,,0,,,39,127
70199,note_on,239,0,0,,,,,,,,,0,,,54,0
70200,note_on,1,0,0,,,,,,,,,0,,,51,127
70307,note_on,227,0,1,,,,,,,,,0,,,39,0
70320,note_on,13,0,1,,,,,,,,,0,,,35,127
70439,note_on,239,0,0,,,,,,,,,0,,,51,0
70440,note_on,1,0,0,,,,,,,,,0,,,47,127
70547,note_on,227,0,1,,,,,,,,,0,,,35,0
70560,note_on,13,0,1,,,,,,,,,0,,,39,127
70679,note_on,239,0,0,,,,,,,,,0,,,47,0
70680,note_on,1,0,0,,,,,,,,,0,,,51,127
70787,note_on,227,0,1,,,,,,,,,0,,,39,0
70800,note_on,13,0,1,,,,,,,,,0,,,42,127
70919,note_on,239,0,0,,,,,,,,,0,,,51,0
70920,note_on,1,0,0,,,,,,,,,0,,,54,126
71027,note_on,227,0,1,,,,,,,,,0,,,42,0
71040,note_on,13,0,1,,,,,,,,,0,,,43,124
71159,note_on,239,0,0,,,,,,,,,0,,,54,0
71160,note_on,1,0,0,,,,,,,,,0,,,55,123
71267,note_on,227,0,1,,,,,,,,,0,,,43,0
71280,note_on,13,0,1,,,,,,,,,0,,,42,121
71399,note_on,239,0,0,,,,,,,,,0,,,55,0
71400,note_on,1,0,0,,,,,,,,,0,,,54,119
71507,note_on,227,0,1,,,,,,,,,0,,,42,0
71520,note_on,13,0,1,,,,,,,,,0,,,39,117
71639,note_on,239,0,0,,,,,,,,,0,,,54,0
71640,set_tempo,1,1,0,,,,,,750002,,,,,,,
71640,note_on,0,0,0,,,,,,,,,0,,,51,115
71747,note_on,227,0,1,,,,,,,,,0,,,39,0
71760,note_on,13,0,1,,,,,,,,,0,,,36,113
71879,note_on,239,0,0,,,,,,,,,0,,,51,0
71880,note_on,1,0,0,,,,,,,,,0,,,48,111
71987,note_on,227,0,1,,,,,,,,,0,,,36,0
72000,note_on,13,0,1,,,,,,,,,0,,,35,109
72000,set_tempo,120,1,0,,,,,,800000,,,,,,,
72119,note_on,119,0,0,,,,,,,,,0,,,48,0
72120,note_on,1,0,0,,,,,,,,,0,,,47,107
72227,note_on,227,0,1,,,,,,,,,0,,,35,0
72240,note_on,13,0,1,,,,,,,,,0,,,31,104
72359,note_on,239,0,0,,,,,,,,,0,,,47,0
72360,note_on,1,0,0,,,,,,,,,0,,,43,101
72467,note_on,227,0,1,,,,,,,,,0,,,31,0
72480,note_on,13,0,1,,,,,,,,,0,,,30,98
72599,note_on,239,0,0,,,,,,,,,0,,,43,0
72600,note_on,0,0,0,,,,,,,,,0,,,42,96
72600,set_tempo,1,1,0,,,,,,857140,,,,,,,
72707,note_on,227,0,1,,,,,,,,,0,,,30,0
72720,note_on,13,0,1,,,,,,,,,0,,,36,93
72839,note_on,239,0,0,,,,,,,,,0,,,42,0
72840,note_on,1,0,0,,,,,,,,,0,,,48,90
72947,note_on,227,0,1,,,,,,,,,0,,,36,0
72960,note_on,13,0,1,,,,,,,,,0,,,35,87
73079,note_on,239,0,0,,,,,,,,,0,,,48,0
73080,note_on,1,0,0,,,,,,,,,0,,,47,85
73187,note_on,227,0,1,,,,,,,,,0,,,35,0
73200,note_on,13,0,1,,,,,,,,,0,,,31,82
73319,note_on,239,0,0,,,,,,,,,0,,,47,0
73320,set_tempo,1,1,0,,,,,,1000000,,,,,,,
73320,note_on,0,0,0,,,,,,,,,0,,,43,79
73427,note_on,227,0,1,,,,,,,,,0,,,31,0
73440,note_on,13,0,1,,,,,,,,,0,,,30,76
73559,note_on,239,0,0,,,,,,,,,0,,,43,0
73560,note_on,1,0,0,,,,,,,,,0,,,42,74
73667,note_on,227,0,1,,,,,,,,,0,,,30,0
73680,note_on,13,0,1,,,,,,,,,0,,,35,71
73799,note_on,239,0,0,,,,,,,,,0,,,42,0
73800,note_on,0,0,0,,,,,,,,,0,,,47,68
73800,set_tempo,1,1,0,,,,,,2000000,,,,,,,
73907,note_on,227,0,1,,,,,,,,,0,,,35,0
73913,note_on,113,0,0,,,,,,,,,0,,,47,0
73920,set_tempo,7,1,0,,,,,,705881,,,,,,,
73920,note_on,13,0,1,,,,,,,,,0,,,31,65
73922,control_change,2,0,1,,,,,,,64,127,0,,,,
74033,note_on,111,0,1,,,,,,,,,0,,,31,0
74040,note_on,7,0,1,,,,,,,,,0,,,38,65
74153,note_on,113,0,1,,,,,,,,,0,,,38,0
74160,note_on,0,0,0,,,,,,,,,0,,,67,65
74160,note_on,0,0,0,,,,,,,,,0,,,71,65
74160,note_on,240,0,0,,,,,,,,,0,,,62,65
74160,note_on,7,0,1,,,,,,,,,0,,,43,65
74273,note_on,113,0,1,,,,,,,,,0,,,43,0
74279,note_on,119,0,0,,,,,,,,,0,,,62,0
74279,note_on,0,0,0,,,,,,,,,0,,,67,0
74279,note_on,0,0,0,,,,,,,,,0,,,71,0
74280,note_on,7,0,1,,,,,,,,,0,,,50,65
74400,note_on,0,0,0,,,,,,,,,0,,,62,65
74400,note_on,0,0,0,,,,,,,,,0,,,67,65
74400,note_on,121,0,0,,,,,,,,,0,,,59,65
74507,note_on,227,0,1,,,,,,,,,0,,,50,0
74519,note_on,0,0,0,,,,,,,,,0,,,67,0
74519,note_on,119,0,0,,,,,,,,,0,,,59,0
74519,note_on,0,0,0,,,,,,,,,0,,,62,0
74520,note_on,13,0,1,,,,,,,,,0,,,43,65
74633,note_on,113,0,1,,,,,,,,,0,,,43,0
74640,note_on,121,0,0,,,,,,,,,0,,,62,65
74640,note_on,0,0,0,,,,,,,,,0,,,71,65
74640,note_on,0,0,0,,,,,,,,,0,,,67,65
74640,note_on,7,0,1,,,,,,,,,0,,,38,65
74753,note_on,113,0,1,,,,,,,,,0,,,38,0
74759,note_on,0,0,0,,,,,,,,,0,,,67,0
74759,note_on,0,0,0,,,,,,,,,0,,,71,0
74759,note_on,119,0,0,,,,,,,,,0,,,62,0
74760,note_on,7,0,1,,,,,,,,,0,,,31,65
74880,note_on,0,0,0,,,,,,,,,0,,,74,65
74880,note_on,0,0,0,,,,,,,,,0,,,71,65
74880,note_on,121,0,0,,,,,,,,,0,,,67,65
74987,note_on,227,0,1,,,,,,,,,0,,,31,0
74999,note_on,0,0,0,,,,,,,,,0,,,71,0
74999,note_on,0,0,0,,,,,,,,,0,,,74,0
74999,note_on,119,0,0,,,,,,,,,0,,,67,0
75000,note_on,13,0,1,,,,,,,,,0,,,38,65
75113,note_on,113,0,1,,,,,,,,,0,,,38,0
75120,note_on,0,0,0,,,,,,,,,0,,,71,65
75120,note_on,121,0,0,,,,,,,,,0,,,67,65
75120,note_on,0,0,0,,,,,,,,,0,,,76,65
75120,note_on,7,0,1,,,,,,,,,0,,,43,65
75233,note_on,113,0,1,,,,,,,,,0,,,43,0
75239,note_on,119,0,0,,,,,,,,,0,,,67,0
75239,note_on,0,0,0,,,,,,,,,0,,,71,0
75239,note_on,0,0,0,,,,,,,,,0,,,76,0
75240,note_on,7,0,1,,,,,,,,,0,,,50,65
75360,note_on,0,0,0,,,,,,,,,0,,,74,65
75360,note_on,0,0,0,,,,,,,,,0,,,71,65
75360,note_on,121,0,0,,,,,,,,,0,,,67,65
75467,note_on,227,0,1,,,,,,,,,0,,,50,0
75479,note_on,119,0,0,,,,,,,,,0,,,67,0
75479,note_on,0,0,0,,,,,,,,,0,,,74,0
75479,note_on,0,0,0,,,,,,,,,0,,,71,0
75480,note_on,13,0,1,,,,,,,,,0,,,43,65
75593,note_on,113,0,1,,,,,,,,,0,,,43,0
75600,note_on,0,0,0,,,,,,,,,0,,,67,65
75600,note_on,7,0,1,,,,,,,,,0,,,38,65
75600,note_on,121,0,0,,,,,,,,,0,,,62,65
75600,note_on,0,0,0,,,,,,,,,0,,,71,65
75713,note_on,113,0,1,,,,,,,,,0,,,38,0
75719,note_on,0,0,0,,,,,,,,,0,,,67,0
75719,note_on,119,0,0,,,,,,,,,0,,,62,0
75719,note_on,0,0,0,,,,,,,,,0,,,71,0
75720,note_on,7,0,1,,,,,,,,,0,,,31,65
75840,note_on,0,0,0,,,,,,,,,0,,,67,65
75840,note_on,0,0,0,,,,,,,,,0,,,62,65
75840,note_on,121,0,0,,,,,,,,,0,,,59,65
75841,control_change,121,0,1,,,,,,,64,0,0,,,,
75842,control_change,1,0,1,,,,,,,64,127,0,,,,
75947,note_on,105,0,1,,,,,,,,,0,,,31,0
75959,note_on,119,0,0,,,,,,,,,0,,,59,0
75959,note_on,0,0,0,,,,,,,,,0,,,62,0
75959,note_on,0,0,0,,,,,,,,,0,,,67,0
75960,note_on,13,0,1,,,,,,,,,0,,,38,65
76073,note_on,113,0,1,,,,,,,,,0,,,38,0
76080,note_on,0,0,0,,,,,,,,,0,,,71,65
76080,note_on,0,0,0,,,,,,,,,0,,,67,65
76080,note_on,7,0,1,,,,,,,,,0,,,43,65
76080,note_on,121,0,0,,,,,,,,,0,,,62,65
76193,note_on,113,0,1,,,,,,,,,0,,,43,0
76199,note_on,119,0,0,,,,,,,,,0,,,62,0
76199,note_on,0,0,0,,,,,,,,,0,,,71,0
76199,note_on,0,0,0,,,,,,,,,0,,,67,0
76200,note_on,7,0,1,,,,,,,,,0,,,50,65
76320,note_on,0,0,0,,,,,,,,,0,,,71,65
76320,note_on,121,0,0,,,,,,,,,0,,,67,65
76320,note_on,0,0,0,,,,,,,,,0,,,74,65
76427,note_on,227,0,1,,,,,,,,,0,,,50,0
76439,note_on,0,0,0,,,,,,,,,0,,,71,0
76439,note_on,119,0,0,,,,,,,,,0,,,67,0
76439,note_on,0,0,0,,,,,,,,,0,,,74,0
76440,note_on,13,0,1,,,,,,,,,0,,,43,65
76553,note_on,113,0,1,,,,,,,,,0,,,43,0
76560,note_on,0,0,0,,,,,,,,,0,,,71,65
76560,note_on,0,0,0,,,,,,,,,0,,,76,65
76560,note_on,7,0,1,,,,,,,,,0,,,38,65
76560,note_on,121,0,0,,,,,,,,,0,,,67,65
76673,note_on,113,0,1,,,,,,,,,0,,,38,0
76679,note_on,119,0,0,,,,,,,,,0,,,67,0
76679,note_on,0,0,0,,,,,,,,,0,,,71,0
76679,note_on,0,0,0,,,,,,,,,0,,,76,0
76680,note_on,7,0,1,,,,,,,,,0,,,31,65
76800,note_on,0,0,0,,,,,,,,,0,,,79,65
76800,note_on,121,0,0,,,,,,,,,0,,,71,65
76800,note_on,0,0,0,,,,,,,,,0,,,74,65
76907,note_on,227,0,1,,,,,,,,,0,,,31,0
76919,note_on,119,0,0,,,,,,,,,0,,,71,0
76919,note_on,0,0,0,,,,,,,,,0,,,74,0
76919,note_on,0,0,0,,,,,,,,,0,,,79,0
76920,note_on,13,0,1,,,,,,,,,0,,,38,65
77033,note_on,113,0,1,,,,,,,,,0,,,38,0
77040,note_on,121,0,0,,,,,,,,,0,,,74,65
77040,note_on,7,0,1,,,,,,,,,0,,,43,65
77040,note_on,0,0,0,,,,,,,,,0,,,83,65
77040,note_on,0,0,0,,,,,,,,,0,,,79,65
77153,note_on,113,0,1,,,,,,,,,0,,,43,0
77159,note_on,0,0,0,,,,,,,,,0,,,79,0
77159,note_on,0,0,0,,,,,,,,,0,,,83,0
77159,note_on,119,0,0,,,,,,,,,0,,,74,0
77160,note_on,7,0,1,,,,,,,,,0,,,50,65
77280,note_on,0,0,0,,,,,,,,,0,,,83,65
77280,note_on,121,0,0,,,,,,,,,0,,,79,65
77280,note_on,0,0,0,,,,,,,,,0,,,86,65
77387,note_on,227,0,1,,,,,,,,,0,,,50,0
77399,note_on,119,0,0,,,,,,,,,0,,,79,0
77399,note_on,0,0,0,,,,,,,,,0,,,83,0
77399,note_on,0,0,0,,,,,,,,,0,,,86,0
77400,note_on,13,0,1,,,,,,,,,0,,,43,65
77513,note_on,113,0,1,,,,,,,,,0,,,43,0
77520,note_on,121,0,0,,,,,,,,,0,,,79,65
77520,note_on,7,0,1,,,,,,,,,0,,,38,65
77520,note_on,0,0,0,,,,,,,,,0,,,83,65
77520,note_on,0,0,0,,,,,,,,,0,,,88,65
77633,note_on,113,0,1,,,,,,,,,0,,,38,0
77639,note_on,119,0,0,,,,,,,,,0,,,79,0
77639,note_on,0,0,0,,,,,,,,,0,,,88,0
77639,note_on,0,0,0,,,,,,,,,0,,,83,0
77640,note_on,7,0,1,,,,,,,,,0,,,31,65
77753,note_on,113,0,1,,,,,,,,,0,,,31,0
77760,note_on,0,0,0,,,,,,,,,0,,,86,65
77760,note_on,0,0,0,,,,,,,,,0,,,90,65
77760,note_on,121,0,0,,,,,,,,,0,,,81,65
77760,note_on,7,0,1,,,,,,,,,0,,,38,65
77761,control_change,1,0,1,,,,,,,64,0,0,,,,
77762,control_change,1,0,1,,,,,,,64,127,0,,,,
77873,note_on,111,0,1,,,,,,,,,0,,,38,0
77880,note_on,7,0,1,,,,,,,,,0,,,45,65
77993,note_on,113,0,1,,,,,,,,,0,,,45,0
78000,note_on,7,0,1,,,,,,,,,0,,,50,65
78113,note_on,113,0,1,,,,,,,,,0,,,50,0
78120,note_on,7,0,1,,,,,,,,,0,,,57,65
78347,note_on,227,0,1,,,,,,,,,0,,,57,0
78360,note_on,13,0,1,,,,,,,,,0,,,50,65
78473,note_on,113,0,1,,,,,,,,,0,,,50,0
78480,note_on,7,0,1,,,,,,,,,0,,,45,65
78593,note_on,113,0,1,,,,,,,,,0,,,45,0
78600,note_on,7,0,1,,,,,,,,,0,,,38,65
78719,note_on,959,0,0,,,,,,,,,0,,,81,0
78719,note_on,0,0,0,,,,,,,,,0,,,90,0
78719,note_on,0,0,0,,,,,,,,,0,,,86,0
78720,note_on,0,0,0,,,,,,,,,0,,,93,65
78720,note_on,1,0,0,,,,,,,,,0,,,81,65
78720,note_on,0,0,0,,,,,,,,,0,,,90,65
78827,note_on,227,0,1,,,,,,,,,0,,,38,0
78839,note_on,119,0,0,,,,,,,,,0,,,81,0
78839,note_on,0,0,0,,,,,,,,,0,,,93,0
78839,note_on,0,0,0,,,,,,,,,0,,,90,0
78840,note_on,13,0,1,,,,,,,,,0,,,45,65
78953,note_on,113,0,1,,,,,,,,,0,,,45,0
78960,note_on,7,0,1,,,,,,,,,0,,,50,65
79073,note_on,113,0,1,,,,,,,,,0,,,50,0
79080,note_on,7,0,1,,,,,,,,,0,,,62,65
79307,note_on,227,0,1,,,,,,,,,0,,,62,0
79320,note_on,13,0,1,,,,,,,,,0,,,50,65
79433,note_on,113,0,1,,,,,,,,,0,,,50,0
79440,note_on,7,0,1,,,,,,,,,0,,,45,65
79553,note_on,113,0,1,,,,,,,,,0,,,45,0
79560,note_on,7,0,1,,,,,,,,,0,,,38,65
79681,control_change,121,0,1,,,,,,,64,0,0,,,,
79682,control_change,1,0,1,,,,,,,64,127,0,,,,
79787,note_on,105,0,1,,,,,,,,,0,,,38,0
79800,note_on,13,0,1,,,,,,,,,0,,,45,65
79913,note_on,113,0,1,,,,,,,,,0,,,45,0
79920,note_on,7,0,1,,,,,,,,,0,,,50,65
80033,note_on,113,0,1,,,,,,,,,0,,,50,0
80040,note_on,7,0,1,,,,,,,,,0,,,57,65
80267,note_on,227,0,1,,,,,,,,,0,,,57,0
80280,note_on,13,0,1,,,,,,,,,0,,,50,65
80393,note_on,113,0,1,,,,,,,,,0,,,50,0
80400,note_on,7,0,1,,,,,,,,,0,,,45,65
80513,note_on,113,0,1,,,,,,,,,0,,,45,0
80520,note_on,7,0,1,,,,,,,,,0,,,38,65
80747,note_on,227,0,1,,,,,,,,,0,,,38,0
80760,note_on,13,0,1,,,,,,,,,0,,,45,65
80873,note_on,113,0,1,,,,,,,,,0,,,45,0
80880,note_on,7,0,1,,,,,,,,,0,,,50,65
80993,note_on,113,0,1,,,,,,,,,0,,,50,0
81000,note_on,7,0,1,,,,,,,,,0,,,62,65
81227,note_on,227,0,1,,,,,,,,,0,,,62,0
81240,note_on,13,0,1,,,,,,,,,0,,,50,65
81353,note_on,113,0,1,,,,,,,,,0,,,50,0
81360,note_on,7,0,1,,,,,,,,,0,,,45,65
81473,note_on,113,0,1,,,,,,,,,0,,,45,0
81480,note_on,7,0,1,,,,,,,,,0,,,38,65
81593,note_on,113,0,1,,,,,,,,,0,,,38,0
81600,note_on,7,0,1,,,,,,,,,0,,,33,65
81601,control_change,1,0,1,,,,,,,64,0,0,,,,
81602,control_change,1,0,1,,,,,,,64,127,0,,,,
81713,note_on,111,0,1,,,,,,,,,0,,,33,0
81720,note_on,7,0,1,,,,,,,,,0,,,40,65
81833,note_on,113,0,1,,,,,,,,,0,,,40,0
81840,note_on,7,0,1,,,,,,,,,0,,,45,65
81840,note_on,0,0,0,,,,,,,,,0,,,72,65
81840,note_on,0,0,0,,,,,,,,,0,,,69,65
81840,note_on,3001,0,0,,,,,,,,,0,,,64,65
81953,note_on,113,0,1,,,,,,,,,0,,,45,0
81959,note_on,0,0,0,,,,,,,,,0,,,72,0
81959,note_on,0,0,0,,,,,,,,,0,,,69,0
81959,note_on,119,0,0,,,,,,,,,0,,,64,0
81960,note_on,7,0,1,,,,,,,,,0,,,52,65
82080,note_on,121,0,0,,,,,,,,,0,,,60,65
82080,note_on,0,0,0,,,,,,,,,0,,,64,65
82080,note_on,0,0,0,,,,,,,,,0,,,69,65
82187,note_on,227,0,1,,,,,,,,,0,,,52,0
82199,note_on,119,0,0,,,,,,,,,0,,,60,0
82199,note_on,0,0,0,,,,,,,,,0,,,69,0
82199,note_on,0,0,0,,,,,,,,,0,,,64,0
82200,note_on,13,0,1,,,,,,,,,0,,,45,65
82313,note_on,113,0,1,,,,,,,,,0,,,45,0
82320,note_on,121,0,0,,,,,,,,,0,,,64,65
82320,note_on,0,0,0,,,,,,,,,0,,,69,65
82320,note_on,7,0,1,,,,,,,,,0,,,40,65
82320,note_on,0,0,0,,,,,,,,,0,,,72,65
82433,note_on,113,0,1,,,,,,,,,0,,,40,0
82439,note_on,119,0,0,,,,,,,,,0,,,64,0
82439,note_on,0,0,0,,,,,,,,,0,,,69,0
82439,note_on,0,0,0,,,,,,,,,0,,,72,0
82440,note_on,7,0,1,,,,,,,,,0,,,33,65
82560,note_on,121,0,0,,,,,,,,,0,,,69,65
82560,note_on,0,0,0,,,,,,,,,0,,,72,65
82560,note_on,0,0,0,,,,,,,,,0,,,76,65
82667,note_on,227,0,1,,,,,,,,,0,,,33,0
82679,note_on,119,0,0,,,,,,,,,0,,,69,0
82679,note_on,0,0,0,,,,,,,,,0,,,72,0
82679,note_on,0,0,0,,,,,,,,,0,,,76,0
82680,note_on,13,0,1,,,,,,,,,0,,,40,65
82793,note_on,113,0,1,,,,,,,,,0,,,40,0
82800,note_on,7,0,1,,,,,,,,,0,,,45,65
82800,note_on,0,0,0,,,,,,,,,0,,,77,65
82800,note_on,0,0,0,,,,,,,,,0,,,72,65
82800,note_on,121,0,0,,,,,,,,,0,,,69,65
82913,note_on,113,0,1,,,,,,,,,0,,,45,0
82919,note_on,0,0,0,,,,,,,,,0,,,72,0
82919,note_on,119,0,0,,,,,,,,,0,,,69,0
82919,note_on,0,0,0,,,,,,,,,0,,,77,0
82920,note_on,7,0,1,,,,,,,,,0,,,52,65
83040,note_on,121,0,0,,,,,,,,,0,,,69,65
83040,note_on,0,0,0,,,,,,,,,0,,,72,65
83040,note_on,0,0,0,,,,,,,,,0,,,76,65
83147,note_on,227,0,1,,,,,,,,,0,,,52,0
83159,note_on,119,0,0,,,,,,,,,0,,,69,0
83159,note_on,0,0,0,,,,,,,,,0,,,72,0
83159,note_on,0,0,0,,,,,,,,,0,,,76,0
83160,note_on,13,0,1,,,,,,,,,0,,,45,65
83273,note_on,113,0,1,,,,,,,,,0,,,45,0
83280,note_on,0,0,0,,,,,,,,,0,,,69,65
83280,note_on,121,0,0,,,,,,,,,0,,,64,65
83280,note_on,7,0,1,,,,,,,,,0,,,40,65
83280,note_on,0,0,0,,,,,,,,,0,,,72,65
83393,note_on,113,0,1,,,,,,,,,0,,,40,0
83399,note_on,119,0,0,,,,,,,,,0,,,64,0
83399,note_on,0,0,0,,,,,,,,,0,,,69,0
83399,note_on,0,0,0,,,,,,,,,0,,,72,0
83400,note_on,7,0,1,,,,,,,,,0,,,33,65
83520,note_on,121,0,0,,,,,,,,,0,,,60,65
83520,note_on,0,0,0,,,,,,,,,0,,,69,65
83520,note_on,0,0,0,,,,,,,,,0,,,64,65
83521,control_change,121,0,1,,,,,,,64,0,0,,,,
83522,control_change,1,0,1,,,,,,,64,127,0,,,,
83627,note_on,105,0,1,,,,,,,,,0,,,33,0
83639,note_on,0,0,0,,,,,,,,,0,,,69,0
83639,note_on,0,0,0,,,,,,,,,0,,,64,0
83639,note_on,119,0,0,,,,,,,,,0,,,60,0
83640,note_on,13,0,1,,,,,,,,,0,,,40,65
83753,note_on,113,0,1,,,,,,,,,0,,,40,0
83760,note_on,7,0,1,,,,,,,,,0,,,45,65
83760,note_on,121,0,0,,,,,,,,,0,,,64,65
83760,note_on,0,0,0,,,,,,,,,0,,,72,65
83760,note_on,0,0,0,,,,,,,,,0,,,69,65
83873,note_on,113,0,1,,,,,,,,,0,,,45,0
83879,note_on,0,0,0,,,,,,,,,0,,,72,0
83879,note_on,119,0,0,,,,,,,,,0,,,64,0
83879,note_on,0,0,0,,,,,,,,,0,,,69,0
83880,note_on,7,0,1,,,,,,,,,0,,,52,65
84000,note_on,121,0,0,,,,,,,,,0,,,69,65
84000,note_on,0,0,0,,,,,,,,,0,,,76,65
84000,note_on,0,0,0,,,,,,,,,0,,,72,65
84107,note_on,227,0,1,,,,,,,,,0,,,52,0
84119,note_on,0,0,0,,,,,,,,,0,,,72,0
84119,note_on,119,0,0,,,,,,,,,0,,,69,0
84119,note_on,0,0,0,,,,,,,,,0,,,76,0
84120,note_on,13,0,1,,,,,,,,,0,,,45,65
84233,note_on,113,0,1,,,,,,,,,0,,,45,0
84240,note_on,7,0,1,,,,,,,,,0,,,40,65
84240,note_on,121,0,0,,,,,,,,,0,,,69,65
84240,note_on,0,0,0,,,,,,,,,0,,,72,65
84240,note_on,0,0,0,,,,,,,,,0,,,77,65
84353,note_on,113,0,1,,,,,,,,,0,,,40,0
84359,note_on,0,0,0,,,,,,,,,0,,,72,0
84359,note_on,0,0,0,,,,,,,,,0,,,77,0
84359,note_on,119,0,0,,,,,,,,,0,,,69,0
84360,note_on,7,0,1,,,,,,,,,0,,,33,65
84480,note_on,121,0,0,,,,,,,,,0,,,72,65
84480,note_on,0,0,0,,,,,,,,,0,,,81,65
84480,note_on,0,0,0,,,,,,,,,0,,,76,65
84587,note_on,227,0,1,,,,,,,,,0,,,33,0
84599,note_on,0,0,0,,,,,,,,,0,,,81,0
84599,note_on,0,0,0,,,,,,,,,0,,,76,0
84599,note_on,119,0,0,,,,,,,,,0,,,72,0
84600,note_on,13,0,1,,,,,,,,,0,,,40,65
84713,note_on,113,0,1,,,,,,,,,0,,,40,0
84720,note_on,0,0,0,,,,,,,,,0,,,81,65
84720,note_on,0,0,0,,,,,,,,,0,,,84,65
84720,note_on,121,0,0,,,,,,,,,0,,,76,65
84720,note_on,7,0,1,,,,,,,,,0,,,45,65
84833,note_on,113,0,1,,,,,,,,,0,,,45,0
84839,note_on,0,0,0,,,,,,,,,0,,,81,0
84839,note_on,0,0,0,,,,,,,,,0,,,84,0
84839,note_on,119,0,0,,,,,,,,,0,,,76,0
84840,note_on,7,0,1,,,,,,,,,0,,,52,65
84960,note_on,121,0,0,,,,,,,,,0,,,81,65
84960,note_on,0,0,0,,,,,,,,,0,,,84,65
84960,note_on,0,0,0,,,,,,,,,0,,,88,65
85067,note_on,227,0,1,,,,,,,,,0,,,52,0
85079,note_on,0,0,0,,,,,,,,,0,,,84,0
85079,note_on,0,0,0,,,,,,,,,0,,,88,0
85079,note_on,119,0,0,,,,,,,,,0,,,81,0
85080,note_on,13,0,1,,,,,,,,,0,,,45,65
85193,note_on,113,0,1,,,,,,,,,0,,,45,0
85200,note_on,0,0,0,,,,,,,,,0,,,90,65
85200,note_on,0,0,0,,,,,,,,,0,,,84,65
85200,note_on,121,0,0,,,,,,,,,0,,,81,65
85200,note_on,7,0,1,,,,,,,,,0,,,40,65
85313,note_on,113,0,1,,,,,,,,,0,,,40,0
85319,note_on,0,0,0,,,,,,,,,0,,,90,0
85319,note_on,119,0,0,,,,,,,,,0,,,81,0
85319,note_on,0,0,0,,,,,,,,,0,,,84,0
85320,note_on,7,0,1,,,,,,,,,0,,,33,65
85433,note_on,113,0,1,,,,,,,,,0,,,33,0
85440,note_on,121,0,0,,,,,,,,,0,,,83,65
85440,note_on,7,0,1,,,,,,,,,0,,,40,65
85440,note_on,0,0,0,,,,,,,,,0,,,92,65
85440,note_on,0,0,0,,,,,,,,,0,,,88,65
85441,control_change,1,0,1,,,,,,,64,0,0,,,,
85442,control_change,1,0,1,,,,,,,64,127,0,,,,
85553,note_on,111,0,1,,,,,,,,,0,,,40,0
85560,note_on,7,0,1,,,,,,,,,0,,,47,65
85673,note_on,113,0,1,,,,,,,,,0,,,47,0
85680,note_on,7,0,1,,,,,,,,,0,,,52,65
85793,note_on,113,0,1,,,,,,,,,0,,,52,0
85800,note_on,7,0,1,,,,,,,,,0,,,59,65
86027,note_on,227,0,1,,,,,,,,,0,,,59,0
86040,note_on,13,0,1,,,,,,,,,0,,,52,65
86153,note_on,113,0,1,,,,,,,,,0,,,52,0
86160,note_on,7,0,1,,,,,,,,,0,,,47,65
86273,note_on,113,0,1,,,,,,,,,0,,,47,0
86280,note_on,7,0,1,,,,,,,,,0,,,40,65
86399,note_on,959,0,0,,,,,,,,,0,,,83,0
86399,note_on,0,0,0,,,,,,,,,0,,,92,0
86399,note_on,0,0,0,,,,,,,,,0,,,88,0
86400,note_on,0,0,0,,,,,,,,,0,,,95,65
86400,note_on,0,0,0,,,,,,,,,0,,,92,65
86400,note_on,1,0,0,,,,,,,,,0,,,83,65
86507,note_on,227,0,1,,,,,,,,,0,,,40,0
86519,note_on,0,0,0,,,,,,,,,0,,,92,0
86519,note_on,0,0,0,,,,,,,,,0,,,95,0
86519,note_on,119,0,0,,,,,,,,,0,,,83,0
86520,note_on,13,0,1,,,,,,,,,0,,,47,65
86633,note_on,113,0,1,,,,,,,,,0,,,47,0
86640,note_on,7,0,1,,,,,,,,,0,,,52,65
86753,note_on,113,0,1,,,,,,,,,0,,,52,0
86760,note_on,7,0,1,,,,,,,,,0,,,64,65
86987,note_on,227,0,1,,,,,,,,,0,,,64,0
87000,note_on,13,0,1,,,,,,,,,0,,,52,65
87113,note_on,113,0,1,,,,,,,,,0,,,52,0
87120,note_on,7,0,1,,,,,,,,,0,,,47,65
87233,note_on,113,0,1,,,,,,,,,0,,,47,0
87240,note_on,7,0,1,,,,,,,,,0,,,40,65
87361,control_change,121,0,1,,,,,,,64,0,0,,,,
87362,control_change,1,0,1,,,,,,,64,127,0,,,,
87467,note_on,105,0,1,,,,,,,,,0,,,40,0
87480,note_on,13,0,1,,,,,,,,,0,,,47,65
87593,note_on,113,0,1,,,,,,,,,0,,,47,0
87600,note_on,7,0,1,,,,,,,,,0,,,52,65
87713,note_on,113,0,1,,,,,,,,,0,,,52,0
87720,note_on,7,0,1,,,,,,,,,0,,,59,65
87947,note_on,227,0,1,,,,,,,,,0,,,59,0
87960,note_on,13,0,1,,,,,,,,,0,,,52,65
88073,note_on,113,0,1,,,,,,,,,0,,,52,0
88080,note_on,7,0,1,,,,,,,,,0,,,47,65
88193,note_on,113,0,1,,,,,,,,,0,,,47,0
88200,note_on,7,0,1,,,,,,,,,0,,,40,65
88427,note_on,227,0,1,,,,,,,,,0,,,40,0
88440,note_on,13,0,1,,,,,,,,,0,,,47,65
88553,note_on,113,0,1,,,,,,,,,0,,,47,0
88560,note_on,7,0,1,,,,,,,,,0,,,52,65
88673,note_on,113,0,1,,,,,,,,,0,,,52,0
88680,note_on,7,0,1,,,,,,,,,0,,,64,65
88907,note_on,227,0,1,,,,,,,,,0,,,64,0
88920,note_on,13,0,1,,,,,,,,,0,,,52,65
89033,note_on,113,0,1,,,,,,,,,0,,,52,0
89040,note_on,7,0,1,,,,,,,,,0,,,47,65
89153,note_on,113,0,1,,,,,,,,,0,,,47,0
89160,note_on,7,0,1,,,,,,,,,0,,,40,65
89273,note_on,113,0,1,,,,,,,,,0,,,40,0
89280,note_on,7,0,1,,,,,,,,,0,,,36,65
89281,control_change,1,0,1,,,,,,,64,0,0,,,,
89282,control_change,1,0,1,,,,,,,64,127,0,,,,
89393,note_on,111,0,1,,,,,,,,,0,,,36,0
89400,note_on,7,0,1,,,,,,,,,0,,,43,65
89513,note_on,113,0,1,,,,,,,,,0,,,43,0
89520,note_on,7,0,1,,,,,,,,,0,,,48,66
89520,note_on,0,0,0,,,,,,,,,0,,,72,66
89520,note_on,0,0,0,,,,,,,,,0,,,76,66
89520,note_on,3001,0,0,,,,,,,,,0,,,67,66
89633,note_on,113,0,1,,,,,,,,,0,,,48,0
89640,note_on,7,0,1,,,,,,,,,0,,,55,67
89747,note_on,0,0,0,,,,,,,,,0,,,72,0
89747,note_on,0,0,0,,,,,,,,,0,,,76,0
89747,note_on,227,0,0,,,,,,,,,0,,,67,0
89760,note_on,0,0,0,,,,,,,,,0,,,72,68
89760,note_on,0,0,0,,,,,,,,,0,,,67,68
89760,note_on,13,0,0,,,,,,,,,0,,,64,68
89867,note_on,227,0,1,,,,,,,,,0,,,55,0
89880,note_on,13,0,1,,,,,,,,,0,,,48,69
89987,note_on,227,0,0,,,,,,,,,0,,,64,0
89987,note_on,0,0,0,,,,,,,,,0,,,67,0
89987,note_on,0,0,0,,,,,,,,,0,,,72,0
89993,note_on,113,0,1,,,,,,,,,0,,,48,0
90000,note_on,13,0,0,,,,,,,,,0,,,67,70
90000,note_on,0,0,0,,,,,,,,,0,,,72,70
90000,note_on,7,0,1,,,,,,,,,0,,,43,70
90000,note_on,0,0,0,,,,,,,,,0,,,76,70
90113,note_on,113,0,1,,,,,,,,,0,,,43,0
90120,note_on,7,0,1,,,,,,,,,0,,,36,71
90227,note_on,0,0,0,,,,,,,,,0,,,76,0
90227,note_on,227,0,0,,,,,,,,,0,,,67,0
90227,note_on,0,0,0,,,,,,,,,0,,,72,0
90240,note_on,0,0,0,,,,,,,,,0,,,76,72
90240,note_on,0,0,0,,,,,,,,,0,,,79,72
90240,note_on,13,0,0,,,,,,,,,0,,,72,72
90347,note_on,227,0,1,,,,,,,,,0,,,36,0
90360,note_on,13,0,1,,,,,,,,,0,,,43,73
90467,note_on,227,0,0,,,,,,,,,0,,,72,0
90467,note_on,0,0,0,,,,,,,,,0,,,76,0
90467,note_on,0,0,0,,,,,,,,,0,,,79,0
90473,note_on,113,0,1,,,,,,,,,0,,,43,0
90480,note_on,7,0,1,,,,,,,,,0,,,48,74
90480,note_on,0,0,0,,,,,,,,,0,,,76,74
90480,note_on,13,0,0,,,,,,,,,0,,,72,74
90480,note_on,0,0,0,,,,,,,,,0,,,81,74
90593,note_on,113,0,1,,,,,,,,,0,,,48,0
90600,note_on,7,0,1,,,,,,,,,0,,,55,75
90707,note_on,0,0,0,,,,,,,,,0,,,76,0
90707,note_on,227,0,0,,,,,,,,,0,,,72,0
90707,note_on,0,0,0,,,,,,,,,0,,,81,0
90720,note_on,0,0,0,,,,,,,,,0,,,79,76
90720,note_on,13,0,0,,,,,,,,,0,,,72,76
90720,note_on,0,0,0,,,,,,,,,0,,,76,76
90827,note_on,227,0,1,,,,,,,,,0,,,55,0
90840,note_on,13,0,1,,,,,,,,,0,,,48,77
90947,note_on,0,0,0,,,,,,,,,0,,,76,0
90947,note_on,0,0,0,,,,,,,,,0,,,79,0
90947,note_on,227,0,0,,,,,,,,,0,,,72,0
90953,note_on,113,0,1,,,,,,,,,0,,,48,0
90960,note_on,7,0,1,,,,,,,,,0,,,43,78
90960,note_on,0,0,0,,,,,,,,,0,,,72,78
90960,note_on,13,0,0,,,,,,,,,0,,,67,78
90960,note_on,0,0,0,,,,,,,,,0,,,76,78
91073,note_on,113,0,1,,,,,,,,,0,,,43,0
91080,note_on,7,0,1,,,,,,,,,0,,,36,79
91187,note_on,0,0,0,,,,,,,,,0,,,72,0
91187,note_on,227,0,0,,,,,,,,,0,,,67,0
91187,note_on,0,0,0,,,,,,,,,0,,,76,0
91200,note_on,0,0,0,,,,,,,,,0,,,72,80
91200,note_on,0,0,0,,,,,,,,,0,,,67,80
91200,note_on,13,0,0,,,,,,,,,0,,,64,80
91201,control_change,121,0,1,,,,,,,64,0,0,,,,
91202,control_change,1,0,1,,,,,,,64,127,0,,,,
91307,note_on,105,0,1,,,,,,,,,0,,,36,0
91320,note_on,13,0,1,,,,,,,,,0,,,43,81
91427,note_on,0,0,0,,,,,,,,,0,,,67,0
91427,note_on,227,0,0,,,,,,,,,0,,,64,0
91427,note_on,0,0,0,,,,,,,,,0,,,72,0
91433,note_on,113,0,1,,,,,,,,,0,,,43,0
91440,note_on,0,0,0,,,,,,,,,0,,,72,82
91440,note_on,0,0,0,,,,,,,,,0,,,76,82
91440,note_on,7,0,1,,,,,,,,,0,,,48,82
91440,note_on,13,0,0,,,,,,,,,0,,,67,82
91553,note_on,113,0,1,,,,,,,,,0,,,48,0
91560,note_on,7,0,1,,,,,,,,,0,,,55,83
91667,note_on,0,0,0,,,,,,,,,0,,,76,0
91667,note_on,227,0,0,,,,,,,,,0,,,67,0
91667,note_on,0,0,0,,,,,,,,,0,,,72,0
91680,note_on,0,0,0,,,,,,,,,0,,,79,84
91680,note_on,0,0,0,,,,,,,,,0,,,76,84
91680,note_on,13,0,0,,,,,,,,,0,,,72,84
91787,note_on,227,0,1,,,,,,,,,0,,,55,0
91800,note_on,13,0,1,,,,,,,,,0,,,48,85
91907,note_on,0,0,0,,,,,,,,,0,,,76,0
91907,note_on,0,0,0,,,,,,,,,0,,,79,0
91907,note_on,227,0,0,,,,,,,,,0,,,72,0
91913,note_on,113,0,1,,,,,,,,,0,,,48,0
91920,note_on,0,0,0,,,,,,,,,0,,,76,86
91920,note_on,0,0,0,,,,,,,,,0,,,81,86
91920,note_on,7,0,1,,,,,,,,,0,,,43,86
91920,note_on,13,0,0,,,,,,,,,0,,,72,86
92033,note_on,113,0,1,,,,,,,,,0,,,43,0
92040,note_on,7,0,1,,,,,,,,,0,,,36,87
92147,note_on,227,0,0,,,,,,,,,0,,,72,0
92147,note_on,0,0,0,,,,,,,,,0,,,76,0
92147,note_on,0,0,0,,,,,,,,,0,,,81,0
92160,note_on,0,0,0,,,,,,,,,0,,,79,88
92160,note_on,13,0,0,,,,,,,,,0,,,76,88
92160,note_on,0,0,0,,,,,,,,,0,,,84,88
92267,note_on,227,0,1,,,,,,,,,0,,,36,0
92280,note_on,13,0,1,,,,,,,,,0,,,43,89
92387,note_on,227,0,0,,,,,,,,,0,,,76,0
92387,note_on,0,0,0,,,,,,,,,0,,,79,0
92387,note_on,0,0,0,,,,,,,,,0,,,84,0
92393,note_on,113,0,1,,,,,,,,,0,,,43,0
92400,note_on,7,0,1,,,,,,,,,0,,,48,90
92400,note_on,0,0,0,,,,,,,,,0,,,84,90
92400,note_on,0,0,0,,,,,,,,,0,,,88,90
92400,note_on,13,0,0,,,,,,,,,0,,,79,90
92513,note_on,113,0,1,,,,,,,,,0,,,48,0
92520,note_on,7,0,1,,,,,,,,,0,,,55,91
92627,note_on,0,0,0,,,,,,,,,0,,,84,0
92627,note_on,0,0,0,,,,,,,,,0,,,88,0
92627,note_on,227,0,0,,,,,,,,,0,,,79,0
92640,note_on,0,0,0,,,,,,,,,0,,,91,92
92640,note_on,13,0,0,,,,,,,,,0,,,84,92
92640,note_on,0,0,0,,,,,,,,,0,,,88,92
92747,note_on,227,0,1,,,,,,,,,0,,,55,0
92760,note_on,13,0,1,,,,,,,,,0,,,48,93
92867,note_on,0,0,0,,,,,,,,,0,,,88,0
92867,note_on,0,0,0,,,,,,,,,0,,,91,0
92867,note_on,227,0,0,,,,,,,,,0,,,84,0
92873,note_on,113,0,1,,,,,,,,,0,,,48,0
92880,note_on,13,0,0,,,,,,,,,0,,,84,94
92880,note_on,7,0,1,,,,,,,,,0,,,43,94
92880,note_on,0,0,0,,,,,,,,,0,,,88,94
92880,note_on,0,0,0,,,,,,,,,0,,,93,94
92993,note_on,113,0,1,,,,,,,,,0,,,43,0
93000,note_on,7,0,1,,,,,,,,,0,,,36,95
93107,note_on,0,0,0,,,,,,,,,0,,,88,0
93107,note_on,0,0,0,,,,,,,,,0,,,93,0
93107,note_on,227,0,0,,,,,,,,,0,,,84,0
93113,note_on,113,0,1,,,,,,,,,0,,,36,0
93120,note_on,13,0,0,,,,,,,,,0,,,83,115
93120,note_on,0,0,0,,,,,,,,,0,,,86,115
93120,note_on,0,0,0,,,,,,,,,0,,,91,115
93120,note_on,7,0,1,,,,,,,,,0,,,43,96
93120,note_on,0,0,0,,,,,,,,,0,,,95,115
93121,control_change,1,0,1,,,,,,,64,0,0,,,,
93122,control_change,1,0,1,,,,,,,64,127,0,,,,
93233,note_on,111,0,1,,,,,,,,,0,,,43,0
93240,note_on,7,0,1,,,,,,,,,0,,,50,96
93353,note_on,113,0,1,,,,,,,,,0,,,50,0
93360,note_on,7,0,1,,,,,,,,,0,,,55,96
93473,note_on,113,0,1,,,,,,,,,0,,,55,0
93480,note_on,7,0,1,,,,,,,,,0,,,59,96
93707,note_on,227,0,1,,,,,,,,,0,,,59,0
93720,note_on,13,0,1,,,,,,,,,0,,,55,96
93762,note_on,642,0,0,,,,,,,,,0,,,83,0
93762,note_on,0,0,0,,,,,,,,,0,,,86,0
93762,note_on,0,0,0,,,,,,,,,0,,,95,0
93762,note_on,0,0,0,,,,,,,,,0,,,91,0
93833,note_on,113,0,1,,,,,,,,,0,,,55,0
93840,note_on,7,0,1,,,,,,,,,0,,,50,96
93953,note_on,113,0,1,,,,,,,,,0,,,50,0
93960,note_on,7,0,1,,,,,,,,,0,,,43,96
94073,note_on,113,0,1,,,,,,,,,0,,,43,0
94080,note_on,318,0,0,,,,,,,,,0,,,83,115
94080,note_on,0,0,0,,,,,,,,,0,,,95,115
94080,note_on,7,0,1,,,,,,,,,0,,,40,96
94080,note_on,0,0,0,,,,,,,,,0,,,91,115
94080,note_on,0,0,0,,,,,,,,,0,,,88,115
94081,control_change,1,0,1,,,,,,,64,0,0,,,,
94082,control_change,1,0,1,,,,,,,64,127,0,,,,
94193,note_on,111,0,1,,,,,,,,,0,,,40,0
94200,note_on,7,0,1,,,,,,,,,0,,,47,96
94313,note_on,113,0,1,,,,,,,,,0,,,47,0
94320,note_on,7,0,1,,,,,,,,,0,,,52,96
94433,note_on,113,0,1,,,,,,,,,0,,,52,0
94440,note_on,7,0,1,,,,,,,,,0,,,59,96
94641,note_on,0,0,0,,,,,,,,,0,,,88,0
94641,note_on,561,0,0,,,,,,,,,0,,,83,0
94641,note_on,0,0,0,,,,,,,,,0,,,91,0
94641,note_on,0,0,0,,,,,,,,,0,,,95,0
94667,note_on,227,0,1,,,,,,,,,0,,,59,0
94680,note_on,13,0,1,,,,,,,,,0,,,52,96
94793,note_on,113,0,1,,,,,,,,,0,,,52,0
94800,note_on,7,0,1,,,,,,,,,0,,,47,96
94913,note_on,113,0,1,,,,,,,,,0,,,47,0
94920,note_on,279,0,0,,,,,,,,,0,,,85,96
94920,note_on,0,0,0,,,,,,,,,0,,,97,96
94920,note_on,7,0,1,,,,,,,,,0,,,40,96
95033,note_on,0,0,0,,,,,,,,,0,,,97,0
95033,note_on,113,0,0,,,,,,,,,0,,,85,0
95033,note_on,113,0,1,,,,,,,,,0,,,40,0
95040,note_on,0,0,0,,,,,,,,,0,,,90,127
95040,note_on,0,0,0,,,,,,,,,0,,,95,127
95040,note_on,0,0,0,,,,,,,,,0,,,99,127
95040,note_on,7,0,1,,,,,,,,,0,,,35,112
95040,note_on,7,0,0,,,,,,,,,0,,,87,127
95041,control_change,1,0,1,,,,,,,64,0,0,,,,
95042,control_change,1,0,1,,,,,,,64,127,0,,,,
95153,note_on,111,0,1,,,,,,,,,0,,,35,0
95160,note_on,7,0,1,,,,,,,,,0,,,42,112
95273,note_on,113,0,1,,,,,,,,,0,,,42,0
95280,note_on,7,0,1,,,,,,,,,0,,,47,112
95393,note_on,113,0,1,,,,,,,,,0,,,47,0
95400,note_on,7,0,1,,,,,,,,,0,,,54,112
95513,note_on,113,0,1,,,,,,,,,0,,,54,0
95520,note_on,0,0,1,,,,,,,,,0,,,66,112
95520,note_on,7,0,1,,,,,,,,,0,,,59,112
95633,note_on,113,0,1,,,,,,,,,0,,,59,0
95633,note_on,0,0,1,,,,,,,,,0,,,66,0
95640,note_on,7,0,1,,,,,,,,,0,,,54,112
95753,note_on,113,0,1,,,,,,,,,0,,,54,0
95760,note_on,7,0,1,,,,,,,,,0,,,47,112
95873,note_on,113,0,1,,,,,,,,,0,,,47,0
95880,note_on,7,0,1,,,,,,,,,0,,,42,112
95993,note_on,113,0,1,,,,,,,,,0,,,42,0
96000,note_on,7,0,1,,,,,,,,,0,,,35,112
96113,note_on,113,0,1,,,,,,,,,0,,,35,0
96120,note_on,7,0,1,,,,,,,,,0,,,42,112
96233,note_on,113,0,1,,,,,,,,,0,,,42,0
96240,note_on,7,0,1,,,,,,,,,0,,,47,112
96325,note_on,0,0,0,,,,,,,,,0,,,90,0
96325,note_on,1285,0,0,,,,,,,,,0,,,87,0
96325,note_on,0,0,0,,,,,,,,,0,,,95,0
96325,note_on,0,0,0,,,,,,,,,0,,,99,0
96353,note_on,113,0,1,,,,,,,,,0,,,47,0
96360,note_on,7,0,1,,,,,,,,,0,,,54,112
96473,note_on,113,0,1,,,,,,,,,0,,,54,0
96480,note_on,7,0,1,,,,,,,,,0,,,59,112
96480,note_on,0,0,1,,,,,,,,,0,,,66,112
96593,note_on,113,0,1,,,,,,,,,0,,,59,0
96593,note_on,0,0,1,,,,,,,,,0,,,66,0
96600,note_on,7,0,1,,,,,,,,,0,,,54,112
96713,note_on,113,0,1,,,,,,,,,0,,,54,0
96720,note_on,7,0,1,,,,,,,,,0,,,47,112
96833,note_on,113,0,1,,,,,,,,,0,,,47,0
96840,note_on,7,0,1,,,,,,,,,0,,,42,112
96953,note_on,113,0,1,,,,,,,,,0,,,42,0
96960,note_on,7,0,1,,,,,,,,,0,,,35,112
96961,control_change,1,0,1,,,,,,,64,0,0,,,,
96962,control_change,1,0,1,,,,,,,64,127,0,,,,
97073,note_on,111,0,1,,,,,,,,,0,,,35,0
97080,note_on,7,0,1,,,,,,,,,0,,,42,112
97193,note_on,113,0,1,,,,,,,,,0,,,42,0
97200,note_on,875,0,0,,,,,,,,,0,,,87,112
97200,note_on,0,0,0,,,,,,,,,0,,,94,112
97200,note_on,0,0,0,,,,,,,,,0,,,99,112
97200,note_on,0,0,0,,,,,,,,,0,,,90,112
97200,note_on,7,0,1,,,,,,,,,0,,,47,112
97313,note_on,113,0,1,,,,,,,,,0,,,47,0
97320,note_on,7,0,1,,,,,,,,,0,,,54,112
97427,note_on,0,0,0,,,,,,,,,0,,,90,0
97427,note_on,227,0,0,,,,,,,,,0,,,87,0
97427,note_on,0,0,0,,,,,,,,,0,,,94,0
97427,note_on,0,0,0,,,,,,,,,0,,,99,0
97433,note_on,113,0,1,,,,,,,,,0,,,54,0
97440,note_on,13,0,0,,,,,,,,,0,,,85,112
97440,note_on,0,0,1,,,,,,,,,0,,,66,112
97440,note_on,0,0,0,,,,,,,,,0,,,88,112
97440,note_on,0,0,0,,,,,,,,,0,,,97,112
97440,note_on,7,0,1,,,,,,,,,0,,,58,112
97440,note_on,0,0,0,,,,,,,,,0,,,94,112
97553,note_on,113,0,1,,,,,,,,,0,,,58,0
97553,note_on,0,0,1,,,,,,,,,0,,,66,0
97560,note_on,7,0,1,,,,,,,,,0,,,54,112
97667,note_on,0,0,0,,,,,,,,,0,,,88,0
97667,note_on,0,0,0,,,,,,,,,0,,,94,0
97667,note_on,0,0,0,,,,,,,,,0,,,97,0
97667,note_on,227,0,0,,,,,,,,,0,,,85,0
97673,note_on,113,0,1,,,,,,,,,0,,,54,0
97680,note_on,0,0,0,,,,,,,,,0,,,94,112
97680,note_on,0,0,0,,,,,,,,,0,,,99,112
97680,note_on,13,0,0,,,,,,,,,0,,,87,112
97680,note_on,0,0,0,,,,,,,,,0,,,90,112
97680,note_on,7,0,1,,,,,,,,,0,,,47,112
97793,note_on,113,0,1,,,,,,,,,0,,,47,0
97800,note_on,7,0,1,,,,,,,,,0,,,42,112
97907,note_on,0,0,0,,,,,,,,,0,,,94,0
97907,note_on,0,0,0,,,,,,,,,0,,,90,0
97907,note_on,0,0,0,,,,,,,,,0,,,99,0
97907,note_on,227,0,0,,,,,,,,,0,,,87,0
97913,note_on,113,0,1,,,,,,,,,0,,,42,0
97920,note_on,13,0,0,,,,,,,,,0,,,88,112
97920,note_on,7,0,1,,,,,,,,,0,,,35,112
97920,note_on,0,0,0,,,,,,,,,0,,,94,112
97920,note_on,0,0,0,,,,,,,,,0,,,91,112
97920,note_on,0,0,0,,,,,,,,,0,,,100,112
98033,note_on,113,0,1,,,,,,,,,0,,,35,0
98040,note_on,7,0,1,,,,,,,,,0,,,42,112
98147,note_on,0,0,0,,,,,,,,,0,,,91,0
98147,note_on,0,0,0,,,,,,,,,0,,,100,0
98147,note_on,227,0,0,,,,,,,,,0,,,88,0
98147,note_on,0,0,0,,,,,,,,,0,,,94,0
98153,note_on,113,0,1,,,,,,,,,0,,,42,0
98160,note_on,0,0,0,,,,,,,,,0,,,99,112
98160,note_on,13,0,0,,,,,,,,,0,,,87,112
98160,note_on,7,0,1,,,,,,,,,0,,,47,112
98160,note_on,0,0,0,,,,,,,,,0,,,90,112
98160,note_on,0,0,0,,,,,,,,,0,,,94,112
98273,note_on,113,0,1,,,,,,,,,0,,,47,0
98280,note_on,7,0,1,,,,,,,,,0,,,54,112
98387,note_on,0,0,0,,,,,,,,,0,,,99,0
98387,note_on,0,0,0,,,,,,,,,0,,,90,0
98387,note_on,227,0,0,,,,,,,,,0,,,87,0
98387,note_on,0,0,0,,,,,,,,,0,,,94,0
98393,note_on,113,0,1,,,,,,,,,0,,,54,0
98400,note_on,7,0,1,,,,,,,,,0,,,58,112
98400,note_on,13,0,0,,,,,,,,,0,,,85,112
98400,note_on,0,0,0,,,,,,,,,0,,,94,112
98400,note_on,0,0,0,,,,,,,,,0,,,97,112
98400,note_on,0,0,1,,,,,,,,,0,,,66,112
98400,note_on,0,0,0,,,,,,,,,0,,,88,112
98513,note_on,0,0,1,,,,,,,,,0,,,66,0
98513,note_on,113,0,1,,,,,,,,,0,,,58,0
98520,note_on,7,0,1,,,,,,,,,0,,,54,112
98627,note_on,227,0,0,,,,,,,,,0,,,85,0
98627,note_on,0,0,0,,,,,,,,,0,,,88,0
98627,note_on,0,0,0,,,,,,,,,0,,,97,0
98627,note_on,0,0,0,,,,,,,,,0,,,94,0
98633,note_on,113,0,1,,,,,,,,,0,,,54,0
98640,note_on,13,0,0,,,,,,,,,0,,,87,112
98640,note_on,0,0,0,,,,,,,,,0,,,94,112
98640,note_on,0,0,0,,,,,,,,,0,,,90,112
98640,note_on,0,0,0,,,,,,,,,0,,,99,112
98640,note_on,7,0,1,,,,,,,,,0,,,47,112
98753,note_on,113,0,1,,,,,,,,,0,,,47,0
98760,note_on,7,0,1,,,,,,,,,0,,,42,112
98867,note_on,0,0,0,,,,,,,,,0,,,90,0
98867,note_on,227,0,0,,,,,,,,,0,,,87,0
98867,note_on,0,0,0,,,,,,,,,0,,,94,0
98867,note_on,0,0,0,,,,,,,,,0,,,99,0
98873,note_on,113,0,1,,,,,,,,,0,,,42,0
98880,note_on,0,0,0,,,,,,,,,0,,,95,112
98880,note_on,0,0,0,,,,,,,,,0,,,90,112
98880,note_on,0,0,0,,,,,,,,,0,,,87,112
98880,note_on,7,0,1,,,,,,,,,0,,,35,112
98880,note_on,13,0,0,,,,,,,,,0,,,83,112
98881,control_change,1,0,1,,,,,,,64,0,0,,,,
98882,control_change,1,0,1,,,,,,,64,127,0,,,,
98993,note_on,111,0,1,,,,,,,,,0,,,35,0
99000,note_on,7,0,1,,,,,,,,,0,,,42,112
99107,note_on,0,0,0,,,,,,,,,0,,,95,0
99107,note_on,0,0,0,,,,,,,,,0,,,87,0
99107,note_on,0,0,0,,,,,,,,,0,,,90,0
99107,note_on,227,0,0,,,,,,,,,0,,,83,0
99113,note_on,113,0,1,,,,,,,,,0,,,42,0
99120,note_on,13,0,0,,,,,,,,,0,,,83,112
99120,note_on,7,0,1,,,,,,,,,0,,,47,112
99120,note_on,0,0,0,,,,,,,,,0,,,91,112
99120,note_on,0,0,0,,,,,,,,,0,,,87,112
99233,note_on,113,0,1,,,,,,,,,0,,,47,0
99240,note_on,7,0,1,,,,,,,,,0,,,54,112
99347,note_on,227,0,0,,,,,,,,,0,,,83,0
99347,note_on,0,0,0,,,,,,,,,0,,,87,0
99347,note_on,0,0,0,,,,,,,,,0,,,91,0
99353,note_on,113,0,1,,,,,,,,,0,,,54,0
99360,note_on,13,0,0,,,,,,,,,0,,,83,112
99360,note_on,0,0,1,,,,,,,,,0,,,66,112
99360,note_on,0,0,0,,,,,,,,,0,,,90,112
99360,note_on,0,0,0,,,,,,,,,0,,,87,112
99360,note_on,7,0,1,,,,,,,,,0,,,59,112
99473,note_on,0,0,1,,,,,,,,,0,,,66,0
99473,note_on,113,0,1,,,,,,,,,0,,,59,0
99480,note_on,7,0,1,,,,,,,,,0,,,54,112
99587,note_on,0,0,0,,,,,,,,,0,,,90,0
99587,note_on,0,0,0,,,,,,,,,0,,,87,0
99587,note_on,227,0,0,,,,,,,,,0,,,83,0
99593,note_on,113,0,1,,,,,,,,,0,,,54,0
99600,note_on,7,0,1,,,,,,,,,0,,,47,112
99600,note_on,0,0,0,,,,,,,,,0,,,83,112
99600,note_on,0,0,0,,,,,,,,,0,,,87,112
99600,note_on,13,0,0,,,,,,,,,0,,,78,112
99713,note_on,113,0,1,,,,,,,,,0,,,47,0
99720,note_on,7,0,1,,,,,,,,,0,,,42,112
99827,note_on,0,0,0,,,,,,,,,0,,,83,0
99827,note_on,0,0,0,,,,,,,,,0,,,87,0
99827,note_on,227,0,0,,,,,,,,,0,,,78,0
99833,note_on,113,0,1,,,,,,,,,0,,,42,0
99840,note_on,13,0,0,,,,,,,,,0,,,75,112
99840,note_on,0,0,0,,,,,,,,,0,,,83,112
99840,note_on,0,0,0,,,,,,,,,0,,,79,112
99840,note_on,7,0,1,,,,,,,,,0,,,35,112
99953,note_on,113,0,1,,,,,,,,,0,,,35,0
99960,note_on,7,0,1,,,,,,,,,0,,,42,109
100073,note_on,113,0,1,,,,,,,,,0,,,42,0
100080,note_on,7,0,1,,,,,,,,,0,,,47,105
100193,note_on,113,0,1,,,,,,,,,0,,,47,0
100200,note_on,7,0,1,,,,,,,,,0,,,54,101
100313,note_on,113,0,1,,,,,,,,,0,,,54,0
100319,note_on,479,0,0,,,,,,,,,0,,,75,0
100319,note_on,0,0,0,,,,,,,,,0,,,79,0
100319,note_on,0,0,0,,,,,,,,,0,,,83,0
100320,note_on,7,0,1,,,,,,,,,0,,,59,97
100320,note_on,0,0,0,,,,,,,,,0,,,75,97
100320,note_on,0,0,1,,,,,,,,,0,,,66,97
100320,note_on,0,0,0,,,,,,,,,0,,,78,97
100320,note_on,1,0,0,,,,,,,,,0,,,71,97
100433,note_on,113,0,1,,,,,,,,,0,,,59,0
100433,note_on,0,0,1,,,,,,,,,0,,,66,0
100440,note_on,7,0,1,,,,,,,,,0,,,54,97
100547,note_on,227,0,0,,,,,,,,,0,,,71,0
100547,note_on,0,0,0,,,,,,,,,0,,,78,0
100547,note_on,0,0,0,,,,,,,,,0,,,75,0
100553,note_on,113,0,1,,,,,,,,,0,,,54,0
100560,note_on,7,0,1,,,,,,,,,0,,,47,97
100673,note_on,113,0,1,,,,,,,,,0,,,47,0
100680,note_on,7,0,1,,,,,,,,,0,,,42,97
100793,note_on,113,0,1,,,,,,,,,0,,,42,0
100800,note_on,7,0,1,,,,,,,,,0,,,35,97
100801,control_change,1,0,1,,,,,,,64,0,0,,,,
100802,control_change,1,0,1,,,,,,,64,127,0,,,,
100913,note_on,111,0,1,,,,,,,,,0,,,35,0
100920,note_on,7,0,1,,,,,,,,,0,,,42,97
101033,note_on,113,0,1,,,,,,,,,0,,,42,0
101040,note_on,0,0,0,,,,,,,,,0,,,82,97
101040,note_on,0,0,0,,,,,,,,,0,,,78,97
101040,note_on,0,0,0,,,,,,,,,0,,,87,97
101040,note_on,7,0,1,,,,,,,,,0,,,47,97
101040,note_on,493,0,0,,,,,,,,,0,,,75,97
101153,note_on,113,0,1,,,,,,,,,0,,,47,0
101160,note_on,7,0,1,,,,,,,,,0,,,54,97
101267,note_on,227,0,0,,,,,,,,,0,,,75,0
101267,note_on,0,0,0,,,,,,,,,0,,,78,0
101267,note_on,0,0,0,,,,,,,,,0,,,82,0
101267,note_on,0,0,0,,,,,,,,,0,,,87,0
101273,note_on,113,0,1,,,,,,,,,0,,,54,0
101280,note_on,0,0,1,,,,,,,,,0,,,66,97
101280,note_on,0,0,0,,,,,,,,,0,,,85,97
101280,note_on,0,0,0,,,,,,,,,0,,,82,97
101280,note_on,13,0,0,,,,,,,,,0,,,73,97
101280,note_on,0,0,0,,,,,,,,,0,,,76,97
101280,note_on,7,0,1,,,,,,,,,0,,,58,97
101393,note_on,0,0,1,,,,,,,,,0,,,66,0
101393,note_on,113,0,1,,,,,,,,,0,,,58,0
101400,note_on,7,0,1,,,,,,,,,0,,,54,97
101507,note_on,0,0,0,,,,,,,,,0,,,82,0
101507,note_on,0,0,0,,,,,,,,,0,,,85,0
101507,note_on,227,0,0,,,,,,,,,0,,,73,0
101507,note_on,0,0,0,,,,,,,,,0,,,76,0
101513,note_on,113,0,1,,,,,,,,,0,,,54,0
101520,note_on,13,0,0,,,,,,,,,0,,,75,97
101520,note_on,0,0,0,,,,,,,,,0,,,78,97
101520,note_on,0,0,0,,,,,,,,,0,,,87,97
101520,note_on,0,0,0,,,,,,,,,0,,,82,97
101520,note_on,7,0,1,,,,,,,,,0,,,47,97
101633,note_on,113,0,1,,,,,,,,,0,,,47,0
101640,note_on,7,0,1,,,,,,,,,0,,,42,97
101747,note_on,0,0,0,,,,,,,,,0,,,82,0
101747,note_on,0,0,0,,,,,,,,,0,,,78,0
101747,note_on,227,0,0,,,,,,,,,0,,,75,0
101747,note_on,0,0,0,,,,,,,,,0,,,87,0
101753,note_on,113,0,1,,,,,,,,,0,,,42,0
101760,note_on,7,0,1,,,,,,,,,0,,,35,97
101760,note_on,0,0,0,,,,,,,,,0,,,88,97
101760,note_on,0,0,0,,,,,,,,,0,,,82,97
101760,note_on,0,0,0,,,,,,,,,0,,,79,97
101760,note_on,13,0,0,,,,,,,,,0,,,76,97
101873,note_on,113,0,1,,,,,,,,,0,,,35,0
101880,note_on,7,0,1,,,,,,,,,0,,,42,97
101987,note_on,0,0,0,,,,,,,,,0,,,79,0
101987,note_on,0,0,0,,,,,,,,,0,,,82,0
101987,note_on,0,0,0,,,,,,,,,0,,,88,0
101987,note_on,227,0,0,,,,,,,,,0,,,76,0
101993,note_on,113,0,1,,,,,,,,,0,,,42,0
102000,note_on,7,0,1,,,,,,,,,0,,,47,97
102000,note_on,0,0,0,,,,,,,,,0,,,87,97
102000,note_on,13,0,0,,,,,,,,,0,,,75,97
102000,note_on,0,0,0,,,,,,,,,0,,,78,97
102000,note_on,0,0,0,,,,,,,,,0,,,82,97
102113,note_on,113,0,1,,,,,,,,,0,,,47,0
102120,note_on,7,0,1,,,,,,,,,0,,,54,97
102227,note_on,0,0,0,,,,,,,,,0,,,87,0
102227,note_on,0,0,0,,,,,,,,,0,,,78,0
102227,note_on,227,0,0,,,,,,,,,0,,,75,0
102227,note_on,0,0,0,,,,,,,,,0,,,82,0
102233,note_on,113,0,1,,,,,,,,,0,,,54,0
102240,note_on,0,0,0,,,,,,,,,0,,,76,97
102240,note_on,7,0,1,,,,,,,,,0,,,58,97
102240,note_on,0,0,0,,,,,,,,,0,,,85,97
102240,note_on,0,0,1,,,,,,,,,0,,,66,97
102240,note_on,0,0,0,,,,,,,,,0,,,82,97
102240,note_on,13,0,0,,,,,,,,,0,,,73,97
102353,note_on,113,0,1,,,,,,,,,0,,,58,0
102353,note_on,0,0,1,,,,,,,,,0,,,66,0
102360,note_on,7,0,1,,,,,,,,,0,,,54,97
102467,note_on,0,0,0,,,,,,,,,0,,,76,0
102467,note_on,0,0,0,,,,,,,,,0,,,82,0
102467,note_on,227,0,0,,,,,,,,,0,,,73,0
102467,note_on,0,0,0,,,,,,,,,0,,,85,0
102473,note_on,113,0,1,,,,,,,,,0,,,54,0
102480,note_on,7,0,1,,,,,,,,,0,,,47,97
102480,note_on,13,0,0,,,,,,,,,0,,,75,97
102480,note_on,0,0,0,,,,,,,,,0,,,87,97
102480,note_on,0,0,0,,,,,,,,,0,,,82,97
102480,note_on,0,0,0,,,,,,,,,0,,,78,97
102593,note_on,113,0,1,,,,,,,,,0,,,47,0
102600,note_on,7,0,1,,,,,,,,,0,,,42,97
102707,note_on,0,0,0,,,,,,,,,0,,,78,0
102707,note_on,227,0,0,,,,,,,,,0,,,75,0
102707,note_on,0,0,0,,,,,,,,,0,,,82,0
102707,note_on,0,0,0,,,,,,,,,0,,,87,0
102713,note_on,113,0,1,,,,,,,,,0,,,42,0
102720,note_on,7,0,1,,,,,,,,,0,,,35,97
102720,note_on,0,0,0,,,,,,,,,0,,,78,97
102720,note_on,0,0,0,,,,,,,,,0,,,75,97
102720,note_on,13,0,0,,,,,,,,,0,,,71,97
102720,note_on,0,0,0,,,,,,,,,0,,,83,97
102721,control_change,1,0,1,,,,,,,64,0,0,,,,
102722,control_change,1,0,1,,,,,,,64,127,0,,,,
102833,note_on,111,0,1,,,,,,,,,0,,,35,0
102840,note_on,7,0,1,,,,,,,,,0,,,42,97
102947,note_on,0,0,0,,,,,,,,,0,,,78,0
102947,note_on,0,0,0,,,,,,,,,0,,,83,0
102947,note_on,0,0,0,,,,,,,,,0,,,75,0
102947,note_on,227,0,0,,,,,,,,,0,,,71,0
102953,note_on,113,0,1,,,,,,,,,0,,,42,0
102960,note_on,0,0,0,,,,,,,,,0,,,75,97
102960,note_on,0,0,0,,,,,,,,,0,,,79,97
102960,note_on,7,0,1,,,,,,,,,0,,,47,97
102960,note_on,13,0,0,,,,,,,,,0,,,71,97
103073,note_on,113,0,1,,,,,,,,,0,,,47,0
103080,note_on,7,0,1,,,,,,,,,0,,,54,97
103187,note_on,0,0,0,,,,,,,,,0,,,75,0
103187,note_on,227,0,0,,,,,,,,,0,,,71,0
103187,note_on,0,0,0,,,,,,,,,0,,,79,0
103193,note_on,113,0,1,,,,,,,,,0,,,54,0
103200,note_on,7,0,1,,,,,,,,,0,,,59,97
103200,note_on,0,0,1,,,,,,,,,0,,,66,97
103200,note_on,0,0,0,,,,,,,,,0,,,75,97
103200,note_on,13,0,0,,,,,,,,,0,,,71,97
103200,note_on,0,0,0,,,,,,,,,0,,,78,97
103313,note_on,0,0,1,,,,,,,,,0,,,66,0
103313,note_on,113,0,1,,,,,,,,,0,,,59,0
103320,note_on,7,0,1,,,,,,,,,0,,,54,97
103427,note_on,0,0,0,,,,,,,,,0,,,75,0
103427,note_on,0,0,0,,,,,,,,,0,,,78,0
103427,note_on,227,0,0,,,,,,,,,0,,,71,0
103433,note_on,113,0,1,,,,,,,,,0,,,54,0
103440,note_on,0,0,0,,,,,,,,,0,,,71,97
103440,note_on,0,0,0,,,,,,,,,0,,,75,97
103440,note_on,13,0,0,,,,,,,,,0,,,66,97
103440,note_on,7,0,1,,,,,,,,,0,,,47,97
103553,note_on,113,0,1,,,,,,,,,0,,,47,0
103560,note_on,7,0,1,,,,,,,,,0,,,42,97
103667,note_on,227,0,0,,,,,,,,,0,,,66,0
103667,note_on,0,0,0,,,,,,,,,0,,,75,0
103667,note_on,0,0,0,,,,,,,,,0,,,71,0
103673,note_on,113,0,1,,,,,,,,,0,,,42,0
103680,note_on,0,0,0,,,,,,,,,0,,,71,97
103680,note_on,0,0,0,,,,,,,,,0,,,74,97
103680,note_on,13,0,0,,,,,,,,,0,,,67,97
103680,note_on,7,0,1,,,,,,,,,0,,,35,97
103681,control_change,1,0,1,,,,,,,64,0,0,,,,
103682,control_change,1,0,1,,,,,,,64,127,0,,,,
103793,note_on,111,0,1,,,,,,,,,0,,,35,0
103800,note_on,7,0,1,,,,,,,,,0,,,42,96
103907,note_on,227,0,0,,,,,,,,,0,,,67,0
103907,note_on,0,0,0,,,,,,,,,0,,,71,0
103907,note_on,0,0,0,,,,,,,,,0,,,74,0
103913,note_on,113,0,1,,,,,,,,,0,,,42,0
103920,note_on,0,0,0,,,,,,,,,0,,,71,94
103920,note_on,13,0,0,,,,,,,,,0,,,64,94
103920,note_on,7,0,1,,,,,,,,,0,,,47,94
103920,note_on,0,0,0,,,,,,,,,0,,,67,94
104033,note_on,113,0,1,,,,,,,,,0,,,47,0
104040,note_on,7,0,1,,,,,,,,,0,,,54,92
104147,note_on,227,0,0,,,,,,,,,0,,,64,0
104147,note_on,0,0,0,,,,,,,,,0,,,67,0
104147,note_on,0,0,0,,,,,,,,,0,,,71,0
104160,note_on,13,0,0,,,,,,,,,0,,,62,90
104160,note_on,0,0,0,,,,,,,,,0,,,71,90
104160,note_on,0,0,0,,,,,,,,,0,,,67,90
104267,note_on,227,0,1,,,,,,,,,0,,,54,0
104280,note_on,13,0,1,,,,,,,,,0,,,47,88
104387,note_on,227,0,0,,,,,,,,,0,,,62,0
104387,note_on,0,0,0,,,,,,,,,0,,,67,0
104387,note_on,0,0,0,,,,,,,,,0,,,71,0
104393,note_on,113,0,1,,,,,,,,,0,,,47,0
104400,note_on,13,0,0,,,,,,,,,0,,,59,86
104400,note_on,7,0,1,,,,,,,,,0,,,42,86
104400,note_on,0,0,0,,,,,,,,,0,,,62,86
104400,note_on,0,0,0,,,,,,,,,0,,,67,86
104513,note_on,113,0,1,,,,,,,,,0,,,42,0
104520,note_on,7,0,1,,,,,,,,,0,,,35,84
104627,note_on,227,0,0,,,,,,,,,0,,,59,0
104627,note_on,0,0,0,,,,,,,,,0,,,67,0
104627,note_on,0,0,0,,,,,,,,,0,,,62,0
104640,note_on,0,0,0,,,,,,,,,0,,,71,82
104640,note_on,0,0,0,,,,,,,,,0,,,66,82
104640,note_on,13,0,0,,,,,,,,,0,,,63,82
104641,control_change,121,0,1,,,,,,,64,0,0,,,,
104642,control_change,1,0,1,,,,,,,64,127,0,,,,
104747,note_on,105,0,1,,,,,,,,,0,,,35,0
104760,note_on,13,0,1,,,,,,,,,0,,,42,82
104867,note_on,227,0,0,,,,,,,,,0,,,63,0
104867,note_on,0,0,0,,,,,,,,,0,,,66,0
104867,note_on,0,0,0,,,,,,,,,0,,,71,0
104873,note_on,113,0,1,,,,,,,,,0,,,42,0
104880,note_on,0,0,0,,,,,,,,,0,,,67,81
104880,note_on,13,0,0,,,,,,,,,0,,,59,81
104880,note_on,7,0,1,,,,,,,,,0,,,47,81
104880,note_on,0,0,0,,,,,,,,,0,,,63,81
104993,note_on,113,0,1,,,,,,,,,0,,,47,0
105000,note_on,7,0,1,,,,,,,,,0,,,54,80
105107,note_on,0,0,0,,,,,,,,,0,,,63,0
105107,note_on,0,0,0,,,,,,,,,0,,,67,0
105107,note_on,227,0,0,,,,,,,,,0,,,59,0
105120,note_on,0,0,0,,,,,,,,,0,,,63,80
105120,note_on,0,0,0,,,,,,,,,0,,,66,80
105120,note_on,13,0,0,,,,,,,,,0,,,59,80
105227,note_on,227,0,1,,,,,,,,,0,,,54,0
105240,note_on,13,0,1,,,,,,,,,0,,,47,79
105347,note_on,0,0,0,,,,,,,,,0,,,63,0
105347,note_on,227,0,0,,,,,,,,,0,,,59,0
105347,note_on,0,0,0,,,,,,,,,0,,,66,0
105353,note_on,113,0,1,,,,,,,,,0,,,47,0
105360,note_on,13,0,0,,,,,,,,,0,,,63,78
105360,note_on,0,0,1,,,,,,,,,0,,,54,78
105360,note_on,0,0,0,,,,,,,,,0,,,66,78
105360,note_on,7,0,1,,,,,,,,,0,,,42,78
105473,note_on,113,0,1,,,,,,,,,0,,,42,0
105480,note_on,7,0,1,,,,,,,,,0,,,35,78
105587,note_on,0,0,0,,,,,,,,,0,,,66,0
105587,note_on,107,0,1,,,,,,,,,0,,,54,0
105587,note_on,227,0,0,,,,,,,,,0,,,63,0
105600,note_on,13,0,0,,,,,,,,,0,,,62,77
105600,note_on,0,0,1,,,,,,,,,0,,,59,77
105600,note_on,13,0,1,,,,,,,,,0,,,55,77
105601,control_change,1,0,1,,,,,,,64,0,0,,,,
105602,control_change,1,0,1,,,,,,,64,127,0,,,,
105707,note_on,105,0,1,,,,,,,,,0,,,35,0
105720,note_on,13,0,1,,,,,,,,,0,,,35,76
105827,note_on,107,0,1,,,,,,,,,0,,,55,0
105827,note_on,227,0,0,,,,,,,,,0,,,62,0
105827,note_on,0,0,1,,,,,,,,,0,,,59,0
105833,note_on,6,0,1,,,,,,,,,0,,,35,0
105840,note_on,0,0,1,,,,,,,,,0,,,59,76
105840,note_on,0,0,1,,,,,,,,,0,,,55,76
105840,note_on,0,0,1,,,,,,,,,0,,,50,76
105840,note_on,7,0,1,,,,,,,,,0,,,42,76
105953,note_on,113,0,1,,,,,,,,,0,,,42,0
105960,note_on,7,0,1,,,,,,,,,0,,,47,75
106067,note_on,0,0,1,,,,,,,,,0,,,59,0
106067,note_on,107,0,1,,,,,,,,,0,,,50,0
106067,note_on,0,0,1,,,,,,,,,0,,,55,0
106080,note_on,0,0,1,,,,,,,,,0,,,55,74
106080,note_on,13,0,1,,,,,,,,,0,,,51,74
106080,note_on,0,0,1,,,,,,,,,0,,,59,74
106187,note_on,107,0,1,,,,,,,,,0,,,47,0
106200,note_on,13,0,1,,,,,,,,,0,,,47,74
106307,note_on,107,0,1,,,,,,,,,0,,,51,0
106307,note_on,0,0,1,,,,,,,,,0,,,59,0
106307,note_on,0,0,1,,,,,,,,,0,,,55,0
106313,note_on,6,0,1,,,,,,,,,0,,,47,0
106320,note_on,0,0,1,,,,,,,,,0,,,52,73
106320,note_on,0,0,1,,,,,,,,,0,,,55,73
106320,note_on,7,0,1,,,,,,,,,0,,,42,73
106433,note_on,113,0,1,,,,,,,,,0,,,42,0
106440,note_on,7,0,1,,,,,,,,,0,,,35,72
106547,note_on,0,0,1,,,,,,,,,0,,,55,0
106547,note_on,107,0,1,,,,,,,,,0,,,52,0
106560,note_on,0,0,0,,,,,,,,,0,,,54,71
106560,note_on,0,0,0,,,,,,,,,0,,,59,71
106560,note_on,733,0,0,,,,,,,,,0,,,51,71
106561,control_change,14,0,1,,,,,,,64,0,0,,,,
106562,control_change,1,0,1,,,,,,,64,127,0,,,,
106667,note_on,105,0,1,,,,,,,,,0,,,35,0
106680,note_on,13,0,1,,,,,,,,,0,,,42,71
106793,note_on,113,0,1,,,,,,,,,0,,,42,0
106800,note_on,7,0,1,,,,,,,,,0,,,47,70
106913,note_on,113,0,1,,,,,,,,,0,,,47,0
106920,note_on,360,0,0,,,,,,,,,0,,,54,0
106920,note_on,7,0,1,,,,,,,,,0,,,54,69
107015,note_on,95,0,0,,,,,,,,,0,,,51,0
107015,note_on,0,0,0,,,,,,,,,0,,,59,0
107147,note_on,227,0,1,,,,,,,,,0,,,54,0
107160,note_on,13,0,1,,,,,,,,,0,,,47,68
107273,note_on,113,0,1,,,,,,,,,0,,,47,0
107280,note_on,7,0,1,,,,,,,,,0,,,42,67
107393,note_on,113,0,1,,,,,,,,,0,,,42,0
107400,note_on,7,0,1,,,,,,,,,0,,,35,67
107627,note_on,227,0,1,,,,,,,,,0,,,35,0
107640,note_on,13,0,1,,,,,,,,,0,,,42,65
107753,note_on,113,0,1,,,,,,,,,0,,,42,0
107760,note_on,7,0,1,,,,,,,,,0,,,47,65
107873,note_on,113,0,1,,,,,,,,,0,,,47,0
107880,note_on,7,0,1,,,,,,,,,0,,,59,64
108107,note_on,227,0,1,,,,,,,,,0,,,59,0
108120,note_on,13,0,1,,,,,,,,,0,,,47,63
108233,note_on,113,0,1,,,,,,,,,0,,,47,0
108240,note_on,7,0,1,,,,,,,,,0,,,42,62
108353,note_on,113,0,1,,,,,,,,,0,,,42,0
108360,note_on,7,0,1,,,,,,,,,0,,,35,61
108480,set_tempo,1465,1,0,,,,,,800000,,,,,,,
108481,control_change,121,0,1,,,,,,,64,0,0,,,,
108482,control_change,1,0,1,,,,,,,64,127,0,,,,
108587,note_on,105,0,1,,,,,,,,,0,,,35,0
108600,note_on,13,0,1,,,,,,,,,0,,,42,60
108713,note_on,113,0,1,,,,,,,,,0,,,42,0
108720,note_on,7,0,1,,,,,,,,,0,,,47,60
108833,note_on,113,0,1,,,,,,,,,0,,,47,0
108840,note_on,7,0,1,,,,,,,,,0,,,54,60
109067,note_on,227,0,1,,,,,,,,,0,,,54,0
109080,note_on,13,0,1,,,,,,,,,0,,,47,60
109193,note_on,113,0,1,,,,,,,,,0,,,47,0
109200,note_on,7,0,1,,,,,,,,,0,,,42,60
109313,note_on,113,0,1,,,,,,,,,0,,,42,0
109320,note_on,7,0,1,,,,,,,,,0,,,35,60
109440,set_tempo,960,1,0,,,,,,857140,,,,,,,
109547,note_on,227,0,1,,,,,,,,,0,,,35,0
109560,note_on,13,0,1,,,,,,,,,0,,,42,60
109673,note_on,113,0,1,,,,,,,,,0,,,42,0
109680,note_on,7,0,1,,,,,,,,,0,,,47,60
109793,note_on,113,0,1,,,,,,,,,0,,,47,0
109800,note_on,7,0,1,,,,,,,,,0,,,59,60
110027,note_on,227,0,1,,,,,,,,,0,,,59,0
110040,note_on,13,0,1,,,,,,,,,0,,,47,60
110153,note_on,113,0,1,,,,,,,,,0,,,47,0
110160,note_on,7,0,1,,,,,,,,,0,,,42,60
110273,note_on,113,0,1,,,,,,,,,0,,,42,0
110280,note_on,7,0,1,,,,,,,,,0,,,35,60
110400,set_tempo,960,1,0,,,,,,1000000,,,,,,,
110401,control_change,121,0,1,,,,,,,64,0,0,,,,
110633,note_on,232,0,1,,,,,,,,,0,,,35,0
110640,note_on,7,0,1,,,,,,,,,0,,,47,50
110759,note_on,119,0,1,,,,,,,,,0,,,47,0
110880,note_on,121,0,1,,,,,,,,,0,,,59,50
110880,set_tempo,480,1,0,,,,,,1090909,,,,,,,
110999,note_on,119,0,1,,,,,,,,,0,,,59,0
111120,note_on,240,0,0,,,,,,,,,0,,,71,50
111239,note_on,119,0,0,,,,,,,,,0,,,71,0
111360,set_tempo,121,1,0,,,,,,1200000,,,,,,,
111360,note_on,0,0,0,,,,,,,,,0,,,83,50
111479,note_on,119,0,0,,,,,,,,,0,,,83,0
111600,note_on,121,0,0,,,,,,,,,0,,,95,50
111602,control_change,2,0,0,,,,,,,64,127,0,,,,
111719,note_on,117,0,0,,,,,,,,,0,,,95,0
112320,set_tempo,601,1,0,,,,,,2000000,,,,,,,
112321,control_change,1,0,0,,,,,,,64,0,0,,,,
112799,set_tempo,478,1,0,,,,,,1000000,,,,,,,
112800,note_on,0,0,0,,,,,,,,,0,,,51,0
112800,note_on,0,0,0,,,,,,,,,0,,,54,50
112800,note_on,0,0,0,,,,,,,,,0,,,59,50
112800,note_on,0,0,1,,,,,,,,,0,,,47,50
112800,note_on,0,0,1,,,,,,,,,0,,,51,50
112800,note_on,1,0,0,,,,,,,,,0,,,51,50
112800,note_on,1801,0,1,,,,,,,,,0,,,45,50
113255,note_on,0,0,1,,,,,,,,,0,,,47,0
113255,note_on,455,0,1,,,,,,,,,0,,,45,0
113279,note_on,24,0,1,,,,,,,,,0,,,51,0
113279,note_on,479,0,0,,,,,,,,,0,,,54,0
113279,note_on,0,0,0,,,,,,,,,0,,,59,0
113280,note_on,1,0,1,,,,,,,,,0,,,44,50
113280,set_tempo,1,1,0,,,,,,1200000,,,,,,,
113280,note_on,0,0,1,,,,,,,,,0,,,47,50
113280,note_on,0,0,0,,,,,,,,,0,,,59,50
113280,note_on,0,0,0,,,,,,,,,0,,,56,50
113280,note_on,0,0,0,,,,,,,,,0,,,51,50
113735,note_on,455,0,1,,,,,,,,,0,,,44,0
113735,note_on,0,0,1,,,,,,,,,0,,,47,0
113759,note_on,479,0,0,,,,,,,,,0,,,51,0
113759,note_on,0,0,0,,,,,,,,,0,,,56,0
113759,note_on,0,0,0,,,,,,,,,0,,,59,0
113760,note_on,0,0,0,,,,,,,,,0,,,61,61
113760,note_on,0,0,1,,,,,,,,,0,,,47,61
113760,set_tempo,1,1,0,,,,,,1499999,,,,,,,
113760,note_on,0,0,1,,,,,,,,,0,,,57,61
113760,note_on,25,0,1,,,,,,,,,0,,,42,61
113760,note_on,0,0,1,,,,,,,,,0,,,51,61
114119,note_on,359,0,0,,,,,,,,,0,,,61,0
114120,note_on,1,0,0,,,,,,,,,0,,,59,70
114215,note_on,0,0,1,,,,,,,,,0,,,57,0
114215,note_on,0,0,1,,,,,,,,,0,,,51,0
114215,note_on,0,0,1,,,,,,,,,0,,,47,0
114215,note_on,455,0,1,,,,,,,,,0,,,42,0
114233,note_on,113,0,0,,,,,,,,,0,,,59,0
114240,set_tempo,7,1,0,,,,,,923080,,,,,,,
114240,note_on,0,0,0,,,,,,,,,0,,,68,70
114600,note_on,385,0,1,,,,,,,,,0,,,40,70
114602,control_change,2,0,1,,,,,,,64,127,0,,,,
114615,note_on,13,0,1,,,,,,,,,0,,,47,70
114630,note_on,15,0,1,,,,,,,,,0,,,52,70
114718,note_on,0,0,1,,,,,,,,,0,,,52,0
114718,note_on,88,0,1,,,,,,,,,0,,,47,0
114719,note_on,1,0,1,,,,,,,,,0,,,40,0
114720,note_on,1,0,1,,,,,,,,,0,,,56,70
114754,note_on,34,0,1,,,,,,,,,0,,,59,70
114789,note_on,35,0,1,,,,,,,,,0,,,64,70
114958,note_on,169,0,1,,,,,,,,,0,,,59,0
114958,note_on,0,0,1,,,,,,,,,0,,,64,0
114959,note_on,1,0,1,,,,,,,,,0,,,56,0
115199,note_on,959,0,0,,,,,,,,,0,,,68,0
115200,note_on,1,0,0,,,,,,,,,0,,,69,70
115201,control_change,242,0,1,,,,,,,64,0,0,,,,
115560,note_on,359,0,1,,,,,,,,,0,,,40,70
115562,control_change,2,0,1,,,,,,,64,127,0,,,,
115575,note_on,13,0,1,,,,,,,,,0,,,49,70
115590,note_on,15,0,1,,,,,,,,,0,,,52,70
115678,note_on,0,0,1,,,,,,,,,0,,,52,0
115678,note_on,88,0,1,,,,,,,,,0,,,49,0
115679,note_on,1,0,1,,,,,,,,,0,,,40,0
115680,note_on,1,0,1,,,,,,,,,0,,,57,70
115714,note_on,34,0,1,,,,,,,,,0,,,59,70
115749,note_on,35,0,1,,,,,,,,,0,,,64,70
115918,note_on,169,0,1,,,,,,,,,0,,,59,0
115918,note_on,0,0,1,,,,,,,,,0,,,64,0
115919,note_on,1,0,1,,,,,,,,,0,,,57,0
116159,note_on,959,0,0,,,,,,,,,0,,,69,0
116160,note_on,1,0,0,,,,,,,,,0,,,66,70
116161,control_change,242,0,1,,,,,,,64,0,0,,,,
116520,note_on,359,0,1,,,,,,,,,0,,,40,70
116522,control_change,2,0,1,,,,,,,64,127,0,,,,
116535,note_on,13,0,1,,,,,,,,,0,,,51,70
116550,note_on,15,0,1,,,,,,,,,0,,,54,70
116638,note_on,0,0,1,,,,,,,,,0,,,54,0
116638,note_on,88,0,1,,,,,,,,,0,,,51,0
116639,note_on,1,0,1,,,,,,,,,0,,,40,0
116640,note_on,1,0,1,,,,,,,,,0,,,57,70
116674,note_on,34,0,1,,,,,,,,,0,,,59,70
116709,note_on,35,0,1,,,,,,,,,0,,,63,70
116878,note_on,169,0,1,,,,,,,,,0,,,59,0
116878,note_on,0,0,1,,,,,,,,,0,,,63,0
116879,note_on,1,0,1,,,,,,,,,0,,,57,0
117121,control_change,242,0,1,,,,,,,64,0,0,,,,
117599,note_on,1439,0,0,,,,,,,,,0,,,66,0
117600,note_on,0,0,0,,,,,,,,,0,,,56,70
117600,note_on,1,0,0,,,,,,,,,0,,,68,70
117600,note_on,479,0,1,,,,,,,,,0,,,40,70
117602,control_change,2,0,1,,,,,,,64,127,0,,,,
117634,note_on,34,0,0,,,,,,,,,0,,,59,70
117634,note_on,32,0,1,,,,,,,,,0,,,49,70
117669,note_on,35,0,0,,,,,,,,,0,,,64,70
117669,note_on,35,0,1,,,,,,,,,0,,,52,70
117838,note_on,0,0,1,,,,,,,,,0,,,52,0
117838,note_on,169,0,0,,,,,,,,,0,,,59,0
117838,note_on,0,0,0,,,,,,,,,0,,,64,0
117838,note_on,169,0,1,,,,,,,,,0,,,49,0
117839,note_on,1,0,1,,,,,,,,,0,,,40,0
117839,note_on,1,0,0,,,,,,,,,0,,,56,0
118055,note_on,216,0,0,,,,,,,,,0,,,68,0
118080,note_on,25,0,0,,,,,,,,,0,,,69,70
118081,control_change,242,0,1,,,,,,,64,0,0,,,,
118440,note_on,359,0,1,,,,,,,,,0,,,40,70
118442,control_change,2,0,1,,,,,,,64,127,0,,,,
118455,note_on,13,0,1,,,,,,,,,0,,,49,70
118470,note_on,15,0,1,,,,,,,,,0,,,52,70
118558,note_on,0,0,1,,,,,,,,,0,,,52,0
118558,note_on,88,0,1,,,,,,,,,0,,,49,0
118559,note_on,1,0,1,,,,,,,,,0,,,40,0
118560,note_on,1,0,1,,,,,,,,,0,,,57,70
118594,note_on,34,0,1,,,,,,,,,0,,,59,70
118629,note_on,35,0,1,,,,,,,,,0,,,64,70
118798,note_on,0,0,1,,,,,,,,,0,,,64,0
118798,note_on,169,0,1,,,,,,,,,0,,,59,0
118799,note_on,1,0,1,,,,,,,,,0,,,57,0
118991,note_on,911,0,0,,,,,,,,,0,,,69,0
119040,note_on,49,0,0,,,,,,,,,0,,,69,84
119041,control_change,242,0,1,,,,,,,64,0,0,,,,
119111,note_on,71,0,0,,,,,,,,,0,,,69,0
119112,note_on,1,0,0,,,,,,,,,0,,,69,84
119183,note_on,71,0,0,,,,,,,,,0,,,69,0
119184,note_on,1,0,0,,,,,,,,,0,,,73,84
119400,note_on,359,0,1,,,,,,,,,0,,,40,70
119402,control_change,2,0,1,,,,,,,64,127,0,,,,
119415,note_on,13,0,1,,,,,,,,,0,,,51,70
119430,note_on,15,0,1,,,,,,,,,0,,,54,70
119518,note_on,88,0,1,,,,,,,,,0,,,51,0
119518,note_on,0,0,1,,,,,,,,,0,,,54,0
119519,note_on,1,0,1,,,,,,,,,0,,,40,0
119520,note_on,1,0,1,,,,,,,,,0,,,57,70
119554,note_on,34,0,1,,,,,,,,,0,,,63,70
119589,note_on,35,0,1,,,,,,,,,0,,,66,70
119758,note_on,0,0,1,,,,,,,,,0,,,66,0
119758,note_on,169,0,1,,,,,,,,,0,,,63,0
119759,note_on,1,0,1,,,,,,,,,0,,,57,0
119759,note_on,575,0,0,,,,,,,,,0,,,73,0
119760,note_on,1,0,0,,,,,,,,,0,,,71,70
119987,note_on,227,0,0,,,,,,,,,0,,,71,0
120000,note_on,13,0,0,,,,,,,,,0,,,68,70
120001,control_change,242,0,1,,,,,,,64,0,0,,,,
120360,note_on,359,0,1,,,,,,,,,0,,,40,70
120362,control_change,2,0,1,,,,,,,64,127,0,,,,
120375,note_on,13,0,1,,,,,,,,,0,,,47,70
120390,note_on,15,0,1,,,,,,,,,0,,,52,70
120478,note_on,88,0,1,,,,,,,,,0,,,47,0
120478,note_on,0,0,1,,,,,,,,,0,,,52,0
120479,note_on,1,0,1,,,,,,,,,0,,,40,0
120480,note_on,1,0,1,,,,,,,,,0,,,56,70
120514,note_on,34,0,1,,,,,,,,,0,,,59,70
120549,note_on,35,0,1,,,,,,,,,0,,,64,70
120718,note_on,0,0,1,,,,,,,,,0,,,64,0
120718,note_on,169,0,1,,,,,,,,,0,,,59,0
120719,note_on,1,0,1,,,,,,,,,0,,,56,0
120961,control_change,242,0,1,,,,,,,64,0,0,,,,
121367,note_on,1367,0,0,,,,,,,,,0,,,68,0
121440,note_on,73,0,0,,,,,,,,,0,,,68,70
121895,note_on,455,0,0,,,,,,,,,0,,,68,0
121920,note_on,25,0,0,,,,,,,,,0,,,68,70
122280,note_on,1319,0,1,,,,,,,,,0,,,40,70
122282,control_change,2,0,1,,,,,,,64,127,0,,,,
122295,note_on,13,0,1,,,,,,,,,0,,,47,70
122310,note_on,15,0,1,,,,,,,,,0,,,52,70
122375,note_on,455,0,0,,,,,,,,,0,,,68,0
122398,note_on,88,0,1,,,,,,,,,0,,,47,0
122398,note_on,0,0,1,,,,,,,,,0,,,52,0
122399,note_on,1,0,1,,,,,,,,,0,,,40,0
122400,note_on,1,0,1,,,,,,,,,0,,,56,70
122400,note_on,25,0,0,,,,,,,,,0,,,68,75
122434,note_on,34,0,1,,,,,,,,,0,,,59,70
122469,note_on,35,0,1,,,,,,,,,0,,,64,70
122638,note_on,169,0,1,,,,,,,,,0,,,59,0
122638,note_on,0,0,1,,,,,,,,,0,,,64,0
122639,note_on,1,0,1,,,,,,,,,0,,,56,0
122855,note_on,455,0,0,,,,,,,,,0,,,68,0
122880,note_on,25,0,0,,,,,,,,,0,,,71,80
122881,control_change,242,0,1,,,,,,,64,0,0,,,,
123240,note_on,359,0,1,,,,,,,,,0,,,37,70
123242,control_change,2,0,1,,,,,,,64,127,0,,,,
123255,note_on,13,0,1,,,,,,,,,0,,,46,70
123270,note_on,15,0,1,,,,,,,,,0,,,52,70
123335,note_on,455,0,0,,,,,,,,,0,,,71,0
123358,note_on,88,0,1,,,,,,,,,0,,,46,0
123358,note_on,0,0,1,,,,,,,,,0,,,52,0
123359,note_on,1,0,1,,,,,,,,,0,,,37,0
123360,note_on,25,0,0,,,,,,,,,0,,,70,80
123360,note_on,1,0,1,,,,,,,,,0,,,58,70
123394,note_on,34,0,1,,,,,,,,,0,,,64,70
123598,note_on,204,0,1,,,,,,,,,0,,,64,0
123599,note_on,1,0,1,,,,,,,,,0,,,58,0
123815,note_on,455,0,0,,,,,,,,,0,,,70,0
123840,note_on,25,0,0,,,,,,,,,0,,,63,80
123841,control_change,242,0,1,,,,,,,64,0,0,,,,
124200,note_on,359,0,1,,,,,,,,,0,,,39,70
124202,control_change,2,0,1,,,,,,,64,127,0,,,,
124215,note_on,13,0,1,,,,,,,,,0,,,46,70
124230,note_on,15,0,1,,,,,,,,,0,,,49,70
124245,note_on,15,0,1,,,,,,,,,0,,,55,70
124318,note_on,0,0,1,,,,,,,,,0,,,49,0
124318,note_on,73,0,1,,,,,,,,,0,,,46,0
124318,note_on,0,0,1,,,,,,,,,0,,,55,0
124319,note_on,1,0,1,,,,,,,,,0,,,39,0
124320,note_on,1,0,1,,,,,,,,,0,,,58,70
124354,note_on,34,0,1,,,,,,,,,0,,,61,70
124558,note_on,204,0,1,,,,,,,,,0,,,61,0
124559,note_on,1,0,1,,,,,,,,,0,,,58,0
124801,control_change,242,0,1,,,,,,,64,0,0,,,,
125207,note_on,1367,0,0,,,,,,,,,0,,,63,0
125280,note_on,73,0,0,,,,,,,,,0,,,63,80
125735,note_on,455,0,0,,,,,,,,,0,,,63,0
125760,note_on,25,0,0,,,,,,,,,0,,,71,80
126120,note_on,1319,0,1,,,,,,,,,0,,,44,70
126122,control_change,2,0,1,,,,,,,64,127,0,,,,
126135,note_on,13,0,1,,,,,,,,,0,,,51,70
126150,note_on,15,0,1,,,,,,,,,0,,,56,70
126215,note_on,455,0,0,,,,,,,,,0,,,71,0
126238,note_on,88,0,1,,,,,,,,,0,,,51,0
126238,note_on,0,0,1,,,,,,,,,0,,,56,0
126239,note_on,1,0,1,,,,,,,,,0,,,44,0
126240,note_on,25,0,0,,,,,,,,,0,,,71,80
126240,note_on,1,0,1,,,,,,,,,0,,,59,70
126274,note_on,34,0,1,,,,,,,,,0,,,63,70
126309,note_on,35,0,1,,,,,,,,,0,,,68,70
126478,note_on,169,0,1,,,,,,,,,0,,,63,0
126478,note_on,0,0,1,,,,,,,,,0,,,68,0
126479,note_on,1,0,1,,,,,,,,,0,,,59,0
126695,note_on,455,0,0,,,,,,,,,0,,,71,0
126720,note_on,25,0,0,,,,,,,,,0,,,75,80
126721,control_change,242,0,1,,,,,,,64,0,0,,,,
127080,note_on,359,0,1,,,,,,,,,0,,,43,70
127082,control_change,2,0,1,,,,,,,64,127,0,,,,
127095,note_on,13,0,1,,,,,,,,,0,,,49,70
127110,note_on,15,0,1,,,,,,,,,0,,,53,70
127125,note_on,15,0,1,,,,,,,,,0,,,59,70
127175,note_on,455,0,0,,,,,,,,,0,,,75,0
127198,note_on,0,0,1,,,,,,,,,0,,,53,0
127198,note_on,73,0,1,,,,,,,,,0,,,49,0
127198,note_on,0,0,1,,,,,,,,,0,,,59,0
127199,note_on,1,0,1,,,,,,,,,0,,,43,0
127200,note_on,25,0,0,,,,,,,,,0,,,73,80
127200,note_on,1,0,1,,,,,,,,,0,,,61,70
127234,note_on,34,0,1,,,,,,,,,0,,,65,70
127438,note_on,204,0,1,,,,,,,,,0,,,65,0
127439,note_on,1,0,1,,,,,,,,,0,,,61,0
127655,note_on,455,0,0,,,,,,,,,0,,,73,0
127680,note_on,25,0,0,,,,,,,,,0,,,66,80
127681,control_change,242,0,1,,,,,,,64,0,0,,,,
128040,note_on,359,0,1,,,,,,,,,0,,,42,70
128042,control_change,2,0,1,,,,,,,64,127,0,,,,
128055,note_on,13,0,1,,,,,,,,,0,,,49,70
128070,note_on,15,0,1,,,,,,,,,0,,,52,70
128085,note_on,15,0,1,,,,,,,,,0,,,58,70
128158,note_on,0,0,1,,,,,,,,,0,,,58,0
128158,note_on,73,0,1,,,,,,,,,0,,,49,0
128158,note_on,0,0,1,,,,,,,,,0,,,52,0
128159,note_on,1,0,1,,,,,,,,,0,,,42,0
128160,note_on,1,0,1,,,,,,,,,0,,,61,70
128194,note_on,34,0,1,,,,,,,,,0,,,64,70
128398,note_on,204,0,1,,,,,,,,,0,,,64,0
128399,note_on,1,0,1,,,,,,,,,0,,,61,0
128641,control_change,242,0,1,,,,,,,64,0,0,,,,
129047,note_on,1367,0,0,,,,,,,,,0,,,66,0
129120,note_on,73,0,0,,,,,,,,,0,,,66,80
129479,note_on,359,0,0,,,,,,,,,0,,,66,0
129480,note_on,1,0,0,,,,,,,,,0,,,78,92
129593,note_on,113,0,0,,,,,,,,,0,,,78,0
129600,note_on,7,0,0,,,,,,,,,0,,,78,96
129960,note_on,1319,0,1,,,,,,,,,0,,,47,70
129962,control_change,2,0,1,,,,,,,64,127,0,,,,
129975,note_on,13,0,1,,,,,,,,,0,,,54,70
129990,note_on,15,0,1,,,,,,,,,0,,,60,70
130078,note_on,0,0,1,,,,,,,,,0,,,60,0
130078,note_on,88,0,1,,,,,,,,,0,,,54,0
130079,note_on,1,0,1,,,,,,,,,0,,,47,0
130080,note_on,1,0,1,,,,,,,,,0,,,64,70
130114,note_on,34,0,1,,,,,,,,,0,,,69,70
130318,note_on,204,0,1,,,,,,,,,0,,,69,0
130319,note_on,1,0,1,,,,,,,,,0,,,64,0
130511,note_on,911,0,0,,,,,,,,,0,,,78,0
130560,note_on,49,0,0,,,,,,,,,0,,,76,80
130561,control_change,242,0,1,,,,,,,64,0,0,,,,
130920,note_on,359,0,1,,,,,,,,,0,,,47,70
130922,control_change,2,0,1,,,,,,,64,127,0,,,,
130935,note_on,13,0,1,,,,,,,,,0,,,54,70
130950,note_on,15,0,1,,,,,,,,,0,,,57,70
131038,note_on,88,0,1,,,,,,,,,0,,,54,0
131038,note_on,0,0,1,,,,,,,,,0,,,57,0
131039,note_on,1,0,1,,,,,,,,,0,,,47,0
131040,note_on,1,0,1,,,,,,,,,0,,,60,70
131074,note_on,34,0,1,,,,,,,,,0,,,64,70
131109,note_on,35,0,1,,,,,,,,,0,,,66,70
131278,note_on,169,0,1,,,,,,,,,0,,,64,0
131278,note_on,0,0,1,,,,,,,,,0,,,66,0
131279,note_on,1,0,1,,,,,,,,,0,,,60,0
131357,note_on,797,0,0,,,,,,,,,0,,,76,0
131400,note_on,43,0,0,,,,,,,,,0,,,72,80
131513,note_on,113,0,0,,,,,,,,,0,,,72,0
131520,note_on,7,0,0,,,,,,,,,0,,,72,96
131521,control_change,242,0,1,,,,,,,64,0,0,,,,
131880,note_on,359,0,1,,,,,,,,,0,,,35,70
131882,control_change,2,0,1,,,,,,,64,127,0,,,,
131902,note_on,20,0,1,,,,,,,,,0,,,54,70
131998,note_on,96,0,1,,,,,,,,,0,,,54,0
131999,note_on,1,0,1,,,,,,,,,0,,,35,0
132000,note_on,1,0,1,,,,,,,,,0,,,57,70
132034,note_on,34,0,1,,,,,,,,,0,,,63,70
132238,note_on,204,0,1,,,,,,,,,0,,,63,0
132239,note_on,1,0,1,,,,,,,,,0,,,57,0
132481,control_change,242,0,1,,,,,,,64,0,0,,,,
132719,note_on,1199,0,0,,,,,,,,,0,,,72,0
132720,note_on,1,0,0,,,,,,,,,0,,,71,80
132959,note_on,239,0,0,,,,,,,,,0,,,71,0
132960,note_on,1,0,0,,,,,,,,,0,,,66,80
133319,note_on,359,0,0,,,,,,,,,0,,,66,0
133320,note_on,1,0,0,,,,,,,,,0,,,78,80
133433,note_on,113,0,0,,,,,,,,,0,,,78,0
133440,note_on,7,0,0,,,,,,,,,0,,,78,96
133800,note_on,1319,0,1,,,,,,,,,0,,,48,70
133802,control_change,2,0,1,,,,,,,64,127,0,,,,
133815,note_on,13,0,1,,,,,,,,,0,,,54,70
133830,note_on,15,0,1,,,,,,,,,0,,,60,70
133918,note_on,0,0,1,,,,,,,,,0,,,60,0
133918,note_on,88,0,1,,,,,,,,,0,,,54,0
133919,note_on,1,0,1,,,,,,,,,0,,,48,0
133920,note_on,1,0,1,,,,,,,,,0,,,64,70
133954,note_on,34,0,1,,,,,,,,,0,,,69,70
134082,note_on,642,0,0,,,,,,,,,0,,,78,0
134158,note_on,204,0,1,,,,,,,,,0,,,69,0
134159,note_on,1,0,1,,,,,,,,,0,,,64,0
134400,note_on,318,0,0,,,,,,,,,0,,,76,80
134401,control_change,1,0,0,,,,,,,64,0,0,,,,
134402,control_change,1,0,0,,,,,,,64,127,0,,,,
134520,note_on,361,0,1,,,,,,,,,0,,,45,70
134576,note_on,56,0,1,,,,,,,,,0,,,45,0
134580,note_on,4,0,1,,,,,,,,,0,,,54,70
134636,note_on,56,0,1,,,,,,,,,0,,,54,0
134640,note_on,4,0,1,,,,,,,,,0,,,57,70
134696,note_on,56,0,1,,,,,,,,,0,,,57,0
134700,note_on,4,0,1,,,,,,,,,0,,,60,70
134756,note_on,56,0,1,,,,,,,,,0,,,60,0
134760,note_on,4,0,1,,,,,,,,,0,,,64,70
134816,note_on,56,0,1,,,,,,,,,0,,,64,0
134820,note_on,4,0,1,,,,,,,,,0,,,66,70
134855,note_on,453,0,0,,,,,,,,,0,,,76,0
134876,note_on,56,0,1,,,,,,,,,0,,,66,0
134880,note_on,25,0,0,,,,,,,,,0,,,74,80
135239,note_on,359,0,0,,,,,,,,,0,,,74,0
135240,note_on,1,0,0,,,,,,,,,0,,,72,80
135241,control_change,1,0,0,,,,,,,64,0,0,,,,
135353,note_on,112,0,0,,,,,,,,,0,,,72,0
135360,note_on,7,0,0,,,,,,,,,0,,,72,80
135720,set_tempo,360,1,0,,,,,,1090909,,,,,,,
135720,note_on,844,0,1,,,,,,,,,0,,,35,70
135722,control_change,2,0,1,,,,,,,64,127,0,,,,
135739,note_on,17,0,1,,,,,,,,,0,,,54,70
135838,note_on,99,0,1,,,,,,,,,0,,,54,0
135839,note_on,1,0,1,,,,,,,,,0,,,35,0
135840,note_on,1,0,1,,,,,,,,,0,,,57,70
135869,note_on,29,0,1,,,,,,,,,0,,,63,70
136078,note_on,209,0,1,,,,,,,,,0,,,63,0
136079,note_on,1,0,1,,,,,,,,,0,,,57,0
136321,control_change,242,0,1,,,,,,,64,0,0,,,,
136511,note_on,791,0,0,,,,,,,,,0,,,72,0
136560,note_on,49,0,0,,,,,,,,,0,,,71,88
136799,note_on,239,0,0,,,,,,,,,0,,,71,0
136800,note_on,1,0,0,,,,,,,,,0,,,73,96
137159,note_on,359,0,0,,,,,,,,,0,,,73,0
137160,note_on,1,0,0,,,,,,,,,0,,,71,108
137273,note_on,113,0,0,,,,,,,,,0,,,71,0
137280,note_on,0,0,0,,,,,,,,,0,,,80,112
137280,set_tempo,7,1,0,,,,,,923080,,,,,,,
137760,note_on,1439,0,1,,,,,,,,,0,,,40,70
137762,control_change,2,0,1,,,,,,,64,127,0,,,,
137782,note_on,20,0,1,,,,,,,,,0,,,47,70
137805,note_on,23,0,1,,,,,,,,,0,,,52,70
137828,note_on,23,0,1,,,,,,,,,0,,,56,70
137998,note_on,170,0,1,,,,,,,,,0,,,47,0
137998,note_on,0,0,1,,,,,,,,,0,,,52,0
137998,note_on,0,0,1,,,,,,,,,0,,,56,0
137999,note_on,1,0,1,,,,,,,,,0,,,40,0
138191,note_on,911,0,0,,,,,,,,,0,,,80,0
138240,note_on,49,0,0,,,,,,,,,0,,,76,96
138241,control_change,242,0,1,,,,,,,64,0,0,,,,
138720,note_on,479,0,1,,,,,,,,,0,,,44,70
138722,control_change,2,0,1,,,,,,,64,127,0,,,,
138742,note_on,20,0,1,,,,,,,,,0,,,52,70
138765,note_on,23,0,1,,,,,,,,,0,,,56,70
138788,note_on,23,0,1,,,,,,,,,0,,,59,70
138958,note_on,0,0,1,,,,,,,,,0,,,56,0
138958,note_on,170,0,1,,,,,,,,,0,,,52,0
138958,note_on,0,0,1,,,,,,,,,0,,,59,0
138959,note_on,1,0,1,,,,,,,,,0,,,44,0
139037,note_on,797,0,0,,,,,,,,,0,,,76,0
139080,note_on,43,0,0,,,,,,,,,0,,,72,96
139193,note_on,113,0,0,,,,,,,,,0,,,72,0
139200,note_on,7,0,0,,,,,,,,,0,,,75,96
139201,control_change,242,0,1,,,,,,,64,0,0,,,,
139680,note_on,479,0,1,,,,,,,,,0,,,46,70
139682,control_change,2,0,1,,,,,,,64,127,0,,,,
139699,note_on,17,0,1,,,,,,,,,0,,,52,70
139718,note_on,19,0,1,,,,,,,,,0,,,55,70
139737,note_on,19,0,1,,,,,,,,,0,,,61,70
139756,note_on,556,0,0,,,,,,,,,0,,,64,96
139776,note_on,20,0,0,,,,,,,,,0,,,67,96
139918,note_on,0,0,1,,,,,,,,,0,,,55,0
139918,note_on,0,0,1,,,,,,,,,0,,,61,0
139918,note_on,181,0,1,,,,,,,,,0,,,52,0
139918,note_on,142,0,0,,,,,,,,,0,,,64,0
139919,note_on,1,0,1,,,,,,,,,0,,,46,0
139919,note_on,1,0,0,,,,,,,,,0,,,67,0
140111,note_on,192,0,0,,,,,,,,,0,,,75,0
140160,note_on,49,0,0,,,,,,,,,0,,,73,96
140615,note_on,455,0,0,,,,,,,,,0,,,73,0
140880,note_on,265,0,0,,,,,,,,,0,,,67,96
141107,note_on,227,0,0,,,,,,,,,0,,,67,0
141120,note_on,13,0,0,,,,,,,,,0,,,68,96
141121,control_change,1202,0,1,,,,,,,64,0,0,,,,
141480,note_on,359,0,1,,,,,,,,,0,,,47,70
141482,control_change,2,0,1,,,,,,,64,127,0,,,,
141495,note_on,13,0,1,,,,,,,,,0,,,52,70
141510,note_on,15,0,1,,,,,,,,,0,,,56,70
141598,note_on,88,0,1,,,,,,,,,0,,,52,0
141598,note_on,0,0,1,,,,,,,,,0,,,56,0
141599,note_on,1,0,1,,,,,,,,,0,,,47,0
141599,note_on,479,0,0,,,,,,,,,0,,,68,0
141600,note_on,1,0,0,,,,,,,,,0,,,68,96
141600,note_on,1,0,1,,,,,,,,,0,,,59,70
141634,note_on,34,0,1,,,,,,,,,0,,,64,70
141838,note_on,204,0,1,,,,,,,,,0,,,64,0
141839,note_on,1,0,1,,,,,,,,,0,,,59,0
142079,note_on,479,0,0,,,,,,,,,0,,,68,0
142080,note_on,1,0,0,,,,,,,,,0,,,68,96
142080,note_on,0,0,0,,,,,,,,,0,,,71,96
142081,control_change,242,0,1,,,,,,,64,0,0,,,,
142440,note_on,359,0,1,,,,,,,,,0,,,35,70
142442,control_change,2,0,1,,,,,,,64,127,0,,,,
142462,note_on,20,0,1,,,,,,,,,0,,,51,70
142558,note_on,96,0,1,,,,,,,,,0,,,51,0
142559,note_on,0,0,0,,,,,,,,,0,,,71,0
142559,note_on,479,0,0,,,,,,,,,0,,,68,0
142559,note_on,1,0,1,,,,,,,,,0,,,35,0
142560,note_on,1,0,1,,,,,,,,,0,,,57,70
142560,note_on,1,0,0,,,,,,,,,0,,,66,96
142560,note_on,0,0,0,,,,,,,,,0,,,69,96
142594,note_on,34,0,1,,,,,,,,,0,,,63,70
142798,note_on,204,0,1,,,,,,,,,0,,,63,0
142799,note_on,1,0,1,,,,,,,,,0,,,57,0
143015,note_on,455,0,0,,,,,,,,,0,,,66,0
143015,note_on,0,0,0,,,,,,,,,0,,,69,0
143040,note_on,25,0,0,,,,,,,,,0,,,66,96
143040,note_on,0,0,0,,,,,,,,,0,,,69,96
143041,control_change,242,0,1,,,,,,,64,0,0,,,,
143400,set_tempo,360,1,0,,,,,,1090909,,,,,,,
143400,note_on,359,0,1,,,,,,,,,0,,,36,70
143402,control_change,2,0,1,,,,,,,64,127,0,,,,
143419,note_on,17,0,1,,,,,,,,,0,,,51,70
143518,note_on,99,0,1,,,,,,,,,0,,,51,0
143519,note_on,1,0,1,,,,,,,,,0,,,36,0
143520,note_on,1,0,1,,,,,,,,,0,,,57,70
143549,note_on,29,0,1,,,,,,,,,0,,,63,70
143758,note_on,209,0,1,,,,,,,,,0,,,63,0
143759,note_on,1,0,1,,,,,,,,,0,,,57,0
144001,control_change,242,0,1,,,,,,,64,0,0,,,,
144479,note_on,0,0,0,,,,,,,,,0,,,69,0
144479,note_on,1079,0,0,,,,,,,,,0,,,66,0
144480,set_tempo,1,1,0,,,,,,923080,,,,,,,
144480,note_on,0,0,0,,,,,,,,,0,,,68,96
144839,note_on,359,0,0,,,,,,,,,0,,,68,0
144840,note_on,1,0,0,,,,,,,,,0,,,80,96
144953,note_on,113,0,0,,,,,,,,,0,,,80,0
144960,note_on,7,0,0,,,,,,,,,0,,,80,115
145320,note_on,1319,0,1,,,,,,,,,0,,,37,96
145322,control_change,2,0,1,,,,,,,64,127,0,,,,
145357,note_on,35,0,1,,,,,,,,,0,,,37,0
145360,note_on,3,0,1,,,,,,,,,0,,,49,96
145397,note_on,37,0,1,,,,,,,,,0,,,49,0
145400,note_on,3,0,1,,,,,,,,,0,,,53,96
145437,note_on,37,0,1,,,,,,,,,0,,,53,0
145440,note_on,3,0,1,,,,,,,,,0,,,56,96
145461,note_on,21,0,1,,,,,,,,,0,,,62,96
145483,note_on,523,0,0,,,,,,,,,0,,,65,96
145504,note_on,21,0,0,,,,,,,,,0,,,71,96
145602,note_on,98,0,0,,,,,,,,,0,,,80,0
145678,note_on,0,0,0,,,,,,,,,0,,,71,0
145678,note_on,76,0,0,,,,,,,,,0,,,65,0
145678,note_on,217,0,1,,,,,,,,,0,,,62,0
145679,note_on,1,0,1,,,,,,,,,0,,,56,0
145681,control_change,2,0,1,,,,,,,64,0,0,,,,
145920,note_on,242,0,0,,,,,,,,,0,,,74,115
146280,note_on,599,0,1,,,,,,,,,0,,,42,96
146282,control_change,2,0,1,,,,,,,64,127,0,,,,
146336,note_on,54,0,1,,,,,,,,,0,,,42,0
146340,note_on,4,0,1,,,,,,,,,0,,,52,96
146396,note_on,56,0,1,,,,,,,,,0,,,52,0
146400,note_on,4,0,1,,,,,,,,,0,,,55,96
146421,note_on,21,0,1,,,,,,,,,0,,,61,96
146443,note_on,523,0,0,,,,,,,,,0,,,64,96
146464,note_on,21,0,0,,,,,,,,,0,,,70,96
146626,note_on,205,0,1,,,,,,,,,0,,,61,0
146627,note_on,1,0,1,,,,,,,,,0,,,55,0
146638,note_on,174,0,0,,,,,,,,,0,,,64,0
146638,note_on,0,0,0,,,,,,,,,0,,,70,0
146759,note_on,121,0,0,,,,,,,,,0,,,74,0
146760,note_on,1,0,0,,,,,,,,,0,,,73,96
146873,note_on,113,0,0,,,,,,,,,0,,,73,0
146880,note_on,7,0,0,,,,,,,,,0,,,78,115
146881,control_change,254,0,1,,,,,,,64,0,0,,,,
147240,note_on,359,0,1,,,,,,,,,0,,,35,96
147242,control_change,2,0,1,,,,,,,64,127,0,,,,
147277,note_on,35,0,1,,,,,,,,,0,,,35,0
147280,note_on,3,0,1,,,,,,,,,0,,,47,96
147317,note_on,37,0,1,,,,,,,,,0,,,47,0
147320,note_on,3,0,1,,,,,,,,,0,,,51,96
147357,note_on,37,0,1,,,,,,,,,0,,,51,0
147360,note_on,480,0,0,,,,,,,,,0,,,63,96
147360,note_on,3,0,1,,,,,,,,,0,,,54,96
147394,note_on,34,0,1,,,,,,,,,0,,,60,96
147394,note_on,34,0,0,,,,,,,,,0,,,69,96
147522,note_on,128,0,0,,,,,,,,,0,,,78,0
147598,note_on,204,0,1,,,,,,,,,0,,,60,0
147598,note_on,76,0,0,,,,,,,,,0,,,69,0
147599,note_on,1,0,1,,,,,,,,,0,,,54,0
147599,note_on,1,0,0,,,,,,,,,0,,,63,0
147840,note_on,241,0,0,,,,,,,,,0,,,72,115
147841,control_change,242,0,1,,,,,,,64,0,0,,,,
148200,note_on,359,0,1,,,,,,,,,0,,,40,96
148202,control_change,2,0,1,,,,,,,64,127,0,,,,
148256,note_on,54,0,1,,,,,,,,,0,,,40,0
148260,note_on,4,0,1,,,,,,,,,0,,,50,96
148316,note_on,56,0,1,,,,,,,,,0,,,50,0
148320,note_on,4,0,1,,,,,,,,,0,,,53,96
148320,note_on,0,0,1,,,,,,,,,0,,,59,96
148363,note_on,523,0,0,,,,,,,,,0,,,62,96
148384,note_on,21,0,0,,,,,,,,,0,,,68,96
148547,note_on,227,0,1,,,,,,,,,0,,,53,0
148547,note_on,0,0,1,,,,,,,,,0,,,59,0
148558,note_on,174,0,0,,,,,,,,,0,,,62,0
148558,note_on,0,0,0,,,,,,,,,0,,,68,0
148679,note_on,121,0,0,,,,,,,,,0,,,72,0
148680,note_on,1,0,0,,,,,,,,,0,,,71,96
148793,note_on,113,0,0,,,,,,,,,0,,,71,0
148800,set_tempo,7,1,0,,,,,,1090909,,,,,,,
148800,note_on,0,0,0,,,,,,,,,0,,,77,96
148801,control_change,254,0,1,,,,,,,64,0,0,,,,
149160,note_on,359,0,1,,,,,,,,,0,,,33,96
149162,control_change,2,0,1,,,,,,,64,127,0,,,,
149197,note_on,35,0,1,,,,,,,,,0,,,33,0
149200,note_on,3,0,1,,,,,,,,,0,,,45,96
149237,note_on,37,0,1,,,,,,,,,0,,,45,0
149240,note_on,3,0,1,,,,,,,,,0,,,48,96
149255,note_on,455,0,0,,,,,,,,,0,,,77,0
149277,note_on,37,0,1,,,,,,,,,0,,,48,0
149280,note_on,0,0,0,,,,,,,,,0,,,60,96
149280,note_on,3,0,1,,,,,,,,,0,,,53,96
149280,note_on,25,0,0,,,,,,,,,0,,,72,115
149309,note_on,29,0,1,,,,,,,,,0,,,57,96
149309,note_on,29,0,0,,,,,,,,,0,,,65,96
149518,note_on,209,0,0,,,,,,,,,0,,,65,0
149518,note_on,209,0,1,,,,,,,,,0,,,57,0
149519,note_on,1,0,1,,,,,,,,,0,,,53,0
149519,note_on,1,0,0,,,,,,,,,0,,,60,0
149761,control_change,242,0,1,,,,,,,64,0,0,,,,
149999,note_on,480,0,0,,,,,,,,,0,,,72,0
150000,note_on,1,0,0,,,,,,,,,0,,,71,96
150239,note_on,239,0,0,,,,,,,,,0,,,71,0
150240,note_on,1,0,0,,,,,,,,,0,,,74,96
150479,note_on,239,0,0,,,,,,,,,0,,,74,0
150480,note_on,1,0,0,,,,,,,,,0,,,72,96
150719,note_on,239,0,0,,,,,,,,,0,,,72,0
150720,note_on,0,0,0,,,,,,,,,0,,,69,96
150720,set_tempo,1,1,0,,,,,,923080,,,,,,,
150959,note_on,239,0,0,,,,,,,,,0,,,69,0
150960,note_on,1,0,0,,,,,,,,,0,,,65,96
151199,note_on,239,0,0,,,,,,,,,0,,,65,0
151200,note_on,1,0,0,,,,,,,,,0,,,62,96
151439,note_on,239,0,0,,,,,,,,,0,,,62,0
151440,note_on,0,0,0,,,,,,,,,0,,,60,96
151440,set_tempo,1,1,0,,,,,,800000,,,,,,,
151679,note_on,239,0,0,,,,,,,,,0,,,60,0
151680,note_on,1,0,0,,,,,,,,,0,,,57,96
151839,note_on,159,0,0,,,,,,,,,0,,,57,0
151840,note_on,1,0,0,,,,,,,,,0,,,60,96
151999,note_on,159,0,0,,,,,,,,,0,,,60,0
152000,note_on,1,0,0,,,,,,,,,0,,,64,96
152159,note_on,159,0,0,,,,,,,,,0,,,64,0
152160,note_on,1,0,0,,,,,,,,,0,,,65,96
152319,note_on,159,0,0,,,,,,,,,0,,,65,0
152320,note_on,0,0,1,,,,,,,,,0,,,53,96
152320,note_on,1,0,0,,,,,,,,,0,,,69,96
152320,note_on,0,0,0,,,,,,,,,0,,,60,96
152320,note_on,2559,0,1,,,,,,,,,0,,,45,96
152479,note_on,159,0,0,,,,,,,,,0,,,69,0
152479,note_on,159,0,1,,,,,,,,,0,,,45,0
152479,note_on,0,0,0,,,,,,,,,0,,,60,0
152479,note_on,0,0,1,,,,,,,,,0,,,53,0
152480,note_on,0,0,0,,,,,,,,,0,,,64,104
152480,note_on,1,0,1,,,,,,,,,0,,,46,96
152480,note_on,0,0,1,,,,,,,,,0,,,55,96
152480,note_on,1,0,0,,,,,,,,,0,,,72,104
152631,note_on,0,0,1,,,,,,,,,0,,,55,0
152631,note_on,151,0,0,,,,,,,,,0,,,72,0
152631,note_on,151,0,1,,,,,,,,,0,,,46,0
152631,note_on,0,0,0,,,,,,,,,0,,,64,0
152640,note_on,0,0,0,,,,,,,,,0,,,64,112
152640,note_on,0,0,1,,,,,,,,,0,,,56,96
152640,set_tempo,9,1,0,,,,,,857140,,,,,,,
152640,note_on,0,0,0,,,,,,,,,0,,,72,112
152640,note_on,9,0,1,,,,,,,,,0,,,47,96
152880,note_on,0,0,1,,,,,,,,,0,,,56,0
152880,note_on,240,0,1,,,,,,,,,0,,,47,0
152880,note_on,240,0,0,,,,,,,,,0,,,64,0
152880,note_on,0,0,0,,,,,,,,,0,,,72,0
153000,note_on,120,0,1,,,,,,,,,0,,,56,96
153000,note_on,0,0,1,,,,,,,,,0,,,64,96
153119,note_on,0,0,1,,,,,,,,,0,,,64,0
153119,note_on,119,0,1,,,,,,,,,0,,,56,0
153120,note_on,0,0,0,,,,,,,,,0,,,68,112
153120,note_on,240,0,0,,,,,,,,,0,,,59,112
153120,note_on,0,0,0,,,,,,,,,0,,,64,112
153480,note_on,361,0,1,,,,,,,,,0,,,47,96
153593,note_on,113,0,1,,,,,,,,,0,,,47,0
153600,note_on,7,0,1,,,,,,,,,0,,,48,115
153602,control_change,2,0,1,,,,,,,64,127,0,,,,
153803,note_on,683,0,0,,,,,,,,,0,,,59,0
153803,note_on,0,0,0,,,,,,,,,0,,,64,0
153803,note_on,0,0,0,,,,,,,,,0,,,68,0
153840,note_on,0,0,0,,,,,,,,,0,,,63,112
153840,note_on,0,0,0,,,,,,,,,0,,,66,112
153840,note_on,37,0,0,,,,,,,,,0,,,57,112
154067,note_on,0,0,0,,,,,,,,,0,,,63,0
154067,note_on,0,0,0,,,,,,,,,0,,,66,0
154067,note_on,227,0,0,,,,,,,,,0,,,57,0
154080,set_tempo,13,1,0,,,,,,1090909,,,,,,,
154080,note_on,0,0,0,,,,,,,,,0,,,54,112
154081,note_on,479,0,1,,,,,,,,,0,,,48,0
154109,note_on,29,0,0,,,,,,,,,0,,,63,112
154138,note_on,29,0,0,,,,,,,,,0,,,69,112
154320,note_on,239,0,1,,,,,,,,,0,,,47,96
154438,note_on,0,0,0,,,,,,,,,0,,,69,0
154438,note_on,300,0,0,,,,,,,,,0,,,63,0
154439,note_on,1,0,0,,,,,,,,,0,,,54,0
154440,note_on,0,0,0,,,,,,,,,0,,,68,112
154440,note_on,0,0,0,,,,,,,,,0,,,63,112
154440,note_on,1,0,0,,,,,,,,,0,,,57,112
154547,note_on,227,0,1,,,,,,,,,0,,,47,0
154553,note_on,113,0,0,,,,,,,,,0,,,57,0
154553,note_on,0,0,0,,,,,,,,,0,,,68,0
154553,note_on,0,0,0,,,,,,,,,0,,,63,0
154560,note_on,13,0,1,,,,,,,,,0,,,28,127
154560,note_on,0,0,1,,,,,,,,,0,,,40,127
154560,note_on,0,0,0,,,,,,,,,0,,,64,112
154560,note_on,0,0,0,,,,,,,,,0,,,56,112
154560,set_tempo,7,1,0,,,,,,666667,,,,,,,
154561,control_change,1,0,1,,,,,,,64,0,0,,,,
154562,control_change,1,0,1,,,,,,,64,127,0,,,,
154719,note_on,0,0,1,,,,,,,,,0,,,40,0
154719,note_on,157,0,1,,,,,,,,,0,,,28,0
154787,note_on,0,0,0,,,,,,,,,0,,,64,0
154787,note_on,227,0,0,,,,,,,,,0,,,56,0
154800,note_on,13,0,0,,,,,,,,,0,,,68,112
154800,note_on,0,0,0,,,,,,,,,0,,,71,112
154800,note_on,0,0,0,,,,,,,,,0,,,76,112
154800,note_on,0,0,0,,,,,,,,,0,,,80,112
155027,note_on,0,0,0,,,,,,,,,0,,,71,0
155027,note_on,0,0,0,,,,,,,,,0,,,76,0
155027,note_on,227,0,0,,,,,,,,,0,,,68,0
155027,note_on,0,0,0,,,,,,,,,0,,,80,0
155040,note_on,321,0,1,,,,,,,,,0,,,47,96
155040,note_on,0,0,1,,,,,,,,,0,,,56,96
155040,note_on,0,0,1,,,,,,,,,0,,,52,96
155040,note_on,0,0,0,,,,,,,,,0,,,76,112
155040,note_on,0,0,1,,,,,,,,,0,,,59,96
155040,note_on,13,0,0,,,,,,,,,0,,,64,112
155040,note_on,0,0,0,,,,,,,,,0,,,68,112
155040,note_on,0,0,0,,,,,,,,,0,,,71,112
155191,note_on,0,0,1,,,,,,,,,0,,,59,0
155191,note_on,0,0,1,,,,,,,,,0,,,56,0
155191,note_on,0,0,1,,,,,,,,,0,,,52,0
155191,note_on,151,0,1,,,,,,,,,0,,,47,0
155200,note_on,9,0,1,,,,,,,,,0,,,47,96
155200,note_on,0,0,1,,,,,,,,,0,,,52,96
155200,note_on,0,0,1,,,,,,,,,0,,,56,96
155200,note_on,0,0,1,,,,,,,,,0,,,59,96
155267,note_on,0,0,0,,,,,,,,,0,,,71,0
155267,note_on,0,0,0,,,,,,,,,0,,,68,0
155267,note_on,0,0,0,,,,,,,,,0,,,76,0
155267,note_on,227,0,0,,,,,,,,,0,,,64,0
155280,note_on,0,0,0,,,,,,,,,0,,,80,112
155280,note_on,0,0,0,,,,,,,,,0,,,76,112
155280,note_on,0,0,0,,,,,,,,,0,,,71,112
155280,note_on,13,0,0,,,,,,,,,0,,,68,112
155351,note_on,0,0,1,,,,,,,,,0,,,52,0
155351,note_on,0,0,1,,,,,,,,,0,,,56,0
155351,note_on,0,0,1,,,,,,,,,0,,,59,0
155351,note_on,151,0,1,,,,,,,,,0,,,47,0
155360,note_on,9,0,1,,,,,,,,,0,,,47,96
155360,note_on,0,0,1,,,,,,,,,0,,,56,96
155360,note_on,0,0,1,,,,,,,,,0,,,59,96
155360,note_on,0,0,1,,,,,,,,,0,,,52,96
155507,note_on,227,0,0,,,,,,,,,0,,,68,0
155507,note_on,0,0,0,,,,,,,,,0,,,71,0
155507,note_on,0,0,0,,,,,,,,,0,,,76,0
155507,note_on,0,0,0,,,,,,,,,0,,,80,0
155511,note_on,0,0,1,,,,,,,,,0,,,52,0
155511,note_on,0,0,1,,,,,,,,,0,,,56,0
155511,note_on,151,0,1,,,,,,,,,0,,,47,0
155511,note_on,0,0,1,,,,,,,,,0,,,59,0
155520,note_on,9,0,1,,,,,,,,,0,,,47,96
155520,note_on,13,0,0,,,,,,,,,0,,,71,112
155520,note_on,0,0,0,,,,,,,,,0,,,80,112
155520,note_on,0,0,0,,,,,,,,,0,,,76,112
155520,note_on,0,0,1,,,,,,,,,0,,,59,96
155520,note_on,0,0,1,,,,,,,,,0,,,56,96
155520,note_on,0,0,1,,,,,,,,,0,,,52,96
155520,note_on,0,0,0,,,,,,,,,0,,,83,112
155671,note_on,0,0,1,,,,,,,,,0,,,52,0
155671,note_on,0,0,1,,,,,,,,,0,,,59,0
155671,note_on,151,0,1,,,,,,,,,0,,,47,0
155671,note_on,0,0,1,,,,,,,,,0,,,56,0
155680,note_on,0,0,1,,,,,,,,,0,,,59,96
155680,note_on,0,0,1,,,,,,,,,0,,,56,96
155680,note_on,0,0,1,,,,,,,,,0,,,52,96
155680,note_on,9,0,1,,,,,,,,,0,,,47,96
155747,note_on,0,0,0,,,,,,,,,0,,,76,0
155747,note_on,0,0,0,,,,,,,,,0,,,80,0
155747,note_on,0,0,0,,,,,,,,,0,,,83,0
155747,note_on,227,0,0,,,,,,,,,0,,,71,0
155760,note_on,0,0,0,,,,,,,,,0,,,80,112
155760,note_on,13,0,0,,,,,,,,,0,,,73,112
155760,note_on,0,0,0,,,,,,,,,0,,,76,112
155760,note_on,0,0,0,,,,,,,,,0,,,85,112
155831,note_on,0,0,1,,,,,,,,,0,,,56,0
155831,note_on,151,0,1,,,,,,,,,0,,,47,0
155831,note_on,0,0,1,,,,,,,,,0,,,52,0
155831,note_on,0,0,1,,,,,,,,,0,,,59,0
155840,note_on,9,0,1,,,,,,,,,0,,,47,96
155840,note_on,0,0,1,,,,,,,,,0,,,59,96
155840,note_on,0,0,1,,,,,,,,,0,,,56,96
155840,note_on,0,0,1,,,,,,,,,0,,,52,96
155987,note_on,0,0,0,,,,,,,,,0,,,76,0
155987,note_on,0,0,0,,,,,,,,,0,,,85,0
155987,note_on,227,0,0,,,,,,,,,0,,,73,0
155987,note_on,0,0,0,,,,,,,,,0,,,80,0
155991,note_on,151,0,1,,,,,,,,,0,,,47,0
155991,note_on,0,0,1,,,,,,,,,0,,,52,0
155991,note_on,0,0,1,,,,,,,,,0,,,56,0
155991,note_on,0,0,1,,,,,,,,,0,,,59,0
156000,note_on,0,0,1,,,,,,,,,0,,,59,96
156000,note_on,9,0,1,,,,,,,,,0,,,47,96
156000,note_on,13,0,0,,,,,,,,,0,,,71,112
156000,note_on,0,0,1,,,,,,,,,0,,,52,96
156000,note_on,0,0,1,,,,,,,,,0,,,56,96
156000,note_on,0,0,0,,,,,,,,,0,,,83,112
156000,note_on,0,0,0,,,,,,,,,0,,,76,112
156000,note_on,0,0,0,,,,,,,,,0,,,80,112
156078,note_on,0,0,1,,,,,,,,,0,,,52,0
156078,note_on,0,0,1,,,,,,,,,0,,,56,0
156078,note_on,0,0,1,,,,,,,,,0,,,59,0
156078,note_on,78,0,1,,,,,,,,,0,,,47,0
156227,note_on,0,0,0,,,,,,,,,0,,,76,0
156227,note_on,227,0,0,,,,,,,,,0,,,71,0
156227,note_on,0,0,0,,,,,,,,,0,,,80,0
156227,note_on,0,0,0,,,,,,,,,0,,,83,0
156240,note_on,0,0,0,,,,,,,,,0,,,80,112
156240,note_on,13,0,0,,,,,,,,,0,,,68,112
156240,note_on,0,0,0,,,,,,,,,0,,,76,112
156240,note_on,0,0,0,,,,,,,,,0,,,71,112
156467,note_on,227,0,0,,,,,,,,,0,,,68,0
156467,note_on,0,0,0,,,,,,,,,0,,,71,0
156467,note_on,0,0,0,,,,,,,,,0,,,76,0
156467,note_on,0,0,0,,,,,,,,,0,,,80,0
156480,note_on,0,0,1,,,,,,,,,0,,,40,115
156480,note_on,0,0,0,,,,,,,,,0,,,76,112
156480,note_on,0,0,0,,,,,,,,,0,,,71,112
156480,note_on,13,0,0,,,,,,,,,0,,,64,112
156480,note_on,402,0,1,,,,,,,,,0,,,28,115
156480,note_on,0,0,0,,,,,,,,,0,,,68,112
156481,control_change,1,0,1,,,,,,,64,0,0,,,,
156482,control_change,1,0,1,,,,,,,64,127,0,,,,
156639,note_on,157,0,1,,,,,,,,,0,,,28,0
156639,note_on,0,0,1,,,,,,,,,0,,,40,0
156707,note_on,227,0,0,,,,,,,,,0,,,64,0
156707,note_on,0,0,0,,,,,,,,,0,,,68,0
156707,note_on,0,0,0,,,,,,,,,0,,,71,0
156707,note_on,0,0,0,,,,,,,,,0,,,76,0
156720,note_on,13,0,0,,,,,,,,,0,,,68,112
156720,note_on,0,0,0,,,,,,,,,0,,,80,112
156720,note_on,0,0,0,,,,,,,,,0,,,76,112
156720,note_on,0,0,0,,,,,,,,,0,,,71,112
156947,note_on,0,0,0,,,,,,,,,0,,,80,0
156947,note_on,227,0,0,,,,,,,,,0,,,68,0
156947,note_on,0,0,0,,,,,,,,,0,,,76,0
156947,note_on,0,0,0,,,,,,,,,0,,,71,0
156960,note_on,13,0,0,,,,,,,,,0,,,71,112
156960,note_on,0,0,0,,,,,,,,,0,,,76,112
156960,note_on,0,0,1,,,,,,,,,0,,,56,96
156960,note_on,321,0,1,,,,,,,,,0,,,47,96
156960,note_on,0,0,1,,,,,,,,,0,,,59,96
156960,note_on,0,0,0,,,,,,,,,0,,,83,112
156960,note_on,0,0,0,,,,,,,,,0,,,80,112
156960,note_on,0,0,1,,,,,,,,,0,,,52,96
157111,note_on,151,0,1,,,,,,,,,0,,,47,0
157111,note_on,0,0,1,,,,,,,,,0,,,56,0
157111,note_on,0,0,1,,,,,,,,,0,,,59,0
157111,note_on,0,0,1,,,,,,,,,0,,,52,0
157120,note_on,0,0,1,,,,,,,,,0,,,52,96
157120,note_on,0,0,1,,,,,,,,,0,,,56,96
157120,note_on,9,0,1,,,,,,,,,0,,,47,96
157120,note_on,0,0,1,,,,,,,,,0,,,59,96
157187,note_on,0,0,0,,,,,,,,,0,,,80,0
157187,note_on,227,0,0,,,,,,,,,0,,,71,0
157187,note_on,0,0,0,,,,,,,,,0,,,83,0
157187,note_on,0,0,0,,,,,,,,,0,,,76,0
157200,note_on,13,0,0,,,,,,,,,0,,,73,112
157200,note_on,0,0,0,,,,,,,,,0,,,85,112
157200,note_on,0,0,0,,,,,,,,,0,,,76,112
157200,note_on,0,0,0,,,,,,,,,0,,,80,112
157271,note_on,0,0,1,,,,,,,,,0,,,56,0
157271,note_on,151,0,1,,,,,,,,,0,,,47,0
157271,note_on,0,0,1,,,,,,,,,0,,,59,0
157271,note_on,0,0,1,,,,,,,,,0,,,52,0
157280,note_on,9,0,1,,,,,,,,,0,,,47,96
157280,note_on,0,0,1,,,,,,,,,0,,,56,96
157280,note_on,0,0,1,,,,,,,,,0,,,59,96
157280,note_on,0,0,1,,,,,,,,,0,,,52,96
157427,note_on,0,0,0,,,,,,,,,0,,,76,0
157427,note_on,0,0,0,,,,,,,,,0,,,80,0
157427,note_on,0,0,0,,,,,,,,,0,,,85,0
157427,note_on,227,0,0,,,,,,,,,0,,,73,0
157431,note_on,0,0,1,,,,,,,,,0,,,52,0
157431,note_on,0,0,1,,,,,,,,,0,,,56,0
157431,note_on,151,0,1,,,,,,,,,0,,,47,0
157431,note_on,0,0,1,,,,,,,,,0,,,59,0
157440,note_on,9,0,1,,,,,,,,,0,,,47,96
157440,note_on,0,0,1,,,,,,,,,0,,,52,96
157440,note_on,0,0,0,,,,,,,,,0,,,83,112
157440,note_on,13,0,0,,,,,,,,,0,,,76,112
157440,note_on,0,0,0,,,,,,,,,0,,,80,112
157440,note_on,0,0,1,,,,,,,,,0,,,56,96
157440,note_on,0,0,1,,,,,,,,,0,,,59,96
157440,note_on,0,0,0,,,,,,,,,0,,,88,112
157591,note_on,151,0,1,,,,,,,,,0,,,47,0
157591,note_on,0,0,1,,,,,,,,,0,,,56,0
157591,note_on,0,0,1,,,,,,,,,0,,,59,0
157591,note_on,0,0,1,,,,,,,,,0,,,52,0
157600,note_on,9,0,1,,,,,,,,,0,,,47,96
157600,note_on,0,0,1,,,,,,,,,0,,,59,96
157600,note_on,0,0,1,,,,,,,,,0,,,56,96
157600,note_on,0,0,1,,,,,,,,,0,,,52,96
157667,note_on,227,0,0,,,,,,,,,0,,,76,0
157667,note_on,0,0,0,,,,,,,,,0,,,88,0
157667,note_on,0,0,0,,,,,,,,,0,,,83,0
157667,note_on,0,0,0,,,,,,,,,0,,,80,0
157680,note_on,13,0,0,,,,,,,,,0,,,80,113
157680,note_on,0,0,0,,,,,,,,,0,,,88,113
157680,note_on,0,0,0,,,,,,,,,0,,,92,113
157680,note_on,0,0,0,,,,,,,,,0,,,83,113
157751,note_on,151,0,1,,,,,,,,,0,,,47,0
157751,note_on,0,0,1,,,,,,,,,0,,,52,0
157751,note_on,0,0,1,,,,,,,,,0,,,56,0
157751,note_on,0,0,1,,,,,,,,,0,,,59,0
157760,note_on,9,0,1,,,,,,,,,0,,,47,97
157760,note_on,0,0,1,,,,,,,,,0,,,52,97
157760,note_on,0,0,1,,,,,,,,,0,,,56,97
157760,note_on,0,0,1,,,,,,,,,0,,,59,97
157907,note_on,227,0,0,,,,,,,,,0,,,80,0
157907,note_on,0,0,0,,,,,,,,,0,,,92,0
157907,note_on,0,0,0,,,,,,,,,0,,,88,0
157907,note_on,0,0,0,,,,,,,,,0,,,83,0
157911,note_on,0,0,1,,,,,,,,,0,,,52,0
157911,note_on,0,0,1,,,,,,,,,0,,,56,0
157911,note_on,151,0,1,,,,,,,,,0,,,47,0
157911,note_on,0,0,1,,,,,,,,,0,,,59,0
157920,note_on,0,0,0,,,,,,,,,0,,,95,114
157920,note_on,0,0,0,,,,,,,,,0,,,92,114
157920,note_on,13,0,0,,,,,,,,,0,,,83,114
157920,note_on,0,0,1,,,,,,,,,0,,,52,98
157920,note_on,0,0,1,,,,,,,,,0,,,56,98
157920,note_on,0,0,1,,,,,,,,,0,,,59,98
157920,note_on,0,0,0,,,,,,,,,0,,,88,114
157920,note_on,9,0,1,,,,,,,,,0,,,47,98
157998,note_on,78,0,1,,,,,,,,,0,,,47,0
157998,note_on,0,0,1,,,,,,,,,0,,,59,0
157998,note_on,0,0,1,,,,,,,,,0,,,56,0
157998,note_on,0,0,1,,,,,,,,,0,,,52,0
158147,note_on,0,0,0,,,,,,,,,0,,,88,0
158147,note_on,0,0,0,,,,,,,,,0,,,95,0
158147,note_on,227,0,0,,,,,,,,,0,,,83,0
158147,note_on,0,0,0,,,,,,,,,0,,,92,0
158160,note_on,0,0,0,,,,,,,,,0,,,88,115
158160,note_on,0,0,0,,,,,,,,,0,,,92,115
158160,note_on,0,0,0,,,,,,,,,0,,,97,115
158160,note_on,13,0,0,,,,,,,,,0,,,85,115
158387,note_on,0,0,0,,,,,,,,,0,,,97,0
158387,note_on,0,0,0,,,,,,,,,0,,,92,0
158387,note_on,0,0,0,,,,,,,,,0,,,88,0
158387,note_on,227,0,0,,,,,,,,,0,,,85,0
158400,note_on,13,0,0,,,,,,,,,0,,,87,127
158400,note_on,0,0,1,,,,,,,,,0,,,35,0
158400,note_on,0,0,1,,,,,,,,,0,,,35,112
158400,note_on,402,0,1,,,,,,,,,0,,,35,112
158400,note_on,0,0,0,,,,,,,,,0,,,99,127
158400,note_on,0,0,0,,,,,,,,,0,,,95,127
158400,note_on,0,0,0,,,,,,,,,0,,,90,127
158401,control_change,1,0,1,,,,,,,64,0,0,,,,
158402,control_change,1,0,1,,,,,,,64,127,0,,,,
158560,note_on,158,0,1,,,,,,,,,0,,,47,112
158703,note_on,143,0,1,,,,,,,,,0,,,35,0
158711,note_on,8,0,1,,,,,,,,,0,,,47,0
158720,note_on,0,0,1,,,,,,,,,0,,,42,0
158720,note_on,0,0,1,,,,,,,,,0,,,42,113
158720,note_on,9,0,1,,,,,,,,,0,,,42,113
158880,note_on,160,0,1,,,,,,,,,0,,,54,114
159023,note_on,143,0,1,,,,,,,,,0,,,42,0
159031,note_on,8,0,1,,,,,,,,,0,,,54,0
159040,note_on,0,0,1,,,,,,,,,0,,,47,0
159040,note_on,9,0,1,,,,,,,,,0,,,47,115
159040,note_on,0,0,1,,,,,,,,,0,,,47,115
159042,note_on,0,0,0,,,,,,,,,0,,,90,0
159042,note_on,0,0,0,,,,,,,,,0,,,95,0
159042,note_on,0,0,0,,,,,,,,,0,,,99,0
159042,note_on,642,0,0,,,,,,,,,0,,,87,0
159200,note_on,160,0,1,,,,,,,,,0,,,59,116
159343,note_on,143,0,1,,,,,,,,,0,,,47,0
159351,note_on,8,0,1,,,,,,,,,0,,,59,0
159360,note_on,0,0,0,,,,,,,,,0,,,90,122
159360,note_on,0,0,0,,,,,,,,,0,,,95,122
159360,note_on,318,0,0,,,,,,,,,0,,,83,122
159360,note_on,0,0,1,,,,,,,,,0,,,54,117
159360,note_on,0,0,1,,,,,,,,,0,,,54,0
159360,note_on,9,0,1,,,,,,,,,0,,,54,117
159360,note_on,0,0,0,,,,,,,,,0,,,87,122
159517,note_on,0,0,0,,,,,,,,,0,,,90,0
159517,note_on,157,0,0,,,,,,,,,0,,,83,0
159517,note_on,0,0,0,,,,,,,,,0,,,87,0
159517,note_on,0,0,0,,,,,,,,,0,,,95,0
159520,note_on,160,0,1,,,,,,,,,0,,,66,117
159663,note_on,143,0,1,,,,,,,,,0,,,54,0
159671,note_on,8,0,1,,,,,,,,,0,,,66,0
159680,note_on,0,0,1,,,,,,,,,0,,,47,117
159680,note_on,9,0,1,,,,,,,,,0,,,47,117
159680,note_on,0,0,1,,,,,,,,,0,,,47,0
159840,note_on,160,0,1,,,,,,,,,0,,,59,117
159983,note_on,143,0,1,,,,,,,,,0,,,47,0
159991,note_on,8,0,1,,,,,,,,,0,,,59,0
160000,note_on,0,0,1,,,,,,,,,0,,,42,117
160000,note_on,0,0,1,,,,,,,,,0,,,42,0
160000,note_on,9,0,1,,,,,,,,,0,,,42,117
160160,note_on,160,0,1,,,,,,,,,0,,,54,117
160200,note_on,0,0,0,,,,,,,,,0,,,66,122
160200,note_on,0,0,0,,,,,,,,,0,,,71,122
160200,note_on,0,0,0,,,,,,,,,0,,,75,122
160200,note_on,683,0,0,,,,,,,,,0,,,63,122
160303,note_on,143,0,1,,,,,,,,,0,,,42,0
160311,note_on,8,0,1,,,,,,,,,0,,,54,0
160313,note_on,113,0,0,,,,,,,,,0,,,63,0
160313,note_on,0,0,0,,,,,,,,,0,,,66,0
160313,note_on,0,0,0,,,,,,,,,0,,,75,0
160313,note_on,0,0,0,,,,,,,,,0,,,71,0
160320,note_on,0,0,0,,,,,,,,,0,,,75,127
160320,note_on,7,0,0,,,,,,,,,0,,,63,127
160320,note_on,0,0,0,,,,,,,,,0,,,66,127
160320,note_on,0,0,1,,,,,,,,,0,,,35,0
160320,note_on,9,0,1,,,,,,,,,0,,,35,117
160320,note_on,0,0,1,,,,,,,,,0,,,35,117
160320,note_on,0,0,0,,,,,,,,,0,,,71,127
160321,control_change,1,0,1,,,,,,,64,0,0,,,,
160322,control_change,1,0,1,,,,,,,64,127,0,,,,
160480,note_on,158,0,1,,,,,,,,,0,,,47,117
160623,note_on,143,0,1,,,,,,,,,0,,,35,0
160631,note_on,8,0,1,,,,,,,,,0,,,47,0
160640,note_on,0,0,1,,,,,,,,,0,,,42,0
160640,note_on,9,0,1,,,,,,,,,0,,,42,117
160640,note_on,0,0,1,,,,,,,,,0,,,42,117
160800,note_on,160,0,1,,,,,,,,,0,,,54,117
160943,note_on,143,0,1,,,,,,,,,0,,,42,0
160951,note_on,8,0,1,,,,,,,,,0,,,54,0
160960,note_on,9,0,1,,,,,,,,,0,,,47,117
160960,note_on,0,0,1,,,,,,,,,0,,,47,0
160960,note_on,0,0,1,,,,,,,,,0,,,47,117
160962,note_on,642,0,0,,,,,,,,,0,,,63,0
160962,note_on,0,0,0,,,,,,,,,0,,,75,0
160962,note_on,0,0,0,,,,,,,,,0,,,71,0
160962,note_on,0,0,0,,,,,,,,,0,,,66,0
161120,note_on,160,0,1,,,,,,,,,0,,,59,117
161263,note_on,143,0,1,,,,,,,,,0,,,47,0
161271,note_on,8,0,1,,,,,,,,,0,,,59,0
161280,note_on,0,0,0,,,,,,,,,0,,,66,122
161280,note_on,0,0,0,,,,,,,,,0,,,63,122
161280,note_on,318,0,0,,,,,,,,,0,,,59,122
161280,note_on,0,0,0,,,,,,,,,0,,,71,122
161437,note_on,0,0,0,,,,,,,,,0,,,66,0
161437,note_on,157,0,0,,,,,,,,,0,,,59,0
161437,note_on,0,0,0,,,,,,,,,0,,,63,0
161437,note_on,0,0,0,,,,,,,,,0,,,71,0
161520,note_on,249,0,1,,,,,,,,,0,,,42,117
161520,note_on,0,0,1,,,,,,,,,0,,,54,117
161598,note_on,78,0,1,,,,,,,,,0,,,42,0
161598,note_on,0,0,1,,,,,,,,,0,,,54,0
161760,note_on,0,0,1,,,,,,,,,0,,,47,117
161760,note_on,162,0,1,,,,,,,,,0,,,35,117
161838,note_on,78,0,1,,,,,,,,,0,,,35,0
161838,note_on,0,0,1,,,,,,,,,0,,,47,0
162000,note_on,162,0,1,,,,,,,,,0,,,30,117
162000,note_on,0,0,1,,,,,,,,,0,,,42,117
162078,note_on,78,0,1,,,,,,,,,0,,,30,0
162078,note_on,0,0,1,,,,,,,,,0,,,42,0
162240,note_on,162,0,1,,,,,,,,,0,,,26,127
162240,note_on,0,0,1,,,,,,,,,0,,,38,127
162241,control_change,1,0,1,,,,,,,64,0,0,,,,
162242,control_change,1,0,1,,,,,,,64,127,0,,,,
162399,note_on,157,0,1,,,,,,,,,0,,,26,0
162399,note_on,0,0,1,,,,,,,,,0,,,38,0
162480,note_on,0,0,0,,,,,,,,,0,,,74,112
162480,note_on,0,0,0,,,,,,,,,0,,,69,112
162480,note_on,0,0,0,,,,,,,,,0,,,78,112
162480,note_on,1043,0,0,,,,,,,,,0,,,66,112
162707,note_on,227,0,0,,,,,,,,,0,,,66,0
162707,note_on,0,0,0,,,,,,,,,0,,,69,0
162707,note_on,0,0,0,,,,,,,,,0,,,74,0
162707,note_on,0,0,0,,,,,,,,,0,,,78,0
162720,note_on,0,0,0,,,,,,,,,0,,,74,112
162720,note_on,0,0,0,,,,,,,,,0,,,69,112
162720,note_on,0,0,0,,,,,,,,,0,,,66,112
162720,note_on,13,0,0,,,,,,,,,0,,,62,112
162720,note_on,0,0,1,,,,,,,,,0,,,57,96
162720,note_on,321,0,1,,,,,,,,,0,,,45,96
162720,note_on,0,0,1,,,,,,,,,0,,,50,96
162720,note_on,0,0,1,,,,,,,,,0,,,54,96
162871,note_on,0,0,1,,,,,,,,,0,,,50,0
162871,note_on,0,0,1,,,,,,,,,0,,,54,0
162871,note_on,0,0,1,,,,,,,,,0,,,57,0
162871,note_on,151,0,1,,,,,,,,,0,,,45,0
162880,note_on,9,0,1,,,,,,,,,0,,,45,96
162880,note_on,0,0,1,,,,,,,,,0,,,54,96
162880,note_on,0,0,1,,,,,,,,,0,,,57,96
162880,note_on,0,0,1,,,,,,,,,0,,,50,96
162947,note_on,227,0,0,,,,,,,,,0,,,62,0
162947,note_on,0,0,0,,,,,,,,,0,,,66,0
162947,note_on,0,0,0,,,,,,,,,0,,,74,0
162947,note_on,0,0,0,,,,,,,,,0,,,69,0
162960,note_on,0,0,0,,,,,,,,,0,,,74,112
162960,note_on,0,0,0,,,,,,,,,0,,,69,112
162960,note_on,13,0,0,,,,,,,,,0,,,66,112
162960,note_on,0,0,0,,,,,,,,,0,,,78,112
163031,note_on,0,0,1,,,,,,,,,0,,,57,0
163031,note_on,0,0,1,,,,,,,,,0,,,54,0
163031,note_on,0,0,1,,,,,,,,,0,,,50,0
163031,note_on,151,0,1,,,,,,,,,0,,,45,0
163040,note_on,0,0,1,,,,,,,,,0,,,57,96
163040,note_on,0,0,1,,,,,,,,,0,,,54,96
163040,note_on,0,0,1,,,,,,,,,0,,,50,96
163040,note_on,9,0,1,,,,,,,,,0,,,45,96
163187,note_on,227,0,0,,,,,,,,,0,,,66,0
163187,note_on,0,0,0,,,,,,,,,0,,,78,0
163187,note_on,0,0,0,,,,,,,,,0,,,74,0
163187,note_on,0,0,0,,,,,,,,,0,,,69,0
163191,note_on,0,0,1,,,,,,,,,0,,,50,0
163191,note_on,0,0,1,,,,,,,,,0,,,54,0
163191,note_on,0,0,1,,,,,,,,,0,,,57,0
163191,note_on,151,0,1,,,,,,,,,0,,,45,0
163200,note_on,0,0,1,,,,,,,,,0,,,54,96
163200,note_on,9,0,1,,,,,,,,,0,,,45,96
163200,note_on,13,0,0,,,,,,,,,0,,,69,112
163200,note_on,0,0,0,,,,,,,,,0,,,81,112
163200,note_on,0,0,0,,,,,,,,,0,,,78,112
163200,note_on,0,0,1,,,,,,,,,0,,,50,96
163200,note_on,0,0,1,,,,,,,,,0,,,57,96
163200,note_on,0,0,0,,,,,,,,,0,,,74,112
163351,note_on,0,0,1,,,,,,,,,0,,,54,0
163351,note_on,0,0,1,,,,,,,,,0,,,57,0
163351,note_on,0,0,1,,,,,,,,,0,,,50,0
163351,note_on,151,0,1,,,,,,,,,0,,,45,0
163360,note_on,0,0,1,,,,,,,,,0,,,50,96
163360,note_on,0,0,1,,,,,,,,,0,,,54,96
163360,note_on,0,0,1,,,,,,,,,0,,,57,96
163360,note_on,9,0,1,,,,,,,,,0,,,45,96
163427,note_on,0,0,0,,,,,,,,,0,,,78,0
163427,note_on,0,0,0,,,,,,,,,0,,,81,0
163427,note_on,227,0,0,,,,,,,,,0,,,69,0
163427,note_on,0,0,0,,,,,,,,,0,,,74,0
163440,note_on,0,0,0,,,,,,,,,0,,,83,112
163440,note_on,0,0,0,,,,,,,,,0,,,74,112
163440,note_on,0,0,0,,,,,,,,,0,,,78,112
163440,note_on,13,0,0,,,,,,,,,0,,,71,112
163511,note_on,0,0,1,,,,,,,,,0,,,50,0
163511,note_on,0,0,1,,,,,,,,,0,,,54,0
163511,note_on,151,0,1,,,,,,,,,0,,,45,0
163511,note_on,0,0,1,,,,,,,,,0,,,57,0
163520,note_on,0,0,1,,,,,,,,,0,,,54,96
163520,note_on,0,0,1,,,,,,,,,0,,,57,96
163520,note_on,0,0,1,,,,,,,,,0,,,50,96
163520,note_on,9,0,1,,,,,,,,,0,,,45,96
163667,note_on,0,0,0,,,,,,,,,0,,,74,0
163667,note_on,0,0,0,,,,,,,,,0,,,83,0
163667,note_on,227,0,0,,,,,,,,,0,,,71,0
163667,note_on,0,0,0,,,,,,,,,0,,,78,0
163671,note_on,151,0,1,,,,,,,,,0,,,45,0
163671,note_on,0,0,1,,,,,,,,,0,,,50,0
163671,note_on,0,0,1,,,,,,,,,0,,,57,0
163671,note_on,0,0,1,,,,,,,,,0,,,54,0
163680,note_on,13,0,0,,,,,,,,,0,,,69,112
163680,note_on,0,0,0,,,,,,,,,0,,,78,112
163680,note_on,0,0,0,,,,,,,,,0,,,81,112
163680,note_on,9,0,1,,,,,,,,,0,,,45,96
163680,note_on,0,0,1,,,,,,,,,0,,,57,96
163680,note_on,0,0,1,,,,,,,,,0,,,54,96
163680,note_on,0,0,1,,,,,,,,,0,,,50,96
163680,note_on,0,0,0,,,,,,,,,0,,,74,112
163907,note_on,0,0,0,,,,,,,,,0,,,74,0
163907,note_on,227,0,1,,,,,,,,,0,,,45,0
163907,note_on,227,0,0,,,,,,,,,0,,,69,0
163907,note_on,0,0,0,,,,,,,,,0,,,78,0
163907,note_on,0,0,0,,,,,,,,,0,,,81,0
163907,note_on,0,0,1,,,,,,,,,0,,,50,0
163907,note_on,0,0,1,,,,,,,,,0,,,54,0
163907,note_on,0,0,1,,,,,,,,,0,,,57,0
163920,note_on,0,0,0,,,,,,,,,0,,,69,112
163920,note_on,0,0,0,,,,,,,,,0,,,74,112
163920,note_on,13,0,0,,,,,,,,,0,,,66,112
163920,note_on,0,0,0,,,,,,,,,0,,,78,112
164147,note_on,0,0,0,,,,,,,,,0,,,78,0
164147,note_on,0,0,0,,,,,,,,,0,,,74,0
164147,note_on,227,0,0,,,,,,,,,0,,,66,0
164147,note_on,0,0,0,,,,,,,,,0,,,69,0
164160,note_on,0,0,0,,,,,,,,,0,,,74,112
164160,note_on,0,0,1,,,,,,,,,0,,,38,115
164160,note_on,13,0,0,,,,,,,,,0,,,62,112
164160,note_on,0,0,0,,,,,,,,,0,,,66,112
164160,note_on,0,0,0,,,,,,,,,0,,,69,112
164160,note_on,253,0,1,,,,,,,,,0,,,26,115
164161,control_change,1,0,1,,,,,,,64,0,0,,,,
164162,control_change,1,0,1,,,,,,,64,127,0,,,,
164319,note_on,157,0,1,,,,,,,,,0,,,26,0
164319,note_on,0,0,1,,,,,,,,,0,,,38,0
164387,note_on,0,0,0,,,,,,,,,0,,,74,0
164387,note_on,227,0,0,,,,,,,,,0,,,62,0
164387,note_on,0,0,0,,,,,,,,,0,,,69,0
164387,note_on,0,0,0,,,,,,,,,0,,,66,0
164400,note_on,0,0,0,,,,,,,,,0,,,78,112
164400,note_on,0,0,0,,,,,,,,,0,,,74,112
164400,note_on,0,0,0,,,,,,,,,0,,,69,112
164400,note_on,13,0,0,,,,,,,,,0,,,66,112
164627,note_on,0,0,0,,,,,,,,,0,,,78,0
164627,note_on,0,0,0,,,,,,,,,0,,,74,0
164627,note_on,0,0,0,,,,,,,,,0,,,69,0
164627,note_on,227,0,0,,,,,,,,,0,,,66,0
164640,note_on,0,0,0,,,,,,,,,0,,,81,113
164640,note_on,0,0,1,,,,,,,,,0,,,50,97
164640,note_on,0,0,1,,,,,,,,,0,,,54,97
164640,note_on,13,0,0,,,,,,,,,0,,,69,113
164640,note_on,0,0,1,,,,,,,,,0,,,57,97
164640,note_on,0,0,0,,,,,,,,,0,,,78,113
164640,note_on,0,0,0,,,,,,,,,0,,,74,113
164640,note_on,321,0,1,,,,,,,,,0,,,45,97
164791,note_on,0,0,1,,,,,,,,,0,,,50,0
164791,note_on,0,0,1,,,,,,,,,0,,,57,0
164791,note_on,0,0,1,,,,,,,,,0,,,54,0
164791,note_on,151,0,1,,,,,,,,,0,,,45,0
164800,note_on,9,0,1,,,,,,,,,0,,,45,97
164800,note_on,0,0,1,,,,,,,,,0,,,54,97
164800,note_on,0,0,1,,,,,,,,,0,,,57,97
164800,note_on,0,0,1,,,,,,,,,0,,,50,97
164867,note_on,227,0,0,,,,,,,,,0,,,69,0
164867,note_on,0,0,0,,,,,,,,,0,,,74,0
164867,note_on,0,0,0,,,,,,,,,0,,,78,0
164867,note_on,0,0,0,,,,,,,,,0,,,81,0
164880,note_on,0,0,0,,,,,,,,,0,,,83,113
164880,note_on,0,0,0,,,,,,,,,0,,,78,113
164880,note_on,0,0,0,,,,,,,,,0,,,74,113
164880,note_on,13,0,0,,,,,,,,,0,,,71,113
164951,note_on,0,0,1,,,,,,,,,0,,,50,0
164951,note_on,0,0,1,,,,,,,,,0,,,54,0
164951,note_on,0,0,1,,,,,,,,,0,,,57,0
164951,note_on,151,0,1,,,,,,,,,0,,,45,0
164960,note_on,9,0,1,,,,,,,,,0,,,45,98
164960,note_on,0,0,1,,,,,,,,,0,,,54,98
164960,note_on,0,0,1,,,,,,,,,0,,,50,98
164960,note_on,0,0,1,,,,,,,,,0,,,57,98
165107,note_on,0,0,0,,,,,,,,,0,,,83,0
165107,note_on,0,0,0,,,,,,,,,0,,,74,0
165107,note_on,227,0,0,,,,,,,,,0,,,71,0
165107,note_on,0,0,0,,,,,,,,,0,,,78,0
165111,note_on,0,0,1,,,,,,,,,0,,,50,0
165111,note_on,0,0,1,,,,,,,,,0,,,54,0
165111,note_on,0,0,1,,,,,,,,,0,,,57,0
165111,note_on,151,0,1,,,,,,,,,0,,,45,0
165120,note_on,0,0,1,,,,,,,,,0,,,50,98
165120,note_on,0,0,0,,,,,,,,,0,,,78,114
165120,note_on,0,0,1,,,,,,,,,0,,,57,98
165120,note_on,13,0,0,,,,,,,,,0,,,74,114
165120,note_on,0,0,0,,,,,,,,,0,,,86,114
165120,note_on,0,0,0,,,,,,,,,0,,,81,114
165120,note_on,0,0,1,,,,,,,,,0,,,54,98
165120,note_on,9,0,1,,,,,,,,,0,,,45,98
165271,note_on,0,0,1,,,,,,,,,0,,,54,0
165271,note_on,151,0,1,,,,,,,,,0,,,45,0
165271,note_on,0,0,1,,,,,,,,,0,,,50,0
165271,note_on,0,0,1,,,,,,,,,0,,,57,0
165280,note_on,9,0,1,,,,,,,,,0,,,45,98
165280,note_on,0,0,1,,,,,,,,,0,,,57,98
165280,note_on,0,0,1,,,,,,,,,0,,,50,98
165280,note_on,0,0,1,,,,,,,,,0,,,54,98
165347,note_on,0,0,0,,,,,,,,,0,,,78,0
165347,note_on,0,0,0,,,,,,,,,0,,,86,0
165347,note_on,227,0,0,,,,,,,,,0,,,74,0
165347,note_on,0,0,0,,,,,,,,,0,,,81,0
165360,note_on,13,0,0,,,,,,,,,0,,,78,115
165360,note_on,0,0,0,,,,,,,,,0,,,86,115
165360,note_on,0,0,0,,,,,,,,,0,,,81,115
165360,note_on,0,0,0,,,,,,,,,0,,,90,115
165431,note_on,0,0,1,,,,,,,,,0,,,50,0
165431,note_on,0,0,1,,,,,,,,,0,,,54,0
165431,note_on,151,0,1,,,,,,,,,0,,,45,0
165431,note_on,0,0,1,,,,,,,,,0,,,57,0
165440,note_on,0,0,1,,,,,,,,,0,,,57,99
165440,note_on,9,0,1,,,,,,,,,0,,,45,99
165440,note_on,0,0,1,,,,,,,,,0,,,50,99
165440,note_on,0,0,1,,,,,,,,,0,,,54,99
165587,note_on,227,0,0,,,,,,,,,0,,,78,0
165587,note_on,0,0,0,,,,,,,,,0,,,90,0
165587,note_on,0,0,0,,,,,,,,,0,,,86,0
165587,note_on,0,0,0,,,,,,,,,0,,,81,0
165591,note_on,151,0,1,,,,,,,,,0,,,45,0
165591,note_on,0,0,1,,,,,,,,,0,,,57,0
165591,note_on,0,0,1,,,,,,,,,0,,,50,0
165591,note_on,0,0,1,,,,,,,,,0,,,54,0
165600,note_on,13,0,0,,,,,,,,,0,,,81,115
165600,note_on,9,0,1,,,,,,,,,0,,,45,99
165600,note_on,0,0,1,,,,,,,,,0,,,57,99
165600,note_on,0,0,0,,,,,,,,,0,,,86,115
165600,note_on,0,0,1,,,,,,,,,0,,,54,99
165600,note_on,0,0,1,,,,,,,,,0,,,50,99
165600,note_on,0,0,0,,,,,,,,,0,,,90,115
165600,note_on,0,0,0,,,,,,,,,0,,,93,115
165827,note_on,0,0,0,,,,,,,,,0,,,93,0
165827,note_on,227,0,0,,,,,,,,,0,,,81,0
165827,note_on,0,0,1,,,,,,,,,0,,,50,0
165827,note_on,227,0,1,,,,,,,,,0,,,45,0
165827,note_on,0,0,0,,,,,,,,,0,,,86,0
165827,note_on,0,0,0,,,,,,,,,0,,,90,0
165827,note_on,0,0,1,,,,,,,,,0,,,57,0
165827,note_on,0,0,1,,,,,,,,,0,,,54,0
165840,note_on,13,0,0,,,,,,,,,0,,,83,116
165840,note_on,0,0,0,,,,,,,,,0,,,95,116
165840,note_on,0,0,0,,,,,,,,,0,,,90,116
165840,note_on,0,0,0,,,,,,,,,0,,,86,116
166067,note_on,0,0,0,,,,,,,,,0,,,90,0
166067,note_on,0,0,0,,,,,,,,,0,,,86,0
166067,note_on,227,0,0,,,,,,,,,0,,,83,0
166067,note_on,0,0,0,,,,,,,,,0,,,95,0
166080,note_on,0,0,1,,,,,,,,,0,,,33,0
166080,note_on,253,0,1,,,,,,,,,0,,,33,112
166080,note_on,0,0,1,,,,,,,,,0,,,33,112
166080,note_on,0,0,0,,,,,,,,,0,,,88,127
166080,note_on,0,0,0,,,,,,,,,0,,,93,127
166080,note_on,0,0,0,,,,,,,,,0,,,97,127
166080,note_on,13,0,0,,,,,,,,,0,,,85,127
166081,control_change,1,0,1,,,,,,,64,0,0,,,,
166082,control_change,1,0,1,,,,,,,64,127,0,,,,
166240,note_on,158,0,1,,,,,,,,,0,,,45,112
166383,note_on,143,0,1,,,,,,,,,0,,,33,0
166391,note_on,8,0,1,,,,,,,,,0,,,45,0
166400,note_on,0,0,1,,,,,,,,,0,,,40,0
166400,note_on,0,0,1,,,,,,,,,0,,,40,113
166400,note_on,9,0,1,,,,,,,,,0,,,40,113
166560,note_on,160,0,1,,,,,,,,,0,,,52,114
166703,note_on,143,0,1,,,,,,,,,0,,,40,0
166711,note_on,8,0,1,,,,,,,,,0,,,52,0
166720,note_on,9,0,1,,,,,,,,,0,,,45,115
166720,note_on,0,0,1,,,,,,,,,0,,,45,0
166720,note_on,0,0,1,,,,,,,,,0,,,45,115
166722,note_on,642,0,0,,,,,,,,,0,,,85,0
166722,note_on,0,0,0,,,,,,,,,0,,,88,0
166722,note_on,0,0,0,,,,,,,,,0,,,97,0
166722,note_on,0,0,0,,,,,,,,,0,,,93,0
166880,note_on,160,0,1,,,,,,,,,0,,,57,116
167023,note_on,143,0,1,,,,,,,,,0,,,45,0
167031,note_on,8,0,1,,,,,,,,,0,,,57,0
167040,note_on,0,0,0,,,,,,,,,0,,,85,117
167040,note_on,0,0,0,,,,,,,,,0,,,88,117
167040,note_on,0,0,0,,,,,,,,,0,,,93,117
167040,note_on,318,0,0,,,,,,,,,0,,,81,117
167040,note_on,9,0,1,,,,,,,,,0,,,52,117
167040,note_on,0,0,1,,,,,,,,,0,,,52,117
167040,note_on,0,0,1,,,,,,,,,0,,,52,0
167200,note_on,160,0,1,,,,,,,,,0,,,64,117
167279,note_on,0,0,0,,,,,,,,,0,,,85,0
167279,note_on,0,0,0,,,,,,,,,0,,,88,0
167279,note_on,0,0,0,,,,,,,,,0,,,93,0
167279,note_on,239,0,0,,,,,,,,,0,,,81,0
167343,note_on,143,0,1,,,,,,,,,0,,,52,0
167351,note_on,8,0,1,,,,,,,,,0,,,64,0
167360,note_on,9,0,1,,,,,,,,,0,,,45,117
167360,note_on,0,0,1,,,,,,,,,0,,,45,0
167360,note_on,0,0,1,,,,,,,,,0,,,45,117
167520,note_on,160,0,1,,,,,,,,,0,,,57,117
167663,note_on,143,0,1,,,,,,,,,0,,,45,0
167671,note_on,8,0,1,,,,,,,,,0,,,57,0
167680,note_on,0,0,1,,,,,,,,,0,,,40,117
167680,note_on,9,0,1,,,,,,,,,0,,,40,117
167680,note_on,0,0,1,,,,,,,,,0,,,40,0
167840,note_on,160,0,1,,,,,,,,,0,,,52,117
167880,note_on,0,0,0,,,,,,,,,0,,,73,117
167880,note_on,0,0,0,,,,,,,,,0,,,69,117
167880,note_on,0,0,0,,,,,,,,,0,,,64,117
167880,note_on,601,0,0,,,,,,,,,0,,,61,117
167983,note_on,143,0,1,,,,,,,,,0,,,40,0
167991,note_on,8,0,1,,,,,,,,,0,,,52,0
167993,note_on,0,0,0,,,,,,,,,0,,,73,0
167993,note_on,0,0,0,,,,,,,,,0,,,69,0
167993,note_on,0,0,0,,,,,,,,,0,,,64,0
167993,note_on,113,0,0,,,,,,,,,0,,,61,0
168000,note_on,0,0,1,,,,,,,,,0,,,33,0
168000,note_on,9,0,1,,,,,,,,,0,,,33,117
168000,note_on,7,0,0,,,,,,,,,0,,,61,127
168000,note_on,0,0,1,,,,,,,,,0,,,33,117
168000,note_on,0,0,0,,,,,,,,,0,,,64,127
168000,note_on,0,0,0,,,,,,,,,0,,,69,127
168000,note_on,0,0,0,,,,,,,,,0,,,73,127
168001,control_change,1,0,1,,,,,,,64,0,0,,,,
168002,control_change,1,0,1,,,,,,,64,127,0,,,,
168160,note_on,158,0,1,,,,,,,,,0,,,45,117
168303,note_on,143,0,1,,,,,,,,,0,,,33,0
168311,note_on,8,0,1,,,,,,,,,0,,,45,0
168320,note_on,0,0,1,,,,,,,,,0,,,40,117
168320,note_on,9,0,1,,,,,,,,,0,,,40,117
168320,note_on,0,0,1,,,,,,,,,0,,,40,0
168480,note_on,160,0,1,,,,,,,,,0,,,52,117
168623,note_on,143,0,1,,,,,,,,,0,,,40,0
168631,note_on,8,0,1,,,,,,,,,0,,,52,0
168640,note_on,9,0,1,,,,,,,,,0,,,45,117
168640,note_on,0,0,1,,,,,,,,,0,,,45,117
168640,note_on,0,0,1,,,,,,,,,0,,,45,0
168642,note_on,0,0,0,,,,,,,,,0,,,64,0
168642,note_on,0,0,0,,,,,,,,,0,,,73,0
168642,note_on,642,0,0,,,,,,,,,0,,,61,0
168642,note_on,0,0,0,,,,,,,,,0,,,69,0
168800,note_on,160,0,1,,,,,,,,,0,,,57,117
168943,note_on,143,0,1,,,,,,,,,0,,,45,0
168951,note_on,8,0,1,,,,,,,,,0,,,57,0
168960,note_on,0,0,0,,,,,,,,,0,,,61,117
168960,note_on,0,0,0,,,,,,,,,0,,,69,117
168960,note_on,318,0,0,,,,,,,,,0,,,57,117
168960,note_on,0,0,0,,,,,,,,,0,,,64,117
169199,note_on,0,0,0,,,,,,,,,0,,,61,0
169199,note_on,0,0,0,,,,,,,,,0,,,64,0
169199,note_on,0,0,0,,,,,,,,,0,,,69,0
169199,note_on,239,0,0,,,,,,,,,0,,,57,0
169200,note_on,0,0,1,,,,,,,,,0,,,52,117
169200,note_on,249,0,1,,,,,,,,,0,,,40,117
169319,note_on,119,0,1,,,,,,,,,0,,,40,0
169319,note_on,0,0,1,,,,,,,,,0,,,52,0
169440,note_on,121,0,1,,,,,,,,,0,,,33,117
169440,note_on,0,0,1,,,,,,,,,0,,,45,117
169559,note_on,0,0,1,,,,,,,,,0,,,45,0
169559,note_on,119,0,1,,,,,,,,,0,,,33,0
169680,note_on,0,0,1,,,,,,,,,0,,,40,117
169680,note_on,121,0,1,,,,,,,,,0,,,28,117
169799,note_on,0,0,1,,,,,,,,,0,,,40,0
169799,note_on,119,0,1,,,,,,,,,0,,,28,0
169920,note_on,0,0,1,,,,,,,,,0,,,36,127
169920,note_on,121,0,1,,,,,,,,,0,,,24,127
169921,control_change,1,0,1,,,,,,,64,0,0,,,,
169922,control_change,1,0,1,,,,,,,64,127,0,,,,
170079,note_on,0,0,1,,,,,,,,,0,,,36,0
170079,note_on,157,0,1,,,,,,,,,0,,,24,0
170160,note_on,0,0,0,,,,,,,,,0,,,72,112
170160,note_on,961,0,0,,,,,,,,,0,,,64,112
170160,note_on,0,0,0,,,,,,,,,0,,,76,112
170160,note_on,0,0,0,,,,,,,,,0,,,67,112
170387,note_on,0,0,0,,,,,,,,,0,,,67,0
170387,note_on,0,0,0,,,,,,,,,0,,,72,0
170387,note_on,0,0,0,,,,,,,,,0,,,76,0
170387,note_on,227,0,0,,,,,,,,,0,,,64,0
170400,note_on,0,0,0,,,,,,,,,0,,,64,112
170400,note_on,0,0,0,,,,,,,,,0,,,67,112
170400,note_on,321,0,1,,,,,,,,,0,,,43,96
170400,note_on,13,0,0,,,,,,,,,0,,,60,112
170400,note_on,0,0,0,,,,,,,,,0,,,72,112
170400,note_on,0,0,1,,,,,,,,,0,,,48,96
170400,note_on,0,0,1,,,,,,,,,0,,,52,96
170400,note_on,0,0,1,,,,,,,,,0,,,55,96
170551,note_on,151,0,1,,,,,,,,,0,,,43,0
170551,note_on,0,0,1,,,,,,,,,0,,,55,0
170551,note_on,0,0,1,,,,,,,,,0,,,52,0
170551,note_on,0,0,1,,,,,,,,,0,,,48,0
170560,note_on,0,0,1,,,,,,,,,0,,,52,96
170560,note_on,9,0,1,,,,,,,,,0,,,43,96
170560,note_on,0,0,1,,,,,,,,,0,,,48,96
170560,note_on,0,0,1,,,,,,,,,0,,,55,96
170627,note_on,227,0,0,,,,,,,,,0,,,60,0
170627,note_on,0,0,0,,,,,,,,,0,,,72,0
170627,note_on,0,0,0,,,,,,,,,0,,,64,0
170627,note_on,0,0,0,,,,,,,,,0,,,67,0
170640,note_on,0,0,0,,,,,,,,,0,,,72,112
170640,note_on,13,0,0,,,,,,,,,0,,,64,112
170640,note_on,0,0,0,,,,,,,,,0,,,67,112
170640,note_on,0,0,0,,,,,,,,,0,,,76,112
170711,note_on,151,0,1,,,,,,,,,0,,,43,0
170711,note_on,0,0,1,,,,,,,,,0,,,48,0
170711,note_on,0,0,1,,,,,,,,,0,,,52,0
170711,note_on,0,0,1,,,,,,,,,0,,,55,0
170720,note_on,0,0,1,,,,,,,,,0,,,48,96
170720,note_on,9,0,1,,,,,,,,,0,,,43,96
170720,note_on,0,0,1,,,,,,,,,0,,,55,96
170720,note_on,0,0,1,,,,,,,,,0,,,52,96
170867,note_on,0,0,0,,,,,,,,,0,,,76,0
170867,note_on,0,0,0,,,,,,,,,0,,,72,0
170867,note_on,227,0,0,,,,,,,,,0,,,64,0
170867,note_on,0,0,0,,,,,,,,,0,,,67,0
170871,note_on,0,0,1,,,,,,,,,0,,,52,0
170871,note_on,0,0,1,,,,,,,,,0,,,55,0
170871,note_on,0,0,1,,,,,,,,,0,,,48,0
170871,note_on,151,0,1,,,,,,,,,0,,,43,0
170880,note_on,0,0,1,,,,,,,,,0,,,55,96
170880,note_on,0,0,0,,,,,,,,,0,,,72,112
170880,note_on,0,0,1,,,,,,,,,0,,,52,96
170880,note_on,0,0,1,,,,,,,,,0,,,48,96
170880,note_on,13,0,0,,,,,,,,,0,,,67,112
170880,note_on,0,0,0,,,,,,,,,0,,,79,112
170880,note_on,9,0,1,,,,,,,,,0,,,43,96
170880,note_on,0,0,0,,,,,,,,,0,,,76,112
171031,note_on,0,0,1,,,,,,,,,0,,,48,0
171031,note_on,0,0,1,,,,,,,,,0,,,52,0
171031,note_on,151,0,1,,,,,,,,,0,,,43,0
171031,note_on,0,0,1,,,,,,,,,0,,,55,0
171040,note_on,0,0,1,,,,,,,,,0,,,48,96
171040,note_on,0,0,1,,,,,,,,,0,,,52,96
171040,note_on,0,0,1,,,,,,,,,0,,,55,96
171040,note_on,9,0,1,,,,,,,,,0,,,43,96
171107,note_on,227,0,0,,,,,,,,,0,,,67,0
171107,note_on,0,0,0,,,,,,,,,0,,,76,0
171107,note_on,0,0,0,,,,,,,,,0,,,79,0
171107,note_on,0,0,0,,,,,,,,,0,,,72,0
171120,note_on,13,0,0,,,,,,,,,0,,,69,112
171120,note_on,0,0,0,,,,,,,,,0,,,72,112
171120,note_on,0,0,0,,,,,,,,,0,,,76,112
171120,note_on,0,0,0,,,,,,,,,0,,,81,112
171191,note_on,151,0,1,,,,,,,,,0,,,43,0
171191,note_on,0,0,1,,,,,,,,,0,,,55,0
171191,note_on,0,0,1,,,,,,,,,0,,,52,0
171191,note_on,0,0,1,,,,,,,,,0,,,48,0
171200,note_on,0,0,1,,,,,,,,,0,,,55,96
171200,note_on,0,0,1,,,,,,,,,0,,,48,96
171200,note_on,0,0,1,,,,,,,,,0,,,52,96
171200,note_on,9,0,1,,,,,,,,,0,,,43,96
171347,note_on,0,0,0,,,,,,,,,0,,,72,0
171347,note_on,0,0,0,,,,,,,,,0,,,81,0
171347,note_on,0,0,0,,,,,,,,,0,,,76,0
171347,note_on,227,0,0,,,,,,,,,0,,,69,0
171351,note_on,0,0,1,,,,,,,,,0,,,55,0
171351,note_on,0,0,1,,,,,,,,,0,,,52,0
171351,note_on,0,0,1,,,,,,,,,0,,,48,0
171351,note_on,151,0,1,,,,,,,,,0,,,43,0
171360,note_on,0,0,1,,,,,,,,,0,,,55,96
171360,note_on,9,0,1,,,,,,,,,0,,,43,96
171360,note_on,13,0,0,,,,,,,,,0,,,67,112
171360,note_on,0,0,0,,,,,,,,,0,,,79,112
171360,note_on,0,0,0,,,,,,,,,0,,,76,112
171360,note_on,0,0,0,,,,,,,,,0,,,72,112
171360,note_on,0,0,1,,,,,,,,,0,,,48,96
171360,note_on,0,0,1,,,,,,,,,0,,,52,96
171587,note_on,0,0,0,,,,,,,,,0,,,76,0
171587,note_on,0,0,0,,,,,,,,,0,,,72,0
171587,note_on,0,0,0,,,,,,,,,0,,,79,0
171587,note_on,0,0,1,,,,,,,,,0,,,48,0
171587,note_on,227,0,0,,,,,,,,,0,,,67,0
171587,note_on,0,0,1,,,,,,,,,0,,,55,0
171587,note_on,227,0,1,,,,,,,,,0,,,43,0
171587,note_on,0,0,1,,,,,,,,,0,,,52,0
171600,note_on,13,0,0,,,,,,,,,0,,,64,112
171600,note_on,0,0,0,,,,,,,,,0,,,76,112
171600,note_on,0,0,0,,,,,,,,,0,,,67,112
171600,note_on,0,0,0,,,,,,,,,0,,,72,112
171827,note_on,227,0,0,,,,,,,,,0,,,64,0
171827,note_on,0,0,0,,,,,,,,,0,,,72,0
171827,note_on,0,0,0,,,,,,,,,0,,,67,0
171827,note_on,0,0,0,,,,,,,,,0,,,76,0
171840,note_on,253,0,1,,,,,,,,,0,,,24,115
171840,note_on,0,0,1,,,,,,,,,0,,,36,115
171840,note_on,0,0,0,,,,,,,,,0,,,67,112
171840,note_on,0,0,0,,,,,,,,,0,,,64,112
171840,note_on,13,0,0,,,,,,,,,0,,,60,112
171840,note_on,0,0,0,,,,,,,,,0,,,72,112
171841,control_change,1,0,1,,,,,,,64,0,0,,,,
171842,control_change,1,0,1,,,,,,,64,127,0,,,,
171999,note_on,0,0,1,,,,,,,,,0,,,36,0
171999,note_on,157,0,1,,,,,,,,,0,,,24,0
172067,note_on,0,0,0,,,,,,,,,0,,,64,0
172067,note_on,0,0,0,,,,,,,,,0,,,67,0
172067,note_on,227,0,0,,,,,,,,,0,,,60,0
172067,note_on,0,0,0,,,,,,,,,0,,,72,0
172080,note_on,13,0,0,,,,,,,,,0,,,64,112
172080,note_on,0,0,0,,,,,,,,,0,,,67,112
172080,note_on,0,0,0,,,,,,,,,0,,,72,112
172080,note_on,0,0,0,,,,,,,,,0,,,76,112
172307,note_on,227,0,0,,,,,,,,,0,,,64,0
172307,note_on,0,0,0,,,,,,,,,0,,,67,0
172307,note_on,0,0,0,,,,,,,,,0,,,76,0
172307,note_on,0,0,0,,,,,,,,,0,,,72,0
172320,note_on,0,0,1,,,,,,,,,0,,,55,100
172320,note_on,0,0,1,,,,,,,,,0,,,52,100
172320,note_on,0,0,1,,,,,,,,,0,,,48,100
172320,note_on,13,0,0,,,,,,,,,0,,,67,112
172320,note_on,321,0,1,,,,,,,,,0,,,43,100
172320,note_on,0,0,0,,,,,,,,,0,,,72,112
172320,note_on,0,0,0,,,,,,,,,0,,,76,112
172320,note_on,0,0,0,,,,,,,,,0,,,79,112
172471,note_on,0,0,1,,,,,,,,,0,,,52,0
172471,note_on,0,0,1,,,,,,,,,0,,,48,0
172471,note_on,151,0,1,,,,,,,,,0,,,43,0
172471,note_on,0,0,1,,,,,,,,,0,,,55,0
172480,note_on,0,0,1,,,,,,,,,0,,,52,101
172480,note_on,0,0,1,,,,,,,,,0,,,55,101
172480,note_on,0,0,1,,,,,,,,,0,,,48,101
172480,note_on,9,0,1,,,,,,,,,0,,,43,101
172547,note_on,0,0,0,,,,,,,,,0,,,79,0
172547,note_on,227,0,0,,,,,,,,,0,,,67,0
172547,note_on,0,0,0,,,,,,,,,0,,,76,0
172547,note_on,0,0,0,,,,,,,,,0,,,72,0
172560,note_on,13,0,0,,,,,,,,,0,,,71,112
172560,note_on,0,0,0,,,,,,,,,0,,,83,112
172560,note_on,0,0,0,,,,,,,,,0,,,79,112
172560,note_on,0,0,0,,,,,,,,,0,,,76,112
172631,note_on,0,0,1,,,,,,,,,0,,,48,0
172631,note_on,0,0,1,,,,,,,,,0,,,52,0
172631,note_on,151,0,1,,,,,,,,,0,,,43,0
172631,note_on,0,0,1,,,,,,,,,0,,,55,0
172640,note_on,9,0,1,,,,,,,,,0,,,43,102
172640,note_on,0,0,1,,,,,,,,,0,,,55,102
172640,note_on,0,0,1,,,,,,,,,0,,,48,102
172640,note_on,0,0,1,,,,,,,,,0,,,52,102
172787,note_on,0,0,0,,,,,,,,,0,,,76,0
172787,note_on,0,0,0,,,,,,,,,0,,,79,0
172787,note_on,0,0,0,,,,,,,,,0,,,83,0
172787,note_on,227,0,0,,,,,,,,,0,,,71,0
172791,note_on,151,0,1,,,,,,,,,0,,,43,0
172791,note_on,0,0,1,,,,,,,,,0,,,48,0
172791,note_on,0,0,1,,,,,,,,,0,,,52,0
172791,note_on,0,0,1,,,,,,,,,0,,,55,0
172800,note_on,0,0,0,,,,,,,,,0,,,84,112
172800,note_on,0,0,1,,,,,,,,,0,,,52,104
172800,note_on,0,0,0,,,,,,,,,0,,,79,112
172800,note_on,13,0,0,,,,,,,,,0,,,72,112
172800,note_on,0,0,0,,,,,,,,,0,,,76,112
172800,note_on,0,0,1,,,,,,,,,0,,,48,104
172800,note_on,9,0,1,,,,,,,,,0,,,43,104
172800,note_on,0,0,1,,,,,,,,,0,,,55,104
172951,note_on,0,0,1,,,,,,,,,0,,,55,0
172951,note_on,0,0,1,,,,,,,,,0,,,48,0
172951,note_on,0,0,1,,,,,,,,,0,,,52,0
172951,note_on,151,0,1,,,,,,,,,0,,,43,0
172960,note_on,0,0,1,,,,,,,,,0,,,48,105
172960,note_on,0,0,1,,,,,,,,,0,,,52,105
172960,note_on,0,0,1,,,,,,,,,0,,,55,105
172960,note_on,9,0,1,,,,,,,,,0,,,43,105
173027,note_on,0,0,0,,,,,,,,,0,,,84,0
173027,note_on,0,0,0,,,,,,,,,0,,,79,0
173027,note_on,0,0,0,,,,,,,,,0,,,76,0
173027,note_on,227,0,0,,,,,,,,,0,,,72,0
173040,note_on,13,0,0,,,,,,,,,0,,,76,112
173040,note_on,0,0,0,,,,,,,,,0,,,79,112
173040,note_on,0,0,0,,,,,,,,,0,,,84,112
173040,note_on,0,0,0,,,,,,,,,0,,,88,112
173111,note_on,0,0,1,,,,,,,,,0,,,55,0
173111,note_on,0,0,1,,,,,,,,,0,,,48,0
173111,note_on,151,0,1,,,,,,,,,0,,,43,0
173111,note_on,0,0,1,,,,,,,,,0,,,52,0
173120,note_on,0,0,1,,,,,,,,,0,,,52,106
173120,note_on,0,0,1,,,,,,,,,0,,,48,106
173120,note_on,0,0,1,,,,,,,,,0,,,55,106
173120,note_on,9,0,1,,,,,,,,,0,,,43,106
173267,note_on,0,0,0,,,,,,,,,0,,,88,0
173267,note_on,0,0,0,,,,,,,,,0,,,79,0
173267,note_on,227,0,0,,,,,,,,,0,,,76,0
173267,note_on,0,0,0,,,,,,,,,0,,,84,0
173271,note_on,0,0,1,,,,,,,,,0,,,52,0
173271,note_on,0,0,1,,,,,,,,,0,,,55,0
173271,note_on,151,0,1,,,,,,,,,0,,,43,0
173271,note_on,0,0,1,,,,,,,,,0,,,48,0
173280,note_on,0,0,0,,,,,,,,,0,,,84,112
173280,note_on,9,0,1,,,,,,,,,0,,,43,108
173280,note_on,0,0,0,,,,,,,,,0,,,88,112
173280,note_on,0,0,0,,,,,,,,,0,,,91,112
173280,note_on,0,0,1,,,,,,,,,0,,,48,108
173280,note_on,0,0,1,,,,,,,,,0,,,52,108
173280,note_on,0,0,1,,,,,,,,,0,,,55,108
173280,note_on,13,0,0,,,,,,,,,0,,,79,112
173507,note_on,0,0,1,,,,,,,,,0,,,48,0
173507,note_on,227,0,0,,,,,,,,,0,,,79,0
173507,note_on,0,0,1,,,,,,,,,0,,,55,0
173507,note_on,0,0,0,,,,,,,,,0,,,84,0
173507,note_on,227,0,1,,,,,,,,,0,,,43,0
173507,note_on,0,0,0,,,,,,,,,0,,,88,0
173507,note_on,0,0,0,,,,,,,,,0,,,91,0
173507,note_on,0,0,1,,,,,,,,,0,,,52,0
173520,note_on,13,0,0,,,,,,,,,0,,,84,112
173520,note_on,0,0,0,,,,,,,,,0,,,88,112
173520,note_on,0,0,0,,,,,,,,,0,,,96,112
173520,note_on,0,0,0,,,,,,,,,0,,,91,112
173747,note_on,227,0,0,,,,,,,,,0,,,84,0
173747,note_on,0,0,0,,,,,,,,,0,,,91,0
173747,note_on,0,0,0,,,,,,,,,0,,,96,0
173747,note_on,0,0,0,,,,,,,,,0,,,88,0
173760,note_on,0,0,0,,,,,,,,,0,,,89,127
173760,note_on,0,0,0,,,,,,,,,0,,,92,127
173760,note_on,0,0,0,,,,,,,,,0,,,96,127
173760,note_on,0,0,1,,,,,,,,,0,,,29,112
173760,note_on,253,0,1,,,,,,,,,0,,,29,112
173760,note_on,13,0,0,,,,,,,,,0,,,84,127
173760,note_on,0,0,1,,,,,,,,,0,,,29,0
173761,control_change,1,0,1,,,,,,,64,0,0,,,,
173762,control_change,1,0,1,,,,,,,64,127,0,,,,
173920,note_on,158,0,1,,,,,,,,,0,,,41,112
174063,note_on,143,0,1,,,,,,,,,0,,,29,0
174071,note_on,8,0,1,,,,,,,,,0,,,41,0
174080,note_on,0,0,1,,,,,,,,,0,,,36,0
174080,note_on,0,0,1,,,,,,,,,0,,,36,113
174080,note_on,9,0,1,,,,,,,,,0,,,36,113
174240,note_on,160,0,1,,,,,,,,,0,,,48,114
174383,note_on,143,0,1,,,,,,,,,0,,,36,0
174391,note_on,8,0,1,,,,,,,,,0,,,48,0
174400,note_on,9,0,1,,,,,,,,,0,,,41,115
174400,note_on,0,0,1,,,,,,,,,0,,,41,0
174400,note_on,0,0,1,,,,,,,,,0,,,41,115
174402,note_on,0,0,0,,,,,,,,,0,,,89,0
174402,note_on,0,0,0,,,,,,,,,0,,,96,0
174402,note_on,0,0,0,,,,,,,,,0,,,92,0
174402,note_on,642,0,0,,,,,,,,,0,,,84,0
174560,note_on,160,0,1,,,,,,,,,0,,,53,116
174703,note_on,143,0,1,,,,,,,,,0,,,41,0
174711,note_on,8,0,1,,,,,,,,,0,,,53,0
174720,note_on,0,0,0,,,,,,,,,0,,,92,112
174720,note_on,9,0,1,,,,,,,,,0,,,48,117
174720,note_on,0,0,1,,,,,,,,,0,,,48,0
174720,note_on,0,0,1,,,,,,,,,0,,,48,117
174720,note_on,318,0,0,,,,,,,,,0,,,80,112
174720,note_on,0,0,0,,,,,,,,,0,,,89,112
174839,note_on,0,0,0,,,,,,,,,0,,,89,0
174839,note_on,119,0,0,,,,,,,,,0,,,80,0
174839,note_on,0,0,0,,,,,,,,,0,,,92,0
174880,note_on,160,0,1,,,,,,,,,0,,,60,117
175023,note_on,143,0,1,,,,,,,,,0,,,48,0
175031,note_on,8,0,1,,,,,,,,,0,,,60,0
175040,note_on,0,0,1,,,,,,,,,0,,,41,0
175040,note_on,0,0,1,,,,,,,,,0,,,41,117
175040,note_on,9,0,1,,,,,,,,,0,,,41,117
175200,note_on,160,0,1,,,,,,,,,0,,,53,117
175343,note_on,143,0,1,,,,,,,,,0,,,41,0
175351,note_on,8,0,1,,,,,,,,,0,,,53,0
175360,note_on,9,0,1,,,,,,,,,0,,,36,117
175360,note_on,0,0,1,,,,,,,,,0,,,36,0
175360,note_on,0,0,1,,,,,,,,,0,,,36,117
175520,note_on,160,0,1,,,,,,,,,0,,,48,117
175560,note_on,0,0,0,,,,,,,,,0,,,72,112
175560,note_on,0,0,0,,,,,,,,,0,,,65,112
175560,note_on,721,0,0,,,,,,,,,0,,,60,112
175560,note_on,0,0,0,,,,,,,,,0,,,68,112
175663,note_on,143,0,1,,,,,,,,,0,,,36,0
175671,note_on,8,0,1,,,,,,,,,0,,,48,0
175673,note_on,0,0,0,,,,,,,,,0,,,68,0
175673,note_on,0,0,0,,,,,,,,,0,,,72,0
175673,note_on,113,0,0,,,,,,,,,0,,,60,0
175673,note_on,0,0,0,,,,,,,,,0,,,65,0
175680,note_on,9,0,1,,,,,,,,,0,,,29,117
175680,note_on,7,0,0,,,,,,,,,0,,,61,127
175680,note_on,0,0,1,,,,,,,,,0,,,29,0
175680,note_on,0,0,0,,,,,,,,,0,,,73,127
175680,note_on,0,0,0,,,,,,,,,0,,,68,127
175680,note_on,0,0,0,,,,,,,,,0,,,65,127
175680,note_on,0,0,1,,,,,,,,,0,,,29,117
175681,control_change,1,0,1,,,,,,,64,0,0,,,,
175682,control_change,1,0,1,,,,,,,64,127,0,,,,
175800,note_on,118,0,1,,,,,,,,,0,,,41,117
175919,note_on,119,0,1,,,,,,,,,0,,,29,0
175919,note_on,0,0,1,,,,,,,,,0,,,41,0
175920,note_on,0,0,1,,,,,,,,,0,,,30,118
175920,note_on,0,0,1,,,,,,,,,0,,,30,0
175920,note_on,1,0,1,,,,,,,,,0,,,30,118
176040,note_on,120,0,1,,,,,,,,,0,,,42,119
176159,note_on,119,0,1,,,,,,,,,0,,,30,0
176159,note_on,0,0,1,,,,,,,,,0,,,42,0
176160,note_on,1,0,1,,,,,,,,,0,,,31,119
176160,note_on,0,0,1,,,,,,,,,0,,,31,0
176160,note_on,0,0,1,,,,,,,,,0,,,31,119
176280,note_on,120,0,1,,,,,,,,,0,,,43,120
176322,note_on,0,0,0,,,,,,,,,0,,,65,0
176322,note_on,642,0,0,,,,,,,,,0,,,61,0
176322,note_on,0,0,0,,,,,,,,,0,,,68,0
176322,note_on,0,0,0,,,,,,,,,0,,,73,0
176399,note_on,0,0,1,,,,,,,,,0,,,43,0
176399,note_on,119,0,1,,,,,,,,,0,,,31,0
176400,note_on,1,0,1,,,,,,,,,0,,,32,121
176400,note_on,0,0,1,,,,,,,,,0,,,32,0
176400,note_on,0,0,1,,,,,,,,,0,,,32,121
176520,note_on,120,0,1,,,,,,,,,0,,,44,122
176639,note_on,119,0,1,,,,,,,,,0,,,32,0
176639,note_on,0,0,1,,,,,,,,,0,,,44,0
176640,note_on,0,0,1,,,,,,,,,0,,,35,122
176640,note_on,1,0,1,,,,,,,,,0,,,35,122
176640,note_on,0,0,1,,,,,,,,,0,,,35,0
176640,note_on,318,0,0,,,,,,,,,0,,,56,112
176640,note_on,0,0,0,,,,,,,,,0,,,61,112
176640,note_on,0,0,0,,,,,,,,,0,,,65,112
176640,note_on,0,0,0,,,,,,,,,0,,,68,112
176759,note_on,119,0,0,,,,,,,,,0,,,56,0
176759,note_on,0,0,0,,,,,,,,,0,,,61,0
176759,note_on,0,0,0,,,,,,,,,0,,,65,0
176759,note_on,0,0,0,,,,,,,,,0,,,68,0
176760,note_on,120,0,1,,,,,,,,,0,,,47,117
176879,note_on,0,0,1,,,,,,,,,0,,,47,0
176879,note_on,119,0,1,,,,,,,,,0,,,35,0
176880,note_on,0,0,1,,,,,,,,,0,,,34,112
176880,note_on,0,0,1,,,,,,,,,0,,,34,0
176880,note_on,1,0,1,,,,,,,,,0,,,34,112
177000,note_on,120,0,1,,,,,,,,,0,,,46,112
177119,note_on,0,0,1,,,,,,,,,0,,,46,0
177119,note_on,119,0,1,,,,,,,,,0,,,34,0
177120,note_on,0,0,1,,,,,,,,,0,,,33,112
177120,note_on,1,0,1,,,,,,,,,0,,,33,112
177120,note_on,0,0,1,,,,,,,,,0,,,33,0
177240,note_on,120,0,1,,,,,,,,,0,,,45,112
177359,note_on,119,0,1,,,,,,,,,0,,,33,0
177359,note_on,0,0,1,,,,,,,,,0,,,45,0
177360,note_on,0,0,1,,,,,,,,,0,,,32,0
177360,note_on,0,0,1,,,,,,,,,0,,,32,112
177360,note_on,1,0,1,,,,,,,,,0,,,32,112
177480,note_on,120,0,1,,,,,,,,,0,,,44,112
177480,note_on,721,0,0,,,,,,,,,0,,,73,112
177480,note_on,0,0,0,,,,,,,,,0,,,85,112
177593,note_on,113,0,0,,,,,,,,,0,,,73,0
177593,note_on,113,0,1,,,,,,,,,0,,,44,0
177593,note_on,0,0,0,,,,,,,,,0,,,85,0
177599,note_on,6,0,1,,,,,,,,,0,,,32,0
177600,note_on,0,0,1,,,,,,,,,0,,,30,0
177600,note_on,1,0,1,,,,,,,,,0,,,30,112
177600,note_on,0,0,0,,,,,,,,,0,,,97,127
177600,note_on,0,0,0,,,,,,,,,0,,,90,127
177600,note_on,0,0,0,,,,,,,,,0,,,93,127
177600,note_on,0,0,1,,,,,,,,,0,,,30,112
177600,note_on,7,0,0,,,,,,,,,0,,,85,127
177601,control_change,1,0,1,,,,,,,64,0,0,,,,
177602,control_change,1,0,1,,,,,,,64,127,0,,,,
177760,note_on,158,0,1,,,,,,,,,0,,,42,112
177903,note_on,143,0,1,,,,,,,,,0,,,30,0
177911,note_on,8,0,1,,,,,,,,,0,,,42,0
177920,note_on,9,0,1,,,,,,,,,0,,,37,113
177920,note_on,0,0,1,,,,,,,,,0,,,37,113
177920,note_on,0,0,1,,,,,,,,,0,,,37,0
178080,note_on,160,0,1,,,,,,,,,0,,,49,114
178223,note_on,143,0,1,,,,,,,,,0,,,37,0
178231,note_on,8,0,1,,,,,,,,,0,,,49,0
178240,note_on,0,0,1,,,,,,,,,0,,,42,115
178240,note_on,0,0,1,,,,,,,,,0,,,42,0
178240,note_on,9,0,1,,,,,,,,,0,,,42,115
178242,note_on,0,0,0,,,,,,,,,0,,,90,0
178242,note_on,0,0,0,,,,,,,,,0,,,97,0
178242,note_on,642,0,0,,,,,,,,,0,,,85,0
178242,note_on,0,0,0,,,,,,,,,0,,,93,0
178400,note_on,160,0,1,,,,,,,,,0,,,54,116
178543,note_on,143,0,1,,,,,,,,,0,,,42,0
178551,note_on,8,0,1,,,,,,,,,0,,,54,0
178560,note_on,9,0,1,,,,,,,,,0,,,49,117
178560,note_on,318,0,0,,,,,,,,,0,,,81,117
178560,note_on,0,0,1,,,,,,,,,0,,,49,117
178560,note_on,0,0,1,,,,,,,,,0,,,49,0
178560,note_on,0,0,0,,,,,,,,,0,,,93,117
178560,note_on,0,0,0,,,,,,,,,0,,,90,117
178560,note_on,0,0,0,,,,,,,,,0,,,85,117
178679,note_on,0,0,0,,,,,,,,,0,,,93,0
178679,note_on,0,0,0,,,,,,,,,0,,,90,0
178679,note_on,0,0,0,,,,,,,,,0,,,85,0
178679,note_on,119,0,0,,,,,,,,,0,,,81,0
178720,note_on,160,0,1,,,,,,,,,0,,,61,117
178863,note_on,143,0,1,,,,,,,,,0,,,49,0
178871,note_on,8,0,1,,,,,,,,,0,,,61,0
178880,note_on,0,0,1,,,,,,,,,0,,,42,117
178880,note_on,0,0,1,,,,,,,,,0,,,42,0
178880,note_on,9,0,1,,,,,,,,,0,,,42,117
179040,note_on,160,0,1,,,,,,,,,0,,,54,117
179183,note_on,143,0,1,,,,,,,,,0,,,42,0
179191,note_on,8,0,1,,,,,,,,,0,,,54,0
179200,note_on,0,0,1,,,,,,,,,0,,,37,117
179200,note_on,0,0,1,,,,,,,,,0,,,37,0
179200,note_on,9,0,1,,,,,,,,,0,,,37,117
179360,note_on,160,0,1,,,,,,,,,0,,,49,117
179400,note_on,0,0,0,,,,,,,,,0,,,73,117
179400,note_on,721,0,0,,,,,,,,,0,,,61,117
179400,note_on,0,0,0,,,,,,,,,0,,,69,117
179400,note_on,0,0,0,,,,,,,,,0,,,66,117
179503,note_on,143,0,1,,,,,,,,,0,,,37,0
179511,note_on,8,0,1,,,,,,,,,0,,,49,0
179513,note_on,0,0,0,,,,,,,,,0,,,73,0
179513,note_on,0,0,0,,,,,,,,,0,,,69,0
179513,note_on,0,0,0,,,,,,,,,0,,,66,0
179513,note_on,113,0,0,,,,,,,,,0,,,61,0
179520,note_on,9,0,1,,,,,,,,,0,,,30,117
179520,note_on,0,0,0,,,,,,,,,0,,,66,127
179520,note_on,0,0,0,,,,,,,,,0,,,69,127
179520,note_on,0,0,1,,,,,,,,,0,,,30,0
179520,note_on,0,0,1,,,,,,,,,0,,,30,117
179520,note_on,7,0,0,,,,,,,,,0,,,62,127
179520,note_on,0,0,0,,,,,,,,,0,,,74,127
179521,control_change,1,0,1,,,,,,,64,0,0,,,,
179522,control_change,1,0,1,,,,,,,64,127,0,,,,
179640,note_on,118,0,1,,,,,,,,,0,,,42,118
179759,note_on,0,0,1,,,,,,,,,0,,,42,0
179759,note_on,119,0,1,,,,,,,,,0,,,30,0
179760,note_on,1,0,1,,,,,,,,,0,,,31,119
179760,note_on,0,0,1,,,,,,,,,0,,,31,119
179760,note_on,0,0,1,,,,,,,,,0,,,31,0
179880,note_on,120,0,1,,,,,,,,,0,,,43,121
179999,note_on,0,0,1,,,,,,,,,0,,,43,0
179999,note_on,119,0,1,,,,,,,,,0,,,31,0
180000,note_on,0,0,1,,,,,,,,,0,,,32,0
180000,note_on,0,0,1,,,,,,,,,0,,,32,122
180000,note_on,1,0,1,,,,,,,,,0,,,32,122
180120,note_on,120,0,1,,,,,,,,,0,,,44,124
180162,note_on,642,0,0,,,,,,,,,0,,,62,0
180162,note_on,0,0,0,,,,,,,,,0,,,74,0
180162,note_on,0,0,0,,,,,,,,,0,,,69,0
180162,note_on,0,0,0,,,,,,,,,0,,,66,0
180239,note_on,119,0,1,,,,,,,,,0,,,32,0
180239,note_on,0,0,1,,,,,,,,,0,,,44,0
180240,note_on,0,0,1,,,,,,,,,0,,,33,125
180240,note_on,0,0,1,,,,,,,,,0,,,33,0
180240,note_on,1,0,1,,,,,,,,,0,,,33,125
180360,note_on,120,0,1,,,,,,,,,0,,,45,127
180479,note_on,119,0,1,,,,,,,,,0,,,33,0
180479,note_on,0,0,1,,,,,,,,,0,,,45,0
180480,note_on,0,0,0,,,,,,,,,0,,,66,117
180480,note_on,0,0,0,,,,,,,,,0,,,69,117
180480,note_on,318,0,0,,,,,,,,,0,,,57,117
180480,note_on,0,0,1,,,,,,,,,0,,,36,0
180480,note_on,1,0,1,,,,,,,,,0,,,36,127
180480,note_on,0,0,1,,,,,,,,,0,,,36,127
180480,note_on,0,0,0,,,,,,,,,0,,,62,117
180599,note_on,0,0,0,,,,,,,,,0,,,69,0
180599,note_on,0,0,0,,,,,,,,,0,,,62,0
180599,note_on,0,0,0,,,,,,,,,0,,,66,0
180599,note_on,119,0,0,,,,,,,,,0,,,57,0
180600,note_on,120,0,1,,,,,,,,,0,,,48,122
180719,note_on,119,0,1,,,,,,,,,0,,,36,0
180719,note_on,0,0,1,,,,,,,,,0,,,48,0
180720,note_on,0,0,1,,,,,,,,,0,,,35,117
180720,note_on,1,0,1,,,,,,,,,0,,,35,117
180720,note_on,0,0,1,,,,,,,,,0,,,35,0
180840,note_on,120,0,1,,,,,,,,,0,,,47,117
180959,note_on,0,0,1,,,,,,,,,0,,,47,0
180959,note_on,119,0,1,,,,,,,,,0,,,35,0
180960,note_on,0,0,1,,,,,,,,,0,,,34,0
180960,note_on,1,0,1,,,,,,,,,0,,,34,117
180960,note_on,0,0,1,,,,,,,,,0,,,34,117
181080,note_on,120,0,1,,,,,,,,,0,,,46,117
181199,note_on,119,0,1,,,,,,,,,0,,,34,0
181199,note_on,0,0,1,,,,,,,,,0,,,46,0
181200,note_on,1,0,1,,,,,,,,,0,,,33,117
181200,note_on,0,0,1,,,,,,,,,0,,,33,117
181200,note_on,0,0,1,,,,,,,,,0,,,33,0
181320,note_on,120,0,1,,,,,,,,,0,,,45,117
181320,note_on,0,0,0,,,,,,,,,0,,,86,117
181320,note_on,721,0,0,,,,,,,,,0,,,74,117
181433,note_on,113,0,0,,,,,,,,,0,,,74,0
181433,note_on,113,0,1,,,,,,,,,0,,,45,0
181433,note_on,0,0,0,,,,,,,,,0,,,86,0
181439,note_on,6,0,1,,,,,,,,,0,,,33,0
181440,note_on,0,0,1,,,,,,,,,0,,,31,117
181440,note_on,1,0,1,,,,,,,,,0,,,31,117
181440,note_on,0,0,1,,,,,,,,,0,,,31,0
181440,note_on,0,0,0,,,,,,,,,0,,,79,127
181440,note_on,0,0,0,,,,,,,,,0,,,82,127
181440,note_on,0,0,0,,,,,,,,,0,,,86,127
181440,note_on,7,0,0,,,,,,,,,0,,,74,127
181441,control_change,1,0,1,,,,,,,64,0,0,,,,
181442,control_change,1,0,1,,,,,,,64,127,0,,,,
181560,note_on,118,0,1,,,,,,,,,0,,,43,118
181679,note_on,119,0,1,,,,,,,,,0,,,31,0
181679,note_on,0,0,1,,,,,,,,,0,,,43,0
181680,note_on,1,0,1,,,,,,,,,0,,,32,119
181680,note_on,0,0,1,,,,,,,,,0,,,32,119
181680,note_on,0,0,1,,,,,,,,,0,,,32,0
181800,note_on,120,0,1,,,,,,,,,0,,,44,121
181919,note_on,0,0,1,,,,,,,,,0,,,44,0
181919,note_on,119,0,1,,,,,,,,,0,,,32,0
181920,note_on,1,0,1,,,,,,,,,0,,,33,122
181920,note_on,0,0,1,,,,,,,,,0,,,33,122
181920,note_on,0,0,1,,,,,,,,,0,,,33,0
181921,note_on,0,0,0,,,,,,,,,0,,,82,0
181921,note_on,0,0,0,,,,,,,,,0,,,79,0
181921,note_on,481,0,0,,,,,,,,,0,,,74,0
181921,note_on,0,0,0,,,,,,,,,0,,,86,0
182040,note_on,120,0,1,,,,,,,,,0,,,45,124
182159,note_on,0,0,1,,,,,,,,,0,,,45,0
182159,note_on,119,0,1,,,,,,,,,0,,,33,0
182160,note_on,1,0,1,,,,,,,,,0,,,34,125
182160,note_on,0,0,1,,,,,,,,,0,,,34,0
182160,note_on,0,0,1,,,,,,,,,0,,,34,125
182280,note_on,120,0,1,,,,,,,,,0,,,46,127
182399,note_on,0,0,1,,,,,,,,,0,,,46,0
182399,note_on,119,0,1,,,,,,,,,0,,,34,0
182400,note_on,0,0,0,,,,,,,,,0,,,75,127
182400,note_on,0,0,0,,,,,,,,,0,,,70,127
182400,note_on,0,0,0,,,,,,,,,0,,,67,127
182400,note_on,479,0,0,,,,,,,,,0,,,63,127
182400,note_on,0,0,1,,,,,,,,,0,,,37,127
182400,note_on,0,0,1,,,,,,,,,0,,,37,0
182400,note_on,1,0,1,,,,,,,,,0,,,37,127
182520,note_on,120,0,1,,,,,,,,,0,,,49,122
182639,note_on,0,0,1,,,,,,,,,0,,,49,0
182639,note_on,119,0,1,,,,,,,,,0,,,37,0
182640,note_on,0,0,1,,,,,,,,,0,,,36,0
182640,note_on,1,0,1,,,,,,,,,0,,,36,117
182640,note_on,0,0,1,,,,,,,,,0,,,36,117
182760,note_on,120,0,1,,,,,,,,,0,,,48,117
182879,note_on,0,0,1,,,,,,,,,0,,,48,0
182879,note_on,119,0,1,,,,,,,,,0,,,36,0
182880,note_on,1,0,1,,,,,,,,,0,,,35,117
182880,note_on,0,0,1,,,,,,,,,0,,,35,117
182880,note_on,0,0,1,,,,,,,,,0,,,35,0
182881,note_on,0,0,0,,,,,,,,,0,,,70,0
182881,note_on,481,0,0,,,,,,,,,0,,,63,0
182881,note_on,0,0,0,,,,,,,,,0,,,67,0
182881,note_on,0,0,0,,,,,,,,,0,,,75,0
183000,note_on,120,0,1,,,,,,,,,0,,,47,117
183119,note_on,119,0,1,,,,,,,,,0,,,35,0
183119,note_on,0,0,1,,,,,,,,,0,,,47,0
183120,note_on,0,0,1,,,,,,,,,0,,,34,117
183120,note_on,1,0,1,,,,,,,,,0,,,34,117
183120,note_on,0,0,1,,,,,,,,,0,,,34,0
183240,note_on,120,0,1,,,,,,,,,0,,,46,117
183353,note_on,113,0,1,,,,,,,,,0,,,46,0
183359,note_on,6,0,1,,,,,,,,,0,,,34,0
183360,note_on,0,0,0,,,,,,,,,0,,,79,112
183360,note_on,0,0,0,,,,,,,,,0,,,82,112
183360,note_on,479,0,0,,,,,,,,,0,,,76,112
183360,note_on,0,0,0,,,,,,,,,0,,,88,112
183360,note_on,0,0,1,,,,,,,,,0,,,37,0
183360,note_on,0,0,1,,,,,,,,,0,,,37,112
183360,note_on,1,0,1,,,,,,,,,0,,,37,112
183361,control_change,1,0,1,,,,,,,64,0,0,,,,
183362,control_change,1,0,1,,,,,,,64,127,0,,,,
183480,note_on,118,0,1,,,,,,,,,0,,,49,109
183599,note_on,119,0,1,,,,,,,,,0,,,37,0
183599,note_on,0,0,1,,,,,,,,,0,,,49,0
183600,note_on,0,0,1,,,,,,,,,0,,,38,106
183600,note_on,1,0,1,,,,,,,,,0,,,38,106
183600,note_on,0,0,1,,,,,,,,,0,,,38,0
183720,note_on,120,0,1,,,,,,,,,0,,,50,104
183839,note_on,119,0,1,,,,,,,,,0,,,38,0
183839,note_on,0,0,1,,,,,,,,,0,,,50,0
183840,note_on,0,0,1,,,,,,,,,0,,,39,104
183840,note_on,0,0,1,,,,,,,,,0,,,39,0
183840,note_on,1,0,1,,,,,,,,,0,,,39,104
183960,note_on,120,0,1,,,,,,,,,0,,,51,104
184079,note_on,0,0,1,,,,,,,,,0,,,51,0
184079,note_on,119,0,1,,,,,,,,,0,,,39,0
184080,note_on,0,0,1,,,,,,,,,0,,,40,0
184080,note_on,1,0,1,,,,,,,,,0,,,40,104
184080,note_on,0,0,1,,,,,,,,,0,,,40,104
184200,note_on,120,0,1,,,,,,,,,0,,,52,104
184319,note_on,119,0,1,,,,,,,,,0,,,40,0
184319,note_on,0,0,1,,,,,,,,,0,,,52,0
184320,note_on,0,0,1,,,,,,,,,0,,,46,104
184320,note_on,0,0,1,,,,,,,,,0,,,46,0
184320,note_on,1,0,1,,,,,,,,,0,,,46,104
184440,note_on,120,0,1,,,,,,,,,0,,,58,104
184559,note_on,119,0,1,,,,,,,,,0,,,46,0
184559,note_on,0,0,1,,,,,,,,,0,,,58,0
184560,note_on,0,0,1,,,,,,,,,0,,,45,104
184560,note_on,1,0,1,,,,,,,,,0,,,45,104
184560,note_on,0,0,1,,,,,,,,,0,,,45,0
184680,note_on,120,0,1,,,,,,,,,0,,,57,104
184799,note_on,119,0,1,,,,,,,,,0,,,45,0
184799,note_on,0,0,1,,,,,,,,,0,,,57,0
184800,note_on,0,0,1,,,,,,,,,0,,,44,104
184800,note_on,0,0,1,,,,,,,,,0,,,44,0
184800,note_on,1,0,1,,,,,,,,,0,,,44,104
184920,note_on,120,0,1,,,,,,,,,0,,,56,104
185039,note_on,119,0,1,,,,,,,,,0,,,44,0
185039,note_on,0,0,1,,,,,,,,,0,,,56,0
185040,note_on,0,0,1,,,,,,,,,0,,,43,104
185040,note_on,0,0,1,,,,,,,,,0,,,43,0
185040,note_on,1,0,1,,,,,,,,,0,,,43,104
185160,note_on,120,0,1,,,,,,,,,0,,,55,104
185183,note_on,1823,0,0,,,,,,,,,0,,,76,0
185183,note_on,0,0,0,,,,,,,,,0,,,88,0
185183,note_on,0,0,0,,,,,,,,,0,,,82,0
185183,note_on,0,0,0,,,,,,,,,0,,,79,0
185273,note_on,113,0,1,,,,,,,,,0,,,55,0
185279,note_on,6,0,1,,,,,,,,,0,,,43,0
185280,note_on,1,0,1,,,,,,,,,0,,,52,112
185280,note_on,0,0,1,,,,,,,,,0,,,52,0
185280,note_on,0,0,1,,,,,,,,,0,,,52,112
185281,control_change,1,0,1,,,,,,,64,0,0,,,,
185282,control_change,1,0,1,,,,,,,64,127,0,,,,
185400,note_on,118,0,1,,,,,,,,,0,,,64,112
185400,note_on,0,0,1,,,,,,,,,0,,,76,112
185507,note_on,107,0,1,,,,,,,,,0,,,52,0
185513,note_on,0,0,1,,,,,,,,,0,,,76,0
185513,note_on,6,0,1,,,,,,,,,0,,,64,0
185520,note_on,7,0,1,,,,,,,,,0,,,51,112
185520,note_on,0,0,1,,,,,,,,,0,,,51,112
185520,note_on,0,0,1,,,,,,,,,0,,,51,0
185640,note_on,120,0,1,,,,,,,,,0,,,63,112
185640,note_on,0,0,1,,,,,,,,,0,,,75,112
185747,note_on,107,0,1,,,,,,,,,0,,,51,0
185753,note_on,6,0,1,,,,,,,,,0,,,63,0
185753,note_on,0,0,1,,,,,,,,,0,,,75,0
185760,note_on,0,0,1,,,,,,,,,0,,,50,112
185760,note_on,0,0,1,,,,,,,,,0,,,50,0
185760,note_on,7,0,1,,,,,,,,,0,,,50,112
185880,note_on,0,0,1,,,,,,,,,0,,,74,112
185880,note_on,120,0,1,,,,,,,,,0,,,62,112
185987,note_on,107,0,1,,,,,,,,,0,,,50,0
185993,note_on,6,0,1,,,,,,,,,0,,,62,0
185993,note_on,0,0,1,,,,,,,,,0,,,74,0
186000,note_on,7,0,1,,,,,,,,,0,,,49,112
186000,note_on,0,0,1,,,,,,,,,0,,,49,0
186000,note_on,0,0,1,,,,,,,,,0,,,49,112
186120,note_on,120,0,1,,,,,,,,,0,,,61,112
186120,note_on,0,0,1,,,,,,,,,0,,,73,112
186227,note_on,107,0,1,,,,,,,,,0,,,49,0
186233,note_on,6,0,1,,,,,,,,,0,,,61,0
186233,note_on,0,0,1,,,,,,,,,0,,,73,0
186240,note_on,0,0,1,,,,,,,,,0,,,46,0
186240,note_on,7,0,1,,,,,,,,,0,,,46,112
186240,note_on,0,0,1,,,,,,,,,0,,,46,112
186360,note_on,120,0,1,,,,,,,,,0,,,58,112
186360,set_tempo,1177,1,0,,,,,,705881,,,,,,,
186360,note_on,0,0,1,,,,,,,,,0,,,70,112
186467,note_on,107,0,1,,,,,,,,,0,,,46,0
186473,note_on,6,0,1,,,,,,,,,0,,,58,0
186473,note_on,0,0,1,,,,,,,,,0,,,70,0
186480,note_on,7,0,1,,,,,,,,,0,,,45,112
186480,note_on,0,0,1,,,,,,,,,0,,,45,0
186480,note_on,0,0,1,,,,,,,,,0,,,45,112
186600,note_on,120,0,1,,,,,,,,,0,,,57,112
186600,note_on,0,0,1,,,,,,,,,0,,,69,112
186707,note_on,107,0,1,,,,,,,,,0,,,45,0
186713,note_on,0,0,1,,,,,,,,,0,,,69,0
186713,note_on,6,0,1,,,,,,,,,0,,,57,0
186720,note_on,0,0,1,,,,,,,,,0,,,44,112
186720,note_on,0,0,1,,,,,,,,,0,,,44,0
186720,note_on,7,0,1,,,,,,,,,0,,,44,112
186840,note_on,120,0,1,,,,,,,,,0,,,56,112
186840,note_on,0,0,1,,,,,,,,,0,,,68,112
186947,note_on,107,0,1,,,,,,,,,0,,,44,0
186953,note_on,6,0,1,,,,,,,,,0,,,56,0
186953,note_on,0,0,1,,,,,,,,,0,,,68,0
186960,note_on,0,0,1,,,,,,,,,0,,,43,0
186960,note_on,0,0,1,,,,,,,,,0,,,43,112
186960,note_on,7,0,1,,,,,,,,,0,,,43,112
187080,note_on,0,0,1,,,,,,,,,0,,,67,112
187080,note_on,120,0,1,,,,,,,,,0,,,55,112
187187,note_on,107,0,1,,,,,,,,,0,,,43,0
187193,note_on,0,0,1,,,,,,,,,0,,,67,0
187193,note_on,6,0,1,,,,,,,,,0,,,55,0
187200,set_tempo,840,1,0,,,,,,750002,,,,,,,
187200,note_on,7,0,1,,,,,,,,,0,,,40,112
187201,control_change,1,0,1,,,,,,,64,0,0,,,,
187202,control_change,1,0,1,,,,,,,64,127,0,,,,
187320,note_on,0,0,0,,,,,,,,,0,,,64,112
187320,note_on,120,0,0,,,,,,,,,0,,,52,112
187427,note_on,225,0,1,,,,,,,,,0,,,40,0
187440,note_on,13,0,1,,,,,,,,,0,,,39,112
187547,note_on,0,0,0,,,,,,,,,0,,,64,0
187547,note_on,227,0,0,,,,,,,,,0,,,52,0
187560,note_on,13,0,0,,,,,,,,,0,,,51,112
187560,note_on,0,0,0,,,,,,,,,0,,,63,112
187667,note_on,227,0,1,,,,,,,,,0,,,39,0
187680,note_on,13,0,1,,,,,,,,,0,,,38,112
187787,note_on,0,0,0,,,,,,,,,0,,,63,0
187787,note_on,227,0,0,,,,,,,,,0,,,51,0
187800,note_on,13,0,0,,,,,,,,,0,,,50,112
187800,note_on,0,0,0,,,,,,,,,0,,,62,112
187907,note_on,227,0,1,,,,,,,,,0,,,38,0
187920,note_on,13,0,1,,,,,,,,,0,,,37,112
188027,note_on,0,0,0,,,,,,,,,0,,,62,0
188027,note_on,227,0,0,,,,,,,,,0,,,50,0
188040,note_on,13,0,0,,,,,,,,,0,,,49,112
188040,note_on,0,0,0,,,,,,,,,0,,,61,112
188147,note_on,227,0,1,,,,,,,,,0,,,37,0
188160,note_on,13,0,1,,,,,,,,,0,,,36,112
188160,set_tempo,120,1,0,,,,,,800000,,,,,,,
188161,control_change,1,0,1,,,,,,,64,0,0,,,,
188162,control_change,1,0,1,,,,,,,64,127,0,,,,
188267,note_on,0,0,0,,,,,,,,,0,,,61,0
188267,note_on,107,0,0,,,,,,,,,0,,,49,0
188280,note_on,13,0,0,,,,,,,,,0,,,48,112
188280,note_on,0,0,0,,,,,,,,,0,,,60,112
188387,note_on,225,0,1,,,,,,,,,0,,,36,0
188400,note_on,13,0,1,,,,,,,,,0,,,35,112
188507,note_on,227,0,0,,,,,,,,,0,,,48,0
188507,note_on,0,0,0,,,,,,,,,0,,,60,0
188520,note_on,0,0,0,,,,,,,,,0,,,59,112
188520,note_on,13,0,0,,,,,,,,,0,,,47,112
188627,note_on,227,0,1,,,,,,,,,0,,,35,0
188640,note_on,13,0,1,,,,,,,,,0,,,34,112
188747,note_on,0,0,0,,,,,,,,,0,,,59,0
188747,note_on,227,0,0,,,,,,,,,0,,,47,0
188760,note_on,0,0,0,,,,,,,,,0,,,46,112
188760,set_tempo,13,1,0,,,,,,923080,,,,,,,
188760,note_on,0,0,0,,,,,,,,,0,,,58,112
188867,note_on,227,0,1,,,,,,,,,0,,,34,0
188880,note_on,13,0,1,,,,,,,,,0,,,33,112
188987,note_on,0,0,0,,,,,,,,,0,,,58,0
188987,note_on,227,0,0,,,,,,,,,0,,,46,0
189000,note_on,0,0,0,,,,,,,,,0,,,45,112
189000,set_tempo,13,1,0,,,,,,2399998,,,,,,,
189000,note_on,0,0,0,,,,,,,,,0,,,57,112
189107,note_on,227,0,1,,,,,,,,,0,,,33,0
189113,note_on,0,0,0,,,,,,,,,0,,,57,0
189113,note_on,113,0,0,,,,,,,,,0,,,45,0
189120,key_signature,13,1,1,,,,,Db,,,,,,,,
189120,key_signature,7,1,0,,,,,Db,,,,,,,,
189120,note_on,0,0,1,,,,,,,,,0,,,32,126
189120,note_on,0,0,0,,,,,,,,,0,,,92,126
189120,set_tempo,0,1,0,,,,,,800000,,,,,,,
189120,note_on,0,0,0,,,,,,,,,0,,,80,126
189120,note_on,0,0,1,,,,,,,,,0,,,44,126
189121,control_change,1,0,1,,,,,,,64,0,0,,,,
189122,control_change,1,0,1,,,,,,,64,127,0,,,,
189271,note_on,0,0,1,,,,,,,,,0,,,44,0
189271,note_on,151,0,0,,,,,,,,,0,,,80,0
189271,note_on,149,0,1,,,,,,,,,0,,,32,0
189271,note_on,0,0,0,,,,,,,,,0,,,92,0
189280,note_on,0,0,0,,,,,,,,,0,,,77,127
189280,note_on,0,0,0,,,,,,,,,0,,,73,127
189280,note_on,9,0,1,,,,,,,,,0,,,53,127
189280,note_on,0,0,0,,,,,,,,,0,,,68,127
189280,note_on,0,0,1,,,,,,,,,0,,,61,127
189280,note_on,0,0,0,,,,,,,,,0,,,65,127
189280,note_on,0,0,1,,,,,,,,,0,,,56,127
189280,set_tempo,9,1,0,,,,,,705882,,,,,,,
189386,note_on,0,0,0,,,,,,,,,0,,,73,0
189386,note_on,0,0,0,,,,,,,,,0,,,68,0
189386,note_on,106,0,1,,,,,,,,,0,,,53,0
189386,note_on,106,0,0,,,,,,,,,0,,,65,0
189386,note_on,0,0,1,,,,,,,,,0,,,61,0
189386,note_on,0,0,1,,,,,,,,,0,,,56,0
189386,note_on,0,0,0,,,,,,,,,0,,,77,0
189440,note_on,54,0,1,,,,,,,,,0,,,53,127
189440,note_on,54,0,0,,,,,,,,,0,,,65,127
189440,note_on,0,0,1,,,,,,,,,0,,,61,127
189440,note_on,0,0,1,,,,,,,,,0,,,56,127
189440,note_on,0,0,0,,,,,,,,,0,,,68,127
189440,note_on,0,0,0,,,,,,,,,0,,,73,127
189440,note_on,0,0,0,,,,,,,,,0,,,77,127
189546,note_on,0,0,0,,,,,,,,,0,,,73,0
189546,note_on,0,0,1,,,,,,,,,0,,,61,0
189546,note_on,0,0,1,,,,,,,,,0,,,56,0
189546,note_on,0,0,0,,,,,,,,,0,,,68,0
189546,note_on,106,0,1,,,,,,,,,0,,,53,0
189546,note_on,106,0,0,,,,,,,,,0,,,65,0
189546,note_on,0,0,0,,,,,,,,,0,,,77,0
189600,note_on,54,0,1,,,,,,,,,0,,,53,112
189600,note_on,0,0,1,,,,,,,,,0,,,61,112
189600,note_on,0,0,1,,,,,,,,,0,,,56,112
189600,note_on,0,0,0,,,,,,,,,0,,,65,126
189600,note_on,0,0,0,,,,,,,,,0,,,68,126
189600,set_tempo,54,1,0,,,,,,631579,,,,,,,
189600,note_on,0,0,0,,,,,,,,,0,,,77,126
189600,note_on,0,0,0,,,,,,,,,0,,,73,126
189751,note_on,0,0,0,,,,,,,,,0,,,73,0
189751,note_on,151,0,1,,,,,,,,,0,,,53,0
189751,note_on,151,0,0,,,,,,,,,0,,,65,0
189751,note_on,0,0,1,,,,,,,,,0,,,56,0
189751,note_on,0,0,1,,,,,,,,,0,,,61,0
189751,note_on,0,0,0,,,,,,,,,0,,,68,0
189751,note_on,0,0,0,,,,,,,,,0,,,77,0
189760,note_on,0,0,1,,,,,,,,,0,,,56,112
189760,note_on,0,0,1,,,,,,,,,0,,,61,112
189760,note_on,9,0,0,,,,,,,,,0,,,65,126
189760,note_on,0,0,0,,,,,,,,,0,,,68,126
189760,note_on,0,0,0,,,,,,,,,0,,,73,126
189760,note_on,0,0,0,,,,,,,,,0,,,77,126
189760,note_on,9,0,1,,,,,,,,,0,,,53,112
189911,note_on,0,0,0,,,,,,,,,0,,,68,0
189911,note_on,151,0,1,,,,,,,,,0,,,53,0
189911,note_on,0,0,0,,,,,,,,,0,,,77,0
189911,note_on,0,0,0,,,,,,,,,0,,,73,0
189911,note_on,0,0,1,,,,,,,,,0,,,56,0
189911,note_on,0,0,1,,,,,,,,,0,,,61,0
189911,note_on,151,0,0,,,,,,,,,0,,,65,0
189920,note_on,0,0,0,,,,,,,,,0,,,77,126
189920,note_on,0,0,0,,,,,,,,,0,,,73,126
189920,note_on,0,0,1,,,,,,,,,0,,,61,112
189920,note_on,0,0,0,,,,,,,,,0,,,68,126
189920,note_on,0,0,1,,,,,,,,,0,,,56,112
189920,note_on,9,0,0,,,,,,,,,0,,,65,126
189920,note_on,9,0,1,,,,,,,,,0,,,53,112
190071,note_on,0,0,1,,,,,,,,,0,,,61,0
190071,note_on,151,0,1,,,,,,,,,0,,,53,0
190071,note_on,0,0,1,,,,,,,,,0,,,56,0
190071,note_on,0,0,0,,,,,,,,,0,,,68,0
190071,note_on,0,0,0,,,,,,,,,0,,,73,0
190071,note_on,0,0,0,,,,,,,,,0,,,77,0
190071,note_on,151,0,0,,,,,,,,,0,,,65,0
190080,note_on,0,0,0,,,,,,,,,0,,,80,126
190080,note_on,0,0,0,,,,,,,,,0,,,92,126
190080,note_on,0,0,1,,,,,,,,,0,,,44,112
190080,set_tempo,9,1,0,,,,,,800000,,,,,,,
190080,note_on,9,0,1,,,,,,,,,0,,,32,112
190231,note_on,151,0,1,,,,,,,,,0,,,32,0
190231,note_on,151,0,0,,,,,,,,,0,,,80,0
190231,note_on,0,0,0,,,,,,,,,0,,,92,0
190231,note_on,0,0,1,,,,,,,,,0,,,44,0
190240,note_on,0,0,0,,,,,,,,,0,,,78,127
190240,note_on,0,0,0,,,,,,,,,0,,,73,127
190240,note_on,0,0,1,,,,,,,,,0,,,61,127
190240,note_on,0,0,0,,,,,,,,,0,,,70,127
190240,note_on,0,0,0,,,,,,,,,0,,,66,127
190240,note_on,0,0,1,,,,,,,,,0,,,58,127
190240,note_on,9,0,1,,,,,,,,,0,,,54,127
190240,set_tempo,9,1,0,,,,,,705882,,,,,,,
190346,note_on,0,0,1,,,,,,,,,0,,,58,0
190346,note_on,0,0,1,,,,,,,,,0,,,61,0
190346,note_on,0,0,0,,,,,,,,,0,,,73,0
190346,note_on,0,0,0,,,,,,,,,0,,,78,0
190346,note_on,106,0,1,,,,,,,,,0,,,54,0
190346,note_on,106,0,0,,,,,,,,,0,,,66,0
190346,note_on,0,0,0,,,,,,,,,0,,,70,0
190400,note_on,0,0,0,,,,,,,,,0,,,70,127
190400,note_on,0,0,0,,,,,,,,,0,,,78,127
190400,note_on,54,0,1,,,,,,,,,0,,,54,127
190400,note_on,0,0,0,,,,,,,,,0,,,73,127
190400,note_on,54,0,0,,,,,,,,,0,,,66,127
190400,note_on,0,0,1,,,,,,,,,0,,,58,127
190400,note_on,0,0,1,,,,,,,,,0,,,61,127
190506,note_on,106,0,1,,,,,,,,,0,,,54,0
190506,note_on,106,0,0,,,,,,,,,0,,,66,0
190506,note_on,0,0,1,,,,,,,,,0,,,58,0
190506,note_on,0,0,0,,,,,,,,,0,,,70,0
190506,note_on,0,0,0,,,,,,,,,0,,,73,0
190506,note_on,0,0,0,,,,,,,,,0,,,78,0
190506,note_on,0,0,1,,,,,,,,,0,,,61,0
190560,note_on,0,0,1,,,,,,,,,0,,,61,112
190560,note_on,0,0,0,,,,,,,,,0,,,78,126
190560,note_on,0,0,0,,,,,,,,,0,,,73,126
190560,note_on,0,0,0,,,,,,,,,0,,,70,126
190560,set_tempo,54,1,0,,,,,,631579,,,,,,,
190560,note_on,0,0,0,,,,,,,,,0,,,66,126
190560,note_on,54,0,1,,,,,,,,,0,,,54,112
190560,note_on,0,0,1,,,,,,,,,0,,,58,112
190711,note_on,0,0,1,,,,,,,,,0,,,61,0
190711,note_on,0,0,1,,,,,,,,,0,,,58,0
190711,note_on,151,0,1,,,,,,,,,0,,,54,0
190711,note_on,0,0,0,,,,,,,,,0,,,70,0
190711,note_on,0,0,0,,,,,,,,,0,,,73,0
190711,note_on,0,0,0,,,,,,,,,0,,,78,0
190711,note_on,151,0,0,,,,,,,,,0,,,66,0
190720,note_on,9,0,1,,,,,,,,,0,,,54,112
190720,note_on,9,0,0,,,,,,,,,0,,,66,126
190720,note_on,0,0,0,,,,,,,,,0,,,78,126
190720,note_on,0,0,0,,,,,,,,,0,,,70,126
190720,note_on,0,0,0,,,,,,,,,0,,,73,126
190720,note_on,0,0,1,,,,,,,,,0,,,58,112
190720,note_on,0,0,1,,,,,,,,,0,,,61,112
190871,note_on,0,0,0,,,,,,,,,0,,,70,0
190871,note_on,151,0,1,,,,,,,,,0,,,54,0
190871,note_on,0,0,1,,,,,,,,,0,,,61,0
190871,note_on,0,0,1,,,,,,,,,0,,,58,0
190871,note_on,151,0,0,,,,,,,,,0,,,66,0
190871,note_on,0,0,0,,,,,,,,,0,,,78,0
190871,note_on,0,0,0,,,,,,,,,0,,,73,0
190880,note_on,0,0,0,,,,,,,,,0,,,70,126
190880,note_on,0,0,1,,,,,,,,,0,,,58,112
190880,note_on,9,0,1,,,,,,,,,0,,,54,112
190880,note_on,0,0,1,,,,,,,,,0,,,61,112
190880,note_on,9,0,0,,,,,,,,,0,,,66,126
190880,note_on,0,0,0,,,,,,,,,0,,,73,126
190880,note_on,0,0,0,,,,,,,,,0,,,78,126
191031,note_on,0,0,0,,,,,,,,,0,,,70,0
191031,note_on,0,0,0,,,,,,,,,0,,,73,0
191031,note_on,0,0,0,,,,,,,,,0,,,78,0
191031,note_on,0,0,1,,,,,,,,,0,,,61,0
191031,note_on,0,0,1,,,,,,,,,0,,,58,0
191031,note_on,151,0,0,,,,,,,,,0,,,66,0
191031,note_on,151,0,1,,,,,,,,,0,,,54,0
191040,set_tempo,9,1,0,,,,,,800000,,,,,,,
191040,note_on,9,0,1,,,,,,,,,0,,,32,112
191040,note_on,0,0,1,,,,,,,,,0,,,44,112
191040,note_on,0,0,0,,,,,,,,,0,,,80,126
191040,note_on,0,0,0,,,,,,,,,0,,,92,126
191041,control_change,1,0,1,,,,,,,64,0,0,,,,
191042,control_change,1,0,1,,,,,,,64,127,0,,,,
191191,note_on,151,0,0,,,,,,,,,0,,,80,0
191191,note_on,0,0,1,,,,,,,,,0,,,44,0
191191,note_on,0,0,0,,,,,,,,,0,,,92,0
191191,note_on,149,0,1,,,,,,,,,0,,,32,0
191200,note_on,0,0,0,,,,,,,,,0,,,63,127
191200,note_on,0,0,1,,,,,,,,,0,,,60,127
191200,note_on,0,0,1,,,,,,,,,0,,,56,127
191200,note_on,0,0,0,,,,,,,,,0,,,68,127
191200,note_on,0,0,0,,,,,,,,,0,,,72,127
191200,note_on,0,0,0,,,,,,,,,0,,,75,127
191200,note_on,9,0,1,,,,,,,,,0,,,51,127
191200,set_tempo,9,1,0,,,,,,705882,,,,,,,
191306,note_on,0,0,1,,,,,,,,,0,,,56,0
191306,note_on,106,0,1,,,,,,,,,0,,,51,0
191306,note_on,0,0,1,,,,,,,,,0,,,60,0
191306,note_on,106,0,0,,,,,,,,,0,,,63,0
191306,note_on,0,0,0,,,,,,,,,0,,,75,0
191306,note_on,0,0,0,,,,,,,,,0,,,72,0
191306,note_on,0,0,0,,,,,,,,,0,,,68,0
191360,note_on,0,0,1,,,,,,,,,0,,,56,127
191360,note_on,0,0,0,,,,,,,,,0,,,68,127
191360,note_on,54,0,1,,,,,,,,,0,,,51,127
191360,note_on,54,0,0,,,,,,,,,0,,,63,127
191360,note_on,0,0,1,,,,,,,,,0,,,60,127
191360,note_on,0,0,0,,,,,,,,,0,,,75,127
191360,note_on,0,0,0,,,,,,,,,0,,,72,127
191466,note_on,0,0,0,,,,,,,,,0,,,72,0
191466,note_on,0,0,0,,,,,,,,,0,,,75,0
191466,note_on,0,0,0,,,,,,,,,0,,,68,0
191466,note_on,106,0,0,,,,,,,,,0,,,63,0
191466,note_on,106,0,1,,,,,,,,,0,,,51,0
191466,note_on,0,0,1,,,,,,,,,0,,,60,0
191466,note_on,0,0,1,,,,,,,,,0,,,56,0
191520,note_on,0,0,1,,,,,,,,,0,,,56,112
191520,note_on,0,0,1,,,,,,,,,0,,,60,112
191520,note_on,0,0,0,,,,,,,,,0,,,63,126
191520,note_on,0,0,0,,,,,,,,,0,,,68,126
191520,note_on,0,0,0,,,,,,,,,0,,,72,126
191520,note_on,54,0,1,,,,,,,,,0,,,51,112
191520,note_on,0,0,0,,,,,,,,,0,,,75,126
191520,set_tempo,54,1,0,,,,,,631579,,,,,,,
191671,note_on,151,0,1,,,,,,,,,0,,,51,0
191671,note_on,0,0,0,,,,,,,,,0,,,72,0
191671,note_on,0,0,1,,,,,,,,,0,,,56,0
191671,note_on,0,0,1,,,,,,,,,0,,,60,0
191671,note_on,0,0,0,,,,,,,,,0,,,75,0
191671,note_on,151,0,0,,,,,,,,,0,,,63,0
191671,note_on,0,0,0,,,,,,,,,0,,,68,0
191680,note_on,9,0,1,,,,,,,,,0,,,51,112
191680,note_on,0,0,0,,,,,,,,,0,,,68,126
191680,note_on,0,0,0,,,,,,,,,0,,,72,126
191680,note_on,0,0,0,,,,,,,,,0,,,75,126
191680,note_on,9,0,0,,,,,,,,,0,,,63,126
191680,note_on,0,0,1,,,,,,,,,0,,,56,112
191680,note_on,0,0,1,,,,,,,,,0,,,60,112
191831,note_on,0,0,1,,,,,,,,,0,,,56,0
191831,note_on,151,0,0,,,,,,,,,0,,,63,0
191831,note_on,0,0,1,,,,,,,,,0,,,60,0
191831,note_on,0,0,0,,,,,,,,,0,,,75,0
191831,note_on,0,0,0,,,,,,,,,0,,,68,0
191831,note_on,0,0,0,,,,,,,,,0,,,72,0
191831,note_on,151,0,1,,,,,,,,,0,,,51,0
191840,note_on,0,0,1,,,,,,,,,0,,,56,112
191840,note_on,0,0,0,,,,,,,,,0,,,72,126
191840,note_on,0,0,0,,,,,,,,,0,,,75,126
191840,note_on,9,0,0,,,,,,,,,0,,,63,126
191840,note_on,9,0,1,,,,,,,,,0,,,51,112
191840,note_on,0,0,1,,,,,,,,,0,,,60,112
191840,note_on,0,0,0,,,,,,,,,0,,,68,126
191991,note_on,0,0,0,,,,,,,,,0,,,75,0
191991,note_on,151,0,1,,,,,,,,,0,,,51,0
191991,note_on,0,0,0,,,,,,,,,0,,,68,0
191991,note_on,0,0,1,,,,,,,,,0,,,56,0
191991,note_on,0,0,1,,,,,,,,,0,,,60,0
191991,note_on,151,0,0,,,,,,,,,0,,,63,0
191991,note_on,0,0,0,,,,,,,,,0,,,72,0
192000,note_on,0,0,0,,,,,,,,,0,,,68,126
192000,note_on,9,0,0,,,,,,,,,0,,,63,126
192000,note_on,0,0,1,,,,,,,,,0,,,56,112
192000,note_on,0,0,1,,,,,,,,,0,,,60,112
192000,note_on,0,0,0,,,,,,,,,0,,,75,126
192000,note_on,0,0,0,,,,,,,,,0,,,72,126
192000,note_on,9,0,1,,,,,,,,,0,,,51,112
192151,note_on,151,0,1,,,,,,,,,0,,,51,0
192151,note_on,0,0,1,,,,,,,,,0,,,56,0
192151,note_on,0,0,1,,,,,,,,,0,,,60,0
192151,note_on,0,0,0,,,,,,,,,0,,,72,0
192151,note_on,0,0,0,,,,,,,,,0,,,75,0
192151,note_on,0,0,0,,,,,,,,,0,,,68,0
192151,note_on,151,0,0,,,,,,,,,0,,,63,0
192160,note_on,0,0,1,,,,,,,,,0,,,60,112
192160,note_on,0,0,0,,,,,,,,,0,,,68,126
192160,note_on,9,0,0,,,,,,,,,0,,,63,126
192160,note_on,0,0,0,,,,,,,,,0,,,72,126
192160,note_on,0,0,0,,,,,,,,,0,,,75,126
192160,note_on,0,0,1,,,,,,,,,0,,,56,112
192160,note_on,9,0,1,,,,,,,,,0,,,51,112
192311,note_on,151,0,1,,,,,,,,,0,,,51,0
192311,note_on,151,0,0,,,,,,,,,0,,,63,0
192311,note_on,0,0,1,,,,,,,,,0,,,56,0
192311,note_on,0,0,1,,,,,,,,,0,,,60,0
192311,note_on,0,0,0,,,,,,,,,0,,,75,0
192311,note_on,0,0,0,,,,,,,,,0,,,72,0
192311,note_on,0,0,0,,,,,,,,,0,,,68,0
192320,note_on,9,0,0,,,,,,,,,0,,,63,126
192320,note_on,0,0,1,,,,,,,,,0,,,60,112
192320,note_on,0,0,1,,,,,,,,,0,,,56,112
192320,note_on,0,0,0,,,,,,,,,0,,,75,126
192320,note_on,0,0,0,,,,,,,,,0,,,72,126
192320,note_on,0,0,0,,,,,,,,,0,,,68,126
192320,note_on,9,0,1,,,,,,,,,0,,,51,112
192471,note_on,0,0,1,,,,,,,,,0,,,60,0
192471,note_on,0,0,0,,,,,,,,,0,,,68,0
192471,note_on,0,0,0,,,,,,,,,0,,,72,0
192471,note_on,0,0,0,,,,,,,,,0,,,75,0
192471,note_on,151,0,1,,,,,,,,,0,,,51,0
192471,note_on,0,0,1,,,,,,,,,0,,,56,0
192471,note_on,151,0,0,,,,,,,,,0,,,63,0
192480,note_on,0,0,1,,,,,,,,,0,,,44,112
192480,set_tempo,9,1,0,,,,,,800000,,,,,,,
192480,note_on,9,0,1,,,,,,,,,0,,,32,112
192480,note_on,0,0,0,,,,,,,,,0,,,80,126
192480,note_on,0,0,0,,,,,,,,,0,,,92,126
192631,note_on,0,0,1,,,,,,,,,0,,,44,0
192631,note_on,151,0,0,,,,,,,,,0,,,80,0
192631,note_on,151,0,1,,,,,,,,,0,,,32,0
192631,note_on,0,0,0,,,,,,,,,0,,,92,0
192640,note_on,0,0,1,,,,,,,,,0,,,61,127
192640,note_on,0,0,0,,,,,,,,,0,,,65,127
192640,note_on,0,0,1,,,,,,,,,0,,,56,127
192640,note_on,0,0,0,,,,,,,,,0,,,68,127
192640,note_on,0,0,0,,,,,,,,,0,,,73,127
192640,set_tempo,9,1,0,,,,,,705882,,,,,,,
192640,note_on,0,0,0,,,,,,,,,0,,,77,127
192640,note_on,9,0,1,,,,,,,,,0,,,53,127
192746,note_on,0,0,1,,,,,,,,,0,,,61,0
192746,note_on,0,0,1,,,,,,,,,0,,,56,0
192746,note_on,0,0,0,,,,,,,,,0,,,68,0
192746,note_on,0,0,0,,,,,,,,,0,,,77,0
192746,note_on,106,0,0,,,,,,,,,0,,,65,0
192746,note_on,0,0,0,,,,,,,,,0,,,73,0
192746,note_on,106,0,1,,,,,,,,,0,,,53,0
192800,note_on,54,0,0,,,,,,,,,0,,,65,127
192800,note_on,0,0,1,,,,,,,,,0,,,61,127
192800,note_on,0,0,0,,,,,,,,,0,,,68,127
192800,note_on,0,0,0,,,,,,,,,0,,,73,127
192800,note_on,0,0,0,,,,,,,,,0,,,77,127
192800,note_on,0,0,1,,,,,,,,,0,,,56,127
192800,note_on,54,0,1,,,,,,,,,0,,,53,127
192906,note_on,106,0,1,,,,,,,,,0,,,53,0
192906,note_on,0,0,0,,,,,,,,,0,,,77,0
192906,note_on,106,0,0,,,,,,,,,0,,,65,0
192906,note_on,0,0,0,,,,,,,,,0,,,73,0
192906,note_on,0,0,0,,,,,,,,,0,,,68,0
192906,note_on,0,0,1,,,,,,,,,0,,,56,0
192906,note_on,0,0,1,,,,,,,,,0,,,61,0
192960,note_on,0,0,0,,,,,,,,,0,,,80,126
192960,set_tempo,54,1,0,,,,,,800000,,,,,,,
192960,note_on,0,0,1,,,,,,,,,0,,,44,112
192960,note_on,54,0,1,,,,,,,,,0,,,32,112
192960,note_on,0,0,0,,,,,,,,,0,,,92,126
192961,control_change,1,0,1,,,,,,,64,0,0,,,,
192962,control_change,1,0,1,,,,,,,64,127,0,,,,
193111,note_on,0,0,1,,,,,,,,,0,,,44,0
193111,note_on,151,0,0,,,,,,,,,0,,,80,0
193111,note_on,149,0,1,,,,,,,,,0,,,32,0
193111,note_on,0,0,0,,,,,,,,,0,,,92,0
193120,note_on,0,0,0,,,,,,,,,0,,,78,127
193120,set_tempo,9,1,0,,,,,,705882,,,,,,,
193120,note_on,9,0,1,,,,,,,,,0,,,54,127
193120,note_on,0,0,1,,,,,,,,,0,,,61,127
193120,note_on,0,0,1,,,,,,,,,0,,,58,127
193120,note_on,0,0,0,,,,,,,,,0,,,66,127
193120,note_on,0,0,0,,,,,,,,,0,,,73,127
193120,note_on,0,0,0,,,,,,,,,0,,,70,127
193226,note_on,0,0,0,,,,,,,,,0,,,78,0
193226,note_on,106,0,1,,,,,,,,,0,,,54,0
193226,note_on,0,0,0,,,,,,,,,0,,,70,0
193226,note_on,0,0,0,,,,,,,,,0,,,73,0
193226,note_on,106,0,0,,,,,,,,,0,,,66,0
193226,note_on,0,0,1,,,,,,,,,0,,,58,0
193226,note_on,0,0,1,,,,,,,,,0,,,61,0
193280,note_on,0,0,0,,,,,,,,,0,,,70,127
193280,note_on,0,0,0,,,,,,,,,0,,,73,127
193280,note_on,54,0,1,,,,,,,,,0,,,54,127
193280,note_on,0,0,1,,,,,,,,,0,,,58,127
193280,note_on,0,0,0,,,,,,,,,0,,,78,127
193280,note_on,54,0,0,,,,,,,,,0,,,66,127
193280,note_on,0,0,1,,,,,,,,,0,,,61,127
193386,note_on,0,0,0,,,,,,,,,0,,,70,0
193386,note_on,0,0,0,,,,,,,,,0,,,73,0
193386,note_on,0,0,0,,,,,,,,,0,,,78,0
193386,note_on,106,0,1,,,,,,,,,0,,,54,0
193386,note_on,106,0,0,,,,,,,,,0,,,66,0
193386,note_on,0,0,1,,,,,,,,,0,,,61,0
193386,note_on,0,0,1,,,,,,,,,0,,,58,0
193440,note_on,0,0,1,,,,,,,,,0,,,58,112
193440,note_on,0,0,0,,,,,,,,,0,,,78,126
193440,note_on,0,0,0,,,,,,,,,0,,,73,126
193440,note_on,0,0,0,,,,,,,,,0,,,70,126
193440,note_on,0,0,0,,,,,,,,,0,,,66,126
193440,note_on,0,0,1,,,,,,,,,0,,,61,112
193440,set_tempo,54,1,0,,,,,,631579,,,,,,,
193440,note_on,54,0,1,,,,,,,,,0,,,54,112
193591,note_on,151,0,1,,,,,,,,,0,,,54,0
193591,note_on,151,0,0,,,,,,,,,0,,,66,0
193591,note_on,0,0,0,,,,,,,,,0,,,70,0
193591,note_on,0,0,0,,,,,,,,,0,,,73,0
193591,note_on,0,0,0,,,,,,,,,0,,,78,0
193591,note_on,0,0,1,,,,,,,,,0,,,61,0
193591,note_on,0,0,1,,,,,,,,,0,,,58,0
193600,note_on,9,0,0,,,,,,,,,0,,,66,126
193600,note_on,0,0,0,,,,,,,,,0,,,73,126
193600,note_on,0,0,0,,,,,,,,,0,,,78,126
193600,note_on,0,0,1,,,,,,,,,0,,,58,112
193600,note_on,0,0,1,,,,,,,,,0,,,61,112
193600,note_on,9,0,1,,,,,,,,,0,,,54,112
193600,note_on,0,0,0,,,,,,,,,0,,,70,126
193751,note_on,151,0,1,,,,,,,,,0,,,54,0
193751,note_on,0,0,0,,,,,,,,,0,,,78,0
193751,note_on,0,0,0,,,,,,,,,0,,,73,0
193751,note_on,151,0,0,,,,,,,,,0,,,66,0
193751,note_on,0,0,1,,,,,,,,,0,,,58,0
193751,note_on,0,0,0,,,,,,,,,0,,,70,0
193751,note_on,0,0,1,,,,,,,,,0,,,61,0
193760,note_on,9,0,0,,,,,,,,,0,,,66,126
193760,note_on,0,0,0,,,,,,,,,0,,,78,126
193760,note_on,0,0,0,,,,,,,,,0,,,70,126
193760,note_on,0,0,0,,,,,,,,,0,,,73,126
193760,note_on,0,0,1,,,,,,,,,0,,,58,112
193760,note_on,0,0,1,,,,,,,,,0,,,61,112
193760,note_on,9,0,1,,,,,,,,,0,,,54,112
193911,note_on,151,0,0,,,,,,,,,0,,,66,0
193911,note_on,0,0,0,,,,,,,,,0,,,70,0
193911,note_on,0,0,0,,,,,,,,,0,,,73,0
193911,note_on,0,0,1,,,,,,,,,0,,,58,0
193911,note_on,151,0,1,,,,,,,,,0,,,54,0
193911,note_on,0,0,0,,,,,,,,,0,,,78,0
193911,note_on,0,0,1,,,,,,,,,0,,,61,0
193920,note_on,9,0,1,,,,,,,,,0,,,32,112
193920,note_on,0,0,0,,,,,,,,,0,,,80,126
193920,note_on,0,0,0,,,,,,,,,0,,,92,126
193920,set_tempo,9,1,0,,,,,,800000,,,,,,,
193920,note_on,0,0,1,,,,,,,,,0,,,44,112
194071,note_on,151,0,1,,,,,,,,,0,,,32,0
194071,note_on,151,0,0,,,,,,,,,0,,,80,0
194071,note_on,0,0,1,,,,,,,,,0,,,44,0
194071,note_on,0,0,0,,,,,,,,,0,,,92,0
194080,note_on,0,0,0,,,,,,,,,0,,,78,127
194080,note_on,9,0,1,,,,,,,,,0,,,58,127
194080,note_on,0,0,0,,,,,,,,,0,,,75,127
194080,note_on,0,0,0,,,,,,,,,0,,,70,127
194080,note_on,0,0,1,,,,,,,,,0,,,60,127
194080,note_on,0,0,1,,,,,,,,,0,,,63,127
194080,note_on,0,0,1,,,,,,,,,0,,,66,127
194080,note_on,0,0,0,,,,,,,,,0,,,82,127
194080,set_tempo,9,1,0,,,,,,705882,,,,,,,
194186,note_on,106,0,0,,,,,,,,,0,,,70,0
194186,note_on,106,0,1,,,,,,,,,0,,,58,0
194186,note_on,0,0,0,,,,,,,,,0,,,82,0
194186,note_on,0,0,0,,,,,,,,,0,,,78,0
194186,note_on,0,0,1,,,,,,,,,0,,,60,0
194186,note_on,0,0,1,,,,,,,,,0,,,66,0
194186,note_on,0,0,1,,,,,,,,,0,,,63,0
194186,note_on,0,0,0,,,,,,,,,0,,,75,0
194240,note_on,0,0,0,,,,,,,,,0,,,75,127
194240,note_on,0,0,1,,,,,,,,,0,,,63,127
194240,note_on,0,0,1,,,,,,,,,0,,,60,127
194240,note_on,54,0,1,,,,,,,,,0,,,58,127
194240,note_on,54,0,0,,,,,,,,,0,,,70,127
194240,note_on,0,0,1,,,,,,,,,0,,,66,127
194240,note_on,0,0,0,,,,,,,,,0,,,78,127
194240,note_on,0,0,0,,,,,,,,,0,,,82,127
194346,note_on,0,0,0,,,,,,,,,0,,,78,0
194346,note_on,0,0,0,,,,,,,,,0,,,82,0
194346,note_on,0,0,1,,,,,,,,,0,,,60,0
194346,note_on,0,0,1,,,,,,,,,0,,,63,0
194346,note_on,0,0,1,,,,,,,,,0,,,66,0
194346,note_on,106,0,0,,,,,,,,,0,,,70,0
194346,note_on,106,0,1,,,,,,,,,0,,,58,0
194346,note_on,0,0,0,,,,,,,,,0,,,75,0
194400,set_tempo,54,1,0,,,,,,631579,,,,,,,
194400,note_on,0,0,1,,,,,,,,,0,,,60,112
194400,note_on,0,0,1,,,,,,,,,0,,,63,112
194400,note_on,0,0,1,,,,,,,,,0,,,66,112
194400,note_on,54,0,1,,,,,,,,,0,,,58,112
194400,note_on,0,0,0,,,,,,,,,0,,,82,126
194400,note_on,0,0,0,,,,,,,,,0,,,78,126
194400,note_on,0,0,0,,,,,,,,,0,,,75,126
194400,note_on,0,0,0,,,,,,,,,0,,,70,126
194551,note_on,151,0,1,,,,,,,,,0,,,58,0
194551,note_on,0,0,1,,,,,,,,,0,,,60,0
194551,note_on,0,0,0,,,,,,,,,0,,,82,0
194551,note_on,0,0,0,,,,,,,,,0,,,78,0
194551,note_on,0,0,0,,,,,,,,,0,,,75,0
194551,note_on,151,0,0,,,,,,,,,0,,,70,0
194551,note_on,0,0,1,,,,,,,,,0,,,66,0
194551,note_on,0,0,1,,,,,,,,,0,,,63,0
194560,note_on,9,0,0,,,,,,,,,0,,,70,126
194560,note_on,0,0,0,,,,,,,,,0,,,78,126
194560,note_on,9,0,1,,,,,,,,,0,,,58,112
194560,note_on,0,0,1,,,,,,,,,0,,,60,112
194560,note_on,0,0,1,,,,,,,,,0,,,63,112
194560,note_on,0,0,1,,,,,,,,,0,,,66,112
194560,note_on,0,0,0,,,,,,,,,0,,,75,126
194560,note_on,0,0,0,,,,,,,,,0,,,82,126
194711,note_on,151,0,1,,,,,,,,,0,,,58,0
194711,note_on,151,0,0,,,,,,,,,0,,,70,0
194711,note_on,0,0,1,,,,,,,,,0,,,60,0
194711,note_on,0,0,1,,,,,,,,,0,,,63,0
194711,note_on,0,0,1,,,,,,,,,0,,,66,0
194711,note_on,0,0,0,,,,,,,,,0,,,75,0
194711,note_on,0,0,0,,,,,,,,,0,,,78,0
194711,note_on,0,0,0,,,,,,,,,0,,,82,0
194720,note_on,9,0,0,,,,,,,,,0,,,68,126
194720,note_on,0,0,0,,,,,,,,,0,,,75,126
194720,note_on,0,0,0,,,,,,,,,0,,,80,126
194720,note_on,9,0,1,,,,,,,,,0,,,56,112
194720,note_on,0,0,1,,,,,,,,,0,,,66,112
194720,note_on,0,0,1,,,,,,,,,0,,,63,112
194720,note_on,0,0,1,,,,,,,,,0,,,60,112
194720,note_on,0,0,0,,,,,,,,,0,,,78,126
194800,note_on,0,0,0,,,,,,,,,0,,,80,0
194800,note_on,0,0,1,,,,,,,,,0,,,44,112
194800,note_on,80,0,1,,,,,,,,,0,,,32,112
194800,set_tempo,80,1,0,,,,,,800000,,,,,,,
194800,note_on,0,0,0,,,,,,,,,0,,,80,126
194800,note_on,0,0,0,,,,,,,,,0,,,92,126
194871,note_on,71,0,1,,,,,,,,,0,,,56,0
194871,note_on,0,0,0,,,,,,,,,0,,,78,0
194871,note_on,71,0,0,,,,,,,,,0,,,68,0
194871,note_on,0,0,0,,,,,,,,,0,,,75,0
194871,note_on,0,0,1,,,,,,,,,0,,,60,0
194871,note_on,0,0,1,,,,,,,,,0,,,63,0
194871,note_on,0,0,1,,,,,,,,,0,,,66,0
194875,note_on,4,0,1,,,,,,,,,0,,,32,0
194875,note_on,4,0,0,,,,,,,,,0,,,80,0
194875,note_on,0,0,1,,,,,,,,,0,,,44,0
194875,note_on,0,0,0,,,,,,,,,0,,,92,0
194880,note_on,0,0,1,,,,,,,,,0,,,44,112
194880,note_on,5,0,1,,,,,,,,,0,,,32,112
194880,note_on,5,0,0,,,,,,,,,0,,,80,127
194880,note_on,0,0,0,,,,,,,,,0,,,92,127
194881,control_change,1,0,1,,,,,,,64,0,0,,,,
194882,control_change,1,0,1,,,,,,,64,127,0,,,,
194986,note_on,0,0,0,,,,,,,,,0,,,92,0
194986,note_on,106,0,0,,,,,,,,,0,,,80,0
195031,note_on,0,0,1,,,,,,,,,0,,,44,0
195031,note_on,149,0,1,,,,,,,,,0,,,32,0
195040,note_on,0,0,0,,,,,,,,,0,,,68,126
195040,note_on,0,0,0,,,,,,,,,0,,,65,126
195040,note_on,9,0,1,,,,,,,,,0,,,53,112
195040,note_on,0,0,0,,,,,,,,,0,,,77,126
195040,note_on,0,0,1,,,,,,,,,0,,,56,112
195040,note_on,0,0,1,,,,,,,,,0,,,61,112
195040,set_tempo,54,1,0,,,,,,705882,,,,,,,
195040,note_on,0,0,0,,,,,,,,,0,,,73,126
195191,note_on,0,0,0,,,,,,,,,0,,,77,0
195191,note_on,0,0,0,,,,,,,,,0,,,73,0
195191,note_on,0,0,0,,,,,,,,,0,,,68,0
195191,note_on,151,0,1,,,,,,,,,0,,,53,0
195191,note_on,151,0,0,,,,,,,,,0,,,65,0
195191,note_on,0,0,1,,,,,,,,,0,,,61,0
195191,note_on,0,0,1,,,,,,,,,0,,,56,0
195200,note_on,9,0,0,,,,,,,,,0,,,65,126
195200,note_on,0,0,0,,,,,,,,,0,,,73,126
195200,note_on,9,0,1,,,,,,,,,0,,,53,112
195200,note_on,0,0,1,,,,,,,,,0,,,61,112
195200,note_on,0,0,1,,,,,,,,,0,,,56,112
195200,note_on,0,0,0,,,,,,,,,0,,,68,126
195200,note_on,0,0,0,,,,,,,,,0,,,77,126
195351,note_on,151,0,0,,,,,,,,,0,,,65,0
195351,note_on,151,0,1,,,,,,,,,0,,,53,0
195351,note_on,0,0,0,,,,,,,,,0,,,77,0
195351,note_on,0,0,0,,,,,,,,,0,,,73,0
195351,note_on,0,0,1,,,,,,,,,0,,,61,0
195351,note_on,0,0,0,,,,,,,,,0,,,68,0
195351,note_on,0,0,1,,,,,,,,,0,,,56,0
195360,set_tempo,9,1,0,,,,,,631579,,,,,,,
195360,note_on,0,0,1,,,,,,,,,0,,,56,112
195360,note_on,0,0,0,,,,,,,,,0,,,65,126
195360,note_on,0,0,0,,,,,,,,,0,,,68,126
195360,note_on,0,0,1,,,,,,,,,0,,,61,112
195360,note_on,0,0,0,,,,,,,,,0,,,73,126
195360,note_on,0,0,0,,,,,,,,,0,,,77,126
195360,note_on,9,0,1,,,,,,,,,0,,,53,112
195511,note_on,151,0,0,,,,,,,,,0,,,65,0
195511,note_on,151,0,1,,,,,,,,,0,,,53,0
195511,note_on,0,0,0,,,,,,,,,0,,,73,0
195511,note_on,0,0,1,,,,,,,,,0,,,56,0
195511,note_on,0,0,0,,,,,,,,,0,,,77,0
195511,note_on,0,0,0,,,,,,,,,0,,,68,0
195511,note_on,0,0,1,,,,,,,,,0,,,61,0
195520,note_on,0,0,1,,,,,,,,,0,,,56,112
195520,note_on,0,0,1,,,,,,,,,0,,,61,112
195520,note_on,9,0,0,,,,,,,,,0,,,65,126
195520,note_on,9,0,1,,,,,,,,,0,,,53,112
195520,note_on,0,0,0,,,,,,,,,0,,,77,126
195520,note_on,0,0,0,,,,,,,,,0,,,73,126
195520,note_on,0,0,0,,,,,,,,,0,,,68,126
195671,note_on,0,0,1,,,,,,,,,0,,,56,0
195671,note_on,0,0,0,,,,,,,,,0,,,68,0
195671,note_on,0,0,0,,,,,,,,,0,,,77,0
195671,note_on,0,0,0,,,,,,,,,0,,,73,0
195671,note_on,151,0,1,,,,,,,,,0,,,53,0
195671,note_on,0,0,1,,,,,,,,,0,,,61,0
195671,note_on,151,0,0,,,,,,,,,0,,,65,0
195680,note_on,0,0,0,,,,,,,,,0,,,73,126
195680,note_on,0,0,0,,,,,,,,,0,,,77,126
195680,note_on,0,0,1,,,,,,,,,0,,,56,112
195680,note_on,0,0,0,,,,,,,,,0,,,68,126
195680,note_on,0,0,1,,,,,,,,,0,,,61,112
195680,note_on,9,0,1,,,,,,,,,0,,,53,112
195680,note_on,9,0,0,,,,,,,,,0,,,65,126
195831,note_on,0,0,0,,,,,,,,,0,,,73,0
195831,note_on,151,0,1,,,,,,,,,0,,,53,0
195831,note_on,151,0,0,,,,,,,,,0,,,65,0
195831,note_on,0,0,1,,,,,,,,,0,,,61,0
195831,note_on,0,0,0,,,,,,,,,0,,,68,0
195831,note_on,0,0,1,,,,,,,,,0,,,56,0
195831,note_on,0,0,0,,,,,,,,,0,,,77,0
195840,note_on,0,0,0,,,,,,,,,0,,,65,126
195840,note_on,0,0,0,,,,,,,,,0,,,73,126
195840,note_on,0,0,0,,,,,,,,,0,,,68,126
195840,note_on,0,0,1,,,,,,,,,0,,,56,112
195840,note_on,0,0,1,,,,,,,,,0,,,61,112
195840,note_on,9,0,1,,,,,,,,,0,,,53,112
195840,set_tempo,9,1,0,,,,,,705882,,,,,,,
195840,note_on,0,0,0,,,,,,,,,0,,,77,126
195991,note_on,0,0,0,,,,,,,,,0,,,77,0
195991,note_on,0,0,0,,,,,,,,,0,,,73,0
195991,note_on,0,0,0,,,,,,,,,0,,,68,0
195991,note_on,0,0,1,,,,,,,,,0,,,56,0
195991,note_on,151,0,0,,,,,,,,,0,,,65,0
195991,note_on,151,0,1,,,,,,,,,0,,,53,0
195991,note_on,0,0,1,,,,,,,,,0,,,61,0
196000,note_on,0,0,1,,,,,,,,,0,,,61,112
196000,note_on,9,0,0,,,,,,,,,0,,,65,126
196000,note_on,0,0,0,,,,,,,,,0,,,73,126
196000,note_on,9,0,1,,,,,,,,,0,,,53,112
196000,note_on,0,0,1,,,,,,,,,0,,,56,112
196000,note_on,0,0,0,,,,,,,,,0,,,77,126
196000,note_on,0,0,0,,,,,,,,,0,,,68,126
196151,note_on,0,0,0,,,,,,,,,0,,,77,0
196151,note_on,0,0,1,,,,,,,,,0,,,61,0
196151,note_on,0,0,0,,,,,,,,,0,,,68,0
196151,note_on,151,0,0,,,,,,,,,0,,,65,0
196151,note_on,0,0,1,,,,,,,,,0,,,56,0
196151,note_on,151,0,1,,,,,,,,,0,,,53,0
196151,note_on,0,0,0,,,,,,,,,0,,,73,0
196160,note_on,9,0,1,,,,,,,,,0,,,53,112
196160,note_on,9,0,0,,,,,,,,,0,,,65,126
196160,note_on,0,0,1,,,,,,,,,0,,,56,112
196160,note_on,0,0,0,,,,,,,,,0,,,68,126
196160,note_on,0,0,1,,,,,,,,,0,,,61,112
196160,note_on,0,0,0,,,,,,,,,0,,,73,126
196160,note_on,0,0,0,,,,,,,,,0,,,77,126
196311,note_on,0,0,0,,,,,,,,,0,,,73,0
196311,note_on,0,0,1,,,,,,,,,0,,,56,0
196311,note_on,0,0,1,,,,,,,,,0,,,61,0
196311,note_on,151,0,1,,,,,,,,,0,,,53,0
196311,note_on,0,0,0,,,,,,,,,0,,,68,0
196311,note_on,151,0,0,,,,,,,,,0,,,65,0
196311,note_on,0,0,0,,,,,,,,,0,,,77,0
196320,note_on,0,0,0,,,,,,,,,0,,,77,127
196320,set_tempo,9,1,0,,,,,,800000,,,,,,,
196320,note_on,0,0,1,,,,,,,,,0,,,49,127
196320,note_on,0,0,1,,,,,,,,,0,,,44,127
196320,note_on,0,0,0,,,,,,,,,0,,,80,127
196320,note_on,9,0,1,,,,,,,,,0,,,37,127
196320,note_on,0,0,0,,,,,,,,,0,,,89,127
196426,note_on,106,0,1,,,,,,,,,0,,,37,0
196426,note_on,0,0,0,,,,,,,,,0,,,80,0
196426,note_on,0,0,1,,,,,,,,,0,,,49,0
196426,note_on,0,0,1,,,,,,,,,0,,,44,0
196426,note_on,106,0,0,,,,,,,,,0,,,77,0
196426,note_on,0,0,0,,,,,,,,,0,,,89,0
196480,note_on,54,0,1,,,,,,,,,0,,,49,112
196480,note_on,0,0,0,,,,,,,,,0,,,68,126
196480,set_tempo,54,1,0,,,,,,705882,,,,,,,
196480,note_on,0,0,0,,,,,,,,,0,,,77,126
196480,note_on,0,0,1,,,,,,,,,0,,,61,112
196480,note_on,0,0,1,,,,,,,,,0,,,56,112
196480,note_on,0,0,0,,,,,,,,,0,,,65,126
196631,note_on,0,0,0,,,,,,,,,0,,,68,0
196631,note_on,0,0,0,,,,,,,,,0,,,77,0
196631,note_on,0,0,1,,,,,,,,,0,,,61,0
196631,note_on,0,0,1,,,,,,,,,0,,,56,0
196631,note_on,151,0,1,,,,,,,,,0,,,49,0
196631,note_on,151,0,0,,,,,,,,,0,,,65,0
196640,note_on,9,0,0,,,,,,,,,0,,,65,126
196640,note_on,0,0,0,,,,,,,,,0,,,68,126
196640,note_on,9,0,1,,,,,,,,,0,,,49,112
196640,note_on,0,0,1,,,,,,,,,0,,,61,112
196640,note_on,0,0,1,,,,,,,,,0,,,56,112
196640,note_on,0,0,0,,,,,,,,,0,,,77,126
196791,note_on,151,0,0,,,,,,,,,0,,,65,0
196791,note_on,151,0,1,,,,,,,,,0,,,49,0
196791,note_on,0,0,0,,,,,,,,,0,,,77,0
196791,note_on,0,0,1,,,,,,,,,0,,,61,0
196791,note_on,0,0,0,,,,,,,,,0,,,68,0
196791,note_on,0,0,1,,,,,,,,,0,,,56,0
196800,note_on,0,0,1,,,,,,,,,0,,,44,124
196800,note_on,0,0,1,,,,,,,,,0,,,49,124
196800,note_on,0,0,0,,,,,,,,,0,,,89,127
196800,note_on,0,0,0,,,,,,,,,0,,,77,127
196800,note_on,9,0,1,,,,,,,,,0,,,37,124
196800,note_on,0,0,0,,,,,,,,,0,,,80,127
196800,set_tempo,9,1,0,,,,,,800000,,,,,,,
196801,control_change,1,0,1,,,,,,,64,0,0,,,,
196802,control_change,1,0,1,,,,,,,64,127,0,,,,
196906,note_on,104,0,1,,,,,,,,,0,,,37,0
196906,note_on,0,0,1,,,,,,,,,0,,,44,0
196906,note_on,0,0,0,,,,,,,,,0,,,89,0
196906,note_on,0,0,0,,,,,,,,,0,,,80,0
196906,note_on,106,0,0,,,,,,,,,0,,,77,0
196906,note_on,0,0,1,,,,,,,,,0,,,49,0
196960,set_tempo,54,1,0,,,,,,705882,,,,,,,
196960,note_on,0,0,1,,,,,,,,,0,,,56,104
196960,note_on,0,0,0,,,,,,,,,0,,,68,126
196960,note_on,0,0,1,,,,,,,,,0,,,61,104
196960,note_on,0,0,0,,,,,,,,,0,,,77,126
196960,note_on,54,0,1,,,,,,,,,0,,,49,104
196960,note_on,0,0,0,,,,,,,,,0,,,65,126
197111,note_on,151,0,1,,,,,,,,,0,,,49,0
197111,note_on,0,0,0,,,,,,,,,0,,,77,0
197111,note_on,0,0,1,,,,,,,,,0,,,61,0
197111,note_on,0,0,1,,,,,,,,,0,,,56,0
197111,note_on,151,0,0,,,,,,,,,0,,,65,0
197111,note_on,0,0,0,,,,,,,,,0,,,68,0
197120,note_on,0,0,0,,,,,,,,,0,,,77,126
197120,note_on,9,0,0,,,,,,,,,0,,,65,126
197120,note_on,0,0,1,,,,,,,,,0,,,61,104
197120,note_on,0,0,1,,,,,,,,,0,,,56,104
197120,note_on,0,0,0,,,,,,,,,0,,,68,126
197120,note_on,9,0,1,,,,,,,,,0,,,49,104
197271,note_on,0,0,1,,,,,,,,,0,,,61,0
197271,note_on,0,0,0,,,,,,,,,0,,,77,0
197271,note_on,0,0,0,,,,,,,,,0,,,68,0
197271,note_on,151,0,1,,,,,,,,,0,,,49,0
197271,note_on,151,0,0,,,,,,,,,0,,,65,0
197271,note_on,0,0,1,,,,,,,,,0,,,56,0
197280,set_tempo,9,1,0,,,,,,800000,,,,,,,
197280,note_on,9,0,1,,,,,,,,,0,,,37,124
197280,note_on,0,0,0,,,,,,,,,0,,,77,127
197280,note_on,0,0,0,,,,,,,,,0,,,80,127
197280,note_on,0,0,1,,,,,,,,,0,,,44,124
197280,note_on,0,0,1,,,,,,,,,0,,,49,124
197280,note_on,0,0,0,,,,,,,,,0,,,89,127
197386,note_on,0,0,0,,,,,,,,,0,,,89,0
197386,note_on,106,0,0,,,,,,,,,0,,,77,0
197386,note_on,0,0,1,,,,,,,,,0,,,49,0
197386,note_on,0,0,1,,,,,,,,,0,,,44,0
197386,note_on,106,0,1,,,,,,,,,0,,,37,0
197386,note_on,0,0,0,,,,,,,,,0,,,80,0
197440,set_tempo,54,1,0,,,,,,705882,,,,,,,
197440,note_on,0,0,0,,,,,,,,,0,,,65,126
197440,note_on,0,0,1,,,,,,,,,0,,,56,104
197440,note_on,0,0,0,,,,,,,,,0,,,68,126
197440,note_on,0,0,0,,,,,,,,,0,,,77,126
197440,note_on,0,0,1,,,,,,,,,0,,,61,104
197440,note_on,54,0,1,,,,,,,,,0,,,49,104
197591,note_on,151,0,1,,,,,,,,,0,,,49,0
197591,note_on,0,0,0,,,,,,,,,0,,,68,0
197591,note_on,0,0,0,,,,,,,,,0,,,77,0
197591,note_on,151,0,0,,,,,,,,,0,,,65,0
197591,note_on,0,0,1,,,,,,,,,0,,,61,0
197591,note_on,0,0,1,,,,,,,,,0,,,56,0
197600,note_on,0,0,1,,,,,,,,,0,,,61,104
197600,note_on,0,0,0,,,,,,,,,0,,,68,126
197600,note_on,0,0,1,,,,,,,,,0,,,56,104
197600,note_on,0,0,0,,,,,,,,,0,,,77,126
197600,set_tempo,9,1,0,,,,,,750000,,,,,,,
197600,note_on,9,0,1,,,,,,,,,0,,,49,104
197600,note_on,0,0,0,,,,,,,,,0,,,65,126
197751,note_on,0,0,0,,,,,,,,,0,,,77,0
197751,note_on,0,0,0,,,,,,,,,0,,,68,0
197751,note_on,0,0,1,,,,,,,,,0,,,56,0
197751,note_on,151,0,1,,,,,,,,,0,,,49,0
197751,note_on,0,0,1,,,,,,,,,0,,,61,0
197751,note_on,151,0,0,,,,,,,,,0,,,65,0
197760,note_on,9,0,0,,,,,,,,,0,,,80,127
197760,note_on,0,0,1,,,,,,,,,0,,,41,124
197760,note_on,0,0,0,,,,,,,,,0,,,92,127
197760,note_on,0,0,0,,,,,,,,,0,,,85,127
197760,note_on,0,0,1,,,,,,,,,0,,,46,124
197760,note_on,9,0,1,,,,,,,,,0,,,34,124
197866,note_on,0,0,1,,,,,,,,,0,,,41,0
197866,note_on,0,0,0,,,,,,,,,0,,,85,0
197866,note_on,106,0,1,,,,,,,,,0,,,34,0
197866,note_on,0,0,1,,,,,,,,,0,,,46,0
197866,note_on,106,0,0,,,,,,,,,0,,,80,0
197866,note_on,0,0,0,,,,,,,,,0,,,92,0
197920,note_on,54,0,1,,,,,,,,,0,,,46,104
197920,note_on,0,0,1,,,,,,,,,0,,,53,104
197920,note_on,0,0,0,,,,,,,,,0,,,73,126
197920,note_on,0,0,0,,,,,,,,,0,,,80,126
197920,set_tempo,54,1,0,,,,,,705882,,,,,,,
197920,note_on,0,0,0,,,,,,,,,0,,,68,126
197920,note_on,0,0,1,,,,,,,,,0,,,58,104
198071,note_on,0,0,1,,,,,,,,,0,,,53,0
198071,note_on,0,0,1,,,,,,,,,0,,,58,0
198071,note_on,151,0,0,,,,,,,,,0,,,68,0
198071,note_on,151,0,1,,,,,,,,,0,,,46,0
198071,note_on,0,0,0,,,,,,,,,0,,,80,0
198071,note_on,0,0,0,,,,,,,,,0,,,73,0
198080,note_on,9,0,1,,,,,,,,,0,,,46,104
198080,note_on,9,0,0,,,,,,,,,0,,,68,126
198080,note_on,0,0,1,,,,,,,,,0,,,53,104
198080,note_on,0,0,1,,,,,,,,,0,,,58,104
198080,note_on,0,0,0,,,,,,,,,0,,,80,126
198080,note_on,0,0,0,,,,,,,,,0,,,73,126
198231,note_on,151,0,0,,,,,,,,,0,,,68,0
198231,note_on,0,0,0,,,,,,,,,0,,,80,0
198231,note_on,0,0,1,,,,,,,,,0,,,58,0
198231,note_on,0,0,0,,,,,,,,,0,,,73,0
198231,note_on,151,0,1,,,,,,,,,0,,,46,0
198231,note_on,0,0,1,,,,,,,,,0,,,53,0
198240,note_on,0,0,1,,,,,,,,,0,,,41,124
198240,note_on,0,0,1,,,,,,,,,0,,,46,124
198240,set_tempo,9,1,0,,,,,,750000,,,,,,,
198240,note_on,0,0,0,,,,,,,,,0,,,91,127
198240,note_on,0,0,0,,,,,,,,,0,,,85,127
198240,note_on,0,0,0,,,,,,,,,0,,,79,127
198240,note_on,9,0,1,,,,,,,,,0,,,34,124
198346,note_on,106,0,1,,,,,,,,,0,,,34,0
198346,note_on,106,0,0,,,,,,,,,0,,,79,0
198346,note_on,0,0,1,,,,,,,,,0,,,46,0
198346,note_on,0,0,1,,,,,,,,,0,,,41,0
198346,note_on,0,0,0,,,,,,,,,0,,,91,0
198346,note_on,0,0,0,,,,,,,,,0,,,85,0
198400,note_on,0,0,0,,,,,,,,,0,,,73,126
198400,note_on,0,0,1,,,,,,,,,0,,,58,104
198400,note_on,0,0,0,,,,,,,,,0,,,79,126
198400,set_tempo,54,1,0,,,,,,705882,,,,,,,
198400,note_on,54,0,1,,,,,,,,,0,,,46,104
198400,note_on,0,0,1,,,,,,,,,0,,,53,104
198400,note_on,0,0,0,,,,,,,,,0,,,67,126
198551,note_on,151,0,1,,,,,,,,,0,,,46,0
198551,note_on,0,0,0,,,,,,,,,0,,,73,0
198551,note_on,0,0,0,,,,,,,,,0,,,79,0
198551,note_on,0,0,1,,,,,,,,,0,,,58,0
198551,note_on,151,0,0,,,,,,,,,0,,,67,0
198551,note_on,0,0,1,,,,,,,,,0,,,53,0
198560,note_on,0,0,1,,,,,,,,,0,,,58,104
198560,note_on,0,0,1,,,,,,,,,0,,,53,104
198560,note_on,9,0,0,,,,,,,,,0,,,67,126
198560,note_on,9,0,1,,,,,,,,,0,,,46,104
198560,note_on,0,0,0,,,,,,,,,0,,,73,126
198560,note_on,0,0,0,,,,,,,,,0,,,79,126
198711,note_on,0,0,1,,,,,,,,,0,,,58,0
198711,note_on,0,0,0,,,,,,,,,0,,,73,0
198711,note_on,0,0,1,,,,,,,,,0,,,53,0
198711,note_on,0,0,0,,,,,,,,,0,,,79,0
198711,note_on,151,0,1,,,,,,,,,0,,,46,0
198711,note_on,151,0,0,,,,,,,,,0,,,67,0
198720,note_on,0,0,1,,,,,,,,,0,,,48,124
198720,note_on,0,0,1,,,,,,,,,0,,,43,124
198720,note_on,0,0,1,,,,,,,,,0,,,40,124
198720,note_on,9,0,1,,,,,,,,,0,,,36,124
198720,set_tempo,9,1,0,,,,,,800000,,,,,,,
198720,note_on,0,0,0,,,,,,,,,0,,,72,127
198720,note_on,0,0,0,,,,,,,,,0,,,76,127
198720,note_on,0,0,0,,,,,,,,,0,,,84,127
198721,control_change,1,0,1,,,,,,,64,0,0,,,,
198722,control_change,1,0,1,,,,,,,64,127,0,,,,
198826,note_on,104,0,1,,,,,,,,,0,,,36,0
198826,note_on,0,0,1,,,,,,,,,0,,,40,0
198826,note_on,106,0,0,,,,,,,,,0,,,72,0
198826,note_on,0,0,1,,,,,,,,,0,,,43,0
198826,note_on,0,0,1,,,,,,,,,0,,,48,0
198826,note_on,0,0,0,,,,,,,,,0,,,84,0
198826,note_on,0,0,0,,,,,,,,,0,,,76,0
198880,note_on,54,0,1,,,,,,,,,0,,,48,104
198880,note_on,0,0,0,,,,,,,,,0,,,72,126
198880,note_on,0,0,0,,,,,,,,,0,,,64,126
198880,note_on,54,0,0,,,,,,,,,0,,,60,126
198880,note_on,0,0,1,,,,,,,,,0,,,55,104
198880,note_on,0,0,1,,,,,,,,,0,,,52,104
199031,note_on,0,0,1,,,,,,,,,0,,,55,0
199031,note_on,151,0,1,,,,,,,,,0,,,48,0
199031,note_on,151,0,0,,,,,,,,,0,,,60,0
199031,note_on,0,0,1,,,,,,,,,0,,,52,0
199031,note_on,0,0,0,,,,,,,,,0,,,64,0
199031,note_on,0,0,0,,,,,,,,,0,,,72,0
199040,note_on,0,0,1,,,,,,,,,0,,,53,105
199040,note_on,0,0,1,,,,,,,,,0,,,56,105
199040,note_on,9,0,1,,,,,,,,,0,,,48,105
199040,note_on,9,0,0,,,,,,,,,0,,,61,127
199040,note_on,0,0,0,,,,,,,,,0,,,65,127
199040,note_on,0,0,0,,,,,,,,,0,,,73,127
199191,note_on,151,0,1,,,,,,,,,0,,,48,0
199191,note_on,0,0,0,,,,,,,,,0,,,65,0
199191,note_on,0,0,0,,,,,,,,,0,,,73,0
199191,note_on,0,0,1,,,,,,,,,0,,,53,0
199191,note_on,0,0,1,,,,,,,,,0,,,56,0
199191,note_on,151,0,0,,,,,,,,,0,,,61,0
199200,note_on,0,0,1,,,,,,,,,0,,,54,106
199200,note_on,0,0,1,,,,,,,,,0,,,57,106
199200,set_tempo,9,1,0,,,,,,705882,,,,,,,
199200,note_on,9,0,1,,,,,,,,,0,,,48,106
199200,note_on,0,0,0,,,,,,,,,0,,,74,127
199200,note_on,0,0,0,,,,,,,,,0,,,66,127
199200,note_on,0,0,0,,,,,,,,,0,,,62,127
199351,note_on,0,0,0,,,,,,,,,0,,,66,0
199351,note_on,151,0,0,,,,,,,,,0,,,62,0
199351,note_on,0,0,1,,,,,,,,,0,,,57,0
199351,note_on,0,0,1,,,,,,,,,0,,,54,0
199351,note_on,151,0,1,,,,,,,,,0,,,48,0
199351,note_on,0,0,0,,,,,,,,,0,,,74,0
199360,note_on,0,0,1,,,,,,,,,0,,,58,107
199360,note_on,0,0,1,,,,,,,,,0,,,55,107
199360,note_on,9,0,0,,,,,,,,,0,,,63,127
199360,note_on,0,0,0,,,,,,,,,0,,,67,127
199360,note_on,9,0,1,,,,,,,,,0,,,48,107
199360,note_on,0,0,0,,,,,,,,,0,,,75,127
199511,note_on,0,0,0,,,,,,,,,0,,,75,0
199511,note_on,0,0,0,,,,,,,,,0,,,67,0
199511,note_on,0,0,1,,,,,,,,,0,,,55,0
199511,note_on,0,0,1,,,,,,,,,0,,,58,0
199511,note_on,151,0,1,,,,,,,,,0,,,48,0
199511,note_on,151,0,0,,,,,,,,,0,,,63,0
199520,note_on,9,0,0,,,,,,,,,0,,,64,127
199520,note_on,9,0,1,,,,,,,,,0,,,48,109
199520,note_on,0,0,1,,,,,,,,,0,,,59,109
199520,note_on,0,0,0,,,,,,,,,0,,,68,127
199520,note_on,0,0,1,,,,,,,,,0,,,56,109
199520,note_on,0,0,0,,,,,,,,,0,,,76,127
199671,note_on,151,0,1,,,,,,,,,0,,,48,0
199671,note_on,0,0,0,,,,,,,,,0,,,68,0
199671,note_on,151,0,0,,,,,,,,,0,,,64,0
199671,note_on,0,0,1,,,,,,,,,0,,,59,0
199671,note_on,0,0,0,,,,,,,,,0,,,76,0
199671,note_on,0,0,1,,,,,,,,,0,,,56,0
199680,note_on,0,0,1,,,,,,,,,0,,,57,110
199680,note_on,0,0,0,,,,,,,,,0,,,69,127
199680,note_on,0,0,1,,,,,,,,,0,,,60,110
199680,note_on,9,0,1,,,,,,,,,0,,,48,110
199680,note_on,9,0,0,,,,,,,,,0,,,65,127
199680,note_on,0,0,0,,,,,,,,,0,,,77,127
199831,note_on,0,0,1,,,,,,,,,0,,,57,0
199831,note_on,0,0,0,,,,,,,,,0,,,69,0
199831,note_on,151,0,0,,,,,,,,,0,,,65,0
199831,note_on,0,0,0,,,,,,,,,0,,,77,0
199831,note_on,151,0,1,,,,,,,,,0,,,48,0
199831,note_on,0,0,1,,,,,,,,,0,,,60,0
199840,note_on,0,0,1,,,,,,,,,0,,,56,111
199840,note_on,0,0,1,,,,,,,,,0,,,59,111
199840,note_on,0,0,0,,,,,,,,,0,,,68,127
199840,note_on,9,0,1,,,,,,,,,0,,,48,111
199840,note_on,0,0,0,,,,,,,,,0,,,76,127
199840,note_on,9,0,0,,,,,,,,,0,,,64,127
199991,note_on,0,0,1,,,,,,,,,0,,,59,0
199991,note_on,151,0,1,,,,,,,,,0,,,48,0
199991,note_on,151,0,0,,,,,,,,,0,,,64,0
199991,note_on,0,0,0,,,,,,,,,0,,,68,0
199991,note_on,0,0,0,,,,,,,,,0,,,76,0
199991,note_on,0,0,1,,,,,,,,,0,,,56,0
200000,note_on,9,0,0,,,,,,,,,0,,,63,127
200000,note_on,0,0,0,,,,,,,,,0,,,75,127
200000,note_on,9,0,1,,,,,,,,,0,,,48,112
200000,note_on,0,0,0,,,,,,,,,0,,,67,127
200000,note_on,0,0,1,,,,,,,,,0,,,58,112
200000,note_on,0,0,1,,,,,,,,,0,,,55,112
200151,note_on,151,0,0,,,,,,,,,0,,,63,0
200151,note_on,0,0,1,,,,,,,,,0,,,55,0
200151,note_on,0,0,1,,,,,,,,,0,,,58,0
200151,note_on,151,0,1,,,,,,,,,0,,,48,0
200151,note_on,0,0,0,,,,,,,,,0,,,67,0
200151,note_on,0,0,0,,,,,,,,,0,,,75,0
200160,note_on,9,0,1,,,,,,,,,0,,,48,114
200160,note_on,0,0,0,,,,,,,,,0,,,66,127
200160,note_on,9,0,0,,,,,,,,,0,,,62,127
200160,note_on,0,0,1,,,,,,,,,0,,,57,114
200160,note_on,0,0,0,,,,,,,,,0,,,74,127
200160,note_on,0,0,1,,,,,,,,,0,,,54,114
200311,note_on,0,0,1,,,,,,,,,0,,,57,0
200311,note_on,0,0,1,,,,,,,,,0,,,54,0
200311,note_on,151,0,0,,,,,,,,,0,,,62,0
200311,note_on,151,0,1,,,,,,,,,0,,,48,0
200311,note_on,0,0,0,,,,,,,,,0,,,66,0
200311,note_on,0,0,0,,,,,,,,,0,,,74,0
200320,note_on,0,0,0,,,,,,,,,0,,,73,127
200320,note_on,9,0,0,,,,,,,,,0,,,61,127
200320,note_on,0,0,1,,,,,,,,,0,,,56,114
200320,note_on,0,0,1,,,,,,,,,0,,,53,114
200320,note_on,0,0,0,,,,,,,,,0,,,65,127
200320,note_on,9,0,1,,,,,,,,,0,,,48,114
200471,note_on,0,0,0,,,,,,,,,0,,,65,0
200471,note_on,0,0,1,,,,,,,,,0,,,56,0
200471,note_on,151,0,1,,,,,,,,,0,,,48,0
200471,note_on,0,0,1,,,,,,,,,0,,,53,0
200471,note_on,151,0,0,,,,,,,,,0,,,61,0
200471,note_on,0,0,0,,,,,,,,,0,,,73,0
200480,note_on,0,0,0,,,,,,,,,0,,,72,127
200480,note_on,9,0,0,,,,,,,,,0,,,60,127
200480,note_on,0,0,1,,,,,,,,,0,,,55,114
200480,note_on,0,0,1,,,,,,,,,0,,,52,114
200480,note_on,9,0,1,,,,,,,,,0,,,48,114
200480,note_on,0,0,0,,,,,,,,,0,,,64,127
200631,note_on,151,0,1,,,,,,,,,0,,,48,0
200631,note_on,151,0,0,,,,,,,,,0,,,60,0
200631,note_on,0,0,1,,,,,,,,,0,,,52,0
200631,note_on,0,0,1,,,,,,,,,0,,,55,0
200631,note_on,0,0,0,,,,,,,,,0,,,64,0
200631,note_on,0,0,0,,,,,,,,,0,,,72,0
200640,note_on,9,0,1,,,,,,,,,0,,,41,104
200640,note_on,9,0,0,,,,,,,,,0,,,80,112
200640,note_on,0,0,0,,,,,,,,,0,,,84,112
200640,note_on,0,0,0,,,,,,,,,0,,,92,112
200640,note_on,0,0,1,,,,,,,,,0,,,53,104
200640,note_on,0,0,1,,,,,,,,,0,,,48,104
200641,control_change,1,0,1,,,,,,,64,0,0,,,,
200642,control_change,1,0,1,,,,,,,64,127,0,,,,
200791,note_on,0,0,1,,,,,,,,,0,,,48,0
200791,note_on,0,0,1,,,,,,,,,0,,,53,0
200791,note_on,0,0,0,,,,,,,,,0,,,92,0
200791,note_on,151,0,0,,,,,,,,,0,,,80,0
200791,note_on,0,0,0,,,,,,,,,0,,,84,0
200791,note_on,149,0,1,,,,,,,,,0,,,41,0
200800,note_on,0,0,0,,,,,,,,,0,,,72,112
200800,note_on,9,0,1,,,,,,,,,0,,,56,104
200800,note_on,0,0,1,,,,,,,,,0,,,60,104
200800,note_on,0,0,0,,,,,,,,,0,,,80,112
200800,note_on,9,0,0,,,,,,,,,0,,,68,112
200800,note_on,0,0,1,,,,,,,,,0,,,65,104
200951,note_on,0,0,1,,,,,,,,,0,,,65,0
200951,note_on,0,0,1,,,,,,,,,0,,,60,0
200951,note_on,151,0,1,,,,,,,,,0,,,56,0
200951,note_on,0,0,0,,,,,,,,,0,,,80,0
200951,note_on,0,0,0,,,,,,,,,0,,,72,0
200951,note_on,151,0,0,,,,,,,,,0,,,68,0
200960,note_on,0,0,1,,,,,,,,,0,,,65,104
200960,note_on,9,0,1,,,,,,,,,0,,,56,104
200960,note_on,0,0,0,,,,,,,,,0,,,80,112
200960,note_on,0,0,0,,,,,,,,,0,,,72,112
200960,note_on,9,0,0,,,,,,,,,0,,,68,112
200960,note_on,0,0,1,,,,,,,,,0,,,60,104
201111,note_on,0,0,1,,,,,,,,,0,,,65,0
201111,note_on,0,0,1,,,,,,,,,0,,,60,0
201111,note_on,151,0,1,,,,,,,,,0,,,56,0
201111,note_on,151,0,0,,,,,,,,,0,,,68,0
201111,note_on,0,0,0,,,,,,,,,0,,,72,0
201111,note_on,0,0,0,,,,,,,,,0,,,80,0
201120,note_on,0,0,0,,,,,,,,,0,,,84,112
201120,note_on,9,0,1,,,,,,,,,0,,,41,104
201120,note_on,0,0,0,,,,,,,,,0,,,92,112
201120,note_on,0,0,1,,,,,,,,,0,,,48,104
201120,note_on,0,0,1,,,,,,,,,0,,,53,104
201120,note_on,9,0,0,,,,,,,,,0,,,80,112
201271,note_on,151,0,1,,,,,,,,,0,,,41,0
201271,note_on,0,0,1,,,,,,,,,0,,,53,0
201271,note_on,0,0,1,,,,,,,,,0,,,48,0
201271,note_on,0,0,0,,,,,,,,,0,,,92,0
201271,note_on,151,0,0,,,,,,,,,0,,,80,0
201271,note_on,0,0,0,,,,,,,,,0,,,84,0
201280,note_on,0,0,0,,,,,,,,,0,,,72,112
201280,note_on,0,0,1,,,,,,,,,0,,,65,104
201280,note_on,0,0,0,,,,,,,,,0,,,80,112
201280,note_on,0,0,1,,,,,,,,,0,,,60,104
201280,note_on,9,0,0,,,,,,,,,0,,,68,112
201280,note_on,9,0,1,,,,,,,,,0,,,56,104
201431,note_on,151,0,1,,,,,,,,,0,,,56,0
201431,note_on,151,0,0,,,,,,,,,0,,,68,0
201431,note_on,0,0,0,,,,,,,,,0,,,72,0
201431,note_on,0,0,1,,,,,,,,,0,,,65,0
201431,note_on,0,0,1,,,,,,,,,0,,,60,0
201431,note_on,0,0,0,,,,,,,,,0,,,80,0
201440,note_on,0,0,0,,,,,,,,,0,,,72,112
201440,note_on,0,0,1,,,,,,,,,0,,,65,104
201440,note_on,0,0,1,,,,,,,,,0,,,60,104
201440,note_on,9,0,1,,,,,,,,,0,,,56,104
201440,note_on,9,0,0,,,,,,,,,0,,,68,112
201440,note_on,0,0,0,,,,,,,,,0,,,80,112
201591,note_on,151,0,0,,,,,,,,,0,,,68,0
201591,note_on,0,0,1,,,,,,,,,0,,,65,0
201591,note_on,0,0,1,,,,,,,,,0,,,60,0
201591,note_on,151,0,1,,,,,,,,,0,,,56,0
201591,note_on,0,0,0,,,,,,,,,0,,,80,0
201591,note_on,0,0,0,,,,,,,,,0,,,72,0
201600,note_on,0,0,1,,,,,,,,,0,,,49,104
201600,note_on,0,0,0,,,,,,,,,0,,,88,112
201600,note_on,0,0,0,,,,,,,,,0,,,96,112
201600,note_on,9,0,1,,,,,,,,,0,,,37,104
201600,note_on,9,0,0,,,,,,,,,0,,,80,112
201600,note_on,0,0,1,,,,,,,,,0,,,46,104
201751,note_on,151,0,1,,,,,,,,,0,,,37,0
201751,note_on,0,0,1,,,,,,,,,0,,,46,0
201751,note_on,0,0,1,,,,,,,,,0,,,49,0
201751,note_on,0,0,0,,,,,,,,,0,,,88,0
201751,note_on,0,0,0,,,,,,,,,0,,,96,0
201751,note_on,151,0,0,,,,,,,,,0,,,80,0
201760,note_on,0,0,1,,,,,,,,,0,,,64,104
201760,note_on,0,0,1,,,,,,,,,0,,,58,104
201760,note_on,0,0,0,,,,,,,,,0,,,76,112
201760,note_on,9,0,1,,,,,,,,,0,,,56,104
201760,note_on,0,0,0,,,,,,,,,0,,,84,112
201760,note_on,9,0,0,,,,,,,,,0,,,72,112
201911,note_on,0,0,1,,,,,,,,,0,,,58,0
201911,note_on,151,0,0,,,,,,,,,0,,,72,0
201911,note_on,151,0,1,,,,,,,,,0,,,56,0
201911,note_on,0,0,0,,,,,,,,,0,,,76,0
201911,note_on,0,0,0,,,,,,,,,0,,,84,0
201911,note_on,0,0,1,,,,,,,,,0,,,64,0
201920,note_on,9,0,1,,,,,,,,,0,,,56,104
201920,note_on,0,0,1,,,,,,,,,0,,,58,104
201920,note_on,9,0,0,,,,,,,,,0,,,72,112
201920,note_on,0,0,0,,,,,,,,,0,,,76,112
201920,note_on,0,0,1,,,,,,,,,0,,,64,104
201920,note_on,0,0,0,,,,,,,,,0,,,84,112
202071,note_on,0,0,0,,,,,,,,,0,,,76,0
202071,note_on,151,0,0,,,,,,,,,0,,,72,0
202071,note_on,0,0,1,,,,,,,,,0,,,58,0
202071,note_on,151,0,1,,,,,,,,,0,,,56,0
202071,note_on,0,0,1,,,,,,,,,0,,,64,0
202071,note_on,0,0,0,,,,,,,,,0,,,84,0
202080,set_tempo,9,1,0,,,,,,800000,,,,,,,
202080,note_on,9,0,1,,,,,,,,,0,,,37,104
202080,note_on,0,0,1,,,,,,,,,0,,,46,104
202080,note_on,0,0,1,,,,,,,,,0,,,49,104
202080,note_on,0,0,0,,,,,,,,,0,,,88,112
202080,note_on,0,0,0,,,,,,,,,0,,,94,112
202080,note_on,0,0,0,,,,,,,,,0,,,82,112
202231,note_on,0,0,0,,,,,,,,,0,,,88,0
202231,note_on,0,0,1,,,,,,,,,0,,,46,0
202231,note_on,0,0,1,,,,,,,,,0,,,49,0
202231,note_on,151,0,1,,,,,,,,,0,,,37,0
202231,note_on,151,0,0,,,,,,,,,0,,,82,0
202231,note_on,0,0,0,,,,,,,,,0,,,94,0
202240,note_on,0,0,0,,,,,,,,,0,,,82,112
202240,note_on,0,0,1,,,,,,,,,0,,,58,104
202240,note_on,0,0,1,,,,,,,,,0,,,64,104
202240,note_on,9,0,1,,,,,,,,,0,,,56,104
202240,note_on,9,0,0,,,,,,,,,0,,,70,112
202240,note_on,0,0,0,,,,,,,,,0,,,76,112
202391,note_on,0,0,0,,,,,,,,,0,,,82,0
202391,note_on,0,0,0,,,,,,,,,0,,,76,0
202391,note_on,151,0,1,,,,,,,,,0,,,56,0
202391,note_on,151,0,0,,,,,,,,,0,,,70,0
202391,note_on,0,0,1,,,,,,,,,0,,,64,0
202391,note_on,0,0,1,,,,,,,,,0,,,58,0
202400,note_on,0,0,0,,,,,,,,,0,,,82,112
202400,note_on,9,0,1,,,,,,,,,0,,,56,104
202400,note_on,0,0,1,,,,,,,,,0,,,64,104
202400,note_on,0,0,1,,,,,,,,,0,,,58,104
202400,note_on,9,0,0,,,,,,,,,0,,,70,112
202400,note_on,0,0,0,,,,,,,,,0,,,76,112
202551,note_on,151,0,0,,,,,,,,,0,,,70,0
202551,note_on,151,0,1,,,,,,,,,0,,,56,0
202551,note_on,0,0,0,,,,,,,,,0,,,76,0
202551,note_on,0,0,1,,,,,,,,,0,,,64,0
202551,note_on,0,0,1,,,,,,,,,0,,,58,0
202551,note_on,0,0,0,,,,,,,,,0,,,82,0
202560,note_on,0,0,0,,,,,,,,,0,,,87,112
202560,note_on,0,0,0,,,,,,,,,0,,,79,112
202560,note_on,0,0,0,,,,,,,,,0,,,75,112
202560,note_on,0,0,1,,,,,,,,,0,,,51,104
202560,set_tempo,9,1,0,,,,,,800000,,,,,,,
202560,note_on,9,0,1,,,,,,,,,0,,,39,104
202560,note_on,0,0,1,,,,,,,,,0,,,46,104
202561,control_change,1,0,1,,,,,,,64,0,0,,,,
202562,control_change,1,0,1,,,,,,,64,127,0,,,,
202711,note_on,149,0,1,,,,,,,,,0,,,39,0
202711,note_on,0,0,0,,,,,,,,,0,,,87,0
202711,note_on,0,0,0,,,,,,,,,0,,,79,0
202711,note_on,151,0,0,,,,,,,,,0,,,75,0
202711,note_on,0,0,1,,,,,,,,,0,,,46,0
202711,note_on,0,0,1,,,,,,,,,0,,,51,0
202720,note_on,0,0,1,,,,,,,,,0,,,55,104
202720,note_on,9,0,1,,,,,,,,,0,,,51,104
202720,note_on,0,0,1,,,,,,,,,0,,,58,104
202720,note_on,9,0,0,,,,,,,,,0,,,63,112
202720,note_on,0,0,0,,,,,,,,,0,,,67,112
202720,note_on,0,0,0,,,,,,,,,0,,,75,112
202871,note_on,0,0,1,,,,,,,,,0,,,58,0
202871,note_on,151,0,0,,,,,,,,,0,,,63,0
202871,note_on,151,0,1,,,,,,,,,0,,,51,0
202871,note_on,0,0,0,,,,,,,,,0,,,75,0
202871,note_on,0,0,0,,,,,,,,,0,,,67,0
202871,note_on,0,0,1,,,,,,,,,0,,,55,0
202880,note_on,0,0,0,,,,,,,,,0,,,68,113
202880,note_on,9,0,0,,,,,,,,,0,,,64,113
202880,note_on,0,0,1,,,,,,,,,0,,,59,105
202880,note_on,0,0,1,,,,,,,,,0,,,56,105
202880,note_on,9,0,1,,,,,,,,,0,,,51,105
202880,note_on,0,0,0,,,,,,,,,0,,,76,113
203031,note_on,0,0,0,,,,,,,,,0,,,68,0
203031,note_on,0,0,1,,,,,,,,,0,,,59,0
203031,note_on,151,0,0,,,,,,,,,0,,,64,0
203031,note_on,0,0,0,,,,,,,,,0,,,76,0
203031,note_on,151,0,1,,,,,,,,,0,,,51,0
203031,note_on,0,0,1,,,,,,,,,0,,,56,0
203040,note_on,9,0,1,,,,,,,,,0,,,51,107
203040,note_on,0,0,0,,,,,,,,,0,,,77,115
203040,note_on,0,0,1,,,,,,,,,0,,,57,107
203040,set_tempo,9,1,0,,,,,,705882,,,,,,,
203040,note_on,0,0,1,,,,,,,,,0,,,60,107
203040,note_on,0,0,0,,,,,,,,,0,,,65,115
203040,note_on,0,0,0,,,,,,,,,0,,,69,115
203191,note_on,0,0,1,,,,,,,,,0,,,57,0
203191,note_on,0,0,1,,,,,,,,,0,,,60,0
203191,note_on,151,0,1,,,,,,,,,0,,,51,0
203191,note_on,151,0,0,,,,,,,,,0,,,65,0
203191,note_on,0,0,0,,,,,,,,,0,,,77,0
203191,note_on,0,0,0,,,,,,,,,0,,,69,0
203200,note_on,9,0,0,,,,,,,,,0,,,66,117
203200,note_on,0,0,0,,,,,,,,,0,,,70,117
203200,note_on,0,0,0,,,,,,,,,0,,,78,117
203200,note_on,0,0,1,,,,,,,,,0,,,58,109
203200,note_on,9,0,1,,,,,,,,,0,,,51,109
203200,note_on,0,0,1,,,,,,,,,0,,,61,109
203351,note_on,0,0,0,,,,,,,,,0,,,78,0
203351,note_on,0,0,1,,,,,,,,,0,,,61,0
203351,note_on,151,0,1,,,,,,,,,0,,,51,0
203351,note_on,0,0,0,,,,,,,,,0,,,70,0
203351,note_on,151,0,0,,,,,,,,,0,,,66,0
203351,note_on,0,0,1,,,,,,,,,0,,,58,0
203360,note_on,9,0,1,,,,,,,,,0,,,51,110
203360,note_on,0,0,1,,,,,,,,,0,,,62,110
203360,note_on,0,0,0,,,,,,,,,0,,,71,118
203360,note_on,9,0,0,,,,,,,,,0,,,67,118
203360,note_on,0,0,0,,,,,,,,,0,,,79,118
203360,note_on,0,0,1,,,,,,,,,0,,,59,110
203511,note_on,151,0,0,,,,,,,,,0,,,67,0
203511,note_on,0,0,0,,,,,,,,,0,,,71,0
203511,note_on,0,0,0,,,,,,,,,0,,,79,0
203511,note_on,151,0,1,,,,,,,,,0,,,51,0
203511,note_on,0,0,1,,,,,,,,,0,,,62,0
203511,note_on,0,0,1,,,,,,,,,0,,,59,0
203520,note_on,0,0,1,,,,,,,,,0,,,63,112
203520,note_on,0,0,1,,,,,,,,,0,,,60,112
203520,note_on,9,0,1,,,,,,,,,0,,,51,112
203520,note_on,0,0,0,,,,,,,,,0,,,80,120
203520,note_on,0,0,0,,,,,,,,,0,,,72,120
203520,note_on,0,0,0,,,,,,,,,0,,,68,120
203520,set_tempo,9,1,0,,,,,,666667,,,,,,,
203671,note_on,0,0,0,,,,,,,,,0,,,80,0
203671,note_on,0,0,0,,,,,,,,,0,,,72,0
203671,note_on,0,0,1,,,,,,,,,0,,,63,0
203671,note_on,151,0,0,,,,,,,,,0,,,68,0
203671,note_on,151,0,1,,,,,,,,,0,,,51,0
203671,note_on,0,0,1,,,,,,,,,0,,,60,0
203680,note_on,9,0,0,,,,,,,,,0,,,67,122
203680,note_on,0,0,1,,,,,,,,,0,,,59,114
203680,note_on,0,0,1,,,,,,,,,0,,,62,114
203680,note_on,0,0,0,,,,,,,,,0,,,71,122
203680,note_on,0,0,0,,,,,,,,,0,,,79,122
203680,note_on,9,0,1,,,,,,,,,0,,,51,114
203831,note_on,0,0,1,,,,,,,,,0,,,59,0
203831,note_on,151,0,0,,,,,,,,,0,,,67,0
203831,note_on,0,0,0,,,,,,,,,0,,,71,0
203831,note_on,0,0,0,,,,,,,,,0,,,79,0
203831,note_on,0,0,1,,,,,,,,,0,,,62,0
203831,note_on,151,0,1,,,,,,,,,0,,,51,0
203840,note_on,0,0,0,,,,,,,,,0,,,78,122
203840,note_on,9,0,0,,,,,,,,,0,,,66,122
203840,note_on,9,0,1,,,,,,,,,0,,,51,114
203840,note_on,0,0,1,,,,,,,,,0,,,58,114
203840,note_on,0,0,1,,,,,,,,,0,,,61,114
203840,note_on,0,0,0,,,,,,,,,0,,,70,122
203991,note_on,0,0,1,,,,,,,,,0,,,61,0
203991,note_on,151,0,1,,,,,,,,,0,,,51,0
203991,note_on,151,0,0,,,,,,,,,0,,,66,0
203991,note_on,0,0,1,,,,,,,,,0,,,58,0
203991,note_on,0,0,0,,,,,,,,,0,,,70,0
203991,note_on,0,0,0,,,,,,,,,0,,,78,0
204000,note_on,0,0,1,,,,,,,,,0,,,60,114
204000,note_on,0,0,0,,,,,,,,,0,,,69,122
204000,note_on,9,0,1,,,,,,,,,0,,,51,114
204000,note_on,0,0,1,,,,,,,,,0,,,57,114
204000,note_on,0,0,0,,,,,,,,,0,,,77,122
204000,note_on,9,0,0,,,,,,,,,0,,,65,122
204151,note_on,0,0,0,,,,,,,,,0,,,77,0
204151,note_on,0,0,0,,,,,,,,,0,,,69,0
204151,note_on,0,0,1,,,,,,,,,0,,,60,0
204151,note_on,151,0,1,,,,,,,,,0,,,51,0
204151,note_on,151,0,0,,,,,,,,,0,,,65,0
204151,note_on,0,0,1,,,,,,,,,0,,,57,0
204160,note_on,0,0,1,,,,,,,,,0,,,59,114
204160,note_on,9,0,1,,,,,,,,,0,,,51,114
204160,note_on,0,0,0,,,,,,,,,0,,,76,122
204160,note_on,0,0,0,,,,,,,,,0,,,68,122
204160,note_on,0,0,1,,,,,,,,,0,,,56,114
204160,note_on,9,0,0,,,,,,,,,0,,,64,122
204311,note_on,0,0,0,,,,,,,,,0,,,68,0
204311,note_on,0,0,0,,,,,,,,,0,,,76,0
204311,note_on,0,0,1,,,,,,,,,0,,,56,0
204311,note_on,151,0,1,,,,,,,,,0,,,51,0
204311,note_on,0,0,1,,,,,,,,,0,,,59,0
204311,note_on,151,0,0,,,,,,,,,0,,,64,0
204320,note_on,0,0,1,,,,,,,,,0,,,55,114
204320,note_on,9,0,0,,,,,,,,,0,,,63,122
204320,note_on,0,0,0,,,,,,,,,0,,,67,122
204320,note_on,0,0,0,,,,,,,,,0,,,75,122
204320,note_on,9,0,1,,,,,,,,,0,,,51,114
204320,note_on,0,0,1,,,,,,,,,0,,,58,114
204471,note_on,0,0,1,,,,,,,,,0,,,58,0
204471,note_on,0,0,0,,,,,,,,,0,,,67,0
204471,note_on,0,0,0,,,,,,,,,0,,,75,0
204471,note_on,151,0,1,,,,,,,,,0,,,51,0
204471,note_on,151,0,0,,,,,,,,,0,,,63,0
204471,note_on,0,0,1,,,,,,,,,0,,,55,0
204480,note_on,0,0,1,,,,,,,,,0,,,51,127
204480,note_on,0,0,1,,,,,,,,,0,,,54,127
204480,note_on,9,0,1,,,,,,,,,0,,,45,127
204480,note_on,0,0,1,,,,,,,,,0,,,57,127
204480,note_on,0,0,0,,,,,,,,,0,,,99,127
204480,note_on,0,0,0,,,,,,,,,0,,,90,127
204480,note_on,0,0,0,,,,,,,,,0,,,87,127
204480,note_on,0,0,0,,,,,,,,,0,,,85,127
204480,set_tempo,9,1,0,,,,,,800000,,,,,,,
204481,control_change,1,0,1,,,,,,,64,0,0,,,,
204482,control_change,1,0,1,,,,,,,64,127,0,,,,
204586,note_on,0,0,0,,,,,,,,,0,,,90,0
204586,note_on,0,0,0,,,,,,,,,0,,,99,0
204586,note_on,0,0,1,,,,,,,,,0,,,54,0
204586,note_on,0,0,1,,,,,,,,,0,,,51,0
204586,note_on,106,0,0,,,,,,,,,0,,,85,0
204586,note_on,0,0,0,,,,,,,,,0,,,87,0
204586,note_on,104,0,1,,,,,,,,,0,,,45,0
204586,note_on,0,0,1,,,,,,,,,0,,,57,0
204640,note_on,0,0,1,,,,,,,,,0,,,69,112
204640,note_on,0,0,1,,,,,,,,,0,,,63,112
204640,note_on,54,0,1,,,,,,,,,0,,,61,112
204640,set_tempo,54,1,0,,,,,,705882,,,,,,,
204640,note_on,0,0,0,,,,,,,,,0,,,73,112
204640,note_on,0,0,0,,,,,,,,,0,,,75,112
204640,note_on,0,0,0,,,,,,,,,0,,,78,112
204640,note_on,0,0,0,,,,,,,,,0,,,87,112
204640,note_on,0,0,1,,,,,,,,,0,,,66,112
204791,note_on,0,0,0,,,,,,,,,0,,,78,0
204791,note_on,0,0,0,,,,,,,,,0,,,75,0
204791,note_on,0,0,0,,,,,,,,,0,,,87,0
204791,note_on,151,0,1,,,,,,,,,0,,,61,0
204791,note_on,0,0,1,,,,,,,,,0,,,63,0
204791,note_on,151,0,0,,,,,,,,,0,,,73,0
204791,note_on,0,0,1,,,,,,,,,0,,,69,0
204791,note_on,0,0,1,,,,,,,,,0,,,66,0
204800,note_on,9,0,0,,,,,,,,,0,,,73,112
204800,note_on,0,0,1,,,,,,,,,0,,,69,112
204800,note_on,0,0,1,,,,,,,,,0,,,66,112
204800,note_on,0,0,1,,,,,,,,,0,,,63,112
204800,note_on,0,0,0,,,,,,,,,0,,,87,112
204800,note_on,9,0,1,,,,,,,,,0,,,61,112
204800,note_on,0,0,0,,,,,,,,,0,,,78,112
204800,note_on,0,0,0,,,,,,,,,0,,,75,112
204951,note_on,151,0,1,,,,,,,,,0,,,61,0
204951,note_on,0,0,0,,,,,,,,,0,,,87,0
204951,note_on,0,0,0,,,,,,,,,0,,,78,0
204951,note_on,0,0,1,,,,,,,,,0,,,63,0
204951,note_on,0,0,1,,,,,,,,,0,,,66,0
204951,note_on,0,0,1,,,,,,,,,0,,,69,0
204951,note_on,151,0,0,,,,,,,,,0,,,73,0
204951,note_on,0,0,0,,,,,,,,,0,,,75,0
204960,note_on,0,0,0,,,,,,,,,0,,,87,112
204960,note_on,0,0,0,,,,,,,,,0,,,78,112
204960,note_on,0,0,0,,,,,,,,,0,,,75,112
204960,note_on,0,0,0,,,,,,,,,0,,,73,112
204960,note_on,9,0,1,,,,,,,,,0,,,61,112
204960,note_on,0,0,1,,,,,,,,,0,,,63,112
204960,note_on,0,0,1,,,,,,,,,0,,,66,112
204960,set_tempo,9,1,0,,,,,,631579,,,,,,,
204960,note_on,0,0,1,,,,,,,,,0,,,69,112
205111,note_on,0,0,0,,,,,,,,,0,,,87,0
205111,note_on,0,0,0,,,,,,,,,0,,,78,0
205111,note_on,0,0,1,,,,,,,,,0,,,69,0
205111,note_on,0,0,1,,,,,,,,,0,,,66,0
205111,note_on,0,0,1,,,,,,,,,0,,,63,0
205111,note_on,151,0,1,,,,,,,,,0,,,61,0
205111,note_on,0,0,0,,,,,,,,,0,,,75,0
205111,note_on,151,0,0,,,,,,,,,0,,,73,0
205120,note_on,9,0,0,,,,,,,,,0,,,73,112
205120,note_on,9,0,1,,,,,,,,,0,,,61,112
205120,note_on,0,0,0,,,,,,,,,0,,,87,112
205120,note_on,0,0,0,,,,,,,,,0,,,78,112
205120,note_on,0,0,0,,,,,,,,,0,,,75,112
205120,note_on,0,0,1,,,,,,,,,0,,,66,112
205120,note_on,0,0,1,,,,,,,,,0,,,69,112
205120,note_on,0,0,1,,,,,,,,,0,,,63,112
205271,note_on,0,0,1,,,,,,,,,0,,,63,0
205271,note_on,151,0,1,,,,,,,,,0,,,61,0
205271,note_on,0,0,0,,,,,,,,,0,,,87,0
205271,note_on,0,0,0,,,,,,,,,0,,,75,0
205271,note_on,0,0,0,,,,,,,,,0,,,78,0
205271,note_on,151,0,0,,,,,,,,,0,,,73,0
205271,note_on,0,0,1,,,,,,,,,0,,,66,0
205271,note_on,0,0,1,,,,,,,,,0,,,69,0
205280,note_on,0,0,1,,,,,,,,,0,,,66,112
205280,note_on,0,0,0,,,,,,,,,0,,,78,112
205280,note_on,0,0,0,,,,,,,,,0,,,75,112
205280,note_on,9,0,0,,,,,,,,,0,,,73,112
205280,note_on,0,0,1,,,,,,,,,0,,,69,112
205280,note_on,0,0,0,,,,,,,,,0,,,87,112
205280,note_on,9,0,1,,,,,,,,,0,,,61,112
205280,note_on,0,0,1,,,,,,,,,0,,,63,112
205431,note_on,151,0,0,,,,,,,,,0,,,73,0
205431,note_on,151,0,1,,,,,,,,,0,,,61,0
205431,note_on,0,0,1,,,,,,,,,0,,,66,0
205431,note_on,0,0,0,,,,,,,,,0,,,75,0
205431,note_on,0,0,0,,,,,,,,,0,,,78,0
205431,note_on,0,0,1,,,,,,,,,0,,,69,0
205431,note_on,0,0,1,,,,,,,,,0,,,63,0
205431,note_on,0,0,0,,,,,,,,,0,,,87,0
205440,set_tempo,9,1,0,,,,,,800000,,,,,,,
205440,note_on,0,0,0,,,,,,,,,0,,,99,127
205440,note_on,0,0,0,,,,,,,,,0,,,85,127
205440,note_on,0,0,1,,,,,,,,,0,,,57,127
205440,note_on,0,0,1,,,,,,,,,0,,,54,127
205440,note_on,0,0,1,,,,,,,,,0,,,51,127
205440,note_on,9,0,1,,,,,,,,,0,,,45,127
205440,note_on,0,0,0,,,,,,,,,0,,,90,127
205440,note_on,0,0,0,,,,,,,,,0,,,87,127
205546,note_on,0,0,0,,,,,,,,,0,,,87,0
205546,note_on,106,0,1,,,,,,,,,0,,,45,0
205546,note_on,0,0,0,,,,,,,,,0,,,99,0
205546,note_on,106,0,0,,,,,,,,,0,,,85,0
205546,note_on,0,0,0,,,,,,,,,0,,,90,0
205546,note_on,0,0,1,,,,,,,,,0,,,57,0
205546,note_on,0,0,1,,,,,,,,,0,,,51,0
205546,note_on,0,0,1,,,,,,,,,0,,,54,0
205600,note_on,0,0,0,,,,,,,,,0,,,87,112
205600,note_on,0,0,0,,,,,,,,,0,,,73,112
205600,set_tempo,54,1,0,,,,,,631579,,,,,,,
205600,note_on,54,0,1,,,,,,,,,0,,,61,112
205600,note_on,0,0,0,,,,,,,,,0,,,75,112
205600,note_on,0,0,1,,,,,,,,,0,,,69,112
205600,note_on,0,0,0,,,,,,,,,0,,,78,112
205600,note_on,0,0,1,,,,,,,,,0,,,63,112
205600,note_on,0,0,1,,,,,,,,,0,,,66,112
205751,note_on,0,0,1,,,,,,,,,0,,,63,0
205751,note_on,0,0,0,,,,,,,,,0,,,87,0
205751,note_on,0,0,1,,,,,,,,,0,,,69,0
205751,note_on,151,0,1,,,,,,,,,0,,,61,0
205751,note_on,0,0,0,,,,,,,,,0,,,75,0
205751,note_on,151,0,0,,,,,,,,,0,,,73,0
205751,note_on,0,0,0,,,,,,,,,0,,,78,0
205751,note_on,0,0,1,,,,,,,,,0,,,66,0
205760,note_on,0,0,0,,,,,,,,,0,,,75,112
205760,note_on,0,0,0,,,,,,,,,0,,,78,112
205760,note_on,0,0,1,,,,,,,,,0,,,66,112
205760,note_on,0,0,1,,,,,,,,,0,,,69,112
205760,note_on,0,0,1,,,,,,,,,0,,,63,112
205760,note_on,9,0,0,,,,,,,,,0,,,73,112
205760,note_on,9,0,1,,,,,,,,,0,,,61,112
205760,note_on,0,0,0,,,,,,,,,0,,,87,112
205911,note_on,0,0,1,,,,,,,,,0,,,66,0
205911,note_on,0,0,1,,,,,,,,,0,,,63,0
205911,note_on,0,0,0,,,,,,,,,0,,,78,0
205911,note_on,0,0,0,,,,,,,,,0,,,87,0
205911,note_on,151,0,0,,,,,,,,,0,,,73,0
205911,note_on,0,0,1,,,,,,,,,0,,,69,0
205911,note_on,0,0,0,,,,,,,,,0,,,75,0
205911,note_on,151,0,1,,,,,,,,,0,,,61,0
205920,note_on,0,0,1,,,,,,,,,0,,,63,112
205920,note_on,0,0,1,,,,,,,,,0,,,66,112
205920,note_on,0,0,1,,,,,,,,,0,,,69,112
205920,note_on,9,0,1,,,,,,,,,0,,,61,112
205920,note_on,9,0,0,,,,,,,,,0,,,73,112
205920,note_on,0,0,0,,,,,,,,,0,,,75,112
205920,note_on,0,0,0,,,,,,,,,0,,,78,112
205920,note_on,0,0,0,,,,,,,,,0,,,87,112
206071,note_on,151,0,1,,,,,,,,,0,,,61,0
206071,note_on,151,0,0,,,,,,,,,0,,,73,0
206071,note_on,0,0,0,,,,,,,,,0,,,75,0
206071,note_on,0,0,0,,,,,,,,,0,,,78,0
206071,note_on,0,0,1,,,,,,,,,0,,,63,0
206071,note_on,0,0,1,,,,,,,,,0,,,66,0
206071,note_on,0,0,1,,,,,,,,,0,,,69,0
206071,note_on,0,0,0,,,,,,,,,0,,,87,0
206080,note_on,0,0,0,,,,,,,,,0,,,87,112
206080,note_on,0,0,1,,,,,,,,,0,,,66,112
206080,note_on,9,0,0,,,,,,,,,0,,,73,112
206080,note_on,0,0,1,,,,,,,,,0,,,63,112
206080,note_on,0,0,0,,,,,,,,,0,,,75,112
206080,note_on,9,0,1,,,,,,,,,0,,,61,112
206080,note_on,0,0,0,,,,,,,,,0,,,78,112
206080,note_on,0,0,1,,,,,,,,,0,,,69,112
206231,note_on,0,0,0,,,,,,,,,0,,,75,0
206231,note_on,0,0,0,,,,,,,,,0,,,78,0
206231,note_on,0,0,1,,,,,,,,,0,,,69,0
206231,note_on,0,0,1,,,,,,,,,0,,,66,0
206231,note_on,0,0,1,,,,,,,,,0,,,63,0
206231,note_on,151,0,1,,,,,,,,,0,,,61,0
206231,note_on,151,0,0,,,,,,,,,0,,,73,0
206231,note_on,0,0,0,,,,,,,,,0,,,87,0
206240,note_on,0,0,0,,,,,,,,,0,,,90,127
206240,note_on,0,0,0,,,,,,,,,0,,,97,127
206240,note_on,0,0,1,,,,,,,,,0,,,51,127
206240,note_on,0,0,1,,,,,,,,,0,,,57,127
206240,note_on,9,0,1,,,,,,,,,0,,,45,127
206240,note_on,9,0,0,,,,,,,,,0,,,85,127
206346,note_on,0,0,1,,,,,,,,,0,,,57,0
206346,note_on,0,0,0,,,,,,,,,0,,,97,0
206346,note_on,0,0,0,,,,,,,,,0,,,90,0
206346,note_on,106,0,1,,,,,,,,,0,,,45,0
206346,note_on,106,0,0,,,,,,,,,0,,,85,0
206346,note_on,0,0,1,,,,,,,,,0,,,51,0
206400,note_on,0,0,0,,,,,,,,,0,,,84,112
206400,note_on,54,0,1,,,,,,,,,0,,,44,112
206400,note_on,0,0,0,,,,,,,,,0,,,90,112
206400,note_on,0,0,1,,,,,,,,,0,,,51,112
206400,set_tempo,54,1,0,,,,,,800000,,,,,,,
206400,note_on,0,0,1,,,,,,,,,0,,,56,112
206400,note_on,0,0,0,,,,,,,,,0,,,96,112
206401,control_change,1,0,1,,,,,,,64,0,0,,,,
206402,control_change,1,0,1,,,,,,,64,127,0,,,,
206551,note_on,0,0,1,,,,,,,,,0,,,51,0
206551,note_on,0,0,0,,,,,,,,,0,,,96,0
206551,note_on,0,0,1,,,,,,,,,0,,,56,0
206551,note_on,0,0,0,,,,,,,,,0,,,90,0
206551,note_on,149,0,1,,,,,,,,,0,,,44,0
206551,note_on,151,0,0,,,,,,,,,0,,,84,0
206560,note_on,9,0,1,,,,,,,,,0,,,48,112
206560,note_on,0,0,1,,,,,,,,,0,,,60,112
206560,note_on,0,0,0,,,,,,,,,0,,,84,112
206560,note_on,9,0,0,,,,,,,,,0,,,72,112
206711,note_on,151,0,0,,,,,,,,,0,,,72,0
206711,note_on,0,0,0,,,,,,,,,0,,,84,0
206711,note_on,0,0,1,,,,,,,,,0,,,60,0
206711,note_on,151,0,1,,,,,,,,,0,,,48,0
206720,note_on,0,0,0,,,,,,,,,0,,,85,113
206720,note_on,0,0,1,,,,,,,,,0,,,61,113
206720,note_on,9,0,1,,,,,,,,,0,,,49,113
206720,set_tempo,9,1,0,,,,,,705882,,,,,,,
206720,note_on,0,0,0,,,,,,,,,0,,,73,113
206871,note_on,151,0,1,,,,,,,,,0,,,49,0
206871,note_on,151,0,0,,,,,,,,,0,,,73,0
206871,note_on,0,0,1,,,,,,,,,0,,,61,0
206871,note_on,0,0,0,,,,,,,,,0,,,85,0
206880,note_on,9,0,0,,,,,,,,,0,,,74,115
206880,note_on,9,0,1,,,,,,,,,0,,,50,115
206880,note_on,0,0,1,,,,,,,,,0,,,62,115
206880,note_on,0,0,0,,,,,,,,,0,,,86,115
207031,note_on,151,0,1,,,,,,,,,0,,,50,0
207031,note_on,0,0,1,,,,,,,,,0,,,62,0
207031,note_on,151,0,0,,,,,,,,,0,,,74,0
207031,note_on,0,0,0,,,,,,,,,0,,,86,0
207040,note_on,9,0,1,,,,,,,,,0,,,51,117
207040,note_on,0,0,0,,,,,,,,,0,,,87,117
207040,note_on,9,0,0,,,,,,,,,0,,,75,117
207040,note_on,0,0,1,,,,,,,,,0,,,63,117
207191,note_on,151,0,0,,,,,,,,,0,,,75,0
207191,note_on,0,0,0,,,,,,,,,0,,,87,0
207191,note_on,0,0,1,,,,,,,,,0,,,63,0
207191,note_on,151,0,1,,,,,,,,,0,,,51,0
207200,note_on,0,0,1,,,,,,,,,0,,,64,118
207200,note_on,0,0,0,,,,,,,,,0,,,88,118
207200,note_on,0,0,0,,,,,,,,,0,,,76,118
207200,note_on,9,0,1,,,,,,,,,0,,,52,118
207200,set_tempo,9,1,0,,,,,,631579,,,,,,,
207351,note_on,151,0,1,,,,,,,,,0,,,52,0
207351,note_on,0,0,0,,,,,,,,,0,,,88,0
207351,note_on,151,0,0,,,,,,,,,0,,,76,0
207351,note_on,0,0,1,,,,,,,,,0,,,64,0
207360,note_on,9,0,0,,,,,,,,,0,,,75,120
207360,note_on,9,0,1,,,,,,,,,0,,,51,120
207360,note_on,0,0,0,,,,,,,,,0,,,87,120
207360,note_on,0,0,1,,,,,,,,,0,,,63,120
207511,note_on,0,0,1,,,,,,,,,0,,,63,0
207511,note_on,151,0,0,,,,,,,,,0,,,75,0
207511,note_on,0,0,0,,,,,,,,,0,,,87,0
207511,note_on,151,0,1,,,,,,,,,0,,,51,0
207520,note_on,0,0,1,,,,,,,,,0,,,62,122
207520,note_on,0,0,0,,,,,,,,,0,,,86,122
207520,note_on,9,0,1,,,,,,,,,0,,,50,122
207520,note_on,9,0,0,,,,,,,,,0,,,74,122
207671,note_on,151,0,0,,,,,,,,,0,,,74,0
207671,note_on,0,0,1,,,,,,,,,0,,,62,0
207671,note_on,151,0,1,,,,,,,,,0,,,50,0
207671,note_on,0,0,0,,,,,,,,,0,,,86,0
207680,note_on,0,0,0,,,,,,,,,0,,,85,122
207680,note_on,0,0,1,,,,,,,,,0,,,61,122
207680,note_on,9,0,1,,,,,,,,,0,,,49,122
207680,note_on,9,0,0,,,,,,,,,0,,,73,122
207831,note_on,151,0,1,,,,,,,,,0,,,49,0
207831,note_on,0,0,0,,,,,,,,,0,,,85,0
207831,note_on,0,0,1,,,,,,,,,0,,,61,0
207831,note_on,151,0,0,,,,,,,,,0,,,73,0
207840,note_on,0,0,0,,,,,,,,,0,,,84,122
207840,note_on,9,0,1,,,,,,,,,0,,,48,122
207840,note_on,0,0,1,,,,,,,,,0,,,60,122
207840,note_on,9,0,0,,,,,,,,,0,,,72,122
207991,note_on,0,0,1,,,,,,,,,0,,,60,0
207991,note_on,0,0,0,,,,,,,,,0,,,84,0
207991,note_on,151,0,1,,,,,,,,,0,,,48,0
207991,note_on,151,0,0,,,,,,,,,0,,,72,0
208000,note_on,9,0,0,,,,,,,,,0,,,71,122
208000,note_on,9,0,1,,,,,,,,,0,,,47,122
208000,note_on,0,0,1,,,,,,,,,0,,,59,122
208000,note_on,0,0,0,,,,,,,,,0,,,83,122
208151,note_on,151,0,0,,,,,,,,,0,,,71,0
208151,note_on,151,0,1,,,,,,,,,0,,,47,0
208151,note_on,0,0,0,,,,,,,,,0,,,83,0
208151,note_on,0,0,1,,,,,,,,,0,,,59,0
208160,note_on,0,0,0,,,,,,,,,0,,,82,122
208160,note_on,9,0,1,,,,,,,,,0,,,46,122
208160,note_on,9,0,0,,,,,,,,,0,,,70,122
208160,note_on,0,0,1,,,,,,,,,0,,,58,122
208311,note_on,0,0,0,,,,,,,,,0,,,82,0
208311,note_on,151,0,0,,,,,,,,,0,,,70,0
208311,note_on,151,0,1,,,,,,,,,0,,,46,0
208311,note_on,0,0,1,,,,,,,,,0,,,58,0
208320,note_on,0,0,1,,,,,,,,,0,,,57,127
208320,note_on,0,0,0,,,,,,,,,0,,,87,127
208320,note_on,9,0,1,,,,,,,,,0,,,45,127
208320,note_on,9,0,0,,,,,,,,,0,,,85,127
208320,note_on,0,0,0,,,,,,,,,0,,,90,127
208320,note_on,0,0,0,,,,,,,,,0,,,99,127
208320,note_on,0,0,1,,,,,,,,,0,,,51,127
208320,note_on,0,0,1,,,,,,,,,0,,,54,127
208321,control_change,1,0,1,,,,,,,64,0,0,,,,
208322,control_change,1,0,1,,,,,,,64,127,0,,,,
208426,note_on,0,0,1,,,,,,,,,0,,,57,0
208426,note_on,0,0,1,,,,,,,,,0,,,51,0
208426,note_on,106,0,0,,,,,,,,,0,,,85,0
208426,note_on,0,0,0,,,,,,,,,0,,,99,0
208426,note_on,0,0,0,,,,,,,,,0,,,90,0
208426,note_on,0,0,0,,,,,,,,,0,,,87,0
208426,note_on,0,0,1,,,,,,,,,0,,,54,0
208426,note_on,104,0,1,,,,,,,,,0,,,45,0
208480,set_tempo,54,1,0,,,,,,705882,,,,,,,
208480,note_on,54,0,1,,,,,,,,,0,,,61,112
208480,note_on,0,0,0,,,,,,,,,0,,,75,112
208480,note_on,0,0,1,,,,,,,,,0,,,69,112
208480,note_on,0,0,1,,,,,,,,,0,,,63,112
208480,note_on,0,0,0,,,,,,,,,0,,,73,112
208480,note_on,0,0,1,,,,,,,,,0,,,66,112
208480,note_on,0,0,0,,,,,,,,,0,,,87,112
208480,note_on,0,0,0,,,,,,,,,0,,,78,112
208631,note_on,151,0,0,,,,,,,,,0,,,73,0
208631,note_on,0,0,1,,,,,,,,,0,,,69,0
208631,note_on,151,0,1,,,,,,,,,0,,,61,0
208631,note_on,0,0,1,,,,,,,,,0,,,66,0
208631,note_on,0,0,0,,,,,,,,,0,,,78,0
208631,note_on,0,0,0,,,,,,,,,0,,,87,0
208631,note_on,0,0,0,,,,,,,,,0,,,75,0
208631,note_on,0,0,1,,,,,,,,,0,,,63,0
208640,note_on,0,0,1,,,,,,,,,0,,,63,112
208640,note_on,9,0,0,,,,,,,,,0,,,73,112
208640,note_on,0,0,1,,,,,,,,,0,,,66,112
208640,note_on,9,0,1,,,,,,,,,0,,,61,112
208640,note_on,0,0,1,,,,,,,,,0,,,69,112
208640,note_on,0,0,0,,,,,,,,,0,,,87,112
208640,note_on,0,0,0,,,,,,,,,0,,,78,112
208640,note_on,0,0,0,,,,,,,,,0,,,75,112
208791,note_on,0,0,0,,,,,,,,,0,,,78,0
208791,note_on,0,0,1,,,,,,,,,0,,,66,0
208791,note_on,0,0,1,,,,,,,,,0,,,69,0
208791,note_on,151,0,1,,,,,,,,,0,,,61,0
208791,note_on,151,0,0,,,,,,,,,0,,,73,0
208791,note_on,0,0,1,,,,,,,,,0,,,63,0
208791,note_on,0,0,0,,,,,,,,,0,,,87,0
208791,note_on,0,0,0,,,,,,,,,0,,,75,0
208800,note_on,0,0,0,,,,,,,,,0,,,73,112
208800,note_on,0,0,0,,,,,,,,,0,,,75,112
208800,note_on,9,0,1,,,,,,,,,0,,,61,112
208800,note_on,0,0,0,,,,,,,,,0,,,78,112
208800,note_on,0,0,0,,,,,,,,,0,,,87,112
208800,set_tempo,9,1,0,,,,,,631579,,,,,,,
208800,note_on,0,0,1,,,,,,,,,0,,,63,112
208800,note_on,0,0,1,,,,,,,,,0,,,66,112
208800,note_on,0,0,1,,,,,,,,,0,,,69,112
208951,note_on,151,0,1,,,,,,,,,0,,,61,0
208951,note_on,0,0,1,,,,,,,,,0,,,69,0
208951,note_on,0,0,1,,,,,,,,,0,,,66,0
208951,note_on,151,0,0,,,,,,,,,0,,,73,0
208951,note_on,0,0,0,,,,,,,,,0,,,75,0
208951,note_on,0,0,0,,,,,,,,,0,,,78,0
208951,note_on,0,0,0,,,,,,,,,0,,,87,0
208951,note_on,0,0,1,,,,,,,,,0,,,63,0
208960,note_on,9,0,1,,,,,,,,,0,,,61,112
208960,note_on,0,0,0,,,,,,,,,0,,,78,112
208960,note_on,0,0,0,,,,,,,,,0,,,87,112
208960,note_on,0,0,0,,,,,,,,,0,,,75,112
208960,note_on,0,0,1,,,,,,,,,0,,,66,112
208960,note_on,0,0,1,,,,,,,,,0,,,63,112
208960,note_on,9,0,0,,,,,,,,,0,,,73,112
208960,note_on,0,0,1,,,,,,,,,0,,,69,112
209111,note_on,0,0,1,,,,,,,,,0,,,69,0
209111,note_on,151,0,1,,,,,,,,,0,,,61,0
209111,note_on,0,0,1,,,,,,,,,0,,,66,0
209111,note_on,0,0,1,,,,,,,,,0,,,63,0
209111,note_on,0,0,0,,,,,,,,,0,,,87,0
209111,note_on,0,0,0,,,,,,,,,0,,,78,0
209111,note_on,0,0,0,,,,,,,,,0,,,75,0
209111,note_on,151,0,0,,,,,,,,,0,,,73,0
209120,note_on,0,0,1,,,,,,,,,0,,,66,112
209120,note_on,9,0,1,,,,,,,,,0,,,61,112
209120,note_on,0,0,0,,,,,,,,,0,,,75,112
209120,note_on,0,0,1,,,,,,,,,0,,,63,112
209120,note_on,0,0,0,,,,,,,,,0,,,87,112
209120,note_on,9,0,0,,,,,,,,,0,,,73,112
209120,note_on,0,0,1,,,,,,,,,0,,,69,112
209120,note_on,0,0,0,,,,,,,,,0,,,78,112
209271,note_on,0,0,1,,,,,,,,,0,,,63,0
209271,note_on,0,0,0,,,,,,,,,0,,,78,0
209271,note_on,0,0,1,,,,,,,,,0,,,69,0
209271,note_on,0,0,1,,,,,,,,,0,,,66,0
209271,note_on,0,0,0,,,,,,,,,0,,,87,0
209271,note_on,151,0,0,,,,,,,,,0,,,73,0
209271,note_on,0,0,0,,,,,,,,,0,,,75,0
209271,note_on,151,0,1,,,,,,,,,0,,,61,0
209280,note_on,0,0,0,,,,,,,,,0,,,85,127
209280,note_on,0,0,0,,,,,,,,,0,,,87,127
209280,note_on,0,0,0,,,,,,,,,0,,,90,127
209280,set_tempo,9,1,0,,,,,,800000,,,,,,,
209280,note_on,0,0,0,,,,,,,,,0,,,99,127
209280,note_on,9,0,1,,,,,,,,,0,,,45,127
209280,note_on,0,0,1,,,,,,,,,0,,,57,127
209280,note_on,0,0,1,,,,,,,,,0,,,54,127
209280,note_on,0,0,1,,,,,,,,,0,,,51,127
209386,note_on,0,0,1,,,,,,,,,0,,,57,0
209386,note_on,0,0,0,,,,,,,,,0,,,87,0
209386,note_on,0,0,0,,,,,,,,,0,,,90,0
209386,note_on,0,0,1,,,,,,,,,0,,,54,0
209386,note_on,106,0,0,,,,,,,,,0,,,85,0
209386,note_on,0,0,1,,,,,,,,,0,,,51,0
209386,note_on,106,0,1,,,,,,,,,0,,,45,0
209386,note_on,0,0,0,,,,,,,,,0,,,99,0
209440,note_on,0,0,1,,,,,,,,,0,,,63,112
209440,note_on,0,0,1,,,,,,,,,0,,,69,112
209440,set_tempo,54,1,0,,,,,,705882,,,,,,,
209440,note_on,0,0,1,,,,,,,,,0,,,66,112
209440,note_on,0,0,0,,,,,,,,,0,,,87,112
209440,note_on,0,0,0,,,,,,,,,0,,,73,112
209440,note_on,0,0,0,,,,,,,,,0,,,75,112
209440,note_on,0,0,0,,,,,,,,,0,,,78,112
209440,note_on,54,0,1,,,,,,,,,0,,,61,112
209591,note_on,0,0,1,,,,,,,,,0,,,69,0
209591,note_on,151,0,0,,,,,,,,,0,,,73,0
209591,note_on,151,0,1,,,,,,,,,0,,,61,0
209591,note_on,0,0,1,,,,,,,,,0,,,63,0
209591,note_on,0,0,1,,,,,,,,,0,,,66,0
209591,note_on,0,0,0,,,,,,,,,0,,,75,0
209591,note_on,0,0,0,,,,,,,,,0,,,87,0
209591,note_on,0,0,0,,,,,,,,,0,,,78,0
209600,note_on,0,0,0,,,,,,,,,0,,,75,112
209600,note_on,0,0,1,,,,,,,,,0,,,63,112
209600,note_on,0,0,1,,,,,,,,,0,,,66,112
209600,note_on,0,0,1,,,,,,,,,0,,,69,112
209600,note_on,9,0,0,,,,,,,,,0,,,73,112
209600,note_on,9,0,1,,,,,,,,,0,,,61,112
209600,note_on,0,0,0,,,,,,,,,0,,,78,112
209600,note_on,0,0,0,,,,,,,,,0,,,87,112
209751,note_on,151,0,0,,,,,,,,,0,,,73,0
209751,note_on,0,0,0,,,,,,,,,0,,,87,0
209751,note_on,0,0,0,,,,,,,,,0,,,78,0
209751,note_on,151,0,1,,,,,,,,,0,,,61,0
209751,note_on,0,0,0,,,,,,,,,0,,,75,0
209751,note_on,0,0,1,,,,,,,,,0,,,63,0
209751,note_on,0,0,1,,,,,,,,,0,,,69,0
209751,note_on,0,0,1,,,,,,,,,0,,,66,0
209760,set_tempo,9,1,0,,,,,,631579,,,,,,,
209760,note_on,0,0,1,,,,,,,,,0,,,66,112
209760,note_on,0,0,0,,,,,,,,,0,,,73,112
209760,note_on,0,0,1,,,,,,,,,0,,,69,112
209760,note_on,0,0,1,,,,,,,,,0,,,63,112
209760,note_on,9,0,1,,,,,,,,,0,,,61,112
209760,note_on,0,0,0,,,,,,,,,0,,,87,112
209760,note_on,0,0,0,,,,,,,,,0,,,75,112
209760,note_on,0,0,0,,,,,,,,,0,,,78,112
209911,note_on,151,0,1,,,,,,,,,0,,,61,0
209911,note_on,0,0,1,,,,,,,,,0,,,63,0
209911,note_on,0,0,0,,,,,,,,,0,,,87,0
209911,note_on,0,0,0,,,,,,,,,0,,,75,0
209911,note_on,151,0,0,,,,,,,,,0,,,73,0
209911,note_on,0,0,1,,,,,,,,,0,,,66,0
209911,note_on,0,0,1,,,,,,,,,0,,,69,0
209911,note_on,0,0,0,,,,,,,,,0,,,78,0
209920,note_on,0,0,0,,,,,,,,,0,,,78,112
209920,note_on,9,0,0,,,,,,,,,0,,,73,112
209920,note_on,0,0,0,,,,,,,,,0,,,87,112
209920,note_on,0,0,0,,,,,,,,,0,,,75,112
209920,note_on,0,0,1,,,,,,,,,0,,,69,112
209920,note_on,9,0,1,,,,,,,,,0,,,61,112
209920,note_on,0,0,1,,,,,,,,,0,,,66,112
209920,note_on,0,0,1,,,,,,,,,0,,,63,112
210071,note_on,0,0,0,,,,,,,,,0,,,75,0
210071,note_on,0,0,0,,,,,,,,,0,,,78,0
210071,note_on,0,0,0,,,,,,,,,0,,,87,0
210071,note_on,151,0,1,,,,,,,,,0,,,61,0
210071,note_on,151,0,0,,,,,,,,,0,,,73,0
210071,note_on,0,0,1,,,,,,,,,0,,,63,0
210071,note_on,0,0,1,,,,,,,,,0,,,66,0
210071,note_on,0,0,1,,,,,,,,,0,,,69,0
210080,note_on,0,0,0,,,,,,,,,0,,,90,127
210080,set_tempo,9,1,0,,,,,,571429,,,,,,,
210080,note_on,0,0,0,,,,,,,,,0,,,85,127
210080,note_on,9,0,1,,,,,,,,,0,,,45,127
210080,note_on,0,0,1,,,,,,,,,0,,,51,127
210080,note_on,0,0,0,,,,,,,,,0,,,97,127
210080,note_on,0,0,1,,,,,,,,,0,,,57,127
210186,note_on,0,0,0,,,,,,,,,0,,,97,0
210186,note_on,106,0,0,,,,,,,,,0,,,85,0
210186,note_on,0,0,1,,,,,,,,,0,,,57,0
210186,note_on,106,0,1,,,,,,,,,0,,,45,0
210186,note_on,0,0,0,,,,,,,,,0,,,90,0
210186,note_on,0,0,1,,,,,,,,,0,,,51,0
210240,note_on,0,0,0,,,,,,,,,0,,,90,112
210240,note_on,0,0,0,,,,,,,,,0,,,96,112
210240,note_on,54,0,1,,,,,,,,,0,,,44,112
210240,note_on,54,0,0,,,,,,,,,0,,,84,112
210240,note_on,0,0,1,,,,,,,,,0,,,56,112
210240,note_on,0,0,1,,,,,,,,,0,,,51,112
210241,control_change,1,0,1,,,,,,,64,0,0,,,,
210242,control_change,1,0,1,,,,,,,64,127,0,,,,
210391,note_on,0,0,0,,,,,,,,,0,,,96,0
210391,note_on,149,0,1,,,,,,,,,0,,,44,0
210391,note_on,0,0,1,,,,,,,,,0,,,56,0
210391,note_on,0,0,1,,,,,,,,,0,,,51,0
210391,note_on,0,0,0,,,,,,,,,0,,,90,0
210391,note_on,151,0,0,,,,,,,,,0,,,84,0
210400,set_tempo,9,1,0,,,,,,705882,,,,,,,
210400,note_on,0,0,1,,,,,,,,,0,,,60,112
210400,note_on,9,0,1,,,,,,,,,0,,,48,112
210400,note_on,0,0,0,,,,,,,,,0,,,84,112
210400,note_on,0,0,0,,,,,,,,,0,,,72,112
210551,note_on,151,0,1,,,,,,,,,0,,,48,0
210551,note_on,0,0,0,,,,,,,,,0,,,84,0
210551,note_on,0,0,1,,,,,,,,,0,,,60,0
210551,note_on,151,0,0,,,,,,,,,0,,,72,0
210560,note_on,0,0,0,,,,,,,,,0,,,85,113
210560,note_on,0,0,1,,,,,,,,,0,,,61,113
210560,note_on,9,0,1,,,,,,,,,0,,,49,113
210560,note_on,9,0,0,,,,,,,,,0,,,73,113
210711,note_on,0,0,0,,,,,,,,,0,,,85,0
210711,note_on,151,0,0,,,,,,,,,0,,,73,0
210711,note_on,0,0,1,,,,,,,,,0,,,61,0
210711,note_on,151,0,1,,,,,,,,,0,,,49,0
210720,note_on,9,0,0,,,,,,,,,0,,,74,115
210720,note_on,0,0,0,,,,,,,,,0,,,86,115
210720,note_on,9,0,1,,,,,,,,,0,,,50,115
210720,note_on,0,0,1,,,,,,,,,0,,,62,115
210871,note_on,0,0,0,,,,,,,,,0,,,86,0
210871,note_on,151,0,0,,,,,,,,,0,,,74,0
210871,note_on,151,0,1,,,,,,,,,0,,,50,0
210871,note_on,0,0,1,,,,,,,,,0,,,62,0
210880,note_on,0,0,1,,,,,,,,,0,,,63,117
210880,note_on,9,0,0,,,,,,,,,0,,,75,117
210880,note_on,9,0,1,,,,,,,,,0,,,51,117
210880,note_on,0,0,0,,,,,,,,,0,,,87,117
211031,note_on,151,0,1,,,,,,,,,0,,,51,0
211031,note_on,151,0,0,,,,,,,,,0,,,75,0
211031,note_on,0,0,1,,,,,,,,,0,,,63,0
211031,note_on,0,0,0,,,,,,,,,0,,,87,0
211040,note_on,0,0,0,,,,,,,,,0,,,88,118
211040,note_on,9,0,0,,,,,,,,,0,,,76,118
211040,note_on,0,0,1,,,,,,,,,0,,,64,118
211040,note_on,9,0,1,,,,,,,,,0,,,52,118
211191,note_on,151,0,0,,,,,,,,,0,,,76,0
211191,note_on,0,0,1,,,,,,,,,0,,,64,0
211191,note_on,0,0,0,,,,,,,,,0,,,88,0
211191,note_on,151,0,1,,,,,,,,,0,,,52,0
211200,note_on,9,0,1,,,,,,,,,0,,,53,120
211200,note_on,0,0,0,,,,,,,,,0,,,77,120
211200,note_on,0,0,0,,,,,,,,,0,,,89,120
211200,note_on,0,0,1,,,,,,,,,0,,,65,120
211200,set_tempo,9,1,0,,,,,,631579,,,,,,,
211351,note_on,151,0,1,,,,,,,,,0,,,53,0
211351,note_on,0,0,1,,,,,,,,,0,,,65,0
211351,note_on,151,0,0,,,,,,,,,0,,,77,0
211351,note_on,0,0,0,,,,,,,,,0,,,89,0
211360,note_on,9,0,1,,,,,,,,,0,,,51,122
211360,note_on,9,0,0,,,,,,,,,0,,,75,122
211360,note_on,0,0,0,,,,,,,,,0,,,87,122
211360,note_on,0,0,1,,,,,,,,,0,,,63,122
211511,note_on,0,0,0,,,,,,,,,0,,,87,0
211511,note_on,151,0,0,,,,,,,,,0,,,75,0
211511,note_on,0,0,1,,,,,,,,,0,,,63,0
211511,note_on,151,0,1,,,,,,,,,0,,,51,0
211520,note_on,0,0,1,,,,,,,,,0,,,61,122
211520,note_on,0,0,0,,,,,,,,,0,,,85,122
211520,note_on,9,0,1,,,,,,,,,0,,,49,122
211520,note_on,9,0,0,,,,,,,,,0,,,73,122
211671,note_on,0,0,1,,,,,,,,,0,,,61,0
211671,note_on,151,0,0,,,,,,,,,0,,,73,0
211671,note_on,151,0,1,,,,,,,,,0,,,49,0
211671,note_on,0,0,0,,,,,,,,,0,,,85,0
211680,note_on,9,0,1,,,,,,,,,0,,,48,122
211680,note_on,0,0,0,,,,,,,,,0,,,84,122
211680,note_on,9,0,0,,,,,,,,,0,,,72,122
211680,note_on,0,0,1,,,,,,,,,0,,,60,122
211831,note_on,151,0,0,,,,,,,,,0,,,72,0
211831,note_on,0,0,0,,,,,,,,,0,,,84,0
211831,note_on,151,0,1,,,,,,,,,0,,,48,0
211831,note_on,0,0,1,,,,,,,,,0,,,60,0
211840,note_on,9,0,1,,,,,,,,,0,,,45,122
211840,note_on,9,0,0,,,,,,,,,0,,,69,122
211840,note_on,0,0,1,,,,,,,,,0,,,57,122
211840,note_on,0,0,0,,,,,,,,,0,,,81,122
211991,note_on,151,0,0,,,,,,,,,0,,,69,0
211991,note_on,0,0,0,,,,,,,,,0,,,81,0
211991,note_on,0,0,1,,,,,,,,,0,,,57,0
211991,note_on,151,0,1,,,,,,,,,0,,,45,0
212000,note_on,0,0,0,,,,,,,,,0,,,80,127
212000,note_on,0,0,0,,,,,,,,,0,,,80,122
212000,note_on,0,0,0,,,,,,,,,0,,,80,0
212000,note_on,0,0,1,,,,,,,,,0,,,56,0
212000,note_on,0,0,1,,,,,,,,,0,,,56,122
212000,note_on,0,0,1,,,,,,,,,0,,,56,127
212000,note_on,9,0,0,,,,,,,,,0,,,68,122
212000,note_on,9,0,1,,,,,,,,,0,,,44,122
212151,note_on,0,0,1,,,,,,,,,0,,,56,0
212151,note_on,0,0,0,,,,,,,,,0,,,80,0
212151,note_on,151,0,1,,,,,,,,,0,,,44,0
212151,note_on,151,0,0,,,,,,,,,0,,,68,0
212160,note_on,9,0,1,,,,,,,,,0,,,37,127
212160,set_tempo,9,1,0,,,,,,705882,,,,,,,
212160,note_on,0,0,0,,,,,,,,,0,,,101,127
212160,note_on,0,0,0,,,,,,,,,0,,,92,127
212160,note_on,0,0,0,,,,,,,,,0,,,89,127
212160,note_on,0,0,1,,,,,,,,,0,,,49,127
212161,control_change,1,0,1,,,,,,,64,0,0,,,,
212162,control_change,1,0,1,,,,,,,64,127,0,,,,
212266,note_on,0,0,0,,,,,,,,,0,,,101,0
212266,note_on,0,0,1,,,,,,,,,0,,,49,0
212266,note_on,0,0,0,,,,,,,,,0,,,92,0
212266,note_on,104,0,1,,,,,,,,,0,,,37,0
212266,note_on,106,0,0,,,,,,,,,0,,,89,0
212320,note_on,0,0,1,,,,,,,,,0,,,61,122
212320,note_on,0,0,0,,,,,,,,,0,,,77,122
212320,note_on,0,0,1,,,,,,,,,0,,,65,122
212320,note_on,0,0,0,,,,,,,,,0,,,80,122
212320,note_on,0,0,0,,,,,,,,,0,,,89,122
212320,set_tempo,54,1,0,,,,,,631579,,,,,,,
212320,note_on,54,0,1,,,,,,,,,0,,,56,122
212471,note_on,0,0,0,,,,,,,,,0,,,80,0
212471,note_on,0,0,0,,,,,,,,,0,,,89,0
212471,note_on,0,0,1,,,,,,,,,0,,,65,0
212471,note_on,151,0,0,,,,,,,,,0,,,77,0
212471,note_on,151,0,1,,,,,,,,,0,,,56,0
212471,note_on,0,0,1,,,,,,,,,0,,,61,0
212480,note_on,0,0,0,,,,,,,,,0,,,80,122
212480,note_on,9,0,1,,,,,,,,,0,,,56,122
212480,note_on,0,0,1,,,,,,,,,0,,,65,122
212480,note_on,0,0,0,,,,,,,,,0,,,89,122
212480,note_on,0,0,1,,,,,,,,,0,,,61,122
212480,note_on,9,0,0,,,,,,,,,0,,,77,122
212631,note_on,0,0,1,,,,,,,,,0,,,61,0
212631,note_on,0,0,0,,,,,,,,,0,,,80,0
212631,note_on,0,0,1,,,,,,,,,0,,,65,0
212631,note_on,151,0,0,,,,,,,,,0,,,77,0
212631,note_on,151,0,1,,,,,,,,,0,,,56,0
212631,note_on,0,0,0,,,,,,,,,0,,,89,0
212640,note_on,0,0,0,,,,,,,,,0,,,89,122
212640,note_on,0,0,1,,,,,,,,,0,,,65,122
212640,note_on,9,0,1,,,,,,,,,0,,,56,122
212640,note_on,0,0,1,,,,,,,,,0,,,61,122
212640,note_on,9,0,0,,,,,,,,,0,,,77,122
212640,note_on,0,0,0,,,,,,,,,0,,,80,122
212791,note_on,0,0,1,,,,,,,,,0,,,61,0
212791,note_on,151,0,0,,,,,,,,,0,,,77,0
212791,note_on,151,0,1,,,,,,,,,0,,,56,0
212791,note_on,0,0,1,,,,,,,,,0,,,65,0
212791,note_on,0,0,0,,,,,,,,,0,,,80,0
212791,note_on,0,0,0,,,,,,,,,0,,,89,0
212800,note_on,0,0,1,,,,,,,,,0,,,65,122
212800,note_on,0,0,1,,,,,,,,,0,,,61,122
212800,note_on,9,0,1,,,,,,,,,0,,,56,122
212800,note_on,0,0,0,,,,,,,,,0,,,89,122
212800,note_on,0,0,0,,,,,,,,,0,,,80,122
212800,note_on,9,0,0,,,,,,,,,0,,,77,122
212951,note_on,151,0,1,,,,,,,,,0,,,56,0
212951,note_on,151,0,0,,,,,,,,,0,,,77,0
212951,note_on,0,0,1,,,,,,,,,0,,,61,0
212951,note_on,0,0,1,,,,,,,,,0,,,65,0
212951,note_on,0,0,0,,,,,,,,,0,,,89,0
212951,note_on,0,0,0,,,,,,,,,0,,,80,0
212960,note_on,0,0,0,,,,,,,,,0,,,89,122
212960,note_on,0,0,1,,,,,,,,,0,,,65,122
212960,note_on,9,0,1,,,,,,,,,0,,,56,122
212960,note_on,9,0,0,,,,,,,,,0,,,77,122
212960,note_on,0,0,0,,,,,,,,,0,,,80,122
212960,note_on,0,0,1,,,,,,,,,0,,,61,122
213111,note_on,151,0,1,,,,,,,,,0,,,56,0
213111,note_on,0,0,0,,,,,,,,,0,,,80,0
213111,note_on,0,0,0,,,,,,,,,0,,,89,0
213111,note_on,151,0,0,,,,,,,,,0,,,77,0
213111,note_on,0,0,1,,,,,,,,,0,,,61,0
213111,note_on,0,0,1,,,,,,,,,0,,,65,0
213120,note_on,0,0,1,,,,,,,,,0,,,49,127
213120,note_on,9,0,1,,,,,,,,,0,,,37,127
213120,note_on,0,0,0,,,,,,,,,0,,,85,127
213120,note_on,0,0,0,,,,,,,,,0,,,89,127
213120,note_on,0,0,1,,,,,,,,,0,,,44,127
213120,note_on,0,0,0,,,,,,,,,0,,,97,127
213120,set_tempo,9,1,0,,,,,,705882,,,,,,,
213226,note_on,106,0,1,,,,,,,,,0,,,37,0
213226,note_on,0,0,1,,,,,,,,,0,,,49,0
213226,note_on,0,0,1,,,,,,,,,0,,,44,0
213226,note_on,106,0,0,,,,,,,,,0,,,85,0
213226,note_on,0,0,0,,,,,,,,,0,,,89,0
213226,note_on,0,0,0,,,,,,,,,0,,,97,0
213280,note_on,0,0,1,,,,,,,,,0,,,61,122
213280,note_on,0,0,0,,,,,,,,,0,,,73,122
213280,note_on,0,0,1,,,,,,,,,0,,,65,122
213280,set_tempo,54,1,0,,,,,,631579,,,,,,,
213280,note_on,0,0,0,,,,,,,,,0,,,77,122
213280,note_on,0,0,0,,,,,,,,,0,,,85,122
213280,note_on,54,0,1,,,,,,,,,0,,,56,122
213431,note_on,0,0,1,,,,,,,,,0,,,65,0
213431,note_on,0,0,1,,,,,,,,,0,,,61,0
213431,note_on,0,0,0,,,,,,,,,0,,,85,0
213431,note_on,151,0,1,,,,,,,,,0,,,56,0
213431,note_on,151,0,0,,,,,,,,,0,,,73,0
213431,note_on,0,0,0,,,,,,,,,0,,,77,0
213440,note_on,0,0,1,,,,,,,,,0,,,61,122
213440,note_on,0,0,1,,,,,,,,,0,,,65,122
213440,note_on,9,0,0,,,,,,,,,0,,,73,122
213440,note_on,0,0,0,,,,,,,,,0,,,77,122
213440,note_on,0,0,0,,,,,,,,,0,,,85,122
213440,note_on,9,0,1,,,,,,,,,0,,,56,122
213591,note_on,0,0,0,,,,,,,,,0,,,77,0
213591,note_on,0,0,0,,,,,,,,,0,,,85,0
213591,note_on,0,0,1,,,,,,,,,0,,,65,0
213591,note_on,0,0,1,,,,,,,,,0,,,61,0
213591,note_on,151,0,1,,,,,,,,,0,,,56,0
213591,note_on,151,0,0,,,,,,,,,0,,,73,0
213600,note_on,0,0,0,,,,,,,,,0,,,80,127
213600,note_on,0,0,0,,,,,,,,,0,,,85,127
213600,note_on,0,0,0,,,,,,,,,0,,,92,127
213600,note_on,0,0,1,,,,,,,,,0,,,49,127
213600,note_on,9,0,1,,,,,,,,,0,,,41,127
213600,note_on,0,0,1,,,,,,,,,0,,,53,127
213600,set_tempo,9,1,0,,,,,,705882,,,,,,,
213706,note_on,0,0,1,,,,,,,,,0,,,49,0
213706,note_on,0,0,0,,,,,,,,,0,,,92,0
213706,note_on,0,0,0,,,,,,,,,0,,,85,0
213706,note_on,106,0,1,,,,,,,,,0,,,41,0
213706,note_on,106,0,0,,,,,,,,,0,,,80,0
213706,note_on,0,0,1,,,,,,,,,0,,,53,0
213760,note_on,0,0,1,,,,,,,,,0,,,61,122
213760,note_on,0,0,1,,,,,,,,,0,,,65,122
213760,note_on,0,0,0,,,,,,,,,0,,,68,122
213760,note_on,54,0,1,,,,,,,,,0,,,56,122
213760,note_on,0,0,0,,,,,,,,,0,,,73,122
213760,note_on,0,0,0,,,,,,,,,0,,,80,122
213760,set_tempo,54,1,0,,,,,,631579,,,,,,,
213911,note_on,0,0,0,,,,,,,,,0,,,80,0
213911,note_on,0,0,0,,,,,,,,,0,,,73,0
213911,note_on,0,0,1,,,,,,,,,0,,,65,0
213911,note_on,151,0,0,,,,,,,,,0,,,68,0
213911,note_on,151,0,1,,,,,,,,,0,,,56,0
213911,note_on,0,0,1,,,,,,,,,0,,,61,0
213920,note_on,0,0,1,,,,,,,,,0,,,61,122
213920,note_on,9,0,1,,,,,,,,,0,,,56,122
213920,note_on,0,0,0,,,,,,,,,0,,,73,122
213920,note_on,0,0,0,,,,,,,,,0,,,80,122
213920,note_on,9,0,0,,,,,,,,,0,,,68,122
213920,note_on,0,0,1,,,,,,,,,0,,,65,122
214071,note_on,0,0,0,,,,,,,,,0,,,73,0
214071,note_on,0,0,0,,,,,,,,,0,,,80,0
214071,note_on,151,0,1,,,,,,,,,0,,,56,0
214071,note_on,0,0,1,,,,,,,,,0,,,61,0
214071,note_on,0,0,1,,,,,,,,,0,,,65,0
214071,note_on,151,0,0,,,,,,,,,0,,,68,0
214080,set_tempo,9,1,0,,,,,,705882,,,,,,,
214080,note_on,0,0,1,,,,,,,,,0,,,55,127
214080,note_on,0,0,1,,,,,,,,,0,,,49,127
214080,note_on,0,0,0,,,,,,,,,0,,,84,127
214080,note_on,0,0,0,,,,,,,,,0,,,88,127
214080,note_on,0,0,0,,,,,,,,,0,,,96,127
214080,note_on,9,0,1,,,,,,,,,0,,,43,127
214081,control_change,1,0,1,,,,,,,64,0,0,,,,
214082,control_change,1,0,1,,,,,,,64,127,0,,,,
214186,note_on,106,0,0,,,,,,,,,0,,,84,0
214186,note_on,0,0,1,,,,,,,,,0,,,55,0
214186,note_on,0,0,1,,,,,,,,,0,,,49,0
214186,note_on,104,0,1,,,,,,,,,0,,,43,0
214186,note_on,0,0,0,,,,,,,,,0,,,88,0
214186,note_on,0,0,0,,,,,,,,,0,,,96,0
214240,note_on,0,0,0,,,,,,,,,0,,,84,122
214240,note_on,0,0,0,,,,,,,,,0,,,76,122
214240,note_on,0,0,1,,,,,,,,,0,,,64,122
214240,note_on,0,0,1,,,,,,,,,0,,,61,122
214240,note_on,54,0,1,,,,,,,,,0,,,55,122
214240,note_on,0,0,0,,,,,,,,,0,,,72,122
214240,set_tempo,54,1,0,,,,,,631579,,,,,,,
214391,note_on,0,0,1,,,,,,,,,0,,,64,0
214391,note_on,0,0,1,,,,,,,,,0,,,61,0
214391,note_on,151,0,1,,,,,,,,,0,,,55,0
214391,note_on,151,0,0,,,,,,,,,0,,,72,0
214391,note_on,0,0,0,,,,,,,,,0,,,84,0
214391,note_on,0,0,0,,,,,,,,,0,,,76,0
214400,note_on,0,0,1,,,,,,,,,0,,,64,122
214400,note_on,0,0,1,,,,,,,,,0,,,61,122
214400,note_on,0,0,0,,,,,,,,,0,,,76,122
214400,note_on,9,0,0,,,,,,,,,0,,,72,122
214400,note_on,0,0,0,,,,,,,,,0,,,84,122
214400,note_on,9,0,1,,,,,,,,,0,,,55,122
214551,note_on,0,0,1,,,,,,,,,0,,,64,0
214551,note_on,0,0,0,,,,,,,,,0,,,76,0
214551,note_on,0,0,0,,,,,,,,,0,,,84,0
214551,note_on,151,0,1,,,,,,,,,0,,,55,0
214551,note_on,151,0,0,,,,,,,,,0,,,72,0
214551,note_on,0,0,1,,,,,,,,,0,,,61,0
214560,note_on,9,0,1,,,,,,,,,0,,,55,122
214560,note_on,9,0,0,,,,,,,,,0,,,72,122
214560,note_on,0,0,0,,,,,,,,,0,,,76,122
214560,note_on,0,0,1,,,,,,,,,0,,,64,122
214560,note_on,0,0,0,,,,,,,,,0,,,84,122
214560,note_on,0,0,1,,,,,,,,,0,,,61,122
214711,note_on,0,0,0,,,,,,,,,0,,,76,0
214711,note_on,151,0,1,,,,,,,,,0,,,55,0
214711,note_on,0,0,1,,,,,,,,,0,,,61,0
214711,note_on,0,0,1,,,,,,,,,0,,,64,0
214711,note_on,151,0,0,,,,,,,,,0,,,72,0
214711,note_on,0,0,0,,,,,,,,,0,,,84,0
214720,note_on,0,0,1,,,,,,,,,0,,,61,122
214720,note_on,0,0,1,,,,,,,,,0,,,64,122
214720,note_on,0,0,0,,,,,,,,,0,,,84,122
214720,note_on,9,0,1,,,,,,,,,0,,,55,122
214720,note_on,9,0,0,,,,,,,,,0,,,72,122
214720,note_on,0,0,0,,,,,,,,,0,,,76,122
214871,note_on,0,0,1,,,,,,,,,0,,,61,0
214871,note_on,0,0,1,,,,,,,,,0,,,64,0
214871,note_on,151,0,1,,,,,,,,,0,,,55,0
214871,note_on,151,0,0,,,,,,,,,0,,,72,0
214871,note_on,0,0,0,,,,,,,,,0,,,76,0
214871,note_on,0,0,0,,,,,,,,,0,,,84,0
214880,note_on,0,0,1,,,,,,,,,0,,,64,122
214880,note_on,9,0,1,,,,,,,,,0,,,55,122
214880,note_on,0,0,0,,,,,,,,,0,,,76,122
214880,note_on,0,0,1,,,,,,,,,0,,,61,122
214880,note_on,9,0,0,,,,,,,,,0,,,72,122
214880,note_on,0,0,0,,,,,,,,,0,,,84,122
215031,note_on,151,0,1,,,,,,,,,0,,,55,0
215031,note_on,0,0,1,,,,,,,,,0,,,61,0
215031,note_on,0,0,0,,,,,,,,,0,,,84,0
215031,note_on,151,0,0,,,,,,,,,0,,,72,0
215031,note_on,0,0,0,,,,,,,,,0,,,76,0
215031,note_on,0,0,1,,,,,,,,,0,,,64,0
215040,note_on,9,0,1,,,,,,,,,0,,,43,127
215040,note_on,0,0,0,,,,,,,,,0,,,94,127
215040,note_on,0,0,1,,,,,,,,,0,,,55,127
215040,note_on,0,0,1,,,,,,,,,0,,,52,127
215040,set_tempo,9,1,0,,,,,,705882,,,,,,,
215040,note_on,0,0,0,,,,,,,,,0,,,82,127
215040,note_on,0,0,0,,,,,,,,,0,,,85,127
215146,note_on,0,0,0,,,,,,,,,0,,,94,0
215146,note_on,0,0,1,,,,,,,,,0,,,52,0
215146,note_on,0,0,1,,,,,,,,,0,,,55,0
215146,note_on,0,0,0,,,,,,,,,0,,,85,0
215146,note_on,106,0,1,,,,,,,,,0,,,43,0
215146,note_on,106,0,0,,,,,,,,,0,,,82,0
215200,note_on,0,0,1,,,,,,,,,0,,,64,122
215200,note_on,0,0,1,,,,,,,,,0,,,61,122
215200,note_on,54,0,1,,,,,,,,,0,,,55,122
215200,note_on,0,0,0,,,,,,,,,0,,,70,122
215200,note_on,0,0,0,,,,,,,,,0,,,73,122
215200,set_tempo,54,1,0,,,,,,631579,,,,,,,
215200,note_on,0,0,0,,,,,,,,,0,,,82,122
215351,note_on,0,0,0,,,,,,,,,0,,,73,0
215351,note_on,0,0,0,,,,,,,,,0,,,82,0
215351,note_on,151,0,0,,,,,,,,,0,,,70,0
215351,note_on,151,0,1,,,,,,,,,0,,,55,0
215351,note_on,0,0,1,,,,,,,,,0,,,61,0
215351,note_on,0,0,1,,,,,,,,,0,,,64,0
215360,note_on,0,0,0,,,,,,,,,0,,,73,122
215360,note_on,0,0,0,,,,,,,,,0,,,82,122
215360,note_on,9,0,0,,,,,,,,,0,,,70,122
215360,note_on,9,0,1,,,,,,,,,0,,,55,122
215360,note_on,0,0,1,,,,,,,,,0,,,64,122
215360,note_on,0,0,1,,,,,,,,,0,,,61,122
215511,note_on,151,0,0,,,,,,,,,0,,,70,0
215511,note_on,0,0,1,,,,,,,,,0,,,61,0
215511,note_on,0,0,1,,,,,,,,,0,,,64,0
215511,note_on,0,0,0,,,,,,,,,0,,,82,0
215511,note_on,0,0,0,,,,,,,,,0,,,73,0
215511,note_on,151,0,1,,,,,,,,,0,,,55,0
215520,note_on,0,0,1,,,,,,,,,0,,,64,122
215520,note_on,0,0,1,,,,,,,,,0,,,61,122
215520,note_on,9,0,1,,,,,,,,,0,,,55,122
215520,note_on,9,0,0,,,,,,,,,0,,,70,122
215520,note_on,0,0,0,,,,,,,,,0,,,73,122
215520,note_on,0,0,0,,,,,,,,,0,,,82,122
215671,note_on,0,0,0,,,,,,,,,0,,,73,0
215671,note_on,0,0,0,,,,,,,,,0,,,82,0
215671,note_on,0,0,1,,,,,,,,,0,,,61,0
215671,note_on,151,0,1,,,,,,,,,0,,,55,0
215671,note_on,151,0,0,,,,,,,,,0,,,70,0
215671,note_on,0,0,1,,,,,,,,,0,,,64,0
215680,note_on,9,0,1,,,,,,,,,0,,,55,122
215680,note_on,9,0,0,,,,,,,,,0,,,70,122
215680,note_on,0,0,0,,,,,,,,,0,,,73,122
215680,note_on,0,0,0,,,,,,,,,0,,,82,122
215680,note_on,0,0,1,,,,,,,,,0,,,61,122
215680,note_on,0,0,1,,,,,,,,,0,,,64,122
215831,note_on,0,0,0,,,,,,,,,0,,,82,0
215831,note_on,0,0,0,,,,,,,,,0,,,73,0
215831,note_on,151,0,1,,,,,,,,,0,,,55,0
215831,note_on,0,0,1,,,,,,,,,0,,,64,0
215831,note_on,151,0,0,,,,,,,,,0,,,70,0
215831,note_on,0,0,1,,,,,,,,,0,,,61,0
215840,note_on,0,0,0,,,,,,,,,0,,,85,127
215840,note_on,0,0,0,,,,,,,,,0,,,94,127
215840,note_on,0,0,1,,,,,,,,,0,,,52,127
215840,note_on,9,0,0,,,,,,,,,0,,,82,127
215840,note_on,0,0,1,,,,,,,,,0,,,55,127
215840,note_on,9,0,1,,,,,,,,,0,,,43,127
215946,note_on,106,0,1,,,,,,,,,0,,,43,0
215946,note_on,0,0,0,,,,,,,,,0,,,94,0
215946,note_on,0,0,0,,,,,,,,,0,,,85,0
215946,note_on,0,0,1,,,,,,,,,0,,,52,0
215946,note_on,0,0,1,,,,,,,,,0,,,55,0
215946,note_on,106,0,0,,,,,,,,,0,,,82,0
216000,note_on,0,0,0,,,,,,,,,0,,,85,127
216000,note_on,0,0,1,,,,,,,,,0,,,56,127
216000,note_on,0,0,1,,,,,,,,,0,,,53,127
216000,note_on,54,0,1,,,,,,,,,0,,,44,127
216000,note_on,0,0,0,,,,,,,,,0,,,89,127
216000,note_on,54,0,0,,,,,,,,,0,,,77,127
216001,control_change,1,0,1,,,,,,,64,0,0,,,,
216002,control_change,1,0,1,,,,,,,64,127,0,,,,
216106,note_on,0,0,0,,,,,,,,,0,,,85,0
216106,note_on,0,0,1,,,,,,,,,0,,,53,0
216106,note_on,0,0,0,,,,,,,,,0,,,89,0
216106,note_on,106,0,0,,,,,,,,,0,,,77,0
216106,note_on,0,0,1,,,,,,,,,0,,,56,0
216106,note_on,104,0,1,,,,,,,,,0,,,44,0
216160,note_on,54,0,0,,,,,,,,,0,,,73,122
216160,note_on,54,0,1,,,,,,,,,0,,,61,122
216160,note_on,0,0,0,,,,,,,,,0,,,77,122
216160,note_on,0,0,1,,,,,,,,,0,,,65,122
216311,note_on,151,0,1,,,,,,,,,0,,,61,0
216311,note_on,0,0,1,,,,,,,,,0,,,65,0
216311,note_on,0,0,0,,,,,,,,,0,,,77,0
216311,note_on,151,0,0,,,,,,,,,0,,,73,0
216320,note_on,9,0,1,,,,,,,,,0,,,61,122
216320,note_on,0,0,1,,,,,,,,,0,,,65,122
216320,note_on,0,0,0,,,,,,,,,0,,,77,122
216320,note_on,9,0,0,,,,,,,,,0,,,73,122
216471,note_on,151,0,1,,,,,,,,,0,,,61,0
216471,note_on,0,0,0,,,,,,,,,0,,,77,0
216471,note_on,151,0,0,,,,,,,,,0,,,73,0
216471,note_on,0,0,1,,,,,,,,,0,,,65,0
216480,note_on,9,0,0,,,,,,,,,0,,,77,127
216480,note_on,0,0,0,,,,,,,,,0,,,85,127
216480,note_on,0,0,0,,,,,,,,,0,,,89,127
216480,note_on,0,0,1,,,,,,,,,0,,,53,127
216480,note_on,0,0,1,,,,,,,,,0,,,56,127
216480,note_on,9,0,1,,,,,,,,,0,,,44,127
216586,note_on,106,0,1,,,,,,,,,0,,,44,0
216586,note_on,0,0,1,,,,,,,,,0,,,53,0
216586,note_on,0,0,1,,,,,,,,,0,,,56,0
216586,note_on,0,0,0,,,,,,,,,0,,,85,0
216586,note_on,0,0,0,,,,,,,,,0,,,89,0
216586,note_on,106,0,0,,,,,,,,,0,,,77,0
216640,note_on,0,0,1,,,,,,,,,0,,,65,122
216640,note_on,54,0,0,,,,,,,,,0,,,73,122
216640,note_on,0,0,0,,,,,,,,,0,,,77,122
216640,note_on,54,0,1,,,,,,,,,0,,,61,122
216791,note_on,151,0,0,,,,,,,,,0,,,73,0
216791,note_on,151,0,1,,,,,,,,,0,,,61,0
216791,note_on,0,0,0,,,,,,,,,0,,,77,0
216791,note_on,0,0,1,,,,,,,,,0,,,65,0
216800,note_on,0,0,0,,,,,,,,,0,,,77,122
216800,note_on,9,0,1,,,,,,,,,0,,,61,122
216800,note_on,9,0,0,,,,,,,,,0,,,73,122
216800,note_on,0,0,1,,,,,,,,,0,,,65,122
216951,note_on,151,0,0,,,,,,,,,0,,,73,0
216951,note_on,0,0,0,,,,,,,,,0,,,77,0
216951,note_on,0,0,1,,,,,,,,,0,,,65,0
216951,note_on,151,0,1,,,,,,,,,0,,,61,0
216960,set_tempo,9,1,0,,,,,,800000,,,,,,,
216960,note_on,0,0,0,,,,,,,,,0,,,80,127
216960,note_on,0,0,0,,,,,,,,,0,,,84,127
216960,note_on,9,0,1,,,,,,,,,0,,,44,127
216960,note_on,0,0,0,,,,,,,,,0,,,92,127
216960,note_on,0,0,1,,,,,,,,,0,,,56,127
216960,note_on,0,0,1,,,,,,,,,0,,,51,127
217066,note_on,0,0,1,,,,,,,,,0,,,51,0
217066,note_on,106,0,0,,,,,,,,,0,,,80,0
217066,note_on,106,0,1,,,,,,,,,0,,,44,0
217066,note_on,0,0,0,,,,,,,,,0,,,84,0
217066,note_on,0,0,0,,,,,,,,,0,,,92,0
217066,note_on,0,0,1,,,,,,,,,0,,,56,0
217120,note_on,0,0,0,,,,,,,,,0,,,75,122
217120,note_on,0,0,0,,,,,,,,,0,,,72,122
217120,note_on,54,0,1,,,,,,,,,0,,,60,122
217120,set_tempo,54,1,0,,,,,,705882,,,,,,,
217120,note_on,0,0,1,,,,,,,,,0,,,63,122
217271,note_on,0,0,1,,,,,,,,,0,,,63,0
217271,note_on,151,0,1,,,,,,,,,0,,,60,0
217271,note_on,151,0,0,,,,,,,,,0,,,72,0
217271,note_on,0,0,0,,,,,,,,,0,,,75,0
217280,note_on,9,0,0,,,,,,,,,0,,,72,122
217280,note_on,0,0,1,,,,,,,,,0,,,63,122
217280,note_on,9,0,1,,,,,,,,,0,,,60,122
217280,note_on,0,0,0,,,,,,,,,0,,,75,122
217431,note_on,0,0,1,,,,,,,,,0,,,63,0
217431,note_on,151,0,1,,,,,,,,,0,,,60,0
217431,note_on,0,0,0,,,,,,,,,0,,,75,0
217431,note_on,151,0,0,,,,,,,,,0,,,72,0
217440,note_on,0,0,1,,,,,,,,,0,,,56,127
217440,note_on,0,0,1,,,,,,,,,0,,,51,127
217440,note_on,9,0,1,,,,,,,,,0,,,44,127
217440,note_on,0,0,0,,,,,,,,,0,,,84,127
217440,set_tempo,9,1,0,,,,,,800000,,,,,,,
217440,note_on,0,0,0,,,,,,,,,0,,,78,127
217440,note_on,0,0,0,,,,,,,,,0,,,90,127
217546,note_on,0,0,0,,,,,,,,,0,,,90,0
217546,note_on,0,0,1,,,,,,,,,0,,,56,0
217546,note_on,106,0,1,,,,,,,,,0,,,44,0
217546,note_on,106,0,0,,,,,,,,,0,,,78,0
217546,note_on,0,0,1,,,,,,,,,0,,,51,0
217546,note_on,0,0,0,,,,,,,,,0,,,84,0
217600,note_on,0,0,0,,,,,,,,,0,,,75,122
217600,note_on,0,0,1,,,,,,,,,0,,,63,122
217600,set_tempo,54,1,0,,,,,,705882,,,,,,,
217600,note_on,54,0,1,,,,,,,,,0,,,60,122
217600,note_on,0,0,0,,,,,,,,,0,,,72,122
217751,note_on,151,0,1,,,,,,,,,0,,,60,0
217751,note_on,151,0,0,,,,,,,,,0,,,72,0
217751,note_on,0,0,0,,,,,,,,,0,,,75,0
217751,note_on,0,0,1,,,,,,,,,0,,,63,0
217760,note_on,0,0,1,,,,,,,,,0,,,63,122
217760,note_on,0,0,0,,,,,,,,,0,,,75,122
217760,note_on,9,0,1,,,,,,,,,0,,,60,122
217760,note_on,9,0,0,,,,,,,,,0,,,72,122
217911,note_on,151,0,1,,,,,,,,,0,,,60,0
217911,note_on,0,0,1,,,,,,,,,0,,,63,0
217911,note_on,151,0,0,,,,,,,,,0,,,72,0
217911,note_on,0,0,0,,,,,,,,,0,,,75,0
217920,note_on,9,0,1,,,,,,,,,0,,,45,127
217920,note_on,0,0,1,,,,,,,,,0,,,51,127
217920,note_on,0,0,1,,,,,,,,,0,,,57,127
217920,note_on,0,0,0,,,,,,,,,0,,,84,127
217920,note_on,9,0,0,,,,,,,,,0,,,78,127
217920,note_on,0,0,0,,,,,,,,,0,,,90,127
217921,control_change,1,0,1,,,,,,,64,0,0,,,,
217922,control_change,1,0,1,,,,,,,64,127,0,,,,
218026,note_on,0,0,1,,,,,,,,,0,,,57,0
218026,note_on,0,0,1,,,,,,,,,0,,,51,0
218026,note_on,106,0,0,,,,,,,,,0,,,78,0
218026,note_on,0,0,0,,,,,,,,,0,,,90,0
218026,note_on,0,0,0,,,,,,,,,0,,,84,0
218026,note_on,104,0,1,,,,,,,,,0,,,45,0
218080,note_on,0,0,1,,,,,,,,,0,,,66,122
218080,note_on,0,0,0,,,,,,,,,0,,,75,122
218080,note_on,0,0,0,,,,,,,,,0,,,78,122
218080,note_on,54,0,1,,,,,,,,,0,,,63,122
218080,set_tempo,54,1,0,,,,,,705882,,,,,,,
218231,note_on,0,0,0,,,,,,,,,0,,,78,0
218231,note_on,0,0,1,,,,,,,,,0,,,66,0
218231,note_on,151,0,1,,,,,,,,,0,,,63,0
218231,note_on,151,0,0,,,,,,,,,0,,,75,0
218240,note_on,0,0,0,,,,,,,,,0,,,75,122
218240,note_on,9,0,1,,,,,,,,,0,,,62,122
218240,note_on,0,0,1,,,,,,,,,0,,,63,122
218240,note_on,0,0,1,,,,,,,,,0,,,66,122
218240,note_on,0,0,0,,,,,,,,,0,,,78,122
218240,note_on,9,0,0,,,,,,,,,0,,,74,122
218391,note_on,151,0,0,,,,,,,,,0,,,74,0
218391,note_on,0,0,0,,,,,,,,,0,,,78,0
218391,note_on,0,0,0,,,,,,,,,0,,,75,0
218391,note_on,151,0,1,,,,,,,,,0,,,62,0
218391,note_on,0,0,1,,,,,,,,,0,,,63,0
218391,note_on,0,0,1,,,,,,,,,0,,,66,0
218400,note_on,9,0,0,,,,,,,,,0,,,73,122
218400,note_on,0,0,0,,,,,,,,,0,,,78,122
218400,note_on,0,0,1,,,,,,,,,0,,,63,122
218400,note_on,0,0,0,,,,,,,,,0,,,75,122
218400,note_on,9,0,1,,,,,,,,,0,,,61,122
218400,note_on,0,0,1,,,,,,,,,0,,,66,122
218551,note_on,0,0,1,,,,,,,,,0,,,63,0
218551,note_on,151,0,0,,,,,,,,,0,,,73,0
218551,note_on,151,0,1,,,,,,,,,0,,,61,0
218551,note_on,0,0,1,,,,,,,,,0,,,66,0
218551,note_on,0,0,0,,,,,,,,,0,,,75,0
218551,note_on,0,0,0,,,,,,,,,0,,,78,0
218560,note_on,9,0,1,,,,,,,,,0,,,60,122
218560,note_on,0,0,0,,,,,,,,,0,,,78,122
218560,note_on,0,0,0,,,,,,,,,0,,,75,122
218560,note_on,9,0,0,,,,,,,,,0,,,72,122
218560,note_on,0,0,1,,,,,,,,,0,,,63,122
218560,note_on,0,0,1,,,,,,,,,0,,,66,122
218711,note_on,0,0,1,,,,,,,,,0,,,63,0
218711,note_on,0,0,1,,,,,,,,,0,,,66,0
218711,note_on,0,0,0,,,,,,,,,0,,,75,0
218711,note_on,0,0,0,,,,,,,,,0,,,78,0
218711,note_on,151,0,0,,,,,,,,,0,,,72,0
218711,note_on,151,0,1,,,,,,,,,0,,,60,0
218720,note_on,0,0,1,,,,,,,,,0,,,63,122
218720,note_on,0,0,0,,,,,,,,,0,,,78,122
218720,set_tempo,9,1,0,,,,,,631579,,,,,,,
218720,note_on,0,0,0,,,,,,,,,0,,,71,122
218720,note_on,0,0,1,,,,,,,,,0,,,66,122
218720,note_on,9,0,1,,,,,,,,,0,,,59,122
218720,note_on,0,0,0,,,,,,,,,0,,,75,122
218871,note_on,151,0,1,,,,,,,,,0,,,59,0
218871,note_on,0,0,0,,,,,,,,,0,,,78,0
218871,note_on,151,0,0,,,,,,,,,0,,,71,0
218871,note_on,0,0,1,,,,,,,,,0,,,63,0
218871,note_on,0,0,1,,,,,,,,,0,,,66,0
218871,note_on,0,0,0,,,,,,,,,0,,,75,0
218880,note_on,0,0,0,,,,,,,,,0,,,75,122
218880,note_on,0,0,0,,,,,,,,,0,,,78,122
218880,note_on,9,0,0,,,,,,,,,0,,,70,122
218880,note_on,0,0,1,,,,,,,,,0,,,66,122
218880,note_on,9,0,1,,,,,,,,,0,,,58,122
218880,note_on,0,0,1,,,,,,,,,0,,,63,122
219031,note_on,151,0,1,,,,,,,,,0,,,58,0
219031,note_on,0,0,1,,,,,,,,,0,,,63,0
219031,note_on,151,0,0,,,,,,,,,0,,,70,0
219031,note_on,0,0,1,,,,,,,,,0,,,66,0
219031,note_on,0,0,0,,,,,,,,,0,,,78,0
219031,note_on,0,0,0,,,,,,,,,0,,,75,0
219040,note_on,9,0,1,,,,,,,,,0,,,57,122
219040,note_on,0,0,0,,,,,,,,,0,,,78,122
219040,note_on,9,0,0,,,,,,,,,0,,,69,122
219040,note_on,0,0,0,,,,,,,,,0,,,75,122
219040,note_on,0,0,1,,,,,,,,,0,,,63,122
219040,note_on,0,0,1,,,,,,,,,0,,,66,122
219191,note_on,0,0,0,,,,,,,,,0,,,78,0
219191,note_on,0,0,0,,,,,,,,,0,,,75,0
219191,note_on,0,0,1,,,,,,,,,0,,,66,0
219191,note_on,151,0,0,,,,,,,,,0,,,69,0
219191,note_on,0,0,1,,,,,,,,,0,,,63,0
219191,note_on,151,0,1,,,,,,,,,0,,,57,0
219200,note_on,0,0,0,,,,,,,,,0,,,75,122
219200,note_on,9,0,0,,,,,,,,,0,,,66,122
219200,note_on,0,0,1,,,,,,,,,0,,,63,122
219200,note_on,9,0,1,,,,,,,,,0,,,54,122
219200,note_on,0,0,0,,,,,,,,,0,,,78,122
219351,note_on,151,0,0,,,,,,,,,0,,,66,0
219351,note_on,0,0,1,,,,,,,,,0,,,63,0
219351,note_on,0,0,0,,,,,,,,,0,,,78,0
219351,note_on,0,0,0,,,,,,,,,0,,,75,0
219351,note_on,151,0,1,,,,,,,,,0,,,54,0
219360,note_on,0,0,1,,,,,,,,,0,,,63,127
219360,note_on,0,0,0,,,,,,,,,0,,,75,127
219360,note_on,0,0,0,,,,,,,,,0,,,78,127
219360,note_on,9,0,0,,,,,,,,,0,,,66,127
219360,note_on,9,0,1,,,,,,,,,0,,,54,127
219519,note_on,159,0,1,,,,,,,,,0,,,54,0
219519,note_on,0,0,0,,,,,,,,,0,,,75,0
219519,note_on,0,0,1,,,,,,,,,0,,,63,0
219519,note_on,0,0,0,,,,,,,,,0,,,78,0
219519,note_on,159,0,0,,,,,,,,,0,,,66,0
219520,note_on,0,0,0,,,,,,,,,0,,,77,122
219520,note_on,0,0,1,,,,,,,,,0,,,63,122
219520,note_on,1,0,1,,,,,,,,,0,,,53,122
219520,note_on,0,0,0,,,,,,,,,0,,,75,122
219520,note_on,1,0,0,,,,,,,,,0,,,65,122
219671,note_on,0,0,1,,,,,,,,,0,,,63,0
219671,note_on,151,0,0,,,,,,,,,0,,,65,0
219671,note_on,151,0,1,,,,,,,,,0,,,53,0
219671,note_on,0,0,0,,,,,,,,,0,,,77,0
219671,note_on,0,0,0,,,,,,,,,0,,,75,0
219680,note_on,0,0,1,,,,,,,,,0,,,53,122
219680,note_on,0,0,0,,,,,,,,,0,,,89,122
219680,note_on,9,0,0,,,,,,,,,0,,,77,122
219680,note_on,9,0,1,,,,,,,,,0,,,41,122
219831,note_on,151,0,1,,,,,,,,,0,,,41,0
219831,note_on,151,0,0,,,,,,,,,0,,,77,0
219831,note_on,0,0,1,,,,,,,,,0,,,53,0
219831,note_on,0,0,0,,,,,,,,,0,,,89,0
219840,note_on,9,0,1,,,,,,,,,0,,,34,112
219840,set_tempo,9,1,0,,,,,,705882,,,,,,,
219840,note_on,0,0,0,,,,,,,,,0,,,101,112
219840,note_on,0,0,0,,,,,,,,,0,,,98,112
219840,note_on,0,0,0,,,,,,,,,0,,,89,112
219840,note_on,0,0,1,,,,,,,,,0,,,46,112
219840,note_on,0,0,0,,,,,,,,,0,,,92,112
219841,control_change,1,0,1,,,,,,,64,0,0,,,,
219842,control_change,1,0,1,,,,,,,64,127,0,,,,
219991,note_on,149,0,1,,,,,,,,,0,,,34,0
219991,note_on,0,0,1,,,,,,,,,0,,,46,0
220000,note_on,0,0,1,,,,,,,,,0,,,59,112
220000,note_on,9,0,1,,,,,,,,,0,,,47,112
220067,note_on,0,0,0,,,,,,,,,0,,,92,0
220067,note_on,0,0,0,,,,,,,,,0,,,98,0
220067,note_on,0,0,0,,,,,,,,,0,,,101,0
220067,note_on,227,0,0,,,,,,,,,0,,,89,0
220151,note_on,0,0,1,,,,,,,,,0,,,59,0
220151,note_on,151,0,1,,,,,,,,,0,,,47,0
220160,note_on,0,0,1,,,,,,,,,0,,,60,112
220160,note_on,9,0,1,,,,,,,,,0,,,48,112
220311,note_on,151,0,1,,,,,,,,,0,,,48,0
220311,note_on,0,0,1,,,,,,,,,0,,,60,0
220320,note_on,0,0,1,,,,,,,,,0,,,61,112
220320,note_on,0,0,0,,,,,,,,,0,,,86,112
220320,note_on,0,0,0,,,,,,,,,0,,,80,112
220320,set_tempo,253,1,0,,,,,,631579,,,,,,,
220320,note_on,0,0,0,,,,,,,,,0,,,89,112
220320,note_on,9,0,1,,,,,,,,,0,,,49,112
220320,note_on,0,0,0,,,,,,,,,0,,,77,112
220471,note_on,151,0,1,,,,,,,,,0,,,49,0
220471,note_on,0,0,1,,,,,,,,,0,,,61,0
220480,note_on,0,0,1,,,,,,,,,0,,,62,112
220480,note_on,9,0,1,,,,,,,,,0,,,50,112
220631,note_on,0,0,1,,,,,,,,,0,,,62,0
220631,note_on,151,0,1,,,,,,,,,0,,,50,0
220640,note_on,0,0,1,,,,,,,,,0,,,65,112
220640,note_on,9,0,1,,,,,,,,,0,,,53,112
220775,note_on,0,0,0,,,,,,,,,0,,,89,0
220775,note_on,0,0,0,,,,,,,,,0,,,80,0
220775,note_on,0,0,0,,,,,,,,,0,,,86,0
220775,note_on,455,0,0,,,,,,,,,0,,,77,0
220791,note_on,151,0,1,,,,,,,,,0,,,53,0
220791,note_on,0,0,1,,,,,,,,,0,,,65,0
220800,note_on,9,0,1,,,,,,,,,0,,,39,112
220800,note_on,0,0,0,,,,,,,,,0,,,83,112
220800,note_on,25,0,0,,,,,,,,,0,,,71,112
220800,note_on,0,0,0,,,,,,,,,0,,,76,112
220800,note_on,0,0,1,,,,,,,,,0,,,51,112
220800,note_on,0,0,0,,,,,,,,,0,,,73,112
220800,note_on,0,0,0,,,,,,,,,0,,,79,112
220801,control_change,1,0,1,,,,,,,64,0,0,,,,
220802,control_change,1,0,1,,,,,,,64,127,0,,,,
220951,note_on,0,0,1,,,,,,,,,0,,,51,0
220951,note_on,149,0,1,,,,,,,,,0,,,39,0
220960,note_on,9,0,1,,,,,,,,,0,,,49,112
220960,note_on,0,0,1,,,,,,,,,0,,,61,112
221111,note_on,151,0,1,,,,,,,,,0,,,49,0
221111,note_on,0,0,1,,,,,,,,,0,,,61,0
221120,note_on,9,0,1,,,,,,,,,0,,,50,112
221120,note_on,0,0,1,,,,,,,,,0,,,62,112
221271,note_on,151,0,1,,,,,,,,,0,,,50,0
221271,note_on,0,0,1,,,,,,,,,0,,,62,0
221280,note_on,9,0,1,,,,,,,,,0,,,51,112
221280,note_on,0,0,1,,,,,,,,,0,,,63,112
221431,note_on,151,0,1,,,,,,,,,0,,,51,0
221431,note_on,0,0,1,,,,,,,,,0,,,63,0
221440,note_on,9,0,1,,,,,,,,,0,,,52,112
221440,note_on,0,0,1,,,,,,,,,0,,,64,112
221483,note_on,0,0,0,,,,,,,,,0,,,76,0
221483,note_on,0,0,0,,,,,,,,,0,,,79,0
221483,note_on,0,0,0,,,,,,,,,0,,,83,0
221483,note_on,0,0,0,,,,,,,,,0,,,73,0
221483,note_on,683,0,0,,,,,,,,,0,,,71,0
221520,note_on,0,0,0,,,,,,,,,0,,,70,112
221520,note_on,0,0,0,,,,,,,,,0,,,73,112
221520,note_on,0,0,0,,,,,,,,,0,,,76,112
221520,note_on,0,0,0,,,,,,,,,0,,,82,112
221520,set_tempo,37,1,0,,,,,,800000,,,,,,,
221591,note_on,151,0,1,,,,,,,,,0,,,52,0
221591,note_on,0,0,1,,,,,,,,,0,,,64,0
221600,note_on,9,0,1,,,,,,,,,0,,,55,112
221600,note_on,0,0,1,,,,,,,,,0,,,67,112
221747,note_on,0,0,0,,,,,,,,,0,,,82,0
221747,note_on,227,0,0,,,,,,,,,0,,,70,0
221747,note_on,0,0,0,,,,,,,,,0,,,73,0
221747,note_on,0,0,0,,,,,,,,,0,,,76,0
221751,note_on,0,0,1,,,,,,,,,0,,,67,0
221751,note_on,151,0,1,,,,,,,,,0,,,55,0
221760,note_on,0,0,0,,,,,,,,,0,,,87,112
221760,set_tempo,13,1,0,,,,,,705882,,,,,,,
221760,note_on,0,0,0,,,,,,,,,0,,,90,112
221760,note_on,0,0,0,,,,,,,,,0,,,96,112
221760,note_on,9,0,1,,,,,,,,,0,,,32,112
221760,note_on,0,0,1,,,,,,,,,0,,,44,112
221760,note_on,0,0,0,,,,,,,,,0,,,99,112
221761,control_change,1,0,1,,,,,,,64,0,0,,,,
221762,control_change,1,0,1,,,,,,,64,127,0,,,,
221911,note_on,149,0,1,,,,,,,,,0,,,32,0
221911,note_on,0,0,1,,,,,,,,,0,,,44,0
221920,note_on,0,0,1,,,,,,,,,0,,,57,112
221920,note_on,9,0,1,,,,,,,,,0,,,45,112
221987,note_on,0,0,0,,,,,,,,,0,,,96,0
221987,note_on,227,0,0,,,,,,,,,0,,,87,0
221987,note_on,0,0,0,,,,,,,,,0,,,99,0
221987,note_on,0,0,0,,,,,,,,,0,,,90,0
222071,note_on,0,0,1,,,,,,,,,0,,,57,0
222071,note_on,151,0,1,,,,,,,,,0,,,45,0
222080,note_on,9,0,1,,,,,,,,,0,,,46,112
222080,note_on,0,0,1,,,,,,,,,0,,,58,112
222231,note_on,151,0,1,,,,,,,,,0,,,46,0
222231,note_on,0,0,1,,,,,,,,,0,,,58,0
222240,note_on,0,0,1,,,,,,,,,0,,,59,112
222240,note_on,9,0,1,,,,,,,,,0,,,47,112
222240,note_on,0,0,0,,,,,,,,,0,,,87,112
222240,set_tempo,253,1,0,,,,,,631579,,,,,,,
222240,note_on,0,0,0,,,,,,,,,0,,,78,112
222240,note_on,0,0,0,,,,,,,,,0,,,84,112
222240,note_on,0,0,0,,,,,,,,,0,,,75,112
222391,note_on,0,0,1,,,,,,,,,0,,,59,0
222391,note_on,151,0,1,,,,,,,,,0,,,47,0
222400,note_on,0,0,1,,,,,,,,,0,,,60,112
222400,note_on,9,0,1,,,,,,,,,0,,,48,112
222551,note_on,0,0,1,,,,,,,,,0,,,60,0
222551,note_on,151,0,1,,,,,,,,,0,,,48,0
222560,note_on,0,0,1,,,,,,,,,0,,,63,112
222560,note_on,9,0,1,,,,,,,,,0,,,51,112
222695,note_on,0,0,0,,,,,,,,,0,,,78,0
222695,note_on,455,0,0,,,,,,,,,0,,,75,0
222695,note_on,0,0,0,,,,,,,,,0,,,84,0
222695,note_on,0,0,0,,,,,,,,,0,,,87,0
222711,note_on,0,0,1,,,,,,,,,0,,,63,0
222711,note_on,151,0,1,,,,,,,,,0,,,51,0
222720,note_on,9,0,1,,,,,,,,,0,,,37,112
222720,note_on,0,0,0,,,,,,,,,0,,,71,112
222720,note_on,0,0,0,,,,,,,,,0,,,74,112
222720,note_on,0,0,0,,,,,,,,,0,,,81,112
222720,note_on,0,0,1,,,,,,,,,0,,,49,112
222720,note_on,25,0,0,,,,,,,,,0,,,69,112
222720,note_on,0,0,0,,,,,,,,,0,,,77,112
222721,control_change,1,0,1,,,,,,,64,0,0,,,,
222722,control_change,1,0,1,,,,,,,64,127,0,,,,
222871,note_on,0,0,1,,,,,,,,,0,,,49,0
222871,note_on,149,0,1,,,,,,,,,0,,,37,0
222880,note_on,9,0,1,,,,,,,,,0,,,47,112
222880,note_on,0,0,1,,,,,,,,,0,,,59,112
223031,note_on,0,0,1,,,,,,,,,0,,,59,0
223031,note_on,151,0,1,,,,,,,,,0,,,47,0
223040,note_on,9,0,1,,,,,,,,,0,,,48,112
223040,note_on,0,0,1,,,,,,,,,0,,,60,112
223191,note_on,151,0,1,,,,,,,,,0,,,48,0
223191,note_on,0,0,1,,,,,,,,,0,,,60,0
223200,note_on,0,0,1,,,,,,,,,0,,,61,112
223200,note_on,9,0,1,,,,,,,,,0,,,49,112
223351,note_on,0,0,1,,,,,,,,,0,,,61,0
223351,note_on,151,0,1,,,,,,,,,0,,,49,0
223360,note_on,9,0,1,,,,,,,,,0,,,50,112
223360,note_on,0,0,1,,,,,,,,,0,,,62,112
223403,note_on,0,0,0,,,,,,,,,0,,,77,0
223403,note_on,0,0,0,,,,,,,,,0,,,71,0
223403,note_on,683,0,0,,,,,,,,,0,,,69,0
223403,note_on,0,0,0,,,,,,,,,0,,,74,0
223403,note_on,0,0,0,,,,,,,,,0,,,81,0
223440,note_on,0,0,0,,,,,,,,,0,,,68,112
223440,note_on,0,0,0,,,,,,,,,0,,,80,112
223440,note_on,0,0,0,,,,,,,,,0,,,75,112
223440,note_on,0,0,0,,,,,,,,,0,,,71,112
223440,set_tempo,37,1,0,,,,,,800000,,,,,,,
223511,note_on,0,0,1,,,,,,,,,0,,,62,0
223511,note_on,151,0,1,,,,,,,,,0,,,50,0
223520,note_on,9,0,1,,,,,,,,,0,,,53,112
223520,note_on,0,0,1,,,,,,,,,0,,,65,112
223667,note_on,0,0,0,,,,,,,,,0,,,80,0
223667,note_on,227,0,0,,,,,,,,,0,,,68,0
223667,note_on,0,0,0,,,,,,,,,0,,,71,0
223667,note_on,0,0,0,,,,,,,,,0,,,75,0
223671,note_on,151,0,1,,,,,,,,,0,,,53,0
223671,note_on,0,0,1,,,,,,,,,0,,,65,0
223680,note_on,13,0,0,,,,,,,,,0,,,85,112
223680,note_on,9,0,1,,,,,,,,,0,,,30,112
223680,note_on,0,0,1,,,,,,,,,0,,,42,112
223680,note_on,0,0,0,,,,,,,,,0,,,93,112
223680,note_on,0,0,0,,,,,,,,,0,,,97,112
223681,control_change,1,0,1,,,,,,,64,0,0,,,,
223682,control_change,1,0,1,,,,,,,64,127,0,,,,
223831,note_on,151,0,0,,,,,,,,,0,,,85,0
223831,note_on,0,0,0,,,,,,,,,0,,,97,0
223831,note_on,0,0,0,,,,,,,,,0,,,93,0
223831,note_on,149,0,1,,,,,,,,,0,,,30,0
223831,note_on,0,0,1,,,,,,,,,0,,,42,0
223840,note_on,9,0,0,,,,,,,,,0,,,81,112
223840,note_on,0,0,1,,,,,,,,,0,,,66,112
223840,note_on,9,0,1,,,,,,,,,0,,,57,112
223840,note_on,0,0,0,,,,,,,,,0,,,93,112
223840,note_on,0,0,0,,,,,,,,,0,,,90,112
223840,note_on,0,0,1,,,,,,,,,0,,,69,112
223991,note_on,0,0,1,,,,,,,,,0,,,69,0
223991,note_on,0,0,1,,,,,,,,,0,,,66,0
223991,note_on,0,0,0,,,,,,,,,0,,,93,0
223991,note_on,151,0,1,,,,,,,,,0,,,57,0
223991,note_on,151,0,0,,,,,,,,,0,,,81,0
223991,note_on,0,0,0,,,,,,,,,0,,,90,0
224000,note_on,0,0,1,,,,,,,,,0,,,60,112
224000,note_on,0,0,1,,,,,,,,,0,,,66,112
224000,note_on,0,0,1,,,,,,,,,0,,,69,112
224000,note_on,9,0,0,,,,,,,,,0,,,81,112
224000,note_on,0,0,0,,,,,,,,,0,,,90,112
224000,note_on,0,0,0,,,,,,,,,0,,,93,112
224000,note_on,0,0,0,,,,,,,,,0,,,84,112
224000,note_on,9,0,1,,,,,,,,,0,,,57,112
224151,note_on,0,0,0,,,,,,,,,0,,,90,0
224151,note_on,151,0,0,,,,,,,,,0,,,81,0
224151,note_on,0,0,1,,,,,,,,,0,,,60,0
224151,note_on,0,0,1,,,,,,,,,0,,,66,0
224151,note_on,0,0,0,,,,,,,,,0,,,84,0
224151,note_on,151,0,1,,,,,,,,,0,,,57,0
224151,note_on,0,0,0,,,,,,,,,0,,,93,0
224151,note_on,0,0,1,,,,,,,,,0,,,69,0
224160,note_on,0,0,0,,,,,,,,,0,,,93,112
224160,note_on,0,0,1,,,,,,,,,0,,,61,112
224160,note_on,9,0,0,,,,,,,,,0,,,81,112
224160,note_on,0,0,0,,,,,,,,,0,,,85,112
224160,note_on,9,0,1,,,,,,,,,0,,,57,112
224160,note_on,0,0,1,,,,,,,,,0,,,66,112
224160,note_on,0,0,1,,,,,,,,,0,,,69,112
224160,note_on,0,0,0,,,,,,,,,0,,,90,112
224311,note_on,151,0,0,,,,,,,,,0,,,81,0
224311,note_on,151,0,1,,,,,,,,,0,,,57,0
224311,note_on,0,0,0,,,,,,,,,0,,,85,0
224311,note_on,0,0,1,,,,,,,,,0,,,66,0
224311,note_on,0,0,0,,,,,,,,,0,,,93,0
224311,note_on,0,0,0,,,,,,,,,0,,,90,0
224311,note_on,0,0,1,,,,,,,,,0,,,61,0
224311,note_on,0,0,1,,,,,,,,,0,,,69,0
224320,note_on,0,0,0,,,,,,,,,0,,,85,112
224320,note_on,0,0,0,,,,,,,,,0,,,90,112
224320,note_on,9,0,1,,,,,,,,,0,,,54,112
224320,note_on,0,0,1,,,,,,,,,0,,,66,112
224320,set_tempo,9,1,0,,,,,,750000,,,,,,,
224320,note_on,0,0,0,,,,,,,,,0,,,78,112
224320,note_on,0,0,1,,,,,,,,,0,,,61,112
224471,note_on,0,0,0,,,,,,,,,0,,,85,0
224471,note_on,0,0,0,,,,,,,,,0,,,90,0
224471,note_on,151,0,1,,,,,,,,,0,,,54,0
224471,note_on,151,0,0,,,,,,,,,0,,,78,0
224471,note_on,0,0,1,,,,,,,,,0,,,61,0
224471,note_on,0,0,1,,,,,,,,,0,,,66,0
224480,note_on,9,0,0,,,,,,,,,0,,,78,112
224480,note_on,0,0,0,,,,,,,,,0,,,90,112
224480,note_on,0,0,0,,,,,,,,,0,,,85,112
224480,note_on,9,0,1,,,,,,,,,0,,,54,112
224480,note_on,0,0,1,,,,,,,,,0,,,56,112
224480,note_on,0,0,1,,,,,,,,,0,,,61,112
224480,note_on,0,0,1,,,,,,,,,0,,,66,112
224480,note_on,0,0,0,,,,,,,,,0,,,80,112
224631,note_on,151,0,1,,,,,,,,,0,,,54,0
224631,note_on,0,0,0,,,,,,,,,0,,,90,0
224631,note_on,0,0,1,,,,,,,,,0,,,66,0
224631,note_on,0,0,1,,,,,,,,,0,,,61,0
224631,note_on,151,0,0,,,,,,,,,0,,,78,0
224631,note_on,0,0,0,,,,,,,,,0,,,80,0
224631,note_on,0,0,1,,,,,,,,,0,,,56,0
224631,note_on,0,0,0,,,,,,,,,0,,,85,0
224640,note_on,0,0,1,,,,,,,,,0,,,61,112
224640,note_on,9,0,1,,,,,,,,,0,,,54,112
224640,note_on,0,0,1,,,,,,,,,0,,,66,112
224640,note_on,0,0,1,,,,,,,,,0,,,57,112
224640,note_on,0,0,0,,,,,,,,,0,,,85,112
224640,note_on,0,0,0,,,,,,,,,0,,,90,112
224640,note_on,9,0,0,,,,,,,,,0,,,78,112
224640,note_on,0,0,0,,,,,,,,,0,,,81,112
224791,note_on,0,0,0,,,,,,,,,0,,,81,0
224791,note_on,0,0,0,,,,,,,,,0,,,85,0
224791,note_on,0,0,0,,,,,,,,,0,,,90,0
224791,note_on,0,0,1,,,,,,,,,0,,,61,0
224791,note_on,151,0,0,,,,,,,,,0,,,78,0
224791,note_on,0,0,1,,,,,,,,,0,,,57,0
224791,note_on,151,0,1,,,,,,,,,0,,,54,0
224791,note_on,0,0,1,,,,,,,,,0,,,66,0
224800,note_on,9,0,1,,,,,,,,,0,,,49,112
224800,set_tempo,9,1,0,,,,,,705882,,,,,,,
224800,note_on,0,0,1,,,,,,,,,0,,,61,112
224800,note_on,0,0,1,,,,,,,,,0,,,57,112
224800,note_on,0,0,0,,,,,,,,,0,,,85,112
224800,note_on,0,0,0,,,,,,,,,0,,,81,112
224800,note_on,0,0,0,,,,,,,,,0,,,73,112
224951,note_on,0,0,0,,,,,,,,,0,,,81,0
224951,note_on,151,0,0,,,,,,,,,0,,,73,0
224951,note_on,0,0,1,,,,,,,,,0,,,57,0
224951,note_on,0,0,1,,,,,,,,,0,,,61,0
224951,note_on,0,0,0,,,,,,,,,0,,,85,0
224951,note_on,151,0,1,,,,,,,,,0,,,49,0
224960,note_on,9,0,0,,,,,,,,,0,,,73,112
224960,note_on,9,0,1,,,,,,,,,0,,,49,112
224960,note_on,0,0,0,,,,,,,,,0,,,77,112
224960,note_on,0,0,0,,,,,,,,,0,,,81,112
224960,note_on,0,0,0,,,,,,,,,0,,,85,112
224960,note_on,0,0,1,,,,,,,,,0,,,57,112
224960,note_on,0,0,1,,,,,,,,,0,,,53,112
224960,note_on,0,0,1,,,,,,,,,0,,,61,112
225111,note_on,0,0,0,,,,,,,,,0,,,85,0
225111,note_on,151,0,0,,,,,,,,,0,,,73,0
225111,note_on,151,0,1,,,,,,,,,0,,,49,0
225111,note_on,0,0,0,,,,,,,,,0,,,81,0
225111,note_on,0,0,0,,,,,,,,,0,,,77,0
225111,note_on,0,0,1,,,,,,,,,0,,,57,0
225111,note_on,0,0,1,,,,,,,,,0,,,61,0
225111,note_on,0,0,1,,,,,,,,,0,,,53,0
225120,note_on,0,0,1,,,,,,,,,0,,,61,112
225120,note_on,0,0,1,,,,,,,,,0,,,54,112
225120,note_on,0,0,1,,,,,,,,,0,,,57,112
225120,note_on,9,0,0,,,,,,,,,0,,,73,112
225120,note_on,0,0,0,,,,,,,,,0,,,81,112
225120,note_on,0,0,0,,,,,,,,,0,,,78,112
225120,note_on,9,0,1,,,,,,,,,0,,,49,112
225120,note_on,0,0,0,,,,,,,,,0,,,85,112
225271,note_on,0,0,1,,,,,,,,,0,,,61,0
225271,note_on,0,0,1,,,,,,,,,0,,,57,0
225271,note_on,0,0,1,,,,,,,,,0,,,54,0
225271,note_on,0,0,0,,,,,,,,,0,,,85,0
225271,note_on,0,0,0,,,,,,,,,0,,,81,0
225271,note_on,151,0,0,,,,,,,,,0,,,73,0
225271,note_on,151,0,1,,,,,,,,,0,,,49,0
225271,note_on,0,0,0,,,,,,,,,0,,,78,0
225280,note_on,9,0,1,,,,,,,,,0,,,45,112
225280,note_on,0,0,1,,,,,,,,,0,,,54,112
225280,note_on,0,0,0,,,,,,,,,0,,,78,112
225280,note_on,0,0,0,,,,,,,,,0,,,81,112
225280,note_on,9,0,0,,,,,,,,,0,,,69,112
225280,note_on,0,0,1,,,,,,,,,0,,,57,112
225431,note_on,151,0,0,,,,,,,,,0,,,69,0
225431,note_on,0,0,1,,,,,,,,,0,,,57,0
225431,note_on,151,0,1,,,,,,,,,0,,,45,0
225431,note_on,0,0,1,,,,,,,,,0,,,54,0
225431,note_on,0,0,0,,,,,,,,,0,,,78,0
225431,note_on,0,0,0,,,,,,,,,0,,,81,0
225440,note_on,0,0,0,,,,,,,,,0,,,81,112
225440,note_on,0,0,1,,,,,,,,,0,,,57,112
225440,note_on,9,0,1,,,,,,,,,0,,,45,112
225440,note_on,0,0,1,,,,,,,,,0,,,49,112
225440,note_on,0,0,1,,,,,,,,,0,,,54,112
225440,note_on,0,0,0,,,,,,,,,0,,,78,112
225440,note_on,0,0,0,,,,,,,,,0,,,73,112
225440,note_on,9,0,0,,,,,,,,,0,,,69,112
225591,note_on,0,0,1,,,,,,,,,0,,,54,0
225591,note_on,151,0,0,,,,,,,,,0,,,69,0
225591,note_on,0,0,0,,,,,,,,,0,,,73,0
225591,note_on,0,0,0,,,,,,,,,0,,,81,0
225591,note_on,0,0,1,,,,,,,,,0,,,49,0
225591,note_on,151,0,1,,,,,,,,,0,,,45,0
225591,note_on,0,0,0,,,,,,,,,0,,,78,0
225591,note_on,0,0,1,,,,,,,,,0,,,57,0
225600,note_on,0,0,0,,,,,,,,,0,,,74,127
225600,note_on,9,0,1,,,,,,,,,0,,,45,127
225600,note_on,0,0,1,,,,,,,,,0,,,54,127
225600,note_on,0,0,1,,,,,,,,,0,,,57,127
225600,note_on,9,0,0,,,,,,,,,0,,,69,127
225600,note_on,0,0,0,,,,,,,,,0,,,81,127
225600,note_on,0,0,0,,,,,,,,,0,,,78,127
225600,note_on,0,0,1,,,,,,,,,0,,,50,127
225601,control_change,1,0,1,,,,,,,64,0,0,,,,
225602,control_change,1,0,1,,,,,,,64,127,0,,,,
225759,note_on,0,0,1,,,,,,,,,0,,,50,0
225759,note_on,157,0,1,,,,,,,,,0,,,45,0
225759,note_on,0,0,0,,,,,,,,,0,,,74,0
225759,note_on,0,0,1,,,,,,,,,0,,,57,0
225759,note_on,0,0,1,,,,,,,,,0,,,54,0
225759,note_on,0,0,0,,,,,,,,,0,,,81,0
225759,note_on,0,0,0,,,,,,,,,0,,,78,0
225759,note_on,159,0,0,,,,,,,,,0,,,69,0
225760,note_on,0,0,1,,,,,,,,,0,,,54,112
225760,note_on,0,0,1,,,,,,,,,0,,,50,112
225760,set_tempo,1,1,0,,,,,,666667,,,,,,,
225760,note_on,0,0,0,,,,,,,,,0,,,74,112
225760,note_on,0,0,0,,,,,,,,,0,,,78,112
225760,note_on,1,0,1,,,,,,,,,0,,,42,112
225760,note_on,0,0,0,,,,,,,,,0,,,66,112
225911,note_on,0,0,0,,,,,,,,,0,,,74,0
225911,note_on,0,0,1,,,,,,,,,0,,,50,0
225911,note_on,0,0,0,,,,,,,,,0,,,78,0
225911,note_on,151,0,1,,,,,,,,,0,,,42,0
225911,note_on,0,0,1,,,,,,,,,0,,,54,0
225911,note_on,151,0,0,,,,,,,,,0,,,66,0
225920,note_on,9,0,0,,,,,,,,,0,,,66,112
225920,note_on,0,0,1,,,,,,,,,0,,,44,112
225920,note_on,0,0,1,,,,,,,,,0,,,54,112
225920,note_on,9,0,1,,,,,,,,,0,,,42,112
225920,note_on,0,0,1,,,,,,,,,0,,,50,112
225920,note_on,0,0,0,,,,,,,,,0,,,68,112
225920,note_on,0,0,0,,,,,,,,,0,,,78,112
225920,note_on,0,0,0,,,,,,,,,0,,,74,112
226071,note_on,0,0,0,,,,,,,,,0,,,78,0
226071,note_on,0,0,1,,,,,,,,,0,,,44,0
226071,note_on,0,0,1,,,,,,,,,0,,,50,0
226071,note_on,0,0,1,,,,,,,,,0,,,54,0
226071,note_on,151,0,0,,,,,,,,,0,,,66,0
226071,note_on,0,0,0,,,,,,,,,0,,,74,0
226071,note_on,151,0,1,,,,,,,,,0,,,42,0
226071,note_on,0,0,0,,,,,,,,,0,,,68,0
226080,note_on,9,0,0,,,,,,,,,0,,,66,127
226080,note_on,9,0,1,,,,,,,,,0,,,42,127
226080,note_on,0,0,1,,,,,,,,,0,,,54,127
226080,note_on,0,0,1,,,,,,,,,0,,,50,127
226080,note_on,0,0,1,,,,,,,,,0,,,45,127
226080,note_on,0,0,0,,,,,,,,,0,,,78,127
226080,note_on,0,0,0,,,,,,,,,0,,,74,127
226080,note_on,0,0,0,,,,,,,,,0,,,69,127
226239,note_on,159,0,1,,,,,,,,,0,,,42,0
226239,note_on,159,0,0,,,,,,,,,0,,,66,0
226239,note_on,0,0,1,,,,,,,,,0,,,45,0
226239,note_on,0,0,0,,,,,,,,,0,,,78,0
226239,note_on,0,0,0,,,,,,,,,0,,,74,0
226239,note_on,0,0,0,,,,,,,,,0,,,69,0
226239,note_on,0,0,1,,,,,,,,,0,,,50,0
226239,note_on,0,0,1,,,,,,,,,0,,,54,0
226240,note_on,0,0,1,,,,,,,,,0,,,45,112
226240,set_tempo,1,1,0,,,,,,631579,,,,,,,
226240,note_on,0,0,1,,,,,,,,,0,,,50,112
226240,note_on,1,0,1,,,,,,,,,0,,,38,112
226240,note_on,0,0,0,,,,,,,,,0,,,62,112
226240,note_on,0,0,0,,,,,,,,,0,,,69,112
226240,note_on,0,0,0,,,,,,,,,0,,,74,112
226391,note_on,0,0,1,,,,,,,,,0,,,50,0
226391,note_on,151,0,1,,,,,,,,,0,,,38,0
226391,note_on,0,0,1,,,,,,,,,0,,,45,0
226391,note_on,0,0,0,,,,,,,,,0,,,69,0
226391,note_on,151,0,0,,,,,,,,,0,,,62,0
226391,note_on,0,0,0,,,,,,,,,0,,,74,0
226400,note_on,0,0,0,,,,,,,,,0,,,74,112
226400,note_on,0,0,1,,,,,,,,,0,,,41,112
226400,note_on,0,0,1,,,,,,,,,0,,,45,112
226400,note_on,0,0,1,,,,,,,,,0,,,50,112
226400,note_on,0,0,0,,,,,,,,,0,,,69,112
226400,note_on,9,0,0,,,,,,,,,0,,,62,112
226400,note_on,0,0,0,,,,,,,,,0,,,65,112
226400,note_on,9,0,1,,,,,,,,,0,,,38,112
226551,note_on,0,0,1,,,,,,,,,0,,,50,0
226551,note_on,0,0,1,,,,,,,,,0,,,45,0
226551,note_on,0,0,0,,,,,,,,,0,,,74,0
226551,note_on,0,0,0,,,,,,,,,0,,,69,0
226551,note_on,0,0,1,,,,,,,,,0,,,41,0
226551,note_on,151,0,0,,,,,,,,,0,,,62,0
226551,note_on,151,0,1,,,,,,,,,0,,,38,0
226551,note_on,0,0,0,,,,,,,,,0,,,65,0
226560,note_on,0,0,0,,,,,,,,,0,,,74,127
226560,note_on,0,0,1,,,,,,,,,0,,,50,127
226560,note_on,0,0,1,,,,,,,,,0,,,45,127
226560,note_on,0,0,0,,,,,,,,,0,,,66,127
226560,note_on,0,0,0,,,,,,,,,0,,,69,127
226560,note_on,9,0,0,,,,,,,,,0,,,62,127
226560,note_on,0,0,1,,,,,,,,,0,,,42,127
226560,note_on,9,0,1,,,,,,,,,0,,,38,127
226719,note_on,159,0,1,,,,,,,,,0,,,38,0
226719,note_on,0,0,0,,,,,,,,,0,,,74,0
226719,note_on,159,0,0,,,,,,,,,0,,,62,0
226719,note_on,0,0,0,,,,,,,,,0,,,66,0
226719,note_on,0,0,0,,,,,,,,,0,,,69,0
226719,note_on,0,0,1,,,,,,,,,0,,,42,0
226719,note_on,0,0,1,,,,,,,,,0,,,45,0
226719,note_on,0,0,1,,,,,,,,,0,,,50,0
226720,note_on,0,0,1,,,,,,,,,0,,,45,112
226720,note_on,1,0,0,,,,,,,,,0,,,57,112
226720,note_on,1,0,1,,,,,,,,,0,,,33,112
226720,note_on,0,0,1,,,,,,,,,0,,,42,112
226720,note_on,0,0,0,,,,,,,,,0,,,69,112
226720,note_on,0,0,0,,,,,,,,,0,,,66,112
226871,note_on,151,0,1,,,,,,,,,0,,,33,0
226871,note_on,0,0,1,,,,,,,,,0,,,45,0
226871,note_on,0,0,0,,,,,,,,,0,,,66,0
226871,note_on,0,0,0,,,,,,,,,0,,,69,0
226871,note_on,0,0,1,,,,,,,,,0,,,42,0
226871,note_on,151,0,0,,,,,,,,,0,,,57,0
226880,note_on,9,0,0,,,,,,,,,0,,,57,112
226880,note_on,0,0,1,,,,,,,,,0,,,37,112
226880,note_on,0,0,1,,,,,,,,,0,,,42,112
226880,note_on,0,0,0,,,,,,,,,0,,,69,112
226880,note_on,0,0,1,,,,,,,,,0,,,45,112
226880,note_on,0,0,0,,,,,,,,,0,,,66,112
226880,note_on,0,0,0,,,,,,,,,0,,,61,112
226880,note_on,9,0,1,,,,,,,,,0,,,33,112
227031,note_on,151,0,0,,,,,,,,,0,,,57,0
227031,note_on,0,0,1,,,,,,,,,0,,,37,0
227031,note_on,0,0,1,,,,,,,,,0,,,42,0
227031,note_on,0,0,0,,,,,,,,,0,,,69,0
227031,note_on,151,0,1,,,,,,,,,0,,,33,0
227031,note_on,0,0,0,,,,,,,,,0,,,66,0
227031,note_on,0,0,0,,,,,,,,,0,,,61,0
227031,note_on,0,0,1,,,,,,,,,0,,,45,0
227040,note_on,0,0,1,,,,,,,,,0,,,42,127
227040,note_on,0,0,0,,,,,,,,,0,,,66,127
227040,note_on,0,0,0,,,,,,,,,0,,,62,127
227040,note_on,9,0,0,,,,,,,,,0,,,57,127
227040,note_on,0,0,1,,,,,,,,,0,,,38,127
227040,note_on,0,0,0,,,,,,,,,0,,,69,127
227040,note_on,9,0,1,,,,,,,,,0,,,33,127
227040,note_on,0,0,1,,,,,,,,,0,,,45,127
227199,note_on,0,0,1,,,,,,,,,0,,,38,0
227199,note_on,0,0,0,,,,,,,,,0,,,62,0
227199,note_on,0,0,0,,,,,,,,,0,,,66,0
227199,note_on,0,0,1,,,,,,,,,0,,,42,0
227199,note_on,0,0,1,,,,,,,,,0,,,45,0
227199,note_on,159,0,1,,,,,,,,,0,,,33,0
227199,note_on,0,0,0,,,,,,,,,0,,,69,0
227199,note_on,159,0,0,,,,,,,,,0,,,57,0
227200,note_on,0,0,0,,,,,,,,,0,,,62,112
227200,note_on,0,0,0,,,,,,,,,0,,,66,112
227200,note_on,1,0,0,,,,,,,,,0,,,54,112
227200,note_on,0,0,0,,,,,,,,,0,,,57,112
227200,note_on,0,0,1,,,,,,,,,0,,,42,112
227200,note_on,0,0,1,,,,,,,,,0,,,38,112
227200,note_on,0,0,1,,,,,,,,,0,,,33,112
227200,note_on,1,0,1,,,,,,,,,0,,,30,112
227351,note_on,0,0,1,,,,,,,,,0,,,42,0
227351,note_on,0,0,1,,,,,,,,,0,,,38,0
227351,note_on,0,0,1,,,,,,,,,0,,,33,0
227351,note_on,151,0,0,,,,,,,,,0,,,54,0
227351,note_on,0,0,0,,,,,,,,,0,,,62,0
227351,note_on,0,0,0,,,,,,,,,0,,,66,0
227351,note_on,151,0,1,,,,,,,,,0,,,30,0
227351,note_on,0,0,0,,,,,,,,,0,,,57,0
227360,note_on,0,0,0,,,,,,,,,0,,,57,112
227360,note_on,0,0,0,,,,,,,,,0,,,62,112
227360,note_on,0,0,0,,,,,,,,,0,,,66,112
227360,note_on,0,0,1,,,,,,,,,0,,,38,112
227360,note_on,0,0,1,,,,,,,,,0,,,33,112
227360,note_on,9,0,1,,,,,,,,,0,,,30,112
227360,note_on,0,0,1,,,,,,,,,0,,,42,112
227360,note_on,9,0,0,,,,,,,,,0,,,54,112
227511,note_on,151,0,0,,,,,,,,,0,,,54,0
227511,note_on,151,0,1,,,,,,,,,0,,,30,0
227511,note_on,0,0,1,,,,,,,,,0,,,33,0
227511,note_on,0,0,0,,,,,,,,,0,,,66,0
227511,note_on,0,0,0,,,,,,,,,0,,,62,0
227511,note_on,0,0,0,,,,,,,,,0,,,57,0
227511,note_on,0,0,1,,,,,,,,,0,,,38,0
227511,note_on,0,0,1,,,,,,,,,0,,,42,0
227520,note_on,0,0,0,,,,,,,,,0,,,61,127
227520,note_on,9,0,1,,,,,,,,,0,,,32,126
227520,set_tempo,9,1,0,,,,,,705882,,,,,,,
227520,note_on,0,0,1,,,,,,,,,0,,,53,126
227520,note_on,0,0,1,,,,,,,,,0,,,56,126
227520,note_on,0,0,0,,,,,,,,,0,,,65,127
227521,control_change,1,0,1,,,,,,,64,0,0,,,,
227522,control_change,1,0,1,,,,,,,64,127,0,,,,
227539,note_on,17,0,1,,,,,,,,,0,,,37,126
227559,note_on,20,0,1,,,,,,,,,0,,,41,126
227579,note_on,20,0,1,,,,,,,,,0,,,44,126
227626,note_on,106,0,0,,,,,,,,,0,,,61,0
227626,note_on,0,0,0,,,,,,,,,0,,,65,0
227671,note_on,0,0,1,,,,,,,,,0,,,56,0
227671,note_on,92,0,1,,,,,,,,,0,,,53,0
227678,note_on,0,0,1,,,,,,,,,0,,,44,0
227678,note_on,7,0,1,,,,,,,,,0,,,37,0
227678,note_on,0,0,1,,,,,,,,,0,,,41,0
227679,note_on,1,0,1,,,,,,,,,0,,,32,0
227680,note_on,1,0,1,,,,,,,,,0,,,31,126
227680,note_on,54,0,0,,,,,,,,,0,,,61,126
227680,note_on,0,0,1,,,,,,,,,0,,,53,126
227680,note_on,0,0,1,,,,,,,,,0,,,56,126
227680,note_on,0,0,1,,,,,,,,,0,,,43,126
227680,note_on,0,0,0,,,,,,,,,0,,,65,126
227831,note_on,151,0,0,,,,,,,,,0,,,61,0
227831,note_on,0,0,1,,,,,,,,,0,,,56,0
227831,note_on,0,0,0,,,,,,,,,0,,,65,0
227831,note_on,151,0,1,,,,,,,,,0,,,31,0
227831,note_on,0,0,1,,,,,,,,,0,,,43,0
227831,note_on,0,0,1,,,,,,,,,0,,,53,0
227840,note_on,0,0,1,,,,,,,,,0,,,44,126
227840,note_on,0,0,1,,,,,,,,,0,,,53,126
227840,note_on,0,0,1,,,,,,,,,0,,,56,126
227840,note_on,9,0,1,,,,,,,,,0,,,32,126
227840,note_on,9,0,0,,,,,,,,,0,,,61,126
227840,note_on,0,0,0,,,,,,,,,0,,,65,126
227991,note_on,0,0,1,,,,,,,,,0,,,56,0
227991,note_on,151,0,0,,,,,,,,,0,,,61,0
227991,note_on,151,0,1,,,,,,,,,0,,,32,0
227991,note_on,0,0,1,,,,,,,,,0,,,53,0
227991,note_on,0,0,1,,,,,,,,,0,,,44,0
227991,note_on,0,0,0,,,,,,,,,0,,,65,0
228000,note_on,9,0,0,,,,,,,,,0,,,61,126
228000,note_on,0,0,1,,,,,,,,,0,,,56,126
228000,note_on,0,0,1,,,,,,,,,0,,,53,126
228000,note_on,0,0,1,,,,,,,,,0,,,45,126
228000,note_on,9,0,1,,,,,,,,,0,,,33,126
228000,note_on,0,0,0,,,,,,,,,0,,,65,126
228151,note_on,0,0,0,,,,,,,,,0,,,65,0
228151,note_on,151,0,0,,,,,,,,,0,,,61,0
228151,note_on,0,0,1,,,,,,,,,0,,,56,0
228151,note_on,0,0,1,,,,,,,,,0,,,53,0
228151,note_on,0,0,1,,,,,,,,,0,,,45,0
228151,note_on,151,0,1,,,,,,,,,0,,,33,0
228160,note_on,0,0,1,,,,,,,,,0,,,46,126
228160,note_on,0,0,1,,,,,,,,,0,,,53,126
228160,note_on,9,0,0,,,,,,,,,0,,,61,126
228160,note_on,0,0,1,,,,,,,,,0,,,56,126
228160,note_on,9,0,1,,,,,,,,,0,,,34,126
228160,note_on,0,0,0,,,,,,,,,0,,,65,126
228311,note_on,151,0,1,,,,,,,,,0,,,34,0
228311,note_on,0,0,0,,,,,,,,,0,,,65,0
228311,note_on,0,0,1,,,,,,,,,0,,,56,0
228311,note_on,0,0,1,,,,,,,,,0,,,53,0
228311,note_on,0,0,1,,,,,,,,,0,,,46,0
228311,note_on,151,0,0,,,,,,,,,0,,,61,0
228320,note_on,0,0,1,,,,,,,,,0,,,47,126
228320,note_on,0,0,1,,,,,,,,,0,,,53,126
228320,note_on,9,0,0,,,,,,,,,0,,,61,126
228320,note_on,0,0,0,,,,,,,,,0,,,65,126
228320,note_on,0,0,1,,,,,,,,,0,,,56,126
228320,note_on,9,0,1,,,,,,,,,0,,,35,126
228471,note_on,0,0,1,,,,,,,,,0,,,53,0
228471,note_on,0,0,1,,,,,,,,,0,,,56,0
228471,note_on,0,0,1,,,,,,,,,0,,,47,0
228471,note_on,151,0,1,,,,,,,,,0,,,35,0
228471,note_on,0,0,0,,,,,,,,,0,,,65,0
228471,note_on,151,0,0,,,,,,,,,0,,,61,0
228480,note_on,0,0,0,,,,,,,,,0,,,65,127
228480,note_on,9,0,0,,,,,,,,,0,,,61,127
228480,note_on,9,0,1,,,,,,,,,0,,,36,126
228480,note_on,0,0,1,,,,,,,,,0,,,58,126
228480,note_on,0,0,1,,,,,,,,,0,,,55,126
228480,note_on,0,0,1,,,,,,,,,0,,,53,126
228480,note_on,0,0,1,,,,,,,,,0,,,48,126
228586,note_on,106,0,0,,,,,,,,,0,,,61,0
228586,note_on,0,0,0,,,,,,,,,0,,,65,0
228631,note_on,0,0,1,,,,,,,,,0,,,53,0
228631,note_on,0,0,1,,,,,,,,,0,,,55,0
228631,note_on,0,0,1,,,,,,,,,0,,,48,0
228631,note_on,0,0,1,,,,,,,,,0,,,58,0
228631,note_on,151,0,1,,,,,,,,,0,,,36,0
228640,note_on,0,0,1,,,,,,,,,0,,,49,126
228640,note_on,0,0,1,,,,,,,,,0,,,58,126
228640,note_on,0,0,1,,,,,,,,,0,,,55,126
228640,note_on,9,0,1,,,,,,,,,0,,,37,126
228640,note_on,54,0,0,,,,,,,,,0,,,61,126
228640,note_on,0,0,0,,,,,,,,,0,,,65,126
228640,note_on,0,0,1,,,,,,,,,0,,,53,126
228791,note_on,0,0,1,,,,,,,,,0,,,53,0
228791,note_on,0,0,0,,,,,,,,,0,,,65,0
228791,note_on,0,0,1,,,,,,,,,0,,,55,0
228791,note_on,151,0,0,,,,,,,,,0,,,61,0
228791,note_on,0,0,1,,,,,,,,,0,,,58,0
228791,note_on,0,0,1,,,,,,,,,0,,,49,0
228791,note_on,151,0,1,,,,,,,,,0,,,37,0
228800,note_on,9,0,1,,,,,,,,,0,,,36,126
228800,note_on,0,0,0,,,,,,,,,0,,,65,126
228800,note_on,0,0,0,,,,,,,,,0,,,61,126
228800,note_on,0,0,1,,,,,,,,,0,,,55,126
228800,set_tempo,9,1,0,,,,,,750000,,,,,,,
228800,note_on,0,0,1,,,,,,,,,0,,,58,126
228800,note_on,0,0,1,,,,,,,,,0,,,53,126
228800,note_on,0,0,1,,,,,,,,,0,,,48,126
228951,note_on,0,0,1,,,,,,,,,0,,,53,0
228951,note_on,0,0,1,,,,,,,,,0,,,55,0
228951,note_on,0,0,1,,,,,,,,,0,,,48,0
228951,note_on,0,0,1,,,,,,,,,0,,,58,0
228951,note_on,151,0,1,,,,,,,,,0,,,36,0
228951,note_on,0,0,0,,,,,,,,,0,,,65,0
228951,note_on,151,0,0,,,,,,,,,0,,,61,0
228960,note_on,9,0,1,,,,,,,,,0,,,35,126
228960,note_on,0,0,1,,,,,,,,,0,,,55,126
228960,note_on,0,0,1,,,,,,,,,0,,,53,126
228960,note_on,0,0,1,,,,,,,,,0,,,47,126
228960,note_on,9,0,0,,,,,,,,,0,,,61,126
228960,note_on,0,0,0,,,,,,,,,0,,,65,126
228960,note_on,0,0,1,,,,,,,,,0,,,58,126
229111,note_on,0,0,1,,,,,,,,,0,,,55,0
229111,note_on,0,0,1,,,,,,,,,0,,,58,0
229111,note_on,0,0,1,,,,,,,,,0,,,47,0
229111,note_on,0,0,1,,,,,,,,,0,,,53,0
229111,note_on,151,0,1,,,,,,,,,0,,,35,0
229111,note_on,151,0,0,,,,,,,,,0,,,61,0
229111,note_on,0,0,0,,,,,,,,,0,,,65,0
229120,note_on,0,0,1,,,,,,,,,0,,,53,126
229120,note_on,0,0,1,,,,,,,,,0,,,46,126
229120,note_on,0,0,1,,,,,,,,,0,,,55,126
229120,note_on,0,0,1,,,,,,,,,0,,,58,126
229120,note_on,9,0,1,,,,,,,,,0,,,34,126
229120,note_on,9,0,0,,,,,,,,,0,,,61,126
229120,note_on,0,0,0,,,,,,,,,0,,,65,126
229271,note_on,0,0,0,,,,,,,,,0,,,65,0
229271,note_on,151,0,1,,,,,,,,,0,,,34,0
229271,note_on,0,0,1,,,,,,,,,0,,,53,0
229271,note_on,0,0,1,,,,,,,,,0,,,55,0
229271,note_on,0,0,1,,,,,,,,,0,,,58,0
229271,note_on,151,0,0,,,,,,,,,0,,,61,0
229271,note_on,0,0,1,,,,,,,,,0,,,46,0
229280,note_on,9,0,1,,,,,,,,,0,,,33,126
229280,note_on,0,0,0,,,,,,,,,0,,,65,126
229280,note_on,0,0,1,,,,,,,,,0,,,45,126
229280,note_on,0,0,1,,,,,,,,,0,,,53,126
229280,note_on,0,0,1,,,,,,,,,0,,,55,126
229280,note_on,0,0,1,,,,,,,,,0,,,58,126
229280,note_on,9,0,0,,,,,,,,,0,,,61,126
229431,note_on,0,0,1,,,,,,,,,0,,,58,0
229431,note_on,0,0,0,,,,,,,,,0,,,65,0
229431,note_on,0,0,1,,,,,,,,,0,,,45,0
229431,note_on,0,0,1,,,,,,,,,0,,,53,0
229431,note_on,0,0,1,,,,,,,,,0,,,55,0
229431,note_on,151,0,0,,,,,,,,,0,,,61,0
229431,note_on,151,0,1,,,,,,,,,0,,,33,0
229440,note_on,0,0,1,,,,,,,,,0,,,57,126
229440,note_on,9,0,1,,,,,,,,,0,,,32,126
229440,note_on,0,0,1,,,,,,,,,0,,,54,126
229440,note_on,0,0,1,,,,,,,,,0,,,44,126
229440,note_on,0,0,0,,,,,,,,,0,,,65,127
229440,note_on,9,0,0,,,,,,,,,0,,,60,127
229441,control_change,1,0,1,,,,,,,64,0,0,,,,
229442,control_change,1,0,1,,,,,,,64,127,0,,,,
229546,note_on,106,0,0,,,,,,,,,0,,,60,0
229546,note_on,0,0,0,,,,,,,,,0,,,65,0
229591,note_on,149,0,1,,,,,,,,,0,,,32,0
229591,note_on,0,0,1,,,,,,,,,0,,,54,0
229591,note_on,0,0,1,,,,,,,,,0,,,57,0
229591,note_on,0,0,1,,,,,,,,,0,,,44,0
229600,note_on,0,0,0,,,,,,,,,0,,,65,126
229600,note_on,9,0,1,,,,,,,,,0,,,32,126
229600,note_on,0,0,1,,,,,,,,,0,,,44,126
229600,note_on,0,0,1,,,,,,,,,0,,,54,126
229600,note_on,0,0,1,,,,,,,,,0,,,57,126
229600,note_on,54,0,0,,,,,,,,,0,,,60,126
229751,note_on,0,0,1,,,,,,,,,0,,,54,0
229751,note_on,151,0,1,,,,,,,,,0,,,32,0
229751,note_on,0,0,1,,,,,,,,,0,,,57,0
229751,note_on,151,0,0,,,,,,,,,0,,,60,0
229751,note_on,0,0,0,,,,,,,,,0,,,65,0
229751,note_on,0,0,1,,,,,,,,,0,,,44,0
229760,note_on,9,0,0,,,,,,,,,0,,,60,126
229760,note_on,0,0,0,,,,,,,,,0,,,65,126
229760,note_on,0,0,1,,,,,,,,,0,,,44,126
229760,note_on,9,0,1,,,,,,,,,0,,,32,126
229760,note_on,0,0,1,,,,,,,,,0,,,57,126
229760,note_on,0,0,1,,,,,,,,,0,,,54,126
229911,note_on,0,0,1,,,,,,,,,0,,,54,0
229911,note_on,0,0,1,,,,,,,,,0,,,57,0
229911,note_on,0,0,0,,,,,,,,,0,,,65,0
229911,note_on,151,0,1,,,,,,,,,0,,,32,0
229911,note_on,0,0,1,,,,,,,,,0,,,44,0
229911,note_on,151,0,0,,,,,,,,,0,,,60,0
229920,note_on,9,0,1,,,,,,,,,0,,,32,126
229920,note_on,0,0,1,,,,,,,,,0,,,57,126
229920,note_on,0,0,0,,,,,,,,,0,,,65,126
229920,note_on,0,0,0,,,,,,,,,0,,,60,126
229920,set_tempo,9,1,0,,,,,,800000,,,,,,,
229920,note_on,0,0,1,,,,,,,,,0,,,54,126
229920,note_on,0,0,1,,,,,,,,,0,,,44,126
230071,note_on,0,0,0,,,,,,,,,0,,,65,0
230071,note_on,0,0,1,,,,,,,,,0,,,44,0
230071,note_on,0,0,1,,,,,,,,,0,,,54,0
230071,note_on,0,0,1,,,,,,,,,0,,,57,0
230071,note_on,151,0,1,,,,,,,,,0,,,32,0
230071,note_on,151,0,0,,,,,,,,,0,,,60,0
230080,note_on,9,0,0,,,,,,,,,0,,,60,126
230080,note_on,9,0,1,,,,,,,,,0,,,32,126
230080,note_on,0,0,1,,,,,,,,,0,,,57,126
230080,note_on,0,0,1,,,,,,,,,0,,,54,126
230080,note_on,0,0,1,,,,,,,,,0,,,44,126
230080,note_on,0,0,0,,,,,,,,,0,,,65,126
230231,note_on,0,0,1,,,,,,,,,0,,,44,0
230231,note_on,0,0,1,,,,,,,,,0,,,54,0
230231,note_on,0,0,1,,,,,,,,,0,,,57,0
230231,note_on,0,0,0,,,,,,,,,0,,,65,0
230231,note_on,151,0,1,,,,,,,,,0,,,32,0
230231,note_on,151,0,0,,,,,,,,,0,,,60,0
230240,note_on,0,0,1,,,,,,,,,0,,,44,126
230240,note_on,9,0,0,,,,,,,,,0,,,60,126
230240,note_on,0,0,1,,,,,,,,,0,,,54,126
230240,note_on,0,0,1,,,,,,,,,0,,,57,126
230240,note_on,0,0,0,,,,,,,,,0,,,65,126
230240,note_on,9,0,1,,,,,,,,,0,,,32,126
230391,note_on,151,0,1,,,,,,,,,0,,,32,0
230391,note_on,151,0,0,,,,,,,,,0,,,60,0
230391,note_on,0,0,1,,,,,,,,,0,,,54,0
230391,note_on,0,0,1,,,,,,,,,0,,,57,0
230391,note_on,0,0,1,,,,,,,,,0,,,44,0
230391,note_on,0,0,0,,,,,,,,,0,,,65,0
230400,note_on,0,0,0,,,,,,,,,0,,,65,127
230400,note_on,0,0,1,,,,,,,,,0,,,56,126
230400,note_on,0,0,1,,,,,,,,,0,,,44,126
230400,note_on,9,0,0,,,,,,,,,0,,,60,127
230400,note_on,0,0,1,,,,,,,,,0,,,36,126
230400,note_on,0,0,1,,,,,,,,,0,,,42,126
230400,note_on,9,0,1,,,,,,,,,0,,,32,126
230400,note_on,0,0,1,,,,,,,,,0,,,54,126
230506,note_on,0,0,0,,,,,,,,,0,,,65,0
230506,note_on,106,0,0,,,,,,,,,0,,,60,0
230551,note_on,151,0,1,,,,,,,,,0,,,32,0
230551,note_on,0,0,1,,,,,,,,,0,,,44,0
230551,note_on,0,0,1,,,,,,,,,0,,,54,0
230551,note_on,0,0,1,,,,,,,,,0,,,56,0
230551,note_on,0,0,1,,,,,,,,,0,,,42,0
230551,note_on,0,0,1,,,,,,,,,0,,,36,0
230560,note_on,0,0,1,,,,,,,,,0,,,54,126
230560,note_on,0,0,1,,,,,,,,,0,,,56,126
230560,note_on,9,0,1,,,,,,,,,0,,,32,126
230560,note_on,0,0,1,,,,,,,,,0,,,36,126
230560,note_on,0,0,1,,,,,,,,,0,,,42,126
230560,note_on,0,0,1,,,,,,,,,0,,,44,126
230560,note_on,0,0,0,,,,,,,,,0,,,65,126
230560,note_on,54,0,0,,,,,,,,,0,,,60,126
230711,note_on,151,0,0,,,,,,,,,0,,,60,0
230711,note_on,151,0,1,,,,,,,,,0,,,32,0
230711,note_on,0,0,1,,,,,,,,,0,,,36,0
230711,note_on,0,0,1,,,,,,,,,0,,,56,0
230711,note_on,0,0,1,,,,,,,,,0,,,54,0
230711,note_on,0,0,1,,,,,,,,,0,,,44,0
230711,note_on,0,0,1,,,,,,,,,0,,,42,0
230711,note_on,0,0,0,,,,,,,,,0,,,65,0
230720,note_on,9,0,1,,,,,,,,,0,,,32,126
230720,note_on,0,0,0,,,,,,,,,0,,,65,126
230720,note_on,9,0,0,,,,,,,,,0,,,60,126
230720,note_on,0,0,1,,,,,,,,,0,,,36,126
230720,note_on,0,0,1,,,,,,,,,0,,,54,126
230720,note_on,0,0,1,,,,,,,,,0,,,44,126
230720,note_on,0,0,1,,,,,,,,,0,,,42,126
230720,note_on,0,0,1,,,,,,,,,0,,,56,126
230871,note_on,0,0,0,,,,,,,,,0,,,65,0
230871,note_on,0,0,1,,,,,,,,,0,,,42,0
230871,note_on,151,0,1,,,,,,,,,0,,,32,0
230871,note_on,151,0,0,,,,,,,,,0,,,60,0
230871,note_on,0,0,1,,,,,,,,,0,,,54,0
230871,note_on,0,0,1,,,,,,,,,0,,,44,0
230871,note_on,0,0,1,,,,,,,,,0,,,36,0
230871,note_on,0,0,1,,,,,,,,,0,,,56,0
230880,note_on,9,0,1,,,,,,,,,0,,,32,126
230880,note_on,0,0,1,,,,,,,,,0,,,44,126
230880,note_on,0,0,0,,,,,,,,,0,,,65,126
230880,note_on,0,0,1,,,,,,,,,0,,,56,126
230880,set_tempo,9,1,0,,,,,,857143,,,,,,,
230880,note_on,0,0,1,,,,,,,,,0,,,42,126
230880,note_on,0,0,1,,,,,,,,,0,,,54,126
230880,note_on,0,0,0,,,,,,,,,0,,,60,126
230880,note_on,0,0,1,,,,,,,,,0,,,36,126
231031,note_on,151,0,1,,,,,,,,,0,,,32,0
231031,note_on,0,0,0,,,,,,,,,0,,,65,0
231031,note_on,0,0,1,,,,,,,,,0,,,36,0
231031,note_on,0,0,1,,,,,,,,,0,,,42,0
231031,note_on,0,0,1,,,,,,,,,0,,,44,0
231031,note_on,0,0,1,,,,,,,,,0,,,54,0
231031,note_on,0,0,1,,,,,,,,,0,,,56,0
231031,note_on,151,0,0,,,,,,,,,0,,,60,0
231040,note_on,9,0,1,,,,,,,,,0,,,32,126
231040,set_tempo,9,1,0,,,,,,1000000,,,,,,,
231040,note_on,0,0,1,,,,,,,,,0,,,42,126
231040,note_on,0,0,1,,,,,,,,,0,,,54,126
231040,note_on,0,0,1,,,,,,,,,0,,,44,126
231040,note_on,0,0,1,,,,,,,,,0,,,56,126
231040,note_on,0,0,1,,,,,,,,,0,,,36,126
231040,note_on,0,0,0,,,,,,,,,0,,,60,126
231040,note_on,0,0,0,,,,,,,,,0,,,65,126
231191,note_on,0,0,1,,,,,,,,,0,,,56,0
231191,note_on,0,0,0,,,,,,,,,0,,,65,0
231191,note_on,151,0,0,,,,,,,,,0,,,60,0
231191,note_on,0,0,1,,,,,,,,,0,,,54,0
231191,note_on,151,0,1,,,,,,,,,0,,,32,0
231191,note_on,0,0,1,,,,,,,,,0,,,44,0
231191,note_on,0,0,1,,,,,,,,,0,,,36,0
231191,note_on,0,0,1,,,,,,,,,0,,,42,0
231200,note_on,0,0,1,,,,,,,,,0,,,36,126
231200,note_on,0,0,1,,,,,,,,,0,,,56,126
231200,note_on,0,0,1,,,,,,,,,0,,,54,126
231200,note_on,0,0,0,,,,,,,,,0,,,65,126
231200,set_tempo,9,1,0,,,,,,1500000,,,,,,,
231200,note_on,0,0,1,,,,,,,,,0,,,44,126
231200,note_on,0,0,0,,,,,,,,,0,,,60,126
231200,note_on,9,0,1,,,,,,,,,0,,,32,126
231200,note_on,0,0,1,,,,,,,,,0,,,42,126
231351,note_on,0,0,1,,,,,,,,,0,,,42,0
231351,note_on,0,0,1,,,,,,,,,0,,,44,0
231351,note_on,0,0,1,,,,,,,,,0,,,54,0
231351,note_on,0,0,1,,,,,,,,,0,,,36,0
231351,note_on,151,0,0,,,,,,,,,0,,,60,0
231351,note_on,0,0,0,,,,,,,,,0,,,65,0
231351,note_on,151,0,1,,,,,,,,,0,,,32,0
231351,note_on,0,0,1,,,,,,,,,0,,,56,0
231360,note_on,0,0,1,,,,,,,,,0,,,37,126
231360,note_on,0,0,0,,,,,,,,,0,,,61,126
231360,set_tempo,9,1,0,,,,,,1000000,,,,,,,
231360,note_on,0,0,1,,,,,,,,,0,,,56,126
231360,note_on,9,0,1,,,,,,,,,0,,,25,126
231360,note_on,0,0,1,,,,,,,,,0,,,53,126
231361,control_change,1,0,1,,,,,,,64,0,0,,,,
231362,control_change,1,0,1,,,,,,,64,127,0,,,,
231438,note_on,0,0,1,,,,,,,,,0,,,37,0
231438,note_on,76,0,1,,,,,,,,,0,,,25,0
231438,note_on,78,0,0,,,,,,,,,0,,,61,0
231587,note_on,149,0,1,,,,,,,,,0,,,53,0
231587,note_on,0,0,1,,,,,,,,,0,,,56,0
231600,set_tempo,162,1,0,,,,,,631579,,,,,,,
231600,note_on,0,0,0,,,,,,,,,0,,,65,126
231600,note_on,0,0,0,,,,,,,,,0,,,68,126
231600,note_on,0,0,0,,,,,,,,,0,,,73,126
231600,note_on,0,0,0,,,,,,,,,0,,,77,126
231601,control_change,14,0,1,,,,,,,64,0,0,,,,
231827,note_on,0,0,0,,,,,,,,,0,,,77,0
231827,note_on,227,0,0,,,,,,,,,0,,,65,0
231827,note_on,0,0,0,,,,,,,,,0,,,73,0
231827,note_on,0,0,0,,,,,,,,,0,,,68,0
231840,note_on,0,0,0,,,,,,,,,0,,,65,126
231840,note_on,239,0,1,,,,,,,,,0,,,44,112
231840,note_on,0,0,1,,,,,,,,,0,,,49,112
231840,note_on,0,0,0,,,,,,,,,0,,,68,126
231840,note_on,13,0,0,,,,,,,,,0,,,61,126
231840,note_on,0,0,1,,,,,,,,,0,,,56,112
231840,note_on,0,0,1,,,,,,,,,0,,,53,112
231840,note_on,0,0,0,,,,,,,,,0,,,73,126
231842,control_change,2,0,1,,,,,,,64,127,0,,,,
231991,note_on,0,0,1,,,,,,,,,0,,,49,0
231991,note_on,149,0,1,,,,,,,,,0,,,44,0
231991,note_on,0,0,1,,,,,,,,,0,,,56,0
231991,note_on,0,0,1,,,,,,,,,0,,,53,0
232000,note_on,9,0,1,,,,,,,,,0,,,44,112
232000,note_on,0,0,1,,,,,,,,,0,,,56,112
232000,note_on,0,0,1,,,,,,,,,0,,,53,112
232000,note_on,0,0,1,,,,,,,,,0,,,49,112
232067,note_on,0,0,0,,,,,,,,,0,,,65,0
232067,note_on,0,0,0,,,,,,,,,0,,,73,0
232067,note_on,227,0,0,,,,,,,,,0,,,61,0
232067,note_on,0,0,0,,,,,,,,,0,,,68,0
232080,note_on,0,0,0,,,,,,,,,0,,,73,126
232080,note_on,0,0,0,,,,,,,,,0,,,77,126
232080,note_on,13,0,0,,,,,,,,,0,,,65,126
232080,note_on,0,0,0,,,,,,,,,0,,,68,126
232151,note_on,151,0,1,,,,,,,,,0,,,44,0
232151,note_on,0,0,1,,,,,,,,,0,,,49,0
232151,note_on,0,0,1,,,,,,,,,0,,,53,0
232151,note_on,0,0,1,,,,,,,,,0,,,56,0
232160,note_on,0,0,1,,,,,,,,,0,,,49,112
232160,note_on,0,0,1,,,,,,,,,0,,,53,112
232160,note_on,0,0,1,,,,,,,,,0,,,56,112
232160,note_on,9,0,1,,,,,,,,,0,,,44,112
232307,note_on,0,0,0,,,,,,,,,0,,,77,0
232307,note_on,227,0,0,,,,,,,,,0,,,65,0
232307,note_on,0,0,0,,,,,,,,,0,,,73,0
232307,note_on,0,0,0,,,,,,,,,0,,,68,0
232311,note_on,0,0,1,,,,,,,,,0,,,49,0
232311,note_on,0,0,1,,,,,,,,,0,,,53,0
232311,note_on,0,0,1,,,,,,,,,0,,,56,0
232311,note_on,151,0,1,,,,,,,,,0,,,44,0
232320,note_on,0,0,0,,,,,,,,,0,,,73,126
232320,note_on,0,0,1,,,,,,,,,0,,,56,112
232320,note_on,9,0,1,,,,,,,,,0,,,44,112
232320,note_on,0,0,0,,,,,,,,,0,,,77,126
232320,note_on,0,0,1,,,,,,,,,0,,,53,112
232320,note_on,0,0,1,,,,,,,,,0,,,49,112
232320,note_on,13,0,0,,,,,,,,,0,,,68,126
232320,note_on,0,0,0,,,,,,,,,0,,,80,126
232471,note_on,151,0,1,,,,,,,,,0,,,44,0
232471,note_on,0,0,1,,,,,,,,,0,,,56,0
232471,note_on,0,0,1,,,,,,,,,0,,,53,0
232471,note_on,0,0,1,,,,,,,,,0,,,49,0
232480,note_on,0,0,1,,,,,,,,,0,,,56,112
232480,note_on,0,0,1,,,,,,,,,0,,,53,112
232480,note_on,0,0,1,,,,,,,,,0,,,49,112
232480,note_on,9,0,1,,,,,,,,,0,,,44,112
232547,note_on,0,0,0,,,,,,,,,0,,,77,0
232547,note_on,0,0,0,,,,,,,,,0,,,80,0
232547,note_on,227,0,0,,,,,,,,,0,,,68,0
232547,note_on,0,0,0,,,,,,,,,0,,,73,0
232560,note_on,13,0,0,,,,,,,,,0,,,70,126
232560,note_on,0,0,0,,,,,,,,,0,,,82,126
232560,note_on,0,0,0,,,,,,,,,0,,,73,126
232560,note_on,0,0,0,,,,,,,,,0,,,77,126
232631,note_on,0,0,1,,,,,,,,,0,,,49,0
232631,note_on,0,0,1,,,,,,,,,0,,,53,0
232631,note_on,0,0,1,,,,,,,,,0,,,56,0
232631,note_on,151,0,1,,,,,,,,,0,,,44,0
232640,note_on,9,0,1,,,,,,,,,0,,,44,112
232640,note_on,0,0,1,,,,,,,,,0,,,56,112
232640,note_on,0,0,1,,,,,,,,,0,,,53,112
232640,note_on,0,0,1,,,,,,,,,0,,,49,112
232787,note_on,0,0,0,,,,,,,,,0,,,82,0
232787,note_on,227,0,0,,,,,,,,,0,,,70,0
232787,note_on,0,0,0,,,,,,,,,0,,,77,0
232787,note_on,0,0,0,,,,,,,,,0,,,73,0
232791,note_on,151,0,1,,,,,,,,,0,,,44,0
232791,note_on,0,0,1,,,,,,,,,0,,,49,0
232791,note_on,0,0,1,,,,,,,,,0,,,53,0
232791,note_on,0,0,1,,,,,,,,,0,,,56,0
232800,note_on,9,0,1,,,,,,,,,0,,,44,112
232800,note_on,0,0,1,,,,,,,,,0,,,49,112
232800,note_on,13,0,0,,,,,,,,,0,,,68,126
232800,note_on,0,0,1,,,,,,,,,0,,,56,112
232800,note_on,0,0,0,,,,,,,,,0,,,80,126
232800,note_on,0,0,0,,,,,,,,,0,,,77,126
232800,note_on,0,0,0,,,,,,,,,0,,,73,126
232800,note_on,0,0,1,,,,,,,,,0,,,53,112
233027,note_on,227,0,1,,,,,,,,,0,,,44,0
233027,note_on,227,0,0,,,,,,,,,0,,,68,0
233027,note_on,0,0,1,,,,,,,,,0,,,56,0
233027,note_on,0,0,1,,,,,,,,,0,,,53,0
233027,note_on,0,0,0,,,,,,,,,0,,,80,0
233027,note_on,0,0,0,,,,,,,,,0,,,77,0
233027,note_on,0,0,0,,,,,,,,,0,,,73,0
233027,note_on,0,0,1,,,,,,,,,0,,,49,0
233040,note_on,13,0,0,,,,,,,,,0,,,65,126
233040,note_on,0,0,0,,,,,,,,,0,,,77,126
233040,note_on,0,0,0,,,,,,,,,0,,,68,126
233040,note_on,0,0,0,,,,,,,,,0,,,73,126
233267,note_on,0,0,0,,,,,,,,,0,,,77,0
233267,note_on,227,0,0,,,,,,,,,0,,,65,0
233267,note_on,0,0,0,,,,,,,,,0,,,73,0
233267,note_on,0,0,0,,,,,,,,,0,,,68,0
233280,note_on,13,0,0,,,,,,,,,0,,,61,126
233280,note_on,0,0,1,,,,,,,,,0,,,37,112
233280,note_on,0,0,0,,,,,,,,,0,,,65,126
233280,note_on,0,0,0,,,,,,,,,0,,,68,126
233280,note_on,0,0,0,,,,,,,,,0,,,73,126
233280,note_on,253,0,1,,,,,,,,,0,,,25,112
233281,control_change,1,0,1,,,,,,,64,0,0,,,,
233282,control_change,1,0,1,,,,,,,64,127,0,,,,
233358,note_on,0,0,1,,,,,,,,,0,,,37,0
233358,note_on,76,0,1,,,,,,,,,0,,,25,0
233507,note_on,0,0,0,,,,,,,,,0,,,73,0
233507,note_on,227,0,0,,,,,,,,,0,,,61,0
233507,note_on,0,0,0,,,,,,,,,0,,,68,0
233507,note_on,0,0,0,,,,,,,,,0,,,65,0
233520,note_on,0,0,0,,,,,,,,,0,,,77,126
233520,note_on,0,0,0,,,,,,,,,0,,,68,126
233520,note_on,13,0,0,,,,,,,,,0,,,65,126
233520,note_on,0,0,0,,,,,,,,,0,,,73,126
233747,note_on,0,0,0,,,,,,,,,0,,,73,0
233747,note_on,227,0,0,,,,,,,,,0,,,65,0
233747,note_on,0,0,0,,,,,,,,,0,,,77,0
233747,note_on,0,0,0,,,,,,,,,0,,,68,0
233760,note_on,0,0,0,,,,,,,,,0,,,77,126
233760,note_on,13,0,0,,,,,,,,,0,,,68,126
233760,note_on,0,0,0,,,,,,,,,0,,,80,126
233760,note_on,0,0,1,,,,,,,,,0,,,49,112
233760,note_on,0,0,1,,,,,,,,,0,,,53,112
233760,note_on,402,0,1,,,,,,,,,0,,,44,112
233760,note_on,0,0,0,,,,,,,,,0,,,73,126
233760,note_on,0,0,1,,,,,,,,,0,,,56,112
233911,note_on,0,0,1,,,,,,,,,0,,,49,0
233911,note_on,0,0,1,,,,,,,,,0,,,53,0
233911,note_on,151,0,1,,,,,,,,,0,,,44,0
233911,note_on,0,0,1,,,,,,,,,0,,,56,0
233920,note_on,9,0,1,,,,,,,,,0,,,44,112
233920,note_on,0,0,1,,,,,,,,,0,,,49,112
233920,note_on,0,0,1,,,,,,,,,0,,,56,112
233920,note_on,0,0,1,,,,,,,,,0,,,53,112
233987,note_on,0,0,0,,,,,,,,,0,,,73,0
233987,note_on,0,0,0,,,,,,,,,0,,,80,0
233987,note_on,0,0,0,,,,,,,,,0,,,77,0
233987,note_on,227,0,0,,,,,,,,,0,,,68,0
234000,note_on,13,0,0,,,,,,,,,0,,,70,126
234000,note_on,0,0,0,,,,,,,,,0,,,77,126
234000,note_on,0,0,0,,,,,,,,,0,,,73,126
234000,note_on,0,0,0,,,,,,,,,0,,,82,126
234071,note_on,0,0,1,,,,,,,,,0,,,49,0
234071,note_on,0,0,1,,,,,,,,,0,,,53,0
234071,note_on,151,0,1,,,,,,,,,0,,,44,0
234071,note_on,0,0,1,,,,,,,,,0,,,56,0
234080,note_on,9,0,1,,,,,,,,,0,,,44,112
234080,note_on,0,0,1,,,,,,,,,0,,,49,112
234080,note_on,0,0,1,,,,,,,,,0,,,53,112
234080,note_on,0,0,1,,,,,,,,,0,,,56,112
234227,note_on,0,0,0,,,,,,,,,0,,,73,0
234227,note_on,0,0,0,,,,,,,,,0,,,82,0
234227,note_on,0,0,0,,,,,,,,,0,,,77,0
234227,note_on,227,0,0,,,,,,,,,0,,,70,0
234231,note_on,0,0,1,,,,,,,,,0,,,49,0
234231,note_on,151,0,1,,,,,,,,,0,,,44,0
234231,note_on,0,0,1,,,,,,,,,0,,,53,0
234231,note_on,0,0,1,,,,,,,,,0,,,56,0
234240,note_on,9,0,1,,,,,,,,,0,,,44,112
234240,note_on,13,0,0,,,,,,,,,0,,,73,126
234240,note_on,0,0,0,,,,,,,,,0,,,77,126
234240,note_on,0,0,0,,,,,,,,,0,,,80,126
234240,note_on,0,0,1,,,,,,,,,0,,,49,112
234240,note_on,0,0,1,,,,,,,,,0,,,56,112
234240,note_on,0,0,1,,,,,,,,,0,,,53,112
234240,note_on,0,0,0,,,,,,,,,0,,,85,126
234391,note_on,0,0,1,,,,,,,,,0,,,56,0
234391,note_on,0,0,1,,,,,,,,,0,,,53,0
234391,note_on,151,0,1,,,,,,,,,0,,,44,0
234391,note_on,0,0,1,,,,,,,,,0,,,49,0
234400,note_on,0,0,1,,,,,,,,,0,,,53,112
234400,note_on,0,0,1,,,,,,,,,0,,,49,112
234400,note_on,0,0,1,,,,,,,,,0,,,56,112
234400,note_on,9,0,1,,,,,,,,,0,,,44,112
234467,note_on,0,0,0,,,,,,,,,0,,,77,0
234467,note_on,227,0,0,,,,,,,,,0,,,73,0
234467,note_on,0,0,0,,,,,,,,,0,,,85,0
234467,note_on,0,0,0,,,,,,,,,0,,,80,0
234480,note_on,0,0,0,,,,,,,,,0,,,89,126
234480,note_on,0,0,0,,,,,,,,,0,,,85,126
234480,note_on,0,0,0,,,,,,,,,0,,,80,126
234480,note_on,13,0,0,,,,,,,,,0,,,77,126
234551,note_on,151,0,1,,,,,,,,,0,,,44,0
234551,note_on,0,0,1,,,,,,,,,0,,,53,0
234551,note_on,0,0,1,,,,,,,,,0,,,56,0
234551,note_on,0,0,1,,,,,,,,,0,,,49,0
234560,note_on,0,0,1,,,,,,,,,0,,,49,112
234560,note_on,0,0,1,,,,,,,,,0,,,53,112
234560,note_on,0,0,1,,,,,,,,,0,,,56,112
234560,note_on,9,0,1,,,,,,,,,0,,,44,112
234707,note_on,227,0,0,,,,,,,,,0,,,77,0
234707,note_on,0,0,0,,,,,,,,,0,,,85,0
234707,note_on,0,0,0,,,,,,,,,0,,,89,0
234707,note_on,0,0,0,,,,,,,,,0,,,80,0
234711,note_on,0,0,1,,,,,,,,,0,,,56,0
234711,note_on,151,0,1,,,,,,,,,0,,,44,0
234711,note_on,0,0,1,,,,,,,,,0,,,49,0
234711,note_on,0,0,1,,,,,,,,,0,,,53,0
234720,note_on,0,0,0,,,,,,,,,0,,,89,126
234720,note_on,0,0,0,,,,,,,,,0,,,92,126
234720,note_on,0,0,1,,,,,,,,,0,,,49,112
234720,note_on,0,0,1,,,,,,,,,0,,,53,112
234720,note_on,0,0,1,,,,,,,,,0,,,56,112
234720,note_on,13,0,0,,,,,,,,,0,,,80,126
234720,note_on,9,0,1,,,,,,,,,0,,,44,112
234720,note_on,0,0,0,,,,,,,,,0,,,85,126
234947,note_on,0,0,0,,,,,,,,,0,,,89,0
234947,note_on,0,0,0,,,,,,,,,0,,,92,0
234947,note_on,0,0,1,,,,,,,,,0,,,49,0
234947,note_on,0,0,1,,,,,,,,,0,,,53,0
234947,note_on,0,0,1,,,,,,,,,0,,,56,0
234947,note_on,227,0,1,,,,,,,,,0,,,44,0
234947,note_on,227,0,0,,,,,,,,,0,,,80,0
234947,note_on,0,0,0,,,,,,,,,0,,,85,0
234960,note_on,0,0,0,,,,,,,,,0,,,85,126
234960,note_on,0,0,0,,,,,,,,,0,,,89,126
234960,note_on,0,0,0,,,,,,,,,0,,,94,126
234960,note_on,13,0,0,,,,,,,,,0,,,82,126
235187,note_on,227,0,0,,,,,,,,,0,,,82,0
235187,note_on,0,0,0,,,,,,,,,0,,,85,0
235187,note_on,0,0,0,,,,,,,,,0,,,94,0
235187,note_on,0,0,0,,,,,,,,,0,,,89,0
235200,note_on,0,0,0,,,,,,,,,0,,,92,127
235200,note_on,0,0,0,,,,,,,,,0,,,96,127
235200,note_on,13,0,0,,,,,,,,,0,,,84,127
235200,note_on,0,0,1,,,,,,,,,0,,,32,0
235200,note_on,0,0,1,,,,,,,,,0,,,32,112
235200,note_on,0,0,0,,,,,,,,,0,,,87,127
235200,note_on,253,0,1,,,,,,,,,0,,,32,112
235201,control_change,1,0,1,,,,,,,64,0,0,,,,
235202,control_change,1,0,1,,,,,,,64,127,0,,,,
235360,note_on,158,0,1,,,,,,,,,0,,,44,112
235503,note_on,143,0,1,,,,,,,,,0,,,32,0
235511,note_on,8,0,1,,,,,,,,,0,,,44,0
235520,note_on,0,0,1,,,,,,,,,0,,,39,112
235520,note_on,0,0,1,,,,,,,,,0,,,39,0
235520,note_on,9,0,1,,,,,,,,,0,,,39,112
235680,note_on,160,0,1,,,,,,,,,0,,,51,112
235823,note_on,143,0,1,,,,,,,,,0,,,39,0
235831,note_on,8,0,1,,,,,,,,,0,,,51,0
235840,note_on,0,0,1,,,,,,,,,0,,,44,0
235840,note_on,0,0,1,,,,,,,,,0,,,44,112
235840,note_on,9,0,1,,,,,,,,,0,,,44,112
235842,note_on,0,0,0,,,,,,,,,0,,,87,0
235842,note_on,0,0,0,,,,,,,,,0,,,92,0
235842,note_on,642,0,0,,,,,,,,,0,,,84,0
235842,note_on,0,0,0,,,,,,,,,0,,,96,0
236000,note_on,160,0,1,,,,,,,,,0,,,56,112
236143,note_on,143,0,1,,,,,,,,,0,,,44,0
236151,note_on,8,0,1,,,,,,,,,0,,,56,0
236160,note_on,9,0,1,,,,,,,,,0,,,51,112
236160,note_on,0,0,1,,,,,,,,,0,,,51,112
236160,note_on,0,0,0,,,,,,,,,0,,,92,126
236160,note_on,318,0,0,,,,,,,,,0,,,87,126
236160,note_on,0,0,1,,,,,,,,,0,,,51,0
236160,note_on,0,0,0,,,,,,,,,0,,,96,126
236160,note_on,0,0,0,,,,,,,,,0,,,99,126
236320,note_on,160,0,1,,,,,,,,,0,,,63,112
236399,note_on,0,0,0,,,,,,,,,0,,,92,0
236399,note_on,0,0,0,,,,,,,,,0,,,99,0
236399,note_on,0,0,0,,,,,,,,,0,,,96,0
236399,note_on,239,0,0,,,,,,,,,0,,,87,0
236463,note_on,143,0,1,,,,,,,,,0,,,51,0
236471,note_on,8,0,1,,,,,,,,,0,,,63,0
236480,note_on,0,0,1,,,,,,,,,0,,,44,112
236480,note_on,0,0,1,,,,,,,,,0,,,44,0
236480,note_on,9,0,1,,,,,,,,,0,,,44,112
236640,note_on,160,0,1,,,,,,,,,0,,,56,112
236783,note_on,143,0,1,,,,,,,,,0,,,44,0
236791,note_on,8,0,1,,,,,,,,,0,,,56,0
236800,note_on,0,0,1,,,,,,,,,0,,,39,112
236800,note_on,0,0,1,,,,,,,,,0,,,39,0
236800,note_on,9,0,1,,,,,,,,,0,,,39,112
236960,note_on,160,0,1,,,,,,,,,0,,,51,112
237000,note_on,0,0,0,,,,,,,,,0,,,63,126
237000,note_on,601,0,0,,,,,,,,,0,,,60,126
237000,note_on,0,0,0,,,,,,,,,0,,,72,126
237000,note_on,0,0,0,,,,,,,,,0,,,68,126
237103,note_on,143,0,1,,,,,,,,,0,,,39,0
237111,note_on,8,0,1,,,,,,,,,0,,,51,0
237113,note_on,0,0,0,,,,,,,,,0,,,63,0
237113,note_on,0,0,0,,,,,,,,,0,,,72,0
237113,note_on,113,0,0,,,,,,,,,0,,,60,0
237113,note_on,0,0,0,,,,,,,,,0,,,68,0
237120,note_on,0,0,0,,,,,,,,,0,,,72,127
237120,note_on,0,0,0,,,,,,,,,0,,,63,127
237120,note_on,0,0,1,,,,,,,,,0,,,32,0
237120,note_on,0,0,0,,,,,,,,,0,,,68,127
237120,note_on,0,0,1,,,,,,,,,0,,,32,112
237120,note_on,7,0,0,,,,,,,,,0,,,60,127
237120,note_on,9,0,1,,,,,,,,,0,,,32,112
237121,control_change,1,0,1,,,,,,,64,0,0,,,,
237122,control_change,1,0,1,,,,,,,64,127,0,,,,
237280,note_on,158,0,1,,,,,,,,,0,,,44,112
237423,note_on,143,0,1,,,,,,,,,0,,,32,0
237431,note_on,8,0,1,,,,,,,,,0,,,44,0
237440,note_on,0,0,1,,,,,,,,,0,,,39,0
237440,note_on,9,0,1,,,,,,,,,0,,,39,112
237440,note_on,0,0,1,,,,,,,,,0,,,39,112
237600,note_on,160,0,1,,,,,,,,,0,,,51,112
237743,note_on,143,0,1,,,,,,,,,0,,,39,0
237751,note_on,8,0,1,,,,,,,,,0,,,51,0
237760,note_on,0,0,1,,,,,,,,,0,,,44,112
237760,note_on,0,0,1,,,,,,,,,0,,,44,0
237760,note_on,9,0,1,,,,,,,,,0,,,44,112
237762,note_on,642,0,0,,,,,,,,,0,,,60,0
237762,note_on,0,0,0,,,,,,,,,0,,,72,0
237762,note_on,0,0,0,,,,,,,,,0,,,63,0
237762,note_on,0,0,0,,,,,,,,,0,,,68,0
237920,note_on,160,0,1,,,,,,,,,0,,,56,112
238063,note_on,143,0,1,,,,,,,,,0,,,44,0
238071,note_on,8,0,1,,,,,,,,,0,,,56,0
238080,note_on,318,0,0,,,,,,,,,0,,,56,126
238080,note_on,0,0,0,,,,,,,,,0,,,68,126
238080,note_on,0,0,0,,,,,,,,,0,,,60,126
238080,note_on,0,0,0,,,,,,,,,0,,,63,126
238319,note_on,0,0,0,,,,,,,,,0,,,60,0
238319,note_on,0,0,0,,,,,,,,,0,,,63,0
238319,note_on,0,0,0,,,,,,,,,0,,,68,0
238319,note_on,239,0,0,,,,,,,,,0,,,56,0
238320,note_on,0,0,1,,,,,,,,,0,,,56,112
238320,note_on,249,0,1,,,,,,,,,0,,,44,112
238439,note_on,119,0,1,,,,,,,,,0,,,44,0
238439,note_on,0,0,1,,,,,,,,,0,,,56,0
238560,note_on,121,0,1,,,,,,,,,0,,,39,112
238560,note_on,0,0,1,,,,,,,,,0,,,51,112
238679,note_on,119,0,1,,,,,,,,,0,,,39,0
238679,note_on,0,0,1,,,,,,,,,0,,,51,0
238800,note_on,0,0,1,,,,,,,,,0,,,44,112
238800,note_on,121,0,1,,,,,,,,,0,,,32,112
238919,note_on,119,0,1,,,,,,,,,0,,,32,0
238919,note_on,0,0,1,,,,,,,,,0,,,44,0
239040,note_on,0,0,1,,,,,,,,,0,,,39,112
239040,note_on,121,0,1,,,,,,,,,0,,,27,112
239041,control_change,1,0,1,,,,,,,64,0,0,,,,
239042,control_change,1,0,1,,,,,,,64,127,0,,,,
239118,note_on,76,0,1,,,,,,,,,0,,,27,0
239118,note_on,0,0,1,,,,,,,,,0,,,39,0
239280,note_on,961,0,0,,,,,,,,,0,,,66,126
239280,note_on,0,0,0,,,,,,,,,0,,,78,126
239280,note_on,0,0,0,,,,,,,,,0,,,75,126
239280,note_on,0,0,0,,,,,,,,,0,,,70,126
239507,note_on,227,0,0,,,,,,,,,0,,,66,0
239507,note_on,0,0,0,,,,,,,,,0,,,78,0
239507,note_on,0,0,0,,,,,,,,,0,,,75,0
239507,note_on,0,0,0,,,,,,,,,0,,,70,0
239520,note_on,13,0,0,,,,,,,,,0,,,63,126
239520,note_on,0,0,1,,,,,,,,,0,,,58,112
239520,note_on,0,0,1,,,,,,,,,0,,,51,112
239520,note_on,0,0,1,,,,,,,,,0,,,54,112
239520,note_on,0,0,0,,,,,,,,,0,,,66,126
239520,note_on,402,0,1,,,,,,,,,0,,,46,112
239520,note_on,0,0,0,,,,,,,,,0,,,70,126
239520,note_on,0,0,0,,,,,,,,,0,,,75,126
239671,note_on,0,0,1,,,,,,,,,0,,,51,0
239671,note_on,0,0,1,,,,,,,,,0,,,54,0
239671,note_on,0,0,1,,,,,,,,,0,,,58,0
239671,note_on,151,0,1,,,,,,,,,0,,,46,0
239680,note_on,9,0,1,,,,,,,,,0,,,46,112
239680,note_on,0,0,1,,,,,,,,,0,,,51,112
239680,note_on,0,0,1,,,,,,,,,0,,,54,112
239680,note_on,0,0,1,,,,,,,,,0,,,58,112
239747,note_on,227,0,0,,,,,,,,,0,,,63,0
239747,note_on,0,0,0,,,,,,,,,0,,,70,0
239747,note_on,0,0,0,,,,,,,,,0,,,75,0
239747,note_on,0,0,0,,,,,,,,,0,,,66,0
239760,note_on,13,0,0,,,,,,,,,0,,,66,126
239760,note_on,0,0,0,,,,,,,,,0,,,70,126
239760,note_on,0,0,0,,,,,,,,,0,,,75,126
239760,note_on,0,0,0,,,,,,,,,0,,,78,126
239831,note_on,0,0,1,,,,,,,,,0,,,54,0
239831,note_on,0,0,1,,,,,,,,,0,,,58,0
239831,note_on,0,0,1,,,,,,,,,0,,,51,0
239831,note_on,151,0,1,,,,,,,,,0,,,46,0
239840,note_on,9,0,1,,,,,,,,,0,,,46,112
239840,note_on,0,0,1,,,,,,,,,0,,,51,112
239840,note_on,0,0,1,,,,,,,,,0,,,54,112
239840,note_on,0,0,1,,,,,,,,,0,,,58,112
239987,note_on,0,0,0,,,,,,,,,0,,,70,0
239987,note_on,0,0,0,,,,,,,,,0,,,75,0
239987,note_on,0,0,0,,,,,,,,,0,,,78,0
239987,note_on,227,0,0,,,,,,,,,0,,,66,0
239991,note_on,151,0,1,,,,,,,,,0,,,46,0
239991,note_on,0,0,1,,,,,,,,,0,,,51,0
239991,note_on,0,0,1,,,,,,,,,0,,,58,0
239991,note_on,0,0,1,,,,,,,,,0,,,54,0
240000,note_on,0,0,1,,,,,,,,,0,,,51,112
240000,note_on,13,0,0,,,,,,,,,0,,,70,126
240000,note_on,0,0,1,,,,,,,,,0,,,58,112
240000,note_on,0,0,0,,,,,,,,,0,,,78,126
240000,note_on,0,0,0,,,,,,,,,0,,,82,126
240000,note_on,0,0,0,,,,,,,,,0,,,75,126
240000,note_on,9,0,1,,,,,,,,,0,,,46,112
240000,note_on,0,0,1,,,,,,,,,0,,,54,112
240151,note_on,151,0,1,,,,,,,,,0,,,46,0
240151,note_on,0,0,1,,,,,,,,,0,,,51,0
240151,note_on,0,0,1,,,,,,,,,0,,,58,0
240151,note_on,0,0,1,,,,,,,,,0,,,54,0
240160,note_on,0,0,1,,,,,,,,,0,,,54,112
240160,note_on,0,0,1,,,,,,,,,0,,,51,112
240160,note_on,9,0,1,,,,,,,,,0,,,46,112
240160,note_on,0,0,1,,,,,,,,,0,,,58,112
240227,note_on,0,0,0,,,,,,,,,0,,,78,0
240227,note_on,0,0,0,,,,,,,,,0,,,82,0
240227,note_on,227,0,0,,,,,,,,,0,,,70,0
240227,note_on,0,0,0,,,,,,,,,0,,,75,0
240240,note_on,0,0,0,,,,,,,,,0,,,75,126
240240,note_on,0,0,0,,,,,,,,,0,,,78,126
240240,note_on,0,0,0,,,,,,,,,0,,,83,126
240240,note_on,13,0,0,,,,,,,,,0,,,71,126
240311,note_on,151,0,1,,,,,,,,,0,,,46,0
240311,note_on,0,0,1,,,,,,,,,0,,,51,0
240311,note_on,0,0,1,,,,,,,,,0,,,54,0
240311,note_on,0,0,1,,,,,,,,,0,,,58,0
240320,note_on,9,0,1,,,,,,,,,0,,,46,112
240320,note_on,0,0,1,,,,,,,,,0,,,51,112
240320,note_on,0,0,1,,,,,,,,,0,,,54,112
240320,note_on,0,0,1,,,,,,,,,0,,,58,112
240467,note_on,0,0,0,,,,,,,,,0,,,78,0
240467,note_on,227,0,0,,,,,,,,,0,,,71,0
240467,note_on,0,0,0,,,,,,,,,0,,,83,0
240467,note_on,0,0,0,,,,,,,,,0,,,75,0
240471,note_on,151,0,1,,,,,,,,,0,,,46,0
240471,note_on,0,0,1,,,,,,,,,0,,,58,0
240471,note_on,0,0,1,,,,,,,,,0,,,54,0
240471,note_on,0,0,1,,,,,,,,,0,,,51,0
240480,note_on,13,0,0,,,,,,,,,0,,,70,126
240480,note_on,0,0,0,,,,,,,,,0,,,78,126
240480,note_on,0,0,0,,,,,,,,,0,,,75,126
240480,note_on,0,0,1,,,,,,,,,0,,,51,112
240480,note_on,0,0,1,,,,,,,,,0,,,54,112
240480,note_on,0,0,1,,,,,,,,,0,,,58,112
240480,note_on,9,0,1,,,,,,,,,0,,,46,112
240480,note_on,0,0,0,,,,,,,,,0,,,82,126
240707,note_on,0,0,0,,,,,,,,,0,,,82,0
240707,note_on,0,0,0,,,,,,,,,0,,,78,0
240707,note_on,0,0,1,,,,,,,,,0,,,51,0
240707,note_on,227,0,0,,,,,,,,,0,,,70,0
240707,note_on,0,0,1,,,,,,,,,0,,,54,0
240707,note_on,0,0,1,,,,,,,,,0,,,58,0
240707,note_on,227,0,1,,,,,,,,,0,,,46,0
240707,note_on,0,0,0,,,,,,,,,0,,,75,0
240720,note_on,0,0,0,,,,,,,,,0,,,70,126
240720,note_on,0,0,0,,,,,,,,,0,,,75,126
240720,note_on,0,0,0,,,,,,,,,0,,,78,126
240720,note_on,13,0,0,,,,,,,,,0,,,66,126
240947,note_on,0,0,0,,,,,,,,,0,,,75,0
240947,note_on,0,0,0,,,,,,,,,0,,,70,0
240947,note_on,0,0,0,,,,,,,,,0,,,78,0
240947,note_on,227,0,0,,,,,,,,,0,,,66,0
240960,note_on,0,0,0,,,,,,,,,0,,,75,126
240960,note_on,0,0,0,,,,,,,,,0,,,70,126
240960,note_on,0,0,1,,,,,,,,,0,,,39,112
240960,note_on,0,0,0,,,,,,,,,0,,,66,126
240960,note_on,253,0,1,,,,,,,,,0,,,27,112
240960,note_on,13,0,0,,,,,,,,,0,,,63,126
240961,control_change,1,0,1,,,,,,,64,0,0,,,,
240962,control_change,1,0,1,,,,,,,64,127,0,,,,
241038,note_on,76,0,1,,,,,,,,,0,,,27,0
241038,note_on,0,0,1,,,,,,,,,0,,,39,0
241187,note_on,227,0,0,,,,,,,,,0,,,63,0
241187,note_on,0,0,0,,,,,,,,,0,,,70,0
241187,note_on,0,0,0,,,,,,,,,0,,,66,0
241187,note_on,0,0,0,,,,,,,,,0,,,75,0
241200,note_on,0,0,0,,,,,,,,,0,,,70,126
241200,note_on,13,0,0,,,,,,,,,0,,,66,126
241200,note_on,0,0,0,,,,,,,,,0,,,78,126
241200,note_on,0,0,0,,,,,,,,,0,,,75,126
241427,note_on,0,0,0,,,,,,,,,0,,,70,0
241427,note_on,227,0,0,,,,,,,,,0,,,66,0
241427,note_on,0,0,0,,,,,,,,,0,,,75,0
241427,note_on,0,0,0,,,,,,,,,0,,,78,0
241440,note_on,0,0,0,,,,,,,,,0,,,75,126
241440,note_on,0,0,0,,,,,,,,,0,,,78,126
241440,note_on,402,0,1,,,,,,,,,0,,,46,112
241440,note_on,0,0,0,,,,,,,,,0,,,82,126
241440,note_on,0,0,1,,,,,,,,,0,,,51,112
241440,note_on,0,0,1,,,,,,,,,0,,,54,112
241440,note_on,13,0,0,,,,,,,,,0,,,70,126
241440,note_on,0,0,1,,,,,,,,,0,,,58,112
241591,note_on,0,0,1,,,,,,,,,0,,,58,0
241591,note_on,0,0,1,,,,,,,,,0,,,51,0
241591,note_on,0,0,1,,,,,,,,,0,,,54,0
241591,note_on,151,0,1,,,,,,,,,0,,,46,0
241600,note_on,0,0,1,,,,,,,,,0,,,58,112
241600,note_on,0,0,1,,,,,,,,,0,,,54,112
241600,note_on,0,0,1,,,,,,,,,0,,,51,112
241600,note_on,9,0,1,,,,,,,,,0,,,46,112
241667,note_on,227,0,0,,,,,,,,,0,,,70,0
241667,note_on,0,0,0,,,,,,,,,0,,,75,0
241667,note_on,0,0,0,,,,,,,,,0,,,78,0
241667,note_on,0,0,0,,,,,,,,,0,,,82,0
241680,note_on,0,0,0,,,,,,,,,0,,,78,126
241680,note_on,0,0,0,,,,,,,,,0,,,75,126
241680,note_on,13,0,0,,,,,,,,,0,,,71,126
241680,note_on,0,0,0,,,,,,,,,0,,,83,126
241751,note_on,0,0,1,,,,,,,,,0,,,51,0
241751,note_on,0,0,1,,,,,,,,,0,,,54,0
241751,note_on,0,0,1,,,,,,,,,0,,,58,0
241751,note_on,151,0,1,,,,,,,,,0,,,46,0
241760,note_on,9,0,1,,,,,,,,,0,,,46,112
241760,note_on,0,0,1,,,,,,,,,0,,,51,112
241760,note_on,0,0,1,,,,,,,,,0,,,54,112
241760,note_on,0,0,1,,,,,,,,,0,,,58,112
241907,note_on,0,0,0,,,,,,,,,0,,,75,0
241907,note_on,0,0,0,,,,,,,,,0,,,78,0
241907,note_on,0,0,0,,,,,,,,,0,,,83,0
241907,note_on,227,0,0,,,,,,,,,0,,,71,0
241911,note_on,0,0,1,,,,,,,,,0,,,58,0
241911,note_on,0,0,1,,,,,,,,,0,,,54,0
241911,note_on,0,0,1,,,,,,,,,0,,,51,0
241911,note_on,151,0,1,,,,,,,,,0,,,46,0
241920,note_on,0,0,1,,,,,,,,,0,,,51,112
241920,note_on,0,0,1,,,,,,,,,0,,,54,112
241920,note_on,0,0,1,,,,,,,,,0,,,58,112
241920,note_on,0,0,0,,,,,,,,,0,,,78,126
241920,note_on,13,0,0,,,,,,,,,0,,,75,126
241920,note_on,0,0,0,,,,,,,,,0,,,82,126
241920,note_on,9,0,1,,,,,,,,,0,,,46,112
241920,note_on,0,0,0,,,,,,,,,0,,,87,126
242071,note_on,151,0,1,,,,,,,,,0,,,46,0
242071,note_on,0,0,1,,,,,,,,,0,,,58,0
242071,note_on,0,0,1,,,,,,,,,0,,,54,0
242071,note_on,0,0,1,,,,,,,,,0,,,51,0
242080,note_on,0,0,1,,,,,,,,,0,,,58,112
242080,note_on,0,0,1,,,,,,,,,0,,,54,112
242080,note_on,0,0,1,,,,,,,,,0,,,51,112
242080,note_on,9,0,1,,,,,,,,,0,,,46,112
242147,note_on,0,0,0,,,,,,,,,0,,,78,0
242147,note_on,0,0,0,,,,,,,,,0,,,82,0
242147,note_on,0,0,0,,,,,,,,,0,,,87,0
242147,note_on,227,0,0,,,,,,,,,0,,,75,0
242160,note_on,0,0,0,,,,,,,,,0,,,82,126
242160,note_on,0,0,0,,,,,,,,,0,,,87,126
242160,note_on,0,0,0,,,,,,,,,0,,,90,126
242160,note_on,13,0,0,,,,,,,,,0,,,78,126
242231,note_on,0,0,1,,,,,,,,,0,,,58,0
242231,note_on,0,0,1,,,,,,,,,0,,,54,0
242231,note_on,151,0,1,,,,,,,,,0,,,46,0
242231,note_on,0,0,1,,,,,,,,,0,,,51,0
242240,note_on,0,0,1,,,,,,,,,0,,,58,112
242240,note_on,0,0,1,,,,,,,,,0,,,51,112
242240,note_on,9,0,1,,,,,,,,,0,,,46,112
242240,note_on,0,0,1,,,,,,,,,0,,,54,112
242387,note_on,227,0,0,,,,,,,,,0,,,78,0
242387,note_on,0,0,0,,,,,,,,,0,,,82,0
242387,note_on,0,0,0,,,,,,,,,0,,,87,0
242387,note_on,0,0,0,,,,,,,,,0,,,90,0
242391,note_on,151,0,1,,,,,,,,,0,,,46,0
242391,note_on,0,0,1,,,,,,,,,0,,,54,0
242391,note_on,0,0,1,,,,,,,,,0,,,51,0
242391,note_on,0,0,1,,,,,,,,,0,,,58,0
242400,note_on,0,0,1,,,,,,,,,0,,,51,112
242400,note_on,0,0,1,,,,,,,,,0,,,58,112
242400,note_on,9,0,1,,,,,,,,,0,,,46,112
242400,note_on,13,0,0,,,,,,,,,0,,,82,126
242400,note_on,0,0,1,,,,,,,,,0,,,54,112
242400,note_on,0,0,0,,,,,,,,,0,,,87,126
242400,note_on,0,0,0,,,,,,,,,0,,,90,126
242400,note_on,0,0,0,,,,,,,,,0,,,94,126
242627,note_on,227,0,0,,,,,,,,,0,,,82,0
242627,note_on,0,0,1,,,,,,,,,0,,,51,0
242627,note_on,0,0,1,,,,,,,,,0,,,54,0
242627,note_on,0,0,1,,,,,,,,,0,,,58,0
242627,note_on,227,0,1,,,,,,,,,0,,,46,0
242627,note_on,0,0,0,,,,,,,,,0,,,94,0
242627,note_on,0,0,0,,,,,,,,,0,,,90,0
242627,note_on,0,0,0,,,,,,,,,0,,,87,0
242640,note_on,0,0,0,,,,,,,,,0,,,96,126
242640,note_on,0,0,0,,,,,,,,,0,,,90,126
242640,note_on,13,0,0,,,,,,,,,0,,,84,126
242640,note_on,0,0,0,,,,,,,,,0,,,87,126
242867,note_on,0,0,0,,,,,,,,,0,,,96,0
242867,note_on,0,0,0,,,,,,,,,0,,,90,0
242867,note_on,0,0,0,,,,,,,,,0,,,87,0
242867,note_on,227,0,0,,,,,,,,,0,,,84,0
242880,note_on,0,0,0,,,,,,,,,0,,,98,127
242880,note_on,13,0,0,,,,,,,,,0,,,86,127
242880,note_on,0,0,0,,,,,,,,,0,,,89,127
242880,note_on,0,0,0,,,,,,,,,0,,,94,127
242880,note_on,0,0,1,,,,,,,,,0,,,34,0
242880,note_on,0,0,1,,,,,,,,,0,,,34,112
242880,note_on,253,0,1,,,,,,,,,0,,,34,112
242881,control_change,1,0,1,,,,,,,64,0,0,,,,
242882,control_change,1,0,1,,,,,,,64,127,0,,,,
243040,note_on,158,0,1,,,,,,,,,0,,,46,112
243183,note_on,143,0,1,,,,,,,,,0,,,34,0
243191,note_on,8,0,1,,,,,,,,,0,,,46,0
243200,note_on,9,0,1,,,,,,,,,0,,,41,112
243200,note_on,0,0,1,,,,,,,,,0,,,41,0
243200,note_on,0,0,1,,,,,,,,,0,,,41,112
243360,note_on,160,0,1,,,,,,,,,0,,,53,112
243503,note_on,143,0,1,,,,,,,,,0,,,41,0
243511,note_on,8,0,1,,,,,,,,,0,,,53,0
243520,note_on,0,0,1,,,,,,,,,0,,,46,112
243520,note_on,0,0,1,,,,,,,,,0,,,46,0
243520,note_on,9,0,1,,,,,,,,,0,,,46,112
243522,note_on,0,0,0,,,,,,,,,0,,,89,0
243522,note_on,0,0,0,,,,,,,,,0,,,98,0
243522,note_on,0,0,0,,,,,,,,,0,,,94,0
243522,note_on,642,0,0,,,,,,,,,0,,,86,0
243680,note_on,160,0,1,,,,,,,,,0,,,58,112
243823,note_on,143,0,1,,,,,,,,,0,,,46,0
243831,note_on,8,0,1,,,,,,,,,0,,,58,0
243840,note_on,0,0,0,,,,,,,,,0,,,101,126
243840,note_on,9,0,1,,,,,,,,,0,,,53,112
243840,note_on,318,0,0,,,,,,,,,0,,,89,126
243840,note_on,0,0,0,,,,,,,,,0,,,94,126
243840,note_on,0,0,1,,,,,,,,,0,,,53,0
243840,note_on,0,0,1,,,,,,,,,0,,,53,112
243840,note_on,0,0,0,,,,,,,,,0,,,98,126
244000,note_on,160,0,1,,,,,,,,,0,,,65,112
244079,note_on,239,0,0,,,,,,,,,0,,,89,0
244079,note_on,0,0,0,,,,,,,,,0,,,94,0
244079,note_on,0,0,0,,,,,,,,,0,,,98,0
244079,note_on,0,0,0,,,,,,,,,0,,,101,0
244143,note_on,143,0,1,,,,,,,,,0,,,53,0
244151,note_on,8,0,1,,,,,,,,,0,,,65,0
244160,note_on,0,0,1,,,,,,,,,0,,,46,0
244160,note_on,9,0,1,,,,,,,,,0,,,46,112
244160,note_on,0,0,1,,,,,,,,,0,,,46,112
244320,note_on,160,0,1,,,,,,,,,0,,,58,112
244463,note_on,143,0,1,,,,,,,,,0,,,46,0
244471,note_on,8,0,1,,,,,,,,,0,,,58,0
244480,note_on,0,0,1,,,,,,,,,0,,,41,0
244480,note_on,9,0,1,,,,,,,,,0,,,41,112
244480,note_on,0,0,1,,,,,,,,,0,,,41,112
244640,note_on,160,0,1,,,,,,,,,0,,,53,112
244680,note_on,601,0,0,,,,,,,,,0,,,62,126
244680,note_on,0,0,0,,,,,,,,,0,,,74,126
244680,note_on,0,0,0,,,,,,,,,0,,,70,126
244680,note_on,0,0,0,,,,,,,,,0,,,65,126
244783,note_on,143,0,1,,,,,,,,,0,,,41,0
244791,note_on,8,0,1,,,,,,,,,0,,,53,0
244793,note_on,0,0,0,,,,,,,,,0,,,70,0
244793,note_on,113,0,0,,,,,,,,,0,,,62,0
244793,note_on,0,0,0,,,,,,,,,0,,,65,0
244793,note_on,0,0,0,,,,,,,,,0,,,74,0
244800,note_on,0,0,0,,,,,,,,,0,,,65,127
244800,note_on,0,0,0,,,,,,,,,0,,,70,127
244800,note_on,0,0,0,,,,,,,,,0,,,74,127
244800,note_on,0,0,1,,,,,,,,,0,,,34,0
244800,note_on,0,0,1,,,,,,,,,0,,,34,112
244800,note_on,7,0,0,,,,,,,,,0,,,62,127
244800,note_on,9,0,1,,,,,,,,,0,,,34,112
244801,control_change,1,0,1,,,,,,,64,0,0,,,,
244802,control_change,1,0,1,,,,,,,64,127,0,,,,
244960,note_on,158,0,1,,,,,,,,,0,,,46,112
245103,note_on,143,0,1,,,,,,,,,0,,,34,0
245111,note_on,8,0,1,,,,,,,,,0,,,46,0
245120,note_on,9,0,1,,,,,,,,,0,,,41,112
245120,note_on,0,0,1,,,,,,,,,0,,,41,112
245120,note_on,0,0,1,,,,,,,,,0,,,41,0
245280,note_on,160,0,1,,,,,,,,,0,,,53,112
245423,note_on,143,0,1,,,,,,,,,0,,,41,0
245431,note_on,8,0,1,,,,,,,,,0,,,53,0
245440,note_on,9,0,1,,,,,,,,,0,,,46,112
245440,note_on,0,0,1,,,,,,,,,0,,,46,0
245440,note_on,0,0,1,,,,,,,,,0,,,46,112
245442,note_on,0,0,0,,,,,,,,,0,,,65,0
245442,note_on,0,0,0,,,,,,,,,0,,,70,0
245442,note_on,0,0,0,,,,,,,,,0,,,74,0
245442,note_on,642,0,0,,,,,,,,,0,,,62,0
245600,note_on,160,0,1,,,,,,,,,0,,,58,112
245743,note_on,143,0,1,,,,,,,,,0,,,46,0
245751,note_on,8,0,1,,,,,,,,,0,,,58,0
245760,note_on,0,0,0,,,,,,,,,0,,,65,126
245760,note_on,318,0,0,,,,,,,,,0,,,58,126
245760,note_on,0,0,0,,,,,,,,,0,,,70,126
245760,note_on,0,0,0,,,,,,,,,0,,,62,126
245999,note_on,0,0,0,,,,,,,,,0,,,70,0
245999,note_on,239,0,0,,,,,,,,,0,,,58,0
245999,note_on,0,0,0,,,,,,,,,0,,,65,0
245999,note_on,0,0,0,,,,,,,,,0,,,62,0
246000,note_on,249,0,1,,,,,,,,,0,,,41,112
246000,note_on,0,0,1,,,,,,,,,0,,,53,112
246119,note_on,0,0,1,,,,,,,,,0,,,53,0
246119,note_on,119,0,1,,,,,,,,,0,,,41,0
246240,note_on,0,0,1,,,,,,,,,0,,,46,112
246240,note_on,121,0,1,,,,,,,,,0,,,34,112
246359,note_on,0,0,1,,,,,,,,,0,,,46,0
246359,note_on,119,0,1,,,,,,,,,0,,,34,0
246480,note_on,0,0,1,,,,,,,,,0,,,41,112
246480,note_on,121,0,1,,,,,,,,,0,,,29,112
246599,note_on,119,0,1,,,,,,,,,0,,,29,0
246599,note_on,0,0,1,,,,,,,,,0,,,41,0
246720,note_on,121,0,1,,,,,,,,,0,,,30,112
246720,note_on,0,0,1,,,,,,,,,0,,,42,112
246721,control_change,1,0,1,,,,,,,64,0,0,,,,
246722,control_change,1,0,1,,,,,,,64,127,0,,,,
246798,note_on,76,0,1,,,,,,,,,0,,,30,0
246798,note_on,0,0,1,,,,,,,,,0,,,42,0
246960,note_on,0,0,0,,,,,,,,,0,,,78,126
246960,note_on,961,0,0,,,,,,,,,0,,,70,126
246960,note_on,0,0,0,,,,,,,,,0,,,73,126
246960,note_on,0,0,0,,,,,,,,,0,,,82,126
247187,note_on,0,0,0,,,,,,,,,0,,,78,0
247187,note_on,227,0,0,,,,,,,,,0,,,70,0
247187,note_on,0,0,0,,,,,,,,,0,,,73,0
247187,note_on,0,0,0,,,,,,,,,0,,,82,0
247200,note_on,0,0,1,,,,,,,,,0,,,61,112
247200,note_on,0,0,1,,,,,,,,,0,,,58,112
247200,note_on,402,0,1,,,,,,,,,0,,,49,112
247200,note_on,0,0,0,,,,,,,,,0,,,70,126
247200,note_on,0,0,0,,,,,,,,,0,,,73,126
247200,note_on,0,0,0,,,,,,,,,0,,,78,126
247200,note_on,13,0,0,,,,,,,,,0,,,66,126
247200,note_on,0,0,1,,,,,,,,,0,,,54,112
247351,note_on,0,0,1,,,,,,,,,0,,,61,0
247351,note_on,151,0,1,,,,,,,,,0,,,49,0
247351,note_on,0,0,1,,,,,,,,,0,,,54,0
247351,note_on,0,0,1,,,,,,,,,0,,,58,0
247360,note_on,9,0,1,,,,,,,,,0,,,49,112
247360,note_on,0,0,1,,,,,,,,,0,,,58,112
247360,note_on,0,0,1,,,,,,,,,0,,,61,112
247360,note_on,0,0,1,,,,,,,,,0,,,54,112
247427,note_on,0,0,0,,,,,,,,,0,,,73,0
247427,note_on,227,0,0,,,,,,,,,0,,,66,0
247427,note_on,0,0,0,,,,,,,,,0,,,70,0
247427,note_on,0,0,0,,,,,,,,,0,,,78,0
247440,note_on,0,0,0,,,,,,,,,0,,,82,126
247440,note_on,0,0,0,,,,,,,,,0,,,78,126
247440,note_on,0,0,0,,,,,,,,,0,,,73,126
247440,note_on,13,0,0,,,,,,,,,0,,,70,126
247511,note_on,151,0,1,,,,,,,,,0,,,49,0
247511,note_on,0,0,1,,,,,,,,,0,,,58,0
247511,note_on,0,0,1,,,,,,,,,0,,,61,0
247511,note_on,0,0,1,,,,,,,,,0,,,54,0
247520,note_on,9,0,1,,,,,,,,,0,,,49,112
247520,note_on,0,0,1,,,,,,,,,0,,,54,112
247520,note_on,0,0,1,,,,,,,,,0,,,58,112
247520,note_on,0,0,1,,,,,,,,,0,,,61,112
247667,note_on,0,0,0,,,,,,,,,0,,,73,0
247667,note_on,0,0,0,,,,,,,,,0,,,78,0
247667,note_on,227,0,0,,,,,,,,,0,,,70,0
247667,note_on,0,0,0,,,,,,,,,0,,,82,0
247671,note_on,151,0,1,,,,,,,,,0,,,49,0
247671,note_on,0,0,1,,,,,,,,,0,,,54,0
247671,note_on,0,0,1,,,,,,,,,0,,,58,0
247671,note_on,0,0,1,,,,,,,,,0,,,61,0
247680,note_on,0,0,1,,,,,,,,,0,,,61,112
247680,note_on,0,0,1,,,,,,,,,0,,,58,112
247680,note_on,0,0,0,,,,,,,,,0,,,85,126
247680,note_on,0,0,0,,,,,,,,,0,,,82,126
247680,note_on,0,0,0,,,,,,,,,0,,,78,126
247680,note_on,13,0,0,,,,,,,,,0,,,73,126
247680,note_on,9,0,1,,,,,,,,,0,,,49,112
247680,note_on,0,0,1,,,,,,,,,0,,,54,112
247831,note_on,151,0,1,,,,,,,,,0,,,49,0
247831,note_on,0,0,1,,,,,,,,,0,,,54,0
247831,note_on,0,0,1,,,,,,,,,0,,,61,0
247831,note_on,0,0,1,,,,,,,,,0,,,58,0
247840,note_on,0,0,1,,,,,,,,,0,,,61,112
247840,note_on,9,0,1,,,,,,,,,0,,,49,112
247840,note_on,0,0,1,,,,,,,,,0,,,58,112
247840,note_on,0,0,1,,,,,,,,,0,,,54,112
247907,note_on,227,0,0,,,,,,,,,0,,,73,0
247907,note_on,0,0,0,,,,,,,,,0,,,82,0
247907,note_on,0,0,0,,,,,,,,,0,,,85,0
247907,note_on,0,0,0,,,,,,,,,0,,,78,0
247920,note_on,0,0,0,,,,,,,,,0,,,78,126
247920,note_on,13,0,0,,,,,,,,,0,,,75,126
247920,note_on,0,0,0,,,,,,,,,0,,,82,126
247920,note_on,0,0,0,,,,,,,,,0,,,87,126
247991,note_on,0,0,1,,,,,,,,,0,,,61,0
247991,note_on,151,0,1,,,,,,,,,0,,,49,0
247991,note_on,0,0,1,,,,,,,,,0,,,54,0
247991,note_on,0,0,1,,,,,,,,,0,,,58,0
248000,note_on,0,0,1,,,,,,,,,0,,,58,112
248000,note_on,9,0,1,,,,,,,,,0,,,49,112
248000,note_on,0,0,1,,,,,,,,,0,,,61,112
248000,note_on,0,0,1,,,,,,,,,0,,,54,112
248147,note_on,0,0,0,,,,,,,,,0,,,78,0
248147,note_on,0,0,0,,,,,,,,,0,,,87,0
248147,note_on,227,0,0,,,,,,,,,0,,,75,0
248147,note_on,0,0,0,,,,,,,,,0,,,82,0
248151,note_on,0,0,1,,,,,,,,,0,,,61,0
248151,note_on,151,0,1,,,,,,,,,0,,,49,0
248151,note_on,0,0,1,,,,,,,,,0,,,58,0
248151,note_on,0,0,1,,,,,,,,,0,,,54,0
248160,note_on,0,0,1,,,,,,,,,0,,,61,112
248160,note_on,9,0,1,,,,,,,,,0,,,49,112
248160,note_on,0,0,1,,,,,,,,,0,,,58,112
248160,note_on,0,0,0,,,,,,,,,0,,,85,126
248160,note_on,0,0,0,,,,,,,,,0,,,78,126
248160,note_on,0,0,0,,,,,,,,,0,,,82,126
248160,note_on,13,0,0,,,,,,,,,0,,,73,126
248160,note_on,0,0,1,,,,,,,,,0,,,54,112
248387,note_on,0,0,0,,,,,,,,,0,,,82,0
248387,note_on,0,0,1,,,,,,,,,0,,,54,0
248387,note_on,0,0,0,,,,,,,,,0,,,78,0
248387,note_on,227,0,1,,,,,,,,,0,,,49,0
248387,note_on,0,0,1,,,,,,,,,0,,,61,0
248387,note_on,227,0,0,,,,,,,,,0,,,73,0
248387,note_on,0,0,0,,,,,,,,,0,,,85,0
248387,note_on,0,0,1,,,,,,,,,0,,,58,0
248400,note_on,13,0,0,,,,,,,,,0,,,70,126
248400,note_on,0,0,0,,,,,,,,,0,,,82,126
248400,note_on,0,0,0,,,,,,,,,0,,,73,126
248400,note_on,0,0,0,,,,,,,,,0,,,78,126
248627,note_on,0,0,0,,,,,,,,,0,,,82,0
248627,note_on,0,0,0,,,,,,,,,0,,,78,0
248627,note_on,0,0,0,,,,,,,,,0,,,73,0
248627,note_on,227,0,0,,,,,,,,,0,,,70,0
248640,note_on,0,0,0,,,,,,,,,0,,,78,126
248640,note_on,13,0,0,,,,,,,,,0,,,66,126
248640,note_on,0,0,0,,,,,,,,,0,,,73,126
248640,note_on,0,0,0,,,,,,,,,0,,,70,126
248640,note_on,0,0,1,,,,,,,,,0,,,42,112
248640,note_on,253,0,1,,,,,,,,,0,,,30,112
248641,control_change,1,0,1,,,,,,,64,0,0,,,,
248642,control_change,1,0,1,,,,,,,64,127,0,,,,
248718,note_on,0,0,1,,,,,,,,,0,,,42,0
248718,note_on,76,0,1,,,,,,,,,0,,,30,0
248867,note_on,0,0,0,,,,,,,,,0,,,78,0
248867,note_on,0,0,0,,,,,,,,,0,,,73,0
248867,note_on,0,0,0,,,,,,,,,0,,,70,0
248867,note_on,227,0,0,,,,,,,,,0,,,66,0
248880,note_on,13,0,0,,,,,,,,,0,,,70,126
248880,note_on,0,0,0,,,,,,,,,0,,,78,126
248880,note_on,0,0,0,,,,,,,,,0,,,73,126
248880,note_on,0,0,0,,,,,,,,,0,,,82,126
249107,note_on,227,0,0,,,,,,,,,0,,,70,0
249107,note_on,0,0,0,,,,,,,,,0,,,73,0
249107,note_on,0,0,0,,,,,,,,,0,,,82,0
249107,note_on,0,0,0,,,,,,,,,0,,,78,0
249120,note_on,402,0,1,,,,,,,,,0,,,49,112
249120,note_on,0,0,1,,,,,,,,,0,,,58,112
249120,note_on,13,0,0,,,,,,,,,0,,,73,126
249120,note_on,0,0,1,,,,,,,,,0,,,61,112
249120,note_on,0,0,0,,,,,,,,,0,,,85,126
249120,note_on,0,0,0,,,,,,,,,0,,,82,126
249120,note_on,0,0,0,,,,,,,,,0,,,78,126
249120,note_on,0,0,1,,,,,,,,,0,,,54,112
249271,note_on,0,0,1,,,,,,,,,0,,,61,0
249271,note_on,151,0,1,,,,,,,,,0,,,49,0
249271,note_on,0,0,1,,,,,,,,,0,,,58,0
249271,note_on,0,0,1,,,,,,,,,0,,,54,0
249280,note_on,0,0,1,,,,,,,,,0,,,58,112
249280,note_on,0,0,1,,,,,,,,,0,,,61,112
249280,note_on,9,0,1,,,,,,,,,0,,,49,112
249280,note_on,0,0,1,,,,,,,,,0,,,54,112
249347,note_on,0,0,0,,,,,,,,,0,,,78,0
249347,note_on,227,0,0,,,,,,,,,0,,,73,0
249347,note_on,0,0,0,,,,,,,,,0,,,82,0
249347,note_on,0,0,0,,,,,,,,,0,,,85,0
249360,note_on,13,0,0,,,,,,,,,0,,,75,126
249360,note_on,0,0,0,,,,,,,,,0,,,87,126
249360,note_on,0,0,0,,,,,,,,,0,,,78,126
249360,note_on,0,0,0,,,,,,,,,0,,,82,126
249431,note_on,0,0,1,,,,,,,,,0,,,61,0
249431,note_on,0,0,1,,,,,,,,,0,,,58,0
249431,note_on,0,0,1,,,,,,,,,0,,,54,0
249431,note_on,151,0,1,,,,,,,,,0,,,49,0
249440,note_on,0,0,1,,,,,,,,,0,,,61,112
249440,note_on,0,0,1,,,,,,,,,0,,,54,112
249440,note_on,0,0,1,,,,,,,,,0,,,58,112
249440,note_on,9,0,1,,,,,,,,,0,,,49,112
249587,note_on,0,0,0,,,,,,,,,0,,,78,0
249587,note_on,227,0,0,,,,,,,,,0,,,75,0
249587,note_on,0,0,0,,,,,,,,,0,,,82,0
249587,note_on,0,0,0,,,,,,,,,0,,,87,0
249591,note_on,151,0,1,,,,,,,,,0,,,49,0
249591,note_on,0,0,1,,,,,,,,,0,,,54,0
249591,note_on,0,0,1,,,,,,,,,0,,,61,0
249591,note_on,0,0,1,,,,,,,,,0,,,58,0
249600,note_on,0,0,1,,,,,,,,,0,,,54,112
249600,note_on,0,0,1,,,,,,,,,0,,,58,112
249600,note_on,9,0,1,,,,,,,,,0,,,49,112
249600,note_on,0,0,0,,,,,,,,,0,,,82,126
249600,note_on,0,0,1,,,,,,,,,0,,,61,112
249600,note_on,0,0,0,,,,,,,,,0,,,85,126
249600,note_on,13,0,0,,,,,,,,,0,,,78,126
249600,note_on,0,0,0,,,,,,,,,0,,,90,126
249751,note_on,151,0,1,,,,,,,,,0,,,49,0
249751,note_on,0,0,1,,,,,,,,,0,,,54,0
249751,note_on,0,0,1,,,,,,,,,0,,,58,0
249751,note_on,0,0,1,,,,,,,,,0,,,61,0
249760,note_on,0,0,1,,,,,,,,,0,,,58,112
249760,note_on,0,0,1,,,,,,,,,0,,,61,112
249760,note_on,9,0,1,,,,,,,,,0,,,49,112
249760,note_on,0,0,1,,,,,,,,,0,,,54,112
249827,note_on,0,0,0,,,,,,,,,0,,,90,0
249827,note_on,227,0,0,,,,,,,,,0,,,78,0
249827,note_on,0,0,0,,,,,,,,,0,,,85,0
249827,note_on,0,0,0,,,,,,,,,0,,,82,0
249840,note_on,0,0,0,,,,,,,,,0,,,85,126
249840,note_on,0,0,0,,,,,,,,,0,,,94,126
249840,note_on,0,0,0,,,,,,,,,0,,,90,126
249840,note_on,13,0,0,,,,,,,,,0,,,82,126
249911,note_on,0,0,1,,,,,,,,,0,,,61,0
249911,note_on,0,0,1,,,,,,,,,0,,,58,0
249911,note_on,0,0,1,,,,,,,,,0,,,54,0
249911,note_on,151,0,1,,,,,,,,,0,,,49,0
249920,note_on,0,0,1,,,,,,,,,0,,,58,112
249920,note_on,0,0,1,,,,,,,,,0,,,54,112
249920,note_on,9,0,1,,,,,,,,,0,,,49,112
249920,note_on,0,0,1,,,,,,,,,0,,,61,112
250067,note_on,0,0,0,,,,,,,,,0,,,85,0
250067,note_on,0,0,0,,,,,,,,,0,,,90,0
250067,note_on,227,0,0,,,,,,,,,0,,,82,0
250067,note_on,0,0,0,,,,,,,,,0,,,94,0
250071,note_on,151,0,1,,,,,,,,,0,,,49,0
250071,note_on,0,0,1,,,,,,,,,0,,,61,0
250071,note_on,0,0,1,,,,,,,,,0,,,58,0
250071,note_on,0,0,1,,,,,,,,,0,,,54,0
250080,note_on,0,0,0,,,,,,,,,0,,,97,126
250080,note_on,0,0,0,,,,,,,,,0,,,94,126
250080,note_on,0,0,0,,,,,,,,,0,,,90,126
250080,note_on,13,0,0,,,,,,,,,0,,,85,126
250080,note_on,9,0,1,,,,,,,,,0,,,49,112
250080,note_on,0,0,1,,,,,,,,,0,,,54,112
250080,note_on,0,0,1,,,,,,,,,0,,,58,112
250080,note_on,0,0,1,,,,,,,,,0,,,61,112
250307,note_on,0,0,0,,,,,,,,,0,,,94,0
250307,note_on,0,0,1,,,,,,,,,0,,,54,0
250307,note_on,0,0,1,,,,,,,,,0,,,58,0
250307,note_on,0,0,0,,,,,,,,,0,,,90,0
250307,note_on,227,0,1,,,,,,,,,0,,,49,0
250307,note_on,0,0,0,,,,,,,,,0,,,97,0
250307,note_on,0,0,1,,,,,,,,,0,,,61,0
250307,note_on,227,0,0,,,,,,,,,0,,,85,0
250320,note_on,0,0,0,,,,,,,,,0,,,99,126
250320,note_on,0,0,0,,,,,,,,,0,,,94,126
250320,note_on,13,0,0,,,,,,,,,0,,,87,126
250320,note_on,0,0,0,,,,,,,,,0,,,90,126
250547,note_on,0,0,0,,,,,,,,,0,,,94,0
250547,note_on,227,0,0,,,,,,,,,0,,,87,0
250547,note_on,0,0,0,,,,,,,,,0,,,99,0
250547,note_on,0,0,0,,,,,,,,,0,,,90,0
250560,note_on,253,0,1,,,,,,,,,0,,,42,112
250560,note_on,0,0,0,,,,,,,,,0,,,97,126
250560,note_on,0,0,0,,,,,,,,,0,,,93,126
250560,note_on,0,0,0,,,,,,,,,0,,,90,126
250560,note_on,0,0,0,,,,,,,,,0,,,85,126
250560,set_tempo,13,1,0,,,,,,666667,,,,,,,
250561,control_change,1,0,1,,,,,,,64,0,0,,,,
250562,control_change,1,0,1,,,,,,,64,127,0,,,,
250673,note_on,111,0,1,,,,,,,,,0,,,42,0
250679,note_on,0,0,0,,,,,,,,,0,,,93,0
250679,note_on,119,0,0,,,,,,,,,0,,,85,0
250679,note_on,0,0,0,,,,,,,,,0,,,97,0
250679,note_on,0,0,0,,,,,,,,,0,,,90,0
250680,note_on,7,0,1,,,,,,,,,0,,,49,111
250793,note_on,113,0,1,,,,,,,,,0,,,49,0
250800,note_on,0,0,0,,,,,,,,,0,,,93,124
250800,note_on,7,0,1,,,,,,,,,0,,,54,110
250800,note_on,121,0,0,,,,,,,,,0,,,90,124
250800,note_on,0,0,0,,,,,,,,,0,,,99,124
250913,note_on,113,0,1,,,,,,,,,0,,,54,0
250919,note_on,0,0,0,,,,,,,,,0,,,93,0
250919,note_on,119,0,0,,,,,,,,,0,,,90,0
250919,note_on,0,0,0,,,,,,,,,0,,,99,0
250920,note_on,7,0,1,,,,,,,,,0,,,61,109
251040,note_on,0,0,0,,,,,,,,,0,,,97,121
251040,note_on,0,0,0,,,,,,,,,0,,,93,121
251040,note_on,121,0,0,,,,,,,,,0,,,90,121
251147,note_on,227,0,1,,,,,,,,,0,,,61,0
251159,note_on,119,0,0,,,,,,,,,0,,,90,0
251159,note_on,0,0,0,,,,,,,,,0,,,93,0
251159,note_on,0,0,0,,,,,,,,,0,,,97,0
251160,note_on,13,0,1,,,,,,,,,0,,,54,107
251273,note_on,113,0,1,,,,,,,,,0,,,54,0
251280,note_on,0,0,0,,,,,,,,,0,,,90,118
251280,note_on,7,0,1,,,,,,,,,0,,,49,106
251280,note_on,121,0,0,,,,,,,,,0,,,85,118
251280,note_on,0,0,0,,,,,,,,,0,,,93,118
251393,note_on,113,0,1,,,,,,,,,0,,,49,0
251399,note_on,119,0,0,,,,,,,,,0,,,85,0
251399,note_on,0,0,0,,,,,,,,,0,,,93,0
251399,note_on,0,0,0,,,,,,,,,0,,,90,0
251400,note_on,7,0,1,,,,,,,,,0,,,42,105
251520,note_on,0,0,0,,,,,,,,,0,,,85,115
251520,note_on,0,0,0,,,,,,,,,0,,,81,115
251520,note_on,0,0,0,,,,,,,,,0,,,90,115
251520,set_tempo,121,1,0,,,,,,705881,,,,,,,
251627,note_on,227,0,1,,,,,,,,,0,,,42,0
251639,note_on,119,0,0,,,,,,,,,0,,,81,0
251639,note_on,0,0,0,,,,,,,,,0,,,90,0
251639,note_on,0,0,0,,,,,,,,,0,,,85,0
251640,note_on,13,0,1,,,,,,,,,0,,,49,103
251753,note_on,113,0,1,,,,,,,,,0,,,49,0
251760,note_on,7,0,1,,,,,,,,,0,,,54,102
251760,note_on,0,0,0,,,,,,,,,0,,,87,112
251760,note_on,121,0,0,,,,,,,,,0,,,78,112
251760,note_on,0,0,0,,,,,,,,,0,,,81,112
251873,note_on,113,0,1,,,,,,,,,0,,,54,0
251879,note_on,0,0,0,,,,,,,,,0,,,87,0
251879,note_on,119,0,0,,,,,,,,,0,,,78,0
251879,note_on,0,0,0,,,,,,,,,0,,,81,0
251880,note_on,7,0,1,,,,,,,,,0,,,61,101
252000,note_on,0,0,0,,,,,,,,,0,,,85,109
252000,note_on,0,0,0,,,,,,,,,0,,,81,109
252000,note_on,121,0,0,,,,,,,,,0,,,78,109
252107,note_on,227,0,1,,,,,,,,,0,,,61,0
252119,note_on,0,0,0,,,,,,,,,0,,,85,0
252119,note_on,0,0,0,,,,,,,,,0,,,81,0
252119,note_on,119,0,0,,,,,,,,,0,,,78,0
252120,note_on,13,0,1,,,,,,,,,0,,,54,99
252233,note_on,113,0,1,,,,,,,,,0,,,54,0
252240,note_on,121,0,0,,,,,,,,,0,,,78,106
252240,note_on,0,0,0,,,,,,,,,0,,,87,106
252240,note_on,7,0,1,,,,,,,,,0,,,49,98
252240,note_on,0,0,0,,,,,,,,,0,,,81,106
252353,note_on,113,0,1,,,,,,,,,0,,,49,0
252359,note_on,0,0,0,,,,,,,,,0,,,87,0
252359,note_on,119,0,0,,,,,,,,,0,,,78,0
252359,note_on,0,0,0,,,,,,,,,0,,,81,0
252360,note_on,7,0,1,,,,,,,,,0,,,42,97
252480,note_on,0,0,0,,,,,,,,,0,,,85,103
252480,note_on,0,0,0,,,,,,,,,0,,,81,103
252480,note_on,0,0,0,,,,,,,,,0,,,78,103
252480,set_tempo,121,1,0,,,,,,750002,,,,,,,
252481,control_change,121,0,1,,,,,,,64,0,0,,,,
252482,control_change,1,0,1,,,,,,,64,127,0,,,,
252587,note_on,105,0,1,,,,,,,,,0,,,42,0
252599,note_on,119,0,0,,,,,,,,,0,,,78,0
252599,note_on,0,0,0,,,,,,,,,0,,,81,0
252599,note_on,0,0,0,,,,,,,,,0,,,85,0
252600,note_on,13,0,1,,,,,,,,,0,,,49,95
252713,note_on,113,0,1,,,,,,,,,0,,,49,0
252720,note_on,0,0,0,,,,,,,,,0,,,78,101
252720,note_on,121,0,0,,,,,,,,,0,,,73,101
252720,note_on,0,0,0,,,,,,,,,0,,,81,101
252720,note_on,7,0,1,,,,,,,,,0,,,54,94
252833,note_on,113,0,1,,,,,,,,,0,,,54,0
252839,note_on,0,0,0,,,,,,,,,0,,,81,0
252839,note_on,0,0,0,,,,,,,,,0,,,78,0
252839,note_on,119,0,0,,,,,,,,,0,,,73,0
252840,note_on,7,0,1,,,,,,,,,0,,,61,93
252960,note_on,0,0,0,,,,,,,,,0,,,73,98
252960,note_on,121,0,0,,,,,,,,,0,,,69,98
252960,note_on,0,0,0,,,,,,,,,0,,,78,98
253067,note_on,227,0,1,,,,,,,,,0,,,61,0
253079,note_on,0,0,0,,,,,,,,,0,,,78,0
253079,note_on,0,0,0,,,,,,,,,0,,,73,0
253079,note_on,119,0,0,,,,,,,,,0,,,69,0
253080,note_on,13,0,1,,,,,,,,,0,,,54,91
253193,note_on,113,0,1,,,,,,,,,0,,,54,0
253200,note_on,0,0,0,,,,,,,,,0,,,75,95
253200,note_on,0,0,0,,,,,,,,,0,,,69,95
253200,note_on,7,0,1,,,,,,,,,0,,,49,90
253200,note_on,121,0,0,,,,,,,,,0,,,66,95
253313,note_on,113,0,1,,,,,,,,,0,,,49,0
253319,note_on,0,0,0,,,,,,,,,0,,,69,0
253319,note_on,0,0,0,,,,,,,,,0,,,75,0
253319,note_on,119,0,0,,,,,,,,,0,,,66,0
253320,note_on,7,0,1,,,,,,,,,0,,,42,89
253440,note_on,0,0,0,,,,,,,,,0,,,69,92
253440,note_on,0,0,0,,,,,,,,,0,,,73,92
253440,set_tempo,121,1,0,,,,,,857140,,,,,,,
253440,note_on,0,0,0,,,,,,,,,0,,,66,92
253547,note_on,227,0,1,,,,,,,,,0,,,42,0
253559,note_on,0,0,0,,,,,,,,,0,,,73,0
253559,note_on,0,0,0,,,,,,,,,0,,,69,0
253559,note_on,119,0,0,,,,,,,,,0,,,66,0
253560,note_on,13,0,1,,,,,,,,,0,,,49,87
253673,note_on,113,0,1,,,,,,,,,0,,,49,0
253680,note_on,0,0,0,,,,,,,,,0,,,69,89
253680,note_on,0,0,0,,,,,,,,,0,,,75,89
253680,note_on,7,0,1,,,,,,,,,0,,,54,86
253680,note_on,121,0,0,,,,,,,,,0,,,66,89
253793,note_on,113,0,1,,,,,,,,,0,,,54,0
253799,note_on,119,0,0,,,,,,,,,0,,,66,0
253799,note_on,0,0,0,,,,,,,,,0,,,75,0
253799,note_on,0,0,0,,,,,,,,,0,,,69,0
253800,note_on,7,0,1,,,,,,,,,0,,,61,85
253920,note_on,0,0,0,,,,,,,,,0,,,69,86
253920,set_tempo,121,1,0,,,,,,1200000,,,,,,,
253920,note_on,0,0,0,,,,,,,,,0,,,66,86
253920,note_on,0,0,0,,,,,,,,,0,,,73,86
254027,note_on,227,0,1,,,,,,,,,0,,,61,0
254039,note_on,119,0,0,,,,,,,,,0,,,66,0
254039,note_on,0,0,0,,,,,,,,,0,,,73,0
254039,note_on,0,0,0,,,,,,,,,0,,,69,0
254040,note_on,13,0,1,,,,,,,,,0,,,54,83
254153,note_on,113,0,1,,,,,,,,,0,,,54,0
254160,set_tempo,121,1,0,,,,,,1714287,,,,,,,
254160,note_on,0,0,0,,,,,,,,,0,,,61,83
254160,note_on,0,0,0,,,,,,,,,0,,,66,83
254160,note_on,0,0,0,,,,,,,,,0,,,69,83
254160,note_on,7,0,1,,,,,,,,,0,,,49,82
254273,note_on,113,0,1,,,,,,,,,0,,,49,0
254279,note_on,119,0,0,,,,,,,,,0,,,61,0
254279,note_on,0,0,0,,,,,,,,,0,,,66,0
254279,note_on,0,0,0,,,,,,,,,0,,,69,0
254280,note_on,7,0,1,,,,,,,,,0,,,42,81
254393,note_on,113,0,1,,,,,,,,,0,,,42,0
254400,set_tempo,121,1,0,,,,,,800000,,,,,,,
254400,note_on,0,0,0,,,,,,,,,0,,,56,80
254400,note_on,0,0,0,,,,,,,,,0,,,68,80
254400,note_on,7,0,1,,,,,,,,,0,,,37,80
254400,note_on,0,0,0,,,,,,,,,0,,,65,80
254401,control_change,1,0,1,,,,,,,64,0,0,,,,
254402,control_change,1,0,1,,,,,,,64,127,0,,,,
254513,note_on,111,0,1,,,,,,,,,0,,,37,0
254520,note_on,7,0,1,,,,,,,,,0,,,44,80
254633,note_on,113,0,1,,,,,,,,,0,,,44,0
254640,note_on,7,0,1,,,,,,,,,0,,,49,80
254753,note_on,113,0,1,,,,,,,,,0,,,49,0
254760,note_on,7,0,1,,,,,,,,,0,,,56,80
254760,note_on,360,0,0,,,,,,,,,0,,,56,0
254880,set_tempo,120,1,0,,,,,,750000,,,,,,,
255000,note_on,240,0,1,,,,,,,,,0,,,49,80
255113,note_on,113,0,1,,,,,,,,,0,,,49,0
255120,note_on,7,0,1,,,,,,,,,0,,,44,80
255233,note_on,113,0,1,,,,,,,,,0,,,44,0
255240,note_on,7,0,1,,,,,,,,,0,,,37,80
255311,note_on,71,0,1,,,,,,,,,0,,,56,0
255311,note_on,0,0,0,,,,,,,,,0,,,68,0
255311,note_on,431,0,0,,,,,,,,,0,,,65,0
255360,note_on,0,0,0,,,,,,,,,0,,,68,80
255360,set_tempo,49,1,0,,,,,,705882,,,,,,,
255360,note_on,0,0,0,,,,,,,,,0,,,66,80
255360,note_on,0,0,0,,,,,,,,,0,,,56,80
255467,note_on,156,0,1,,,,,,,,,0,,,37,0
255480,note_on,13,0,1,,,,,,,,,0,,,44,80
255593,note_on,113,0,1,,,,,,,,,0,,,44,0
255600,note_on,7,0,1,,,,,,,,,0,,,49,80
255713,note_on,113,0,1,,,,,,,,,0,,,49,0
255720,note_on,7,0,1,,,,,,,,,0,,,56,80
255720,note_on,360,0,0,,,,,,,,,0,,,56,0
255960,note_on,240,0,1,,,,,,,,,0,,,49,80
256073,note_on,113,0,1,,,,,,,,,0,,,49,0
256080,note_on,7,0,1,,,,,,,,,0,,,44,80
256193,note_on,113,0,1,,,,,,,,,0,,,44,0
256200,note_on,7,0,1,,,,,,,,,0,,,37,80
256271,note_on,551,0,0,,,,,,,,,0,,,66,0
256271,note_on,71,0,1,,,,,,,,,0,,,56,0
256271,note_on,0,0,0,,,,,,,,,0,,,68,0
256320,note_on,0,0,0,,,,,,,,,0,,,56,80
256320,note_on,0,0,0,,,,,,,,,0,,,68,80
256320,set_tempo,49,1,0,,,,,,631580,,,,,,,
256320,note_on,0,0,0,,,,,,,,,0,,,63,80
256321,control_change,50,0,1,,,,,,,64,0,0,,,,
256322,control_change,1,0,1,,,,,,,64,127,0,,,,
256427,note_on,105,0,1,,,,,,,,,0,,,37,0
256440,note_on,13,0,1,,,,,,,,,0,,,44,80
256553,note_on,113,0,1,,,,,,,,,0,,,44,0
256560,note_on,7,0,1,,,,,,,,,0,,,49,80
256673,note_on,113,0,1,,,,,,,,,0,,,49,0
256680,note_on,7,0,1,,,,,,,,,0,,,56,80
256680,note_on,360,0,0,,,,,,,,,0,,,56,0
256920,note_on,240,0,1,,,,,,,,,0,,,49,80
257033,note_on,113,0,1,,,,,,,,,0,,,49,0
257040,note_on,7,0,1,,,,,,,,,0,,,44,80
257153,note_on,113,0,1,,,,,,,,,0,,,44,0
257160,note_on,7,0,1,,,,,,,,,0,,,37,80
257387,note_on,227,0,1,,,,,,,,,0,,,37,0
257400,note_on,13,0,1,,,,,,,,,0,,,44,80
257513,note_on,113,0,1,,,,,,,,,0,,,44,0
257520,note_on,7,0,1,,,,,,,,,0,,,48,80
257633,note_on,113,0,1,,,,,,,,,0,,,48,0
257640,note_on,0,0,1,,,,,,,,,0,,,56,80
257640,note_on,7,0,1,,,,,,,,,0,,,56,0
257687,note_on,1007,0,0,,,,,,,,,0,,,63,0
257687,note_on,0,0,0,,,,,,,,,0,,,68,0
257753,note_on,113,0,1,,,,,,,,,0,,,56,0
257760,note_on,0,0,0,,,,,,,,,0,,,68,80
257760,note_on,7,0,1,,,,,,,,,0,,,37,80
257760,note_on,0,0,0,,,,,,,,,0,,,65,80
257760,note_on,73,0,0,,,,,,,,,0,,,56,80
257873,note_on,113,0,1,,,,,,,,,0,,,37,0
257880,note_on,7,0,1,,,,,,,,,0,,,44,80
257993,note_on,113,0,1,,,,,,,,,0,,,44,0
258000,note_on,7,0,1,,,,,,,,,0,,,49,80
258113,note_on,113,0,1,,,,,,,,,0,,,49,0
258120,note_on,360,0,0,,,,,,,,,0,,,56,0
258120,note_on,7,0,1,,,,,,,,,0,,,56,80
258215,note_on,95,0,0,,,,,,,,,0,,,65,0
258215,note_on,0,0,0,,,,,,,,,0,,,68,0
258233,note_on,113,0,1,,,,,,,,,0,,,56,0
258240,note_on,25,0,0,,,,,,,,,0,,,56,80
258240,note_on,7,0,1,,,,,,,,,0,,,37,80
258240,note_on,0,0,0,,,,,,,,,0,,,66,80
258240,note_on,0,0,0,,,,,,,,,0,,,68,80
258241,control_change,1,0,1,,,,,,,64,0,0,,,,
258242,control_change,1,0,1,,,,,,,64,127,0,,,,
258353,note_on,111,0,1,,,,,,,,,0,,,37,0
258360,note_on,7,0,1,,,,,,,,,0,,,44,80
258473,note_on,113,0,1,,,,,,,,,0,,,44,0
258480,note_on,7,0,1,,,,,,,,,0,,,46,80
258593,note_on,113,0,1,,,,,,,,,0,,,46,0
258600,note_on,7,0,1,,,,,,,,,0,,,56,80
258600,note_on,360,0,0,,,,,,,,,0,,,56,0
258840,note_on,240,0,1,,,,,,,,,0,,,46,80
258953,note_on,113,0,1,,,,,,,,,0,,,46,0
258960,note_on,7,0,1,,,,,,,,,0,,,44,80
259073,note_on,113,0,1,,,,,,,,,0,,,44,0
259080,note_on,7,0,1,,,,,,,,,0,,,37,80
259151,note_on,0,0,0,,,,,,,,,0,,,68,0
259151,note_on,71,0,1,,,,,,,,,0,,,56,0
259151,note_on,551,0,0,,,,,,,,,0,,,66,0
259200,note_on,0,0,0,,,,,,,,,0,,,56,80
259200,set_tempo,49,1,0,,,,,,705881,,,,,,,
259200,note_on,0,0,0,,,,,,,,,0,,,66,80
259200,note_on,0,0,0,,,,,,,,,0,,,70,80
259307,note_on,156,0,1,,,,,,,,,0,,,37,0
259320,note_on,13,0,1,,,,,,,,,0,,,44,80
259433,note_on,113,0,1,,,,,,,,,0,,,44,0
259440,note_on,7,0,1,,,,,,,,,0,,,48,80
259553,note_on,113,0,1,,,,,,,,,0,,,48,0
259560,note_on,360,0,0,,,,,,,,,0,,,56,0
259560,note_on,7,0,1,,,,,,,,,0,,,56,80
259800,note_on,240,0,1,,,,,,,,,0,,,48,80
259913,note_on,113,0,1,,,,,,,,,0,,,48,0
259919,note_on,359,0,0,,,,,,,,,0,,,70,0
259920,note_on,7,0,1,,,,,,,,,0,,,44,80
259920,note_on,1,0,0,,,,,,,,,0,,,68,80
260033,note_on,113,0,1,,,,,,,,,0,,,44,0
260040,note_on,7,0,1,,,,,,,,,0,,,37,80
260147,note_on,227,0,0,,,,,,,,,0,,,68,0
260159,note_on,119,0,1,,,,,,,,,0,,,56,0
260159,note_on,12,0,0,,,,,,,,,0,,,66,0
260160,note_on,1,0,1,,,,,,,,,0,,,53,80
260160,set_tempo,1,1,0,,,,,,666667,,,,,,,
260160,note_on,0,0,1,,,,,,,,,0,,,56,80
260160,note_on,0,0,0,,,,,,,,,0,,,65,96
260161,control_change,1,0,1,,,,,,,64,0,0,,,,
260162,control_change,1,0,1,,,,,,,64,127,0,,,,
260267,note_on,105,0,1,,,,,,,,,0,,,37,0
260280,note_on,13,0,1,,,,,,,,,0,,,44,80
260387,note_on,107,0,1,,,,,,,,,0,,,53,0
260387,note_on,0,0,1,,,,,,,,,0,,,56,0
260393,note_on,6,0,1,,,,,,,,,0,,,44,0
260399,note_on,239,0,0,,,,,,,,,0,,,65,0
260400,note_on,1,0,0,,,,,,,,,0,,,62,80
260400,note_on,7,0,1,,,,,,,,,0,,,47,80
260513,note_on,113,0,1,,,,,,,,,0,,,47,0
260520,note_on,7,0,1,,,,,,,,,0,,,50,80
260639,note_on,239,0,0,,,,,,,,,0,,,62,0
260640,note_on,1,0,0,,,,,,,,,0,,,59,80
260747,note_on,227,0,1,,,,,,,,,0,,,50,0
260760,note_on,13,0,1,,,,,,,,,0,,,47,80
260873,note_on,113,0,1,,,,,,,,,0,,,47,0
260879,note_on,239,0,0,,,,,,,,,0,,,59,0
260880,note_on,1,0,0,,,,,,,,,0,,,56,70
260880,note_on,0,0,1,,,,,,,,,0,,,53,80
260880,note_on,7,0,1,,,,,,,,,0,,,44,80
260993,note_on,113,0,1,,,,,,,,,0,,,44,0
261000,note_on,7,0,1,,,,,,,,,0,,,37,80
261119,note_on,239,0,0,,,,,,,,,0,,,56,0
261120,note_on,1,0,0,,,,,,,,,0,,,55,70
261227,note_on,227,0,1,,,,,,,,,0,,,37,0
261240,note_on,13,0,1,,,,,,,,,0,,,44,80
261335,note_on,95,0,1,,,,,,,,,0,,,53,0
261353,note_on,18,0,1,,,,,,,,,0,,,44,0
261359,note_on,239,0,0,,,,,,,,,0,,,55,0
261360,note_on,7,0,1,,,,,,,,,0,,,47,80
261360,note_on,1,0,0,,,,,,,,,0,,,56,70
261360,note_on,0,0,1,,,,,,,,,0,,,53,80
261473,note_on,113,0,1,,,,,,,,,0,,,47,0
261480,note_on,7,0,1,,,,,,,,,0,,,50,80
261600,note_on,240,0,0,,,,,,,,,0,,,58,71
261707,note_on,227,0,1,,,,,,,,,0,,,50,0
261720,note_on,13,0,1,,,,,,,,,0,,,47,80
261815,note_on,95,0,1,,,,,,,,,0,,,53,0
261833,note_on,18,0,1,,,,,,,,,0,,,47,0
261839,note_on,239,0,0,,,,,,,,,0,,,56,0
261839,note_on,0,0,0,,,,,,,,,0,,,58,0
261840,note_on,0,0,1,,,,,,,,,0,,,56,80
261840,note_on,7,0,1,,,,,,,,,0,,,44,80
261840,note_on,1,0,0,,,,,,,,,0,,,59,72
261840,note_on,0,0,1,,,,,,,,,0,,,53,80
261953,note_on,113,0,1,,,,,,,,,0,,,44,0
261960,note_on,7,0,1,,,,,,,,,0,,,37,80
262080,note_on,240,0,0,,,,,,,,,0,,,61,73
262081,control_change,121,0,1,,,,,,,64,0,0,,,,
262082,control_change,1,0,1,,,,,,,64,127,0,,,,
262187,note_on,105,0,1,,,,,,,,,0,,,37,0
262200,note_on,13,0,1,,,,,,,,,0,,,44,80
262295,note_on,95,0,1,,,,,,,,,0,,,53,0
262295,note_on,0,0,1,,,,,,,,,0,,,56,0
262313,note_on,18,0,1,,,,,,,,,0,,,44,0
262319,note_on,0,0,0,,,,,,,,,0,,,61,0
262319,note_on,239,0,0,,,,,,,,,0,,,59,0
262320,note_on,7,0,1,,,,,,,,,0,,,47,80
262320,note_on,0,0,1,,,,,,,,,0,,,53,80
262320,note_on,1,0,0,,,,,,,,,0,,,62,74
262320,note_on,0,0,1,,,,,,,,,0,,,59,80
262320,note_on,0,0,1,,,,,,,,,0,,,56,80
262433,note_on,113,0,1,,,,,,,,,0,,,47,0
262440,note_on,7,0,1,,,,,,,,,0,,,50,80
262559,note_on,239,0,0,,,,,,,,,0,,,62,0
262560,note_on,1,0,0,,,,,,,,,0,,,64,75
262667,note_on,227,0,1,,,,,,,,,0,,,50,0
262680,note_on,13,0,1,,,,,,,,,0,,,47,80
262775,note_on,0,0,1,,,,,,,,,0,,,59,0
262775,note_on,0,0,1,,,,,,,,,0,,,56,0
262775,note_on,95,0,1,,,,,,,,,0,,,53,0
262793,note_on,18,0,1,,,,,,,,,0,,,47,0
262799,note_on,239,0,0,,,,,,,,,0,,,64,0
262800,note_on,0,0,1,,,,,,,,,0,,,59,80
262800,note_on,0,0,1,,,,,,,,,0,,,56,80
262800,note_on,0,0,1,,,,,,,,,0,,,53,80
262800,note_on,7,0,1,,,,,,,,,0,,,44,80
262800,note_on,1,0,0,,,,,,,,,0,,,65,75
262913,note_on,113,0,1,,,,,,,,,0,,,44,0
262920,note_on,7,0,1,,,,,,,,,0,,,37,80
263027,note_on,0,0,1,,,,,,,,,0,,,59,0
263027,note_on,0,0,1,,,,,,,,,0,,,56,0
263027,note_on,107,0,1,,,,,,,,,0,,,53,0
263039,note_on,239,0,0,,,,,,,,,0,,,65,0
263040,note_on,1,0,0,,,,,,,,,0,,,67,76
263147,note_on,120,0,1,,,,,,,,,0,,,37,0
263160,note_on,13,0,1,,,,,,,,,0,,,44,80
263273,note_on,113,0,1,,,,,,,,,0,,,44,0
263279,note_on,239,0,0,,,,,,,,,0,,,67,0
263280,note_on,7,0,1,,,,,,,,,0,,,47,80
263280,note_on,1,0,0,,,,,,,,,0,,,68,77
263393,note_on,113,0,1,,,,,,,,,0,,,47,0
263400,note_on,7,0,1,,,,,,,,,0,,,50,80
263519,note_on,239,0,0,,,,,,,,,0,,,68,0
263520,note_on,1,0,0,,,,,,,,,0,,,70,78
263627,note_on,227,0,1,,,,,,,,,0,,,50,0
263640,note_on,13,0,1,,,,,,,,,0,,,47,80
263753,note_on,113,0,1,,,,,,,,,0,,,47,0
263759,note_on,239,0,0,,,,,,,,,0,,,70,0
263760,note_on,1,0,0,,,,,,,,,0,,,71,79
263760,note_on,7,0,1,,,,,,,,,0,,,44,80
263873,note_on,113,0,1,,,,,,,,,0,,,44,0
263880,note_on,7,0,1,,,,,,,,,0,,,37,80
263987,note_on,227,0,0,,,,,,,,,0,,,71,0
264000,note_on,0,0,0,,,,,,,,,0,,,73,80
264000,note_on,0,0,0,,,,,,,,,0,,,64,80
264000,note_on,13,0,0,,,,,,,,,0,,,61,80
264001,control_change,121,0,1,,,,,,,64,0,0,,,,
264002,control_change,1,0,1,,,,,,,64,127,0,,,,
264107,note_on,105,0,1,,,,,,,,,0,,,37,0
264120,note_on,13,0,1,,,,,,,,,0,,,45,80
264233,note_on,113,0,1,,,,,,,,,0,,,45,0
264239,note_on,0,0,0,,,,,,,,,0,,,73,0
264239,note_on,0,0,0,,,,,,,,,0,,,64,0
264239,note_on,239,0,0,,,,,,,,,0,,,61,0
264240,note_on,7,0,1,,,,,,,,,0,,,49,80
264240,note_on,1,0,0,,,,,,,,,0,,,69,80
264353,note_on,113,0,1,,,,,,,,,0,,,49,0
264360,note_on,7,0,1,,,,,,,,,0,,,52,80
264479,note_on,239,0,0,,,,,,,,,0,,,69,0
264480,note_on,1,0,0,,,,,,,,,0,,,64,80
264587,note_on,227,0,1,,,,,,,,,0,,,52,0
264600,note_on,13,0,1,,,,,,,,,0,,,49,80
264713,note_on,113,0,1,,,,,,,,,0,,,49,0
264719,note_on,239,0,0,,,,,,,,,0,,,64,0
264720,note_on,7,0,1,,,,,,,,,0,,,45,80
264720,note_on,0,0,1,,,,,,,,,0,,,57,80
264720,note_on,1,0,0,,,,,,,,,0,,,61,80
264833,note_on,113,0,1,,,,,,,,,0,,,45,0
264840,note_on,7,0,1,,,,,,,,,0,,,37,80
264959,note_on,239,0,0,,,,,,,,,0,,,61,0
264960,note_on,1,0,0,,,,,,,,,0,,,60,80
265067,note_on,227,0,1,,,,,,,,,0,,,37,0
265080,note_on,13,0,1,,,,,,,,,0,,,45,80
265175,note_on,95,0,1,,,,,,,,,0,,,57,0
265193,note_on,18,0,1,,,,,,,,,0,,,45,0
265199,note_on,239,0,0,,,,,,,,,0,,,60,0
265200,note_on,1,0,0,,,,,,,,,0,,,61,80
265200,note_on,0,0,1,,,,,,,,,0,,,57,80
265200,note_on,7,0,1,,,,,,,,,0,,,49,80
265313,note_on,113,0,1,,,,,,,,,0,,,49,0
265320,note_on,7,0,1,,,,,,,,,0,,,52,80
265440,note_on,240,0,0,,,,,,,,,0,,,63,80
265547,note_on,227,0,1,,,,,,,,,0,,,52,0
265560,note_on,13,0,1,,,,,,,,,0,,,49,80
265655,note_on,95,0,1,,,,,,,,,0,,,57,0
265673,note_on,18,0,1,,,,,,,,,0,,,49,0
265679,note_on,239,0,0,,,,,,,,,0,,,61,0
265679,note_on,0,0,0,,,,,,,,,0,,,63,0
265680,note_on,0,0,0,,,,,,,,,0,,,61,80
265680,note_on,7,0,1,,,,,,,,,0,,,45,80
265680,note_on,1,0,0,,,,,,,,,0,,,57,80
265680,note_on,0,0,0,,,,,,,,,0,,,64,80
265793,note_on,113,0,1,,,,,,,,,0,,,45,0
265800,note_on,7,0,1,,,,,,,,,0,,,37,80
265919,note_on,239,0,0,,,,,,,,,0,,,64,0
265920,note_on,1,0,0,,,,,,,,,0,,,66,80
265921,control_change,121,0,1,,,,,,,64,0,0,,,,
265922,control_change,1,0,1,,,,,,,64,127,0,,,,
266027,note_on,105,0,1,,,,,,,,,0,,,37,0
266040,note_on,13,0,1,,,,,,,,,0,,,45,80
266153,note_on,113,0,1,,,,,,,,,0,,,45,0
266159,note_on,0,0,0,,,,,,,,,0,,,61,0
266159,note_on,239,0,0,,,,,,,,,0,,,57,0
266159,note_on,0,0,0,,,,,,,,,0,,,66,0
266160,note_on,7,0,1,,,,,,,,,0,,,49,80
266160,note_on,1,0,0,,,,,,,,,0,,,57,80
266160,note_on,0,0,0,,,,,,,,,0,,,68,80
266160,note_on,0,0,0,,,,,,,,,0,,,61,80
266273,note_on,113,0,1,,,,,,,,,0,,,49,0
266280,note_on,7,0,1,,,,,,,,,0,,,52,80
266399,note_on,239,0,0,,,,,,,,,0,,,68,0
266400,note_on,1,0,0,,,,,,,,,0,,,69,80
266507,note_on,227,0,1,,,,,,,,,0,,,52,0
266520,note_on,13,0,1,,,,,,,,,0,,,49,80
266633,note_on,113,0,1,,,,,,,,,0,,,49,0
266639,note_on,239,0,0,,,,,,,,,0,,,57,0
266639,note_on,0,0,0,,,,,,,,,0,,,69,0
266639,note_on,0,0,0,,,,,,,,,0,,,61,0
266640,note_on,7,0,1,,,,,,,,,0,,,45,80
266640,note_on,1,0,0,,,,,,,,,0,,,71,82
266753,note_on,113,0,1,,,,,,,,,0,,,45,0
266760,note_on,7,0,1,,,,,,,,,0,,,37,80
266879,note_on,239,0,0,,,,,,,,,0,,,71,0
266880,note_on,1,0,0,,,,,,,,,0,,,73,85
266987,note_on,227,0,1,,,,,,,,,0,,,37,0
267000,note_on,13,0,1,,,,,,,,,0,,,45,80
267113,note_on,113,0,1,,,,,,,,,0,,,45,0
267119,note_on,239,0,0,,,,,,,,,0,,,73,0
267120,note_on,7,0,1,,,,,,,,,0,,,49,80
267120,note_on,1,0,0,,,,,,,,,0,,,74,88
267233,note_on,113,0,1,,,,,,,,,0,,,49,0
267240,note_on,7,0,1,,,,,,,,,0,,,52,80
267359,note_on,239,0,0,,,,,,,,,0,,,74,0
267360,note_on,1,0,0,,,,,,,,,0,,,75,90
267467,note_on,227,0,1,,,,,,,,,0,,,52,0
267480,note_on,13,0,1,,,,,,,,,0,,,49,80
267593,note_on,113,0,1,,,,,,,,,0,,,49,0
267599,note_on,239,0,0,,,,,,,,,0,,,75,0
267600,note_on,7,0,1,,,,,,,,,0,,,45,80
267600,note_on,1,0,0,,,,,,,,,0,,,76,93
267713,note_on,113,0,1,,,,,,,,,0,,,45,0
267720,note_on,7,0,1,,,,,,,,,0,,,37,80
267827,note_on,227,0,0,,,,,,,,,0,,,76,0
267840,note_on,0,0,0,,,,,,,,,0,,,78,96
267840,note_on,13,0,0,,,,,,,,,0,,,66,96
267840,note_on,0,0,0,,,,,,,,,0,,,69,96
267841,control_change,121,0,1,,,,,,,64,0,0,,,,
267842,control_change,1,0,1,,,,,,,64,127,0,,,,
267947,note_on,105,0,1,,,,,,,,,0,,,37,0
267960,note_on,13,0,1,,,,,,,,,0,,,45,80
268073,note_on,113,0,1,,,,,,,,,0,,,45,0
268079,note_on,239,0,0,,,,,,,,,0,,,66,0
268079,note_on,0,0,0,,,,,,,,,0,,,78,0
268079,note_on,0,0,0,,,,,,,,,0,,,69,0
268080,note_on,7,0,1,,,,,,,,,0,,,50,80
268080,note_on,1,0,0,,,,,,,,,0,,,74,96
268193,note_on,113,0,1,,,,,,,,,0,,,50,0
268200,note_on,7,0,1,,,,,,,,,0,,,54,80
268319,note_on,239,0,0,,,,,,,,,0,,,74,0
268320,note_on,1,0,0,,,,,,,,,0,,,69,96
268427,note_on,227,0,1,,,,,,,,,0,,,54,0
268440,note_on,13,0,1,,,,,,,,,0,,,50,80
268553,note_on,113,0,1,,,,,,,,,0,,,50,0
268559,note_on,239,0,0,,,,,,,,,0,,,69,0
268560,note_on,7,0,1,,,,,,,,,0,,,45,80
268560,note_on,0,0,0,,,,,,,,,0,,,66,96
268560,note_on,1,0,0,,,,,,,,,0,,,62,96
268673,note_on,113,0,1,,,,,,,,,0,,,45,0
268680,note_on,7,0,1,,,,,,,,,0,,,37,80
268799,note_on,239,0,0,,,,,,,,,0,,,66,0
268800,note_on,1,0,0,,,,,,,,,0,,,65,96
268907,note_on,227,0,1,,,,,,,,,0,,,37,0
268920,note_on,13,0,1,,,,,,,,,0,,,45,80
269033,note_on,113,0,1,,,,,,,,,0,,,45,0
269039,note_on,239,0,0,,,,,,,,,0,,,62,0
269039,note_on,0,0,0,,,,,,,,,0,,,65,0
269040,note_on,7,0,1,,,,,,,,,0,,,50,80
269040,note_on,0,0,0,,,,,,,,,0,,,66,96
269040,note_on,1,0,0,,,,,,,,,0,,,62,96
269153,note_on,113,0,1,,,,,,,,,0,,,50,0
269160,note_on,7,0,1,,,,,,,,,0,,,54,80
269280,note_on,240,0,0,,,,,,,,,0,,,68,96
269387,note_on,227,0,1,,,,,,,,,0,,,54,0
269400,note_on,13,0,1,,,,,,,,,0,,,50,80
269513,note_on,113,0,1,,,,,,,,,0,,,50,0
269519,note_on,0,0,0,,,,,,,,,0,,,66,0
269519,note_on,0,0,0,,,,,,,,,0,,,68,0
269519,note_on,239,0,0,,,,,,,,,0,,,62,0
269520,note_on,0,0,0,,,,,,,,,0,,,69,96
269520,note_on,0,0,0,,,,,,,,,0,,,66,96
269520,note_on,1,0,0,,,,,,,,,0,,,62,96
269520,note_on,7,0,1,,,,,,,,,0,,,45,80
269633,note_on,113,0,1,,,,,,,,,0,,,45,0
269640,note_on,7,0,1,,,,,,,,,0,,,37,80
269753,note_on,113,0,1,,,,,,,,,0,,,37,0
269759,note_on,239,0,0,,,,,,,,,0,,,69,0
269760,note_on,1,0,0,,,,,,,,,0,,,71,96
269760,note_on,7,0,1,,,,,,,,,0,,,37,80
269761,control_change,1,0,1,,,,,,,64,0,0,,,,
269762,control_change,1,0,1,,,,,,,64,127,0,,,,
269873,note_on,111,0,1,,,,,,,,,0,,,37,0
269880,note_on,7,0,1,,,,,,,,,0,,,45,80
269993,note_on,113,0,1,,,,,,,,,0,,,45,0
269999,note_on,0,0,0,,,,,,,,,0,,,71,0
269999,note_on,0,0,0,,,,,,,,,0,,,66,0
269999,note_on,239,0,0,,,,,,,,,0,,,62,0
270000,note_on,0,0,0,,,,,,,,,0,,,73,96
270000,note_on,1,0,0,,,,,,,,,0,,,62,96
270000,note_on,0,0,0,,,,,,,,,0,,,66,96
270000,note_on,7,0,1,,,,,,,,,0,,,50,80
270113,note_on,113,0,1,,,,,,,,,0,,,50,0
270120,note_on,7,0,1,,,,,,,,,0,,,54,80
270239,note_on,239,0,0,,,,,,,,,0,,,73,0
270240,note_on,1,0,0,,,,,,,,,0,,,74,96
270347,note_on,227,0,1,,,,,,,,,0,,,54,0
270360,note_on,13,0,1,,,,,,,,,0,,,50,80
270473,note_on,113,0,1,,,,,,,,,0,,,50,0
270479,note_on,0,0,0,,,,,,,,,0,,,66,0
270479,note_on,239,0,0,,,,,,,,,0,,,62,0
270479,note_on,0,0,0,,,,,,,,,0,,,74,0
270480,note_on,7,0,1,,,,,,,,,0,,,45,80
270480,note_on,1,0,0,,,,,,,,,0,,,76,96
270593,note_on,113,0,1,,,,,,,,,0,,,45,0
270599,note_on,119,0,0,,,,,,,,,0,,,76,0
270600,note_on,7,0,1,,,,,,,,,0,,,37,80
270720,note_on,121,0,0,,,,,,,,,0,,,77,96
270827,note_on,227,0,1,,,,,,,,,0,,,37,0
270839,note_on,119,0,0,,,,,,,,,0,,,77,0
270840,note_on,13,0,1,,,,,,,,,0,,,45,80
270953,note_on,113,0,1,,,,,,,,,0,,,45,0
270960,note_on,121,0,0,,,,,,,,,0,,,78,96
270960,note_on,7,0,1,,,,,,,,,0,,,50,80
271073,note_on,113,0,1,,,,,,,,,0,,,50,0
271079,note_on,119,0,0,,,,,,,,,0,,,78,0
271080,note_on,7,0,1,,,,,,,,,0,,,54,80
271200,note_on,121,0,0,,,,,,,,,0,,,79,96
271307,note_on,227,0,1,,,,,,,,,0,,,54,0
271319,note_on,119,0,0,,,,,,,,,0,,,79,0
271320,note_on,13,0,1,,,,,,,,,0,,,50,80
271433,note_on,113,0,1,,,,,,,,,0,,,50,0
271440,note_on,121,0,0,,,,,,,,,0,,,80,96
271440,note_on,7,0,1,,,,,,,,,0,,,45,80
271553,note_on,113,0,1,,,,,,,,,0,,,45,0
271559,note_on,119,0,0,,,,,,,,,0,,,80,0
271560,note_on,7,0,1,,,,,,,,,0,,,37,80
271680,note_on,121,0,0,,,,,,,,,0,,,81,96
271680,note_on,0,0,0,,,,,,,,,0,,,69,96
271680,note_on,0,0,0,,,,,,,,,0,,,72,96
271681,control_change,121,0,1,,,,,,,64,0,0,,,,
271682,control_change,1,0,1,,,,,,,64,127,0,,,,
271787,note_on,105,0,1,,,,,,,,,0,,,37,0
271800,note_on,13,0,1,,,,,,,,,0,,,45,80
271907,note_on,227,0,0,,,,,,,,,0,,,81,0
271913,note_on,113,0,1,,,,,,,,,0,,,45,0
271920,note_on,13,0,0,,,,,,,,,0,,,78,96
271920,note_on,7,0,1,,,,,,,,,0,,,48,80
272033,note_on,113,0,1,,,,,,,,,0,,,48,0
272040,note_on,7,0,1,,,,,,,,,0,,,54,80
272135,note_on,215,0,0,,,,,,,,,0,,,69,0
272135,note_on,0,0,0,,,,,,,,,0,,,72,0
272147,note_on,12,0,0,,,,,,,,,0,,,78,0
272160,note_on,13,0,0,,,,,,,,,0,,,75,96
272267,note_on,227,0,1,,,,,,,,,0,,,54,0
272280,note_on,13,0,1,,,,,,,,,0,,,48,80
272387,note_on,227,0,0,,,,,,,,,0,,,75,0
272393,note_on,113,0,1,,,,,,,,,0,,,48,0
272400,note_on,0,0,0,,,,,,,,,0,,,66,96
272400,note_on,13,0,0,,,,,,,,,0,,,63,96
272400,note_on,0,0,0,,,,,,,,,0,,,72,96
272400,note_on,7,0,1,,,,,,,,,0,,,45,80
272513,note_on,113,0,1,,,,,,,,,0,,,45,0
272520,note_on,7,0,1,,,,,,,,,0,,,37,80
272627,note_on,227,0,0,,,,,,,,,0,,,63,0
272627,note_on,0,0,0,,,,,,,,,0,,,66,0
272627,note_on,0,0,0,,,,,,,,,0,,,72,0
272640,set_tempo,13,1,0,,,,,,705881,,,,,,,
272640,note_on,0,0,0,,,,,,,,,0,,,63,96
272640,note_on,0,0,0,,,,,,,,,0,,,71,96
272640,note_on,0,0,0,,,,,,,,,0,,,66,96
272747,note_on,227,0,1,,,,,,,,,0,,,37,0
272760,note_on,13,0,1,,,,,,,,,0,,,45,80
272867,note_on,0,0,0,,,,,,,,,0,,,71,0
272867,note_on,0,0,0,,,,,,,,,0,,,66,0
272867,note_on,227,0,0,,,,,,,,,0,,,63,0
272873,note_on,113,0,1,,,,,,,,,0,,,45,0
272880,note_on,0,0,0,,,,,,,,,0,,,72,96
272880,note_on,0,0,0,,,,,,,,,0,,,66,96
272880,note_on,7,0,1,,,,,,,,,0,,,48,80
272880,note_on,13,0,0,,,,,,,,,0,,,63,96
272993,note_on,113,0,1,,,,,,,,,0,,,48,0
273000,note_on,7,0,1,,,,,,,,,0,,,54,80
273107,note_on,0,0,0,,,,,,,,,0,,,72,0
273107,note_on,227,0,0,,,,,,,,,0,,,63,0
273107,note_on,0,0,0,,,,,,,,,0,,,66,0
273120,note_on,13,0,0,,,,,,,,,0,,,66,96
273120,note_on,0,0,0,,,,,,,,,0,,,74,96
273120,note_on,0,0,0,,,,,,,,,0,,,69,96
273227,note_on,227,0,1,,,,,,,,,0,,,54,0
273240,note_on,13,0,1,,,,,,,,,0,,,48,80
273347,note_on,0,0,0,,,,,,,,,0,,,74,0
273347,note_on,227,0,0,,,,,,,,,0,,,66,0
273347,note_on,0,0,0,,,,,,,,,0,,,69,0
273353,note_on,113,0,1,,,,,,,,,0,,,48,0
273360,note_on,7,0,1,,,,,,,,,0,,,45,80
273360,note_on,13,0,0,,,,,,,,,0,,,66,96
273360,note_on,0,0,0,,,,,,,,,0,,,75,96
273360,note_on,0,0,0,,,,,,,,,0,,,69,96
273473,note_on,113,0,1,,,,,,,,,0,,,45,0
273480,note_on,7,0,1,,,,,,,,,0,,,37,80
273587,note_on,227,0,0,,,,,,,,,0,,,66,0
273587,note_on,0,0,0,,,,,,,,,0,,,75,0
273587,note_on,0,0,0,,,,,,,,,0,,,69,0
273600,note_on,13,0,0,,,,,,,,,0,,,69,96
273600,note_on,0,0,0,,,,,,,,,0,,,77,96
273600,note_on,0,0,0,,,,,,,,,0,,,72,96
273601,control_change,121,0,1,,,,,,,64,0,0,,,,
273602,control_change,1,0,1,,,,,,,64,127,0,,,,
273707,note_on,105,0,1,,,,,,,,,0,,,37,0
273720,note_on,13,0,1,,,,,,,,,0,,,45,80
273827,note_on,0,0,0,,,,,,,,,0,,,77,0
273827,note_on,227,0,0,,,,,,,,,0,,,69,0
273827,note_on,0,0,0,,,,,,,,,0,,,72,0
273833,note_on,113,0,1,,,,,,,,,0,,,45,0
273840,note_on,13,0,0,,,,,,,,,0,,,69,96
273840,note_on,0,0,0,,,,,,,,,0,,,78,96
273840,note_on,7,0,1,,,,,,,,,0,,,48,80
273840,note_on,0,0,0,,,,,,,,,0,,,72,96
273953,note_on,113,0,1,,,,,,,,,0,,,48,0
273960,note_on,7,0,1,,,,,,,,,0,,,54,80
274067,note_on,0,0,0,,,,,,,,,0,,,78,0
274067,note_on,0,0,0,,,,,,,,,0,,,72,0
274067,note_on,227,0,0,,,,,,,,,0,,,69,0
274080,note_on,0,0,0,,,,,,,,,0,,,75,96
274080,note_on,0,0,0,,,,,,,,,0,,,72,96
274080,set_tempo,13,1,0,,,,,,750002,,,,,,,
274080,note_on,0,0,0,,,,,,,,,0,,,80,96
274187,note_on,227,0,1,,,,,,,,,0,,,54,0
274200,note_on,13,0,1,,,,,,,,,0,,,48,80
274307,note_on,0,0,0,,,,,,,,,0,,,75,0
274307,note_on,0,0,0,,,,,,,,,0,,,80,0
274307,note_on,227,0,0,,,,,,,,,0,,,72,0
274313,note_on,113,0,1,,,,,,,,,0,,,48,0
274320,note_on,0,0,0,,,,,,,,,0,,,75,96
274320,note_on,7,0,1,,,,,,,,,0,,,45,80
274320,note_on,13,0,0,,,,,,,,,0,,,72,96
274320,note_on,0,0,0,,,,,,,,,0,,,81,96
274433,note_on,113,0,1,,,,,,,,,0,,,45,0
274440,note_on,7,0,1,,,,,,,,,0,,,37,80
274547,note_on,0,0,0,,,,,,,,,0,,,75,0
274547,note_on,227,0,0,,,,,,,,,0,,,72,0
274547,note_on,0,0,0,,,,,,,,,0,,,81,0
274560,note_on,0,0,0,,,,,,,,,0,,,75,96
274560,note_on,0,0,0,,,,,,,,,0,,,78,96
274560,note_on,0,0,0,,,,,,,,,0,,,83,96
274560,set_tempo,13,1,0,,,,,,857140,,,,,,,
274667,note_on,227,0,1,,,,,,,,,0,,,37,0
274680,note_on,13,0,1,,,,,,,,,0,,,45,80
274787,note_on,0,0,0,,,,,,,,,0,,,83,0
274787,note_on,227,0,0,,,,,,,,,0,,,75,0
274787,note_on,0,0,0,,,,,,,,,0,,,78,0
274793,note_on,113,0,1,,,,,,,,,0,,,45,0
274800,note_on,0,0,0,,,,,,,,,0,,,84,96
274800,note_on,0,0,0,,,,,,,,,0,,,75,96
274800,note_on,0,0,0,,,,,,,,,0,,,78,96
274800,set_tempo,13,1,0,,,,,,923077,,,,,,,
274800,note_on,7,0,1,,,,,,,,,0,,,48,80
274913,note_on,113,0,1,,,,,,,,,0,,,48,0
274920,note_on,7,0,1,,,,,,,,,0,,,54,80
275027,note_on,227,0,0,,,,,,,,,0,,,75,0
275027,note_on,0,0,0,,,,,,,,,0,,,84,0
275027,note_on,0,0,0,,,,,,,,,0,,,78,0
275040,note_on,0,0,0,,,,,,,,,0,,,86,96
275040,note_on,0,0,0,,,,,,,,,0,,,78,96
275040,set_tempo,13,1,0,,,,,,1090909,,,,,,,
275040,note_on,0,0,0,,,,,,,,,0,,,81,96
275147,note_on,227,0,1,,,,,,,,,0,,,54,0
275160,note_on,13,0,1,,,,,,,,,0,,,48,80
275267,note_on,0,0,0,,,,,,,,,0,,,86,0
275267,note_on,227,0,0,,,,,,,,,0,,,78,0
275267,note_on,0,0,0,,,,,,,,,0,,,81,0
275273,note_on,113,0,1,,,,,,,,,0,,,48,0
275280,note_on,0,0,0,,,,,,,,,0,,,87,96
275280,note_on,7,0,1,,,,,,,,,0,,,45,80
275280,note_on,0,0,0,,,,,,,,,0,,,78,96
275280,set_tempo,13,1,0,,,,,,1500000,,,,,,,
275280,note_on,0,0,0,,,,,,,,,0,,,81,96
275393,note_on,113,0,1,,,,,,,,,0,,,45,0
275400,note_on,7,0,1,,,,,,,,,0,,,37,80
275507,note_on,0,0,0,,,,,,,,,0,,,87,0
275507,note_on,0,0,0,,,,,,,,,0,,,81,0
275507,note_on,227,0,0,,,,,,,,,0,,,78,0
275513,note_on,113,0,1,,,,,,,,,0,,,37,0
275520,note_on,7,0,1,,,,,,,,,0,,,37,80
275520,set_tempo,13,1,0,,,,,,1000000,,,,,,,
275520,note_on,0,0,0,,,,,,,,,0,,,77,96
275521,control_change,1,0,1,,,,,,,64,0,0,,,,
275551,note_on,30,0,1,,,,,,,,,0,,,44,80
275551,note_on,31,0,0,,,,,,,,,0,,,80,96
275583,note_on,32,0,1,,,,,,,,,0,,,53,80
275583,note_on,32,0,0,,,,,,,,,0,,,89,96
275998,note_on,0,0,1,,,,,,,,,0,,,53,0
275998,note_on,415,0,1,,,,,,,,,0,,,44,0
275998,note_on,415,0,0,,,,,,,,,0,,,80,0
275998,note_on,0,0,0,,,,,,,,,0,,,89,0
275999,note_on,1,0,0,,,,,,,,,0,,,77,0
275999,note_on,1,0,1,,,,,,,,,0,,,37,0
276000,set_tempo,1,1,0,,,,,,800000,,,,,,,
276000,note_on,0,0,0,,,,,,,,,0,,,73,96
276000,note_on,1,0,1,,,,,,,,,0,,,41,80
276039,note_on,39,0,1,,,,,,,,,0,,,49,80
276039,note_on,39,0,0,,,,,,,,,0,,,77,96
276079,note_on,40,0,1,,,,,,,,,0,,,56,80
276079,note_on,40,0,0,,,,,,,,,0,,,85,96
276478,note_on,399,0,1,,,,,,,,,0,,,49,0
276478,note_on,0,0,1,,,,,,,,,0,,,56,0
276478,note_on,0,0,0,,,,,,,,,0,,,85,0
276478,note_on,399,0,0,,,,,,,,,0,,,77,0
276479,note_on,1,0,1,,,,,,,,,0,,,41,0
276479,note_on,1,0,0,,,,,,,,,0,,,73,0
276480,note_on,1,0,0,,,,,,,,,0,,,68,96
276480,note_on,1,0,1,,,,,,,,,0,,,44,80
276519,note_on,39,0,1,,,,,,,,,0,,,53,80
276519,note_on,39,0,0,,,,,,,,,0,,,73,96
276559,note_on,40,0,0,,,,,,,,,0,,,80,96
276559,note_on,40,0,1,,,,,,,,,0,,,61,80
276958,note_on,0,0,0,,,,,,,,,0,,,80,0
276958,note_on,0,0,1,,,,,,,,,0,,,61,0
276958,note_on,399,0,1,,,,,,,,,0,,,53,0
276958,note_on,399,0,0,,,,,,,,,0,,,73,0
276959,note_on,1,0,0,,,,,,,,,0,,,68,0
276959,note_on,1,0,1,,,,,,,,,0,,,44,0
276960,note_on,1,0,0,,,,,,,,,0,,,65,96
276960,note_on,1,0,1,,,,,,,,,0,,,49,80
276999,note_on,39,0,1,,,,,,,,,0,,,56,80
276999,note_on,39,0,0,,,,,,,,,0,,,68,96
277039,note_on,40,0,0,,,,,,,,,0,,,77,96
277039,note_on,40,0,1,,,,,,,,,0,,,61,80
277438,note_on,0,0,1,,,,,,,,,0,,,61,0
277438,note_on,399,0,0,,,,,,,,,0,,,68,0
277438,note_on,0,0,0,,,,,,,,,0,,,77,0
277438,note_on,399,0,1,,,,,,,,,0,,,56,0
277439,note_on,1,0,0,,,,,,,,,0,,,65,0
277439,note_on,1,0,1,,,,,,,,,0,,,49,0
277440,note_on,1,0,1,,,,,,,,,0,,,49,80
277440,note_on,1,0,0,,,,,,,,,0,,,64,96
277479,note_on,39,0,1,,,,,,,,,0,,,55,80
277479,note_on,39,0,0,,,,,,,,,0,,,67,96
277519,note_on,40,0,0,,,,,,,,,0,,,76,96
277519,note_on,40,0,1,,,,,,,,,0,,,61,80
277918,note_on,0,0,1,,,,,,,,,0,,,61,0
277918,note_on,399,0,1,,,,,,,,,0,,,55,0
277918,note_on,399,0,0,,,,,,,,,0,,,67,0
277918,note_on,0,0,0,,,,,,,,,0,,,76,0
277919,note_on,1,0,1,,,,,,,,,0,,,49,0
277919,note_on,1,0,0,,,,,,,,,0,,,64,0
277920,note_on,1,0,1,,,,,,,,,0,,,49,80
277920,note_on,1,0,0,,,,,,,,,0,,,65,96
277959,note_on,39,0,1,,,,,,,,,0,,,56,80
277959,note_on,39,0,0,,,,,,,,,0,,,68,96
277999,note_on,40,0,1,,,,,,,,,0,,,61,80
277999,note_on,40,0,0,,,,,,,,,0,,,77,96
278398,note_on,0,0,1,,,,,,,,,0,,,61,0
278398,note_on,0,0,0,,,,,,,,,0,,,77,0
278398,note_on,399,0,0,,,,,,,,,0,,,68,0
278398,note_on,399,0,1,,,,,,,,,0,,,56,0
278399,note_on,1,0,1,,,,,,,,,0,,,49,0
278399,note_on,1,0,0,,,,,,,,,0,,,65,0
278400,note_on,1,0,1,,,,,,,,,0,,,49,80
278400,note_on,1,0,0,,,,,,,,,0,,,66,96
278439,note_on,39,0,0,,,,,,,,,0,,,70,96
278439,note_on,39,0,1,,,,,,,,,0,,,58,80
278479,note_on,40,0,0,,,,,,,,,0,,,78,96
278479,note_on,40,0,1,,,,,,,,,0,,,61,80
278878,note_on,399,0,0,,,,,,,,,0,,,70,0
278878,note_on,399,0,1,,,,,,,,,0,,,58,0
278878,note_on,0,0,1,,,,,,,,,0,,,61,0
278878,note_on,0,0,0,,,,,,,,,0,,,78,0
278879,note_on,1,0,1,,,,,,,,,0,,,49,0
278879,note_on,1,0,0,,,,,,,,,0,,,66,0
278880,note_on,1,0,1,,,,,,,,,0,,,49,80
278880,note_on,1,0,0,,,,,,,,,0,,,67,96
278919,note_on,39,0,0,,,,,,,,,0,,,73,96
278919,note_on,39,0,1,,,,,,,,,0,,,57,80
278959,note_on,40,0,1,,,,,,,,,0,,,64,80
278959,note_on,40,0,0,,,,,,,,,0,,,79,96
279358,note_on,0,0,1,,,,,,,,,0,,,64,0
279358,note_on,399,0,1,,,,,,,,,0,,,57,0
279358,note_on,0,0,0,,,,,,,,,0,,,79,0
279358,note_on,399,0,0,,,,,,,,,0,,,73,0
279359,note_on,1,0,0,,,,,,,,,0,,,67,0
279359,note_on,1,0,1,,,,,,,,,0,,,49,0
279360,note_on,1,0,0,,,,,,,,,0,,,68,96
279360,note_on,1,0,1,,,,,,,,,0,,,49,80
279399,note_on,39,0,0,,,,,,,,,0,,,73,96
279399,note_on,39,0,1,,,,,,,,,0,,,56,80
279439,note_on,40,0,1,,,,,,,,,0,,,65,80
279439,note_on,40,0,0,,,,,,,,,0,,,80,96
279838,note_on,0,0,0,,,,,,,,,0,,,80,0
279838,note_on,399,0,0,,,,,,,,,0,,,73,0
279838,note_on,399,0,1,,,,,,,,,0,,,56,0
279838,note_on,0,0,1,,,,,,,,,0,,,65,0
279839,note_on,1,0,1,,,,,,,,,0,,,49,0
279839,note_on,1,0,0,,,,,,,,,0,,,68,0
279840,note_on,1,0,0,,,,,,,,,0,,,67,96
279840,note_on,1,0,1,,,,,,,,,0,,,49,80
279879,note_on,39,0,1,,,,,,,,,0,,,55,80
279879,note_on,39,0,0,,,,,,,,,0,,,73,96
279919,note_on,40,0,0,,,,,,,,,0,,,76,96
279919,note_on,40,0,1,,,,,,,,,0,,,58,80
279960,note_on,41,0,0,,,,,,,,,0,,,82,96
279960,note_on,41,0,1,,,,,,,,,0,,,64,80
280318,note_on,358,0,0,,,,,,,,,0,,,73,0
280318,note_on,358,0,1,,,,,,,,,0,,,55,0
280318,note_on,0,0,1,,,,,,,,,0,,,58,0
280318,note_on,0,0,0,,,,,,,,,0,,,76,0
280319,note_on,0,0,0,,,,,,,,,0,,,82,0
280319,note_on,0,0,1,,,,,,,,,0,,,64,0
280319,note_on,1,0,0,,,,,,,,,0,,,67,0
280319,note_on,1,0,1,,,,,,,,,0,,,49,0
280320,note_on,1,0,0,,,,,,,,,0,,,69,96
280320,note_on,1,0,1,,,,,,,,,0,,,49,80
280359,note_on,39,0,0,,,,,,,,,0,,,75,96
280359,note_on,39,0,1,,,,,,,,,0,,,54,80
280399,note_on,40,0,0,,,,,,,,,0,,,78,96
280399,note_on,40,0,1,,,,,,,,,0,,,57,80
280440,note_on,41,0,0,,,,,,,,,0,,,84,96
280440,note_on,41,0,1,,,,,,,,,0,,,63,80
280798,note_on,0,0,1,,,,,,,,,0,,,57,0
280798,note_on,358,0,1,,,,,,,,,0,,,54,0
280798,note_on,0,0,0,,,,,,,,,0,,,78,0
280798,note_on,358,0,0,,,,,,,,,0,,,75,0
280799,note_on,0,0,0,,,,,,,,,0,,,84,0
280799,note_on,1,0,1,,,,,,,,,0,,,49,0
280799,note_on,0,0,1,,,,,,,,,0,,,63,0
280799,note_on,1,0,0,,,,,,,,,0,,,69,0
280800,note_on,1,0,1,,,,,,,,,0,,,49,80
280800,note_on,1,0,0,,,,,,,,,0,,,68,96
280839,note_on,39,0,0,,,,,,,,,0,,,77,96
280839,note_on,39,0,1,,,,,,,,,0,,,53,80
280879,note_on,40,0,1,,,,,,,,,0,,,56,80
280879,note_on,40,0,0,,,,,,,,,0,,,80,96
280920,note_on,41,0,1,,,,,,,,,0,,,61,80
280920,note_on,41,0,0,,,,,,,,,0,,,85,96
281278,note_on,358,0,1,,,,,,,,,0,,,53,0
281278,note_on,0,0,0,,,,,,,,,0,,,80,0
281278,note_on,0,0,1,,,,,,,,,0,,,56,0
281278,note_on,358,0,0,,,,,,,,,0,,,77,0
281279,note_on,0,0,0,,,,,,,,,0,,,85,0
281279,note_on,1,0,1,,,,,,,,,0,,,49,0
281279,note_on,0,0,1,,,,,,,,,0,,,61,0
281279,note_on,1,0,0,,,,,,,,,0,,,68,0
281280,note_on,1,0,1,,,,,,,,,0,,,49,80
281280,note_on,1,0,0,,,,,,,,,0,,,72,96
281319,note_on,39,0,1,,,,,,,,,0,,,51,80
281319,note_on,39,0,0,,,,,,,,,0,,,78,96
281359,note_on,40,0,1,,,,,,,,,0,,,56,80
281359,note_on,40,0,0,,,,,,,,,0,,,80,96
281400,note_on,41,0,0,,,,,,,,,0,,,87,96
281400,note_on,41,0,1,,,,,,,,,0,,,60,80
281758,note_on,0,0,1,,,,,,,,,0,,,56,0
281758,note_on,0,0,0,,,,,,,,,0,,,80,0
281758,note_on,358,0,0,,,,,,,,,0,,,78,0
281758,note_on,358,0,1,,,,,,,,,0,,,51,0
281759,note_on,1,0,0,,,,,,,,,0,,,72,0
281759,note_on,0,0,1,,,,,,,,,0,,,60,0
281759,note_on,1,0,1,,,,,,,,,0,,,49,0
281759,note_on,0,0,0,,,,,,,,,0,,,87,0
281760,note_on,1,0,1,,,,,,,,,0,,,49,80
281760,note_on,0,0,0,,,,,,,,,0,,,73,96
281760,set_tempo,1,1,0,,,,,,857143,,,,,,,
281796,note_on,36,0,1,,,,,,,,,0,,,53,80
281796,note_on,36,0,0,,,,,,,,,0,,,77,96
281834,note_on,38,0,1,,,,,,,,,0,,,56,80
281834,note_on,38,0,0,,,,,,,,,0,,,80,96
281871,note_on,37,0,0,,,,,,,,,0,,,89,96
281871,note_on,37,0,1,,,,,,,,,0,,,61,80
282238,note_on,367,0,1,,,,,,,,,0,,,53,0
282238,note_on,0,0,1,,,,,,,,,0,,,56,0
282238,note_on,0,0,1,,,,,,,,,0,,,61,0
282238,note_on,367,0,0,,,,,,,,,0,,,77,0
282238,note_on,0,0,0,,,,,,,,,0,,,89,0
282238,note_on,0,0,0,,,,,,,,,0,,,80,0
282239,note_on,1,0,0,,,,,,,,,0,,,73,0
282239,note_on,1,0,1,,,,,,,,,0,,,49,0
282240,note_on,1,0,1,,,,,,,,,0,,,49,80
282240,set_tempo,1,1,0,,,,,,923077,,,,,,,
282240,note_on,0,0,0,,,,,,,,,0,,,75,96
282274,note_on,34,0,1,,,,,,,,,0,,,54,80
282274,note_on,34,0,0,,,,,,,,,0,,,80,96
282309,note_on,35,0,0,,,,,,,,,0,,,84,96
282309,note_on,35,0,1,,,,,,,,,0,,,56,80
282343,note_on,34,0,1,,,,,,,,,0,,,63,80
282343,note_on,34,0,0,,,,,,,,,0,,,90,96
282718,note_on,0,0,1,,,,,,,,,0,,,56,0
282718,note_on,0,0,1,,,,,,,,,0,,,63,0
282718,note_on,375,0,0,,,,,,,,,0,,,80,0
282718,note_on,375,0,1,,,,,,,,,0,,,54,0
282718,note_on,0,0,0,,,,,,,,,0,,,90,0
282718,note_on,0,0,0,,,,,,,,,0,,,84,0
282719,note_on,1,0,1,,,,,,,,,0,,,49,0
282719,note_on,1,0,0,,,,,,,,,0,,,75,0
282720,note_on,1,0,1,,,,,,,,,0,,,49,80
282720,note_on,0,0,0,,,,,,,,,0,,,72,96
282720,set_tempo,1,1,0,,,,,,1000000,,,,,,,
282751,note_on,31,0,0,,,,,,,,,0,,,78,96
282751,note_on,31,0,1,,,,,,,,,0,,,56,80
282783,note_on,32,0,1,,,,,,,,,0,,,60,80
282783,note_on,32,0,0,,,,,,,,,0,,,80,96
282816,note_on,33,0,1,,,,,,,,,0,,,66,80
282816,note_on,33,0,0,,,,,,,,,0,,,87,96
283198,note_on,382,0,1,,,,,,,,,0,,,56,0
283198,note_on,382,0,0,,,,,,,,,0,,,78,0
283198,note_on,0,0,0,,,,,,,,,0,,,80,0
283198,note_on,0,0,1,,,,,,,,,0,,,60,0
283199,note_on,0,0,0,,,,,,,,,0,,,87,0
283199,note_on,0,0,1,,,,,,,,,0,,,66,0
283199,note_on,1,0,0,,,,,,,,,0,,,72,0
283199,note_on,1,0,1,,,,,,,,,0,,,49,0
283200,note_on,1,0,0,,,,,,,,,0,,,77,96
283200,note_on,1,0,1,,,,,,,,,0,,,37,80
283231,note_on,31,0,0,,,,,,,,,0,,,80,96
283231,note_on,31,0,1,,,,,,,,,0,,,44,80
283263,note_on,32,0,0,,,,,,,,,0,,,89,96
283263,note_on,32,0,1,,,,,,,,,0,,,53,80
283678,note_on,415,0,1,,,,,,,,,0,,,44,0
283678,note_on,0,0,1,,,,,,,,,0,,,53,0
283678,note_on,0,0,0,,,,,,,,,0,,,89,0
283678,note_on,415,0,0,,,,,,,,,0,,,80,0
283679,note_on,1,0,1,,,,,,,,,0,,,37,0
283679,note_on,1,0,0,,,,,,,,,0,,,77,0
283680,set_tempo,1,1,0,,,,,,800000,,,,,,,
283680,note_on,0,0,0,,,,,,,,,0,,,73,96
283680,note_on,1,0,1,,,,,,,,,0,,,41,80
283719,note_on,39,0,1,,,,,,,,,0,,,49,80
283719,note_on,39,0,0,,,,,,,,,0,,,77,96
283759,note_on,40,0,1,,,,,,,,,0,,,56,80
283759,note_on,40,0,0,,,,,,,,,0,,,85,96
284158,note_on,399,0,0,,,,,,,,,0,,,77,0
284158,note_on,399,0,1,,,,,,,,,0,,,49,0
284158,note_on,0,0,1,,,,,,,,,0,,,56,0
284158,note_on,0,0,0,,,,,,,,,0,,,85,0
284159,note_on,1,0,1,,,,,,,,,0,,,41,0
284159,note_on,1,0,0,,,,,,,,,0,,,73,0
284160,note_on,1,0,1,,,,,,,,,0,,,44,80
284160,note_on,1,0,0,,,,,,,,,0,,,68,96
284199,note_on,39,0,1,,,,,,,,,0,,,53,80
284199,note_on,39,0,0,,,,,,,,,0,,,73,96
284239,note_on,40,0,0,,,,,,,,,0,,,80,96
284239,note_on,40,0,1,,,,,,,,,0,,,61,80
284638,note_on,0,0,1,,,,,,,,,0,,,61,0
284638,note_on,399,0,1,,,,,,,,,0,,,53,0
284638,note_on,0,0,0,,,,,,,,,0,,,80,0
284638,note_on,399,0,0,,,,,,,,,0,,,73,0
284639,note_on,1,0,1,,,,,,,,,0,,,44,0
284639,note_on,1,0,0,,,,,,,,,0,,,68,0
284640,note_on,1,0,1,,,,,,,,,0,,,49,80
284640,note_on,1,0,0,,,,,,,,,0,,,65,96
284679,note_on,39,0,1,,,,,,,,,0,,,56,80
284679,note_on,39,0,0,,,,,,,,,0,,,68,96
284719,note_on,40,0,0,,,,,,,,,0,,,77,96
284719,note_on,40,0,1,,,,,,,,,0,,,61,80
285118,note_on,399,0,0,,,,,,,,,0,,,68,0
285118,note_on,399,0,1,,,,,,,,,0,,,56,0
285118,note_on,0,0,0,,,,,,,,,0,,,77,0
285118,note_on,0,0,1,,,,,,,,,0,,,61,0
285119,note_on,1,0,0,,,,,,,,,0,,,65,0
285119,note_on,1,0,1,,,,,,,,,0,,,49,0
285120,note_on,1,0,1,,,,,,,,,0,,,49,80
285120,note_on,1,0,0,,,,,,,,,0,,,64,96
285159,note_on,39,0,1,,,,,,,,,0,,,55,80
285159,note_on,39,0,0,,,,,,,,,0,,,67,96
285199,note_on,40,0,0,,,,,,,,,0,,,76,96
285199,note_on,40,0,1,,,,,,,,,0,,,61,80
285598,note_on,0,0,0,,,,,,,,,0,,,76,0
285598,note_on,0,0,1,,,,,,,,,0,,,61,0
285598,note_on,399,0,1,,,,,,,,,0,,,55,0
285598,note_on,399,0,0,,,,,,,,,0,,,67,0
285599,note_on,1,0,1,,,,,,,,,0,,,49,0
285599,note_on,1,0,0,,,,,,,,,0,,,64,0
285600,note_on,1,0,1,,,,,,,,,0,,,49,80
285600,note_on,1,0,0,,,,,,,,,0,,,65,96
285639,note_on,39,0,1,,,,,,,,,0,,,56,80
285639,note_on,39,0,0,,,,,,,,,0,,,68,96
285679,note_on,40,0,0,,,,,,,,,0,,,77,96
285679,note_on,40,0,1,,,,,,,,,0,,,61,80
286078,note_on,399,0,0,,,,,,,,,0,,,68,0
286078,note_on,399,0,1,,,,,,,,,0,,,56,0
286078,note_on,0,0,1,,,,,,,,,0,,,61,0
286078,note_on,0,0,0,,,,,,,,,0,,,77,0
286079,note_on,1,0,0,,,,,,,,,0,,,65,0
286079,note_on,1,0,1,,,,,,,,,0,,,49,0
286080,note_on,0,0,0,,,,,,,,,0,,,66,96
286080,set_tempo,1,1,0,,,,,,857140,,,,,,,
286080,note_on,1,0,1,,,,,,,,,0,,,49,80
286116,note_on,36,0,0,,,,,,,,,0,,,70,96
286116,note_on,36,0,1,,,,,,,,,0,,,58,80
286154,note_on,38,0,1,,,,,,,,,0,,,61,80
286154,note_on,38,0,0,,,,,,,,,0,,,78,96
286558,note_on,404,0,1,,,,,,,,,0,,,58,0
286558,note_on,404,0,0,,,,,,,,,0,,,70,0
286558,note_on,0,0,0,,,,,,,,,0,,,78,0
286558,note_on,0,0,1,,,,,,,,,0,,,61,0
286559,note_on,1,0,0,,,,,,,,,0,,,66,0
286559,note_on,1,0,1,,,,,,,,,0,,,49,0
286560,note_on,1,0,0,,,,,,,,,0,,,67,96
286560,note_on,1,0,1,,,,,,,,,0,,,49,80
286596,note_on,36,0,0,,,,,,,,,0,,,73,96
286596,note_on,36,0,1,,,,,,,,,0,,,57,80
286634,note_on,38,0,1,,,,,,,,,0,,,64,80
286634,note_on,38,0,0,,,,,,,,,0,,,79,96
287038,note_on,0,0,0,,,,,,,,,0,,,79,0
287038,note_on,0,0,1,,,,,,,,,0,,,64,0
287038,note_on,404,0,0,,,,,,,,,0,,,73,0
287038,note_on,404,0,1,,,,,,,,,0,,,57,0
287039,note_on,1,0,1,,,,,,,,,0,,,49,0
287039,note_on,1,0,0,,,,,,,,,0,,,67,0
287040,note_on,1,0,1,,,,,,,,,0,,,49,80
287040,set_tempo,1,1,0,,,,,,1200000,,,,,,,
287042,control_change,2,0,1,,,,,,,64,127,0,,,,
287068,note_on,26,0,1,,,,,,,,,0,,,56,80
287097,note_on,29,0,1,,,,,,,,,0,,,65,80
287126,note_on,86,0,0,,,,,,,,,0,,,68,96
287155,note_on,29,0,0,,,,,,,,,0,,,73,96
287184,note_on,29,0,0,,,,,,,,,0,,,80,96
288958,note_on,1774,0,0,,,,,,,,,0,,,68,0
288958,note_on,1861,0,1,,,,,,,,,0,,,56,0
288958,note_on,0,0,0,,,,,,,,,0,,,73,0
288958,note_on,0,0,1,,,,,,,,,0,,,65,0
288959,note_on,1,0,1,,,,,,,,,0,,,49,0
288959,note_on,1,0,0,,,,,,,,,0,,,80,0
288960,note_on,1,0,1,,,,,,,,,0,,,46,80
288961,control_change,1,0,1,,,,,,,64,0,0,,,,
288962,control_change,1,0,1,,,,,,,64,127,0,,,,
288988,note_on,26,0,1,,,,,,,,,0,,,53,80
289017,note_on,29,0,1,,,,,,,,,0,,,61,80
289046,note_on,87,0,0,,,,,,,,,0,,,70,96
289075,note_on,29,0,0,,,,,,,,,0,,,77,96
289104,note_on,29,0,0,,,,,,,,,0,,,85,96
290878,note_on,1774,0,0,,,,,,,,,0,,,70,0
290878,note_on,0,0,0,,,,,,,,,0,,,77,0
290878,note_on,0,0,1,,,,,,,,,0,,,61,0
290878,note_on,1861,0,1,,,,,,,,,0,,,53,0
290879,note_on,1,0,1,,,,,,,,,0,,,46,0
290879,note_on,1,0,0,,,,,,,,,0,,,85,0
290880,note_on,1,0,1,,,,,,,,,0,,,41,80
290881,control_change,1,0,1,,,,,,,64,0,0,,,,
290882,control_change,1,0,1,,,,,,,64,127,0,,,,
290908,note_on,26,0,1,,,,,,,,,0,,,48,80
290937,note_on,29,0,1,,,,,,,,,0,,,53,80
290966,note_on,29,0,1,,,,,,,,,0,,,56,80
290995,note_on,116,0,0,,,,,,,,,0,,,72,96
291024,note_on,29,0,0,,,,,,,,,0,,,77,96
291052,note_on,28,0,0,,,,,,,,,0,,,80,96
291081,note_on,29,0,0,,,,,,,,,0,,,89,96
292798,note_on,0,0,1,,,,,,,,,0,,,56,0
292798,note_on,1717,0,0,,,,,,,,,0,,,72,0
292798,note_on,0,0,1,,,,,,,,,0,,,53,0
292798,note_on,1832,0,1,,,,,,,,,0,,,48,0
292798,note_on,0,0,0,,,,,,,,,0,,,80,0
292798,note_on,0,0,0,,,,,,,,,0,,,89,0
292799,note_on,1,0,0,,,,,,,,,0,,,77,0
292799,note_on,1,0,1,,,,,,,,,0,,,41,0
292800,time_signature,1,1,0,23,8,24,8,,,,,,,,,
292800,note_on,1,0,1,,,,,,,,,0,,,32,80
292801,control_change,1,0,1,,,,,,,64,0,0,,,,
292802,control_change,1,0,1,,,,,,,64,127,0,,,,
293027,note_on,225,0,1,,,,,,,,,0,,,32,0
293040,note_on,13,0,1,,,,,,,,,0,,,36,80
293040,set_tempo,240,1,0,,,,,,375000,,,,,,,
293267,note_on,227,0,1,,,,,,,,,0,,,36,0
293280,note_on,13,0,1,,,,,,,,,0,,,42,80
293507,note_on,227,0,1,,,,,,,,,0,,,42,0
293520,note_on,13,0,1,,,,,,,,,0,,,44,80
293747,note_on,227,0,1,,,,,,,,,0,,,44,0
293760,set_tempo,720,1,0,,,,,,187500,,,,,,,
293760,note_on,13,0,1,,,,,,,,,0,,,48,80
293987,note_on,227,0,1,,,,,,,,,0,,,48,0
294000,note_on,13,0,1,,,,,,,,,0,,,51,80
294227,note_on,227,0,1,,,,,,,,,0,,,51,0
294240,note_on,13,0,1,,,,,,,,,0,,,56,80
294467,note_on,227,0,1,,,,,,,,,0,,,56,0
294480,note_on,13,0,1,,,,,,,,,0,,,60,80
294707,note_on,227,0,1,,,,,,,,,0,,,60,0
294720,note_on,13,0,1,,,,,,,,,0,,,63,80
294947,note_on,227,0,1,,,,,,,,,0,,,63,0
294960,note_on,13,0,1,,,,,,,,,0,,,66,80
295187,note_on,227,0,1,,,,,,,,,0,,,66,0
295200,note_on,13,0,1,,,,,,,,,0,,,68,80
295427,note_on,227,0,1,,,,,,,,,0,,,68,0
295440,note_on,13,0,1,,,,,,,,,0,,,72,80
295667,note_on,227,0,1,,,,,,,,,0,,,72,0
295680,note_on,13,0,1,,,,,,,,,0,,,78,80
295907,note_on,227,0,1,,,,,,,,,0,,,78,0
295920,note_on,13,0,1,,,,,,,,,0,,,80,80
296147,note_on,227,0,1,,,,,,,,,0,,,80,0
296160,note_on,13,0,1,,,,,,,,,0,,,84,80
296387,note_on,227,0,1,,,,,,,,,0,,,84,0
296400,set_tempo,2640,1,0,,,,,,1125003,,,,,,,
296400,note_on,0,0,0,,,,,,,,,0,,,92,96
298223,note_on,1823,0,0,,,,,,,,,0,,,92,0
298319,set_tempo,96,1,0,,,,,,750002,,,,,,,
298320,set_tempo,0,1,0,,,,,,1200000,,,,,,,
298320,time_signature,1,1,0,20,8,24,8,,,,,,,,,
298320,note_on,1933,0,1,,,,,,,,,0,,,25,80
298321,control_change,1,0,1,,,,,,,64,0,0,,,,
298322,control_change,1,0,1,,,,,,,64,127,0,,,,
298346,note_on,24,0,1,,,,,,,,,0,,,37,80
298558,note_on,212,0,1,,,,,,,,,0,,,37,0
298559,note_on,1,0,1,,,,,,,,,0,,,25,0
298560,note_on,1,0,1,,,,,,,,,0,,,41,80
298560,set_tempo,240,1,0,,,,,,375000,,,,,,,
298787,note_on,227,0,1,,,,,,,,,0,,,41,0
298800,note_on,13,0,1,,,,,,,,,0,,,44,80
299027,note_on,227,0,1,,,,,,,,,0,,,44,0
299040,note_on,13,0,1,,,,,,,,,0,,,49,80
299267,note_on,227,0,1,,,,,,,,,0,,,49,0
299280,note_on,13,0,1,,,,,,,,,0,,,53,80
299507,note_on,227,0,1,,,,,,,,,0,,,53,0
299520,set_tempo,960,1,0,,,,,,250000,,,,,,,
299520,note_on,13,0,1,,,,,,,,,0,,,56,80
299747,note_on,227,0,1,,,,,,,,,0,,,56,0
299760,note_on,13,0,1,,,,,,,,,0,,,61,80
299987,note_on,227,0,1,,,,,,,,,0,,,61,0
300000,note_on,13,0,1,,,,,,,,,0,,,65,80
300227,note_on,227,0,1,,,,,,,,,0,,,65,0
300240,note_on,13,0,1,,,,,,,,,0,,,68,80
300240,set_tempo,720,1,0,,,,,,187500,,,,,,,
300467,note_on,227,0,1,,,,,,,,,0,,,68,0
300480,note_on,13,0,1,,,,,,,,,0,,,73,80
300707,note_on,227,0,1,,,,,,,,,0,,,73,0
300720,note_on,13,0,1,,,,,,,,,0,,,77,80
300947,note_on,227,0,1,,,,,,,,,0,,,77,0
300960,note_on,13,0,1,,,,,,,,,0,,,80,80
301187,note_on,227,0,1,,,,,,,,,0,,,80,0
301200,set_tempo,960,1,0,,,,,,750002,,,,,,,
301200,note_on,0,0,0,,,,,,,,,0,,,85,96
301282,note_on,82,0,0,,,,,,,,,0,,,89,96
301367,note_on,85,0,0,,,,,,,,,0,,,92,96
301455,note_on,88,0,0,,,,,,,,,0,,,97,96
303118,note_on,1663,0,0,,,,,,,,,0,,,89,0
303118,note_on,0,0,0,,,,,,,,,0,,,97,0
303118,note_on,0,0,0,,,,,,,,,0,,,92,0
303119,note_on,1,0,0,,,,,,,,,0,,,85,0
303120,set_tempo,0,1,0,,,,,,1200000,,,,,,,
303120,time_signature,1,1,0,4,4,24,8,,,,,,,,,
303600,note_on,480,0,0,,,,,,,,,0,,,49,96
303600,note_on,2413,0,1,,,,,,,,,0,,,37,80
303600,note_on,0,0,0,,,,,,,,,0,,,53,96
303600,note_on,0,0,1,,,,,,,,,0,,,44,80
304511,note_on,911,0,1,,,,,,,,,0,,,37,0
304511,note_on,0,0,1,,,,,,,,,0,,,44,0
304559,note_on,959,0,0,,,,,,,,,0,,,49,0
304559,note_on,0,0,0,,,,,,,,,0,,,53,0
304560,note_on,49,0,1,,,,,,,,,0,,,37,80
304560,note_on,1,0,0,,,,,,,,,0,,,49,96
304560,note_on,0,0,1,,,,,,,,,0,,,44,80
304560,note_on,0,0,0,,,,,,,,,0,,,53,96
305015,note_on,0,0,1,,,,,,,,,0,,,44,0
305015,note_on,455,0,1,,,,,,,,,0,,,37,0
305039,note_on,0,0,0,,,,,,,,,0,,,53,0
305039,note_on,479,0,0,,,,,,,,,0,,,49,0
305040,note_on,1,0,0,,,,,,,,,0,,,49,96
305040,note_on,0,0,0,,,,,,,,,0,,,53,96
305040,note_on,25,0,1,,,,,,,,,0,,,37,80
305040,note_on,0,0,1,,,,,,,,,0,,,44,80
306863,note_on,1823,0,0,,,,,,,,,0,,,49,0
306863,note_on,0,0,0,,,,,,,,,0,,,53,0
306863,note_on,0,0,1,,,,,,,,,0,,,44,0
306863,note_on,1823,0,1,,,,,,,,,0,,,37,0
306864,end_of_track,1,1,0,,,,,,,,,,,,,
306960,control_change,97,0,1,,,,,,,64,0,0,,,,
306961,end_of_track,1,1,1,,,,,,,,,,,,,
