tick,type,time,meta,track,numerator,denominator,clocks_per_click,notated_32nd_notes_per_beat,key,tempo,control,value,channel,program,port,note,velocity
0,control_change,0,0,0,,,,,,,7,100,0,,,,
0,time_signature,0,1,0,6,8,24,8,,,,,,,,,
0,set_tempo,0,1,0,,,,,,1499999,,,,,,,
0,program_change,0,0,0,,,,,,,,,0,0,,,
0,track_name,0,1,0,,,,,,,,,,,,,
0,midi_port,0,1,1,,,,,,,,,,,0,,
0,midi_port,0,1,0,,,,,,,,,,,0,,
0,key_signature,0,1,1,,,,,Db,,,,,,,,
0,key_signature,0,1,0,,,,,Db,,,,,,,,
0,track_name,0,1,1,,,,,,,,,,,,,
0,control_change,0,0,0,,,,,,,10,64,0,,,,
0,control_change,0,0,0,,,,,,,93,0,0,,,,
0,control_change,0,0,0,,,,,,,91,0,0,,,,
0,control_change,0,0,0,,,,,,,121,0,0,,,,
2,control_change,2,0,1,,,,,,,64,127,0,,,,
240,note_on,240,0,0,,,,,,,,,0,,,61,60
240,note_on,0,0,0,,,,,,,,,0,,,73,70
267,note_on,27,0,0,,,,,,,,,0,,,61,0
270,note_on,3,0,0,,,,,,,,,0,,,65,60
297,note_on,27,0,0,,,,,,,,,0,,,65,0
300,note_on,3,0,0,,,,,,,,,0,,,61,60
327,note_on,27,0,0,,,,,,,,,0,,,61,0
330,note_on,3,0,0,,,,,,,,,0,,,65,60
357,note_on,27,0,0,,,,,,,,,0,,,65,0
360,note_on,3,0,0,,,,,,,,,0,,,61,60
387,note_on,27,0,0,,,,,,,,,0,,,61,0
390,note_on,3,0,0,,,,,,,,,0,,,65,60
417,note_on,27,0,0,,,,,,,,,0,,,65,0
420,note_on,3,0,0,,,,,,,,,0,,,61,60
447,note_on,27,0,0,,,,,,,,,0,,,61,0
450,note_on,3,0,0,,,,,,,,,0,,,65,60
477,note_on,27,0,0,,,,,,,,,0,,,65,0
479,note_on,2,0,0,,,,,,,,,0,,,73,0
480,set_tempo,1,1,0,,,,,,1200000,,,,,,,
480,note_on,0,0,0,,,,,,,,,0,,,72,70
480,note_on,0,0,0,,,,,,,,,0,,,61,60
507,note_on,27,0,0,,,,,,,,,0,,,61,0
510,note_on,3,0,0,,,,,,,,,0,,,65,60
537,note_on,27,0,0,,,,,,,,,0,,,65,0
540,note_on,3,0,0,,,,,,,,,0,,,61,60
567,note_on,27,0,0,,,,,,,,,0,,,61,0
570,note_on,3,0,0,,,,,,,,,0,,,65,60
597,note_on,27,0,0,,,,,,,,,0,,,65,0
600,note_on,3,0,0,,,,,,,,,0,,,61,60
627,note_on,27,0,0,,,,,,,,,0,,,61,0
630,note_on,3,0,0,,,,,,,,,0,,,65,60
657,note_on,27,0,0,,,,,,,,,0,,,65,0
660,note_on,3,0,0,,,,,,,,,0,,,61,60
687,note_on,27,0,0,,,,,,,,,0,,,61,0
690,note_on,3,0,0,,,,,,,,,0,,,65,60
717,note_on,27,0,0,,,,,,,,,0,,,65,0
719,note_on,2,0,0,,,,,,,,,0,,,72,0
720,note_on,0,0,0,,,,,,,,,0,,,70,70
720,note_on,1,0,0,,,,,,,,,0,,,61,60
747,note_on,27,0,0,,,,,,,,,0,,,61,0
750,note_on,3,0,0,,,,,,,,,0,,,65,60
777,note_on,27,0,0,,,,,,,,,0,,,65,0
780,note_on,3,0,0,,,,,,,,,0,,,61,60
807,note_on,27,0,0,,,,,,,,,0,,,61,0
810,note_on,3,0,0,,,,,,,,,0,,,65,60
837,note_on,27,0,0,,,,,,,,,0,,,65,0
840,note_on,3,0,0,,,,,,,,,0,,,61,60
867,note_on,27,0,0,,,,,,,,,0,,,61,0
870,note_on,3,0,0,,,,,,,,,0,,,65,60
897,note_on,27,0,0,,,,,,,,,0,,,65,0
900,note_on,3,0,0,,,,,,,,,0,,,61,60
927,note_on,27,0,0,,,,,,,,,0,,,61,0
930,note_on,3,0,0,,,,,,,,,0,,,65,60
957,note_on,27,0,0,,,,,,,,,0,,,65,0
959,note_on,2,0,0,,,,,,,,,0,,,70,0
960,note_on,0,0,0,,,,,,,,,0,,,69,70
960,note_on,1,0,0,,,,,,,,,0,,,61,60
987,note_on,27,0,0,,,,,,,,,0,,,61,0
990,note_on,3,0,0,,,,,,,,,0,,,65,60
1017,note_on,27,0,0,,,,,,,,,0,,,65,0
1020,note_on,3,0,0,,,,,,,,,0,,,61,60
1047,note_on,27,0,0,,,,,,,,,0,,,61,0
1050,note_on,3,0,0,,,,,,,,,0,,,65,60
1077,note_on,27,0,0,,,,,,,,,0,,,65,0
1080,note_on,3,0,0,,,,,,,,,0,,,61,60
1107,note_on,27,0,0,,,,,,,,,0,,,61,0
1110,note_on,3,0,0,,,,,,,,,0,,,65,60
1137,note_on,27,0,0,,,,,,,,,0,,,65,0
1140,note_on,3,0,0,,,,,,,,,0,,,61,60
1167,note_on,27,0,0,,,,,,,,,0,,,61,0
1170,note_on,3,0,0,,,,,,,,,0,,,65,60
1197,note_on,27,0,0,,,,,,,,,0,,,65,0
1199,note_on,2,0,0,,,,,,,,,0,,,69,0
1200,note_on,1,0,0,,,,,,,,,0,,,61,60
1200,note_on,0,0,0,,,,,,,,,0,,,70,70
1227,note_on,27,0,0,,,,,,,,,0,,,61,0
1230,note_on,3,0,0,,,,,,,,,0,,,65,60
1257,note_on,27,0,0,,,,,,,,,0,,,65,0
1260,note_on,3,0,0,,,,,,,,,0,,,61,60
1287,note_on,27,0,0,,,,,,,,,0,,,61,0
1290,note_on,3,0,0,,,,,,,,,0,,,65,60
1317,note_on,27,0,0,,,,,,,,,0,,,65,0
1320,note_on,3,0,0,,,,,,,,,0,,,61,60
1347,note_on,27,0,0,,,,,,,,,0,,,61,0
1350,note_on,3,0,0,,,,,,,,,0,,,65,60
1377,note_on,27,0,0,,,,,,,,,0,,,65,0
1380,note_on,3,0,0,,,,,,,,,0,,,61,60
1407,note_on,27,0,0,,,,,,,,,0,,,61,0
1410,note_on,3,0,0,,,,,,,,,0,,,65,60
1437,note_on,27,0,0,,,,,,,,,0,,,65,0
1439,note_on,2,0,0,,,,,,,,,0,,,70,0
1440,note_on,0,0,0,,,,,,,,,0,,,63,60
1440,note_on,0,0,0,,,,,,,,,0,,,75,70
1440,set_tempo,1,1,0,,,,,,1499999,,,,,,,
1441,control_change,1439,0,1,,,,,,,64,0,0,,,,
1442,control_change,1,0,1,,,,,,,64,127,0,,,,
1466,note_on,26,0,0,,,,,,,,,0,,,63,0
1469,note_on,3,0,0,,,,,,,,,0,,,66,60
1495,note_on,26,0,0,,,,,,,,,0,,,66,0
1499,note_on,4,0,0,,,,,,,,,0,,,63,60
1525,note_on,26,0,0,,,,,,,,,0,,,63,0
1528,note_on,3,0,0,,,,,,,,,0,,,66,60
1554,note_on,26,0,0,,,,,,,,,0,,,66,0
1558,note_on,4,0,0,,,,,,,,,0,,,63,60
1584,note_on,26,0,0,,,,,,,,,0,,,63,0
1587,note_on,3,0,0,,,,,,,,,0,,,66,60
1613,note_on,26,0,0,,,,,,,,,0,,,66,0
1617,note_on,4,0,0,,,,,,,,,0,,,63,60
1643,note_on,26,0,0,,,,,,,,,0,,,63,0
1646,note_on,3,0,0,,,,,,,,,0,,,66,60
1672,note_on,26,0,0,,,,,,,,,0,,,66,0
1676,note_on,4,0,0,,,,,,,,,0,,,63,60
1680,note_on,238,0,1,,,,,,,,,0,,,59,70
1702,note_on,26,0,0,,,,,,,,,0,,,63,0
1705,note_on,3,0,0,,,,,,,,,0,,,66,60
1731,note_on,26,0,0,,,,,,,,,0,,,66,0
1735,note_on,4,0,0,,,,,,,,,0,,,63,60
1758,note_on,78,0,1,,,,,,,,,0,,,59,0
1761,note_on,26,0,0,,,,,,,,,0,,,63,0
1764,note_on,3,0,0,,,,,,,,,0,,,66,60
1790,note_on,26,0,0,,,,,,,,,0,,,66,0
1794,note_on,4,0,0,,,,,,,,,0,,,63,60
1820,note_on,26,0,0,,,,,,,,,0,,,63,0
1823,note_on,3,0,0,,,,,,,,,0,,,66,60
1849,note_on,26,0,0,,,,,,,,,0,,,66,0
1853,note_on,4,0,0,,,,,,,,,0,,,63,60
1879,note_on,26,0,0,,,,,,,,,0,,,63,0
1882,note_on,3,0,0,,,,,,,,,0,,,66,60
1908,note_on,26,0,0,,,,,,,,,0,,,66,0
1912,note_on,4,0,0,,,,,,,,,0,,,63,60
1920,set_tempo,8,1,0,,,,,,1200000,,,,,,,
1920,note_on,162,0,1,,,,,,,,,0,,,58,70
1938,note_on,18,0,0,,,,,,,,,0,,,63,0
1941,note_on,3,0,0,,,,,,,,,0,,,66,60
1967,note_on,26,0,0,,,,,,,,,0,,,66,0
1971,note_on,4,0,0,,,,,,,,,0,,,63,60
1997,note_on,26,0,0,,,,,,,,,0,,,63,0
1998,note_on,78,0,1,,,,,,,,,0,,,58,0
2000,note_on,3,0,0,,,,,,,,,0,,,66,60
2026,note_on,26,0,0,,,,,,,,,0,,,66,0
2030,note_on,4,0,0,,,,,,,,,0,,,63,60
2056,note_on,26,0,0,,,,,,,,,0,,,63,0
2059,note_on,3,0,0,,,,,,,,,0,,,66,60
2085,note_on,26,0,0,,,,,,,,,0,,,66,0
2089,note_on,4,0,0,,,,,,,,,0,,,63,60
2115,note_on,26,0,0,,,,,,,,,0,,,63,0
2118,note_on,3,0,0,,,,,,,,,0,,,66,60
2144,note_on,26,0,0,,,,,,,,,0,,,66,0
2148,note_on,4,0,0,,,,,,,,,0,,,63,60
2160,note_on,162,0,1,,,,,,,,,0,,,57,70
2174,note_on,26,0,0,,,,,,,,,0,,,63,0
2178,note_on,4,0,0,,,,,,,,,0,,,66,60
2204,note_on,26,0,0,,,,,,,,,0,,,66,0
2207,note_on,3,0,0,,,,,,,,,0,,,63,60
2233,note_on,26,0,0,,,,,,,,,0,,,63,0
2237,note_on,4,0,0,,,,,,,,,0,,,66,60
2238,note_on,78,0,1,,,,,,,,,0,,,57,0
2263,note_on,26,0,0,,,,,,,,,0,,,66,0
2266,note_on,3,0,0,,,,,,,,,0,,,63,60
2292,note_on,26,0,0,,,,,,,,,0,,,63,0
2296,note_on,4,0,0,,,,,,,,,0,,,66,60
2322,note_on,26,0,0,,,,,,,,,0,,,66,0
2325,note_on,3,0,0,,,,,,,,,0,,,63,60
2351,note_on,26,0,0,,,,,,,,,0,,,63,0
2355,note_on,4,0,0,,,,,,,,,0,,,66,60
2381,note_on,26,0,0,,,,,,,,,0,,,66,0
2384,note_on,3,0,0,,,,,,,,,0,,,63,60
2400,note_on,162,0,1,,,,,,,,,0,,,58,70
2401,control_change,1,0,1,,,,,,,64,0,0,,,,
2402,control_change,1,0,1,,,,,,,64,127,0,,,,
2410,note_on,26,0,0,,,,,,,,,0,,,63,0
2414,note_on,4,0,0,,,,,,,,,0,,,66,60
2440,note_on,26,0,0,,,,,,,,,0,,,66,0
2443,note_on,3,0,0,,,,,,,,,0,,,63,60
2469,note_on,26,0,0,,,,,,,,,0,,,63,0
2473,note_on,4,0,0,,,,,,,,,0,,,66,60
2478,note_on,76,0,1,,,,,,,,,0,,,58,0
2499,note_on,26,0,0,,,,,,,,,0,,,66,0
2502,note_on,3,0,0,,,,,,,,,0,,,63,60
2528,note_on,26,0,0,,,,,,,,,0,,,63,0
2532,note_on,4,0,0,,,,,,,,,0,,,66,60
2558,note_on,26,0,0,,,,,,,,,0,,,66,0
2561,note_on,3,0,0,,,,,,,,,0,,,63,60
2587,note_on,26,0,0,,,,,,,,,0,,,63,0
2591,note_on,4,0,0,,,,,,,,,0,,,66,60
2617,note_on,26,0,0,,,,,,,,,0,,,66,0
2620,note_on,3,0,0,,,,,,,,,0,,,63,60
2640,note_on,162,0,1,,,,,,,,,0,,,54,70
2646,note_on,26,0,0,,,,,,,,,0,,,63,0
2650,note_on,4,0,0,,,,,,,,,0,,,66,60
2676,note_on,26,0,0,,,,,,,,,0,,,66,0
2679,note_on,3,0,0,,,,,,,,,0,,,63,60
2705,note_on,26,0,0,,,,,,,,,0,,,63,0
2709,note_on,4,0,0,,,,,,,,,0,,,66,60
2718,note_on,78,0,1,,,,,,,,,0,,,54,0
2735,note_on,26,0,0,,,,,,,,,0,,,66,0
2738,note_on,3,0,0,,,,,,,,,0,,,63,60
2764,note_on,26,0,0,,,,,,,,,0,,,63,0
2768,note_on,4,0,0,,,,,,,,,0,,,66,60
2794,note_on,26,0,0,,,,,,,,,0,,,66,0
2797,note_on,3,0,0,,,,,,,,,0,,,63,60
2807,note_on,10,0,0,,,,,,,,,0,,,75,0
2823,note_on,16,0,0,,,,,,,,,0,,,63,0
2827,note_on,4,0,0,,,,,,,,,0,,,66,60
2853,note_on,26,0,0,,,,,,,,,0,,,66,0
2880,note_on,162,0,1,,,,,,,,,0,,,46,70
2880,set_tempo,27,1,0,,,,,,1499999,,,,,,,
2880,note_on,0,0,0,,,,,,,,,0,,,63,60
2881,control_change,1,0,1,,,,,,,64,0,0,,,,
2882,control_change,1,0,1,,,,,,,64,127,0,,,,
2907,note_on,27,0,0,,,,,,,,,0,,,63,0
2910,note_on,3,0,0,,,,,,,,,0,,,66,60
2937,note_on,27,0,0,,,,,,,,,0,,,66,0
2940,note_on,3,0,0,,,,,,,,,0,,,63,60
2958,note_on,76,0,1,,,,,,,,,0,,,46,0
2967,note_on,27,0,0,,,,,,,,,0,,,63,0
2970,note_on,3,0,0,,,,,,,,,0,,,66,60
2997,note_on,27,0,0,,,,,,,,,0,,,66,0
3000,note_on,3,0,0,,,,,,,,,0,,,63,60
3027,note_on,27,0,0,,,,,,,,,0,,,63,0
3030,note_on,3,0,0,,,,,,,,,0,,,66,60
3057,note_on,27,0,0,,,,,,,,,0,,,66,0
3060,note_on,3,0,0,,,,,,,,,0,,,63,60
3087,note_on,27,0,0,,,,,,,,,0,,,63,0
3090,note_on,3,0,0,,,,,,,,,0,,,66,60
3117,note_on,27,0,0,,,,,,,,,0,,,66,0
3120,note_on,3,0,0,,,,,,,,,0,,,63,60
3149,note_on,29,0,0,,,,,,,,,0,,,63,0
3150,note_on,1,0,0,,,,,,,,,0,,,66,60
3156,note_on,6,0,0,,,,,,,,,0,,,78,70
3177,note_on,21,0,0,,,,,,,,,0,,,66,0
3180,note_on,3,0,0,,,,,,,,,0,,,63,60
3207,note_on,27,0,0,,,,,,,,,0,,,63,0
3210,note_on,3,0,0,,,,,,,,,0,,,66,60
3237,note_on,27,0,0,,,,,,,,,0,,,66,0
3240,note_on,3,0,0,,,,,,,,,0,,,63,60
3267,note_on,27,0,0,,,,,,,,,0,,,63,0
3270,note_on,3,0,0,,,,,,,,,0,,,66,60
3297,note_on,27,0,0,,,,,,,,,0,,,66,0
3300,note_on,3,0,0,,,,,,,,,0,,,63,60
3327,note_on,27,0,0,,,,,,,,,0,,,63,0
3330,note_on,3,0,0,,,,,,,,,0,,,66,60
3347,note_on,17,0,0,,,,,,,,,0,,,78,0
3357,note_on,10,0,0,,,,,,,,,0,,,66,0
3360,note_on,0,0,0,,,,,,,,,0,,,63,60
3360,note_on,0,0,0,,,,,,,,,0,,,77,70
3360,set_tempo,3,1,0,,,,,,1200000,,,,,,,
3387,note_on,27,0,0,,,,,,,,,0,,,63,0
3390,note_on,3,0,0,,,,,,,,,0,,,66,60
3417,note_on,27,0,0,,,,,,,,,0,,,66,0
3420,note_on,3,0,0,,,,,,,,,0,,,63,60
3447,note_on,27,0,0,,,,,,,,,0,,,63,0
3450,note_on,3,0,0,,,,,,,,,0,,,66,60
3477,note_on,27,0,0,,,,,,,,,0,,,66,0
3480,note_on,3,0,0,,,,,,,,,0,,,63,60
3507,note_on,27,0,0,,,,,,,,,0,,,63,0
3510,note_on,3,0,0,,,,,,,,,0,,,66,60
3537,note_on,27,0,0,,,,,,,,,0,,,66,0
3540,note_on,3,0,0,,,,,,,,,0,,,63,60
3567,note_on,27,0,0,,,,,,,,,0,,,63,0
3570,note_on,3,0,0,,,,,,,,,0,,,66,60
3587,note_on,17,0,0,,,,,,,,,0,,,77,0
3597,note_on,10,0,0,,,,,,,,,0,,,66,0
3600,note_on,0,0,0,,,,,,,,,0,,,75,70
3600,note_on,3,0,0,,,,,,,,,0,,,63,60
3601,control_change,643,0,1,,,,,,,64,0,0,,,,
3602,control_change,1,0,1,,,,,,,64,127,0,,,,
3627,note_on,27,0,0,,,,,,,,,0,,,63,0
3630,note_on,0,0,0,,,,,,,,,0,,,69,60
3630,note_on,3,0,0,,,,,,,,,0,,,66,60
3657,note_on,0,0,0,,,,,,,,,0,,,69,0
3657,note_on,27,0,0,,,,,,,,,0,,,66,0
3660,note_on,3,0,0,,,,,,,,,0,,,63,60
3687,note_on,27,0,0,,,,,,,,,0,,,63,0
3690,note_on,0,0,0,,,,,,,,,0,,,69,60
3690,note_on,3,0,0,,,,,,,,,0,,,66,60
3717,note_on,0,0,0,,,,,,,,,0,,,69,0
3717,note_on,27,0,0,,,,,,,,,0,,,66,0
3720,note_on,3,0,0,,,,,,,,,0,,,63,60
3747,note_on,27,0,0,,,,,,,,,0,,,63,0
3750,note_on,0,0,0,,,,,,,,,0,,,69,60
3750,note_on,3,0,0,,,,,,,,,0,,,66,60
3777,note_on,27,0,0,,,,,,,,,0,,,66,0
3777,note_on,0,0,0,,,,,,,,,0,,,69,0
3780,note_on,3,0,0,,,,,,,,,0,,,63,60
3807,note_on,27,0,0,,,,,,,,,0,,,63,0
3810,note_on,0,0,0,,,,,,,,,0,,,69,60
3810,note_on,3,0,0,,,,,,,,,0,,,66,60
3827,note_on,17,0,0,,,,,,,,,0,,,75,0
3837,note_on,0,0,0,,,,,,,,,0,,,69,0
3837,note_on,10,0,0,,,,,,,,,0,,,66,0
3840,note_on,0,0,0,,,,,,,,,0,,,73,70
3840,note_on,3,0,0,,,,,,,,,0,,,63,60
3867,note_on,27,0,0,,,,,,,,,0,,,63,0
3870,note_on,0,0,0,,,,,,,,,0,,,69,60
3870,note_on,3,0,0,,,,,,,,,0,,,66,60
3897,note_on,0,0,0,,,,,,,,,0,,,69,0
3897,note_on,27,0,0,,,,,,,,,0,,,66,0
3900,note_on,3,0,0,,,,,,,,,0,,,63,60
3927,note_on,27,0,0,,,,,,,,,0,,,63,0
3930,note_on,0,0,0,,,,,,,,,0,,,69,60
3930,note_on,3,0,0,,,,,,,,,0,,,66,60
3957,note_on,0,0,0,,,,,,,,,0,,,69,0
3957,note_on,27,0,0,,,,,,,,,0,,,66,0
3960,note_on,3,0,0,,,,,,,,,0,,,63,60
3987,note_on,27,0,0,,,,,,,,,0,,,63,0
3990,note_on,0,0,0,,,,,,,,,0,,,69,60
3990,note_on,3,0,0,,,,,,,,,0,,,66,60
4017,note_on,27,0,0,,,,,,,,,0,,,66,0
4017,note_on,0,0,0,,,,,,,,,0,,,69,0
4020,note_on,3,0,0,,,,,,,,,0,,,63,60
4047,note_on,27,0,0,,,,,,,,,0,,,63,0
4050,note_on,0,0,0,,,,,,,,,0,,,69,60
4050,note_on,3,0,0,,,,,,,,,0,,,66,60
4067,note_on,17,0,0,,,,,,,,,0,,,73,0
4077,note_on,10,0,0,,,,,,,,,0,,,66,0
4077,note_on,0,0,0,,,,,,,,,0,,,69,0
4080,note_on,0,0,0,,,,,,,,,0,,,72,70
4080,note_on,3,0,0,,,,,,,,,0,,,63,60
4107,note_on,27,0,0,,,,,,,,,0,,,63,0
4110,note_on,3,0,0,,,,,,,,,0,,,66,60
4110,note_on,0,0,0,,,,,,,,,0,,,69,60
4137,note_on,0,0,0,,,,,,,,,0,,,69,0
4137,note_on,27,0,0,,,,,,,,,0,,,66,0
4140,note_on,3,0,0,,,,,,,,,0,,,63,60
4167,note_on,27,0,0,,,,,,,,,0,,,63,0
4170,note_on,3,0,0,,,,,,,,,0,,,66,60
4170,note_on,0,0,0,,,,,,,,,0,,,69,60
4197,note_on,0,0,0,,,,,,,,,0,,,69,0
4197,note_on,27,0,0,,,,,,,,,0,,,66,0
4200,note_on,3,0,0,,,,,,,,,0,,,63,60
4227,note_on,27,0,0,,,,,,,,,0,,,63,0
4230,note_on,3,0,0,,,,,,,,,0,,,66,60
4230,note_on,0,0,0,,,,,,,,,0,,,69,60
4257,note_on,0,0,0,,,,,,,,,0,,,69,0
4257,note_on,27,0,0,,,,,,,,,0,,,66,0
4260,note_on,3,0,0,,,,,,,,,0,,,63,60
4287,note_on,27,0,0,,,,,,,,,0,,,63,0
4290,note_on,0,0,0,,,,,,,,,0,,,69,60
4290,note_on,3,0,0,,,,,,,,,0,,,66,60
4307,note_on,17,0,0,,,,,,,,,0,,,72,0
4317,note_on,10,0,0,,,,,,,,,0,,,66,0
4317,note_on,0,0,0,,,,,,,,,0,,,69,0
4320,note_on,0,0,0,,,,,,,,,0,,,61,60
4320,set_tempo,3,1,0,,,,,,1499999,,,,,,,
4320,note_on,0,0,0,,,,,,,,,0,,,70,70
4321,control_change,719,0,1,,,,,,,64,0,0,,,,
4322,control_change,1,0,1,,,,,,,64,127,0,,,,
4346,note_on,26,0,0,,,,,,,,,0,,,61,0
4349,note_on,3,0,0,,,,,,,,,0,,,65,60
4375,note_on,26,0,0,,,,,,,,,0,,,65,0
4379,note_on,4,0,0,,,,,,,,,0,,,61,60
4405,note_on,26,0,0,,,,,,,,,0,,,61,0
4408,note_on,3,0,0,,,,,,,,,0,,,65,60
4434,note_on,26,0,0,,,,,,,,,0,,,65,0
4438,note_on,4,0,0,,,,,,,,,0,,,61,60
4464,note_on,26,0,0,,,,,,,,,0,,,61,0
4467,note_on,3,0,0,,,,,,,,,0,,,65,60
4493,note_on,26,0,0,,,,,,,,,0,,,65,0
4497,note_on,4,0,0,,,,,,,,,0,,,61,60
4523,note_on,26,0,0,,,,,,,,,0,,,61,0
4526,note_on,3,0,0,,,,,,,,,0,,,65,60
4552,note_on,26,0,0,,,,,,,,,0,,,65,0
4556,note_on,4,0,0,,,,,,,,,0,,,61,60
4560,note_on,238,0,1,,,,,,,,,0,,,54,70
4582,note_on,26,0,0,,,,,,,,,0,,,61,0
4585,note_on,3,0,0,,,,,,,,,0,,,65,60
4611,note_on,26,0,0,,,,,,,,,0,,,65,0
4615,note_on,4,0,0,,,,,,,,,0,,,61,60
4638,note_on,78,0,1,,,,,,,,,0,,,54,0
4641,note_on,26,0,0,,,,,,,,,0,,,61,0
4644,note_on,3,0,0,,,,,,,,,0,,,65,60
4670,note_on,26,0,0,,,,,,,,,0,,,65,0
4674,note_on,4,0,0,,,,,,,,,0,,,61,60
4700,note_on,26,0,0,,,,,,,,,0,,,61,0
4703,note_on,3,0,0,,,,,,,,,0,,,65,60
4729,note_on,26,0,0,,,,,,,,,0,,,65,0
4733,note_on,4,0,0,,,,,,,,,0,,,61,60
4759,note_on,26,0,0,,,,,,,,,0,,,61,0
4762,note_on,3,0,0,,,,,,,,,0,,,65,60
4788,note_on,26,0,0,,,,,,,,,0,,,65,0
4792,note_on,4,0,0,,,,,,,,,0,,,61,60
4800,note_on,162,0,1,,,,,,,,,0,,,53,70
4800,set_tempo,8,1,0,,,,,,1200000,,,,,,,
4818,note_on,18,0,0,,,,,,,,,0,,,61,0
4821,note_on,3,0,0,,,,,,,,,0,,,65,60
4847,note_on,26,0,0,,,,,,,,,0,,,65,0
4851,note_on,4,0,0,,,,,,,,,0,,,61,60
4877,note_on,26,0,0,,,,,,,,,0,,,61,0
4878,note_on,78,0,1,,,,,,,,,0,,,53,0
4880,note_on,3,0,0,,,,,,,,,0,,,65,60
4906,note_on,26,0,0,,,,,,,,,0,,,65,0
4910,note_on,4,0,0,,,,,,,,,0,,,61,60
4936,note_on,26,0,0,,,,,,,,,0,,,61,0
4939,note_on,3,0,0,,,,,,,,,0,,,65,60
4965,note_on,26,0,0,,,,,,,,,0,,,65,0
4969,note_on,4,0,0,,,,,,,,,0,,,61,60
4995,note_on,26,0,0,,,,,,,,,0,,,61,0
4998,note_on,3,0,0,,,,,,,,,0,,,65,60
5024,note_on,26,0,0,,,,,,,,,0,,,65,0
5028,note_on,4,0,0,,,,,,,,,0,,,61,60
5040,note_on,162,0,1,,,,,,,,,0,,,52,70
5054,note_on,26,0,0,,,,,,,,,0,,,61,0
5058,note_on,4,0,0,,,,,,,,,0,,,65,60
5084,note_on,26,0,0,,,,,,,,,0,,,65,0
5087,note_on,3,0,0,,,,,,,,,0,,,61,60
5113,note_on,26,0,0,,,,,,,,,0,,,61,0
5117,note_on,4,0,0,,,,,,,,,0,,,65,60
5118,note_on,78,0,1,,,,,,,,,0,,,52,0
5143,note_on,26,0,0,,,,,,,,,0,,,65,0
5146,note_on,3,0,0,,,,,,,,,0,,,61,60
5172,note_on,26,0,0,,,,,,,,,0,,,61,0
5176,note_on,4,0,0,,,,,,,,,0,,,65,60
5202,note_on,26,0,0,,,,,,,,,0,,,65,0
5205,note_on,3,0,0,,,,,,,,,0,,,61,60
5231,note_on,26,0,0,,,,,,,,,0,,,61,0
5235,note_on,4,0,0,,,,,,,,,0,,,65,60
5261,note_on,26,0,0,,,,,,,,,0,,,65,0
5264,note_on,3,0,0,,,,,,,,,0,,,61,60
5280,note_on,162,0,1,,,,,,,,,0,,,53,70
5281,control_change,1,0,1,,,,,,,64,0,0,,,,
5282,control_change,1,0,1,,,,,,,64,127,0,,,,
5290,note_on,26,0,0,,,,,,,,,0,,,61,0
5294,note_on,4,0,0,,,,,,,,,0,,,65,60
5320,note_on,26,0,0,,,,,,,,,0,,,65,0
5323,note_on,3,0,0,,,,,,,,,0,,,61,60
5349,note_on,26,0,0,,,,,,,,,0,,,61,0
5353,note_on,4,0,0,,,,,,,,,0,,,65,60
5358,note_on,76,0,1,,,,,,,,,0,,,53,0
5379,note_on,26,0,0,,,,,,,,,0,,,65,0
5382,note_on,3,0,0,,,,,,,,,0,,,61,60
5408,note_on,26,0,0,,,,,,,,,0,,,61,0
5412,note_on,4,0,0,,,,,,,,,0,,,65,60
5438,note_on,26,0,0,,,,,,,,,0,,,65,0
5441,note_on,3,0,0,,,,,,,,,0,,,61,60
5467,note_on,26,0,0,,,,,,,,,0,,,61,0
5471,note_on,4,0,0,,,,,,,,,0,,,65,60
5497,note_on,26,0,0,,,,,,,,,0,,,65,0
5500,note_on,3,0,0,,,,,,,,,0,,,61,60
5520,note_on,162,0,1,,,,,,,,,0,,,49,70
5526,note_on,26,0,0,,,,,,,,,0,,,61,0
5530,note_on,4,0,0,,,,,,,,,0,,,65,60
5556,note_on,26,0,0,,,,,,,,,0,,,65,0
5559,note_on,3,0,0,,,,,,,,,0,,,61,60
5585,note_on,26,0,0,,,,,,,,,0,,,61,0
5589,note_on,4,0,0,,,,,,,,,0,,,65,60
5598,note_on,78,0,1,,,,,,,,,0,,,49,0
5615,note_on,26,0,0,,,,,,,,,0,,,65,0
5618,note_on,3,0,0,,,,,,,,,0,,,61,60
5644,note_on,26,0,0,,,,,,,,,0,,,61,0
5648,note_on,4,0,0,,,,,,,,,0,,,65,60
5674,note_on,26,0,0,,,,,,,,,0,,,65,0
5677,note_on,3,0,0,,,,,,,,,0,,,61,60
5687,note_on,10,0,0,,,,,,,,,0,,,70,0
5703,note_on,16,0,0,,,,,,,,,0,,,61,0
5707,note_on,4,0,0,,,,,,,,,0,,,65,60
5733,note_on,26,0,0,,,,,,,,,0,,,65,0
5760,note_on,0,0,0,,,,,,,,,0,,,61,60
5760,note_on,162,0,1,,,,,,,,,0,,,46,60
5760,set_tempo,27,1,0,,,,,,1333333,,,,,,,
5761,control_change,1,0,1,,,,,,,64,0,0,,,,
5762,control_change,1,0,1,,,,,,,64,127,0,,,,
5787,note_on,27,0,0,,,,,,,,,0,,,61,0
5790,note_on,3,0,0,,,,,,,,,0,,,65,60
5817,note_on,27,0,0,,,,,,,,,0,,,65,0
5820,note_on,3,0,0,,,,,,,,,0,,,61,60
5838,note_on,76,0,1,,,,,,,,,0,,,46,0
5847,note_on,27,0,0,,,,,,,,,0,,,61,0
5850,note_on,3,0,0,,,,,,,,,0,,,65,60
5877,note_on,27,0,0,,,,,,,,,0,,,65,0
5880,note_on,3,0,0,,,,,,,,,0,,,61,60
5907,note_on,27,0,0,,,,,,,,,0,,,61,0
5910,note_on,3,0,0,,,,,,,,,0,,,65,60
5937,note_on,27,0,0,,,,,,,,,0,,,65,0
5940,note_on,3,0,0,,,,,,,,,0,,,61,60
5967,note_on,27,0,0,,,,,,,,,0,,,61,0
5970,note_on,3,0,0,,,,,,,,,0,,,65,60
5997,note_on,27,0,0,,,,,,,,,0,,,65,0
6000,note_on,0,0,0,,,,,,,,,0,,,85,70
6000,note_on,3,0,0,,,,,,,,,0,,,65,60
6000,note_on,162,0,1,,,,,,,,,0,,,53,60
6006,note_on,6,0,1,,,,,,,,,0,,,61,60
6037,note_on,37,0,0,,,,,,,,,0,,,65,0
6038,note_on,32,0,1,,,,,,,,,0,,,61,0
6039,note_on,1,0,1,,,,,,,,,0,,,53,0
6040,note_on,3,0,0,,,,,,,,,0,,,73,60
6040,note_on,1,0,1,,,,,,,,,0,,,53,60
6077,note_on,37,0,1,,,,,,,,,0,,,53,0
6077,note_on,37,0,0,,,,,,,,,0,,,73,0
6080,note_on,3,0,0,,,,,,,,,0,,,65,60
6080,note_on,3,0,1,,,,,,,,,0,,,61,60
6117,note_on,37,0,0,,,,,,,,,0,,,65,0
6117,note_on,37,0,1,,,,,,,,,0,,,61,0
6119,note_on,2,0,0,,,,,,,,,0,,,85,0
6120,note_on,1,0,0,,,,,,,,,0,,,73,60
6120,note_on,3,0,1,,,,,,,,,0,,,53,60
6157,note_on,37,0,1,,,,,,,,,0,,,53,0
6157,note_on,37,0,0,,,,,,,,,0,,,73,0
6160,note_on,3,0,0,,,,,,,,,0,,,65,60
6160,note_on,3,0,1,,,,,,,,,0,,,61,60
6197,note_on,37,0,0,,,,,,,,,0,,,65,0
6197,note_on,37,0,1,,,,,,,,,0,,,61,0
6200,note_on,3,0,0,,,,,,,,,0,,,73,60
6200,note_on,3,0,1,,,,,,,,,0,,,53,60
6237,note_on,37,0,0,,,,,,,,,0,,,73,0
6237,note_on,37,0,1,,,,,,,,,0,,,53,0
6240,note_on,3,0,1,,,,,,,,,0,,,51,60
6240,set_tempo,3,1,0,,,,,,1200000,,,,,,,
6240,note_on,0,0,0,,,,,,,,,0,,,65,60
6240,note_on,0,0,0,,,,,,,,,0,,,84,70
6247,note_on,7,0,1,,,,,,,,,0,,,60,60
6277,note_on,37,0,0,,,,,,,,,0,,,65,0
6278,note_on,31,0,1,,,,,,,,,0,,,60,0
6279,note_on,1,0,1,,,,,,,,,0,,,51,0
6280,note_on,1,0,1,,,,,,,,,0,,,51,60
6280,note_on,3,0,0,,,,,,,,,0,,,72,60
6317,note_on,37,0,0,,,,,,,,,0,,,72,0
6317,note_on,37,0,1,,,,,,,,,0,,,51,0
6320,note_on,3,0,1,,,,,,,,,0,,,60,60
6320,note_on,3,0,0,,,,,,,,,0,,,65,60
6357,note_on,37,0,1,,,,,,,,,0,,,60,0
6357,note_on,37,0,0,,,,,,,,,0,,,65,0
6359,note_on,2,0,0,,,,,,,,,0,,,84,0
6360,note_on,1,0,0,,,,,,,,,0,,,72,60
6360,note_on,3,0,1,,,,,,,,,0,,,51,60
6397,note_on,37,0,0,,,,,,,,,0,,,72,0
6397,note_on,37,0,1,,,,,,,,,0,,,51,0
6400,note_on,3,0,0,,,,,,,,,0,,,65,60
6400,note_on,3,0,1,,,,,,,,,0,,,60,60
6437,note_on,37,0,0,,,,,,,,,0,,,65,0
6437,note_on,37,0,1,,,,,,,,,0,,,60,0
6440,note_on,3,0,1,,,,,,,,,0,,,51,60
6440,note_on,3,0,0,,,,,,,,,0,,,72,60
6477,note_on,37,0,0,,,,,,,,,0,,,72,0
6477,note_on,37,0,1,,,,,,,,,0,,,51,0
6480,note_on,3,0,1,,,,,,,,,0,,,49,60
6480,note_on,0,0,0,,,,,,,,,0,,,82,70
6480,note_on,3,0,0,,,,,,,,,0,,,65,60
6481,control_change,1,0,1,,,,,,,64,0,0,,,,
6482,control_change,1,0,1,,,,,,,64,127,0,,,,
6487,note_on,5,0,1,,,,,,,,,0,,,58,60
6517,note_on,37,0,0,,,,,,,,,0,,,65,0
6518,note_on,31,0,1,,,,,,,,,0,,,58,0
6519,note_on,1,0,1,,,,,,,,,0,,,49,0
6520,note_on,3,0,0,,,,,,,,,0,,,70,60
6520,note_on,1,0,1,,,,,,,,,0,,,49,60
6557,note_on,37,0,0,,,,,,,,,0,,,70,0
6557,note_on,37,0,1,,,,,,,,,0,,,49,0
6560,note_on,3,0,1,,,,,,,,,0,,,58,60
6560,note_on,3,0,0,,,,,,,,,0,,,65,60
6597,note_on,37,0,0,,,,,,,,,0,,,65,0
6597,note_on,37,0,1,,,,,,,,,0,,,58,0
6599,note_on,2,0,0,,,,,,,,,0,,,82,0
6600,note_on,1,0,0,,,,,,,,,0,,,70,60
6600,note_on,3,0,1,,,,,,,,,0,,,49,60
6637,note_on,37,0,0,,,,,,,,,0,,,70,0
6637,note_on,37,0,1,,,,,,,,,0,,,49,0
6640,note_on,3,0,0,,,,,,,,,0,,,65,60
6640,note_on,3,0,1,,,,,,,,,0,,,58,60
6677,note_on,37,0,1,,,,,,,,,0,,,58,0
6677,note_on,37,0,0,,,,,,,,,0,,,65,0
6680,note_on,3,0,0,,,,,,,,,0,,,70,60
6680,note_on,3,0,1,,,,,,,,,0,,,49,60
6717,note_on,37,0,0,,,,,,,,,0,,,70,0
6717,note_on,37,0,1,,,,,,,,,0,,,49,0
6720,note_on,0,0,0,,,,,,,,,0,,,81,70
6720,note_on,3,0,0,,,,,,,,,0,,,65,60
6720,note_on,3,0,1,,,,,,,,,0,,,48,60
6727,note_on,7,0,1,,,,,,,,,0,,,57,60
6757,note_on,37,0,0,,,,,,,,,0,,,65,0
6758,note_on,31,0,1,,,,,,,,,0,,,57,0
6759,note_on,1,0,1,,,,,,,,,0,,,48,0
6760,note_on,1,0,1,,,,,,,,,0,,,48,60
6760,note_on,3,0,0,,,,,,,,,0,,,69,60
6797,note_on,37,0,1,,,,,,,,,0,,,48,0
6797,note_on,37,0,0,,,,,,,,,0,,,69,0
6800,note_on,3,0,1,,,,,,,,,0,,,57,60
6800,note_on,3,0,0,,,,,,,,,0,,,65,60
6837,note_on,37,0,0,,,,,,,,,0,,,65,0
6837,note_on,37,0,1,,,,,,,,,0,,,57,0
6839,note_on,2,0,0,,,,,,,,,0,,,81,0
6840,note_on,3,0,1,,,,,,,,,0,,,48,60
6840,note_on,1,0,0,,,,,,,,,0,,,69,60
6877,note_on,37,0,1,,,,,,,,,0,,,48,0
6877,note_on,37,0,0,,,,,,,,,0,,,69,0
6880,note_on,3,0,1,,,,,,,,,0,,,57,60
6880,note_on,3,0,0,,,,,,,,,0,,,65,60
6917,note_on,37,0,1,,,,,,,,,0,,,57,0
6917,note_on,37,0,0,,,,,,,,,0,,,65,0
6920,note_on,3,0,0,,,,,,,,,0,,,69,60
6920,note_on,3,0,1,,,,,,,,,0,,,48,60
6957,note_on,37,0,1,,,,,,,,,0,,,48,0
6957,note_on,37,0,0,,,,,,,,,0,,,69,0
6960,note_on,3,0,1,,,,,,,,,0,,,49,60
6960,note_on,3,0,0,,,,,,,,,0,,,65,60
6960,note_on,0,0,0,,,,,,,,,0,,,82,70
6967,note_on,7,0,1,,,,,,,,,0,,,58,60
6997,note_on,37,0,0,,,,,,,,,0,,,65,0
6998,note_on,31,0,1,,,,,,,,,0,,,58,0
6999,note_on,1,0,1,,,,,,,,,0,,,49,0
7000,note_on,1,0,1,,,,,,,,,0,,,49,60
7000,note_on,3,0,0,,,,,,,,,0,,,70,60
7037,note_on,37,0,1,,,,,,,,,0,,,49,0
7037,note_on,37,0,0,,,,,,,,,0,,,70,0
7040,note_on,3,0,1,,,,,,,,,0,,,58,60
7040,note_on,3,0,0,,,,,,,,,0,,,65,60
7077,note_on,37,0,0,,,,,,,,,0,,,65,0
7077,note_on,37,0,1,,,,,,,,,0,,,58,0
7079,note_on,2,0,0,,,,,,,,,0,,,82,0
7080,note_on,3,0,1,,,,,,,,,0,,,49,60
7080,note_on,1,0,0,,,,,,,,,0,,,70,60
7117,note_on,37,0,0,,,,,,,,,0,,,70,0
7117,note_on,37,0,1,,,,,,,,,0,,,49,0
7120,note_on,3,0,0,,,,,,,,,0,,,65,60
7120,note_on,3,0,1,,,,,,,,,0,,,58,60
7157,note_on,37,0,1,,,,,,,,,0,,,58,0
7157,note_on,37,0,0,,,,,,,,,0,,,65,0
7160,note_on,3,0,0,,,,,,,,,0,,,70,60
7160,note_on,3,0,1,,,,,,,,,0,,,49,60
7197,note_on,37,0,1,,,,,,,,,0,,,49,0
7197,note_on,37,0,0,,,,,,,,,0,,,70,0
7200,time_signature,3,1,0,3,8,24,8,,,,,,,,,
7200,note_on,0,0,0,,,,,,,,,0,,,66,60
7200,note_on,0,0,0,,,,,,,,,0,,,87,70
7200,note_on,3,0,1,,,,,,,,,0,,,54,60
7201,control_change,1,0,1,,,,,,,64,0,0,,,,
7202,control_change,1,0,1,,,,,,,64,127,0,,,,
7207,note_on,5,0,1,,,,,,,,,0,,,63,60
7237,note_on,37,0,0,,,,,,,,,0,,,66,0
7238,note_on,31,0,1,,,,,,,,,0,,,63,0
7239,note_on,1,0,1,,,,,,,,,0,,,54,0
7240,note_on,3,0,0,,,,,,,,,0,,,75,60
7240,note_on,1,0,1,,,,,,,,,0,,,54,60
7277,note_on,37,0,0,,,,,,,,,0,,,75,0
7277,note_on,37,0,1,,,,,,,,,0,,,54,0
7280,note_on,3,0,1,,,,,,,,,0,,,63,60
7280,note_on,3,0,0,,,,,,,,,0,,,66,60
7280,note_on,0,0,0,,,,,,,,,0,,,70,60
7317,note_on,37,0,0,,,,,,,,,0,,,66,0
7317,note_on,0,0,0,,,,,,,,,0,,,70,0
7317,note_on,37,0,1,,,,,,,,,0,,,63,0
7320,note_on,3,0,0,,,,,,,,,0,,,75,60
7320,note_on,3,0,1,,,,,,,,,0,,,54,60
7357,note_on,37,0,1,,,,,,,,,0,,,54,0
7357,note_on,37,0,0,,,,,,,,,0,,,75,0
7360,note_on,0,0,0,,,,,,,,,0,,,70,60
7360,note_on,3,0,1,,,,,,,,,0,,,63,60
7360,note_on,3,0,0,,,,,,,,,0,,,66,60
7397,note_on,37,0,1,,,,,,,,,0,,,63,0
7397,note_on,37,0,0,,,,,,,,,0,,,66,0
7397,note_on,0,0,0,,,,,,,,,0,,,70,0
7400,note_on,3,0,0,,,,,,,,,0,,,75,60
7400,note_on,3,0,1,,,,,,,,,0,,,54,60
7437,note_on,37,0,0,,,,,,,,,0,,,75,0
7437,note_on,37,0,1,,,,,,,,,0,,,54,0
7440,note_on,0,0,0,,,,,,,,,0,,,70,60
7440,note_on,3,0,1,,,,,,,,,0,,,47,80
7440,note_on,3,0,0,,,,,,,,,0,,,66,60
7477,note_on,0,0,0,,,,,,,,,0,,,70,0
7477,note_on,37,0,0,,,,,,,,,0,,,66,0
7480,note_on,40,0,1,,,,,,,,,0,,,63,60
7480,note_on,3,0,0,,,,,,,,,0,,,75,60
7517,note_on,37,0,1,,,,,,,,,0,,,63,0
7517,note_on,37,0,0,,,,,,,,,0,,,75,0
7520,note_on,3,0,1,,,,,,,,,0,,,54,60
7520,note_on,3,0,0,,,,,,,,,0,,,66,60
7520,note_on,0,0,0,,,,,,,,,0,,,70,60
7520,note_on,0,0,1,,,,,,,,,0,,,58,60
7557,note_on,0,0,1,,,,,,,,,0,,,58,0
7557,note_on,37,0,1,,,,,,,,,0,,,54,0
7557,note_on,0,0,0,,,,,,,,,0,,,70,0
7557,note_on,37,0,0,,,,,,,,,0,,,66,0
7559,note_on,2,0,1,,,,,,,,,0,,,47,0
7560,note_on,1,0,1,,,,,,,,,0,,,63,60
7560,note_on,3,0,0,,,,,,,,,0,,,75,60
7597,note_on,37,0,0,,,,,,,,,0,,,75,0
7597,note_on,37,0,1,,,,,,,,,0,,,63,0
7600,note_on,3,0,1,,,,,,,,,0,,,54,60
7600,note_on,3,0,0,,,,,,,,,0,,,66,60
7600,note_on,0,0,0,,,,,,,,,0,,,70,60
7600,note_on,0,0,1,,,,,,,,,0,,,58,60
7637,note_on,37,0,0,,,,,,,,,0,,,66,0
7637,note_on,0,0,0,,,,,,,,,0,,,70,0
7637,note_on,37,0,1,,,,,,,,,0,,,54,0
7637,note_on,0,0,1,,,,,,,,,0,,,58,0
7640,note_on,3,0,0,,,,,,,,,0,,,75,60
7640,note_on,3,0,1,,,,,,,,,0,,,63,60
7677,note_on,37,0,1,,,,,,,,,0,,,63,0
7677,note_on,37,0,0,,,,,,,,,0,,,75,0
7680,note_on,3,0,0,,,,,,,,,0,,,66,60
7680,note_on,0,0,0,,,,,,,,,0,,,70,60
7680,note_on,3,0,1,,,,,,,,,0,,,46,80
7717,note_on,0,0,0,,,,,,,,,0,,,70,0
7717,note_on,37,0,0,,,,,,,,,0,,,66,0
7720,note_on,3,0,0,,,,,,,,,0,,,75,60
7720,note_on,40,0,1,,,,,,,,,0,,,63,60
7757,note_on,37,0,1,,,,,,,,,0,,,63,0
7757,note_on,37,0,0,,,,,,,,,0,,,75,0
7760,note_on,0,0,1,,,,,,,,,0,,,58,60
7760,note_on,3,0,0,,,,,,,,,0,,,66,60
7760,note_on,3,0,1,,,,,,,,,0,,,54,60
7760,note_on,0,0,0,,,,,,,,,0,,,70,60
7797,note_on,37,0,0,,,,,,,,,0,,,66,0
7797,note_on,0,0,1,,,,,,,,,0,,,58,0
7797,note_on,0,0,0,,,,,,,,,0,,,70,0
7797,note_on,37,0,1,,,,,,,,,0,,,54,0
7799,note_on,2,0,1,,,,,,,,,0,,,46,0
7800,note_on,3,0,0,,,,,,,,,0,,,75,60
7800,note_on,1,0,1,,,,,,,,,0,,,63,60
7837,note_on,37,0,1,,,,,,,,,0,,,63,0
7837,note_on,37,0,0,,,,,,,,,0,,,75,0
7840,note_on,0,0,0,,,,,,,,,0,,,70,60
7840,note_on,3,0,1,,,,,,,,,0,,,54,60
7840,note_on,0,0,1,,,,,,,,,0,,,58,60
7840,note_on,3,0,0,,,,,,,,,0,,,66,60
7877,note_on,37,0,0,,,,,,,,,0,,,66,0
7877,note_on,0,0,0,,,,,,,,,0,,,70,0
7877,note_on,0,0,1,,,,,,,,,0,,,58,0
7877,note_on,37,0,1,,,,,,,,,0,,,54,0
7880,note_on,3,0,1,,,,,,,,,0,,,63,60
7880,note_on,3,0,0,,,,,,,,,0,,,75,60
7883,note_on,3,0,0,,,,,,,,,0,,,87,0
7917,note_on,34,0,0,,,,,,,,,0,,,75,0
7917,note_on,37,0,1,,,,,,,,,0,,,63,0
7920,note_on,0,0,0,,,,,,,,,0,,,70,60
7920,note_on,3,0,1,,,,,,,,,0,,,45,80
7920,note_on,3,0,0,,,,,,,,,0,,,66,60
7921,control_change,1,0,1,,,,,,,64,0,0,,,,
7922,control_change,1,0,1,,,,,,,64,127,0,,,,
7957,note_on,37,0,0,,,,,,,,,0,,,66,0
7957,note_on,0,0,0,,,,,,,,,0,,,70,0
7960,note_on,3,0,0,,,,,,,,,0,,,75,60
7960,note_on,38,0,1,,,,,,,,,0,,,63,60
7997,note_on,37,0,1,,,,,,,,,0,,,63,0
7997,note_on,37,0,0,,,,,,,,,0,,,75,0
8000,note_on,3,0,0,,,,,,,,,0,,,66,60
8000,note_on,0,0,0,,,,,,,,,0,,,70,60
8000,note_on,3,0,1,,,,,,,,,0,,,54,60
8000,note_on,0,0,1,,,,,,,,,0,,,58,60
8037,note_on,0,0,0,,,,,,,,,0,,,70,0
8037,note_on,37,0,1,,,,,,,,,0,,,54,0
8037,note_on,37,0,0,,,,,,,,,0,,,66,0
8037,note_on,0,0,1,,,,,,,,,0,,,58,0
8039,note_on,2,0,1,,,,,,,,,0,,,45,0
8040,note_on,1,0,1,,,,,,,,,0,,,63,60
8040,note_on,3,0,0,,,,,,,,,0,,,75,60
8077,note_on,37,0,1,,,,,,,,,0,,,63,0
8077,note_on,37,0,0,,,,,,,,,0,,,75,0
8080,note_on,3,0,0,,,,,,,,,0,,,66,60
8080,note_on,3,0,1,,,,,,,,,0,,,54,60
8080,note_on,0,0,1,,,,,,,,,0,,,58,60
8080,note_on,0,0,0,,,,,,,,,0,,,70,60
8117,note_on,37,0,1,,,,,,,,,0,,,54,0
8117,note_on,0,0,0,,,,,,,,,0,,,70,0
8117,note_on,37,0,0,,,,,,,,,0,,,66,0
8117,note_on,0,0,1,,,,,,,,,0,,,58,0
8120,note_on,3,0,0,,,,,,,,,0,,,75,60
8120,note_on,3,0,1,,,,,,,,,0,,,63,60
8157,note_on,37,0,1,,,,,,,,,0,,,63,0
8157,note_on,37,0,0,,,,,,,,,0,,,75,0
8160,note_on,3,0,0,,,,,,,,,0,,,66,60
8160,note_on,3,0,1,,,,,,,,,0,,,46,80
8160,note_on,0,0,0,,,,,,,,,0,,,70,60
8197,note_on,0,0,0,,,,,,,,,0,,,70,0
8197,note_on,37,0,0,,,,,,,,,0,,,66,0
8200,note_on,3,0,0,,,,,,,,,0,,,75,60
8200,note_on,40,0,1,,,,,,,,,0,,,63,60
8237,note_on,37,0,1,,,,,,,,,0,,,63,0
8237,note_on,37,0,0,,,,,,,,,0,,,75,0
8240,note_on,0,0,1,,,,,,,,,0,,,58,60
8240,note_on,3,0,0,,,,,,,,,0,,,66,60
8240,note_on,0,0,0,,,,,,,,,0,,,70,60
8240,note_on,3,0,1,,,,,,,,,0,,,54,60
8277,note_on,0,0,1,,,,,,,,,0,,,58,0
8277,note_on,37,0,0,,,,,,,,,0,,,66,0
8277,note_on,0,0,0,,,,,,,,,0,,,70,0
8277,note_on,37,0,1,,,,,,,,,0,,,54,0
8279,note_on,2,0,1,,,,,,,,,0,,,46,0
8280,note_on,3,0,0,,,,,,,,,0,,,75,60
8280,note_on,1,0,1,,,,,,,,,0,,,63,60
8317,note_on,37,0,0,,,,,,,,,0,,,75,0
8317,note_on,37,0,1,,,,,,,,,0,,,63,0
8320,note_on,0,0,1,,,,,,,,,0,,,58,60
8320,note_on,3,0,1,,,,,,,,,0,,,54,60
8320,note_on,3,0,0,,,,,,,,,0,,,66,60
8320,note_on,0,0,0,,,,,,,,,0,,,70,60
8357,note_on,0,0,0,,,,,,,,,0,,,70,0
8357,note_on,0,0,1,,,,,,,,,0,,,58,0
8357,note_on,37,0,1,,,,,,,,,0,,,54,0
8357,note_on,37,0,0,,,,,,,,,0,,,66,0
8360,note_on,3,0,0,,,,,,,,,0,,,75,60
8360,note_on,3,0,1,,,,,,,,,0,,,63,60
8397,note_on,37,0,0,,,,,,,,,0,,,75,0
8397,note_on,37,0,1,,,,,,,,,0,,,63,0
8400,note_on,0,0,0,,,,,,,,,0,,,70,60
8400,note_on,3,0,0,,,,,,,,,0,,,66,60
8400,note_on,3,0,1,,,,,,,,,0,,,42,80
8437,note_on,0,0,0,,,,,,,,,0,,,70,0
8437,note_on,37,0,0,,,,,,,,,0,,,66,0
8440,note_on,3,0,0,,,,,,,,,0,,,75,60
8440,note_on,40,0,1,,,,,,,,,0,,,63,60
8477,note_on,37,0,0,,,,,,,,,0,,,75,0
8477,note_on,37,0,1,,,,,,,,,0,,,63,0
8480,note_on,0,0,0,,,,,,,,,0,,,70,60
8480,note_on,0,0,1,,,,,,,,,0,,,58,60
8480,note_on,3,0,0,,,,,,,,,0,,,66,60
8480,note_on,3,0,1,,,,,,,,,0,,,54,60
8517,note_on,37,0,0,,,,,,,,,0,,,66,0
8517,note_on,0,0,1,,,,,,,,,0,,,58,0
8517,note_on,37,0,1,,,,,,,,,0,,,54,0
8517,note_on,0,0,0,,,,,,,,,0,,,70,0
8519,note_on,2,0,1,,,,,,,,,0,,,42,0
8520,note_on,1,0,1,,,,,,,,,0,,,63,60
8520,note_on,3,0,0,,,,,,,,,0,,,75,60
8557,note_on,37,0,1,,,,,,,,,0,,,63,0
8557,note_on,37,0,0,,,,,,,,,0,,,75,0
8560,note_on,0,0,1,,,,,,,,,0,,,58,60
8560,note_on,3,0,1,,,,,,,,,0,,,54,60
8560,note_on,3,0,0,,,,,,,,,0,,,66,60
8560,note_on,0,0,0,,,,,,,,,0,,,70,60
8597,note_on,37,0,0,,,,,,,,,0,,,66,0
8597,note_on,0,0,0,,,,,,,,,0,,,70,0
8597,note_on,37,0,1,,,,,,,,,0,,,54,0
8597,note_on,0,0,1,,,,,,,,,0,,,58,0
8600,note_on,3,0,1,,,,,,,,,0,,,63,60
8600,note_on,3,0,0,,,,,,,,,0,,,75,60
8637,note_on,37,0,1,,,,,,,,,0,,,63,0
8637,note_on,37,0,0,,,,,,,,,0,,,75,0
8640,note_on,0,0,0,,,,,,,,,0,,,70,60
8640,note_on,3,0,1,,,,,,,,,0,,,34,96
8640,time_signature,3,1,0,6,8,24,8,,,,,,,,,
8640,note_on,0,0,0,,,,,,,,,0,,,66,60
8641,control_change,1,0,1,,,,,,,64,0,0,,,,
8642,control_change,1,0,1,,,,,,,64,127,0,,,,
8677,note_on,37,0,0,,,,,,,,,0,,,66,0
8677,note_on,0,0,0,,,,,,,,,0,,,70,0
8680,note_on,38,0,1,,,,,,,,,0,,,63,60
8680,note_on,3,0,0,,,,,,,,,0,,,75,60
8717,note_on,37,0,1,,,,,,,,,0,,,63,0
8717,note_on,37,0,0,,,,,,,,,0,,,75,0
8720,note_on,0,0,1,,,,,,,,,0,,,58,60
8720,note_on,3,0,1,,,,,,,,,0,,,54,60
8720,note_on,0,0,0,,,,,,,,,0,,,70,60
8720,note_on,3,0,0,,,,,,,,,0,,,66,60
8757,note_on,0,0,1,,,,,,,,,0,,,58,0
8757,note_on,37,0,0,,,,,,,,,0,,,66,0
8757,note_on,0,0,0,,,,,,,,,0,,,70,0
8757,note_on,37,0,1,,,,,,,,,0,,,54,0
8760,note_on,3,0,1,,,,,,,,,0,,,63,60
8760,note_on,3,0,0,,,,,,,,,0,,,75,60
8797,note_on,37,0,1,,,,,,,,,0,,,63,0
8797,note_on,37,0,0,,,,,,,,,0,,,75,0
8800,note_on,3,0,1,,,,,,,,,0,,,54,60
8800,note_on,3,0,0,,,,,,,,,0,,,66,60
8800,note_on,0,0,1,,,,,,,,,0,,,58,60
8800,note_on,0,0,0,,,,,,,,,0,,,70,60
8837,note_on,37,0,0,,,,,,,,,0,,,66,0
8837,note_on,0,0,0,,,,,,,,,0,,,70,0
8837,note_on,37,0,1,,,,,,,,,0,,,54,0
8837,note_on,0,0,1,,,,,,,,,0,,,58,0
8840,note_on,3,0,0,,,,,,,,,0,,,75,60
8840,note_on,3,0,1,,,,,,,,,0,,,63,60
8877,note_on,37,0,0,,,,,,,,,0,,,75,0
8877,note_on,37,0,1,,,,,,,,,0,,,63,0
8879,note_on,2,0,1,,,,,,,,,0,,,34,0
8880,note_on,3,0,0,,,,,,,,,0,,,70,60
8880,note_on,1,0,1,,,,,,,,,0,,,58,60
8880,note_on,0,0,0,,,,,,,,,0,,,90,70
8887,note_on,7,0,1,,,,,,,,,0,,,66,60
8917,note_on,37,0,0,,,,,,,,,0,,,70,0
8918,note_on,31,0,1,,,,,,,,,0,,,66,0
8919,note_on,1,0,1,,,,,,,,,0,,,58,0
8920,note_on,3,0,0,,,,,,,,,0,,,78,60
8920,note_on,1,0,1,,,,,,,,,0,,,58,60
8957,note_on,37,0,1,,,,,,,,,0,,,58,0
8957,note_on,37,0,0,,,,,,,,,0,,,78,0
8960,note_on,3,0,0,,,,,,,,,0,,,70,60
8960,note_on,3,0,1,,,,,,,,,0,,,66,60
8997,note_on,37,0,0,,,,,,,,,0,,,70,0
8997,note_on,37,0,1,,,,,,,,,0,,,66,0
8999,note_on,2,0,0,,,,,,,,,0,,,90,0
9000,note_on,1,0,0,,,,,,,,,0,,,78,60
9000,note_on,3,0,1,,,,,,,,,0,,,58,60
9037,note_on,37,0,0,,,,,,,,,0,,,78,0
9037,note_on,37,0,1,,,,,,,,,0,,,58,0
9040,note_on,3,0,1,,,,,,,,,0,,,66,60
9040,note_on,3,0,0,,,,,,,,,0,,,70,60
9077,note_on,37,0,0,,,,,,,,,0,,,70,0
9077,note_on,37,0,1,,,,,,,,,0,,,66,0
9080,note_on,3,0,0,,,,,,,,,0,,,78,60
9080,note_on,3,0,1,,,,,,,,,0,,,58,60
9117,note_on,37,0,0,,,,,,,,,0,,,78,0
9117,note_on,37,0,1,,,,,,,,,0,,,58,0
9120,note_on,3,0,1,,,,,,,,,0,,,57,60
9120,note_on,3,0,0,,,,,,,,,0,,,69,60
9120,note_on,0,0,0,,,,,,,,,0,,,89,70
9127,note_on,7,0,1,,,,,,,,,0,,,65,60
9157,note_on,37,0,0,,,,,,,,,0,,,69,0
9158,note_on,31,0,1,,,,,,,,,0,,,65,0
9159,note_on,1,0,1,,,,,,,,,0,,,57,0
9160,note_on,3,0,0,,,,,,,,,0,,,77,60
9160,note_on,1,0,1,,,,,,,,,0,,,57,60
9197,note_on,37,0,0,,,,,,,,,0,,,77,0
9197,note_on,37,0,1,,,,,,,,,0,,,57,0
9200,note_on,3,0,0,,,,,,,,,0,,,69,60
9200,note_on,3,0,1,,,,,,,,,0,,,65,60
9237,note_on,37,0,1,,,,,,,,,0,,,65,0
9237,note_on,37,0,0,,,,,,,,,0,,,69,0
9239,note_on,2,0,0,,,,,,,,,0,,,89,0
9240,note_on,3,0,1,,,,,,,,,0,,,57,60
9240,note_on,1,0,0,,,,,,,,,0,,,77,60
9277,note_on,37,0,0,,,,,,,,,0,,,77,0
9277,note_on,37,0,1,,,,,,,,,0,,,57,0
9280,note_on,3,0,0,,,,,,,,,0,,,69,60
9280,note_on,3,0,1,,,,,,,,,0,,,65,60
9317,note_on,37,0,0,,,,,,,,,0,,,69,0
9317,note_on,37,0,1,,,,,,,,,0,,,65,0
9320,note_on,3,0,0,,,,,,,,,0,,,77,60
9320,note_on,3,0,1,,,,,,,,,0,,,57,60
9357,note_on,37,0,0,,,,,,,,,0,,,77,0
9357,note_on,37,0,1,,,,,,,,,0,,,57,0
9360,note_on,0,0,0,,,,,,,,,0,,,87,70
9360,note_on,3,0,0,,,,,,,,,0,,,66,60
9360,note_on,3,0,1,,,,,,,,,0,,,54,60
9361,control_change,1,0,1,,,,,,,64,0,0,,,,
9362,control_change,1,0,1,,,,,,,64,127,0,,,,
9367,note_on,5,0,1,,,,,,,,,0,,,63,60
9397,note_on,37,0,0,,,,,,,,,0,,,66,0
9398,note_on,31,0,1,,,,,,,,,0,,,63,0
9399,note_on,1,0,1,,,,,,,,,0,,,54,0
9400,note_on,1,0,1,,,,,,,,,0,,,54,60
9400,note_on,3,0,0,,,,,,,,,0,,,75,60
9437,note_on,37,0,1,,,,,,,,,0,,,54,0
9437,note_on,37,0,0,,,,,,,,,0,,,75,0
9440,note_on,3,0,1,,,,,,,,,0,,,63,60
9440,note_on,3,0,0,,,,,,,,,0,,,66,60
9477,note_on,37,0,1,,,,,,,,,0,,,63,0
9477,note_on,37,0,0,,,,,,,,,0,,,66,0
9479,note_on,2,0,0,,,,,,,,,0,,,87,0
9480,note_on,3,0,1,,,,,,,,,0,,,54,60
9480,note_on,1,0,0,,,,,,,,,0,,,75,60
9517,note_on,37,0,0,,,,,,,,,0,,,75,0
9517,note_on,37,0,1,,,,,,,,,0,,,54,0
9520,note_on,3,0,0,,,,,,,,,0,,,66,60
9520,note_on,3,0,1,,,,,,,,,0,,,63,60
9557,note_on,37,0,0,,,,,,,,,0,,,66,0
9557,note_on,37,0,1,,,,,,,,,0,,,63,0
9560,note_on,3,0,1,,,,,,,,,0,,,54,60
9560,note_on,3,0,0,,,,,,,,,0,,,75,60
9597,note_on,37,0,0,,,,,,,,,0,,,75,0
9597,note_on,37,0,1,,,,,,,,,0,,,54,0
9600,set_tempo,3,1,0,,,,,,1333333,,,,,,,
9600,note_on,3,0,1,,,,,,,,,0,,,53,60
9600,note_on,0,0,0,,,,,,,,,0,,,65,60
9600,note_on,0,0,0,,,,,,,,,0,,,85,70
9606,note_on,6,0,1,,,,,,,,,0,,,61,60
9637,note_on,37,0,0,,,,,,,,,0,,,65,0
9638,note_on,32,0,1,,,,,,,,,0,,,61,0
9639,note_on,1,0,1,,,,,,,,,0,,,53,0
9640,note_on,3,0,0,,,,,,,,,0,,,73,60
9640,note_on,1,0,1,,,,,,,,,0,,,53,60
9677,note_on,37,0,1,,,,,,,,,0,,,53,0
9677,note_on,37,0,0,,,,,,,,,0,,,73,0
9680,note_on,3,0,1,,,,,,,,,0,,,61,60
9680,note_on,3,0,0,,,,,,,,,0,,,65,60
9717,note_on,37,0,0,,,,,,,,,0,,,65,0
9717,note_on,37,0,1,,,,,,,,,0,,,61,0
9719,note_on,2,0,0,,,,,,,,,0,,,85,0
9720,note_on,3,0,1,,,,,,,,,0,,,53,60
9720,note_on,1,0,0,,,,,,,,,0,,,73,60
9757,note_on,37,0,0,,,,,,,,,0,,,73,0
9757,note_on,37,0,1,,,,,,,,,0,,,53,0
9760,note_on,3,0,1,,,,,,,,,0,,,61,60
9760,note_on,3,0,0,,,,,,,,,0,,,65,60
9797,note_on,37,0,1,,,,,,,,,0,,,61,0
9797,note_on,37,0,0,,,,,,,,,0,,,65,0
9800,note_on,3,0,1,,,,,,,,,0,,,53,60
9800,note_on,3,0,0,,,,,,,,,0,,,73,60
9837,note_on,37,0,1,,,,,,,,,0,,,53,0
9837,note_on,37,0,0,,,,,,,,,0,,,73,0
9840,note_on,3,0,1,,,,,,,,,0,,,51,60
9840,note_on,3,0,0,,,,,,,,,0,,,65,60
9840,note_on,0,0,0,,,,,,,,,0,,,84,70
9846,note_on,6,0,1,,,,,,,,,0,,,60,60
9877,note_on,37,0,0,,,,,,,,,0,,,65,0
9878,note_on,32,0,1,,,,,,,,,0,,,60,0
9879,note_on,1,0,1,,,,,,,,,0,,,51,0
9880,note_on,1,0,1,,,,,,,,,0,,,51,60
9880,note_on,3,0,0,,,,,,,,,0,,,72,60
9917,note_on,37,0,1,,,,,,,,,0,,,51,0
9917,note_on,37,0,0,,,,,,,,,0,,,72,0
9920,note_on,3,0,1,,,,,,,,,0,,,60,60
9920,note_on,3,0,0,,,,,,,,,0,,,65,60
9957,note_on,37,0,1,,,,,,,,,0,,,60,0
9957,note_on,37,0,0,,,,,,,,,0,,,65,0
9959,note_on,2,0,0,,,,,,,,,0,,,84,0
9960,note_on,1,0,0,,,,,,,,,0,,,72,60
9960,note_on,3,0,1,,,,,,,,,0,,,51,60
9997,note_on,37,0,0,,,,,,,,,0,,,72,0
9997,note_on,37,0,1,,,,,,,,,0,,,51,0
10000,note_on,3,0,1,,,,,,,,,0,,,60,60
10000,note_on,3,0,0,,,,,,,,,0,,,65,60
10037,note_on,37,0,1,,,,,,,,,0,,,60,0
10037,note_on,37,0,0,,,,,,,,,0,,,65,0
10040,note_on,3,0,1,,,,,,,,,0,,,51,60
10040,note_on,3,0,0,,,,,,,,,0,,,72,60
10077,note_on,37,0,1,,,,,,,,,0,,,51,0
10077,note_on,37,0,0,,,,,,,,,0,,,72,0
10080,note_on,0,0,0,,,,,,,,,0,,,82,70
10080,note_on,3,0,1,,,,,,,,,0,,,49,60
10080,note_on,3,0,0,,,,,,,,,0,,,65,60
10081,control_change,1,0,1,,,,,,,64,0,0,,,,
10082,control_change,1,0,1,,,,,,,64,127,0,,,,
10086,note_on,4,0,1,,,,,,,,,0,,,58,60
10117,note_on,37,0,0,,,,,,,,,0,,,65,0
10118,note_on,32,0,1,,,,,,,,,0,,,58,0
10119,note_on,1,0,1,,,,,,,,,0,,,49,0
10120,note_on,3,0,0,,,,,,,,,0,,,70,60
10120,note_on,1,0,1,,,,,,,,,0,,,49,60
10157,note_on,37,0,0,,,,,,,,,0,,,70,0
10157,note_on,37,0,1,,,,,,,,,0,,,49,0
10160,note_on,3,0,0,,,,,,,,,0,,,65,60
10160,note_on,3,0,1,,,,,,,,,0,,,58,60
10197,note_on,37,0,1,,,,,,,,,0,,,58,0
10197,note_on,37,0,0,,,,,,,,,0,,,65,0
10200,note_on,3,0,0,,,,,,,,,0,,,70,60
10200,note_on,3,0,1,,,,,,,,,0,,,49,60
10237,note_on,37,0,0,,,,,,,,,0,,,70,0
10237,note_on,37,0,1,,,,,,,,,0,,,49,0
10240,note_on,3,0,1,,,,,,,,,0,,,58,60
10240,note_on,3,0,0,,,,,,,,,0,,,65,60
10277,note_on,37,0,0,,,,,,,,,0,,,65,0
10277,note_on,37,0,1,,,,,,,,,0,,,58,0
10280,note_on,3,0,0,,,,,,,,,0,,,70,60
10280,note_on,3,0,1,,,,,,,,,0,,,49,60
10317,note_on,37,0,0,,,,,,,,,0,,,70,0
10317,note_on,37,0,1,,,,,,,,,0,,,49,0
10320,note_on,3,0,1,,,,,,,,,0,,,42,80
10320,note_on,0,0,0,,,,,,,,,0,,,65,60
10320,note_on,3,0,0,,,,,,,,,0,,,61,60
10357,note_on,0,0,0,,,,,,,,,0,,,65,0
10357,note_on,37,0,0,,,,,,,,,0,,,61,0
10360,note_on,40,0,1,,,,,,,,,0,,,58,60
10360,note_on,3,0,0,,,,,,,,,0,,,70,60
10397,note_on,37,0,1,,,,,,,,,0,,,58,0
10397,note_on,37,0,0,,,,,,,,,0,,,70,0
10400,note_on,3,0,1,,,,,,,,,0,,,49,60
10400,note_on,3,0,0,,,,,,,,,0,,,61,60
10400,note_on,0,0,1,,,,,,,,,0,,,53,60
10400,note_on,0,0,0,,,,,,,,,0,,,65,60
10437,note_on,37,0,0,,,,,,,,,0,,,61,0
10437,note_on,37,0,1,,,,,,,,,0,,,49,0
10437,note_on,0,0,0,,,,,,,,,0,,,65,0
10437,note_on,0,0,1,,,,,,,,,0,,,53,0
10439,note_on,2,0,1,,,,,,,,,0,,,42,0
10440,note_on,1,0,1,,,,,,,,,0,,,58,60
10440,note_on,3,0,0,,,,,,,,,0,,,70,60
10477,note_on,37,0,0,,,,,,,,,0,,,70,0
10477,note_on,37,0,1,,,,,,,,,0,,,58,0
10480,note_on,3,0,1,,,,,,,,,0,,,49,60
10480,note_on,0,0,0,,,,,,,,,0,,,65,60
10480,note_on,0,0,1,,,,,,,,,0,,,53,60
10480,note_on,3,0,0,,,,,,,,,0,,,61,60
10517,note_on,0,0,1,,,,,,,,,0,,,53,0
10517,note_on,0,0,0,,,,,,,,,0,,,65,0
10517,note_on,37,0,1,,,,,,,,,0,,,49,0
10517,note_on,37,0,0,,,,,,,,,0,,,61,0
10520,note_on,3,0,0,,,,,,,,,0,,,70,60
10520,note_on,3,0,1,,,,,,,,,0,,,58,60
10535,note_on,15,0,0,,,,,,,,,0,,,82,0
10557,note_on,22,0,0,,,,,,,,,0,,,70,0
10557,note_on,37,0,1,,,,,,,,,0,,,58,0
10560,set_tempo,3,1,0,,,,,,1200000,,,,,,,
10560,note_on,0,0,0,,,,,,,,,0,,,61,60
10560,note_on,0,0,0,,,,,,,,,0,,,65,60
10560,note_on,3,0,1,,,,,,,,,0,,,41,80
10597,note_on,0,0,0,,,,,,,,,0,,,65,0
10597,note_on,37,0,0,,,,,,,,,0,,,61,0
10600,note_on,3,0,0,,,,,,,,,0,,,70,60
10600,note_on,40,0,1,,,,,,,,,0,,,58,60
10637,note_on,37,0,0,,,,,,,,,0,,,70,0
10637,note_on,37,0,1,,,,,,,,,0,,,58,0
10640,note_on,3,0,1,,,,,,,,,0,,,49,60
10640,note_on,0,0,0,,,,,,,,,0,,,65,60
10640,note_on,3,0,0,,,,,,,,,0,,,61,60
10640,note_on,0,0,1,,,,,,,,,0,,,53,60
10677,note_on,37,0,0,,,,,,,,,0,,,61,0
10677,note_on,0,0,1,,,,,,,,,0,,,53,0
10677,note_on,37,0,1,,,,,,,,,0,,,49,0
10677,note_on,0,0,0,,,,,,,,,0,,,65,0
10679,note_on,2,0,1,,,,,,,,,0,,,41,0
10680,note_on,3,0,0,,,,,,,,,0,,,70,60
10680,note_on,1,0,1,,,,,,,,,0,,,58,60
10717,note_on,37,0,1,,,,,,,,,0,,,58,0
10717,note_on,37,0,0,,,,,,,,,0,,,70,0
10720,note_on,3,0,0,,,,,,,,,0,,,61,60
10720,note_on,0,0,0,,,,,,,,,0,,,65,60
10720,note_on,0,0,1,,,,,,,,,0,,,53,60
10720,note_on,3,0,1,,,,,,,,,0,,,49,60
10757,note_on,37,0,1,,,,,,,,,0,,,49,0
10757,note_on,0,0,1,,,,,,,,,0,,,53,0
10757,note_on,37,0,0,,,,,,,,,0,,,61,0
10757,note_on,0,0,0,,,,,,,,,0,,,65,0
10760,note_on,3,0,0,,,,,,,,,0,,,70,60
10760,note_on,3,0,1,,,,,,,,,0,,,58,60
10797,note_on,37,0,0,,,,,,,,,0,,,70,0
10797,note_on,37,0,1,,,,,,,,,0,,,58,0
10800,note_on,3,0,0,,,,,,,,,0,,,61,60
10800,note_on,3,0,1,,,,,,,,,0,,,40,80
10800,note_on,0,0,0,,,,,,,,,0,,,65,60
10801,control_change,1,0,1,,,,,,,64,0,0,,,,
10802,control_change,1,0,1,,,,,,,64,127,0,,,,
10837,note_on,37,0,0,,,,,,,,,0,,,61,0
10837,note_on,0,0,0,,,,,,,,,0,,,65,0
10840,note_on,3,0,0,,,,,,,,,0,,,70,60
10840,note_on,38,0,1,,,,,,,,,0,,,58,60
10877,note_on,37,0,1,,,,,,,,,0,,,58,0
10877,note_on,37,0,0,,,,,,,,,0,,,70,0
10880,note_on,0,0,1,,,,,,,,,0,,,53,60
10880,note_on,3,0,1,,,,,,,,,0,,,49,60
10880,note_on,3,0,0,,,,,,,,,0,,,61,60
10880,note_on,0,0,0,,,,,,,,,0,,,65,60
10917,note_on,0,0,0,,,,,,,,,0,,,65,0
10917,note_on,37,0,0,,,,,,,,,0,,,61,0
10917,note_on,37,0,1,,,,,,,,,0,,,49,0
10917,note_on,0,0,1,,,,,,,,,0,,,53,0
10919,note_on,2,0,1,,,,,,,,,0,,,40,0
10920,note_on,3,0,0,,,,,,,,,0,,,70,60
10920,note_on,1,0,1,,,,,,,,,0,,,58,60
10957,note_on,37,0,1,,,,,,,,,0,,,58,0
10957,note_on,37,0,0,,,,,,,,,0,,,70,0
10960,note_on,0,0,1,,,,,,,,,0,,,53,60
10960,note_on,3,0,1,,,,,,,,,0,,,49,60
10960,note_on,3,0,0,,,,,,,,,0,,,61,60
10960,note_on,0,0,0,,,,,,,,,0,,,65,60
10997,note_on,0,0,1,,,,,,,,,0,,,53,0
10997,note_on,37,0,0,,,,,,,,,0,,,61,0
10997,note_on,0,0,0,,,,,,,,,0,,,65,0
10997,note_on,37,0,1,,,,,,,,,0,,,49,0
11000,note_on,3,0,1,,,,,,,,,0,,,58,60
11000,note_on,3,0,0,,,,,,,,,0,,,70,60
11037,note_on,37,0,1,,,,,,,,,0,,,58,0
11037,note_on,37,0,0,,,,,,,,,0,,,70,0
11040,note_on,3,0,1,,,,,,,,,0,,,41,80
11040,note_on,0,0,0,,,,,,,,,0,,,65,60
11040,note_on,3,0,0,,,,,,,,,0,,,61,60
11077,note_on,0,0,0,,,,,,,,,0,,,65,0
11077,note_on,37,0,0,,,,,,,,,0,,,61,0
11080,note_on,40,0,1,,,,,,,,,0,,,58,60
11080,note_on,3,0,0,,,,,,,,,0,,,70,60
11117,note_on,37,0,1,,,,,,,,,0,,,58,0
11117,note_on,37,0,0,,,,,,,,,0,,,70,0
11120,note_on,0,0,1,,,,,,,,,0,,,53,60
11120,note_on,0,0,0,,,,,,,,,0,,,65,60
11120,note_on,3,0,1,,,,,,,,,0,,,49,60
11120,note_on,3,0,0,,,,,,,,,0,,,61,60
11157,note_on,37,0,0,,,,,,,,,0,,,61,0
11157,note_on,37,0,1,,,,,,,,,0,,,49,0
11157,note_on,0,0,1,,,,,,,,,0,,,53,0
11157,note_on,0,0,0,,,,,,,,,0,,,65,0
11159,note_on,2,0,1,,,,,,,,,0,,,41,0
11160,note_on,3,0,0,,,,,,,,,0,,,70,60
11160,note_on,1,0,1,,,,,,,,,0,,,58,60
11197,note_on,37,0,0,,,,,,,,,0,,,70,0
11197,note_on,37,0,1,,,,,,,,,0,,,58,0
11200,note_on,0,0,0,,,,,,,,,0,,,65,60
11200,note_on,3,0,1,,,,,,,,,0,,,49,60
11200,note_on,0,0,1,,,,,,,,,0,,,53,60
11200,note_on,3,0,0,,,,,,,,,0,,,61,60
11237,note_on,0,0,0,,,,,,,,,0,,,65,0
11237,note_on,37,0,0,,,,,,,,,0,,,61,0
11237,note_on,37,0,1,,,,,,,,,0,,,49,0
11237,note_on,0,0,1,,,,,,,,,0,,,53,0
11240,note_on,3,0,1,,,,,,,,,0,,,58,60
11240,note_on,3,0,0,,,,,,,,,0,,,70,60
11277,note_on,37,0,1,,,,,,,,,0,,,58,0
11277,note_on,37,0,0,,,,,,,,,0,,,70,0
11280,set_tempo,3,1,0,,,,,,1333333,,,,,,,
11280,note_on,3,0,1,,,,,,,,,0,,,34,80
11280,note_on,0,0,0,,,,,,,,,0,,,70,0
11280,note_on,0,0,0,,,,,,,,,0,,,70,60
11280,note_on,0,0,0,,,,,,,,,0,,,70,70
11280,note_on,0,0,0,,,,,,,,,0,,,82,70
11320,note_on,40,0,0,,,,,,,,,0,,,73,60
11320,note_on,0,0,0,,,,,,,,,0,,,77,60
11357,note_on,0,0,0,,,,,,,,,0,,,77,0
11357,note_on,37,0,0,,,,,,,,,0,,,73,0
11360,note_on,0,0,0,,,,,,,,,0,,,70,60
11360,note_on,3,0,0,,,,,,,,,0,,,70,0
11399,note_on,119,0,1,,,,,,,,,0,,,34,0
11400,note_on,0,0,1,,,,,,,,,0,,,61,70
11400,note_on,0,0,0,,,,,,,,,0,,,77,60
11400,note_on,1,0,1,,,,,,,,,0,,,53,70
11400,note_on,0,0,1,,,,,,,,,0,,,65,70
11400,note_on,40,0,0,,,,,,,,,0,,,73,60
11437,note_on,37,0,0,,,,,,,,,0,,,73,0
11437,note_on,0,0,0,,,,,,,,,0,,,77,0
11440,note_on,0,0,0,,,,,,,,,0,,,70,60
11440,note_on,3,0,0,,,,,,,,,0,,,70,0
11480,note_on,0,0,0,,,,,,,,,0,,,77,60
11480,note_on,40,0,0,,,,,,,,,0,,,73,60
11507,note_on,0,0,0,,,,,,,,,0,,,82,0
11507,note_on,27,0,0,,,,,,,,,0,,,70,0
11513,note_on,0,0,1,,,,,,,,,0,,,65,0
11513,note_on,113,0,1,,,,,,,,,0,,,53,0
11513,note_on,0,0,1,,,,,,,,,0,,,61,0
11517,note_on,10,0,0,,,,,,,,,0,,,73,0
11517,note_on,0,0,0,,,,,,,,,0,,,77,0
11520,note_on,0,0,0,,,,,,,,,0,,,82,70
11520,note_on,0,0,0,,,,,,,,,0,,,70,70
11520,note_on,0,0,0,,,,,,,,,0,,,70,0
11520,note_on,0,0,0,,,,,,,,,0,,,70,60
11520,note_on,7,0,1,,,,,,,,,0,,,36,80
11520,time_signature,3,1,0,3,8,24,8,,,,,,,,,
11521,control_change,1,0,1,,,,,,,64,0,0,,,,
11522,control_change,1,0,1,,,,,,,64,127,0,,,,
11560,note_on,40,0,0,,,,,,,,,0,,,75,60
11560,note_on,0,0,0,,,,,,,,,0,,,78,60
11599,note_on,39,0,0,,,,,,,,,0,,,75,0
11599,note_on,0,0,0,,,,,,,,,0,,,78,0
11600,note_on,1,0,0,,,,,,,,,0,,,70,0
11600,note_on,0,0,0,,,,,,,,,0,,,70,60
11640,note_on,118,0,1,,,,,,,,,0,,,54,70
11640,note_on,0,0,1,,,,,,,,,0,,,63,70
11640,note_on,40,0,0,,,,,,,,,0,,,75,60
11640,note_on,0,0,0,,,,,,,,,0,,,78,60
11640,note_on,0,0,1,,,,,,,,,0,,,66,70
11679,note_on,0,0,0,,,,,,,,,0,,,78,0
11679,note_on,39,0,0,,,,,,,,,0,,,75,0
11680,note_on,1,0,0,,,,,,,,,0,,,70,0
11680,note_on,0,0,0,,,,,,,,,0,,,70,60
11720,note_on,40,0,0,,,,,,,,,0,,,75,60
11720,note_on,0,0,0,,,,,,,,,0,,,78,60
11747,note_on,107,0,1,,,,,,,,,0,,,36,0
11753,note_on,0,0,1,,,,,,,,,0,,,66,0
11753,note_on,0,0,1,,,,,,,,,0,,,63,0
11753,note_on,6,0,1,,,,,,,,,0,,,54,0
11759,note_on,0,0,0,,,,,,,,,0,,,82,0
11759,note_on,0,0,0,,,,,,,,,0,,,78,0
11759,note_on,0,0,0,,,,,,,,,0,,,75,0
11759,note_on,39,0,0,,,,,,,,,0,,,70,0
11760,note_on,0,0,0,,,,,,,,,0,,,79,70
11760,note_on,0,0,0,,,,,,,,,0,,,67,70
11760,note_on,0,0,0,,,,,,,,,0,,,67,60
11760,note_on,0,0,0,,,,,,,,,0,,,67,0
11760,note_on,7,0,1,,,,,,,,,0,,,39,80
11760,set_tempo,1,1,0,,,,,,1200000,,,,,,,
11800,note_on,40,0,0,,,,,,,,,0,,,75,60
11800,note_on,0,0,0,,,,,,,,,0,,,78,60
11839,note_on,39,0,0,,,,,,,,,0,,,75,0
11839,note_on,0,0,0,,,,,,,,,0,,,78,0
11840,note_on,1,0,0,,,,,,,,,0,,,67,0
11840,note_on,0,0,0,,,,,,,,,0,,,67,60
11880,note_on,0,0,1,,,,,,,,,0,,,66,70
11880,note_on,40,0,0,,,,,,,,,0,,,75,60
11880,note_on,120,0,1,,,,,,,,,0,,,54,70
11880,note_on,0,0,1,,,,,,,,,0,,,63,70
11880,note_on,0,0,0,,,,,,,,,0,,,78,60
11919,note_on,0,0,0,,,,,,,,,0,,,78,0
11919,note_on,39,0,0,,,,,,,,,0,,,75,0
11920,note_on,0,0,0,,,,,,,,,0,,,67,60
11920,note_on,1,0,0,,,,,,,,,0,,,67,0
11960,note_on,0,0,0,,,,,,,,,0,,,78,60
11960,note_on,40,0,0,,,,,,,,,0,,,75,60
11987,note_on,107,0,1,,,,,,,,,0,,,39,0
11993,note_on,0,0,1,,,,,,,,,0,,,63,0
11993,note_on,6,0,1,,,,,,,,,0,,,54,0
11993,note_on,0,0,1,,,,,,,,,0,,,66,0
11999,note_on,39,0,0,,,,,,,,,0,,,67,0
11999,note_on,0,0,0,,,,,,,,,0,,,79,0
11999,note_on,0,0,0,,,,,,,,,0,,,78,0
11999,note_on,0,0,0,,,,,,,,,0,,,75,0
12000,note_on,1,0,0,,,,,,,,,0,,,68,60
12000,note_on,0,0,0,,,,,,,,,0,,,68,0
12000,note_on,0,0,0,,,,,,,,,0,,,68,70
12000,note_on,7,0,1,,,,,,,,,0,,,44,80
12000,note_on,0,0,0,,,,,,,,,0,,,80,70
12040,note_on,0,0,0,,,,,,,,,0,,,75,60
12040,note_on,40,0,0,,,,,,,,,0,,,72,60
12079,note_on,0,0,0,,,,,,,,,0,,,75,0
12079,note_on,39,0,0,,,,,,,,,0,,,72,0
12080,note_on,0,0,0,,,,,,,,,0,,,68,60
12080,note_on,1,0,0,,,,,,,,,0,,,68,0
12120,note_on,0,0,0,,,,,,,,,0,,,75,60
12120,note_on,40,0,0,,,,,,,,,0,,,72,60
12120,note_on,120,0,1,,,,,,,,,0,,,54,70
12120,note_on,0,0,1,,,,,,,,,0,,,60,70
12120,note_on,0,0,1,,,,,,,,,0,,,63,70
12159,note_on,39,0,0,,,,,,,,,0,,,72,0
12159,note_on,0,0,0,,,,,,,,,0,,,75,0
12160,note_on,0,0,0,,,,,,,,,0,,,68,60
12160,note_on,1,0,0,,,,,,,,,0,,,68,0
12200,note_on,0,0,0,,,,,,,,,0,,,75,60
12200,note_on,40,0,0,,,,,,,,,0,,,72,60
12227,note_on,107,0,1,,,,,,,,,0,,,44,0
12233,note_on,6,0,1,,,,,,,,,0,,,54,0
12233,note_on,0,0,1,,,,,,,,,0,,,60,0
12233,note_on,0,0,1,,,,,,,,,0,,,63,0
12237,note_on,37,0,0,,,,,,,,,0,,,72,0
12237,note_on,0,0,0,,,,,,,,,0,,,75,0
12239,note_on,0,0,0,,,,,,,,,0,,,80,0
12239,note_on,2,0,0,,,,,,,,,0,,,68,0
12240,note_on,7,0,1,,,,,,,,,0,,,36,70
12240,note_on,0,0,0,,,,,,,,,0,,,69,0
12240,note_on,0,0,0,,,,,,,,,0,,,81,70
12240,note_on,0,0,0,,,,,,,,,0,,,69,70
12240,note_on,1,0,0,,,,,,,,,0,,,69,70
12241,control_change,1,0,1,,,,,,,64,0,0,,,,
12242,control_change,1,0,1,,,,,,,64,127,0,,,,
12280,note_on,40,0,0,,,,,,,,,0,,,75,70
12280,note_on,0,0,0,,,,,,,,,0,,,78,70
12319,note_on,0,0,0,,,,,,,,,0,,,78,0
12319,note_on,39,0,0,,,,,,,,,0,,,75,0
12320,note_on,1,0,0,,,,,,,,,0,,,69,0
12320,note_on,0,0,0,,,,,,,,,0,,,69,70
12360,note_on,0,0,1,,,,,,,,,0,,,63,70
12360,note_on,0,0,0,,,,,,,,,0,,,78,70
12360,note_on,118,0,1,,,,,,,,,0,,,54,70
12360,note_on,0,0,1,,,,,,,,,0,,,66,70
12360,note_on,40,0,0,,,,,,,,,0,,,75,70
12399,note_on,0,0,0,,,,,,,,,0,,,78,0
12399,note_on,39,0,0,,,,,,,,,0,,,75,0
12400,note_on,1,0,0,,,,,,,,,0,,,69,0
12400,note_on,0,0,0,,,,,,,,,0,,,69,70
12440,note_on,0,0,0,,,,,,,,,0,,,78,70
12440,note_on,40,0,0,,,,,,,,,0,,,75,70
12467,note_on,107,0,1,,,,,,,,,0,,,36,0
12473,note_on,6,0,1,,,,,,,,,0,,,54,0
12473,note_on,0,0,1,,,,,,,,,0,,,66,0
12473,note_on,0,0,1,,,,,,,,,0,,,63,0
12479,note_on,0,0,0,,,,,,,,,0,,,81,0
12479,note_on,39,0,0,,,,,,,,,0,,,69,0
12479,note_on,0,0,0,,,,,,,,,0,,,75,0
12479,note_on,0,0,0,,,,,,,,,0,,,78,0
12480,note_on,0,0,0,,,,,,,,,0,,,67,70
12480,note_on,1,0,0,,,,,,,,,0,,,67,70
12480,note_on,0,0,0,,,,,,,,,0,,,79,70
12480,note_on,7,0,1,,,,,,,,,0,,,39,70
12480,note_on,0,0,0,,,,,,,,,0,,,67,0
12520,note_on,0,0,0,,,,,,,,,0,,,78,70
12520,note_on,40,0,0,,,,,,,,,0,,,75,70
12559,note_on,0,0,0,,,,,,,,,0,,,78,0
12559,note_on,39,0,0,,,,,,,,,0,,,75,0
12560,note_on,1,0,0,,,,,,,,,0,,,67,0
12560,note_on,0,0,0,,,,,,,,,0,,,67,70
12600,note_on,0,0,1,,,,,,,,,0,,,66,70
12600,note_on,0,0,1,,,,,,,,,0,,,63,70
12600,note_on,40,0,0,,,,,,,,,0,,,75,70
12600,note_on,120,0,1,,,,,,,,,0,,,54,70
12600,note_on,0,0,0,,,,,,,,,0,,,78,70
12639,note_on,0,0,0,,,,,,,,,0,,,78,0
12639,note_on,39,0,0,,,,,,,,,0,,,75,0
12640,note_on,1,0,0,,,,,,,,,0,,,67,0
12640,note_on,0,0,0,,,,,,,,,0,,,67,70
12680,note_on,40,0,0,,,,,,,,,0,,,75,70
12680,note_on,0,0,0,,,,,,,,,0,,,78,70
12707,note_on,107,0,1,,,,,,,,,0,,,39,0
12713,note_on,6,0,1,,,,,,,,,0,,,54,0
12713,note_on,0,0,1,,,,,,,,,0,,,63,0
12713,note_on,0,0,1,,,,,,,,,0,,,66,0
12719,note_on,0,0,0,,,,,,,,,0,,,79,0
12719,note_on,39,0,0,,,,,,,,,0,,,67,0
12719,note_on,0,0,0,,,,,,,,,0,,,75,0
12719,note_on,0,0,0,,,,,,,,,0,,,78,0
12720,note_on,0,0,0,,,,,,,,,0,,,68,0
12720,note_on,0,0,0,,,,,,,,,0,,,80,70
12720,note_on,7,0,1,,,,,,,,,0,,,44,70
12720,note_on,1,0,0,,,,,,,,,0,,,68,70
12720,note_on,0,0,0,,,,,,,,,0,,,68,70
12760,note_on,0,0,0,,,,,,,,,0,,,75,70
12760,note_on,40,0,0,,,,,,,,,0,,,72,70
12799,note_on,39,0,0,,,,,,,,,0,,,72,0
12799,note_on,0,0,0,,,,,,,,,0,,,75,0
12800,note_on,1,0,0,,,,,,,,,0,,,68,0
12800,note_on,0,0,0,,,,,,,,,0,,,68,70
12840,note_on,0,0,1,,,,,,,,,0,,,60,70
12840,note_on,120,0,1,,,,,,,,,0,,,54,70
12840,note_on,0,0,1,,,,,,,,,0,,,63,70
12840,note_on,0,0,0,,,,,,,,,0,,,75,70
12840,note_on,40,0,0,,,,,,,,,0,,,72,70
12879,note_on,0,0,0,,,,,,,,,0,,,75,0
12879,note_on,39,0,0,,,,,,,,,0,,,72,0
12880,note_on,1,0,0,,,,,,,,,0,,,68,0
12880,note_on,0,0,0,,,,,,,,,0,,,68,70
12920,note_on,0,0,0,,,,,,,,,0,,,75,70
12920,note_on,40,0,0,,,,,,,,,0,,,72,70
12947,note_on,107,0,1,,,,,,,,,0,,,44,0
12953,note_on,0,0,1,,,,,,,,,0,,,60,0
12953,note_on,0,0,1,,,,,,,,,0,,,63,0
12953,note_on,6,0,1,,,,,,,,,0,,,54,0
12957,note_on,0,0,0,,,,,,,,,0,,,75,0
12957,note_on,37,0,0,,,,,,,,,0,,,72,0
12959,note_on,0,0,0,,,,,,,,,0,,,80,0
12959,note_on,2,0,0,,,,,,,,,0,,,68,0
12960,note_on,7,0,1,,,,,,,,,0,,,37,70
12960,time_signature,1,1,0,6,8,24,8,,,,,,,,,
12961,control_change,1,0,1,,,,,,,64,0,0,,,,
12962,control_change,1,0,1,,,,,,,64,127,0,,,,
13000,note_on,0,0,0,,,,,,,,,0,,,76,70
13000,note_on,0,0,0,,,,,,,,,0,,,88,70
13000,set_tempo,40,1,0,,,,,,1499999,,,,,,,
13040,note_on,78,0,1,,,,,,,,,0,,,56,60
13040,note_on,0,0,1,,,,,,,,,0,,,60,60
13077,note_on,0,0,1,,,,,,,,,0,,,60,0
13077,note_on,37,0,1,,,,,,,,,0,,,56,0
13080,note_on,0,0,1,,,,,,,,,0,,,68,60
13080,note_on,3,0,1,,,,,,,,,0,,,64,60
13119,note_on,0,0,1,,,,,,,,,0,,,68,0
13119,note_on,39,0,1,,,,,,,,,0,,,64,0
13120,note_on,1,0,1,,,,,,,,,0,,,56,60
13120,note_on,0,0,1,,,,,,,,,0,,,60,60
13159,note_on,39,0,1,,,,,,,,,0,,,56,0
13159,note_on,0,0,1,,,,,,,,,0,,,60,0
13160,note_on,0,0,1,,,,,,,,,0,,,68,60
13160,note_on,1,0,1,,,,,,,,,0,,,64,60
13187,note_on,27,0,1,,,,,,,,,0,,,37,0
13199,note_on,12,0,1,,,,,,,,,0,,,64,0
13199,note_on,0,0,1,,,,,,,,,0,,,68,0
13200,note_on,0,0,1,,,,,,,,,0,,,60,60
13200,note_on,1,0,1,,,,,,,,,0,,,56,60
13239,note_on,39,0,1,,,,,,,,,0,,,56,0
13239,note_on,0,0,1,,,,,,,,,0,,,60,0
13240,note_on,1,0,1,,,,,,,,,0,,,64,60
13240,note_on,0,0,1,,,,,,,,,0,,,68,60
13279,note_on,0,0,1,,,,,,,,,0,,,68,0
13279,note_on,39,0,1,,,,,,,,,0,,,64,0
13280,note_on,1,0,1,,,,,,,,,0,,,56,60
13280,note_on,0,0,1,,,,,,,,,0,,,60,60
13303,note_on,0,0,0,,,,,,,,,0,,,88,0
13303,note_on,303,0,0,,,,,,,,,0,,,76,0
13319,note_on,0,0,1,,,,,,,,,0,,,60,0
13319,note_on,39,0,1,,,,,,,,,0,,,56,0
13320,set_tempo,17,1,0,,,,,,1200000,,,,,,,
13320,note_on,1,0,1,,,,,,,,,0,,,64,60
13320,note_on,0,0,1,,,,,,,,,0,,,68,60
13359,note_on,39,0,1,,,,,,,,,0,,,64,0
13359,note_on,0,0,1,,,,,,,,,0,,,68,0
13360,note_on,1,0,1,,,,,,,,,0,,,56,60
13360,note_on,0,0,1,,,,,,,,,0,,,60,60
13399,note_on,0,0,1,,,,,,,,,0,,,60,0
13399,note_on,39,0,1,,,,,,,,,0,,,56,0
13400,note_on,1,0,1,,,,,,,,,0,,,64,60
13400,note_on,0,0,1,,,,,,,,,0,,,68,60
13439,note_on,39,0,1,,,,,,,,,0,,,64,0
13439,note_on,0,0,1,,,,,,,,,0,,,68,0
13440,note_on,0,0,1,,,,,,,,,0,,,60,60
13440,note_on,1,0,1,,,,,,,,,0,,,56,60
13479,note_on,0,0,1,,,,,,,,,0,,,60,0
13479,note_on,39,0,1,,,,,,,,,0,,,56,0
13480,note_on,0,0,1,,,,,,,,,0,,,68,60
13480,note_on,1,0,1,,,,,,,,,0,,,64,60
13519,note_on,0,0,1,,,,,,,,,0,,,68,0
13519,note_on,39,0,1,,,,,,,,,0,,,64,0
13520,note_on,0,0,1,,,,,,,,,0,,,60,60
13520,note_on,1,0,1,,,,,,,,,0,,,56,60
13559,note_on,0,0,1,,,,,,,,,0,,,60,0
13559,note_on,39,0,1,,,,,,,,,0,,,56,0
13560,note_on,1,0,1,,,,,,,,,0,,,64,60
13560,note_on,0,0,1,,,,,,,,,0,,,68,60
13599,note_on,0,0,1,,,,,,,,,0,,,68,0
13599,note_on,39,0,1,,,,,,,,,0,,,64,0
13600,note_on,0,0,1,,,,,,,,,0,,,60,60
13600,note_on,1,0,1,,,,,,,,,0,,,56,60
13639,note_on,39,0,1,,,,,,,,,0,,,56,0
13639,note_on,0,0,1,,,,,,,,,0,,,60,0
13640,note_on,0,0,1,,,,,,,,,0,,,68,60
13640,note_on,1,0,1,,,,,,,,,0,,,64,60
13677,note_on,0,0,1,,,,,,,,,0,,,68,0
13677,note_on,37,0,1,,,,,,,,,0,,,64,0
13680,note_on,3,0,1,,,,,,,,,0,,,37,70
13681,control_change,1,0,1,,,,,,,64,0,0,,,,
13682,control_change,1,0,1,,,,,,,64,127,0,,,,
13720,note_on,400,0,0,,,,,,,,,0,,,77,70
13720,note_on,0,0,0,,,,,,,,,0,,,89,70
13760,note_on,78,0,1,,,,,,,,,0,,,56,60
13760,note_on,0,0,1,,,,,,,,,0,,,61,60
13797,note_on,0,0,1,,,,,,,,,0,,,61,0
13797,note_on,37,0,1,,,,,,,,,0,,,56,0
13800,note_on,0,0,1,,,,,,,,,0,,,68,60
13800,note_on,3,0,1,,,,,,,,,0,,,65,60
13839,note_on,0,0,1,,,,,,,,,0,,,68,0
13839,note_on,39,0,1,,,,,,,,,0,,,65,0
13840,note_on,0,0,1,,,,,,,,,0,,,61,60
13840,note_on,1,0,1,,,,,,,,,0,,,56,60
13879,note_on,0,0,1,,,,,,,,,0,,,61,0
13879,note_on,39,0,1,,,,,,,,,0,,,56,0
13880,note_on,0,0,1,,,,,,,,,0,,,68,60
13880,note_on,1,0,1,,,,,,,,,0,,,65,60
13907,note_on,27,0,1,,,,,,,,,0,,,37,0
13919,note_on,12,0,1,,,,,,,,,0,,,65,0
13919,note_on,0,0,1,,,,,,,,,0,,,68,0
13920,note_on,1,0,1,,,,,,,,,0,,,56,60
13920,note_on,0,0,1,,,,,,,,,0,,,61,60
13959,note_on,39,0,1,,,,,,,,,0,,,56,0
13959,note_on,0,0,1,,,,,,,,,0,,,61,0
13960,note_on,1,0,1,,,,,,,,,0,,,65,60
13960,note_on,0,0,1,,,,,,,,,0,,,68,60
13999,note_on,0,0,1,,,,,,,,,0,,,68,0
13999,note_on,39,0,1,,,,,,,,,0,,,65,0
14000,note_on,0,0,1,,,,,,,,,0,,,61,60
14000,note_on,1,0,1,,,,,,,,,0,,,56,60
14023,note_on,303,0,0,,,,,,,,,0,,,77,0
14023,note_on,0,0,0,,,,,,,,,0,,,89,0
14039,note_on,0,0,1,,,,,,,,,0,,,61,0
14039,note_on,39,0,1,,,,,,,,,0,,,56,0
14040,note_on,0,0,1,,,,,,,,,0,,,68,60
14040,note_on,1,0,1,,,,,,,,,0,,,65,60
14079,note_on,0,0,1,,,,,,,,,0,,,68,0
14079,note_on,39,0,1,,,,,,,,,0,,,65,0
14080,note_on,1,0,1,,,,,,,,,0,,,56,60
14080,note_on,0,0,1,,,,,,,,,0,,,61,60
14119,note_on,0,0,1,,,,,,,,,0,,,61,0
14119,note_on,39,0,1,,,,,,,,,0,,,56,0
14120,note_on,1,0,1,,,,,,,,,0,,,65,60
14120,note_on,0,0,1,,,,,,,,,0,,,68,60
14157,note_on,37,0,1,,,,,,,,,0,,,65,0
14157,note_on,0,0,1,,,,,,,,,0,,,68,0
14160,note_on,3,0,1,,,,,,,,,0,,,41,70
14200,note_on,0,0,0,,,,,,,,,0,,,73,70
14200,set_tempo,177,1,0,,,,,,1499999,,,,,,,
14200,note_on,0,0,0,,,,,,,,,0,,,85,70
14240,note_on,0,0,1,,,,,,,,,0,,,61,60
14240,note_on,80,0,1,,,,,,,,,0,,,56,60
14275,note_on,75,0,0,,,,,,,,,0,,,73,0
14275,note_on,0,0,0,,,,,,,,,0,,,85,0
14277,note_on,0,0,1,,,,,,,,,0,,,61,0
14277,note_on,37,0,1,,,,,,,,,0,,,56,0
14280,note_on,0,0,1,,,,,,,,,0,,,68,60
14280,note_on,3,0,1,,,,,,,,,0,,,65,60
14319,note_on,0,0,1,,,,,,,,,0,,,68,0
14319,note_on,39,0,1,,,,,,,,,0,,,65,0
14320,note_on,1,0,1,,,,,,,,,0,,,56,60
14320,note_on,0,0,1,,,,,,,,,0,,,61,60
14359,note_on,39,0,1,,,,,,,,,0,,,56,0
14359,note_on,0,0,1,,,,,,,,,0,,,61,0
14360,note_on,1,0,1,,,,,,,,,0,,,65,60
14360,note_on,0,0,1,,,,,,,,,0,,,68,60
14387,note_on,27,0,1,,,,,,,,,0,,,41,0
14397,note_on,0,0,1,,,,,,,,,0,,,68,0
14397,note_on,10,0,1,,,,,,,,,0,,,65,0
14400,note_on,3,0,1,,,,,,,,,0,,,36,70
14400,note_on,125,0,0,,,,,,,,,0,,,70,60
14400,note_on,0,0,0,,,,,,,,,0,,,70,70
14400,note_on,0,0,0,,,,,,,,,0,,,70,0
14400,note_on,0,0,0,,,,,,,,,0,,,82,70
14401,control_change,1,0,1,,,,,,,64,0,0,,,,
14402,control_change,1,0,1,,,,,,,64,127,0,,,,
14440,note_on,40,0,0,,,,,,,,,0,,,75,60
14440,note_on,0,0,0,,,,,,,,,0,,,78,60
14479,note_on,39,0,0,,,,,,,,,0,,,75,0
14479,note_on,0,0,0,,,,,,,,,0,,,78,0
14480,note_on,0,0,0,,,,,,,,,0,,,70,60
14480,note_on,1,0,0,,,,,,,,,0,,,70,0
14520,note_on,40,0,0,,,,,,,,,0,,,75,60
14520,note_on,0,0,1,,,,,,,,,0,,,66,70
14520,note_on,0,0,0,,,,,,,,,0,,,78,60
14520,note_on,0,0,1,,,,,,,,,0,,,63,70
14520,note_on,118,0,1,,,,,,,,,0,,,54,70
14559,note_on,0,0,0,,,,,,,,,0,,,78,0
14559,note_on,39,0,0,,,,,,,,,0,,,75,0
14560,note_on,1,0,0,,,,,,,,,0,,,70,0
14560,note_on,0,0,0,,,,,,,,,0,,,70,60
14600,note_on,40,0,0,,,,,,,,,0,,,75,60
14600,note_on,0,0,0,,,,,,,,,0,,,78,60
14627,note_on,107,0,1,,,,,,,,,0,,,36,0
14633,note_on,6,0,1,,,,,,,,,0,,,54,0
14633,note_on,0,0,1,,,,,,,,,0,,,63,0
14633,note_on,0,0,1,,,,,,,,,0,,,66,0
14639,note_on,0,0,0,,,,,,,,,0,,,75,0
14639,note_on,0,0,0,,,,,,,,,0,,,78,0
14639,note_on,0,0,0,,,,,,,,,0,,,82,0
14639,note_on,39,0,0,,,,,,,,,0,,,70,0
14640,note_on,0,0,0,,,,,,,,,0,,,67,0
14640,note_on,0,0,0,,,,,,,,,0,,,67,60
14640,note_on,0,0,0,,,,,,,,,0,,,67,70
14640,note_on,0,0,0,,,,,,,,,0,,,79,70
14640,set_tempo,1,1,0,,,,,,1200000,,,,,,,
14640,note_on,7,0,1,,,,,,,,,0,,,39,70
14680,note_on,40,0,0,,,,,,,,,0,,,75,60
14680,note_on,0,0,0,,,,,,,,,0,,,78,60
14719,note_on,0,0,0,,,,,,,,,0,,,78,0
14719,note_on,39,0,0,,,,,,,,,0,,,75,0
14720,note_on,1,0,0,,,,,,,,,0,,,67,0
14720,note_on,0,0,0,,,,,,,,,0,,,67,60
14760,note_on,120,0,1,,,,,,,,,0,,,54,70
14760,note_on,0,0,1,,,,,,,,,0,,,63,70
14760,note_on,0,0,1,,,,,,,,,0,,,66,70
14760,note_on,40,0,0,,,,,,,,,0,,,75,60
14760,note_on,0,0,0,,,,,,,,,0,,,78,60
14799,note_on,39,0,0,,,,,,,,,0,,,75,0
14799,note_on,0,0,0,,,,,,,,,0,,,78,0
14800,note_on,0,0,0,,,,,,,,,0,,,67,60
14800,note_on,1,0,0,,,,,,,,,0,,,67,0
14840,note_on,40,0,0,,,,,,,,,0,,,75,60
14840,note_on,0,0,0,,,,,,,,,0,,,78,60
14867,note_on,107,0,1,,,,,,,,,0,,,39,0
14873,note_on,0,0,1,,,,,,,,,0,,,66,0
14873,note_on,0,0,1,,,,,,,,,0,,,63,0
14873,note_on,6,0,1,,,,,,,,,0,,,54,0
14879,note_on,0,0,0,,,,,,,,,0,,,79,0
14879,note_on,39,0,0,,,,,,,,,0,,,67,0
14879,note_on,0,0,0,,,,,,,,,0,,,78,0
14879,note_on,0,0,0,,,,,,,,,0,,,75,0
14880,note_on,0,0,0,,,,,,,,,0,,,68,70
14880,note_on,0,0,0,,,,,,,,,0,,,68,0
14880,note_on,7,0,1,,,,,,,,,0,,,44,70
14880,note_on,1,0,0,,,,,,,,,0,,,68,60
14880,note_on,0,0,0,,,,,,,,,0,,,80,70
14920,note_on,0,0,0,,,,,,,,,0,,,75,60
14920,note_on,40,0,0,,,,,,,,,0,,,72,60
14959,note_on,0,0,0,,,,,,,,,0,,,75,0
14959,note_on,39,0,0,,,,,,,,,0,,,72,0
14960,note_on,0,0,0,,,,,,,,,0,,,68,60
14960,note_on,1,0,0,,,,,,,,,0,,,68,0
15000,note_on,0,0,1,,,,,,,,,0,,,60,70
15000,note_on,0,0,1,,,,,,,,,0,,,63,70
15000,note_on,0,0,0,,,,,,,,,0,,,75,60
15000,note_on,120,0,1,,,,,,,,,0,,,54,70
15000,note_on,40,0,0,,,,,,,,,0,,,72,60
15039,note_on,0,0,0,,,,,,,,,0,,,75,0
15039,note_on,39,0,0,,,,,,,,,0,,,72,0
15040,note_on,0,0,0,,,,,,,,,0,,,68,60
15040,note_on,1,0,0,,,,,,,,,0,,,68,0
15080,note_on,40,0,0,,,,,,,,,0,,,72,60
15080,note_on,0,0,0,,,,,,,,,0,,,75,60
15107,note_on,107,0,1,,,,,,,,,0,,,44,0
15113,note_on,6,0,1,,,,,,,,,0,,,54,0
15113,note_on,0,0,1,,,,,,,,,0,,,60,0
15113,note_on,0,0,1,,,,,,,,,0,,,63,0
15117,note_on,37,0,0,,,,,,,,,0,,,72,0
15117,note_on,0,0,0,,,,,,,,,0,,,75,0
15119,note_on,0,0,0,,,,,,,,,0,,,80,0
15119,note_on,2,0,0,,,,,,,,,0,,,68,0
15120,note_on,0,0,0,,,,,,,,,0,,,81,70
15120,note_on,0,0,0,,,,,,,,,0,,,69,70
15120,note_on,0,0,0,,,,,,,,,0,,,69,60
15120,note_on,0,0,0,,,,,,,,,0,,,69,0
15120,set_tempo,1,1,0,,,,,,1333333,,,,,,,
15120,note_on,7,0,1,,,,,,,,,0,,,36,70
15121,control_change,1,0,1,,,,,,,64,0,0,,,,
15122,control_change,1,0,1,,,,,,,64,127,0,,,,
15160,note_on,0,0,0,,,,,,,,,0,,,78,58
15160,note_on,40,0,0,,,,,,,,,0,,,75,58
15199,note_on,39,0,0,,,,,,,,,0,,,75,0
15199,note_on,0,0,0,,,,,,,,,0,,,78,0
15200,note_on,1,0,0,,,,,,,,,0,,,69,0
15200,note_on,0,0,0,,,,,,,,,0,,,69,57
15240,note_on,0,0,1,,,,,,,,,0,,,63,70
15240,note_on,118,0,1,,,,,,,,,0,,,54,70
15240,note_on,40,0,0,,,,,,,,,0,,,75,55
15240,note_on,0,0,0,,,,,,,,,0,,,78,55
15240,note_on,0,0,1,,,,,,,,,0,,,66,70
15279,note_on,39,0,0,,,,,,,,,0,,,75,0
15279,note_on,0,0,0,,,,,,,,,0,,,78,0
15280,note_on,1,0,0,,,,,,,,,0,,,69,0
15280,note_on,0,0,0,,,,,,,,,0,,,69,53
15320,note_on,0,0,0,,,,,,,,,0,,,78,51
15320,note_on,40,0,0,,,,,,,,,0,,,75,51
15347,note_on,107,0,1,,,,,,,,,0,,,36,0
15353,note_on,0,0,1,,,,,,,,,0,,,66,0
15353,note_on,6,0,1,,,,,,,,,0,,,54,0
15353,note_on,0,0,1,,,,,,,,,0,,,63,0
15359,note_on,0,0,0,,,,,,,,,0,,,75,0
15359,note_on,0,0,0,,,,,,,,,0,,,78,0
15359,note_on,0,0,0,,,,,,,,,0,,,81,0
15359,note_on,39,0,0,,,,,,,,,0,,,69,0
15360,note_on,0,0,0,,,,,,,,,0,,,67,0
15360,note_on,0,0,0,,,,,,,,,0,,,67,60
15360,note_on,0,0,0,,,,,,,,,0,,,79,60
15360,note_on,7,0,1,,,,,,,,,0,,,39,70
15360,note_on,0,0,0,,,,,,,,,0,,,67,51
15360,set_tempo,1,1,0,,,,,,1200000,,,,,,,
15400,note_on,40,0,0,,,,,,,,,0,,,75,51
15400,note_on,0,0,0,,,,,,,,,0,,,78,51
15439,note_on,0,0,0,,,,,,,,,0,,,78,0
15439,note_on,39,0,0,,,,,,,,,0,,,75,0
15440,note_on,1,0,0,,,,,,,,,0,,,67,0
15440,note_on,0,0,0,,,,,,,,,0,,,67,52
15480,note_on,0,0,0,,,,,,,,,0,,,78,53
15480,note_on,0,0,1,,,,,,,,,0,,,66,70
15480,note_on,0,0,1,,,,,,,,,0,,,63,70
15480,note_on,120,0,1,,,,,,,,,0,,,54,70
15480,note_on,40,0,0,,,,,,,,,0,,,75,53
15519,note_on,39,0,0,,,,,,,,,0,,,75,0
15519,note_on,0,0,0,,,,,,,,,0,,,78,0
15520,note_on,0,0,0,,,,,,,,,0,,,67,54
15520,note_on,1,0,0,,,,,,,,,0,,,67,0
15560,note_on,0,0,0,,,,,,,,,0,,,78,55
15560,note_on,40,0,0,,,,,,,,,0,,,75,55
15587,note_on,107,0,1,,,,,,,,,0,,,39,0
15593,note_on,0,0,1,,,,,,,,,0,,,63,0
15593,note_on,0,0,1,,,,,,,,,0,,,66,0
15593,note_on,6,0,1,,,,,,,,,0,,,54,0
15599,note_on,0,0,0,,,,,,,,,0,,,79,0
15599,note_on,0,0,0,,,,,,,,,0,,,78,0
15599,note_on,39,0,0,,,,,,,,,0,,,67,0
15599,note_on,0,0,0,,,,,,,,,0,,,75,0
15600,note_on,0,0,0,,,,,,,,,0,,,80,65
15600,note_on,0,0,0,,,,,,,,,0,,,68,65
15600,note_on,0,0,0,,,,,,,,,0,,,68,0
15600,note_on,7,0,1,,,,,,,,,0,,,44,70
15600,note_on,1,0,0,,,,,,,,,0,,,68,56
15640,note_on,40,0,0,,,,,,,,,0,,,72,56
15640,note_on,0,0,0,,,,,,,,,0,,,75,56
15679,note_on,0,0,0,,,,,,,,,0,,,75,0
15679,note_on,39,0,0,,,,,,,,,0,,,72,0
15680,note_on,0,0,0,,,,,,,,,0,,,68,57
15680,note_on,1,0,0,,,,,,,,,0,,,68,0
15720,note_on,0,0,1,,,,,,,,,0,,,60,70
15720,note_on,0,0,1,,,,,,,,,0,,,63,70
15720,note_on,120,0,1,,,,,,,,,0,,,54,70
15720,note_on,40,0,0,,,,,,,,,0,,,72,57
15720,note_on,0,0,0,,,,,,,,,0,,,75,57
15759,note_on,0,0,0,,,,,,,,,0,,,75,0
15759,note_on,39,0,0,,,,,,,,,0,,,72,0
15760,note_on,1,0,0,,,,,,,,,0,,,68,0
15760,note_on,0,0,0,,,,,,,,,0,,,68,58
15800,note_on,0,0,0,,,,,,,,,0,,,75,59
15800,note_on,40,0,0,,,,,,,,,0,,,72,59
15827,note_on,107,0,1,,,,,,,,,0,,,44,0
15833,note_on,0,0,1,,,,,,,,,0,,,63,0
15833,note_on,0,0,1,,,,,,,,,0,,,60,0
15833,note_on,6,0,1,,,,,,,,,0,,,54,0
15837,note_on,0,0,0,,,,,,,,,0,,,75,0
15837,note_on,37,0,0,,,,,,,,,0,,,72,0
15839,note_on,0,0,0,,,,,,,,,0,,,80,0
15839,note_on,2,0,0,,,,,,,,,0,,,68,0
15840,note_on,7,0,1,,,,,,,,,0,,,37,70
15840,time_signature,1,1,0,3,8,24,8,,,,,,,,,
15841,control_change,1,0,1,,,,,,,64,0,0,,,,
15842,control_change,1,0,1,,,,,,,64,127,0,,,,
15900,note_on,0,0,0,,,,,,,,,0,,,88,70
15900,note_on,60,0,0,,,,,,,,,0,,,76,70
15920,note_on,0,0,0,,,,,,,,,0,,,60,60
15920,note_on,20,0,0,,,,,,,,,0,,,56,60
15957,note_on,37,0,0,,,,,,,,,0,,,56,0
15957,note_on,0,0,0,,,,,,,,,0,,,60,0
15960,note_on,3,0,0,,,,,,,,,0,,,64,61
15960,note_on,0,0,0,,,,,,,,,0,,,68,61
15999,note_on,0,0,0,,,,,,,,,0,,,68,0
15999,note_on,39,0,0,,,,,,,,,0,,,64,0
16000,note_on,0,0,0,,,,,,,,,0,,,60,61
16000,note_on,1,0,0,,,,,,,,,0,,,56,61
16039,note_on,39,0,0,,,,,,,,,0,,,56,0
16039,note_on,0,0,0,,,,,,,,,0,,,60,0
16040,note_on,1,0,0,,,,,,,,,0,,,64,62
16040,note_on,0,0,0,,,,,,,,,0,,,68,62
16067,note_on,225,0,1,,,,,,,,,0,,,37,0
16079,note_on,39,0,0,,,,,,,,,0,,,64,0
16079,note_on,0,0,0,,,,,,,,,0,,,68,0
16080,note_on,0,0,0,,,,,,,,,0,,,60,63
16080,note_on,1,0,0,,,,,,,,,0,,,56,63
16119,note_on,0,0,0,,,,,,,,,0,,,60,0
16119,note_on,39,0,0,,,,,,,,,0,,,56,0
16120,note_on,1,0,0,,,,,,,,,0,,,64,63
16120,note_on,0,0,0,,,,,,,,,0,,,68,63
16127,note_on,7,0,0,,,,,,,,,0,,,76,0
16127,note_on,0,0,0,,,,,,,,,0,,,88,0
16159,note_on,32,0,0,,,,,,,,,0,,,64,0
16159,note_on,0,0,0,,,,,,,,,0,,,68,0
16160,note_on,1,0,0,,,,,,,,,0,,,56,63
16160,note_on,0,0,0,,,,,,,,,0,,,60,63
16199,note_on,0,0,0,,,,,,,,,0,,,60,0
16199,note_on,39,0,0,,,,,,,,,0,,,56,0
16200,note_on,1,0,0,,,,,,,,,0,,,64,64
16200,note_on,0,0,0,,,,,,,,,0,,,68,64
16239,note_on,0,0,0,,,,,,,,,0,,,68,0
16239,note_on,39,0,0,,,,,,,,,0,,,64,0
16240,note_on,0,0,0,,,,,,,,,0,,,60,65
16240,note_on,1,0,0,,,,,,,,,0,,,56,65
16279,note_on,0,0,0,,,,,,,,,0,,,60,0
16279,note_on,39,0,0,,,,,,,,,0,,,56,0
16280,note_on,0,0,0,,,,,,,,,0,,,68,66
16280,note_on,1,0,0,,,,,,,,,0,,,64,66
16317,note_on,0,0,0,,,,,,,,,0,,,68,0
16317,note_on,37,0,0,,,,,,,,,0,,,64,0
16320,note_on,253,0,1,,,,,,,,,0,,,37,77
16321,control_change,1,0,1,,,,,,,64,0,0,,,,
16322,control_change,1,0,1,,,,,,,64,127,0,,,,
16380,note_on,63,0,0,,,,,,,,,0,,,77,78
16380,note_on,0,0,0,,,,,,,,,0,,,89,78
16400,note_on,0,0,0,,,,,,,,,0,,,61,68
16400,note_on,20,0,0,,,,,,,,,0,,,56,68
16437,note_on,0,0,0,,,,,,,,,0,,,61,0
16437,note_on,37,0,0,,,,,,,,,0,,,56,0
16440,note_on,3,0,0,,,,,,,,,0,,,65,68
16440,note_on,0,0,0,,,,,,,,,0,,,68,68
16479,note_on,39,0,0,,,,,,,,,0,,,65,0
16479,note_on,0,0,0,,,,,,,,,0,,,68,0
16480,note_on,0,0,0,,,,,,,,,0,,,61,68
16480,note_on,1,0,0,,,,,,,,,0,,,56,68
16493,note_on,0,0,0,,,,,,,,,0,,,89,0
16493,note_on,13,0,0,,,,,,,,,0,,,77,0
16519,note_on,26,0,0,,,,,,,,,0,,,56,0
16519,note_on,0,0,0,,,,,,,,,0,,,61,0
16520,note_on,1,0,0,,,,,,,,,0,,,65,68
16520,note_on,0,0,0,,,,,,,,,0,,,68,68
16547,note_on,225,0,1,,,,,,,,,0,,,37,0
16559,note_on,39,0,0,,,,,,,,,0,,,65,0
16559,note_on,0,0,0,,,,,,,,,0,,,68,0
16560,note_on,13,0,1,,,,,,,,,0,,,37,68
16620,note_on,0,0,0,,,,,,,,,0,,,89,80
16620,note_on,61,0,0,,,,,,,,,0,,,77,80
16640,note_on,0,0,0,,,,,,,,,0,,,61,68
16640,note_on,20,0,0,,,,,,,,,0,,,56,68
16679,note_on,39,0,0,,,,,,,,,0,,,56,0
16679,note_on,0,0,0,,,,,,,,,0,,,61,0
16680,note_on,0,0,0,,,,,,,,,0,,,68,68
16680,note_on,1,0,0,,,,,,,,,0,,,65,68
16719,note_on,39,0,0,,,,,,,,,0,,,65,0
16719,note_on,0,0,0,,,,,,,,,0,,,68,0
16720,note_on,1,0,0,,,,,,,,,0,,,56,68
16720,note_on,0,0,0,,,,,,,,,0,,,61,68
16739,note_on,19,0,0,,,,,,,,,0,,,77,0
16739,note_on,0,0,0,,,,,,,,,0,,,89,0
16759,note_on,20,0,0,,,,,,,,,0,,,56,0
16759,note_on,0,0,0,,,,,,,,,0,,,61,0
16760,note_on,1,0,0,,,,,,,,,0,,,65,68
16760,note_on,0,0,0,,,,,,,,,0,,,68,68
16787,note_on,227,0,1,,,,,,,,,0,,,37,0
16797,note_on,37,0,0,,,,,,,,,0,,,65,0
16797,note_on,0,0,0,,,,,,,,,0,,,68,0
16800,note_on,13,0,1,,,,,,,,,0,,,39,68
16801,control_change,1,0,1,,,,,,,64,0,0,,,,
16802,control_change,1,0,1,,,,,,,64,127,0,,,,
16860,note_on,63,0,0,,,,,,,,,0,,,75,80
16860,note_on,0,0,0,,,,,,,,,0,,,87,80
16880,note_on,20,0,0,,,,,,,,,0,,,56,68
16880,note_on,0,0,0,,,,,,,,,0,,,60,68
16917,note_on,0,0,0,,,,,,,,,0,,,60,0
16917,note_on,37,0,0,,,,,,,,,0,,,56,0
16920,note_on,3,0,0,,,,,,,,,0,,,66,68
16920,note_on,0,0,0,,,,,,,,,0,,,68,68
16959,note_on,0,0,0,,,,,,,,,0,,,68,0
16959,note_on,39,0,0,,,,,,,,,0,,,66,0
16960,note_on,1,0,0,,,,,,,,,0,,,56,68
16960,note_on,0,0,0,,,,,,,,,0,,,60,68
16999,note_on,39,0,0,,,,,,,,,0,,,56,0
16999,note_on,0,0,0,,,,,,,,,0,,,60,0
17000,note_on,1,0,0,,,,,,,,,0,,,66,68
17000,note_on,0,0,0,,,,,,,,,0,,,68,68
17027,note_on,225,0,1,,,,,,,,,0,,,39,0
17039,note_on,39,0,0,,,,,,,,,0,,,66,0
17039,note_on,0,0,0,,,,,,,,,0,,,68,0
17040,note_on,0,0,0,,,,,,,,,0,,,60,69
17040,note_on,1,0,0,,,,,,,,,0,,,57,69
17079,note_on,0,0,0,,,,,,,,,0,,,60,0
17079,note_on,39,0,0,,,,,,,,,0,,,57,0
17080,note_on,1,0,0,,,,,,,,,0,,,66,69
17080,note_on,0,0,0,,,,,,,,,0,,,69,69
17087,note_on,0,0,0,,,,,,,,,0,,,87,0
17087,note_on,7,0,0,,,,,,,,,0,,,75,0
17119,note_on,32,0,0,,,,,,,,,0,,,66,0
17119,note_on,0,0,0,,,,,,,,,0,,,69,0
17120,note_on,0,0,0,,,,,,,,,0,,,60,70
17120,note_on,1,0,0,,,,,,,,,0,,,57,70
17159,note_on,0,0,0,,,,,,,,,0,,,60,0
17159,note_on,39,0,0,,,,,,,,,0,,,57,0
17160,note_on,1,0,0,,,,,,,,,0,,,66,71
17160,note_on,0,0,0,,,,,,,,,0,,,69,71
17199,note_on,39,0,0,,,,,,,,,0,,,66,0
17199,note_on,0,0,0,,,,,,,,,0,,,69,0
17200,note_on,1,0,0,,,,,,,,,0,,,57,71
17200,note_on,0,0,0,,,,,,,,,0,,,60,71
17239,note_on,0,0,0,,,,,,,,,0,,,60,0
17239,note_on,39,0,0,,,,,,,,,0,,,57,0
17240,note_on,0,0,0,,,,,,,,,0,,,69,72
17240,note_on,1,0,0,,,,,,,,,0,,,66,72
17277,note_on,0,0,0,,,,,,,,,0,,,69,0
17277,note_on,37,0,0,,,,,,,,,0,,,66,0
17280,note_on,253,0,1,,,,,,,,,0,,,39,85
17280,time_signature,3,1,0,6,8,24,8,,,,,,,,,
17281,control_change,1,0,1,,,,,,,64,0,0,,,,
17282,control_change,1,0,1,,,,,,,64,127,0,,,,
17320,note_on,0,0,0,,,,,,,,,0,,,87,85
17320,note_on,40,0,0,,,,,,,,,0,,,75,85
17360,note_on,0,0,1,,,,,,,,,0,,,60,73
17360,note_on,78,0,1,,,,,,,,,0,,,57,73
17395,note_on,0,0,0,,,,,,,,,0,,,87,0
17395,note_on,75,0,0,,,,,,,,,0,,,75,0
17397,note_on,0,0,1,,,,,,,,,0,,,60,0
17397,note_on,37,0,1,,,,,,,,,0,,,57,0
17400,note_on,0,0,1,,,,,,,,,0,,,69,73
17400,note_on,3,0,1,,,,,,,,,0,,,66,73
17439,note_on,39,0,1,,,,,,,,,0,,,66,0
17439,note_on,0,0,1,,,,,,,,,0,,,69,0
17440,note_on,1,0,1,,,,,,,,,0,,,57,73
17440,note_on,0,0,1,,,,,,,,,0,,,60,73
17479,note_on,39,0,1,,,,,,,,,0,,,57,0
17479,note_on,0,0,1,,,,,,,,,0,,,60,0
17480,note_on,0,0,1,,,,,,,,,0,,,69,73
17480,note_on,1,0,1,,,,,,,,,0,,,66,73
17507,note_on,27,0,1,,,,,,,,,0,,,39,0
17517,note_on,0,0,1,,,,,,,,,0,,,69,0
17517,note_on,10,0,1,,,,,,,,,0,,,66,0
17520,note_on,3,0,1,,,,,,,,,0,,,40,85
17521,control_change,1,0,1,,,,,,,64,0,0,,,,
17522,control_change,1,0,1,,,,,,,64,127,0,,,,
17560,note_on,0,0,0,,,,,,,,,0,,,85,85
17560,note_on,165,0,0,,,,,,,,,0,,,73,85
17600,note_on,78,0,1,,,,,,,,,0,,,57,73
17600,note_on,0,0,1,,,,,,,,,0,,,61,73
17637,note_on,37,0,1,,,,,,,,,0,,,57,0
17637,note_on,0,0,1,,,,,,,,,0,,,61,0
17640,note_on,3,0,1,,,,,,,,,0,,,67,73
17640,note_on,0,0,1,,,,,,,,,0,,,69,73
17679,note_on,0,0,1,,,,,,,,,0,,,69,0
17679,note_on,39,0,1,,,,,,,,,0,,,67,0
17680,note_on,1,0,1,,,,,,,,,0,,,57,74
17680,note_on,0,0,1,,,,,,,,,0,,,61,74
17711,note_on,151,0,0,,,,,,,,,0,,,73,0
17711,note_on,0,0,0,,,,,,,,,0,,,85,0
17719,note_on,39,0,1,,,,,,,,,0,,,57,0
17719,note_on,0,0,1,,,,,,,,,0,,,61,0
17720,note_on,0,0,1,,,,,,,,,0,,,69,74
17720,note_on,1,0,1,,,,,,,,,0,,,67,74
17747,note_on,27,0,1,,,,,,,,,0,,,40,0
17759,note_on,12,0,1,,,,,,,,,0,,,67,0
17759,note_on,0,0,1,,,,,,,,,0,,,69,0
17760,note_on,0,0,1,,,,,,,,,0,,,61,74
17760,note_on,1,0,1,,,,,,,,,0,,,58,74
17799,note_on,39,0,1,,,,,,,,,0,,,58,0
17799,note_on,0,0,1,,,,,,,,,0,,,61,0
17800,note_on,0,0,1,,,,,,,,,0,,,70,74
17800,note_on,1,0,1,,,,,,,,,0,,,67,74
17839,note_on,0,0,1,,,,,,,,,0,,,70,0
17839,note_on,39,0,1,,,,,,,,,0,,,67,0
17840,note_on,1,0,1,,,,,,,,,0,,,58,75
17840,note_on,0,0,1,,,,,,,,,0,,,61,75
17879,note_on,39,0,1,,,,,,,,,0,,,58,0
17879,note_on,0,0,1,,,,,,,,,0,,,61,0
17880,note_on,1,0,1,,,,,,,,,0,,,67,75
17880,note_on,0,0,1,,,,,,,,,0,,,70,75
17919,note_on,0,0,1,,,,,,,,,0,,,70,0
17919,note_on,39,0,1,,,,,,,,,0,,,67,0
17920,note_on,1,0,1,,,,,,,,,0,,,58,76
17920,note_on,0,0,1,,,,,,,,,0,,,61,76
17959,note_on,39,0,1,,,,,,,,,0,,,58,0
17959,note_on,0,0,1,,,,,,,,,0,,,61,0
17960,note_on,0,0,1,,,,,,,,,0,,,70,76
17960,note_on,1,0,1,,,,,,,,,0,,,67,76
17997,note_on,37,0,1,,,,,,,,,0,,,67,0
17997,note_on,0,0,1,,,,,,,,,0,,,70,0
18000,note_on,3,0,1,,,,,,,,,0,,,40,90
18001,control_change,1,0,1,,,,,,,64,0,0,,,,
18002,control_change,1,0,1,,,,,,,64,127,0,,,,
18040,note_on,329,0,0,,,,,,,,,0,,,73,90
18040,note_on,0,0,0,,,,,,,,,0,,,85,90
18080,note_on,0,0,1,,,,,,,,,0,,,61,77
18080,note_on,78,0,1,,,,,,,,,0,,,58,77
18117,note_on,0,0,1,,,,,,,,,0,,,61,0
18117,note_on,37,0,1,,,,,,,,,0,,,58,0
18120,note_on,3,0,1,,,,,,,,,0,,,67,77
18120,note_on,0,0,1,,,,,,,,,0,,,70,77
18159,note_on,0,0,1,,,,,,,,,0,,,70,0
18159,note_on,39,0,1,,,,,,,,,0,,,67,0
18160,note_on,1,0,1,,,,,,,,,0,,,58,77
18160,note_on,0,0,1,,,,,,,,,0,,,61,77
18191,note_on,151,0,0,,,,,,,,,0,,,73,0
18191,note_on,0,0,0,,,,,,,,,0,,,85,0
18199,note_on,39,0,1,,,,,,,,,0,,,58,0
18199,note_on,0,0,1,,,,,,,,,0,,,61,0
18200,note_on,0,0,1,,,,,,,,,0,,,70,77
18200,note_on,1,0,1,,,,,,,,,0,,,67,77
18227,note_on,27,0,1,,,,,,,,,0,,,40,0
18237,note_on,0,0,1,,,,,,,,,0,,,70,0
18237,note_on,10,0,1,,,,,,,,,0,,,67,0
18240,note_on,3,0,1,,,,,,,,,0,,,41,90
18241,control_change,1,0,1,,,,,,,64,0,0,,,,
18242,control_change,1,0,1,,,,,,,64,127,0,,,,
18280,note_on,0,0,0,,,,,,,,,0,,,85,90
18280,note_on,89,0,0,,,,,,,,,0,,,73,90
18320,note_on,78,0,1,,,,,,,,,0,,,59,77
18320,note_on,0,0,1,,,,,,,,,0,,,61,77
18357,note_on,0,0,1,,,,,,,,,0,,,61,0
18357,note_on,37,0,1,,,,,,,,,0,,,59,0
18360,note_on,0,0,1,,,,,,,,,0,,,71,77
18360,note_on,3,0,1,,,,,,,,,0,,,68,77
18399,note_on,39,0,1,,,,,,,,,0,,,68,0
18399,note_on,0,0,1,,,,,,,,,0,,,71,0
18400,note_on,1,0,1,,,,,,,,,0,,,59,78
18400,note_on,0,0,1,,,,,,,,,0,,,61,78
18431,note_on,151,0,0,,,,,,,,,0,,,73,0
18431,note_on,0,0,0,,,,,,,,,0,,,85,0
18439,note_on,0,0,1,,,,,,,,,0,,,61,0
18439,note_on,39,0,1,,,,,,,,,0,,,59,0
18440,note_on,0,0,1,,,,,,,,,0,,,71,78
18440,note_on,1,0,1,,,,,,,,,0,,,68,78
18467,note_on,27,0,1,,,,,,,,,0,,,41,0
18479,note_on,0,0,1,,,,,,,,,0,,,71,0
18479,note_on,12,0,1,,,,,,,,,0,,,68,0
18480,note_on,1,0,1,,,,,,,,,0,,,60,79
18480,note_on,0,0,1,,,,,,,,,0,,,61,79
18519,note_on,0,0,1,,,,,,,,,0,,,61,0
18519,note_on,39,0,1,,,,,,,,,0,,,60,0
18520,note_on,0,0,1,,,,,,,,,0,,,72,79
18520,note_on,1,0,1,,,,,,,,,0,,,68,79
18559,note_on,39,0,1,,,,,,,,,0,,,68,0
18559,note_on,0,0,1,,,,,,,,,0,,,72,0
18560,note_on,1,0,1,,,,,,,,,0,,,60,80
18560,note_on,0,0,1,,,,,,,,,0,,,61,80
18599,note_on,0,0,1,,,,,,,,,0,,,61,0
18599,note_on,39,0,1,,,,,,,,,0,,,60,0
18600,note_on,0,0,1,,,,,,,,,0,,,72,80
18600,note_on,1,0,1,,,,,,,,,0,,,68,80
18639,note_on,0,0,1,,,,,,,,,0,,,72,0
18639,note_on,39,0,1,,,,,,,,,0,,,68,0
18640,note_on,1,0,1,,,,,,,,,0,,,60,80
18640,note_on,0,0,1,,,,,,,,,0,,,61,80
18679,note_on,0,0,1,,,,,,,,,0,,,61,0
18679,note_on,39,0,1,,,,,,,,,0,,,60,0
18680,note_on,0,0,1,,,,,,,,,0,,,72,80
18680,note_on,1,0,1,,,,,,,,,0,,,68,80
18690,note_on,10,0,1,,,,,,,,,0,,,72,0
18690,note_on,0,0,0,,,,,,,,,0,,,72,94
18690,note_on,0,0,0,,,,,,,,,0,,,84,94
18690,set_tempo,259,1,0,,,,,,3000000,,,,,,,
18717,note_on,0,0,0,,,,,,,,,0,,,72,0
18717,note_on,27,0,1,,,,,,,,,0,,,68,0
18717,note_on,27,0,0,,,,,,,,,0,,,84,0
18720,set_tempo,3,1,0,,,,,,1499999,,,,,,,
18720,note_on,0,0,0,,,,,,,,,0,,,72,0
18720,note_on,0,0,0,,,,,,,,,0,,,72,81
18720,note_on,0,0,0,,,,,,,,,0,,,72,95
18720,note_on,0,0,0,,,,,,,,,0,,,84,95
18720,note_on,3,0,1,,,,,,,,,0,,,42,95
18721,control_change,1,0,1,,,,,,,64,0,0,,,,
18722,control_change,1,0,1,,,,,,,64,127,0,,,,
18760,note_on,40,0,0,,,,,,,,,0,,,73,81
18760,note_on,0,0,0,,,,,,,,,0,,,78,81
18799,note_on,0,0,0,,,,,,,,,0,,,78,0
18799,note_on,39,0,0,,,,,,,,,0,,,73,0
18800,note_on,0,0,0,,,,,,,,,0,,,72,81
18800,note_on,1,0,0,,,,,,,,,0,,,72,0
18840,note_on,118,0,1,,,,,,,,,0,,,60,95
18840,note_on,0,0,1,,,,,,,,,0,,,69,95
18840,note_on,0,0,0,,,,,,,,,0,,,78,81
18840,note_on,40,0,0,,,,,,,,,0,,,73,81
18879,note_on,0,0,0,,,,,,,,,0,,,78,0
18879,note_on,39,0,0,,,,,,,,,0,,,73,0
18880,note_on,1,0,0,,,,,,,,,0,,,72,0
18880,note_on,0,0,0,,,,,,,,,0,,,72,81
18920,note_on,40,0,0,,,,,,,,,0,,,73,81
18920,note_on,0,0,0,,,,,,,,,0,,,78,81
18947,note_on,107,0,1,,,,,,,,,0,,,42,0
18953,note_on,0,0,1,,,,,,,,,0,,,69,0
18953,note_on,6,0,1,,,,,,,,,0,,,60,0
18959,note_on,0,0,0,,,,,,,,,0,,,84,0
18959,note_on,0,0,0,,,,,,,,,0,,,78,0
18959,note_on,39,0,0,,,,,,,,,0,,,72,0
18959,note_on,0,0,0,,,,,,,,,0,,,73,0
18960,set_tempo,1,1,0,,,,,,1200000,,,,,,,
18960,note_on,0,0,0,,,,,,,,,0,,,81,95
18960,note_on,0,0,0,,,,,,,,,0,,,69,95
18960,note_on,0,0,0,,,,,,,,,0,,,69,81
18960,note_on,0,0,0,,,,,,,,,0,,,69,0
18960,note_on,7,0,1,,,,,,,,,0,,,49,95
19000,note_on,40,0,0,,,,,,,,,0,,,73,81
19000,note_on,0,0,0,,,,,,,,,0,,,78,81
19039,note_on,0,0,0,,,,,,,,,0,,,78,0
19039,note_on,39,0,0,,,,,,,,,0,,,73,0
19040,note_on,0,0,0,,,,,,,,,0,,,69,81
19040,note_on,1,0,0,,,,,,,,,0,,,69,0
19080,note_on,0,0,1,,,,,,,,,0,,,66,95
19080,note_on,40,0,0,,,,,,,,,0,,,73,81
19080,note_on,120,0,1,,,,,,,,,0,,,57,95
19080,note_on,0,0,0,,,,,,,,,0,,,78,81
19119,note_on,39,0,0,,,,,,,,,0,,,73,0
19119,note_on,0,0,0,,,,,,,,,0,,,78,0
19120,note_on,0,0,0,,,,,,,,,0,,,69,81
19120,note_on,1,0,0,,,,,,,,,0,,,69,0
19160,note_on,0,0,0,,,,,,,,,0,,,78,81
19160,note_on,40,0,0,,,,,,,,,0,,,73,81
19187,note_on,107,0,1,,,,,,,,,0,,,49,0
19193,note_on,0,0,1,,,,,,,,,0,,,66,0
19193,note_on,6,0,1,,,,,,,,,0,,,57,0
19199,note_on,0,0,0,,,,,,,,,0,,,73,0
19199,note_on,39,0,0,,,,,,,,,0,,,69,0
19199,note_on,0,0,0,,,,,,,,,0,,,78,0
19199,note_on,0,0,0,,,,,,,,,0,,,81,0
19200,note_on,1,0,0,,,,,,,,,0,,,70,81
19200,note_on,0,0,0,,,,,,,,,0,,,82,95
19200,note_on,7,0,1,,,,,,,,,0,,,42,95
19200,note_on,0,0,0,,,,,,,,,0,,,70,0
19200,note_on,0,0,0,,,,,,,,,0,,,70,95
19240,note_on,0,0,0,,,,,,,,,0,,,78,81
19240,note_on,40,0,0,,,,,,,,,0,,,73,81
19279,note_on,0,0,0,,,,,,,,,0,,,78,0
19279,note_on,39,0,0,,,,,,,,,0,,,73,0
19280,note_on,0,0,0,,,,,,,,,0,,,70,81
19280,note_on,1,0,0,,,,,,,,,0,,,70,0
19320,note_on,0,0,0,,,,,,,,,0,,,78,81
19320,note_on,40,0,0,,,,,,,,,0,,,73,81
19320,note_on,120,0,1,,,,,,,,,0,,,58,95
19320,note_on,0,0,1,,,,,,,,,0,,,61,95
19359,note_on,0,0,0,,,,,,,,,0,,,78,0
19359,note_on,39,0,0,,,,,,,,,0,,,73,0
19360,note_on,0,0,0,,,,,,,,,0,,,70,81
19360,note_on,1,0,0,,,,,,,,,0,,,70,0
19400,note_on,40,0,0,,,,,,,,,0,,,73,81
19400,note_on,0,0,0,,,,,,,,,0,,,78,81
19427,note_on,107,0,1,,,,,,,,,0,,,42,0
19433,note_on,6,0,1,,,,,,,,,0,,,58,0
19433,note_on,0,0,1,,,,,,,,,0,,,61,0
19437,note_on,37,0,0,,,,,,,,,0,,,73,0
19437,note_on,0,0,0,,,,,,,,,0,,,78,0
19439,note_on,2,0,0,,,,,,,,,0,,,70,0
19439,note_on,0,0,0,,,,,,,,,0,,,82,0
19440,note_on,0,0,0,,,,,,,,,0,,,71,0
19440,set_tempo,1,1,0,,,,,,1499999,,,,,,,
19440,note_on,0,0,0,,,,,,,,,0,,,83,95
19440,note_on,0,0,0,,,,,,,,,0,,,71,81
19440,note_on,7,0,1,,,,,,,,,0,,,41,95
19440,note_on,0,0,0,,,,,,,,,0,,,71,95
19441,control_change,1,0,1,,,,,,,64,0,0,,,,
19442,control_change,1,0,1,,,,,,,64,127,0,,,,
19480,note_on,40,0,0,,,,,,,,,0,,,74,80
19480,note_on,0,0,0,,,,,,,,,0,,,80,80
19519,note_on,0,0,0,,,,,,,,,0,,,80,0
19519,note_on,39,0,0,,,,,,,,,0,,,74,0
19520,note_on,0,0,0,,,,,,,,,0,,,71,79
19520,note_on,1,0,0,,,,,,,,,0,,,71,0
19560,note_on,40,0,0,,,,,,,,,0,,,74,77
19560,note_on,0,0,0,,,,,,,,,0,,,80,77
19560,note_on,118,0,1,,,,,,,,,0,,,56,90
19560,note_on,0,0,1,,,,,,,,,0,,,62,90
19599,note_on,0,0,0,,,,,,,,,0,,,80,0
19599,note_on,39,0,0,,,,,,,,,0,,,74,0
19600,note_on,1,0,0,,,,,,,,,0,,,71,0
19600,note_on,0,0,0,,,,,,,,,0,,,71,76
19640,note_on,0,0,0,,,,,,,,,0,,,80,74
19640,note_on,40,0,0,,,,,,,,,0,,,74,74
19667,note_on,107,0,1,,,,,,,,,0,,,41,0
19673,note_on,6,0,1,,,,,,,,,0,,,56,0
19673,note_on,0,0,1,,,,,,,,,0,,,62,0
19679,note_on,0,0,0,,,,,,,,,0,,,80,0
19679,note_on,0,0,0,,,,,,,,,0,,,83,0
19679,note_on,0,0,0,,,,,,,,,0,,,74,0
19679,note_on,39,0,0,,,,,,,,,0,,,71,0
19680,set_tempo,1,1,0,,,,,,1200000,,,,,,,
19680,note_on,0,0,0,,,,,,,,,0,,,81,85
19680,note_on,0,0,0,,,,,,,,,0,,,69,85
19680,note_on,0,0,0,,,,,,,,,0,,,69,73
19680,note_on,0,0,0,,,,,,,,,0,,,69,0
19680,note_on,7,0,1,,,,,,,,,0,,,50,85
19720,note_on,0,0,0,,,,,,,,,0,,,77,73
19720,note_on,40,0,0,,,,,,,,,0,,,74,73
19759,note_on,0,0,0,,,,,,,,,0,,,77,0
19759,note_on,39,0,0,,,,,,,,,0,,,74,0
19760,note_on,0,0,0,,,,,,,,,0,,,69,74
19760,note_on,1,0,0,,,,,,,,,0,,,69,0
19800,note_on,40,0,0,,,,,,,,,0,,,74,74
19800,note_on,0,0,1,,,,,,,,,0,,,65,87
19800,note_on,120,0,1,,,,,,,,,0,,,56,87
19800,note_on,0,0,0,,,,,,,,,0,,,77,74
19839,note_on,0,0,0,,,,,,,,,0,,,77,0
19839,note_on,39,0,0,,,,,,,,,0,,,74,0
19840,note_on,0,0,0,,,,,,,,,0,,,69,75
19840,note_on,1,0,0,,,,,,,,,0,,,69,0
19880,note_on,40,0,0,,,,,,,,,0,,,74,76
19880,note_on,0,0,0,,,,,,,,,0,,,77,76
19907,note_on,107,0,1,,,,,,,,,0,,,50,0
19913,note_on,0,0,1,,,,,,,,,0,,,65,0
19913,note_on,6,0,1,,,,,,,,,0,,,56,0
19919,note_on,0,0,0,,,,,,,,,0,,,81,0
19919,note_on,0,0,0,,,,,,,,,0,,,74,0
19919,note_on,0,0,0,,,,,,,,,0,,,77,0
19919,note_on,39,0,0,,,,,,,,,0,,,69,0
19920,note_on,7,0,1,,,,,,,,,0,,,41,90
19920,note_on,0,0,0,,,,,,,,,0,,,70,90
19920,note_on,0,0,0,,,,,,,,,0,,,70,0
19920,note_on,0,0,0,,,,,,,,,0,,,82,90
19920,note_on,1,0,0,,,,,,,,,0,,,70,77
19960,note_on,40,0,0,,,,,,,,,0,,,74,77
19960,note_on,0,0,0,,,,,,,,,0,,,77,77
19999,note_on,39,0,0,,,,,,,,,0,,,74,0
19999,note_on,0,0,0,,,,,,,,,0,,,77,0
20000,note_on,1,0,0,,,,,,,,,0,,,70,0
20000,note_on,0,0,0,,,,,,,,,0,,,70,78
20040,note_on,0,0,1,,,,,,,,,0,,,62,92
20040,note_on,0,0,1,,,,,,,,,0,,,68,92
20040,note_on,120,0,1,,,,,,,,,0,,,56,92
20040,note_on,0,0,0,,,,,,,,,0,,,77,79
20040,note_on,40,0,0,,,,,,,,,0,,,74,79
20079,note_on,0,0,0,,,,,,,,,0,,,77,0
20079,note_on,39,0,0,,,,,,,,,0,,,74,0
20080,note_on,1,0,0,,,,,,,,,0,,,70,0
20080,note_on,0,0,0,,,,,,,,,0,,,70,80
20120,note_on,0,0,0,,,,,,,,,0,,,77,80
20120,note_on,40,0,0,,,,,,,,,0,,,74,80
20147,note_on,107,0,1,,,,,,,,,0,,,41,0
20153,note_on,6,0,1,,,,,,,,,0,,,56,0
20153,note_on,0,0,1,,,,,,,,,0,,,62,0
20153,note_on,0,0,1,,,,,,,,,0,,,68,0
20157,note_on,0,0,0,,,,,,,,,0,,,77,0
20157,note_on,37,0,0,,,,,,,,,0,,,74,0
20159,note_on,0,0,0,,,,,,,,,0,,,82,0
20159,note_on,2,0,0,,,,,,,,,0,,,70,0
20160,time_signature,1,1,0,3,8,24,8,,,,,,,,,
20160,note_on,0,0,0,,,,,,,,,0,,,82,95
20160,note_on,0,0,0,,,,,,,,,0,,,70,95
20160,note_on,0,0,0,,,,,,,,,0,,,70,81
20160,note_on,7,0,1,,,,,,,,,0,,,39,95
20160,note_on,0,0,0,,,,,,,,,0,,,70,0
20200,note_on,40,0,0,,,,,,,,,0,,,75,81
20200,note_on,0,0,0,,,,,,,,,0,,,78,81
20237,note_on,0,0,0,,,,,,,,,0,,,78,0
20237,note_on,37,0,0,,,,,,,,,0,,,75,0
20240,note_on,3,0,0,,,,,,,,,0,,,70,0
20240,note_on,80,0,1,,,,,,,,,0,,,63,81
20240,note_on,0,0,0,,,,,,,,,0,,,70,81
20240,note_on,0,0,1,,,,,,,,,0,,,66,81
20277,note_on,0,0,1,,,,,,,,,0,,,66,0
20277,note_on,37,0,1,,,,,,,,,0,,,63,0
20280,note_on,3,0,1,,,,,,,,,0,,,58,81
20280,note_on,40,0,0,,,,,,,,,0,,,75,81
20280,note_on,0,0,0,,,,,,,,,0,,,78,81
20317,note_on,37,0,0,,,,,,,,,0,,,75,0
20317,note_on,37,0,1,,,,,,,,,0,,,58,0
20317,note_on,0,0,0,,,,,,,,,0,,,78,0
20320,note_on,0,0,1,,,,,,,,,0,,,66,81
20320,note_on,3,0,1,,,,,,,,,0,,,63,81
20320,note_on,3,0,0,,,,,,,,,0,,,70,0
20320,note_on,0,0,0,,,,,,,,,0,,,70,81
20357,note_on,0,0,1,,,,,,,,,0,,,66,0
20357,note_on,37,0,1,,,,,,,,,0,,,63,0
20360,note_on,0,0,0,,,,,,,,,0,,,78,81
20360,note_on,40,0,0,,,,,,,,,0,,,75,81
20360,note_on,3,0,1,,,,,,,,,0,,,58,81
20397,note_on,37,0,1,,,,,,,,,0,,,58,0
20397,note_on,0,0,0,,,,,,,,,0,,,78,0
20397,note_on,37,0,0,,,,,,,,,0,,,75,0
20400,note_on,3,0,0,,,,,,,,,0,,,70,0
20400,note_on,3,0,1,,,,,,,,,0,,,63,81
20400,note_on,0,0,0,,,,,,,,,0,,,70,81
20400,note_on,0,0,1,,,,,,,,,0,,,66,81
20437,note_on,0,0,1,,,,,,,,,0,,,66,0
20437,note_on,37,0,1,,,,,,,,,0,,,63,0
20440,note_on,3,0,1,,,,,,,,,0,,,58,81
20440,note_on,0,0,0,,,,,,,,,0,,,78,81
20440,note_on,40,0,0,,,,,,,,,0,,,75,81
20477,note_on,37,0,1,,,,,,,,,0,,,58,0
20477,note_on,0,0,0,,,,,,,,,0,,,78,0
20477,note_on,37,0,0,,,,,,,,,0,,,75,0
20480,note_on,3,0,1,,,,,,,,,0,,,63,81
20480,note_on,0,0,0,,,,,,,,,0,,,70,81
20480,note_on,3,0,0,,,,,,,,,0,,,70,0
20480,note_on,0,0,1,,,,,,,,,0,,,66,81
20517,note_on,0,0,1,,,,,,,,,0,,,66,0
20517,note_on,37,0,1,,,,,,,,,0,,,63,0
20520,note_on,0,0,0,,,,,,,,,0,,,78,81
20520,note_on,40,0,0,,,,,,,,,0,,,75,81
20520,note_on,3,0,1,,,,,,,,,0,,,58,81
20557,note_on,37,0,0,,,,,,,,,0,,,75,0
20557,note_on,37,0,1,,,,,,,,,0,,,58,0
20557,note_on,0,0,0,,,,,,,,,0,,,78,0
20560,note_on,3,0,0,,,,,,,,,0,,,70,0
20560,note_on,0,0,0,,,,,,,,,0,,,70,81
20560,note_on,3,0,1,,,,,,,,,0,,,63,81
20560,note_on,0,0,1,,,,,,,,,0,,,66,81
20597,note_on,37,0,1,,,,,,,,,0,,,63,0
20597,note_on,0,0,1,,,,,,,,,0,,,66,0
20600,note_on,3,0,1,,,,,,,,,0,,,58,81
20600,note_on,40,0,0,,,,,,,,,0,,,75,81
20600,note_on,0,0,0,,,,,,,,,0,,,78,81
20615,note_on,15,0,1,,,,,,,,,0,,,39,0
20615,note_on,0,0,0,,,,,,,,,0,,,82,0
20615,note_on,15,0,0,,,,,,,,,0,,,70,0
20637,note_on,0,0,0,,,,,,,,,0,,,78,0
20637,note_on,22,0,1,,,,,,,,,0,,,58,0
20637,note_on,22,0,0,,,,,,,,,0,,,75,0
20640,note_on,3,0,1,,,,,,,,,0,,,39,95
20680,note_on,43,0,0,,,,,,,,,0,,,78,95
20680,note_on,0,0,0,,,,,,,,,0,,,90,95
20720,note_on,0,0,0,,,,,,,,,0,,,63,81
20720,note_on,40,0,0,,,,,,,,,0,,,58,81
20757,note_on,0,0,0,,,,,,,,,0,,,63,0
20757,note_on,37,0,0,,,,,,,,,0,,,58,0
20760,note_on,0,0,0,,,,,,,,,0,,,70,81
20760,note_on,3,0,0,,,,,,,,,0,,,66,81
20797,note_on,0,0,0,,,,,,,,,0,,,70,0
20797,note_on,37,0,0,,,,,,,,,0,,,66,0
20800,note_on,3,0,0,,,,,,,,,0,,,58,81
20800,note_on,0,0,0,,,,,,,,,0,,,63,81
20831,note_on,31,0,0,,,,,,,,,0,,,78,0
20831,note_on,0,0,0,,,,,,,,,0,,,90,0
20837,note_on,6,0,0,,,,,,,,,0,,,58,0
20837,note_on,0,0,0,,,,,,,,,0,,,63,0
20840,note_on,0,0,0,,,,,,,,,0,,,70,81
20840,note_on,3,0,0,,,,,,,,,0,,,66,81
20867,note_on,227,0,1,,,,,,,,,0,,,39,0
20877,note_on,0,0,0,,,,,,,,,0,,,70,0
20877,note_on,37,0,0,,,,,,,,,0,,,66,0
20880,note_on,13,0,1,,,,,,,,,0,,,39,95
20920,note_on,0,0,0,,,,,,,,,0,,,90,95
20920,note_on,43,0,0,,,,,,,,,0,,,78,95
20960,note_on,40,0,0,,,,,,,,,0,,,58,81
20960,note_on,0,0,0,,,,,,,,,0,,,63,81
20997,note_on,0,0,0,,,,,,,,,0,,,63,0
20997,note_on,37,0,0,,,,,,,,,0,,,58,0
21000,note_on,0,0,0,,,,,,,,,0,,,70,81
21000,note_on,3,0,0,,,,,,,,,0,,,66,81
21037,note_on,0,0,0,,,,,,,,,0,,,70,0
21037,note_on,37,0,0,,,,,,,,,0,,,66,0
21040,note_on,0,0,0,,,,,,,,,0,,,63,81
21040,note_on,3,0,0,,,,,,,,,0,,,58,81
21071,note_on,31,0,0,,,,,,,,,0,,,78,0
21071,note_on,0,0,0,,,,,,,,,0,,,90,0
21077,note_on,0,0,0,,,,,,,,,0,,,63,0
21077,note_on,6,0,0,,,,,,,,,0,,,58,0
21080,note_on,3,0,0,,,,,,,,,0,,,66,81
21080,note_on,0,0,0,,,,,,,,,0,,,70,81
21107,note_on,227,0,1,,,,,,,,,0,,,39,0
21117,note_on,0,0,0,,,,,,,,,0,,,70,0
21117,note_on,37,0,0,,,,,,,,,0,,,66,0
21120,note_on,13,0,1,,,,,,,,,0,,,41,95
21121,control_change,1,0,1,,,,,,,64,0,0,,,,
21122,control_change,1,0,1,,,,,,,64,127,0,,,,
21160,note_on,43,0,0,,,,,,,,,0,,,77,95
21160,note_on,0,0,0,,,,,,,,,0,,,89,95
21200,note_on,0,0,0,,,,,,,,,0,,,62,81
21200,note_on,40,0,0,,,,,,,,,0,,,58,81
21237,note_on,0,0,0,,,,,,,,,0,,,62,0
21237,note_on,37,0,0,,,,,,,,,0,,,58,0
21240,note_on,3,0,0,,,,,,,,,0,,,68,81
21240,note_on,0,0,0,,,,,,,,,0,,,70,81
21277,note_on,37,0,0,,,,,,,,,0,,,68,0
21277,note_on,0,0,0,,,,,,,,,0,,,70,0
21280,note_on,0,0,0,,,,,,,,,0,,,62,82
21280,note_on,3,0,0,,,,,,,,,0,,,58,82
21317,note_on,0,0,0,,,,,,,,,0,,,62,0
21317,note_on,37,0,0,,,,,,,,,0,,,58,0
21320,note_on,0,0,0,,,,,,,,,0,,,70,82
21320,note_on,3,0,0,,,,,,,,,0,,,68,82
21347,note_on,225,0,1,,,,,,,,,0,,,41,0
21357,note_on,0,0,0,,,,,,,,,0,,,70,0
21357,note_on,37,0,0,,,,,,,,,0,,,68,0
21360,note_on,3,0,0,,,,,,,,,0,,,59,83
21360,note_on,0,0,0,,,,,,,,,0,,,62,83
21397,note_on,37,0,0,,,,,,,,,0,,,59,0
21397,note_on,0,0,0,,,,,,,,,0,,,62,0
21400,note_on,3,0,0,,,,,,,,,0,,,68,83
21400,note_on,0,0,0,,,,,,,,,0,,,71,83
21437,note_on,37,0,0,,,,,,,,,0,,,68,0
21437,note_on,0,0,0,,,,,,,,,0,,,71,0
21440,note_on,3,0,0,,,,,,,,,0,,,59,84
21440,note_on,0,0,0,,,,,,,,,0,,,62,84
21463,note_on,0,0,0,,,,,,,,,0,,,89,0
21463,note_on,23,0,0,,,,,,,,,0,,,77,0
21477,note_on,14,0,0,,,,,,,,,0,,,59,0
21477,note_on,0,0,0,,,,,,,,,0,,,62,0
21480,note_on,3,0,0,,,,,,,,,0,,,68,84
21480,note_on,0,0,0,,,,,,,,,0,,,71,84
21517,note_on,0,0,0,,,,,,,,,0,,,71,0
21517,note_on,37,0,0,,,,,,,,,0,,,68,0
21520,note_on,0,0,0,,,,,,,,,0,,,62,85
21520,note_on,3,0,0,,,,,,,,,0,,,59,85
21557,note_on,37,0,0,,,,,,,,,0,,,59,0
21557,note_on,0,0,0,,,,,,,,,0,,,62,0
21560,note_on,3,0,0,,,,,,,,,0,,,68,85
21560,note_on,0,0,0,,,,,,,,,0,,,71,85
21597,note_on,0,0,0,,,,,,,,,0,,,71,0
21597,note_on,37,0,0,,,,,,,,,0,,,68,0
21600,note_on,253,0,1,,,,,,,,,0,,,41,100
21600,time_signature,3,1,0,6,8,24,8,,,,,,,,,
21601,control_change,1,0,1,,,,,,,64,0,0,,,,
21602,control_change,1,0,1,,,,,,,64,127,0,,,,
21640,note_on,40,0,0,,,,,,,,,0,,,77,100
21640,note_on,0,0,0,,,,,,,,,0,,,89,100
21680,note_on,0,0,1,,,,,,,,,0,,,62,85
21680,note_on,78,0,1,,,,,,,,,0,,,59,85
21717,note_on,0,0,1,,,,,,,,,0,,,62,0
21717,note_on,37,0,1,,,,,,,,,0,,,59,0
21720,note_on,3,0,1,,,,,,,,,0,,,68,85
21720,note_on,0,0,1,,,,,,,,,0,,,71,85
21757,note_on,37,0,1,,,,,,,,,0,,,68,0
21757,note_on,0,0,1,,,,,,,,,0,,,71,0
21760,note_on,0,0,1,,,,,,,,,0,,,62,85
21760,note_on,3,0,1,,,,,,,,,0,,,59,85
21791,note_on,151,0,0,,,,,,,,,0,,,77,0
21791,note_on,0,0,0,,,,,,,,,0,,,89,0
21797,note_on,0,0,1,,,,,,,,,0,,,62,0
21797,note_on,37,0,1,,,,,,,,,0,,,59,0
21800,note_on,3,0,1,,,,,,,,,0,,,68,85
21800,note_on,0,0,1,,,,,,,,,0,,,71,85
21827,note_on,27,0,1,,,,,,,,,0,,,41,0
21837,note_on,10,0,1,,,,,,,,,0,,,68,0
21837,note_on,0,0,1,,,,,,,,,0,,,71,0
21840,note_on,3,0,1,,,,,,,,,0,,,41,100
21841,control_change,1,0,1,,,,,,,64,0,0,,,,
21842,control_change,1,0,1,,,,,,,64,127,0,,,,
21880,note_on,89,0,0,,,,,,,,,0,,,75,100
21880,note_on,0,0,0,,,,,,,,,0,,,87,100
21920,note_on,0,0,1,,,,,,,,,0,,,63,85
21920,note_on,78,0,1,,,,,,,,,0,,,59,85
21957,note_on,0,0,1,,,,,,,,,0,,,63,0
21957,note_on,37,0,1,,,,,,,,,0,,,59,0
21960,note_on,3,0,1,,,,,,,,,0,,,69,85
21960,note_on,0,0,1,,,,,,,,,0,,,71,85
21997,note_on,37,0,1,,,,,,,,,0,,,69,0
21997,note_on,0,0,1,,,,,,,,,0,,,71,0
22000,note_on,0,0,1,,,,,,,,,0,,,63,86
22000,note_on,3,0,1,,,,,,,,,0,,,59,86
22037,note_on,37,0,1,,,,,,,,,0,,,59,0
22037,note_on,0,0,1,,,,,,,,,0,,,63,0
22040,note_on,0,0,1,,,,,,,,,0,,,71,86
22040,note_on,3,0,1,,,,,,,,,0,,,69,86
22067,note_on,27,0,1,,,,,,,,,0,,,41,0
22077,note_on,10,0,1,,,,,,,,,0,,,69,0
22077,note_on,0,0,1,,,,,,,,,0,,,71,0
22080,note_on,0,0,1,,,,,,,,,0,,,63,87
22080,note_on,3,0,1,,,,,,,,,0,,,60,87
22117,note_on,0,0,1,,,,,,,,,0,,,63,0
22117,note_on,37,0,1,,,,,,,,,0,,,60,0
22120,note_on,3,0,1,,,,,,,,,0,,,69,87
22120,note_on,0,0,1,,,,,,,,,0,,,72,87
22157,note_on,37,0,1,,,,,,,,,0,,,69,0
22157,note_on,0,0,1,,,,,,,,,0,,,72,0
22160,note_on,0,0,1,,,,,,,,,0,,,63,88
22160,note_on,3,0,1,,,,,,,,,0,,,60,88
22183,note_on,0,0,0,,,,,,,,,0,,,87,0
22183,note_on,303,0,0,,,,,,,,,0,,,75,0
22197,note_on,37,0,1,,,,,,,,,0,,,60,0
22197,note_on,0,0,1,,,,,,,,,0,,,63,0
22200,note_on,0,0,1,,,,,,,,,0,,,72,88
22200,note_on,3,0,1,,,,,,,,,0,,,69,88
22237,note_on,0,0,1,,,,,,,,,0,,,72,0
22237,note_on,37,0,1,,,,,,,,,0,,,69,0
22240,note_on,0,0,1,,,,,,,,,0,,,63,89
22240,note_on,3,0,1,,,,,,,,,0,,,60,89
22277,note_on,37,0,1,,,,,,,,,0,,,60,0
22277,note_on,0,0,1,,,,,,,,,0,,,63,0
22280,note_on,3,0,1,,,,,,,,,0,,,69,89
22280,note_on,0,0,1,,,,,,,,,0,,,72,89
22317,note_on,0,0,1,,,,,,,,,0,,,72,0
22317,note_on,37,0,1,,,,,,,,,0,,,69,0
22320,note_on,3,0,1,,,,,,,,,0,,,42,105
22321,control_change,1,0,1,,,,,,,64,0,0,,,,
22322,control_change,1,0,1,,,,,,,64,127,0,,,,
22360,note_on,177,0,0,,,,,,,,,0,,,75,105
22360,note_on,0,0,0,,,,,,,,,0,,,87,105
22400,note_on,78,0,1,,,,,,,,,0,,,60,90
22400,note_on,0,0,1,,,,,,,,,0,,,63,90
22437,note_on,0,0,1,,,,,,,,,0,,,63,0
22437,note_on,37,0,1,,,,,,,,,0,,,60,0
22440,note_on,0,0,1,,,,,,,,,0,,,72,90
22440,note_on,3,0,1,,,,,,,,,0,,,69,90
22477,note_on,0,0,1,,,,,,,,,0,,,72,0
22477,note_on,37,0,1,,,,,,,,,0,,,69,0
22480,note_on,0,0,1,,,,,,,,,0,,,63,90
22480,note_on,3,0,1,,,,,,,,,0,,,60,90
22511,note_on,151,0,0,,,,,,,,,0,,,75,0
22511,note_on,0,0,0,,,,,,,,,0,,,87,0
22517,note_on,37,0,1,,,,,,,,,0,,,60,0
22517,note_on,0,0,1,,,,,,,,,0,,,63,0
22520,note_on,3,0,1,,,,,,,,,0,,,69,90
22520,note_on,0,0,1,,,,,,,,,0,,,72,90
22547,note_on,27,0,1,,,,,,,,,0,,,42,0
22557,note_on,0,0,1,,,,,,,,,0,,,72,0
22557,note_on,10,0,1,,,,,,,,,0,,,69,0
22560,note_on,3,0,1,,,,,,,,,0,,,43,105
22561,control_change,1,0,1,,,,,,,64,0,0,,,,
22562,control_change,1,0,1,,,,,,,64,127,0,,,,
22600,note_on,0,0,0,,,,,,,,,0,,,87,105
22600,note_on,89,0,0,,,,,,,,,0,,,75,105
22640,note_on,78,0,1,,,,,,,,,0,,,60,90
22640,note_on,0,0,1,,,,,,,,,0,,,63,90
22677,note_on,0,0,1,,,,,,,,,0,,,63,0
22677,note_on,37,0,1,,,,,,,,,0,,,60,0
22680,note_on,3,0,1,,,,,,,,,0,,,70,90
22680,note_on,0,0,1,,,,,,,,,0,,,72,90
22717,note_on,37,0,1,,,,,,,,,0,,,70,0
22717,note_on,0,0,1,,,,,,,,,0,,,72,0
22720,note_on,3,0,1,,,,,,,,,0,,,60,91
22720,note_on,0,0,1,,,,,,,,,0,,,63,91
22751,note_on,0,0,0,,,,,,,,,0,,,87,0
22751,note_on,151,0,0,,,,,,,,,0,,,75,0
22757,note_on,0,0,1,,,,,,,,,0,,,63,0
22757,note_on,37,0,1,,,,,,,,,0,,,60,0
22760,note_on,3,0,1,,,,,,,,,0,,,70,91
22760,note_on,0,0,1,,,,,,,,,0,,,72,91
22787,note_on,27,0,1,,,,,,,,,0,,,43,0
22797,note_on,0,0,1,,,,,,,,,0,,,72,0
22797,note_on,10,0,1,,,,,,,,,0,,,70,0
22800,note_on,0,0,1,,,,,,,,,0,,,64,91
22800,note_on,3,0,1,,,,,,,,,0,,,62,91
22837,note_on,37,0,1,,,,,,,,,0,,,62,0
22837,note_on,0,0,1,,,,,,,,,0,,,64,0
22840,note_on,0,0,1,,,,,,,,,0,,,73,91
22840,note_on,3,0,1,,,,,,,,,0,,,70,91
22877,note_on,0,0,1,,,,,,,,,0,,,73,0
22877,note_on,37,0,1,,,,,,,,,0,,,70,0
22880,note_on,0,0,1,,,,,,,,,0,,,64,92
22880,note_on,3,0,1,,,,,,,,,0,,,62,92
22917,note_on,0,0,1,,,,,,,,,0,,,64,0
22917,note_on,37,0,1,,,,,,,,,0,,,62,0
22920,note_on,3,0,1,,,,,,,,,0,,,70,92
22920,note_on,0,0,1,,,,,,,,,0,,,73,92
22957,note_on,0,0,1,,,,,,,,,0,,,73,0
22957,note_on,37,0,1,,,,,,,,,0,,,70,0
22960,note_on,3,0,1,,,,,,,,,0,,,62,93
22960,note_on,0,0,1,,,,,,,,,0,,,64,93
22997,note_on,0,0,1,,,,,,,,,0,,,64,0
22997,note_on,37,0,1,,,,,,,,,0,,,62,0
23000,note_on,3,0,1,,,,,,,,,0,,,70,93
23000,note_on,0,0,1,,,,,,,,,0,,,73,93
23010,set_tempo,259,1,0,,,,,,3000000,,,,,,,
23010,note_on,10,0,1,,,,,,,,,0,,,73,0
23010,note_on,0,0,0,,,,,,,,,0,,,73,109
23010,note_on,0,0,0,,,,,,,,,0,,,85,109
23037,note_on,27,0,0,,,,,,,,,0,,,85,0
23037,note_on,0,0,0,,,,,,,,,0,,,73,0
23037,note_on,27,0,1,,,,,,,,,0,,,70,0
23040,note_on,0,0,0,,,,,,,,,0,,,73,77
23040,note_on,0,0,0,,,,,,,,,0,,,73,90
23040,note_on,3,0,1,,,,,,,,,0,,,44,90
23040,note_on,0,0,0,,,,,,,,,0,,,73,0
23040,set_tempo,3,1,0,,,,,,1200000,,,,,,,
23040,note_on,0,0,0,,,,,,,,,0,,,85,90
23041,control_change,1,0,1,,,,,,,64,0,0,,,,
23042,control_change,1,0,1,,,,,,,64,127,0,,,,
23080,note_on,0,0,0,,,,,,,,,0,,,79,77
23080,note_on,40,0,0,,,,,,,,,0,,,76,77
23119,note_on,0,0,0,,,,,,,,,0,,,79,0
23119,note_on,39,0,0,,,,,,,,,0,,,76,0
23120,note_on,0,0,0,,,,,,,,,0,,,73,77
23120,note_on,1,0,0,,,,,,,,,0,,,73,0
23160,note_on,0,0,0,,,,,,,,,0,,,79,77
23160,note_on,0,0,1,,,,,,,,,0,,,67,90
23160,note_on,0,0,1,,,,,,,,,0,,,70,90
23160,note_on,118,0,1,,,,,,,,,0,,,64,90
23160,note_on,40,0,0,,,,,,,,,0,,,76,77
23199,note_on,0,0,0,,,,,,,,,0,,,79,0
23199,note_on,39,0,0,,,,,,,,,0,,,76,0
23200,note_on,1,0,0,,,,,,,,,0,,,73,0
23200,note_on,0,0,0,,,,,,,,,0,,,73,77
23240,note_on,40,0,0,,,,,,,,,0,,,76,77
23240,note_on,0,0,0,,,,,,,,,0,,,79,77
23267,note_on,107,0,1,,,,,,,,,0,,,44,0
23273,note_on,0,0,1,,,,,,,,,0,,,67,0
23273,note_on,6,0,1,,,,,,,,,0,,,64,0
23273,note_on,0,0,1,,,,,,,,,0,,,70,0
23279,note_on,39,0,0,,,,,,,,,0,,,73,0
23279,note_on,0,0,0,,,,,,,,,0,,,76,0
23279,note_on,0,0,0,,,,,,,,,0,,,79,0
23279,note_on,0,0,0,,,,,,,,,0,,,85,0
23280,note_on,7,0,1,,,,,,,,,0,,,56,90
23280,note_on,1,0,0,,,,,,,,,0,,,72,77
23280,note_on,0,0,0,,,,,,,,,0,,,72,90
23280,note_on,0,0,0,,,,,,,,,0,,,84,90
23280,note_on,0,0,0,,,,,,,,,0,,,72,0
23281,control_change,1,0,1,,,,,,,64,0,0,,,,
23282,control_change,1,0,1,,,,,,,64,127,0,,,,
23320,note_on,40,0,0,,,,,,,,,0,,,75,77
23320,note_on,0,0,0,,,,,,,,,0,,,80,77
23359,note_on,39,0,0,,,,,,,,,0,,,75,0
23359,note_on,0,0,0,,,,,,,,,0,,,80,0
23360,note_on,0,0,0,,,,,,,,,0,,,72,77
23360,note_on,1,0,0,,,,,,,,,0,,,72,0
23400,note_on,0,0,1,,,,,,,,,0,,,68,90
23400,note_on,40,0,0,,,,,,,,,0,,,75,77
23400,note_on,0,0,0,,,,,,,,,0,,,80,77
23400,note_on,118,0,1,,,,,,,,,0,,,63,90
23439,note_on,0,0,0,,,,,,,,,0,,,80,0
23439,note_on,39,0,0,,,,,,,,,0,,,75,0
23440,note_on,1,0,0,,,,,,,,,0,,,72,0
23440,note_on,0,0,0,,,,,,,,,0,,,72,77
23480,note_on,40,0,0,,,,,,,,,0,,,75,77
23480,note_on,0,0,0,,,,,,,,,0,,,80,77
23507,note_on,107,0,1,,,,,,,,,0,,,56,0
23513,note_on,6,0,1,,,,,,,,,0,,,63,0
23513,note_on,0,0,1,,,,,,,,,0,,,68,0
23519,note_on,0,0,0,,,,,,,,,0,,,80,0
23519,note_on,0,0,0,,,,,,,,,0,,,84,0
23519,note_on,0,0,0,,,,,,,,,0,,,75,0
23519,note_on,39,0,0,,,,,,,,,0,,,72,0
23520,note_on,0,0,0,,,,,,,,,0,,,70,0
23520,note_on,0,0,0,,,,,,,,,0,,,82,90
23520,note_on,1,0,0,,,,,,,,,0,,,70,77
23520,note_on,7,0,1,,,,,,,,,0,,,52,90
23520,note_on,0,0,0,,,,,,,,,0,,,70,90
23521,control_change,1,0,1,,,,,,,64,0,0,,,,
23522,control_change,1,0,1,,,,,,,64,127,0,,,,
23560,note_on,0,0,0,,,,,,,,,0,,,76,77
23560,note_on,40,0,0,,,,,,,,,0,,,73,77
23599,note_on,0,0,0,,,,,,,,,0,,,76,0
23599,note_on,39,0,0,,,,,,,,,0,,,73,0
23600,note_on,1,0,0,,,,,,,,,0,,,70,0
23600,note_on,0,0,0,,,,,,,,,0,,,70,77
23640,note_on,118,0,1,,,,,,,,,0,,,58,90
23640,note_on,0,0,1,,,,,,,,,0,,,67,90
23640,note_on,40,0,0,,,,,,,,,0,,,73,77
23640,note_on,0,0,0,,,,,,,,,0,,,76,77
23640,note_on,0,0,1,,,,,,,,,0,,,61,90
23679,note_on,0,0,0,,,,,,,,,0,,,76,0
23679,note_on,39,0,0,,,,,,,,,0,,,73,0
23680,note_on,0,0,0,,,,,,,,,0,,,70,77
23680,note_on,1,0,0,,,,,,,,,0,,,70,0
23720,note_on,40,0,0,,,,,,,,,0,,,73,77
23720,note_on,0,0,0,,,,,,,,,0,,,76,77
23747,note_on,107,0,1,,,,,,,,,0,,,52,0
23753,note_on,0,0,1,,,,,,,,,0,,,61,0
23753,note_on,6,0,1,,,,,,,,,0,,,58,0
23753,note_on,0,0,1,,,,,,,,,0,,,67,0
23759,note_on,0,0,0,,,,,,,,,0,,,82,0
23759,note_on,0,0,0,,,,,,,,,0,,,73,0
23759,note_on,39,0,0,,,,,,,,,0,,,70,0
23759,note_on,0,0,0,,,,,,,,,0,,,76,0
23760,note_on,7,0,1,,,,,,,,,0,,,51,90
23760,note_on,0,0,0,,,,,,,,,0,,,80,90
23760,note_on,0,0,0,,,,,,,,,0,,,68,90
23760,note_on,1,0,0,,,,,,,,,0,,,68,77
23760,note_on,0,0,0,,,,,,,,,0,,,68,0
23761,control_change,1,0,1,,,,,,,64,0,0,,,,
23762,control_change,1,0,1,,,,,,,64,127,0,,,,
23800,note_on,40,0,0,,,,,,,,,0,,,72,77
23800,note_on,0,0,0,,,,,,,,,0,,,75,77
23839,note_on,39,0,0,,,,,,,,,0,,,72,0
23839,note_on,0,0,0,,,,,,,,,0,,,75,0
23840,note_on,0,0,0,,,,,,,,,0,,,68,77
23840,note_on,1,0,0,,,,,,,,,0,,,68,0
23880,note_on,0,0,1,,,,,,,,,0,,,63,90
23880,note_on,0,0,0,,,,,,,,,0,,,75,77
23880,note_on,40,0,0,,,,,,,,,0,,,72,77
23880,note_on,118,0,1,,,,,,,,,0,,,60,90
23919,note_on,39,0,0,,,,,,,,,0,,,72,0
23919,note_on,0,0,0,,,,,,,,,0,,,75,0
23920,note_on,0,0,0,,,,,,,,,0,,,68,77
23920,note_on,1,0,0,,,,,,,,,0,,,68,0
23960,note_on,40,0,0,,,,,,,,,0,,,72,77
23960,note_on,0,0,0,,,,,,,,,0,,,75,77
23987,note_on,107,0,1,,,,,,,,,0,,,51,0
23993,note_on,6,0,1,,,,,,,,,0,,,60,0
23993,note_on,0,0,1,,,,,,,,,0,,,63,0
23999,note_on,39,0,0,,,,,,,,,0,,,68,0
23999,note_on,0,0,0,,,,,,,,,0,,,75,0
23999,note_on,0,0,0,,,,,,,,,0,,,72,0
23999,note_on,0,0,0,,,,,,,,,0,,,80,0
24000,note_on,0,0,0,,,,,,,,,0,,,79,90
24000,note_on,1,0,0,,,,,,,,,0,,,67,77
24000,note_on,0,0,0,,,,,,,,,0,,,67,90
24000,note_on,0,0,0,,,,,,,,,0,,,67,0
24000,note_on,7,0,1,,,,,,,,,0,,,48,90
24001,control_change,1,0,1,,,,,,,64,0,0,,,,
24002,control_change,1,0,1,,,,,,,64,127,0,,,,
24040,note_on,40,0,0,,,,,,,,,0,,,72,77
24040,note_on,0,0,0,,,,,,,,,0,,,75,77
24079,note_on,39,0,0,,,,,,,,,0,,,72,0
24079,note_on,0,0,0,,,,,,,,,0,,,75,0
24080,note_on,1,0,0,,,,,,,,,0,,,67,0
24080,note_on,0,0,0,,,,,,,,,0,,,67,77
24120,note_on,40,0,0,,,,,,,,,0,,,72,77
24120,note_on,118,0,1,,,,,,,,,0,,,60,90
24120,note_on,0,0,0,,,,,,,,,0,,,75,77
24120,note_on,0,0,1,,,,,,,,,0,,,63,90
24159,note_on,39,0,0,,,,,,,,,0,,,72,0
24159,note_on,0,0,0,,,,,,,,,0,,,75,0
24160,note_on,0,0,0,,,,,,,,,0,,,67,77
24160,note_on,1,0,0,,,,,,,,,0,,,67,0
24200,note_on,40,0,0,,,,,,,,,0,,,72,77
24200,note_on,0,0,0,,,,,,,,,0,,,75,77
24227,note_on,107,0,1,,,,,,,,,0,,,48,0
24233,note_on,0,0,1,,,,,,,,,0,,,63,0
24233,note_on,6,0,1,,,,,,,,,0,,,60,0
24239,note_on,0,0,0,,,,,,,,,0,,,72,0
24239,note_on,39,0,0,,,,,,,,,0,,,67,0
24239,note_on,0,0,0,,,,,,,,,0,,,79,0
24239,note_on,0,0,0,,,,,,,,,0,,,75,0
24240,note_on,0,0,0,,,,,,,,,0,,,68,0
24240,note_on,0,0,0,,,,,,,,,0,,,68,90
24240,note_on,7,0,1,,,,,,,,,0,,,44,90
24240,note_on,0,0,0,,,,,,,,,0,,,80,90
24240,note_on,1,0,0,,,,,,,,,0,,,68,77
24241,control_change,1,0,1,,,,,,,64,0,0,,,,
24242,control_change,1,0,1,,,,,,,64,127,0,,,,
24280,note_on,0,0,0,,,,,,,,,0,,,75,77
24280,note_on,40,0,0,,,,,,,,,0,,,72,77
24319,note_on,39,0,0,,,,,,,,,0,,,72,0
24319,note_on,0,0,0,,,,,,,,,0,,,75,0
24320,note_on,1,0,0,,,,,,,,,0,,,68,0
24320,note_on,0,0,0,,,,,,,,,0,,,68,77
24360,note_on,118,0,1,,,,,,,,,0,,,60,90
24360,note_on,40,0,0,,,,,,,,,0,,,72,77
24360,note_on,0,0,0,,,,,,,,,0,,,75,77
24360,note_on,0,0,1,,,,,,,,,0,,,63,90
24399,note_on,0,0,0,,,,,,,,,0,,,75,0
24399,note_on,39,0,0,,,,,,,,,0,,,72,0
24400,note_on,0,0,0,,,,,,,,,0,,,68,77
24400,note_on,1,0,0,,,,,,,,,0,,,68,0
24440,note_on,0,0,0,,,,,,,,,0,,,75,77
24440,note_on,40,0,0,,,,,,,,,0,,,72,77
24467,note_on,107,0,1,,,,,,,,,0,,,44,0
24473,note_on,6,0,1,,,,,,,,,0,,,60,0
24473,note_on,0,0,1,,,,,,,,,0,,,63,0
24477,note_on,37,0,0,,,,,,,,,0,,,72,0
24477,note_on,0,0,0,,,,,,,,,0,,,75,0
24479,note_on,0,0,0,,,,,,,,,0,,,80,0
24479,note_on,2,0,0,,,,,,,,,0,,,68,0
24480,note_on,7,0,1,,,,,,,,,0,,,45,90
24480,time_signature,1,1,0,3,8,24,8,,,,,,,,,
24480,note_on,0,0,0,,,,,,,,,0,,,90,108
24481,control_change,1,0,1,,,,,,,64,0,0,,,,
24482,control_change,1,0,1,,,,,,,64,127,0,,,,
24520,note_on,40,0,0,,,,,,,,,0,,,69,77
24520,note_on,38,0,1,,,,,,,,,0,,,66,77
24557,note_on,37,0,1,,,,,,,,,0,,,66,0
24557,note_on,37,0,0,,,,,,,,,0,,,69,0
24560,note_on,0,0,1,,,,,,,,,0,,,63,77
24560,note_on,0,0,0,,,,,,,,,0,,,75,77
24560,note_on,0,0,0,,,,,,,,,0,,,78,77
24560,note_on,3,0,1,,,,,,,,,0,,,61,77
24560,note_on,3,0,0,,,,,,,,,0,,,73,77
24597,note_on,0,0,0,,,,,,,,,0,,,75,0
24597,note_on,37,0,0,,,,,,,,,0,,,73,0
24597,note_on,0,0,1,,,,,,,,,0,,,63,0
24597,note_on,37,0,1,,,,,,,,,0,,,61,0
24597,note_on,0,0,0,,,,,,,,,0,,,78,0
24600,note_on,3,0,1,,,,,,,,,0,,,66,77
24600,note_on,3,0,0,,,,,,,,,0,,,69,77
24637,note_on,37,0,0,,,,,,,,,0,,,69,0
24637,note_on,37,0,1,,,,,,,,,0,,,66,0
24640,note_on,0,0,0,,,,,,,,,0,,,75,77
24640,note_on,3,0,1,,,,,,,,,0,,,61,77
24640,note_on,0,0,0,,,,,,,,,0,,,78,77
24640,note_on,0,0,1,,,,,,,,,0,,,63,77
24640,note_on,3,0,0,,,,,,,,,0,,,73,77
24677,note_on,0,0,0,,,,,,,,,0,,,78,0
24677,note_on,37,0,0,,,,,,,,,0,,,73,0
24677,note_on,0,0,0,,,,,,,,,0,,,75,0
24677,note_on,0,0,1,,,,,,,,,0,,,63,0
24677,note_on,37,0,1,,,,,,,,,0,,,61,0
24680,note_on,3,0,0,,,,,,,,,0,,,69,77
24680,note_on,3,0,1,,,,,,,,,0,,,66,77
24707,note_on,27,0,1,,,,,,,,,0,,,45,0
24717,note_on,37,0,0,,,,,,,,,0,,,69,0
24717,note_on,10,0,1,,,,,,,,,0,,,66,0
24720,note_on,3,0,1,,,,,,,,,0,,,54,108
24720,note_on,0,0,0,,,,,,,,,0,,,78,77
24720,note_on,0,0,0,,,,,,,,,0,,,75,77
24720,note_on,3,0,0,,,,,,,,,0,,,73,77
24757,note_on,0,0,0,,,,,,,,,0,,,78,0
24757,note_on,0,0,0,,,,,,,,,0,,,75,0
24757,note_on,37,0,0,,,,,,,,,0,,,73,0
24760,note_on,3,0,0,,,,,,,,,0,,,69,77
24760,note_on,40,0,1,,,,,,,,,0,,,66,77
24797,note_on,37,0,1,,,,,,,,,0,,,66,0
24797,note_on,37,0,0,,,,,,,,,0,,,69,0
24800,note_on,0,0,0,,,,,,,,,0,,,78,77
24800,note_on,0,0,0,,,,,,,,,0,,,75,77
24800,note_on,0,0,1,,,,,,,,,0,,,63,77
24800,note_on,0,0,0,,,,,,,,,0,,,73,77
24800,note_on,3,0,0,,,,,,,,,0,,,90,0
24800,note_on,3,0,1,,,,,,,,,0,,,61,77
24837,note_on,37,0,0,,,,,,,,,0,,,73,0
24837,note_on,0,0,1,,,,,,,,,0,,,63,0
24837,note_on,0,0,0,,,,,,,,,0,,,78,0
24837,note_on,37,0,1,,,,,,,,,0,,,61,0
24837,note_on,0,0,0,,,,,,,,,0,,,75,0
24840,note_on,3,0,0,,,,,,,,,0,,,69,77
24840,note_on,3,0,1,,,,,,,,,0,,,66,77
24877,note_on,37,0,0,,,,,,,,,0,,,69,0
24877,note_on,37,0,1,,,,,,,,,0,,,66,0
24880,note_on,0,0,0,,,,,,,,,0,,,75,77
24880,note_on,0,0,0,,,,,,,,,0,,,78,77
24880,note_on,0,0,1,,,,,,,,,0,,,63,77
24880,note_on,3,0,0,,,,,,,,,0,,,73,77
24880,note_on,3,0,1,,,,,,,,,0,,,61,77
24917,note_on,37,0,0,,,,,,,,,0,,,73,0
24917,note_on,0,0,0,,,,,,,,,0,,,75,0
24917,note_on,0,0,0,,,,,,,,,0,,,78,0
24917,note_on,37,0,1,,,,,,,,,0,,,61,0
24917,note_on,0,0,1,,,,,,,,,0,,,63,0
24920,note_on,3,0,1,,,,,,,,,0,,,66,77
24920,note_on,3,0,0,,,,,,,,,0,,,69,77
24957,note_on,37,0,0,,,,,,,,,0,,,69,0
24957,note_on,37,0,1,,,,,,,,,0,,,66,0
24959,note_on,2,0,1,,,,,,,,,0,,,54,0
24960,note_on,1,0,1,,,,,,,,,0,,,52,90
24960,note_on,3,0,0,,,,,,,,,0,,,73,77
24960,note_on,0,0,0,,,,,,,,,0,,,75,77
24960,note_on,0,0,0,,,,,,,,,0,,,78,77
24997,note_on,0,0,0,,,,,,,,,0,,,78,0
24997,note_on,0,0,0,,,,,,,,,0,,,75,0
24997,note_on,37,0,0,,,,,,,,,0,,,73,0
25000,note_on,40,0,1,,,,,,,,,0,,,66,77
25000,note_on,3,0,0,,,,,,,,,0,,,69,77
25037,note_on,37,0,0,,,,,,,,,0,,,69,0
25037,note_on,37,0,1,,,,,,,,,0,,,66,0
25040,note_on,3,0,1,,,,,,,,,0,,,61,76
25040,note_on,0,0,0,,,,,,,,,0,,,78,76
25040,note_on,0,0,1,,,,,,,,,0,,,63,76
25040,note_on,0,0,0,,,,,,,,,0,,,75,76
25040,note_on,3,0,0,,,,,,,,,0,,,73,76
25077,note_on,0,0,0,,,,,,,,,0,,,75,0
25077,note_on,0,0,0,,,,,,,,,0,,,78,0
25077,note_on,37,0,1,,,,,,,,,0,,,61,0
25077,note_on,37,0,0,,,,,,,,,0,,,73,0
25077,note_on,0,0,1,,,,,,,,,0,,,63,0
25080,note_on,3,0,1,,,,,,,,,0,,,66,76
25080,note_on,3,0,0,,,,,,,,,0,,,69,76
25117,note_on,37,0,0,,,,,,,,,0,,,69,0
25117,note_on,37,0,1,,,,,,,,,0,,,66,0
25120,note_on,3,0,0,,,,,,,,,0,,,73,75
25120,note_on,3,0,1,,,,,,,,,0,,,61,75
25120,note_on,0,0,1,,,,,,,,,0,,,63,75
25120,note_on,0,0,0,,,,,,,,,0,,,75,75
25120,note_on,0,0,0,,,,,,,,,0,,,78,75
25157,note_on,37,0,0,,,,,,,,,0,,,73,0
25157,note_on,0,0,1,,,,,,,,,0,,,63,0
25157,note_on,0,0,0,,,,,,,,,0,,,78,0
25157,note_on,37,0,1,,,,,,,,,0,,,61,0
25157,note_on,0,0,0,,,,,,,,,0,,,75,0
25160,note_on,3,0,0,,,,,,,,,0,,,69,75
25160,note_on,3,0,1,,,,,,,,,0,,,66,75
25187,note_on,27,0,1,,,,,,,,,0,,,52,0
25197,note_on,37,0,0,,,,,,,,,0,,,69,0
25197,note_on,10,0,1,,,,,,,,,0,,,66,0
25200,note_on,3,0,0,,,,,,,,,0,,,73,74
25200,note_on,0,0,0,,,,,,,,,0,,,75,74
25200,note_on,3,0,1,,,,,,,,,0,,,51,87
25200,note_on,0,0,0,,,,,,,,,0,,,78,74
25237,note_on,0,0,0,,,,,,,,,0,,,78,0
25237,note_on,0,0,0,,,,,,,,,0,,,75,0
25237,note_on,37,0,0,,,,,,,,,0,,,73,0
25240,note_on,3,0,0,,,,,,,,,0,,,70,74
25240,note_on,40,0,1,,,,,,,,,0,,,66,74
25277,note_on,37,0,1,,,,,,,,,0,,,66,0
25277,note_on,37,0,0,,,,,,,,,0,,,70,0
25280,note_on,0,0,0,,,,,,,,,0,,,78,74
25280,note_on,3,0,1,,,,,,,,,0,,,61,74
25280,note_on,0,0,0,,,,,,,,,0,,,75,74
25280,note_on,0,0,1,,,,,,,,,0,,,63,74
25280,note_on,3,0,0,,,,,,,,,0,,,73,74
25317,note_on,37,0,1,,,,,,,,,0,,,61,0
25317,note_on,37,0,0,,,,,,,,,0,,,73,0
25317,note_on,0,0,1,,,,,,,,,0,,,63,0
25317,note_on,0,0,0,,,,,,,,,0,,,78,0
25317,note_on,0,0,0,,,,,,,,,0,,,75,0
25320,note_on,3,0,1,,,,,,,,,0,,,66,73
25320,note_on,3,0,0,,,,,,,,,0,,,70,73
25357,note_on,37,0,1,,,,,,,,,0,,,66,0
25357,note_on,37,0,0,,,,,,,,,0,,,70,0
25360,note_on,0,0,0,,,,,,,,,0,,,78,73
25360,note_on,3,0,0,,,,,,,,,0,,,73,73
25360,note_on,3,0,1,,,,,,,,,0,,,61,73
25360,note_on,0,0,1,,,,,,,,,0,,,63,73
25360,note_on,0,0,0,,,,,,,,,0,,,75,73
25397,note_on,37,0,0,,,,,,,,,0,,,73,0
25397,note_on,0,0,0,,,,,,,,,0,,,75,0
25397,note_on,0,0,0,,,,,,,,,0,,,78,0
25397,note_on,37,0,1,,,,,,,,,0,,,61,0
25397,note_on,0,0,1,,,,,,,,,0,,,63,0
25400,note_on,3,0,0,,,,,,,,,0,,,70,72
25400,note_on,3,0,1,,,,,,,,,0,,,66,72
25427,note_on,27,0,1,,,,,,,,,0,,,51,0
25437,note_on,37,0,0,,,,,,,,,0,,,70,0
25437,note_on,10,0,1,,,,,,,,,0,,,66,0
25440,note_on,0,0,0,,,,,,,,,0,,,75,72
25440,note_on,0,0,0,,,,,,,,,0,,,78,72
25440,note_on,3,0,0,,,,,,,,,0,,,73,72
25440,note_on,3,0,1,,,,,,,,,0,,,50,84
25477,note_on,0,0,0,,,,,,,,,0,,,75,0
25477,note_on,0,0,0,,,,,,,,,0,,,78,0
25477,note_on,37,0,0,,,,,,,,,0,,,73,0
25480,note_on,3,0,0,,,,,,,,,0,,,70,71
25480,note_on,40,0,1,,,,,,,,,0,,,66,71
25517,note_on,37,0,0,,,,,,,,,0,,,70,0
25517,note_on,37,0,1,,,,,,,,,0,,,66,0
25520,note_on,3,0,1,,,,,,,,,0,,,61,71
25520,note_on,0,0,1,,,,,,,,,0,,,63,71
25520,note_on,0,0,0,,,,,,,,,0,,,78,71
25520,note_on,0,0,0,,,,,,,,,0,,,75,71
25520,note_on,3,0,0,,,,,,,,,0,,,73,71
25557,note_on,37,0,1,,,,,,,,,0,,,61,0
25557,note_on,0,0,1,,,,,,,,,0,,,63,0
25557,note_on,0,0,0,,,,,,,,,0,,,75,0
25557,note_on,0,0,0,,,,,,,,,0,,,78,0
25557,note_on,37,0,0,,,,,,,,,0,,,73,0
25560,note_on,3,0,0,,,,,,,,,0,,,70,70
25560,note_on,3,0,1,,,,,,,,,0,,,66,70
25597,note_on,37,0,1,,,,,,,,,0,,,66,0
25597,note_on,37,0,0,,,,,,,,,0,,,70,0
25600,note_on,3,0,0,,,,,,,,,0,,,73,70
25600,note_on,0,0,0,,,,,,,,,0,,,75,70
25600,note_on,0,0,0,,,,,,,,,0,,,78,70
25600,note_on,3,0,1,,,,,,,,,0,,,61,70
25600,note_on,0,0,1,,,,,,,,,0,,,63,70
25637,note_on,0,0,1,,,,,,,,,0,,,63,0
25637,note_on,0,0,0,,,,,,,,,0,,,78,0
25637,note_on,0,0,0,,,,,,,,,0,,,75,0
25637,note_on,37,0,0,,,,,,,,,0,,,73,0
25637,note_on,37,0,1,,,,,,,,,0,,,61,0
25640,note_on,3,0,1,,,,,,,,,0,,,66,69
25640,note_on,3,0,0,,,,,,,,,0,,,70,69
25667,note_on,27,0,1,,,,,,,,,0,,,50,0
25677,note_on,10,0,1,,,,,,,,,0,,,66,0
25677,note_on,37,0,0,,,,,,,,,0,,,70,0
25680,note_on,3,0,0,,,,,,,,,0,,,87,80
25680,note_on,3,0,1,,,,,,,,,0,,,51,80
25720,note_on,40,0,0,,,,,,,,,0,,,70,68
25720,note_on,40,0,1,,,,,,,,,0,,,66,68
25757,note_on,37,0,0,,,,,,,,,0,,,70,0
25757,note_on,37,0,1,,,,,,,,,0,,,66,0
25760,note_on,0,0,0,,,,,,,,,0,,,75,68
25760,note_on,3,0,0,,,,,,,,,0,,,73,68
25760,note_on,3,0,1,,,,,,,,,0,,,61,68
25760,note_on,0,0,0,,,,,,,,,0,,,78,68
25760,note_on,0,0,1,,,,,,,,,0,,,63,68
25797,note_on,37,0,0,,,,,,,,,0,,,73,0
25797,note_on,0,0,1,,,,,,,,,0,,,63,0
25797,note_on,0,0,0,,,,,,,,,0,,,78,0
25797,note_on,0,0,0,,,,,,,,,0,,,75,0
25797,note_on,37,0,1,,,,,,,,,0,,,61,0
25799,note_on,2,0,0,,,,,,,,,0,,,87,0
25800,note_on,1,0,0,,,,,,,,,0,,,70,68
25800,note_on,3,0,1,,,,,,,,,0,,,66,68
25837,note_on,37,0,0,,,,,,,,,0,,,70,0
25837,note_on,37,0,1,,,,,,,,,0,,,66,0
25840,note_on,3,0,0,,,,,,,,,0,,,73,68
25840,note_on,0,0,0,,,,,,,,,0,,,78,68
25840,note_on,3,0,1,,,,,,,,,0,,,61,68
25840,note_on,0,0,0,,,,,,,,,0,,,75,68
25840,note_on,0,0,1,,,,,,,,,0,,,63,68
25877,note_on,37,0,0,,,,,,,,,0,,,73,0
25877,note_on,37,0,1,,,,,,,,,0,,,61,0
25877,note_on,0,0,1,,,,,,,,,0,,,63,0
25877,note_on,0,0,0,,,,,,,,,0,,,75,0
25877,note_on,0,0,0,,,,,,,,,0,,,78,0
25880,note_on,3,0,0,,,,,,,,,0,,,70,68
25880,note_on,3,0,1,,,,,,,,,0,,,66,68
25907,note_on,27,0,1,,,,,,,,,0,,,51,0
25917,note_on,10,0,1,,,,,,,,,0,,,66,0
25917,note_on,37,0,0,,,,,,,,,0,,,70,0
25920,time_signature,3,1,0,6,8,24,8,,,,,,,,,
25920,note_on,0,0,0,,,,,,,,,0,,,84,80
25920,note_on,3,0,1,,,,,,,,,0,,,44,96
25921,control_change,1,0,1,,,,,,,64,0,0,,,,
25922,control_change,1,0,1,,,,,,,64,127,0,,,,
25960,note_on,38,0,1,,,,,,,,,0,,,69,68
25960,note_on,40,0,0,,,,,,,,,0,,,72,68
25997,note_on,37,0,1,,,,,,,,,0,,,69,0
25997,note_on,37,0,0,,,,,,,,,0,,,72,0
26000,note_on,3,0,1,,,,,,,,,0,,,60,68
26000,note_on,0,0,1,,,,,,,,,0,,,66,68
26000,note_on,0,0,0,,,,,,,,,0,,,78,68
26000,note_on,0,0,1,,,,,,,,,0,,,63,68
26000,note_on,3,0,0,,,,,,,,,0,,,75,68
26037,note_on,0,0,1,,,,,,,,,0,,,66,0
26037,note_on,37,0,0,,,,,,,,,0,,,75,0
26037,note_on,0,0,1,,,,,,,,,0,,,63,0
26037,note_on,0,0,0,,,,,,,,,0,,,78,0
26037,note_on,37,0,1,,,,,,,,,0,,,60,0
26039,note_on,2,0,0,,,,,,,,,0,,,84,0
26040,note_on,1,0,0,,,,,,,,,0,,,72,68
26040,note_on,3,0,1,,,,,,,,,0,,,69,68
26077,note_on,37,0,1,,,,,,,,,0,,,69,0
26077,note_on,37,0,0,,,,,,,,,0,,,72,0
26080,note_on,0,0,0,,,,,,,,,0,,,78,68
26080,note_on,3,0,0,,,,,,,,,0,,,75,68
26080,note_on,0,0,1,,,,,,,,,0,,,63,68
26080,note_on,0,0,1,,,,,,,,,0,,,66,68
26080,note_on,3,0,1,,,,,,,,,0,,,60,68
26117,note_on,37,0,1,,,,,,,,,0,,,60,0
26117,note_on,0,0,1,,,,,,,,,0,,,66,0
26117,note_on,0,0,1,,,,,,,,,0,,,63,0
26117,note_on,0,0,0,,,,,,,,,0,,,78,0
26117,note_on,37,0,0,,,,,,,,,0,,,75,0
26120,note_on,3,0,0,,,,,,,,,0,,,72,68
26120,note_on,3,0,1,,,,,,,,,0,,,69,68
26157,note_on,37,0,0,,,,,,,,,0,,,72,0
26157,note_on,37,0,1,,,,,,,,,0,,,69,0
26159,note_on,2,0,1,,,,,,,,,0,,,44,0
26160,note_on,0,0,1,,,,,,,,,0,,,66,68
26160,note_on,1,0,1,,,,,,,,,0,,,60,68
26160,note_on,3,0,0,,,,,,,,,0,,,93,80
26160,note_on,0,0,1,,,,,,,,,0,,,63,68
26197,note_on,0,0,1,,,,,,,,,0,,,63,0
26197,note_on,0,0,1,,,,,,,,,0,,,66,0
26197,note_on,37,0,1,,,,,,,,,0,,,60,0
26200,note_on,3,0,1,,,,,,,,,0,,,69,68
26200,note_on,40,0,0,,,,,,,,,0,,,72,68
26237,note_on,37,0,0,,,,,,,,,0,,,72,0
26237,note_on,37,0,1,,,,,,,,,0,,,69,0
26240,note_on,0,0,1,,,,,,,,,0,,,66,69
26240,note_on,3,0,1,,,,,,,,,0,,,60,69
26240,note_on,0,0,1,,,,,,,,,0,,,63,69
26240,note_on,3,0,0,,,,,,,,,0,,,75,69
26240,note_on,0,0,0,,,,,,,,,0,,,81,69
26277,note_on,0,0,0,,,,,,,,,0,,,81,0
26277,note_on,37,0,0,,,,,,,,,0,,,75,0
26277,note_on,0,0,1,,,,,,,,,0,,,66,0
26277,note_on,37,0,1,,,,,,,,,0,,,60,0
26277,note_on,0,0,1,,,,,,,,,0,,,63,0
26279,note_on,2,0,0,,,,,,,,,0,,,93,0
26280,note_on,3,0,1,,,,,,,,,0,,,69,69
26280,note_on,1,0,0,,,,,,,,,0,,,72,69
26317,note_on,37,0,1,,,,,,,,,0,,,69,0
26317,note_on,37,0,0,,,,,,,,,0,,,72,0
26320,note_on,0,0,1,,,,,,,,,0,,,63,69
26320,note_on,3,0,1,,,,,,,,,0,,,60,69
26320,note_on,3,0,0,,,,,,,,,0,,,75,69
26320,note_on,0,0,1,,,,,,,,,0,,,66,69
26320,note_on,0,0,0,,,,,,,,,0,,,81,69
26357,note_on,37,0,0,,,,,,,,,0,,,75,0
26357,note_on,0,0,0,,,,,,,,,0,,,81,0
26357,note_on,0,0,1,,,,,,,,,0,,,63,0
26357,note_on,37,0,1,,,,,,,,,0,,,60,0
26357,note_on,0,0,1,,,,,,,,,0,,,66,0
26360,note_on,3,0,1,,,,,,,,,0,,,69,70
26360,note_on,3,0,0,,,,,,,,,0,,,72,70
26397,note_on,37,0,0,,,,,,,,,0,,,72,0
26397,note_on,37,0,1,,,,,,,,,0,,,69,0
26400,note_on,0,0,1,,,,,,,,,0,,,66,70
26400,note_on,0,0,1,,,,,,,,,0,,,63,70
26400,note_on,3,0,0,,,,,,,,,0,,,92,82
26400,note_on,3,0,1,,,,,,,,,0,,,60,70
26437,note_on,37,0,1,,,,,,,,,0,,,60,0
26437,note_on,0,0,1,,,,,,,,,0,,,63,0
26437,note_on,0,0,1,,,,,,,,,0,,,66,0
26440,note_on,40,0,0,,,,,,,,,0,,,72,70
26440,note_on,3,0,1,,,,,,,,,0,,,69,70
26477,note_on,37,0,0,,,,,,,,,0,,,72,0
26477,note_on,37,0,1,,,,,,,,,0,,,69,0
26480,note_on,0,0,1,,,,,,,,,0,,,66,71
26480,note_on,0,0,0,,,,,,,,,0,,,80,71
26480,note_on,0,0,1,,,,,,,,,0,,,63,71
26480,note_on,3,0,0,,,,,,,,,0,,,75,71
26480,note_on,3,0,1,,,,,,,,,0,,,60,71
26517,note_on,0,0,0,,,,,,,,,0,,,80,0
26517,note_on,37,0,1,,,,,,,,,0,,,60,0
26517,note_on,37,0,0,,,,,,,,,0,,,75,0
26517,note_on,0,0,1,,,,,,,,,0,,,63,0
26517,note_on,0,0,1,,,,,,,,,0,,,66,0
26519,note_on,2,0,0,,,,,,,,,0,,,92,0
26520,note_on,1,0,0,,,,,,,,,0,,,72,71
26520,note_on,3,0,1,,,,,,,,,0,,,69,71
26557,note_on,37,0,1,,,,,,,,,0,,,69,0
26557,note_on,37,0,0,,,,,,,,,0,,,72,0
26560,note_on,0,0,1,,,,,,,,,0,,,63,71
26560,note_on,0,0,0,,,,,,,,,0,,,80,71
26560,note_on,0,0,1,,,,,,,,,0,,,66,71
26560,note_on,3,0,0,,,,,,,,,0,,,75,71
26560,note_on,3,0,1,,,,,,,,,0,,,60,71
26597,note_on,0,0,1,,,,,,,,,0,,,66,0
26597,note_on,0,0,1,,,,,,,,,0,,,63,0
26597,note_on,37,0,1,,,,,,,,,0,,,60,0
26597,note_on,37,0,0,,,,,,,,,0,,,75,0
26597,note_on,0,0,0,,,,,,,,,0,,,80,0
26600,note_on,3,0,1,,,,,,,,,0,,,69,72
26600,note_on,3,0,0,,,,,,,,,0,,,72,72
26637,note_on,37,0,0,,,,,,,,,0,,,72,0
26637,note_on,37,0,1,,,,,,,,,0,,,69,0
26640,note_on,0,0,1,,,,,,,,,0,,,63,72
26640,note_on,3,0,0,,,,,,,,,0,,,90,84
26640,note_on,3,0,1,,,,,,,,,0,,,60,72
26640,note_on,0,0,1,,,,,,,,,0,,,66,72
26677,note_on,37,0,1,,,,,,,,,0,,,60,0
26677,note_on,0,0,1,,,,,,,,,0,,,63,0
26677,note_on,0,0,1,,,,,,,,,0,,,66,0
26680,note_on,3,0,1,,,,,,,,,0,,,69,72
26680,note_on,40,0,0,,,,,,,,,0,,,72,72
26717,note_on,37,0,0,,,,,,,,,0,,,72,0
26717,note_on,37,0,1,,,,,,,,,0,,,69,0
26720,note_on,0,0,0,,,,,,,,,0,,,78,73
26720,note_on,0,0,1,,,,,,,,,0,,,66,73
26720,note_on,0,0,1,,,,,,,,,0,,,63,73
26720,note_on,3,0,0,,,,,,,,,0,,,75,73
26720,note_on,3,0,1,,,,,,,,,0,,,60,73
26757,note_on,37,0,1,,,,,,,,,0,,,60,0
26757,note_on,0,0,1,,,,,,,,,0,,,63,0
26757,note_on,37,0,0,,,,,,,,,0,,,75,0
26757,note_on,0,0,0,,,,,,,,,0,,,78,0
26757,note_on,0,0,1,,,,,,,,,0,,,66,0
26759,note_on,2,0,0,,,,,,,,,0,,,90,0
26760,note_on,3,0,1,,,,,,,,,0,,,69,73
26760,note_on,1,0,0,,,,,,,,,0,,,72,73
26797,note_on,37,0,1,,,,,,,,,0,,,69,0
26797,note_on,37,0,0,,,,,,,,,0,,,72,0
26800,note_on,3,0,0,,,,,,,,,0,,,75,73
26800,note_on,0,0,1,,,,,,,,,0,,,66,73
26800,note_on,3,0,1,,,,,,,,,0,,,60,73
26800,note_on,0,0,0,,,,,,,,,0,,,78,73
26800,note_on,0,0,1,,,,,,,,,0,,,63,73
26837,note_on,0,0,1,,,,,,,,,0,,,66,0
26837,note_on,37,0,1,,,,,,,,,0,,,60,0
26837,note_on,37,0,0,,,,,,,,,0,,,75,0
26837,note_on,0,0,1,,,,,,,,,0,,,63,0
26837,note_on,0,0,0,,,,,,,,,0,,,78,0
26840,note_on,3,0,0,,,,,,,,,0,,,72,73
26840,note_on,3,0,1,,,,,,,,,0,,,69,73
26877,note_on,37,0,1,,,,,,,,,0,,,69,0
26877,note_on,37,0,0,,,,,,,,,0,,,72,0
26880,note_on,0,0,1,,,,,,,,,0,,,66,74
26880,note_on,0,0,1,,,,,,,,,0,,,63,74
26880,note_on,3,0,0,,,,,,,,,0,,,89,86
26880,note_on,3,0,1,,,,,,,,,0,,,60,74
26917,note_on,0,0,1,,,,,,,,,0,,,66,0
26917,note_on,37,0,1,,,,,,,,,0,,,60,0
26917,note_on,0,0,1,,,,,,,,,0,,,63,0
26920,note_on,3,0,1,,,,,,,,,0,,,69,74
26920,note_on,40,0,0,,,,,,,,,0,,,72,74
26957,note_on,37,0,1,,,,,,,,,0,,,69,0
26957,note_on,37,0,0,,,,,,,,,0,,,72,0
26960,note_on,0,0,1,,,,,,,,,0,,,66,74
26960,note_on,0,0,1,,,,,,,,,0,,,63,74
26960,note_on,3,0,0,,,,,,,,,0,,,75,74
26960,note_on,3,0,1,,,,,,,,,0,,,60,74
26960,note_on,0,0,0,,,,,,,,,0,,,77,74
26997,note_on,0,0,0,,,,,,,,,0,,,77,0
26997,note_on,0,0,1,,,,,,,,,0,,,63,0
26997,note_on,0,0,1,,,,,,,,,0,,,66,0
26997,note_on,37,0,0,,,,,,,,,0,,,75,0
26997,note_on,37,0,1,,,,,,,,,0,,,60,0
26999,note_on,2,0,0,,,,,,,,,0,,,89,0
27000,note_on,1,0,0,,,,,,,,,0,,,72,74
27000,note_on,3,0,1,,,,,,,,,0,,,69,74
27037,note_on,37,0,1,,,,,,,,,0,,,69,0
27037,note_on,37,0,0,,,,,,,,,0,,,72,0
27040,note_on,0,0,1,,,,,,,,,0,,,63,74
27040,note_on,3,0,1,,,,,,,,,0,,,60,74
27040,note_on,3,0,0,,,,,,,,,0,,,75,74
27040,note_on,0,0,0,,,,,,,,,0,,,77,74
27040,note_on,0,0,1,,,,,,,,,0,,,66,74
27077,note_on,0,0,1,,,,,,,,,0,,,63,0
27077,note_on,0,0,0,,,,,,,,,0,,,77,0
27077,note_on,37,0,1,,,,,,,,,0,,,60,0
27077,note_on,37,0,0,,,,,,,,,0,,,75,0
27077,note_on,0,0,1,,,,,,,,,0,,,66,0
27080,note_on,3,0,1,,,,,,,,,0,,,69,74
27080,note_on,3,0,0,,,,,,,,,0,,,72,74
27117,note_on,37,0,1,,,,,,,,,0,,,69,0
27117,note_on,37,0,0,,,,,,,,,0,,,72,0
27120,note_on,3,0,1,,,,,,,,,0,,,44,88
27120,note_on,3,0,0,,,,,,,,,0,,,90,88
27160,note_on,40,0,1,,,,,,,,,0,,,66,75
27160,note_on,40,0,0,,,,,,,,,0,,,72,75
27197,note_on,37,0,1,,,,,,,,,0,,,66,0
27197,note_on,37,0,0,,,,,,,,,0,,,72,0
27200,note_on,3,0,0,,,,,,,,,0,,,75,75
27200,note_on,3,0,1,,,,,,,,,0,,,56,75
27200,note_on,0,0,0,,,,,,,,,0,,,78,75
27200,note_on,0,0,1,,,,,,,,,0,,,63,75
27237,note_on,0,0,0,,,,,,,,,0,,,78,0
27237,note_on,37,0,0,,,,,,,,,0,,,75,0
27237,note_on,37,0,1,,,,,,,,,0,,,56,0
27237,note_on,0,0,1,,,,,,,,,0,,,63,0
27239,note_on,2,0,0,,,,,,,,,0,,,90,0
27240,note_on,1,0,0,,,,,,,,,0,,,72,76
27240,note_on,3,0,1,,,,,,,,,0,,,66,76
27277,note_on,37,0,1,,,,,,,,,0,,,66,0
27277,note_on,37,0,0,,,,,,,,,0,,,72,0
27280,note_on,0,0,1,,,,,,,,,0,,,63,76
27280,note_on,3,0,0,,,,,,,,,0,,,75,76
27280,note_on,0,0,0,,,,,,,,,0,,,78,76
27280,note_on,3,0,1,,,,,,,,,0,,,56,76
27317,note_on,37,0,0,,,,,,,,,0,,,75,0
27317,note_on,0,0,0,,,,,,,,,0,,,78,0
27317,note_on,37,0,1,,,,,,,,,0,,,56,0
27317,note_on,0,0,1,,,,,,,,,0,,,63,0
27320,note_on,3,0,0,,,,,,,,,0,,,72,76
27320,note_on,3,0,1,,,,,,,,,0,,,66,76
27347,note_on,27,0,1,,,,,,,,,0,,,44,0
27357,note_on,10,0,1,,,,,,,,,0,,,66,0
27357,note_on,37,0,0,,,,,,,,,0,,,72,0
27360,note_on,3,0,0,,,,,,,,,0,,,90,90
27360,note_on,3,0,1,,,,,,,,,0,,,45,90
27361,control_change,1,0,1,,,,,,,64,0,0,,,,
27362,control_change,1,0,1,,,,,,,64,127,0,,,,
27400,note_on,40,0,0,,,,,,,,,0,,,69,77
27400,note_on,38,0,1,,,,,,,,,0,,,66,77
27437,note_on,37,0,0,,,,,,,,,0,,,69,0
27437,note_on,37,0,1,,,,,,,,,0,,,66,0
27440,note_on,0,0,0,,,,,,,,,0,,,78,77
27440,note_on,3,0,0,,,,,,,,,0,,,73,77
27440,note_on,0,0,1,,,,,,,,,0,,,63,77
27440,note_on,0,0,0,,,,,,,,,0,,,75,77
27440,note_on,3,0,1,,,,,,,,,0,,,61,77
27477,note_on,0,0,0,,,,,,,,,0,,,75,0
27477,note_on,0,0,0,,,,,,,,,0,,,78,0
27477,note_on,37,0,1,,,,,,,,,0,,,61,0
27477,note_on,37,0,0,,,,,,,,,0,,,73,0
27477,note_on,0,0,1,,,,,,,,,0,,,63,0
27480,note_on,3,0,0,,,,,,,,,0,,,69,77
27480,note_on,3,0,1,,,,,,,,,0,,,66,77
27517,note_on,37,0,1,,,,,,,,,0,,,66,0
27517,note_on,37,0,0,,,,,,,,,0,,,69,0
27520,note_on,3,0,1,,,,,,,,,0,,,61,77
27520,note_on,0,0,0,,,,,,,,,0,,,78,77
27520,note_on,0,0,1,,,,,,,,,0,,,63,77
27520,note_on,0,0,0,,,,,,,,,0,,,75,77
27520,note_on,3,0,0,,,,,,,,,0,,,73,77
27557,note_on,0,0,0,,,,,,,,,0,,,75,0
27557,note_on,37,0,0,,,,,,,,,0,,,73,0
27557,note_on,37,0,1,,,,,,,,,0,,,61,0
27557,note_on,0,0,0,,,,,,,,,0,,,78,0
27557,note_on,0,0,1,,,,,,,,,0,,,63,0
27560,note_on,3,0,0,,,,,,,,,0,,,69,77
27560,note_on,3,0,1,,,,,,,,,0,,,66,77
27587,note_on,27,0,1,,,,,,,,,0,,,45,0
27597,note_on,10,0,1,,,,,,,,,0,,,66,0
27597,note_on,37,0,0,,,,,,,,,0,,,69,0
27600,note_on,3,0,0,,,,,,,,,0,,,73,77
27600,note_on,0,0,0,,,,,,,,,0,,,75,77
27600,note_on,0,0,0,,,,,,,,,0,,,78,77
27600,note_on,3,0,1,,,,,,,,,0,,,54,108
27637,note_on,0,0,0,,,,,,,,,0,,,78,0
27637,note_on,0,0,0,,,,,,,,,0,,,75,0
27637,note_on,37,0,0,,,,,,,,,0,,,73,0
27640,note_on,40,0,1,,,,,,,,,0,,,66,77
27640,note_on,3,0,0,,,,,,,,,0,,,69,77
27677,note_on,37,0,0,,,,,,,,,0,,,69,0
27677,note_on,37,0,1,,,,,,,,,0,,,66,0
27680,note_on,0,0,1,,,,,,,,,0,,,63,77
27680,note_on,0,0,0,,,,,,,,,0,,,75,77
27680,note_on,3,0,1,,,,,,,,,0,,,61,77
27680,note_on,3,0,0,,,,,,,,,0,,,73,77
27680,note_on,0,0,0,,,,,,,,,0,,,78,77
27717,note_on,37,0,0,,,,,,,,,0,,,73,0
27717,note_on,37,0,1,,,,,,,,,0,,,61,0
27717,note_on,0,0,0,,,,,,,,,0,,,75,0
27717,note_on,0,0,0,,,,,,,,,0,,,78,0
27717,note_on,0,0,1,,,,,,,,,0,,,63,0
27720,note_on,3,0,1,,,,,,,,,0,,,66,77
27720,note_on,3,0,0,,,,,,,,,0,,,69,77
27757,note_on,37,0,1,,,,,,,,,0,,,66,0
27757,note_on,37,0,0,,,,,,,,,0,,,69,0
27760,note_on,3,0,0,,,,,,,,,0,,,73,77
27760,note_on,0,0,1,,,,,,,,,0,,,63,77
27760,note_on,3,0,1,,,,,,,,,0,,,61,77
27760,note_on,0,0,0,,,,,,,,,0,,,78,77
27760,note_on,0,0,0,,,,,,,,,0,,,75,77
27797,note_on,37,0,1,,,,,,,,,0,,,61,0
27797,note_on,37,0,0,,,,,,,,,0,,,73,0
27797,note_on,0,0,1,,,,,,,,,0,,,63,0
27797,note_on,0,0,0,,,,,,,,,0,,,75,0
27797,note_on,0,0,0,,,,,,,,,0,,,78,0
27800,note_on,3,0,0,,,,,,,,,0,,,69,77
27800,note_on,3,0,1,,,,,,,,,0,,,66,77
27815,note_on,15,0,0,,,,,,,,,0,,,90,0
27837,note_on,37,0,1,,,,,,,,,0,,,66,0
27837,note_on,22,0,0,,,,,,,,,0,,,69,0
27839,note_on,2,0,1,,,,,,,,,0,,,54,0
27840,note_on,1,0,1,,,,,,,,,0,,,52,90
27840,note_on,0,0,0,,,,,,,,,0,,,78,77
27840,note_on,0,0,0,,,,,,,,,0,,,75,77
27840,note_on,3,0,0,,,,,,,,,0,,,73,77
27877,note_on,37,0,0,,,,,,,,,0,,,73,0
27877,note_on,0,0,0,,,,,,,,,0,,,78,0
27877,note_on,0,0,0,,,,,,,,,0,,,75,0
27880,note_on,3,0,0,,,,,,,,,0,,,69,77
27880,note_on,40,0,1,,,,,,,,,0,,,66,77
27917,note_on,37,0,1,,,,,,,,,0,,,66,0
27917,note_on,37,0,0,,,,,,,,,0,,,69,0
27920,note_on,0,0,0,,,,,,,,,0,,,78,76
27920,note_on,0,0,0,,,,,,,,,0,,,75,76
27920,note_on,0,0,1,,,,,,,,,0,,,63,76
27920,note_on,3,0,0,,,,,,,,,0,,,73,76
27920,note_on,3,0,1,,,,,,,,,0,,,61,76
27957,note_on,37,0,1,,,,,,,,,0,,,61,0
27957,note_on,0,0,0,,,,,,,,,0,,,78,0
27957,note_on,37,0,0,,,,,,,,,0,,,73,0
27957,note_on,0,0,1,,,,,,,,,0,,,63,0
27957,note_on,0,0,0,,,,,,,,,0,,,75,0
27960,note_on,3,0,1,,,,,,,,,0,,,66,76
27960,note_on,3,0,0,,,,,,,,,0,,,69,76
27997,note_on,37,0,1,,,,,,,,,0,,,66,0
27997,note_on,37,0,0,,,,,,,,,0,,,69,0
28000,note_on,0,0,1,,,,,,,,,0,,,63,75
28000,note_on,3,0,1,,,,,,,,,0,,,61,75
28000,note_on,0,0,0,,,,,,,,,0,,,75,75
28000,note_on,0,0,0,,,,,,,,,0,,,78,75
28000,note_on,3,0,0,,,,,,,,,0,,,73,75
28037,note_on,37,0,1,,,,,,,,,0,,,61,0
28037,note_on,0,0,1,,,,,,,,,0,,,63,0
28037,note_on,37,0,0,,,,,,,,,0,,,73,0
28037,note_on,0,0,0,,,,,,,,,0,,,75,0
28037,note_on,0,0,0,,,,,,,,,0,,,78,0
28040,note_on,3,0,1,,,,,,,,,0,,,66,75
28040,note_on,3,0,0,,,,,,,,,0,,,69,75
28067,note_on,27,0,1,,,,,,,,,0,,,52,0
28077,note_on,37,0,0,,,,,,,,,0,,,69,0
28077,note_on,10,0,1,,,,,,,,,0,,,66,0
28080,note_on,3,0,0,,,,,,,,,0,,,73,74
28080,note_on,0,0,0,,,,,,,,,0,,,75,74
28080,note_on,0,0,0,,,,,,,,,0,,,78,74
28080,note_on,3,0,1,,,,,,,,,0,,,51,87
28117,note_on,0,0,0,,,,,,,,,0,,,75,0
28117,note_on,37,0,0,,,,,,,,,0,,,73,0
28117,note_on,0,0,0,,,,,,,,,0,,,78,0
28120,note_on,3,0,0,,,,,,,,,0,,,69,74
28120,note_on,40,0,1,,,,,,,,,0,,,66,74
28157,note_on,37,0,0,,,,,,,,,0,,,69,0
28157,note_on,37,0,1,,,,,,,,,0,,,66,0
28160,note_on,3,0,0,,,,,,,,,0,,,73,74
28160,note_on,0,0,0,,,,,,,,,0,,,78,74
28160,note_on,0,0,1,,,,,,,,,0,,,63,74
28160,note_on,0,0,0,,,,,,,,,0,,,75,74
28160,note_on,3,0,1,,,,,,,,,0,,,61,74
28197,note_on,0,0,0,,,,,,,,,0,,,78,0
28197,note_on,37,0,0,,,,,,,,,0,,,73,0
28197,note_on,0,0,1,,,,,,,,,0,,,63,0
28197,note_on,0,0,0,,,,,,,,,0,,,75,0
28197,note_on,37,0,1,,,,,,,,,0,,,61,0
28200,note_on,3,0,1,,,,,,,,,0,,,66,73
28200,note_on,3,0,0,,,,,,,,,0,,,69,73
28237,note_on,37,0,1,,,,,,,,,0,,,66,0
28237,note_on,37,0,0,,,,,,,,,0,,,69,0
28240,note_on,0,0,0,,,,,,,,,0,,,78,73
28240,note_on,0,0,0,,,,,,,,,0,,,75,73
28240,note_on,3,0,0,,,,,,,,,0,,,73,73
28240,note_on,0,0,1,,,,,,,,,0,,,63,73
28240,note_on,3,0,1,,,,,,,,,0,,,61,73
28277,note_on,0,0,1,,,,,,,,,0,,,63,0
28277,note_on,37,0,1,,,,,,,,,0,,,61,0
28277,note_on,0,0,0,,,,,,,,,0,,,75,0
28277,note_on,0,0,0,,,,,,,,,0,,,78,0
28277,note_on,37,0,0,,,,,,,,,0,,,73,0
28280,note_on,3,0,1,,,,,,,,,0,,,66,72
28280,note_on,3,0,0,,,,,,,,,0,,,69,72
28307,note_on,27,0,1,,,,,,,,,0,,,51,0
28317,note_on,37,0,0,,,,,,,,,0,,,69,0
28317,note_on,10,0,1,,,,,,,,,0,,,66,0
28320,note_on,0,0,0,,,,,,,,,0,,,75,72
28320,note_on,0,0,0,,,,,,,,,0,,,78,72
28320,note_on,3,0,1,,,,,,,,,0,,,50,84
28320,note_on,3,0,0,,,,,,,,,0,,,73,72
28357,note_on,0,0,0,,,,,,,,,0,,,78,0
28357,note_on,37,0,0,,,,,,,,,0,,,73,0
28357,note_on,0,0,0,,,,,,,,,0,,,75,0
28360,note_on,40,0,1,,,,,,,,,0,,,66,71
28360,note_on,3,0,0,,,,,,,,,0,,,69,71
28397,note_on,37,0,1,,,,,,,,,0,,,66,0
28397,note_on,37,0,0,,,,,,,,,0,,,69,0
28400,note_on,3,0,1,,,,,,,,,0,,,61,71
28400,note_on,3,0,0,,,,,,,,,0,,,73,71
28400,note_on,0,0,0,,,,,,,,,0,,,78,71
28400,note_on,0,0,1,,,,,,,,,0,,,63,71
28400,note_on,0,0,0,,,,,,,,,0,,,75,71
28437,note_on,37,0,1,,,,,,,,,0,,,61,0
28437,note_on,0,0,0,,,,,,,,,0,,,75,0
28437,note_on,0,0,1,,,,,,,,,0,,,63,0
28437,note_on,0,0,0,,,,,,,,,0,,,78,0
28437,note_on,37,0,0,,,,,,,,,0,,,73,0
28440,note_on,3,0,1,,,,,,,,,0,,,66,70
28440,note_on,3,0,0,,,,,,,,,0,,,69,70
28477,note_on,37,0,0,,,,,,,,,0,,,69,0
28477,note_on,37,0,1,,,,,,,,,0,,,66,0
28480,note_on,3,0,1,,,,,,,,,0,,,61,70
28480,note_on,0,0,0,,,,,,,,,0,,,75,70
28480,note_on,0,0,0,,,,,,,,,0,,,78,70
28480,note_on,0,0,1,,,,,,,,,0,,,63,70
28480,note_on,3,0,0,,,,,,,,,0,,,73,70
28517,note_on,0,0,1,,,,,,,,,0,,,63,0
28517,note_on,37,0,0,,,,,,,,,0,,,73,0
28517,note_on,37,0,1,,,,,,,,,0,,,61,0
28517,note_on,0,0,0,,,,,,,,,0,,,75,0
28517,note_on,0,0,0,,,,,,,,,0,,,78,0
28520,note_on,3,0,0,,,,,,,,,0,,,69,69
28520,note_on,3,0,1,,,,,,,,,0,,,66,69
28547,note_on,27,0,1,,,,,,,,,0,,,50,0
28557,note_on,37,0,0,,,,,,,,,0,,,69,0
28557,note_on,10,0,1,,,,,,,,,0,,,66,0
28560,note_on,3,0,1,,,,,,,,,0,,,51,80
28560,note_on,3,0,0,,,,,,,,,0,,,87,80
28600,note_on,40,0,0,,,,,,,,,0,,,69,68
28600,note_on,40,0,1,,,,,,,,,0,,,66,68
28637,note_on,37,0,1,,,,,,,,,0,,,66,0
28637,note_on,37,0,0,,,,,,,,,0,,,69,0
28640,note_on,3,0,1,,,,,,,,,0,,,61,68
28640,note_on,3,0,0,,,,,,,,,0,,,73,68
28640,note_on,0,0,0,,,,,,,,,0,,,75,68
28640,note_on,0,0,1,,,,,,,,,0,,,63,68
28640,note_on,0,0,0,,,,,,,,,0,,,78,68
28677,note_on,37,0,1,,,,,,,,,0,,,61,0
28677,note_on,0,0,1,,,,,,,,,0,,,63,0
28677,note_on,0,0,0,,,,,,,,,0,,,75,0
28677,note_on,37,0,0,,,,,,,,,0,,,73,0
28677,note_on,0,0,0,,,,,,,,,0,,,78,0
28680,note_on,3,0,1,,,,,,,,,0,,,66,68
28680,note_on,3,0,0,,,,,,,,,0,,,69,68
28717,note_on,37,0,1,,,,,,,,,0,,,66,0
28717,note_on,37,0,0,,,,,,,,,0,,,69,0
28720,note_on,0,0,1,,,,,,,,,0,,,63,68
28720,note_on,3,0,1,,,,,,,,,0,,,61,68
28720,note_on,3,0,0,,,,,,,,,0,,,73,68
28720,note_on,0,0,0,,,,,,,,,0,,,75,68
28720,note_on,0,0,0,,,,,,,,,0,,,78,68
28757,note_on,37,0,0,,,,,,,,,0,,,73,0
28757,note_on,37,0,1,,,,,,,,,0,,,61,0
28757,note_on,0,0,0,,,,,,,,,0,,,78,0
28757,note_on,0,0,1,,,,,,,,,0,,,63,0
28757,note_on,0,0,0,,,,,,,,,0,,,75,0
28760,note_on,3,0,0,,,,,,,,,0,,,69,68
28760,note_on,3,0,1,,,,,,,,,0,,,66,68
28787,note_on,27,0,1,,,,,,,,,0,,,51,0
28787,note_on,27,0,0,,,,,,,,,0,,,87,0
28797,note_on,10,0,1,,,,,,,,,0,,,66,0
28797,note_on,10,0,0,,,,,,,,,0,,,69,0
28800,time_signature,3,1,0,3,8,24,8,,,,,,,,,
28800,note_on,0,0,0,,,,,,,,,0,,,84,80
28801,control_change,4,0,1,,,,,,,64,0,0,,,,
28802,control_change,1,0,1,,,,,,,64,127,0,,,,
28840,note_on,40,0,0,,,,,,,,,0,,,72,68
28840,note_on,38,0,1,,,,,,,,,0,,,69,68
28877,note_on,37,0,0,,,,,,,,,0,,,72,0
28877,note_on,37,0,1,,,,,,,,,0,,,69,0
28880,note_on,3,0,0,,,,,,,,,0,,,75,68
28880,note_on,3,0,1,,,,,,,,,0,,,60,68
28880,note_on,0,0,1,,,,,,,,,0,,,66,68
28880,note_on,0,0,1,,,,,,,,,0,,,63,68
28880,note_on,0,0,0,,,,,,,,,0,,,78,68
28917,note_on,37,0,1,,,,,,,,,0,,,60,0
28917,note_on,37,0,0,,,,,,,,,0,,,75,0
28917,note_on,0,0,0,,,,,,,,,0,,,78,0
28917,note_on,0,0,1,,,,,,,,,0,,,63,0
28917,note_on,0,0,1,,,,,,,,,0,,,66,0
28920,note_on,3,0,0,,,,,,,,,0,,,72,68
28920,note_on,3,0,1,,,,,,,,,0,,,69,68
28957,note_on,37,0,1,,,,,,,,,0,,,69,0
28957,note_on,37,0,0,,,,,,,,,0,,,72,0
28960,note_on,0,0,0,,,,,,,,,0,,,78,68
28960,note_on,0,0,1,,,,,,,,,0,,,63,68
28960,note_on,0,0,1,,,,,,,,,0,,,66,68
28960,note_on,3,0,1,,,,,,,,,0,,,60,68
28960,note_on,3,0,0,,,,,,,,,0,,,75,68
28997,note_on,0,0,0,,,,,,,,,0,,,78,0
28997,note_on,0,0,1,,,,,,,,,0,,,66,0
28997,note_on,0,0,1,,,,,,,,,0,,,63,0
28997,note_on,37,0,0,,,,,,,,,0,,,75,0
28997,note_on,37,0,1,,,,,,,,,0,,,60,0
29000,note_on,3,0,1,,,,,,,,,0,,,69,69
29000,note_on,3,0,0,,,,,,,,,0,,,72,69
29027,note_on,27,0,0,,,,,,,,,0,,,84,0
29037,note_on,10,0,0,,,,,,,,,0,,,72,0
29037,note_on,37,0,1,,,,,,,,,0,,,69,0
29040,note_on,3,0,0,,,,,,,,,0,,,93,82
29040,note_on,0,0,1,,,,,,,,,0,,,63,70
29040,note_on,3,0,1,,,,,,,,,0,,,60,70
29040,note_on,0,0,1,,,,,,,,,0,,,66,70
29077,note_on,0,0,1,,,,,,,,,0,,,63,0
29077,note_on,0,0,1,,,,,,,,,0,,,66,0
29077,note_on,37,0,1,,,,,,,,,0,,,60,0
29080,note_on,40,0,0,,,,,,,,,0,,,72,70
29080,note_on,3,0,1,,,,,,,,,0,,,69,70
29117,note_on,37,0,1,,,,,,,,,0,,,69,0
29117,note_on,37,0,0,,,,,,,,,0,,,72,0
29120,note_on,3,0,0,,,,,,,,,0,,,75,71
29120,note_on,0,0,1,,,,,,,,,0,,,63,71
29120,note_on,0,0,1,,,,,,,,,0,,,66,71
29120,note_on,3,0,1,,,,,,,,,0,,,60,71
29120,note_on,0,0,0,,,,,,,,,0,,,81,71
29157,note_on,37,0,0,,,,,,,,,0,,,75,0
29157,note_on,0,0,0,,,,,,,,,0,,,81,0
29157,note_on,0,0,1,,,,,,,,,0,,,66,0
29157,note_on,37,0,1,,,,,,,,,0,,,60,0
29157,note_on,0,0,1,,,,,,,,,0,,,63,0
29160,note_on,3,0,0,,,,,,,,,0,,,72,72
29160,note_on,3,0,1,,,,,,,,,0,,,69,72
29197,note_on,37,0,1,,,,,,,,,0,,,69,0
29197,note_on,37,0,0,,,,,,,,,0,,,72,0
29200,note_on,0,0,0,,,,,,,,,0,,,81,73
29200,note_on,3,0,0,,,,,,,,,0,,,75,73
29200,note_on,0,0,1,,,,,,,,,0,,,63,73
29200,note_on,3,0,1,,,,,,,,,0,,,60,73
29200,note_on,0,0,1,,,,,,,,,0,,,66,73
29237,note_on,37,0,1,,,,,,,,,0,,,60,0
29237,note_on,0,0,1,,,,,,,,,0,,,63,0
29237,note_on,0,0,0,,,,,,,,,0,,,81,0
29237,note_on,37,0,0,,,,,,,,,0,,,75,0
29237,note_on,0,0,1,,,,,,,,,0,,,66,0
29240,note_on,3,0,0,,,,,,,,,0,,,72,73
29240,note_on,3,0,1,,,,,,,,,0,,,69,73
29267,note_on,27,0,0,,,,,,,,,0,,,93,0
29277,note_on,10,0,0,,,,,,,,,0,,,72,0
29277,note_on,37,0,1,,,,,,,,,0,,,69,0
29280,note_on,3,0,0,,,,,,,,,0,,,92,86
29280,note_on,0,0,1,,,,,,,,,0,,,63,74
29280,note_on,3,0,1,,,,,,,,,0,,,60,74
29317,note_on,37,0,1,,,,,,,,,0,,,60,0
29317,note_on,0,0,1,,,,,,,,,0,,,63,0
29320,note_on,40,0,0,,,,,,,,,0,,,72,74
29320,note_on,3,0,1,,,,,,,,,0,,,68,74
29357,note_on,37,0,1,,,,,,,,,0,,,68,0
29357,note_on,37,0,0,,,,,,,,,0,,,72,0
29360,note_on,0,0,0,,,,,,,,,0,,,80,75
29360,note_on,0,0,1,,,,,,,,,0,,,63,75
29360,note_on,3,0,0,,,,,,,,,0,,,75,75
29360,note_on,3,0,1,,,,,,,,,0,,,60,75
29397,note_on,37,0,1,,,,,,,,,0,,,60,0
29397,note_on,37,0,0,,,,,,,,,0,,,75,0
29397,note_on,0,0,0,,,,,,,,,0,,,80,0
29397,note_on,0,0,1,,,,,,,,,0,,,63,0
29400,note_on,3,0,1,,,,,,,,,0,,,68,75
29400,note_on,3,0,0,,,,,,,,,0,,,72,75
29437,note_on,37,0,1,,,,,,,,,0,,,68,0
29437,note_on,37,0,0,,,,,,,,,0,,,72,0
29440,note_on,3,0,1,,,,,,,,,0,,,60,76
29440,note_on,0,0,1,,,,,,,,,0,,,63,76
29440,note_on,0,0,0,,,,,,,,,0,,,80,76
29440,note_on,3,0,0,,,,,,,,,0,,,75,76
29477,note_on,0,0,0,,,,,,,,,0,,,80,0
29477,note_on,0,0,1,,,,,,,,,0,,,63,0
29477,note_on,37,0,0,,,,,,,,,0,,,75,0
29477,note_on,37,0,1,,,,,,,,,0,,,60,0
29480,note_on,3,0,0,,,,,,,,,0,,,72,77
29480,note_on,3,0,1,,,,,,,,,0,,,68,77
29507,note_on,27,0,0,,,,,,,,,0,,,92,0
29517,note_on,10,0,0,,,,,,,,,0,,,72,0
29517,note_on,37,0,1,,,,,,,,,0,,,68,0
29520,note_on,3,0,0,,,,,,,,,0,,,90,90
29520,note_on,3,0,1,,,,,,,,,0,,,45,90
29521,control_change,1,0,1,,,,,,,64,0,0,,,,
29522,control_change,1,0,1,,,,,,,64,127,0,,,,
29560,note_on,40,0,0,,,,,,,,,0,,,71,78
29560,note_on,38,0,1,,,,,,,,,0,,,66,78
29597,note_on,37,0,1,,,,,,,,,0,,,66,0
29597,note_on,37,0,0,,,,,,,,,0,,,71,0
29600,note_on,0,0,0,,,,,,,,,0,,,78,79
29600,note_on,0,0,1,,,,,,,,,0,,,63,79
29600,note_on,3,0,1,,,,,,,,,0,,,57,79
29600,note_on,3,0,0,,,,,,,,,0,,,75,79
29637,note_on,0,0,1,,,,,,,,,0,,,63,0
29637,note_on,37,0,1,,,,,,,,,0,,,57,0
29637,note_on,37,0,0,,,,,,,,,0,,,75,0
29637,note_on,0,0,0,,,,,,,,,0,,,78,0
29640,note_on,3,0,1,,,,,,,,,0,,,66,80
29640,note_on,3,0,0,,,,,,,,,0,,,71,80
29677,note_on,37,0,0,,,,,,,,,0,,,71,0
29677,note_on,37,0,1,,,,,,,,,0,,,66,0
29680,note_on,3,0,1,,,,,,,,,0,,,57,80
29680,note_on,3,0,0,,,,,,,,,0,,,75,80
29680,note_on,0,0,1,,,,,,,,,0,,,63,80
29680,note_on,0,0,0,,,,,,,,,0,,,78,80
29717,note_on,0,0,0,,,,,,,,,0,,,78,0
29717,note_on,37,0,1,,,,,,,,,0,,,57,0
29717,note_on,0,0,1,,,,,,,,,0,,,63,0
29717,note_on,37,0,0,,,,,,,,,0,,,75,0
29720,note_on,3,0,1,,,,,,,,,0,,,66,80
29720,note_on,3,0,0,,,,,,,,,0,,,71,80
29747,note_on,27,0,0,,,,,,,,,0,,,90,0
29757,note_on,37,0,1,,,,,,,,,0,,,66,0
29757,note_on,10,0,0,,,,,,,,,0,,,71,0
29760,note_on,3,0,1,,,,,,,,,0,,,57,81
29760,note_on,0,0,1,,,,,,,,,0,,,63,81
29760,note_on,3,0,0,,,,,,,,,0,,,87,95
29797,note_on,37,0,1,,,,,,,,,0,,,57,0
29797,note_on,0,0,1,,,,,,,,,0,,,63,0
29800,note_on,40,0,0,,,,,,,,,0,,,71,82
29800,note_on,3,0,1,,,,,,,,,0,,,66,82
29837,note_on,37,0,1,,,,,,,,,0,,,66,0
29837,note_on,37,0,0,,,,,,,,,0,,,71,0
29840,note_on,3,0,0,,,,,,,,,0,,,75,82
29840,note_on,0,0,1,,,,,,,,,0,,,63,82
29840,note_on,3,0,1,,,,,,,,,0,,,57,82
29840,note_on,0,0,0,,,,,,,,,0,,,78,82
29877,note_on,0,0,1,,,,,,,,,0,,,63,0
29877,note_on,37,0,1,,,,,,,,,0,,,57,0
29877,note_on,0,0,0,,,,,,,,,0,,,78,0
29877,note_on,37,0,0,,,,,,,,,0,,,75,0
29880,note_on,3,0,1,,,,,,,,,0,,,66,83
29880,note_on,3,0,0,,,,,,,,,0,,,71,83
29917,note_on,37,0,1,,,,,,,,,0,,,66,0
29917,note_on,37,0,0,,,,,,,,,0,,,71,0
29920,note_on,0,0,1,,,,,,,,,0,,,63,84
29920,note_on,0,0,0,,,,,,,,,0,,,78,84
29920,note_on,3,0,1,,,,,,,,,0,,,57,84
29920,note_on,3,0,0,,,,,,,,,0,,,75,84
29957,note_on,0,0,0,,,,,,,,,0,,,78,0
29957,note_on,37,0,1,,,,,,,,,0,,,57,0
29957,note_on,37,0,0,,,,,,,,,0,,,75,0
29957,note_on,0,0,1,,,,,,,,,0,,,63,0
29960,note_on,3,0,1,,,,,,,,,0,,,66,84
29960,note_on,3,0,0,,,,,,,,,0,,,71,84
29975,note_on,15,0,1,,,,,,,,,0,,,45,0
29987,note_on,27,0,0,,,,,,,,,0,,,87,0
29997,note_on,22,0,1,,,,,,,,,0,,,66,0
29997,note_on,10,0,0,,,,,,,,,0,,,71,0
30000,note_on,0,0,1,,,,,,,,,0,,,63,85
30000,note_on,3,0,1,,,,,,,,,0,,,57,85
30000,note_on,3,0,0,,,,,,,,,0,,,83,99
30037,note_on,0,0,1,,,,,,,,,0,,,63,0
30037,note_on,37,0,1,,,,,,,,,0,,,57,0
30040,note_on,3,0,1,,,,,,,,,0,,,66,85
30040,note_on,40,0,0,,,,,,,,,0,,,71,85
30077,note_on,37,0,1,,,,,,,,,0,,,66,0
30077,note_on,37,0,0,,,,,,,,,0,,,71,0
30080,note_on,3,0,1,,,,,,,,,0,,,57,86
30080,note_on,0,0,1,,,,,,,,,0,,,63,86
30080,note_on,0,0,0,,,,,,,,,0,,,78,86
30080,note_on,3,0,0,,,,,,,,,0,,,75,86
30117,note_on,0,0,0,,,,,,,,,0,,,78,0
30117,note_on,37,0,1,,,,,,,,,0,,,57,0
30117,note_on,0,0,1,,,,,,,,,0,,,63,0
30117,note_on,37,0,0,,,,,,,,,0,,,75,0
30120,note_on,3,0,1,,,,,,,,,0,,,66,86
30120,note_on,3,0,0,,,,,,,,,0,,,71,86
30157,note_on,37,0,0,,,,,,,,,0,,,71,0
30157,note_on,37,0,1,,,,,,,,,0,,,66,0
30160,note_on,0,0,0,,,,,,,,,0,,,78,87
30160,note_on,3,0,0,,,,,,,,,0,,,75,87
30160,note_on,0,0,1,,,,,,,,,0,,,63,87
30160,note_on,3,0,1,,,,,,,,,0,,,57,87
30197,note_on,0,0,0,,,,,,,,,0,,,78,0
30197,note_on,37,0,0,,,,,,,,,0,,,75,0
30197,note_on,0,0,1,,,,,,,,,0,,,63,0
30197,note_on,37,0,1,,,,,,,,,0,,,57,0
30200,note_on,3,0,1,,,,,,,,,0,,,66,88
30200,note_on,3,0,0,,,,,,,,,0,,,71,88
30227,note_on,27,0,0,,,,,,,,,0,,,83,0
30237,note_on,10,0,0,,,,,,,,,0,,,71,0
30237,note_on,37,0,1,,,,,,,,,0,,,66,0
30240,note_on,0,0,1,,,,,,,,,0,,,56,104
30240,key_signature,3,1,1,,,,,E,,,,,,,,
30240,key_signature,0,1,0,,,,,E,,,,,,,,
30240,note_on,0,0,1,,,,,,,,,0,,,44,104
30240,time_signature,3,1,0,6,8,24,8,,,,,,,,,
30241,control_change,1,0,1,,,,,,,64,0,0,,,,
30242,control_change,1,0,1,,,,,,,64,127,0,,,,
30280,set_tempo,40,1,0,,,,,,2000000,,,,,,,
30280,note_on,0,0,0,,,,,,,,,0,,,95,104
30280,note_on,0,0,0,,,,,,,,,0,,,83,104
30320,note_on,0,0,1,,,,,,,,,0,,,68,89
30320,note_on,78,0,1,,,,,,,,,0,,,59,89
30320,note_on,0,0,1,,,,,,,,,0,,,64,89
30357,note_on,0,0,1,,,,,,,,,0,,,64,0
30357,note_on,0,0,1,,,,,,,,,0,,,68,0
30357,note_on,37,0,1,,,,,,,,,0,,,59,0
30360,note_on,0,0,1,,,,,,,,,0,,,80,89
30360,note_on,3,0,1,,,,,,,,,0,,,71,89
30360,set_tempo,80,1,0,,,,,,1200000,,,,,,,
30360,note_on,0,0,1,,,,,,,,,0,,,76,89
30397,note_on,0,0,1,,,,,,,,,0,,,80,0
30397,note_on,37,0,1,,,,,,,,,0,,,71,0
30397,note_on,0,0,1,,,,,,,,,0,,,76,0
30400,note_on,3,0,1,,,,,,,,,0,,,59,89
30400,note_on,0,0,1,,,,,,,,,0,,,64,89
30400,note_on,0,0,1,,,,,,,,,0,,,68,89
30437,note_on,0,0,1,,,,,,,,,0,,,68,0
30437,note_on,37,0,1,,,,,,,,,0,,,59,0
30437,note_on,0,0,1,,,,,,,,,0,,,64,0
30440,note_on,3,0,1,,,,,,,,,0,,,71,89
30440,note_on,0,0,1,,,,,,,,,0,,,76,89
30440,note_on,0,0,1,,,,,,,,,0,,,80,89
30477,note_on,0,0,1,,,,,,,,,0,,,76,0
30477,note_on,0,0,1,,,,,,,,,0,,,80,0
30477,note_on,37,0,1,,,,,,,,,0,,,71,0
30480,note_on,3,0,1,,,,,,,,,0,,,59,89
30480,note_on,0,0,1,,,,,,,,,0,,,64,89
30480,note_on,0,0,1,,,,,,,,,0,,,68,89
30517,note_on,37,0,1,,,,,,,,,0,,,59,0
30517,note_on,0,0,1,,,,,,,,,0,,,68,0
30517,note_on,0,0,1,,,,,,,,,0,,,64,0
30520,note_on,0,0,1,,,,,,,,,0,,,80,89
30520,note_on,0,0,1,,,,,,,,,0,,,76,89
30520,note_on,3,0,1,,,,,,,,,0,,,71,89
30557,note_on,0,0,1,,,,,,,,,0,,,80,0
30557,note_on,37,0,1,,,,,,,,,0,,,71,0
30557,note_on,0,0,1,,,,,,,,,0,,,76,0
30560,note_on,0,0,1,,,,,,,,,0,,,64,89
30560,note_on,0,0,1,,,,,,,,,0,,,68,89
30560,note_on,3,0,1,,,,,,,,,0,,,59,89
30583,note_on,0,0,0,,,,,,,,,0,,,95,0
30583,note_on,223,0,0,,,,,,,,,0,,,83,0
30597,note_on,37,0,1,,,,,,,,,0,,,59,0
30597,note_on,0,0,1,,,,,,,,,0,,,64,0
30597,note_on,0,0,1,,,,,,,,,0,,,68,0
30600,note_on,0,0,1,,,,,,,,,0,,,80,89
30600,note_on,0,0,1,,,,,,,,,0,,,76,89
30600,note_on,3,0,1,,,,,,,,,0,,,71,89
30637,note_on,0,0,1,,,,,,,,,0,,,76,0
30637,note_on,0,0,1,,,,,,,,,0,,,80,0
30637,note_on,37,0,1,,,,,,,,,0,,,71,0
30640,note_on,3,0,1,,,,,,,,,0,,,59,89
30640,note_on,0,0,1,,,,,,,,,0,,,64,89
30640,note_on,0,0,1,,,,,,,,,0,,,68,89
30677,note_on,37,0,1,,,,,,,,,0,,,59,0
30677,note_on,0,0,1,,,,,,,,,0,,,68,0
30677,note_on,0,0,1,,,,,,,,,0,,,64,0
30680,note_on,0,0,1,,,,,,,,,0,,,80,89
30680,note_on,3,0,1,,,,,,,,,0,,,71,89
30680,note_on,0,0,1,,,,,,,,,0,,,76,89
30695,note_on,15,0,1,,,,,,,,,0,,,44,0
30695,note_on,0,0,1,,,,,,,,,0,,,56,0
30717,note_on,0,0,1,,,,,,,,,0,,,80,0
30717,note_on,22,0,1,,,,,,,,,0,,,71,0
30717,note_on,0,0,1,,,,,,,,,0,,,76,0
30720,note_on,0,0,1,,,,,,,,,0,,,52,104
30720,note_on,3,0,1,,,,,,,,,0,,,40,104
30760,note_on,0,0,0,,,,,,,,,0,,,92,104
30760,note_on,177,0,0,,,,,,,,,0,,,80,104
30800,note_on,80,0,1,,,,,,,,,0,,,56,89
30800,note_on,0,0,1,,,,,,,,,0,,,64,89
30800,note_on,0,0,1,,,,,,,,,0,,,59,89
30833,note_on,33,0,1,,,,,,,,,0,,,40,0
30833,note_on,0,0,1,,,,,,,,,0,,,52,0
30835,note_on,75,0,0,,,,,,,,,0,,,80,0
30835,note_on,0,0,0,,,,,,,,,0,,,92,0
30837,note_on,0,0,1,,,,,,,,,0,,,59,0
30837,note_on,0,0,1,,,,,,,,,0,,,64,0
30837,note_on,4,0,1,,,,,,,,,0,,,56,0
30840,note_on,3,0,1,,,,,,,,,0,,,68,89
30840,note_on,0,0,1,,,,,,,,,0,,,71,89
30840,note_on,0,0,1,,,,,,,,,0,,,76,89
30877,note_on,37,0,1,,,,,,,,,0,,,68,0
30877,note_on,0,0,1,,,,,,,,,0,,,76,0
30877,note_on,0,0,1,,,,,,,,,0,,,71,0
30880,note_on,0,0,1,,,,,,,,,0,,,64,89
30880,note_on,0,0,1,,,,,,,,,0,,,59,89
30880,note_on,3,0,1,,,,,,,,,0,,,56,89
30917,note_on,0,0,1,,,,,,,,,0,,,64,0
30917,note_on,37,0,1,,,,,,,,,0,,,56,0
30917,note_on,0,0,1,,,,,,,,,0,,,59,0
30920,note_on,0,0,1,,,,,,,,,0,,,71,89
30920,note_on,0,0,1,,,,,,,,,0,,,76,89
30920,note_on,3,0,1,,,,,,,,,0,,,68,89
30920,set_tempo,85,1,0,,,,,,2000000,,,,,,,
30957,note_on,0,0,1,,,,,,,,,0,,,71,0
30957,note_on,0,0,1,,,,,,,,,0,,,76,0
30957,note_on,37,0,1,,,,,,,,,0,,,68,0
30960,note_on,3,0,1,,,,,,,,,0,,,36,104
30960,note_on,0,0,1,,,,,,,,,0,,,48,104
30961,control_change,1,0,1,,,,,,,64,0,0,,,,
30962,control_change,1,0,1,,,,,,,64,127,0,,,,
31000,note_on,80,0,0,,,,,,,,,0,,,88,119
31000,note_on,0,0,0,,,,,,,,,0,,,100,119
31040,note_on,0,0,1,,,,,,,,,0,,,64,89
31040,note_on,78,0,1,,,,,,,,,0,,,55,89
31040,note_on,0,0,1,,,,,,,,,0,,,58,89
31077,note_on,0,0,1,,,,,,,,,0,,,64,0
31077,note_on,37,0,1,,,,,,,,,0,,,55,0
31077,note_on,0,0,1,,,,,,,,,0,,,58,0
31080,note_on,0,0,1,,,,,,,,,0,,,70,89
31080,set_tempo,80,1,0,,,,,,1200000,,,,,,,
31080,note_on,3,0,1,,,,,,,,,0,,,67,89
31080,note_on,0,0,1,,,,,,,,,0,,,76,89
31117,note_on,0,0,1,,,,,,,,,0,,,70,0
31117,note_on,0,0,1,,,,,,,,,0,,,76,0
31117,note_on,37,0,1,,,,,,,,,0,,,67,0
31120,note_on,3,0,1,,,,,,,,,0,,,55,89
31120,note_on,0,0,1,,,,,,,,,0,,,64,89
31120,note_on,0,0,1,,,,,,,,,0,,,58,89
31157,note_on,0,0,1,,,,,,,,,0,,,64,0
31157,note_on,37,0,1,,,,,,,,,0,,,55,0
31157,note_on,0,0,1,,,,,,,,,0,,,58,0
31160,note_on,0,0,1,,,,,,,,,0,,,76,89
31160,note_on,0,0,1,,,,,,,,,0,,,70,89
31160,note_on,3,0,1,,,,,,,,,0,,,67,89
31197,note_on,0,0,1,,,,,,,,,0,,,76,0
31197,note_on,0,0,1,,,,,,,,,0,,,70,0
31197,note_on,37,0,1,,,,,,,,,0,,,67,0
31200,note_on,0,0,1,,,,,,,,,0,,,64,89
31200,note_on,0,0,1,,,,,,,,,0,,,58,89
31200,note_on,3,0,1,,,,,,,,,0,,,55,89
31237,note_on,37,0,1,,,,,,,,,0,,,55,0
31237,note_on,0,0,1,,,,,,,,,0,,,64,0
31237,note_on,0,0,1,,,,,,,,,0,,,58,0
31240,note_on,3,0,1,,,,,,,,,0,,,67,89
31240,note_on,0,0,1,,,,,,,,,0,,,76,89
31240,note_on,0,0,1,,,,,,,,,0,,,70,89
31277,note_on,0,0,1,,,,,,,,,0,,,70,0
31277,note_on,0,0,1,,,,,,,,,0,,,76,0
31277,note_on,37,0,1,,,,,,,,,0,,,67,0
31280,note_on,0,0,1,,,,,,,,,0,,,58,89
31280,note_on,0,0,1,,,,,,,,,0,,,64,89
31280,note_on,3,0,1,,,,,,,,,0,,,55,89
31303,note_on,223,0,0,,,,,,,,,0,,,88,0
31303,note_on,0,0,0,,,,,,,,,0,,,100,0
31317,note_on,0,0,1,,,,,,,,,0,,,58,0
31317,note_on,0,0,1,,,,,,,,,0,,,64,0
31317,note_on,37,0,1,,,,,,,,,0,,,55,0
31320,note_on,0,0,1,,,,,,,,,0,,,76,89
31320,note_on,3,0,1,,,,,,,,,0,,,67,89
31320,note_on,0,0,1,,,,,,,,,0,,,70,89
31357,note_on,37,0,1,,,,,,,,,0,,,67,0
31357,note_on,0,0,1,,,,,,,,,0,,,76,0
31357,note_on,0,0,1,,,,,,,,,0,,,70,0
31360,note_on,3,0,1,,,,,,,,,0,,,55,89
31360,note_on,0,0,1,,,,,,,,,0,,,58,89
31360,note_on,0,0,1,,,,,,,,,0,,,64,89
31397,note_on,0,0,1,,,,,,,,,0,,,58,0
31397,note_on,37,0,1,,,,,,,,,0,,,55,0
31397,note_on,0,0,1,,,,,,,,,0,,,64,0
31400,note_on,3,0,1,,,,,,,,,0,,,67,89
31400,note_on,0,0,1,,,,,,,,,0,,,76,89
31400,note_on,0,0,1,,,,,,,,,0,,,70,89
31415,note_on,15,0,1,,,,,,,,,0,,,36,0
31415,note_on,0,0,1,,,,,,,,,0,,,48,0
31437,note_on,0,0,1,,,,,,,,,0,,,70,0
31437,note_on,22,0,1,,,,,,,,,0,,,67,0
31437,note_on,0,0,1,,,,,,,,,0,,,76,0
31440,note_on,0,0,1,,,,,,,,,0,,,48,104
31440,note_on,3,0,1,,,,,,,,,0,,,36,104
31480,note_on,177,0,0,,,,,,,,,0,,,82,104
31480,note_on,0,0,0,,,,,,,,,0,,,94,104
31520,note_on,80,0,1,,,,,,,,,0,,,55,89
31520,note_on,0,0,1,,,,,,,,,0,,,58,89
31520,note_on,0,0,1,,,,,,,,,0,,,64,89
31557,note_on,0,0,1,,,,,,,,,0,,,64,0
31557,note_on,0,0,1,,,,,,,,,0,,,58,0
31557,note_on,37,0,1,,,,,,,,,0,,,55,0
31560,note_on,3,0,1,,,,,,,,,0,,,67,89
31560,note_on,0,0,1,,,,,,,,,0,,,70,89
31560,note_on,0,0,1,,,,,,,,,0,,,76,89
31597,note_on,0,0,1,,,,,,,,,0,,,76,0
31597,note_on,0,0,1,,,,,,,,,0,,,70,0
31597,note_on,37,0,1,,,,,,,,,0,,,67,0
31600,note_on,0,0,1,,,,,,,,,0,,,58,89
31600,note_on,0,0,1,,,,,,,,,0,,,64,89
31600,note_on,3,0,1,,,,,,,,,0,,,55,89
31631,note_on,151,0,0,,,,,,,,,0,,,82,0
31631,note_on,0,0,0,,,,,,,,,0,,,94,0
31637,note_on,0,0,1,,,,,,,,,0,,,58,0
31637,note_on,0,0,1,,,,,,,,,0,,,64,0
31637,note_on,37,0,1,,,,,,,,,0,,,55,0
31640,note_on,3,0,1,,,,,,,,,0,,,67,89
31640,note_on,0,0,1,,,,,,,,,0,,,70,89
31640,note_on,0,0,1,,,,,,,,,0,,,76,89
31667,note_on,27,0,1,,,,,,,,,0,,,36,0
31667,note_on,0,0,1,,,,,,,,,0,,,48,0
31677,note_on,0,0,1,,,,,,,,,0,,,76,0
31677,note_on,10,0,1,,,,,,,,,0,,,67,0
31677,note_on,0,0,1,,,,,,,,,0,,,70,0
31680,note_on,0,0,1,,,,,,,,,0,,,47,104
31680,note_on,3,0,1,,,,,,,,,0,,,35,104
31681,control_change,1,0,1,,,,,,,64,0,0,,,,
31682,control_change,1,0,1,,,,,,,64,127,0,,,,
31720,note_on,89,0,0,,,,,,,,,0,,,83,104
31720,note_on,0,0,0,,,,,,,,,0,,,95,104
31760,note_on,0,0,1,,,,,,,,,0,,,59,89
31760,note_on,0,0,1,,,,,,,,,0,,,64,89
31760,note_on,78,0,1,,,,,,,,,0,,,56,89
31797,note_on,0,0,1,,,,,,,,,0,,,64,0
31797,note_on,0,0,1,,,,,,,,,0,,,59,0
31797,note_on,37,0,1,,,,,,,,,0,,,56,0
31800,note_on,3,0,1,,,,,,,,,0,,,68,89
31800,note_on,0,0,1,,,,,,,,,0,,,71,89
31800,note_on,0,0,1,,,,,,,,,0,,,76,89
31837,note_on,37,0,1,,,,,,,,,0,,,68,0
31837,note_on,0,0,1,,,,,,,,,0,,,76,0
31837,note_on,0,0,1,,,,,,,,,0,,,71,0
31840,note_on,3,0,1,,,,,,,,,0,,,56,89
31840,note_on,0,0,1,,,,,,,,,0,,,64,89
31840,note_on,0,0,1,,,,,,,,,0,,,59,89
31871,note_on,151,0,0,,,,,,,,,0,,,83,0
31871,note_on,0,0,0,,,,,,,,,0,,,95,0
31877,note_on,37,0,1,,,,,,,,,0,,,56,0
31877,note_on,0,0,1,,,,,,,,,0,,,64,0
31877,note_on,0,0,1,,,,,,,,,0,,,59,0
31880,note_on,0,0,1,,,,,,,,,0,,,71,89
31880,note_on,3,0,1,,,,,,,,,0,,,68,89
31880,note_on,0,0,1,,,,,,,,,0,,,76,89
31907,note_on,27,0,1,,,,,,,,,0,,,35,0
31907,note_on,0,0,1,,,,,,,,,0,,,47,0
31917,note_on,0,0,1,,,,,,,,,0,,,76,0
31917,note_on,10,0,1,,,,,,,,,0,,,68,0
31917,note_on,0,0,1,,,,,,,,,0,,,71,0
31920,note_on,3,0,1,,,,,,,,,0,,,44,104
31920,note_on,0,0,1,,,,,,,,,0,,,56,104
31960,note_on,89,0,0,,,,,,,,,0,,,80,104
31960,note_on,0,0,0,,,,,,,,,0,,,92,104
32000,note_on,80,0,1,,,,,,,,,0,,,59,89
32000,note_on,0,0,1,,,,,,,,,0,,,64,89
32000,note_on,0,0,1,,,,,,,,,0,,,68,89
32037,note_on,0,0,1,,,,,,,,,0,,,64,0
32037,note_on,0,0,1,,,,,,,,,0,,,68,0
32037,note_on,37,0,1,,,,,,,,,0,,,59,0
32040,note_on,3,0,1,,,,,,,,,0,,,71,89
32040,note_on,0,0,1,,,,,,,,,0,,,76,89
32077,note_on,0,0,1,,,,,,,,,0,,,76,0
32077,note_on,37,0,1,,,,,,,,,0,,,71,0
32080,note_on,3,0,1,,,,,,,,,0,,,59,89
32080,note_on,0,0,1,,,,,,,,,0,,,64,89
32080,note_on,0,0,1,,,,,,,,,0,,,68,89
32111,note_on,151,0,0,,,,,,,,,0,,,80,0
32111,note_on,0,0,0,,,,,,,,,0,,,92,0
32117,note_on,0,0,1,,,,,,,,,0,,,68,0
32117,note_on,0,0,1,,,,,,,,,0,,,64,0
32117,note_on,37,0,1,,,,,,,,,0,,,59,0
32120,note_on,0,0,1,,,,,,,,,0,,,76,89
32120,note_on,3,0,1,,,,,,,,,0,,,71,89
32147,note_on,27,0,1,,,,,,,,,0,,,44,0
32147,note_on,0,0,1,,,,,,,,,0,,,56,0
32157,note_on,0,0,1,,,,,,,,,0,,,76,0
32157,note_on,10,0,1,,,,,,,,,0,,,71,0
32160,note_on,3,0,1,,,,,,,,,0,,,39,104
32160,note_on,0,0,1,,,,,,,,,0,,,51,104
32200,note_on,89,0,0,,,,,,,,,0,,,75,104
32200,note_on,0,0,0,,,,,,,,,0,,,87,104
32240,note_on,0,0,1,,,,,,,,,0,,,59,89
32240,note_on,0,0,1,,,,,,,,,0,,,63,89
32240,note_on,80,0,1,,,,,,,,,0,,,56,89
32277,note_on,37,0,1,,,,,,,,,0,,,56,0
32277,note_on,0,0,1,,,,,,,,,0,,,59,0
32277,note_on,0,0,1,,,,,,,,,0,,,63,0
32280,note_on,0,0,1,,,,,,,,,0,,,71,89
32280,note_on,3,0,1,,,,,,,,,0,,,68,89
32317,note_on,0,0,1,,,,,,,,,0,,,71,0
32317,note_on,37,0,1,,,,,,,,,0,,,68,0
32320,note_on,0,0,1,,,,,,,,,0,,,59,89
32320,note_on,0,0,1,,,,,,,,,0,,,63,89
32320,note_on,3,0,1,,,,,,,,,0,,,56,89
32351,note_on,151,0,0,,,,,,,,,0,,,75,0
32351,note_on,0,0,0,,,,,,,,,0,,,87,0
32357,note_on,0,0,1,,,,,,,,,0,,,59,0
32357,note_on,0,0,1,,,,,,,,,0,,,63,0
32357,note_on,37,0,1,,,,,,,,,0,,,56,0
32360,note_on,0,0,1,,,,,,,,,0,,,71,89
32360,note_on,3,0,1,,,,,,,,,0,,,68,89
32387,note_on,27,0,1,,,,,,,,,0,,,39,0
32387,note_on,0,0,1,,,,,,,,,0,,,51,0
32397,note_on,10,0,1,,,,,,,,,0,,,68,0
32397,note_on,0,0,1,,,,,,,,,0,,,71,0
32400,note_on,3,0,1,,,,,,,,,0,,,40,104
32400,note_on,0,0,1,,,,,,,,,0,,,52,104
32401,control_change,1,0,1,,,,,,,64,0,0,,,,
32402,control_change,1,0,1,,,,,,,64,127,0,,,,
32440,note_on,89,0,0,,,,,,,,,0,,,76,104
32440,note_on,0,0,0,,,,,,,,,0,,,88,104
32480,note_on,0,0,1,,,,,,,,,0,,,59,89
32480,note_on,78,0,1,,,,,,,,,0,,,56,89
32480,note_on,0,0,1,,,,,,,,,0,,,64,89
32517,note_on,37,0,1,,,,,,,,,0,,,56,0
32517,note_on,0,0,1,,,,,,,,,0,,,64,0
32517,note_on,0,0,1,,,,,,,,,0,,,59,0
32520,note_on,3,0,1,,,,,,,,,0,,,68,89
32520,note_on,0,0,1,,,,,,,,,0,,,71,89
32557,note_on,37,0,1,,,,,,,,,0,,,68,0
32557,note_on,0,0,1,,,,,,,,,0,,,71,0
32560,note_on,3,0,1,,,,,,,,,0,,,56,89
32560,note_on,0,0,1,,,,,,,,,0,,,64,89
32560,note_on,0,0,1,,,,,,,,,0,,,59,89
32591,note_on,0,0,0,,,,,,,,,0,,,88,0
32591,note_on,151,0,0,,,,,,,,,0,,,76,0
32597,note_on,0,0,1,,,,,,,,,0,,,59,0
32597,note_on,0,0,1,,,,,,,,,0,,,64,0
32597,note_on,37,0,1,,,,,,,,,0,,,56,0
32600,note_on,3,0,1,,,,,,,,,0,,,68,89
32600,note_on,0,0,1,,,,,,,,,0,,,71,89
32627,note_on,27,0,1,,,,,,,,,0,,,40,0
32627,note_on,0,0,1,,,,,,,,,0,,,52,0
32637,note_on,10,0,1,,,,,,,,,0,,,68,0
32637,note_on,0,0,1,,,,,,,,,0,,,71,0
32640,note_on,3,0,1,,,,,,,,,0,,,34,104
32640,note_on,0,0,1,,,,,,,,,0,,,46,104
32680,note_on,89,0,0,,,,,,,,,0,,,70,104
32680,note_on,0,0,0,,,,,,,,,0,,,82,104
32720,note_on,0,0,1,,,,,,,,,0,,,56,89
32720,note_on,80,0,1,,,,,,,,,0,,,52,89
32720,note_on,0,0,1,,,,,,,,,0,,,58,89
32757,note_on,0,0,1,,,,,,,,,0,,,56,0
32757,note_on,0,0,1,,,,,,,,,0,,,58,0
32757,note_on,37,0,1,,,,,,,,,0,,,52,0
32760,note_on,3,0,1,,,,,,,,,0,,,64,89
32760,note_on,0,0,1,,,,,,,,,0,,,68,89
32797,note_on,37,0,1,,,,,,,,,0,,,64,0
32797,note_on,0,0,1,,,,,,,,,0,,,68,0
32800,note_on,3,0,1,,,,,,,,,0,,,52,89
32800,note_on,0,0,1,,,,,,,,,0,,,56,89
32800,note_on,0,0,1,,,,,,,,,0,,,58,89
32831,note_on,151,0,0,,,,,,,,,0,,,70,0
32831,note_on,0,0,0,,,,,,,,,0,,,82,0
32837,note_on,0,0,1,,,,,,,,,0,,,56,0
32837,note_on,37,0,1,,,,,,,,,0,,,52,0
32837,note_on,0,0,1,,,,,,,,,0,,,58,0
32840,note_on,0,0,1,,,,,,,,,0,,,68,89
32840,note_on,3,0,1,,,,,,,,,0,,,64,89
32867,note_on,0,0,1,,,,,,,,,0,,,46,0
32867,note_on,27,0,1,,,,,,,,,0,,,34,0
32877,note_on,10,0,1,,,,,,,,,0,,,64,0
32877,note_on,0,0,1,,,,,,,,,0,,,68,0
32880,note_on,3,0,1,,,,,,,,,0,,,35,104
32880,note_on,0,0,1,,,,,,,,,0,,,47,104
32920,set_tempo,89,1,0,,,,,,1333333,,,,,,,
32920,note_on,0,0,0,,,,,,,,,0,,,83,104
32920,note_on,0,0,0,,,,,,,,,0,,,71,104
32960,note_on,80,0,1,,,,,,,,,0,,,52,89
32960,note_on,0,0,1,,,,,,,,,0,,,56,89
32960,note_on,0,0,1,,,,,,,,,0,,,59,89
32997,note_on,37,0,1,,,,,,,,,0,,,52,0
32997,note_on,0,0,1,,,,,,,,,0,,,56,0
32997,note_on,0,0,1,,,,,,,,,0,,,59,0
33000,note_on,3,0,1,,,,,,,,,0,,,64,89
33000,note_on,0,0,1,,,,,,,,,0,,,68,89
33037,note_on,0,0,1,,,,,,,,,0,,,68,0
33037,note_on,37,0,1,,,,,,,,,0,,,64,0
33040,note_on,0,0,1,,,,,,,,,0,,,56,89
33040,note_on,3,0,1,,,,,,,,,0,,,52,89
33040,note_on,0,0,1,,,,,,,,,0,,,59,89
33071,note_on,151,0,0,,,,,,,,,0,,,71,0
33071,note_on,0,0,0,,,,,,,,,0,,,83,0
33077,note_on,0,0,1,,,,,,,,,0,,,56,0
33077,note_on,0,0,1,,,,,,,,,0,,,59,0
33077,note_on,37,0,1,,,,,,,,,0,,,52,0
33080,note_on,0,0,1,,,,,,,,,0,,,68,89
33080,note_on,3,0,1,,,,,,,,,0,,,64,89
33107,note_on,0,0,1,,,,,,,,,0,,,47,0
33107,note_on,27,0,1,,,,,,,,,0,,,35,0
33117,note_on,10,0,1,,,,,,,,,0,,,64,0
33117,note_on,0,0,1,,,,,,,,,0,,,68,0
33120,time_signature,49,1,0,3,8,24,8,,,,,,,,,
33120,note_on,0,0,1,,,,,,,,,0,,,48,124
33120,note_on,3,0,1,,,,,,,,,0,,,36,124
33121,control_change,1,0,1,,,,,,,64,0,0,,,,
33122,control_change,1,0,1,,,,,,,64,127,0,,,,
33180,note_on,60,0,0,,,,,,,,,0,,,72,124
33180,note_on,0,0,0,,,,,,,,,0,,,84,124
33200,note_on,0,0,0,,,,,,,,,0,,,60,89
33200,note_on,20,0,0,,,,,,,,,0,,,52,89
33200,note_on,0,0,0,,,,,,,,,0,,,57,89
33237,note_on,37,0,0,,,,,,,,,0,,,52,0
33237,note_on,0,0,0,,,,,,,,,0,,,60,0
33237,note_on,0,0,0,,,,,,,,,0,,,57,0
33240,note_on,0,0,0,,,,,,,,,0,,,69,89
33240,note_on,3,0,0,,,,,,,,,0,,,64,89
33277,note_on,37,0,0,,,,,,,,,0,,,64,0
33277,note_on,0,0,0,,,,,,,,,0,,,69,0
33280,note_on,0,0,0,,,,,,,,,0,,,57,89
33280,note_on,3,0,0,,,,,,,,,0,,,52,89
33280,note_on,0,0,0,,,,,,,,,0,,,60,89
33317,note_on,37,0,0,,,,,,,,,0,,,52,0
33317,note_on,0,0,0,,,,,,,,,0,,,57,0
33317,note_on,0,0,0,,,,,,,,,0,,,60,0
33320,note_on,0,0,0,,,,,,,,,0,,,69,89
33320,note_on,3,0,0,,,,,,,,,0,,,64,89
33357,note_on,37,0,0,,,,,,,,,0,,,64,0
33357,note_on,0,0,0,,,,,,,,,0,,,69,0
33360,note_on,0,0,0,,,,,,,,,0,,,52,89
33360,note_on,0,0,0,,,,,,,,,0,,,57,89
33360,note_on,0,0,0,,,,,,,,,0,,,60,89
33360,set_tempo,3,1,0,,,,,,1200000,,,,,,,
33397,note_on,0,0,0,,,,,,,,,0,,,57,0
33397,note_on,0,0,0,,,,,,,,,0,,,60,0
33397,note_on,37,0,0,,,,,,,,,0,,,52,0
33400,note_on,3,0,0,,,,,,,,,0,,,64,89
33400,note_on,0,0,0,,,,,,,,,0,,,69,89
33437,note_on,0,0,0,,,,,,,,,0,,,69,0
33437,note_on,37,0,0,,,,,,,,,0,,,64,0
33440,note_on,318,0,1,,,,,,,,,0,,,36,0
33440,note_on,0,0,1,,,,,,,,,0,,,48,0
33440,note_on,0,0,0,,,,,,,,,0,,,60,89
33440,note_on,3,0,0,,,,,,,,,0,,,52,89
33440,note_on,0,0,0,,,,,,,,,0,,,57,89
33477,note_on,37,0,0,,,,,,,,,0,,,52,0
33477,note_on,0,0,0,,,,,,,,,0,,,60,0
33477,note_on,0,0,0,,,,,,,,,0,,,57,0
33480,note_on,3,0,0,,,,,,,,,0,,,64,89
33480,note_on,0,0,0,,,,,,,,,0,,,69,89
33500,note_on,0,0,0,,,,,,,,,0,,,84,0
33500,note_on,20,0,0,,,,,,,,,0,,,72,0
33517,note_on,0,0,0,,,,,,,,,0,,,69,0
33517,note_on,17,0,0,,,,,,,,,0,,,64,0
33520,note_on,0,0,0,,,,,,,,,0,,,57,89
33520,note_on,3,0,0,,,,,,,,,0,,,52,89
33520,note_on,0,0,0,,,,,,,,,0,,,60,89
33557,note_on,0,0,0,,,,,,,,,0,,,60,0
33557,note_on,0,0,0,,,,,,,,,0,,,57,0
33557,note_on,37,0,0,,,,,,,,,0,,,52,0
33560,note_on,3,0,0,,,,,,,,,0,,,64,89
33560,note_on,0,0,0,,,,,,,,,0,,,69,89
33597,note_on,37,0,0,,,,,,,,,0,,,64,0
33597,note_on,0,0,0,,,,,,,,,0,,,69,0
33600,note_on,0,0,0,,,,,,,,,0,,,57,89
33600,note_on,0,0,0,,,,,,,,,0,,,60,89
33600,note_on,3,0,0,,,,,,,,,0,,,52,89
33637,note_on,0,0,0,,,,,,,,,0,,,60,0
33637,note_on,37,0,0,,,,,,,,,0,,,52,0
33637,note_on,0,0,0,,,,,,,,,0,,,57,0
33640,note_on,0,0,0,,,,,,,,,0,,,69,89
33640,note_on,3,0,0,,,,,,,,,0,,,64,89
33677,note_on,0,0,0,,,,,,,,,0,,,69,0
33677,note_on,37,0,0,,,,,,,,,0,,,64,0
33680,note_on,0,0,0,,,,,,,,,0,,,57,89
33680,note_on,3,0,0,,,,,,,,,0,,,52,89
33680,note_on,0,0,0,,,,,,,,,0,,,60,89
33717,note_on,0,0,0,,,,,,,,,0,,,57,0
33717,note_on,37,0,0,,,,,,,,,0,,,52,0
33717,note_on,0,0,0,,,,,,,,,0,,,60,0
33720,note_on,3,0,0,,,,,,,,,0,,,64,89
33720,note_on,0,0,0,,,,,,,,,0,,,69,89
33757,note_on,0,0,0,,,,,,,,,0,,,69,0
33757,note_on,37,0,0,,,,,,,,,0,,,64,0
33760,note_on,0,0,0,,,,,,,,,0,,,57,89
33760,note_on,3,0,0,,,,,,,,,0,,,52,89
33760,note_on,0,0,0,,,,,,,,,0,,,60,89
33797,note_on,37,0,0,,,,,,,,,0,,,52,0
33797,note_on,0,0,0,,,,,,,,,0,,,57,0
33797,note_on,0,0,0,,,,,,,,,0,,,60,0
33800,note_on,0,0,0,,,,,,,,,0,,,69,89
33800,note_on,3,0,0,,,,,,,,,0,,,64,89
33837,note_on,37,0,0,,,,,,,,,0,,,64,0
33837,note_on,0,0,0,,,,,,,,,0,,,69,0
33840,note_on,0,0,1,,,,,,,,,0,,,41,104
33840,note_on,400,0,1,,,,,,,,,0,,,29,104
33841,control_change,1,0,1,,,,,,,64,0,0,,,,
33842,control_change,1,0,1,,,,,,,64,127,0,,,,
33900,note_on,0,0,0,,,,,,,,,0,,,77,104
33900,note_on,63,0,0,,,,,,,,,0,,,65,104
33920,note_on,0,0,0,,,,,,,,,0,,,57,89
33920,note_on,20,0,0,,,,,,,,,0,,,52,89
33957,note_on,0,0,0,,,,,,,,,0,,,57,0
33957,note_on,37,0,0,,,,,,,,,0,,,52,0
33960,note_on,3,0,0,,,,,,,,,0,,,60,89
33960,note_on,0,0,0,,,,,,,,,0,,,64,89
33997,note_on,37,0,0,,,,,,,,,0,,,60,0
33997,note_on,0,0,0,,,,,,,,,0,,,64,0
34000,note_on,0,0,0,,,,,,,,,0,,,57,89
34000,note_on,3,0,0,,,,,,,,,0,,,52,89
34013,note_on,0,0,0,,,,,,,,,0,,,77,0
34013,note_on,13,0,0,,,,,,,,,0,,,65,0
34037,note_on,0,0,0,,,,,,,,,0,,,57,0
34037,note_on,24,0,0,,,,,,,,,0,,,52,0
34040,note_on,3,0,0,,,,,,,,,0,,,60,89
34040,note_on,0,0,0,,,,,,,,,0,,,64,89
34067,note_on,225,0,1,,,,,,,,,0,,,29,0
34067,note_on,0,0,1,,,,,,,,,0,,,41,0
34077,note_on,37,0,0,,,,,,,,,0,,,60,0
34077,note_on,0,0,0,,,,,,,,,0,,,64,0
34080,note_on,0,0,1,,,,,,,,,0,,,42,104
34080,note_on,13,0,1,,,,,,,,,0,,,30,104
34081,control_change,1,0,1,,,,,,,64,0,0,,,,
34082,control_change,1,0,1,,,,,,,64,127,0,,,,
34140,note_on,0,0,0,,,,,,,,,0,,,78,104
34140,note_on,0,0,0,,,,,,,,,0,,,66,104
34140,set_tempo,63,1,0,,,,,,1333333,,,,,,,
34160,note_on,20,0,0,,,,,,,,,0,,,52,89
34160,note_on,0,0,0,,,,,,,,,0,,,57,89
34197,note_on,37,0,0,,,,,,,,,0,,,52,0
34197,note_on,0,0,0,,,,,,,,,0,,,57,0
34200,note_on,3,0,0,,,,,,,,,0,,,60,89
34200,note_on,0,0,0,,,,,,,,,0,,,64,89
34237,note_on,37,0,0,,,,,,,,,0,,,60,0
34237,note_on,0,0,0,,,,,,,,,0,,,64,0
34240,note_on,0,0,0,,,,,,,,,0,,,57,89
34240,note_on,3,0,0,,,,,,,,,0,,,52,89
34253,note_on,13,0,0,,,,,,,,,0,,,66,0
34253,note_on,0,0,0,,,,,,,,,0,,,78,0
34277,note_on,0,0,0,,,,,,,,,0,,,57,0
34277,note_on,24,0,0,,,,,,,,,0,,,52,0
34280,note_on,0,0,0,,,,,,,,,0,,,64,89
34280,note_on,3,0,0,,,,,,,,,0,,,60,89
34307,note_on,0,0,1,,,,,,,,,0,,,42,0
34307,note_on,225,0,1,,,,,,,,,0,,,30,0
34317,note_on,37,0,0,,,,,,,,,0,,,60,0
34317,note_on,0,0,0,,,,,,,,,0,,,64,0
34320,note_on,13,0,1,,,,,,,,,0,,,35,104
34320,note_on,0,0,1,,,,,,,,,0,,,47,104
34321,control_change,1,0,1,,,,,,,64,0,0,,,,
34322,control_change,1,0,1,,,,,,,64,127,0,,,,
34380,set_tempo,63,1,0,,,,,,1499999,,,,,,,
34380,note_on,0,0,0,,,,,,,,,0,,,71,104
34380,note_on,0,0,0,,,,,,,,,0,,,83,104
34400,note_on,20,0,0,,,,,,,,,0,,,54,89
34400,note_on,0,0,0,,,,,,,,,0,,,57,89
34437,note_on,0,0,0,,,,,,,,,0,,,57,0
34437,note_on,37,0,0,,,,,,,,,0,,,54,0
34440,note_on,0,0,0,,,,,,,,,0,,,66,89
34440,note_on,3,0,0,,,,,,,,,0,,,63,89
34477,note_on,0,0,0,,,,,,,,,0,,,66,0
34477,note_on,37,0,0,,,,,,,,,0,,,63,0
34480,note_on,0,0,0,,,,,,,,,0,,,57,89
34480,note_on,3,0,0,,,,,,,,,0,,,54,89
34493,note_on,13,0,0,,,,,,,,,0,,,71,0
34493,note_on,0,0,0,,,,,,,,,0,,,83,0
34500,set_tempo,7,1,0,,,,,,2000000,,,,,,,
34517,note_on,17,0,0,,,,,,,,,0,,,54,0
34517,note_on,0,0,0,,,,,,,,,0,,,57,0
34520,note_on,0,0,0,,,,,,,,,0,,,66,89
34520,note_on,3,0,0,,,,,,,,,0,,,63,89
34547,note_on,0,0,1,,,,,,,,,0,,,47,0
34547,note_on,225,0,1,,,,,,,,,0,,,35,0
34557,note_on,37,0,0,,,,,,,,,0,,,63,0
34557,note_on,0,0,0,,,,,,,,,0,,,66,0
34560,note_on,0,0,1,,,,,,,,,0,,,47,104
34560,time_signature,3,1,0,6,8,24,8,,,,,,,,,
34560,note_on,0,0,1,,,,,,,,,0,,,56,104
34560,note_on,13,0,1,,,,,,,,,0,,,40,104
34560,note_on,0,0,0,,,,,,,,,0,,,76,104
34560,note_on,0,0,0,,,,,,,,,0,,,64,104
34560,set_tempo,0,1,0,,,,,,1499999,,,,,,,
34561,control_change,1,0,1,,,,,,,64,0,0,,,,
34562,control_change,1,0,1,,,,,,,64,127,0,,,,
34638,note_on,0,0,1,,,,,,,,,0,,,47,0
34638,note_on,78,0,0,,,,,,,,,0,,,64,0
34638,note_on,76,0,1,,,,,,,,,0,,,40,0
34638,note_on,0,0,0,,,,,,,,,0,,,76,0
34638,note_on,0,0,1,,,,,,,,,0,,,56,0
34800,note_on,0,0,0,,,,,,,,,0,,,68,96
34800,note_on,0,0,0,,,,,,,,,0,,,56,0
34800,note_on,162,0,1,,,,,,,,,0,,,56,82
34800,note_on,162,0,0,,,,,,,,,0,,,56,96
34848,note_on,48,0,1,,,,,,,,,0,,,59,82
34892,note_on,44,0,1,,,,,,,,,0,,,59,0
34896,note_on,4,0,1,,,,,,,,,0,,,64,82
34940,note_on,44,0,1,,,,,,,,,0,,,64,0
34944,note_on,4,0,1,,,,,,,,,0,,,59,82
34988,note_on,44,0,1,,,,,,,,,0,,,59,0
34992,note_on,4,0,1,,,,,,,,,0,,,64,82
35036,note_on,44,0,1,,,,,,,,,0,,,64,0
35039,note_on,3,0,1,,,,,,,,,0,,,56,0
35039,note_on,239,0,0,,,,,,,,,0,,,68,0
35040,note_on,0,0,0,,,,,,,,,0,,,54,96
35040,set_tempo,1,1,0,,,,,,1200000,,,,,,,
35040,note_on,0,0,0,,,,,,,,,0,,,66,96
35040,note_on,0,0,0,,,,,,,,,0,,,54,0
35040,note_on,1,0,1,,,,,,,,,0,,,54,82
35088,note_on,48,0,1,,,,,,,,,0,,,56,82
35132,note_on,44,0,1,,,,,,,,,0,,,56,0
35136,note_on,4,0,1,,,,,,,,,0,,,59,82
35180,note_on,44,0,1,,,,,,,,,0,,,59,0
35184,note_on,4,0,1,,,,,,,,,0,,,56,82
35228,note_on,44,0,1,,,,,,,,,0,,,56,0
35232,note_on,4,0,1,,,,,,,,,0,,,59,82
35267,note_on,35,0,1,,,,,,,,,0,,,54,0
35276,note_on,9,0,1,,,,,,,,,0,,,59,0
35279,note_on,239,0,0,,,,,,,,,0,,,66,0
35280,note_on,0,0,0,,,,,,,,,0,,,52,96
35280,note_on,4,0,1,,,,,,,,,0,,,52,82
35280,note_on,1,0,0,,,,,,,,,0,,,64,96
35280,note_on,0,0,0,,,,,,,,,0,,,52,0
35328,note_on,48,0,1,,,,,,,,,0,,,56,82
35372,note_on,44,0,1,,,,,,,,,0,,,56,0
35376,note_on,4,0,1,,,,,,,,,0,,,59,82
35420,note_on,44,0,1,,,,,,,,,0,,,59,0
35424,note_on,4,0,1,,,,,,,,,0,,,56,82
35468,note_on,44,0,1,,,,,,,,,0,,,56,0
35472,note_on,4,0,1,,,,,,,,,0,,,59,82
35507,note_on,35,0,1,,,,,,,,,0,,,52,0
35516,note_on,9,0,1,,,,,,,,,0,,,59,0
35519,note_on,239,0,0,,,,,,,,,0,,,64,0
35520,note_on,0,0,0,,,,,,,,,0,,,51,96
35520,note_on,0,0,0,,,,,,,,,0,,,51,0
35520,note_on,4,0,1,,,,,,,,,0,,,51,82
35520,note_on,1,0,0,,,,,,,,,0,,,63,96
35568,note_on,48,0,1,,,,,,,,,0,,,56,82
35569,control_change,1,0,1,,,,,,,64,0,0,,,,
35612,note_on,43,0,1,,,,,,,,,0,,,56,0
35616,note_on,4,0,1,,,,,,,,,0,,,59,82
35660,note_on,44,0,1,,,,,,,,,0,,,59,0
35664,note_on,4,0,1,,,,,,,,,0,,,56,82
35708,note_on,44,0,1,,,,,,,,,0,,,56,0
35712,note_on,4,0,1,,,,,,,,,0,,,59,82
35747,note_on,35,0,1,,,,,,,,,0,,,51,0
35756,note_on,9,0,1,,,,,,,,,0,,,59,0
35759,note_on,239,0,0,,,,,,,,,0,,,63,0
35760,note_on,0,0,1,,,,,,,,,0,,,52,82
35760,note_on,4,0,1,,,,,,,,,0,,,44,115
35760,note_on,0,0,0,,,,,,,,,0,,,52,96
35760,note_on,1,0,0,,,,,,,,,0,,,64,96
35760,note_on,0,0,0,,,,,,,,,0,,,52,0
35762,control_change,2,0,1,,,,,,,64,127,0,,,,
35808,note_on,46,0,1,,,,,,,,,0,,,56,82
35852,note_on,44,0,1,,,,,,,,,0,,,56,0
35856,note_on,4,0,1,,,,,,,,,0,,,59,82
35900,note_on,44,0,1,,,,,,,,,0,,,59,0
35904,note_on,4,0,1,,,,,,,,,0,,,56,82
35919,note_on,15,0,1,,,,,,,,,0,,,44,0
35948,note_on,29,0,1,,,,,,,,,0,,,56,0
35952,note_on,4,0,1,,,,,,,,,0,,,59,82
35987,note_on,35,0,1,,,,,,,,,0,,,52,0
35996,note_on,9,0,1,,,,,,,,,0,,,59,0
35999,note_on,239,0,0,,,,,,,,,0,,,64,0
36000,note_on,0,0,0,,,,,,,,,0,,,69,96
36000,note_on,4,0,1,,,,,,,,,0,,,42,115
36000,note_on,0,0,0,,,,,,,,,0,,,57,0
36000,note_on,0,0,0,,,,,,,,,0,,,57,96
36000,note_on,1,0,0,,,,,,,,,0,,,57,82
36001,control_change,1,0,1,,,,,,,64,0,0,,,,
36002,control_change,1,0,1,,,,,,,64,127,0,,,,
36048,note_on,48,0,0,,,,,,,,,0,,,60,82
36092,note_on,44,0,0,,,,,,,,,0,,,60,0
36096,note_on,4,0,0,,,,,,,,,0,,,64,82
36140,note_on,44,0,0,,,,,,,,,0,,,64,0
36144,note_on,4,0,0,,,,,,,,,0,,,60,82
36159,note_on,157,0,1,,,,,,,,,0,,,42,0
36188,note_on,44,0,0,,,,,,,,,0,,,60,0
36192,note_on,4,0,0,,,,,,,,,0,,,64,82
36236,note_on,44,0,0,,,,,,,,,0,,,64,0
36240,note_on,81,0,1,,,,,,,,,0,,,40,115
36240,note_on,4,0,0,,,,,,,,,0,,,60,82
36277,note_on,37,0,0,,,,,,,,,0,,,60,0
36280,note_on,3,0,0,,,,,,,,,0,,,64,82
36317,note_on,37,0,0,,,,,,,,,0,,,64,0
36320,note_on,3,0,0,,,,,,,,,0,,,60,82
36357,note_on,37,0,0,,,,,,,,,0,,,60,0
36360,note_on,3,0,0,,,,,,,,,0,,,64,82
36397,note_on,37,0,0,,,,,,,,,0,,,64,0
36399,note_on,159,0,1,,,,,,,,,0,,,40,0
36400,note_on,3,0,0,,,,,,,,,0,,,60,82
36437,note_on,37,0,0,,,,,,,,,0,,,60,0
36440,note_on,3,0,0,,,,,,,,,0,,,64,82
36477,note_on,37,0,0,,,,,,,,,0,,,64,0
36480,note_on,81,0,1,,,,,,,,,0,,,39,115
36480,note_on,3,0,0,,,,,,,,,0,,,60,82
36517,note_on,37,0,0,,,,,,,,,0,,,60,0
36520,note_on,3,0,0,,,,,,,,,0,,,64,82
36557,note_on,37,0,0,,,,,,,,,0,,,64,0
36560,note_on,3,0,0,,,,,,,,,0,,,60,82
36597,note_on,37,0,0,,,,,,,,,0,,,60,0
36600,note_on,3,0,0,,,,,,,,,0,,,64,82
36637,note_on,37,0,0,,,,,,,,,0,,,64,0
36639,note_on,159,0,1,,,,,,,,,0,,,39,0
36640,note_on,3,0,0,,,,,,,,,0,,,60,82
36677,note_on,37,0,0,,,,,,,,,0,,,60,0
36680,note_on,3,0,0,,,,,,,,,0,,,64,82
36683,note_on,3,0,0,,,,,,,,,0,,,57,0
36683,note_on,0,0,0,,,,,,,,,0,,,69,0
36717,note_on,34,0,0,,,,,,,,,0,,,64,0
36720,note_on,3,0,0,,,,,,,,,0,,,60,82
36720,note_on,81,0,1,,,,,,,,,0,,,40,115
36721,control_change,1,0,1,,,,,,,64,0,0,,,,
36722,control_change,1,0,1,,,,,,,64,127,0,,,,
36757,note_on,37,0,0,,,,,,,,,0,,,60,0
36760,note_on,3,0,0,,,,,,,,,0,,,64,82
36797,note_on,37,0,0,,,,,,,,,0,,,64,0
36800,note_on,3,0,0,,,,,,,,,0,,,60,82
36837,note_on,37,0,0,,,,,,,,,0,,,60,0
36840,note_on,3,0,0,,,,,,,,,0,,,64,82
36877,note_on,37,0,0,,,,,,,,,0,,,64,0
36879,note_on,157,0,1,,,,,,,,,0,,,40,0
36880,note_on,3,0,0,,,,,,,,,0,,,60,82
36917,note_on,37,0,0,,,,,,,,,0,,,60,0
36920,note_on,3,0,0,,,,,,,,,0,,,64,82
36957,note_on,37,0,0,,,,,,,,,0,,,64,0
36960,note_on,81,0,1,,,,,,,,,0,,,45,115
36960,set_tempo,3,1,0,,,,,,1499999,,,,,,,
36960,note_on,0,0,0,,,,,,,,,0,,,60,96
36960,note_on,0,0,0,,,,,,,,,0,,,60,0
36960,note_on,0,0,0,,,,,,,,,0,,,60,82
36960,note_on,0,0,0,,,,,,,,,0,,,72,96
36961,control_change,1,0,1,,,,,,,64,0,0,,,,
36962,control_change,1,0,1,,,,,,,64,127,0,,,,
37008,note_on,48,0,0,,,,,,,,,0,,,64,82
37052,note_on,44,0,0,,,,,,,,,0,,,64,0
37056,note_on,4,0,0,,,,,,,,,0,,,69,82
37100,note_on,44,0,0,,,,,,,,,0,,,69,0
37104,note_on,4,0,0,,,,,,,,,0,,,64,82
37148,note_on,44,0,0,,,,,,,,,0,,,64,0
37152,note_on,4,0,0,,,,,,,,,0,,,69,82
37187,note_on,35,0,0,,,,,,,,,0,,,60,0
37187,note_on,0,0,0,,,,,,,,,0,,,72,0
37196,note_on,9,0,0,,,,,,,,,0,,,69,0
37200,set_tempo,4,1,0,,,,,,1200000,,,,,,,
37200,note_on,0,0,0,,,,,,,,,0,,,59,82
37200,note_on,0,0,0,,,,,,,,,0,,,71,96
37200,note_on,0,0,0,,,,,,,,,0,,,59,0
37200,note_on,0,0,0,,,,,,,,,0,,,59,96
37248,note_on,48,0,0,,,,,,,,,0,,,60,82
37280,note_on,318,0,1,,,,,,,,,0,,,45,0
37292,note_on,44,0,0,,,,,,,,,0,,,60,0
37296,note_on,4,0,0,,,,,,,,,0,,,64,82
37340,note_on,44,0,0,,,,,,,,,0,,,64,0
37344,note_on,4,0,0,,,,,,,,,0,,,60,82
37388,note_on,44,0,0,,,,,,,,,0,,,60,0
37392,note_on,4,0,0,,,,,,,,,0,,,64,82
37427,note_on,0,0,0,,,,,,,,,0,,,71,0
37427,note_on,35,0,0,,,,,,,,,0,,,59,0
37436,note_on,9,0,0,,,,,,,,,0,,,64,0
37440,note_on,0,0,0,,,,,,,,,0,,,57,0
37440,note_on,4,0,0,,,,,,,,,0,,,57,82
37440,note_on,0,0,0,,,,,,,,,0,,,57,96
37440,note_on,0,0,0,,,,,,,,,0,,,69,96
37488,note_on,48,0,0,,,,,,,,,0,,,60,82
37532,note_on,44,0,0,,,,,,,,,0,,,60,0
37536,note_on,4,0,0,,,,,,,,,0,,,64,82
37580,note_on,44,0,0,,,,,,,,,0,,,64,0
37584,note_on,4,0,0,,,,,,,,,0,,,60,82
37628,note_on,44,0,0,,,,,,,,,0,,,60,0
37632,note_on,4,0,0,,,,,,,,,0,,,64,82
37667,note_on,35,0,0,,,,,,,,,0,,,57,0
37667,note_on,0,0,0,,,,,,,,,0,,,69,0
37676,note_on,9,0,0,,,,,,,,,0,,,64,0
37680,note_on,0,0,0,,,,,,,,,0,,,56,96
37680,note_on,4,0,0,,,,,,,,,0,,,56,82
37680,note_on,0,0,0,,,,,,,,,0,,,56,0
37680,note_on,0,0,0,,,,,,,,,0,,,68,96
37728,note_on,48,0,0,,,,,,,,,0,,,60,82
37772,note_on,44,0,0,,,,,,,,,0,,,60,0
37776,note_on,4,0,0,,,,,,,,,0,,,64,82
37820,note_on,44,0,0,,,,,,,,,0,,,64,0
37824,note_on,4,0,0,,,,,,,,,0,,,60,82
37868,note_on,44,0,0,,,,,,,,,0,,,60,0
37872,note_on,4,0,0,,,,,,,,,0,,,64,82
37907,note_on,35,0,0,,,,,,,,,0,,,56,0
37907,note_on,0,0,0,,,,,,,,,0,,,68,0
37916,note_on,9,0,0,,,,,,,,,0,,,64,0
37920,note_on,0,0,0,,,,,,,,,0,,,66,96
37920,note_on,4,0,0,,,,,,,,,0,,,54,82
37920,note_on,0,0,0,,,,,,,,,0,,,54,0
37920,note_on,0,0,1,,,,,,,,,0,,,54,96
37920,note_on,640,0,1,,,,,,,,,0,,,36,96
37937,note_on,17,0,1,,,,,,,,,0,,,39,96
37954,note_on,17,0,1,,,,,,,,,0,,,42,96
37968,note_on,48,0,0,,,,,,,,,0,,,57,82
37972,note_on,18,0,1,,,,,,,,,0,,,45,96
37989,note_on,17,0,1,,,,,,,,,0,,,48,96
38012,note_on,44,0,0,,,,,,,,,0,,,57,0
38016,note_on,4,0,0,,,,,,,,,0,,,63,82
38060,note_on,44,0,0,,,,,,,,,0,,,63,0
38064,note_on,4,0,0,,,,,,,,,0,,,57,82
38108,note_on,44,0,0,,,,,,,,,0,,,57,0
38112,note_on,4,0,0,,,,,,,,,0,,,63,82
38147,note_on,35,0,0,,,,,,,,,0,,,66,0
38147,note_on,158,0,1,,,,,,,,,0,,,54,0
38156,note_on,9,0,0,,,,,,,,,0,,,63,0
38158,note_on,0,0,1,,,,,,,,,0,,,42,0
38158,note_on,0,0,1,,,,,,,,,0,,,48,0
38158,note_on,0,0,1,,,,,,,,,0,,,45,0
38158,note_on,11,0,1,,,,,,,,,0,,,39,0
38159,note_on,1,0,1,,,,,,,,,0,,,36,0
38160,note_on,4,0,0,,,,,,,,,0,,,52,82
38160,note_on,0,0,0,,,,,,,,,0,,,52,0
38160,note_on,0,0,0,,,,,,,,,0,,,64,96
38160,note_on,1,0,1,,,,,,,,,0,,,35,96
38160,note_on,0,0,1,,,,,,,,,0,,,44,96
38160,note_on,0,0,1,,,,,,,,,0,,,40,96
38160,note_on,0,0,1,,,,,,,,,0,,,47,96
38160,note_on,0,0,1,,,,,,,,,0,,,52,96
38161,control_change,1,0,1,,,,,,,64,0,0,,,,
38162,control_change,1,0,1,,,,,,,64,127,0,,,,
38208,note_on,48,0,0,,,,,,,,,0,,,56,82
38238,note_on,0,0,1,,,,,,,,,0,,,44,0
38238,note_on,0,0,1,,,,,,,,,0,,,47,0
38238,note_on,76,0,1,,,,,,,,,0,,,35,0
38238,note_on,0,0,1,,,,,,,,,0,,,40,0
38252,note_on,44,0,0,,,,,,,,,0,,,56,0
38256,note_on,4,0,0,,,,,,,,,0,,,59,82
38300,note_on,44,0,0,,,,,,,,,0,,,59,0
38304,note_on,4,0,0,,,,,,,,,0,,,56,82
38348,note_on,44,0,0,,,,,,,,,0,,,56,0
38352,note_on,4,0,0,,,,,,,,,0,,,59,82
38396,note_on,44,0,0,,,,,,,,,0,,,59,0
38400,note_on,0,0,1,,,,,,,,,0,,,35,96
38400,note_on,162,0,1,,,,,,,,,0,,,33,96
38400,note_on,0,0,1,,,,,,,,,0,,,40,96
38400,note_on,0,0,1,,,,,,,,,0,,,45,96
38400,note_on,4,0,0,,,,,,,,,0,,,56,82
38401,control_change,1,0,1,,,,,,,64,0,0,,,,
38402,control_change,1,0,1,,,,,,,64,127,0,,,,
38437,note_on,37,0,0,,,,,,,,,0,,,56,0
38440,note_on,3,0,0,,,,,,,,,0,,,59,82
38477,note_on,37,0,0,,,,,,,,,0,,,59,0
38478,note_on,0,0,1,,,,,,,,,0,,,35,0
38478,note_on,76,0,1,,,,,,,,,0,,,33,0
38478,note_on,0,0,1,,,,,,,,,0,,,40,0
38478,note_on,0,0,1,,,,,,,,,0,,,45,0
38480,note_on,3,0,0,,,,,,,,,0,,,56,82
38517,note_on,37,0,0,,,,,,,,,0,,,56,0
38520,note_on,3,0,0,,,,,,,,,0,,,59,82
38557,note_on,37,0,0,,,,,,,,,0,,,59,0
38560,note_on,3,0,0,,,,,,,,,0,,,56,82
38597,note_on,37,0,0,,,,,,,,,0,,,56,0
38600,note_on,3,0,0,,,,,,,,,0,,,59,82
38615,note_on,137,0,1,,,,,,,,,0,,,52,0
38615,note_on,15,0,0,,,,,,,,,0,,,64,0
38637,note_on,22,0,0,,,,,,,,,0,,,59,0
38640,note_on,25,0,1,,,,,,,,,0,,,32,96
38640,note_on,0,0,1,,,,,,,,,0,,,44,96
38640,note_on,0,0,1,,,,,,,,,0,,,35,96
38640,note_on,3,0,0,,,,,,,,,0,,,56,82
38640,note_on,0,0,1,,,,,,,,,0,,,40,96
38641,control_change,1,0,1,,,,,,,64,0,0,,,,
38642,control_change,1,0,1,,,,,,,64,127,0,,,,
38677,note_on,37,0,0,,,,,,,,,0,,,56,0
38680,note_on,3,0,0,,,,,,,,,0,,,59,82
38717,note_on,37,0,0,,,,,,,,,0,,,59,0
38718,note_on,0,0,1,,,,,,,,,0,,,35,0
38718,note_on,0,0,1,,,,,,,,,0,,,40,0
38718,note_on,0,0,1,,,,,,,,,0,,,44,0
38718,note_on,76,0,1,,,,,,,,,0,,,32,0
38720,note_on,3,0,0,,,,,,,,,0,,,56,82
38757,note_on,37,0,0,,,,,,,,,0,,,56,0
38760,note_on,3,0,0,,,,,,,,,0,,,59,82
38797,note_on,37,0,0,,,,,,,,,0,,,59,0
38800,note_on,3,0,0,,,,,,,,,0,,,56,82
38837,note_on,37,0,0,,,,,,,,,0,,,56,0
38840,note_on,3,0,0,,,,,,,,,0,,,59,82
38877,note_on,37,0,0,,,,,,,,,0,,,59,0
38880,note_on,0,0,1,,,,,,,,,0,,,35,96
38880,note_on,162,0,1,,,,,,,,,0,,,30,96
38880,note_on,0,0,1,,,,,,,,,0,,,32,96
38880,note_on,0,0,1,,,,,,,,,0,,,42,96
38880,note_on,3,0,0,,,,,,,,,0,,,56,82
38881,control_change,1,0,1,,,,,,,64,0,0,,,,
38882,control_change,1,0,1,,,,,,,64,127,0,,,,
38917,note_on,37,0,0,,,,,,,,,0,,,56,0
38920,note_on,3,0,0,,,,,,,,,0,,,59,82
38957,note_on,37,0,0,,,,,,,,,0,,,59,0
38958,note_on,0,0,1,,,,,,,,,0,,,42,0
38958,note_on,76,0,1,,,,,,,,,0,,,30,0
38958,note_on,0,0,1,,,,,,,,,0,,,35,0
38958,note_on,0,0,1,,,,,,,,,0,,,32,0
38960,note_on,3,0,0,,,,,,,,,0,,,56,82
38997,note_on,37,0,0,,,,,,,,,0,,,56,0
39000,note_on,3,0,0,,,,,,,,,0,,,59,82
39037,note_on,37,0,0,,,,,,,,,0,,,59,0
39040,note_on,3,0,0,,,,,,,,,0,,,56,82
39077,note_on,37,0,0,,,,,,,,,0,,,56,0
39080,note_on,3,0,0,,,,,,,,,0,,,59,82
39117,note_on,37,0,0,,,,,,,,,0,,,59,0
39120,note_on,0,0,0,,,,,,,,,0,,,68,0
39120,note_on,0,0,0,,,,,,,,,0,,,80,96
39120,note_on,0,0,0,,,,,,,,,0,,,68,96
39120,note_on,0,0,1,,,,,,,,,0,,,32,96
39120,note_on,0,0,1,,,,,,,,,0,,,35,96
39120,note_on,0,0,0,,,,,,,,,0,,,68,82
39120,note_on,162,0,1,,,,,,,,,0,,,28,96
39120,set_tempo,3,1,0,,,,,,1499999,,,,,,,
39120,note_on,0,0,1,,,,,,,,,0,,,40,96
39121,control_change,1,0,1,,,,,,,64,0,0,,,,
39122,control_change,1,0,1,,,,,,,64,127,0,,,,
39168,note_on,48,0,0,,,,,,,,,0,,,71,82
39198,note_on,30,0,0,,,,,,,,,0,,,68,0
39198,note_on,76,0,1,,,,,,,,,0,,,28,0
39198,note_on,0,0,1,,,,,,,,,0,,,40,0
39198,note_on,0,0,1,,,,,,,,,0,,,35,0
39198,note_on,0,0,1,,,,,,,,,0,,,32,0
39198,note_on,0,0,0,,,,,,,,,0,,,80,0
39212,note_on,14,0,0,,,,,,,,,0,,,71,0
39216,note_on,4,0,0,,,,,,,,,0,,,76,82
39260,note_on,44,0,0,,,,,,,,,0,,,76,0
39264,note_on,4,0,0,,,,,,,,,0,,,71,82
39308,note_on,44,0,0,,,,,,,,,0,,,71,0
39312,note_on,4,0,0,,,,,,,,,0,,,76,82
39356,note_on,44,0,0,,,,,,,,,0,,,76,0
39360,note_on,0,0,0,,,,,,,,,0,,,78,96
39360,note_on,0,0,0,,,,,,,,,0,,,66,0
39360,note_on,0,0,0,,,,,,,,,0,,,66,82
39360,note_on,0,0,0,,,,,,,,,0,,,66,96
39360,set_tempo,4,1,0,,,,,,1200000,,,,,,,
39408,note_on,48,0,0,,,,,,,,,0,,,68,82
39438,note_on,30,0,0,,,,,,,,,0,,,66,0
39438,note_on,0,0,0,,,,,,,,,0,,,78,0
39452,note_on,14,0,0,,,,,,,,,0,,,68,0
39456,note_on,4,0,0,,,,,,,,,0,,,71,82
39500,note_on,44,0,0,,,,,,,,,0,,,71,0
39504,note_on,4,0,0,,,,,,,,,0,,,68,82
39548,note_on,44,0,0,,,,,,,,,0,,,68,0
39552,note_on,4,0,0,,,,,,,,,0,,,71,82
39596,note_on,44,0,0,,,,,,,,,0,,,71,0
39600,note_on,0,0,0,,,,,,,,,0,,,64,0
39600,note_on,0,0,0,,,,,,,,,0,,,64,96
39600,note_on,0,0,0,,,,,,,,,0,,,76,96
39600,note_on,4,0,0,,,,,,,,,0,,,64,82
39648,note_on,48,0,0,,,,,,,,,0,,,68,82
39678,note_on,0,0,0,,,,,,,,,0,,,76,0
39678,note_on,30,0,0,,,,,,,,,0,,,64,0
39692,note_on,14,0,0,,,,,,,,,0,,,68,0
39696,note_on,4,0,0,,,,,,,,,0,,,71,82
39740,note_on,44,0,0,,,,,,,,,0,,,71,0
39744,note_on,4,0,0,,,,,,,,,0,,,68,82
39788,note_on,44,0,0,,,,,,,,,0,,,68,0
39792,note_on,4,0,0,,,,,,,,,0,,,71,82
39836,note_on,44,0,0,,,,,,,,,0,,,71,0
39840,note_on,4,0,0,,,,,,,,,0,,,63,82
39840,note_on,0,0,0,,,,,,,,,0,,,63,0
39840,note_on,0,0,0,,,,,,,,,0,,,75,96
39840,note_on,0,0,0,,,,,,,,,0,,,63,96
39888,note_on,48,0,0,,,,,,,,,0,,,68,82
39918,note_on,30,0,0,,,,,,,,,0,,,63,0
39918,note_on,0,0,0,,,,,,,,,0,,,75,0
39932,note_on,14,0,0,,,,,,,,,0,,,68,0
39936,note_on,4,0,0,,,,,,,,,0,,,71,82
39980,note_on,44,0,0,,,,,,,,,0,,,71,0
39984,note_on,4,0,0,,,,,,,,,0,,,68,82
40028,note_on,44,0,0,,,,,,,,,0,,,68,0
40032,note_on,4,0,0,,,,,,,,,0,,,71,82
40076,note_on,44,0,0,,,,,,,,,0,,,71,0
40080,note_on,882,0,1,,,,,,,,,0,,,44,82
40080,note_on,4,0,0,,,,,,,,,0,,,64,82
40080,note_on,0,0,0,,,,,,,,,0,,,64,0
40080,note_on,0,0,1,,,,,,,,,0,,,44,0
40080,note_on,0,0,1,,,,,,,,,0,,,56,96
40080,note_on,0,0,0,,,,,,,,,0,,,76,96
40080,note_on,0,0,1,,,,,,,,,0,,,44,96
40080,note_on,0,0,0,,,,,,,,,0,,,64,96
40081,control_change,1,0,1,,,,,,,64,0,0,,,,
40082,control_change,1,0,1,,,,,,,64,127,0,,,,
40128,note_on,48,0,0,,,,,,,,,0,,,68,82
40128,note_on,46,0,1,,,,,,,,,0,,,47,82
40158,note_on,0,0,0,,,,,,,,,0,,,76,0
40158,note_on,30,0,1,,,,,,,,,0,,,44,0
40158,note_on,30,0,0,,,,,,,,,0,,,64,0
40158,note_on,0,0,1,,,,,,,,,0,,,56,0
40172,note_on,14,0,1,,,,,,,,,0,,,47,0
40172,note_on,14,0,0,,,,,,,,,0,,,68,0
40176,note_on,4,0,1,,,,,,,,,0,,,52,82
40176,note_on,4,0,0,,,,,,,,,0,,,71,82
40220,note_on,44,0,1,,,,,,,,,0,,,52,0
40220,note_on,44,0,0,,,,,,,,,0,,,71,0
40224,note_on,4,0,1,,,,,,,,,0,,,47,82
40224,note_on,4,0,0,,,,,,,,,0,,,68,82
40268,note_on,44,0,0,,,,,,,,,0,,,68,0
40268,note_on,44,0,1,,,,,,,,,0,,,47,0
40272,note_on,4,0,0,,,,,,,,,0,,,71,82
40272,note_on,4,0,1,,,,,,,,,0,,,52,82
40316,note_on,44,0,1,,,,,,,,,0,,,52,0
40316,note_on,44,0,0,,,,,,,,,0,,,71,0
40320,note_on,4,0,1,,,,,,,,,0,,,42,82
40320,note_on,0,0,0,,,,,,,,,0,,,69,0
40320,note_on,0,0,0,,,,,,,,,0,,,81,115
40320,note_on,0,0,1,,,,,,,,,0,,,42,0
40320,note_on,0,0,1,,,,,,,,,0,,,42,96
40320,note_on,0,0,1,,,,,,,,,0,,,54,96
40320,note_on,4,0,0,,,,,,,,,0,,,69,82
40320,note_on,0,0,0,,,,,,,,,0,,,69,115
40321,control_change,1,0,1,,,,,,,64,0,0,,,,
40322,control_change,1,0,1,,,,,,,64,127,0,,,,
40368,note_on,48,0,0,,,,,,,,,0,,,72,82
40368,note_on,46,0,1,,,,,,,,,0,,,45,82
40398,note_on,30,0,1,,,,,,,,,0,,,42,0
40398,note_on,0,0,1,,,,,,,,,0,,,54,0
40412,note_on,14,0,1,,,,,,,,,0,,,45,0
40412,note_on,44,0,0,,,,,,,,,0,,,72,0
40416,note_on,4,0,0,,,,,,,,,0,,,76,82
40416,note_on,4,0,1,,,,,,,,,0,,,48,82
40460,note_on,44,0,0,,,,,,,,,0,,,76,0
40460,note_on,44,0,1,,,,,,,,,0,,,48,0
40464,note_on,4,0,1,,,,,,,,,0,,,45,82
40464,note_on,4,0,0,,,,,,,,,0,,,72,82
40508,note_on,44,0,1,,,,,,,,,0,,,45,0
40508,note_on,44,0,0,,,,,,,,,0,,,72,0
40512,note_on,4,0,1,,,,,,,,,0,,,48,82
40512,note_on,4,0,0,,,,,,,,,0,,,76,82
40556,note_on,44,0,0,,,,,,,,,0,,,76,0
40556,note_on,44,0,1,,,,,,,,,0,,,48,0
40560,note_on,0,0,1,,,,,,,,,0,,,40,96
40560,note_on,0,0,1,,,,,,,,,0,,,52,96
40560,note_on,4,0,0,,,,,,,,,0,,,72,82
40560,note_on,4,0,1,,,,,,,,,0,,,40,82
40560,note_on,0,0,1,,,,,,,,,0,,,40,0
40597,note_on,37,0,0,,,,,,,,,0,,,72,0
40600,note_on,3,0,0,,,,,,,,,0,,,76,82
40608,note_on,48,0,1,,,,,,,,,0,,,45,82
40637,note_on,37,0,0,,,,,,,,,0,,,76,0
40638,note_on,30,0,1,,,,,,,,,0,,,40,0
40638,note_on,0,0,1,,,,,,,,,0,,,52,0
40640,note_on,0,0,0,,,,,,,,,0,,,72,82
40640,note_on,3,0,0,,,,,,,,,0,,,69,0
40640,note_on,0,0,0,,,,,,,,,0,,,81,0
40652,note_on,14,0,1,,,,,,,,,0,,,45,0
40656,note_on,4,0,1,,,,,,,,,0,,,48,82
40677,note_on,37,0,0,,,,,,,,,0,,,72,0
40680,note_on,3,0,0,,,,,,,,,0,,,76,82
40700,note_on,44,0,1,,,,,,,,,0,,,48,0
40704,note_on,4,0,1,,,,,,,,,0,,,45,82
40717,note_on,37,0,0,,,,,,,,,0,,,76,0
40720,note_on,3,0,0,,,,,,,,,0,,,72,82
40748,note_on,44,0,1,,,,,,,,,0,,,45,0
40752,note_on,4,0,1,,,,,,,,,0,,,48,82
40757,note_on,37,0,0,,,,,,,,,0,,,72,0
40760,note_on,3,0,0,,,,,,,,,0,,,76,82
40796,note_on,44,0,1,,,,,,,,,0,,,48,0
40797,note_on,37,0,0,,,,,,,,,0,,,76,0
40800,note_on,0,0,1,,,,,,,,,0,,,51,96
40800,note_on,0,0,1,,,,,,,,,0,,,39,96
40800,note_on,3,0,0,,,,,,,,,0,,,72,82
40800,note_on,4,0,1,,,,,,,,,0,,,39,82
40800,note_on,0,0,1,,,,,,,,,0,,,39,0
40837,note_on,37,0,0,,,,,,,,,0,,,72,0
40840,note_on,3,0,0,,,,,,,,,0,,,76,82
40848,note_on,48,0,1,,,,,,,,,0,,,45,82
40877,note_on,37,0,0,,,,,,,,,0,,,76,0
40878,note_on,0,0,1,,,,,,,,,0,,,51,0
40878,note_on,30,0,1,,,,,,,,,0,,,39,0
40880,note_on,3,0,0,,,,,,,,,0,,,72,82
40892,note_on,14,0,1,,,,,,,,,0,,,45,0
40896,note_on,4,0,1,,,,,,,,,0,,,48,82
40917,note_on,37,0,0,,,,,,,,,0,,,72,0
40920,note_on,3,0,0,,,,,,,,,0,,,76,82
40940,note_on,44,0,1,,,,,,,,,0,,,48,0
40944,note_on,4,0,1,,,,,,,,,0,,,45,82
40957,note_on,37,0,0,,,,,,,,,0,,,76,0
40960,note_on,3,0,0,,,,,,,,,0,,,72,82
40988,note_on,44,0,1,,,,,,,,,0,,,45,0
40992,note_on,4,0,1,,,,,,,,,0,,,48,82
40997,note_on,37,0,0,,,,,,,,,0,,,72,0
41000,note_on,3,0,0,,,,,,,,,0,,,76,82
41036,note_on,44,0,1,,,,,,,,,0,,,48,0
41037,note_on,37,0,0,,,,,,,,,0,,,76,0
41040,note_on,0,0,1,,,,,,,,,0,,,52,96
41040,note_on,0,0,1,,,,,,,,,0,,,40,0
41040,note_on,0,0,1,,,,,,,,,0,,,40,96
41040,note_on,4,0,1,,,,,,,,,0,,,40,82
41040,note_on,3,0,0,,,,,,,,,0,,,72,82
41041,control_change,1,0,1,,,,,,,64,0,0,,,,
41042,control_change,1,0,1,,,,,,,64,127,0,,,,
41077,note_on,37,0,0,,,,,,,,,0,,,72,0
41080,note_on,3,0,0,,,,,,,,,0,,,76,82
41088,note_on,46,0,1,,,,,,,,,0,,,45,82
41117,note_on,37,0,0,,,,,,,,,0,,,76,0
41118,note_on,30,0,1,,,,,,,,,0,,,40,0
41118,note_on,0,0,1,,,,,,,,,0,,,52,0
41120,note_on,3,0,0,,,,,,,,,0,,,72,82
41132,note_on,14,0,1,,,,,,,,,0,,,45,0
41136,note_on,4,0,1,,,,,,,,,0,,,48,82
41157,note_on,37,0,0,,,,,,,,,0,,,72,0
41160,note_on,3,0,0,,,,,,,,,0,,,76,82
41180,note_on,44,0,1,,,,,,,,,0,,,48,0
41184,note_on,4,0,1,,,,,,,,,0,,,45,82
41197,note_on,37,0,0,,,,,,,,,0,,,76,0
41200,note_on,3,0,0,,,,,,,,,0,,,72,82
41228,note_on,44,0,1,,,,,,,,,0,,,45,0
41232,note_on,4,0,1,,,,,,,,,0,,,48,82
41237,note_on,37,0,0,,,,,,,,,0,,,72,0
41240,note_on,3,0,0,,,,,,,,,0,,,76,82
41276,note_on,44,0,1,,,,,,,,,0,,,48,0
41277,note_on,37,0,0,,,,,,,,,0,,,76,0
41280,note_on,0,0,0,,,,,,,,,0,,,84,96
41280,note_on,4,0,1,,,,,,,,,0,,,45,82
41280,note_on,0,0,0,,,,,,,,,0,,,72,96
41280,note_on,0,0,1,,,,,,,,,0,,,45,0
41280,note_on,0,0,1,,,,,,,,,0,,,45,115
41280,note_on,0,0,1,,,,,,,,,0,,,57,115
41280,note_on,0,0,0,,,,,,,,,0,,,72,0
41280,note_on,3,0,0,,,,,,,,,0,,,72,82
41281,control_change,1,0,1,,,,,,,64,0,0,,,,
41282,control_change,1,0,1,,,,,,,64,127,0,,,,
41328,note_on,48,0,0,,,,,,,,,0,,,76,82
41328,note_on,46,0,1,,,,,,,,,0,,,48,82
41358,note_on,0,0,0,,,,,,,,,0,,,84,0
41358,note_on,30,0,0,,,,,,,,,0,,,72,0
41372,note_on,14,0,0,,,,,,,,,0,,,76,0
41372,note_on,44,0,1,,,,,,,,,0,,,48,0
41376,note_on,4,0,0,,,,,,,,,0,,,81,82
41376,note_on,4,0,1,,,,,,,,,0,,,52,82
41420,note_on,44,0,0,,,,,,,,,0,,,81,0
41420,note_on,44,0,1,,,,,,,,,0,,,52,0
41424,note_on,4,0,1,,,,,,,,,0,,,48,82
41424,note_on,4,0,0,,,,,,,,,0,,,76,82
41468,note_on,44,0,0,,,,,,,,,0,,,76,0
41468,note_on,44,0,1,,,,,,,,,0,,,48,0
41472,note_on,4,0,0,,,,,,,,,0,,,81,82
41472,note_on,4,0,1,,,,,,,,,0,,,52,82
41516,note_on,44,0,1,,,,,,,,,0,,,52,0
41516,note_on,44,0,0,,,,,,,,,0,,,81,0
41520,note_on,0,0,0,,,,,,,,,0,,,71,96
41520,note_on,0,0,0,,,,,,,,,0,,,71,0
41520,note_on,4,0,0,,,,,,,,,0,,,71,82
41520,note_on,4,0,1,,,,,,,,,0,,,48,82
41520,note_on,0,0,0,,,,,,,,,0,,,83,96
41557,note_on,37,0,1,,,,,,,,,0,,,48,0
41560,note_on,3,0,1,,,,,,,,,0,,,52,82
41568,note_on,48,0,0,,,,,,,,,0,,,72,82
41597,note_on,37,0,1,,,,,,,,,0,,,52,0
41598,note_on,0,0,0,,,,,,,,,0,,,83,0
41598,note_on,30,0,0,,,,,,,,,0,,,71,0
41600,note_on,0,0,1,,,,,,,,,0,,,57,0
41600,note_on,0,0,1,,,,,,,,,0,,,48,82
41600,note_on,3,0,1,,,,,,,,,0,,,45,0
41612,note_on,14,0,0,,,,,,,,,0,,,72,0
41616,note_on,4,0,0,,,,,,,,,0,,,76,82
41637,note_on,37,0,1,,,,,,,,,0,,,48,0
41640,note_on,3,0,1,,,,,,,,,0,,,52,82
41660,note_on,44,0,0,,,,,,,,,0,,,76,0
41664,note_on,4,0,0,,,,,,,,,0,,,72,82
41677,note_on,37,0,1,,,,,,,,,0,,,52,0
41680,note_on,3,0,1,,,,,,,,,0,,,48,82
41708,note_on,44,0,0,,,,,,,,,0,,,72,0
41712,note_on,4,0,0,,,,,,,,,0,,,76,82
41717,note_on,37,0,1,,,,,,,,,0,,,48,0
41720,note_on,3,0,1,,,,,,,,,0,,,52,82
41756,note_on,44,0,0,,,,,,,,,0,,,76,0
41757,note_on,37,0,1,,,,,,,,,0,,,52,0
41760,note_on,3,0,1,,,,,,,,,0,,,48,82
41760,note_on,0,0,0,,,,,,,,,0,,,81,96
41760,note_on,4,0,0,,,,,,,,,0,,,69,82
41760,note_on,0,0,0,,,,,,,,,0,,,69,0
41760,note_on,0,0,0,,,,,,,,,0,,,69,96
41797,note_on,37,0,1,,,,,,,,,0,,,48,0
41800,note_on,3,0,1,,,,,,,,,0,,,52,82
41808,note_on,48,0,0,,,,,,,,,0,,,72,82
41837,note_on,37,0,1,,,,,,,,,0,,,52,0
41838,note_on,30,0,0,,,,,,,,,0,,,69,0
41838,note_on,0,0,0,,,,,,,,,0,,,81,0
41840,note_on,3,0,1,,,,,,,,,0,,,48,82
41852,note_on,14,0,0,,,,,,,,,0,,,72,0
41856,note_on,4,0,0,,,,,,,,,0,,,76,82
41877,note_on,37,0,1,,,,,,,,,0,,,48,0
41880,note_on,3,0,1,,,,,,,,,0,,,52,82
41900,note_on,44,0,0,,,,,,,,,0,,,76,0
41904,note_on,4,0,0,,,,,,,,,0,,,72,82
41917,note_on,37,0,1,,,,,,,,,0,,,52,0
41920,note_on,3,0,1,,,,,,,,,0,,,48,82
41948,note_on,44,0,0,,,,,,,,,0,,,72,0
41952,note_on,4,0,0,,,,,,,,,0,,,76,82
41957,note_on,37,0,1,,,,,,,,,0,,,48,0
41960,note_on,3,0,1,,,,,,,,,0,,,52,82
41996,note_on,44,0,0,,,,,,,,,0,,,76,0
41997,note_on,37,0,1,,,,,,,,,0,,,52,0
42000,note_on,0,0,0,,,,,,,,,0,,,68,0
42000,note_on,0,0,0,,,,,,,,,0,,,68,96
42000,note_on,0,0,0,,,,,,,,,0,,,80,96
42000,note_on,3,0,1,,,,,,,,,0,,,48,82
42000,note_on,4,0,0,,,,,,,,,0,,,68,82
42037,note_on,37,0,1,,,,,,,,,0,,,48,0
42040,note_on,3,0,1,,,,,,,,,0,,,52,82
42048,note_on,48,0,0,,,,,,,,,0,,,72,82
42077,note_on,37,0,1,,,,,,,,,0,,,52,0
42078,note_on,0,0,0,,,,,,,,,0,,,80,0
42078,note_on,30,0,0,,,,,,,,,0,,,68,0
42080,note_on,3,0,1,,,,,,,,,0,,,48,82
42092,note_on,14,0,0,,,,,,,,,0,,,72,0
42096,note_on,4,0,0,,,,,,,,,0,,,76,82
42117,note_on,37,0,1,,,,,,,,,0,,,48,0
42120,note_on,3,0,1,,,,,,,,,0,,,52,82
42140,note_on,44,0,0,,,,,,,,,0,,,76,0
42144,note_on,4,0,0,,,,,,,,,0,,,72,82
42157,note_on,37,0,1,,,,,,,,,0,,,52,0
42160,note_on,3,0,1,,,,,,,,,0,,,48,82
42188,note_on,44,0,0,,,,,,,,,0,,,72,0
42192,note_on,4,0,0,,,,,,,,,0,,,76,82
42197,note_on,37,0,1,,,,,,,,,0,,,48,0
42200,note_on,3,0,1,,,,,,,,,0,,,52,82
42236,note_on,44,0,0,,,,,,,,,0,,,76,0
42237,note_on,37,0,1,,,,,,,,,0,,,52,0
42240,note_on,0,0,1,,,,,,,,,0,,,48,0
42240,note_on,0,0,1,,,,,,,,,0,,,48,115
42240,note_on,0,0,1,,,,,,,,,0,,,60,115
42240,note_on,3,0,1,,,,,,,,,0,,,48,82
42240,note_on,0,0,0,,,,,,,,,0,,,66,0
42240,note_on,0,0,0,,,,,,,,,0,,,66,96
42240,note_on,0,0,0,,,,,,,,,0,,,78,96
42240,note_on,4,0,0,,,,,,,,,0,,,66,82
42241,control_change,1,0,1,,,,,,,64,0,0,,,,
42242,control_change,1,0,1,,,,,,,64,127,0,,,,
42288,note_on,48,0,0,,,,,,,,,0,,,69,82
42288,note_on,0,0,1,,,,,,,,,0,,,54,82
42288,note_on,0,0,0,,,,,,,,,0,,,72,82
42288,note_on,46,0,1,,,,,,,,,0,,,51,82
42318,note_on,30,0,0,,,,,,,,,0,,,66,0
42318,note_on,30,0,1,,,,,,,,,0,,,48,0
42318,note_on,0,0,0,,,,,,,,,0,,,78,0
42318,note_on,0,0,1,,,,,,,,,0,,,60,0
42332,note_on,14,0,0,,,,,,,,,0,,,69,0
42332,note_on,14,0,1,,,,,,,,,0,,,51,0
42332,note_on,0,0,0,,,,,,,,,0,,,72,0
42332,note_on,0,0,1,,,,,,,,,0,,,54,0
42336,note_on,4,0,0,,,,,,,,,0,,,75,82
42336,note_on,4,0,1,,,,,,,,,0,,,57,82
42380,note_on,44,0,0,,,,,,,,,0,,,75,0
42380,note_on,44,0,1,,,,,,,,,0,,,57,0
42384,note_on,0,0,1,,,,,,,,,0,,,54,82
42384,note_on,4,0,0,,,,,,,,,0,,,69,82
42384,note_on,0,0,0,,,,,,,,,0,,,72,82
42384,note_on,4,0,1,,,,,,,,,0,,,51,82
42428,note_on,44,0,1,,,,,,,,,0,,,51,0
42428,note_on,0,0,1,,,,,,,,,0,,,54,0
42428,note_on,0,0,0,,,,,,,,,0,,,72,0
42428,note_on,44,0,0,,,,,,,,,0,,,69,0
42432,note_on,4,0,1,,,,,,,,,0,,,57,82
42432,note_on,4,0,0,,,,,,,,,0,,,75,82
42476,note_on,44,0,0,,,,,,,,,0,,,75,0
42476,note_on,44,0,1,,,,,,,,,0,,,57,0
42480,note_on,0,0,0,,,,,,,,,0,,,65,82
42480,note_on,4,0,1,,,,,,,,,0,,,47,82
42480,set_tempo,4,1,0,,,,,,1499999,,,,,,,
42480,note_on,0,0,0,,,,,,,,,0,,,77,96
42480,note_on,0,0,1,,,,,,,,,0,,,47,0
42480,note_on,0,0,1,,,,,,,,,0,,,47,96
42480,note_on,0,0,1,,,,,,,,,0,,,59,96
42480,note_on,0,0,0,,,,,,,,,0,,,65,96
42480,note_on,0,0,0,,,,,,,,,0,,,65,0
42481,control_change,1,0,1,,,,,,,64,0,0,,,,
42482,control_change,1,0,1,,,,,,,64,127,0,,,,
42528,note_on,46,0,1,,,,,,,,,0,,,50,82
42528,note_on,0,0,1,,,,,,,,,0,,,53,82
42528,note_on,0,0,0,,,,,,,,,0,,,71,82
42528,note_on,48,0,0,,,,,,,,,0,,,68,82
42558,note_on,30,0,1,,,,,,,,,0,,,47,0
42558,note_on,0,0,1,,,,,,,,,0,,,59,0
42572,note_on,14,0,1,,,,,,,,,0,,,50,0
42572,note_on,0,0,0,,,,,,,,,0,,,71,0
42572,note_on,44,0,0,,,,,,,,,0,,,68,0
42572,note_on,0,0,1,,,,,,,,,0,,,53,0
42576,note_on,4,0,1,,,,,,,,,0,,,56,82
42576,note_on,4,0,0,,,,,,,,,0,,,74,82
42620,note_on,44,0,0,,,,,,,,,0,,,74,0
42620,note_on,44,0,1,,,,,,,,,0,,,56,0
42624,note_on,0,0,0,,,,,,,,,0,,,71,82
42624,note_on,4,0,1,,,,,,,,,0,,,50,82
42624,note_on,0,0,1,,,,,,,,,0,,,53,82
42624,note_on,4,0,0,,,,,,,,,0,,,68,82
42668,note_on,0,0,0,,,,,,,,,0,,,71,0
42668,note_on,44,0,0,,,,,,,,,0,,,68,0
42668,note_on,44,0,1,,,,,,,,,0,,,50,0
42668,note_on,0,0,1,,,,,,,,,0,,,53,0
42672,note_on,4,0,1,,,,,,,,,0,,,56,82
42672,note_on,4,0,0,,,,,,,,,0,,,74,82
42716,note_on,44,0,1,,,,,,,,,0,,,56,0
42716,note_on,44,0,0,,,,,,,,,0,,,74,0
42720,note_on,0,0,0,,,,,,,,,0,,,71,82
42720,note_on,0,0,1,,,,,,,,,0,,,45,96
42720,note_on,0,0,1,,,,,,,,,0,,,45,0
42720,note_on,4,0,1,,,,,,,,,0,,,45,82
42720,note_on,0,0,1,,,,,,,,,0,,,57,96
42720,set_tempo,4,1,0,,,,,,1333333,,,,,,,
42720,note_on,0,0,0,,,,,,,,,0,,,68,82
42757,note_on,37,0,0,,,,,,,,,0,,,68,0
42757,note_on,0,0,0,,,,,,,,,0,,,71,0
42760,note_on,3,0,0,,,,,,,,,0,,,74,82
42768,note_on,48,0,1,,,,,,,,,0,,,50,82
42797,note_on,37,0,0,,,,,,,,,0,,,74,0
42798,note_on,30,0,1,,,,,,,,,0,,,45,0
42798,note_on,0,0,1,,,,,,,,,0,,,57,0
42800,note_on,0,0,0,,,,,,,,,0,,,71,82
42800,note_on,3,0,0,,,,,,,,,0,,,68,82
42812,note_on,14,0,1,,,,,,,,,0,,,50,0
42816,note_on,4,0,1,,,,,,,,,0,,,53,82
42837,note_on,0,0,0,,,,,,,,,0,,,71,0
42837,note_on,37,0,0,,,,,,,,,0,,,68,0
42840,note_on,3,0,0,,,,,,,,,0,,,74,82
42860,note_on,44,0,1,,,,,,,,,0,,,53,0
42864,note_on,4,0,1,,,,,,,,,0,,,50,82
42877,note_on,37,0,0,,,,,,,,,0,,,74,0
42880,note_on,0,0,0,,,,,,,,,0,,,71,82
42880,note_on,3,0,0,,,,,,,,,0,,,68,82
42908,note_on,44,0,1,,,,,,,,,0,,,50,0
42912,note_on,4,0,1,,,,,,,,,0,,,53,82
42917,note_on,37,0,0,,,,,,,,,0,,,68,0
42917,note_on,0,0,0,,,,,,,,,0,,,71,0
42920,note_on,3,0,0,,,,,,,,,0,,,74,82
42935,note_on,0,0,0,,,,,,,,,0,,,77,0
42935,note_on,15,0,0,,,,,,,,,0,,,65,0
42956,note_on,44,0,1,,,,,,,,,0,,,53,0
42957,note_on,22,0,0,,,,,,,,,0,,,74,0
42960,note_on,0,0,0,,,,,,,,,0,,,71,82
42960,note_on,4,0,1,,,,,,,,,0,,,44,82
42960,note_on,0,0,1,,,,,,,,,0,,,44,0
42960,set_tempo,3,1,0,,,,,,1200000,,,,,,,
42960,note_on,0,0,1,,,,,,,,,0,,,56,96
42960,note_on,0,0,1,,,,,,,,,0,,,44,96
42960,note_on,0,0,0,,,,,,,,,0,,,68,82
42997,note_on,0,0,0,,,,,,,,,0,,,71,0
42997,note_on,37,0,0,,,,,,,,,0,,,68,0
43000,note_on,3,0,0,,,,,,,,,0,,,74,82
43008,note_on,0,0,1,,,,,,,,,0,,,50,82
43008,note_on,48,0,1,,,,,,,,,0,,,47,82
43037,note_on,37,0,0,,,,,,,,,0,,,74,0
43038,note_on,0,0,1,,,,,,,,,0,,,56,0
43038,note_on,30,0,1,,,,,,,,,0,,,44,0
43040,note_on,3,0,0,,,,,,,,,0,,,68,82
43040,note_on,0,0,0,,,,,,,,,0,,,71,82
43052,note_on,0,0,1,,,,,,,,,0,,,50,0
43052,note_on,14,0,1,,,,,,,,,0,,,47,0
43056,note_on,4,0,1,,,,,,,,,0,,,53,82
43077,note_on,37,0,0,,,,,,,,,0,,,68,0
43077,note_on,0,0,0,,,,,,,,,0,,,71,0
43080,note_on,3,0,0,,,,,,,,,0,,,74,82
43100,note_on,44,0,1,,,,,,,,,0,,,53,0
43104,note_on,4,0,1,,,,,,,,,0,,,47,82
43104,note_on,0,0,1,,,,,,,,,0,,,50,82
43117,note_on,37,0,0,,,,,,,,,0,,,74,0
43120,note_on,3,0,0,,,,,,,,,0,,,68,82
43120,note_on,0,0,0,,,,,,,,,0,,,71,82
43148,note_on,0,0,1,,,,,,,,,0,,,50,0
43148,note_on,44,0,1,,,,,,,,,0,,,47,0
43152,note_on,4,0,1,,,,,,,,,0,,,53,82
43157,note_on,0,0,0,,,,,,,,,0,,,71,0
43157,note_on,37,0,0,,,,,,,,,0,,,68,0
43160,note_on,3,0,0,,,,,,,,,0,,,74,82
43196,note_on,44,0,1,,,,,,,,,0,,,53,0
43197,note_on,37,0,0,,,,,,,,,0,,,74,0
43200,note_on,0,0,0,,,,,,,,,0,,,71,82
43200,note_on,3,0,0,,,,,,,,,0,,,68,82
43200,note_on,0,0,1,,,,,,,,,0,,,54,96
43200,note_on,0,0,1,,,,,,,,,0,,,42,96
43200,note_on,0,0,1,,,,,,,,,0,,,42,0
43200,note_on,4,0,1,,,,,,,,,0,,,42,82
43201,control_change,1,0,1,,,,,,,64,0,0,,,,
43202,control_change,1,0,1,,,,,,,64,127,0,,,,
43237,note_on,37,0,0,,,,,,,,,0,,,68,0
43237,note_on,0,0,0,,,,,,,,,0,,,71,0
43240,note_on,3,0,0,,,,,,,,,0,,,74,82
43248,note_on,46,0,1,,,,,,,,,0,,,44,82
43248,note_on,0,0,1,,,,,,,,,0,,,47,82
43277,note_on,37,0,0,,,,,,,,,0,,,74,0
43278,note_on,0,0,1,,,,,,,,,0,,,54,0
43278,note_on,30,0,1,,,,,,,,,0,,,42,0
43280,note_on,3,0,0,,,,,,,,,0,,,68,82
43280,note_on,0,0,0,,,,,,,,,0,,,71,82
43292,note_on,0,0,1,,,,,,,,,0,,,47,0
43292,note_on,14,0,1,,,,,,,,,0,,,44,0
43296,note_on,4,0,1,,,,,,,,,0,,,50,82
43317,note_on,37,0,0,,,,,,,,,0,,,68,0
43317,note_on,0,0,0,,,,,,,,,0,,,71,0
43320,note_on,3,0,0,,,,,,,,,0,,,74,82
43340,note_on,44,0,1,,,,,,,,,0,,,50,0
43344,note_on,0,0,1,,,,,,,,,0,,,47,82
43344,note_on,4,0,1,,,,,,,,,0,,,44,82
43357,note_on,37,0,0,,,,,,,,,0,,,74,0
43360,note_on,0,0,0,,,,,,,,,0,,,71,82
43360,note_on,3,0,0,,,,,,,,,0,,,68,82
43388,note_on,44,0,1,,,,,,,,,0,,,44,0
43388,note_on,0,0,1,,,,,,,,,0,,,47,0
43392,note_on,4,0,1,,,,,,,,,0,,,50,82
43397,note_on,37,0,0,,,,,,,,,0,,,68,0
43397,note_on,0,0,0,,,,,,,,,0,,,71,0
43400,note_on,3,0,0,,,,,,,,,0,,,74,82
43436,note_on,44,0,1,,,,,,,,,0,,,50,0
43437,note_on,37,0,0,,,,,,,,,0,,,74,0
43440,note_on,0,0,1,,,,,,,,,0,,,53,96
43440,note_on,0,0,1,,,,,,,,,0,,,41,96
43440,note_on,4,0,1,,,,,,,,,0,,,41,82
43440,note_on,0,0,0,,,,,,,,,0,,,74,0
43440,note_on,0,0,0,,,,,,,,,0,,,86,96
43440,note_on,3,0,0,,,,,,,,,0,,,74,82
43440,note_on,0,0,0,,,,,,,,,0,,,74,96
43440,note_on,0,0,1,,,,,,,,,0,,,41,0
43441,control_change,1,0,1,,,,,,,64,0,0,,,,
43442,control_change,1,0,1,,,,,,,64,127,0,,,,
43488,note_on,48,0,0,,,,,,,,,0,,,77,82
43488,note_on,46,0,1,,,,,,,,,0,,,44,82
43488,note_on,0,0,1,,,,,,,,,0,,,47,82
43518,note_on,30,0,0,,,,,,,,,0,,,74,0
43518,note_on,0,0,0,,,,,,,,,0,,,86,0
43532,note_on,0,0,1,,,,,,,,,0,,,47,0
43532,note_on,44,0,1,,,,,,,,,0,,,44,0
43532,note_on,14,0,0,,,,,,,,,0,,,77,0
43536,note_on,4,0,1,,,,,,,,,0,,,50,82
43536,note_on,4,0,0,,,,,,,,,0,,,80,82
43580,note_on,44,0,0,,,,,,,,,0,,,80,0
43580,note_on,44,0,1,,,,,,,,,0,,,50,0
43584,note_on,4,0,0,,,,,,,,,0,,,77,82
43584,note_on,0,0,1,,,,,,,,,0,,,47,82
43584,note_on,4,0,1,,,,,,,,,0,,,44,82
43628,note_on,44,0,1,,,,,,,,,0,,,44,0
43628,note_on,44,0,0,,,,,,,,,0,,,77,0
43628,note_on,0,0,1,,,,,,,,,0,,,47,0
43632,note_on,4,0,1,,,,,,,,,0,,,50,82
43632,note_on,4,0,0,,,,,,,,,0,,,80,82
43676,note_on,44,0,0,,,,,,,,,0,,,80,0
43676,note_on,44,0,1,,,,,,,,,0,,,50,0
43680,note_on,0,0,0,,,,,,,,,0,,,85,96
43680,note_on,0,0,1,,,,,,,,,0,,,47,82
43680,note_on,0,0,0,,,,,,,,,0,,,73,0
43680,note_on,0,0,0,,,,,,,,,0,,,73,82
43680,note_on,0,0,0,,,,,,,,,0,,,73,96
43680,note_on,4,0,1,,,,,,,,,0,,,44,82
43680,set_tempo,4,1,0,,,,,,1153846,,,,,,,
43717,note_on,0,0,1,,,,,,,,,0,,,47,0
43717,note_on,37,0,1,,,,,,,,,0,,,44,0
43720,note_on,3,0,1,,,,,,,,,0,,,50,82
43728,note_on,48,0,0,,,,,,,,,0,,,77,82
43757,note_on,37,0,1,,,,,,,,,0,,,50,0
43758,note_on,0,0,0,,,,,,,,,0,,,85,0
43758,note_on,30,0,0,,,,,,,,,0,,,73,0
43760,note_on,0,0,1,,,,,,,,,0,,,47,82
43760,note_on,3,0,1,,,,,,,,,0,,,44,82
43772,note_on,14,0,0,,,,,,,,,0,,,77,0
43776,note_on,4,0,0,,,,,,,,,0,,,80,82
43797,note_on,37,0,1,,,,,,,,,0,,,44,0
43797,note_on,0,0,1,,,,,,,,,0,,,47,0
43800,note_on,3,0,1,,,,,,,,,0,,,50,82
43820,note_on,44,0,0,,,,,,,,,0,,,80,0
43824,note_on,4,0,0,,,,,,,,,0,,,77,82
43837,note_on,37,0,1,,,,,,,,,0,,,50,0
43840,note_on,3,0,1,,,,,,,,,0,,,44,82
43840,note_on,0,0,1,,,,,,,,,0,,,47,82
43868,note_on,44,0,0,,,,,,,,,0,,,77,0
43872,note_on,4,0,0,,,,,,,,,0,,,80,82
43877,note_on,37,0,1,,,,,,,,,0,,,44,0
43877,note_on,0,0,1,,,,,,,,,0,,,47,0
43880,note_on,3,0,1,,,,,,,,,0,,,50,82
43895,note_on,15,0,1,,,,,,,,,0,,,41,0
43895,note_on,0,0,1,,,,,,,,,0,,,53,0
43916,note_on,44,0,0,,,,,,,,,0,,,80,0
43917,note_on,22,0,1,,,,,,,,,0,,,50,0
43920,set_tempo,4,1,0,,,,,,1111111,,,,,,,
43920,note_on,3,0,1,,,,,,,,,0,,,44,82
43920,note_on,0,0,1,,,,,,,,,0,,,47,82
43920,note_on,0,0,0,,,,,,,,,0,,,71,82
43920,note_on,0,0,0,,,,,,,,,0,,,71,96
43920,note_on,0,0,0,,,,,,,,,0,,,83,96
43920,note_on,0,0,0,,,,,,,,,0,,,71,0
43957,note_on,0,0,1,,,,,,,,,0,,,47,0
43957,note_on,37,0,1,,,,,,,,,0,,,44,0
43960,note_on,3,0,1,,,,,,,,,0,,,50,82
43968,note_on,48,0,0,,,,,,,,,0,,,74,82
43997,note_on,37,0,1,,,,,,,,,0,,,50,0
43998,note_on,30,0,0,,,,,,,,,0,,,71,0
43998,note_on,0,0,0,,,,,,,,,0,,,83,0
44000,note_on,3,0,1,,,,,,,,,0,,,44,82
44000,note_on,0,0,1,,,,,,,,,0,,,47,82
44012,note_on,14,0,0,,,,,,,,,0,,,74,0
44016,note_on,4,0,0,,,,,,,,,0,,,77,82
44037,note_on,0,0,1,,,,,,,,,0,,,47,0
44037,note_on,37,0,1,,,,,,,,,0,,,44,0
44040,note_on,3,0,1,,,,,,,,,0,,,50,82
44060,note_on,44,0,0,,,,,,,,,0,,,77,0
44064,note_on,4,0,0,,,,,,,,,0,,,74,82
44077,note_on,37,0,1,,,,,,,,,0,,,50,0
44080,note_on,0,0,1,,,,,,,,,0,,,47,82
44080,note_on,3,0,1,,,,,,,,,0,,,44,82
44108,note_on,44,0,0,,,,,,,,,0,,,74,0
44112,note_on,4,0,0,,,,,,,,,0,,,77,82
44117,note_on,37,0,1,,,,,,,,,0,,,44,0
44117,note_on,0,0,1,,,,,,,,,0,,,47,0
44120,note_on,3,0,1,,,,,,,,,0,,,50,82
44156,note_on,44,0,0,,,,,,,,,0,,,77,0
44157,note_on,37,0,1,,,,,,,,,0,,,50,0
44160,note_on,0,0,0,,,,,,,,,0,,,81,96
44160,set_tempo,4,1,0,,,,,,1071429,,,,,,,
44160,note_on,3,0,1,,,,,,,,,0,,,44,82
44160,note_on,0,0,0,,,,,,,,,0,,,69,96
44160,note_on,0,0,0,,,,,,,,,0,,,69,82
44160,note_on,0,0,1,,,,,,,,,0,,,47,82
44160,note_on,0,0,0,,,,,,,,,0,,,69,0
44197,note_on,37,0,1,,,,,,,,,0,,,44,0
44197,note_on,0,0,1,,,,,,,,,0,,,47,0
44200,note_on,3,0,1,,,,,,,,,0,,,50,82
44208,note_on,48,0,0,,,,,,,,,0,,,74,82
44237,note_on,37,0,1,,,,,,,,,0,,,50,0
44238,note_on,30,0,0,,,,,,,,,0,,,69,0
44238,note_on,0,0,0,,,,,,,,,0,,,81,0
44240,note_on,3,0,1,,,,,,,,,0,,,44,82
44240,note_on,0,0,1,,,,,,,,,0,,,47,82
44252,note_on,14,0,0,,,,,,,,,0,,,74,0
44256,note_on,4,0,0,,,,,,,,,0,,,77,82
44277,note_on,0,0,1,,,,,,,,,0,,,47,0
44277,note_on,37,0,1,,,,,,,,,0,,,44,0
44280,note_on,3,0,1,,,,,,,,,0,,,50,82
44300,note_on,44,0,0,,,,,,,,,0,,,77,0
44304,note_on,4,0,0,,,,,,,,,0,,,74,82
44317,note_on,37,0,1,,,,,,,,,0,,,50,0
44320,note_on,0,0,1,,,,,,,,,0,,,47,82
44320,note_on,3,0,1,,,,,,,,,0,,,44,82
44348,note_on,44,0,0,,,,,,,,,0,,,74,0
44352,note_on,4,0,0,,,,,,,,,0,,,77,82
44357,note_on,37,0,1,,,,,,,,,0,,,44,0
44357,note_on,0,0,1,,,,,,,,,0,,,47,0
44360,note_on,3,0,1,,,,,,,,,0,,,50,82
44396,note_on,44,0,0,,,,,,,,,0,,,77,0
44397,note_on,37,0,1,,,,,,,,,0,,,50,0
44400,note_on,0,0,0,,,,,,,,,0,,,80,96
44400,note_on,0,0,0,,,,,,,,,0,,,68,96
44400,note_on,0,0,0,,,,,,,,,0,,,68,82
44400,note_on,0,0,0,,,,,,,,,0,,,68,0
44400,note_on,0,0,1,,,,,,,,,0,,,50,0
44400,note_on,0,0,1,,,,,,,,,0,,,62,96
44400,note_on,3,0,1,,,,,,,,,0,,,50,82
44400,note_on,0,0,1,,,,,,,,,0,,,50,96
44400,set_tempo,4,1,0,,,,,,1034483,,,,,,,
44401,control_change,1,0,1,,,,,,,64,0,0,,,,
44402,control_change,1,0,1,,,,,,,64,127,0,,,,
44448,note_on,46,0,1,,,,,,,,,0,,,52,82
44448,note_on,0,0,0,,,,,,,,,0,,,74,82
44448,note_on,0,0,1,,,,,,,,,0,,,56,82
44448,note_on,48,0,0,,,,,,,,,0,,,71,82
44478,note_on,30,0,0,,,,,,,,,0,,,68,0
44478,note_on,0,0,1,,,,,,,,,0,,,62,0
44478,note_on,0,0,0,,,,,,,,,0,,,80,0
44478,note_on,30,0,1,,,,,,,,,0,,,50,0
44492,note_on,0,0,0,,,,,,,,,0,,,74,0
44492,note_on,0,0,1,,,,,,,,,0,,,56,0
44492,note_on,14,0,1,,,,,,,,,0,,,52,0
44492,note_on,14,0,0,,,,,,,,,0,,,71,0
44496,note_on,4,0,1,,,,,,,,,0,,,59,82
44496,note_on,4,0,0,,,,,,,,,0,,,77,82
44540,note_on,44,0,1,,,,,,,,,0,,,59,0
44540,note_on,44,0,0,,,,,,,,,0,,,77,0
44544,note_on,4,0,0,,,,,,,,,0,,,71,82
44544,note_on,0,0,0,,,,,,,,,0,,,74,82
44544,note_on,0,0,1,,,,,,,,,0,,,56,82
44544,note_on,4,0,1,,,,,,,,,0,,,52,82
44588,note_on,0,0,0,,,,,,,,,0,,,74,0
44588,note_on,44,0,0,,,,,,,,,0,,,71,0
44588,note_on,0,0,1,,,,,,,,,0,,,56,0
44588,note_on,44,0,1,,,,,,,,,0,,,52,0
44592,note_on,4,0,0,,,,,,,,,0,,,77,82
44592,note_on,4,0,1,,,,,,,,,0,,,59,82
44636,note_on,44,0,0,,,,,,,,,0,,,77,0
44636,note_on,44,0,1,,,,,,,,,0,,,59,0
44640,note_on,0,0,1,,,,,,,,,0,,,49,0
44640,note_on,0,0,0,,,,,,,,,0,,,79,96
44640,note_on,0,0,0,,,,,,,,,0,,,67,96
44640,note_on,0,0,0,,,,,,,,,0,,,67,82
44640,note_on,0,0,0,,,,,,,,,0,,,67,0
44640,note_on,0,0,1,,,,,,,,,0,,,49,96
44640,set_tempo,4,1,0,,,,,,1000000,,,,,,,
44640,note_on,4,0,1,,,,,,,,,0,,,49,82
44640,note_on,0,0,1,,,,,,,,,0,,,61,96
44641,control_change,1,0,1,,,,,,,64,0,0,,,,
44642,control_change,1,0,1,,,,,,,64,127,0,,,,
44688,note_on,0,0,0,,,,,,,,,0,,,73,82
44688,note_on,48,0,0,,,,,,,,,0,,,70,82
44688,note_on,0,0,1,,,,,,,,,0,,,55,82
44688,note_on,46,0,1,,,,,,,,,0,,,52,82
44718,note_on,30,0,1,,,,,,,,,0,,,49,0
44718,note_on,0,0,1,,,,,,,,,0,,,61,0
44732,note_on,0,0,1,,,,,,,,,0,,,55,0
44732,note_on,0,0,0,,,,,,,,,0,,,73,0
44732,note_on,44,0,0,,,,,,,,,0,,,70,0
44732,note_on,14,0,1,,,,,,,,,0,,,52,0
44736,note_on,4,0,0,,,,,,,,,0,,,76,82
44736,note_on,4,0,1,,,,,,,,,0,,,58,82
44780,note_on,44,0,1,,,,,,,,,0,,,58,0
44780,note_on,44,0,0,,,,,,,,,0,,,76,0
44784,note_on,0,0,1,,,,,,,,,0,,,55,82
44784,note_on,4,0,0,,,,,,,,,0,,,70,82
44784,note_on,4,0,1,,,,,,,,,0,,,52,82
44784,note_on,0,0,0,,,,,,,,,0,,,73,82
44828,note_on,44,0,0,,,,,,,,,0,,,70,0
44828,note_on,0,0,1,,,,,,,,,0,,,55,0
44828,note_on,44,0,1,,,,,,,,,0,,,52,0
44828,note_on,0,0,0,,,,,,,,,0,,,73,0
44832,note_on,4,0,1,,,,,,,,,0,,,58,82
44832,note_on,4,0,0,,,,,,,,,0,,,76,82
44876,note_on,44,0,1,,,,,,,,,0,,,58,0
44876,note_on,44,0,0,,,,,,,,,0,,,76,0
44880,set_tempo,4,1,0,,,,,,1333333,,,,,,,
44880,note_on,0,0,1,,,,,,,,,0,,,59,96
44880,note_on,0,0,0,,,,,,,,,0,,,73,82
44880,note_on,0,0,0,,,,,,,,,0,,,70,82
44880,note_on,0,0,1,,,,,,,,,0,,,47,96
44880,note_on,0,0,1,,,,,,,,,0,,,47,0
44880,note_on,4,0,1,,,,,,,,,0,,,47,82
44917,note_on,0,0,0,,,,,,,,,0,,,73,0
44917,note_on,37,0,0,,,,,,,,,0,,,70,0
44920,note_on,3,0,0,,,,,,,,,0,,,76,82
44928,note_on,48,0,1,,,,,,,,,0,,,52,82
44957,note_on,37,0,0,,,,,,,,,0,,,76,0
44958,note_on,30,0,1,,,,,,,,,0,,,47,0
44958,note_on,0,0,1,,,,,,,,,0,,,59,0
44960,note_on,0,0,0,,,,,,,,,0,,,73,82
44960,note_on,3,0,0,,,,,,,,,0,,,70,82
44972,note_on,14,0,1,,,,,,,,,0,,,52,0
44976,note_on,4,0,1,,,,,,,,,0,,,55,82
44997,note_on,0,0,0,,,,,,,,,0,,,73,0
44997,note_on,37,0,0,,,,,,,,,0,,,70,0
45000,note_on,3,0,0,,,,,,,,,0,,,76,82
45020,note_on,44,0,1,,,,,,,,,0,,,55,0
45024,note_on,4,0,1,,,,,,,,,0,,,52,82
45037,note_on,37,0,0,,,,,,,,,0,,,76,0
45040,note_on,0,0,0,,,,,,,,,0,,,73,82
45040,note_on,3,0,0,,,,,,,,,0,,,70,82
45068,note_on,44,0,1,,,,,,,,,0,,,52,0
45072,note_on,4,0,1,,,,,,,,,0,,,55,82
45077,note_on,0,0,0,,,,,,,,,0,,,73,0
45077,note_on,37,0,0,,,,,,,,,0,,,70,0
45080,note_on,3,0,0,,,,,,,,,0,,,76,82
45095,note_on,15,0,0,,,,,,,,,0,,,67,0
45095,note_on,0,0,0,,,,,,,,,0,,,79,0
45116,note_on,44,0,1,,,,,,,,,0,,,55,0
45117,note_on,22,0,0,,,,,,,,,0,,,76,0
45120,note_on,0,0,1,,,,,,,,,0,,,46,96
45120,note_on,0,0,0,,,,,,,,,0,,,73,82
45120,note_on,0,0,1,,,,,,,,,0,,,58,96
45120,note_on,0,0,1,,,,,,,,,0,,,46,0
45120,note_on,4,0,1,,,,,,,,,0,,,46,82
45120,note_on,0,0,0,,,,,,,,,0,,,70,82
45120,set_tempo,3,1,0,,,,,,1200000,,,,,,,
45157,note_on,0,0,0,,,,,,,,,0,,,73,0
45157,note_on,37,0,0,,,,,,,,,0,,,70,0
45160,note_on,3,0,0,,,,,,,,,0,,,76,82
45168,note_on,48,0,1,,,,,,,,,0,,,52,82
45197,note_on,37,0,0,,,,,,,,,0,,,76,0
45198,note_on,0,0,1,,,,,,,,,0,,,58,0
45198,note_on,30,0,1,,,,,,,,,0,,,46,0
45200,note_on,0,0,0,,,,,,,,,0,,,73,82
45200,note_on,3,0,0,,,,,,,,,0,,,70,82
45212,note_on,14,0,1,,,,,,,,,0,,,52,0
45216,note_on,4,0,1,,,,,,,,,0,,,55,82
45237,note_on,0,0,0,,,,,,,,,0,,,73,0
45237,note_on,37,0,0,,,,,,,,,0,,,70,0
45240,note_on,3,0,0,,,,,,,,,0,,,76,82
45260,note_on,44,0,1,,,,,,,,,0,,,55,0
45264,note_on,4,0,1,,,,,,,,,0,,,52,82
45277,note_on,37,0,0,,,,,,,,,0,,,76,0
45280,note_on,0,0,0,,,,,,,,,0,,,73,82
45280,note_on,3,0,0,,,,,,,,,0,,,70,82
45308,note_on,44,0,1,,,,,,,,,0,,,52,0
45312,note_on,4,0,1,,,,,,,,,0,,,55,82
45317,note_on,0,0,0,,,,,,,,,0,,,73,0
45317,note_on,37,0,0,,,,,,,,,0,,,70,0
45320,note_on,3,0,0,,,,,,,,,0,,,76,82
45356,note_on,44,0,1,,,,,,,,,0,,,55,0
45357,note_on,37,0,0,,,,,,,,,0,,,76,0
45360,note_on,4,0,1,,,,,,,,,0,,,44,82
45360,note_on,3,0,0,,,,,,,,,0,,,70,82
45360,note_on,0,0,1,,,,,,,,,0,,,56,96
45360,note_on,0,0,1,,,,,,,,,0,,,44,96
45360,note_on,0,0,1,,,,,,,,,0,,,44,0
45360,note_on,0,0,0,,,,,,,,,0,,,73,82
45361,control_change,1,0,1,,,,,,,64,0,0,,,,
45362,control_change,1,0,1,,,,,,,64,127,0,,,,
45397,note_on,0,0,0,,,,,,,,,0,,,73,0
45397,note_on,37,0,0,,,,,,,,,0,,,70,0
45400,note_on,3,0,0,,,,,,,,,0,,,76,82
45408,note_on,46,0,1,,,,,,,,,0,,,49,82
45437,note_on,37,0,0,,,,,,,,,0,,,76,0
45438,note_on,30,0,1,,,,,,,,,0,,,44,0
45438,note_on,0,0,1,,,,,,,,,0,,,56,0
45440,note_on,3,0,0,,,,,,,,,0,,,70,82
45440,note_on,0,0,0,,,,,,,,,0,,,73,82
45452,note_on,14,0,1,,,,,,,,,0,,,49,0
45456,note_on,4,0,1,,,,,,,,,0,,,52,82
45477,note_on,0,0,0,,,,,,,,,0,,,73,0
45477,note_on,37,0,0,,,,,,,,,0,,,70,0
45480,note_on,3,0,0,,,,,,,,,0,,,76,82
45500,note_on,44,0,1,,,,,,,,,0,,,52,0
45504,note_on,4,0,1,,,,,,,,,0,,,49,82
45517,note_on,37,0,0,,,,,,,,,0,,,76,0
45520,note_on,0,0,0,,,,,,,,,0,,,73,82
45520,note_on,3,0,0,,,,,,,,,0,,,70,82
45548,note_on,44,0,1,,,,,,,,,0,,,49,0
45552,note_on,4,0,1,,,,,,,,,0,,,52,82
45557,note_on,0,0,0,,,,,,,,,0,,,73,0
45557,note_on,37,0,0,,,,,,,,,0,,,70,0
45560,note_on,3,0,0,,,,,,,,,0,,,76,82
45596,note_on,44,0,1,,,,,,,,,0,,,52,0
45597,note_on,37,0,0,,,,,,,,,0,,,76,0
45600,note_on,4,0,1,,,,,,,,,0,,,43,82
45600,note_on,0,0,0,,,,,,,,,0,,,88,96
45600,note_on,0,0,0,,,,,,,,,0,,,76,96
45600,note_on,0,0,1,,,,,,,,,0,,,43,0
45600,note_on,0,0,0,,,,,,,,,0,,,76,0
45600,note_on,0,0,1,,,,,,,,,0,,,55,96
45600,note_on,3,0,0,,,,,,,,,0,,,76,82
45600,note_on,0,0,1,,,,,,,,,0,,,43,96
45601,control_change,1,0,1,,,,,,,64,0,0,,,,
45602,control_change,1,0,1,,,,,,,64,127,0,,,,
45648,note_on,46,0,1,,,,,,,,,0,,,46,82
45648,note_on,48,0,0,,,,,,,,,0,,,79,82
45648,note_on,0,0,1,,,,,,,,,0,,,49,82
45678,note_on,30,0,0,,,,,,,,,0,,,76,0
45678,note_on,0,0,0,,,,,,,,,0,,,88,0
45692,note_on,14,0,0,,,,,,,,,0,,,79,0
45692,note_on,44,0,1,,,,,,,,,0,,,46,0
45692,note_on,0,0,1,,,,,,,,,0,,,49,0
45696,note_on,4,0,1,,,,,,,,,0,,,52,82
45696,note_on,4,0,0,,,,,,,,,0,,,82,82
45740,note_on,44,0,0,,,,,,,,,0,,,82,0
45740,note_on,44,0,1,,,,,,,,,0,,,52,0
45744,note_on,4,0,1,,,,,,,,,0,,,46,82
45744,note_on,0,0,1,,,,,,,,,0,,,49,82
45744,note_on,4,0,0,,,,,,,,,0,,,79,82
45788,note_on,44,0,0,,,,,,,,,0,,,79,0
45788,note_on,44,0,1,,,,,,,,,0,,,46,0
45788,note_on,0,0,1,,,,,,,,,0,,,49,0
45792,note_on,4,0,1,,,,,,,,,0,,,52,82
45792,note_on,4,0,0,,,,,,,,,0,,,82,82
45836,note_on,44,0,0,,,,,,,,,0,,,82,0
45836,note_on,44,0,1,,,,,,,,,0,,,52,0
45840,note_on,4,0,1,,,,,,,,,0,,,46,82
45840,note_on,0,0,0,,,,,,,,,0,,,75,82
45840,note_on,0,0,0,,,,,,,,,0,,,87,96
45840,note_on,0,0,1,,,,,,,,,0,,,49,82
45840,set_tempo,4,1,0,,,,,,1153846,,,,,,,
45840,note_on,0,0,0,,,,,,,,,0,,,75,0
45840,note_on,0,0,0,,,,,,,,,0,,,75,96
45877,note_on,0,0,1,,,,,,,,,0,,,49,0
45877,note_on,37,0,1,,,,,,,,,0,,,46,0
45880,note_on,3,0,1,,,,,,,,,0,,,52,82
45888,note_on,48,0,0,,,,,,,,,0,,,79,82
45917,note_on,37,0,1,,,,,,,,,0,,,52,0
45918,note_on,30,0,0,,,,,,,,,0,,,75,0
45918,note_on,0,0,0,,,,,,,,,0,,,87,0
45920,note_on,0,0,1,,,,,,,,,0,,,49,82
45920,note_on,3,0,1,,,,,,,,,0,,,46,82
45932,note_on,14,0,0,,,,,,,,,0,,,79,0
45936,note_on,4,0,0,,,,,,,,,0,,,82,82
45957,note_on,37,0,1,,,,,,,,,0,,,46,0
45957,note_on,0,0,1,,,,,,,,,0,,,49,0
45960,note_on,3,0,1,,,,,,,,,0,,,52,82
45980,note_on,44,0,0,,,,,,,,,0,,,82,0
45984,note_on,4,0,0,,,,,,,,,0,,,79,82
45997,note_on,37,0,1,,,,,,,,,0,,,52,0
46000,note_on,0,0,1,,,,,,,,,0,,,49,82
46000,note_on,3,0,1,,,,,,,,,0,,,46,82
46028,note_on,44,0,0,,,,,,,,,0,,,79,0
46032,note_on,4,0,0,,,,,,,,,0,,,82,82
46037,note_on,37,0,1,,,,,,,,,0,,,46,0
46037,note_on,0,0,1,,,,,,,,,0,,,49,0
46040,note_on,3,0,1,,,,,,,,,0,,,52,82
46055,note_on,15,0,1,,,,,,,,,0,,,43,0
46055,note_on,0,0,1,,,,,,,,,0,,,55,0
46076,note_on,44,0,0,,,,,,,,,0,,,82,0
46077,note_on,22,0,1,,,,,,,,,0,,,52,0
46080,time_signature,4,1,0,3,8,24,8,,,,,,,,,
46080,note_on,3,0,1,,,,,,,,,0,,,52,82
46080,note_on,0,0,1,,,,,,,,,0,,,64,96
46080,note_on,0,0,0,,,,,,,,,0,,,73,0
46080,note_on,0,0,1,,,,,,,,,0,,,52,96
46080,note_on,0,0,0,,,,,,,,,0,,,73,82
46080,note_on,0,0,0,,,,,,,,,0,,,73,96
46080,note_on,0,0,0,,,,,,,,,0,,,85,96
46080,set_tempo,0,1,0,,,,,,1111111,,,,,,,
46080,note_on,0,0,1,,,,,,,,,0,,,52,0
46128,note_on,0,0,1,,,,,,,,,0,,,58,82
46128,note_on,48,0,0,,,,,,,,,0,,,76,82
46128,note_on,48,0,1,,,,,,,,,0,,,55,82
46158,note_on,0,0,1,,,,,,,,,0,,,64,0
46158,note_on,0,0,0,,,,,,,,,0,,,85,0
46158,note_on,30,0,0,,,,,,,,,0,,,73,0
46158,note_on,30,0,1,,,,,,,,,0,,,52,0
46172,note_on,0,0,1,,,,,,,,,0,,,58,0
46172,note_on,14,0,0,,,,,,,,,0,,,76,0
46172,note_on,14,0,1,,,,,,,,,0,,,55,0
46176,note_on,4,0,1,,,,,,,,,0,,,61,82
46176,note_on,4,0,0,,,,,,,,,0,,,79,82
46220,note_on,44,0,1,,,,,,,,,0,,,61,0
46220,note_on,44,0,0,,,,,,,,,0,,,79,0
46224,note_on,4,0,0,,,,,,,,,0,,,76,82
46224,note_on,0,0,1,,,,,,,,,0,,,58,82
46224,note_on,4,0,1,,,,,,,,,0,,,55,82
46268,note_on,44,0,1,,,,,,,,,0,,,55,0
46268,note_on,0,0,1,,,,,,,,,0,,,58,0
46268,note_on,44,0,0,,,,,,,,,0,,,76,0
46272,note_on,4,0,0,,,,,,,,,0,,,79,82
46272,note_on,4,0,1,,,,,,,,,0,,,61,82
46316,note_on,44,0,1,,,,,,,,,0,,,61,0
46316,note_on,44,0,0,,,,,,,,,0,,,79,0
46320,note_on,0,0,0,,,,,,,,,0,,,71,0
46320,note_on,0,0,1,,,,,,,,,0,,,63,96
46320,set_tempo,4,1,0,,,,,,1071429,,,,,,,
46320,note_on,4,0,1,,,,,,,,,0,,,51,82
46320,note_on,0,0,0,,,,,,,,,0,,,83,96
46320,note_on,0,0,1,,,,,,,,,0,,,51,96
46320,note_on,0,0,0,,,,,,,,,0,,,71,96
46320,note_on,0,0,1,,,,,,,,,0,,,51,0
46320,note_on,0,0,0,,,,,,,,,0,,,71,82
46368,note_on,48,0,1,,,,,,,,,0,,,55,82
46368,note_on,48,0,0,,,,,,,,,0,,,75,82
46398,note_on,0,0,0,,,,,,,,,0,,,83,0
46398,note_on,30,0,0,,,,,,,,,0,,,71,0
46398,note_on,0,0,1,,,,,,,,,0,,,63,0
46398,note_on,30,0,1,,,,,,,,,0,,,51,0
46412,note_on,14,0,0,,,,,,,,,0,,,75,0
46412,note_on,14,0,1,,,,,,,,,0,,,55,0
46416,note_on,4,0,0,,,,,,,,,0,,,79,82
46416,note_on,4,0,1,,,,,,,,,0,,,59,82
46460,note_on,44,0,1,,,,,,,,,0,,,59,0
46460,note_on,44,0,0,,,,,,,,,0,,,79,0
46464,note_on,4,0,1,,,,,,,,,0,,,55,82
46464,note_on,4,0,0,,,,,,,,,0,,,75,82
46508,note_on,44,0,1,,,,,,,,,0,,,55,0
46508,note_on,44,0,0,,,,,,,,,0,,,75,0
46512,note_on,4,0,1,,,,,,,,,0,,,59,82
46512,note_on,4,0,0,,,,,,,,,0,,,79,82
46556,note_on,44,0,1,,,,,,,,,0,,,59,0
46556,note_on,44,0,0,,,,,,,,,0,,,79,0
46560,note_on,0,0,0,,,,,,,,,0,,,70,0
46560,note_on,0,0,0,,,,,,,,,0,,,70,96
46560,note_on,0,0,0,,,,,,,,,0,,,70,82
46560,note_on,0,0,1,,,,,,,,,0,,,61,96
46560,set_tempo,4,1,0,,,,,,1034483,,,,,,,
46560,note_on,0,0,1,,,,,,,,,0,,,49,96
46560,note_on,4,0,1,,,,,,,,,0,,,49,82
46560,note_on,0,0,1,,,,,,,,,0,,,49,0
46560,note_on,0,0,0,,,,,,,,,0,,,82,96
46561,control_change,1,0,1,,,,,,,64,0,0,,,,
46562,control_change,1,0,1,,,,,,,64,127,0,,,,
46608,note_on,46,0,1,,,,,,,,,0,,,52,82
46608,note_on,48,0,0,,,,,,,,,0,,,73,82
46608,note_on,0,0,1,,,,,,,,,0,,,55,82
46608,note_on,0,0,0,,,,,,,,,0,,,76,82
46638,note_on,30,0,1,,,,,,,,,0,,,49,0
46638,note_on,0,0,1,,,,,,,,,0,,,61,0
46638,note_on,0,0,0,,,,,,,,,0,,,82,0
46638,note_on,30,0,0,,,,,,,,,0,,,70,0
46652,note_on,0,0,1,,,,,,,,,0,,,55,0
46652,note_on,14,0,0,,,,,,,,,0,,,73,0
46652,note_on,14,0,1,,,,,,,,,0,,,52,0
46652,note_on,0,0,0,,,,,,,,,0,,,76,0
46656,note_on,4,0,1,,,,,,,,,0,,,58,82
46656,note_on,4,0,0,,,,,,,,,0,,,79,82
46700,note_on,44,0,1,,,,,,,,,0,,,58,0
46700,note_on,44,0,0,,,,,,,,,0,,,79,0
46704,note_on,4,0,1,,,,,,,,,0,,,52,82
46704,note_on,0,0,1,,,,,,,,,0,,,55,82
46704,note_on,0,0,0,,,,,,,,,0,,,76,82
46704,note_on,4,0,0,,,,,,,,,0,,,73,82
46748,note_on,44,0,0,,,,,,,,,0,,,73,0
46748,note_on,44,0,1,,,,,,,,,0,,,52,0
46748,note_on,0,0,0,,,,,,,,,0,,,76,0
46748,note_on,0,0,1,,,,,,,,,0,,,55,0
46752,note_on,4,0,0,,,,,,,,,0,,,79,82
46752,note_on,4,0,1,,,,,,,,,0,,,58,82
46796,note_on,44,0,1,,,,,,,,,0,,,58,0
46796,note_on,44,0,0,,,,,,,,,0,,,79,0
46800,note_on,0,0,0,,,,,,,,,0,,,81,96
46800,note_on,0,0,1,,,,,,,,,0,,,48,0
46800,note_on,4,0,1,,,,,,,,,0,,,48,82
46800,note_on,0,0,1,,,,,,,,,0,,,60,96
46800,note_on,0,0,0,,,,,,,,,0,,,69,82
46800,set_tempo,4,1,0,,,,,,1000000,,,,,,,
46800,note_on,0,0,0,,,,,,,,,0,,,69,0
46800,note_on,0,0,0,,,,,,,,,0,,,69,96
46800,note_on,0,0,1,,,,,,,,,0,,,48,96
46801,control_change,1,0,1,,,,,,,64,0,0,,,,
46802,control_change,1,0,1,,,,,,,64,127,0,,,,
46848,note_on,48,0,0,,,,,,,,,0,,,72,82
46848,note_on,0,0,1,,,,,,,,,0,,,54,82
46848,note_on,46,0,1,,,,,,,,,0,,,51,82
46848,note_on,0,0,0,,,,,,,,,0,,,75,82
46878,note_on,0,0,1,,,,,,,,,0,,,60,0
46878,note_on,30,0,1,,,,,,,,,0,,,48,0
46878,note_on,30,0,0,,,,,,,,,0,,,69,0
46878,note_on,0,0,0,,,,,,,,,0,,,81,0
46892,note_on,14,0,0,,,,,,,,,0,,,72,0
46892,note_on,0,0,1,,,,,,,,,0,,,54,0
46892,note_on,0,0,0,,,,,,,,,0,,,75,0
46892,note_on,14,0,1,,,,,,,,,0,,,51,0
46896,note_on,4,0,0,,,,,,,,,0,,,78,82
46896,note_on,4,0,1,,,,,,,,,0,,,57,82
46940,note_on,44,0,0,,,,,,,,,0,,,78,0
46940,note_on,44,0,1,,,,,,,,,0,,,57,0
46944,note_on,4,0,1,,,,,,,,,0,,,51,82
46944,note_on,0,0,1,,,,,,,,,0,,,54,82
46944,note_on,4,0,0,,,,,,,,,0,,,72,82
46944,note_on,0,0,0,,,,,,,,,0,,,75,82
46988,note_on,0,0,1,,,,,,,,,0,,,54,0
46988,note_on,44,0,0,,,,,,,,,0,,,72,0
46988,note_on,0,0,0,,,,,,,,,0,,,75,0
46988,note_on,44,0,1,,,,,,,,,0,,,51,0
46992,note_on,4,0,0,,,,,,,,,0,,,78,82
46992,note_on,4,0,1,,,,,,,,,0,,,57,82
47036,note_on,44,0,0,,,,,,,,,0,,,78,0
47036,note_on,44,0,1,,,,,,,,,0,,,57,0
47040,note_on,4,0,1,,,,,,,,,0,,,46,82
47040,set_tempo,4,1,0,,,,,,1200000,,,,,,,
47040,note_on,0,0,0,,,,,,,,,0,,,90,115
47040,note_on,0,0,1,,,,,,,,,0,,,46,96
47040,note_on,0,0,1,,,,,,,,,0,,,58,96
47040,note_on,0,0,1,,,,,,,,,0,,,46,0
47040,note_on,0,0,0,,,,,,,,,0,,,78,115
47040,note_on,0,0,0,,,,,,,,,0,,,78,0
47040,note_on,0,0,0,,,,,,,,,0,,,78,82
47088,note_on,48,0,0,,,,,,,,,0,,,81,82
47088,note_on,48,0,1,,,,,,,,,0,,,51,82
47118,note_on,30,0,1,,,,,,,,,0,,,46,0
47118,note_on,0,0,1,,,,,,,,,0,,,58,0
47132,note_on,14,0,1,,,,,,,,,0,,,51,0
47132,note_on,44,0,0,,,,,,,,,0,,,81,0
47136,note_on,4,0,1,,,,,,,,,0,,,54,82
47136,note_on,4,0,0,,,,,,,,,0,,,84,82
47180,note_on,44,0,1,,,,,,,,,0,,,54,0
47180,note_on,44,0,0,,,,,,,,,0,,,84,0
47184,note_on,4,0,0,,,,,,,,,0,,,81,82
47184,note_on,4,0,1,,,,,,,,,0,,,51,82
47199,note_on,0,0,0,,,,,,,,,0,,,90,0
47199,note_on,15,0,0,,,,,,,,,0,,,78,0
47228,note_on,29,0,0,,,,,,,,,0,,,81,0
47228,note_on,44,0,1,,,,,,,,,0,,,51,0
47232,note_on,4,0,1,,,,,,,,,0,,,54,82
47232,note_on,4,0,0,,,,,,,,,0,,,84,82
47276,note_on,44,0,1,,,,,,,,,0,,,54,0
47276,note_on,44,0,0,,,,,,,,,0,,,84,0
47280,note_on,0,0,0,,,,,,,,,0,,,77,82
47280,note_on,0,0,0,,,,,,,,,0,,,77,96
47280,note_on,0,0,1,,,,,,,,,0,,,45,96
47280,note_on,0,0,0,,,,,,,,,0,,,77,0
47280,note_on,0,0,1,,,,,,,,,0,,,57,96
47280,note_on,0,0,1,,,,,,,,,0,,,45,0
47280,set_tempo,4,1,0,,,,,,1153846,,,,,,,
47280,note_on,0,0,0,,,,,,,,,0,,,89,96
47280,note_on,4,0,1,,,,,,,,,0,,,45,82
47328,note_on,48,0,0,,,,,,,,,0,,,81,82
47328,note_on,48,0,1,,,,,,,,,0,,,48,82
47358,note_on,0,0,1,,,,,,,,,0,,,57,0
47358,note_on,30,0,0,,,,,,,,,0,,,77,0
47358,note_on,30,0,1,,,,,,,,,0,,,45,0
47358,note_on,0,0,0,,,,,,,,,0,,,89,0
47372,note_on,14,0,0,,,,,,,,,0,,,81,0
47372,note_on,14,0,1,,,,,,,,,0,,,48,0
47376,note_on,4,0,1,,,,,,,,,0,,,53,82
47376,note_on,4,0,0,,,,,,,,,0,,,84,82
47420,note_on,44,0,0,,,,,,,,,0,,,84,0
47420,note_on,44,0,1,,,,,,,,,0,,,53,0
47424,note_on,4,0,1,,,,,,,,,0,,,48,82
47424,note_on,4,0,0,,,,,,,,,0,,,81,82
47468,note_on,44,0,1,,,,,,,,,0,,,48,0
47468,note_on,44,0,0,,,,,,,,,0,,,81,0
47472,note_on,4,0,1,,,,,,,,,0,,,53,82
47472,note_on,4,0,0,,,,,,,,,0,,,84,82
47516,note_on,44,0,0,,,,,,,,,0,,,84,0
47516,note_on,44,0,1,,,,,,,,,0,,,53,0
47520,note_on,0,0,1,,,,,,,,,0,,,54,0
47520,note_on,0,0,1,,,,,,,,,0,,,66,96
47520,note_on,0,0,1,,,,,,,,,0,,,54,96
47520,note_on,0,0,1,,,,,,,,,0,,,54,82
47520,note_on,0,0,0,,,,,,,,,0,,,87,96
47520,time_signature,4,1,0,6,8,24,8,,,,,,,,,
47520,note_on,0,0,0,,,,,,,,,0,,,75,82
47520,note_on,0,0,0,,,,,,,,,0,,,75,0
47520,key_signature,0,1,0,,,,,Db,,,,,,,,
47520,note_on,0,0,0,,,,,,,,,0,,,75,96
47520,set_tempo,0,1,0,,,,,,1111111,,,,,,,
47520,key_signature,4,1,1,,,,,Db,,,,,,,,
47568,note_on,48,0,1,,,,,,,,,0,,,57,82
47568,note_on,48,0,0,,,,,,,,,0,,,78,82
47598,note_on,0,0,1,,,,,,,,,0,,,66,0
47598,note_on,30,0,0,,,,,,,,,0,,,75,0
47598,note_on,30,0,1,,,,,,,,,0,,,54,0
47598,note_on,0,0,0,,,,,,,,,0,,,87,0
47612,note_on,14,0,1,,,,,,,,,0,,,57,0
47612,note_on,14,0,0,,,,,,,,,0,,,78,0
47616,note_on,4,0,0,,,,,,,,,0,,,81,82
47616,note_on,4,0,1,,,,,,,,,0,,,63,82
47660,note_on,44,0,0,,,,,,,,,0,,,81,0
47660,note_on,44,0,1,,,,,,,,,0,,,63,0
47664,note_on,4,0,1,,,,,,,,,0,,,57,82
47664,note_on,4,0,0,,,,,,,,,0,,,78,82
47708,note_on,44,0,1,,,,,,,,,0,,,57,0
47708,note_on,44,0,0,,,,,,,,,0,,,78,0
47712,note_on,4,0,1,,,,,,,,,0,,,63,82
47712,note_on,4,0,0,,,,,,,,,0,,,81,82
47756,note_on,44,0,1,,,,,,,,,0,,,63,0
47756,note_on,44,0,0,,,,,,,,,0,,,81,0
47760,set_tempo,4,1,0,,,,,,1071429,,,,,,,
47760,note_on,0,0,1,,,,,,,,,0,,,65,96
47760,note_on,0,0,0,,,,,,,,,0,,,73,96
47760,note_on,0,0,0,,,,,,,,,0,,,73,82
47760,note_on,0,0,0,,,,,,,,,0,,,73,0
47760,note_on,0,0,0,,,,,,,,,0,,,85,96
47760,note_on,4,0,1,,,,,,,,,0,,,53,82
47760,note_on,0,0,1,,,,,,,,,0,,,53,96
47760,note_on,0,0,1,,,,,,,,,0,,,53,0
47761,control_change,1,0,1,,,,,,,64,0,0,,,,
47762,control_change,1,0,1,,,,,,,64,127,0,,,,
47808,note_on,46,0,1,,,,,,,,,0,,,57,82
47808,note_on,48,0,0,,,,,,,,,0,,,77,82
47838,note_on,30,0,0,,,,,,,,,0,,,73,0
47838,note_on,0,0,1,,,,,,,,,0,,,65,0
47838,note_on,0,0,0,,,,,,,,,0,,,85,0
47838,note_on,30,0,1,,,,,,,,,0,,,53,0
47852,note_on,14,0,1,,,,,,,,,0,,,57,0
47852,note_on,14,0,0,,,,,,,,,0,,,77,0
47856,note_on,4,0,1,,,,,,,,,0,,,61,82
47856,note_on,4,0,0,,,,,,,,,0,,,81,82
47900,note_on,44,0,0,,,,,,,,,0,,,81,0
47900,note_on,44,0,1,,,,,,,,,0,,,61,0
47904,note_on,4,0,1,,,,,,,,,0,,,57,82
47904,note_on,4,0,0,,,,,,,,,0,,,77,82
47948,note_on,44,0,1,,,,,,,,,0,,,57,0
47948,note_on,44,0,0,,,,,,,,,0,,,77,0
47952,note_on,4,0,1,,,,,,,,,0,,,61,82
47952,note_on,4,0,0,,,,,,,,,0,,,81,82
47996,note_on,44,0,0,,,,,,,,,0,,,81,0
47996,note_on,44,0,1,,,,,,,,,0,,,61,0
48000,note_on,0,0,0,,,,,,,,,0,,,72,0
48000,note_on,0,0,1,,,,,,,,,0,,,51,0
48000,note_on,0,0,1,,,,,,,,,0,,,63,96
48000,set_tempo,4,1,0,,,,,,1153846,,,,,,,
48000,note_on,0,0,1,,,,,,,,,0,,,51,96
48000,note_on,0,0,0,,,,,,,,,0,,,72,82
48000,note_on,0,0,0,,,,,,,,,0,,,84,96
48000,note_on,0,0,0,,,,,,,,,0,,,72,96
48000,note_on,4,0,1,,,,,,,,,0,,,51,82
48001,control_change,1,0,1,,,,,,,64,0,0,,,,
48002,control_change,1,0,1,,,,,,,64,127,0,,,,
48048,note_on,0,0,0,,,,,,,,,0,,,78,82
48048,note_on,46,0,1,,,,,,,,,0,,,54,82
48048,note_on,0,0,1,,,,,,,,,0,,,57,82
48048,note_on,48,0,0,,,,,,,,,0,,,75,82
48078,note_on,30,0,1,,,,,,,,,0,,,51,0
48078,note_on,0,0,1,,,,,,,,,0,,,63,0
48078,note_on,30,0,0,,,,,,,,,0,,,72,0
48078,note_on,0,0,0,,,,,,,,,0,,,84,0
48092,note_on,14,0,1,,,,,,,,,0,,,54,0
48092,note_on,0,0,1,,,,,,,,,0,,,57,0
48092,note_on,0,0,0,,,,,,,,,0,,,78,0
48092,note_on,14,0,0,,,,,,,,,0,,,75,0
48096,note_on,4,0,0,,,,,,,,,0,,,81,82
48096,note_on,4,0,1,,,,,,,,,0,,,60,82
48140,note_on,44,0,0,,,,,,,,,0,,,81,0
48140,note_on,44,0,1,,,,,,,,,0,,,60,0
48144,note_on,0,0,1,,,,,,,,,0,,,57,82
48144,note_on,0,0,0,,,,,,,,,0,,,78,82
48144,note_on,4,0,0,,,,,,,,,0,,,75,82
48144,note_on,4,0,1,,,,,,,,,0,,,54,82
48188,note_on,44,0,1,,,,,,,,,0,,,54,0
48188,note_on,0,0,1,,,,,,,,,0,,,57,0
48188,note_on,44,0,0,,,,,,,,,0,,,75,0
48188,note_on,0,0,0,,,,,,,,,0,,,78,0
48192,note_on,4,0,1,,,,,,,,,0,,,60,82
48192,note_on,4,0,0,,,,,,,,,0,,,81,82
48236,note_on,44,0,0,,,,,,,,,0,,,81,0
48236,note_on,44,0,1,,,,,,,,,0,,,60,0
48240,note_on,0,0,1,,,,,,,,,0,,,49,0
48240,note_on,0,0,1,,,,,,,,,0,,,49,96
48240,note_on,0,0,1,,,,,,,,,0,,,61,96
48240,note_on,0,0,0,,,,,,,,,0,,,70,96
48240,note_on,0,0,0,,,,,,,,,0,,,70,0
48240,note_on,0,0,0,,,,,,,,,0,,,70,82
48240,note_on,0,0,0,,,,,,,,,0,,,82,96
48240,set_tempo,4,1,0,,,,,,1111111,,,,,,,
48240,note_on,4,0,1,,,,,,,,,0,,,49,82
48241,control_change,1,0,1,,,,,,,64,0,0,,,,
48242,control_change,1,0,1,,,,,,,64,127,0,,,,
48300,note_on,0,0,0,,,,,,,,,0,,,77,82
48300,note_on,58,0,1,,,,,,,,,0,,,53,82
48300,note_on,0,0,1,,,,,,,,,0,,,58,82
48300,note_on,60,0,0,,,,,,,,,0,,,73,82
48356,note_on,0,0,0,,,,,,,,,0,,,77,0
48356,note_on,56,0,0,,,,,,,,,0,,,73,0
48356,note_on,0,0,1,,,,,,,,,0,,,58,0
48356,note_on,56,0,1,,,,,,,,,0,,,53,0
48360,note_on,4,0,0,,,,,,,,,0,,,70,0
48360,note_on,0,0,1,,,,,,,,,0,,,61,82
48360,note_on,4,0,1,,,,,,,,,0,,,61,0
48360,note_on,0,0,0,,,,,,,,,0,,,70,82
48420,note_on,0,0,1,,,,,,,,,0,,,58,82
48420,note_on,0,0,0,,,,,,,,,0,,,77,82
48420,note_on,60,0,0,,,,,,,,,0,,,73,82
48420,note_on,60,0,1,,,,,,,,,0,,,53,82
48467,note_on,47,0,0,,,,,,,,,0,,,70,0
48467,note_on,47,0,1,,,,,,,,,0,,,49,0
48467,note_on,0,0,1,,,,,,,,,0,,,61,0
48467,note_on,0,0,0,,,,,,,,,0,,,82,0
48476,note_on,0,0,0,,,,,,,,,0,,,77,0
48476,note_on,9,0,1,,,,,,,,,0,,,53,0
48476,note_on,9,0,0,,,,,,,,,0,,,73,0
48476,note_on,0,0,1,,,,,,,,,0,,,58,0
48480,note_on,4,0,1,,,,,,,,,0,,,48,82
48480,note_on,4,0,0,,,,,,,,,0,,,72,82
48480,note_on,0,0,1,,,,,,,,,0,,,48,96
48480,note_on,0,0,1,,,,,,,,,0,,,60,96
48480,note_on,0,0,1,,,,,,,,,0,,,48,0
48480,note_on,0,0,0,,,,,,,,,0,,,84,96
48480,note_on,0,0,0,,,,,,,,,0,,,72,96
48480,note_on,0,0,0,,,,,,,,,0,,,72,0
48481,control_change,1,0,1,,,,,,,64,0,0,,,,
48482,control_change,1,0,1,,,,,,,64,127,0,,,,
48540,note_on,0,0,1,,,,,,,,,0,,,57,82
48540,note_on,58,0,1,,,,,,,,,0,,,53,82
48540,note_on,0,0,0,,,,,,,,,0,,,81,82
48540,note_on,60,0,0,,,,,,,,,0,,,75,82
48596,note_on,56,0,1,,,,,,,,,0,,,53,0
48596,note_on,0,0,1,,,,,,,,,0,,,57,0
48596,note_on,56,0,0,,,,,,,,,0,,,75,0
48596,note_on,0,0,0,,,,,,,,,0,,,81,0
48600,note_on,4,0,0,,,,,,,,,0,,,72,0
48600,note_on,0,0,1,,,,,,,,,0,,,60,82
48600,note_on,0,0,0,,,,,,,,,0,,,72,82
48600,note_on,4,0,1,,,,,,,,,0,,,60,0
48660,note_on,0,0,0,,,,,,,,,0,,,81,82
48660,note_on,60,0,1,,,,,,,,,0,,,53,82
48660,note_on,0,0,1,,,,,,,,,0,,,57,82
48660,note_on,60,0,0,,,,,,,,,0,,,75,82
48707,note_on,0,0,1,,,,,,,,,0,,,60,0
48707,note_on,47,0,1,,,,,,,,,0,,,48,0
48707,note_on,0,0,0,,,,,,,,,0,,,84,0
48707,note_on,47,0,0,,,,,,,,,0,,,72,0
48716,note_on,9,0,0,,,,,,,,,0,,,75,0
48716,note_on,9,0,1,,,,,,,,,0,,,53,0
48716,note_on,0,0,1,,,,,,,,,0,,,57,0
48716,note_on,0,0,0,,,,,,,,,0,,,81,0
48720,note_on,0,0,1,,,,,,,,,0,,,58,96
48720,note_on,4,0,1,,,,,,,,,0,,,46,82
48720,note_on,0,0,0,,,,,,,,,0,,,73,0
48720,note_on,0,0,0,,,,,,,,,0,,,73,96
48720,note_on,0,0,0,,,,,,,,,0,,,85,96
48720,note_on,0,0,1,,,,,,,,,0,,,46,0
48720,note_on,0,0,0,,,,,,,,,0,,,73,82
48720,set_tempo,4,1,0,,,,,,1071429,,,,,,,
48720,note_on,0,0,1,,,,,,,,,0,,,46,96
48721,control_change,1,0,1,,,,,,,64,0,0,,,,
48722,control_change,1,0,1,,,,,,,64,127,0,,,,
48780,note_on,60,0,0,,,,,,,,,0,,,77,82
48780,note_on,58,0,1,,,,,,,,,0,,,49,82
48780,note_on,0,0,0,,,,,,,,,0,,,82,82
48780,note_on,0,0,1,,,,,,,,,0,,,53,82
48836,note_on,0,0,1,,,,,,,,,0,,,53,0
48836,note_on,0,0,0,,,,,,,,,0,,,82,0
48836,note_on,56,0,0,,,,,,,,,0,,,77,0
48836,note_on,56,0,1,,,,,,,,,0,,,49,0
48840,note_on,0,0,0,,,,,,,,,0,,,73,82
48840,note_on,4,0,0,,,,,,,,,0,,,73,0
48840,note_on,0,0,1,,,,,,,,,0,,,58,82
48840,note_on,4,0,1,,,,,,,,,0,,,58,0
48900,note_on,60,0,0,,,,,,,,,0,,,77,82
48900,note_on,0,0,0,,,,,,,,,0,,,82,82
48900,note_on,60,0,1,,,,,,,,,0,,,49,82
48900,note_on,0,0,1,,,,,,,,,0,,,53,82
48947,note_on,0,0,0,,,,,,,,,0,,,85,0
48947,note_on,0,0,1,,,,,,,,,0,,,58,0
48947,note_on,47,0,0,,,,,,,,,0,,,73,0
48947,note_on,47,0,1,,,,,,,,,0,,,46,0
48956,note_on,9,0,0,,,,,,,,,0,,,77,0
48956,note_on,0,0,1,,,,,,,,,0,,,53,0
48956,note_on,9,0,1,,,,,,,,,0,,,49,0
48956,note_on,0,0,0,,,,,,,,,0,,,82,0
48960,time_signature,4,1,0,3,8,24,8,,,,,,,,,
48960,set_tempo,0,1,0,,,,,,1034483,,,,,,,
48960,note_on,0,0,0,,,,,,,,,0,,,74,0
48960,note_on,0,0,1,,,,,,,,,0,,,56,96
48960,note_on,0,0,1,,,,,,,,,0,,,44,96
48960,note_on,0,0,1,,,,,,,,,0,,,44,0
48960,note_on,0,0,0,,,,,,,,,0,,,86,96
48960,note_on,0,0,0,,,,,,,,,0,,,74,82
48960,note_on,4,0,1,,,,,,,,,0,,,44,82
48960,note_on,0,0,0,,,,,,,,,0,,,74,96
48961,control_change,1,0,1,,,,,,,64,0,0,,,,
48962,control_change,1,0,1,,,,,,,64,127,0,,,,
49020,note_on,0,0,1,,,,,,,,,0,,,53,82
49020,note_on,58,0,1,,,,,,,,,0,,,50,82
49020,note_on,60,0,0,,,,,,,,,0,,,77,82
49020,note_on,0,0,0,,,,,,,,,0,,,83,82
49076,note_on,56,0,1,,,,,,,,,0,,,50,0
49076,note_on,0,0,0,,,,,,,,,0,,,83,0
49076,note_on,0,0,1,,,,,,,,,0,,,53,0
49076,note_on,56,0,0,,,,,,,,,0,,,77,0
49080,note_on,4,0,0,,,,,,,,,0,,,74,0
49080,note_on,4,0,1,,,,,,,,,0,,,56,0
49080,note_on,0,0,0,,,,,,,,,0,,,74,82
49080,note_on,0,0,1,,,,,,,,,0,,,56,82
49140,note_on,0,0,1,,,,,,,,,0,,,53,82
49140,note_on,60,0,0,,,,,,,,,0,,,77,82
49140,note_on,0,0,0,,,,,,,,,0,,,83,82
49140,note_on,60,0,1,,,,,,,,,0,,,50,82
49187,note_on,47,0,1,,,,,,,,,0,,,44,0
49187,note_on,0,0,1,,,,,,,,,0,,,56,0
49187,note_on,0,0,0,,,,,,,,,0,,,86,0
49187,note_on,47,0,0,,,,,,,,,0,,,74,0
49196,note_on,0,0,1,,,,,,,,,0,,,53,0
49196,note_on,9,0,0,,,,,,,,,0,,,77,0
49196,note_on,9,0,1,,,,,,,,,0,,,50,0
49196,note_on,0,0,0,,,,,,,,,0,,,83,0
49200,note_on,0,0,1,,,,,,,,,0,,,55,96
49200,note_on,0,0,1,,,,,,,,,0,,,43,96
49200,set_tempo,4,1,0,,,,,,1000000,,,,,,,
49200,note_on,0,0,1,,,,,,,,,0,,,43,0
49200,note_on,0,0,0,,,,,,,,,0,,,75,0
49200,note_on,4,0,1,,,,,,,,,0,,,43,82
49200,note_on,0,0,0,,,,,,,,,0,,,87,96
49200,note_on,0,0,0,,,,,,,,,0,,,75,82
49200,note_on,0,0,0,,,,,,,,,0,,,75,96
49201,control_change,1,0,1,,,,,,,64,0,0,,,,
49202,control_change,1,0,1,,,,,,,64,127,0,,,,
49260,note_on,0,0,0,,,,,,,,,0,,,82,82
49260,note_on,58,0,1,,,,,,,,,0,,,46,82
49260,note_on,0,0,1,,,,,,,,,0,,,51,82
49260,note_on,60,0,0,,,,,,,,,0,,,79,82
49316,note_on,56,0,1,,,,,,,,,0,,,46,0
49316,note_on,0,0,1,,,,,,,,,0,,,51,0
49316,note_on,56,0,0,,,,,,,,,0,,,79,0
49316,note_on,0,0,0,,,,,,,,,0,,,82,0
49320,note_on,0,0,0,,,,,,,,,0,,,75,82
49320,note_on,4,0,0,,,,,,,,,0,,,75,0
49320,note_on,4,0,1,,,,,,,,,0,,,54,82
49376,note_on,56,0,1,,,,,,,,,0,,,54,0
49380,note_on,0,0,0,,,,,,,,,0,,,82,82
49380,note_on,0,0,1,,,,,,,,,0,,,51,82
49380,note_on,60,0,0,,,,,,,,,0,,,79,82
49380,note_on,4,0,1,,,,,,,,,0,,,46,82
49427,note_on,0,0,0,,,,,,,,,0,,,87,0
49427,note_on,47,0,1,,,,,,,,,0,,,43,0
49427,note_on,47,0,0,,,,,,,,,0,,,75,0
49427,note_on,0,0,1,,,,,,,,,0,,,55,0
49436,note_on,9,0,0,,,,,,,,,0,,,79,0
49436,note_on,0,0,1,,,,,,,,,0,,,51,0
49436,note_on,9,0,1,,,,,,,,,0,,,46,0
49436,note_on,0,0,0,,,,,,,,,0,,,82,0
49440,note_on,4,0,1,,,,,,,,,0,,,42,82
49440,note_on,0,0,1,,,,,,,,,0,,,42,96
49440,note_on,0,0,1,,,,,,,,,0,,,42,0
49440,note_on,0,0,1,,,,,,,,,0,,,54,96
49440,note_on,0,0,0,,,,,,,,,0,,,76,0
49440,note_on,0,0,0,,,,,,,,,0,,,76,96
49440,note_on,4,0,0,,,,,,,,,0,,,76,82
49440,note_on,0,0,0,,,,,,,,,0,,,88,96
49441,control_change,1,0,1,,,,,,,64,0,0,,,,
49442,control_change,1,0,1,,,,,,,64,127,0,,,,
49500,note_on,0,0,0,,,,,,,,,0,,,85,82
49500,note_on,58,0,1,,,,,,,,,0,,,46,82
49500,note_on,0,0,1,,,,,,,,,0,,,49,82
49500,note_on,60,0,0,,,,,,,,,0,,,82,82
49556,note_on,56,0,0,,,,,,,,,0,,,82,0
49556,note_on,0,0,1,,,,,,,,,0,,,49,0
49556,note_on,0,0,0,,,,,,,,,0,,,85,0
49556,note_on,56,0,1,,,,,,,,,0,,,46,0
49560,note_on,4,0,0,,,,,,,,,0,,,76,0
49560,note_on,0,0,0,,,,,,,,,0,,,76,82
49560,note_on,4,0,1,,,,,,,,,0,,,54,0
49560,note_on,0,0,1,,,,,,,,,0,,,54,82
49620,note_on,0,0,0,,,,,,,,,0,,,85,82
49620,note_on,60,0,0,,,,,,,,,0,,,82,82
49620,note_on,0,0,1,,,,,,,,,0,,,49,82
49620,note_on,60,0,1,,,,,,,,,0,,,46,82
49667,note_on,0,0,0,,,,,,,,,0,,,88,0
49667,note_on,47,0,0,,,,,,,,,0,,,76,0
49667,note_on,47,0,1,,,,,,,,,0,,,42,0
49667,note_on,0,0,1,,,,,,,,,0,,,54,0
49676,note_on,0,0,1,,,,,,,,,0,,,49,0
49676,note_on,9,0,0,,,,,,,,,0,,,82,0
49676,note_on,0,0,0,,,,,,,,,0,,,85,0
49676,note_on,9,0,1,,,,,,,,,0,,,46,0
49680,note_on,0,0,0,,,,,,,,,0,,,89,96
49680,note_on,4,0,0,,,,,,,,,0,,,77,82
49680,note_on,0,0,1,,,,,,,,,0,,,53,96
49680,note_on,0,0,1,,,,,,,,,0,,,41,96
49680,note_on,0,0,0,,,,,,,,,0,,,77,0
49680,note_on,0,0,1,,,,,,,,,0,,,41,0
49680,note_on,0,0,0,,,,,,,,,0,,,77,96
49680,note_on,4,0,1,,,,,,,,,0,,,41,82
49681,control_change,1,0,1,,,,,,,64,0,0,,,,
49682,control_change,1,0,1,,,,,,,64,127,0,,,,
49740,note_on,58,0,1,,,,,,,,,0,,,46,82
49740,note_on,0,0,1,,,,,,,,,0,,,49,82
49740,note_on,60,0,0,,,,,,,,,0,,,82,82
49740,note_on,0,0,0,,,,,,,,,0,,,85,82
49796,note_on,0,0,1,,,,,,,,,0,,,49,0
49796,note_on,56,0,1,,,,,,,,,0,,,46,0
49796,note_on,56,0,0,,,,,,,,,0,,,82,0
49796,note_on,0,0,0,,,,,,,,,0,,,85,0
49800,note_on,0,0,0,,,,,,,,,0,,,77,82
49800,note_on,0,0,1,,,,,,,,,0,,,53,82
49800,note_on,4,0,0,,,,,,,,,0,,,77,0
49800,note_on,4,0,1,,,,,,,,,0,,,53,0
49860,note_on,60,0,0,,,,,,,,,0,,,82,82
49860,note_on,60,0,1,,,,,,,,,0,,,46,82
49860,note_on,0,0,0,,,,,,,,,0,,,85,82
49860,note_on,0,0,1,,,,,,,,,0,,,49,82
49907,note_on,47,0,1,,,,,,,,,0,,,41,0
49907,note_on,0,0,0,,,,,,,,,0,,,89,0
49907,note_on,0,0,1,,,,,,,,,0,,,53,0
49907,note_on,47,0,0,,,,,,,,,0,,,77,0
49916,note_on,9,0,1,,,,,,,,,0,,,46,0
49916,note_on,9,0,0,,,,,,,,,0,,,82,0
49916,note_on,0,0,0,,,,,,,,,0,,,85,0
49916,note_on,0,0,1,,,,,,,,,0,,,49,0
49920,note_on,0,0,0,,,,,,,,,0,,,91,96
49920,note_on,0,0,0,,,,,,,,,0,,,79,96
49920,note_on,0,0,0,,,,,,,,,0,,,79,0
49920,note_on,4,0,1,,,,,,,,,0,,,40,87
49920,note_on,0,0,1,,,,,,,,,0,,,52,96
49920,note_on,0,0,1,,,,,,,,,0,,,40,96
49920,note_on,0,0,1,,,,,,,,,0,,,40,0
49920,note_on,4,0,0,,,,,,,,,0,,,79,87
49921,control_change,1,0,1,,,,,,,64,0,0,,,,
49922,control_change,1,0,1,,,,,,,64,127,0,,,,
49980,note_on,60,0,0,,,,,,,,,0,,,82,87
49980,note_on,0,0,0,,,,,,,,,0,,,85,87
49980,note_on,58,0,1,,,,,,,,,0,,,46,87
49980,note_on,0,0,1,,,,,,,,,0,,,49,87
50036,note_on,0,0,1,,,,,,,,,0,,,49,0
50036,note_on,56,0,0,,,,,,,,,0,,,82,0
50036,note_on,56,0,1,,,,,,,,,0,,,46,0
50036,note_on,0,0,0,,,,,,,,,0,,,85,0
50040,note_on,4,0,1,,,,,,,,,0,,,51,87
50040,note_on,0,0,0,,,,,,,,,0,,,79,87
50040,note_on,4,0,0,,,,,,,,,0,,,79,0
50096,note_on,56,0,1,,,,,,,,,0,,,51,0
50100,note_on,4,0,1,,,,,,,,,0,,,46,87
50100,note_on,60,0,0,,,,,,,,,0,,,82,87
50100,note_on,0,0,0,,,,,,,,,0,,,85,87
50100,note_on,0,0,1,,,,,,,,,0,,,49,87
50147,note_on,47,0,1,,,,,,,,,0,,,40,0
50147,note_on,47,0,0,,,,,,,,,0,,,79,0
50147,note_on,0,0,0,,,,,,,,,0,,,91,0
50147,note_on,0,0,1,,,,,,,,,0,,,52,0
50156,note_on,0,0,1,,,,,,,,,0,,,49,0
50156,note_on,9,0,1,,,,,,,,,0,,,46,0
50156,note_on,9,0,0,,,,,,,,,0,,,82,0
50156,note_on,0,0,0,,,,,,,,,0,,,85,0
50160,note_on,0,0,0,,,,,,,,,0,,,81,92
50160,note_on,4,0,1,,,,,,,,,0,,,39,92
50160,note_on,0,0,1,,,,,,,,,0,,,39,0
50160,note_on,0,0,1,,,,,,,,,0,,,39,96
50160,note_on,0,0,1,,,,,,,,,0,,,51,96
50160,note_on,0,0,0,,,,,,,,,0,,,93,96
50160,set_tempo,4,1,0,,,,,,1200000,,,,,,,
50160,note_on,0,0,0,,,,,,,,,0,,,81,96
50160,note_on,0,0,0,,,,,,,,,0,,,81,0
50161,control_change,1,0,1,,,,,,,64,0,0,,,,
50162,control_change,1,0,1,,,,,,,64,127,0,,,,
50220,note_on,60,0,0,,,,,,,,,0,,,84,92
50220,note_on,0,0,0,,,,,,,,,0,,,90,92
50220,note_on,58,0,1,,,,,,,,,0,,,45,92
50220,note_on,0,0,1,,,,,,,,,0,,,48,92
50276,note_on,56,0,0,,,,,,,,,0,,,84,0
50276,note_on,0,0,0,,,,,,,,,0,,,90,0
50276,note_on,0,0,1,,,,,,,,,0,,,48,0
50276,note_on,56,0,1,,,,,,,,,0,,,45,0
50280,note_on,4,0,0,,,,,,,,,0,,,81,0
50280,note_on,0,0,0,,,,,,,,,0,,,81,92
50280,note_on,4,0,1,,,,,,,,,0,,,51,0
50280,note_on,0,0,1,,,,,,,,,0,,,51,92
50340,note_on,60,0,0,,,,,,,,,0,,,84,92
50340,note_on,60,0,1,,,,,,,,,0,,,45,92
50340,note_on,0,0,1,,,,,,,,,0,,,48,92
50340,note_on,0,0,0,,,,,,,,,0,,,90,92
50387,note_on,0,0,1,,,,,,,,,0,,,51,0
50387,note_on,47,0,0,,,,,,,,,0,,,81,0
50387,note_on,47,0,1,,,,,,,,,0,,,39,0
50387,note_on,0,0,0,,,,,,,,,0,,,93,0
50396,note_on,0,0,0,,,,,,,,,0,,,90,0
50396,note_on,9,0,1,,,,,,,,,0,,,45,0
50396,note_on,0,0,1,,,,,,,,,0,,,48,0
50396,note_on,9,0,0,,,,,,,,,0,,,84,0
50400,note_on,0,0,1,,,,,,,,,0,,,37,96
50400,note_on,0,0,1,,,,,,,,,0,,,49,96
50400,note_on,4,0,1,,,,,,,,,0,,,37,96
50400,note_on,0,0,1,,,,,,,,,0,,,37,0
50400,note_on,0,0,0,,,,,,,,,0,,,82,96
50400,note_on,0,0,0,,,,,,,,,0,,,82,96
50400,note_on,0,0,0,,,,,,,,,0,,,94,96
50400,note_on,0,0,0,,,,,,,,,0,,,82,0
50400,time_signature,4,1,0,6,8,24,8,,,,,,,,,
50401,control_change,1,0,1,,,,,,,64,0,0,,,,
50402,control_change,1,0,1,,,,,,,64,127,0,,,,
50460,note_on,58,0,1,,,,,,,,,0,,,41,96
50460,note_on,60,0,0,,,,,,,,,0,,,85,96
50460,note_on,0,0,1,,,,,,,,,0,,,46,96
50460,note_on,0,0,0,,,,,,,,,0,,,89,96
50516,note_on,56,0,1,,,,,,,,,0,,,41,0
50516,note_on,0,0,0,,,,,,,,,0,,,89,0
50516,note_on,0,0,1,,,,,,,,,0,,,46,0
50516,note_on,56,0,0,,,,,,,,,0,,,85,0
50520,note_on,4,0,1,,,,,,,,,0,,,49,0
50520,note_on,4,0,0,,,,,,,,,0,,,82,0
50520,note_on,0,0,1,,,,,,,,,0,,,49,96
50520,note_on,0,0,0,,,,,,,,,0,,,82,96
50580,note_on,0,0,1,,,,,,,,,0,,,46,96
50580,note_on,60,0,1,,,,,,,,,0,,,41,96
50580,note_on,60,0,0,,,,,,,,,0,,,85,96
50580,note_on,0,0,0,,,,,,,,,0,,,89,96
50627,note_on,0,0,1,,,,,,,,,0,,,49,0
50627,note_on,47,0,1,,,,,,,,,0,,,37,0
50627,note_on,0,0,0,,,,,,,,,0,,,94,0
50627,note_on,47,0,0,,,,,,,,,0,,,82,0
50636,note_on,9,0,1,,,,,,,,,0,,,41,0
50636,note_on,0,0,1,,,,,,,,,0,,,46,0
50636,note_on,9,0,0,,,,,,,,,0,,,85,0
50636,note_on,0,0,0,,,,,,,,,0,,,89,0
50640,note_on,0,0,1,,,,,,,,,0,,,46,112
50640,note_on,4,0,0,,,,,,,,,0,,,85,112
50640,note_on,0,0,0,,,,,,,,,0,,,97,112
50640,note_on,4,0,1,,,,,,,,,0,,,34,112
50641,control_change,1,0,1,,,,,,,64,0,0,,,,
50642,control_change,1,0,1,,,,,,,64,127,0,,,,
50718,note_on,78,0,0,,,,,,,,,0,,,85,0
50718,note_on,0,0,1,,,,,,,,,0,,,46,0
50718,note_on,0,0,0,,,,,,,,,0,,,97,0
50718,note_on,76,0,1,,,,,,,,,0,,,34,0
50760,note_on,42,0,0,,,,,,,,,0,,,73,112
50760,note_on,0,0,0,,,,,,,,,0,,,76,112
50760,note_on,0,0,1,,,,,,,,,0,,,64,112
50760,note_on,0,0,0,,,,,,,,,0,,,85,112
50760,note_on,0,0,1,,,,,,,,,0,,,67,112
50760,note_on,42,0,1,,,,,,,,,0,,,55,112
50873,note_on,113,0,0,,,,,,,,,0,,,73,0
50873,note_on,0,0,0,,,,,,,,,0,,,76,0
50873,note_on,113,0,1,,,,,,,,,0,,,55,0
50873,note_on,0,0,0,,,,,,,,,0,,,85,0
50873,note_on,0,0,1,,,,,,,,,0,,,67,0
50873,note_on,0,0,1,,,,,,,,,0,,,64,0
50880,note_on,0,0,0,,,,,,,,,0,,,96,112
50880,note_on,7,0,0,,,,,,,,,0,,,84,112
50880,note_on,0,0,1,,,,,,,,,0,,,48,112
50880,note_on,7,0,1,,,,,,,,,0,,,36,112
50958,note_on,78,0,1,,,,,,,,,0,,,36,0
50958,note_on,78,0,0,,,,,,,,,0,,,84,0
50958,note_on,0,0,0,,,,,,,,,0,,,96,0
50958,note_on,0,0,1,,,,,,,,,0,,,48,0
51000,note_on,42,0,1,,,,,,,,,0,,,55,112
51000,note_on,42,0,0,,,,,,,,,0,,,72,112
51000,note_on,0,0,0,,,,,,,,,0,,,76,112
51000,note_on,0,0,0,,,,,,,,,0,,,84,112
51000,note_on,0,0,1,,,,,,,,,0,,,64,112
51000,note_on,0,0,1,,,,,,,,,0,,,67,112
51113,note_on,0,0,0,,,,,,,,,0,,,76,0
51113,note_on,0,0,1,,,,,,,,,0,,,67,0
51113,note_on,0,0,1,,,,,,,,,0,,,64,0
51113,note_on,113,0,0,,,,,,,,,0,,,72,0
51113,note_on,113,0,1,,,,,,,,,0,,,55,0
51113,note_on,0,0,0,,,,,,,,,0,,,84,0
51120,note_on,0,0,1,,,,,,,,,0,,,49,112
51120,note_on,0,0,0,,,,,,,,,0,,,94,112
51120,note_on,7,0,1,,,,,,,,,0,,,37,112
51120,note_on,7,0,0,,,,,,,,,0,,,82,112
51198,note_on,0,0,1,,,,,,,,,0,,,49,0
51198,note_on,78,0,0,,,,,,,,,0,,,82,0
51198,note_on,78,0,1,,,,,,,,,0,,,37,0
51198,note_on,0,0,0,,,,,,,,,0,,,94,0
51240,note_on,0,0,0,,,,,,,,,0,,,76,112
51240,note_on,0,0,1,,,,,,,,,0,,,67,112
51240,note_on,0,0,0,,,,,,,,,0,,,82,112
51240,note_on,42,0,0,,,,,,,,,0,,,70,112
51240,note_on,42,0,1,,,,,,,,,0,,,55,112
51240,note_on,0,0,1,,,,,,,,,0,,,64,112
51353,note_on,113,0,1,,,,,,,,,0,,,55,0
51353,note_on,0,0,0,,,,,,,,,0,,,76,0
51353,note_on,0,0,1,,,,,,,,,0,,,64,0
51353,note_on,113,0,0,,,,,,,,,0,,,70,0
51353,note_on,0,0,1,,,,,,,,,0,,,67,0
51353,note_on,0,0,0,,,,,,,,,0,,,82,0
51360,note_on,0,0,0,,,,,,,,,0,,,93,112
51360,note_on,0,0,1,,,,,,,,,0,,,48,112
51360,note_on,7,0,0,,,,,,,,,0,,,81,112
51360,note_on,7,0,1,,,,,,,,,0,,,36,112
51438,note_on,0,0,1,,,,,,,,,0,,,48,0
51438,note_on,78,0,0,,,,,,,,,0,,,81,0
51438,note_on,0,0,0,,,,,,,,,0,,,93,0
51438,note_on,78,0,1,,,,,,,,,0,,,36,0
51480,note_on,0,0,0,,,,,,,,,0,,,81,112
51480,set_tempo,42,1,0,,,,,,1499999,,,,,,,
51480,note_on,0,0,0,,,,,,,,,0,,,76,112
51480,note_on,42,0,1,,,,,,,,,0,,,55,112
51480,note_on,0,0,0,,,,,,,,,0,,,69,112
51480,note_on,0,0,1,,,,,,,,,0,,,67,112
51480,note_on,0,0,1,,,,,,,,,0,,,64,112
51593,note_on,113,0,1,,,,,,,,,0,,,55,0
51593,note_on,0,0,0,,,,,,,,,0,,,81,0
51593,note_on,0,0,1,,,,,,,,,0,,,64,0
51593,note_on,0,0,0,,,,,,,,,0,,,76,0
51593,note_on,0,0,1,,,,,,,,,0,,,67,0
51593,note_on,113,0,0,,,,,,,,,0,,,69,0
51600,note_on,7,0,1,,,,,,,,,0,,,34,112
51600,note_on,0,0,1,,,,,,,,,0,,,46,112
51600,note_on,7,0,0,,,,,,,,,0,,,82,112
51600,note_on,0,0,0,,,,,,,,,0,,,94,112
51678,note_on,0,0,1,,,,,,,,,0,,,46,0
51678,note_on,78,0,0,,,,,,,,,0,,,82,0
51678,note_on,78,0,1,,,,,,,,,0,,,34,0
51678,note_on,0,0,0,,,,,,,,,0,,,94,0
51720,note_on,0,0,1,,,,,,,,,0,,,61,112
51720,note_on,0,0,1,,,,,,,,,0,,,64,112
51720,note_on,0,0,1,,,,,,,,,0,,,67,112
51720,note_on,42,0,1,,,,,,,,,0,,,55,112
51720,note_on,42,0,0,,,,,,,,,0,,,70,112
51720,note_on,0,0,0,,,,,,,,,0,,,82,112
51720,note_on,0,0,0,,,,,,,,,0,,,73,112
51833,note_on,0,0,0,,,,,,,,,0,,,73,0
51833,note_on,113,0,1,,,,,,,,,0,,,55,0
51833,note_on,0,0,1,,,,,,,,,0,,,67,0
51833,note_on,0,0,1,,,,,,,,,0,,,64,0
51833,note_on,113,0,0,,,,,,,,,0,,,70,0
51833,note_on,0,0,1,,,,,,,,,0,,,61,0
51833,note_on,0,0,0,,,,,,,,,0,,,82,0
51840,note_on,7,0,0,,,,,,,,,0,,,89,127
51840,note_on,0,0,1,,,,,,,,,0,,,41,127
51840,note_on,7,0,1,,,,,,,,,0,,,29,127
51840,note_on,0,0,0,,,,,,,,,0,,,101,127
51841,control_change,1,0,1,,,,,,,64,0,0,,,,
51842,control_change,1,0,1,,,,,,,64,127,0,,,,
51999,note_on,0,0,0,,,,,,,,,0,,,101,0
51999,note_on,157,0,1,,,,,,,,,0,,,29,0
51999,note_on,159,0,0,,,,,,,,,0,,,89,0
51999,note_on,0,0,1,,,,,,,,,0,,,41,0
52080,note_on,0,0,1,,,,,,,,,0,,,59,0
52080,note_on,0,0,0,,,,,,,,,0,,,69,96
52080,set_tempo,81,1,0,,,,,,1200000,,,,,,,
52080,note_on,81,0,1,,,,,,,,,0,,,59,96
52080,note_on,0,0,1,,,,,,,,,0,,,59,112
52117,note_on,37,0,0,,,,,,,,,0,,,69,0
52120,note_on,40,0,1,,,,,,,,,0,,,65,92
52120,note_on,3,0,0,,,,,,,,,0,,,72,92
52157,note_on,37,0,0,,,,,,,,,0,,,72,0
52157,note_on,37,0,1,,,,,,,,,0,,,65,0
52160,note_on,3,0,0,,,,,,,,,0,,,69,88
52160,note_on,0,0,1,,,,,,,,,0,,,59,88
52160,note_on,3,0,1,,,,,,,,,0,,,59,0
52197,note_on,37,0,0,,,,,,,,,0,,,69,0
52200,note_on,40,0,1,,,,,,,,,0,,,65,85
52200,note_on,3,0,0,,,,,,,,,0,,,72,85
52237,note_on,37,0,1,,,,,,,,,0,,,65,0
52237,note_on,37,0,0,,,,,,,,,0,,,72,0
52240,note_on,0,0,1,,,,,,,,,0,,,59,80
52240,note_on,3,0,0,,,,,,,,,0,,,69,80
52240,note_on,3,0,1,,,,,,,,,0,,,59,0
52277,note_on,37,0,0,,,,,,,,,0,,,69,0
52280,note_on,3,0,0,,,,,,,,,0,,,72,80
52280,note_on,40,0,1,,,,,,,,,0,,,65,80
52317,note_on,37,0,1,,,,,,,,,0,,,65,0
52317,note_on,37,0,0,,,,,,,,,0,,,72,0
52319,note_on,2,0,1,,,,,,,,,0,,,59,0
52320,note_on,0,0,1,,,,,,,,,0,,,60,94
52320,note_on,0,0,1,,,,,,,,,0,,,60,0
52320,note_on,3,0,0,,,,,,,,,0,,,69,80
52320,note_on,1,0,1,,,,,,,,,0,,,60,80
52357,note_on,37,0,0,,,,,,,,,0,,,69,0
52360,note_on,3,0,0,,,,,,,,,0,,,72,80
52360,note_on,40,0,1,,,,,,,,,0,,,65,80
52397,note_on,37,0,1,,,,,,,,,0,,,65,0
52397,note_on,37,0,0,,,,,,,,,0,,,72,0
52400,note_on,3,0,1,,,,,,,,,0,,,60,0
52400,note_on,3,0,0,,,,,,,,,0,,,69,80
52400,note_on,0,0,1,,,,,,,,,0,,,60,80
52437,note_on,37,0,0,,,,,,,,,0,,,69,0
52440,note_on,40,0,1,,,,,,,,,0,,,65,79
52440,note_on,3,0,0,,,,,,,,,0,,,72,79
52477,note_on,37,0,1,,,,,,,,,0,,,65,0
52477,note_on,37,0,0,,,,,,,,,0,,,72,0
52480,note_on,3,0,1,,,,,,,,,0,,,60,0
52480,note_on,0,0,1,,,,,,,,,0,,,60,78
52480,note_on,3,0,0,,,,,,,,,0,,,69,78
52517,note_on,37,0,0,,,,,,,,,0,,,69,0
52520,note_on,40,0,1,,,,,,,,,0,,,65,77
52520,note_on,3,0,0,,,,,,,,,0,,,72,77
52557,note_on,37,0,0,,,,,,,,,0,,,72,0
52557,note_on,37,0,1,,,,,,,,,0,,,65,0
52559,note_on,2,0,1,,,,,,,,,0,,,60,0
52560,note_on,0,0,1,,,,,,,,,0,,,61,88
52560,note_on,0,0,1,,,,,,,,,0,,,61,0
52560,note_on,1,0,1,,,,,,,,,0,,,61,75
52560,note_on,3,0,0,,,,,,,,,0,,,69,75
52597,note_on,37,0,0,,,,,,,,,0,,,69,0
52600,note_on,40,0,1,,,,,,,,,0,,,65,74
52600,note_on,3,0,0,,,,,,,,,0,,,72,74
52637,note_on,37,0,0,,,,,,,,,0,,,72,0
52637,note_on,37,0,1,,,,,,,,,0,,,65,0
52640,note_on,0,0,1,,,,,,,,,0,,,61,74
52640,note_on,3,0,0,,,,,,,,,0,,,69,74
52640,note_on,3,0,1,,,,,,,,,0,,,61,0
52677,note_on,37,0,0,,,,,,,,,0,,,69,0
52680,note_on,3,0,0,,,,,,,,,0,,,72,73
52680,note_on,40,0,1,,,,,,,,,0,,,65,73
52717,note_on,37,0,0,,,,,,,,,0,,,72,0
52717,note_on,37,0,1,,,,,,,,,0,,,65,0
52720,note_on,3,0,1,,,,,,,,,0,,,61,0
52720,note_on,0,0,1,,,,,,,,,0,,,61,72
52720,note_on,3,0,0,,,,,,,,,0,,,69,72
52757,note_on,37,0,0,,,,,,,,,0,,,69,0
52760,note_on,40,0,1,,,,,,,,,0,,,65,70
52760,note_on,3,0,0,,,,,,,,,0,,,72,70
52797,note_on,37,0,0,,,,,,,,,0,,,72,0
52797,note_on,37,0,1,,,,,,,,,0,,,65,0
52799,note_on,2,0,1,,,,,,,,,0,,,61,0
52800,note_on,0,0,1,,,,,,,,,0,,,60,81
52800,note_on,3,0,0,,,,,,,,,0,,,69,69
52800,note_on,0,0,1,,,,,,,,,0,,,60,0
52800,note_on,1,0,1,,,,,,,,,0,,,60,69
52837,note_on,37,0,0,,,,,,,,,0,,,69,0
52840,note_on,3,0,0,,,,,,,,,0,,,72,68
52840,note_on,40,0,1,,,,,,,,,0,,,65,68
52877,note_on,37,0,1,,,,,,,,,0,,,65,0
52877,note_on,37,0,0,,,,,,,,,0,,,72,0
52880,note_on,0,0,1,,,,,,,,,0,,,60,68
52880,note_on,3,0,1,,,,,,,,,0,,,60,0
52880,note_on,3,0,0,,,,,,,,,0,,,69,68
52917,note_on,37,0,0,,,,,,,,,0,,,69,0
52920,note_on,40,0,1,,,,,,,,,0,,,65,67
52920,note_on,3,0,0,,,,,,,,,0,,,72,67
52957,note_on,37,0,0,,,,,,,,,0,,,72,0
52957,note_on,37,0,1,,,,,,,,,0,,,65,0
52960,note_on,3,0,0,,,,,,,,,0,,,69,65
52960,note_on,0,0,1,,,,,,,,,0,,,60,65
52960,note_on,3,0,1,,,,,,,,,0,,,60,0
52997,note_on,37,0,0,,,,,,,,,0,,,69,0
53000,note_on,3,0,0,,,,,,,,,0,,,72,64
53000,note_on,40,0,1,,,,,,,,,0,,,65,64
53037,note_on,37,0,1,,,,,,,,,0,,,65,0
53037,note_on,37,0,0,,,,,,,,,0,,,72,0
53039,note_on,2,0,1,,,,,,,,,0,,,60,0
53040,note_on,0,0,1,,,,,,,,,0,,,57,0
53040,note_on,0,0,1,,,,,,,,,0,,,57,74
53040,note_on,3,0,0,,,,,,,,,0,,,81,74
53040,note_on,1,0,1,,,,,,,,,0,,,57,63
53041,control_change,1,0,1,,,,,,,64,0,0,,,,
53042,control_change,1,0,1,,,,,,,64,127,0,,,,
53080,note_on,38,0,1,,,,,,,,,0,,,65,63
53080,note_on,40,0,0,,,,,,,,,0,,,69,63
53117,note_on,37,0,0,,,,,,,,,0,,,69,0
53117,note_on,37,0,1,,,,,,,,,0,,,65,0
53120,note_on,3,0,0,,,,,,,,,0,,,72,62
53120,note_on,3,0,1,,,,,,,,,0,,,60,62
53157,note_on,37,0,0,,,,,,,,,0,,,72,0
53157,note_on,37,0,1,,,,,,,,,0,,,60,0
53160,note_on,3,0,0,,,,,,,,,0,,,69,60
53160,note_on,3,0,1,,,,,,,,,0,,,65,60
53197,note_on,37,0,1,,,,,,,,,0,,,65,0
53197,note_on,37,0,0,,,,,,,,,0,,,69,0
53200,note_on,3,0,0,,,,,,,,,0,,,72,60
53200,note_on,3,0,1,,,,,,,,,0,,,60,60
53237,note_on,37,0,1,,,,,,,,,0,,,60,0
53237,note_on,37,0,0,,,,,,,,,0,,,72,0
53240,note_on,3,0,0,,,,,,,,,0,,,69,60
53240,note_on,3,0,1,,,,,,,,,0,,,65,60
53267,note_on,27,0,0,,,,,,,,,0,,,81,0
53277,note_on,10,0,0,,,,,,,,,0,,,69,0
53277,note_on,37,0,1,,,,,,,,,0,,,65,0
53279,note_on,2,0,1,,,,,,,,,0,,,57,0
53280,set_tempo,3,1,0,,,,,,1499999,,,,,,,
53280,note_on,0,0,0,,,,,,,,,0,,,81,75
53280,note_on,1,0,1,,,,,,,,,0,,,53,75
53281,control_change,1,0,1,,,,,,,64,0,0,,,,
53282,control_change,1,0,1,,,,,,,64,127,0,,,,
53320,note_on,40,0,0,,,,,,,,,0,,,73,64
53358,note_on,76,0,1,,,,,,,,,0,,,53,0
53359,note_on,39,0,0,,,,,,,,,0,,,73,0
53360,note_on,1,0,0,,,,,,,,,0,,,70,64
53399,note_on,39,0,0,,,,,,,,,0,,,81,0
53399,note_on,0,0,0,,,,,,,,,0,,,70,0
53400,note_on,1,0,0,,,,,,,,,0,,,73,64
53439,note_on,39,0,0,,,,,,,,,0,,,73,0
53440,note_on,1,0,0,,,,,,,,,0,,,70,64
53479,note_on,39,0,0,,,,,,,,,0,,,70,0
53480,note_on,1,0,0,,,,,,,,,0,,,73,64
53519,note_on,39,0,0,,,,,,,,,0,,,73,0
53520,set_tempo,1,1,0,,,,,,1200000,,,,,,,
53520,note_on,0,0,0,,,,,,,,,0,,,78,75
53520,note_on,162,0,1,,,,,,,,,0,,,61,64
53520,note_on,0,0,0,,,,,,,,,0,,,70,64
53551,note_on,31,0,1,,,,,,,,,0,,,61,0
53552,note_on,1,0,1,,,,,,,,,0,,,62,64
53559,note_on,39,0,0,,,,,,,,,0,,,70,0
53560,note_on,1,0,0,,,,,,,,,0,,,73,64
53583,note_on,31,0,1,,,,,,,,,0,,,62,0
53584,note_on,1,0,1,,,,,,,,,0,,,63,65
53599,note_on,39,0,0,,,,,,,,,0,,,73,0
53600,note_on,1,0,0,,,,,,,,,0,,,70,64
53615,note_on,31,0,1,,,,,,,,,0,,,63,0
53616,note_on,1,0,1,,,,,,,,,0,,,64,66
53639,note_on,39,0,0,,,,,,,,,0,,,78,0
53639,note_on,0,0,0,,,,,,,,,0,,,70,0
53640,note_on,1,0,0,,,,,,,,,0,,,73,64
53647,note_on,31,0,1,,,,,,,,,0,,,64,0
53648,note_on,1,0,1,,,,,,,,,0,,,65,68
53679,note_on,31,0,1,,,,,,,,,0,,,65,0
53679,note_on,39,0,0,,,,,,,,,0,,,73,0
53680,note_on,1,0,1,,,,,,,,,0,,,66,68
53680,note_on,1,0,0,,,,,,,,,0,,,70,64
53711,note_on,31,0,1,,,,,,,,,0,,,66,0
53712,note_on,1,0,1,,,,,,,,,0,,,67,70
53719,note_on,39,0,0,,,,,,,,,0,,,70,0
53720,note_on,1,0,0,,,,,,,,,0,,,73,64
53743,note_on,31,0,1,,,,,,,,,0,,,67,0
53744,note_on,1,0,1,,,,,,,,,0,,,69,70
53759,note_on,39,0,0,,,,,,,,,0,,,73,0
53760,note_on,0,0,0,,,,,,,,,0,,,79,75
53760,note_on,1,0,0,,,,,,,,,0,,,70,64
53775,note_on,31,0,1,,,,,,,,,0,,,69,0
53776,note_on,1,0,1,,,,,,,,,0,,,67,70
53797,note_on,37,0,0,,,,,,,,,0,,,70,0
53800,note_on,3,0,0,,,,,,,,,0,,,73,64
53807,note_on,31,0,1,,,,,,,,,0,,,67,0
53808,note_on,1,0,1,,,,,,,,,0,,,66,69
53837,note_on,37,0,0,,,,,,,,,0,,,73,0
53839,note_on,31,0,1,,,,,,,,,0,,,66,0
53840,note_on,1,0,1,,,,,,,,,0,,,65,68
53840,note_on,3,0,0,,,,,,,,,0,,,70,64
53871,note_on,31,0,1,,,,,,,,,0,,,65,0
53872,note_on,1,0,1,,,,,,,,,0,,,64,68
53877,note_on,37,0,0,,,,,,,,,0,,,70,0
53879,note_on,2,0,0,,,,,,,,,0,,,79,0
53880,note_on,1,0,0,,,,,,,,,0,,,73,64
53903,note_on,31,0,1,,,,,,,,,0,,,64,0
53904,note_on,1,0,1,,,,,,,,,0,,,63,67
53917,note_on,37,0,0,,,,,,,,,0,,,73,0
53920,note_on,3,0,0,,,,,,,,,0,,,70,64
53935,note_on,31,0,1,,,,,,,,,0,,,63,0
53936,note_on,1,0,1,,,,,,,,,0,,,62,66
53957,note_on,37,0,0,,,,,,,,,0,,,70,0
53960,note_on,3,0,0,,,,,,,,,0,,,73,64
53967,note_on,31,0,1,,,,,,,,,0,,,62,0
53968,note_on,1,0,1,,,,,,,,,0,,,61,64
53997,note_on,37,0,0,,,,,,,,,0,,,73,0
53997,note_on,29,0,1,,,,,,,,,0,,,61,0
54000,note_on,3,0,0,,,,,,,,,0,,,81,75
54000,note_on,3,0,1,,,,,,,,,0,,,58,75
54001,control_change,1,0,1,,,,,,,64,0,0,,,,
54002,control_change,1,0,1,,,,,,,64,127,0,,,,
54040,note_on,40,0,0,,,,,,,,,0,,,73,64
54078,note_on,76,0,1,,,,,,,,,0,,,58,0
54079,note_on,39,0,0,,,,,,,,,0,,,73,0
54080,note_on,1,0,0,,,,,,,,,0,,,70,64
54119,note_on,0,0,0,,,,,,,,,0,,,70,0
54119,note_on,39,0,0,,,,,,,,,0,,,81,0
54120,note_on,1,0,0,,,,,,,,,0,,,73,64
54159,note_on,39,0,0,,,,,,,,,0,,,73,0
54160,note_on,1,0,0,,,,,,,,,0,,,70,64
54199,note_on,39,0,0,,,,,,,,,0,,,70,0
54200,note_on,1,0,0,,,,,,,,,0,,,73,64
54239,note_on,39,0,0,,,,,,,,,0,,,73,0
54240,note_on,1,0,0,,,,,,,,,0,,,70,64
54240,note_on,0,0,0,,,,,,,,,0,,,79,75
54240,note_on,162,0,1,,,,,,,,,0,,,61,64
54271,note_on,31,0,1,,,,,,,,,0,,,61,0
54272,note_on,1,0,1,,,,,,,,,0,,,62,64
54279,note_on,39,0,0,,,,,,,,,0,,,70,0
54280,note_on,1,0,0,,,,,,,,,0,,,73,64
54303,note_on,31,0,1,,,,,,,,,0,,,62,0
54304,note_on,1,0,1,,,,,,,,,0,,,63,65
54319,note_on,39,0,0,,,,,,,,,0,,,73,0
54320,note_on,1,0,0,,,,,,,,,0,,,70,64
54335,note_on,31,0,1,,,,,,,,,0,,,63,0
54336,note_on,1,0,1,,,,,,,,,0,,,64,66
54359,note_on,39,0,0,,,,,,,,,0,,,79,0
54359,note_on,0,0,0,,,,,,,,,0,,,70,0
54360,note_on,1,0,0,,,,,,,,,0,,,73,64
54367,note_on,31,0,1,,,,,,,,,0,,,64,0
54368,note_on,1,0,1,,,,,,,,,0,,,65,68
54399,note_on,39,0,0,,,,,,,,,0,,,73,0
54399,note_on,31,0,1,,,,,,,,,0,,,65,0
54400,note_on,1,0,0,,,,,,,,,0,,,70,64
54400,note_on,1,0,1,,,,,,,,,0,,,66,68
54431,note_on,31,0,1,,,,,,,,,0,,,66,0
54432,note_on,1,0,1,,,,,,,,,0,,,67,70
54439,note_on,39,0,0,,,,,,,,,0,,,70,0
54440,note_on,1,0,0,,,,,,,,,0,,,73,64
54463,note_on,31,0,1,,,,,,,,,0,,,67,0
54464,note_on,1,0,1,,,,,,,,,0,,,69,70
54479,note_on,39,0,0,,,,,,,,,0,,,73,0
54480,note_on,1,0,0,,,,,,,,,0,,,70,64
54480,note_on,0,0,0,,,,,,,,,0,,,77,75
54495,note_on,31,0,1,,,,,,,,,0,,,69,0
54496,note_on,1,0,1,,,,,,,,,0,,,67,70
54517,note_on,37,0,0,,,,,,,,,0,,,70,0
54520,note_on,3,0,0,,,,,,,,,0,,,73,64
54527,note_on,31,0,1,,,,,,,,,0,,,67,0
54528,note_on,1,0,1,,,,,,,,,0,,,66,69
54557,note_on,37,0,0,,,,,,,,,0,,,73,0
54559,note_on,31,0,1,,,,,,,,,0,,,66,0
54560,note_on,1,0,1,,,,,,,,,0,,,65,68
54560,note_on,3,0,0,,,,,,,,,0,,,70,64
54591,note_on,31,0,1,,,,,,,,,0,,,65,0
54592,note_on,1,0,1,,,,,,,,,0,,,64,68
54597,note_on,37,0,0,,,,,,,,,0,,,70,0
54599,note_on,2,0,0,,,,,,,,,0,,,77,0
54600,note_on,1,0,0,,,,,,,,,0,,,73,64
54623,note_on,31,0,1,,,,,,,,,0,,,64,0
54624,note_on,1,0,1,,,,,,,,,0,,,63,67
54637,note_on,37,0,0,,,,,,,,,0,,,73,0
54640,note_on,3,0,0,,,,,,,,,0,,,70,64
54655,note_on,31,0,1,,,,,,,,,0,,,63,0
54656,note_on,1,0,1,,,,,,,,,0,,,62,66
54677,note_on,37,0,0,,,,,,,,,0,,,70,0
54680,note_on,3,0,0,,,,,,,,,0,,,73,64
54687,note_on,31,0,1,,,,,,,,,0,,,62,0
54688,note_on,1,0,1,,,,,,,,,0,,,61,64
54717,note_on,37,0,0,,,,,,,,,0,,,73,0
54717,note_on,29,0,1,,,,,,,,,0,,,61,0
54720,time_signature,3,1,0,3,8,24,8,,,,,,,,,
54720,note_on,0,0,0,,,,,,,,,0,,,84,75
54720,note_on,3,0,1,,,,,,,,,0,,,53,75
54721,control_change,1,0,1,,,,,,,64,0,0,,,,
54722,control_change,1,0,1,,,,,,,64,127,0,,,,
54768,note_on,46,0,1,,,,,,,,,0,,,65,64
54768,note_on,48,0,0,,,,,,,,,0,,,69,64
54812,note_on,44,0,0,,,,,,,,,0,,,69,0
54812,note_on,44,0,1,,,,,,,,,0,,,65,0
54816,note_on,4,0,1,,,,,,,,,0,,,57,64
54816,note_on,4,0,0,,,,,,,,,0,,,72,64
54816,note_on,0,0,1,,,,,,,,,0,,,60,64
54860,note_on,44,0,0,,,,,,,,,0,,,72,0
54860,note_on,0,0,1,,,,,,,,,0,,,60,0
54860,note_on,44,0,1,,,,,,,,,0,,,57,0
54864,note_on,4,0,1,,,,,,,,,0,,,65,64
54864,note_on,4,0,0,,,,,,,,,0,,,69,64
54908,note_on,44,0,1,,,,,,,,,0,,,65,0
54908,note_on,44,0,0,,,,,,,,,0,,,69,0
54912,note_on,4,0,0,,,,,,,,,0,,,72,64
54912,note_on,0,0,1,,,,,,,,,0,,,60,64
54912,note_on,4,0,1,,,,,,,,,0,,,57,64
54947,note_on,35,0,1,,,,,,,,,0,,,53,0
54956,note_on,9,0,1,,,,,,,,,0,,,57,0
54956,note_on,0,0,1,,,,,,,,,0,,,60,0
54956,note_on,44,0,0,,,,,,,,,0,,,72,0
54960,note_on,4,0,0,,,,,,,,,0,,,69,64
54960,note_on,4,0,1,,,,,,,,,0,,,52,75
54997,note_on,37,0,0,,,,,,,,,0,,,69,0
55000,note_on,3,0,0,,,,,,,,,0,,,72,64
55000,note_on,40,0,1,,,,,,,,,0,,,65,1
55037,note_on,37,0,0,,,,,,,,,0,,,72,0
55037,note_on,37,0,1,,,,,,,,,0,,,65,0
55040,note_on,3,0,1,,,,,,,,,0,,,57,1
55040,note_on,3,0,0,,,,,,,,,0,,,69,64
55040,note_on,0,0,1,,,,,,,,,0,,,60,1
55077,note_on,37,0,1,,,,,,,,,0,,,57,0
55077,note_on,37,0,0,,,,,,,,,0,,,69,0
55077,note_on,0,0,1,,,,,,,,,0,,,60,0
55079,note_on,2,0,1,,,,,,,,,0,,,52,0
55080,note_on,1,0,1,,,,,,,,,0,,,65,1
55080,note_on,3,0,0,,,,,,,,,0,,,72,64
55117,note_on,37,0,0,,,,,,,,,0,,,72,0
55117,note_on,37,0,1,,,,,,,,,0,,,65,0
55120,note_on,0,0,1,,,,,,,,,0,,,60,1
55120,note_on,3,0,0,,,,,,,,,0,,,69,64
55120,note_on,3,0,1,,,,,,,,,0,,,57,1
55157,note_on,0,0,1,,,,,,,,,0,,,60,0
55157,note_on,37,0,1,,,,,,,,,0,,,57,0
55157,note_on,37,0,0,,,,,,,,,0,,,69,0
55160,note_on,3,0,1,,,,,,,,,0,,,65,1
55160,note_on,3,0,0,,,,,,,,,0,,,72,64
55175,note_on,15,0,0,,,,,,,,,0,,,84,0
55197,note_on,22,0,0,,,,,,,,,0,,,72,0
55197,note_on,37,0,1,,,,,,,,,0,,,65,0
55200,note_on,3,0,0,,,,,,,,,0,,,69,64
55200,note_on,3,0,1,,,,,,,,,0,,,53,80
55237,note_on,37,0,0,,,,,,,,,0,,,69,0
55240,note_on,3,0,0,,,,,,,,,0,,,72,64
55240,note_on,40,0,1,,,,,,,,,0,,,65,1
55277,note_on,37,0,0,,,,,,,,,0,,,72,0
55277,note_on,37,0,1,,,,,,,,,0,,,65,0
55280,note_on,3,0,1,,,,,,,,,0,,,57,1
55280,note_on,0,0,1,,,,,,,,,0,,,60,1
55280,note_on,3,0,0,,,,,,,,,0,,,69,64
55317,note_on,37,0,0,,,,,,,,,0,,,69,0
55317,note_on,37,0,1,,,,,,,,,0,,,57,0
55317,note_on,0,0,1,,,,,,,,,0,,,60,0
55319,note_on,2,0,1,,,,,,,,,0,,,53,0
55320,note_on,1,0,1,,,,,,,,,0,,,65,1
55320,note_on,3,0,0,,,,,,,,,0,,,72,64
55357,note_on,37,0,0,,,,,,,,,0,,,72,0
55357,note_on,37,0,1,,,,,,,,,0,,,65,0
55360,note_on,0,0,1,,,,,,,,,0,,,60,1
55360,note_on,3,0,0,,,,,,,,,0,,,69,64
55360,note_on,3,0,1,,,,,,,,,0,,,57,1
55397,note_on,37,0,0,,,,,,,,,0,,,69,0
55397,note_on,0,0,1,,,,,,,,,0,,,60,0
55397,note_on,37,0,1,,,,,,,,,0,,,57,0
55400,note_on,3,0,1,,,,,,,,,0,,,65,1
55400,note_on,3,0,0,,,,,,,,,0,,,72,64
55437,note_on,37,0,0,,,,,,,,,0,,,72,0
55437,note_on,37,0,1,,,,,,,,,0,,,65,0
55440,note_on,3,0,1,,,,,,,,,0,,,54,85
55440,note_on,3,0,0,,,,,,,,,0,,,69,64
55477,note_on,37,0,0,,,,,,,,,0,,,69,0
55480,note_on,40,0,1,,,,,,,,,0,,,65,1
55480,note_on,3,0,0,,,,,,,,,0,,,72,64
55517,note_on,37,0,0,,,,,,,,,0,,,72,0
55517,note_on,37,0,1,,,,,,,,,0,,,65,0
55520,note_on,3,0,1,,,,,,,,,0,,,57,1
55520,note_on,3,0,0,,,,,,,,,0,,,69,64
55520,note_on,0,0,1,,,,,,,,,0,,,60,1
55557,note_on,37,0,0,,,,,,,,,0,,,69,0
55557,note_on,37,0,1,,,,,,,,,0,,,57,0
55557,note_on,0,0,1,,,,,,,,,0,,,60,0
55559,note_on,2,0,1,,,,,,,,,0,,,54,0
55560,note_on,1,0,1,,,,,,,,,0,,,65,1
55560,note_on,3,0,0,,,,,,,,,0,,,72,64
55597,note_on,37,0,0,,,,,,,,,0,,,72,0
55597,note_on,37,0,1,,,,,,,,,0,,,65,0
55600,note_on,3,0,0,,,,,,,,,0,,,69,64
55600,note_on,0,0,1,,,,,,,,,0,,,60,1
55600,note_on,3,0,1,,,,,,,,,0,,,57,1
55637,note_on,0,0,1,,,,,,,,,0,,,60,0
55637,note_on,37,0,1,,,,,,,,,0,,,57,0
55637,note_on,37,0,0,,,,,,,,,0,,,69,0
55640,note_on,3,0,0,,,,,,,,,0,,,72,64
55640,note_on,3,0,1,,,,,,,,,0,,,65,1
55677,note_on,37,0,1,,,,,,,,,0,,,65,0
55677,note_on,37,0,0,,,,,,,,,0,,,72,0
55680,note_on,3,0,1,,,,,,,,,0,,,53,85
55680,note_on,3,0,0,,,,,,,,,0,,,69,64
55717,note_on,37,0,0,,,,,,,,,0,,,69,0
55720,note_on,40,0,1,,,,,,,,,0,,,65,1
55720,note_on,3,0,0,,,,,,,,,0,,,72,64
55757,note_on,37,0,1,,,,,,,,,0,,,65,0
55757,note_on,37,0,0,,,,,,,,,0,,,72,0
55760,note_on,0,0,1,,,,,,,,,0,,,60,1
55760,note_on,3,0,0,,,,,,,,,0,,,69,64
55760,note_on,3,0,1,,,,,,,,,0,,,57,1
55797,note_on,37,0,0,,,,,,,,,0,,,69,0
55797,note_on,37,0,1,,,,,,,,,0,,,57,0
55797,note_on,0,0,1,,,,,,,,,0,,,60,0
55799,note_on,2,0,1,,,,,,,,,0,,,53,0
55800,note_on,3,0,0,,,,,,,,,0,,,72,64
55800,note_on,1,0,1,,,,,,,,,0,,,65,1
55837,note_on,37,0,0,,,,,,,,,0,,,72,0
55837,note_on,37,0,1,,,,,,,,,0,,,65,0
55840,note_on,3,0,1,,,,,,,,,0,,,57,1
55840,note_on,0,0,1,,,,,,,,,0,,,60,1
55840,note_on,3,0,0,,,,,,,,,0,,,69,64
55877,note_on,37,0,1,,,,,,,,,0,,,57,0
55877,note_on,37,0,0,,,,,,,,,0,,,69,0
55877,note_on,0,0,1,,,,,,,,,0,,,60,0
55880,note_on,3,0,0,,,,,,,,,0,,,72,64
55880,note_on,3,0,1,,,,,,,,,0,,,65,1
55917,note_on,37,0,1,,,,,,,,,0,,,65,0
55917,note_on,37,0,0,,,,,,,,,0,,,72,0
55920,note_on,3,0,1,,,,,,,,,0,,,48,85
55920,note_on,3,0,0,,,,,,,,,0,,,81,75
55921,control_change,1,0,1,,,,,,,64,0,0,,,,
55922,control_change,1,0,1,,,,,,,64,127,0,,,,
55968,note_on,48,0,0,,,,,,,,,0,,,69,64
55968,note_on,46,0,1,,,,,,,,,0,,,65,1
56012,note_on,44,0,0,,,,,,,,,0,,,69,0
56012,note_on,44,0,1,,,,,,,,,0,,,65,0
56016,note_on,4,0,1,,,,,,,,,0,,,57,1
56016,note_on,4,0,0,,,,,,,,,0,,,72,64
56016,note_on,0,0,1,,,,,,,,,0,,,60,1
56039,note_on,23,0,1,,,,,,,,,0,,,48,0
56060,note_on,21,0,1,,,,,,,,,0,,,57,0
56060,note_on,44,0,0,,,,,,,,,0,,,72,0
56060,note_on,0,0,1,,,,,,,,,0,,,60,0
56064,note_on,4,0,1,,,,,,,,,0,,,65,1
56064,note_on,4,0,0,,,,,,,,,0,,,69,64
56108,note_on,44,0,1,,,,,,,,,0,,,65,0
56108,note_on,44,0,0,,,,,,,,,0,,,69,0
56112,note_on,4,0,0,,,,,,,,,0,,,72,64
56112,note_on,4,0,1,,,,,,,,,0,,,57,1
56112,note_on,0,0,1,,,,,,,,,0,,,60,1
56147,note_on,35,0,0,,,,,,,,,0,,,81,0
56156,note_on,44,0,1,,,,,,,,,0,,,57,0
56156,note_on,9,0,0,,,,,,,,,0,,,72,0
56156,note_on,0,0,1,,,,,,,,,0,,,60,0
56160,note_on,4,0,1,,,,,,,,,0,,,46,75
56160,time_signature,4,1,0,6,8,24,8,,,,,,,,,
56160,note_on,0,0,0,,,,,,,,,0,,,81,75
56160,set_tempo,0,1,0,,,,,,1499999,,,,,,,
56161,control_change,1,0,1,,,,,,,64,0,0,,,,
56162,control_change,1,0,1,,,,,,,64,127,0,,,,
56208,note_on,48,0,0,,,,,,,,,0,,,69,64
56255,note_on,47,0,0,,,,,,,,,0,,,69,0
56256,note_on,0,0,0,,,,,,,,,0,,,73,64
56256,note_on,1,0,0,,,,,,,,,0,,,70,64
56279,note_on,23,0,0,,,,,,,,,0,,,81,0
56303,note_on,0,0,0,,,,,,,,,0,,,73,0
56303,note_on,24,0,0,,,,,,,,,0,,,70,0
56304,note_on,1,0,0,,,,,,,,,0,,,69,64
56351,note_on,47,0,0,,,,,,,,,0,,,69,0
56352,note_on,0,0,0,,,,,,,,,0,,,73,64
56352,note_on,1,0,0,,,,,,,,,0,,,70,64
56387,note_on,225,0,1,,,,,,,,,0,,,46,0
56399,note_on,47,0,0,,,,,,,,,0,,,70,0
56399,note_on,0,0,0,,,,,,,,,0,,,73,0
56400,set_tempo,1,1,0,,,,,,1200000,,,,,,,
56400,note_on,13,0,1,,,,,,,,,0,,,57,64
56400,note_on,0,0,0,,,,,,,,,0,,,78,75
56429,note_on,29,0,1,,,,,,,,,0,,,57,0
56430,note_on,1,0,1,,,,,,,,,0,,,58,64
56448,note_on,48,0,0,,,,,,,,,0,,,66,64
56459,note_on,29,0,1,,,,,,,,,0,,,58,0
56460,note_on,1,0,1,,,,,,,,,0,,,59,65
56489,note_on,29,0,1,,,,,,,,,0,,,59,0
56490,note_on,1,0,1,,,,,,,,,0,,,60,66
56495,note_on,47,0,0,,,,,,,,,0,,,66,0
56496,note_on,0,0,0,,,,,,,,,0,,,73,64
56496,note_on,1,0,0,,,,,,,,,0,,,70,64
56519,note_on,29,0,1,,,,,,,,,0,,,60,0
56519,note_on,23,0,0,,,,,,,,,0,,,78,0
56520,note_on,1,0,1,,,,,,,,,0,,,61,67
56543,note_on,24,0,0,,,,,,,,,0,,,70,0
56543,note_on,0,0,0,,,,,,,,,0,,,73,0
56544,note_on,1,0,0,,,,,,,,,0,,,66,64
56549,note_on,29,0,1,,,,,,,,,0,,,61,0
56550,note_on,1,0,1,,,,,,,,,0,,,62,68
56579,note_on,29,0,1,,,,,,,,,0,,,62,0
56580,note_on,1,0,1,,,,,,,,,0,,,63,68
56591,note_on,47,0,0,,,,,,,,,0,,,66,0
56592,note_on,0,0,0,,,,,,,,,0,,,73,64
56592,note_on,1,0,0,,,,,,,,,0,,,70,64
56609,note_on,29,0,1,,,,,,,,,0,,,63,0
56610,note_on,1,0,1,,,,,,,,,0,,,64,70
56639,note_on,0,0,0,,,,,,,,,0,,,73,0
56639,note_on,29,0,1,,,,,,,,,0,,,64,0
56639,note_on,47,0,0,,,,,,,,,0,,,70,0
56640,note_on,1,0,0,,,,,,,,,0,,,79,75
56640,note_on,1,0,1,,,,,,,,,0,,,65,70
56669,note_on,29,0,1,,,,,,,,,0,,,65,0
56670,note_on,1,0,1,,,,,,,,,0,,,64,70
56688,note_on,48,0,0,,,,,,,,,0,,,67,64
56699,note_on,29,0,1,,,,,,,,,0,,,64,0
56700,note_on,1,0,1,,,,,,,,,0,,,63,69
56729,note_on,29,0,1,,,,,,,,,0,,,63,0
56730,note_on,1,0,1,,,,,,,,,0,,,62,68
56732,note_on,44,0,0,,,,,,,,,0,,,67,0
56736,note_on,4,0,0,,,,,,,,,0,,,70,64
56736,note_on,0,0,0,,,,,,,,,0,,,73,64
56759,note_on,23,0,0,,,,,,,,,0,,,79,0
56759,note_on,29,0,1,,,,,,,,,0,,,62,0
56760,note_on,1,0,1,,,,,,,,,0,,,61,68
56780,note_on,21,0,0,,,,,,,,,0,,,70,0
56780,note_on,0,0,0,,,,,,,,,0,,,73,0
56784,note_on,4,0,0,,,,,,,,,0,,,67,64
56789,note_on,29,0,1,,,,,,,,,0,,,61,0
56790,note_on,1,0,1,,,,,,,,,0,,,60,67
56819,note_on,29,0,1,,,,,,,,,0,,,60,0
56820,note_on,1,0,1,,,,,,,,,0,,,59,66
56828,note_on,44,0,0,,,,,,,,,0,,,67,0
56832,note_on,4,0,0,,,,,,,,,0,,,70,64
56832,note_on,0,0,0,,,,,,,,,0,,,73,64
56849,note_on,29,0,1,,,,,,,,,0,,,59,0
56850,note_on,1,0,1,,,,,,,,,0,,,58,64
56876,note_on,44,0,0,,,,,,,,,0,,,70,0
56876,note_on,0,0,0,,,,,,,,,0,,,73,0
56877,note_on,27,0,1,,,,,,,,,0,,,58,0
56880,note_on,4,0,0,,,,,,,,,0,,,81,75
56880,note_on,3,0,1,,,,,,,,,0,,,49,75
56881,control_change,1,0,1,,,,,,,64,0,0,,,,
56882,control_change,1,0,1,,,,,,,64,127,0,,,,
56928,note_on,48,0,0,,,,,,,,,0,,,69,64
56958,note_on,76,0,1,,,,,,,,,0,,,49,0
56975,note_on,47,0,0,,,,,,,,,0,,,69,0
56976,note_on,0,0,0,,,,,,,,,0,,,73,64
56976,note_on,1,0,0,,,,,,,,,0,,,70,64
56999,note_on,23,0,0,,,,,,,,,0,,,81,0
57023,note_on,24,0,0,,,,,,,,,0,,,70,0
57023,note_on,0,0,0,,,,,,,,,0,,,73,0
57024,note_on,1,0,0,,,,,,,,,0,,,69,64
57071,note_on,47,0,0,,,,,,,,,0,,,69,0
57072,note_on,1,0,0,,,,,,,,,0,,,70,64
57072,note_on,0,0,0,,,,,,,,,0,,,73,64
57119,note_on,0,0,0,,,,,,,,,0,,,73,0
57119,note_on,47,0,0,,,,,,,,,0,,,70,0
57120,note_on,1,0,0,,,,,,,,,0,,,79,75
57120,note_on,162,0,1,,,,,,,,,0,,,57,64
57149,note_on,29,0,1,,,,,,,,,0,,,57,0
57150,note_on,1,0,1,,,,,,,,,0,,,58,64
57168,note_on,48,0,0,,,,,,,,,0,,,67,64
57179,note_on,29,0,1,,,,,,,,,0,,,58,0
57180,note_on,1,0,1,,,,,,,,,0,,,59,65
57209,note_on,29,0,1,,,,,,,,,0,,,59,0
57210,note_on,1,0,1,,,,,,,,,0,,,60,66
57215,note_on,47,0,0,,,,,,,,,0,,,67,0
57216,note_on,0,0,0,,,,,,,,,0,,,73,64
57216,note_on,1,0,0,,,,,,,,,0,,,70,64
57239,note_on,23,0,0,,,,,,,,,0,,,79,0
57239,note_on,29,0,1,,,,,,,,,0,,,60,0
57240,note_on,1,0,1,,,,,,,,,0,,,61,67
57263,note_on,24,0,0,,,,,,,,,0,,,70,0
57263,note_on,0,0,0,,,,,,,,,0,,,73,0
57264,note_on,1,0,0,,,,,,,,,0,,,67,64
57269,note_on,29,0,1,,,,,,,,,0,,,61,0
57270,note_on,1,0,1,,,,,,,,,0,,,62,68
57299,note_on,29,0,1,,,,,,,,,0,,,62,0
57300,note_on,1,0,1,,,,,,,,,0,,,63,68
57311,note_on,47,0,0,,,,,,,,,0,,,67,0
57312,note_on,0,0,0,,,,,,,,,0,,,73,64
57312,note_on,1,0,0,,,,,,,,,0,,,70,64
57329,note_on,29,0,1,,,,,,,,,0,,,63,0
57330,note_on,1,0,1,,,,,,,,,0,,,64,70
57359,note_on,29,0,1,,,,,,,,,0,,,64,0
57359,note_on,0,0,0,,,,,,,,,0,,,73,0
57359,note_on,47,0,0,,,,,,,,,0,,,70,0
57360,note_on,1,0,1,,,,,,,,,0,,,65,70
57360,note_on,1,0,0,,,,,,,,,0,,,77,75
57389,note_on,29,0,1,,,,,,,,,0,,,65,0
57390,note_on,1,0,1,,,,,,,,,0,,,64,70
57408,note_on,48,0,0,,,,,,,,,0,,,67,64
57419,note_on,29,0,1,,,,,,,,,0,,,64,0
57420,note_on,1,0,1,,,,,,,,,0,,,63,69
57449,note_on,29,0,1,,,,,,,,,0,,,63,0
57450,note_on,1,0,1,,,,,,,,,0,,,62,68
57452,note_on,44,0,0,,,,,,,,,0,,,67,0
57456,note_on,0,0,0,,,,,,,,,0,,,73,64
57456,note_on,4,0,0,,,,,,,,,0,,,70,64
57479,note_on,29,0,1,,,,,,,,,0,,,62,0
57479,note_on,23,0,0,,,,,,,,,0,,,77,0
57480,note_on,1,0,1,,,,,,,,,0,,,61,68
57500,note_on,21,0,0,,,,,,,,,0,,,70,0
57500,note_on,0,0,0,,,,,,,,,0,,,73,0
57504,note_on,4,0,0,,,,,,,,,0,,,67,64
57509,note_on,29,0,1,,,,,,,,,0,,,61,0
57510,note_on,1,0,1,,,,,,,,,0,,,60,67
57539,note_on,29,0,1,,,,,,,,,0,,,60,0
57540,note_on,1,0,1,,,,,,,,,0,,,59,66
57548,note_on,44,0,0,,,,,,,,,0,,,67,0
57552,note_on,0,0,0,,,,,,,,,0,,,73,64
57552,note_on,4,0,0,,,,,,,,,0,,,70,64
57569,note_on,29,0,1,,,,,,,,,0,,,59,0
57570,note_on,1,0,1,,,,,,,,,0,,,58,64
57596,note_on,44,0,0,,,,,,,,,0,,,70,0
57596,note_on,0,0,0,,,,,,,,,0,,,73,0
57597,note_on,27,0,1,,,,,,,,,0,,,58,0
57600,note_on,3,0,1,,,,,,,,,0,,,41,75
57600,note_on,0,0,0,,,,,,,,,0,,,72,75
57600,note_on,4,0,0,,,,,,,,,0,,,69,64
57601,control_change,1,0,1,,,,,,,64,0,0,,,,
57602,control_change,1,0,1,,,,,,,64,127,0,,,,
57644,note_on,44,0,0,,,,,,,,,0,,,69,0
57648,note_on,4,0,0,,,,,,,,,0,,,60,64
57648,note_on,46,0,1,,,,,,,,,0,,,57,64
57692,note_on,44,0,0,,,,,,,,,0,,,60,0
57692,note_on,44,0,1,,,,,,,,,0,,,57,0
57696,note_on,4,0,0,,,,,,,,,0,,,65,64
57696,note_on,4,0,1,,,,,,,,,0,,,53,64
57740,note_on,44,0,0,,,,,,,,,0,,,65,0
57740,note_on,44,0,1,,,,,,,,,0,,,53,0
57744,note_on,4,0,0,,,,,,,,,0,,,60,64
57744,note_on,4,0,1,,,,,,,,,0,,,57,64
57788,note_on,44,0,0,,,,,,,,,0,,,60,0
57788,note_on,44,0,1,,,,,,,,,0,,,57,0
57792,note_on,4,0,1,,,,,,,,,0,,,53,64
57792,note_on,4,0,0,,,,,,,,,0,,,65,64
57827,note_on,35,0,1,,,,,,,,,0,,,41,0
57836,note_on,9,0,1,,,,,,,,,0,,,53,0
57836,note_on,44,0,0,,,,,,,,,0,,,65,0
57840,note_on,4,0,0,,,,,,,,,0,,,60,64
57840,note_on,4,0,1,,,,,,,,,0,,,47,75
57877,note_on,37,0,0,,,,,,,,,0,,,60,0
57880,note_on,3,0,0,,,,,,,,,0,,,65,64
57888,note_on,48,0,1,,,,,,,,,0,,,57,65
57917,note_on,37,0,0,,,,,,,,,0,,,65,0
57920,note_on,3,0,0,,,,,,,,,0,,,60,64
57932,note_on,44,0,1,,,,,,,,,0,,,57,0
57936,note_on,4,0,1,,,,,,,,,0,,,53,66
57957,note_on,37,0,0,,,,,,,,,0,,,60,0
57959,note_on,23,0,1,,,,,,,,,0,,,47,0
57960,note_on,3,0,0,,,,,,,,,0,,,65,64
57980,note_on,21,0,1,,,,,,,,,0,,,53,0
57984,note_on,4,0,1,,,,,,,,,0,,,57,67
57997,note_on,37,0,0,,,,,,,,,0,,,65,0
58000,note_on,3,0,0,,,,,,,,,0,,,60,64
58028,note_on,44,0,1,,,,,,,,,0,,,57,0
58032,note_on,4,0,1,,,,,,,,,0,,,53,68
58037,note_on,37,0,0,,,,,,,,,0,,,60,0
58040,note_on,3,0,0,,,,,,,,,0,,,65,64
58055,note_on,15,0,0,,,,,,,,,0,,,72,0
58076,note_on,44,0,1,,,,,,,,,0,,,53,0
58077,note_on,22,0,0,,,,,,,,,0,,,65,0
58080,note_on,3,0,0,,,,,,,,,0,,,60,64
58080,note_on,4,0,1,,,,,,,,,0,,,48,80
58117,note_on,37,0,0,,,,,,,,,0,,,60,0
58120,note_on,3,0,0,,,,,,,,,0,,,65,64
58128,note_on,48,0,1,,,,,,,,,0,,,57,69
58157,note_on,37,0,0,,,,,,,,,0,,,65,0
58160,note_on,3,0,0,,,,,,,,,0,,,60,64
58172,note_on,44,0,1,,,,,,,,,0,,,57,0
58176,note_on,4,0,1,,,,,,,,,0,,,53,70
58197,note_on,37,0,0,,,,,,,,,0,,,60,0
58199,note_on,23,0,1,,,,,,,,,0,,,48,0
58200,note_on,3,0,0,,,,,,,,,0,,,65,64
58220,note_on,21,0,1,,,,,,,,,0,,,53,0
58224,note_on,4,0,1,,,,,,,,,0,,,57,71
58237,note_on,37,0,0,,,,,,,,,0,,,65,0
58240,note_on,3,0,0,,,,,,,,,0,,,60,64
58268,note_on,44,0,1,,,,,,,,,0,,,57,0
58272,note_on,4,0,1,,,,,,,,,0,,,53,72
58277,note_on,37,0,0,,,,,,,,,0,,,60,0
58280,note_on,3,0,0,,,,,,,,,0,,,65,64
58316,note_on,44,0,1,,,,,,,,,0,,,53,0
58317,note_on,37,0,0,,,,,,,,,0,,,65,0
58320,note_on,3,0,0,,,,,,,,,0,,,60,64
58320,note_on,4,0,1,,,,,,,,,0,,,49,85
58357,note_on,37,0,0,,,,,,,,,0,,,60,0
58360,note_on,3,0,0,,,,,,,,,0,,,65,64
58368,note_on,48,0,1,,,,,,,,,0,,,57,73
58397,note_on,37,0,0,,,,,,,,,0,,,65,0
58400,note_on,3,0,0,,,,,,,,,0,,,60,64
58412,note_on,44,0,1,,,,,,,,,0,,,57,0
58416,note_on,4,0,1,,,,,,,,,0,,,53,73
58437,note_on,37,0,0,,,,,,,,,0,,,60,0
58439,note_on,23,0,1,,,,,,,,,0,,,49,0
58440,note_on,3,0,0,,,,,,,,,0,,,65,64
58460,note_on,21,0,1,,,,,,,,,0,,,53,0
58464,note_on,4,0,1,,,,,,,,,0,,,57,73
58477,note_on,37,0,0,,,,,,,,,0,,,65,0
58480,note_on,3,0,0,,,,,,,,,0,,,60,64
58508,note_on,44,0,1,,,,,,,,,0,,,57,0
58512,note_on,4,0,1,,,,,,,,,0,,,53,73
58517,note_on,37,0,0,,,,,,,,,0,,,60,0
58520,note_on,3,0,0,,,,,,,,,0,,,65,64
58556,note_on,44,0,1,,,,,,,,,0,,,53,0
58557,note_on,37,0,0,,,,,,,,,0,,,65,0
58560,note_on,4,0,1,,,,,,,,,0,,,48,85
58560,note_on,3,0,0,,,,,,,,,0,,,60,64
58597,note_on,37,0,0,,,,,,,,,0,,,60,0
58600,note_on,3,0,0,,,,,,,,,0,,,65,64
58608,note_on,48,0,1,,,,,,,,,0,,,57,72
58637,note_on,37,0,0,,,,,,,,,0,,,65,0
58640,note_on,3,0,0,,,,,,,,,0,,,60,64
58652,note_on,44,0,1,,,,,,,,,0,,,57,0
58656,note_on,4,0,1,,,,,,,,,0,,,53,71
58677,note_on,37,0,0,,,,,,,,,0,,,60,0
58679,note_on,23,0,1,,,,,,,,,0,,,48,0
58680,note_on,3,0,0,,,,,,,,,0,,,65,64
58700,note_on,21,0,1,,,,,,,,,0,,,53,0
58704,note_on,4,0,1,,,,,,,,,0,,,57,70
58717,note_on,37,0,0,,,,,,,,,0,,,65,0
58720,note_on,3,0,0,,,,,,,,,0,,,60,64
58748,note_on,44,0,1,,,,,,,,,0,,,57,0
58752,note_on,4,0,1,,,,,,,,,0,,,53,69
58757,note_on,37,0,0,,,,,,,,,0,,,60,0
58760,note_on,3,0,0,,,,,,,,,0,,,65,64
58796,note_on,44,0,1,,,,,,,,,0,,,53,0
58797,note_on,37,0,0,,,,,,,,,0,,,65,0
58800,note_on,0,0,0,,,,,,,,,0,,,72,75
58800,note_on,3,0,0,,,,,,,,,0,,,69,75
58800,note_on,4,0,1,,,,,,,,,0,,,45,80
58801,control_change,1,0,1,,,,,,,64,0,0,,,,
58802,control_change,1,0,1,,,,,,,64,127,0,,,,
58848,note_on,46,0,1,,,,,,,,,0,,,57,68
58848,note_on,48,0,0,,,,,,,,,0,,,60,64
58892,note_on,44,0,0,,,,,,,,,0,,,60,0
58892,note_on,44,0,1,,,,,,,,,0,,,57,0
58896,note_on,4,0,0,,,,,,,,,0,,,65,64
58896,note_on,4,0,1,,,,,,,,,0,,,53,67
58919,note_on,23,0,1,,,,,,,,,0,,,45,0
58940,note_on,44,0,0,,,,,,,,,0,,,65,0
58940,note_on,21,0,1,,,,,,,,,0,,,53,0
58944,note_on,4,0,0,,,,,,,,,0,,,60,64
58944,note_on,4,0,1,,,,,,,,,0,,,57,66
58988,note_on,44,0,0,,,,,,,,,0,,,60,0
58988,note_on,44,0,1,,,,,,,,,0,,,57,0
58992,note_on,4,0,1,,,,,,,,,0,,,53,65
58992,note_on,4,0,0,,,,,,,,,0,,,65,64
59027,note_on,35,0,0,,,,,,,,,0,,,69,0
59027,note_on,0,0,0,,,,,,,,,0,,,72,0
59036,note_on,9,0,0,,,,,,,,,0,,,65,0
59036,note_on,44,0,1,,,,,,,,,0,,,53,0
59040,note_on,4,0,1,,,,,,,,,0,,,41,75
59040,note_on,0,0,0,,,,,,,,,0,,,69,64
59040,time_signature,4,1,0,3,8,24,8,,,,,,,,,
59040,note_on,0,0,0,,,,,,,,,0,,,72,75
59041,control_change,1,0,1,,,,,,,64,0,0,,,,
59042,control_change,1,0,1,,,,,,,64,127,0,,,,
59087,note_on,47,0,0,,,,,,,,,0,,,69,0
59088,note_on,1,0,0,,,,,,,,,0,,,61,64
59135,note_on,47,0,0,,,,,,,,,0,,,61,0
59136,note_on,1,0,0,,,,,,,,,0,,,65,64
59159,note_on,23,0,0,,,,,,,,,0,,,72,0
59183,note_on,24,0,0,,,,,,,,,0,,,65,0
59184,note_on,1,0,0,,,,,,,,,0,,,61,64
59231,note_on,47,0,0,,,,,,,,,0,,,61,0
59232,note_on,1,0,0,,,,,,,,,0,,,65,64
59267,note_on,225,0,1,,,,,,,,,0,,,41,0
59279,note_on,47,0,0,,,,,,,,,0,,,65,0
59280,note_on,0,0,0,,,,,,,,,0,,,69,75
59280,note_on,13,0,1,,,,,,,,,0,,,49,64
59280,note_on,1,0,0,,,,,,,,,0,,,66,64
59311,note_on,31,0,1,,,,,,,,,0,,,49,0
59312,note_on,1,0,1,,,,,,,,,0,,,50,64
59327,note_on,47,0,0,,,,,,,,,0,,,66,0
59328,note_on,1,0,0,,,,,,,,,0,,,61,64
59343,note_on,31,0,1,,,,,,,,,0,,,50,0
59344,note_on,1,0,1,,,,,,,,,0,,,51,65
59375,note_on,31,0,1,,,,,,,,,0,,,51,0
59375,note_on,47,0,0,,,,,,,,,0,,,61,0
59376,note_on,1,0,0,,,,,,,,,0,,,65,64
59376,note_on,1,0,1,,,,,,,,,0,,,52,66
59399,note_on,23,0,0,,,,,,,,,0,,,69,0
59407,note_on,31,0,1,,,,,,,,,0,,,52,0
59408,note_on,1,0,1,,,,,,,,,0,,,53,67
59423,note_on,24,0,0,,,,,,,,,0,,,65,0
59424,note_on,1,0,0,,,,,,,,,0,,,61,64
59439,note_on,31,0,1,,,,,,,,,0,,,53,0
59440,note_on,1,0,1,,,,,,,,,0,,,54,68
59471,note_on,31,0,1,,,,,,,,,0,,,54,0
59471,note_on,47,0,0,,,,,,,,,0,,,61,0
59472,note_on,1,0,0,,,,,,,,,0,,,65,64
59472,note_on,1,0,1,,,,,,,,,0,,,55,68
59503,note_on,31,0,1,,,,,,,,,0,,,55,0
59504,note_on,1,0,1,,,,,,,,,0,,,57,70
59519,note_on,47,0,0,,,,,,,,,0,,,65,0
59520,note_on,1,0,0,,,,,,,,,0,,,67,64
59520,note_on,0,0,0,,,,,,,,,0,,,70,75
59535,note_on,31,0,1,,,,,,,,,0,,,57,0
59536,note_on,1,0,1,,,,,,,,,0,,,55,70
59564,note_on,44,0,0,,,,,,,,,0,,,67,0
59567,note_on,31,0,1,,,,,,,,,0,,,55,0
59568,note_on,1,0,1,,,,,,,,,0,,,54,69
59568,note_on,4,0,0,,,,,,,,,0,,,61,64
59599,note_on,31,0,1,,,,,,,,,0,,,54,0
59600,note_on,1,0,1,,,,,,,,,0,,,53,68
59612,note_on,44,0,0,,,,,,,,,0,,,61,0
59616,note_on,4,0,0,,,,,,,,,0,,,65,64
59631,note_on,31,0,1,,,,,,,,,0,,,53,0
59632,note_on,1,0,1,,,,,,,,,0,,,52,68
59639,note_on,23,0,0,,,,,,,,,0,,,70,0
59660,note_on,21,0,0,,,,,,,,,0,,,65,0
59663,note_on,31,0,1,,,,,,,,,0,,,52,0
59664,note_on,4,0,0,,,,,,,,,0,,,61,64
59664,note_on,1,0,1,,,,,,,,,0,,,51,67
59695,note_on,31,0,1,,,,,,,,,0,,,51,0
59696,note_on,1,0,1,,,,,,,,,0,,,50,66
59708,note_on,44,0,0,,,,,,,,,0,,,61,0
59712,note_on,4,0,0,,,,,,,,,0,,,65,64
59727,note_on,31,0,1,,,,,,,,,0,,,50,0
59728,note_on,1,0,1,,,,,,,,,0,,,49,64
59756,note_on,44,0,0,,,,,,,,,0,,,65,0
59757,note_on,29,0,1,,,,,,,,,0,,,49,0
59760,note_on,3,0,1,,,,,,,,,0,,,46,75
59760,note_on,0,0,0,,,,,,,,,0,,,72,75
59760,note_on,4,0,0,,,,,,,,,0,,,69,64
59761,control_change,1,0,1,,,,,,,64,0,0,,,,
59762,control_change,1,0,1,,,,,,,64,127,0,,,,
59807,note_on,47,0,0,,,,,,,,,0,,,69,0
59808,note_on,1,0,0,,,,,,,,,0,,,61,64
59855,note_on,47,0,0,,,,,,,,,0,,,61,0
59856,note_on,1,0,0,,,,,,,,,0,,,65,64
59879,note_on,23,0,0,,,,,,,,,0,,,72,0
59903,note_on,24,0,0,,,,,,,,,0,,,65,0
59904,note_on,1,0,0,,,,,,,,,0,,,61,64
59951,note_on,47,0,0,,,,,,,,,0,,,61,0
59952,note_on,1,0,0,,,,,,,,,0,,,65,64
59987,note_on,225,0,1,,,,,,,,,0,,,46,0
59999,note_on,47,0,0,,,,,,,,,0,,,65,0
60000,note_on,1,0,0,,,,,,,,,0,,,67,64
60000,note_on,0,0,0,,,,,,,,,0,,,70,75
60000,note_on,13,0,1,,,,,,,,,0,,,49,64
60031,note_on,31,0,1,,,,,,,,,0,,,49,0
60032,note_on,1,0,1,,,,,,,,,0,,,50,64
60047,note_on,47,0,0,,,,,,,,,0,,,67,0
60048,note_on,1,0,0,,,,,,,,,0,,,61,64
60063,note_on,31,0,1,,,,,,,,,0,,,50,0
60064,note_on,1,0,1,,,,,,,,,0,,,51,65
60095,note_on,47,0,0,,,,,,,,,0,,,61,0
60095,note_on,31,0,1,,,,,,,,,0,,,51,0
60096,note_on,1,0,0,,,,,,,,,0,,,65,64
60096,note_on,1,0,1,,,,,,,,,0,,,52,66
60119,note_on,23,0,0,,,,,,,,,0,,,70,0
60127,note_on,31,0,1,,,,,,,,,0,,,52,0
60128,note_on,1,0,1,,,,,,,,,0,,,53,68
60143,note_on,24,0,0,,,,,,,,,0,,,65,0
60144,note_on,1,0,0,,,,,,,,,0,,,61,64
60159,note_on,31,0,1,,,,,,,,,0,,,53,0
60160,note_on,1,0,1,,,,,,,,,0,,,54,68
60191,note_on,47,0,0,,,,,,,,,0,,,61,0
60191,note_on,31,0,1,,,,,,,,,0,,,54,0
60192,note_on,1,0,0,,,,,,,,,0,,,65,64
60192,note_on,1,0,1,,,,,,,,,0,,,55,70
60223,note_on,31,0,1,,,,,,,,,0,,,55,0
60224,note_on,1,0,1,,,,,,,,,0,,,57,70
60239,note_on,47,0,0,,,,,,,,,0,,,65,0
60240,note_on,1,0,0,,,,,,,,,0,,,69,64
60240,note_on,0,0,0,,,,,,,,,0,,,69,75
60240,note_on,0,0,0,,,,,,,,,0,,,69,0
60255,note_on,31,0,1,,,,,,,,,0,,,57,0
60256,note_on,1,0,1,,,,,,,,,0,,,55,70
60287,note_on,31,0,1,,,,,,,,,0,,,55,0
60288,note_on,48,0,0,,,,,,,,,0,,,61,64
60288,note_on,1,0,1,,,,,,,,,0,,,54,69
60319,note_on,31,0,1,,,,,,,,,0,,,54,0
60320,note_on,1,0,1,,,,,,,,,0,,,53,68
60332,note_on,44,0,0,,,,,,,,,0,,,61,0
60336,note_on,4,0,0,,,,,,,,,0,,,65,64
60351,note_on,31,0,1,,,,,,,,,0,,,53,0
60352,note_on,1,0,1,,,,,,,,,0,,,52,68
60359,note_on,23,0,0,,,,,,,,,0,,,69,0
60380,note_on,21,0,0,,,,,,,,,0,,,65,0
60383,note_on,31,0,1,,,,,,,,,0,,,52,0
60384,note_on,4,0,0,,,,,,,,,0,,,61,64
60384,note_on,1,0,1,,,,,,,,,0,,,51,67
60415,note_on,31,0,1,,,,,,,,,0,,,51,0
60416,note_on,1,0,1,,,,,,,,,0,,,50,66
60428,note_on,44,0,0,,,,,,,,,0,,,61,0
60432,note_on,4,0,0,,,,,,,,,0,,,65,64
60447,note_on,31,0,1,,,,,,,,,0,,,50,0
60448,note_on,1,0,1,,,,,,,,,0,,,49,65
60476,note_on,44,0,0,,,,,,,,,0,,,65,0
60477,note_on,29,0,1,,,,,,,,,0,,,49,0
60480,note_on,0,0,0,,,,,,,,,0,,,72,75
60480,note_on,3,0,1,,,,,,,,,0,,,41,75
60480,time_signature,4,1,0,6,8,24,8,,,,,,,,,
60480,note_on,0,0,0,,,,,,,,,0,,,69,64
60481,control_change,1,0,1,,,,,,,64,0,0,,,,
60482,control_change,1,0,1,,,,,,,64,127,0,,,,
60524,note_on,44,0,0,,,,,,,,,0,,,69,0
60528,note_on,46,0,1,,,,,,,,,0,,,57,64
60528,note_on,4,0,0,,,,,,,,,0,,,60,64
60572,note_on,44,0,1,,,,,,,,,0,,,57,0
60572,note_on,44,0,0,,,,,,,,,0,,,60,0
60576,note_on,4,0,0,,,,,,,,,0,,,65,64
60576,note_on,4,0,1,,,,,,,,,0,,,48,64
60620,note_on,44,0,0,,,,,,,,,0,,,65,0
60620,note_on,44,0,1,,,,,,,,,0,,,48,0
60624,note_on,4,0,1,,,,,,,,,0,,,57,64
60624,note_on,4,0,0,,,,,,,,,0,,,60,64
60668,note_on,44,0,0,,,,,,,,,0,,,60,0
60668,note_on,44,0,1,,,,,,,,,0,,,57,0
60672,note_on,4,0,1,,,,,,,,,0,,,48,64
60672,note_on,4,0,0,,,,,,,,,0,,,65,64
60707,note_on,35,0,1,,,,,,,,,0,,,41,0
60716,note_on,44,0,0,,,,,,,,,0,,,65,0
60716,note_on,9,0,1,,,,,,,,,0,,,48,0
60720,note_on,0,0,0,,,,,,,,,0,,,60,64
60720,note_on,4,0,1,,,,,,,,,0,,,40,75
60720,note_on,4,0,0,,,,,,,,,0,,,57,64
60721,control_change,1,0,1,,,,,,,64,0,0,,,,
60722,control_change,1,0,1,,,,,,,64,127,0,,,,
60757,note_on,37,0,0,,,,,,,,,0,,,57,0
60757,note_on,0,0,0,,,,,,,,,0,,,60,0
60760,note_on,3,0,0,,,,,,,,,0,,,65,64
60768,note_on,46,0,1,,,,,,,,,0,,,53,65
60797,note_on,37,0,0,,,,,,,,,0,,,65,0
60800,note_on,3,0,0,,,,,,,,,0,,,57,64
60800,note_on,0,0,0,,,,,,,,,0,,,60,64
60812,note_on,44,0,1,,,,,,,,,0,,,53,0
60816,note_on,4,0,1,,,,,,,,,0,,,45,66
60816,note_on,0,0,1,,,,,,,,,0,,,48,66
60837,note_on,0,0,0,,,,,,,,,0,,,60,0
60837,note_on,37,0,0,,,,,,,,,0,,,57,0
60840,note_on,3,0,0,,,,,,,,,0,,,65,64
60860,note_on,44,0,1,,,,,,,,,0,,,45,0
60860,note_on,0,0,1,,,,,,,,,0,,,48,0
60864,note_on,4,0,1,,,,,,,,,0,,,53,67
60877,note_on,37,0,0,,,,,,,,,0,,,65,0
60880,note_on,3,0,0,,,,,,,,,0,,,57,64
60880,note_on,0,0,0,,,,,,,,,0,,,60,64
60908,note_on,44,0,1,,,,,,,,,0,,,53,0
60912,note_on,0,0,1,,,,,,,,,0,,,48,68
60912,note_on,4,0,1,,,,,,,,,0,,,45,68
60917,note_on,0,0,0,,,,,,,,,0,,,60,0
60917,note_on,37,0,0,,,,,,,,,0,,,57,0
60920,note_on,3,0,0,,,,,,,,,0,,,65,64
60935,note_on,15,0,0,,,,,,,,,0,,,72,0
60947,note_on,35,0,1,,,,,,,,,0,,,40,0
60956,note_on,0,0,1,,,,,,,,,0,,,48,0
60956,note_on,9,0,1,,,,,,,,,0,,,45,0
60957,note_on,22,0,0,,,,,,,,,0,,,65,0
60960,note_on,0,0,0,,,,,,,,,0,,,60,64
60960,note_on,3,0,0,,,,,,,,,0,,,57,64
60960,note_on,4,0,1,,,,,,,,,0,,,41,80
60961,control_change,1,0,1,,,,,,,64,0,0,,,,
60962,control_change,1,0,1,,,,,,,64,127,0,,,,
60997,note_on,0,0,0,,,,,,,,,0,,,60,0
60997,note_on,37,0,0,,,,,,,,,0,,,57,0
61000,note_on,3,0,0,,,,,,,,,0,,,65,64
61008,note_on,46,0,1,,,,,,,,,0,,,53,69
61037,note_on,37,0,0,,,,,,,,,0,,,65,0
61040,note_on,3,0,0,,,,,,,,,0,,,57,64
61040,note_on,0,0,0,,,,,,,,,0,,,60,64
61052,note_on,44,0,1,,,,,,,,,0,,,53,0
61056,note_on,4,0,1,,,,,,,,,0,,,45,70
61056,note_on,0,0,1,,,,,,,,,0,,,48,70
61077,note_on,37,0,0,,,,,,,,,0,,,57,0
61077,note_on,0,0,0,,,,,,,,,0,,,60,0
61080,note_on,3,0,0,,,,,,,,,0,,,65,64
61100,note_on,44,0,1,,,,,,,,,0,,,45,0
61100,note_on,0,0,1,,,,,,,,,0,,,48,0
61104,note_on,4,0,1,,,,,,,,,0,,,53,71
61117,note_on,37,0,0,,,,,,,,,0,,,65,0
61120,note_on,3,0,0,,,,,,,,,0,,,57,64
61120,note_on,0,0,0,,,,,,,,,0,,,60,64
61148,note_on,44,0,1,,,,,,,,,0,,,53,0
61152,note_on,4,0,1,,,,,,,,,0,,,45,72
61152,note_on,0,0,1,,,,,,,,,0,,,48,72
61157,note_on,0,0,0,,,,,,,,,0,,,60,0
61157,note_on,37,0,0,,,,,,,,,0,,,57,0
61160,note_on,3,0,0,,,,,,,,,0,,,65,64
61187,note_on,35,0,1,,,,,,,,,0,,,41,0
61196,note_on,0,0,1,,,,,,,,,0,,,48,0
61196,note_on,9,0,1,,,,,,,,,0,,,45,0
61197,note_on,37,0,0,,,,,,,,,0,,,65,0
61200,note_on,3,0,0,,,,,,,,,0,,,57,64
61200,note_on,4,0,1,,,,,,,,,0,,,42,85
61200,note_on,0,0,0,,,,,,,,,0,,,60,64
61201,control_change,1,0,1,,,,,,,64,0,0,,,,
61202,control_change,1,0,1,,,,,,,64,127,0,,,,
61237,note_on,37,0,0,,,,,,,,,0,,,57,0
61237,note_on,0,0,0,,,,,,,,,0,,,60,0
61240,note_on,3,0,0,,,,,,,,,0,,,65,64
61248,note_on,46,0,1,,,,,,,,,0,,,53,73
61277,note_on,37,0,0,,,,,,,,,0,,,65,0
61280,note_on,3,0,0,,,,,,,,,0,,,57,64
61280,note_on,0,0,0,,,,,,,,,0,,,60,64
61292,note_on,44,0,1,,,,,,,,,0,,,53,0
61296,note_on,4,0,1,,,,,,,,,0,,,45,73
61296,note_on,0,0,1,,,,,,,,,0,,,48,73
61317,note_on,0,0,0,,,,,,,,,0,,,60,0
61317,note_on,37,0,0,,,,,,,,,0,,,57,0
61320,note_on,3,0,0,,,,,,,,,0,,,65,64
61340,note_on,44,0,1,,,,,,,,,0,,,45,0
61340,note_on,0,0,1,,,,,,,,,0,,,48,0
61344,note_on,4,0,1,,,,,,,,,0,,,53,73
61357,note_on,37,0,0,,,,,,,,,0,,,65,0
61360,note_on,3,0,0,,,,,,,,,0,,,57,64
61360,note_on,0,0,0,,,,,,,,,0,,,60,64
61388,note_on,44,0,1,,,,,,,,,0,,,53,0
61392,note_on,0,0,1,,,,,,,,,0,,,48,73
61392,note_on,4,0,1,,,,,,,,,0,,,45,73
61397,note_on,0,0,0,,,,,,,,,0,,,60,0
61397,note_on,37,0,0,,,,,,,,,0,,,57,0
61400,note_on,3,0,0,,,,,,,,,0,,,65,64
61427,note_on,35,0,1,,,,,,,,,0,,,42,0
61436,note_on,9,0,1,,,,,,,,,0,,,45,0
61436,note_on,0,0,1,,,,,,,,,0,,,48,0
61437,note_on,37,0,0,,,,,,,,,0,,,65,0
61440,note_on,4,0,1,,,,,,,,,0,,,41,85
61440,note_on,0,0,0,,,,,,,,,0,,,60,64
61440,note_on,3,0,0,,,,,,,,,0,,,57,64
61441,control_change,1,0,1,,,,,,,64,0,0,,,,
61442,control_change,1,0,1,,,,,,,64,127,0,,,,
61477,note_on,37,0,0,,,,,,,,,0,,,57,0
61477,note_on,0,0,0,,,,,,,,,0,,,60,0
61480,note_on,3,0,0,,,,,,,,,0,,,65,64
61488,note_on,46,0,1,,,,,,,,,0,,,53,73
61517,note_on,37,0,0,,,,,,,,,0,,,65,0
61520,note_on,0,0,0,,,,,,,,,0,,,60,64
61520,note_on,3,0,0,,,,,,,,,0,,,57,64
61532,note_on,44,0,1,,,,,,,,,0,,,53,0
61536,note_on,4,0,1,,,,,,,,,0,,,45,73
61536,note_on,0,0,1,,,,,,,,,0,,,48,73
61557,note_on,37,0,0,,,,,,,,,0,,,57,0
61557,note_on,0,0,0,,,,,,,,,0,,,60,0
61560,note_on,3,0,0,,,,,,,,,0,,,65,64
61580,note_on,0,0,1,,,,,,,,,0,,,48,0
61580,note_on,44,0,1,,,,,,,,,0,,,45,0
61584,note_on,4,0,1,,,,,,,,,0,,,53,73
61597,note_on,37,0,0,,,,,,,,,0,,,65,0
61600,note_on,0,0,0,,,,,,,,,0,,,60,64
61600,note_on,3,0,0,,,,,,,,,0,,,57,64
61628,note_on,44,0,1,,,,,,,,,0,,,53,0
61632,note_on,0,0,1,,,,,,,,,0,,,48,73
61632,note_on,4,0,1,,,,,,,,,0,,,45,73
61637,note_on,37,0,0,,,,,,,,,0,,,57,0
61637,note_on,0,0,0,,,,,,,,,0,,,60,0
61640,note_on,3,0,0,,,,,,,,,0,,,65,64
61667,note_on,35,0,1,,,,,,,,,0,,,41,0
61676,note_on,0,0,1,,,,,,,,,0,,,48,0
61676,note_on,9,0,1,,,,,,,,,0,,,45,0
61677,note_on,37,0,0,,,,,,,,,0,,,65,0
61680,note_on,4,0,1,,,,,,,,,0,,,36,85
61680,note_on,3,0,0,,,,,,,,,0,,,57,64
61680,note_on,0,0,0,,,,,,,,,0,,,57,0
61680,note_on,0,0,0,,,,,,,,,0,,,57,75
61680,note_on,0,0,0,,,,,,,,,0,,,69,75
61681,control_change,1,0,1,,,,,,,64,0,0,,,,
61682,control_change,1,0,1,,,,,,,64,127,0,,,,
61728,note_on,48,0,0,,,,,,,,,0,,,60,64
61728,note_on,46,0,1,,,,,,,,,0,,,53,71
61772,note_on,44,0,1,,,,,,,,,0,,,53,0
61772,note_on,44,0,0,,,,,,,,,0,,,60,0
61776,note_on,4,0,1,,,,,,,,,0,,,45,69
61776,note_on,0,0,1,,,,,,,,,0,,,48,69
61776,note_on,4,0,0,,,,,,,,,0,,,65,64
61820,note_on,44,0,1,,,,,,,,,0,,,45,0
61820,note_on,44,0,0,,,,,,,,,0,,,65,0
61820,note_on,0,0,1,,,,,,,,,0,,,48,0
61824,note_on,4,0,1,,,,,,,,,0,,,53,68
61824,note_on,4,0,0,,,,,,,,,0,,,60,64
61868,note_on,44,0,0,,,,,,,,,0,,,60,0
61868,note_on,44,0,1,,,,,,,,,0,,,53,0
61872,note_on,4,0,1,,,,,,,,,0,,,45,66
61872,note_on,0,0,1,,,,,,,,,0,,,48,66
61872,note_on,4,0,0,,,,,,,,,0,,,65,64
61907,note_on,0,0,0,,,,,,,,,0,,,69,0
61907,note_on,35,0,0,,,,,,,,,0,,,57,0
61907,note_on,35,0,1,,,,,,,,,0,,,36,0
61916,note_on,9,0,1,,,,,,,,,0,,,45,0
61916,note_on,0,0,1,,,,,,,,,0,,,48,0
61916,note_on,9,0,0,,,,,,,,,0,,,65,0
61920,set_tempo,4,1,0,,,,,,1499999,,,,,,,
61920,note_on,0,0,0,,,,,,,,,0,,,69,75
61920,note_on,4,0,1,,,,,,,,,0,,,34,75
61920,note_on,0,0,0,,,,,,,,,0,,,57,64
61920,note_on,0,0,0,,,,,,,,,0,,,57,75
61920,note_on,0,0,0,,,,,,,,,0,,,57,0
61921,control_change,1,0,1,,,,,,,64,0,0,,,,
61922,control_change,1,0,1,,,,,,,64,127,0,,,,
61968,note_on,0,0,0,,,,,,,,,0,,,61,64
61968,note_on,48,0,0,,,,,,,,,0,,,58,64
62015,note_on,47,0,0,,,,,,,,,0,,,58,0
62015,note_on,0,0,0,,,,,,,,,0,,,61,0
62016,note_on,1,0,0,,,,,,,,,0,,,64,64
62063,note_on,47,0,0,,,,,,,,,0,,,64,0
62064,note_on,1,0,0,,,,,,,,,0,,,58,64
62064,note_on,0,0,0,,,,,,,,,0,,,61,64
62111,note_on,0,0,0,,,,,,,,,0,,,61,0
62111,note_on,47,0,0,,,,,,,,,0,,,58,0
62112,note_on,1,0,0,,,,,,,,,0,,,64,64
62147,note_on,225,0,1,,,,,,,,,0,,,34,0
62159,note_on,47,0,0,,,,,,,,,0,,,57,0
62159,note_on,0,0,0,,,,,,,,,0,,,64,0
62159,note_on,0,0,0,,,,,,,,,0,,,69,0
62160,note_on,13,0,1,,,,,,,,,0,,,45,64
62160,note_on,0,0,0,,,,,,,,,0,,,54,0
62160,set_tempo,1,1,0,,,,,,1200000,,,,,,,
62160,note_on,0,0,0,,,,,,,,,0,,,54,64
62160,note_on,0,0,0,,,,,,,,,0,,,54,75
62160,note_on,0,0,0,,,,,,,,,0,,,66,75
62189,note_on,29,0,1,,,,,,,,,0,,,45,0
62190,note_on,1,0,1,,,,,,,,,0,,,46,64
62208,note_on,0,0,0,,,,,,,,,0,,,61,64
62208,note_on,48,0,0,,,,,,,,,0,,,58,64
62219,note_on,29,0,1,,,,,,,,,0,,,46,0
62220,note_on,1,0,1,,,,,,,,,0,,,47,65
62249,note_on,29,0,1,,,,,,,,,0,,,47,0
62250,note_on,1,0,1,,,,,,,,,0,,,48,67
62255,note_on,47,0,0,,,,,,,,,0,,,58,0
62255,note_on,0,0,0,,,,,,,,,0,,,61,0
62256,note_on,1,0,0,,,,,,,,,0,,,64,64
62279,note_on,29,0,1,,,,,,,,,0,,,48,0
62280,note_on,1,0,1,,,,,,,,,0,,,49,68
62303,note_on,47,0,0,,,,,,,,,0,,,64,0
62304,note_on,0,0,0,,,,,,,,,0,,,61,64
62304,note_on,1,0,0,,,,,,,,,0,,,58,64
62309,note_on,29,0,1,,,,,,,,,0,,,49,0
62310,note_on,1,0,1,,,,,,,,,0,,,50,70
62339,note_on,29,0,1,,,,,,,,,0,,,50,0
62340,note_on,1,0,1,,,,,,,,,0,,,51,70
62351,note_on,0,0,0,,,,,,,,,0,,,61,0
62351,note_on,47,0,0,,,,,,,,,0,,,58,0
62352,note_on,1,0,0,,,,,,,,,0,,,64,64
62369,note_on,29,0,1,,,,,,,,,0,,,51,0
62370,note_on,1,0,1,,,,,,,,,0,,,52,70
62399,note_on,29,0,1,,,,,,,,,0,,,52,0
62399,note_on,47,0,0,,,,,,,,,0,,,54,0
62399,note_on,0,0,0,,,,,,,,,0,,,66,0
62399,note_on,0,0,0,,,,,,,,,0,,,64,0
62400,note_on,0,0,0,,,,,,,,,0,,,55,0
62400,note_on,0,0,0,,,,,,,,,0,,,55,75
62400,note_on,1,0,1,,,,,,,,,0,,,53,70
62400,note_on,1,0,0,,,,,,,,,0,,,55,64
62400,note_on,0,0,0,,,,,,,,,0,,,67,75
62429,note_on,29,0,1,,,,,,,,,0,,,53,0
62430,note_on,1,0,1,,,,,,,,,0,,,52,70
62448,note_on,48,0,0,,,,,,,,,0,,,58,64
62448,note_on,0,0,0,,,,,,,,,0,,,61,64
62459,note_on,29,0,1,,,,,,,,,0,,,52,0
62460,note_on,1,0,1,,,,,,,,,0,,,51,69
62489,note_on,29,0,1,,,,,,,,,0,,,51,0
62490,note_on,1,0,1,,,,,,,,,0,,,50,68
62492,note_on,0,0,0,,,,,,,,,0,,,61,0
62492,note_on,44,0,0,,,,,,,,,0,,,58,0
62496,note_on,4,0,0,,,,,,,,,0,,,64,64
62519,note_on,29,0,1,,,,,,,,,0,,,50,0
62520,note_on,1,0,1,,,,,,,,,0,,,49,68
62540,note_on,44,0,0,,,,,,,,,0,,,64,0
62544,note_on,4,0,0,,,,,,,,,0,,,58,64
62544,note_on,0,0,0,,,,,,,,,0,,,61,64
62549,note_on,29,0,1,,,,,,,,,0,,,49,0
62550,note_on,1,0,1,,,,,,,,,0,,,48,67
62579,note_on,29,0,1,,,,,,,,,0,,,48,0
62580,note_on,1,0,1,,,,,,,,,0,,,47,66
62588,note_on,44,0,0,,,,,,,,,0,,,58,0
62588,note_on,0,0,0,,,,,,,,,0,,,61,0
62592,note_on,4,0,0,,,,,,,,,0,,,64,64
62609,note_on,29,0,1,,,,,,,,,0,,,47,0
62610,note_on,1,0,1,,,,,,,,,0,,,46,64
62636,note_on,44,0,0,,,,,,,,,0,,,64,0
62637,note_on,27,0,1,,,,,,,,,0,,,46,0
62639,note_on,3,0,0,,,,,,,,,0,,,55,0
62639,note_on,0,0,0,,,,,,,,,0,,,67,0
62640,note_on,0,0,0,,,,,,,,,0,,,69,75
62640,note_on,0,0,0,,,,,,,,,0,,,57,0
62640,note_on,1,0,0,,,,,,,,,0,,,57,64
62640,note_on,0,0,0,,,,,,,,,0,,,57,75
62640,note_on,3,0,1,,,,,,,,,0,,,37,75
62641,control_change,1,0,1,,,,,,,64,0,0,,,,
62642,control_change,1,0,1,,,,,,,64,127,0,,,,
62688,note_on,0,0,0,,,,,,,,,0,,,61,64
62688,note_on,48,0,0,,,,,,,,,0,,,58,64
62735,note_on,0,0,0,,,,,,,,,0,,,61,0
62735,note_on,47,0,0,,,,,,,,,0,,,58,0
62736,note_on,1,0,0,,,,,,,,,0,,,64,64
62783,note_on,47,0,0,,,,,,,,,0,,,64,0
62784,note_on,0,0,0,,,,,,,,,0,,,61,64
62784,note_on,1,0,0,,,,,,,,,0,,,58,64
62831,note_on,0,0,0,,,,,,,,,0,,,61,0
62831,note_on,47,0,0,,,,,,,,,0,,,58,0
62832,note_on,1,0,0,,,,,,,,,0,,,64,64
62867,note_on,225,0,1,,,,,,,,,0,,,37,0
62879,note_on,0,0,0,,,,,,,,,0,,,64,0
62879,note_on,0,0,0,,,,,,,,,0,,,69,0
62879,note_on,47,0,0,,,,,,,,,0,,,57,0
62880,note_on,1,0,0,,,,,,,,,0,,,55,64
62880,note_on,0,0,0,,,,,,,,,0,,,55,0
62880,note_on,0,0,0,,,,,,,,,0,,,55,75
62880,note_on,13,0,1,,,,,,,,,0,,,45,64
62880,note_on,0,0,0,,,,,,,,,0,,,67,75
62909,note_on,29,0,1,,,,,,,,,0,,,45,0
62910,note_on,1,0,1,,,,,,,,,0,,,46,64
62928,note_on,0,0,0,,,,,,,,,0,,,61,64
62928,note_on,48,0,0,,,,,,,,,0,,,58,64
62939,note_on,29,0,1,,,,,,,,,0,,,46,0
62940,note_on,1,0,1,,,,,,,,,0,,,47,65
62969,note_on,29,0,1,,,,,,,,,0,,,47,0
62970,note_on,1,0,1,,,,,,,,,0,,,48,66
62975,note_on,0,0,0,,,,,,,,,0,,,61,0
62975,note_on,47,0,0,,,,,,,,,0,,,58,0
62976,note_on,1,0,0,,,,,,,,,0,,,64,64
62999,note_on,29,0,1,,,,,,,,,0,,,48,0
63000,note_on,1,0,1,,,,,,,,,0,,,49,67
63023,note_on,47,0,0,,,,,,,,,0,,,64,0
63024,note_on,1,0,0,,,,,,,,,0,,,58,64
63024,note_on,0,0,0,,,,,,,,,0,,,61,64
63029,note_on,29,0,1,,,,,,,,,0,,,49,0
63030,note_on,1,0,1,,,,,,,,,0,,,50,68
63059,note_on,29,0,1,,,,,,,,,0,,,50,0
63060,note_on,1,0,1,,,,,,,,,0,,,51,68
63071,note_on,47,0,0,,,,,,,,,0,,,58,0
63071,note_on,0,0,0,,,,,,,,,0,,,61,0
63072,note_on,1,0,0,,,,,,,,,0,,,64,64
63089,note_on,29,0,1,,,,,,,,,0,,,51,0
63090,note_on,1,0,1,,,,,,,,,0,,,52,70
63119,note_on,0,0,0,,,,,,,,,0,,,64,0
63119,note_on,0,0,0,,,,,,,,,0,,,67,0
63119,note_on,29,0,1,,,,,,,,,0,,,52,0
63119,note_on,47,0,0,,,,,,,,,0,,,55,0
63120,note_on,0,0,0,,,,,,,,,0,,,55,0
63120,note_on,0,0,0,,,,,,,,,0,,,55,75
63120,note_on,0,0,0,,,,,,,,,0,,,65,75
63120,note_on,1,0,1,,,,,,,,,0,,,53,70
63120,note_on,1,0,0,,,,,,,,,0,,,55,64
63149,note_on,29,0,1,,,,,,,,,0,,,53,0
63150,note_on,1,0,1,,,,,,,,,0,,,52,70
63168,note_on,48,0,0,,,,,,,,,0,,,58,64
63179,note_on,29,0,1,,,,,,,,,0,,,52,0
63180,note_on,1,0,1,,,,,,,,,0,,,51,69
63209,note_on,29,0,1,,,,,,,,,0,,,51,0
63210,note_on,1,0,1,,,,,,,,,0,,,50,68
63212,note_on,44,0,0,,,,,,,,,0,,,58,0
63216,note_on,4,0,0,,,,,,,,,0,,,61,64
63239,note_on,29,0,1,,,,,,,,,0,,,50,0
63240,note_on,1,0,1,,,,,,,,,0,,,49,68
63260,note_on,44,0,0,,,,,,,,,0,,,61,0
63264,note_on,4,0,0,,,,,,,,,0,,,58,64
63269,note_on,29,0,1,,,,,,,,,0,,,49,0
63270,note_on,1,0,1,,,,,,,,,0,,,48,67
63299,note_on,29,0,1,,,,,,,,,0,,,48,0
63300,note_on,1,0,1,,,,,,,,,0,,,47,66
63308,note_on,44,0,0,,,,,,,,,0,,,58,0
63312,note_on,4,0,0,,,,,,,,,0,,,61,64
63329,note_on,29,0,1,,,,,,,,,0,,,47,0
63330,note_on,1,0,1,,,,,,,,,0,,,46,65
63356,note_on,44,0,0,,,,,,,,,0,,,61,0
63357,note_on,27,0,1,,,,,,,,,0,,,46,0
63359,note_on,0,0,0,,,,,,,,,0,,,65,0
63359,note_on,3,0,0,,,,,,,,,0,,,55,0
63360,note_on,0,0,0,,,,,,,,,0,,,57,64
63360,note_on,3,0,1,,,,,,,,,0,,,29,75
63360,time_signature,1,1,0,3,8,24,8,,,,,,,,,
63360,note_on,0,0,0,,,,,,,,,0,,,69,75
63360,note_on,0,0,0,,,,,,,,,0,,,57,0
63360,note_on,0,0,0,,,,,,,,,0,,,57,75
63361,control_change,1,0,1,,,,,,,64,0,0,,,,
63362,control_change,1,0,1,,,,,,,64,127,0,,,,
63408,note_on,48,0,0,,,,,,,,,0,,,60,64
63452,note_on,44,0,0,,,,,,,,,0,,,60,0
63456,note_on,4,0,0,,,,,,,,,0,,,65,64
63500,note_on,44,0,0,,,,,,,,,0,,,65,0
63504,note_on,4,0,0,,,,,,,,,0,,,60,64
63548,note_on,44,0,0,,,,,,,,,0,,,60,0
63552,note_on,4,0,0,,,,,,,,,0,,,65,64
63587,note_on,225,0,1,,,,,,,,,0,,,29,0
63596,note_on,44,0,0,,,,,,,,,0,,,65,0
63600,note_on,13,0,1,,,,,,,,,0,,,40,64
63600,note_on,4,0,0,,,,,,,,,0,,,60,64
63637,note_on,37,0,0,,,,,,,,,0,,,60,0
63639,note_on,39,0,1,,,,,,,,,0,,,40,0
63640,note_on,1,0,1,,,,,,,,,0,,,41,64
63640,note_on,3,0,0,,,,,,,,,0,,,65,64
63677,note_on,37,0,0,,,,,,,,,0,,,65,0
63679,note_on,39,0,1,,,,,,,,,0,,,41,0
63680,note_on,3,0,0,,,,,,,,,0,,,60,64
63680,note_on,1,0,1,,,,,,,,,0,,,42,64
63717,note_on,37,0,0,,,,,,,,,0,,,60,0
63719,note_on,39,0,1,,,,,,,,,0,,,42,0
63720,note_on,3,0,0,,,,,,,,,0,,,65,64
63720,note_on,1,0,1,,,,,,,,,0,,,43,64
63757,note_on,37,0,0,,,,,,,,,0,,,65,0
63759,note_on,39,0,1,,,,,,,,,0,,,43,0
63760,note_on,1,0,1,,,,,,,,,0,,,44,64
63760,note_on,3,0,0,,,,,,,,,0,,,60,64
63797,note_on,37,0,0,,,,,,,,,0,,,60,0
63799,note_on,39,0,1,,,,,,,,,0,,,44,0
63800,note_on,1,0,1,,,,,,,,,0,,,45,65
63800,note_on,3,0,0,,,,,,,,,0,,,65,64
63837,note_on,37,0,0,,,,,,,,,0,,,65,0
63839,note_on,39,0,1,,,,,,,,,0,,,45,0
63840,note_on,1,0,1,,,,,,,,,0,,,46,66
63840,note_on,3,0,0,,,,,,,,,0,,,60,64
63873,note_on,33,0,1,,,,,,,,,0,,,46,0
63874,note_on,1,0,1,,,,,,,,,0,,,47,67
63877,note_on,37,0,0,,,,,,,,,0,,,60,0
63880,note_on,3,0,0,,,,,,,,,0,,,65,64
63907,note_on,33,0,1,,,,,,,,,0,,,47,0
63909,note_on,2,0,1,,,,,,,,,0,,,48,68
63917,note_on,37,0,0,,,,,,,,,0,,,65,0
63920,note_on,3,0,0,,,,,,,,,0,,,60,64
63942,note_on,33,0,1,,,,,,,,,0,,,48,0
63943,note_on,1,0,1,,,,,,,,,0,,,49,68
63957,note_on,37,0,0,,,,,,,,,0,,,60,0
63960,note_on,3,0,0,,,,,,,,,0,,,65,64
63976,note_on,33,0,1,,,,,,,,,0,,,49,0
63977,note_on,1,0,1,,,,,,,,,0,,,50,68
63997,note_on,37,0,0,,,,,,,,,0,,,65,0
64000,note_on,3,0,0,,,,,,,,,0,,,60,64
64010,note_on,33,0,1,,,,,,,,,0,,,50,0
64011,note_on,1,0,1,,,,,,,,,0,,,51,69
64037,note_on,37,0,0,,,,,,,,,0,,,60,0
64040,note_on,3,0,0,,,,,,,,,0,,,65,64
64043,note_on,3,0,0,,,,,,,,,0,,,57,0
64043,note_on,0,0,0,,,,,,,,,0,,,69,0
64044,note_on,33,0,1,,,,,,,,,0,,,51,0
64046,note_on,2,0,1,,,,,,,,,0,,,52,70
64077,note_on,34,0,0,,,,,,,,,0,,,65,0
64079,note_on,33,0,1,,,,,,,,,0,,,52,0
64080,note_on,0,0,0,,,,,,,,,0,,,57,75
64080,note_on,0,0,0,,,,,,,,,0,,,69,75
64080,note_on,0,0,1,,,,,,,,,0,,,37,82
64080,note_on,3,0,0,,,,,,,,,0,,,57,64
64080,note_on,1,0,1,,,,,,,,,0,,,53,70
64080,note_on,0,0,0,,,,,,,,,0,,,57,0
64081,control_change,1,0,1,,,,,,,64,0,0,,,,
64082,control_change,1,0,1,,,,,,,64,127,0,,,,
64109,note_on,27,0,1,,,,,,,,,0,,,53,0
64110,note_on,1,0,1,,,,,,,,,0,,,52,70
64128,note_on,48,0,0,,,,,,,,,0,,,58,64
64128,note_on,0,0,0,,,,,,,,,0,,,61,64
64139,note_on,29,0,1,,,,,,,,,0,,,52,0
64140,note_on,1,0,1,,,,,,,,,0,,,51,70
64169,note_on,29,0,1,,,,,,,,,0,,,51,0
64170,note_on,1,0,1,,,,,,,,,0,,,50,70
64172,note_on,44,0,0,,,,,,,,,0,,,58,0
64172,note_on,0,0,0,,,,,,,,,0,,,61,0
64176,note_on,4,0,0,,,,,,,,,0,,,64,63
64199,note_on,29,0,1,,,,,,,,,0,,,50,0
64200,note_on,1,0,1,,,,,,,,,0,,,49,70
64220,note_on,44,0,0,,,,,,,,,0,,,64,0
64224,note_on,0,0,0,,,,,,,,,0,,,61,63
64224,note_on,4,0,0,,,,,,,,,0,,,58,63
64229,note_on,29,0,1,,,,,,,,,0,,,49,0
64230,note_on,1,0,1,,,,,,,,,0,,,48,70
64259,note_on,29,0,1,,,,,,,,,0,,,48,0
64260,note_on,1,0,1,,,,,,,,,0,,,47,70
64268,note_on,0,0,0,,,,,,,,,0,,,61,0
64268,note_on,44,0,0,,,,,,,,,0,,,58,0
64272,note_on,4,0,0,,,,,,,,,0,,,64,63
64289,note_on,29,0,1,,,,,,,,,0,,,47,0
64290,note_on,1,0,1,,,,,,,,,0,,,46,70
64307,note_on,0,0,0,,,,,,,,,0,,,69,0
64307,note_on,35,0,0,,,,,,,,,0,,,57,0
64316,note_on,9,0,0,,,,,,,,,0,,,64,0
64319,note_on,29,0,1,,,,,,,,,0,,,37,0
64319,note_on,0,0,1,,,,,,,,,0,,,46,0
64320,note_on,1,0,1,,,,,,,,,0,,,45,70
64320,note_on,4,0,0,,,,,,,,,0,,,55,62
64320,note_on,0,0,0,,,,,,,,,0,,,67,72
64320,note_on,0,0,0,,,,,,,,,0,,,55,72
64320,note_on,0,0,0,,,,,,,,,0,,,55,0
64349,note_on,29,0,1,,,,,,,,,0,,,45,0
64350,note_on,1,0,1,,,,,,,,,0,,,44,70
64368,note_on,0,0,0,,,,,,,,,0,,,61,61
64368,note_on,48,0,0,,,,,,,,,0,,,58,61
64379,note_on,29,0,1,,,,,,,,,0,,,44,0
64380,note_on,1,0,1,,,,,,,,,0,,,43,70
64409,note_on,29,0,1,,,,,,,,,0,,,43,0
64410,note_on,1,0,1,,,,,,,,,0,,,42,70
64412,note_on,0,0,0,,,,,,,,,0,,,61,0
64412,note_on,44,0,0,,,,,,,,,0,,,58,0
64416,note_on,4,0,0,,,,,,,,,0,,,64,60
64439,note_on,29,0,1,,,,,,,,,0,,,42,0
64440,note_on,1,0,1,,,,,,,,,0,,,41,70
64460,note_on,44,0,0,,,,,,,,,0,,,64,0
64464,note_on,4,0,0,,,,,,,,,0,,,58,60
64464,note_on,0,0,0,,,,,,,,,0,,,61,60
64469,note_on,29,0,1,,,,,,,,,0,,,41,0
64470,note_on,1,0,1,,,,,,,,,0,,,40,69
64499,note_on,29,0,1,,,,,,,,,0,,,40,0
64500,note_on,1,0,1,,,,,,,,,0,,,39,69
64508,note_on,0,0,0,,,,,,,,,0,,,61,0
64508,note_on,44,0,0,,,,,,,,,0,,,58,0
64512,note_on,4,0,0,,,,,,,,,0,,,64,60
64529,note_on,29,0,1,,,,,,,,,0,,,39,0
64530,note_on,1,0,1,,,,,,,,,0,,,38,68
64547,note_on,35,0,0,,,,,,,,,0,,,55,0
64547,note_on,0,0,0,,,,,,,,,0,,,67,0
64556,note_on,9,0,0,,,,,,,,,0,,,64,0
64559,note_on,29,0,1,,,,,,,,,0,,,38,0
64560,note_on,0,0,0,,,,,,,,,0,,,53,0
64560,note_on,0,0,0,,,,,,,,,0,,,65,70
64560,note_on,4,0,0,,,,,,,,,0,,,53,60
64560,note_on,1,0,1,,,,,,,,,0,,,37,68
64560,note_on,0,0,0,,,,,,,,,0,,,53,70
64561,control_change,1,0,1,,,,,,,64,0,0,,,,
64562,control_change,1,0,1,,,,,,,64,127,0,,,,
64589,note_on,27,0,1,,,,,,,,,0,,,37,0
64594,note_on,34,0,0,,,,,,,,,0,,,58,60
64620,note_on,31,0,1,,,,,,,,,0,,,36,67
64625,note_on,31,0,0,,,,,,,,,0,,,58,0
64629,note_on,4,0,0,,,,,,,,,0,,,61,60
64649,note_on,29,0,1,,,,,,,,,0,,,36,0
64660,note_on,31,0,0,,,,,,,,,0,,,61,0
64663,note_on,3,0,0,,,,,,,,,0,,,58,60
64680,note_on,31,0,1,,,,,,,,,0,,,35,66
64694,note_on,31,0,0,,,,,,,,,0,,,58,0
64697,note_on,3,0,0,,,,,,,,,0,,,61,60
64709,note_on,29,0,1,,,,,,,,,0,,,35,0
64728,note_on,31,0,0,,,,,,,,,0,,,61,0
64731,note_on,3,0,0,,,,,,,,,0,,,58,60
64740,note_on,31,0,1,,,,,,,,,0,,,34,64
64762,note_on,31,0,0,,,,,,,,,0,,,58,0
64766,note_on,4,0,0,,,,,,,,,0,,,61,60
64769,note_on,29,0,1,,,,,,,,,0,,,34,0
64787,note_on,0,0,0,,,,,,,,,0,,,65,0
64787,note_on,21,0,0,,,,,,,,,0,,,53,0
64797,note_on,10,0,0,,,,,,,,,0,,,61,0
64800,note_on,0,0,0,,,,,,,,,0,,,57,70
64800,note_on,0,0,0,,,,,,,,,0,,,57,0
64800,note_on,0,0,0,,,,,,,,,0,,,69,70
64800,time_signature,3,1,0,6,8,24,8,,,,,,,,,
64800,note_on,0,0,0,,,,,,,,,0,,,57,60
64800,note_on,31,0,1,,,,,,,,,0,,,29,75
64801,control_change,1,0,1,,,,,,,64,0,0,,,,
64802,control_change,1,0,1,,,,,,,64,127,0,,,,
64848,note_on,48,0,0,,,,,,,,,0,,,60,60
64892,note_on,44,0,0,,,,,,,,,0,,,60,0
64896,note_on,4,0,0,,,,,,,,,0,,,65,60
64940,note_on,44,0,0,,,,,,,,,0,,,65,0
64944,note_on,4,0,0,,,,,,,,,0,,,60,60
64988,note_on,44,0,0,,,,,,,,,0,,,60,0
64992,note_on,4,0,0,,,,,,,,,0,,,65,60
65027,note_on,225,0,1,,,,,,,,,0,,,29,0
65036,note_on,44,0,0,,,,,,,,,0,,,65,0
65040,note_on,4,0,0,,,,,,,,,0,,,60,60
65040,note_on,13,0,1,,,,,,,,,0,,,40,64
65077,note_on,37,0,0,,,,,,,,,0,,,60,0
65079,note_on,39,0,1,,,,,,,,,0,,,40,0
65080,note_on,3,0,0,,,,,,,,,0,,,65,60
65080,note_on,1,0,1,,,,,,,,,0,,,41,64
65117,note_on,37,0,0,,,,,,,,,0,,,65,0
65119,note_on,39,0,1,,,,,,,,,0,,,41,0
65120,note_on,3,0,0,,,,,,,,,0,,,60,60
65120,note_on,1,0,1,,,,,,,,,0,,,42,64
65157,note_on,37,0,0,,,,,,,,,0,,,60,0
65159,note_on,39,0,1,,,,,,,,,0,,,42,0
65160,note_on,3,0,0,,,,,,,,,0,,,65,60
65160,note_on,1,0,1,,,,,,,,,0,,,43,65
65197,note_on,37,0,0,,,,,,,,,0,,,65,0
65199,note_on,39,0,1,,,,,,,,,0,,,43,0
65200,note_on,3,0,0,,,,,,,,,0,,,60,60
65200,note_on,1,0,1,,,,,,,,,0,,,44,66
65237,note_on,37,0,0,,,,,,,,,0,,,60,0
65239,note_on,39,0,1,,,,,,,,,0,,,44,0
65240,note_on,3,0,0,,,,,,,,,0,,,65,60
65240,note_on,1,0,1,,,,,,,,,0,,,45,66
65277,note_on,37,0,0,,,,,,,,,0,,,65,0
65279,note_on,39,0,1,,,,,,,,,0,,,45,0
65280,note_on,1,0,1,,,,,,,,,0,,,46,67
65280,note_on,3,0,0,,,,,,,,,0,,,60,60
65313,note_on,33,0,1,,,,,,,,,0,,,46,0
65314,note_on,1,0,1,,,,,,,,,0,,,47,68
65317,note_on,37,0,0,,,,,,,,,0,,,60,0
65320,note_on,3,0,0,,,,,,,,,0,,,65,60
65347,note_on,33,0,1,,,,,,,,,0,,,47,0
65349,note_on,2,0,1,,,,,,,,,0,,,48,68
65357,note_on,37,0,0,,,,,,,,,0,,,65,0
65360,note_on,3,0,0,,,,,,,,,0,,,60,60
65382,note_on,33,0,1,,,,,,,,,0,,,48,0
65383,note_on,1,0,1,,,,,,,,,0,,,49,68
65397,note_on,37,0,0,,,,,,,,,0,,,60,0
65400,note_on,3,0,0,,,,,,,,,0,,,65,60
65416,note_on,33,0,1,,,,,,,,,0,,,49,0
65417,note_on,1,0,1,,,,,,,,,0,,,50,68
65437,note_on,37,0,0,,,,,,,,,0,,,65,0
65440,note_on,3,0,0,,,,,,,,,0,,,60,60
65450,note_on,33,0,1,,,,,,,,,0,,,50,0
65451,note_on,1,0,1,,,,,,,,,0,,,51,69
65477,note_on,37,0,0,,,,,,,,,0,,,60,0
65480,note_on,3,0,0,,,,,,,,,0,,,65,60
65483,note_on,0,0,0,,,,,,,,,0,,,69,0
65483,note_on,3,0,0,,,,,,,,,0,,,57,0
65484,note_on,33,0,1,,,,,,,,,0,,,51,0
65486,note_on,2,0,1,,,,,,,,,0,,,52,70
65517,note_on,34,0,0,,,,,,,,,0,,,65,0
65519,note_on,33,0,1,,,,,,,,,0,,,52,0
65520,note_on,0,0,1,,,,,,,,,0,,,37,82
65520,note_on,1,0,1,,,,,,,,,0,,,53,70
65520,set_tempo,3,1,0,,,,,,1499999,,,,,,,
65520,note_on,0,0,0,,,,,,,,,0,,,69,70
65520,note_on,0,0,0,,,,,,,,,0,,,57,60
65520,note_on,0,0,0,,,,,,,,,0,,,57,0
65520,note_on,0,0,0,,,,,,,,,0,,,57,70
65521,control_change,1,0,1,,,,,,,64,0,0,,,,
65522,control_change,1,0,1,,,,,,,64,127,0,,,,
65549,note_on,27,0,1,,,,,,,,,0,,,53,0
65550,note_on,1,0,1,,,,,,,,,0,,,52,70
65568,note_on,0,0,0,,,,,,,,,0,,,61,60
65568,note_on,48,0,0,,,,,,,,,0,,,58,60
65579,note_on,29,0,1,,,,,,,,,0,,,52,0
65580,note_on,1,0,1,,,,,,,,,0,,,51,70
65609,note_on,29,0,1,,,,,,,,,0,,,51,0
65610,note_on,1,0,1,,,,,,,,,0,,,50,70
65612,note_on,44,0,0,,,,,,,,,0,,,58,0
65612,note_on,0,0,0,,,,,,,,,0,,,61,0
65616,note_on,4,0,0,,,,,,,,,0,,,64,60
65639,note_on,29,0,1,,,,,,,,,0,,,50,0
65640,note_on,1,0,1,,,,,,,,,0,,,49,69
65660,note_on,44,0,0,,,,,,,,,0,,,64,0
65664,note_on,4,0,0,,,,,,,,,0,,,58,60
65664,note_on,0,0,0,,,,,,,,,0,,,61,60
65669,note_on,29,0,1,,,,,,,,,0,,,49,0
65670,note_on,1,0,1,,,,,,,,,0,,,48,69
65699,note_on,29,0,1,,,,,,,,,0,,,48,0
65700,note_on,1,0,1,,,,,,,,,0,,,47,69
65708,note_on,0,0,0,,,,,,,,,0,,,61,0
65708,note_on,44,0,0,,,,,,,,,0,,,58,0
65712,note_on,4,0,0,,,,,,,,,0,,,64,60
65729,note_on,29,0,1,,,,,,,,,0,,,47,0
65730,note_on,1,0,1,,,,,,,,,0,,,46,68
65747,note_on,35,0,0,,,,,,,,,0,,,57,0
65747,note_on,0,0,0,,,,,,,,,0,,,69,0
65756,note_on,9,0,0,,,,,,,,,0,,,64,0
65759,note_on,0,0,1,,,,,,,,,0,,,46,0
65759,note_on,29,0,1,,,,,,,,,0,,,37,0
65760,note_on,0,0,0,,,,,,,,,0,,,55,0
65760,set_tempo,4,1,0,,,,,,1200000,,,,,,,
65760,note_on,1,0,1,,,,,,,,,0,,,45,68
65760,note_on,0,0,0,,,,,,,,,0,,,55,60
65760,note_on,0,0,0,,,,,,,,,0,,,67,70
65760,note_on,0,0,0,,,,,,,,,0,,,55,70
65789,note_on,29,0,1,,,,,,,,,0,,,45,0
65790,note_on,1,0,1,,,,,,,,,0,,,44,68
65808,note_on,0,0,0,,,,,,,,,0,,,61,60
65808,note_on,48,0,0,,,,,,,,,0,,,58,60
65819,note_on,29,0,1,,,,,,,,,0,,,44,0
65820,note_on,1,0,1,,,,,,,,,0,,,43,68
65849,note_on,29,0,1,,,,,,,,,0,,,43,0
65850,note_on,1,0,1,,,,,,,,,0,,,42,68
65852,note_on,44,0,0,,,,,,,,,0,,,58,0
65852,note_on,0,0,0,,,,,,,,,0,,,61,0
65856,note_on,4,0,0,,,,,,,,,0,,,64,60
65879,note_on,29,0,1,,,,,,,,,0,,,42,0
65880,note_on,1,0,1,,,,,,,,,0,,,41,68
65900,note_on,44,0,0,,,,,,,,,0,,,64,0
65904,note_on,4,0,0,,,,,,,,,0,,,58,60
65904,note_on,0,0,0,,,,,,,,,0,,,61,60
65909,note_on,29,0,1,,,,,,,,,0,,,41,0
65910,note_on,1,0,1,,,,,,,,,0,,,40,67
65939,note_on,29,0,1,,,,,,,,,0,,,40,0
65940,note_on,1,0,1,,,,,,,,,0,,,39,67
65948,note_on,44,0,0,,,,,,,,,0,,,58,0
65948,note_on,0,0,0,,,,,,,,,0,,,61,0
65952,note_on,4,0,0,,,,,,,,,0,,,64,60
65969,note_on,29,0,1,,,,,,,,,0,,,39,0
65970,note_on,1,0,1,,,,,,,,,0,,,38,67
65987,note_on,35,0,0,,,,,,,,,0,,,55,0
65987,note_on,0,0,0,,,,,,,,,0,,,67,0
65996,note_on,9,0,0,,,,,,,,,0,,,64,0
65999,note_on,29,0,1,,,,,,,,,0,,,38,0
66000,note_on,4,0,0,,,,,,,,,0,,,53,60
66000,note_on,1,0,1,,,,,,,,,0,,,37,66
66000,note_on,0,0,0,,,,,,,,,0,,,65,70
66000,note_on,0,0,0,,,,,,,,,0,,,53,70
66000,note_on,0,0,0,,,,,,,,,0,,,53,0
66001,control_change,1,0,1,,,,,,,64,0,0,,,,
66002,control_change,1,0,1,,,,,,,64,127,0,,,,
66029,note_on,27,0,1,,,,,,,,,0,,,37,0
66034,note_on,34,0,0,,,,,,,,,0,,,58,60
66060,note_on,31,0,1,,,,,,,,,0,,,36,66
66065,note_on,31,0,0,,,,,,,,,0,,,58,0
66069,note_on,4,0,0,,,,,,,,,0,,,61,60
66089,note_on,29,0,1,,,,,,,,,0,,,36,0
66100,note_on,31,0,0,,,,,,,,,0,,,61,0
66103,note_on,3,0,0,,,,,,,,,0,,,58,60
66120,note_on,31,0,1,,,,,,,,,0,,,35,65
66134,note_on,31,0,0,,,,,,,,,0,,,58,0
66137,note_on,3,0,0,,,,,,,,,0,,,61,60
66149,note_on,29,0,1,,,,,,,,,0,,,35,0
66168,note_on,31,0,0,,,,,,,,,0,,,61,0
66171,note_on,3,0,0,,,,,,,,,0,,,58,60
66180,note_on,31,0,1,,,,,,,,,0,,,34,64
66202,note_on,31,0,0,,,,,,,,,0,,,58,0
66206,note_on,4,0,0,,,,,,,,,0,,,61,60
66209,note_on,29,0,1,,,,,,,,,0,,,34,0
66227,note_on,21,0,0,,,,,,,,,0,,,53,0
66227,note_on,0,0,0,,,,,,,,,0,,,65,0
66237,note_on,10,0,0,,,,,,,,,0,,,61,0
66240,note_on,31,0,1,,,,,,,,,0,,,29,75
66240,note_on,3,0,0,,,,,,,,,0,,,57,60
66240,note_on,0,0,0,,,,,,,,,0,,,69,70
66241,control_change,1,0,1,,,,,,,64,0,0,,,,
66242,control_change,1,0,1,,,,,,,64,127,0,,,,
66284,note_on,44,0,0,,,,,,,,,0,,,57,0
66288,note_on,4,0,0,,,,,,,,,0,,,60,60
66332,note_on,44,0,0,,,,,,,,,0,,,60,0
66336,note_on,4,0,0,,,,,,,,,0,,,65,60
66380,note_on,44,0,0,,,,,,,,,0,,,65,0
66384,note_on,4,0,0,,,,,,,,,0,,,60,60
66428,note_on,44,0,0,,,,,,,,,0,,,60,0
66432,note_on,4,0,0,,,,,,,,,0,,,65,60
66467,note_on,225,0,1,,,,,,,,,0,,,29,0
66476,note_on,44,0,0,,,,,,,,,0,,,65,0
66480,note_on,4,0,0,,,,,,,,,0,,,60,60
66517,note_on,37,0,0,,,,,,,,,0,,,60,0
66520,note_on,3,0,0,,,,,,,,,0,,,65,60
66557,note_on,37,0,0,,,,,,,,,0,,,65,0
66560,note_on,3,0,0,,,,,,,,,0,,,60,60
66597,note_on,37,0,0,,,,,,,,,0,,,60,0
66600,note_on,133,0,1,,,,,,,,,0,,,40,64
66600,note_on,3,0,0,,,,,,,,,0,,,65,60
66637,note_on,37,0,0,,,,,,,,,0,,,65,0
66637,note_on,37,0,1,,,,,,,,,0,,,40,0
66640,note_on,3,0,0,,,,,,,,,0,,,60,60
66640,note_on,3,0,1,,,,,,,,,0,,,41,64
66677,note_on,37,0,1,,,,,,,,,0,,,41,0
66677,note_on,37,0,0,,,,,,,,,0,,,60,0
66680,note_on,3,0,0,,,,,,,,,0,,,65,60
66680,note_on,3,0,1,,,,,,,,,0,,,42,65
66695,note_on,15,0,0,,,,,,,,,0,,,69,0
66717,note_on,37,0,1,,,,,,,,,0,,,42,0
66717,note_on,22,0,0,,,,,,,,,0,,,65,0
66720,note_on,3,0,1,,,,,,,,,0,,,43,66
66720,note_on,3,0,0,,,,,,,,,0,,,60,60
66757,note_on,37,0,1,,,,,,,,,0,,,43,0
66757,note_on,37,0,0,,,,,,,,,0,,,60,0
66760,note_on,3,0,0,,,,,,,,,0,,,65,60
66760,note_on,3,0,1,,,,,,,,,0,,,44,67
66797,note_on,37,0,1,,,,,,,,,0,,,44,0
66797,note_on,37,0,0,,,,,,,,,0,,,65,0
66800,note_on,3,0,0,,,,,,,,,0,,,60,60
66800,note_on,3,0,1,,,,,,,,,0,,,45,67
66837,note_on,37,0,0,,,,,,,,,0,,,60,0
66837,note_on,37,0,1,,,,,,,,,0,,,45,0
66840,note_on,3,0,0,,,,,,,,,0,,,65,60
66840,note_on,3,0,1,,,,,,,,,0,,,46,68
66877,note_on,37,0,0,,,,,,,,,0,,,65,0
66877,note_on,37,0,1,,,,,,,,,0,,,46,0
66880,note_on,3,0,0,,,,,,,,,0,,,60,60
66880,note_on,3,0,1,,,,,,,,,0,,,47,68
66917,note_on,37,0,0,,,,,,,,,0,,,60,0
66917,note_on,37,0,1,,,,,,,,,0,,,47,0
66920,note_on,3,0,1,,,,,,,,,0,,,48,69
66920,note_on,3,0,0,,,,,,,,,0,,,65,60
66957,note_on,37,0,0,,,,,,,,,0,,,65,0
66957,note_on,37,0,1,,,,,,,,,0,,,48,0
66960,note_on,0,0,0,,,,,,,,,0,,,69,70
66960,note_on,3,0,1,,,,,,,,,0,,,49,70
66960,note_on,3,0,0,,,,,,,,,0,,,57,60
66961,control_change,1,0,1,,,,,,,64,0,0,,,,
66962,control_change,2,0,0,,,,,,,64,127,0,,,,
66990,note_on,29,0,1,,,,,,,,,0,,,49,0
66993,note_on,3,0,1,,,,,,,,,0,,,48,70
67004,note_on,42,0,0,,,,,,,,,0,,,57,0
67008,note_on,4,0,0,,,,,,,,,0,,,60,60
67023,note_on,30,0,1,,,,,,,,,0,,,48,0
67025,note_on,2,0,1,,,,,,,,,0,,,47,70
67052,note_on,44,0,0,,,,,,,,,0,,,60,0
67055,note_on,30,0,1,,,,,,,,,0,,,47,0
67056,note_on,4,0,0,,,,,,,,,0,,,65,60
67058,note_on,3,0,1,,,,,,,,,0,,,46,69
67088,note_on,30,0,1,,,,,,,,,0,,,46,0
67090,note_on,2,0,1,,,,,,,,,0,,,45,69
67100,note_on,44,0,0,,,,,,,,,0,,,65,0
67104,note_on,4,0,0,,,,,,,,,0,,,60,60
67120,note_on,30,0,1,,,,,,,,,0,,,45,0
67123,note_on,3,0,1,,,,,,,,,0,,,44,68
67148,note_on,44,0,0,,,,,,,,,0,,,60,0
67152,note_on,4,0,0,,,,,,,,,0,,,65,60
67153,note_on,30,0,1,,,,,,,,,0,,,44,0
67155,note_on,2,0,1,,,,,,,,,0,,,43,68
67185,note_on,30,0,1,,,,,,,,,0,,,43,0
67188,note_on,3,0,1,,,,,,,,,0,,,42,68
67196,note_on,44,0,0,,,,,,,,,0,,,65,0
67200,note_on,4,0,0,,,,,,,,,0,,,60,60
67218,note_on,30,0,1,,,,,,,,,0,,,42,0
67220,note_on,2,0,1,,,,,,,,,0,,,41,67
67237,note_on,37,0,0,,,,,,,,,0,,,60,0
67240,note_on,3,0,0,,,,,,,,,0,,,65,59
67250,note_on,30,0,1,,,,,,,,,0,,,41,0
67253,note_on,3,0,1,,,,,,,,,0,,,40,67
67277,note_on,37,0,0,,,,,,,,,0,,,65,0
67280,note_on,3,0,0,,,,,,,,,0,,,60,59
67283,note_on,30,0,1,,,,,,,,,0,,,40,0
67285,note_on,2,0,1,,,,,,,,,0,,,39,66
67315,note_on,30,0,1,,,,,,,,,0,,,39,0
67317,note_on,37,0,0,,,,,,,,,0,,,60,0
67318,note_on,3,0,1,,,,,,,,,0,,,38,66
67320,note_on,3,0,0,,,,,,,,,0,,,65,59
67348,note_on,30,0,1,,,,,,,,,0,,,38,0
67350,note_on,2,0,1,,,,,,,,,0,,,37,65
67357,note_on,37,0,0,,,,,,,,,0,,,65,0
67360,note_on,3,0,0,,,,,,,,,0,,,60,59
67380,note_on,30,0,1,,,,,,,,,0,,,37,0
67383,note_on,3,0,1,,,,,,,,,0,,,36,64
67397,note_on,37,0,0,,,,,,,,,0,,,60,0
67400,note_on,3,0,0,,,,,,,,,0,,,65,58
67413,note_on,30,0,1,,,,,,,,,0,,,36,0
67415,note_on,15,0,0,,,,,,,,,0,,,69,0
67415,note_on,2,0,1,,,,,,,,,0,,,37,64
67437,note_on,22,0,0,,,,,,,,,0,,,65,0
67440,note_on,3,0,0,,,,,,,,,0,,,60,58
67445,note_on,30,0,1,,,,,,,,,0,,,37,0
67448,note_on,3,0,1,,,,,,,,,0,,,38,64
67477,note_on,37,0,0,,,,,,,,,0,,,60,0
67478,note_on,30,0,1,,,,,,,,,0,,,38,0
67480,note_on,2,0,1,,,,,,,,,0,,,39,63
67480,note_on,3,0,0,,,,,,,,,0,,,65,58
67510,note_on,30,0,1,,,,,,,,,0,,,39,0
67513,note_on,3,0,1,,,,,,,,,0,,,40,63
67517,note_on,37,0,0,,,,,,,,,0,,,65,0
67520,note_on,3,0,0,,,,,,,,,0,,,60,57
67543,note_on,30,0,1,,,,,,,,,0,,,40,0
67545,note_on,2,0,1,,,,,,,,,0,,,41,63
67557,note_on,37,0,0,,,,,,,,,0,,,60,0
67560,note_on,3,0,0,,,,,,,,,0,,,65,57
67575,note_on,30,0,1,,,,,,,,,0,,,41,0
67578,note_on,3,0,1,,,,,,,,,0,,,42,63
67597,note_on,37,0,0,,,,,,,,,0,,,65,0
67600,note_on,3,0,0,,,,,,,,,0,,,60,57
67608,note_on,30,0,1,,,,,,,,,0,,,42,0
67610,note_on,2,0,1,,,,,,,,,0,,,43,62
67637,note_on,37,0,0,,,,,,,,,0,,,60,0
67640,note_on,3,0,0,,,,,,,,,0,,,65,57
67640,note_on,30,0,1,,,,,,,,,0,,,43,0
67643,note_on,3,0,1,,,,,,,,,0,,,44,62
67673,note_on,30,0,1,,,,,,,,,0,,,44,0
67677,note_on,37,0,0,,,,,,,,,0,,,65,0
67680,note_on,0,0,0,,,,,,,,,0,,,57,57
67680,note_on,0,0,0,,,,,,,,,0,,,69,66
67680,note_on,7,0,1,,,,,,,,,0,,,45,61
67680,time_signature,3,1,0,3,8,24,8,,,,,,,,,
67681,control_change,1,0,1,,,,,,,64,0,0,,,,
67682,control_change,1,0,1,,,,,,,64,127,0,,,,
67711,note_on,29,0,1,,,,,,,,,0,,,45,0
67714,note_on,3,0,1,,,,,,,,,0,,,44,61
67724,note_on,44,0,0,,,,,,,,,0,,,57,0
67728,note_on,4,0,0,,,,,,,,,0,,,60,57
67745,note_on,31,0,1,,,,,,,,,0,,,44,0
67749,note_on,4,0,1,,,,,,,,,0,,,43,60
67772,note_on,44,0,0,,,,,,,,,0,,,60,0
67776,note_on,4,0,0,,,,,,,,,0,,,65,56
67780,note_on,31,0,1,,,,,,,,,0,,,43,0
67783,note_on,3,0,1,,,,,,,,,0,,,42,60
67814,note_on,31,0,1,,,,,,,,,0,,,42,0
67817,note_on,3,0,1,,,,,,,,,0,,,41,59
67820,note_on,44,0,0,,,,,,,,,0,,,65,0
67824,note_on,4,0,0,,,,,,,,,0,,,60,56
67848,note_on,31,0,1,,,,,,,,,0,,,41,0
67851,note_on,3,0,1,,,,,,,,,0,,,40,59
67868,note_on,44,0,0,,,,,,,,,0,,,60,0
67872,note_on,4,0,0,,,,,,,,,0,,,65,56
67882,note_on,31,0,1,,,,,,,,,0,,,40,0
67886,note_on,4,0,1,,,,,,,,,0,,,39,58
67916,note_on,44,0,0,,,,,,,,,0,,,65,0
67917,note_on,31,0,1,,,,,,,,,0,,,39,0
67920,note_on,3,0,1,,,,,,,,,0,,,38,58
67920,note_on,4,0,0,,,,,,,,,0,,,60,55
67951,note_on,31,0,1,,,,,,,,,0,,,38,0
67954,note_on,3,0,1,,,,,,,,,0,,,37,57
67957,note_on,37,0,0,,,,,,,,,0,,,60,0
67960,note_on,3,0,0,,,,,,,,,0,,,65,55
67985,note_on,31,0,1,,,,,,,,,0,,,37,0
67989,note_on,4,0,1,,,,,,,,,0,,,36,57
67997,note_on,37,0,0,,,,,,,,,0,,,65,0
68000,note_on,3,0,0,,,,,,,,,0,,,60,55
68020,note_on,31,0,1,,,,,,,,,0,,,36,0
68023,note_on,3,0,1,,,,,,,,,0,,,35,57
68037,note_on,37,0,0,,,,,,,,,0,,,60,0
68040,note_on,3,0,0,,,,,,,,,0,,,65,54
68054,note_on,31,0,1,,,,,,,,,0,,,35,0
68057,note_on,3,0,1,,,,,,,,,0,,,34,57
68077,note_on,37,0,0,,,,,,,,,0,,,65,0
68080,note_on,3,0,0,,,,,,,,,0,,,60,54
68088,note_on,31,0,1,,,,,,,,,0,,,34,0
68091,note_on,3,0,1,,,,,,,,,0,,,33,56
68117,note_on,37,0,0,,,,,,,,,0,,,60,0
68120,note_on,3,0,0,,,,,,,,,0,,,65,54
68122,note_on,31,0,1,,,,,,,,,0,,,33,0
68126,note_on,4,0,1,,,,,,,,,0,,,34,56
68135,note_on,15,0,0,,,,,,,,,0,,,69,0
68157,note_on,22,0,0,,,,,,,,,0,,,65,0
68157,note_on,31,0,1,,,,,,,,,0,,,34,0
68160,note_on,3,0,1,,,,,,,,,0,,,35,55
68160,note_on,3,0,0,,,,,,,,,0,,,60,53
68191,note_on,31,0,1,,,,,,,,,0,,,35,0
68194,note_on,3,0,1,,,,,,,,,0,,,36,55
68197,note_on,37,0,0,,,,,,,,,0,,,60,0
68200,note_on,3,0,0,,,,,,,,,0,,,65,53
68225,note_on,31,0,1,,,,,,,,,0,,,36,0
68229,note_on,4,0,1,,,,,,,,,0,,,37,54
68237,note_on,37,0,0,,,,,,,,,0,,,65,0
68240,note_on,3,0,0,,,,,,,,,0,,,60,53
68260,note_on,31,0,1,,,,,,,,,0,,,37,0
68263,note_on,3,0,1,,,,,,,,,0,,,38,54
68277,note_on,37,0,0,,,,,,,,,0,,,60,0
68280,note_on,3,0,0,,,,,,,,,0,,,65,52
68294,note_on,31,0,1,,,,,,,,,0,,,38,0
68297,note_on,3,0,1,,,,,,,,,0,,,39,53
68317,note_on,37,0,0,,,,,,,,,0,,,65,0
68320,note_on,3,0,0,,,,,,,,,0,,,60,52
68328,note_on,31,0,1,,,,,,,,,0,,,39,0
68331,note_on,3,0,1,,,,,,,,,0,,,40,53
68357,note_on,37,0,0,,,,,,,,,0,,,60,0
68360,note_on,3,0,0,,,,,,,,,0,,,65,52
68362,note_on,31,0,1,,,,,,,,,0,,,40,0
68366,note_on,4,0,1,,,,,,,,,0,,,41,52
68397,note_on,31,0,1,,,,,,,,,0,,,41,0
68397,note_on,37,0,0,,,,,,,,,0,,,65,0
68400,note_on,0,0,0,,,,,,,,,0,,,69,60
68400,note_on,3,0,1,,,,,,,,,0,,,42,51
68400,note_on,3,0,0,,,,,,,,,0,,,57,51
68401,control_change,1,0,1,,,,,,,64,0,0,,,,
68402,control_change,1,0,1,,,,,,,64,127,0,,,,
68431,note_on,29,0,1,,,,,,,,,0,,,42,0
68434,note_on,3,0,1,,,,,,,,,0,,,41,51
68444,note_on,44,0,0,,,,,,,,,0,,,57,0
68448,note_on,4,0,0,,,,,,,,,0,,,60,51
68465,note_on,31,0,1,,,,,,,,,0,,,41,0
68469,note_on,4,0,1,,,,,,,,,0,,,40,51
68492,note_on,44,0,0,,,,,,,,,0,,,60,0
68496,note_on,4,0,0,,,,,,,,,0,,,65,51
68500,note_on,31,0,1,,,,,,,,,0,,,40,0
68503,note_on,3,0,1,,,,,,,,,0,,,39,51
68534,note_on,31,0,1,,,,,,,,,0,,,39,0
68537,note_on,3,0,1,,,,,,,,,0,,,38,51
68540,note_on,44,0,0,,,,,,,,,0,,,65,0
68544,note_on,4,0,0,,,,,,,,,0,,,60,51
68568,note_on,31,0,1,,,,,,,,,0,,,38,0
68571,note_on,3,0,1,,,,,,,,,0,,,37,51
68588,note_on,44,0,0,,,,,,,,,0,,,60,0
68592,note_on,4,0,0,,,,,,,,,0,,,65,51
68602,note_on,31,0,1,,,,,,,,,0,,,37,0
68606,note_on,4,0,1,,,,,,,,,0,,,36,51
68636,note_on,44,0,0,,,,,,,,,0,,,65,0
68637,note_on,31,0,1,,,,,,,,,0,,,36,0
68640,note_on,4,0,0,,,,,,,,,0,,,60,51
68640,note_on,3,0,1,,,,,,,,,0,,,35,51
68671,note_on,31,0,1,,,,,,,,,0,,,35,0
68674,note_on,3,0,1,,,,,,,,,0,,,34,51
68677,note_on,37,0,0,,,,,,,,,0,,,60,0
68680,note_on,3,0,0,,,,,,,,,0,,,65,51
68705,note_on,31,0,1,,,,,,,,,0,,,34,0
68709,note_on,4,0,1,,,,,,,,,0,,,33,51
68717,note_on,37,0,0,,,,,,,,,0,,,65,0
68720,note_on,3,0,0,,,,,,,,,0,,,60,51
68740,note_on,31,0,1,,,,,,,,,0,,,33,0
68743,note_on,3,0,1,,,,,,,,,0,,,32,51
68757,note_on,37,0,0,,,,,,,,,0,,,60,0
68760,note_on,3,0,0,,,,,,,,,0,,,65,51
68774,note_on,31,0,1,,,,,,,,,0,,,32,0
68777,note_on,3,0,1,,,,,,,,,0,,,31,51
68797,note_on,37,0,0,,,,,,,,,0,,,65,0
68800,note_on,3,0,0,,,,,,,,,0,,,60,51
68808,note_on,31,0,1,,,,,,,,,0,,,31,0
68811,note_on,3,0,1,,,,,,,,,0,,,30,51
68837,note_on,37,0,0,,,,,,,,,0,,,60,0
68840,note_on,3,0,0,,,,,,,,,0,,,65,51
68842,note_on,31,0,1,,,,,,,,,0,,,30,0
68846,note_on,4,0,1,,,,,,,,,0,,,29,51
68855,note_on,15,0,0,,,,,,,,,0,,,69,0
68877,note_on,31,0,1,,,,,,,,,0,,,29,0
68877,note_on,22,0,0,,,,,,,,,0,,,65,0
68880,note_on,3,0,0,,,,,,,,,0,,,60,51
68880,note_on,3,0,1,,,,,,,,,0,,,30,51
68911,note_on,31,0,1,,,,,,,,,0,,,30,0
68914,note_on,3,0,1,,,,,,,,,0,,,31,51
68917,note_on,37,0,0,,,,,,,,,0,,,60,0
68920,note_on,3,0,0,,,,,,,,,0,,,65,51
68945,note_on,31,0,1,,,,,,,,,0,,,31,0
68949,note_on,4,0,1,,,,,,,,,0,,,32,51
68957,note_on,37,0,0,,,,,,,,,0,,,65,0
68960,note_on,3,0,0,,,,,,,,,0,,,60,51
68980,note_on,31,0,1,,,,,,,,,0,,,32,0
68983,note_on,3,0,1,,,,,,,,,0,,,33,51
68997,note_on,37,0,0,,,,,,,,,0,,,60,0
69000,note_on,3,0,0,,,,,,,,,0,,,65,51
69014,note_on,31,0,1,,,,,,,,,0,,,33,0
69017,note_on,3,0,1,,,,,,,,,0,,,34,51
69037,note_on,37,0,0,,,,,,,,,0,,,65,0
69040,note_on,3,0,0,,,,,,,,,0,,,60,51
69048,note_on,31,0,1,,,,,,,,,0,,,34,0
69051,note_on,3,0,1,,,,,,,,,0,,,35,51
69077,note_on,37,0,0,,,,,,,,,0,,,60,0
69080,note_on,3,0,0,,,,,,,,,0,,,65,51
69082,note_on,31,0,1,,,,,,,,,0,,,35,0
69086,note_on,4,0,1,,,,,,,,,0,,,36,51
69117,note_on,31,0,1,,,,,,,,,0,,,36,0
69117,note_on,37,0,0,,,,,,,,,0,,,65,0
69120,time_signature,3,1,0,5,8,24,8,,,,,,,,,
69120,set_tempo,0,1,0,,,,,,5999988,,,,,,,
69120,note_on,3,0,1,,,,,,,,,0,,,37,51
69121,control_change,1,0,1,,,,,,,64,0,0,,,,
69147,note_on,26,0,1,,,,,,,,,0,,,37,0
69150,set_tempo,30,1,0,,,,,,1200000,,,,,,,
69150,note_on,3,0,1,,,,,,,,,0,,,36,51
69177,note_on,27,0,1,,,,,,,,,0,,,36,0
69180,note_on,3,0,1,,,,,,,,,0,,,35,51
69207,note_on,27,0,1,,,,,,,,,0,,,35,0
69210,note_on,3,0,1,,,,,,,,,0,,,34,51
69237,note_on,27,0,1,,,,,,,,,0,,,34,0
69240,note_on,3,0,1,,,,,,,,,0,,,33,51
69267,note_on,27,0,1,,,,,,,,,0,,,33,0
69270,note_on,3,0,1,,,,,,,,,0,,,32,51
69297,note_on,27,0,1,,,,,,,,,0,,,32,0
69300,note_on,3,0,1,,,,,,,,,0,,,31,51
69327,note_on,27,0,1,,,,,,,,,0,,,31,0
69330,note_on,3,0,1,,,,,,,,,0,,,30,51
69357,note_on,27,0,1,,,,,,,,,0,,,30,0
69360,set_tempo,210,1,0,,,,,,5999988,,,,,,,
69360,note_on,3,0,1,,,,,,,,,0,,,29,51
69387,note_on,27,0,1,,,,,,,,,0,,,29,0
69390,note_on,3,0,1,,,,,,,,,0,,,30,51
69390,set_tempo,30,1,0,,,,,,1200000,,,,,,,
69417,note_on,27,0,1,,,,,,,,,0,,,30,0
69420,note_on,3,0,1,,,,,,,,,0,,,31,51
69447,note_on,27,0,1,,,,,,,,,0,,,31,0
69450,note_on,3,0,1,,,,,,,,,0,,,32,51
69477,note_on,27,0,1,,,,,,,,,0,,,32,0
69480,note_on,3,0,1,,,,,,,,,0,,,33,51
69507,note_on,27,0,1,,,,,,,,,0,,,33,0
69510,note_on,3,0,1,,,,,,,,,0,,,34,51
69537,note_on,27,0,1,,,,,,,,,0,,,34,0
69540,note_on,3,0,1,,,,,,,,,0,,,35,51
69567,note_on,27,0,1,,,,,,,,,0,,,35,0
69570,note_on,3,0,1,,,,,,,,,0,,,36,51
69597,note_on,27,0,1,,,,,,,,,0,,,36,0
69600,note_on,3,0,1,,,,,,,,,0,,,37,51
69600,set_tempo,210,1,0,,,,,,5999988,,,,,,,
69627,note_on,27,0,1,,,,,,,,,0,,,37,0
69630,note_on,3,0,1,,,,,,,,,0,,,36,51
69630,set_tempo,30,1,0,,,,,,1200000,,,,,,,
69657,note_on,27,0,1,,,,,,,,,0,,,36,0
69660,note_on,3,0,1,,,,,,,,,0,,,35,51
69687,note_on,27,0,1,,,,,,,,,0,,,35,0
69690,note_on,3,0,1,,,,,,,,,0,,,34,51
69717,note_on,27,0,1,,,,,,,,,0,,,34,0
69720,note_on,3,0,1,,,,,,,,,0,,,33,51
69747,note_on,27,0,1,,,,,,,,,0,,,33,0
69750,note_on,3,0,1,,,,,,,,,0,,,32,51
69777,note_on,27,0,1,,,,,,,,,0,,,32,0
69780,note_on,3,0,1,,,,,,,,,0,,,31,51
69807,note_on,27,0,1,,,,,,,,,0,,,31,0
69810,note_on,3,0,1,,,,,,,,,0,,,30,51
69837,note_on,27,0,1,,,,,,,,,0,,,30,0
69840,set_tempo,210,1,0,,,,,,5999988,,,,,,,
69840,note_on,3,0,1,,,,,,,,,0,,,29,51
69867,note_on,27,0,1,,,,,,,,,0,,,29,0
69870,note_on,3,0,1,,,,,,,,,0,,,30,51
69870,set_tempo,30,1,0,,,,,,1200000,,,,,,,
69897,note_on,27,0,1,,,,,,,,,0,,,30,0
69900,note_on,3,0,1,,,,,,,,,0,,,31,52
69927,note_on,27,0,1,,,,,,,,,0,,,31,0
69930,note_on,3,0,1,,,,,,,,,0,,,32,53
69957,note_on,27,0,1,,,,,,,,,0,,,32,0
69960,note_on,3,0,1,,,,,,,,,0,,,33,54
69987,note_on,27,0,1,,,,,,,,,0,,,33,0
69990,note_on,3,0,1,,,,,,,,,0,,,34,55
70017,note_on,27,0,1,,,,,,,,,0,,,34,0
70020,note_on,3,0,1,,,,,,,,,0,,,35,56
70047,note_on,27,0,1,,,,,,,,,0,,,35,0
70050,note_on,3,0,1,,,,,,,,,0,,,36,57
70077,note_on,27,0,1,,,,,,,,,0,,,36,0
70080,set_tempo,210,1,0,,,,,,5999988,,,,,,,
70080,note_on,3,0,1,,,,,,,,,0,,,37,57
70080,note_on,0,0,0,,,,,,,,,0,,,49,51
70107,note_on,27,0,1,,,,,,,,,0,,,37,0
70107,note_on,27,0,0,,,,,,,,,0,,,49,0
70110,set_tempo,3,1,0,,,,,,1200000,,,,,,,
70110,note_on,0,0,0,,,,,,,,,0,,,48,51
70110,note_on,3,0,1,,,,,,,,,0,,,36,57
70137,note_on,27,0,1,,,,,,,,,0,,,36,0
70137,note_on,27,0,0,,,,,,,,,0,,,48,0
70140,note_on,3,0,0,,,,,,,,,0,,,47,51
70140,note_on,3,0,1,,,,,,,,,0,,,35,57
70167,note_on,27,0,1,,,,,,,,,0,,,35,0
70167,note_on,27,0,0,,,,,,,,,0,,,47,0
70170,note_on,3,0,1,,,,,,,,,0,,,34,57
70170,note_on,3,0,0,,,,,,,,,0,,,46,51
70197,note_on,27,0,0,,,,,,,,,0,,,46,0
70197,note_on,27,0,1,,,,,,,,,0,,,34,0
70200,note_on,3,0,1,,,,,,,,,0,,,33,57
70200,note_on,3,0,0,,,,,,,,,0,,,45,51
70227,note_on,27,0,1,,,,,,,,,0,,,33,0
70227,note_on,27,0,0,,,,,,,,,0,,,45,0
70230,note_on,3,0,1,,,,,,,,,0,,,32,57
70230,note_on,3,0,0,,,,,,,,,0,,,44,51
70257,note_on,27,0,1,,,,,,,,,0,,,32,0
70257,note_on,27,0,0,,,,,,,,,0,,,44,0
70260,note_on,3,0,1,,,,,,,,,0,,,31,57
70260,note_on,3,0,0,,,,,,,,,0,,,43,51
70287,note_on,27,0,1,,,,,,,,,0,,,31,0
70287,note_on,27,0,0,,,,,,,,,0,,,43,0
70290,note_on,3,0,0,,,,,,,,,0,,,42,51
70290,note_on,3,0,1,,,,,,,,,0,,,30,57
70317,note_on,27,0,1,,,,,,,,,0,,,30,0
70317,note_on,27,0,0,,,,,,,,,0,,,42,0
70320,note_on,3,0,1,,,,,,,,,0,,,29,57
70320,time_signature,3,1,0,6,8,24,8,,,,,,,,,
70320,set_tempo,0,1,0,,,,,,1500000,,,,,,,
70320,note_on,0,0,0,,,,,,,,,0,,,41,51
70336,note_on,16,0,0,,,,,,,,,0,,,41,0
70336,note_on,16,0,1,,,,,,,,,0,,,29,0
70338,note_on,2,0,1,,,,,,,,,0,,,30,57
70338,note_on,2,0,0,,,,,,,,,0,,,42,51
70354,note_on,16,0,1,,,,,,,,,0,,,30,0
70354,note_on,16,0,0,,,,,,,,,0,,,42,0
70357,note_on,3,0,1,,,,,,,,,0,,,31,57
70357,note_on,3,0,0,,,,,,,,,0,,,43,51
70373,note_on,16,0,1,,,,,,,,,0,,,31,0
70373,note_on,16,0,0,,,,,,,,,0,,,43,0
70375,note_on,2,0,1,,,,,,,,,0,,,32,58
70375,note_on,2,0,0,,,,,,,,,0,,,44,52
70391,note_on,16,0,1,,,,,,,,,0,,,32,0
70391,note_on,16,0,0,,,,,,,,,0,,,44,0
70394,note_on,3,0,1,,,,,,,,,0,,,33,59
70394,note_on,3,0,0,,,,,,,,,0,,,45,53
70410,note_on,16,0,0,,,,,,,,,0,,,45,0
70410,note_on,16,0,1,,,,,,,,,0,,,33,0
70412,note_on,2,0,0,,,,,,,,,0,,,46,54
70412,note_on,2,0,1,,,,,,,,,0,,,34,60
70428,note_on,16,0,1,,,,,,,,,0,,,34,0
70428,note_on,16,0,0,,,,,,,,,0,,,46,0
70431,note_on,3,0,0,,,,,,,,,0,,,47,55
70431,note_on,3,0,1,,,,,,,,,0,,,35,61
70447,note_on,16,0,0,,,,,,,,,0,,,47,0
70447,note_on,16,0,1,,,,,,,,,0,,,35,0
70449,note_on,2,0,1,,,,,,,,,0,,,36,62
70449,note_on,2,0,0,,,,,,,,,0,,,48,56
70465,note_on,16,0,1,,,,,,,,,0,,,36,0
70465,note_on,16,0,0,,,,,,,,,0,,,48,0
70468,note_on,3,0,1,,,,,,,,,0,,,37,63
70468,note_on,3,0,0,,,,,,,,,0,,,49,57
70484,note_on,16,0,1,,,,,,,,,0,,,37,0
70484,note_on,16,0,0,,,,,,,,,0,,,49,0
70486,note_on,2,0,0,,,,,,,,,0,,,50,57
70486,note_on,2,0,1,,,,,,,,,0,,,38,63
70502,note_on,16,0,1,,,,,,,,,0,,,38,0
70502,note_on,16,0,0,,,,,,,,,0,,,50,0
70505,note_on,3,0,0,,,,,,,,,0,,,51,58
70505,note_on,3,0,1,,,,,,,,,0,,,39,64
70521,note_on,16,0,1,,,,,,,,,0,,,39,0
70521,note_on,16,0,0,,,,,,,,,0,,,51,0
70523,note_on,2,0,0,,,,,,,,,0,,,52,59
70523,note_on,2,0,1,,,,,,,,,0,,,40,65
70539,note_on,16,0,0,,,,,,,,,0,,,52,0
70539,note_on,16,0,1,,,,,,,,,0,,,40,0
70542,note_on,3,0,1,,,,,,,,,0,,,41,66
70542,note_on,3,0,0,,,,,,,,,0,,,53,60
70558,note_on,16,0,0,,,,,,,,,0,,,53,0
70558,note_on,16,0,1,,,,,,,,,0,,,41,0
70560,note_on,2,0,0,,,,,,,,,0,,,54,60
70560,note_on,2,0,1,,,,,,,,,0,,,42,66
70576,note_on,16,0,1,,,,,,,,,0,,,42,0
70576,note_on,16,0,0,,,,,,,,,0,,,54,0
70578,note_on,2,0,0,,,,,,,,,0,,,53,60
70578,note_on,2,0,1,,,,,,,,,0,,,41,66
70594,note_on,16,0,0,,,,,,,,,0,,,53,0
70594,note_on,16,0,1,,,,,,,,,0,,,41,0
70597,note_on,3,0,1,,,,,,,,,0,,,40,66
70597,note_on,3,0,0,,,,,,,,,0,,,52,60
70613,note_on,16,0,1,,,,,,,,,0,,,40,0
70613,note_on,16,0,0,,,,,,,,,0,,,52,0
70615,note_on,2,0,1,,,,,,,,,0,,,39,67
70615,note_on,2,0,0,,,,,,,,,0,,,51,61
70631,note_on,16,0,1,,,,,,,,,0,,,39,0
70631,note_on,16,0,0,,,,,,,,,0,,,51,0
70634,note_on,3,0,1,,,,,,,,,0,,,38,67
70634,note_on,3,0,0,,,,,,,,,0,,,50,61
70650,note_on,16,0,0,,,,,,,,,0,,,50,0
70650,note_on,16,0,1,,,,,,,,,0,,,38,0
70652,note_on,2,0,1,,,,,,,,,0,,,37,67
70652,note_on,2,0,0,,,,,,,,,0,,,49,62
70668,note_on,16,0,1,,,,,,,,,0,,,37,0
70668,note_on,16,0,0,,,,,,,,,0,,,49,0
70671,note_on,3,0,0,,,,,,,,,0,,,48,62
70671,note_on,3,0,1,,,,,,,,,0,,,36,68
70687,note_on,16,0,1,,,,,,,,,0,,,36,0
70687,note_on,16,0,0,,,,,,,,,0,,,48,0
70689,note_on,2,0,1,,,,,,,,,0,,,35,68
70689,note_on,2,0,0,,,,,,,,,0,,,47,63
70705,note_on,16,0,1,,,,,,,,,0,,,35,0
70705,note_on,16,0,0,,,,,,,,,0,,,47,0
70708,note_on,3,0,1,,,,,,,,,0,,,34,68
70708,note_on,3,0,0,,,,,,,,,0,,,46,63
70724,note_on,16,0,0,,,,,,,,,0,,,46,0
70724,note_on,16,0,1,,,,,,,,,0,,,34,0
70726,note_on,2,0,0,,,,,,,,,0,,,45,63
70726,note_on,2,0,1,,,,,,,,,0,,,33,68
70742,note_on,16,0,1,,,,,,,,,0,,,33,0
70742,note_on,16,0,0,,,,,,,,,0,,,45,0
70745,note_on,3,0,0,,,,,,,,,0,,,44,63
70745,note_on,3,0,1,,,,,,,,,0,,,32,68
70761,note_on,16,0,0,,,,,,,,,0,,,44,0
70761,note_on,16,0,1,,,,,,,,,0,,,32,0
70763,note_on,2,0,0,,,,,,,,,0,,,43,64
70763,note_on,2,0,1,,,,,,,,,0,,,31,69
70779,note_on,16,0,1,,,,,,,,,0,,,31,0
70779,note_on,16,0,0,,,,,,,,,0,,,43,0
70782,note_on,3,0,0,,,,,,,,,0,,,42,64
70782,note_on,3,0,1,,,,,,,,,0,,,30,69
70798,note_on,16,0,1,,,,,,,,,0,,,30,0
70798,note_on,16,0,0,,,,,,,,,0,,,42,0
70800,set_tempo,2,1,0,,,,,,5999988,,,,,,,
70800,note_on,0,0,0,,,,,,,,,0,,,41,65
70800,note_on,2,0,1,,,,,,,,,0,,,29,70
70827,note_on,27,0,1,,,,,,,,,0,,,29,0
70827,note_on,27,0,0,,,,,,,,,0,,,41,0
70830,note_on,0,0,0,,,,,,,,,0,,,42,65
70830,note_on,3,0,1,,,,,,,,,0,,,30,70
70830,set_tempo,3,1,0,,,,,,1200000,,,,,,,
70857,note_on,27,0,1,,,,,,,,,0,,,30,0
70857,note_on,27,0,0,,,,,,,,,0,,,42,0
70860,note_on,3,0,1,,,,,,,,,0,,,31,71
70860,note_on,3,0,0,,,,,,,,,0,,,43,66
70887,note_on,27,0,1,,,,,,,,,0,,,31,0
70887,note_on,27,0,0,,,,,,,,,0,,,43,0
70890,note_on,3,0,0,,,,,,,,,0,,,44,67
70890,note_on,3,0,1,,,,,,,,,0,,,32,71
70917,note_on,27,0,1,,,,,,,,,0,,,32,0
70917,note_on,27,0,0,,,,,,,,,0,,,44,0
70920,note_on,3,0,0,,,,,,,,,0,,,45,68
70920,note_on,3,0,1,,,,,,,,,0,,,33,72
70947,note_on,27,0,0,,,,,,,,,0,,,45,0
70947,note_on,27,0,1,,,,,,,,,0,,,33,0
70950,note_on,3,0,0,,,,,,,,,0,,,46,68
70950,note_on,3,0,1,,,,,,,,,0,,,34,73
70977,note_on,27,0,0,,,,,,,,,0,,,46,0
70977,note_on,27,0,1,,,,,,,,,0,,,34,0
70980,note_on,3,0,0,,,,,,,,,0,,,47,68
70980,note_on,3,0,1,,,,,,,,,0,,,35,73
71007,note_on,27,0,0,,,,,,,,,0,,,47,0
71007,note_on,27,0,1,,,,,,,,,0,,,35,0
71010,note_on,3,0,0,,,,,,,,,0,,,48,69
71010,note_on,3,0,1,,,,,,,,,0,,,36,74
71037,note_on,27,0,0,,,,,,,,,0,,,48,0
71037,note_on,27,0,1,,,,,,,,,0,,,36,0
71040,note_on,3,0,0,,,,,,,,,0,,,49,70
71040,note_on,3,0,1,,,,,,,,,0,,,37,74
71067,note_on,27,0,0,,,,,,,,,0,,,49,0
71067,note_on,27,0,1,,,,,,,,,0,,,37,0
71070,note_on,3,0,1,,,,,,,,,0,,,38,74
71070,note_on,3,0,0,,,,,,,,,0,,,50,70
71097,note_on,27,0,1,,,,,,,,,0,,,38,0
71097,note_on,27,0,0,,,,,,,,,0,,,50,0
71100,note_on,3,0,0,,,,,,,,,0,,,51,71
71100,note_on,3,0,1,,,,,,,,,0,,,39,75
71127,note_on,27,0,1,,,,,,,,,0,,,39,0
71127,note_on,27,0,0,,,,,,,,,0,,,51,0
71130,note_on,3,0,1,,,,,,,,,0,,,40,75
71130,note_on,3,0,0,,,,,,,,,0,,,52,72
71157,note_on,27,0,1,,,,,,,,,0,,,40,0
71157,note_on,27,0,0,,,,,,,,,0,,,52,0
71160,note_on,3,0,1,,,,,,,,,0,,,41,76
71160,note_on,3,0,0,,,,,,,,,0,,,53,73
71187,note_on,27,0,1,,,,,,,,,0,,,41,0
71187,note_on,27,0,0,,,,,,,,,0,,,53,0
71190,note_on,3,0,1,,,,,,,,,0,,,42,77
71190,note_on,3,0,0,,,,,,,,,0,,,54,73
71217,note_on,27,0,0,,,,,,,,,0,,,54,0
71217,note_on,27,0,1,,,,,,,,,0,,,42,0
71220,note_on,3,0,1,,,,,,,,,0,,,43,77
71220,note_on,3,0,0,,,,,,,,,0,,,55,74
71247,note_on,27,0,1,,,,,,,,,0,,,43,0
71247,note_on,27,0,0,,,,,,,,,0,,,55,0
71250,note_on,3,0,1,,,,,,,,,0,,,44,78
71250,note_on,3,0,0,,,,,,,,,0,,,56,74
71277,note_on,27,0,0,,,,,,,,,0,,,56,0
71277,note_on,27,0,1,,,,,,,,,0,,,44,0
71280,set_tempo,3,1,0,,,,,,5999988,,,,,,,
71280,note_on,3,0,1,,,,,,,,,0,,,45,79
71280,note_on,0,0,0,,,,,,,,,0,,,57,75
71307,note_on,27,0,0,,,,,,,,,0,,,57,0
71307,note_on,27,0,1,,,,,,,,,0,,,45,0
71310,set_tempo,3,1,0,,,,,,1200000,,,,,,,
71310,note_on,0,0,0,,,,,,,,,0,,,56,75
71310,note_on,3,0,1,,,,,,,,,0,,,44,79
71337,note_on,27,0,0,,,,,,,,,0,,,56,0
71337,note_on,27,0,1,,,,,,,,,0,,,44,0
71340,note_on,3,0,1,,,,,,,,,0,,,43,80
71340,note_on,3,0,0,,,,,,,,,0,,,55,76
71367,note_on,27,0,1,,,,,,,,,0,,,43,0
71367,note_on,27,0,0,,,,,,,,,0,,,55,0
71370,note_on,3,0,1,,,,,,,,,0,,,42,80
71370,note_on,3,0,0,,,,,,,,,0,,,54,77
71397,note_on,27,0,1,,,,,,,,,0,,,42,0
71397,note_on,27,0,0,,,,,,,,,0,,,54,0
71400,note_on,3,0,1,,,,,,,,,0,,,41,80
71400,note_on,3,0,0,,,,,,,,,0,,,53,78
71427,note_on,27,0,1,,,,,,,,,0,,,41,0
71427,note_on,27,0,0,,,,,,,,,0,,,53,0
71430,note_on,3,0,0,,,,,,,,,0,,,52,78
71430,note_on,3,0,1,,,,,,,,,0,,,40,81
71457,note_on,27,0,1,,,,,,,,,0,,,40,0
71457,note_on,27,0,0,,,,,,,,,0,,,52,0
71460,note_on,3,0,1,,,,,,,,,0,,,39,81
71460,note_on,3,0,0,,,,,,,,,0,,,51,79
71487,note_on,27,0,1,,,,,,,,,0,,,39,0
71487,note_on,27,0,0,,,,,,,,,0,,,51,0
71490,note_on,3,0,0,,,,,,,,,0,,,50,80
71490,note_on,3,0,1,,,,,,,,,0,,,38,82
71517,note_on,27,0,1,,,,,,,,,0,,,38,0
71517,note_on,27,0,0,,,,,,,,,0,,,50,0
71520,note_on,3,0,0,,,,,,,,,0,,,49,80
71520,note_on,3,0,1,,,,,,,,,0,,,37,83
71547,note_on,27,0,1,,,,,,,,,0,,,37,0
71547,note_on,27,0,0,,,,,,,,,0,,,49,0
71550,note_on,3,0,1,,,,,,,,,0,,,36,83
71550,note_on,3,0,0,,,,,,,,,0,,,48,80
71577,note_on,27,0,1,,,,,,,,,0,,,36,0
71577,note_on,27,0,0,,,,,,,,,0,,,48,0
71580,note_on,3,0,0,,,,,,,,,0,,,47,81
71580,note_on,3,0,1,,,,,,,,,0,,,35,84
71607,note_on,27,0,1,,,,,,,,,0,,,35,0
71607,note_on,27,0,0,,,,,,,,,0,,,47,0
71610,note_on,3,0,1,,,,,,,,,0,,,34,84
71610,note_on,3,0,0,,,,,,,,,0,,,46,82
71637,note_on,27,0,0,,,,,,,,,0,,,46,0
71637,note_on,27,0,1,,,,,,,,,0,,,34,0
71640,note_on,3,0,1,,,,,,,,,0,,,33,85
71640,note_on,3,0,0,,,,,,,,,0,,,45,83
71667,note_on,27,0,1,,,,,,,,,0,,,33,0
71667,note_on,27,0,0,,,,,,,,,0,,,45,0
71670,note_on,3,0,0,,,,,,,,,0,,,44,83
71670,note_on,3,0,1,,,,,,,,,0,,,32,85
71697,note_on,27,0,0,,,,,,,,,0,,,44,0
71697,note_on,27,0,1,,,,,,,,,0,,,32,0
71700,note_on,3,0,0,,,,,,,,,0,,,43,84
71700,note_on,3,0,1,,,,,,,,,0,,,31,85
71727,note_on,27,0,1,,,,,,,,,0,,,31,0
71727,note_on,27,0,0,,,,,,,,,0,,,43,0
71730,note_on,3,0,0,,,,,,,,,0,,,42,85
71730,note_on,3,0,1,,,,,,,,,0,,,30,86
71757,note_on,27,0,1,,,,,,,,,0,,,30,0
71757,note_on,27,0,0,,,,,,,,,0,,,42,0
71760,note_on,3,0,1,,,,,,,,,0,,,29,87
71760,note_on,0,0,0,,,,,,,,,0,,,41,85
71760,set_tempo,0,1,0,,,,,,1500000,,,,,,,
71760,time_signature,3,1,0,7,8,24,8,,,,,,,,,
71776,note_on,16,0,0,,,,,,,,,0,,,41,0
71776,note_on,16,0,1,,,,,,,,,0,,,29,0
71778,note_on,2,0,0,,,,,,,,,0,,,42,85
71778,note_on,2,0,1,,,,,,,,,0,,,30,87
71794,note_on,16,0,1,,,,,,,,,0,,,30,0
71794,note_on,16,0,0,,,,,,,,,0,,,42,0
71797,note_on,3,0,0,,,,,,,,,0,,,43,85
71797,note_on,3,0,1,,,,,,,,,0,,,31,87
71813,note_on,16,0,1,,,,,,,,,0,,,31,0
71813,note_on,16,0,0,,,,,,,,,0,,,43,0
71815,note_on,2,0,0,,,,,,,,,0,,,44,86
71815,note_on,2,0,1,,,,,,,,,0,,,32,88
71831,note_on,16,0,1,,,,,,,,,0,,,32,0
71831,note_on,16,0,0,,,,,,,,,0,,,44,0
71834,note_on,3,0,0,,,,,,,,,0,,,45,86
71834,note_on,3,0,1,,,,,,,,,0,,,33,88
71850,note_on,16,0,0,,,,,,,,,0,,,45,0
71850,note_on,16,0,1,,,,,,,,,0,,,33,0
71852,note_on,2,0,1,,,,,,,,,0,,,34,88
71852,note_on,2,0,0,,,,,,,,,0,,,46,87
71868,note_on,16,0,0,,,,,,,,,0,,,46,0
71868,note_on,16,0,1,,,,,,,,,0,,,34,0
71871,note_on,3,0,1,,,,,,,,,0,,,35,89
71871,note_on,3,0,0,,,,,,,,,0,,,47,87
71887,note_on,16,0,1,,,,,,,,,0,,,35,0
71887,note_on,16,0,0,,,,,,,,,0,,,47,0
71889,note_on,2,0,0,,,,,,,,,0,,,48,88
71889,note_on,2,0,1,,,,,,,,,0,,,36,89
71905,note_on,16,0,0,,,,,,,,,0,,,48,0
71905,note_on,16,0,1,,,,,,,,,0,,,36,0
71908,note_on,3,0,0,,,,,,,,,0,,,49,88
71908,note_on,3,0,1,,,,,,,,,0,,,37,90
71924,note_on,16,0,0,,,,,,,,,0,,,49,0
71924,note_on,16,0,1,,,,,,,,,0,,,37,0
71926,note_on,2,0,0,,,,,,,,,0,,,50,89
71926,note_on,2,0,1,,,,,,,,,0,,,38,90
71942,note_on,16,0,0,,,,,,,,,0,,,50,0
71942,note_on,16,0,1,,,,,,,,,0,,,38,0
71945,note_on,3,0,1,,,,,,,,,0,,,39,90
71945,note_on,3,0,0,,,,,,,,,0,,,51,89
71961,note_on,16,0,1,,,,,,,,,0,,,39,0
71961,note_on,16,0,0,,,,,,,,,0,,,51,0
71963,note_on,2,0,0,,,,,,,,,0,,,52,90
71963,note_on,2,0,1,,,,,,,,,0,,,40,91
71979,note_on,16,0,0,,,,,,,,,0,,,52,0
71979,note_on,16,0,1,,,,,,,,,0,,,40,0
71982,set_tempo,3,1,0,,,,,,5999988,,,,,,,
71982,note_on,3,0,1,,,,,,,,,0,,,41,91
71982,note_on,0,0,0,,,,,,,,,0,,,53,90
71998,note_on,16,0,1,,,,,,,,,0,,,41,0
71998,note_on,16,0,0,,,,,,,,,0,,,53,0
72000,note_on,0,0,0,,,,,,,,,0,,,54,91
72000,note_on,2,0,1,,,,,,,,,0,,,42,91
72000,set_tempo,2,1,0,,,,,,1200000,,,,,,,
72031,note_on,31,0,0,,,,,,,,,0,,,54,0
72031,note_on,31,0,1,,,,,,,,,0,,,42,0
72034,note_on,3,0,1,,,,,,,,,0,,,43,91
72034,note_on,3,0,0,,,,,,,,,0,,,55,91
72065,note_on,31,0,0,,,,,,,,,0,,,55,0
72065,note_on,31,0,1,,,,,,,,,0,,,43,0
72069,note_on,4,0,0,,,,,,,,,0,,,56,91
72069,note_on,4,0,1,,,,,,,,,0,,,44,92
72100,note_on,31,0,0,,,,,,,,,0,,,56,0
72100,note_on,31,0,1,,,,,,,,,0,,,44,0
72103,note_on,3,0,0,,,,,,,,,0,,,57,92
72103,note_on,3,0,1,,,,,,,,,0,,,45,93
72134,note_on,31,0,0,,,,,,,,,0,,,57,0
72134,note_on,31,0,1,,,,,,,,,0,,,45,0
72137,note_on,3,0,0,,,,,,,,,0,,,58,93
72137,note_on,3,0,1,,,,,,,,,0,,,46,93
72168,note_on,31,0,0,,,,,,,,,0,,,58,0
72168,note_on,31,0,1,,,,,,,,,0,,,46,0
72171,note_on,3,0,0,,,,,,,,,0,,,59,94
72171,note_on,3,0,1,,,,,,,,,0,,,47,94
72202,note_on,31,0,0,,,,,,,,,0,,,59,0
72202,note_on,31,0,1,,,,,,,,,0,,,47,0
72206,note_on,4,0,0,,,,,,,,,0,,,60,95
72206,note_on,4,0,1,,,,,,,,,0,,,48,95
72237,note_on,31,0,0,,,,,,,,,0,,,60,0
72237,note_on,31,0,1,,,,,,,,,0,,,48,0
72240,note_on,0,0,0,,,,,,,,,0,,,65,96
72240,note_on,3,0,1,,,,,,,,,0,,,37,127
72240,note_on,0,0,0,,,,,,,,,0,,,61,96
72240,note_on,3,0,0,,,,,,,,,0,,,53,96
72242,control_change,2,0,1,,,,,,,64,127,0,,,,
72266,note_on,24,0,1,,,,,,,,,0,,,41,127
72267,note_on,27,0,0,,,,,,,,,0,,,53,0
72267,note_on,0,0,0,,,,,,,,,0,,,61,0
72267,note_on,0,0,0,,,,,,,,,0,,,65,0
72270,note_on,3,0,0,,,,,,,,,0,,,60,96
72293,note_on,27,0,1,,,,,,,,,0,,,49,127
72297,note_on,27,0,0,,,,,,,,,0,,,60,0
72300,note_on,3,0,0,,,,,,,,,0,,,59,96
72327,note_on,27,0,0,,,,,,,,,0,,,59,0
72330,note_on,3,0,0,,,,,,,,,0,,,59,96
72357,note_on,27,0,0,,,,,,,,,0,,,59,0
72360,note_on,3,0,0,,,,,,,,,0,,,57,96
72387,note_on,27,0,0,,,,,,,,,0,,,57,0
72390,note_on,3,0,0,,,,,,,,,0,,,59,96
72417,note_on,27,0,0,,,,,,,,,0,,,59,0
72420,note_on,3,0,0,,,,,,,,,0,,,59,96
72447,note_on,27,0,0,,,,,,,,,0,,,59,0
72450,note_on,3,0,0,,,,,,,,,0,,,60,96
72477,note_on,27,0,0,,,,,,,,,0,,,60,0
72478,note_on,0,0,1,,,,,,,,,0,,,49,0
72478,note_on,185,0,1,,,,,,,,,0,,,41,0
72479,note_on,1,0,1,,,,,,,,,0,,,37,0
72480,note_on,3,0,0,,,,,,,,,0,,,61,96
72480,note_on,1,0,1,,,,,,,,,0,,,36,127
72506,note_on,26,0,1,,,,,,,,,0,,,41,127
72507,note_on,27,0,0,,,,,,,,,0,,,61,0
72510,note_on,3,0,0,,,,,,,,,0,,,62,96
72533,note_on,27,0,1,,,,,,,,,0,,,48,127
72537,note_on,27,0,0,,,,,,,,,0,,,62,0
72540,note_on,3,0,0,,,,,,,,,0,,,63,96
72567,note_on,27,0,0,,,,,,,,,0,,,63,0
72570,note_on,3,0,0,,,,,,,,,0,,,64,96
72597,note_on,27,0,0,,,,,,,,,0,,,64,0
72600,note_on,3,0,0,,,,,,,,,0,,,65,96
72627,note_on,27,0,0,,,,,,,,,0,,,65,0
72630,note_on,3,0,0,,,,,,,,,0,,,66,96
72657,note_on,27,0,0,,,,,,,,,0,,,66,0
72660,note_on,3,0,0,,,,,,,,,0,,,67,96
72687,note_on,27,0,0,,,,,,,,,0,,,67,0
72690,note_on,3,0,0,,,,,,,,,0,,,68,96
72717,note_on,27,0,0,,,,,,,,,0,,,68,0
72718,note_on,185,0,1,,,,,,,,,0,,,41,0
72718,note_on,0,0,1,,,,,,,,,0,,,48,0
72719,note_on,1,0,1,,,,,,,,,0,,,36,0
72720,note_on,1,0,1,,,,,,,,,0,,,34,127
72720,note_on,3,0,0,,,,,,,,,0,,,69,96
72737,note_on,17,0,1,,,,,,,,,0,,,37,127
72747,note_on,27,0,0,,,,,,,,,0,,,69,0
72750,note_on,3,0,0,,,,,,,,,0,,,70,96
72754,note_on,17,0,1,,,,,,,,,0,,,41,127
72772,note_on,18,0,1,,,,,,,,,0,,,46,127
72777,note_on,27,0,0,,,,,,,,,0,,,70,0
72780,note_on,3,0,0,,,,,,,,,0,,,71,96
72807,note_on,27,0,0,,,,,,,,,0,,,71,0
72810,note_on,3,0,0,,,,,,,,,0,,,72,96
72837,note_on,27,0,0,,,,,,,,,0,,,72,0
72840,note_on,3,0,0,,,,,,,,,0,,,73,96
72867,note_on,27,0,0,,,,,,,,,0,,,73,0
72870,note_on,3,0,0,,,,,,,,,0,,,74,96
72897,note_on,27,0,0,,,,,,,,,0,,,74,0
72900,note_on,3,0,0,,,,,,,,,0,,,75,96
72927,note_on,27,0,0,,,,,,,,,0,,,75,0
72930,note_on,3,0,0,,,,,,,,,0,,,76,96
72957,note_on,27,0,0,,,,,,,,,0,,,76,0
72958,note_on,0,0,1,,,,,,,,,0,,,41,0
72958,note_on,0,0,1,,,,,,,,,0,,,46,0
72958,note_on,186,0,1,,,,,,,,,0,,,37,0
72959,note_on,1,0,1,,,,,,,,,0,,,34,0
72960,note_on,1,0,1,,,,,,,,,0,,,33,127
72960,note_on,3,0,0,,,,,,,,,0,,,77,96
72977,note_on,17,0,1,,,,,,,,,0,,,37,127
72984,note_on,24,0,0,,,,,,,,,0,,,77,0
72987,note_on,3,0,0,,,,,,,,,0,,,78,96
72994,note_on,17,0,1,,,,,,,,,0,,,41,127
73011,note_on,24,0,0,,,,,,,,,0,,,78,0
73012,note_on,18,0,1,,,,,,,,,0,,,45,127
73013,note_on,2,0,0,,,,,,,,,0,,,79,96
73037,note_on,24,0,0,,,,,,,,,0,,,79,0
73040,note_on,3,0,0,,,,,,,,,0,,,80,96
73064,note_on,24,0,0,,,,,,,,,0,,,80,0
73067,note_on,3,0,0,,,,,,,,,0,,,81,96
73091,note_on,24,0,0,,,,,,,,,0,,,81,0
73093,note_on,2,0,0,,,,,,,,,0,,,82,96
73117,note_on,24,0,0,,,,,,,,,0,,,82,0
73120,note_on,3,0,0,,,,,,,,,0,,,83,96
73144,note_on,24,0,0,,,,,,,,,0,,,83,0
73147,note_on,3,0,0,,,,,,,,,0,,,84,96
73171,note_on,24,0,0,,,,,,,,,0,,,84,0
73173,note_on,2,0,0,,,,,,,,,0,,,86,96
73197,note_on,24,0,0,,,,,,,,,0,,,86,0
73198,note_on,0,0,1,,,,,,,,,0,,,45,0
73198,note_on,0,0,1,,,,,,,,,0,,,41,0
73198,note_on,186,0,1,,,,,,,,,0,,,37,0
73199,note_on,1,0,1,,,,,,,,,0,,,33,0
73200,note_on,1,0,1,,,,,,,,,0,,,34,127
73200,note_on,3,0,0,,,,,,,,,0,,,86,96
73201,control_change,1,0,1,,,,,,,64,0,0,,,,
73202,control_change,1,0,1,,,,,,,64,127,0,,,,
73217,note_on,15,0,1,,,,,,,,,0,,,37,127
73224,note_on,24,0,0,,,,,,,,,0,,,86,0
73227,note_on,3,0,0,,,,,,,,,0,,,88,96
73234,note_on,17,0,1,,,,,,,,,0,,,41,127
73251,note_on,24,0,0,,,,,,,,,0,,,88,0
73252,note_on,18,0,1,,,,,,,,,0,,,46,127
73253,note_on,2,0,0,,,,,,,,,0,,,88,96
73277,note_on,24,0,0,,,,,,,,,0,,,88,0
73280,note_on,3,0,0,,,,,,,,,0,,,89,96
73304,note_on,24,0,0,,,,,,,,,0,,,89,0
73307,note_on,3,0,0,,,,,,,,,0,,,91,96
73331,note_on,24,0,0,,,,,,,,,0,,,91,0
73333,note_on,2,0,0,,,,,,,,,0,,,91,96
73357,note_on,24,0,0,,,,,,,,,0,,,91,0
73360,note_on,3,0,0,,,,,,,,,0,,,92,96
73384,note_on,24,0,0,,,,,,,,,0,,,92,0
73387,note_on,3,0,0,,,,,,,,,0,,,93,96
73411,note_on,24,0,0,,,,,,,,,0,,,93,0
73413,note_on,2,0,0,,,,,,,,,0,,,94,96
73437,note_on,24,0,0,,,,,,,,,0,,,94,0
73438,note_on,0,0,1,,,,,,,,,0,,,46,0
73438,note_on,0,0,1,,,,,,,,,0,,,41,0
73438,note_on,186,0,1,,,,,,,,,0,,,37,0
73439,note_on,1,0,1,,,,,,,,,0,,,34,0
73440,note_on,1,0,1,,,,,,,,,0,,,27,112
73440,note_on,0,0,1,,,,,,,,,0,,,39,112
73440,note_on,0,0,0,,,,,,,,,0,,,87,112
73440,note_on,0,0,0,,,,,,,,,0,,,99,112
73440,time_signature,3,1,0,6,8,24,8,,,,,,,,,
73441,control_change,1,0,1,,,,,,,64,0,0,,,,
73442,control_change,1,0,1,,,,,,,64,127,0,,,,
73518,note_on,76,0,1,,,,,,,,,0,,,27,0
73518,note_on,0,0,0,,,,,,,,,0,,,99,0
73518,note_on,0,0,1,,,,,,,,,0,,,39,0
73518,note_on,78,0,0,,,,,,,,,0,,,87,0
73680,note_on,162,0,1,,,,,,,,,0,,,54,96
73680,note_on,0,0,0,,,,,,,,,0,,,63,96
73680,note_on,162,0,0,,,,,,,,,0,,,59,127
73716,note_on,36,0,0,,,,,,,,,0,,,63,0
73716,note_on,36,0,1,,,,,,,,,0,,,54,0
73719,note_on,3,0,1,,,,,,,,,0,,,51,96
73719,note_on,3,0,0,,,,,,,,,0,,,66,96
73755,note_on,36,0,1,,,,,,,,,0,,,51,0
73755,note_on,36,0,0,,,,,,,,,0,,,66,0
73759,note_on,4,0,0,,,,,,,,,0,,,63,96
73759,note_on,4,0,1,,,,,,,,,0,,,54,96
73795,note_on,36,0,1,,,,,,,,,0,,,54,0
73795,note_on,36,0,0,,,,,,,,,0,,,63,0
73799,note_on,4,0,1,,,,,,,,,0,,,51,96
73799,note_on,4,0,0,,,,,,,,,0,,,66,96
73835,note_on,36,0,0,,,,,,,,,0,,,66,0
73835,note_on,36,0,1,,,,,,,,,0,,,51,0
73839,note_on,4,0,0,,,,,,,,,0,,,59,0
73839,note_on,4,0,1,,,,,,,,,0,,,54,96
73839,note_on,0,0,0,,,,,,,,,0,,,63,96
73875,note_on,36,0,0,,,,,,,,,0,,,63,0
73875,note_on,36,0,1,,,,,,,,,0,,,54,0
73879,note_on,4,0,0,,,,,,,,,0,,,66,96
73879,note_on,4,0,1,,,,,,,,,0,,,51,96
73915,note_on,36,0,1,,,,,,,,,0,,,51,0
73915,note_on,36,0,0,,,,,,,,,0,,,66,0
73919,note_on,4,0,0,,,,,,,,,0,,,63,96
73919,note_on,4,0,1,,,,,,,,,0,,,54,96
73920,note_on,1,0,0,,,,,,,,,0,,,58,112
73955,note_on,35,0,0,,,,,,,,,0,,,63,0
73955,note_on,36,0,1,,,,,,,,,0,,,54,0
73958,note_on,3,0,0,,,,,,,,,0,,,66,96
73958,note_on,3,0,1,,,,,,,,,0,,,51,96
73994,note_on,36,0,0,,,,,,,,,0,,,66,0
73994,note_on,36,0,1,,,,,,,,,0,,,51,0
73998,note_on,4,0,0,,,,,,,,,0,,,63,96
73998,note_on,4,0,1,,,,,,,,,0,,,54,96
74034,note_on,36,0,0,,,,,,,,,0,,,63,0
74034,note_on,36,0,1,,,,,,,,,0,,,54,0
74038,note_on,4,0,1,,,,,,,,,0,,,51,96
74038,note_on,4,0,0,,,,,,,,,0,,,66,96
74074,note_on,36,0,0,,,,,,,,,0,,,66,0
74074,note_on,36,0,1,,,,,,,,,0,,,51,0
74078,note_on,4,0,1,,,,,,,,,0,,,54,96
74078,note_on,4,0,0,,,,,,,,,0,,,63,96
74114,note_on,36,0,0,,,,,,,,,0,,,63,0
74114,note_on,36,0,1,,,,,,,,,0,,,54,0
74118,note_on,4,0,0,,,,,,,,,0,,,66,96
74118,note_on,4,0,1,,,,,,,,,0,,,51,96
74147,note_on,29,0,0,,,,,,,,,0,,,58,0
74154,note_on,36,0,1,,,,,,,,,0,,,51,0
74154,note_on,7,0,0,,,,,,,,,0,,,66,0
74158,note_on,4,0,1,,,,,,,,,0,,,54,96
74158,note_on,4,0,0,,,,,,,,,0,,,63,96
74160,note_on,2,0,0,,,,,,,,,0,,,57,112
74194,note_on,34,0,0,,,,,,,,,0,,,63,0
74194,note_on,36,0,1,,,,,,,,,0,,,54,0
74197,note_on,3,0,1,,,,,,,,,0,,,51,96
74197,note_on,3,0,0,,,,,,,,,0,,,66,96
74233,note_on,36,0,0,,,,,,,,,0,,,66,0
74233,note_on,36,0,1,,,,,,,,,0,,,51,0
74237,note_on,4,0,0,,,,,,,,,0,,,63,96
74237,note_on,4,0,1,,,,,,,,,0,,,54,96
74273,note_on,36,0,0,,,,,,,,,0,,,63,0
74273,note_on,36,0,1,,,,,,,,,0,,,54,0
74277,note_on,4,0,0,,,,,,,,,0,,,66,96
74277,note_on,4,0,1,,,,,,,,,0,,,51,96
74313,note_on,36,0,1,,,,,,,,,0,,,51,0
74313,note_on,36,0,0,,,,,,,,,0,,,66,0
74317,note_on,4,0,1,,,,,,,,,0,,,54,96
74317,note_on,4,0,0,,,,,,,,,0,,,63,96
74353,note_on,36,0,0,,,,,,,,,0,,,63,0
74353,note_on,36,0,1,,,,,,,,,0,,,54,0
74357,note_on,4,0,1,,,,,,,,,0,,,51,96
74357,note_on,4,0,0,,,,,,,,,0,,,66,96
74387,note_on,30,0,0,,,,,,,,,0,,,57,0
74393,note_on,36,0,1,,,,,,,,,0,,,51,0
74393,note_on,6,0,0,,,,,,,,,0,,,66,0
74397,note_on,4,0,1,,,,,,,,,0,,,54,96
74397,note_on,4,0,0,,,,,,,,,0,,,63,96
74400,note_on,3,0,0,,,,,,,,,0,,,58,112
74433,note_on,36,0,1,,,,,,,,,0,,,54,0
74433,note_on,33,0,0,,,,,,,,,0,,,63,0
74436,note_on,3,0,1,,,,,,,,,0,,,51,96
74436,note_on,3,0,0,,,,,,,,,0,,,66,96
74472,note_on,36,0,0,,,,,,,,,0,,,66,0
74472,note_on,36,0,1,,,,,,,,,0,,,51,0
74476,note_on,4,0,1,,,,,,,,,0,,,54,96
74476,note_on,4,0,0,,,,,,,,,0,,,63,96
74512,note_on,36,0,1,,,,,,,,,0,,,54,0
74512,note_on,36,0,0,,,,,,,,,0,,,63,0
74516,note_on,4,0,0,,,,,,,,,0,,,66,96
74516,note_on,4,0,1,,,,,,,,,0,,,51,96
74552,note_on,36,0,1,,,,,,,,,0,,,51,0
74552,note_on,36,0,0,,,,,,,,,0,,,66,0
74556,note_on,4,0,0,,,,,,,,,0,,,63,96
74556,note_on,4,0,1,,,,,,,,,0,,,54,96
74592,note_on,36,0,0,,,,,,,,,0,,,63,0
74592,note_on,36,0,1,,,,,,,,,0,,,54,0
74596,note_on,4,0,0,,,,,,,,,0,,,66,96
74596,note_on,4,0,1,,,,,,,,,0,,,51,96
74627,note_on,31,0,0,,,,,,,,,0,,,58,0
74632,note_on,36,0,1,,,,,,,,,0,,,51,0
74632,note_on,5,0,0,,,,,,,,,0,,,66,0
74640,note_on,0,0,1,,,,,,,,,0,,,54,0
74640,note_on,8,0,1,,,,,,,,,0,,,54,96
74640,note_on,8,0,0,,,,,,,,,0,,,63,96
74640,note_on,0,0,1,,,,,,,,,0,,,54,112
74677,note_on,37,0,0,,,,,,,,,0,,,63,0
74680,note_on,3,0,0,,,,,,,,,0,,,66,96
74680,note_on,40,0,1,,,,,,,,,0,,,51,96
74717,note_on,37,0,0,,,,,,,,,0,,,66,0
74717,note_on,37,0,1,,,,,,,,,0,,,51,0
74720,note_on,3,0,0,,,,,,,,,0,,,63,96
74720,note_on,3,0,1,,,,,,,,,0,,,54,0
74720,note_on,0,0,1,,,,,,,,,0,,,54,96
74757,note_on,37,0,0,,,,,,,,,0,,,63,0
74760,note_on,3,0,0,,,,,,,,,0,,,66,96
74760,note_on,40,0,1,,,,,,,,,0,,,51,96
74797,note_on,37,0,1,,,,,,,,,0,,,51,0
74797,note_on,37,0,0,,,,,,,,,0,,,66,0
74800,note_on,3,0,0,,,,,,,,,0,,,63,96
74800,note_on,3,0,1,,,,,,,,,0,,,54,0
74800,note_on,0,0,1,,,,,,,,,0,,,54,96
74837,note_on,37,0,0,,,,,,,,,0,,,63,0
74840,note_on,40,0,1,,,,,,,,,0,,,51,96
74840,note_on,3,0,0,,,,,,,,,0,,,66,96
74867,note_on,27,0,1,,,,,,,,,0,,,54,0
74877,note_on,37,0,0,,,,,,,,,0,,,66,0
74877,note_on,10,0,1,,,,,,,,,0,,,51,0
74880,note_on,3,0,1,,,,,,,,,0,,,63,112
74918,note_on,38,0,1,,,,,,,,,0,,,63,0
75120,note_on,0,0,1,,,,,,,,,0,,,46,127
75120,note_on,202,0,1,,,,,,,,,0,,,42,127
75120,note_on,0,0,1,,,,,,,,,0,,,54,127
75147,note_on,270,0,0,,,,,,,,,0,,,57,96
75171,note_on,24,0,0,,,,,,,,,0,,,57,0
75173,note_on,2,0,0,,,,,,,,,0,,,58,96
75197,note_on,24,0,0,,,,,,,,,0,,,58,0
75200,note_on,3,0,0,,,,,,,,,0,,,59,96
75224,note_on,24,0,0,,,,,,,,,0,,,59,0
75227,note_on,3,0,0,,,,,,,,,0,,,60,96
75251,note_on,24,0,0,,,,,,,,,0,,,60,0
75253,note_on,2,0,0,,,,,,,,,0,,,61,96
75277,note_on,24,0,0,,,,,,,,,0,,,61,0
75279,note_on,0,0,1,,,,,,,,,0,,,46,0
75279,note_on,0,0,1,,,,,,,,,0,,,54,0
75279,note_on,159,0,1,,,,,,,,,0,,,42,0
75280,note_on,3,0,0,,,,,,,,,0,,,62,96
75304,note_on,24,0,0,,,,,,,,,0,,,62,0
75307,note_on,3,0,0,,,,,,,,,0,,,63,96
75331,note_on,24,0,0,,,,,,,,,0,,,63,0
75333,note_on,2,0,0,,,,,,,,,0,,,64,96
75357,note_on,24,0,0,,,,,,,,,0,,,64,0
75360,note_on,3,0,0,,,,,,,,,0,,,65,96
75360,note_on,0,0,1,,,,,,,,,0,,,46,127
75360,note_on,0,0,1,,,,,,,,,0,,,53,127
75360,note_on,81,0,1,,,,,,,,,0,,,41,127
75361,control_change,1,0,1,,,,,,,64,0,0,,,,
75362,control_change,1,0,1,,,,,,,64,127,0,,,,
75384,note_on,24,0,0,,,,,,,,,0,,,65,0
75387,note_on,3,0,0,,,,,,,,,0,,,66,96
75411,note_on,24,0,0,,,,,,,,,0,,,66,0
75413,note_on,2,0,0,,,,,,,,,0,,,67,96
75437,note_on,24,0,0,,,,,,,,,0,,,67,0
75440,note_on,3,0,0,,,,,,,,,0,,,68,96
75464,note_on,24,0,0,,,,,,,,,0,,,68,0
75467,note_on,3,0,0,,,,,,,,,0,,,69,96
75491,note_on,24,0,0,,,,,,,,,0,,,69,0
75493,note_on,2,0,0,,,,,,,,,0,,,70,96
75517,note_on,24,0,0,,,,,,,,,0,,,70,0
75519,note_on,157,0,1,,,,,,,,,0,,,41,0
75519,note_on,0,0,1,,,,,,,,,0,,,46,0
75519,note_on,0,0,1,,,,,,,,,0,,,53,0
75520,note_on,3,0,0,,,,,,,,,0,,,71,96
75544,note_on,24,0,0,,,,,,,,,0,,,71,0
75547,note_on,3,0,0,,,,,,,,,0,,,72,96
75571,note_on,24,0,0,,,,,,,,,0,,,72,0
75573,note_on,2,0,0,,,,,,,,,0,,,73,96
75597,note_on,24,0,0,,,,,,,,,0,,,73,0
75600,note_on,3,0,0,,,,,,,,,0,,,74,96
75600,note_on,0,0,1,,,,,,,,,0,,,51,127
75600,note_on,0,0,1,,,,,,,,,0,,,45,127
75600,note_on,81,0,1,,,,,,,,,0,,,39,127
75600,note_on,0,0,1,,,,,,,,,0,,,42,127
75601,control_change,1,0,1,,,,,,,64,0,0,,,,
75602,control_change,1,0,1,,,,,,,64,127,0,,,,
75624,note_on,24,0,0,,,,,,,,,0,,,74,0
75627,note_on,3,0,0,,,,,,,,,0,,,75,96
75651,note_on,24,0,0,,,,,,,,,0,,,75,0
75653,note_on,2,0,0,,,,,,,,,0,,,76,96
75677,note_on,24,0,0,,,,,,,,,0,,,76,0
75680,note_on,3,0,0,,,,,,,,,0,,,77,96
75704,note_on,24,0,0,,,,,,,,,0,,,77,0
75707,note_on,3,0,0,,,,,,,,,0,,,78,96
75731,note_on,24,0,0,,,,,,,,,0,,,78,0
75733,note_on,2,0,0,,,,,,,,,0,,,79,96
75757,note_on,24,0,0,,,,,,,,,0,,,79,0
75759,note_on,0,0,1,,,,,,,,,0,,,51,0
75759,note_on,157,0,1,,,,,,,,,0,,,39,0
75759,note_on,0,0,1,,,,,,,,,0,,,45,0
75759,note_on,0,0,1,,,,,,,,,0,,,42,0
75760,note_on,3,0,0,,,,,,,,,0,,,80,96
75784,note_on,24,0,0,,,,,,,,,0,,,80,0
75787,note_on,3,0,0,,,,,,,,,0,,,81,96
75811,note_on,24,0,0,,,,,,,,,0,,,81,0
75813,note_on,2,0,0,,,,,,,,,0,,,82,96
75837,note_on,24,0,0,,,,,,,,,0,,,82,0
75840,note_on,81,0,1,,,,,,,,,0,,,37,127
75840,note_on,0,0,1,,,,,,,,,0,,,49,127
75840,note_on,0,0,1,,,,,,,,,0,,,45,127
75840,note_on,0,0,1,,,,,,,,,0,,,41,127
75840,note_on,3,0,0,,,,,,,,,0,,,83,96
75864,note_on,24,0,0,,,,,,,,,0,,,83,0
75867,note_on,3,0,0,,,,,,,,,0,,,84,96
75891,note_on,24,0,0,,,,,,,,,0,,,84,0
75893,note_on,2,0,0,,,,,,,,,0,,,85,96
75917,note_on,24,0,0,,,,,,,,,0,,,85,0
75920,note_on,3,0,0,,,,,,,,,0,,,86,96
75944,note_on,24,0,0,,,,,,,,,0,,,86,0
75947,note_on,3,0,0,,,,,,,,,0,,,87,96
75971,note_on,24,0,0,,,,,,,,,0,,,87,0
75973,note_on,2,0,0,,,,,,,,,0,,,88,96
75997,note_on,24,0,0,,,,,,,,,0,,,88,0
75999,note_on,0,0,1,,,,,,,,,0,,,41,0
75999,note_on,0,0,1,,,,,,,,,0,,,45,0
75999,note_on,159,0,1,,,,,,,,,0,,,37,0
75999,note_on,0,0,1,,,,,,,,,0,,,49,0
76000,note_on,3,0,0,,,,,,,,,0,,,89,96
76024,note_on,24,0,0,,,,,,,,,0,,,89,0
76027,note_on,3,0,0,,,,,,,,,0,,,90,96
76051,note_on,24,0,0,,,,,,,,,0,,,90,0
76053,note_on,2,0,0,,,,,,,,,0,,,91,96
76077,note_on,24,0,0,,,,,,,,,0,,,91,0
76080,note_on,0,0,1,,,,,,,,,0,,,41,127
76080,note_on,0,0,1,,,,,,,,,0,,,48,127
76080,note_on,0,0,1,,,,,,,,,0,,,39,127
76080,note_on,0,0,1,,,,,,,,,0,,,45,127
76080,note_on,81,0,1,,,,,,,,,0,,,36,127
76080,note_on,3,0,0,,,,,,,,,0,,,92,96
76081,control_change,1,0,1,,,,,,,64,0,0,,,,
76082,control_change,1,0,1,,,,,,,64,127,0,,,,
76104,note_on,24,0,0,,,,,,,,,0,,,92,0
76107,note_on,3,0,0,,,,,,,,,0,,,93,96
76131,note_on,24,0,0,,,,,,,,,0,,,93,0
76133,note_on,2,0,0,,,,,,,,,0,,,94,96
76157,note_on,24,0,0,,,,,,,,,0,,,94,0
76160,note_on,3,0,0,,,,,,,,,0,,,95,96
76184,note_on,24,0,0,,,,,,,,,0,,,95,0
76187,note_on,3,0,0,,,,,,,,,0,,,96,96
76211,note_on,24,0,0,,,,,,,,,0,,,96,0
76213,note_on,2,0,0,,,,,,,,,0,,,97,96
76237,note_on,24,0,0,,,,,,,,,0,,,97,0
76239,note_on,0,0,1,,,,,,,,,0,,,45,0
76239,note_on,0,0,1,,,,,,,,,0,,,39,0
76239,note_on,0,0,1,,,,,,,,,0,,,48,0
76239,note_on,157,0,1,,,,,,,,,0,,,36,0
76239,note_on,0,0,1,,,,,,,,,0,,,41,0
76240,note_on,3,0,0,,,,,,,,,0,,,98,96
76264,note_on,24,0,0,,,,,,,,,0,,,98,0
76267,note_on,3,0,0,,,,,,,,,0,,,99,96
76291,note_on,24,0,0,,,,,,,,,0,,,99,0
76293,note_on,2,0,0,,,,,,,,,0,,,100,96
76317,note_on,24,0,0,,,,,,,,,0,,,100,0
76320,note_on,0,0,0,,,,,,,,,0,,,94,112
76320,note_on,0,0,1,,,,,,,,,0,,,46,112
76320,note_on,0,0,1,,,,,,,,,0,,,37,112
76320,note_on,3,0,0,,,,,,,,,0,,,89,112
76320,note_on,81,0,1,,,,,,,,,0,,,34,112
76320,note_on,0,0,0,,,,,,,,,0,,,101,112
76321,control_change,1,0,1,,,,,,,64,0,0,,,,
76322,control_change,1,0,1,,,,,,,64,127,0,,,,
76398,note_on,0,0,1,,,,,,,,,0,,,37,0
76398,note_on,0,0,1,,,,,,,,,0,,,46,0
76398,note_on,78,0,0,,,,,,,,,0,,,89,0
76398,note_on,0,0,0,,,,,,,,,0,,,94,0
76398,note_on,0,0,0,,,,,,,,,0,,,101,0
76398,note_on,76,0,1,,,,,,,,,0,,,34,0
76560,note_on,0,0,1,,,,,,,,,0,,,54,94
76560,note_on,162,0,0,,,,,,,,,0,,,58,80
76560,note_on,162,0,1,,,,,,,,,0,,,54,80
76560,note_on,0,0,1,,,,,,,,,0,,,54,0
76560,note_on,0,0,0,,,,,,,,,0,,,61,80
76561,control_change,1,0,1,,,,,,,64,0,0,,,,
76562,control_change,1,0,1,,,,,,,64,127,0,,,,
76597,note_on,37,0,0,,,,,,,,,0,,,58,0
76597,note_on,0,0,0,,,,,,,,,0,,,61,0
76600,note_on,38,0,1,,,,,,,,,0,,,49,80
76600,note_on,3,0,0,,,,,,,,,0,,,65,80
76637,note_on,37,0,1,,,,,,,,,0,,,49,0
76637,note_on,37,0,0,,,,,,,,,0,,,65,0
76640,note_on,3,0,1,,,,,,,,,0,,,54,0
76640,note_on,0,0,0,,,,,,,,,0,,,61,81
76640,note_on,0,0,1,,,,,,,,,0,,,54,81
76640,note_on,3,0,0,,,,,,,,,0,,,58,81
76677,note_on,0,0,0,,,,,,,,,0,,,61,0
76677,note_on,37,0,0,,,,,,,,,0,,,58,0
76680,note_on,3,0,0,,,,,,,,,0,,,65,81
76680,note_on,40,0,1,,,,,,,,,0,,,49,81
76717,note_on,37,0,0,,,,,,,,,0,,,65,0
76717,note_on,37,0,1,,,,,,,,,0,,,49,0
76720,note_on,0,0,0,,,,,,,,,0,,,61,82
76720,note_on,3,0,0,,,,,,,,,0,,,58,82
76720,note_on,3,0,1,,,,,,,,,0,,,54,0
76720,note_on,0,0,1,,,,,,,,,0,,,54,82
76757,note_on,0,0,0,,,,,,,,,0,,,61,0
76757,note_on,37,0,0,,,,,,,,,0,,,58,0
76760,note_on,40,0,1,,,,,,,,,0,,,49,83
76760,note_on,3,0,0,,,,,,,,,0,,,65,83
76787,note_on,27,0,1,,,,,,,,,0,,,54,0
76797,note_on,10,0,1,,,,,,,,,0,,,49,0
76797,note_on,37,0,0,,,,,,,,,0,,,65,0
76800,note_on,3,0,1,,,,,,,,,0,,,53,83
76800,note_on,0,0,0,,,,,,,,,0,,,61,83
76800,note_on,0,0,1,,,,,,,,,0,,,53,0
76800,note_on,3,0,0,,,,,,,,,0,,,58,83
76800,note_on,0,0,1,,,,,,,,,0,,,53,97
76801,control_change,1,0,1,,,,,,,64,0,0,,,,
76802,control_change,1,0,1,,,,,,,64,127,0,,,,
76837,note_on,37,0,0,,,,,,,,,0,,,58,0
76837,note_on,0,0,0,,,,,,,,,0,,,61,0
76840,note_on,3,0,0,,,,,,,,,0,,,65,84
76840,note_on,38,0,1,,,,,,,,,0,,,49,84
76877,note_on,37,0,0,,,,,,,,,0,,,65,0
76877,note_on,37,0,1,,,,,,,,,0,,,49,0
76880,note_on,0,0,0,,,,,,,,,0,,,61,84
76880,note_on,3,0,0,,,,,,,,,0,,,58,84
76880,note_on,0,0,1,,,,,,,,,0,,,53,84
76880,note_on,3,0,1,,,,,,,,,0,,,53,0
76917,note_on,0,0,0,,,,,,,,,0,,,61,0
76917,note_on,37,0,0,,,,,,,,,0,,,58,0
76920,note_on,3,0,0,,,,,,,,,0,,,65,85
76920,note_on,40,0,1,,,,,,,,,0,,,49,85
76957,note_on,37,0,1,,,,,,,,,0,,,49,0
76957,note_on,37,0,0,,,,,,,,,0,,,65,0
76960,note_on,3,0,1,,,,,,,,,0,,,53,0
76960,note_on,3,0,0,,,,,,,,,0,,,58,85
76960,note_on,0,0,1,,,,,,,,,0,,,53,85
76960,note_on,0,0,0,,,,,,,,,0,,,61,85
76997,note_on,0,0,0,,,,,,,,,0,,,61,0
76997,note_on,37,0,0,,,,,,,,,0,,,58,0
77000,note_on,3,0,0,,,,,,,,,0,,,65,85
77000,note_on,40,0,1,,,,,,,,,0,,,49,85
77027,note_on,27,0,1,,,,,,,,,0,,,53,0
77037,note_on,10,0,1,,,,,,,,,0,,,49,0
77037,note_on,37,0,0,,,,,,,,,0,,,65,0
77040,note_on,0,0,1,,,,,,,,,0,,,52,101
77040,note_on,0,0,1,,,,,,,,,0,,,52,0
77040,note_on,3,0,1,,,,,,,,,0,,,52,86
77040,note_on,0,0,0,,,,,,,,,0,,,61,86
77040,note_on,3,0,0,,,,,,,,,0,,,58,86
77041,control_change,1,0,1,,,,,,,64,0,0,,,,
77042,control_change,1,0,1,,,,,,,64,127,0,,,,
77077,note_on,0,0,0,,,,,,,,,0,,,61,0
77077,note_on,37,0,0,,,,,,,,,0,,,58,0
77080,note_on,38,0,1,,,,,,,,,0,,,49,86
77080,note_on,3,0,0,,,,,,,,,0,,,65,86
77117,note_on,37,0,0,,,,,,,,,0,,,65,0
77117,note_on,37,0,1,,,,,,,,,0,,,49,0
77120,note_on,0,0,1,,,,,,,,,0,,,52,87
77120,note_on,3,0,0,,,,,,,,,0,,,58,87
77120,note_on,3,0,1,,,,,,,,,0,,,52,0
77120,note_on,0,0,0,,,,,,,,,0,,,61,87
77157,note_on,37,0,0,,,,,,,,,0,,,58,0
77157,note_on,0,0,0,,,,,,,,,0,,,61,0
77160,note_on,3,0,0,,,,,,,,,0,,,65,88
77160,note_on,40,0,1,,,,,,,,,0,,,49,88
77197,note_on,37,0,1,,,,,,,,,0,,,49,0
77197,note_on,37,0,0,,,,,,,,,0,,,65,0
77200,note_on,0,0,0,,,,,,,,,0,,,61,88
77200,note_on,0,0,1,,,,,,,,,0,,,52,88
77200,note_on,3,0,0,,,,,,,,,0,,,58,88
77200,note_on,3,0,1,,,,,,,,,0,,,52,0
77237,note_on,37,0,0,,,,,,,,,0,,,58,0
77237,note_on,0,0,0,,,,,,,,,0,,,61,0
77240,note_on,40,0,1,,,,,,,,,0,,,49,89
77240,note_on,3,0,0,,,,,,,,,0,,,65,89
77267,note_on,27,0,1,,,,,,,,,0,,,52,0
77277,note_on,37,0,0,,,,,,,,,0,,,65,0
77277,note_on,10,0,1,,,,,,,,,0,,,49,0
77280,note_on,0,0,1,,,,,,,,,0,,,53,104
77280,note_on,0,0,0,,,,,,,,,0,,,61,89
77280,note_on,3,0,0,,,,,,,,,0,,,58,89
77280,note_on,3,0,1,,,,,,,,,0,,,53,89
77280,note_on,0,0,1,,,,,,,,,0,,,53,0
77281,control_change,1,0,1,,,,,,,64,0,0,,,,
77282,control_change,1,0,1,,,,,,,64,127,0,,,,
77317,note_on,0,0,0,,,,,,,,,0,,,61,0
77317,note_on,37,0,0,,,,,,,,,0,,,58,0
77320,note_on,38,0,1,,,,,,,,,0,,,49,90
77320,note_on,3,0,0,,,,,,,,,0,,,65,90
77357,note_on,37,0,1,,,,,,,,,0,,,49,0
77357,note_on,37,0,0,,,,,,,,,0,,,65,0
77360,note_on,0,0,1,,,,,,,,,0,,,53,91
77360,note_on,3,0,1,,,,,,,,,0,,,53,0
77360,note_on,3,0,0,,,,,,,,,0,,,58,91
77360,note_on,0,0,0,,,,,,,,,0,,,61,91
77397,note_on,37,0,0,,,,,,,,,0,,,58,0
77397,note_on,0,0,0,,,,,,,,,0,,,61,0
77400,note_on,40,0,1,,,,,,,,,0,,,49,91
77400,note_on,3,0,0,,,,,,,,,0,,,65,91
77437,note_on,37,0,0,,,,,,,,,0,,,65,0
77437,note_on,37,0,1,,,,,,,,,0,,,49,0
77440,note_on,0,0,1,,,,,,,,,0,,,53,91
77440,note_on,3,0,1,,,,,,,,,0,,,53,0
77440,note_on,3,0,0,,,,,,,,,0,,,58,91
77440,note_on,0,0,0,,,,,,,,,0,,,61,91
77477,note_on,37,0,0,,,,,,,,,0,,,58,0
77477,note_on,0,0,0,,,,,,,,,0,,,61,0
77480,note_on,3,0,0,,,,,,,,,0,,,65,91
77480,note_on,40,0,1,,,,,,,,,0,,,49,91
77507,note_on,27,0,1,,,,,,,,,0,,,53,0
77517,note_on,37,0,0,,,,,,,,,0,,,65,0
77517,note_on,10,0,1,,,,,,,,,0,,,49,0
77520,note_on,0,0,0,,,,,,,,,0,,,61,127
77520,note_on,0,0,0,,,,,,,,,0,,,61,0
77520,note_on,3,0,0,,,,,,,,,0,,,61,92
77520,note_on,3,0,1,,,,,,,,,0,,,53,92
77521,control_change,1,0,1,,,,,,,64,0,0,,,,
77522,control_change,1,0,1,,,,,,,64,127,0,,,,
77557,note_on,35,0,1,,,,,,,,,0,,,53,0
77560,note_on,40,0,0,,,,,,,,,0,,,65,93
77560,note_on,3,0,1,,,,,,,,,0,,,49,93
77597,note_on,37,0,0,,,,,,,,,0,,,65,0
77597,note_on,37,0,1,,,,,,,,,0,,,49,0
77600,note_on,0,0,0,,,,,,,,,0,,,61,93
77600,note_on,3,0,0,,,,,,,,,0,,,61,0
77600,note_on,3,0,1,,,,,,,,,0,,,53,93
77637,note_on,37,0,1,,,,,,,,,0,,,53,0
77640,note_on,3,0,1,,,,,,,,,0,,,49,94
77640,note_on,40,0,0,,,,,,,,,0,,,65,94
77677,note_on,37,0,1,,,,,,,,,0,,,49,0
77677,note_on,37,0,0,,,,,,,,,0,,,65,0
77680,note_on,3,0,1,,,,,,,,,0,,,53,94
77680,note_on,0,0,0,,,,,,,,,0,,,61,94
77680,note_on,3,0,0,,,,,,,,,0,,,61,0
77717,note_on,37,0,1,,,,,,,,,0,,,53,0
77720,note_on,40,0,0,,,,,,,,,0,,,65,95
77720,note_on,3,0,1,,,,,,,,,0,,,49,95
77757,note_on,37,0,0,,,,,,,,,0,,,65,0
77757,note_on,37,0,1,,,,,,,,,0,,,49,0
77759,note_on,2,0,0,,,,,,,,,0,,,61,0
77760,note_on,3,0,1,,,,,,,,,0,,,46,112
77760,note_on,0,0,1,,,,,,,,,0,,,58,112
77761,control_change,1,0,1,,,,,,,64,0,0,,,,
77762,control_change,1,0,1,,,,,,,64,127,0,,,,
77798,note_on,0,0,1,,,,,,,,,0,,,58,0
77798,note_on,36,0,1,,,,,,,,,0,,,46,0
78000,note_on,202,0,1,,,,,,,,,0,,,37,112
78000,note_on,0,0,1,,,,,,,,,0,,,49,112
78001,control_change,1,0,1,,,,,,,64,0,0,,,,
78002,control_change,1,0,1,,,,,,,64,127,0,,,,
78056,note_on,54,0,1,,,,,,,,,0,,,37,0
78056,note_on,0,0,1,,,,,,,,,0,,,49,0
78060,note_on,4,0,1,,,,,,,,,0,,,73,112
78060,note_on,0,0,1,,,,,,,,,0,,,85,112
78116,note_on,56,0,1,,,,,,,,,0,,,73,0
78116,note_on,0,0,1,,,,,,,,,0,,,85,0
78120,note_on,4,0,1,,,,,,,,,0,,,61,112
78176,note_on,56,0,1,,,,,,,,,0,,,61,0
78180,note_on,4,0,1,,,,,,,,,0,,,61,112
78236,note_on,56,0,1,,,,,,,,,0,,,61,0
78240,note_on,0,0,1,,,,,,,,,0,,,48,112
78240,note_on,4,0,1,,,,,,,,,0,,,36,112
78296,note_on,0,0,1,,,,,,,,,0,,,48,0
78296,note_on,56,0,1,,,,,,,,,0,,,36,0
78300,note_on,4,0,1,,,,,,,,,0,,,72,112
78300,note_on,0,0,1,,,,,,,,,0,,,84,112
78300,set_tempo,541,1,0,,,,,,1000000,,,,,,,
78356,note_on,56,0,1,,,,,,,,,0,,,72,0
78356,note_on,0,0,1,,,,,,,,,0,,,84,0
78360,note_on,4,0,1,,,,,,,,,0,,,60,112
78416,note_on,56,0,1,,,,,,,,,0,,,60,0
78420,note_on,4,0,1,,,,,,,,,0,,,60,112
78476,note_on,56,0,1,,,,,,,,,0,,,60,0
78480,note_on,4,0,1,,,,,,,,,0,,,34,112
78480,note_on,0,0,1,,,,,,,,,0,,,46,112
78536,note_on,56,0,1,,,,,,,,,0,,,34,0
78536,note_on,0,0,1,,,,,,,,,0,,,46,0
78540,note_on,4,0,1,,,,,,,,,0,,,70,112
78540,note_on,0,0,1,,,,,,,,,0,,,82,112
78596,note_on,56,0,1,,,,,,,,,0,,,70,0
78596,note_on,0,0,1,,,,,,,,,0,,,82,0
78600,note_on,4,0,1,,,,,,,,,0,,,58,112
78656,note_on,56,0,1,,,,,,,,,0,,,58,0
78660,note_on,4,0,1,,,,,,,,,0,,,58,112
78716,note_on,56,0,1,,,,,,,,,0,,,58,0
78720,note_on,4,0,1,,,,,,,,,0,,,33,112
78720,note_on,0,0,1,,,,,,,,,0,,,45,112
78776,note_on,56,0,1,,,,,,,,,0,,,33,0
78776,note_on,0,0,1,,,,,,,,,0,,,45,0
78780,note_on,0,0,1,,,,,,,,,0,,,81,112
78780,note_on,4,0,1,,,,,,,,,0,,,69,112
78836,note_on,0,0,1,,,,,,,,,0,,,81,0
78836,note_on,56,0,1,,,,,,,,,0,,,69,0
78840,note_on,4,0,1,,,,,,,,,0,,,57,112
78896,note_on,56,0,1,,,,,,,,,0,,,57,0
78900,note_on,4,0,1,,,,,,,,,0,,,57,112
78956,note_on,56,0,1,,,,,,,,,0,,,57,0
78960,note_on,4,0,1,,,,,,,,,0,,,34,112
78960,note_on,0,0,1,,,,,,,,,0,,,46,112
79016,note_on,0,0,1,,,,,,,,,0,,,46,0
79016,note_on,56,0,1,,,,,,,,,0,,,34,0
79020,note_on,4,0,1,,,,,,,,,0,,,70,112
79020,note_on,0,0,1,,,,,,,,,0,,,82,112
79076,note_on,0,0,1,,,,,,,,,0,,,82,0
79076,note_on,56,0,1,,,,,,,,,0,,,70,0
79080,note_on,4,0,1,,,,,,,,,0,,,58,112
79136,note_on,56,0,1,,,,,,,,,0,,,58,0
79140,note_on,4,0,1,,,,,,,,,0,,,58,112
79196,note_on,56,0,1,,,,,,,,,0,,,58,0
79200,note_on,4,0,1,,,,,,,,,0,,,39,112
79200,note_on,0,0,1,,,,,,,,,0,,,51,112
79201,control_change,1,0,1,,,,,,,64,0,0,,,,
79202,control_change,1,0,1,,,,,,,64,127,0,,,,
79256,note_on,54,0,1,,,,,,,,,0,,,39,0
79256,note_on,0,0,1,,,,,,,,,0,,,51,0
79260,note_on,0,0,1,,,,,,,,,0,,,87,112
79260,set_tempo,960,1,0,,,,,,1499999,,,,,,,
79260,note_on,4,0,1,,,,,,,,,0,,,75,112
79316,note_on,56,0,1,,,,,,,,,0,,,75,0
79316,note_on,0,0,1,,,,,,,,,0,,,87,0
79440,note_on,0,0,0,,,,,,,,,0,,,59,127
79440,set_tempo,180,1,0,,,,,,1200000,,,,,,,
79440,note_on,0,0,0,,,,,,,,,0,,,63,96
79440,note_on,0,0,0,,,,,,,,,0,,,71,127
79440,note_on,124,0,1,,,,,,,,,0,,,54,96
79476,note_on,36,0,1,,,,,,,,,0,,,54,0
79476,note_on,36,0,0,,,,,,,,,0,,,63,0
79479,note_on,3,0,0,,,,,,,,,0,,,66,96
79479,note_on,3,0,1,,,,,,,,,0,,,51,96
79515,note_on,36,0,1,,,,,,,,,0,,,51,0
79515,note_on,36,0,0,,,,,,,,,0,,,66,0
79519,note_on,4,0,1,,,,,,,,,0,,,54,96
79519,note_on,4,0,0,,,,,,,,,0,,,63,96
79555,note_on,36,0,1,,,,,,,,,0,,,54,0
79555,note_on,36,0,0,,,,,,,,,0,,,63,0
79559,note_on,4,0,0,,,,,,,,,0,,,66,96
79559,note_on,4,0,1,,,,,,,,,0,,,51,96
79595,note_on,36,0,1,,,,,,,,,0,,,51,0
79595,note_on,36,0,0,,,,,,,,,0,,,66,0
79599,note_on,4,0,0,,,,,,,,,0,,,63,96
79599,note_on,4,0,1,,,,,,,,,0,,,54,96
79635,note_on,36,0,1,,,,,,,,,0,,,54,0
79635,note_on,36,0,0,,,,,,,,,0,,,63,0
79639,note_on,4,0,1,,,,,,,,,0,,,51,96
79639,note_on,4,0,0,,,,,,,,,0,,,66,96
79675,note_on,36,0,0,,,,,,,,,0,,,66,0
79675,note_on,36,0,1,,,,,,,,,0,,,51,0
79679,note_on,4,0,0,,,,,,,,,0,,,59,0
79679,note_on,4,0,1,,,,,,,,,0,,,54,96
79679,note_on,0,0,0,,,,,,,,,0,,,63,96
79679,note_on,0,0,0,,,,,,,,,0,,,71,0
79680,note_on,1,0,0,,,,,,,,,0,,,58,127
79680,note_on,0,0,0,,,,,,,,,0,,,70,127
79715,note_on,35,0,0,,,,,,,,,0,,,63,0
79715,note_on,36,0,1,,,,,,,,,0,,,54,0
79718,note_on,3,0,0,,,,,,,,,0,,,66,96
79718,note_on,3,0,1,,,,,,,,,0,,,51,96
79754,note_on,36,0,0,,,,,,,,,0,,,66,0
79754,note_on,36,0,1,,,,,,,,,0,,,51,0
79758,note_on,4,0,0,,,,,,,,,0,,,63,96
79758,note_on,4,0,1,,,,,,,,,0,,,54,96
79794,note_on,36,0,0,,,,,,,,,0,,,63,0
79794,note_on,36,0,1,,,,,,,,,0,,,54,0
79798,note_on,4,0,1,,,,,,,,,0,,,51,96
79798,note_on,4,0,0,,,,,,,,,0,,,66,96
79834,note_on,36,0,0,,,,,,,,,0,,,66,0
79834,note_on,36,0,1,,,,,,,,,0,,,51,0
79838,note_on,4,0,1,,,,,,,,,0,,,54,96
79838,note_on,4,0,0,,,,,,,,,0,,,63,96
79874,note_on,36,0,1,,,,,,,,,0,,,54,0
79874,note_on,36,0,0,,,,,,,,,0,,,63,0
79878,note_on,4,0,1,,,,,,,,,0,,,51,96
79878,note_on,4,0,0,,,,,,,,,0,,,66,96
79914,note_on,36,0,0,,,,,,,,,0,,,66,0
79914,note_on,36,0,1,,,,,,,,,0,,,51,0
79918,note_on,4,0,0,,,,,,,,,0,,,63,96
79918,note_on,4,0,1,,,,,,,,,0,,,54,96
79919,note_on,1,0,0,,,,,,,,,0,,,58,0
79919,note_on,0,0,0,,,,,,,,,0,,,70,0
79920,note_on,1,0,0,,,,,,,,,0,,,57,127
79920,note_on,0,0,0,,,,,,,,,0,,,69,127
79954,note_on,34,0,0,,,,,,,,,0,,,63,0
79954,note_on,36,0,1,,,,,,,,,0,,,54,0
79957,note_on,3,0,0,,,,,,,,,0,,,66,96
79957,note_on,3,0,1,,,,,,,,,0,,,51,96
79993,note_on,36,0,0,,,,,,,,,0,,,66,0
79993,note_on,36,0,1,,,,,,,,,0,,,51,0
79997,note_on,4,0,0,,,,,,,,,0,,,63,96
79997,note_on,4,0,1,,,,,,,,,0,,,54,96
80033,note_on,36,0,0,,,,,,,,,0,,,63,0
80033,note_on,36,0,1,,,,,,,,,0,,,54,0
80037,note_on,4,0,1,,,,,,,,,0,,,51,96
80037,note_on,4,0,0,,,,,,,,,0,,,66,96
80073,note_on,36,0,1,,,,,,,,,0,,,51,0
80073,note_on,36,0,0,,,,,,,,,0,,,66,0
80077,note_on,4,0,1,,,,,,,,,0,,,54,96
80077,note_on,4,0,0,,,,,,,,,0,,,63,96
80113,note_on,36,0,1,,,,,,,,,0,,,54,0
80113,note_on,36,0,0,,,,,,,,,0,,,63,0
80117,note_on,4,0,0,,,,,,,,,0,,,66,96
80117,note_on,4,0,1,,,,,,,,,0,,,51,96
80153,note_on,36,0,1,,,,,,,,,0,,,51,0
80153,note_on,36,0,0,,,,,,,,,0,,,66,0
80157,note_on,4,0,0,,,,,,,,,0,,,63,96
80157,note_on,4,0,1,,,,,,,,,0,,,54,96
80159,note_on,2,0,0,,,,,,,,,0,,,57,0
80159,note_on,0,0,0,,,,,,,,,0,,,69,0
80160,note_on,1,0,0,,,,,,,,,0,,,58,127
80160,note_on,0,0,0,,,,,,,,,0,,,70,127
80193,note_on,33,0,0,,,,,,,,,0,,,63,0
80193,note_on,36,0,1,,,,,,,,,0,,,54,0
80196,note_on,3,0,0,,,,,,,,,0,,,66,96
80196,note_on,3,0,1,,,,,,,,,0,,,51,96
80232,note_on,36,0,1,,,,,,,,,0,,,51,0
80232,note_on,36,0,0,,,,,,,,,0,,,66,0
80236,note_on,4,0,0,,,,,,,,,0,,,63,96
80236,note_on,4,0,1,,,,,,,,,0,,,54,96
80272,note_on,36,0,1,,,,,,,,,0,,,54,0
80272,note_on,36,0,0,,,,,,,,,0,,,63,0
80276,note_on,4,0,1,,,,,,,,,0,,,51,96
80276,note_on,4,0,0,,,,,,,,,0,,,66,96
80312,note_on,36,0,0,,,,,,,,,0,,,66,0
80312,note_on,36,0,1,,,,,,,,,0,,,51,0
80316,note_on,4,0,0,,,,,,,,,0,,,63,96
80316,note_on,4,0,1,,,,,,,,,0,,,54,96
80352,note_on,36,0,0,,,,,,,,,0,,,63,0
80352,note_on,36,0,1,,,,,,,,,0,,,54,0
80356,note_on,4,0,0,,,,,,,,,0,,,66,96
80356,note_on,4,0,1,,,,,,,,,0,,,51,96
80392,note_on,36,0,1,,,,,,,,,0,,,51,0
80392,note_on,36,0,0,,,,,,,,,0,,,66,0
80399,note_on,0,0,0,,,,,,,,,0,,,70,0
80399,note_on,7,0,0,,,,,,,,,0,,,58,0
80400,note_on,0,0,0,,,,,,,,,0,,,63,96
80400,note_on,0,0,1,,,,,,,,,0,,,54,0
80400,note_on,0,0,1,,,,,,,,,0,,,54,127
80400,note_on,1,0,0,,,,,,,,,0,,,58,96
80400,note_on,8,0,1,,,,,,,,,0,,,54,96
80437,note_on,0,0,0,,,,,,,,,0,,,63,0
80437,note_on,37,0,0,,,,,,,,,0,,,58,0
80440,note_on,3,0,0,,,,,,,,,0,,,66,96
80440,note_on,40,0,1,,,,,,,,,0,,,51,96
80477,note_on,37,0,1,,,,,,,,,0,,,51,0
80477,note_on,37,0,0,,,,,,,,,0,,,66,0
80480,note_on,0,0,1,,,,,,,,,0,,,54,96
80480,note_on,3,0,1,,,,,,,,,0,,,54,0
80480,note_on,3,0,0,,,,,,,,,0,,,63,96
80517,note_on,37,0,0,,,,,,,,,0,,,63,0
80520,note_on,3,0,0,,,,,,,,,0,,,66,96
80520,note_on,40,0,1,,,,,,,,,0,,,51,96
80557,note_on,37,0,1,,,,,,,,,0,,,51,0
80557,note_on,37,0,0,,,,,,,,,0,,,66,0
80560,note_on,0,0,1,,,,,,,,,0,,,54,96
80560,note_on,3,0,1,,,,,,,,,0,,,54,0
80560,note_on,3,0,0,,,,,,,,,0,,,63,96
80597,note_on,37,0,0,,,,,,,,,0,,,63,0
80600,note_on,40,0,1,,,,,,,,,0,,,51,96
80600,note_on,3,0,0,,,,,,,,,0,,,66,96
80637,note_on,37,0,0,,,,,,,,,0,,,66,0
80637,note_on,37,0,1,,,,,,,,,0,,,51,0
80639,note_on,2,0,1,,,,,,,,,0,,,54,0
80640,note_on,1,0,1,,,,,,,,,0,,,63,112
80718,note_on,78,0,1,,,,,,,,,0,,,63,0
80880,note_on,0,0,1,,,,,,,,,0,,,54,112
80880,note_on,162,0,1,,,,,,,,,0,,,42,112
80881,control_change,1,0,1,,,,,,,64,0,0,,,,
80882,control_change,1,0,1,,,,,,,64,127,0,,,,
80936,note_on,0,0,1,,,,,,,,,0,,,54,0
80936,note_on,54,0,1,,,,,,,,,0,,,42,0
80940,note_on,4,0,1,,,,,,,,,0,,,78,112
80940,note_on,0,0,1,,,,,,,,,0,,,90,112
80996,note_on,0,0,1,,,,,,,,,0,,,90,0
80996,note_on,56,0,1,,,,,,,,,0,,,78,0
81000,note_on,4,0,1,,,,,,,,,0,,,66,112
81056,note_on,56,0,1,,,,,,,,,0,,,66,0
81060,note_on,4,0,1,,,,,,,,,0,,,66,112
81116,note_on,56,0,1,,,,,,,,,0,,,66,0
81120,note_on,0,0,1,,,,,,,,,0,,,53,112
81120,note_on,4,0,1,,,,,,,,,0,,,41,112
81121,control_change,1,0,1,,,,,,,64,0,0,,,,
81122,control_change,1,0,1,,,,,,,64,127,0,,,,
81176,note_on,0,0,1,,,,,,,,,0,,,53,0
81176,note_on,54,0,1,,,,,,,,,0,,,41,0
81180,note_on,0,0,1,,,,,,,,,0,,,89,112
81180,note_on,4,0,1,,,,,,,,,0,,,77,112
81180,set_tempo,543,1,0,,,,,,1000000,,,,,,,
81236,note_on,0,0,1,,,,,,,,,0,,,89,0
81236,note_on,56,0,1,,,,,,,,,0,,,77,0
81240,note_on,4,0,1,,,,,,,,,0,,,65,112
81296,note_on,56,0,1,,,,,,,,,0,,,65,0
81300,note_on,4,0,1,,,,,,,,,0,,,65,112
81356,note_on,56,0,1,,,,,,,,,0,,,65,0
81360,note_on,0,0,1,,,,,,,,,0,,,51,112
81360,note_on,4,0,1,,,,,,,,,0,,,39,112
81361,control_change,1,0,1,,,,,,,64,0,0,,,,
81362,control_change,1,0,1,,,,,,,64,127,0,,,,
81416,note_on,54,0,1,,,,,,,,,0,,,39,0
81416,note_on,0,0,1,,,,,,,,,0,,,51,0
81420,note_on,0,0,1,,,,,,,,,0,,,87,112
81420,note_on,4,0,1,,,,,,,,,0,,,75,112
81476,note_on,0,0,1,,,,,,,,,0,,,87,0
81476,note_on,56,0,1,,,,,,,,,0,,,75,0
81480,note_on,4,0,1,,,,,,,,,0,,,63,112
81536,note_on,56,0,1,,,,,,,,,0,,,63,0
81540,note_on,4,0,1,,,,,,,,,0,,,63,112
81596,note_on,56,0,1,,,,,,,,,0,,,63,0
81600,note_on,0,0,1,,,,,,,,,0,,,49,112
81600,note_on,4,0,1,,,,,,,,,0,,,37,112
81601,control_change,1,0,1,,,,,,,64,0,0,,,,
81602,control_change,1,0,1,,,,,,,64,127,0,,,,
81656,note_on,54,0,1,,,,,,,,,0,,,37,0
81656,note_on,0,0,1,,,,,,,,,0,,,49,0
81660,note_on,4,0,1,,,,,,,,,0,,,73,112
81660,note_on,0,0,1,,,,,,,,,0,,,85,112
81716,note_on,56,0,1,,,,,,,,,0,,,73,0
81716,note_on,0,0,1,,,,,,,,,0,,,85,0
81720,note_on,4,0,1,,,,,,,,,0,,,61,112
81776,note_on,56,0,1,,,,,,,,,0,,,61,0
81780,note_on,4,0,1,,,,,,,,,0,,,61,112
81836,note_on,56,0,1,,,,,,,,,0,,,61,0
81840,note_on,4,0,1,,,,,,,,,0,,,36,112
81840,note_on,0,0,1,,,,,,,,,0,,,48,112
81841,control_change,1,0,1,,,,,,,64,0,0,,,,
81842,control_change,1,0,1,,,,,,,64,127,0,,,,
81896,note_on,54,0,1,,,,,,,,,0,,,36,0
81896,note_on,0,0,1,,,,,,,,,0,,,48,0
81900,note_on,4,0,1,,,,,,,,,0,,,72,112
81900,note_on,0,0,1,,,,,,,,,0,,,84,112
81956,note_on,56,0,1,,,,,,,,,0,,,72,0
81956,note_on,0,0,1,,,,,,,,,0,,,84,0
81960,note_on,4,0,1,,,,,,,,,0,,,60,112
82016,note_on,56,0,1,,,,,,,,,0,,,60,0
82020,note_on,4,0,1,,,,,,,,,0,,,60,112
82076,note_on,56,0,1,,,,,,,,,0,,,60,0
82080,note_on,4,0,1,,,,,,,,,0,,,34,112
82080,note_on,0,0,1,,,,,,,,,0,,,46,112
82081,control_change,1,0,1,,,,,,,64,0,0,,,,
82082,control_change,1,0,1,,,,,,,64,127,0,,,,
82136,note_on,0,0,1,,,,,,,,,0,,,46,0
82136,note_on,54,0,1,,,,,,,,,0,,,34,0
82140,note_on,4,0,1,,,,,,,,,0,,,70,112
82140,set_tempo,960,1,0,,,,,,1499999,,,,,,,
82140,note_on,0,0,1,,,,,,,,,0,,,82,112
82196,note_on,0,0,1,,,,,,,,,0,,,82,0
82196,note_on,56,0,1,,,,,,,,,0,,,70,0
82320,note_on,124,0,1,,,,,,,,,0,,,54,96
82320,note_on,0,0,1,,,,,,,,,0,,,54,127
82320,note_on,0,0,0,,,,,,,,,0,,,61,96
82320,note_on,0,0,0,,,,,,,,,0,,,58,96
82320,note_on,0,0,1,,,,,,,,,0,,,54,0
82320,set_tempo,180,1,0,,,,,,1200000,,,,,,,
82321,control_change,1,0,1,,,,,,,64,0,0,,,,
82322,control_change,1,0,1,,,,,,,64,127,0,,,,
82357,note_on,37,0,0,,,,,,,,,0,,,58,0
82357,note_on,0,0,0,,,,,,,,,0,,,61,0
82360,note_on,38,0,1,,,,,,,,,0,,,49,96
82360,note_on,3,0,0,,,,,,,,,0,,,66,96
82397,note_on,37,0,0,,,,,,,,,0,,,66,0
82397,note_on,37,0,1,,,,,,,,,0,,,49,0
82400,note_on,3,0,0,,,,,,,,,0,,,58,96
82400,note_on,0,0,0,,,,,,,,,0,,,61,96
82400,note_on,0,0,1,,,,,,,,,0,,,54,96
82400,note_on,3,0,1,,,,,,,,,0,,,54,0
82437,note_on,0,0,0,,,,,,,,,0,,,61,0
82437,note_on,37,0,0,,,,,,,,,0,,,58,0
82440,note_on,3,0,0,,,,,,,,,0,,,66,96
82440,note_on,40,0,1,,,,,,,,,0,,,49,96
82477,note_on,37,0,0,,,,,,,,,0,,,66,0
82477,note_on,37,0,1,,,,,,,,,0,,,49,0
82480,note_on,3,0,0,,,,,,,,,0,,,58,96
82480,note_on,0,0,0,,,,,,,,,0,,,61,96
82480,note_on,3,0,1,,,,,,,,,0,,,54,0
82480,note_on,0,0,1,,,,,,,,,0,,,54,96
82517,note_on,37,0,0,,,,,,,,,0,,,58,0
82517,note_on,0,0,0,,,,,,,,,0,,,61,0
82520,note_on,40,0,1,,,,,,,,,0,,,49,96
82520,note_on,3,0,0,,,,,,,,,0,,,66,96
82557,note_on,37,0,1,,,,,,,,,0,,,49,0
82557,note_on,37,0,0,,,,,,,,,0,,,66,0
82559,note_on,2,0,1,,,,,,,,,0,,,54,0
82560,note_on,0,0,1,,,,,,,,,0,,,53,0
82560,note_on,1,0,1,,,,,,,,,0,,,53,96
82560,note_on,0,0,1,,,,,,,,,0,,,53,127
82560,note_on,3,0,0,,,,,,,,,0,,,58,96
82560,note_on,0,0,0,,,,,,,,,0,,,61,96
82561,control_change,1,0,1,,,,,,,64,0,0,,,,
82562,control_change,1,0,1,,,,,,,64,127,0,,,,
82597,note_on,0,0,0,,,,,,,,,0,,,61,0
82597,note_on,37,0,0,,,,,,,,,0,,,58,0
82600,note_on,3,0,0,,,,,,,,,0,,,65,96
82600,note_on,38,0,1,,,,,,,,,0,,,49,96
82637,note_on,37,0,1,,,,,,,,,0,,,49,0
82637,note_on,37,0,0,,,,,,,,,0,,,65,0
82640,note_on,0,0,0,,,,,,,,,0,,,61,96
82640,note_on,3,0,0,,,,,,,,,0,,,58,96
82640,note_on,0,0,1,,,,,,,,,0,,,53,96
82640,note_on,3,0,1,,,,,,,,,0,,,53,0
82677,note_on,37,0,0,,,,,,,,,0,,,58,0
82677,note_on,0,0,0,,,,,,,,,0,,,61,0
82680,note_on,3,0,0,,,,,,,,,0,,,65,96
82680,note_on,40,0,1,,,,,,,,,0,,,49,96
82717,note_on,37,0,0,,,,,,,,,0,,,65,0
82717,note_on,37,0,1,,,,,,,,,0,,,49,0
82720,note_on,3,0,0,,,,,,,,,0,,,58,96
82720,note_on,0,0,1,,,,,,,,,0,,,53,96
82720,note_on,0,0,0,,,,,,,,,0,,,61,96
82720,note_on,3,0,1,,,,,,,,,0,,,53,0
82757,note_on,0,0,0,,,,,,,,,0,,,61,0
82757,note_on,37,0,0,,,,,,,,,0,,,58,0
82760,note_on,40,0,1,,,,,,,,,0,,,49,96
82760,note_on,3,0,0,,,,,,,,,0,,,65,96
82797,note_on,37,0,0,,,,,,,,,0,,,65,0
82797,note_on,37,0,1,,,,,,,,,0,,,49,0
82799,note_on,2,0,1,,,,,,,,,0,,,53,0
82800,note_on,0,0,1,,,,,,,,,0,,,52,0
82800,note_on,0,0,0,,,,,,,,,0,,,61,96
82800,note_on,3,0,0,,,,,,,,,0,,,58,96
82800,note_on,1,0,1,,,,,,,,,0,,,52,96
82800,note_on,0,0,1,,,,,,,,,0,,,52,127
82801,control_change,1,0,1,,,,,,,64,0,0,,,,
82802,control_change,1,0,1,,,,,,,64,127,0,,,,
82837,note_on,37,0,0,,,,,,,,,0,,,58,0
82837,note_on,0,0,0,,,,,,,,,0,,,61,0
82840,note_on,3,0,0,,,,,,,,,0,,,64,96
82840,note_on,38,0,1,,,,,,,,,0,,,49,96
82877,note_on,37,0,1,,,,,,,,,0,,,49,0
82877,note_on,37,0,0,,,,,,,,,0,,,64,0
82880,note_on,0,0,1,,,,,,,,,0,,,52,96
82880,note_on,3,0,1,,,,,,,,,0,,,52,0
82880,note_on,3,0,0,,,,,,,,,0,,,58,96
82880,note_on,0,0,0,,,,,,,,,0,,,61,96
82917,note_on,37,0,0,,,,,,,,,0,,,58,0
82917,note_on,0,0,0,,,,,,,,,0,,,61,0
82920,note_on,40,0,1,,,,,,,,,0,,,49,96
82920,note_on,3,0,0,,,,,,,,,0,,,64,96
82957,note_on,37,0,0,,,,,,,,,0,,,64,0
82957,note_on,37,0,1,,,,,,,,,0,,,49,0
82960,note_on,3,0,1,,,,,,,,,0,,,52,0
82960,note_on,3,0,0,,,,,,,,,0,,,58,96
82960,note_on,0,0,1,,,,,,,,,0,,,52,96
82960,note_on,0,0,0,,,,,,,,,0,,,61,96
82997,note_on,37,0,0,,,,,,,,,0,,,58,0
82997,note_on,0,0,0,,,,,,,,,0,,,61,0
83000,note_on,3,0,0,,,,,,,,,0,,,64,96
83000,note_on,40,0,1,,,,,,,,,0,,,49,96
83037,note_on,37,0,1,,,,,,,,,0,,,49,0
83037,note_on,37,0,0,,,,,,,,,0,,,64,0
83039,note_on,2,0,1,,,,,,,,,0,,,52,0
83040,note_on,0,0,1,,,,,,,,,0,,,53,127
83040,note_on,0,0,1,,,,,,,,,0,,,53,0
83040,note_on,1,0,1,,,,,,,,,0,,,53,96
83040,note_on,3,0,0,,,,,,,,,0,,,58,96
83040,note_on,0,0,0,,,,,,,,,0,,,61,96
83041,control_change,1,0,1,,,,,,,64,0,0,,,,
83042,control_change,1,0,1,,,,,,,64,127,0,,,,
83077,note_on,37,0,0,,,,,,,,,0,,,58,0
83077,note_on,0,0,0,,,,,,,,,0,,,61,0
83080,note_on,38,0,1,,,,,,,,,0,,,49,96
83080,note_on,3,0,0,,,,,,,,,0,,,65,96
83117,note_on,37,0,1,,,,,,,,,0,,,49,0
83117,note_on,37,0,0,,,,,,,,,0,,,65,0
83120,note_on,3,0,1,,,,,,,,,0,,,53,0
83120,note_on,0,0,0,,,,,,,,,0,,,61,96
83120,note_on,0,0,1,,,,,,,,,0,,,53,96
83120,note_on,3,0,0,,,,,,,,,0,,,58,96
83157,note_on,37,0,0,,,,,,,,,0,,,58,0
83157,note_on,0,0,0,,,,,,,,,0,,,61,0
83160,note_on,3,0,0,,,,,,,,,0,,,65,96
83160,note_on,40,0,1,,,,,,,,,0,,,49,96
83197,note_on,37,0,0,,,,,,,,,0,,,65,0
83197,note_on,37,0,1,,,,,,,,,0,,,49,0
83200,note_on,0,0,0,,,,,,,,,0,,,61,96
83200,note_on,0,0,1,,,,,,,,,0,,,53,96
83200,note_on,3,0,0,,,,,,,,,0,,,58,96
83200,note_on,3,0,1,,,,,,,,,0,,,53,0
83237,note_on,0,0,0,,,,,,,,,0,,,61,0
83237,note_on,37,0,0,,,,,,,,,0,,,58,0
83240,note_on,3,0,0,,,,,,,,,0,,,65,96
83240,note_on,40,0,1,,,,,,,,,0,,,49,96
83277,note_on,37,0,1,,,,,,,,,0,,,49,0
83277,note_on,37,0,0,,,,,,,,,0,,,65,0
83279,note_on,2,0,1,,,,,,,,,0,,,53,0
83280,note_on,1,0,1,,,,,,,,,0,,,34,96
83280,note_on,0,0,1,,,,,,,,,0,,,46,96
83281,control_change,1,0,1,,,,,,,64,0,0,,,,
83282,control_change,1,0,1,,,,,,,64,127,0,,,,
83336,note_on,54,0,1,,,,,,,,,0,,,34,0
83336,note_on,0,0,1,,,,,,,,,0,,,46,0
83340,note_on,0,0,1,,,,,,,,,0,,,82,96
83340,note_on,0,0,0,,,,,,,,,0,,,82,0
83340,note_on,0,0,0,,,,,,,,,0,,,82,112
83340,set_tempo,63,1,0,,,,,,1499999,,,,,,,
83340,note_on,4,0,1,,,,,,,,,0,,,70,96
83396,note_on,56,0,1,,,,,,,,,0,,,70,0
83400,note_on,0,0,1,,,,,,,,,0,,,61,96
83400,note_on,4,0,1,,,,,,,,,0,,,53,96
83453,note_on,53,0,1,,,,,,,,,0,,,82,0
83456,note_on,3,0,1,,,,,,,,,0,,,53,0
83456,note_on,0,0,1,,,,,,,,,0,,,61,0
83460,note_on,0,0,1,,,,,,,,,0,,,65,96
83460,note_on,4,0,1,,,,,,,,,0,,,61,96
83516,note_on,56,0,1,,,,,,,,,0,,,61,0
83516,note_on,0,0,1,,,,,,,,,0,,,65,0
83520,note_on,0,0,1,,,,,,,,,0,,,48,96
83520,note_on,4,0,1,,,,,,,,,0,,,36,96
83521,control_change,1,0,1,,,,,,,64,0,0,,,,
83522,control_change,1,0,1,,,,,,,64,127,0,,,,
83576,note_on,0,0,1,,,,,,,,,0,,,48,0
83576,note_on,54,0,1,,,,,,,,,0,,,36,0
83580,set_tempo,240,1,0,,,,,,1200000,,,,,,,
83580,note_on,0,0,0,,,,,,,,,0,,,82,0
83580,note_on,0,0,0,,,,,,,,,0,,,82,112
83580,note_on,0,0,1,,,,,,,,,0,,,82,96
83580,note_on,4,0,1,,,,,,,,,0,,,70,96
83636,note_on,56,0,1,,,,,,,,,0,,,70,0
83640,note_on,4,0,1,,,,,,,,,0,,,54,96
83640,note_on,0,0,1,,,,,,,,,0,,,63,96
83693,note_on,53,0,1,,,,,,,,,0,,,82,0
83696,note_on,3,0,1,,,,,,,,,0,,,54,0
83696,note_on,0,0,1,,,,,,,,,0,,,63,0
83700,note_on,4,0,1,,,,,,,,,0,,,63,96
83700,note_on,0,0,1,,,,,,,,,0,,,66,96
83756,note_on,56,0,1,,,,,,,,,0,,,63,0
83756,note_on,0,0,1,,,,,,,,,0,,,66,0
83760,note_on,4,0,1,,,,,,,,,0,,,39,96
83760,note_on,0,0,1,,,,,,,,,0,,,51,96
83761,control_change,1,0,1,,,,,,,64,0,0,,,,
83762,control_change,1,0,1,,,,,,,64,127,0,,,,
83816,note_on,0,0,1,,,,,,,,,0,,,51,0
83816,note_on,54,0,1,,,,,,,,,0,,,39,0
83820,note_on,4,0,1,,,,,,,,,0,,,67,96
83820,note_on,0,0,1,,,,,,,,,0,,,79,96
83820,note_on,0,0,0,,,,,,,,,0,,,79,112
83820,note_on,0,0,0,,,,,,,,,0,,,79,0
83820,set_tempo,240,1,0,,,,,,1000000,,,,,,,
83876,note_on,56,0,1,,,,,,,,,0,,,67,0
83880,note_on,4,0,1,,,,,,,,,0,,,54,96
83880,note_on,0,0,1,,,,,,,,,0,,,63,96
83933,note_on,53,0,1,,,,,,,,,0,,,79,0
83936,note_on,0,0,1,,,,,,,,,0,,,63,0
83936,note_on,3,0,1,,,,,,,,,0,,,54,0
83940,note_on,4,0,1,,,,,,,,,0,,,63,96
83940,note_on,0,0,1,,,,,,,,,0,,,66,96
83996,note_on,0,0,1,,,,,,,,,0,,,66,0
83996,note_on,56,0,1,,,,,,,,,0,,,63,0
84000,note_on,4,0,1,,,,,,,,,0,,,44,96
84000,note_on,0,0,1,,,,,,,,,0,,,56,96
84001,control_change,1,0,1,,,,,,,64,0,0,,,,
84002,control_change,1,0,1,,,,,,,64,127,0,,,,
84056,note_on,0,0,1,,,,,,,,,0,,,56,0
84056,note_on,54,0,1,,,,,,,,,0,,,44,0
84060,note_on,0,0,0,,,,,,,,,0,,,80,0
84060,note_on,240,0,0,,,,,,,,,0,,,80,112
84060,note_on,0,0,1,,,,,,,,,0,,,80,96
84060,note_on,4,0,1,,,,,,,,,0,,,68,96
84116,note_on,56,0,1,,,,,,,,,0,,,68,0
84120,note_on,0,0,1,,,,,,,,,0,,,60,96
84120,note_on,4,0,1,,,,,,,,,0,,,54,96
84173,note_on,53,0,1,,,,,,,,,0,,,80,0
84176,note_on,3,0,1,,,,,,,,,0,,,54,0
84176,note_on,0,0,1,,,,,,,,,0,,,60,0
84180,note_on,0,0,1,,,,,,,,,0,,,66,96
84180,note_on,4,0,1,,,,,,,,,0,,,63,96
84236,note_on,0,0,1,,,,,,,,,0,,,66,0
84236,note_on,56,0,1,,,,,,,,,0,,,63,0
84240,note_on,0,0,1,,,,,,,,,0,,,48,96
84240,note_on,4,0,1,,,,,,,,,0,,,36,96
84241,control_change,1,0,1,,,,,,,64,0,0,,,,
84242,control_change,1,0,1,,,,,,,64,127,0,,,,
84296,note_on,0,0,1,,,,,,,,,0,,,48,0
84296,note_on,54,0,1,,,,,,,,,0,,,36,0
84300,note_on,0,0,0,,,,,,,,,0,,,81,0
84300,note_on,240,0,0,,,,,,,,,0,,,81,112
84300,note_on,4,0,1,,,,,,,,,0,,,69,96
84300,note_on,0,0,1,,,,,,,,,0,,,81,96
84356,note_on,56,0,1,,,,,,,,,0,,,69,0
84360,note_on,4,0,1,,,,,,,,,0,,,54,96
84360,note_on,0,0,1,,,,,,,,,0,,,63,96
84413,note_on,53,0,1,,,,,,,,,0,,,81,0
84416,note_on,3,0,1,,,,,,,,,0,,,54,0
84416,note_on,0,0,1,,,,,,,,,0,,,63,0
84420,note_on,4,0,1,,,,,,,,,0,,,63,96
84420,note_on,0,0,1,,,,,,,,,0,,,66,96
84476,note_on,0,0,1,,,,,,,,,0,,,66,0
84476,note_on,56,0,1,,,,,,,,,0,,,63,0
84480,note_on,0,0,1,,,,,,,,,0,,,51,96
84480,note_on,4,0,1,,,,,,,,,0,,,39,96
84481,control_change,1,0,1,,,,,,,64,0,0,,,,
84482,control_change,1,0,1,,,,,,,64,127,0,,,,
84536,note_on,54,0,1,,,,,,,,,0,,,39,0
84536,note_on,0,0,1,,,,,,,,,0,,,51,0
84540,note_on,4,0,1,,,,,,,,,0,,,67,96
84540,note_on,0,0,0,,,,,,,,,0,,,79,0
84540,note_on,240,0,0,,,,,,,,,0,,,79,112
84540,note_on,0,0,1,,,,,,,,,0,,,79,96
84596,note_on,56,0,1,,,,,,,,,0,,,67,0
84600,note_on,0,0,1,,,,,,,,,0,,,63,96
84600,note_on,4,0,1,,,,,,,,,0,,,54,96
84653,note_on,53,0,1,,,,,,,,,0,,,79,0
84656,note_on,3,0,1,,,,,,,,,0,,,54,0
84656,note_on,0,0,1,,,,,,,,,0,,,63,0
84660,note_on,4,0,1,,,,,,,,,0,,,63,96
84660,note_on,0,0,1,,,,,,,,,0,,,66,96
84716,note_on,0,0,1,,,,,,,,,0,,,66,0
84716,note_on,56,0,1,,,,,,,,,0,,,63,0
84720,note_on,4,0,1,,,,,,,,,0,,,44,96
84720,note_on,0,0,1,,,,,,,,,0,,,56,96
84721,control_change,1,0,1,,,,,,,64,0,0,,,,
84722,control_change,1,0,1,,,,,,,64,127,0,,,,
84776,note_on,54,0,1,,,,,,,,,0,,,44,0
84776,note_on,0,0,1,,,,,,,,,0,,,56,0
84780,note_on,4,0,1,,,,,,,,,0,,,68,96
84780,note_on,0,0,0,,,,,,,,,0,,,80,0
84780,note_on,0,0,0,,,,,,,,,0,,,80,112
84780,note_on,0,0,1,,,,,,,,,0,,,80,96
84780,set_tempo,240,1,0,,,,,,1200000,,,,,,,
84836,note_on,56,0,1,,,,,,,,,0,,,68,0
84840,note_on,4,0,1,,,,,,,,,0,,,54,96
84840,note_on,0,0,1,,,,,,,,,0,,,60,96
84893,note_on,53,0,1,,,,,,,,,0,,,80,0
84896,note_on,0,0,1,,,,,,,,,0,,,60,0
84896,note_on,3,0,1,,,,,,,,,0,,,54,0
84900,note_on,4,0,1,,,,,,,,,0,,,63,112
84900,note_on,0,0,1,,,,,,,,,0,,,66,112
84956,note_on,0,0,1,,,,,,,,,0,,,66,0
84956,note_on,56,0,1,,,,,,,,,0,,,63,0
84960,note_on,0,0,1,,,,,,,,,0,,,49,112
84960,note_on,4,0,1,,,,,,,,,0,,,37,112
84961,control_change,1,0,1,,,,,,,64,0,0,,,,
84962,control_change,1,0,1,,,,,,,64,127,0,,,,
85020,note_on,0,0,0,,,,,,,,,0,,,88,112
85020,note_on,240,0,0,,,,,,,,,0,,,76,112
85073,note_on,0,0,1,,,,,,,,,0,,,49,0
85073,note_on,111,0,1,,,,,,,,,0,,,37,0
85080,note_on,0,0,1,,,,,,,,,0,,,56,96
85080,note_on,7,0,1,,,,,,,,,0,,,52,96
85080,note_on,0,0,1,,,,,,,,,0,,,60,96
85133,note_on,113,0,0,,,,,,,,,0,,,76,0
85133,note_on,0,0,0,,,,,,,,,0,,,88,0
85136,note_on,56,0,1,,,,,,,,,0,,,52,0
85136,note_on,0,0,1,,,,,,,,,0,,,56,0
85136,note_on,0,0,1,,,,,,,,,0,,,60,0
85140,note_on,4,0,1,,,,,,,,,0,,,64,96
85140,note_on,0,0,1,,,,,,,,,0,,,68,96
85140,note_on,0,0,1,,,,,,,,,0,,,72,96
85196,note_on,0,0,1,,,,,,,,,0,,,68,0
85196,note_on,56,0,1,,,,,,,,,0,,,64,0
85196,note_on,0,0,1,,,,,,,,,0,,,72,0
85200,note_on,0,0,1,,,,,,,,,0,,,60,97
85200,note_on,4,0,1,,,,,,,,,0,,,52,97
85200,note_on,0,0,1,,,,,,,,,0,,,56,97
85256,note_on,56,0,1,,,,,,,,,0,,,52,0
85256,note_on,0,0,1,,,,,,,,,0,,,56,0
85256,note_on,0,0,1,,,,,,,,,0,,,60,0
85260,note_on,4,0,1,,,,,,,,,0,,,64,97
85260,note_on,0,0,1,,,,,,,,,0,,,72,97
85260,set_tempo,127,1,0,,,,,,1090909,,,,,,,
85260,note_on,0,0,1,,,,,,,,,0,,,68,97
85316,note_on,0,0,1,,,,,,,,,0,,,68,0
85316,note_on,56,0,1,,,,,,,,,0,,,64,0
85316,note_on,0,0,1,,,,,,,,,0,,,72,0
85320,note_on,0,0,1,,,,,,,,,0,,,56,97
85320,note_on,4,0,1,,,,,,,,,0,,,52,97
85320,note_on,0,0,1,,,,,,,,,0,,,60,97
85376,note_on,56,0,1,,,,,,,,,0,,,52,0
85376,note_on,0,0,1,,,,,,,,,0,,,60,0
85376,note_on,0,0,1,,,,,,,,,0,,,56,0
85380,note_on,0,0,1,,,,,,,,,0,,,72,97
85380,note_on,0,0,1,,,,,,,,,0,,,68,97
85380,note_on,4,0,1,,,,,,,,,0,,,64,97
85436,note_on,56,0,1,,,,,,,,,0,,,64,0
85436,note_on,0,0,1,,,,,,,,,0,,,68,0
85436,note_on,0,0,1,,,,,,,,,0,,,72,0
85440,note_on,0,0,1,,,,,,,,,0,,,56,98
85440,note_on,0,0,1,,,,,,,,,0,,,60,98
85440,note_on,4,0,1,,,,,,,,,0,,,52,98
85496,note_on,56,0,1,,,,,,,,,0,,,52,0
85496,note_on,0,0,1,,,,,,,,,0,,,60,0
85496,note_on,0,0,1,,,,,,,,,0,,,56,0
85500,note_on,0,0,1,,,,,,,,,0,,,68,98
85500,note_on,0,0,1,,,,,,,,,0,,,72,98
85500,note_on,4,0,1,,,,,,,,,0,,,64,98
85556,note_on,0,0,1,,,,,,,,,0,,,72,0
85556,note_on,56,0,1,,,,,,,,,0,,,64,0
85556,note_on,0,0,1,,,,,,,,,0,,,68,0
85560,note_on,0,0,1,,,,,,,,,0,,,60,99
85560,note_on,0,0,1,,,,,,,,,0,,,56,99
85560,note_on,4,0,1,,,,,,,,,0,,,52,99
85616,note_on,0,0,1,,,,,,,,,0,,,60,0
85616,note_on,0,0,1,,,,,,,,,0,,,56,0
85616,note_on,56,0,1,,,,,,,,,0,,,52,0
85620,note_on,0,0,1,,,,,,,,,0,,,68,100
85620,note_on,0,0,1,,,,,,,,,0,,,72,100
85620,note_on,4,0,1,,,,,,,,,0,,,64,100
85676,note_on,0,0,1,,,,,,,,,0,,,72,0
85676,note_on,56,0,1,,,,,,,,,0,,,64,0
85676,note_on,0,0,1,,,,,,,,,0,,,68,0
85680,note_on,0,0,1,,,,,,,,,0,,,49,117
85680,note_on,4,0,1,,,,,,,,,0,,,37,117
85681,control_change,1,0,1,,,,,,,64,0,0,,,,
85682,control_change,1,0,1,,,,,,,64,127,0,,,,
85740,note_on,0,0,0,,,,,,,,,0,,,77,117
85740,note_on,0,0,0,,,,,,,,,0,,,89,117
85740,set_tempo,480,1,0,,,,,,1000000,,,,,,,
85793,note_on,111,0,1,,,,,,,,,0,,,37,0
85793,note_on,0,0,1,,,,,,,,,0,,,49,0
85800,note_on,0,0,1,,,,,,,,,0,,,56,100
85800,note_on,7,0,1,,,,,,,,,0,,,53,100
85800,note_on,0,0,1,,,,,,,,,0,,,61,100
85853,note_on,0,0,0,,,,,,,,,0,,,89,0
85853,note_on,113,0,0,,,,,,,,,0,,,77,0
85856,note_on,0,0,1,,,,,,,,,0,,,61,0
85856,note_on,56,0,1,,,,,,,,,0,,,53,0
85856,note_on,0,0,1,,,,,,,,,0,,,56,0
85860,note_on,4,0,1,,,,,,,,,0,,,65,100
85860,note_on,0,0,1,,,,,,,,,0,,,68,100
85860,note_on,0,0,1,,,,,,,,,0,,,73,100
85916,note_on,0,0,1,,,,,,,,,0,,,73,0
85916,note_on,56,0,1,,,,,,,,,0,,,65,0
85916,note_on,0,0,1,,,,,,,,,0,,,68,0
85920,note_on,4,0,1,,,,,,,,,0,,,53,101
85920,note_on,0,0,1,,,,,,,,,0,,,56,101
85920,note_on,0,0,1,,,,,,,,,0,,,61,101
85976,note_on,0,0,1,,,,,,,,,0,,,56,0
85976,note_on,0,0,1,,,,,,,,,0,,,61,0
85976,note_on,56,0,1,,,,,,,,,0,,,53,0
85980,note_on,4,0,1,,,,,,,,,0,,,65,102
85980,note_on,0,0,1,,,,,,,,,0,,,68,102
85980,note_on,0,0,1,,,,,,,,,0,,,73,102
86036,note_on,0,0,1,,,,,,,,,0,,,68,0
86036,note_on,0,0,1,,,,,,,,,0,,,73,0
86036,note_on,56,0,1,,,,,,,,,0,,,65,0
86040,note_on,0,0,1,,,,,,,,,0,,,61,102
86040,note_on,0,0,1,,,,,,,,,0,,,56,102
86040,note_on,4,0,1,,,,,,,,,0,,,53,102
86096,note_on,0,0,1,,,,,,,,,0,,,56,0
86096,note_on,0,0,1,,,,,,,,,0,,,61,0
86096,note_on,56,0,1,,,,,,,,,0,,,53,0
86100,note_on,4,0,1,,,,,,,,,0,,,65,103
86100,note_on,0,0,1,,,,,,,,,0,,,68,103
86100,note_on,0,0,1,,,,,,,,,0,,,73,103
86156,note_on,56,0,1,,,,,,,,,0,,,65,0
86156,note_on,0,0,1,,,,,,,,,0,,,73,0
86156,note_on,0,0,1,,,,,,,,,0,,,68,0
86160,note_on,4,0,1,,,,,,,,,0,,,41,104
86160,note_on,0,0,1,,,,,,,,,0,,,53,104
86216,note_on,56,0,1,,,,,,,,,0,,,41,0
86216,note_on,0,0,1,,,,,,,,,0,,,53,0
86220,note_on,0,0,0,,,,,,,,,0,,,85,122
86220,note_on,4,0,1,,,,,,,,,0,,,73,104
86220,set_tempo,367,1,0,,,,,,1090909,,,,,,,
86220,note_on,0,0,0,,,,,,,,,0,,,85,0
86220,note_on,0,0,1,,,,,,,,,0,,,85,104
86276,note_on,56,0,1,,,,,,,,,0,,,73,0
86280,note_on,4,0,1,,,,,,,,,0,,,56,104
86280,note_on,0,0,1,,,,,,,,,0,,,61,104
86333,note_on,53,0,1,,,,,,,,,0,,,85,0
86336,note_on,3,0,1,,,,,,,,,0,,,56,0
86336,note_on,0,0,1,,,,,,,,,0,,,61,0
86340,note_on,4,0,1,,,,,,,,,0,,,65,104
86340,note_on,0,0,1,,,,,,,,,0,,,68,104
86396,note_on,0,0,1,,,,,,,,,0,,,68,0
86396,note_on,56,0,1,,,,,,,,,0,,,65,0
86400,note_on,4,0,1,,,,,,,,,0,,,36,82
86400,note_on,0,0,1,,,,,,,,,0,,,48,82
86401,control_change,1,0,1,,,,,,,64,0,0,,,,
86402,control_change,1,0,1,,,,,,,64,127,0,,,,
86456,note_on,0,0,1,,,,,,,,,0,,,48,0
86456,note_on,54,0,1,,,,,,,,,0,,,36,0
86460,note_on,4,0,1,,,,,,,,,0,,,70,82
86460,note_on,0,0,0,,,,,,,,,0,,,82,0
86460,note_on,0,0,1,,,,,,,,,0,,,82,82
86460,note_on,0,0,0,,,,,,,,,0,,,82,96
86460,set_tempo,240,1,0,,,,,,1200000,,,,,,,
86516,note_on,56,0,1,,,,,,,,,0,,,70,0
86520,note_on,4,0,1,,,,,,,,,0,,,54,82
86520,note_on,0,0,1,,,,,,,,,0,,,63,82
86573,note_on,53,0,1,,,,,,,,,0,,,82,0
86576,note_on,3,0,1,,,,,,,,,0,,,54,0
86576,note_on,0,0,1,,,,,,,,,0,,,63,0
86580,note_on,4,0,1,,,,,,,,,0,,,63,82
86580,note_on,0,0,1,,,,,,,,,0,,,66,82
86636,note_on,0,0,1,,,,,,,,,0,,,66,0
86636,note_on,56,0,1,,,,,,,,,0,,,63,0
86640,note_on,0,0,1,,,,,,,,,0,,,51,82
86640,note_on,4,0,1,,,,,,,,,0,,,39,82
86696,note_on,56,0,1,,,,,,,,,0,,,39,0
86696,note_on,0,0,1,,,,,,,,,0,,,51,0
86700,set_tempo,240,1,0,,,,,,1000000,,,,,,,
86700,note_on,4,0,1,,,,,,,,,0,,,67,82
86700,note_on,0,0,1,,,,,,,,,0,,,79,82
86700,note_on,0,0,0,,,,,,,,,0,,,79,0
86700,note_on,0,0,0,,,,,,,,,0,,,79,96
86756,note_on,56,0,1,,,,,,,,,0,,,67,0
86760,note_on,4,0,1,,,,,,,,,0,,,54,82
86760,note_on,0,0,1,,,,,,,,,0,,,63,82
86813,note_on,53,0,1,,,,,,,,,0,,,79,0
86816,note_on,3,0,1,,,,,,,,,0,,,54,0
86816,note_on,0,0,1,,,,,,,,,0,,,63,0
86820,note_on,0,0,1,,,,,,,,,0,,,66,82
86820,note_on,4,0,1,,,,,,,,,0,,,63,82
86876,note_on,0,0,1,,,,,,,,,0,,,66,0
86876,note_on,56,0,1,,,,,,,,,0,,,63,0
86880,note_on,0,0,1,,,,,,,,,0,,,56,82
86880,note_on,4,0,1,,,,,,,,,0,,,44,82
86936,note_on,56,0,1,,,,,,,,,0,,,44,0
86936,note_on,0,0,1,,,,,,,,,0,,,56,0
86940,note_on,4,0,1,,,,,,,,,0,,,68,82
86940,note_on,0,0,1,,,,,,,,,0,,,80,82
86940,note_on,240,0,0,,,,,,,,,0,,,80,96
86940,note_on,0,0,0,,,,,,,,,0,,,80,0
86996,note_on,56,0,1,,,,,,,,,0,,,68,0
87000,note_on,4,0,1,,,,,,,,,0,,,54,82
87000,note_on,0,0,1,,,,,,,,,0,,,60,82
87053,note_on,53,0,1,,,,,,,,,0,,,80,0
87056,note_on,0,0,1,,,,,,,,,0,,,60,0
87056,note_on,3,0,1,,,,,,,,,0,,,54,0
87060,note_on,4,0,1,,,,,,,,,0,,,63,82
87060,note_on,0,0,1,,,,,,,,,0,,,66,82
87116,note_on,56,0,1,,,,,,,,,0,,,63,0
87116,note_on,0,0,1,,,,,,,,,0,,,66,0
87120,note_on,4,0,1,,,,,,,,,0,,,36,82
87120,note_on,0,0,1,,,,,,,,,0,,,48,82
87121,control_change,1,0,1,,,,,,,64,0,0,,,,
87122,control_change,1,0,1,,,,,,,64,127,0,,,,
87176,note_on,54,0,1,,,,,,,,,0,,,36,0
87176,note_on,0,0,1,,,,,,,,,0,,,48,0
87180,note_on,0,0,1,,,,,,,,,0,,,81,82
87180,note_on,240,0,0,,,,,,,,,0,,,81,96
87180,note_on,0,0,0,,,,,,,,,0,,,81,0
87180,note_on,4,0,1,,,,,,,,,0,,,69,82
87236,note_on,56,0,1,,,,,,,,,0,,,69,0
87240,note_on,4,0,1,,,,,,,,,0,,,54,82
87240,note_on,0,0,1,,,,,,,,,0,,,63,82
87293,note_on,53,0,1,,,,,,,,,0,,,81,0
87296,note_on,3,0,1,,,,,,,,,0,,,54,0
87296,note_on,0,0,1,,,,,,,,,0,,,63,0
87300,note_on,0,0,1,,,,,,,,,0,,,66,82
87300,note_on,4,0,1,,,,,,,,,0,,,63,82
87356,note_on,56,0,1,,,,,,,,,0,,,63,0
87356,note_on,0,0,1,,,,,,,,,0,,,66,0
87360,note_on,4,0,1,,,,,,,,,0,,,39,82
87360,note_on,0,0,1,,,,,,,,,0,,,51,82
87416,note_on,56,0,1,,,,,,,,,0,,,39,0
87416,note_on,0,0,1,,,,,,,,,0,,,51,0
87420,note_on,0,0,0,,,,,,,,,0,,,79,0
87420,note_on,0,0,1,,,,,,,,,0,,,79,82
87420,note_on,4,0,1,,,,,,,,,0,,,67,82
87420,note_on,240,0,0,,,,,,,,,0,,,79,96
87476,note_on,56,0,1,,,,,,,,,0,,,67,0
87480,note_on,4,0,1,,,,,,,,,0,,,54,82
87480,note_on,0,0,1,,,,,,,,,0,,,63,82
87533,note_on,53,0,1,,,,,,,,,0,,,79,0
87536,note_on,0,0,1,,,,,,,,,0,,,63,0
87536,note_on,3,0,1,,,,,,,,,0,,,54,0
87540,note_on,4,0,1,,,,,,,,,0,,,63,82
87540,note_on,0,0,1,,,,,,,,,0,,,66,82
87596,note_on,56,0,1,,,,,,,,,0,,,63,0
87596,note_on,0,0,1,,,,,,,,,0,,,66,0
87600,note_on,0,0,1,,,,,,,,,0,,,56,82
87600,note_on,4,0,1,,,,,,,,,0,,,44,82
87656,note_on,56,0,1,,,,,,,,,0,,,44,0
87656,note_on,0,0,1,,,,,,,,,0,,,56,0
87660,note_on,0,0,0,,,,,,,,,0,,,80,96
87660,note_on,0,0,1,,,,,,,,,0,,,80,82
87660,set_tempo,240,1,0,,,,,,1200000,,,,,,,
87660,note_on,4,0,1,,,,,,,,,0,,,68,82
87660,note_on,0,0,0,,,,,,,,,0,,,80,0
87716,note_on,56,0,1,,,,,,,,,0,,,68,0
87720,note_on,4,0,1,,,,,,,,,0,,,54,82
87720,note_on,0,0,1,,,,,,,,,0,,,60,82
87773,note_on,53,0,1,,,,,,,,,0,,,80,0
87776,note_on,0,0,1,,,,,,,,,0,,,60,0
87776,note_on,3,0,1,,,,,,,,,0,,,54,0
87780,note_on,0,0,1,,,,,,,,,0,,,66,82
87780,note_on,4,0,1,,,,,,,,,0,,,63,82
87836,note_on,56,0,1,,,,,,,,,0,,,63,0
87836,note_on,0,0,1,,,,,,,,,0,,,66,0
87840,note_on,0,0,1,,,,,,,,,0,,,49,96
87840,note_on,4,0,1,,,,,,,,,0,,,37,96
87841,control_change,1,0,1,,,,,,,64,0,0,,,,
87842,control_change,1,0,1,,,,,,,64,127,0,,,,
87900,note_on,240,0,0,,,,,,,,,0,,,76,96
87900,note_on,0,0,0,,,,,,,,,0,,,88,96
87953,note_on,0,0,1,,,,,,,,,0,,,49,0
87953,note_on,111,0,1,,,,,,,,,0,,,37,0
87960,note_on,0,0,1,,,,,,,,,0,,,56,82
87960,note_on,7,0,1,,,,,,,,,0,,,52,82
87960,note_on,0,0,1,,,,,,,,,0,,,60,82
88013,note_on,113,0,0,,,,,,,,,0,,,76,0
88013,note_on,0,0,0,,,,,,,,,0,,,88,0
88016,note_on,0,0,1,,,,,,,,,0,,,56,0
88016,note_on,0,0,1,,,,,,,,,0,,,60,0
88016,note_on,56,0,1,,,,,,,,,0,,,52,0
88020,note_on,0,0,1,,,,,,,,,0,,,72,83
88020,note_on,0,0,1,,,,,,,,,0,,,68,83
88020,note_on,4,0,1,,,,,,,,,0,,,64,83
88020,set_tempo,7,1,0,,,,,,1000000,,,,,,,
88076,note_on,56,0,1,,,,,,,,,0,,,64,0
88076,note_on,0,0,1,,,,,,,,,0,,,68,0
88076,note_on,0,0,1,,,,,,,,,0,,,72,0
88080,note_on,4,0,1,,,,,,,,,0,,,52,84
88080,note_on,0,0,1,,,,,,,,,0,,,56,84
88080,note_on,0,0,1,,,,,,,,,0,,,60,84
88136,note_on,56,0,1,,,,,,,,,0,,,52,0
88136,note_on,0,0,1,,,,,,,,,0,,,56,0
88136,note_on,0,0,1,,,,,,,,,0,,,60,0
88140,note_on,0,0,1,,,,,,,,,0,,,68,85
88140,note_on,4,0,1,,,,,,,,,0,,,64,85
88140,note_on,0,0,1,,,,,,,,,0,,,72,85
88196,note_on,0,0,1,,,,,,,,,0,,,72,0
88196,note_on,0,0,1,,,,,,,,,0,,,68,0
88196,note_on,56,0,1,,,,,,,,,0,,,64,0
88200,note_on,0,0,1,,,,,,,,,0,,,56,85
88200,note_on,0,0,1,,,,,,,,,0,,,60,85
88200,note_on,4,0,1,,,,,,,,,0,,,52,85
88256,note_on,56,0,1,,,,,,,,,0,,,52,0
88256,note_on,0,0,1,,,,,,,,,0,,,60,0
88256,note_on,0,0,1,,,,,,,,,0,,,56,0
88260,note_on,4,0,1,,,,,,,,,0,,,64,86
88260,note_on,0,0,1,,,,,,,,,0,,,72,86
88260,note_on,0,0,1,,,,,,,,,0,,,68,86
88316,note_on,0,0,1,,,,,,,,,0,,,72,0
88316,note_on,0,0,1,,,,,,,,,0,,,68,0
88316,note_on,56,0,1,,,,,,,,,0,,,64,0
88320,note_on,4,0,1,,,,,,,,,0,,,37,86
88320,note_on,0,0,1,,,,,,,,,0,,,49,86
88376,note_on,56,0,1,,,,,,,,,0,,,37,0
88376,note_on,0,0,1,,,,,,,,,0,,,49,0
88380,note_on,360,0,0,,,,,,,,,0,,,89,101
88380,note_on,0,0,0,,,,,,,,,0,,,89,0
88380,note_on,4,0,1,,,,,,,,,0,,,77,86
88380,note_on,0,0,1,,,,,,,,,0,,,89,86
88436,note_on,56,0,1,,,,,,,,,0,,,77,0
88440,note_on,0,0,1,,,,,,,,,0,,,56,86
88440,note_on,0,0,1,,,,,,,,,0,,,61,86
88440,note_on,4,0,1,,,,,,,,,0,,,53,86
88493,note_on,53,0,1,,,,,,,,,0,,,89,0
88496,note_on,0,0,1,,,,,,,,,0,,,56,0
88496,note_on,0,0,1,,,,,,,,,0,,,61,0
88496,note_on,3,0,1,,,,,,,,,0,,,53,0
88500,note_on,0,0,1,,,,,,,,,0,,,68,86
88500,note_on,4,0,1,,,,,,,,,0,,,65,86
88500,note_on,0,0,1,,,,,,,,,0,,,73,86
88556,note_on,0,0,1,,,,,,,,,0,,,68,0
88556,note_on,0,0,1,,,,,,,,,0,,,73,0
88556,note_on,56,0,1,,,,,,,,,0,,,65,0
88560,note_on,4,0,1,,,,,,,,,0,,,38,86
88560,note_on,0,0,1,,,,,,,,,0,,,50,86
88561,control_change,1,0,1,,,,,,,64,0,0,,,,
88562,control_change,1,0,1,,,,,,,64,127,0,,,,
88616,note_on,54,0,1,,,,,,,,,0,,,38,0
88616,note_on,0,0,1,,,,,,,,,0,,,50,0
88620,note_on,0,0,1,,,,,,,,,0,,,83,86
88620,note_on,0,0,0,,,,,,,,,0,,,83,0
88620,note_on,4,0,1,,,,,,,,,0,,,71,86
88620,note_on,240,0,0,,,,,,,,,0,,,83,101
88676,note_on,56,0,1,,,,,,,,,0,,,71,0
88680,note_on,4,0,1,,,,,,,,,0,,,56,86
88680,note_on,0,0,1,,,,,,,,,0,,,65,86
88733,note_on,53,0,1,,,,,,,,,0,,,83,0
88736,note_on,3,0,1,,,,,,,,,0,,,56,0
88736,note_on,0,0,1,,,,,,,,,0,,,65,0
88740,note_on,0,0,1,,,,,,,,,0,,,68,86
88740,note_on,4,0,1,,,,,,,,,0,,,65,86
88796,note_on,56,0,1,,,,,,,,,0,,,65,0
88796,note_on,0,0,1,,,,,,,,,0,,,68,0
88800,note_on,4,0,1,,,,,,,,,0,,,41,86
88800,note_on,0,0,1,,,,,,,,,0,,,53,86
88856,note_on,0,0,1,,,,,,,,,0,,,53,0
88856,note_on,56,0,1,,,,,,,,,0,,,41,0
88860,note_on,4,0,1,,,,,,,,,0,,,69,86
88860,note_on,240,0,0,,,,,,,,,0,,,81,101
88860,note_on,0,0,1,,,,,,,,,0,,,81,86
88860,note_on,0,0,0,,,,,,,,,0,,,81,0
88916,note_on,56,0,1,,,,,,,,,0,,,69,0
88920,note_on,0,0,1,,,,,,,,,0,,,65,86
88920,note_on,4,0,1,,,,,,,,,0,,,56,86
88973,note_on,53,0,1,,,,,,,,,0,,,81,0
88976,note_on,0,0,1,,,,,,,,,0,,,65,0
88976,note_on,3,0,1,,,,,,,,,0,,,56,0
88980,note_on,4,0,1,,,,,,,,,0,,,65,86
88980,note_on,0,0,1,,,,,,,,,0,,,68,86
89036,note_on,56,0,1,,,,,,,,,0,,,65,0
89036,note_on,0,0,1,,,,,,,,,0,,,68,0
89040,note_on,4,0,1,,,,,,,,,0,,,46,86
89040,note_on,0,0,1,,,,,,,,,0,,,58,86
89096,note_on,56,0,1,,,,,,,,,0,,,46,0
89096,note_on,0,0,1,,,,,,,,,0,,,58,0
89100,note_on,0,0,1,,,,,,,,,0,,,82,86
89100,note_on,0,0,0,,,,,,,,,0,,,82,101
89100,set_tempo,240,1,0,,,,,,1200000,,,,,,,
89100,note_on,0,0,0,,,,,,,,,0,,,82,0
89100,note_on,4,0,1,,,,,,,,,0,,,70,86
89156,note_on,56,0,1,,,,,,,,,0,,,70,0
89160,note_on,0,0,1,,,,,,,,,0,,,62,86
89160,note_on,4,0,1,,,,,,,,,0,,,56,86
89213,note_on,53,0,1,,,,,,,,,0,,,82,0
89216,note_on,3,0,1,,,,,,,,,0,,,56,0
89216,note_on,0,0,1,,,,,,,,,0,,,62,0
89220,note_on,0,0,1,,,,,,,,,0,,,68,86
89220,note_on,4,0,1,,,,,,,,,0,,,65,86
89276,note_on,0,0,1,,,,,,,,,0,,,68,0
89276,note_on,56,0,1,,,,,,,,,0,,,65,0
89280,note_on,0,0,1,,,,,,,,,0,,,51,101
89280,note_on,4,0,1,,,,,,,,,0,,,39,101
89281,control_change,1,0,1,,,,,,,64,0,0,,,,
89282,control_change,1,0,1,,,,,,,64,127,0,,,,
89340,note_on,240,0,0,,,,,,,,,0,,,80,101
89340,note_on,0,0,0,,,,,,,,,0,,,92,101
89393,note_on,0,0,1,,,,,,,,,0,,,51,0
89393,note_on,111,0,1,,,,,,,,,0,,,39,0
89400,note_on,7,0,1,,,,,,,,,0,,,56,86
89400,note_on,0,0,1,,,,,,,,,0,,,63,86
89400,note_on,0,0,1,,,,,,,,,0,,,58,86
89453,note_on,113,0,0,,,,,,,,,0,,,80,0
89453,note_on,0,0,0,,,,,,,,,0,,,92,0
89456,note_on,56,0,1,,,,,,,,,0,,,56,0
89456,note_on,0,0,1,,,,,,,,,0,,,58,0
89456,note_on,0,0,1,,,,,,,,,0,,,63,0
89460,note_on,4,0,1,,,,,,,,,0,,,68,87
89460,note_on,0,0,1,,,,,,,,,0,,,70,87
89460,note_on,0,0,1,,,,,,,,,0,,,75,87
89460,set_tempo,7,1,0,,,,,,1000000,,,,,,,
89516,note_on,0,0,1,,,,,,,,,0,,,70,0
89516,note_on,56,0,1,,,,,,,,,0,,,68,0
89516,note_on,0,0,1,,,,,,,,,0,,,75,0
89520,note_on,0,0,1,,,,,,,,,0,,,63,87
89520,note_on,0,0,1,,,,,,,,,0,,,58,87
89520,note_on,4,0,1,,,,,,,,,0,,,56,87
89576,note_on,56,0,1,,,,,,,,,0,,,56,0
89576,note_on,0,0,1,,,,,,,,,0,,,63,0
89576,note_on,0,0,1,,,,,,,,,0,,,58,0
89580,note_on,4,0,1,,,,,,,,,0,,,68,88
89580,note_on,0,0,1,,,,,,,,,0,,,75,88
89580,note_on,0,0,1,,,,,,,,,0,,,70,88
89636,note_on,0,0,1,,,,,,,,,0,,,75,0
89636,note_on,0,0,1,,,,,,,,,0,,,70,0
89636,note_on,56,0,1,,,,,,,,,0,,,68,0
89640,note_on,4,0,1,,,,,,,,,0,,,56,89
89640,note_on,0,0,1,,,,,,,,,0,,,63,89
89640,note_on,0,0,1,,,,,,,,,0,,,58,89
89696,note_on,56,0,1,,,,,,,,,0,,,56,0
89696,note_on,0,0,1,,,,,,,,,0,,,63,0
89696,note_on,0,0,1,,,,,,,,,0,,,58,0
89700,note_on,0,0,1,,,,,,,,,0,,,75,89
89700,note_on,0,0,1,,,,,,,,,0,,,70,89
89700,note_on,4,0,1,,,,,,,,,0,,,68,89
89756,note_on,0,0,1,,,,,,,,,0,,,70,0
89756,note_on,0,0,1,,,,,,,,,0,,,75,0
89756,note_on,56,0,1,,,,,,,,,0,,,68,0
89760,note_on,0,0,1,,,,,,,,,0,,,51,90
89760,note_on,4,0,1,,,,,,,,,0,,,39,90
89816,note_on,56,0,1,,,,,,,,,0,,,39,0
89816,note_on,0,0,1,,,,,,,,,0,,,51,0
89820,note_on,0,0,0,,,,,,,,,0,,,90,0
89820,note_on,360,0,0,,,,,,,,,0,,,90,106
89820,note_on,0,0,1,,,,,,,,,0,,,90,91
89820,note_on,4,0,1,,,,,,,,,0,,,78,91
89876,note_on,56,0,1,,,,,,,,,0,,,78,0
89880,note_on,0,0,1,,,,,,,,,0,,,58,91
89880,note_on,4,0,1,,,,,,,,,0,,,54,91
89880,note_on,0,0,1,,,,,,,,,0,,,63,91
89933,note_on,53,0,1,,,,,,,,,0,,,90,0
89936,note_on,0,0,1,,,,,,,,,0,,,63,0
89936,note_on,3,0,1,,,,,,,,,0,,,54,0
89936,note_on,0,0,1,,,,,,,,,0,,,58,0
89940,note_on,0,0,1,,,,,,,,,0,,,75,91
89940,note_on,0,0,1,,,,,,,,,0,,,70,91
89940,note_on,4,0,1,,,,,,,,,0,,,66,91
89996,note_on,0,0,1,,,,,,,,,0,,,75,0
89996,note_on,56,0,1,,,,,,,,,0,,,66,0
89996,note_on,0,0,1,,,,,,,,,0,,,70,0
90000,note_on,0,0,1,,,,,,,,,0,,,53,91
90000,note_on,4,0,1,,,,,,,,,0,,,41,91
90001,control_change,1,0,1,,,,,,,64,0,0,,,,
90002,control_change,1,0,1,,,,,,,64,127,0,,,,
90056,note_on,0,0,1,,,,,,,,,0,,,53,0
90056,note_on,54,0,1,,,,,,,,,0,,,41,0
90060,note_on,240,0,0,,,,,,,,,0,,,86,106
90060,note_on,4,0,1,,,,,,,,,0,,,74,91
90060,note_on,0,0,0,,,,,,,,,0,,,86,0
90060,note_on,0,0,1,,,,,,,,,0,,,86,91
90116,note_on,56,0,1,,,,,,,,,0,,,74,0
90120,note_on,4,0,1,,,,,,,,,0,,,59,91
90120,note_on,0,0,1,,,,,,,,,0,,,68,91
90173,note_on,53,0,1,,,,,,,,,0,,,86,0
90176,note_on,3,0,1,,,,,,,,,0,,,59,0
90176,note_on,0,0,1,,,,,,,,,0,,,68,0
90180,note_on,4,0,1,,,,,,,,,0,,,68,91
90180,note_on,0,0,1,,,,,,,,,0,,,71,91
90236,note_on,56,0,1,,,,,,,,,0,,,68,0
90236,note_on,0,0,1,,,,,,,,,0,,,71,0
90240,note_on,0,0,1,,,,,,,,,0,,,56,91
90240,note_on,4,0,1,,,,,,,,,0,,,44,91
90296,note_on,0,0,1,,,,,,,,,0,,,56,0
90296,note_on,56,0,1,,,,,,,,,0,,,44,0
90300,note_on,240,0,0,,,,,,,,,0,,,84,106
90300,note_on,0,0,0,,,,,,,,,0,,,84,0
90300,note_on,4,0,1,,,,,,,,,0,,,72,91
90300,note_on,0,0,1,,,,,,,,,0,,,84,91
90356,note_on,56,0,1,,,,,,,,,0,,,72,0
90360,note_on,4,0,1,,,,,,,,,0,,,59,91
90360,note_on,0,0,1,,,,,,,,,0,,,68,91
90413,note_on,53,0,1,,,,,,,,,0,,,84,0
90416,note_on,3,0,1,,,,,,,,,0,,,59,0
90416,note_on,0,0,1,,,,,,,,,0,,,68,0
90420,note_on,0,0,1,,,,,,,,,0,,,71,91
90420,note_on,4,0,1,,,,,,,,,0,,,68,91
90476,note_on,56,0,1,,,,,,,,,0,,,68,0
90476,note_on,0,0,1,,,,,,,,,0,,,71,0
90480,note_on,4,0,1,,,,,,,,,0,,,49,91
90480,note_on,0,0,1,,,,,,,,,0,,,61,91
90536,note_on,0,0,1,,,,,,,,,0,,,61,0
90536,note_on,56,0,1,,,,,,,,,0,,,49,0
90540,note_on,0,0,0,,,,,,,,,0,,,85,0
90540,set_tempo,240,1,0,,,,,,1200000,,,,,,,
90540,note_on,0,0,1,,,,,,,,,0,,,85,91
90540,note_on,4,0,1,,,,,,,,,0,,,73,91
90540,note_on,0,0,0,,,,,,,,,0,,,85,106
90596,note_on,56,0,1,,,,,,,,,0,,,73,0
90600,note_on,4,0,1,,,,,,,,,0,,,59,91
90600,note_on,0,0,1,,,,,,,,,0,,,65,91
90653,note_on,53,0,1,,,,,,,,,0,,,85,0
90656,note_on,0,0,1,,,,,,,,,0,,,65,0
90656,note_on,3,0,1,,,,,,,,,0,,,59,0
90660,note_on,4,0,1,,,,,,,,,0,,,68,91
90660,note_on,0,0,1,,,,,,,,,0,,,71,91
90716,note_on,56,0,1,,,,,,,,,0,,,68,0
90716,note_on,0,0,1,,,,,,,,,0,,,71,0
90720,note_on,0,0,1,,,,,,,,,0,,,54,106
90720,note_on,4,0,1,,,,,,,,,0,,,42,106
90721,control_change,1,0,1,,,,,,,64,0,0,,,,
90722,control_change,1,0,1,,,,,,,64,127,0,,,,
90780,note_on,0,0,0,,,,,,,,,0,,,93,106
90780,note_on,240,0,0,,,,,,,,,0,,,81,106
90833,note_on,0,0,1,,,,,,,,,0,,,54,0
90833,note_on,111,0,1,,,,,,,,,0,,,42,0
90840,note_on,0,0,1,,,,,,,,,0,,,65,91
90840,note_on,0,0,1,,,,,,,,,0,,,61,91
90840,note_on,7,0,1,,,,,,,,,0,,,57,91
90893,note_on,113,0,0,,,,,,,,,0,,,81,0
90893,note_on,0,0,0,,,,,,,,,0,,,93,0
90896,note_on,56,0,1,,,,,,,,,0,,,57,0
90896,note_on,0,0,1,,,,,,,,,0,,,61,0
90896,note_on,0,0,1,,,,,,,,,0,,,65,0
90900,note_on,0,0,1,,,,,,,,,0,,,73,91
90900,note_on,4,0,1,,,,,,,,,0,,,69,91
90900,set_tempo,7,1,0,,,,,,1000000,,,,,,,
90900,note_on,0,0,1,,,,,,,,,0,,,77,91
90956,note_on,56,0,1,,,,,,,,,0,,,69,0
90956,note_on,0,0,1,,,,,,,,,0,,,77,0
90956,note_on,0,0,1,,,,,,,,,0,,,73,0
90960,note_on,0,0,1,,,,,,,,,0,,,61,92
90960,note_on,4,0,1,,,,,,,,,0,,,57,92
90960,note_on,0,0,1,,,,,,,,,0,,,65,92
91016,note_on,0,0,1,,,,,,,,,0,,,65,0
91016,note_on,0,0,1,,,,,,,,,0,,,61,0
91016,note_on,56,0,1,,,,,,,,,0,,,57,0
91020,note_on,0,0,1,,,,,,,,,0,,,77,93
91020,note_on,0,0,1,,,,,,,,,0,,,73,93
91020,note_on,4,0,1,,,,,,,,,0,,,69,93
91076,note_on,0,0,1,,,,,,,,,0,,,77,0
91076,note_on,0,0,1,,,,,,,,,0,,,73,0
91076,note_on,56,0,1,,,,,,,,,0,,,69,0
91080,note_on,0,0,1,,,,,,,,,0,,,61,94
91080,note_on,0,0,1,,,,,,,,,0,,,65,94
91080,note_on,4,0,1,,,,,,,,,0,,,57,94
91136,note_on,0,0,1,,,,,,,,,0,,,65,0
91136,note_on,0,0,1,,,,,,,,,0,,,61,0
91136,note_on,56,0,1,,,,,,,,,0,,,57,0
91140,note_on,0,0,1,,,,,,,,,0,,,77,95
91140,note_on,4,0,1,,,,,,,,,0,,,69,95
91140,note_on,0,0,1,,,,,,,,,0,,,73,95
91196,note_on,0,0,1,,,,,,,,,0,,,77,0
91196,note_on,56,0,1,,,,,,,,,0,,,69,0
91196,note_on,0,0,1,,,,,,,,,0,,,73,0
91200,note_on,4,0,1,,,,,,,,,0,,,42,95
91200,note_on,0,0,1,,,,,,,,,0,,,54,95
91256,note_on,56,0,1,,,,,,,,,0,,,42,0
91256,note_on,0,0,1,,,,,,,,,0,,,54,0
91260,note_on,0,0,1,,,,,,,,,0,,,94,95
91260,note_on,4,0,1,,,,,,,,,0,,,82,95
91260,set_tempo,360,1,0,,,,,,1499999,,,,,,,
91260,note_on,0,0,0,,,,,,,,,0,,,94,111
91260,note_on,0,0,0,,,,,,,,,0,,,94,0
91316,note_on,56,0,1,,,,,,,,,0,,,82,0
91320,note_on,0,0,1,,,,,,,,,0,,,66,95
91320,note_on,0,0,1,,,,,,,,,0,,,61,95
91320,note_on,4,0,1,,,,,,,,,0,,,58,95
91373,note_on,53,0,1,,,,,,,,,0,,,94,0
91376,note_on,0,0,1,,,,,,,,,0,,,66,0
91376,note_on,0,0,1,,,,,,,,,0,,,61,0
91376,note_on,3,0,1,,,,,,,,,0,,,58,0
91380,note_on,0,0,1,,,,,,,,,0,,,78,95
91380,note_on,0,0,1,,,,,,,,,0,,,73,95
91380,note_on,4,0,1,,,,,,,,,0,,,70,95
91436,note_on,56,0,1,,,,,,,,,0,,,70,0
91436,note_on,0,0,1,,,,,,,,,0,,,78,0
91436,note_on,0,0,1,,,,,,,,,0,,,73,0
91440,note_on,0,0,1,,,,,,,,,0,,,55,111
91440,note_on,4,0,1,,,,,,,,,0,,,43,111
91441,control_change,1,0,1,,,,,,,64,0,0,,,,
91442,control_change,1,0,1,,,,,,,64,127,0,,,,
91500,note_on,0,0,0,,,,,,,,,0,,,97,111
91500,set_tempo,240,1,0,,,,,,1200000,,,,,,,
91500,note_on,0,0,0,,,,,,,,,0,,,85,111
91553,note_on,111,0,1,,,,,,,,,0,,,43,0
91553,note_on,0,0,1,,,,,,,,,0,,,55,0
91560,note_on,0,0,1,,,,,,,,,0,,,64,95
91560,note_on,0,0,1,,,,,,,,,0,,,61,95
91560,note_on,7,0,1,,,,,,,,,0,,,58,95
91613,note_on,0,0,0,,,,,,,,,0,,,97,0
91613,note_on,113,0,0,,,,,,,,,0,,,85,0
91616,note_on,0,0,1,,,,,,,,,0,,,61,0
91616,note_on,56,0,1,,,,,,,,,0,,,58,0
91616,note_on,0,0,1,,,,,,,,,0,,,64,0
91620,note_on,0,0,1,,,,,,,,,0,,,73,95
91620,note_on,0,0,1,,,,,,,,,0,,,76,95
91620,note_on,4,0,1,,,,,,,,,0,,,70,95
91676,note_on,0,0,1,,,,,,,,,0,,,76,0
91676,note_on,0,0,1,,,,,,,,,0,,,73,0
91676,note_on,56,0,1,,,,,,,,,0,,,70,0
91680,note_on,4,0,1,,,,,,,,,0,,,58,95
91680,note_on,0,0,1,,,,,,,,,0,,,64,95
91680,note_on,0,0,1,,,,,,,,,0,,,61,95
91736,note_on,56,0,1,,,,,,,,,0,,,58,0
91736,note_on,0,0,1,,,,,,,,,0,,,64,0
91736,note_on,0,0,1,,,,,,,,,0,,,61,0
91740,set_tempo,127,1,0,,,,,,1000000,,,,,,,
91740,note_on,4,0,1,,,,,,,,,0,,,70,95
91740,note_on,0,0,1,,,,,,,,,0,,,73,95
91740,note_on,0,0,1,,,,,,,,,0,,,76,95
91796,note_on,0,0,1,,,,,,,,,0,,,76,0
91796,note_on,0,0,1,,,,,,,,,0,,,73,0
91796,note_on,56,0,1,,,,,,,,,0,,,70,0
91800,note_on,0,0,1,,,,,,,,,0,,,64,95
91800,note_on,0,0,1,,,,,,,,,0,,,61,95
91800,note_on,4,0,1,,,,,,,,,0,,,58,95
91856,note_on,0,0,1,,,,,,,,,0,,,61,0
91856,note_on,0,0,1,,,,,,,,,0,,,64,0
91856,note_on,56,0,1,,,,,,,,,0,,,58,0
91860,note_on,4,0,1,,,,,,,,,0,,,70,95
91860,note_on,0,0,1,,,,,,,,,0,,,73,95
91860,note_on,0,0,1,,,,,,,,,0,,,76,95
91916,note_on,56,0,1,,,,,,,,,0,,,70,0
91916,note_on,0,0,1,,,,,,,,,0,,,73,0
91916,note_on,0,0,1,,,,,,,,,0,,,76,0
91920,set_tempo,180,1,0,,,,,,1200000,,,,,,,
91920,note_on,0,0,1,,,,,,,,,0,,,54,95
91920,note_on,4,0,1,,,,,,,,,0,,,42,95
91976,note_on,56,0,1,,,,,,,,,0,,,42,0
91976,note_on,0,0,1,,,,,,,,,0,,,54,0
91980,note_on,0,0,1,,,,,,,,,0,,,88,95
91980,note_on,60,0,0,,,,,,,,,0,,,88,111
91980,note_on,4,0,1,,,,,,,,,0,,,76,95
91980,note_on,0,0,0,,,,,,,,,0,,,88,0
92036,note_on,56,0,1,,,,,,,,,0,,,76,0
92040,note_on,4,0,1,,,,,,,,,0,,,58,95
92040,note_on,0,0,1,,,,,,,,,0,,,61,95
92040,note_on,0,0,1,,,,,,,,,0,,,64,95
92093,note_on,53,0,1,,,,,,,,,0,,,88,0
92096,note_on,3,0,1,,,,,,,,,0,,,58,0
92096,note_on,0,0,1,,,,,,,,,0,,,61,0
92096,note_on,0,0,1,,,,,,,,,0,,,64,0
92100,note_on,4,0,1,,,,,,,,,0,,,70,95
92100,note_on,0,0,1,,,,,,,,,0,,,73,95
92156,note_on,56,0,1,,,,,,,,,0,,,70,0
92156,note_on,0,0,1,,,,,,,,,0,,,73,0
92160,note_on,0,0,1,,,,,,,,,0,,,53,112
92160,note_on,4,0,1,,,,,,,,,0,,,41,112
92161,control_change,1,0,1,,,,,,,64,0,0,,,,
92162,control_change,1,0,1,,,,,,,64,127,0,,,,
92216,note_on,0,0,1,,,,,,,,,0,,,53,0
92216,note_on,54,0,1,,,,,,,,,0,,,41,0
92220,note_on,0,0,1,,,,,,,,,0,,,89,112
92220,note_on,4,0,1,,,,,,,,,0,,,77,112
92276,note_on,0,0,1,,,,,,,,,0,,,89,0
92276,note_on,56,0,1,,,,,,,,,0,,,77,0
92280,note_on,0,0,1,,,,,,,,,0,,,61,112
92280,note_on,0,0,1,,,,,,,,,0,,,65,112
92280,note_on,4,0,1,,,,,,,,,0,,,58,112
92336,note_on,0,0,1,,,,,,,,,0,,,61,0
92336,note_on,56,0,1,,,,,,,,,0,,,58,0
92336,note_on,0,0,1,,,,,,,,,0,,,65,0
92340,note_on,4,0,1,,,,,,,,,0,,,70,112
92340,note_on,0,0,1,,,,,,,,,0,,,73,112
92396,note_on,0,0,1,,,,,,,,,0,,,73,0
92396,note_on,56,0,1,,,,,,,,,0,,,70,0
92400,note_on,4,0,1,,,,,,,,,0,,,37,112
92400,set_tempo,420,1,0,,,,,,1090909,,,,,,,
92400,note_on,0,0,1,,,,,,,,,0,,,49,112
92401,control_change,1,0,1,,,,,,,64,0,0,,,,
92402,control_change,1,0,1,,,,,,,64,127,0,,,,
92456,note_on,54,0,1,,,,,,,,,0,,,37,0
92456,note_on,0,0,1,,,,,,,,,0,,,49,0
92460,note_on,4,0,1,,,,,,,,,0,,,73,112
92460,note_on,0,0,1,,,,,,,,,0,,,85,112
92516,note_on,0,0,1,,,,,,,,,0,,,85,0
92516,note_on,56,0,1,,,,,,,,,0,,,73,0
92520,note_on,0,0,1,,,,,,,,,0,,,58,112
92520,note_on,0,0,1,,,,,,,,,0,,,61,112
92520,note_on,4,0,1,,,,,,,,,0,,,53,112
92576,note_on,0,0,1,,,,,,,,,0,,,58,0
92576,note_on,0,0,1,,,,,,,,,0,,,61,0
92576,note_on,56,0,1,,,,,,,,,0,,,53,0
92580,note_on,0,0,1,,,,,,,,,0,,,70,112
92580,note_on,4,0,1,,,,,,,,,0,,,65,112
92636,note_on,0,0,1,,,,,,,,,0,,,70,0
92636,note_on,56,0,1,,,,,,,,,0,,,65,0
92640,set_tempo,240,1,0,,,,,,1000000,,,,,,,
92640,note_on,4,0,1,,,,,,,,,0,,,33,112
92640,note_on,0,0,1,,,,,,,,,0,,,45,112
92641,control_change,1,0,1,,,,,,,64,0,0,,,,
92642,control_change,1,0,1,,,,,,,64,127,0,,,,
92696,note_on,0,0,1,,,,,,,,,0,,,45,0
92696,note_on,54,0,1,,,,,,,,,0,,,33,0
92700,note_on,0,0,1,,,,,,,,,0,,,81,112
92700,note_on,4,0,1,,,,,,,,,0,,,69,112
92756,note_on,56,0,1,,,,,,,,,0,,,69,0
92756,note_on,0,0,1,,,,,,,,,0,,,81,0
92760,note_on,0,0,1,,,,,,,,,0,,,53,112
92760,note_on,0,0,1,,,,,,,,,0,,,57,112
92760,note_on,4,0,1,,,,,,,,,0,,,49,112
92816,note_on,0,0,1,,,,,,,,,0,,,53,0
92816,note_on,0,0,1,,,,,,,,,0,,,57,0
92816,note_on,56,0,1,,,,,,,,,0,,,49,0
92820,note_on,0,0,1,,,,,,,,,0,,,65,112
92820,note_on,4,0,1,,,,,,,,,0,,,61,112
92876,note_on,0,0,1,,,,,,,,,0,,,65,0
92876,note_on,56,0,1,,,,,,,,,0,,,61,0
92880,note_on,4,0,1,,,,,,,,,0,,,34,112
92880,note_on,0,0,1,,,,,,,,,0,,,46,112
92881,control_change,1,0,1,,,,,,,64,0,0,,,,
92882,control_change,1,0,1,,,,,,,64,127,0,,,,
92936,note_on,0,0,1,,,,,,,,,0,,,46,0
92936,note_on,54,0,1,,,,,,,,,0,,,34,0
92940,note_on,0,0,1,,,,,,,,,0,,,82,112
92940,note_on,4,0,1,,,,,,,,,0,,,70,112
92996,note_on,56,0,1,,,,,,,,,0,,,70,0
92996,note_on,0,0,1,,,,,,,,,0,,,82,0
93000,note_on,0,0,1,,,,,,,,,0,,,53,112
93000,note_on,0,0,1,,,,,,,,,0,,,58,112
93000,note_on,4,0,1,,,,,,,,,0,,,49,112
93056,note_on,56,0,1,,,,,,,,,0,,,49,0
93056,note_on,0,0,1,,,,,,,,,0,,,53,0
93056,note_on,0,0,1,,,,,,,,,0,,,58,0
93060,note_on,0,0,1,,,,,,,,,0,,,65,112
93060,note_on,4,0,1,,,,,,,,,0,,,61,112
93116,note_on,0,0,1,,,,,,,,,0,,,65,0
93116,note_on,56,0,1,,,,,,,,,0,,,61,0
93120,note_on,0,0,1,,,,,,,,,0,,,40,112
93120,note_on,4,0,1,,,,,,,,,0,,,28,112
93121,control_change,1,0,1,,,,,,,64,0,0,,,,
93122,control_change,1,0,1,,,,,,,64,127,0,,,,
93176,note_on,54,0,1,,,,,,,,,0,,,28,0
93176,note_on,0,0,1,,,,,,,,,0,,,40,0
93180,note_on,4,0,1,,,,,,,,,0,,,64,112
93180,note_on,0,0,1,,,,,,,,,0,,,76,112
93236,note_on,56,0,1,,,,,,,,,0,,,64,0
93236,note_on,0,0,1,,,,,,,,,0,,,76,0
93240,note_on,4,0,1,,,,,,,,,0,,,46,112
93240,note_on,0,0,1,,,,,,,,,0,,,52,112
93240,note_on,0,0,1,,,,,,,,,0,,,49,112
93296,note_on,0,0,1,,,,,,,,,0,,,52,0
93296,note_on,0,0,1,,,,,,,,,0,,,49,0
93296,note_on,56,0,1,,,,,,,,,0,,,46,0
93300,note_on,4,0,1,,,,,,,,,0,,,58,112
93300,set_tempo,660,1,0,,,,,,1200000,,,,,,,
93300,note_on,0,0,1,,,,,,,,,0,,,61,112
93356,note_on,0,0,1,,,,,,,,,0,,,61,0
93356,note_on,56,0,1,,,,,,,,,0,,,58,0
93360,note_on,4,0,1,,,,,,,,,0,,,29,112
93360,note_on,0,0,1,,,,,,,,,0,,,41,112
93361,control_change,1,0,1,,,,,,,64,0,0,,,,
93362,control_change,1,0,1,,,,,,,64,127,0,,,,
93416,note_on,0,0,1,,,,,,,,,0,,,41,0
93416,note_on,54,0,1,,,,,,,,,0,,,29,0
93420,note_on,0,0,1,,,,,,,,,0,,,77,112
93420,note_on,4,0,1,,,,,,,,,0,,,65,112
93476,note_on,0,0,1,,,,,,,,,0,,,77,0
93476,note_on,56,0,1,,,,,,,,,0,,,65,0
93480,note_on,0,0,1,,,,,,,,,0,,,53,112
93480,note_on,4,0,1,,,,,,,,,0,,,46,112
93480,note_on,0,0,1,,,,,,,,,0,,,49,112
93536,note_on,56,0,1,,,,,,,,,0,,,46,0
93536,note_on,0,0,1,,,,,,,,,0,,,53,0
93536,note_on,0,0,1,,,,,,,,,0,,,49,0
93540,note_on,4,0,1,,,,,,,,,0,,,58,112
93540,set_tempo,240,1,0,,,,,,3000003,,,,,,,
93540,note_on,0,0,1,,,,,,,,,0,,,61,112
93596,note_on,56,0,1,,,,,,,,,0,,,58,0
93596,note_on,0,0,1,,,,,,,,,0,,,61,0
93600,note_on,0,0,1,,,,,,,,,0,,,42,112
93600,note_on,0,0,1,,,,,,,,,0,,,54,112
93600,note_on,0,0,0,,,,,,,,,0,,,54,0
93600,note_on,4,0,1,,,,,,,,,0,,,30,112
93600,note_on,0,0,0,,,,,,,,,0,,,66,127
93600,note_on,0,0,0,,,,,,,,,0,,,54,112
93600,time_signature,60,1,0,9,8,24,8,,,,,,,,,
93600,set_tempo,0,1,0,,,,,,5999988,,,,,,,
93601,control_change,1,0,1,,,,,,,64,0,0,,,,
93637,note_on,36,0,1,,,,,,,,,0,,,30,0
93637,note_on,0,0,1,,,,,,,,,0,,,42,0
93640,note_on,0,0,0,,,,,,,,,0,,,55,112
93640,set_tempo,40,1,0,,,,,,1200000,,,,,,,
93640,note_on,3,0,1,,,,,,,,,0,,,43,112
93677,note_on,37,0,1,,,,,,,,,0,,,43,0
93677,note_on,37,0,0,,,,,,,,,0,,,55,0
93680,note_on,3,0,0,,,,,,,,,0,,,56,112
93680,note_on,3,0,1,,,,,,,,,0,,,44,112
93717,note_on,37,0,0,,,,,,,,,0,,,56,0
93717,note_on,37,0,1,,,,,,,,,0,,,44,0
93720,note_on,3,0,0,,,,,,,,,0,,,57,112
93720,note_on,3,0,1,,,,,,,,,0,,,45,112
93757,note_on,37,0,0,,,,,,,,,0,,,57,0
93757,note_on,37,0,1,,,,,,,,,0,,,45,0
93760,note_on,3,0,1,,,,,,,,,0,,,46,112
93760,note_on,3,0,0,,,,,,,,,0,,,58,112
93797,note_on,37,0,0,,,,,,,,,0,,,58,0
93797,note_on,37,0,1,,,,,,,,,0,,,46,0
93800,set_tempo,3,1,0,,,,,,1090909,,,,,,,
93800,note_on,0,0,0,,,,,,,,,0,,,59,112
93800,note_on,3,0,1,,,,,,,,,0,,,47,112
93837,note_on,37,0,1,,,,,,,,,0,,,47,0
93837,note_on,37,0,0,,,,,,,,,0,,,59,0
93840,note_on,3,0,0,,,,,,,,,0,,,60,112
93840,note_on,3,0,1,,,,,,,,,0,,,48,112
93877,note_on,37,0,1,,,,,,,,,0,,,48,0
93877,note_on,37,0,0,,,,,,,,,0,,,60,0
93880,note_on,3,0,0,,,,,,,,,0,,,61,112
93880,note_on,3,0,1,,,,,,,,,0,,,49,112
93917,note_on,37,0,0,,,,,,,,,0,,,61,0
93917,note_on,37,0,1,,,,,,,,,0,,,49,0
93920,note_on,3,0,0,,,,,,,,,0,,,66,0
93920,note_on,3,0,1,,,,,,,,,0,,,50,112
93920,note_on,0,0,0,,,,,,,,,0,,,62,112
93957,note_on,37,0,0,,,,,,,,,0,,,62,0
93957,note_on,37,0,1,,,,,,,,,0,,,50,0
93960,note_on,0,0,0,,,,,,,,,0,,,63,112
93960,note_on,3,0,1,,,,,,,,,0,,,51,112
93960,set_tempo,3,1,0,,,,,,1000000,,,,,,,
93997,note_on,37,0,0,,,,,,,,,0,,,63,0
93997,note_on,37,0,1,,,,,,,,,0,,,51,0
94000,note_on,3,0,1,,,,,,,,,0,,,52,112
94000,note_on,3,0,0,,,,,,,,,0,,,64,112
94037,note_on,37,0,1,,,,,,,,,0,,,52,0
94037,note_on,37,0,0,,,,,,,,,0,,,64,0
94040,note_on,3,0,1,,,,,,,,,0,,,53,112
94040,note_on,3,0,0,,,,,,,,,0,,,65,112
94055,note_on,15,0,1,,,,,,,,,0,,,54,0
94077,note_on,22,0,1,,,,,,,,,0,,,53,0
94077,note_on,37,0,0,,,,,,,,,0,,,65,0
94080,note_on,3,0,0,,,,,,,,,0,,,66,112
94080,note_on,3,0,1,,,,,,,,,0,,,54,112
94117,note_on,37,0,1,,,,,,,,,0,,,54,0
94117,note_on,37,0,0,,,,,,,,,0,,,66,0
94120,note_on,3,0,1,,,,,,,,,0,,,55,112
94120,note_on,3,0,0,,,,,,,,,0,,,67,112
94157,note_on,37,0,0,,,,,,,,,0,,,67,0
94157,note_on,37,0,1,,,,,,,,,0,,,55,0
94160,note_on,3,0,1,,,,,,,,,0,,,56,112
94160,note_on,3,0,0,,,,,,,,,0,,,68,112
94197,note_on,37,0,0,,,,,,,,,0,,,68,0
94197,note_on,37,0,1,,,,,,,,,0,,,56,0
94200,note_on,3,0,1,,,,,,,,,0,,,57,112
94200,note_on,3,0,0,,,,,,,,,0,,,69,112
94237,note_on,37,0,0,,,,,,,,,0,,,69,0
94237,note_on,37,0,1,,,,,,,,,0,,,57,0
94240,note_on,3,0,1,,,,,,,,,0,,,58,112
94240,note_on,3,0,0,,,,,,,,,0,,,70,112
94277,note_on,37,0,0,,,,,,,,,0,,,70,0
94277,note_on,37,0,1,,,,,,,,,0,,,58,0
94280,note_on,3,0,1,,,,,,,,,0,,,59,112
94280,note_on,3,0,0,,,,,,,,,0,,,71,112
94317,note_on,37,0,1,,,,,,,,,0,,,59,0
94317,note_on,37,0,0,,,,,,,,,0,,,71,0
94320,note_on,3,0,1,,,,,,,,,0,,,60,112
94320,note_on,3,0,0,,,,,,,,,0,,,72,112
94357,note_on,37,0,1,,,,,,,,,0,,,60,0
94357,note_on,37,0,0,,,,,,,,,0,,,72,0
94360,note_on,3,0,0,,,,,,,,,0,,,73,112
94360,note_on,3,0,1,,,,,,,,,0,,,61,112
94397,note_on,37,0,1,,,,,,,,,0,,,61,0
94397,note_on,37,0,0,,,,,,,,,0,,,73,0
94400,note_on,3,0,0,,,,,,,,,0,,,74,112
94400,note_on,3,0,1,,,,,,,,,0,,,62,112
94437,note_on,37,0,0,,,,,,,,,0,,,74,0
94437,note_on,37,0,1,,,,,,,,,0,,,62,0
94440,note_on,3,0,1,,,,,,,,,0,,,63,112
94440,note_on,3,0,0,,,,,,,,,0,,,75,112
94477,note_on,37,0,1,,,,,,,,,0,,,63,0
94477,note_on,37,0,0,,,,,,,,,0,,,75,0
94480,note_on,3,0,1,,,,,,,,,0,,,64,112
94480,note_on,3,0,0,,,,,,,,,0,,,76,112
94517,note_on,37,0,0,,,,,,,,,0,,,76,0
94517,note_on,37,0,1,,,,,,,,,0,,,64,0
94520,note_on,3,0,1,,,,,,,,,0,,,65,112
94520,note_on,3,0,0,,,,,,,,,0,,,77,112
94557,note_on,37,0,0,,,,,,,,,0,,,77,0
94557,note_on,37,0,1,,,,,,,,,0,,,65,0
94560,note_on,3,0,0,,,,,,,,,0,,,78,112
94560,note_on,3,0,1,,,,,,,,,0,,,66,112
94597,note_on,37,0,0,,,,,,,,,0,,,78,0
94597,note_on,37,0,1,,,,,,,,,0,,,66,0
94600,note_on,3,0,0,,,,,,,,,0,,,79,112
94600,note_on,3,0,1,,,,,,,,,0,,,65,112
94637,note_on,37,0,0,,,,,,,,,0,,,79,0
94637,note_on,37,0,1,,,,,,,,,0,,,65,0
94640,note_on,3,0,1,,,,,,,,,0,,,64,112
94640,note_on,3,0,0,,,,,,,,,0,,,80,112
94677,note_on,37,0,0,,,,,,,,,0,,,80,0
94677,note_on,37,0,1,,,,,,,,,0,,,64,0
94680,note_on,3,0,1,,,,,,,,,0,,,63,112
94680,note_on,3,0,0,,,,,,,,,0,,,81,112
94717,note_on,37,0,0,,,,,,,,,0,,,81,0
94717,note_on,37,0,1,,,,,,,,,0,,,63,0
94720,note_on,3,0,1,,,,,,,,,0,,,62,112
94720,note_on,3,0,0,,,,,,,,,0,,,82,112
94757,note_on,37,0,1,,,,,,,,,0,,,62,0
94757,note_on,37,0,0,,,,,,,,,0,,,82,0
94760,note_on,3,0,1,,,,,,,,,0,,,61,112
94760,note_on,3,0,0,,,,,,,,,0,,,83,112
94797,note_on,37,0,0,,,,,,,,,0,,,83,0
94797,note_on,37,0,1,,,,,,,,,0,,,61,0
94800,note_on,3,0,0,,,,,,,,,0,,,84,112
94800,note_on,3,0,1,,,,,,,,,0,,,60,112
94837,note_on,37,0,0,,,,,,,,,0,,,84,0
94837,note_on,37,0,1,,,,,,,,,0,,,60,0
94840,note_on,3,0,0,,,,,,,,,0,,,85,112
94840,note_on,3,0,1,,,,,,,,,0,,,59,112
94877,note_on,37,0,0,,,,,,,,,0,,,85,0
94877,note_on,37,0,1,,,,,,,,,0,,,59,0
94880,note_on,3,0,0,,,,,,,,,0,,,86,112
94880,note_on,3,0,1,,,,,,,,,0,,,58,112
94917,note_on,37,0,1,,,,,,,,,0,,,58,0
94917,note_on,37,0,0,,,,,,,,,0,,,86,0
94920,note_on,3,0,0,,,,,,,,,0,,,87,112
94920,note_on,3,0,1,,,,,,,,,0,,,57,112
94957,note_on,37,0,1,,,,,,,,,0,,,57,0
94957,note_on,37,0,0,,,,,,,,,0,,,87,0
94960,note_on,3,0,1,,,,,,,,,0,,,56,112
94960,note_on,3,0,0,,,,,,,,,0,,,88,112
94997,note_on,37,0,0,,,,,,,,,0,,,88,0
94997,note_on,37,0,1,,,,,,,,,0,,,56,0
95000,note_on,3,0,0,,,,,,,,,0,,,89,112
95000,note_on,3,0,1,,,,,,,,,0,,,55,112
95037,note_on,37,0,1,,,,,,,,,0,,,55,0
95037,note_on,37,0,0,,,,,,,,,0,,,89,0
95040,note_on,3,0,0,,,,,,,,,0,,,90,112
95040,note_on,3,0,1,,,,,,,,,0,,,54,112
95077,note_on,37,0,1,,,,,,,,,0,,,54,0
95077,note_on,37,0,0,,,,,,,,,0,,,90,0
95080,note_on,3,0,1,,,,,,,,,0,,,53,112
95080,note_on,3,0,0,,,,,,,,,0,,,91,112
95117,note_on,37,0,0,,,,,,,,,0,,,91,0
95117,note_on,37,0,1,,,,,,,,,0,,,53,0
95120,note_on,3,0,1,,,,,,,,,0,,,52,112
95120,set_tempo,3,1,0,,,,,,1090909,,,,,,,
95120,note_on,0,0,0,,,,,,,,,0,,,92,112
95157,note_on,37,0,0,,,,,,,,,0,,,92,0
95157,note_on,37,0,1,,,,,,,,,0,,,52,0
95160,note_on,3,0,0,,,,,,,,,0,,,93,112
95160,note_on,3,0,1,,,,,,,,,0,,,51,112
95197,note_on,37,0,0,,,,,,,,,0,,,93,0
95197,note_on,37,0,1,,,,,,,,,0,,,51,0
95200,note_on,3,0,1,,,,,,,,,0,,,50,112
95200,note_on,3,0,0,,,,,,,,,0,,,94,112
95237,note_on,37,0,1,,,,,,,,,0,,,50,0
95237,note_on,37,0,0,,,,,,,,,0,,,94,0
95240,note_on,3,0,0,,,,,,,,,0,,,95,112
95240,note_on,3,0,1,,,,,,,,,0,,,49,112
95277,note_on,37,0,0,,,,,,,,,0,,,95,0
95277,note_on,37,0,1,,,,,,,,,0,,,49,0
95280,note_on,3,0,1,,,,,,,,,0,,,48,112
95280,note_on,3,0,0,,,,,,,,,0,,,96,112
95317,note_on,37,0,1,,,,,,,,,0,,,48,0
95317,note_on,37,0,0,,,,,,,,,0,,,96,0
95320,note_on,0,0,0,,,,,,,,,0,,,97,112
95320,set_tempo,3,1,0,,,,,,1200000,,,,,,,
95320,note_on,3,0,1,,,,,,,,,0,,,47,112
95357,note_on,37,0,1,,,,,,,,,0,,,47,0
95357,note_on,37,0,0,,,,,,,,,0,,,97,0
95360,note_on,3,0,1,,,,,,,,,0,,,46,112
95360,note_on,3,0,0,,,,,,,,,0,,,98,112
95397,note_on,37,0,0,,,,,,,,,0,,,98,0
95397,note_on,37,0,1,,,,,,,,,0,,,46,0
95400,note_on,3,0,1,,,,,,,,,0,,,45,112
95400,note_on,0,0,0,,,,,,,,,0,,,99,112
95400,set_tempo,3,1,0,,,,,,1499999,,,,,,,
95437,note_on,37,0,0,,,,,,,,,0,,,99,0
95437,note_on,37,0,1,,,,,,,,,0,,,45,0
95440,note_on,3,0,0,,,,,,,,,0,,,100,112
95440,note_on,3,0,1,,,,,,,,,0,,,44,112
95477,note_on,37,0,1,,,,,,,,,0,,,44,0
95477,note_on,37,0,0,,,,,,,,,0,,,100,0
95480,note_on,0,0,0,,,,,,,,,0,,,101,112
95480,set_tempo,3,1,0,,,,,,4000000,,,,,,,
95480,note_on,3,0,1,,,,,,,,,0,,,43,112
95517,note_on,37,0,1,,,,,,,,,0,,,43,0
95517,note_on,37,0,0,,,,,,,,,0,,,101,0
95520,note_on,3,0,1,,,,,,,,,0,,,42,112
95520,note_on,3,0,0,,,,,,,,,0,,,102,112
95522,control_change,2,0,1,,,,,,,64,127,0,,,,
95598,note_on,78,0,0,,,,,,,,,0,,,102,0
95598,note_on,76,0,1,,,,,,,,,0,,,42,0
95760,time_signature,162,1,0,6,8,24,8,,,,,,,,,
95760,set_tempo,0,1,0,,,,,,2249999,,,,,,,
95999,set_tempo,239,1,0,,,,,,1499999,,,,,,,
96000,note_on,402,0,1,,,,,,,,,0,,,30,112
96000,note_on,1,0,0,,,,,,,,,0,,,61,112
96000,note_on,0,0,0,,,,,,,,,0,,,66,112
96000,note_on,0,0,1,,,,,,,,,0,,,58,112
96000,note_on,0,0,1,,,,,,,,,0,,,54,112
96000,note_on,0,0,1,,,,,,,,,0,,,42,112
96001,control_change,1,0,1,,,,,,,64,0,0,,,,
96002,control_change,1,0,1,,,,,,,64,127,0,,,,
96227,note_on,0,0,1,,,,,,,,,0,,,58,0
96227,note_on,0,0,1,,,,,,,,,0,,,54,0
96227,note_on,0,0,1,,,,,,,,,0,,,42,0
96227,note_on,227,0,0,,,,,,,,,0,,,61,0
96227,note_on,0,0,0,,,,,,,,,0,,,66,0
96227,note_on,225,0,1,,,,,,,,,0,,,30,0
96240,note_on,0,0,1,,,,,,,,,0,,,54,112
96240,note_on,0,0,1,,,,,,,,,0,,,47,112
96240,note_on,0,0,0,,,,,,,,,0,,,59,112
96240,note_on,0,0,0,,,,,,,,,0,,,62,112
96240,set_tempo,13,1,0,,,,,,1200000,,,,,,,
96240,note_on,0,0,0,,,,,,,,,0,,,66,112
96240,note_on,13,0,1,,,,,,,,,0,,,35,112
96241,control_change,1,0,1,,,,,,,64,0,0,,,,
96242,control_change,1,0,1,,,,,,,64,127,0,,,,
96467,note_on,0,0,1,,,,,,,,,0,,,47,0
96467,note_on,0,0,0,,,,,,,,,0,,,66,0
96467,note_on,0,0,1,,,,,,,,,0,,,54,0
96467,note_on,0,0,0,,,,,,,,,0,,,62,0
96467,note_on,225,0,1,,,,,,,,,0,,,35,0
96467,note_on,227,0,0,,,,,,,,,0,,,59,0
96480,note_on,0,0,1,,,,,,,,,0,,,54,112
96480,set_tempo,13,1,0,,,,,,1333333,,,,,,,
96480,note_on,13,0,1,,,,,,,,,0,,,36,112
96480,note_on,0,0,0,,,,,,,,,0,,,64,112
96480,note_on,0,0,0,,,,,,,,,0,,,66,112
96480,note_on,0,0,0,,,,,,,,,0,,,58,112
96480,note_on,0,0,1,,,,,,,,,0,,,48,112
96481,control_change,1,0,1,,,,,,,64,0,0,,,,
96482,control_change,1,0,1,,,,,,,64,127,0,,,,
96707,note_on,0,0,0,,,,,,,,,0,,,66,0
96707,note_on,0,0,1,,,,,,,,,0,,,54,0
96707,note_on,225,0,1,,,,,,,,,0,,,36,0
96707,note_on,227,0,0,,,,,,,,,0,,,58,0
96707,note_on,0,0,0,,,,,,,,,0,,,64,0
96707,note_on,0,0,1,,,,,,,,,0,,,48,0
96720,note_on,0,0,0,,,,,,,,,0,,,63,110
96720,set_tempo,13,1,0,,,,,,1499999,,,,,,,
96720,note_on,13,0,1,,,,,,,,,0,,,29,110
96720,note_on,0,0,1,,,,,,,,,0,,,41,110
96720,note_on,0,0,1,,,,,,,,,0,,,54,110
96720,note_on,0,0,0,,,,,,,,,0,,,66,110
96720,note_on,0,0,1,,,,,,,,,0,,,57,110
96721,control_change,1,0,1,,,,,,,64,0,0,,,,
96722,control_change,2,0,0,,,,,,,64,127,0,,,,
97118,note_on,0,0,0,,,,,,,,,0,,,66,0
97118,note_on,397,0,1,,,,,,,,,0,,,54,0
97118,note_on,396,0,0,,,,,,,,,0,,,63,0
97118,note_on,0,0,1,,,,,,,,,0,,,57,0
97140,note_on,22,0,0,,,,,,,,,0,,,66,105
97140,note_on,22,0,1,,,,,,,,,0,,,54,105
97141,control_change,1,0,0,,,,,,,64,0,0,,,,
97175,note_on,0,0,1,,,,,,,,,0,,,41,0
97175,note_on,35,0,1,,,,,,,,,0,,,29,0
97196,note_on,55,0,0,,,,,,,,,0,,,66,0
97196,note_on,21,0,1,,,,,,,,,0,,,54,0
97200,note_on,0,0,0,,,,,,,,,0,,,65,104
97200,note_on,4,0,0,,,,,,,,,0,,,61,104
97200,note_on,0,0,1,,,,,,,,,0,,,46,104
97200,note_on,0,0,1,,,,,,,,,0,,,58,104
97200,note_on,0,0,1,,,,,,,,,0,,,53,104
97200,note_on,4,0,1,,,,,,,,,0,,,34,104
97202,control_change,2,0,1,,,,,,,64,127,0,,,,
97238,note_on,0,0,1,,,,,,,,,0,,,58,0
97238,note_on,36,0,1,,,,,,,,,0,,,53,0
97238,note_on,0,0,0,,,,,,,,,0,,,65,0
97238,note_on,38,0,0,,,,,,,,,0,,,61,0
97313,note_on,75,0,1,,,,,,,,,0,,,34,0
97313,note_on,0,0,1,,,,,,,,,0,,,46,0
97440,set_tempo,202,1,0,,,,,,1200000,,,,,,,
97440,note_on,0,0,0,,,,,,,,,0,,,73,112
97440,note_on,0,0,0,,,,,,,,,0,,,61,112
97440,note_on,0,0,0,,,,,,,,,0,,,61,96
97440,note_on,0,0,0,,,,,,,,,0,,,61,0
97440,note_on,127,0,1,,,,,,,,,0,,,49,96
97440,note_on,0,0,1,,,,,,,,,0,,,49,0
97440,note_on,0,0,1,,,,,,,,,0,,,49,112
97488,note_on,48,0,1,,,,,,,,,0,,,53,96
97488,note_on,48,0,0,,,,,,,,,0,,,65,96
97532,note_on,44,0,1,,,,,,,,,0,,,53,0
97532,note_on,44,0,0,,,,,,,,,0,,,65,0
97536,note_on,4,0,1,,,,,,,,,0,,,58,96
97536,note_on,4,0,0,,,,,,,,,0,,,70,96
97580,note_on,44,0,1,,,,,,,,,0,,,58,0
97580,note_on,44,0,0,,,,,,,,,0,,,70,0
97584,note_on,4,0,1,,,,,,,,,0,,,53,96
97584,note_on,4,0,0,,,,,,,,,0,,,65,96
97628,note_on,44,0,1,,,,,,,,,0,,,53,0
97628,note_on,44,0,0,,,,,,,,,0,,,65,0
97632,note_on,4,0,1,,,,,,,,,0,,,58,96
97632,note_on,4,0,0,,,,,,,,,0,,,70,96
97676,note_on,44,0,0,,,,,,,,,0,,,70,0
97676,note_on,44,0,1,,,,,,,,,0,,,58,0
97679,note_on,3,0,1,,,,,,,,,0,,,49,0
97679,note_on,3,0,0,,,,,,,,,0,,,61,0
97679,note_on,0,0,0,,,,,,,,,0,,,73,0
97680,note_on,0,0,0,,,,,,,,,0,,,72,112
97680,note_on,0,0,0,,,,,,,,,0,,,60,0
97680,note_on,0,0,1,,,,,,,,,0,,,48,112
97680,note_on,0,0,0,,,,,,,,,0,,,60,112
97680,note_on,1,0,0,,,,,,,,,0,,,60,96
97680,note_on,0,0,1,,,,,,,,,0,,,48,0
97680,note_on,1,0,1,,,,,,,,,0,,,48,96
97728,note_on,48,0,1,,,,,,,,,0,,,49,96
97728,note_on,48,0,0,,,,,,,,,0,,,61,96
97772,note_on,44,0,0,,,,,,,,,0,,,61,0
97772,note_on,44,0,1,,,,,,,,,0,,,49,0
97776,note_on,4,0,1,,,,,,,,,0,,,53,96
97776,note_on,4,0,0,,,,,,,,,0,,,65,96
97820,note_on,44,0,1,,,,,,,,,0,,,53,0
97820,note_on,44,0,0,,,,,,,,,0,,,65,0
97824,note_on,4,0,1,,,,,,,,,0,,,49,96
97824,note_on,4,0,0,,,,,,,,,0,,,61,96
97868,note_on,44,0,0,,,,,,,,,0,,,61,0
97868,note_on,44,0,1,,,,,,,,,0,,,49,0
97872,note_on,4,0,1,,,,,,,,,0,,,53,96
97872,note_on,4,0,0,,,,,,,,,0,,,65,96
97916,note_on,44,0,0,,,,,,,,,0,,,65,0
97916,note_on,44,0,1,,,,,,,,,0,,,53,0
97919,note_on,0,0,0,,,,,,,,,0,,,72,0
97919,note_on,3,0,0,,,,,,,,,0,,,60,0
97919,note_on,3,0,1,,,,,,,,,0,,,48,0
97920,note_on,0,0,1,,,,,,,,,0,,,46,112
97920,note_on,0,0,0,,,,,,,,,0,,,58,0
97920,note_on,0,0,1,,,,,,,,,0,,,46,0
97920,note_on,0,0,0,,,,,,,,,0,,,58,112
97920,note_on,1,0,0,,,,,,,,,0,,,58,96
97920,note_on,1,0,1,,,,,,,,,0,,,46,96
97920,note_on,0,0,0,,,,,,,,,0,,,70,112
97921,control_change,1,0,1,,,,,,,64,0,0,,,,
97922,control_change,1,0,1,,,,,,,64,127,0,,,,
97968,note_on,48,0,0,,,,,,,,,0,,,61,96
97968,note_on,46,0,1,,,,,,,,,0,,,49,96
98012,note_on,44,0,1,,,,,,,,,0,,,49,0
98012,note_on,44,0,0,,,,,,,,,0,,,61,0
98016,note_on,4,0,0,,,,,,,,,0,,,65,96
98016,note_on,4,0,1,,,,,,,,,0,,,53,96
98060,note_on,44,0,1,,,,,,,,,0,,,53,0
98060,note_on,44,0,0,,,,,,,,,0,,,65,0
98064,note_on,4,0,0,,,,,,,,,0,,,61,96
98064,note_on,4,0,1,,,,,,,,,0,,,49,96
98108,note_on,44,0,1,,,,,,,,,0,,,49,0
98108,note_on,44,0,0,,,,,,,,,0,,,61,0
98112,note_on,4,0,0,,,,,,,,,0,,,65,96
98112,note_on,4,0,1,,,,,,,,,0,,,53,96
98156,note_on,44,0,1,,,,,,,,,0,,,53,0
98156,note_on,44,0,0,,,,,,,,,0,,,65,0
98159,note_on,3,0,0,,,,,,,,,0,,,58,0
98159,note_on,0,0,0,,,,,,,,,0,,,70,0
98159,note_on,3,0,1,,,,,,,,,0,,,46,0
98160,note_on,0,0,0,,,,,,,,,0,,,57,112
98160,note_on,1,0,1,,,,,,,,,0,,,45,96
98160,note_on,0,0,0,,,,,,,,,0,,,57,0
98160,note_on,1,0,0,,,,,,,,,0,,,57,96
98160,note_on,0,0,0,,,,,,,,,0,,,69,112
98160,note_on,0,0,1,,,,,,,,,0,,,45,0
98160,note_on,0,0,1,,,,,,,,,0,,,45,112
98208,note_on,48,0,1,,,,,,,,,0,,,49,96
98208,note_on,48,0,0,,,,,,,,,0,,,61,96
98252,note_on,44,0,1,,,,,,,,,0,,,49,0
98252,note_on,44,0,0,,,,,,,,,0,,,61,0
98256,note_on,4,0,1,,,,,,,,,0,,,53,96
98256,note_on,4,0,0,,,,,,,,,0,,,65,96
98300,note_on,44,0,1,,,,,,,,,0,,,53,0
98300,note_on,44,0,0,,,,,,,,,0,,,65,0
98304,note_on,4,0,0,,,,,,,,,0,,,61,96
98304,note_on,4,0,1,,,,,,,,,0,,,49,96
98348,note_on,44,0,0,,,,,,,,,0,,,61,0
98348,note_on,44,0,1,,,,,,,,,0,,,49,0
98352,note_on,4,0,0,,,,,,,,,0,,,65,96
98352,note_on,4,0,1,,,,,,,,,0,,,53,96
98396,note_on,44,0,0,,,,,,,,,0,,,65,0
98396,note_on,44,0,1,,,,,,,,,0,,,53,0
98399,note_on,0,0,0,,,,,,,,,0,,,69,0
98399,note_on,3,0,1,,,,,,,,,0,,,45,0
98399,note_on,3,0,0,,,,,,,,,0,,,57,0
98400,note_on,0,0,1,,,,,,,,,0,,,46,112
98400,note_on,0,0,1,,,,,,,,,0,,,46,0
98400,note_on,1,0,0,,,,,,,,,0,,,58,96
98400,note_on,1,0,1,,,,,,,,,0,,,46,96
98400,note_on,0,0,0,,,,,,,,,0,,,58,0
98400,note_on,0,0,0,,,,,,,,,0,,,58,112
98400,note_on,0,0,0,,,,,,,,,0,,,70,112
98401,control_change,1,0,1,,,,,,,64,0,0,,,,
98402,control_change,1,0,1,,,,,,,64,127,0,,,,
98448,note_on,48,0,0,,,,,,,,,0,,,61,96
98448,note_on,46,0,1,,,,,,,,,0,,,49,96
98492,note_on,44,0,1,,,,,,,,,0,,,49,0
98492,note_on,44,0,0,,,,,,,,,0,,,61,0
98496,note_on,4,0,1,,,,,,,,,0,,,53,96
98496,note_on,4,0,0,,,,,,,,,0,,,65,96
98540,note_on,44,0,1,,,,,,,,,0,,,53,0
98540,note_on,44,0,0,,,,,,,,,0,,,65,0
98544,note_on,4,0,1,,,,,,,,,0,,,49,96
98544,note_on,4,0,0,,,,,,,,,0,,,61,96
98588,note_on,44,0,0,,,,,,,,,0,,,61,0
98588,note_on,44,0,1,,,,,,,,,0,,,49,0
98592,note_on,4,0,0,,,,,,,,,0,,,65,96
98592,note_on,4,0,1,,,,,,,,,0,,,53,96
98600,note_on,0,0,0,,,,,,,,,0,,,85,112
98600,note_on,8,0,0,,,,,,,,,0,,,73,112
98636,note_on,44,0,1,,,,,,,,,0,,,53,0
98636,note_on,36,0,0,,,,,,,,,0,,,65,0
98637,note_on,0,0,0,,,,,,,,,0,,,85,0
98637,note_on,1,0,0,,,,,,,,,0,,,73,0
98639,note_on,2,0,0,,,,,,,,,0,,,58,0
98639,note_on,0,0,0,,,,,,,,,0,,,70,0
98639,note_on,3,0,1,,,,,,,,,0,,,46,0
98640,note_on,0,0,0,,,,,,,,,0,,,73,127
98640,note_on,0,0,0,,,,,,,,,0,,,85,127
98640,note_on,0,0,0,,,,,,,,,0,,,78,127
98640,note_on,0,0,1,,,,,,,,,0,,,51,112
98640,set_tempo,1,1,0,,,,,,1499999,,,,,,,
98640,note_on,1,0,1,,,,,,,,,0,,,39,112
98641,control_change,1,0,1,,,,,,,64,0,0,,,,
98642,control_change,1,0,1,,,,,,,64,127,0,,,,
98700,note_on,58,0,1,,,,,,,,,0,,,54,96
98700,note_on,0,0,1,,,,,,,,,0,,,63,96
98700,note_on,0,0,1,,,,,,,,,0,,,58,96
98718,note_on,18,0,1,,,,,,,,,0,,,39,0
98718,note_on,0,0,1,,,,,,,,,0,,,51,0
98736,note_on,18,0,1,,,,,,,,,0,,,54,0
98736,note_on,0,0,1,,,,,,,,,0,,,58,0
98736,note_on,0,0,1,,,,,,,,,0,,,63,0
98739,note_on,3,0,1,,,,,,,,,0,,,66,96
98775,note_on,36,0,1,,,,,,,,,0,,,66,0
98779,note_on,0,0,1,,,,,,,,,0,,,63,96
98779,note_on,0,0,1,,,,,,,,,0,,,58,96
98779,note_on,4,0,1,,,,,,,,,0,,,54,96
98815,note_on,0,0,1,,,,,,,,,0,,,58,0
98815,note_on,36,0,1,,,,,,,,,0,,,54,0
98815,note_on,0,0,1,,,,,,,,,0,,,63,0
98819,note_on,4,0,1,,,,,,,,,0,,,66,96
98855,note_on,36,0,1,,,,,,,,,0,,,66,0
98859,note_on,4,0,1,,,,,,,,,0,,,54,96
98859,note_on,0,0,1,,,,,,,,,0,,,58,96
98859,note_on,0,0,1,,,,,,,,,0,,,63,96
98879,note_on,239,0,0,,,,,,,,,0,,,73,0
98879,note_on,0,0,0,,,,,,,,,0,,,78,0
98879,note_on,0,0,0,,,,,,,,,0,,,85,0
98880,note_on,0,0,0,,,,,,,,,0,,,84,112
98880,set_tempo,1,1,0,,,,,,1200000,,,,,,,
98880,note_on,0,0,0,,,,,,,,,0,,,72,112
98895,note_on,36,0,1,,,,,,,,,0,,,54,0
98895,note_on,0,0,1,,,,,,,,,0,,,58,0
98895,note_on,0,0,1,,,,,,,,,0,,,63,0
98899,note_on,4,0,1,,,,,,,,,0,,,66,96
98935,note_on,36,0,1,,,,,,,,,0,,,66,0
98939,note_on,4,0,1,,,,,,,,,0,,,54,96
98939,note_on,0,0,1,,,,,,,,,0,,,63,96
98939,note_on,0,0,1,,,,,,,,,0,,,58,96
98975,note_on,0,0,1,,,,,,,,,0,,,58,0
98975,note_on,0,0,1,,,,,,,,,0,,,63,0
98975,note_on,36,0,1,,,,,,,,,0,,,54,0
98978,note_on,3,0,1,,,,,,,,,0,,,66,96
99014,note_on,36,0,1,,,,,,,,,0,,,66,0
99018,note_on,0,0,1,,,,,,,,,0,,,58,96
99018,note_on,0,0,1,,,,,,,,,0,,,63,96
99018,note_on,4,0,1,,,,,,,,,0,,,54,96
99054,note_on,0,0,1,,,,,,,,,0,,,63,0
99054,note_on,0,0,1,,,,,,,,,0,,,58,0
99054,note_on,36,0,1,,,,,,,,,0,,,54,0
99058,note_on,4,0,1,,,,,,,,,0,,,66,96
99094,note_on,36,0,1,,,,,,,,,0,,,66,0
99098,note_on,0,0,1,,,,,,,,,0,,,58,96
99098,note_on,0,0,1,,,,,,,,,0,,,63,96
99098,note_on,4,0,1,,,,,,,,,0,,,54,96
99107,note_on,227,0,0,,,,,,,,,0,,,72,0
99107,note_on,0,0,0,,,,,,,,,0,,,84,0
99120,note_on,13,0,0,,,,,,,,,0,,,70,112
99120,note_on,0,0,0,,,,,,,,,0,,,82,112
99134,note_on,0,0,1,,,,,,,,,0,,,63,0
99134,note_on,0,0,1,,,,,,,,,0,,,58,0
99134,note_on,36,0,1,,,,,,,,,0,,,54,0
99138,note_on,4,0,1,,,,,,,,,0,,,66,96
99174,note_on,36,0,1,,,,,,,,,0,,,66,0
99347,note_on,227,0,0,,,,,,,,,0,,,70,0
99347,note_on,0,0,0,,,,,,,,,0,,,82,0
99360,note_on,0,0,0,,,,,,,,,0,,,85,127
99360,note_on,0,0,0,,,,,,,,,0,,,75,127
99360,note_on,0,0,1,,,,,,,,,0,,,54,112
99360,note_on,186,0,1,,,,,,,,,0,,,42,112
99360,note_on,13,0,0,,,,,,,,,0,,,73,127
99361,control_change,1,0,1,,,,,,,64,0,0,,,,
99362,control_change,1,0,1,,,,,,,64,127,0,,,,
99420,note_on,0,0,1,,,,,,,,,0,,,63,96
99420,note_on,58,0,1,,,,,,,,,0,,,54,0
99420,note_on,0,0,1,,,,,,,,,0,,,54,96
99420,note_on,0,0,1,,,,,,,,,0,,,58,96
99438,note_on,18,0,1,,,,,,,,,0,,,42,0
99456,note_on,18,0,1,,,,,,,,,0,,,54,0
99456,note_on,0,0,1,,,,,,,,,0,,,63,0
99456,note_on,0,0,1,,,,,,,,,0,,,58,0
99459,note_on,3,0,1,,,,,,,,,0,,,66,96
99495,note_on,36,0,1,,,,,,,,,0,,,66,0
99499,note_on,0,0,1,,,,,,,,,0,,,63,96
99499,note_on,0,0,1,,,,,,,,,0,,,58,96
99499,note_on,4,0,1,,,,,,,,,0,,,54,96
99535,note_on,36,0,1,,,,,,,,,0,,,54,0
99535,note_on,0,0,1,,,,,,,,,0,,,58,0
99535,note_on,0,0,1,,,,,,,,,0,,,63,0
99539,note_on,4,0,1,,,,,,,,,0,,,66,96
99575,note_on,36,0,1,,,,,,,,,0,,,66,0
99579,note_on,4,0,1,,,,,,,,,0,,,54,96
99579,note_on,0,0,1,,,,,,,,,0,,,63,96
99579,note_on,0,0,1,,,,,,,,,0,,,58,96
99599,note_on,239,0,0,,,,,,,,,0,,,73,0
99599,note_on,0,0,0,,,,,,,,,0,,,85,0
99599,note_on,0,0,0,,,,,,,,,0,,,75,0
99600,note_on,1,0,0,,,,,,,,,0,,,72,112
99600,note_on,0,0,0,,,,,,,,,0,,,84,112
99615,note_on,36,0,1,,,,,,,,,0,,,54,0
99615,note_on,0,0,1,,,,,,,,,0,,,63,0
99615,note_on,0,0,1,,,,,,,,,0,,,58,0
99619,note_on,4,0,1,,,,,,,,,0,,,66,96
99655,note_on,36,0,1,,,,,,,,,0,,,66,0
99659,note_on,4,0,1,,,,,,,,,0,,,54,96
99659,note_on,0,0,1,,,,,,,,,0,,,63,96
99659,note_on,0,0,1,,,,,,,,,0,,,58,96
99695,note_on,0,0,1,,,,,,,,,0,,,63,0
99695,note_on,0,0,1,,,,,,,,,0,,,58,0
99695,note_on,36,0,1,,,,,,,,,0,,,54,0
99698,note_on,3,0,1,,,,,,,,,0,,,66,96
99734,note_on,36,0,1,,,,,,,,,0,,,66,0
99738,note_on,0,0,1,,,,,,,,,0,,,63,96
99738,note_on,4,0,1,,,,,,,,,0,,,54,96
99738,note_on,0,0,1,,,,,,,,,0,,,58,96
99774,note_on,0,0,1,,,,,,,,,0,,,63,0
99774,note_on,36,0,1,,,,,,,,,0,,,54,0
99774,note_on,0,0,1,,,,,,,,,0,,,58,0
99778,note_on,4,0,1,,,,,,,,,0,,,66,96
99814,note_on,36,0,1,,,,,,,,,0,,,66,0
99818,note_on,4,0,1,,,,,,,,,0,,,54,96
99818,note_on,0,0,1,,,,,,,,,0,,,58,96
99818,note_on,0,0,1,,,,,,,,,0,,,63,96
99827,note_on,227,0,0,,,,,,,,,0,,,72,0
99827,note_on,0,0,0,,,,,,,,,0,,,84,0
99840,note_on,13,0,0,,,,,,,,,0,,,70,112
99840,note_on,0,0,0,,,,,,,,,0,,,82,112
99854,note_on,36,0,1,,,,,,,,,0,,,54,0
99854,note_on,0,0,1,,,,,,,,,0,,,58,0
99854,note_on,0,0,1,,,,,,,,,0,,,63,0
99858,note_on,4,0,1,,,,,,,,,0,,,66,96
99894,note_on,36,0,1,,,,,,,,,0,,,66,0
100067,note_on,227,0,0,,,,,,,,,0,,,70,0
100067,note_on,0,0,0,,,,,,,,,0,,,82,0
100080,note_on,186,0,1,,,,,,,,,0,,,46,112
100080,note_on,0,0,0,,,,,,,,,0,,,89,112
100080,note_on,13,0,0,,,,,,,,,0,,,77,112
100080,note_on,0,0,1,,,,,,,,,0,,,53,112
100080,note_on,0,0,1,,,,,,,,,0,,,61,112
100080,note_on,0,0,0,,,,,,,,,0,,,82,112
100081,control_change,1,0,1,,,,,,,64,0,0,,,,
100082,control_change,1,0,1,,,,,,,64,127,0,,,,
100158,note_on,0,0,1,,,,,,,,,0,,,61,0
100158,note_on,76,0,1,,,,,,,,,0,,,46,0
100158,note_on,0,0,0,,,,,,,,,0,,,82,0
100158,note_on,0,0,0,,,,,,,,,0,,,89,0
100158,note_on,78,0,0,,,,,,,,,0,,,77,0
100158,note_on,0,0,1,,,,,,,,,0,,,53,0
100320,note_on,0,0,0,,,,,,,,,0,,,54,0
100320,note_on,0,0,0,,,,,,,,,0,,,54,112
100320,note_on,0,0,0,,,,,,,,,0,,,66,112
100320,note_on,0,0,1,,,,,,,,,0,,,42,112
100320,note_on,0,0,1,,,,,,,,,0,,,42,0
100320,note_on,162,0,1,,,,,,,,,0,,,42,96
100320,note_on,162,0,0,,,,,,,,,0,,,54,96
100321,control_change,1,0,1,,,,,,,64,0,0,,,,
100322,control_change,1,0,1,,,,,,,64,127,0,,,,
100368,note_on,46,0,1,,,,,,,,,0,,,46,96
100368,note_on,48,0,0,,,,,,,,,0,,,58,96
100412,note_on,44,0,0,,,,,,,,,0,,,58,0
100412,note_on,44,0,1,,,,,,,,,0,,,46,0
100416,note_on,4,0,1,,,,,,,,,0,,,49,96
100416,note_on,4,0,0,,,,,,,,,0,,,61,96
100460,note_on,44,0,1,,,,,,,,,0,,,49,0
100460,note_on,44,0,0,,,,,,,,,0,,,61,0
100464,note_on,4,0,1,,,,,,,,,0,,,46,96
100464,note_on,4,0,0,,,,,,,,,0,,,58,96
100508,note_on,44,0,1,,,,,,,,,0,,,46,0
100508,note_on,44,0,0,,,,,,,,,0,,,58,0
100512,note_on,4,0,1,,,,,,,,,0,,,49,96
100512,note_on,4,0,0,,,,,,,,,0,,,61,96
100556,note_on,44,0,0,,,,,,,,,0,,,61,0
100556,note_on,44,0,1,,,,,,,,,0,,,49,0
100559,note_on,0,0,0,,,,,,,,,0,,,66,0
100559,note_on,3,0,0,,,,,,,,,0,,,54,0
100559,note_on,3,0,1,,,,,,,,,0,,,42,0
100560,note_on,0,0,0,,,,,,,,,0,,,53,112
100560,note_on,0,0,0,,,,,,,,,0,,,65,112
100560,note_on,1,0,0,,,,,,,,,0,,,53,96
100560,note_on,1,0,1,,,,,,,,,0,,,41,96
100560,note_on,0,0,1,,,,,,,,,0,,,41,112
100560,note_on,0,0,1,,,,,,,,,0,,,41,0
100560,note_on,0,0,0,,,,,,,,,0,,,53,0
100561,control_change,1,0,1,,,,,,,64,0,0,,,,
100562,control_change,1,0,1,,,,,,,64,127,0,,,,
100608,note_on,46,0,1,,,,,,,,,0,,,46,96
100608,note_on,48,0,0,,,,,,,,,0,,,58,96
100652,note_on,44,0,1,,,,,,,,,0,,,46,0
100652,note_on,44,0,0,,,,,,,,,0,,,58,0
100656,note_on,4,0,0,,,,,,,,,0,,,61,96
100656,note_on,4,0,1,,,,,,,,,0,,,49,96
100700,note_on,44,0,1,,,,,,,,,0,,,49,0
100700,note_on,44,0,0,,,,,,,,,0,,,61,0
100704,note_on,4,0,0,,,,,,,,,0,,,58,96
100704,note_on,4,0,1,,,,,,,,,0,,,46,96
100748,note_on,44,0,0,,,,,,,,,0,,,58,0
100748,note_on,44,0,1,,,,,,,,,0,,,46,0
100752,note_on,4,0,1,,,,,,,,,0,,,49,96
100752,note_on,4,0,0,,,,,,,,,0,,,61,96
100796,note_on,44,0,1,,,,,,,,,0,,,49,0
100796,note_on,44,0,0,,,,,,,,,0,,,61,0
100799,note_on,3,0,0,,,,,,,,,0,,,53,0
100799,note_on,3,0,1,,,,,,,,,0,,,41,0
100799,note_on,0,0,0,,,,,,,,,0,,,65,0
100800,note_on,0,0,1,,,,,,,,,0,,,40,112
100800,note_on,0,0,0,,,,,,,,,0,,,52,112
100800,note_on,0,0,0,,,,,,,,,0,,,64,112
100800,note_on,1,0,1,,,,,,,,,0,,,40,96
100800,note_on,0,0,1,,,,,,,,,0,,,40,0
100800,set_tempo,1,1,0,,,,,,1090909,,,,,,,
100800,note_on,0,0,0,,,,,,,,,0,,,52,0
100800,note_on,0,0,0,,,,,,,,,0,,,52,96
100801,control_change,1,0,1,,,,,,,64,0,0,,,,
100802,control_change,1,0,1,,,,,,,64,127,0,,,,
100848,note_on,46,0,1,,,,,,,,,0,,,46,96
100848,note_on,48,0,0,,,,,,,,,0,,,58,96
100892,note_on,44,0,0,,,,,,,,,0,,,58,0
100892,note_on,44,0,1,,,,,,,,,0,,,46,0
100896,note_on,4,0,0,,,,,,,,,0,,,61,96
100896,note_on,4,0,1,,,,,,,,,0,,,49,96
100940,note_on,44,0,0,,,,,,,,,0,,,61,0
100940,note_on,44,0,1,,,,,,,,,0,,,49,0
100944,note_on,4,0,1,,,,,,,,,0,,,46,96
100944,note_on,4,0,0,,,,,,,,,0,,,58,96
100988,note_on,44,0,0,,,,,,,,,0,,,58,0
100988,note_on,44,0,1,,,,,,,,,0,,,46,0
100992,note_on,4,0,1,,,,,,,,,0,,,49,96
100992,note_on,4,0,0,,,,,,,,,0,,,61,96
101036,note_on,44,0,1,,,,,,,,,0,,,49,0
101036,note_on,44,0,0,,,,,,,,,0,,,61,0
101039,note_on,3,0,1,,,,,,,,,0,,,40,0
101039,note_on,3,0,0,,,,,,,,,0,,,52,0
101039,note_on,0,0,0,,,,,,,,,0,,,64,0
101040,note_on,1,0,0,,,,,,,,,0,,,53,96
101040,note_on,1,0,1,,,,,,,,,0,,,41,96
101040,note_on,0,0,0,,,,,,,,,0,,,65,112
101040,note_on,0,0,1,,,,,,,,,0,,,41,112
101040,note_on,0,0,1,,,,,,,,,0,,,41,0
101040,note_on,0,0,0,,,,,,,,,0,,,53,112
101040,note_on,0,0,0,,,,,,,,,0,,,53,0
101088,note_on,48,0,0,,,,,,,,,0,,,58,96
101088,note_on,48,0,1,,,,,,,,,0,,,46,96
101132,note_on,44,0,1,,,,,,,,,0,,,46,0
101132,note_on,44,0,0,,,,,,,,,0,,,58,0
101136,note_on,4,0,1,,,,,,,,,0,,,49,96
101136,note_on,4,0,0,,,,,,,,,0,,,61,96
101180,note_on,44,0,1,,,,,,,,,0,,,49,0
101180,note_on,44,0,0,,,,,,,,,0,,,61,0
101184,note_on,4,0,1,,,,,,,,,0,,,46,96
101184,note_on,4,0,0,,,,,,,,,0,,,58,96
101228,note_on,44,0,1,,,,,,,,,0,,,46,0
101228,note_on,44,0,0,,,,,,,,,0,,,58,0
101232,note_on,4,0,0,,,,,,,,,0,,,61,96
101232,note_on,4,0,1,,,,,,,,,0,,,49,96
101276,note_on,44,0,1,,,,,,,,,0,,,49,0
101276,note_on,44,0,0,,,,,,,,,0,,,61,0
101279,note_on,3,0,1,,,,,,,,,0,,,41,0
101279,note_on,3,0,0,,,,,,,,,0,,,53,0
101279,note_on,0,0,0,,,,,,,,,0,,,65,0
101280,note_on,0,0,0,,,,,,,,,0,,,49,112
101280,note_on,0,0,0,,,,,,,,,0,,,49,0
101280,note_on,0,0,0,,,,,,,,,0,,,61,112
101280,note_on,0,0,1,,,,,,,,,0,,,37,112
101280,note_on,0,0,1,,,,,,,,,0,,,37,0
101280,note_on,1,0,1,,,,,,,,,0,,,37,96
101280,note_on,1,0,0,,,,,,,,,0,,,49,96
101281,control_change,1,0,1,,,,,,,64,0,0,,,,
101282,control_change,1,0,1,,,,,,,64,127,0,,,,
101328,note_on,46,0,1,,,,,,,,,0,,,41,96
101328,note_on,48,0,0,,,,,,,,,0,,,53,96
101372,note_on,44,0,0,,,,,,,,,0,,,53,0
101372,note_on,44,0,1,,,,,,,,,0,,,41,0
101376,note_on,4,0,1,,,,,,,,,0,,,46,96
101376,note_on,4,0,0,,,,,,,,,0,,,58,96
101420,note_on,44,0,0,,,,,,,,,0,,,58,0
101420,note_on,44,0,1,,,,,,,,,0,,,46,0
101424,note_on,0,0,0,,,,,,,,,0,,,53,96
101424,set_tempo,4,1,0,,,,,,1200000,,,,,,,
101424,note_on,4,0,1,,,,,,,,,0,,,41,96
101468,note_on,44,0,0,,,,,,,,,0,,,53,0
101468,note_on,44,0,1,,,,,,,,,0,,,41,0
101472,note_on,4,0,1,,,,,,,,,0,,,46,96
101472,note_on,4,0,0,,,,,,,,,0,,,58,96
101480,set_tempo,8,1,0,,,,,,2000000,,,,,,,
101480,note_on,0,0,0,,,,,,,,,0,,,85,96
101480,note_on,0,0,0,,,,,,,,,0,,,73,96
101516,note_on,44,0,1,,,,,,,,,0,,,46,0
101516,note_on,36,0,0,,,,,,,,,0,,,58,0
101517,note_on,0,0,0,,,,,,,,,0,,,85,0
101517,note_on,1,0,0,,,,,,,,,0,,,73,0
101519,note_on,2,0,0,,,,,,,,,0,,,49,0
101519,note_on,0,0,0,,,,,,,,,0,,,61,0
101519,note_on,3,0,1,,,,,,,,,0,,,37,0
101520,note_on,1,0,1,,,,,,,,,0,,,34,112
101520,note_on,0,0,0,,,,,,,,,0,,,78,127
101520,set_tempo,1,1,0,,,,,,1499999,,,,,,,
101520,note_on,0,0,0,,,,,,,,,0,,,73,127
101520,note_on,0,0,0,,,,,,,,,0,,,85,127
101521,control_change,1,0,1,,,,,,,64,0,0,,,,
101522,control_change,1,0,1,,,,,,,64,127,0,,,,
101541,note_on,19,0,1,,,,,,,,,0,,,46,112
101580,note_on,0,0,1,,,,,,,,,0,,,58,96
101580,note_on,0,0,1,,,,,,,,,0,,,63,96
101580,note_on,39,0,1,,,,,,,,,0,,,54,96
101616,note_on,0,0,1,,,,,,,,,0,,,63,0
101616,note_on,36,0,1,,,,,,,,,0,,,54,0
101616,note_on,0,0,1,,,,,,,,,0,,,58,0
101619,note_on,3,0,1,,,,,,,,,0,,,66,96
101655,note_on,36,0,1,,,,,,,,,0,,,66,0
101659,note_on,0,0,1,,,,,,,,,0,,,63,96
101659,note_on,0,0,1,,,,,,,,,0,,,58,96
101659,note_on,4,0,1,,,,,,,,,0,,,54,96
101695,note_on,0,0,1,,,,,,,,,0,,,58,0
101695,note_on,0,0,1,,,,,,,,,0,,,63,0
101695,note_on,36,0,1,,,,,,,,,0,,,54,0
101699,note_on,4,0,1,,,,,,,,,0,,,66,96
101735,note_on,36,0,1,,,,,,,,,0,,,66,0
101739,note_on,4,0,1,,,,,,,,,0,,,54,96
101739,note_on,0,0,1,,,,,,,,,0,,,58,96
101739,note_on,0,0,1,,,,,,,,,0,,,63,96
101758,note_on,19,0,1,,,,,,,,,0,,,46,0
101759,note_on,0,0,0,,,,,,,,,0,,,85,0
101759,note_on,239,0,0,,,,,,,,,0,,,73,0
101759,note_on,0,0,0,,,,,,,,,0,,,78,0
101759,note_on,1,0,1,,,,,,,,,0,,,34,0
101760,note_on,0,0,0,,,,,,,,,0,,,84,112
101760,note_on,0,0,0,,,,,,,,,0,,,72,112
101760,set_tempo,1,1,0,,,,,,1200000,,,,,,,
101775,note_on,16,0,1,,,,,,,,,0,,,54,0
101775,note_on,0,0,1,,,,,,,,,0,,,63,0
101775,note_on,0,0,1,,,,,,,,,0,,,58,0
101779,note_on,4,0,1,,,,,,,,,0,,,66,96
101815,note_on,36,0,1,,,,,,,,,0,,,66,0
101819,note_on,0,0,1,,,,,,,,,0,,,58,96
101819,note_on,4,0,1,,,,,,,,,0,,,54,96
101819,note_on,0,0,1,,,,,,,,,0,,,63,96
101855,note_on,0,0,1,,,,,,,,,0,,,58,0
101855,note_on,0,0,1,,,,,,,,,0,,,63,0
101855,note_on,36,0,1,,,,,,,,,0,,,54,0
101858,note_on,3,0,1,,,,,,,,,0,,,66,96
101894,note_on,36,0,1,,,,,,,,,0,,,66,0
101898,note_on,0,0,1,,,,,,,,,0,,,63,96
101898,note_on,0,0,1,,,,,,,,,0,,,58,96
101898,note_on,4,0,1,,,,,,,,,0,,,54,96
101934,note_on,0,0,1,,,,,,,,,0,,,58,0
101934,note_on,0,0,1,,,,,,,,,0,,,63,0
101934,note_on,36,0,1,,,,,,,,,0,,,54,0
101938,note_on,4,0,1,,,,,,,,,0,,,66,96
101974,note_on,36,0,1,,,,,,,,,0,,,66,0
101978,note_on,0,0,1,,,,,,,,,0,,,63,96
101978,note_on,0,0,1,,,,,,,,,0,,,58,96
101978,note_on,4,0,1,,,,,,,,,0,,,54,96
101987,note_on,0,0,0,,,,,,,,,0,,,84,0
101987,note_on,227,0,0,,,,,,,,,0,,,72,0
102000,note_on,13,0,0,,,,,,,,,0,,,70,112
102000,note_on,0,0,0,,,,,,,,,0,,,82,112
102014,note_on,36,0,1,,,,,,,,,0,,,54,0
102014,note_on,0,0,1,,,,,,,,,0,,,58,0
102014,note_on,0,0,1,,,,,,,,,0,,,63,0
102018,note_on,4,0,1,,,,,,,,,0,,,66,96
102054,note_on,36,0,1,,,,,,,,,0,,,66,0
102227,note_on,227,0,0,,,,,,,,,0,,,70,0
102227,note_on,0,0,0,,,,,,,,,0,,,82,0
102240,note_on,0,0,0,,,,,,,,,0,,,85,127
102240,note_on,0,0,0,,,,,,,,,0,,,78,127
102240,note_on,0,0,1,,,,,,,,,0,,,51,112
102240,note_on,13,0,0,,,,,,,,,0,,,73,127
102240,note_on,186,0,1,,,,,,,,,0,,,39,112
102241,control_change,1,0,1,,,,,,,64,0,0,,,,
102242,control_change,1,0,1,,,,,,,64,127,0,,,,
102300,note_on,58,0,1,,,,,,,,,0,,,54,96
102300,note_on,0,0,1,,,,,,,,,0,,,57,96
102318,note_on,0,0,1,,,,,,,,,0,,,51,0
102318,note_on,18,0,1,,,,,,,,,0,,,39,0
102336,note_on,18,0,1,,,,,,,,,0,,,54,0
102336,note_on,0,0,1,,,,,,,,,0,,,57,0
102339,note_on,3,0,1,,,,,,,,,0,,,66,96
102375,note_on,36,0,1,,,,,,,,,0,,,66,0
102379,note_on,0,0,1,,,,,,,,,0,,,57,96
102379,note_on,4,0,1,,,,,,,,,0,,,54,96
102415,note_on,36,0,1,,,,,,,,,0,,,54,0
102415,note_on,0,0,1,,,,,,,,,0,,,57,0
102419,note_on,4,0,1,,,,,,,,,0,,,66,96
102455,note_on,36,0,1,,,,,,,,,0,,,66,0
102459,note_on,4,0,1,,,,,,,,,0,,,54,96
102459,note_on,0,0,1,,,,,,,,,0,,,57,96
102479,note_on,0,0,0,,,,,,,,,0,,,85,0
102479,note_on,0,0,0,,,,,,,,,0,,,78,0
102479,note_on,239,0,0,,,,,,,,,0,,,73,0
102480,note_on,1,0,0,,,,,,,,,0,,,71,112
102480,note_on,0,0,0,,,,,,,,,0,,,83,112
102495,note_on,0,0,1,,,,,,,,,0,,,57,0
102495,note_on,36,0,1,,,,,,,,,0,,,54,0
102499,note_on,4,0,1,,,,,,,,,0,,,66,96
102535,note_on,36,0,1,,,,,,,,,0,,,66,0
102539,note_on,4,0,1,,,,,,,,,0,,,54,96
102539,note_on,0,0,1,,,,,,,,,0,,,57,96
102575,note_on,36,0,1,,,,,,,,,0,,,54,0
102575,note_on,0,0,1,,,,,,,,,0,,,57,0
102578,note_on,3,0,1,,,,,,,,,0,,,66,96
102614,note_on,36,0,1,,,,,,,,,0,,,66,0
102618,note_on,4,0,1,,,,,,,,,0,,,54,96
102618,note_on,0,0,1,,,,,,,,,0,,,57,96
102654,note_on,0,0,1,,,,,,,,,0,,,57,0
102654,note_on,36,0,1,,,,,,,,,0,,,54,0
102658,note_on,4,0,1,,,,,,,,,0,,,66,96
102694,note_on,36,0,1,,,,,,,,,0,,,66,0
102698,note_on,4,0,1,,,,,,,,,0,,,54,96
102698,note_on,0,0,1,,,,,,,,,0,,,57,96
102707,note_on,0,0,0,,,,,,,,,0,,,83,0
102707,note_on,227,0,0,,,,,,,,,0,,,71,0
102720,note_on,0,0,0,,,,,,,,,0,,,82,112
102720,note_on,13,0,0,,,,,,,,,0,,,70,112
102734,note_on,36,0,1,,,,,,,,,0,,,54,0
102734,note_on,0,0,1,,,,,,,,,0,,,57,0
102738,note_on,4,0,1,,,,,,,,,0,,,66,96
102774,note_on,36,0,1,,,,,,,,,0,,,66,0
102947,note_on,227,0,0,,,,,,,,,0,,,70,0
102947,note_on,0,0,0,,,,,,,,,0,,,82,0
102960,note_on,186,0,1,,,,,,,,,0,,,46,112
102960,note_on,13,0,0,,,,,,,,,0,,,65,112
102961,control_change,1,0,1,,,,,,,64,0,0,,,,
102962,control_change,1,0,1,,,,,,,64,127,0,,,,
102971,note_on,9,0,1,,,,,,,,,0,,,53,112
102971,note_on,11,0,0,,,,,,,,,0,,,70,112
102983,note_on,12,0,0,,,,,,,,,0,,,77,112
102983,note_on,12,0,1,,,,,,,,,0,,,61,112
103078,note_on,0,0,1,,,,,,,,,0,,,61,0
103078,note_on,95,0,0,,,,,,,,,0,,,70,0
103078,note_on,95,0,1,,,,,,,,,0,,,53,0
103078,note_on,0,0,0,,,,,,,,,0,,,77,0
103079,note_on,1,0,1,,,,,,,,,0,,,46,0
103079,note_on,1,0,0,,,,,,,,,0,,,65,0
103200,note_on,0,0,1,,,,,,,,,0,,,49,112
103200,note_on,121,0,1,,,,,,,,,0,,,37,112
103200,note_on,121,0,0,,,,,,,,,0,,,61,96
103201,control_change,1,0,1,,,,,,,64,0,0,,,,
103202,control_change,1,0,1,,,,,,,64,127,0,,,,
103236,note_on,36,0,0,,,,,,,,,0,,,61,0
103239,note_on,3,0,0,,,,,,,,,0,,,65,96
103275,note_on,36,0,0,,,,,,,,,0,,,65,0
103279,note_on,4,0,0,,,,,,,,,0,,,61,96
103315,note_on,36,0,0,,,,,,,,,0,,,61,0
103319,note_on,4,0,0,,,,,,,,,0,,,65,96
103355,note_on,36,0,0,,,,,,,,,0,,,65,0
103359,note_on,4,0,0,,,,,,,,,0,,,61,96
103395,note_on,36,0,0,,,,,,,,,0,,,61,0
103399,note_on,4,0,0,,,,,,,,,0,,,65,96
103427,note_on,0,0,1,,,,,,,,,0,,,49,0
103427,note_on,225,0,1,,,,,,,,,0,,,37,0
103435,note_on,36,0,0,,,,,,,,,0,,,65,0
103439,note_on,4,0,0,,,,,,,,,0,,,61,96
103440,note_on,13,0,1,,,,,,,,,0,,,36,112
103440,note_on,0,0,1,,,,,,,,,0,,,48,112
103441,control_change,1,0,1,,,,,,,64,0,0,,,,
103442,control_change,1,0,1,,,,,,,64,127,0,,,,
103475,note_on,36,0,0,,,,,,,,,0,,,61,0
103478,note_on,3,0,0,,,,,,,,,0,,,65,96
103514,note_on,36,0,0,,,,,,,,,0,,,65,0
103518,note_on,4,0,0,,,,,,,,,0,,,61,96
103554,note_on,36,0,0,,,,,,,,,0,,,61,0
103558,note_on,4,0,0,,,,,,,,,0,,,65,96
103594,note_on,36,0,0,,,,,,,,,0,,,65,0
103598,note_on,4,0,0,,,,,,,,,0,,,61,96
103634,note_on,36,0,0,,,,,,,,,0,,,61,0
103638,note_on,4,0,0,,,,,,,,,0,,,65,96
103667,note_on,225,0,1,,,,,,,,,0,,,36,0
103667,note_on,0,0,1,,,,,,,,,0,,,48,0
103674,note_on,36,0,0,,,,,,,,,0,,,65,0
103678,note_on,4,0,0,,,,,,,,,0,,,61,96
103680,note_on,0,0,1,,,,,,,,,0,,,46,112
103680,note_on,13,0,1,,,,,,,,,0,,,34,112
103681,control_change,1,0,1,,,,,,,64,0,0,,,,
103682,control_change,1,0,1,,,,,,,64,127,0,,,,
103714,note_on,36,0,0,,,,,,,,,0,,,61,0
103717,note_on,3,0,0,,,,,,,,,0,,,65,96
103753,note_on,36,0,0,,,,,,,,,0,,,65,0
103757,note_on,4,0,0,,,,,,,,,0,,,61,96
103793,note_on,36,0,0,,,,,,,,,0,,,61,0
103797,note_on,4,0,0,,,,,,,,,0,,,65,96
103833,note_on,36,0,0,,,,,,,,,0,,,65,0
103837,note_on,4,0,0,,,,,,,,,0,,,61,96
103873,note_on,36,0,0,,,,,,,,,0,,,61,0
103877,note_on,4,0,0,,,,,,,,,0,,,65,96
103907,note_on,0,0,1,,,,,,,,,0,,,46,0
103907,note_on,225,0,1,,,,,,,,,0,,,34,0
103913,note_on,36,0,0,,,,,,,,,0,,,65,0
103917,note_on,4,0,0,,,,,,,,,0,,,61,96
103920,note_on,0,0,1,,,,,,,,,0,,,45,112
103920,note_on,13,0,1,,,,,,,,,0,,,33,112
103921,control_change,1,0,1,,,,,,,64,0,0,,,,
103922,control_change,1,0,1,,,,,,,64,127,0,,,,
103953,note_on,36,0,0,,,,,,,,,0,,,61,0
103956,note_on,3,0,0,,,,,,,,,0,,,65,96
103992,note_on,36,0,0,,,,,,,,,0,,,65,0
103996,note_on,4,0,0,,,,,,,,,0,,,61,96
104032,note_on,36,0,0,,,,,,,,,0,,,61,0
104036,note_on,4,0,0,,,,,,,,,0,,,65,96
104072,note_on,36,0,0,,,,,,,,,0,,,65,0
104076,note_on,4,0,0,,,,,,,,,0,,,61,96
104112,note_on,36,0,0,,,,,,,,,0,,,61,0
104116,note_on,4,0,0,,,,,,,,,0,,,65,96
104147,note_on,0,0,1,,,,,,,,,0,,,45,0
104147,note_on,225,0,1,,,,,,,,,0,,,33,0
104152,note_on,36,0,0,,,,,,,,,0,,,65,0
104160,note_on,0,0,1,,,,,,,,,0,,,46,112
104160,note_on,0,0,1,,,,,,,,,0,,,58,112
104160,note_on,13,0,1,,,,,,,,,0,,,34,112
104160,note_on,0,0,1,,,,,,,,,0,,,53,112
104160,note_on,8,0,0,,,,,,,,,0,,,61,112
104161,control_change,1,0,1,,,,,,,64,0,0,,,,
104162,control_change,1,0,1,,,,,,,64,127,0,,,,
104198,note_on,38,0,0,,,,,,,,,0,,,61,0
104273,note_on,0,0,1,,,,,,,,,0,,,58,0
104273,note_on,111,0,1,,,,,,,,,0,,,53,0
104340,note_on,0,0,0,,,,,,,,,0,,,77,112
104340,note_on,142,0,0,,,,,,,,,0,,,73,112
104387,note_on,114,0,1,,,,,,,,,0,,,34,0
104387,note_on,0,0,1,,,,,,,,,0,,,46,0
104396,note_on,56,0,0,,,,,,,,,0,,,73,0
104396,note_on,0,0,0,,,,,,,,,0,,,77,0
104400,note_on,13,0,1,,,,,,,,,0,,,39,112
104400,note_on,0,0,0,,,,,,,,,0,,,77,127
104400,note_on,0,0,0,,,,,,,,,0,,,73,96
104400,note_on,0,0,0,,,,,,,,,0,,,73,127
104400,set_tempo,4,1,0,,,,,,1499999,,,,,,,
104400,note_on,0,0,0,,,,,,,,,0,,,73,0
104400,note_on,0,0,1,,,,,,,,,0,,,54,112
104401,control_change,1,0,1,,,,,,,64,0,0,,,,
104402,control_change,1,0,1,,,,,,,64,127,0,,,,
104448,note_on,48,0,0,,,,,,,,,0,,,63,96
104478,note_on,0,0,1,,,,,,,,,0,,,54,0
104478,note_on,76,0,1,,,,,,,,,0,,,39,0
104495,note_on,47,0,0,,,,,,,,,0,,,63,0
104496,note_on,1,0,0,,,,,,,,,0,,,66,96
104543,note_on,47,0,0,,,,,,,,,0,,,66,0
104544,note_on,1,0,0,,,,,,,,,0,,,63,96
104591,note_on,47,0,0,,,,,,,,,0,,,63,0
104592,note_on,1,0,0,,,,,,,,,0,,,66,96
104639,note_on,0,0,0,,,,,,,,,0,,,66,0
104639,note_on,0,0,0,,,,,,,,,0,,,77,0
104639,note_on,47,0,0,,,,,,,,,0,,,73,0
104640,note_on,0,0,0,,,,,,,,,0,,,71,112
104640,note_on,0,0,0,,,,,,,,,0,,,71,96
104640,note_on,162,0,1,,,,,,,,,0,,,57,96
104640,set_tempo,1,1,0,,,,,,1200000,,,,,,,
104640,note_on,0,0,0,,,,,,,,,0,,,71,0
104640,note_on,0,0,0,,,,,,,,,0,,,75,112
104676,note_on,36,0,1,,,,,,,,,0,,,57,0
104677,note_on,1,0,1,,,,,,,,,0,,,58,96
104688,note_on,48,0,0,,,,,,,,,0,,,63,96
104713,note_on,36,0,1,,,,,,,,,0,,,58,0
104714,note_on,1,0,1,,,,,,,,,0,,,59,97
104732,note_on,44,0,0,,,,,,,,,0,,,63,0
104736,note_on,4,0,0,,,,,,,,,0,,,66,96
104750,note_on,36,0,1,,,,,,,,,0,,,59,0
104751,note_on,1,0,1,,,,,,,,,0,,,60,97
104780,note_on,44,0,0,,,,,,,,,0,,,66,0
104784,note_on,4,0,0,,,,,,,,,0,,,63,96
104787,note_on,36,0,1,,,,,,,,,0,,,60,0
104788,note_on,1,0,1,,,,,,,,,0,,,61,99
104824,note_on,36,0,1,,,,,,,,,0,,,61,0
104825,note_on,1,0,1,,,,,,,,,0,,,62,100
104828,note_on,44,0,0,,,,,,,,,0,,,63,0
104832,note_on,4,0,0,,,,,,,,,0,,,66,96
104861,note_on,36,0,1,,,,,,,,,0,,,62,0
104862,note_on,1,0,1,,,,,,,,,0,,,63,102
104867,note_on,35,0,0,,,,,,,,,0,,,71,0
104867,note_on,0,0,0,,,,,,,,,0,,,75,0
104876,note_on,9,0,0,,,,,,,,,0,,,66,0
104880,note_on,4,0,0,,,,,,,,,0,,,70,96
104880,note_on,0,0,0,,,,,,,,,0,,,70,112
104880,note_on,0,0,0,,,,,,,,,0,,,70,0
104880,note_on,0,0,0,,,,,,,,,0,,,74,112
104898,note_on,0,0,1,,,,,,,,,0,,,62,102
104898,note_on,36,0,1,,,,,,,,,0,,,63,0
104928,note_on,48,0,0,,,,,,,,,0,,,63,96
104934,note_on,36,0,1,,,,,,,,,0,,,62,0
104935,note_on,1,0,1,,,,,,,,,0,,,61,101
104971,note_on,36,0,1,,,,,,,,,0,,,61,0
104972,note_on,44,0,0,,,,,,,,,0,,,63,0
104972,note_on,1,0,1,,,,,,,,,0,,,60,100
104976,note_on,4,0,0,,,,,,,,,0,,,66,96
105008,note_on,36,0,1,,,,,,,,,0,,,60,0
105009,note_on,1,0,1,,,,,,,,,0,,,59,99
105020,note_on,44,0,0,,,,,,,,,0,,,66,0
105024,note_on,4,0,0,,,,,,,,,0,,,63,96
105045,note_on,36,0,1,,,,,,,,,0,,,59,0
105046,note_on,1,0,1,,,,,,,,,0,,,58,98
105068,note_on,44,0,0,,,,,,,,,0,,,63,0
105072,note_on,4,0,0,,,,,,,,,0,,,66,96
105082,note_on,36,0,1,,,,,,,,,0,,,58,0
105083,note_on,1,0,1,,,,,,,,,0,,,57,97
105107,note_on,0,0,0,,,,,,,,,0,,,74,0
105107,note_on,35,0,0,,,,,,,,,0,,,70,0
105116,note_on,9,0,0,,,,,,,,,0,,,66,0
105117,note_on,34,0,1,,,,,,,,,0,,,57,0
105120,note_on,0,0,0,,,,,,,,,0,,,73,0
105120,note_on,4,0,0,,,,,,,,,0,,,73,96
105120,note_on,3,0,1,,,,,,,,,0,,,42,112
105120,note_on,0,0,0,,,,,,,,,0,,,73,112
105120,note_on,0,0,0,,,,,,,,,0,,,77,112
105121,control_change,1,0,1,,,,,,,64,0,0,,,,
105122,control_change,1,0,1,,,,,,,64,127,0,,,,
105168,note_on,48,0,0,,,,,,,,,0,,,63,96
105198,note_on,76,0,1,,,,,,,,,0,,,42,0
105215,note_on,47,0,0,,,,,,,,,0,,,63,0
105216,note_on,1,0,0,,,,,,,,,0,,,66,96
105263,note_on,47,0,0,,,,,,,,,0,,,66,0
105264,note_on,1,0,0,,,,,,,,,0,,,63,96
105311,note_on,47,0,0,,,,,,,,,0,,,63,0
105312,note_on,1,0,0,,,,,,,,,0,,,66,96
105359,note_on,0,0,0,,,,,,,,,0,,,77,0
105359,note_on,47,0,0,,,,,,,,,0,,,73,0
105359,note_on,0,0,0,,,,,,,,,0,,,66,0
105360,note_on,1,0,0,,,,,,,,,0,,,72,96
105360,note_on,0,0,0,,,,,,,,,0,,,75,112
105360,note_on,0,0,0,,,,,,,,,0,,,72,112
105360,note_on,162,0,1,,,,,,,,,0,,,54,96
105360,note_on,0,0,0,,,,,,,,,0,,,72,0
105396,note_on,36,0,1,,,,,,,,,0,,,54,0
105397,note_on,1,0,1,,,,,,,,,0,,,55,96
105408,note_on,48,0,0,,,,,,,,,0,,,63,96
105433,note_on,36,0,1,,,,,,,,,0,,,55,0
105434,note_on,1,0,1,,,,,,,,,0,,,56,97
105452,note_on,44,0,0,,,,,,,,,0,,,63,0
105456,note_on,4,0,0,,,,,,,,,0,,,66,96
105470,note_on,36,0,1,,,,,,,,,0,,,56,0
105471,note_on,1,0,1,,,,,,,,,0,,,57,97
105500,note_on,44,0,0,,,,,,,,,0,,,66,0
105504,note_on,4,0,0,,,,,,,,,0,,,63,96
105507,note_on,36,0,1,,,,,,,,,0,,,57,0
105508,note_on,1,0,1,,,,,,,,,0,,,58,99
105544,note_on,36,0,1,,,,,,,,,0,,,58,0
105545,note_on,1,0,1,,,,,,,,,0,,,59,100
105548,note_on,44,0,0,,,,,,,,,0,,,63,0
105552,note_on,4,0,0,,,,,,,,,0,,,66,96
105581,note_on,36,0,1,,,,,,,,,0,,,59,0
105582,note_on,1,0,1,,,,,,,,,0,,,59,102
105587,note_on,35,0,0,,,,,,,,,0,,,72,0
105587,note_on,0,0,0,,,,,,,,,0,,,75,0
105596,note_on,9,0,0,,,,,,,,,0,,,66,0
105600,note_on,4,0,0,,,,,,,,,0,,,70,96
105600,note_on,0,0,0,,,,,,,,,0,,,70,0
105600,note_on,0,0,0,,,,,,,,,0,,,70,112
105600,note_on,0,0,0,,,,,,,,,0,,,73,112
105618,note_on,0,0,1,,,,,,,,,0,,,59,102
105618,note_on,36,0,1,,,,,,,,,0,,,59,0
105648,note_on,48,0,0,,,,,,,,,0,,,63,96
105654,note_on,36,0,1,,,,,,,,,0,,,59,0
105655,note_on,1,0,1,,,,,,,,,0,,,58,101
105691,note_on,36,0,1,,,,,,,,,0,,,58,0
105692,note_on,44,0,0,,,,,,,,,0,,,63,0
105692,note_on,1,0,1,,,,,,,,,0,,,57,100
105696,note_on,4,0,0,,,,,,,,,0,,,66,96
105728,note_on,36,0,1,,,,,,,,,0,,,57,0
105729,note_on,1,0,1,,,,,,,,,0,,,56,99
105740,note_on,44,0,0,,,,,,,,,0,,,66,0
105744,note_on,4,0,0,,,,,,,,,0,,,63,96
105765,note_on,36,0,1,,,,,,,,,0,,,56,0
105766,note_on,1,0,1,,,,,,,,,0,,,55,98
105788,note_on,44,0,0,,,,,,,,,0,,,63,0
105792,note_on,4,0,0,,,,,,,,,0,,,66,96
105802,note_on,36,0,1,,,,,,,,,0,,,55,0
105803,note_on,1,0,1,,,,,,,,,0,,,54,97
105827,note_on,35,0,0,,,,,,,,,0,,,70,0
105827,note_on,0,0,0,,,,,,,,,0,,,73,0
105836,note_on,9,0,0,,,,,,,,,0,,,66,0
105837,note_on,34,0,1,,,,,,,,,0,,,54,0
105840,note_on,0,0,1,,,,,,,,,0,,,53,112
105840,note_on,4,0,0,,,,,,,,,0,,,65,112
105840,note_on,0,0,0,,,,,,,,,0,,,70,112
105840,note_on,0,0,0,,,,,,,,,0,,,77,112
105840,note_on,3,0,1,,,,,,,,,0,,,46,112
105840,note_on,0,0,1,,,,,,,,,0,,,61,112
105841,control_change,1,0,1,,,,,,,64,0,0,,,,
105842,control_change,1,0,1,,,,,,,64,127,0,,,,
105878,note_on,0,0,0,,,,,,,,,0,,,70,0
105878,note_on,0,0,0,,,,,,,,,0,,,77,0
105878,note_on,0,0,1,,,,,,,,,0,,,61,0
105878,note_on,36,0,1,,,,,,,,,0,,,46,0
105878,note_on,0,0,1,,,,,,,,,0,,,53,0
105878,note_on,38,0,0,,,,,,,,,0,,,65,0
106080,note_on,202,0,1,,,,,,,,,0,,,42,112
106080,note_on,202,0,0,,,,,,,,,0,,,61,96
106081,control_change,1,0,1,,,,,,,64,0,0,,,,
106082,control_change,1,0,1,,,,,,,64,127,0,,,,
106116,note_on,36,0,0,,,,,,,,,0,,,61,0
106119,note_on,3,0,0,,,,,,,,,0,,,65,96
106155,note_on,36,0,0,,,,,,,,,0,,,65,0
106159,note_on,4,0,0,,,,,,,,,0,,,61,96
106195,note_on,36,0,0,,,,,,,,,0,,,61,0
106199,note_on,117,0,1,,,,,,,,,0,,,42,0
106199,note_on,4,0,0,,,,,,,,,0,,,65,96
106235,note_on,36,0,0,,,,,,,,,0,,,65,0
106239,note_on,4,0,0,,,,,,,,,0,,,61,96
106275,note_on,36,0,0,,,,,,,,,0,,,61,0
106279,note_on,4,0,0,,,,,,,,,0,,,65,96
106315,note_on,36,0,0,,,,,,,,,0,,,65,0
106319,note_on,4,0,0,,,,,,,,,0,,,61,96
106320,note_on,121,0,1,,,,,,,,,0,,,41,112
106321,control_change,1,0,1,,,,,,,64,0,0,,,,
106322,control_change,1,0,1,,,,,,,64,127,0,,,,
106355,note_on,36,0,0,,,,,,,,,0,,,61,0
106358,note_on,3,0,0,,,,,,,,,0,,,65,96
106394,note_on,36,0,0,,,,,,,,,0,,,65,0
106398,note_on,4,0,0,,,,,,,,,0,,,61,96
106434,note_on,36,0,0,,,,,,,,,0,,,61,0
106438,note_on,4,0,0,,,,,,,,,0,,,65,96
106439,note_on,117,0,1,,,,,,,,,0,,,41,0
106474,note_on,36,0,0,,,,,,,,,0,,,65,0
106478,note_on,4,0,0,,,,,,,,,0,,,61,96
106514,note_on,36,0,0,,,,,,,,,0,,,61,0
106518,note_on,4,0,0,,,,,,,,,0,,,65,96
106554,note_on,36,0,0,,,,,,,,,0,,,65,0
106558,note_on,4,0,0,,,,,,,,,0,,,61,96
106560,note_on,121,0,1,,,,,,,,,0,,,40,112
106561,control_change,1,0,1,,,,,,,64,0,0,,,,
106562,control_change,1,0,1,,,,,,,64,127,0,,,,
106594,note_on,36,0,0,,,,,,,,,0,,,61,0
106597,note_on,3,0,0,,,,,,,,,0,,,65,96
106633,note_on,36,0,0,,,,,,,,,0,,,65,0
106637,note_on,4,0,0,,,,,,,,,0,,,61,96
106673,note_on,36,0,0,,,,,,,,,0,,,61,0
106677,note_on,4,0,0,,,,,,,,,0,,,65,96
106679,note_on,117,0,1,,,,,,,,,0,,,40,0
106713,note_on,36,0,0,,,,,,,,,0,,,65,0
106717,note_on,4,0,0,,,,,,,,,0,,,61,96
106753,note_on,36,0,0,,,,,,,,,0,,,61,0
106757,note_on,4,0,0,,,,,,,,,0,,,65,96
106793,note_on,36,0,0,,,,,,,,,0,,,65,0
106797,note_on,4,0,0,,,,,,,,,0,,,61,96
106800,note_on,121,0,1,,,,,,,,,0,,,41,112
106801,control_change,1,0,1,,,,,,,64,0,0,,,,
106802,control_change,1,0,1,,,,,,,64,127,0,,,,
106833,note_on,36,0,0,,,,,,,,,0,,,61,0
106836,note_on,3,0,0,,,,,,,,,0,,,65,96
106872,note_on,36,0,0,,,,,,,,,0,,,65,0
106876,note_on,4,0,0,,,,,,,,,0,,,61,96
106912,note_on,36,0,0,,,,,,,,,0,,,61,0
106916,note_on,4,0,0,,,,,,,,,0,,,65,96
106919,note_on,117,0,1,,,,,,,,,0,,,41,0
106952,note_on,36,0,0,,,,,,,,,0,,,65,0
106956,note_on,4,0,0,,,,,,,,,0,,,61,96
106992,note_on,36,0,0,,,,,,,,,0,,,61,0
106996,note_on,4,0,0,,,,,,,,,0,,,65,96
107032,note_on,36,0,0,,,,,,,,,0,,,65,0
107040,note_on,8,0,0,,,,,,,,,0,,,61,112
107040,note_on,121,0,1,,,,,,,,,0,,,37,112
107040,note_on,0,0,1,,,,,,,,,0,,,58,112
107040,note_on,0,0,1,,,,,,,,,0,,,53,112
107041,control_change,1,0,1,,,,,,,64,0,0,,,,
107042,control_change,1,0,1,,,,,,,64,127,0,,,,
107078,note_on,38,0,0,,,,,,,,,0,,,61,0
107153,note_on,111,0,1,,,,,,,,,0,,,53,0
107153,note_on,0,0,1,,,,,,,,,0,,,58,0
107159,note_on,6,0,1,,,,,,,,,0,,,37,0
107220,note_on,142,0,0,,,,,,,,,0,,,61,112
107220,note_on,0,0,0,,,,,,,,,0,,,73,112
107276,note_on,56,0,0,,,,,,,,,0,,,61,0
107276,note_on,0,0,0,,,,,,,,,0,,,73,0
107280,note_on,0,0,0,,,,,,,,,0,,,61,127
107280,note_on,121,0,1,,,,,,,,,0,,,34,112
107280,note_on,0,0,0,,,,,,,,,0,,,61,96
107280,note_on,0,0,0,,,,,,,,,0,,,73,127
107280,note_on,0,0,0,,,,,,,,,0,,,61,0
107280,set_tempo,4,1,0,,,,,,1499999,,,,,,,
107281,control_change,1,0,1,,,,,,,64,0,0,,,,
107282,control_change,1,0,1,,,,,,,64,127,0,,,,
107328,note_on,48,0,0,,,,,,,,,0,,,63,96
107358,note_on,76,0,1,,,,,,,,,0,,,34,0
107375,note_on,47,0,0,,,,,,,,,0,,,63,0
107376,note_on,1,0,0,,,,,,,,,0,,,66,96
107423,note_on,47,0,0,,,,,,,,,0,,,66,0
107424,note_on,1,0,0,,,,,,,,,0,,,63,96
107471,note_on,47,0,0,,,,,,,,,0,,,63,0
107472,note_on,1,0,0,,,,,,,,,0,,,66,96
107519,note_on,0,0,0,,,,,,,,,0,,,66,0
107519,note_on,0,0,0,,,,,,,,,0,,,73,0
107519,note_on,47,0,0,,,,,,,,,0,,,61,0
107520,note_on,0,0,1,,,,,,,,,0,,,53,96
107520,note_on,0,0,0,,,,,,,,,0,,,59,112
107520,note_on,0,0,0,,,,,,,,,0,,,71,112
107520,note_on,162,0,1,,,,,,,,,0,,,50,96
107520,set_tempo,1,1,0,,,,,,1200000,,,,,,,
107520,note_on,0,0,0,,,,,,,,,0,,,59,0
107520,note_on,0,0,0,,,,,,,,,0,,,59,96
107568,note_on,48,0,0,,,,,,,,,0,,,63,96
107579,note_on,59,0,1,,,,,,,,,0,,,50,0
107579,note_on,0,0,1,,,,,,,,,0,,,53,0
107580,note_on,1,0,1,,,,,,,,,0,,,51,97
107580,note_on,0,0,1,,,,,,,,,0,,,54,97
107612,note_on,44,0,0,,,,,,,,,0,,,63,0
107616,note_on,4,0,0,,,,,,,,,0,,,66,96
107639,note_on,0,0,1,,,,,,,,,0,,,54,0
107639,note_on,59,0,1,,,,,,,,,0,,,51,0
107640,note_on,1,0,1,,,,,,,,,0,,,52,98
107640,note_on,0,0,1,,,,,,,,,0,,,55,98
107660,note_on,44,0,0,,,,,,,,,0,,,66,0
107664,note_on,4,0,0,,,,,,,,,0,,,63,96
107699,note_on,59,0,1,,,,,,,,,0,,,52,0
107699,note_on,0,0,1,,,,,,,,,0,,,55,0
107700,note_on,1,0,1,,,,,,,,,0,,,53,100
107700,note_on,0,0,1,,,,,,,,,0,,,56,100
107708,note_on,44,0,0,,,,,,,,,0,,,63,0
107712,note_on,4,0,0,,,,,,,,,0,,,66,96
107747,note_on,0,0,0,,,,,,,,,0,,,71,0
107747,note_on,35,0,0,,,,,,,,,0,,,59,0
107756,note_on,9,0,0,,,,,,,,,0,,,66,0
107759,note_on,59,0,1,,,,,,,,,0,,,53,0
107759,note_on,0,0,1,,,,,,,,,0,,,56,0
107760,note_on,1,0,1,,,,,,,,,0,,,54,102
107760,note_on,4,0,0,,,,,,,,,0,,,58,96
107760,note_on,0,0,1,,,,,,,,,0,,,57,102
107760,note_on,0,0,0,,,,,,,,,0,,,70,112
107760,note_on,0,0,0,,,,,,,,,0,,,58,112
107760,note_on,0,0,0,,,,,,,,,0,,,58,0
107808,note_on,48,0,0,,,,,,,,,0,,,63,96
107819,note_on,0,0,1,,,,,,,,,0,,,57,0
107819,note_on,59,0,1,,,,,,,,,0,,,54,0
107820,note_on,1,0,1,,,,,,,,,0,,,53,101
107820,note_on,0,0,1,,,,,,,,,0,,,56,101
107852,note_on,44,0,0,,,,,,,,,0,,,63,0
107856,note_on,4,0,0,,,,,,,,,0,,,66,96
107879,note_on,0,0,1,,,,,,,,,0,,,56,0
107879,note_on,59,0,1,,,,,,,,,0,,,53,0
107880,note_on,0,0,1,,,,,,,,,0,,,55,99
107880,note_on,1,0,1,,,,,,,,,0,,,52,99
107900,note_on,44,0,0,,,,,,,,,0,,,66,0
107904,note_on,4,0,0,,,,,,,,,0,,,63,96
107939,note_on,59,0,1,,,,,,,,,0,,,52,0
107939,note_on,0,0,1,,,,,,,,,0,,,55,0
107940,note_on,1,0,1,,,,,,,,,0,,,51,97
107940,note_on,0,0,1,,,,,,,,,0,,,54,97
107948,note_on,44,0,0,,,,,,,,,0,,,63,0
107952,note_on,4,0,0,,,,,,,,,0,,,66,96
107987,note_on,35,0,0,,,,,,,,,0,,,58,0
107987,note_on,0,0,0,,,,,,,,,0,,,70,0
107996,note_on,56,0,1,,,,,,,,,0,,,51,0
107996,note_on,9,0,0,,,,,,,,,0,,,66,0
107996,note_on,0,0,1,,,,,,,,,0,,,54,0
108000,note_on,0,0,0,,,,,,,,,0,,,73,127
108000,note_on,0,0,0,,,,,,,,,0,,,61,127
108000,note_on,4,0,0,,,,,,,,,0,,,61,96
108000,note_on,4,0,1,,,,,,,,,0,,,39,112
108000,note_on,0,0,0,,,,,,,,,0,,,61,0
108001,control_change,1,0,1,,,,,,,64,0,0,,,,
108002,control_change,1,0,1,,,,,,,64,127,0,,,,
108048,note_on,48,0,0,,,,,,,,,0,,,63,96
108078,note_on,76,0,1,,,,,,,,,0,,,39,0
108095,note_on,47,0,0,,,,,,,,,0,,,63,0
108096,note_on,1,0,0,,,,,,,,,0,,,66,96
108143,note_on,47,0,0,,,,,,,,,0,,,66,0
108144,note_on,1,0,0,,,,,,,,,0,,,63,96
108191,note_on,47,0,0,,,,,,,,,0,,,63,0
108192,note_on,1,0,0,,,,,,,,,0,,,66,96
108239,note_on,0,0,0,,,,,,,,,0,,,73,0
108239,note_on,0,0,0,,,,,,,,,0,,,66,0
108239,note_on,47,0,0,,,,,,,,,0,,,61,0
108240,note_on,162,0,1,,,,,,,,,0,,,50,96
108240,note_on,0,0,1,,,,,,,,,0,,,53,96
108240,note_on,0,0,0,,,,,,,,,0,,,72,112
108240,note_on,0,0,0,,,,,,,,,0,,,60,112
108240,note_on,0,0,0,,,,,,,,,0,,,60,0
108240,note_on,1,0,0,,,,,,,,,0,,,60,96
108288,note_on,48,0,0,,,,,,,,,0,,,63,96
108299,note_on,0,0,1,,,,,,,,,0,,,53,0
108299,note_on,59,0,1,,,,,,,,,0,,,50,0
108300,note_on,1,0,1,,,,,,,,,0,,,51,97
108300,note_on,0,0,1,,,,,,,,,0,,,54,97
108332,note_on,44,0,0,,,,,,,,,0,,,63,0
108336,note_on,4,0,0,,,,,,,,,0,,,66,96
108359,note_on,0,0,1,,,,,,,,,0,,,54,0
108359,note_on,59,0,1,,,,,,,,,0,,,51,0
108360,note_on,1,0,1,,,,,,,,,0,,,52,98
108360,note_on,0,0,1,,,,,,,,,0,,,55,98
108380,note_on,44,0,0,,,,,,,,,0,,,66,0
108384,note_on,4,0,0,,,,,,,,,0,,,63,96
108419,note_on,59,0,1,,,,,,,,,0,,,52,0
108419,note_on,0,0,1,,,,,,,,,0,,,55,0
108420,note_on,0,0,1,,,,,,,,,0,,,56,100
108420,note_on,1,0,1,,,,,,,,,0,,,53,100
108428,note_on,44,0,0,,,,,,,,,0,,,63,0
108432,note_on,4,0,0,,,,,,,,,0,,,66,96
108467,note_on,35,0,0,,,,,,,,,0,,,60,0
108467,note_on,0,0,0,,,,,,,,,0,,,72,0
108476,note_on,9,0,0,,,,,,,,,0,,,66,0
108479,note_on,0,0,1,,,,,,,,,0,,,56,0
108479,note_on,59,0,1,,,,,,,,,0,,,53,0
108480,note_on,1,0,1,,,,,,,,,0,,,54,102
108480,note_on,0,0,0,,,,,,,,,0,,,70,112
108480,note_on,4,0,0,,,,,,,,,0,,,58,96
108480,note_on,0,0,0,,,,,,,,,0,,,58,112
108480,note_on,0,0,0,,,,,,,,,0,,,58,0
108480,note_on,0,0,1,,,,,,,,,0,,,57,102
108528,note_on,48,0,0,,,,,,,,,0,,,63,96
108539,note_on,59,0,1,,,,,,,,,0,,,54,0
108539,note_on,0,0,1,,,,,,,,,0,,,57,0
108540,note_on,0,0,1,,,,,,,,,0,,,56,101
108540,note_on,1,0,1,,,,,,,,,0,,,53,101
108572,note_on,44,0,0,,,,,,,,,0,,,63,0
108576,note_on,4,0,0,,,,,,,,,0,,,66,96
108599,note_on,0,0,1,,,,,,,,,0,,,56,0
108599,note_on,59,0,1,,,,,,,,,0,,,53,0
108600,note_on,0,0,1,,,,,,,,,0,,,55,99
108600,note_on,1,0,1,,,,,,,,,0,,,52,99
108620,note_on,44,0,0,,,,,,,,,0,,,66,0
108624,note_on,4,0,0,,,,,,,,,0,,,63,96
108659,note_on,0,0,1,,,,,,,,,0,,,55,0
108659,note_on,59,0,1,,,,,,,,,0,,,52,0
108660,note_on,1,0,1,,,,,,,,,0,,,51,97
108660,note_on,0,0,1,,,,,,,,,0,,,54,97
108668,note_on,44,0,0,,,,,,,,,0,,,63,0
108672,note_on,4,0,0,,,,,,,,,0,,,66,96
108707,note_on,0,0,0,,,,,,,,,0,,,70,0
108707,note_on,35,0,0,,,,,,,,,0,,,58,0
108716,note_on,56,0,1,,,,,,,,,0,,,51,0
108716,note_on,9,0,0,,,,,,,,,0,,,66,0
108716,note_on,0,0,1,,,,,,,,,0,,,54,0
108720,note_on,4,0,0,,,,,,,,,0,,,61,96
108720,note_on,4,0,1,,,,,,,,,0,,,34,112
108720,note_on,0,0,0,,,,,,,,,0,,,65,112
108721,control_change,1,0,1,,,,,,,64,0,0,,,,
108722,control_change,1,0,1,,,,,,,64,127,0,,,,
108764,note_on,44,0,0,,,,,,,,,0,,,61,0
108768,note_on,4,0,0,,,,,,,,,0,,,53,96
108768,note_on,46,0,1,,,,,,,,,0,,,49,96
108812,note_on,44,0,0,,,,,,,,,0,,,53,0
108812,note_on,44,0,1,,,,,,,,,0,,,49,0
108816,note_on,4,0,0,,,,,,,,,0,,,58,95
108816,note_on,4,0,1,,,,,,,,,0,,,46,95
108860,note_on,44,0,0,,,,,,,,,0,,,58,0
108860,note_on,44,0,1,,,,,,,,,0,,,46,0
108864,note_on,4,0,0,,,,,,,,,0,,,53,95
108864,note_on,4,0,1,,,,,,,,,0,,,49,95
108908,note_on,44,0,1,,,,,,,,,0,,,49,0
108908,note_on,44,0,0,,,,,,,,,0,,,53,0
108912,note_on,4,0,1,,,,,,,,,0,,,46,94
108912,note_on,4,0,0,,,,,,,,,0,,,58,94
108947,note_on,35,0,1,,,,,,,,,0,,,34,0
108956,note_on,9,0,1,,,,,,,,,0,,,46,0
108956,note_on,44,0,0,,,,,,,,,0,,,58,0
108960,note_on,4,0,0,,,,,,,,,0,,,53,94
108960,note_on,4,0,1,,,,,,,,,0,,,40,110
108961,control_change,1,0,1,,,,,,,64,0,0,,,,
108962,control_change,1,0,1,,,,,,,64,127,0,,,,
108997,note_on,37,0,0,,,,,,,,,0,,,53,0
109000,note_on,3,0,0,,,,,,,,,0,,,58,93
109008,note_on,46,0,1,,,,,,,,,0,,,49,93
109037,note_on,37,0,0,,,,,,,,,0,,,58,0
109040,note_on,3,0,0,,,,,,,,,0,,,53,93
109052,note_on,44,0,1,,,,,,,,,0,,,49,0
109056,note_on,4,0,1,,,,,,,,,0,,,46,93
109077,note_on,37,0,0,,,,,,,,,0,,,53,0
109080,note_on,3,0,0,,,,,,,,,0,,,58,92
109100,note_on,44,0,1,,,,,,,,,0,,,46,0
109104,note_on,4,0,1,,,,,,,,,0,,,49,92
109117,note_on,37,0,0,,,,,,,,,0,,,58,0
109120,note_on,3,0,0,,,,,,,,,0,,,53,92
109148,note_on,44,0,1,,,,,,,,,0,,,49,0
109152,note_on,4,0,1,,,,,,,,,0,,,46,92
109157,note_on,37,0,0,,,,,,,,,0,,,53,0
109160,note_on,3,0,0,,,,,,,,,0,,,58,92
109187,note_on,35,0,1,,,,,,,,,0,,,40,0
109196,note_on,9,0,1,,,,,,,,,0,,,46,0
109197,note_on,37,0,0,,,,,,,,,0,,,58,0
109200,note_on,3,0,0,,,,,,,,,0,,,53,91
109200,note_on,4,0,1,,,,,,,,,0,,,41,107
109201,control_change,1,0,1,,,,,,,64,0,0,,,,
109202,control_change,1,0,1,,,,,,,64,127,0,,,,
109237,note_on,37,0,0,,,,,,,,,0,,,53,0
109240,note_on,3,0,0,,,,,,,,,0,,,58,91
109248,note_on,46,0,1,,,,,,,,,0,,,49,91
109277,note_on,37,0,0,,,,,,,,,0,,,58,0
109280,note_on,3,0,0,,,,,,,,,0,,,53,91
109292,note_on,44,0,1,,,,,,,,,0,,,49,0
109296,note_on,4,0,1,,,,,,,,,0,,,46,91
109317,note_on,37,0,0,,,,,,,,,0,,,53,0
109320,note_on,3,0,0,,,,,,,,,0,,,58,91
109340,note_on,44,0,1,,,,,,,,,0,,,46,0
109344,note_on,4,0,1,,,,,,,,,0,,,49,91
109357,note_on,37,0,0,,,,,,,,,0,,,58,0
109360,note_on,3,0,0,,,,,,,,,0,,,53,90
109388,note_on,44,0,1,,,,,,,,,0,,,49,0
109392,note_on,4,0,1,,,,,,,,,0,,,46,90
109397,note_on,37,0,0,,,,,,,,,0,,,53,0
109400,note_on,3,0,0,,,,,,,,,0,,,58,90
109403,note_on,3,0,0,,,,,,,,,0,,,65,0
109427,note_on,35,0,1,,,,,,,,,0,,,41,0
109436,note_on,9,0,1,,,,,,,,,0,,,46,0
109437,note_on,34,0,0,,,,,,,,,0,,,58,0
109440,note_on,0,0,0,,,,,,,,,0,,,65,124
109440,set_tempo,3,1,0,,,,,,1499999,,,,,,,
109440,note_on,0,0,0,,,,,,,,,0,,,61,89
109440,note_on,4,0,1,,,,,,,,,0,,,27,104
109441,control_change,1,0,1,,,,,,,64,0,0,,,,
109442,control_change,1,0,1,,,,,,,64,127,0,,,,
109487,note_on,47,0,0,,,,,,,,,0,,,61,0
109488,note_on,1,0,0,,,,,,,,,0,,,54,89
109518,note_on,76,0,1,,,,,,,,,0,,,27,0
109535,note_on,47,0,0,,,,,,,,,0,,,54,0
109536,note_on,1,0,0,,,,,,,,,0,,,57,88
109583,note_on,47,0,0,,,,,,,,,0,,,57,0
109584,note_on,1,0,0,,,,,,,,,0,,,54,88
109631,note_on,47,0,0,,,,,,,,,0,,,54,0
109632,note_on,1,0,0,,,,,,,,,0,,,57,87
109679,note_on,47,0,0,,,,,,,,,0,,,65,0
109679,note_on,0,0,0,,,,,,,,,0,,,57,0
109680,set_tempo,1,1,0,,,,,,1200000,,,,,,,
109680,note_on,0,0,1,,,,,,,,,0,,,42,87
109680,note_on,0,0,0,,,,,,,,,0,,,63,102
109680,note_on,0,0,0,,,,,,,,,0,,,59,87
109680,note_on,162,0,1,,,,,,,,,0,,,39,87
109724,note_on,44,0,0,,,,,,,,,0,,,59,0
109728,note_on,4,0,0,,,,,,,,,0,,,54,86
109739,note_on,0,0,1,,,,,,,,,0,,,42,0
109739,note_on,59,0,1,,,,,,,,,0,,,39,0
109740,note_on,1,0,1,,,,,,,,,0,,,40,86
109740,note_on,0,0,1,,,,,,,,,0,,,43,86
109772,note_on,44,0,0,,,,,,,,,0,,,54,0
109776,note_on,4,0,0,,,,,,,,,0,,,57,86
109799,note_on,0,0,1,,,,,,,,,0,,,43,0
109799,note_on,59,0,1,,,,,,,,,0,,,40,0
109800,note_on,1,0,1,,,,,,,,,0,,,41,85
109800,note_on,0,0,1,,,,,,,,,0,,,44,85
109820,note_on,44,0,0,,,,,,,,,0,,,57,0
109824,note_on,4,0,0,,,,,,,,,0,,,54,85
109859,note_on,59,0,1,,,,,,,,,0,,,41,0
109859,note_on,0,0,1,,,,,,,,,0,,,44,0
109860,note_on,1,0,1,,,,,,,,,0,,,42,85
109860,note_on,0,0,1,,,,,,,,,0,,,45,85
109868,note_on,44,0,0,,,,,,,,,0,,,54,0
109872,note_on,4,0,0,,,,,,,,,0,,,57,85
109907,note_on,35,0,0,,,,,,,,,0,,,63,0
109916,note_on,9,0,0,,,,,,,,,0,,,57,0
109919,note_on,59,0,1,,,,,,,,,0,,,42,0
109919,note_on,0,0,1,,,,,,,,,0,,,45,0
109920,note_on,0,0,1,,,,,,,,,0,,,46,85
109920,note_on,0,0,0,,,,,,,,,0,,,61,99
109920,note_on,1,0,1,,,,,,,,,0,,,43,85
109920,note_on,4,0,0,,,,,,,,,0,,,58,85
109964,note_on,44,0,0,,,,,,,,,0,,,58,0
109968,note_on,4,0,0,,,,,,,,,0,,,54,85
109979,note_on,0,0,1,,,,,,,,,0,,,46,0
109979,note_on,59,0,1,,,,,,,,,0,,,43,0
109980,note_on,0,0,1,,,,,,,,,0,,,47,84
109980,note_on,1,0,1,,,,,,,,,0,,,44,84
110012,note_on,44,0,0,,,,,,,,,0,,,54,0
110016,note_on,4,0,0,,,,,,,,,0,,,57,84
110039,note_on,0,0,1,,,,,,,,,0,,,47,0
110039,note_on,59,0,1,,,,,,,,,0,,,44,0
110040,note_on,1,0,1,,,,,,,,,0,,,45,84
110040,note_on,0,0,1,,,,,,,,,0,,,48,84
110060,note_on,44,0,0,,,,,,,,,0,,,57,0
110064,note_on,4,0,0,,,,,,,,,0,,,54,84
110099,note_on,59,0,1,,,,,,,,,0,,,45,0
110099,note_on,0,0,1,,,,,,,,,0,,,48,0
110100,note_on,0,0,1,,,,,,,,,0,,,49,83
110100,note_on,1,0,1,,,,,,,,,0,,,46,83
110108,note_on,44,0,0,,,,,,,,,0,,,54,0
110112,note_on,4,0,0,,,,,,,,,0,,,57,83
110147,note_on,35,0,0,,,,,,,,,0,,,61,0
110156,note_on,56,0,1,,,,,,,,,0,,,46,0
110156,note_on,0,0,1,,,,,,,,,0,,,49,0
110156,note_on,9,0,0,,,,,,,,,0,,,57,0
110160,note_on,4,0,1,,,,,,,,,0,,,34,96
110160,note_on,0,0,0,,,,,,,,,0,,,61,82
110160,time_signature,4,1,0,3,8,24,8,,,,,,,,,
110160,note_on,0,0,0,,,,,,,,,0,,,65,96
110161,control_change,1,0,1,,,,,,,64,0,0,,,,
110162,control_change,1,0,1,,,,,,,64,127,0,,,,
110204,note_on,44,0,0,,,,,,,,,0,,,61,0
110208,note_on,46,0,1,,,,,,,,,0,,,49,82
110208,note_on,4,0,0,,,,,,,,,0,,,53,82
110252,note_on,44,0,1,,,,,,,,,0,,,49,0
110252,note_on,44,0,0,,,,,,,,,0,,,53,0
110256,note_on,4,0,0,,,,,,,,,0,,,58,81
110256,note_on,4,0,1,,,,,,,,,0,,,46,81
110300,note_on,44,0,0,,,,,,,,,0,,,58,0
110300,note_on,44,0,1,,,,,,,,,0,,,46,0
110304,note_on,4,0,0,,,,,,,,,0,,,53,81
110304,note_on,4,0,1,,,,,,,,,0,,,49,81
110348,note_on,44,0,0,,,,,,,,,0,,,53,0
110348,note_on,44,0,1,,,,,,,,,0,,,49,0
110352,note_on,4,0,1,,,,,,,,,0,,,46,80
110352,note_on,4,0,0,,,,,,,,,0,,,58,80
110387,note_on,35,0,1,,,,,,,,,0,,,34,0
110396,note_on,9,0,1,,,,,,,,,0,,,46,0
110396,note_on,44,0,0,,,,,,,,,0,,,58,0
110400,note_on,4,0,0,,,,,,,,,0,,,53,80
110400,note_on,4,0,1,,,,,,,,,0,,,40,94
110401,control_change,1,0,1,,,,,,,64,0,0,,,,
110402,control_change,1,0,1,,,,,,,64,127,0,,,,
110437,note_on,37,0,0,,,,,,,,,0,,,53,0
110440,note_on,3,0,0,,,,,,,,,0,,,58,80
110448,note_on,46,0,1,,,,,,,,,0,,,49,80
110477,note_on,37,0,0,,,,,,,,,0,,,58,0
110480,note_on,3,0,0,,,,,,,,,0,,,53,80
110492,note_on,44,0,1,,,,,,,,,0,,,49,0
110496,note_on,4,0,1,,,,,,,,,0,,,46,80
110517,note_on,37,0,0,,,,,,,,,0,,,53,0
110520,note_on,3,0,0,,,,,,,,,0,,,58,79
110540,note_on,44,0,1,,,,,,,,,0,,,46,0
110544,note_on,4,0,1,,,,,,,,,0,,,49,79
110557,note_on,37,0,0,,,,,,,,,0,,,58,0
110560,note_on,3,0,0,,,,,,,,,0,,,53,79
110588,note_on,44,0,1,,,,,,,,,0,,,49,0
110592,note_on,4,0,1,,,,,,,,,0,,,46,79
110597,note_on,37,0,0,,,,,,,,,0,,,53,0
110600,note_on,3,0,0,,,,,,,,,0,,,58,79
110627,note_on,35,0,1,,,,,,,,,0,,,40,0
110636,note_on,9,0,1,,,,,,,,,0,,,46,0
110637,note_on,37,0,0,,,,,,,,,0,,,58,0
110640,note_on,4,0,1,,,,,,,,,0,,,41,91
110640,note_on,3,0,0,,,,,,,,,0,,,53,78
110641,control_change,1,0,1,,,,,,,64,0,0,,,,
110642,control_change,1,0,1,,,,,,,64,127,0,,,,
110677,note_on,37,0,0,,,,,,,,,0,,,53,0
110680,note_on,3,0,0,,,,,,,,,0,,,58,78
110688,note_on,46,0,1,,,,,,,,,0,,,49,78
110717,note_on,37,0,0,,,,,,,,,0,,,58,0
110720,note_on,3,0,0,,,,,,,,,0,,,53,77
110732,note_on,44,0,1,,,,,,,,,0,,,49,0
110736,note_on,4,0,1,,,,,,,,,0,,,46,77
110757,note_on,37,0,0,,,,,,,,,0,,,53,0
110760,note_on,3,0,0,,,,,,,,,0,,,58,77
110780,note_on,44,0,1,,,,,,,,,0,,,46,0
110784,note_on,4,0,1,,,,,,,,,0,,,49,77
110797,note_on,37,0,0,,,,,,,,,0,,,58,0
110800,note_on,3,0,0,,,,,,,,,0,,,53,76
110828,note_on,44,0,1,,,,,,,,,0,,,49,0
110832,note_on,4,0,1,,,,,,,,,0,,,46,76
110837,note_on,37,0,0,,,,,,,,,0,,,53,0
110840,note_on,3,0,0,,,,,,,,,0,,,58,76
110843,note_on,3,0,0,,,,,,,,,0,,,65,0
110867,note_on,35,0,1,,,,,,,,,0,,,41,0
110876,note_on,9,0,1,,,,,,,,,0,,,46,0
110877,note_on,34,0,0,,,,,,,,,0,,,58,0
110880,note_on,4,0,1,,,,,,,,,0,,,27,88
110880,note_on,0,0,0,,,,,,,,,0,,,65,105
110880,note_on,3,0,0,,,,,,,,,0,,,61,75
110881,control_change,1,0,1,,,,,,,64,0,0,,,,
110882,control_change,1,0,1,,,,,,,64,127,0,,,,
110927,note_on,47,0,0,,,,,,,,,0,,,61,0
110928,note_on,1,0,0,,,,,,,,,0,,,54,75
110958,note_on,76,0,1,,,,,,,,,0,,,27,0
110975,note_on,47,0,0,,,,,,,,,0,,,54,0
110976,note_on,1,0,0,,,,,,,,,0,,,57,74
111023,note_on,47,0,0,,,,,,,,,0,,,57,0
111024,note_on,1,0,0,,,,,,,,,0,,,54,74
111071,note_on,47,0,0,,,,,,,,,0,,,54,0
111072,note_on,1,0,0,,,,,,,,,0,,,57,74
111119,note_on,0,0,0,,,,,,,,,0,,,57,0
111119,note_on,47,0,0,,,,,,,,,0,,,65,0
111120,note_on,0,0,0,,,,,,,,,0,,,63,86
111120,note_on,162,0,1,,,,,,,,,0,,,39,74
111120,note_on,0,0,1,,,,,,,,,0,,,42,74
111120,note_on,1,0,0,,,,,,,,,0,,,59,74
111164,note_on,44,0,0,,,,,,,,,0,,,59,0
111168,note_on,4,0,0,,,,,,,,,0,,,54,73
111179,note_on,0,0,1,,,,,,,,,0,,,42,0
111179,note_on,59,0,1,,,,,,,,,0,,,39,0
111180,note_on,1,0,1,,,,,,,,,0,,,40,73
111180,note_on,0,0,1,,,,,,,,,0,,,43,73
111212,note_on,44,0,0,,,,,,,,,0,,,54,0
111216,note_on,4,0,0,,,,,,,,,0,,,57,73
111239,note_on,59,0,1,,,,,,,,,0,,,40,0
111239,note_on,0,0,1,,,,,,,,,0,,,43,0
111240,note_on,0,0,1,,,,,,,,,0,,,44,72
111240,note_on,1,0,1,,,,,,,,,0,,,41,72
111260,note_on,44,0,0,,,,,,,,,0,,,57,0
111264,note_on,4,0,0,,,,,,,,,0,,,54,72
111299,note_on,0,0,1,,,,,,,,,0,,,44,0
111299,note_on,59,0,1,,,,,,,,,0,,,41,0
111300,note_on,0,0,1,,,,,,,,,0,,,45,72
111300,note_on,1,0,1,,,,,,,,,0,,,42,72
111308,note_on,44,0,0,,,,,,,,,0,,,54,0
111312,note_on,4,0,0,,,,,,,,,0,,,57,72
111347,note_on,35,0,0,,,,,,,,,0,,,63,0
111356,note_on,9,0,0,,,,,,,,,0,,,57,0
111359,note_on,0,0,1,,,,,,,,,0,,,45,0
111359,note_on,59,0,1,,,,,,,,,0,,,42,0
111360,note_on,4,0,0,,,,,,,,,0,,,58,71
111360,note_on,0,0,1,,,,,,,,,0,,,46,71
111360,note_on,1,0,1,,,,,,,,,0,,,43,71
111360,note_on,0,0,0,,,,,,,,,0,,,61,83
111404,note_on,44,0,0,,,,,,,,,0,,,58,0
111408,note_on,4,0,0,,,,,,,,,0,,,54,71
111419,note_on,0,0,1,,,,,,,,,0,,,46,0
111419,note_on,59,0,1,,,,,,,,,0,,,43,0
111420,note_on,1,0,1,,,,,,,,,0,,,44,70
111420,note_on,0,0,1,,,,,,,,,0,,,47,70
111452,note_on,44,0,0,,,,,,,,,0,,,54,0
111456,note_on,4,0,0,,,,,,,,,0,,,57,70
111479,note_on,0,0,1,,,,,,,,,0,,,47,0
111479,note_on,59,0,1,,,,,,,,,0,,,44,0
111480,note_on,1,0,1,,,,,,,,,0,,,45,70
111480,note_on,0,0,1,,,,,,,,,0,,,48,70
111500,note_on,44,0,0,,,,,,,,,0,,,57,0
111504,note_on,4,0,0,,,,,,,,,0,,,54,70
111539,note_on,59,0,1,,,,,,,,,0,,,45,0
111539,note_on,0,0,1,,,,,,,,,0,,,48,0
111540,note_on,0,0,1,,,,,,,,,0,,,49,69
111540,note_on,1,0,1,,,,,,,,,0,,,46,69
111548,note_on,44,0,0,,,,,,,,,0,,,54,0
111552,note_on,4,0,0,,,,,,,,,0,,,57,69
111587,note_on,35,0,0,,,,,,,,,0,,,61,0
111596,note_on,56,0,1,,,,,,,,,0,,,46,0
111596,note_on,0,0,1,,,,,,,,,0,,,49,0
111596,note_on,9,0,0,,,,,,,,,0,,,57,0
111600,note_on,0,0,0,,,,,,,,,0,,,61,68
111600,time_signature,4,1,0,6,8,24,8,,,,,,,,,
111600,note_on,4,0,1,,,,,,,,,0,,,34,80
111600,note_on,0,0,0,,,,,,,,,0,,,65,80
111601,control_change,1,0,1,,,,,,,64,0,0,,,,
111602,control_change,1,0,1,,,,,,,64,127,0,,,,
111644,note_on,44,0,0,,,,,,,,,0,,,61,0
111648,note_on,4,0,0,,,,,,,,,0,,,53,68
111648,note_on,46,0,1,,,,,,,,,0,,,49,68
111692,note_on,44,0,1,,,,,,,,,0,,,49,0
111692,note_on,44,0,0,,,,,,,,,0,,,53,0
111696,note_on,4,0,1,,,,,,,,,0,,,46,68
111696,note_on,4,0,0,,,,,,,,,0,,,58,68
111740,note_on,44,0,0,,,,,,,,,0,,,58,0
111740,note_on,44,0,1,,,,,,,,,0,,,46,0
111744,note_on,4,0,0,,,,,,,,,0,,,53,68
111744,note_on,4,0,1,,,,,,,,,0,,,49,68
111788,note_on,44,0,1,,,,,,,,,0,,,49,0
111788,note_on,44,0,0,,,,,,,,,0,,,53,0
111792,note_on,4,0,1,,,,,,,,,0,,,46,69
111792,note_on,4,0,0,,,,,,,,,0,,,58,69
111827,note_on,35,0,1,,,,,,,,,0,,,34,0
111836,note_on,44,0,0,,,,,,,,,0,,,58,0
111836,note_on,9,0,1,,,,,,,,,0,,,46,0
111840,note_on,4,0,1,,,,,,,,,0,,,40,82
111840,note_on,4,0,0,,,,,,,,,0,,,53,70
111841,control_change,1,0,1,,,,,,,64,0,0,,,,
111842,control_change,1,0,1,,,,,,,64,127,0,,,,
111877,note_on,37,0,0,,,,,,,,,0,,,53,0
111880,note_on,3,0,0,,,,,,,,,0,,,58,71
111888,note_on,46,0,1,,,,,,,,,0,,,49,71
111917,note_on,37,0,0,,,,,,,,,0,,,58,0
111920,note_on,3,0,0,,,,,,,,,0,,,53,72
111932,note_on,44,0,1,,,,,,,,,0,,,49,0
111936,note_on,4,0,1,,,,,,,,,0,,,46,73
111957,note_on,37,0,0,,,,,,,,,0,,,53,0
111960,note_on,3,0,0,,,,,,,,,0,,,58,73
111980,note_on,44,0,1,,,,,,,,,0,,,46,0
111984,note_on,4,0,1,,,,,,,,,0,,,49,74
111997,note_on,37,0,0,,,,,,,,,0,,,58,0
112000,note_on,3,0,0,,,,,,,,,0,,,53,74
112028,note_on,44,0,1,,,,,,,,,0,,,49,0
112032,note_on,4,0,1,,,,,,,,,0,,,46,74
112037,note_on,37,0,0,,,,,,,,,0,,,53,0
112040,note_on,3,0,0,,,,,,,,,0,,,58,74
112055,note_on,15,0,0,,,,,,,,,0,,,65,0
112067,note_on,35,0,1,,,,,,,,,0,,,40,0
112076,note_on,9,0,1,,,,,,,,,0,,,46,0
112077,note_on,22,0,0,,,,,,,,,0,,,58,0
112080,note_on,3,0,0,,,,,,,,,0,,,53,75
112080,note_on,4,0,1,,,,,,,,,0,,,41,88
112081,control_change,1,0,1,,,,,,,64,0,0,,,,
112082,control_change,1,0,1,,,,,,,64,127,0,,,,
112117,note_on,37,0,0,,,,,,,,,0,,,53,0
112120,note_on,3,0,0,,,,,,,,,0,,,58,76
112128,note_on,46,0,1,,,,,,,,,0,,,49,77
112157,note_on,37,0,0,,,,,,,,,0,,,58,0
112160,note_on,3,0,0,,,,,,,,,0,,,53,77
112172,note_on,44,0,1,,,,,,,,,0,,,49,0
112176,note_on,4,0,1,,,,,,,,,0,,,46,78
112197,note_on,37,0,0,,,,,,,,,0,,,53,0
112200,note_on,3,0,0,,,,,,,,,0,,,58,78
112220,note_on,44,0,1,,,,,,,,,0,,,46,0
112224,note_on,4,0,1,,,,,,,,,0,,,49,79
112237,note_on,37,0,0,,,,,,,,,0,,,58,0
112240,note_on,3,0,0,,,,,,,,,0,,,53,79
112268,note_on,44,0,1,,,,,,,,,0,,,49,0
112272,note_on,4,0,1,,,,,,,,,0,,,46,80
112277,note_on,37,0,0,,,,,,,,,0,,,53,0
112280,note_on,3,0,0,,,,,,,,,0,,,58,80
112307,note_on,35,0,1,,,,,,,,,0,,,41,0
112316,note_on,9,0,1,,,,,,,,,0,,,46,0
112317,note_on,37,0,0,,,,,,,,,0,,,58,0
112320,note_on,4,0,1,,,,,,,,,0,,,42,95
112320,note_on,0,0,0,,,,,,,,,0,,,65,95
112320,note_on,0,0,0,,,,,,,,,0,,,61,81
112320,set_tempo,3,1,0,,,,,,1333333,,,,,,,
112321,control_change,1,0,1,,,,,,,64,0,0,,,,
112322,control_change,1,0,1,,,,,,,64,127,0,,,,
112364,note_on,44,0,0,,,,,,,,,0,,,61,0
112368,note_on,46,0,1,,,,,,,,,0,,,49,81
112368,note_on,4,0,0,,,,,,,,,0,,,53,81
112412,note_on,44,0,0,,,,,,,,,0,,,53,0
112412,note_on,44,0,1,,,,,,,,,0,,,49,0
112416,note_on,4,0,1,,,,,,,,,0,,,46,81
112416,note_on,4,0,0,,,,,,,,,0,,,58,81
112460,note_on,44,0,1,,,,,,,,,0,,,46,0
112460,note_on,44,0,0,,,,,,,,,0,,,58,0
112464,note_on,4,0,1,,,,,,,,,0,,,49,81
112464,note_on,4,0,0,,,,,,,,,0,,,53,81
112508,note_on,44,0,1,,,,,,,,,0,,,49,0
112508,note_on,44,0,0,,,,,,,,,0,,,53,0
112512,note_on,4,0,1,,,,,,,,,0,,,46,81
112512,note_on,4,0,0,,,,,,,,,0,,,58,81
112547,note_on,35,0,1,,,,,,,,,0,,,42,0
112556,note_on,9,0,1,,,,,,,,,0,,,46,0
112556,note_on,44,0,0,,,,,,,,,0,,,58,0
112560,note_on,4,0,0,,,,,,,,,0,,,53,80
112560,note_on,4,0,1,,,,,,,,,0,,,41,94
112561,control_change,1,0,1,,,,,,,64,0,0,,,,
112562,control_change,1,0,1,,,,,,,64,127,0,,,,
112597,note_on,37,0,0,,,,,,,,,0,,,53,0
112600,note_on,3,0,0,,,,,,,,,0,,,58,80
112608,note_on,46,0,1,,,,,,,,,0,,,49,80
112637,note_on,37,0,0,,,,,,,,,0,,,58,0
112640,note_on,3,0,0,,,,,,,,,0,,,53,79
112652,note_on,44,0,1,,,,,,,,,0,,,49,0
112656,note_on,4,0,1,,,,,,,,,0,,,46,78
112677,note_on,37,0,0,,,,,,,,,0,,,53,0
112680,note_on,3,0,0,,,,,,,,,0,,,58,78
112700,note_on,44,0,1,,,,,,,,,0,,,46,0
112704,note_on,4,0,1,,,,,,,,,0,,,49,77
112717,note_on,37,0,0,,,,,,,,,0,,,58,0
112720,note_on,3,0,0,,,,,,,,,0,,,53,77
112748,note_on,44,0,1,,,,,,,,,0,,,49,0
112752,note_on,4,0,1,,,,,,,,,0,,,46,76
112757,note_on,37,0,0,,,,,,,,,0,,,53,0
112760,note_on,3,0,0,,,,,,,,,0,,,58,75
112775,note_on,15,0,0,,,,,,,,,0,,,65,0
112787,note_on,35,0,1,,,,,,,,,0,,,41,0
112796,note_on,9,0,1,,,,,,,,,0,,,46,0
112797,note_on,22,0,0,,,,,,,,,0,,,58,0
112800,note_on,3,0,0,,,,,,,,,0,,,53,74
112800,note_on,4,0,1,,,,,,,,,0,,,37,87
112801,control_change,1,0,1,,,,,,,64,0,0,,,,
112802,control_change,1,0,1,,,,,,,64,127,0,,,,
112837,note_on,37,0,0,,,,,,,,,0,,,53,0
112840,note_on,3,0,0,,,,,,,,,0,,,58,74
112848,note_on,46,0,1,,,,,,,,,0,,,49,74
112877,note_on,37,0,0,,,,,,,,,0,,,58,0
112880,note_on,3,0,0,,,,,,,,,0,,,53,73
112892,note_on,44,0,1,,,,,,,,,0,,,49,0
112896,note_on,4,0,1,,,,,,,,,0,,,46,73
112917,note_on,37,0,0,,,,,,,,,0,,,53,0
112920,note_on,3,0,0,,,,,,,,,0,,,58,72
112940,note_on,44,0,1,,,,,,,,,0,,,46,0
112944,note_on,4,0,1,,,,,,,,,0,,,49,71
112957,note_on,37,0,0,,,,,,,,,0,,,58,0
112960,note_on,3,0,0,,,,,,,,,0,,,53,71
112988,note_on,44,0,1,,,,,,,,,0,,,49,0
112992,note_on,4,0,1,,,,,,,,,0,,,46,70
112997,note_on,37,0,0,,,,,,,,,0,,,53,0
113000,note_on,3,0,0,,,,,,,,,0,,,58,70
113027,note_on,35,0,1,,,,,,,,,0,,,37,0
113036,note_on,9,0,1,,,,,,,,,0,,,46,0
113037,note_on,37,0,0,,,,,,,,,0,,,58,0
113040,note_on,4,0,1,,,,,,,,,0,,,34,88
113040,note_on,0,0,0,,,,,,,,,0,,,65,80
113040,note_on,0,0,0,,,,,,,,,0,,,61,68
113040,set_tempo,3,1,0,,,,,,1200000,,,,,,,
113041,control_change,1,0,1,,,,,,,64,0,0,,,,
113042,control_change,1,0,1,,,,,,,64,127,0,,,,
113084,note_on,44,0,0,,,,,,,,,0,,,61,0
113088,note_on,4,0,0,,,,,,,,,0,,,53,68
113088,note_on,46,0,1,,,,,,,,,0,,,49,68
113132,note_on,44,0,0,,,,,,,,,0,,,53,0
113132,note_on,44,0,1,,,,,,,,,0,,,49,0
113136,note_on,4,0,0,,,,,,,,,0,,,58,68
113136,note_on,4,0,1,,,,,,,,,0,,,46,68
113180,note_on,44,0,1,,,,,,,,,0,,,46,0
113180,note_on,44,0,0,,,,,,,,,0,,,58,0
113184,note_on,4,0,0,,,,,,,,,0,,,53,68
113184,note_on,4,0,1,,,,,,,,,0,,,49,68
113228,note_on,44,0,0,,,,,,,,,0,,,53,0
113228,note_on,44,0,1,,,,,,,,,0,,,49,0
113232,note_on,4,0,0,,,,,,,,,0,,,58,68
113232,note_on,4,0,1,,,,,,,,,0,,,46,68
113267,note_on,35,0,1,,,,,,,,,0,,,34,0
113276,note_on,44,0,0,,,,,,,,,0,,,58,0
113276,note_on,9,0,1,,,,,,,,,0,,,46,0
113280,note_on,4,0,1,,,,,,,,,0,,,40,89
113280,note_on,4,0,0,,,,,,,,,0,,,53,69
113281,control_change,1,0,1,,,,,,,64,0,0,,,,
113282,control_change,1,0,1,,,,,,,64,127,0,,,,
113317,note_on,37,0,0,,,,,,,,,0,,,53,0
113320,note_on,3,0,0,,,,,,,,,0,,,58,70
113328,note_on,46,0,1,,,,,,,,,0,,,49,70
113357,note_on,37,0,0,,,,,,,,,0,,,58,0
113360,note_on,3,0,0,,,,,,,,,0,,,53,71
113372,note_on,44,0,1,,,,,,,,,0,,,49,0
113376,note_on,4,0,1,,,,,,,,,0,,,46,72
113397,note_on,37,0,0,,,,,,,,,0,,,53,0
113400,note_on,3,0,0,,,,,,,,,0,,,58,72
113420,note_on,44,0,1,,,,,,,,,0,,,46,0
113424,note_on,4,0,1,,,,,,,,,0,,,49,73
113437,note_on,37,0,0,,,,,,,,,0,,,58,0
113440,note_on,3,0,0,,,,,,,,,0,,,53,73
113468,note_on,44,0,1,,,,,,,,,0,,,49,0
113472,note_on,4,0,1,,,,,,,,,0,,,46,74
113477,note_on,37,0,0,,,,,,,,,0,,,53,0
113480,note_on,3,0,0,,,,,,,,,0,,,58,74
113495,note_on,15,0,0,,,,,,,,,0,,,65,0
113507,note_on,35,0,1,,,,,,,,,0,,,40,0
113516,note_on,9,0,1,,,,,,,,,0,,,46,0
113517,note_on,22,0,0,,,,,,,,,0,,,58,0
113520,note_on,4,0,1,,,,,,,,,0,,,41,96
113520,note_on,3,0,0,,,,,,,,,0,,,53,75
113521,control_change,1,0,1,,,,,,,64,0,0,,,,
113522,control_change,1,0,1,,,,,,,64,127,0,,,,
113557,note_on,37,0,0,,,,,,,,,0,,,53,0
113560,note_on,3,0,0,,,,,,,,,0,,,58,76
113568,note_on,46,0,1,,,,,,,,,0,,,49,76
113597,note_on,37,0,0,,,,,,,,,0,,,58,0
113600,note_on,3,0,0,,,,,,,,,0,,,53,77
113612,note_on,44,0,1,,,,,,,,,0,,,49,0
113616,note_on,4,0,1,,,,,,,,,0,,,46,77
113637,note_on,37,0,0,,,,,,,,,0,,,53,0
113640,note_on,3,0,0,,,,,,,,,0,,,58,78
113660,note_on,44,0,1,,,,,,,,,0,,,46,0
113664,note_on,4,0,1,,,,,,,,,0,,,49,79
113677,note_on,37,0,0,,,,,,,,,0,,,58,0
113680,note_on,3,0,0,,,,,,,,,0,,,53,79
113708,note_on,44,0,1,,,,,,,,,0,,,49,0
113712,note_on,4,0,1,,,,,,,,,0,,,46,80
113717,note_on,37,0,0,,,,,,,,,0,,,53,0
113720,note_on,3,0,0,,,,,,,,,0,,,58,80
113747,note_on,35,0,1,,,,,,,,,0,,,41,0
113756,note_on,9,0,1,,,,,,,,,0,,,46,0
113757,note_on,37,0,0,,,,,,,,,0,,,58,0
113760,set_tempo,3,1,0,,,,,,1333333,,,,,,,
113760,note_on,0,0,0,,,,,,,,,0,,,65,95
113760,note_on,0,0,0,,,,,,,,,0,,,61,81
113760,note_on,4,0,1,,,,,,,,,0,,,42,104
113761,control_change,1,0,1,,,,,,,64,0,0,,,,
113762,control_change,1,0,1,,,,,,,64,127,0,,,,
113804,note_on,44,0,0,,,,,,,,,0,,,61,0
113808,note_on,46,0,1,,,,,,,,,0,,,49,81
113808,note_on,4,0,0,,,,,,,,,0,,,53,81
113852,note_on,44,0,1,,,,,,,,,0,,,49,0
113852,note_on,44,0,0,,,,,,,,,0,,,53,0
113856,note_on,4,0,1,,,,,,,,,0,,,46,81
113856,note_on,4,0,0,,,,,,,,,0,,,58,81
113900,note_on,44,0,0,,,,,,,,,0,,,58,0
113900,note_on,44,0,1,,,,,,,,,0,,,46,0
113904,note_on,4,0,1,,,,,,,,,0,,,49,81
113904,note_on,4,0,0,,,,,,,,,0,,,53,81
113948,note_on,44,0,0,,,,,,,,,0,,,53,0
113948,note_on,44,0,1,,,,,,,,,0,,,49,0
113952,note_on,4,0,1,,,,,,,,,0,,,46,81
113952,note_on,4,0,0,,,,,,,,,0,,,58,81
113987,note_on,35,0,1,,,,,,,,,0,,,42,0
113996,note_on,9,0,1,,,,,,,,,0,,,46,0
113996,note_on,44,0,0,,,,,,,,,0,,,58,0
114000,note_on,0,0,0,,,,,,,,,0,,,53,81
114000,note_on,4,0,1,,,,,,,,,0,,,41,104
114000,set_tempo,4,1,0,,,,,,1499999,,,,,,,
114001,control_change,1,0,1,,,,,,,64,0,0,,,,
114002,control_change,1,0,1,,,,,,,64,127,0,,,,
114037,note_on,37,0,0,,,,,,,,,0,,,53,0
114040,note_on,3,0,0,,,,,,,,,0,,,58,80
114048,note_on,46,0,1,,,,,,,,,0,,,49,80
114077,note_on,37,0,0,,,,,,,,,0,,,58,0
114080,note_on,3,0,0,,,,,,,,,0,,,53,80
114092,note_on,44,0,1,,,,,,,,,0,,,49,0
114096,note_on,4,0,1,,,,,,,,,0,,,46,79
114117,note_on,37,0,0,,,,,,,,,0,,,53,0
114120,note_on,3,0,0,,,,,,,,,0,,,58,79
114140,note_on,44,0,1,,,,,,,,,0,,,46,0
114144,note_on,4,0,1,,,,,,,,,0,,,49,78
114157,note_on,37,0,0,,,,,,,,,0,,,58,0
114160,note_on,3,0,0,,,,,,,,,0,,,53,77
114188,note_on,44,0,1,,,,,,,,,0,,,49,0
114192,note_on,4,0,1,,,,,,,,,0,,,46,76
114197,note_on,37,0,0,,,,,,,,,0,,,53,0
114200,note_on,3,0,0,,,,,,,,,0,,,58,76
114215,note_on,15,0,0,,,,,,,,,0,,,65,0
114227,note_on,35,0,1,,,,,,,,,0,,,41,0
114236,note_on,9,0,1,,,,,,,,,0,,,46,0
114237,note_on,22,0,0,,,,,,,,,0,,,58,0
114240,note_on,4,0,1,,,,,,,,,0,,,37,96
114240,note_on,0,0,0,,,,,,,,,0,,,53,75
114240,set_tempo,3,1,0,,,,,,1714287,,,,,,,
114241,control_change,1,0,1,,,,,,,64,0,0,,,,
114242,control_change,1,0,1,,,,,,,64,127,0,,,,
114277,note_on,37,0,0,,,,,,,,,0,,,53,0
114280,note_on,3,0,0,,,,,,,,,0,,,58,74
114288,note_on,46,0,1,,,,,,,,,0,,,49,74
114317,note_on,37,0,0,,,,,,,,,0,,,58,0
114320,note_on,3,0,0,,,,,,,,,0,,,53,73
114332,note_on,44,0,1,,,,,,,,,0,,,49,0
114336,note_on,4,0,1,,,,,,,,,0,,,46,73
114357,note_on,37,0,0,,,,,,,,,0,,,53,0
114360,note_on,3,0,0,,,,,,,,,0,,,58,72
114380,note_on,44,0,1,,,,,,,,,0,,,46,0
114384,note_on,4,0,1,,,,,,,,,0,,,49,71
114384,set_tempo,24,1,0,,,,,,2000000,,,,,,,
114397,note_on,13,0,0,,,,,,,,,0,,,58,0
114400,note_on,3,0,0,,,,,,,,,0,,,53,71
114428,note_on,44,0,1,,,,,,,,,0,,,49,0
114432,note_on,4,0,1,,,,,,,,,0,,,46,70
114437,note_on,37,0,0,,,,,,,,,0,,,53,0
114440,note_on,3,0,0,,,,,,,,,0,,,58,70
114467,note_on,35,0,1,,,,,,,,,0,,,37,0
114476,note_on,9,0,1,,,,,,,,,0,,,46,0
114477,note_on,37,0,0,,,,,,,,,0,,,58,0
114480,note_on,4,0,1,,,,,,,,,0,,,34,88
114480,set_tempo,3,1,0,,,,,,3000003,,,,,,,
114481,control_change,1,0,1,,,,,,,64,0,0,,,,
114482,control_change,1,0,1,,,,,,,64,127,0,,,,
114593,note_on,111,0,1,,,,,,,,,0,,,34,0
114600,note_on,0,0,1,,,,,,,,,0,,,49,80
114600,set_tempo,120,1,0,,,,,,1499999,,,,,,,
114600,note_on,7,0,1,,,,,,,,,0,,,41,80
114600,note_on,0,0,1,,,,,,,,,0,,,46,80
114713,note_on,0,0,1,,,,,,,,,0,,,46,0
114713,note_on,0,0,1,,,,,,,,,0,,,49,0
114713,note_on,113,0,1,,,,,,,,,0,,,41,0
114720,note_on,0,0,1,,,,,,,,,0,,,58,83
114720,note_on,0,0,1,,,,,,,,,0,,,61,83
114720,note_on,7,0,1,,,,,,,,,0,,,53,83
114720,set_tempo,120,1,0,,,,,,1200000,,,,,,,
114720,note_on,0,0,1,,,,,,,,,0,,,65,83
114833,note_on,0,0,1,,,,,,,,,0,,,65,0
114833,note_on,113,0,1,,,,,,,,,0,,,53,0
114833,note_on,0,0,1,,,,,,,,,0,,,58,0
114833,note_on,0,0,1,,,,,,,,,0,,,61,0
114840,note_on,7,0,1,,,,,,,,,0,,,53,87
114840,note_on,0,0,1,,,,,,,,,0,,,61,87
114840,note_on,0,0,1,,,,,,,,,0,,,58,87
114953,note_on,113,0,1,,,,,,,,,0,,,53,0
114953,note_on,0,0,1,,,,,,,,,0,,,61,0
114953,note_on,0,0,1,,,,,,,,,0,,,58,0
114960,note_on,7,0,1,,,,,,,,,0,,,65,90
114960,note_on,0,0,1,,,,,,,,,0,,,77,90
114960,note_on,0,0,1,,,,,,,,,0,,,73,90
114960,note_on,0,0,1,,,,,,,,,0,,,70,90
114960,set_tempo,240,1,0,,,,,,1000000,,,,,,,
115073,note_on,0,0,1,,,,,,,,,0,,,77,0
115073,note_on,0,0,1,,,,,,,,,0,,,73,0
115073,note_on,0,0,1,,,,,,,,,0,,,70,0
115073,note_on,113,0,1,,,,,,,,,0,,,65,0
115080,note_on,7,0,1,,,,,,,,,0,,,65,94
115080,note_on,0,0,1,,,,,,,,,0,,,70,94
115080,note_on,0,0,1,,,,,,,,,0,,,73,94
115193,note_on,113,0,1,,,,,,,,,0,,,65,0
115193,note_on,0,0,1,,,,,,,,,0,,,70,0
115193,note_on,0,0,1,,,,,,,,,0,,,73,0
115200,set_tempo,240,1,0,,,,,,1200000,,,,,,,
115200,note_on,0,0,1,,,,,,,,,0,,,82,97
115200,note_on,0,0,1,,,,,,,,,0,,,85,97
115200,note_on,0,0,1,,,,,,,,,0,,,89,97
115200,note_on,7,0,1,,,,,,,,,0,,,77,97
115313,note_on,113,0,1,,,,,,,,,0,,,77,0
115313,note_on,0,0,1,,,,,,,,,0,,,82,0
115313,note_on,0,0,1,,,,,,,,,0,,,85,0
115313,note_on,0,0,1,,,,,,,,,0,,,89,0
115320,note_on,7,0,1,,,,,,,,,0,,,77,101
115320,note_on,0,0,1,,,,,,,,,0,,,85,101
115320,note_on,0,0,1,,,,,,,,,0,,,82,101
115320,set_tempo,120,1,0,,,,,,1499999,,,,,,,
115433,note_on,113,0,1,,,,,,,,,0,,,77,0
115433,note_on,0,0,1,,,,,,,,,0,,,82,0
115433,note_on,0,0,1,,,,,,,,,0,,,85,0
115440,note_on,0,0,0,,,,,,,,,0,,,94,105
115440,set_tempo,120,1,0,,,,,,3000003,,,,,,,
115440,note_on,0,0,0,,,,,,,,,0,,,89,105
115440,note_on,0,0,0,,,,,,,,,0,,,97,105
115440,note_on,0,0,0,,,,,,,,,0,,,101,105
115478,note_on,38,0,0,,,,,,,,,0,,,89,0
115478,note_on,0,0,0,,,,,,,,,0,,,97,0
115478,note_on,0,0,0,,,,,,,,,0,,,101,0
115478,note_on,0,0,0,,,,,,,,,0,,,94,0
115680,note_on,247,0,1,,,,,,,,,0,,,53,112
115680,note_on,0,0,0,,,,,,,,,0,,,70,112
115680,note_on,0,0,0,,,,,,,,,0,,,73,112
115680,note_on,0,0,0,,,,,,,,,0,,,77,112
115680,note_on,0,0,1,,,,,,,,,0,,,58,112
115680,note_on,0,0,1,,,,,,,,,0,,,61,112
115680,note_on,202,0,0,,,,,,,,,0,,,65,112
115920,set_tempo,240,1,0,,,,,,1499999,,,,,,,
117275,note_on,0,0,0,,,,,,,,,0,,,77,0
117275,note_on,0,0,0,,,,,,,,,0,,,73,0
117275,note_on,0,0,1,,,,,,,,,0,,,61,0
117275,note_on,1355,0,0,,,,,,,,,0,,,65,0
117275,note_on,1595,0,1,,,,,,,,,0,,,53,0
117275,note_on,0,0,1,,,,,,,,,0,,,58,0
117275,note_on,0,0,0,,,,,,,,,0,,,70,0
117276,end_of_track,1,1,0,,,,,,,,,,,,,
117360,control_change,85,0,1,,,,,,,64,0,0,,,,
117361,end_of_track,1,1,1,,,,,,,,,,,,,
