tick,type,numerator,denominator,clocks_per_click,notated_32nd_notes_per_beat,time,meta,track,key,tempo,control,value,channel,program,port,note,velocity
0,control_change,,,,,0,0,0,,,7,100,0,,,,
0,midi_port,,,,,0,1,0,,,,,,,0,,
0,midi_port,,,,,0,1,1,,,,,,,0,,
0,note_on,,,,,0,0,0,,,,,0,,,64,80
0,time_signature,3,8,24,8,0,1,0,,,,,,,,,
0,key_signature,,,,,0,1,1,C,,,,,,,,
0,program_change,,,,,0,0,0,,,,,0,0,,,
0,key_signature,,,,,0,1,0,C,,,,,,,,
0,control_change,,,,,0,0,0,,,121,0,0,,,,
0,control_change,,,,,0,0,0,,,93,0,0,,,,
0,control_change,,,,,0,0,0,,,91,0,0,,,,
0,control_change,,,,,0,0,0,,,10,64,0,,,,
0,set_tempo,,,,,0,1,0,,300000,,,,,,,
78,note_on,,,,,78,0,0,,,,,0,,,64,0
240,note_on,,,,,162,0,0,,,,,0,,,64,80
318,note_on,,,,,78,0,0,,,,,0,,,64,0
480,note_on,,,,,162,0,0,,,,,0,,,64,80
558,note_on,,,,,78,0,0,,,,,0,,,64,0
720,set_tempo,,,,,0,1,0,,600001,,,,,,,
720,note_on,,,,,0,0,0,,,,,0,,,64,96
720,time_signature,3,4,24,8,162,1,0,,,,,,,,,
1439,set_tempo,,,,,719,1,0,,300000,,,,,,,
1439,note_on,,,,,0,0,0,,,,,0,,,64,0
1440,note_on,,,,,1,0,0,,,,,0,,,64,80
1440,note_on,,,,,0,0,0,,,,,0,,,65,80
1518,note_on,,,,,78,0,0,,,,,0,,,64,0
1518,note_on,,,,,0,0,0,,,,,0,,,65,0
1680,note_on,,,,,0,0,0,,,,,0,,,65,80
1680,note_on,,,,,162,0,0,,,,,0,,,64,80
1758,note_on,,,,,78,0,0,,,,,0,,,64,0
1758,note_on,,,,,0,0,0,,,,,0,,,65,0
1920,note_on,,,,,0,0,0,,,,,0,,,65,80
1920,note_on,,,,,162,0,0,,,,,0,,,64,80
1998,note_on,,,,,78,0,0,,,,,0,,,64,0
1998,note_on,,,,,0,0,0,,,,,0,,,65,0
2160,note_on,,,,,0,0,0,,,,,0,,,65,96
2160,set_tempo,,,,,162,1,0,,600001,,,,,,,
2160,note_on,,,,,0,0,0,,,,,0,,,64,96
2879,note_on,,,,,0,0,0,,,,,0,,,64,0
2879,note_on,,,,,0,0,0,,,,,0,,,65,0
2879,set_tempo,,,,,719,1,0,,300000,,,,,,,
2880,note_on,,,,,0,0,0,,,,,0,,,70,80
2880,note_on,,,,,1,0,0,,,,,0,,,62,80
2882,control_change,,,,,2,0,0,,,64,127,0,,,,
3000,note_on,,,,,3000,0,1,,,,,0,,,64,80
3000,note_on,,,,,0,0,1,,,,,0,,,65,80
3107,note_on,,,,,225,0,0,,,,,0,,,62,0
3107,note_on,,,,,0,0,0,,,,,0,,,70,0
3113,note_on,,,,,0,0,1,,,,,0,,,65,0
3113,note_on,,,,,113,0,1,,,,,0,,,64,0
3120,note_on,,,,,0,0,0,,,,,0,,,70,80
3120,note_on,,,,,13,0,0,,,,,0,,,62,80
3240,note_on,,,,,0,0,1,,,,,0,,,65,80
3240,note_on,,,,,127,0,1,,,,,0,,,64,80
3347,note_on,,,,,227,0,0,,,,,0,,,62,0
3347,note_on,,,,,0,0,0,,,,,0,,,70,0
3353,note_on,,,,,113,0,1,,,,,0,,,64,0
3353,note_on,,,,,0,0,1,,,,,0,,,65,0
3360,note_on,,,,,0,0,0,,,,,0,,,70,80
3360,note_on,,,,,13,0,0,,,,,0,,,62,80
3480,note_on,,,,,127,0,1,,,,,0,,,64,80
3480,note_on,,,,,0,0,1,,,,,0,,,65,80
3587,note_on,,,,,227,0,0,,,,,0,,,62,0
3587,note_on,,,,,0,0,0,,,,,0,,,70,0
3600,note_on,,,,,0,0,0,,,,,0,,,70,96
3600,note_on,,,,,13,0,0,,,,,0,,,62,96
4277,note_on,,,,,797,0,1,,,,,0,,,64,0
4277,note_on,,,,,0,0,1,,,,,0,,,65,0
4319,note_on,,,,,719,0,0,,,,,0,,,62,0
4319,note_on,,,,,0,0,0,,,,,0,,,70,0
4320,note_on,,,,,0,0,0,,,,,0,,,71,80
4320,note_on,,,,,1,0,0,,,,,0,,,62,80
4321,control_change,,,,,1,0,0,,,64,0,0,,,,
4322,control_change,,,,,1,0,0,,,64,127,0,,,,
4440,note_on,,,,,163,0,1,,,,,0,,,64,85
4440,note_on,,,,,0,0,1,,,,,0,,,65,85
4440,note_on,,,,,0,0,1,,,,,0,,,68,85
4547,note_on,,,,,225,0,0,,,,,0,,,62,0
4547,note_on,,,,,0,0,0,,,,,0,,,71,0
4553,note_on,,,,,0,0,1,,,,,0,,,68,0
4553,note_on,,,,,0,0,1,,,,,0,,,65,0
4553,note_on,,,,,113,0,1,,,,,0,,,64,0
4560,note_on,,,,,13,0,0,,,,,0,,,62,90
4560,note_on,,,,,0,0,0,,,,,0,,,71,90
4680,note_on,,,,,127,0,1,,,,,0,,,64,96
4680,note_on,,,,,0,0,1,,,,,0,,,68,96
4680,note_on,,,,,0,0,1,,,,,0,,,65,96
4787,note_on,,,,,227,0,0,,,,,0,,,62,0
4787,note_on,,,,,0,0,0,,,,,0,,,71,0
4793,note_on,,,,,113,0,1,,,,,0,,,64,0
4793,note_on,,,,,0,0,1,,,,,0,,,68,0
4793,note_on,,,,,0,0,1,,,,,0,,,65,0
4800,note_on,,,,,0,0,0,,,,,0,,,71,101
4800,note_on,,,,,13,0,0,,,,,0,,,62,101
4920,note_on,,,,,127,0,1,,,,,0,,,64,106
4920,note_on,,,,,0,0,1,,,,,0,,,68,106
4920,note_on,,,,,0,0,1,,,,,0,,,65,106
5027,note_on,,,,,0,0,0,,,,,0,,,71,0
5027,note_on,,,,,227,0,0,,,,,0,,,62,0
5033,note_on,,,,,0,0,1,,,,,0,,,65,0
5033,note_on,,,,,0,0,1,,,,,0,,,68,0
5033,note_on,,,,,113,0,1,,,,,0,,,64,0
5040,note_on,,,,,0,0,0,,,,,0,,,71,112
5040,note_on,,,,,13,0,0,,,,,0,,,62,112
5041,control_change,,,,,1,0,0,,,64,0,0,,,,
5160,note_on,,,,,0,0,1,,,,,0,,,68,112
5160,note_on,,,,,127,0,1,,,,,0,,,64,112
5160,note_on,,,,,0,0,1,,,,,0,,,65,112
5267,note_on,,,,,226,0,0,,,,,0,,,62,0
5267,note_on,,,,,0,0,0,,,,,0,,,71,0
5273,note_on,,,,,113,0,1,,,,,0,,,64,0
5273,note_on,,,,,0,0,1,,,,,0,,,68,0
5273,note_on,,,,,0,0,1,,,,,0,,,65,0
5280,note_on,,,,,13,0,0,,,,,0,,,62,112
5280,note_on,,,,,0,0,0,,,,,0,,,71,112
5400,note_on,,,,,127,0,1,,,,,0,,,64,112
5400,note_on,,,,,0,0,1,,,,,0,,,65,112
5400,note_on,,,,,0,0,1,,,,,0,,,69,112
5507,note_on,,,,,227,0,0,,,,,0,,,62,0
5507,note_on,,,,,0,0,0,,,,,0,,,71,0
5513,note_on,,,,,113,0,1,,,,,0,,,64,0
5513,note_on,,,,,0,0,1,,,,,0,,,65,0
5513,note_on,,,,,0,0,1,,,,,0,,,69,0
5520,note_on,,,,,13,0,0,,,,,0,,,62,112
5520,note_on,,,,,0,0,0,,,,,0,,,71,112
5640,note_on,,,,,127,0,1,,,,,0,,,64,112
5640,note_on,,,,,0,0,1,,,,,0,,,65,112
5640,note_on,,,,,0,0,1,,,,,0,,,69,112
5747,note_on,,,,,0,0,0,,,,,0,,,71,0
5747,note_on,,,,,227,0,0,,,,,0,,,62,0
5753,note_on,,,,,113,0,1,,,,,0,,,64,0
5753,note_on,,,,,0,0,1,,,,,0,,,69,0
5753,note_on,,,,,0,0,1,,,,,0,,,65,0
5760,note_on,,,,,13,0,0,,,,,0,,,63,112
5760,note_on,,,,,0,0,0,,,,,0,,,71,112
5880,note_on,,,,,0,0,1,,,,,0,,,69,112
5880,note_on,,,,,127,0,1,,,,,0,,,64,112
5880,note_on,,,,,0,0,1,,,,,0,,,66,112
5987,note_on,,,,,227,0,0,,,,,0,,,63,0
5987,note_on,,,,,0,0,0,,,,,0,,,71,0
5993,note_on,,,,,0,0,1,,,,,0,,,66,0
5993,note_on,,,,,113,0,1,,,,,0,,,64,0
5993,note_on,,,,,0,0,1,,,,,0,,,69,0
6000,note_on,,,,,0,0,0,,,,,0,,,71,112
6000,note_on,,,,,13,0,0,,,,,0,,,63,112
6120,note_on,,,,,0,0,1,,,,,0,,,69,112
6120,note_on,,,,,127,0,1,,,,,0,,,64,112
6120,note_on,,,,,0,0,1,,,,,0,,,66,112
6227,note_on,,,,,0,0,0,,,,,0,,,71,0
6227,note_on,,,,,227,0,0,,,,,0,,,63,0
6233,note_on,,,,,0,0,1,,,,,0,,,66,0
6233,note_on,,,,,113,0,1,,,,,0,,,64,0
6233,note_on,,,,,0,0,1,,,,,0,,,69,0
6240,note_on,,,,,13,0,0,,,,,0,,,63,112
6240,note_on,,,,,0,0,0,,,,,0,,,71,112
6360,note_on,,,,,127,0,1,,,,,0,,,64,112
6360,note_on,,,,,0,0,1,,,,,0,,,66,112
6360,note_on,,,,,0,0,1,,,,,0,,,69,112
6467,note_on,,,,,227,0,0,,,,,0,,,63,0
6467,note_on,,,,,0,0,0,,,,,0,,,71,0
6480,note_on,,,,,0,0,0,,,,,0,,,71,112
6480,note_on,,,,,13,0,0,,,,,0,,,63,112
6558,note_on,,,,,0,0,0,,,,,0,,,71,0
6558,note_on,,,,,78,0,0,,,,,0,,,63,0
6701,note_on,,,,,0,0,1,,,,,0,,,69,0
6701,note_on,,,,,341,0,1,,,,,0,,,64,0
6701,note_on,,,,,0,0,1,,,,,0,,,66,0
6960,note_on,,,,,0,0,0,,,,,0,,,80,112
6960,note_on,,,,,0,0,0,,,,,0,,,88,112
6960,note_on,,,,,0,0,1,,,,,0,,,44,112
6960,note_on,,,,,0,0,1,,,,,0,,,47,112
6960,note_on,,,,,0,0,1,,,,,0,,,52,112
6960,note_on,,,,,0,0,0,,,,,0,,,83,112
6960,note_on,,,,,259,0,1,,,,,0,,,40,112
6960,note_on,,,,,402,0,0,,,,,0,,,76,112
7038,note_on,,,,,0,0,0,,,,,0,,,83,0
7038,note_on,,,,,78,0,0,,,,,0,,,76,0
7038,note_on,,,,,78,0,1,,,,,0,,,40,0
7038,note_on,,,,,0,0,1,,,,,0,,,52,0
7038,note_on,,,,,0,0,0,,,,,0,,,88,0
7038,note_on,,,,,0,0,0,,,,,0,,,80,0
7038,note_on,,,,,0,0,1,,,,,0,,,44,0
7038,note_on,,,,,0,0,1,,,,,0,,,47,0
7920,set_tempo,,,,,882,1,0,,333333,,,,,,,
8640,note_on,,,,,1602,0,1,,,,,0,,,52,74
8640,note_on,,,,,0,0,1,,,,,0,,,64,74
8759,note_on,,,,,119,0,1,,,,,0,,,52,0
8759,note_on,,,,,0,0,1,,,,,0,,,64,0
8760,note_on,,,,,0,0,0,,,,,0,,,76,74
8760,note_on,,,,,840,0,0,,,,,0,,,64,74
8873,note_on,,,,,0,0,0,,,,,0,,,76,0
8873,note_on,,,,,113,0,0,,,,,0,,,64,0
8880,note_on,,,,,0,0,1,,,,,0,,,64,74
8880,note_on,,,,,121,0,1,,,,,0,,,51,74
8999,note_on,,,,,0,0,1,,,,,0,,,64,0
8999,note_on,,,,,119,0,1,,,,,0,,,51,0
9000,note_on,,,,,0,0,0,,,,,0,,,78,74
9000,note_on,,,,,127,0,0,,,,,0,,,66,74
9113,note_on,,,,,0,0,0,,,,,0,,,78,0
9113,note_on,,,,,113,0,0,,,,,0,,,66,0
9120,note_on,,,,,0,0,1,,,,,0,,,64,74
9120,note_on,,,,,121,0,1,,,,,0,,,50,74
9239,note_on,,,,,119,0,1,,,,,0,,,50,0
9239,note_on,,,,,0,0,1,,,,,0,,,64,0
9240,note_on,,,,,127,0,0,,,,,0,,,68,74
9240,note_on,,,,,0,0,0,,,,,0,,,80,74
9353,note_on,,,,,0,0,0,,,,,0,,,80,0
9353,note_on,,,,,113,0,0,,,,,0,,,68,0
9360,note_on,,,,,0,0,1,,,,,0,,,64,88
9360,note_on,,,,,121,0,1,,,,,0,,,48,74
9480,note_on,,,,,0,0,0,,,,,0,,,81,74
9480,note_on,,,,,127,0,0,,,,,0,,,69,74
9593,note_on,,,,,113,0,0,,,,,0,,,69,0
9593,note_on,,,,,0,0,0,,,,,0,,,81,0
9599,note_on,,,,,239,0,1,,,,,0,,,48,0
9600,note_on,,,,,1,0,1,,,,,0,,,47,74
9719,note_on,,,,,119,0,1,,,,,0,,,47,0
9720,note_on,,,,,127,0,0,,,,,0,,,71,74
9720,note_on,,,,,0,0,0,,,,,0,,,83,74
9833,note_on,,,,,0,0,0,,,,,0,,,83,0
9833,note_on,,,,,113,0,0,,,,,0,,,71,0
9840,note_on,,,,,121,0,1,,,,,0,,,45,74
9959,note_on,,,,,119,0,1,,,,,0,,,45,0
9960,note_on,,,,,0,0,0,,,,,0,,,84,74
9960,note_on,,,,,127,0,0,,,,,0,,,72,74
10073,note_on,,,,,113,0,0,,,,,0,,,72,0
10073,note_on,,,,,0,0,0,,,,,0,,,84,0
10079,note_on,,,,,120,0,1,,,,,0,,,64,0
10080,note_on,,,,,0,0,1,,,,,0,,,52,74
10080,note_on,,,,,1,0,1,,,,,0,,,48,74
10199,note_on,,,,,119,0,1,,,,,0,,,48,0
10199,note_on,,,,,0,0,1,,,,,0,,,52,0
10200,note_on,,,,,127,0,0,,,,,0,,,69,74
10200,note_on,,,,,0,0,0,,,,,0,,,81,74
10313,note_on,,,,,113,0,0,,,,,0,,,69,0
10313,note_on,,,,,0,0,0,,,,,0,,,81,0
10320,note_on,,,,,121,0,1,,,,,0,,,47,75
10320,note_on,,,,,0,0,1,,,,,0,,,52,75
10439,note_on,,,,,119,0,1,,,,,0,,,47,0
10439,note_on,,,,,0,0,1,,,,,0,,,52,0
10440,note_on,,,,,127,0,0,,,,,0,,,71,76
10440,note_on,,,,,0,0,0,,,,,0,,,83,76
10553,note_on,,,,,0,0,0,,,,,0,,,83,0
10553,note_on,,,,,113,0,0,,,,,0,,,71,0
10560,note_on,,,,,121,0,1,,,,,0,,,45,77
10560,note_on,,,,,0,0,1,,,,,0,,,52,77
10679,note_on,,,,,0,0,1,,,,,0,,,52,0
10679,note_on,,,,,119,0,1,,,,,0,,,45,0
10680,note_on,,,,,0,0,0,,,,,0,,,84,78
10680,note_on,,,,,127,0,0,,,,,0,,,72,78
10793,note_on,,,,,0,0,0,,,,,0,,,84,0
10793,note_on,,,,,113,0,0,,,,,0,,,72,0
10800,note_on,,,,,121,0,1,,,,,0,,,44,79
10800,note_on,,,,,0,0,1,,,,,0,,,52,94
10920,note_on,,,,,127,0,0,,,,,0,,,71,79
10920,note_on,,,,,0,0,0,,,,,0,,,83,79
11027,note_on,,,,,227,0,1,,,,,0,,,44,0
11033,note_on,,,,,113,0,0,,,,,0,,,71,0
11033,note_on,,,,,0,0,0,,,,,0,,,83,0
11040,note_on,,,,,13,0,1,,,,,0,,,41,79
11160,note_on,,,,,127,0,0,,,,,0,,,69,78
11160,note_on,,,,,0,0,0,,,,,0,,,81,78
11267,note_on,,,,,227,0,1,,,,,0,,,41,0
11273,note_on,,,,,0,0,0,,,,,0,,,81,0
11273,note_on,,,,,113,0,0,,,,,0,,,69,0
11280,note_on,,,,,13,0,1,,,,,0,,,40,78
11400,note_on,,,,,0,0,0,,,,,0,,,80,77
11400,note_on,,,,,127,0,0,,,,,0,,,68,77
11507,note_on,,,,,227,0,1,,,,,0,,,40,0
11513,note_on,,,,,0,0,0,,,,,0,,,80,0
11513,note_on,,,,,113,0,0,,,,,0,,,68,0
11519,note_on,,,,,12,0,1,,,,,0,,,52,0
11520,note_on,,,,,0,0,1,,,,,0,,,52,77
11520,note_on,,,,,1,0,1,,,,,0,,,42,77
11640,note_on,,,,,127,0,0,,,,,0,,,65,76
11640,note_on,,,,,0,0,0,,,,,0,,,77,76
11747,note_on,,,,,227,0,1,,,,,0,,,42,0
11747,note_on,,,,,0,0,1,,,,,0,,,52,0
11753,note_on,,,,,113,0,0,,,,,0,,,65,0
11753,note_on,,,,,0,0,0,,,,,0,,,77,0
11760,note_on,,,,,0,0,1,,,,,0,,,52,76
11760,note_on,,,,,13,0,1,,,,,0,,,43,76
11880,note_on,,,,,127,0,0,,,,,0,,,64,75
11880,note_on,,,,,0,0,0,,,,,0,,,76,75
11987,note_on,,,,,0,0,1,,,,,0,,,52,0
11987,note_on,,,,,227,0,1,,,,,0,,,43,0
11993,note_on,,,,,113,0,0,,,,,0,,,64,0
11993,note_on,,,,,0,0,0,,,,,0,,,76,0
12000,note_on,,,,,0,0,1,,,,,0,,,52,75
12000,note_on,,,,,13,0,1,,,,,0,,,44,75
12120,note_on,,,,,127,0,0,,,,,0,,,62,74
12120,note_on,,,,,0,0,0,,,,,0,,,74,74
12227,note_on,,,,,227,0,1,,,,,0,,,44,0
12227,note_on,,,,,0,0,1,,,,,0,,,52,0
12233,note_on,,,,,113,0,0,,,,,0,,,62,0
12233,note_on,,,,,0,0,0,,,,,0,,,74,0
12240,note_on,,,,,0,0,1,,,,,0,,,52,74
12240,note_on,,,,,13,0,1,,,,,0,,,45,74
12360,note_on,,,,,127,0,0,,,,,0,,,60,74
12360,note_on,,,,,0,0,0,,,,,0,,,72,74
12467,note_on,,,,,227,0,1,,,,,0,,,45,0
12473,note_on,,,,,0,0,0,,,,,0,,,72,0
12473,note_on,,,,,113,0,0,,,,,0,,,60,0
12480,note_on,,,,,13,0,1,,,,,0,,,47,74
12600,note_on,,,,,0,0,0,,,,,0,,,71,74
12600,note_on,,,,,127,0,0,,,,,0,,,59,74
12707,note_on,,,,,227,0,1,,,,,0,,,47,0
12713,note_on,,,,,0,0,0,,,,,0,,,71,0
12713,note_on,,,,,113,0,0,,,,,0,,,59,0
12720,note_on,,,,,13,0,1,,,,,0,,,48,74
12840,note_on,,,,,0,0,0,,,,,0,,,69,74
12840,note_on,,,,,127,0,0,,,,,0,,,57,74
12923,note_on,,,,,203,0,1,,,,,0,,,52,0
12947,note_on,,,,,24,0,1,,,,,0,,,48,0
12953,note_on,,,,,0,0,0,,,,,0,,,69,0
12953,note_on,,,,,113,0,0,,,,,0,,,57,0
12960,note_on,,,,,0,0,1,,,,,0,,,40,74
12960,note_on,,,,,0,0,1,,,,,0,,,52,74
12960,note_on,,,,,13,0,1,,,,,0,,,45,74
13080,note_on,,,,,127,0,0,,,,,0,,,60,74
13080,note_on,,,,,0,0,0,,,,,0,,,72,74
13187,note_on,,,,,0,0,1,,,,,0,,,52,0
13187,note_on,,,,,227,0,1,,,,,0,,,45,0
13187,note_on,,,,,0,0,1,,,,,0,,,40,0
13193,note_on,,,,,0,0,0,,,,,0,,,72,0
13193,note_on,,,,,113,0,0,,,,,0,,,60,0
13200,note_on,,,,,0,0,1,,,,,0,,,52,74
13200,note_on,,,,,0,0,1,,,,,0,,,40,74
13200,note_on,,,,,13,0,1,,,,,0,,,44,74
13320,note_on,,,,,127,0,0,,,,,0,,,59,74
13320,note_on,,,,,0,0,0,,,,,0,,,71,74
13427,note_on,,,,,0,0,1,,,,,0,,,40,0
13427,note_on,,,,,0,0,1,,,,,0,,,52,0
13427,note_on,,,,,227,0,1,,,,,0,,,44,0
13433,note_on,,,,,113,0,0,,,,,0,,,59,0
13433,note_on,,,,,0,0,0,,,,,0,,,71,0
13440,note_on,,,,,13,0,1,,,,,0,,,41,74
13440,note_on,,,,,0,0,1,,,,,0,,,40,74
13440,note_on,,,,,0,0,1,,,,,0,,,52,74
13560,note_on,,,,,127,0,0,,,,,0,,,57,74
13560,note_on,,,,,0,0,0,,,,,0,,,69,74
13667,note_on,,,,,227,0,1,,,,,0,,,41,0
13667,note_on,,,,,0,0,1,,,,,0,,,52,0
13667,note_on,,,,,0,0,1,,,,,0,,,40,0
13673,note_on,,,,,0,0,0,,,,,0,,,69,0
13673,note_on,,,,,113,0,0,,,,,0,,,57,0
13680,note_on,,,,,0,0,1,,,,,0,,,40,74
13680,note_on,,,,,0,0,1,,,,,0,,,40,0
13680,note_on,,,,,0,0,1,,,,,0,,,52,74
13680,note_on,,,,,13,0,1,,,,,0,,,40,74
13800,note_on,,,,,127,0,0,,,,,0,,,56,74
13800,note_on,,,,,0,0,0,,,,,0,,,68,74
13907,note_on,,,,,227,0,1,,,,,0,,,52,0
13907,note_on,,,,,0,0,1,,,,,0,,,40,0
13913,note_on,,,,,0,0,0,,,,,0,,,68,0
13913,note_on,,,,,113,0,0,,,,,0,,,56,0
13920,note_on,,,,,13,0,1,,,,,0,,,62,74
13920,note_on,,,,,0,0,1,,,,,0,,,64,74
14033,note_on,,,,,0,0,1,,,,,0,,,64,0
14033,note_on,,,,,113,0,1,,,,,0,,,62,0
14040,note_on,,,,,127,0,0,,,,,0,,,59,74
14040,note_on,,,,,0,0,0,,,,,0,,,65,74
14153,note_on,,,,,113,0,0,,,,,0,,,59,0
14153,note_on,,,,,0,0,0,,,,,0,,,65,0
14160,note_on,,,,,0,0,1,,,,,0,,,64,74
14160,note_on,,,,,127,0,1,,,,,0,,,61,74
14273,note_on,,,,,0,0,1,,,,,0,,,64,0
14273,note_on,,,,,113,0,1,,,,,0,,,61,0
14280,note_on,,,,,127,0,0,,,,,0,,,58,74
14280,note_on,,,,,0,0,0,,,,,0,,,65,74
14393,note_on,,,,,0,0,0,,,,,0,,,65,0
14393,note_on,,,,,113,0,0,,,,,0,,,58,0
14400,note_on,,,,,127,0,1,,,,,0,,,60,74
14400,note_on,,,,,0,0,1,,,,,0,,,64,74
14513,note_on,,,,,113,0,1,,,,,0,,,60,0
14513,note_on,,,,,0,0,1,,,,,0,,,64,0
14520,note_on,,,,,127,0,0,,,,,0,,,57,74
14520,note_on,,,,,0,0,0,,,,,0,,,65,74
14633,note_on,,,,,113,0,0,,,,,0,,,57,0
14633,note_on,,,,,0,0,0,,,,,0,,,65,0
14640,note_on,,,,,0,0,1,,,,,0,,,64,74
14640,note_on,,,,,127,0,1,,,,,0,,,59,74
14753,note_on,,,,,0,0,1,,,,,0,,,64,0
14753,note_on,,,,,113,0,1,,,,,0,,,59,0
14760,note_on,,,,,127,0,0,,,,,0,,,56,74
14760,note_on,,,,,0,0,0,,,,,0,,,65,74
14873,note_on,,,,,113,0,0,,,,,0,,,56,0
14873,note_on,,,,,0,0,0,,,,,0,,,65,0
14880,note_on,,,,,0,0,1,,,,,0,,,64,74
14880,note_on,,,,,127,0,1,,,,,0,,,59,74
14993,note_on,,,,,0,0,1,,,,,0,,,64,0
14993,note_on,,,,,113,0,1,,,,,0,,,59,0
15000,note_on,,,,,127,0,0,,,,,0,,,56,74
15000,note_on,,,,,0,0,0,,,,,0,,,65,74
15113,note_on,,,,,113,0,0,,,,,0,,,56,0
15113,note_on,,,,,0,0,0,,,,,0,,,65,0
15120,note_on,,,,,0,0,1,,,,,0,,,64,74
15120,note_on,,,,,127,0,1,,,,,0,,,58,74
15233,note_on,,,,,0,0,1,,,,,0,,,64,0
15233,note_on,,,,,113,0,1,,,,,0,,,58,0
15240,note_on,,,,,0,0,0,,,,,0,,,65,71
15240,note_on,,,,,127,0,0,,,,,0,,,55,71
15353,note_on,,,,,0,0,0,,,,,0,,,65,0
15353,note_on,,,,,113,0,0,,,,,0,,,55,0
15360,note_on,,,,,127,0,1,,,,,0,,,57,68
15360,note_on,,,,,0,0,1,,,,,0,,,64,68
15473,note_on,,,,,0,0,1,,,,,0,,,64,0
15473,note_on,,,,,113,0,1,,,,,0,,,57,0
15480,note_on,,,,,0,0,0,,,,,0,,,65,64
15480,note_on,,,,,127,0,0,,,,,0,,,54,64
15593,note_on,,,,,113,0,0,,,,,0,,,54,0
15593,note_on,,,,,0,0,0,,,,,0,,,65,0
15600,note_on,,,,,127,0,1,,,,,0,,,57,64
15600,note_on,,,,,0,0,1,,,,,0,,,64,64
15713,note_on,,,,,113,0,1,,,,,0,,,57,0
15713,note_on,,,,,0,0,1,,,,,0,,,64,0
15720,note_on,,,,,0,0,0,,,,,0,,,53,74
15720,note_on,,,,,127,0,0,,,,,0,,,65,74
15833,note_on,,,,,0,0,0,,,,,0,,,53,0
15833,note_on,,,,,113,0,0,,,,,0,,,65,0
15840,note_on,,,,,0,0,1,,,,,0,,,64,64
15840,note_on,,,,,127,0,1,,,,,0,,,56,64
15953,note_on,,,,,113,0,1,,,,,0,,,56,0
15953,note_on,,,,,0,0,1,,,,,0,,,64,0
15960,note_on,,,,,127,0,0,,,,,0,,,65,64
15960,note_on,,,,,0,0,0,,,,,0,,,52,64
16073,note_on,,,,,113,0,0,,,,,0,,,65,0
16073,note_on,,,,,0,0,0,,,,,0,,,52,0
16080,note_on,,,,,127,0,1,,,,,0,,,57,64
16080,note_on,,,,,0,0,1,,,,,0,,,64,64
16193,note_on,,,,,113,0,1,,,,,0,,,57,0
16193,note_on,,,,,0,0,1,,,,,0,,,64,0
16200,note_on,,,,,0,0,0,,,,,0,,,53,64
16200,note_on,,,,,127,0,0,,,,,0,,,65,64
16313,note_on,,,,,113,0,0,,,,,0,,,65,0
16313,note_on,,,,,0,0,0,,,,,0,,,53,0
16320,note_on,,,,,0,0,1,,,,,0,,,64,54
16320,note_on,,,,,127,0,1,,,,,0,,,56,54
16433,note_on,,,,,0,0,1,,,,,0,,,64,0
16433,note_on,,,,,113,0,1,,,,,0,,,56,0
16440,note_on,,,,,127,0,0,,,,,0,,,65,54
16440,note_on,,,,,0,0,0,,,,,0,,,52,54
16553,note_on,,,,,113,0,0,,,,,0,,,65,0
16553,note_on,,,,,0,0,0,,,,,0,,,52,0
16560,note_on,,,,,0,0,0,,,,,0,,,60,74
16560,note_on,,,,,0,0,0,,,,,0,,,64,74
16560,set_tempo,,,,,7,1,0,,375000,,,,,,,
16635,note_on,,,,,75,0,0,,,,,0,,,64,0
16639,note_on,,,,,4,0,0,,,,,0,,,60,0
16640,note_on,,,,,1,0,0,,,,,0,,,69,74
16715,note_on,,,,,75,0,0,,,,,0,,,69,0
16720,note_on,,,,,5,0,0,,,,,0,,,68,74
16795,note_on,,,,,75,0,0,,,,,0,,,68,0
16800,note_on,,,,,5,0,0,,,,,0,,,69,74
16800,note_on,,,,,0,0,0,,,,,0,,,64,74
16800,note_on,,,,,367,0,1,,,,,0,,,45,74
16863,note_on,,,,,63,0,1,,,,,0,,,52,74
16875,note_on,,,,,75,0,0,,,,,0,,,69,0
16879,note_on,,,,,4,0,0,,,,,0,,,64,0
16880,note_on,,,,,1,0,0,,,,,0,,,72,74
16927,note_on,,,,,64,0,1,,,,,0,,,60,74
16955,note_on,,,,,75,0,0,,,,,0,,,72,0
16960,note_on,,,,,5,0,0,,,,,0,,,71,74
17035,note_on,,,,,75,0,0,,,,,0,,,71,0
17038,note_on,,,,,0,0,1,,,,,0,,,60,0
17038,note_on,,,,,111,0,1,,,,,0,,,52,0
17039,note_on,,,,,1,0,1,,,,,0,,,45,0
17040,note_on,,,,,1,0,1,,,,,0,,,45,74
17040,note_on,,,,,0,0,0,,,,,0,,,69,74
17040,note_on,,,,,5,0,0,,,,,0,,,72,74
17103,note_on,,,,,63,0,1,,,,,0,,,52,74
17115,note_on,,,,,0,0,0,,,,,0,,,69,0
17115,note_on,,,,,75,0,0,,,,,0,,,72,0
17120,note_on,,,,,5,0,0,,,,,0,,,76,74
17167,note_on,,,,,64,0,1,,,,,0,,,60,74
17195,note_on,,,,,75,0,0,,,,,0,,,76,0
17200,note_on,,,,,5,0,0,,,,,0,,,75,74
17275,note_on,,,,,75,0,0,,,,,0,,,75,0
17278,note_on,,,,,0,0,1,,,,,0,,,60,0
17278,note_on,,,,,111,0,1,,,,,0,,,52,0
17279,note_on,,,,,1,0,1,,,,,0,,,45,0
17280,note_on,,,,,0,0,0,,,,,0,,,72,74
17280,note_on,,,,,5,0,0,,,,,0,,,76,74
17280,note_on,,,,,1,0,1,,,,,0,,,45,74
17343,note_on,,,,,63,0,1,,,,,0,,,52,74
17355,note_on,,,,,75,0,0,,,,,0,,,76,0
17355,note_on,,,,,0,0,0,,,,,0,,,72,0
17360,note_on,,,,,5,0,0,,,,,0,,,81,74
17407,note_on,,,,,64,0,1,,,,,0,,,60,74
17435,note_on,,,,,75,0,0,,,,,0,,,81,0
17440,note_on,,,,,5,0,0,,,,,0,,,80,74
17515,note_on,,,,,75,0,0,,,,,0,,,80,0
17518,note_on,,,,,111,0,1,,,,,0,,,52,0
17518,note_on,,,,,0,0,1,,,,,0,,,60,0
17519,note_on,,,,,1,0,1,,,,,0,,,45,0
17520,note_on,,,,,1,0,1,,,,,0,,,45,74
17520,note_on,,,,,0,0,0,,,,,0,,,76,74
17520,note_on,,,,,5,0,0,,,,,0,,,81,74
17583,note_on,,,,,63,0,1,,,,,0,,,52,74
17595,note_on,,,,,0,0,0,,,,,0,,,76,0
17595,note_on,,,,,75,0,0,,,,,0,,,81,0
17600,note_on,,,,,5,0,0,,,,,0,,,84,74
17647,note_on,,,,,64,0,1,,,,,0,,,60,74
17675,note_on,,,,,75,0,0,,,,,0,,,84,0
17680,note_on,,,,,5,0,0,,,,,0,,,83,74
17755,note_on,,,,,75,0,0,,,,,0,,,83,0
17758,note_on,,,,,111,0,1,,,,,0,,,52,0
17758,note_on,,,,,0,0,1,,,,,0,,,60,0
17759,note_on,,,,,1,0,1,,,,,0,,,45,0
17760,note_on,,,,,0,0,0,,,,,0,,,81,74
17760,note_on,,,,,5,0,0,,,,,0,,,84,74
17835,note_on,,,,,75,0,0,,,,,0,,,84,0
17835,note_on,,,,,0,0,0,,,,,0,,,81,0
17840,note_on,,,,,5,0,0,,,,,0,,,88,74
17915,note_on,,,,,75,0,0,,,,,0,,,88,0
17920,note_on,,,,,5,0,0,,,,,0,,,87,74
17995,note_on,,,,,75,0,0,,,,,0,,,87,0
18000,note_on,,,,,0,0,0,,,,,0,,,84,74
18000,note_on,,,,,5,0,0,,,,,0,,,88,74
18075,note_on,,,,,75,0,0,,,,,0,,,88,0
18079,note_on,,,,,4,0,0,,,,,0,,,84,0
18080,note_on,,,,,1,0,0,,,,,0,,,93,74
18155,note_on,,,,,75,0,0,,,,,0,,,93,0
18160,note_on,,,,,5,0,0,,,,,0,,,92,74
18235,note_on,,,,,75,0,0,,,,,0,,,92,0
18240,note_on,,,,,5,0,0,,,,,0,,,93,74
18240,note_on,,,,,0,0,0,,,,,0,,,88,74
18240,note_on,,,,,481,0,1,,,,,0,,,45,74
18303,note_on,,,,,63,0,1,,,,,0,,,52,74
18315,note_on,,,,,75,0,0,,,,,0,,,93,0
18319,note_on,,,,,4,0,0,,,,,0,,,88,0
18320,note_on,,,,,1,0,0,,,,,0,,,96,74
18367,note_on,,,,,64,0,1,,,,,0,,,60,74
18395,note_on,,,,,75,0,0,,,,,0,,,96,0
18400,note_on,,,,,5,0,0,,,,,0,,,95,74
18475,note_on,,,,,75,0,0,,,,,0,,,95,0
18478,note_on,,,,,111,0,1,,,,,0,,,52,0
18478,note_on,,,,,0,0,1,,,,,0,,,60,0
18479,note_on,,,,,1,0,1,,,,,0,,,45,0
18480,note_on,,,,,1,0,1,,,,,0,,,45,75
18480,note_on,,,,,0,0,0,,,,,0,,,93,75
18480,note_on,,,,,5,0,0,,,,,0,,,96,75
18543,note_on,,,,,63,0,1,,,,,0,,,52,75
18555,note_on,,,,,75,0,0,,,,,0,,,96,0
18555,note_on,,,,,0,0,0,,,,,0,,,93,0
18560,note_on,,,,,5,0,0,,,,,0,,,100,77
18607,note_on,,,,,64,0,1,,,,,0,,,60,75
18635,note_on,,,,,75,0,0,,,,,0,,,100,0
18640,note_on,,,,,5,0,0,,,,,0,,,99,79
18715,note_on,,,,,75,0,0,,,,,0,,,99,0
18718,note_on,,,,,111,0,1,,,,,0,,,52,0
18718,note_on,,,,,0,0,1,,,,,0,,,60,0
18719,note_on,,,,,1,0,1,,,,,0,,,45,0
18720,note_on,,,,,0,0,0,,,,,0,,,96,80
18720,note_on,,,,,0,0,0,,,,,0,,,93,80
18720,note_on,,,,,5,0,0,,,,,0,,,101,80
18720,note_on,,,,,1,0,1,,,,,0,,,45,80
18783,note_on,,,,,63,0,1,,,,,0,,,52,80
18795,note_on,,,,,0,0,0,,,,,0,,,93,0
18795,note_on,,,,,75,0,0,,,,,0,,,101,0
18795,note_on,,,,,0,0,0,,,,,0,,,96,0
18800,note_on,,,,,5,0,0,,,,,0,,,100,82
18847,note_on,,,,,64,0,1,,,,,0,,,60,80
18875,note_on,,,,,75,0,0,,,,,0,,,100,0
18880,note_on,,,,,5,0,0,,,,,0,,,99,84
18955,note_on,,,,,75,0,0,,,,,0,,,99,0
18958,note_on,,,,,111,0,1,,,,,0,,,52,0
18958,note_on,,,,,0,0,1,,,,,0,,,60,0
18959,note_on,,,,,1,0,1,,,,,0,,,45,0
18960,note_on,,,,,5,0,0,,,,,0,,,101,85
18960,note_on,,,,,1,0,1,,,,,0,,,45,85
18960,note_on,,,,,0,0,0,,,,,0,,,96,85
18960,note_on,,,,,0,0,0,,,,,0,,,93,85
19023,note_on,,,,,63,0,1,,,,,0,,,52,85
19035,note_on,,,,,0,0,0,,,,,0,,,96,0
19035,note_on,,,,,0,0,0,,,,,0,,,93,0
19035,note_on,,,,,75,0,0,,,,,0,,,101,0
19040,note_on,,,,,5,0,0,,,,,0,,,100,87
19087,note_on,,,,,64,0,1,,,,,0,,,60,85
19115,note_on,,,,,75,0,0,,,,,0,,,100,0
19120,note_on,,,,,5,0,0,,,,,0,,,99,89
19195,note_on,,,,,75,0,0,,,,,0,,,99,0
19198,note_on,,,,,111,0,1,,,,,0,,,52,0
19198,note_on,,,,,0,0,1,,,,,0,,,60,0
19199,note_on,,,,,1,0,1,,,,,0,,,45,0
19200,note_on,,,,,0,0,0,,,,,0,,,93,90
19200,note_on,,,,,0,0,0,,,,,0,,,96,90
19200,note_on,,,,,5,0,0,,,,,0,,,101,90
19275,note_on,,,,,75,0,0,,,,,0,,,101,0
19275,note_on,,,,,0,0,0,,,,,0,,,93,0
19275,note_on,,,,,0,0,0,,,,,0,,,96,0
19280,note_on,,,,,5,0,0,,,,,0,,,100,92
19355,note_on,,,,,75,0,0,,,,,0,,,100,0
19360,note_on,,,,,5,0,0,,,,,0,,,99,94
19435,note_on,,,,,75,0,0,,,,,0,,,99,0
19440,note_on,,,,,0,0,0,,,,,0,,,89,96
19440,note_on,,,,,241,0,1,,,,,0,,,38,96
19440,note_on,,,,,0,0,0,,,,,0,,,94,96
19440,note_on,,,,,5,0,0,,,,,0,,,101,96
19515,note_on,,,,,75,0,0,,,,,0,,,101,0
19518,note_on,,,,,78,0,1,,,,,0,,,38,0
19520,note_on,,,,,5,0,0,,,,,0,,,98,96
19595,note_on,,,,,75,0,0,,,,,0,,,98,0
19600,note_on,,,,,5,0,0,,,,,0,,,97,96
19667,note_on,,,,,67,0,0,,,,,0,,,89,0
19667,note_on,,,,,0,0,0,,,,,0,,,94,0
19675,note_on,,,,,8,0,0,,,,,0,,,97,0
19680,note_on,,,,,0,0,1,,,,,0,,,65,96
19680,note_on,,,,,5,0,0,,,,,0,,,94,96
19680,note_on,,,,,0,0,1,,,,,0,,,58,96
19680,note_on,,,,,162,0,1,,,,,0,,,57,96
19755,note_on,,,,,75,0,0,,,,,0,,,94,0
19760,note_on,,,,,5,0,0,,,,,0,,,93,96
19799,note_on,,,,,0,0,1,,,,,0,,,65,0
19799,note_on,,,,,119,0,1,,,,,0,,,57,0
19799,note_on,,,,,0,0,1,,,,,0,,,58,0
19835,note_on,,,,,75,0,0,,,,,0,,,93,0
19840,note_on,,,,,5,0,0,,,,,0,,,92,96
19915,note_on,,,,,75,0,0,,,,,0,,,92,0
19920,note_on,,,,,0,0,1,,,,,0,,,65,96
19920,note_on,,,,,0,0,1,,,,,0,,,58,96
19920,note_on,,,,,121,0,1,,,,,0,,,57,96
19920,note_on,,,,,5,0,0,,,,,0,,,89,96
19995,note_on,,,,,75,0,0,,,,,0,,,89,0
20000,note_on,,,,,5,0,0,,,,,0,,,86,96
20039,note_on,,,,,0,0,1,,,,,0,,,65,0
20039,note_on,,,,,119,0,1,,,,,0,,,57,0
20039,note_on,,,,,0,0,1,,,,,0,,,58,0
20075,note_on,,,,,75,0,0,,,,,0,,,86,0
20080,note_on,,,,,5,0,0,,,,,0,,,85,96
20155,note_on,,,,,75,0,0,,,,,0,,,85,0
20160,note_on,,,,,5,0,0,,,,,0,,,82,96
20160,note_on,,,,,0,0,1,,,,,0,,,58,96
20160,note_on,,,,,0,0,1,,,,,0,,,65,96
20160,note_on,,,,,121,0,1,,,,,0,,,57,96
20235,note_on,,,,,75,0,0,,,,,0,,,82,0
20240,note_on,,,,,5,0,0,,,,,0,,,81,96
20279,note_on,,,,,0,0,1,,,,,0,,,58,0
20279,note_on,,,,,0,0,1,,,,,0,,,65,0
20279,note_on,,,,,119,0,1,,,,,0,,,57,0
20315,note_on,,,,,75,0,0,,,,,0,,,81,0
20320,note_on,,,,,5,0,0,,,,,0,,,80,96
20395,note_on,,,,,75,0,0,,,,,0,,,80,0
20400,note_on,,,,,5,0,0,,,,,0,,,74,96
20400,note_on,,,,,0,0,0,,,,,0,,,77,96
20400,note_on,,,,,121,0,1,,,,,0,,,40,96
20475,note_on,,,,,75,0,0,,,,,0,,,74,0
20475,note_on,,,,,0,0,0,,,,,0,,,77,0
20480,note_on,,,,,5,0,0,,,,,0,,,71,96
20555,note_on,,,,,75,0,0,,,,,0,,,71,0
20560,note_on,,,,,5,0,0,,,,,0,,,68,96
20627,note_on,,,,,227,0,1,,,,,0,,,40,0
20635,note_on,,,,,75,0,0,,,,,0,,,68,0
20640,note_on,,,,,0,0,1,,,,,0,,,62,96
20640,note_on,,,,,0,0,1,,,,,0,,,59,96
20640,note_on,,,,,5,0,0,,,,,0,,,65,96
20640,note_on,,,,,13,0,1,,,,,0,,,52,96
20715,note_on,,,,,75,0,0,,,,,0,,,65,0
20720,note_on,,,,,5,0,0,,,,,0,,,64,96
20795,note_on,,,,,75,0,0,,,,,0,,,64,0
20800,note_on,,,,,5,0,0,,,,,0,,,68,96
20867,note_on,,,,,227,0,1,,,,,0,,,52,0
20867,note_on,,,,,0,0,1,,,,,0,,,62,0
20867,note_on,,,,,0,0,1,,,,,0,,,59,0
20875,note_on,,,,,75,0,0,,,,,0,,,68,0
20880,note_on,,,,,0,0,1,,,,,0,,,60,96
20880,note_on,,,,,0,0,1,,,,,0,,,52,96
20880,note_on,,,,,13,0,1,,,,,0,,,45,96
20880,note_on,,,,,5,0,0,,,,,0,,,69,96
20882,control_change,,,,,2,0,1,,,64,127,0,,,,
20958,note_on,,,,,0,0,1,,,,,0,,,52,0
20958,note_on,,,,,0,0,1,,,,,0,,,60,0
20958,note_on,,,,,76,0,1,,,,,0,,,45,0
20959,note_on,,,,,79,0,0,,,,,0,,,69,0
20960,note_on,,,,,1,0,0,,,,,0,,,81,96
21039,note_on,,,,,79,0,0,,,,,0,,,81,0
21040,note_on,,,,,1,0,0,,,,,0,,,81,96
21119,note_on,,,,,79,0,0,,,,,0,,,81,0
21120,note_on,,,,,1,0,0,,,,,0,,,93,96
21120,note_on,,,,,0,0,1,,,,,0,,,69,96
21120,note_on,,,,,0,0,1,,,,,0,,,64,96
21120,note_on,,,,,162,0,1,,,,,0,,,60,96
21198,note_on,,,,,78,0,1,,,,,0,,,60,0
21198,note_on,,,,,0,0,1,,,,,0,,,69,0
21198,note_on,,,,,0,0,1,,,,,0,,,64,0
21199,note_on,,,,,79,0,0,,,,,0,,,93,0
21200,note_on,,,,,1,0,0,,,,,0,,,81,96
21279,note_on,,,,,79,0,0,,,,,0,,,81,0
21280,note_on,,,,,1,0,0,,,,,0,,,69,96
21355,note_on,,,,,75,0,0,,,,,0,,,69,0
21360,note_on,,,,,0,0,0,,,,,0,,,57,115
21360,set_tempo,,,,,5,1,0,,749999,,,,,,,
21579,note_on,,,,,219,0,0,,,,,0,,,57,0
21599,set_tempo,,,,,20,1,0,,375000,,,,,,,
21600,note_on,,,,,1,0,0,,,,,0,,,60,74
21600,note_on,,,,,402,0,1,,,,,0,,,69,74
21601,control_change,,,,,1,0,1,,,64,0,0,,,,
21659,note_on,,,,,59,0,0,,,,,0,,,60,0
21678,note_on,,,,,77,0,1,,,,,0,,,69,0
21720,note_on,,,,,0,0,0,,,,,0,,,60,74
21720,note_on,,,,,61,0,0,,,,,0,,,57,74
21779,note_on,,,,,59,0,0,,,,,0,,,57,0
21779,note_on,,,,,0,0,0,,,,,0,,,60,0
21840,note_on,,,,,0,0,0,,,,,0,,,62,74
21840,note_on,,,,,162,0,1,,,,,0,,,69,74
21840,note_on,,,,,61,0,0,,,,,0,,,59,74
21899,note_on,,,,,0,0,0,,,,,0,,,62,0
21899,note_on,,,,,59,0,0,,,,,0,,,59,0
21918,note_on,,,,,78,0,1,,,,,0,,,69,0
21960,note_on,,,,,0,0,0,,,,,0,,,60,74
21960,note_on,,,,,61,0,0,,,,,0,,,57,74
22019,note_on,,,,,59,0,0,,,,,0,,,57,0
22019,note_on,,,,,0,0,0,,,,,0,,,60,0
22080,note_on,,,,,162,0,1,,,,,0,,,69,74
22080,note_on,,,,,0,0,0,,,,,0,,,64,74
22080,note_on,,,,,61,0,0,,,,,0,,,60,74
22139,note_on,,,,,59,0,0,,,,,0,,,60,0
22139,note_on,,,,,0,0,0,,,,,0,,,64,0
22158,note_on,,,,,78,0,1,,,,,0,,,69,0
22200,note_on,,,,,0,0,0,,,,,0,,,60,74
22200,note_on,,,,,61,0,0,,,,,0,,,57,74
22259,note_on,,,,,59,0,0,,,,,0,,,57,0
22259,note_on,,,,,0,0,0,,,,,0,,,60,0
22320,note_on,,,,,0,0,1,,,,,0,,,65,74
22320,note_on,,,,,162,0,1,,,,,0,,,62,74
22320,note_on,,,,,61,0,0,,,,,0,,,69,88
22379,note_on,,,,,0,0,1,,,,,0,,,65,0
22379,note_on,,,,,59,0,1,,,,,0,,,62,0
22440,note_on,,,,,0,0,1,,,,,0,,,65,74
22440,note_on,,,,,61,0,1,,,,,0,,,62,74
22499,note_on,,,,,0,0,1,,,,,0,,,65,0
22499,note_on,,,,,59,0,1,,,,,0,,,62,0
22560,note_on,,,,,61,0,1,,,,,0,,,60,74
22560,note_on,,,,,0,0,1,,,,,0,,,64,74
22619,note_on,,,,,0,0,1,,,,,0,,,64,0
22619,note_on,,,,,59,0,1,,,,,0,,,60,0
22680,note_on,,,,,0,0,1,,,,,0,,,64,74
22680,note_on,,,,,61,0,1,,,,,0,,,60,74
22739,note_on,,,,,0,0,1,,,,,0,,,64,0
22739,note_on,,,,,59,0,1,,,,,0,,,60,0
22800,note_on,,,,,0,0,1,,,,,0,,,63,74
22800,note_on,,,,,61,0,1,,,,,0,,,59,74
22859,note_on,,,,,0,0,1,,,,,0,,,63,0
22859,note_on,,,,,59,0,1,,,,,0,,,59,0
22920,note_on,,,,,61,0,1,,,,,0,,,59,74
22920,note_on,,,,,0,0,1,,,,,0,,,63,74
22979,note_on,,,,,0,0,1,,,,,0,,,63,0
22979,note_on,,,,,59,0,1,,,,,0,,,59,0
23039,note_on,,,,,719,0,0,,,,,0,,,69,0
23040,note_on,,,,,61,0,1,,,,,0,,,62,74
23040,note_on,,,,,0,0,1,,,,,0,,,65,74
23040,note_on,,,,,1,0,0,,,,,0,,,69,74
23099,note_on,,,,,0,0,1,,,,,0,,,65,0
23099,note_on,,,,,59,0,1,,,,,0,,,62,0
23118,note_on,,,,,78,0,0,,,,,0,,,69,0
23160,note_on,,,,,0,0,1,,,,,0,,,65,74
23160,note_on,,,,,61,0,1,,,,,0,,,62,74
23219,note_on,,,,,59,0,1,,,,,0,,,62,0
23219,note_on,,,,,0,0,1,,,,,0,,,65,0
23280,note_on,,,,,0,0,1,,,,,0,,,64,78
23280,note_on,,,,,162,0,0,,,,,0,,,69,78
23280,note_on,,,,,61,0,1,,,,,0,,,60,78
23339,note_on,,,,,0,0,1,,,,,0,,,64,0
23339,note_on,,,,,59,0,1,,,,,0,,,60,0
23358,note_on,,,,,78,0,0,,,,,0,,,69,0
23400,note_on,,,,,0,0,1,,,,,0,,,64,82
23400,note_on,,,,,61,0,1,,,,,0,,,60,82
23459,note_on,,,,,0,0,1,,,,,0,,,64,0
23459,note_on,,,,,59,0,1,,,,,0,,,60,0
23520,note_on,,,,,162,0,0,,,,,0,,,69,87
23520,note_on,,,,,61,0,1,,,,,0,,,59,87
23520,note_on,,,,,0,0,1,,,,,0,,,62,87
23579,note_on,,,,,0,0,1,,,,,0,,,62,0
23579,note_on,,,,,59,0,1,,,,,0,,,59,0
23598,note_on,,,,,78,0,0,,,,,0,,,69,0
23640,note_on,,,,,0,0,1,,,,,0,,,62,91
23640,note_on,,,,,61,0,1,,,,,0,,,59,91
23699,note_on,,,,,0,0,1,,,,,0,,,62,0
23699,note_on,,,,,59,0,1,,,,,0,,,59,0
23760,note_on,,,,,0,0,1,,,,,0,,,52,96
23760,note_on,,,,,162,0,0,,,,,0,,,69,96
23760,note_on,,,,,0,0,1,,,,,0,,,60,96
23760,note_on,,,,,61,0,1,,,,,0,,,45,96
23762,control_change,,,,,2,0,1,,,64,127,0,,,,
23838,note_on,,,,,0,0,1,,,,,0,,,60,0
23838,note_on,,,,,0,0,1,,,,,0,,,52,0
23838,note_on,,,,,76,0,1,,,,,0,,,45,0
23839,note_on,,,,,79,0,0,,,,,0,,,69,0
23840,note_on,,,,,1,0,0,,,,,0,,,81,96
23919,note_on,,,,,79,0,0,,,,,0,,,81,0
23920,note_on,,,,,1,0,0,,,,,0,,,81,96
23999,note_on,,,,,79,0,0,,,,,0,,,81,0
24000,note_on,,,,,0,0,1,,,,,0,,,69,96
24000,note_on,,,,,162,0,1,,,,,0,,,60,96
24000,note_on,,,,,1,0,0,,,,,0,,,93,96
24000,note_on,,,,,0,0,1,,,,,0,,,64,96
24078,note_on,,,,,78,0,1,,,,,0,,,60,0
24078,note_on,,,,,0,0,1,,,,,0,,,69,0
24078,note_on,,,,,0,0,1,,,,,0,,,64,0
24079,note_on,,,,,79,0,0,,,,,0,,,93,0
24080,note_on,,,,,1,0,0,,,,,0,,,81,96
24159,note_on,,,,,79,0,0,,,,,0,,,81,0
24160,note_on,,,,,1,0,0,,,,,0,,,69,96
24235,note_on,,,,,75,0,0,,,,,0,,,69,0
24240,note_on,,,,,0,0,0,,,,,0,,,57,115
24240,set_tempo,,,,,5,1,0,,749999,,,,,,,
24479,set_tempo,,,,,239,1,0,,375000,,,,,,,
24480,note_on,,,,,402,0,1,,,,,0,,,69,74
24480,note_on,,,,,1,0,0,,,,,0,,,60,74
24481,control_change,,,,,1,0,1,,,64,0,0,,,,
24513,note_on,,,,,33,0,0,,,,,0,,,57,0
24558,note_on,,,,,77,0,1,,,,,0,,,69,0
24593,note_on,,,,,80,0,0,,,,,0,,,60,0
24600,note_on,,,,,7,0,0,,,,,0,,,57,74
24600,note_on,,,,,0,0,0,,,,,0,,,60,74
24713,note_on,,,,,113,0,0,,,,,0,,,57,0
24713,note_on,,,,,0,0,0,,,,,0,,,60,0
24720,note_on,,,,,7,0,0,,,,,0,,,59,74
24720,note_on,,,,,162,0,1,,,,,0,,,69,74
24720,note_on,,,,,0,0,0,,,,,0,,,62,74
24798,note_on,,,,,78,0,1,,,,,0,,,69,0
24833,note_on,,,,,0,0,0,,,,,0,,,62,0
24833,note_on,,,,,113,0,0,,,,,0,,,59,0
24840,note_on,,,,,0,0,0,,,,,0,,,60,74
24840,note_on,,,,,7,0,0,,,,,0,,,57,74
24953,note_on,,,,,0,0,0,,,,,0,,,60,0
24953,note_on,,,,,113,0,0,,,,,0,,,57,0
24960,note_on,,,,,162,0,1,,,,,0,,,69,74
24960,note_on,,,,,7,0,0,,,,,0,,,60,74
24960,note_on,,,,,0,0,0,,,,,0,,,64,74
25038,note_on,,,,,78,0,1,,,,,0,,,69,0
25073,note_on,,,,,0,0,0,,,,,0,,,64,0
25073,note_on,,,,,113,0,0,,,,,0,,,60,0
25080,note_on,,,,,7,0,0,,,,,0,,,57,74
25080,note_on,,,,,0,0,0,,,,,0,,,60,74
25193,note_on,,,,,0,0,0,,,,,0,,,60,0
25193,note_on,,,,,113,0,0,,,,,0,,,57,0
25200,note_on,,,,,0,0,1,,,,,0,,,65,74
25200,note_on,,,,,7,0,0,,,,,0,,,69,88
25200,note_on,,,,,162,0,1,,,,,0,,,62,74
25313,note_on,,,,,113,0,1,,,,,0,,,62,0
25313,note_on,,,,,0,0,1,,,,,0,,,65,0
25320,note_on,,,,,7,0,1,,,,,0,,,62,74
25320,note_on,,,,,0,0,1,,,,,0,,,65,74
25433,note_on,,,,,0,0,1,,,,,0,,,65,0
25433,note_on,,,,,113,0,1,,,,,0,,,62,0
25440,note_on,,,,,7,0,1,,,,,0,,,60,74
25440,note_on,,,,,0,0,1,,,,,0,,,64,74
25553,note_on,,,,,0,0,1,,,,,0,,,64,0
25553,note_on,,,,,113,0,1,,,,,0,,,60,0
25560,note_on,,,,,7,0,1,,,,,0,,,60,74
25560,note_on,,,,,0,0,1,,,,,0,,,64,74
25673,note_on,,,,,113,0,1,,,,,0,,,60,0
25673,note_on,,,,,0,0,1,,,,,0,,,64,0
25680,note_on,,,,,7,0,1,,,,,0,,,59,74
25680,note_on,,,,,0,0,1,,,,,0,,,63,74
25793,note_on,,,,,0,0,1,,,,,0,,,63,0
25793,note_on,,,,,113,0,1,,,,,0,,,59,0
25800,note_on,,,,,7,0,1,,,,,0,,,59,74
25800,note_on,,,,,0,0,1,,,,,0,,,63,74
25913,note_on,,,,,0,0,1,,,,,0,,,63,0
25913,note_on,,,,,113,0,1,,,,,0,,,59,0
25919,note_on,,,,,719,0,0,,,,,0,,,69,0
25920,note_on,,,,,0,0,1,,,,,0,,,65,74
25920,note_on,,,,,7,0,1,,,,,0,,,62,74
25920,note_on,,,,,1,0,0,,,,,0,,,69,74
25998,note_on,,,,,78,0,0,,,,,0,,,69,0
26033,note_on,,,,,0,0,1,,,,,0,,,65,0
26033,note_on,,,,,113,0,1,,,,,0,,,62,0
26040,note_on,,,,,7,0,1,,,,,0,,,62,74
26040,note_on,,,,,0,0,1,,,,,0,,,65,74
26153,note_on,,,,,0,0,1,,,,,0,,,65,0
26153,note_on,,,,,113,0,1,,,,,0,,,62,0
26160,note_on,,,,,7,0,1,,,,,0,,,60,78
26160,note_on,,,,,0,0,1,,,,,0,,,64,78
26160,note_on,,,,,162,0,0,,,,,0,,,69,78
26238,note_on,,,,,78,0,0,,,,,0,,,69,0
26273,note_on,,,,,113,0,1,,,,,0,,,60,0
26273,note_on,,,,,0,0,1,,,,,0,,,64,0
26280,note_on,,,,,0,0,1,,,,,0,,,64,82
26280,note_on,,,,,7,0,1,,,,,0,,,60,82
26393,note_on,,,,,0,0,1,,,,,0,,,64,0
26393,note_on,,,,,113,0,1,,,,,0,,,60,0
26400,note_on,,,,,162,0,0,,,,,0,,,69,87
26400,note_on,,,,,0,0,1,,,,,0,,,62,87
26400,note_on,,,,,7,0,1,,,,,0,,,59,87
26478,note_on,,,,,78,0,0,,,,,0,,,69,0
26513,note_on,,,,,0,0,1,,,,,0,,,62,0
26513,note_on,,,,,113,0,1,,,,,0,,,59,0
26520,note_on,,,,,7,0,1,,,,,0,,,59,91
26520,note_on,,,,,0,0,1,,,,,0,,,62,91
26633,note_on,,,,,0,0,1,,,,,0,,,62,0
26633,note_on,,,,,113,0,1,,,,,0,,,59,0
26640,note_on,,,,,0,0,1,,,,,0,,,53,96
26640,note_on,,,,,0,0,1,,,,,0,,,62,96
26640,note_on,,,,,7,0,1,,,,,0,,,46,96
26640,note_on,,,,,162,0,0,,,,,0,,,70,96
26642,control_change,,,,,2,0,1,,,64,127,0,,,,
26718,note_on,,,,,0,0,1,,,,,0,,,53,0
26718,note_on,,,,,0,0,1,,,,,0,,,62,0
26718,note_on,,,,,76,0,1,,,,,0,,,46,0
26719,note_on,,,,,79,0,0,,,,,0,,,70,0
26720,note_on,,,,,1,0,0,,,,,0,,,82,96
26799,note_on,,,,,79,0,0,,,,,0,,,82,0
26800,note_on,,,,,1,0,0,,,,,0,,,82,96
26879,note_on,,,,,79,0,0,,,,,0,,,82,0
26880,note_on,,,,,1,0,0,,,,,0,,,94,96
26880,note_on,,,,,162,0,1,,,,,0,,,62,96
26880,note_on,,,,,0,0,1,,,,,0,,,65,96
26880,note_on,,,,,0,0,1,,,,,0,,,70,96
26958,note_on,,,,,0,0,1,,,,,0,,,65,0
26958,note_on,,,,,78,0,1,,,,,0,,,62,0
26958,note_on,,,,,0,0,1,,,,,0,,,70,0
26959,note_on,,,,,79,0,0,,,,,0,,,94,0
26960,note_on,,,,,1,0,0,,,,,0,,,82,96
27039,note_on,,,,,79,0,0,,,,,0,,,82,0
27040,note_on,,,,,1,0,0,,,,,0,,,70,96
27115,note_on,,,,,75,0,0,,,,,0,,,70,0
27120,note_on,,,,,0,0,0,,,,,0,,,58,115
27120,set_tempo,,,,,5,1,0,,749999,,,,,,,
27359,set_tempo,,,,,239,1,0,,375000,,,,,,,
27360,note_on,,,,,1,0,0,,,,,0,,,62,74
27360,note_on,,,,,402,0,1,,,,,0,,,70,74
27361,control_change,,,,,1,0,1,,,64,0,0,,,,
27393,note_on,,,,,33,0,0,,,,,0,,,58,0
27438,note_on,,,,,77,0,1,,,,,0,,,70,0
27473,note_on,,,,,80,0,0,,,,,0,,,62,0
27480,note_on,,,,,7,0,0,,,,,0,,,58,74
27480,note_on,,,,,0,0,0,,,,,0,,,62,74
27593,note_on,,,,,113,0,0,,,,,0,,,58,0
27593,note_on,,,,,0,0,0,,,,,0,,,62,0
27600,note_on,,,,,0,0,0,,,,,0,,,63,74
27600,note_on,,,,,7,0,0,,,,,0,,,60,74
27600,note_on,,,,,162,0,1,,,,,0,,,70,74
27678,note_on,,,,,78,0,1,,,,,0,,,70,0
27713,note_on,,,,,0,0,0,,,,,0,,,63,0
27713,note_on,,,,,113,0,0,,,,,0,,,60,0
27720,note_on,,,,,0,0,0,,,,,0,,,63,74
27720,note_on,,,,,7,0,0,,,,,0,,,60,74
27833,note_on,,,,,113,0,0,,,,,0,,,60,0
27833,note_on,,,,,0,0,0,,,,,0,,,63,0
27840,note_on,,,,,162,0,1,,,,,0,,,70,74
27840,note_on,,,,,7,0,0,,,,,0,,,62,74
27840,note_on,,,,,0,0,0,,,,,0,,,65,74
27918,note_on,,,,,78,0,1,,,,,0,,,70,0
27953,note_on,,,,,0,0,0,,,,,0,,,65,0
27953,note_on,,,,,113,0,0,,,,,0,,,62,0
27960,note_on,,,,,0,0,0,,,,,0,,,65,74
27960,note_on,,,,,7,0,0,,,,,0,,,62,74
28073,note_on,,,,,0,0,0,,,,,0,,,65,0
28073,note_on,,,,,113,0,0,,,,,0,,,62,0
28080,note_on,,,,,0,0,1,,,,,0,,,66,74
28080,note_on,,,,,162,0,1,,,,,0,,,63,74
28080,note_on,,,,,7,0,0,,,,,0,,,70,88
28193,note_on,,,,,0,0,1,,,,,0,,,66,0
28193,note_on,,,,,113,0,1,,,,,0,,,63,0
28200,note_on,,,,,0,0,1,,,,,0,,,63,74
28200,note_on,,,,,7,0,1,,,,,0,,,59,74
28313,note_on,,,,,0,0,1,,,,,0,,,63,0
28313,note_on,,,,,113,0,1,,,,,0,,,59,0
28320,note_on,,,,,7,0,1,,,,,0,,,62,74
28320,note_on,,,,,0,0,1,,,,,0,,,65,74
28433,note_on,,,,,113,0,1,,,,,0,,,62,0
28433,note_on,,,,,0,0,1,,,,,0,,,65,0
28440,note_on,,,,,0,0,1,,,,,0,,,65,74
28440,note_on,,,,,7,0,1,,,,,0,,,62,74
28553,note_on,,,,,113,0,1,,,,,0,,,62,0
28553,note_on,,,,,0,0,1,,,,,0,,,65,0
28560,note_on,,,,,0,0,1,,,,,0,,,63,74
28560,note_on,,,,,7,0,1,,,,,0,,,59,74
28673,note_on,,,,,0,0,1,,,,,0,,,63,0
28673,note_on,,,,,113,0,1,,,,,0,,,59,0
28680,note_on,,,,,0,0,1,,,,,0,,,63,74
28680,note_on,,,,,7,0,1,,,,,0,,,59,74
28793,note_on,,,,,113,0,1,,,,,0,,,59,0
28793,note_on,,,,,0,0,1,,,,,0,,,63,0
28799,note_on,,,,,719,0,0,,,,,0,,,70,0
28800,note_on,,,,,0,0,1,,,,,0,,,66,74
28800,note_on,,,,,1,0,0,,,,,0,,,70,74
28800,note_on,,,,,7,0,1,,,,,0,,,63,74
28878,note_on,,,,,78,0,0,,,,,0,,,70,0
28913,note_on,,,,,0,0,1,,,,,0,,,66,0
28913,note_on,,,,,113,0,1,,,,,0,,,63,0
28920,note_on,,,,,7,0,1,,,,,0,,,63,74
28920,note_on,,,,,0,0,1,,,,,0,,,66,74
29033,note_on,,,,,113,0,1,,,,,0,,,63,0
29033,note_on,,,,,0,0,1,,,,,0,,,66,0
29040,note_on,,,,,162,0,0,,,,,0,,,70,74
29040,note_on,,,,,7,0,1,,,,,0,,,62,74
29040,note_on,,,,,0,0,1,,,,,0,,,65,74
29118,note_on,,,,,78,0,0,,,,,0,,,70,0
29153,note_on,,,,,113,0,1,,,,,0,,,62,0
29153,note_on,,,,,0,0,1,,,,,0,,,65,0
29160,note_on,,,,,7,0,1,,,,,0,,,62,74
29160,note_on,,,,,0,0,1,,,,,0,,,65,74
29273,note_on,,,,,113,0,1,,,,,0,,,62,0
29273,note_on,,,,,0,0,1,,,,,0,,,65,0
29280,note_on,,,,,0,0,1,,,,,0,,,64,74
29280,note_on,,,,,7,0,1,,,,,0,,,61,74
29280,note_on,,,,,162,0,0,,,,,0,,,70,74
29358,note_on,,,,,78,0,0,,,,,0,,,70,0
29393,note_on,,,,,113,0,1,,,,,0,,,61,0
29393,note_on,,,,,0,0,1,,,,,0,,,64,0
29400,note_on,,,,,0,0,1,,,,,0,,,64,74
29400,note_on,,,,,7,0,1,,,,,0,,,61,74
29513,note_on,,,,,0,0,1,,,,,0,,,64,0
29513,note_on,,,,,113,0,1,,,,,0,,,61,0
29520,note_on,,,,,0,0,1,,,,,0,,,63,74
29520,note_on,,,,,7,0,1,,,,,0,,,59,74
29520,note_on,,,,,162,0,0,,,,,0,,,71,88
29633,note_on,,,,,113,0,1,,,,,0,,,59,0
29633,note_on,,,,,0,0,1,,,,,0,,,63,0
29640,note_on,,,,,7,0,1,,,,,0,,,59,75
29640,note_on,,,,,0,0,1,,,,,0,,,63,75
29753,note_on,,,,,113,0,1,,,,,0,,,59,0
29753,note_on,,,,,0,0,1,,,,,0,,,63,0
29760,note_on,,,,,7,0,1,,,,,0,,,61,77
29760,note_on,,,,,0,0,1,,,,,0,,,64,77
29873,note_on,,,,,0,0,1,,,,,0,,,64,0
29873,note_on,,,,,113,0,1,,,,,0,,,61,0
29880,note_on,,,,,7,0,1,,,,,0,,,61,79
29880,note_on,,,,,0,0,1,,,,,0,,,64,79
29993,note_on,,,,,113,0,1,,,,,0,,,61,0
29993,note_on,,,,,0,0,1,,,,,0,,,64,0
30000,note_on,,,,,0,0,1,,,,,0,,,66,80
30000,note_on,,,,,7,0,1,,,,,0,,,63,80
30113,note_on,,,,,0,0,1,,,,,0,,,66,0
30113,note_on,,,,,113,0,1,,,,,0,,,63,0
30120,note_on,,,,,7,0,1,,,,,0,,,63,82
30120,note_on,,,,,0,0,1,,,,,0,,,66,82
30233,note_on,,,,,0,0,1,,,,,0,,,66,0
30233,note_on,,,,,113,0,1,,,,,0,,,63,0
30239,note_on,,,,,719,0,0,,,,,0,,,71,0
30240,note_on,,,,,1,0,0,,,,,0,,,71,100
30240,note_on,,,,,0,0,1,,,,,0,,,67,84
30240,note_on,,,,,7,0,1,,,,,0,,,64,84
30353,note_on,,,,,0,0,1,,,,,0,,,67,0
30353,note_on,,,,,113,0,1,,,,,0,,,64,0
30360,note_on,,,,,0,0,1,,,,,0,,,67,84
30360,note_on,,,,,7,0,1,,,,,0,,,64,84
30473,note_on,,,,,113,0,1,,,,,0,,,64,0
30473,note_on,,,,,0,0,1,,,,,0,,,67,0
30479,note_on,,,,,239,0,0,,,,,0,,,71,0
30480,note_on,,,,,0,0,1,,,,,0,,,66,84
30480,note_on,,,,,7,0,1,,,,,0,,,63,84
30480,note_on,,,,,1,0,0,,,,,0,,,71,100
30593,note_on,,,,,0,0,1,,,,,0,,,66,0
30593,note_on,,,,,113,0,1,,,,,0,,,63,0
30600,note_on,,,,,0,0,1,,,,,0,,,66,84
30600,note_on,,,,,7,0,1,,,,,0,,,63,84
30713,note_on,,,,,0,0,1,,,,,0,,,66,0
30713,note_on,,,,,113,0,1,,,,,0,,,63,0
30719,note_on,,,,,239,0,0,,,,,0,,,71,0
30720,note_on,,,,,1,0,0,,,,,0,,,71,100
30720,note_on,,,,,0,0,1,,,,,0,,,65,84
30720,note_on,,,,,7,0,1,,,,,0,,,62,84
30833,note_on,,,,,0,0,1,,,,,0,,,65,0
30833,note_on,,,,,113,0,1,,,,,0,,,62,0
30840,note_on,,,,,0,0,1,,,,,0,,,65,84
30840,note_on,,,,,7,0,1,,,,,0,,,62,84
30953,note_on,,,,,0,0,1,,,,,0,,,65,0
30953,note_on,,,,,113,0,1,,,,,0,,,62,0
30959,note_on,,,,,239,0,0,,,,,0,,,71,0
30960,note_on,,,,,0,0,1,,,,,0,,,64,84
30960,note_on,,,,,7,0,1,,,,,0,,,60,84
30960,note_on,,,,,1,0,0,,,,,0,,,72,100
31073,note_on,,,,,113,0,1,,,,,0,,,60,0
31073,note_on,,,,,0,0,1,,,,,0,,,64,0
31080,note_on,,,,,0,0,1,,,,,0,,,64,85
31080,note_on,,,,,7,0,1,,,,,0,,,60,85
31193,note_on,,,,,0,0,1,,,,,0,,,64,0
31193,note_on,,,,,113,0,1,,,,,0,,,60,0
31200,note_on,,,,,0,0,1,,,,,0,,,65,87
31200,note_on,,,,,7,0,1,,,,,0,,,62,87
31313,note_on,,,,,113,0,1,,,,,0,,,62,0
31313,note_on,,,,,0,0,1,,,,,0,,,65,0
31320,note_on,,,,,7,0,1,,,,,0,,,62,89
31320,note_on,,,,,0,0,1,,,,,0,,,65,89
31433,note_on,,,,,113,0,1,,,,,0,,,62,0
31433,note_on,,,,,0,0,1,,,,,0,,,65,0
31440,note_on,,,,,7,0,1,,,,,0,,,64,90
31440,note_on,,,,,0,0,1,,,,,0,,,67,90
31441,note_on,,,,,481,0,0,,,,,0,,,72,0
31553,note_on,,,,,0,0,1,,,,,0,,,67,0
31553,note_on,,,,,113,0,1,,,,,0,,,64,0
31560,note_on,,,,,7,0,1,,,,,0,,,64,92
31560,note_on,,,,,0,0,1,,,,,0,,,67,92
31673,note_on,,,,,0,0,1,,,,,0,,,67,0
31673,note_on,,,,,113,0,1,,,,,0,,,64,0
31680,note_on,,,,,239,0,0,,,,,0,,,72,112
31680,note_on,,,,,0,0,1,,,,,0,,,68,94
31680,note_on,,,,,7,0,1,,,,,0,,,65,94
31793,note_on,,,,,113,0,1,,,,,0,,,65,0
31793,note_on,,,,,0,0,1,,,,,0,,,68,0
31800,note_on,,,,,7,0,1,,,,,0,,,65,94
31800,note_on,,,,,0,0,1,,,,,0,,,68,94
31913,note_on,,,,,113,0,1,,,,,0,,,65,0
31913,note_on,,,,,0,0,1,,,,,0,,,68,0
31919,note_on,,,,,239,0,0,,,,,0,,,72,0
31920,note_on,,,,,1,0,0,,,,,0,,,72,112
31920,note_on,,,,,7,0,1,,,,,0,,,64,94
31920,note_on,,,,,0,0,1,,,,,0,,,67,94
32033,note_on,,,,,0,0,1,,,,,0,,,67,0
32033,note_on,,,,,113,0,1,,,,,0,,,64,0
32040,note_on,,,,,7,0,1,,,,,0,,,64,94
32040,note_on,,,,,0,0,1,,,,,0,,,67,94
32153,note_on,,,,,113,0,1,,,,,0,,,64,0
32153,note_on,,,,,0,0,1,,,,,0,,,67,0
32159,note_on,,,,,239,0,0,,,,,0,,,72,0
32160,note_on,,,,,0,0,1,,,,,0,,,66,94
32160,note_on,,,,,7,0,1,,,,,0,,,63,94
32160,note_on,,,,,1,0,0,,,,,0,,,72,112
32273,note_on,,,,,113,0,1,,,,,0,,,63,0
32273,note_on,,,,,0,0,1,,,,,0,,,66,0
32280,note_on,,,,,7,0,1,,,,,0,,,63,94
32280,note_on,,,,,0,0,1,,,,,0,,,66,94
32393,note_on,,,,,113,0,1,,,,,0,,,63,0
32393,note_on,,,,,0,0,1,,,,,0,,,66,0
32399,note_on,,,,,239,0,0,,,,,0,,,72,0
32400,note_on,,,,,0,0,1,,,,,0,,,61,94
32400,note_on,,,,,0,0,1,,,,,0,,,65,0
32400,note_on,,,,,0,0,1,,,,,0,,,65,94
32400,note_on,,,,,1,0,0,,,,,0,,,73,94
32400,note_on,,,,,7,0,1,,,,,0,,,65,94
32479,note_on,,,,,79,0,0,,,,,0,,,73,0
32480,note_on,,,,,1,0,0,,,,,0,,,85,94
32513,note_on,,,,,0,0,1,,,,,0,,,65,0
32513,note_on,,,,,113,0,1,,,,,0,,,61,0
32520,note_on,,,,,7,0,1,,,,,0,,,73,94
32559,note_on,,,,,79,0,0,,,,,0,,,85,0
32560,note_on,,,,,1,0,0,,,,,0,,,85,94
32633,note_on,,,,,113,0,1,,,,,0,,,73,0
32639,note_on,,,,,79,0,0,,,,,0,,,85,0
32640,note_on,,,,,7,0,1,,,,,0,,,66,94
32640,note_on,,,,,0,0,1,,,,,0,,,66,0
32640,note_on,,,,,0,0,1,,,,,0,,,66,94
32640,note_on,,,,,0,0,1,,,,,0,,,62,94
32640,note_on,,,,,1,0,0,,,,,0,,,97,94
32719,note_on,,,,,79,0,0,,,,,0,,,97,0
32720,note_on,,,,,1,0,0,,,,,0,,,85,94
32753,note_on,,,,,113,0,1,,,,,0,,,62,0
32753,note_on,,,,,0,0,1,,,,,0,,,66,0
32760,note_on,,,,,7,0,1,,,,,0,,,73,94
32799,note_on,,,,,79,0,0,,,,,0,,,85,0
32800,note_on,,,,,1,0,0,,,,,0,,,85,94
32873,note_on,,,,,113,0,1,,,,,0,,,73,0
32875,note_on,,,,,75,0,0,,,,,0,,,85,0
32880,note_on,,,,,5,0,0,,,,,0,,,73,94
32880,note_on,,,,,7,0,1,,,,,0,,,68,94
32880,note_on,,,,,0,0,1,,,,,0,,,68,94
32880,note_on,,,,,0,0,1,,,,,0,,,68,0
32880,note_on,,,,,0,0,1,,,,,0,,,65,94
32993,note_on,,,,,0,0,1,,,,,0,,,68,0
32993,note_on,,,,,113,0,1,,,,,0,,,65,0
33000,note_on,,,,,120,0,0,,,,,0,,,73,0
33000,note_on,,,,,7,0,1,,,,,0,,,73,95
33113,note_on,,,,,113,0,1,,,,,0,,,73,0
33120,note_on,,,,,7,0,1,,,,,0,,,66,97
33120,note_on,,,,,0,0,1,,,,,0,,,69,97
33233,note_on,,,,,113,0,1,,,,,0,,,66,0
33233,note_on,,,,,0,0,1,,,,,0,,,69,0
33240,note_on,,,,,7,0,1,,,,,0,,,69,99
33240,note_on,,,,,0,0,1,,,,,0,,,73,99
33353,note_on,,,,,0,0,1,,,,,0,,,73,0
33353,note_on,,,,,113,0,1,,,,,0,,,69,0
33360,note_on,,,,,7,0,1,,,,,0,,,65,100
33360,note_on,,,,,0,0,1,,,,,0,,,68,100
33473,note_on,,,,,113,0,1,,,,,0,,,65,0
33473,note_on,,,,,0,0,1,,,,,0,,,68,0
33480,note_on,,,,,0,0,1,,,,,0,,,73,102
33480,note_on,,,,,7,0,1,,,,,0,,,68,102
33593,note_on,,,,,113,0,1,,,,,0,,,68,0
33593,note_on,,,,,0,0,1,,,,,0,,,73,0
33600,note_on,,,,,7,0,1,,,,,0,,,62,104
33600,note_on,,,,,0,0,1,,,,,0,,,66,104
33713,note_on,,,,,113,0,1,,,,,0,,,62,0
33713,note_on,,,,,0,0,1,,,,,0,,,66,0
33720,note_on,,,,,7,0,1,,,,,0,,,66,104
33720,note_on,,,,,0,0,1,,,,,0,,,73,104
33833,note_on,,,,,113,0,1,,,,,0,,,66,0
33833,note_on,,,,,0,0,1,,,,,0,,,73,0
33840,note_on,,,,,0,0,1,,,,,0,,,61,104
33840,note_on,,,,,0,0,1,,,,,0,,,65,0
33840,note_on,,,,,0,0,1,,,,,0,,,65,104
33840,note_on,,,,,840,0,0,,,,,0,,,73,104
33840,note_on,,,,,7,0,1,,,,,0,,,65,104
33919,note_on,,,,,79,0,0,,,,,0,,,73,0
33920,note_on,,,,,1,0,0,,,,,0,,,85,104
33953,note_on,,,,,113,0,1,,,,,0,,,61,0
33953,note_on,,,,,0,0,1,,,,,0,,,65,0
33960,note_on,,,,,7,0,1,,,,,0,,,73,104
33999,note_on,,,,,79,0,0,,,,,0,,,85,0
34000,note_on,,,,,1,0,0,,,,,0,,,85,104
34073,note_on,,,,,113,0,1,,,,,0,,,73,0
34079,note_on,,,,,79,0,0,,,,,0,,,85,0
34080,note_on,,,,,0,0,1,,,,,0,,,66,104
34080,note_on,,,,,0,0,1,,,,,0,,,66,0
34080,note_on,,,,,1,0,0,,,,,0,,,97,104
34080,note_on,,,,,7,0,1,,,,,0,,,66,104
34080,note_on,,,,,0,0,1,,,,,0,,,62,104
34159,note_on,,,,,79,0,0,,,,,0,,,97,0
34160,note_on,,,,,1,0,0,,,,,0,,,85,104
34193,note_on,,,,,113,0,1,,,,,0,,,62,0
34193,note_on,,,,,0,0,1,,,,,0,,,66,0
34200,note_on,,,,,7,0,1,,,,,0,,,73,104
34239,note_on,,,,,79,0,0,,,,,0,,,85,0
34240,note_on,,,,,1,0,0,,,,,0,,,85,104
34313,note_on,,,,,113,0,1,,,,,0,,,73,0
34315,note_on,,,,,75,0,0,,,,,0,,,85,0
34320,note_on,,,,,7,0,1,,,,,0,,,68,104
34320,note_on,,,,,5,0,0,,,,,0,,,73,104
34320,note_on,,,,,0,0,1,,,,,0,,,68,104
34320,note_on,,,,,0,0,1,,,,,0,,,65,104
34320,note_on,,,,,0,0,1,,,,,0,,,68,0
34433,note_on,,,,,113,0,1,,,,,0,,,65,0
34433,note_on,,,,,0,0,1,,,,,0,,,68,0
34440,note_on,,,,,7,0,1,,,,,0,,,73,105
34440,note_on,,,,,120,0,0,,,,,0,,,73,0
34553,note_on,,,,,113,0,1,,,,,0,,,73,0
34560,note_on,,,,,0,0,1,,,,,0,,,69,107
34560,note_on,,,,,7,0,1,,,,,0,,,65,107
34673,note_on,,,,,113,0,1,,,,,0,,,65,0
34673,note_on,,,,,0,0,1,,,,,0,,,69,0
34680,note_on,,,,,0,0,1,,,,,0,,,73,109
34680,note_on,,,,,7,0,1,,,,,0,,,69,109
34793,note_on,,,,,113,0,1,,,,,0,,,69,0
34793,note_on,,,,,0,0,1,,,,,0,,,73,0
34800,note_on,,,,,0,0,1,,,,,0,,,68,110
34800,note_on,,,,,7,0,1,,,,,0,,,62,110
34913,note_on,,,,,113,0,1,,,,,0,,,62,0
34913,note_on,,,,,0,0,1,,,,,0,,,68,0
34920,note_on,,,,,7,0,1,,,,,0,,,68,112
34920,note_on,,,,,0,0,1,,,,,0,,,73,112
35033,note_on,,,,,113,0,1,,,,,0,,,68,0
35033,note_on,,,,,0,0,1,,,,,0,,,73,0
35040,note_on,,,,,7,0,1,,,,,0,,,61,114
35040,note_on,,,,,0,0,1,,,,,0,,,65,114
35153,note_on,,,,,113,0,1,,,,,0,,,61,0
35153,note_on,,,,,0,0,1,,,,,0,,,65,0
35160,note_on,,,,,7,0,1,,,,,0,,,66,114
35160,note_on,,,,,0,0,1,,,,,0,,,73,114
35273,note_on,,,,,113,0,1,,,,,0,,,66,0
35273,note_on,,,,,0,0,1,,,,,0,,,73,0
35280,note_on,,,,,7,0,1,,,,,0,,,61,114
35280,note_on,,,,,0,0,1,,,,,0,,,65,114
35393,note_on,,,,,113,0,1,,,,,0,,,61,0
35393,note_on,,,,,0,0,1,,,,,0,,,65,0
35400,note_on,,,,,0,0,1,,,,,0,,,73,114
35400,note_on,,,,,7,0,1,,,,,0,,,65,114
35513,note_on,,,,,0,0,1,,,,,0,,,73,0
35513,note_on,,,,,113,0,1,,,,,0,,,65,0
35520,note_on,,,,,7,0,1,,,,,0,,,61,114
35633,note_on,,,,,113,0,1,,,,,0,,,61,0
35640,note_on,,,,,1200,0,0,,,,,0,,,66,114
35640,note_on,,,,,0,0,0,,,,,0,,,74,114
35753,note_on,,,,,0,0,0,,,,,0,,,74,0
35753,note_on,,,,,113,0,0,,,,,0,,,66,0
35760,note_on,,,,,127,0,1,,,,,0,,,66,127
35879,note_on,,,,,119,0,1,,,,,0,,,66,0
35880,note_on,,,,,127,0,0,,,,,0,,,66,114
35880,note_on,,,,,0,0,0,,,,,0,,,74,114
35993,note_on,,,,,0,0,0,,,,,0,,,74,0
35993,note_on,,,,,113,0,0,,,,,0,,,66,0
36000,note_on,,,,,121,0,1,,,,,0,,,54,114
36113,note_on,,,,,113,0,1,,,,,0,,,54,0
36120,note_on,,,,,127,0,0,,,,,0,,,66,114
36120,note_on,,,,,0,0,0,,,,,0,,,74,114
36233,note_on,,,,,113,0,0,,,,,0,,,66,0
36233,note_on,,,,,0,0,0,,,,,0,,,74,0
36240,note_on,,,,,127,0,1,,,,,0,,,61,127
36359,note_on,,,,,119,0,1,,,,,0,,,61,0
36360,note_on,,,,,127,0,0,,,,,0,,,66,114
36360,note_on,,,,,0,0,0,,,,,0,,,74,114
36473,note_on,,,,,113,0,0,,,,,0,,,66,0
36473,note_on,,,,,0,0,0,,,,,0,,,74,0
36480,note_on,,,,,121,0,1,,,,,0,,,49,114
36593,note_on,,,,,113,0,1,,,,,0,,,49,0
36600,note_on,,,,,0,0,0,,,,,0,,,81,114
36600,note_on,,,,,127,0,0,,,,,0,,,69,114
36600,note_on,,,,,0,0,0,,,,,0,,,74,114
36713,note_on,,,,,0,0,0,,,,,0,,,81,0
36713,note_on,,,,,0,0,0,,,,,0,,,74,0
36713,note_on,,,,,113,0,0,,,,,0,,,69,0
36720,note_on,,,,,127,0,1,,,,,0,,,54,127
36839,note_on,,,,,119,0,1,,,,,0,,,54,0
36840,note_on,,,,,0,0,0,,,,,0,,,74,114
36840,note_on,,,,,0,0,0,,,,,0,,,81,114
36840,note_on,,,,,127,0,0,,,,,0,,,69,114
36953,note_on,,,,,0,0,0,,,,,0,,,74,0
36953,note_on,,,,,0,0,0,,,,,0,,,81,0
36953,note_on,,,,,113,0,0,,,,,0,,,69,0
36960,note_on,,,,,121,0,1,,,,,0,,,42,114
37073,note_on,,,,,113,0,1,,,,,0,,,42,0
37080,note_on,,,,,127,0,0,,,,,0,,,69,114
37080,note_on,,,,,0,0,0,,,,,0,,,74,114
37080,note_on,,,,,0,0,0,,,,,0,,,81,114
37193,note_on,,,,,113,0,0,,,,,0,,,69,0
37193,note_on,,,,,0,0,0,,,,,0,,,74,0
37193,note_on,,,,,0,0,0,,,,,0,,,81,0
37200,note_on,,,,,127,0,1,,,,,0,,,49,127
37319,note_on,,,,,119,0,1,,,,,0,,,49,0
37320,note_on,,,,,0,0,0,,,,,0,,,74,114
37320,note_on,,,,,0,0,0,,,,,0,,,81,114
37320,note_on,,,,,127,0,0,,,,,0,,,69,114
37433,note_on,,,,,113,0,0,,,,,0,,,69,0
37433,note_on,,,,,0,0,0,,,,,0,,,81,0
37433,note_on,,,,,0,0,0,,,,,0,,,74,0
37440,note_on,,,,,121,0,1,,,,,0,,,37,114
37553,note_on,,,,,113,0,1,,,,,0,,,37,0
37560,note_on,,,,,0,0,0,,,,,0,,,81,74
37560,note_on,,,,,0,0,0,,,,,0,,,86,74
37560,note_on,,,,,127,0,0,,,,,0,,,74,74
37673,note_on,,,,,0,0,0,,,,,0,,,81,0
37673,note_on,,,,,113,0,0,,,,,0,,,74,0
37673,note_on,,,,,0,0,0,,,,,0,,,86,0
37680,note_on,,,,,127,0,1,,,,,0,,,42,99
37799,note_on,,,,,119,0,1,,,,,0,,,42,0
37800,note_on,,,,,127,0,0,,,,,0,,,74,93
37800,note_on,,,,,0,0,0,,,,,0,,,81,93
37800,note_on,,,,,0,0,0,,,,,0,,,86,93
37913,note_on,,,,,113,0,0,,,,,0,,,74,0
37913,note_on,,,,,0,0,0,,,,,0,,,86,0
37913,note_on,,,,,0,0,0,,,,,0,,,81,0
37920,note_on,,,,,121,0,1,,,,,0,,,30,102
38033,note_on,,,,,113,0,1,,,,,0,,,30,0
38040,note_on,,,,,0,0,0,,,,,0,,,81,112
38040,note_on,,,,,0,0,0,,,,,0,,,86,112
38040,note_on,,,,,127,0,0,,,,,0,,,74,112
38153,note_on,,,,,0,0,0,,,,,0,,,81,0
38153,note_on,,,,,0,0,0,,,,,0,,,86,0
38153,note_on,,,,,113,0,0,,,,,0,,,74,0
38160,note_on,,,,,127,0,1,,,,,0,,,37,112
38280,note_on,,,,,0,0,0,,,,,0,,,81,112
38280,note_on,,,,,127,0,0,,,,,0,,,74,112
38280,note_on,,,,,0,0,0,,,,,0,,,86,112
38387,note_on,,,,,227,0,1,,,,,0,,,37,0
38393,note_on,,,,,113,0,0,,,,,0,,,74,0
38393,note_on,,,,,0,0,0,,,,,0,,,86,0
38393,note_on,,,,,0,0,0,,,,,0,,,81,0
38400,note_on,,,,,0,0,1,,,,,0,,,42,112
38400,note_on,,,,,13,0,1,,,,,0,,,30,112
38519,note_on,,,,,119,0,1,,,,,0,,,42,0
38520,note_on,,,,,127,0,0,,,,,0,,,81,112
38520,note_on,,,,,0,0,0,,,,,0,,,93,112
38520,note_on,,,,,0,0,0,,,,,0,,,86,112
38627,note_on,,,,,108,0,1,,,,,0,,,30,0
38633,note_on,,,,,0,0,0,,,,,0,,,93,0
38633,note_on,,,,,0,0,0,,,,,0,,,86,0
38633,note_on,,,,,113,0,0,,,,,0,,,81,0
38640,note_on,,,,,13,0,1,,,,,0,,,37,112
38640,note_on,,,,,0,0,1,,,,,0,,,49,112
38759,note_on,,,,,119,0,1,,,,,0,,,49,0
38760,note_on,,,,,0,0,0,,,,,0,,,86,112
38760,note_on,,,,,127,0,0,,,,,0,,,81,112
38760,note_on,,,,,0,0,0,,,,,0,,,93,112
38867,note_on,,,,,108,0,1,,,,,0,,,37,0
38873,note_on,,,,,0,0,0,,,,,0,,,93,0
38873,note_on,,,,,0,0,0,,,,,0,,,86,0
38873,note_on,,,,,113,0,0,,,,,0,,,81,0
38880,note_on,,,,,13,0,1,,,,,0,,,41,112
38880,note_on,,,,,0,0,1,,,,,0,,,54,112
38999,note_on,,,,,119,0,1,,,,,0,,,54,0
39000,note_on,,,,,127,0,0,,,,,0,,,81,112
39000,note_on,,,,,0,0,0,,,,,0,,,86,112
39000,note_on,,,,,0,0,0,,,,,0,,,93,112
39107,note_on,,,,,108,0,1,,,,,0,,,41,0
39113,note_on,,,,,0,0,0,,,,,0,,,86,0
39113,note_on,,,,,0,0,0,,,,,0,,,93,0
39113,note_on,,,,,113,0,0,,,,,0,,,81,0
39120,note_on,,,,,13,0,1,,,,,0,,,37,112
39120,note_on,,,,,0,0,1,,,,,0,,,49,112
39239,note_on,,,,,119,0,1,,,,,0,,,49,0
39240,note_on,,,,,127,0,0,,,,,0,,,81,112
39240,note_on,,,,,0,0,0,,,,,0,,,86,112
39240,note_on,,,,,0,0,0,,,,,0,,,93,112
39347,note_on,,,,,108,0,1,,,,,0,,,37,0
39353,note_on,,,,,0,0,0,,,,,0,,,93,0
39353,note_on,,,,,113,0,0,,,,,0,,,81,0
39353,note_on,,,,,0,0,0,,,,,0,,,86,0
39360,note_on,,,,,13,0,1,,,,,0,,,36,112
39360,note_on,,,,,0,0,1,,,,,0,,,48,112
39479,note_on,,,,,119,0,1,,,,,0,,,48,0
39480,note_on,,,,,0,0,0,,,,,0,,,86,112
39480,note_on,,,,,127,0,0,,,,,0,,,81,112
39480,note_on,,,,,0,0,0,,,,,0,,,93,112
39587,note_on,,,,,108,0,1,,,,,0,,,36,0
39593,note_on,,,,,0,0,0,,,,,0,,,93,0
39593,note_on,,,,,113,0,0,,,,,0,,,81,0
39593,note_on,,,,,0,0,0,,,,,0,,,86,0
39600,note_on,,,,,13,0,1,,,,,0,,,42,112
39600,note_on,,,,,0,0,1,,,,,0,,,54,112
39827,note_on,,,,,0,0,1,,,,,0,,,54,0
39827,note_on,,,,,227,0,1,,,,,0,,,42,0
39840,note_on,,,,,0,0,1,,,,,0,,,48,112
39840,note_on,,,,,13,0,1,,,,,0,,,36,112
39840,note_on,,,,,0,0,0,,,,,0,,,90,112
39840,note_on,,,,,247,0,0,,,,,0,,,86,112
39840,note_on,,,,,0,0,0,,,,,0,,,93,112
39840,note_on,,,,,0,0,0,,,,,0,,,98,112
40067,note_on,,,,,0,0,0,,,,,0,,,90,0
40067,note_on,,,,,0,0,0,,,,,0,,,98,0
40067,note_on,,,,,0,0,0,,,,,0,,,93,0
40067,note_on,,,,,227,0,0,,,,,0,,,86,0
40067,note_on,,,,,0,0,1,,,,,0,,,48,0
40067,note_on,,,,,227,0,1,,,,,0,,,36,0
40080,note_on,,,,,0,0,0,,,,,0,,,90,112
40080,note_on,,,,,0,0,1,,,,,0,,,47,112
40080,note_on,,,,,13,0,1,,,,,0,,,35,112
40080,note_on,,,,,13,0,0,,,,,0,,,86,112
40080,note_on,,,,,0,0,0,,,,,0,,,93,112
40080,note_on,,,,,0,0,0,,,,,0,,,98,112
40307,note_on,,,,,0,0,0,,,,,0,,,98,0
40307,note_on,,,,,0,0,0,,,,,0,,,93,0
40307,note_on,,,,,0,0,0,,,,,0,,,90,0
40307,note_on,,,,,227,0,0,,,,,0,,,86,0
40307,note_on,,,,,0,0,1,,,,,0,,,47,0
40307,note_on,,,,,227,0,1,,,,,0,,,35,0
40320,note_on,,,,,0,0,0,,,,,0,,,90,112
40320,note_on,,,,,0,0,0,,,,,0,,,94,112
40320,note_on,,,,,0,0,0,,,,,0,,,98,112
40320,note_on,,,,,0,0,1,,,,,0,,,46,112
40320,note_on,,,,,13,0,0,,,,,0,,,86,112
40320,note_on,,,,,13,0,1,,,,,0,,,34,112
40547,note_on,,,,,0,0,0,,,,,0,,,90,0
40547,note_on,,,,,227,0,1,,,,,0,,,34,0
40547,note_on,,,,,227,0,0,,,,,0,,,86,0
40547,note_on,,,,,0,0,1,,,,,0,,,46,0
40547,note_on,,,,,0,0,0,,,,,0,,,98,0
40547,note_on,,,,,0,0,0,,,,,0,,,94,0
40560,note_on,,,,,13,0,0,,,,,0,,,86,112
40560,note_on,,,,,0,0,1,,,,,0,,,45,112
40560,note_on,,,,,13,0,1,,,,,0,,,33,112
40560,note_on,,,,,0,0,0,,,,,0,,,90,112
40560,note_on,,,,,0,0,0,,,,,0,,,95,112
40560,note_on,,,,,0,0,0,,,,,0,,,98,112
40787,note_on,,,,,0,0,1,,,,,0,,,45,0
40787,note_on,,,,,0,0,0,,,,,0,,,90,0
40787,note_on,,,,,227,0,0,,,,,0,,,86,0
40787,note_on,,,,,0,0,0,,,,,0,,,95,0
40787,note_on,,,,,0,0,0,,,,,0,,,98,0
40787,note_on,,,,,227,0,1,,,,,0,,,33,0
40800,note_on,,,,,0,0,0,,,,,0,,,98,112
40800,note_on,,,,,0,0,0,,,,,0,,,96,112
40800,note_on,,,,,0,0,1,,,,,0,,,44,112
40800,note_on,,,,,0,0,0,,,,,0,,,90,112
40800,note_on,,,,,13,0,1,,,,,0,,,32,112
40800,note_on,,,,,13,0,0,,,,,0,,,86,112
41027,note_on,,,,,227,0,1,,,,,0,,,32,0
41027,note_on,,,,,227,0,0,,,,,0,,,86,0
41027,note_on,,,,,0,0,1,,,,,0,,,44,0
41027,note_on,,,,,0,0,0,,,,,0,,,96,0
41027,note_on,,,,,0,0,0,,,,,0,,,90,0
41027,note_on,,,,,0,0,0,,,,,0,,,98,0
41040,note_on,,,,,13,0,1,,,,,0,,,32,112
41040,note_on,,,,,0,0,0,,,,,0,,,98,112
41040,note_on,,,,,0,0,1,,,,,0,,,44,112
41040,note_on,,,,,13,0,0,,,,,0,,,86,112
41040,note_on,,,,,0,0,0,,,,,0,,,96,112
41040,note_on,,,,,0,0,0,,,,,0,,,90,112
41267,note_on,,,,,227,0,0,,,,,0,,,86,0
41267,note_on,,,,,0,0,0,,,,,0,,,96,0
41267,note_on,,,,,0,0,0,,,,,0,,,90,0
41267,note_on,,,,,0,0,0,,,,,0,,,98,0
41267,note_on,,,,,0,0,1,,,,,0,,,44,0
41267,note_on,,,,,227,0,1,,,,,0,,,32,0
41520,note_on,,,,,0,0,1,,,,,0,,,43,112
41520,note_on,,,,,253,0,0,,,,,0,,,91,112
41520,note_on,,,,,253,0,1,,,,,0,,,31,112
41520,note_on,,,,,0,0,0,,,,,0,,,98,112
41520,note_on,,,,,0,0,0,,,,,0,,,95,112
41520,note_on,,,,,0,0,0,,,,,0,,,103,112
41747,note_on,,,,,227,0,1,,,,,0,,,31,0
41747,note_on,,,,,0,0,1,,,,,0,,,43,0
41747,note_on,,,,,227,0,0,,,,,0,,,91,0
41747,note_on,,,,,0,0,0,,,,,0,,,98,0
41747,note_on,,,,,0,0,0,,,,,0,,,95,0
41747,note_on,,,,,0,0,0,,,,,0,,,103,0
41760,note_on,,,,,13,0,1,,,,,0,,,67,112
41879,note_on,,,,,119,0,1,,,,,0,,,67,0
42000,note_on,,,,,121,0,1,,,,,0,,,67,112
42119,note_on,,,,,119,0,1,,,,,0,,,67,0
42240,note_on,,,,,121,0,1,,,,,0,,,67,112
42359,note_on,,,,,119,0,1,,,,,0,,,67,0
42480,note_on,,,,,121,0,1,,,,,0,,,53,112
42480,note_on,,,,,0,0,1,,,,,0,,,68,127
42599,note_on,,,,,119,0,1,,,,,0,,,53,0
42600,note_on,,,,,0,0,0,,,,,0,,,75,74
42600,note_on,,,,,0,0,0,,,,,0,,,80,74
42600,note_on,,,,,853,0,0,,,,,0,,,72,74
42713,note_on,,,,,113,0,0,,,,,0,,,72,0
42713,note_on,,,,,0,0,0,,,,,0,,,80,0
42713,note_on,,,,,0,0,0,,,,,0,,,75,0
42720,note_on,,,,,121,0,1,,,,,0,,,60,74
42839,note_on,,,,,119,0,1,,,,,0,,,60,0
42840,note_on,,,,,0,0,0,,,,,0,,,83,74
42840,note_on,,,,,0,0,0,,,,,0,,,75,74
42840,note_on,,,,,127,0,0,,,,,0,,,72,74
42953,note_on,,,,,0,0,0,,,,,0,,,83,0
42953,note_on,,,,,0,0,0,,,,,0,,,75,0
42953,note_on,,,,,113,0,0,,,,,0,,,72,0
42960,note_on,,,,,121,0,1,,,,,0,,,63,74
43079,note_on,,,,,119,0,1,,,,,0,,,63,0
43080,note_on,,,,,127,0,0,,,,,0,,,72,74
43080,note_on,,,,,0,0,0,,,,,0,,,75,74
43080,note_on,,,,,0,0,0,,,,,0,,,84,74
43193,note_on,,,,,113,0,0,,,,,0,,,72,0
43193,note_on,,,,,0,0,0,,,,,0,,,75,0
43193,note_on,,,,,0,0,0,,,,,0,,,84,0
43200,note_on,,,,,121,0,1,,,,,0,,,60,74
43319,note_on,,,,,119,0,1,,,,,0,,,60,0
43320,note_on,,,,,127,0,0,,,,,0,,,72,74
43320,note_on,,,,,0,0,0,,,,,0,,,75,74
43320,note_on,,,,,0,0,0,,,,,0,,,80,74
43433,note_on,,,,,0,0,0,,,,,0,,,75,0
43433,note_on,,,,,0,0,0,,,,,0,,,80,0
43433,note_on,,,,,113,0,0,,,,,0,,,72,0
43440,note_on,,,,,121,0,1,,,,,0,,,56,74
43559,note_on,,,,,119,0,1,,,,,0,,,56,0
43560,note_on,,,,,0,0,0,,,,,0,,,83,74
43560,note_on,,,,,127,0,0,,,,,0,,,72,74
43560,note_on,,,,,0,0,0,,,,,0,,,75,74
43673,note_on,,,,,0,0,0,,,,,0,,,75,0
43673,note_on,,,,,0,0,0,,,,,0,,,83,0
43673,note_on,,,,,113,0,0,,,,,0,,,72,0
43680,note_on,,,,,121,0,1,,,,,0,,,53,74
43799,note_on,,,,,119,0,1,,,,,0,,,53,0
43800,note_on,,,,,0,0,0,,,,,0,,,84,74
43800,note_on,,,,,0,0,0,,,,,0,,,75,74
43800,note_on,,,,,127,0,0,,,,,0,,,72,74
43913,note_on,,,,,0,0,0,,,,,0,,,84,0
43913,note_on,,,,,113,0,0,,,,,0,,,72,0
43913,note_on,,,,,0,0,0,,,,,0,,,75,0
43919,note_on,,,,,120,0,1,,,,,0,,,68,0
43920,note_on,,,,,0,0,1,,,,,0,,,68,74
43920,note_on,,,,,1,0,1,,,,,0,,,65,74
44039,note_on,,,,,119,0,1,,,,,0,,,65,0
44039,note_on,,,,,0,0,1,,,,,0,,,68,0
44040,note_on,,,,,127,0,0,,,,,0,,,62,74
44040,note_on,,,,,0,0,0,,,,,0,,,70,74
44153,note_on,,,,,113,0,0,,,,,0,,,62,0
44153,note_on,,,,,0,0,0,,,,,0,,,70,0
44160,note_on,,,,,121,0,1,,,,,0,,,65,74
44160,note_on,,,,,0,0,1,,,,,0,,,68,74
44279,note_on,,,,,119,0,1,,,,,0,,,65,0
44279,note_on,,,,,0,0,1,,,,,0,,,68,0
44280,note_on,,,,,127,0,0,,,,,0,,,62,74
44280,note_on,,,,,0,0,0,,,,,0,,,70,74
44393,note_on,,,,,113,0,0,,,,,0,,,62,0
44393,note_on,,,,,0,0,0,,,,,0,,,70,0
44400,note_on,,,,,121,0,1,,,,,0,,,64,73
44400,note_on,,,,,0,0,1,,,,,0,,,68,73
44519,note_on,,,,,119,0,1,,,,,0,,,64,0
44519,note_on,,,,,0,0,1,,,,,0,,,68,0
44520,note_on,,,,,0,0,0,,,,,0,,,70,71
44520,note_on,,,,,127,0,0,,,,,0,,,61,71
44633,note_on,,,,,113,0,0,,,,,0,,,61,0
44633,note_on,,,,,0,0,0,,,,,0,,,70,0
44640,note_on,,,,,0,0,1,,,,,0,,,68,69
44640,note_on,,,,,121,0,1,,,,,0,,,63,69
44759,note_on,,,,,0,0,1,,,,,0,,,68,0
44759,note_on,,,,,119,0,1,,,,,0,,,63,0
44760,note_on,,,,,0,0,0,,,,,0,,,70,68
44760,note_on,,,,,127,0,0,,,,,0,,,60,68
44873,note_on,,,,,113,0,0,,,,,0,,,60,0
44873,note_on,,,,,0,0,0,,,,,0,,,70,0
44880,note_on,,,,,0,0,1,,,,,0,,,65,66
44880,note_on,,,,,121,0,1,,,,,0,,,62,66
44880,note_on,,,,,0,0,1,,,,,0,,,68,66
44999,note_on,,,,,0,0,1,,,,,0,,,65,0
44999,note_on,,,,,119,0,1,,,,,0,,,62,0
44999,note_on,,,,,0,0,1,,,,,0,,,68,0
45000,note_on,,,,,0,0,0,,,,,0,,,67,64
45000,note_on,,,,,127,0,0,,,,,0,,,59,64
45113,note_on,,,,,113,0,0,,,,,0,,,59,0
45113,note_on,,,,,0,0,0,,,,,0,,,67,0
45120,note_on,,,,,121,0,1,,,,,0,,,62,64
45120,note_on,,,,,0,0,1,,,,,0,,,68,64
45120,note_on,,,,,0,0,1,,,,,0,,,65,64
45233,note_on,,,,,113,0,1,,,,,0,,,62,0
45233,note_on,,,,,0,0,1,,,,,0,,,68,0
45233,note_on,,,,,0,0,1,,,,,0,,,65,0
45240,note_on,,,,,0,0,0,,,,,0,,,67,64
45240,note_on,,,,,127,0,0,,,,,0,,,59,64
45353,note_on,,,,,0,0,0,,,,,0,,,67,0
45353,note_on,,,,,113,0,0,,,,,0,,,59,0
45360,note_on,,,,,127,0,1,,,,,0,,,53,74
45360,note_on,,,,,0,0,1,,,,,0,,,68,88
45479,note_on,,,,,119,0,1,,,,,0,,,53,0
45480,note_on,,,,,0,0,0,,,,,0,,,80,74
45480,note_on,,,,,0,0,0,,,,,0,,,75,74
45480,note_on,,,,,127,0,0,,,,,0,,,72,74
45593,note_on,,,,,0,0,0,,,,,0,,,80,0
45593,note_on,,,,,0,0,0,,,,,0,,,75,0
45593,note_on,,,,,113,0,0,,,,,0,,,72,0
45600,note_on,,,,,121,0,1,,,,,0,,,60,74
45719,note_on,,,,,119,0,1,,,,,0,,,60,0
45720,note_on,,,,,0,0,0,,,,,0,,,75,74
45720,note_on,,,,,127,0,0,,,,,0,,,72,74
45720,note_on,,,,,0,0,0,,,,,0,,,83,74
45833,note_on,,,,,0,0,0,,,,,0,,,83,0
45833,note_on,,,,,0,0,0,,,,,0,,,75,0
45833,note_on,,,,,113,0,0,,,,,0,,,72,0
45840,note_on,,,,,121,0,1,,,,,0,,,63,74
45959,note_on,,,,,119,0,1,,,,,0,,,63,0
45960,note_on,,,,,0,0,0,,,,,0,,,75,74
45960,note_on,,,,,0,0,0,,,,,0,,,84,74
45960,note_on,,,,,127,0,0,,,,,0,,,72,74
46073,note_on,,,,,0,0,0,,,,,0,,,75,0
46073,note_on,,,,,0,0,0,,,,,0,,,84,0
46073,note_on,,,,,113,0,0,,,,,0,,,72,0
46080,note_on,,,,,121,0,1,,,,,0,,,60,74
46199,note_on,,,,,119,0,1,,,,,0,,,60,0
46200,note_on,,,,,0,0,0,,,,,0,,,75,74
46200,note_on,,,,,0,0,0,,,,,0,,,80,74
46200,note_on,,,,,127,0,0,,,,,0,,,72,74
46313,note_on,,,,,0,0,0,,,,,0,,,75,0
46313,note_on,,,,,0,0,0,,,,,0,,,80,0
46313,note_on,,,,,113,0,0,,,,,0,,,72,0
46320,note_on,,,,,121,0,1,,,,,0,,,56,74
46439,note_on,,,,,119,0,1,,,,,0,,,56,0
46440,note_on,,,,,127,0,0,,,,,0,,,72,74
46440,note_on,,,,,0,0,0,,,,,0,,,83,74
46440,note_on,,,,,0,0,0,,,,,0,,,75,74
46553,note_on,,,,,0,0,0,,,,,0,,,83,0
46553,note_on,,,,,0,0,0,,,,,0,,,75,0
46553,note_on,,,,,113,0,0,,,,,0,,,72,0
46560,note_on,,,,,121,0,1,,,,,0,,,53,74
46679,note_on,,,,,119,0,1,,,,,0,,,53,0
46680,note_on,,,,,0,0,0,,,,,0,,,84,74
46680,note_on,,,,,127,0,0,,,,,0,,,72,74
46680,note_on,,,,,0,0,0,,,,,0,,,75,74
46793,note_on,,,,,113,0,0,,,,,0,,,72,0
46793,note_on,,,,,0,0,0,,,,,0,,,84,0
46793,note_on,,,,,0,0,0,,,,,0,,,75,0
46799,note_on,,,,,120,0,1,,,,,0,,,68,0
46800,note_on,,,,,0,0,1,,,,,0,,,68,74
46800,note_on,,,,,1,0,1,,,,,0,,,65,74
46919,note_on,,,,,0,0,1,,,,,0,,,68,0
46919,note_on,,,,,119,0,1,,,,,0,,,65,0
46920,note_on,,,,,0,0,0,,,,,0,,,70,74
46920,note_on,,,,,127,0,0,,,,,0,,,62,74
47033,note_on,,,,,0,0,0,,,,,0,,,70,0
47033,note_on,,,,,113,0,0,,,,,0,,,62,0
47040,note_on,,,,,121,0,1,,,,,0,,,65,73
47040,note_on,,,,,0,0,1,,,,,0,,,68,73
47159,note_on,,,,,119,0,1,,,,,0,,,65,0
47159,note_on,,,,,0,0,1,,,,,0,,,68,0
47160,note_on,,,,,127,0,0,,,,,0,,,62,72
47160,note_on,,,,,0,0,0,,,,,0,,,70,72
47273,note_on,,,,,113,0,0,,,,,0,,,62,0
47273,note_on,,,,,0,0,0,,,,,0,,,70,0
47280,note_on,,,,,121,0,1,,,,,0,,,64,71
47280,note_on,,,,,0,0,1,,,,,0,,,68,71
47399,note_on,,,,,0,0,1,,,,,0,,,68,0
47399,note_on,,,,,119,0,1,,,,,0,,,64,0
47400,note_on,,,,,127,0,0,,,,,0,,,61,69
47400,note_on,,,,,0,0,0,,,,,0,,,70,69
47513,note_on,,,,,0,0,0,,,,,0,,,70,0
47513,note_on,,,,,113,0,0,,,,,0,,,61,0
47520,note_on,,,,,121,0,1,,,,,0,,,63,68
47520,note_on,,,,,0,0,1,,,,,0,,,68,68
47639,note_on,,,,,0,0,1,,,,,0,,,68,0
47639,note_on,,,,,119,0,1,,,,,0,,,63,0
47640,note_on,,,,,127,0,0,,,,,0,,,60,67
47640,note_on,,,,,0,0,0,,,,,0,,,70,67
47753,note_on,,,,,0,0,0,,,,,0,,,70,0
47753,note_on,,,,,113,0,0,,,,,0,,,60,0
47760,note_on,,,,,0,0,1,,,,,0,,,65,66
47760,note_on,,,,,0,0,1,,,,,0,,,68,66
47760,note_on,,,,,121,0,1,,,,,0,,,62,66
47879,note_on,,,,,0,0,1,,,,,0,,,65,0
47879,note_on,,,,,0,0,1,,,,,0,,,68,0
47879,note_on,,,,,119,0,1,,,,,0,,,62,0
47880,note_on,,,,,127,0,0,,,,,0,,,59,64
47880,note_on,,,,,0,0,0,,,,,0,,,67,64
47993,note_on,,,,,0,0,0,,,,,0,,,67,0
47993,note_on,,,,,113,0,0,,,,,0,,,59,0
48000,note_on,,,,,121,0,1,,,,,0,,,62,64
48000,note_on,,,,,0,0,1,,,,,0,,,65,64
48000,note_on,,,,,0,0,1,,,,,0,,,68,64
48113,note_on,,,,,0,0,1,,,,,0,,,65,0
48113,note_on,,,,,0,0,1,,,,,0,,,68,0
48113,note_on,,,,,113,0,1,,,,,0,,,62,0
48120,note_on,,,,,127,0,0,,,,,0,,,59,64
48120,note_on,,,,,0,0,0,,,,,0,,,67,64
48233,note_on,,,,,113,0,0,,,,,0,,,59,0
48233,note_on,,,,,0,0,0,,,,,0,,,67,0
48240,note_on,,,,,127,0,1,,,,,0,,,51,74
48240,note_on,,,,,0,0,1,,,,,0,,,67,74
48360,note_on,,,,,0,0,0,,,,,0,,,84,74
48360,note_on,,,,,127,0,0,,,,,0,,,72,74
48473,note_on,,,,,113,0,0,,,,,0,,,72,0
48473,note_on,,,,,0,0,0,,,,,0,,,84,0
48479,note_on,,,,,239,0,1,,,,,0,,,51,0
48480,note_on,,,,,1,0,1,,,,,0,,,55,74
48599,note_on,,,,,119,0,1,,,,,0,,,55,0
48600,note_on,,,,,127,0,0,,,,,0,,,74,74
48600,note_on,,,,,0,0,0,,,,,0,,,86,74
48713,note_on,,,,,113,0,0,,,,,0,,,74,0
48713,note_on,,,,,0,0,0,,,,,0,,,86,0
48720,note_on,,,,,121,0,1,,,,,0,,,60,74
48839,note_on,,,,,119,0,1,,,,,0,,,60,0
48840,note_on,,,,,0,0,0,,,,,0,,,87,74
48840,note_on,,,,,127,0,0,,,,,0,,,75,74
48923,note_on,,,,,84,0,1,,,,,0,,,67,0
48953,note_on,,,,,113,0,0,,,,,0,,,75,0
48953,note_on,,,,,0,0,0,,,,,0,,,87,0
48960,note_on,,,,,0,0,1,,,,,0,,,67,74
48960,note_on,,,,,37,0,1,,,,,0,,,55,74
49079,note_on,,,,,119,0,1,,,,,0,,,55,0
49079,note_on,,,,,0,0,1,,,,,0,,,67,0
49080,note_on,,,,,127,0,0,,,,,0,,,72,74
49080,note_on,,,,,0,0,0,,,,,0,,,84,74
49193,note_on,,,,,0,0,0,,,,,0,,,84,0
49193,note_on,,,,,113,0,0,,,,,0,,,72,0
49200,note_on,,,,,0,0,1,,,,,0,,,67,74
49200,note_on,,,,,121,0,1,,,,,0,,,63,74
49319,note_on,,,,,0,0,1,,,,,0,,,67,0
49319,note_on,,,,,119,0,1,,,,,0,,,63,0
49320,note_on,,,,,0,0,0,,,,,0,,,86,74
49320,note_on,,,,,127,0,0,,,,,0,,,74,74
49433,note_on,,,,,0,0,0,,,,,0,,,86,0
49433,note_on,,,,,113,0,0,,,,,0,,,74,0
49440,note_on,,,,,0,0,1,,,,,0,,,67,74
49440,note_on,,,,,121,0,1,,,,,0,,,60,74
49559,note_on,,,,,119,0,1,,,,,0,,,60,0
49559,note_on,,,,,0,0,1,,,,,0,,,67,0
49560,note_on,,,,,127,0,0,,,,,0,,,75,74
49560,note_on,,,,,0,0,0,,,,,0,,,87,74
49673,note_on,,,,,113,0,0,,,,,0,,,75,0
49673,note_on,,,,,0,0,0,,,,,0,,,87,0
49680,note_on,,,,,121,0,1,,,,,0,,,46,74
49680,note_on,,,,,0,0,1,,,,,0,,,62,88
49800,note_on,,,,,0,0,0,,,,,0,,,86,74
49800,note_on,,,,,127,0,0,,,,,0,,,74,74
49913,note_on,,,,,113,0,0,,,,,0,,,74,0
49913,note_on,,,,,0,0,0,,,,,0,,,86,0
49919,note_on,,,,,239,0,1,,,,,0,,,46,0
49920,note_on,,,,,1,0,1,,,,,0,,,50,74
50039,note_on,,,,,119,0,1,,,,,0,,,50,0
50040,note_on,,,,,127,0,0,,,,,0,,,72,74
50040,note_on,,,,,0,0,0,,,,,0,,,84,74
50153,note_on,,,,,0,0,0,,,,,0,,,84,0
50153,note_on,,,,,113,0,0,,,,,0,,,72,0
50160,note_on,,,,,121,0,1,,,,,0,,,55,74
50279,note_on,,,,,119,0,1,,,,,0,,,55,0
50280,note_on,,,,,0,0,0,,,,,0,,,82,74
50280,note_on,,,,,127,0,0,,,,,0,,,70,74
50393,note_on,,,,,0,0,0,,,,,0,,,82,0
50393,note_on,,,,,113,0,0,,,,,0,,,70,0
50399,note_on,,,,,120,0,1,,,,,0,,,62,0
50400,note_on,,,,,0,0,1,,,,,0,,,62,74
50400,note_on,,,,,1,0,1,,,,,0,,,50,74
50519,note_on,,,,,119,0,1,,,,,0,,,50,0
50519,note_on,,,,,0,0,1,,,,,0,,,62,0
50520,note_on,,,,,0,0,0,,,,,0,,,81,74
50520,note_on,,,,,127,0,0,,,,,0,,,69,74
50633,note_on,,,,,113,0,0,,,,,0,,,69,0
50633,note_on,,,,,0,0,0,,,,,0,,,81,0
50640,note_on,,,,,0,0,1,,,,,0,,,62,74
50640,note_on,,,,,121,0,1,,,,,0,,,58,74
50759,note_on,,,,,0,0,1,,,,,0,,,62,0
50759,note_on,,,,,119,0,1,,,,,0,,,58,0
50760,note_on,,,,,0,0,0,,,,,0,,,79,74
50760,note_on,,,,,127,0,0,,,,,0,,,67,74
50873,note_on,,,,,113,0,0,,,,,0,,,67,0
50873,note_on,,,,,0,0,0,,,,,0,,,79,0
50880,note_on,,,,,0,0,1,,,,,0,,,62,74
50880,note_on,,,,,121,0,1,,,,,0,,,55,74
50999,note_on,,,,,0,0,1,,,,,0,,,62,0
50999,note_on,,,,,119,0,1,,,,,0,,,55,0
51000,note_on,,,,,127,0,0,,,,,0,,,74,74
51113,note_on,,,,,113,0,0,,,,,0,,,74,0
51120,note_on,,,,,0,0,1,,,,,0,,,58,88
51120,note_on,,,,,121,0,1,,,,,0,,,43,74
51240,note_on,,,,,0,0,0,,,,,0,,,75,74
51240,note_on,,,,,127,0,0,,,,,0,,,63,74
51353,note_on,,,,,113,0,0,,,,,0,,,63,0
51353,note_on,,,,,0,0,0,,,,,0,,,75,0
51359,note_on,,,,,239,0,1,,,,,0,,,43,0
51360,note_on,,,,,1,0,1,,,,,0,,,46,74
51479,note_on,,,,,119,0,1,,,,,0,,,46,0
51480,note_on,,,,,127,0,0,,,,,0,,,65,74
51480,note_on,,,,,0,0,0,,,,,0,,,77,74
51593,note_on,,,,,113,0,0,,,,,0,,,65,0
51593,note_on,,,,,0,0,0,,,,,0,,,77,0
51600,note_on,,,,,121,0,1,,,,,0,,,51,74
51719,note_on,,,,,119,0,1,,,,,0,,,51,0
51720,note_on,,,,,127,0,0,,,,,0,,,67,74
51720,note_on,,,,,0,0,0,,,,,0,,,79,74
51833,note_on,,,,,113,0,0,,,,,0,,,67,0
51833,note_on,,,,,0,0,0,,,,,0,,,79,0
51839,note_on,,,,,120,0,1,,,,,0,,,58,0
51840,note_on,,,,,1,0,1,,,,,0,,,46,74
51840,note_on,,,,,0,0,1,,,,,0,,,58,74
51959,note_on,,,,,119,0,1,,,,,0,,,46,0
51959,note_on,,,,,0,0,1,,,,,0,,,58,0
51960,note_on,,,,,127,0,0,,,,,0,,,63,74
51960,note_on,,,,,0,0,0,,,,,0,,,75,74
52073,note_on,,,,,0,0,0,,,,,0,,,75,0
52073,note_on,,,,,113,0,0,,,,,0,,,63,0
52080,note_on,,,,,0,0,1,,,,,0,,,58,74
52080,note_on,,,,,121,0,1,,,,,0,,,55,74
52199,note_on,,,,,119,0,1,,,,,0,,,55,0
52199,note_on,,,,,0,0,1,,,,,0,,,58,0
52200,note_on,,,,,0,0,0,,,,,0,,,77,74
52200,note_on,,,,,127,0,0,,,,,0,,,65,74
52313,note_on,,,,,113,0,0,,,,,0,,,65,0
52313,note_on,,,,,0,0,0,,,,,0,,,77,0
52320,note_on,,,,,0,0,1,,,,,0,,,58,74
52320,note_on,,,,,121,0,1,,,,,0,,,51,74
52439,note_on,,,,,0,0,1,,,,,0,,,58,0
52439,note_on,,,,,119,0,1,,,,,0,,,51,0
52440,note_on,,,,,127,0,0,,,,,0,,,67,74
52440,note_on,,,,,0,0,0,,,,,0,,,79,74
52553,note_on,,,,,0,0,0,,,,,0,,,79,0
52553,note_on,,,,,113,0,0,,,,,0,,,67,0
52560,note_on,,,,,121,0,1,,,,,0,,,38,74
52560,note_on,,,,,0,0,1,,,,,0,,,56,88
52680,note_on,,,,,127,0,0,,,,,0,,,65,74
52680,note_on,,,,,0,0,0,,,,,0,,,77,74
52793,note_on,,,,,113,0,0,,,,,0,,,65,0
52793,note_on,,,,,0,0,0,,,,,0,,,77,0
52799,note_on,,,,,239,0,1,,,,,0,,,38,0
52800,note_on,,,,,1,0,1,,,,,0,,,47,74
52919,note_on,,,,,119,0,1,,,,,0,,,47,0
52920,note_on,,,,,0,0,0,,,,,0,,,75,74
52920,note_on,,,,,127,0,0,,,,,0,,,63,74
53033,note_on,,,,,0,0,0,,,,,0,,,75,0
53033,note_on,,,,,113,0,0,,,,,0,,,63,0
53040,note_on,,,,,121,0,1,,,,,0,,,53,74
53159,note_on,,,,,119,0,1,,,,,0,,,53,0
53160,note_on,,,,,0,0,0,,,,,0,,,74,74
53160,note_on,,,,,127,0,0,,,,,0,,,62,74
53273,note_on,,,,,113,0,0,,,,,0,,,62,0
53273,note_on,,,,,0,0,0,,,,,0,,,74,0
53279,note_on,,,,,120,0,1,,,,,0,,,56,0
53280,note_on,,,,,0,0,1,,,,,0,,,56,74
53280,note_on,,,,,1,0,1,,,,,0,,,47,74
53399,note_on,,,,,0,0,1,,,,,0,,,56,0
53399,note_on,,,,,119,0,1,,,,,0,,,47,0
53400,note_on,,,,,0,0,0,,,,,0,,,72,74
53400,note_on,,,,,127,0,0,,,,,0,,,60,74
53513,note_on,,,,,113,0,0,,,,,0,,,60,0
53513,note_on,,,,,0,0,0,,,,,0,,,72,0
53520,note_on,,,,,121,0,1,,,,,0,,,50,74
53520,note_on,,,,,0,0,1,,,,,0,,,56,74
53639,note_on,,,,,119,0,1,,,,,0,,,50,0
53639,note_on,,,,,0,0,1,,,,,0,,,56,0
53640,note_on,,,,,127,0,0,,,,,0,,,59,74
53640,note_on,,,,,0,0,0,,,,,0,,,71,74
53753,note_on,,,,,113,0,0,,,,,0,,,59,0
53753,note_on,,,,,0,0,0,,,,,0,,,71,0
53760,note_on,,,,,121,0,1,,,,,0,,,50,74
53760,note_on,,,,,0,0,1,,,,,0,,,53,74
53879,note_on,,,,,0,0,1,,,,,0,,,53,0
53879,note_on,,,,,119,0,1,,,,,0,,,50,0
53880,note_on,,,,,127,0,0,,,,,0,,,56,74
53880,note_on,,,,,0,0,0,,,,,0,,,68,74
53993,note_on,,,,,0,0,0,,,,,0,,,68,0
53993,note_on,,,,,113,0,0,,,,,0,,,56,0
54000,note_on,,,,,121,0,1,,,,,0,,,48,74
54000,note_on,,,,,0,0,1,,,,,0,,,52,88
54119,note_on,,,,,119,0,1,,,,,0,,,48,0
54120,note_on,,,,,0,0,0,,,,,0,,,69,74
54120,note_on,,,,,127,0,0,,,,,0,,,57,74
54233,note_on,,,,,113,0,0,,,,,0,,,57,0
54233,note_on,,,,,0,0,0,,,,,0,,,69,0
54240,note_on,,,,,121,0,1,,,,,0,,,47,75
54359,note_on,,,,,119,0,1,,,,,0,,,47,0
54360,note_on,,,,,127,0,0,,,,,0,,,59,76
54360,note_on,,,,,0,0,0,,,,,0,,,71,76
54473,note_on,,,,,113,0,0,,,,,0,,,59,0
54473,note_on,,,,,0,0,0,,,,,0,,,71,0
54480,note_on,,,,,121,0,1,,,,,0,,,45,78
54599,note_on,,,,,119,0,1,,,,,0,,,45,0
54600,note_on,,,,,127,0,0,,,,,0,,,60,79
54600,note_on,,,,,0,0,0,,,,,0,,,72,79
54713,note_on,,,,,113,0,0,,,,,0,,,60,0
54713,note_on,,,,,0,0,0,,,,,0,,,72,0
54719,note_on,,,,,120,0,1,,,,,0,,,52,0
54720,note_on,,,,,1,0,1,,,,,0,,,48,81
54720,note_on,,,,,0,0,1,,,,,0,,,52,81
54839,note_on,,,,,119,0,1,,,,,0,,,48,0
54839,note_on,,,,,0,0,1,,,,,0,,,52,0
54840,note_on,,,,,0,0,0,,,,,0,,,69,82
54840,note_on,,,,,127,0,0,,,,,0,,,57,82
54953,note_on,,,,,113,0,0,,,,,0,,,57,0
54953,note_on,,,,,0,0,0,,,,,0,,,69,0
54960,note_on,,,,,121,0,1,,,,,0,,,47,84
54960,note_on,,,,,0,0,1,,,,,0,,,52,84
55079,note_on,,,,,119,0,1,,,,,0,,,47,0
55079,note_on,,,,,0,0,1,,,,,0,,,52,0
55080,note_on,,,,,0,0,0,,,,,0,,,71,85
55080,note_on,,,,,127,0,0,,,,,0,,,59,85
55193,note_on,,,,,113,0,0,,,,,0,,,59,0
55193,note_on,,,,,0,0,0,,,,,0,,,71,0
55200,note_on,,,,,121,0,1,,,,,0,,,45,87
55200,note_on,,,,,0,0,1,,,,,0,,,52,87
55319,note_on,,,,,119,0,1,,,,,0,,,45,0
55319,note_on,,,,,0,0,1,,,,,0,,,52,0
55320,note_on,,,,,0,0,0,,,,,0,,,72,88
55320,note_on,,,,,127,0,0,,,,,0,,,60,88
55433,note_on,,,,,113,0,0,,,,,0,,,60,0
55433,note_on,,,,,0,0,0,,,,,0,,,72,0
55440,note_on,,,,,0,0,1,,,,,0,,,49,108
55440,note_on,,,,,121,0,1,,,,,0,,,43,90
55559,note_on,,,,,119,0,1,,,,,0,,,43,0
55560,note_on,,,,,0,0,0,,,,,0,,,70,91
55560,note_on,,,,,127,0,0,,,,,0,,,58,91
55673,note_on,,,,,0,0,0,,,,,0,,,70,0
55673,note_on,,,,,113,0,0,,,,,0,,,58,0
55680,note_on,,,,,121,0,1,,,,,0,,,41,93
55799,note_on,,,,,119,0,1,,,,,0,,,41,0
55800,note_on,,,,,127,0,0,,,,,0,,,57,94
55800,note_on,,,,,0,0,0,,,,,0,,,69,94
55913,note_on,,,,,0,0,0,,,,,0,,,69,0
55913,note_on,,,,,113,0,0,,,,,0,,,57,0
55920,note_on,,,,,121,0,1,,,,,0,,,40,96
56039,note_on,,,,,119,0,1,,,,,0,,,40,0
56040,note_on,,,,,127,0,0,,,,,0,,,55,96
56040,note_on,,,,,0,0,0,,,,,0,,,67,96
56153,note_on,,,,,0,0,0,,,,,0,,,67,0
56153,note_on,,,,,113,0,0,,,,,0,,,55,0
56159,note_on,,,,,120,0,1,,,,,0,,,49,0
56160,note_on,,,,,1,0,1,,,,,0,,,46,96
56160,note_on,,,,,0,0,1,,,,,0,,,49,96
56279,note_on,,,,,119,0,1,,,,,0,,,46,0
56279,note_on,,,,,0,0,1,,,,,0,,,49,0
56280,note_on,,,,,127,0,0,,,,,0,,,55,96
56280,note_on,,,,,0,0,0,,,,,0,,,67,96
56393,note_on,,,,,113,0,0,,,,,0,,,55,0
56393,note_on,,,,,0,0,0,,,,,0,,,67,0
56400,note_on,,,,,121,0,1,,,,,0,,,45,96
56400,note_on,,,,,0,0,1,,,,,0,,,49,96
56519,note_on,,,,,0,0,1,,,,,0,,,49,0
56519,note_on,,,,,119,0,1,,,,,0,,,45,0
56520,note_on,,,,,127,0,0,,,,,0,,,53,96
56520,note_on,,,,,0,0,0,,,,,0,,,65,96
56633,note_on,,,,,0,0,0,,,,,0,,,65,0
56633,note_on,,,,,113,0,0,,,,,0,,,53,0
56640,note_on,,,,,121,0,1,,,,,0,,,43,96
56640,note_on,,,,,0,0,1,,,,,0,,,49,96
56759,note_on,,,,,0,0,1,,,,,0,,,49,0
56759,note_on,,,,,119,0,1,,,,,0,,,43,0
56760,note_on,,,,,0,0,0,,,,,0,,,64,96
56760,note_on,,,,,127,0,0,,,,,0,,,52,96
56873,note_on,,,,,113,0,0,,,,,0,,,52,0
56873,note_on,,,,,0,0,0,,,,,0,,,64,0
56880,note_on,,,,,0,0,1,,,,,0,,,45,96
56880,note_on,,,,,121,0,1,,,,,0,,,41,96
57000,note_on,,,,,0,0,0,,,,,0,,,62,96
57000,note_on,,,,,127,0,0,,,,,0,,,50,96
57107,note_on,,,,,227,0,1,,,,,0,,,41,0
57113,note_on,,,,,113,0,0,,,,,0,,,50,0
57113,note_on,,,,,0,0,0,,,,,0,,,62,0
57120,note_on,,,,,13,0,1,,,,,0,,,40,95
57240,note_on,,,,,0,0,0,,,,,0,,,60,94
57240,note_on,,,,,127,0,0,,,,,0,,,48,94
57335,note_on,,,,,215,0,1,,,,,0,,,45,0
57347,note_on,,,,,12,0,1,,,,,0,,,40,0
57353,note_on,,,,,113,0,0,,,,,0,,,48,0
57353,note_on,,,,,0,0,0,,,,,0,,,60,0
57360,note_on,,,,,13,0,1,,,,,0,,,38,93
57360,note_on,,,,,0,0,1,,,,,0,,,45,93
57480,note_on,,,,,127,0,0,,,,,0,,,47,92
57480,note_on,,,,,0,0,0,,,,,0,,,59,92
57587,note_on,,,,,227,0,1,,,,,0,,,38,0
57593,note_on,,,,,113,0,0,,,,,0,,,47,0
57593,note_on,,,,,0,0,0,,,,,0,,,59,0
57600,note_on,,,,,13,0,1,,,,,0,,,41,91
57720,note_on,,,,,0,0,0,,,,,0,,,62,90
57720,note_on,,,,,127,0,0,,,,,0,,,50,90
57815,note_on,,,,,215,0,1,,,,,0,,,45,0
57827,note_on,,,,,12,0,1,,,,,0,,,41,0
57833,note_on,,,,,0,0,0,,,,,0,,,62,0
57833,note_on,,,,,113,0,0,,,,,0,,,50,0
57840,note_on,,,,,13,0,1,,,,,0,,,40,89
57840,note_on,,,,,0,0,1,,,,,0,,,45,89
57960,note_on,,,,,127,0,0,,,,,0,,,48,88
57960,note_on,,,,,0,0,0,,,,,0,,,60,88
58067,note_on,,,,,227,0,1,,,,,0,,,40,0
58073,note_on,,,,,113,0,0,,,,,0,,,48,0
58073,note_on,,,,,0,0,0,,,,,0,,,60,0
58080,note_on,,,,,13,0,1,,,,,0,,,39,86
58200,note_on,,,,,127,0,0,,,,,0,,,47,86
58200,note_on,,,,,0,0,0,,,,,0,,,59,86
58295,note_on,,,,,215,0,1,,,,,0,,,45,0
58307,note_on,,,,,12,0,1,,,,,0,,,39,0
58313,note_on,,,,,0,0,0,,,,,0,,,59,0
58313,note_on,,,,,113,0,0,,,,,0,,,47,0
58320,note_on,,,,,0,0,1,,,,,0,,,28,86
58320,note_on,,,,,13,0,1,,,,,0,,,28,86
58320,note_on,,,,,0,0,1,,,,,0,,,28,0
58322,control_change,,,,,9,0,0,,,64,127,0,,,,
58440,note_on,,,,,120,0,1,,,,,0,,,40,86
58559,note_on,,,,,119,0,1,,,,,0,,,28,0
58559,note_on,,,,,0,0,1,,,,,0,,,40,0
58560,note_on,,,,,0,0,1,,,,,0,,,28,86
58560,note_on,,,,,1,0,1,,,,,0,,,29,86
58679,note_on,,,,,119,0,1,,,,,0,,,28,0
58680,note_on,,,,,1,0,1,,,,,0,,,40,86
58799,note_on,,,,,119,0,1,,,,,0,,,29,0
58799,note_on,,,,,0,0,1,,,,,0,,,40,0
58800,note_on,,,,,0,0,1,,,,,0,,,28,86
58800,note_on,,,,,1,0,1,,,,,0,,,32,86
58913,note_on,,,,,113,0,1,,,,,0,,,28,0
58920,note_on,,,,,7,0,1,,,,,0,,,40,86
59027,note_on,,,,,107,0,1,,,,,0,,,32,0
59033,note_on,,,,,6,0,1,,,,,0,,,40,0
59040,note_on,,,,,0,0,1,,,,,0,,,40,86
59040,note_on,,,,,7,0,1,,,,,0,,,52,86
59041,control_change,,,,,719,0,0,,,64,0,0,,,,
59159,note_on,,,,,119,0,1,,,,,0,,,52,0
59159,note_on,,,,,0,0,1,,,,,0,,,40,0
59160,note_on,,,,,0,0,0,,,,,0,,,56,86
59160,note_on,,,,,119,0,0,,,,,0,,,64,86
59273,note_on,,,,,0,0,0,,,,,0,,,56,0
59273,note_on,,,,,113,0,0,,,,,0,,,64,0
59280,note_on,,,,,121,0,1,,,,,0,,,52,88
59280,note_on,,,,,0,0,1,,,,,0,,,41,88
59399,note_on,,,,,0,0,1,,,,,0,,,41,0
59399,note_on,,,,,119,0,1,,,,,0,,,52,0
59400,note_on,,,,,0,0,0,,,,,0,,,57,90
59400,note_on,,,,,127,0,0,,,,,0,,,64,90
59513,note_on,,,,,0,0,0,,,,,0,,,57,0
59513,note_on,,,,,113,0,0,,,,,0,,,64,0
59520,note_on,,,,,121,0,1,,,,,0,,,52,92
59520,note_on,,,,,0,0,1,,,,,0,,,44,92
59639,note_on,,,,,0,0,1,,,,,0,,,44,0
59639,note_on,,,,,119,0,1,,,,,0,,,52,0
59640,note_on,,,,,0,0,0,,,,,0,,,59,94
59640,note_on,,,,,127,0,0,,,,,0,,,64,94
59753,note_on,,,,,0,0,0,,,,,0,,,59,0
59753,note_on,,,,,113,0,0,,,,,0,,,64,0
59760,note_on,,,,,7,0,0,,,,,0,,,65,96
59760,note_on,,,,,0,0,1,,,,,0,,,52,115
59760,note_on,,,,,121,0,1,,,,,0,,,45,96
59880,note_on,,,,,120,0,0,,,,,0,,,60,96
59999,note_on,,,,,119,0,0,,,,,0,,,60,0
59999,note_on,,,,,239,0,1,,,,,0,,,45,0
60000,note_on,,,,,1,0,1,,,,,0,,,47,96
60120,note_on,,,,,121,0,0,,,,,0,,,59,96
60239,note_on,,,,,119,0,0,,,,,0,,,59,0
60239,note_on,,,,,239,0,1,,,,,0,,,47,0
60240,note_on,,,,,1,0,1,,,,,0,,,48,96
60360,note_on,,,,,121,0,0,,,,,0,,,57,96
60467,note_on,,,,,227,0,1,,,,,0,,,48,0
60479,note_on,,,,,0,0,0,,,,,0,,,57,0
60479,note_on,,,,,12,0,1,,,,,0,,,52,0
60479,note_on,,,,,119,0,0,,,,,0,,,65,0
60480,note_on,,,,,1,0,1,,,,,0,,,45,96
60480,note_on,,,,,1,0,0,,,,,0,,,65,96
60480,note_on,,,,,0,0,1,,,,,0,,,52,96
60599,note_on,,,,,119,0,1,,,,,0,,,45,0
60599,note_on,,,,,119,0,0,,,,,0,,,65,0
60599,note_on,,,,,0,0,1,,,,,0,,,52,0
60600,note_on,,,,,1,0,0,,,,,0,,,60,96
60713,note_on,,,,,113,0,0,,,,,0,,,60,0
60720,note_on,,,,,0,0,1,,,,,0,,,52,96
60720,note_on,,,,,121,0,1,,,,,0,,,47,96
60720,note_on,,,,,7,0,0,,,,,0,,,65,96
60839,note_on,,,,,0,0,1,,,,,0,,,52,0
60839,note_on,,,,,119,0,1,,,,,0,,,47,0
60839,note_on,,,,,119,0,0,,,,,0,,,65,0
60840,note_on,,,,,1,0,0,,,,,0,,,59,96
60953,note_on,,,,,113,0,0,,,,,0,,,59,0
60960,note_on,,,,,0,0,1,,,,,0,,,52,96
60960,note_on,,,,,121,0,1,,,,,0,,,48,96
60960,note_on,,,,,7,0,0,,,,,0,,,65,96
61079,note_on,,,,,0,0,1,,,,,0,,,52,0
61079,note_on,,,,,119,0,0,,,,,0,,,65,0
61079,note_on,,,,,119,0,1,,,,,0,,,48,0
61080,note_on,,,,,1,0,0,,,,,0,,,57,96
61193,note_on,,,,,113,0,0,,,,,0,,,57,0
61200,note_on,,,,,0,0,1,,,,,0,,,28,96
61200,note_on,,,,,121,0,1,,,,,0,,,28,96
61200,note_on,,,,,0,0,1,,,,,0,,,28,0
61202,control_change,,,,,9,0,0,,,64,127,0,,,,
61320,note_on,,,,,120,0,1,,,,,0,,,40,96
61439,note_on,,,,,119,0,1,,,,,0,,,28,0
61439,note_on,,,,,0,0,1,,,,,0,,,40,0
61440,note_on,,,,,0,0,1,,,,,0,,,28,96
61440,note_on,,,,,1,0,1,,,,,0,,,29,96
61559,note_on,,,,,119,0,1,,,,,0,,,28,0
61560,note_on,,,,,1,0,1,,,,,0,,,40,96
61679,note_on,,,,,0,0,1,,,,,0,,,40,0
61679,note_on,,,,,119,0,1,,,,,0,,,29,0
61680,note_on,,,,,1,0,1,,,,,0,,,34,96
61680,note_on,,,,,0,0,1,,,,,0,,,28,96
61793,note_on,,,,,113,0,1,,,,,0,,,28,0
61800,note_on,,,,,7,0,1,,,,,0,,,40,96
61907,note_on,,,,,107,0,1,,,,,0,,,34,0
61913,note_on,,,,,6,0,1,,,,,0,,,40,0
61920,note_on,,,,,7,0,1,,,,,0,,,58,96
61920,note_on,,,,,0,0,1,,,,,0,,,46,96
61921,control_change,,,,,719,0,0,,,64,0,0,,,,
62039,note_on,,,,,119,0,1,,,,,0,,,58,0
62039,note_on,,,,,0,0,1,,,,,0,,,46,0
62040,note_on,,,,,119,0,0,,,,,0,,,70,96
62040,note_on,,,,,0,0,0,,,,,0,,,62,96
62153,note_on,,,,,0,0,0,,,,,0,,,62,0
62153,note_on,,,,,113,0,0,,,,,0,,,70,0
62160,note_on,,,,,0,0,1,,,,,0,,,49,96
62160,note_on,,,,,121,0,1,,,,,0,,,58,96
62279,note_on,,,,,119,0,1,,,,,0,,,58,0
62279,note_on,,,,,0,0,1,,,,,0,,,49,0
62280,note_on,,,,,0,0,0,,,,,0,,,64,96
62280,note_on,,,,,127,0,0,,,,,0,,,70,96
62393,note_on,,,,,0,0,0,,,,,0,,,64,0
62393,note_on,,,,,113,0,0,,,,,0,,,70,0
62400,note_on,,,,,0,0,1,,,,,0,,,50,96
62400,note_on,,,,,121,0,1,,,,,0,,,58,96
62519,note_on,,,,,0,0,1,,,,,0,,,50,0
62519,note_on,,,,,119,0,1,,,,,0,,,58,0
62520,note_on,,,,,127,0,0,,,,,0,,,70,96
62520,note_on,,,,,0,0,0,,,,,0,,,65,96
62633,note_on,,,,,113,0,0,,,,,0,,,70,0
62633,note_on,,,,,0,0,0,,,,,0,,,65,0
62640,note_on,,,,,121,0,1,,,,,0,,,50,96
62640,note_on,,,,,0,0,1,,,,,0,,,59,115
62640,note_on,,,,,7,0,0,,,,,0,,,68,96
62640,note_on,,,,,0,0,0,,,,,0,,,71,96
62760,note_on,,,,,120,0,0,,,,,0,,,65,96
62879,note_on,,,,,119,0,0,,,,,0,,,65,0
62879,note_on,,,,,239,0,1,,,,,0,,,50,0
62880,note_on,,,,,1,0,1,,,,,0,,,52,96
63000,note_on,,,,,121,0,0,,,,,0,,,64,96
63119,note_on,,,,,119,0,0,,,,,0,,,64,0
63119,note_on,,,,,239,0,1,,,,,0,,,52,0
63120,note_on,,,,,1,0,1,,,,,0,,,53,96
63240,note_on,,,,,121,0,0,,,,,0,,,62,96
63347,note_on,,,,,227,0,1,,,,,0,,,53,0
63359,note_on,,,,,0,0,0,,,,,0,,,62,0
63359,note_on,,,,,0,0,0,,,,,0,,,71,0
63359,note_on,,,,,119,0,0,,,,,0,,,68,0
63359,note_on,,,,,12,0,1,,,,,0,,,59,0
63360,note_on,,,,,0,0,0,,,,,0,,,71,96
63360,note_on,,,,,1,0,1,,,,,0,,,50,96
63360,note_on,,,,,1,0,0,,,,,0,,,69,96
63360,note_on,,,,,0,0,1,,,,,0,,,59,96
63479,note_on,,,,,0,0,1,,,,,0,,,59,0
63479,note_on,,,,,0,0,0,,,,,0,,,71,0
63479,note_on,,,,,119,0,0,,,,,0,,,69,0
63479,note_on,,,,,119,0,1,,,,,0,,,50,0
63480,note_on,,,,,1,0,0,,,,,0,,,65,96
63593,note_on,,,,,113,0,0,,,,,0,,,65,0
63600,note_on,,,,,121,0,1,,,,,0,,,52,96
63600,note_on,,,,,7,0,0,,,,,0,,,69,96
63600,note_on,,,,,0,0,1,,,,,0,,,59,96
63600,note_on,,,,,0,0,0,,,,,0,,,71,96
63719,note_on,,,,,0,0,1,,,,,0,,,59,0
63719,note_on,,,,,119,0,1,,,,,0,,,52,0
63719,note_on,,,,,119,0,0,,,,,0,,,69,0
63719,note_on,,,,,0,0,0,,,,,0,,,71,0
63720,note_on,,,,,1,0,0,,,,,0,,,64,96
63833,note_on,,,,,113,0,0,,,,,0,,,64,0
63840,note_on,,,,,121,0,1,,,,,0,,,53,96
63840,note_on,,,,,0,0,0,,,,,0,,,71,96
63840,note_on,,,,,7,0,0,,,,,0,,,69,96
63840,note_on,,,,,0,0,1,,,,,0,,,59,96
63959,note_on,,,,,0,0,0,,,,,0,,,71,0
63959,note_on,,,,,119,0,0,,,,,0,,,69,0
63959,note_on,,,,,119,0,1,,,,,0,,,53,0
63959,note_on,,,,,0,0,1,,,,,0,,,59,0
63960,note_on,,,,,1,0,0,,,,,0,,,62,96
64073,note_on,,,,,113,0,0,,,,,0,,,62,0
64080,note_on,,,,,121,0,1,,,,,0,,,28,96
64080,note_on,,,,,0,0,1,,,,,0,,,28,0
64080,note_on,,,,,0,0,1,,,,,0,,,28,96
64200,note_on,,,,,120,0,1,,,,,0,,,40,96
64319,note_on,,,,,119,0,1,,,,,0,,,28,0
64319,note_on,,,,,0,0,1,,,,,0,,,40,0
64320,note_on,,,,,0,0,1,,,,,0,,,28,96
64320,note_on,,,,,1,0,1,,,,,0,,,29,96
64439,note_on,,,,,119,0,1,,,,,0,,,28,0
64440,note_on,,,,,1,0,1,,,,,0,,,40,96
64559,note_on,,,,,0,0,1,,,,,0,,,40,0
64559,note_on,,,,,119,0,1,,,,,0,,,29,0
64560,note_on,,,,,1,0,1,,,,,0,,,32,96
64560,note_on,,,,,0,0,1,,,,,0,,,28,96
64673,note_on,,,,,113,0,1,,,,,0,,,28,0
64680,note_on,,,,,7,0,1,,,,,0,,,40,96
64787,note_on,,,,,107,0,1,,,,,0,,,32,0
64793,note_on,,,,,6,0,1,,,,,0,,,40,0
64800,note_on,,,,,7,0,1,,,,,0,,,56,96
64800,note_on,,,,,0,0,1,,,,,0,,,52,96
64919,note_on,,,,,119,0,1,,,,,0,,,56,0
64919,note_on,,,,,0,0,1,,,,,0,,,52,0
64920,note_on,,,,,847,0,0,,,,,0,,,64,96
64920,note_on,,,,,0,0,0,,,,,0,,,76,96
64920,note_on,,,,,0,0,0,,,,,0,,,68,96
65033,note_on,,,,,113,0,0,,,,,0,,,64,0
65033,note_on,,,,,0,0,0,,,,,0,,,76,0
65033,note_on,,,,,0,0,0,,,,,0,,,68,0
65040,note_on,,,,,121,0,1,,,,,0,,,53,96
65040,note_on,,,,,0,0,1,,,,,0,,,52,96
65040,note_on,,,,,0,0,1,,,,,0,,,57,96
65159,note_on,,,,,119,0,1,,,,,0,,,53,0
65159,note_on,,,,,0,0,1,,,,,0,,,57,0
65159,note_on,,,,,0,0,1,,,,,0,,,52,0
65160,note_on,,,,,0,0,0,,,,,0,,,76,96
65160,note_on,,,,,0,0,0,,,,,0,,,69,96
65160,note_on,,,,,127,0,0,,,,,0,,,64,96
65273,note_on,,,,,0,0,0,,,,,0,,,76,0
65273,note_on,,,,,0,0,0,,,,,0,,,69,0
65273,note_on,,,,,113,0,0,,,,,0,,,64,0
65280,note_on,,,,,0,0,1,,,,,0,,,52,96
65280,note_on,,,,,0,0,1,,,,,0,,,59,96
65280,note_on,,,,,121,0,1,,,,,0,,,56,96
65399,note_on,,,,,119,0,1,,,,,0,,,56,0
65399,note_on,,,,,0,0,1,,,,,0,,,52,0
65399,note_on,,,,,0,0,1,,,,,0,,,59,0
65400,note_on,,,,,127,0,0,,,,,0,,,64,96
65400,note_on,,,,,0,0,0,,,,,0,,,71,96
65400,note_on,,,,,0,0,0,,,,,0,,,76,96
65513,note_on,,,,,113,0,0,,,,,0,,,64,0
65513,note_on,,,,,0,0,0,,,,,0,,,71,0
65513,note_on,,,,,0,0,0,,,,,0,,,76,0
65520,note_on,,,,,0,0,0,,,,,0,,,77,96
65520,note_on,,,,,121,0,1,,,,,0,,,57,115
65520,note_on,,,,,0,0,1,,,,,0,,,52,96
65520,note_on,,,,,7,0,0,,,,,0,,,64,96
65520,note_on,,,,,0,0,1,,,,,0,,,60,115
65640,note_on,,,,,120,0,0,,,,,0,,,72,96
65759,note_on,,,,,119,0,0,,,,,0,,,72,0
65759,note_on,,,,,0,0,1,,,,,0,,,60,0
65759,note_on,,,,,239,0,1,,,,,0,,,57,0
65760,note_on,,,,,1,0,1,,,,,0,,,59,96
65760,note_on,,,,,0,0,1,,,,,0,,,62,96
65880,note_on,,,,,121,0,0,,,,,0,,,71,96
65999,note_on,,,,,119,0,0,,,,,0,,,71,0
65999,note_on,,,,,239,0,1,,,,,0,,,59,0
65999,note_on,,,,,0,0,1,,,,,0,,,62,0
66000,note_on,,,,,0,0,1,,,,,0,,,64,96
66000,note_on,,,,,1,0,0,,,,,0,,,64,0
66000,note_on,,,,,1,0,1,,,,,0,,,60,96
66120,note_on,,,,,120,0,0,,,,,0,,,69,96
66227,note_on,,,,,227,0,1,,,,,0,,,60,0
66239,note_on,,,,,0,0,0,,,,,0,,,69,0
66239,note_on,,,,,12,0,1,,,,,0,,,64,0
66239,note_on,,,,,0,0,1,,,,,0,,,52,0
66239,note_on,,,,,119,0,0,,,,,0,,,77,0
66240,note_on,,,,,1,0,0,,,,,0,,,77,96
66240,note_on,,,,,0,0,1,,,,,0,,,60,96
66240,note_on,,,,,1,0,1,,,,,0,,,57,96
66240,note_on,,,,,0,0,1,,,,,0,,,52,96
66359,note_on,,,,,0,0,1,,,,,0,,,60,0
66359,note_on,,,,,119,0,1,,,,,0,,,57,0
66359,note_on,,,,,0,0,1,,,,,0,,,52,0
66359,note_on,,,,,119,0,0,,,,,0,,,77,0
66360,note_on,,,,,0,0,0,,,,,0,,,72,96
66360,note_on,,,,,1,0,0,,,,,0,,,65,96
66473,note_on,,,,,0,0,0,,,,,0,,,72,0
66473,note_on,,,,,113,0,0,,,,,0,,,65,0
66480,note_on,,,,,7,0,0,,,,,0,,,77,96
66480,note_on,,,,,121,0,1,,,,,0,,,59,96
66480,note_on,,,,,0,0,1,,,,,0,,,52,96
66480,note_on,,,,,0,0,1,,,,,0,,,62,96
66599,note_on,,,,,119,0,0,,,,,0,,,77,0
66599,note_on,,,,,0,0,1,,,,,0,,,52,0
66599,note_on,,,,,119,0,1,,,,,0,,,59,0
66599,note_on,,,,,0,0,1,,,,,0,,,62,0
66600,note_on,,,,,1,0,0,,,,,0,,,65,96
66600,note_on,,,,,0,0,0,,,,,0,,,71,96
66713,note_on,,,,,113,0,0,,,,,0,,,65,0
66713,note_on,,,,,0,0,0,,,,,0,,,71,0
66720,note_on,,,,,7,0,0,,,,,0,,,77,96
66720,note_on,,,,,121,0,1,,,,,0,,,60,96
66720,note_on,,,,,0,0,1,,,,,0,,,52,96
66720,note_on,,,,,0,0,1,,,,,0,,,64,96
66839,note_on,,,,,0,0,1,,,,,0,,,64,0
66839,note_on,,,,,119,0,1,,,,,0,,,60,0
66839,note_on,,,,,119,0,0,,,,,0,,,77,0
66839,note_on,,,,,0,0,1,,,,,0,,,52,0
66840,note_on,,,,,0,0,0,,,,,0,,,69,96
66840,note_on,,,,,1,0,0,,,,,0,,,65,96
66953,note_on,,,,,113,0,0,,,,,0,,,65,0
66953,note_on,,,,,0,0,0,,,,,0,,,69,0
66960,note_on,,,,,121,0,1,,,,,0,,,28,96
66960,note_on,,,,,0,0,1,,,,,0,,,28,0
66960,note_on,,,,,0,0,1,,,,,0,,,28,96
67080,note_on,,,,,120,0,1,,,,,0,,,40,96
67199,note_on,,,,,119,0,1,,,,,0,,,28,0
67199,note_on,,,,,0,0,1,,,,,0,,,40,0
67200,note_on,,,,,0,0,1,,,,,0,,,28,96
67200,note_on,,,,,1,0,1,,,,,0,,,29,96
67319,note_on,,,,,119,0,1,,,,,0,,,28,0
67320,note_on,,,,,1,0,1,,,,,0,,,40,96
67439,note_on,,,,,0,0,1,,,,,0,,,40,0
67439,note_on,,,,,119,0,1,,,,,0,,,29,0
67440,note_on,,,,,0,0,1,,,,,0,,,28,96
67440,note_on,,,,,1,0,1,,,,,0,,,34,96
67553,note_on,,,,,113,0,1,,,,,0,,,28,0
67560,note_on,,,,,7,0,1,,,,,0,,,40,96
67667,note_on,,,,,107,0,1,,,,,0,,,34,0
67673,note_on,,,,,6,0,1,,,,,0,,,40,0
67680,note_on,,,,,0,0,1,,,,,0,,,52,96
67680,note_on,,,,,727,0,0,,,,,0,,,82,96
67680,note_on,,,,,7,0,1,,,,,0,,,58,96
67799,note_on,,,,,119,0,1,,,,,0,,,58,0
67799,note_on,,,,,119,0,0,,,,,0,,,82,0
67799,note_on,,,,,0,0,1,,,,,0,,,52,0
67800,note_on,,,,,1,0,0,,,,,0,,,70,96
67800,note_on,,,,,0,0,0,,,,,0,,,74,96
67913,note_on,,,,,113,0,0,,,,,0,,,70,0
67913,note_on,,,,,0,0,0,,,,,0,,,74,0
67920,note_on,,,,,0,0,1,,,,,0,,,52,96
67920,note_on,,,,,7,0,0,,,,,0,,,82,96
67920,note_on,,,,,121,0,1,,,,,0,,,61,96
68039,note_on,,,,,119,0,1,,,,,0,,,61,0
68039,note_on,,,,,119,0,0,,,,,0,,,82,0
68039,note_on,,,,,0,0,1,,,,,0,,,52,0
68040,note_on,,,,,1,0,0,,,,,0,,,70,96
68040,note_on,,,,,0,0,0,,,,,0,,,76,96
68153,note_on,,,,,0,0,0,,,,,0,,,76,0
68153,note_on,,,,,113,0,0,,,,,0,,,70,0
68160,note_on,,,,,7,0,0,,,,,0,,,82,96
68160,note_on,,,,,121,0,1,,,,,0,,,62,96
68160,note_on,,,,,0,0,1,,,,,0,,,52,96
68279,note_on,,,,,119,0,1,,,,,0,,,62,0
68279,note_on,,,,,119,0,0,,,,,0,,,82,0
68280,note_on,,,,,1,0,0,,,,,0,,,70,96
68280,note_on,,,,,0,0,0,,,,,0,,,77,96
68387,note_on,,,,,108,0,1,,,,,0,,,52,0
68393,note_on,,,,,113,0,0,,,,,0,,,70,0
68393,note_on,,,,,0,0,0,,,,,0,,,77,0
68400,note_on,,,,,7,0,0,,,,,0,,,80,96
68400,note_on,,,,,0,0,0,,,,,0,,,83,96
68400,note_on,,,,,13,0,1,,,,,0,,,59,115
68400,note_on,,,,,0,0,1,,,,,0,,,62,115
68400,note_on,,,,,0,0,1,,,,,0,,,52,96
68520,note_on,,,,,120,0,0,,,,,0,,,74,96
68520,note_on,,,,,0,0,0,,,,,0,,,77,96
68639,note_on,,,,,0,0,1,,,,,0,,,62,0
68639,note_on,,,,,119,0,0,,,,,0,,,74,0
68639,note_on,,,,,239,0,1,,,,,0,,,59,0
68639,note_on,,,,,0,0,0,,,,,0,,,77,0
68640,note_on,,,,,1,0,1,,,,,0,,,60,96
68640,note_on,,,,,0,0,1,,,,,0,,,64,96
68760,note_on,,,,,121,0,0,,,,,0,,,72,96
68760,note_on,,,,,0,0,0,,,,,0,,,76,96
68879,note_on,,,,,0,0,0,,,,,0,,,76,0
68879,note_on,,,,,239,0,1,,,,,0,,,60,0
68879,note_on,,,,,119,0,0,,,,,0,,,72,0
68879,note_on,,,,,0,0,1,,,,,0,,,64,0
68880,note_on,,,,,0,0,1,,,,,0,,,65,96
68880,note_on,,,,,1,0,1,,,,,0,,,62,96
69000,note_on,,,,,121,0,0,,,,,0,,,71,96
69000,note_on,,,,,0,0,0,,,,,0,,,74,96
69107,note_on,,,,,227,0,1,,,,,0,,,62,0
69107,note_on,,,,,0,0,1,,,,,0,,,65,0
69119,note_on,,,,,119,0,0,,,,,0,,,80,0
69119,note_on,,,,,12,0,1,,,,,0,,,52,0
69119,note_on,,,,,0,0,0,,,,,0,,,71,0
69119,note_on,,,,,0,0,0,,,,,0,,,83,0
69119,note_on,,,,,0,0,0,,,,,0,,,74,0
69120,note_on,,,,,1,0,1,,,,,0,,,62,96
69120,note_on,,,,,1,0,0,,,,,0,,,81,96
69120,note_on,,,,,0,0,0,,,,,0,,,83,96
69120,note_on,,,,,0,0,1,,,,,0,,,65,96
69239,note_on,,,,,119,0,1,,,,,0,,,62,0
69239,note_on,,,,,0,0,0,,,,,0,,,83,0
69239,note_on,,,,,0,0,1,,,,,0,,,65,0
69239,note_on,,,,,119,0,0,,,,,0,,,81,0
69240,note_on,,,,,1,0,0,,,,,0,,,74,96
69240,note_on,,,,,0,0,0,,,,,0,,,77,96
69353,note_on,,,,,113,0,0,,,,,0,,,74,0
69353,note_on,,,,,0,0,0,,,,,0,,,77,0
69360,note_on,,,,,121,0,1,,,,,0,,,64,96
69360,note_on,,,,,0,0,1,,,,,0,,,68,96
69360,note_on,,,,,7,0,0,,,,,0,,,81,96
69360,note_on,,,,,0,0,0,,,,,0,,,83,96
69479,note_on,,,,,119,0,0,,,,,0,,,81,0
69479,note_on,,,,,119,0,1,,,,,0,,,64,0
69479,note_on,,,,,0,0,1,,,,,0,,,68,0
69479,note_on,,,,,0,0,0,,,,,0,,,83,0
69480,note_on,,,,,0,0,0,,,,,0,,,76,96
69480,note_on,,,,,1,0,0,,,,,0,,,72,96
69593,note_on,,,,,113,0,0,,,,,0,,,72,0
69593,note_on,,,,,0,0,0,,,,,0,,,76,0
69600,note_on,,,,,0,0,0,,,,,0,,,83,96
69600,note_on,,,,,0,0,1,,,,,0,,,69,96
69600,note_on,,,,,7,0,0,,,,,0,,,81,96
69600,note_on,,,,,121,0,1,,,,,0,,,65,96
69719,note_on,,,,,119,0,0,,,,,0,,,81,0
69719,note_on,,,,,0,0,1,,,,,0,,,69,0
69719,note_on,,,,,119,0,1,,,,,0,,,65,0
69719,note_on,,,,,0,0,0,,,,,0,,,83,0
69720,note_on,,,,,0,0,0,,,,,0,,,74,96
69720,note_on,,,,,1,0,0,,,,,0,,,71,96
69833,note_on,,,,,0,0,0,,,,,0,,,74,0
69833,note_on,,,,,113,0,0,,,,,0,,,71,0
69840,note_on,,,,,7,0,0,,,,,0,,,71,96
69840,note_on,,,,,0,0,0,,,,,0,,,83,96
69840,note_on,,,,,121,0,1,,,,,0,,,64,96
69840,note_on,,,,,0,0,0,,,,,0,,,80,96
69840,note_on,,,,,0,0,0,,,,,0,,,76,96
69840,note_on,,,,,0,0,1,,,,,0,,,68,96
69918,note_on,,,,,0,0,0,,,,,0,,,83,0
69918,note_on,,,,,0,0,1,,,,,0,,,68,0
69918,note_on,,,,,78,0,1,,,,,0,,,64,0
69918,note_on,,,,,78,0,0,,,,,0,,,80,0
70067,note_on,,,,,0,0,0,,,,,0,,,76,0
70067,note_on,,,,,149,0,0,,,,,0,,,71,0
70080,note_on,,,,,162,0,1,,,,,0,,,52,96
70080,note_on,,,,,0,0,1,,,,,0,,,64,96
70200,note_on,,,,,133,0,0,,,,,0,,,76,96
70200,note_on,,,,,0,0,0,,,,,0,,,88,96
70307,note_on,,,,,227,0,1,,,,,0,,,52,0
70307,note_on,,,,,0,0,1,,,,,0,,,64,0
70313,note_on,,,,,113,0,0,,,,,0,,,76,0
70313,note_on,,,,,0,0,0,,,,,0,,,88,0
70320,note_on,,,,,13,0,1,,,,,0,,,51,96
70320,note_on,,,,,0,0,1,,,,,0,,,63,96
70440,note_on,,,,,0,0,0,,,,,0,,,90,96
70440,note_on,,,,,127,0,0,,,,,0,,,78,96
70547,note_on,,,,,227,0,1,,,,,0,,,51,0
70547,note_on,,,,,0,0,1,,,,,0,,,63,0
70553,note_on,,,,,0,0,0,,,,,0,,,90,0
70553,note_on,,,,,113,0,0,,,,,0,,,78,0
70560,note_on,,,,,0,0,1,,,,,0,,,62,96
70560,note_on,,,,,13,0,1,,,,,0,,,50,96
70560,note_on,,,,,7,0,0,,,,,0,,,88,96
70680,note_on,,,,,120,0,0,,,,,0,,,80,96
70680,note_on,,,,,0,0,0,,,,,0,,,92,96
70787,note_on,,,,,0,0,1,,,,,0,,,62,0
70787,note_on,,,,,107,0,0,,,,,0,,,88,0
70787,note_on,,,,,227,0,1,,,,,0,,,50,0
70793,note_on,,,,,6,0,0,,,,,0,,,80,0
70793,note_on,,,,,0,0,0,,,,,0,,,92,0
70800,note_on,,,,,7,0,0,,,,,0,,,88,96
70800,note_on,,,,,0,0,1,,,,,0,,,60,96
70800,note_on,,,,,13,0,1,,,,,0,,,48,96
70920,note_on,,,,,120,0,0,,,,,0,,,81,96
70920,note_on,,,,,0,0,0,,,,,0,,,93,96
71027,note_on,,,,,227,0,1,,,,,0,,,48,0
71027,note_on,,,,,107,0,0,,,,,0,,,88,0
71027,note_on,,,,,0,0,1,,,,,0,,,60,0
71033,note_on,,,,,6,0,0,,,,,0,,,81,0
71033,note_on,,,,,0,0,0,,,,,0,,,93,0
71040,note_on,,,,,0,0,1,,,,,0,,,59,96
71040,note_on,,,,,13,0,1,,,,,0,,,47,96
71040,note_on,,,,,7,0,0,,,,,0,,,88,96
71160,note_on,,,,,120,0,0,,,,,0,,,83,96
71160,note_on,,,,,0,0,0,,,,,0,,,95,96
71267,note_on,,,,,0,0,1,,,,,0,,,59,0
71267,note_on,,,,,107,0,0,,,,,0,,,88,0
71267,note_on,,,,,227,0,1,,,,,0,,,47,0
71273,note_on,,,,,0,0,0,,,,,0,,,95,0
71273,note_on,,,,,6,0,0,,,,,0,,,83,0
71280,note_on,,,,,7,0,0,,,,,0,,,88,96
71280,note_on,,,,,0,0,1,,,,,0,,,57,96
71280,note_on,,,,,13,0,1,,,,,0,,,45,96
71400,note_on,,,,,120,0,0,,,,,0,,,84,96
71400,note_on,,,,,0,0,0,,,,,0,,,96,96
71507,note_on,,,,,227,0,1,,,,,0,,,45,0
71507,note_on,,,,,0,0,1,,,,,0,,,57,0
71513,note_on,,,,,113,0,0,,,,,0,,,84,0
71513,note_on,,,,,0,0,0,,,,,0,,,96,0
71520,note_on,,,,,0,0,1,,,,,0,,,59,96
71520,note_on,,,,,13,0,1,,,,,0,,,47,96
71640,note_on,,,,,127,0,0,,,,,0,,,83,96
71640,note_on,,,,,0,0,0,,,,,0,,,95,96
71747,note_on,,,,,227,0,1,,,,,0,,,47,0
71747,note_on,,,,,0,0,1,,,,,0,,,59,0
71753,note_on,,,,,113,0,0,,,,,0,,,83,0
71753,note_on,,,,,0,0,0,,,,,0,,,95,0
71760,note_on,,,,,0,0,1,,,,,0,,,60,96
71760,note_on,,,,,13,0,1,,,,,0,,,48,96
71880,note_on,,,,,127,0,0,,,,,0,,,81,96
71880,note_on,,,,,0,0,0,,,,,0,,,93,96
71963,note_on,,,,,83,0,0,,,,,0,,,88,0
71987,note_on,,,,,227,0,1,,,,,0,,,48,0
71987,note_on,,,,,0,0,1,,,,,0,,,60,0
71993,note_on,,,,,0,0,0,,,,,0,,,93,0
71993,note_on,,,,,30,0,0,,,,,0,,,81,0
72000,note_on,,,,,7,0,0,,,,,0,,,88,96
72000,note_on,,,,,13,0,1,,,,,0,,,45,96
72000,note_on,,,,,0,0,1,,,,,0,,,57,96
72120,note_on,,,,,0,0,0,,,,,0,,,96,96
72120,note_on,,,,,120,0,0,,,,,0,,,84,96
72227,note_on,,,,,107,0,0,,,,,0,,,88,0
72227,note_on,,,,,0,0,1,,,,,0,,,57,0
72227,note_on,,,,,227,0,1,,,,,0,,,45,0
72233,note_on,,,,,6,0,0,,,,,0,,,84,0
72233,note_on,,,,,0,0,0,,,,,0,,,96,0
72240,note_on,,,,,7,0,0,,,,,0,,,88,96
72240,note_on,,,,,13,0,1,,,,,0,,,44,96
72240,note_on,,,,,0,0,1,,,,,0,,,56,96
72360,note_on,,,,,0,0,0,,,,,0,,,95,96
72360,note_on,,,,,120,0,0,,,,,0,,,83,96
72467,note_on,,,,,0,0,1,,,,,0,,,56,0
72467,note_on,,,,,107,0,0,,,,,0,,,88,0
72467,note_on,,,,,227,0,1,,,,,0,,,44,0
72473,note_on,,,,,6,0,0,,,,,0,,,83,0
72473,note_on,,,,,0,0,0,,,,,0,,,95,0
72480,note_on,,,,,0,0,1,,,,,0,,,53,96
72480,note_on,,,,,7,0,0,,,,,0,,,88,96
72480,note_on,,,,,13,0,1,,,,,0,,,41,96
72600,note_on,,,,,0,0,0,,,,,0,,,93,96
72600,note_on,,,,,120,0,0,,,,,0,,,81,96
72707,note_on,,,,,0,0,1,,,,,0,,,53,0
72707,note_on,,,,,107,0,0,,,,,0,,,88,0
72707,note_on,,,,,227,0,1,,,,,0,,,41,0
72713,note_on,,,,,6,0,0,,,,,0,,,81,0
72713,note_on,,,,,0,0,0,,,,,0,,,93,0
72720,note_on,,,,,0,0,1,,,,,0,,,52,96
72720,note_on,,,,,13,0,1,,,,,0,,,40,96
72840,note_on,,,,,0,0,0,,,,,0,,,100,96
72840,note_on,,,,,127,0,0,,,,,0,,,88,96
72947,note_on,,,,,227,0,1,,,,,0,,,40,0
72947,note_on,,,,,0,0,1,,,,,0,,,52,0
72953,note_on,,,,,113,0,0,,,,,0,,,88,0
72953,note_on,,,,,0,0,0,,,,,0,,,100,0
72960,note_on,,,,,0,0,1,,,,,0,,,64,96
72960,note_on,,,,,13,0,1,,,,,0,,,52,96
73080,note_on,,,,,127,0,0,,,,,0,,,76,96
73187,note_on,,,,,227,0,1,,,,,0,,,52,0
73187,note_on,,,,,0,0,1,,,,,0,,,64,0
73193,note_on,,,,,113,0,0,,,,,0,,,76,0
73200,note_on,,,,,13,0,1,,,,,0,,,54,97
73200,note_on,,,,,0,0,1,,,,,0,,,64,97
73320,note_on,,,,,127,0,0,,,,,0,,,75,98
73320,note_on,,,,,0,0,0,,,,,0,,,76,98
73427,note_on,,,,,0,0,1,,,,,0,,,64,0
73427,note_on,,,,,227,0,1,,,,,0,,,54,0
73433,note_on,,,,,113,0,0,,,,,0,,,75,0
73433,note_on,,,,,0,0,0,,,,,0,,,76,0
73440,note_on,,,,,0,0,1,,,,,0,,,64,99
73440,note_on,,,,,13,0,1,,,,,0,,,56,99
73560,note_on,,,,,0,0,0,,,,,0,,,76,100
73560,note_on,,,,,127,0,0,,,,,0,,,74,100
73667,note_on,,,,,227,0,1,,,,,0,,,56,0
73667,note_on,,,,,0,0,1,,,,,0,,,64,0
73673,note_on,,,,,0,0,0,,,,,0,,,76,0
73673,note_on,,,,,113,0,0,,,,,0,,,74,0
73680,note_on,,,,,0,0,1,,,,,0,,,64,101
73680,note_on,,,,,13,0,1,,,,,0,,,57,101
73800,note_on,,,,,127,0,0,,,,,0,,,72,102
73800,note_on,,,,,0,0,0,,,,,0,,,76,102
73907,note_on,,,,,0,0,1,,,,,0,,,64,0
73907,note_on,,,,,227,0,1,,,,,0,,,57,0
73913,note_on,,,,,0,0,0,,,,,0,,,76,0
73913,note_on,,,,,113,0,0,,,,,0,,,72,0
73920,note_on,,,,,13,0,1,,,,,0,,,59,103
73920,note_on,,,,,0,0,1,,,,,0,,,64,103
74040,note_on,,,,,0,0,0,,,,,0,,,76,104
74040,note_on,,,,,127,0,0,,,,,0,,,71,104
74147,note_on,,,,,0,0,1,,,,,0,,,64,0
74147,note_on,,,,,227,0,1,,,,,0,,,59,0
74153,note_on,,,,,113,0,0,,,,,0,,,71,0
74153,note_on,,,,,0,0,0,,,,,0,,,76,0
74160,note_on,,,,,0,0,1,,,,,0,,,64,127
74160,note_on,,,,,0,0,0,,,,,0,,,78,127
74160,note_on,,,,,7,0,0,,,,,0,,,75,127
74160,note_on,,,,,13,0,1,,,,,0,,,60,106
74280,note_on,,,,,120,0,0,,,,,0,,,69,106
74387,note_on,,,,,227,0,1,,,,,0,,,60,0
74393,note_on,,,,,113,0,0,,,,,0,,,69,0
74400,note_on,,,,,13,0,1,,,,,0,,,59,106
74520,note_on,,,,,127,0,0,,,,,0,,,71,106
74627,note_on,,,,,227,0,1,,,,,0,,,59,0
74633,note_on,,,,,113,0,0,,,,,0,,,71,0
74640,note_on,,,,,13,0,1,,,,,0,,,57,106
74641,note_on,,,,,1,0,1,,,,,0,,,64,0
74641,note_on,,,,,0,0,0,,,,,0,,,78,0
74641,note_on,,,,,8,0,0,,,,,0,,,75,0
74760,note_on,,,,,119,0,0,,,,,0,,,72,106
74867,note_on,,,,,226,0,1,,,,,0,,,57,0
74873,note_on,,,,,113,0,0,,,,,0,,,72,0
74880,note_on,,,,,13,0,1,,,,,0,,,60,106
74880,note_on,,,,,0,0,1,,,,,0,,,64,106
74880,note_on,,,,,7,0,0,,,,,0,,,75,106
74880,note_on,,,,,0,0,0,,,,,0,,,78,106
74999,note_on,,,,,119,0,1,,,,,0,,,60,0
75000,note_on,,,,,120,0,0,,,,,0,,,69,106
75107,note_on,,,,,107,0,0,,,,,0,,,75,0
75107,note_on,,,,,0,0,0,,,,,0,,,78,0
75107,note_on,,,,,108,0,1,,,,,0,,,64,0
75113,note_on,,,,,6,0,0,,,,,0,,,69,0
75120,note_on,,,,,7,0,0,,,,,0,,,75,106
75120,note_on,,,,,0,0,0,,,,,0,,,78,106
75120,note_on,,,,,0,0,1,,,,,0,,,64,106
75120,note_on,,,,,13,0,1,,,,,0,,,59,106
75239,note_on,,,,,119,0,1,,,,,0,,,59,0
75240,note_on,,,,,120,0,0,,,,,0,,,71,106
75347,note_on,,,,,107,0,0,,,,,0,,,75,0
75347,note_on,,,,,108,0,1,,,,,0,,,64,0
75347,note_on,,,,,0,0,0,,,,,0,,,78,0
75353,note_on,,,,,6,0,0,,,,,0,,,71,0
75360,note_on,,,,,0,0,1,,,,,0,,,64,106
75360,note_on,,,,,7,0,0,,,,,0,,,75,106
75360,note_on,,,,,0,0,0,,,,,0,,,78,106
75360,note_on,,,,,13,0,1,,,,,0,,,57,106
75479,note_on,,,,,119,0,1,,,,,0,,,57,0
75480,note_on,,,,,120,0,0,,,,,0,,,72,106
75587,note_on,,,,,0,0,0,,,,,0,,,78,0
75587,note_on,,,,,107,0,0,,,,,0,,,75,0
75587,note_on,,,,,108,0,1,,,,,0,,,64,0
75593,note_on,,,,,6,0,0,,,,,0,,,72,0
75600,note_on,,,,,0,0,1,,,,,0,,,64,106
75600,note_on,,,,,0,0,1,,,,,0,,,59,106
75600,note_on,,,,,13,0,1,,,,,0,,,52,106
75720,note_on,,,,,0,0,0,,,,,0,,,76,106
75720,note_on,,,,,0,0,0,,,,,0,,,80,106
75720,note_on,,,,,127,0,0,,,,,0,,,68,106
75827,note_on,,,,,0,0,1,,,,,0,,,59,0
75827,note_on,,,,,227,0,1,,,,,0,,,52,0
75827,note_on,,,,,0,0,1,,,,,0,,,64,0
75833,note_on,,,,,0,0,0,,,,,0,,,80,0
75833,note_on,,,,,113,0,0,,,,,0,,,68,0
75833,note_on,,,,,0,0,0,,,,,0,,,76,0
75840,note_on,,,,,13,0,1,,,,,0,,,40,106
75840,note_on,,,,,0,0,1,,,,,0,,,52,106
75960,note_on,,,,,0,0,0,,,,,0,,,76,106
75960,note_on,,,,,127,0,0,,,,,0,,,64,106
76067,note_on,,,,,0,0,1,,,,,0,,,52,0
76067,note_on,,,,,227,0,1,,,,,0,,,40,0
76073,note_on,,,,,0,0,0,,,,,0,,,76,0
76073,note_on,,,,,113,0,0,,,,,0,,,64,0
76080,note_on,,,,,13,0,1,,,,,0,,,39,106
76080,note_on,,,,,0,0,1,,,,,0,,,51,106
76200,note_on,,,,,0,0,0,,,,,0,,,78,106
76200,note_on,,,,,127,0,0,,,,,0,,,66,106
76307,note_on,,,,,227,0,1,,,,,0,,,39,0
76307,note_on,,,,,0,0,1,,,,,0,,,51,0
76313,note_on,,,,,113,0,0,,,,,0,,,66,0
76313,note_on,,,,,0,0,0,,,,,0,,,78,0
76320,note_on,,,,,7,0,0,,,,,0,,,76,106
76320,note_on,,,,,13,0,1,,,,,0,,,38,106
76320,note_on,,,,,0,0,1,,,,,0,,,50,106
76440,note_on,,,,,0,0,0,,,,,0,,,80,106
76440,note_on,,,,,120,0,0,,,,,0,,,68,106
76547,note_on,,,,,227,0,1,,,,,0,,,38,0
76547,note_on,,,,,0,0,1,,,,,0,,,50,0
76547,note_on,,,,,107,0,0,,,,,0,,,76,0
76553,note_on,,,,,6,0,0,,,,,0,,,68,0
76553,note_on,,,,,0,0,0,,,,,0,,,80,0
76560,note_on,,,,,0,0,1,,,,,0,,,48,106
76560,note_on,,,,,7,0,0,,,,,0,,,76,106
76560,note_on,,,,,13,0,1,,,,,0,,,36,106
76680,note_on,,,,,120,0,0,,,,,0,,,69,106
76680,note_on,,,,,0,0,0,,,,,0,,,81,106
76787,note_on,,,,,227,0,1,,,,,0,,,36,0
76787,note_on,,,,,0,0,1,,,,,0,,,48,0
76787,note_on,,,,,107,0,0,,,,,0,,,76,0
76793,note_on,,,,,6,0,0,,,,,0,,,69,0
76793,note_on,,,,,0,0,0,,,,,0,,,81,0
76800,note_on,,,,,13,0,1,,,,,0,,,35,106
76800,note_on,,,,,0,0,1,,,,,0,,,47,106
76800,note_on,,,,,7,0,0,,,,,0,,,76,106
76920,note_on,,,,,120,0,0,,,,,0,,,71,106
76920,note_on,,,,,0,0,0,,,,,0,,,83,106
77027,note_on,,,,,0,0,1,,,,,0,,,47,0
77027,note_on,,,,,107,0,0,,,,,0,,,76,0
77027,note_on,,,,,227,0,1,,,,,0,,,35,0
77033,note_on,,,,,6,0,0,,,,,0,,,71,0
77033,note_on,,,,,0,0,0,,,,,0,,,83,0
77040,note_on,,,,,7,0,0,,,,,0,,,76,106
77040,note_on,,,,,0,0,1,,,,,0,,,45,106
77040,note_on,,,,,13,0,1,,,,,0,,,33,106
77160,note_on,,,,,0,0,0,,,,,0,,,84,106
77160,note_on,,,,,120,0,0,,,,,0,,,72,106
77267,note_on,,,,,227,0,1,,,,,0,,,33,0
77267,note_on,,,,,0,0,1,,,,,0,,,45,0
77273,note_on,,,,,0,0,0,,,,,0,,,84,0
77273,note_on,,,,,113,0,0,,,,,0,,,72,0
77280,note_on,,,,,0,0,1,,,,,0,,,47,106
77280,note_on,,,,,13,0,1,,,,,0,,,35,106
77400,note_on,,,,,0,0,0,,,,,0,,,83,106
77400,note_on,,,,,127,0,0,,,,,0,,,71,106
77507,note_on,,,,,227,0,1,,,,,0,,,35,0
77507,note_on,,,,,0,0,1,,,,,0,,,47,0
77513,note_on,,,,,113,0,0,,,,,0,,,71,0
77513,note_on,,,,,0,0,0,,,,,0,,,83,0
77520,note_on,,,,,13,0,1,,,,,0,,,36,106
77520,note_on,,,,,0,0,1,,,,,0,,,48,106
77640,note_on,,,,,127,0,0,,,,,0,,,69,106
77640,note_on,,,,,0,0,0,,,,,0,,,81,106
77723,note_on,,,,,83,0,0,,,,,0,,,76,0
77747,note_on,,,,,0,0,1,,,,,0,,,48,0
77747,note_on,,,,,227,0,1,,,,,0,,,36,0
77753,note_on,,,,,30,0,0,,,,,0,,,69,0
77753,note_on,,,,,0,0,0,,,,,0,,,81,0
77760,note_on,,,,,13,0,1,,,,,0,,,33,106
77760,note_on,,,,,0,0,1,,,,,0,,,45,106
77760,note_on,,,,,7,0,0,,,,,0,,,76,106
77880,note_on,,,,,120,0,0,,,,,0,,,72,106
77880,note_on,,,,,0,0,0,,,,,0,,,84,106
77987,note_on,,,,,107,0,0,,,,,0,,,76,0
77987,note_on,,,,,0,0,1,,,,,0,,,45,0
77987,note_on,,,,,227,0,1,,,,,0,,,33,0
77993,note_on,,,,,0,0,0,,,,,0,,,84,0
77993,note_on,,,,,6,0,0,,,,,0,,,72,0
78000,note_on,,,,,13,0,1,,,,,0,,,32,106
78000,note_on,,,,,7,0,0,,,,,0,,,76,106
78000,note_on,,,,,0,0,1,,,,,0,,,44,106
78120,note_on,,,,,120,0,0,,,,,0,,,71,106
78120,note_on,,,,,0,0,0,,,,,0,,,83,106
78227,note_on,,,,,0,0,1,,,,,0,,,44,0
78227,note_on,,,,,227,0,1,,,,,0,,,32,0
78227,note_on,,,,,107,0,0,,,,,0,,,76,0
78233,note_on,,,,,6,0,0,,,,,0,,,71,0
78233,note_on,,,,,0,0,0,,,,,0,,,83,0
78240,note_on,,,,,0,0,1,,,,,0,,,41,106
78240,note_on,,,,,13,0,1,,,,,0,,,29,106
78240,note_on,,,,,7,0,0,,,,,0,,,76,106
78360,note_on,,,,,120,0,0,,,,,0,,,69,106
78360,note_on,,,,,0,0,0,,,,,0,,,81,106
78467,note_on,,,,,107,0,0,,,,,0,,,76,0
78467,note_on,,,,,0,0,1,,,,,0,,,41,0
78467,note_on,,,,,227,0,1,,,,,0,,,29,0
78473,note_on,,,,,0,0,0,,,,,0,,,81,0
78473,note_on,,,,,6,0,0,,,,,0,,,69,0
78480,note_on,,,,,13,0,1,,,,,0,,,28,106
78480,note_on,,,,,0,0,1,,,,,0,,,40,106
78600,note_on,,,,,0,0,0,,,,,0,,,88,106
78600,note_on,,,,,127,0,0,,,,,0,,,76,106
78707,note_on,,,,,227,0,1,,,,,0,,,28,0
78707,note_on,,,,,0,0,1,,,,,0,,,40,0
78713,note_on,,,,,113,0,0,,,,,0,,,76,0
78713,note_on,,,,,0,0,0,,,,,0,,,88,0
78720,note_on,,,,,13,0,1,,,,,0,,,40,106
78720,note_on,,,,,0,0,1,,,,,0,,,52,106
78840,note_on,,,,,127,0,0,,,,,0,,,64,106
78947,note_on,,,,,0,0,1,,,,,0,,,52,0
78947,note_on,,,,,227,0,1,,,,,0,,,40,0
78953,note_on,,,,,113,0,0,,,,,0,,,64,0
78960,note_on,,,,,13,0,1,,,,,0,,,42,107
78960,note_on,,,,,0,0,1,,,,,0,,,52,107
79080,note_on,,,,,0,0,0,,,,,0,,,64,108
79080,note_on,,,,,127,0,0,,,,,0,,,63,108
79187,note_on,,,,,0,0,1,,,,,0,,,52,0
79187,note_on,,,,,227,0,1,,,,,0,,,42,0
79193,note_on,,,,,113,0,0,,,,,0,,,63,0
79193,note_on,,,,,0,0,0,,,,,0,,,64,0
79200,note_on,,,,,0,0,1,,,,,0,,,52,109
79200,note_on,,,,,13,0,1,,,,,0,,,44,109
79320,note_on,,,,,0,0,0,,,,,0,,,64,110
79320,note_on,,,,,127,0,0,,,,,0,,,62,110
79427,note_on,,,,,0,0,1,,,,,0,,,52,0
79427,note_on,,,,,227,0,1,,,,,0,,,44,0
79433,note_on,,,,,113,0,0,,,,,0,,,62,0
79433,note_on,,,,,0,0,0,,,,,0,,,64,0
79440,note_on,,,,,13,0,1,,,,,0,,,45,111
79440,note_on,,,,,0,0,1,,,,,0,,,52,111
79560,note_on,,,,,127,0,0,,,,,0,,,60,112
79560,note_on,,,,,0,0,0,,,,,0,,,64,112
79667,note_on,,,,,0,0,1,,,,,0,,,52,0
79667,note_on,,,,,227,0,1,,,,,0,,,45,0
79673,note_on,,,,,0,0,0,,,,,0,,,64,0
79673,note_on,,,,,113,0,0,,,,,0,,,60,0
79680,note_on,,,,,0,0,1,,,,,0,,,52,113
79680,note_on,,,,,13,0,1,,,,,0,,,47,113
79800,note_on,,,,,127,0,0,,,,,0,,,59,114
79800,note_on,,,,,0,0,0,,,,,0,,,64,114
79907,note_on,,,,,227,0,1,,,,,0,,,47,0
79907,note_on,,,,,0,0,1,,,,,0,,,52,0
79913,note_on,,,,,0,0,0,,,,,0,,,64,0
79913,note_on,,,,,113,0,0,,,,,0,,,59,0
79920,note_on,,,,,13,0,1,,,,,0,,,48,116
79920,note_on,,,,,0,0,1,,,,,0,,,52,127
79920,note_on,,,,,0,0,0,,,,,0,,,66,127
79920,note_on,,,,,7,0,0,,,,,0,,,63,127
80040,note_on,,,,,120,0,0,,,,,0,,,57,116
80147,note_on,,,,,227,0,1,,,,,0,,,48,0
80153,note_on,,,,,113,0,0,,,,,0,,,57,0
80160,note_on,,,,,13,0,1,,,,,0,,,47,116
80280,note_on,,,,,127,0,0,,,,,0,,,59,116
80387,note_on,,,,,227,0,1,,,,,0,,,47,0
80393,note_on,,,,,113,0,0,,,,,0,,,59,0
80400,note_on,,,,,13,0,1,,,,,0,,,45,116
80401,note_on,,,,,0,0,0,,,,,0,,,66,0
80401,note_on,,,,,1,0,1,,,,,0,,,52,0
80401,note_on,,,,,8,0,0,,,,,0,,,63,0
80520,note_on,,,,,119,0,0,,,,,0,,,60,116
80627,note_on,,,,,226,0,1,,,,,0,,,45,0
80633,note_on,,,,,113,0,0,,,,,0,,,60,0
80640,note_on,,,,,7,0,0,,,,,0,,,63,116
80640,note_on,,,,,0,0,0,,,,,0,,,66,116
80640,note_on,,,,,0,0,1,,,,,0,,,52,116
80640,note_on,,,,,13,0,1,,,,,0,,,48,116
80759,note_on,,,,,119,0,1,,,,,0,,,48,0
80760,note_on,,,,,120,0,0,,,,,0,,,57,116
80867,note_on,,,,,0,0,0,,,,,0,,,66,0
80867,note_on,,,,,107,0,0,,,,,0,,,63,0
80867,note_on,,,,,108,0,1,,,,,0,,,52,0
80873,note_on,,,,,6,0,0,,,,,0,,,57,0
80880,note_on,,,,,0,0,0,,,,,0,,,66,116
80880,note_on,,,,,7,0,0,,,,,0,,,63,116
80880,note_on,,,,,13,0,1,,,,,0,,,47,116
80880,note_on,,,,,0,0,1,,,,,0,,,52,116
80999,note_on,,,,,119,0,1,,,,,0,,,47,0
81000,note_on,,,,,120,0,0,,,,,0,,,59,116
81107,note_on,,,,,107,0,0,,,,,0,,,63,0
81107,note_on,,,,,108,0,1,,,,,0,,,52,0
81107,note_on,,,,,0,0,0,,,,,0,,,66,0
81113,note_on,,,,,6,0,0,,,,,0,,,59,0
81120,note_on,,,,,0,0,1,,,,,0,,,52,116
81120,note_on,,,,,13,0,1,,,,,0,,,45,116
81120,note_on,,,,,0,0,0,,,,,0,,,66,116
81120,note_on,,,,,7,0,0,,,,,0,,,63,116
81239,note_on,,,,,119,0,1,,,,,0,,,45,0
81240,note_on,,,,,120,0,0,,,,,0,,,60,116
81347,note_on,,,,,0,0,0,,,,,0,,,66,0
81347,note_on,,,,,107,0,0,,,,,0,,,63,0
81347,note_on,,,,,108,0,1,,,,,0,,,52,0
81353,note_on,,,,,6,0,0,,,,,0,,,60,0
81360,note_on,,,,,0,0,1,,,,,0,,,47,116
81360,note_on,,,,,0,0,1,,,,,0,,,52,116
81360,note_on,,,,,0,0,0,,,,,0,,,68,116
81360,note_on,,,,,0,0,0,,,,,0,,,64,116
81360,note_on,,,,,7,0,0,,,,,0,,,56,116
81360,note_on,,,,,13,0,1,,,,,0,,,40,116
81438,note_on,,,,,78,0,1,,,,,0,,,47,0
81438,note_on,,,,,0,0,0,,,,,0,,,64,0
81438,note_on,,,,,0,0,0,,,,,0,,,68,0
81438,note_on,,,,,0,0,1,,,,,0,,,52,0
81438,note_on,,,,,78,0,0,,,,,0,,,56,0
81587,note_on,,,,,149,0,1,,,,,0,,,40,0
81600,note_on,,,,,0,0,1,,,,,0,,,64,116
81600,set_tempo,,,,,162,1,0,,352942,,,,,,,
81600,note_on,,,,,13,0,1,,,,,0,,,52,116
81678,note_on,,,,,78,0,1,,,,,0,,,52,0
81678,note_on,,,,,0,0,1,,,,,0,,,64,0
81720,note_on,,,,,0,0,0,,,,,0,,,71,116
81720,note_on,,,,,0,0,0,,,,,0,,,76,116
81720,note_on,,,,,120,0,0,,,,,0,,,68,116
81833,note_on,,,,,0,0,0,,,,,0,,,76,0
81833,note_on,,,,,113,0,0,,,,,0,,,68,0
81833,note_on,,,,,0,0,0,,,,,0,,,71,0
81840,note_on,,,,,162,0,1,,,,,0,,,52,116
81840,note_on,,,,,0,0,1,,,,,0,,,63,116
81918,note_on,,,,,0,0,1,,,,,0,,,63,0
81918,note_on,,,,,78,0,1,,,,,0,,,52,0
81960,note_on,,,,,0,0,0,,,,,0,,,77,116
81960,note_on,,,,,0,0,0,,,,,0,,,72,116
81960,note_on,,,,,127,0,0,,,,,0,,,69,116
82073,note_on,,,,,0,0,0,,,,,0,,,72,0
82073,note_on,,,,,0,0,0,,,,,0,,,77,0
82073,note_on,,,,,113,0,0,,,,,0,,,69,0
82080,note_on,,,,,162,0,1,,,,,0,,,52,116
82080,note_on,,,,,0,0,1,,,,,0,,,62,116
82158,note_on,,,,,0,0,1,,,,,0,,,62,0
82158,note_on,,,,,78,0,1,,,,,0,,,52,0
82200,note_on,,,,,127,0,0,,,,,0,,,74,116
82200,note_on,,,,,0,0,0,,,,,0,,,77,116
82200,note_on,,,,,0,0,0,,,,,0,,,82,116
82313,note_on,,,,,0,0,0,,,,,0,,,82,0
82313,note_on,,,,,0,0,0,,,,,0,,,77,0
82313,note_on,,,,,113,0,0,,,,,0,,,74,0
82320,note_on,,,,,162,0,1,,,,,0,,,52,116
82320,note_on,,,,,0,0,1,,,,,0,,,62,116
82398,note_on,,,,,0,0,1,,,,,0,,,62,0
82398,note_on,,,,,78,0,1,,,,,0,,,52,0
82440,note_on,,,,,127,0,0,,,,,0,,,80,116
82440,note_on,,,,,0,0,0,,,,,0,,,83,116
82440,note_on,,,,,0,0,0,,,,,0,,,88,116
82553,note_on,,,,,113,0,0,,,,,0,,,80,0
82553,note_on,,,,,0,0,0,,,,,0,,,83,0
82553,note_on,,,,,0,0,0,,,,,0,,,88,0
82560,note_on,,,,,162,0,1,,,,,0,,,52,116
82560,note_on,,,,,0,0,1,,,,,0,,,61,116
82638,note_on,,,,,78,0,1,,,,,0,,,52,0
82638,note_on,,,,,0,0,1,,,,,0,,,61,0
82680,note_on,,,,,0,0,0,,,,,0,,,93,116
82680,note_on,,,,,0,0,0,,,,,0,,,88,116
82680,note_on,,,,,127,0,0,,,,,0,,,85,116
82793,note_on,,,,,0,0,0,,,,,0,,,93,0
82793,note_on,,,,,113,0,0,,,,,0,,,85,0
82793,note_on,,,,,0,0,0,,,,,0,,,88,0
82800,note_on,,,,,162,0,1,,,,,0,,,52,127
82800,note_on,,,,,0,0,1,,,,,0,,,60,127
82920,note_on,,,,,0,0,0,,,,,0,,,98,127
82920,note_on,,,,,127,0,0,,,,,0,,,90,127
82920,note_on,,,,,0,0,0,,,,,0,,,93,127
82959,note_on,,,,,159,0,1,,,,,0,,,52,0
82959,note_on,,,,,0,0,1,,,,,0,,,60,0
82999,note_on,,,,,0,0,0,,,,,0,,,98,0
82999,note_on,,,,,79,0,0,,,,,0,,,90,0
82999,note_on,,,,,0,0,0,,,,,0,,,93,0
83040,note_on,,,,,81,0,1,,,,,0,,,52,116
83040,note_on,,,,,0,0,1,,,,,0,,,60,116
83118,note_on,,,,,0,0,1,,,,,0,,,60,0
83118,note_on,,,,,78,0,1,,,,,0,,,52,0
83160,note_on,,,,,0,0,0,,,,,0,,,74,116
83160,note_on,,,,,0,0,0,,,,,0,,,69,116
83160,note_on,,,,,161,0,0,,,,,0,,,66,116
83273,note_on,,,,,0,0,0,,,,,0,,,74,0
83273,note_on,,,,,113,0,0,,,,,0,,,66,0
83273,note_on,,,,,0,0,0,,,,,0,,,69,0
83280,note_on,,,,,162,0,1,,,,,0,,,52,117
83280,note_on,,,,,0,0,1,,,,,0,,,59,117
83358,note_on,,,,,78,0,1,,,,,0,,,52,0
83358,note_on,,,,,0,0,1,,,,,0,,,59,0
83400,note_on,,,,,0,0,0,,,,,0,,,74,118
83400,note_on,,,,,0,0,0,,,,,0,,,79,118
83400,note_on,,,,,127,0,0,,,,,0,,,71,118
83513,note_on,,,,,0,0,0,,,,,0,,,79,0
83513,note_on,,,,,0,0,0,,,,,0,,,74,0
83513,note_on,,,,,113,0,0,,,,,0,,,71,0
83520,note_on,,,,,0,0,1,,,,,0,,,58,119
83520,note_on,,,,,162,0,1,,,,,0,,,52,119
83598,note_on,,,,,0,0,1,,,,,0,,,58,0
83598,note_on,,,,,78,0,1,,,,,0,,,52,0
83640,note_on,,,,,127,0,0,,,,,0,,,76,120
83640,note_on,,,,,0,0,0,,,,,0,,,79,120
83640,note_on,,,,,0,0,0,,,,,0,,,84,120
83753,note_on,,,,,113,0,0,,,,,0,,,76,0
83753,note_on,,,,,0,0,0,,,,,0,,,84,0
83753,note_on,,,,,0,0,0,,,,,0,,,79,0
83760,note_on,,,,,162,0,1,,,,,0,,,52,121
83760,note_on,,,,,0,0,1,,,,,0,,,57,121
83838,note_on,,,,,78,0,1,,,,,0,,,52,0
83838,note_on,,,,,0,0,1,,,,,0,,,57,0
83880,note_on,,,,,0,0,0,,,,,0,,,89,122
83880,note_on,,,,,0,0,0,,,,,0,,,84,122
83880,note_on,,,,,127,0,0,,,,,0,,,81,122
83993,note_on,,,,,0,0,0,,,,,0,,,84,0
83993,note_on,,,,,113,0,0,,,,,0,,,81,0
83993,note_on,,,,,0,0,0,,,,,0,,,89,0
84000,note_on,,,,,0,0,1,,,,,0,,,57,123
84000,note_on,,,,,162,0,1,,,,,0,,,52,123
84078,note_on,,,,,78,0,1,,,,,0,,,52,0
84078,note_on,,,,,0,0,1,,,,,0,,,57,0
84120,note_on,,,,,127,0,0,,,,,0,,,87,124
84120,note_on,,,,,0,0,0,,,,,0,,,95,124
84120,note_on,,,,,0,0,0,,,,,0,,,90,124
84233,note_on,,,,,113,0,0,,,,,0,,,87,0
84233,note_on,,,,,0,0,0,,,,,0,,,95,0
84233,note_on,,,,,0,0,0,,,,,0,,,90,0
84240,note_on,,,,,0,0,1,,,,,0,,,56,127
84240,note_on,,,,,162,0,1,,,,,0,,,52,127
84360,note_on,,,,,127,0,0,,,,,0,,,88,127
84360,note_on,,,,,0,0,0,,,,,0,,,95,127
84360,note_on,,,,,0,0,0,,,,,0,,,100,127
84399,note_on,,,,,0,0,1,,,,,0,,,56,0
84399,note_on,,,,,159,0,1,,,,,0,,,52,0
84439,note_on,,,,,79,0,0,,,,,0,,,88,0
84439,note_on,,,,,0,0,0,,,,,0,,,100,0
84439,note_on,,,,,0,0,0,,,,,0,,,95,0
84480,note_on,,,,,81,0,1,,,,,0,,,40,126
84480,note_on,,,,,0,0,1,,,,,0,,,55,126
84558,note_on,,,,,78,0,1,,,,,0,,,40,0
84558,note_on,,,,,0,0,1,,,,,0,,,55,0
84600,note_on,,,,,161,0,0,,,,,0,,,60,126
84600,note_on,,,,,0,0,0,,,,,0,,,64,126
84600,note_on,,,,,0,0,0,,,,,0,,,69,126
84713,note_on,,,,,113,0,0,,,,,0,,,60,0
84713,note_on,,,,,0,0,0,,,,,0,,,64,0
84713,note_on,,,,,0,0,0,,,,,0,,,69,0
84720,note_on,,,,,0,0,1,,,,,0,,,54,126
84720,note_on,,,,,162,0,1,,,,,0,,,40,126
84798,note_on,,,,,78,0,1,,,,,0,,,40,0
84798,note_on,,,,,0,0,1,,,,,0,,,54,0
84840,note_on,,,,,127,0,0,,,,,0,,,66,126
84840,note_on,,,,,0,0,0,,,,,0,,,74,126
84840,note_on,,,,,0,0,0,,,,,0,,,69,126
84953,note_on,,,,,0,0,0,,,,,0,,,69,0
84953,note_on,,,,,0,0,0,,,,,0,,,74,0
84953,note_on,,,,,113,0,0,,,,,0,,,66,0
84960,note_on,,,,,0,0,1,,,,,0,,,53,126
84960,note_on,,,,,162,0,1,,,,,0,,,40,126
85038,note_on,,,,,78,0,1,,,,,0,,,40,0
85038,note_on,,,,,0,0,1,,,,,0,,,53,0
85080,note_on,,,,,0,0,0,,,,,0,,,74,126
85080,note_on,,,,,0,0,0,,,,,0,,,79,126
85080,note_on,,,,,127,0,0,,,,,0,,,71,126
85193,note_on,,,,,0,0,0,,,,,0,,,74,0
85193,note_on,,,,,0,0,0,,,,,0,,,79,0
85193,note_on,,,,,113,0,0,,,,,0,,,71,0
85200,note_on,,,,,162,0,1,,,,,0,,,40,126
85200,note_on,,,,,0,0,1,,,,,0,,,52,126
85278,note_on,,,,,78,0,1,,,,,0,,,40,0
85278,note_on,,,,,0,0,1,,,,,0,,,52,0
85320,note_on,,,,,0,0,0,,,,,0,,,79,126
85320,note_on,,,,,127,0,0,,,,,0,,,76,126
85320,note_on,,,,,0,0,0,,,,,0,,,84,126
85433,note_on,,,,,0,0,0,,,,,0,,,84,0
85433,note_on,,,,,0,0,0,,,,,0,,,79,0
85433,note_on,,,,,113,0,0,,,,,0,,,76,0
85440,note_on,,,,,162,0,1,,,,,0,,,40,126
85440,note_on,,,,,0,0,1,,,,,0,,,51,126
85518,note_on,,,,,0,0,1,,,,,0,,,51,0
85518,note_on,,,,,78,0,1,,,,,0,,,40,0
85560,note_on,,,,,0,0,0,,,,,0,,,89,126
85560,note_on,,,,,0,0,0,,,,,0,,,84,126
85560,note_on,,,,,127,0,0,,,,,0,,,81,126
85673,note_on,,,,,113,0,0,,,,,0,,,81,0
85673,note_on,,,,,0,0,0,,,,,0,,,84,0
85673,note_on,,,,,0,0,0,,,,,0,,,89,0
85680,note_on,,,,,162,0,1,,,,,0,,,40,127
85680,note_on,,,,,0,0,1,,,,,0,,,50,127
85800,note_on,,,,,127,0,0,,,,,0,,,82,127
85800,note_on,,,,,0,0,0,,,,,0,,,89,127
85800,note_on,,,,,0,0,0,,,,,0,,,94,127
85839,note_on,,,,,0,0,1,,,,,0,,,50,0
85839,note_on,,,,,159,0,1,,,,,0,,,40,0
85879,note_on,,,,,0,0,0,,,,,0,,,94,0
85879,note_on,,,,,79,0,0,,,,,0,,,82,0
85879,note_on,,,,,0,0,0,,,,,0,,,89,0
85920,note_on,,,,,81,0,1,,,,,0,,,40,127
85920,note_on,,,,,0,0,1,,,,,0,,,50,127
85998,note_on,,,,,78,0,1,,,,,0,,,40,0
85998,note_on,,,,,0,0,1,,,,,0,,,50,0
86040,note_on,,,,,0,0,0,,,,,0,,,64,127
86040,note_on,,,,,0,0,0,,,,,0,,,59,127
86040,note_on,,,,,161,0,0,,,,,0,,,56,127
86153,note_on,,,,,0,0,0,,,,,0,,,64,0
86153,note_on,,,,,113,0,0,,,,,0,,,56,0
86153,note_on,,,,,0,0,0,,,,,0,,,59,0
86160,note_on,,,,,162,0,1,,,,,0,,,40,127
86160,note_on,,,,,0,0,1,,,,,0,,,49,127
86238,note_on,,,,,0,0,1,,,,,0,,,49,0
86238,note_on,,,,,78,0,1,,,,,0,,,40,0
86280,note_on,,,,,0,0,0,,,,,0,,,64,127
86280,note_on,,,,,127,0,0,,,,,0,,,61,127
86280,note_on,,,,,0,0,0,,,,,0,,,69,127
86393,note_on,,,,,0,0,0,,,,,0,,,64,0
86393,note_on,,,,,0,0,0,,,,,0,,,69,0
86393,note_on,,,,,113,0,0,,,,,0,,,61,0
86400,note_on,,,,,162,0,1,,,,,0,,,40,127
86400,note_on,,,,,0,0,1,,,,,0,,,48,127
86478,note_on,,,,,78,0,1,,,,,0,,,40,0
86478,note_on,,,,,0,0,1,,,,,0,,,48,0
86520,note_on,,,,,0,0,0,,,,,0,,,69,127
86520,note_on,,,,,127,0,0,,,,,0,,,66,127
86520,note_on,,,,,0,0,0,,,,,0,,,74,127
86633,note_on,,,,,0,0,0,,,,,0,,,69,0
86633,note_on,,,,,113,0,0,,,,,0,,,66,0
86633,note_on,,,,,0,0,0,,,,,0,,,74,0
86640,note_on,,,,,162,0,1,,,,,0,,,40,127
86640,note_on,,,,,0,0,1,,,,,0,,,47,127
86718,note_on,,,,,78,0,1,,,,,0,,,40,0
86718,note_on,,,,,0,0,1,,,,,0,,,47,0
86760,note_on,,,,,127,0,0,,,,,0,,,71,127
86760,note_on,,,,,0,0,0,,,,,0,,,79,127
86760,note_on,,,,,0,0,0,,,,,0,,,74,127
86873,note_on,,,,,0,0,0,,,,,0,,,74,0
86873,note_on,,,,,0,0,0,,,,,0,,,79,0
86873,note_on,,,,,113,0,0,,,,,0,,,71,0
86880,note_on,,,,,0,0,1,,,,,0,,,46,127
86880,note_on,,,,,162,0,1,,,,,0,,,40,127
86958,note_on,,,,,78,0,1,,,,,0,,,40,0
86958,note_on,,,,,0,0,1,,,,,0,,,46,0
87000,note_on,,,,,0,0,0,,,,,0,,,79,127
87000,note_on,,,,,127,0,0,,,,,0,,,76,127
87000,note_on,,,,,0,0,0,,,,,0,,,84,127
87113,note_on,,,,,0,0,0,,,,,0,,,79,0
87113,note_on,,,,,113,0,0,,,,,0,,,76,0
87113,note_on,,,,,0,0,0,,,,,0,,,84,0
87120,note_on,,,,,162,0,1,,,,,0,,,40,127
87120,note_on,,,,,0,0,1,,,,,0,,,45,127
87198,note_on,,,,,78,0,1,,,,,0,,,40,0
87198,note_on,,,,,0,0,1,,,,,0,,,45,0
87240,note_on,,,,,0,0,0,,,,,0,,,84,127
87240,note_on,,,,,0,0,0,,,,,0,,,89,127
87240,note_on,,,,,127,0,0,,,,,0,,,77,127
87319,note_on,,,,,79,0,0,,,,,0,,,77,0
87319,note_on,,,,,0,0,0,,,,,0,,,84,0
87319,note_on,,,,,0,0,0,,,,,0,,,89,0
87360,note_on,,,,,162,0,1,,,,,0,,,40,127
87360,note_on,,,,,0,0,1,,,,,0,,,45,127
87438,note_on,,,,,0,0,1,,,,,0,,,45,0
87438,note_on,,,,,78,0,1,,,,,0,,,40,0
87480,note_on,,,,,0,0,0,,,,,0,,,78,127
87480,note_on,,,,,161,0,0,,,,,0,,,75,127
87480,note_on,,,,,0,0,0,,,,,0,,,83,127
87593,note_on,,,,,113,0,0,,,,,0,,,75,0
87593,note_on,,,,,0,0,0,,,,,0,,,78,0
87593,note_on,,,,,0,0,0,,,,,0,,,83,0
87600,note_on,,,,,162,0,1,,,,,0,,,40,127
87600,note_on,,,,,0,0,1,,,,,0,,,44,127
87678,note_on,,,,,78,0,1,,,,,0,,,40,0
87678,note_on,,,,,0,0,1,,,,,0,,,44,0
87720,note_on,,,,,0,0,0,,,,,0,,,83,127
87720,note_on,,,,,127,0,0,,,,,0,,,76,127
87720,note_on,,,,,0,0,0,,,,,0,,,88,127
87799,note_on,,,,,0,0,0,,,,,0,,,83,0
87799,note_on,,,,,79,0,0,,,,,0,,,76,0
87799,note_on,,,,,0,0,0,,,,,0,,,88,0
87840,note_on,,,,,162,0,1,,,,,0,,,40,127
87840,note_on,,,,,0,0,1,,,,,0,,,43,127
87918,note_on,,,,,78,0,1,,,,,0,,,40,0
87918,note_on,,,,,0,0,1,,,,,0,,,43,0
87960,note_on,,,,,161,0,0,,,,,0,,,73,127
87960,note_on,,,,,0,0,0,,,,,0,,,81,127
87960,note_on,,,,,0,0,0,,,,,0,,,76,127
88073,note_on,,,,,0,0,0,,,,,0,,,76,0
88073,note_on,,,,,0,0,0,,,,,0,,,81,0
88073,note_on,,,,,113,0,0,,,,,0,,,73,0
88080,note_on,,,,,0,0,1,,,,,0,,,42,127
88080,note_on,,,,,162,0,1,,,,,0,,,40,127
88158,note_on,,,,,78,0,1,,,,,0,,,40,0
88158,note_on,,,,,0,0,1,,,,,0,,,42,0
88200,note_on,,,,,127,0,0,,,,,0,,,74,127
88200,note_on,,,,,0,0,0,,,,,0,,,86,127
88200,note_on,,,,,0,0,0,,,,,0,,,81,127
88279,note_on,,,,,0,0,0,,,,,0,,,81,0
88279,note_on,,,,,79,0,0,,,,,0,,,74,0
88279,note_on,,,,,0,0,0,,,,,0,,,86,0
88320,note_on,,,,,162,0,1,,,,,0,,,40,127
88320,note_on,,,,,0,0,1,,,,,0,,,41,127
88398,note_on,,,,,78,0,1,,,,,0,,,40,0
88398,note_on,,,,,0,0,1,,,,,0,,,41,0
88440,note_on,,,,,0,0,0,,,,,0,,,74,127
88440,note_on,,,,,0,0,0,,,,,0,,,79,127
88440,note_on,,,,,161,0,0,,,,,0,,,71,127
88553,note_on,,,,,0,0,0,,,,,0,,,79,0
88553,note_on,,,,,0,0,0,,,,,0,,,74,0
88553,note_on,,,,,113,0,0,,,,,0,,,71,0
88560,note_on,,,,,162,0,1,,,,,0,,,40,127
88680,note_on,,,,,0,0,0,,,,,0,,,84,127
88680,note_on,,,,,0,0,0,,,,,0,,,79,127
88680,note_on,,,,,127,0,0,,,,,0,,,72,127
88787,note_on,,,,,227,0,1,,,,,0,,,40,0
88793,note_on,,,,,0,0,0,,,,,0,,,79,0
88793,note_on,,,,,0,0,0,,,,,0,,,84,0
88793,note_on,,,,,113,0,0,,,,,0,,,72,0
88800,note_on,,,,,0,0,1,,,,,0,,,39,127
88800,note_on,,,,,13,0,1,,,,,0,,,40,127
88920,note_on,,,,,0,0,0,,,,,0,,,72,127
88920,note_on,,,,,0,0,0,,,,,0,,,77,127
88920,note_on,,,,,127,0,0,,,,,0,,,69,127
89027,note_on,,,,,0,0,1,,,,,0,,,39,0
89027,note_on,,,,,227,0,1,,,,,0,,,40,0
89033,note_on,,,,,0,0,0,,,,,0,,,77,0
89033,note_on,,,,,113,0,0,,,,,0,,,69,0
89033,note_on,,,,,0,0,0,,,,,0,,,72,0
89040,note_on,,,,,13,0,1,,,,,0,,,40,127
89040,note_on,,,,,0,0,1,,,,,0,,,38,127
89042,control_change,,,,,2,0,1,,,64,127,0,,,,
89160,note_on,,,,,0,0,0,,,,,0,,,82,127
89160,note_on,,,,,127,0,0,,,,,0,,,70,127
89160,note_on,,,,,0,0,0,,,,,0,,,77,127
89267,note_on,,,,,225,0,1,,,,,0,,,40,0
89267,note_on,,,,,0,0,1,,,,,0,,,38,0
89273,note_on,,,,,113,0,0,,,,,0,,,70,0
89273,note_on,,,,,0,0,0,,,,,0,,,77,0
89273,note_on,,,,,0,0,0,,,,,0,,,82,0
89280,note_on,,,,,0,0,1,,,,,0,,,38,127
89280,note_on,,,,,13,0,1,,,,,0,,,40,127
89281,control_change,,,,,1,0,1,,,64,0,0,,,,
89400,note_on,,,,,0,0,0,,,,,0,,,77,127
89400,note_on,,,,,0,0,0,,,,,0,,,70,127
89400,note_on,,,,,127,0,0,,,,,0,,,65,127
89507,note_on,,,,,226,0,1,,,,,0,,,40,0
89507,note_on,,,,,0,0,1,,,,,0,,,38,0
89513,note_on,,,,,0,0,0,,,,,0,,,77,0
89513,note_on,,,,,113,0,0,,,,,0,,,65,0
89513,note_on,,,,,0,0,0,,,,,0,,,70,0
89520,note_on,,,,,0,0,1,,,,,0,,,34,127
89520,note_on,,,,,0,0,1,,,,,0,,,40,127
89520,note_on,,,,,13,0,1,,,,,0,,,38,127
89640,note_on,,,,,127,0,0,,,,,0,,,62,127
89640,note_on,,,,,0,0,0,,,,,0,,,65,127
89640,note_on,,,,,0,0,0,,,,,0,,,74,127
89747,note_on,,,,,227,0,1,,,,,0,,,38,0
89747,note_on,,,,,0,0,1,,,,,0,,,40,0
89753,note_on,,,,,0,0,0,,,,,0,,,74,0
89753,note_on,,,,,0,0,0,,,,,0,,,65,0
89753,note_on,,,,,113,0,0,,,,,0,,,62,0
89760,note_on,,,,,0,0,1,,,,,0,,,40,127
89760,note_on,,,,,13,0,1,,,,,0,,,38,127
89840,note_on,,,,,80,0,1,,,,,0,,,34,0
89880,note_on,,,,,0,0,0,,,,,0,,,70,127
89880,note_on,,,,,0,0,0,,,,,0,,,65,127
89880,note_on,,,,,127,0,0,,,,,0,,,62,127
89987,note_on,,,,,0,0,1,,,,,0,,,40,0
89987,note_on,,,,,147,0,1,,,,,0,,,38,0
89993,note_on,,,,,0,0,0,,,,,0,,,65,0
89993,note_on,,,,,0,0,0,,,,,0,,,70,0
89993,note_on,,,,,113,0,0,,,,,0,,,62,0
90000,note_on,,,,,0,0,1,,,,,0,,,29,127
90000,note_on,,,,,13,0,1,,,,,0,,,38,127
90000,note_on,,,,,0,0,1,,,,,0,,,40,127
90120,note_on,,,,,127,0,0,,,,,0,,,58,127
90120,note_on,,,,,0,0,0,,,,,0,,,62,127
90120,note_on,,,,,0,0,0,,,,,0,,,65,127
90227,note_on,,,,,0,0,1,,,,,0,,,40,0
90227,note_on,,,,,227,0,1,,,,,0,,,38,0
90233,note_on,,,,,0,0,0,,,,,0,,,62,0
90233,note_on,,,,,113,0,0,,,,,0,,,58,0
90233,note_on,,,,,0,0,0,,,,,0,,,65,0
90240,note_on,,,,,0,0,1,,,,,0,,,40,127
90240,note_on,,,,,13,0,1,,,,,0,,,38,127
90320,note_on,,,,,80,0,1,,,,,0,,,29,0
90360,note_on,,,,,0,0,0,,,,,0,,,58,127
90360,note_on,,,,,127,0,0,,,,,0,,,53,127
90360,note_on,,,,,0,0,0,,,,,0,,,62,127
90467,note_on,,,,,147,0,1,,,,,0,,,38,0
90467,note_on,,,,,0,0,1,,,,,0,,,40,0
90473,note_on,,,,,113,0,0,,,,,0,,,53,0
90473,note_on,,,,,0,0,0,,,,,0,,,58,0
90473,note_on,,,,,0,0,0,,,,,0,,,62,0
90480,note_on,,,,,0,0,1,,,,,0,,,40,127
90480,note_on,,,,,13,0,1,,,,,0,,,38,127
90480,note_on,,,,,0,0,1,,,,,0,,,34,127
90600,note_on,,,,,0,0,0,,,,,0,,,58,127
90600,note_on,,,,,0,0,0,,,,,0,,,53,127
90600,note_on,,,,,127,0,0,,,,,0,,,50,127
90707,note_on,,,,,227,0,1,,,,,0,,,38,0
90707,note_on,,,,,0,0,1,,,,,0,,,40,0
90713,note_on,,,,,0,0,0,,,,,0,,,58,0
90713,note_on,,,,,113,0,0,,,,,0,,,50,0
90713,note_on,,,,,0,0,0,,,,,0,,,53,0
90720,note_on,,,,,0,0,1,,,,,0,,,40,127
90720,note_on,,,,,13,0,1,,,,,0,,,38,127
90800,note_on,,,,,80,0,1,,,,,0,,,34,0
90840,note_on,,,,,0,0,0,,,,,0,,,50,127
90840,note_on,,,,,0,0,0,,,,,0,,,53,127
90840,note_on,,,,,127,0,0,,,,,0,,,46,127
90947,note_on,,,,,147,0,1,,,,,0,,,38,0
90947,note_on,,,,,0,0,1,,,,,0,,,40,0
90953,note_on,,,,,0,0,0,,,,,0,,,50,0
90953,note_on,,,,,113,0,0,,,,,0,,,46,0
90953,note_on,,,,,0,0,0,,,,,0,,,53,0
90960,note_on,,,,,13,0,1,,,,,0,,,38,127
90960,note_on,,,,,0,0,1,,,,,0,,,29,127
90960,note_on,,,,,0,0,1,,,,,0,,,40,127
91080,note_on,,,,,127,0,0,,,,,0,,,46,127
91080,note_on,,,,,0,0,0,,,,,0,,,50,127
91080,note_on,,,,,0,0,0,,,,,0,,,58,127
91159,note_on,,,,,79,0,0,,,,,0,,,46,0
91159,note_on,,,,,0,0,0,,,,,0,,,58,0
91159,note_on,,,,,0,0,0,,,,,0,,,50,0
91187,note_on,,,,,0,0,1,,,,,0,,,40,0
91187,note_on,,,,,227,0,1,,,,,0,,,38,0
91200,note_on,,,,,13,0,1,,,,,0,,,38,127
91200,note_on,,,,,0,0,1,,,,,0,,,40,127
91280,note_on,,,,,80,0,1,,,,,0,,,29,0
91320,note_on,,,,,0,0,0,,,,,0,,,53,127
91320,note_on,,,,,0,0,0,,,,,0,,,50,127
91320,note_on,,,,,161,0,0,,,,,0,,,46,127
91427,note_on,,,,,147,0,1,,,,,0,,,38,0
91427,note_on,,,,,0,0,1,,,,,0,,,40,0
91433,note_on,,,,,113,0,0,,,,,0,,,46,0
91433,note_on,,,,,0,0,0,,,,,0,,,50,0
91433,note_on,,,,,0,0,0,,,,,0,,,53,0
91440,note_on,,,,,0,0,1,,,,,0,,,40,127
91440,note_on,,,,,13,0,1,,,,,0,,,38,127
91440,note_on,,,,,0,0,1,,,,,0,,,35,127
91442,control_change,,,,,9,0,0,,,64,127,0,,,,
91560,note_on,,,,,0,0,0,,,,,0,,,56,127
91560,note_on,,,,,118,0,0,,,,,0,,,47,127
91560,note_on,,,,,0,0,0,,,,,0,,,59,127
91560,note_on,,,,,0,0,0,,,,,0,,,50,127
91639,note_on,,,,,0,0,0,,,,,0,,,59,0
91639,note_on,,,,,79,0,0,,,,,0,,,47,0
91639,note_on,,,,,0,0,0,,,,,0,,,56,0
91639,note_on,,,,,0,0,0,,,,,0,,,50,0
91667,note_on,,,,,0,0,1,,,,,0,,,40,0
91667,note_on,,,,,227,0,1,,,,,0,,,38,0
91680,note_on,,,,,13,0,1,,,,,0,,,38,127
91680,note_on,,,,,0,0,1,,,,,0,,,40,127
91760,note_on,,,,,80,0,1,,,,,0,,,35,0
91800,note_on,,,,,0,0,0,,,,,0,,,50,127
91800,note_on,,,,,0,0,0,,,,,0,,,53,127
91800,note_on,,,,,161,0,0,,,,,0,,,47,127
91907,note_on,,,,,0,0,1,,,,,0,,,40,0
91907,note_on,,,,,147,0,1,,,,,0,,,38,0
91913,note_on,,,,,113,0,0,,,,,0,,,47,0
91913,note_on,,,,,0,0,0,,,,,0,,,50,0
91913,note_on,,,,,0,0,0,,,,,0,,,53,0
91920,note_on,,,,,0,0,1,,,,,0,,,29,127
91920,note_on,,,,,13,0,1,,,,,0,,,38,127
91920,note_on,,,,,0,0,1,,,,,0,,,40,127
91921,control_change,,,,,8,0,0,,,64,0,0,,,,
91922,control_change,,,,,1,0,0,,,64,127,0,,,,
92040,note_on,,,,,0,0,0,,,,,0,,,59,127
92040,note_on,,,,,118,0,0,,,,,0,,,47,127
92040,note_on,,,,,0,0,0,,,,,0,,,57,127
92040,note_on,,,,,0,0,0,,,,,0,,,50,127
92119,note_on,,,,,0,0,0,,,,,0,,,59,0
92119,note_on,,,,,0,0,0,,,,,0,,,50,0
92119,note_on,,,,,0,0,0,,,,,0,,,57,0
92119,note_on,,,,,79,0,0,,,,,0,,,47,0
92147,note_on,,,,,0,0,1,,,,,0,,,40,0
92147,note_on,,,,,227,0,1,,,,,0,,,38,0
92160,note_on,,,,,13,0,1,,,,,0,,,38,127
92160,note_on,,,,,0,0,1,,,,,0,,,40,127
92240,note_on,,,,,80,0,1,,,,,0,,,29,0
92280,note_on,,,,,161,0,0,,,,,0,,,47,127
92280,note_on,,,,,0,0,0,,,,,0,,,50,127
92280,note_on,,,,,0,0,0,,,,,0,,,53,127
92387,note_on,,,,,0,0,1,,,,,0,,,40,0
92387,note_on,,,,,147,0,1,,,,,0,,,38,0
92393,note_on,,,,,113,0,0,,,,,0,,,47,0
92393,note_on,,,,,0,0,0,,,,,0,,,50,0
92393,note_on,,,,,0,0,0,,,,,0,,,53,0
92400,note_on,,,,,13,0,1,,,,,0,,,35,127
92400,note_on,,,,,0,0,1,,,,,0,,,29,127
92400,note_on,,,,,0,0,1,,,,,0,,,39,127
92400,note_on,,,,,0,0,1,,,,,0,,,40,127
92401,control_change,,,,,8,0,0,,,64,0,0,,,,
92402,control_change,,,,,1,0,0,,,64,127,0,,,,
92520,note_on,,,,,0,0,0,,,,,0,,,51,127
92520,note_on,,,,,0,0,0,,,,,0,,,57,127
92520,note_on,,,,,118,0,0,,,,,0,,,47,127
92520,note_on,,,,,0,0,0,,,,,0,,,59,127
92599,note_on,,,,,0,0,0,,,,,0,,,51,0
92599,note_on,,,,,79,0,0,,,,,0,,,47,0
92599,note_on,,,,,0,0,0,,,,,0,,,59,0
92599,note_on,,,,,0,0,0,,,,,0,,,57,0
92627,note_on,,,,,227,0,1,,,,,0,,,35,0
92627,note_on,,,,,0,0,1,,,,,0,,,40,0
92627,note_on,,,,,0,0,1,,,,,0,,,39,0
92640,note_on,,,,,13,0,1,,,,,0,,,39,127
92640,note_on,,,,,0,0,1,,,,,0,,,40,127
92720,note_on,,,,,80,0,1,,,,,0,,,29,0
92760,note_on,,,,,161,0,0,,,,,0,,,47,127
92760,note_on,,,,,0,0,0,,,,,0,,,51,127
92867,note_on,,,,,147,0,1,,,,,0,,,39,0
92867,note_on,,,,,0,0,1,,,,,0,,,40,0
92873,note_on,,,,,0,0,0,,,,,0,,,51,0
92873,note_on,,,,,113,0,0,,,,,0,,,47,0
92880,note_on,,,,,0,0,1,,,,,0,,,35,127
92880,note_on,,,,,0,0,0,,,,,0,,,56,127
92880,note_on,,,,,0,0,0,,,,,0,,,64,127
92880,note_on,,,,,0,0,1,,,,,0,,,40,127
92880,note_on,,,,,7,0,0,,,,,0,,,52,127
92880,note_on,,,,,13,0,1,,,,,0,,,28,127
92881,control_change,,,,,1,0,0,,,64,0,0,,,,
92882,control_change,,,,,1,0,0,,,64,127,0,,,,
92958,note_on,,,,,0,0,1,,,,,0,,,35,0
92958,note_on,,,,,0,0,1,,,,,0,,,40,0
92958,note_on,,,,,78,0,1,,,,,0,,,28,0
93107,note_on,,,,,0,0,0,,,,,0,,,64,0
93107,note_on,,,,,225,0,0,,,,,0,,,52,0
93107,note_on,,,,,0,0,0,,,,,0,,,56,0
93120,note_on,,,,,162,0,1,,,,,0,,,40,127
93233,note_on,,,,,113,0,1,,,,,0,,,40,0
93240,note_on,,,,,133,0,0,,,,,0,,,52,127
93353,note_on,,,,,113,0,0,,,,,0,,,52,0
93360,note_on,,,,,127,0,1,,,,,0,,,52,127
93473,note_on,,,,,113,0,1,,,,,0,,,52,0
93480,note_on,,,,,127,0,0,,,,,0,,,64,127
93593,note_on,,,,,113,0,0,,,,,0,,,64,0
93600,note_on,,,,,127,0,1,,,,,0,,,64,127
93713,note_on,,,,,113,0,1,,,,,0,,,64,0
93720,note_on,,,,,127,0,0,,,,,0,,,76,127
93833,note_on,,,,,113,0,0,,,,,0,,,76,0
93840,note_on,,,,,127,0,1,,,,,0,,,76,127
93953,note_on,,,,,113,0,1,,,,,0,,,76,0
93960,note_on,,,,,127,0,0,,,,,0,,,88,127
94073,note_on,,,,,113,0,0,,,,,0,,,88,0
94080,note_on,,,,,127,0,1,,,,,0,,,88,127
94193,note_on,,,,,113,0,1,,,,,0,,,88,0
94200,note_on,,,,,127,0,0,,,,,0,,,100,127
94313,note_on,,,,,113,0,0,,,,,0,,,100,0
94320,note_on,,,,,127,0,1,,,,,0,,,86,127
94320,note_on,,,,,0,0,1,,,,,0,,,88,127
94321,control_change,,,,,8,0,0,,,64,0,0,,,,
94322,control_change,,,,,1,0,0,,,64,127,0,,,,
94399,note_on,,,,,0,0,1,,,,,0,,,88,0
94399,note_on,,,,,79,0,1,,,,,0,,,86,0
94440,note_on,,,,,0,0,0,,,,,0,,,100,127
94440,note_on,,,,,118,0,0,,,,,0,,,98,127
94519,note_on,,,,,0,0,0,,,,,0,,,100,0
94519,note_on,,,,,79,0,0,,,,,0,,,98,0
94560,note_on,,,,,161,0,1,,,,,0,,,74,127
94560,note_on,,,,,0,0,1,,,,,0,,,76,127
94673,note_on,,,,,0,0,1,,,,,0,,,76,0
94673,note_on,,,,,113,0,1,,,,,0,,,74,0
94680,note_on,,,,,161,0,0,,,,,0,,,86,127
94680,note_on,,,,,0,0,0,,,,,0,,,88,127
94793,note_on,,,,,113,0,0,,,,,0,,,86,0
94793,note_on,,,,,0,0,0,,,,,0,,,88,0
94800,note_on,,,,,0,0,1,,,,,0,,,64,127
94800,note_on,,,,,127,0,1,,,,,0,,,62,127
94913,note_on,,,,,0,0,1,,,,,0,,,64,0
94913,note_on,,,,,113,0,1,,,,,0,,,62,0
94920,note_on,,,,,127,0,0,,,,,0,,,74,127
94920,note_on,,,,,0,0,0,,,,,0,,,76,127
95033,note_on,,,,,113,0,0,,,,,0,,,74,0
95033,note_on,,,,,0,0,0,,,,,0,,,76,0
95040,note_on,,,,,0,0,1,,,,,0,,,52,127
95040,note_on,,,,,127,0,1,,,,,0,,,50,127
95153,note_on,,,,,113,0,1,,,,,0,,,50,0
95153,note_on,,,,,0,0,1,,,,,0,,,52,0
95160,note_on,,,,,127,0,0,,,,,0,,,62,127
95160,note_on,,,,,0,0,0,,,,,0,,,64,127
95273,note_on,,,,,0,0,0,,,,,0,,,64,0
95273,note_on,,,,,113,0,0,,,,,0,,,62,0
95280,note_on,,,,,0,0,1,,,,,0,,,40,127
95280,note_on,,,,,127,0,1,,,,,0,,,38,127
95393,note_on,,,,,113,0,1,,,,,0,,,38,0
95393,note_on,,,,,0,0,1,,,,,0,,,40,0
95400,note_on,,,,,0,0,0,,,,,0,,,52,127
95400,note_on,,,,,127,0,0,,,,,0,,,50,127
95513,note_on,,,,,0,0,0,,,,,0,,,52,0
95513,note_on,,,,,113,0,0,,,,,0,,,50,0
95520,note_on,,,,,127,0,1,,,,,0,,,50,127
95520,note_on,,,,,0,0,1,,,,,0,,,52,127
95633,note_on,,,,,0,0,1,,,,,0,,,52,0
95633,note_on,,,,,113,0,1,,,,,0,,,50,0
95640,note_on,,,,,127,0,0,,,,,0,,,62,127
95640,note_on,,,,,0,0,0,,,,,0,,,64,127
95753,note_on,,,,,113,0,0,,,,,0,,,62,0
95753,note_on,,,,,0,0,0,,,,,0,,,64,0
95760,note_on,,,,,127,0,1,,,,,0,,,36,127
95760,note_on,,,,,0,0,1,,,,,0,,,40,127
95761,control_change,,,,,8,0,0,,,64,0,0,,,,
95762,control_change,,,,,1,0,0,,,64,127,0,,,,
95839,note_on,,,,,0,0,1,,,,,0,,,40,0
95839,note_on,,,,,79,0,1,,,,,0,,,36,0
95880,note_on,,,,,118,0,0,,,,,0,,,48,127
95880,note_on,,,,,0,0,0,,,,,0,,,52,127
95959,note_on,,,,,79,0,0,,,,,0,,,48,0
95959,note_on,,,,,0,0,0,,,,,0,,,52,0
96000,note_on,,,,,0,0,1,,,,,0,,,52,127
96000,note_on,,,,,161,0,1,,,,,0,,,48,127
96113,note_on,,,,,0,0,1,,,,,0,,,52,0
96113,note_on,,,,,113,0,1,,,,,0,,,48,0
96120,note_on,,,,,161,0,0,,,,,0,,,60,127
96120,note_on,,,,,0,0,0,,,,,0,,,64,127
96233,note_on,,,,,0,0,0,,,,,0,,,64,0
96233,note_on,,,,,113,0,0,,,,,0,,,60,0
96240,note_on,,,,,0,0,1,,,,,0,,,64,127
96240,note_on,,,,,127,0,1,,,,,0,,,60,127
96353,note_on,,,,,0,0,1,,,,,0,,,64,0
96353,note_on,,,,,113,0,1,,,,,0,,,60,0
96360,note_on,,,,,0,0,0,,,,,0,,,76,127
96360,note_on,,,,,127,0,0,,,,,0,,,72,127
96473,note_on,,,,,0,0,0,,,,,0,,,76,0
96473,note_on,,,,,113,0,0,,,,,0,,,72,0
96480,note_on,,,,,0,0,1,,,,,0,,,76,127
96480,note_on,,,,,127,0,1,,,,,0,,,72,127
96593,note_on,,,,,0,0,1,,,,,0,,,76,0
96593,note_on,,,,,113,0,1,,,,,0,,,72,0
96600,note_on,,,,,127,0,0,,,,,0,,,84,127
96600,note_on,,,,,0,0,0,,,,,0,,,88,127
96713,note_on,,,,,0,0,0,,,,,0,,,88,0
96713,note_on,,,,,113,0,0,,,,,0,,,84,0
96720,note_on,,,,,127,0,1,,,,,0,,,84,127
96720,note_on,,,,,0,0,1,,,,,0,,,88,127
96833,note_on,,,,,113,0,1,,,,,0,,,84,0
96833,note_on,,,,,0,0,1,,,,,0,,,88,0
96840,note_on,,,,,0,0,0,,,,,0,,,100,127
96840,note_on,,,,,127,0,0,,,,,0,,,96,127
96953,note_on,,,,,113,0,0,,,,,0,,,96,0
96953,note_on,,,,,0,0,0,,,,,0,,,100,0
96960,note_on,,,,,0,0,1,,,,,0,,,76,127
96960,note_on,,,,,127,0,1,,,,,0,,,72,127
97073,note_on,,,,,113,0,1,,,,,0,,,72,0
97073,note_on,,,,,0,0,1,,,,,0,,,76,0
97080,note_on,,,,,0,0,0,,,,,0,,,88,127
97080,note_on,,,,,127,0,0,,,,,0,,,84,127
97193,note_on,,,,,0,0,0,,,,,0,,,88,0
97193,note_on,,,,,113,0,0,,,,,0,,,84,0
97200,note_on,,,,,0,0,1,,,,,0,,,76,127
97200,note_on,,,,,127,0,1,,,,,0,,,71,127
97200,set_tempo,,,,,7,1,0,,375000,,,,,,,
97201,control_change,,,,,1,0,0,,,64,0,0,,,,
97313,note_on,,,,,0,0,1,,,,,0,,,76,0
97313,note_on,,,,,113,0,1,,,,,0,,,71,0
97320,note_on,,,,,0,0,0,,,,,0,,,88,127
97320,note_on,,,,,119,0,0,,,,,0,,,83,127
97433,note_on,,,,,113,0,0,,,,,0,,,83,0
97433,note_on,,,,,0,0,0,,,,,0,,,88,0
97440,note_on,,,,,0,0,1,,,,,0,,,64,127
97440,note_on,,,,,127,0,1,,,,,0,,,59,127
97553,note_on,,,,,113,0,1,,,,,0,,,59,0
97553,note_on,,,,,0,0,1,,,,,0,,,64,0
97560,note_on,,,,,0,0,0,,,,,0,,,76,127
97560,note_on,,,,,127,0,0,,,,,0,,,71,127
97673,note_on,,,,,113,0,0,,,,,0,,,71,0
97673,note_on,,,,,0,0,0,,,,,0,,,76,0
97680,note_on,,,,,0,0,1,,,,,0,,,52,127
97680,note_on,,,,,127,0,1,,,,,0,,,47,127
97793,note_on,,,,,113,0,1,,,,,0,,,47,0
97793,note_on,,,,,0,0,1,,,,,0,,,52,0
97800,note_on,,,,,0,0,0,,,,,0,,,64,127
97800,note_on,,,,,127,0,0,,,,,0,,,59,127
97913,note_on,,,,,113,0,0,,,,,0,,,59,0
97913,note_on,,,,,0,0,0,,,,,0,,,64,0
97920,note_on,,,,,0,0,1,,,,,0,,,40,127
97920,note_on,,,,,127,0,1,,,,,0,,,35,127
98033,note_on,,,,,0,0,1,,,,,0,,,40,0
98033,note_on,,,,,113,0,1,,,,,0,,,35,0
98040,note_on,,,,,0,0,0,,,,,0,,,52,127
98040,note_on,,,,,127,0,0,,,,,0,,,47,127
98153,note_on,,,,,0,0,0,,,,,0,,,52,0
98153,note_on,,,,,113,0,0,,,,,0,,,47,0
98160,note_on,,,,,0,0,1,,,,,0,,,40,127
98160,note_on,,,,,127,0,1,,,,,0,,,34,127
98273,note_on,,,,,0,0,1,,,,,0,,,40,0
98273,note_on,,,,,113,0,1,,,,,0,,,34,0
98280,note_on,,,,,0,0,0,,,,,0,,,52,127
98280,note_on,,,,,127,0,0,,,,,0,,,46,127
98393,note_on,,,,,0,0,0,,,,,0,,,52,0
98393,note_on,,,,,113,0,0,,,,,0,,,46,0
98400,note_on,,,,,127,0,1,,,,,0,,,46,127
98400,note_on,,,,,0,0,1,,,,,0,,,52,127
98513,note_on,,,,,0,0,1,,,,,0,,,52,0
98513,note_on,,,,,113,0,1,,,,,0,,,46,0
98520,note_on,,,,,0,0,0,,,,,0,,,64,127
98520,note_on,,,,,127,0,0,,,,,0,,,58,127
98633,note_on,,,,,0,0,0,,,,,0,,,64,0
98633,note_on,,,,,113,0,0,,,,,0,,,58,0
98640,note_on,,,,,0,0,0,,,,,0,,,64,90
98640,note_on,,,,,0,0,1,,,,,0,,,45,90
98640,note_on,,,,,0,0,0,,,,,0,,,57,90
98640,note_on,,,,,127,0,1,,,,,0,,,33,90
98640,set_tempo,,,,,7,1,0,,375000,,,,,,,
98668,note_on,,,,,28,0,0,,,,,0,,,60,90
98715,note_on,,,,,47,0,0,,,,,0,,,64,0
98719,note_on,,,,,4,0,0,,,,,0,,,57,0
98719,note_on,,,,,0,0,0,,,,,0,,,60,0
98720,note_on,,,,,1,0,0,,,,,0,,,69,90
98795,note_on,,,,,75,0,0,,,,,0,,,69,0
98800,note_on,,,,,5,0,0,,,,,0,,,68,90
98867,note_on,,,,,227,0,1,,,,,0,,,33,0
98867,note_on,,,,,0,0,1,,,,,0,,,45,0
98875,note_on,,,,,75,0,0,,,,,0,,,68,0
98880,note_on,,,,,5,0,0,,,,,0,,,69,90
98880,note_on,,,,,13,0,1,,,,,0,,,45,90
98880,note_on,,,,,0,0,0,,,,,0,,,64,90
98943,note_on,,,,,63,0,1,,,,,0,,,52,90
98955,note_on,,,,,75,0,0,,,,,0,,,69,0
98959,note_on,,,,,4,0,0,,,,,0,,,64,0
98960,note_on,,,,,1,0,0,,,,,0,,,72,90
99007,note_on,,,,,64,0,1,,,,,0,,,60,90
99035,note_on,,,,,75,0,0,,,,,0,,,72,0
99040,note_on,,,,,5,0,0,,,,,0,,,71,90
99115,note_on,,,,,75,0,0,,,,,0,,,71,0
99118,note_on,,,,,0,0,1,,,,,0,,,60,0
99118,note_on,,,,,111,0,1,,,,,0,,,52,0
99119,note_on,,,,,1,0,1,,,,,0,,,45,0
99120,note_on,,,,,1,0,1,,,,,0,,,45,90
99120,note_on,,,,,5,0,0,,,,,0,,,72,90
99120,note_on,,,,,0,0,0,,,,,0,,,69,90
99183,note_on,,,,,63,0,1,,,,,0,,,52,90
99195,note_on,,,,,0,0,0,,,,,0,,,69,0
99195,note_on,,,,,75,0,0,,,,,0,,,72,0
99200,note_on,,,,,5,0,0,,,,,0,,,76,90
99247,note_on,,,,,64,0,1,,,,,0,,,60,90
99275,note_on,,,,,75,0,0,,,,,0,,,76,0
99280,note_on,,,,,5,0,0,,,,,0,,,75,90
99355,note_on,,,,,75,0,0,,,,,0,,,75,0
99358,note_on,,,,,0,0,1,,,,,0,,,60,0
99358,note_on,,,,,111,0,1,,,,,0,,,52,0
99359,note_on,,,,,1,0,1,,,,,0,,,45,0
99360,note_on,,,,,5,0,0,,,,,0,,,76,90
99360,note_on,,,,,1,0,1,,,,,0,,,45,90
99360,note_on,,,,,0,0,0,,,,,0,,,72,90
99423,note_on,,,,,63,0,1,,,,,0,,,52,90
99435,note_on,,,,,75,0,0,,,,,0,,,76,0
99435,note_on,,,,,0,0,0,,,,,0,,,72,0
99440,note_on,,,,,5,0,0,,,,,0,,,81,90
99487,note_on,,,,,64,0,1,,,,,0,,,60,90
99515,note_on,,,,,75,0,0,,,,,0,,,81,0
99520,note_on,,,,,5,0,0,,,,,0,,,80,90
99595,note_on,,,,,75,0,0,,,,,0,,,80,0
99598,note_on,,,,,111,0,1,,,,,0,,,52,0
99598,note_on,,,,,0,0,1,,,,,0,,,60,0
99599,note_on,,,,,1,0,1,,,,,0,,,45,0
99600,note_on,,,,,0,0,0,,,,,0,,,76,90
99600,note_on,,,,,5,0,0,,,,,0,,,81,90
99600,note_on,,,,,1,0,1,,,,,0,,,45,90
99663,note_on,,,,,63,0,1,,,,,0,,,52,90
99675,note_on,,,,,75,0,0,,,,,0,,,81,0
99675,note_on,,,,,0,0,0,,,,,0,,,76,0
99680,note_on,,,,,5,0,0,,,,,0,,,84,90
99727,note_on,,,,,64,0,1,,,,,0,,,60,90
99755,note_on,,,,,75,0,0,,,,,0,,,84,0
99760,note_on,,,,,5,0,0,,,,,0,,,83,90
99835,note_on,,,,,75,0,0,,,,,0,,,83,0
99838,note_on,,,,,111,0,1,,,,,0,,,52,0
99838,note_on,,,,,0,0,1,,,,,0,,,60,0
99839,note_on,,,,,1,0,1,,,,,0,,,45,0
99840,note_on,,,,,0,0,0,,,,,0,,,81,90
99840,note_on,,,,,5,0,0,,,,,0,,,84,90
99915,note_on,,,,,75,0,0,,,,,0,,,84,0
99915,note_on,,,,,0,0,0,,,,,0,,,81,0
99920,note_on,,,,,5,0,0,,,,,0,,,88,90
99995,note_on,,,,,75,0,0,,,,,0,,,88,0
100000,note_on,,,,,5,0,0,,,,,0,,,87,90
100075,note_on,,,,,75,0,0,,,,,0,,,87,0
100080,note_on,,,,,0,0,0,,,,,0,,,84,90
100080,note_on,,,,,5,0,0,,,,,0,,,88,90
100155,note_on,,,,,0,0,0,,,,,0,,,84,0
100155,note_on,,,,,75,0,0,,,,,0,,,88,0
100160,note_on,,,,,5,0,0,,,,,0,,,93,90
100235,note_on,,,,,75,0,0,,,,,0,,,93,0
100240,note_on,,,,,5,0,0,,,,,0,,,92,90
100315,note_on,,,,,75,0,0,,,,,0,,,92,0
100320,note_on,,,,,0,0,0,,,,,0,,,88,90
100320,note_on,,,,,5,0,0,,,,,0,,,93,90
100320,note_on,,,,,481,0,1,,,,,0,,,45,90
100383,note_on,,,,,63,0,1,,,,,0,,,52,90
100395,note_on,,,,,75,0,0,,,,,0,,,93,0
100399,note_on,,,,,4,0,0,,,,,0,,,88,0
100400,note_on,,,,,1,0,0,,,,,0,,,96,90
100447,note_on,,,,,64,0,1,,,,,0,,,60,90
100475,note_on,,,,,75,0,0,,,,,0,,,96,0
100480,note_on,,,,,5,0,0,,,,,0,,,95,90
100555,note_on,,,,,75,0,0,,,,,0,,,95,0
100558,note_on,,,,,0,0,1,,,,,0,,,60,0
100558,note_on,,,,,111,0,1,,,,,0,,,52,0
100559,note_on,,,,,1,0,1,,,,,0,,,45,0
100560,note_on,,,,,0,0,0,,,,,0,,,93,91
100560,note_on,,,,,5,0,0,,,,,0,,,96,91
100560,note_on,,,,,1,0,1,,,,,0,,,45,91
100623,note_on,,,,,63,0,1,,,,,0,,,52,91
100635,note_on,,,,,0,0,0,,,,,0,,,93,0
100635,note_on,,,,,75,0,0,,,,,0,,,96,0
100640,note_on,,,,,5,0,0,,,,,0,,,100,93
100687,note_on,,,,,64,0,1,,,,,0,,,60,91
100715,note_on,,,,,75,0,0,,,,,0,,,100,0
100720,note_on,,,,,5,0,0,,,,,0,,,99,94
100795,note_on,,,,,75,0,0,,,,,0,,,99,0
100798,note_on,,,,,0,0,1,,,,,0,,,60,0
100798,note_on,,,,,111,0,1,,,,,0,,,52,0
100799,note_on,,,,,1,0,1,,,,,0,,,45,0
100800,note_on,,,,,1,0,1,,,,,0,,,45,96
100800,note_on,,,,,5,0,0,,,,,0,,,101,96
100800,note_on,,,,,0,0,0,,,,,0,,,93,96
100800,note_on,,,,,0,0,0,,,,,0,,,96,96
100863,note_on,,,,,63,0,1,,,,,0,,,52,96
100875,note_on,,,,,75,0,0,,,,,0,,,101,0
100875,note_on,,,,,0,0,0,,,,,0,,,96,0
100875,note_on,,,,,0,0,0,,,,,0,,,93,0
100880,note_on,,,,,5,0,0,,,,,0,,,100,97
100927,note_on,,,,,64,0,1,,,,,0,,,60,96
100955,note_on,,,,,75,0,0,,,,,0,,,100,0
100960,note_on,,,,,5,0,0,,,,,0,,,99,99
101035,note_on,,,,,75,0,0,,,,,0,,,99,0
101038,note_on,,,,,111,0,1,,,,,0,,,52,0
101038,note_on,,,,,0,0,1,,,,,0,,,60,0
101039,note_on,,,,,1,0,1,,,,,0,,,45,0
101040,note_on,,,,,5,0,0,,,,,0,,,101,101
101040,note_on,,,,,1,0,1,,,,,0,,,45,101
101040,note_on,,,,,0,0,0,,,,,0,,,93,101
101040,note_on,,,,,0,0,0,,,,,0,,,96,101
101103,note_on,,,,,63,0,1,,,,,0,,,52,101
101115,note_on,,,,,0,0,0,,,,,0,,,93,0
101115,note_on,,,,,0,0,0,,,,,0,,,96,0
101115,note_on,,,,,75,0,0,,,,,0,,,101,0
101120,note_on,,,,,5,0,0,,,,,0,,,100,102
101167,note_on,,,,,64,0,1,,,,,0,,,60,101
101195,note_on,,,,,75,0,0,,,,,0,,,100,0
101200,note_on,,,,,5,0,0,,,,,0,,,99,104
101275,note_on,,,,,75,0,0,,,,,0,,,99,0
101278,note_on,,,,,111,0,1,,,,,0,,,52,0
101278,note_on,,,,,0,0,1,,,,,0,,,60,0
101279,note_on,,,,,1,0,1,,,,,0,,,45,0
101280,note_on,,,,,0,0,0,,,,,0,,,93,105
101280,note_on,,,,,0,0,0,,,,,0,,,96,105
101280,note_on,,,,,5,0,0,,,,,0,,,101,105
101355,note_on,,,,,75,0,0,,,,,0,,,101,0
101355,note_on,,,,,0,0,0,,,,,0,,,93,0
101355,note_on,,,,,0,0,0,,,,,0,,,96,0
101360,note_on,,,,,5,0,0,,,,,0,,,100,107
101435,note_on,,,,,75,0,0,,,,,0,,,100,0
101440,note_on,,,,,5,0,0,,,,,0,,,99,108
101515,note_on,,,,,75,0,0,,,,,0,,,99,0
101520,note_on,,,,,0,0,0,,,,,0,,,94,110
101520,note_on,,,,,5,0,0,,,,,0,,,101,110
101520,note_on,,,,,0,0,0,,,,,0,,,89,110
101520,note_on,,,,,241,0,1,,,,,0,,,38,110
101595,note_on,,,,,75,0,0,,,,,0,,,101,0
101598,note_on,,,,,78,0,1,,,,,0,,,38,0
101600,note_on,,,,,5,0,0,,,,,0,,,98,112
101675,note_on,,,,,75,0,0,,,,,0,,,98,0
101680,note_on,,,,,5,0,0,,,,,0,,,97,112
101747,note_on,,,,,67,0,0,,,,,0,,,89,0
101747,note_on,,,,,0,0,0,,,,,0,,,94,0
101755,note_on,,,,,8,0,0,,,,,0,,,97,0
101760,note_on,,,,,0,0,1,,,,,0,,,65,112
101760,note_on,,,,,0,0,1,,,,,0,,,58,112
101760,note_on,,,,,162,0,1,,,,,0,,,57,112
101760,note_on,,,,,5,0,0,,,,,0,,,94,112
101835,note_on,,,,,75,0,0,,,,,0,,,94,0
101840,note_on,,,,,5,0,0,,,,,0,,,93,112
101879,note_on,,,,,119,0,1,,,,,0,,,57,0
101879,note_on,,,,,0,0,1,,,,,0,,,58,0
101879,note_on,,,,,0,0,1,,,,,0,,,65,0
101915,note_on,,,,,75,0,0,,,,,0,,,93,0
101920,note_on,,,,,5,0,0,,,,,0,,,92,112
101995,note_on,,,,,75,0,0,,,,,0,,,92,0
102000,note_on,,,,,5,0,0,,,,,0,,,89,112
102000,note_on,,,,,121,0,1,,,,,0,,,57,112
102000,note_on,,,,,0,0,1,,,,,0,,,58,112
102000,note_on,,,,,0,0,1,,,,,0,,,65,112
102075,note_on,,,,,75,0,0,,,,,0,,,89,0
102080,note_on,,,,,5,0,0,,,,,0,,,86,112
102119,note_on,,,,,0,0,1,,,,,0,,,65,0
102119,note_on,,,,,119,0,1,,,,,0,,,57,0
102119,note_on,,,,,0,0,1,,,,,0,,,58,0
102155,note_on,,,,,75,0,0,,,,,0,,,86,0
102160,note_on,,,,,5,0,0,,,,,0,,,85,112
102235,note_on,,,,,75,0,0,,,,,0,,,85,0
102240,note_on,,,,,5,0,0,,,,,0,,,82,112
102240,note_on,,,,,0,0,1,,,,,0,,,65,112
102240,note_on,,,,,0,0,1,,,,,0,,,58,112
102240,note_on,,,,,121,0,1,,,,,0,,,57,112
102315,note_on,,,,,75,0,0,,,,,0,,,82,0
102320,note_on,,,,,5,0,0,,,,,0,,,81,112
102359,note_on,,,,,0,0,1,,,,,0,,,65,0
102359,note_on,,,,,0,0,1,,,,,0,,,58,0
102359,note_on,,,,,119,0,1,,,,,0,,,57,0
102395,note_on,,,,,75,0,0,,,,,0,,,81,0
102400,note_on,,,,,5,0,0,,,,,0,,,80,112
102475,note_on,,,,,75,0,0,,,,,0,,,80,0
102480,note_on,,,,,121,0,1,,,,,0,,,40,112
102480,note_on,,,,,5,0,0,,,,,0,,,74,112
102480,note_on,,,,,0,0,0,,,,,0,,,77,112
102555,note_on,,,,,75,0,0,,,,,0,,,74,0
102555,note_on,,,,,0,0,0,,,,,0,,,77,0
102560,note_on,,,,,5,0,0,,,,,0,,,71,112
102635,note_on,,,,,75,0,0,,,,,0,,,71,0
102640,note_on,,,,,5,0,0,,,,,0,,,68,112
102707,note_on,,,,,227,0,1,,,,,0,,,40,0
102715,note_on,,,,,75,0,0,,,,,0,,,68,0
102720,note_on,,,,,0,0,1,,,,,0,,,62,112
102720,note_on,,,,,0,0,1,,,,,0,,,59,112
102720,note_on,,,,,13,0,1,,,,,0,,,52,112
102720,note_on,,,,,5,0,0,,,,,0,,,65,112
102795,note_on,,,,,75,0,0,,,,,0,,,65,0
102800,note_on,,,,,5,0,0,,,,,0,,,64,112
102875,note_on,,,,,75,0,0,,,,,0,,,64,0
102880,note_on,,,,,5,0,0,,,,,0,,,68,112
102947,note_on,,,,,0,0,1,,,,,0,,,59,0
102947,note_on,,,,,0,0,1,,,,,0,,,62,0
102947,note_on,,,,,227,0,1,,,,,0,,,52,0
102955,note_on,,,,,75,0,0,,,,,0,,,68,0
102960,note_on,,,,,0,0,1,,,,,0,,,60,112
102960,note_on,,,,,5,0,0,,,,,0,,,69,112
102960,note_on,,,,,0,0,1,,,,,0,,,52,112
102960,note_on,,,,,13,0,1,,,,,0,,,45,112
103038,note_on,,,,,0,0,1,,,,,0,,,52,0
103038,note_on,,,,,0,0,1,,,,,0,,,60,0
103038,note_on,,,,,78,0,1,,,,,0,,,45,0
103039,note_on,,,,,79,0,0,,,,,0,,,69,0
103040,note_on,,,,,1,0,0,,,,,0,,,81,112
103119,note_on,,,,,79,0,0,,,,,0,,,81,0
103120,note_on,,,,,1,0,0,,,,,0,,,81,112
103199,note_on,,,,,79,0,0,,,,,0,,,81,0
103200,note_on,,,,,1,0,0,,,,,0,,,93,112
103200,note_on,,,,,0,0,1,,,,,0,,,64,112
103200,note_on,,,,,162,0,1,,,,,0,,,60,112
103200,note_on,,,,,0,0,1,,,,,0,,,69,112
103278,note_on,,,,,0,0,1,,,,,0,,,69,0
103278,note_on,,,,,78,0,1,,,,,0,,,60,0
103278,note_on,,,,,0,0,1,,,,,0,,,64,0
103279,note_on,,,,,79,0,0,,,,,0,,,93,0
103280,note_on,,,,,1,0,0,,,,,0,,,81,112
103359,note_on,,,,,79,0,0,,,,,0,,,81,0
103360,note_on,,,,,1,0,0,,,,,0,,,69,112
103435,note_on,,,,,75,0,0,,,,,0,,,69,0
103440,note_on,,,,,5,0,0,,,,,0,,,57,112
103518,note_on,,,,,78,0,0,,,,,0,,,57,0
103680,note_on,,,,,0,0,0,,,,,0,,,60,112
103680,note_on,,,,,162,0,0,,,,,0,,,57,112
103680,note_on,,,,,402,0,1,,,,,0,,,33,112
103680,note_on,,,,,0,0,1,,,,,0,,,45,112
103680,note_on,,,,,0,0,0,,,,,0,,,69,112
103758,note_on,,,,,78,0,0,,,,,0,,,57,0
103758,note_on,,,,,0,0,1,,,,,0,,,45,0
103758,note_on,,,,,78,0,1,,,,,0,,,33,0
103758,note_on,,,,,0,0,0,,,,,0,,,60,0
103758,note_on,,,,,0,0,0,,,,,0,,,69,0
103920,note_on,,,,,0,0,0,,,,,0,,,69,112
103920,note_on,,,,,162,0,0,,,,,0,,,57,112
103920,note_on,,,,,0,0,1,,,,,0,,,47,112
103920,note_on,,,,,0,0,0,,,,,0,,,62,112
103920,note_on,,,,,162,0,1,,,,,0,,,35,112
103998,note_on,,,,,0,0,0,,,,,0,,,62,0
103998,note_on,,,,,78,0,0,,,,,0,,,57,0
103998,note_on,,,,,0,0,1,,,,,0,,,47,0
103998,note_on,,,,,78,0,1,,,,,0,,,35,0
103998,note_on,,,,,0,0,0,,,,,0,,,69,0
104160,note_on,,,,,0,0,1,,,,,0,,,48,112
104160,note_on,,,,,0,0,0,,,,,0,,,69,112
104160,note_on,,,,,162,0,1,,,,,0,,,36,112
104160,note_on,,,,,0,0,0,,,,,0,,,64,112
104160,note_on,,,,,162,0,0,,,,,0,,,57,112
104238,note_on,,,,,78,0,0,,,,,0,,,57,0
104238,note_on,,,,,0,0,1,,,,,0,,,48,0
104238,note_on,,,,,78,0,1,,,,,0,,,36,0
104238,note_on,,,,,0,0,0,,,,,0,,,69,0
104238,note_on,,,,,0,0,0,,,,,0,,,64,0
104400,note_on,,,,,162,0,0,,,,,0,,,65,112
104400,note_on,,,,,162,0,1,,,,,0,,,38,112
104400,note_on,,,,,0,0,1,,,,,0,,,50,112
104400,note_on,,,,,0,0,0,,,,,0,,,57,127
104400,note_on,,,,,0,0,0,,,,,0,,,69,127
104478,note_on,,,,,78,0,1,,,,,0,,,38,0
104478,note_on,,,,,0,0,1,,,,,0,,,50,0
104478,note_on,,,,,78,0,0,,,,,0,,,65,0
104640,note_on,,,,,0,0,1,,,,,0,,,48,112
104640,note_on,,,,,162,0,0,,,,,0,,,64,112
104640,note_on,,,,,162,0,1,,,,,0,,,36,112
104718,note_on,,,,,78,0,0,,,,,0,,,64,0
104718,note_on,,,,,0,0,1,,,,,0,,,48,0
104718,note_on,,,,,78,0,1,,,,,0,,,36,0
104880,note_on,,,,,162,0,0,,,,,0,,,62,112
104880,note_on,,,,,0,0,1,,,,,0,,,47,112
104880,note_on,,,,,162,0,1,,,,,0,,,35,112
104958,note_on,,,,,78,0,1,,,,,0,,,35,0
104958,note_on,,,,,78,0,0,,,,,0,,,62,0
104958,note_on,,,,,0,0,1,,,,,0,,,47,0
105119,note_on,,,,,0,0,0,,,,,0,,,69,0
105119,note_on,,,,,161,0,0,,,,,0,,,57,0
105120,note_on,,,,,0,0,0,,,,,0,,,69,112
105120,note_on,,,,,162,0,1,,,,,0,,,38,112
105120,note_on,,,,,1,0,0,,,,,0,,,57,112
105120,note_on,,,,,0,0,1,,,,,0,,,50,112
105120,note_on,,,,,0,0,0,,,,,0,,,65,112
105198,note_on,,,,,78,0,1,,,,,0,,,38,0
105198,note_on,,,,,0,0,1,,,,,0,,,50,0
105198,note_on,,,,,0,0,0,,,,,0,,,69,0
105198,note_on,,,,,0,0,0,,,,,0,,,65,0
105198,note_on,,,,,78,0,0,,,,,0,,,57,0
105360,note_on,,,,,162,0,0,,,,,0,,,57,112
105360,note_on,,,,,162,0,1,,,,,0,,,36,112
105360,note_on,,,,,0,0,1,,,,,0,,,48,112
105360,note_on,,,,,0,0,0,,,,,0,,,64,112
105360,note_on,,,,,0,0,0,,,,,0,,,69,112
105438,note_on,,,,,0,0,1,,,,,0,,,48,0
105438,note_on,,,,,78,0,0,,,,,0,,,57,0
105438,note_on,,,,,78,0,1,,,,,0,,,36,0
105438,note_on,,,,,0,0,0,,,,,0,,,64,0
105438,note_on,,,,,0,0,0,,,,,0,,,69,0
105600,note_on,,,,,162,0,0,,,,,0,,,57,112
105600,note_on,,,,,0,0,1,,,,,0,,,47,112
105600,note_on,,,,,0,0,0,,,,,0,,,62,112
105600,note_on,,,,,0,0,0,,,,,0,,,69,112
105600,note_on,,,,,162,0,1,,,,,0,,,35,112
105678,note_on,,,,,78,0,0,,,,,0,,,57,0
105678,note_on,,,,,0,0,1,,,,,0,,,47,0
105678,note_on,,,,,78,0,1,,,,,0,,,35,0
105678,note_on,,,,,0,0,0,,,,,0,,,62,0
105678,note_on,,,,,0,0,0,,,,,0,,,69,0
105840,note_on,,,,,0,0,1,,,,,0,,,45,112
105840,note_on,,,,,162,0,0,,,,,0,,,57,112
105840,note_on,,,,,162,0,1,,,,,0,,,33,112
105842,control_change,,,,,2,0,0,,,64,127,0,,,,
105918,note_on,,,,,0,0,1,,,,,0,,,45,0
105918,note_on,,,,,78,0,1,,,,,0,,,33,0
105919,note_on,,,,,77,0,0,,,,,0,,,57,0
105920,note_on,,,,,1,0,0,,,,,0,,,69,112
105999,note_on,,,,,79,0,0,,,,,0,,,69,0
106000,note_on,,,,,1,0,0,,,,,0,,,81,112
106079,note_on,,,,,79,0,0,,,,,0,,,81,0
106080,note_on,,,,,162,0,1,,,,,0,,,52,112
106080,note_on,,,,,1,0,0,,,,,0,,,93,112
106080,note_on,,,,,0,0,1,,,,,0,,,60,112
106158,note_on,,,,,0,0,1,,,,,0,,,60,0
106158,note_on,,,,,78,0,1,,,,,0,,,52,0
106159,note_on,,,,,79,0,0,,,,,0,,,93,0
106160,note_on,,,,,1,0,0,,,,,0,,,81,112
106239,note_on,,,,,79,0,0,,,,,0,,,81,0
106240,note_on,,,,,1,0,0,,,,,0,,,69,112
106315,note_on,,,,,75,0,0,,,,,0,,,69,0
106320,note_on,,,,,5,0,0,,,,,0,,,57,112
106398,note_on,,,,,78,0,0,,,,,0,,,57,0
106560,note_on,,,,,0,0,1,,,,,0,,,45,82
106560,note_on,,,,,402,0,1,,,,,0,,,33,82
106560,note_on,,,,,162,0,0,,,,,0,,,60,82
106560,note_on,,,,,0,0,0,,,,,0,,,72,82
106560,note_on,,,,,0,0,0,,,,,0,,,69,82
106561,control_change,,,,,1,0,0,,,64,0,0,,,,
106638,note_on,,,,,77,0,0,,,,,0,,,60,0
106638,note_on,,,,,0,0,1,,,,,0,,,45,0
106638,note_on,,,,,0,0,0,,,,,0,,,69,0
106638,note_on,,,,,0,0,0,,,,,0,,,72,0
106638,note_on,,,,,78,0,1,,,,,0,,,33,0
106800,note_on,,,,,0,0,0,,,,,0,,,72,82
106800,note_on,,,,,0,0,0,,,,,0,,,69,82
106800,note_on,,,,,162,0,1,,,,,0,,,35,82
106800,note_on,,,,,0,0,1,,,,,0,,,47,82
106800,note_on,,,,,162,0,0,,,,,0,,,62,82
106878,note_on,,,,,0,0,0,,,,,0,,,72,0
106878,note_on,,,,,78,0,1,,,,,0,,,35,0
106878,note_on,,,,,78,0,0,,,,,0,,,62,0
106878,note_on,,,,,0,0,1,,,,,0,,,47,0
106878,note_on,,,,,0,0,0,,,,,0,,,69,0
107040,note_on,,,,,0,0,0,,,,,0,,,69,82
107040,note_on,,,,,0,0,0,,,,,0,,,72,82
107040,note_on,,,,,162,0,0,,,,,0,,,64,82
107040,note_on,,,,,0,0,1,,,,,0,,,48,82
107040,note_on,,,,,162,0,1,,,,,0,,,36,82
107118,note_on,,,,,78,0,1,,,,,0,,,36,0
107118,note_on,,,,,0,0,0,,,,,0,,,69,0
107118,note_on,,,,,0,0,0,,,,,0,,,72,0
107118,note_on,,,,,0,0,1,,,,,0,,,48,0
107118,note_on,,,,,78,0,0,,,,,0,,,64,0
107280,note_on,,,,,162,0,1,,,,,0,,,38,82
107280,note_on,,,,,0,0,0,,,,,0,,,69,98
107280,note_on,,,,,162,0,0,,,,,0,,,65,82
107280,note_on,,,,,0,0,1,,,,,0,,,50,82
107280,note_on,,,,,0,0,0,,,,,0,,,72,98
107358,note_on,,,,,78,0,0,,,,,0,,,65,0
107358,note_on,,,,,78,0,1,,,,,0,,,38,0
107358,note_on,,,,,0,0,1,,,,,0,,,50,0
107520,note_on,,,,,162,0,0,,,,,0,,,64,82
107520,note_on,,,,,0,0,1,,,,,0,,,48,82
107520,note_on,,,,,162,0,1,,,,,0,,,36,82
107598,note_on,,,,,0,0,1,,,,,0,,,48,0
107598,note_on,,,,,78,0,0,,,,,0,,,64,0
107598,note_on,,,,,78,0,1,,,,,0,,,36,0
107760,note_on,,,,,162,0,1,,,,,0,,,35,82
107760,note_on,,,,,162,0,0,,,,,0,,,62,82
107760,note_on,,,,,0,0,1,,,,,0,,,47,82
107838,note_on,,,,,78,0,1,,,,,0,,,35,0
107838,note_on,,,,,78,0,0,,,,,0,,,62,0
107838,note_on,,,,,0,0,1,,,,,0,,,47,0
107999,note_on,,,,,161,0,0,,,,,0,,,69,0
107999,note_on,,,,,0,0,0,,,,,0,,,72,0
108000,note_on,,,,,162,0,1,,,,,0,,,38,82
108000,note_on,,,,,0,0,1,,,,,0,,,50,82
108000,note_on,,,,,0,0,0,,,,,0,,,69,82
108000,note_on,,,,,0,0,0,,,,,0,,,72,82
108000,note_on,,,,,1,0,0,,,,,0,,,65,82
108078,note_on,,,,,78,0,0,,,,,0,,,69,0
108078,note_on,,,,,0,0,1,,,,,0,,,50,0
108078,note_on,,,,,78,0,1,,,,,0,,,38,0
108078,note_on,,,,,0,0,0,,,,,0,,,72,0
108227,note_on,,,,,149,0,0,,,,,0,,,65,0
108240,note_on,,,,,162,0,1,,,,,0,,,36,92
108240,note_on,,,,,0,0,0,,,,,0,,,72,92
108240,note_on,,,,,0,0,0,,,,,0,,,69,92
108240,note_on,,,,,0,0,1,,,,,0,,,48,92
108240,note_on,,,,,13,0,0,,,,,0,,,64,92
108318,note_on,,,,,0,0,1,,,,,0,,,48,0
108318,note_on,,,,,78,0,1,,,,,0,,,36,0
108318,note_on,,,,,0,0,0,,,,,0,,,72,0
108318,note_on,,,,,78,0,0,,,,,0,,,69,0
108467,note_on,,,,,149,0,0,,,,,0,,,64,0
108480,note_on,,,,,0,0,0,,,,,0,,,72,102
108480,note_on,,,,,0,0,0,,,,,0,,,69,102
108480,note_on,,,,,0,0,1,,,,,0,,,47,102
108480,note_on,,,,,162,0,1,,,,,0,,,35,102
108480,note_on,,,,,13,0,0,,,,,0,,,62,102
108558,note_on,,,,,78,0,1,,,,,0,,,35,0
108558,note_on,,,,,0,0,0,,,,,0,,,72,0
108558,note_on,,,,,0,0,1,,,,,0,,,47,0
108558,note_on,,,,,78,0,0,,,,,0,,,69,0
108707,note_on,,,,,149,0,0,,,,,0,,,62,0
108720,note_on,,,,,0,0,1,,,,,0,,,45,112
108720,note_on,,,,,162,0,1,,,,,0,,,33,112
108720,note_on,,,,,13,0,0,,,,,0,,,60,112
108722,control_change,,,,,2,0,0,,,64,127,0,,,,
108798,note_on,,,,,0,0,1,,,,,0,,,45,0
108798,note_on,,,,,78,0,1,,,,,0,,,33,0
108799,note_on,,,,,77,0,0,,,,,0,,,60,0
108800,note_on,,,,,0,0,0,,,,,0,,,72,112
108800,note_on,,,,,1,0,0,,,,,0,,,69,112
108879,note_on,,,,,0,0,0,,,,,0,,,72,0
108879,note_on,,,,,79,0,0,,,,,0,,,69,0
108880,note_on,,,,,1,0,0,,,,,0,,,84,112
108959,note_on,,,,,79,0,0,,,,,0,,,84,0
108960,note_on,,,,,0,0,1,,,,,0,,,64,112
108960,note_on,,,,,0,0,1,,,,,0,,,57,112
108960,note_on,,,,,0,0,0,,,,,0,,,96,112
108960,note_on,,,,,162,0,1,,,,,0,,,52,112
108960,note_on,,,,,1,0,0,,,,,0,,,93,112
109038,note_on,,,,,78,0,1,,,,,0,,,52,0
109038,note_on,,,,,0,0,1,,,,,0,,,57,0
109038,note_on,,,,,0,0,1,,,,,0,,,64,0
109039,note_on,,,,,79,0,0,,,,,0,,,93,0
109039,note_on,,,,,0,0,0,,,,,0,,,96,0
109040,note_on,,,,,1,0,0,,,,,0,,,84,112
109119,note_on,,,,,79,0,0,,,,,0,,,84,0
109120,note_on,,,,,1,0,0,,,,,0,,,69,112
109120,note_on,,,,,0,0,0,,,,,0,,,72,112
109195,note_on,,,,,75,0,0,,,,,0,,,69,0
109195,note_on,,,,,0,0,0,,,,,0,,,72,0
109200,note_on,,,,,5,0,0,,,,,0,,,60,112
109278,note_on,,,,,78,0,0,,,,,0,,,60,0
109440,note_on,,,,,162,0,0,,,,,0,,,60,80
109440,note_on,,,,,0,0,0,,,,,0,,,76,80
109440,note_on,,,,,0,0,0,,,,,0,,,72,80
109440,note_on,,,,,0,0,1,,,,,0,,,45,80
109440,note_on,,,,,402,0,1,,,,,0,,,33,80
109441,control_change,,,,,1,0,0,,,64,0,0,,,,
109518,note_on,,,,,78,0,1,,,,,0,,,33,0
109518,note_on,,,,,0,0,0,,,,,0,,,72,0
109518,note_on,,,,,0,0,0,,,,,0,,,76,0
109518,note_on,,,,,0,0,1,,,,,0,,,45,0
109518,note_on,,,,,77,0,0,,,,,0,,,60,0
109680,note_on,,,,,0,0,1,,,,,0,,,47,80
109680,note_on,,,,,0,0,0,,,,,0,,,72,80
109680,note_on,,,,,0,0,0,,,,,0,,,76,80
109680,note_on,,,,,162,0,0,,,,,0,,,62,80
109680,note_on,,,,,162,0,1,,,,,0,,,35,80
109758,note_on,,,,,78,0,1,,,,,0,,,35,0
109758,note_on,,,,,0,0,0,,,,,0,,,72,0
109758,note_on,,,,,78,0,0,,,,,0,,,62,0
109758,note_on,,,,,0,0,1,,,,,0,,,47,0
109758,note_on,,,,,0,0,0,,,,,0,,,76,0
109920,note_on,,,,,0,0,1,,,,,0,,,48,80
109920,note_on,,,,,0,0,0,,,,,0,,,76,80
109920,note_on,,,,,0,0,0,,,,,0,,,72,80
109920,note_on,,,,,162,0,0,,,,,0,,,64,80
109920,note_on,,,,,162,0,1,,,,,0,,,36,80
109998,note_on,,,,,0,0,0,,,,,0,,,76,0
109998,note_on,,,,,0,0,0,,,,,0,,,72,0
109998,note_on,,,,,78,0,0,,,,,0,,,64,0
109998,note_on,,,,,0,0,1,,,,,0,,,48,0
109998,note_on,,,,,78,0,1,,,,,0,,,36,0
110160,note_on,,,,,0,0,1,,,,,0,,,50,80
110160,note_on,,,,,0,0,0,,,,,0,,,72,96
110160,note_on,,,,,0,0,0,,,,,0,,,76,96
110160,note_on,,,,,162,0,0,,,,,0,,,65,80
110160,note_on,,,,,162,0,1,,,,,0,,,38,80
110238,note_on,,,,,78,0,0,,,,,0,,,65,0
110238,note_on,,,,,78,0,1,,,,,0,,,38,0
110238,note_on,,,,,0,0,1,,,,,0,,,50,0
110400,note_on,,,,,162,0,1,,,,,0,,,36,82
110400,note_on,,,,,0,0,1,,,,,0,,,48,82
110400,note_on,,,,,162,0,0,,,,,0,,,64,82
110478,note_on,,,,,78,0,1,,,,,0,,,36,0
110478,note_on,,,,,0,0,1,,,,,0,,,48,0
110478,note_on,,,,,78,0,0,,,,,0,,,64,0
110640,note_on,,,,,0,0,1,,,,,0,,,47,84
110640,note_on,,,,,162,0,1,,,,,0,,,35,84
110640,note_on,,,,,162,0,0,,,,,0,,,62,84
110718,note_on,,,,,78,0,0,,,,,0,,,62,0
110718,note_on,,,,,78,0,1,,,,,0,,,35,0
110718,note_on,,,,,0,0,1,,,,,0,,,47,0
110879,note_on,,,,,161,0,0,,,,,0,,,72,0
110879,note_on,,,,,0,0,0,,,,,0,,,76,0
110880,note_on,,,,,0,0,0,,,,,0,,,72,86
110880,note_on,,,,,0,0,0,,,,,0,,,76,86
110880,note_on,,,,,162,0,1,,,,,0,,,38,86
110880,note_on,,,,,1,0,0,,,,,0,,,65,86
110880,note_on,,,,,0,0,1,,,,,0,,,50,86
110958,note_on,,,,,78,0,1,,,,,0,,,38,0
110958,note_on,,,,,0,0,0,,,,,0,,,76,0
110958,note_on,,,,,78,0,0,,,,,0,,,72,0
110958,note_on,,,,,0,0,1,,,,,0,,,50,0
111107,note_on,,,,,149,0,0,,,,,0,,,65,0
111120,note_on,,,,,0,0,0,,,,,0,,,76,89
111120,note_on,,,,,0,0,0,,,,,0,,,72,89
111120,note_on,,,,,13,0,0,,,,,0,,,64,89
111120,note_on,,,,,162,0,1,,,,,0,,,36,89
111120,note_on,,,,,0,0,1,,,,,0,,,48,89
111198,note_on,,,,,78,0,1,,,,,0,,,36,0
111198,note_on,,,,,0,0,0,,,,,0,,,76,0
111198,note_on,,,,,78,0,0,,,,,0,,,72,0
111198,note_on,,,,,0,0,1,,,,,0,,,48,0
111347,note_on,,,,,149,0,0,,,,,0,,,64,0
111360,note_on,,,,,0,0,0,,,,,0,,,72,91
111360,note_on,,,,,0,0,1,,,,,0,,,47,91
111360,note_on,,,,,0,0,0,,,,,0,,,76,91
111360,note_on,,,,,13,0,0,,,,,0,,,62,91
111360,note_on,,,,,162,0,1,,,,,0,,,35,91
111438,note_on,,,,,78,0,0,,,,,0,,,72,0
111438,note_on,,,,,0,0,1,,,,,0,,,47,0
111438,note_on,,,,,78,0,1,,,,,0,,,35,0
111438,note_on,,,,,0,0,0,,,,,0,,,76,0
111587,note_on,,,,,149,0,0,,,,,0,,,62,0
111600,note_on,,,,,0,0,1,,,,,0,,,50,93
111600,note_on,,,,,0,0,0,,,,,0,,,69,111
111600,note_on,,,,,13,0,0,,,,,0,,,72,93
111600,note_on,,,,,0,0,0,,,,,0,,,81,111
111600,note_on,,,,,162,0,1,,,,,0,,,38,93
111678,note_on,,,,,78,0,1,,,,,0,,,38,0
111678,note_on,,,,,0,0,1,,,,,0,,,50,0
111678,note_on,,,,,78,0,0,,,,,0,,,72,0
111840,note_on,,,,,162,0,1,,,,,0,,,36,96
111840,note_on,,,,,0,0,1,,,,,0,,,48,96
111840,note_on,,,,,162,0,0,,,,,0,,,74,96
111918,note_on,,,,,0,0,1,,,,,0,,,48,0
111918,note_on,,,,,78,0,0,,,,,0,,,74,0
111918,note_on,,,,,78,0,1,,,,,0,,,36,0
112080,note_on,,,,,162,0,0,,,,,0,,,76,98
112080,note_on,,,,,162,0,1,,,,,0,,,35,98
112080,note_on,,,,,0,0,1,,,,,0,,,47,98
112081,note_on,,,,,0,0,0,,,,,0,,,81,0
112081,note_on,,,,,1,0,0,,,,,0,,,69,0
112158,note_on,,,,,78,0,1,,,,,0,,,35,0
112158,note_on,,,,,77,0,0,,,,,0,,,76,0
112158,note_on,,,,,0,0,1,,,,,0,,,47,0
112320,note_on,,,,,0,0,0,,,,,0,,,81,100
112320,note_on,,,,,0,0,0,,,,,0,,,84,100
112320,note_on,,,,,162,0,1,,,,,0,,,38,100
112320,note_on,,,,,0,0,1,,,,,0,,,50,100
112320,note_on,,,,,162,0,0,,,,,0,,,77,100
112398,note_on,,,,,0,0,1,,,,,0,,,50,0
112398,note_on,,,,,0,0,0,,,,,0,,,84,0
112398,note_on,,,,,78,0,1,,,,,0,,,38,0
112398,note_on,,,,,78,0,0,,,,,0,,,81,0
112547,note_on,,,,,149,0,0,,,,,0,,,77,0
112560,note_on,,,,,162,0,1,,,,,0,,,36,102
112560,note_on,,,,,0,0,0,,,,,0,,,84,102
112560,note_on,,,,,13,0,0,,,,,0,,,76,102
112560,note_on,,,,,0,0,1,,,,,0,,,48,102
112560,note_on,,,,,0,0,0,,,,,0,,,81,102
112638,note_on,,,,,78,0,1,,,,,0,,,36,0
112638,note_on,,,,,0,0,0,,,,,0,,,84,0
112638,note_on,,,,,0,0,1,,,,,0,,,48,0
112638,note_on,,,,,78,0,0,,,,,0,,,81,0
112787,note_on,,,,,149,0,0,,,,,0,,,76,0
112800,note_on,,,,,162,0,1,,,,,0,,,35,105
112800,note_on,,,,,13,0,0,,,,,0,,,74,105
112800,note_on,,,,,0,0,0,,,,,0,,,84,105
112800,note_on,,,,,0,0,0,,,,,0,,,81,105
112800,note_on,,,,,0,0,1,,,,,0,,,47,105
112878,note_on,,,,,78,0,1,,,,,0,,,35,0
112878,note_on,,,,,0,0,0,,,,,0,,,84,0
112878,note_on,,,,,0,0,1,,,,,0,,,47,0
112878,note_on,,,,,78,0,0,,,,,0,,,81,0
113027,note_on,,,,,149,0,0,,,,,0,,,74,0
113040,note_on,,,,,13,0,0,,,,,0,,,72,107
113040,note_on,,,,,0,0,1,,,,,0,,,50,107
113040,note_on,,,,,162,0,1,,,,,0,,,38,107
113040,note_on,,,,,0,0,0,,,,,0,,,84,127
113040,note_on,,,,,0,0,0,,,,,0,,,88,127
113118,note_on,,,,,78,0,1,,,,,0,,,38,0
113118,note_on,,,,,0,0,1,,,,,0,,,50,0
113118,note_on,,,,,78,0,0,,,,,0,,,72,0
113280,note_on,,,,,0,0,1,,,,,0,,,48,109
113280,note_on,,,,,162,0,1,,,,,0,,,36,109
113280,note_on,,,,,162,0,0,,,,,0,,,74,109
113358,note_on,,,,,78,0,0,,,,,0,,,74,0
113358,note_on,,,,,0,0,1,,,,,0,,,48,0
113358,note_on,,,,,78,0,1,,,,,0,,,36,0
113520,note_on,,,,,162,0,0,,,,,0,,,76,112
113520,note_on,,,,,162,0,1,,,,,0,,,35,112
113520,note_on,,,,,0,0,1,,,,,0,,,47,112
113521,note_on,,,,,1,0,0,,,,,0,,,84,0
113521,note_on,,,,,0,0,0,,,,,0,,,88,0
113598,note_on,,,,,78,0,1,,,,,0,,,35,0
113598,note_on,,,,,77,0,0,,,,,0,,,76,0
113598,note_on,,,,,0,0,1,,,,,0,,,47,0
113760,note_on,,,,,0,0,0,,,,,0,,,93,112
113760,note_on,,,,,0,0,0,,,,,0,,,89,112
113760,note_on,,,,,162,0,0,,,,,0,,,81,112
113760,note_on,,,,,0,0,1,,,,,0,,,50,112
113760,note_on,,,,,162,0,1,,,,,0,,,38,112
113838,note_on,,,,,78,0,1,,,,,0,,,38,0
113838,note_on,,,,,0,0,0,,,,,0,,,89,0
113838,note_on,,,,,78,0,0,,,,,0,,,81,0
113838,note_on,,,,,0,0,0,,,,,0,,,93,0
113838,note_on,,,,,0,0,1,,,,,0,,,50,0
114000,note_on,,,,,162,0,1,,,,,0,,,36,112
114000,note_on,,,,,0,0,0,,,,,0,,,88,112
114000,note_on,,,,,0,0,1,,,,,0,,,48,112
114000,note_on,,,,,0,0,0,,,,,0,,,93,112
114000,note_on,,,,,162,0,0,,,,,0,,,81,112
114078,note_on,,,,,0,0,0,,,,,0,,,88,0
114078,note_on,,,,,78,0,0,,,,,0,,,81,0
114078,note_on,,,,,78,0,1,,,,,0,,,36,0
114078,note_on,,,,,0,0,1,,,,,0,,,48,0
114078,note_on,,,,,0,0,0,,,,,0,,,93,0
114240,note_on,,,,,0,0,0,,,,,0,,,93,112
114240,note_on,,,,,0,0,1,,,,,0,,,47,112
114240,note_on,,,,,162,0,0,,,,,0,,,81,112
114240,note_on,,,,,162,0,1,,,,,0,,,35,112
114240,note_on,,,,,0,0,0,,,,,0,,,86,112
114318,note_on,,,,,78,0,1,,,,,0,,,35,0
114318,note_on,,,,,0,0,0,,,,,0,,,86,0
114318,note_on,,,,,0,0,0,,,,,0,,,93,0
114318,note_on,,,,,0,0,1,,,,,0,,,47,0
114318,note_on,,,,,78,0,0,,,,,0,,,81,0
114480,note_on,,,,,0,0,1,,,,,0,,,40,112
114480,note_on,,,,,0,0,0,,,,,0,,,96,112
114480,note_on,,,,,0,0,0,,,,,0,,,93,112
114480,note_on,,,,,0,0,0,,,,,0,,,84,112
114480,note_on,,,,,0,0,1,,,,,0,,,45,112
114480,set_tempo,,,,,162,1,0,,333333,,,,,,,
114480,note_on,,,,,162,0,1,,,,,0,,,33,112
114482,control_change,,,,,2,0,0,,,64,127,0,,,,
114558,note_on,,,,,76,0,0,,,,,0,,,84,0
114558,note_on,,,,,78,0,1,,,,,0,,,33,0
114558,note_on,,,,,0,0,1,,,,,0,,,40,0
114558,note_on,,,,,0,0,0,,,,,0,,,96,0
114558,note_on,,,,,0,0,0,,,,,0,,,93,0
114558,note_on,,,,,0,0,1,,,,,0,,,45,0
114720,note_on,,,,,162,0,0,,,,,0,,,76,112
114720,note_on,,,,,162,0,1,,,,,0,,,64,112
114798,note_on,,,,,78,0,0,,,,,0,,,76,0
114798,note_on,,,,,78,0,1,,,,,0,,,64,0
114960,note_on,,,,,162,0,0,,,,,0,,,76,112
114960,note_on,,,,,162,0,1,,,,,0,,,64,112
115038,note_on,,,,,78,0,1,,,,,0,,,64,0
115038,note_on,,,,,78,0,0,,,,,0,,,76,0
115200,note_on,,,,,162,0,0,,,,,0,,,76,112
115200,note_on,,,,,0,0,0,,,,,0,,,77,112
115200,note_on,,,,,162,0,1,,,,,0,,,64,112
115200,note_on,,,,,0,0,1,,,,,0,,,65,112
115278,note_on,,,,,78,0,0,,,,,0,,,76,0
115278,note_on,,,,,0,0,0,,,,,0,,,77,0
115278,note_on,,,,,78,0,1,,,,,0,,,64,0
115278,note_on,,,,,0,0,1,,,,,0,,,65,0
115440,note_on,,,,,0,0,1,,,,,0,,,65,112
115440,note_on,,,,,0,0,0,,,,,0,,,77,112
115440,note_on,,,,,162,0,0,,,,,0,,,76,112
115440,note_on,,,,,162,0,1,,,,,0,,,64,112
115518,note_on,,,,,0,0,0,,,,,0,,,77,0
115518,note_on,,,,,78,0,1,,,,,0,,,64,0
115518,note_on,,,,,0,0,1,,,,,0,,,65,0
115518,note_on,,,,,78,0,0,,,,,0,,,76,0
115680,note_on,,,,,0,0,1,,,,,0,,,65,112
115680,note_on,,,,,0,0,0,,,,,0,,,77,112
115680,note_on,,,,,162,0,0,,,,,0,,,75,112
115680,note_on,,,,,162,0,1,,,,,0,,,63,112
115758,note_on,,,,,78,0,0,,,,,0,,,75,0
115758,note_on,,,,,78,0,1,,,,,0,,,63,0
115758,note_on,,,,,0,0,1,,,,,0,,,65,0
115758,note_on,,,,,0,0,0,,,,,0,,,77,0
115920,note_on,,,,,162,0,0,,,,,0,,,89,112
115920,note_on,,,,,162,0,1,,,,,0,,,40,112
115920,note_on,,,,,0,0,0,,,,,0,,,94,112
115920,note_on,,,,,0,0,0,,,,,0,,,101,112
115921,control_change,,,,,1,0,0,,,64,0,0,,,,
115922,control_change,,,,,1,0,0,,,64,127,0,,,,
115983,note_on,,,,,63,0,1,,,,,0,,,50,112
115998,note_on,,,,,76,0,0,,,,,0,,,89,0
115998,note_on,,,,,0,0,0,,,,,0,,,101,0
115998,note_on,,,,,0,0,0,,,,,0,,,94,0
116047,note_on,,,,,64,0,1,,,,,0,,,53,112
116158,note_on,,,,,0,0,1,,,,,0,,,53,0
116158,note_on,,,,,111,0,1,,,,,0,,,50,0
116159,note_on,,,,,1,0,1,,,,,0,,,40,0
116160,note_on,,,,,0,0,0,,,,,0,,,77,112
116160,note_on,,,,,0,0,1,,,,,0,,,65,112
116160,note_on,,,,,162,0,0,,,,,0,,,74,112
116160,note_on,,,,,1,0,1,,,,,0,,,62,112
116238,note_on,,,,,0,0,0,,,,,0,,,77,0
116238,note_on,,,,,78,0,0,,,,,0,,,74,0
116387,note_on,,,,,0,0,1,,,,,0,,,65,0
116387,note_on,,,,,227,0,1,,,,,0,,,62,0
116400,note_on,,,,,13,0,1,,,,,0,,,62,112
116400,note_on,,,,,162,0,0,,,,,0,,,74,112
116400,note_on,,,,,0,0,1,,,,,0,,,65,112
116400,note_on,,,,,0,0,1,,,,,0,,,70,112
116400,note_on,,,,,0,0,0,,,,,0,,,77,112
116400,note_on,,,,,0,0,0,,,,,0,,,82,112
116478,note_on,,,,,78,0,0,,,,,0,,,74,0
116478,note_on,,,,,0,0,0,,,,,0,,,77,0
116478,note_on,,,,,0,0,0,,,,,0,,,82,0
116627,note_on,,,,,0,0,1,,,,,0,,,65,0
116627,note_on,,,,,0,0,1,,,,,0,,,70,0
116627,note_on,,,,,227,0,1,,,,,0,,,62,0
116640,note_on,,,,,0,0,0,,,,,0,,,81,112
116640,note_on,,,,,162,0,0,,,,,0,,,72,112
116640,note_on,,,,,0,0,0,,,,,0,,,77,112
116640,note_on,,,,,0,0,1,,,,,0,,,69,112
116640,note_on,,,,,0,0,1,,,,,0,,,65,112
116640,note_on,,,,,13,0,1,,,,,0,,,60,112
116718,note_on,,,,,78,0,0,,,,,0,,,72,0
116718,note_on,,,,,0,0,0,,,,,0,,,77,0
116718,note_on,,,,,0,0,0,,,,,0,,,81,0
116867,note_on,,,,,227,0,1,,,,,0,,,60,0
116867,note_on,,,,,0,0,1,,,,,0,,,65,0
116867,note_on,,,,,0,0,1,,,,,0,,,69,0
116880,note_on,,,,,13,0,1,,,,,0,,,59,112
116880,note_on,,,,,162,0,0,,,,,0,,,71,112
116880,note_on,,,,,0,0,0,,,,,0,,,74,112
116880,note_on,,,,,0,0,0,,,,,0,,,77,112
116880,note_on,,,,,0,0,0,,,,,0,,,80,112
116880,note_on,,,,,0,0,1,,,,,0,,,62,112
116880,note_on,,,,,0,0,1,,,,,0,,,65,112
116880,note_on,,,,,0,0,1,,,,,0,,,68,112
116958,note_on,,,,,0,0,0,,,,,0,,,77,0
116958,note_on,,,,,0,0,0,,,,,0,,,80,0
116958,note_on,,,,,78,0,0,,,,,0,,,71,0
116958,note_on,,,,,0,0,0,,,,,0,,,74,0
117107,note_on,,,,,0,0,1,,,,,0,,,62,0
117107,note_on,,,,,0,0,1,,,,,0,,,65,0
117107,note_on,,,,,0,0,1,,,,,0,,,68,0
117107,note_on,,,,,227,0,1,,,,,0,,,59,0
117120,note_on,,,,,162,0,0,,,,,0,,,68,112
117120,note_on,,,,,0,0,1,,,,,0,,,64,112
117120,note_on,,,,,0,0,0,,,,,0,,,71,112
117120,note_on,,,,,13,0,1,,,,,0,,,56,112
117120,note_on,,,,,0,0,1,,,,,0,,,59,112
117120,note_on,,,,,0,0,0,,,,,0,,,76,112
117121,control_change,,,,,1,0,0,,,64,0,0,,,,
117198,note_on,,,,,0,0,0,,,,,0,,,76,0
117198,note_on,,,,,77,0,0,,,,,0,,,68,0
117198,note_on,,,,,0,0,0,,,,,0,,,71,0
117347,note_on,,,,,0,0,1,,,,,0,,,64,0
117347,note_on,,,,,0,0,1,,,,,0,,,59,0
117347,note_on,,,,,227,0,1,,,,,0,,,56,0
117360,note_on,,,,,0,0,0,,,,,0,,,96,112
117360,note_on,,,,,0,0,1,,,,,0,,,52,112
117360,note_on,,,,,0,0,0,,,,,0,,,93,112
117360,note_on,,,,,0,0,1,,,,,0,,,57,112
117360,note_on,,,,,162,0,0,,,,,0,,,84,112
117360,note_on,,,,,13,0,1,,,,,0,,,45,112
117362,control_change,,,,,2,0,0,,,64,127,0,,,,
117438,note_on,,,,,76,0,0,,,,,0,,,84,0
117438,note_on,,,,,0,0,0,,,,,0,,,96,0
117438,note_on,,,,,0,0,1,,,,,0,,,52,0
117438,note_on,,,,,0,0,1,,,,,0,,,57,0
117438,note_on,,,,,0,0,0,,,,,0,,,93,0
117438,note_on,,,,,78,0,1,,,,,0,,,45,0
117600,note_on,,,,,162,0,0,,,,,0,,,88,112
117600,note_on,,,,,162,0,1,,,,,0,,,64,112
117678,note_on,,,,,78,0,1,,,,,0,,,64,0
117678,note_on,,,,,78,0,0,,,,,0,,,88,0
117840,note_on,,,,,162,0,0,,,,,0,,,88,112
117840,note_on,,,,,162,0,1,,,,,0,,,64,112
117918,note_on,,,,,78,0,0,,,,,0,,,88,0
117918,note_on,,,,,78,0,1,,,,,0,,,64,0
118080,note_on,,,,,162,0,1,,,,,0,,,64,112
118080,note_on,,,,,0,0,1,,,,,0,,,65,112
118080,note_on,,,,,0,0,0,,,,,0,,,89,112
118080,note_on,,,,,162,0,0,,,,,0,,,88,112
118158,note_on,,,,,0,0,1,,,,,0,,,65,0
118158,note_on,,,,,0,0,0,,,,,0,,,89,0
118158,note_on,,,,,78,0,1,,,,,0,,,64,0
118158,note_on,,,,,78,0,0,,,,,0,,,88,0
118320,note_on,,,,,0,0,1,,,,,0,,,65,112
118320,note_on,,,,,162,0,1,,,,,0,,,64,112
118320,note_on,,,,,0,0,0,,,,,0,,,89,112
118320,note_on,,,,,162,0,0,,,,,0,,,88,112
118398,note_on,,,,,78,0,1,,,,,0,,,64,0
118398,note_on,,,,,78,0,0,,,,,0,,,88,0
118398,note_on,,,,,0,0,0,,,,,0,,,89,0
118398,note_on,,,,,0,0,1,,,,,0,,,65,0
118560,note_on,,,,,162,0,0,,,,,0,,,87,112
118560,note_on,,,,,162,0,1,,,,,0,,,63,112
118560,note_on,,,,,0,0,1,,,,,0,,,65,112
118560,note_on,,,,,0,0,0,,,,,0,,,89,112
118638,note_on,,,,,78,0,1,,,,,0,,,63,0
118638,note_on,,,,,0,0,1,,,,,0,,,65,0
118638,note_on,,,,,78,0,0,,,,,0,,,87,0
118638,note_on,,,,,0,0,0,,,,,0,,,89,0
118800,note_on,,,,,162,0,0,,,,,0,,,89,112
118800,note_on,,,,,0,0,0,,,,,0,,,101,112
118800,note_on,,,,,0,0,0,,,,,0,,,94,112
118800,note_on,,,,,162,0,1,,,,,0,,,40,112
118801,control_change,,,,,1,0,0,,,64,0,0,,,,
118802,control_change,,,,,1,0,0,,,64,127,0,,,,
118863,note_on,,,,,63,0,1,,,,,0,,,50,112
118878,note_on,,,,,76,0,0,,,,,0,,,89,0
118878,note_on,,,,,0,0,0,,,,,0,,,94,0
118878,note_on,,,,,0,0,0,,,,,0,,,101,0
118927,note_on,,,,,64,0,1,,,,,0,,,53,112
119038,note_on,,,,,0,0,1,,,,,0,,,53,0
119038,note_on,,,,,111,0,1,,,,,0,,,50,0
119039,note_on,,,,,1,0,1,,,,,0,,,40,0
119040,note_on,,,,,0,0,1,,,,,0,,,65,112
119040,note_on,,,,,0,0,0,,,,,0,,,77,112
119040,note_on,,,,,162,0,0,,,,,0,,,74,112
119040,note_on,,,,,1,0,1,,,,,0,,,62,112
119118,note_on,,,,,0,0,0,,,,,0,,,77,0
119118,note_on,,,,,78,0,0,,,,,0,,,74,0
119267,note_on,,,,,227,0,1,,,,,0,,,62,0
119267,note_on,,,,,0,0,1,,,,,0,,,65,0
119280,note_on,,,,,0,0,0,,,,,0,,,77,112
119280,note_on,,,,,13,0,1,,,,,0,,,62,112
119280,note_on,,,,,162,0,0,,,,,0,,,74,112
119280,note_on,,,,,0,0,0,,,,,0,,,82,112
119280,note_on,,,,,0,0,1,,,,,0,,,65,112
119280,note_on,,,,,0,0,1,,,,,0,,,70,112
119358,note_on,,,,,78,0,0,,,,,0,,,74,0
119358,note_on,,,,,0,0,0,,,,,0,,,82,0
119358,note_on,,,,,0,0,0,,,,,0,,,77,0
119507,note_on,,,,,227,0,1,,,,,0,,,62,0
119507,note_on,,,,,0,0,1,,,,,0,,,70,0
119507,note_on,,,,,0,0,1,,,,,0,,,65,0
119520,note_on,,,,,13,0,1,,,,,0,,,60,112
119520,note_on,,,,,0,0,0,,,,,0,,,81,112
119520,note_on,,,,,0,0,0,,,,,0,,,77,112
119520,note_on,,,,,162,0,0,,,,,0,,,72,112
119520,note_on,,,,,0,0,1,,,,,0,,,65,112
119520,note_on,,,,,0,0,1,,,,,0,,,69,112
119598,note_on,,,,,78,0,0,,,,,0,,,72,0
119598,note_on,,,,,0,0,0,,,,,0,,,77,0
119598,note_on,,,,,0,0,0,,,,,0,,,81,0
119747,note_on,,,,,227,0,1,,,,,0,,,60,0
119747,note_on,,,,,0,0,1,,,,,0,,,65,0
119747,note_on,,,,,0,0,1,,,,,0,,,69,0
119760,note_on,,,,,0,0,0,,,,,0,,,77,112
119760,note_on,,,,,0,0,0,,,,,0,,,80,112
119760,note_on,,,,,13,0,1,,,,,0,,,59,112
119760,note_on,,,,,0,0,1,,,,,0,,,62,112
119760,note_on,,,,,0,0,1,,,,,0,,,65,112
119760,note_on,,,,,0,0,0,,,,,0,,,74,112
119760,note_on,,,,,162,0,0,,,,,0,,,71,112
119760,note_on,,,,,0,0,1,,,,,0,,,68,112
119838,note_on,,,,,78,0,0,,,,,0,,,71,0
119838,note_on,,,,,0,0,0,,,,,0,,,74,0
119838,note_on,,,,,0,0,0,,,,,0,,,80,0
119838,note_on,,,,,0,0,0,,,,,0,,,77,0
119987,note_on,,,,,0,0,1,,,,,0,,,65,0
119987,note_on,,,,,227,0,1,,,,,0,,,59,0
119987,note_on,,,,,0,0,1,,,,,0,,,62,0
119987,note_on,,,,,0,0,1,,,,,0,,,68,0
120000,note_on,,,,,0,0,0,,,,,0,,,71,112
120000,note_on,,,,,162,0,0,,,,,0,,,68,112
120000,note_on,,,,,0,0,1,,,,,0,,,59,112
120000,note_on,,,,,0,0,1,,,,,0,,,64,112
120000,note_on,,,,,13,0,1,,,,,0,,,56,112
120000,note_on,,,,,0,0,0,,,,,0,,,76,112
120001,control_change,,,,,1,0,0,,,64,0,0,,,,
120078,note_on,,,,,77,0,0,,,,,0,,,68,0
120078,note_on,,,,,0,0,0,,,,,0,,,71,0
120078,note_on,,,,,0,0,0,,,,,0,,,76,0
120227,note_on,,,,,0,0,1,,,,,0,,,64,0
120227,note_on,,,,,227,0,1,,,,,0,,,56,0
120227,note_on,,,,,0,0,1,,,,,0,,,59,0
120240,note_on,,,,,0,0,0,,,,,0,,,96,127
120240,note_on,,,,,0,0,0,,,,,0,,,88,127
120240,note_on,,,,,162,0,0,,,,,0,,,84,127
120399,note_on,,,,,0,0,0,,,,,0,,,96,0
120399,note_on,,,,,0,0,0,,,,,0,,,88,0
120399,note_on,,,,,159,0,0,,,,,0,,,84,0
120480,note_on,,,,,0,0,0,,,,,0,,,57,127
120480,note_on,,,,,0,0,0,,,,,0,,,52,127
120480,note_on,,,,,81,0,0,,,,,0,,,45,127
120639,note_on,,,,,159,0,0,,,,,0,,,45,0
120639,note_on,,,,,0,0,0,,,,,0,,,52,0
120639,note_on,,,,,0,0,0,,,,,0,,,57,0
120720,note_on,,,,,0,0,0,,,,,0,,,76,127
120720,note_on,,,,,0,0,0,,,,,0,,,85,127
120720,note_on,,,,,0,0,0,,,,,0,,,82,127
120720,note_on,,,,,81,0,0,,,,,0,,,73,127
120879,note_on,,,,,0,0,0,,,,,0,,,85,0
120879,note_on,,,,,0,0,0,,,,,0,,,82,0
120879,note_on,,,,,159,0,0,,,,,0,,,73,0
120879,note_on,,,,,0,0,0,,,,,0,,,76,0
120960,note_on,,,,,81,0,0,,,,,0,,,61,127
120960,note_on,,,,,0,0,0,,,,,0,,,67,127
120960,note_on,,,,,0,0,0,,,,,0,,,70,127
121119,note_on,,,,,159,0,0,,,,,0,,,61,0
121119,note_on,,,,,0,0,0,,,,,0,,,70,0
121119,note_on,,,,,0,0,0,,,,,0,,,67,0
121200,note_on,,,,,81,0,0,,,,,0,,,86,127
121200,note_on,,,,,0,0,0,,,,,0,,,97,127
121200,note_on,,,,,0,0,0,,,,,0,,,90,127
121359,note_on,,,,,0,0,0,,,,,0,,,90,0
121359,note_on,,,,,159,0,0,,,,,0,,,86,0
121359,note_on,,,,,0,0,0,,,,,0,,,97,0
121440,note_on,,,,,81,0,0,,,,,0,,,45,127
121440,note_on,,,,,0,0,0,,,,,0,,,54,127
121440,note_on,,,,,0,0,0,,,,,0,,,57,127
121599,note_on,,,,,0,0,0,,,,,0,,,54,0
121599,note_on,,,,,0,0,0,,,,,0,,,57,0
121599,note_on,,,,,159,0,0,,,,,0,,,45,0
121680,note_on,,,,,0,0,0,,,,,0,,,74,112
121680,note_on,,,,,0,0,0,,,,,0,,,80,112
121680,note_on,,,,,0,0,0,,,,,0,,,83,112
121680,note_on,,,,,81,0,0,,,,,0,,,71,112
121907,note_on,,,,,227,0,0,,,,,0,,,71,0
121907,note_on,,,,,0,0,0,,,,,0,,,80,0
121907,note_on,,,,,0,0,0,,,,,0,,,83,0
121907,note_on,,,,,0,0,0,,,,,0,,,74,0
121920,note_on,,,,,0,0,0,,,,,0,,,65,112
121920,note_on,,,,,0,0,0,,,,,0,,,68,112
121920,note_on,,,,,13,0,0,,,,,0,,,59,112
122147,note_on,,,,,0,0,0,,,,,0,,,68,0
122147,note_on,,,,,0,0,0,,,,,0,,,65,0
122147,note_on,,,,,227,0,0,,,,,0,,,59,0
122160,note_on,,,,,13,0,0,,,,,0,,,84,112
122160,note_on,,,,,0,0,0,,,,,0,,,88,112
122160,note_on,,,,,0,0,0,,,,,0,,,96,112
122387,note_on,,,,,0,0,0,,,,,0,,,88,0
122387,note_on,,,,,0,0,0,,,,,0,,,96,0
122387,note_on,,,,,227,0,0,,,,,0,,,84,0
122400,note_on,,,,,0,0,0,,,,,0,,,57,112
122400,note_on,,,,,13,0,0,,,,,0,,,45,112
122400,note_on,,,,,0,0,0,,,,,0,,,52,112
122627,note_on,,,,,0,0,0,,,,,0,,,52,0
122627,note_on,,,,,0,0,0,,,,,0,,,57,0
122627,note_on,,,,,227,0,0,,,,,0,,,45,0
122640,note_on,,,,,0,0,0,,,,,0,,,78,112
122640,note_on,,,,,0,0,0,,,,,0,,,72,112
122640,note_on,,,,,0,0,0,,,,,0,,,81,112
122640,note_on,,,,,13,0,0,,,,,0,,,69,112
122867,note_on,,,,,0,0,0,,,,,0,,,78,0
122867,note_on,,,,,227,0,0,,,,,0,,,69,0
122867,note_on,,,,,0,0,0,,,,,0,,,72,0
122867,note_on,,,,,0,0,0,,,,,0,,,81,0
122880,note_on,,,,,0,0,0,,,,,0,,,66,112
122880,note_on,,,,,0,0,0,,,,,0,,,63,112
122880,note_on,,,,,13,0,0,,,,,0,,,57,112
123107,note_on,,,,,0,0,0,,,,,0,,,63,0
123107,note_on,,,,,227,0,0,,,,,0,,,57,0
123107,note_on,,,,,0,0,0,,,,,0,,,66,0
123120,note_on,,,,,0,0,0,,,,,0,,,94,112
123120,note_on,,,,,0,0,1,,,,,0,,,50,112
123120,note_on,,,,,0,0,0,,,,,0,,,86,112
123120,note_on,,,,,0,0,1,,,,,0,,,58,112
123120,note_on,,,,,0,0,1,,,,,0,,,53,112
123120,note_on,,,,,2893,0,1,,,,,0,,,45,112
123120,note_on,,,,,13,0,0,,,,,0,,,82,112
123122,control_change,,,,,2,0,1,,,64,127,0,,,,
123347,note_on,,,,,0,0,0,,,,,0,,,86,0
123347,note_on,,,,,225,0,1,,,,,0,,,45,0
123347,note_on,,,,,0,0,1,,,,,0,,,50,0
123347,note_on,,,,,0,0,1,,,,,0,,,53,0
123347,note_on,,,,,227,0,0,,,,,0,,,82,0
123347,note_on,,,,,0,0,0,,,,,0,,,94,0
123347,note_on,,,,,0,0,1,,,,,0,,,58,0
123360,note_on,,,,,0,0,1,,,,,0,,,53,112
123360,note_on,,,,,0,0,1,,,,,0,,,58,112
123360,note_on,,,,,13,0,0,,,,,0,,,81,112
123360,note_on,,,,,0,0,0,,,,,0,,,93,112
123360,note_on,,,,,0,0,1,,,,,0,,,50,112
123360,note_on,,,,,13,0,1,,,,,0,,,45,112
123587,note_on,,,,,227,0,1,,,,,0,,,45,0
123587,note_on,,,,,0,0,1,,,,,0,,,50,0
123587,note_on,,,,,0,0,1,,,,,0,,,53,0
123587,note_on,,,,,0,0,1,,,,,0,,,58,0
123587,note_on,,,,,0,0,0,,,,,0,,,93,0
123587,note_on,,,,,227,0,0,,,,,0,,,81,0
123600,note_on,,,,,0,0,0,,,,,0,,,89,112
123600,note_on,,,,,13,0,1,,,,,0,,,45,112
123600,note_on,,,,,13,0,0,,,,,0,,,77,112
123600,note_on,,,,,0,0,1,,,,,0,,,53,112
123600,note_on,,,,,0,0,1,,,,,0,,,58,112
123600,note_on,,,,,0,0,1,,,,,0,,,50,112
123827,note_on,,,,,0,0,1,,,,,0,,,53,0
123827,note_on,,,,,0,0,1,,,,,0,,,50,0
123827,note_on,,,,,227,0,0,,,,,0,,,77,0
123827,note_on,,,,,0,0,1,,,,,0,,,58,0
123827,note_on,,,,,227,0,1,,,,,0,,,45,0
123827,note_on,,,,,0,0,0,,,,,0,,,89,0
123840,note_on,,,,,0,0,0,,,,,0,,,86,112
123840,note_on,,,,,13,0,1,,,,,0,,,45,112
123840,note_on,,,,,13,0,0,,,,,0,,,74,112
123840,note_on,,,,,0,0,1,,,,,0,,,58,112
123840,note_on,,,,,0,0,1,,,,,0,,,53,112
123840,note_on,,,,,0,0,1,,,,,0,,,50,112
124067,note_on,,,,,0,0,1,,,,,0,,,58,0
124067,note_on,,,,,0,0,1,,,,,0,,,50,0
124067,note_on,,,,,227,0,0,,,,,0,,,74,0
124067,note_on,,,,,0,0,0,,,,,0,,,86,0
124067,note_on,,,,,0,0,1,,,,,0,,,53,0
124067,note_on,,,,,227,0,1,,,,,0,,,45,0
124080,note_on,,,,,0,0,1,,,,,0,,,58,112
124080,note_on,,,,,0,0,1,,,,,0,,,53,112
124080,note_on,,,,,13,0,0,,,,,0,,,70,112
124080,note_on,,,,,0,0,0,,,,,0,,,82,112
124080,note_on,,,,,0,0,1,,,,,0,,,50,112
124080,note_on,,,,,13,0,1,,,,,0,,,45,112
124307,note_on,,,,,227,0,1,,,,,0,,,45,0
124307,note_on,,,,,0,0,1,,,,,0,,,58,0
124307,note_on,,,,,0,0,1,,,,,0,,,50,0
124307,note_on,,,,,0,0,1,,,,,0,,,53,0
124307,note_on,,,,,227,0,0,,,,,0,,,70,0
124307,note_on,,,,,0,0,0,,,,,0,,,82,0
124320,note_on,,,,,0,0,0,,,,,0,,,81,112
124320,note_on,,,,,13,0,1,,,,,0,,,45,112
124320,note_on,,,,,0,0,1,,,,,0,,,50,112
124320,note_on,,,,,0,0,1,,,,,0,,,53,112
124320,note_on,,,,,0,0,1,,,,,0,,,57,112
124320,note_on,,,,,13,0,0,,,,,0,,,69,112
124547,note_on,,,,,227,0,1,,,,,0,,,45,0
124547,note_on,,,,,0,0,0,,,,,0,,,81,0
124547,note_on,,,,,0,0,1,,,,,0,,,50,0
124547,note_on,,,,,0,0,1,,,,,0,,,53,0
124547,note_on,,,,,0,0,1,,,,,0,,,57,0
124547,note_on,,,,,227,0,0,,,,,0,,,69,0
124560,note_on,,,,,13,0,1,,,,,0,,,45,112
124560,note_on,,,,,0,0,1,,,,,0,,,56,112
124560,note_on,,,,,13,0,0,,,,,0,,,68,112
124560,note_on,,,,,0,0,1,,,,,0,,,50,112
124560,note_on,,,,,0,0,0,,,,,0,,,80,112
124560,note_on,,,,,0,0,1,,,,,0,,,52,112
124560,note_on,,,,,0,0,1,,,,,0,,,47,112
124561,control_change,,,,,1,0,1,,,64,0,0,,,,
124562,control_change,,,,,2,0,0,,,64,127,0,,,,
124787,note_on,,,,,225,0,0,,,,,0,,,68,0
124787,note_on,,,,,0,0,1,,,,,0,,,50,0
124787,note_on,,,,,0,0,0,,,,,0,,,80,0
124787,note_on,,,,,0,0,1,,,,,0,,,56,0
124787,note_on,,,,,0,0,1,,,,,0,,,52,0
124787,note_on,,,,,226,0,1,,,,,0,,,45,0
124787,note_on,,,,,0,0,1,,,,,0,,,47,0
124800,note_on,,,,,13,0,1,,,,,0,,,45,112
124800,note_on,,,,,0,0,0,,,,,0,,,77,112
124800,note_on,,,,,0,0,1,,,,,0,,,56,112
124800,note_on,,,,,0,0,1,,,,,0,,,52,112
124800,note_on,,,,,0,0,1,,,,,0,,,50,112
124800,note_on,,,,,13,0,0,,,,,0,,,65,112
124800,note_on,,,,,0,0,1,,,,,0,,,47,112
125027,note_on,,,,,0,0,1,,,,,0,,,52,0
125027,note_on,,,,,0,0,1,,,,,0,,,50,0
125027,note_on,,,,,0,0,0,,,,,0,,,77,0
125027,note_on,,,,,0,0,1,,,,,0,,,47,0
125027,note_on,,,,,227,0,0,,,,,0,,,65,0
125027,note_on,,,,,227,0,1,,,,,0,,,45,0
125027,note_on,,,,,0,0,1,,,,,0,,,56,0
125040,note_on,,,,,0,0,1,,,,,0,,,47,112
125040,note_on,,,,,0,0,1,,,,,0,,,52,112
125040,note_on,,,,,0,0,1,,,,,0,,,56,112
125040,note_on,,,,,13,0,1,,,,,0,,,45,112
125040,note_on,,,,,13,0,0,,,,,0,,,64,112
125040,note_on,,,,,0,0,0,,,,,0,,,76,112
125040,note_on,,,,,0,0,1,,,,,0,,,50,112
125267,note_on,,,,,0,0,1,,,,,0,,,47,0
125267,note_on,,,,,0,0,1,,,,,0,,,50,0
125267,note_on,,,,,0,0,1,,,,,0,,,56,0
125267,note_on,,,,,227,0,0,,,,,0,,,64,0
125267,note_on,,,,,227,0,1,,,,,0,,,45,0
125267,note_on,,,,,0,0,1,,,,,0,,,52,0
125267,note_on,,,,,0,0,0,,,,,0,,,76,0
125280,note_on,,,,,0,0,1,,,,,0,,,56,112
125280,note_on,,,,,0,0,1,,,,,0,,,50,112
125280,note_on,,,,,0,0,1,,,,,0,,,47,112
125280,note_on,,,,,13,0,0,,,,,0,,,62,112
125280,note_on,,,,,13,0,1,,,,,0,,,45,112
125280,note_on,,,,,0,0,1,,,,,0,,,52,112
125280,note_on,,,,,0,0,0,,,,,0,,,74,112
125507,note_on,,,,,0,0,1,,,,,0,,,56,0
125507,note_on,,,,,0,0,1,,,,,0,,,52,0
125507,note_on,,,,,0,0,0,,,,,0,,,74,0
125507,note_on,,,,,0,0,1,,,,,0,,,47,0
125507,note_on,,,,,227,0,1,,,,,0,,,45,0
125507,note_on,,,,,0,0,1,,,,,0,,,50,0
125507,note_on,,,,,227,0,0,,,,,0,,,62,0
125520,note_on,,,,,13,0,0,,,,,0,,,59,112
125520,note_on,,,,,0,0,0,,,,,0,,,71,112
125520,note_on,,,,,13,0,1,,,,,0,,,45,112
125520,note_on,,,,,0,0,1,,,,,0,,,47,112
125520,note_on,,,,,0,0,1,,,,,0,,,50,112
125520,note_on,,,,,0,0,1,,,,,0,,,52,112
125520,note_on,,,,,0,0,1,,,,,0,,,56,112
125747,note_on,,,,,0,0,1,,,,,0,,,47,0
125747,note_on,,,,,0,0,1,,,,,0,,,50,0
125747,note_on,,,,,0,0,1,,,,,0,,,52,0
125747,note_on,,,,,0,0,1,,,,,0,,,56,0
125747,note_on,,,,,227,0,0,,,,,0,,,59,0
125747,note_on,,,,,227,0,1,,,,,0,,,45,0
125747,note_on,,,,,0,0,0,,,,,0,,,71,0
125760,note_on,,,,,0,0,1,,,,,0,,,56,112
125760,note_on,,,,,13,0,1,,,,,0,,,45,112
125760,note_on,,,,,13,0,0,,,,,0,,,64,112
125760,note_on,,,,,0,0,0,,,,,0,,,76,112
125760,note_on,,,,,0,0,1,,,,,0,,,47,112
125760,note_on,,,,,0,0,1,,,,,0,,,50,112
125760,note_on,,,,,0,0,1,,,,,0,,,52,112
125987,note_on,,,,,0,0,1,,,,,0,,,50,0
125987,note_on,,,,,0,0,0,,,,,0,,,76,0
125987,note_on,,,,,0,0,1,,,,,0,,,52,0
125987,note_on,,,,,227,0,0,,,,,0,,,64,0
125987,note_on,,,,,227,0,1,,,,,0,,,45,0
125987,note_on,,,,,0,0,1,,,,,0,,,47,0
125987,note_on,,,,,0,0,1,,,,,0,,,56,0
126000,note_on,,,,,0,0,0,,,,,0,,,84,112
126000,note_on,,,,,0,0,0,,,,,0,,,76,112
126000,note_on,,,,,13,0,0,,,,,0,,,72,112
126001,control_change,,,,,1,0,0,,,64,0,0,,,,
126227,note_on,,,,,0,0,0,,,,,0,,,84,0
126227,note_on,,,,,0,0,0,,,,,0,,,76,0
126227,note_on,,,,,226,0,0,,,,,0,,,72,0
126240,note_on,,,,,0,0,0,,,,,0,,,45,112
126240,note_on,,,,,13,0,0,,,,,0,,,33,112
126240,note_on,,,,,0,0,0,,,,,0,,,40,112
126467,note_on,,,,,227,0,0,,,,,0,,,33,0
126467,note_on,,,,,0,0,0,,,,,0,,,40,0
126467,note_on,,,,,0,0,0,,,,,0,,,45,0
126480,note_on,,,,,13,0,0,,,,,0,,,61,112
126480,note_on,,,,,0,0,0,,,,,0,,,73,112
126480,note_on,,,,,0,0,0,,,,,0,,,64,112
126480,note_on,,,,,0,0,0,,,,,0,,,70,112
126707,note_on,,,,,0,0,0,,,,,0,,,64,0
126707,note_on,,,,,0,0,0,,,,,0,,,70,0
126707,note_on,,,,,227,0,0,,,,,0,,,61,0
126707,note_on,,,,,0,0,0,,,,,0,,,73,0
126720,note_on,,,,,0,0,0,,,,,0,,,55,112
126720,note_on,,,,,0,0,0,,,,,0,,,58,112
126720,note_on,,,,,13,0,0,,,,,0,,,49,112
126947,note_on,,,,,0,0,0,,,,,0,,,58,0
126947,note_on,,,,,0,0,0,,,,,0,,,55,0
126947,note_on,,,,,227,0,0,,,,,0,,,49,0
126960,note_on,,,,,0,0,0,,,,,0,,,78,112
126960,note_on,,,,,0,0,0,,,,,0,,,86,112
126960,note_on,,,,,13,0,0,,,,,0,,,74,112
127187,note_on,,,,,0,0,0,,,,,0,,,86,0
127187,note_on,,,,,0,0,0,,,,,0,,,78,0
127187,note_on,,,,,227,0,0,,,,,0,,,74,0
127200,note_on,,,,,13,0,0,,,,,0,,,33,112
127200,note_on,,,,,0,0,0,,,,,0,,,42,112
127200,note_on,,,,,0,0,0,,,,,0,,,45,112
127427,note_on,,,,,227,0,0,,,,,0,,,33,0
127427,note_on,,,,,0,0,0,,,,,0,,,42,0
127427,note_on,,,,,0,0,0,,,,,0,,,45,0
127440,note_on,,,,,13,0,0,,,,,0,,,59,112
127440,note_on,,,,,0,0,0,,,,,0,,,62,112
127440,note_on,,,,,0,0,0,,,,,0,,,71,112
127440,note_on,,,,,0,0,0,,,,,0,,,68,112
127667,note_on,,,,,0,0,0,,,,,0,,,62,0
127667,note_on,,,,,0,0,0,,,,,0,,,68,0
127667,note_on,,,,,0,0,0,,,,,0,,,71,0
127667,note_on,,,,,227,0,0,,,,,0,,,59,0
127680,note_on,,,,,0,0,0,,,,,0,,,53,112
127680,note_on,,,,,0,0,0,,,,,0,,,56,112
127680,note_on,,,,,13,0,0,,,,,0,,,47,112
127907,note_on,,,,,0,0,0,,,,,0,,,53,0
127907,note_on,,,,,227,0,0,,,,,0,,,47,0
127907,note_on,,,,,0,0,0,,,,,0,,,56,0
127920,note_on,,,,,0,0,0,,,,,0,,,76,112
127920,note_on,,,,,0,0,0,,,,,0,,,84,112
127920,note_on,,,,,13,0,0,,,,,0,,,72,112
128147,note_on,,,,,0,0,0,,,,,0,,,76,0
128147,note_on,,,,,227,0,0,,,,,0,,,72,0
128147,note_on,,,,,0,0,0,,,,,0,,,84,0
128160,note_on,,,,,0,0,0,,,,,0,,,40,112
128160,note_on,,,,,0,0,0,,,,,0,,,45,112
128160,note_on,,,,,13,0,0,,,,,0,,,33,112
128387,note_on,,,,,227,0,0,,,,,0,,,33,0
128387,note_on,,,,,0,0,0,,,,,0,,,45,0
128387,note_on,,,,,0,0,0,,,,,0,,,40,0
128400,note_on,,,,,13,0,0,,,,,0,,,57,112
128400,note_on,,,,,0,0,0,,,,,0,,,60,112
128400,note_on,,,,,0,0,0,,,,,0,,,66,112
128400,note_on,,,,,0,0,0,,,,,0,,,69,112
128627,note_on,,,,,0,0,0,,,,,0,,,66,0
128627,note_on,,,,,0,0,0,,,,,0,,,69,0
128627,note_on,,,,,0,0,0,,,,,0,,,60,0
128627,note_on,,,,,227,0,0,,,,,0,,,57,0
128640,note_on,,,,,0,0,0,,,,,0,,,51,112
128640,note_on,,,,,0,0,0,,,,,0,,,54,112
128640,note_on,,,,,13,0,0,,,,,0,,,45,112
128867,note_on,,,,,227,0,0,,,,,0,,,45,0
128867,note_on,,,,,0,0,0,,,,,0,,,51,0
128867,note_on,,,,,0,0,0,,,,,0,,,54,0
128880,note_on,,,,,0,0,1,,,,,0,,,41,112
128880,note_on,,,,,0,0,1,,,,,0,,,38,112
128880,note_on,,,,,0,0,0,,,,,0,,,82,112
128880,note_on,,,,,0,0,0,,,,,0,,,74,112
128880,note_on,,,,,13,0,0,,,,,0,,,70,112
128880,note_on,,,,,0,0,1,,,,,0,,,46,112
128880,note_on,,,,,2893,0,1,,,,,0,,,33,112
128882,control_change,,,,,2,0,0,,,64,127,0,,,,
129107,note_on,,,,,0,0,1,,,,,0,,,46,0
129107,note_on,,,,,0,0,1,,,,,0,,,41,0
129107,note_on,,,,,0,0,0,,,,,0,,,74,0
129107,note_on,,,,,227,0,1,,,,,0,,,33,0
129107,note_on,,,,,0,0,1,,,,,0,,,38,0
129107,note_on,,,,,0,0,0,,,,,0,,,82,0
129107,note_on,,,,,225,0,0,,,,,0,,,70,0
129120,note_on,,,,,0,0,1,,,,,0,,,38,112
129120,note_on,,,,,0,0,1,,,,,0,,,41,112
129120,note_on,,,,,0,0,0,,,,,0,,,89,112
129120,note_on,,,,,0,0,1,,,,,0,,,46,112
129120,note_on,,,,,13,0,0,,,,,0,,,77,112
129120,note_on,,,,,13,0,1,,,,,0,,,33,112
129347,note_on,,,,,227,0,1,,,,,0,,,33,0
129347,note_on,,,,,227,0,0,,,,,0,,,77,0
129347,note_on,,,,,0,0,1,,,,,0,,,38,0
129347,note_on,,,,,0,0,1,,,,,0,,,46,0
129347,note_on,,,,,0,0,1,,,,,0,,,41,0
129347,note_on,,,,,0,0,0,,,,,0,,,89,0
129360,note_on,,,,,0,0,0,,,,,0,,,86,112
129360,note_on,,,,,13,0,0,,,,,0,,,74,112
129360,note_on,,,,,0,0,1,,,,,0,,,38,112
129360,note_on,,,,,13,0,1,,,,,0,,,33,112
129360,note_on,,,,,0,0,1,,,,,0,,,46,112
129360,note_on,,,,,0,0,1,,,,,0,,,41,112
129587,note_on,,,,,227,0,0,,,,,0,,,74,0
129587,note_on,,,,,227,0,1,,,,,0,,,33,0
129587,note_on,,,,,0,0,1,,,,,0,,,41,0
129587,note_on,,,,,0,0,1,,,,,0,,,46,0
129587,note_on,,,,,0,0,1,,,,,0,,,38,0
129587,note_on,,,,,0,0,0,,,,,0,,,86,0
129600,note_on,,,,,13,0,1,,,,,0,,,33,112
129600,note_on,,,,,0,0,1,,,,,0,,,46,112
129600,note_on,,,,,0,0,1,,,,,0,,,41,112
129600,note_on,,,,,13,0,0,,,,,0,,,70,112
129600,note_on,,,,,0,0,1,,,,,0,,,38,112
129600,note_on,,,,,0,0,0,,,,,0,,,82,112
129827,note_on,,,,,0,0,1,,,,,0,,,46,0
129827,note_on,,,,,0,0,1,,,,,0,,,41,0
129827,note_on,,,,,227,0,1,,,,,0,,,33,0
129827,note_on,,,,,227,0,0,,,,,0,,,70,0
129827,note_on,,,,,0,0,1,,,,,0,,,38,0
129827,note_on,,,,,0,0,0,,,,,0,,,82,0
129840,note_on,,,,,13,0,0,,,,,0,,,69,112
129840,note_on,,,,,0,0,1,,,,,0,,,41,112
129840,note_on,,,,,0,0,1,,,,,0,,,45,112
129840,note_on,,,,,0,0,1,,,,,0,,,38,112
129840,note_on,,,,,13,0,1,,,,,0,,,33,112
129840,note_on,,,,,0,0,0,,,,,0,,,81,112
130067,note_on,,,,,0,0,0,,,,,0,,,81,0
130067,note_on,,,,,0,0,1,,,,,0,,,38,0
130067,note_on,,,,,227,0,1,,,,,0,,,33,0
130067,note_on,,,,,227,0,0,,,,,0,,,69,0
130067,note_on,,,,,0,0,1,,,,,0,,,45,0
130067,note_on,,,,,0,0,1,,,,,0,,,41,0
130080,note_on,,,,,0,0,0,,,,,0,,,77,112
130080,note_on,,,,,13,0,1,,,,,0,,,33,112
130080,note_on,,,,,0,0,1,,,,,0,,,38,112
130080,note_on,,,,,0,0,1,,,,,0,,,45,112
130080,note_on,,,,,0,0,1,,,,,0,,,41,112
130080,note_on,,,,,13,0,0,,,,,0,,,65,112
130307,note_on,,,,,0,0,1,,,,,0,,,45,0
130307,note_on,,,,,0,0,1,,,,,0,,,41,0
130307,note_on,,,,,227,0,1,,,,,0,,,33,0
130307,note_on,,,,,227,0,0,,,,,0,,,65,0
130307,note_on,,,,,0,0,1,,,,,0,,,38,0
130307,note_on,,,,,0,0,0,,,,,0,,,77,0
130320,note_on,,,,,0,0,1,,,,,0,,,40,112
130320,note_on,,,,,13,0,1,,,,,0,,,33,112
130320,note_on,,,,,0,0,0,,,,,0,,,76,112
130320,note_on,,,,,0,0,1,,,,,0,,,35,112
130320,note_on,,,,,0,0,1,,,,,0,,,38,112
130320,note_on,,,,,13,0,0,,,,,0,,,64,112
130320,note_on,,,,,0,0,1,,,,,0,,,44,112
130321,control_change,,,,,1,0,0,,,64,0,0,,,,
130322,control_change,,,,,1,0,0,,,64,127,0,,,,
130547,note_on,,,,,0,0,0,,,,,0,,,76,0
130547,note_on,,,,,227,0,1,,,,,0,,,33,0
130547,note_on,,,,,0,0,1,,,,,0,,,35,0
130547,note_on,,,,,0,0,1,,,,,0,,,38,0
130547,note_on,,,,,225,0,0,,,,,0,,,64,0
130547,note_on,,,,,0,0,1,,,,,0,,,40,0
130547,note_on,,,,,0,0,1,,,,,0,,,44,0
130560,note_on,,,,,0,0,1,,,,,0,,,40,112
130560,note_on,,,,,0,0,1,,,,,0,,,44,112
130560,note_on,,,,,0,0,0,,,,,0,,,74,112
130560,note_on,,,,,13,0,0,,,,,0,,,62,112
130560,note_on,,,,,13,0,1,,,,,0,,,33,112
130560,note_on,,,,,0,0,1,,,,,0,,,35,112
130560,note_on,,,,,0,0,1,,,,,0,,,38,112
130787,note_on,,,,,0,0,0,,,,,0,,,74,0
130787,note_on,,,,,0,0,1,,,,,0,,,35,0
130787,note_on,,,,,227,0,0,,,,,0,,,62,0
130787,note_on,,,,,227,0,1,,,,,0,,,33,0
130787,note_on,,,,,0,0,1,,,,,0,,,44,0
130787,note_on,,,,,0,0,1,,,,,0,,,38,0
130787,note_on,,,,,0,0,1,,,,,0,,,40,0
130800,note_on,,,,,0,0,1,,,,,0,,,44,112
130800,note_on,,,,,0,0,1,,,,,0,,,40,112
130800,note_on,,,,,0,0,1,,,,,0,,,38,112
130800,note_on,,,,,0,0,1,,,,,0,,,35,112
130800,note_on,,,,,13,0,0,,,,,0,,,59,112
130800,note_on,,,,,13,0,1,,,,,0,,,33,112
130800,note_on,,,,,0,0,0,,,,,0,,,71,112
131027,note_on,,,,,0,0,1,,,,,0,,,38,0
131027,note_on,,,,,0,0,1,,,,,0,,,35,0
131027,note_on,,,,,0,0,1,,,,,0,,,44,0
131027,note_on,,,,,227,0,0,,,,,0,,,59,0
131027,note_on,,,,,227,0,1,,,,,0,,,33,0
131027,note_on,,,,,0,0,1,,,,,0,,,40,0
131027,note_on,,,,,0,0,0,,,,,0,,,71,0
131040,note_on,,,,,0,0,1,,,,,0,,,38,112
131040,note_on,,,,,13,0,1,,,,,0,,,33,112
131040,note_on,,,,,0,0,1,,,,,0,,,35,112
131040,note_on,,,,,0,0,1,,,,,0,,,56,112
131040,note_on,,,,,13,0,0,,,,,0,,,68,112
131040,note_on,,,,,0,0,1,,,,,0,,,44,112
131040,note_on,,,,,0,0,1,,,,,0,,,40,112
131267,note_on,,,,,0,0,1,,,,,0,,,38,0
131267,note_on,,,,,0,0,1,,,,,0,,,35,0
131267,note_on,,,,,0,0,1,,,,,0,,,44,0
131267,note_on,,,,,0,0,1,,,,,0,,,56,0
131267,note_on,,,,,227,0,0,,,,,0,,,68,0
131267,note_on,,,,,227,0,1,,,,,0,,,33,0
131267,note_on,,,,,0,0,1,,,,,0,,,40,0
131280,note_on,,,,,0,0,1,,,,,0,,,35,112
131280,note_on,,,,,0,0,1,,,,,0,,,38,112
131280,note_on,,,,,0,0,1,,,,,0,,,40,112
131280,note_on,,,,,0,0,1,,,,,0,,,44,112
131280,note_on,,,,,13,0,1,,,,,0,,,33,112
131280,note_on,,,,,13,0,0,,,,,0,,,65,112
131280,note_on,,,,,0,0,1,,,,,0,,,53,112
131507,note_on,,,,,0,0,1,,,,,0,,,35,0
131507,note_on,,,,,227,0,1,,,,,0,,,33,0
131507,note_on,,,,,227,0,0,,,,,0,,,65,0
131507,note_on,,,,,0,0,1,,,,,0,,,44,0
131507,note_on,,,,,0,0,1,,,,,0,,,53,0
131507,note_on,,,,,0,0,1,,,,,0,,,40,0
131507,note_on,,,,,0,0,1,,,,,0,,,38,0
131520,note_on,,,,,0,0,1,,,,,0,,,35,112
131520,note_on,,,,,0,0,1,,,,,0,,,40,112
131520,note_on,,,,,0,0,1,,,,,0,,,44,112
131520,note_on,,,,,0,0,1,,,,,0,,,52,112
131520,note_on,,,,,13,0,0,,,,,0,,,64,112
131520,note_on,,,,,13,0,1,,,,,0,,,33,112
131520,note_on,,,,,0,0,1,,,,,0,,,38,112
131747,note_on,,,,,227,0,1,,,,,0,,,33,0
131747,note_on,,,,,0,0,1,,,,,0,,,40,0
131747,note_on,,,,,0,0,1,,,,,0,,,38,0
131747,note_on,,,,,227,0,0,,,,,0,,,64,0
131747,note_on,,,,,0,0,1,,,,,0,,,35,0
131747,note_on,,,,,0,0,1,,,,,0,,,52,0
131747,note_on,,,,,0,0,1,,,,,0,,,44,0
131760,note_on,,,,,0,0,1,,,,,0,,,57,112
131760,note_on,,,,,0,0,1,,,,,0,,,45,112
131760,note_on,,,,,0,0,0,,,,,0,,,69,112
131760,note_on,,,,,0,0,1,,,,,0,,,40,112
131760,note_on,,,,,13,0,0,,,,,0,,,60,112
131760,note_on,,,,,0,0,1,,,,,0,,,36,112
131760,note_on,,,,,13,0,1,,,,,0,,,33,112
131761,control_change,,,,,1,0,0,,,64,0,0,,,,
131762,control_change,,,,,1,0,0,,,64,127,0,,,,
131838,note_on,,,,,0,0,0,,,,,0,,,69,0
131838,note_on,,,,,76,0,0,,,,,0,,,60,0
131838,note_on,,,,,78,0,1,,,,,0,,,33,0
131838,note_on,,,,,0,0,1,,,,,0,,,36,0
131838,note_on,,,,,0,0,1,,,,,0,,,40,0
131838,note_on,,,,,0,0,1,,,,,0,,,45,0
131987,note_on,,,,,149,0,1,,,,,0,,,57,0
132000,note_on,,,,,162,0,0,,,,,0,,,57,112
132000,note_on,,,,,13,0,1,,,,,0,,,45,112
132227,note_on,,,,,227,0,0,,,,,0,,,57,0
132227,note_on,,,,,227,0,1,,,,,0,,,45,0
132240,note_on,,,,,13,0,1,,,,,0,,,45,112
132240,note_on,,,,,13,0,0,,,,,0,,,57,112
132467,note_on,,,,,227,0,1,,,,,0,,,45,0
132467,note_on,,,,,227,0,0,,,,,0,,,57,0
132480,note_on,,,,,13,0,1,,,,,0,,,45,112
132480,note_on,,,,,13,0,0,,,,,0,,,57,112
132707,note_on,,,,,227,0,1,,,,,0,,,45,0
132707,note_on,,,,,227,0,0,,,,,0,,,57,0
132720,note_on,,,,,0,0,1,,,,,0,,,45,112
132720,note_on,,,,,13,0,0,,,,,0,,,53,112
132720,note_on,,,,,13,0,1,,,,,0,,,38,112
132720,note_on,,,,,0,0,1,,,,,0,,,46,127
132720,note_on,,,,,0,0,0,,,,,0,,,57,112
132720,note_on,,,,,0,0,0,,,,,0,,,58,127
132721,control_change,,,,,1,0,0,,,64,0,0,,,,
132947,note_on,,,,,226,0,0,,,,,0,,,53,0
132947,note_on,,,,,0,0,0,,,,,0,,,57,0
132947,note_on,,,,,227,0,1,,,,,0,,,38,0
132947,note_on,,,,,0,0,1,,,,,0,,,45,0
132960,note_on,,,,,13,0,1,,,,,0,,,38,112
132960,note_on,,,,,0,0,1,,,,,0,,,45,112
132960,note_on,,,,,0,0,0,,,,,0,,,57,112
132960,note_on,,,,,13,0,0,,,,,0,,,53,112
133187,note_on,,,,,227,0,0,,,,,0,,,53,0
133187,note_on,,,,,0,0,0,,,,,0,,,57,0
133187,note_on,,,,,0,0,1,,,,,0,,,45,0
133187,note_on,,,,,227,0,1,,,,,0,,,38,0
133200,note_on,,,,,0,0,1,,,,,0,,,45,112
133200,note_on,,,,,13,0,1,,,,,0,,,38,112
133200,note_on,,,,,13,0,0,,,,,0,,,53,112
133200,note_on,,,,,0,0,0,,,,,0,,,57,112
133427,note_on,,,,,227,0,0,,,,,0,,,53,0
133427,note_on,,,,,0,0,1,,,,,0,,,45,0
133427,note_on,,,,,0,0,0,,,,,0,,,57,0
133427,note_on,,,,,227,0,1,,,,,0,,,38,0
133440,note_on,,,,,0,0,1,,,,,0,,,45,112
133440,note_on,,,,,13,0,0,,,,,0,,,53,112
133440,note_on,,,,,0,0,0,,,,,0,,,57,112
133440,note_on,,,,,13,0,1,,,,,0,,,38,112
133496,note_on,,,,,56,0,0,,,,,0,,,58,0
133496,note_on,,,,,56,0,1,,,,,0,,,46,0
133667,note_on,,,,,0,0,0,,,,,0,,,57,0
133667,note_on,,,,,171,0,1,,,,,0,,,38,0
133667,note_on,,,,,171,0,0,,,,,0,,,53,0
133667,note_on,,,,,0,0,1,,,,,0,,,45,0
133680,note_on,,,,,0,0,0,,,,,0,,,57,112
133680,note_on,,,,,0,0,0,,,,,0,,,59,127
133680,note_on,,,,,0,0,1,,,,,0,,,45,112
133680,note_on,,,,,13,0,1,,,,,0,,,39,112
133680,note_on,,,,,0,0,1,,,,,0,,,47,127
133680,note_on,,,,,13,0,0,,,,,0,,,54,112
133907,note_on,,,,,227,0,1,,,,,0,,,39,0
133907,note_on,,,,,227,0,0,,,,,0,,,54,0
133907,note_on,,,,,0,0,0,,,,,0,,,57,0
133907,note_on,,,,,0,0,1,,,,,0,,,45,0
133920,note_on,,,,,0,0,0,,,,,0,,,57,112
133920,note_on,,,,,13,0,0,,,,,0,,,54,112
133920,note_on,,,,,13,0,1,,,,,0,,,39,112
133920,note_on,,,,,0,0,1,,,,,0,,,45,112
134000,note_on,,,,,80,0,0,,,,,0,,,59,0
134000,note_on,,,,,80,0,1,,,,,0,,,47,0
134147,note_on,,,,,0,0,1,,,,,0,,,45,0
134147,note_on,,,,,147,0,1,,,,,0,,,39,0
134147,note_on,,,,,147,0,0,,,,,0,,,54,0
134147,note_on,,,,,0,0,0,,,,,0,,,57,0
134160,note_on,,,,,13,0,1,,,,,0,,,33,112
134160,note_on,,,,,0,0,0,,,,,0,,,52,112
134160,note_on,,,,,0,0,0,,,,,0,,,60,112
134160,note_on,,,,,13,0,0,,,,,0,,,48,112
134160,note_on,,,,,0,0,0,,,,,0,,,57,112
134202,note_on,,,,,42,0,1,,,,,0,,,36,112
134238,note_on,,,,,0,0,0,,,,,0,,,60,0
134238,note_on,,,,,78,0,0,,,,,0,,,57,0
134244,note_on,,,,,42,0,1,,,,,0,,,40,112
134286,note_on,,,,,42,0,1,,,,,0,,,45,112
134387,note_on,,,,,0,0,0,,,,,0,,,52,0
134387,note_on,,,,,149,0,0,,,,,0,,,48,0
134399,note_on,,,,,0,0,1,,,,,0,,,40,0
134399,note_on,,,,,0,0,1,,,,,0,,,45,0
134399,note_on,,,,,113,0,1,,,,,0,,,33,0
134399,note_on,,,,,0,0,1,,,,,0,,,36,0
134400,note_on,,,,,1,0,1,,,,,0,,,45,112
134400,note_on,,,,,13,0,0,,,,,0,,,57,112
134627,note_on,,,,,227,0,1,,,,,0,,,45,0
134627,note_on,,,,,227,0,0,,,,,0,,,57,0
134640,note_on,,,,,13,0,1,,,,,0,,,45,112
134640,note_on,,,,,13,0,0,,,,,0,,,57,112
134867,note_on,,,,,227,0,1,,,,,0,,,45,0
134867,note_on,,,,,227,0,0,,,,,0,,,57,0
134880,note_on,,,,,13,0,1,,,,,0,,,45,112
134880,note_on,,,,,13,0,0,,,,,0,,,57,112
135107,note_on,,,,,227,0,1,,,,,0,,,45,0
135107,note_on,,,,,227,0,0,,,,,0,,,57,0
135120,note_on,,,,,0,0,1,,,,,0,,,46,127
135120,note_on,,,,,0,0,0,,,,,0,,,58,127
135120,note_on,,,,,13,0,0,,,,,0,,,53,112
135120,note_on,,,,,13,0,1,,,,,0,,,38,112
135120,note_on,,,,,0,0,1,,,,,0,,,45,112
135120,note_on,,,,,0,0,0,,,,,0,,,57,112
135347,note_on,,,,,227,0,1,,,,,0,,,38,0
135347,note_on,,,,,227,0,0,,,,,0,,,53,0
135347,note_on,,,,,0,0,0,,,,,0,,,57,0
135347,note_on,,,,,0,0,1,,,,,0,,,45,0
135360,note_on,,,,,0,0,0,,,,,0,,,57,112
135360,note_on,,,,,13,0,1,,,,,0,,,38,112
135360,note_on,,,,,0,0,1,,,,,0,,,45,112
135360,note_on,,,,,13,0,0,,,,,0,,,53,112
135440,note_on,,,,,80,0,0,,,,,0,,,58,0
135440,note_on,,,,,80,0,1,,,,,0,,,46,0
135587,note_on,,,,,147,0,1,,,,,0,,,38,0
135587,note_on,,,,,0,0,0,,,,,0,,,57,0
135587,note_on,,,,,147,0,0,,,,,0,,,53,0
135587,note_on,,,,,0,0,1,,,,,0,,,45,0
135600,note_on,,,,,13,0,0,,,,,0,,,54,112
135600,note_on,,,,,0,0,1,,,,,0,,,45,112
135600,note_on,,,,,0,0,0,,,,,0,,,57,112
135600,note_on,,,,,13,0,1,,,,,0,,,39,112
135600,note_on,,,,,0,0,0,,,,,0,,,59,127
135600,note_on,,,,,0,0,1,,,,,0,,,47,127
135827,note_on,,,,,0,0,0,,,,,0,,,57,0
135827,note_on,,,,,0,0,1,,,,,0,,,45,0
135827,note_on,,,,,227,0,1,,,,,0,,,39,0
135827,note_on,,,,,227,0,0,,,,,0,,,54,0
135840,note_on,,,,,0,0,0,,,,,0,,,57,112
135840,note_on,,,,,13,0,1,,,,,0,,,39,112
135840,note_on,,,,,0,0,1,,,,,0,,,45,112
135840,note_on,,,,,13,0,0,,,,,0,,,54,112
135920,note_on,,,,,80,0,1,,,,,0,,,47,0
135920,note_on,,,,,80,0,0,,,,,0,,,59,0
136067,note_on,,,,,0,0,0,,,,,0,,,57,0
136067,note_on,,,,,147,0,0,,,,,0,,,54,0
136067,note_on,,,,,147,0,1,,,,,0,,,39,0
136067,note_on,,,,,0,0,1,,,,,0,,,45,0
136080,note_on,,,,,0,0,1,,,,,0,,,40,112
136080,note_on,,,,,0,0,1,,,,,0,,,45,112
136080,note_on,,,,,0,0,0,,,,,0,,,52,112
136080,note_on,,,,,13,0,1,,,,,0,,,33,112
136080,note_on,,,,,0,0,1,,,,,0,,,36,112
136080,note_on,,,,,13,0,0,,,,,0,,,48,112
136080,note_on,,,,,0,0,0,,,,,0,,,57,112
136080,note_on,,,,,0,0,0,,,,,0,,,60,112
136158,note_on,,,,,0,0,0,,,,,0,,,57,0
136158,note_on,,,,,0,0,0,,,,,0,,,60,0
136158,note_on,,,,,78,0,1,,,,,0,,,33,0
136158,note_on,,,,,0,0,1,,,,,0,,,40,0
136158,note_on,,,,,0,0,1,,,,,0,,,45,0
136158,note_on,,,,,0,0,0,,,,,0,,,52,0
136158,note_on,,,,,78,0,0,,,,,0,,,48,0
136158,note_on,,,,,0,0,1,,,,,0,,,36,0
136320,note_on,,,,,162,0,1,,,,,0,,,45,112
136320,note_on,,,,,162,0,0,,,,,0,,,57,112
136547,note_on,,,,,227,0,0,,,,,0,,,57,0
136547,note_on,,,,,227,0,1,,,,,0,,,45,0
136560,note_on,,,,,0,0,0,,,,,0,,,57,112
136560,note_on,,,,,0,0,0,,,,,0,,,58,112
136560,note_on,,,,,0,0,1,,,,,0,,,45,112
136560,note_on,,,,,13,0,0,,,,,0,,,53,112
136560,note_on,,,,,13,0,1,,,,,0,,,38,112
136787,note_on,,,,,0,0,0,,,,,0,,,58,0
136787,note_on,,,,,227,0,1,,,,,0,,,38,0
136787,note_on,,,,,227,0,0,,,,,0,,,53,0
136787,note_on,,,,,0,0,0,,,,,0,,,57,0
136787,note_on,,,,,0,0,1,,,,,0,,,45,0
136800,note_on,,,,,0,0,1,,,,,0,,,45,112
136800,note_on,,,,,13,0,0,,,,,0,,,54,112
136800,note_on,,,,,13,0,1,,,,,0,,,39,112
136800,note_on,,,,,0,0,0,,,,,0,,,59,112
136800,note_on,,,,,0,0,0,,,,,0,,,57,112
137027,note_on,,,,,0,0,0,,,,,0,,,57,0
137027,note_on,,,,,0,0,0,,,,,0,,,59,0
137027,note_on,,,,,227,0,0,,,,,0,,,54,0
137027,note_on,,,,,0,0,1,,,,,0,,,45,0
137027,note_on,,,,,227,0,1,,,,,0,,,39,0
137040,note_on,,,,,0,0,0,,,,,0,,,57,112
137040,note_on,,,,,0,0,0,,,,,0,,,60,112
137040,note_on,,,,,13,0,0,,,,,0,,,52,112
137040,note_on,,,,,13,0,1,,,,,0,,,33,112
137040,note_on,,,,,0,0,1,,,,,0,,,45,112
137267,note_on,,,,,227,0,0,,,,,0,,,52,0
137267,note_on,,,,,0,0,0,,,,,0,,,60,0
137267,note_on,,,,,0,0,0,,,,,0,,,57,0
137267,note_on,,,,,0,0,1,,,,,0,,,45,0
137267,note_on,,,,,227,0,1,,,,,0,,,33,0
137280,note_on,,,,,0,0,0,,,,,0,,,58,112
137280,note_on,,,,,0,0,0,,,,,0,,,62,112
137280,note_on,,,,,13,0,0,,,,,0,,,53,112
137280,note_on,,,,,13,0,1,,,,,0,,,38,112
137280,note_on,,,,,0,0,1,,,,,0,,,45,112
137507,note_on,,,,,227,0,0,,,,,0,,,53,0
137507,note_on,,,,,0,0,1,,,,,0,,,45,0
137507,note_on,,,,,227,0,1,,,,,0,,,38,0
137507,note_on,,,,,0,0,0,,,,,0,,,58,0
137507,note_on,,,,,0,0,0,,,,,0,,,62,0
137520,note_on,,,,,0,0,1,,,,,0,,,45,112
137520,note_on,,,,,13,0,0,,,,,0,,,54,112
137520,note_on,,,,,13,0,1,,,,,0,,,39,112
137520,note_on,,,,,0,0,0,,,,,0,,,59,112
137520,note_on,,,,,0,0,0,,,,,0,,,63,112
137747,note_on,,,,,0,0,1,,,,,0,,,45,0
137747,note_on,,,,,227,0,1,,,,,0,,,39,0
137747,note_on,,,,,0,0,0,,,,,0,,,63,0
137747,note_on,,,,,0,0,0,,,,,0,,,59,0
137747,note_on,,,,,227,0,0,,,,,0,,,54,0
137760,note_on,,,,,0,0,0,,,,,0,,,60,112
137760,note_on,,,,,0,0,0,,,,,0,,,64,112
137760,note_on,,,,,13,0,1,,,,,0,,,33,112
137760,note_on,,,,,13,0,0,,,,,0,,,57,112
137760,note_on,,,,,0,0,1,,,,,0,,,45,112
137987,note_on,,,,,0,0,0,,,,,0,,,64,0
137987,note_on,,,,,227,0,1,,,,,0,,,33,0
137987,note_on,,,,,0,0,1,,,,,0,,,45,0
137987,note_on,,,,,0,0,0,,,,,0,,,60,0
137987,note_on,,,,,227,0,0,,,,,0,,,57,0
138000,note_on,,,,,13,0,1,,,,,0,,,38,112
138000,note_on,,,,,0,0,0,,,,,0,,,65,112
138000,note_on,,,,,13,0,0,,,,,0,,,57,112
138000,note_on,,,,,0,0,0,,,,,0,,,58,112
138000,note_on,,,,,0,0,1,,,,,0,,,50,112
138227,note_on,,,,,227,0,1,,,,,0,,,38,0
138227,note_on,,,,,0,0,0,,,,,0,,,58,0
138227,note_on,,,,,227,0,0,,,,,0,,,57,0
138227,note_on,,,,,0,0,0,,,,,0,,,65,0
138227,note_on,,,,,0,0,1,,,,,0,,,50,0
138240,note_on,,,,,0,0,0,,,,,0,,,58,113
138240,note_on,,,,,0,0,0,,,,,0,,,66,113
138240,note_on,,,,,13,0,1,,,,,0,,,39,113
138240,note_on,,,,,13,0,0,,,,,0,,,57,113
138240,note_on,,,,,0,0,1,,,,,0,,,51,113
138467,note_on,,,,,0,0,0,,,,,0,,,66,0
138467,note_on,,,,,0,0,1,,,,,0,,,51,0
138467,note_on,,,,,227,0,1,,,,,0,,,39,0
138467,note_on,,,,,227,0,0,,,,,0,,,57,0
138467,note_on,,,,,0,0,0,,,,,0,,,58,0
138480,note_on,,,,,0,0,0,,,,,0,,,64,114
138480,note_on,,,,,13,0,1,,,,,0,,,33,114
138480,note_on,,,,,13,0,0,,,,,0,,,60,114
138480,note_on,,,,,0,0,1,,,,,0,,,45,114
138480,note_on,,,,,0,0,0,,,,,0,,,69,114
138707,note_on,,,,,227,0,0,,,,,0,,,60,0
138707,note_on,,,,,0,0,0,,,,,0,,,69,0
138707,note_on,,,,,0,0,0,,,,,0,,,64,0
138707,note_on,,,,,227,0,1,,,,,0,,,33,0
138707,note_on,,,,,0,0,1,,,,,0,,,45,0
138720,note_on,,,,,13,0,1,,,,,0,,,38,115
138720,note_on,,,,,0,0,0,,,,,0,,,69,115
138720,note_on,,,,,0,0,1,,,,,0,,,50,115
138720,note_on,,,,,13,0,0,,,,,0,,,65,115
138720,note_on,,,,,0,0,0,,,,,0,,,70,115
138947,note_on,,,,,0,0,0,,,,,0,,,69,0
138947,note_on,,,,,0,0,0,,,,,0,,,70,0
138947,note_on,,,,,227,0,0,,,,,0,,,65,0
138947,note_on,,,,,227,0,1,,,,,0,,,38,0
138947,note_on,,,,,0,0,1,,,,,0,,,50,0
138960,note_on,,,,,13,0,1,,,,,0,,,39,116
138960,note_on,,,,,0,0,0,,,,,0,,,71,116
138960,note_on,,,,,13,0,0,,,,,0,,,66,116
138960,note_on,,,,,0,0,0,,,,,0,,,69,116
138960,note_on,,,,,0,0,1,,,,,0,,,51,116
139187,note_on,,,,,227,0,1,,,,,0,,,39,0
139187,note_on,,,,,0,0,1,,,,,0,,,51,0
139187,note_on,,,,,0,0,0,,,,,0,,,71,0
139187,note_on,,,,,0,0,0,,,,,0,,,69,0
139187,note_on,,,,,227,0,0,,,,,0,,,66,0
139200,note_on,,,,,0,0,1,,,,,0,,,45,117
139200,note_on,,,,,0,0,0,,,,,0,,,72,117
139200,note_on,,,,,13,0,1,,,,,0,,,33,117
139200,note_on,,,,,0,0,0,,,,,0,,,69,117
139200,note_on,,,,,13,0,0,,,,,0,,,64,117
139427,note_on,,,,,227,0,1,,,,,0,,,33,0
139427,note_on,,,,,0,0,1,,,,,0,,,45,0
139427,note_on,,,,,227,0,0,,,,,0,,,64,0
139427,note_on,,,,,0,0,0,,,,,0,,,72,0
139427,note_on,,,,,0,0,0,,,,,0,,,69,0
139440,note_on,,,,,0,0,0,,,,,0,,,70,118
139440,note_on,,,,,0,0,0,,,,,0,,,77,118
139440,note_on,,,,,13,0,0,,,,,0,,,69,118
139440,note_on,,,,,13,0,1,,,,,0,,,38,118
139440,note_on,,,,,0,0,1,,,,,0,,,50,118
139667,note_on,,,,,0,0,0,,,,,0,,,70,0
139667,note_on,,,,,0,0,0,,,,,0,,,77,0
139667,note_on,,,,,227,0,1,,,,,0,,,38,0
139667,note_on,,,,,0,0,1,,,,,0,,,50,0
139667,note_on,,,,,227,0,0,,,,,0,,,69,0
139680,note_on,,,,,13,0,0,,,,,0,,,69,119
139680,note_on,,,,,0,0,1,,,,,0,,,51,119
139680,note_on,,,,,0,0,0,,,,,0,,,71,119
139680,note_on,,,,,13,0,1,,,,,0,,,39,119
139680,note_on,,,,,0,0,0,,,,,0,,,78,119
139907,note_on,,,,,0,0,1,,,,,0,,,51,0
139907,note_on,,,,,227,0,0,,,,,0,,,69,0
139907,note_on,,,,,227,0,1,,,,,0,,,39,0
139907,note_on,,,,,0,0,0,,,,,0,,,71,0
139907,note_on,,,,,0,0,0,,,,,0,,,78,0
139920,note_on,,,,,13,0,0,,,,,0,,,69,120
139920,note_on,,,,,0,0,0,,,,,0,,,81,120
139920,note_on,,,,,0,0,0,,,,,0,,,76,120
139920,note_on,,,,,0,0,1,,,,,0,,,45,120
139920,note_on,,,,,13,0,1,,,,,0,,,33,120
139920,note_on,,,,,0,0,0,,,,,0,,,72,120
140147,note_on,,,,,0,0,0,,,,,0,,,72,0
140147,note_on,,,,,0,0,0,,,,,0,,,76,0
140147,note_on,,,,,0,0,0,,,,,0,,,81,0
140147,note_on,,,,,227,0,1,,,,,0,,,33,0
140147,note_on,,,,,227,0,0,,,,,0,,,69,0
140147,note_on,,,,,0,0,1,,,,,0,,,45,0
140160,note_on,,,,,0,0,0,,,,,0,,,82,121
140160,note_on,,,,,0,0,0,,,,,0,,,81,121
140160,note_on,,,,,13,0,1,,,,,0,,,38,121
140160,note_on,,,,,13,0,0,,,,,0,,,77,121
140160,note_on,,,,,0,0,1,,,,,0,,,50,121
140387,note_on,,,,,0,0,1,,,,,0,,,50,0
140387,note_on,,,,,0,0,0,,,,,0,,,81,0
140387,note_on,,,,,0,0,0,,,,,0,,,82,0
140387,note_on,,,,,227,0,0,,,,,0,,,77,0
140387,note_on,,,,,227,0,1,,,,,0,,,38,0
140400,note_on,,,,,13,0,0,,,,,0,,,78,122
140400,note_on,,,,,0,0,0,,,,,0,,,83,122
140400,note_on,,,,,13,0,1,,,,,0,,,39,122
140400,note_on,,,,,0,0,0,,,,,0,,,81,122
140400,note_on,,,,,0,0,1,,,,,0,,,51,122
140627,note_on,,,,,0,0,1,,,,,0,,,51,0
140627,note_on,,,,,0,0,0,,,,,0,,,81,0
140627,note_on,,,,,227,0,1,,,,,0,,,39,0
140627,note_on,,,,,0,0,0,,,,,0,,,83,0
140627,note_on,,,,,227,0,0,,,,,0,,,78,0
140640,note_on,,,,,0,0,0,,,,,0,,,81,123
140640,note_on,,,,,0,0,1,,,,,0,,,45,123
140640,note_on,,,,,13,0,0,,,,,0,,,76,123
140640,note_on,,,,,0,0,0,,,,,0,,,84,123
140640,note_on,,,,,13,0,1,,,,,0,,,33,123
140867,note_on,,,,,0,0,1,,,,,0,,,45,0
140867,note_on,,,,,0,0,0,,,,,0,,,84,0
140867,note_on,,,,,227,0,0,,,,,0,,,76,0
140867,note_on,,,,,0,0,0,,,,,0,,,81,0
140867,note_on,,,,,227,0,1,,,,,0,,,33,0
140880,note_on,,,,,13,0,1,,,,,0,,,38,124
140880,note_on,,,,,0,0,1,,,,,0,,,50,124
140880,note_on,,,,,13,0,0,,,,,0,,,81,124
140880,note_on,,,,,0,0,0,,,,,0,,,82,124
140880,note_on,,,,,0,0,0,,,,,0,,,89,124
141107,note_on,,,,,0,0,0,,,,,0,,,82,0
141107,note_on,,,,,227,0,0,,,,,0,,,81,0
141107,note_on,,,,,227,0,1,,,,,0,,,38,0
141107,note_on,,,,,0,0,1,,,,,0,,,50,0
141107,note_on,,,,,0,0,0,,,,,0,,,89,0
141120,note_on,,,,,0,0,1,,,,,0,,,51,125
141120,note_on,,,,,13,0,0,,,,,0,,,81,125
141120,note_on,,,,,0,0,0,,,,,0,,,83,125
141120,note_on,,,,,0,0,0,,,,,0,,,90,125
141120,note_on,,,,,13,0,1,,,,,0,,,39,125
141347,note_on,,,,,227,0,0,,,,,0,,,81,0
141347,note_on,,,,,0,0,0,,,,,0,,,83,0
141347,note_on,,,,,0,0,0,,,,,0,,,90,0
141347,note_on,,,,,227,0,1,,,,,0,,,39,0
141347,note_on,,,,,0,0,1,,,,,0,,,51,0
141360,note_on,,,,,0,0,1,,,,,0,,,45,126
141360,note_on,,,,,13,0,0,,,,,0,,,81,126
141360,note_on,,,,,0,0,0,,,,,0,,,93,126
141360,note_on,,,,,0,0,0,,,,,0,,,88,126
141360,note_on,,,,,0,0,0,,,,,0,,,84,126
141360,note_on,,,,,13,0,1,,,,,0,,,33,126
141517,note_on,,,,,0,0,1,,,,,0,,,45,0
141517,note_on,,,,,0,0,0,,,,,0,,,84,0
141517,note_on,,,,,0,0,0,,,,,0,,,93,0
141517,note_on,,,,,157,0,0,,,,,0,,,81,0
141517,note_on,,,,,0,0,0,,,,,0,,,88,0
141517,note_on,,,,,157,0,1,,,,,0,,,33,0
141840,note_on,,,,,323,0,0,,,,,0,,,82,126
141840,note_on,,,,,0,0,1,,,,,0,,,50,126
141840,note_on,,,,,0,0,0,,,,,0,,,94,126
141840,note_on,,,,,0,0,0,,,,,0,,,93,126
141840,note_on,,,,,0,0,0,,,,,0,,,89,126
141840,note_on,,,,,0,0,1,,,,,0,,,45,126
141840,note_on,,,,,323,0,1,,,,,0,,,38,126
141997,note_on,,,,,157,0,0,,,,,0,,,82,0
141997,note_on,,,,,0,0,0,,,,,0,,,93,0
141997,note_on,,,,,0,0,0,,,,,0,,,89,0
141997,note_on,,,,,0,0,1,,,,,0,,,45,0
141997,note_on,,,,,157,0,1,,,,,0,,,38,0
141997,note_on,,,,,0,0,1,,,,,0,,,50,0
141997,note_on,,,,,0,0,0,,,,,0,,,94,0
142320,note_on,,,,,323,0,0,,,,,0,,,83,126
142320,note_on,,,,,323,0,1,,,,,0,,,39,126
142320,note_on,,,,,0,0,1,,,,,0,,,45,126
142320,note_on,,,,,0,0,1,,,,,0,,,51,126
142320,note_on,,,,,0,0,0,,,,,0,,,93,126
142320,note_on,,,,,0,0,0,,,,,0,,,90,126
142320,note_on,,,,,0,0,0,,,,,0,,,95,126
142477,note_on,,,,,0,0,0,,,,,0,,,90,0
142477,note_on,,,,,157,0,1,,,,,0,,,39,0
142477,note_on,,,,,0,0,1,,,,,0,,,45,0
142477,note_on,,,,,0,0,0,,,,,0,,,95,0
142477,note_on,,,,,0,0,1,,,,,0,,,51,0
142477,note_on,,,,,157,0,0,,,,,0,,,83,0
142477,note_on,,,,,0,0,0,,,,,0,,,93,0
142800,note_on,,,,,0,0,0,,,,,0,,,96,126
142800,note_on,,,,,323,0,0,,,,,0,,,84,126
142800,note_on,,,,,323,0,1,,,,,0,,,33,126
142800,note_on,,,,,0,0,0,,,,,0,,,93,126
142800,note_on,,,,,0,0,1,,,,,0,,,45,126
142800,note_on,,,,,0,0,0,,,,,0,,,88,126
142957,note_on,,,,,157,0,0,,,,,0,,,84,0
142957,note_on,,,,,157,0,1,,,,,0,,,33,0
142957,note_on,,,,,0,0,0,,,,,0,,,96,0
142957,note_on,,,,,0,0,0,,,,,0,,,93,0
142957,note_on,,,,,0,0,0,,,,,0,,,88,0
142957,note_on,,,,,0,0,1,,,,,0,,,45,0
143280,note_on,,,,,0,0,1,,,,,0,,,46,126
143280,note_on,,,,,323,0,1,,,,,0,,,38,126
143280,note_on,,,,,0,0,1,,,,,0,,,50,126
143280,note_on,,,,,0,0,1,,,,,0,,,41,126
143280,note_on,,,,,323,0,0,,,,,0,,,89,126
143280,note_on,,,,,0,0,0,,,,,0,,,94,126
143280,note_on,,,,,0,0,0,,,,,0,,,101,126
143437,note_on,,,,,0,0,0,,,,,0,,,94,0
143437,note_on,,,,,157,0,0,,,,,0,,,89,0
143437,note_on,,,,,0,0,0,,,,,0,,,101,0
143437,note_on,,,,,157,0,1,,,,,0,,,38,0
143437,note_on,,,,,0,0,1,,,,,0,,,50,0
143437,note_on,,,,,0,0,1,,,,,0,,,46,0
143437,note_on,,,,,0,0,1,,,,,0,,,41,0
144720,note_on,,,,,0,0,0,,,,,0,,,88,126
144720,note_on,,,,,0,0,0,,,,,0,,,92,126
144720,note_on,,,,,0,0,0,,,,,0,,,95,126
144720,note_on,,,,,0,0,1,,,,,0,,,44,126
144720,note_on,,,,,1283,0,1,,,,,0,,,40,126
144720,note_on,,,,,0,0,1,,,,,0,,,52,126
144720,note_on,,,,,0,0,1,,,,,0,,,47,126
144720,note_on,,,,,1283,0,0,,,,,0,,,86,126
144720,note_on,,,,,0,0,0,,,,,0,,,100,126
144877,note_on,,,,,157,0,1,,,,,0,,,40,0
144877,note_on,,,,,0,0,1,,,,,0,,,52,0
144877,note_on,,,,,0,0,1,,,,,0,,,47,0
144877,note_on,,,,,0,0,1,,,,,0,,,44,0
144877,note_on,,,,,157,0,0,,,,,0,,,86,0
144877,note_on,,,,,0,0,0,,,,,0,,,88,0
144877,note_on,,,,,0,0,0,,,,,0,,,100,0
144877,note_on,,,,,0,0,0,,,,,0,,,95,0
144877,note_on,,,,,0,0,0,,,,,0,,,92,0
145440,set_tempo,,,,,563,1,0,,375000,,,,,,,
145440,note_on,,,,,0,0,0,,,,,0,,,76,126
145440,note_on,,,,,0,0,0,,,,,0,,,64,126
145440,note_on,,,,,563,0,1,,,,,0,,,52,126
145442,control_change,,,,,2,0,0,,,64,127,0,,,,
145667,note_on,,,,,227,0,1,,,,,0,,,52,0
145667,note_on,,,,,0,0,0,,,,,0,,,76,0
145667,note_on,,,,,225,0,0,,,,,0,,,64,0
145680,note_on,,,,,13,0,1,,,,,0,,,52,126
145680,note_on,,,,,13,0,0,,,,,0,,,64,126
145680,note_on,,,,,0,0,0,,,,,0,,,76,126
145907,note_on,,,,,0,0,0,,,,,0,,,76,0
145907,note_on,,,,,227,0,0,,,,,0,,,64,0
145907,note_on,,,,,227,0,1,,,,,0,,,52,0
145920,note_on,,,,,13,0,0,,,,,0,,,64,126
145920,note_on,,,,,13,0,1,,,,,0,,,52,126
145920,note_on,,,,,0,0,0,,,,,0,,,76,126
146147,note_on,,,,,227,0,1,,,,,0,,,52,0
146147,note_on,,,,,0,0,0,,,,,0,,,76,0
146147,note_on,,,,,227,0,0,,,,,0,,,64,0
146160,note_on,,,,,13,0,1,,,,,0,,,45,126
146160,note_on,,,,,0,0,0,,,,,0,,,64,126
146160,set_tempo,,,,,13,1,0,,1124999,,,,,,,
146160,note_on,,,,,0,0,0,,,,,0,,,72,126
146160,note_on,,,,,0,0,0,,,,,0,,,76,126
146160,note_on,,,,,0,0,1,,,,,0,,,52,126
147527,note_on,,,,,0,0,0,,,,,0,,,72,0
147527,note_on,,,,,0,0,1,,,,,0,,,52,0
147527,note_on,,,,,1367,0,1,,,,,0,,,45,0
147527,note_on,,,,,0,0,0,,,,,0,,,76,0
147527,note_on,,,,,1367,0,0,,,,,0,,,64,0
147528,end_of_track,,,,,1,1,1,,,,,,,,,
147599,set_tempo,,,,,72,1,0,,375000,,,,,,,
147600,control_change,,,,,1,0,0,,,64,0,0,,,,
147601,end_of_track,,,,,1,1,0,,,,,,,,,
