tick,type,numerator,denominator,clocks_per_click,notated_32nd_notes_per_beat,time,meta,track,key,tempo,control,value,channel,program,port,note,velocity
0,control_change,,,,,0,0,0,,,7,100,0,,,,
0,note_on,,,,,0,0,1,,,,,0,,,64,112
0,midi_port,,,,,0,1,1,,,,,,,0,,
0,midi_port,,,,,0,1,0,,,,,,,0,,
0,key_signature,,,,,0,1,1,Eb,,,,,,,,
0,key_signature,,,,,0,1,0,Eb,,,,,,,,
0,program_change,,,,,0,0,0,,,,,0,0,,,
0,set_tempo,,,,,0,1,0,,599999,,,,,,,
0,note_on,,,,,0,0,1,,,,,0,,,52,112
0,time_signature,4,4,24,8,0,1,0,,,,,,,,,
0,control_change,,,,,0,0,0,,,121,0,0,,,,
0,control_change,,,,,0,0,0,,,93,0,0,,,,
0,control_change,,,,,0,0,0,,,91,0,0,,,,
0,control_change,,,,,0,0,0,,,10,64,0,,,,
2,control_change,,,,,2,0,0,,,64,127,0,,,,
50,note_on,,,,,0,0,1,,,,,0,,,64,0
50,note_on,,,,,50,0,1,,,,,0,,,52,0
51,note_on,,,,,1,0,1,,,,,0,,,52,112
51,note_on,,,,,0,0,1,,,,,0,,,64,112
191,note_on,,,,,0,0,1,,,,,0,,,64,0
191,note_on,,,,,140,0,1,,,,,0,,,52,0
480,note_on,,,,,478,0,0,,,,,0,,,46,112
480,note_on,,,,,0,0,0,,,,,0,,,49,112
480,note_on,,,,,289,0,1,,,,,0,,,31,112
480,note_on,,,,,0,0,1,,,,,0,,,40,112
480,note_on,,,,,0,0,1,,,,,0,,,43,112
637,note_on,,,,,157,0,0,,,,,0,,,46,0
637,note_on,,,,,0,0,0,,,,,0,,,49,0
637,note_on,,,,,0,0,1,,,,,0,,,43,0
637,note_on,,,,,0,0,1,,,,,0,,,40,0
637,note_on,,,,,157,0,1,,,,,0,,,31,0
960,note_on,,,,,0,0,0,,,,,0,,,88,112
960,note_on,,,,,0,0,1,,,,,0,,,64,112
960,note_on,,,,,323,0,0,,,,,0,,,76,112
960,note_on,,,,,323,0,1,,,,,0,,,52,112
1117,note_on,,,,,157,0,0,,,,,0,,,76,0
1117,note_on,,,,,0,0,1,,,,,0,,,64,0
1117,note_on,,,,,157,0,1,,,,,0,,,52,0
1117,note_on,,,,,0,0,0,,,,,0,,,88,0
1440,note_on,,,,,323,0,0,,,,,0,,,58,112
1440,note_on,,,,,323,0,1,,,,,0,,,43,112
1440,note_on,,,,,0,0,0,,,,,0,,,61,112
1440,note_on,,,,,0,0,1,,,,,0,,,55,112
1440,note_on,,,,,0,0,1,,,,,0,,,52,112
1597,note_on,,,,,157,0,0,,,,,0,,,58,0
1597,note_on,,,,,157,0,1,,,,,0,,,43,0
1597,note_on,,,,,0,0,1,,,,,0,,,55,0
1597,note_on,,,,,0,0,0,,,,,0,,,61,0
1597,note_on,,,,,0,0,1,,,,,0,,,52,0
1920,note_on,,,,,323,0,1,,,,,0,,,67,112
1920,note_on,,,,,0,0,0,,,,,0,,,100,112
1920,note_on,,,,,323,0,0,,,,,0,,,88,112
1920,note_on,,,,,0,0,0,,,,,0,,,94,112
1983,note_on,,,,,63,0,1,,,,,0,,,73,112
2047,note_on,,,,,64,0,1,,,,,0,,,76,112
2112,note_on,,,,,65,0,1,,,,,0,,,82,112
2375,note_on,,,,,0,0,0,,,,,0,,,94,0
2375,note_on,,,,,455,0,0,,,,,0,,,88,0
2398,note_on,,,,,0,0,1,,,,,0,,,76,0
2398,note_on,,,,,286,0,1,,,,,0,,,73,0
2399,note_on,,,,,1,0,1,,,,,0,,,67,0
2399,note_on,,,,,0,0,1,,,,,0,,,82,0
2432,note_on,,,,,57,0,0,,,,,0,,,100,0
2460,note_on,,,,,28,0,0,,,,,0,,,99,112
2516,note_on,,,,,56,0,0,,,,,0,,,99,0
2520,note_on,,,,,4,0,0,,,,,0,,,97,112
2576,note_on,,,,,56,0,0,,,,,0,,,97,0
2580,note_on,,,,,4,0,0,,,,,0,,,94,112
2636,note_on,,,,,56,0,0,,,,,0,,,94,0
2640,note_on,,,,,4,0,0,,,,,0,,,88,112
2696,note_on,,,,,56,0,0,,,,,0,,,88,0
2700,note_on,,,,,4,0,0,,,,,0,,,87,112
2756,note_on,,,,,56,0,0,,,,,0,,,87,0
2760,note_on,,,,,4,0,0,,,,,0,,,85,112
2816,note_on,,,,,56,0,0,,,,,0,,,85,0
2820,note_on,,,,,4,0,0,,,,,0,,,82,112
2876,note_on,,,,,56,0,0,,,,,0,,,82,0
2880,note_on,,,,,4,0,0,,,,,0,,,76,112
2936,note_on,,,,,56,0,0,,,,,0,,,76,0
2940,note_on,,,,,4,0,0,,,,,0,,,75,112
2996,note_on,,,,,56,0,0,,,,,0,,,75,0
3000,note_on,,,,,4,0,0,,,,,0,,,73,112
3056,note_on,,,,,56,0,0,,,,,0,,,73,0
3060,note_on,,,,,4,0,0,,,,,0,,,70,112
3116,note_on,,,,,56,0,0,,,,,0,,,70,0
3120,note_on,,,,,4,0,0,,,,,0,,,64,112
3176,note_on,,,,,56,0,0,,,,,0,,,64,0
3180,note_on,,,,,4,0,0,,,,,0,,,63,112
3236,note_on,,,,,56,0,0,,,,,0,,,63,0
3240,note_on,,,,,4,0,0,,,,,0,,,61,112
3296,note_on,,,,,56,0,0,,,,,0,,,61,0
3300,note_on,,,,,4,0,0,,,,,0,,,58,112
3356,note_on,,,,,56,0,0,,,,,0,,,58,0
3360,note_on,,,,,4,0,0,,,,,0,,,52,112
3409,note_on,,,,,49,0,0,,,,,0,,,52,0
3413,note_on,,,,,4,0,0,,,,,0,,,51,112
3462,note_on,,,,,49,0,0,,,,,0,,,51,0
3466,note_on,,,,,4,0,0,,,,,0,,,49,112
3515,note_on,,,,,49,0,0,,,,,0,,,49,0
3519,note_on,,,,,4,0,0,,,,,0,,,46,112
3568,note_on,,,,,49,0,0,,,,,0,,,46,0
3572,note_on,,,,,4,0,0,,,,,0,,,40,112
3621,note_on,,,,,49,0,0,,,,,0,,,40,0
3625,note_on,,,,,4,0,0,,,,,0,,,39,112
3674,note_on,,,,,49,0,0,,,,,0,,,39,0
3678,note_on,,,,,4,0,0,,,,,0,,,37,112
3727,note_on,,,,,49,0,0,,,,,0,,,37,0
3731,note_on,,,,,4,0,0,,,,,0,,,34,112
3780,note_on,,,,,49,0,0,,,,,0,,,34,0
3784,note_on,,,,,4,0,0,,,,,0,,,31,112
3785,control_change,,,,,1,0,0,,,64,0,0,,,,
3836,note_on,,,,,51,0,0,,,,,0,,,31,0
3840,note_on,,,,,1441,0,1,,,,,0,,,32,112
3918,note_on,,,,,78,0,1,,,,,0,,,32,0
4680,note_on,,,,,762,0,1,,,,,0,,,43,49
4680,note_on,,,,,0,0,1,,,,,0,,,46,49
4680,note_on,,,,,0,0,1,,,,,0,,,52,49
4799,note_on,,,,,0,0,1,,,,,0,,,46,0
4799,note_on,,,,,0,0,1,,,,,0,,,52,0
4799,note_on,,,,,119,0,1,,,,,0,,,43,0
4800,note_on,,,,,0,0,1,,,,,0,,,47,49
4800,note_on,,,,,1,0,1,,,,,0,,,44,49
4878,note_on,,,,,78,0,1,,,,,0,,,44,0
4878,note_on,,,,,0,0,1,,,,,0,,,47,0
5160,note_on,,,,,282,0,1,,,,,0,,,46,49
5160,note_on,,,,,0,0,1,,,,,0,,,55,49
5160,note_on,,,,,0,0,1,,,,,0,,,49,49
5279,note_on,,,,,0,0,1,,,,,0,,,49,0
5279,note_on,,,,,0,0,1,,,,,0,,,55,0
5279,note_on,,,,,119,0,1,,,,,0,,,46,0
5280,note_on,,,,,1,0,1,,,,,0,,,47,49
5280,note_on,,,,,0,0,1,,,,,0,,,56,49
5280,note_on,,,,,0,0,1,,,,,0,,,52,49
5358,note_on,,,,,0,0,1,,,,,0,,,56,0
5358,note_on,,,,,78,0,1,,,,,0,,,47,0
5358,note_on,,,,,0,0,1,,,,,0,,,52,0
5640,note_on,,,,,0,0,1,,,,,0,,,58,49
5640,note_on,,,,,0,0,1,,,,,0,,,61,49
5640,note_on,,,,,282,0,1,,,,,0,,,55,49
5759,note_on,,,,,119,0,1,,,,,0,,,55,0
5759,note_on,,,,,0,0,1,,,,,0,,,58,0
5759,note_on,,,,,0,0,1,,,,,0,,,61,0
5760,note_on,,,,,1,0,1,,,,,0,,,56,49
5760,note_on,,,,,0,0,1,,,,,0,,,59,49
5838,note_on,,,,,78,0,1,,,,,0,,,56,0
5838,note_on,,,,,0,0,1,,,,,0,,,59,0
6240,note_on,,,,,0,0,1,,,,,0,,,64,49
6240,note_on,,,,,0,0,1,,,,,0,,,71,49
6240,note_on,,,,,0,0,0,,,,,0,,,88,49
6240,note_on,,,,,0,0,0,,,,,0,,,83,49
6240,note_on,,,,,402,0,1,,,,,0,,,56,49
6240,note_on,,,,,2404,0,0,,,,,0,,,76,49
6318,note_on,,,,,0,0,0,,,,,0,,,83,0
6318,note_on,,,,,0,0,0,,,,,0,,,88,0
6318,note_on,,,,,78,0,0,,,,,0,,,76,0
6318,note_on,,,,,78,0,1,,,,,0,,,56,0
6318,note_on,,,,,0,0,1,,,,,0,,,71,0
6318,note_on,,,,,0,0,1,,,,,0,,,64,0
7680,note_on,,,,,0,0,1,,,,,0,,,65,112
7680,note_on,,,,,1362,0,1,,,,,0,,,53,112
7682,control_change,,,,,1364,0,0,,,64,127,0,,,,
7730,note_on,,,,,50,0,1,,,,,0,,,53,0
7730,note_on,,,,,0,0,1,,,,,0,,,65,0
7731,note_on,,,,,1,0,1,,,,,0,,,53,112
7731,note_on,,,,,0,0,1,,,,,0,,,65,112
7871,note_on,,,,,0,0,1,,,,,0,,,65,0
7871,note_on,,,,,140,0,1,,,,,0,,,53,0
8160,note_on,,,,,289,0,1,,,,,0,,,32,112
8160,note_on,,,,,0,0,1,,,,,0,,,41,112
8160,note_on,,,,,478,0,0,,,,,0,,,47,112
8160,note_on,,,,,0,0,0,,,,,0,,,50,112
8160,note_on,,,,,0,0,1,,,,,0,,,44,112
8317,note_on,,,,,157,0,1,,,,,0,,,32,0
8317,note_on,,,,,0,0,1,,,,,0,,,44,0
8317,note_on,,,,,0,0,1,,,,,0,,,41,0
8317,note_on,,,,,157,0,0,,,,,0,,,47,0
8317,note_on,,,,,0,0,0,,,,,0,,,50,0
8640,note_on,,,,,0,0,0,,,,,0,,,89,112
8640,note_on,,,,,323,0,1,,,,,0,,,53,112
8640,note_on,,,,,323,0,0,,,,,0,,,77,112
8640,note_on,,,,,0,0,1,,,,,0,,,65,112
8797,note_on,,,,,0,0,0,,,,,0,,,89,0
8797,note_on,,,,,0,0,1,,,,,0,,,65,0
8797,note_on,,,,,157,0,0,,,,,0,,,77,0
8797,note_on,,,,,157,0,1,,,,,0,,,53,0
9120,note_on,,,,,0,0,1,,,,,0,,,53,112
9120,note_on,,,,,0,0,0,,,,,0,,,62,112
9120,note_on,,,,,323,0,0,,,,,0,,,59,112
9120,note_on,,,,,323,0,1,,,,,0,,,44,112
9120,note_on,,,,,0,0,1,,,,,0,,,56,112
9277,note_on,,,,,0,0,0,,,,,0,,,62,0
9277,note_on,,,,,157,0,1,,,,,0,,,44,0
9277,note_on,,,,,157,0,0,,,,,0,,,59,0
9277,note_on,,,,,0,0,1,,,,,0,,,56,0
9277,note_on,,,,,0,0,1,,,,,0,,,53,0
9600,note_on,,,,,323,0,1,,,,,0,,,68,112
9600,note_on,,,,,0,0,0,,,,,0,,,101,112
9600,note_on,,,,,323,0,0,,,,,0,,,89,112
9600,note_on,,,,,0,0,0,,,,,0,,,95,112
9663,note_on,,,,,63,0,1,,,,,0,,,74,112
9727,note_on,,,,,64,0,1,,,,,0,,,77,112
9792,note_on,,,,,65,0,1,,,,,0,,,86,112
10055,note_on,,,,,455,0,0,,,,,0,,,89,0
10055,note_on,,,,,0,0,0,,,,,0,,,95,0
10078,note_on,,,,,286,0,1,,,,,0,,,74,0
10078,note_on,,,,,0,0,1,,,,,0,,,77,0
10079,note_on,,,,,0,0,1,,,,,0,,,86,0
10079,note_on,,,,,1,0,1,,,,,0,,,68,0
10112,note_on,,,,,57,0,0,,,,,0,,,101,0
10140,note_on,,,,,28,0,0,,,,,0,,,100,112
10196,note_on,,,,,56,0,0,,,,,0,,,100,0
10200,note_on,,,,,4,0,0,,,,,0,,,98,112
10256,note_on,,,,,56,0,0,,,,,0,,,98,0
10260,note_on,,,,,4,0,0,,,,,0,,,95,112
10316,note_on,,,,,56,0,0,,,,,0,,,95,0
10320,note_on,,,,,4,0,0,,,,,0,,,89,112
10376,note_on,,,,,56,0,0,,,,,0,,,89,0
10380,note_on,,,,,4,0,0,,,,,0,,,88,112
10436,note_on,,,,,56,0,0,,,,,0,,,88,0
10440,note_on,,,,,4,0,0,,,,,0,,,86,112
10496,note_on,,,,,56,0,0,,,,,0,,,86,0
10500,note_on,,,,,4,0,0,,,,,0,,,83,112
10556,note_on,,,,,56,0,0,,,,,0,,,83,0
10560,note_on,,,,,4,0,0,,,,,0,,,77,112
10616,note_on,,,,,56,0,0,,,,,0,,,77,0
10620,note_on,,,,,4,0,0,,,,,0,,,76,112
10676,note_on,,,,,56,0,0,,,,,0,,,76,0
10680,note_on,,,,,4,0,0,,,,,0,,,74,112
10736,note_on,,,,,56,0,0,,,,,0,,,74,0
10740,note_on,,,,,4,0,0,,,,,0,,,71,112
10796,note_on,,,,,56,0,0,,,,,0,,,71,0
10800,note_on,,,,,4,0,0,,,,,0,,,65,112
10856,note_on,,,,,56,0,0,,,,,0,,,65,0
10860,note_on,,,,,4,0,0,,,,,0,,,64,112
10916,note_on,,,,,56,0,0,,,,,0,,,64,0
10920,note_on,,,,,4,0,0,,,,,0,,,62,112
10976,note_on,,,,,56,0,0,,,,,0,,,62,0
10980,note_on,,,,,4,0,0,,,,,0,,,59,112
11036,note_on,,,,,56,0,0,,,,,0,,,59,0
11040,note_on,,,,,4,0,0,,,,,0,,,53,112
11089,note_on,,,,,49,0,0,,,,,0,,,53,0
11093,note_on,,,,,4,0,0,,,,,0,,,52,112
11142,note_on,,,,,49,0,0,,,,,0,,,52,0
11146,note_on,,,,,4,0,0,,,,,0,,,50,112
11195,note_on,,,,,49,0,0,,,,,0,,,50,0
11199,note_on,,,,,4,0,0,,,,,0,,,47,112
11248,note_on,,,,,49,0,0,,,,,0,,,47,0
11252,note_on,,,,,4,0,0,,,,,0,,,41,112
11301,note_on,,,,,49,0,0,,,,,0,,,41,0
11305,note_on,,,,,4,0,0,,,,,0,,,40,112
11354,note_on,,,,,49,0,0,,,,,0,,,40,0
11358,note_on,,,,,4,0,0,,,,,0,,,38,112
11407,note_on,,,,,49,0,0,,,,,0,,,38,0
11411,note_on,,,,,4,0,0,,,,,0,,,35,112
11460,note_on,,,,,49,0,0,,,,,0,,,35,0
11464,note_on,,,,,4,0,0,,,,,0,,,32,112
11465,control_change,,,,,1,0,0,,,64,0,0,,,,
11516,note_on,,,,,51,0,0,,,,,0,,,32,0
11520,note_on,,,,,1441,0,1,,,,,0,,,33,112
11598,note_on,,,,,78,0,1,,,,,0,,,33,0
12360,note_on,,,,,0,0,1,,,,,0,,,47,49
12360,note_on,,,,,762,0,1,,,,,0,,,44,49
12360,note_on,,,,,0,0,1,,,,,0,,,53,49
12479,note_on,,,,,119,0,1,,,,,0,,,44,0
12479,note_on,,,,,0,0,1,,,,,0,,,53,0
12479,note_on,,,,,0,0,1,,,,,0,,,47,0
12480,note_on,,,,,0,0,1,,,,,0,,,54,49
12480,note_on,,,,,1,0,1,,,,,0,,,45,49
12480,note_on,,,,,0,0,1,,,,,0,,,50,49
12558,note_on,,,,,0,0,1,,,,,0,,,50,0
12558,note_on,,,,,0,0,1,,,,,0,,,54,0
12558,note_on,,,,,78,0,1,,,,,0,,,45,0
12840,note_on,,,,,0,0,1,,,,,0,,,56,49
12840,note_on,,,,,282,0,1,,,,,0,,,53,49
12840,note_on,,,,,0,0,1,,,,,0,,,59,49
12959,note_on,,,,,0,0,1,,,,,0,,,59,0
12959,note_on,,,,,0,0,1,,,,,0,,,56,0
12959,note_on,,,,,119,0,1,,,,,0,,,53,0
12960,note_on,,,,,0,0,1,,,,,0,,,57,49
12960,note_on,,,,,1,0,1,,,,,0,,,54,49
13038,note_on,,,,,78,0,1,,,,,0,,,54,0
13038,note_on,,,,,0,0,1,,,,,0,,,57,0
13320,note_on,,,,,0,0,0,,,,,0,,,74,49
13320,note_on,,,,,0,0,0,,,,,0,,,68,49
13320,note_on,,,,,282,0,1,,,,,0,,,59,49
13320,note_on,,,,,1804,0,0,,,,,0,,,65,49
13320,note_on,,,,,0,0,1,,,,,0,,,62,49
13439,note_on,,,,,0,0,1,,,,,0,,,62,0
13439,note_on,,,,,0,0,0,,,,,0,,,68,0
13439,note_on,,,,,0,0,0,,,,,0,,,74,0
13439,note_on,,,,,119,0,1,,,,,0,,,59,0
13439,note_on,,,,,119,0,0,,,,,0,,,65,0
13440,note_on,,,,,0,0,1,,,,,0,,,62,49
13440,note_on,,,,,0,0,0,,,,,0,,,69,49
13440,note_on,,,,,1,0,0,,,,,0,,,66,49
13440,note_on,,,,,1,0,1,,,,,0,,,57,49
13518,note_on,,,,,78,0,0,,,,,0,,,66,0
13518,note_on,,,,,0,0,0,,,,,0,,,69,0
13518,note_on,,,,,78,0,1,,,,,0,,,57,0
13518,note_on,,,,,0,0,1,,,,,0,,,62,0
13920,note_on,,,,,0,0,0,,,,,0,,,90,49
13920,note_on,,,,,0,0,1,,,,,0,,,66,49
13920,note_on,,,,,0,0,1,,,,,0,,,74,49
13920,note_on,,,,,0,0,0,,,,,0,,,86,49
13920,note_on,,,,,402,0,0,,,,,0,,,78,49
13920,note_on,,,,,402,0,1,,,,,0,,,57,49
13998,note_on,,,,,0,0,0,,,,,0,,,86,0
13998,note_on,,,,,0,0,0,,,,,0,,,90,0
13998,note_on,,,,,78,0,1,,,,,0,,,57,0
13998,note_on,,,,,78,0,0,,,,,0,,,78,0
13998,note_on,,,,,0,0,1,,,,,0,,,66,0
13998,note_on,,,,,0,0,1,,,,,0,,,74,0
15360,note_on,,,,,1362,0,1,,,,,0,,,54,112
15360,note_on,,,,,0,0,1,,,,,0,,,66,112
15410,note_on,,,,,50,0,1,,,,,0,,,54,0
15410,note_on,,,,,0,0,1,,,,,0,,,66,0
15411,note_on,,,,,1,0,1,,,,,0,,,54,112
15411,note_on,,,,,0,0,1,,,,,0,,,66,112
15551,note_on,,,,,0,0,1,,,,,0,,,66,0
15551,note_on,,,,,140,0,1,,,,,0,,,54,0
15840,note_on,,,,,0,0,1,,,,,0,,,45,112
15840,note_on,,,,,289,0,1,,,,,0,,,33,112
15840,note_on,,,,,0,0,0,,,,,0,,,51,112
15840,note_on,,,,,1842,0,0,,,,,0,,,48,112
15840,note_on,,,,,0,0,1,,,,,0,,,42,112
15997,note_on,,,,,0,0,1,,,,,0,,,42,0
15997,note_on,,,,,0,0,1,,,,,0,,,45,0
15997,note_on,,,,,0,0,0,,,,,0,,,51,0
15997,note_on,,,,,157,0,0,,,,,0,,,48,0
15997,note_on,,,,,157,0,1,,,,,0,,,33,0
16320,note_on,,,,,323,0,0,,,,,0,,,78,127
16320,note_on,,,,,323,0,1,,,,,0,,,54,112
16320,note_on,,,,,0,0,1,,,,,0,,,66,112
16320,note_on,,,,,0,0,0,,,,,0,,,90,127
17231,note_on,,,,,911,0,1,,,,,0,,,54,0
17231,note_on,,,,,0,0,1,,,,,0,,,66,0
17279,note_on,,,,,959,0,0,,,,,0,,,78,0
17279,note_on,,,,,0,0,0,,,,,0,,,90,0
17280,note_on,,,,,49,0,1,,,,,0,,,54,112
17280,note_on,,,,,0,0,1,,,,,0,,,66,112
17330,note_on,,,,,0,0,1,,,,,0,,,66,0
17330,note_on,,,,,50,0,1,,,,,0,,,54,0
17331,note_on,,,,,1,0,1,,,,,0,,,54,112
17331,note_on,,,,,0,0,1,,,,,0,,,66,112
17471,note_on,,,,,0,0,1,,,,,0,,,66,0
17471,note_on,,,,,140,0,1,,,,,0,,,54,0
17760,note_on,,,,,0,0,1,,,,,0,,,47,112
17760,note_on,,,,,481,0,0,,,,,0,,,51,112
17760,note_on,,,,,289,0,1,,,,,0,,,35,112
17760,note_on,,,,,0,0,1,,,,,0,,,42,112
17760,note_on,,,,,0,0,0,,,,,0,,,54,112
17917,note_on,,,,,157,0,0,,,,,0,,,51,0
17917,note_on,,,,,0,0,1,,,,,0,,,47,0
17917,note_on,,,,,0,0,1,,,,,0,,,42,0
17917,note_on,,,,,157,0,1,,,,,0,,,35,0
17917,note_on,,,,,0,0,0,,,,,0,,,54,0
18240,note_on,,,,,323,0,0,,,,,0,,,78,127
18240,note_on,,,,,0,0,1,,,,,0,,,66,112
18240,note_on,,,,,0,0,0,,,,,0,,,90,127
18240,note_on,,,,,323,0,1,,,,,0,,,54,112
19151,note_on,,,,,911,0,1,,,,,0,,,54,0
19151,note_on,,,,,0,0,1,,,,,0,,,66,0
19199,note_on,,,,,959,0,0,,,,,0,,,78,0
19199,note_on,,,,,0,0,0,,,,,0,,,90,0
19200,note_on,,,,,49,0,1,,,,,0,,,54,112
19200,note_on,,,,,0,0,1,,,,,0,,,66,112
19250,note_on,,,,,50,0,1,,,,,0,,,54,0
19250,note_on,,,,,0,0,1,,,,,0,,,66,0
19251,note_on,,,,,1,0,1,,,,,0,,,54,112
19251,note_on,,,,,0,0,1,,,,,0,,,66,112
19391,note_on,,,,,140,0,1,,,,,0,,,54,0
19391,note_on,,,,,0,0,1,,,,,0,,,66,0
19680,note_on,,,,,0,0,1,,,,,0,,,48,112
19680,note_on,,,,,0,0,1,,,,,0,,,42,112
19680,note_on,,,,,481,0,0,,,,,0,,,51,112
19680,note_on,,,,,0,0,0,,,,,0,,,57,112
19680,note_on,,,,,289,0,1,,,,,0,,,36,112
19837,note_on,,,,,157,0,1,,,,,0,,,36,0
19837,note_on,,,,,157,0,0,,,,,0,,,51,0
19837,note_on,,,,,0,0,1,,,,,0,,,42,0
19837,note_on,,,,,0,0,1,,,,,0,,,48,0
19837,note_on,,,,,0,0,0,,,,,0,,,57,0
20160,note_on,,,,,323,0,1,,,,,0,,,54,112
20160,note_on,,,,,0,0,1,,,,,0,,,66,112
20160,note_on,,,,,323,0,0,,,,,0,,,78,112
20160,note_on,,,,,0,0,0,,,,,0,,,90,112
20317,note_on,,,,,0,0,0,,,,,0,,,90,0
20317,note_on,,,,,157,0,0,,,,,0,,,78,0
20317,note_on,,,,,157,0,1,,,,,0,,,54,0
20317,note_on,,,,,0,0,1,,,,,0,,,66,0
20640,note_on,,,,,0,0,0,,,,,0,,,57,112
20640,note_on,,,,,0,0,1,,,,,0,,,49,112
20640,note_on,,,,,0,0,1,,,,,0,,,42,112
20640,note_on,,,,,323,0,0,,,,,0,,,54,112
20640,note_on,,,,,323,0,1,,,,,0,,,37,112
20797,note_on,,,,,0,0,0,,,,,0,,,57,0
20797,note_on,,,,,0,0,1,,,,,0,,,42,0
20797,note_on,,,,,0,0,1,,,,,0,,,49,0
20797,note_on,,,,,157,0,1,,,,,0,,,37,0
20797,note_on,,,,,157,0,0,,,,,0,,,54,0
21120,note_on,,,,,323,0,1,,,,,0,,,38,112
21120,note_on,,,,,0,0,1,,,,,0,,,50,112
21198,note_on,,,,,78,0,1,,,,,0,,,38,0
21198,note_on,,,,,0,0,1,,,,,0,,,50,0
21600,note_on,,,,,803,0,0,,,,,0,,,74,112
21600,note_on,,,,,0,0,1,,,,,0,,,71,112
21600,note_on,,,,,402,0,1,,,,,0,,,59,112
21600,note_on,,,,,0,0,0,,,,,0,,,80,112
21600,note_on,,,,,0,0,0,,,,,0,,,86,112
21600,note_on,,,,,0,0,1,,,,,0,,,65,112
21941,note_on,,,,,0,0,1,,,,,0,,,71,0
21941,note_on,,,,,0,0,0,,,,,0,,,86,0
21941,note_on,,,,,0,0,0,,,,,0,,,80,0
21941,note_on,,,,,0,0,1,,,,,0,,,65,0
21941,note_on,,,,,341,0,1,,,,,0,,,59,0
21941,note_on,,,,,341,0,0,,,,,0,,,74,0
21960,note_on,,,,,19,0,0,,,,,0,,,74,112
21960,note_on,,,,,19,0,1,,,,,0,,,60,112
21960,note_on,,,,,0,0,1,,,,,0,,,72,112
21960,note_on,,,,,0,0,0,,,,,0,,,81,112
21960,note_on,,,,,0,0,1,,,,,0,,,66,112
21960,note_on,,,,,0,0,0,,,,,0,,,86,112
22073,note_on,,,,,0,0,0,,,,,0,,,86,0
22073,note_on,,,,,113,0,0,,,,,0,,,74,0
22073,note_on,,,,,0,0,1,,,,,0,,,66,0
22073,note_on,,,,,0,0,1,,,,,0,,,72,0
22073,note_on,,,,,0,0,0,,,,,0,,,81,0
22073,note_on,,,,,113,0,1,,,,,0,,,60,0
22080,note_on,,,,,7,0,1,,,,,0,,,60,112
22080,note_on,,,,,7,0,0,,,,,0,,,74,112
22080,note_on,,,,,0,0,1,,,,,0,,,72,112
22080,note_on,,,,,0,0,1,,,,,0,,,66,112
22080,note_on,,,,,0,0,0,,,,,0,,,86,112
22080,note_on,,,,,0,0,0,,,,,0,,,81,112
23447,note_on,,,,,0,0,0,,,,,0,,,86,0
23447,note_on,,,,,0,0,0,,,,,0,,,81,0
23447,note_on,,,,,0,0,1,,,,,0,,,66,0
23447,note_on,,,,,1367,0,0,,,,,0,,,74,0
23447,note_on,,,,,1367,0,1,,,,,0,,,60,0
23447,note_on,,,,,0,0,1,,,,,0,,,72,0
23520,note_on,,,,,73,0,1,,,,,0,,,56,112
23520,note_on,,,,,0,0,1,,,,,0,,,68,112
23520,note_on,,,,,73,0,0,,,,,0,,,77,112
23520,note_on,,,,,0,0,1,,,,,0,,,62,112
23520,note_on,,,,,0,0,0,,,,,0,,,83,112
23520,note_on,,,,,0,0,0,,,,,0,,,89,112
23861,note_on,,,,,0,0,1,,,,,0,,,62,0
23861,note_on,,,,,341,0,1,,,,,0,,,56,0
23861,note_on,,,,,0,0,1,,,,,0,,,68,0
23879,note_on,,,,,359,0,0,,,,,0,,,77,0
23879,note_on,,,,,0,0,0,,,,,0,,,83,0
23879,note_on,,,,,0,0,0,,,,,0,,,89,0
23880,note_on,,,,,1,0,0,,,,,0,,,78,112
23880,note_on,,,,,0,0,0,,,,,0,,,90,112
23880,note_on,,,,,0,0,1,,,,,0,,,69,112
23880,note_on,,,,,0,0,1,,,,,0,,,62,112
23880,note_on,,,,,19,0,1,,,,,0,,,57,112
23880,note_on,,,,,0,0,0,,,,,0,,,84,112
23993,note_on,,,,,0,0,1,,,,,0,,,62,0
23993,note_on,,,,,113,0,1,,,,,0,,,57,0
23993,note_on,,,,,0,0,1,,,,,0,,,69,0
23993,note_on,,,,,0,0,0,,,,,0,,,84,0
23993,note_on,,,,,0,0,0,,,,,0,,,90,0
23993,note_on,,,,,113,0,0,,,,,0,,,78,0
24000,note_on,,,,,7,0,0,,,,,0,,,78,112
24000,note_on,,,,,0,0,1,,,,,0,,,62,112
24000,note_on,,,,,0,0,1,,,,,0,,,69,112
24000,note_on,,,,,0,0,0,,,,,0,,,90,112
24000,note_on,,,,,7,0,1,,,,,0,,,57,112
24000,note_on,,,,,0,0,0,,,,,0,,,84,112
24157,note_on,,,,,157,0,1,,,,,0,,,57,0
24157,note_on,,,,,0,0,1,,,,,0,,,62,0
24157,note_on,,,,,0,0,0,,,,,0,,,90,0
24157,note_on,,,,,0,0,1,,,,,0,,,69,0
24157,note_on,,,,,0,0,0,,,,,0,,,84,0
24157,note_on,,,,,157,0,0,,,,,0,,,78,0
24480,note_on,,,,,0,0,0,,,,,0,,,92,112
24480,note_on,,,,,0,0,0,,,,,0,,,86,112
24480,note_on,,,,,0,0,1,,,,,0,,,65,112
24480,note_on,,,,,323,0,1,,,,,0,,,53,112
24480,note_on,,,,,323,0,0,,,,,0,,,80,112
24480,note_on,,,,,0,0,1,,,,,0,,,59,112
24839,note_on,,,,,0,0,1,,,,,0,,,59,0
24839,note_on,,,,,0,0,1,,,,,0,,,65,0
24839,note_on,,,,,0,0,0,,,,,0,,,86,0
24839,note_on,,,,,0,0,0,,,,,0,,,92,0
24839,note_on,,,,,359,0,1,,,,,0,,,53,0
24839,note_on,,,,,359,0,0,,,,,0,,,80,0
24840,note_on,,,,,0,0,1,,,,,0,,,66,112
24840,note_on,,,,,0,0,1,,,,,0,,,60,112
24840,note_on,,,,,1,0,0,,,,,0,,,81,112
24840,note_on,,,,,1,0,1,,,,,0,,,54,112
24840,note_on,,,,,0,0,0,,,,,0,,,93,112
24840,note_on,,,,,0,0,0,,,,,0,,,86,112
24953,note_on,,,,,0,0,0,,,,,0,,,93,0
24953,note_on,,,,,113,0,1,,,,,0,,,54,0
24953,note_on,,,,,0,0,1,,,,,0,,,60,0
24953,note_on,,,,,0,0,1,,,,,0,,,66,0
24953,note_on,,,,,0,0,0,,,,,0,,,86,0
24953,note_on,,,,,113,0,0,,,,,0,,,81,0
24960,note_on,,,,,0,0,0,,,,,0,,,86,112
24960,note_on,,,,,0,0,0,,,,,0,,,93,112
24960,note_on,,,,,0,0,1,,,,,0,,,66,112
24960,note_on,,,,,7,0,1,,,,,0,,,54,112
24960,note_on,,,,,7,0,0,,,,,0,,,81,112
24960,note_on,,,,,0,0,1,,,,,0,,,60,112
25117,note_on,,,,,0,0,0,,,,,0,,,86,0
25117,note_on,,,,,0,0,0,,,,,0,,,93,0
25117,note_on,,,,,157,0,1,,,,,0,,,54,0
25117,note_on,,,,,0,0,1,,,,,0,,,60,0
25117,note_on,,,,,0,0,1,,,,,0,,,66,0
25117,note_on,,,,,157,0,0,,,,,0,,,81,0
25440,note_on,,,,,0,0,1,,,,,0,,,53,112
25440,note_on,,,,,0,0,1,,,,,0,,,59,112
25440,note_on,,,,,323,0,0,,,,,0,,,86,112
25440,note_on,,,,,0,0,0,,,,,0,,,92,112
25440,note_on,,,,,0,0,0,,,,,0,,,98,112
25440,note_on,,,,,323,0,1,,,,,0,,,47,112
25799,note_on,,,,,0,0,1,,,,,0,,,53,0
25799,note_on,,,,,0,0,1,,,,,0,,,59,0
25799,note_on,,,,,0,0,0,,,,,0,,,92,0
25799,note_on,,,,,0,0,0,,,,,0,,,98,0
25799,note_on,,,,,359,0,1,,,,,0,,,47,0
25799,note_on,,,,,359,0,0,,,,,0,,,86,0
25800,note_on,,,,,0,0,1,,,,,0,,,60,112
25800,note_on,,,,,0,0,0,,,,,0,,,93,112
25800,note_on,,,,,0,0,1,,,,,0,,,54,112
25800,note_on,,,,,1,0,1,,,,,0,,,48,112
25800,note_on,,,,,0,0,0,,,,,0,,,98,112
25800,note_on,,,,,1,0,0,,,,,0,,,86,112
25913,note_on,,,,,113,0,1,,,,,0,,,48,0
25913,note_on,,,,,113,0,0,,,,,0,,,86,0
25913,note_on,,,,,0,0,1,,,,,0,,,54,0
25913,note_on,,,,,0,0,1,,,,,0,,,60,0
25913,note_on,,,,,0,0,0,,,,,0,,,98,0
25913,note_on,,,,,0,0,0,,,,,0,,,93,0
25920,note_on,,,,,0,0,0,,,,,0,,,98,112
25920,note_on,,,,,0,0,0,,,,,0,,,93,112
25920,note_on,,,,,0,0,1,,,,,0,,,60,112
25920,note_on,,,,,7,0,1,,,,,0,,,48,112
25920,note_on,,,,,0,0,1,,,,,0,,,54,112
25920,note_on,,,,,7,0,0,,,,,0,,,86,112
26077,note_on,,,,,0,0,1,,,,,0,,,60,0
26077,note_on,,,,,0,0,0,,,,,0,,,93,0
26077,note_on,,,,,0,0,1,,,,,0,,,54,0
26077,note_on,,,,,0,0,0,,,,,0,,,98,0
26077,note_on,,,,,157,0,0,,,,,0,,,86,0
26077,note_on,,,,,157,0,1,,,,,0,,,48,0
26400,note_on,,,,,0,0,0,,,,,0,,,98,112
26400,note_on,,,,,323,0,1,,,,,0,,,47,112
26400,note_on,,,,,323,0,0,,,,,0,,,86,112
26400,note_on,,,,,0,0,1,,,,,0,,,53,112
26400,note_on,,,,,0,0,1,,,,,0,,,59,112
26400,note_on,,,,,0,0,0,,,,,0,,,92,112
26759,note_on,,,,,359,0,0,,,,,0,,,86,0
26759,note_on,,,,,0,0,0,,,,,0,,,98,0
26759,note_on,,,,,0,0,0,,,,,0,,,92,0
26759,note_on,,,,,359,0,1,,,,,0,,,47,0
26759,note_on,,,,,0,0,1,,,,,0,,,59,0
26759,note_on,,,,,0,0,1,,,,,0,,,53,0
26760,note_on,,,,,1,0,0,,,,,0,,,86,112
26760,note_on,,,,,0,0,0,,,,,0,,,98,112
26760,note_on,,,,,0,0,1,,,,,0,,,60,112
26760,note_on,,,,,0,0,1,,,,,0,,,54,112
26760,note_on,,,,,1,0,1,,,,,0,,,48,112
26760,note_on,,,,,0,0,0,,,,,0,,,93,112
26873,note_on,,,,,113,0,1,,,,,0,,,48,0
26873,note_on,,,,,113,0,0,,,,,0,,,86,0
26873,note_on,,,,,0,0,1,,,,,0,,,54,0
26873,note_on,,,,,0,0,1,,,,,0,,,60,0
26873,note_on,,,,,0,0,0,,,,,0,,,93,0
26873,note_on,,,,,0,0,0,,,,,0,,,98,0
26880,note_on,,,,,0,0,0,,,,,0,,,93,112
26880,note_on,,,,,7,0,0,,,,,0,,,86,112
26880,note_on,,,,,0,0,0,,,,,0,,,98,112
26880,note_on,,,,,0,0,1,,,,,0,,,60,112
26880,note_on,,,,,7,0,1,,,,,0,,,48,112
26880,note_on,,,,,0,0,1,,,,,0,,,54,112
26958,note_on,,,,,0,0,1,,,,,0,,,60,0
26958,note_on,,,,,0,0,1,,,,,0,,,54,0
26958,note_on,,,,,0,0,0,,,,,0,,,93,0
26958,note_on,,,,,78,0,1,,,,,0,,,48,0
26958,note_on,,,,,0,0,0,,,,,0,,,98,0
26958,note_on,,,,,78,0,0,,,,,0,,,86,0
28200,note_on,,,,,1242,0,1,,,,,0,,,32,112
28200,note_on,,,,,1242,0,0,,,,,0,,,56,112
28200,note_on,,,,,0,0,1,,,,,0,,,44,112
28238,note_on,,,,,38,0,0,,,,,0,,,56,0
28238,note_on,,,,,38,0,1,,,,,0,,,32,0
28238,note_on,,,,,0,0,1,,,,,0,,,44,0
28320,note_on,,,,,82,0,1,,,,,0,,,33,112
28320,note_on,,,,,82,0,0,,,,,0,,,57,112
28320,note_on,,,,,0,0,1,,,,,0,,,45,112
28398,note_on,,,,,0,0,1,,,,,0,,,45,0
28398,note_on,,,,,78,0,1,,,,,0,,,33,0
28398,note_on,,,,,78,0,0,,,,,0,,,57,0
28680,note_on,,,,,282,0,1,,,,,0,,,34,112
28680,note_on,,,,,0,0,1,,,,,0,,,46,112
28680,note_on,,,,,282,0,0,,,,,0,,,58,112
28718,note_on,,,,,0,0,1,,,,,0,,,46,0
28718,note_on,,,,,38,0,0,,,,,0,,,58,0
28718,note_on,,,,,38,0,1,,,,,0,,,34,0
28800,note_on,,,,,82,0,0,,,,,0,,,59,112
28800,note_on,,,,,82,0,1,,,,,0,,,35,112
28800,note_on,,,,,0,0,1,,,,,0,,,47,112
28878,note_on,,,,,78,0,0,,,,,0,,,59,0
29027,note_on,,,,,0,0,1,,,,,0,,,47,0
29027,note_on,,,,,227,0,1,,,,,0,,,35,0
29280,note_on,,,,,0,0,1,,,,,0,,,65,112
29280,note_on,,,,,0,0,0,,,,,0,,,86,127
29280,note_on,,,,,402,0,0,,,,,0,,,74,127
29280,note_on,,,,,0,0,1,,,,,0,,,71,112
29280,note_on,,,,,0,0,0,,,,,0,,,80,127
29280,note_on,,,,,253,0,1,,,,,0,,,59,112
29621,note_on,,,,,341,0,1,,,,,0,,,59,0
29621,note_on,,,,,0,0,1,,,,,0,,,71,0
29621,note_on,,,,,0,0,1,,,,,0,,,65,0
29639,note_on,,,,,359,0,0,,,,,0,,,74,0
29639,note_on,,,,,0,0,0,,,,,0,,,80,0
29639,note_on,,,,,0,0,0,,,,,0,,,86,0
29640,note_on,,,,,0,0,0,,,,,0,,,81,112
29640,note_on,,,,,0,0,0,,,,,0,,,87,112
29640,note_on,,,,,0,0,1,,,,,0,,,66,112
29640,note_on,,,,,0,0,1,,,,,0,,,71,112
29640,note_on,,,,,1,0,0,,,,,0,,,75,112
29640,note_on,,,,,19,0,1,,,,,0,,,59,112
29753,note_on,,,,,0,0,0,,,,,0,,,81,0
29753,note_on,,,,,113,0,0,,,,,0,,,75,0
29753,note_on,,,,,0,0,0,,,,,0,,,87,0
29753,note_on,,,,,113,0,1,,,,,0,,,59,0
29753,note_on,,,,,0,0,1,,,,,0,,,71,0
29753,note_on,,,,,0,0,1,,,,,0,,,66,0
29760,note_on,,,,,7,0,0,,,,,0,,,75,127
29760,note_on,,,,,0,0,0,,,,,0,,,81,127
29760,note_on,,,,,0,0,1,,,,,0,,,71,112
29760,note_on,,,,,0,0,0,,,,,0,,,87,127
29760,note_on,,,,,7,0,1,,,,,0,,,59,112
29760,note_on,,,,,0,0,1,,,,,0,,,66,112
31127,note_on,,,,,0,0,1,,,,,0,,,66,0
31127,note_on,,,,,1367,0,1,,,,,0,,,59,0
31127,note_on,,,,,0,0,1,,,,,0,,,71,0
31175,note_on,,,,,0,0,0,,,,,0,,,81,0
31175,note_on,,,,,0,0,0,,,,,0,,,87,0
31175,note_on,,,,,1415,0,0,,,,,0,,,75,0
31200,note_on,,,,,0,0,0,,,,,0,,,83,112
31200,note_on,,,,,0,0,0,,,,,0,,,89,112
31200,note_on,,,,,25,0,0,,,,,0,,,77,112
31200,note_on,,,,,0,0,1,,,,,0,,,68,112
31200,note_on,,,,,73,0,1,,,,,0,,,56,112
31200,note_on,,,,,0,0,1,,,,,0,,,62,112
31541,note_on,,,,,0,0,1,,,,,0,,,68,0
31541,note_on,,,,,0,0,1,,,,,0,,,62,0
31541,note_on,,,,,341,0,1,,,,,0,,,56,0
31541,note_on,,,,,341,0,0,,,,,0,,,77,0
31541,note_on,,,,,0,0,0,,,,,0,,,89,0
31541,note_on,,,,,0,0,0,,,,,0,,,83,0
31560,note_on,,,,,19,0,1,,,,,0,,,57,112
31560,note_on,,,,,0,0,1,,,,,0,,,63,112
31560,note_on,,,,,0,0,0,,,,,0,,,90,112
31560,note_on,,,,,0,0,0,,,,,0,,,83,112
31560,note_on,,,,,0,0,1,,,,,0,,,69,112
31560,note_on,,,,,19,0,0,,,,,0,,,78,112
31673,note_on,,,,,113,0,0,,,,,0,,,78,0
31673,note_on,,,,,113,0,1,,,,,0,,,57,0
31673,note_on,,,,,0,0,0,,,,,0,,,83,0
31673,note_on,,,,,0,0,1,,,,,0,,,63,0
31673,note_on,,,,,0,0,1,,,,,0,,,69,0
31673,note_on,,,,,0,0,0,,,,,0,,,90,0
31680,note_on,,,,,7,0,1,,,,,0,,,57,112
31680,note_on,,,,,0,0,0,,,,,0,,,83,112
31680,note_on,,,,,0,0,0,,,,,0,,,90,112
31680,note_on,,,,,0,0,1,,,,,0,,,69,112
31680,note_on,,,,,7,0,0,,,,,0,,,78,112
31680,note_on,,,,,0,0,1,,,,,0,,,63,112
31837,note_on,,,,,0,0,0,,,,,0,,,90,0
31837,note_on,,,,,157,0,0,,,,,0,,,78,0
31837,note_on,,,,,157,0,1,,,,,0,,,57,0
31837,note_on,,,,,0,0,1,,,,,0,,,69,0
31837,note_on,,,,,0,0,1,,,,,0,,,63,0
31837,note_on,,,,,0,0,0,,,,,0,,,83,0
32160,note_on,,,,,0,0,0,,,,,0,,,92,112
32160,note_on,,,,,323,0,1,,,,,0,,,53,112
32160,note_on,,,,,0,0,0,,,,,0,,,86,112
32160,note_on,,,,,323,0,0,,,,,0,,,80,112
32160,note_on,,,,,0,0,1,,,,,0,,,59,112
32160,note_on,,,,,0,0,1,,,,,0,,,65,112
32519,note_on,,,,,0,0,1,,,,,0,,,59,0
32519,note_on,,,,,0,0,1,,,,,0,,,65,0
32519,note_on,,,,,0,0,0,,,,,0,,,92,0
32519,note_on,,,,,0,0,0,,,,,0,,,86,0
32519,note_on,,,,,359,0,1,,,,,0,,,53,0
32519,note_on,,,,,359,0,0,,,,,0,,,80,0
32520,note_on,,,,,1,0,0,,,,,0,,,81,112
32520,note_on,,,,,0,0,0,,,,,0,,,93,112
32520,note_on,,,,,0,0,0,,,,,0,,,87,112
32520,note_on,,,,,0,0,1,,,,,0,,,66,112
32520,note_on,,,,,0,0,1,,,,,0,,,59,112
32520,note_on,,,,,1,0,1,,,,,0,,,54,112
32633,note_on,,,,,0,0,1,,,,,0,,,66,0
32633,note_on,,,,,113,0,0,,,,,0,,,81,0
32633,note_on,,,,,0,0,0,,,,,0,,,93,0
32633,note_on,,,,,0,0,0,,,,,0,,,87,0
32633,note_on,,,,,113,0,1,,,,,0,,,54,0
32633,note_on,,,,,0,0,1,,,,,0,,,59,0
32640,note_on,,,,,0,0,1,,,,,0,,,59,112
32640,note_on,,,,,0,0,0,,,,,0,,,93,112
32640,note_on,,,,,0,0,0,,,,,0,,,87,112
32640,note_on,,,,,7,0,0,,,,,0,,,81,112
32640,note_on,,,,,7,0,1,,,,,0,,,54,112
32640,note_on,,,,,0,0,1,,,,,0,,,66,112
32797,note_on,,,,,157,0,1,,,,,0,,,54,0
32797,note_on,,,,,0,0,0,,,,,0,,,93,0
32797,note_on,,,,,0,0,0,,,,,0,,,87,0
32797,note_on,,,,,0,0,1,,,,,0,,,66,0
32797,note_on,,,,,0,0,1,,,,,0,,,59,0
32797,note_on,,,,,157,0,0,,,,,0,,,81,0
33120,note_on,,,,,0,0,1,,,,,0,,,59,112
33120,note_on,,,,,0,0,1,,,,,0,,,53,112
33120,note_on,,,,,0,0,0,,,,,0,,,92,112
33120,note_on,,,,,323,0,0,,,,,0,,,86,112
33120,note_on,,,,,0,0,0,,,,,0,,,98,112
33120,note_on,,,,,323,0,1,,,,,0,,,47,112
33479,note_on,,,,,0,0,0,,,,,0,,,98,0
33479,note_on,,,,,359,0,0,,,,,0,,,86,0
33479,note_on,,,,,359,0,1,,,,,0,,,47,0
33479,note_on,,,,,0,0,1,,,,,0,,,53,0
33479,note_on,,,,,0,0,1,,,,,0,,,59,0
33479,note_on,,,,,0,0,0,,,,,0,,,92,0
33480,note_on,,,,,0,0,0,,,,,0,,,93,112
33480,note_on,,,,,1,0,1,,,,,0,,,47,112
33480,note_on,,,,,0,0,1,,,,,0,,,54,112
33480,note_on,,,,,0,0,1,,,,,0,,,59,112
33480,note_on,,,,,1,0,0,,,,,0,,,87,112
33480,note_on,,,,,0,0,0,,,,,0,,,99,112
33593,note_on,,,,,0,0,0,,,,,0,,,99,0
33593,note_on,,,,,113,0,1,,,,,0,,,47,0
33593,note_on,,,,,0,0,1,,,,,0,,,54,0
33593,note_on,,,,,0,0,1,,,,,0,,,59,0
33593,note_on,,,,,0,0,0,,,,,0,,,93,0
33593,note_on,,,,,113,0,0,,,,,0,,,87,0
33600,note_on,,,,,0,0,1,,,,,0,,,59,112
33600,note_on,,,,,7,0,1,,,,,0,,,47,112
33600,note_on,,,,,0,0,0,,,,,0,,,99,112
33600,note_on,,,,,0,0,0,,,,,0,,,93,112
33600,note_on,,,,,7,0,0,,,,,0,,,87,112
33600,note_on,,,,,0,0,1,,,,,0,,,54,112
33757,note_on,,,,,0,0,1,,,,,0,,,54,0
33757,note_on,,,,,157,0,1,,,,,0,,,47,0
33757,note_on,,,,,0,0,1,,,,,0,,,59,0
33757,note_on,,,,,0,0,0,,,,,0,,,93,0
33757,note_on,,,,,157,0,0,,,,,0,,,87,0
33757,note_on,,,,,0,0,0,,,,,0,,,99,0
34080,note_on,,,,,323,0,0,,,,,0,,,86,112
34080,note_on,,,,,0,0,0,,,,,0,,,98,112
34080,note_on,,,,,0,0,1,,,,,0,,,59,112
34080,note_on,,,,,0,0,1,,,,,0,,,53,112
34080,note_on,,,,,0,0,0,,,,,0,,,92,112
34080,note_on,,,,,323,0,1,,,,,0,,,47,112
34439,note_on,,,,,359,0,0,,,,,0,,,86,0
34439,note_on,,,,,0,0,0,,,,,0,,,98,0
34439,note_on,,,,,0,0,0,,,,,0,,,92,0
34439,note_on,,,,,0,0,1,,,,,0,,,59,0
34439,note_on,,,,,0,0,1,,,,,0,,,53,0
34439,note_on,,,,,359,0,1,,,,,0,,,47,0
34440,note_on,,,,,0,0,0,,,,,0,,,99,112
34440,note_on,,,,,0,0,0,,,,,0,,,93,112
34440,note_on,,,,,1,0,0,,,,,0,,,87,112
34440,note_on,,,,,0,0,1,,,,,0,,,59,112
34440,note_on,,,,,0,0,1,,,,,0,,,54,112
34440,note_on,,,,,1,0,1,,,,,0,,,47,112
34553,note_on,,,,,113,0,0,,,,,0,,,87,0
34553,note_on,,,,,113,0,1,,,,,0,,,47,0
34553,note_on,,,,,0,0,1,,,,,0,,,59,0
34553,note_on,,,,,0,0,0,,,,,0,,,99,0
34553,note_on,,,,,0,0,1,,,,,0,,,54,0
34553,note_on,,,,,0,0,0,,,,,0,,,93,0
34560,note_on,,,,,0,0,1,,,,,0,,,54,112
34560,time_signature,2,4,24,8,7,1,0,,,,,,,,,
34560,note_on,,,,,0,0,0,,,,,0,,,87,112
34560,note_on,,,,,0,0,0,,,,,0,,,93,112
34560,note_on,,,,,0,0,1,,,,,0,,,59,112
34560,note_on,,,,,7,0,1,,,,,0,,,47,112
34560,note_on,,,,,0,0,0,,,,,0,,,99,112
34638,note_on,,,,,0,0,0,,,,,0,,,93,0
34638,note_on,,,,,78,0,0,,,,,0,,,87,0
34638,note_on,,,,,78,0,1,,,,,0,,,47,0
34638,note_on,,,,,0,0,0,,,,,0,,,99,0
34638,note_on,,,,,0,0,1,,,,,0,,,54,0
34638,note_on,,,,,0,0,1,,,,,0,,,59,0
35880,note_on,,,,,0,0,1,,,,,0,,,54,112
35880,note_on,,,,,1242,0,1,,,,,0,,,42,112
35939,note_on,,,,,59,0,1,,,,,0,,,42,0
35939,note_on,,,,,0,0,1,,,,,0,,,54,0
36000,note_on,,,,,61,0,1,,,,,0,,,44,112
36000,note_on,,,,,0,0,1,,,,,0,,,56,112
36119,note_on,,,,,0,0,1,,,,,0,,,56,0
36119,note_on,,,,,119,0,1,,,,,0,,,44,0
36360,note_on,,,,,0,0,1,,,,,0,,,57,112
36360,note_on,,,,,241,0,1,,,,,0,,,45,112
36419,note_on,,,,,59,0,1,,,,,0,,,45,0
36419,note_on,,,,,0,0,1,,,,,0,,,57,0
36480,note_on,,,,,61,0,1,,,,,0,,,46,70
36480,set_tempo,,,,,0,1,0,,545456,,,,,,,
36480,note_on,,,,,0,0,1,,,,,0,,,58,70
36480,time_signature,4,4,24,8,1842,1,0,,,,,,,,,
36960,note_on,,,,,0,0,0,,,,,0,,,67,70
36960,note_on,,,,,0,0,0,,,,,0,,,63,70
36960,note_on,,,,,480,0,1,,,,,0,,,34,70
36960,note_on,,,,,480,0,0,,,,,0,,,55,70
37038,note_on,,,,,0,0,0,,,,,0,,,67,0
37038,note_on,,,,,0,0,0,,,,,0,,,63,0
37038,note_on,,,,,78,0,0,,,,,0,,,55,0
37038,note_on,,,,,78,0,1,,,,,0,,,34,0
37439,note_on,,,,,0,0,1,,,,,0,,,58,0
37439,note_on,,,,,401,0,1,,,,,0,,,46,0
37440,note_on,,,,,0,0,1,,,,,0,,,58,70
37440,note_on,,,,,1,0,1,,,,,0,,,46,70
37920,note_on,,,,,882,0,0,,,,,0,,,56,70
37920,note_on,,,,,0,0,0,,,,,0,,,62,70
37920,note_on,,,,,480,0,1,,,,,0,,,34,70
37920,note_on,,,,,0,0,0,,,,,0,,,65,70
37998,note_on,,,,,78,0,1,,,,,0,,,34,0
37998,note_on,,,,,78,0,0,,,,,0,,,56,0
37998,note_on,,,,,0,0,0,,,,,0,,,65,0
37998,note_on,,,,,0,0,0,,,,,0,,,62,0
38399,note_on,,,,,0,0,1,,,,,0,,,58,0
38399,note_on,,,,,401,0,1,,,,,0,,,46,0
38400,note_on,,,,,1,0,1,,,,,0,,,46,70
38400,note_on,,,,,0,0,1,,,,,0,,,58,70
38880,note_on,,,,,0,0,0,,,,,0,,,67,70
38880,note_on,,,,,0,0,0,,,,,0,,,63,70
38880,note_on,,,,,882,0,0,,,,,0,,,55,70
38880,note_on,,,,,480,0,1,,,,,0,,,34,70
38958,note_on,,,,,78,0,0,,,,,0,,,55,0
38958,note_on,,,,,0,0,0,,,,,0,,,67,0
38958,note_on,,,,,0,0,0,,,,,0,,,63,0
38958,note_on,,,,,78,0,1,,,,,0,,,34,0
39359,note_on,,,,,401,0,1,,,,,0,,,46,0
39359,note_on,,,,,0,0,1,,,,,0,,,58,0
39720,note_on,,,,,0,0,1,,,,,0,,,55,70
39720,note_on,,,,,361,0,1,,,,,0,,,43,70
39779,note_on,,,,,0,0,1,,,,,0,,,55,0
39779,note_on,,,,,59,0,1,,,,,0,,,43,0
39840,note_on,,,,,0,0,1,,,,,0,,,56,70
39840,note_on,,,,,61,0,1,,,,,0,,,44,70
40019,note_on,,,,,0,0,1,,,,,0,,,56,0
40019,note_on,,,,,179,0,1,,,,,0,,,44,0
40200,note_on,,,,,0,0,1,,,,,0,,,57,70
40200,note_on,,,,,181,0,1,,,,,0,,,45,70
40259,note_on,,,,,0,0,1,,,,,0,,,57,0
40259,note_on,,,,,59,0,1,,,,,0,,,45,0
40320,note_on,,,,,61,0,1,,,,,0,,,46,70
40320,note_on,,,,,0,0,1,,,,,0,,,58,70
40800,note_on,,,,,0,0,0,,,,,0,,,63,70
40800,note_on,,,,,0,0,0,,,,,0,,,67,70
40800,note_on,,,,,1842,0,0,,,,,0,,,55,70
40800,note_on,,,,,480,0,1,,,,,0,,,34,70
40878,note_on,,,,,0,0,0,,,,,0,,,67,0
40878,note_on,,,,,78,0,1,,,,,0,,,34,0
40878,note_on,,,,,78,0,0,,,,,0,,,55,0
40878,note_on,,,,,0,0,0,,,,,0,,,63,0
41279,note_on,,,,,401,0,1,,,,,0,,,46,0
41279,note_on,,,,,0,0,1,,,,,0,,,58,0
41280,note_on,,,,,0,0,1,,,,,0,,,58,70
41280,note_on,,,,,1,0,1,,,,,0,,,46,70
41760,note_on,,,,,882,0,0,,,,,0,,,56,70
41760,note_on,,,,,0,0,0,,,,,0,,,62,70
41760,note_on,,,,,480,0,1,,,,,0,,,34,70
41760,note_on,,,,,0,0,0,,,,,0,,,65,70
41838,note_on,,,,,0,0,0,,,,,0,,,62,0
41838,note_on,,,,,78,0,0,,,,,0,,,56,0
41838,note_on,,,,,78,0,1,,,,,0,,,34,0
41838,note_on,,,,,0,0,0,,,,,0,,,65,0
42239,note_on,,,,,401,0,1,,,,,0,,,46,0
42239,note_on,,,,,0,0,1,,,,,0,,,58,0
42240,note_on,,,,,0,0,1,,,,,0,,,58,70
42240,note_on,,,,,1,0,1,,,,,0,,,46,70
42720,note_on,,,,,480,0,1,,,,,0,,,34,70
42720,note_on,,,,,882,0,0,,,,,0,,,55,70
42720,note_on,,,,,0,0,0,,,,,0,,,63,70
42720,note_on,,,,,0,0,0,,,,,0,,,67,70
42798,note_on,,,,,78,0,1,,,,,0,,,34,0
42798,note_on,,,,,0,0,0,,,,,0,,,67,0
42798,note_on,,,,,0,0,0,,,,,0,,,63,0
42798,note_on,,,,,78,0,0,,,,,0,,,55,0
43199,note_on,,,,,401,0,1,,,,,0,,,46,0
43199,note_on,,,,,0,0,1,,,,,0,,,58,0
43560,note_on,,,,,361,0,1,,,,,0,,,46,70
43560,note_on,,,,,0,0,1,,,,,0,,,58,70
43619,note_on,,,,,0,0,1,,,,,0,,,58,0
43619,note_on,,,,,59,0,1,,,,,0,,,46,0
43680,note_on,,,,,0,0,1,,,,,0,,,59,71
43680,note_on,,,,,61,0,1,,,,,0,,,47,71
43859,note_on,,,,,179,0,1,,,,,0,,,47,0
43859,note_on,,,,,0,0,1,,,,,0,,,59,0
44040,note_on,,,,,181,0,1,,,,,0,,,48,74
44040,note_on,,,,,0,0,1,,,,,0,,,60,74
44099,note_on,,,,,59,0,1,,,,,0,,,48,0
44099,note_on,,,,,0,0,1,,,,,0,,,60,0
44160,note_on,,,,,61,0,1,,,,,0,,,49,70
44160,note_on,,,,,0,0,1,,,,,0,,,61,70
44640,note_on,,,,,0,0,0,,,,,0,,,70,70
44640,note_on,,,,,0,0,0,,,,,0,,,66,70
44640,note_on,,,,,480,0,1,,,,,0,,,37,70
44640,note_on,,,,,1842,0,0,,,,,0,,,58,70
44718,note_on,,,,,78,0,0,,,,,0,,,58,0
44718,note_on,,,,,0,0,0,,,,,0,,,66,0
44718,note_on,,,,,0,0,0,,,,,0,,,70,0
44718,note_on,,,,,78,0,1,,,,,0,,,37,0
45119,note_on,,,,,401,0,1,,,,,0,,,49,0
45119,note_on,,,,,0,0,1,,,,,0,,,61,0
45120,note_on,,,,,0,0,1,,,,,0,,,61,70
45120,note_on,,,,,1,0,1,,,,,0,,,49,70
45600,note_on,,,,,480,0,1,,,,,0,,,37,70
45600,note_on,,,,,882,0,0,,,,,0,,,59,70
45600,note_on,,,,,0,0,0,,,,,0,,,65,70
45600,note_on,,,,,0,0,0,,,,,0,,,68,70
45678,note_on,,,,,0,0,0,,,,,0,,,68,0
45678,note_on,,,,,0,0,0,,,,,0,,,65,0
45678,note_on,,,,,78,0,0,,,,,0,,,59,0
45678,note_on,,,,,78,0,1,,,,,0,,,37,0
46079,note_on,,,,,0,0,1,,,,,0,,,61,0
46079,note_on,,,,,401,0,1,,,,,0,,,49,0
46080,note_on,,,,,1,0,1,,,,,0,,,49,70
46080,note_on,,,,,0,0,1,,,,,0,,,61,70
46560,note_on,,,,,0,0,0,,,,,0,,,70,70
46560,note_on,,,,,480,0,1,,,,,0,,,42,70
46560,note_on,,,,,882,0,0,,,,,0,,,58,70
46560,note_on,,,,,0,0,0,,,,,0,,,66,70
46638,note_on,,,,,78,0,0,,,,,0,,,58,0
46638,note_on,,,,,0,0,0,,,,,0,,,70,0
46638,note_on,,,,,78,0,1,,,,,0,,,42,0
46638,note_on,,,,,0,0,0,,,,,0,,,66,0
47039,note_on,,,,,0,0,1,,,,,0,,,61,0
47039,note_on,,,,,401,0,1,,,,,0,,,49,0
47400,note_on,,,,,361,0,1,,,,,0,,,49,70
47400,note_on,,,,,0,0,1,,,,,0,,,61,70
47459,note_on,,,,,59,0,1,,,,,0,,,49,0
47459,note_on,,,,,0,0,1,,,,,0,,,61,0
47520,note_on,,,,,61,0,1,,,,,0,,,54,71
47520,note_on,,,,,0,0,1,,,,,0,,,66,71
47699,note_on,,,,,179,0,1,,,,,0,,,54,0
47699,note_on,,,,,0,0,1,,,,,0,,,66,0
47880,note_on,,,,,181,0,1,,,,,0,,,52,74
47880,note_on,,,,,0,0,1,,,,,0,,,64,74
47939,note_on,,,,,59,0,1,,,,,0,,,52,0
47939,note_on,,,,,0,0,1,,,,,0,,,64,0
48000,note_on,,,,,0,0,1,,,,,0,,,65,90
48000,note_on,,,,,61,0,1,,,,,0,,,53,90
48480,note_on,,,,,1842,0,0,,,,,0,,,61,75
48480,note_on,,,,,0,0,0,,,,,0,,,70,75
48480,note_on,,,,,480,0,1,,,,,0,,,41,75
48480,note_on,,,,,0,0,0,,,,,0,,,73,75
48558,note_on,,,,,0,0,0,,,,,0,,,73,0
48558,note_on,,,,,0,0,0,,,,,0,,,70,0
48558,note_on,,,,,78,0,0,,,,,0,,,61,0
48558,note_on,,,,,78,0,1,,,,,0,,,41,0
48959,note_on,,,,,0,0,1,,,,,0,,,65,0
48959,note_on,,,,,401,0,1,,,,,0,,,53,0
48960,note_on,,,,,1,0,1,,,,,0,,,53,90
48960,note_on,,,,,0,0,1,,,,,0,,,65,90
49440,note_on,,,,,480,0,1,,,,,0,,,41,75
49440,note_on,,,,,0,0,0,,,,,0,,,72,75
49440,note_on,,,,,882,0,0,,,,,0,,,63,75
49440,note_on,,,,,0,0,0,,,,,0,,,69,75
49518,note_on,,,,,0,0,0,,,,,0,,,72,0
49518,note_on,,,,,0,0,0,,,,,0,,,69,0
49518,note_on,,,,,78,0,0,,,,,0,,,63,0
49518,note_on,,,,,78,0,1,,,,,0,,,41,0
49799,note_on,,,,,0,0,1,,,,,0,,,65,0
49799,note_on,,,,,281,0,1,,,,,0,,,53,0
49800,note_on,,,,,0,0,1,,,,,0,,,65,75
49800,note_on,,,,,1,0,1,,,,,0,,,53,75
49913,note_on,,,,,0,0,1,,,,,0,,,65,0
49913,note_on,,,,,113,0,1,,,,,0,,,53,0
49920,note_on,,,,,0,0,1,,,,,0,,,65,70
49920,note_on,,,,,7,0,1,,,,,0,,,53,70
49998,note_on,,,,,0,0,1,,,,,0,,,65,0
49998,note_on,,,,,78,0,1,,,,,0,,,53,0
50400,note_on,,,,,0,0,1,,,,,0,,,51,70
50400,note_on,,,,,0,0,1,,,,,0,,,56,70
50400,note_on,,,,,402,0,1,,,,,0,,,47,70
50478,note_on,,,,,0,0,1,,,,,0,,,51,0
50478,note_on,,,,,0,0,1,,,,,0,,,56,0
50478,note_on,,,,,78,0,1,,,,,0,,,47,0
50880,note_on,,,,,402,0,1,,,,,0,,,71,84
51609,note_on,,,,,729,0,1,,,,,0,,,71,0
51927,note_on,,,,,318,0,1,,,,,0,,,68,70
52013,note_on,,,,,86,0,1,,,,,0,,,68,0
52014,note_on,,,,,1,0,1,,,,,0,,,65,70
52100,note_on,,,,,86,0,1,,,,,0,,,65,0
52101,note_on,,,,,1,0,1,,,,,0,,,63,70
52187,note_on,,,,,86,0,1,,,,,0,,,63,0
52188,note_on,,,,,1,0,1,,,,,0,,,59,70
52274,note_on,,,,,86,0,1,,,,,0,,,59,0
52275,note_on,,,,,1,0,1,,,,,0,,,56,70
52361,note_on,,,,,86,0,1,,,,,0,,,56,0
52362,note_on,,,,,1,0,1,,,,,0,,,53,70
52448,note_on,,,,,86,0,1,,,,,0,,,53,0
52449,note_on,,,,,1,0,1,,,,,0,,,51,70
52535,note_on,,,,,86,0,1,,,,,0,,,51,0
52536,note_on,,,,,1,0,1,,,,,0,,,47,70
52622,note_on,,,,,86,0,1,,,,,0,,,47,0
52623,note_on,,,,,1,0,1,,,,,0,,,44,70
52709,note_on,,,,,86,0,1,,,,,0,,,44,0
52710,note_on,,,,,1,0,1,,,,,0,,,41,70
52791,note_on,,,,,81,0,1,,,,,0,,,41,0
52800,note_on,,,,,9,0,1,,,,,0,,,39,70
53280,note_on,,,,,3762,0,0,,,,,0,,,53,70
53280,note_on,,,,,0,0,0,,,,,0,,,56,70
53280,note_on,,,,,0,0,0,,,,,0,,,59,70
53507,note_on,,,,,0,0,0,,,,,0,,,56,0
53507,note_on,,,,,0,0,0,,,,,0,,,59,0
53507,note_on,,,,,227,0,0,,,,,0,,,53,0
53639,note_on,,,,,839,0,1,,,,,0,,,39,0
53640,note_on,,,,,1,0,1,,,,,0,,,38,67
53753,note_on,,,,,113,0,1,,,,,0,,,38,0
53760,note_on,,,,,7,0,1,,,,,0,,,38,65
53987,note_on,,,,,227,0,1,,,,,0,,,38,0
54240,note_on,,,,,0,0,0,,,,,0,,,56,60
54240,note_on,,,,,0,0,0,,,,,0,,,58,60
54240,note_on,,,,,733,0,0,,,,,0,,,53,60
54467,note_on,,,,,0,0,0,,,,,0,,,56,0
54467,note_on,,,,,0,0,0,,,,,0,,,58,0
54467,note_on,,,,,227,0,0,,,,,0,,,53,0
54720,note_on,,,,,733,0,1,,,,,0,,,35,60
55200,note_on,,,,,733,0,0,,,,,0,,,53,59
55200,note_on,,,,,0,0,0,,,,,0,,,63,59
55200,note_on,,,,,0,0,0,,,,,0,,,56,59
55427,note_on,,,,,0,0,0,,,,,0,,,63,0
55427,note_on,,,,,227,0,0,,,,,0,,,53,0
55427,note_on,,,,,0,0,0,,,,,0,,,56,0
55559,note_on,,,,,839,0,1,,,,,0,,,35,0
55560,note_on,,,,,1,0,1,,,,,0,,,34,58
55673,note_on,,,,,113,0,1,,,,,0,,,34,0
55680,note_on,,,,,0,0,0,,,,,0,,,56,57
55680,note_on,,,,,0,0,0,,,,,0,,,62,57
55680,note_on,,,,,253,0,0,,,,,0,,,53,57
55680,note_on,,,,,7,0,1,,,,,0,,,34,57
55758,note_on,,,,,78,0,1,,,,,0,,,34,0
55907,note_on,,,,,0,0,0,,,,,0,,,62,0
55907,note_on,,,,,0,0,0,,,,,0,,,56,0
55907,note_on,,,,,227,0,0,,,,,0,,,53,0
56160,note_on,,,,,402,0,1,,,,,0,,,46,55
56238,note_on,,,,,78,0,1,,,,,0,,,46,0
56640,note_on,,,,,402,0,1,,,,,0,,,58,54
56718,note_on,,,,,78,0,1,,,,,0,,,58,0
57120,note_on,,,,,402,0,1,,,,,0,,,70,52
57198,note_on,,,,,78,0,1,,,,,0,,,70,0
57600,note_on,,,,,402,0,1,,,,,0,,,82,60
58242,note_on,,,,,642,0,1,,,,,0,,,82,0
58800,note_on,,,,,558,0,1,,,,,0,,,58,70
58800,note_on,,,,,2893,0,0,,,,,0,,,70,70
58800,note_on,,,,,0,0,0,,,,,0,,,82,70
58871,note_on,,,,,71,0,1,,,,,0,,,58,0
58871,note_on,,,,,71,0,0,,,,,0,,,70,0
58871,note_on,,,,,0,0,0,,,,,0,,,82,0
58944,note_on,,,,,0,0,0,,,,,0,,,83,70
58944,note_on,,,,,73,0,1,,,,,0,,,59,70
58944,note_on,,,,,73,0,0,,,,,0,,,71,70
59015,note_on,,,,,0,0,0,,,,,0,,,83,0
59015,note_on,,,,,71,0,0,,,,,0,,,71,0
59015,note_on,,,,,71,0,1,,,,,0,,,59,0
59088,note_on,,,,,73,0,0,,,,,0,,,72,70
59088,note_on,,,,,0,0,0,,,,,0,,,84,70
59088,note_on,,,,,73,0,1,,,,,0,,,60,70
59159,note_on,,,,,71,0,0,,,,,0,,,72,0
59159,note_on,,,,,0,0,0,,,,,0,,,84,0
59159,note_on,,,,,71,0,1,,,,,0,,,60,0
59232,note_on,,,,,0,0,0,,,,,0,,,85,70
59232,note_on,,,,,73,0,1,,,,,0,,,61,70
59232,note_on,,,,,73,0,0,,,,,0,,,73,70
59303,note_on,,,,,0,0,0,,,,,0,,,85,0
59303,note_on,,,,,71,0,0,,,,,0,,,73,0
59303,note_on,,,,,71,0,1,,,,,0,,,61,0
59376,note_on,,,,,0,0,0,,,,,0,,,86,70
59376,note_on,,,,,73,0,1,,,,,0,,,62,70
59376,note_on,,,,,73,0,0,,,,,0,,,74,70
59447,note_on,,,,,0,0,0,,,,,0,,,86,0
59447,note_on,,,,,71,0,0,,,,,0,,,74,0
59447,note_on,,,,,71,0,1,,,,,0,,,62,0
59520,note_on,,,,,0,0,0,,,,,0,,,87,70
59520,note_on,,,,,73,0,0,,,,,0,,,75,70
59520,note_on,,,,,73,0,1,,,,,0,,,63,70
60000,note_on,,,,,0,0,1,,,,,0,,,46,70
60000,note_on,,,,,0,0,1,,,,,0,,,51,70
60000,note_on,,,,,0,0,0,,,,,0,,,58,70
60000,note_on,,,,,480,0,0,,,,,0,,,55,70
60000,note_on,,,,,480,0,1,,,,,0,,,39,70
60078,note_on,,,,,0,0,0,,,,,0,,,58,0
60078,note_on,,,,,78,0,1,,,,,0,,,39,0
60078,note_on,,,,,0,0,1,,,,,0,,,46,0
60078,note_on,,,,,0,0,1,,,,,0,,,51,0
60078,note_on,,,,,78,0,0,,,,,0,,,55,0
60431,note_on,,,,,353,0,1,,,,,0,,,63,0
60479,note_on,,,,,0,0,0,,,,,0,,,87,0
60479,note_on,,,,,401,0,0,,,,,0,,,75,0
60480,note_on,,,,,49,0,1,,,,,0,,,63,70
60480,note_on,,,,,1,0,0,,,,,0,,,75,70
60480,note_on,,,,,0,0,0,,,,,0,,,87,70
60960,note_on,,,,,0,0,1,,,,,0,,,51,70
60960,note_on,,,,,0,0,1,,,,,0,,,47,70
60960,note_on,,,,,0,0,0,,,,,0,,,59,70
60960,note_on,,,,,480,0,0,,,,,0,,,56,70
60960,note_on,,,,,480,0,1,,,,,0,,,44,70
61038,note_on,,,,,0,0,1,,,,,0,,,51,0
61038,note_on,,,,,0,0,1,,,,,0,,,47,0
61038,note_on,,,,,0,0,0,,,,,0,,,59,0
61038,note_on,,,,,78,0,1,,,,,0,,,44,0
61038,note_on,,,,,78,0,0,,,,,0,,,56,0
61277,note_on,,,,,239,0,1,,,,,0,,,63,0
61319,note_on,,,,,281,0,0,,,,,0,,,75,0
61319,note_on,,,,,0,0,0,,,,,0,,,87,0
61320,note_on,,,,,1,0,0,,,,,0,,,75,70
61320,note_on,,,,,0,0,0,,,,,0,,,87,70
61320,note_on,,,,,43,0,1,,,,,0,,,63,70
61433,note_on,,,,,113,0,1,,,,,0,,,63,0
61433,note_on,,,,,0,0,0,,,,,0,,,87,0
61433,note_on,,,,,113,0,0,,,,,0,,,75,0
61440,note_on,,,,,7,0,1,,,,,0,,,63,70
61440,note_on,,,,,7,0,0,,,,,0,,,75,70
61440,note_on,,,,,0,0,0,,,,,0,,,87,70
61920,note_on,,,,,0,0,1,,,,,0,,,46,70
61920,note_on,,,,,480,0,1,,,,,0,,,39,70
61920,note_on,,,,,0,0,1,,,,,0,,,51,70
61998,note_on,,,,,0,0,1,,,,,0,,,51,0
61998,note_on,,,,,0,0,1,,,,,0,,,46,0
61998,note_on,,,,,78,0,1,,,,,0,,,39,0
62351,note_on,,,,,353,0,1,,,,,0,,,63,0
62399,note_on,,,,,959,0,0,,,,,0,,,75,0
62399,note_on,,,,,0,0,0,,,,,0,,,87,0
62640,note_on,,,,,289,0,1,,,,,0,,,62,70
62640,note_on,,,,,0,0,0,,,,,0,,,86,70
62640,note_on,,,,,241,0,0,,,,,0,,,74,70
62686,note_on,,,,,0,0,0,,,,,0,,,86,0
62686,note_on,,,,,46,0,1,,,,,0,,,62,0
62686,note_on,,,,,46,0,0,,,,,0,,,74,0
62784,note_on,,,,,0,0,0,,,,,0,,,87,70
62784,note_on,,,,,98,0,0,,,,,0,,,75,70
62784,note_on,,,,,98,0,1,,,,,0,,,63,70
62830,note_on,,,,,0,0,0,,,,,0,,,87,0
62830,note_on,,,,,46,0,1,,,,,0,,,63,0
62830,note_on,,,,,46,0,0,,,,,0,,,75,0
62928,note_on,,,,,98,0,0,,,,,0,,,79,70
62928,note_on,,,,,0,0,0,,,,,0,,,91,70
62928,note_on,,,,,98,0,1,,,,,0,,,67,70
62974,note_on,,,,,46,0,0,,,,,0,,,79,0
62974,note_on,,,,,0,0,0,,,,,0,,,91,0
62974,note_on,,,,,46,0,1,,,,,0,,,67,0
63072,note_on,,,,,0,0,0,,,,,0,,,87,70
63072,note_on,,,,,98,0,0,,,,,0,,,75,70
63072,note_on,,,,,98,0,1,,,,,0,,,63,70
63118,note_on,,,,,46,0,1,,,,,0,,,63,0
63118,note_on,,,,,0,0,0,,,,,0,,,87,0
63118,note_on,,,,,46,0,0,,,,,0,,,75,0
63216,note_on,,,,,0,0,0,,,,,0,,,83,70
63216,note_on,,,,,98,0,0,,,,,0,,,71,70
63216,note_on,,,,,98,0,1,,,,,0,,,59,70
63262,note_on,,,,,0,0,0,,,,,0,,,83,0
63262,note_on,,,,,46,0,1,,,,,0,,,59,0
63262,note_on,,,,,46,0,0,,,,,0,,,71,0
63360,note_on,,,,,0,0,0,,,,,0,,,82,70
63360,note_on,,,,,98,0,0,,,,,0,,,70,70
63360,note_on,,,,,98,0,1,,,,,0,,,58,70
63840,note_on,,,,,0,0,1,,,,,0,,,53,70
63840,note_on,,,,,480,0,0,,,,,0,,,58,70
63840,note_on,,,,,0,0,1,,,,,0,,,46,70
63840,note_on,,,,,0,0,1,,,,,0,,,34,70
63840,note_on,,,,,0,0,0,,,,,0,,,62,70
63840,note_on,,,,,480,0,1,,,,,0,,,58,0
63918,note_on,,,,,78,0,1,,,,,0,,,34,0
63918,note_on,,,,,78,0,0,,,,,0,,,62,0
63918,note_on,,,,,0,0,1,,,,,0,,,46,0
63918,note_on,,,,,0,0,1,,,,,0,,,53,0
64271,note_on,,,,,353,0,0,,,,,0,,,58,0
64319,note_on,,,,,0,0,0,,,,,0,,,82,0
64319,note_on,,,,,48,0,0,,,,,0,,,70,0
64320,note_on,,,,,402,0,1,,,,,0,,,58,70
64320,note_on,,,,,1,0,0,,,,,0,,,70,70
64320,note_on,,,,,0,0,0,,,,,0,,,82,70
64800,note_on,,,,,480,0,0,,,,,0,,,58,70
64800,note_on,,,,,0,0,1,,,,,0,,,39,70
64800,note_on,,,,,0,0,1,,,,,0,,,46,70
64800,note_on,,,,,0,0,1,,,,,0,,,54,70
64800,note_on,,,,,480,0,1,,,,,0,,,58,0
64800,note_on,,,,,0,0,0,,,,,0,,,63,70
64878,note_on,,,,,0,0,1,,,,,0,,,54,0
64878,note_on,,,,,0,0,1,,,,,0,,,46,0
64878,note_on,,,,,78,0,0,,,,,0,,,63,0
64878,note_on,,,,,78,0,1,,,,,0,,,39,0
65117,note_on,,,,,239,0,0,,,,,0,,,58,0
65159,note_on,,,,,0,0,0,,,,,0,,,82,0
65159,note_on,,,,,42,0,0,,,,,0,,,70,0
65160,note_on,,,,,282,0,1,,,,,0,,,58,70
65160,note_on,,,,,0,0,0,,,,,0,,,82,70
65160,note_on,,,,,1,0,0,,,,,0,,,70,70
65273,note_on,,,,,113,0,1,,,,,0,,,58,0
65273,note_on,,,,,0,0,0,,,,,0,,,82,0
65273,note_on,,,,,113,0,0,,,,,0,,,70,0
65280,note_on,,,,,0,0,0,,,,,0,,,82,70
65280,note_on,,,,,7,0,1,,,,,0,,,58,70
65280,note_on,,,,,7,0,0,,,,,0,,,70,70
65760,note_on,,,,,0,0,1,,,,,0,,,34,70
65760,note_on,,,,,0,0,1,,,,,0,,,53,70
65760,note_on,,,,,0,0,1,,,,,0,,,46,70
65760,note_on,,,,,0,0,0,,,,,0,,,62,70
65760,note_on,,,,,480,0,1,,,,,0,,,58,0
65760,note_on,,,,,480,0,0,,,,,0,,,58,70
65838,note_on,,,,,78,0,1,,,,,0,,,34,0
65838,note_on,,,,,0,0,1,,,,,0,,,46,0
65838,note_on,,,,,0,0,1,,,,,0,,,53,0
65838,note_on,,,,,78,0,0,,,,,0,,,62,0
66191,note_on,,,,,353,0,0,,,,,0,,,58,0
66239,note_on,,,,,0,0,0,,,,,0,,,82,0
66239,note_on,,,,,48,0,0,,,,,0,,,70,0
66360,note_on,,,,,0,0,0,,,,,0,,,82,70
66360,note_on,,,,,121,0,0,,,,,0,,,70,70
66360,note_on,,,,,522,0,1,,,,,0,,,58,70
66419,note_on,,,,,59,0,0,,,,,0,,,70,0
66419,note_on,,,,,59,0,1,,,,,0,,,58,0
66419,note_on,,,,,0,0,0,,,,,0,,,82,0
66480,note_on,,,,,61,0,1,,,,,0,,,59,70
66480,note_on,,,,,0,0,0,,,,,0,,,83,70
66480,note_on,,,,,61,0,0,,,,,0,,,71,70
66539,note_on,,,,,0,0,0,,,,,0,,,83,0
66539,note_on,,,,,59,0,0,,,,,0,,,71,0
66539,note_on,,,,,59,0,1,,,,,0,,,59,0
66600,note_on,,,,,61,0,0,,,,,0,,,72,71
66600,note_on,,,,,0,0,0,,,,,0,,,84,71
66600,note_on,,,,,61,0,1,,,,,0,,,60,71
66659,note_on,,,,,59,0,1,,,,,0,,,60,0
66659,note_on,,,,,59,0,0,,,,,0,,,72,0
66659,note_on,,,,,0,0,0,,,,,0,,,84,0
66720,note_on,,,,,61,0,1,,,,,0,,,61,72
66720,note_on,,,,,0,0,0,,,,,0,,,85,72
66720,note_on,,,,,61,0,0,,,,,0,,,73,72
66779,note_on,,,,,59,0,0,,,,,0,,,73,0
66779,note_on,,,,,0,0,0,,,,,0,,,85,0
66779,note_on,,,,,59,0,1,,,,,0,,,61,0
66840,note_on,,,,,61,0,1,,,,,0,,,62,72
66840,note_on,,,,,0,0,0,,,,,0,,,86,72
66840,note_on,,,,,61,0,0,,,,,0,,,74,72
66899,note_on,,,,,59,0,0,,,,,0,,,74,0
66899,note_on,,,,,59,0,1,,,,,0,,,62,0
66899,note_on,,,,,0,0,0,,,,,0,,,86,0
66960,note_on,,,,,0,0,0,,,,,0,,,87,73
66960,note_on,,,,,61,0,0,,,,,0,,,75,73
66960,note_on,,,,,61,0,1,,,,,0,,,63,73
67019,note_on,,,,,59,0,0,,,,,0,,,75,0
67019,note_on,,,,,0,0,0,,,,,0,,,87,0
67019,note_on,,,,,59,0,1,,,,,0,,,63,0
67080,note_on,,,,,0,0,0,,,,,0,,,88,74
67080,note_on,,,,,61,0,1,,,,,0,,,64,74
67080,note_on,,,,,61,0,0,,,,,0,,,76,74
67139,note_on,,,,,59,0,0,,,,,0,,,76,0
67139,note_on,,,,,59,0,1,,,,,0,,,64,0
67139,note_on,,,,,0,0,0,,,,,0,,,88,0
67200,note_on,,,,,0,0,0,,,,,0,,,89,75
67200,note_on,,,,,61,0,0,,,,,0,,,77,75
67200,note_on,,,,,61,0,1,,,,,0,,,65,75
67202,control_change,,,,,2,0,1,,,64,127,0,,,,
67680,note_on,,,,,0,0,1,,,,,0,,,48,75
67680,note_on,,,,,480,0,0,,,,,0,,,56,75
67680,note_on,,,,,478,0,1,,,,,0,,,41,75
67680,note_on,,,,,0,0,0,,,,,0,,,60,75
67680,note_on,,,,,0,0,1,,,,,0,,,53,75
67758,note_on,,,,,0,0,0,,,,,0,,,60,0
67758,note_on,,,,,78,0,0,,,,,0,,,56,0
67758,note_on,,,,,0,0,1,,,,,0,,,48,0
67758,note_on,,,,,78,0,1,,,,,0,,,41,0
67758,note_on,,,,,0,0,1,,,,,0,,,53,0
68111,note_on,,,,,353,0,1,,,,,0,,,65,0
68159,note_on,,,,,401,0,0,,,,,0,,,77,0
68159,note_on,,,,,0,0,0,,,,,0,,,89,0
68160,note_on,,,,,1,0,0,,,,,0,,,77,76
68160,note_on,,,,,49,0,1,,,,,0,,,65,76
68160,note_on,,,,,0,0,0,,,,,0,,,89,76
68161,control_change,,,,,1,0,1,,,64,0,0,,,,
68162,control_change,,,,,1,0,1,,,64,127,0,,,,
68640,note_on,,,,,0,0,0,,,,,0,,,61,78
68640,note_on,,,,,0,0,1,,,,,0,,,49,78
68640,note_on,,,,,478,0,1,,,,,0,,,46,78
68640,note_on,,,,,0,0,1,,,,,0,,,53,78
68640,note_on,,,,,480,0,0,,,,,0,,,58,78
68718,note_on,,,,,78,0,0,,,,,0,,,58,0
68718,note_on,,,,,0,0,1,,,,,0,,,53,0
68718,note_on,,,,,0,0,0,,,,,0,,,61,0
68718,note_on,,,,,78,0,1,,,,,0,,,46,0
68718,note_on,,,,,0,0,1,,,,,0,,,49,0
68957,note_on,,,,,239,0,1,,,,,0,,,65,0
68999,note_on,,,,,281,0,0,,,,,0,,,77,0
68999,note_on,,,,,0,0,0,,,,,0,,,89,0
69000,note_on,,,,,0,0,0,,,,,0,,,89,80
69000,note_on,,,,,43,0,1,,,,,0,,,65,80
69000,note_on,,,,,1,0,0,,,,,0,,,77,80
69113,note_on,,,,,113,0,0,,,,,0,,,77,0
69113,note_on,,,,,113,0,1,,,,,0,,,65,0
69113,note_on,,,,,0,0,0,,,,,0,,,89,0
69120,note_on,,,,,7,0,1,,,,,0,,,65,81
69120,note_on,,,,,0,0,0,,,,,0,,,89,81
69120,note_on,,,,,7,0,0,,,,,0,,,77,81
69121,control_change,,,,,1,0,1,,,64,0,0,,,,
69122,control_change,,,,,1,0,1,,,64,127,0,,,,
69600,note_on,,,,,0,0,0,,,,,0,,,60,83
69600,note_on,,,,,480,0,0,,,,,0,,,56,83
69600,note_on,,,,,0,0,1,,,,,0,,,53,83
69600,note_on,,,,,478,0,1,,,,,0,,,41,83
69600,note_on,,,,,0,0,1,,,,,0,,,48,83
69678,note_on,,,,,78,0,1,,,,,0,,,41,0
69678,note_on,,,,,0,0,0,,,,,0,,,60,0
69678,note_on,,,,,0,0,1,,,,,0,,,48,0
69678,note_on,,,,,0,0,1,,,,,0,,,53,0
69678,note_on,,,,,78,0,0,,,,,0,,,56,0
70031,note_on,,,,,353,0,1,,,,,0,,,65,0
70079,note_on,,,,,401,0,0,,,,,0,,,77,0
70079,note_on,,,,,0,0,0,,,,,0,,,89,0
70320,note_on,,,,,0,0,0,,,,,0,,,88,87
70320,note_on,,,,,289,0,1,,,,,0,,,64,87
70320,note_on,,,,,241,0,0,,,,,0,,,76,87
70366,note_on,,,,,46,0,0,,,,,0,,,76,0
70366,note_on,,,,,0,0,0,,,,,0,,,88,0
70366,note_on,,,,,46,0,1,,,,,0,,,64,0
70464,note_on,,,,,0,0,0,,,,,0,,,89,88
70464,note_on,,,,,98,0,0,,,,,0,,,77,88
70464,note_on,,,,,98,0,1,,,,,0,,,65,88
70510,note_on,,,,,46,0,1,,,,,0,,,65,0
70510,note_on,,,,,46,0,0,,,,,0,,,77,0
70510,note_on,,,,,0,0,0,,,,,0,,,89,0
70608,note_on,,,,,98,0,0,,,,,0,,,80,89
70608,note_on,,,,,98,0,1,,,,,0,,,68,89
70608,note_on,,,,,0,0,0,,,,,0,,,92,89
70654,note_on,,,,,46,0,0,,,,,0,,,80,0
70654,note_on,,,,,46,0,1,,,,,0,,,68,0
70654,note_on,,,,,0,0,0,,,,,0,,,92,0
70752,note_on,,,,,98,0,1,,,,,0,,,67,90
70752,note_on,,,,,98,0,0,,,,,0,,,79,90
70752,note_on,,,,,0,0,0,,,,,0,,,91,90
70753,control_change,,,,,1,0,1,,,64,0,0,,,,
70798,note_on,,,,,0,0,0,,,,,0,,,91,0
70798,note_on,,,,,46,0,0,,,,,0,,,79,0
70798,note_on,,,,,45,0,1,,,,,0,,,67,0
70896,note_on,,,,,98,0,1,,,,,0,,,65,90
70896,note_on,,,,,98,0,0,,,,,0,,,77,90
70896,note_on,,,,,0,0,0,,,,,0,,,89,90
70942,note_on,,,,,0,0,0,,,,,0,,,89,0
70942,note_on,,,,,46,0,1,,,,,0,,,65,0
70942,note_on,,,,,46,0,0,,,,,0,,,77,0
71040,note_on,,,,,0,0,0,,,,,0,,,87,109
71040,note_on,,,,,98,0,0,,,,,0,,,75,109
71040,note_on,,,,,98,0,1,,,,,0,,,63,109
71042,control_change,,,,,2,0,1,,,64,127,0,,,,
71520,note_on,,,,,0,0,0,,,,,0,,,60,94
71520,note_on,,,,,480,0,0,,,,,0,,,56,94
71520,note_on,,,,,0,0,1,,,,,0,,,51,94
71520,note_on,,,,,478,0,1,,,,,0,,,44,94
71520,note_on,,,,,0,0,1,,,,,0,,,48,94
71598,note_on,,,,,0,0,0,,,,,0,,,60,0
71598,note_on,,,,,0,0,1,,,,,0,,,51,0
71598,note_on,,,,,78,0,1,,,,,0,,,44,0
71598,note_on,,,,,78,0,0,,,,,0,,,56,0
71598,note_on,,,,,0,0,1,,,,,0,,,48,0
71999,note_on,,,,,401,0,0,,,,,0,,,75,0
71999,note_on,,,,,401,0,1,,,,,0,,,63,0
71999,note_on,,,,,0,0,0,,,,,0,,,87,0
72000,note_on,,,,,0,0,0,,,,,0,,,87,115
72000,note_on,,,,,1,0,1,,,,,0,,,63,115
72000,note_on,,,,,1,0,0,,,,,0,,,75,115
72001,control_change,,,,,1,0,1,,,64,0,0,,,,
72002,control_change,,,,,1,0,1,,,64,127,0,,,,
72480,note_on,,,,,0,0,1,,,,,0,,,51,99
72480,note_on,,,,,478,0,1,,,,,0,,,39,99
72480,note_on,,,,,0,0,0,,,,,0,,,58,99
72480,note_on,,,,,0,0,0,,,,,0,,,61,99
72480,note_on,,,,,0,0,1,,,,,0,,,46,99
72480,note_on,,,,,480,0,0,,,,,0,,,55,99
72558,note_on,,,,,78,0,0,,,,,0,,,55,0
72558,note_on,,,,,78,0,1,,,,,0,,,39,0
72558,note_on,,,,,0,0,1,,,,,0,,,51,0
72558,note_on,,,,,0,0,1,,,,,0,,,46,0
72558,note_on,,,,,0,0,0,,,,,0,,,58,0
72558,note_on,,,,,0,0,0,,,,,0,,,61,0
72839,note_on,,,,,281,0,0,,,,,0,,,75,0
72839,note_on,,,,,281,0,1,,,,,0,,,63,0
72839,note_on,,,,,0,0,0,,,,,0,,,87,0
72840,note_on,,,,,1,0,0,,,,,0,,,75,101
72840,note_on,,,,,0,0,0,,,,,0,,,87,101
72840,note_on,,,,,1,0,1,,,,,0,,,63,101
72953,note_on,,,,,113,0,0,,,,,0,,,75,0
72953,note_on,,,,,0,0,0,,,,,0,,,87,0
72953,note_on,,,,,113,0,1,,,,,0,,,63,0
72960,note_on,,,,,0,0,0,,,,,0,,,96,121
72960,note_on,,,,,7,0,1,,,,,0,,,72,121
72960,note_on,,,,,7,0,0,,,,,0,,,84,121
72961,control_change,,,,,1,0,1,,,64,0,0,,,,
72962,control_change,,,,,1,0,1,,,64,127,0,,,,
73440,note_on,,,,,478,0,1,,,,,0,,,72,0
73440,note_on,,,,,0,0,1,,,,,0,,,51,104
73440,note_on,,,,,0,0,1,,,,,0,,,48,104
73440,note_on,,,,,0,0,1,,,,,0,,,44,104
73440,note_on,,,,,480,0,0,,,,,0,,,68,104
73440,note_on,,,,,0,0,0,,,,,0,,,72,104
73518,note_on,,,,,78,0,0,,,,,0,,,68,0
73518,note_on,,,,,0,0,1,,,,,0,,,48,0
73518,note_on,,,,,0,0,1,,,,,0,,,51,0
73518,note_on,,,,,78,0,1,,,,,0,,,44,0
73830,note_on,,,,,0,0,0,,,,,0,,,96,0
73830,note_on,,,,,312,0,0,,,,,0,,,84,0
73830,note_on,,,,,0,0,0,,,,,0,,,72,0
74160,note_on,,,,,330,0,0,,,,,0,,,79,108
74160,note_on,,,,,0,0,0,,,,,0,,,91,108
74160,note_on,,,,,642,0,1,,,,,0,,,67,108
74206,note_on,,,,,0,0,0,,,,,0,,,91,0
74206,note_on,,,,,46,0,0,,,,,0,,,79,0
74206,note_on,,,,,46,0,1,,,,,0,,,67,0
74304,note_on,,,,,98,0,0,,,,,0,,,80,108
74304,note_on,,,,,98,0,1,,,,,0,,,68,108
74304,note_on,,,,,0,0,0,,,,,0,,,92,108
74350,note_on,,,,,0,0,0,,,,,0,,,92,0
74350,note_on,,,,,46,0,1,,,,,0,,,68,0
74350,note_on,,,,,46,0,0,,,,,0,,,80,0
74448,note_on,,,,,98,0,1,,,,,0,,,70,109
74448,note_on,,,,,98,0,0,,,,,0,,,82,109
74448,note_on,,,,,0,0,0,,,,,0,,,94,109
74494,note_on,,,,,46,0,1,,,,,0,,,70,0
74494,note_on,,,,,46,0,0,,,,,0,,,82,0
74494,note_on,,,,,0,0,0,,,,,0,,,94,0
74592,note_on,,,,,98,0,0,,,,,0,,,80,110
74592,note_on,,,,,98,0,1,,,,,0,,,68,110
74592,note_on,,,,,0,0,0,,,,,0,,,92,110
74593,control_change,,,,,1,0,1,,,64,0,0,,,,
74638,note_on,,,,,45,0,1,,,,,0,,,68,0
74638,note_on,,,,,46,0,0,,,,,0,,,80,0
74638,note_on,,,,,0,0,0,,,,,0,,,92,0
74736,note_on,,,,,98,0,0,,,,,0,,,77,111
74736,note_on,,,,,0,0,0,,,,,0,,,89,111
74736,note_on,,,,,98,0,1,,,,,0,,,65,111
74782,note_on,,,,,46,0,0,,,,,0,,,77,0
74782,note_on,,,,,46,0,1,,,,,0,,,65,0
74782,note_on,,,,,0,0,0,,,,,0,,,89,0
74880,note_on,,,,,0,0,0,,,,,0,,,87,127
74880,note_on,,,,,98,0,0,,,,,0,,,75,127
74880,note_on,,,,,98,0,1,,,,,0,,,63,127
74882,control_change,,,,,2,0,1,,,64,127,0,,,,
75360,note_on,,,,,0,0,0,,,,,0,,,60,112
75360,note_on,,,,,480,0,0,,,,,0,,,56,112
75360,note_on,,,,,0,0,1,,,,,0,,,48,112
75360,note_on,,,,,478,0,1,,,,,0,,,44,112
75360,note_on,,,,,0,0,1,,,,,0,,,51,112
75438,note_on,,,,,0,0,1,,,,,0,,,51,0
75438,note_on,,,,,78,0,1,,,,,0,,,44,0
75438,note_on,,,,,78,0,0,,,,,0,,,56,0
75438,note_on,,,,,0,0,0,,,,,0,,,60,0
75438,note_on,,,,,0,0,1,,,,,0,,,48,0
75839,note_on,,,,,401,0,1,,,,,0,,,63,0
75839,note_on,,,,,401,0,0,,,,,0,,,75,0
75839,note_on,,,,,0,0,0,,,,,0,,,87,0
75840,note_on,,,,,1,0,1,,,,,0,,,63,127
75840,note_on,,,,,0,0,0,,,,,0,,,87,127
75840,note_on,,,,,1,0,0,,,,,0,,,75,127
75841,control_change,,,,,1,0,1,,,64,0,0,,,,
75842,control_change,,,,,1,0,1,,,64,127,0,,,,
76320,note_on,,,,,0,0,0,,,,,0,,,61,112
76320,note_on,,,,,0,0,0,,,,,0,,,58,112
76320,note_on,,,,,478,0,1,,,,,0,,,39,112
76320,note_on,,,,,480,0,0,,,,,0,,,55,112
76320,note_on,,,,,0,0,1,,,,,0,,,46,112
76320,note_on,,,,,0,0,1,,,,,0,,,51,112
76398,note_on,,,,,0,0,1,,,,,0,,,51,0
76398,note_on,,,,,0,0,0,,,,,0,,,61,0
76398,note_on,,,,,78,0,0,,,,,0,,,55,0
76398,note_on,,,,,78,0,1,,,,,0,,,39,0
76398,note_on,,,,,0,0,0,,,,,0,,,58,0
76398,note_on,,,,,0,0,1,,,,,0,,,46,0
76679,note_on,,,,,281,0,1,,,,,0,,,63,0
76679,note_on,,,,,281,0,0,,,,,0,,,75,0
76679,note_on,,,,,0,0,0,,,,,0,,,87,0
76680,note_on,,,,,1,0,0,,,,,0,,,75,112
76680,note_on,,,,,0,0,0,,,,,0,,,87,112
76680,note_on,,,,,1,0,1,,,,,0,,,63,112
76793,note_on,,,,,113,0,1,,,,,0,,,63,0
76793,note_on,,,,,113,0,0,,,,,0,,,75,0
76793,note_on,,,,,0,0,0,,,,,0,,,87,0
76800,note_on,,,,,7,0,0,,,,,0,,,84,127
76800,note_on,,,,,0,0,0,,,,,0,,,96,127
76800,note_on,,,,,0,0,0,,,,,0,,,72,127
76801,control_change,,,,,8,0,1,,,64,0,0,,,,
76802,control_change,,,,,1,0,1,,,64,127,0,,,,
77280,note_on,,,,,0,0,1,,,,,0,,,44,112
77280,note_on,,,,,0,0,1,,,,,0,,,60,112
77280,note_on,,,,,0,0,1,,,,,0,,,32,112
77280,note_on,,,,,478,0,1,,,,,0,,,48,112
77280,note_on,,,,,0,0,1,,,,,0,,,51,112
77280,note_on,,,,,0,0,1,,,,,0,,,39,112
77280,note_on,,,,,0,0,1,,,,,0,,,56,112
77358,note_on,,,,,0,0,1,,,,,0,,,44,0
77358,note_on,,,,,0,0,1,,,,,0,,,51,0
77358,note_on,,,,,0,0,1,,,,,0,,,39,0
77358,note_on,,,,,0,0,1,,,,,0,,,56,0
77358,note_on,,,,,78,0,1,,,,,0,,,48,0
77358,note_on,,,,,0,0,1,,,,,0,,,32,0
77358,note_on,,,,,0,0,1,,,,,0,,,60,0
77442,note_on,,,,,0,0,0,,,,,0,,,72,0
77442,note_on,,,,,0,0,0,,,,,0,,,96,0
77442,note_on,,,,,642,0,0,,,,,0,,,84,0
77760,note_on,,,,,0,0,0,,,,,0,,,96,127
77760,note_on,,,,,0,0,0,,,,,0,,,84,127
77760,note_on,,,,,0,0,0,,,,,0,,,72,127
77760,set_tempo,,,,,318,1,0,,681819,,,,,,,
78240,note_on,,,,,882,0,1,,,,,0,,,54,112
78240,set_tempo,,,,,480,1,0,,852274,,,,,,,
78240,note_on,,,,,0,0,1,,,,,0,,,48,112
78240,note_on,,,,,0,0,1,,,,,0,,,32,112
78240,note_on,,,,,0,0,1,,,,,0,,,39,112
78240,note_on,,,,,0,0,1,,,,,0,,,44,112
78240,note_on,,,,,0,0,1,,,,,0,,,60,112
78240,note_on,,,,,0,0,1,,,,,0,,,63,112
78240,note_on,,,,,0,0,1,,,,,0,,,66,112
78318,note_on,,,,,0,0,1,,,,,0,,,66,0
78318,note_on,,,,,0,0,1,,,,,0,,,63,0
78318,note_on,,,,,0,0,1,,,,,0,,,60,0
78318,note_on,,,,,78,0,1,,,,,0,,,54,0
78318,note_on,,,,,0,0,1,,,,,0,,,48,0
78318,note_on,,,,,0,0,1,,,,,0,,,32,0
78318,note_on,,,,,0,0,1,,,,,0,,,44,0
78318,note_on,,,,,0,0,1,,,,,0,,,39,0
78321,note_on,,,,,81,0,0,,,,,0,,,84,0
78321,note_on,,,,,0,0,0,,,,,0,,,72,0
78321,note_on,,,,,0,0,0,,,,,0,,,96,0
78479,set_tempo,,,,,158,1,0,,681819,,,,,,,
78599,set_tempo,,,,,120,1,0,,545456,,,,,,,
78600,note_on,,,,,0,0,0,,,,,0,,,72,112
78600,note_on,,,,,1,0,0,,,,,0,,,84,112
78600,note_on,,,,,0,0,0,,,,,0,,,96,112
78713,note_on,,,,,0,0,0,,,,,0,,,96,0
78713,note_on,,,,,113,0,0,,,,,0,,,84,0
78713,note_on,,,,,0,0,0,,,,,0,,,72,0
78720,note_on,,,,,0,0,0,,,,,0,,,100,112
78720,note_on,,,,,7,0,0,,,,,0,,,88,112
78720,note_on,,,,,0,0,0,,,,,0,,,76,112
78721,control_change,,,,,403,0,1,,,64,0,0,,,,
78722,control_change,,,,,1,0,1,,,64,127,0,,,,
79200,note_on,,,,,478,0,1,,,,,0,,,31,112
79224,note_on,,,,,24,0,1,,,,,0,,,40,112
79248,note_on,,,,,24,0,1,,,,,0,,,43,112
79272,note_on,,,,,24,0,1,,,,,0,,,48,112
79296,note_on,,,,,24,0,1,,,,,0,,,55,112
79320,note_on,,,,,24,0,1,,,,,0,,,60,112
79344,note_on,,,,,24,0,1,,,,,0,,,64,112
79368,note_on,,,,,24,0,1,,,,,0,,,67,112
79439,note_on,,,,,0,0,1,,,,,0,,,40,0
79439,note_on,,,,,0,0,1,,,,,0,,,31,0
79439,note_on,,,,,0,0,1,,,,,0,,,67,0
79439,note_on,,,,,0,0,1,,,,,0,,,64,0
79439,note_on,,,,,0,0,1,,,,,0,,,60,0
79439,note_on,,,,,71,0,1,,,,,0,,,55,0
79439,note_on,,,,,0,0,1,,,,,0,,,43,0
79439,note_on,,,,,0,0,1,,,,,0,,,48,0
79441,control_change,,,,,2,0,1,,,64,0,0,,,,
79631,note_on,,,,,0,0,0,,,,,0,,,76,0
79631,note_on,,,,,0,0,0,,,,,0,,,100,0
79631,note_on,,,,,911,0,0,,,,,0,,,88,0
79920,note_on,,,,,289,0,0,,,,,0,,,98,112
79979,note_on,,,,,59,0,0,,,,,0,,,98,0
79980,note_on,,,,,1,0,0,,,,,0,,,96,112
80039,note_on,,,,,59,0,0,,,,,0,,,96,0
80040,note_on,,,,,1,0,0,,,,,0,,,91,112
80099,note_on,,,,,59,0,0,,,,,0,,,91,0
80100,note_on,,,,,1,0,0,,,,,0,,,88,112
80159,note_on,,,,,59,0,0,,,,,0,,,88,0
80160,note_on,,,,,0,0,0,,,,,0,,,86,112
80160,note_on,,,,,0,0,0,,,,,0,,,86,0
80160,note_on,,,,,1,0,0,,,,,0,,,86,112
80219,note_on,,,,,59,0,0,,,,,0,,,86,0
80220,note_on,,,,,0,0,0,,,,,0,,,84,112
80220,note_on,,,,,1,0,0,,,,,0,,,84,112
80220,note_on,,,,,0,0,0,,,,,0,,,84,0
80279,note_on,,,,,59,0,0,,,,,0,,,84,0
80280,note_on,,,,,0,0,0,,,,,0,,,79,0
80280,note_on,,,,,1,0,0,,,,,0,,,79,112
80280,note_on,,,,,0,0,0,,,,,0,,,79,112
80339,note_on,,,,,59,0,0,,,,,0,,,79,0
80340,note_on,,,,,1,0,0,,,,,0,,,76,112
80340,note_on,,,,,0,0,0,,,,,0,,,76,0
80340,note_on,,,,,0,0,0,,,,,0,,,76,112
80399,note_on,,,,,59,0,0,,,,,0,,,76,0
80400,note_on,,,,,1,0,0,,,,,0,,,74,112
80459,note_on,,,,,59,0,0,,,,,0,,,74,0
80460,note_on,,,,,1,0,0,,,,,0,,,72,112
80519,note_on,,,,,59,0,0,,,,,0,,,72,0
80520,note_on,,,,,1,0,0,,,,,0,,,67,112
80579,note_on,,,,,59,0,0,,,,,0,,,67,0
80580,note_on,,,,,1,0,0,,,,,0,,,64,112
80639,note_on,,,,,59,0,0,,,,,0,,,64,0
80640,note_on,,,,,1199,0,1,,,,,0,,,62,112
80696,note_on,,,,,56,0,1,,,,,0,,,62,0
80700,note_on,,,,,4,0,1,,,,,0,,,60,112
80756,note_on,,,,,56,0,1,,,,,0,,,60,0
80760,note_on,,,,,4,0,1,,,,,0,,,55,112
80816,note_on,,,,,56,0,1,,,,,0,,,55,0
80820,note_on,,,,,4,0,1,,,,,0,,,52,112
80876,note_on,,,,,56,0,1,,,,,0,,,52,0
80880,note_on,,,,,241,0,0,,,,,0,,,50,112
80959,note_on,,,,,79,0,0,,,,,0,,,50,0
80960,note_on,,,,,1,0,0,,,,,0,,,48,112
81039,note_on,,,,,79,0,0,,,,,0,,,48,0
81040,note_on,,,,,1,0,0,,,,,0,,,45,112
81119,note_on,,,,,79,0,0,,,,,0,,,45,0
81120,note_on,,,,,1,0,0,,,,,0,,,43,112
81198,note_on,,,,,78,0,0,,,,,0,,,43,0
81480,note_on,,,,,0,0,1,,,,,0,,,38,112
81480,note_on,,,,,0,0,1,,,,,0,,,43,112
81480,note_on,,,,,604,0,1,,,,,0,,,31,112
81480,note_on,,,,,0,0,0,,,,,0,,,79,112
81480,note_on,,,,,282,0,0,,,,,0,,,65,112
81480,note_on,,,,,0,0,0,,,,,0,,,71,112
81593,note_on,,,,,0,0,1,,,,,0,,,43,0
81593,note_on,,,,,0,0,0,,,,,0,,,79,0
81593,note_on,,,,,0,0,0,,,,,0,,,71,0
81593,note_on,,,,,113,0,1,,,,,0,,,31,0
81593,note_on,,,,,0,0,1,,,,,0,,,38,0
81593,note_on,,,,,113,0,0,,,,,0,,,65,0
81600,note_on,,,,,0,0,1,,,,,0,,,40,112
81600,note_on,,,,,0,0,1,,,,,0,,,43,112
81600,note_on,,,,,0,0,1,,,,,0,,,48,112
81600,note_on,,,,,7,0,1,,,,,0,,,36,112
81600,note_on,,,,,7,0,0,,,,,0,,,64,112
81600,note_on,,,,,0,0,0,,,,,0,,,76,112
81600,note_on,,,,,0,0,0,,,,,0,,,67,112
81678,note_on,,,,,0,0,0,,,,,0,,,76,0
81678,note_on,,,,,0,0,1,,,,,0,,,48,0
81678,note_on,,,,,0,0,1,,,,,0,,,43,0
81678,note_on,,,,,0,0,1,,,,,0,,,40,0
81678,note_on,,,,,78,0,1,,,,,0,,,36,0
81678,note_on,,,,,78,0,0,,,,,0,,,64,0
81678,note_on,,,,,0,0,0,,,,,0,,,67,0
82080,note_on,,,,,0,0,0,,,,,0,,,67,112
82080,note_on,,,,,0,0,1,,,,,0,,,55,112
82080,note_on,,,,,0,0,1,,,,,0,,,60,112
82080,note_on,,,,,402,0,1,,,,,0,,,48,112
82080,note_on,,,,,0,0,0,,,,,0,,,72,112
82080,note_on,,,,,0,0,1,,,,,0,,,52,112
82080,note_on,,,,,402,0,0,,,,,0,,,64,112
82158,note_on,,,,,78,0,1,,,,,0,,,48,0
82158,note_on,,,,,0,0,0,,,,,0,,,72,0
82158,note_on,,,,,0,0,0,,,,,0,,,67,0
82158,note_on,,,,,0,0,1,,,,,0,,,60,0
82158,note_on,,,,,0,0,1,,,,,0,,,55,0
82158,note_on,,,,,0,0,1,,,,,0,,,52,0
82158,note_on,,,,,78,0,0,,,,,0,,,64,0
84480,note_on,,,,,2322,0,0,,,,,0,,,60,80
84960,note_on,,,,,2802,0,1,,,,,0,,,53,65
85023,note_on,,,,,63,0,1,,,,,0,,,56,65
85087,note_on,,,,,64,0,1,,,,,0,,,68,65
85198,note_on,,,,,0,0,1,,,,,0,,,68,0
85198,note_on,,,,,111,0,1,,,,,0,,,56,0
85199,note_on,,,,,1,0,1,,,,,0,,,53,0
85391,note_on,,,,,911,0,0,,,,,0,,,60,0
85440,note_on,,,,,49,0,0,,,,,0,,,60,80
85920,note_on,,,,,721,0,1,,,,,0,,,49,65
85983,note_on,,,,,63,0,1,,,,,0,,,53,65
86047,note_on,,,,,64,0,1,,,,,0,,,65,65
86158,note_on,,,,,0,0,1,,,,,0,,,65,0
86158,note_on,,,,,111,0,1,,,,,0,,,53,0
86159,note_on,,,,,1,0,1,,,,,0,,,49,0
86237,note_on,,,,,797,0,0,,,,,0,,,60,0
86280,note_on,,,,,43,0,0,,,,,0,,,60,80
86393,note_on,,,,,113,0,0,,,,,0,,,60,0
86400,note_on,,,,,7,0,0,,,,,0,,,60,80
86880,note_on,,,,,721,0,1,,,,,0,,,48,65
86943,note_on,,,,,63,0,1,,,,,0,,,55,65
87007,note_on,,,,,64,0,1,,,,,0,,,64,65
87118,note_on,,,,,0,0,1,,,,,0,,,64,0
87118,note_on,,,,,111,0,1,,,,,0,,,55,0
87119,note_on,,,,,1,0,1,,,,,0,,,48,0
87463,note_on,,,,,1063,0,0,,,,,0,,,60,0
87520,note_on,,,,,57,0,0,,,,,0,,,59,80
87599,note_on,,,,,79,0,0,,,,,0,,,59,0
87680,note_on,,,,,81,0,0,,,,,0,,,60,80
87759,note_on,,,,,79,0,0,,,,,0,,,60,0
87840,note_on,,,,,81,0,0,,,,,0,,,63,80
87919,note_on,,,,,79,0,0,,,,,0,,,63,0
88000,note_on,,,,,81,0,0,,,,,0,,,61,80
88079,note_on,,,,,79,0,0,,,,,0,,,61,0
88160,note_on,,,,,81,0,0,,,,,0,,,60,80
88239,note_on,,,,,79,0,0,,,,,0,,,60,0
88320,note_on,,,,,81,0,0,,,,,0,,,60,80
88800,note_on,,,,,1681,0,1,,,,,0,,,53,65
88863,note_on,,,,,63,0,1,,,,,0,,,56,65
88927,note_on,,,,,64,0,1,,,,,0,,,68,65
89038,note_on,,,,,0,0,1,,,,,0,,,68,0
89038,note_on,,,,,111,0,1,,,,,0,,,56,0
89039,note_on,,,,,1,0,1,,,,,0,,,53,0
89231,note_on,,,,,911,0,0,,,,,0,,,60,0
89280,note_on,,,,,49,0,0,,,,,0,,,60,80
89760,note_on,,,,,721,0,1,,,,,0,,,49,65
89823,note_on,,,,,63,0,1,,,,,0,,,53,65
89887,note_on,,,,,64,0,1,,,,,0,,,65,65
89998,note_on,,,,,0,0,1,,,,,0,,,65,0
89998,note_on,,,,,111,0,1,,,,,0,,,53,0
89999,note_on,,,,,1,0,1,,,,,0,,,49,0
90077,note_on,,,,,797,0,0,,,,,0,,,60,0
90120,note_on,,,,,43,0,0,,,,,0,,,60,80
90233,note_on,,,,,113,0,0,,,,,0,,,60,0
90240,note_on,,,,,7,0,0,,,,,0,,,60,80
90720,note_on,,,,,721,0,1,,,,,0,,,48,65
90783,note_on,,,,,63,0,1,,,,,0,,,55,65
90847,note_on,,,,,64,0,1,,,,,0,,,64,65
90958,note_on,,,,,111,0,1,,,,,0,,,55,0
90958,note_on,,,,,0,0,1,,,,,0,,,64,0
90959,note_on,,,,,1,0,1,,,,,0,,,48,0
91303,note_on,,,,,1063,0,0,,,,,0,,,60,0
91360,note_on,,,,,57,0,0,,,,,0,,,59,80
91439,note_on,,,,,79,0,0,,,,,0,,,59,0
91520,note_on,,,,,81,0,0,,,,,0,,,60,80
91560,note_on,,,,,0,0,0,,,,,0,,,67,80
91560,note_on,,,,,40,0,0,,,,,0,,,64,80
91599,note_on,,,,,39,0,0,,,,,0,,,60,0
91673,note_on,,,,,0,0,0,,,,,0,,,67,0
91673,note_on,,,,,74,0,0,,,,,0,,,64,0
91680,note_on,,,,,0,0,0,,,,,0,,,69,80
91680,note_on,,,,,7,0,0,,,,,0,,,64,80
91680,note_on,,,,,0,0,0,,,,,0,,,67,80
91759,note_on,,,,,79,0,0,,,,,0,,,64,0
91840,note_on,,,,,81,0,0,,,,,0,,,62,80
91907,note_on,,,,,67,0,0,,,,,0,,,67,0
91907,note_on,,,,,0,0,0,,,,,0,,,69,0
91919,note_on,,,,,12,0,0,,,,,0,,,62,0
92000,note_on,,,,,81,0,0,,,,,0,,,60,80
92040,note_on,,,,,40,0,0,,,,,0,,,64,80
92040,note_on,,,,,0,0,0,,,,,0,,,70,80
92040,note_on,,,,,0,0,0,,,,,0,,,67,80
92079,note_on,,,,,39,0,0,,,,,0,,,60,0
92153,note_on,,,,,74,0,0,,,,,0,,,64,0
92153,note_on,,,,,0,0,0,,,,,0,,,67,0
92153,note_on,,,,,0,0,0,,,,,0,,,70,0
92160,note_on,,,,,7,0,0,,,,,0,,,64,80
92160,note_on,,,,,1201,0,1,,,,,0,,,59,65
92160,note_on,,,,,0,0,0,,,,,0,,,71,80
92160,note_on,,,,,0,0,0,,,,,0,,,67,80
92239,note_on,,,,,79,0,1,,,,,0,,,59,0
92320,note_on,,,,,81,0,1,,,,,0,,,54,65
92399,note_on,,,,,79,0,1,,,,,0,,,54,0
92480,note_on,,,,,81,0,1,,,,,0,,,55,65
92559,note_on,,,,,79,0,1,,,,,0,,,55,0
92640,note_on,,,,,81,0,1,,,,,0,,,57,65
92719,note_on,,,,,79,0,1,,,,,0,,,57,0
92800,note_on,,,,,81,0,1,,,,,0,,,55,65
92879,note_on,,,,,79,0,1,,,,,0,,,55,0
92960,note_on,,,,,81,0,1,,,,,0,,,52,65
93039,note_on,,,,,79,0,1,,,,,0,,,52,0
93071,note_on,,,,,911,0,0,,,,,0,,,64,0
93071,note_on,,,,,0,0,0,,,,,0,,,67,0
93071,note_on,,,,,0,0,0,,,,,0,,,71,0
93120,note_on,,,,,49,0,0,,,,,0,,,57,80
93120,note_on,,,,,0,0,0,,,,,0,,,63,80
93120,note_on,,,,,0,0,0,,,,,0,,,66,80
93120,note_on,,,,,0,0,0,,,,,0,,,59,80
93120,note_on,,,,,81,0,1,,,,,0,,,51,65
93120,note_on,,,,,0,0,0,,,,,0,,,71,80
93199,note_on,,,,,79,0,1,,,,,0,,,51,0
93280,note_on,,,,,81,0,1,,,,,0,,,48,65
93359,note_on,,,,,79,0,1,,,,,0,,,48,0
93440,note_on,,,,,81,0,1,,,,,0,,,47,65
93519,note_on,,,,,79,0,1,,,,,0,,,47,0
93600,note_on,,,,,81,0,1,,,,,0,,,45,65
93679,note_on,,,,,79,0,1,,,,,0,,,45,0
93760,note_on,,,,,81,0,1,,,,,0,,,43,65
93839,note_on,,,,,79,0,1,,,,,0,,,43,0
93917,note_on,,,,,797,0,0,,,,,0,,,57,0
93917,note_on,,,,,0,0,0,,,,,0,,,59,0
93917,note_on,,,,,0,0,0,,,,,0,,,63,0
93917,note_on,,,,,0,0,0,,,,,0,,,66,0
93917,note_on,,,,,0,0,0,,,,,0,,,71,0
93920,note_on,,,,,81,0,1,,,,,0,,,42,65
93960,note_on,,,,,0,0,0,,,,,0,,,59,80
93960,note_on,,,,,0,0,0,,,,,0,,,63,80
93960,note_on,,,,,0,0,0,,,,,0,,,66,80
93960,note_on,,,,,0,0,0,,,,,0,,,71,80
93960,note_on,,,,,43,0,0,,,,,0,,,57,80
93999,note_on,,,,,79,0,1,,,,,0,,,42,0
94073,note_on,,,,,0,0,0,,,,,0,,,71,0
94073,note_on,,,,,0,0,0,,,,,0,,,59,0
94073,note_on,,,,,0,0,0,,,,,0,,,63,0
94073,note_on,,,,,0,0,0,,,,,0,,,66,0
94073,note_on,,,,,113,0,0,,,,,0,,,57,0
94080,note_on,,,,,81,0,1,,,,,0,,,40,65
94080,note_on,,,,,7,0,0,,,,,0,,,56,80
94143,note_on,,,,,63,0,0,,,,,0,,,64,80
94159,note_on,,,,,79,0,1,,,,,0,,,40,0
94207,note_on,,,,,64,0,0,,,,,0,,,68,80
94240,note_on,,,,,81,0,1,,,,,0,,,44,65
94272,note_on,,,,,65,0,0,,,,,0,,,71,80
94319,note_on,,,,,79,0,1,,,,,0,,,44,0
94400,note_on,,,,,81,0,1,,,,,0,,,47,65
94479,note_on,,,,,79,0,1,,,,,0,,,47,0
94560,note_on,,,,,81,0,1,,,,,0,,,52,65
94639,note_on,,,,,79,0,1,,,,,0,,,52,0
94720,note_on,,,,,81,0,1,,,,,0,,,56,65
94720,note_on,,,,,448,0,0,,,,,0,,,56,0
94880,note_on,,,,,160,0,1,,,,,0,,,59,65
94959,note_on,,,,,79,0,1,,,,,0,,,59,0
95038,note_on,,,,,318,0,0,,,,,0,,,64,0
95038,note_on,,,,,0,0,0,,,,,0,,,68,0
95039,note_on,,,,,1,0,0,,,,,0,,,71,0
95039,note_on,,,,,80,0,1,,,,,0,,,56,0
95040,note_on,,,,,1,0,1,,,,,0,,,64,65
95159,note_on,,,,,119,0,1,,,,,0,,,64,0
95880,note_on,,,,,841,0,0,,,,,0,,,64,80
95993,note_on,,,,,113,0,0,,,,,0,,,64,0
96000,note_on,,,,,7,0,0,,,,,0,,,64,96
96480,note_on,,,,,1321,0,1,,,,,0,,,57,65
96543,note_on,,,,,63,0,1,,,,,0,,,60,65
96607,note_on,,,,,64,0,1,,,,,0,,,72,65
96718,note_on,,,,,111,0,1,,,,,0,,,60,0
96718,note_on,,,,,0,0,1,,,,,0,,,72,0
96719,note_on,,,,,1,0,1,,,,,0,,,57,0
96959,note_on,,,,,959,0,0,,,,,0,,,64,0
96960,note_on,,,,,1,0,0,,,,,0,,,64,80
97440,note_on,,,,,721,0,1,,,,,0,,,53,65
97503,note_on,,,,,63,0,1,,,,,0,,,57,65
97567,note_on,,,,,64,0,1,,,,,0,,,69,65
97678,note_on,,,,,111,0,1,,,,,0,,,57,0
97678,note_on,,,,,0,0,1,,,,,0,,,69,0
97679,note_on,,,,,1,0,1,,,,,0,,,53,0
97757,note_on,,,,,797,0,0,,,,,0,,,64,0
97800,note_on,,,,,43,0,0,,,,,0,,,64,80
97913,note_on,,,,,113,0,0,,,,,0,,,64,0
97920,note_on,,,,,7,0,0,,,,,0,,,64,80
98400,note_on,,,,,721,0,1,,,,,0,,,52,65
98463,note_on,,,,,63,0,1,,,,,0,,,59,65
98527,note_on,,,,,64,0,1,,,,,0,,,68,65
98638,note_on,,,,,111,0,1,,,,,0,,,59,0
98638,note_on,,,,,0,0,1,,,,,0,,,68,0
98639,note_on,,,,,1,0,1,,,,,0,,,52,0
98983,note_on,,,,,1063,0,0,,,,,0,,,64,0
99040,note_on,,,,,57,0,0,,,,,0,,,63,80
99119,note_on,,,,,79,0,0,,,,,0,,,63,0
99200,note_on,,,,,81,0,0,,,,,0,,,64,80
99279,note_on,,,,,79,0,0,,,,,0,,,64,0
99360,note_on,,,,,81,0,0,,,,,0,,,67,80
99439,note_on,,,,,79,0,0,,,,,0,,,67,0
99520,note_on,,,,,81,0,0,,,,,0,,,65,80
99599,note_on,,,,,79,0,0,,,,,0,,,65,0
99680,note_on,,,,,81,0,0,,,,,0,,,64,80
99759,note_on,,,,,79,0,0,,,,,0,,,64,0
99840,note_on,,,,,81,0,0,,,,,0,,,64,96
100320,note_on,,,,,1681,0,1,,,,,0,,,57,65
100383,note_on,,,,,63,0,1,,,,,0,,,60,65
100447,note_on,,,,,64,0,1,,,,,0,,,72,65
100558,note_on,,,,,0,0,1,,,,,0,,,72,0
100558,note_on,,,,,111,0,1,,,,,0,,,60,0
100559,note_on,,,,,1,0,1,,,,,0,,,57,0
100799,note_on,,,,,959,0,0,,,,,0,,,64,0
100800,note_on,,,,,1,0,0,,,,,0,,,64,80
101280,note_on,,,,,721,0,1,,,,,0,,,53,65
101343,note_on,,,,,63,0,1,,,,,0,,,57,65
101407,note_on,,,,,64,0,1,,,,,0,,,69,65
101518,note_on,,,,,0,0,1,,,,,0,,,69,0
101518,note_on,,,,,111,0,1,,,,,0,,,57,0
101519,note_on,,,,,1,0,1,,,,,0,,,53,0
101597,note_on,,,,,797,0,0,,,,,0,,,64,0
101640,note_on,,,,,43,0,0,,,,,0,,,64,80
101753,note_on,,,,,113,0,0,,,,,0,,,64,0
101760,note_on,,,,,7,0,0,,,,,0,,,64,80
102240,note_on,,,,,721,0,1,,,,,0,,,52,65
102282,note_on,,,,,42,0,1,,,,,0,,,58,65
102324,note_on,,,,,42,0,1,,,,,0,,,61,65
102366,note_on,,,,,42,0,1,,,,,0,,,67,65
102479,note_on,,,,,0,0,1,,,,,0,,,58,0
102479,note_on,,,,,0,0,1,,,,,0,,,67,0
102479,note_on,,,,,0,0,1,,,,,0,,,61,0
102479,note_on,,,,,113,0,1,,,,,0,,,52,0
102823,note_on,,,,,1063,0,0,,,,,0,,,64,0
102880,note_on,,,,,57,0,0,,,,,0,,,63,80
102959,note_on,,,,,79,0,0,,,,,0,,,63,0
103040,note_on,,,,,81,0,0,,,,,0,,,64,80
103119,note_on,,,,,79,0,0,,,,,0,,,64,0
103200,note_on,,,,,81,0,0,,,,,0,,,73,80
103279,note_on,,,,,79,0,0,,,,,0,,,73,0
103360,note_on,,,,,81,0,0,,,,,0,,,70,80
103439,note_on,,,,,79,0,0,,,,,0,,,70,0
103520,note_on,,,,,81,0,0,,,,,0,,,67,79
103599,note_on,,,,,79,0,0,,,,,0,,,67,0
103680,note_on,,,,,81,0,0,,,,,0,,,64,77
103759,note_on,,,,,79,0,0,,,,,0,,,64,0
103840,note_on,,,,,81,0,0,,,,,0,,,61,75
103919,note_on,,,,,79,0,0,,,,,0,,,61,0
104000,note_on,,,,,81,0,0,,,,,0,,,58,75
104079,note_on,,,,,79,0,0,,,,,0,,,58,0
104160,note_on,,,,,81,0,0,,,,,0,,,55,75
104239,note_on,,,,,79,0,0,,,,,0,,,55,0
104320,note_on,,,,,81,0,0,,,,,0,,,52,75
104399,note_on,,,,,79,0,0,,,,,0,,,52,0
104480,note_on,,,,,81,0,0,,,,,0,,,49,75
104559,note_on,,,,,79,0,0,,,,,0,,,49,0
104640,note_on,,,,,81,0,0,,,,,0,,,46,75
104719,note_on,,,,,79,0,0,,,,,0,,,46,0
104800,note_on,,,,,81,0,0,,,,,0,,,43,75
104879,note_on,,,,,79,0,0,,,,,0,,,43,0
104960,note_on,,,,,81,0,0,,,,,0,,,40,75
105039,note_on,,,,,79,0,0,,,,,0,,,40,0
105120,note_on,,,,,81,0,0,,,,,0,,,37,75
105199,note_on,,,,,79,0,0,,,,,0,,,37,0
105280,note_on,,,,,81,0,0,,,,,0,,,39,75
105359,note_on,,,,,79,0,0,,,,,0,,,39,0
105440,note_on,,,,,81,0,0,,,,,0,,,40,75
105519,note_on,,,,,79,0,0,,,,,0,,,40,0
105600,note_on,,,,,3121,0,1,,,,,0,,,41,75
105960,note_on,,,,,441,0,0,,,,,0,,,46,75
105960,note_on,,,,,0,0,0,,,,,0,,,54,75
106079,note_on,,,,,119,0,0,,,,,0,,,46,0
106079,note_on,,,,,0,0,0,,,,,0,,,54,0
106080,note_on,,,,,1,0,0,,,,,0,,,49,75
106080,note_on,,,,,480,0,1,,,,,0,,,29,75
106080,note_on,,,,,0,0,0,,,,,0,,,53,75
106143,note_on,,,,,63,0,1,,,,,0,,,34,75
106158,note_on,,,,,0,0,0,,,,,0,,,53,0
106158,note_on,,,,,78,0,0,,,,,0,,,49,0
106207,note_on,,,,,64,0,1,,,,,0,,,37,75
106318,note_on,,,,,111,0,1,,,,,0,,,34,0
106318,note_on,,,,,0,0,1,,,,,0,,,37,0
106319,note_on,,,,,1,0,1,,,,,0,,,29,0
106440,note_on,,,,,282,0,0,,,,,0,,,58,75
106440,note_on,,,,,0,0,0,,,,,0,,,66,75
106511,note_on,,,,,192,0,1,,,,,0,,,41,0
106559,note_on,,,,,119,0,0,,,,,0,,,58,0
106559,note_on,,,,,0,0,0,,,,,0,,,66,0
106560,note_on,,,,,0,0,0,,,,,0,,,65,75
106560,note_on,,,,,49,0,1,,,,,0,,,41,75
106560,note_on,,,,,1,0,0,,,,,0,,,61,75
106638,note_on,,,,,0,0,0,,,,,0,,,65,0
106638,note_on,,,,,78,0,0,,,,,0,,,61,0
106920,note_on,,,,,282,0,0,,,,,0,,,69,75
106920,note_on,,,,,0,0,0,,,,,0,,,78,75
107039,note_on,,,,,0,0,0,,,,,0,,,78,0
107039,note_on,,,,,119,0,0,,,,,0,,,69,0
107040,note_on,,,,,480,0,1,,,,,0,,,29,75
107040,note_on,,,,,0,0,0,,,,,0,,,77,75
107040,note_on,,,,,1,0,0,,,,,0,,,72,75
107103,note_on,,,,,63,0,1,,,,,0,,,33,75
107118,note_on,,,,,0,0,0,,,,,0,,,77,0
107118,note_on,,,,,78,0,0,,,,,0,,,72,0
107167,note_on,,,,,64,0,1,,,,,0,,,36,75
107278,note_on,,,,,0,0,1,,,,,0,,,36,0
107278,note_on,,,,,111,0,1,,,,,0,,,33,0
107279,note_on,,,,,1,0,1,,,,,0,,,29,0
107357,note_on,,,,,78,0,1,,,,,0,,,41,0
107400,note_on,,,,,43,0,1,,,,,0,,,41,75
107513,note_on,,,,,113,0,1,,,,,0,,,41,0
107520,note_on,,,,,7,0,1,,,,,0,,,41,75
108000,note_on,,,,,0,0,0,,,,,0,,,89,75
108000,note_on,,,,,0,0,0,,,,,0,,,97,75
108000,note_on,,,,,882,0,0,,,,,0,,,82,75
108000,note_on,,,,,480,0,1,,,,,0,,,34,75
108063,note_on,,,,,63,0,1,,,,,0,,,37,75
108075,note_on,,,,,0,0,0,,,,,0,,,89,0
108075,note_on,,,,,0,0,0,,,,,0,,,97,0
108075,note_on,,,,,75,0,0,,,,,0,,,82,0
108076,note_on,,,,,1,0,0,,,,,0,,,96,75
108151,note_on,,,,,75,0,0,,,,,0,,,96,0
108152,note_on,,,,,1,0,0,,,,,0,,,94,75
108227,note_on,,,,,75,0,0,,,,,0,,,94,0
108228,note_on,,,,,1,0,0,,,,,0,,,89,75
108238,note_on,,,,,175,0,1,,,,,0,,,37,0
108239,note_on,,,,,1,0,1,,,,,0,,,34,0
108303,note_on,,,,,75,0,0,,,,,0,,,89,0
108304,note_on,,,,,1,0,0,,,,,0,,,85,75
108379,note_on,,,,,75,0,0,,,,,0,,,85,0
108380,note_on,,,,,1,0,0,,,,,0,,,84,75
108455,note_on,,,,,75,0,0,,,,,0,,,84,0
108456,note_on,,,,,1,0,0,,,,,0,,,82,75
108531,note_on,,,,,75,0,0,,,,,0,,,82,0
108532,note_on,,,,,1,0,0,,,,,0,,,77,74
108607,note_on,,,,,75,0,0,,,,,0,,,77,0
108608,note_on,,,,,1,0,0,,,,,0,,,73,74
108683,note_on,,,,,75,0,0,,,,,0,,,73,0
108684,note_on,,,,,1,0,0,,,,,0,,,72,74
108759,note_on,,,,,75,0,0,,,,,0,,,72,0
108760,note_on,,,,,1,0,0,,,,,0,,,70,74
108773,note_on,,,,,534,0,1,,,,,0,,,41,0
108835,note_on,,,,,75,0,0,,,,,0,,,70,0
108836,note_on,,,,,1,0,0,,,,,0,,,65,74
108840,note_on,,,,,67,0,1,,,,,0,,,41,74
108878,note_on,,,,,38,0,1,,,,,0,,,41,0
108911,note_on,,,,,75,0,0,,,,,0,,,65,0
108912,note_on,,,,,1,0,0,,,,,0,,,61,74
108960,note_on,,,,,82,0,1,,,,,0,,,42,74
108987,note_on,,,,,75,0,0,,,,,0,,,61,0
108988,note_on,,,,,1,0,0,,,,,0,,,60,74
109063,note_on,,,,,75,0,0,,,,,0,,,60,0
109064,note_on,,,,,1,0,0,,,,,0,,,58,74
109077,note_on,,,,,117,0,1,,,,,0,,,42,0
109139,note_on,,,,,75,0,0,,,,,0,,,58,0
109140,note_on,,,,,1,0,0,,,,,0,,,53,74
109215,note_on,,,,,75,0,0,,,,,0,,,53,0
109216,note_on,,,,,1,0,0,,,,,0,,,49,74
109291,note_on,,,,,75,0,0,,,,,0,,,49,0
109292,note_on,,,,,1,0,0,,,,,0,,,48,74
109320,note_on,,,,,243,0,1,,,,,0,,,43,74
109358,note_on,,,,,38,0,1,,,,,0,,,43,0
109367,note_on,,,,,75,0,0,,,,,0,,,48,0
109368,note_on,,,,,1,0,0,,,,,0,,,46,74
109439,note_on,,,,,71,0,0,,,,,0,,,46,0
109440,note_on,,,,,82,0,1,,,,,0,,,44,88
109800,note_on,,,,,361,0,0,,,,,0,,,49,74
109800,note_on,,,,,0,0,0,,,,,0,,,58,74
109919,note_on,,,,,0,0,0,,,,,0,,,58,0
109919,note_on,,,,,119,0,0,,,,,0,,,49,0
109920,note_on,,,,,480,0,1,,,,,0,,,32,74
109920,note_on,,,,,1,0,0,,,,,0,,,53,74
109920,note_on,,,,,0,0,0,,,,,0,,,56,74
109983,note_on,,,,,63,0,1,,,,,0,,,37,74
109998,note_on,,,,,78,0,0,,,,,0,,,53,0
109998,note_on,,,,,0,0,0,,,,,0,,,56,0
110047,note_on,,,,,64,0,1,,,,,0,,,41,74
110158,note_on,,,,,111,0,1,,,,,0,,,37,0
110158,note_on,,,,,0,0,1,,,,,0,,,41,0
110159,note_on,,,,,1,0,1,,,,,0,,,32,0
110280,note_on,,,,,282,0,0,,,,,0,,,61,74
110280,note_on,,,,,0,0,0,,,,,0,,,70,74
110399,note_on,,,,,240,0,1,,,,,0,,,44,0
110399,note_on,,,,,119,0,0,,,,,0,,,61,0
110399,note_on,,,,,0,0,0,,,,,0,,,70,0
110400,note_on,,,,,0,0,0,,,,,0,,,68,74
110400,note_on,,,,,1,0,0,,,,,0,,,65,74
110400,note_on,,,,,1,0,1,,,,,0,,,44,74
110478,note_on,,,,,0,0,0,,,,,0,,,68,0
110478,note_on,,,,,78,0,0,,,,,0,,,65,0
110760,note_on,,,,,282,0,0,,,,,0,,,72,74
110760,note_on,,,,,0,0,0,,,,,0,,,82,74
110879,note_on,,,,,0,0,0,,,,,0,,,82,0
110879,note_on,,,,,119,0,0,,,,,0,,,72,0
110880,note_on,,,,,480,0,1,,,,,0,,,32,74
110880,note_on,,,,,0,0,0,,,,,0,,,80,74
110880,note_on,,,,,1,0,0,,,,,0,,,75,74
110943,note_on,,,,,63,0,1,,,,,0,,,36,74
110958,note_on,,,,,0,0,0,,,,,0,,,80,0
110958,note_on,,,,,78,0,0,,,,,0,,,75,0
111007,note_on,,,,,64,0,1,,,,,0,,,42,74
111118,note_on,,,,,0,0,1,,,,,0,,,42,0
111118,note_on,,,,,111,0,1,,,,,0,,,36,0
111119,note_on,,,,,1,0,1,,,,,0,,,32,0
111197,note_on,,,,,78,0,1,,,,,0,,,44,0
111240,note_on,,,,,43,0,1,,,,,0,,,44,74
111353,note_on,,,,,113,0,1,,,,,0,,,44,0
111360,note_on,,,,,7,0,1,,,,,0,,,44,74
111840,note_on,,,,,882,0,0,,,,,0,,,85,74
111840,note_on,,,,,480,0,1,,,,,0,,,32,74
111840,note_on,,,,,0,0,1,,,,,0,,,37,74
111840,note_on,,,,,0,0,1,,,,,0,,,41,74
111857,note_on,,,,,17,0,0,,,,,0,,,92,74
111875,note_on,,,,,18,0,0,,,,,0,,,101,74
111914,note_on,,,,,0,0,0,,,,,0,,,101,0
111914,note_on,,,,,39,0,0,,,,,0,,,92,0
111915,note_on,,,,,1,0,0,,,,,0,,,85,0
111916,note_on,,,,,1,0,0,,,,,0,,,99,74
111918,note_on,,,,,0,0,1,,,,,0,,,37,0
111918,note_on,,,,,78,0,1,,,,,0,,,32,0
111918,note_on,,,,,0,0,1,,,,,0,,,41,0
111991,note_on,,,,,75,0,0,,,,,0,,,99,0
111992,note_on,,,,,1,0,0,,,,,0,,,97,74
112067,note_on,,,,,75,0,0,,,,,0,,,97,0
112068,note_on,,,,,1,0,0,,,,,0,,,92,74
112143,note_on,,,,,75,0,0,,,,,0,,,92,0
112144,note_on,,,,,1,0,0,,,,,0,,,89,74
112219,note_on,,,,,75,0,0,,,,,0,,,89,0
112220,note_on,,,,,1,0,0,,,,,0,,,87,74
112295,note_on,,,,,75,0,0,,,,,0,,,87,0
112296,note_on,,,,,1,0,0,,,,,0,,,85,74
112371,note_on,,,,,75,0,0,,,,,0,,,85,0
112372,note_on,,,,,1,0,0,,,,,0,,,80,73
112423,note_on,,,,,505,0,1,,,,,0,,,44,0
112447,note_on,,,,,75,0,0,,,,,0,,,80,0
112448,note_on,,,,,1,0,0,,,,,0,,,77,73
112480,note_on,,,,,57,0,1,,,,,0,,,43,73
112523,note_on,,,,,75,0,0,,,,,0,,,77,0
112524,note_on,,,,,1,0,0,,,,,0,,,75,73
112531,note_on,,,,,51,0,1,,,,,0,,,43,0
112599,note_on,,,,,75,0,0,,,,,0,,,75,0
112600,note_on,,,,,1,0,0,,,,,0,,,73,73
112640,note_on,,,,,109,0,1,,,,,0,,,44,73
112675,note_on,,,,,75,0,0,,,,,0,,,73,0
112676,note_on,,,,,1,0,0,,,,,0,,,68,73
112691,note_on,,,,,51,0,1,,,,,0,,,44,0
112751,note_on,,,,,75,0,0,,,,,0,,,68,0
112752,note_on,,,,,1,0,0,,,,,0,,,65,73
112800,note_on,,,,,109,0,1,,,,,0,,,49,73
112827,note_on,,,,,75,0,0,,,,,0,,,65,0
112828,note_on,,,,,1,0,0,,,,,0,,,63,73
112851,note_on,,,,,51,0,1,,,,,0,,,49,0
112903,note_on,,,,,75,0,0,,,,,0,,,63,0
112904,note_on,,,,,1,0,0,,,,,0,,,61,73
112960,note_on,,,,,109,0,1,,,,,0,,,48,73
112979,note_on,,,,,75,0,0,,,,,0,,,61,0
112980,note_on,,,,,1,0,0,,,,,0,,,56,73
113011,note_on,,,,,51,0,1,,,,,0,,,48,0
113055,note_on,,,,,75,0,0,,,,,0,,,56,0
113056,note_on,,,,,1,0,0,,,,,0,,,53,73
113120,note_on,,,,,109,0,1,,,,,0,,,46,73
113131,note_on,,,,,75,0,0,,,,,0,,,53,0
113132,note_on,,,,,1,0,0,,,,,0,,,51,73
113171,note_on,,,,,51,0,1,,,,,0,,,46,0
113207,note_on,,,,,75,0,0,,,,,0,,,51,0
113208,note_on,,,,,1,0,0,,,,,0,,,49,73
113279,note_on,,,,,71,0,0,,,,,0,,,49,0
113280,note_on,,,,,109,0,1,,,,,0,,,44,87
113640,note_on,,,,,361,0,0,,,,,0,,,49,73
113640,note_on,,,,,0,0,0,,,,,0,,,58,73
113759,note_on,,,,,119,0,0,,,,,0,,,49,0
113759,note_on,,,,,0,0,0,,,,,0,,,58,0
113760,note_on,,,,,1,0,0,,,,,0,,,53,73
113760,note_on,,,,,480,0,1,,,,,0,,,32,73
113760,note_on,,,,,0,0,1,,,,,0,,,37,73
113760,note_on,,,,,0,0,1,,,,,0,,,41,73
113760,note_on,,,,,0,0,0,,,,,0,,,56,73
113838,note_on,,,,,78,0,0,,,,,0,,,53,0
113838,note_on,,,,,78,0,1,,,,,0,,,32,0
113838,note_on,,,,,0,0,0,,,,,0,,,56,0
113838,note_on,,,,,0,0,1,,,,,0,,,41,0
113838,note_on,,,,,0,0,1,,,,,0,,,37,0
114120,note_on,,,,,282,0,0,,,,,0,,,61,73
114120,note_on,,,,,0,0,0,,,,,0,,,70,73
114239,note_on,,,,,0,0,0,,,,,0,,,70,0
114239,note_on,,,,,401,0,1,,,,,0,,,44,0
114239,note_on,,,,,119,0,0,,,,,0,,,61,0
114240,note_on,,,,,1,0,0,,,,,0,,,65,73
114240,note_on,,,,,0,0,0,,,,,0,,,68,73
114240,note_on,,,,,1,0,1,,,,,0,,,44,73
114318,note_on,,,,,78,0,0,,,,,0,,,65,0
114318,note_on,,,,,0,0,0,,,,,0,,,68,0
114600,note_on,,,,,0,0,0,,,,,0,,,82,73
114600,note_on,,,,,282,0,0,,,,,0,,,72,73
114719,note_on,,,,,0,0,0,,,,,0,,,82,0
114719,note_on,,,,,119,0,0,,,,,0,,,72,0
114720,note_on,,,,,0,0,0,,,,,0,,,80,73
114720,note_on,,,,,480,0,1,,,,,0,,,32,73
114720,note_on,,,,,1,0,0,,,,,0,,,75,73
114720,note_on,,,,,0,0,1,,,,,0,,,42,73
114720,note_on,,,,,0,0,1,,,,,0,,,36,73
114798,note_on,,,,,0,0,0,,,,,0,,,80,0
114798,note_on,,,,,0,0,1,,,,,0,,,42,0
114798,note_on,,,,,78,0,1,,,,,0,,,32,0
114798,note_on,,,,,78,0,0,,,,,0,,,75,0
114798,note_on,,,,,0,0,1,,,,,0,,,36,0
115037,note_on,,,,,239,0,1,,,,,0,,,44,0
115080,note_on,,,,,43,0,1,,,,,0,,,44,73
115193,note_on,,,,,113,0,1,,,,,0,,,44,0
115200,note_on,,,,,7,0,1,,,,,0,,,44,73
115202,control_change,,,,,404,0,0,,,64,127,0,,,,
115680,note_on,,,,,480,0,1,,,,,0,,,32,73
115680,note_on,,,,,478,0,0,,,,,0,,,85,73
115697,note_on,,,,,17,0,0,,,,,0,,,92,73
115715,note_on,,,,,18,0,0,,,,,0,,,101,73
115743,note_on,,,,,63,0,1,,,,,0,,,37,73
115754,note_on,,,,,0,0,0,,,,,0,,,101,0
115754,note_on,,,,,39,0,0,,,,,0,,,92,0
115755,note_on,,,,,1,0,0,,,,,0,,,85,0
115756,note_on,,,,,1,0,0,,,,,0,,,99,73
115807,note_on,,,,,64,0,1,,,,,0,,,41,73
115831,note_on,,,,,75,0,0,,,,,0,,,99,0
115832,note_on,,,,,1,0,0,,,,,0,,,97,73
115907,note_on,,,,,75,0,0,,,,,0,,,97,0
115908,note_on,,,,,1,0,0,,,,,0,,,92,73
115918,note_on,,,,,0,0,1,,,,,0,,,41,0
115918,note_on,,,,,111,0,1,,,,,0,,,37,0
115919,note_on,,,,,1,0,1,,,,,0,,,32,0
115983,note_on,,,,,75,0,0,,,,,0,,,92,0
115984,note_on,,,,,1,0,0,,,,,0,,,89,73
116059,note_on,,,,,75,0,0,,,,,0,,,89,0
116060,note_on,,,,,1,0,0,,,,,0,,,87,73
116135,note_on,,,,,75,0,0,,,,,0,,,87,0
116136,note_on,,,,,1,0,0,,,,,0,,,85,73
116211,note_on,,,,,75,0,0,,,,,0,,,85,0
116212,note_on,,,,,1,0,0,,,,,0,,,80,72
116263,note_on,,,,,344,0,1,,,,,0,,,44,0
116287,note_on,,,,,75,0,0,,,,,0,,,80,0
116288,note_on,,,,,1,0,0,,,,,0,,,77,72
116320,note_on,,,,,57,0,1,,,,,0,,,43,72
116363,note_on,,,,,75,0,0,,,,,0,,,77,0
116364,note_on,,,,,1,0,0,,,,,0,,,75,72
116371,note_on,,,,,51,0,1,,,,,0,,,43,0
116439,note_on,,,,,75,0,0,,,,,0,,,75,0
116440,note_on,,,,,1,0,0,,,,,0,,,73,72
116480,note_on,,,,,109,0,1,,,,,0,,,44,72
116515,note_on,,,,,75,0,0,,,,,0,,,73,0
116516,note_on,,,,,1,0,0,,,,,0,,,68,72
116531,note_on,,,,,51,0,1,,,,,0,,,44,0
116591,note_on,,,,,75,0,0,,,,,0,,,68,0
116592,note_on,,,,,1,0,0,,,,,0,,,65,72
116593,control_change,,,,,1,0,0,,,64,0,0,,,,
116640,note_on,,,,,109,0,1,,,,,0,,,53,72
116667,note_on,,,,,74,0,0,,,,,0,,,65,0
116668,note_on,,,,,1,0,0,,,,,0,,,63,72
116691,note_on,,,,,51,0,1,,,,,0,,,53,0
116743,note_on,,,,,75,0,0,,,,,0,,,63,0
116744,note_on,,,,,1,0,0,,,,,0,,,61,72
116800,note_on,,,,,109,0,1,,,,,0,,,49,72
116819,note_on,,,,,75,0,0,,,,,0,,,61,0
116820,note_on,,,,,1,0,0,,,,,0,,,56,72
116851,note_on,,,,,51,0,1,,,,,0,,,49,0
116895,note_on,,,,,75,0,0,,,,,0,,,56,0
116896,note_on,,,,,1,0,0,,,,,0,,,53,72
116960,note_on,,,,,109,0,1,,,,,0,,,46,72
116971,note_on,,,,,75,0,0,,,,,0,,,53,0
116972,note_on,,,,,1,0,0,,,,,0,,,51,72
117011,note_on,,,,,51,0,1,,,,,0,,,46,0
117047,note_on,,,,,75,0,0,,,,,0,,,51,0
117048,note_on,,,,,1,0,0,,,,,0,,,49,72
117119,note_on,,,,,71,0,0,,,,,0,,,49,0
117120,note_on,,,,,109,0,1,,,,,0,,,44,87
117122,control_change,,,,,2,0,1,,,64,127,0,,,,
117280,note_on,,,,,0,0,0,,,,,0,,,58,73
117280,note_on,,,,,161,0,0,,,,,0,,,49,73
117280,note_on,,,,,0,0,0,,,,,0,,,53,73
117359,note_on,,,,,79,0,0,,,,,0,,,49,0
117359,note_on,,,,,0,0,0,,,,,0,,,53,0
117359,note_on,,,,,0,0,0,,,,,0,,,58,0
117440,note_on,,,,,0,0,0,,,,,0,,,53,73
117440,note_on,,,,,0,0,0,,,,,0,,,56,73
117440,note_on,,,,,81,0,0,,,,,0,,,49,73
117519,note_on,,,,,0,0,0,,,,,0,,,53,0
117519,note_on,,,,,0,0,0,,,,,0,,,56,0
117519,note_on,,,,,79,0,0,,,,,0,,,49,0
117600,note_on,,,,,0,0,1,,,,,0,,,41,73
117600,note_on,,,,,0,0,1,,,,,0,,,37,73
117600,note_on,,,,,0,0,0,,,,,0,,,70,73
117600,note_on,,,,,478,0,1,,,,,0,,,32,73
117600,note_on,,,,,0,0,0,,,,,0,,,65,73
117600,note_on,,,,,81,0,0,,,,,0,,,61,73
117678,note_on,,,,,78,0,1,,,,,0,,,32,0
117678,note_on,,,,,0,0,1,,,,,0,,,41,0
117678,note_on,,,,,0,0,1,,,,,0,,,37,0
117679,note_on,,,,,0,0,0,,,,,0,,,70,0
117679,note_on,,,,,0,0,0,,,,,0,,,65,0
117679,note_on,,,,,79,0,0,,,,,0,,,61,0
117681,note_on,,,,,3,0,1,,,,,0,,,44,0
117760,note_on,,,,,0,0,0,,,,,0,,,68,73
117760,note_on,,,,,0,0,0,,,,,0,,,65,73
117760,note_on,,,,,81,0,0,,,,,0,,,61,73
117839,note_on,,,,,0,0,0,,,,,0,,,68,0
117839,note_on,,,,,79,0,0,,,,,0,,,61,0
117839,note_on,,,,,0,0,0,,,,,0,,,65,0
117920,note_on,,,,,81,0,0,,,,,0,,,73,73
117920,note_on,,,,,0,0,0,,,,,0,,,77,73
117920,note_on,,,,,0,0,0,,,,,0,,,82,73
117960,note_on,,,,,279,0,1,,,,,0,,,44,73
117999,note_on,,,,,79,0,0,,,,,0,,,73,0
117999,note_on,,,,,0,0,0,,,,,0,,,77,0
117999,note_on,,,,,0,0,0,,,,,0,,,82,0
118073,note_on,,,,,113,0,1,,,,,0,,,44,0
118080,note_on,,,,,81,0,0,,,,,0,,,72,73
118080,note_on,,,,,7,0,1,,,,,0,,,44,73
118080,note_on,,,,,0,0,0,,,,,0,,,80,73
118080,note_on,,,,,0,0,1,,,,,0,,,32,73
118080,note_on,,,,,0,0,0,,,,,0,,,78,73
118081,control_change,,,,,1,0,1,,,64,0,0,,,,
118143,note_on,,,,,62,0,1,,,,,0,,,39,73
118207,note_on,,,,,64,0,1,,,,,0,,,42,73
118231,note_on,,,,,0,0,0,,,,,0,,,80,0
118231,note_on,,,,,151,0,0,,,,,0,,,72,0
118231,note_on,,,,,24,0,1,,,,,0,,,44,0
118231,note_on,,,,,0,0,0,,,,,0,,,78,0
118240,note_on,,,,,9,0,1,,,,,0,,,32,0
118240,note_on,,,,,0,0,1,,,,,0,,,44,73
118240,note_on,,,,,0,0,1,,,,,0,,,32,73
118240,note_on,,,,,0,0,0,,,,,0,,,92,73
118240,note_on,,,,,9,0,0,,,,,0,,,80,73
118291,note_on,,,,,51,0,0,,,,,0,,,80,0
118291,note_on,,,,,0,0,0,,,,,0,,,92,0
118291,note_on,,,,,51,0,1,,,,,0,,,44,0
118318,note_on,,,,,0,0,1,,,,,0,,,42,0
118318,note_on,,,,,27,0,1,,,,,0,,,39,0
118319,note_on,,,,,1,0,1,,,,,0,,,32,0
118400,note_on,,,,,81,0,1,,,,,0,,,33,76
118400,note_on,,,,,0,0,0,,,,,0,,,93,76
118400,note_on,,,,,0,0,1,,,,,0,,,45,76
118400,note_on,,,,,109,0,0,,,,,0,,,81,76
118451,note_on,,,,,0,0,0,,,,,0,,,93,0
118451,note_on,,,,,51,0,0,,,,,0,,,81,0
118451,note_on,,,,,0,0,1,,,,,0,,,45,0
118451,note_on,,,,,51,0,1,,,,,0,,,33,0
118560,note_on,,,,,109,0,1,,,,,0,,,34,79
118560,note_on,,,,,0,0,1,,,,,0,,,46,79
118560,note_on,,,,,0,0,0,,,,,0,,,94,79
118560,note_on,,,,,109,0,0,,,,,0,,,82,79
118611,note_on,,,,,51,0,1,,,,,0,,,34,0
118611,note_on,,,,,0,0,0,,,,,0,,,94,0
118611,note_on,,,,,0,0,1,,,,,0,,,46,0
118611,note_on,,,,,51,0,0,,,,,0,,,82,0
118720,note_on,,,,,0,0,0,,,,,0,,,95,82
118720,note_on,,,,,0,0,1,,,,,0,,,47,82
118720,note_on,,,,,109,0,0,,,,,0,,,83,82
118720,note_on,,,,,109,0,1,,,,,0,,,35,82
118771,note_on,,,,,51,0,0,,,,,0,,,83,0
118771,note_on,,,,,51,0,1,,,,,0,,,35,0
118771,note_on,,,,,0,0,1,,,,,0,,,47,0
118771,note_on,,,,,0,0,0,,,,,0,,,95,0
118880,note_on,,,,,109,0,1,,,,,0,,,36,85
118880,note_on,,,,,0,0,1,,,,,0,,,48,85
118880,note_on,,,,,0,0,0,,,,,0,,,96,85
118880,note_on,,,,,109,0,0,,,,,0,,,84,85
118931,note_on,,,,,0,0,1,,,,,0,,,48,0
118931,note_on,,,,,51,0,1,,,,,0,,,36,0
118931,note_on,,,,,51,0,0,,,,,0,,,84,0
118931,note_on,,,,,0,0,0,,,,,0,,,96,0
119040,note_on,,,,,109,0,0,,,,,0,,,85,88
119040,note_on,,,,,0,0,0,,,,,0,,,89,88
119040,note_on,,,,,109,0,1,,,,,0,,,37,88
119040,note_on,,,,,0,0,1,,,,,0,,,44,88
119040,note_on,,,,,0,0,1,,,,,0,,,49,88
119040,note_on,,,,,0,0,0,,,,,0,,,97,88
119267,note_on,,,,,0,0,1,,,,,0,,,49,0
119267,note_on,,,,,227,0,1,,,,,0,,,37,0
119267,note_on,,,,,227,0,0,,,,,0,,,85,0
119267,note_on,,,,,0,0,1,,,,,0,,,44,0
119267,note_on,,,,,0,0,0,,,,,0,,,97,0
119267,note_on,,,,,0,0,0,,,,,0,,,89,0
119280,note_on,,,,,13,0,1,,,,,0,,,49,88
119280,set_tempo,,,,,13,1,0,,545456,,,,,,,
119399,note_on,,,,,119,0,1,,,,,0,,,49,0
119520,note_on,,,,,240,0,0,,,,,0,,,56,70
119520,note_on,,,,,0,0,0,,,,,0,,,65,70
119520,note_on,,,,,121,0,1,,,,,0,,,37,88
119599,note_on,,,,,0,0,0,,,,,0,,,65,0
119599,note_on,,,,,79,0,0,,,,,0,,,56,0
119600,note_on,,,,,1,0,0,,,,,0,,,63,70
119639,note_on,,,,,119,0,1,,,,,0,,,37,0
119679,note_on,,,,,79,0,0,,,,,0,,,63,0
119680,note_on,,,,,1,0,0,,,,,0,,,61,70
119759,note_on,,,,,79,0,0,,,,,0,,,61,0
119760,note_on,,,,,121,0,1,,,,,0,,,49,88
119760,note_on,,,,,1,0,0,,,,,0,,,56,70
119839,note_on,,,,,79,0,0,,,,,0,,,56,0
119840,note_on,,,,,1,0,0,,,,,0,,,53,70
119879,note_on,,,,,119,0,1,,,,,0,,,49,0
119915,note_on,,,,,75,0,0,,,,,0,,,53,0
120000,note_on,,,,,0,0,1,,,,,0,,,61,88
120000,note_on,,,,,0,0,1,,,,,0,,,49,88
120000,note_on,,,,,121,0,1,,,,,0,,,49,88
120000,note_on,,,,,0,0,1,,,,,0,,,49,0
120002,control_change,,,,,2,0,1,,,64,127,0,,,,
120240,note_on,,,,,238,0,1,,,,,0,,,45,88
120359,note_on,,,,,119,0,1,,,,,0,,,45,0
120480,note_on,,,,,0,0,0,,,,,0,,,69,70
120480,note_on,,,,,121,0,1,,,,,0,,,61,0
120480,note_on,,,,,0,0,1,,,,,0,,,42,88
120480,note_on,,,,,565,0,0,,,,,0,,,61,70
120559,note_on,,,,,79,0,0,,,,,0,,,69,0
120560,note_on,,,,,1,0,0,,,,,0,,,68,70
120599,note_on,,,,,119,0,1,,,,,0,,,42,0
120639,note_on,,,,,79,0,0,,,,,0,,,68,0
120640,note_on,,,,,1,0,0,,,,,0,,,66,70
120719,note_on,,,,,79,0,0,,,,,0,,,66,0
120720,note_on,,,,,0,0,0,,,,,0,,,61,70
120720,note_on,,,,,1,0,0,,,,,0,,,61,0
120720,note_on,,,,,121,0,1,,,,,0,,,45,88
120800,note_on,,,,,80,0,0,,,,,0,,,57,70
120839,note_on,,,,,39,0,0,,,,,0,,,61,0
120839,note_on,,,,,0,0,1,,,,,0,,,45,0
120839,note_on,,,,,119,0,1,,,,,0,,,49,0
120840,note_on,,,,,0,0,1,,,,,0,,,61,88
120840,note_on,,,,,1,0,1,,,,,0,,,49,88
120875,note_on,,,,,36,0,0,,,,,0,,,57,0
120953,note_on,,,,,113,0,1,,,,,0,,,49,0
120953,note_on,,,,,0,0,1,,,,,0,,,61,0
120960,note_on,,,,,0,0,1,,,,,0,,,49,0
120960,note_on,,,,,0,0,1,,,,,0,,,61,105
120960,note_on,,,,,7,0,1,,,,,0,,,49,105
120960,note_on,,,,,0,0,1,,,,,0,,,49,88
120961,control_change,,,,,1,0,1,,,64,0,0,,,,
120962,control_change,,,,,1,0,1,,,64,127,0,,,,
121200,note_on,,,,,238,0,1,,,,,0,,,44,88
121319,note_on,,,,,119,0,1,,,,,0,,,44,0
121440,note_on,,,,,565,0,0,,,,,0,,,65,70
121440,note_on,,,,,121,0,1,,,,,0,,,37,88
121458,note_on,,,,,18,0,0,,,,,0,,,68,70
121476,note_on,,,,,18,0,0,,,,,0,,,77,70
121519,note_on,,,,,43,0,0,,,,,0,,,65,0
121519,note_on,,,,,0,0,0,,,,,0,,,77,0
121519,note_on,,,,,0,0,0,,,,,0,,,68,0
121520,note_on,,,,,1,0,0,,,,,0,,,75,70
121559,note_on,,,,,119,0,1,,,,,0,,,37,0
121599,note_on,,,,,79,0,0,,,,,0,,,75,0
121600,note_on,,,,,1,0,0,,,,,0,,,73,70
121679,note_on,,,,,79,0,0,,,,,0,,,73,0
121680,note_on,,,,,1,0,0,,,,,0,,,68,70
121680,note_on,,,,,121,0,1,,,,,0,,,44,88
121759,note_on,,,,,79,0,0,,,,,0,,,68,0
121760,note_on,,,,,1,0,0,,,,,0,,,65,70
121799,note_on,,,,,119,0,1,,,,,0,,,44,0
121839,note_on,,,,,79,0,0,,,,,0,,,65,0
121840,note_on,,,,,1,0,0,,,,,0,,,68,70
121919,note_on,,,,,120,0,1,,,,,0,,,49,0
121919,note_on,,,,,79,0,0,,,,,0,,,68,0
121919,note_on,,,,,0,0,1,,,,,0,,,61,0
121920,note_on,,,,,1,0,0,,,,,0,,,73,70
121920,note_on,,,,,1,0,1,,,,,0,,,49,88
121999,note_on,,,,,79,0,0,,,,,0,,,73,0
122000,note_on,,,,,1,0,0,,,,,0,,,75,70
122079,note_on,,,,,79,0,0,,,,,0,,,75,0
122080,note_on,,,,,0,0,1,,,,,0,,,60,88
122080,note_on,,,,,160,0,1,,,,,0,,,48,88
122080,note_on,,,,,1,0,0,,,,,0,,,77,88
122147,note_on,,,,,67,0,1,,,,,0,,,49,0
122159,note_on,,,,,79,0,0,,,,,0,,,77,0
122159,note_on,,,,,0,0,1,,,,,0,,,60,0
122159,note_on,,,,,12,0,1,,,,,0,,,48,0
122160,note_on,,,,,1,0,0,,,,,0,,,80,89
122239,note_on,,,,,79,0,0,,,,,0,,,80,0
122240,note_on,,,,,81,0,1,,,,,0,,,49,90
122240,note_on,,,,,1,0,0,,,,,0,,,85,90
122240,note_on,,,,,0,0,1,,,,,0,,,61,90
122319,note_on,,,,,79,0,1,,,,,0,,,49,0
122319,note_on,,,,,0,0,1,,,,,0,,,61,0
122319,note_on,,,,,79,0,0,,,,,0,,,85,0
122320,note_on,,,,,1,0,0,,,,,0,,,87,91
122399,note_on,,,,,79,0,0,,,,,0,,,87,0
122400,note_on,,,,,81,0,1,,,,,0,,,53,93
122400,note_on,,,,,1,0,0,,,,,0,,,89,93
122400,note_on,,,,,0,0,1,,,,,0,,,65,93
122479,note_on,,,,,0,0,1,,,,,0,,,65,0
122479,note_on,,,,,79,0,0,,,,,0,,,89,0
122479,note_on,,,,,79,0,1,,,,,0,,,53,0
122480,note_on,,,,,1,0,0,,,,,0,,,92,93
122559,note_on,,,,,79,0,0,,,,,0,,,92,0
122560,note_on,,,,,81,0,1,,,,,0,,,49,93
122560,note_on,,,,,1,0,0,,,,,0,,,97,93
122560,note_on,,,,,0,0,1,,,,,0,,,61,93
122561,control_change,,,,,1,0,1,,,64,0,0,,,,
122639,note_on,,,,,78,0,1,,,,,0,,,49,0
122639,note_on,,,,,79,0,0,,,,,0,,,97,0
122639,note_on,,,,,0,0,1,,,,,0,,,61,0
122640,note_on,,,,,1,0,0,,,,,0,,,99,93
122719,note_on,,,,,79,0,0,,,,,0,,,99,0
122720,note_on,,,,,0,0,1,,,,,0,,,58,93
122720,note_on,,,,,1,0,0,,,,,0,,,101,93
122720,note_on,,,,,81,0,1,,,,,0,,,46,93
122795,note_on,,,,,75,0,0,,,,,0,,,101,0
122799,note_on,,,,,0,0,1,,,,,0,,,58,0
122799,note_on,,,,,79,0,1,,,,,0,,,46,0
122880,note_on,,,,,0,0,1,,,,,0,,,56,93
122880,note_on,,,,,81,0,1,,,,,0,,,44,93
122880,note_on,,,,,0,0,1,,,,,0,,,44,93
122880,note_on,,,,,0,0,1,,,,,0,,,44,0
122882,control_change,,,,,2,0,1,,,64,127,0,,,,
123120,note_on,,,,,238,0,1,,,,,0,,,39,93
123239,note_on,,,,,119,0,1,,,,,0,,,39,0
123360,note_on,,,,,565,0,0,,,,,0,,,60,93
123360,note_on,,,,,121,0,1,,,,,0,,,32,93
123360,note_on,,,,,0,0,0,,,,,0,,,68,93
123439,note_on,,,,,0,0,0,,,,,0,,,68,0
123439,note_on,,,,,79,0,0,,,,,0,,,60,0
123440,note_on,,,,,1,0,0,,,,,0,,,64,93
123479,note_on,,,,,119,0,1,,,,,0,,,32,0
123519,note_on,,,,,79,0,0,,,,,0,,,64,0
123520,note_on,,,,,1,0,0,,,,,0,,,63,93
123599,note_on,,,,,79,0,0,,,,,0,,,63,0
123600,note_on,,,,,1,0,0,,,,,0,,,60,93
123600,note_on,,,,,121,0,1,,,,,0,,,39,93
123679,note_on,,,,,79,0,0,,,,,0,,,60,0
123680,note_on,,,,,1,0,0,,,,,0,,,56,93
123680,note_on,,,,,80,0,1,,,,,0,,,56,0
123719,note_on,,,,,39,0,1,,,,,0,,,39,0
123839,note_on,,,,,120,0,1,,,,,0,,,44,0
123839,note_on,,,,,159,0,0,,,,,0,,,56,0
123840,note_on,,,,,1,0,1,,,,,0,,,44,93
123840,note_on,,,,,0,0,1,,,,,0,,,56,93
123840,note_on,,,,,0,0,1,,,,,0,,,44,93
123840,note_on,,,,,0,0,1,,,,,0,,,44,0
123841,control_change,,,,,1,0,1,,,64,0,0,,,,
123842,control_change,,,,,1,0,1,,,64,127,0,,,,
124080,note_on,,,,,238,0,1,,,,,0,,,40,93
124199,note_on,,,,,119,0,1,,,,,0,,,40,0
124320,note_on,,,,,0,0,0,,,,,0,,,68,93
124320,note_on,,,,,481,0,0,,,,,0,,,64,93
124320,note_on,,,,,121,0,1,,,,,0,,,37,93
124399,note_on,,,,,0,0,0,,,,,0,,,68,0
124399,note_on,,,,,79,0,0,,,,,0,,,64,0
124400,note_on,,,,,1,0,0,,,,,0,,,66,93
124439,note_on,,,,,119,0,1,,,,,0,,,37,0
124479,note_on,,,,,79,0,0,,,,,0,,,66,0
124480,note_on,,,,,1,0,0,,,,,0,,,64,93
124559,note_on,,,,,79,0,0,,,,,0,,,64,0
124560,note_on,,,,,1,0,0,,,,,0,,,61,93
124560,note_on,,,,,121,0,1,,,,,0,,,40,93
124639,note_on,,,,,79,0,0,,,,,0,,,61,0
124640,note_on,,,,,80,0,1,,,,,0,,,56,0
124640,note_on,,,,,1,0,0,,,,,0,,,56,93
124679,note_on,,,,,0,0,1,,,,,0,,,40,0
124679,note_on,,,,,39,0,1,,,,,0,,,44,0
124680,note_on,,,,,40,0,0,,,,,0,,,56,0
124680,note_on,,,,,1,0,1,,,,,0,,,44,93
124680,note_on,,,,,0,0,1,,,,,0,,,56,93
124793,note_on,,,,,113,0,1,,,,,0,,,44,0
124793,note_on,,,,,0,0,1,,,,,0,,,56,0
124800,note_on,,,,,0,0,1,,,,,0,,,44,0
124800,note_on,,,,,0,0,1,,,,,0,,,44,93
124800,note_on,,,,,7,0,1,,,,,0,,,44,111
124800,note_on,,,,,0,0,1,,,,,0,,,56,111
124801,control_change,,,,,1,0,1,,,64,0,0,,,,
124802,control_change,,,,,1,0,1,,,64,127,0,,,,
125040,note_on,,,,,238,0,1,,,,,0,,,39,93
125159,note_on,,,,,119,0,1,,,,,0,,,39,0
125280,note_on,,,,,600,0,0,,,,,0,,,63,93
125280,note_on,,,,,121,0,1,,,,,0,,,32,93
125308,note_on,,,,,28,0,0,,,,,0,,,72,93
125359,note_on,,,,,51,0,0,,,,,0,,,63,0
125359,note_on,,,,,0,0,0,,,,,0,,,72,0
125360,note_on,,,,,1,0,0,,,,,0,,,70,93
125399,note_on,,,,,119,0,1,,,,,0,,,32,0
125439,note_on,,,,,79,0,0,,,,,0,,,70,0
125440,note_on,,,,,1,0,0,,,,,0,,,68,93
125519,note_on,,,,,79,0,0,,,,,0,,,68,0
125520,note_on,,,,,121,0,1,,,,,0,,,39,93
125520,note_on,,,,,1,0,0,,,,,0,,,63,93
125599,note_on,,,,,79,0,0,,,,,0,,,63,0
125600,note_on,,,,,1,0,0,,,,,0,,,60,93
125639,note_on,,,,,119,0,1,,,,,0,,,39,0
125679,note_on,,,,,79,0,0,,,,,0,,,60,0
125680,note_on,,,,,1,0,0,,,,,0,,,63,93
125759,note_on,,,,,79,0,0,,,,,0,,,63,0
125759,note_on,,,,,120,0,1,,,,,0,,,44,0
125759,note_on,,,,,0,0,1,,,,,0,,,56,0
125760,note_on,,,,,1,0,0,,,,,0,,,68,93
125760,note_on,,,,,1,0,1,,,,,0,,,44,93
125839,note_on,,,,,79,0,0,,,,,0,,,68,0
125840,note_on,,,,,1,0,0,,,,,0,,,70,93
125919,note_on,,,,,79,0,0,,,,,0,,,70,0
125920,note_on,,,,,1,0,0,,,,,0,,,72,93
125952,note_on,,,,,0,0,1,,,,,0,,,44,93
125952,note_on,,,,,192,0,1,,,,,0,,,44,0
125952,note_on,,,,,0,0,1,,,,,0,,,56,93
125999,note_on,,,,,79,0,0,,,,,0,,,72,0
126000,note_on,,,,,1,0,0,,,,,0,,,75,70
126079,note_on,,,,,79,0,0,,,,,0,,,75,0
126080,note_on,,,,,1,0,0,,,,,0,,,80,70
126133,note_on,,,,,181,0,1,,,,,0,,,44,0
126133,note_on,,,,,0,0,1,,,,,0,,,56,0
126144,note_on,,,,,0,0,1,,,,,0,,,58,71
126144,note_on,,,,,11,0,1,,,,,0,,,46,71
126159,note_on,,,,,79,0,0,,,,,0,,,80,0
126160,note_on,,,,,1,0,0,,,,,0,,,82,71
126239,note_on,,,,,79,0,0,,,,,0,,,82,0
126240,note_on,,,,,1,0,0,,,,,0,,,84,71
126319,note_on,,,,,79,0,0,,,,,0,,,84,0
126320,note_on,,,,,1,0,0,,,,,0,,,87,72
126325,note_on,,,,,181,0,1,,,,,0,,,46,0
126325,note_on,,,,,0,0,1,,,,,0,,,58,0
126336,note_on,,,,,0,0,1,,,,,0,,,59,72
126336,note_on,,,,,11,0,1,,,,,0,,,47,72
126399,note_on,,,,,79,0,0,,,,,0,,,87,0
126400,note_on,,,,,1,0,0,,,,,0,,,92,72
126426,note_on,,,,,90,0,1,,,,,0,,,47,0
126426,note_on,,,,,0,0,1,,,,,0,,,59,0
126432,note_on,,,,,6,0,1,,,,,0,,,48,73
126432,note_on,,,,,0,0,1,,,,,0,,,60,73
126433,control_change,,,,,1,0,1,,,64,0,0,,,,
126479,note_on,,,,,79,0,0,,,,,0,,,92,0
126480,note_on,,,,,1,0,0,,,,,0,,,94,73
126522,note_on,,,,,0,0,1,,,,,0,,,60,0
126522,note_on,,,,,89,0,1,,,,,0,,,48,0
126528,note_on,,,,,6,0,1,,,,,0,,,49,73
126528,note_on,,,,,0,0,1,,,,,0,,,61,73
126559,note_on,,,,,79,0,0,,,,,0,,,94,0
126560,note_on,,,,,1,0,0,,,,,0,,,96,73
126618,note_on,,,,,90,0,1,,,,,0,,,49,0
126618,note_on,,,,,0,0,1,,,,,0,,,61,0
126624,note_on,,,,,0,0,1,,,,,0,,,62,74
126624,note_on,,,,,6,0,1,,,,,0,,,50,74
126711,note_on,,,,,151,0,0,,,,,0,,,96,0
126714,note_on,,,,,0,0,1,,,,,0,,,62,0
126714,note_on,,,,,90,0,1,,,,,0,,,50,0
126720,note_on,,,,,0,0,1,,,,,0,,,51,0
126720,note_on,,,,,0,0,1,,,,,0,,,51,75
126720,note_on,,,,,6,0,1,,,,,0,,,51,90
126720,note_on,,,,,0,0,1,,,,,0,,,63,90
126722,control_change,,,,,2,0,1,,,64,127,0,,,,
126960,note_on,,,,,238,0,1,,,,,0,,,46,75
127079,note_on,,,,,119,0,1,,,,,0,,,46,0
127200,note_on,,,,,0,0,0,,,,,0,,,66,75
127200,note_on,,,,,489,0,0,,,,,0,,,58,75
127200,note_on,,,,,121,0,1,,,,,0,,,39,75
127279,note_on,,,,,0,0,0,,,,,0,,,66,0
127279,note_on,,,,,79,0,0,,,,,0,,,58,0
127280,note_on,,,,,1,0,0,,,,,0,,,65,75
127319,note_on,,,,,119,0,1,,,,,0,,,39,0
127359,note_on,,,,,79,0,0,,,,,0,,,65,0
127360,note_on,,,,,1,0,0,,,,,0,,,63,75
127360,note_on,,,,,41,0,1,,,,,0,,,63,0
127440,note_on,,,,,80,0,1,,,,,0,,,46,75
127440,note_on,,,,,80,0,0,,,,,0,,,58,75
127519,note_on,,,,,79,0,0,,,,,0,,,58,0
127520,note_on,,,,,1,0,0,,,,,0,,,54,75
127559,note_on,,,,,119,0,1,,,,,0,,,46,0
127595,note_on,,,,,75,0,0,,,,,0,,,54,0
127679,note_on,,,,,120,0,1,,,,,0,,,51,0
127679,note_on,,,,,84,0,0,,,,,0,,,63,0
127680,note_on,,,,,0,0,1,,,,,0,,,63,75
127680,note_on,,,,,0,0,1,,,,,0,,,51,0
127680,note_on,,,,,0,0,1,,,,,0,,,51,75
127680,note_on,,,,,1,0,1,,,,,0,,,51,75
127681,control_change,,,,,1,0,1,,,64,0,0,,,,
127682,control_change,,,,,1,0,1,,,64,127,0,,,,
127920,note_on,,,,,238,0,1,,,,,0,,,47,75
128039,note_on,,,,,119,0,1,,,,,0,,,47,0
128160,note_on,,,,,0,0,1,,,,,0,,,44,75
128160,note_on,,,,,0,0,0,,,,,0,,,71,75
128160,note_on,,,,,481,0,0,,,,,0,,,63,75
128160,note_on,,,,,121,0,1,,,,,0,,,63,0
128239,note_on,,,,,79,0,0,,,,,0,,,71,0
128240,note_on,,,,,1,0,0,,,,,0,,,70,75
128279,note_on,,,,,119,0,1,,,,,0,,,44,0
128319,note_on,,,,,79,0,0,,,,,0,,,70,0
128320,note_on,,,,,1,0,0,,,,,0,,,68,75
128399,note_on,,,,,79,0,0,,,,,0,,,68,0
128400,note_on,,,,,0,0,0,,,,,0,,,63,75
128400,note_on,,,,,1,0,0,,,,,0,,,63,0
128400,note_on,,,,,121,0,1,,,,,0,,,47,75
128480,note_on,,,,,80,0,0,,,,,0,,,59,75
128519,note_on,,,,,0,0,1,,,,,0,,,47,0
128519,note_on,,,,,119,0,1,,,,,0,,,51,0
128519,note_on,,,,,39,0,0,,,,,0,,,63,0
128520,note_on,,,,,1,0,1,,,,,0,,,51,75
128520,note_on,,,,,0,0,1,,,,,0,,,63,75
128555,note_on,,,,,36,0,0,,,,,0,,,59,0
128633,note_on,,,,,113,0,1,,,,,0,,,51,0
128633,note_on,,,,,0,0,1,,,,,0,,,63,0
128640,note_on,,,,,0,0,1,,,,,0,,,51,0
128640,note_on,,,,,7,0,1,,,,,0,,,51,75
128640,note_on,,,,,0,0,1,,,,,0,,,63,75
128640,note_on,,,,,0,0,1,,,,,0,,,51,75
128641,control_change,,,,,1,0,1,,,64,0,0,,,,
128642,control_change,,,,,1,0,1,,,64,127,0,,,,
128880,note_on,,,,,238,0,1,,,,,0,,,46,75
128999,note_on,,,,,119,0,1,,,,,0,,,46,0
129120,note_on,,,,,0,0,0,,,,,0,,,70,75
129120,note_on,,,,,121,0,1,,,,,0,,,39,75
129120,note_on,,,,,0,0,0,,,,,0,,,78,75
129120,note_on,,,,,565,0,0,,,,,0,,,66,75
129199,note_on,,,,,0,0,0,,,,,0,,,70,0
129199,note_on,,,,,0,0,0,,,,,0,,,78,0
129199,note_on,,,,,79,0,0,,,,,0,,,66,0
129200,note_on,,,,,1,0,0,,,,,0,,,77,75
129239,note_on,,,,,119,0,1,,,,,0,,,39,0
129279,note_on,,,,,79,0,0,,,,,0,,,77,0
129280,note_on,,,,,1,0,0,,,,,0,,,75,75
129359,note_on,,,,,79,0,0,,,,,0,,,75,0
129360,note_on,,,,,121,0,1,,,,,0,,,46,75
129360,note_on,,,,,1,0,0,,,,,0,,,70,75
129439,note_on,,,,,79,0,0,,,,,0,,,70,0
129440,note_on,,,,,1,0,0,,,,,0,,,66,75
129479,note_on,,,,,119,0,1,,,,,0,,,46,0
129519,note_on,,,,,79,0,0,,,,,0,,,66,0
129520,note_on,,,,,1,0,0,,,,,0,,,70,75
129599,note_on,,,,,79,0,0,,,,,0,,,70,0
129599,note_on,,,,,120,0,1,,,,,0,,,51,0
129600,note_on,,,,,1,0,0,,,,,0,,,75,75
129600,note_on,,,,,1,0,1,,,,,0,,,51,75
129679,note_on,,,,,79,0,0,,,,,0,,,75,0
129680,note_on,,,,,1,0,0,,,,,0,,,77,75
129751,note_on,,,,,151,0,1,,,,,0,,,63,0
129759,note_on,,,,,79,0,0,,,,,0,,,77,0
129760,note_on,,,,,0,0,1,,,,,0,,,62,75
129760,note_on,,,,,9,0,1,,,,,0,,,50,75
129760,note_on,,,,,1,0,0,,,,,0,,,78,75
129827,note_on,,,,,67,0,1,,,,,0,,,51,0
129839,note_on,,,,,79,0,0,,,,,0,,,78,0
129840,note_on,,,,,1,0,0,,,,,0,,,82,75
129911,note_on,,,,,0,0,1,,,,,0,,,62,0
129911,note_on,,,,,84,0,1,,,,,0,,,50,0
129919,note_on,,,,,79,0,0,,,,,0,,,82,0
129920,note_on,,,,,9,0,1,,,,,0,,,51,76
129920,note_on,,,,,0,0,1,,,,,0,,,63,76
129920,note_on,,,,,1,0,0,,,,,0,,,87,76
129999,note_on,,,,,79,0,0,,,,,0,,,87,0
130000,note_on,,,,,1,0,0,,,,,0,,,89,77
130071,note_on,,,,,151,0,1,,,,,0,,,51,0
130071,note_on,,,,,0,0,1,,,,,0,,,63,0
130079,note_on,,,,,79,0,0,,,,,0,,,89,0
130080,note_on,,,,,0,0,1,,,,,0,,,66,78
130080,note_on,,,,,1,0,0,,,,,0,,,90,78
130080,note_on,,,,,9,0,1,,,,,0,,,54,78
130159,note_on,,,,,79,0,0,,,,,0,,,90,0
130160,note_on,,,,,1,0,0,,,,,0,,,94,79
130231,note_on,,,,,0,0,1,,,,,0,,,66,0
130231,note_on,,,,,151,0,1,,,,,0,,,54,0
130239,note_on,,,,,79,0,0,,,,,0,,,94,0
130240,note_on,,,,,0,0,1,,,,,0,,,65,80
130240,note_on,,,,,1,0,0,,,,,0,,,99,80
130240,note_on,,,,,9,0,1,,,,,0,,,53,80
130241,control_change,,,,,1,0,1,,,64,0,0,,,,
130319,note_on,,,,,79,0,0,,,,,0,,,99,0
130320,note_on,,,,,1,0,0,,,,,0,,,101,80
130391,note_on,,,,,150,0,1,,,,,0,,,53,0
130391,note_on,,,,,0,0,1,,,,,0,,,65,0
130399,note_on,,,,,79,0,0,,,,,0,,,101,0
130400,note_on,,,,,9,0,1,,,,,0,,,51,80
130400,note_on,,,,,1,0,0,,,,,0,,,102,80
130400,note_on,,,,,0,0,1,,,,,0,,,63,80
130551,note_on,,,,,0,0,1,,,,,0,,,63,0
130551,note_on,,,,,151,0,0,,,,,0,,,102,0
130551,note_on,,,,,151,0,1,,,,,0,,,51,0
130560,note_on,,,,,0,0,1,,,,,0,,,49,0
130560,note_on,,,,,0,0,1,,,,,0,,,49,80
130560,note_on,,,,,0,0,1,,,,,0,,,61,80
130560,note_on,,,,,9,0,1,,,,,0,,,49,80
130562,control_change,,,,,2,0,1,,,64,127,0,,,,
130800,note_on,,,,,238,0,1,,,,,0,,,46,80
130919,note_on,,,,,119,0,1,,,,,0,,,46,0
131040,note_on,,,,,0,0,0,,,,,0,,,70,80
131040,note_on,,,,,489,0,0,,,,,0,,,66,80
131040,note_on,,,,,121,0,1,,,,,0,,,37,80
131119,note_on,,,,,79,0,0,,,,,0,,,66,0
131119,note_on,,,,,0,0,0,,,,,0,,,70,0
131120,note_on,,,,,1,0,0,,,,,0,,,68,80
131159,note_on,,,,,119,0,1,,,,,0,,,37,0
131199,note_on,,,,,79,0,0,,,,,0,,,68,0
131200,note_on,,,,,1,0,0,,,,,0,,,66,80
131279,note_on,,,,,79,0,0,,,,,0,,,66,0
131280,note_on,,,,,0,0,1,,,,,0,,,46,80
131280,note_on,,,,,1,0,0,,,,,0,,,61,80
131280,note_on,,,,,121,0,1,,,,,0,,,61,0
131360,note_on,,,,,80,0,0,,,,,0,,,58,80
131399,note_on,,,,,119,0,1,,,,,0,,,46,0
131435,note_on,,,,,75,0,0,,,,,0,,,58,0
131471,note_on,,,,,36,0,0,,,,,0,,,61,0
131471,note_on,,,,,72,0,1,,,,,0,,,49,0
131520,note_on,,,,,0,0,1,,,,,0,,,61,80
131520,note_on,,,,,0,0,1,,,,,0,,,49,80
131520,note_on,,,,,0,0,1,,,,,0,,,49,0
131520,note_on,,,,,49,0,1,,,,,0,,,49,80
131521,control_change,,,,,1,0,1,,,64,0,0,,,,
131522,control_change,,,,,1,0,1,,,64,127,0,,,,
131760,note_on,,,,,238,0,1,,,,,0,,,47,80
131879,note_on,,,,,119,0,1,,,,,0,,,47,0
132000,note_on,,,,,529,0,0,,,,,0,,,65,80
132000,note_on,,,,,121,0,1,,,,,0,,,37,80
132000,note_on,,,,,0,0,0,,,,,0,,,73,80
132079,note_on,,,,,0,0,0,,,,,0,,,73,0
132079,note_on,,,,,79,0,0,,,,,0,,,65,0
132080,note_on,,,,,1,0,0,,,,,0,,,71,80
132119,note_on,,,,,119,0,1,,,,,0,,,37,0
132159,note_on,,,,,79,0,0,,,,,0,,,71,0
132160,note_on,,,,,1,0,0,,,,,0,,,68,80
132239,note_on,,,,,79,0,0,,,,,0,,,68,0
132240,note_on,,,,,121,0,1,,,,,0,,,47,80
132240,note_on,,,,,1,0,0,,,,,0,,,65,80
132317,note_on,,,,,0,0,1,,,,,0,,,61,0
132317,note_on,,,,,77,0,1,,,,,0,,,49,0
132319,note_on,,,,,79,0,0,,,,,0,,,65,0
132320,note_on,,,,,1,0,0,,,,,0,,,61,80
132359,note_on,,,,,42,0,1,,,,,0,,,47,0
132360,note_on,,,,,40,0,0,,,,,0,,,61,0
132360,note_on,,,,,0,0,1,,,,,0,,,61,80
132360,note_on,,,,,1,0,1,,,,,0,,,49,80
132473,note_on,,,,,113,0,1,,,,,0,,,49,0
132473,note_on,,,,,0,0,1,,,,,0,,,61,0
132480,note_on,,,,,7,0,1,,,,,0,,,58,80
132480,note_on,,,,,0,0,1,,,,,0,,,70,80
132481,control_change,,,,,1,0,1,,,64,0,0,,,,
132482,control_change,,,,,1,0,1,,,64,127,0,,,,
132720,note_on,,,,,238,0,1,,,,,0,,,49,80
132839,note_on,,,,,119,0,1,,,,,0,,,49,0
132960,note_on,,,,,600,0,0,,,,,0,,,70,80
132960,note_on,,,,,0,0,1,,,,,0,,,46,80
132960,note_on,,,,,121,0,1,,,,,0,,,70,0
132978,note_on,,,,,18,0,0,,,,,0,,,73,80
132996,note_on,,,,,18,0,0,,,,,0,,,82,80
133039,note_on,,,,,0,0,0,,,,,0,,,82,0
133039,note_on,,,,,43,0,0,,,,,0,,,73,0
133040,note_on,,,,,1,0,0,,,,,0,,,80,80
133079,note_on,,,,,119,0,1,,,,,0,,,46,0
133119,note_on,,,,,79,0,0,,,,,0,,,80,0
133120,note_on,,,,,1,0,0,,,,,0,,,78,80
133199,note_on,,,,,79,0,0,,,,,0,,,78,0
133200,note_on,,,,,1,0,0,,,,,0,,,73,80
133200,note_on,,,,,121,0,1,,,,,0,,,42,80
133279,note_on,,,,,79,0,0,,,,,0,,,73,0
133280,note_on,,,,,0,0,0,,,,,0,,,70,80
133280,note_on,,,,,1,0,0,,,,,0,,,70,0
133319,note_on,,,,,119,0,1,,,,,0,,,42,0
133360,note_on,,,,,80,0,0,,,,,0,,,73,80
133439,note_on,,,,,79,0,0,,,,,0,,,73,0
133440,note_on,,,,,121,0,1,,,,,0,,,37,80
133440,note_on,,,,,1,0,0,,,,,0,,,78,80
133519,note_on,,,,,79,0,0,,,,,0,,,78,0
133520,note_on,,,,,1,0,0,,,,,0,,,80,80
133543,note_on,,,,,103,0,1,,,,,0,,,58,0
133543,note_on,,,,,23,0,0,,,,,0,,,70,0
133559,note_on,,,,,16,0,1,,,,,0,,,37,0
133599,note_on,,,,,56,0,0,,,,,0,,,80,0
133600,note_on,,,,,1,0,0,,,,,0,,,82,80
133600,note_on,,,,,41,0,1,,,,,0,,,53,80
133600,note_on,,,,,0,0,1,,,,,0,,,65,80
133679,note_on,,,,,79,0,0,,,,,0,,,82,0
133680,note_on,,,,,1,0,0,,,,,0,,,85,80
133751,note_on,,,,,151,0,1,,,,,0,,,53,0
133751,note_on,,,,,0,0,1,,,,,0,,,65,0
133759,note_on,,,,,79,0,0,,,,,0,,,85,0
133760,note_on,,,,,0,0,1,,,,,0,,,66,75
133760,note_on,,,,,1,0,0,,,,,0,,,90,75
133760,note_on,,,,,9,0,1,,,,,0,,,54,75
133839,note_on,,,,,79,0,0,,,,,0,,,90,0
133840,note_on,,,,,1,0,0,,,,,0,,,92,75
133911,note_on,,,,,151,0,1,,,,,0,,,54,0
133911,note_on,,,,,0,0,1,,,,,0,,,66,0
133919,note_on,,,,,79,0,0,,,,,0,,,92,0
133920,note_on,,,,,9,0,1,,,,,0,,,56,76
133920,note_on,,,,,0,0,1,,,,,0,,,68,76
133920,note_on,,,,,1,0,0,,,,,0,,,94,76
133921,control_change,,,,,1,0,1,,,64,0,0,,,,
133999,note_on,,,,,79,0,0,,,,,0,,,94,0
134000,note_on,,,,,1,0,0,,,,,0,,,92,77
134071,note_on,,,,,0,0,1,,,,,0,,,68,0
134071,note_on,,,,,150,0,1,,,,,0,,,56,0
134079,note_on,,,,,79,0,0,,,,,0,,,92,0
134080,note_on,,,,,9,0,1,,,,,0,,,54,78
134080,note_on,,,,,0,0,1,,,,,0,,,66,78
134080,note_on,,,,,1,0,0,,,,,0,,,90,78
134159,note_on,,,,,79,0,0,,,,,0,,,90,0
134160,note_on,,,,,1,0,0,,,,,0,,,85,79
134231,note_on,,,,,0,0,1,,,,,0,,,66,0
134231,note_on,,,,,151,0,1,,,,,0,,,54,0
134239,note_on,,,,,79,0,0,,,,,0,,,85,0
134240,note_on,,,,,9,0,1,,,,,0,,,51,80
134240,note_on,,,,,1,0,0,,,,,0,,,94,80
134240,note_on,,,,,0,0,0,,,,,0,,,97,80
134240,note_on,,,,,0,0,1,,,,,0,,,63,80
134291,note_on,,,,,0,0,0,,,,,0,,,97,0
134291,note_on,,,,,51,0,0,,,,,0,,,94,0
134391,note_on,,,,,151,0,1,,,,,0,,,51,0
134391,note_on,,,,,0,0,1,,,,,0,,,63,0
134400,note_on,,,,,0,0,1,,,,,0,,,49,0
134400,note_on,,,,,0,0,1,,,,,0,,,49,80
134400,note_on,,,,,0,0,1,,,,,0,,,61,96
134400,note_on,,,,,9,0,1,,,,,0,,,49,96
134402,control_change,,,,,2,0,1,,,64,127,0,,,,
134640,note_on,,,,,238,0,1,,,,,0,,,46,80
134759,note_on,,,,,119,0,1,,,,,0,,,46,0
134880,note_on,,,,,121,0,1,,,,,0,,,37,80
134880,note_on,,,,,589,0,0,,,,,0,,,66,80
134908,note_on,,,,,28,0,0,,,,,0,,,70,80
134959,note_on,,,,,0,0,0,,,,,0,,,70,0
134959,note_on,,,,,51,0,0,,,,,0,,,66,0
134960,note_on,,,,,1,0,0,,,,,0,,,68,80
134999,note_on,,,,,119,0,1,,,,,0,,,37,0
135039,note_on,,,,,79,0,0,,,,,0,,,68,0
135040,note_on,,,,,1,0,0,,,,,0,,,66,80
135119,note_on,,,,,79,0,0,,,,,0,,,66,0
135120,note_on,,,,,1,0,0,,,,,0,,,61,80
135120,note_on,,,,,121,0,1,,,,,0,,,61,0
135120,note_on,,,,,0,0,1,,,,,0,,,46,80
135200,note_on,,,,,80,0,0,,,,,0,,,58,80
135239,note_on,,,,,119,0,1,,,,,0,,,46,0
135275,note_on,,,,,75,0,0,,,,,0,,,58,0
135359,note_on,,,,,84,0,0,,,,,0,,,61,0
135359,note_on,,,,,120,0,1,,,,,0,,,49,0
135360,note_on,,,,,1,0,1,,,,,0,,,49,96
135360,note_on,,,,,0,0,1,,,,,0,,,49,0
135360,note_on,,,,,0,0,1,,,,,0,,,49,80
135360,note_on,,,,,0,0,1,,,,,0,,,61,96
135361,control_change,,,,,1,0,1,,,64,0,0,,,,
135362,control_change,,,,,1,0,1,,,64,127,0,,,,
135600,note_on,,,,,238,0,1,,,,,0,,,47,80
135719,note_on,,,,,119,0,1,,,,,0,,,47,0
135840,note_on,,,,,481,0,0,,,,,0,,,65,80
135840,note_on,,,,,121,0,1,,,,,0,,,37,80
135868,note_on,,,,,28,0,0,,,,,0,,,73,80
135919,note_on,,,,,51,0,0,,,,,0,,,65,0
135919,note_on,,,,,0,0,0,,,,,0,,,73,0
135920,note_on,,,,,1,0,0,,,,,0,,,71,80
135959,note_on,,,,,119,0,1,,,,,0,,,37,0
135999,note_on,,,,,79,0,0,,,,,0,,,71,0
136000,note_on,,,,,1,0,0,,,,,0,,,68,80
136079,note_on,,,,,79,0,0,,,,,0,,,68,0
136080,note_on,,,,,1,0,0,,,,,0,,,65,80
136080,note_on,,,,,121,0,1,,,,,0,,,47,80
136159,note_on,,,,,79,0,0,,,,,0,,,65,0
136160,note_on,,,,,80,0,1,,,,,0,,,61,0
136160,note_on,,,,,1,0,0,,,,,0,,,61,80
136199,note_on,,,,,0,0,1,,,,,0,,,47,0
136199,note_on,,,,,39,0,1,,,,,0,,,49,0
136200,note_on,,,,,0,0,1,,,,,0,,,61,80
136200,note_on,,,,,40,0,0,,,,,0,,,61,0
136200,note_on,,,,,1,0,1,,,,,0,,,49,80
136313,note_on,,,,,113,0,1,,,,,0,,,49,0
136313,note_on,,,,,0,0,1,,,,,0,,,61,0
136320,note_on,,,,,7,0,1,,,,,0,,,58,96
136320,note_on,,,,,0,0,1,,,,,0,,,70,96
136320,note_on,,,,,0,0,1,,,,,0,,,58,80
136320,note_on,,,,,0,0,1,,,,,0,,,58,0
136321,control_change,,,,,1,0,1,,,64,0,0,,,,
136322,control_change,,,,,1,0,1,,,64,127,0,,,,
136560,note_on,,,,,238,0,1,,,,,0,,,49,80
136679,note_on,,,,,119,0,1,,,,,0,,,49,0
136800,note_on,,,,,600,0,0,,,,,0,,,70,80
136800,note_on,,,,,121,0,1,,,,,0,,,70,0
136800,note_on,,,,,0,0,1,,,,,0,,,42,80
136818,note_on,,,,,18,0,0,,,,,0,,,73,80
136836,note_on,,,,,18,0,0,,,,,0,,,82,80
136879,note_on,,,,,0,0,0,,,,,0,,,82,0
136879,note_on,,,,,43,0,0,,,,,0,,,73,0
136880,note_on,,,,,1,0,0,,,,,0,,,80,80
136919,note_on,,,,,119,0,1,,,,,0,,,42,0
136959,note_on,,,,,79,0,0,,,,,0,,,80,0
136960,note_on,,,,,1,0,0,,,,,0,,,78,80
136962,note_on,,,,,2,0,0,,,,,0,,,70,0
136962,note_on,,,,,43,0,1,,,,,0,,,58,0
137039,note_on,,,,,77,0,0,,,,,0,,,78,0
137040,note_on,,,,,78,0,1,,,,,0,,,49,80
137040,note_on,,,,,1,0,0,,,,,0,,,73,80
137119,note_on,,,,,79,0,0,,,,,0,,,73,0
137120,note_on,,,,,1,0,0,,,,,0,,,70,80
137159,note_on,,,,,119,0,1,,,,,0,,,49,0
137199,note_on,,,,,79,0,0,,,,,0,,,70,0
137200,note_on,,,,,1,0,0,,,,,0,,,73,80
137279,note_on,,,,,79,0,0,,,,,0,,,73,0
137280,note_on,,,,,0,0,1,,,,,0,,,64,96
137280,note_on,,,,,121,0,1,,,,,0,,,52,96
137280,note_on,,,,,1,0,0,,,,,0,,,78,80
137280,note_on,,,,,0,0,1,,,,,0,,,52,0
137280,note_on,,,,,0,0,1,,,,,0,,,52,80
137359,note_on,,,,,79,0,0,,,,,0,,,78,0
137360,note_on,,,,,1,0,0,,,,,0,,,80,80
137439,note_on,,,,,79,0,0,,,,,0,,,80,0
137440,note_on,,,,,1,0,0,,,,,0,,,82,80
137519,note_on,,,,,79,0,0,,,,,0,,,82,0
137520,note_on,,,,,1,0,0,,,,,0,,,85,80
137520,note_on,,,,,240,0,1,,,,,0,,,49,80
137599,note_on,,,,,79,0,0,,,,,0,,,85,0
137600,note_on,,,,,1,0,0,,,,,0,,,90,81
137639,note_on,,,,,119,0,1,,,,,0,,,49,0
137679,note_on,,,,,79,0,0,,,,,0,,,90,0
137680,note_on,,,,,1,0,0,,,,,0,,,92,81
137759,note_on,,,,,79,0,0,,,,,0,,,92,0
137760,note_on,,,,,1,0,0,,,,,0,,,94,82
137760,note_on,,,,,121,0,1,,,,,0,,,46,82
137839,note_on,,,,,79,0,0,,,,,0,,,94,0
137840,note_on,,,,,1,0,0,,,,,0,,,92,82
137879,note_on,,,,,119,0,1,,,,,0,,,46,0
137919,note_on,,,,,79,0,0,,,,,0,,,92,0
137920,note_on,,,,,1,0,0,,,,,0,,,90,83
137999,note_on,,,,,79,0,0,,,,,0,,,90,0
138000,note_on,,,,,121,0,1,,,,,0,,,42,83
138000,note_on,,,,,1,0,0,,,,,0,,,85,83
138079,note_on,,,,,79,0,0,,,,,0,,,85,0
138080,note_on,,,,,0,0,0,,,,,0,,,97,84
138080,note_on,,,,,1,0,0,,,,,0,,,94,84
138119,note_on,,,,,119,0,1,,,,,0,,,52,0
138119,note_on,,,,,0,0,1,,,,,0,,,64,0
138119,note_on,,,,,0,0,1,,,,,0,,,42,0
138120,note_on,,,,,1,0,1,,,,,0,,,52,84
138120,note_on,,,,,0,0,1,,,,,0,,,64,84
138131,note_on,,,,,51,0,0,,,,,0,,,94,0
138131,note_on,,,,,0,0,0,,,,,0,,,97,0
138233,note_on,,,,,113,0,1,,,,,0,,,52,0
138233,note_on,,,,,0,0,1,,,,,0,,,64,0
138240,note_on,,,,,0,0,1,,,,,0,,,65,85
138240,note_on,,,,,0,0,1,,,,,0,,,53,0
138240,note_on,,,,,0,0,1,,,,,0,,,53,85
138240,note_on,,,,,7,0,1,,,,,0,,,53,85
138241,control_change,,,,,1,0,1,,,64,0,0,,,,
138360,note_on,,,,,229,0,0,,,,,0,,,61,85
138473,note_on,,,,,113,0,0,,,,,0,,,61,0
138480,note_on,,,,,239,0,1,,,,,0,,,65,0
138480,note_on,,,,,7,0,0,,,,,0,,,65,85
138480,note_on,,,,,0,0,1,,,,,0,,,46,85
138599,note_on,,,,,119,0,1,,,,,0,,,46,0
138600,note_on,,,,,0,0,0,,,,,0,,,73,85
138600,note_on,,,,,120,0,0,,,,,0,,,70,85
138695,note_on,,,,,96,0,1,,,,,0,,,53,0
138695,note_on,,,,,95,0,0,,,,,0,,,65,0
138713,note_on,,,,,18,0,0,,,,,0,,,70,0
138713,note_on,,,,,0,0,0,,,,,0,,,73,0
138720,note_on,,,,,0,0,1,,,,,0,,,53,85
138720,note_on,,,,,0,0,1,,,,,0,,,53,0
138720,note_on,,,,,25,0,1,,,,,0,,,53,85
138720,note_on,,,,,0,0,1,,,,,0,,,65,85
138720,note_on,,,,,7,0,0,,,,,0,,,77,85
138833,note_on,,,,,113,0,0,,,,,0,,,77,0
138840,note_on,,,,,7,0,0,,,,,0,,,82,85
138840,note_on,,,,,0,0,0,,,,,0,,,85,85
138953,note_on,,,,,0,0,0,,,,,0,,,85,0
138953,note_on,,,,,113,0,0,,,,,0,,,82,0
138960,note_on,,,,,7,0,0,,,,,0,,,89,85
138960,note_on,,,,,240,0,1,,,,,0,,,41,85
139073,note_on,,,,,113,0,0,,,,,0,,,89,0
139079,note_on,,,,,119,0,1,,,,,0,,,41,0
139080,note_on,,,,,0,0,0,,,,,0,,,97,85
139080,note_on,,,,,7,0,0,,,,,0,,,94,85
139118,note_on,,,,,39,0,1,,,,,0,,,53,0
139118,note_on,,,,,0,0,1,,,,,0,,,65,0
139140,note_on,,,,,0,0,1,,,,,0,,,65,85
139140,note_on,,,,,22,0,1,,,,,0,,,53,85
139193,note_on,,,,,113,0,0,,,,,0,,,94,0
139193,note_on,,,,,0,0,0,,,,,0,,,97,0
139196,note_on,,,,,56,0,1,,,,,0,,,53,0
139196,note_on,,,,,0,0,1,,,,,0,,,65,0
139200,note_on,,,,,0,0,1,,,,,0,,,53,0
139200,note_on,,,,,0,0,1,,,,,0,,,53,85
139200,note_on,,,,,0,0,1,,,,,0,,,65,85
139200,note_on,,,,,4,0,1,,,,,0,,,53,85
139320,note_on,,,,,127,0,0,,,,,0,,,63,85
139433,note_on,,,,,113,0,0,,,,,0,,,63,0
139440,note_on,,,,,7,0,0,,,,,0,,,69,85
139440,note_on,,,,,0,0,0,,,,,0,,,72,85
139440,note_on,,,,,240,0,1,,,,,0,,,42,85
139553,note_on,,,,,0,0,0,,,,,0,,,72,0
139553,note_on,,,,,113,0,0,,,,,0,,,69,0
139559,note_on,,,,,119,0,1,,,,,0,,,42,0
139560,note_on,,,,,7,0,0,,,,,0,,,77,85
139655,note_on,,,,,96,0,1,,,,,0,,,53,0
139655,note_on,,,,,0,0,1,,,,,0,,,65,0
139673,note_on,,,,,113,0,0,,,,,0,,,77,0
139680,note_on,,,,,0,0,1,,,,,0,,,53,0
139680,note_on,,,,,25,0,1,,,,,0,,,53,85
139680,note_on,,,,,0,0,1,,,,,0,,,53,85
139680,note_on,,,,,7,0,0,,,,,0,,,81,85
139680,note_on,,,,,0,0,1,,,,,0,,,65,85
139793,note_on,,,,,113,0,0,,,,,0,,,81,0
139800,note_on,,,,,0,0,0,,,,,0,,,89,85
139800,note_on,,,,,7,0,0,,,,,0,,,84,85
139913,note_on,,,,,0,0,0,,,,,0,,,89,0
139913,note_on,,,,,113,0,0,,,,,0,,,84,0
139920,note_on,,,,,7,0,0,,,,,0,,,93,85
139920,note_on,,,,,240,0,1,,,,,0,,,41,85
140033,note_on,,,,,113,0,0,,,,,0,,,93,0
140039,note_on,,,,,119,0,1,,,,,0,,,41,0
140040,note_on,,,,,0,0,0,,,,,0,,,101,85
140040,note_on,,,,,7,0,0,,,,,0,,,96,85
140135,note_on,,,,,0,0,1,,,,,0,,,65,0
140135,note_on,,,,,96,0,1,,,,,0,,,53,0
140153,note_on,,,,,0,0,0,,,,,0,,,101,0
140153,note_on,,,,,113,0,0,,,,,0,,,96,0
140160,note_on,,,,,25,0,1,,,,,0,,,53,85
140160,note_on,,,,,0,0,1,,,,,0,,,65,85
140238,note_on,,,,,78,0,1,,,,,0,,,53,0
140238,note_on,,,,,0,0,1,,,,,0,,,65,0
140640,note_on,,,,,0,0,0,,,,,0,,,56,85
140640,note_on,,,,,0,0,1,,,,,0,,,47,85
140640,note_on,,,,,487,0,0,,,,,0,,,51,85
140640,note_on,,,,,0,0,1,,,,,0,,,41,85
140640,note_on,,,,,402,0,1,,,,,0,,,35,85
140718,note_on,,,,,78,0,0,,,,,0,,,51,0
140718,note_on,,,,,0,0,0,,,,,0,,,56,0
140867,note_on,,,,,0,0,1,,,,,0,,,47,0
140867,note_on,,,,,0,0,1,,,,,0,,,41,0
140867,note_on,,,,,227,0,1,,,,,0,,,35,0
141120,note_on,,,,,0,0,1,,,,,0,,,77,102
141120,note_on,,,,,0,0,1,,,,,0,,,68,102
141120,note_on,,,,,402,0,0,,,,,0,,,80,102
141120,note_on,,,,,0,0,0,,,,,0,,,87,102
141120,note_on,,,,,0,0,0,,,,,0,,,95,102
141120,note_on,,,,,0,0,1,,,,,0,,,71,102
141120,note_on,,,,,253,0,1,,,,,0,,,63,102
141819,note_on,,,,,0,0,0,,,,,0,,,95,0
141819,note_on,,,,,0,0,0,,,,,0,,,87,0
141819,note_on,,,,,699,0,0,,,,,0,,,80,0
141990,note_on,,,,,0,0,1,,,,,0,,,77,0
141990,note_on,,,,,0,0,1,,,,,0,,,68,0
141990,note_on,,,,,870,0,1,,,,,0,,,63,0
141990,note_on,,,,,0,0,1,,,,,0,,,71,0
142140,note_on,,,,,321,0,0,,,,,0,,,92,85
142196,note_on,,,,,56,0,0,,,,,0,,,92,0
142200,note_on,,,,,4,0,0,,,,,0,,,87,85
142256,note_on,,,,,56,0,0,,,,,0,,,87,0
142260,note_on,,,,,4,0,0,,,,,0,,,83,85
142316,note_on,,,,,56,0,0,,,,,0,,,83,0
142320,note_on,,,,,4,0,0,,,,,0,,,80,85
142376,note_on,,,,,56,0,0,,,,,0,,,80,0
142380,note_on,,,,,4,0,0,,,,,0,,,75,85
142436,note_on,,,,,56,0,0,,,,,0,,,75,0
142440,note_on,,,,,4,0,0,,,,,0,,,71,85
142496,note_on,,,,,56,0,0,,,,,0,,,71,0
142500,note_on,,,,,4,0,0,,,,,0,,,68,85
142556,note_on,,,,,56,0,0,,,,,0,,,68,0
142560,note_on,,,,,4,0,0,,,,,0,,,63,85
142604,note_on,,,,,44,0,0,,,,,0,,,63,0
142608,note_on,,,,,4,0,0,,,,,0,,,59,85
142652,note_on,,,,,44,0,0,,,,,0,,,59,0
142656,note_on,,,,,4,0,0,,,,,0,,,56,85
142700,note_on,,,,,44,0,0,,,,,0,,,56,0
142704,note_on,,,,,4,0,0,,,,,0,,,51,85
142748,note_on,,,,,44,0,0,,,,,0,,,51,0
142752,note_on,,,,,4,0,0,,,,,0,,,47,85
142842,note_on,,,,,90,0,0,,,,,0,,,47,0
142848,note_on,,,,,6,0,0,,,,,0,,,44,85
142938,note_on,,,,,90,0,0,,,,,0,,,44,0
142944,note_on,,,,,6,0,0,,,,,0,,,41,85
143034,note_on,,,,,90,0,0,,,,,0,,,41,0
143040,note_on,,,,,1050,0,1,,,,,0,,,39,85
143040,note_on,,,,,0,0,1,,,,,0,,,51,85
143280,note_on,,,,,246,0,0,,,,,0,,,53,85
143359,note_on,,,,,79,0,0,,,,,0,,,53,0
143360,note_on,,,,,1,0,0,,,,,0,,,59,85
143439,note_on,,,,,79,0,0,,,,,0,,,59,0
143440,note_on,,,,,1,0,0,,,,,0,,,68,85
143519,note_on,,,,,79,0,0,,,,,0,,,68,0
143520,note_on,,,,,1,0,0,,,,,0,,,65,85
143599,note_on,,,,,79,0,0,,,,,0,,,65,0
143600,note_on,,,,,1,0,0,,,,,0,,,71,86
143679,note_on,,,,,79,0,0,,,,,0,,,71,0
143680,note_on,,,,,1,0,0,,,,,0,,,80,86
143759,note_on,,,,,79,0,0,,,,,0,,,80,0
143760,note_on,,,,,1,0,0,,,,,0,,,77,87
143837,note_on,,,,,0,0,1,,,,,0,,,51,0
143837,note_on,,,,,797,0,1,,,,,0,,,39,0
143839,note_on,,,,,79,0,0,,,,,0,,,77,0
143840,note_on,,,,,1,0,0,,,,,0,,,83,87
143880,note_on,,,,,43,0,1,,,,,0,,,38,88
143880,note_on,,,,,0,0,1,,,,,0,,,50,88
143919,note_on,,,,,79,0,0,,,,,0,,,83,0
143920,note_on,,,,,1,0,0,,,,,0,,,92,88
143993,note_on,,,,,113,0,1,,,,,0,,,38,0
143993,note_on,,,,,0,0,1,,,,,0,,,50,0
143995,note_on,,,,,75,0,0,,,,,0,,,92,0
144000,note_on,,,,,0,0,1,,,,,0,,,50,88
144000,note_on,,,,,7,0,1,,,,,0,,,38,88
144240,note_on,,,,,245,0,0,,,,,0,,,53,90
144319,note_on,,,,,79,0,0,,,,,0,,,53,0
144320,note_on,,,,,1,0,0,,,,,0,,,58,90
144399,note_on,,,,,79,0,0,,,,,0,,,58,0
144400,note_on,,,,,1,0,0,,,,,0,,,68,91
144455,note_on,,,,,0,0,1,,,,,0,,,50,0
144455,note_on,,,,,455,0,1,,,,,0,,,38,0
144479,note_on,,,,,79,0,0,,,,,0,,,68,0
144480,note_on,,,,,1,0,0,,,,,0,,,65,91
144559,note_on,,,,,79,0,0,,,,,0,,,65,0
144560,note_on,,,,,1,0,0,,,,,0,,,70,92
144639,note_on,,,,,79,0,0,,,,,0,,,70,0
144640,note_on,,,,,1,0,0,,,,,0,,,80,92
144719,note_on,,,,,79,0,0,,,,,0,,,80,0
144720,note_on,,,,,1,0,0,,,,,0,,,77,93
144799,note_on,,,,,79,0,0,,,,,0,,,77,0
144800,note_on,,,,,1,0,0,,,,,0,,,82,93
144879,note_on,,,,,79,0,0,,,,,0,,,82,0
144880,note_on,,,,,1,0,0,,,,,0,,,92,94
144955,note_on,,,,,75,0,0,,,,,0,,,92,0
144960,note_on,,,,,505,0,1,,,,,0,,,35,94
144960,note_on,,,,,0,0,1,,,,,0,,,47,94
145200,note_on,,,,,245,0,0,,,,,0,,,53,96
145279,note_on,,,,,79,0,0,,,,,0,,,53,0
145280,note_on,,,,,1,0,0,,,,,0,,,63,96
145359,note_on,,,,,79,0,0,,,,,0,,,63,0
145360,note_on,,,,,1,0,0,,,,,0,,,68,97
145439,note_on,,,,,79,0,0,,,,,0,,,68,0
145440,note_on,,,,,1,0,0,,,,,0,,,65,97
145519,note_on,,,,,79,0,0,,,,,0,,,65,0
145520,note_on,,,,,1,0,0,,,,,0,,,75,98
145599,note_on,,,,,79,0,0,,,,,0,,,75,0
145600,note_on,,,,,1,0,0,,,,,0,,,80,98
145679,note_on,,,,,79,0,0,,,,,0,,,80,0
145680,note_on,,,,,1,0,0,,,,,0,,,77,98
145757,note_on,,,,,797,0,1,,,,,0,,,35,0
145757,note_on,,,,,0,0,1,,,,,0,,,47,0
145759,note_on,,,,,79,0,0,,,,,0,,,77,0
145760,note_on,,,,,1,0,0,,,,,0,,,87,99
145800,note_on,,,,,43,0,1,,,,,0,,,34,99
145800,note_on,,,,,0,0,1,,,,,0,,,46,99
145839,note_on,,,,,79,0,0,,,,,0,,,87,0
145840,note_on,,,,,1,0,0,,,,,0,,,92,99
145913,note_on,,,,,113,0,1,,,,,0,,,34,0
145913,note_on,,,,,0,0,1,,,,,0,,,46,0
145915,note_on,,,,,75,0,0,,,,,0,,,92,0
145920,note_on,,,,,7,0,1,,,,,0,,,34,100
145920,note_on,,,,,0,0,1,,,,,0,,,46,100
146147,note_on,,,,,0,0,1,,,,,0,,,46,0
146147,note_on,,,,,227,0,1,,,,,0,,,34,0
146160,note_on,,,,,13,0,1,,,,,0,,,46,101
146160,note_on,,,,,245,0,0,,,,,0,,,65,101
146160,note_on,,,,,0,0,1,,,,,0,,,58,101
146223,note_on,,,,,63,0,0,,,,,0,,,74,101
146287,note_on,,,,,64,0,0,,,,,0,,,80,101
146387,note_on,,,,,0,0,1,,,,,0,,,58,0
146387,note_on,,,,,227,0,1,,,,,0,,,46,0
146398,note_on,,,,,0,0,0,,,,,0,,,80,0
146398,note_on,,,,,111,0,0,,,,,0,,,74,0
146399,note_on,,,,,1,0,0,,,,,0,,,65,0
146400,note_on,,,,,13,0,1,,,,,0,,,33,103
146400,note_on,,,,,0,0,1,,,,,0,,,45,103
146627,note_on,,,,,0,0,1,,,,,0,,,45,0
146627,note_on,,,,,227,0,1,,,,,0,,,33,0
146640,note_on,,,,,13,0,1,,,,,0,,,45,104
146640,note_on,,,,,0,0,0,,,,,0,,,77,104
146640,note_on,,,,,0,0,1,,,,,0,,,57,104
146640,set_tempo,,,,,241,1,0,,500000,,,,,,,
146703,note_on,,,,,63,0,0,,,,,0,,,86,104
146767,note_on,,,,,64,0,0,,,,,0,,,93,104
146867,note_on,,,,,227,0,1,,,,,0,,,45,0
146867,note_on,,,,,0,0,1,,,,,0,,,57,0
146878,note_on,,,,,111,0,0,,,,,0,,,86,0
146878,note_on,,,,,0,0,0,,,,,0,,,93,0
146879,note_on,,,,,1,0,0,,,,,0,,,77,0
146880,note_on,,,,,13,0,1,,,,,0,,,32,106
146880,note_on,,,,,0,0,1,,,,,0,,,44,106
147107,note_on,,,,,0,0,1,,,,,0,,,44,0
147107,note_on,,,,,227,0,1,,,,,0,,,32,0
147120,note_on,,,,,13,0,1,,,,,0,,,44,107
147120,set_tempo,,,,,241,1,0,,461538,,,,,,,
147120,note_on,,,,,0,0,1,,,,,0,,,56,107
147120,note_on,,,,,0,0,0,,,,,0,,,65,107
147183,note_on,,,,,63,0,0,,,,,0,,,74,107
147247,note_on,,,,,64,0,0,,,,,0,,,82,107
147347,note_on,,,,,227,0,1,,,,,0,,,44,0
147347,note_on,,,,,0,0,1,,,,,0,,,56,0
147358,note_on,,,,,0,0,0,,,,,0,,,82,0
147358,note_on,,,,,111,0,0,,,,,0,,,74,0
147359,note_on,,,,,1,0,0,,,,,0,,,65,0
147360,note_on,,,,,0,0,1,,,,,0,,,43,109
147360,note_on,,,,,13,0,1,,,,,0,,,31,109
147587,note_on,,,,,227,0,1,,,,,0,,,31,0
147587,note_on,,,,,0,0,1,,,,,0,,,43,0
147600,set_tempo,,,,,241,1,0,,428572,,,,,,,
147600,note_on,,,,,13,0,1,,,,,0,,,43,110
147600,note_on,,,,,0,0,1,,,,,0,,,55,110
147600,note_on,,,,,0,0,0,,,,,0,,,77,110
147663,note_on,,,,,63,0,0,,,,,0,,,86,110
147727,note_on,,,,,64,0,0,,,,,0,,,95,110
147827,note_on,,,,,0,0,1,,,,,0,,,55,0
147827,note_on,,,,,227,0,1,,,,,0,,,43,0
147838,note_on,,,,,0,0,0,,,,,0,,,95,0
147838,note_on,,,,,111,0,0,,,,,0,,,86,0
147839,note_on,,,,,1,0,0,,,,,0,,,77,0
147840,note_on,,,,,0,0,1,,,,,0,,,42,112
147840,note_on,,,,,13,0,1,,,,,0,,,30,112
148067,note_on,,,,,227,0,1,,,,,0,,,30,0
148067,note_on,,,,,0,0,1,,,,,0,,,42,0
148080,note_on,,,,,13,0,1,,,,,0,,,42,112
148080,note_on,,,,,0,0,1,,,,,0,,,54,112
148080,note_on,,,,,241,0,0,,,,,0,,,66,112
148143,note_on,,,,,63,0,0,,,,,0,,,74,112
148207,note_on,,,,,64,0,0,,,,,0,,,83,112
148307,note_on,,,,,0,0,1,,,,,0,,,54,0
148307,note_on,,,,,227,0,1,,,,,0,,,42,0
148318,note_on,,,,,111,0,0,,,,,0,,,74,0
148318,note_on,,,,,0,0,0,,,,,0,,,83,0
148319,note_on,,,,,1,0,0,,,,,0,,,66,0
148320,note_on,,,,,0,0,1,,,,,0,,,41,112
148320,note_on,,,,,13,0,1,,,,,0,,,29,112
148547,note_on,,,,,0,0,1,,,,,0,,,41,0
148547,note_on,,,,,227,0,1,,,,,0,,,29,0
148560,note_on,,,,,13,0,1,,,,,0,,,41,112
148560,note_on,,,,,0,0,1,,,,,0,,,53,112
148560,note_on,,,,,241,0,0,,,,,0,,,81,112
148623,note_on,,,,,63,0,0,,,,,0,,,87,112
148687,note_on,,,,,64,0,0,,,,,0,,,96,112
148787,note_on,,,,,0,0,1,,,,,0,,,53,0
148787,note_on,,,,,227,0,1,,,,,0,,,41,0
148798,note_on,,,,,0,0,0,,,,,0,,,96,0
148798,note_on,,,,,111,0,0,,,,,0,,,87,0
148799,note_on,,,,,1,0,0,,,,,0,,,81,0
148800,note_on,,,,,0,0,1,,,,,0,,,40,112
148800,note_on,,,,,13,0,1,,,,,0,,,28,112
149027,note_on,,,,,0,0,1,,,,,0,,,40,0
149027,note_on,,,,,227,0,1,,,,,0,,,28,0
149040,note_on,,,,,0,0,1,,,,,0,,,52,112
149040,note_on,,,,,13,0,1,,,,,0,,,40,112
149040,note_on,,,,,241,0,0,,,,,0,,,69,112
149103,note_on,,,,,63,0,0,,,,,0,,,76,112
149167,note_on,,,,,64,0,0,,,,,0,,,84,112
149267,note_on,,,,,0,0,1,,,,,0,,,52,0
149267,note_on,,,,,227,0,1,,,,,0,,,40,0
149278,note_on,,,,,0,0,0,,,,,0,,,84,0
149278,note_on,,,,,111,0,0,,,,,0,,,76,0
149279,note_on,,,,,1,0,0,,,,,0,,,69,0
149280,note_on,,,,,0,0,1,,,,,0,,,39,112
149280,note_on,,,,,13,0,1,,,,,0,,,27,112
149507,note_on,,,,,0,0,1,,,,,0,,,39,0
149507,note_on,,,,,227,0,1,,,,,0,,,27,0
149520,note_on,,,,,0,0,1,,,,,0,,,51,112
149520,note_on,,,,,13,0,1,,,,,0,,,39,112
149520,note_on,,,,,241,0,0,,,,,0,,,81,112
149583,note_on,,,,,63,0,0,,,,,0,,,90,112
149647,note_on,,,,,64,0,0,,,,,0,,,96,112
149747,note_on,,,,,227,0,1,,,,,0,,,39,0
149747,note_on,,,,,0,0,1,,,,,0,,,51,0
149758,note_on,,,,,111,0,0,,,,,0,,,90,0
149758,note_on,,,,,0,0,0,,,,,0,,,96,0
149759,note_on,,,,,1,0,0,,,,,0,,,81,0
149760,note_on,,,,,13,0,1,,,,,0,,,25,112
149760,note_on,,,,,0,0,1,,,,,0,,,37,112
149987,note_on,,,,,227,0,1,,,,,0,,,25,0
149987,note_on,,,,,0,0,1,,,,,0,,,37,0
150240,set_tempo,,,,,481,1,0,,500000,,,,,,,
150240,note_on,,,,,0,0,1,,,,,0,,,70,112
150240,note_on,,,,,253,0,1,,,,,0,,,58,112
150240,note_on,,,,,0,0,0,,,,,0,,,85,112
150240,note_on,,,,,0,0,0,,,,,0,,,79,112
150240,note_on,,,,,0,0,0,,,,,0,,,73,112
150240,note_on,,,,,0,0,1,,,,,0,,,64,112
150581,note_on,,,,,341,0,1,,,,,0,,,58,0
150581,note_on,,,,,0,0,1,,,,,0,,,64,0
150581,note_on,,,,,0,0,1,,,,,0,,,70,0
150581,note_on,,,,,0,0,0,,,,,0,,,79,0
150581,note_on,,,,,0,0,0,,,,,0,,,85,0
150581,note_on,,,,,341,0,0,,,,,0,,,73,0
150600,note_on,,,,,0,0,0,,,,,0,,,80,112
150600,note_on,,,,,19,0,1,,,,,0,,,59,112
150600,note_on,,,,,0,0,0,,,,,0,,,85,112
150600,set_tempo,,,,,19,1,0,,545456,,,,,,,
150600,note_on,,,,,0,0,0,,,,,0,,,73,112
150600,note_on,,,,,0,0,1,,,,,0,,,65,112
150600,note_on,,,,,0,0,1,,,,,0,,,71,112
150713,note_on,,,,,0,0,0,,,,,0,,,80,0
150713,note_on,,,,,0,0,0,,,,,0,,,85,0
150713,note_on,,,,,113,0,1,,,,,0,,,59,0
150713,note_on,,,,,0,0,1,,,,,0,,,71,0
150713,note_on,,,,,113,0,0,,,,,0,,,73,0
150713,note_on,,,,,0,0,1,,,,,0,,,65,0
150720,note_on,,,,,0,0,1,,,,,0,,,65,112
150720,note_on,,,,,7,0,1,,,,,0,,,59,112
150720,note_on,,,,,0,0,0,,,,,0,,,85,112
150720,note_on,,,,,0,0,0,,,,,0,,,80,112
150720,note_on,,,,,7,0,0,,,,,0,,,73,112
150720,note_on,,,,,0,0,1,,,,,0,,,71,112
151859,note_on,,,,,1139,0,1,,,,,0,,,59,0
151859,note_on,,,,,0,0,1,,,,,0,,,65,0
151859,note_on,,,,,0,0,1,,,,,0,,,71,0
151859,note_on,,,,,0,0,0,,,,,0,,,80,0
151859,note_on,,,,,0,0,0,,,,,0,,,85,0
151859,note_on,,,,,1139,0,0,,,,,0,,,73,0
152040,note_on,,,,,181,0,1,,,,,0,,,55,112
152040,note_on,,,,,0,0,1,,,,,0,,,67,112
152040,note_on,,,,,181,0,0,,,,,0,,,76,112
152040,note_on,,,,,0,0,0,,,,,0,,,82,112
152040,note_on,,,,,0,0,0,,,,,0,,,88,112
152040,note_on,,,,,0,0,1,,,,,0,,,61,112
152153,note_on,,,,,113,0,0,,,,,0,,,76,0
152153,note_on,,,,,0,0,1,,,,,0,,,61,0
152153,note_on,,,,,0,0,1,,,,,0,,,67,0
152153,note_on,,,,,113,0,1,,,,,0,,,55,0
152153,note_on,,,,,0,0,0,,,,,0,,,82,0
152153,note_on,,,,,0,0,0,,,,,0,,,88,0
152160,note_on,,,,,7,0,0,,,,,0,,,76,112
152160,note_on,,,,,0,0,1,,,,,0,,,61,112
152160,note_on,,,,,7,0,1,,,,,0,,,55,112
152160,note_on,,,,,0,0,1,,,,,0,,,67,112
152160,note_on,,,,,0,0,0,,,,,0,,,88,112
152160,note_on,,,,,0,0,0,,,,,0,,,82,112
152501,note_on,,,,,0,0,0,,,,,0,,,88,0
152501,note_on,,,,,0,0,0,,,,,0,,,82,0
152501,note_on,,,,,0,0,1,,,,,0,,,67,0
152501,note_on,,,,,0,0,1,,,,,0,,,61,0
152501,note_on,,,,,341,0,0,,,,,0,,,76,0
152501,note_on,,,,,341,0,1,,,,,0,,,55,0
152520,note_on,,,,,19,0,1,,,,,0,,,56,112
152520,note_on,,,,,0,0,0,,,,,0,,,83,112
152520,note_on,,,,,0,0,1,,,,,0,,,68,112
152520,note_on,,,,,0,0,1,,,,,0,,,61,112
152520,note_on,,,,,0,0,0,,,,,0,,,89,112
152520,note_on,,,,,19,0,0,,,,,0,,,77,112
152633,note_on,,,,,0,0,0,,,,,0,,,83,0
152633,note_on,,,,,113,0,0,,,,,0,,,77,0
152633,note_on,,,,,0,0,0,,,,,0,,,89,0
152633,note_on,,,,,0,0,1,,,,,0,,,68,0
152633,note_on,,,,,0,0,1,,,,,0,,,61,0
152633,note_on,,,,,113,0,1,,,,,0,,,56,0
152640,note_on,,,,,0,0,1,,,,,0,,,61,112
152640,note_on,,,,,0,0,1,,,,,0,,,68,112
152640,note_on,,,,,7,0,0,,,,,0,,,77,112
152640,note_on,,,,,7,0,1,,,,,0,,,56,112
152640,note_on,,,,,0,0,0,,,,,0,,,83,112
152640,note_on,,,,,0,0,0,,,,,0,,,89,112
152867,note_on,,,,,227,0,0,,,,,0,,,77,0
152867,note_on,,,,,0,0,1,,,,,0,,,61,0
152867,note_on,,,,,0,0,1,,,,,0,,,68,0
152867,note_on,,,,,0,0,0,,,,,0,,,89,0
152867,note_on,,,,,0,0,0,,,,,0,,,83,0
152867,note_on,,,,,227,0,1,,,,,0,,,56,0
153000,note_on,,,,,0,0,0,,,,,0,,,91,112
153000,note_on,,,,,0,0,1,,,,,0,,,64,112
153000,note_on,,,,,133,0,1,,,,,0,,,52,112
153000,note_on,,,,,0,0,0,,,,,0,,,85,112
153000,note_on,,,,,0,0,1,,,,,0,,,58,112
153000,note_on,,,,,133,0,0,,,,,0,,,79,112
153113,note_on,,,,,113,0,0,,,,,0,,,79,0
153113,note_on,,,,,0,0,1,,,,,0,,,64,0
153113,note_on,,,,,0,0,0,,,,,0,,,85,0
153113,note_on,,,,,113,0,1,,,,,0,,,52,0
153113,note_on,,,,,0,0,0,,,,,0,,,91,0
153113,note_on,,,,,0,0,1,,,,,0,,,58,0
153120,note_on,,,,,0,0,1,,,,,0,,,64,112
153120,note_on,,,,,0,0,1,,,,,0,,,58,112
153120,note_on,,,,,7,0,1,,,,,0,,,52,112
153120,note_on,,,,,0,0,0,,,,,0,,,85,112
153120,note_on,,,,,0,0,0,,,,,0,,,91,112
153120,note_on,,,,,7,0,0,,,,,0,,,79,112
153461,note_on,,,,,0,0,0,,,,,0,,,85,0
153461,note_on,,,,,0,0,0,,,,,0,,,91,0
153461,note_on,,,,,0,0,1,,,,,0,,,58,0
153461,note_on,,,,,0,0,1,,,,,0,,,64,0
153461,note_on,,,,,341,0,0,,,,,0,,,79,0
153461,note_on,,,,,341,0,1,,,,,0,,,52,0
153480,note_on,,,,,19,0,0,,,,,0,,,80,112
153480,note_on,,,,,19,0,1,,,,,0,,,53,112
153480,note_on,,,,,0,0,1,,,,,0,,,59,112
153480,note_on,,,,,0,0,1,,,,,0,,,65,112
153480,note_on,,,,,0,0,0,,,,,0,,,85,112
153480,note_on,,,,,0,0,0,,,,,0,,,92,112
153593,note_on,,,,,0,0,0,,,,,0,,,92,0
153593,note_on,,,,,0,0,0,,,,,0,,,85,0
153593,note_on,,,,,0,0,1,,,,,0,,,65,0
153593,note_on,,,,,0,0,1,,,,,0,,,59,0
153593,note_on,,,,,113,0,0,,,,,0,,,80,0
153593,note_on,,,,,113,0,1,,,,,0,,,53,0
153600,note_on,,,,,0,0,0,,,,,0,,,92,112
153600,note_on,,,,,0,0,0,,,,,0,,,85,112
153600,note_on,,,,,0,0,1,,,,,0,,,65,112
153600,note_on,,,,,0,0,1,,,,,0,,,59,112
153600,note_on,,,,,7,0,1,,,,,0,,,53,112
153600,note_on,,,,,7,0,0,,,,,0,,,80,112
153827,note_on,,,,,227,0,0,,,,,0,,,80,0
153827,note_on,,,,,227,0,1,,,,,0,,,53,0
153827,note_on,,,,,0,0,0,,,,,0,,,92,0
153827,note_on,,,,,0,0,0,,,,,0,,,85,0
153827,note_on,,,,,0,0,1,,,,,0,,,59,0
153827,note_on,,,,,0,0,1,,,,,0,,,65,0
153960,note_on,,,,,133,0,0,,,,,0,,,85,112
153960,note_on,,,,,0,0,0,,,,,0,,,97,112
153960,note_on,,,,,0,0,0,,,,,0,,,91,112
153960,note_on,,,,,133,0,1,,,,,0,,,46,112
153960,note_on,,,,,0,0,1,,,,,0,,,58,112
153960,note_on,,,,,0,0,1,,,,,0,,,52,112
154073,note_on,,,,,113,0,1,,,,,0,,,46,0
154073,note_on,,,,,0,0,0,,,,,0,,,91,0
154073,note_on,,,,,0,0,1,,,,,0,,,52,0
154073,note_on,,,,,0,0,1,,,,,0,,,58,0
154073,note_on,,,,,0,0,0,,,,,0,,,97,0
154073,note_on,,,,,113,0,0,,,,,0,,,85,0
154080,note_on,,,,,0,0,0,,,,,0,,,91,112
154080,note_on,,,,,0,0,0,,,,,0,,,97,112
154080,note_on,,,,,0,0,1,,,,,0,,,52,112
154080,note_on,,,,,0,0,1,,,,,0,,,58,112
154080,note_on,,,,,7,0,1,,,,,0,,,46,112
154080,note_on,,,,,7,0,0,,,,,0,,,85,112
154421,note_on,,,,,341,0,1,,,,,0,,,46,0
154421,note_on,,,,,341,0,0,,,,,0,,,85,0
154421,note_on,,,,,0,0,0,,,,,0,,,91,0
154421,note_on,,,,,0,0,1,,,,,0,,,52,0
154421,note_on,,,,,0,0,0,,,,,0,,,97,0
154421,note_on,,,,,0,0,1,,,,,0,,,58,0
154440,note_on,,,,,0,0,0,,,,,0,,,97,112
154440,note_on,,,,,0,0,0,,,,,0,,,92,112
154440,note_on,,,,,19,0,0,,,,,0,,,85,112
154440,note_on,,,,,19,0,1,,,,,0,,,47,112
154440,note_on,,,,,0,0,1,,,,,0,,,53,112
154440,note_on,,,,,0,0,1,,,,,0,,,59,112
154553,note_on,,,,,113,0,0,,,,,0,,,85,0
154553,note_on,,,,,113,0,1,,,,,0,,,47,0
154553,note_on,,,,,0,0,0,,,,,0,,,92,0
154553,note_on,,,,,0,0,0,,,,,0,,,97,0
154553,note_on,,,,,0,0,1,,,,,0,,,53,0
154553,note_on,,,,,0,0,1,,,,,0,,,59,0
154560,note_on,,,,,7,0,0,,,,,0,,,85,112
154560,note_on,,,,,7,0,1,,,,,0,,,47,112
154560,note_on,,,,,0,0,1,,,,,0,,,53,112
154560,note_on,,,,,0,0,0,,,,,0,,,97,112
154560,note_on,,,,,0,0,0,,,,,0,,,92,112
154560,note_on,,,,,0,0,1,,,,,0,,,59,112
154787,note_on,,,,,0,0,1,,,,,0,,,59,0
154787,note_on,,,,,0,0,0,,,,,0,,,92,0
154787,note_on,,,,,0,0,0,,,,,0,,,97,0
154787,note_on,,,,,227,0,1,,,,,0,,,47,0
154787,note_on,,,,,227,0,0,,,,,0,,,85,0
154787,note_on,,,,,0,0,1,,,,,0,,,53,0
154920,note_on,,,,,0,0,0,,,,,0,,,97,112
154920,note_on,,,,,0,0,1,,,,,0,,,46,112
154920,note_on,,,,,0,0,0,,,,,0,,,91,112
154920,note_on,,,,,133,0,0,,,,,0,,,85,112
154920,note_on,,,,,133,0,1,,,,,0,,,40,112
154920,note_on,,,,,0,0,1,,,,,0,,,52,112
155033,note_on,,,,,113,0,0,,,,,0,,,85,0
155033,note_on,,,,,0,0,1,,,,,0,,,52,0
155033,note_on,,,,,113,0,1,,,,,0,,,40,0
155033,note_on,,,,,0,0,1,,,,,0,,,46,0
155033,note_on,,,,,0,0,0,,,,,0,,,97,0
155033,note_on,,,,,0,0,0,,,,,0,,,91,0
155040,note_on,,,,,0,0,1,,,,,0,,,46,112
155040,note_on,,,,,0,0,1,,,,,0,,,52,112
155040,note_on,,,,,7,0,0,,,,,0,,,85,112
155040,note_on,,,,,0,0,0,,,,,0,,,97,112
155040,note_on,,,,,0,0,0,,,,,0,,,91,112
155040,note_on,,,,,7,0,1,,,,,0,,,40,112
155381,note_on,,,,,341,0,0,,,,,0,,,85,0
155381,note_on,,,,,341,0,1,,,,,0,,,40,0
155381,note_on,,,,,0,0,0,,,,,0,,,91,0
155381,note_on,,,,,0,0,0,,,,,0,,,97,0
155381,note_on,,,,,0,0,1,,,,,0,,,46,0
155381,note_on,,,,,0,0,1,,,,,0,,,52,0
155400,note_on,,,,,0,0,0,,,,,0,,,92,112
155400,note_on,,,,,19,0,0,,,,,0,,,85,112
155400,note_on,,,,,0,0,1,,,,,0,,,53,112
155400,note_on,,,,,0,0,0,,,,,0,,,97,112
155400,note_on,,,,,0,0,1,,,,,0,,,47,112
155400,note_on,,,,,19,0,1,,,,,0,,,41,112
155513,note_on,,,,,0,0,0,,,,,0,,,92,0
155513,note_on,,,,,113,0,1,,,,,0,,,41,0
155513,note_on,,,,,0,0,0,,,,,0,,,97,0
155513,note_on,,,,,0,0,1,,,,,0,,,47,0
155513,note_on,,,,,113,0,0,,,,,0,,,85,0
155513,note_on,,,,,0,0,1,,,,,0,,,53,0
155520,note_on,,,,,7,0,1,,,,,0,,,41,112
155520,note_on,,,,,0,0,1,,,,,0,,,53,112
155520,note_on,,,,,0,0,0,,,,,0,,,97,112
155520,note_on,,,,,7,0,0,,,,,0,,,85,112
155520,note_on,,,,,0,0,1,,,,,0,,,47,112
155520,note_on,,,,,0,0,0,,,,,0,,,92,112
155747,note_on,,,,,0,0,0,,,,,0,,,97,0
155747,note_on,,,,,227,0,1,,,,,0,,,41,0
155747,note_on,,,,,0,0,0,,,,,0,,,92,0
155747,note_on,,,,,0,0,1,,,,,0,,,53,0
155747,note_on,,,,,227,0,0,,,,,0,,,85,0
155747,note_on,,,,,0,0,1,,,,,0,,,47,0
156000,note_on,,,,,0,0,1,,,,,0,,,49,112
156000,note_on,,,,,253,0,0,,,,,0,,,61,112
156000,note_on,,,,,253,0,1,,,,,0,,,37,112
156051,note_on,,,,,51,0,0,,,,,0,,,61,0
156051,note_on,,,,,0,0,1,,,,,0,,,49,0
156051,note_on,,,,,51,0,1,,,,,0,,,37,0
156160,note_on,,,,,109,0,1,,,,,0,,,36,112
156160,note_on,,,,,109,0,0,,,,,0,,,60,112
156160,note_on,,,,,0,0,1,,,,,0,,,48,112
156211,note_on,,,,,51,0,1,,,,,0,,,36,0
156211,note_on,,,,,51,0,0,,,,,0,,,60,0
156211,note_on,,,,,0,0,1,,,,,0,,,48,0
156320,note_on,,,,,109,0,0,,,,,0,,,59,112
156320,note_on,,,,,109,0,1,,,,,0,,,35,112
156320,note_on,,,,,0,0,1,,,,,0,,,47,112
156371,note_on,,,,,0,0,1,,,,,0,,,47,0
156371,note_on,,,,,51,0,1,,,,,0,,,35,0
156371,note_on,,,,,51,0,0,,,,,0,,,59,0
156480,note_on,,,,,109,0,0,,,,,0,,,58,112
156480,note_on,,,,,109,0,1,,,,,0,,,34,112
156480,note_on,,,,,0,0,1,,,,,0,,,46,112
156558,note_on,,,,,78,0,1,,,,,0,,,34,0
156558,note_on,,,,,78,0,0,,,,,0,,,58,0
156558,note_on,,,,,0,0,1,,,,,0,,,46,0
156960,note_on,,,,,0,0,1,,,,,0,,,64,112
156960,note_on,,,,,402,0,0,,,,,0,,,73,112
156960,note_on,,,,,0,0,0,,,,,0,,,79,112
156960,note_on,,,,,0,0,0,,,,,0,,,85,112
156960,note_on,,,,,402,0,1,,,,,0,,,58,112
156960,note_on,,,,,0,0,1,,,,,0,,,70,112
157301,note_on,,,,,0,0,0,,,,,0,,,85,0
157301,note_on,,,,,0,0,1,,,,,0,,,64,0
157301,note_on,,,,,0,0,0,,,,,0,,,79,0
157301,note_on,,,,,341,0,1,,,,,0,,,58,0
157301,note_on,,,,,341,0,0,,,,,0,,,73,0
157301,note_on,,,,,0,0,1,,,,,0,,,70,0
157320,note_on,,,,,0,0,1,,,,,0,,,70,112
157320,note_on,,,,,0,0,0,,,,,0,,,80,112
157320,note_on,,,,,0,0,0,,,,,0,,,86,112
157320,note_on,,,,,0,0,1,,,,,0,,,65,112
157320,note_on,,,,,19,0,0,,,,,0,,,74,112
157320,note_on,,,,,19,0,1,,,,,0,,,58,112
157433,note_on,,,,,0,0,1,,,,,0,,,65,0
157433,note_on,,,,,0,0,1,,,,,0,,,70,0
157433,note_on,,,,,113,0,0,,,,,0,,,74,0
157433,note_on,,,,,113,0,1,,,,,0,,,58,0
157433,note_on,,,,,0,0,0,,,,,0,,,80,0
157433,note_on,,,,,0,0,0,,,,,0,,,86,0
157440,note_on,,,,,7,0,0,,,,,0,,,74,112
157440,note_on,,,,,0,0,1,,,,,0,,,65,112
157440,note_on,,,,,7,0,1,,,,,0,,,58,112
157440,note_on,,,,,0,0,1,,,,,0,,,70,112
157440,note_on,,,,,0,0,0,,,,,0,,,80,112
157440,note_on,,,,,0,0,0,,,,,0,,,86,112
158579,note_on,,,,,1139,0,0,,,,,0,,,74,0
158579,note_on,,,,,0,0,0,,,,,0,,,86,0
158579,note_on,,,,,0,0,0,,,,,0,,,80,0
158579,note_on,,,,,0,0,1,,,,,0,,,65,0
158579,note_on,,,,,0,0,1,,,,,0,,,70,0
158579,note_on,,,,,1139,0,1,,,,,0,,,58,0
158760,note_on,,,,,0,0,1,,,,,0,,,70,112
158760,note_on,,,,,181,0,0,,,,,0,,,76,112
158760,note_on,,,,,181,0,1,,,,,0,,,55,112
158760,note_on,,,,,0,0,1,,,,,0,,,61,112
158760,note_on,,,,,0,0,0,,,,,0,,,82,112
158760,note_on,,,,,0,0,0,,,,,0,,,88,112
158873,note_on,,,,,0,0,1,,,,,0,,,61,0
158873,note_on,,,,,0,0,1,,,,,0,,,70,0
158873,note_on,,,,,113,0,1,,,,,0,,,55,0
158873,note_on,,,,,113,0,0,,,,,0,,,76,0
158873,note_on,,,,,0,0,0,,,,,0,,,88,0
158873,note_on,,,,,0,0,0,,,,,0,,,82,0
158880,note_on,,,,,0,0,0,,,,,0,,,88,112
158880,note_on,,,,,7,0,1,,,,,0,,,55,112
158880,note_on,,,,,0,0,1,,,,,0,,,61,112
158880,note_on,,,,,0,0,1,,,,,0,,,70,112
158880,note_on,,,,,7,0,0,,,,,0,,,76,112
158880,note_on,,,,,0,0,0,,,,,0,,,82,112
159221,note_on,,,,,0,0,1,,,,,0,,,61,0
159221,note_on,,,,,0,0,0,,,,,0,,,82,0
159221,note_on,,,,,341,0,1,,,,,0,,,55,0
159221,note_on,,,,,0,0,0,,,,,0,,,88,0
159221,note_on,,,,,0,0,1,,,,,0,,,70,0
159221,note_on,,,,,341,0,0,,,,,0,,,76,0
159240,note_on,,,,,19,0,0,,,,,0,,,77,112
159240,note_on,,,,,0,0,0,,,,,0,,,82,112
159240,note_on,,,,,0,0,0,,,,,0,,,89,112
159240,note_on,,,,,19,0,1,,,,,0,,,56,112
159240,note_on,,,,,0,0,1,,,,,0,,,68,112
159240,note_on,,,,,0,0,1,,,,,0,,,62,112
159353,note_on,,,,,0,0,0,,,,,0,,,89,0
159353,note_on,,,,,0,0,0,,,,,0,,,82,0
159353,note_on,,,,,113,0,1,,,,,0,,,56,0
159353,note_on,,,,,0,0,1,,,,,0,,,68,0
159353,note_on,,,,,113,0,0,,,,,0,,,77,0
159353,note_on,,,,,0,0,1,,,,,0,,,62,0
159360,note_on,,,,,0,0,0,,,,,0,,,82,112
159360,note_on,,,,,0,0,1,,,,,0,,,62,112
159360,note_on,,,,,0,0,0,,,,,0,,,89,112
159360,note_on,,,,,7,0,1,,,,,0,,,56,112
159360,note_on,,,,,7,0,0,,,,,0,,,77,112
159360,note_on,,,,,0,0,1,,,,,0,,,68,112
159587,note_on,,,,,227,0,1,,,,,0,,,56,0
159587,note_on,,,,,0,0,1,,,,,0,,,68,0
159587,note_on,,,,,0,0,1,,,,,0,,,62,0
159587,note_on,,,,,227,0,0,,,,,0,,,77,0
159587,note_on,,,,,0,0,0,,,,,0,,,89,0
159587,note_on,,,,,0,0,0,,,,,0,,,82,0
159720,note_on,,,,,133,0,0,,,,,0,,,79,112
159720,note_on,,,,,0,0,0,,,,,0,,,85,112
159720,note_on,,,,,133,0,1,,,,,0,,,52,112
159720,note_on,,,,,0,0,0,,,,,0,,,91,112
159720,note_on,,,,,0,0,1,,,,,0,,,58,112
159720,note_on,,,,,0,0,1,,,,,0,,,64,112
159833,note_on,,,,,0,0,0,,,,,0,,,91,0
159833,note_on,,,,,0,0,1,,,,,0,,,58,0
159833,note_on,,,,,113,0,1,,,,,0,,,52,0
159833,note_on,,,,,113,0,0,,,,,0,,,79,0
159833,note_on,,,,,0,0,1,,,,,0,,,64,0
159833,note_on,,,,,0,0,0,,,,,0,,,85,0
159840,note_on,,,,,7,0,1,,,,,0,,,52,113
159840,note_on,,,,,0,0,0,,,,,0,,,85,113
159840,note_on,,,,,7,0,0,,,,,0,,,79,113
159840,note_on,,,,,0,0,0,,,,,0,,,91,113
159840,note_on,,,,,0,0,1,,,,,0,,,58,113
159840,note_on,,,,,0,0,1,,,,,0,,,64,113
160181,note_on,,,,,341,0,0,,,,,0,,,79,0
160181,note_on,,,,,0,0,1,,,,,0,,,58,0
160181,note_on,,,,,0,0,1,,,,,0,,,64,0
160181,note_on,,,,,0,0,0,,,,,0,,,85,0
160181,note_on,,,,,0,0,0,,,,,0,,,91,0
160181,note_on,,,,,341,0,1,,,,,0,,,52,0
160200,note_on,,,,,19,0,0,,,,,0,,,80,115
160200,note_on,,,,,0,0,0,,,,,0,,,92,115
160200,note_on,,,,,19,0,1,,,,,0,,,53,115
160200,note_on,,,,,0,0,1,,,,,0,,,58,115
160200,note_on,,,,,0,0,1,,,,,0,,,65,115
160200,note_on,,,,,0,0,0,,,,,0,,,86,115
160313,note_on,,,,,113,0,1,,,,,0,,,53,0
160313,note_on,,,,,0,0,0,,,,,0,,,86,0
160313,note_on,,,,,0,0,0,,,,,0,,,92,0
160313,note_on,,,,,0,0,1,,,,,0,,,58,0
160313,note_on,,,,,0,0,1,,,,,0,,,65,0
160313,note_on,,,,,113,0,0,,,,,0,,,80,0
160320,note_on,,,,,7,0,1,,,,,0,,,53,115
160320,note_on,,,,,0,0,0,,,,,0,,,92,115
160320,note_on,,,,,0,0,0,,,,,0,,,86,115
160320,note_on,,,,,7,0,0,,,,,0,,,80,115
160320,note_on,,,,,0,0,1,,,,,0,,,65,115
160320,note_on,,,,,0,0,1,,,,,0,,,58,115
160547,note_on,,,,,227,0,0,,,,,0,,,80,0
160547,note_on,,,,,0,0,1,,,,,0,,,65,0
160547,note_on,,,,,0,0,1,,,,,0,,,58,0
160547,note_on,,,,,227,0,1,,,,,0,,,53,0
160547,note_on,,,,,0,0,0,,,,,0,,,86,0
160547,note_on,,,,,0,0,0,,,,,0,,,92,0
160680,note_on,,,,,0,0,1,,,,,0,,,52,117
160680,note_on,,,,,0,0,0,,,,,0,,,91,117
160680,note_on,,,,,133,0,1,,,,,0,,,46,117
160680,note_on,,,,,133,0,0,,,,,0,,,85,117
160680,note_on,,,,,0,0,0,,,,,0,,,97,117
160680,note_on,,,,,0,0,1,,,,,0,,,58,117
160793,note_on,,,,,0,0,0,,,,,0,,,91,0
160793,note_on,,,,,0,0,0,,,,,0,,,97,0
160793,note_on,,,,,0,0,1,,,,,0,,,52,0
160793,note_on,,,,,113,0,1,,,,,0,,,46,0
160793,note_on,,,,,113,0,0,,,,,0,,,85,0
160793,note_on,,,,,0,0,1,,,,,0,,,58,0
160800,note_on,,,,,0,0,0,,,,,0,,,91,118
160800,note_on,,,,,7,0,1,,,,,0,,,46,118
160800,note_on,,,,,0,0,0,,,,,0,,,97,118
160800,note_on,,,,,7,0,0,,,,,0,,,85,118
160800,note_on,,,,,0,0,1,,,,,0,,,52,118
160800,note_on,,,,,0,0,1,,,,,0,,,58,118
161141,note_on,,,,,341,0,0,,,,,0,,,85,0
161141,note_on,,,,,0,0,0,,,,,0,,,91,0
161141,note_on,,,,,341,0,1,,,,,0,,,46,0
161141,note_on,,,,,0,0,1,,,,,0,,,52,0
161141,note_on,,,,,0,0,1,,,,,0,,,58,0
161141,note_on,,,,,0,0,0,,,,,0,,,97,0
161160,note_on,,,,,0,0,1,,,,,0,,,53,120
161160,note_on,,,,,0,0,1,,,,,0,,,58,120
161160,note_on,,,,,19,0,0,,,,,0,,,86,120
161160,note_on,,,,,19,0,1,,,,,0,,,46,120
161160,note_on,,,,,0,0,0,,,,,0,,,98,120
161160,note_on,,,,,0,0,0,,,,,0,,,92,120
161273,note_on,,,,,113,0,1,,,,,0,,,46,0
161273,note_on,,,,,0,0,1,,,,,0,,,53,0
161273,note_on,,,,,0,0,1,,,,,0,,,58,0
161273,note_on,,,,,113,0,0,,,,,0,,,86,0
161273,note_on,,,,,0,0,0,,,,,0,,,92,0
161273,note_on,,,,,0,0,0,,,,,0,,,98,0
161280,note_on,,,,,7,0,0,,,,,0,,,86,120
161280,note_on,,,,,7,0,1,,,,,0,,,46,120
161280,note_on,,,,,0,0,0,,,,,0,,,92,120
161280,note_on,,,,,0,0,0,,,,,0,,,98,120
161280,note_on,,,,,0,0,1,,,,,0,,,58,120
161280,note_on,,,,,0,0,1,,,,,0,,,53,120
161507,note_on,,,,,227,0,0,,,,,0,,,86,0
161507,note_on,,,,,0,0,0,,,,,0,,,92,0
161507,note_on,,,,,0,0,0,,,,,0,,,98,0
161507,note_on,,,,,0,0,1,,,,,0,,,58,0
161507,note_on,,,,,0,0,1,,,,,0,,,53,0
161507,note_on,,,,,227,0,1,,,,,0,,,46,0
161640,note_on,,,,,0,0,1,,,,,0,,,52,122
161640,note_on,,,,,0,0,1,,,,,0,,,46,122
161640,note_on,,,,,133,0,1,,,,,0,,,40,122
161640,note_on,,,,,133,0,0,,,,,0,,,85,122
161640,note_on,,,,,0,0,0,,,,,0,,,97,122
161640,note_on,,,,,0,0,0,,,,,0,,,91,122
161753,note_on,,,,,113,0,1,,,,,0,,,40,0
161753,note_on,,,,,113,0,0,,,,,0,,,85,0
161753,note_on,,,,,0,0,1,,,,,0,,,46,0
161753,note_on,,,,,0,0,1,,,,,0,,,52,0
161753,note_on,,,,,0,0,0,,,,,0,,,97,0
161753,note_on,,,,,0,0,0,,,,,0,,,91,0
161760,note_on,,,,,0,0,0,,,,,0,,,91,122
161760,note_on,,,,,7,0,1,,,,,0,,,40,122
161760,note_on,,,,,7,0,0,,,,,0,,,85,122
161760,note_on,,,,,0,0,1,,,,,0,,,46,122
161760,note_on,,,,,0,0,1,,,,,0,,,52,122
161760,note_on,,,,,0,0,0,,,,,0,,,97,122
162101,note_on,,,,,0,0,0,,,,,0,,,91,0
162101,note_on,,,,,0,0,1,,,,,0,,,46,0
162101,note_on,,,,,341,0,0,,,,,0,,,85,0
162101,note_on,,,,,341,0,1,,,,,0,,,40,0
162101,note_on,,,,,0,0,1,,,,,0,,,52,0
162101,note_on,,,,,0,0,0,,,,,0,,,97,0
162120,note_on,,,,,0,0,0,,,,,0,,,92,122
162120,note_on,,,,,19,0,0,,,,,0,,,86,122
162120,note_on,,,,,0,0,0,,,,,0,,,98,122
162120,note_on,,,,,0,0,1,,,,,0,,,46,122
162120,note_on,,,,,0,0,1,,,,,0,,,53,122
162120,note_on,,,,,19,0,1,,,,,0,,,41,122
162233,note_on,,,,,113,0,0,,,,,0,,,86,0
162233,note_on,,,,,0,0,0,,,,,0,,,92,0
162233,note_on,,,,,0,0,0,,,,,0,,,98,0
162233,note_on,,,,,0,0,1,,,,,0,,,46,0
162233,note_on,,,,,0,0,1,,,,,0,,,53,0
162233,note_on,,,,,113,0,1,,,,,0,,,41,0
162240,note_on,,,,,0,0,1,,,,,0,,,46,122
162240,note_on,,,,,7,0,1,,,,,0,,,41,122
162240,note_on,,,,,0,0,0,,,,,0,,,98,122
162240,note_on,,,,,0,0,0,,,,,0,,,92,122
162240,note_on,,,,,0,0,1,,,,,0,,,53,122
162240,note_on,,,,,7,0,0,,,,,0,,,86,122
162467,note_on,,,,,0,0,1,,,,,0,,,46,0
162467,note_on,,,,,0,0,1,,,,,0,,,53,0
162467,note_on,,,,,227,0,0,,,,,0,,,86,0
162467,note_on,,,,,227,0,1,,,,,0,,,41,0
162467,note_on,,,,,0,0,0,,,,,0,,,92,0
162467,note_on,,,,,0,0,0,,,,,0,,,98,0
163360,note_on,,,,,0,0,0,,,,,0,,,69,122
163360,set_tempo,,,,,893,1,0,,500000,,,,,,,
163360,note_on,,,,,893,0,1,,,,,0,,,33,122
163360,note_on,,,,,0,0,1,,,,,0,,,45,122
163360,note_on,,,,,0,0,0,,,,,0,,,57,122
163511,note_on,,,,,0,0,1,,,,,0,,,45,0
163511,note_on,,,,,151,0,1,,,,,0,,,33,0
163511,note_on,,,,,0,0,0,,,,,0,,,69,0
163511,note_on,,,,,151,0,0,,,,,0,,,57,0
163520,note_on,,,,,0,0,1,,,,,0,,,46,122
163520,note_on,,,,,9,0,0,,,,,0,,,58,122
163520,note_on,,,,,0,0,0,,,,,0,,,70,122
163520,note_on,,,,,9,0,1,,,,,0,,,34,122
163671,note_on,,,,,0,0,0,,,,,0,,,70,0
163671,note_on,,,,,151,0,0,,,,,0,,,58,0
163671,note_on,,,,,0,0,1,,,,,0,,,46,0
163671,note_on,,,,,151,0,1,,,,,0,,,34,0
163680,note_on,,,,,0,0,0,,,,,0,,,72,122
163680,note_on,,,,,9,0,1,,,,,0,,,36,122
163680,note_on,,,,,0,0,1,,,,,0,,,48,122
163680,note_on,,,,,9,0,0,,,,,0,,,60,122
163831,note_on,,,,,0,0,1,,,,,0,,,48,0
163831,note_on,,,,,151,0,1,,,,,0,,,36,0
163831,note_on,,,,,0,0,0,,,,,0,,,72,0
163831,note_on,,,,,151,0,0,,,,,0,,,60,0
163840,note_on,,,,,0,0,1,,,,,0,,,50,122
163840,note_on,,,,,0,0,0,,,,,0,,,74,122
163840,note_on,,,,,9,0,1,,,,,0,,,38,122
163840,note_on,,,,,9,0,0,,,,,0,,,62,122
163991,note_on,,,,,151,0,0,,,,,0,,,62,0
163991,note_on,,,,,151,0,1,,,,,0,,,38,0
163991,note_on,,,,,0,0,0,,,,,0,,,74,0
163991,note_on,,,,,0,0,1,,,,,0,,,50,0
164000,note_on,,,,,0,0,0,,,,,0,,,75,122
164000,note_on,,,,,0,0,1,,,,,0,,,51,122
164000,note_on,,,,,9,0,1,,,,,0,,,39,122
164000,note_on,,,,,9,0,0,,,,,0,,,63,122
164151,note_on,,,,,151,0,0,,,,,0,,,63,0
164151,note_on,,,,,0,0,1,,,,,0,,,51,0
164151,note_on,,,,,151,0,1,,,,,0,,,39,0
164151,note_on,,,,,0,0,0,,,,,0,,,75,0
164160,note_on,,,,,9,0,1,,,,,0,,,41,122
164160,note_on,,,,,0,0,1,,,,,0,,,53,122
164160,note_on,,,,,9,0,0,,,,,0,,,65,122
164160,note_on,,,,,0,0,0,,,,,0,,,77,122
164311,note_on,,,,,0,0,0,,,,,0,,,77,0
164311,note_on,,,,,0,0,1,,,,,0,,,53,0
164311,note_on,,,,,151,0,1,,,,,0,,,41,0
164311,note_on,,,,,151,0,0,,,,,0,,,65,0
164320,note_on,,,,,9,0,1,,,,,0,,,43,122
164320,note_on,,,,,0,0,0,,,,,0,,,79,122
164320,note_on,,,,,0,0,1,,,,,0,,,55,122
164320,note_on,,,,,9,0,0,,,,,0,,,67,122
164471,note_on,,,,,151,0,1,,,,,0,,,43,0
164471,note_on,,,,,0,0,0,,,,,0,,,79,0
164471,note_on,,,,,151,0,0,,,,,0,,,67,0
164471,note_on,,,,,0,0,1,,,,,0,,,55,0
164480,note_on,,,,,9,0,0,,,,,0,,,68,122
164480,note_on,,,,,9,0,1,,,,,0,,,44,122
164480,note_on,,,,,0,0,1,,,,,0,,,56,122
164480,note_on,,,,,0,0,0,,,,,0,,,80,122
164631,note_on,,,,,0,0,1,,,,,0,,,56,0
164631,note_on,,,,,151,0,0,,,,,0,,,68,0
164631,note_on,,,,,151,0,1,,,,,0,,,44,0
164631,note_on,,,,,0,0,0,,,,,0,,,80,0
164640,note_on,,,,,9,0,0,,,,,0,,,70,122
164640,note_on,,,,,0,0,1,,,,,0,,,58,122
164640,note_on,,,,,9,0,1,,,,,0,,,46,122
164640,note_on,,,,,0,0,0,,,,,0,,,82,122
164791,note_on,,,,,0,0,1,,,,,0,,,58,0
164791,note_on,,,,,151,0,1,,,,,0,,,46,0
164791,note_on,,,,,0,0,0,,,,,0,,,82,0
164791,note_on,,,,,151,0,0,,,,,0,,,70,0
164800,note_on,,,,,0,0,0,,,,,0,,,84,122
164800,note_on,,,,,9,0,1,,,,,0,,,48,122
164800,note_on,,,,,0,0,1,,,,,0,,,60,122
164800,note_on,,,,,9,0,0,,,,,0,,,72,122
164951,note_on,,,,,0,0,1,,,,,0,,,60,0
164951,note_on,,,,,151,0,1,,,,,0,,,48,0
164951,note_on,,,,,0,0,0,,,,,0,,,84,0
164951,note_on,,,,,151,0,0,,,,,0,,,72,0
164960,note_on,,,,,9,0,1,,,,,0,,,50,122
164960,note_on,,,,,9,0,0,,,,,0,,,74,122
164960,note_on,,,,,0,0,0,,,,,0,,,86,122
164960,note_on,,,,,0,0,1,,,,,0,,,62,122
165111,note_on,,,,,0,0,1,,,,,0,,,62,0
165111,note_on,,,,,0,0,0,,,,,0,,,86,0
165111,note_on,,,,,151,0,1,,,,,0,,,50,0
165111,note_on,,,,,151,0,0,,,,,0,,,74,0
165120,note_on,,,,,0,0,0,,,,,0,,,82,112
165120,note_on,,,,,0,0,1,,,,,0,,,55,112
165120,note_on,,,,,0,0,0,,,,,0,,,87,112
165120,note_on,,,,,0,0,0,,,,,0,,,87,112
165120,note_on,,,,,0,0,0,,,,,0,,,87,0
165120,note_on,,,,,0,0,1,,,,,0,,,63,0
165120,note_on,,,,,0,0,1,,,,,0,,,63,112
165120,note_on,,,,,9,0,1,,,,,0,,,51,112
165120,note_on,,,,,0,0,1,,,,,0,,,63,112
165120,note_on,,,,,0,0,0,,,,,0,,,79,112
165120,note_on,,,,,0,0,1,,,,,0,,,58,112
165120,note_on,,,,,9,0,0,,,,,0,,,75,112
165122,control_change,,,,,2,0,1,,,64,127,0,,,,
165199,note_on,,,,,0,0,1,,,,,0,,,58,0
165199,note_on,,,,,79,0,0,,,,,0,,,75,0
165199,note_on,,,,,0,0,0,,,,,0,,,79,0
165199,note_on,,,,,0,0,0,,,,,0,,,82,0
165199,note_on,,,,,77,0,1,,,,,0,,,51,0
165199,note_on,,,,,0,0,1,,,,,0,,,55,0
165280,note_on,,,,,81,0,0,,,,,0,,,70,112
165280,note_on,,,,,0,0,1,,,,,0,,,58,112
165280,note_on,,,,,81,0,1,,,,,0,,,46,112
165280,note_on,,,,,0,0,0,,,,,0,,,82,112
165347,note_on,,,,,67,0,0,,,,,0,,,87,0
165347,note_on,,,,,67,0,1,,,,,0,,,63,0
165359,note_on,,,,,0,0,0,,,,,0,,,82,0
165359,note_on,,,,,0,0,1,,,,,0,,,58,0
165359,note_on,,,,,12,0,0,,,,,0,,,70,0
165359,note_on,,,,,12,0,1,,,,,0,,,46,0
165440,note_on,,,,,81,0,1,,,,,0,,,43,112
165440,note_on,,,,,81,0,0,,,,,0,,,67,112
165440,note_on,,,,,0,0,0,,,,,0,,,79,112
165440,note_on,,,,,0,0,1,,,,,0,,,55,112
165519,note_on,,,,,79,0,0,,,,,0,,,67,0
165519,note_on,,,,,0,0,1,,,,,0,,,55,0
165519,note_on,,,,,0,0,0,,,,,0,,,79,0
165519,note_on,,,,,79,0,1,,,,,0,,,43,0
165600,note_on,,,,,81,0,1,,,,,0,,,39,112
165600,note_on,,,,,0,0,1,,,,,0,,,51,112
165600,note_on,,,,,81,0,0,,,,,0,,,63,112
165600,note_on,,,,,0,0,0,,,,,0,,,75,112
165679,note_on,,,,,0,0,1,,,,,0,,,51,0
165679,note_on,,,,,0,0,0,,,,,0,,,75,0
165679,note_on,,,,,79,0,1,,,,,0,,,39,0
165679,note_on,,,,,79,0,0,,,,,0,,,63,0
165760,note_on,,,,,0,0,0,,,,,0,,,79,112
165760,note_on,,,,,81,0,0,,,,,0,,,67,112
165760,note_on,,,,,81,0,1,,,,,0,,,43,112
165760,note_on,,,,,0,0,1,,,,,0,,,55,112
165839,note_on,,,,,79,0,0,,,,,0,,,67,0
165839,note_on,,,,,79,0,1,,,,,0,,,43,0
165839,note_on,,,,,0,0,1,,,,,0,,,55,0
165839,note_on,,,,,0,0,0,,,,,0,,,79,0
165920,note_on,,,,,81,0,0,,,,,0,,,70,112
165920,note_on,,,,,0,0,1,,,,,0,,,58,112
165920,note_on,,,,,0,0,0,,,,,0,,,82,112
165920,note_on,,,,,81,0,1,,,,,0,,,46,112
165999,note_on,,,,,0,0,1,,,,,0,,,58,0
165999,note_on,,,,,0,0,0,,,,,0,,,82,0
165999,note_on,,,,,79,0,1,,,,,0,,,46,0
165999,note_on,,,,,79,0,0,,,,,0,,,70,0
166080,note_on,,,,,81,0,0,,,,,0,,,75,112
166080,note_on,,,,,0,0,0,,,,,0,,,87,112
166080,note_on,,,,,0,0,0,,,,,0,,,83,112
166080,note_on,,,,,0,0,0,,,,,0,,,80,112
166080,note_on,,,,,81,0,1,,,,,0,,,51,112
166080,note_on,,,,,0,0,1,,,,,0,,,63,112
166080,note_on,,,,,0,0,1,,,,,0,,,63,112
166080,note_on,,,,,0,0,0,,,,,0,,,87,112
166080,note_on,,,,,0,0,0,,,,,0,,,87,0
166080,note_on,,,,,0,0,1,,,,,0,,,56,112
166080,note_on,,,,,0,0,1,,,,,0,,,63,0
166080,note_on,,,,,0,0,1,,,,,0,,,59,112
166081,control_change,,,,,1,0,1,,,64,0,0,,,,
166082,control_change,,,,,1,0,1,,,64,127,0,,,,
166159,note_on,,,,,0,0,1,,,,,0,,,56,0
166159,note_on,,,,,0,0,0,,,,,0,,,83,0
166159,note_on,,,,,0,0,0,,,,,0,,,80,0
166159,note_on,,,,,79,0,0,,,,,0,,,75,0
166159,note_on,,,,,77,0,1,,,,,0,,,51,0
166159,note_on,,,,,0,0,1,,,,,0,,,59,0
166240,note_on,,,,,0,0,1,,,,,0,,,59,112
166240,note_on,,,,,81,0,0,,,,,0,,,71,112
166240,note_on,,,,,81,0,1,,,,,0,,,47,112
166240,note_on,,,,,0,0,0,,,,,0,,,83,112
166307,note_on,,,,,67,0,1,,,,,0,,,63,0
166307,note_on,,,,,67,0,0,,,,,0,,,87,0
166319,note_on,,,,,0,0,0,,,,,0,,,83,0
166319,note_on,,,,,0,0,1,,,,,0,,,59,0
166319,note_on,,,,,12,0,1,,,,,0,,,47,0
166319,note_on,,,,,12,0,0,,,,,0,,,71,0
166400,note_on,,,,,81,0,0,,,,,0,,,68,112
166400,note_on,,,,,0,0,0,,,,,0,,,80,112
166400,note_on,,,,,81,0,1,,,,,0,,,44,112
166400,note_on,,,,,0,0,1,,,,,0,,,56,112
166479,note_on,,,,,79,0,0,,,,,0,,,68,0
166479,note_on,,,,,79,0,1,,,,,0,,,44,0
166479,note_on,,,,,0,0,1,,,,,0,,,56,0
166479,note_on,,,,,0,0,0,,,,,0,,,80,0
166560,note_on,,,,,81,0,1,,,,,0,,,39,112
166560,note_on,,,,,0,0,0,,,,,0,,,75,112
166560,note_on,,,,,81,0,0,,,,,0,,,63,112
166560,note_on,,,,,0,0,1,,,,,0,,,51,112
166639,note_on,,,,,79,0,1,,,,,0,,,39,0
166639,note_on,,,,,79,0,0,,,,,0,,,63,0
166639,note_on,,,,,0,0,0,,,,,0,,,75,0
166639,note_on,,,,,0,0,1,,,,,0,,,51,0
166720,note_on,,,,,0,0,1,,,,,0,,,56,112
166720,note_on,,,,,81,0,0,,,,,0,,,68,112
166720,note_on,,,,,0,0,0,,,,,0,,,80,112
166720,note_on,,,,,81,0,1,,,,,0,,,44,112
166799,note_on,,,,,0,0,0,,,,,0,,,80,0
166799,note_on,,,,,79,0,1,,,,,0,,,44,0
166799,note_on,,,,,0,0,1,,,,,0,,,56,0
166799,note_on,,,,,79,0,0,,,,,0,,,68,0
166880,note_on,,,,,0,0,0,,,,,0,,,83,112
166880,note_on,,,,,81,0,1,,,,,0,,,47,112
166880,note_on,,,,,0,0,1,,,,,0,,,59,112
166880,note_on,,,,,81,0,0,,,,,0,,,71,112
166959,note_on,,,,,0,0,0,,,,,0,,,83,0
166959,note_on,,,,,0,0,1,,,,,0,,,59,0
166959,note_on,,,,,79,0,1,,,,,0,,,47,0
166959,note_on,,,,,79,0,0,,,,,0,,,71,0
167040,note_on,,,,,0,0,0,,,,,0,,,79,112
167040,note_on,,,,,0,0,0,,,,,0,,,82,112
167040,note_on,,,,,0,0,1,,,,,0,,,63,112
167040,note_on,,,,,0,0,1,,,,,0,,,63,112
167040,note_on,,,,,0,0,1,,,,,0,,,58,112
167040,note_on,,,,,0,0,1,,,,,0,,,55,112
167040,note_on,,,,,81,0,0,,,,,0,,,75,112
167040,note_on,,,,,0,0,0,,,,,0,,,87,0
167040,note_on,,,,,0,0,0,,,,,0,,,87,112
167040,note_on,,,,,0,0,0,,,,,0,,,87,112
167040,note_on,,,,,0,0,1,,,,,0,,,63,0
167040,note_on,,,,,81,0,1,,,,,0,,,51,112
167041,control_change,,,,,1,0,1,,,64,0,0,,,,
167042,control_change,,,,,1,0,1,,,64,127,0,,,,
167119,note_on,,,,,0,0,1,,,,,0,,,55,0
167119,note_on,,,,,79,0,0,,,,,0,,,75,0
167119,note_on,,,,,77,0,1,,,,,0,,,51,0
167119,note_on,,,,,0,0,1,,,,,0,,,58,0
167119,note_on,,,,,0,0,0,,,,,0,,,79,0
167119,note_on,,,,,0,0,0,,,,,0,,,82,0
167200,note_on,,,,,81,0,0,,,,,0,,,70,112
167200,note_on,,,,,81,0,1,,,,,0,,,46,112
167200,note_on,,,,,0,0,0,,,,,0,,,82,112
167200,note_on,,,,,0,0,1,,,,,0,,,58,112
167267,note_on,,,,,67,0,0,,,,,0,,,87,0
167267,note_on,,,,,67,0,1,,,,,0,,,63,0
167279,note_on,,,,,0,0,0,,,,,0,,,82,0
167279,note_on,,,,,12,0,1,,,,,0,,,46,0
167279,note_on,,,,,12,0,0,,,,,0,,,70,0
167279,note_on,,,,,0,0,1,,,,,0,,,58,0
167360,note_on,,,,,81,0,1,,,,,0,,,43,112
167360,note_on,,,,,0,0,1,,,,,0,,,55,112
167360,note_on,,,,,0,0,0,,,,,0,,,79,112
167360,note_on,,,,,81,0,0,,,,,0,,,67,112
167439,note_on,,,,,79,0,0,,,,,0,,,67,0
167439,note_on,,,,,0,0,1,,,,,0,,,55,0
167439,note_on,,,,,79,0,1,,,,,0,,,43,0
167439,note_on,,,,,0,0,0,,,,,0,,,79,0
167520,note_on,,,,,0,0,1,,,,,0,,,51,112
167520,note_on,,,,,0,0,0,,,,,0,,,75,112
167520,note_on,,,,,81,0,0,,,,,0,,,63,112
167520,note_on,,,,,81,0,1,,,,,0,,,39,112
167599,note_on,,,,,0,0,1,,,,,0,,,51,0
167599,note_on,,,,,0,0,0,,,,,0,,,75,0
167599,note_on,,,,,79,0,1,,,,,0,,,39,0
167599,note_on,,,,,79,0,0,,,,,0,,,63,0
167680,note_on,,,,,0,0,1,,,,,0,,,55,112
167680,note_on,,,,,81,0,1,,,,,0,,,43,112
167680,note_on,,,,,0,0,0,,,,,0,,,79,112
167680,note_on,,,,,81,0,0,,,,,0,,,67,112
167759,note_on,,,,,79,0,1,,,,,0,,,43,0
167759,note_on,,,,,0,0,1,,,,,0,,,55,0
167759,note_on,,,,,79,0,0,,,,,0,,,67,0
167759,note_on,,,,,0,0,0,,,,,0,,,79,0
167840,note_on,,,,,0,0,1,,,,,0,,,58,112
167840,note_on,,,,,81,0,1,,,,,0,,,46,112
167840,note_on,,,,,81,0,0,,,,,0,,,70,112
167840,note_on,,,,,0,0,0,,,,,0,,,82,112
167919,note_on,,,,,79,0,0,,,,,0,,,70,0
167919,note_on,,,,,0,0,1,,,,,0,,,58,0
167919,note_on,,,,,0,0,0,,,,,0,,,82,0
167919,note_on,,,,,79,0,1,,,,,0,,,46,0
168000,note_on,,,,,81,0,1,,,,,0,,,51,112
168000,note_on,,,,,0,0,1,,,,,0,,,63,112
168000,note_on,,,,,81,0,0,,,,,0,,,75,112
168000,note_on,,,,,0,0,0,,,,,0,,,87,112
168079,note_on,,,,,79,0,1,,,,,0,,,51,0
168079,note_on,,,,,79,0,0,,,,,0,,,75,0
168079,note_on,,,,,0,0,0,,,,,0,,,87,0
168079,note_on,,,,,0,0,1,,,,,0,,,63,0
168160,note_on,,,,,0,0,0,,,,,0,,,86,112
168160,note_on,,,,,81,0,0,,,,,0,,,74,112
168160,note_on,,,,,0,0,1,,,,,0,,,62,112
168160,note_on,,,,,81,0,1,,,,,0,,,50,112
168239,note_on,,,,,0,0,0,,,,,0,,,86,0
168239,note_on,,,,,0,0,1,,,,,0,,,62,0
168239,note_on,,,,,79,0,1,,,,,0,,,50,0
168239,note_on,,,,,79,0,0,,,,,0,,,74,0
168320,note_on,,,,,81,0,0,,,,,0,,,75,112
168320,note_on,,,,,0,0,0,,,,,0,,,87,112
168320,note_on,,,,,81,0,1,,,,,0,,,51,112
168320,note_on,,,,,0,0,1,,,,,0,,,63,112
168399,note_on,,,,,79,0,0,,,,,0,,,75,0
168399,note_on,,,,,0,0,0,,,,,0,,,87,0
168399,note_on,,,,,79,0,1,,,,,0,,,51,0
168399,note_on,,,,,0,0,1,,,,,0,,,63,0
168480,note_on,,,,,0,0,0,,,,,0,,,91,112
168480,note_on,,,,,81,0,1,,,,,0,,,55,112
168480,note_on,,,,,81,0,0,,,,,0,,,79,112
168480,note_on,,,,,0,0,1,,,,,0,,,67,112
168559,note_on,,,,,0,0,1,,,,,0,,,67,0
168559,note_on,,,,,79,0,1,,,,,0,,,55,0
168559,note_on,,,,,0,0,0,,,,,0,,,91,0
168559,note_on,,,,,79,0,0,,,,,0,,,79,0
168640,note_on,,,,,0,0,1,,,,,0,,,63,112
168640,note_on,,,,,0,0,0,,,,,0,,,87,112
168640,note_on,,,,,81,0,1,,,,,0,,,51,112
168640,note_on,,,,,81,0,0,,,,,0,,,75,112
168641,control_change,,,,,1,0,1,,,64,0,0,,,,
168719,note_on,,,,,78,0,1,,,,,0,,,51,0
168719,note_on,,,,,0,0,0,,,,,0,,,87,0
168719,note_on,,,,,0,0,1,,,,,0,,,63,0
168719,note_on,,,,,79,0,0,,,,,0,,,75,0
168800,note_on,,,,,81,0,0,,,,,0,,,71,112
168800,note_on,,,,,81,0,1,,,,,0,,,47,112
168800,note_on,,,,,0,0,0,,,,,0,,,83,112
168800,note_on,,,,,0,0,1,,,,,0,,,59,112
168879,note_on,,,,,0,0,0,,,,,0,,,83,0
168879,note_on,,,,,79,0,0,,,,,0,,,71,0
168879,note_on,,,,,0,0,1,,,,,0,,,59,0
168879,note_on,,,,,79,0,1,,,,,0,,,47,0
168960,note_on,,,,,0,0,1,,,,,0,,,50,112
168960,note_on,,,,,0,0,1,,,,,0,,,53,112
168960,note_on,,,,,0,0,0,,,,,0,,,77,112
168960,note_on,,,,,0,0,1,,,,,0,,,58,0
168960,note_on,,,,,0,0,1,,,,,0,,,58,112
168960,note_on,,,,,0,0,1,,,,,0,,,58,112
168960,note_on,,,,,81,0,0,,,,,0,,,70,112
168960,note_on,,,,,0,0,0,,,,,0,,,74,112
168960,note_on,,,,,81,0,1,,,,,0,,,46,112
168960,note_on,,,,,0,0,0,,,,,0,,,82,112
168960,note_on,,,,,0,0,0,,,,,0,,,82,112
168960,note_on,,,,,0,0,0,,,,,0,,,82,0
168962,control_change,,,,,2,0,1,,,64,127,0,,,,
169039,note_on,,,,,77,0,1,,,,,0,,,46,0
169039,note_on,,,,,0,0,1,,,,,0,,,50,0
169039,note_on,,,,,0,0,1,,,,,0,,,53,0
169039,note_on,,,,,0,0,0,,,,,0,,,77,0
169039,note_on,,,,,0,0,0,,,,,0,,,74,0
169039,note_on,,,,,79,0,0,,,,,0,,,70,0
169120,note_on,,,,,81,0,1,,,,,0,,,41,112
169120,note_on,,,,,0,0,1,,,,,0,,,53,112
169120,note_on,,,,,81,0,0,,,,,0,,,65,112
169120,note_on,,,,,0,0,0,,,,,0,,,77,112
169187,note_on,,,,,67,0,1,,,,,0,,,58,0
169187,note_on,,,,,67,0,0,,,,,0,,,82,0
169199,note_on,,,,,12,0,0,,,,,0,,,65,0
169199,note_on,,,,,0,0,0,,,,,0,,,77,0
169199,note_on,,,,,12,0,1,,,,,0,,,41,0
169199,note_on,,,,,0,0,1,,,,,0,,,53,0
169280,note_on,,,,,81,0,0,,,,,0,,,62,112
169280,note_on,,,,,81,0,1,,,,,0,,,38,112
169280,note_on,,,,,0,0,1,,,,,0,,,50,112
169280,note_on,,,,,0,0,0,,,,,0,,,74,112
169359,note_on,,,,,0,0,0,,,,,0,,,74,0
169359,note_on,,,,,0,0,1,,,,,0,,,50,0
169359,note_on,,,,,79,0,0,,,,,0,,,62,0
169359,note_on,,,,,79,0,1,,,,,0,,,38,0
169440,note_on,,,,,81,0,0,,,,,0,,,58,112
169440,note_on,,,,,0,0,0,,,,,0,,,70,112
169440,note_on,,,,,81,0,1,,,,,0,,,34,112
169440,note_on,,,,,0,0,1,,,,,0,,,46,112
169519,note_on,,,,,79,0,1,,,,,0,,,34,0
169519,note_on,,,,,0,0,1,,,,,0,,,46,0
169519,note_on,,,,,0,0,0,,,,,0,,,70,0
169519,note_on,,,,,79,0,0,,,,,0,,,58,0
169600,note_on,,,,,81,0,0,,,,,0,,,62,112
169600,note_on,,,,,0,0,0,,,,,0,,,74,112
169600,note_on,,,,,0,0,1,,,,,0,,,50,112
169600,note_on,,,,,81,0,1,,,,,0,,,38,112
169679,note_on,,,,,79,0,0,,,,,0,,,62,0
169679,note_on,,,,,0,0,1,,,,,0,,,50,0
169679,note_on,,,,,0,0,0,,,,,0,,,74,0
169679,note_on,,,,,79,0,1,,,,,0,,,38,0
169760,note_on,,,,,0,0,0,,,,,0,,,77,112
169760,note_on,,,,,81,0,1,,,,,0,,,41,112
169760,note_on,,,,,0,0,1,,,,,0,,,53,112
169760,note_on,,,,,81,0,0,,,,,0,,,65,112
169839,note_on,,,,,79,0,1,,,,,0,,,41,0
169839,note_on,,,,,0,0,0,,,,,0,,,77,0
169839,note_on,,,,,79,0,0,,,,,0,,,65,0
169839,note_on,,,,,0,0,1,,,,,0,,,53,0
169920,note_on,,,,,0,0,1,,,,,0,,,58,0
169920,note_on,,,,,0,0,1,,,,,0,,,58,112
169920,note_on,,,,,0,0,1,,,,,0,,,58,112
169920,note_on,,,,,0,0,1,,,,,0,,,54,112
169920,note_on,,,,,0,0,0,,,,,0,,,78,112
169920,note_on,,,,,81,0,0,,,,,0,,,70,112
169920,note_on,,,,,0,0,0,,,,,0,,,82,112
169920,note_on,,,,,0,0,0,,,,,0,,,82,112
169920,note_on,,,,,0,0,0,,,,,0,,,82,0
169920,note_on,,,,,81,0,1,,,,,0,,,46,112
169920,note_on,,,,,0,0,0,,,,,0,,,75,112
169920,note_on,,,,,0,0,1,,,,,0,,,51,112
169921,control_change,,,,,1,0,1,,,64,0,0,,,,
169922,control_change,,,,,1,0,1,,,64,127,0,,,,
169999,note_on,,,,,0,0,1,,,,,0,,,51,0
169999,note_on,,,,,0,0,1,,,,,0,,,54,0
169999,note_on,,,,,0,0,0,,,,,0,,,78,0
169999,note_on,,,,,0,0,0,,,,,0,,,75,0
169999,note_on,,,,,79,0,0,,,,,0,,,70,0
169999,note_on,,,,,77,0,1,,,,,0,,,46,0
170080,note_on,,,,,0,0,0,,,,,0,,,78,112
170080,note_on,,,,,81,0,0,,,,,0,,,66,112
170080,note_on,,,,,81,0,1,,,,,0,,,42,112
170080,note_on,,,,,0,0,1,,,,,0,,,54,112
170147,note_on,,,,,67,0,1,,,,,0,,,58,0
170147,note_on,,,,,67,0,0,,,,,0,,,82,0
170159,note_on,,,,,0,0,0,,,,,0,,,78,0
170159,note_on,,,,,12,0,0,,,,,0,,,66,0
170159,note_on,,,,,0,0,1,,,,,0,,,54,0
170159,note_on,,,,,12,0,1,,,,,0,,,42,0
170240,note_on,,,,,81,0,1,,,,,0,,,39,112
170240,note_on,,,,,0,0,0,,,,,0,,,75,112
170240,note_on,,,,,81,0,0,,,,,0,,,63,112
170240,note_on,,,,,0,0,1,,,,,0,,,51,112
170319,note_on,,,,,0,0,0,,,,,0,,,75,0
170319,note_on,,,,,79,0,1,,,,,0,,,39,0
170319,note_on,,,,,79,0,0,,,,,0,,,63,0
170319,note_on,,,,,0,0,1,,,,,0,,,51,0
170400,note_on,,,,,0,0,1,,,,,0,,,46,112
170400,note_on,,,,,81,0,1,,,,,0,,,34,112
170400,note_on,,,,,0,0,0,,,,,0,,,70,112
170400,note_on,,,,,81,0,0,,,,,0,,,58,112
170479,note_on,,,,,79,0,1,,,,,0,,,34,0
170479,note_on,,,,,0,0,0,,,,,0,,,70,0
170479,note_on,,,,,79,0,0,,,,,0,,,58,0
170479,note_on,,,,,0,0,1,,,,,0,,,46,0
170560,note_on,,,,,81,0,1,,,,,0,,,39,112
170560,note_on,,,,,0,0,0,,,,,0,,,75,112
170560,note_on,,,,,81,0,0,,,,,0,,,63,112
170560,note_on,,,,,0,0,1,,,,,0,,,51,112
170639,note_on,,,,,79,0,0,,,,,0,,,63,0
170639,note_on,,,,,0,0,1,,,,,0,,,51,0
170639,note_on,,,,,79,0,1,,,,,0,,,39,0
170639,note_on,,,,,0,0,0,,,,,0,,,75,0
170720,note_on,,,,,0,0,1,,,,,0,,,54,112
170720,note_on,,,,,81,0,1,,,,,0,,,42,112
170720,note_on,,,,,0,0,0,,,,,0,,,78,112
170720,note_on,,,,,81,0,0,,,,,0,,,66,112
170799,note_on,,,,,0,0,0,,,,,0,,,78,0
170799,note_on,,,,,0,0,1,,,,,0,,,54,0
170799,note_on,,,,,79,0,1,,,,,0,,,42,0
170799,note_on,,,,,79,0,0,,,,,0,,,66,0
170880,note_on,,,,,81,0,0,,,,,0,,,70,112
170880,note_on,,,,,81,0,1,,,,,0,,,46,112
170880,note_on,,,,,0,0,1,,,,,0,,,50,112
170880,note_on,,,,,0,0,0,,,,,0,,,74,112
170880,note_on,,,,,0,0,0,,,,,0,,,77,112
170880,note_on,,,,,0,0,0,,,,,0,,,82,0
170880,note_on,,,,,0,0,0,,,,,0,,,82,112
170880,note_on,,,,,0,0,0,,,,,0,,,82,112
170880,note_on,,,,,0,0,1,,,,,0,,,53,112
170880,note_on,,,,,0,0,1,,,,,0,,,58,0
170880,note_on,,,,,0,0,1,,,,,0,,,58,112
170880,note_on,,,,,0,0,1,,,,,0,,,58,112
170881,control_change,,,,,1,0,1,,,64,0,0,,,,
170882,control_change,,,,,1,0,1,,,64,127,0,,,,
170959,note_on,,,,,77,0,1,,,,,0,,,46,0
170959,note_on,,,,,79,0,0,,,,,0,,,70,0
170959,note_on,,,,,0,0,0,,,,,0,,,74,0
170959,note_on,,,,,0,0,1,,,,,0,,,53,0
170959,note_on,,,,,0,0,1,,,,,0,,,50,0
170959,note_on,,,,,0,0,0,,,,,0,,,77,0
171040,note_on,,,,,0,0,1,,,,,0,,,53,112
171040,note_on,,,,,81,0,0,,,,,0,,,65,112
171040,note_on,,,,,81,0,1,,,,,0,,,41,112
171040,note_on,,,,,0,0,0,,,,,0,,,77,112
171107,note_on,,,,,67,0,1,,,,,0,,,58,0
171107,note_on,,,,,67,0,0,,,,,0,,,82,0
171119,note_on,,,,,12,0,1,,,,,0,,,41,0
171119,note_on,,,,,0,0,0,,,,,0,,,77,0
171119,note_on,,,,,0,0,1,,,,,0,,,53,0
171119,note_on,,,,,12,0,0,,,,,0,,,65,0
171200,note_on,,,,,81,0,0,,,,,0,,,62,112
171200,note_on,,,,,0,0,1,,,,,0,,,50,112
171200,note_on,,,,,0,0,0,,,,,0,,,74,112
171200,note_on,,,,,81,0,1,,,,,0,,,38,112
171279,note_on,,,,,0,0,0,,,,,0,,,74,0
171279,note_on,,,,,79,0,1,,,,,0,,,38,0
171279,note_on,,,,,79,0,0,,,,,0,,,62,0
171279,note_on,,,,,0,0,1,,,,,0,,,50,0
171360,note_on,,,,,0,0,0,,,,,0,,,70,112
171360,note_on,,,,,81,0,0,,,,,0,,,58,112
171360,note_on,,,,,0,0,1,,,,,0,,,46,112
171360,note_on,,,,,81,0,1,,,,,0,,,34,112
171439,note_on,,,,,79,0,0,,,,,0,,,58,0
171439,note_on,,,,,79,0,1,,,,,0,,,34,0
171439,note_on,,,,,0,0,1,,,,,0,,,46,0
171439,note_on,,,,,0,0,0,,,,,0,,,70,0
171520,note_on,,,,,81,0,0,,,,,0,,,62,112
171520,note_on,,,,,0,0,1,,,,,0,,,50,112
171520,note_on,,,,,81,0,1,,,,,0,,,38,112
171520,note_on,,,,,0,0,0,,,,,0,,,74,112
171599,note_on,,,,,79,0,0,,,,,0,,,62,0
171599,note_on,,,,,79,0,1,,,,,0,,,38,0
171599,note_on,,,,,0,0,1,,,,,0,,,50,0
171599,note_on,,,,,0,0,0,,,,,0,,,74,0
171680,note_on,,,,,0,0,1,,,,,0,,,53,112
171680,note_on,,,,,81,0,1,,,,,0,,,41,112
171680,note_on,,,,,0,0,0,,,,,0,,,77,112
171680,note_on,,,,,81,0,0,,,,,0,,,65,112
171759,note_on,,,,,79,0,0,,,,,0,,,65,0
171759,note_on,,,,,0,0,0,,,,,0,,,77,0
171759,note_on,,,,,79,0,1,,,,,0,,,41,0
171759,note_on,,,,,0,0,1,,,,,0,,,53,0
171840,note_on,,,,,0,0,1,,,,,0,,,58,112
171840,note_on,,,,,81,0,1,,,,,0,,,46,112
171840,note_on,,,,,0,0,0,,,,,0,,,82,112
171840,note_on,,,,,81,0,0,,,,,0,,,70,112
172021,note_on,,,,,0,0,1,,,,,0,,,58,0
172021,note_on,,,,,181,0,1,,,,,0,,,46,0
172021,note_on,,,,,0,0,0,,,,,0,,,82,0
172021,note_on,,,,,181,0,0,,,,,0,,,70,0
172032,note_on,,,,,11,0,0,,,,,0,,,71,113
172032,note_on,,,,,0,0,0,,,,,0,,,83,113
172032,note_on,,,,,0,0,1,,,,,0,,,59,113
172032,note_on,,,,,11,0,1,,,,,0,,,47,113
172213,note_on,,,,,181,0,0,,,,,0,,,71,0
172213,note_on,,,,,181,0,1,,,,,0,,,47,0
172213,note_on,,,,,0,0,0,,,,,0,,,83,0
172213,note_on,,,,,0,0,1,,,,,0,,,59,0
172224,note_on,,,,,0,0,0,,,,,0,,,84,114
172224,note_on,,,,,11,0,0,,,,,0,,,72,114
172224,note_on,,,,,0,0,1,,,,,0,,,60,114
172224,note_on,,,,,11,0,1,,,,,0,,,48,114
172405,note_on,,,,,181,0,0,,,,,0,,,72,0
172405,note_on,,,,,181,0,1,,,,,0,,,48,0
172405,note_on,,,,,0,0,0,,,,,0,,,84,0
172405,note_on,,,,,0,0,1,,,,,0,,,60,0
172416,note_on,,,,,11,0,0,,,,,0,,,73,115
172416,note_on,,,,,0,0,1,,,,,0,,,61,115
172416,note_on,,,,,11,0,1,,,,,0,,,49,115
172416,note_on,,,,,0,0,0,,,,,0,,,85,115
172417,control_change,,,,,1,0,1,,,64,0,0,,,,
172506,note_on,,,,,0,0,1,,,,,0,,,61,0
172506,note_on,,,,,0,0,0,,,,,0,,,85,0
172506,note_on,,,,,90,0,0,,,,,0,,,73,0
172506,note_on,,,,,89,0,1,,,,,0,,,49,0
172512,note_on,,,,,6,0,1,,,,,0,,,50,115
172512,note_on,,,,,6,0,0,,,,,0,,,74,115
172512,note_on,,,,,0,0,1,,,,,0,,,62,115
172512,note_on,,,,,0,0,0,,,,,0,,,86,115
172602,note_on,,,,,90,0,1,,,,,0,,,50,0
172602,note_on,,,,,90,0,0,,,,,0,,,74,0
172602,note_on,,,,,0,0,0,,,,,0,,,86,0
172602,note_on,,,,,0,0,1,,,,,0,,,62,0
172608,note_on,,,,,0,0,0,,,,,0,,,87,116
172608,note_on,,,,,0,0,1,,,,,0,,,63,116
172608,note_on,,,,,6,0,1,,,,,0,,,51,116
172608,note_on,,,,,6,0,0,,,,,0,,,75,116
172698,note_on,,,,,0,0,1,,,,,0,,,63,0
172698,note_on,,,,,0,0,0,,,,,0,,,87,0
172698,note_on,,,,,90,0,1,,,,,0,,,51,0
172698,note_on,,,,,90,0,0,,,,,0,,,75,0
172704,note_on,,,,,0,0,0,,,,,0,,,88,116
172704,note_on,,,,,0,0,1,,,,,0,,,64,116
172704,note_on,,,,,6,0,0,,,,,0,,,76,116
172704,note_on,,,,,6,0,1,,,,,0,,,52,116
172794,note_on,,,,,90,0,0,,,,,0,,,76,0
172794,note_on,,,,,0,0,1,,,,,0,,,64,0
172794,note_on,,,,,90,0,1,,,,,0,,,52,0
172794,note_on,,,,,0,0,0,,,,,0,,,88,0
172800,note_on,,,,,0,0,1,,,,,0,,,56,117
172800,note_on,,,,,0,0,1,,,,,0,,,60,117
172800,note_on,,,,,6,0,0,,,,,0,,,77,117
172800,note_on,,,,,0,0,0,,,,,0,,,80,117
172800,note_on,,,,,0,0,0,,,,,0,,,84,117
172800,note_on,,,,,0,0,0,,,,,0,,,89,0
172800,note_on,,,,,0,0,0,,,,,0,,,89,117
172800,note_on,,,,,0,0,0,,,,,0,,,89,117
172800,note_on,,,,,6,0,1,,,,,0,,,53,117
172800,note_on,,,,,0,0,1,,,,,0,,,65,117
172800,note_on,,,,,0,0,1,,,,,0,,,65,0
172800,note_on,,,,,0,0,1,,,,,0,,,65,117
172802,control_change,,,,,2,0,1,,,64,127,0,,,,
172879,note_on,,,,,0,0,0,,,,,0,,,80,0
172879,note_on,,,,,79,0,0,,,,,0,,,77,0
172879,note_on,,,,,0,0,1,,,,,0,,,60,0
172879,note_on,,,,,0,0,1,,,,,0,,,56,0
172879,note_on,,,,,0,0,0,,,,,0,,,84,0
172879,note_on,,,,,77,0,1,,,,,0,,,53,0
172960,note_on,,,,,81,0,1,,,,,0,,,48,117
172960,note_on,,,,,81,0,0,,,,,0,,,72,117
172960,note_on,,,,,0,0,0,,,,,0,,,84,117
172960,note_on,,,,,0,0,1,,,,,0,,,60,117
173027,note_on,,,,,67,0,1,,,,,0,,,65,0
173027,note_on,,,,,67,0,0,,,,,0,,,89,0
173039,note_on,,,,,12,0,1,,,,,0,,,48,0
173039,note_on,,,,,12,0,0,,,,,0,,,72,0
173039,note_on,,,,,0,0,1,,,,,0,,,60,0
173039,note_on,,,,,0,0,0,,,,,0,,,84,0
173120,note_on,,,,,81,0,1,,,,,0,,,44,117
173120,note_on,,,,,81,0,0,,,,,0,,,68,117
173120,note_on,,,,,0,0,0,,,,,0,,,80,117
173120,note_on,,,,,0,0,1,,,,,0,,,56,117
173199,note_on,,,,,79,0,0,,,,,0,,,68,0
173199,note_on,,,,,0,0,0,,,,,0,,,80,0
173199,note_on,,,,,79,0,1,,,,,0,,,44,0
173199,note_on,,,,,0,0,1,,,,,0,,,56,0
173280,note_on,,,,,81,0,0,,,,,0,,,65,117
173280,note_on,,,,,0,0,0,,,,,0,,,77,117
173280,note_on,,,,,81,0,1,,,,,0,,,41,117
173280,note_on,,,,,0,0,1,,,,,0,,,53,117
173359,note_on,,,,,0,0,0,,,,,0,,,77,0
173359,note_on,,,,,0,0,1,,,,,0,,,53,0
173359,note_on,,,,,79,0,1,,,,,0,,,41,0
173359,note_on,,,,,79,0,0,,,,,0,,,65,0
173440,note_on,,,,,81,0,1,,,,,0,,,44,117
173440,note_on,,,,,81,0,0,,,,,0,,,68,117
173440,note_on,,,,,0,0,1,,,,,0,,,56,117
173440,note_on,,,,,0,0,0,,,,,0,,,80,117
173519,note_on,,,,,0,0,0,,,,,0,,,80,0
173519,note_on,,,,,0,0,1,,,,,0,,,56,0
173519,note_on,,,,,79,0,0,,,,,0,,,68,0
173519,note_on,,,,,79,0,1,,,,,0,,,44,0
173600,note_on,,,,,81,0,1,,,,,0,,,48,117
173600,note_on,,,,,0,0,1,,,,,0,,,60,117
173600,note_on,,,,,0,0,0,,,,,0,,,84,117
173600,note_on,,,,,81,0,0,,,,,0,,,72,117
173679,note_on,,,,,79,0,0,,,,,0,,,72,0
173679,note_on,,,,,79,0,1,,,,,0,,,48,0
173679,note_on,,,,,0,0,0,,,,,0,,,84,0
173679,note_on,,,,,0,0,1,,,,,0,,,60,0
173760,note_on,,,,,0,0,0,,,,,0,,,82,117
173760,note_on,,,,,0,0,0,,,,,0,,,85,117
173760,note_on,,,,,0,0,0,,,,,0,,,89,0
173760,note_on,,,,,0,0,0,,,,,0,,,89,117
173760,note_on,,,,,0,0,0,,,,,0,,,89,117
173760,note_on,,,,,81,0,1,,,,,0,,,53,117
173760,note_on,,,,,0,0,1,,,,,0,,,58,117
173760,note_on,,,,,0,0,1,,,,,0,,,61,117
173760,note_on,,,,,0,0,1,,,,,0,,,65,117
173760,note_on,,,,,81,0,0,,,,,0,,,77,117
173760,note_on,,,,,0,0,1,,,,,0,,,65,117
173760,note_on,,,,,0,0,1,,,,,0,,,65,0
173761,control_change,,,,,1,0,1,,,64,0,0,,,,
173762,control_change,,,,,1,0,1,,,64,127,0,,,,
173839,note_on,,,,,77,0,1,,,,,0,,,53,0
173839,note_on,,,,,0,0,1,,,,,0,,,61,0
173839,note_on,,,,,0,0,0,,,,,0,,,82,0
173839,note_on,,,,,0,0,1,,,,,0,,,58,0
173839,note_on,,,,,0,0,0,,,,,0,,,85,0
173839,note_on,,,,,79,0,0,,,,,0,,,77,0
173920,note_on,,,,,81,0,1,,,,,0,,,49,117
173920,note_on,,,,,81,0,0,,,,,0,,,73,117
173920,note_on,,,,,0,0,1,,,,,0,,,61,117
173920,note_on,,,,,0,0,0,,,,,0,,,85,117
173987,note_on,,,,,67,0,0,,,,,0,,,89,0
173987,note_on,,,,,67,0,1,,,,,0,,,65,0
173999,note_on,,,,,0,0,0,,,,,0,,,85,0
173999,note_on,,,,,0,0,1,,,,,0,,,61,0
173999,note_on,,,,,12,0,1,,,,,0,,,49,0
173999,note_on,,,,,12,0,0,,,,,0,,,73,0
174080,note_on,,,,,0,0,0,,,,,0,,,82,117
174080,note_on,,,,,81,0,1,,,,,0,,,46,117
174080,note_on,,,,,0,0,1,,,,,0,,,58,117
174080,note_on,,,,,81,0,0,,,,,0,,,70,117
174159,note_on,,,,,0,0,0,,,,,0,,,82,0
174159,note_on,,,,,79,0,0,,,,,0,,,70,0
174159,note_on,,,,,0,0,1,,,,,0,,,58,0
174159,note_on,,,,,79,0,1,,,,,0,,,46,0
174240,note_on,,,,,0,0,0,,,,,0,,,77,117
174240,note_on,,,,,81,0,0,,,,,0,,,65,117
174240,note_on,,,,,81,0,1,,,,,0,,,41,117
174240,note_on,,,,,0,0,1,,,,,0,,,53,117
174319,note_on,,,,,0,0,1,,,,,0,,,53,0
174319,note_on,,,,,0,0,0,,,,,0,,,77,0
174319,note_on,,,,,79,0,1,,,,,0,,,41,0
174319,note_on,,,,,79,0,0,,,,,0,,,65,0
174400,note_on,,,,,81,0,0,,,,,0,,,70,117
174400,note_on,,,,,81,0,1,,,,,0,,,46,117
174400,note_on,,,,,0,0,0,,,,,0,,,82,117
174400,note_on,,,,,0,0,1,,,,,0,,,58,117
174479,note_on,,,,,0,0,1,,,,,0,,,58,0
174479,note_on,,,,,79,0,0,,,,,0,,,70,0
174479,note_on,,,,,0,0,0,,,,,0,,,82,0
174479,note_on,,,,,79,0,1,,,,,0,,,46,0
174560,note_on,,,,,81,0,0,,,,,0,,,73,117
174560,note_on,,,,,0,0,0,,,,,0,,,85,117
174560,note_on,,,,,0,0,1,,,,,0,,,61,117
174560,note_on,,,,,81,0,1,,,,,0,,,49,117
174639,note_on,,,,,79,0,1,,,,,0,,,49,0
174639,note_on,,,,,0,0,1,,,,,0,,,61,0
174639,note_on,,,,,79,0,0,,,,,0,,,73,0
174639,note_on,,,,,0,0,0,,,,,0,,,85,0
174720,note_on,,,,,0,0,1,,,,,0,,,60,117
174720,note_on,,,,,0,0,1,,,,,0,,,56,117
174720,note_on,,,,,0,0,1,,,,,0,,,65,117
174720,note_on,,,,,81,0,0,,,,,0,,,77,117
174720,note_on,,,,,0,0,1,,,,,0,,,65,117
174720,note_on,,,,,0,0,0,,,,,0,,,89,117
174720,note_on,,,,,0,0,1,,,,,0,,,65,0
174720,note_on,,,,,0,0,0,,,,,0,,,89,0
174720,note_on,,,,,0,0,0,,,,,0,,,89,117
174720,note_on,,,,,0,0,0,,,,,0,,,84,117
174720,note_on,,,,,0,0,0,,,,,0,,,80,117
174720,note_on,,,,,81,0,1,,,,,0,,,53,117
174721,control_change,,,,,1,0,1,,,64,0,0,,,,
174722,control_change,,,,,1,0,1,,,64,127,0,,,,
174799,note_on,,,,,79,0,0,,,,,0,,,77,0
174799,note_on,,,,,0,0,0,,,,,0,,,80,0
174799,note_on,,,,,0,0,0,,,,,0,,,84,0
174799,note_on,,,,,77,0,1,,,,,0,,,53,0
174799,note_on,,,,,0,0,1,,,,,0,,,56,0
174799,note_on,,,,,0,0,1,,,,,0,,,60,0
174880,note_on,,,,,81,0,0,,,,,0,,,72,117
174880,note_on,,,,,0,0,1,,,,,0,,,60,117
174880,note_on,,,,,0,0,0,,,,,0,,,84,117
174880,note_on,,,,,81,0,1,,,,,0,,,48,117
174947,note_on,,,,,67,0,0,,,,,0,,,89,0
174947,note_on,,,,,67,0,1,,,,,0,,,65,0
174959,note_on,,,,,12,0,0,,,,,0,,,72,0
174959,note_on,,,,,0,0,0,,,,,0,,,84,0
174959,note_on,,,,,0,0,1,,,,,0,,,60,0
174959,note_on,,,,,12,0,1,,,,,0,,,48,0
175040,note_on,,,,,81,0,0,,,,,0,,,68,117
175040,note_on,,,,,81,0,1,,,,,0,,,44,117
175040,note_on,,,,,0,0,0,,,,,0,,,80,117
175040,note_on,,,,,0,0,1,,,,,0,,,56,117
175119,note_on,,,,,79,0,0,,,,,0,,,68,0
175119,note_on,,,,,0,0,0,,,,,0,,,80,0
175119,note_on,,,,,0,0,1,,,,,0,,,56,0
175119,note_on,,,,,79,0,1,,,,,0,,,44,0
175200,note_on,,,,,81,0,1,,,,,0,,,41,117
175200,note_on,,,,,0,0,0,,,,,0,,,77,117
175200,note_on,,,,,81,0,0,,,,,0,,,65,117
175200,note_on,,,,,0,0,1,,,,,0,,,53,117
175279,note_on,,,,,79,0,0,,,,,0,,,65,0
175279,note_on,,,,,0,0,0,,,,,0,,,77,0
175279,note_on,,,,,79,0,1,,,,,0,,,41,0
175279,note_on,,,,,0,0,1,,,,,0,,,53,0
175360,note_on,,,,,81,0,0,,,,,0,,,68,117
175360,note_on,,,,,0,0,0,,,,,0,,,80,117
175360,note_on,,,,,0,0,1,,,,,0,,,56,117
175360,note_on,,,,,81,0,1,,,,,0,,,44,117
175439,note_on,,,,,0,0,0,,,,,0,,,80,0
175439,note_on,,,,,79,0,1,,,,,0,,,44,0
175439,note_on,,,,,79,0,0,,,,,0,,,68,0
175439,note_on,,,,,0,0,1,,,,,0,,,56,0
175520,note_on,,,,,81,0,1,,,,,0,,,48,117
175520,note_on,,,,,81,0,0,,,,,0,,,72,117
175520,note_on,,,,,0,0,1,,,,,0,,,60,117
175520,note_on,,,,,0,0,0,,,,,0,,,84,117
175599,note_on,,,,,79,0,1,,,,,0,,,48,0
175599,note_on,,,,,0,0,1,,,,,0,,,60,0
175599,note_on,,,,,79,0,0,,,,,0,,,72,0
175599,note_on,,,,,0,0,0,,,,,0,,,84,0
175680,note_on,,,,,0,0,1,,,,,0,,,65,117
175680,note_on,,,,,81,0,1,,,,,0,,,53,117
175680,note_on,,,,,0,0,0,,,,,0,,,89,117
175680,note_on,,,,,81,0,0,,,,,0,,,77,117
175759,note_on,,,,,79,0,1,,,,,0,,,53,0
175759,note_on,,,,,79,0,0,,,,,0,,,77,0
175759,note_on,,,,,0,0,1,,,,,0,,,65,0
175759,note_on,,,,,0,0,0,,,,,0,,,89,0
175840,note_on,,,,,0,0,0,,,,,0,,,88,117
175840,note_on,,,,,81,0,0,,,,,0,,,76,117
175840,note_on,,,,,81,0,1,,,,,0,,,52,117
175840,note_on,,,,,0,0,1,,,,,0,,,64,117
175919,note_on,,,,,79,0,1,,,,,0,,,52,0
175919,note_on,,,,,79,0,0,,,,,0,,,76,0
175919,note_on,,,,,0,0,1,,,,,0,,,64,0
175919,note_on,,,,,0,0,0,,,,,0,,,88,0
176000,note_on,,,,,0,0,1,,,,,0,,,65,118
176000,note_on,,,,,0,0,0,,,,,0,,,89,118
176000,note_on,,,,,81,0,1,,,,,0,,,53,118
176000,note_on,,,,,81,0,0,,,,,0,,,77,118
176001,control_change,,,,,1,0,1,,,64,0,0,,,,
176079,note_on,,,,,0,0,1,,,,,0,,,65,0
176079,note_on,,,,,78,0,1,,,,,0,,,53,0
176079,note_on,,,,,0,0,0,,,,,0,,,89,0
176079,note_on,,,,,79,0,0,,,,,0,,,77,0
176160,note_on,,,,,0,0,0,,,,,0,,,92,119
176160,note_on,,,,,81,0,0,,,,,0,,,80,119
176160,note_on,,,,,81,0,1,,,,,0,,,56,119
176160,note_on,,,,,0,0,1,,,,,0,,,68,119
176239,note_on,,,,,79,0,0,,,,,0,,,80,0
176239,note_on,,,,,0,0,0,,,,,0,,,92,0
176239,note_on,,,,,79,0,1,,,,,0,,,56,0
176239,note_on,,,,,0,0,1,,,,,0,,,68,0
176320,note_on,,,,,0,0,0,,,,,0,,,91,120
176320,note_on,,,,,81,0,0,,,,,0,,,79,120
176320,note_on,,,,,81,0,1,,,,,0,,,55,120
176320,note_on,,,,,0,0,1,,,,,0,,,67,120
176399,note_on,,,,,0,0,0,,,,,0,,,91,0
176399,note_on,,,,,79,0,0,,,,,0,,,79,0
176399,note_on,,,,,0,0,1,,,,,0,,,67,0
176399,note_on,,,,,79,0,1,,,,,0,,,55,0
176480,note_on,,,,,81,0,0,,,,,0,,,77,121
176480,note_on,,,,,0,0,1,,,,,0,,,65,121
176480,note_on,,,,,81,0,1,,,,,0,,,53,121
176480,note_on,,,,,0,0,0,,,,,0,,,89,121
176559,note_on,,,,,79,0,0,,,,,0,,,77,0
176559,note_on,,,,,79,0,1,,,,,0,,,53,0
176559,note_on,,,,,0,0,1,,,,,0,,,65,0
176559,note_on,,,,,0,0,0,,,,,0,,,89,0
176640,note_on,,,,,81,0,0,,,,,0,,,75,122
176640,note_on,,,,,0,0,0,,,,,0,,,80,122
176640,note_on,,,,,0,0,1,,,,,0,,,56,122
176640,note_on,,,,,0,0,1,,,,,0,,,63,122
176640,note_on,,,,,0,0,1,,,,,0,,,63,0
176640,note_on,,,,,0,0,1,,,,,0,,,60,122
176640,note_on,,,,,0,0,1,,,,,0,,,63,122
176640,note_on,,,,,0,0,0,,,,,0,,,84,122
176640,note_on,,,,,0,0,0,,,,,0,,,87,122
176640,note_on,,,,,0,0,0,,,,,0,,,87,122
176640,note_on,,,,,81,0,1,,,,,0,,,51,122
176640,note_on,,,,,0,0,0,,,,,0,,,87,0
176642,control_change,,,,,2,0,1,,,64,127,0,,,,
176719,note_on,,,,,0,0,0,,,,,0,,,80,0
176719,note_on,,,,,0,0,0,,,,,0,,,84,0
176719,note_on,,,,,0,0,1,,,,,0,,,56,0
176719,note_on,,,,,0,0,1,,,,,0,,,60,0
176719,note_on,,,,,77,0,1,,,,,0,,,51,0
176719,note_on,,,,,79,0,0,,,,,0,,,75,0
176800,note_on,,,,,0,0,0,,,,,0,,,84,122
176800,note_on,,,,,0,0,1,,,,,0,,,60,122
176800,note_on,,,,,81,0,1,,,,,0,,,48,122
176800,note_on,,,,,81,0,0,,,,,0,,,72,122
176867,note_on,,,,,67,0,0,,,,,0,,,87,0
176867,note_on,,,,,67,0,1,,,,,0,,,63,0
176879,note_on,,,,,0,0,0,,,,,0,,,84,0
176879,note_on,,,,,12,0,1,,,,,0,,,48,0
176879,note_on,,,,,12,0,0,,,,,0,,,72,0
176879,note_on,,,,,0,0,1,,,,,0,,,60,0
176960,note_on,,,,,81,0,0,,,,,0,,,68,122
176960,note_on,,,,,0,0,1,,,,,0,,,56,122
176960,note_on,,,,,0,0,0,,,,,0,,,80,122
176960,note_on,,,,,81,0,1,,,,,0,,,44,122
177039,note_on,,,,,0,0,0,,,,,0,,,80,0
177039,note_on,,,,,0,0,1,,,,,0,,,56,0
177039,note_on,,,,,79,0,0,,,,,0,,,68,0
177039,note_on,,,,,79,0,1,,,,,0,,,44,0
177120,note_on,,,,,0,0,0,,,,,0,,,75,122
177120,note_on,,,,,81,0,0,,,,,0,,,63,122
177120,note_on,,,,,81,0,1,,,,,0,,,39,122
177120,note_on,,,,,0,0,1,,,,,0,,,51,122
177199,note_on,,,,,79,0,0,,,,,0,,,63,0
177199,note_on,,,,,79,0,1,,,,,0,,,39,0
177199,note_on,,,,,0,0,1,,,,,0,,,51,0
177199,note_on,,,,,0,0,0,,,,,0,,,75,0
177280,note_on,,,,,81,0,1,,,,,0,,,44,122
177280,note_on,,,,,0,0,1,,,,,0,,,56,122
177280,note_on,,,,,0,0,0,,,,,0,,,80,122
177280,note_on,,,,,81,0,0,,,,,0,,,68,122
177359,note_on,,,,,0,0,0,,,,,0,,,80,0
177359,note_on,,,,,79,0,0,,,,,0,,,68,0
177359,note_on,,,,,79,0,1,,,,,0,,,44,0
177359,note_on,,,,,0,0,1,,,,,0,,,56,0
177440,note_on,,,,,0,0,1,,,,,0,,,60,122
177440,note_on,,,,,81,0,1,,,,,0,,,48,122
177440,note_on,,,,,0,0,0,,,,,0,,,84,122
177440,note_on,,,,,81,0,0,,,,,0,,,72,122
177519,note_on,,,,,79,0,0,,,,,0,,,72,0
177519,note_on,,,,,0,0,1,,,,,0,,,60,0
177519,note_on,,,,,79,0,1,,,,,0,,,48,0
177519,note_on,,,,,0,0,0,,,,,0,,,84,0
177600,note_on,,,,,0,0,1,,,,,0,,,63,0
177600,note_on,,,,,0,0,1,,,,,0,,,58,122
177600,note_on,,,,,0,0,1,,,,,0,,,55,122
177600,note_on,,,,,81,0,1,,,,,0,,,51,122
177600,note_on,,,,,0,0,0,,,,,0,,,82,122
177600,note_on,,,,,0,0,1,,,,,0,,,63,122
177600,note_on,,,,,0,0,0,,,,,0,,,87,0
177600,note_on,,,,,0,0,0,,,,,0,,,87,122
177600,note_on,,,,,0,0,0,,,,,0,,,87,122
177600,note_on,,,,,81,0,0,,,,,0,,,75,122
177600,note_on,,,,,0,0,0,,,,,0,,,79,122
177600,note_on,,,,,0,0,1,,,,,0,,,63,122
177601,control_change,,,,,1,0,1,,,64,0,0,,,,
177602,control_change,,,,,1,0,1,,,64,127,0,,,,
177679,note_on,,,,,77,0,1,,,,,0,,,51,0
177679,note_on,,,,,0,0,0,,,,,0,,,79,0
177679,note_on,,,,,79,0,0,,,,,0,,,75,0
177679,note_on,,,,,0,0,0,,,,,0,,,82,0
177679,note_on,,,,,0,0,1,,,,,0,,,55,0
177679,note_on,,,,,0,0,1,,,,,0,,,58,0
177760,note_on,,,,,0,0,1,,,,,0,,,58,122
177760,note_on,,,,,81,0,0,,,,,0,,,70,122
177760,note_on,,,,,0,0,0,,,,,0,,,82,122
177760,note_on,,,,,81,0,1,,,,,0,,,46,122
177827,note_on,,,,,67,0,1,,,,,0,,,63,0
177827,note_on,,,,,67,0,0,,,,,0,,,87,0
177839,note_on,,,,,12,0,0,,,,,0,,,70,0
177839,note_on,,,,,0,0,0,,,,,0,,,82,0
177839,note_on,,,,,12,0,1,,,,,0,,,46,0
177839,note_on,,,,,0,0,1,,,,,0,,,58,0
177920,note_on,,,,,0,0,0,,,,,0,,,79,122
177920,note_on,,,,,81,0,0,,,,,0,,,67,122
177920,note_on,,,,,0,0,1,,,,,0,,,55,122
177920,note_on,,,,,81,0,1,,,,,0,,,43,122
177999,note_on,,,,,0,0,0,,,,,0,,,79,0
177999,note_on,,,,,0,0,1,,,,,0,,,55,0
177999,note_on,,,,,79,0,1,,,,,0,,,43,0
177999,note_on,,,,,79,0,0,,,,,0,,,67,0
178080,note_on,,,,,0,0,1,,,,,0,,,51,122
178080,note_on,,,,,81,0,0,,,,,0,,,63,122
178080,note_on,,,,,81,0,1,,,,,0,,,39,122
178080,note_on,,,,,0,0,0,,,,,0,,,75,122
178159,note_on,,,,,79,0,1,,,,,0,,,39,0
178159,note_on,,,,,79,0,0,,,,,0,,,63,0
178159,note_on,,,,,0,0,0,,,,,0,,,75,0
178159,note_on,,,,,0,0,1,,,,,0,,,51,0
178240,note_on,,,,,81,0,1,,,,,0,,,43,122
178240,note_on,,,,,81,0,0,,,,,0,,,67,122
178240,note_on,,,,,0,0,1,,,,,0,,,55,122
178240,note_on,,,,,0,0,0,,,,,0,,,79,122
178319,note_on,,,,,0,0,0,,,,,0,,,79,0
178319,note_on,,,,,79,0,0,,,,,0,,,67,0
178319,note_on,,,,,79,0,1,,,,,0,,,43,0
178319,note_on,,,,,0,0,1,,,,,0,,,55,0
178400,note_on,,,,,0,0,0,,,,,0,,,82,122
178400,note_on,,,,,81,0,0,,,,,0,,,70,122
178400,note_on,,,,,0,0,1,,,,,0,,,58,122
178400,note_on,,,,,81,0,1,,,,,0,,,46,122
178479,note_on,,,,,0,0,0,,,,,0,,,82,0
178479,note_on,,,,,79,0,0,,,,,0,,,70,0
178479,note_on,,,,,0,0,1,,,,,0,,,58,0
178479,note_on,,,,,79,0,1,,,,,0,,,46,0
178560,note_on,,,,,0,0,1,,,,,0,,,63,122
178560,note_on,,,,,0,0,0,,,,,0,,,87,122
178560,note_on,,,,,0,0,0,,,,,0,,,87,0
178560,note_on,,,,,0,0,1,,,,,0,,,63,122
178560,note_on,,,,,81,0,1,,,,,0,,,51,122
178560,note_on,,,,,0,0,1,,,,,0,,,56,122
178560,note_on,,,,,0,0,1,,,,,0,,,60,122
178560,note_on,,,,,0,0,1,,,,,0,,,63,0
178560,note_on,,,,,81,0,0,,,,,0,,,75,122
178560,note_on,,,,,0,0,0,,,,,0,,,84,122
178560,note_on,,,,,0,0,0,,,,,0,,,80,122
178560,note_on,,,,,0,0,0,,,,,0,,,87,122
178561,control_change,,,,,1,0,1,,,64,0,0,,,,
178562,control_change,,,,,1,0,1,,,64,127,0,,,,
178639,note_on,,,,,0,0,0,,,,,0,,,80,0
178639,note_on,,,,,0,0,1,,,,,0,,,56,0
178639,note_on,,,,,79,0,0,,,,,0,,,75,0
178639,note_on,,,,,77,0,1,,,,,0,,,51,0
178639,note_on,,,,,0,0,0,,,,,0,,,84,0
178639,note_on,,,,,0,0,1,,,,,0,,,60,0
178720,note_on,,,,,81,0,0,,,,,0,,,72,122
178720,note_on,,,,,0,0,1,,,,,0,,,60,122
178720,note_on,,,,,81,0,1,,,,,0,,,48,122
178720,note_on,,,,,0,0,0,,,,,0,,,84,122
178787,note_on,,,,,67,0,1,,,,,0,,,63,0
178787,note_on,,,,,67,0,0,,,,,0,,,87,0
178799,note_on,,,,,0,0,0,,,,,0,,,84,0
178799,note_on,,,,,12,0,0,,,,,0,,,72,0
178799,note_on,,,,,12,0,1,,,,,0,,,48,0
178799,note_on,,,,,0,0,1,,,,,0,,,60,0
178880,note_on,,,,,81,0,1,,,,,0,,,44,122
178880,note_on,,,,,0,0,1,,,,,0,,,56,122
178880,note_on,,,,,0,0,0,,,,,0,,,80,122
178880,note_on,,,,,81,0,0,,,,,0,,,68,122
178959,note_on,,,,,79,0,0,,,,,0,,,68,0
178959,note_on,,,,,0,0,1,,,,,0,,,56,0
178959,note_on,,,,,0,0,0,,,,,0,,,80,0
178959,note_on,,,,,79,0,1,,,,,0,,,44,0
179040,note_on,,,,,81,0,1,,,,,0,,,39,122
179040,note_on,,,,,0,0,0,,,,,0,,,75,122
179040,note_on,,,,,0,0,1,,,,,0,,,51,122
179040,note_on,,,,,81,0,0,,,,,0,,,63,122
179119,note_on,,,,,0,0,0,,,,,0,,,75,0
179119,note_on,,,,,0,0,1,,,,,0,,,51,0
179119,note_on,,,,,79,0,0,,,,,0,,,63,0
179119,note_on,,,,,79,0,1,,,,,0,,,39,0
179200,note_on,,,,,81,0,1,,,,,0,,,44,122
179200,note_on,,,,,81,0,0,,,,,0,,,68,122
179200,note_on,,,,,0,0,1,,,,,0,,,56,122
179200,note_on,,,,,0,0,0,,,,,0,,,80,122
179279,note_on,,,,,0,0,1,,,,,0,,,56,0
179279,note_on,,,,,79,0,0,,,,,0,,,68,0
179279,note_on,,,,,0,0,0,,,,,0,,,80,0
179279,note_on,,,,,79,0,1,,,,,0,,,44,0
179360,note_on,,,,,81,0,0,,,,,0,,,72,122
179360,note_on,,,,,0,0,1,,,,,0,,,60,122
179360,note_on,,,,,0,0,0,,,,,0,,,84,122
179360,note_on,,,,,81,0,1,,,,,0,,,48,122
179439,note_on,,,,,0,0,0,,,,,0,,,84,0
179439,note_on,,,,,79,0,0,,,,,0,,,72,0
179439,note_on,,,,,0,0,1,,,,,0,,,60,0
179439,note_on,,,,,79,0,1,,,,,0,,,48,0
179520,note_on,,,,,81,0,0,,,,,0,,,75,122
179520,note_on,,,,,81,0,1,,,,,0,,,51,122
179520,note_on,,,,,0,0,0,,,,,0,,,87,122
179520,note_on,,,,,0,0,1,,,,,0,,,63,122
179599,note_on,,,,,79,0,0,,,,,0,,,75,0
179599,note_on,,,,,79,0,1,,,,,0,,,51,0
179599,note_on,,,,,0,0,0,,,,,0,,,87,0
179599,note_on,,,,,0,0,1,,,,,0,,,63,0
179680,note_on,,,,,0,0,1,,,,,0,,,72,122
179680,note_on,,,,,81,0,1,,,,,0,,,60,122
179680,note_on,,,,,81,0,0,,,,,0,,,84,122
179680,note_on,,,,,0,0,0,,,,,0,,,96,122
179759,note_on,,,,,0,0,1,,,,,0,,,72,0
179759,note_on,,,,,79,0,1,,,,,0,,,60,0
179759,note_on,,,,,79,0,0,,,,,0,,,84,0
179759,note_on,,,,,0,0,0,,,,,0,,,96,0
179840,note_on,,,,,0,0,1,,,,,0,,,67,123
179840,note_on,,,,,0,0,0,,,,,0,,,91,123
179840,note_on,,,,,81,0,0,,,,,0,,,79,123
179840,note_on,,,,,81,0,1,,,,,0,,,55,123
179919,note_on,,,,,79,0,0,,,,,0,,,79,0
179919,note_on,,,,,79,0,1,,,,,0,,,55,0
179919,note_on,,,,,0,0,0,,,,,0,,,91,0
179919,note_on,,,,,0,0,1,,,,,0,,,67,0
180000,note_on,,,,,0,0,0,,,,,0,,,94,124
180000,note_on,,,,,81,0,1,,,,,0,,,58,124
180000,note_on,,,,,0,0,1,,,,,0,,,70,124
180000,note_on,,,,,81,0,0,,,,,0,,,82,124
180001,control_change,,,,,1,0,1,,,64,0,0,,,,
180079,note_on,,,,,78,0,1,,,,,0,,,58,0
180079,note_on,,,,,0,0,1,,,,,0,,,70,0
180079,note_on,,,,,79,0,0,,,,,0,,,82,0
180079,note_on,,,,,0,0,0,,,,,0,,,94,0
180160,note_on,,,,,0,0,1,,,,,0,,,68,125
180160,note_on,,,,,0,0,0,,,,,0,,,92,125
180160,note_on,,,,,81,0,1,,,,,0,,,56,125
180160,note_on,,,,,81,0,0,,,,,0,,,80,125
180239,note_on,,,,,79,0,0,,,,,0,,,80,0
180239,note_on,,,,,0,0,0,,,,,0,,,92,0
180239,note_on,,,,,0,0,1,,,,,0,,,68,0
180239,note_on,,,,,79,0,1,,,,,0,,,56,0
180320,note_on,,,,,0,0,0,,,,,0,,,89,126
180320,note_on,,,,,81,0,1,,,,,0,,,53,126
180320,note_on,,,,,0,0,1,,,,,0,,,65,126
180320,note_on,,,,,81,0,0,,,,,0,,,77,126
180399,note_on,,,,,79,0,0,,,,,0,,,77,0
180399,note_on,,,,,0,0,0,,,,,0,,,89,0
180399,note_on,,,,,0,0,1,,,,,0,,,65,0
180399,note_on,,,,,79,0,1,,,,,0,,,53,0
180480,note_on,,,,,0,0,0,,,,,0,,,87,127
180480,note_on,,,,,0,0,1,,,,,0,,,56,127
180480,note_on,,,,,0,0,0,,,,,0,,,87,127
180480,note_on,,,,,0,0,1,,,,,0,,,60,127
180480,note_on,,,,,0,0,1,,,,,0,,,63,127
180480,note_on,,,,,0,0,1,,,,,0,,,63,127
180480,note_on,,,,,81,0,0,,,,,0,,,75,127
180480,note_on,,,,,0,0,0,,,,,0,,,87,0
180480,note_on,,,,,0,0,0,,,,,0,,,84,127
180480,note_on,,,,,0,0,0,,,,,0,,,80,127
180480,note_on,,,,,0,0,1,,,,,0,,,63,0
180480,note_on,,,,,81,0,1,,,,,0,,,51,127
180482,control_change,,,,,2,0,1,,,64,127,0,,,,
180559,note_on,,,,,0,0,1,,,,,0,,,60,0
180559,note_on,,,,,0,0,0,,,,,0,,,80,0
180559,note_on,,,,,0,0,0,,,,,0,,,84,0
180559,note_on,,,,,77,0,1,,,,,0,,,51,0
180559,note_on,,,,,0,0,1,,,,,0,,,56,0
180559,note_on,,,,,79,0,0,,,,,0,,,75,0
180640,note_on,,,,,0,0,1,,,,,0,,,60,127
180640,note_on,,,,,81,0,0,,,,,0,,,72,127
180640,note_on,,,,,81,0,1,,,,,0,,,48,127
180640,note_on,,,,,0,0,0,,,,,0,,,84,127
180707,note_on,,,,,67,0,0,,,,,0,,,87,0
180707,note_on,,,,,67,0,1,,,,,0,,,63,0
180719,note_on,,,,,0,0,0,,,,,0,,,84,0
180719,note_on,,,,,12,0,1,,,,,0,,,48,0
180719,note_on,,,,,0,0,1,,,,,0,,,60,0
180719,note_on,,,,,12,0,0,,,,,0,,,72,0
180800,note_on,,,,,81,0,0,,,,,0,,,68,127
180800,note_on,,,,,81,0,1,,,,,0,,,44,127
180800,note_on,,,,,0,0,0,,,,,0,,,80,127
180800,note_on,,,,,0,0,1,,,,,0,,,56,127
180879,note_on,,,,,0,0,0,,,,,0,,,80,0
180879,note_on,,,,,79,0,1,,,,,0,,,44,0
180879,note_on,,,,,0,0,1,,,,,0,,,56,0
180879,note_on,,,,,79,0,0,,,,,0,,,68,0
180960,note_on,,,,,81,0,0,,,,,0,,,63,127
180960,note_on,,,,,0,0,0,,,,,0,,,75,127
180960,note_on,,,,,0,0,1,,,,,0,,,51,127
180960,note_on,,,,,81,0,1,,,,,0,,,39,127
181039,note_on,,,,,0,0,1,,,,,0,,,51,0
181039,note_on,,,,,79,0,1,,,,,0,,,39,0
181039,note_on,,,,,79,0,0,,,,,0,,,63,0
181039,note_on,,,,,0,0,0,,,,,0,,,75,0
181120,note_on,,,,,0,0,1,,,,,0,,,56,127
181120,note_on,,,,,81,0,1,,,,,0,,,44,127
181120,note_on,,,,,81,0,0,,,,,0,,,68,127
181120,note_on,,,,,0,0,0,,,,,0,,,80,127
181199,note_on,,,,,79,0,0,,,,,0,,,68,0
181199,note_on,,,,,0,0,0,,,,,0,,,80,0
181199,note_on,,,,,0,0,1,,,,,0,,,56,0
181199,note_on,,,,,79,0,1,,,,,0,,,44,0
181280,note_on,,,,,81,0,1,,,,,0,,,48,127
181280,note_on,,,,,0,0,0,,,,,0,,,84,127
181280,note_on,,,,,81,0,0,,,,,0,,,72,127
181280,note_on,,,,,0,0,1,,,,,0,,,60,127
181359,note_on,,,,,79,0,1,,,,,0,,,48,0
181359,note_on,,,,,0,0,1,,,,,0,,,60,0
181359,note_on,,,,,79,0,0,,,,,0,,,72,0
181359,note_on,,,,,0,0,0,,,,,0,,,84,0
181440,note_on,,,,,0,0,0,,,,,0,,,79,127
181440,note_on,,,,,0,0,0,,,,,0,,,87,0
181440,note_on,,,,,0,0,1,,,,,0,,,58,127
181440,note_on,,,,,0,0,1,,,,,0,,,63,0
181440,note_on,,,,,0,0,1,,,,,0,,,55,127
181440,note_on,,,,,0,0,1,,,,,0,,,63,127
181440,note_on,,,,,0,0,0,,,,,0,,,87,127
181440,note_on,,,,,0,0,0,,,,,0,,,87,127
181440,note_on,,,,,81,0,0,,,,,0,,,75,127
181440,note_on,,,,,81,0,1,,,,,0,,,51,127
181440,note_on,,,,,0,0,0,,,,,0,,,82,127
181440,note_on,,,,,0,0,1,,,,,0,,,63,127
181441,control_change,,,,,1,0,1,,,64,0,0,,,,
181442,control_change,,,,,1,0,1,,,64,127,0,,,,
181519,note_on,,,,,0,0,0,,,,,0,,,82,0
181519,note_on,,,,,0,0,1,,,,,0,,,55,0
181519,note_on,,,,,0,0,0,,,,,0,,,79,0
181519,note_on,,,,,79,0,0,,,,,0,,,75,0
181519,note_on,,,,,0,0,1,,,,,0,,,58,0
181519,note_on,,,,,77,0,1,,,,,0,,,51,0
181600,note_on,,,,,81,0,0,,,,,0,,,70,127
181600,note_on,,,,,81,0,1,,,,,0,,,46,127
181600,note_on,,,,,0,0,0,,,,,0,,,82,127
181600,note_on,,,,,0,0,1,,,,,0,,,58,127
181667,note_on,,,,,67,0,0,,,,,0,,,87,0
181667,note_on,,,,,67,0,1,,,,,0,,,63,0
181679,note_on,,,,,12,0,1,,,,,0,,,46,0
181679,note_on,,,,,0,0,1,,,,,0,,,58,0
181679,note_on,,,,,0,0,0,,,,,0,,,82,0
181679,note_on,,,,,12,0,0,,,,,0,,,70,0
181760,note_on,,,,,81,0,0,,,,,0,,,67,127
181760,note_on,,,,,81,0,1,,,,,0,,,43,127
181760,note_on,,,,,0,0,0,,,,,0,,,79,127
181760,note_on,,,,,0,0,1,,,,,0,,,55,127
181839,note_on,,,,,79,0,0,,,,,0,,,67,0
181839,note_on,,,,,0,0,1,,,,,0,,,55,0
181839,note_on,,,,,79,0,1,,,,,0,,,43,0
181839,note_on,,,,,0,0,0,,,,,0,,,79,0
181920,note_on,,,,,0,0,1,,,,,0,,,51,127
181920,note_on,,,,,0,0,0,,,,,0,,,75,127
181920,note_on,,,,,81,0,1,,,,,0,,,39,127
181920,note_on,,,,,81,0,0,,,,,0,,,63,127
181999,note_on,,,,,0,0,1,,,,,0,,,51,0
181999,note_on,,,,,0,0,0,,,,,0,,,75,0
181999,note_on,,,,,79,0,0,,,,,0,,,63,0
181999,note_on,,,,,79,0,1,,,,,0,,,39,0
182080,note_on,,,,,0,0,1,,,,,0,,,55,127
182080,note_on,,,,,0,0,0,,,,,0,,,79,127
182080,note_on,,,,,81,0,1,,,,,0,,,43,127
182080,note_on,,,,,81,0,0,,,,,0,,,67,127
182159,note_on,,,,,79,0,1,,,,,0,,,43,0
182159,note_on,,,,,0,0,1,,,,,0,,,55,0
182159,note_on,,,,,0,0,0,,,,,0,,,79,0
182159,note_on,,,,,79,0,0,,,,,0,,,67,0
182240,note_on,,,,,81,0,0,,,,,0,,,70,127
182240,note_on,,,,,0,0,0,,,,,0,,,82,127
182240,note_on,,,,,0,0,1,,,,,0,,,58,127
182240,note_on,,,,,81,0,1,,,,,0,,,46,127
182319,note_on,,,,,0,0,0,,,,,0,,,82,0
182319,note_on,,,,,79,0,0,,,,,0,,,70,0
182319,note_on,,,,,0,0,1,,,,,0,,,58,0
182319,note_on,,,,,79,0,1,,,,,0,,,46,0
182400,note_on,,,,,0,0,0,,,,,0,,,87,0
182400,note_on,,,,,0,0,0,,,,,0,,,80,127
182400,note_on,,,,,0,0,0,,,,,0,,,87,127
182400,note_on,,,,,0,0,1,,,,,0,,,59,127
182400,note_on,,,,,0,0,1,,,,,0,,,63,0
182400,note_on,,,,,0,0,1,,,,,0,,,63,127
182400,note_on,,,,,0,0,1,,,,,0,,,63,127
182400,note_on,,,,,0,0,1,,,,,0,,,56,127
182400,note_on,,,,,0,0,0,,,,,0,,,83,127
182400,note_on,,,,,0,0,0,,,,,0,,,87,127
182400,note_on,,,,,81,0,1,,,,,0,,,51,127
182400,note_on,,,,,81,0,0,,,,,0,,,75,127
182401,control_change,,,,,1,0,1,,,64,0,0,,,,
182402,control_change,,,,,1,0,1,,,64,127,0,,,,
182479,note_on,,,,,77,0,1,,,,,0,,,51,0
182479,note_on,,,,,79,0,0,,,,,0,,,75,0
182479,note_on,,,,,0,0,0,,,,,0,,,83,0
182479,note_on,,,,,0,0,0,,,,,0,,,80,0
182479,note_on,,,,,0,0,1,,,,,0,,,59,0
182479,note_on,,,,,0,0,1,,,,,0,,,56,0
182560,note_on,,,,,0,0,1,,,,,0,,,59,127
182560,note_on,,,,,81,0,0,,,,,0,,,71,127
182560,note_on,,,,,81,0,1,,,,,0,,,47,127
182560,note_on,,,,,0,0,0,,,,,0,,,83,127
182627,note_on,,,,,67,0,0,,,,,0,,,87,0
182627,note_on,,,,,67,0,1,,,,,0,,,63,0
182639,note_on,,,,,0,0,0,,,,,0,,,83,0
182639,note_on,,,,,0,0,1,,,,,0,,,59,0
182639,note_on,,,,,12,0,0,,,,,0,,,71,0
182639,note_on,,,,,12,0,1,,,,,0,,,47,0
182720,note_on,,,,,0,0,1,,,,,0,,,56,127
182720,note_on,,,,,0,0,0,,,,,0,,,80,127
182720,note_on,,,,,81,0,1,,,,,0,,,44,127
182720,note_on,,,,,81,0,0,,,,,0,,,68,127
182799,note_on,,,,,79,0,0,,,,,0,,,68,0
182799,note_on,,,,,0,0,0,,,,,0,,,80,0
182799,note_on,,,,,79,0,1,,,,,0,,,44,0
182799,note_on,,,,,0,0,1,,,,,0,,,56,0
182880,note_on,,,,,0,0,0,,,,,0,,,75,127
182880,note_on,,,,,81,0,1,,,,,0,,,39,127
182880,note_on,,,,,81,0,0,,,,,0,,,63,127
182880,note_on,,,,,0,0,1,,,,,0,,,51,127
182959,note_on,,,,,0,0,1,,,,,0,,,51,0
182959,note_on,,,,,79,0,0,,,,,0,,,63,0
182959,note_on,,,,,0,0,0,,,,,0,,,75,0
182959,note_on,,,,,79,0,1,,,,,0,,,39,0
183040,note_on,,,,,0,0,1,,,,,0,,,56,127
183040,note_on,,,,,81,0,0,,,,,0,,,68,127
183040,note_on,,,,,81,0,1,,,,,0,,,44,127
183040,note_on,,,,,0,0,0,,,,,0,,,80,127
183119,note_on,,,,,0,0,1,,,,,0,,,56,0
183119,note_on,,,,,0,0,0,,,,,0,,,80,0
183119,note_on,,,,,79,0,0,,,,,0,,,68,0
183119,note_on,,,,,79,0,1,,,,,0,,,44,0
183200,note_on,,,,,0,0,0,,,,,0,,,83,127
183200,note_on,,,,,0,0,1,,,,,0,,,59,127
183200,note_on,,,,,81,0,1,,,,,0,,,47,127
183200,note_on,,,,,81,0,0,,,,,0,,,71,127
183279,note_on,,,,,79,0,1,,,,,0,,,47,0
183279,note_on,,,,,0,0,1,,,,,0,,,59,0
183279,note_on,,,,,79,0,0,,,,,0,,,71,0
183279,note_on,,,,,0,0,0,,,,,0,,,83,0
183360,note_on,,,,,0,0,1,,,,,0,,,63,127
183360,note_on,,,,,0,0,0,,,,,0,,,87,127
183360,note_on,,,,,81,0,0,,,,,0,,,75,127
183360,note_on,,,,,81,0,1,,,,,0,,,51,127
183439,note_on,,,,,79,0,1,,,,,0,,,51,0
183439,note_on,,,,,79,0,0,,,,,0,,,75,0
183439,note_on,,,,,0,0,0,,,,,0,,,87,0
183439,note_on,,,,,0,0,1,,,,,0,,,63,0
183520,note_on,,,,,0,0,1,,,,,0,,,71,127
183520,note_on,,,,,81,0,1,,,,,0,,,59,127
183520,note_on,,,,,81,0,0,,,,,0,,,83,127
183520,note_on,,,,,0,0,0,,,,,0,,,95,127
183599,note_on,,,,,0,0,1,,,,,0,,,71,0
183599,note_on,,,,,79,0,0,,,,,0,,,83,0
183599,note_on,,,,,79,0,1,,,,,0,,,59,0
183599,note_on,,,,,0,0,0,,,,,0,,,95,0
183680,note_on,,,,,81,0,0,,,,,0,,,79,127
183680,note_on,,,,,81,0,1,,,,,0,,,55,127
183680,note_on,,,,,0,0,1,,,,,0,,,67,127
183680,note_on,,,,,0,0,0,,,,,0,,,91,127
183759,note_on,,,,,0,0,1,,,,,0,,,67,0
183759,note_on,,,,,79,0,1,,,,,0,,,55,0
183759,note_on,,,,,79,0,0,,,,,0,,,79,0
183759,note_on,,,,,0,0,0,,,,,0,,,91,0
183840,note_on,,,,,81,0,0,,,,,0,,,82,127
183840,note_on,,,,,81,0,1,,,,,0,,,58,127
183840,note_on,,,,,0,0,0,,,,,0,,,94,127
183840,note_on,,,,,0,0,1,,,,,0,,,70,127
183841,control_change,,,,,1,0,1,,,64,0,0,,,,
183919,note_on,,,,,0,0,0,,,,,0,,,94,0
183919,note_on,,,,,79,0,0,,,,,0,,,82,0
183919,note_on,,,,,78,0,1,,,,,0,,,58,0
183919,note_on,,,,,0,0,1,,,,,0,,,70,0
184000,note_on,,,,,0,0,0,,,,,0,,,92,127
184000,note_on,,,,,81,0,1,,,,,0,,,56,127
184000,note_on,,,,,0,0,1,,,,,0,,,68,127
184000,note_on,,,,,81,0,0,,,,,0,,,80,127
184079,note_on,,,,,0,0,1,,,,,0,,,68,0
184079,note_on,,,,,79,0,1,,,,,0,,,56,0
184079,note_on,,,,,79,0,0,,,,,0,,,80,0
184079,note_on,,,,,0,0,0,,,,,0,,,92,0
184160,note_on,,,,,0,0,1,,,,,0,,,65,127
184160,note_on,,,,,0,0,0,,,,,0,,,89,127
184160,note_on,,,,,81,0,0,,,,,0,,,77,127
184160,note_on,,,,,81,0,1,,,,,0,,,53,127
184239,note_on,,,,,0,0,0,,,,,0,,,89,0
184239,note_on,,,,,79,0,1,,,,,0,,,53,0
184239,note_on,,,,,0,0,1,,,,,0,,,65,0
184239,note_on,,,,,79,0,0,,,,,0,,,77,0
184320,note_on,,,,,0,0,0,,,,,0,,,90,127
184320,note_on,,,,,0,0,0,,,,,0,,,90,127
184320,note_on,,,,,0,0,0,,,,,0,,,83,127
184320,note_on,,,,,0,0,0,,,,,0,,,87,127
184320,note_on,,,,,0,0,1,,,,,0,,,66,127
184320,note_on,,,,,0,0,1,,,,,0,,,66,127
184320,note_on,,,,,0,0,1,,,,,0,,,66,0
184320,note_on,,,,,0,0,1,,,,,0,,,63,127
184320,note_on,,,,,0,0,1,,,,,0,,,59,127
184320,note_on,,,,,0,0,0,,,,,0,,,90,0
184320,note_on,,,,,81,0,0,,,,,0,,,78,127
184320,note_on,,,,,81,0,1,,,,,0,,,54,127
184322,control_change,,,,,2,0,1,,,64,127,0,,,,
184399,note_on,,,,,79,0,0,,,,,0,,,78,0
184399,note_on,,,,,77,0,1,,,,,0,,,54,0
184399,note_on,,,,,0,0,1,,,,,0,,,59,0
184399,note_on,,,,,0,0,1,,,,,0,,,63,0
184399,note_on,,,,,0,0,0,,,,,0,,,83,0
184399,note_on,,,,,0,0,0,,,,,0,,,87,0
184480,note_on,,,,,81,0,1,,,,,0,,,51,127
184480,note_on,,,,,0,0,0,,,,,0,,,87,127
184480,note_on,,,,,0,0,1,,,,,0,,,63,127
184480,note_on,,,,,81,0,0,,,,,0,,,75,127
184547,note_on,,,,,67,0,1,,,,,0,,,66,0
184547,note_on,,,,,67,0,0,,,,,0,,,90,0
184559,note_on,,,,,12,0,0,,,,,0,,,75,0
184559,note_on,,,,,0,0,0,,,,,0,,,87,0
184559,note_on,,,,,12,0,1,,,,,0,,,51,0
184559,note_on,,,,,0,0,1,,,,,0,,,63,0
184640,note_on,,,,,81,0,1,,,,,0,,,47,127
184640,note_on,,,,,0,0,0,,,,,0,,,83,127
184640,note_on,,,,,0,0,1,,,,,0,,,59,127
184640,note_on,,,,,81,0,0,,,,,0,,,71,127
184719,note_on,,,,,79,0,0,,,,,0,,,71,0
184719,note_on,,,,,0,0,1,,,,,0,,,59,0
184719,note_on,,,,,0,0,0,,,,,0,,,83,0
184719,note_on,,,,,79,0,1,,,,,0,,,47,0
184800,note_on,,,,,0,0,0,,,,,0,,,78,127
184800,note_on,,,,,81,0,1,,,,,0,,,42,127
184800,note_on,,,,,81,0,0,,,,,0,,,66,127
184800,note_on,,,,,0,0,1,,,,,0,,,54,127
184879,note_on,,,,,79,0,0,,,,,0,,,66,0
184879,note_on,,,,,0,0,0,,,,,0,,,78,0
184879,note_on,,,,,0,0,1,,,,,0,,,54,0
184879,note_on,,,,,79,0,1,,,,,0,,,42,0
184960,note_on,,,,,81,0,1,,,,,0,,,47,127
184960,note_on,,,,,81,0,0,,,,,0,,,71,127
184960,note_on,,,,,0,0,0,,,,,0,,,83,127
184960,note_on,,,,,0,0,1,,,,,0,,,59,127
185039,note_on,,,,,79,0,0,,,,,0,,,71,0
185039,note_on,,,,,0,0,1,,,,,0,,,59,0
185039,note_on,,,,,79,0,1,,,,,0,,,47,0
185039,note_on,,,,,0,0,0,,,,,0,,,83,0
185120,note_on,,,,,81,0,1,,,,,0,,,51,127
185120,note_on,,,,,81,0,0,,,,,0,,,75,127
185120,note_on,,,,,0,0,0,,,,,0,,,87,127
185120,note_on,,,,,0,0,1,,,,,0,,,63,127
185199,note_on,,,,,0,0,1,,,,,0,,,63,0
185199,note_on,,,,,79,0,1,,,,,0,,,51,0
185199,note_on,,,,,0,0,0,,,,,0,,,87,0
185199,note_on,,,,,79,0,0,,,,,0,,,75,0
185280,note_on,,,,,0,0,0,,,,,0,,,90,0
185280,note_on,,,,,0,0,0,,,,,0,,,90,127
185280,note_on,,,,,0,0,0,,,,,0,,,90,127
185280,note_on,,,,,81,0,1,,,,,0,,,54,127
185280,note_on,,,,,0,0,0,,,,,0,,,85,127
185280,note_on,,,,,0,0,1,,,,,0,,,66,0
185280,note_on,,,,,0,0,1,,,,,0,,,66,127
185280,note_on,,,,,0,0,1,,,,,0,,,66,127
185280,note_on,,,,,0,0,0,,,,,0,,,82,127
185280,note_on,,,,,81,0,0,,,,,0,,,78,127
185280,note_on,,,,,0,0,1,,,,,0,,,61,127
185280,note_on,,,,,0,0,1,,,,,0,,,58,127
185281,control_change,,,,,1,0,1,,,64,0,0,,,,
185282,control_change,,,,,1,0,1,,,64,127,0,,,,
185359,note_on,,,,,79,0,0,,,,,0,,,78,0
185359,note_on,,,,,0,0,0,,,,,0,,,82,0
185359,note_on,,,,,77,0,1,,,,,0,,,54,0
185359,note_on,,,,,0,0,1,,,,,0,,,58,0
185359,note_on,,,,,0,0,1,,,,,0,,,61,0
185359,note_on,,,,,0,0,0,,,,,0,,,85,0
185440,note_on,,,,,81,0,1,,,,,0,,,49,127
185440,note_on,,,,,81,0,0,,,,,0,,,73,127
185440,note_on,,,,,0,0,1,,,,,0,,,61,127
185440,note_on,,,,,0,0,0,,,,,0,,,85,127
185507,note_on,,,,,67,0,1,,,,,0,,,66,0
185507,note_on,,,,,67,0,0,,,,,0,,,90,0
185519,note_on,,,,,0,0,0,,,,,0,,,85,0
185519,note_on,,,,,12,0,0,,,,,0,,,73,0
185519,note_on,,,,,12,0,1,,,,,0,,,49,0
185519,note_on,,,,,0,0,1,,,,,0,,,61,0
185600,note_on,,,,,0,0,1,,,,,0,,,58,127
185600,note_on,,,,,81,0,1,,,,,0,,,46,127
185600,note_on,,,,,81,0,0,,,,,0,,,70,127
185600,note_on,,,,,0,0,0,,,,,0,,,82,127
185679,note_on,,,,,0,0,0,,,,,0,,,82,0
185679,note_on,,,,,0,0,1,,,,,0,,,58,0
185679,note_on,,,,,79,0,0,,,,,0,,,70,0
185679,note_on,,,,,79,0,1,,,,,0,,,46,0
185760,note_on,,,,,0,0,0,,,,,0,,,78,127
185760,note_on,,,,,0,0,1,,,,,0,,,54,127
185760,note_on,,,,,81,0,0,,,,,0,,,66,127
185760,note_on,,,,,81,0,1,,,,,0,,,42,127
185839,note_on,,,,,79,0,1,,,,,0,,,42,0
185839,note_on,,,,,79,0,0,,,,,0,,,66,0
185839,note_on,,,,,0,0,1,,,,,0,,,54,0
185839,note_on,,,,,0,0,0,,,,,0,,,78,0
185920,note_on,,,,,0,0,0,,,,,0,,,82,127
185920,note_on,,,,,0,0,1,,,,,0,,,58,127
185920,note_on,,,,,81,0,1,,,,,0,,,46,127
185920,note_on,,,,,81,0,0,,,,,0,,,70,127
185999,note_on,,,,,0,0,1,,,,,0,,,58,0
185999,note_on,,,,,0,0,0,,,,,0,,,82,0
185999,note_on,,,,,79,0,1,,,,,0,,,46,0
185999,note_on,,,,,79,0,0,,,,,0,,,70,0
186080,note_on,,,,,81,0,0,,,,,0,,,73,127
186080,note_on,,,,,81,0,1,,,,,0,,,49,127
186080,note_on,,,,,0,0,1,,,,,0,,,61,127
186080,note_on,,,,,0,0,0,,,,,0,,,85,127
186159,note_on,,,,,0,0,1,,,,,0,,,61,0
186159,note_on,,,,,79,0,0,,,,,0,,,73,0
186159,note_on,,,,,0,0,0,,,,,0,,,85,0
186159,note_on,,,,,79,0,1,,,,,0,,,49,0
186240,note_on,,,,,0,0,0,,,,,0,,,83,127
186240,note_on,,,,,81,0,1,,,,,0,,,54,127
186240,note_on,,,,,81,0,0,,,,,0,,,78,127
186240,note_on,,,,,0,0,1,,,,,0,,,66,127
186240,note_on,,,,,0,0,1,,,,,0,,,63,127
186240,note_on,,,,,0,0,0,,,,,0,,,90,127
186240,note_on,,,,,0,0,0,,,,,0,,,87,127
186240,note_on,,,,,0,0,1,,,,,0,,,59,127
186241,control_change,,,,,1,0,1,,,64,0,0,,,,
186242,control_change,,,,,1,0,1,,,64,127,0,,,,
186319,note_on,,,,,0,0,1,,,,,0,,,66,0
186319,note_on,,,,,0,0,1,,,,,0,,,63,0
186319,note_on,,,,,0,0,1,,,,,0,,,59,0
186319,note_on,,,,,0,0,0,,,,,0,,,83,0
186319,note_on,,,,,0,0,0,,,,,0,,,90,0
186319,note_on,,,,,0,0,0,,,,,0,,,87,0
186319,note_on,,,,,79,0,0,,,,,0,,,78,0
186319,note_on,,,,,77,0,1,,,,,0,,,54,0
186400,note_on,,,,,81,0,0,,,,,0,,,75,127
186400,note_on,,,,,0,0,0,,,,,0,,,87,127
186400,note_on,,,,,81,0,1,,,,,0,,,51,127
186400,note_on,,,,,0,0,1,,,,,0,,,63,127
186479,note_on,,,,,0,0,1,,,,,0,,,63,0
186479,note_on,,,,,79,0,0,,,,,0,,,75,0
186479,note_on,,,,,79,0,1,,,,,0,,,51,0
186479,note_on,,,,,0,0,0,,,,,0,,,87,0
186560,note_on,,,,,81,0,1,,,,,0,,,47,127
186560,note_on,,,,,0,0,1,,,,,0,,,59,127
186560,note_on,,,,,81,0,0,,,,,0,,,71,127
186560,note_on,,,,,0,0,0,,,,,0,,,83,127
186639,note_on,,,,,0,0,1,,,,,0,,,59,0
186639,note_on,,,,,79,0,0,,,,,0,,,71,0
186639,note_on,,,,,79,0,1,,,,,0,,,47,0
186639,note_on,,,,,0,0,0,,,,,0,,,83,0
186720,note_on,,,,,0,0,0,,,,,0,,,78,127
186720,note_on,,,,,0,0,1,,,,,0,,,54,127
186720,note_on,,,,,81,0,0,,,,,0,,,66,127
186720,note_on,,,,,81,0,1,,,,,0,,,42,127
186799,note_on,,,,,0,0,0,,,,,0,,,78,0
186799,note_on,,,,,79,0,1,,,,,0,,,42,0
186799,note_on,,,,,79,0,0,,,,,0,,,66,0
186799,note_on,,,,,0,0,1,,,,,0,,,54,0
186880,note_on,,,,,81,0,0,,,,,0,,,71,127
186880,note_on,,,,,0,0,1,,,,,0,,,59,127
186880,note_on,,,,,81,0,1,,,,,0,,,47,127
186880,note_on,,,,,0,0,0,,,,,0,,,83,127
186959,note_on,,,,,0,0,0,,,,,0,,,83,0
186959,note_on,,,,,79,0,0,,,,,0,,,71,0
186959,note_on,,,,,0,0,1,,,,,0,,,59,0
186959,note_on,,,,,79,0,1,,,,,0,,,47,0
187040,note_on,,,,,0,0,1,,,,,0,,,63,127
187040,note_on,,,,,0,0,0,,,,,0,,,87,127
187040,note_on,,,,,81,0,1,,,,,0,,,51,127
187040,note_on,,,,,81,0,0,,,,,0,,,75,127
187119,note_on,,,,,79,0,1,,,,,0,,,51,0
187119,note_on,,,,,0,0,1,,,,,0,,,63,0
187119,note_on,,,,,79,0,0,,,,,0,,,75,0
187119,note_on,,,,,0,0,0,,,,,0,,,87,0
187200,note_on,,,,,81,0,1,,,,,0,,,54,127
187200,note_on,,,,,81,0,0,,,,,0,,,78,127
187200,note_on,,,,,0,0,0,,,,,0,,,90,127
187200,note_on,,,,,0,0,1,,,,,0,,,66,127
187279,note_on,,,,,79,0,1,,,,,0,,,54,0
187279,note_on,,,,,79,0,0,,,,,0,,,78,0
187279,note_on,,,,,0,0,0,,,,,0,,,90,0
187279,note_on,,,,,0,0,1,,,,,0,,,66,0
187360,note_on,,,,,81,0,0,,,,,0,,,87,127
187360,note_on,,,,,0,0,1,,,,,0,,,75,127
187360,note_on,,,,,81,0,1,,,,,0,,,63,127
187360,note_on,,,,,0,0,0,,,,,0,,,99,127
187439,note_on,,,,,0,0,1,,,,,0,,,75,0
187439,note_on,,,,,0,0,0,,,,,0,,,99,0
187439,note_on,,,,,79,0,1,,,,,0,,,63,0
187439,note_on,,,,,79,0,0,,,,,0,,,87,0
187520,note_on,,,,,81,0,0,,,,,0,,,82,127
187520,note_on,,,,,0,0,1,,,,,0,,,70,127
187520,note_on,,,,,0,0,0,,,,,0,,,94,127
187520,note_on,,,,,81,0,1,,,,,0,,,58,127
187599,note_on,,,,,79,0,1,,,,,0,,,58,0
187599,note_on,,,,,79,0,0,,,,,0,,,82,0
187599,note_on,,,,,0,0,0,,,,,0,,,94,0
187599,note_on,,,,,0,0,1,,,,,0,,,70,0
187680,note_on,,,,,81,0,0,,,,,0,,,85,127
187680,note_on,,,,,0,0,0,,,,,0,,,97,127
187680,note_on,,,,,0,0,1,,,,,0,,,73,127
187680,note_on,,,,,81,0,1,,,,,0,,,61,127
187681,control_change,,,,,1,0,1,,,64,0,0,,,,
187759,note_on,,,,,79,0,0,,,,,0,,,85,0
187759,note_on,,,,,78,0,1,,,,,0,,,61,0
187759,note_on,,,,,0,0,1,,,,,0,,,73,0
187759,note_on,,,,,0,0,0,,,,,0,,,97,0
187840,note_on,,,,,81,0,1,,,,,0,,,59,127
187840,note_on,,,,,0,0,0,,,,,0,,,95,127
187840,note_on,,,,,0,0,1,,,,,0,,,71,127
187840,note_on,,,,,81,0,0,,,,,0,,,83,127
187919,note_on,,,,,79,0,0,,,,,0,,,83,0
187919,note_on,,,,,0,0,1,,,,,0,,,71,0
187919,note_on,,,,,0,0,0,,,,,0,,,95,0
187919,note_on,,,,,79,0,1,,,,,0,,,59,0
188000,note_on,,,,,81,0,0,,,,,0,,,80,127
188000,note_on,,,,,0,0,1,,,,,0,,,68,127
188000,note_on,,,,,0,0,0,,,,,0,,,92,127
188000,note_on,,,,,81,0,1,,,,,0,,,56,127
188079,note_on,,,,,0,0,1,,,,,0,,,68,0
188079,note_on,,,,,79,0,0,,,,,0,,,80,0
188079,note_on,,,,,0,0,0,,,,,0,,,92,0
188079,note_on,,,,,79,0,1,,,,,0,,,56,0
188160,note_on,,,,,0,0,1,,,,,0,,,59,127
188160,note_on,,,,,0,0,1,,,,,0,,,66,127
188160,note_on,,,,,0,0,0,,,,,0,,,87,127
188160,note_on,,,,,81,0,1,,,,,0,,,54,127
188160,note_on,,,,,0,0,0,,,,,0,,,83,127
188160,note_on,,,,,0,0,0,,,,,0,,,90,127
188160,note_on,,,,,81,0,0,,,,,0,,,78,127
188160,note_on,,,,,0,0,1,,,,,0,,,63,127
188162,control_change,,,,,2,0,1,,,64,127,0,,,,
188239,note_on,,,,,0,0,1,,,,,0,,,63,0
188239,note_on,,,,,0,0,1,,,,,0,,,66,0
188239,note_on,,,,,77,0,1,,,,,0,,,54,0
188239,note_on,,,,,0,0,0,,,,,0,,,90,0
188239,note_on,,,,,0,0,0,,,,,0,,,87,0
188239,note_on,,,,,0,0,0,,,,,0,,,83,0
188239,note_on,,,,,79,0,0,,,,,0,,,78,0
188239,note_on,,,,,0,0,1,,,,,0,,,59,0
188320,note_on,,,,,81,0,0,,,,,0,,,75,127
188320,note_on,,,,,0,0,1,,,,,0,,,63,127
188320,note_on,,,,,0,0,0,,,,,0,,,87,127
188320,note_on,,,,,81,0,1,,,,,0,,,51,127
188399,note_on,,,,,0,0,0,,,,,0,,,87,0
188399,note_on,,,,,79,0,1,,,,,0,,,51,0
188399,note_on,,,,,79,0,0,,,,,0,,,75,0
188399,note_on,,,,,0,0,1,,,,,0,,,63,0
188480,note_on,,,,,0,0,1,,,,,0,,,59,127
188480,note_on,,,,,0,0,0,,,,,0,,,83,127
188480,note_on,,,,,81,0,0,,,,,0,,,71,127
188480,note_on,,,,,81,0,1,,,,,0,,,47,127
188559,note_on,,,,,79,0,1,,,,,0,,,47,0
188559,note_on,,,,,79,0,0,,,,,0,,,71,0
188559,note_on,,,,,0,0,1,,,,,0,,,59,0
188559,note_on,,,,,0,0,0,,,,,0,,,83,0
188640,note_on,,,,,0,0,1,,,,,0,,,54,127
188640,note_on,,,,,81,0,0,,,,,0,,,66,127
188640,note_on,,,,,81,0,1,,,,,0,,,42,127
188640,note_on,,,,,0,0,0,,,,,0,,,78,127
188719,note_on,,,,,0,0,1,,,,,0,,,54,0
188719,note_on,,,,,79,0,0,,,,,0,,,66,0
188719,note_on,,,,,79,0,1,,,,,0,,,42,0
188719,note_on,,,,,0,0,0,,,,,0,,,78,0
188800,note_on,,,,,81,0,1,,,,,0,,,47,127
188800,note_on,,,,,0,0,0,,,,,0,,,83,127
188800,note_on,,,,,0,0,1,,,,,0,,,59,127
188800,note_on,,,,,81,0,0,,,,,0,,,71,127
188879,note_on,,,,,79,0,1,,,,,0,,,47,0
188879,note_on,,,,,79,0,0,,,,,0,,,71,0
188879,note_on,,,,,0,0,1,,,,,0,,,59,0
188879,note_on,,,,,0,0,0,,,,,0,,,83,0
188960,note_on,,,,,81,0,0,,,,,0,,,75,127
188960,note_on,,,,,0,0,0,,,,,0,,,87,127
188960,note_on,,,,,81,0,1,,,,,0,,,51,127
188960,note_on,,,,,0,0,1,,,,,0,,,63,127
189039,note_on,,,,,79,0,0,,,,,0,,,75,0
189039,note_on,,,,,79,0,1,,,,,0,,,51,0
189039,note_on,,,,,0,0,1,,,,,0,,,63,0
189039,note_on,,,,,0,0,0,,,,,0,,,87,0
189120,note_on,,,,,0,0,0,,,,,0,,,82,127
189120,note_on,,,,,81,0,1,,,,,0,,,54,127
189120,note_on,,,,,0,0,1,,,,,0,,,61,127
189120,note_on,,,,,0,0,1,,,,,0,,,58,127
189120,note_on,,,,,81,0,0,,,,,0,,,78,127
189120,note_on,,,,,0,0,0,,,,,0,,,90,127
189120,note_on,,,,,0,0,0,,,,,0,,,85,127
189120,note_on,,,,,0,0,1,,,,,0,,,66,127
189199,note_on,,,,,0,0,0,,,,,0,,,82,0
189199,note_on,,,,,0,0,0,,,,,0,,,85,0
189199,note_on,,,,,0,0,1,,,,,0,,,66,0
189199,note_on,,,,,0,0,1,,,,,0,,,61,0
189199,note_on,,,,,79,0,0,,,,,0,,,78,0
189199,note_on,,,,,79,0,1,,,,,0,,,54,0
189199,note_on,,,,,0,0,0,,,,,0,,,90,0
189199,note_on,,,,,0,0,1,,,,,0,,,58,0
189280,note_on,,,,,81,0,1,,,,,0,,,49,127
189280,note_on,,,,,81,0,0,,,,,0,,,73,127
189280,note_on,,,,,0,0,1,,,,,0,,,61,127
189280,note_on,,,,,0,0,0,,,,,0,,,85,127
189359,note_on,,,,,79,0,0,,,,,0,,,73,0
189359,note_on,,,,,79,0,1,,,,,0,,,49,0
189359,note_on,,,,,0,0,0,,,,,0,,,85,0
189359,note_on,,,,,0,0,1,,,,,0,,,61,0
189440,note_on,,,,,0,0,1,,,,,0,,,58,127
189440,note_on,,,,,81,0,1,,,,,0,,,46,127
189440,note_on,,,,,81,0,0,,,,,0,,,70,127
189440,note_on,,,,,0,0,0,,,,,0,,,82,127
189519,note_on,,,,,79,0,1,,,,,0,,,46,0
189519,note_on,,,,,0,0,1,,,,,0,,,58,0
189519,note_on,,,,,0,0,0,,,,,0,,,82,0
189519,note_on,,,,,79,0,0,,,,,0,,,70,0
189600,note_on,,,,,0,0,1,,,,,0,,,54,127
189600,note_on,,,,,0,0,0,,,,,0,,,78,127
189600,note_on,,,,,81,0,0,,,,,0,,,66,127
189600,note_on,,,,,81,0,1,,,,,0,,,42,127
189601,control_change,,,,,1,0,1,,,64,0,0,,,,
189679,note_on,,,,,0,0,1,,,,,0,,,54,0
189679,note_on,,,,,78,0,1,,,,,0,,,42,0
189679,note_on,,,,,79,0,0,,,,,0,,,66,0
189679,note_on,,,,,0,0,0,,,,,0,,,78,0
189760,note_on,,,,,0,0,0,,,,,0,,,82,127
189760,note_on,,,,,81,0,1,,,,,0,,,46,127
189760,note_on,,,,,81,0,0,,,,,0,,,70,127
189760,note_on,,,,,0,0,1,,,,,0,,,58,127
189839,note_on,,,,,79,0,0,,,,,0,,,70,0
189839,note_on,,,,,79,0,1,,,,,0,,,46,0
189839,note_on,,,,,0,0,1,,,,,0,,,58,0
189839,note_on,,,,,0,0,0,,,,,0,,,82,0
189920,note_on,,,,,81,0,0,,,,,0,,,73,127
189920,note_on,,,,,81,0,1,,,,,0,,,49,127
189920,note_on,,,,,0,0,1,,,,,0,,,61,127
189920,note_on,,,,,0,0,0,,,,,0,,,85,127
189999,note_on,,,,,79,0,1,,,,,0,,,49,0
189999,note_on,,,,,0,0,1,,,,,0,,,61,0
189999,note_on,,,,,79,0,0,,,,,0,,,73,0
189999,note_on,,,,,0,0,0,,,,,0,,,85,0
190080,note_on,,,,,0,0,1,,,,,0,,,66,112
190080,note_on,,,,,81,0,1,,,,,0,,,54,112
190080,note_on,,,,,0,0,1,,,,,0,,,60,112
190080,note_on,,,,,0,0,1,,,,,0,,,63,112
190080,set_tempo,,,,,81,1,0,,428572,,,,,,,
190080,note_on,,,,,0,0,0,,,,,0,,,78,112
190080,note_on,,,,,0,0,0,,,,,0,,,81,112
190080,note_on,,,,,0,0,0,,,,,0,,,90,112
190231,note_on,,,,,0,0,0,,,,,0,,,90,0
190231,note_on,,,,,0,0,1,,,,,0,,,66,0
190231,note_on,,,,,0,0,1,,,,,0,,,63,0
190231,note_on,,,,,0,0,1,,,,,0,,,60,0
190231,note_on,,,,,151,0,0,,,,,0,,,78,0
190231,note_on,,,,,151,0,1,,,,,0,,,54,0
190231,note_on,,,,,0,0,0,,,,,0,,,81,0
190240,note_on,,,,,0,0,0,,,,,0,,,87,112
190240,note_on,,,,,0,0,1,,,,,0,,,63,112
190240,note_on,,,,,9,0,0,,,,,0,,,75,112
190240,note_on,,,,,9,0,1,,,,,0,,,51,112
190391,note_on,,,,,151,0,1,,,,,0,,,51,0
190391,note_on,,,,,151,0,0,,,,,0,,,75,0
190391,note_on,,,,,0,0,1,,,,,0,,,63,0
190391,note_on,,,,,0,0,0,,,,,0,,,87,0
190400,note_on,,,,,9,0,1,,,,,0,,,48,112
190400,note_on,,,,,9,0,0,,,,,0,,,72,112
190400,note_on,,,,,0,0,1,,,,,0,,,60,112
190400,note_on,,,,,0,0,0,,,,,0,,,84,112
190551,note_on,,,,,151,0,1,,,,,0,,,48,0
190551,note_on,,,,,0,0,1,,,,,0,,,60,0
190551,note_on,,,,,0,0,0,,,,,0,,,84,0
190551,note_on,,,,,151,0,0,,,,,0,,,72,0
190560,note_on,,,,,9,0,0,,,,,0,,,69,112
190560,note_on,,,,,0,0,0,,,,,0,,,81,112
190560,note_on,,,,,9,0,1,,,,,0,,,45,112
190560,note_on,,,,,0,0,1,,,,,0,,,57,112
190711,note_on,,,,,151,0,0,,,,,0,,,69,0
190711,note_on,,,,,0,0,1,,,,,0,,,57,0
190711,note_on,,,,,151,0,1,,,,,0,,,45,0
190711,note_on,,,,,0,0,0,,,,,0,,,81,0
190720,note_on,,,,,0,0,0,,,,,0,,,78,112
190720,note_on,,,,,9,0,1,,,,,0,,,42,112
190720,note_on,,,,,0,0,1,,,,,0,,,54,112
190720,note_on,,,,,9,0,0,,,,,0,,,66,112
190871,note_on,,,,,0,0,1,,,,,0,,,54,0
190871,note_on,,,,,151,0,1,,,,,0,,,42,0
190871,note_on,,,,,151,0,0,,,,,0,,,66,0
190871,note_on,,,,,0,0,0,,,,,0,,,78,0
190880,note_on,,,,,9,0,1,,,,,0,,,39,112
190880,note_on,,,,,9,0,0,,,,,0,,,63,112
190880,note_on,,,,,0,0,1,,,,,0,,,51,112
190880,note_on,,,,,0,0,0,,,,,0,,,75,112
191031,note_on,,,,,0,0,1,,,,,0,,,51,0
191031,note_on,,,,,0,0,0,,,,,0,,,75,0
191031,note_on,,,,,151,0,0,,,,,0,,,63,0
191031,note_on,,,,,151,0,1,,,,,0,,,39,0
191040,note_on,,,,,9,0,0,,,,,0,,,60,112
191040,note_on,,,,,9,0,1,,,,,0,,,36,112
191040,note_on,,,,,0,0,1,,,,,0,,,48,112
191040,note_on,,,,,0,0,0,,,,,0,,,72,112
191191,note_on,,,,,0,0,0,,,,,0,,,72,0
191191,note_on,,,,,151,0,1,,,,,0,,,36,0
191191,note_on,,,,,151,0,0,,,,,0,,,60,0
191191,note_on,,,,,0,0,1,,,,,0,,,48,0
191200,note_on,,,,,9,0,1,,,,,0,,,33,112
191200,note_on,,,,,9,0,0,,,,,0,,,57,112
191200,note_on,,,,,0,0,1,,,,,0,,,45,112
191200,note_on,,,,,0,0,0,,,,,0,,,69,112
191351,note_on,,,,,0,0,0,,,,,0,,,69,0
191351,note_on,,,,,151,0,0,,,,,0,,,57,0
191351,note_on,,,,,0,0,1,,,,,0,,,45,0
191351,note_on,,,,,151,0,1,,,,,0,,,33,0
191360,note_on,,,,,0,0,0,,,,,0,,,66,112
191360,note_on,,,,,9,0,0,,,,,0,,,54,112
191360,note_on,,,,,9,0,1,,,,,0,,,42,112
191511,note_on,,,,,0,0,0,,,,,0,,,66,0
191511,note_on,,,,,151,0,0,,,,,0,,,54,0
191511,note_on,,,,,151,0,1,,,,,0,,,42,0
191520,note_on,,,,,0,0,1,,,,,0,,,51,112
191520,note_on,,,,,9,0,1,,,,,0,,,39,112
191520,note_on,,,,,9,0,0,,,,,0,,,63,112
191671,note_on,,,,,151,0,1,,,,,0,,,39,0
191671,note_on,,,,,151,0,0,,,,,0,,,63,0
191671,note_on,,,,,0,0,1,,,,,0,,,51,0
191680,note_on,,,,,9,0,0,,,,,0,,,60,112
191680,note_on,,,,,9,0,1,,,,,0,,,36,112
191680,note_on,,,,,0,0,1,,,,,0,,,48,112
191831,note_on,,,,,151,0,1,,,,,0,,,36,0
191831,note_on,,,,,0,0,1,,,,,0,,,48,0
191831,note_on,,,,,151,0,0,,,,,0,,,60,0
191840,note_on,,,,,0,0,1,,,,,0,,,51,112
191840,note_on,,,,,9,0,1,,,,,0,,,39,112
191840,note_on,,,,,9,0,0,,,,,0,,,63,112
191991,note_on,,,,,0,0,1,,,,,0,,,51,0
191991,note_on,,,,,151,0,0,,,,,0,,,63,0
191991,note_on,,,,,151,0,1,,,,,0,,,39,0
192000,note_on,,,,,0,0,0,,,,,0,,,66,112
192000,set_tempo,,,,,9,1,0,,375000,,,,,,,
192000,note_on,,,,,9,0,1,,,,,0,,,42,112
192000,note_on,,,,,0,0,1,,,,,0,,,54,112
192151,note_on,,,,,151,0,0,,,,,0,,,66,0
192151,note_on,,,,,151,0,1,,,,,0,,,42,0
192151,note_on,,,,,0,0,1,,,,,0,,,54,0
192160,note_on,,,,,9,0,1,,,,,0,,,45,112
192160,note_on,,,,,9,0,0,,,,,0,,,69,112
192160,note_on,,,,,0,0,1,,,,,0,,,57,112
192311,note_on,,,,,151,0,1,,,,,0,,,45,0
192311,note_on,,,,,0,0,1,,,,,0,,,57,0
192311,note_on,,,,,151,0,0,,,,,0,,,69,0
192320,note_on,,,,,9,0,1,,,,,0,,,48,112
192320,note_on,,,,,0,0,0,,,,,0,,,72,112
192320,note_on,,,,,9,0,0,,,,,0,,,60,112
192471,note_on,,,,,151,0,0,,,,,0,,,60,0
192471,note_on,,,,,0,0,0,,,,,0,,,72,0
192471,note_on,,,,,151,0,1,,,,,0,,,48,0
192480,note_on,,,,,9,0,1,,,,,0,,,51,112
192480,note_on,,,,,9,0,0,,,,,0,,,63,112
192480,note_on,,,,,0,0,0,,,,,0,,,75,112
192631,note_on,,,,,151,0,1,,,,,0,,,51,0
192631,note_on,,,,,0,0,0,,,,,0,,,75,0
192631,note_on,,,,,151,0,0,,,,,0,,,63,0
192640,note_on,,,,,0,0,0,,,,,0,,,78,112
192640,note_on,,,,,9,0,0,,,,,0,,,66,112
192640,note_on,,,,,9,0,1,,,,,0,,,54,112
192791,note_on,,,,,151,0,0,,,,,0,,,66,0
192791,note_on,,,,,151,0,1,,,,,0,,,54,0
192791,note_on,,,,,0,0,0,,,,,0,,,78,0
192800,note_on,,,,,0,0,0,,,,,0,,,81,112
192800,note_on,,,,,9,0,0,,,,,0,,,69,112
192800,note_on,,,,,9,0,1,,,,,0,,,57,112
192951,note_on,,,,,151,0,0,,,,,0,,,69,0
192951,note_on,,,,,0,0,0,,,,,0,,,81,0
192951,note_on,,,,,151,0,1,,,,,0,,,57,0
192960,note_on,,,,,9,0,0,,,,,0,,,72,112
192960,note_on,,,,,9,0,1,,,,,0,,,48,112
192960,note_on,,,,,0,0,1,,,,,0,,,60,112
192960,note_on,,,,,0,0,0,,,,,0,,,84,112
193111,note_on,,,,,0,0,1,,,,,0,,,60,0
193111,note_on,,,,,0,0,0,,,,,0,,,84,0
193111,note_on,,,,,151,0,1,,,,,0,,,48,0
193111,note_on,,,,,151,0,0,,,,,0,,,72,0
193120,note_on,,,,,0,0,1,,,,,0,,,63,112
193120,note_on,,,,,9,0,1,,,,,0,,,51,112
193120,note_on,,,,,0,0,0,,,,,0,,,87,112
193120,note_on,,,,,9,0,0,,,,,0,,,75,112
193271,note_on,,,,,151,0,0,,,,,0,,,75,0
193271,note_on,,,,,151,0,1,,,,,0,,,51,0
193271,note_on,,,,,0,0,1,,,,,0,,,63,0
193271,note_on,,,,,0,0,0,,,,,0,,,87,0
193280,note_on,,,,,0,0,1,,,,,0,,,66,112
193280,note_on,,,,,0,0,0,,,,,0,,,90,112
193280,note_on,,,,,9,0,0,,,,,0,,,78,112
193280,note_on,,,,,9,0,1,,,,,0,,,54,112
193431,note_on,,,,,151,0,0,,,,,0,,,78,0
193431,note_on,,,,,0,0,0,,,,,0,,,90,0
193431,note_on,,,,,0,0,1,,,,,0,,,66,0
193431,note_on,,,,,151,0,1,,,,,0,,,54,0
193440,note_on,,,,,0,0,0,,,,,0,,,93,112
193440,note_on,,,,,9,0,1,,,,,0,,,57,112
193440,note_on,,,,,9,0,0,,,,,0,,,81,112
193440,note_on,,,,,0,0,1,,,,,0,,,69,112
193591,note_on,,,,,151,0,0,,,,,0,,,81,0
193591,note_on,,,,,0,0,0,,,,,0,,,93,0
193591,note_on,,,,,0,0,1,,,,,0,,,69,0
193591,note_on,,,,,151,0,1,,,,,0,,,57,0
193600,note_on,,,,,9,0,1,,,,,0,,,58,112
193600,note_on,,,,,9,0,0,,,,,0,,,82,112
193600,note_on,,,,,0,0,1,,,,,0,,,70,112
193600,note_on,,,,,0,0,0,,,,,0,,,94,112
193751,note_on,,,,,151,0,1,,,,,0,,,58,0
193751,note_on,,,,,0,0,0,,,,,0,,,94,0
193751,note_on,,,,,151,0,0,,,,,0,,,82,0
193751,note_on,,,,,0,0,1,,,,,0,,,70,0
193760,note_on,,,,,9,0,1,,,,,0,,,59,112
193760,note_on,,,,,9,0,0,,,,,0,,,83,112
193760,note_on,,,,,0,0,1,,,,,0,,,71,112
193760,note_on,,,,,0,0,0,,,,,0,,,95,112
193911,note_on,,,,,151,0,0,,,,,0,,,83,0
193911,note_on,,,,,0,0,1,,,,,0,,,71,0
193911,note_on,,,,,151,0,1,,,,,0,,,59,0
193911,note_on,,,,,0,0,0,,,,,0,,,95,0
193920,note_on,,,,,0,0,0,,,,,0,,,84,112
193920,note_on,,,,,0,0,0,,,,,0,,,96,112
193920,set_tempo,,,,,9,1,0,,333333,,,,,,,
193920,note_on,,,,,0,0,1,,,,,0,,,72,112
193920,note_on,,,,,9,0,1,,,,,0,,,60,112
194071,note_on,,,,,151,0,1,,,,,0,,,60,0
194071,note_on,,,,,0,0,1,,,,,0,,,72,0
194071,note_on,,,,,0,0,0,,,,,0,,,96,0
194071,note_on,,,,,151,0,0,,,,,0,,,84,0
194080,note_on,,,,,0,0,1,,,,,0,,,73,114
194080,note_on,,,,,9,0,0,,,,,0,,,85,114
194080,note_on,,,,,0,0,0,,,,,0,,,97,114
194080,note_on,,,,,9,0,1,,,,,0,,,61,114
194231,note_on,,,,,0,0,0,,,,,0,,,97,0
194231,note_on,,,,,151,0,1,,,,,0,,,61,0
194231,note_on,,,,,151,0,0,,,,,0,,,85,0
194231,note_on,,,,,0,0,1,,,,,0,,,73,0
194240,note_on,,,,,0,0,0,,,,,0,,,98,117
194240,note_on,,,,,0,0,1,,,,,0,,,74,117
194240,note_on,,,,,9,0,1,,,,,0,,,62,117
194240,note_on,,,,,9,0,0,,,,,0,,,86,117
194391,note_on,,,,,0,0,0,,,,,0,,,98,0
194391,note_on,,,,,151,0,0,,,,,0,,,86,0
194391,note_on,,,,,151,0,1,,,,,0,,,62,0
194391,note_on,,,,,0,0,1,,,,,0,,,74,0
194400,note_on,,,,,9,0,0,,,,,0,,,87,119
194400,note_on,,,,,0,0,1,,,,,0,,,75,119
194400,note_on,,,,,0,0,0,,,,,0,,,99,119
194400,note_on,,,,,9,0,1,,,,,0,,,63,119
194551,note_on,,,,,151,0,0,,,,,0,,,87,0
194551,note_on,,,,,151,0,1,,,,,0,,,63,0
194551,note_on,,,,,0,0,1,,,,,0,,,75,0
194551,note_on,,,,,0,0,0,,,,,0,,,99,0
194560,note_on,,,,,0,0,1,,,,,0,,,76,122
194560,note_on,,,,,9,0,0,,,,,0,,,88,122
194560,note_on,,,,,9,0,1,,,,,0,,,64,122
194560,note_on,,,,,0,0,0,,,,,0,,,100,122
194711,note_on,,,,,151,0,1,,,,,0,,,64,0
194711,note_on,,,,,0,0,1,,,,,0,,,76,0
194711,note_on,,,,,151,0,0,,,,,0,,,88,0
194711,note_on,,,,,0,0,0,,,,,0,,,100,0
194720,note_on,,,,,9,0,1,,,,,0,,,65,124
194720,note_on,,,,,9,0,0,,,,,0,,,89,124
194720,note_on,,,,,0,0,0,,,,,0,,,101,124
194720,note_on,,,,,0,0,1,,,,,0,,,77,124
194871,note_on,,,,,0,0,0,,,,,0,,,101,0
194871,note_on,,,,,0,0,1,,,,,0,,,77,0
194871,note_on,,,,,151,0,0,,,,,0,,,89,0
194871,note_on,,,,,151,0,1,,,,,0,,,65,0
194880,note_on,,,,,0,0,0,,,,,0,,,102,127
194880,note_on,,,,,9,0,1,,,,,0,,,66,127
194880,note_on,,,,,0,0,1,,,,,0,,,78,127
194880,note_on,,,,,9,0,0,,,,,0,,,90,127
195107,note_on,,,,,0,0,0,,,,,0,,,102,0
195107,note_on,,,,,227,0,0,,,,,0,,,90,0
195107,note_on,,,,,0,0,1,,,,,0,,,78,0
195107,note_on,,,,,227,0,1,,,,,0,,,66,0
195360,set_tempo,,,,,253,1,0,,1000000,,,,,,,
195839,set_tempo,,,,,479,1,0,,333333,,,,,,,
195840,set_tempo,,,,,1,1,0,,545456,,,,,,,
197160,note_on,,,,,2053,0,1,,,,,0,,,45,80
197198,note_on,,,,,38,0,1,,,,,0,,,45,0
197280,note_on,,,,,82,0,1,,,,,0,,,47,80
197358,note_on,,,,,78,0,1,,,,,0,,,47,0
197640,note_on,,,,,282,0,1,,,,,0,,,48,80
197678,note_on,,,,,38,0,1,,,,,0,,,48,0
197760,note_on,,,,,82,0,1,,,,,0,,,49,80
198240,note_on,,,,,480,0,1,,,,,0,,,37,80
198240,note_on,,,,,0,0,0,,,,,0,,,69,70
198240,note_on,,,,,0,0,0,,,,,0,,,66,70
198240,note_on,,,,,2400,0,0,,,,,0,,,57,70
198318,note_on,,,,,0,0,0,,,,,0,,,69,0
198318,note_on,,,,,78,0,0,,,,,0,,,57,0
198318,note_on,,,,,78,0,1,,,,,0,,,37,0
198318,note_on,,,,,0,0,0,,,,,0,,,66,0
198719,note_on,,,,,401,0,1,,,,,0,,,49,0
198720,note_on,,,,,1,0,1,,,,,0,,,49,80
199200,note_on,,,,,480,0,1,,,,,0,,,37,80
199200,note_on,,,,,0,0,0,,,,,0,,,65,70
199200,note_on,,,,,0,0,0,,,,,0,,,68,70
199200,note_on,,,,,882,0,0,,,,,0,,,59,70
199278,note_on,,,,,78,0,0,,,,,0,,,59,0
199278,note_on,,,,,0,0,0,,,,,0,,,68,0
199278,note_on,,,,,78,0,1,,,,,0,,,37,0
199278,note_on,,,,,0,0,0,,,,,0,,,65,0
199679,note_on,,,,,401,0,1,,,,,0,,,49,0
199680,note_on,,,,,1,0,1,,,,,0,,,49,80
200160,note_on,,,,,0,0,0,,,,,0,,,66,70
200160,note_on,,,,,882,0,0,,,,,0,,,57,70
200160,note_on,,,,,480,0,1,,,,,0,,,42,80
200160,note_on,,,,,0,0,0,,,,,0,,,69,70
200238,note_on,,,,,78,0,1,,,,,0,,,42,0
200238,note_on,,,,,78,0,0,,,,,0,,,57,0
200238,note_on,,,,,0,0,0,,,,,0,,,66,0
200238,note_on,,,,,0,0,0,,,,,0,,,69,0
200867,note_on,,,,,629,0,1,,,,,0,,,49,0
201000,note_on,,,,,133,0,1,,,,,0,,,49,80
201038,note_on,,,,,38,0,1,,,,,0,,,49,0
201120,note_on,,,,,82,0,1,,,,,0,,,48,80
201198,note_on,,,,,78,0,1,,,,,0,,,48,0
201480,note_on,,,,,282,0,1,,,,,0,,,47,80
201518,note_on,,,,,38,0,1,,,,,0,,,47,0
201600,note_on,,,,,82,0,1,,,,,0,,,46,80
202080,note_on,,,,,0,0,0,,,,,0,,,70,70
202080,note_on,,,,,0,0,0,,,,,0,,,67,70
202080,note_on,,,,,0,0,0,,,,,0,,,63,70
202080,note_on,,,,,480,0,1,,,,,0,,,34,80
202080,note_on,,,,,1842,0,0,,,,,0,,,58,70
202158,note_on,,,,,78,0,0,,,,,0,,,58,0
202158,note_on,,,,,78,0,1,,,,,0,,,34,0
202158,note_on,,,,,0,0,0,,,,,0,,,67,0
202158,note_on,,,,,0,0,0,,,,,0,,,70,0
202158,note_on,,,,,0,0,0,,,,,0,,,63,0
202559,note_on,,,,,401,0,1,,,,,0,,,46,0
202560,note_on,,,,,1,0,1,,,,,0,,,46,80
203040,note_on,,,,,0,0,0,,,,,0,,,68,70
203040,note_on,,,,,0,0,0,,,,,0,,,70,70
203040,note_on,,,,,882,0,0,,,,,0,,,58,70
203040,note_on,,,,,0,0,0,,,,,0,,,62,70
203040,note_on,,,,,480,0,1,,,,,0,,,34,80
203118,note_on,,,,,78,0,0,,,,,0,,,58,0
203118,note_on,,,,,78,0,1,,,,,0,,,34,0
203118,note_on,,,,,0,0,0,,,,,0,,,70,0
203118,note_on,,,,,0,0,0,,,,,0,,,62,0
203118,note_on,,,,,0,0,0,,,,,0,,,68,0
203519,note_on,,,,,401,0,1,,,,,0,,,46,0
203520,note_on,,,,,1,0,1,,,,,0,,,46,80
204000,note_on,,,,,882,0,0,,,,,0,,,58,70
204000,note_on,,,,,0,0,0,,,,,0,,,67,70
204000,note_on,,,,,480,0,1,,,,,0,,,39,80
204000,note_on,,,,,0,0,0,,,,,0,,,63,70
204000,note_on,,,,,0,0,0,,,,,0,,,70,70
204078,note_on,,,,,0,0,0,,,,,0,,,63,0
204078,note_on,,,,,78,0,0,,,,,0,,,58,0
204078,note_on,,,,,0,0,0,,,,,0,,,70,0
204078,note_on,,,,,78,0,1,,,,,0,,,39,0
204078,note_on,,,,,0,0,0,,,,,0,,,67,0
204707,note_on,,,,,629,0,1,,,,,0,,,46,0
204840,note_on,,,,,762,0,0,,,,,0,,,58,80
204840,note_on,,,,,0,0,1,,,,,0,,,46,80
204840,note_on,,,,,133,0,1,,,,,0,,,34,80
204953,note_on,,,,,113,0,1,,,,,0,,,34,0
204953,note_on,,,,,113,0,0,,,,,0,,,58,0
204953,note_on,,,,,0,0,1,,,,,0,,,46,0
204960,note_on,,,,,0,0,1,,,,,0,,,47,83
204960,note_on,,,,,7,0,0,,,,,0,,,59,83
204960,note_on,,,,,7,0,1,,,,,0,,,35,83
205187,note_on,,,,,0,0,1,,,,,0,,,47,0
205187,note_on,,,,,227,0,0,,,,,0,,,59,0
205187,note_on,,,,,227,0,1,,,,,0,,,35,0
205320,note_on,,,,,0,0,1,,,,,0,,,48,92
205320,note_on,,,,,133,0,1,,,,,0,,,36,92
205320,note_on,,,,,133,0,0,,,,,0,,,60,92
205433,note_on,,,,,113,0,0,,,,,0,,,60,0
205433,note_on,,,,,0,0,1,,,,,0,,,48,0
205433,note_on,,,,,113,0,1,,,,,0,,,36,0
205440,note_on,,,,,7,0,1,,,,,0,,,37,96
205440,note_on,,,,,0,0,1,,,,,0,,,49,96
205440,note_on,,,,,7,0,0,,,,,0,,,61,96
205920,note_on,,,,,480,0,1,,,,,0,,,57,96
205920,note_on,,,,,0,0,0,,,,,0,,,85,96
205920,note_on,,,,,0,0,0,,,,,0,,,81,96
205920,note_on,,,,,0,0,0,,,,,0,,,78,96
205920,note_on,,,,,480,0,0,,,,,0,,,73,96
205920,note_on,,,,,0,0,0,,,,,0,,,61,0
205920,note_on,,,,,0,0,1,,,,,0,,,61,96
205920,note_on,,,,,0,0,1,,,,,0,,,69,96
205920,note_on,,,,,0,0,1,,,,,0,,,66,96
205998,note_on,,,,,0,0,1,,,,,0,,,66,0
205998,note_on,,,,,0,0,0,,,,,0,,,85,0
205998,note_on,,,,,0,0,0,,,,,0,,,81,0
205998,note_on,,,,,0,0,0,,,,,0,,,78,0
205998,note_on,,,,,0,0,1,,,,,0,,,69,0
205998,note_on,,,,,78,0,0,,,,,0,,,73,0
205998,note_on,,,,,78,0,1,,,,,0,,,57,0
206351,note_on,,,,,0,0,1,,,,,0,,,49,0
206351,note_on,,,,,0,0,1,,,,,0,,,37,0
206351,note_on,,,,,353,0,1,,,,,0,,,61,0
206400,set_tempo,,,,,402,1,0,,681819,,,,,,,
206400,note_on,,,,,0,0,1,,,,,0,,,49,96
206400,note_on,,,,,49,0,1,,,,,0,,,37,96
206400,note_on,,,,,0,0,0,,,,,0,,,61,96
206880,note_on,,,,,0,0,1,,,,,0,,,65,96
206880,note_on,,,,,0,0,0,,,,,0,,,80,96
206880,note_on,,,,,0,0,0,,,,,0,,,77,96
206880,note_on,,,,,0,0,1,,,,,0,,,68,96
206880,note_on,,,,,0,0,0,,,,,0,,,61,0
206880,note_on,,,,,0,0,0,,,,,0,,,73,96
206880,set_tempo,,,,,480,1,0,,852274,,,,,,,
206880,note_on,,,,,480,0,1,,,,,0,,,56,96
206880,note_on,,,,,0,0,1,,,,,0,,,61,96
206880,note_on,,,,,0,0,0,,,,,0,,,85,96
206958,note_on,,,,,0,0,0,,,,,0,,,85,0
206958,note_on,,,,,78,0,0,,,,,0,,,73,0
206958,note_on,,,,,0,0,0,,,,,0,,,80,0
206958,note_on,,,,,0,0,0,,,,,0,,,77,0
206958,note_on,,,,,0,0,1,,,,,0,,,65,0
206958,note_on,,,,,78,0,1,,,,,0,,,56,0
206958,note_on,,,,,0,0,1,,,,,0,,,68,0
207119,set_tempo,,,,,161,1,0,,681819,,,,,,,
207197,note_on,,,,,239,0,1,,,,,0,,,61,0
207239,set_tempo,,,,,120,1,0,,545456,,,,,,,
207239,note_on,,,,,0,0,1,,,,,0,,,49,0
207239,note_on,,,,,42,0,1,,,,,0,,,37,0
207240,note_on,,,,,0,0,1,,,,,0,,,49,96
207240,note_on,,,,,1,0,0,,,,,0,,,61,96
207240,note_on,,,,,1,0,1,,,,,0,,,37,96
207353,note_on,,,,,113,0,1,,,,,0,,,37,0
207353,note_on,,,,,113,0,0,,,,,0,,,61,0
207353,note_on,,,,,0,0,1,,,,,0,,,49,0
207360,note_on,,,,,0,0,1,,,,,0,,,54,96
207360,note_on,,,,,7,0,1,,,,,0,,,42,96
207360,note_on,,,,,7,0,0,,,,,0,,,66,96
207840,note_on,,,,,0,0,0,,,,,0,,,81,96
207840,note_on,,,,,480,0,1,,,,,0,,,57,96
207840,note_on,,,,,0,0,1,,,,,0,,,69,96
207840,note_on,,,,,480,0,0,,,,,0,,,78,96
207840,note_on,,,,,0,0,1,,,,,0,,,61,96
207840,note_on,,,,,0,0,1,,,,,0,,,66,96
207840,note_on,,,,,0,0,0,,,,,0,,,66,0
207840,note_on,,,,,0,0,0,,,,,0,,,90,96
207840,note_on,,,,,0,0,0,,,,,0,,,85,96
207918,note_on,,,,,0,0,1,,,,,0,,,61,0
207918,note_on,,,,,78,0,1,,,,,0,,,57,0
207918,note_on,,,,,0,0,0,,,,,0,,,85,0
207918,note_on,,,,,0,0,0,,,,,0,,,81,0
207918,note_on,,,,,0,0,0,,,,,0,,,90,0
207918,note_on,,,,,78,0,0,,,,,0,,,78,0
207918,note_on,,,,,0,0,1,,,,,0,,,69,0
208385,note_on,,,,,0,0,1,,,,,0,,,42,0
208385,note_on,,,,,0,0,1,,,,,0,,,54,0
208385,note_on,,,,,467,0,1,,,,,0,,,66,0
208440,note_on,,,,,522,0,0,,,,,0,,,65,96
208440,note_on,,,,,0,0,1,,,,,0,,,53,96
208440,note_on,,,,,55,0,1,,,,,0,,,41,96
208553,note_on,,,,,0,0,1,,,,,0,,,53,0
208553,note_on,,,,,113,0,1,,,,,0,,,41,0
208553,note_on,,,,,113,0,0,,,,,0,,,65,0
208560,note_on,,,,,7,0,1,,,,,0,,,40,96
208560,note_on,,,,,0,0,1,,,,,0,,,52,96
208560,note_on,,,,,7,0,0,,,,,0,,,64,96
208673,note_on,,,,,113,0,1,,,,,0,,,40,0
208673,note_on,,,,,0,0,1,,,,,0,,,52,0
208673,note_on,,,,,113,0,0,,,,,0,,,64,0
208680,note_on,,,,,0,0,1,,,,,0,,,51,96
208680,note_on,,,,,7,0,1,,,,,0,,,39,96
208680,note_on,,,,,7,0,0,,,,,0,,,63,96
208793,note_on,,,,,113,0,0,,,,,0,,,63,0
208793,note_on,,,,,0,0,1,,,,,0,,,51,0
208793,note_on,,,,,113,0,1,,,,,0,,,39,0
208800,note_on,,,,,0,0,1,,,,,0,,,50,96
208800,note_on,,,,,7,0,0,,,,,0,,,62,96
208800,note_on,,,,,7,0,1,,,,,0,,,38,96
208913,note_on,,,,,113,0,0,,,,,0,,,62,0
208913,note_on,,,,,113,0,1,,,,,0,,,38,0
208913,note_on,,,,,0,0,1,,,,,0,,,50,0
208920,note_on,,,,,7,0,1,,,,,0,,,37,96
208920,note_on,,,,,7,0,0,,,,,0,,,61,96
208920,note_on,,,,,0,0,1,,,,,0,,,49,96
209033,note_on,,,,,113,0,0,,,,,0,,,61,0
209033,note_on,,,,,113,0,1,,,,,0,,,37,0
209033,note_on,,,,,0,0,1,,,,,0,,,49,0
209040,note_on,,,,,0,0,1,,,,,0,,,48,96
209040,note_on,,,,,7,0,1,,,,,0,,,36,96
209040,note_on,,,,,7,0,0,,,,,0,,,60,96
209153,note_on,,,,,0,0,1,,,,,0,,,48,0
209153,note_on,,,,,113,0,1,,,,,0,,,36,0
209153,note_on,,,,,113,0,0,,,,,0,,,60,0
209160,note_on,,,,,0,0,1,,,,,0,,,47,96
209160,note_on,,,,,7,0,1,,,,,0,,,35,96
209160,note_on,,,,,7,0,0,,,,,0,,,59,96
209273,note_on,,,,,0,0,1,,,,,0,,,47,0
209273,note_on,,,,,113,0,1,,,,,0,,,35,0
209273,note_on,,,,,113,0,0,,,,,0,,,59,0
209280,note_on,,,,,0,0,1,,,,,0,,,46,96
209280,note_on,,,,,7,0,0,,,,,0,,,58,96
209280,note_on,,,,,7,0,1,,,,,0,,,34,96
209760,note_on,,,,,0,0,1,,,,,0,,,67,96
209760,note_on,,,,,0,0,0,,,,,0,,,87,96
209760,note_on,,,,,0,0,0,,,,,0,,,91,96
209760,note_on,,,,,480,0,0,,,,,0,,,79,96
209760,note_on,,,,,480,0,1,,,,,0,,,58,96
209760,note_on,,,,,0,0,0,,,,,0,,,58,0
209760,note_on,,,,,0,0,1,,,,,0,,,63,96
209760,note_on,,,,,0,0,1,,,,,0,,,70,96
209760,note_on,,,,,0,0,0,,,,,0,,,82,96
209838,note_on,,,,,0,0,1,,,,,0,,,70,0
209838,note_on,,,,,0,0,1,,,,,0,,,67,0
209838,note_on,,,,,78,0,0,,,,,0,,,79,0
209838,note_on,,,,,78,0,1,,,,,0,,,63,0
209838,note_on,,,,,0,0,0,,,,,0,,,82,0
209838,note_on,,,,,0,0,0,,,,,0,,,87,0
209838,note_on,,,,,0,0,0,,,,,0,,,91,0
210191,note_on,,,,,353,0,1,,,,,0,,,58,0
210191,note_on,,,,,0,0,1,,,,,0,,,46,0
210191,note_on,,,,,0,0,1,,,,,0,,,34,0
210240,note_on,,,,,402,0,0,,,,,0,,,58,96
210240,note_on,,,,,0,0,1,,,,,0,,,46,96
210240,note_on,,,,,49,0,1,,,,,0,,,34,96
210720,note_on,,,,,0,0,1,,,,,0,,,70,96
210720,note_on,,,,,0,0,1,,,,,0,,,65,96
210720,note_on,,,,,0,0,1,,,,,0,,,62,96
210720,note_on,,,,,0,0,0,,,,,0,,,94,96
210720,note_on,,,,,0,0,0,,,,,0,,,89,96
210720,note_on,,,,,0,0,0,,,,,0,,,86,96
210720,note_on,,,,,0,0,0,,,,,0,,,58,0
210720,note_on,,,,,480,0,1,,,,,0,,,58,96
210720,note_on,,,,,480,0,0,,,,,0,,,82,96
210798,note_on,,,,,0,0,0,,,,,0,,,89,0
210798,note_on,,,,,0,0,0,,,,,0,,,86,0
210798,note_on,,,,,78,0,1,,,,,0,,,62,0
210798,note_on,,,,,78,0,0,,,,,0,,,82,0
210798,note_on,,,,,0,0,1,,,,,0,,,65,0
210798,note_on,,,,,0,0,0,,,,,0,,,94,0
210798,note_on,,,,,0,0,1,,,,,0,,,70,0
211037,note_on,,,,,0,0,1,,,,,0,,,46,0
211037,note_on,,,,,239,0,1,,,,,0,,,58,0
211037,note_on,,,,,0,0,1,,,,,0,,,34,0
211080,note_on,,,,,43,0,1,,,,,0,,,34,96
211080,note_on,,,,,282,0,0,,,,,0,,,70,96
211080,note_on,,,,,0,0,1,,,,,0,,,46,96
211193,note_on,,,,,113,0,1,,,,,0,,,34,0
211193,note_on,,,,,0,0,1,,,,,0,,,46,0
211193,note_on,,,,,113,0,0,,,,,0,,,70,0
211200,note_on,,,,,7,0,0,,,,,0,,,58,96
211200,note_on,,,,,7,0,1,,,,,0,,,34,96
211200,note_on,,,,,0,0,1,,,,,0,,,46,96
211680,note_on,,,,,480,0,1,,,,,0,,,58,96
211680,note_on,,,,,0,0,0,,,,,0,,,91,96
211680,note_on,,,,,480,0,0,,,,,0,,,82,96
211680,note_on,,,,,0,0,0,,,,,0,,,87,96
211680,note_on,,,,,0,0,0,,,,,0,,,58,0
211680,note_on,,,,,0,0,0,,,,,0,,,94,96
211680,note_on,,,,,0,0,1,,,,,0,,,67,96
211680,note_on,,,,,0,0,1,,,,,0,,,63,96
211680,note_on,,,,,0,0,1,,,,,0,,,70,96
211758,note_on,,,,,0,0,1,,,,,0,,,70,0
211758,note_on,,,,,0,0,0,,,,,0,,,87,0
211758,note_on,,,,,0,0,1,,,,,0,,,67,0
211758,note_on,,,,,0,0,0,,,,,0,,,94,0
211758,note_on,,,,,0,0,0,,,,,0,,,91,0
211758,note_on,,,,,78,0,0,,,,,0,,,82,0
211758,note_on,,,,,78,0,1,,,,,0,,,63,0
212111,note_on,,,,,353,0,1,,,,,0,,,58,0
212111,note_on,,,,,0,0,1,,,,,0,,,34,0
212111,note_on,,,,,0,0,1,,,,,0,,,46,0
212160,note_on,,,,,49,0,1,,,,,0,,,34,96
212160,note_on,,,,,0,0,1,,,,,0,,,46,96
212160,note_on,,,,,402,0,0,,,,,0,,,58,96
212640,note_on,,,,,0,0,1,,,,,0,,,65,96
212640,note_on,,,,,480,0,0,,,,,0,,,86,96
212640,note_on,,,,,0,0,1,,,,,0,,,74,96
212640,note_on,,,,,0,0,0,,,,,0,,,98,96
212640,note_on,,,,,0,0,0,,,,,0,,,94,96
212640,note_on,,,,,0,0,1,,,,,0,,,68,96
212640,note_on,,,,,0,0,1,,,,,0,,,70,96
212640,note_on,,,,,480,0,1,,,,,0,,,62,96
212640,note_on,,,,,0,0,0,,,,,0,,,92,96
212640,note_on,,,,,0,0,0,,,,,0,,,89,96
212718,note_on,,,,,0,0,0,,,,,0,,,98,0
212718,note_on,,,,,78,0,1,,,,,0,,,62,0
212718,note_on,,,,,0,0,0,,,,,0,,,89,0
212718,note_on,,,,,0,0,0,,,,,0,,,94,0
212718,note_on,,,,,78,0,0,,,,,0,,,86,0
212718,note_on,,,,,0,0,1,,,,,0,,,65,0
212718,note_on,,,,,0,0,1,,,,,0,,,68,0
212718,note_on,,,,,0,0,1,,,,,0,,,70,0
212718,note_on,,,,,0,0,0,,,,,0,,,92,0
212718,note_on,,,,,0,0,1,,,,,0,,,74,0
212843,note_on,,,,,125,0,1,,,,,0,,,34,0
212843,note_on,,,,,0,0,1,,,,,0,,,46,0
212843,note_on,,,,,125,0,0,,,,,0,,,58,0
212880,note_on,,,,,37,0,1,,,,,0,,,34,96
212880,note_on,,,,,37,0,0,,,,,0,,,58,96
212959,note_on,,,,,79,0,0,,,,,0,,,58,0
212959,note_on,,,,,79,0,1,,,,,0,,,34,0
212960,note_on,,,,,1,0,1,,,,,0,,,36,96
212960,note_on,,,,,1,0,0,,,,,0,,,60,96
213039,note_on,,,,,79,0,0,,,,,0,,,60,0
213039,note_on,,,,,79,0,1,,,,,0,,,36,0
213040,note_on,,,,,1,0,1,,,,,0,,,38,96
213040,note_on,,,,,1,0,0,,,,,0,,,62,96
213115,note_on,,,,,75,0,1,,,,,0,,,38,0
213115,note_on,,,,,75,0,0,,,,,0,,,62,0
213120,note_on,,,,,5,0,0,,,,,0,,,63,96
213120,note_on,,,,,0,0,1,,,,,0,,,51,96
213120,note_on,,,,,5,0,1,,,,,0,,,39,96
213277,note_on,,,,,157,0,1,,,,,0,,,39,0
213277,note_on,,,,,157,0,0,,,,,0,,,63,0
213277,note_on,,,,,0,0,1,,,,,0,,,51,0
213600,note_on,,,,,323,0,0,,,,,0,,,51,96
213600,note_on,,,,,0,0,1,,,,,0,,,39,96
213600,note_on,,,,,323,0,1,,,,,0,,,27,96
213757,note_on,,,,,157,0,1,,,,,0,,,27,0
213757,note_on,,,,,0,0,1,,,,,0,,,39,0
213757,note_on,,,,,157,0,0,,,,,0,,,51,0
214080,note_on,,,,,323,0,0,,,,,0,,,75,96
214080,note_on,,,,,0,0,0,,,,,0,,,87,96
214080,note_on,,,,,0,0,1,,,,,0,,,63,96
214080,note_on,,,,,323,0,1,,,,,0,,,51,96
214237,note_on,,,,,157,0,0,,,,,0,,,75,0
214237,note_on,,,,,157,0,1,,,,,0,,,51,0
214237,note_on,,,,,0,0,0,,,,,0,,,87,0
214237,note_on,,,,,0,0,1,,,,,0,,,63,0
214560,note_on,,,,,323,0,0,,,,,0,,,63,96
214560,note_on,,,,,323,0,1,,,,,0,,,39,96
214560,note_on,,,,,0,0,1,,,,,0,,,51,96
214717,note_on,,,,,157,0,1,,,,,0,,,39,0
214717,note_on,,,,,157,0,0,,,,,0,,,63,0
214717,note_on,,,,,0,0,1,,,,,0,,,51,0
215040,note_on,,,,,323,0,1,,,,,0,,,63,115
215040,note_on,,,,,0,0,1,,,,,0,,,69,115
215040,note_on,,,,,0,0,1,,,,,0,,,71,115
215040,note_on,,,,,0,0,1,,,,,0,,,78,115
215040,note_on,,,,,0,0,0,,,,,0,,,93,115
215040,note_on,,,,,0,0,0,,,,,0,,,83,115
215040,note_on,,,,,323,0,0,,,,,0,,,81,115
215682,note_on,,,,,642,0,1,,,,,0,,,63,0
215682,note_on,,,,,0,0,1,,,,,0,,,69,0
215682,note_on,,,,,0,0,1,,,,,0,,,71,0
215682,note_on,,,,,0,0,1,,,,,0,,,78,0
215735,note_on,,,,,0,0,0,,,,,0,,,83,0
215735,note_on,,,,,0,0,0,,,,,0,,,93,0
215735,note_on,,,,,695,0,0,,,,,0,,,81,0
216053,note_on,,,,,318,0,0,,,,,0,,,90,96
216105,note_on,,,,,52,0,0,,,,,0,,,90,0
216106,note_on,,,,,1,0,0,,,,,0,,,87,96
216158,note_on,,,,,52,0,0,,,,,0,,,87,0
216159,note_on,,,,,1,0,0,,,,,0,,,83,96
216160,note_on,,,,,478,0,1,,,,,0,,,35,96
216211,note_on,,,,,52,0,0,,,,,0,,,83,0
216212,note_on,,,,,1,0,0,,,,,0,,,81,96
216264,note_on,,,,,52,0,0,,,,,0,,,81,0
216265,note_on,,,,,1,0,0,,,,,0,,,78,96
216311,note_on,,,,,151,0,1,,,,,0,,,35,0
216317,note_on,,,,,52,0,0,,,,,0,,,78,0
216318,note_on,,,,,1,0,0,,,,,0,,,75,96
216320,note_on,,,,,9,0,1,,,,,0,,,36,96
216370,note_on,,,,,52,0,0,,,,,0,,,75,0
216371,note_on,,,,,1,0,0,,,,,0,,,71,96
216423,note_on,,,,,52,0,0,,,,,0,,,71,0
216424,note_on,,,,,1,0,0,,,,,0,,,69,96
216471,note_on,,,,,151,0,1,,,,,0,,,36,0
216476,note_on,,,,,52,0,0,,,,,0,,,69,0
216480,note_on,,,,,4,0,0,,,,,0,,,66,96
216480,note_on,,,,,9,0,1,,,,,0,,,37,96
216532,note_on,,,,,52,0,0,,,,,0,,,66,0
216533,note_on,,,,,1,0,0,,,,,0,,,63,96
216585,note_on,,,,,52,0,0,,,,,0,,,63,0
216586,note_on,,,,,1,0,0,,,,,0,,,59,96
216631,note_on,,,,,151,0,1,,,,,0,,,37,0
216638,note_on,,,,,52,0,0,,,,,0,,,59,0
216639,note_on,,,,,1,0,0,,,,,0,,,57,96
216640,note_on,,,,,9,0,1,,,,,0,,,38,96
216691,note_on,,,,,52,0,0,,,,,0,,,57,0
216692,note_on,,,,,1,0,0,,,,,0,,,54,96
216744,note_on,,,,,52,0,0,,,,,0,,,54,0
216745,note_on,,,,,1,0,0,,,,,0,,,51,96
216797,note_on,,,,,52,0,0,,,,,0,,,51,0
216798,note_on,,,,,1,0,0,,,,,0,,,47,96
216850,note_on,,,,,52,0,0,,,,,0,,,47,0
216851,note_on,,,,,1,0,0,,,,,0,,,45,96
216903,note_on,,,,,52,0,0,,,,,0,,,45,0
216904,note_on,,,,,1,0,0,,,,,0,,,42,96
216905,note_on,,,,,265,0,1,,,,,0,,,38,0
216920,note_on,,,,,15,0,1,,,,,0,,,39,96
216953,note_on,,,,,49,0,0,,,,,0,,,42,0
216957,note_on,,,,,37,0,1,,,,,0,,,39,0
216960,note_on,,,,,3,0,1,,,,,0,,,39,96
217117,note_on,,,,,157,0,1,,,,,0,,,39,0
217440,note_on,,,,,0,0,1,,,,,0,,,39,96
217440,note_on,,,,,323,0,1,,,,,0,,,27,96
217440,note_on,,,,,487,0,0,,,,,0,,,63,96
217440,note_on,,,,,0,0,1,,,,,0,,,51,96
217597,note_on,,,,,0,0,1,,,,,0,,,51,0
217597,note_on,,,,,157,0,0,,,,,0,,,63,0
217597,note_on,,,,,0,0,1,,,,,0,,,39,0
217597,note_on,,,,,157,0,1,,,,,0,,,27,0
217920,note_on,,,,,323,0,0,,,,,0,,,75,96
217920,note_on,,,,,0,0,0,,,,,0,,,87,96
217920,note_on,,,,,0,0,1,,,,,0,,,63,96
217920,note_on,,,,,323,0,1,,,,,0,,,51,96
218077,note_on,,,,,0,0,0,,,,,0,,,87,0
218077,note_on,,,,,157,0,0,,,,,0,,,75,0
218077,note_on,,,,,157,0,1,,,,,0,,,51,0
218077,note_on,,,,,0,0,1,,,,,0,,,63,0
218400,note_on,,,,,323,0,0,,,,,0,,,63,96
218400,note_on,,,,,0,0,1,,,,,0,,,51,96
218400,note_on,,,,,323,0,1,,,,,0,,,39,96
218557,note_on,,,,,0,0,1,,,,,0,,,51,0
218557,note_on,,,,,157,0,0,,,,,0,,,63,0
218557,note_on,,,,,157,0,1,,,,,0,,,39,0
218880,note_on,,,,,0,0,1,,,,,0,,,69,96
218880,note_on,,,,,323,0,0,,,,,0,,,87,96
218880,note_on,,,,,0,0,1,,,,,0,,,78,96
218880,note_on,,,,,323,0,1,,,,,0,,,63,96
218880,note_on,,,,,0,0,1,,,,,0,,,71,96
218880,note_on,,,,,0,0,0,,,,,0,,,99,96
219791,note_on,,,,,0,0,1,,,,,0,,,71,0
219791,note_on,,,,,0,0,1,,,,,0,,,69,0
219791,note_on,,,,,0,0,1,,,,,0,,,78,0
219791,note_on,,,,,911,0,1,,,,,0,,,63,0
219836,note_on,,,,,0,0,0,,,,,0,,,99,0
219836,note_on,,,,,956,0,0,,,,,0,,,87,0
219888,note_on,,,,,52,0,0,,,,,0,,,95,96
219932,note_on,,,,,44,0,0,,,,,0,,,95,0
219936,note_on,,,,,4,0,0,,,,,0,,,93,96
219980,note_on,,,,,44,0,0,,,,,0,,,93,0
219984,note_on,,,,,4,0,0,,,,,0,,,90,96
220000,note_on,,,,,209,0,1,,,,,0,,,35,96
220028,note_on,,,,,44,0,0,,,,,0,,,90,0
220032,note_on,,,,,4,0,0,,,,,0,,,87,96
220076,note_on,,,,,44,0,0,,,,,0,,,87,0
220080,note_on,,,,,4,0,0,,,,,0,,,83,96
220124,note_on,,,,,44,0,0,,,,,0,,,83,0
220128,note_on,,,,,4,0,0,,,,,0,,,81,96
220151,note_on,,,,,151,0,1,,,,,0,,,35,0
220160,note_on,,,,,9,0,1,,,,,0,,,36,96
220172,note_on,,,,,44,0,0,,,,,0,,,81,0
220176,note_on,,,,,4,0,0,,,,,0,,,78,96
220220,note_on,,,,,44,0,0,,,,,0,,,78,0
220224,note_on,,,,,4,0,0,,,,,0,,,75,96
220268,note_on,,,,,44,0,0,,,,,0,,,75,0
220272,note_on,,,,,4,0,0,,,,,0,,,71,96
220311,note_on,,,,,151,0,1,,,,,0,,,36,0
220316,note_on,,,,,44,0,0,,,,,0,,,71,0
220320,note_on,,,,,9,0,1,,,,,0,,,37,96
220320,note_on,,,,,4,0,0,,,,,0,,,69,96
220364,note_on,,,,,44,0,0,,,,,0,,,69,0
220368,note_on,,,,,4,0,0,,,,,0,,,66,96
220412,note_on,,,,,44,0,0,,,,,0,,,66,0
220416,note_on,,,,,4,0,0,,,,,0,,,63,96
220460,note_on,,,,,44,0,0,,,,,0,,,63,0
220464,note_on,,,,,4,0,0,,,,,0,,,59,96
220471,note_on,,,,,151,0,1,,,,,0,,,37,0
220480,note_on,,,,,9,0,1,,,,,0,,,38,96
220508,note_on,,,,,44,0,0,,,,,0,,,59,0
220512,note_on,,,,,4,0,0,,,,,0,,,57,96
220556,note_on,,,,,44,0,0,,,,,0,,,57,0
220560,note_on,,,,,4,0,0,,,,,0,,,54,96
220604,note_on,,,,,44,0,0,,,,,0,,,54,0
220608,note_on,,,,,4,0,0,,,,,0,,,51,96
220652,note_on,,,,,44,0,0,,,,,0,,,51,0
220656,note_on,,,,,4,0,0,,,,,0,,,47,96
220700,note_on,,,,,44,0,0,,,,,0,,,47,0
220704,note_on,,,,,4,0,0,,,,,0,,,45,96
220745,note_on,,,,,265,0,1,,,,,0,,,38,0
220748,note_on,,,,,44,0,0,,,,,0,,,45,0
220752,note_on,,,,,4,0,0,,,,,0,,,42,96
220760,note_on,,,,,0,0,1,,,,,0,,,39,96
220760,note_on,,,,,15,0,1,,,,,0,,,27,96
220796,note_on,,,,,44,0,0,,,,,0,,,42,0
220797,note_on,,,,,37,0,1,,,,,0,,,27,0
220797,note_on,,,,,0,0,1,,,,,0,,,39,0
220800,note_on,,,,,0,0,1,,,,,0,,,40,96
220800,note_on,,,,,3,0,1,,,,,0,,,28,96
220878,note_on,,,,,78,0,1,,,,,0,,,28,0
220878,note_on,,,,,0,0,1,,,,,0,,,40,0
221280,note_on,,,,,0,0,1,,,,,0,,,68,96
221280,note_on,,,,,402,0,1,,,,,0,,,64,96
221280,note_on,,,,,0,0,1,,,,,0,,,76,96
221280,note_on,,,,,0,0,1,,,,,0,,,71,96
221280,note_on,,,,,484,0,0,,,,,0,,,88,96
221280,note_on,,,,,0,0,0,,,,,0,,,100,96
221280,note_on,,,,,0,0,0,,,,,0,,,92,96
221358,note_on,,,,,0,0,0,,,,,0,,,92,0
221358,note_on,,,,,78,0,0,,,,,0,,,88,0
221358,note_on,,,,,0,0,0,,,,,0,,,100,0
221358,note_on,,,,,78,0,1,,,,,0,,,64,0
221358,note_on,,,,,0,0,1,,,,,0,,,76,0
221358,note_on,,,,,0,0,1,,,,,0,,,68,0
221358,note_on,,,,,0,0,1,,,,,0,,,71,0
221760,note_on,,,,,0,0,1,,,,,0,,,44,96
221760,note_on,,,,,402,0,1,,,,,0,,,32,96
221760,note_on,,,,,402,0,0,,,,,0,,,56,96
221838,note_on,,,,,78,0,1,,,,,0,,,32,0
221838,note_on,,,,,0,0,1,,,,,0,,,44,0
221838,note_on,,,,,78,0,0,,,,,0,,,56,0
222240,note_on,,,,,0,0,1,,,,,0,,,64,96
222240,note_on,,,,,0,0,1,,,,,0,,,68,96
222240,note_on,,,,,0,0,1,,,,,0,,,71,96
222240,note_on,,,,,0,0,0,,,,,0,,,95,96
222240,note_on,,,,,402,0,0,,,,,0,,,83,96
222240,note_on,,,,,0,0,0,,,,,0,,,88,96
222240,note_on,,,,,402,0,1,,,,,0,,,59,96
222318,note_on,,,,,0,0,0,,,,,0,,,95,0
222318,note_on,,,,,0,0,1,,,,,0,,,64,0
222318,note_on,,,,,0,0,1,,,,,0,,,71,0
222318,note_on,,,,,78,0,1,,,,,0,,,59,0
222318,note_on,,,,,0,0,0,,,,,0,,,88,0
222318,note_on,,,,,78,0,0,,,,,0,,,83,0
222318,note_on,,,,,0,0,1,,,,,0,,,68,0
224040,note_on,,,,,1722,0,1,,,,,0,,,31,112
224040,set_tempo,,,,,1722,1,0,,666667,,,,,,,
224040,note_on,,,,,0,0,0,,,,,0,,,55,112
224040,note_on,,,,,0,0,1,,,,,0,,,43,112
224040,note_on,,,,,0,0,0,,,,,0,,,67,112
224078,note_on,,,,,38,0,0,,,,,0,,,55,0
224078,note_on,,,,,0,0,1,,,,,0,,,43,0
224078,note_on,,,,,0,0,0,,,,,0,,,67,0
224078,note_on,,,,,38,0,1,,,,,0,,,31,0
224160,note_on,,,,,0,0,0,,,,,0,,,68,112
224160,note_on,,,,,0,0,1,,,,,0,,,44,112
224160,note_on,,,,,82,0,1,,,,,0,,,32,112
224160,note_on,,,,,82,0,0,,,,,0,,,56,112
224238,note_on,,,,,0,0,1,,,,,0,,,44,0
224238,note_on,,,,,78,0,1,,,,,0,,,32,0
224238,note_on,,,,,78,0,0,,,,,0,,,56,0
224238,note_on,,,,,0,0,0,,,,,0,,,68,0
224520,note_on,,,,,282,0,0,,,,,0,,,57,112
224520,note_on,,,,,282,0,1,,,,,0,,,33,112
224520,note_on,,,,,0,0,0,,,,,0,,,69,112
224520,note_on,,,,,0,0,1,,,,,0,,,45,112
224558,note_on,,,,,38,0,1,,,,,0,,,33,0
224558,note_on,,,,,38,0,0,,,,,0,,,57,0
224558,note_on,,,,,0,0,1,,,,,0,,,45,0
224558,note_on,,,,,0,0,0,,,,,0,,,69,0
224640,note_on,,,,,0,0,1,,,,,0,,,46,127
224640,note_on,,,,,82,0,1,,,,,0,,,34,127
224640,note_on,,,,,0,0,1,,,,,0,,,39,127
224640,set_tempo,,,,,82,1,0,,750002,,,,,,,
224640,note_on,,,,,0,0,1,,,,,0,,,43,127
224640,note_on,,,,,0,0,0,,,,,0,,,67,127
224640,note_on,,,,,0,0,0,,,,,0,,,70,127
224640,note_on,,,,,0,0,0,,,,,0,,,58,127
224640,note_on,,,,,0,0,0,,,,,0,,,63,127
225282,note_on,,,,,0,0,0,,,,,0,,,67,0
225282,note_on,,,,,642,0,1,,,,,0,,,34,0
225282,note_on,,,,,642,0,0,,,,,0,,,58,0
225282,note_on,,,,,0,0,1,,,,,0,,,43,0
225282,note_on,,,,,0,0,1,,,,,0,,,39,0
225282,note_on,,,,,0,0,0,,,,,0,,,70,0
225282,note_on,,,,,0,0,1,,,,,0,,,46,0
225282,note_on,,,,,0,0,0,,,,,0,,,63,0
225600,note_on,,,,,0,0,1,,,,,0,,,46,127
225600,set_tempo,,,,,318,1,0,,857140,,,,,,,
225600,note_on,,,,,0,0,0,,,,,0,,,70,127
225600,note_on,,,,,0,0,0,,,,,0,,,68,127
225600,note_on,,,,,0,0,1,,,,,0,,,44,127
225600,note_on,,,,,0,0,0,,,,,0,,,65,127
225600,note_on,,,,,0,0,1,,,,,0,,,41,127
225600,note_on,,,,,0,0,1,,,,,0,,,38,127
225600,note_on,,,,,0,0,0,,,,,0,,,62,127
225600,note_on,,,,,0,0,0,,,,,0,,,58,127
225600,note_on,,,,,318,0,1,,,,,0,,,34,127
226242,note_on,,,,,0,0,1,,,,,0,,,38,0
226242,note_on,,,,,0,0,0,,,,,0,,,65,0
226242,note_on,,,,,0,0,0,,,,,0,,,62,0
226242,note_on,,,,,0,0,1,,,,,0,,,46,0
226242,note_on,,,,,0,0,1,,,,,0,,,44,0
226242,note_on,,,,,0,0,1,,,,,0,,,41,0
226242,note_on,,,,,642,0,0,,,,,0,,,58,0
226242,note_on,,,,,642,0,1,,,,,0,,,34,0
226242,note_on,,,,,0,0,0,,,,,0,,,68,0
226242,note_on,,,,,0,0,0,,,,,0,,,70,0
226560,note_on,,,,,0,0,1,,,,,0,,,43,127
226560,note_on,,,,,0,0,1,,,,,0,,,46,127
226560,note_on,,,,,318,0,1,,,,,0,,,39,127
226560,note_on,,,,,0,0,0,,,,,0,,,67,127
226560,note_on,,,,,0,0,0,,,,,0,,,70,127
226560,set_tempo,,,,,318,1,0,,1714281,,,,,,,
226560,note_on,,,,,0,0,0,,,,,0,,,58,127
226560,note_on,,,,,0,0,0,,,,,0,,,63,127
227845,note_on,,,,,0,0,0,,,,,0,,,70,0
227845,note_on,,,,,0,0,1,,,,,0,,,43,0
227845,note_on,,,,,0,0,0,,,,,0,,,63,0
227845,note_on,,,,,1285,0,0,,,,,0,,,58,0
227845,note_on,,,,,0,0,1,,,,,0,,,46,0
227845,note_on,,,,,0,0,0,,,,,0,,,67,0
227845,note_on,,,,,1285,0,1,,,,,0,,,39,0
227846,end_of_track,,,,,1,1,1,,,,,,,,,
228479,set_tempo,,,,,634,1,0,,857140,,,,,,,
228480,end_of_track,,,,,1,1,0,,,,,,,,,
