tick,type,time,meta,track,numerator,denominator,clocks_per_click,notated_32nd_notes_per_beat,key,tempo,port,program,channel,control,value,note,velocity
0,control_change,0,0,1,,,,,,,,,0,7,127,,
0,control_change,0,0,3,,,,,,,,,2,7,127,,
0,control_change,0,0,3,,,,,,,,,2,10,30,,
0,control_change,0,0,3,,,,,,,,,2,64,127,,
0,control_change,0,0,4,,,,,,,,,3,7,127,,
0,control_change,0,0,4,,,,,,,,,3,10,30,,
0,copyright,0,1,0,,,,,,,,,,,,,
0,key_signature,0,1,0,,,,,Db,,,,,,,,
0,midi_port,0,1,1,,,,,,,0,,,,,,
0,midi_port,0,1,2,,,,,,,0,,,,,,
0,midi_port,0,1,3,,,,,,,0,,,,,,
0,midi_port,0,1,4,,,,,,,0,,,,,,
0,note_on,0,0,3,,,,,,,,,2,,,37,62
0,track_name,0,1,3,,,,,,,,,,,,,
0,program_change,0,0,1,,,,,,,,0,0,,,,
0,program_change,0,0,2,,,,,,,,0,1,,,,
0,program_change,0,0,3,,,,,,,,0,2,,,,
0,program_change,0,0,4,,,,,,,,0,3,,,,
0,set_tempo,0,1,0,,,,,,600000,,,,,,,
0,text,0,1,0,,,,,,,,,,,,,
0,time_signature,0,1,0,4,4,24,8,,,,,,,,,
0,track_name,0,1,0,,,,,,,,,,,,,
0,track_name,0,1,1,,,,,,,,,,,,,
0,track_name,0,1,2,,,,,,,,,,,,,
0,control_change,0,0,2,,,,,,,,,1,10,97,,
0,control_change,0,0,2,,,,,,,,,1,7,127,,
0,track_name,0,1,4,,,,,,,,,,,,,
0,control_change,0,0,1,,,,,,,,,0,10,97,,
1,copyright,1,1,5,,,,,,,,,,,,,
1,end_of_track,0,1,5,,,,,,,,,,,,,
68,note_on,0,0,3,,,,,,,,,2,,,44,62
68,note_on,68,0,3,,,,,,,,,2,,,37,0
137,note_on,69,0,3,,,,,,,,,2,,,44,0
137,note_on,0,0,3,,,,,,,,,2,,,49,62
205,note_on,0,0,3,,,,,,,,,2,,,53,62
205,note_on,68,0,3,,,,,,,,,2,,,49,0
274,note_on,69,0,3,,,,,,,,,2,,,53,0
274,note_on,0,0,3,,,,,,,,,2,,,56,62
342,note_on,68,0,3,,,,,,,,,2,,,56,0
342,note_on,0,0,3,,,,,,,,,2,,,61,62
411,note_on,69,0,3,,,,,,,,,2,,,61,0
411,note_on,0,0,3,,,,,,,,,2,,,65,62
480,note_on,69,0,3,,,,,,,,,2,,,65,0
480,note_on,0,0,3,,,,,,,,,2,,,68,62
548,note_on,68,0,3,,,,,,,,,2,,,68,0
548,note_on,0,0,3,,,,,,,,,2,,,65,62
617,note_on,69,0,3,,,,,,,,,2,,,65,0
617,note_on,0,0,3,,,,,,,,,2,,,61,62
685,note_on,68,0,3,,,,,,,,,2,,,61,0
685,note_on,0,0,3,,,,,,,,,2,,,56,62
754,note_on,0,0,3,,,,,,,,,2,,,53,62
754,note_on,69,0,3,,,,,,,,,2,,,56,0
822,note_on,0,0,3,,,,,,,,,2,,,49,62
822,note_on,68,0,3,,,,,,,,,2,,,53,0
891,note_on,0,0,3,,,,,,,,,2,,,44,62
891,note_on,69,0,3,,,,,,,,,2,,,49,0
960,note_on,69,0,3,,,,,,,,,2,,,44,0
960,note_on,0,0,3,,,,,,,,,2,,,37,75
1028,note_on,0,0,3,,,,,,,,,2,,,44,75
1028,note_on,68,0,3,,,,,,,,,2,,,37,0
1097,note_on,0,0,3,,,,,,,,,2,,,49,75
1097,note_on,69,0,3,,,,,,,,,2,,,44,0
1165,note_on,68,0,3,,,,,,,,,2,,,49,0
1165,note_on,0,0,3,,,,,,,,,2,,,53,75
1234,note_on,0,0,3,,,,,,,,,2,,,56,75
1234,note_on,69,0,3,,,,,,,,,2,,,53,0
1302,note_on,68,0,3,,,,,,,,,2,,,56,0
1302,note_on,0,0,3,,,,,,,,,2,,,61,75
1371,note_on,0,0,3,,,,,,,,,2,,,65,75
1371,note_on,69,0,3,,,,,,,,,2,,,61,0
1440,note_on,69,0,3,,,,,,,,,2,,,65,0
1440,note_on,0,0,3,,,,,,,,,2,,,68,75
1508,note_on,0,0,3,,,,,,,,,2,,,65,75
1508,note_on,68,0,3,,,,,,,,,2,,,68,0
1577,note_on,69,0,3,,,,,,,,,2,,,65,0
1577,note_on,0,0,3,,,,,,,,,2,,,61,75
1645,note_on,0,0,3,,,,,,,,,2,,,56,88
1645,note_on,68,0,3,,,,,,,,,2,,,61,0
1714,note_on,0,0,3,,,,,,,,,2,,,53,88
1714,note_on,69,0,3,,,,,,,,,2,,,56,0
1782,note_on,0,0,3,,,,,,,,,2,,,49,88
1782,note_on,68,0,3,,,,,,,,,2,,,53,0
1851,note_on,0,0,3,,,,,,,,,2,,,44,88
1851,note_on,69,0,3,,,,,,,,,2,,,49,0
1920,note_on,0,0,3,,,,,,,,,2,,,37,88
1920,note_on,69,0,3,,,,,,,,,2,,,44,0
1988,note_on,0,0,3,,,,,,,,,2,,,44,88
1988,note_on,68,0,3,,,,,,,,,2,,,37,0
2057,note_on,0,0,3,,,,,,,,,2,,,49,88
2057,note_on,69,0,3,,,,,,,,,2,,,44,0
2125,note_on,68,0,3,,,,,,,,,2,,,49,0
2125,note_on,0,0,3,,,,,,,,,2,,,53,88
2194,note_on,69,0,3,,,,,,,,,2,,,53,0
2194,note_on,0,0,3,,,,,,,,,2,,,56,75
2262,note_on,0,0,3,,,,,,,,,2,,,61,75
2262,note_on,68,0,3,,,,,,,,,2,,,56,0
2331,note_on,0,0,3,,,,,,,,,2,,,65,75
2331,note_on,69,0,3,,,,,,,,,2,,,61,0
2400,note_on,0,0,3,,,,,,,,,2,,,68,75
2400,note_on,69,0,3,,,,,,,,,2,,,65,0
2468,note_on,68,0,3,,,,,,,,,2,,,68,0
2468,note_on,0,0,3,,,,,,,,,2,,,65,75
2537,note_on,69,0,3,,,,,,,,,2,,,65,0
2537,note_on,0,0,3,,,,,,,,,2,,,61,75
2605,note_on,68,0,3,,,,,,,,,2,,,61,0
2605,note_on,0,0,3,,,,,,,,,2,,,56,75
2674,note_on,0,0,3,,,,,,,,,2,,,53,75
2674,note_on,69,0,3,,,,,,,,,2,,,56,0
2742,note_on,0,0,3,,,,,,,,,2,,,49,75
2742,note_on,68,0,3,,,,,,,,,2,,,53,0
2811,note_on,69,0,3,,,,,,,,,2,,,49,0
2811,note_on,0,0,3,,,,,,,,,2,,,44,75
2880,note_on,69,0,3,,,,,,,,,2,,,44,0
2880,note_on,0,0,3,,,,,,,,,2,,,37,62
2948,note_on,0,0,3,,,,,,,,,2,,,44,62
2948,note_on,68,0,3,,,,,,,,,2,,,37,0
3017,note_on,69,0,3,,,,,,,,,2,,,44,0
3017,note_on,0,0,3,,,,,,,,,2,,,49,62
3085,note_on,0,0,3,,,,,,,,,2,,,53,62
3085,note_on,68,0,3,,,,,,,,,2,,,49,0
3154,note_on,0,0,3,,,,,,,,,2,,,56,62
3154,note_on,69,0,3,,,,,,,,,2,,,53,0
3222,note_on,0,0,3,,,,,,,,,2,,,61,62
3222,note_on,68,0,3,,,,,,,,,2,,,56,0
3291,note_on,0,0,3,,,,,,,,,2,,,65,62
3291,note_on,69,0,3,,,,,,,,,2,,,61,0
3360,note_on,69,0,3,,,,,,,,,2,,,65,0
3360,note_on,0,0,3,,,,,,,,,2,,,68,62
3428,note_on,0,0,3,,,,,,,,,2,,,65,62
3428,note_on,68,0,3,,,,,,,,,2,,,68,0
3497,note_on,0,0,3,,,,,,,,,2,,,61,62
3497,note_on,69,0,3,,,,,,,,,2,,,65,0
3565,note_on,0,0,3,,,,,,,,,2,,,56,62
3565,note_on,68,0,3,,,,,,,,,2,,,61,0
3634,note_on,0,0,3,,,,,,,,,2,,,53,62
3634,note_on,69,0,3,,,,,,,,,2,,,56,0
3702,note_on,0,0,3,,,,,,,,,2,,,49,62
3702,note_on,68,0,3,,,,,,,,,2,,,53,0
3771,note_on,69,0,3,,,,,,,,,2,,,49,0
3771,note_on,0,0,3,,,,,,,,,2,,,44,62
3771,control_change,0,0,3,,,,,,,,,2,64,0,,
3840,control_change,0,0,3,,,,,,,,,2,64,127,,
3840,note_on,69,0,3,,,,,,,,,2,,,44,0
3840,note_on,0,0,3,,,,,,,,,2,,,37,62
3840,control_change,3840,0,1,,,,,,,,,0,64,127,,
3908,note_on,68,0,3,,,,,,,,,2,,,37,0
3908,note_on,0,0,3,,,,,,,,,2,,,44,62
3977,note_on,69,0,3,,,,,,,,,2,,,44,0
3977,note_on,0,0,3,,,,,,,,,2,,,49,62
4045,note_on,68,0,3,,,,,,,,,2,,,49,0
4045,note_on,0,0,3,,,,,,,,,2,,,53,62
4114,note_on,69,0,3,,,,,,,,,2,,,53,0
4114,note_on,0,0,3,,,,,,,,,2,,,56,62
4182,note_on,68,0,3,,,,,,,,,2,,,56,0
4182,note_on,0,0,3,,,,,,,,,2,,,61,62
4251,note_on,0,0,3,,,,,,,,,2,,,65,62
4251,note_on,69,0,3,,,,,,,,,2,,,61,0
4320,note_on,480,0,1,,,,,,,,,0,,,68,88
4320,note_on,69,0,3,,,,,,,,,2,,,65,0
4367,note_on,47,0,1,,,,,,,,,0,,,68,0
4388,note_on,68,0,3,,,,,,,,,2,,,65,62
4457,note_on,69,0,3,,,,,,,,,2,,,65,0
4457,note_on,0,0,3,,,,,,,,,2,,,61,62
4525,note_on,0,0,3,,,,,,,,,2,,,56,62
4525,note_on,68,0,3,,,,,,,,,2,,,61,0
4594,note_on,0,0,3,,,,,,,,,2,,,53,62
4594,note_on,69,0,3,,,,,,,,,2,,,56,0
4662,note_on,68,0,3,,,,,,,,,2,,,53,0
4662,note_on,0,0,3,,,,,,,,,2,,,49,62
4731,note_on,0,0,3,,,,,,,,,2,,,44,62
4731,note_on,69,0,3,,,,,,,,,2,,,49,0
4800,note_on,0,0,3,,,,,,,,,2,,,37,62
4800,note_on,433,0,1,,,,,,,,,0,,,70,88
4800,note_on,69,0,3,,,,,,,,,2,,,44,0
4847,note_on,47,0,1,,,,,,,,,0,,,70,0
4868,note_on,68,0,3,,,,,,,,,2,,,37,0
4868,note_on,0,0,3,,,,,,,,,2,,,44,62
4937,note_on,0,0,3,,,,,,,,,2,,,49,62
4937,note_on,69,0,3,,,,,,,,,2,,,44,0
5005,note_on,0,0,3,,,,,,,,,2,,,53,62
5005,note_on,68,0,3,,,,,,,,,2,,,49,0
5074,note_on,69,0,3,,,,,,,,,2,,,53,0
5074,note_on,0,0,3,,,,,,,,,2,,,56,62
5142,note_on,0,0,3,,,,,,,,,2,,,61,62
5142,note_on,68,0,3,,,,,,,,,2,,,56,0
5211,note_on,69,0,3,,,,,,,,,2,,,61,0
5211,note_on,0,0,3,,,,,,,,,2,,,65,62
5280,note_on,433,0,1,,,,,,,,,0,,,73,88
5280,note_on,69,0,3,,,,,,,,,2,,,65,0
5327,note_on,47,0,1,,,,,,,,,0,,,73,0
5348,note_on,68,0,3,,,,,,,,,2,,,65,62
5417,note_on,0,0,3,,,,,,,,,2,,,61,62
5417,note_on,69,0,3,,,,,,,,,2,,,65,0
5485,note_on,0,0,3,,,,,,,,,2,,,56,62
5485,note_on,68,0,3,,,,,,,,,2,,,61,0
5520,control_change,193,0,1,,,,,,,,,0,64,0,,
5554,note_on,0,0,3,,,,,,,,,2,,,53,62
5554,note_on,69,0,3,,,,,,,,,2,,,56,0
5622,note_on,68,0,3,,,,,,,,,2,,,53,0
5622,note_on,0,0,3,,,,,,,,,2,,,49,62
5691,note_on,0,0,3,,,,,,,,,2,,,44,62
5691,control_change,0,0,3,,,,,,,,,2,64,0,,
5691,note_on,69,0,3,,,,,,,,,2,,,49,0
5760,control_change,0,0,3,,,,,,,,,2,64,127,,
5760,control_change,240,0,1,,,,,,,,,0,64,127,,
5760,note_on,0,0,1,,,,,,,,,0,,,75,88
5760,note_on,0,0,3,,,,,,,,,2,,,37,62
5760,note_on,69,0,3,,,,,,,,,2,,,44,0
5807,note_on,47,0,1,,,,,,,,,0,,,75,0
5828,note_on,0,0,3,,,,,,,,,2,,,46,62
5828,note_on,68,0,3,,,,,,,,,2,,,37,0
5897,note_on,0,0,3,,,,,,,,,2,,,49,62
5897,note_on,69,0,3,,,,,,,,,2,,,46,0
5965,note_on,0,0,3,,,,,,,,,2,,,54,62
5965,note_on,68,0,3,,,,,,,,,2,,,49,0
6034,note_on,0,0,3,,,,,,,,,2,,,58,62
6034,note_on,69,0,3,,,,,,,,,2,,,54,0
6102,note_on,68,0,3,,,,,,,,,2,,,58,0
6102,note_on,0,0,3,,,,,,,,,2,,,61,62
6171,note_on,0,0,3,,,,,,,,,2,,,66,62
6171,note_on,69,0,3,,,,,,,,,2,,,61,0
6240,note_on,433,0,1,,,,,,,,,0,,,77,88
6240,note_on,69,0,3,,,,,,,,,2,,,66,0
6287,note_on,47,0,1,,,,,,,,,0,,,77,0
6308,note_on,68,0,3,,,,,,,,,2,,,66,62
6377,note_on,0,0,3,,,,,,,,,2,,,61,62
6377,note_on,69,0,3,,,,,,,,,2,,,66,0
6445,note_on,0,0,3,,,,,,,,,2,,,58,62
6445,note_on,68,0,3,,,,,,,,,2,,,61,0
6514,note_on,69,0,3,,,,,,,,,2,,,58,0
6514,note_on,0,0,3,,,,,,,,,2,,,54,62
6582,note_on,0,0,3,,,,,,,,,2,,,49,62
6582,note_on,68,0,3,,,,,,,,,2,,,54,0
6651,note_on,69,0,3,,,,,,,,,2,,,49,0
6651,note_on,0,0,3,,,,,,,,,2,,,46,62
6720,control_change,0,0,3,,,,,,,,,2,64,127,,
6720,note_on,69,0,3,,,,,,,,,2,,,46,0
6720,note_on,433,0,1,,,,,,,,,0,,,75,88
6720,note_on,0,0,3,,,,,,,,,2,,,37,62
6767,note_on,47,0,1,,,,,,,,,0,,,75,0
6788,note_on,0,0,3,,,,,,,,,2,,,46,62
6788,note_on,68,0,3,,,,,,,,,2,,,37,0
6857,note_on,0,0,3,,,,,,,,,2,,,49,62
6857,note_on,69,0,3,,,,,,,,,2,,,46,0
6925,note_on,0,0,3,,,,,,,,,2,,,54,62
6925,note_on,68,0,3,,,,,,,,,2,,,49,0
6994,note_on,0,0,3,,,,,,,,,2,,,58,62
6994,note_on,69,0,3,,,,,,,,,2,,,54,0
7062,note_on,68,0,3,,,,,,,,,2,,,58,0
7062,note_on,0,0,3,,,,,,,,,2,,,61,62
7131,note_on,69,0,3,,,,,,,,,2,,,61,0
7131,note_on,0,0,3,,,,,,,,,2,,,66,62
7200,note_on,433,0,1,,,,,,,,,0,,,70,88
7200,note_on,69,0,3,,,,,,,,,2,,,66,0
7247,note_on,47,0,1,,,,,,,,,0,,,70,0
7268,note_on,68,0,3,,,,,,,,,2,,,66,62
7337,note_on,69,0,3,,,,,,,,,2,,,66,0
7337,note_on,0,0,3,,,,,,,,,2,,,61,62
7405,note_on,0,0,3,,,,,,,,,2,,,58,62
7405,note_on,68,0,3,,,,,,,,,2,,,61,0
7440,control_change,193,0,1,,,,,,,,,0,64,0,,
7474,note_on,69,0,3,,,,,,,,,2,,,58,0
7474,note_on,0,0,3,,,,,,,,,2,,,54,62
7542,note_on,0,0,3,,,,,,,,,2,,,49,62
7542,note_on,68,0,3,,,,,,,,,2,,,54,0
7611,note_on,69,0,3,,,,,,,,,2,,,49,0
7611,note_on,0,0,3,,,,,,,,,2,,,46,62
7611,control_change,0,0,3,,,,,,,,,2,64,0,,
7680,control_change,0,0,3,,,,,,,,,2,64,127,,
7680,note_on,69,0,3,,,,,,,,,2,,,46,0
7680,note_on,0,0,3,,,,,,,,,2,,,37,62
7680,note_on,240,0,1,,,,,,,,,0,,,73,88
7748,note_on,0,0,3,,,,,,,,,2,,,44,62
7748,note_on,68,0,3,,,,,,,,,2,,,37,0
7817,note_on,0,0,3,,,,,,,,,2,,,49,62
7817,note_on,69,0,3,,,,,,,,,2,,,44,0
7885,note_on,68,0,3,,,,,,,,,2,,,49,0
7885,note_on,0,0,3,,,,,,,,,2,,,53,62
7954,note_on,69,0,3,,,,,,,,,2,,,53,0
7954,note_on,0,0,3,,,,,,,,,2,,,56,62
8022,note_on,68,0,3,,,,,,,,,2,,,56,0
8022,note_on,0,0,3,,,,,,,,,2,,,61,62
8091,note_on,69,0,3,,,,,,,,,2,,,61,0
8091,note_on,0,0,3,,,,,,,,,2,,,65,62
8160,note_on,69,0,3,,,,,,,,,2,,,65,0
8160,note_on,0,0,3,,,,,,,,,2,,,68,62
8228,note_on,0,0,3,,,,,,,,,2,,,65,62
8228,note_on,68,0,3,,,,,,,,,2,,,68,0
8297,note_on,0,0,3,,,,,,,,,2,,,61,62
8297,note_on,69,0,3,,,,,,,,,2,,,65,0
8365,note_on,68,0,3,,,,,,,,,2,,,61,0
8365,note_on,0,0,3,,,,,,,,,2,,,56,62
8434,note_on,69,0,3,,,,,,,,,2,,,56,0
8434,note_on,0,0,3,,,,,,,,,2,,,53,75
8502,note_on,0,0,3,,,,,,,,,2,,,49,75
8502,note_on,68,0,3,,,,,,,,,2,,,53,0
8571,note_on,69,0,3,,,,,,,,,2,,,49,0
8571,note_on,0,0,3,,,,,,,,,2,,,44,75
8640,note_on,0,0,3,,,,,,,,,2,,,37,75
8640,note_on,69,0,3,,,,,,,,,2,,,44,0
8708,note_on,68,0,3,,,,,,,,,2,,,37,0
8708,note_on,0,0,3,,,,,,,,,2,,,44,75
8777,note_on,0,0,3,,,,,,,,,2,,,49,75
8777,note_on,69,0,3,,,,,,,,,2,,,44,0
8845,note_on,68,0,3,,,,,,,,,2,,,49,0
8845,note_on,0,0,3,,,,,,,,,2,,,53,75
8914,note_on,0,0,3,,,,,,,,,2,,,56,62
8914,note_on,69,0,3,,,,,,,,,2,,,53,0
8982,note_on,0,0,3,,,,,,,,,2,,,61,62
8982,note_on,68,0,3,,,,,,,,,2,,,56,0
9051,note_on,69,0,3,,,,,,,,,2,,,61,0
9051,note_on,0,0,3,,,,,,,,,2,,,65,62
9120,note_on,69,0,3,,,,,,,,,2,,,65,0
9120,note_on,0,0,3,,,,,,,,,2,,,68,62
9188,note_on,68,0,3,,,,,,,,,2,,,68,0
9188,note_on,0,0,3,,,,,,,,,2,,,65,62
9257,note_on,0,0,3,,,,,,,,,2,,,61,62
9257,note_on,69,0,3,,,,,,,,,2,,,65,0
9325,note_on,0,0,3,,,,,,,,,2,,,56,62
9325,note_on,68,0,3,,,,,,,,,2,,,61,0
9394,note_on,69,0,3,,,,,,,,,2,,,56,0
9394,note_on,0,0,3,,,,,,,,,2,,,53,62
9462,note_on,0,0,3,,,,,,,,,2,,,49,62
9462,note_on,68,0,3,,,,,,,,,2,,,53,0
9531,note_on,0,0,3,,,,,,,,,2,,,44,62
9531,note_on,69,0,3,,,,,,,,,2,,,49,0
9531,control_change,0,0,3,,,,,,,,,2,64,0,,
9600,note_on,1920,0,1,,,,,,,,,0,,,73,0
9600,control_change,0,0,3,,,,,,,,,2,64,127,,
9600,control_change,0,0,1,,,,,,,,,0,64,127,,
9600,note_on,0,0,3,,,,,,,,,2,,,37,62
9600,note_on,69,0,3,,,,,,,,,2,,,44,0
9668,note_on,68,0,3,,,,,,,,,2,,,37,0
9668,note_on,0,0,3,,,,,,,,,2,,,44,62
9737,note_on,69,0,3,,,,,,,,,2,,,44,0
9737,note_on,0,0,3,,,,,,,,,2,,,49,62
9805,note_on,0,0,3,,,,,,,,,2,,,53,62
9805,note_on,68,0,3,,,,,,,,,2,,,49,0
9874,note_on,69,0,3,,,,,,,,,2,,,53,0
9874,note_on,0,0,3,,,,,,,,,2,,,56,62
9942,note_on,0,0,3,,,,,,,,,2,,,61,62
9942,note_on,68,0,3,,,,,,,,,2,,,56,0
10011,note_on,69,0,3,,,,,,,,,2,,,61,0
10011,note_on,0,0,3,,,,,,,,,2,,,65,62
10080,note_on,480,0,1,,,,,,,,,0,,,68,88
10080,note_on,69,0,3,,,,,,,,,2,,,65,0
10127,note_on,47,0,1,,,,,,,,,0,,,68,0
10148,note_on,68,0,3,,,,,,,,,2,,,65,62
10217,note_on,69,0,3,,,,,,,,,2,,,65,0
10217,note_on,0,0,3,,,,,,,,,2,,,61,62
10285,note_on,0,0,3,,,,,,,,,2,,,56,62
10285,note_on,68,0,3,,,,,,,,,2,,,61,0
10354,note_on,0,0,3,,,,,,,,,2,,,53,62
10354,note_on,69,0,3,,,,,,,,,2,,,56,0
10422,note_on,0,0,3,,,,,,,,,2,,,49,62
10422,note_on,68,0,3,,,,,,,,,2,,,53,0
10491,note_on,0,0,3,,,,,,,,,2,,,44,62
10491,note_on,69,0,3,,,,,,,,,2,,,49,0
10560,note_on,433,0,1,,,,,,,,,0,,,70,88
10560,note_on,69,0,3,,,,,,,,,2,,,44,0
10560,note_on,0,0,3,,,,,,,,,2,,,37,62
10607,note_on,47,0,1,,,,,,,,,0,,,70,0
10628,note_on,0,0,3,,,,,,,,,2,,,44,62
10628,note_on,68,0,3,,,,,,,,,2,,,37,0
10697,note_on,0,0,3,,,,,,,,,2,,,49,62
10697,note_on,69,0,3,,,,,,,,,2,,,44,0
10765,note_on,0,0,3,,,,,,,,,2,,,53,62
10765,note_on,68,0,3,,,,,,,,,2,,,49,0
10834,note_on,0,0,3,,,,,,,,,2,,,56,62
10834,note_on,69,0,3,,,,,,,,,2,,,53,0
10902,note_on,0,0,3,,,,,,,,,2,,,61,62
10902,note_on,68,0,3,,,,,,,,,2,,,56,0
10971,note_on,69,0,3,,,,,,,,,2,,,61,0
10971,note_on,0,0,3,,,,,,,,,2,,,65,62
11040,note_on,69,0,3,,,,,,,,,2,,,65,0
11040,note_on,433,0,1,,,,,,,,,0,,,73,101
11087,note_on,47,0,1,,,,,,,,,0,,,73,0
11108,note_on,68,0,3,,,,,,,,,2,,,65,88
11177,note_on,69,0,3,,,,,,,,,2,,,65,0
11177,note_on,0,0,3,,,,,,,,,2,,,61,88
11245,note_on,68,0,3,,,,,,,,,2,,,61,0
11245,note_on,0,0,3,,,,,,,,,2,,,56,88
11280,control_change,193,0,1,,,,,,,,,0,64,0,,
11314,note_on,69,0,3,,,,,,,,,2,,,56,0
11314,note_on,0,0,3,,,,,,,,,2,,,53,88
11382,note_on,68,0,3,,,,,,,,,2,,,53,0
11382,note_on,0,0,3,,,,,,,,,2,,,49,88
11451,note_on,0,0,3,,,,,,,,,2,,,44,88
11451,note_on,69,0,3,,,,,,,,,2,,,49,0
11451,control_change,0,0,3,,,,,,,,,2,64,0,,
11520,control_change,240,0,1,,,,,,,,,0,64,127,,
11520,control_change,0,0,3,,,,,,,,,2,64,127,,
11520,note_on,69,0,3,,,,,,,,,2,,,44,0
11520,note_on,0,0,1,,,,,,,,,0,,,75,101
11520,note_on,0,0,3,,,,,,,,,2,,,37,88
11567,note_on,47,0,1,,,,,,,,,0,,,75,0
11588,note_on,68,0,3,,,,,,,,,2,,,37,0
11588,note_on,0,0,3,,,,,,,,,2,,,46,88
11657,note_on,0,0,3,,,,,,,,,2,,,49,88
11657,note_on,69,0,3,,,,,,,,,2,,,46,0
11725,note_on,0,0,3,,,,,,,,,2,,,54,88
11725,note_on,68,0,3,,,,,,,,,2,,,49,0
11794,note_on,69,0,3,,,,,,,,,2,,,54,0
11794,note_on,0,0,3,,,,,,,,,2,,,58,88
11862,note_on,68,0,3,,,,,,,,,2,,,58,0
11862,note_on,0,0,3,,,,,,,,,2,,,61,88
11931,note_on,69,0,3,,,,,,,,,2,,,61,0
11931,note_on,0,0,3,,,,,,,,,2,,,66,88
12000,note_on,433,0,1,,,,,,,,,0,,,77,101
12000,note_on,69,0,3,,,,,,,,,2,,,66,0
12047,note_on,47,0,1,,,,,,,,,0,,,77,0
12068,note_on,68,0,3,,,,,,,,,2,,,66,88
12137,note_on,69,0,3,,,,,,,,,2,,,66,0
12137,note_on,0,0,3,,,,,,,,,2,,,61,88
12205,note_on,68,0,3,,,,,,,,,2,,,61,0
12205,note_on,0,0,3,,,,,,,,,2,,,58,88
12274,note_on,0,0,3,,,,,,,,,2,,,54,88
12274,note_on,69,0,3,,,,,,,,,2,,,58,0
12342,note_on,0,0,3,,,,,,,,,2,,,49,88
12342,note_on,68,0,3,,,,,,,,,2,,,54,0
12411,note_on,0,0,3,,,,,,,,,2,,,46,88
12411,note_on,69,0,3,,,,,,,,,2,,,49,0
12480,note_on,0,0,3,,,,,,,,,2,,,37,88
12480,control_change,0,0,3,,,,,,,,,2,64,127,,
12480,note_on,433,0,1,,,,,,,,,0,,,75,101
12480,note_on,69,0,3,,,,,,,,,2,,,46,0
12527,note_on,47,0,1,,,,,,,,,0,,,75,0
12548,note_on,0,0,3,,,,,,,,,2,,,46,88
12548,note_on,68,0,3,,,,,,,,,2,,,37,0
12617,note_on,0,0,3,,,,,,,,,2,,,49,88
12617,note_on,69,0,3,,,,,,,,,2,,,46,0
12685,note_on,0,0,3,,,,,,,,,2,,,54,88
12685,note_on,68,0,3,,,,,,,,,2,,,49,0
12754,note_on,0,0,3,,,,,,,,,2,,,58,88
12754,note_on,69,0,3,,,,,,,,,2,,,54,0
12822,note_on,0,0,3,,,,,,,,,2,,,61,88
12822,note_on,68,0,3,,,,,,,,,2,,,58,0
12891,note_on,69,0,3,,,,,,,,,2,,,61,0
12891,note_on,0,0,3,,,,,,,,,2,,,66,88
12960,note_on,69,0,3,,,,,,,,,2,,,66,0
12960,note_on,433,0,1,,,,,,,,,0,,,70,88
13007,note_on,47,0,1,,,,,,,,,0,,,70,0
13028,note_on,68,0,3,,,,,,,,,2,,,66,62
13097,note_on,69,0,3,,,,,,,,,2,,,66,0
13097,note_on,0,0,3,,,,,,,,,2,,,61,62
13165,note_on,68,0,3,,,,,,,,,2,,,61,0
13165,note_on,0,0,3,,,,,,,,,2,,,58,62
13200,control_change,193,0,1,,,,,,,,,0,64,0,,
13234,note_on,0,0,3,,,,,,,,,2,,,54,62
13234,note_on,69,0,3,,,,,,,,,2,,,58,0
13302,note_on,0,0,3,,,,,,,,,2,,,49,62
13302,note_on,68,0,3,,,,,,,,,2,,,54,0
13371,note_on,0,0,3,,,,,,,,,2,,,46,62
13371,control_change,0,0,3,,,,,,,,,2,64,0,,
13371,note_on,69,0,3,,,,,,,,,2,,,49,0
13440,note_on,0,0,3,,,,,,,,,2,,,37,62
13440,note_on,240,0,1,,,,,,,,,0,,,73,88
13440,control_change,0,0,3,,,,,,,,,2,64,127,,
13440,note_on,69,0,3,,,,,,,,,2,,,46,0
13508,note_on,0,0,3,,,,,,,,,2,,,44,62
13508,note_on,68,0,3,,,,,,,,,2,,,37,0
13577,note_on,0,0,3,,,,,,,,,2,,,49,62
13577,note_on,69,0,3,,,,,,,,,2,,,44,0
13645,note_on,0,0,3,,,,,,,,,2,,,53,62
13645,note_on,68,0,3,,,,,,,,,2,,,49,0
13714,note_on,69,0,3,,,,,,,,,2,,,53,0
13714,note_on,0,0,3,,,,,,,,,2,,,56,62
13782,note_on,0,0,3,,,,,,,,,2,,,61,62
13782,note_on,68,0,3,,,,,,,,,2,,,56,0
13851,note_on,0,0,3,,,,,,,,,2,,,65,62
13851,note_on,69,0,3,,,,,,,,,2,,,61,0
13920,note_on,0,0,3,,,,,,,,,2,,,68,62
13920,note_on,69,0,3,,,,,,,,,2,,,65,0
13988,note_on,0,0,3,,,,,,,,,2,,,65,62
13988,note_on,68,0,3,,,,,,,,,2,,,68,0
14057,note_on,69,0,3,,,,,,,,,2,,,65,0
14057,note_on,0,0,3,,,,,,,,,2,,,61,62
14125,note_on,0,0,3,,,,,,,,,2,,,56,62
14125,note_on,68,0,3,,,,,,,,,2,,,61,0
14194,note_on,69,0,3,,,,,,,,,2,,,56,0
14194,note_on,0,0,3,,,,,,,,,2,,,53,62
14262,note_on,0,0,3,,,,,,,,,2,,,49,62
14262,note_on,68,0,3,,,,,,,,,2,,,53,0
14331,note_on,69,0,3,,,,,,,,,2,,,49,0
14331,note_on,0,0,3,,,,,,,,,2,,,44,62
14400,note_on,0,0,3,,,,,,,,,2,,,37,62
14400,note_on,69,0,3,,,,,,,,,2,,,44,0
14468,note_on,68,0,3,,,,,,,,,2,,,37,0
14468,note_on,0,0,3,,,,,,,,,2,,,44,62
14537,note_on,69,0,3,,,,,,,,,2,,,44,0
14537,note_on,0,0,3,,,,,,,,,2,,,49,62
14605,note_on,68,0,3,,,,,,,,,2,,,49,0
14605,note_on,0,0,3,,,,,,,,,2,,,53,62
14674,note_on,69,0,3,,,,,,,,,2,,,53,0
14674,note_on,0,0,3,,,,,,,,,2,,,56,62
14742,note_on,68,0,3,,,,,,,,,2,,,56,0
14742,note_on,0,0,3,,,,,,,,,2,,,61,62
14811,note_on,0,0,3,,,,,,,,,2,,,65,62
14811,note_on,69,0,3,,,,,,,,,2,,,61,0
14880,note_on,69,0,3,,,,,,,,,2,,,65,0
14880,note_on,0,0,3,,,,,,,,,2,,,68,62
14948,note_on,0,0,3,,,,,,,,,2,,,65,62
14948,note_on,68,0,3,,,,,,,,,2,,,68,0
15017,note_on,0,0,3,,,,,,,,,2,,,61,62
15017,note_on,69,0,3,,,,,,,,,2,,,65,0
15085,note_on,0,0,3,,,,,,,,,2,,,56,62
15085,note_on,68,0,3,,,,,,,,,2,,,61,0
15154,note_on,69,0,3,,,,,,,,,2,,,56,0
15154,note_on,0,0,3,,,,,,,,,2,,,53,62
15222,note_on,68,0,3,,,,,,,,,2,,,53,0
15222,note_on,0,0,3,,,,,,,,,2,,,49,62
15291,note_on,0,0,3,,,,,,,,,2,,,44,62
15291,note_on,69,0,3,,,,,,,,,2,,,49,0
15291,control_change,0,0,3,,,,,,,,,2,64,0,,
15360,control_change,0,0,1,,,,,,,,,0,64,127,,
15360,note_on,0,0,3,,,,,,,,,2,,,36,75
15360,note_on,15360,0,4,,,,,,,,,3,,,36,75
15360,note_on,69,0,3,,,,,,,,,2,,,44,0
15360,control_change,0,0,3,,,,,,,,,2,64,127,,
15360,note_on,1920,0,1,,,,,,,,,0,,,73,0
15420,note_on,0,0,3,,,,,,,,,2,,,45,75
15420,note_on,60,0,3,,,,,,,,,2,,,36,0
15480,note_on,0,0,3,,,,,,,,,2,,,51,75
15480,note_on,60,0,3,,,,,,,,,2,,,45,0
15540,note_on,60,0,3,,,,,,,,,2,,,51,0
15540,note_on,0,0,3,,,,,,,,,2,,,53,75
15600,note_on,60,0,3,,,,,,,,,2,,,53,0
15600,note_on,0,0,3,,,,,,,,,2,,,57,75
15660,note_on,0,0,3,,,,,,,,,2,,,63,75
15660,note_on,60,0,3,,,,,,,,,2,,,57,0
15720,note_on,60,0,3,,,,,,,,,2,,,63,0
15720,note_on,0,0,3,,,,,,,,,2,,,65,75
15780,note_on,0,0,3,,,,,,,,,2,,,69,75
15780,note_on,60,0,3,,,,,,,,,2,,,65,0
15840,note_on,60,0,3,,,,,,,,,2,,,69,0
15840,note_on,480,0,1,,,,,,,,,0,,,78,127
15887,note_on,47,0,1,,,,,,,,,0,,,78,0
15900,note_on,60,0,3,,,,,,,,,2,,,69,75
15960,note_on,60,0,3,,,,,,,,,2,,,69,0
15960,note_on,0,0,3,,,,,,,,,2,,,65,75
16020,note_on,60,0,3,,,,,,,,,2,,,65,0
16020,note_on,0,0,3,,,,,,,,,2,,,63,75
16080,note_on,60,0,3,,,,,,,,,2,,,63,0
16080,note_on,0,0,3,,,,,,,,,2,,,57,62
16140,note_on,60,0,3,,,,,,,,,2,,,57,0
16140,note_on,0,0,3,,,,,,,,,2,,,53,62
16200,note_on,0,0,3,,,,,,,,,2,,,51,62
16200,note_on,60,0,3,,,,,,,,,2,,,53,0
16260,note_on,60,0,3,,,,,,,,,2,,,51,0
16260,note_on,0,0,3,,,,,,,,,2,,,45,62
16260,control_change,0,0,3,,,,,,,,,2,64,0,,
16320,note_on,433,0,1,,,,,,,,,0,,,77,101
16320,note_on,0,0,4,,,,,,,,,3,,,33,75
16320,note_on,960,0,4,,,,,,,,,3,,,36,0
16320,note_on,60,0,3,,,,,,,,,2,,,45,0
16367,note_on,47,0,1,,,,,,,,,0,,,77,0
16388,note_on,0,0,3,,,,,,,,,2,,,48,62
16388,control_change,68,0,3,,,,,,,,,2,64,127,,
16457,note_on,69,0,3,,,,,,,,,2,,,48,0
16457,note_on,0,0,3,,,,,,,,,2,,,51,62
16525,note_on,0,0,3,,,,,,,,,2,,,53,62
16525,note_on,68,0,3,,,,,,,,,2,,,51,0
16594,note_on,0,0,3,,,,,,,,,2,,,60,62
16594,note_on,69,0,3,,,,,,,,,2,,,53,0
16662,note_on,68,0,3,,,,,,,,,2,,,60,0
16662,note_on,0,0,3,,,,,,,,,2,,,63,62
16731,note_on,69,0,3,,,,,,,,,2,,,63,0
16731,note_on,0,0,3,,,,,,,,,2,,,65,62
16800,note_on,433,0,1,,,,,,,,,0,,,72,88
16800,note_on,69,0,3,,,,,,,,,2,,,65,0
16847,note_on,47,0,1,,,,,,,,,0,,,72,0
16868,note_on,68,0,3,,,,,,,,,2,,,65,62
16937,note_on,69,0,3,,,,,,,,,2,,,65,0
16937,note_on,0,0,3,,,,,,,,,2,,,63,62
17005,note_on,0,0,3,,,,,,,,,2,,,60,62
17005,note_on,68,0,3,,,,,,,,,2,,,63,0
17040,control_change,193,0,1,,,,,,,,,0,64,0,,
17074,note_on,0,0,3,,,,,,,,,2,,,53,62
17074,note_on,69,0,3,,,,,,,,,2,,,60,0
17142,note_on,68,0,3,,,,,,,,,2,,,53,0
17142,note_on,0,0,3,,,,,,,,,2,,,51,62
17211,control_change,0,0,3,,,,,,,,,2,64,0,,
17211,note_on,69,0,3,,,,,,,,,2,,,51,0
17211,note_on,0,0,3,,,,,,,,,2,,,48,62
17280,note_on,69,0,3,,,,,,,,,2,,,48,0
17280,note_on,0,0,1,,,,,,,,,0,,,75,88
17280,note_on,960,0,4,,,,,,,,,3,,,33,0
17280,note_on,0,0,4,,,,,,,,,3,,,34,75
17280,control_change,240,0,1,,,,,,,,,0,64,127,,
17327,note_on,47,0,1,,,,,,,,,0,,,75,0
17348,control_change,68,0,3,,,,,,,,,2,64,127,,
17348,note_on,0,0,3,,,,,,,,,2,,,49,62
17417,note_on,0,0,3,,,,,,,,,2,,,53,62
17417,note_on,69,0,3,,,,,,,,,2,,,49,0
17485,note_on,0,0,3,,,,,,,,,2,,,58,62
17485,note_on,68,0,3,,,,,,,,,2,,,53,0
17554,note_on,0,0,3,,,,,,,,,2,,,61,62
17554,note_on,69,0,3,,,,,,,,,2,,,58,0
17622,note_on,68,0,3,,,,,,,,,2,,,61,0
17622,note_on,0,0,3,,,,,,,,,2,,,65,62
17691,note_on,69,0,3,,,,,,,,,2,,,65,0
17691,note_on,0,0,3,,,,,,,,,2,,,70,62
17760,note_on,69,0,3,,,,,,,,,2,,,70,0
17760,note_on,433,0,1,,,,,,,,,0,,,73,88
17807,note_on,47,0,1,,,,,,,,,0,,,73,0
17828,note_on,68,0,3,,,,,,,,,2,,,70,62
17897,note_on,69,0,3,,,,,,,,,2,,,70,0
17897,note_on,0,0,3,,,,,,,,,2,,,65,62
17965,note_on,0,0,3,,,,,,,,,2,,,61,62
17965,note_on,68,0,3,,,,,,,,,2,,,65,0
18034,note_on,69,0,3,,,,,,,,,2,,,61,0
18034,note_on,0,0,3,,,,,,,,,2,,,58,75
18102,note_on,0,0,3,,,,,,,,,2,,,53,75
18102,note_on,68,0,3,,,,,,,,,2,,,58,0
18171,control_change,0,0,3,,,,,,,,,2,64,0,,
18171,note_on,69,0,3,,,,,,,,,2,,,53,0
18171,note_on,0,0,3,,,,,,,,,2,,,49,75
18240,note_on,69,0,3,,,,,,,,,2,,,49,0
18240,note_on,433,0,1,,,,,,,,,0,,,80,101
18240,note_on,0,0,4,,,,,,,,,3,,,42,75
18240,note_on,960,0,4,,,,,,,,,3,,,34,0
18240,control_change,0,0,3,,,,,,,,,2,64,127,,
18240,note_on,0,0,3,,,,,,,,,2,,,42,75
18287,note_on,47,0,1,,,,,,,,,0,,,80,0
18308,note_on,68,0,3,,,,,,,,,2,,,42,0
18308,note_on,0,0,3,,,,,,,,,2,,,49,75
18377,note_on,69,0,3,,,,,,,,,2,,,49,0
18377,note_on,0,0,3,,,,,,,,,2,,,51,75
18445,note_on,68,0,3,,,,,,,,,2,,,51,0
18445,note_on,0,0,3,,,,,,,,,2,,,58,75
18514,note_on,0,0,3,,,,,,,,,2,,,61,75
18514,note_on,69,0,3,,,,,,,,,2,,,58,0
18582,note_on,0,0,3,,,,,,,,,2,,,63,75
18582,note_on,68,0,3,,,,,,,,,2,,,61,0
18651,note_on,0,0,3,,,,,,,,,2,,,70,75
18651,note_on,69,0,3,,,,,,,,,2,,,63,0
18720,note_on,69,0,3,,,,,,,,,2,,,70,0
18720,note_on,433,0,1,,,,,,,,,0,,,78,101
18767,note_on,47,0,1,,,,,,,,,0,,,78,0
18788,note_on,68,0,3,,,,,,,,,2,,,70,75
18857,note_on,0,0,3,,,,,,,,,2,,,63,75
18857,note_on,69,0,3,,,,,,,,,2,,,70,0
18925,note_on,0,0,3,,,,,,,,,2,,,61,75
18925,note_on,68,0,3,,,,,,,,,2,,,63,0
18960,control_change,193,0,1,,,,,,,,,0,64,0,,
18994,note_on,69,0,3,,,,,,,,,2,,,61,0
18994,note_on,0,0,3,,,,,,,,,2,,,58,75
19062,note_on,0,0,3,,,,,,,,,2,,,51,75
19062,note_on,68,0,3,,,,,,,,,2,,,58,0
19131,control_change,0,0,3,,,,,,,,,2,64,0,,
19131,note_on,0,0,3,,,,,,,,,2,,,49,75
19131,note_on,69,0,3,,,,,,,,,2,,,51,0
19200,note_on,0,0,1,,,,,,,,,0,,,68,88
19200,note_on,960,0,4,,,,,,,,,3,,,42,0
19200,control_change,0,0,3,,,,,,,,,2,64,127,,
19200,note_on,69,0,3,,,,,,,,,2,,,49,0
19200,time_signature,19200,1,0,5,4,24,8,,,,,,,,,
19200,control_change,240,0,1,,,,,,,,,0,64,127,,
19200,note_on,0,0,3,,,,,,,,,2,,,44,62
19280,note_on,0,0,3,,,,,,,,,2,,,53,62
19280,note_on,80,0,3,,,,,,,,,2,,,44,0
19359,note_on,0,0,3,,,,,,,,,2,,,56,62
19359,note_on,79,0,3,,,,,,,,,2,,,53,0
19440,note_on,0,0,3,,,,,,,,,2,,,61,62
19440,set_tempo,240,1,0,,,,,,618557,,,,,,,
19440,note_on,81,0,3,,,,,,,,,2,,,56,0
19520,note_on,80,0,3,,,,,,,,,2,,,61,0
19520,note_on,0,0,3,,,,,,,,,2,,,61,62
19599,note_on,79,0,3,,,,,,,,,2,,,61,0
19599,note_on,0,0,3,,,,,,,,,2,,,65,62
19680,note_on,480,0,1,,,,,,,,,0,,,68,0
19680,note_on,81,0,3,,,,,,,,,2,,,65,0
19680,set_tempo,240,1,0,,,,,,638298,,,,,,,
19680,note_on,0,0,1,,,,,,,,,0,,,67,88
19760,note_on,80,0,3,,,,,,,,,2,,,65,62
19839,note_on,0,0,3,,,,,,,,,2,,,61,62
19839,note_on,79,0,3,,,,,,,,,2,,,65,0
19920,set_tempo,240,1,0,,,,,,659341,,,,,,,
19920,note_on,81,0,3,,,,,,,,,2,,,61,0
19920,note_on,0,0,3,,,,,,,,,2,,,61,75
20000,note_on,80,0,3,,,,,,,,,2,,,61,0
20000,note_on,0,0,3,,,,,,,,,2,,,56,75
20040,note_on,0,0,1,,,,,,,,,0,,,68,101
20040,note_on,360,0,1,,,,,,,,,0,,,67,0
20079,note_on,0,0,3,,,,,,,,,2,,,53,75
20079,note_on,79,0,3,,,,,,,,,2,,,56,0
20079,control_change,0,0,3,,,,,,,,,2,64,0,,
20100,note_on,0,0,1,,,,,,,,,0,,,68,101
20100,note_on,60,0,1,,,,,,,,,0,,,68,0
20160,control_change,0,0,3,,,,,,,,,2,64,127,,
20160,note_on,0,0,1,,,,,,,,,0,,,77,101
20160,set_tempo,240,1,0,,,,,,689655,,,,,,,
20160,note_on,60,0,1,,,,,,,,,0,,,68,0
20160,note_on,0,0,3,,,,,,,,,2,,,44,75
20160,note_on,81,0,3,,,,,,,,,2,,,53,0
20228,note_on,0,0,3,,,,,,,,,2,,,54,75
20228,note_on,68,0,3,,,,,,,,,2,,,44,0
20297,note_on,69,0,3,,,,,,,,,2,,,54,0
20297,note_on,0,0,3,,,,,,,,,2,,,56,75
20365,note_on,0,0,3,,,,,,,,,2,,,60,75
20365,note_on,68,0,3,,,,,,,,,2,,,56,0
20400,set_tempo,240,1,0,,,,,,714286,,,,,,,
20434,note_on,0,0,3,,,,,,,,,2,,,60,75
20434,note_on,69,0,3,,,,,,,,,2,,,60,0
20502,note_on,0,0,3,,,,,,,,,2,,,66,75
20502,note_on,68,0,3,,,,,,,,,2,,,60,0
20571,note_on,69,0,3,,,,,,,,,2,,,66,0
20571,note_on,0,0,3,,,,,,,,,2,,,68,75
20640,note_on,480,0,1,,,,,,,,,0,,,77,0
20640,note_on,69,0,3,,,,,,,,,2,,,68,0
20640,set_tempo,240,1,0,,,,,,740741,,,,,,,
20640,note_on,0,0,1,,,,,,,,,0,,,77,101
20708,note_on,68,0,3,,,,,,,,,2,,,68,75
20777,note_on,69,0,3,,,,,,,,,2,,,68,0
20777,note_on,0,0,3,,,,,,,,,2,,,66,75
20845,note_on,0,0,3,,,,,,,,,2,,,60,75
20845,note_on,68,0,3,,,,,,,,,2,,,66,0
20880,set_tempo,240,1,0,,,,,,769231,,,,,,,
20914,note_on,69,0,3,,,,,,,,,2,,,60,0
20914,note_on,0,0,3,,,,,,,,,2,,,60,62
20982,note_on,0,0,3,,,,,,,,,2,,,56,62
20982,note_on,68,0,3,,,,,,,,,2,,,60,0
21051,note_on,69,0,3,,,,,,,,,2,,,56,0
21051,note_on,0,0,3,,,,,,,,,2,,,54,62
21120,set_tempo,240,1,0,,,,,,810811,,,,,,,
21120,note_on,69,0,3,,,,,,,,,2,,,54,0
21360,control_change,240,0,3,,,,,,,,,2,64,0,,
21480,note_on,0,0,1,,,,,,,,,0,,,75,88
21480,note_on,840,0,1,,,,,,,,,0,,,77,0
21480,control_change,0,0,1,,,,,,,,,0,64,0,,
21600,note_on,120,0,1,,,,,,,,,0,,,75,0
21600,time_signature,480,1,0,4,4,24,8,,,,,,,,,
21600,control_change,240,0,3,,,,,,,,,2,64,127,,
21600,note_on,0,0,3,,,,,,,,,2,,,37,62
21600,note_on,0,0,1,,,,,,,,,0,,,73,114
21600,set_tempo,0,1,0,,,,,,600000,,,,,,,
21668,note_on,68,0,3,,,,,,,,,2,,,37,0
21668,note_on,0,0,3,,,,,,,,,2,,,44,62
21737,note_on,0,0,3,,,,,,,,,2,,,49,62
21737,note_on,69,0,3,,,,,,,,,2,,,44,0
21805,note_on,0,0,3,,,,,,,,,2,,,53,62
21805,note_on,68,0,3,,,,,,,,,2,,,49,0
21874,note_on,0,0,3,,,,,,,,,2,,,56,62
21874,note_on,69,0,3,,,,,,,,,2,,,53,0
21942,note_on,0,0,3,,,,,,,,,2,,,61,62
21942,note_on,68,0,3,,,,,,,,,2,,,56,0
22011,note_on,0,0,3,,,,,,,,,2,,,65,62
22011,note_on,69,0,3,,,,,,,,,2,,,61,0
22080,note_on,0,0,3,,,,,,,,,2,,,68,62
22080,note_on,69,0,3,,,,,,,,,2,,,65,0
22148,note_on,68,0,3,,,,,,,,,2,,,68,0
22148,note_on,0,0,3,,,,,,,,,2,,,65,62
22217,note_on,0,0,3,,,,,,,,,2,,,61,62
22217,note_on,69,0,3,,,,,,,,,2,,,65,0
22285,note_on,68,0,3,,,,,,,,,2,,,61,0
22285,note_on,0,0,3,,,,,,,,,2,,,56,62
22354,note_on,0,0,3,,,,,,,,,2,,,53,75
22354,note_on,69,0,3,,,,,,,,,2,,,56,0
22422,note_on,0,0,3,,,,,,,,,2,,,49,75
22422,note_on,68,0,3,,,,,,,,,2,,,53,0
22491,note_on,69,0,3,,,,,,,,,2,,,49,0
22491,note_on,0,0,3,,,,,,,,,2,,,44,75
22560,note_on,0,0,3,,,,,,,,,2,,,37,75
22560,note_on,69,0,3,,,,,,,,,2,,,44,0
22628,note_on,68,0,3,,,,,,,,,2,,,37,0
22628,note_on,0,0,3,,,,,,,,,2,,,44,75
22697,note_on,0,0,3,,,,,,,,,2,,,49,75
22697,note_on,69,0,3,,,,,,,,,2,,,44,0
22765,note_on,0,0,3,,,,,,,,,2,,,53,75
22765,note_on,68,0,3,,,,,,,,,2,,,49,0
22834,note_on,0,0,3,,,,,,,,,2,,,56,62
22834,note_on,69,0,3,,,,,,,,,2,,,53,0
22902,note_on,0,0,3,,,,,,,,,2,,,61,62
22902,note_on,68,0,3,,,,,,,,,2,,,56,0
22971,note_on,69,0,3,,,,,,,,,2,,,61,0
22971,note_on,0,0,3,,,,,,,,,2,,,65,62
23040,note_on,0,0,3,,,,,,,,,2,,,68,62
23040,note_on,69,0,3,,,,,,,,,2,,,65,0
23108,note_on,68,0,3,,,,,,,,,2,,,68,0
23108,note_on,0,0,3,,,,,,,,,2,,,65,62
23177,note_on,69,0,3,,,,,,,,,2,,,65,0
23177,note_on,0,0,3,,,,,,,,,2,,,61,62
23245,note_on,68,0,3,,,,,,,,,2,,,61,0
23245,note_on,0,0,3,,,,,,,,,2,,,56,62
23314,note_on,69,0,3,,,,,,,,,2,,,56,0
23314,note_on,0,0,3,,,,,,,,,2,,,53,62
23382,note_on,68,0,3,,,,,,,,,2,,,53,0
23382,note_on,0,0,3,,,,,,,,,2,,,49,62
23451,control_change,0,0,3,,,,,,,,,2,64,0,,
23451,note_on,0,0,3,,,,,,,,,2,,,44,62
23451,note_on,69,0,3,,,,,,,,,2,,,49,0
23520,control_change,0,0,3,,,,,,,,,2,64,127,,
23520,note_on,0,0,3,,,,,,,,,2,,,37,62
23520,note_on,69,0,3,,,,,,,,,2,,,44,0
23520,note_on,1920,0,1,,,,,,,,,0,,,73,0
23588,note_on,0,0,3,,,,,,,,,2,,,44,62
23588,note_on,68,0,3,,,,,,,,,2,,,37,0
23657,note_on,0,0,3,,,,,,,,,2,,,49,62
23657,note_on,69,0,3,,,,,,,,,2,,,44,0
23725,note_on,0,0,3,,,,,,,,,2,,,53,62
23725,note_on,68,0,3,,,,,,,,,2,,,49,0
23794,note_on,0,0,3,,,,,,,,,2,,,56,62
23794,note_on,69,0,3,,,,,,,,,2,,,53,0
23862,note_on,0,0,3,,,,,,,,,2,,,61,62
23862,note_on,68,0,3,,,,,,,,,2,,,56,0
23931,note_on,0,0,3,,,,,,,,,2,,,65,62
23931,note_on,69,0,3,,,,,,,,,2,,,61,0
24000,note_on,69,0,3,,,,,,,,,2,,,65,0
24000,note_on,0,0,1,,,,,,,,,0,,,68,88
24000,control_change,480,0,1,,,,,,,,,0,64,127,,
24031,note_on,31,0,1,,,,,,,,,0,,,68,0
24068,note_on,68,0,3,,,,,,,,,2,,,65,62
24137,note_on,69,0,3,,,,,,,,,2,,,65,0
24137,note_on,0,0,3,,,,,,,,,2,,,61,62
24159,note_on,128,0,1,,,,,,,,,0,,,80,88
24191,note_on,32,0,1,,,,,,,,,0,,,80,0
24205,note_on,0,0,3,,,,,,,,,2,,,56,62
24205,note_on,68,0,3,,,,,,,,,2,,,61,0
24274,note_on,69,0,3,,,,,,,,,2,,,56,0
24274,note_on,0,0,3,,,,,,,,,2,,,53,62
24342,note_on,68,0,3,,,,,,,,,2,,,53,0
24342,note_on,0,0,3,,,,,,,,,2,,,49,62
24411,note_on,69,0,3,,,,,,,,,2,,,49,0
24411,note_on,0,0,3,,,,,,,,,2,,,44,62
24480,note_on,289,0,1,,,,,,,,,0,,,70,88
24480,note_on,69,0,3,,,,,,,,,2,,,44,0
24480,note_on,0,0,3,,,,,,,,,2,,,37,62
24511,note_on,31,0,1,,,,,,,,,0,,,70,0
24548,note_on,68,0,3,,,,,,,,,2,,,37,0
24548,note_on,0,0,3,,,,,,,,,2,,,44,62
24617,note_on,0,0,3,,,,,,,,,2,,,49,62
24617,note_on,69,0,3,,,,,,,,,2,,,44,0
24639,note_on,128,0,1,,,,,,,,,0,,,82,88
24671,note_on,32,0,1,,,,,,,,,0,,,82,0
24685,note_on,68,0,3,,,,,,,,,2,,,49,0
24685,note_on,0,0,3,,,,,,,,,2,,,53,62
24754,note_on,0,0,3,,,,,,,,,2,,,56,62
24754,note_on,69,0,3,,,,,,,,,2,,,53,0
24822,note_on,68,0,3,,,,,,,,,2,,,56,0
24822,note_on,0,0,3,,,,,,,,,2,,,61,62
24891,note_on,0,0,3,,,,,,,,,2,,,65,62
24891,note_on,69,0,3,,,,,,,,,2,,,61,0
24960,note_on,69,0,3,,,,,,,,,2,,,65,0
24960,note_on,289,0,1,,,,,,,,,0,,,73,88
24991,note_on,31,0,1,,,,,,,,,0,,,73,0
25028,note_on,68,0,3,,,,,,,,,2,,,65,62
25097,note_on,0,0,3,,,,,,,,,2,,,61,62
25097,note_on,69,0,3,,,,,,,,,2,,,65,0
25119,note_on,128,0,1,,,,,,,,,0,,,85,88
25151,note_on,32,0,1,,,,,,,,,0,,,85,0
25165,note_on,68,0,3,,,,,,,,,2,,,61,0
25165,note_on,0,0,3,,,,,,,,,2,,,56,62
25234,note_on,0,0,3,,,,,,,,,2,,,53,62
25234,note_on,69,0,3,,,,,,,,,2,,,56,0
25280,control_change,129,0,1,,,,,,,,,0,64,0,,
25302,note_on,0,0,3,,,,,,,,,2,,,49,62
25302,note_on,68,0,3,,,,,,,,,2,,,53,0
25371,note_on,0,0,3,,,,,,,,,2,,,44,62
25371,note_on,69,0,3,,,,,,,,,2,,,49,0
25371,control_change,0,0,3,,,,,,,,,2,64,0,,
25440,note_on,0,0,1,,,,,,,,,0,,,75,88
25440,control_change,160,0,1,,,,,,,,,0,64,127,,
25440,note_on,0,0,3,,,,,,,,,2,,,37,62
25440,note_on,69,0,3,,,,,,,,,2,,,44,0
25440,control_change,0,0,3,,,,,,,,,2,64,127,,
25471,note_on,31,0,1,,,,,,,,,0,,,75,0
25508,note_on,68,0,3,,,,,,,,,2,,,37,0
25508,note_on,0,0,3,,,,,,,,,2,,,46,62
25577,note_on,0,0,3,,,,,,,,,2,,,49,62
25577,note_on,69,0,3,,,,,,,,,2,,,46,0
25599,note_on,128,0,1,,,,,,,,,0,,,87,88
25631,note_on,32,0,1,,,,,,,,,0,,,87,0
25645,note_on,68,0,3,,,,,,,,,2,,,49,0
25645,note_on,0,0,3,,,,,,,,,2,,,54,62
25714,note_on,69,0,3,,,,,,,,,2,,,54,0
25714,note_on,0,0,3,,,,,,,,,2,,,58,62
25782,note_on,0,0,3,,,,,,,,,2,,,61,62
25782,note_on,68,0,3,,,,,,,,,2,,,58,0
25851,note_on,0,0,3,,,,,,,,,2,,,66,62
25851,note_on,69,0,3,,,,,,,,,2,,,61,0
25920,note_on,69,0,3,,,,,,,,,2,,,66,0
25920,note_on,289,0,1,,,,,,,,,0,,,77,88
25951,note_on,31,0,1,,,,,,,,,0,,,77,0
25988,note_on,68,0,3,,,,,,,,,2,,,66,62
26057,note_on,69,0,3,,,,,,,,,2,,,66,0
26057,note_on,0,0,3,,,,,,,,,2,,,61,62
26079,note_on,128,0,1,,,,,,,,,0,,,89,88
26111,note_on,32,0,1,,,,,,,,,0,,,89,0
26125,note_on,0,0,3,,,,,,,,,2,,,58,62
26125,note_on,68,0,3,,,,,,,,,2,,,61,0
26194,note_on,0,0,3,,,,,,,,,2,,,54,62
26194,note_on,69,0,3,,,,,,,,,2,,,58,0
26262,note_on,68,0,3,,,,,,,,,2,,,54,0
26262,note_on,0,0,3,,,,,,,,,2,,,49,62
26331,note_on,0,0,3,,,,,,,,,2,,,46,62
26331,note_on,69,0,3,,,,,,,,,2,,,49,0
26400,note_on,289,0,1,,,,,,,,,0,,,75,88
26400,control_change,0,0,3,,,,,,,,,2,64,127,,
26400,note_on,69,0,3,,,,,,,,,2,,,46,0
26400,note_on,0,0,3,,,,,,,,,2,,,37,62
26431,note_on,31,0,1,,,,,,,,,0,,,75,0
26468,note_on,68,0,3,,,,,,,,,2,,,37,0
26468,note_on,0,0,3,,,,,,,,,2,,,46,62
26537,note_on,0,0,3,,,,,,,,,2,,,49,62
26537,note_on,69,0,3,,,,,,,,,2,,,46,0
26559,note_on,128,0,1,,,,,,,,,0,,,87,88
26591,note_on,32,0,1,,,,,,,,,0,,,87,0
26605,note_on,68,0,3,,,,,,,,,2,,,49,0
26605,note_on,0,0,3,,,,,,,,,2,,,54,62
26674,note_on,69,0,3,,,,,,,,,2,,,54,0
26674,note_on,0,0,3,,,,,,,,,2,,,58,62
26742,note_on,0,0,3,,,,,,,,,2,,,61,62
26742,note_on,68,0,3,,,,,,,,,2,,,58,0
26811,note_on,0,0,3,,,,,,,,,2,,,66,62
26811,note_on,69,0,3,,,,,,,,,2,,,61,0
26880,note_on,289,0,1,,,,,,,,,0,,,70,88
26880,note_on,69,0,3,,,,,,,,,2,,,66,0
26911,note_on,31,0,1,,,,,,,,,0,,,70,0
26948,note_on,68,0,3,,,,,,,,,2,,,66,62
27017,note_on,0,0,3,,,,,,,,,2,,,61,62
27017,note_on,69,0,3,,,,,,,,,2,,,66,0
27039,note_on,128,0,1,,,,,,,,,0,,,82,88
27071,note_on,32,0,1,,,,,,,,,0,,,82,0
27085,note_on,0,0,3,,,,,,,,,2,,,58,62
27085,note_on,68,0,3,,,,,,,,,2,,,61,0
27154,note_on,0,0,3,,,,,,,,,2,,,54,62
27154,note_on,69,0,3,,,,,,,,,2,,,58,0
27200,control_change,129,0,1,,,,,,,,,0,64,0,,
27222,note_on,0,0,3,,,,,,,,,2,,,49,62
27222,note_on,68,0,3,,,,,,,,,2,,,54,0
27291,note_on,69,0,3,,,,,,,,,2,,,49,0
27291,note_on,0,0,3,,,,,,,,,2,,,46,62
27291,control_change,0,0,3,,,,,,,,,2,64,0,,
27360,control_change,160,0,1,,,,,,,,,0,64,127,,
27360,note_on,0,0,1,,,,,,,,,0,,,73,88
27360,control_change,0,0,3,,,,,,,,,2,64,127,,
27360,note_on,0,0,3,,,,,,,,,2,,,37,62
27360,note_on,69,0,3,,,,,,,,,2,,,46,0
27428,note_on,68,0,3,,,,,,,,,2,,,37,0
27428,note_on,0,0,3,,,,,,,,,2,,,44,62
27497,note_on,0,0,3,,,,,,,,,2,,,49,62
27497,note_on,69,0,3,,,,,,,,,2,,,44,0
27519,note_on,159,0,1,,,,,,,,,0,,,73,0
27519,note_on,0,0,1,,,,,,,,,0,,,85,88
27565,note_on,68,0,3,,,,,,,,,2,,,49,0
27565,note_on,0,0,3,,,,,,,,,2,,,53,62
27634,note_on,0,0,3,,,,,,,,,2,,,56,62
27634,note_on,69,0,3,,,,,,,,,2,,,53,0
27680,note_on,161,0,1,,,,,,,,,0,,,85,0
27702,note_on,0,0,3,,,,,,,,,2,,,61,62
27702,note_on,68,0,3,,,,,,,,,2,,,56,0
27771,note_on,69,0,3,,,,,,,,,2,,,61,0
27771,note_on,0,0,3,,,,,,,,,2,,,65,62
27840,note_on,69,0,3,,,,,,,,,2,,,65,0
27840,note_on,0,0,3,,,,,,,,,2,,,68,62
27908,note_on,68,0,3,,,,,,,,,2,,,68,0
27908,note_on,0,0,3,,,,,,,,,2,,,65,62
27977,note_on,0,0,3,,,,,,,,,2,,,61,62
27977,note_on,69,0,3,,,,,,,,,2,,,65,0
28045,note_on,0,0,3,,,,,,,,,2,,,56,62
28045,note_on,68,0,3,,,,,,,,,2,,,61,0
28114,note_on,0,0,3,,,,,,,,,2,,,53,75
28114,note_on,69,0,3,,,,,,,,,2,,,56,0
28182,note_on,0,0,3,,,,,,,,,2,,,49,75
28182,note_on,68,0,3,,,,,,,,,2,,,53,0
28251,note_on,0,0,3,,,,,,,,,2,,,44,75
28251,note_on,69,0,3,,,,,,,,,2,,,49,0
28320,note_on,0,0,3,,,,,,,,,2,,,37,75
28320,note_on,69,0,3,,,,,,,,,2,,,44,0
28388,note_on,68,0,3,,,,,,,,,2,,,37,0
28388,note_on,0,0,3,,,,,,,,,2,,,44,75
28457,note_on,0,0,3,,,,,,,,,2,,,49,75
28457,note_on,69,0,3,,,,,,,,,2,,,44,0
28525,note_on,68,0,3,,,,,,,,,2,,,49,0
28525,note_on,0,0,3,,,,,,,,,2,,,53,75
28594,note_on,69,0,3,,,,,,,,,2,,,53,0
28594,note_on,0,0,3,,,,,,,,,2,,,56,62
28662,note_on,68,0,3,,,,,,,,,2,,,56,0
28662,note_on,0,0,3,,,,,,,,,2,,,61,62
28731,note_on,69,0,3,,,,,,,,,2,,,61,0
28731,note_on,0,0,3,,,,,,,,,2,,,65,62
28800,note_on,69,0,3,,,,,,,,,2,,,65,0
28800,control_change,1120,0,1,,,,,,,,,0,64,0,,
28800,note_on,0,0,3,,,,,,,,,2,,,68,62
28868,note_on,68,0,3,,,,,,,,,2,,,68,0
28868,note_on,0,0,3,,,,,,,,,2,,,65,62
28937,note_on,0,0,3,,,,,,,,,2,,,61,62
28937,note_on,69,0,3,,,,,,,,,2,,,65,0
29005,note_on,0,0,3,,,,,,,,,2,,,56,62
29005,note_on,68,0,3,,,,,,,,,2,,,61,0
29074,note_on,0,0,3,,,,,,,,,2,,,53,62
29074,note_on,69,0,3,,,,,,,,,2,,,56,0
29142,note_on,0,0,3,,,,,,,,,2,,,49,62
29142,note_on,68,0,3,,,,,,,,,2,,,53,0
29211,note_on,0,0,3,,,,,,,,,2,,,44,62
29211,note_on,69,0,3,,,,,,,,,2,,,49,0
29211,control_change,0,0,3,,,,,,,,,2,64,0,,
29280,note_on,0,0,3,,,,,,,,,2,,,37,62
29280,control_change,0,0,3,,,,,,,,,2,64,127,,
29280,note_on,69,0,3,,,,,,,,,2,,,44,0
29348,note_on,0,0,3,,,,,,,,,2,,,44,62
29348,note_on,68,0,3,,,,,,,,,2,,,37,0
29417,note_on,69,0,3,,,,,,,,,2,,,44,0
29417,note_on,0,0,3,,,,,,,,,2,,,49,62
29485,note_on,0,0,3,,,,,,,,,2,,,53,62
29485,note_on,68,0,3,,,,,,,,,2,,,49,0
29554,note_on,69,0,3,,,,,,,,,2,,,53,0
29554,note_on,0,0,3,,,,,,,,,2,,,56,62
29622,note_on,0,0,3,,,,,,,,,2,,,61,62
29622,note_on,68,0,3,,,,,,,,,2,,,56,0
29691,note_on,69,0,3,,,,,,,,,2,,,61,0
29691,note_on,0,0,3,,,,,,,,,2,,,65,62
29760,note_on,0,0,1,,,,,,,,,0,,,68,88
29760,control_change,960,0,1,,,,,,,,,0,64,127,,
29760,note_on,69,0,3,,,,,,,,,2,,,65,0
29791,note_on,31,0,1,,,,,,,,,0,,,68,0
29828,note_on,68,0,3,,,,,,,,,2,,,65,62
29897,note_on,0,0,3,,,,,,,,,2,,,61,62
29897,note_on,69,0,3,,,,,,,,,2,,,65,0
29919,note_on,128,0,1,,,,,,,,,0,,,80,88
29951,note_on,32,0,1,,,,,,,,,0,,,80,0
29965,note_on,68,0,3,,,,,,,,,2,,,61,0
29965,note_on,0,0,3,,,,,,,,,2,,,56,62
30034,note_on,69,0,3,,,,,,,,,2,,,56,0
30034,note_on,0,0,3,,,,,,,,,2,,,53,62
30102,note_on,0,0,3,,,,,,,,,2,,,49,62
30102,note_on,68,0,3,,,,,,,,,2,,,53,0
30171,note_on,0,0,3,,,,,,,,,2,,,44,62
30171,note_on,69,0,3,,,,,,,,,2,,,49,0
30240,note_on,0,0,3,,,,,,,,,2,,,37,75
30240,note_on,69,0,3,,,,,,,,,2,,,44,0
30240,note_on,289,0,1,,,,,,,,,0,,,70,88
30271,note_on,31,0,1,,,,,,,,,0,,,70,0
30308,note_on,0,0,3,,,,,,,,,2,,,44,75
30308,note_on,68,0,3,,,,,,,,,2,,,37,0
30377,note_on,69,0,3,,,,,,,,,2,,,44,0
30377,note_on,0,0,3,,,,,,,,,2,,,49,75
30399,note_on,128,0,1,,,,,,,,,0,,,82,88
30431,note_on,32,0,1,,,,,,,,,0,,,82,0
30445,note_on,68,0,3,,,,,,,,,2,,,49,0
30445,note_on,0,0,3,,,,,,,,,2,,,53,75
30514,note_on,69,0,3,,,,,,,,,2,,,53,0
30514,note_on,0,0,3,,,,,,,,,2,,,56,75
30582,note_on,0,0,3,,,,,,,,,2,,,61,75
30582,note_on,68,0,3,,,,,,,,,2,,,56,0
30651,note_on,69,0,3,,,,,,,,,2,,,61,0
30651,note_on,0,0,3,,,,,,,,,2,,,65,75
30720,note_on,69,0,3,,,,,,,,,2,,,65,0
30720,note_on,289,0,1,,,,,,,,,0,,,73,88
30751,note_on,31,0,1,,,,,,,,,0,,,73,0
30788,note_on,68,0,3,,,,,,,,,2,,,65,75
30857,note_on,69,0,3,,,,,,,,,2,,,65,0
30857,note_on,0,0,3,,,,,,,,,2,,,61,75
30879,note_on,128,0,1,,,,,,,,,0,,,85,88
30911,note_on,32,0,1,,,,,,,,,0,,,85,0
30925,note_on,68,0,3,,,,,,,,,2,,,61,0
30925,note_on,0,0,3,,,,,,,,,2,,,56,75
30994,note_on,0,0,3,,,,,,,,,2,,,53,75
30994,note_on,69,0,3,,,,,,,,,2,,,56,0
31040,control_change,129,0,1,,,,,,,,,0,64,0,,
31062,note_on,68,0,3,,,,,,,,,2,,,53,0
31062,note_on,0,0,3,,,,,,,,,2,,,49,75
31131,note_on,69,0,3,,,,,,,,,2,,,49,0
31131,note_on,0,0,3,,,,,,,,,2,,,44,75
31131,control_change,0,0,3,,,,,,,,,2,64,0,,
31200,note_on,69,0,3,,,,,,,,,2,,,44,0
31200,note_on,0,0,3,,,,,,,,,2,,,37,62
31200,control_change,0,0,3,,,,,,,,,2,64,127,,
31200,control_change,160,0,1,,,,,,,,,0,64,127,,
31200,note_on,0,0,1,,,,,,,,,0,,,75,88
31231,note_on,31,0,1,,,,,,,,,0,,,75,0
31268,note_on,68,0,3,,,,,,,,,2,,,37,0
31268,note_on,0,0,3,,,,,,,,,2,,,46,62
31337,note_on,0,0,3,,,,,,,,,2,,,49,62
31337,note_on,69,0,3,,,,,,,,,2,,,46,0
31359,note_on,128,0,1,,,,,,,,,0,,,87,88
31391,note_on,32,0,1,,,,,,,,,0,,,87,0
31405,note_on,0,0,3,,,,,,,,,2,,,54,62
31405,note_on,68,0,3,,,,,,,,,2,,,49,0
31474,note_on,69,0,3,,,,,,,,,2,,,54,0
31474,note_on,0,0,3,,,,,,,,,2,,,58,62
31542,note_on,68,0,3,,,,,,,,,2,,,58,0
31542,note_on,0,0,3,,,,,,,,,2,,,61,62
31611,note_on,69,0,3,,,,,,,,,2,,,61,0
31611,note_on,0,0,3,,,,,,,,,2,,,66,62
31680,note_on,289,0,1,,,,,,,,,0,,,77,88
31680,note_on,69,0,3,,,,,,,,,2,,,66,0
31711,note_on,31,0,1,,,,,,,,,0,,,77,0
31748,note_on,68,0,3,,,,,,,,,2,,,66,62
31817,note_on,69,0,3,,,,,,,,,2,,,66,0
31817,note_on,0,0,3,,,,,,,,,2,,,61,62
31839,note_on,128,0,1,,,,,,,,,0,,,89,88
31871,note_on,32,0,1,,,,,,,,,0,,,89,0
31885,note_on,68,0,3,,,,,,,,,2,,,61,0
31885,note_on,0,0,3,,,,,,,,,2,,,58,62
31954,note_on,69,0,3,,,,,,,,,2,,,58,0
31954,note_on,0,0,3,,,,,,,,,2,,,54,62
32022,note_on,0,0,3,,,,,,,,,2,,,49,62
32022,note_on,68,0,3,,,,,,,,,2,,,54,0
32091,note_on,69,0,3,,,,,,,,,2,,,49,0
32091,note_on,0,0,3,,,,,,,,,2,,,46,62
32160,note_on,0,0,3,,,,,,,,,2,,,37,62
32160,control_change,0,0,3,,,,,,,,,2,64,127,,
32160,note_on,289,0,1,,,,,,,,,0,,,75,88
32160,note_on,69,0,3,,,,,,,,,2,,,46,0
32191,note_on,31,0,1,,,,,,,,,0,,,75,0
32228,note_on,68,0,3,,,,,,,,,2,,,37,0
32228,note_on,0,0,3,,,,,,,,,2,,,46,62
32297,note_on,0,0,3,,,,,,,,,2,,,49,62
32297,note_on,69,0,3,,,,,,,,,2,,,46,0
32319,note_on,128,0,1,,,,,,,,,0,,,87,88
32351,note_on,32,0,1,,,,,,,,,0,,,87,0
32365,note_on,0,0,3,,,,,,,,,2,,,54,62
32365,note_on,68,0,3,,,,,,,,,2,,,49,0
32434,note_on,0,0,3,,,,,,,,,2,,,58,62
32434,note_on,69,0,3,,,,,,,,,2,,,54,0
32502,note_on,0,0,3,,,,,,,,,2,,,61,62
32502,note_on,68,0,3,,,,,,,,,2,,,58,0
32571,note_on,69,0,3,,,,,,,,,2,,,61,0
32571,note_on,0,0,3,,,,,,,,,2,,,66,62
32640,note_on,69,0,3,,,,,,,,,2,,,66,0
32640,note_on,289,0,1,,,,,,,,,0,,,70,88
32671,note_on,31,0,1,,,,,,,,,0,,,70,0
32708,note_on,68,0,3,,,,,,,,,2,,,66,62
32777,note_on,69,0,3,,,,,,,,,2,,,66,0
32777,note_on,0,0,3,,,,,,,,,2,,,61,62
32799,note_on,128,0,1,,,,,,,,,0,,,82,88
32831,note_on,32,0,1,,,,,,,,,0,,,82,0
32845,note_on,0,0,3,,,,,,,,,2,,,58,62
32845,note_on,68,0,3,,,,,,,,,2,,,61,0
32914,note_on,0,0,3,,,,,,,,,2,,,54,62
32914,note_on,69,0,3,,,,,,,,,2,,,58,0
32960,control_change,129,0,1,,,,,,,,,0,64,0,,
32982,note_on,0,0,3,,,,,,,,,2,,,49,62
32982,note_on,68,0,3,,,,,,,,,2,,,54,0
33051,note_on,0,0,3,,,,,,,,,2,,,46,62
33051,note_on,69,0,3,,,,,,,,,2,,,49,0
33051,control_change,0,0,3,,,,,,,,,2,64,0,,
33120,note_on,0,0,3,,,,,,,,,2,,,37,62
33120,control_change,0,0,3,,,,,,,,,2,64,127,,
33120,note_on,0,0,1,,,,,,,,,0,,,73,88
33120,control_change,160,0,1,,,,,,,,,0,64,127,,
33120,note_on,69,0,3,,,,,,,,,2,,,46,0
33188,note_on,68,0,3,,,,,,,,,2,,,37,0
33188,note_on,0,0,3,,,,,,,,,2,,,44,62
33257,note_on,0,0,3,,,,,,,,,2,,,49,62
33257,note_on,69,0,3,,,,,,,,,2,,,44,0
33279,note_on,0,0,1,,,,,,,,,0,,,85,88
33279,note_on,159,0,1,,,,,,,,,0,,,73,0
33325,note_on,0,0,3,,,,,,,,,2,,,53,62
33325,note_on,68,0,3,,,,,,,,,2,,,49,0
33394,note_on,69,0,3,,,,,,,,,2,,,53,0
33394,note_on,0,0,3,,,,,,,,,2,,,56,62
33440,note_on,161,0,1,,,,,,,,,0,,,85,0
33462,note_on,68,0,3,,,,,,,,,2,,,56,0
33462,note_on,0,0,3,,,,,,,,,2,,,61,62
33531,note_on,69,0,3,,,,,,,,,2,,,61,0
33531,note_on,0,0,3,,,,,,,,,2,,,65,62
33600,note_on,0,0,3,,,,,,,,,2,,,73,62
33600,note_on,69,0,3,,,,,,,,,2,,,65,0
33668,note_on,0,0,3,,,,,,,,,2,,,65,62
33668,note_on,68,0,3,,,,,,,,,2,,,73,0
33737,note_on,0,0,3,,,,,,,,,2,,,61,62
33737,note_on,69,0,3,,,,,,,,,2,,,65,0
33805,note_on,68,0,3,,,,,,,,,2,,,61,0
33805,note_on,0,0,3,,,,,,,,,2,,,56,62
33874,note_on,0,0,3,,,,,,,,,2,,,53,75
33874,note_on,69,0,3,,,,,,,,,2,,,56,0
33942,note_on,0,0,3,,,,,,,,,2,,,49,75
33942,note_on,68,0,3,,,,,,,,,2,,,53,0
34011,note_on,69,0,3,,,,,,,,,2,,,49,0
34011,note_on,0,0,3,,,,,,,,,2,,,44,75
34080,note_on,69,0,3,,,,,,,,,2,,,44,0
34080,note_on,0,0,3,,,,,,,,,2,,,37,75
34148,note_on,68,0,3,,,,,,,,,2,,,37,0
34148,note_on,0,0,3,,,,,,,,,2,,,44,75
34217,note_on,69,0,3,,,,,,,,,2,,,44,0
34217,note_on,0,0,3,,,,,,,,,2,,,49,75
34285,note_on,68,0,3,,,,,,,,,2,,,49,0
34285,note_on,0,0,3,,,,,,,,,2,,,52,75
34354,note_on,0,0,3,,,,,,,,,2,,,56,75
34354,note_on,69,0,3,,,,,,,,,2,,,52,0
34422,note_on,0,0,3,,,,,,,,,2,,,61,75
34422,note_on,68,0,3,,,,,,,,,2,,,56,0
34491,note_on,0,0,3,,,,,,,,,2,,,64,75
34491,note_on,69,0,3,,,,,,,,,2,,,61,0
34560,control_change,1120,0,1,,,,,,,,,0,64,0,,
34560,note_on,0,0,3,,,,,,,,,2,,,68,75
34560,note_on,69,0,3,,,,,,,,,2,,,64,0
34628,note_on,0,0,3,,,,,,,,,2,,,64,75
34628,note_on,68,0,3,,,,,,,,,2,,,68,0
34697,note_on,0,0,3,,,,,,,,,2,,,61,75
34697,note_on,69,0,3,,,,,,,,,2,,,64,0
34765,note_on,0,0,3,,,,,,,,,2,,,56,75
34765,note_on,68,0,3,,,,,,,,,2,,,61,0
34834,note_on,0,0,3,,,,,,,,,2,,,52,75
34834,note_on,69,0,3,,,,,,,,,2,,,56,0
34902,note_on,0,0,3,,,,,,,,,2,,,49,75
34902,note_on,68,0,3,,,,,,,,,2,,,52,0
34971,note_on,0,0,3,,,,,,,,,2,,,44,75
34971,note_on,69,0,3,,,,,,,,,2,,,49,0
34971,control_change,0,0,3,,,,,,,,,2,64,0,,
35040,note_on,69,0,3,,,,,,,,,2,,,44,0
35040,note_on,15840,0,4,,,,,,,,,3,,,35,75
35040,control_change,0,0,3,,,,,,,,,2,64,127,,
35040,key_signature,13440,1,0,,,,,A,,,,,,,,
35040,note_on,0,0,3,,,,,,,,,2,,,35,88
35100,note_on,60,0,3,,,,,,,,,2,,,35,0
35100,note_on,0,0,3,,,,,,,,,2,,,44,62
35160,note_on,60,0,3,,,,,,,,,2,,,44,0
35160,note_on,0,0,3,,,,,,,,,2,,,50,62
35220,note_on,60,0,3,,,,,,,,,2,,,50,0
35220,note_on,0,0,3,,,,,,,,,2,,,52,62
35280,note_on,60,0,3,,,,,,,,,2,,,52,0
35280,note_on,0,0,3,,,,,,,,,2,,,56,62
35340,note_on,60,0,3,,,,,,,,,2,,,56,0
35340,note_on,0,0,3,,,,,,,,,2,,,62,62
35400,note_on,60,0,3,,,,,,,,,2,,,62,0
35400,note_on,0,0,3,,,,,,,,,2,,,64,62
35460,note_on,0,0,3,,,,,,,,,2,,,68,62
35460,note_on,60,0,3,,,,,,,,,2,,,64,0
35520,note_on,60,0,3,,,,,,,,,2,,,68,0
35520,control_change,960,0,1,,,,,,,,,0,64,127,,
35520,note_on,0,0,1,,,,,,,,,0,,,78,88
35551,note_on,31,0,1,,,,,,,,,0,,,78,0
35580,note_on,60,0,3,,,,,,,,,2,,,68,62
35640,note_on,0,0,3,,,,,,,,,2,,,64,62
35640,note_on,60,0,3,,,,,,,,,2,,,68,0
35679,note_on,128,0,1,,,,,,,,,0,,,90,88
35700,note_on,0,0,3,,,,,,,,,2,,,62,62
35700,note_on,60,0,3,,,,,,,,,2,,,64,0
35711,note_on,32,0,1,,,,,,,,,0,,,90,0
35760,note_on,0,0,3,,,,,,,,,2,,,56,62
35760,note_on,60,0,3,,,,,,,,,2,,,62,0
35820,note_on,0,0,3,,,,,,,,,2,,,52,62
35820,note_on,60,0,3,,,,,,,,,2,,,56,0
35880,note_on,0,0,3,,,,,,,,,2,,,50,62
35880,note_on,60,0,3,,,,,,,,,2,,,52,0
35940,note_on,60,0,3,,,,,,,,,2,,,50,0
35940,note_on,0,0,3,,,,,,,,,2,,,44,62
35940,control_change,0,0,3,,,,,,,,,2,64,0,,
36000,note_on,289,0,1,,,,,,,,,0,,,76,88
36000,note_on,60,0,3,,,,,,,,,2,,,44,0
36000,note_on,960,0,4,,,,,,,,,3,,,35,0
36000,note_on,0,0,4,,,,,,,,,3,,,32,75
36031,note_on,31,0,1,,,,,,,,,0,,,76,0
36068,note_on,0,0,3,,,,,,,,,2,,,47,62
36068,control_change,68,0,3,,,,,,,,,2,64,127,,
36137,note_on,0,0,3,,,,,,,,,2,,,50,62
36137,note_on,69,0,3,,,,,,,,,2,,,47,0
36159,note_on,128,0,1,,,,,,,,,0,,,88,88
36191,note_on,32,0,1,,,,,,,,,0,,,88,0
36205,note_on,68,0,3,,,,,,,,,2,,,50,0
36205,note_on,0,0,3,,,,,,,,,2,,,52,62
36274,note_on,69,0,3,,,,,,,,,2,,,52,0
36274,note_on,0,0,3,,,,,,,,,2,,,59,62
36342,note_on,0,0,3,,,,,,,,,2,,,62,62
36342,note_on,68,0,3,,,,,,,,,2,,,59,0
36411,note_on,0,0,3,,,,,,,,,2,,,64,62
36411,note_on,69,0,3,,,,,,,,,2,,,62,0
36480,note_on,289,0,1,,,,,,,,,0,,,71,88
36480,note_on,69,0,3,,,,,,,,,2,,,64,0
36511,note_on,31,0,1,,,,,,,,,0,,,71,0
36548,note_on,68,0,3,,,,,,,,,2,,,64,62
36617,note_on,0,0,3,,,,,,,,,2,,,62,62
36617,note_on,69,0,3,,,,,,,,,2,,,64,0
36639,note_on,128,0,1,,,,,,,,,0,,,83,88
36671,note_on,32,0,1,,,,,,,,,0,,,83,0
36685,note_on,68,0,3,,,,,,,,,2,,,62,0
36685,note_on,0,0,3,,,,,,,,,2,,,59,62
36754,note_on,0,0,3,,,,,,,,,2,,,52,62
36754,note_on,69,0,3,,,,,,,,,2,,,59,0
36800,control_change,129,0,1,,,,,,,,,0,64,0,,
36822,note_on,0,0,3,,,,,,,,,2,,,50,62
36822,note_on,68,0,3,,,,,,,,,2,,,52,0
36891,control_change,0,0,3,,,,,,,,,2,64,0,,
36891,note_on,69,0,3,,,,,,,,,2,,,50,0
36891,note_on,0,0,3,,,,,,,,,2,,,47,62
36960,note_on,69,0,3,,,,,,,,,2,,,47,0
36960,control_change,160,0,1,,,,,,,,,0,64,127,,
36960,note_on,0,0,1,,,,,,,,,0,,,73,88
36960,note_on,0,0,4,,,,,,,,,3,,,33,75
36960,note_on,960,0,4,,,,,,,,,3,,,32,0
36991,note_on,31,0,1,,,,,,,,,0,,,73,0
37028,control_change,68,0,3,,,,,,,,,2,64,127,,
37028,note_on,0,0,3,,,,,,,,,2,,,49,62
37097,note_on,69,0,3,,,,,,,,,2,,,49,0
37097,note_on,0,0,3,,,,,,,,,2,,,52,62
37119,note_on,128,0,1,,,,,,,,,0,,,85,88
37151,note_on,32,0,1,,,,,,,,,0,,,85,0
37165,note_on,68,0,3,,,,,,,,,2,,,52,0
37165,note_on,0,0,3,,,,,,,,,2,,,57,62
37234,note_on,69,0,3,,,,,,,,,2,,,57,0
37234,note_on,0,0,3,,,,,,,,,2,,,61,62
37302,note_on,68,0,3,,,,,,,,,2,,,61,0
37302,note_on,0,0,3,,,,,,,,,2,,,64,62
37371,note_on,0,0,3,,,,,,,,,2,,,69,62
37371,note_on,69,0,3,,,,,,,,,2,,,64,0
37440,note_on,69,0,3,,,,,,,,,2,,,69,0
37440,note_on,289,0,1,,,,,,,,,0,,,76,101
37471,note_on,31,0,1,,,,,,,,,0,,,76,0
37508,note_on,68,0,3,,,,,,,,,2,,,69,62
37577,note_on,69,0,3,,,,,,,,,2,,,69,0
37577,note_on,0,0,3,,,,,,,,,2,,,64,62
37599,note_on,128,0,1,,,,,,,,,0,,,88,101
37631,note_on,32,0,1,,,,,,,,,0,,,88,0
37645,note_on,68,0,3,,,,,,,,,2,,,64,0
37645,note_on,0,0,3,,,,,,,,,2,,,61,62
37714,note_on,0,0,3,,,,,,,,,2,,,57,62
37714,note_on,69,0,3,,,,,,,,,2,,,61,0
37782,note_on,0,0,3,,,,,,,,,2,,,52,62
37782,note_on,68,0,3,,,,,,,,,2,,,57,0
37851,note_on,0,0,3,,,,,,,,,2,,,49,62
37851,control_change,0,0,3,,,,,,,,,2,64,0,,
37851,note_on,69,0,3,,,,,,,,,2,,,52,0
37920,note_on,69,0,3,,,,,,,,,2,,,49,0
37920,note_on,0,0,4,,,,,,,,,3,,,37,88
37920,note_on,960,0,4,,,,,,,,,3,,,33,0
37920,note_on,289,0,1,,,,,,,,,0,,,83,101
37951,note_on,31,0,1,,,,,,,,,0,,,83,0
37988,note_on,0,0,3,,,,,,,,,2,,,49,75
37988,control_change,68,0,3,,,,,,,,,2,64,127,,
38057,note_on,0,0,3,,,,,,,,,2,,,53,75
38057,note_on,69,0,3,,,,,,,,,2,,,49,0
38079,note_on,128,0,1,,,,,,,,,0,,,95,101
38111,note_on,32,0,1,,,,,,,,,0,,,95,0
38125,note_on,0,0,3,,,,,,,,,2,,,57,75
38125,note_on,68,0,3,,,,,,,,,2,,,53,0
38194,note_on,69,0,3,,,,,,,,,2,,,57,0
38194,note_on,0,0,3,,,,,,,,,2,,,61,75
38262,note_on,68,0,3,,,,,,,,,2,,,61,0
38262,note_on,0,0,3,,,,,,,,,2,,,65,75
38331,note_on,0,0,3,,,,,,,,,2,,,69,75
38331,note_on,69,0,3,,,,,,,,,2,,,65,0
38400,note_on,69,0,3,,,,,,,,,2,,,69,0
38400,note_on,289,0,1,,,,,,,,,0,,,81,101
38431,note_on,31,0,1,,,,,,,,,0,,,81,0
38468,note_on,68,0,3,,,,,,,,,2,,,69,75
38537,note_on,69,0,3,,,,,,,,,2,,,69,0
38537,note_on,0,0,3,,,,,,,,,2,,,65,75
38559,note_on,128,0,1,,,,,,,,,0,,,93,101
38591,note_on,32,0,1,,,,,,,,,0,,,93,0
38605,note_on,0,0,3,,,,,,,,,2,,,61,75
38605,note_on,68,0,3,,,,,,,,,2,,,65,0
38674,note_on,69,0,3,,,,,,,,,2,,,61,0
38674,note_on,0,0,3,,,,,,,,,2,,,57,75
38720,control_change,129,0,1,,,,,,,,,0,64,0,,
38742,note_on,68,0,3,,,,,,,,,2,,,57,0
38742,note_on,0,0,3,,,,,,,,,2,,,53,75
38811,note_on,69,0,3,,,,,,,,,2,,,53,0
38811,note_on,0,0,3,,,,,,,,,2,,,49,75
38811,control_change,0,0,3,,,,,,,,,2,64,0,,
38880,note_on,0,0,3,,,,,,,,,2,,,38,75
38880,note_on,0,0,1,,,,,,,,,0,,,80,127
38880,control_change,0,0,3,,,,,,,,,2,64,127,,
38880,note_on,69,0,3,,,,,,,,,2,,,49,0
38880,control_change,160,0,1,,,,,,,,,0,64,127,,
38880,note_on,960,0,4,,,,,,,,,3,,,37,0
38880,time_signature,3840,1,0,5,4,24,8,,,,,,,,,
38960,note_on,0,0,3,,,,,,,,,2,,,45,75
38960,note_on,80,0,3,,,,,,,,,2,,,38,0
39039,note_on,0,0,3,,,,,,,,,2,,,47,75
39039,note_on,79,0,3,,,,,,,,,2,,,45,0
39039,note_on,159,0,1,,,,,,,,,0,,,80,0
39039,note_on,0,0,1,,,,,,,,,0,,,92,101
39071,note_on,32,0,1,,,,,,,,,0,,,92,0
39120,note_on,81,0,3,,,,,,,,,2,,,47,0
39120,set_tempo,240,1,0,,,,,,638298,,,,,,,
39120,note_on,0,0,3,,,,,,,,,2,,,54,75
39200,note_on,0,0,3,,,,,,,,,2,,,57,75
39200,note_on,80,0,3,,,,,,,,,2,,,54,0
39200,note_on,129,0,1,,,,,,,,,0,,,78,127
39279,note_on,79,0,3,,,,,,,,,2,,,57,0
39279,note_on,0,0,3,,,,,,,,,2,,,59,75
39360,note_on,0,0,1,,,,,,,,,0,,,90,101
39360,note_on,0,0,3,,,,,,,,,2,,,66,75
39360,set_tempo,240,1,0,,,,,,681818,,,,,,,
39360,note_on,160,0,1,,,,,,,,,0,,,78,0
39360,note_on,81,0,3,,,,,,,,,2,,,59,0
39391,note_on,31,0,1,,,,,,,,,0,,,90,0
39440,note_on,0,0,3,,,,,,,,,2,,,59,75
39440,note_on,80,0,3,,,,,,,,,2,,,66,0
39519,note_on,0,0,3,,,,,,,,,2,,,57,75
39519,note_on,79,0,3,,,,,,,,,2,,,59,0
39519,note_on,128,0,1,,,,,,,,,0,,,71,127
39600,set_tempo,240,1,0,,,,,,731707,,,,,,,
39600,note_on,0,0,3,,,,,,,,,2,,,54,75
39600,note_on,81,0,3,,,,,,,,,2,,,57,0
39680,note_on,80,0,3,,,,,,,,,2,,,54,0
39680,note_on,161,0,1,,,,,,,,,0,,,71,0
39680,control_change,0,0,1,,,,,,,,,0,64,0,,
39680,note_on,0,0,1,,,,,,,,,0,,,83,101
39680,note_on,0,0,3,,,,,,,,,2,,,47,75
39712,note_on,32,0,1,,,,,,,,,0,,,83,0
39759,note_on,79,0,3,,,,,,,,,2,,,47,0
39759,note_on,0,0,3,,,,,,,,,2,,,45,75
39759,control_change,0,0,3,,,,,,,,,2,64,0,,
39840,set_tempo,240,1,0,,,,,,810811,,,,,,,
39840,note_on,0,0,1,,,,,,,,,0,,,73,127
39840,note_on,81,0,3,,,,,,,,,2,,,45,0
39840,control_change,0,0,3,,,,,,,,,2,64,127,,
39840,note_on,0,0,3,,,,,,,,,2,,,40,75
39840,control_change,128,0,1,,,,,,,,,0,64,127,,
39920,note_on,80,0,3,,,,,,,,,2,,,40,0
39920,note_on,80,0,1,,,,,,,,,0,,,73,0
39920,note_on,0,0,3,,,,,,,,,2,,,47,75
39920,note_on,0,0,1,,,,,,,,,0,,,85,101
39999,note_on,0,0,3,,,,,,,,,2,,,50,75
39999,note_on,0,0,1,,,,,,,,,0,,,74,127
39999,note_on,79,0,1,,,,,,,,,0,,,85,0
39999,note_on,79,0,3,,,,,,,,,2,,,47,0
40080,note_on,0,0,3,,,,,,,,,2,,,56,75
40080,set_tempo,240,1,0,,,,,,882353,,,,,,,
40080,note_on,81,0,1,,,,,,,,,0,,,74,0
40080,note_on,81,0,3,,,,,,,,,2,,,50,0
40080,note_on,0,0,1,,,,,,,,,0,,,86,101
40160,note_on,0,0,3,,,,,,,,,2,,,59,75
40160,note_on,80,0,1,,,,,,,,,0,,,86,0
40160,note_on,0,0,1,,,,,,,,,0,,,78,127
40160,note_on,80,0,3,,,,,,,,,2,,,56,0
40239,note_on,79,0,1,,,,,,,,,0,,,78,0
40239,note_on,0,0,1,,,,,,,,,0,,,90,101
40239,note_on,0,0,3,,,,,,,,,2,,,62,75
40239,note_on,79,0,3,,,,,,,,,2,,,59,0
40239,control_change,0,0,1,,,,,,,,,0,64,0,,
40320,note_on,81,0,1,,,,,,,,,0,,,90,0
40320,control_change,0,0,1,,,,,,,,,0,64,127,,
40320,note_on,0,0,1,,,,,,,,,0,,,66,127
40320,note_on,81,0,3,,,,,,,,,2,,,62,0
40320,set_tempo,240,1,0,,,,,,967742,,,,,,,
40560,set_tempo,240,1,0,,,,,,1071429,,,,,,,
40800,set_tempo,240,1,0,,,,,,1250000,,,,,,,
40880,note_on,560,0,1,,,,,,,,,0,,,66,0
40880,note_on,0,0,1,,,,,,,,,0,,,78,75
40880,note_on,560,0,3,,,,,,,,,2,,,66,62
40896,note_on,16,0,1,,,,,,,,,0,,,78,0
40959,note_on,79,0,3,,,,,,,,,2,,,66,0
40959,note_on,0,0,3,,,,,,,,,2,,,64,62
40959,note_on,63,0,1,,,,,,,,,0,,,68,75
41040,note_on,81,0,3,,,,,,,,,2,,,64,0
41040,note_on,0,0,3,,,,,,,,,2,,,62,62
41040,note_on,0,0,1,,,,,,,,,0,,,80,75
41040,note_on,81,0,1,,,,,,,,,0,,,68,0
41055,note_on,15,0,1,,,,,,,,,0,,,80,0
41120,note_on,80,0,3,,,,,,,,,2,,,62,0
41120,note_on,0,0,3,,,,,,,,,2,,,56,62
41120,note_on,65,0,1,,,,,,,,,0,,,73,75
41199,note_on,79,0,3,,,,,,,,,2,,,56,0
41199,control_change,0,0,1,,,,,,,,,0,64,0,,
41199,note_on,0,0,1,,,,,,,,,0,,,85,75
41199,control_change,0,0,3,,,,,,,,,2,64,0,,
41199,note_on,79,0,1,,,,,,,,,0,,,73,0
41199,note_on,0,0,3,,,,,,,,,2,,,52,62
41215,note_on,16,0,1,,,,,,,,,0,,,85,0
41280,note_on,81,0,3,,,,,,,,,2,,,52,0
41280,set_tempo,0,1,0,,,,,,600000,,,,,,,
41280,time_signature,480,1,0,4,4,24,8,,,,,,,,,
41280,note_on,0,0,1,,,,,,,,,0,,,83,75
41280,note_on,0,0,1,,,,,,,,,0,,,71,75
41280,control_change,65,0,1,,,,,,,,,0,64,127,,
41360,control_change,80,0,3,,,,,,,,,2,64,127,,
41360,note_on,0,0,3,,,,,,,,,2,,,45,62
41439,note_on,0,0,3,,,,,,,,,2,,,52,62
41439,note_on,79,0,3,,,,,,,,,2,,,45,0
41520,note_on,81,0,3,,,,,,,,,2,,,52,0
41520,note_on,0,0,3,,,,,,,,,2,,,57,62
41600,note_on,0,0,3,,,,,,,,,2,,,61,62
41600,note_on,80,0,3,,,,,,,,,2,,,57,0
41679,note_on,0,0,3,,,,,,,,,2,,,64,62
41679,note_on,79,0,3,,,,,,,,,2,,,61,0
41760,note_on,81,0,3,,,,,,,,,2,,,64,0
41760,note_on,0,0,1,,,,,,,,,0,,,81,75
41760,note_on,0,0,1,,,,,,,,,0,,,71,0
41760,note_on,480,0,1,,,,,,,,,0,,,83,0
41760,note_on,0,0,3,,,,,,,,,2,,,73,62
41760,note_on,0,0,1,,,,,,,,,0,,,69,75
41840,note_on,0,0,3,,,,,,,,,2,,,69,62
41840,note_on,80,0,3,,,,,,,,,2,,,73,0
41919,note_on,0,0,3,,,,,,,,,2,,,64,62
41919,note_on,79,0,3,,,,,,,,,2,,,69,0
42000,note_on,81,0,3,,,,,,,,,2,,,64,0
42000,note_on,0,0,3,,,,,,,,,2,,,61,62
42080,note_on,0,0,3,,,,,,,,,2,,,57,62
42080,note_on,80,0,3,,,,,,,,,2,,,61,0
42159,note_on,79,0,3,,,,,,,,,2,,,57,0
42159,note_on,0,0,3,,,,,,,,,2,,,52,62
42240,note_on,81,0,3,,,,,,,,,2,,,52,0
42240,note_on,0,0,1,,,,,,,,,0,,,69,0
42240,note_on,0,0,3,,,,,,,,,2,,,45,62
42240,note_on,480,0,1,,,,,,,,,0,,,81,0
42320,note_on,80,0,3,,,,,,,,,2,,,45,0
42320,note_on,0,0,3,,,,,,,,,2,,,52,62
42399,note_on,0,0,3,,,,,,,,,2,,,57,62
42399,note_on,79,0,3,,,,,,,,,2,,,52,0
42480,note_on,81,0,3,,,,,,,,,2,,,57,0
42480,note_on,0,0,3,,,,,,,,,2,,,61,62
42560,note_on,0,0,3,,,,,,,,,2,,,64,62
42560,note_on,80,0,3,,,,,,,,,2,,,61,0
42639,note_on,0,0,3,,,,,,,,,2,,,69,62
42639,note_on,79,0,3,,,,,,,,,2,,,64,0
42720,note_on,0,0,3,,,,,,,,,2,,,73,62
42720,control_change,480,0,1,,,,,,,,,0,64,0,,
42720,note_on,0,0,1,,,,,,,,,0,,,52,101
42720,note_on,81,0,3,,,,,,,,,2,,,69,0
42800,note_on,0,0,3,,,,,,,,,2,,,69,62
42800,note_on,80,0,3,,,,,,,,,2,,,73,0
42816,note_on,96,0,1,,,,,,,,,0,,,52,0
42879,note_on,79,0,3,,,,,,,,,2,,,69,0
42879,note_on,0,0,3,,,,,,,,,2,,,64,62
42960,note_on,81,0,3,,,,,,,,,2,,,64,0
42960,note_on,0,0,3,,,,,,,,,2,,,61,62
43040,note_on,0,0,3,,,,,,,,,2,,,57,62
43040,note_on,80,0,3,,,,,,,,,2,,,61,0
43119,note_on,79,0,3,,,,,,,,,2,,,57,0
43119,note_on,0,0,3,,,,,,,,,2,,,52,62
43119,control_change,0,0,3,,,,,,,,,2,64,0,,
43200,note_on,81,0,3,,,,,,,,,2,,,52,0
43200,control_change,384,0,1,,,,,,,,,0,64,127,,
43200,note_on,0,0,1,,,,,,,,,0,,,54,114
43280,note_on,0,0,3,,,,,,,,,2,,,45,62
43280,control_change,80,0,3,,,,,,,,,2,64,127,,
43296,note_on,96,0,1,,,,,,,,,0,,,54,0
43359,note_on,0,0,3,,,,,,,,,2,,,54,62
43359,note_on,79,0,3,,,,,,,,,2,,,45,0
43440,note_on,0,0,3,,,,,,,,,2,,,57,62
43440,note_on,81,0,3,,,,,,,,,2,,,54,0
43520,note_on,0,0,3,,,,,,,,,2,,,62,62
43520,note_on,80,0,3,,,,,,,,,2,,,57,0
43599,note_on,79,0,3,,,,,,,,,2,,,62,0
43599,note_on,0,0,3,,,,,,,,,2,,,66,62
43680,note_on,0,0,3,,,,,,,,,2,,,73,62
43680,note_on,384,0,1,,,,,,,,,0,,,57,114
43680,note_on,81,0,3,,,,,,,,,2,,,66,0
43760,note_on,80,0,3,,,,,,,,,2,,,73,0
43760,note_on,0,0,3,,,,,,,,,2,,,69,62
43776,note_on,96,0,1,,,,,,,,,0,,,57,0
43839,note_on,0,0,3,,,,,,,,,2,,,66,62
43839,note_on,79,0,3,,,,,,,,,2,,,69,0
43920,note_on,81,0,3,,,,,,,,,2,,,66,0
43920,note_on,0,0,3,,,,,,,,,2,,,62,62
44000,note_on,80,0,3,,,,,,,,,2,,,62,0
44000,note_on,0,0,3,,,,,,,,,2,,,57,62
44079,control_change,0,0,3,,,,,,,,,2,64,0,,
44079,note_on,0,0,3,,,,,,,,,2,,,54,62
44079,note_on,79,0,3,,,,,,,,,2,,,57,0
44160,note_on,81,0,3,,,,,,,,,2,,,54,0
44160,note_on,384,0,1,,,,,,,,,0,,,59,114
44240,note_on,0,0,3,,,,,,,,,2,,,45,62
44240,control_change,80,0,3,,,,,,,,,2,64,127,,
44256,note_on,96,0,1,,,,,,,,,0,,,59,0
44319,note_on,0,0,3,,,,,,,,,2,,,53,62
44319,note_on,79,0,3,,,,,,,,,2,,,45,0
44400,note_on,0,0,3,,,,,,,,,2,,,56,62
44400,note_on,81,0,3,,,,,,,,,2,,,53,0
44480,note_on,80,0,3,,,,,,,,,2,,,56,0
44480,note_on,0,0,3,,,,,,,,,2,,,62,62
44559,note_on,79,0,3,,,,,,,,,2,,,62,0
44559,note_on,0,0,3,,,,,,,,,2,,,65,62
44640,control_change,384,0,1,,,,,,,,,0,64,0,,
44640,note_on,0,0,1,,,,,,,,,0,,,61,114
44640,note_on,81,0,3,,,,,,,,,2,,,65,0
44640,note_on,0,0,3,,,,,,,,,2,,,73,62
44720,note_on,80,0,3,,,,,,,,,2,,,73,0
44720,note_on,0,0,3,,,,,,,,,2,,,68,62
44736,note_on,96,0,1,,,,,,,,,0,,,61,0
44799,note_on,79,0,3,,,,,,,,,2,,,68,0
44799,note_on,0,0,3,,,,,,,,,2,,,65,62
44880,note_on,0,0,3,,,,,,,,,2,,,62,62
44880,note_on,81,0,3,,,,,,,,,2,,,65,0
44960,note_on,0,0,3,,,,,,,,,2,,,56,62
44960,note_on,80,0,3,,,,,,,,,2,,,62,0
45039,control_change,0,0,3,,,,,,,,,2,64,0,,
45039,note_on,0,0,3,,,,,,,,,2,,,53,62
45039,note_on,79,0,3,,,,,,,,,2,,,56,0
45060,note_on,0,0,1,,,,,,,,,0,,,61,88
45060,control_change,324,0,1,,,,,,,,,0,64,127,,
45120,note_on,0,0,1,,,,,,,,,0,,,64,114
45120,note_on,60,0,1,,,,,,,,,0,,,61,0
45120,note_on,81,0,3,,,,,,,,,2,,,53,0
45200,control_change,80,0,3,,,,,,,,,2,64,127,,
45200,note_on,0,0,3,,,,,,,,,2,,,45,62
45279,note_on,79,0,3,,,,,,,,,2,,,45,0
45279,note_on,0,0,3,,,,,,,,,2,,,52,62
45360,note_on,0,0,3,,,,,,,,,2,,,57,62
45360,note_on,81,0,3,,,,,,,,,2,,,52,0
45440,note_on,0,0,3,,,,,,,,,2,,,61,62
45440,note_on,80,0,3,,,,,,,,,2,,,57,0
45519,note_on,0,0,3,,,,,,,,,2,,,64,62
45519,note_on,79,0,3,,,,,,,,,2,,,61,0
45600,note_on,81,0,3,,,,,,,,,2,,,64,0
45600,note_on,0,0,3,,,,,,,,,2,,,73,62
45680,note_on,80,0,3,,,,,,,,,2,,,73,0
45680,note_on,0,0,3,,,,,,,,,2,,,69,62
45759,note_on,79,0,3,,,,,,,,,2,,,69,0
45759,note_on,0,0,3,,,,,,,,,2,,,64,62
45840,note_on,0,0,3,,,,,,,,,2,,,61,62
45840,note_on,81,0,3,,,,,,,,,2,,,64,0
45920,note_on,80,0,3,,,,,,,,,2,,,61,0
45920,note_on,0,0,3,,,,,,,,,2,,,57,62
45999,note_on,0,0,3,,,,,,,,,2,,,52,62
45999,note_on,79,0,3,,,,,,,,,2,,,57,0
46080,note_on,81,0,3,,,,,,,,,2,,,52,0
46080,note_on,0,0,3,,,,,,,,,2,,,45,62
46148,note_on,68,0,3,,,,,,,,,2,,,45,0
46148,note_on,0,0,3,,,,,,,,,2,,,52,62
46217,note_on,0,0,3,,,,,,,,,2,,,57,62
46217,note_on,69,0,3,,,,,,,,,2,,,52,0
46285,note_on,0,0,3,,,,,,,,,2,,,61,62
46285,note_on,68,0,3,,,,,,,,,2,,,57,0
46354,note_on,69,0,3,,,,,,,,,2,,,61,0
46354,note_on,0,0,3,,,,,,,,,2,,,64,62
46422,note_on,68,0,3,,,,,,,,,2,,,64,0
46422,note_on,0,0,3,,,,,,,,,2,,,69,62
46491,note_on,0,0,3,,,,,,,,,2,,,73,62
46491,note_on,69,0,3,,,,,,,,,2,,,69,0
46560,note_on,0,0,1,,,,,,,,,0,,,76,88
46560,note_on,69,0,3,,,,,,,,,2,,,73,0
46560,note_on,1440,0,1,,,,,,,,,0,,,64,0
46628,note_on,68,0,3,,,,,,,,,2,,,73,62
46697,note_on,0,0,3,,,,,,,,,2,,,69,62
46697,note_on,69,0,3,,,,,,,,,2,,,73,0
46765,note_on,68,0,3,,,,,,,,,2,,,69,0
46765,note_on,0,0,3,,,,,,,,,2,,,64,62
46800,control_change,0,0,1,,,,,,,,,0,64,0,,
46800,note_on,240,0,1,,,,,,,,,0,,,76,0
46834,note_on,0,0,3,,,,,,,,,2,,,61,62
46834,note_on,69,0,3,,,,,,,,,2,,,64,0
46902,note_on,0,0,3,,,,,,,,,2,,,57,62
46902,note_on,68,0,3,,,,,,,,,2,,,61,0
46971,note_on,0,0,3,,,,,,,,,2,,,52,62
46971,note_on,69,0,3,,,,,,,,,2,,,57,0
46971,control_change,0,0,3,,,,,,,,,2,64,0,,
47040,note_on,69,0,3,,,,,,,,,2,,,52,0
47040,control_change,0,0,3,,,,,,,,,2,64,127,,
47040,note_on,0,0,1,,,,,,,,,0,,,78,88
47040,note_on,0,0,3,,,,,,,,,2,,,45,62
47040,control_change,240,0,1,,,,,,,,,0,64,127,,
47040,note_on,8160,0,4,,,,,,,,,3,,,45,88
47108,note_on,68,0,3,,,,,,,,,2,,,45,0
47108,note_on,68,0,4,,,,,,,,,3,,,45,0
47108,note_on,0,0,3,,,,,,,,,2,,,54,62
47177,note_on,69,0,3,,,,,,,,,2,,,54,0
47177,note_on,0,0,3,,,,,,,,,2,,,57,62
47245,note_on,0,0,3,,,,,,,,,2,,,62,62
47245,note_on,68,0,3,,,,,,,,,2,,,57,0
47280,note_on,240,0,1,,,,,,,,,0,,,78,0
47314,note_on,69,0,3,,,,,,,,,2,,,62,0
47314,note_on,0,0,3,,,,,,,,,2,,,66,62
47382,note_on,0,0,3,,,,,,,,,2,,,69,62
47382,note_on,68,0,3,,,,,,,,,2,,,66,0
47451,note_on,69,0,3,,,,,,,,,2,,,69,0
47451,note_on,0,0,3,,,,,,,,,2,,,73,62
47520,note_on,240,0,1,,,,,,,,,0,,,81,88
47520,note_on,69,0,3,,,,,,,,,2,,,73,0
47588,note_on,68,0,3,,,,,,,,,2,,,73,62
47657,note_on,69,0,3,,,,,,,,,2,,,73,0
47657,note_on,0,0,3,,,,,,,,,2,,,69,62
47725,note_on,68,0,3,,,,,,,,,2,,,69,0
47725,note_on,0,0,3,,,,,,,,,2,,,66,62
47760,note_on,240,0,1,,,,,,,,,0,,,81,0
47794,note_on,0,0,3,,,,,,,,,2,,,62,62
47794,note_on,69,0,3,,,,,,,,,2,,,66,0
47862,note_on,68,0,3,,,,,,,,,2,,,62,0
47862,note_on,0,0,3,,,,,,,,,2,,,57,62
47931,note_on,69,0,3,,,,,,,,,2,,,57,0
47931,control_change,0,0,3,,,,,,,,,2,64,0,,
47931,note_on,0,0,3,,,,,,,,,2,,,54,62
48000,note_on,240,0,1,,,,,,,,,0,,,83,101
48000,note_on,0,0,3,,,,,,,,,2,,,45,75
48000,control_change,0,0,3,,,,,,,,,2,64,127,,
48000,note_on,69,0,3,,,,,,,,,2,,,54,0
48060,note_on,60,0,3,,,,,,,,,2,,,45,0
48060,note_on,0,0,3,,,,,,,,,2,,,53,75
48120,note_on,0,0,3,,,,,,,,,2,,,56,75
48120,note_on,60,0,3,,,,,,,,,2,,,53,0
48180,note_on,60,0,3,,,,,,,,,2,,,56,0
48180,note_on,0,0,3,,,,,,,,,2,,,59,75
48240,note_on,60,0,3,,,,,,,,,2,,,59,0
48240,note_on,240,0,1,,,,,,,,,0,,,83,0
48240,note_on,0,0,3,,,,,,,,,2,,,62,75
48300,note_on,0,0,3,,,,,,,,,2,,,65,75
48300,note_on,60,0,3,,,,,,,,,2,,,62,0
48360,note_on,60,0,3,,,,,,,,,2,,,65,0
48360,note_on,0,0,3,,,,,,,,,2,,,68,75
48420,note_on,0,0,3,,,,,,,,,2,,,71,75
48420,note_on,60,0,3,,,,,,,,,2,,,68,0
48480,note_on,60,0,3,,,,,,,,,2,,,71,0
48480,note_on,240,0,1,,,,,,,,,0,,,85,101
48540,note_on,60,0,3,,,,,,,,,2,,,71,75
48600,note_on,60,0,3,,,,,,,,,2,,,71,0
48600,note_on,0,0,3,,,,,,,,,2,,,68,75
48660,note_on,0,0,3,,,,,,,,,2,,,65,75
48660,note_on,60,0,3,,,,,,,,,2,,,68,0
48720,note_on,60,0,3,,,,,,,,,2,,,65,0
48720,control_change,0,0,1,,,,,,,,,0,64,0,,
48720,note_on,240,0,1,,,,,,,,,0,,,85,0
48720,note_on,0,0,3,,,,,,,,,2,,,62,75
48780,note_on,0,0,3,,,,,,,,,2,,,59,75
48780,note_on,60,0,3,,,,,,,,,2,,,62,0
48840,note_on,0,0,3,,,,,,,,,2,,,56,75
48840,note_on,60,0,3,,,,,,,,,2,,,59,0
48900,note_on,180,0,1,,,,,,,,,0,,,85,101
48900,control_change,0,0,3,,,,,,,,,2,64,0,,
48900,note_on,0,0,3,,,,,,,,,2,,,53,75
48900,note_on,60,0,3,,,,,,,,,2,,,56,0
48960,note_on,0,0,3,,,,,,,,,2,,,45,75
48960,note_on,60,0,3,,,,,,,,,2,,,53,0
48960,control_change,0,0,3,,,,,,,,,2,64,127,,
48960,note_on,0,0,1,,,,,,,,,0,,,88,101
48960,note_on,60,0,1,,,,,,,,,0,,,85,0
49028,note_on,68,0,3,,,,,,,,,2,,,45,0
49028,note_on,0,0,3,,,,,,,,,2,,,52,75
49097,note_on,0,0,3,,,,,,,,,2,,,57,75
49097,note_on,69,0,3,,,,,,,,,2,,,52,0
49165,note_on,68,0,3,,,,,,,,,2,,,57,0
49165,note_on,0,0,3,,,,,,,,,2,,,61,75
49234,note_on,69,0,3,,,,,,,,,2,,,61,0
49234,note_on,0,0,3,,,,,,,,,2,,,64,75
49302,note_on,0,0,3,,,,,,,,,2,,,69,75
49302,note_on,68,0,3,,,,,,,,,2,,,64,0
49371,note_on,69,0,3,,,,,,,,,2,,,69,0
49371,note_on,0,0,3,,,,,,,,,2,,,73,75
49440,note_on,0,0,3,,,,,,,,,2,,,76,75
49440,note_on,69,0,3,,,,,,,,,2,,,73,0
49508,note_on,68,0,3,,,,,,,,,2,,,76,0
49508,note_on,0,0,3,,,,,,,,,2,,,73,75
49577,note_on,0,0,3,,,,,,,,,2,,,69,75
49577,note_on,69,0,3,,,,,,,,,2,,,73,0
49645,note_on,68,0,3,,,,,,,,,2,,,69,0
49645,note_on,0,0,3,,,,,,,,,2,,,64,75
49714,note_on,69,0,3,,,,,,,,,2,,,64,0
49714,note_on,0,0,3,,,,,,,,,2,,,61,75
49782,note_on,0,0,3,,,,,,,,,2,,,57,75
49782,note_on,68,0,3,,,,,,,,,2,,,61,0
49851,note_on,69,0,3,,,,,,,,,2,,,57,0
49851,note_on,0,0,3,,,,,,,,,2,,,52,75
49851,control_change,0,0,3,,,,,,,,,2,64,0,,
49920,note_on,0,0,3,,,,,,,,,2,,,45,75
49920,note_on,69,0,3,,,,,,,,,2,,,52,0
49920,control_change,0,0,3,,,,,,,,,2,64,127,,
49988,note_on,68,0,3,,,,,,,,,2,,,45,0
49988,note_on,0,0,3,,,,,,,,,2,,,52,75
50057,note_on,69,0,3,,,,,,,,,2,,,52,0
50057,note_on,0,0,3,,,,,,,,,2,,,56,75
50125,note_on,68,0,3,,,,,,,,,2,,,56,0
50125,note_on,0,0,3,,,,,,,,,2,,,61,75
50194,note_on,69,0,3,,,,,,,,,2,,,61,0
50194,note_on,0,0,3,,,,,,,,,2,,,64,75
50262,note_on,68,0,3,,,,,,,,,2,,,64,0
50262,note_on,0,0,3,,,,,,,,,2,,,68,75
50331,note_on,69,0,3,,,,,,,,,2,,,68,0
50331,note_on,0,0,3,,,,,,,,,2,,,73,75
50400,note_on,0,0,3,,,,,,,,,2,,,76,75
50400,note_on,69,0,3,,,,,,,,,2,,,73,0
50468,note_on,0,0,3,,,,,,,,,2,,,73,75
50468,note_on,68,0,3,,,,,,,,,2,,,76,0
50537,note_on,69,0,3,,,,,,,,,2,,,73,0
50537,note_on,0,0,3,,,,,,,,,2,,,68,75
50605,note_on,0,0,3,,,,,,,,,2,,,64,75
50605,note_on,68,0,3,,,,,,,,,2,,,68,0
50674,note_on,0,0,3,,,,,,,,,2,,,61,75
50674,note_on,69,0,3,,,,,,,,,2,,,64,0
50742,note_on,68,0,3,,,,,,,,,2,,,61,0
50742,note_on,0,0,3,,,,,,,,,2,,,56,75
50811,note_on,0,0,3,,,,,,,,,2,,,52,75
50811,control_change,0,0,3,,,,,,,,,2,64,0,,
50811,note_on,69,0,3,,,,,,,,,2,,,56,0
50880,control_change,0,0,3,,,,,,,,,2,64,127,,
50880,note_on,0,0,3,,,,,,,,,2,,,46,75
50880,note_on,69,0,3,,,,,,,,,2,,,52,0
50880,note_on,1920,0,1,,,,,,,,,0,,,88,0
50960,note_on,0,0,3,,,,,,,,,2,,,52,75
50960,note_on,80,0,3,,,,,,,,,2,,,46,0
51039,note_on,79,0,3,,,,,,,,,2,,,52,0
51039,note_on,0,0,3,,,,,,,,,2,,,55,75
51120,note_on,0,0,3,,,,,,,,,2,,,61,75
51120,note_on,0,0,1,,,,,,,,,0,,,76,101
51120,note_on,0,0,1,,,,,,,,,0,,,88,101
51120,control_change,240,0,1,,,,,,,,,0,64,127,,
51120,note_on,81,0,3,,,,,,,,,2,,,55,0
51200,note_on,80,0,3,,,,,,,,,2,,,61,0
51200,note_on,0,0,3,,,,,,,,,2,,,64,75
51279,note_on,0,0,3,,,,,,,,,2,,,67,75
51279,note_on,79,0,3,,,,,,,,,2,,,64,0
51360,note_on,240,0,1,,,,,,,,,0,,,88,0
51360,note_on,0,0,3,,,,,,,,,2,,,73,75
51360,note_on,0,0,1,,,,,,,,,0,,,76,0
51360,note_on,81,0,3,,,,,,,,,2,,,67,0
51360,note_on,0,0,1,,,,,,,,,0,,,76,101
51360,note_on,0,0,1,,,,,,,,,0,,,88,101
51440,note_on,80,0,3,,,,,,,,,2,,,73,0
51440,note_on,0,0,3,,,,,,,,,2,,,67,75
51519,note_on,0,0,3,,,,,,,,,2,,,64,75
51519,note_on,79,0,3,,,,,,,,,2,,,67,0
51600,note_on,81,0,3,,,,,,,,,2,,,64,0
51600,note_on,0,0,3,,,,,,,,,2,,,61,75
51680,note_on,320,0,1,,,,,,,,,0,,,88,0
51680,note_on,0,0,1,,,,,,,,,0,,,76,101
51680,note_on,0,0,1,,,,,,,,,0,,,88,101
51680,note_on,0,0,3,,,,,,,,,2,,,55,75
51680,note_on,80,0,3,,,,,,,,,2,,,61,0
51680,note_on,0,0,1,,,,,,,,,0,,,76,0
51759,note_on,79,0,3,,,,,,,,,2,,,55,0
51759,control_change,0,0,3,,,,,,,,,2,64,0,,
51759,note_on,0,0,3,,,,,,,,,2,,,52,75
51840,note_on,81,0,3,,,,,,,,,2,,,52,0
51840,note_on,0,0,3,,,,,,,,,2,,,46,75
51840,note_on,160,0,1,,,,,,,,,0,,,88,0
51840,note_on,0,0,1,,,,,,,,,0,,,88,101
51840,note_on,0,0,1,,,,,,,,,0,,,76,0
51840,control_change,0,0,3,,,,,,,,,2,64,127,,
51840,note_on,0,0,1,,,,,,,,,0,,,76,101
51920,note_on,80,0,3,,,,,,,,,2,,,46,0
51920,note_on,0,0,3,,,,,,,,,2,,,52,75
51999,note_on,0,0,3,,,,,,,,,2,,,55,75
51999,note_on,79,0,3,,,,,,,,,2,,,52,0
51999,note_on,0,0,1,,,,,,,,,0,,,76,101
51999,note_on,159,0,1,,,,,,,,,0,,,88,0
51999,note_on,0,0,1,,,,,,,,,0,,,88,101
51999,note_on,0,0,1,,,,,,,,,0,,,76,0
52080,note_on,0,0,3,,,,,,,,,2,,,60,75
52080,note_on,81,0,3,,,,,,,,,2,,,55,0
52160,note_on,0,0,3,,,,,,,,,2,,,64,75
52160,note_on,80,0,3,,,,,,,,,2,,,60,0
52160,note_on,0,0,1,,,,,,,,,0,,,76,0
52160,note_on,0,0,1,,,,,,,,,0,,,76,101
52160,note_on,0,0,1,,,,,,,,,0,,,88,101
52160,note_on,161,0,1,,,,,,,,,0,,,88,0
52239,note_on,0,0,3,,,,,,,,,2,,,67,75
52239,note_on,0,0,1,,,,,,,,,0,,,76,101
52239,note_on,0,0,1,,,,,,,,,0,,,88,101
52239,note_on,0,0,1,,,,,,,,,0,,,76,0
52239,note_on,79,0,3,,,,,,,,,2,,,64,0
52239,note_on,79,0,1,,,,,,,,,0,,,88,0
52320,note_on,0,0,1,,,,,,,,,0,,,92,127
52320,note_on,0,0,1,,,,,,,,,0,,,80,127
52320,note_on,0,0,1,,,,,,,,,0,,,76,0
52320,note_on,81,0,3,,,,,,,,,2,,,67,0
52320,note_on,81,0,1,,,,,,,,,0,,,88,0
52320,note_on,0,0,3,,,,,,,,,2,,,72,75
52400,note_on,0,0,3,,,,,,,,,2,,,67,75
52400,note_on,80,0,3,,,,,,,,,2,,,72,0
52479,note_on,0,0,3,,,,,,,,,2,,,64,75
52479,note_on,79,0,3,,,,,,,,,2,,,67,0
52560,note_on,0,0,3,,,,,,,,,2,,,60,75
52560,note_on,81,0,3,,,,,,,,,2,,,64,0
52640,note_on,0,0,3,,,,,,,,,2,,,55,75
52640,note_on,80,0,3,,,,,,,,,2,,,60,0
52680,control_change,0,0,1,,,,,,,,,0,64,0,,
52680,note_on,0,0,1,,,,,,,,,0,,,80,0
52680,note_on,0,0,1,,,,,,,,,0,,,88,88
52680,note_on,360,0,1,,,,,,,,,0,,,92,0
52680,note_on,0,0,1,,,,,,,,,0,,,76,88
52719,control_change,0,0,3,,,,,,,,,2,64,0,,
52719,note_on,79,0,3,,,,,,,,,2,,,55,0
52719,note_on,0,0,3,,,,,,,,,2,,,52,75
52800,note_on,81,0,3,,,,,,,,,2,,,52,0
52800,control_change,0,0,3,,,,,,,,,2,64,127,,
52800,control_change,0,0,1,,,,,,,,,0,64,127,,
52800,note_on,120,0,1,,,,,,,,,0,,,88,0
52800,note_on,0,0,3,,,,,,,,,2,,,44,75
52800,note_on,0,0,1,,,,,,,,,0,,,76,0
52800,note_on,0,0,1,,,,,,,,,0,,,76,88
52800,note_on,0,0,1,,,,,,,,,0,,,88,88
52880,note_on,80,0,3,,,,,,,,,2,,,44,0
52880,note_on,0,0,3,,,,,,,,,2,,,53,75
52959,note_on,0,0,3,,,,,,,,,2,,,56,75
52959,note_on,79,0,3,,,,,,,,,2,,,53,0
53040,note_on,240,0,1,,,,,,,,,0,,,88,0
53040,note_on,0,0,1,,,,,,,,,0,,,77,88
53040,note_on,0,0,1,,,,,,,,,0,,,76,0
53040,note_on,81,0,3,,,,,,,,,2,,,56,0
53040,note_on,0,0,3,,,,,,,,,2,,,60,75
53040,note_on,0,0,1,,,,,,,,,0,,,89,88
53120,note_on,0,0,3,,,,,,,,,2,,,65,75
53120,note_on,80,0,3,,,,,,,,,2,,,60,0
53199,note_on,79,0,3,,,,,,,,,2,,,65,0
53199,note_on,0,0,3,,,,,,,,,2,,,68,75
53280,note_on,81,0,3,,,,,,,,,2,,,68,0
53280,note_on,0,0,1,,,,,,,,,0,,,99,127
53280,note_on,240,0,1,,,,,,,,,0,,,89,0
53280,note_on,0,0,1,,,,,,,,,0,,,77,0
53280,note_on,0,0,3,,,,,,,,,2,,,72,75
53280,note_on,0,0,1,,,,,,,,,0,,,87,127
53360,note_on,80,0,3,,,,,,,,,2,,,72,0
53360,note_on,0,0,3,,,,,,,,,2,,,68,75
53439,note_on,0,0,3,,,,,,,,,2,,,65,75
53439,note_on,79,0,3,,,,,,,,,2,,,68,0
53520,note_on,0,0,3,,,,,,,,,2,,,60,75
53520,note_on,81,0,3,,,,,,,,,2,,,65,0
53600,note_on,0,0,3,,,,,,,,,2,,,56,75
53600,note_on,80,0,3,,,,,,,,,2,,,60,0
53679,note_on,79,0,3,,,,,,,,,2,,,56,0
53679,control_change,0,0,3,,,,,,,,,2,64,0,,
53679,note_on,0,0,3,,,,,,,,,2,,,53,75
53760,control_change,0,0,3,,,,,,,,,2,64,127,,
53760,note_on,0,0,3,,,,,,,,,2,,,46,75
53760,note_on,81,0,3,,,,,,,,,2,,,53,0
53840,note_on,80,0,3,,,,,,,,,2,,,46,0
53840,note_on,0,0,3,,,,,,,,,2,,,53,75
53919,note_on,639,0,1,,,,,,,,,0,,,99,0
53919,note_on,79,0,3,,,,,,,,,2,,,53,0
53919,note_on,0,0,1,,,,,,,,,0,,,97,101
53919,note_on,0,0,3,,,,,,,,,2,,,55,75
53919,note_on,0,0,1,,,,,,,,,0,,,87,0
53919,note_on,0,0,1,,,,,,,,,0,,,85,101
54000,note_on,0,0,3,,,,,,,,,2,,,61,75
54000,note_on,81,0,3,,,,,,,,,2,,,55,0
54080,note_on,80,0,3,,,,,,,,,2,,,61,0
54080,note_on,0,0,1,,,,,,,,,0,,,82,101
54080,note_on,0,0,1,,,,,,,,,0,,,85,0
54080,note_on,0,0,1,,,,,,,,,0,,,94,101
54080,note_on,0,0,3,,,,,,,,,2,,,65,75
54080,note_on,161,0,1,,,,,,,,,0,,,97,0
54159,note_on,0,0,3,,,,,,,,,2,,,67,75
54159,note_on,79,0,3,,,,,,,,,2,,,65,0
54240,note_on,0,0,1,,,,,,,,,0,,,92,101
54240,note_on,0,0,1,,,,,,,,,0,,,82,0
54240,note_on,0,0,1,,,,,,,,,0,,,80,101
54240,note_on,81,0,3,,,,,,,,,2,,,67,0
54240,note_on,160,0,1,,,,,,,,,0,,,94,0
54240,note_on,0,0,3,,,,,,,,,2,,,73,75
54320,note_on,80,0,3,,,,,,,,,2,,,73,0
54320,note_on,0,0,3,,,,,,,,,2,,,67,75
54399,note_on,0,0,3,,,,,,,,,2,,,65,75
54399,note_on,0,0,1,,,,,,,,,0,,,79,101
54399,note_on,0,0,1,,,,,,,,,0,,,80,0
54399,note_on,79,0,3,,,,,,,,,2,,,67,0
54399,note_on,159,0,1,,,,,,,,,0,,,92,0
54399,note_on,0,0,1,,,,,,,,,0,,,91,101
54480,note_on,81,0,3,,,,,,,,,2,,,65,0
54480,note_on,0,0,3,,,,,,,,,2,,,61,75
54560,note_on,0,0,1,,,,,,,,,0,,,79,0
54560,note_on,0,0,1,,,,,,,,,0,,,75,101
54560,note_on,161,0,1,,,,,,,,,0,,,91,0
54560,control_change,0,0,1,,,,,,,,,0,64,0,,
54560,note_on,0,0,3,,,,,,,,,2,,,55,75
54560,note_on,0,0,1,,,,,,,,,0,,,87,101
54560,note_on,80,0,3,,,,,,,,,2,,,61,0
54639,control_change,0,0,3,,,,,,,,,2,64,0,,
54639,note_on,0,0,3,,,,,,,,,2,,,53,75
54639,note_on,79,0,3,,,,,,,,,2,,,55,0
54720,control_change,0,0,1,,,,,,,,,0,64,127,,
54720,note_on,160,0,1,,,,,,,,,0,,,87,0
54720,time_signature,13440,1,0,8,4,24,8,,,,,,,,,
54720,note_on,0,0,1,,,,,,,,,0,,,85,101
54720,note_on,81,0,3,,,,,,,,,2,,,53,0
54720,control_change,0,0,3,,,,,,,,,2,64,127,,
54720,note_on,0,0,1,,,,,,,,,0,,,75,0
54720,note_on,0,0,1,,,,,,,,,0,,,73,101
54720,note_on,0,0,3,,,,,,,,,2,,,36,75
54800,note_on,0,0,3,,,,,,,,,2,,,44,75
54800,note_on,80,0,3,,,,,,,,,2,,,36,0
54879,note_on,79,0,3,,,,,,,,,2,,,44,0
54879,note_on,159,0,1,,,,,,,,,0,,,85,0
54879,note_on,0,0,1,,,,,,,,,0,,,84,101
54879,note_on,0,0,1,,,,,,,,,0,,,72,101
54879,note_on,0,0,1,,,,,,,,,0,,,73,0
54879,note_on,0,0,3,,,,,,,,,2,,,48,75
54960,note_on,81,0,3,,,,,,,,,2,,,48,0
54960,note_on,0,0,3,,,,,,,,,2,,,53,75
55040,note_on,0,0,3,,,,,,,,,2,,,56,75
55040,note_on,80,0,3,,,,,,,,,2,,,53,0
55040,note_on,161,0,1,,,,,,,,,0,,,84,0
55040,note_on,0,0,1,,,,,,,,,0,,,72,0
55040,note_on,0,0,1,,,,,,,,,0,,,80,101
55040,note_on,0,0,1,,,,,,,,,0,,,68,101
55119,note_on,0,0,3,,,,,,,,,2,,,60,75
55119,note_on,79,0,3,,,,,,,,,2,,,56,0
55200,note_on,0,0,1,,,,,,,,,0,,,67,101
55200,note_on,160,0,1,,,,,,,,,0,,,80,0
55200,note_on,81,0,3,,,,,,,,,2,,,60,0
55200,note_on,0,0,1,,,,,,,,,0,,,68,0
55200,note_on,0,0,1,,,,,,,,,0,,,79,101
55200,note_on,0,0,3,,,,,,,,,2,,,68,75
55280,note_on,0,0,3,,,,,,,,,2,,,60,75
55280,note_on,80,0,3,,,,,,,,,2,,,68,0
55359,note_on,0,0,3,,,,,,,,,2,,,56,75
55359,note_on,0,0,1,,,,,,,,,0,,,65,101
55359,note_on,0,0,1,,,,,,,,,0,,,67,0
55359,note_on,159,0,1,,,,,,,,,0,,,79,0
55359,note_on,0,0,1,,,,,,,,,0,,,77,101
55359,note_on,79,0,3,,,,,,,,,2,,,60,0
55440,note_on,81,0,3,,,,,,,,,2,,,56,0
55440,note_on,0,0,3,,,,,,,,,2,,,53,75
55520,note_on,161,0,1,,,,,,,,,0,,,77,0
55520,note_on,80,0,3,,,,,,,,,2,,,53,0
55520,note_on,0,0,1,,,,,,,,,0,,,61,101
55520,note_on,0,0,1,,,,,,,,,0,,,65,0
55520,note_on,0,0,1,,,,,,,,,0,,,73,101
55520,note_on,0,0,3,,,,,,,,,2,,,48,75
55599,note_on,0,0,3,,,,,,,,,2,,,44,75
55599,note_on,79,0,3,,,,,,,,,2,,,48,0
55599,control_change,0,0,3,,,,,,,,,2,64,0,,
55680,control_change,0,0,3,,,,,,,,,2,64,127,,
55680,note_on,81,0,3,,,,,,,,,2,,,44,0
55680,note_on,0,0,1,,,,,,,,,0,,,61,0
55680,note_on,0,0,1,,,,,,,,,0,,,61,127
55680,note_on,0,0,1,,,,,,,,,0,,,73,127
55680,note_on,0,0,3,,,,,,,,,2,,,36,75
55680,note_on,160,0,1,,,,,,,,,0,,,73,0
55760,note_on,0,0,3,,,,,,,,,2,,,46,75
55760,note_on,80,0,3,,,,,,,,,2,,,36,0
55839,note_on,0,0,3,,,,,,,,,2,,,52,75
55839,note_on,79,0,3,,,,,,,,,2,,,46,0
55920,note_on,81,0,3,,,,,,,,,2,,,52,0
55920,note_on,0,0,3,,,,,,,,,2,,,55,75
56000,note_on,80,0,3,,,,,,,,,2,,,55,0
56000,note_on,0,0,3,,,,,,,,,2,,,58,75
56079,note_on,0,0,3,,,,,,,,,2,,,64,75
56079,note_on,79,0,3,,,,,,,,,2,,,58,0
56160,note_on,0,0,3,,,,,,,,,2,,,67,75
56160,note_on,81,0,3,,,,,,,,,2,,,64,0
56240,note_on,80,0,3,,,,,,,,,2,,,67,0
56240,note_on,0,0,3,,,,,,,,,2,,,64,75
56319,note_on,0,0,3,,,,,,,,,2,,,58,75
56319,note_on,79,0,3,,,,,,,,,2,,,64,0
56400,note_on,0,0,3,,,,,,,,,2,,,55,75
56400,note_on,81,0,3,,,,,,,,,2,,,58,0
56480,note_on,0,0,3,,,,,,,,,2,,,52,75
56480,note_on,80,0,3,,,,,,,,,2,,,55,0
56559,note_on,0,0,3,,,,,,,,,2,,,46,75
56559,note_on,79,0,3,,,,,,,,,2,,,52,0
56640,note_on,81,0,3,,,,,,,,,2,,,46,0
56640,control_change,960,0,1,,,,,,,,,0,64,0,,
56640,control_change,0,0,3,,,,,,,,,2,64,0,,
56760,note_on,0,0,1,,,,,,,,,0,,,61,0
56760,note_on,0,0,1,,,,,,,,,0,,,60,75
56760,control_change,0,0,1,,,,,,,,,0,64,127,,
56760,set_tempo,2040,1,0,,,,,,400000,,,,,,,
56760,note_on,0,0,1,,,,,,,,,0,,,72,75
56760,note_on,120,0,1,,,,,,,,,0,,,73,0
56880,set_tempo,120,1,0,,,,,,425532,,,,,,,
56880,note_on,0,0,1,,,,,,,,,0,,,71,75
56880,note_on,0,0,1,,,,,,,,,0,,,60,0
56880,note_on,120,0,1,,,,,,,,,0,,,72,0
56880,note_on,0,0,1,,,,,,,,,0,,,59,75
57000,note_on,120,0,1,,,,,,,,,0,,,71,0
57000,note_on,0,0,1,,,,,,,,,0,,,72,75
57000,note_on,0,0,1,,,,,,,,,0,,,59,0
57000,note_on,0,0,1,,,,,,,,,0,,,60,75
57120,set_tempo,240,1,0,,,,,,454545,,,,,,,
57120,note_on,0,0,1,,,,,,,,,0,,,59,75
57120,note_on,0,0,1,,,,,,,,,0,,,60,0
57120,note_on,0,0,1,,,,,,,,,0,,,71,75
57120,note_on,120,0,1,,,,,,,,,0,,,72,0
57240,note_on,0,0,1,,,,,,,,,0,,,72,88
57240,note_on,0,0,1,,,,,,,,,0,,,59,0
57240,note_on,0,0,1,,,,,,,,,0,,,60,88
57240,note_on,120,0,1,,,,,,,,,0,,,71,0
57360,note_on,0,0,1,,,,,,,,,0,,,59,88
57360,set_tempo,240,1,0,,,,,,487805,,,,,,,
57360,note_on,120,0,1,,,,,,,,,0,,,72,0
57360,note_on,0,0,1,,,,,,,,,0,,,60,0
57360,note_on,0,0,1,,,,,,,,,0,,,71,88
57480,note_on,120,0,1,,,,,,,,,0,,,71,0
57480,note_on,0,0,1,,,,,,,,,0,,,59,0
57480,note_on,0,0,1,,,,,,,,,0,,,60,88
57480,note_on,0,0,1,,,,,,,,,0,,,72,88
57600,note_on,0,0,1,,,,,,,,,0,,,60,0
57600,note_on,0,0,1,,,,,,,,,0,,,71,88
57600,note_on,120,0,1,,,,,,,,,0,,,72,0
57600,set_tempo,240,1,0,,,,,,540541,,,,,,,
57600,note_on,0,0,1,,,,,,,,,0,,,59,88
57720,note_on,120,0,1,,,,,,,,,0,,,71,0
57720,note_on,0,0,1,,,,,,,,,0,,,59,0
57720,note_on,0,0,1,,,,,,,,,0,,,72,101
57720,note_on,0,0,1,,,,,,,,,0,,,60,101
57840,note_on,120,0,1,,,,,,,,,0,,,72,0
57840,note_on,0,0,1,,,,,,,,,0,,,60,0
57840,note_on,0,0,1,,,,,,,,,0,,,71,101
57840,set_tempo,240,1,0,,,,,,588235,,,,,,,
57840,note_on,0,0,1,,,,,,,,,0,,,59,101
57960,note_on,0,0,1,,,,,,,,,0,,,59,0
57960,note_on,0,0,1,,,,,,,,,0,,,60,101
57960,note_on,0,0,1,,,,,,,,,0,,,72,101
57960,note_on,120,0,1,,,,,,,,,0,,,71,0
58080,note_on,0,0,1,,,,,,,,,0,,,60,0
58080,note_on,0,0,1,,,,,,,,,0,,,63,101
58080,note_on,120,0,1,,,,,,,,,0,,,72,0
58080,note_on,0,0,1,,,,,,,,,0,,,75,101
58080,set_tempo,240,1,0,,,,,,645161,,,,,,,
58200,note_on,120,0,1,,,,,,,,,0,,,75,0
58200,note_on,0,0,1,,,,,,,,,0,,,63,0
58200,note_on,0,0,1,,,,,,,,,0,,,61,127
58200,note_on,0,0,1,,,,,,,,,0,,,73,127
58247,note_on,0,0,1,,,,,,,,,0,,,61,0
58247,note_on,47,0,1,,,,,,,,,0,,,73,0
58320,set_tempo,240,1,0,,,,,,714286,,,,,,,
58440,control_change,193,0,1,,,,,,,,,0,64,0,,
58440,note_on,0,0,1,,,,,,,,,0,,,72,101
58440,note_on,0,0,1,,,,,,,,,0,,,60,101
58560,note_on,0,0,1,,,,,,,,,0,,,60,101
58560,note_on,0,0,1,,,,,,,,,0,,,60,0
58560,note_on,120,0,1,,,,,,,,,0,,,72,0
58560,note_on,1920,0,3,,,,,,,,,2,,,29,101
58560,set_tempo,0,1,0,,,,,,555556,,,,,,,
58560,time_signature,240,1,0,4,4,24,8,,,,,,,,,
58560,note_on,0,0,1,,,,,,,,,0,,,72,101
58800,control_change,58800,0,2,,,,,,,,,1,64,127,,
58800,note_on,0,0,2,,,,,,,,,1,,,41,88
58880,note_on,0,0,2,,,,,,,,,1,,,48,88
58880,note_on,80,0,2,,,,,,,,,1,,,41,0
58959,note_on,0,0,2,,,,,,,,,1,,,57,88
58959,note_on,0,0,2,,,,,,,,,1,,,53,88
58959,note_on,79,0,2,,,,,,,,,1,,,48,0
59040,note_on,0,0,2,,,,,,,,,1,,,57,88
59040,note_on,0,0,2,,,,,,,,,1,,,53,0
59040,note_on,81,0,2,,,,,,,,,1,,,57,0
59120,note_on,80,0,2,,,,,,,,,1,,,57,0
59120,note_on,0,0,2,,,,,,,,,1,,,60,88
59199,note_on,0,0,2,,,,,,,,,1,,,69,88
59199,note_on,79,0,2,,,,,,,,,1,,,60,0
59199,note_on,0,0,2,,,,,,,,,1,,,65,88
59280,note_on,81,0,2,,,,,,,,,1,,,69,0
59280,note_on,0,0,2,,,,,,,,,1,,,65,0
59280,note_on,0,0,2,,,,,,,,,1,,,69,88
59360,note_on,0,0,2,,,,,,,,,1,,,72,88
59360,note_on,80,0,2,,,,,,,,,1,,,69,0
59439,note_on,79,0,2,,,,,,,,,1,,,72,0
59439,note_on,0,0,2,,,,,,,,,1,,,77,88
59439,note_on,0,0,2,,,,,,,,,1,,,81,88
59520,note_on,81,0,2,,,,,,,,,1,,,81,0
59520,note_on,0,0,2,,,,,,,,,1,,,77,0
59520,note_on,0,0,2,,,,,,,,,1,,,81,88
59600,note_on,80,0,2,,,,,,,,,1,,,81,0
59600,note_on,0,0,2,,,,,,,,,1,,,84,88
59679,note_on,79,0,2,,,,,,,,,1,,,84,0
59679,note_on,0,0,2,,,,,,,,,1,,,93,88
59679,note_on,0,0,2,,,,,,,,,1,,,89,88
59760,note_on,81,0,2,,,,,,,,,1,,,93,0
59760,note_on,0,0,2,,,,,,,,,1,,,89,88
59760,note_on,0,0,2,,,,,,,,,1,,,89,0
59760,note_on,0,0,2,,,,,,,,,1,,,93,88
59840,note_on,0,0,2,,,,,,,,,1,,,84,88
59840,note_on,80,0,2,,,,,,,,,1,,,93,0
59840,note_on,0,0,2,,,,,,,,,1,,,89,0
59919,note_on,0,0,2,,,,,,,,,1,,,81,88
59919,note_on,79,0,2,,,,,,,,,1,,,84,0
60000,note_on,0,0,2,,,,,,,,,1,,,81,88
60000,note_on,0,0,2,,,,,,,,,1,,,77,88
60000,note_on,0,0,1,,,,,,,,,0,,,60,0
60000,note_on,0,0,1,,,,,,,,,0,,,48,127
60000,note_on,81,0,2,,,,,,,,,1,,,81,0
60000,note_on,0,0,1,,,,,,,,,0,,,60,127
60000,note_on,1440,0,1,,,,,,,,,0,,,72,0
60080,note_on,80,0,2,,,,,,,,,1,,,81,0
60080,note_on,0,0,2,,,,,,,,,1,,,72,88
60080,note_on,0,0,2,,,,,,,,,1,,,77,0
60159,note_on,0,0,2,,,,,,,,,1,,,69,88
60159,note_on,79,0,2,,,,,,,,,1,,,72,0
60240,note_on,81,0,2,,,,,,,,,1,,,69,0
60240,note_on,0,0,2,,,,,,,,,1,,,65,88
60240,note_on,0,0,2,,,,,,,,,1,,,69,88
60320,note_on,0,0,2,,,,,,,,,1,,,60,88
60320,note_on,0,0,2,,,,,,,,,1,,,65,0
60320,note_on,80,0,2,,,,,,,,,1,,,69,0
60399,control_change,0,0,2,,,,,,,,,1,64,0,,
60399,note_on,79,0,2,,,,,,,,,1,,,60,0
60399,note_on,0,0,2,,,,,,,,,1,,,57,88
60480,note_on,0,0,3,,,,,,,,,2,,,50,127
60480,note_on,0,0,3,,,,,,,,,2,,,62,127
60480,note_on,1920,0,3,,,,,,,,,2,,,29,0
60480,control_change,0,0,3,,,,,,,,,2,64,127,,
60480,note_on,480,0,1,,,,,,,,,0,,,60,0
60480,note_on,81,0,2,,,,,,,,,1,,,57,0
60480,note_on,0,0,1,,,,,,,,,0,,,48,0
60480,control_change,13372,0,4,,,,,,,,,3,64,127,,
60720,note_on,0,0,1,,,,,,,,,0,,,59,88
60720,control_change,240,0,1,,,,,,,,,0,64,127,,
60760,note_on,280,0,4,,,,,,,,,3,,,41,101
60800,note_on,0,0,1,,,,,,,,,0,,,62,88
60800,note_on,80,0,1,,,,,,,,,0,,,59,0
60800,note_on,0,0,1,,,,,,,,,0,,,65,88
60800,note_on,40,0,4,,,,,,,,,3,,,47,101
60840,note_on,40,0,4,,,,,,,,,3,,,50,101
60879,note_on,0,0,1,,,,,,,,,0,,,69,88
60879,note_on,0,0,1,,,,,,,,,0,,,62,0
60879,note_on,79,0,1,,,,,,,,,0,,,65,0
60960,note_on,0,0,4,,,,,,,,,3,,,41,0
60960,note_on,0,0,1,,,,,,,,,0,,,69,88
60960,note_on,480,0,3,,,,,,,,,2,,,62,0
60960,note_on,0,0,3,,,,,,,,,2,,,53,127
60960,note_on,0,0,3,,,,,,,,,2,,,50,0
60960,note_on,120,0,4,,,,,,,,,3,,,50,0
60960,note_on,0,0,4,,,,,,,,,3,,,47,0
60960,note_on,0,0,3,,,,,,,,,2,,,65,127
60960,note_on,81,0,1,,,,,,,,,0,,,69,0
61040,note_on,80,0,1,,,,,,,,,0,,,69,0
61040,note_on,0,0,1,,,,,,,,,0,,,71,88
61040,note_on,0,0,1,,,,,,,,,0,,,74,88
61119,note_on,0,0,1,,,,,,,,,0,,,71,0
61119,note_on,0,0,1,,,,,,,,,0,,,81,88
61119,note_on,79,0,1,,,,,,,,,0,,,74,0
61200,note_on,81,0,1,,,,,,,,,0,,,81,0
61200,note_on,0,0,1,,,,,,,,,0,,,81,88
61280,note_on,80,0,1,,,,,,,,,0,,,81,0
61280,note_on,0,0,1,,,,,,,,,0,,,86,88
61280,note_on,0,0,1,,,,,,,,,0,,,83,88
61359,note_on,0,0,1,,,,,,,,,0,,,93,88
61359,note_on,0,0,1,,,,,,,,,0,,,83,0
61359,control_change,0,0,1,,,,,,,,,0,64,0,,
61359,note_on,79,0,1,,,,,,,,,0,,,86,0
61440,note_on,81,0,1,,,,,,,,,0,,,93,0
61440,note_on,0,0,3,,,,,,,,,2,,,55,127
61440,note_on,0,0,3,,,,,,,,,2,,,67,127
61440,note_on,0,0,3,,,,,,,,,2,,,53,0
61440,note_on,480,0,3,,,,,,,,,2,,,65,0
61680,control_change,240,0,1,,,,,,,,,0,64,127,,
61680,note_on,0,0,1,,,,,,,,,0,,,58,88
61710,note_on,750,0,4,,,,,,,,,3,,,41,101
61740,note_on,30,0,4,,,,,,,,,3,,,46,101
61760,note_on,80,0,1,,,,,,,,,0,,,58,0
61760,note_on,0,0,1,,,,,,,,,0,,,64,88
61760,note_on,0,0,1,,,,,,,,,0,,,61,88
61770,note_on,30,0,4,,,,,,,,,3,,,49,101
61800,note_on,30,0,4,,,,,,,,,3,,,52,101
61839,note_on,79,0,1,,,,,,,,,0,,,64,0
61839,note_on,0,0,1,,,,,,,,,0,,,69,88
61839,note_on,0,0,1,,,,,,,,,0,,,61,0
61920,control_change,0,0,3,,,,,,,,,2,64,0,,
61920,note_on,0,0,1,,,,,,,,,0,,,70,88
61920,note_on,480,0,3,,,,,,,,,2,,,67,0
61920,note_on,81,0,1,,,,,,,,,0,,,69,0
61920,note_on,0,0,4,,,,,,,,,3,,,49,0
61920,note_on,0,0,3,,,,,,,,,2,,,55,0
61920,note_on,0,0,3,,,,,,,,,2,,,57,127
61920,note_on,0,0,3,,,,,,,,,2,,,69,127
61920,note_on,120,0,4,,,,,,,,,3,,,52,0
61920,note_on,0,0,4,,,,,,,,,3,,,41,0
61920,note_on,0,0,4,,,,,,,,,3,,,46,0
62000,note_on,80,0,1,,,,,,,,,0,,,70,0
62000,note_on,0,0,1,,,,,,,,,0,,,76,88
62000,note_on,0,0,1,,,,,,,,,0,,,73,88
62079,note_on,79,0,1,,,,,,,,,0,,,76,0
62079,note_on,0,0,1,,,,,,,,,0,,,81,88
62079,note_on,0,0,1,,,,,,,,,0,,,73,0
62160,note_on,0,0,1,,,,,,,,,0,,,82,88
62160,note_on,81,0,1,,,,,,,,,0,,,81,0
62160,control_change,240,0,4,,,,,,,,,3,64,0,,
62240,note_on,80,0,1,,,,,,,,,0,,,82,0
62240,note_on,0,0,1,,,,,,,,,0,,,85,88
62240,note_on,0,0,1,,,,,,,,,0,,,88,88
62319,control_change,0,0,1,,,,,,,,,0,64,0,,
62319,note_on,0,0,1,,,,,,,,,0,,,85,0
62319,note_on,79,0,1,,,,,,,,,0,,,88,0
62319,note_on,0,0,1,,,,,,,,,0,,,93,88
62400,note_on,81,0,1,,,,,,,,,0,,,93,0
62400,note_on,0,0,3,,,,,,,,,2,,,57,0
62400,note_on,480,0,3,,,,,,,,,2,,,69,0
62400,control_change,240,0,4,,,,,,,,,3,64,127,,
62400,note_on,0,0,3,,,,,,,,,2,,,60,127
62400,note_on,0,0,3,,,,,,,,,2,,,72,127
62640,note_on,0,0,1,,,,,,,,,0,,,57,88
62640,control_change,240,0,1,,,,,,,,,0,64,127,,
62720,note_on,80,0,1,,,,,,,,,0,,,57,0
62720,note_on,0,0,1,,,,,,,,,0,,,60,88
62760,note_on,0,0,4,,,,,,,,,3,,,36,101
62760,note_on,0,0,4,,,,,,,,,3,,,41,101
62760,note_on,0,0,4,,,,,,,,,3,,,33,101
62760,note_on,360,0,4,,,,,,,,,3,,,29,101
62799,note_on,79,0,1,,,,,,,,,0,,,60,0
62799,note_on,0,0,1,,,,,,,,,0,,,65,88
62799,note_on,0,0,1,,,,,,,,,0,,,69,88
62880,note_on,0,0,4,,,,,,,,,3,,,29,101
62880,note_on,0,0,4,,,,,,,,,3,,,29,0
62880,note_on,0,0,4,,,,,,,,,3,,,36,0
62880,note_on,0,0,4,,,,,,,,,3,,,36,101
62880,note_on,0,0,4,,,,,,,,,3,,,33,101
62880,note_on,0,0,4,,,,,,,,,3,,,33,0
62880,note_on,0,0,4,,,,,,,,,3,,,41,101
62880,note_on,81,0,1,,,,,,,,,0,,,69,0
62880,note_on,0,0,1,,,,,,,,,0,,,69,88
62880,note_on,0,0,1,,,,,,,,,0,,,65,0
62880,note_on,120,0,4,,,,,,,,,3,,,41,0
62960,note_on,80,0,1,,,,,,,,,0,,,69,0
62960,note_on,0,0,1,,,,,,,,,0,,,72,88
63039,note_on,0,0,1,,,,,,,,,0,,,77,88
63039,note_on,79,0,1,,,,,,,,,0,,,72,0
63039,note_on,0,0,1,,,,,,,,,0,,,81,88
63120,note_on,81,0,1,,,,,,,,,0,,,81,0
63120,note_on,0,0,1,,,,,,,,,0,,,81,88
63120,note_on,0,0,4,,,,,,,,,3,,,29,0
63120,note_on,0,0,4,,,,,,,,,3,,,36,0
63120,note_on,0,0,4,,,,,,,,,3,,,33,0
63120,note_on,0,0,1,,,,,,,,,0,,,77,0
63120,note_on,240,0,4,,,,,,,,,3,,,41,0
63200,note_on,0,0,1,,,,,,,,,0,,,84,88
63200,note_on,80,0,1,,,,,,,,,0,,,81,0
63279,note_on,79,0,1,,,,,,,,,0,,,84,0
63279,note_on,0,0,1,,,,,,,,,0,,,89,88
63279,note_on,0,0,1,,,,,,,,,0,,,93,88
63360,note_on,0,0,1,,,,,,,,,0,,,93,88
63360,note_on,0,0,1,,,,,,,,,0,,,89,0
63360,note_on,0,0,1,,,,,,,,,0,,,89,88
63360,note_on,81,0,1,,,,,,,,,0,,,93,0
63440,note_on,80,0,1,,,,,,,,,0,,,93,0
63440,note_on,0,0,1,,,,,,,,,0,,,84,88
63440,note_on,0,0,1,,,,,,,,,0,,,89,0
63519,note_on,79,0,1,,,,,,,,,0,,,84,0
63519,note_on,0,0,1,,,,,,,,,0,,,81,88
63600,note_on,0,0,1,,,,,,,,,0,,,81,88
63600,note_on,81,0,1,,,,,,,,,0,,,81,0
63600,note_on,0,0,1,,,,,,,,,0,,,77,88
63680,note_on,0,0,1,,,,,,,,,0,,,77,0
63680,note_on,80,0,1,,,,,,,,,0,,,81,0
63680,note_on,0,0,1,,,,,,,,,0,,,72,88
63759,note_on,79,0,1,,,,,,,,,0,,,72,0
63759,note_on,0,0,1,,,,,,,,,0,,,69,88
63840,note_on,0,0,1,,,,,,,,,0,,,81,88
63840,note_on,0,0,3,,,,,,,,,2,,,60,0
63840,note_on,81,0,1,,,,,,,,,0,,,69,0
63840,note_on,0,0,3,,,,,,,,,2,,,60,127
63840,note_on,1440,0,3,,,,,,,,,2,,,72,0
63840,note_on,0,0,1,,,,,,,,,0,,,77,88
63840,note_on,0,0,3,,,,,,,,,2,,,48,127
63920,note_on,0,0,1,,,,,,,,,0,,,72,88
63920,note_on,0,0,1,,,,,,,,,0,,,77,0
63920,note_on,80,0,1,,,,,,,,,0,,,81,0
63999,note_on,0,0,1,,,,,,,,,0,,,69,88
63999,note_on,79,0,1,,,,,,,,,0,,,72,0
64080,note_on,81,0,1,,,,,,,,,0,,,69,0
64080,note_on,0,0,1,,,,,,,,,0,,,65,88
64080,note_on,0,0,1,,,,,,,,,0,,,69,88
64080,control_change,960,0,4,,,,,,,,,3,64,0,,
64160,note_on,80,0,1,,,,,,,,,0,,,69,0
64160,note_on,0,0,1,,,,,,,,,0,,,60,88
64160,note_on,0,0,1,,,,,,,,,0,,,65,0
64239,note_on,79,0,1,,,,,,,,,0,,,60,0
64239,control_change,0,0,1,,,,,,,,,0,64,0,,
64239,note_on,0,0,1,,,,,,,,,0,,,57,88
64320,control_change,0,0,3,,,,,,,,,2,64,127,,
64320,note_on,480,0,3,,,,,,,,,2,,,60,0
64320,control_change,240,0,4,,,,,,,,,3,64,127,,
64320,note_on,0,0,3,,,,,,,,,2,,,48,0
64320,note_on,81,0,1,,,,,,,,,0,,,57,0
64320,note_on,0,0,3,,,,,,,,,2,,,50,127
64320,note_on,0,0,3,,,,,,,,,2,,,62,127
64560,note_on,0,0,1,,,,,,,,,0,,,59,88
64560,control_change,240,0,1,,,,,,,,,0,64,127,,
64600,note_on,280,0,4,,,,,,,,,3,,,41,101
64640,note_on,40,0,4,,,,,,,,,3,,,47,101
64640,note_on,80,0,1,,,,,,,,,0,,,59,0
64640,note_on,0,0,1,,,,,,,,,0,,,62,88
64640,note_on,0,0,1,,,,,,,,,0,,,65,88
64680,note_on,40,0,4,,,,,,,,,3,,,50,101
64719,note_on,0,0,1,,,,,,,,,0,,,69,88
64719,note_on,0,0,1,,,,,,,,,0,,,62,0
64719,note_on,79,0,1,,,,,,,,,0,,,65,0
64800,note_on,0,0,4,,,,,,,,,3,,,41,0
64800,note_on,0,0,4,,,,,,,,,3,,,47,0
64800,note_on,480,0,3,,,,,,,,,2,,,62,0
64800,note_on,120,0,4,,,,,,,,,3,,,50,0
64800,note_on,0,0,3,,,,,,,,,2,,,65,127
64800,note_on,81,0,1,,,,,,,,,0,,,69,0
64800,note_on,0,0,1,,,,,,,,,0,,,69,88
64800,note_on,0,0,3,,,,,,,,,2,,,50,0
64800,note_on,0,0,3,,,,,,,,,2,,,53,127
64880,note_on,0,0,1,,,,,,,,,0,,,71,88
64880,note_on,0,0,1,,,,,,,,,0,,,74,88
64880,note_on,80,0,1,,,,,,,,,0,,,69,0
64959,note_on,79,0,1,,,,,,,,,0,,,74,0
64959,note_on,0,0,1,,,,,,,,,0,,,71,0
64959,note_on,0,0,1,,,,,,,,,0,,,81,88
65040,note_on,81,0,1,,,,,,,,,0,,,81,0
65040,note_on,0,0,1,,,,,,,,,0,,,81,88
65120,note_on,0,0,1,,,,,,,,,0,,,83,88
65120,note_on,80,0,1,,,,,,,,,0,,,81,0
65120,note_on,0,0,1,,,,,,,,,0,,,86,88
65199,note_on,0,0,1,,,,,,,,,0,,,83,0
65199,control_change,0,0,1,,,,,,,,,0,64,0,,
65199,note_on,79,0,1,,,,,,,,,0,,,86,0
65199,note_on,0,0,1,,,,,,,,,0,,,93,88
65280,note_on,480,0,3,,,,,,,,,2,,,65,0
65280,note_on,0,0,3,,,,,,,,,2,,,67,127
65280,note_on,81,0,1,,,,,,,,,0,,,93,0
65280,note_on,0,0,3,,,,,,,,,2,,,55,127
65280,note_on,0,0,3,,,,,,,,,2,,,53,0
65520,control_change,240,0,1,,,,,,,,,0,64,127,,
65520,note_on,0,0,1,,,,,,,,,0,,,58,88
65550,note_on,750,0,4,,,,,,,,,3,,,41,101
65580,note_on,30,0,4,,,,,,,,,3,,,46,101
65600,note_on,0,0,1,,,,,,,,,0,,,61,88
65600,note_on,0,0,1,,,,,,,,,0,,,64,88
65600,note_on,80,0,1,,,,,,,,,0,,,58,0
65610,note_on,30,0,4,,,,,,,,,3,,,49,101
65640,note_on,30,0,4,,,,,,,,,3,,,52,101
65679,note_on,0,0,1,,,,,,,,,0,,,61,0
65679,note_on,79,0,1,,,,,,,,,0,,,64,0
65679,note_on,0,0,1,,,,,,,,,0,,,69,88
65760,note_on,0,0,4,,,,,,,,,3,,,49,0
65760,note_on,81,0,1,,,,,,,,,0,,,69,0
65760,control_change,0,0,3,,,,,,,,,2,64,0,,
65760,note_on,0,0,4,,,,,,,,,3,,,41,0
65760,note_on,0,0,3,,,,,,,,,2,,,69,127
65760,note_on,0,0,3,,,,,,,,,2,,,57,127
65760,note_on,0,0,3,,,,,,,,,2,,,55,0
65760,note_on,0,0,1,,,,,,,,,0,,,70,88
65760,note_on,480,0,3,,,,,,,,,2,,,67,0
65760,note_on,120,0,4,,,,,,,,,3,,,52,0
65760,note_on,0,0,4,,,,,,,,,3,,,46,0
65840,note_on,80,0,1,,,,,,,,,0,,,70,0
65840,note_on,0,0,1,,,,,,,,,0,,,73,88
65840,note_on,0,0,1,,,,,,,,,0,,,76,88
65919,note_on,0,0,1,,,,,,,,,0,,,81,88
65919,note_on,79,0,1,,,,,,,,,0,,,76,0
65919,note_on,0,0,1,,,,,,,,,0,,,73,0
66000,control_change,240,0,4,,,,,,,,,3,64,0,,
66000,note_on,0,0,1,,,,,,,,,0,,,82,88
66000,note_on,81,0,1,,,,,,,,,0,,,81,0
66080,note_on,80,0,1,,,,,,,,,0,,,82,0
66080,note_on,0,0,1,,,,,,,,,0,,,88,88
66080,note_on,0,0,1,,,,,,,,,0,,,85,88
66159,note_on,0,0,1,,,,,,,,,0,,,93,88
66159,control_change,0,0,1,,,,,,,,,0,64,0,,
66159,note_on,0,0,1,,,,,,,,,0,,,85,0
66159,note_on,79,0,1,,,,,,,,,0,,,88,0
66240,note_on,0,0,3,,,,,,,,,2,,,57,0
66240,control_change,240,0,4,,,,,,,,,3,64,127,,
66240,note_on,480,0,3,,,,,,,,,2,,,69,0
66240,note_on,0,0,3,,,,,,,,,2,,,72,127
66240,note_on,0,0,3,,,,,,,,,2,,,60,127
66240,note_on,81,0,1,,,,,,,,,0,,,93,0
66480,control_change,240,0,1,,,,,,,,,0,64,127,,
66480,note_on,0,0,1,,,,,,,,,0,,,57,88
66560,note_on,80,0,1,,,,,,,,,0,,,57,0
66560,note_on,0,0,1,,,,,,,,,0,,,60,88
66600,note_on,0,0,4,,,,,,,,,3,,,33,101
66600,note_on,0,0,4,,,,,,,,,3,,,36,101
66600,note_on,360,0,4,,,,,,,,,3,,,29,101
66600,note_on,0,0,4,,,,,,,,,3,,,41,101
66639,note_on,79,0,1,,,,,,,,,0,,,60,0
66639,note_on,0,0,1,,,,,,,,,0,,,69,88
66639,note_on,0,0,1,,,,,,,,,0,,,65,88
66720,note_on,0,0,4,,,,,,,,,3,,,29,101
66720,note_on,0,0,4,,,,,,,,,3,,,33,0
66720,note_on,0,0,4,,,,,,,,,3,,,33,101
66720,note_on,120,0,4,,,,,,,,,3,,,41,0
66720,note_on,0,0,4,,,,,,,,,3,,,36,0
66720,note_on,0,0,4,,,,,,,,,3,,,29,0
66720,note_on,0,0,4,,,,,,,,,3,,,36,101
66720,note_on,0,0,1,,,,,,,,,0,,,69,88
66720,note_on,0,0,4,,,,,,,,,3,,,41,101
66720,note_on,81,0,1,,,,,,,,,0,,,69,0
66720,note_on,0,0,1,,,,,,,,,0,,,65,0
66800,note_on,0,0,1,,,,,,,,,0,,,72,88
66800,note_on,80,0,1,,,,,,,,,0,,,69,0
66879,note_on,79,0,1,,,,,,,,,0,,,72,0
66879,note_on,0,0,1,,,,,,,,,0,,,77,88
66879,note_on,0,0,1,,,,,,,,,0,,,81,88
66960,note_on,0,0,4,,,,,,,,,3,,,29,0
66960,note_on,0,0,1,,,,,,,,,0,,,77,0
66960,note_on,240,0,4,,,,,,,,,3,,,41,0
66960,note_on,0,0,4,,,,,,,,,3,,,33,0
66960,note_on,81,0,1,,,,,,,,,0,,,81,0
66960,note_on,0,0,4,,,,,,,,,3,,,36,0
66960,note_on,0,0,1,,,,,,,,,0,,,81,88
67040,note_on,80,0,1,,,,,,,,,0,,,81,0
67040,note_on,0,0,1,,,,,,,,,0,,,84,88
67119,note_on,0,0,1,,,,,,,,,0,,,89,88
67119,note_on,79,0,1,,,,,,,,,0,,,84,0
67119,note_on,0,0,1,,,,,,,,,0,,,93,88
67200,note_on,0,0,1,,,,,,,,,0,,,89,88
67200,note_on,81,0,1,,,,,,,,,0,,,93,0
67200,note_on,0,0,1,,,,,,,,,0,,,89,0
67200,note_on,0,0,1,,,,,,,,,0,,,93,88
67280,note_on,0,0,1,,,,,,,,,0,,,84,88
67280,note_on,0,0,1,,,,,,,,,0,,,89,0
67280,note_on,80,0,1,,,,,,,,,0,,,93,0
67359,note_on,0,0,1,,,,,,,,,0,,,81,88
67359,note_on,79,0,1,,,,,,,,,0,,,84,0
67440,note_on,0,0,1,,,,,,,,,0,,,81,88
67440,note_on,0,0,1,,,,,,,,,0,,,77,88
67440,note_on,81,0,1,,,,,,,,,0,,,81,0
67520,note_on,80,0,1,,,,,,,,,0,,,81,0
67520,note_on,0,0,1,,,,,,,,,0,,,72,88
67520,note_on,0,0,1,,,,,,,,,0,,,77,0
67599,note_on,0,0,1,,,,,,,,,0,,,69,88
67599,note_on,79,0,1,,,,,,,,,0,,,72,0
67680,note_on,0,0,3,,,,,,,,,2,,,60,0
67680,note_on,81,0,1,,,,,,,,,0,,,69,0
67680,note_on,0,0,1,,,,,,,,,0,,,81,88
67680,note_on,0,0,3,,,,,,,,,2,,,48,127
67680,note_on,1440,0,3,,,,,,,,,2,,,72,0
67680,note_on,0,0,3,,,,,,,,,2,,,40,127
67680,note_on,0,0,3,,,,,,,,,2,,,45,127
67680,note_on,0,0,1,,,,,,,,,0,,,77,88
67760,note_on,0,0,1,,,,,,,,,0,,,72,88
67760,note_on,0,0,1,,,,,,,,,0,,,77,0
67760,note_on,80,0,1,,,,,,,,,0,,,81,0
67839,note_on,79,0,1,,,,,,,,,0,,,72,0
67839,note_on,0,0,1,,,,,,,,,0,,,69,88
67920,note_on,81,0,1,,,,,,,,,0,,,69,0
67920,note_on,0,0,1,,,,,,,,,0,,,69,88
67920,control_change,960,0,4,,,,,,,,,3,64,0,,
67920,note_on,0,0,1,,,,,,,,,0,,,65,88
68000,note_on,0,0,1,,,,,,,,,0,,,65,0
68000,note_on,80,0,1,,,,,,,,,0,,,69,0
68000,note_on,0,0,1,,,,,,,,,0,,,60,88
68079,control_change,0,0,1,,,,,,,,,0,64,0,,
68079,note_on,79,0,1,,,,,,,,,0,,,60,0
68079,note_on,0,0,1,,,,,,,,,0,,,57,88
68160,note_on,480,0,3,,,,,,,,,2,,,48,0
68160,note_on,0,0,3,,,,,,,,,2,,,42,127
68160,note_on,81,0,1,,,,,,,,,0,,,57,0
68160,note_on,0,0,3,,,,,,,,,2,,,45,0
68160,note_on,0,0,3,,,,,,,,,2,,,45,127
68160,note_on,0,0,3,,,,,,,,,2,,,48,127
68160,note_on,0,0,3,,,,,,,,,2,,,40,0
68160,control_change,0,0,3,,,,,,,,,2,64,127,,
68160,note_on,0,0,3,,,,,,,,,2,,,39,127
68400,note_on,0,0,1,,,,,,,,,0,,,57,88
68400,control_change,240,0,1,,,,,,,,,0,64,127,,
68480,note_on,80,0,1,,,,,,,,,0,,,57,0
68480,note_on,0,0,1,,,,,,,,,0,,,60,88
68559,note_on,79,0,1,,,,,,,,,0,,,60,0
68559,note_on,0,0,1,,,,,,,,,0,,,66,88
68559,note_on,0,0,1,,,,,,,,,0,,,69,88
68580,note_on,420,0,3,,,,,,,,,2,,,37,101
68640,note_on,0,0,1,,,,,,,,,0,,,69,88
68640,note_on,60,0,3,,,,,,,,,2,,,48,0
68640,note_on,81,0,1,,,,,,,,,0,,,69,0
68640,note_on,0,0,1,,,,,,,,,0,,,66,0
68640,note_on,0,0,3,,,,,,,,,2,,,52,127
68640,note_on,0,0,3,,,,,,,,,2,,,42,0
68640,note_on,0,0,3,,,,,,,,,2,,,45,0
68640,note_on,0,0,3,,,,,,,,,2,,,39,0
68640,note_on,0,0,3,,,,,,,,,2,,,49,127
68640,note_on,0,0,3,,,,,,,,,2,,,57,127
68720,note_on,0,0,1,,,,,,,,,0,,,73,88
68720,note_on,80,0,1,,,,,,,,,0,,,69,0
68799,note_on,0,0,1,,,,,,,,,0,,,81,88
68799,note_on,79,0,1,,,,,,,,,0,,,73,0
68799,note_on,0,0,1,,,,,,,,,0,,,76,88
68880,note_on,81,0,1,,,,,,,,,0,,,81,0
68880,note_on,0,0,1,,,,,,,,,0,,,76,0
68880,note_on,0,0,1,,,,,,,,,0,,,81,88
68960,note_on,80,0,1,,,,,,,,,0,,,81,0
68960,note_on,0,0,1,,,,,,,,,0,,,85,88
69039,note_on,79,0,1,,,,,,,,,0,,,85,0
69039,control_change,0,0,1,,,,,,,,,0,64,0,,
69039,note_on,0,0,1,,,,,,,,,0,,,88,88
69039,note_on,0,0,1,,,,,,,,,0,,,93,88
69060,note_on,420,0,3,,,,,,,,,2,,,36,101
69120,note_on,0,0,3,,,,,,,,,2,,,51,127
69120,note_on,0,0,3,,,,,,,,,2,,,37,0
69120,note_on,81,0,1,,,,,,,,,0,,,93,0
69120,note_on,0,0,3,,,,,,,,,2,,,48,127
69120,note_on,0,0,3,,,,,,,,,2,,,49,0
69120,note_on,0,0,3,,,,,,,,,2,,,56,127
69120,note_on,0,0,3,,,,,,,,,2,,,52,0
69120,note_on,0,0,1,,,,,,,,,0,,,88,0
69120,note_on,60,0,3,,,,,,,,,2,,,57,0
69200,note_on,0,0,1,,,,,,,,,0,,,68,88
69200,control_change,80,0,1,,,,,,,,,0,64,127,,
69279,note_on,79,0,1,,,,,,,,,0,,,68,0
69279,note_on,0,0,1,,,,,,,,,0,,,72,88
69360,note_on,81,0,1,,,,,,,,,0,,,72,0
69360,note_on,0,0,1,,,,,,,,,0,,,75,88
69360,note_on,0,0,1,,,,,,,,,0,,,80,88
69440,note_on,0,0,1,,,,,,,,,0,,,75,0
69440,note_on,0,0,1,,,,,,,,,0,,,80,88
69440,note_on,80,0,1,,,,,,,,,0,,,80,0
69519,note_on,79,0,1,,,,,,,,,0,,,80,0
69519,note_on,0,0,1,,,,,,,,,0,,,84,88
69540,note_on,420,0,3,,,,,,,,,2,,,32,101
69600,control_change,0,0,3,,,,,,,,,2,64,0,,
69600,note_on,0,0,3,,,,,,,,,2,,,36,0
69600,note_on,60,0,3,,,,,,,,,2,,,56,0
69600,note_on,0,0,1,,,,,,,,,0,,,92,88
69600,note_on,0,0,3,,,,,,,,,2,,,51,127
69600,note_on,0,0,3,,,,,,,,,2,,,48,0
69600,note_on,0,0,3,,,,,,,,,2,,,51,0
69600,note_on,81,0,1,,,,,,,,,0,,,84,0
69600,note_on,0,0,3,,,,,,,,,2,,,48,127
69600,note_on,0,0,3,,,,,,,,,2,,,44,127
69600,note_on,0,0,1,,,,,,,,,0,,,87,88
69680,note_on,0,0,1,,,,,,,,,0,,,84,88
69680,note_on,80,0,1,,,,,,,,,0,,,92,0
69680,note_on,0,0,1,,,,,,,,,0,,,87,0
69759,note_on,0,0,1,,,,,,,,,0,,,80,88
69759,note_on,79,0,1,,,,,,,,,0,,,84,0
69840,note_on,81,0,1,,,,,,,,,0,,,80,0
69840,note_on,0,0,1,,,,,,,,,0,,,84,88
69840,note_on,0,0,1,,,,,,,,,0,,,87,88
69920,note_on,0,0,1,,,,,,,,,0,,,80,88
69920,note_on,0,0,1,,,,,,,,,0,,,84,0
69920,note_on,80,0,1,,,,,,,,,0,,,87,0
69990,note_on,390,0,3,,,,,,,,,2,,,37,101
69999,note_on,79,0,1,,,,,,,,,0,,,80,0
69999,control_change,0,0,1,,,,,,,,,0,64,0,,
69999,note_on,0,0,1,,,,,,,,,0,,,75,88
70020,note_on,30,0,3,,,,,,,,,2,,,44,101
70050,note_on,30,0,3,,,,,,,,,2,,,49,101
70080,control_change,0,0,3,,,,,,,,,2,64,127,,
70080,note_on,30,0,3,,,,,,,,,2,,,51,0
70080,note_on,81,0,1,,,,,,,,,0,,,75,0
70080,note_on,0,0,3,,,,,,,,,2,,,54,101
70080,note_on,0,0,3,,,,,,,,,2,,,32,0
70080,note_on,0,0,3,,,,,,,,,2,,,44,0
70080,note_on,0,0,3,,,,,,,,,2,,,48,0
70320,control_change,240,0,1,,,,,,,,,0,64,127,,
70320,note_on,0,0,1,,,,,,,,,0,,,66,88
70400,note_on,80,0,1,,,,,,,,,0,,,66,0
70400,note_on,0,0,1,,,,,,,,,0,,,68,88
70400,note_on,0,0,1,,,,,,,,,0,,,73,88
70470,note_on,390,0,3,,,,,,,,,2,,,37,101
70479,note_on,79,0,1,,,,,,,,,0,,,73,0
70479,note_on,0,0,1,,,,,,,,,0,,,78,88
70479,note_on,0,0,1,,,,,,,,,0,,,68,0
70500,note_on,30,0,3,,,,,,,,,2,,,44,101
70530,note_on,30,0,3,,,,,,,,,2,,,49,101
70560,note_on,0,0,3,,,,,,,,,2,,,37,0
70560,note_on,0,0,3,,,,,,,,,2,,,49,0
70560,note_on,0,0,3,,,,,,,,,2,,,44,0
70560,note_on,0,0,1,,,,,,,,,0,,,64,88
70560,note_on,30,0,3,,,,,,,,,2,,,54,0
70560,note_on,81,0,1,,,,,,,,,0,,,78,0
70560,note_on,0,0,3,,,,,,,,,2,,,52,101
70640,note_on,0,0,1,,,,,,,,,0,,,68,88
70640,note_on,0,0,1,,,,,,,,,0,,,73,88
70640,note_on,80,0,1,,,,,,,,,0,,,64,0
70719,note_on,0,0,1,,,,,,,,,0,,,68,0
70719,note_on,0,0,1,,,,,,,,,0,,,76,88
70719,note_on,79,0,1,,,,,,,,,0,,,73,0
70800,note_on,0,0,1,,,,,,,,,0,,,76,88
70800,note_on,81,0,1,,,,,,,,,0,,,76,0
70880,note_on,0,0,1,,,,,,,,,0,,,85,88
70880,note_on,0,0,1,,,,,,,,,0,,,80,88
70880,note_on,80,0,1,,,,,,,,,0,,,76,0
70959,note_on,79,0,1,,,,,,,,,0,,,85,0
70959,note_on,0,0,1,,,,,,,,,0,,,88,88
70959,note_on,0,0,1,,,,,,,,,0,,,80,0
71040,note_on,81,0,1,,,,,,,,,0,,,88,0
71040,note_on,0,0,1,,,,,,,,,0,,,88,88
71120,note_on,0,0,1,,,,,,,,,0,,,92,88
71120,note_on,80,0,1,,,,,,,,,0,,,88,0
71120,note_on,0,0,1,,,,,,,,,0,,,97,88
71199,note_on,0,0,1,,,,,,,,,0,,,100,88
71199,note_on,79,0,1,,,,,,,,,0,,,97,0
71199,note_on,0,0,1,,,,,,,,,0,,,92,0
71280,note_on,0,0,1,,,,,,,,,0,,,100,88
71280,note_on,81,0,1,,,,,,,,,0,,,100,0
71360,note_on,0,0,1,,,,,,,,,0,,,97,88
71360,note_on,0,0,1,,,,,,,,,0,,,92,88
71360,note_on,80,0,1,,,,,,,,,0,,,100,0
71439,note_on,79,0,1,,,,,,,,,0,,,97,0
71439,note_on,0,0,1,,,,,,,,,0,,,88,88
71439,note_on,0,0,1,,,,,,,,,0,,,92,0
71520,note_on,0,0,1,,,,,,,,,0,,,86,88
71520,note_on,0,0,3,,,,,,,,,2,,,41,101
71520,note_on,0,0,3,,,,,,,,,2,,,50,101
71520,note_on,0,0,3,,,,,,,,,2,,,49,0
71520,note_on,0,0,3,,,,,,,,,2,,,44,101
71520,note_on,0,0,3,,,,,,,,,2,,,44,0
71520,note_on,0,0,3,,,,,,,,,2,,,35,101
71520,note_on,81,0,1,,,,,,,,,0,,,88,0
71520,note_on,0,0,3,,,,,,,,,2,,,37,0
71520,note_on,960,0,3,,,,,,,,,2,,,52,0
71520,control_change,0,0,3,,,,,,,,,2,64,0,,
71600,note_on,0,0,1,,,,,,,,,0,,,80,88
71600,note_on,80,0,1,,,,,,,,,0,,,86,0
71600,note_on,0,0,1,,,,,,,,,0,,,77,88
71679,note_on,0,0,1,,,,,,,,,0,,,74,88
71679,note_on,0,0,1,,,,,,,,,0,,,77,0
71679,note_on,79,0,1,,,,,,,,,0,,,80,0
71760,note_on,81,0,1,,,,,,,,,0,,,74,0
71760,note_on,0,0,1,,,,,,,,,0,,,74,88
71840,note_on,0,0,1,,,,,,,,,0,,,65,88
71840,note_on,80,0,1,,,,,,,,,0,,,74,0
71840,note_on,0,0,1,,,,,,,,,0,,,68,88
71919,note_on,79,0,1,,,,,,,,,0,,,68,0
71919,control_change,0,0,1,,,,,,,,,0,64,0,,
71919,note_on,0,0,1,,,,,,,,,0,,,62,88
71919,note_on,0,0,1,,,,,,,,,0,,,65,0
72000,note_on,480,0,3,,,,,,,,,2,,,50,0
72000,note_on,0,0,3,,,,,,,,,2,,,42,101
72000,note_on,0,0,3,,,,,,,,,2,,,41,0
72000,note_on,0,0,3,,,,,,,,,2,,,35,0
72000,note_on,0,0,3,,,,,,,,,2,,,34,101
72000,note_on,81,0,1,,,,,,,,,0,,,62,0
72000,note_on,0,0,3,,,,,,,,,2,,,50,101
72000,note_on,0,0,3,,,,,,,,,2,,,44,0
72080,control_change,80,0,1,,,,,,,,,0,64,127,,
72080,note_on,0,0,1,,,,,,,,,0,,,62,88
72159,note_on,79,0,1,,,,,,,,,0,,,62,0
72159,note_on,0,0,1,,,,,,,,,0,,,70,88
72159,note_on,0,0,1,,,,,,,,,0,,,66,88
72240,note_on,81,0,1,,,,,,,,,0,,,70,0
72240,note_on,0,0,1,,,,,,,,,0,,,66,0
72240,note_on,0,0,1,,,,,,,,,0,,,74,88
72320,note_on,80,0,1,,,,,,,,,0,,,74,0
72320,note_on,0,0,1,,,,,,,,,0,,,74,88
72320,note_on,0,0,1,,,,,,,,,0,,,78,88
72360,note_on,40,0,1,,,,,,,,,0,,,82,88
72399,note_on,39,0,1,,,,,,,,,0,,,74,0
72399,note_on,0,0,1,,,,,,,,,0,,,86,88
72480,note_on,81,0,1,,,,,,,,,0,,,86,0
72480,note_on,480,0,3,,,,,,,,,2,,,50,0
72480,note_on,0,0,3,,,,,,,,,2,,,42,101
72480,note_on,0,0,1,,,,,,,,,0,,,82,0
72480,note_on,0,0,1,,,,,,,,,0,,,85,88
72480,note_on,0,0,3,,,,,,,,,2,,,34,0
72480,note_on,0,0,3,,,,,,,,,2,,,34,101
72480,note_on,0,0,3,,,,,,,,,2,,,42,0
72480,note_on,0,0,3,,,,,,,,,2,,,49,101
72480,note_on,0,0,1,,,,,,,,,0,,,78,0
72560,note_on,0,0,1,,,,,,,,,0,,,82,88
72560,note_on,0,0,1,,,,,,,,,0,,,78,88
72560,note_on,80,0,1,,,,,,,,,0,,,85,0
72639,note_on,79,0,1,,,,,,,,,0,,,82,0
72639,note_on,0,0,1,,,,,,,,,0,,,73,88
72639,note_on,0,0,1,,,,,,,,,0,,,78,0
72720,note_on,81,0,1,,,,,,,,,0,,,73,0
72720,note_on,0,0,1,,,,,,,,,0,,,73,88
72800,note_on,0,0,1,,,,,,,,,0,,,70,88
72800,note_on,0,0,1,,,,,,,,,0,,,66,88
72800,note_on,80,0,1,,,,,,,,,0,,,73,0
72879,control_change,0,0,1,,,,,,,,,0,64,0,,
72879,note_on,0,0,1,,,,,,,,,0,,,66,0
72879,note_on,0,0,1,,,,,,,,,0,,,61,88
72879,note_on,79,0,1,,,,,,,,,0,,,70,0
72960,note_on,0,0,2,,,,,,,,,1,,,64,114
72960,note_on,81,0,1,,,,,,,,,0,,,61,0
72960,note_on,0,0,3,,,,,,,,,2,,,43,127
72960,note_on,12480,0,2,,,,,,,,,1,,,52,114
72960,note_on,480,0,3,,,,,,,,,2,,,49,0
72960,control_change,0,0,1,,,,,,,,,0,64,127,,
72960,note_on,0,0,3,,,,,,,,,2,,,42,0
72960,note_on,0,0,3,,,,,,,,,2,,,33,127
72960,note_on,0,0,3,,,,,,,,,2,,,34,0
72960,note_on,0,0,3,,,,,,,,,2,,,40,127
72960,note_on,0,0,1,,,,,,,,,0,,,52,88
72960,note_on,0,0,3,,,,,,,,,2,,,49,127
73040,note_on,0,0,1,,,,,,,,,0,,,55,88
73040,note_on,80,0,1,,,,,,,,,0,,,52,0
73119,note_on,0,0,1,,,,,,,,,0,,,61,88
73119,note_on,79,0,1,,,,,,,,,0,,,55,0
73200,note_on,81,0,1,,,,,,,,,0,,,61,0
73200,note_on,0,0,1,,,,,,,,,0,,,64,88
73280,note_on,0,0,1,,,,,,,,,0,,,55,88
73280,note_on,80,0,1,,,,,,,,,0,,,64,0
73359,note_on,0,0,1,,,,,,,,,0,,,61,88
73359,note_on,79,0,1,,,,,,,,,0,,,55,0
73440,control_change,0,0,3,,,,,,,,,2,64,0,,
73440,note_on,0,0,3,,,,,,,,,2,,,40,0
73440,note_on,0,0,3,,,,,,,,,2,,,43,0
73440,note_on,81,0,1,,,,,,,,,0,,,61,0
73440,note_on,0,0,1,,,,,,,,,0,,,64,114
73440,note_on,0,0,3,,,,,,,,,2,,,33,0
73440,note_on,480,0,3,,,,,,,,,2,,,49,0
73455,note_on,15,0,1,,,,,,,,,0,,,64,0
73520,note_on,65,0,1,,,,,,,,,0,,,64,88
73599,note_on,79,0,1,,,,,,,,,0,,,64,0
73599,note_on,0,0,1,,,,,,,,,0,,,67,88
73680,note_on,81,0,1,,,,,,,,,0,,,67,0
73680,note_on,0,0,1,,,,,,,,,0,,,76,88
73680,note_on,0,0,1,,,,,,,,,0,,,73,88
73760,note_on,0,0,1,,,,,,,,,0,,,73,0
73760,note_on,0,0,1,,,,,,,,,0,,,67,88
73760,note_on,80,0,1,,,,,,,,,0,,,76,0
73839,note_on,79,0,1,,,,,,,,,0,,,67,0
73839,note_on,0,0,1,,,,,,,,,0,,,73,88
73920,note_on,960,0,2,,,,,,,,,1,,,64,0
73920,time_signature,15360,1,0,2,4,24,8,,,,,,,,,
73920,note_on,81,0,1,,,,,,,,,0,,,73,0
73920,note_on,0,0,2,,,,,,,,,1,,,52,0
73920,note_on,0,0,1,,,,,,,,,0,,,76,114
73935,note_on,15,0,1,,,,,,,,,0,,,76,0
74000,note_on,65,0,1,,,,,,,,,0,,,76,88
74079,note_on,79,0,1,,,,,,,,,0,,,76,0
74079,note_on,0,0,1,,,,,,,,,0,,,79,88
74160,note_on,0,0,1,,,,,,,,,0,,,88,88
74160,note_on,81,0,1,,,,,,,,,0,,,79,0
74160,note_on,0,0,1,,,,,,,,,0,,,85,88
74240,note_on,0,0,1,,,,,,,,,0,,,79,88
74240,note_on,0,0,1,,,,,,,,,0,,,85,0
74240,note_on,80,0,1,,,,,,,,,0,,,88,0
74319,note_on,79,0,1,,,,,,,,,0,,,79,0
74319,note_on,0,0,1,,,,,,,,,0,,,85,88
74400,note_on,81,0,1,,,,,,,,,0,,,85,0
74400,control_change,0,0,1,,,,,,,,,0,64,0,,
74400,note_on,0,0,1,,,,,,,,,0,,,88,114
74415,note_on,15,0,1,,,,,,,,,0,,,88,0
74480,control_change,65,0,1,,,,,,,,,0,64,127,,
74480,note_on,0,0,1,,,,,,,,,0,,,88,88
74559,note_on,0,0,1,,,,,,,,,0,,,91,88
74559,note_on,79,0,1,,,,,,,,,0,,,88,0
74640,note_on,0,0,1,,,,,,,,,0,,,87,88
74640,note_on,81,0,1,,,,,,,,,0,,,91,0
74640,note_on,0,0,1,,,,,,,,,0,,,96,88
74720,note_on,80,0,1,,,,,,,,,0,,,96,0
74720,note_on,0,0,1,,,,,,,,,0,,,97,88
74720,note_on,0,0,1,,,,,,,,,0,,,88,88
74720,note_on,0,0,1,,,,,,,,,0,,,87,0
74799,note_on,0,0,1,,,,,,,,,0,,,90,88
74799,note_on,79,0,1,,,,,,,,,0,,,97,0
74799,note_on,0,0,1,,,,,,,,,0,,,99,88
74799,control_change,0,0,1,,,,,,,,,0,64,0,,
74799,note_on,0,0,1,,,,,,,,,0,,,88,0
74880,control_change,960,0,2,,,,,,,,,1,64,127,,
74880,control_change,0,0,1,,,,,,,,,0,64,127,,
74880,note_on,0,0,1,,,,,,,,,0,,,102,62
74880,time_signature,960,1,0,4,4,24,8,,,,,,,,,
74880,note_on,0,0,1,,,,,,,,,0,,,90,0
74880,note_on,81,0,1,,,,,,,,,0,,,99,0
74880,note_on,0,0,2,,,,,,,,,1,,,93,62
74940,note_on,0,0,1,,,,,,,,,0,,,101,62
74940,note_on,60,0,1,,,,,,,,,0,,,102,0
74940,note_on,60,0,2,,,,,,,,,1,,,93,0
74940,note_on,0,0,2,,,,,,,,,1,,,92,62
75000,note_on,0,0,2,,,,,,,,,1,,,91,62
75000,note_on,60,0,1,,,,,,,,,0,,,101,0
75000,note_on,60,0,2,,,,,,,,,1,,,92,0
75000,note_on,0,0,1,,,,,,,,,0,,,100,62
75060,note_on,60,0,1,,,,,,,,,0,,,100,0
75060,note_on,0,0,2,,,,,,,,,1,,,90,62
75060,note_on,0,0,1,,,,,,,,,0,,,99,62
75060,note_on,60,0,2,,,,,,,,,1,,,91,0
75120,note_on,0,0,1,,,,,,,,,0,,,98,62
75120,note_on,60,0,1,,,,,,,,,0,,,99,0
75120,note_on,0,0,2,,,,,,,,,1,,,89,62
75120,note_on,60,0,2,,,,,,,,,1,,,90,0
75180,note_on,60,0,1,,,,,,,,,0,,,98,0
75180,note_on,0,0,2,,,,,,,,,1,,,88,62
75180,note_on,60,0,2,,,,,,,,,1,,,89,0
75180,note_on,0,0,1,,,,,,,,,0,,,97,62
75240,note_on,0,0,1,,,,,,,,,0,,,96,62
75240,note_on,60,0,1,,,,,,,,,0,,,97,0
75240,note_on,60,0,2,,,,,,,,,1,,,88,0
75240,note_on,0,0,2,,,,,,,,,1,,,87,62
75300,note_on,60,0,2,,,,,,,,,1,,,87,0
75300,note_on,0,0,1,,,,,,,,,0,,,95,62
75300,note_on,0,0,2,,,,,,,,,1,,,86,62
75300,note_on,60,0,1,,,,,,,,,0,,,96,0
75360,note_on,0,0,2,,,,,,,,,1,,,85,62
75360,note_on,60,0,1,,,,,,,,,0,,,95,0
75360,note_on,60,0,2,,,,,,,,,1,,,86,0
75360,note_on,0,0,1,,,,,,,,,0,,,94,62
75420,note_on,0,0,2,,,,,,,,,1,,,84,62
75420,note_on,60,0,1,,,,,,,,,0,,,94,0
75420,note_on,60,0,2,,,,,,,,,1,,,85,0
75420,note_on,0,0,1,,,,,,,,,0,,,93,62
75480,note_on,0,0,1,,,,,,,,,0,,,92,62
75480,note_on,0,0,2,,,,,,,,,1,,,83,62
75480,note_on,60,0,2,,,,,,,,,1,,,84,0
75480,note_on,60,0,1,,,,,,,,,0,,,93,0
75540,note_on,0,0,1,,,,,,,,,0,,,91,62
75540,note_on,60,0,1,,,,,,,,,0,,,92,0
75540,note_on,0,0,2,,,,,,,,,1,,,82,62
75540,note_on,60,0,2,,,,,,,,,1,,,83,0
75600,note_on,0,0,2,,,,,,,,,1,,,81,62
75600,note_on,60,0,2,,,,,,,,,1,,,82,0
75600,note_on,0,0,1,,,,,,,,,0,,,90,62
75600,note_on,60,0,1,,,,,,,,,0,,,91,0
75660,note_on,0,0,2,,,,,,,,,1,,,80,62
75660,note_on,0,0,1,,,,,,,,,0,,,89,62
75660,note_on,60,0,2,,,,,,,,,1,,,81,0
75660,note_on,60,0,1,,,,,,,,,0,,,90,0
75720,note_on,0,0,2,,,,,,,,,1,,,79,62
75720,note_on,60,0,2,,,,,,,,,1,,,80,0
75720,note_on,60,0,1,,,,,,,,,0,,,89,0
75720,note_on,0,0,1,,,,,,,,,0,,,88,62
75780,note_on,0,0,1,,,,,,,,,0,,,84,62
75780,note_on,60,0,1,,,,,,,,,0,,,88,0
75780,note_on,60,0,2,,,,,,,,,1,,,79,0
75780,note_on,0,0,2,,,,,,,,,1,,,75,62
75840,note_on,60,0,1,,,,,,,,,0,,,84,0
75840,note_on,0,0,2,,,,,,,,,1,,,76,62
75840,note_on,0,0,1,,,,,,,,,0,,,85,62
75840,note_on,60,0,2,,,,,,,,,1,,,75,0
75900,note_on,60,0,2,,,,,,,,,1,,,76,0
75900,note_on,60,0,1,,,,,,,,,0,,,85,0
75900,note_on,0,0,1,,,,,,,,,0,,,87,62
75900,note_on,0,0,2,,,,,,,,,1,,,78,62
75960,note_on,0,0,1,,,,,,,,,0,,,90,62
75960,note_on,60,0,2,,,,,,,,,1,,,78,0
75960,note_on,0,0,2,,,,,,,,,1,,,81,62
75960,note_on,60,0,1,,,,,,,,,0,,,87,0
76020,note_on,0,0,1,,,,,,,,,0,,,89,62
76020,note_on,60,0,2,,,,,,,,,1,,,81,0
76020,note_on,0,0,2,,,,,,,,,1,,,80,62
76020,note_on,60,0,1,,,,,,,,,0,,,90,0
76080,note_on,60,0,2,,,,,,,,,1,,,80,0
76080,note_on,0,0,1,,,,,,,,,0,,,88,62
76080,note_on,60,0,1,,,,,,,,,0,,,89,0
76080,note_on,0,0,2,,,,,,,,,1,,,79,62
76140,note_on,0,0,1,,,,,,,,,0,,,87,62
76140,note_on,0,0,2,,,,,,,,,1,,,78,62
76140,note_on,60,0,1,,,,,,,,,0,,,88,0
76140,note_on,60,0,2,,,,,,,,,1,,,79,0
76200,note_on,60,0,1,,,,,,,,,0,,,87,0
76200,note_on,0,0,2,,,,,,,,,1,,,77,62
76200,note_on,0,0,1,,,,,,,,,0,,,86,62
76200,note_on,60,0,2,,,,,,,,,1,,,78,0
76260,note_on,60,0,2,,,,,,,,,1,,,77,0
76260,note_on,60,0,1,,,,,,,,,0,,,86,0
76260,note_on,0,0,2,,,,,,,,,1,,,76,62
76260,note_on,0,0,1,,,,,,,,,0,,,85,62
76320,note_on,60,0,1,,,,,,,,,0,,,85,0
76320,note_on,60,0,2,,,,,,,,,1,,,76,0
76320,note_on,0,0,2,,,,,,,,,1,,,75,62
76320,note_on,0,0,1,,,,,,,,,0,,,84,62
76380,note_on,0,0,1,,,,,,,,,0,,,83,62
76380,note_on,60,0,2,,,,,,,,,1,,,75,0
76380,note_on,60,0,1,,,,,,,,,0,,,84,0
76380,note_on,0,0,2,,,,,,,,,1,,,74,62
76440,note_on,0,0,1,,,,,,,,,0,,,82,62
76440,note_on,0,0,2,,,,,,,,,1,,,73,62
76440,note_on,60,0,1,,,,,,,,,0,,,83,0
76440,note_on,60,0,2,,,,,,,,,1,,,74,0
76500,note_on,60,0,2,,,,,,,,,1,,,73,0
76500,note_on,60,0,1,,,,,,,,,0,,,82,0
76500,note_on,0,0,2,,,,,,,,,1,,,72,62
76500,note_on,0,0,1,,,,,,,,,0,,,81,62
76560,note_on,0,0,1,,,,,,,,,0,,,80,62
76560,note_on,60,0,2,,,,,,,,,1,,,72,0
76560,note_on,0,0,2,,,,,,,,,1,,,71,62
76560,note_on,60,0,1,,,,,,,,,0,,,81,0
76620,note_on,60,0,2,,,,,,,,,1,,,71,0
76620,note_on,0,0,1,,,,,,,,,0,,,79,62
76620,note_on,60,0,1,,,,,,,,,0,,,80,0
76620,note_on,0,0,2,,,,,,,,,1,,,70,62
76680,note_on,60,0,2,,,,,,,,,1,,,70,0
76680,note_on,0,0,1,,,,,,,,,0,,,78,62
76680,note_on,60,0,1,,,,,,,,,0,,,79,0
76680,note_on,0,0,2,,,,,,,,,1,,,69,62
76740,note_on,60,0,1,,,,,,,,,0,,,78,0
76740,note_on,0,0,2,,,,,,,,,1,,,68,62
76740,note_on,60,0,2,,,,,,,,,1,,,69,0
76740,note_on,0,0,1,,,,,,,,,0,,,77,62
76800,time_signature,1920,1,0,5,16,6,8,,,,,,,,,
76800,note_on,60,0,2,,,,,,,,,1,,,68,0
76800,note_on,60,0,1,,,,,,,,,0,,,77,0
76800,note_on,0,0,2,,,,,,,,,1,,,67,62
76800,note_on,0,0,1,,,,,,,,,0,,,76,62
76860,note_on,60,0,2,,,,,,,,,1,,,67,0
76860,note_on,60,0,1,,,,,,,,,0,,,76,0
76860,note_on,0,0,2,,,,,,,,,1,,,63,62
76860,note_on,0,0,1,,,,,,,,,0,,,72,62
76920,note_on,60,0,1,,,,,,,,,0,,,72,0
76920,note_on,0,0,1,,,,,,,,,0,,,73,62
76920,note_on,0,0,2,,,,,,,,,1,,,64,62
76920,note_on,60,0,2,,,,,,,,,1,,,63,0
76980,note_on,0,0,1,,,,,,,,,0,,,75,62
76980,note_on,60,0,2,,,,,,,,,1,,,64,0
76980,note_on,0,0,2,,,,,,,,,1,,,66,62
76980,note_on,60,0,1,,,,,,,,,0,,,73,0
77040,note_on,60,0,2,,,,,,,,,1,,,66,0
77040,note_on,0,0,2,,,,,,,,,1,,,69,62
77040,note_on,0,0,1,,,,,,,,,0,,,78,62
77040,note_on,60,0,1,,,,,,,,,0,,,75,0
77100,note_on,60,0,2,,,,,,,,,1,,,69,0
77100,note_on,0,0,2,,,,,,,,,1,,,68,62
77100,note_on,0,0,1,,,,,,,,,0,,,77,62
77100,note_on,60,0,1,,,,,,,,,0,,,78,0
77160,note_on,60,0,1,,,,,,,,,0,,,77,0
77160,note_on,60,0,2,,,,,,,,,1,,,68,0
77160,note_on,0,0,2,,,,,,,,,1,,,67,62
77160,note_on,0,0,1,,,,,,,,,0,,,76,62
77220,note_on,60,0,2,,,,,,,,,1,,,67,0
77220,note_on,60,0,1,,,,,,,,,0,,,76,0
77220,note_on,0,0,2,,,,,,,,,1,,,66,62
77220,note_on,0,0,1,,,,,,,,,0,,,75,62
77280,note_on,60,0,1,,,,,,,,,0,,,75,0
77280,note_on,0,0,1,,,,,,,,,0,,,74,62
77280,note_on,0,0,2,,,,,,,,,1,,,65,62
77280,note_on,60,0,2,,,,,,,,,1,,,66,0
77340,note_on,0,0,1,,,,,,,,,0,,,73,62
77340,note_on,0,0,2,,,,,,,,,1,,,64,62
77340,control_change,0,0,1,,,,,,,,,0,64,0,,
77340,note_on,60,0,1,,,,,,,,,0,,,74,0
77340,control_change,0,0,2,,,,,,,,,1,64,0,,
77340,note_on,60,0,2,,,,,,,,,1,,,65,0
77396,control_change,56,0,1,,,,,,,,,0,64,127,,
77396,control_change,9476,0,4,,,,,,,,,3,64,127,,
77396,control_change,56,0,2,,,,,,,,,1,64,127,,
77396,control_change,3956,0,3,,,,,,,,,2,64,127,,
77400,note_on,0,0,2,,,,,,,,,1,,,63,62
77400,note_on,4,0,1,,,,,,,,,0,,,73,0
77400,control_change,0,0,1,,,,,,,,,0,64,127,,
77400,note_on,4,0,2,,,,,,,,,1,,,64,0
77400,time_signature,600,1,0,15,16,6,8,,,,,,,,,
77400,note_on,0,0,1,,,,,,,,,0,,,72,62
77460,note_on,0,0,2,,,,,,,,,1,,,62,62
77460,note_on,60,0,1,,,,,,,,,0,,,72,0
77460,note_on,60,0,2,,,,,,,,,1,,,63,0
77460,note_on,0,0,1,,,,,,,,,0,,,71,62
77520,note_on,0,0,2,,,,,,,,,1,,,61,62
77520,note_on,60,0,1,,,,,,,,,0,,,71,0
77520,note_on,60,0,2,,,,,,,,,1,,,62,0
77520,note_on,0,0,1,,,,,,,,,0,,,70,62
77580,note_on,60,0,1,,,,,,,,,0,,,70,0
77580,note_on,0,0,2,,,,,,,,,1,,,60,62
77580,note_on,0,0,1,,,,,,,,,0,,,69,62
77580,note_on,60,0,2,,,,,,,,,1,,,61,0
77640,note_on,0,0,2,,,,,,,,,1,,,59,62
77640,note_on,60,0,1,,,,,,,,,0,,,69,0
77640,note_on,0,0,1,,,,,,,,,0,,,68,62
77640,set_tempo,240,1,0,,,,,,588235,,,,,,,
77640,note_on,60,0,2,,,,,,,,,1,,,60,0
77700,note_on,0,0,2,,,,,,,,,1,,,58,62
77700,note_on,60,0,1,,,,,,,,,0,,,68,0
77700,note_on,0,0,1,,,,,,,,,0,,,67,62
77700,note_on,60,0,2,,,,,,,,,1,,,59,0
77760,note_on,60,0,1,,,,,,,,,0,,,67,0
77760,note_on,0,0,2,,,,,,,,,1,,,57,62
77760,note_on,60,0,2,,,,,,,,,1,,,58,0
77760,note_on,0,0,1,,,,,,,,,0,,,66,62
77820,note_on,0,0,1,,,,,,,,,0,,,65,62
77820,note_on,60,0,2,,,,,,,,,1,,,57,0
77820,note_on,60,0,1,,,,,,,,,0,,,66,0
77820,note_on,0,0,2,,,,,,,,,1,,,56,62
77880,set_tempo,240,1,0,,,,,,625000,,,,,,,
77880,note_on,0,0,1,,,,,,,,,0,,,64,62
77880,note_on,60,0,1,,,,,,,,,0,,,65,0
77880,note_on,0,0,2,,,,,,,,,1,,,55,62
77880,note_on,60,0,2,,,,,,,,,1,,,56,0
77940,note_on,60,0,2,,,,,,,,,1,,,55,0
77940,note_on,0,0,1,,,,,,,,,0,,,60,62
77940,note_on,60,0,1,,,,,,,,,0,,,64,0
77940,note_on,0,0,2,,,,,,,,,1,,,51,62
78000,note_on,0,0,2,,,,,,,,,1,,,52,62
78000,note_on,0,0,1,,,,,,,,,0,,,61,62
78000,note_on,60,0,1,,,,,,,,,0,,,60,0
78000,note_on,60,0,2,,,,,,,,,1,,,51,0
78060,note_on,0,0,1,,,,,,,,,0,,,63,62
78060,note_on,0,0,2,,,,,,,,,1,,,54,62
78060,note_on,60,0,2,,,,,,,,,1,,,52,0
78060,note_on,60,0,1,,,,,,,,,0,,,61,0
78120,note_on,60,0,1,,,,,,,,,0,,,63,0
78120,note_on,0,0,2,,,,,,,,,1,,,57,62
78120,note_on,0,0,1,,,,,,,,,0,,,66,62
78120,set_tempo,240,1,0,,,,,,666667,,,,,,,
78120,note_on,60,0,2,,,,,,,,,1,,,54,0
78180,note_on,0,0,1,,,,,,,,,0,,,65,62
78180,note_on,0,0,2,,,,,,,,,1,,,56,62
78180,note_on,60,0,2,,,,,,,,,1,,,57,0
78180,note_on,60,0,1,,,,,,,,,0,,,66,0
78240,note_on,60,0,2,,,,,,,,,1,,,56,0
78240,note_on,0,0,1,,,,,,,,,0,,,64,62
78240,note_on,60,0,1,,,,,,,,,0,,,65,0
78240,note_on,0,0,2,,,,,,,,,1,,,55,62
78300,note_on,0,0,1,,,,,,,,,0,,,60,62
78300,note_on,60,0,1,,,,,,,,,0,,,64,0
78300,note_on,60,0,2,,,,,,,,,1,,,55,0
78300,note_on,0,0,2,,,,,,,,,1,,,51,62
78360,set_tempo,240,1,0,,,,,,731707,,,,,,,
78360,note_on,60,0,2,,,,,,,,,1,,,51,0
78360,note_on,0,0,1,,,,,,,,,0,,,61,62
78360,note_on,60,0,1,,,,,,,,,0,,,60,0
78360,note_on,0,0,2,,,,,,,,,1,,,52,62
78420,note_on,60,0,1,,,,,,,,,0,,,61,0
78420,note_on,0,0,1,,,,,,,,,0,,,63,62
78420,note_on,0,0,2,,,,,,,,,1,,,54,62
78420,note_on,60,0,2,,,,,,,,,1,,,52,0
78480,note_on,60,0,1,,,,,,,,,0,,,63,0
78480,note_on,60,0,2,,,,,,,,,1,,,54,0
78480,note_on,0,0,2,,,,,,,,,1,,,57,62
78480,note_on,0,0,1,,,,,,,,,0,,,66,62
78540,note_on,0,0,2,,,,,,,,,1,,,56,62
78540,note_on,0,0,1,,,,,,,,,0,,,65,62
78540,note_on,60,0,1,,,,,,,,,0,,,66,0
78540,note_on,60,0,2,,,,,,,,,1,,,57,0
78600,note_on,60,0,2,,,,,,,,,1,,,56,0
78600,note_on,0,0,1,,,,,,,,,0,,,64,62
78600,note_on,60,0,1,,,,,,,,,0,,,65,0
78600,note_on,0,0,2,,,,,,,,,1,,,55,62
78600,set_tempo,240,1,0,,,,,,789474,,,,,,,
78660,note_on,0,0,2,,,,,,,,,1,,,51,62
78660,note_on,60,0,2,,,,,,,,,1,,,55,0
78660,note_on,0,0,1,,,,,,,,,0,,,60,62
78660,note_on,60,0,1,,,,,,,,,0,,,64,0
78720,note_on,0,0,1,,,,,,,,,0,,,61,62
78720,note_on,60,0,2,,,,,,,,,1,,,51,0
78720,note_on,60,0,1,,,,,,,,,0,,,60,0
78720,note_on,0,0,2,,,,,,,,,1,,,52,62
78780,note_on,60,0,2,,,,,,,,,1,,,52,0
78780,note_on,0,0,2,,,,,,,,,1,,,54,62
78780,note_on,60,0,1,,,,,,,,,0,,,61,0
78780,note_on,0,0,1,,,,,,,,,0,,,63,62
78840,note_on,0,0,1,,,,,,,,,0,,,66,62
78840,set_tempo,240,1,0,,,,,,857143,,,,,,,
78840,note_on,60,0,2,,,,,,,,,1,,,54,0
78840,note_on,0,0,2,,,,,,,,,1,,,57,62
78840,note_on,60,0,1,,,,,,,,,0,,,63,0
78900,note_on,60,0,1,,,,,,,,,0,,,66,0
78900,note_on,60,0,2,,,,,,,,,1,,,57,0
78900,note_on,0,0,1,,,,,,,,,0,,,65,62
78900,note_on,0,0,2,,,,,,,,,1,,,56,62
78960,note_on,0,0,2,,,,,,,,,1,,,55,62
78960,note_on,60,0,1,,,,,,,,,0,,,65,0
78960,note_on,0,0,1,,,,,,,,,0,,,64,62
78960,note_on,60,0,2,,,,,,,,,1,,,56,0
79020,note_on,0,0,2,,,,,,,,,1,,,51,62
79020,note_on,60,0,1,,,,,,,,,0,,,64,0
79020,note_on,60,0,2,,,,,,,,,1,,,55,0
79020,note_on,0,0,1,,,,,,,,,0,,,60,62
79080,set_tempo,240,1,0,,,,,,937500,,,,,,,
79080,note_on,0,0,1,,,,,,,,,0,,,61,62
79080,note_on,60,0,1,,,,,,,,,0,,,60,0
79080,note_on,60,0,2,,,,,,,,,1,,,51,0
79080,note_on,0,0,2,,,,,,,,,1,,,52,62
79140,note_on,60,0,2,,,,,,,,,1,,,52,0
79140,note_on,0,0,1,,,,,,,,,0,,,63,62
79140,control_change,0,0,2,,,,,,,,,1,64,0,,
79140,note_on,60,0,1,,,,,,,,,0,,,61,0
79140,note_on,0,0,2,,,,,,,,,1,,,54,62
79140,control_change,0,0,1,,,,,,,,,0,64,0,,
79200,note_on,0,0,1,,,,,,,,,0,,,66,62
79200,note_on,60,0,2,,,,,,,,,1,,,54,0
79200,note_on,0,0,2,,,,,,,,,1,,,57,62
79200,set_tempo,0,1,0,,,,,,400000,,,,,,,
79200,control_change,0,0,2,,,,,,,,,1,64,127,,
79200,control_change,0,0,1,,,,,,,,,0,64,127,,
79200,time_signature,120,1,0,5,4,24,8,,,,,,,,,
79200,note_on,60,0,1,,,,,,,,,0,,,63,0
79320,note_on,120,0,2,,,,,,,,,1,,,57,0
79320,note_on,0,0,2,,,,,,,,,1,,,56,62
79320,note_on,0,0,1,,,,,,,,,0,,,65,62
79320,note_on,120,0,1,,,,,,,,,0,,,66,0
79320,set_tempo,120,1,0,,,,,,422535,,,,,,,
79440,set_tempo,120,1,0,,,,,,441176,,,,,,,
79440,note_on,120,0,1,,,,,,,,,0,,,65,0
79440,note_on,0,0,2,,,,,,,,,1,,,55,62
79440,note_on,120,0,2,,,,,,,,,1,,,56,0
79440,note_on,0,0,1,,,,,,,,,0,,,64,62
79560,note_on,120,0,1,,,,,,,,,0,,,64,0
79560,note_on,120,0,2,,,,,,,,,1,,,55,0
79560,note_on,0,0,1,,,,,,,,,0,,,63,62
79560,note_on,0,0,2,,,,,,,,,1,,,54,62
79680,set_tempo,240,1,0,,,,,,461538,,,,,,,
79680,note_on,120,0,2,,,,,,,,,1,,,54,0
79680,note_on,120,0,1,,,,,,,,,0,,,63,0
79680,note_on,0,0,2,,,,,,,,,1,,,53,62
79680,note_on,0,0,1,,,,,,,,,0,,,62,62
79800,note_on,0,0,1,,,,,,,,,0,,,61,62
79800,note_on,120,0,1,,,,,,,,,0,,,62,0
79800,note_on,120,0,2,,,,,,,,,1,,,53,0
79800,note_on,0,0,2,,,,,,,,,1,,,52,62
79920,note_on,0,0,1,,,,,,,,,0,,,60,62
79920,note_on,0,0,2,,,,,,,,,1,,,51,62
79920,note_on,120,0,1,,,,,,,,,0,,,61,0
79920,note_on,120,0,2,,,,,,,,,1,,,52,0
79920,set_tempo,240,1,0,,,,,,483871,,,,,,,
80040,note_on,120,0,1,,,,,,,,,0,,,60,0
80040,note_on,0,0,2,,,,,,,,,1,,,54,62
80040,note_on,120,0,2,,,,,,,,,1,,,51,0
80040,note_on,0,0,1,,,,,,,,,0,,,63,62
80160,note_on,120,0,2,,,,,,,,,1,,,54,0
80160,note_on,120,0,1,,,,,,,,,0,,,63,0
80160,set_tempo,240,1,0,,,,,,625000,,,,,,,
80160,note_on,0,0,1,,,,,,,,,0,,,61,62
80160,note_on,0,0,2,,,,,,,,,1,,,52,62
80280,note_on,120,0,1,,,,,,,,,0,,,61,0
80280,note_on,0,0,2,,,,,,,,,1,,,55,62
80280,note_on,0,0,1,,,,,,,,,0,,,64,62
80280,note_on,120,0,2,,,,,,,,,1,,,52,0
80400,note_on,0,0,2,,,,,,,,,1,,,54,62
80400,note_on,0,0,1,,,,,,,,,0,,,63,62
80400,note_on,120,0,1,,,,,,,,,0,,,64,0
80400,note_on,120,0,2,,,,,,,,,1,,,55,0
80400,set_tempo,240,1,0,,,,,,666667,,,,,,,
80520,note_on,0,0,2,,,,,,,,,1,,,57,62
80520,note_on,120,0,2,,,,,,,,,1,,,54,0
80520,note_on,120,0,1,,,,,,,,,0,,,63,0
80520,note_on,0,0,1,,,,,,,,,0,,,66,62
80640,note_on,120,0,1,,,,,,,,,0,,,66,0
80640,note_on,120,0,2,,,,,,,,,1,,,57,0
80640,set_tempo,240,1,0,,,,,,714286,,,,,,,
80640,note_on,0,0,1,,,,,,,,,0,,,64,62
80640,note_on,0,0,2,,,,,,,,,1,,,56,62
80880,set_tempo,240,1,0,,,,,,769231,,,,,,,
80880,note_on,0,0,2,,,,,,,,,1,,,51,62
80880,note_on,240,0,2,,,,,,,,,1,,,56,0
80880,note_on,0,0,1,,,,,,,,,0,,,60,62
80880,note_on,240,0,1,,,,,,,,,0,,,64,0
80880,note_on,0,0,2,,,,,,,,,1,,,45,62
80880,note_on,0,0,1,,,,,,,,,0,,,55,62
81120,set_tempo,240,1,0,,,,,,857143,,,,,,,
81120,note_on,0,0,1,,,,,,,,,0,,,61,62
81120,note_on,240,0,2,,,,,,,,,1,,,51,0
81120,note_on,0,0,1,,,,,,,,,0,,,55,62
81120,note_on,0,0,1,,,,,,,,,0,,,55,0
81120,control_change,0,0,2,,,,,,,,,1,64,0,,
81120,note_on,240,0,1,,,,,,,,,0,,,60,0
81120,note_on,0,0,2,,,,,,,,,1,,,52,62
81120,control_change,0,0,1,,,,,,,,,0,64,0,,
81120,note_on,0,0,2,,,,,,,,,1,,,45,0
81120,note_on,0,0,2,,,,,,,,,1,,,45,62
81600,note_on,480,0,2,,,,,,,,,1,,,52,0
81600,note_on,0,0,1,,,,,,,,,0,,,55,0
81600,note_on,0,0,1,,,,,,,,,0,,,69,88
81600,key_signature,0,1,0,,,,,E,,,,,,,,
81600,set_tempo,0,1,0,,,,,,600000,,,,,,,
81600,note_on,0,0,2,,,,,,,,,1,,,45,0
81600,time_signature,480,1,0,4,4,24,8,,,,,,,,,
81600,note_on,480,0,1,,,,,,,,,0,,,61,0
81600,control_change,0,0,1,,,,,,,,,0,64,127,,
81680,note_on,0,0,3,,,,,,,,,2,,,44,49
81680,control_change,4284,0,3,,,,,,,,,2,64,127,,
81759,note_on,0,0,3,,,,,,,,,2,,,51,49
81759,note_on,79,0,3,,,,,,,,,2,,,44,0
81840,note_on,81,0,3,,,,,,,,,2,,,51,0
81840,note_on,0,0,3,,,,,,,,,2,,,56,49
81920,note_on,0,0,3,,,,,,,,,2,,,60,49
81920,note_on,80,0,3,,,,,,,,,2,,,56,0
81999,note_on,79,0,3,,,,,,,,,2,,,60,0
81999,note_on,0,0,3,,,,,,,,,2,,,63,49
82080,note_on,4684,0,4,,,,,,,,,3,,,68,49
82080,note_on,81,0,3,,,,,,,,,2,,,63,0
82080,note_on,0,0,1,,,,,,,,,0,,,68,62
82080,note_on,0,0,3,,,,,,,,,2,,,68,49
82080,note_on,480,0,1,,,,,,,,,0,,,69,0
82176,note_on,96,0,3,,,,,,,,,2,,,68,0
82176,note_on,0,0,3,,,,,,,,,2,,,63,49
82176,note_on,96,0,4,,,,,,,,,3,,,68,0
82272,note_on,96,0,3,,,,,,,,,2,,,63,0
82272,note_on,0,0,3,,,,,,,,,2,,,60,49
82367,note_on,95,0,3,,,,,,,,,2,,,60,0
82367,note_on,0,0,3,,,,,,,,,2,,,56,49
82463,note_on,0,0,3,,,,,,,,,2,,,51,49
82463,note_on,96,0,3,,,,,,,,,2,,,56,0
82560,note_on,480,0,1,,,,,,,,,0,,,68,0
82560,note_on,97,0,3,,,,,,,,,2,,,51,0
82640,note_on,80,0,3,,,,,,,,,2,,,44,49
82719,note_on,79,0,3,,,,,,,,,2,,,44,0
82719,note_on,0,0,3,,,,,,,,,2,,,51,49
82800,note_on,81,0,3,,,,,,,,,2,,,51,0
82800,note_on,0,0,3,,,,,,,,,2,,,56,49
82880,note_on,0,0,3,,,,,,,,,2,,,60,49
82880,note_on,80,0,3,,,,,,,,,2,,,56,0
82959,note_on,79,0,3,,,,,,,,,2,,,60,0
82959,note_on,0,0,3,,,,,,,,,2,,,63,49
83040,note_on,0,0,1,,,,,,,,,0,,,72,62
83040,note_on,81,0,3,,,,,,,,,2,,,63,0
83040,note_on,480,0,1,,,,,,,,,0,,,68,62
83040,note_on,0,0,3,,,,,,,,,2,,,68,49
83087,note_on,47,0,1,,,,,,,,,0,,,72,0
83087,note_on,0,0,1,,,,,,,,,0,,,68,0
83136,note_on,96,0,3,,,,,,,,,2,,,68,0
83136,note_on,0,0,3,,,,,,,,,2,,,63,49
83232,note_on,96,0,3,,,,,,,,,2,,,63,0
83232,note_on,0,0,3,,,,,,,,,2,,,60,49
83280,control_change,193,0,1,,,,,,,,,0,64,0,,
83327,note_on,0,0,3,,,,,,,,,2,,,56,49
83327,note_on,95,0,3,,,,,,,,,2,,,60,0
83423,note_on,96,0,3,,,,,,,,,2,,,56,0
83423,control_change,0,0,3,,,,,,,,,2,64,0,,
83423,note_on,0,0,3,,,,,,,,,2,,,51,49
83520,control_change,0,0,3,,,,,,,,,2,64,127,,
83520,note_on,97,0,3,,,,,,,,,2,,,51,0
83520,control_change,240,0,1,,,,,,,,,0,64,127,,
83520,note_on,0,0,3,,,,,,,,,2,,,44,49
83520,note_on,0,0,1,,,,,,,,,0,,,73,62
83520,note_on,0,0,1,,,,,,,,,0,,,69,62
83567,note_on,0,0,1,,,,,,,,,0,,,69,0
83567,note_on,47,0,1,,,,,,,,,0,,,73,0
83600,note_on,80,0,3,,,,,,,,,2,,,44,0
83600,note_on,0,0,3,,,,,,,,,2,,,52,49
83679,note_on,0,0,3,,,,,,,,,2,,,57,49
83679,note_on,79,0,3,,,,,,,,,2,,,52,0
83760,note_on,0,0,3,,,,,,,,,2,,,61,49
83760,note_on,81,0,3,,,,,,,,,2,,,57,0
83840,note_on,0,0,3,,,,,,,,,2,,,64,49
83840,note_on,80,0,3,,,,,,,,,2,,,61,0
83919,note_on,0,0,3,,,,,,,,,2,,,69,49
83919,note_on,79,0,3,,,,,,,,,2,,,64,0
84000,note_on,0,0,1,,,,,,,,,0,,,76,62
84000,note_on,433,0,1,,,,,,,,,0,,,73,62
84000,note_on,81,0,3,,,,,,,,,2,,,69,0
84047,note_on,0,0,1,,,,,,,,,0,,,73,0
84047,note_on,47,0,1,,,,,,,,,0,,,76,0
84080,note_on,80,0,3,,,,,,,,,2,,,69,49
84159,note_on,0,0,3,,,,,,,,,2,,,64,49
84159,note_on,79,0,3,,,,,,,,,2,,,69,0
84240,note_on,0,0,3,,,,,,,,,2,,,61,49
84240,note_on,81,0,3,,,,,,,,,2,,,64,0
84320,note_on,80,0,3,,,,,,,,,2,,,61,0
84320,note_on,0,0,3,,,,,,,,,2,,,57,49
84399,note_on,0,0,3,,,,,,,,,2,,,52,49
84399,control_change,0,0,3,,,,,,,,,2,64,0,,
84399,note_on,79,0,3,,,,,,,,,2,,,57,0
84480,note_on,0,0,3,,,,,,,,,2,,,42,62
84480,note_on,2304,0,4,,,,,,,,,3,,,42,49
84480,note_on,0,0,1,,,,,,,,,0,,,78,75
84480,control_change,0,0,3,,,,,,,,,2,64,127,,
84480,note_on,433,0,1,,,,,,,,,0,,,74,75
84480,note_on,81,0,3,,,,,,,,,2,,,52,0
84527,note_on,0,0,1,,,,,,,,,0,,,74,0
84527,note_on,47,0,1,,,,,,,,,0,,,78,0
84548,note_on,68,0,3,,,,,,,,,2,,,42,0
84548,note_on,68,0,4,,,,,,,,,3,,,42,0
84548,note_on,0,0,3,,,,,,,,,2,,,54,62
84617,note_on,0,0,3,,,,,,,,,2,,,57,62
84617,note_on,69,0,3,,,,,,,,,2,,,54,0
84685,note_on,68,0,3,,,,,,,,,2,,,57,0
84685,note_on,0,0,3,,,,,,,,,2,,,62,62
84754,note_on,69,0,3,,,,,,,,,2,,,62,0
84754,note_on,0,0,3,,,,,,,,,2,,,66,62
84822,note_on,68,0,3,,,,,,,,,2,,,66,0
84822,note_on,0,0,3,,,,,,,,,2,,,69,62
84891,note_on,69,0,3,,,,,,,,,2,,,69,0
84891,note_on,0,0,3,,,,,,,,,2,,,74,62
84960,note_on,69,0,3,,,,,,,,,2,,,74,0
84960,note_on,0,0,1,,,,,,,,,0,,,81,75
84960,note_on,433,0,1,,,,,,,,,0,,,78,75
85007,note_on,47,0,1,,,,,,,,,0,,,81,0
85007,note_on,0,0,1,,,,,,,,,0,,,78,0
85028,note_on,68,0,3,,,,,,,,,2,,,74,62
85097,note_on,0,0,3,,,,,,,,,2,,,69,62
85097,note_on,69,0,3,,,,,,,,,2,,,74,0
85165,note_on,68,0,3,,,,,,,,,2,,,69,0
85165,note_on,0,0,3,,,,,,,,,2,,,66,62
85200,control_change,193,0,1,,,,,,,,,0,64,0,,
85234,note_on,0,0,3,,,,,,,,,2,,,62,62
85234,note_on,69,0,3,,,,,,,,,2,,,66,0
85302,note_on,0,0,3,,,,,,,,,2,,,57,62
85302,note_on,68,0,3,,,,,,,,,2,,,62,0
85371,control_change,0,0,3,,,,,,,,,2,64,0,,
85371,note_on,69,0,3,,,,,,,,,2,,,57,0
85371,note_on,0,0,3,,,,,,,,,2,,,54,62
85440,note_on,0,0,3,,,,,,,,,2,,,42,62
85440,control_change,0,0,3,,,,,,,,,2,64,127,,
85440,note_on,69,0,3,,,,,,,,,2,,,54,0
85440,control_change,240,0,1,,,,,,,,,0,64,127,,
85440,note_on,0,0,1,,,,,,,,,0,,,80,75
85440,note_on,0,0,1,,,,,,,,,0,,,84,75
85508,note_on,68,0,3,,,,,,,,,2,,,42,0
85508,note_on,0,0,3,,,,,,,,,2,,,51,62
85577,note_on,0,0,3,,,,,,,,,2,,,56,62
85577,note_on,69,0,3,,,,,,,,,2,,,51,0
85645,note_on,68,0,3,,,,,,,,,2,,,56,0
85645,note_on,0,0,3,,,,,,,,,2,,,60,62
85714,note_on,0,0,3,,,,,,,,,2,,,63,62
85714,note_on,69,0,3,,,,,,,,,2,,,60,0
85782,note_on,0,0,3,,,,,,,,,2,,,68,62
85782,note_on,68,0,3,,,,,,,,,2,,,63,0
85851,note_on,0,0,3,,,,,,,,,2,,,72,62
85851,note_on,69,0,3,,,,,,,,,2,,,68,0
85920,note_on,0,0,3,,,,,,,,,2,,,75,62
85920,note_on,69,0,3,,,,,,,,,2,,,72,0
85988,note_on,68,0,3,,,,,,,,,2,,,75,0
85988,note_on,0,0,3,,,,,,,,,2,,,72,62
86057,note_on,69,0,3,,,,,,,,,2,,,72,0
86057,note_on,0,0,3,,,,,,,,,2,,,68,62
86125,note_on,68,0,3,,,,,,,,,2,,,68,0
86125,note_on,0,0,3,,,,,,,,,2,,,63,62
86194,note_on,0,0,3,,,,,,,,,2,,,60,62
86194,note_on,69,0,3,,,,,,,,,2,,,63,0
86262,note_on,68,0,3,,,,,,,,,2,,,60,0
86262,note_on,0,0,3,,,,,,,,,2,,,56,62
86331,note_on,69,0,3,,,,,,,,,2,,,56,0
86331,control_change,0,0,3,,,,,,,,,2,64,0,,
86331,note_on,0,0,3,,,,,,,,,2,,,51,62
86400,note_on,0,0,3,,,,,,,,,2,,,44,62
86400,note_on,69,0,3,,,,,,,,,2,,,51,0
86400,control_change,0,0,3,,,,,,,,,2,64,127,,
86480,note_on,0,0,3,,,,,,,,,2,,,51,62
86480,note_on,80,0,3,,,,,,,,,2,,,44,0
86559,note_on,0,0,3,,,,,,,,,2,,,56,62
86559,note_on,79,0,3,,,,,,,,,2,,,51,0
86640,note_on,0,0,3,,,,,,,,,2,,,60,62
86640,note_on,81,0,3,,,,,,,,,2,,,56,0
86720,note_on,80,0,3,,,,,,,,,2,,,60,0
86720,note_on,0,0,3,,,,,,,,,2,,,63,62
86799,note_on,79,0,3,,,,,,,,,2,,,63,0
86799,note_on,0,0,3,,,,,,,,,2,,,68,62
86880,note_on,1440,0,1,,,,,,,,,0,,,84,0
86880,note_on,0,0,1,,,,,,,,,0,,,80,0
86880,note_on,0,0,1,,,,,,,,,0,,,72,75
86880,note_on,0,0,1,,,,,,,,,0,,,68,75
86880,note_on,81,0,3,,,,,,,,,2,,,68,0
86960,note_on,80,0,3,,,,,,,,,2,,,68,62
87039,note_on,79,0,3,,,,,,,,,2,,,68,0
87039,note_on,0,0,3,,,,,,,,,2,,,63,62
87120,note_on,0,0,3,,,,,,,,,2,,,60,62
87120,note_on,0,0,1,,,,,,,,,0,,,68,0
87120,control_change,0,0,1,,,,,,,,,0,64,0,,
87120,note_on,81,0,3,,,,,,,,,2,,,63,0
87120,note_on,240,0,1,,,,,,,,,0,,,72,0
87200,note_on,80,0,3,,,,,,,,,2,,,60,0
87200,note_on,0,0,3,,,,,,,,,2,,,56,62
87279,note_on,79,0,3,,,,,,,,,2,,,56,0
87279,note_on,0,0,3,,,,,,,,,2,,,51,62
87279,control_change,0,0,3,,,,,,,,,2,64,0,,
87360,note_on,0,0,1,,,,,,,,,0,,,69,75
87360,note_on,0,0,1,,,,,,,,,0,,,73,75
87360,control_change,0,0,3,,,,,,,,,2,64,127,,
87360,note_on,0,0,3,,,,,,,,,2,,,44,62
87360,note_on,81,0,3,,,,,,,,,2,,,51,0
87360,control_change,240,0,1,,,,,,,,,0,64,127,,
87407,note_on,0,0,1,,,,,,,,,0,,,69,0
87407,note_on,47,0,1,,,,,,,,,0,,,73,0
87440,note_on,0,0,3,,,,,,,,,2,,,52,62
87440,note_on,80,0,3,,,,,,,,,2,,,44,0
87519,note_on,0,0,3,,,,,,,,,2,,,57,62
87519,note_on,79,0,3,,,,,,,,,2,,,52,0
87600,note_on,0,0,3,,,,,,,,,2,,,61,62
87600,note_on,81,0,3,,,,,,,,,2,,,57,0
87680,note_on,80,0,3,,,,,,,,,2,,,61,0
87680,note_on,0,0,3,,,,,,,,,2,,,64,62
87759,note_on,0,0,3,,,,,,,,,2,,,69,62
87759,note_on,79,0,3,,,,,,,,,2,,,64,0
87840,note_on,433,0,1,,,,,,,,,0,,,73,75
87840,note_on,0,0,1,,,,,,,,,0,,,76,75
87840,note_on,81,0,3,,,,,,,,,2,,,69,0
87887,note_on,47,0,1,,,,,,,,,0,,,76,0
87887,note_on,0,0,1,,,,,,,,,0,,,73,0
87920,note_on,80,0,3,,,,,,,,,2,,,69,62
87999,note_on,0,0,3,,,,,,,,,2,,,64,62
87999,note_on,79,0,3,,,,,,,,,2,,,69,0
88080,note_on,0,0,3,,,,,,,,,2,,,61,62
88080,note_on,81,0,3,,,,,,,,,2,,,64,0
88160,note_on,80,0,3,,,,,,,,,2,,,61,0
88160,note_on,0,0,3,,,,,,,,,2,,,57,62
88239,control_change,0,0,3,,,,,,,,,2,64,0,,
88239,note_on,79,0,3,,,,,,,,,2,,,57,0
88239,note_on,0,0,3,,,,,,,,,2,,,52,62
88320,note_on,0,0,1,,,,,,,,,0,,,78,75
88320,note_on,0,0,3,,,,,,,,,2,,,42,62
88320,note_on,433,0,1,,,,,,,,,0,,,74,75
88320,note_on,81,0,3,,,,,,,,,2,,,52,0
88320,note_on,3772,0,4,,,,,,,,,3,,,42,49
88320,control_change,0,0,3,,,,,,,,,2,64,127,,
88367,note_on,47,0,1,,,,,,,,,0,,,78,0
88367,note_on,0,0,1,,,,,,,,,0,,,74,0
88388,note_on,0,0,3,,,,,,,,,2,,,54,62
88388,note_on,68,0,3,,,,,,,,,2,,,42,0
88388,note_on,68,0,4,,,,,,,,,3,,,42,0
88457,note_on,0,0,3,,,,,,,,,2,,,57,62
88457,note_on,69,0,3,,,,,,,,,2,,,54,0
88525,note_on,0,0,3,,,,,,,,,2,,,62,62
88525,note_on,68,0,3,,,,,,,,,2,,,57,0
88594,note_on,0,0,3,,,,,,,,,2,,,66,62
88594,note_on,69,0,3,,,,,,,,,2,,,62,0
88662,note_on,0,0,3,,,,,,,,,2,,,69,62
88662,note_on,68,0,3,,,,,,,,,2,,,66,0
88731,note_on,69,0,3,,,,,,,,,2,,,69,0
88731,note_on,0,0,3,,,,,,,,,2,,,74,62
88800,note_on,69,0,3,,,,,,,,,2,,,74,0
88800,control_change,412,0,4,,,,,,,,,3,64,0,,
88800,note_on,433,0,1,,,,,,,,,0,,,78,75
88800,note_on,0,0,1,,,,,,,,,0,,,81,75
88847,note_on,47,0,1,,,,,,,,,0,,,81,0
88847,note_on,0,0,1,,,,,,,,,0,,,78,0
88868,note_on,68,0,3,,,,,,,,,2,,,74,62
88937,note_on,0,0,3,,,,,,,,,2,,,69,62
88937,note_on,69,0,3,,,,,,,,,2,,,74,0
89005,note_on,68,0,3,,,,,,,,,2,,,69,0
89005,note_on,0,0,3,,,,,,,,,2,,,66,62
89040,control_change,193,0,1,,,,,,,,,0,64,0,,
89074,note_on,0,0,3,,,,,,,,,2,,,62,62
89074,note_on,69,0,3,,,,,,,,,2,,,66,0
89142,note_on,68,0,3,,,,,,,,,2,,,62,0
89142,note_on,0,0,3,,,,,,,,,2,,,57,62
89211,note_on,69,0,3,,,,,,,,,2,,,57,0
89211,control_change,0,0,3,,,,,,,,,2,64,0,,
89211,note_on,0,0,3,,,,,,,,,2,,,54,62
89280,control_change,480,0,4,,,,,,,,,3,64,0,,
89280,control_change,240,0,1,,,,,,,,,0,64,127,,
89280,note_on,0,0,4,,,,,,,,,3,,,44,75
89280,note_on,69,0,3,,,,,,,,,2,,,54,0
89280,note_on,0,0,1,,,,,,,,,0,,,68,75
89340,note_on,60,0,1,,,,,,,,,0,,,68,0
89340,note_on,0,0,1,,,,,,,,,0,,,75,75
89348,control_change,68,0,3,,,,,,,,,2,64,127,,
89348,note_on,0,0,3,,,,,,,,,2,,,51,62
89400,note_on,0,0,1,,,,,,,,,0,,,84,75
89400,note_on,60,0,1,,,,,,,,,0,,,75,0
89417,note_on,0,0,3,,,,,,,,,2,,,56,62
89417,note_on,69,0,3,,,,,,,,,2,,,51,0
89485,note_on,68,0,3,,,,,,,,,2,,,56,0
89485,note_on,0,0,3,,,,,,,,,2,,,60,62
89554,note_on,69,0,3,,,,,,,,,2,,,60,0
89554,note_on,0,0,3,,,,,,,,,2,,,63,62
89622,note_on,68,0,3,,,,,,,,,2,,,63,0
89622,note_on,0,0,3,,,,,,,,,2,,,68,62
89691,note_on,0,0,3,,,,,,,,,2,,,72,62
89691,note_on,69,0,3,,,,,,,,,2,,,68,0
89760,note_on,69,0,3,,,,,,,,,2,,,72,0
89760,note_on,0,0,3,,,,,,,,,2,,,75,62
89828,note_on,0,0,3,,,,,,,,,2,,,72,62
89828,note_on,68,0,3,,,,,,,,,2,,,75,0
89897,note_on,69,0,3,,,,,,,,,2,,,72,0
89897,note_on,0,0,3,,,,,,,,,2,,,68,62
89965,note_on,0,0,3,,,,,,,,,2,,,63,62
89965,note_on,68,0,3,,,,,,,,,2,,,68,0
90034,note_on,69,0,3,,,,,,,,,2,,,63,0
90034,note_on,0,0,3,,,,,,,,,2,,,60,62
90102,note_on,0,0,3,,,,,,,,,2,,,56,62
90102,note_on,68,0,3,,,,,,,,,2,,,60,0
90171,note_on,0,0,3,,,,,,,,,2,,,51,62
90171,control_change,0,0,3,,,,,,,,,2,64,0,,
90171,note_on,69,0,3,,,,,,,,,2,,,56,0
90240,note_on,0,0,4,,,,,,,,,3,,,42,75
90240,note_on,960,0,4,,,,,,,,,3,,,44,0
90240,note_on,69,0,3,,,,,,,,,2,,,51,0
90308,note_on,0,0,3,,,,,,,,,2,,,51,62
90308,control_change,68,0,3,,,,,,,,,2,64,127,,
90377,note_on,69,0,3,,,,,,,,,2,,,51,0
90377,note_on,0,0,3,,,,,,,,,2,,,56,62
90445,note_on,0,0,3,,,,,,,,,2,,,60,62
90445,note_on,68,0,3,,,,,,,,,2,,,56,0
90514,note_on,69,0,3,,,,,,,,,2,,,60,0
90514,note_on,0,0,3,,,,,,,,,2,,,63,62
90582,note_on,68,0,3,,,,,,,,,2,,,63,0
90582,note_on,0,0,3,,,,,,,,,2,,,68,62
90651,note_on,69,0,3,,,,,,,,,2,,,68,0
90651,note_on,0,0,3,,,,,,,,,2,,,72,62
90720,note_on,69,0,3,,,,,,,,,2,,,72,0
90720,note_on,0,0,3,,,,,,,,,2,,,75,62
90788,note_on,0,0,3,,,,,,,,,2,,,72,62
90788,note_on,68,0,3,,,,,,,,,2,,,75,0
90857,note_on,69,0,3,,,,,,,,,2,,,72,0
90857,note_on,0,0,3,,,,,,,,,2,,,68,62
90925,note_on,68,0,3,,,,,,,,,2,,,68,0
90925,note_on,0,0,3,,,,,,,,,2,,,63,62
90994,note_on,69,0,3,,,,,,,,,2,,,63,0
90994,note_on,0,0,3,,,,,,,,,2,,,60,62
91062,note_on,0,0,3,,,,,,,,,2,,,56,62
91062,note_on,68,0,3,,,,,,,,,2,,,60,0
91080,control_change,0,0,1,,,,,,,,,0,64,0,,
91080,note_on,1680,0,1,,,,,,,,,0,,,84,0
91131,note_on,69,0,3,,,,,,,,,2,,,56,0
91131,note_on,0,0,3,,,,,,,,,2,,,51,62
91131,control_change,0,0,3,,,,,,,,,2,64,0,,
91200,note_on,960,0,4,,,,,,,,,3,,,42,0
91200,note_on,69,0,3,,,,,,,,,2,,,51,0
91200,note_on,0,0,4,,,,,,,,,3,,,41,75
91200,control_change,120,0,1,,,,,,,,,0,64,127,,
91200,note_on,0,0,1,,,,,,,,,0,,,69,75
91260,note_on,60,0,1,,,,,,,,,0,,,69,0
91260,note_on,0,0,1,,,,,,,,,0,,,75,75
91268,control_change,68,0,3,,,,,,,,,2,64,127,,
91268,note_on,0,0,3,,,,,,,,,2,,,51,62
91320,note_on,60,0,1,,,,,,,,,0,,,75,0
91320,note_on,0,0,1,,,,,,,,,0,,,84,75
91337,note_on,69,0,3,,,,,,,,,2,,,51,0
91337,note_on,0,0,3,,,,,,,,,2,,,57,62
91405,note_on,68,0,3,,,,,,,,,2,,,57,0
91405,note_on,0,0,3,,,,,,,,,2,,,60,62
91474,note_on,0,0,3,,,,,,,,,2,,,63,62
91474,note_on,69,0,3,,,,,,,,,2,,,60,0
91542,note_on,68,0,3,,,,,,,,,2,,,63,0
91542,note_on,0,0,3,,,,,,,,,2,,,69,62
91611,note_on,69,0,3,,,,,,,,,2,,,69,0
91611,note_on,0,0,3,,,,,,,,,2,,,72,62
91680,note_on,69,0,3,,,,,,,,,2,,,72,0
91680,note_on,0,0,3,,,,,,,,,2,,,75,62
91748,note_on,68,0,3,,,,,,,,,2,,,75,0
91748,note_on,0,0,3,,,,,,,,,2,,,72,62
91817,note_on,69,0,3,,,,,,,,,2,,,72,0
91817,note_on,0,0,3,,,,,,,,,2,,,69,62
91885,note_on,68,0,3,,,,,,,,,2,,,69,0
91885,note_on,0,0,3,,,,,,,,,2,,,63,62
91954,note_on,69,0,3,,,,,,,,,2,,,63,0
91954,note_on,0,0,3,,,,,,,,,2,,,60,62
92022,note_on,0,0,3,,,,,,,,,2,,,57,62
92022,note_on,68,0,3,,,,,,,,,2,,,60,0
92040,note_on,720,0,1,,,,,,,,,0,,,84,0
92040,control_change,0,0,1,,,,,,,,,0,64,0,,
92091,note_on,0,0,3,,,,,,,,,2,,,51,62
92091,note_on,69,0,3,,,,,,,,,2,,,57,0
92091,control_change,0,0,3,,,,,,,,,2,64,0,,
92160,note_on,960,0,4,,,,,,,,,3,,,41,0
92160,note_on,0,0,4,,,,,,,,,3,,,40,101
92160,note_on,69,0,3,,,,,,,,,2,,,51,0
92160,note_on,0,0,1,,,,,,,,,0,,,69,88
92160,control_change,120,0,1,,,,,,,,,0,64,127,,
92220,note_on,0,0,1,,,,,,,,,0,,,76,88
92220,note_on,60,0,1,,,,,,,,,0,,,69,0
92228,note_on,0,0,3,,,,,,,,,2,,,52,75
92228,control_change,68,0,3,,,,,,,,,2,64,127,,
92280,note_on,60,0,1,,,,,,,,,0,,,76,0
92280,note_on,0,0,1,,,,,,,,,0,,,84,88
92297,note_on,69,0,3,,,,,,,,,2,,,52,0
92297,note_on,0,0,3,,,,,,,,,2,,,57,75
92365,note_on,0,0,3,,,,,,,,,2,,,60,75
92365,note_on,68,0,3,,,,,,,,,2,,,57,0
92434,note_on,0,0,3,,,,,,,,,2,,,64,75
92434,note_on,69,0,3,,,,,,,,,2,,,60,0
92502,note_on,68,0,3,,,,,,,,,2,,,64,0
92502,note_on,0,0,3,,,,,,,,,2,,,69,75
92571,note_on,0,0,3,,,,,,,,,2,,,72,75
92571,note_on,69,0,3,,,,,,,,,2,,,69,0
92640,note_on,0,0,3,,,,,,,,,2,,,76,75
92640,note_on,69,0,3,,,,,,,,,2,,,72,0
92708,note_on,68,0,3,,,,,,,,,2,,,76,0
92708,note_on,0,0,3,,,,,,,,,2,,,72,75
92777,note_on,0,0,3,,,,,,,,,2,,,69,75
92777,note_on,69,0,3,,,,,,,,,2,,,72,0
92845,note_on,68,0,3,,,,,,,,,2,,,69,0
92845,note_on,0,0,3,,,,,,,,,2,,,64,75
92914,note_on,0,0,3,,,,,,,,,2,,,60,75
92914,note_on,69,0,3,,,,,,,,,2,,,64,0
92982,note_on,68,0,3,,,,,,,,,2,,,60,0
92982,note_on,0,0,3,,,,,,,,,2,,,57,75
93000,note_on,720,0,1,,,,,,,,,0,,,84,0
93000,control_change,0,0,1,,,,,,,,,0,64,0,,
93051,control_change,0,0,3,,,,,,,,,2,64,0,,
93051,note_on,69,0,3,,,,,,,,,2,,,57,0
93051,note_on,0,0,3,,,,,,,,,2,,,52,75
93120,note_on,0,0,1,,,,,,,,,0,,,74,88
93120,note_on,0,0,4,,,,,,,,,3,,,38,114
93120,note_on,69,0,3,,,,,,,,,2,,,52,0
93120,note_on,960,0,4,,,,,,,,,3,,,40,0
93120,control_change,120,0,1,,,,,,,,,0,64,127,,
93180,note_on,0,0,1,,,,,,,,,0,,,81,88
93180,note_on,60,0,1,,,,,,,,,0,,,74,0
93188,control_change,68,0,3,,,,,,,,,2,64,127,,
93188,note_on,0,0,3,,,,,,,,,2,,,54,75
93240,note_on,0,0,1,,,,,,,,,0,,,90,88
93240,note_on,60,0,1,,,,,,,,,0,,,81,0
93257,note_on,0,0,3,,,,,,,,,2,,,57,75
93257,note_on,69,0,3,,,,,,,,,2,,,54,0
93325,note_on,68,0,3,,,,,,,,,2,,,57,0
93325,note_on,0,0,3,,,,,,,,,2,,,62,75
93394,note_on,0,0,3,,,,,,,,,2,,,66,75
93394,note_on,69,0,3,,,,,,,,,2,,,62,0
93462,note_on,0,0,3,,,,,,,,,2,,,69,75
93462,note_on,68,0,3,,,,,,,,,2,,,66,0
93531,note_on,69,0,3,,,,,,,,,2,,,69,0
93531,note_on,0,0,3,,,,,,,,,2,,,74,75
93600,note_on,69,0,3,,,,,,,,,2,,,74,0
93600,note_on,0,0,3,,,,,,,,,2,,,78,75
93668,note_on,0,0,3,,,,,,,,,2,,,74,75
93668,note_on,68,0,3,,,,,,,,,2,,,78,0
93737,note_on,0,0,3,,,,,,,,,2,,,69,75
93737,note_on,69,0,3,,,,,,,,,2,,,74,0
93805,note_on,0,0,3,,,,,,,,,2,,,66,75
93805,note_on,68,0,3,,,,,,,,,2,,,69,0
93874,note_on,0,0,3,,,,,,,,,2,,,62,75
93874,note_on,69,0,3,,,,,,,,,2,,,66,0
93942,note_on,0,0,3,,,,,,,,,2,,,57,75
93942,note_on,68,0,3,,,,,,,,,2,,,62,0
94011,control_change,0,0,3,,,,,,,,,2,64,0,,
94011,note_on,69,0,3,,,,,,,,,2,,,57,0
94011,note_on,0,0,3,,,,,,,,,2,,,54,75
94080,note_on,0,0,4,,,,,,,,,3,,,36,114
94080,note_on,69,0,3,,,,,,,,,2,,,54,0
94080,note_on,960,0,4,,,,,,,,,3,,,38,0
94148,control_change,68,0,3,,,,,,,,,2,64,127,,
94148,note_on,0,0,3,,,,,,,,,2,,,54,75
94217,note_on,69,0,3,,,,,,,,,2,,,54,0
94217,note_on,0,0,3,,,,,,,,,2,,,57,75
94285,note_on,68,0,3,,,,,,,,,2,,,57,0
94285,note_on,0,0,3,,,,,,,,,2,,,62,75
94354,note_on,0,0,3,,,,,,,,,2,,,66,75
94354,note_on,69,0,3,,,,,,,,,2,,,62,0
94422,note_on,68,0,3,,,,,,,,,2,,,66,0
94422,note_on,0,0,3,,,,,,,,,2,,,69,75
94491,note_on,0,0,3,,,,,,,,,2,,,74,75
94491,note_on,69,0,3,,,,,,,,,2,,,69,0
94560,note_on,0,0,3,,,,,,,,,2,,,78,75
94560,note_on,69,0,3,,,,,,,,,2,,,74,0
94628,note_on,0,0,3,,,,,,,,,2,,,74,75
94628,note_on,68,0,3,,,,,,,,,2,,,78,0
94697,note_on,69,0,3,,,,,,,,,2,,,74,0
94697,note_on,0,0,3,,,,,,,,,2,,,69,75
94765,note_on,68,0,3,,,,,,,,,2,,,69,0
94765,note_on,0,0,3,,,,,,,,,2,,,66,75
94834,note_on,69,0,3,,,,,,,,,2,,,66,0
94834,note_on,0,0,3,,,,,,,,,2,,,62,75
94902,note_on,68,0,3,,,,,,,,,2,,,62,0
94902,note_on,0,0,3,,,,,,,,,2,,,57,75
94920,note_on,1680,0,1,,,,,,,,,0,,,90,0
94920,control_change,0,0,1,,,,,,,,,0,64,0,,
94971,note_on,0,0,3,,,,,,,,,2,,,54,75
94971,control_change,0,0,3,,,,,,,,,2,64,0,,
94971,note_on,69,0,3,,,,,,,,,2,,,57,0
95040,note_on,69,0,3,,,,,,,,,2,,,54,0
95040,note_on,0,0,1,,,,,,,,,0,,,75,88
95040,control_change,120,0,1,,,,,,,,,0,64,127,,
95040,note_on,0,0,4,,,,,,,,,3,,,35,114
95040,note_on,960,0,4,,,,,,,,,3,,,36,0
95100,note_on,0,0,1,,,,,,,,,0,,,83,88
95100,note_on,60,0,1,,,,,,,,,0,,,75,0
95108,control_change,68,0,3,,,,,,,,,2,64,127,,
95108,note_on,0,0,3,,,,,,,,,2,,,54,75
95160,note_on,0,0,1,,,,,,,,,0,,,90,88
95160,note_on,60,0,1,,,,,,,,,0,,,83,0
95177,note_on,69,0,3,,,,,,,,,2,,,54,0
95177,note_on,0,0,3,,,,,,,,,2,,,57,75
95245,note_on,0,0,3,,,,,,,,,2,,,63,75
95245,note_on,68,0,3,,,,,,,,,2,,,57,0
95314,note_on,69,0,3,,,,,,,,,2,,,63,0
95314,note_on,0,0,3,,,,,,,,,2,,,66,75
95382,note_on,68,0,3,,,,,,,,,2,,,66,0
95382,note_on,0,0,3,,,,,,,,,2,,,69,75
95451,note_on,69,0,3,,,,,,,,,2,,,69,0
95451,note_on,0,0,3,,,,,,,,,2,,,75,75
95520,note_on,0,0,3,,,,,,,,,2,,,78,75
95520,note_on,69,0,3,,,,,,,,,2,,,75,0
95588,note_on,68,0,3,,,,,,,,,2,,,78,0
95588,note_on,0,0,3,,,,,,,,,2,,,75,75
95657,note_on,0,0,3,,,,,,,,,2,,,69,75
95657,note_on,69,0,3,,,,,,,,,2,,,75,0
95725,note_on,68,0,3,,,,,,,,,2,,,69,0
95725,note_on,0,0,3,,,,,,,,,2,,,66,75
95794,note_on,0,0,3,,,,,,,,,2,,,63,75
95794,note_on,69,0,3,,,,,,,,,2,,,66,0
95862,note_on,68,0,3,,,,,,,,,2,,,63,0
95862,note_on,0,0,3,,,,,,,,,2,,,57,75
95880,note_on,720,0,1,,,,,,,,,0,,,90,0
95880,control_change,0,0,1,,,,,,,,,0,64,0,,
95931,note_on,69,0,3,,,,,,,,,2,,,57,0
95931,note_on,0,0,3,,,,,,,,,2,,,54,75
95931,control_change,0,0,3,,,,,,,,,2,64,0,,
96000,note_on,960,0,4,,,,,,,,,3,,,35,0
96000,note_on,0,0,4,,,,,,,,,3,,,33,114
96000,note_on,69,0,3,,,,,,,,,2,,,54,0
96000,control_change,120,0,1,,,,,,,,,0,64,127,,
96000,note_on,0,0,1,,,,,,,,,0,,,75,88
96060,note_on,0,0,1,,,,,,,,,0,,,83,88
96060,note_on,60,0,1,,,,,,,,,0,,,75,0
96068,control_change,68,0,3,,,,,,,,,2,64,127,,
96068,note_on,0,0,3,,,,,,,,,2,,,54,75
96120,note_on,60,0,1,,,,,,,,,0,,,83,0
96120,note_on,0,0,1,,,,,,,,,0,,,90,88
96137,note_on,69,0,3,,,,,,,,,2,,,54,0
96137,note_on,0,0,3,,,,,,,,,2,,,57,75
96205,note_on,68,0,3,,,,,,,,,2,,,57,0
96205,note_on,0,0,3,,,,,,,,,2,,,63,75
96274,note_on,69,0,3,,,,,,,,,2,,,63,0
96274,note_on,0,0,3,,,,,,,,,2,,,66,75
96342,note_on,0,0,3,,,,,,,,,2,,,69,75
96342,note_on,68,0,3,,,,,,,,,2,,,66,0
96411,note_on,0,0,3,,,,,,,,,2,,,75,75
96411,note_on,69,0,3,,,,,,,,,2,,,69,0
96480,note_on,0,0,3,,,,,,,,,2,,,78,75
96480,note_on,69,0,3,,,,,,,,,2,,,75,0
96548,note_on,0,0,3,,,,,,,,,2,,,75,75
96548,note_on,68,0,3,,,,,,,,,2,,,78,0
96617,note_on,0,0,3,,,,,,,,,2,,,69,75
96617,note_on,69,0,3,,,,,,,,,2,,,75,0
96685,note_on,0,0,3,,,,,,,,,2,,,66,75
96685,note_on,68,0,3,,,,,,,,,2,,,69,0
96754,note_on,0,0,3,,,,,,,,,2,,,63,75
96754,note_on,69,0,3,,,,,,,,,2,,,66,0
96822,note_on,68,0,3,,,,,,,,,2,,,63,0
96822,note_on,0,0,3,,,,,,,,,2,,,57,75
96840,note_on,720,0,1,,,,,,,,,0,,,90,0
96840,control_change,0,0,1,,,,,,,,,0,64,0,,
96870,note_on,30,0,1,,,,,,,,,0,,,78,101
96891,note_on,0,0,3,,,,,,,,,2,,,54,75
96891,note_on,69,0,3,,,,,,,,,2,,,57,0
96891,control_change,0,0,3,,,,,,,,,2,64,0,,
96900,note_on,30,0,1,,,,,,,,,0,,,84,101
96930,note_on,30,0,1,,,,,,,,,0,,,87,101
96960,note_on,0,0,4,,,,,,,,,3,,,32,88
96960,control_change,0,0,3,,,,,,,,,2,64,127,,
96960,note_on,960,0,4,,,,,,,,,3,,,33,0
96960,note_on,30,0,1,,,,,,,,,0,,,93,101
96960,note_on,69,0,3,,,,,,,,,2,,,54,0
97200,note_on,240,0,3,,,,,,,,,2,,,44,62
97280,note_on,80,0,3,,,,,,,,,2,,,44,0
97280,control_change,15680,0,2,,,,,,,,,1,64,127,,
97280,note_on,0,0,2,,,,,,,,,1,,,60,62
97280,note_on,0,0,3,,,,,,,,,2,,,51,62
97359,note_on,79,0,2,,,,,,,,,1,,,60,0
97359,note_on,79,0,3,,,,,,,,,2,,,51,0
97359,note_on,0,0,2,,,,,,,,,1,,,63,62
97359,note_on,0,0,3,,,,,,,,,2,,,54,62
97440,note_on,0,0,2,,,,,,,,,1,,,68,62
97440,note_on,81,0,2,,,,,,,,,1,,,63,0
97440,note_on,81,0,3,,,,,,,,,2,,,54,0
97440,note_on,0,0,3,,,,,,,,,2,,,60,62
97520,note_on,0,0,3,,,,,,,,,2,,,63,62
97520,note_on,0,0,2,,,,,,,,,1,,,72,62
97520,note_on,80,0,3,,,,,,,,,2,,,60,0
97520,note_on,80,0,2,,,,,,,,,1,,,68,0
97599,note_on,0,0,3,,,,,,,,,2,,,66,62
97599,note_on,79,0,3,,,,,,,,,2,,,63,0
97599,note_on,0,0,2,,,,,,,,,1,,,75,62
97599,note_on,79,0,2,,,,,,,,,1,,,72,0
97680,note_on,81,0,3,,,,,,,,,2,,,66,0
97680,note_on,81,0,2,,,,,,,,,1,,,75,0
97680,note_on,0,0,3,,,,,,,,,2,,,72,62
97680,note_on,0,0,2,,,,,,,,,1,,,81,62
97760,note_on,0,0,2,,,,,,,,,1,,,84,62
97760,note_on,80,0,3,,,,,,,,,2,,,72,0
97760,note_on,80,0,2,,,,,,,,,1,,,81,0
97760,note_on,0,0,3,,,,,,,,,2,,,75,62
97839,note_on,0,0,3,,,,,,,,,2,,,78,62
97839,note_on,79,0,2,,,,,,,,,1,,,84,0
97839,note_on,0,0,2,,,,,,,,,1,,,87,62
97839,note_on,79,0,3,,,,,,,,,2,,,75,0
97920,note_on,81,0,3,,,,,,,,,2,,,78,0
97920,note_on,0,0,3,,,,,,,,,2,,,84,62
97920,note_on,0,0,2,,,,,,,,,1,,,93,62
97920,note_on,81,0,2,,,,,,,,,1,,,87,0
98000,note_on,0,0,3,,,,,,,,,2,,,78,62
98000,note_on,80,0,2,,,,,,,,,1,,,93,0
98000,note_on,80,0,3,,,,,,,,,2,,,84,0
98000,note_on,0,0,2,,,,,,,,,1,,,87,62
98079,note_on,0,0,3,,,,,,,,,2,,,72,62
98079,note_on,79,0,2,,,,,,,,,1,,,87,0
98079,note_on,79,0,3,,,,,,,,,2,,,78,0
98079,note_on,0,0,2,,,,,,,,,1,,,81,62
98160,note_on,0,0,3,,,,,,,,,2,,,66,62
98160,note_on,81,0,3,,,,,,,,,2,,,72,0
98160,note_on,0,0,2,,,,,,,,,1,,,75,62
98160,note_on,81,0,2,,,,,,,,,1,,,81,0
98240,note_on,0,0,2,,,,,,,,,1,,,81,62
98240,note_on,80,0,2,,,,,,,,,1,,,75,0
98319,note_on,0,0,2,,,,,,,,,1,,,87,62
98319,note_on,79,0,2,,,,,,,,,1,,,81,0
98400,note_on,0,0,3,,,,,,,,,2,,,84,62
98400,note_on,240,0,3,,,,,,,,,2,,,66,0
98400,note_on,0,0,2,,,,,,,,,1,,,93,62
98400,note_on,81,0,2,,,,,,,,,1,,,87,0
98480,note_on,0,0,3,,,,,,,,,2,,,78,62
98480,note_on,80,0,3,,,,,,,,,2,,,84,0
98480,note_on,0,0,2,,,,,,,,,1,,,87,62
98480,note_on,80,0,2,,,,,,,,,1,,,93,0
98559,note_on,79,0,2,,,,,,,,,1,,,87,0
98559,note_on,0,0,2,,,,,,,,,1,,,81,62
98559,note_on,0,0,3,,,,,,,,,2,,,72,62
98559,note_on,79,0,3,,,,,,,,,2,,,78,0
98640,note_on,0,0,3,,,,,,,,,2,,,66,62
98640,note_on,81,0,2,,,,,,,,,1,,,81,0
98640,note_on,0,0,2,,,,,,,,,1,,,75,62
98640,note_on,81,0,3,,,,,,,,,2,,,72,0
98640,control_change,0,0,3,,,,,,,,,2,64,0,,
98720,note_on,0,0,2,,,,,,,,,1,,,81,62
98720,note_on,80,0,2,,,,,,,,,1,,,75,0
98790,note_on,1830,0,1,,,,,,,,,0,,,78,101
98799,control_change,0,0,2,,,,,,,,,1,64,0,,
98799,note_on,0,0,2,,,,,,,,,1,,,87,62
98799,note_on,79,0,2,,,,,,,,,1,,,81,0
98820,note_on,30,0,1,,,,,,,,,0,,,84,101
98850,note_on,30,0,1,,,,,,,,,0,,,87,101
98880,note_on,0,0,4,,,,,,,,,3,,,32,88
98880,note_on,81,0,2,,,,,,,,,1,,,87,0
98880,note_on,0,0,1,,,,,,,,,0,,,78,0
98880,note_on,0,0,1,,,,,,,,,0,,,84,0
98880,note_on,0,0,1,,,,,,,,,0,,,87,0
98880,note_on,0,0,1,,,,,,,,,0,,,93,101
98880,note_on,30,0,1,,,,,,,,,0,,,93,0
98880,control_change,0,0,3,,,,,,,,,2,64,127,,
98880,note_on,240,0,3,,,,,,,,,2,,,66,0
98880,note_on,1920,0,4,,,,,,,,,3,,,32,0
98880,set_tempo,17280,1,0,,,,,,500000,,,,,,,
99120,note_on,240,0,3,,,,,,,,,2,,,44,62
99200,note_on,0,0,2,,,,,,,,,1,,,60,62
99200,control_change,320,0,2,,,,,,,,,1,64,127,,
99200,note_on,0,0,3,,,,,,,,,2,,,51,62
99200,note_on,80,0,3,,,,,,,,,2,,,44,0
99279,note_on,79,0,3,,,,,,,,,2,,,51,0
99279,note_on,0,0,3,,,,,,,,,2,,,54,62
99279,note_on,79,0,2,,,,,,,,,1,,,60,0
99279,note_on,0,0,2,,,,,,,,,1,,,63,62
99360,note_on,0,0,3,,,,,,,,,2,,,60,62
99360,note_on,0,0,2,,,,,,,,,1,,,68,62
99360,note_on,81,0,2,,,,,,,,,1,,,63,0
99360,note_on,81,0,3,,,,,,,,,2,,,54,0
99440,note_on,0,0,3,,,,,,,,,2,,,63,62
99440,note_on,80,0,3,,,,,,,,,2,,,60,0
99440,note_on,0,0,2,,,,,,,,,1,,,72,62
99440,note_on,80,0,2,,,,,,,,,1,,,68,0
99519,note_on,79,0,3,,,,,,,,,2,,,63,0
99519,note_on,0,0,3,,,,,,,,,2,,,66,62
99519,note_on,79,0,2,,,,,,,,,1,,,72,0
99519,note_on,0,0,2,,,,,,,,,1,,,75,62
99600,note_on,81,0,3,,,,,,,,,2,,,66,0
99600,note_on,0,0,2,,,,,,,,,1,,,81,62
99600,note_on,0,0,3,,,,,,,,,2,,,72,62
99600,note_on,81,0,2,,,,,,,,,1,,,75,0
99680,note_on,80,0,2,,,,,,,,,1,,,81,0
99680,note_on,0,0,3,,,,,,,,,2,,,75,62
99680,note_on,80,0,3,,,,,,,,,2,,,72,0
99680,note_on,0,0,2,,,,,,,,,1,,,84,62
99759,note_on,0,0,3,,,,,,,,,2,,,78,62
99759,note_on,0,0,2,,,,,,,,,1,,,87,62
99759,note_on,79,0,2,,,,,,,,,1,,,84,0
99759,note_on,79,0,3,,,,,,,,,2,,,75,0
99840,note_on,0,0,3,,,,,,,,,2,,,84,62
99840,note_on,81,0,3,,,,,,,,,2,,,78,0
99840,note_on,81,0,2,,,,,,,,,1,,,87,0
99840,note_on,0,0,2,,,,,,,,,1,,,93,62
99920,note_on,80,0,3,,,,,,,,,2,,,84,0
99920,note_on,0,0,3,,,,,,,,,2,,,78,62
99920,note_on,0,0,2,,,,,,,,,1,,,87,62
99920,note_on,80,0,2,,,,,,,,,1,,,93,0
99999,note_on,79,0,3,,,,,,,,,2,,,78,0
99999,note_on,0,0,3,,,,,,,,,2,,,72,62
99999,note_on,79,0,2,,,,,,,,,1,,,87,0
99999,note_on,0,0,2,,,,,,,,,1,,,81,62
100080,note_on,0,0,2,,,,,,,,,1,,,75,62
100080,note_on,0,0,3,,,,,,,,,2,,,66,62
100080,note_on,81,0,3,,,,,,,,,2,,,72,0
100080,note_on,81,0,2,,,,,,,,,1,,,81,0
100160,note_on,0,0,2,,,,,,,,,1,,,81,62
100160,note_on,80,0,2,,,,,,,,,1,,,75,0
100239,note_on,79,0,2,,,,,,,,,1,,,81,0
100239,note_on,0,0,2,,,,,,,,,1,,,87,62
100320,note_on,0,0,3,,,,,,,,,2,,,84,62
100320,note_on,0,0,2,,,,,,,,,1,,,93,62
100320,note_on,81,0,2,,,,,,,,,1,,,87,0
100320,note_on,240,0,3,,,,,,,,,2,,,66,0
100400,note_on,0,0,3,,,,,,,,,2,,,78,62
100400,note_on,0,0,2,,,,,,,,,1,,,87,62
100400,note_on,80,0,3,,,,,,,,,2,,,84,0
100400,note_on,80,0,2,,,,,,,,,1,,,93,0
100479,note_on,0,0,2,,,,,,,,,1,,,81,62
100479,note_on,79,0,2,,,,,,,,,1,,,87,0
100479,note_on,0,0,3,,,,,,,,,2,,,72,62
100479,note_on,79,0,3,,,,,,,,,2,,,78,0
100560,note_on,0,0,3,,,,,,,,,2,,,66,62
100560,note_on,81,0,2,,,,,,,,,1,,,81,0
100560,note_on,0,0,2,,,,,,,,,1,,,75,62
100560,control_change,0,0,3,,,,,,,,,2,64,0,,
100560,note_on,81,0,3,,,,,,,,,2,,,72,0
100640,note_on,80,0,2,,,,,,,,,1,,,75,0
100640,note_on,0,0,2,,,,,,,,,1,,,81,62
100710,note_on,1830,0,1,,,,,,,,,0,,,78,101
100719,note_on,79,0,2,,,,,,,,,1,,,81,0
100719,note_on,0,0,2,,,,,,,,,1,,,87,62
100719,control_change,0,0,2,,,,,,,,,1,64,0,,
100740,note_on,30,0,1,,,,,,,,,0,,,84,101
100770,note_on,30,0,1,,,,,,,,,0,,,87,101
100800,note_on,1920,0,4,,,,,,,,,3,,,32,0
100800,note_on,0,0,4,,,,,,,,,3,,,32,88
100800,note_on,240,0,3,,,,,,,,,2,,,66,0
100800,note_on,0,0,1,,,,,,,,,0,,,93,101
100800,note_on,0,0,1,,,,,,,,,0,,,87,0
100800,note_on,30,0,1,,,,,,,,,0,,,93,0
100800,note_on,0,0,1,,,,,,,,,0,,,84,0
100800,note_on,0,0,1,,,,,,,,,0,,,78,0
100800,note_on,81,0,2,,,,,,,,,1,,,87,0
100800,control_change,0,0,3,,,,,,,,,2,64,127,,
101040,note_on,240,0,3,,,,,,,,,2,,,44,62
101120,control_change,320,0,2,,,,,,,,,1,64,127,,
101120,note_on,80,0,3,,,,,,,,,2,,,44,0
101120,note_on,0,0,3,,,,,,,,,2,,,51,62
101120,note_on,0,0,2,,,,,,,,,1,,,60,62
101199,note_on,79,0,3,,,,,,,,,2,,,51,0
101199,note_on,79,0,2,,,,,,,,,1,,,60,0
101199,note_on,0,0,2,,,,,,,,,1,,,63,62
101199,note_on,0,0,3,,,,,,,,,2,,,54,62
101280,note_on,0,0,3,,,,,,,,,2,,,60,62
101280,note_on,81,0,2,,,,,,,,,1,,,63,0
101280,note_on,81,0,3,,,,,,,,,2,,,54,0
101280,note_on,0,0,2,,,,,,,,,1,,,68,62
101360,note_on,0,0,3,,,,,,,,,2,,,63,62
101360,note_on,0,0,2,,,,,,,,,1,,,72,62
101360,note_on,80,0,3,,,,,,,,,2,,,60,0
101360,note_on,80,0,2,,,,,,,,,1,,,68,0
101439,note_on,0,0,2,,,,,,,,,1,,,75,62
101439,note_on,0,0,3,,,,,,,,,2,,,66,62
101439,note_on,79,0,3,,,,,,,,,2,,,63,0
101439,note_on,79,0,2,,,,,,,,,1,,,72,0
101520,note_on,0,0,3,,,,,,,,,2,,,72,62
101520,note_on,81,0,3,,,,,,,,,2,,,66,0
101520,note_on,0,0,2,,,,,,,,,1,,,81,62
101520,note_on,81,0,2,,,,,,,,,1,,,75,0
101600,note_on,0,0,2,,,,,,,,,1,,,84,62
101600,note_on,80,0,2,,,,,,,,,1,,,81,0
101600,note_on,80,0,3,,,,,,,,,2,,,72,0
101600,note_on,0,0,3,,,,,,,,,2,,,75,62
101679,note_on,79,0,3,,,,,,,,,2,,,75,0
101679,note_on,0,0,3,,,,,,,,,2,,,78,62
101679,note_on,0,0,2,,,,,,,,,1,,,87,62
101679,note_on,79,0,2,,,,,,,,,1,,,84,0
101760,note_on,81,0,3,,,,,,,,,2,,,78,0
101760,note_on,0,0,3,,,,,,,,,2,,,84,62
101760,note_on,0,0,2,,,,,,,,,1,,,93,62
101760,note_on,81,0,2,,,,,,,,,1,,,87,0
101840,note_on,80,0,3,,,,,,,,,2,,,84,0
101840,note_on,0,0,3,,,,,,,,,2,,,78,62
101840,note_on,0,0,2,,,,,,,,,1,,,87,62
101840,note_on,80,0,2,,,,,,,,,1,,,93,0
101919,note_on,79,0,3,,,,,,,,,2,,,78,0
101919,note_on,79,0,2,,,,,,,,,1,,,87,0
101919,note_on,0,0,2,,,,,,,,,1,,,81,62
101919,note_on,0,0,3,,,,,,,,,2,,,72,62
102000,note_on,0,0,3,,,,,,,,,2,,,66,62
102000,note_on,0,0,2,,,,,,,,,1,,,75,62
102000,note_on,81,0,3,,,,,,,,,2,,,72,0
102000,note_on,81,0,2,,,,,,,,,1,,,81,0
102080,note_on,80,0,2,,,,,,,,,1,,,75,0
102080,note_on,0,0,2,,,,,,,,,1,,,81,62
102159,note_on,0,0,2,,,,,,,,,1,,,87,62
102159,note_on,79,0,2,,,,,,,,,1,,,81,0
102240,note_on,0,0,3,,,,,,,,,2,,,84,62
102240,note_on,81,0,2,,,,,,,,,1,,,87,0
102240,note_on,0,0,2,,,,,,,,,1,,,93,62
102240,note_on,240,0,3,,,,,,,,,2,,,66,0
102320,note_on,80,0,3,,,,,,,,,2,,,84,0
102320,note_on,0,0,2,,,,,,,,,1,,,87,62
102320,note_on,80,0,2,,,,,,,,,1,,,93,0
102320,note_on,0,0,3,,,,,,,,,2,,,78,62
102399,note_on,0,0,2,,,,,,,,,1,,,81,62
102399,note_on,79,0,3,,,,,,,,,2,,,78,0
102399,note_on,0,0,3,,,,,,,,,2,,,72,62
102399,note_on,79,0,2,,,,,,,,,1,,,87,0
102480,note_on,81,0,3,,,,,,,,,2,,,72,0
102480,control_change,0,0,3,,,,,,,,,2,64,0,,
102480,note_on,0,0,3,,,,,,,,,2,,,66,62
102480,note_on,81,0,2,,,,,,,,,1,,,81,0
102480,note_on,0,0,2,,,,,,,,,1,,,75,62
102560,note_on,0,0,2,,,,,,,,,1,,,81,62
102560,note_on,80,0,2,,,,,,,,,1,,,75,0
102639,control_change,0,0,2,,,,,,,,,1,64,0,,
102639,note_on,0,0,2,,,,,,,,,1,,,87,62
102639,note_on,79,0,2,,,,,,,,,1,,,81,0
102720,note_on,0,0,3,,,,,,,,,2,,,84,62
102720,note_on,0,0,1,,,,,,,,,0,,,78,0
102720,note_on,0,0,1,,,,,,,,,0,,,84,0
102720,control_change,0,0,1,,,,,,,,,0,64,127,,
102720,note_on,0,0,1,,,,,,,,,0,,,87,0
102720,note_on,1920,0,1,,,,,,,,,0,,,93,0
102720,control_change,0,0,3,,,,,,,,,2,64,127,,
102720,note_on,0,0,1,,,,,,,,,0,,,93,62
102720,note_on,1920,0,4,,,,,,,,,3,,,32,0
102720,note_on,81,0,2,,,,,,,,,1,,,87,0
102720,note_on,240,0,3,,,,,,,,,2,,,66,0
102800,note_on,80,0,1,,,,,,,,,0,,,93,0
102800,note_on,80,0,3,,,,,,,,,2,,,84,0
102800,note_on,0,0,3,,,,,,,,,2,,,78,62
102800,note_on,0,0,1,,,,,,,,,0,,,87,62
102879,note_on,0,0,3,,,,,,,,,2,,,72,62
102879,note_on,79,0,3,,,,,,,,,2,,,78,0
102879,note_on,0,0,1,,,,,,,,,0,,,81,62
102879,note_on,79,0,1,,,,,,,,,0,,,87,0
102960,note_on,0,0,3,,,,,,,,,2,,,66,62
102960,note_on,0,0,1,,,,,,,,,0,,,75,62
102960,note_on,81,0,1,,,,,,,,,0,,,81,0
102960,note_on,81,0,3,,,,,,,,,2,,,72,0
103040,note_on,0,0,1,,,,,,,,,0,,,81,62
103040,note_on,80,0,1,,,,,,,,,0,,,75,0
103119,note_on,79,0,1,,,,,,,,,0,,,81,0
103119,note_on,0,0,1,,,,,,,,,0,,,87,62
103200,note_on,240,0,3,,,,,,,,,2,,,66,0
103200,note_on,0,0,3,,,,,,,,,2,,,84,62
103200,note_on,81,0,1,,,,,,,,,0,,,87,0
103200,note_on,0,0,1,,,,,,,,,0,,,93,62
103280,note_on,80,0,3,,,,,,,,,2,,,84,0
103280,note_on,0,0,3,,,,,,,,,2,,,78,62
103280,note_on,0,0,1,,,,,,,,,0,,,87,62
103280,note_on,80,0,1,,,,,,,,,0,,,93,0
103359,note_on,79,0,3,,,,,,,,,2,,,78,0
103359,note_on,79,0,1,,,,,,,,,0,,,87,0
103359,note_on,0,0,1,,,,,,,,,0,,,81,62
103359,note_on,0,0,3,,,,,,,,,2,,,72,62
103440,note_on,0,0,1,,,,,,,,,0,,,75,62
103440,note_on,81,0,1,,,,,,,,,0,,,81,0
103440,note_on,81,0,3,,,,,,,,,2,,,72,0
103440,note_on,0,0,3,,,,,,,,,2,,,66,62
103520,note_on,80,0,1,,,,,,,,,0,,,75,0
103520,note_on,0,0,1,,,,,,,,,0,,,81,62
103599,note_on,79,0,1,,,,,,,,,0,,,81,0
103599,note_on,0,0,1,,,,,,,,,0,,,87,62
103680,note_on,240,0,3,,,,,,,,,2,,,66,0
103680,note_on,0,0,1,,,,,,,,,0,,,93,62
103680,note_on,81,0,1,,,,,,,,,0,,,87,0
103680,note_on,0,0,3,,,,,,,,,2,,,84,62
103760,note_on,80,0,1,,,,,,,,,0,,,93,0
103760,note_on,0,0,3,,,,,,,,,2,,,78,62
103760,note_on,0,0,1,,,,,,,,,0,,,87,62
103760,note_on,80,0,3,,,,,,,,,2,,,84,0
103839,note_on,0,0,1,,,,,,,,,0,,,81,62
103839,note_on,0,0,3,,,,,,,,,2,,,72,62
103839,note_on,79,0,3,,,,,,,,,2,,,78,0
103839,note_on,79,0,1,,,,,,,,,0,,,87,0
103920,note_on,0,0,1,,,,,,,,,0,,,75,62
103920,note_on,81,0,3,,,,,,,,,2,,,72,0
103920,note_on,81,0,1,,,,,,,,,0,,,81,0
103920,note_on,0,0,3,,,,,,,,,2,,,66,62
104000,note_on,80,0,1,,,,,,,,,0,,,75,0
104000,note_on,0,0,1,,,,,,,,,0,,,81,62
104079,note_on,79,0,1,,,,,,,,,0,,,81,0
104079,note_on,0,0,1,,,,,,,,,0,,,87,62
104160,note_on,240,0,3,,,,,,,,,2,,,66,0
104160,note_on,81,0,1,,,,,,,,,0,,,87,0
104160,note_on,0,0,1,,,,,,,,,0,,,96,49
104160,note_on,0,0,3,,,,,,,,,2,,,87,49
104240,note_on,0,0,1,,,,,,,,,0,,,87,49
104240,note_on,80,0,1,,,,,,,,,0,,,96,0
104240,note_on,80,0,3,,,,,,,,,2,,,87,0
104240,note_on,0,0,3,,,,,,,,,2,,,78,49
104319,note_on,79,0,3,,,,,,,,,2,,,78,0
104319,note_on,0,0,1,,,,,,,,,0,,,81,49
104319,note_on,79,0,1,,,,,,,,,0,,,87,0
104319,note_on,0,0,3,,,,,,,,,2,,,71,49
104400,note_on,81,0,3,,,,,,,,,2,,,71,0
104400,note_on,0,0,3,,,,,,,,,2,,,75,49
104400,note_on,81,0,1,,,,,,,,,0,,,81,0
104400,note_on,0,0,1,,,,,,,,,0,,,84,49
104480,note_on,80,0,3,,,,,,,,,2,,,75,0
104480,note_on,0,0,1,,,,,,,,,0,,,75,49
104480,note_on,0,0,3,,,,,,,,,2,,,66,49
104480,note_on,80,0,1,,,,,,,,,0,,,84,0
104559,note_on,79,0,3,,,,,,,,,2,,,66,0
104559,note_on,0,0,1,,,,,,,,,0,,,69,49
104559,control_change,0,0,3,,,,,,,,,2,64,0,,
104559,note_on,0,0,3,,,,,,,,,2,,,59,49
104559,note_on,79,0,1,,,,,,,,,0,,,75,0
104559,control_change,0,0,1,,,,,,,,,0,64,0,,
104640,control_change,0,0,3,,,,,,,,,2,64,127,,
104640,note_on,81,0,3,,,,,,,,,2,,,59,0
104640,note_on,0,0,1,,,,,,,,,0,,,75,49
104640,control_change,0,0,1,,,,,,,,,0,64,127,,
104640,note_on,81,0,1,,,,,,,,,0,,,69,0
104640,note_on,0,0,3,,,,,,,,,2,,,66,49
104720,note_on,0,0,1,,,,,,,,,0,,,78,49
104720,note_on,0,0,3,,,,,,,,,2,,,69,49
104720,note_on,80,0,3,,,,,,,,,2,,,66,0
104720,note_on,80,0,1,,,,,,,,,0,,,75,0
104799,note_on,79,0,1,,,,,,,,,0,,,78,0
104799,note_on,0,0,1,,,,,,,,,0,,,84,49
104799,note_on,0,0,3,,,,,,,,,2,,,75,49
104799,note_on,79,0,3,,,,,,,,,2,,,69,0
104880,note_on,0,0,3,,,,,,,,,2,,,71,49
104880,note_on,81,0,3,,,,,,,,,2,,,75,0
104880,note_on,81,0,1,,,,,,,,,0,,,84,0
104880,note_on,0,0,1,,,,,,,,,0,,,81,49
104960,note_on,0,0,1,,,,,,,,,0,,,87,49
104960,note_on,80,0,1,,,,,,,,,0,,,81,0
104960,note_on,80,0,3,,,,,,,,,2,,,71,0
104960,note_on,0,0,3,,,,,,,,,2,,,78,49
105039,note_on,0,0,3,,,,,,,,,2,,,81,49
105039,note_on,79,0,1,,,,,,,,,0,,,87,0
105039,note_on,79,0,3,,,,,,,,,2,,,78,0
105039,note_on,0,0,1,,,,,,,,,0,,,90,49
105120,note_on,81,0,3,,,,,,,,,2,,,81,0
105120,note_on,0,0,1,,,,,,,,,0,,,96,49
105120,note_on,0,0,3,,,,,,,,,2,,,87,49
105120,note_on,81,0,1,,,,,,,,,0,,,90,0
105200,note_on,0,0,1,,,,,,,,,0,,,87,49
105200,note_on,0,0,3,,,,,,,,,2,,,78,49
105200,note_on,80,0,3,,,,,,,,,2,,,87,0
105200,note_on,80,0,1,,,,,,,,,0,,,96,0
105279,note_on,0,0,1,,,,,,,,,0,,,81,49
105279,note_on,79,0,3,,,,,,,,,2,,,78,0
105279,note_on,0,0,3,,,,,,,,,2,,,71,49
105279,note_on,79,0,1,,,,,,,,,0,,,87,0
105360,note_on,81,0,3,,,,,,,,,2,,,71,0
105360,note_on,81,0,1,,,,,,,,,0,,,81,0
105360,note_on,0,0,1,,,,,,,,,0,,,84,49
105360,note_on,0,0,3,,,,,,,,,2,,,75,49
105440,note_on,0,0,3,,,,,,,,,2,,,66,49
105440,note_on,80,0,3,,,,,,,,,2,,,75,0
105440,note_on,80,0,1,,,,,,,,,0,,,84,0
105440,note_on,0,0,1,,,,,,,,,0,,,75,49
105519,note_on,0,0,3,,,,,,,,,2,,,59,49
105519,note_on,79,0,1,,,,,,,,,0,,,75,0
105519,note_on,79,0,3,,,,,,,,,2,,,66,0
105519,note_on,0,0,1,,,,,,,,,0,,,69,49
105600,note_on,81,0,1,,,,,,,,,0,,,69,0
105600,note_on,0,0,3,,,,,,,,,2,,,66,49
105600,note_on,81,0,3,,,,,,,,,2,,,59,0
105600,note_on,0,0,1,,,,,,,,,0,,,75,49
105680,note_on,0,0,1,,,,,,,,,0,,,78,49
105680,note_on,80,0,1,,,,,,,,,0,,,75,0
105680,note_on,80,0,3,,,,,,,,,2,,,66,0
105680,note_on,0,0,3,,,,,,,,,2,,,69,49
105759,note_on,0,0,1,,,,,,,,,0,,,84,49
105759,note_on,0,0,3,,,,,,,,,2,,,75,49
105759,note_on,79,0,1,,,,,,,,,0,,,78,0
105759,note_on,79,0,3,,,,,,,,,2,,,69,0
105840,note_on,0,0,3,,,,,,,,,2,,,71,49
105840,note_on,81,0,1,,,,,,,,,0,,,84,0
105840,note_on,0,0,1,,,,,,,,,0,,,81,49
105840,note_on,81,0,3,,,,,,,,,2,,,75,0
105920,note_on,80,0,3,,,,,,,,,2,,,71,0
105920,note_on,80,0,1,,,,,,,,,0,,,81,0
105920,note_on,0,0,1,,,,,,,,,0,,,87,49
105920,note_on,0,0,3,,,,,,,,,2,,,78,49
105999,note_on,0,0,3,,,,,,,,,2,,,81,49
105999,note_on,79,0,3,,,,,,,,,2,,,78,0
105999,note_on,0,0,1,,,,,,,,,0,,,90,49
105999,note_on,79,0,1,,,,,,,,,0,,,87,0
106080,note_on,0,0,1,,,,,,,,,0,,,96,49
106080,note_on,0,0,3,,,,,,,,,2,,,87,49
106080,note_on,81,0,3,,,,,,,,,2,,,81,0
106080,note_on,81,0,1,,,,,,,,,0,,,90,0
106160,note_on,0,0,3,,,,,,,,,2,,,78,49
106160,note_on,80,0,1,,,,,,,,,0,,,96,0
106160,note_on,80,0,3,,,,,,,,,2,,,87,0
106160,note_on,0,0,1,,,,,,,,,0,,,87,49
106239,note_on,79,0,1,,,,,,,,,0,,,87,0
106239,note_on,79,0,3,,,,,,,,,2,,,78,0
106239,note_on,0,0,1,,,,,,,,,0,,,90,49
106239,note_on,0,0,3,,,,,,,,,2,,,81,49
106320,note_on,81,0,3,,,,,,,,,2,,,81,0
106320,note_on,81,0,1,,,,,,,,,0,,,90,0
106320,note_on,0,0,1,,,,,,,,,0,,,81,49
106320,note_on,0,0,3,,,,,,,,,2,,,71,49
106400,note_on,80,0,1,,,,,,,,,0,,,81,0
106400,note_on,0,0,3,,,,,,,,,2,,,78,49
106400,note_on,80,0,3,,,,,,,,,2,,,71,0
106400,note_on,0,0,1,,,,,,,,,0,,,87,49
106479,note_on,0,0,1,,,,,,,,,0,,,90,49
106479,note_on,79,0,1,,,,,,,,,0,,,87,0
106479,note_on,79,0,3,,,,,,,,,2,,,78,0
106479,note_on,0,0,3,,,,,,,,,2,,,81,49
106479,control_change,0,0,3,,,,,,,,,2,64,0,,
106479,control_change,0,0,1,,,,,,,,,0,64,0,,
106560,note_on,0,0,3,,,,,,,,,2,,,87,49
106560,control_change,0,0,1,,,,,,,,,0,64,127,,
106560,note_on,0,0,1,,,,,,,,,0,,,96,49
106560,control_change,0,0,3,,,,,,,,,2,64,127,,
106560,note_on,81,0,3,,,,,,,,,2,,,81,0
106560,note_on,81,0,1,,,,,,,,,0,,,90,0
106640,note_on,80,0,3,,,,,,,,,2,,,87,0
106640,note_on,0,0,1,,,,,,,,,0,,,87,49
106640,note_on,0,0,3,,,,,,,,,2,,,78,49
106640,note_on,80,0,1,,,,,,,,,0,,,96,0
106719,note_on,0,0,3,,,,,,,,,2,,,81,49
106719,note_on,79,0,3,,,,,,,,,2,,,78,0
106719,note_on,79,0,1,,,,,,,,,0,,,87,0
106719,note_on,0,0,1,,,,,,,,,0,,,90,49
106800,note_on,0,0,1,,,,,,,,,0,,,81,49
106800,note_on,0,0,3,,,,,,,,,2,,,71,49
106800,note_on,81,0,1,,,,,,,,,0,,,90,0
106800,note_on,81,0,3,,,,,,,,,2,,,81,0
106880,note_on,80,0,1,,,,,,,,,0,,,81,0
106880,note_on,80,0,3,,,,,,,,,2,,,71,0
106880,note_on,0,0,3,,,,,,,,,2,,,78,49
106880,note_on,0,0,1,,,,,,,,,0,,,87,49
106959,note_on,79,0,1,,,,,,,,,0,,,87,0
106959,note_on,0,0,3,,,,,,,,,2,,,81,49
106959,note_on,79,0,3,,,,,,,,,2,,,78,0
106959,note_on,0,0,1,,,,,,,,,0,,,90,49
107040,note_on,0,0,3,,,,,,,,,2,,,87,49
107040,note_on,81,0,3,,,,,,,,,2,,,81,0
107040,note_on,81,0,1,,,,,,,,,0,,,90,0
107040,note_on,0,0,1,,,,,,,,,0,,,96,49
107120,note_on,80,0,3,,,,,,,,,2,,,87,0
107120,note_on,0,0,3,,,,,,,,,2,,,78,49
107120,note_on,80,0,1,,,,,,,,,0,,,96,0
107120,note_on,0,0,1,,,,,,,,,0,,,87,49
107199,note_on,79,0,3,,,,,,,,,2,,,78,0
107199,note_on,0,0,1,,,,,,,,,0,,,90,49
107199,note_on,0,0,3,,,,,,,,,2,,,81,49
107199,note_on,79,0,1,,,,,,,,,0,,,87,0
107280,note_on,0,0,3,,,,,,,,,2,,,71,49
107280,note_on,0,0,1,,,,,,,,,0,,,81,49
107280,note_on,81,0,1,,,,,,,,,0,,,90,0
107280,note_on,81,0,3,,,,,,,,,2,,,81,0
107360,note_on,80,0,3,,,,,,,,,2,,,71,0
107360,note_on,0,0,3,,,,,,,,,2,,,78,49
107360,note_on,80,0,1,,,,,,,,,0,,,81,0
107360,note_on,0,0,1,,,,,,,,,0,,,87,49
107439,note_on,79,0,3,,,,,,,,,2,,,78,0
107439,note_on,0,0,3,,,,,,,,,2,,,81,49
107439,note_on,0,0,1,,,,,,,,,0,,,90,49
107439,note_on,79,0,1,,,,,,,,,0,,,87,0
107520,note_on,81,0,3,,,,,,,,,2,,,81,0
107520,note_on,0,0,1,,,,,,,,,0,,,96,62
107520,note_on,81,0,1,,,,,,,,,0,,,90,0
107520,note_on,0,0,3,,,,,,,,,2,,,87,62
107600,note_on,80,0,3,,,,,,,,,2,,,87,0
107600,note_on,80,0,1,,,,,,,,,0,,,96,0
107600,note_on,0,0,3,,,,,,,,,2,,,78,62
107600,note_on,0,0,1,,,,,,,,,0,,,87,62
107679,note_on,0,0,3,,,,,,,,,2,,,81,62
107679,note_on,79,0,1,,,,,,,,,0,,,87,0
107679,note_on,0,0,1,,,,,,,,,0,,,90,62
107679,note_on,79,0,3,,,,,,,,,2,,,78,0
107760,note_on,0,0,1,,,,,,,,,0,,,81,62
107760,note_on,81,0,1,,,,,,,,,0,,,90,0
107760,note_on,81,0,3,,,,,,,,,2,,,81,0
107760,note_on,0,0,3,,,,,,,,,2,,,71,62
107840,note_on,80,0,3,,,,,,,,,2,,,71,0
107840,note_on,0,0,3,,,,,,,,,2,,,78,62
107840,note_on,0,0,1,,,,,,,,,0,,,87,62
107840,note_on,80,0,1,,,,,,,,,0,,,81,0
107919,note_on,0,0,1,,,,,,,,,0,,,90,62
107919,note_on,79,0,1,,,,,,,,,0,,,87,0
107919,note_on,79,0,3,,,,,,,,,2,,,78,0
107919,note_on,0,0,3,,,,,,,,,2,,,81,62
108000,note_on,0,0,1,,,,,,,,,0,,,96,62
108000,note_on,81,0,3,,,,,,,,,2,,,81,0
108000,note_on,0,0,3,,,,,,,,,2,,,87,62
108000,note_on,81,0,1,,,,,,,,,0,,,90,0
108068,note_on,68,0,1,,,,,,,,,0,,,96,0
108068,note_on,0,0,1,,,,,,,,,0,,,87,62
108080,note_on,0,0,3,,,,,,,,,2,,,78,62
108080,note_on,80,0,3,,,,,,,,,2,,,87,0
108137,note_on,0,0,1,,,,,,,,,0,,,90,62
108137,note_on,69,0,1,,,,,,,,,0,,,87,0
108159,note_on,0,0,3,,,,,,,,,2,,,81,62
108159,note_on,79,0,3,,,,,,,,,2,,,78,0
108205,note_on,0,0,1,,,,,,,,,0,,,81,62
108205,note_on,68,0,1,,,,,,,,,0,,,90,0
108240,note_on,0,0,3,,,,,,,,,2,,,71,62
108240,note_on,81,0,3,,,,,,,,,2,,,81,0
108274,note_on,0,0,1,,,,,,,,,0,,,87,62
108274,note_on,69,0,1,,,,,,,,,0,,,81,0
108320,note_on,0,0,3,,,,,,,,,2,,,75,62
108320,note_on,80,0,3,,,,,,,,,2,,,71,0
108342,note_on,0,0,1,,,,,,,,,0,,,90,62
108342,note_on,68,0,1,,,,,,,,,0,,,87,0
108399,control_change,0,0,3,,,,,,,,,2,64,0,,
108399,note_on,0,0,3,,,,,,,,,2,,,66,62
108399,note_on,79,0,3,,,,,,,,,2,,,75,0
108411,control_change,0,0,1,,,,,,,,,0,64,0,,
108411,note_on,0,0,1,,,,,,,,,0,,,96,62
108411,note_on,69,0,1,,,,,,,,,0,,,90,0
108480,note_on,69,0,1,,,,,,,,,0,,,96,0
108480,note_on,81,0,3,,,,,,,,,2,,,66,0
108480,control_change,0,0,3,,,,,,,,,2,64,127,,
108480,key_signature,9600,1,0,,,,,Db,,,,,,,,
108480,note_on,0,0,3,,,,,,,,,2,,,56,62
108480,note_on,0,0,1,,,,,,,,,0,,,84,62
108480,control_change,0,0,1,,,,,,,,,0,64,127,,
108540,note_on,60,0,1,,,,,,,,,0,,,84,0
108540,note_on,0,0,3,,,,,,,,,2,,,63,62
108540,note_on,0,0,1,,,,,,,,,0,,,92,62
108540,note_on,60,0,3,,,,,,,,,2,,,56,0
108600,note_on,60,0,3,,,,,,,,,2,,,63,0
108600,note_on,0,0,3,,,,,,,,,2,,,66,62
108600,note_on,0,0,1,,,,,,,,,0,,,94,62
108600,note_on,60,0,1,,,,,,,,,0,,,92,0
108660,note_on,0,0,1,,,,,,,,,0,,,101,62
108660,note_on,0,0,3,,,,,,,,,2,,,72,62
108660,note_on,60,0,3,,,,,,,,,2,,,66,0
108660,note_on,60,0,1,,,,,,,,,0,,,94,0
108720,note_on,60,0,3,,,,,,,,,2,,,72,0
108720,note_on,60,0,1,,,,,,,,,0,,,101,0
108720,note_on,0,0,1,,,,,,,,,0,,,99,62
108780,note_on,0,0,1,,,,,,,,,0,,,97,62
108780,note_on,60,0,1,,,,,,,,,0,,,99,0
108840,note_on,60,0,1,,,,,,,,,0,,,97,0
108840,note_on,0,0,1,,,,,,,,,0,,,96,62
108900,note_on,0,0,1,,,,,,,,,0,,,94,62
108900,note_on,60,0,1,,,,,,,,,0,,,96,0
108960,note_on,60,0,1,,,,,,,,,0,,,94,0
108960,note_on,0,0,1,,,,,,,,,0,,,92,62
109020,note_on,0,0,1,,,,,,,,,0,,,91,62
109020,note_on,60,0,1,,,,,,,,,0,,,92,0
109080,note_on,0,0,1,,,,,,,,,0,,,94,62
109080,note_on,360,0,3,,,,,,,,,2,,,85,62
109080,note_on,60,0,1,,,,,,,,,0,,,91,0
109140,note_on,0,0,1,,,,,,,,,0,,,92,62
109140,note_on,0,0,3,,,,,,,,,2,,,84,62
109140,note_on,60,0,1,,,,,,,,,0,,,94,0
109140,note_on,60,0,3,,,,,,,,,2,,,85,0
109200,note_on,0,0,3,,,,,,,,,2,,,82,62
109200,note_on,60,0,3,,,,,,,,,2,,,84,0
109200,note_on,60,0,1,,,,,,,,,0,,,92,0
109200,note_on,0,0,1,,,,,,,,,0,,,90,62
109260,note_on,60,0,1,,,,,,,,,0,,,90,0
109260,note_on,60,0,3,,,,,,,,,2,,,82,0
109260,note_on,0,0,1,,,,,,,,,0,,,89,62
109260,note_on,0,0,3,,,,,,,,,2,,,80,62
109320,note_on,60,0,1,,,,,,,,,0,,,89,0
109320,note_on,0,0,1,,,,,,,,,0,,,87,62
109320,note_on,60,0,3,,,,,,,,,2,,,80,0
109320,note_on,0,0,3,,,,,,,,,2,,,78,62
109380,note_on,60,0,1,,,,,,,,,0,,,87,0
109380,note_on,60,0,3,,,,,,,,,2,,,78,0
109380,note_on,0,0,1,,,,,,,,,0,,,86,62
109380,note_on,0,0,3,,,,,,,,,2,,,77,62
109440,note_on,0,0,1,,,,,,,,,0,,,90,62
109440,note_on,60,0,3,,,,,,,,,2,,,77,0
109440,note_on,60,0,1,,,,,,,,,0,,,86,0
109440,note_on,0,0,3,,,,,,,,,2,,,82,62
109500,note_on,0,0,3,,,,,,,,,2,,,80,62
109500,note_on,60,0,1,,,,,,,,,0,,,90,0
109500,note_on,0,0,1,,,,,,,,,0,,,89,62
109500,note_on,60,0,3,,,,,,,,,2,,,82,0
109560,note_on,0,0,3,,,,,,,,,2,,,78,62
109560,note_on,0,0,1,,,,,,,,,0,,,87,62
109560,note_on,60,0,3,,,,,,,,,2,,,80,0
109560,note_on,60,0,1,,,,,,,,,0,,,89,0
109620,note_on,60,0,3,,,,,,,,,2,,,78,0
109620,note_on,0,0,3,,,,,,,,,2,,,77,62
109620,note_on,0,0,1,,,,,,,,,0,,,85,62
109620,note_on,60,0,1,,,,,,,,,0,,,87,0
109680,note_on,60,0,3,,,,,,,,,2,,,77,0
109680,note_on,0,0,1,,,,,,,,,0,,,84,62
109680,note_on,0,0,3,,,,,,,,,2,,,75,62
109680,note_on,60,0,1,,,,,,,,,0,,,85,0
109740,note_on,60,0,3,,,,,,,,,2,,,75,0
109740,note_on,0,0,3,,,,,,,,,2,,,73,62
109740,note_on,60,0,1,,,,,,,,,0,,,84,0
109740,note_on,0,0,1,,,,,,,,,0,,,82,62
109800,note_on,60,0,3,,,,,,,,,2,,,73,0
109800,note_on,0,0,1,,,,,,,,,0,,,80,62
109800,note_on,60,0,1,,,,,,,,,0,,,82,0
109800,note_on,0,0,3,,,,,,,,,2,,,72,62
109860,note_on,60,0,1,,,,,,,,,0,,,80,0
109860,note_on,0,0,3,,,,,,,,,2,,,71,62
109860,note_on,60,0,3,,,,,,,,,2,,,72,0
109860,note_on,0,0,1,,,,,,,,,0,,,79,62
109920,note_on,60,0,1,,,,,,,,,0,,,79,0
109920,note_on,0,0,1,,,,,,,,,0,,,82,62
109920,note_on,60,0,3,,,,,,,,,2,,,71,0
109920,note_on,0,0,3,,,,,,,,,2,,,73,62
109980,note_on,60,0,3,,,,,,,,,2,,,73,0
109980,note_on,0,0,1,,,,,,,,,0,,,80,62
109980,note_on,0,0,3,,,,,,,,,2,,,72,62
109980,note_on,60,0,1,,,,,,,,,0,,,82,0
110040,note_on,60,0,3,,,,,,,,,2,,,72,0
110040,note_on,0,0,1,,,,,,,,,0,,,78,62
110040,note_on,0,0,3,,,,,,,,,2,,,70,62
110040,note_on,60,0,1,,,,,,,,,0,,,80,0
110100,note_on,0,0,3,,,,,,,,,2,,,68,62
110100,note_on,0,0,1,,,,,,,,,0,,,77,62
110100,note_on,60,0,3,,,,,,,,,2,,,70,0
110100,note_on,60,0,1,,,,,,,,,0,,,78,0
110160,note_on,60,0,3,,,,,,,,,2,,,68,0
110160,note_on,0,0,1,,,,,,,,,0,,,75,62
110160,note_on,0,0,3,,,,,,,,,2,,,66,62
110160,note_on,60,0,1,,,,,,,,,0,,,77,0
110220,note_on,0,0,3,,,,,,,,,2,,,65,62
110220,note_on,60,0,1,,,,,,,,,0,,,75,0
110220,note_on,0,0,1,,,,,,,,,0,,,74,62
110220,note_on,60,0,3,,,,,,,,,2,,,66,0
110280,note_on,60,0,1,,,,,,,,,0,,,74,0
110280,note_on,0,0,3,,,,,,,,,2,,,70,62
110280,note_on,0,0,1,,,,,,,,,0,,,78,62
110280,note_on,60,0,3,,,,,,,,,2,,,65,0
110340,note_on,0,0,3,,,,,,,,,2,,,68,62
110340,note_on,60,0,3,,,,,,,,,2,,,70,0
110340,note_on,60,0,1,,,,,,,,,0,,,78,0
110340,note_on,0,0,1,,,,,,,,,0,,,77,62
110400,note_on,60,0,3,,,,,,,,,2,,,68,0
110400,note_on,60,0,1,,,,,,,,,0,,,77,0
110400,note_on,0,0,1,,,,,,,,,0,,,75,62
110400,note_on,0,0,3,,,,,,,,,2,,,66,62
110400,time_signature,1920,1,0,6,32,3,8,,,,,,,,,
110460,note_on,60,0,1,,,,,,,,,0,,,75,0
110460,note_on,60,0,3,,,,,,,,,2,,,66,0
110460,note_on,0,0,1,,,,,,,,,0,,,73,62
110460,note_on,0,0,3,,,,,,,,,2,,,65,62
110520,note_on,0,0,1,,,,,,,,,0,,,72,62
110520,note_on,60,0,3,,,,,,,,,2,,,65,0
110520,note_on,0,0,3,,,,,,,,,2,,,63,62
110520,note_on,60,0,1,,,,,,,,,0,,,73,0
110580,note_on,0,0,1,,,,,,,,,0,,,70,62
110580,note_on,60,0,1,,,,,,,,,0,,,72,0
110580,note_on,60,0,3,,,,,,,,,2,,,63,0
110580,note_on,0,0,3,,,,,,,,,2,,,61,62
110640,note_on,0,0,3,,,,,,,,,2,,,60,62
110640,note_on,60,0,1,,,,,,,,,0,,,70,0
110640,note_on,60,0,3,,,,,,,,,2,,,61,0
110640,note_on,0,0,1,,,,,,,,,0,,,68,62
110700,note_on,60,0,3,,,,,,,,,2,,,60,0
110700,note_on,60,0,1,,,,,,,,,0,,,68,0
110700,note_on,0,0,3,,,,,,,,,2,,,59,62
110700,note_on,0,0,1,,,,,,,,,0,,,67,62
110760,note_on,60,0,1,,,,,,,,,0,,,67,0
110760,note_on,0,0,3,,,,,,,,,2,,,61,62
110760,note_on,0,0,1,,,,,,,,,0,,,70,62
110760,time_signature,360,1,0,4,4,24,8,,,,,,,,,
110760,note_on,60,0,3,,,,,,,,,2,,,59,0
110820,note_on,0,0,3,,,,,,,,,2,,,60,62
110820,note_on,0,0,1,,,,,,,,,0,,,68,62
110820,note_on,60,0,1,,,,,,,,,0,,,70,0
110820,note_on,60,0,3,,,,,,,,,2,,,61,0
110880,note_on,0,0,1,,,,,,,,,0,,,66,62
110880,note_on,60,0,3,,,,,,,,,2,,,60,0
110880,note_on,0,0,3,,,,,,,,,2,,,58,62
110880,note_on,60,0,1,,,,,,,,,0,,,68,0
110940,note_on,0,0,3,,,,,,,,,2,,,56,62
110940,note_on,60,0,1,,,,,,,,,0,,,66,0
110940,note_on,0,0,1,,,,,,,,,0,,,65,62
110940,note_on,60,0,3,,,,,,,,,2,,,58,0
111000,note_on,0,0,3,,,,,,,,,2,,,54,62
111000,note_on,60,0,1,,,,,,,,,0,,,65,0
111000,note_on,0,0,1,,,,,,,,,0,,,63,62
111000,note_on,60,0,3,,,,,,,,,2,,,56,0
111060,note_on,60,0,1,,,,,,,,,0,,,63,0
111060,note_on,60,0,3,,,,,,,,,2,,,54,0
111060,note_on,0,0,1,,,,,,,,,0,,,62,62
111060,note_on,0,0,3,,,,,,,,,2,,,53,62
111120,note_on,0,0,1,,,,,,,,,0,,,66,62
111120,note_on,0,0,3,,,,,,,,,2,,,58,62
111120,note_on,60,0,1,,,,,,,,,0,,,62,0
111120,note_on,60,0,3,,,,,,,,,2,,,53,0
111180,note_on,0,0,1,,,,,,,,,0,,,65,62
111180,note_on,60,0,1,,,,,,,,,0,,,66,0
111180,note_on,60,0,3,,,,,,,,,2,,,58,0
111180,note_on,0,0,3,,,,,,,,,2,,,56,62
111240,note_on,0,0,3,,,,,,,,,2,,,54,62
111240,note_on,60,0,1,,,,,,,,,0,,,65,0
111240,note_on,60,0,3,,,,,,,,,2,,,56,0
111240,note_on,0,0,1,,,,,,,,,0,,,63,62
111300,note_on,0,0,3,,,,,,,,,2,,,53,62
111300,note_on,60,0,3,,,,,,,,,2,,,54,0
111300,note_on,60,0,1,,,,,,,,,0,,,63,0
111300,note_on,0,0,1,,,,,,,,,0,,,61,62
111360,note_on,0,0,1,,,,,,,,,0,,,60,62
111360,note_on,60,0,3,,,,,,,,,2,,,53,0
111360,note_on,60,0,1,,,,,,,,,0,,,61,0
111360,note_on,0,0,3,,,,,,,,,2,,,51,62
111420,note_on,60,0,3,,,,,,,,,2,,,51,0
111420,note_on,0,0,3,,,,,,,,,2,,,49,62
111420,note_on,0,0,1,,,,,,,,,0,,,58,62
111420,note_on,60,0,1,,,,,,,,,0,,,60,0
111480,note_on,60,0,3,,,,,,,,,2,,,49,0
111480,note_on,0,0,3,,,,,,,,,2,,,48,62
111480,note_on,0,0,1,,,,,,,,,0,,,56,62
111480,control_change,0,0,3,,,,,,,,,2,64,0,,
111480,control_change,0,0,1,,,,,,,,,0,64,0,,
111480,note_on,60,0,1,,,,,,,,,0,,,58,0
111540,note_on,0,0,1,,,,,,,,,0,,,55,62
111540,note_on,60,0,1,,,,,,,,,0,,,56,0
111540,note_on,60,0,3,,,,,,,,,2,,,48,0
111540,note_on,0,0,3,,,,,,,,,2,,,47,62
111540,control_change,0,0,3,,,,,,,,,2,64,127,,
111540,control_change,0,0,1,,,,,,,,,0,64,127,,
111600,note_on,60,0,1,,,,,,,,,0,,,55,0
111600,note_on,60,0,3,,,,,,,,,2,,,47,0
111600,note_on,0,0,3,,,,,,,,,2,,,48,62
111600,note_on,0,0,1,,,,,,,,,0,,,56,62
111660,note_on,60,0,3,,,,,,,,,2,,,48,0
111660,note_on,0,0,3,,,,,,,,,2,,,49,62
111660,note_on,0,0,1,,,,,,,,,0,,,58,62
111660,note_on,60,0,1,,,,,,,,,0,,,56,0
111720,note_on,0,0,3,,,,,,,,,2,,,51,62
111720,note_on,60,0,3,,,,,,,,,2,,,49,0
111720,note_on,60,0,1,,,,,,,,,0,,,58,0
111720,note_on,0,0,1,,,,,,,,,0,,,60,62
111780,note_on,60,0,3,,,,,,,,,2,,,51,0
111780,note_on,0,0,1,,,,,,,,,0,,,61,62
111780,note_on,0,0,3,,,,,,,,,2,,,53,62
111780,note_on,60,0,1,,,,,,,,,0,,,60,0
111840,note_on,0,0,3,,,,,,,,,2,,,54,62
111840,note_on,60,0,1,,,,,,,,,0,,,61,0
111840,note_on,60,0,3,,,,,,,,,2,,,53,0
111840,note_on,0,0,1,,,,,,,,,0,,,63,62
111900,note_on,0,0,3,,,,,,,,,2,,,56,62
111900,note_on,60,0,1,,,,,,,,,0,,,63,0
111900,note_on,60,0,3,,,,,,,,,2,,,54,0
111900,note_on,0,0,1,,,,,,,,,0,,,65,62
111960,note_on,60,0,3,,,,,,,,,2,,,56,0
111960,note_on,0,0,1,,,,,,,,,0,,,66,62
111960,note_on,60,0,1,,,,,,,,,0,,,65,0
111960,note_on,0,0,3,,,,,,,,,2,,,58,62
112020,note_on,60,0,1,,,,,,,,,0,,,66,0
112020,note_on,60,0,3,,,,,,,,,2,,,58,0
112020,note_on,0,0,3,,,,,,,,,2,,,59,62
112020,note_on,0,0,1,,,,,,,,,0,,,67,62
112080,note_on,60,0,1,,,,,,,,,0,,,67,0
112080,note_on,60,0,3,,,,,,,,,2,,,59,0
112080,note_on,0,0,3,,,,,,,,,2,,,60,62
112080,note_on,0,0,1,,,,,,,,,0,,,68,62
112140,note_on,60,0,1,,,,,,,,,0,,,68,0
112140,note_on,60,0,3,,,,,,,,,2,,,60,0
112140,note_on,0,0,3,,,,,,,,,2,,,61,62
112140,note_on,0,0,1,,,,,,,,,0,,,70,62
112200,note_on,0,0,3,,,,,,,,,2,,,63,62
112200,note_on,0,0,1,,,,,,,,,0,,,72,62
112200,note_on,60,0,1,,,,,,,,,0,,,70,0
112200,note_on,60,0,3,,,,,,,,,2,,,61,0
112260,note_on,0,0,1,,,,,,,,,0,,,73,62
112260,note_on,60,0,3,,,,,,,,,2,,,63,0
112260,note_on,0,0,3,,,,,,,,,2,,,65,62
112260,note_on,60,0,1,,,,,,,,,0,,,72,0
112320,note_on,60,0,3,,,,,,,,,2,,,65,0
112320,note_on,0,0,3,,,,,,,,,2,,,66,62
112320,note_on,0,0,1,,,,,,,,,0,,,75,62
112320,note_on,60,0,1,,,,,,,,,0,,,73,0
112380,note_on,0,0,1,,,,,,,,,0,,,77,62
112380,note_on,60,0,3,,,,,,,,,2,,,66,0
112380,note_on,60,0,1,,,,,,,,,0,,,75,0
112380,note_on,0,0,3,,,,,,,,,2,,,68,62
112440,note_on,60,0,1,,,,,,,,,0,,,77,0
112440,note_on,0,0,3,,,,,,,,,2,,,70,62
112440,note_on,60,0,3,,,,,,,,,2,,,68,0
112440,note_on,0,0,1,,,,,,,,,0,,,78,62
112500,note_on,0,0,3,,,,,,,,,2,,,71,62
112500,note_on,60,0,1,,,,,,,,,0,,,78,0
112500,note_on,0,0,1,,,,,,,,,0,,,79,62
112500,note_on,60,0,3,,,,,,,,,2,,,70,0
112560,note_on,60,0,1,,,,,,,,,0,,,79,0
112560,note_on,0,0,3,,,,,,,,,2,,,72,62
112560,note_on,0,0,1,,,,,,,,,0,,,80,62
112560,note_on,60,0,3,,,,,,,,,2,,,71,0
112620,note_on,60,0,3,,,,,,,,,2,,,72,0
112620,note_on,0,0,3,,,,,,,,,2,,,73,62
112620,note_on,60,0,1,,,,,,,,,0,,,80,0
112620,note_on,0,0,1,,,,,,,,,0,,,82,62
112620,control_change,0,0,1,,,,,,,,,0,64,0,,
112680,control_change,0,0,1,,,,,,,,,0,64,127,,
112680,control_change,0,0,3,,,,,,,,,2,64,0,,
112680,note_on,60,0,1,,,,,,,,,0,,,82,0
112680,note_on,60,0,3,,,,,,,,,2,,,73,0
112680,time_signature,1920,1,0,5,4,24,8,,,,,,,,,
112680,note_on,0,0,3,,,,,,,,,2,,,75,62
112680,note_on,0,0,1,,,,,,,,,0,,,84,62
112740,note_on,60,0,3,,,,,,,,,2,,,75,0
112740,note_on,60,0,1,,,,,,,,,0,,,84,0
112740,note_on,0,0,3,,,,,,,,,2,,,77,62
112740,note_on,0,0,1,,,,,,,,,0,,,85,62
112740,control_change,0,0,3,,,,,,,,,2,64,127,,
112800,note_on,60,0,1,,,,,,,,,0,,,85,0
112800,note_on,0,0,1,,,,,,,,,0,,,87,62
112800,note_on,60,0,3,,,,,,,,,2,,,77,0
112800,note_on,0,0,3,,,,,,,,,2,,,78,62
112860,note_on,60,0,1,,,,,,,,,0,,,87,0
112860,note_on,60,0,3,,,,,,,,,2,,,78,0
112860,note_on,0,0,3,,,,,,,,,2,,,80,62
112860,note_on,0,0,1,,,,,,,,,0,,,89,62
112920,note_on,60,0,1,,,,,,,,,0,,,89,0
112920,note_on,0,0,3,,,,,,,,,2,,,81,62
112920,note_on,0,0,1,,,,,,,,,0,,,90,62
112920,note_on,60,0,3,,,,,,,,,2,,,80,0
112980,note_on,0,0,1,,,,,,,,,0,,,91,62
112980,note_on,60,0,3,,,,,,,,,2,,,81,0
112980,note_on,0,0,3,,,,,,,,,2,,,82,62
112980,note_on,60,0,1,,,,,,,,,0,,,90,0
113040,note_on,0,0,1,,,,,,,,,0,,,92,62
113040,note_on,60,0,1,,,,,,,,,0,,,91,0
113040,note_on,0,0,3,,,,,,,,,2,,,83,62
113040,note_on,60,0,3,,,,,,,,,2,,,82,0
113100,note_on,0,0,1,,,,,,,,,0,,,93,62
113100,note_on,60,0,1,,,,,,,,,0,,,92,0
113100,note_on,0,0,3,,,,,,,,,2,,,84,62
113100,note_on,60,0,3,,,,,,,,,2,,,83,0
113160,note_on,60,0,1,,,,,,,,,0,,,93,0
113160,note_on,0,0,1,,,,,,,,,0,,,94,62
113160,note_on,0,0,3,,,,,,,,,2,,,85,62
113160,note_on,60,0,3,,,,,,,,,2,,,84,0
113220,note_on,60,0,3,,,,,,,,,2,,,85,0
113220,note_on,0,0,3,,,,,,,,,2,,,86,62
113220,note_on,0,0,1,,,,,,,,,0,,,95,62
113220,note_on,60,0,1,,,,,,,,,0,,,94,0
113280,note_on,0,0,1,,,,,,,,,0,,,96,62
113280,note_on,0,0,3,,,,,,,,,2,,,87,62
113280,note_on,60,0,1,,,,,,,,,0,,,95,0
113280,note_on,60,0,3,,,,,,,,,2,,,86,0
113340,note_on,0,0,1,,,,,,,,,0,,,97,62
113340,note_on,0,0,3,,,,,,,,,2,,,88,62
113340,note_on,60,0,3,,,,,,,,,2,,,87,0
113340,note_on,60,0,1,,,,,,,,,0,,,96,0
113400,note_on,0,0,3,,,,,,,,,2,,,89,62
113400,note_on,60,0,1,,,,,,,,,0,,,97,0
113400,note_on,60,0,3,,,,,,,,,2,,,88,0
113400,note_on,0,0,1,,,,,,,,,0,,,98,62
113400,control_change,0,0,3,,,,,,,,,2,64,0,,
113400,control_change,0,0,1,,,,,,,,,0,64,0,,
113460,note_on,0,0,1,,,,,,,,,0,,,99,75
113460,note_on,60,0,3,,,,,,,,,2,,,89,0
113460,control_change,0,0,3,,,,,,,,,2,64,127,,
113460,note_on,0,0,3,,,,,,,,,2,,,90,75
113460,note_on,60,0,1,,,,,,,,,0,,,98,0
113460,control_change,0,0,1,,,,,,,,,0,64,127,,
113940,note_on,480,0,3,,,,,,,,,2,,,90,0
113940,note_on,480,0,1,,,,,,,,,0,,,99,0
114480,control_change,540,0,3,,,,,,,,,2,64,0,,
114600,control_change,660,0,1,,,,,,,,,0,64,0,,
115080,time_signature,2400,1,0,4,4,24,8,,,,,,,,,
115560,note_on,0,0,3,,,,,,,,,2,,,37,62
115560,control_change,1080,0,3,,,,,,,,,2,64,127,,
115560,control_change,960,0,1,,,,,,,,,0,64,127,,
115560,note_on,0,0,1,,,,,,,,,0,,,56,88
115591,note_on,31,0,3,,,,,,,,,2,,,37,0
115640,note_on,0,0,1,,,,,,,,,0,,,61,62
115640,note_on,80,0,1,,,,,,,,,0,,,56,0
115719,note_on,0,0,1,,,,,,,,,0,,,68,62
115719,note_on,79,0,1,,,,,,,,,0,,,61,0
115719,note_on,128,0,3,,,,,,,,,2,,,44,62
115751,note_on,32,0,3,,,,,,,,,2,,,44,0
115800,note_on,0,0,1,,,,,,,,,0,,,68,62
115800,note_on,81,0,1,,,,,,,,,0,,,68,0
115880,note_on,129,0,3,,,,,,,,,2,,,53,62
115880,note_on,0,0,1,,,,,,,,,0,,,73,62
115880,note_on,80,0,1,,,,,,,,,0,,,68,0
115912,note_on,32,0,3,,,,,,,,,2,,,53,0
115959,note_on,79,0,1,,,,,,,,,0,,,73,0
115959,note_on,0,0,1,,,,,,,,,0,,,80,62
116040,note_on,81,0,1,,,,,,,,,0,,,80,0
116040,note_on,0,0,1,,,,,,,,,0,,,82,62
116040,note_on,128,0,3,,,,,,,,,2,,,58,88
116120,note_on,0,0,1,,,,,,,,,0,,,73,62
116120,note_on,80,0,1,,,,,,,,,0,,,82,0
116199,note_on,159,0,3,,,,,,,,,2,,,58,0
116199,note_on,0,0,1,,,,,,,,,0,,,70,62
116199,note_on,79,0,1,,,,,,,,,0,,,73,0
116199,note_on,0,0,3,,,,,,,,,2,,,53,62
116280,note_on,0,0,1,,,,,,,,,0,,,70,62
116280,note_on,81,0,1,,,,,,,,,0,,,70,0
116360,note_on,0,0,3,,,,,,,,,2,,,49,62
116360,note_on,80,0,1,,,,,,,,,0,,,70,0
116360,note_on,0,0,1,,,,,,,,,0,,,61,62
116360,note_on,161,0,3,,,,,,,,,2,,,53,0
116360,control_change,0,0,3,,,,,,,,,2,64,0,,
116439,note_on,0,0,1,,,,,,,,,0,,,58,62
116439,control_change,0,0,1,,,,,,,,,0,64,0,,
116439,note_on,79,0,1,,,,,,,,,0,,,61,0
116520,note_on,81,0,1,,,,,,,,,0,,,58,0
116520,control_change,0,0,1,,,,,,,,,0,64,127,,
116520,control_change,0,0,3,,,,,,,,,2,64,127,,
116520,note_on,0,0,1,,,,,,,,,0,,,61,88
116520,note_on,160,0,3,,,,,,,,,2,,,49,0
116520,note_on,0,0,3,,,,,,,,,2,,,37,62
116551,note_on,31,0,3,,,,,,,,,2,,,37,0
116600,note_on,80,0,1,,,,,,,,,0,,,61,0
116600,note_on,0,0,1,,,,,,,,,0,,,68,62
116679,note_on,79,0,1,,,,,,,,,0,,,68,0
116679,note_on,0,0,1,,,,,,,,,0,,,73,62
116679,note_on,128,0,3,,,,,,,,,2,,,44,62
116711,note_on,32,0,3,,,,,,,,,2,,,44,0
116760,note_on,0,0,1,,,,,,,,,0,,,73,62
116760,note_on,81,0,1,,,,,,,,,0,,,73,0
116840,note_on,80,0,1,,,,,,,,,0,,,73,0
116840,note_on,0,0,1,,,,,,,,,0,,,80,62
116840,note_on,129,0,3,,,,,,,,,2,,,53,62
116872,note_on,32,0,3,,,,,,,,,2,,,53,0
116919,note_on,0,0,1,,,,,,,,,0,,,85,62
116919,note_on,79,0,1,,,,,,,,,0,,,80,0
117000,note_on,128,0,3,,,,,,,,,2,,,63,88
117000,note_on,0,0,1,,,,,,,,,0,,,87,62
117000,note_on,81,0,1,,,,,,,,,0,,,85,0
117080,note_on,80,0,1,,,,,,,,,0,,,87,0
117080,note_on,0,0,1,,,,,,,,,0,,,82,62
117159,note_on,79,0,1,,,,,,,,,0,,,82,0
117159,note_on,159,0,3,,,,,,,,,2,,,63,0
117159,note_on,0,0,3,,,,,,,,,2,,,58,62
117159,note_on,0,0,1,,,,,,,,,0,,,75,62
117240,note_on,81,0,1,,,,,,,,,0,,,75,0
117240,note_on,0,0,1,,,,,,,,,0,,,75,62
117320,note_on,161,0,3,,,,,,,,,2,,,58,0
117320,note_on,0,0,1,,,,,,,,,0,,,70,62
117320,control_change,0,0,3,,,,,,,,,2,64,0,,
117320,note_on,0,0,3,,,,,,,,,2,,,54,62
117320,note_on,80,0,1,,,,,,,,,0,,,75,0
117399,control_change,0,0,1,,,,,,,,,0,64,0,,
117399,note_on,0,0,1,,,,,,,,,0,,,63,62
117399,note_on,79,0,1,,,,,,,,,0,,,70,0
117480,note_on,0,0,3,,,,,,,,,2,,,37,62
117480,control_change,0,0,1,,,,,,,,,0,64,127,,
117480,control_change,0,0,3,,,,,,,,,2,64,127,,
117480,note_on,81,0,1,,,,,,,,,0,,,63,0
117480,note_on,160,0,3,,,,,,,,,2,,,54,0
117480,note_on,0,0,1,,,,,,,,,0,,,65,88
117511,note_on,31,0,3,,,,,,,,,2,,,37,0
117560,note_on,0,0,1,,,,,,,,,0,,,70,62
117560,note_on,80,0,1,,,,,,,,,0,,,65,0
117639,note_on,0,0,1,,,,,,,,,0,,,77,62
117639,note_on,128,0,3,,,,,,,,,2,,,46,62
117639,note_on,79,0,1,,,,,,,,,0,,,70,0
117671,note_on,32,0,3,,,,,,,,,2,,,46,0
117720,note_on,0,0,1,,,,,,,,,0,,,77,62
117720,note_on,81,0,1,,,,,,,,,0,,,77,0
117800,note_on,80,0,1,,,,,,,,,0,,,77,0
117800,note_on,129,0,3,,,,,,,,,2,,,54,62
117800,note_on,0,0,1,,,,,,,,,0,,,82,62
117832,note_on,32,0,3,,,,,,,,,2,,,54,0
117879,note_on,0,0,1,,,,,,,,,0,,,89,62
117879,note_on,79,0,1,,,,,,,,,0,,,82,0
117960,note_on,128,0,3,,,,,,,,,2,,,63,88
117960,note_on,0,0,1,,,,,,,,,0,,,87,62
117960,note_on,81,0,1,,,,,,,,,0,,,89,0
118040,note_on,0,0,1,,,,,,,,,0,,,82,62
118040,note_on,80,0,1,,,,,,,,,0,,,87,0
118119,note_on,0,0,3,,,,,,,,,2,,,58,62
118119,note_on,0,0,1,,,,,,,,,0,,,75,62
118119,note_on,79,0,1,,,,,,,,,0,,,82,0
118119,note_on,159,0,3,,,,,,,,,2,,,63,0
118200,note_on,0,0,1,,,,,,,,,0,,,75,62
118200,note_on,81,0,1,,,,,,,,,0,,,75,0
118280,note_on,0,0,1,,,,,,,,,0,,,70,62
118280,note_on,161,0,3,,,,,,,,,2,,,58,0
118280,note_on,0,0,3,,,,,,,,,2,,,54,62
118280,control_change,0,0,3,,,,,,,,,2,64,0,,
118280,note_on,80,0,1,,,,,,,,,0,,,75,0
118359,note_on,0,0,1,,,,,,,,,0,,,63,62
118359,control_change,0,0,1,,,,,,,,,0,64,0,,
118359,note_on,79,0,1,,,,,,,,,0,,,70,0
118440,note_on,0,0,1,,,,,,,,,0,,,58,88
118440,control_change,0,0,1,,,,,,,,,0,64,127,,
118440,note_on,81,0,1,,,,,,,,,0,,,63,0
118440,note_on,160,0,3,,,,,,,,,2,,,54,0
118440,control_change,0,0,3,,,,,,,,,2,64,127,,
118440,note_on,0,0,3,,,,,,,,,2,,,37,62
118471,note_on,31,0,3,,,,,,,,,2,,,37,0
118520,note_on,80,0,1,,,,,,,,,0,,,58,0
118520,note_on,0,0,1,,,,,,,,,0,,,63,62
118599,note_on,79,0,1,,,,,,,,,0,,,63,0
118599,note_on,128,0,3,,,,,,,,,2,,,46,62
118599,note_on,0,0,1,,,,,,,,,0,,,70,62
118631,note_on,32,0,3,,,,,,,,,2,,,46,0
118680,note_on,0,0,1,,,,,,,,,0,,,70,62
118680,note_on,81,0,1,,,,,,,,,0,,,70,0
118760,note_on,129,0,3,,,,,,,,,2,,,54,62
118760,note_on,0,0,1,,,,,,,,,0,,,75,62
118760,note_on,80,0,1,,,,,,,,,0,,,70,0
118792,note_on,32,0,3,,,,,,,,,2,,,54,0
118839,note_on,79,0,1,,,,,,,,,0,,,75,0
118839,note_on,0,0,1,,,,,,,,,0,,,82,62
118920,note_on,0,0,1,,,,,,,,,0,,,85,62
118920,note_on,128,0,3,,,,,,,,,2,,,61,88
118920,note_on,81,0,1,,,,,,,,,0,,,82,0
119000,note_on,80,0,1,,,,,,,,,0,,,85,0
119000,note_on,0,0,1,,,,,,,,,0,,,80,62
119079,note_on,0,0,3,,,,,,,,,2,,,56,62
119079,note_on,0,0,1,,,,,,,,,0,,,73,62
119079,note_on,159,0,3,,,,,,,,,2,,,61,0
119079,note_on,79,0,1,,,,,,,,,0,,,80,0
119160,note_on,0,0,1,,,,,,,,,0,,,73,62
119160,note_on,81,0,1,,,,,,,,,0,,,73,0
119240,note_on,0,0,3,,,,,,,,,2,,,53,62
119240,note_on,161,0,3,,,,,,,,,2,,,56,0
119240,note_on,80,0,1,,,,,,,,,0,,,73,0
119240,note_on,0,0,1,,,,,,,,,0,,,68,62
119240,control_change,0,0,3,,,,,,,,,2,64,0,,
119319,control_change,0,0,1,,,,,,,,,0,64,0,,
119319,note_on,79,0,1,,,,,,,,,0,,,68,0
119319,note_on,0,0,1,,,,,,,,,0,,,61,62
119400,note_on,81,0,1,,,,,,,,,0,,,61,0
119400,control_change,0,0,3,,,,,,,,,2,64,127,,
119400,control_change,0,0,1,,,,,,,,,0,64,127,,
119400,note_on,0,0,3,,,,,,,,,2,,,37,62
119400,note_on,160,0,3,,,,,,,,,2,,,53,0
119400,note_on,0,0,1,,,,,,,,,0,,,56,62
119431,note_on,31,0,3,,,,,,,,,2,,,37,0
119480,note_on,80,0,1,,,,,,,,,0,,,56,0
119480,note_on,0,0,1,,,,,,,,,0,,,61,62
119559,note_on,79,0,1,,,,,,,,,0,,,61,0
119559,note_on,0,0,1,,,,,,,,,0,,,68,62
119559,note_on,128,0,3,,,,,,,,,2,,,44,62
119591,note_on,32,0,3,,,,,,,,,2,,,44,0
119640,note_on,81,0,1,,,,,,,,,0,,,68,0
119640,note_on,0,0,1,,,,,,,,,0,,,61,62
119720,note_on,129,0,3,,,,,,,,,2,,,53,62
119720,note_on,80,0,1,,,,,,,,,0,,,61,0
119720,note_on,0,0,1,,,,,,,,,0,,,68,62
119752,note_on,32,0,3,,,,,,,,,2,,,53,0
119799,note_on,0,0,1,,,,,,,,,0,,,73,62
119799,note_on,79,0,1,,,,,,,,,0,,,68,0
119880,note_on,128,0,3,,,,,,,,,2,,,56,62
119880,note_on,81,0,1,,,,,,,,,0,,,73,0
119880,note_on,0,0,1,,,,,,,,,0,,,68,62
119911,note_on,31,0,3,,,,,,,,,2,,,56,0
119960,note_on,80,0,1,,,,,,,,,0,,,68,0
119960,note_on,0,0,1,,,,,,,,,0,,,73,62
120039,note_on,0,0,1,,,,,,,,,0,,,80,62
120039,note_on,79,0,1,,,,,,,,,0,,,73,0
120039,note_on,128,0,3,,,,,,,,,2,,,61,62
120071,note_on,32,0,3,,,,,,,,,2,,,61,0
120120,note_on,81,0,1,,,,,,,,,0,,,80,0
120120,note_on,0,0,1,,,,,,,,,0,,,73,62
120200,note_on,0,0,1,,,,,,,,,0,,,80,62
120200,note_on,80,0,1,,,,,,,,,0,,,73,0
120200,note_on,129,0,3,,,,,,,,,2,,,65,62
120232,note_on,32,0,3,,,,,,,,,2,,,65,0
120279,note_on,79,0,1,,,,,,,,,0,,,80,0
120279,note_on,0,0,1,,,,,,,,,0,,,85,62
120360,note_on,128,0,3,,,,,,,,,2,,,68,62
120360,note_on,0,0,1,,,,,,,,,0,,,80,62
120360,note_on,81,0,1,,,,,,,,,0,,,85,0
120391,note_on,31,0,3,,,,,,,,,2,,,68,0
120440,note_on,80,0,1,,,,,,,,,0,,,80,0
120440,note_on,0,0,1,,,,,,,,,0,,,85,62
120519,note_on,79,0,1,,,,,,,,,0,,,85,0
120519,note_on,128,0,3,,,,,,,,,2,,,73,62
120519,note_on,0,0,1,,,,,,,,,0,,,92,62
120551,note_on,32,0,3,,,,,,,,,2,,,73,0
120600,note_on,0,0,1,,,,,,,,,0,,,85,62
120600,note_on,81,0,1,,,,,,,,,0,,,92,0
120680,note_on,80,0,1,,,,,,,,,0,,,85,0
120680,note_on,129,0,3,,,,,,,,,2,,,77,62
120680,note_on,0,0,1,,,,,,,,,0,,,92,62
120712,note_on,32,0,3,,,,,,,,,2,,,77,0
120759,note_on,79,0,1,,,,,,,,,0,,,92,0
120759,note_on,0,0,1,,,,,,,,,0,,,97,62
120840,note_on,81,0,1,,,,,,,,,0,,,97,0
120840,control_change,128,0,3,,,,,,,,,2,64,0,,
120840,note_on,0,0,1,,,,,,,,,0,,,92,62
120920,note_on,0,0,1,,,,,,,,,0,,,85,62
120920,note_on,80,0,1,,,,,,,,,0,,,92,0
120999,note_on,0,0,1,,,,,,,,,0,,,80,62
120999,note_on,79,0,1,,,,,,,,,0,,,85,0
121080,note_on,0,0,1,,,,,,,,,0,,,73,62
121080,note_on,81,0,1,,,,,,,,,0,,,80,0
121160,note_on,0,0,1,,,,,,,,,0,,,68,62
121160,note_on,80,0,1,,,,,,,,,0,,,73,0
121239,note_on,0,0,1,,,,,,,,,0,,,61,62
121239,note_on,79,0,1,,,,,,,,,0,,,68,0
121239,control_change,0,0,1,,,,,,,,,0,64,0,,
121320,note_on,0,0,3,,,,,,,,,2,,,37,62
121320,note_on,0,0,1,,,,,,,,,0,,,56,88
121320,note_on,81,0,1,,,,,,,,,0,,,61,0
121320,control_change,0,0,1,,,,,,,,,0,64,127,,
121320,control_change,480,0,3,,,,,,,,,2,64,127,,
121351,note_on,31,0,3,,,,,,,,,2,,,37,0
121400,note_on,80,0,1,,,,,,,,,0,,,56,0
121400,note_on,0,0,1,,,,,,,,,0,,,61,62
121479,note_on,128,0,3,,,,,,,,,2,,,44,62
121479,note_on,79,0,1,,,,,,,,,0,,,61,0
121479,note_on,0,0,1,,,,,,,,,0,,,68,62
121511,note_on,32,0,3,,,,,,,,,2,,,44,0
121560,note_on,0,0,1,,,,,,,,,0,,,68,62
121560,note_on,81,0,1,,,,,,,,,0,,,68,0
121640,note_on,0,0,1,,,,,,,,,0,,,73,62
121640,note_on,129,0,3,,,,,,,,,2,,,53,62
121640,note_on,80,0,1,,,,,,,,,0,,,68,0
121672,note_on,32,0,3,,,,,,,,,2,,,53,0
121719,note_on,0,0,1,,,,,,,,,0,,,80,62
121719,note_on,79,0,1,,,,,,,,,0,,,73,0
121800,note_on,81,0,1,,,,,,,,,0,,,80,0
121800,note_on,0,0,1,,,,,,,,,0,,,82,62
121800,note_on,128,0,3,,,,,,,,,2,,,58,88
121880,note_on,0,0,1,,,,,,,,,0,,,73,62
121880,note_on,80,0,1,,,,,,,,,0,,,82,0
121959,note_on,0,0,3,,,,,,,,,2,,,53,62
121959,note_on,0,0,1,,,,,,,,,0,,,70,62
121959,note_on,159,0,3,,,,,,,,,2,,,58,0
121959,note_on,79,0,1,,,,,,,,,0,,,73,0
122040,note_on,0,0,1,,,,,,,,,0,,,70,62
122040,note_on,81,0,1,,,,,,,,,0,,,70,0
122120,note_on,161,0,3,,,,,,,,,2,,,53,0
122120,note_on,80,0,1,,,,,,,,,0,,,70,0
122120,control_change,0,0,3,,,,,,,,,2,64,0,,
122120,note_on,0,0,3,,,,,,,,,2,,,49,62
122120,note_on,0,0,1,,,,,,,,,0,,,61,62
122199,note_on,79,0,1,,,,,,,,,0,,,61,0
122199,control_change,0,0,1,,,,,,,,,0,64,0,,
122199,note_on,0,0,1,,,,,,,,,0,,,58,62
122280,control_change,0,0,1,,,,,,,,,0,64,127,,
122280,note_on,0,0,3,,,,,,,,,2,,,37,62
122280,control_change,0,0,3,,,,,,,,,2,64,127,,
122280,note_on,160,0,3,,,,,,,,,2,,,49,0
122280,note_on,0,0,1,,,,,,,,,0,,,61,88
122280,note_on,81,0,1,,,,,,,,,0,,,58,0
122311,note_on,31,0,3,,,,,,,,,2,,,37,0
122360,note_on,0,0,1,,,,,,,,,0,,,68,62
122360,note_on,80,0,1,,,,,,,,,0,,,61,0
122439,note_on,79,0,1,,,,,,,,,0,,,68,0
122439,note_on,0,0,1,,,,,,,,,0,,,73,62
122439,note_on,128,0,3,,,,,,,,,2,,,44,62
122471,note_on,32,0,3,,,,,,,,,2,,,44,0
122520,note_on,0,0,1,,,,,,,,,0,,,73,62
122520,note_on,81,0,1,,,,,,,,,0,,,73,0
122600,note_on,129,0,3,,,,,,,,,2,,,53,62
122600,note_on,80,0,1,,,,,,,,,0,,,73,0
122600,note_on,0,0,1,,,,,,,,,0,,,80,62
122632,note_on,32,0,3,,,,,,,,,2,,,53,0
122679,note_on,0,0,1,,,,,,,,,0,,,85,62
122679,note_on,79,0,1,,,,,,,,,0,,,80,0
122760,note_on,128,0,3,,,,,,,,,2,,,63,88
122760,note_on,81,0,1,,,,,,,,,0,,,85,0
122760,note_on,0,0,1,,,,,,,,,0,,,87,62
122840,note_on,0,0,1,,,,,,,,,0,,,82,62
122840,note_on,80,0,1,,,,,,,,,0,,,87,0
122919,note_on,0,0,1,,,,,,,,,0,,,75,62
122919,note_on,79,0,1,,,,,,,,,0,,,82,0
122919,note_on,0,0,3,,,,,,,,,2,,,58,62
122919,note_on,159,0,3,,,,,,,,,2,,,63,0
123000,note_on,0,0,1,,,,,,,,,0,,,75,62
123000,note_on,81,0,1,,,,,,,,,0,,,75,0
123080,control_change,0,0,3,,,,,,,,,2,64,0,,
123080,note_on,0,0,3,,,,,,,,,2,,,54,62
123080,note_on,161,0,3,,,,,,,,,2,,,58,0
123080,note_on,80,0,1,,,,,,,,,0,,,75,0
123080,note_on,0,0,1,,,,,,,,,0,,,70,62
123159,control_change,0,0,1,,,,,,,,,0,64,0,,
123159,note_on,79,0,1,,,,,,,,,0,,,70,0
123159,note_on,0,0,1,,,,,,,,,0,,,63,62
123240,note_on,81,0,1,,,,,,,,,0,,,63,0
123240,control_change,0,0,1,,,,,,,,,0,64,127,,
123240,note_on,160,0,3,,,,,,,,,2,,,54,0
123240,control_change,0,0,3,,,,,,,,,2,64,127,,
123240,note_on,0,0,3,,,,,,,,,2,,,37,62
123240,note_on,0,0,1,,,,,,,,,0,,,65,88
123271,note_on,31,0,3,,,,,,,,,2,,,37,0
123320,note_on,80,0,1,,,,,,,,,0,,,65,0
123320,note_on,0,0,1,,,,,,,,,0,,,70,62
123399,note_on,128,0,3,,,,,,,,,2,,,46,62
123399,note_on,79,0,1,,,,,,,,,0,,,70,0
123399,note_on,0,0,1,,,,,,,,,0,,,77,62
123431,note_on,32,0,3,,,,,,,,,2,,,46,0
123480,note_on,81,0,1,,,,,,,,,0,,,77,0
123480,note_on,0,0,1,,,,,,,,,0,,,77,62
123560,note_on,0,0,1,,,,,,,,,0,,,82,62
123560,note_on,80,0,1,,,,,,,,,0,,,77,0
123560,note_on,129,0,3,,,,,,,,,2,,,54,62
123592,note_on,32,0,3,,,,,,,,,2,,,54,0
123639,note_on,0,0,1,,,,,,,,,0,,,89,62
123639,note_on,79,0,1,,,,,,,,,0,,,82,0
123720,note_on,128,0,3,,,,,,,,,2,,,63,88
123720,note_on,0,0,1,,,,,,,,,0,,,87,62
123720,note_on,81,0,1,,,,,,,,,0,,,89,0
123800,note_on,80,0,1,,,,,,,,,0,,,87,0
123800,note_on,0,0,1,,,,,,,,,0,,,82,62
123879,note_on,159,0,3,,,,,,,,,2,,,63,0
123879,note_on,0,0,3,,,,,,,,,2,,,58,62
123879,note_on,0,0,1,,,,,,,,,0,,,75,62
123879,note_on,79,0,1,,,,,,,,,0,,,82,0
123960,note_on,0,0,1,,,,,,,,,0,,,75,62
123960,note_on,81,0,1,,,,,,,,,0,,,75,0
124040,note_on,161,0,3,,,,,,,,,2,,,58,0
124040,control_change,0,0,3,,,,,,,,,2,64,0,,
124040,note_on,0,0,1,,,,,,,,,0,,,70,62
124040,note_on,0,0,3,,,,,,,,,2,,,54,62
124040,note_on,80,0,1,,,,,,,,,0,,,75,0
124119,note_on,79,0,1,,,,,,,,,0,,,70,0
124119,note_on,0,0,1,,,,,,,,,0,,,63,62
124119,control_change,0,0,1,,,,,,,,,0,64,0,,
124200,note_on,0,0,1,,,,,,,,,0,,,58,88
124200,control_change,0,0,3,,,,,,,,,2,64,127,,
124200,note_on,81,0,1,,,,,,,,,0,,,63,0
124200,note_on,0,0,3,,,,,,,,,2,,,37,62
124200,note_on,160,0,3,,,,,,,,,2,,,54,0
124200,control_change,0,0,1,,,,,,,,,0,64,127,,
124231,note_on,31,0,3,,,,,,,,,2,,,37,0
124280,note_on,80,0,1,,,,,,,,,0,,,58,0
124280,note_on,0,0,1,,,,,,,,,0,,,63,62
124359,note_on,0,0,1,,,,,,,,,0,,,70,62
124359,note_on,128,0,3,,,,,,,,,2,,,46,62
124359,note_on,79,0,1,,,,,,,,,0,,,63,0
124391,note_on,32,0,3,,,,,,,,,2,,,46,0
124440,note_on,81,0,1,,,,,,,,,0,,,70,0
124440,note_on,0,0,1,,,,,,,,,0,,,70,62
124520,note_on,129,0,3,,,,,,,,,2,,,54,62
124520,note_on,0,0,1,,,,,,,,,0,,,75,62
124520,note_on,80,0,1,,,,,,,,,0,,,70,0
124552,note_on,32,0,3,,,,,,,,,2,,,54,0
124599,note_on,79,0,1,,,,,,,,,0,,,75,0
124599,note_on,0,0,1,,,,,,,,,0,,,82,62
124680,note_on,128,0,3,,,,,,,,,2,,,61,88
124680,note_on,81,0,1,,,,,,,,,0,,,82,0
124680,note_on,0,0,1,,,,,,,,,0,,,85,62
124760,note_on,0,0,1,,,,,,,,,0,,,80,62
124760,note_on,80,0,1,,,,,,,,,0,,,85,0
124839,note_on,0,0,1,,,,,,,,,0,,,73,62
124839,note_on,159,0,3,,,,,,,,,2,,,61,0
124839,note_on,79,0,1,,,,,,,,,0,,,80,0
124839,note_on,0,0,3,,,,,,,,,2,,,56,62
124920,note_on,0,0,1,,,,,,,,,0,,,73,62
124920,note_on,81,0,1,,,,,,,,,0,,,73,0
125000,note_on,0,0,3,,,,,,,,,2,,,53,62
125000,note_on,80,0,1,,,,,,,,,0,,,73,0
125000,control_change,0,0,3,,,,,,,,,2,64,0,,
125000,note_on,0,0,1,,,,,,,,,0,,,68,62
125000,note_on,161,0,3,,,,,,,,,2,,,56,0
125079,note_on,0,0,1,,,,,,,,,0,,,61,62
125079,control_change,0,0,1,,,,,,,,,0,64,0,,
125079,note_on,79,0,1,,,,,,,,,0,,,68,0
125160,note_on,0,0,1,,,,,,,,,0,,,56,62
125160,note_on,160,0,3,,,,,,,,,2,,,53,0
125160,note_on,81,0,1,,,,,,,,,0,,,61,0
125160,control_change,0,0,3,,,,,,,,,2,64,127,,
125160,control_change,0,0,1,,,,,,,,,0,64,127,,
125160,note_on,0,0,3,,,,,,,,,2,,,37,62
125191,note_on,31,0,3,,,,,,,,,2,,,37,0
125240,note_on,0,0,1,,,,,,,,,0,,,61,62
125240,note_on,80,0,1,,,,,,,,,0,,,56,0
125319,note_on,128,0,3,,,,,,,,,2,,,44,62
125319,note_on,79,0,1,,,,,,,,,0,,,61,0
125319,note_on,0,0,1,,,,,,,,,0,,,68,62
125351,note_on,32,0,3,,,,,,,,,2,,,44,0
125400,note_on,0,0,1,,,,,,,,,0,,,61,62
125400,note_on,81,0,1,,,,,,,,,0,,,68,0
125480,note_on,0,0,1,,,,,,,,,0,,,68,62
125480,note_on,80,0,1,,,,,,,,,0,,,61,0
125480,note_on,129,0,3,,,,,,,,,2,,,53,62
125512,note_on,32,0,3,,,,,,,,,2,,,53,0
125559,note_on,0,0,1,,,,,,,,,0,,,73,62
125559,note_on,79,0,1,,,,,,,,,0,,,68,0
125640,note_on,81,0,1,,,,,,,,,0,,,73,0
125640,note_on,128,0,3,,,,,,,,,2,,,56,62
125640,note_on,0,0,1,,,,,,,,,0,,,68,62
125671,note_on,31,0,3,,,,,,,,,2,,,56,0
125720,note_on,0,0,1,,,,,,,,,0,,,73,62
125720,note_on,80,0,1,,,,,,,,,0,,,68,0
125799,note_on,128,0,3,,,,,,,,,2,,,61,62
125799,note_on,0,0,1,,,,,,,,,0,,,80,62
125799,note_on,79,0,1,,,,,,,,,0,,,73,0
125831,note_on,32,0,3,,,,,,,,,2,,,61,0
125880,note_on,81,0,1,,,,,,,,,0,,,80,0
125880,note_on,0,0,1,,,,,,,,,0,,,73,62
125960,note_on,0,0,1,,,,,,,,,0,,,80,62
125960,note_on,80,0,1,,,,,,,,,0,,,73,0
125960,note_on,129,0,3,,,,,,,,,2,,,65,62
125992,note_on,32,0,3,,,,,,,,,2,,,65,0
126039,note_on,79,0,1,,,,,,,,,0,,,80,0
126039,note_on,0,0,1,,,,,,,,,0,,,85,62
126120,note_on,0,0,1,,,,,,,,,0,,,80,62
126120,note_on,81,0,1,,,,,,,,,0,,,85,0
126120,note_on,128,0,3,,,,,,,,,2,,,68,62
126151,note_on,31,0,3,,,,,,,,,2,,,68,0
126200,note_on,0,0,1,,,,,,,,,0,,,85,62
126200,note_on,80,0,1,,,,,,,,,0,,,80,0
126279,note_on,128,0,3,,,,,,,,,2,,,73,62
126279,note_on,79,0,1,,,,,,,,,0,,,85,0
126279,note_on,0,0,1,,,,,,,,,0,,,92,62
126311,note_on,32,0,3,,,,,,,,,2,,,73,0
126360,note_on,81,0,1,,,,,,,,,0,,,92,0
126360,note_on,0,0,1,,,,,,,,,0,,,85,62
126440,note_on,0,0,1,,,,,,,,,0,,,92,62
126440,note_on,80,0,1,,,,,,,,,0,,,85,0
126440,note_on,129,0,3,,,,,,,,,2,,,77,62
126472,note_on,32,0,3,,,,,,,,,2,,,77,0
126519,note_on,0,0,1,,,,,,,,,0,,,97,62
126519,note_on,79,0,1,,,,,,,,,0,,,92,0
126600,note_on,81,0,1,,,,,,,,,0,,,97,0
126600,note_on,0,0,1,,,,,,,,,0,,,92,62
126600,control_change,128,0,3,,,,,,,,,2,64,0,,
126680,note_on,80,0,1,,,,,,,,,0,,,92,0
126680,note_on,0,0,1,,,,,,,,,0,,,85,62
126759,note_on,79,0,1,,,,,,,,,0,,,85,0
126759,note_on,0,0,1,,,,,,,,,0,,,80,62
126840,note_on,0,0,1,,,,,,,,,0,,,73,62
126840,note_on,81,0,1,,,,,,,,,0,,,80,0
126920,note_on,80,0,1,,,,,,,,,0,,,73,0
126920,note_on,0,0,1,,,,,,,,,0,,,68,62
126999,note_on,0,0,1,,,,,,,,,0,,,61,62
126999,note_on,79,0,1,,,,,,,,,0,,,68,0
126999,control_change,0,0,1,,,,,,,,,0,64,0,,
127080,control_change,480,0,3,,,,,,,,,2,64,127,,
127080,note_on,0,0,3,,,,,,,,,2,,,45,75
127080,control_change,0,0,1,,,,,,,,,0,64,127,,
127080,note_on,81,0,1,,,,,,,,,0,,,61,0
127080,note_on,0,0,1,,,,,,,,,0,,,66,101
127111,note_on,31,0,3,,,,,,,,,2,,,45,0
127160,note_on,80,0,1,,,,,,,,,0,,,66,0
127160,note_on,0,0,1,,,,,,,,,0,,,72,75
127239,note_on,0,0,1,,,,,,,,,0,,,78,75
127239,note_on,128,0,3,,,,,,,,,2,,,51,75
127239,note_on,79,0,1,,,,,,,,,0,,,72,0
127271,note_on,32,0,3,,,,,,,,,2,,,51,0
127320,note_on,81,0,1,,,,,,,,,0,,,78,0
127320,note_on,0,0,1,,,,,,,,,0,,,78,75
127400,note_on,80,0,1,,,,,,,,,0,,,78,0
127400,note_on,0,0,1,,,,,,,,,0,,,84,75
127400,note_on,129,0,3,,,,,,,,,2,,,60,75
127432,note_on,32,0,3,,,,,,,,,2,,,60,0
127479,note_on,79,0,1,,,,,,,,,0,,,84,0
127479,note_on,0,0,1,,,,,,,,,0,,,90,75
127560,note_on,81,0,1,,,,,,,,,0,,,90,0
127560,note_on,0,0,1,,,,,,,,,0,,,89,75
127560,note_on,128,0,3,,,,,,,,,2,,,65,101
127640,note_on,80,0,1,,,,,,,,,0,,,89,0
127640,note_on,0,0,1,,,,,,,,,0,,,84,75
127719,note_on,0,0,3,,,,,,,,,2,,,60,75
127719,note_on,79,0,1,,,,,,,,,0,,,84,0
127719,note_on,159,0,3,,,,,,,,,2,,,65,0
127719,note_on,0,0,1,,,,,,,,,0,,,77,75
127800,note_on,0,0,1,,,,,,,,,0,,,77,75
127800,note_on,81,0,1,,,,,,,,,0,,,77,0
127880,control_change,0,0,3,,,,,,,,,2,64,0,,
127880,note_on,80,0,1,,,,,,,,,0,,,77,0
127880,note_on,0,0,3,,,,,,,,,2,,,57,75
127880,note_on,161,0,3,,,,,,,,,2,,,60,0
127880,note_on,0,0,1,,,,,,,,,0,,,72,75
127959,control_change,0,0,1,,,,,,,,,0,64,0,,
127959,note_on,0,0,1,,,,,,,,,0,,,65,75
127959,note_on,79,0,1,,,,,,,,,0,,,72,0
128040,note_on,0,0,1,,,,,,,,,0,,,60,88
128040,note_on,81,0,1,,,,,,,,,0,,,65,0
128040,control_change,0,0,1,,,,,,,,,0,64,127,,
128040,control_change,0,0,3,,,,,,,,,2,64,127,,
128040,note_on,0,0,3,,,,,,,,,2,,,45,62
128040,note_on,160,0,3,,,,,,,,,2,,,57,0
128071,note_on,31,0,3,,,,,,,,,2,,,45,0
128120,note_on,80,0,1,,,,,,,,,0,,,60,0
128120,note_on,0,0,1,,,,,,,,,0,,,65,62
128199,note_on,128,0,3,,,,,,,,,2,,,53,62
128199,note_on,79,0,1,,,,,,,,,0,,,65,0
128199,note_on,0,0,1,,,,,,,,,0,,,72,62
128231,note_on,32,0,3,,,,,,,,,2,,,53,0
128280,note_on,81,0,1,,,,,,,,,0,,,72,0
128280,note_on,0,0,1,,,,,,,,,0,,,72,62
128360,note_on,80,0,1,,,,,,,,,0,,,72,0
128360,note_on,0,0,1,,,,,,,,,0,,,77,62
128360,note_on,129,0,3,,,,,,,,,2,,,60,62
128392,note_on,32,0,3,,,,,,,,,2,,,60,0
128439,note_on,79,0,1,,,,,,,,,0,,,77,0
128439,note_on,0,0,1,,,,,,,,,0,,,84,62
128520,note_on,0,0,1,,,,,,,,,0,,,87,62
128520,note_on,81,0,1,,,,,,,,,0,,,84,0
128520,note_on,128,0,3,,,,,,,,,2,,,63,88
128600,note_on,80,0,1,,,,,,,,,0,,,87,0
128600,note_on,0,0,1,,,,,,,,,0,,,82,62
128679,note_on,159,0,3,,,,,,,,,2,,,63,0
128679,note_on,79,0,1,,,,,,,,,0,,,82,0
128679,note_on,0,0,1,,,,,,,,,0,,,75,62
128679,note_on,0,0,3,,,,,,,,,2,,,54,62
128760,note_on,0,0,1,,,,,,,,,0,,,75,62
128760,note_on,81,0,1,,,,,,,,,0,,,75,0
128840,note_on,80,0,1,,,,,,,,,0,,,75,0
128840,note_on,161,0,3,,,,,,,,,2,,,54,0
128840,note_on,0,0,3,,,,,,,,,2,,,46,62
128840,control_change,0,0,3,,,,,,,,,2,64,0,,
128840,note_on,0,0,1,,,,,,,,,0,,,70,62
128919,note_on,0,0,1,,,,,,,,,0,,,63,62
128919,control_change,0,0,1,,,,,,,,,0,64,0,,
128919,note_on,79,0,1,,,,,,,,,0,,,70,0
129000,control_change,0,0,3,,,,,,,,,2,64,127,,
129000,note_on,0,0,3,,,,,,,,,2,,,46,62
129000,note_on,0,0,1,,,,,,,,,0,,,61,88
129000,note_on,160,0,3,,,,,,,,,2,,,46,0
129000,note_on,81,0,1,,,,,,,,,0,,,63,0
129000,control_change,0,0,1,,,,,,,,,0,64,127,,
129031,note_on,31,0,3,,,,,,,,,2,,,46,0
129080,note_on,0,0,1,,,,,,,,,0,,,65,62
129080,note_on,80,0,1,,,,,,,,,0,,,61,0
129159,note_on,0,0,1,,,,,,,,,0,,,73,62
129159,note_on,79,0,1,,,,,,,,,0,,,65,0
129159,note_on,128,0,3,,,,,,,,,2,,,53,62
129191,note_on,32,0,3,,,,,,,,,2,,,53,0
129240,note_on,0,0,1,,,,,,,,,0,,,73,62
129240,note_on,81,0,1,,,,,,,,,0,,,73,0
129320,note_on,80,0,1,,,,,,,,,0,,,73,0
129320,control_change,129,0,3,,,,,,,,,2,64,0,,
129320,note_on,0,0,3,,,,,,,,,2,,,61,62
129320,note_on,0,0,1,,,,,,,,,0,,,77,62
129352,note_on,32,0,3,,,,,,,,,2,,,61,0
129399,control_change,0,0,1,,,,,,,,,0,64,0,,
129399,note_on,79,0,1,,,,,,,,,0,,,77,0
129399,note_on,0,0,1,,,,,,,,,0,,,85,62
129480,control_change,128,0,3,,,,,,,,,2,64,127,,
129480,note_on,0,0,3,,,,,,,,,2,,,59,75
129480,note_on,0,0,3,,,,,,,,,2,,,62,75
129480,note_on,0,0,3,,,,,,,,,2,,,65,75
129480,control_change,0,0,1,,,,,,,,,0,64,127,,
129480,note_on,81,0,1,,,,,,,,,0,,,85,0
129480,note_on,0,0,1,,,,,,,,,0,,,68,101
129560,note_on,80,0,1,,,,,,,,,0,,,68,0
129560,note_on,0,0,1,,,,,,,,,0,,,71,75
129639,note_on,0,0,3,,,,,,,,,2,,,62,0
129639,note_on,0,0,3,,,,,,,,,2,,,59,0
129639,note_on,0,0,3,,,,,,,,,2,,,54,75
129639,note_on,0,0,1,,,,,,,,,0,,,80,75
129639,note_on,159,0,3,,,,,,,,,2,,,65,0
129639,note_on,79,0,1,,,,,,,,,0,,,71,0
129720,note_on,0,0,1,,,,,,,,,0,,,80,75
129720,note_on,81,0,1,,,,,,,,,0,,,80,0
129800,note_on,0,0,3,,,,,,,,,2,,,42,75
129800,control_change,0,0,3,,,,,,,,,2,64,0,,
129800,note_on,80,0,1,,,,,,,,,0,,,80,0
129800,note_on,161,0,3,,,,,,,,,2,,,54,0
129800,note_on,0,0,1,,,,,,,,,0,,,83,75
129879,note_on,79,0,1,,,,,,,,,0,,,83,0
129879,control_change,0,0,1,,,,,,,,,0,64,0,,
129879,note_on,0,0,1,,,,,,,,,0,,,92,75
129960,control_change,0,0,1,,,,,,,,,0,64,127,,
129960,control_change,0,0,3,,,,,,,,,2,64,127,,
129960,note_on,0,0,3,,,,,,,,,2,,,63,75
129960,note_on,0,0,3,,,,,,,,,2,,,58,75
129960,note_on,160,0,3,,,,,,,,,2,,,42,0
129960,note_on,0,0,1,,,,,,,,,0,,,66,101
129960,note_on,81,0,1,,,,,,,,,0,,,92,0
130040,note_on,80,0,1,,,,,,,,,0,,,66,0
130040,note_on,0,0,1,,,,,,,,,0,,,70,75
130119,note_on,0,0,3,,,,,,,,,2,,,58,0
130119,note_on,0,0,3,,,,,,,,,2,,,54,75
130119,note_on,159,0,3,,,,,,,,,2,,,63,0
130119,note_on,0,0,1,,,,,,,,,0,,,78,75
130119,note_on,79,0,1,,,,,,,,,0,,,70,0
130200,note_on,81,0,1,,,,,,,,,0,,,78,0
130200,note_on,0,0,1,,,,,,,,,0,,,78,75
130280,note_on,80,0,1,,,,,,,,,0,,,78,0
130280,note_on,161,0,3,,,,,,,,,2,,,54,0
130280,control_change,0,0,3,,,,,,,,,2,64,0,,
130280,note_on,0,0,3,,,,,,,,,2,,,42,75
130280,note_on,0,0,1,,,,,,,,,0,,,82,75
130359,control_change,0,0,1,,,,,,,,,0,64,0,,
130359,note_on,79,0,1,,,,,,,,,0,,,82,0
130359,note_on,0,0,1,,,,,,,,,0,,,90,75
130440,control_change,0,0,3,,,,,,,,,2,64,127,,
130440,note_on,160,0,3,,,,,,,,,2,,,42,0
130440,control_change,0,0,1,,,,,,,,,0,64,127,,
130440,note_on,0,0,3,,,,,,,,,2,,,53,75
130440,note_on,81,0,1,,,,,,,,,0,,,90,0
130440,note_on,0,0,3,,,,,,,,,2,,,44,75
130440,note_on,0,0,1,,,,,,,,,0,,,56,101
130520,note_on,0,0,1,,,,,,,,,0,,,61,75
130520,note_on,80,0,1,,,,,,,,,0,,,56,0
130599,note_on,0,0,1,,,,,,,,,0,,,68,75
130599,note_on,79,0,1,,,,,,,,,0,,,61,0
130680,note_on,0,0,3,,,,,,,,,2,,,44,0
130680,note_on,240,0,3,,,,,,,,,2,,,53,0
130680,control_change,0,0,3,,,,,,,,,2,64,0,,
130680,note_on,0,0,1,,,,,,,,,0,,,68,75
130680,note_on,81,0,1,,,,,,,,,0,,,68,0
130680,note_on,0,0,3,,,,,,,,,2,,,32,75
130760,note_on,80,0,1,,,,,,,,,0,,,68,0
130760,note_on,0,0,1,,,,,,,,,0,,,73,75
130839,note_on,79,0,1,,,,,,,,,0,,,73,0
130839,control_change,0,0,1,,,,,,,,,0,64,0,,
130839,note_on,0,0,1,,,,,,,,,0,,,80,75
130920,note_on,0,0,3,,,,,,,,,2,,,44,62
130920,note_on,81,0,1,,,,,,,,,0,,,80,0
130920,note_on,240,0,3,,,,,,,,,2,,,32,0
130920,note_on,0,0,1,,,,,,,,,0,,,55,88
130920,control_change,0,0,1,,,,,,,,,0,64,127,,
130920,note_on,0,0,3,,,,,,,,,2,,,52,62
131000,note_on,80,0,1,,,,,,,,,0,,,55,0
131000,note_on,0,0,1,,,,,,,,,0,,,61,62
131079,note_on,79,0,1,,,,,,,,,0,,,61,0
131079,note_on,0,0,1,,,,,,,,,0,,,67,62
131160,note_on,0,0,3,,,,,,,,,2,,,44,75
131160,note_on,0,0,3,,,,,,,,,2,,,53,75
131160,note_on,81,0,1,,,,,,,,,0,,,67,0
131160,note_on,240,0,3,,,,,,,,,2,,,52,0
131160,note_on,0,0,1,,,,,,,,,0,,,56,101
131160,note_on,0,0,3,,,,,,,,,2,,,44,0
131240,note_on,0,0,1,,,,,,,,,0,,,61,75
131240,note_on,80,0,1,,,,,,,,,0,,,56,0
131319,note_on,79,0,1,,,,,,,,,0,,,61,0
131319,note_on,0,0,1,,,,,,,,,0,,,68,75
131319,control_change,0,0,1,,,,,,,,,0,64,0,,
131400,control_change,0,0,1,,,,,,,,,0,64,127,,
131400,control_change,0,0,3,,,,,,,,,2,64,127,,
131400,note_on,0,0,3,,,,,,,,,2,,,60,75
131400,note_on,0,0,3,,,,,,,,,2,,,54,75
131400,note_on,0,0,3,,,,,,,,,2,,,44,75
131400,note_on,0,0,1,,,,,,,,,0,,,65,101
131400,note_on,81,0,1,,,,,,,,,0,,,68,0
131400,note_on,240,0,3,,,,,,,,,2,,,53,0
131400,note_on,0,0,3,,,,,,,,,2,,,44,0
131480,note_on,0,0,1,,,,,,,,,0,,,68,75
131480,note_on,80,0,1,,,,,,,,,0,,,65,0
131559,note_on,0,0,1,,,,,,,,,0,,,68,75
131559,note_on,79,0,1,,,,,,,,,0,,,68,0
131640,note_on,0,0,3,,,,,,,,,2,,,44,0
131640,note_on,0,0,3,,,,,,,,,2,,,54,0
131640,note_on,0,0,1,,,,,,,,,0,,,77,75
131640,note_on,81,0,1,,,,,,,,,0,,,68,0
131640,note_on,240,0,3,,,,,,,,,2,,,60,0
131720,note_on,80,0,1,,,,,,,,,0,,,77,0
131720,note_on,0,0,1,,,,,,,,,0,,,68,75
131799,note_on,79,0,1,,,,,,,,,0,,,68,0
131799,note_on,0,0,1,,,,,,,,,0,,,77,75
131880,note_on,81,0,1,,,,,,,,,0,,,77,0
131880,note_on,0,0,1,,,,,,,,,0,,,77,75
131960,note_on,0,0,1,,,,,,,,,0,,,80,75
131960,note_on,80,0,1,,,,,,,,,0,,,77,0
132039,note_on,79,0,1,,,,,,,,,0,,,80,0
132039,note_on,0,0,1,,,,,,,,,0,,,80,75
132120,note_on,0,0,1,,,,,,,,,0,,,89,75
132120,note_on,81,0,1,,,,,,,,,0,,,80,0
132200,note_on,80,0,1,,,,,,,,,0,,,89,0
132200,note_on,0,0,1,,,,,,,,,0,,,80,75
132279,note_on,0,0,1,,,,,,,,,0,,,89,75
132279,note_on,79,0,1,,,,,,,,,0,,,80,0
132360,note_on,0,0,1,,,,,,,,,0,,,89,75
132360,note_on,81,0,1,,,,,,,,,0,,,89,0
132440,note_on,0,0,1,,,,,,,,,0,,,92,75
132440,note_on,80,0,1,,,,,,,,,0,,,89,0
132519,note_on,79,0,1,,,,,,,,,0,,,92,0
132519,note_on,0,0,1,,,,,,,,,0,,,92,75
132600,note_on,81,0,1,,,,,,,,,0,,,92,0
132600,note_on,0,0,1,,,,,,,,,0,,,101,75
132680,note_on,80,0,1,,,,,,,,,0,,,101,0
132680,note_on,0,0,1,,,,,,,,,0,,,92,75
132759,note_on,79,0,1,,,,,,,,,0,,,92,0
132759,note_on,0,0,1,,,,,,,,,0,,,92,75
132840,note_on,0,0,1,,,,,,,,,0,,,89,75
132840,note_on,81,0,1,,,,,,,,,0,,,92,0
132920,note_on,0,0,1,,,,,,,,,0,,,89,75
132920,note_on,80,0,1,,,,,,,,,0,,,89,0
132999,note_on,79,0,1,,,,,,,,,0,,,89,0
132999,note_on,0,0,1,,,,,,,,,0,,,80,75
133080,note_on,0,0,1,,,,,,,,,0,,,80,75
133080,note_on,81,0,1,,,,,,,,,0,,,80,0
133160,note_on,80,0,1,,,,,,,,,0,,,80,0
133160,note_on,0,0,1,,,,,,,,,0,,,77,75
133239,note_on,0,0,1,,,,,,,,,0,,,77,75
133239,note_on,79,0,1,,,,,,,,,0,,,77,0
133320,note_on,0,0,1,,,,,,,,,0,,,68,75
133320,note_on,81,0,1,,,,,,,,,0,,,77,0
133400,note_on,80,0,1,,,,,,,,,0,,,68,0
133400,note_on,0,0,1,,,,,,,,,0,,,68,75
133479,note_on,0,0,1,,,,,,,,,0,,,65,75
133479,note_on,79,0,1,,,,,,,,,0,,,68,0
133560,note_on,0,0,1,,,,,,,,,0,,,80,75
133560,note_on,81,0,1,,,,,,,,,0,,,65,0
133583,note_on,23,0,1,,,,,,,,,0,,,80,0
133680,note_on,97,0,1,,,,,,,,,0,,,77,75
133703,note_on,23,0,1,,,,,,,,,0,,,77,0
133800,note_on,97,0,1,,,,,,,,,0,,,92,75
133823,note_on,23,0,1,,,,,,,,,0,,,92,0
133920,note_on,97,0,1,,,,,,,,,0,,,89,75
133943,note_on,23,0,1,,,,,,,,,0,,,89,0
134040,note_on,97,0,1,,,,,,,,,0,,,104,75
134520,note_on,480,0,1,,,,,,,,,0,,,104,0
135240,control_change,3600,0,3,,,,,,,,,2,64,0,,
135240,control_change,720,0,1,,,,,,,,,0,64,0,,
135720,note_on,0,0,1,,,,,,,,,0,,,60,75
135720,note_on,0,0,1,,,,,,,,,0,,,68,75
135720,note_on,33000,0,2,,,,,,,,,1,,,65,75
135720,note_on,480,0,3,,,,,,,,,2,,,32,75
135720,note_on,480,0,1,,,,,,,,,0,,,54,75
135720,note_on,0,0,3,,,,,,,,,2,,,44,75
136080,note_on,360,0,2,,,,,,,,,1,,,65,0
136080,note_on,0,0,2,,,,,,,,,1,,,63,75
136200,note_on,0,0,3,,,,,,,,,2,,,32,0
136200,note_on,480,0,3,,,,,,,,,2,,,44,0
136200,note_on,480,0,1,,,,,,,,,0,,,68,0
136200,control_change,0,0,3,,,,,,,,,2,64,127,,
136200,note_on,120,0,2,,,,,,,,,1,,,63,0
136200,note_on,0,0,1,,,,,,,,,0,,,60,0
136200,note_on,0,0,3,,,,,,,,,2,,,37,75
136200,note_on,0,0,1,,,,,,,,,0,,,54,0
136280,note_on,80,0,3,,,,,,,,,2,,,37,0
136280,note_on,0,0,3,,,,,,,,,2,,,44,75
136359,note_on,79,0,3,,,,,,,,,2,,,44,0
136359,note_on,0,0,3,,,,,,,,,2,,,49,75
136440,note_on,81,0,3,,,,,,,,,2,,,49,0
136440,note_on,0,0,3,,,,,,,,,2,,,53,75
136520,note_on,0,0,3,,,,,,,,,2,,,61,75
136520,note_on,80,0,3,,,,,,,,,2,,,53,0
136599,note_on,0,0,3,,,,,,,,,2,,,65,75
136599,note_on,79,0,3,,,,,,,,,2,,,61,0
136680,note_on,81,0,3,,,,,,,,,2,,,65,0
136680,note_on,0,0,3,,,,,,,,,2,,,68,75
136760,note_on,80,0,3,,,,,,,,,2,,,68,0
136760,note_on,0,0,3,,,,,,,,,2,,,65,75
136839,note_on,0,0,3,,,,,,,,,2,,,61,75
136839,note_on,79,0,3,,,,,,,,,2,,,65,0
136920,note_on,0,0,3,,,,,,,,,2,,,53,75
136920,note_on,81,0,3,,,,,,,,,2,,,61,0
137000,note_on,80,0,3,,,,,,,,,2,,,53,0
137000,note_on,0,0,3,,,,,,,,,2,,,49,75
137079,control_change,0,0,3,,,,,,,,,2,64,0,,
137079,note_on,0,0,3,,,,,,,,,2,,,44,75
137079,note_on,79,0,3,,,,,,,,,2,,,49,0
137160,control_change,0,0,3,,,,,,,,,2,64,127,,
137160,note_on,0,0,3,,,,,,,,,2,,,37,75
137160,note_on,81,0,3,,,,,,,,,2,,,44,0
137240,note_on,0,0,3,,,,,,,,,2,,,47,75
137240,note_on,80,0,3,,,,,,,,,2,,,37,0
137319,note_on,79,0,3,,,,,,,,,2,,,47,0
137319,note_on,0,0,3,,,,,,,,,2,,,49,75
137400,note_on,0,0,3,,,,,,,,,2,,,53,62
137400,note_on,81,0,3,,,,,,,,,2,,,49,0
137480,note_on,80,0,3,,,,,,,,,2,,,53,0
137480,note_on,0,0,3,,,,,,,,,2,,,56,62
137559,note_on,0,0,3,,,,,,,,,2,,,61,62
137559,note_on,79,0,3,,,,,,,,,2,,,56,0
137640,note_on,0,0,1,,,,,,,,,0,,,61,75
137640,note_on,0,0,1,,,,,,,,,0,,,65,75
137640,control_change,1440,0,1,,,,,,,,,0,64,127,,
137640,note_on,81,0,3,,,,,,,,,2,,,61,0
137687,note_on,47,0,1,,,,,,,,,0,,,65,0
137687,note_on,0,0,1,,,,,,,,,0,,,61,0
137720,note_on,80,0,3,,,,,,,,,2,,,61,62
137799,note_on,0,0,3,,,,,,,,,2,,,56,62
137799,note_on,79,0,3,,,,,,,,,2,,,61,0
137880,note_on,0,0,3,,,,,,,,,2,,,53,62
137880,note_on,81,0,3,,,,,,,,,2,,,56,0
137880,control_change,193,0,1,,,,,,,,,0,64,0,,
137960,note_on,80,0,3,,,,,,,,,2,,,53,0
137960,note_on,0,0,3,,,,,,,,,2,,,49,62
138039,note_on,0,0,3,,,,,,,,,2,,,47,62
138039,note_on,79,0,3,,,,,,,,,2,,,49,0
138039,control_change,0,0,3,,,,,,,,,2,64,0,,
138120,note_on,0,0,3,,,,,,,,,2,,,37,62
138120,note_on,0,0,1,,,,,,,,,0,,,62,75
138120,note_on,0,0,1,,,,,,,,,0,,,66,75
138120,control_change,0,0,3,,,,,,,,,2,64,127,,
138120,note_on,35400,0,4,,,,,,,,,3,,,37,88
138120,control_change,240,0,1,,,,,,,,,0,64,127,,
138120,note_on,81,0,3,,,,,,,,,2,,,47,0
138167,note_on,47,0,1,,,,,,,,,0,,,66,0
138167,note_on,0,0,1,,,,,,,,,0,,,62,0
138188,note_on,68,0,4,,,,,,,,,3,,,37,0
138200,note_on,0,0,3,,,,,,,,,2,,,45,62
138200,note_on,80,0,3,,,,,,,,,2,,,37,0
138279,note_on,0,0,3,,,,,,,,,2,,,50,62
138279,note_on,79,0,3,,,,,,,,,2,,,45,0
138360,note_on,0,0,3,,,,,,,,,2,,,54,62
138360,note_on,81,0,3,,,,,,,,,2,,,50,0
138440,note_on,0,0,3,,,,,,,,,2,,,57,62
138440,note_on,80,0,3,,,,,,,,,2,,,54,0
138519,note_on,0,0,3,,,,,,,,,2,,,62,62
138519,note_on,79,0,3,,,,,,,,,2,,,57,0
138600,note_on,81,0,3,,,,,,,,,2,,,62,0
138600,note_on,433,0,1,,,,,,,,,0,,,66,75
138600,note_on,0,0,1,,,,,,,,,0,,,69,75
138647,note_on,47,0,1,,,,,,,,,0,,,69,0
138647,note_on,0,0,1,,,,,,,,,0,,,66,0
138680,note_on,80,0,3,,,,,,,,,2,,,62,62
138759,note_on,0,0,3,,,,,,,,,2,,,57,62
138759,note_on,79,0,3,,,,,,,,,2,,,62,0
138840,note_on,81,0,3,,,,,,,,,2,,,57,0
138840,note_on,0,0,3,,,,,,,,,2,,,54,62
138840,control_change,193,0,1,,,,,,,,,0,64,0,,
138920,note_on,0,0,3,,,,,,,,,2,,,50,62
138920,note_on,80,0,3,,,,,,,,,2,,,54,0
138999,note_on,0,0,3,,,,,,,,,2,,,45,62
138999,note_on,79,0,3,,,,,,,,,2,,,50,0
138999,control_change,0,0,3,,,,,,,,,2,64,0,,
139080,control_change,240,0,1,,,,,,,,,0,64,127,,
139080,note_on,81,0,3,,,,,,,,,2,,,45,0
139080,note_on,0,0,1,,,,,,,,,0,,,67,75
139080,note_on,0,0,1,,,,,,,,,0,,,71,75
139080,note_on,0,0,3,,,,,,,,,2,,,37,62
139080,control_change,0,0,3,,,,,,,,,2,64,127,,
139127,note_on,47,0,1,,,,,,,,,0,,,71,0
139127,note_on,0,0,1,,,,,,,,,0,,,67,0
139148,note_on,0,0,3,,,,,,,,,2,,,47,62
139148,note_on,68,0,3,,,,,,,,,2,,,37,0
139217,note_on,69,0,3,,,,,,,,,2,,,47,0
139217,note_on,0,0,3,,,,,,,,,2,,,50,62
139285,note_on,68,0,3,,,,,,,,,2,,,50,0
139285,note_on,0,0,3,,,,,,,,,2,,,55,62
139354,note_on,69,0,3,,,,,,,,,2,,,55,0
139354,note_on,0,0,3,,,,,,,,,2,,,59,62
139422,note_on,0,0,3,,,,,,,,,2,,,62,62
139422,note_on,68,0,3,,,,,,,,,2,,,59,0
139491,note_on,69,0,3,,,,,,,,,2,,,62,0
139491,note_on,0,0,3,,,,,,,,,2,,,67,62
139560,note_on,0,0,1,,,,,,,,,0,,,74,75
139560,note_on,433,0,1,,,,,,,,,0,,,71,75
139560,note_on,69,0,3,,,,,,,,,2,,,67,0
139607,note_on,47,0,1,,,,,,,,,0,,,74,0
139607,note_on,0,0,1,,,,,,,,,0,,,71,0
139628,note_on,68,0,3,,,,,,,,,2,,,67,62
139697,note_on,0,0,3,,,,,,,,,2,,,62,62
139697,note_on,69,0,3,,,,,,,,,2,,,67,0
139765,note_on,0,0,3,,,,,,,,,2,,,59,62
139765,note_on,68,0,3,,,,,,,,,2,,,62,0
139800,control_change,193,0,1,,,,,,,,,0,64,0,,
139834,note_on,69,0,3,,,,,,,,,2,,,59,0
139834,note_on,0,0,3,,,,,,,,,2,,,55,62
139902,note_on,68,0,3,,,,,,,,,2,,,55,0
139902,note_on,0,0,3,,,,,,,,,2,,,50,62
139971,control_change,0,0,3,,,,,,,,,2,64,0,,
139971,note_on,69,0,3,,,,,,,,,2,,,50,0
139971,note_on,0,0,3,,,,,,,,,2,,,47,62
140040,note_on,69,0,3,,,,,,,,,2,,,47,0
140040,control_change,0,0,3,,,,,,,,,2,64,127,,
140040,note_on,240,0,1,,,,,,,,,0,,,73,101
140040,note_on,0,0,3,,,,,,,,,2,,,37,62
140040,note_on,0,0,1,,,,,,,,,0,,,77,101
140108,note_on,68,0,3,,,,,,,,,2,,,37,0
140108,note_on,0,0,3,,,,,,,,,2,,,44,62
140177,note_on,0,0,3,,,,,,,,,2,,,49,62
140177,note_on,69,0,3,,,,,,,,,2,,,44,0
140245,note_on,0,0,3,,,,,,,,,2,,,53,62
140245,note_on,68,0,3,,,,,,,,,2,,,49,0
140314,note_on,69,0,3,,,,,,,,,2,,,53,0
140314,note_on,0,0,3,,,,,,,,,2,,,56,62
140382,note_on,0,0,3,,,,,,,,,2,,,61,62
140382,note_on,68,0,3,,,,,,,,,2,,,56,0
140451,note_on,69,0,3,,,,,,,,,2,,,61,0
140451,note_on,0,0,3,,,,,,,,,2,,,65,62
140520,note_on,0,0,3,,,,,,,,,2,,,68,62
140520,note_on,69,0,3,,,,,,,,,2,,,65,0
140588,note_on,68,0,3,,,,,,,,,2,,,68,0
140588,note_on,0,0,3,,,,,,,,,2,,,65,62
140657,note_on,69,0,3,,,,,,,,,2,,,65,0
140657,note_on,0,0,3,,,,,,,,,2,,,61,62
140725,note_on,68,0,3,,,,,,,,,2,,,61,0
140725,note_on,0,0,3,,,,,,,,,2,,,56,62
140794,note_on,69,0,3,,,,,,,,,2,,,56,0
140794,note_on,0,0,3,,,,,,,,,2,,,53,62
140862,note_on,0,0,3,,,,,,,,,2,,,49,62
140862,note_on,68,0,3,,,,,,,,,2,,,53,0
140931,note_on,69,0,3,,,,,,,,,2,,,49,0
140931,note_on,0,0,3,,,,,,,,,2,,,44,62
140931,control_change,0,0,3,,,,,,,,,2,64,0,,
141000,note_on,69,0,3,,,,,,,,,2,,,44,0
141000,control_change,0,0,3,,,,,,,,,2,64,127,,
141000,note_on,0,0,3,,,,,,,,,2,,,37,62
141060,note_on,60,0,3,,,,,,,,,2,,,37,0
141060,note_on,0,0,3,,,,,,,,,2,,,53,62
141120,note_on,60,0,3,,,,,,,,,2,,,53,0
141120,note_on,0,0,3,,,,,,,,,2,,,56,62
141180,note_on,0,0,3,,,,,,,,,2,,,59,62
141180,note_on,60,0,3,,,,,,,,,2,,,56,0
141240,note_on,60,0,3,,,,,,,,,2,,,59,0
141240,note_on,0,0,3,,,,,,,,,2,,,61,62
141300,note_on,0,0,3,,,,,,,,,2,,,65,62
141300,note_on,60,0,3,,,,,,,,,2,,,61,0
141360,note_on,0,0,3,,,,,,,,,2,,,68,62
141360,note_on,60,0,3,,,,,,,,,2,,,65,0
141420,note_on,0,0,3,,,,,,,,,2,,,73,62
141420,note_on,60,0,3,,,,,,,,,2,,,68,0
141480,control_change,0,0,1,,,,,,,,,0,64,127,,
141480,note_on,0,0,1,,,,,,,,,0,,,77,75
141480,note_on,0,0,1,,,,,,,,,0,,,73,0
141480,note_on,1440,0,1,,,,,,,,,0,,,77,0
141480,note_on,0,0,1,,,,,,,,,0,,,73,75
141480,note_on,60,0,3,,,,,,,,,2,,,73,0
141527,note_on,47,0,1,,,,,,,,,0,,,77,0
141527,note_on,0,0,1,,,,,,,,,0,,,73,0
141540,note_on,60,0,3,,,,,,,,,2,,,73,62
141600,note_on,0,0,3,,,,,,,,,2,,,68,62
141600,note_on,60,0,3,,,,,,,,,2,,,73,0
141660,note_on,60,0,3,,,,,,,,,2,,,68,0
141660,note_on,0,0,3,,,,,,,,,2,,,65,62
141720,note_on,0,0,3,,,,,,,,,2,,,61,62
141720,note_on,60,0,3,,,,,,,,,2,,,65,0
141720,control_change,193,0,1,,,,,,,,,0,64,0,,
141780,note_on,0,0,3,,,,,,,,,2,,,59,62
141780,note_on,60,0,3,,,,,,,,,2,,,61,0
141840,note_on,60,0,3,,,,,,,,,2,,,59,0
141840,note_on,0,0,3,,,,,,,,,2,,,56,62
141900,note_on,0,0,3,,,,,,,,,2,,,53,62
141900,note_on,60,0,3,,,,,,,,,2,,,56,0
141900,control_change,0,0,3,,,,,,,,,2,64,0,,
141960,control_change,0,0,3,,,,,,,,,2,64,127,,
141960,control_change,240,0,1,,,,,,,,,0,64,127,,
141960,note_on,0,0,1,,,,,,,,,0,,,78,75
141960,note_on,0,0,1,,,,,,,,,0,,,74,75
141960,note_on,60,0,3,,,,,,,,,2,,,53,0
141960,note_on,0,0,3,,,,,,,,,2,,,49,62
142007,note_on,0,0,1,,,,,,,,,0,,,74,0
142007,note_on,47,0,1,,,,,,,,,0,,,78,0
142028,note_on,68,0,3,,,,,,,,,2,,,49,0
142028,note_on,0,0,3,,,,,,,,,2,,,54,62
142097,note_on,69,0,3,,,,,,,,,2,,,54,0
142097,note_on,0,0,3,,,,,,,,,2,,,57,62
142165,note_on,68,0,3,,,,,,,,,2,,,57,0
142165,note_on,0,0,3,,,,,,,,,2,,,62,62
142234,note_on,69,0,3,,,,,,,,,2,,,62,0
142234,note_on,0,0,3,,,,,,,,,2,,,66,62
142302,note_on,68,0,3,,,,,,,,,2,,,66,0
142302,note_on,0,0,3,,,,,,,,,2,,,69,62
142371,note_on,69,0,3,,,,,,,,,2,,,69,0
142371,note_on,0,0,3,,,,,,,,,2,,,74,62
142440,note_on,433,0,1,,,,,,,,,0,,,78,88
142440,note_on,0,0,1,,,,,,,,,0,,,81,88
142440,note_on,69,0,3,,,,,,,,,2,,,74,0
142487,note_on,0,0,1,,,,,,,,,0,,,78,0
142487,note_on,47,0,1,,,,,,,,,0,,,81,0
142508,note_on,68,0,3,,,,,,,,,2,,,74,75
142577,note_on,69,0,3,,,,,,,,,2,,,74,0
142577,note_on,0,0,3,,,,,,,,,2,,,69,75
142645,note_on,68,0,3,,,,,,,,,2,,,69,0
142645,note_on,0,0,3,,,,,,,,,2,,,66,75
142680,control_change,193,0,1,,,,,,,,,0,64,0,,
142714,note_on,69,0,3,,,,,,,,,2,,,66,0
142714,note_on,0,0,3,,,,,,,,,2,,,62,75
142782,note_on,68,0,3,,,,,,,,,2,,,62,0
142782,note_on,0,0,3,,,,,,,,,2,,,57,75
142851,note_on,69,0,3,,,,,,,,,2,,,57,0
142851,note_on,0,0,3,,,,,,,,,2,,,54,75
142851,control_change,0,0,3,,,,,,,,,2,64,0,,
142920,control_change,0,0,3,,,,,,,,,2,64,127,,
142920,note_on,69,0,3,,,,,,,,,2,,,54,0
142920,control_change,240,0,1,,,,,,,,,0,64,127,,
142920,note_on,0,0,3,,,,,,,,,2,,,49,75
142920,note_on,0,0,1,,,,,,,,,0,,,83,88
142920,note_on,0,0,1,,,,,,,,,0,,,79,88
142967,note_on,47,0,1,,,,,,,,,0,,,83,0
142967,note_on,0,0,1,,,,,,,,,0,,,79,0
142988,note_on,68,0,3,,,,,,,,,2,,,49,0
142988,note_on,0,0,3,,,,,,,,,2,,,59,75
143057,note_on,69,0,3,,,,,,,,,2,,,59,0
143057,note_on,0,0,3,,,,,,,,,2,,,62,75
143125,note_on,0,0,3,,,,,,,,,2,,,67,75
143125,note_on,68,0,3,,,,,,,,,2,,,62,0
143194,note_on,0,0,3,,,,,,,,,2,,,71,75
143194,note_on,69,0,3,,,,,,,,,2,,,67,0
143262,note_on,68,0,3,,,,,,,,,2,,,71,0
143262,note_on,0,0,3,,,,,,,,,2,,,74,75
143331,note_on,0,0,3,,,,,,,,,2,,,79,75
143331,note_on,69,0,3,,,,,,,,,2,,,74,0
143400,note_on,69,0,3,,,,,,,,,2,,,79,0
143400,note_on,433,0,1,,,,,,,,,0,,,83,88
143400,note_on,0,0,1,,,,,,,,,0,,,86,88
143447,note_on,0,0,1,,,,,,,,,0,,,83,0
143447,note_on,47,0,1,,,,,,,,,0,,,86,0
143468,note_on,68,0,3,,,,,,,,,2,,,79,75
143537,note_on,69,0,3,,,,,,,,,2,,,79,0
143537,note_on,0,0,3,,,,,,,,,2,,,74,75
143605,note_on,0,0,3,,,,,,,,,2,,,71,75
143605,note_on,68,0,3,,,,,,,,,2,,,74,0
143640,control_change,193,0,1,,,,,,,,,0,64,0,,
143674,note_on,0,0,3,,,,,,,,,2,,,67,75
143674,note_on,69,0,3,,,,,,,,,2,,,71,0
143742,note_on,68,0,3,,,,,,,,,2,,,67,0
143742,note_on,0,0,3,,,,,,,,,2,,,62,75
143811,note_on,0,0,3,,,,,,,,,2,,,59,75
143811,control_change,0,0,3,,,,,,,,,2,64,0,,
143811,note_on,69,0,3,,,,,,,,,2,,,62,0
143880,control_change,240,0,1,,,,,,,,,0,64,127,,
143880,note_on,0,0,1,,,,,,,,,0,,,73,88
143880,control_change,0,0,3,,,,,,,,,2,64,127,,
143880,note_on,0,0,3,,,,,,,,,2,,,49,75
143880,note_on,69,0,3,,,,,,,,,2,,,59,0
143948,note_on,0,0,3,,,,,,,,,2,,,56,75
143948,note_on,68,0,3,,,,,,,,,2,,,49,0
143960,note_on,0,0,1,,,,,,,,,0,,,80,88
143960,note_on,80,0,1,,,,,,,,,0,,,73,0
144017,note_on,0,0,3,,,,,,,,,2,,,61,75
144017,note_on,69,0,3,,,,,,,,,2,,,56,0
144039,note_on,79,0,1,,,,,,,,,0,,,80,0
144039,note_on,0,0,1,,,,,,,,,0,,,85,88
144085,note_on,0,0,3,,,,,,,,,2,,,65,75
144085,note_on,68,0,3,,,,,,,,,2,,,61,0
144120,note_on,0,0,1,,,,,,,,,0,,,89,88
144120,note_on,81,0,1,,,,,,,,,0,,,85,0
144154,note_on,69,0,3,,,,,,,,,2,,,65,0
144154,note_on,0,0,3,,,,,,,,,2,,,68,75
144222,note_on,68,0,3,,,,,,,,,2,,,68,0
144222,note_on,0,0,3,,,,,,,,,2,,,73,75
144291,note_on,69,0,3,,,,,,,,,2,,,73,0
144291,note_on,0,0,3,,,,,,,,,2,,,77,75
144360,note_on,0,0,3,,,,,,,,,2,,,80,75
144360,note_on,69,0,3,,,,,,,,,2,,,77,0
144428,note_on,0,0,3,,,,,,,,,2,,,77,75
144428,note_on,68,0,3,,,,,,,,,2,,,80,0
144497,note_on,69,0,3,,,,,,,,,2,,,77,0
144497,note_on,0,0,3,,,,,,,,,2,,,73,75
144565,note_on,0,0,3,,,,,,,,,2,,,68,75
144565,note_on,68,0,3,,,,,,,,,2,,,73,0
144634,note_on,69,0,3,,,,,,,,,2,,,68,0
144634,note_on,0,0,3,,,,,,,,,2,,,65,75
144702,note_on,0,0,3,,,,,,,,,2,,,61,75
144702,note_on,68,0,3,,,,,,,,,2,,,65,0
144771,note_on,0,0,3,,,,,,,,,2,,,56,75
144771,control_change,0,0,3,,,,,,,,,2,64,0,,
144771,note_on,69,0,3,,,,,,,,,2,,,61,0
144840,note_on,69,0,3,,,,,,,,,2,,,56,0
144840,note_on,6652,0,4,,,,,,,,,3,,,47,101
144900,control_change,60,0,3,,,,,,,,,2,64,127,,
144900,note_on,0,0,3,,,,,,,,,2,,,56,75
144960,note_on,60,0,3,,,,,,,,,2,,,56,0
144960,note_on,0,0,3,,,,,,,,,2,,,61,75
145020,note_on,0,0,3,,,,,,,,,2,,,65,75
145020,note_on,60,0,3,,,,,,,,,2,,,61,0
145080,note_on,60,0,3,,,,,,,,,2,,,65,0
145080,note_on,0,0,3,,,,,,,,,2,,,68,75
145140,note_on,60,0,3,,,,,,,,,2,,,68,0
145140,note_on,0,0,3,,,,,,,,,2,,,73,75
145200,note_on,60,0,3,,,,,,,,,2,,,73,0
145200,note_on,0,0,3,,,,,,,,,2,,,77,75
145260,note_on,0,0,3,,,,,,,,,2,,,80,75
145260,note_on,60,0,3,,,,,,,,,2,,,77,0
145320,note_on,60,0,3,,,,,,,,,2,,,80,0
145320,note_on,0,0,3,,,,,,,,,2,,,85,75
145380,note_on,0,0,3,,,,,,,,,2,,,80,75
145380,note_on,60,0,3,,,,,,,,,2,,,85,0
145440,note_on,0,0,3,,,,,,,,,2,,,77,75
145440,note_on,60,0,3,,,,,,,,,2,,,80,0
145500,note_on,0,0,3,,,,,,,,,2,,,73,75
145500,note_on,60,0,3,,,,,,,,,2,,,77,0
145560,note_on,0,0,3,,,,,,,,,2,,,68,75
145560,note_on,60,0,3,,,,,,,,,2,,,73,0
145620,note_on,0,0,3,,,,,,,,,2,,,65,75
145620,note_on,60,0,3,,,,,,,,,2,,,68,0
145680,control_change,1560,0,1,,,,,,,,,0,64,0,,
145680,note_on,0,0,3,,,,,,,,,2,,,61,75
145680,note_on,60,0,3,,,,,,,,,2,,,65,0
145740,note_on,60,0,3,,,,,,,,,2,,,61,0
145740,control_change,0,0,3,,,,,,,,,2,64,0,,
145740,note_on,0,0,3,,,,,,,,,2,,,56,75
145800,note_on,0,0,4,,,,,,,,,3,,,46,114
145800,note_on,120,0,1,,,,,,,,,0,,,89,0
145800,control_change,0,0,1,,,,,,,,,0,64,127,,
145800,note_on,60,0,3,,,,,,,,,2,,,56,0
145800,note_on,0,0,1,,,,,,,,,0,,,74,88
145800,note_on,960,0,4,,,,,,,,,3,,,47,0
145853,note_on,0,0,3,,,,,,,,,2,,,53,75
145853,control_change,53,0,3,,,,,,,,,2,64,127,,
145853,note_on,9653,0,2,,,,,,,,,1,,,53,75
145906,note_on,0,0,3,,,,,,,,,2,,,58,75
145906,note_on,53,0,3,,,,,,,,,2,,,53,0
145906,note_on,53,0,2,,,,,,,,,1,,,53,0
145920,note_on,0,0,1,,,,,,,,,0,,,82,88
145920,note_on,120,0,1,,,,,,,,,0,,,74,0
145959,note_on,53,0,3,,,,,,,,,2,,,58,0
145959,note_on,0,0,3,,,,,,,,,2,,,62,75
146013,note_on,54,0,3,,,,,,,,,2,,,62,0
146013,note_on,0,0,3,,,,,,,,,2,,,65,75
146040,note_on,120,0,1,,,,,,,,,0,,,82,0
146040,note_on,0,0,1,,,,,,,,,0,,,89,88
146066,note_on,0,0,3,,,,,,,,,2,,,70,75
146066,note_on,53,0,3,,,,,,,,,2,,,65,0
146120,note_on,54,0,3,,,,,,,,,2,,,70,0
146120,note_on,0,0,3,,,,,,,,,2,,,74,75
146173,note_on,0,0,3,,,,,,,,,2,,,77,75
146173,note_on,53,0,3,,,,,,,,,2,,,74,0
146226,note_on,0,0,3,,,,,,,,,2,,,82,75
146226,note_on,53,0,3,,,,,,,,,2,,,77,0
146280,note_on,54,0,3,,,,,,,,,2,,,82,0
146280,note_on,0,0,3,,,,,,,,,2,,,86,75
146333,note_on,53,0,3,,,,,,,,,2,,,86,0
146333,note_on,0,0,3,,,,,,,,,2,,,82,75
146386,note_on,0,0,3,,,,,,,,,2,,,77,75
146386,note_on,53,0,3,,,,,,,,,2,,,82,0
146439,note_on,0,0,3,,,,,,,,,2,,,74,75
146439,note_on,53,0,3,,,,,,,,,2,,,77,0
146493,note_on,0,0,3,,,,,,,,,2,,,70,75
146493,note_on,54,0,3,,,,,,,,,2,,,74,0
146546,note_on,0,0,3,,,,,,,,,2,,,65,75
146546,note_on,53,0,3,,,,,,,,,2,,,70,0
146600,note_on,0,0,3,,,,,,,,,2,,,62,75
146600,note_on,54,0,3,,,,,,,,,2,,,65,0
146653,note_on,0,0,3,,,,,,,,,2,,,58,75
146653,note_on,53,0,3,,,,,,,,,2,,,62,0
146706,note_on,53,0,3,,,,,,,,,2,,,58,0
146706,control_change,0,0,3,,,,,,,,,2,64,0,,
146706,note_on,0,0,3,,,,,,,,,2,,,53,75
146760,note_on,960,0,4,,,,,,,,,3,,,46,0
146760,note_on,0,0,4,,,,,,,,,3,,,44,114
146760,note_on,54,0,3,,,,,,,,,2,,,53,0
146813,note_on,0,0,3,,,,,,,,,2,,,53,75
146813,control_change,53,0,3,,,,,,,,,2,64,127,,
146866,note_on,53,0,3,,,,,,,,,2,,,53,0
146866,note_on,0,0,3,,,,,,,,,2,,,58,75
146919,note_on,53,0,3,,,,,,,,,2,,,58,0
146919,note_on,0,0,3,,,,,,,,,2,,,62,75
146973,note_on,0,0,3,,,,,,,,,2,,,65,75
146973,note_on,54,0,3,,,,,,,,,2,,,62,0
147026,note_on,0,0,3,,,,,,,,,2,,,70,75
147026,note_on,53,0,3,,,,,,,,,2,,,65,0
147080,note_on,54,0,3,,,,,,,,,2,,,70,0
147080,note_on,0,0,3,,,,,,,,,2,,,74,75
147133,note_on,0,0,3,,,,,,,,,2,,,77,75
147133,note_on,53,0,3,,,,,,,,,2,,,74,0
147186,note_on,53,0,3,,,,,,,,,2,,,77,0
147186,note_on,0,0,3,,,,,,,,,2,,,82,75
147240,note_on,0,0,3,,,,,,,,,2,,,86,75
147240,note_on,54,0,3,,,,,,,,,2,,,82,0
147293,note_on,0,0,3,,,,,,,,,2,,,82,75
147293,note_on,53,0,3,,,,,,,,,2,,,86,0
147346,note_on,53,0,3,,,,,,,,,2,,,82,0
147346,note_on,0,0,3,,,,,,,,,2,,,77,75
147399,note_on,0,0,3,,,,,,,,,2,,,74,75
147399,note_on,53,0,3,,,,,,,,,2,,,77,0
147453,note_on,54,0,3,,,,,,,,,2,,,74,0
147453,note_on,0,0,3,,,,,,,,,2,,,70,75
147506,note_on,0,0,3,,,,,,,,,2,,,65,75
147506,note_on,53,0,3,,,,,,,,,2,,,70,0
147560,note_on,54,0,3,,,,,,,,,2,,,65,0
147560,note_on,0,0,3,,,,,,,,,2,,,62,75
147613,note_on,0,0,3,,,,,,,,,2,,,58,75
147613,note_on,53,0,3,,,,,,,,,2,,,62,0
147660,control_change,0,0,1,,,,,,,,,0,64,0,,
147660,note_on,1620,0,1,,,,,,,,,0,,,89,0
147666,note_on,0,0,3,,,,,,,,,2,,,53,75
147666,control_change,0,0,3,,,,,,,,,2,64,0,,
147666,note_on,53,0,3,,,,,,,,,2,,,58,0
147720,note_on,960,0,4,,,,,,,,,3,,,44,0
147720,note_on,0,0,1,,,,,,,,,0,,,74,88
147720,note_on,0,0,4,,,,,,,,,3,,,43,114
147720,control_change,60,0,1,,,,,,,,,0,64,127,,
147720,note_on,54,0,3,,,,,,,,,2,,,53,0
147773,note_on,0,0,3,,,,,,,,,2,,,55,75
147773,control_change,53,0,3,,,,,,,,,2,64,127,,
147826,note_on,0,0,3,,,,,,,,,2,,,59,75
147826,note_on,53,0,3,,,,,,,,,2,,,55,0
147840,note_on,0,0,1,,,,,,,,,0,,,83,88
147840,note_on,120,0,1,,,,,,,,,0,,,74,0
147879,note_on,0,0,3,,,,,,,,,2,,,62,75
147879,note_on,53,0,3,,,,,,,,,2,,,59,0
147933,note_on,0,0,3,,,,,,,,,2,,,67,75
147933,note_on,54,0,3,,,,,,,,,2,,,62,0
147960,note_on,120,0,1,,,,,,,,,0,,,83,0
147960,note_on,0,0,1,,,,,,,,,0,,,91,114
147960,set_tempo,32880,1,0,,,,,,512821,,,,,,,
147986,note_on,0,0,3,,,,,,,,,2,,,71,75
147986,note_on,53,0,3,,,,,,,,,2,,,67,0
148040,note_on,54,0,3,,,,,,,,,2,,,71,0
148040,note_on,0,0,3,,,,,,,,,2,,,74,75
148093,note_on,0,0,3,,,,,,,,,2,,,79,75
148093,note_on,53,0,3,,,,,,,,,2,,,74,0
148146,note_on,53,0,3,,,,,,,,,2,,,79,0
148146,note_on,0,0,3,,,,,,,,,2,,,83,75
148200,set_tempo,240,1,0,,,,,,526316,,,,,,,
148200,note_on,0,0,3,,,,,,,,,2,,,86,75
148200,note_on,54,0,3,,,,,,,,,2,,,83,0
148253,note_on,53,0,3,,,,,,,,,2,,,86,0
148253,note_on,0,0,3,,,,,,,,,2,,,83,75
148306,note_on,53,0,3,,,,,,,,,2,,,83,0
148306,note_on,0,0,3,,,,,,,,,2,,,79,75
148359,note_on,0,0,3,,,,,,,,,2,,,74,75
148359,note_on,53,0,3,,,,,,,,,2,,,79,0
148413,note_on,54,0,3,,,,,,,,,2,,,74,0
148413,note_on,0,0,3,,,,,,,,,2,,,71,75
148440,set_tempo,240,1,0,,,,,,540541,,,,,,,
148466,note_on,0,0,3,,,,,,,,,2,,,67,75
148466,note_on,53,0,3,,,,,,,,,2,,,71,0
148520,note_on,54,0,3,,,,,,,,,2,,,67,0
148520,note_on,0,0,3,,,,,,,,,2,,,62,75
148573,note_on,0,0,3,,,,,,,,,2,,,59,75
148573,note_on,53,0,3,,,,,,,,,2,,,62,0
148626,control_change,0,0,3,,,,,,,,,2,64,0,,
148626,note_on,53,0,3,,,,,,,,,2,,,59,0
148626,note_on,0,0,3,,,,,,,,,2,,,55,75
148680,note_on,0,0,4,,,,,,,,,3,,,41,114
148680,note_on,960,0,4,,,,,,,,,3,,,43,0
148680,set_tempo,240,1,0,,,,,,560748,,,,,,,
148680,note_on,54,0,3,,,,,,,,,2,,,55,0
148733,note_on,0,0,3,,,,,,,,,2,,,55,75
148733,control_change,53,0,3,,,,,,,,,2,64,127,,
148786,note_on,53,0,3,,,,,,,,,2,,,55,0
148786,note_on,0,0,3,,,,,,,,,2,,,59,75
148839,note_on,53,0,3,,,,,,,,,2,,,59,0
148839,note_on,0,0,3,,,,,,,,,2,,,62,75
148893,note_on,54,0,3,,,,,,,,,2,,,62,0
148893,note_on,0,0,3,,,,,,,,,2,,,67,75
148920,set_tempo,240,1,0,,,,,,594059,,,,,,,
148946,note_on,53,0,3,,,,,,,,,2,,,67,0
148946,note_on,0,0,3,,,,,,,,,2,,,71,75
149000,note_on,54,0,3,,,,,,,,,2,,,71,0
149000,note_on,0,0,3,,,,,,,,,2,,,74,75
149053,note_on,0,0,3,,,,,,,,,2,,,79,75
149053,note_on,53,0,3,,,,,,,,,2,,,74,0
149106,note_on,0,0,3,,,,,,,,,2,,,83,75
149106,note_on,53,0,3,,,,,,,,,2,,,79,0
149160,set_tempo,240,1,0,,,,,,631579,,,,,,,
149160,note_on,0,0,3,,,,,,,,,2,,,86,75
149160,note_on,54,0,3,,,,,,,,,2,,,83,0
149213,note_on,0,0,3,,,,,,,,,2,,,83,75
149213,note_on,53,0,3,,,,,,,,,2,,,86,0
149266,note_on,0,0,3,,,,,,,,,2,,,79,75
149266,note_on,53,0,3,,,,,,,,,2,,,83,0
149319,note_on,0,0,3,,,,,,,,,2,,,74,75
149319,note_on,53,0,3,,,,,,,,,2,,,79,0
149373,note_on,54,0,3,,,,,,,,,2,,,74,0
149373,note_on,0,0,3,,,,,,,,,2,,,71,75
149400,set_tempo,240,1,0,,,,,,674157,,,,,,,
149426,note_on,0,0,3,,,,,,,,,2,,,67,75
149426,note_on,53,0,3,,,,,,,,,2,,,71,0
149480,note_on,54,0,3,,,,,,,,,2,,,67,0
149480,note_on,0,0,3,,,,,,,,,2,,,62,75
149533,note_on,53,0,3,,,,,,,,,2,,,62,0
149533,note_on,0,0,3,,,,,,,,,2,,,59,75
149586,note_on,53,0,3,,,,,,,,,2,,,59,0
149586,note_on,0,0,3,,,,,,,,,2,,,55,75
149586,control_change,0,0,3,,,,,,,,,2,64,0,,
149610,control_change,0,0,1,,,,,,,,,0,64,0,,
149610,note_on,1650,0,1,,,,,,,,,0,,,91,0
149640,note_on,0,0,4,,,,,,,,,3,,,40,114
149640,control_change,30,0,1,,,,,,,,,0,64,127,,
149640,set_tempo,240,1,0,,,,,,740741,,,,,,,
149640,note_on,0,0,1,,,,,,,,,0,,,76,88
149640,note_on,960,0,4,,,,,,,,,3,,,41,0
149640,note_on,54,0,3,,,,,,,,,2,,,55,0
149693,note_on,0,0,3,,,,,,,,,2,,,56,75
149693,control_change,53,0,3,,,,,,,,,2,64,127,,
149746,note_on,0,0,3,,,,,,,,,2,,,59,75
149746,note_on,53,0,3,,,,,,,,,2,,,56,0
149760,note_on,0,0,1,,,,,,,,,0,,,83,88
149760,note_on,120,0,1,,,,,,,,,0,,,76,0
149799,note_on,0,0,3,,,,,,,,,2,,,64,75
149799,note_on,53,0,3,,,,,,,,,2,,,59,0
149853,note_on,0,0,3,,,,,,,,,2,,,68,75
149853,note_on,54,0,3,,,,,,,,,2,,,64,0
149880,note_on,0,0,1,,,,,,,,,0,,,92,114
149880,note_on,120,0,1,,,,,,,,,0,,,83,0
149880,set_tempo,240,1,0,,,,,,769231,,,,,,,
149906,note_on,53,0,3,,,,,,,,,2,,,68,0
149906,note_on,0,0,3,,,,,,,,,2,,,71,75
149960,note_on,0,0,3,,,,,,,,,2,,,76,75
149960,note_on,54,0,3,,,,,,,,,2,,,71,0
150013,note_on,0,0,3,,,,,,,,,2,,,80,75
150013,note_on,53,0,3,,,,,,,,,2,,,76,0
150066,note_on,0,0,3,,,,,,,,,2,,,83,75
150066,note_on,53,0,3,,,,,,,,,2,,,80,0
150120,note_on,54,0,3,,,,,,,,,2,,,83,0
150120,set_tempo,240,1,0,,,,,,800000,,,,,,,
150120,note_on,0,0,3,,,,,,,,,2,,,88,75
150173,note_on,0,0,3,,,,,,,,,2,,,83,75
150173,note_on,53,0,3,,,,,,,,,2,,,88,0
150226,note_on,53,0,3,,,,,,,,,2,,,83,0
150226,note_on,0,0,3,,,,,,,,,2,,,80,75
150279,note_on,53,0,3,,,,,,,,,2,,,80,0
150279,note_on,0,0,3,,,,,,,,,2,,,76,75
150333,note_on,0,0,3,,,,,,,,,2,,,71,75
150333,note_on,54,0,3,,,,,,,,,2,,,76,0
150360,set_tempo,240,1,0,,,,,,833333,,,,,,,
150386,note_on,0,0,3,,,,,,,,,2,,,68,75
150386,note_on,53,0,3,,,,,,,,,2,,,71,0
150440,note_on,54,0,3,,,,,,,,,2,,,68,0
150440,note_on,0,0,3,,,,,,,,,2,,,64,75
150493,note_on,0,0,3,,,,,,,,,2,,,59,75
150493,note_on,53,0,3,,,,,,,,,2,,,64,0
150546,note_on,53,0,3,,,,,,,,,2,,,59,0
150546,control_change,0,0,3,,,,,,,,,2,64,0,,
150546,note_on,0,0,3,,,,,,,,,2,,,56,75
150600,note_on,54,0,3,,,,,,,,,2,,,56,0
150600,note_on,960,0,4,,,,,,,,,3,,,40,0
150600,note_on,0,0,4,,,,,,,,,3,,,38,114
150600,set_tempo,240,1,0,,,,,,882353,,,,,,,
150653,control_change,53,0,3,,,,,,,,,2,64,127,,
150653,note_on,0,0,3,,,,,,,,,2,,,56,75
150706,note_on,0,0,3,,,,,,,,,2,,,59,75
150706,note_on,53,0,3,,,,,,,,,2,,,56,0
150759,note_on,53,0,3,,,,,,,,,2,,,59,0
150759,note_on,0,0,3,,,,,,,,,2,,,64,75
150813,note_on,0,0,3,,,,,,,,,2,,,68,75
150813,note_on,54,0,3,,,,,,,,,2,,,64,0
150866,note_on,0,0,3,,,,,,,,,2,,,71,75
150866,note_on,53,0,3,,,,,,,,,2,,,68,0
150920,note_on,54,0,3,,,,,,,,,2,,,71,0
150920,note_on,0,0,3,,,,,,,,,2,,,76,75
150973,note_on,0,0,3,,,,,,,,,2,,,80,75
150973,note_on,53,0,3,,,,,,,,,2,,,76,0
151026,note_on,0,0,3,,,,,,,,,2,,,83,75
151026,note_on,53,0,3,,,,,,,,,2,,,80,0
151080,note_on,54,0,3,,,,,,,,,2,,,83,0
151080,note_on,0,0,3,,,,,,,,,2,,,88,75
151133,note_on,0,0,3,,,,,,,,,2,,,83,75
151133,note_on,53,0,3,,,,,,,,,2,,,88,0
151186,note_on,53,0,3,,,,,,,,,2,,,83,0
151186,note_on,0,0,3,,,,,,,,,2,,,80,75
151239,note_on,0,0,3,,,,,,,,,2,,,76,75
151239,note_on,53,0,3,,,,,,,,,2,,,80,0
151293,note_on,0,0,3,,,,,,,,,2,,,71,75
151293,note_on,54,0,3,,,,,,,,,2,,,76,0
151346,note_on,53,0,3,,,,,,,,,2,,,71,0
151346,note_on,0,0,3,,,,,,,,,2,,,68,75
151400,note_on,54,0,3,,,,,,,,,2,,,68,0
151400,note_on,0,0,3,,,,,,,,,2,,,64,75
151453,note_on,0,0,3,,,,,,,,,2,,,59,75
151453,note_on,53,0,3,,,,,,,,,2,,,64,0
151500,control_change,0,0,1,,,,,,,,,0,64,0,,
151500,note_on,1620,0,1,,,,,,,,,0,,,92,0
151506,note_on,53,0,3,,,,,,,,,2,,,59,0
151506,note_on,0,0,3,,,,,,,,,2,,,56,75
151506,control_change,0,0,3,,,,,,,,,2,64,0,,
151560,control_change,0,0,3,,,,,,,,,2,64,127,,
151560,note_on,0,0,3,,,,,,,,,2,,,37,49
151560,end_of_track,0,1,4,,,,,,,,,,,,,
151560,set_tempo,960,1,0,,,,,,600000,,,,,,,
151560,note_on,54,0,3,,,,,,,,,2,,,56,0
151560,note_on,960,0,4,,,,,,,,,3,,,38,0
151628,note_on,68,0,3,,,,,,,,,2,,,37,0
151628,note_on,0,0,3,,,,,,,,,2,,,44,49
151697,note_on,69,0,3,,,,,,,,,2,,,44,0
151697,note_on,0,0,3,,,,,,,,,2,,,49,49
151765,note_on,0,0,3,,,,,,,,,2,,,53,49
151765,note_on,68,0,3,,,,,,,,,2,,,49,0
151834,note_on,0,0,3,,,,,,,,,2,,,56,49
151834,note_on,69,0,3,,,,,,,,,2,,,53,0
151902,note_on,68,0,3,,,,,,,,,2,,,56,0
151902,note_on,0,0,3,,,,,,,,,2,,,61,49
151971,note_on,0,0,3,,,,,,,,,2,,,65,49
151971,note_on,69,0,3,,,,,,,,,2,,,61,0
152040,control_change,540,0,1,,,,,,,,,0,64,127,,
152040,note_on,0,0,1,,,,,,,,,0,,,68,49
152040,note_on,6134,0,2,,,,,,,,,1,,,68,75
152040,note_on,69,0,3,,,,,,,,,2,,,65,0
152120,note_on,0,0,1,,,,,,,,,0,,,73,49
152120,note_on,80,0,1,,,,,,,,,0,,,68,0
152199,note_on,0,0,1,,,,,,,,,0,,,77,49
152199,note_on,79,0,1,,,,,,,,,0,,,73,0
152280,note_on,81,0,1,,,,,,,,,0,,,77,0
152280,note_on,0,0,1,,,,,,,,,0,,,80,49
152340,note_on,0,0,1,,,,,,,,,0,,,85,49
152340,note_on,60,0,1,,,,,,,,,0,,,80,0
152400,note_on,0,0,1,,,,,,,,,0,,,89,49
152400,note_on,60,0,1,,,,,,,,,0,,,85,0
152460,note_on,0,0,1,,,,,,,,,0,,,92,49
152460,note_on,60,0,1,,,,,,,,,0,,,89,0
152520,control_change,480,0,3,,,,,,,,,2,64,0,,
153000,note_on,960,0,2,,,,,,,,,1,,,68,0
153000,note_on,540,0,1,,,,,,,,,0,,,92,0
153000,control_change,480,0,3,,,,,,,,,2,64,127,,
153000,control_change,0,0,1,,,,,,,,,0,64,0,,
153000,note_on,0,0,3,,,,,,,,,2,,,34,49
153068,note_on,68,0,3,,,,,,,,,2,,,34,0
153068,note_on,0,0,3,,,,,,,,,2,,,46,49
153137,note_on,69,0,3,,,,,,,,,2,,,46,0
153137,note_on,0,0,3,,,,,,,,,2,,,49,49
153205,note_on,0,0,3,,,,,,,,,2,,,53,49
153205,note_on,68,0,3,,,,,,,,,2,,,49,0
153274,note_on,69,0,3,,,,,,,,,2,,,53,0
153274,note_on,0,0,3,,,,,,,,,2,,,58,49
153342,note_on,68,0,3,,,,,,,,,2,,,58,0
153342,note_on,0,0,3,,,,,,,,,2,,,61,49
153411,note_on,69,0,3,,,,,,,,,2,,,61,0
153411,note_on,0,0,3,,,,,,,,,2,,,65,49
153480,control_change,480,0,1,,,,,,,,,0,64,127,,
153480,note_on,480,0,2,,,,,,,,,1,,,70,75
153480,note_on,69,0,3,,,,,,,,,2,,,65,0
153480,control_change,0,0,3,,,,,,,,,2,64,0,,
153480,note_on,0,0,1,,,,,,,,,0,,,70,49
153560,note_on,80,0,1,,,,,,,,,0,,,70,0
153560,note_on,0,0,1,,,,,,,,,0,,,73,49
153639,note_on,79,0,1,,,,,,,,,0,,,73,0
153639,note_on,0,0,1,,,,,,,,,0,,,77,49
153720,note_on,0,0,1,,,,,,,,,0,,,82,49
153720,note_on,81,0,1,,,,,,,,,0,,,77,0
153780,note_on,60,0,1,,,,,,,,,0,,,82,0
153780,note_on,0,0,1,,,,,,,,,0,,,85,49
153840,note_on,60,0,1,,,,,,,,,0,,,85,0
153840,note_on,0,0,1,,,,,,,,,0,,,89,49
153900,note_on,60,0,1,,,,,,,,,0,,,89,0
153900,note_on,0,0,1,,,,,,,,,0,,,94,49
153960,control_change,480,0,3,,,,,,,,,2,64,127,,
153960,note_on,0,0,3,,,,,,,,,2,,,30,49
154020,note_on,0,0,3,,,,,,,,,2,,,42,49
154020,note_on,60,0,3,,,,,,,,,2,,,30,0
154080,note_on,60,0,3,,,,,,,,,2,,,42,0
154080,note_on,0,0,3,,,,,,,,,2,,,49,49
154140,note_on,0,0,3,,,,,,,,,2,,,54,49
154140,note_on,60,0,3,,,,,,,,,2,,,49,0
154200,note_on,0,0,3,,,,,,,,,2,,,58,49
154200,note_on,60,0,3,,,,,,,,,2,,,54,0
154200,note_on,300,0,1,,,,,,,,,0,,,94,0
154200,control_change,0,0,1,,,,,,,,,0,64,0,,
154260,note_on,0,0,3,,,,,,,,,2,,,61,49
154260,note_on,60,0,3,,,,,,,,,2,,,58,0
154320,note_on,60,0,3,,,,,,,,,2,,,61,0
154320,note_on,0,0,3,,,,,,,,,2,,,66,49
154380,note_on,60,0,3,,,,,,,,,2,,,66,0
154380,note_on,0,0,3,,,,,,,,,2,,,70,49
154440,note_on,0,0,2,,,,,,,,,1,,,73,75
154440,control_change,240,0,1,,,,,,,,,0,64,127,,
154440,note_on,0,0,1,,,,,,,,,0,,,73,49
154440,note_on,960,0,2,,,,,,,,,1,,,70,0
154440,note_on,60,0,3,,,,,,,,,2,,,70,0
154520,note_on,80,0,1,,,,,,,,,0,,,73,0
154520,note_on,0,0,1,,,,,,,,,0,,,78,49
154599,note_on,79,0,1,,,,,,,,,0,,,78,0
154599,note_on,0,0,1,,,,,,,,,0,,,82,49
154680,note_on,81,0,1,,,,,,,,,0,,,82,0
154680,note_on,0,0,1,,,,,,,,,0,,,85,49
154740,note_on,60,0,1,,,,,,,,,0,,,85,0
154740,note_on,0,0,1,,,,,,,,,0,,,90,49
154800,note_on,0,0,1,,,,,,,,,0,,,94,49
154800,note_on,60,0,1,,,,,,,,,0,,,90,0
154860,note_on,60,0,1,,,,,,,,,0,,,94,0
154860,note_on,0,0,1,,,,,,,,,0,,,97,49
154920,control_change,480,0,3,,,,,,,,,2,64,0,,
154920,control_change,60,0,1,,,,,,,,,0,64,0,,
155400,note_on,0,0,3,,,,,,,,,2,,,27,49
155400,note_on,480,0,1,,,,,,,,,0,,,97,0
155400,control_change,480,0,3,,,,,,,,,2,64,127,,
155400,note_on,960,0,2,,,,,,,,,1,,,73,0
155453,note_on,53,0,3,,,,,,,,,2,,,27,0
155453,note_on,0,0,3,,,,,,,,,2,,,39,49
155506,note_on,53,0,3,,,,,,,,,2,,,39,0
155506,note_on,0,0,3,,,,,,,,,2,,,46,49
155559,note_on,0,0,3,,,,,,,,,2,,,51,49
155559,note_on,53,0,3,,,,,,,,,2,,,46,0
155613,note_on,0,0,3,,,,,,,,,2,,,54,49
155613,note_on,54,0,3,,,,,,,,,2,,,51,0
155666,note_on,0,0,3,,,,,,,,,2,,,58,49
155666,note_on,53,0,3,,,,,,,,,2,,,54,0
155720,note_on,0,0,3,,,,,,,,,2,,,63,49
155720,note_on,54,0,3,,,,,,,,,2,,,58,0
155773,note_on,53,0,3,,,,,,,,,2,,,63,0
155773,note_on,0,0,3,,,,,,,,,2,,,66,49
155826,note_on,53,0,3,,,,,,,,,2,,,66,0
155826,note_on,0,0,3,,,,,,,,,2,,,70,49
155880,note_on,480,0,2,,,,,,,,,1,,,75,75
155880,control_change,480,0,1,,,,,,,,,0,64,127,,
155880,note_on,54,0,3,,,,,,,,,2,,,70,0
155880,note_on,0,0,1,,,,,,,,,0,,,75,49
155960,note_on,0,0,1,,,,,,,,,0,,,78,49
155960,note_on,80,0,1,,,,,,,,,0,,,75,0
156039,note_on,79,0,1,,,,,,,,,0,,,78,0
156039,note_on,0,0,1,,,,,,,,,0,,,82,49
156120,note_on,81,0,1,,,,,,,,,0,,,82,0
156120,note_on,0,0,1,,,,,,,,,0,,,87,49
156200,note_on,80,0,1,,,,,,,,,0,,,87,0
156200,note_on,0,0,1,,,,,,,,,0,,,90,49
156279,note_on,79,0,1,,,,,,,,,0,,,90,0
156279,note_on,0,0,1,,,,,,,,,0,,,94,49
156360,note_on,0,0,1,,,,,,,,,0,,,99,49
156360,note_on,81,0,1,,,,,,,,,0,,,94,0
156840,note_on,960,0,2,,,,,,,,,1,,,75,0
157260,control_change,1380,0,3,,,,,,,,,2,64,0,,
157320,note_on,960,0,1,,,,,,,,,0,,,99,0
157320,control_change,0,0,1,,,,,,,,,0,64,0,,
157320,note_on,0,0,1,,,,,,,,,0,,,89,49
157320,note_on,60,0,3,,,,,,,,,2,,,77,49
157320,note_on,0,0,1,,,,,,,,,0,,,101,49
157560,note_on,240,0,1,,,,,,,,,0,,,101,0
157560,note_on,240,0,3,,,,,,,,,2,,,77,0
157560,note_on,0,0,3,,,,,,,,,2,,,75,49
157560,note_on,0,0,1,,,,,,,,,0,,,89,0
157560,note_on,0,0,1,,,,,,,,,0,,,99,49
157560,note_on,0,0,1,,,,,,,,,0,,,87,49
158040,note_on,480,0,3,,,,,,,,,2,,,75,0
158040,note_on,0,0,1,,,,,,,,,0,,,82,49
158040,note_on,0,0,1,,,,,,,,,0,,,87,0
158040,note_on,0,0,3,,,,,,,,,2,,,70,49
158040,note_on,480,0,1,,,,,,,,,0,,,99,0
158040,note_on,0,0,1,,,,,,,,,0,,,94,49
158520,note_on,0,0,1,,,,,,,,,0,,,82,0
158520,note_on,480,0,1,,,,,,,,,0,,,94,0
158520,note_on,480,0,3,,,,,,,,,2,,,70,0
159720,note_on,1200,0,1,,,,,,,,,0,,,63,62
160080,note_on,360,0,1,,,,,,,,,0,,,63,0
160080,note_on,0,0,1,,,,,,,,,0,,,65,62
160200,note_on,120,0,1,,,,,,,,,0,,,65,0
160200,note_on,0,0,1,,,,,,,,,0,,,63,62
160680,note_on,480,0,1,,,,,,,,,0,,,63,0
160680,note_on,2160,0,3,,,,,,,,,2,,,51,49
160680,note_on,0,0,1,,,,,,,,,0,,,58,49
160680,note_on,0,0,1,,,,,,,,,0,,,54,49
161160,note_on,0,0,1,,,,,,,,,0,,,61,49
161160,note_on,480,0,3,,,,,,,,,2,,,51,0
161160,note_on,0,0,1,,,,,,,,,0,,,53,49
161160,note_on,0,0,1,,,,,,,,,0,,,54,0
161160,note_on,0,0,1,,,,,,,,,0,,,56,49
161160,note_on,480,0,1,,,,,,,,,0,,,58,0
161160,note_on,0,0,3,,,,,,,,,2,,,49,49
162120,note_on,0,0,1,,,,,,,,,0,,,52,49
162120,note_on,0,0,1,,,,,,,,,0,,,53,0
162120,note_on,0,0,1,,,,,,,,,0,,,56,0
162120,note_on,0,0,1,,,,,,,,,0,,,57,49
162120,note_on,0,0,1,,,,,,,,,0,,,61,49
162120,note_on,960,0,3,,,,,,,,,2,,,49,0
162120,note_on,0,0,3,,,,,,,,,2,,,45,49
162120,note_on,960,0,1,,,,,,,,,0,,,61,0
163080,note_on,0,0,1,,,,,,,,,0,,,57,0
163080,note_on,960,0,1,,,,,,,,,0,,,61,0
163080,note_on,0,0,1,,,,,,,,,0,,,52,0
163080,note_on,0,0,1,,,,,,,,,0,,,54,49
163080,note_on,0,0,1,,,,,,,,,0,,,58,49
163080,note_on,0,0,1,,,,,,,,,0,,,61,49
163080,note_on,0,0,3,,,,,,,,,2,,,42,49
163080,note_on,960,0,3,,,,,,,,,2,,,45,0
164040,note_on,960,0,1,,,,,,,,,0,,,61,0
164040,note_on,0,0,1,,,,,,,,,0,,,63,49
164040,note_on,0,0,1,,,,,,,,,0,,,58,49
164040,note_on,0,0,3,,,,,,,,,2,,,39,49
164040,note_on,960,0,3,,,,,,,,,2,,,42,0
164040,note_on,0,0,1,,,,,,,,,0,,,54,0
164040,note_on,0,0,1,,,,,,,,,0,,,54,49
164040,note_on,0,0,1,,,,,,,,,0,,,58,0
165000,note_on,0,0,2,,,,,,,,,1,,,61,49
165000,note_on,960,0,3,,,,,,,,,2,,,39,0
165000,note_on,8160,0,2,,,,,,,,,1,,,53,49
165000,note_on,0,0,2,,,,,,,,,1,,,56,49
165000,note_on,0,0,1,,,,,,,,,0,,,65,49
165000,note_on,0,0,1,,,,,,,,,0,,,58,0
165000,note_on,0,0,3,,,,,,,,,2,,,37,49
165000,note_on,0,0,1,,,,,,,,,0,,,54,0
165000,note_on,960,0,1,,,,,,,,,0,,,63,0
165000,note_on,0,0,3,,,,,,,,,2,,,44,49
165240,set_tempo,13680,1,0,,,,,,618557,,,,,,,
165480,set_tempo,240,1,0,,,,,,638298,,,,,,,
165720,set_tempo,240,1,0,,,,,,659341,,,,,,,
165960,set_tempo,240,1,0,,,,,,689655,,,,,,,
166200,set_tempo,240,1,0,,,,,,714286,,,,,,,
166440,set_tempo,240,1,0,,,,,,740741,,,,,,,
166440,note_on,1440,0,1,,,,,,,,,0,,,65,0
166440,note_on,0,0,1,,,,,,,,,0,,,65,49
166680,set_tempo,240,1,0,,,,,,769231,,,,,,,
166920,note_on,0,0,2,,,,,,,,,1,,,57,49
166920,note_on,0,0,2,,,,,,,,,1,,,56,0
166920,note_on,0,0,2,,,,,,,,,1,,,53,49
166920,note_on,0,0,2,,,,,,,,,1,,,53,0
166920,note_on,0,0,3,,,,,,,,,2,,,29,49
166920,set_tempo,240,1,0,,,,,,810811,,,,,,,
166920,note_on,0,0,2,,,,,,,,,1,,,60,49
166920,note_on,0,0,3,,,,,,,,,2,,,37,0
166920,note_on,1920,0,2,,,,,,,,,1,,,61,0
166920,control_change,0,0,3,,,,,,,,,2,64,127,,
166920,note_on,1920,0,3,,,,,,,,,2,,,44,0
166920,note_on,480,0,1,,,,,,,,,0,,,65,0
166920,note_on,0,0,1,,,,,,,,,0,,,65,49
167040,note_on,120,0,3,,,,,,,,,2,,,29,0
167040,note_on,0,0,3,,,,,,,,,2,,,36,49
167160,note_on,120,0,3,,,,,,,,,2,,,36,0
167160,note_on,0,0,3,,,,,,,,,2,,,41,49
167280,note_on,0,0,3,,,,,,,,,2,,,48,49
167280,note_on,120,0,3,,,,,,,,,2,,,41,0
167880,note_on,0,0,1,,,,,,,,,0,,,65,49
167880,note_on,960,0,1,,,,,,,,,0,,,65,0
168360,note_on,480,0,1,,,,,,,,,0,,,65,0
168360,note_on,0,0,1,,,,,,,,,0,,,65,49
168720,control_change,0,0,3,,,,,,,,,2,64,0,,
168720,note_on,1440,0,3,,,,,,,,,2,,,48,0
168840,note_on,0,0,2,,,,,,,,,1,,,57,0
168840,control_change,120,0,3,,,,,,,,,2,64,127,,
168840,note_on,1920,0,2,,,,,,,,,1,,,60,0
168840,note_on,0,0,1,,,,,,,,,0,,,65,49
168840,note_on,0,0,3,,,,,,,,,2,,,25,49
168840,time_signature,1920,1,0,10,4,24,8,,,,,,,,,
168840,note_on,480,0,1,,,,,,,,,0,,,65,0
168840,end_of_track,0,1,2,,,,,,,,,,,,,
168840,end_of_track,0,1,0,,,,,,,,,,,,,
168840,note_on,0,0,1,,,,,,,,,0,,,53,49
168840,note_on,0,0,1,,,,,,,,,0,,,61,49
168840,note_on,0,0,2,,,,,,,,,1,,,53,0
168840,note_on,0,0,1,,,,,,,,,0,,,56,49
168960,note_on,0,0,3,,,,,,,,,2,,,32,49
168960,note_on,120,0,3,,,,,,,,,2,,,25,0
169080,note_on,0,0,3,,,,,,,,,2,,,37,49
169080,note_on,120,0,3,,,,,,,,,2,,,32,0
169200,note_on,0,0,3,,,,,,,,,2,,,44,49
169200,note_on,120,0,3,,,,,,,,,2,,,37,0
171720,note_on,0,0,1,,,,,,,,,0,,,61,0
171720,note_on,0,0,1,,,,,,,,,0,,,56,0
171720,note_on,0,0,1,,,,,,,,,0,,,53,0
171720,control_change,0,0,1,,,,,,,,,0,64,127,,
171720,note_on,2880,0,1,,,,,,,,,0,,,65,0
172080,note_on,2880,0,3,,,,,,,,,2,,,44,0
172200,end_of_track,0,1,3,,,,,,,,,,,,,
172200,control_change,120,0,3,,,,,,,,,2,64,0,,
173160,control_change,1440,0,1,,,,,,,,,0,64,0,,
173160,end_of_track,0,1,1,,,,,,,,,,,,,
