tick,type,time,meta,track,numerator,denominator,clocks_per_click,notated_32nd_notes_per_beat,key,tempo,port,program,channel,control,value,note,velocity
0,control_change,0,0,1,,,,,,,,,0,7,127,,
0,copyright,0,1,0,,,,,,,,,,,,,
0,key_signature,0,1,0,,,,,Db,,,,,,,,
0,midi_port,0,1,1,,,,,,,0,,,,,,
0,midi_port,0,1,2,,,,,,,0,,,,,,
0,midi_port,0,1,3,,,,,,,0,,,,,,
0,midi_port,0,1,4,,,,,,,0,,,,,,
0,note_on,0,0,1,,,,,,,,,0,,,73,62
0,note_on,0,0,2,,,,,,,,,1,,,73,49
0,note_on,0,0,3,,,,,,,,,2,,,70,49
0,control_change,0,0,4,,,,,,,,,3,10,30,,
0,track_name,0,1,3,,,,,,,,,,,,,
0,program_change,0,0,2,,,,,,,,0,1,,,,
0,program_change,0,0,3,,,,,,,,0,2,,,,
0,program_change,0,0,4,,,,,,,,0,3,,,,
0,set_tempo,0,1,0,,,,,,625000,,,,,,,
0,text,0,1,0,,,,,,,,,,,,,
0,time_signature,0,1,0,4,4,24,8,,,,,,,,,
0,track_name,0,1,0,,,,,,,,,,,,,
0,track_name,0,1,1,,,,,,,,,,,,,
0,track_name,0,1,2,,,,,,,,,,,,,
0,program_change,0,0,1,,,,,,,,0,0,,,,
0,control_change,0,0,4,,,,,,,,,3,7,127,,
0,track_name,0,1,4,,,,,,,,,,,,,
0,control_change,0,0,2,,,,,,,,,1,10,97,,
0,control_change,0,0,3,,,,,,,,,2,7,127,,
0,control_change,0,0,1,,,,,,,,,0,10,97,,
0,control_change,0,0,3,,,,,,,,,2,64,127,,
0,control_change,0,0,3,,,,,,,,,2,10,30,,
0,control_change,0,0,2,,,,,,,,,1,7,127,,
1,copyright,1,1,5,,,,,,,,,,,,,
1,end_of_track,0,1,5,,,,,,,,,,,,,
11,set_tempo,11,1,0,,,,,,326087,,,,,,,
120,note_on,0,0,2,,,,,,,,,1,,,77,49
120,note_on,120,0,2,,,,,,,,,1,,,73,0
240,note_on,120,0,2,,,,,,,,,1,,,77,0
240,note_on,0,0,2,,,,,,,,,1,,,76,49
360,note_on,0,0,2,,,,,,,,,1,,,77,49
360,note_on,120,0,2,,,,,,,,,1,,,76,0
480,note_on,0,0,2,,,,,,,,,1,,,78,49
480,note_on,120,0,2,,,,,,,,,1,,,77,0
600,note_on,0,0,2,,,,,,,,,1,,,77,49
600,note_on,120,0,2,,,,,,,,,1,,,78,0
720,note_on,0,0,2,,,,,,,,,1,,,76,49
720,note_on,120,0,2,,,,,,,,,1,,,77,0
840,note_on,120,0,2,,,,,,,,,1,,,76,0
840,note_on,0,0,2,,,,,,,,,1,,,77,49
960,note_on,960,0,3,,,,,,,,,2,,,70,0
960,note_on,0,0,2,,,,,,,,,1,,,72,49
960,note_on,0,0,3,,,,,,,,,2,,,68,49
960,note_on,960,0,1,,,,,,,,,0,,,73,0
960,note_on,0,0,1,,,,,,,,,0,,,72,62
960,note_on,120,0,2,,,,,,,,,1,,,77,0
1080,note_on,120,0,2,,,,,,,,,1,,,72,0
1080,note_on,0,0,2,,,,,,,,,1,,,77,49
1200,note_on,120,0,2,,,,,,,,,1,,,77,0
1200,note_on,0,0,2,,,,,,,,,1,,,76,49
1320,note_on,0,0,2,,,,,,,,,1,,,77,49
1320,note_on,120,0,2,,,,,,,,,1,,,76,0
1440,note_on,0,0,2,,,,,,,,,1,,,78,49
1440,note_on,120,0,2,,,,,,,,,1,,,77,0
1560,note_on,0,0,2,,,,,,,,,1,,,77,49
1560,note_on,120,0,2,,,,,,,,,1,,,78,0
1680,note_on,0,0,2,,,,,,,,,1,,,76,49
1680,note_on,120,0,2,,,,,,,,,1,,,77,0
1800,note_on,0,0,2,,,,,,,,,1,,,77,49
1800,note_on,120,0,2,,,,,,,,,1,,,76,0
1920,note_on,960,0,3,,,,,,,,,2,,,68,0
1920,note_on,0,0,1,,,,,,,,,0,,,82,62
1920,note_on,0,0,3,,,,,,,,,2,,,66,49
1920,note_on,960,0,1,,,,,,,,,0,,,72,0
1920,note_on,120,0,2,,,,,,,,,1,,,77,0
1920,note_on,0,0,2,,,,,,,,,1,,,70,49
2040,note_on,0,0,2,,,,,,,,,1,,,75,49
2040,note_on,120,0,2,,,,,,,,,1,,,70,0
2160,note_on,0,0,2,,,,,,,,,1,,,74,49
2160,note_on,120,0,2,,,,,,,,,1,,,75,0
2280,note_on,120,0,2,,,,,,,,,1,,,74,0
2280,note_on,0,0,2,,,,,,,,,1,,,75,49
2400,note_on,0,0,2,,,,,,,,,1,,,77,49
2400,note_on,120,0,2,,,,,,,,,1,,,75,0
2520,note_on,0,0,2,,,,,,,,,1,,,75,49
2520,note_on,120,0,2,,,,,,,,,1,,,77,0
2640,note_on,0,0,2,,,,,,,,,1,,,74,49
2640,note_on,120,0,2,,,,,,,,,1,,,75,0
2760,note_on,120,0,2,,,,,,,,,1,,,74,0
2760,note_on,0,0,2,,,,,,,,,1,,,75,49
2880,control_change,0,0,3,,,,,,,,,2,64,0,,
2880,note_on,120,0,2,,,,,,,,,1,,,75,0
2880,note_on,960,0,1,,,,,,,,,0,,,82,0
2880,note_on,0,0,1,,,,,,,,,0,,,80,62
2880,note_on,0,0,3,,,,,,,,,2,,,65,49
2880,note_on,0,0,2,,,,,,,,,1,,,68,49
2880,note_on,960,0,3,,,,,,,,,2,,,66,0
3000,note_on,0,0,2,,,,,,,,,1,,,73,49
3000,note_on,120,0,2,,,,,,,,,1,,,68,0
3120,note_on,0,0,2,,,,,,,,,1,,,72,49
3120,note_on,120,0,2,,,,,,,,,1,,,73,0
3240,note_on,120,0,2,,,,,,,,,1,,,72,0
3240,note_on,0,0,2,,,,,,,,,1,,,73,49
3360,note_on,120,0,2,,,,,,,,,1,,,73,0
3360,note_on,0,0,2,,,,,,,,,1,,,75,49
3480,note_on,120,0,2,,,,,,,,,1,,,75,0
3480,note_on,0,0,2,,,,,,,,,1,,,73,49
3600,note_on,120,0,2,,,,,,,,,1,,,73,0
3600,note_on,0,0,2,,,,,,,,,1,,,72,49
3720,note_on,120,0,2,,,,,,,,,1,,,72,0
3720,note_on,0,0,2,,,,,,,,,1,,,73,49
3840,note_on,960,0,3,,,,,,,,,2,,,65,0
3840,note_on,0,0,1,,,,,,,,,0,,,66,62
3840,note_on,0,0,1,,,,,,,,,0,,,78,62
3840,note_on,0,0,3,,,,,,,,,2,,,63,49
3840,note_on,960,0,1,,,,,,,,,0,,,80,0
3840,note_on,120,0,2,,,,,,,,,1,,,73,0
3960,note_on,120,0,2,,,,,,,,,1,,,72,49
4080,note_on,0,0,2,,,,,,,,,1,,,71,49
4080,note_on,120,0,2,,,,,,,,,1,,,72,0
4200,note_on,120,0,2,,,,,,,,,1,,,71,0
4200,note_on,0,0,2,,,,,,,,,1,,,72,49
4320,note_on,0,0,3,,,,,,,,,2,,,61,49
4320,note_on,120,0,2,,,,,,,,,1,,,72,0
4320,note_on,0,0,1,,,,,,,,,0,,,65,62
4320,note_on,0,0,1,,,,,,,,,0,,,66,0
4320,note_on,480,0,1,,,,,,,,,0,,,78,0
4320,note_on,0,0,1,,,,,,,,,0,,,77,62
4320,note_on,480,0,3,,,,,,,,,2,,,63,0
4440,note_on,120,0,2,,,,,,,,,1,,,70,49
4560,note_on,120,0,2,,,,,,,,,1,,,70,0
4560,note_on,0,0,2,,,,,,,,,1,,,69,49
4680,note_on,120,0,2,,,,,,,,,1,,,69,0
4680,note_on,0,0,2,,,,,,,,,1,,,70,49
4800,note_on,480,0,1,,,,,,,,,0,,,77,0
4800,note_on,0,0,3,,,,,,,,,2,,,60,49
4800,note_on,120,0,2,,,,,,,,,1,,,70,0
4800,note_on,0,0,1,,,,,,,,,0,,,63,62
4800,note_on,0,0,1,,,,,,,,,0,,,65,0
4800,note_on,0,0,1,,,,,,,,,0,,,75,62
4800,note_on,480,0,3,,,,,,,,,2,,,61,0
4920,note_on,120,0,2,,,,,,,,,1,,,69,49
5040,note_on,0,0,2,,,,,,,,,1,,,68,49
5040,note_on,120,0,2,,,,,,,,,1,,,69,0
5160,note_on,0,0,2,,,,,,,,,1,,,69,49
5160,note_on,120,0,2,,,,,,,,,1,,,68,0
5280,note_on,0,0,3,,,,,,,,,2,,,52,49
5280,note_on,0,0,1,,,,,,,,,0,,,73,62
5280,note_on,0,0,1,,,,,,,,,0,,,63,0
5280,note_on,120,0,2,,,,,,,,,1,,,69,0
5280,note_on,480,0,1,,,,,,,,,0,,,75,0
5280,note_on,480,0,3,,,,,,,,,2,,,60,0
5280,note_on,0,0,3,,,,,,,,,2,,,58,49
5280,note_on,0,0,1,,,,,,,,,0,,,61,62
5400,note_on,120,0,2,,,,,,,,,1,,,67,49
5520,note_on,0,0,2,,,,,,,,,1,,,66,49
5520,note_on,120,0,2,,,,,,,,,1,,,67,0
5640,note_on,120,0,2,,,,,,,,,1,,,66,0
5640,note_on,0,0,2,,,,,,,,,1,,,67,49
5760,note_on,0,0,3,,,,,,,,,2,,,53,49
5760,note_on,480,0,3,,,,,,,,,2,,,58,0
5760,note_on,120,0,2,,,,,,,,,1,,,67,0
5760,note_on,0,0,3,,,,,,,,,2,,,52,0
5760,note_on,0,0,1,,,,,,,,,0,,,72,62
5760,note_on,0,0,1,,,,,,,,,0,,,60,62
5760,note_on,0,0,1,,,,,,,,,0,,,61,0
5760,note_on,0,0,3,,,,,,,,,2,,,57,49
5760,note_on,480,0,1,,,,,,,,,0,,,73,0
5880,note_on,0,0,1,,,,,,,,,0,,,65,62
5880,note_on,120,0,1,,,,,,,,,0,,,72,0
5880,note_on,0,0,1,,,,,,,,,0,,,60,0
6000,note_on,0,0,1,,,,,,,,,0,,,64,62
6000,note_on,120,0,1,,,,,,,,,0,,,65,0
6120,note_on,0,0,1,,,,,,,,,0,,,65,62
6120,note_on,120,0,1,,,,,,,,,0,,,64,0
6240,note_on,120,0,1,,,,,,,,,0,,,65,0
6240,note_on,0,0,3,,,,,,,,,2,,,53,0
6240,note_on,0,0,1,,,,,,,,,0,,,66,62
6240,note_on,480,0,3,,,,,,,,,2,,,57,0
6360,note_on,0,0,1,,,,,,,,,0,,,65,62
6360,note_on,120,0,1,,,,,,,,,0,,,66,0
6480,note_on,120,0,1,,,,,,,,,0,,,65,0
6480,note_on,0,0,1,,,,,,,,,0,,,63,62
6600,note_on,120,0,1,,,,,,,,,0,,,63,0
6600,note_on,0,0,1,,,,,,,,,0,,,61,62
6720,note_on,120,0,1,,,,,,,,,0,,,61,0
6720,note_on,0,0,3,,,,,,,,,2,,,60,62
6720,control_change,480,0,3,,,,,,,,,2,64,127,,
6840,note_on,0,0,3,,,,,,,,,2,,,58,62
6840,note_on,120,0,3,,,,,,,,,2,,,60,0
6960,note_on,120,0,3,,,,,,,,,2,,,58,0
6960,note_on,0,0,3,,,,,,,,,2,,,57,62
7080,note_on,120,0,3,,,,,,,,,2,,,57,0
7080,note_on,0,0,3,,,,,,,,,2,,,54,62
7200,note_on,120,0,3,,,,,,,,,2,,,54,0
7200,note_on,1440,0,2,,,,,,,,,1,,,73,49
7200,note_on,480,0,1,,,,,,,,,0,,,73,62
7200,note_on,0,0,3,,,,,,,,,2,,,53,62
7320,note_on,120,0,3,,,,,,,,,2,,,53,0
7320,note_on,0,0,3,,,,,,,,,2,,,51,62
7359,note_on,159,0,2,,,,,,,,,1,,,73,0
7359,note_on,0,0,2,,,,,,,,,1,,,61,49
7440,note_on,120,0,3,,,,,,,,,2,,,51,0
7440,note_on,0,0,3,,,,,,,,,2,,,49,62
7520,note_on,0,0,2,,,,,,,,,1,,,65,49
7520,note_on,161,0,2,,,,,,,,,1,,,61,0
7560,note_on,0,0,3,,,,,,,,,2,,,48,62
7560,note_on,120,0,3,,,,,,,,,2,,,49,0
7560,control_change,0,0,3,,,,,,,,,2,64,0,,
7680,note_on,480,0,1,,,,,,,,,0,,,73,0
7680,note_on,120,0,3,,,,,,,,,2,,,48,0
7680,note_on,7680,0,4,,,,,,,,,3,,,46,49
7680,note_on,0,0,1,,,,,,,,,0,,,72,62
7680,note_on,0,0,3,,,,,,,,,2,,,46,49
7680,note_on,0,0,2,,,,,,,,,1,,,72,49
7680,note_on,160,0,2,,,,,,,,,1,,,65,0
7839,note_on,159,0,2,,,,,,,,,1,,,72,0
7839,note_on,0,0,3,,,,,,,,,2,,,58,49
7839,note_on,159,0,3,,,,,,,,,2,,,46,0
7839,note_on,0,0,2,,,,,,,,,1,,,61,49
8000,note_on,161,0,3,,,,,,,,,2,,,58,0
8000,note_on,161,0,2,,,,,,,,,1,,,61,0
8000,note_on,0,0,3,,,,,,,,,2,,,53,49
8000,note_on,0,0,2,,,,,,,,,1,,,65,49
8160,note_on,160,0,3,,,,,,,,,2,,,53,0
8160,note_on,480,0,1,,,,,,,,,0,,,72,0
8160,note_on,0,0,3,,,,,,,,,2,,,49,49
8160,note_on,0,0,2,,,,,,,,,1,,,70,49
8160,note_on,160,0,2,,,,,,,,,1,,,65,0
8160,note_on,480,0,4,,,,,,,,,3,,,46,0
8160,note_on,0,0,4,,,,,,,,,3,,,49,49
8160,note_on,0,0,1,,,,,,,,,0,,,70,62
8319,note_on,159,0,2,,,,,,,,,1,,,70,0
8319,note_on,0,0,3,,,,,,,,,2,,,58,49
8319,note_on,0,0,2,,,,,,,,,1,,,61,49
8319,note_on,159,0,3,,,,,,,,,2,,,49,0
8480,note_on,161,0,2,,,,,,,,,1,,,61,0
8480,note_on,0,0,3,,,,,,,,,2,,,53,49
8480,note_on,0,0,2,,,,,,,,,1,,,65,49
8480,note_on,161,0,3,,,,,,,,,2,,,58,0
8640,note_on,0,0,4,,,,,,,,,3,,,46,49
8640,note_on,160,0,2,,,,,,,,,1,,,65,0
8640,note_on,0,0,3,,,,,,,,,2,,,46,49
8640,note_on,160,0,3,,,,,,,,,2,,,53,0
8640,note_on,0,0,1,,,,,,,,,0,,,69,62
8640,note_on,480,0,1,,,,,,,,,0,,,70,0
8640,note_on,0,0,2,,,,,,,,,1,,,69,49
8640,note_on,480,0,4,,,,,,,,,3,,,49,0
8799,note_on,0,0,2,,,,,,,,,1,,,61,49
8799,note_on,0,0,3,,,,,,,,,2,,,58,49
8799,note_on,159,0,2,,,,,,,,,1,,,69,0
8799,note_on,159,0,3,,,,,,,,,2,,,46,0
8960,note_on,0,0,2,,,,,,,,,1,,,65,49
8960,note_on,161,0,3,,,,,,,,,2,,,58,0
8960,note_on,0,0,3,,,,,,,,,2,,,53,49
8960,note_on,161,0,2,,,,,,,,,1,,,61,0
9120,note_on,480,0,1,,,,,,,,,0,,,69,0
9120,note_on,0,0,1,,,,,,,,,0,,,70,62
9120,note_on,160,0,2,,,,,,,,,1,,,65,0
9120,note_on,0,0,2,,,,,,,,,1,,,70,49
9120,note_on,160,0,3,,,,,,,,,2,,,53,0
9120,note_on,0,0,4,,,,,,,,,3,,,49,49
9120,note_on,480,0,4,,,,,,,,,3,,,46,0
9120,note_on,0,0,3,,,,,,,,,2,,,49,49
9279,note_on,159,0,3,,,,,,,,,2,,,49,0
9279,note_on,0,0,2,,,,,,,,,1,,,61,49
9279,note_on,0,0,3,,,,,,,,,2,,,58,49
9279,note_on,159,0,2,,,,,,,,,1,,,70,0
9440,note_on,0,0,2,,,,,,,,,1,,,65,49
9440,note_on,0,0,3,,,,,,,,,2,,,53,49
9440,note_on,161,0,3,,,,,,,,,2,,,58,0
9440,note_on,161,0,2,,,,,,,,,1,,,61,0
9600,note_on,160,0,2,,,,,,,,,1,,,65,0
9600,note_on,160,0,3,,,,,,,,,2,,,53,0
9600,note_on,0,0,3,,,,,,,,,2,,,46,49
9600,note_on,480,0,1,,,,,,,,,0,,,70,0
9600,note_on,0,0,4,,,,,,,,,3,,,46,49
9600,note_on,480,0,4,,,,,,,,,3,,,49,0
9600,note_on,0,0,2,,,,,,,,,1,,,75,49
9600,note_on,0,0,1,,,,,,,,,0,,,75,62
9759,note_on,0,0,2,,,,,,,,,1,,,63,49
9759,note_on,0,0,3,,,,,,,,,2,,,58,49
9759,note_on,159,0,2,,,,,,,,,1,,,75,0
9759,note_on,159,0,3,,,,,,,,,2,,,46,0
9920,note_on,0,0,2,,,,,,,,,1,,,66,49
9920,note_on,161,0,2,,,,,,,,,1,,,63,0
9920,note_on,161,0,3,,,,,,,,,2,,,58,0
9920,note_on,0,0,3,,,,,,,,,2,,,54,49
10080,note_on,0,0,2,,,,,,,,,1,,,70,49
10080,note_on,0,0,4,,,,,,,,,3,,,51,49
10080,note_on,480,0,4,,,,,,,,,3,,,46,0
10080,note_on,160,0,2,,,,,,,,,1,,,66,0
10080,note_on,0,0,3,,,,,,,,,2,,,51,49
10080,note_on,160,0,3,,,,,,,,,2,,,54,0
10239,note_on,159,0,3,,,,,,,,,2,,,51,0
10239,note_on,159,0,2,,,,,,,,,1,,,70,0
10239,note_on,0,0,2,,,,,,,,,1,,,63,49
10239,note_on,0,0,3,,,,,,,,,2,,,58,49
10400,note_on,0,0,2,,,,,,,,,1,,,66,49
10400,note_on,0,0,3,,,,,,,,,2,,,54,49
10400,note_on,161,0,3,,,,,,,,,2,,,58,0
10400,note_on,161,0,2,,,,,,,,,1,,,63,0
10560,note_on,0,0,3,,,,,,,,,2,,,46,49
10560,note_on,160,0,2,,,,,,,,,1,,,66,0
10560,note_on,0,0,4,,,,,,,,,3,,,46,49
10560,note_on,480,0,4,,,,,,,,,3,,,51,0
10560,note_on,0,0,2,,,,,,,,,1,,,70,49
10560,note_on,160,0,3,,,,,,,,,2,,,54,0
10719,note_on,159,0,2,,,,,,,,,1,,,70,0
10719,note_on,0,0,3,,,,,,,,,2,,,58,49
10719,note_on,159,0,3,,,,,,,,,2,,,46,0
10719,note_on,0,0,2,,,,,,,,,1,,,63,49
10880,note_on,0,0,3,,,,,,,,,2,,,54,49
10880,note_on,161,0,2,,,,,,,,,1,,,63,0
10880,note_on,0,0,2,,,,,,,,,1,,,66,49
10880,note_on,161,0,3,,,,,,,,,2,,,58,0
11040,note_on,0,0,2,,,,,,,,,1,,,78,49
11040,note_on,160,0,3,,,,,,,,,2,,,54,0
11040,note_on,160,0,2,,,,,,,,,1,,,66,0
11040,note_on,1440,0,1,,,,,,,,,0,,,75,0
11040,note_on,0,0,3,,,,,,,,,2,,,51,75
11040,note_on,0,0,1,,,,,,,,,0,,,78,62
11040,note_on,480,0,4,,,,,,,,,3,,,46,0
11040,note_on,0,0,4,,,,,,,,,3,,,51,49
11199,note_on,159,0,2,,,,,,,,,1,,,78,0
11199,note_on,0,0,3,,,,,,,,,2,,,58,49
11199,note_on,159,0,3,,,,,,,,,2,,,51,0
11199,note_on,0,0,2,,,,,,,,,1,,,66,49
11360,note_on,161,0,2,,,,,,,,,1,,,66,0
11360,note_on,161,0,3,,,,,,,,,2,,,58,0
11360,note_on,0,0,3,,,,,,,,,2,,,54,49
11360,note_on,0,0,2,,,,,,,,,1,,,70,49
11520,note_on,160,0,3,,,,,,,,,2,,,54,0
11520,note_on,0,0,2,,,,,,,,,1,,,77,49
11520,note_on,480,0,4,,,,,,,,,3,,,51,0
11520,note_on,0,0,1,,,,,,,,,0,,,77,62
11520,note_on,0,0,4,,,,,,,,,3,,,46,49
11520,control_change,0,0,1,,,,,,,,,0,64,127,,
11520,note_on,480,0,1,,,,,,,,,0,,,78,0
11520,note_on,160,0,2,,,,,,,,,1,,,70,0
11520,note_on,0,0,3,,,,,,,,,2,,,46,49
11679,note_on,0,0,3,,,,,,,,,2,,,57,49
11679,note_on,159,0,2,,,,,,,,,1,,,77,0
11679,note_on,0,0,2,,,,,,,,,1,,,65,49
11679,note_on,159,0,3,,,,,,,,,2,,,46,0
11840,note_on,0,0,2,,,,,,,,,1,,,69,49
11840,note_on,161,0,2,,,,,,,,,1,,,65,0
11840,note_on,0,0,3,,,,,,,,,2,,,53,49
11840,note_on,161,0,3,,,,,,,,,2,,,57,0
12000,note_on,0,0,3,,,,,,,,,2,,,51,49
12000,note_on,480,0,4,,,,,,,,,3,,,46,0
12000,note_on,160,0,2,,,,,,,,,1,,,69,0
12000,note_on,160,0,3,,,,,,,,,2,,,53,0
12000,note_on,0,0,1,,,,,,,,,0,,,75,62
12000,note_on,0,0,2,,,,,,,,,1,,,75,49
12000,note_on,480,0,1,,,,,,,,,0,,,77,0
12000,note_on,0,0,4,,,,,,,,,3,,,51,49
12159,note_on,0,0,3,,,,,,,,,2,,,57,49
12159,note_on,0,0,2,,,,,,,,,1,,,63,49
12159,note_on,159,0,3,,,,,,,,,2,,,51,0
12159,note_on,159,0,2,,,,,,,,,1,,,75,0
12320,note_on,161,0,3,,,,,,,,,2,,,57,0
12320,note_on,161,0,2,,,,,,,,,1,,,63,0
12320,note_on,0,0,2,,,,,,,,,1,,,66,49
12320,note_on,0,0,3,,,,,,,,,2,,,54,49
12480,note_on,160,0,2,,,,,,,,,1,,,66,0
12480,note_on,0,0,1,,,,,,,,,0,,,73,62
12480,note_on,480,0,4,,,,,,,,,3,,,51,0
12480,note_on,160,0,3,,,,,,,,,2,,,54,0
12480,note_on,0,0,4,,,,,,,,,3,,,46,49
12480,note_on,480,0,1,,,,,,,,,0,,,75,0
12480,note_on,0,0,2,,,,,,,,,1,,,73,49
12480,note_on,0,0,3,,,,,,,,,2,,,46,49
12639,note_on,0,0,3,,,,,,,,,2,,,57,49
12639,note_on,0,0,2,,,,,,,,,1,,,63,49
12639,note_on,159,0,2,,,,,,,,,1,,,73,0
12639,note_on,159,0,3,,,,,,,,,2,,,46,0
12800,note_on,161,0,3,,,,,,,,,2,,,57,0
12800,note_on,0,0,2,,,,,,,,,1,,,65,49
12800,note_on,0,0,3,,,,,,,,,2,,,53,49
12800,note_on,161,0,2,,,,,,,,,1,,,63,0
12960,note_on,480,0,1,,,,,,,,,0,,,73,0
12960,note_on,0,0,2,,,,,,,,,1,,,72,49
12960,note_on,0,0,3,,,,,,,,,2,,,51,49
12960,note_on,160,0,2,,,,,,,,,1,,,65,0
12960,note_on,160,0,3,,,,,,,,,2,,,53,0
12960,note_on,480,0,4,,,,,,,,,3,,,46,0
12960,note_on,0,0,4,,,,,,,,,3,,,51,49
12960,note_on,0,0,1,,,,,,,,,0,,,72,62
13119,note_on,0,0,3,,,,,,,,,2,,,57,49
13119,note_on,159,0,2,,,,,,,,,1,,,72,0
13119,note_on,159,0,3,,,,,,,,,2,,,51,0
13119,note_on,0,0,2,,,,,,,,,1,,,63,49
13280,note_on,0,0,2,,,,,,,,,1,,,65,49
13280,note_on,161,0,3,,,,,,,,,2,,,57,0
13280,note_on,161,0,2,,,,,,,,,1,,,63,0
13280,note_on,0,0,3,,,,,,,,,2,,,54,49
13440,note_on,0,0,4,,,,,,,,,3,,,46,49
13440,note_on,0,0,2,,,,,,,,,1,,,70,49
13440,note_on,0,0,3,,,,,,,,,2,,,46,49
13440,note_on,480,0,4,,,,,,,,,3,,,51,0
13440,note_on,160,0,2,,,,,,,,,1,,,65,0
13440,note_on,160,0,3,,,,,,,,,2,,,54,0
13440,note_on,0,0,1,,,,,,,,,0,,,70,62
13440,control_change,0,0,1,,,,,,,,,0,64,0,,
13440,note_on,480,0,1,,,,,,,,,0,,,72,0
13599,note_on,0,0,3,,,,,,,,,2,,,58,49
13599,note_on,159,0,2,,,,,,,,,1,,,70,0
13599,note_on,0,0,2,,,,,,,,,1,,,61,49
13599,note_on,159,0,3,,,,,,,,,2,,,46,0
13760,note_on,161,0,3,,,,,,,,,2,,,58,0
13760,note_on,161,0,2,,,,,,,,,1,,,61,0
13760,note_on,0,0,2,,,,,,,,,1,,,65,49
13760,note_on,0,0,3,,,,,,,,,2,,,53,49
13920,note_on,480,0,4,,,,,,,,,3,,,46,0
13920,note_on,0,0,4,,,,,,,,,3,,,49,49
13920,note_on,0,0,2,,,,,,,,,1,,,61,49
13920,note_on,0,0,3,,,,,,,,,2,,,49,49
13920,note_on,160,0,3,,,,,,,,,2,,,53,0
13920,note_on,160,0,2,,,,,,,,,1,,,65,0
14079,note_on,159,0,3,,,,,,,,,2,,,49,0
14079,note_on,0,0,2,,,,,,,,,1,,,65,49
14079,note_on,159,0,2,,,,,,,,,1,,,61,0
14079,note_on,0,0,3,,,,,,,,,2,,,58,49
14240,note_on,0,0,3,,,,,,,,,2,,,53,49
14240,note_on,0,0,2,,,,,,,,,1,,,61,49
14240,note_on,161,0,2,,,,,,,,,1,,,65,0
14240,note_on,161,0,3,,,,,,,,,2,,,58,0
14400,note_on,0,0,4,,,,,,,,,3,,,46,49
14400,note_on,0,0,2,,,,,,,,,1,,,65,49
14400,note_on,160,0,3,,,,,,,,,2,,,53,0
14400,note_on,480,0,4,,,,,,,,,3,,,49,0
14400,note_on,160,0,2,,,,,,,,,1,,,61,0
14400,note_on,0,0,3,,,,,,,,,2,,,46,49
14559,note_on,159,0,3,,,,,,,,,2,,,46,0
14559,note_on,0,0,2,,,,,,,,,1,,,61,49
14559,note_on,159,0,2,,,,,,,,,1,,,65,0
14559,note_on,0,0,3,,,,,,,,,2,,,58,49
14720,note_on,0,0,3,,,,,,,,,2,,,53,49
14720,note_on,0,0,2,,,,,,,,,1,,,65,49
14720,note_on,161,0,3,,,,,,,,,2,,,58,0
14720,note_on,161,0,2,,,,,,,,,1,,,61,0
14880,note_on,0,0,4,,,,,,,,,3,,,49,49
14880,note_on,160,0,3,,,,,,,,,2,,,53,0
14880,note_on,0,0,1,,,,,,,,,0,,,73,62
14880,note_on,480,0,4,,,,,,,,,3,,,46,0
14880,note_on,160,0,2,,,,,,,,,1,,,65,0
14880,note_on,1440,0,1,,,,,,,,,0,,,70,0
14880,note_on,0,0,3,,,,,,,,,2,,,49,49
14880,note_on,0,0,2,,,,,,,,,1,,,73,49
15039,note_on,0,0,3,,,,,,,,,2,,,58,49
15039,note_on,0,0,2,,,,,,,,,1,,,61,49
15039,note_on,159,0,2,,,,,,,,,1,,,73,0
15039,note_on,159,0,3,,,,,,,,,2,,,49,0
15200,note_on,0,0,2,,,,,,,,,1,,,65,49
15200,note_on,0,0,3,,,,,,,,,2,,,53,49
15200,note_on,161,0,2,,,,,,,,,1,,,61,0
15200,note_on,161,0,3,,,,,,,,,2,,,58,0
15360,note_on,0,0,2,,,,,,,,,1,,,72,49
15360,note_on,480,0,1,,,,,,,,,0,,,73,0
15360,note_on,160,0,2,,,,,,,,,1,,,65,0
15360,note_on,0,0,1,,,,,,,,,0,,,72,62
15360,note_on,480,0,4,,,,,,,,,3,,,49,0
15360,note_on,0,0,3,,,,,,,,,2,,,46,49
15360,control_change,0,0,1,,,,,,,,,0,64,127,,
15360,note_on,0,0,4,,,,,,,,,3,,,46,49
15360,note_on,160,0,3,,,,,,,,,2,,,53,0
15519,note_on,0,0,3,,,,,,,,,2,,,58,49
15519,note_on,0,0,2,,,,,,,,,1,,,61,49
15519,note_on,159,0,2,,,,,,,,,1,,,72,0
15519,note_on,159,0,3,,,,,,,,,2,,,46,0
15680,note_on,0,0,3,,,,,,,,,2,,,53,49
15680,note_on,161,0,2,,,,,,,,,1,,,61,0
15680,note_on,0,0,2,,,,,,,,,1,,,65,49
15680,note_on,161,0,3,,,,,,,,,2,,,58,0
15840,note_on,160,0,2,,,,,,,,,1,,,65,0
15840,note_on,480,0,1,,,,,,,,,0,,,72,0
15840,note_on,0,0,3,,,,,,,,,2,,,49,49
15840,note_on,480,0,4,,,,,,,,,3,,,46,0
15840,note_on,0,0,2,,,,,,,,,1,,,70,49
15840,note_on,160,0,3,,,,,,,,,2,,,53,0
15840,note_on,0,0,4,,,,,,,,,3,,,49,49
15840,note_on,0,0,1,,,,,,,,,0,,,70,62
15999,note_on,159,0,3,,,,,,,,,2,,,49,0
15999,note_on,0,0,2,,,,,,,,,1,,,61,49
15999,note_on,0,0,3,,,,,,,,,2,,,58,49
15999,note_on,159,0,2,,,,,,,,,1,,,70,0
16160,note_on,161,0,3,,,,,,,,,2,,,58,0
16160,note_on,0,0,2,,,,,,,,,1,,,65,49
16160,note_on,0,0,3,,,,,,,,,2,,,53,49
16160,note_on,161,0,2,,,,,,,,,1,,,61,0
16320,note_on,0,0,2,,,,,,,,,1,,,69,49
16320,note_on,480,0,1,,,,,,,,,0,,,70,0
16320,note_on,0,0,4,,,,,,,,,3,,,46,49
16320,note_on,480,0,4,,,,,,,,,3,,,49,0
16320,note_on,0,0,3,,,,,,,,,2,,,46,49
16320,note_on,160,0,2,,,,,,,,,1,,,65,0
16320,note_on,0,0,1,,,,,,,,,0,,,69,62
16320,note_on,160,0,3,,,,,,,,,2,,,53,0
16479,note_on,0,0,3,,,,,,,,,2,,,58,49
16479,note_on,0,0,2,,,,,,,,,1,,,61,49
16479,note_on,159,0,2,,,,,,,,,1,,,69,0
16479,note_on,159,0,3,,,,,,,,,2,,,46,0
16640,note_on,0,0,2,,,,,,,,,1,,,65,49
16640,note_on,161,0,2,,,,,,,,,1,,,61,0
16640,note_on,0,0,3,,,,,,,,,2,,,53,49
16640,note_on,161,0,3,,,,,,,,,2,,,58,0
16800,note_on,480,0,4,,,,,,,,,3,,,46,0
16800,note_on,160,0,3,,,,,,,,,2,,,53,0
16800,control_change,0,0,1,,,,,,,,,0,64,0,,
16800,note_on,160,0,2,,,,,,,,,1,,,65,0
16800,note_on,0,0,3,,,,,,,,,2,,,49,49
16800,note_on,0,0,2,,,,,,,,,1,,,70,49
16800,note_on,0,0,1,,,,,,,,,0,,,70,62
16800,note_on,480,0,1,,,,,,,,,0,,,69,0
16800,note_on,0,0,4,,,,,,,,,3,,,49,49
16959,note_on,159,0,3,,,,,,,,,2,,,49,0
16959,note_on,0,0,3,,,,,,,,,2,,,58,49
16959,note_on,0,0,2,,,,,,,,,1,,,61,49
16959,note_on,159,0,2,,,,,,,,,1,,,70,0
17120,note_on,161,0,2,,,,,,,,,1,,,61,0
17120,note_on,161,0,3,,,,,,,,,2,,,58,0
17120,note_on,0,0,3,,,,,,,,,2,,,53,49
17120,note_on,0,0,2,,,,,,,,,1,,,65,49
17280,note_on,0,0,1,,,,,,,,,0,,,75,62
17280,note_on,480,0,1,,,,,,,,,0,,,70,0
17280,note_on,0,0,2,,,,,,,,,1,,,75,49
17280,note_on,480,0,4,,,,,,,,,3,,,49,0
17280,note_on,0,0,4,,,,,,,,,3,,,46,49
17280,note_on,160,0,2,,,,,,,,,1,,,65,0
17280,note_on,160,0,3,,,,,,,,,2,,,53,0
17280,note_on,0,0,3,,,,,,,,,2,,,46,49
17439,note_on,159,0,2,,,,,,,,,1,,,75,0
17439,note_on,159,0,3,,,,,,,,,2,,,46,0
17439,note_on,0,0,2,,,,,,,,,1,,,63,49
17439,note_on,0,0,3,,,,,,,,,2,,,58,49
17600,note_on,0,0,3,,,,,,,,,2,,,54,49
17600,note_on,161,0,3,,,,,,,,,2,,,58,0
17600,note_on,161,0,2,,,,,,,,,1,,,63,0
17600,note_on,0,0,2,,,,,,,,,1,,,66,49
17760,note_on,0,0,4,,,,,,,,,3,,,51,49
17760,note_on,480,0,4,,,,,,,,,3,,,46,0
17760,note_on,0,0,3,,,,,,,,,2,,,51,49
17760,note_on,160,0,2,,,,,,,,,1,,,66,0
17760,note_on,0,0,2,,,,,,,,,1,,,70,49
17760,note_on,160,0,3,,,,,,,,,2,,,54,0
17919,note_on,0,0,3,,,,,,,,,2,,,58,49
17919,note_on,159,0,3,,,,,,,,,2,,,51,0
17919,note_on,0,0,2,,,,,,,,,1,,,63,49
17919,note_on,159,0,2,,,,,,,,,1,,,70,0
18080,note_on,0,0,3,,,,,,,,,2,,,54,49
18080,note_on,0,0,2,,,,,,,,,1,,,66,49
18080,note_on,161,0,2,,,,,,,,,1,,,63,0
18080,note_on,161,0,3,,,,,,,,,2,,,58,0
18240,note_on,160,0,3,,,,,,,,,2,,,54,0
18240,note_on,0,0,4,,,,,,,,,3,,,46,49
18240,note_on,480,0,4,,,,,,,,,3,,,51,0
18240,note_on,0,0,3,,,,,,,,,2,,,46,49
18240,note_on,0,0,2,,,,,,,,,1,,,70,49
18240,note_on,160,0,2,,,,,,,,,1,,,66,0
18399,note_on,0,0,3,,,,,,,,,2,,,58,49
18399,note_on,159,0,2,,,,,,,,,1,,,70,0
18399,note_on,159,0,3,,,,,,,,,2,,,46,0
18399,note_on,0,0,2,,,,,,,,,1,,,63,49
18560,note_on,0,0,2,,,,,,,,,1,,,66,49
18560,note_on,0,0,3,,,,,,,,,2,,,54,49
18560,note_on,161,0,2,,,,,,,,,1,,,63,0
18560,note_on,161,0,3,,,,,,,,,2,,,58,0
18720,note_on,0,0,3,,,,,,,,,2,,,51,49
18720,note_on,0,0,4,,,,,,,,,3,,,51,49
18720,note_on,1440,0,1,,,,,,,,,0,,,75,0
18720,note_on,0,0,2,,,,,,,,,1,,,78,49
18720,note_on,160,0,2,,,,,,,,,1,,,66,0
18720,note_on,0,0,1,,,,,,,,,0,,,78,62
18720,note_on,480,0,4,,,,,,,,,3,,,46,0
18720,note_on,160,0,3,,,,,,,,,2,,,54,0
18879,note_on,159,0,2,,,,,,,,,1,,,78,0
18879,note_on,159,0,3,,,,,,,,,2,,,51,0
18879,note_on,0,0,2,,,,,,,,,1,,,66,49
18879,note_on,0,0,3,,,,,,,,,2,,,58,49
19040,note_on,161,0,3,,,,,,,,,2,,,58,0
19040,note_on,0,0,3,,,,,,,,,2,,,54,49
19040,note_on,0,0,2,,,,,,,,,1,,,70,49
19040,note_on,161,0,2,,,,,,,,,1,,,66,0
19200,note_on,0,0,4,,,,,,,,,3,,,46,49
19200,control_change,0,0,1,,,,,,,,,0,64,127,,
19200,note_on,0,0,3,,,,,,,,,2,,,46,49
19200,note_on,480,0,1,,,,,,,,,0,,,78,0
19200,note_on,160,0,3,,,,,,,,,2,,,54,0
19200,note_on,480,0,4,,,,,,,,,3,,,51,0
19200,note_on,0,0,1,,,,,,,,,0,,,77,62
19200,note_on,160,0,2,,,,,,,,,1,,,70,0
19200,note_on,0,0,2,,,,,,,,,1,,,77,49
19359,note_on,159,0,3,,,,,,,,,2,,,46,0
19359,note_on,0,0,3,,,,,,,,,2,,,57,49
19359,note_on,159,0,2,,,,,,,,,1,,,77,0
19359,note_on,0,0,2,,,,,,,,,1,,,65,49
19520,note_on,0,0,2,,,,,,,,,1,,,69,49
19520,note_on,161,0,3,,,,,,,,,2,,,57,0
19520,note_on,0,0,3,,,,,,,,,2,,,53,49
19520,note_on,161,0,2,,,,,,,,,1,,,65,0
19680,note_on,0,0,1,,,,,,,,,0,,,75,62
19680,note_on,0,0,4,,,,,,,,,3,,,51,49
19680,note_on,160,0,2,,,,,,,,,1,,,69,0
19680,note_on,0,0,3,,,,,,,,,2,,,51,49
19680,note_on,160,0,3,,,,,,,,,2,,,53,0
19680,note_on,480,0,4,,,,,,,,,3,,,46,0
19680,note_on,0,0,2,,,,,,,,,1,,,75,49
19680,note_on,480,0,1,,,,,,,,,0,,,77,0
19839,note_on,0,0,2,,,,,,,,,1,,,63,49
19839,note_on,159,0,3,,,,,,,,,2,,,51,0
19839,note_on,159,0,2,,,,,,,,,1,,,75,0
19839,note_on,0,0,3,,,,,,,,,2,,,57,49
20000,note_on,161,0,2,,,,,,,,,1,,,63,0
20000,note_on,0,0,2,,,,,,,,,1,,,66,49
20000,note_on,0,0,3,,,,,,,,,2,,,54,49
20000,note_on,161,0,3,,,,,,,,,2,,,57,0
20160,note_on,160,0,2,,,,,,,,,1,,,66,0
20160,note_on,480,0,1,,,,,,,,,0,,,75,0
20160,note_on,0,0,4,,,,,,,,,3,,,46,49
20160,note_on,480,0,4,,,,,,,,,3,,,51,0
20160,note_on,0,0,2,,,,,,,,,1,,,73,49
20160,note_on,0,0,3,,,,,,,,,2,,,46,49
20160,note_on,0,0,1,,,,,,,,,0,,,73,62
20160,note_on,160,0,3,,,,,,,,,2,,,54,0
20319,note_on,0,0,3,,,,,,,,,2,,,57,49
20319,note_on,159,0,3,,,,,,,,,2,,,46,0
20319,note_on,159,0,2,,,,,,,,,1,,,73,0
20319,note_on,0,0,2,,,,,,,,,1,,,63,49
20480,note_on,0,0,2,,,,,,,,,1,,,65,49
20480,note_on,161,0,2,,,,,,,,,1,,,63,0
20480,note_on,161,0,3,,,,,,,,,2,,,57,0
20480,note_on,0,0,3,,,,,,,,,2,,,53,49
20640,note_on,0,0,2,,,,,,,,,1,,,72,49
20640,note_on,0,0,3,,,,,,,,,2,,,51,49
20640,note_on,480,0,4,,,,,,,,,3,,,46,0
20640,note_on,160,0,3,,,,,,,,,2,,,53,0
20640,note_on,0,0,1,,,,,,,,,0,,,72,62
20640,note_on,160,0,2,,,,,,,,,1,,,65,0
20640,note_on,0,0,4,,,,,,,,,3,,,51,49
20640,note_on,480,0,1,,,,,,,,,0,,,73,0
20799,note_on,0,0,3,,,,,,,,,2,,,57,49
20799,note_on,0,0,2,,,,,,,,,1,,,63,49
20799,note_on,159,0,3,,,,,,,,,2,,,51,0
20799,note_on,159,0,2,,,,,,,,,1,,,72,0
20960,note_on,0,0,3,,,,,,,,,2,,,54,49
20960,note_on,161,0,3,,,,,,,,,2,,,57,0
20960,note_on,0,0,2,,,,,,,,,1,,,65,49
20960,note_on,161,0,2,,,,,,,,,1,,,63,0
21120,note_on,0,0,1,,,,,,,,,0,,,70,62
21120,note_on,160,0,3,,,,,,,,,2,,,54,0
21120,note_on,480,0,4,,,,,,,,,3,,,51,0
21120,note_on,0,0,2,,,,,,,,,1,,,70,49
21120,note_on,480,0,1,,,,,,,,,0,,,72,0
21120,note_on,160,0,2,,,,,,,,,1,,,65,0
21120,note_on,0,0,3,,,,,,,,,2,,,46,49
21120,note_on,0,0,4,,,,,,,,,3,,,46,49
21120,control_change,0,0,1,,,,,,,,,0,64,0,,
21279,note_on,159,0,2,,,,,,,,,1,,,70,0
21279,note_on,159,0,3,,,,,,,,,2,,,46,0
21279,note_on,0,0,3,,,,,,,,,2,,,58,49
21279,note_on,0,0,2,,,,,,,,,1,,,61,49
21440,note_on,0,0,2,,,,,,,,,1,,,65,49
21440,note_on,161,0,2,,,,,,,,,1,,,61,0
21440,note_on,0,0,3,,,,,,,,,2,,,53,49
21440,note_on,161,0,3,,,,,,,,,2,,,58,0
21600,note_on,0,0,3,,,,,,,,,2,,,49,49
21600,note_on,160,0,2,,,,,,,,,1,,,65,0
21600,note_on,0,0,4,,,,,,,,,3,,,49,49
21600,note_on,480,0,4,,,,,,,,,3,,,46,0
21600,note_on,160,0,3,,,,,,,,,2,,,53,0
21600,note_on,0,0,2,,,,,,,,,1,,,61,49
21759,note_on,0,0,3,,,,,,,,,2,,,58,49
21759,note_on,0,0,2,,,,,,,,,1,,,65,49
21759,note_on,159,0,3,,,,,,,,,2,,,49,0
21759,note_on,159,0,2,,,,,,,,,1,,,61,0
21920,note_on,161,0,3,,,,,,,,,2,,,58,0
21920,note_on,0,0,3,,,,,,,,,2,,,53,49
21920,note_on,0,0,2,,,,,,,,,1,,,61,49
21920,note_on,161,0,2,,,,,,,,,1,,,65,0
22080,note_on,0,0,4,,,,,,,,,3,,,46,49
22080,note_on,480,0,4,,,,,,,,,3,,,49,0
22080,note_on,0,0,2,,,,,,,,,1,,,65,49
22080,note_on,0,0,3,,,,,,,,,2,,,46,49
22080,note_on,160,0,2,,,,,,,,,1,,,61,0
22080,note_on,160,0,3,,,,,,,,,2,,,53,0
22239,note_on,0,0,3,,,,,,,,,2,,,58,49
22239,note_on,159,0,3,,,,,,,,,2,,,46,0
22239,note_on,0,0,2,,,,,,,,,1,,,61,49
22239,note_on,159,0,2,,,,,,,,,1,,,65,0
22400,note_on,0,0,2,,,,,,,,,1,,,65,49
22400,note_on,161,0,3,,,,,,,,,2,,,58,0
22400,note_on,161,0,2,,,,,,,,,1,,,61,0
22400,note_on,0,0,3,,,,,,,,,2,,,53,49
22560,note_on,160,0,2,,,,,,,,,1,,,65,0
22560,note_on,0,0,4,,,,,,,,,3,,,49,49
22560,note_on,0,0,2,,,,,,,,,1,,,73,49
22560,note_on,1440,0,1,,,,,,,,,0,,,70,0
22560,note_on,160,0,3,,,,,,,,,2,,,53,0
22560,note_on,0,0,1,,,,,,,,,0,,,70,62
22560,note_on,480,0,4,,,,,,,,,3,,,46,0
22560,note_on,0,0,3,,,,,,,,,2,,,49,49
22719,note_on,159,0,3,,,,,,,,,2,,,49,0
22719,note_on,0,0,2,,,,,,,,,1,,,61,49
22719,note_on,0,0,3,,,,,,,,,2,,,58,49
22719,note_on,159,0,2,,,,,,,,,1,,,73,0
22880,note_on,0,0,2,,,,,,,,,1,,,65,49
22880,note_on,161,0,3,,,,,,,,,2,,,58,0
22880,note_on,161,0,2,,,,,,,,,1,,,61,0
22880,note_on,0,0,3,,,,,,,,,2,,,53,49
23040,note_on,0,0,3,,,,,,,,,2,,,48,49
23040,note_on,0,0,1,,,,,,,,,0,,,70,88
23040,note_on,480,0,1,,,,,,,,,0,,,70,0
23040,note_on,0,0,4,,,,,,,,,3,,,48,49
23040,note_on,160,0,2,,,,,,,,,1,,,65,0
23040,note_on,160,0,3,,,,,,,,,2,,,53,0
23040,note_on,0,0,2,,,,,,,,,1,,,70,49
23040,note_on,480,0,4,,,,,,,,,3,,,49,0
23199,note_on,159,0,2,,,,,,,,,1,,,70,0
23199,note_on,0,0,3,,,,,,,,,2,,,60,49
23199,note_on,159,0,3,,,,,,,,,2,,,48,0
23199,note_on,0,0,2,,,,,,,,,1,,,63,49
23360,note_on,161,0,2,,,,,,,,,1,,,63,0
23360,note_on,0,0,2,,,,,,,,,1,,,66,49
23360,note_on,0,0,3,,,,,,,,,2,,,56,49
23360,note_on,161,0,3,,,,,,,,,2,,,60,0
23520,note_on,0,0,2,,,,,,,,,1,,,68,49
23520,note_on,0,0,1,,,,,,,,,0,,,68,62
23520,note_on,0,0,4,,,,,,,,,3,,,51,49
23520,note_on,480,0,4,,,,,,,,,3,,,48,0
23520,note_on,160,0,2,,,,,,,,,1,,,66,0
23520,note_on,160,0,3,,,,,,,,,2,,,56,0
23520,note_on,0,0,3,,,,,,,,,2,,,51,49
23520,note_on,480,0,1,,,,,,,,,0,,,70,0
23679,note_on,0,0,2,,,,,,,,,1,,,63,49
23679,note_on,159,0,2,,,,,,,,,1,,,68,0
23679,note_on,159,0,3,,,,,,,,,2,,,51,0
23679,note_on,0,0,3,,,,,,,,,2,,,60,49
23840,note_on,161,0,3,,,,,,,,,2,,,60,0
23840,note_on,0,0,2,,,,,,,,,1,,,66,49
23840,note_on,161,0,2,,,,,,,,,1,,,63,0
23840,note_on,0,0,3,,,,,,,,,2,,,56,49
24000,note_on,480,0,1,,,,,,,,,0,,,68,0
24000,note_on,160,0,2,,,,,,,,,1,,,66,0
24000,note_on,0,0,1,,,,,,,,,0,,,70,62
24000,note_on,0,0,3,,,,,,,,,2,,,51,49
24000,note_on,480,0,4,,,,,,,,,3,,,51,0
24000,note_on,160,0,3,,,,,,,,,2,,,56,0
24000,note_on,0,0,4,,,,,,,,,3,,,51,49
24000,note_on,0,0,2,,,,,,,,,1,,,70,49
24159,note_on,0,0,3,,,,,,,,,2,,,60,49
24159,note_on,159,0,2,,,,,,,,,1,,,70,0
24159,note_on,0,0,2,,,,,,,,,1,,,63,49
24159,note_on,159,0,3,,,,,,,,,2,,,51,0
24320,note_on,0,0,3,,,,,,,,,2,,,56,49
24320,note_on,161,0,2,,,,,,,,,1,,,63,0
24320,note_on,0,0,2,,,,,,,,,1,,,66,49
24320,note_on,161,0,3,,,,,,,,,2,,,60,0
24480,note_on,0,0,1,,,,,,,,,0,,,68,62
24480,note_on,0,0,3,,,,,,,,,2,,,51,49
24480,note_on,480,0,4,,,,,,,,,3,,,51,0
24480,note_on,0,0,2,,,,,,,,,1,,,68,49
24480,note_on,160,0,2,,,,,,,,,1,,,66,0
24480,note_on,160,0,3,,,,,,,,,2,,,56,0
24480,note_on,0,0,4,,,,,,,,,3,,,51,49
24480,note_on,480,0,1,,,,,,,,,0,,,70,0
24639,note_on,0,0,3,,,,,,,,,2,,,60,49
24639,note_on,159,0,2,,,,,,,,,1,,,68,0
24639,note_on,159,0,3,,,,,,,,,2,,,51,0
24639,note_on,0,0,2,,,,,,,,,1,,,63,49
24800,note_on,0,0,2,,,,,,,,,1,,,66,49
24800,note_on,0,0,3,,,,,,,,,2,,,56,49
24800,note_on,161,0,3,,,,,,,,,2,,,60,0
24800,note_on,161,0,2,,,,,,,,,1,,,63,0
24960,note_on,0,0,3,,,,,,,,,2,,,49,49
24960,note_on,480,0,1,,,,,,,,,0,,,68,0
24960,note_on,0,0,2,,,,,,,,,1,,,76,49
24960,note_on,160,0,3,,,,,,,,,2,,,56,0
24960,note_on,480,0,4,,,,,,,,,3,,,51,0
24960,note_on,0,0,4,,,,,,,,,3,,,49,49
24960,note_on,0,0,1,,,,,,,,,0,,,76,62
24960,note_on,160,0,2,,,,,,,,,1,,,66,0
25119,note_on,159,0,2,,,,,,,,,1,,,76,0
25119,note_on,0,0,2,,,,,,,,,1,,,64,49
25119,note_on,159,0,3,,,,,,,,,2,,,49,0
25119,note_on,0,0,3,,,,,,,,,2,,,60,49
25280,note_on,161,0,3,,,,,,,,,2,,,60,0
25280,note_on,161,0,2,,,,,,,,,1,,,64,0
25280,note_on,0,0,2,,,,,,,,,1,,,68,49
25280,note_on,0,0,3,,,,,,,,,2,,,56,49
25440,note_on,160,0,3,,,,,,,,,2,,,56,0
25440,note_on,480,0,4,,,,,,,,,3,,,49,0
25440,note_on,0,0,2,,,,,,,,,1,,,64,49
25440,note_on,0,0,4,,,,,,,,,3,,,52,49
25440,note_on,160,0,2,,,,,,,,,1,,,68,0
25440,note_on,0,0,3,,,,,,,,,2,,,52,49
25599,note_on,0,0,3,,,,,,,,,2,,,60,49
25599,note_on,159,0,3,,,,,,,,,2,,,52,0
25599,note_on,0,0,2,,,,,,,,,1,,,68,49
25599,note_on,159,0,2,,,,,,,,,1,,,64,0
25760,note_on,0,0,2,,,,,,,,,1,,,64,49
25760,note_on,0,0,3,,,,,,,,,2,,,56,49
25760,note_on,161,0,3,,,,,,,,,2,,,60,0
25760,note_on,161,0,2,,,,,,,,,1,,,68,0
25920,note_on,160,0,2,,,,,,,,,1,,,64,0
25920,note_on,0,0,3,,,,,,,,,2,,,49,49
25920,note_on,960,0,1,,,,,,,,,0,,,76,0
25920,note_on,0,0,4,,,,,,,,,3,,,49,49
25920,note_on,0,0,1,,,,,,,,,0,,,77,62
25920,note_on,160,0,3,,,,,,,,,2,,,56,0
25920,note_on,480,0,4,,,,,,,,,3,,,52,0
25920,note_on,0,0,2,,,,,,,,,1,,,77,49
26079,note_on,159,0,2,,,,,,,,,1,,,77,0
26079,note_on,0,0,2,,,,,,,,,1,,,65,49
26079,note_on,159,0,3,,,,,,,,,2,,,49,0
26079,note_on,0,0,3,,,,,,,,,2,,,61,49
26240,note_on,0,0,3,,,,,,,,,2,,,56,49
26240,note_on,161,0,3,,,,,,,,,2,,,61,0
26240,note_on,0,0,2,,,,,,,,,1,,,68,49
26240,note_on,161,0,2,,,,,,,,,1,,,65,0
26400,note_on,0,0,4,,,,,,,,,3,,,53,49
26400,note_on,0,0,1,,,,,,,,,0,,,73,62
26400,note_on,160,0,2,,,,,,,,,1,,,68,0
26400,note_on,0,0,3,,,,,,,,,2,,,53,49
26400,note_on,480,0,4,,,,,,,,,3,,,49,0
26400,note_on,0,0,2,,,,,,,,,1,,,73,49
26400,note_on,160,0,3,,,,,,,,,2,,,56,0
26400,note_on,480,0,1,,,,,,,,,0,,,77,0
26559,note_on,159,0,3,,,,,,,,,2,,,53,0
26559,note_on,0,0,2,,,,,,,,,1,,,65,49
26559,note_on,0,0,3,,,,,,,,,2,,,61,49
26559,note_on,159,0,2,,,,,,,,,1,,,73,0
26720,note_on,161,0,2,,,,,,,,,1,,,65,0
26720,note_on,0,0,3,,,,,,,,,2,,,56,49
26720,note_on,0,0,2,,,,,,,,,1,,,68,49
26720,note_on,161,0,3,,,,,,,,,2,,,61,0
26880,note_on,0,0,3,,,,,,,,,2,,,48,49
26880,note_on,480,0,1,,,,,,,,,0,,,73,0
26880,note_on,0,0,4,,,,,,,,,3,,,48,49
26880,note_on,480,0,4,,,,,,,,,3,,,53,0
26880,note_on,0,0,2,,,,,,,,,1,,,70,49
26880,note_on,160,0,2,,,,,,,,,1,,,68,0
26880,note_on,160,0,3,,,,,,,,,2,,,56,0
26880,note_on,0,0,1,,,,,,,,,0,,,70,62
27039,note_on,159,0,3,,,,,,,,,2,,,48,0
27039,note_on,0,0,3,,,,,,,,,2,,,60,49
27039,note_on,159,0,2,,,,,,,,,1,,,70,0
27039,note_on,0,0,2,,,,,,,,,1,,,63,49
27200,note_on,161,0,3,,,,,,,,,2,,,60,0
27200,note_on,0,0,2,,,,,,,,,1,,,66,49
27200,note_on,0,0,3,,,,,,,,,2,,,56,49
27200,note_on,161,0,2,,,,,,,,,1,,,63,0
27360,note_on,160,0,2,,,,,,,,,1,,,66,0
27360,note_on,0,0,2,,,,,,,,,1,,,68,49
27360,note_on,0,0,1,,,,,,,,,0,,,68,62
27360,note_on,160,0,3,,,,,,,,,2,,,56,0
27360,note_on,0,0,4,,,,,,,,,3,,,51,49
27360,note_on,0,0,3,,,,,,,,,2,,,51,49
27360,note_on,480,0,4,,,,,,,,,3,,,48,0
27360,note_on,480,0,1,,,,,,,,,0,,,70,0
27519,note_on,0,0,2,,,,,,,,,1,,,63,49
27519,note_on,159,0,2,,,,,,,,,1,,,68,0
27519,note_on,159,0,3,,,,,,,,,2,,,51,0
27519,note_on,0,0,3,,,,,,,,,2,,,60,49
27680,note_on,161,0,2,,,,,,,,,1,,,63,0
27680,note_on,0,0,3,,,,,,,,,2,,,56,49
27680,note_on,0,0,2,,,,,,,,,1,,,66,49
27680,note_on,161,0,3,,,,,,,,,2,,,60,0
27840,note_on,0,0,2,,,,,,,,,1,,,72,49
27840,note_on,160,0,2,,,,,,,,,1,,,66,0
27840,note_on,480,0,4,,,,,,,,,3,,,51,0
27840,note_on,160,0,3,,,,,,,,,2,,,56,0
27840,note_on,0,0,1,,,,,,,,,0,,,69,62
27840,note_on,480,0,1,,,,,,,,,0,,,68,0
27840,note_on,0,0,3,,,,,,,,,2,,,48,49
27840,note_on,0,0,4,,,,,,,,,3,,,48,49
27999,note_on,159,0,2,,,,,,,,,1,,,72,0
27999,note_on,0,0,2,,,,,,,,,1,,,63,49
27999,note_on,0,0,3,,,,,,,,,2,,,60,49
27999,note_on,159,0,3,,,,,,,,,2,,,48,0
28160,note_on,0,0,3,,,,,,,,,2,,,56,49
28160,note_on,161,0,3,,,,,,,,,2,,,60,0
28160,note_on,161,0,2,,,,,,,,,1,,,63,0
28160,note_on,0,0,2,,,,,,,,,1,,,66,49
28320,note_on,0,0,3,,,,,,,,,2,,,51,49
28320,note_on,0,0,4,,,,,,,,,3,,,51,49
28320,note_on,160,0,2,,,,,,,,,1,,,66,0
28320,note_on,0,0,1,,,,,,,,,0,,,68,62
28320,note_on,480,0,1,,,,,,,,,0,,,69,0
28320,note_on,160,0,3,,,,,,,,,2,,,56,0
28320,note_on,480,0,4,,,,,,,,,3,,,48,0
28320,note_on,0,0,2,,,,,,,,,1,,,68,49
28479,note_on,159,0,3,,,,,,,,,2,,,51,0
28479,note_on,0,0,3,,,,,,,,,2,,,60,49
28479,note_on,159,0,2,,,,,,,,,1,,,68,0
28479,note_on,0,0,2,,,,,,,,,1,,,63,49
28640,note_on,0,0,3,,,,,,,,,2,,,56,49
28640,note_on,161,0,3,,,,,,,,,2,,,60,0
28640,note_on,161,0,2,,,,,,,,,1,,,63,0
28640,note_on,0,0,2,,,,,,,,,1,,,66,49
28800,note_on,480,0,1,,,,,,,,,0,,,68,0
28800,note_on,0,0,3,,,,,,,,,2,,,49,49
28800,note_on,0,0,1,,,,,,,,,0,,,68,62
28800,note_on,160,0,3,,,,,,,,,2,,,56,0
28800,note_on,480,0,4,,,,,,,,,3,,,51,0
28800,note_on,160,0,2,,,,,,,,,1,,,66,0
28800,note_on,0,0,4,,,,,,,,,3,,,49,49
28800,note_on,0,0,2,,,,,,,,,1,,,68,49
28959,note_on,159,0,2,,,,,,,,,1,,,68,0
28959,note_on,0,0,3,,,,,,,,,2,,,61,49
28959,note_on,0,0,2,,,,,,,,,1,,,65,49
28959,note_on,159,0,3,,,,,,,,,2,,,49,0
29120,note_on,161,0,3,,,,,,,,,2,,,61,0
29120,note_on,0,0,3,,,,,,,,,2,,,56,49
29120,note_on,161,0,2,,,,,,,,,1,,,65,0
29120,note_on,0,0,2,,,,,,,,,1,,,68,49
29280,note_on,160,0,2,,,,,,,,,1,,,68,0
29280,note_on,480,0,4,,,,,,,,,3,,,49,0
29280,note_on,0,0,3,,,,,,,,,2,,,37,49
29280,note_on,0,0,2,,,,,,,,,1,,,77,49
29280,note_on,0,0,1,,,,,,,,,0,,,77,62
29280,note_on,160,0,3,,,,,,,,,2,,,56,0
29280,note_on,480,0,1,,,,,,,,,0,,,68,0
29280,note_on,0,0,4,,,,,,,,,3,,,37,49
29439,note_on,0,0,2,,,,,,,,,1,,,65,49
29439,note_on,159,0,2,,,,,,,,,1,,,77,0
29439,note_on,0,0,3,,,,,,,,,2,,,44,49
29439,note_on,159,0,3,,,,,,,,,2,,,37,0
29600,note_on,0,0,2,,,,,,,,,1,,,68,49
29600,note_on,0,0,3,,,,,,,,,2,,,49,49
29600,note_on,161,0,2,,,,,,,,,1,,,65,0
29600,note_on,161,0,3,,,,,,,,,2,,,44,0
29760,note_on,0,0,3,,,,,,,,,2,,,37,49
29760,note_on,0,0,1,,,,,,,,,0,,,77,62
29760,note_on,160,0,3,,,,,,,,,2,,,49,0
29760,note_on,480,0,4,,,,,,,,,3,,,37,0
29760,note_on,480,0,1,,,,,,,,,0,,,77,0
29760,note_on,0,0,4,,,,,,,,,3,,,37,49
29760,note_on,160,0,2,,,,,,,,,1,,,68,0
29760,note_on,0,0,2,,,,,,,,,1,,,77,49
29919,note_on,159,0,2,,,,,,,,,1,,,77,0
29919,note_on,0,0,3,,,,,,,,,2,,,44,49
29919,note_on,159,0,3,,,,,,,,,2,,,37,0
29919,note_on,0,0,2,,,,,,,,,1,,,65,49
30080,note_on,161,0,2,,,,,,,,,1,,,65,0
30080,note_on,0,0,3,,,,,,,,,2,,,49,49
30080,note_on,161,0,3,,,,,,,,,2,,,44,0
30080,note_on,0,0,2,,,,,,,,,1,,,68,49
30240,note_on,480,0,1,,,,,,,,,0,,,77,0
30240,note_on,0,0,1,,,,,,,,,0,,,75,75
30240,note_on,160,0,2,,,,,,,,,1,,,68,0
30240,note_on,160,0,3,,,,,,,,,2,,,49,0
30240,note_on,0,0,4,,,,,,,,,3,,,39,62
30240,note_on,480,0,4,,,,,,,,,3,,,37,0
30240,note_on,0,0,2,,,,,,,,,1,,,75,62
30240,note_on,0,0,3,,,,,,,,,2,,,39,62
30399,note_on,0,0,3,,,,,,,,,2,,,48,62
30399,note_on,159,0,3,,,,,,,,,2,,,39,0
30399,note_on,159,0,2,,,,,,,,,1,,,75,0
30399,note_on,0,0,2,,,,,,,,,1,,,63,62
30560,note_on,0,0,3,,,,,,,,,2,,,51,62
30560,note_on,161,0,2,,,,,,,,,1,,,63,0
30560,note_on,161,0,3,,,,,,,,,2,,,48,0
30560,note_on,0,0,2,,,,,,,,,1,,,66,62
30720,note_on,0,0,4,,,,,,,,,3,,,39,62
30720,note_on,480,0,1,,,,,,,,,0,,,75,0
30720,note_on,160,0,3,,,,,,,,,2,,,51,0
30720,note_on,0,0,3,,,,,,,,,2,,,39,62
30720,note_on,0,0,2,,,,,,,,,1,,,75,62
30720,note_on,160,0,2,,,,,,,,,1,,,66,0
30720,note_on,480,0,4,,,,,,,,,3,,,39,0
30720,note_on,0,0,1,,,,,,,,,0,,,75,75
30879,note_on,0,0,2,,,,,,,,,1,,,63,62
30879,note_on,159,0,3,,,,,,,,,2,,,39,0
30879,note_on,0,0,3,,,,,,,,,2,,,48,62
30879,note_on,159,0,2,,,,,,,,,1,,,75,0
31040,note_on,0,0,3,,,,,,,,,2,,,51,62
31040,note_on,161,0,3,,,,,,,,,2,,,48,0
31040,note_on,0,0,2,,,,,,,,,1,,,66,62
31040,note_on,161,0,2,,,,,,,,,1,,,63,0
31200,note_on,0,0,2,,,,,,,,,1,,,73,62
31200,note_on,0,0,4,,,,,,,,,3,,,41,62
31200,note_on,0,0,1,,,,,,,,,0,,,73,75
31200,note_on,160,0,3,,,,,,,,,2,,,51,0
31200,note_on,160,0,2,,,,,,,,,1,,,66,0
31200,note_on,0,0,3,,,,,,,,,2,,,41,62
31200,note_on,480,0,1,,,,,,,,,0,,,75,0
31200,note_on,480,0,4,,,,,,,,,3,,,39,0
31359,note_on,0,0,3,,,,,,,,,2,,,49,62
31359,note_on,0,0,2,,,,,,,,,1,,,61,62
31359,note_on,159,0,3,,,,,,,,,2,,,41,0
31359,note_on,159,0,2,,,,,,,,,1,,,73,0
31520,note_on,161,0,2,,,,,,,,,1,,,61,0
31520,note_on,161,0,3,,,,,,,,,2,,,49,0
31520,note_on,0,0,2,,,,,,,,,1,,,65,62
31520,note_on,0,0,3,,,,,,,,,2,,,53,62
31680,note_on,480,0,1,,,,,,,,,0,,,73,0
31680,note_on,0,0,3,,,,,,,,,2,,,41,62
31680,note_on,0,0,2,,,,,,,,,1,,,73,62
31680,note_on,0,0,4,,,,,,,,,3,,,41,62
31680,note_on,160,0,2,,,,,,,,,1,,,65,0
31680,note_on,480,0,4,,,,,,,,,3,,,41,0
31680,note_on,0,0,1,,,,,,,,,0,,,73,75
31680,note_on,160,0,3,,,,,,,,,2,,,53,0
31839,note_on,0,0,2,,,,,,,,,1,,,61,62
31839,note_on,0,0,3,,,,,,,,,2,,,49,62
31839,note_on,159,0,3,,,,,,,,,2,,,41,0
31839,note_on,159,0,2,,,,,,,,,1,,,73,0
32000,note_on,161,0,2,,,,,,,,,1,,,61,0
32000,note_on,0,0,2,,,,,,,,,1,,,65,62
32000,note_on,161,0,3,,,,,,,,,2,,,49,0
32000,note_on,0,0,3,,,,,,,,,2,,,53,62
32160,note_on,0,0,3,,,,,,,,,2,,,41,49
32160,note_on,480,0,1,,,,,,,,,0,,,73,0
32160,note_on,0,0,1,,,,,,,,,0,,,72,62
32160,note_on,160,0,2,,,,,,,,,1,,,65,0
32160,note_on,480,0,4,,,,,,,,,3,,,41,0
32160,note_on,0,0,2,,,,,,,,,1,,,72,49
32160,note_on,160,0,3,,,,,,,,,2,,,53,0
32160,note_on,0,0,4,,,,,,,,,3,,,41,49
32319,note_on,0,0,3,,,,,,,,,2,,,49,49
32319,note_on,0,0,2,,,,,,,,,1,,,61,49
32319,note_on,159,0,2,,,,,,,,,1,,,72,0
32319,note_on,159,0,3,,,,,,,,,2,,,41,0
32480,note_on,0,0,2,,,,,,,,,1,,,65,49
32480,note_on,161,0,2,,,,,,,,,1,,,61,0
32480,note_on,0,0,3,,,,,,,,,2,,,53,49
32480,note_on,161,0,3,,,,,,,,,2,,,49,0
32640,note_on,160,0,3,,,,,,,,,2,,,53,0
32640,note_on,0,0,1,,,,,,,,,0,,,72,75
32640,note_on,160,0,2,,,,,,,,,1,,,65,0
32640,note_on,0,0,2,,,,,,,,,1,,,72,62
32640,note_on,0,0,3,,,,,,,,,2,,,42,62
32640,note_on,0,0,4,,,,,,,,,3,,,42,62
32640,note_on,480,0,1,,,,,,,,,0,,,72,0
32640,note_on,480,0,4,,,,,,,,,3,,,41,0
32799,note_on,159,0,2,,,,,,,,,1,,,72,0
32799,note_on,159,0,3,,,,,,,,,2,,,42,0
32799,note_on,0,0,3,,,,,,,,,2,,,49,62
32799,note_on,0,0,2,,,,,,,,,1,,,61,62
32960,note_on,0,0,2,,,,,,,,,1,,,66,62
32960,note_on,0,0,3,,,,,,,,,2,,,54,62
32960,note_on,161,0,2,,,,,,,,,1,,,61,0
32960,note_on,161,0,3,,,,,,,,,2,,,49,0
33120,note_on,480,0,4,,,,,,,,,3,,,42,0
33120,note_on,160,0,3,,,,,,,,,2,,,54,0
33120,note_on,160,0,2,,,,,,,,,1,,,66,0
33120,note_on,0,0,1,,,,,,,,,0,,,70,75
33120,note_on,0,0,4,,,,,,,,,3,,,42,62
33120,note_on,0,0,3,,,,,,,,,2,,,42,62
33120,note_on,480,0,1,,,,,,,,,0,,,72,0
33120,note_on,0,0,2,,,,,,,,,1,,,70,62
33279,note_on,159,0,2,,,,,,,,,1,,,70,0
33279,note_on,0,0,2,,,,,,,,,1,,,61,62
33279,note_on,159,0,3,,,,,,,,,2,,,42,0
33279,note_on,0,0,3,,,,,,,,,2,,,49,62
33440,note_on,0,0,3,,,,,,,,,2,,,54,62
33440,note_on,161,0,3,,,,,,,,,2,,,49,0
33440,note_on,161,0,2,,,,,,,,,1,,,61,0
33440,note_on,0,0,2,,,,,,,,,1,,,66,62
33600,note_on,0,0,3,,,,,,,,,2,,,41,88
33600,note_on,0,0,1,,,,,,,,,0,,,71,75
33600,note_on,0,0,4,,,,,,,,,3,,,41,88
33600,note_on,160,0,2,,,,,,,,,1,,,66,0
33600,note_on,0,0,2,,,,,,,,,1,,,71,62
33600,note_on,160,0,3,,,,,,,,,2,,,54,0
33600,note_on,480,0,4,,,,,,,,,3,,,42,0
33600,note_on,480,0,1,,,,,,,,,0,,,70,0
33759,note_on,159,0,3,,,,,,,,,2,,,41,0
33759,note_on,0,0,3,,,,,,,,,2,,,46,62
33759,note_on,159,0,2,,,,,,,,,1,,,71,0
33759,note_on,0,0,2,,,,,,,,,1,,,62,62
33920,note_on,161,0,2,,,,,,,,,1,,,62,0
33920,note_on,161,0,3,,,,,,,,,2,,,46,0
33920,note_on,0,0,2,,,,,,,,,1,,,68,62
33920,note_on,0,0,3,,,,,,,,,2,,,53,62
34080,note_on,160,0,2,,,,,,,,,1,,,68,0
34080,note_on,0,0,4,,,,,,,,,3,,,41,62
34080,note_on,480,0,4,,,,,,,,,3,,,41,0
34080,note_on,160,0,3,,,,,,,,,2,,,53,0
34080,note_on,0,0,1,,,,,,,,,0,,,70,75
34080,note_on,0,0,2,,,,,,,,,1,,,70,62
34080,note_on,0,0,3,,,,,,,,,2,,,41,62
34080,note_on,480,0,1,,,,,,,,,0,,,71,0
34239,note_on,0,0,2,,,,,,,,,1,,,62,62
34239,note_on,159,0,2,,,,,,,,,1,,,70,0
34239,note_on,159,0,3,,,,,,,,,2,,,41,0
34239,note_on,0,0,3,,,,,,,,,2,,,46,62
34400,note_on,161,0,3,,,,,,,,,2,,,46,0
34400,note_on,0,0,3,,,,,,,,,2,,,53,62
34400,note_on,0,0,2,,,,,,,,,1,,,68,62
34400,note_on,161,0,2,,,,,,,,,1,,,62,0
34560,note_on,160,0,2,,,,,,,,,1,,,68,0
34560,note_on,480,0,4,,,,,,,,,3,,,41,0
34560,note_on,0,0,1,,,,,,,,,0,,,70,75
34560,note_on,0,0,2,,,,,,,,,1,,,70,62
34560,note_on,160,0,3,,,,,,,,,2,,,53,0
34560,note_on,0,0,4,,,,,,,,,3,,,39,62
34560,note_on,0,0,3,,,,,,,,,2,,,39,62
34560,note_on,480,0,1,,,,,,,,,0,,,70,0
34719,note_on,0,0,2,,,,,,,,,1,,,63,62
34719,note_on,0,0,3,,,,,,,,,2,,,46,62
34719,note_on,159,0,3,,,,,,,,,2,,,39,0
34719,note_on,159,0,2,,,,,,,,,1,,,70,0
34880,note_on,161,0,3,,,,,,,,,2,,,46,0
34880,note_on,0,0,2,,,,,,,,,1,,,66,62
34880,note_on,0,0,3,,,,,,,,,2,,,51,62
34880,note_on,161,0,2,,,,,,,,,1,,,63,0
35040,note_on,480,0,1,,,,,,,,,0,,,70,0
35040,note_on,0,0,3,,,,,,,,,2,,,39,75
35040,note_on,160,0,2,,,,,,,,,1,,,66,0
35040,note_on,160,0,3,,,,,,,,,2,,,51,0
35040,note_on,480,0,4,,,,,,,,,3,,,39,0
35040,note_on,0,0,1,,,,,,,,,0,,,78,88
35040,note_on,0,0,2,,,,,,,,,1,,,78,75
35040,note_on,0,0,4,,,,,,,,,3,,,39,75
35199,note_on,159,0,3,,,,,,,,,2,,,39,0
35199,note_on,159,0,2,,,,,,,,,1,,,78,0
35199,note_on,0,0,3,,,,,,,,,2,,,46,75
35199,note_on,0,0,2,,,,,,,,,1,,,66,75
35360,note_on,161,0,2,,,,,,,,,1,,,66,0
35360,note_on,0,0,3,,,,,,,,,2,,,51,75
35360,note_on,0,0,2,,,,,,,,,1,,,70,75
35360,note_on,161,0,3,,,,,,,,,2,,,46,0
35520,note_on,0,0,2,,,,,,,,,1,,,78,75
35520,note_on,0,0,3,,,,,,,,,2,,,39,75
35520,note_on,0,0,1,,,,,,,,,0,,,78,88
35520,note_on,480,0,4,,,,,,,,,3,,,39,0
35520,note_on,160,0,2,,,,,,,,,1,,,70,0
35520,note_on,480,0,1,,,,,,,,,0,,,78,0
35520,note_on,160,0,3,,,,,,,,,2,,,51,0
35520,note_on,0,0,4,,,,,,,,,3,,,39,75
35679,note_on,0,0,3,,,,,,,,,2,,,46,75
35679,note_on,0,0,2,,,,,,,,,1,,,66,75
35679,note_on,159,0,2,,,,,,,,,1,,,78,0
35679,note_on,159,0,3,,,,,,,,,2,,,39,0
35840,note_on,0,0,2,,,,,,,,,1,,,70,75
35840,note_on,0,0,3,,,,,,,,,2,,,51,75
35840,note_on,161,0,2,,,,,,,,,1,,,66,0
35840,note_on,161,0,3,,,,,,,,,2,,,46,0
36000,note_on,480,0,1,,,,,,,,,0,,,78,0
36000,note_on,0,0,3,,,,,,,,,2,,,41,75
36000,note_on,0,0,2,,,,,,,,,1,,,77,75
36000,note_on,0,0,4,,,,,,,,,3,,,41,75
36000,note_on,0,0,1,,,,,,,,,0,,,77,88
36000,note_on,160,0,3,,,,,,,,,2,,,51,0
36000,note_on,160,0,2,,,,,,,,,1,,,70,0
36000,note_on,480,0,4,,,,,,,,,3,,,39,0
36159,note_on,0,0,2,,,,,,,,,1,,,65,75
36159,note_on,0,0,3,,,,,,,,,2,,,46,75
36159,note_on,159,0,3,,,,,,,,,2,,,41,0
36159,note_on,159,0,2,,,,,,,,,1,,,77,0
36320,note_on,161,0,2,,,,,,,,,1,,,65,0
36320,note_on,0,0,2,,,,,,,,,1,,,68,75
36320,note_on,161,0,3,,,,,,,,,2,,,46,0
36320,note_on,0,0,3,,,,,,,,,2,,,53,75
36480,note_on,0,0,2,,,,,,,,,1,,,77,75
36480,note_on,480,0,1,,,,,,,,,0,,,77,0
36480,note_on,0,0,4,,,,,,,,,3,,,41,75
36480,note_on,160,0,2,,,,,,,,,1,,,68,0
36480,note_on,160,0,3,,,,,,,,,2,,,53,0
36480,note_on,0,0,1,,,,,,,,,0,,,77,88
36480,note_on,0,0,3,,,,,,,,,2,,,41,75
36480,note_on,480,0,4,,,,,,,,,3,,,41,0
36639,note_on,0,0,3,,,,,,,,,2,,,46,75
36639,note_on,159,0,3,,,,,,,,,2,,,41,0
36639,note_on,0,0,2,,,,,,,,,1,,,65,75
36639,note_on,159,0,2,,,,,,,,,1,,,77,0
36800,note_on,0,0,2,,,,,,,,,1,,,68,75
36800,note_on,0,0,3,,,,,,,,,2,,,53,75
36800,note_on,161,0,2,,,,,,,,,1,,,65,0
36800,note_on,161,0,3,,,,,,,,,2,,,46,0
36960,note_on,160,0,2,,,,,,,,,1,,,68,0
36960,note_on,0,0,2,,,,,,,,,1,,,75,75
36960,note_on,480,0,4,,,,,,,,,3,,,41,0
36960,note_on,480,0,1,,,,,,,,,0,,,77,0
36960,note_on,0,0,4,,,,,,,,,3,,,42,75
36960,note_on,160,0,3,,,,,,,,,2,,,53,0
36960,note_on,0,0,1,,,,,,,,,0,,,75,88
36960,note_on,0,0,3,,,,,,,,,2,,,42,75
37119,note_on,0,0,3,,,,,,,,,2,,,51,75
37119,note_on,159,0,2,,,,,,,,,1,,,75,0
37119,note_on,0,0,2,,,,,,,,,1,,,63,75
37119,note_on,159,0,3,,,,,,,,,2,,,42,0
37280,note_on,161,0,3,,,,,,,,,2,,,51,0
37280,note_on,0,0,3,,,,,,,,,2,,,54,75
37280,note_on,0,0,2,,,,,,,,,1,,,66,75
37280,note_on,161,0,2,,,,,,,,,1,,,63,0
37440,note_on,160,0,2,,,,,,,,,1,,,66,0
37440,note_on,480,0,1,,,,,,,,,0,,,75,0
37440,note_on,0,0,4,,,,,,,,,3,,,42,75
37440,note_on,0,0,3,,,,,,,,,2,,,42,75
37440,note_on,160,0,3,,,,,,,,,2,,,54,0
37440,note_on,0,0,2,,,,,,,,,1,,,75,75
37440,note_on,480,0,4,,,,,,,,,3,,,42,0
37440,note_on,0,0,1,,,,,,,,,0,,,75,88
37599,note_on,159,0,3,,,,,,,,,2,,,42,0
37599,note_on,159,0,2,,,,,,,,,1,,,75,0
37599,note_on,0,0,2,,,,,,,,,1,,,63,75
37599,note_on,0,0,3,,,,,,,,,2,,,51,75
37760,note_on,0,0,2,,,,,,,,,1,,,66,75
37760,note_on,161,0,3,,,,,,,,,2,,,51,0
37760,note_on,161,0,2,,,,,,,,,1,,,63,0
37760,note_on,0,0,3,,,,,,,,,2,,,54,75
37920,note_on,160,0,3,,,,,,,,,2,,,54,0
37920,note_on,0,0,2,,,,,,,,,1,,,73,75
37920,note_on,0,0,4,,,,,,,,,3,,,43,75
37920,note_on,0,0,3,,,,,,,,,2,,,43,75
37920,note_on,480,0,4,,,,,,,,,3,,,42,0
37920,note_on,480,0,1,,,,,,,,,0,,,75,0
37920,note_on,0,0,1,,,,,,,,,0,,,73,88
37920,note_on,160,0,2,,,,,,,,,1,,,66,0
38079,note_on,0,0,3,,,,,,,,,2,,,52,75
38079,note_on,159,0,3,,,,,,,,,2,,,43,0
38079,note_on,0,0,2,,,,,,,,,1,,,61,75
38079,note_on,159,0,2,,,,,,,,,1,,,73,0
38240,note_on,161,0,2,,,,,,,,,1,,,61,0
38240,note_on,0,0,2,,,,,,,,,1,,,64,75
38240,note_on,0,0,3,,,,,,,,,2,,,55,75
38240,note_on,161,0,3,,,,,,,,,2,,,52,0
38400,note_on,0,0,3,,,,,,,,,2,,,44,75
38400,note_on,480,0,1,,,,,,,,,0,,,73,0
38400,note_on,0,0,1,,,,,,,,,0,,,72,88
38400,note_on,0,0,2,,,,,,,,,1,,,72,75
38400,note_on,160,0,2,,,,,,,,,1,,,64,0
38400,note_on,160,0,3,,,,,,,,,2,,,55,0
38400,note_on,480,0,4,,,,,,,,,3,,,43,0
38400,note_on,0,0,4,,,,,,,,,3,,,44,75
38559,note_on,0,0,3,,,,,,,,,2,,,56,75
38559,note_on,159,0,3,,,,,,,,,2,,,44,0
38559,note_on,159,0,2,,,,,,,,,1,,,72,0
38559,note_on,0,0,2,,,,,,,,,1,,,60,75
38640,set_tempo,38629,1,0,,,,,,337079,,,,,,,
38720,note_on,0,0,2,,,,,,,,,1,,,63,75
38720,note_on,0,0,3,,,,,,,,,2,,,51,75
38720,note_on,161,0,2,,,,,,,,,1,,,60,0
38720,note_on,161,0,3,,,,,,,,,2,,,56,0
38880,note_on,0,0,2,,,,,,,,,1,,,68,75
38880,note_on,160,0,3,,,,,,,,,2,,,51,0
38880,note_on,0,0,4,,,,,,,,,3,,,48,75
38880,note_on,160,0,2,,,,,,,,,1,,,63,0
38880,note_on,480,0,4,,,,,,,,,3,,,44,0
38880,note_on,0,0,3,,,,,,,,,2,,,48,75
38880,set_tempo,240,1,0,,,,,,348837,,,,,,,
39039,note_on,0,0,3,,,,,,,,,2,,,56,75
39039,note_on,0,0,2,,,,,,,,,1,,,60,75
39039,note_on,159,0,3,,,,,,,,,2,,,48,0
39039,note_on,159,0,2,,,,,,,,,1,,,68,0
39120,set_tempo,240,1,0,,,,,,361446,,,,,,,
39200,note_on,161,0,2,,,,,,,,,1,,,60,0
39200,note_on,0,0,2,,,,,,,,,1,,,63,75
39200,note_on,161,0,3,,,,,,,,,2,,,56,0
39200,note_on,0,0,3,,,,,,,,,2,,,51,75
39360,set_tempo,240,1,0,,,,,,379747,,,,,,,
39360,note_on,480,0,4,,,,,,,,,3,,,48,0
39360,note_on,160,0,2,,,,,,,,,1,,,63,0
39360,note_on,0,0,3,,,,,,,,,2,,,44,62
39360,note_on,160,0,3,,,,,,,,,2,,,51,0
39360,note_on,0,0,4,,,,,,,,,3,,,44,62
39360,note_on,0,0,2,,,,,,,,,1,,,68,62
39519,note_on,0,0,2,,,,,,,,,1,,,60,62
39519,note_on,0,0,3,,,,,,,,,2,,,56,62
39519,note_on,159,0,2,,,,,,,,,1,,,68,0
39519,note_on,159,0,3,,,,,,,,,2,,,44,0
39600,set_tempo,240,1,0,,,,,,394737,,,,,,,
39680,note_on,0,0,3,,,,,,,,,2,,,51,62
39680,note_on,161,0,2,,,,,,,,,1,,,60,0
39680,note_on,0,0,2,,,,,,,,,1,,,63,62
39680,note_on,161,0,3,,,,,,,,,2,,,56,0
39840,note_on,0,0,4,,,,,,,,,3,,,48,62
39840,note_on,160,0,2,,,,,,,,,1,,,63,0
39840,note_on,1440,0,1,,,,,,,,,0,,,72,0
39840,note_on,160,0,3,,,,,,,,,2,,,51,0
39840,note_on,0,0,2,,,,,,,,,1,,,68,62
39840,note_on,480,0,4,,,,,,,,,3,,,44,0
39840,note_on,0,0,1,,,,,,,,,0,,,68,75
39840,note_on,0,0,3,,,,,,,,,2,,,48,62
39840,set_tempo,240,1,0,,,,,,410959,,,,,,,
39999,note_on,0,0,2,,,,,,,,,1,,,60,62
39999,note_on,159,0,2,,,,,,,,,1,,,68,0
39999,note_on,159,0,3,,,,,,,,,2,,,48,0
39999,note_on,0,0,3,,,,,,,,,2,,,56,62
40080,set_tempo,240,1,0,,,,,,428571,,,,,,,
40160,note_on,161,0,3,,,,,,,,,2,,,56,0
40160,note_on,0,0,2,,,,,,,,,1,,,63,62
40160,note_on,0,0,3,,,,,,,,,2,,,51,62
40160,note_on,161,0,2,,,,,,,,,1,,,60,0
40320,note_on,0,0,4,,,,,,,,,3,,,45,49
40320,note_on,160,0,2,,,,,,,,,1,,,63,0
40320,note_on,0,0,1,,,,,,,,,0,,,78,62
40320,note_on,480,0,1,,,,,,,,,0,,,68,0
40320,note_on,160,0,3,,,,,,,,,2,,,51,0
40320,set_tempo,240,1,0,,,,,,454545,,,,,,,
40320,note_on,480,0,4,,,,,,,,,3,,,48,0
40320,note_on,0,0,3,,,,,,,,,2,,,45,49
40320,note_on,0,0,2,,,,,,,,,1,,,78,49
40377,set_tempo,57,1,0,,,,,,326087,,,,,,,
40479,note_on,159,0,2,,,,,,,,,1,,,78,0
40479,note_on,159,0,3,,,,,,,,,2,,,45,0
40479,note_on,0,0,2,,,,,,,,,1,,,63,49
40479,note_on,0,0,3,,,,,,,,,2,,,61,49
40640,note_on,161,0,3,,,,,,,,,2,,,61,0
40640,note_on,0,0,2,,,,,,,,,1,,,66,49
40640,note_on,0,0,3,,,,,,,,,2,,,57,49
40640,note_on,161,0,2,,,,,,,,,1,,,63,0
40800,note_on,0,0,2,,,,,,,,,1,,,69,49
40800,note_on,480,0,4,,,,,,,,,3,,,45,0
40800,note_on,160,0,3,,,,,,,,,2,,,57,0
40800,note_on,0,0,3,,,,,,,,,2,,,54,49
40800,note_on,160,0,2,,,,,,,,,1,,,66,0
40800,note_on,0,0,4,,,,,,,,,3,,,54,49
40959,note_on,0,0,2,,,,,,,,,1,,,63,49
40959,note_on,159,0,2,,,,,,,,,1,,,69,0
40959,note_on,159,0,3,,,,,,,,,2,,,54,0
40959,note_on,0,0,3,,,,,,,,,2,,,61,49
41120,note_on,0,0,3,,,,,,,,,2,,,57,49
41120,note_on,161,0,2,,,,,,,,,1,,,63,0
41120,note_on,161,0,3,,,,,,,,,2,,,61,0
41120,note_on,0,0,2,,,,,,,,,1,,,66,49
41280,note_on,0,0,3,,,,,,,,,2,,,51,49
41280,note_on,160,0,2,,,,,,,,,1,,,66,0
41280,note_on,160,0,3,,,,,,,,,2,,,57,0
41280,note_on,480,0,4,,,,,,,,,3,,,54,0
41280,note_on,0,0,2,,,,,,,,,1,,,73,49
41280,note_on,0,0,4,,,,,,,,,3,,,51,49
41439,note_on,159,0,3,,,,,,,,,2,,,51,0
41439,note_on,0,0,3,,,,,,,,,2,,,61,49
41439,note_on,159,0,2,,,,,,,,,1,,,73,0
41439,note_on,0,0,2,,,,,,,,,1,,,63,49
41600,note_on,0,0,3,,,,,,,,,2,,,57,49
41600,note_on,0,0,2,,,,,,,,,1,,,66,49
41600,note_on,161,0,3,,,,,,,,,2,,,61,0
41600,note_on,161,0,2,,,,,,,,,1,,,63,0
41760,note_on,160,0,2,,,,,,,,,1,,,66,0
41760,note_on,0,0,4,,,,,,,,,3,,,45,49
41760,note_on,0,0,3,,,,,,,,,2,,,45,49
41760,note_on,1440,0,1,,,,,,,,,0,,,78,0
41760,note_on,160,0,3,,,,,,,,,2,,,57,0
41760,note_on,480,0,4,,,,,,,,,3,,,51,0
41760,note_on,0,0,1,,,,,,,,,0,,,75,62
41760,note_on,0,0,2,,,,,,,,,1,,,75,49
41919,note_on,159,0,3,,,,,,,,,2,,,45,0
41919,note_on,0,0,2,,,,,,,,,1,,,63,49
41919,note_on,0,0,3,,,,,,,,,2,,,61,49
41919,note_on,159,0,2,,,,,,,,,1,,,75,0
42080,note_on,161,0,2,,,,,,,,,1,,,63,0
42080,note_on,0,0,2,,,,,,,,,1,,,66,49
42080,note_on,0,0,3,,,,,,,,,2,,,57,49
42080,note_on,161,0,3,,,,,,,,,2,,,61,0
42240,note_on,0,0,2,,,,,,,,,1,,,72,49
42240,note_on,160,0,2,,,,,,,,,1,,,66,0
42240,control_change,0,0,3,,,,,,,,,2,64,127,,
42240,note_on,0,0,3,,,,,,,,,2,,,44,49
42240,note_on,0,0,1,,,,,,,,,0,,,72,62
42240,note_on,480,0,1,,,,,,,,,0,,,75,0
42240,note_on,480,0,4,,,,,,,,,3,,,45,0
42240,note_on,160,0,3,,,,,,,,,2,,,57,0
42240,note_on,0,0,4,,,,,,,,,3,,,44,49
42399,note_on,0,0,3,,,,,,,,,2,,,60,49
42399,note_on,0,0,2,,,,,,,,,1,,,63,49
42399,note_on,159,0,3,,,,,,,,,2,,,44,0
42399,note_on,159,0,2,,,,,,,,,1,,,72,0
42560,note_on,161,0,3,,,,,,,,,2,,,60,0
42560,note_on,161,0,2,,,,,,,,,1,,,63,0
42560,note_on,0,0,3,,,,,,,,,2,,,56,49
42560,note_on,0,0,2,,,,,,,,,1,,,66,49
42720,note_on,480,0,4,,,,,,,,,3,,,44,0
42720,note_on,480,0,1,,,,,,,,,0,,,72,0
42720,note_on,0,0,3,,,,,,,,,2,,,51,49
42720,note_on,160,0,2,,,,,,,,,1,,,66,0
42720,note_on,0,0,4,,,,,,,,,3,,,51,49
42720,note_on,160,0,3,,,,,,,,,2,,,56,0
42720,note_on,0,0,2,,,,,,,,,1,,,68,49
42879,note_on,0,0,3,,,,,,,,,2,,,60,49
42879,note_on,0,0,2,,,,,,,,,1,,,63,49
42879,note_on,159,0,3,,,,,,,,,2,,,51,0
42879,note_on,159,0,2,,,,,,,,,1,,,68,0
43040,note_on,161,0,2,,,,,,,,,1,,,63,0
43040,note_on,0,0,2,,,,,,,,,1,,,66,49
43040,control_change,0,0,3,,,,,,,,,2,64,0,,
43040,note_on,0,0,3,,,,,,,,,2,,,56,49
43040,note_on,161,0,3,,,,,,,,,2,,,60,0
43200,note_on,480,0,4,,,,,,,,,3,,,51,0
43200,note_on,160,0,3,,,,,,,,,2,,,56,0
43200,note_on,0,0,4,,,,,,,,,3,,,48,62
43200,note_on,0,0,3,,,,,,,,,2,,,48,62
43200,note_on,0,0,2,,,,,,,,,1,,,72,62
43200,note_on,160,0,2,,,,,,,,,1,,,66,0
43359,note_on,0,0,3,,,,,,,,,2,,,60,62
43359,note_on,0,0,2,,,,,,,,,1,,,63,62
43359,note_on,159,0,2,,,,,,,,,1,,,72,0
43359,note_on,159,0,3,,,,,,,,,2,,,48,0
43520,note_on,0,0,3,,,,,,,,,2,,,56,62
43520,note_on,0,0,2,,,,,,,,,1,,,66,62
43520,note_on,161,0,3,,,,,,,,,2,,,60,0
43520,note_on,161,0,2,,,,,,,,,1,,,63,0
43680,note_on,0,0,4,,,,,,,,,3,,,44,62
43680,note_on,0,0,2,,,,,,,,,1,,,75,62
43680,note_on,480,0,4,,,,,,,,,3,,,48,0
43680,note_on,0,0,3,,,,,,,,,2,,,44,62
43680,note_on,160,0,2,,,,,,,,,1,,,66,0
43680,note_on,160,0,3,,,,,,,,,2,,,56,0
43839,note_on,0,0,3,,,,,,,,,2,,,60,62
43839,note_on,159,0,3,,,,,,,,,2,,,44,0
43839,note_on,0,0,2,,,,,,,,,1,,,63,62
43839,note_on,159,0,2,,,,,,,,,1,,,75,0
44000,note_on,0,0,3,,,,,,,,,2,,,56,62
44000,note_on,0,0,2,,,,,,,,,1,,,66,62
44000,note_on,161,0,3,,,,,,,,,2,,,60,0
44000,note_on,161,0,2,,,,,,,,,1,,,63,0
44160,note_on,1440,0,1,,,,,,,,,0,,,78,75
44160,note_on,480,0,4,,,,,,,,,3,,,44,0
44160,note_on,0,0,4,,,,,,,,,3,,,45,62
44160,note_on,0,0,3,,,,,,,,,2,,,45,62
44160,note_on,0,0,2,,,,,,,,,1,,,78,62
44160,note_on,160,0,3,,,,,,,,,2,,,56,0
44160,note_on,160,0,2,,,,,,,,,1,,,66,0
44319,note_on,0,0,3,,,,,,,,,2,,,61,62
44319,note_on,159,0,2,,,,,,,,,1,,,78,0
44319,note_on,0,0,2,,,,,,,,,1,,,63,62
44319,note_on,159,0,3,,,,,,,,,2,,,45,0
44480,note_on,161,0,3,,,,,,,,,2,,,61,0
44480,note_on,0,0,2,,,,,,,,,1,,,66,62
44480,note_on,0,0,3,,,,,,,,,2,,,57,62
44480,note_on,161,0,2,,,,,,,,,1,,,63,0
44640,note_on,0,0,3,,,,,,,,,2,,,54,62
44640,note_on,160,0,3,,,,,,,,,2,,,57,0
44640,note_on,160,0,2,,,,,,,,,1,,,66,0
44640,note_on,480,0,4,,,,,,,,,3,,,45,0
44640,note_on,0,0,4,,,,,,,,,3,,,54,62
44640,note_on,0,0,2,,,,,,,,,1,,,69,62
44799,note_on,159,0,2,,,,,,,,,1,,,69,0
44799,note_on,0,0,3,,,,,,,,,2,,,61,62
44799,note_on,159,0,3,,,,,,,,,2,,,54,0
44799,note_on,0,0,2,,,,,,,,,1,,,63,62
44960,note_on,161,0,2,,,,,,,,,1,,,63,0
44960,note_on,0,0,2,,,,,,,,,1,,,66,62
44960,note_on,161,0,3,,,,,,,,,2,,,61,0
44960,note_on,0,0,3,,,,,,,,,2,,,57,62
45120,note_on,160,0,3,,,,,,,,,2,,,57,0
45120,note_on,160,0,2,,,,,,,,,1,,,66,0
45120,note_on,480,0,4,,,,,,,,,3,,,54,0
45120,note_on,0,0,3,,,,,,,,,2,,,51,62
45120,note_on,0,0,4,,,,,,,,,3,,,51,62
45120,note_on,0,0,2,,,,,,,,,1,,,73,62
45279,note_on,0,0,3,,,,,,,,,2,,,61,62
45279,note_on,159,0,3,,,,,,,,,2,,,51,0
45279,note_on,0,0,2,,,,,,,,,1,,,63,62
45279,note_on,159,0,2,,,,,,,,,1,,,73,0
45440,note_on,161,0,3,,,,,,,,,2,,,61,0
45440,note_on,0,0,3,,,,,,,,,2,,,57,62
45440,note_on,161,0,2,,,,,,,,,1,,,63,0
45440,note_on,0,0,2,,,,,,,,,1,,,66,62
45600,note_on,1440,0,1,,,,,,,,,0,,,78,0
45600,note_on,160,0,2,,,,,,,,,1,,,66,0
45600,note_on,160,0,3,,,,,,,,,2,,,57,0
45600,note_on,480,0,4,,,,,,,,,3,,,51,0
45600,note_on,0,0,4,,,,,,,,,3,,,45,62
45600,note_on,0,0,3,,,,,,,,,2,,,45,62
45600,note_on,0,0,1,,,,,,,,,0,,,75,75
45600,note_on,0,0,2,,,,,,,,,1,,,75,62
45759,note_on,0,0,2,,,,,,,,,1,,,63,62
45759,note_on,0,0,3,,,,,,,,,2,,,61,62
45759,note_on,159,0,2,,,,,,,,,1,,,75,0
45759,note_on,159,0,3,,,,,,,,,2,,,45,0
45920,note_on,161,0,3,,,,,,,,,2,,,61,0
45920,note_on,0,0,3,,,,,,,,,2,,,57,62
45920,note_on,0,0,2,,,,,,,,,1,,,66,62
45920,note_on,161,0,2,,,,,,,,,1,,,63,0
46080,note_on,0,0,3,,,,,,,,,2,,,44,62
46080,note_on,160,0,3,,,,,,,,,2,,,57,0
46080,note_on,480,0,4,,,,,,,,,3,,,45,0
46080,note_on,0,0,2,,,,,,,,,1,,,72,62
46080,note_on,0,0,4,,,,,,,,,3,,,44,62
46080,note_on,480,0,1,,,,,,,,,0,,,75,0
46080,note_on,0,0,1,,,,,,,,,0,,,72,75
46080,control_change,0,0,3,,,,,,,,,2,64,127,,
46080,note_on,160,0,2,,,,,,,,,1,,,66,0
46239,note_on,0,0,2,,,,,,,,,1,,,63,62
46239,note_on,159,0,3,,,,,,,,,2,,,44,0
46239,note_on,0,0,3,,,,,,,,,2,,,60,62
46239,note_on,159,0,2,,,,,,,,,1,,,72,0
46400,note_on,161,0,3,,,,,,,,,2,,,60,0
46400,note_on,161,0,2,,,,,,,,,1,,,63,0
46400,note_on,0,0,3,,,,,,,,,2,,,56,62
46400,note_on,0,0,2,,,,,,,,,1,,,66,62
46560,note_on,160,0,3,,,,,,,,,2,,,56,0
46560,note_on,160,0,2,,,,,,,,,1,,,66,0
46560,note_on,480,0,4,,,,,,,,,3,,,44,0
46560,note_on,0,0,4,,,,,,,,,3,,,51,62
46560,note_on,480,0,1,,,,,,,,,0,,,72,0
46560,note_on,0,0,2,,,,,,,,,1,,,68,62
46560,note_on,0,0,3,,,,,,,,,2,,,51,62
46719,note_on,0,0,3,,,,,,,,,2,,,60,62
46719,note_on,0,0,2,,,,,,,,,1,,,63,62
46719,note_on,159,0,2,,,,,,,,,1,,,68,0
46719,note_on,159,0,3,,,,,,,,,2,,,51,0
46880,note_on,0,0,2,,,,,,,,,1,,,66,62
46880,note_on,161,0,3,,,,,,,,,2,,,60,0
46880,note_on,161,0,2,,,,,,,,,1,,,63,0
46880,note_on,0,0,3,,,,,,,,,2,,,56,62
47040,note_on,160,0,3,,,,,,,,,2,,,56,0
47040,note_on,0,0,2,,,,,,,,,1,,,72,62
47040,note_on,480,0,4,,,,,,,,,3,,,51,0
47040,note_on,0,0,4,,,,,,,,,3,,,48,62
47040,note_on,160,0,2,,,,,,,,,1,,,66,0
47040,note_on,0,0,3,,,,,,,,,2,,,48,62
47199,note_on,159,0,3,,,,,,,,,2,,,48,0
47199,note_on,159,0,2,,,,,,,,,1,,,72,0
47199,note_on,0,0,2,,,,,,,,,1,,,63,62
47199,note_on,0,0,3,,,,,,,,,2,,,60,62
47360,note_on,0,0,2,,,,,,,,,1,,,66,62
47360,note_on,0,0,3,,,,,,,,,2,,,56,62
47360,note_on,161,0,2,,,,,,,,,1,,,63,0
47360,note_on,161,0,3,,,,,,,,,2,,,60,0
47520,note_on,0,0,4,,,,,,,,,3,,,44,62
47520,note_on,160,0,2,,,,,,,,,1,,,66,0
47520,note_on,0,0,3,,,,,,,,,2,,,44,62
47520,note_on,0,0,2,,,,,,,,,1,,,75,62
47520,note_on,160,0,3,,,,,,,,,2,,,56,0
47520,note_on,480,0,4,,,,,,,,,3,,,48,0
47679,note_on,159,0,3,,,,,,,,,2,,,44,0
47679,note_on,159,0,2,,,,,,,,,1,,,75,0
47679,note_on,0,0,2,,,,,,,,,1,,,63,62
47679,note_on,0,0,3,,,,,,,,,2,,,60,62
47840,note_on,0,0,3,,,,,,,,,2,,,56,62
47840,control_change,0,0,3,,,,,,,,,2,64,0,,
47840,note_on,161,0,2,,,,,,,,,1,,,63,0
47840,note_on,0,0,2,,,,,,,,,1,,,66,62
47840,note_on,161,0,3,,,,,,,,,2,,,60,0
48000,note_on,0,0,3,,,,,,,,,2,,,45,62
48000,note_on,160,0,2,,,,,,,,,1,,,66,0
48000,note_on,480,0,4,,,,,,,,,3,,,44,0
48000,note_on,1440,0,1,,,,,,,,,0,,,78,75
48000,note_on,0,0,4,,,,,,,,,3,,,45,62
48000,note_on,0,0,2,,,,,,,,,1,,,78,62
48000,note_on,160,0,3,,,,,,,,,2,,,56,0
48159,note_on,159,0,3,,,,,,,,,2,,,45,0
48159,note_on,159,0,2,,,,,,,,,1,,,78,0
48159,note_on,0,0,2,,,,,,,,,1,,,66,62
48159,note_on,0,0,3,,,,,,,,,2,,,63,62
48320,note_on,0,0,3,,,,,,,,,2,,,60,62
48320,note_on,161,0,3,,,,,,,,,2,,,63,0
48320,note_on,161,0,2,,,,,,,,,1,,,66,0
48320,note_on,0,0,2,,,,,,,,,1,,,72,62
48480,note_on,160,0,2,,,,,,,,,1,,,72,0
48480,note_on,0,0,4,,,,,,,,,3,,,57,62
48480,note_on,0,0,2,,,,,,,,,1,,,75,62
48480,note_on,160,0,3,,,,,,,,,2,,,60,0
48480,note_on,480,0,4,,,,,,,,,3,,,45,0
48480,note_on,0,0,3,,,,,,,,,2,,,57,62
48639,note_on,0,0,2,,,,,,,,,1,,,72,62
48639,note_on,0,0,3,,,,,,,,,2,,,63,62
48639,note_on,159,0,3,,,,,,,,,2,,,57,0
48639,note_on,159,0,2,,,,,,,,,1,,,75,0
48800,note_on,161,0,2,,,,,,,,,1,,,72,0
48800,note_on,0,0,3,,,,,,,,,2,,,60,62
48800,note_on,161,0,3,,,,,,,,,2,,,63,0
48800,note_on,0,0,2,,,,,,,,,1,,,66,62
48960,note_on,0,0,4,,,,,,,,,3,,,45,62
48960,note_on,0,0,1,,,,,,,,,0,,,77,75
48960,note_on,0,0,3,,,,,,,,,2,,,45,62
48960,note_on,0,0,2,,,,,,,,,1,,,77,62
48960,note_on,960,0,1,,,,,,,,,0,,,78,0
48960,note_on,160,0,3,,,,,,,,,2,,,60,0
48960,note_on,480,0,4,,,,,,,,,3,,,57,0
48960,note_on,160,0,2,,,,,,,,,1,,,66,0
49119,note_on,159,0,3,,,,,,,,,2,,,45,0
49119,note_on,0,0,2,,,,,,,,,1,,,65,62
49119,note_on,159,0,2,,,,,,,,,1,,,77,0
49119,note_on,0,0,3,,,,,,,,,2,,,60,62
49280,note_on,161,0,2,,,,,,,,,1,,,65,0
49280,note_on,0,0,3,,,,,,,,,2,,,57,62
49280,note_on,161,0,3,,,,,,,,,2,,,60,0
49280,note_on,0,0,2,,,,,,,,,1,,,69,62
49440,note_on,0,0,4,,,,,,,,,3,,,45,62
49440,note_on,0,0,1,,,,,,,,,0,,,75,75
49440,note_on,480,0,4,,,,,,,,,3,,,45,0
49440,note_on,160,0,2,,,,,,,,,1,,,69,0
49440,note_on,160,0,3,,,,,,,,,2,,,57,0
49440,note_on,0,0,3,,,,,,,,,2,,,45,62
49440,note_on,480,0,1,,,,,,,,,0,,,77,0
49440,note_on,0,0,2,,,,,,,,,1,,,75,62
49599,note_on,159,0,3,,,,,,,,,2,,,45,0
49599,note_on,0,0,3,,,,,,,,,2,,,57,62
49599,note_on,159,0,2,,,,,,,,,1,,,75,0
49599,note_on,0,0,2,,,,,,,,,1,,,63,62
49760,note_on,0,0,2,,,,,,,,,1,,,65,62
49760,note_on,161,0,3,,,,,,,,,2,,,57,0
49760,note_on,161,0,2,,,,,,,,,1,,,63,0
49760,note_on,0,0,3,,,,,,,,,2,,,53,62
49920,note_on,0,0,4,,,,,,,,,3,,,46,49
49920,note_on,0,0,2,,,,,,,,,1,,,73,49
49920,note_on,160,0,3,,,,,,,,,2,,,53,0
49920,note_on,480,0,1,,,,,,,,,0,,,75,0
49920,note_on,0,0,3,,,,,,,,,2,,,46,49
49920,note_on,480,0,4,,,,,,,,,3,,,45,0
49920,note_on,0,0,1,,,,,,,,,0,,,73,62
49920,note_on,160,0,2,,,,,,,,,1,,,65,0
50079,note_on,0,0,2,,,,,,,,,1,,,65,49
50079,note_on,159,0,3,,,,,,,,,2,,,46,0
50079,note_on,159,0,2,,,,,,,,,1,,,73,0
50079,note_on,0,0,3,,,,,,,,,2,,,58,49
50240,note_on,0,0,2,,,,,,,,,1,,,70,49
50240,note_on,0,0,3,,,,,,,,,2,,,53,49
50240,note_on,161,0,2,,,,,,,,,1,,,65,0
50240,note_on,161,0,3,,,,,,,,,2,,,58,0
50400,note_on,0,0,3,,,,,,,,,2,,,44,49
50400,note_on,160,0,3,,,,,,,,,2,,,53,0
50400,note_on,480,0,1,,,,,,,,,0,,,73,0
50400,note_on,0,0,4,,,,,,,,,3,,,44,49
50400,note_on,160,0,2,,,,,,,,,1,,,70,0
50400,note_on,480,0,4,,,,,,,,,3,,,46,0
50400,note_on,0,0,1,,,,,,,,,0,,,74,62
50400,note_on,0,0,2,,,,,,,,,1,,,74,49
50559,note_on,0,0,3,,,,,,,,,2,,,58,49
50559,note_on,0,0,2,,,,,,,,,1,,,65,49
50559,note_on,159,0,3,,,,,,,,,2,,,44,0
50559,note_on,159,0,2,,,,,,,,,1,,,74,0
50720,note_on,0,0,3,,,,,,,,,2,,,56,49
50720,note_on,161,0,2,,,,,,,,,1,,,65,0
50720,note_on,161,0,3,,,,,,,,,2,,,58,0
50720,note_on,0,0,2,,,,,,,,,1,,,70,49
50880,note_on,160,0,2,,,,,,,,,1,,,70,0
50880,note_on,480,0,1,,,,,,,,,0,,,74,0
50880,note_on,0,0,1,,,,,,,,,0,,,75,75
50880,note_on,480,0,4,,,,,,,,,3,,,44,0
50880,note_on,160,0,3,,,,,,,,,2,,,56,0
50880,note_on,0,0,3,,,,,,,,,2,,,43,62
50880,note_on,0,0,4,,,,,,,,,3,,,43,62
50880,note_on,0,0,2,,,,,,,,,1,,,75,62
51039,note_on,0,0,2,,,,,,,,,1,,,63,62
51039,note_on,159,0,2,,,,,,,,,1,,,75,0
51039,note_on,0,0,3,,,,,,,,,2,,,58,62
51039,note_on,159,0,3,,,,,,,,,2,,,43,0
51200,note_on,0,0,2,,,,,,,,,1,,,70,62
51200,note_on,161,0,3,,,,,,,,,2,,,58,0
51200,note_on,0,0,3,,,,,,,,,2,,,55,62
51200,note_on,161,0,2,,,,,,,,,1,,,63,0
51360,note_on,160,0,2,,,,,,,,,1,,,70,0
51360,note_on,160,0,3,,,,,,,,,2,,,55,0
51360,note_on,0,0,3,,,,,,,,,2,,,42,62
51360,note_on,0,0,4,,,,,,,,,3,,,42,62
51360,note_on,480,0,1,,,,,,,,,0,,,75,0
51360,note_on,0,0,1,,,,,,,,,0,,,76,75
51360,note_on,480,0,4,,,,,,,,,3,,,43,0
51360,note_on,0,0,2,,,,,,,,,1,,,76,62
51519,note_on,0,0,2,,,,,,,,,1,,,64,62
51519,note_on,0,0,3,,,,,,,,,2,,,58,62
51519,note_on,159,0,3,,,,,,,,,2,,,42,0
51519,note_on,159,0,2,,,,,,,,,1,,,76,0
51680,note_on,161,0,2,,,,,,,,,1,,,64,0
51680,note_on,0,0,2,,,,,,,,,1,,,70,62
51680,note_on,161,0,3,,,,,,,,,2,,,58,0
51680,note_on,0,0,3,,,,,,,,,2,,,54,62
51840,note_on,0,0,2,,,,,,,,,1,,,77,62
51840,note_on,160,0,3,,,,,,,,,2,,,54,0
51840,note_on,160,0,2,,,,,,,,,1,,,70,0
51840,note_on,0,0,3,,,,,,,,,2,,,53,62
51840,note_on,0,0,3,,,,,,,,,2,,,41,62
51840,note_on,480,0,1,,,,,,,,,0,,,76,0
51840,note_on,480,0,4,,,,,,,,,3,,,42,0
51840,note_on,0,0,1,,,,,,,,,0,,,77,75
51999,note_on,159,0,2,,,,,,,,,1,,,77,0
51999,note_on,0,0,2,,,,,,,,,1,,,65,62
52160,note_on,0,0,2,,,,,,,,,1,,,69,62
52160,note_on,161,0,2,,,,,,,,,1,,,65,0
52320,note_on,480,0,1,,,,,,,,,0,,,77,0
52320,note_on,480,0,3,,,,,,,,,2,,,53,0
52320,note_on,160,0,2,,,,,,,,,1,,,69,0
52320,note_on,480,0,4,,,,,,,,,3,,,53,62
52320,note_on,0,0,2,,,,,,,,,1,,,77,62
52320,note_on,0,0,3,,,,,,,,,2,,,57,62
52320,note_on,0,0,3,,,,,,,,,2,,,41,0
52320,note_on,0,0,1,,,,,,,,,0,,,77,75
52479,note_on,159,0,2,,,,,,,,,1,,,77,0
52479,note_on,0,0,2,,,,,,,,,1,,,65,62
52640,note_on,0,0,2,,,,,,,,,1,,,69,62
52640,note_on,161,0,2,,,,,,,,,1,,,65,0
52800,note_on,0,0,2,,,,,,,,,1,,,76,62
52800,note_on,0,0,1,,,,,,,,,0,,,76,75
52800,note_on,160,0,2,,,,,,,,,1,,,69,0
52800,note_on,480,0,1,,,,,,,,,0,,,77,0
52800,note_on,480,0,3,,,,,,,,,2,,,57,0
52800,note_on,0,0,3,,,,,,,,,2,,,58,62
52800,note_on,0,0,3,,,,,,,,,2,,,55,62
52959,note_on,159,0,2,,,,,,,,,1,,,76,0
52959,note_on,0,0,2,,,,,,,,,1,,,67,62
53120,note_on,0,0,2,,,,,,,,,1,,,70,62
53120,note_on,161,0,2,,,,,,,,,1,,,67,0
53280,note_on,480,0,1,,,,,,,,,0,,,76,0
53280,note_on,480,0,3,,,,,,,,,2,,,58,0
53280,note_on,0,0,2,,,,,,,,,1,,,75,62
53280,note_on,0,0,3,,,,,,,,,2,,,60,62
53280,note_on,0,0,1,,,,,,,,,0,,,75,75
53280,note_on,160,0,2,,,,,,,,,1,,,70,0
53280,note_on,0,0,3,,,,,,,,,2,,,55,0
53280,note_on,0,0,3,,,,,,,,,2,,,57,62
53439,note_on,159,0,2,,,,,,,,,1,,,75,0
53439,note_on,0,0,2,,,,,,,,,1,,,69,62
53600,note_on,0,0,2,,,,,,,,,1,,,72,62
53600,note_on,161,0,2,,,,,,,,,1,,,69,0
53760,note_on,0,0,4,,,,,,,,,3,,,58,62
53760,note_on,0,0,3,,,,,,,,,2,,,57,0
53760,note_on,0,0,3,,,,,,,,,2,,,62,62
53760,note_on,1440,0,4,,,,,,,,,3,,,53,0
53760,note_on,0,0,2,,,,,,,,,1,,,74,62
53760,note_on,0,0,1,,,,,,,,,0,,,74,75
53760,note_on,0,0,4,,,,,,,,,3,,,53,62
53760,note_on,480,0,3,,,,,,,,,2,,,60,0
53760,note_on,160,0,2,,,,,,,,,1,,,72,0
53760,note_on,480,0,1,,,,,,,,,0,,,75,0
53919,note_on,0,0,2,,,,,,,,,1,,,65,62
53919,note_on,159,0,2,,,,,,,,,1,,,74,0
54000,note_on,240,0,4,,,,,,,,,3,,,58,0
54000,note_on,240,0,3,,,,,,,,,2,,,62,0
54000,note_on,0,0,4,,,,,,,,,3,,,53,0
54080,note_on,0,0,2,,,,,,,,,1,,,70,62
54080,note_on,161,0,2,,,,,,,,,1,,,65,0
54240,note_on,240,0,3,,,,,,,,,2,,,53,88
54240,note_on,0,0,2,,,,,,,,,1,,,82,88
54240,note_on,0,0,1,,,,,,,,,0,,,82,101
54240,note_on,240,0,4,,,,,,,,,3,,,61,88
54240,note_on,160,0,2,,,,,,,,,1,,,70,0
54240,note_on,480,0,1,,,,,,,,,0,,,74,0
54240,note_on,0,0,3,,,,,,,,,2,,,64,88
54399,note_on,0,0,2,,,,,,,,,1,,,70,62
54399,note_on,159,0,2,,,,,,,,,1,,,82,0
54560,note_on,161,0,2,,,,,,,,,1,,,70,0
54560,note_on,0,0,2,,,,,,,,,1,,,73,62
54720,note_on,0,0,2,,,,,,,,,1,,,84,62
54720,note_on,0,0,1,,,,,,,,,0,,,84,75
54720,note_on,480,0,4,,,,,,,,,3,,,61,0
54720,note_on,160,0,2,,,,,,,,,1,,,73,0
54720,note_on,480,0,1,,,,,,,,,0,,,82,0
54720,note_on,0,0,4,,,,,,,,,3,,,60,62
54879,note_on,159,0,2,,,,,,,,,1,,,84,0
54879,note_on,0,0,2,,,,,,,,,1,,,70,62
55040,note_on,161,0,2,,,,,,,,,1,,,70,0
55040,note_on,0,0,2,,,,,,,,,1,,,73,62
55200,note_on,0,0,1,,,,,,,,,0,,,85,75
55200,note_on,480,0,4,,,,,,,,,3,,,60,0
55200,note_on,480,0,1,,,,,,,,,0,,,84,0
55200,note_on,0,0,2,,,,,,,,,1,,,85,62
55200,note_on,0,0,4,,,,,,,,,3,,,58,62
55200,note_on,160,0,2,,,,,,,,,1,,,73,0
55359,note_on,159,0,2,,,,,,,,,1,,,85,0
55359,note_on,0,0,2,,,,,,,,,1,,,70,62
55520,note_on,0,0,2,,,,,,,,,1,,,73,62
55520,note_on,161,0,2,,,,,,,,,1,,,70,0
55680,note_on,0,0,3,,,,,,,,,2,,,53,0
55680,note_on,480,0,1,,,,,,,,,0,,,85,0
55680,note_on,0,0,3,,,,,,,,,2,,,65,62
55680,note_on,160,0,2,,,,,,,,,1,,,73,0
55680,note_on,0,0,2,,,,,,,,,1,,,84,62
55680,note_on,480,0,4,,,,,,,,,3,,,58,0
55680,note_on,0,0,4,,,,,,,,,3,,,53,62
55680,note_on,0,0,4,,,,,,,,,3,,,57,62
55680,note_on,0,0,1,,,,,,,,,0,,,84,75
55680,note_on,1440,0,3,,,,,,,,,2,,,64,0
55839,note_on,159,0,2,,,,,,,,,1,,,84,0
55839,note_on,0,0,2,,,,,,,,,1,,,69,62
55920,note_on,0,0,4,,,,,,,,,3,,,53,0
55920,note_on,240,0,4,,,,,,,,,3,,,57,0
55920,note_on,240,0,3,,,,,,,,,2,,,65,0
56000,note_on,161,0,2,,,,,,,,,1,,,69,0
56000,note_on,0,0,2,,,,,,,,,1,,,72,62
56160,note_on,0,0,2,,,,,,,,,1,,,77,62
56160,note_on,160,0,2,,,,,,,,,1,,,72,0
56160,note_on,480,0,1,,,,,,,,,0,,,84,0
56160,note_on,0,0,1,,,,,,,,,0,,,77,75
56160,note_on,240,0,3,,,,,,,,,2,,,57,62
56160,note_on,240,0,4,,,,,,,,,3,,,53,62
56319,note_on,159,0,2,,,,,,,,,1,,,77,0
56319,note_on,0,0,2,,,,,,,,,1,,,65,62
56480,note_on,161,0,2,,,,,,,,,1,,,65,0
56480,note_on,0,0,2,,,,,,,,,1,,,69,62
56640,note_on,160,0,2,,,,,,,,,1,,,69,0
56640,note_on,480,0,1,,,,,,,,,0,,,77,0
56640,note_on,0,0,3,,,,,,,,,2,,,55,62
56640,note_on,0,0,1,,,,,,,,,0,,,76,75
56640,note_on,0,0,3,,,,,,,,,2,,,58,62
56640,note_on,0,0,2,,,,,,,,,1,,,76,62
56640,note_on,480,0,3,,,,,,,,,2,,,57,0
56799,note_on,0,0,2,,,,,,,,,1,,,67,62
56799,note_on,159,0,2,,,,,,,,,1,,,76,0
56960,note_on,0,0,2,,,,,,,,,1,,,70,62
56960,note_on,161,0,2,,,,,,,,,1,,,67,0
57120,note_on,0,0,3,,,,,,,,,2,,,57,62
57120,note_on,0,0,1,,,,,,,,,0,,,75,75
57120,note_on,480,0,1,,,,,,,,,0,,,76,0
57120,note_on,0,0,3,,,,,,,,,2,,,60,62
57120,note_on,0,0,3,,,,,,,,,2,,,55,0
57120,note_on,160,0,2,,,,,,,,,1,,,70,0
57120,note_on,480,0,3,,,,,,,,,2,,,58,0
57120,note_on,0,0,2,,,,,,,,,1,,,75,62
57279,note_on,0,0,2,,,,,,,,,1,,,69,62
57279,note_on,159,0,2,,,,,,,,,1,,,75,0
57440,note_on,0,0,2,,,,,,,,,1,,,72,62
57440,note_on,161,0,2,,,,,,,,,1,,,69,0
57600,note_on,0,0,1,,,,,,,,,0,,,74,75
57600,note_on,160,0,2,,,,,,,,,1,,,72,0
57600,note_on,0,0,3,,,,,,,,,2,,,62,62
57600,note_on,0,0,3,,,,,,,,,2,,,57,0
57600,note_on,480,0,3,,,,,,,,,2,,,60,0
57600,note_on,0,0,2,,,,,,,,,1,,,74,62
57600,note_on,480,0,1,,,,,,,,,0,,,75,0
57600,note_on,1440,0,4,,,,,,,,,3,,,58,62
57759,note_on,159,0,2,,,,,,,,,1,,,74,0
57759,note_on,0,0,2,,,,,,,,,1,,,65,62
57840,note_on,240,0,3,,,,,,,,,2,,,62,0
57840,note_on,0,0,4,,,,,,,,,3,,,53,0
57840,note_on,240,0,4,,,,,,,,,3,,,58,0
57920,note_on,0,0,2,,,,,,,,,1,,,70,62
57920,note_on,161,0,2,,,,,,,,,1,,,65,0
58080,note_on,240,0,4,,,,,,,,,3,,,61,88
58080,note_on,0,0,1,,,,,,,,,0,,,82,101
58080,note_on,240,0,3,,,,,,,,,2,,,53,88
58080,note_on,0,0,2,,,,,,,,,1,,,82,88
58080,note_on,480,0,1,,,,,,,,,0,,,74,0
58080,note_on,0,0,3,,,,,,,,,2,,,64,88
58080,note_on,160,0,2,,,,,,,,,1,,,70,0
58239,note_on,159,0,2,,,,,,,,,1,,,82,0
58239,note_on,0,0,2,,,,,,,,,1,,,70,62
58400,note_on,161,0,2,,,,,,,,,1,,,70,0
58400,note_on,0,0,2,,,,,,,,,1,,,73,62
58560,note_on,0,0,4,,,,,,,,,3,,,60,62
58560,note_on,0,0,2,,,,,,,,,1,,,84,62
58560,note_on,480,0,1,,,,,,,,,0,,,82,0
58560,note_on,480,0,4,,,,,,,,,3,,,61,0
58560,note_on,0,0,1,,,,,,,,,0,,,84,75
58560,note_on,160,0,2,,,,,,,,,1,,,73,0
58719,note_on,0,0,2,,,,,,,,,1,,,70,62
58719,note_on,159,0,2,,,,,,,,,1,,,84,0
58880,note_on,161,0,2,,,,,,,,,1,,,70,0
58880,note_on,0,0,2,,,,,,,,,1,,,73,62
59040,note_on,480,0,4,,,,,,,,,3,,,60,0
59040,note_on,0,0,1,,,,,,,,,0,,,85,75
59040,note_on,480,0,1,,,,,,,,,0,,,84,0
59040,note_on,0,0,2,,,,,,,,,1,,,85,62
59040,note_on,0,0,4,,,,,,,,,3,,,58,62
59040,note_on,160,0,2,,,,,,,,,1,,,73,0
59199,note_on,159,0,2,,,,,,,,,1,,,85,0
59199,note_on,0,0,2,,,,,,,,,1,,,70,62
59360,note_on,161,0,2,,,,,,,,,1,,,70,0
59360,note_on,0,0,2,,,,,,,,,1,,,73,62
59520,note_on,0,0,3,,,,,,,,,2,,,53,62
59520,note_on,0,0,1,,,,,,,,,0,,,84,75
59520,note_on,0,0,3,,,,,,,,,2,,,65,62
59520,note_on,160,0,2,,,,,,,,,1,,,73,0
59520,note_on,0,0,3,,,,,,,,,2,,,53,0
59520,note_on,0,0,3,,,,,,,,,2,,,57,62
59520,note_on,480,0,4,,,,,,,,,3,,,58,0
59520,note_on,1440,0,3,,,,,,,,,2,,,64,0
59520,note_on,480,0,1,,,,,,,,,0,,,85,0
59520,note_on,0,0,2,,,,,,,,,1,,,84,62
59679,note_on,159,0,2,,,,,,,,,1,,,84,0
59679,note_on,0,0,2,,,,,,,,,1,,,69,62
59760,note_on,0,0,3,,,,,,,,,2,,,53,0
59760,note_on,240,0,3,,,,,,,,,2,,,65,0
59760,note_on,0,0,3,,,,,,,,,2,,,57,0
59840,note_on,0,0,2,,,,,,,,,1,,,72,62
59840,note_on,161,0,2,,,,,,,,,1,,,69,0
60000,note_on,480,0,1,,,,,,,,,0,,,84,0
60000,note_on,0,0,2,,,,,,,,,1,,,77,49
60000,note_on,480,0,4,,,,,,,,,3,,,53,49
60000,note_on,0,0,1,,,,,,,,,0,,,77,62
60000,note_on,160,0,2,,,,,,,,,1,,,72,0
60000,note_on,240,0,3,,,,,,,,,2,,,65,49
60159,note_on,159,0,2,,,,,,,,,1,,,77,0
60159,note_on,0,0,2,,,,,,,,,1,,,69,49
60320,note_on,0,0,2,,,,,,,,,1,,,72,49
60320,note_on,161,0,2,,,,,,,,,1,,,69,0
60480,note_on,0,0,2,,,,,,,,,1,,,78,49
60480,note_on,160,0,2,,,,,,,,,1,,,72,0
60480,note_on,480,0,3,,,,,,,,,2,,,65,0
60480,note_on,0,0,1,,,,,,,,,0,,,78,62
60480,note_on,0,0,3,,,,,,,,,2,,,64,75
60480,note_on,480,0,1,,,,,,,,,0,,,77,0
60639,note_on,159,0,2,,,,,,,,,1,,,78,0
60639,note_on,0,0,2,,,,,,,,,1,,,70,49
60800,note_on,0,0,2,,,,,,,,,1,,,73,49
60800,note_on,161,0,2,,,,,,,,,1,,,70,0
60960,note_on,0,0,1,,,,,,,,,0,,,77,62
60960,note_on,480,0,1,,,,,,,,,0,,,78,0
60960,note_on,160,0,2,,,,,,,,,1,,,73,0
60960,note_on,0,0,2,,,,,,,,,1,,,77,49
60960,note_on,0,0,3,,,,,,,,,2,,,65,49
60960,note_on,480,0,3,,,,,,,,,2,,,64,0
61119,note_on,159,0,2,,,,,,,,,1,,,77,0
61119,note_on,0,0,2,,,,,,,,,1,,,69,49
61280,note_on,161,0,2,,,,,,,,,1,,,69,0
61280,note_on,0,0,2,,,,,,,,,1,,,72,49
61440,note_on,1440,0,4,,,,,,,,,3,,,53,0
61440,note_on,0,0,1,,,,,,,,,0,,,77,62
61440,note_on,160,0,2,,,,,,,,,1,,,72,0
61440,note_on,480,0,1,,,,,,,,,0,,,77,0
61440,note_on,0,0,2,,,,,,,,,1,,,77,49
61440,note_on,480,0,3,,,,,,,,,2,,,65,0
61599,note_on,159,0,2,,,,,,,,,1,,,77,0
61599,note_on,0,0,2,,,,,,,,,1,,,69,49
61760,note_on,161,0,2,,,,,,,,,1,,,69,0
61760,note_on,0,0,2,,,,,,,,,1,,,72,49
61920,note_on,160,0,2,,,,,,,,,1,,,72,0
61920,note_on,480,0,1,,,,,,,,,0,,,77,0
61920,note_on,0,0,3,,,,,,,,,2,,,65,49
61920,note_on,480,0,3,,,,,,,,,2,,,57,49
61920,note_on,0,0,3,,,,,,,,,2,,,60,49
61920,note_on,0,0,2,,,,,,,,,1,,,81,49
61920,note_on,480,0,4,,,,,,,,,3,,,53,49
61920,note_on,0,0,1,,,,,,,,,0,,,81,62
62079,note_on,159,0,2,,,,,,,,,1,,,81,0
62079,note_on,0,0,2,,,,,,,,,1,,,72,49
62240,note_on,161,0,2,,,,,,,,,1,,,72,0
62240,note_on,0,0,2,,,,,,,,,1,,,77,49
62400,note_on,0,0,1,,,,,,,,,0,,,82,75
62400,note_on,480,0,1,,,,,,,,,0,,,81,0
62400,note_on,160,0,2,,,,,,,,,1,,,77,0
62400,note_on,0,0,2,,,,,,,,,1,,,82,62
62400,note_on,480,0,3,,,,,,,,,2,,,65,0
62400,note_on,0,0,3,,,,,,,,,2,,,61,62
62400,note_on,0,0,3,,,,,,,,,2,,,60,0
62400,note_on,0,0,3,,,,,,,,,2,,,58,62
62400,note_on,0,0,3,,,,,,,,,2,,,57,0
62400,note_on,0,0,3,,,,,,,,,2,,,64,62
62559,note_on,159,0,2,,,,,,,,,1,,,82,0
62559,note_on,0,0,2,,,,,,,,,1,,,73,62
62720,note_on,0,0,2,,,,,,,,,1,,,79,62
62720,note_on,161,0,2,,,,,,,,,1,,,73,0
62880,note_on,160,0,2,,,,,,,,,1,,,79,0
62880,note_on,0,0,1,,,,,,,,,0,,,81,75
62880,note_on,480,0,3,,,,,,,,,2,,,64,0
62880,note_on,0,0,3,,,,,,,,,2,,,65,62
62880,note_on,0,0,3,,,,,,,,,2,,,61,0
62880,note_on,0,0,3,,,,,,,,,2,,,60,62
62880,note_on,0,0,3,,,,,,,,,2,,,58,0
62880,note_on,0,0,3,,,,,,,,,2,,,57,62
62880,note_on,480,0,1,,,,,,,,,0,,,82,0
62880,note_on,0,0,2,,,,,,,,,1,,,81,62
63039,note_on,0,0,2,,,,,,,,,1,,,72,62
63039,note_on,159,0,2,,,,,,,,,1,,,81,0
63200,note_on,0,0,2,,,,,,,,,1,,,77,62
63200,note_on,161,0,2,,,,,,,,,1,,,72,0
63360,note_on,480,0,3,,,,,,,,,2,,,65,0
63360,note_on,1440,0,4,,,,,,,,,3,,,53,0
63360,note_on,0,0,3,,,,,,,,,2,,,60,0
63360,note_on,0,0,3,,,,,,,,,2,,,57,0
63360,note_on,0,0,1,,,,,,,,,0,,,81,62
63360,note_on,160,0,2,,,,,,,,,1,,,77,0
63360,note_on,0,0,2,,,,,,,,,1,,,81,49
63360,note_on,480,0,1,,,,,,,,,0,,,81,0
63519,note_on,0,0,2,,,,,,,,,1,,,72,49
63519,note_on,159,0,2,,,,,,,,,1,,,81,0
63680,note_on,0,0,2,,,,,,,,,1,,,76,49
63680,note_on,161,0,2,,,,,,,,,1,,,72,0
63840,note_on,480,0,1,,,,,,,,,0,,,81,0
63840,note_on,480,0,3,,,,,,,,,2,,,65,49
63840,note_on,480,0,4,,,,,,,,,3,,,53,49
63840,note_on,160,0,2,,,,,,,,,1,,,76,0
63840,note_on,0,0,1,,,,,,,,,0,,,77,62
63840,note_on,0,0,2,,,,,,,,,1,,,77,49
63999,note_on,159,0,2,,,,,,,,,1,,,77,0
63999,note_on,0,0,2,,,,,,,,,1,,,69,49
64160,note_on,0,0,2,,,,,,,,,1,,,72,49
64160,note_on,161,0,2,,,,,,,,,1,,,69,0
64320,note_on,480,0,1,,,,,,,,,0,,,77,0
64320,note_on,160,0,2,,,,,,,,,1,,,72,0
64320,note_on,0,0,2,,,,,,,,,1,,,78,62
64320,note_on,0,0,1,,,,,,,,,0,,,78,75
64320,note_on,480,0,3,,,,,,,,,2,,,65,0
64320,note_on,0,0,3,,,,,,,,,2,,,64,62
64479,note_on,159,0,2,,,,,,,,,1,,,78,0
64479,note_on,0,0,2,,,,,,,,,1,,,70,62
64640,note_on,161,0,2,,,,,,,,,1,,,70,0
64640,note_on,0,0,2,,,,,,,,,1,,,73,62
64800,note_on,0,0,1,,,,,,,,,0,,,77,75
64800,note_on,160,0,2,,,,,,,,,1,,,73,0
64800,note_on,480,0,1,,,,,,,,,0,,,78,0
64800,note_on,480,0,3,,,,,,,,,2,,,64,0
64800,note_on,0,0,2,,,,,,,,,1,,,77,62
64800,note_on,0,0,3,,,,,,,,,2,,,65,62
64959,note_on,0,0,2,,,,,,,,,1,,,69,62
64959,note_on,159,0,2,,,,,,,,,1,,,77,0
65120,note_on,0,0,2,,,,,,,,,1,,,72,62
65120,note_on,161,0,2,,,,,,,,,1,,,69,0
65280,note_on,1440,0,4,,,,,,,,,3,,,53,0
65280,note_on,480,0,1,,,,,,,,,0,,,77,0
65280,note_on,160,0,2,,,,,,,,,1,,,72,0
65280,note_on,480,0,3,,,,,,,,,2,,,65,0
65280,note_on,0,0,1,,,,,,,,,0,,,77,88
65439,note_on,159,0,1,,,,,,,,,0,,,77,0
65439,note_on,0,0,1,,,,,,,,,0,,,69,88
65600,note_on,161,0,1,,,,,,,,,0,,,69,0
65600,note_on,0,0,1,,,,,,,,,0,,,72,88
65760,note_on,0,0,1,,,,,,,,,0,,,81,88
65760,note_on,480,0,3,,,,,,,,,2,,,57,75
65760,note_on,0,0,3,,,,,,,,,2,,,60,75
65760,note_on,0,0,3,,,,,,,,,2,,,65,75
65760,note_on,160,0,1,,,,,,,,,0,,,72,0
65760,note_on,480,0,4,,,,,,,,,3,,,53,75
65919,note_on,0,0,1,,,,,,,,,0,,,72,88
65919,note_on,159,0,1,,,,,,,,,0,,,81,0
66080,note_on,0,0,1,,,,,,,,,0,,,77,88
66080,note_on,161,0,1,,,,,,,,,0,,,72,0
66240,note_on,0,0,3,,,,,,,,,2,,,58,75
66240,note_on,0,0,3,,,,,,,,,2,,,61,75
66240,note_on,480,0,3,,,,,,,,,2,,,65,0
66240,note_on,0,0,3,,,,,,,,,2,,,60,0
66240,note_on,0,0,3,,,,,,,,,2,,,57,0
66240,note_on,160,0,1,,,,,,,,,0,,,77,0
66240,note_on,0,0,1,,,,,,,,,0,,,82,88
66240,note_on,0,0,3,,,,,,,,,2,,,64,75
66399,note_on,159,0,1,,,,,,,,,0,,,82,0
66399,note_on,0,0,1,,,,,,,,,0,,,73,88
66560,note_on,161,0,1,,,,,,,,,0,,,73,0
66560,note_on,0,0,1,,,,,,,,,0,,,79,88
66720,note_on,0,0,3,,,,,,,,,2,,,61,0
66720,note_on,0,0,3,,,,,,,,,2,,,60,75
66720,note_on,0,0,3,,,,,,,,,2,,,58,0
66720,note_on,160,0,1,,,,,,,,,0,,,79,0
66720,note_on,0,0,3,,,,,,,,,2,,,65,75
66720,note_on,480,0,3,,,,,,,,,2,,,64,0
66720,note_on,0,0,3,,,,,,,,,2,,,57,75
66720,note_on,0,0,1,,,,,,,,,0,,,81,88
66879,note_on,0,0,1,,,,,,,,,0,,,72,88
66879,note_on,159,0,1,,,,,,,,,0,,,81,0
67040,note_on,161,0,1,,,,,,,,,0,,,72,0
67040,note_on,0,0,1,,,,,,,,,0,,,77,88
67200,note_on,0,0,3,,,,,,,,,2,,,57,0
67200,note_on,0,0,1,,,,,,,,,0,,,80,88
67200,note_on,0,0,3,,,,,,,,,2,,,53,75
67200,note_on,160,0,1,,,,,,,,,0,,,77,0
67200,note_on,480,0,3,,,,,,,,,2,,,65,0
67200,note_on,0,0,3,,,,,,,,,2,,,60,0
67200,note_on,1440,0,4,,,,,,,,,3,,,53,0
67359,note_on,159,0,3,,,,,,,,,2,,,53,0
67359,note_on,0,0,1,,,,,,,,,0,,,71,88
67359,note_on,159,0,1,,,,,,,,,0,,,80,0
67359,note_on,0,0,3,,,,,,,,,2,,,62,75
67520,note_on,0,0,3,,,,,,,,,2,,,65,75
67520,note_on,0,0,1,,,,,,,,,0,,,80,88
67520,note_on,161,0,3,,,,,,,,,2,,,62,0
67520,note_on,161,0,1,,,,,,,,,0,,,71,0
67680,note_on,0,0,1,,,,,,,,,0,,,79,49
67680,note_on,160,0,1,,,,,,,,,0,,,80,0
67680,note_on,0,0,3,,,,,,,,,2,,,53,49
67680,note_on,160,0,3,,,,,,,,,2,,,65,0
67839,note_on,0,0,3,,,,,,,,,2,,,61,49
67839,note_on,159,0,1,,,,,,,,,0,,,79,0
67839,note_on,0,0,1,,,,,,,,,0,,,70,49
67839,note_on,159,0,3,,,,,,,,,2,,,53,0
68000,note_on,161,0,3,,,,,,,,,2,,,61,0
68000,note_on,0,0,1,,,,,,,,,0,,,79,49
68000,note_on,0,0,3,,,,,,,,,2,,,64,49
68000,note_on,161,0,1,,,,,,,,,0,,,70,0
68160,note_on,0,0,1,,,,,,,,,0,,,78,49
68160,note_on,160,0,1,,,,,,,,,0,,,79,0
68160,note_on,0,0,3,,,,,,,,,2,,,53,49
68160,note_on,160,0,3,,,,,,,,,2,,,64,0
68319,note_on,159,0,1,,,,,,,,,0,,,78,0
68319,note_on,0,0,3,,,,,,,,,2,,,60,49
68319,note_on,159,0,3,,,,,,,,,2,,,53,0
68319,note_on,0,0,1,,,,,,,,,0,,,69,49
68480,note_on,0,0,3,,,,,,,,,2,,,63,49
68480,note_on,0,0,1,,,,,,,,,0,,,78,49
68480,note_on,161,0,1,,,,,,,,,0,,,69,0
68480,note_on,161,0,3,,,,,,,,,2,,,60,0
68640,note_on,0,0,1,,,,,,,,,0,,,77,49
68640,note_on,0,0,3,,,,,,,,,2,,,53,49
68640,note_on,160,0,3,,,,,,,,,2,,,63,0
68640,note_on,160,0,1,,,,,,,,,0,,,78,0
68799,note_on,0,0,1,,,,,,,,,0,,,68,49
68799,note_on,0,0,3,,,,,,,,,2,,,59,49
68799,note_on,159,0,1,,,,,,,,,0,,,77,0
68799,note_on,159,0,3,,,,,,,,,2,,,53,0
68960,note_on,161,0,3,,,,,,,,,2,,,59,0
68960,note_on,0,0,1,,,,,,,,,0,,,77,49
68960,note_on,0,0,3,,,,,,,,,2,,,62,49
68960,note_on,161,0,1,,,,,,,,,0,,,68,0
69120,note_on,0,0,1,,,,,,,,,0,,,76,49
69120,note_on,160,0,1,,,,,,,,,0,,,77,0
69120,note_on,160,0,3,,,,,,,,,2,,,62,0
69120,note_on,0,0,3,,,,,,,,,2,,,53,49
69279,note_on,159,0,1,,,,,,,,,0,,,76,0
69279,note_on,0,0,1,,,,,,,,,0,,,67,49
69279,note_on,0,0,3,,,,,,,,,2,,,58,49
69279,note_on,159,0,3,,,,,,,,,2,,,53,0
69440,note_on,0,0,1,,,,,,,,,0,,,76,49
69440,note_on,0,0,3,,,,,,,,,2,,,61,49
69440,note_on,161,0,3,,,,,,,,,2,,,58,0
69440,note_on,161,0,1,,,,,,,,,0,,,67,0
69600,note_on,160,0,1,,,,,,,,,0,,,76,0
69600,note_on,0,0,1,,,,,,,,,0,,,75,49
69600,note_on,0,0,3,,,,,,,,,2,,,53,49
69600,note_on,160,0,3,,,,,,,,,2,,,61,0
69759,note_on,0,0,3,,,,,,,,,2,,,57,49
69759,note_on,0,0,1,,,,,,,,,0,,,66,49
69759,note_on,159,0,1,,,,,,,,,0,,,75,0
69759,note_on,159,0,3,,,,,,,,,2,,,53,0
69920,note_on,0,0,1,,,,,,,,,0,,,75,49
69920,note_on,161,0,1,,,,,,,,,0,,,66,0
69920,note_on,0,0,3,,,,,,,,,2,,,60,49
69920,note_on,161,0,3,,,,,,,,,2,,,57,0
70080,note_on,0,0,1,,,,,,,,,0,,,65,49
70080,note_on,160,0,1,,,,,,,,,0,,,75,0
70080,note_on,0,0,3,,,,,,,,,2,,,53,49
70080,note_on,160,0,3,,,,,,,,,2,,,60,0
70239,note_on,159,0,1,,,,,,,,,0,,,65,0
70239,note_on,0,0,1,,,,,,,,,0,,,75,49
70239,note_on,159,0,3,,,,,,,,,2,,,53,0
70239,note_on,0,0,3,,,,,,,,,2,,,57,49
70400,note_on,0,0,1,,,,,,,,,0,,,65,49
70400,note_on,0,0,3,,,,,,,,,2,,,60,49
70400,note_on,161,0,3,,,,,,,,,2,,,57,0
70400,note_on,161,0,1,,,,,,,,,0,,,75,0
70560,note_on,160,0,1,,,,,,,,,0,,,65,0
70560,note_on,0,0,1,,,,,,,,,0,,,73,62
70560,note_on,5280,0,2,,,,,,,,,1,,,73,49
70560,note_on,0,0,3,,,,,,,,,2,,,46,49
70560,note_on,160,0,3,,,,,,,,,2,,,60,0
70719,note_on,159,0,2,,,,,,,,,1,,,73,0
70719,note_on,159,0,3,,,,,,,,,2,,,46,0
70719,note_on,0,0,2,,,,,,,,,1,,,61,49
70719,note_on,0,0,3,,,,,,,,,2,,,58,49
70880,note_on,161,0,3,,,,,,,,,2,,,58,0
70880,note_on,0,0,2,,,,,,,,,1,,,65,49
70880,note_on,0,0,3,,,,,,,,,2,,,53,49
70880,note_on,161,0,2,,,,,,,,,1,,,61,0
71040,note_on,3840,0,4,,,,,,,,,3,,,46,49
71040,note_on,480,0,1,,,,,,,,,0,,,73,0
71040,note_on,160,0,2,,,,,,,,,1,,,65,0
71040,note_on,0,0,3,,,,,,,,,2,,,46,49
71040,note_on,0,0,2,,,,,,,,,1,,,72,49
71040,note_on,0,0,1,,,,,,,,,0,,,72,62
71040,note_on,160,0,3,,,,,,,,,2,,,53,0
71199,note_on,0,0,3,,,,,,,,,2,,,58,49
71199,note_on,159,0,3,,,,,,,,,2,,,46,0
71199,note_on,159,0,2,,,,,,,,,1,,,72,0
71199,note_on,0,0,2,,,,,,,,,1,,,61,49
71360,note_on,161,0,3,,,,,,,,,2,,,58,0
71360,note_on,0,0,2,,,,,,,,,1,,,65,49
71360,note_on,161,0,2,,,,,,,,,1,,,61,0
71360,note_on,0,0,3,,,,,,,,,2,,,53,49
71520,note_on,0,0,4,,,,,,,,,3,,,49,49
71520,note_on,0,0,2,,,,,,,,,1,,,70,49
71520,note_on,160,0,2,,,,,,,,,1,,,65,0
71520,note_on,480,0,4,,,,,,,,,3,,,46,0
71520,note_on,480,0,1,,,,,,,,,0,,,72,0
71520,note_on,0,0,1,,,,,,,,,0,,,70,62
71520,note_on,0,0,3,,,,,,,,,2,,,49,49
71520,note_on,160,0,3,,,,,,,,,2,,,53,0
71679,note_on,0,0,3,,,,,,,,,2,,,58,49
71679,note_on,0,0,2,,,,,,,,,1,,,61,49
71679,note_on,159,0,3,,,,,,,,,2,,,49,0
71679,note_on,159,0,2,,,,,,,,,1,,,70,0
71840,note_on,0,0,2,,,,,,,,,1,,,65,49
71840,note_on,161,0,2,,,,,,,,,1,,,61,0
71840,note_on,161,0,3,,,,,,,,,2,,,58,0
71840,note_on,0,0,3,,,,,,,,,2,,,53,49
72000,note_on,0,0,3,,,,,,,,,2,,,46,62
72000,note_on,0,0,4,,,,,,,,,3,,,46,62
72000,note_on,0,0,1,,,,,,,,,0,,,69,75
72000,note_on,0,0,2,,,,,,,,,1,,,69,62
72000,note_on,480,0,1,,,,,,,,,0,,,70,0
72000,note_on,480,0,4,,,,,,,,,3,,,49,0
72000,note_on,160,0,2,,,,,,,,,1,,,65,0
72000,note_on,160,0,3,,,,,,,,,2,,,53,0
72159,note_on,159,0,3,,,,,,,,,2,,,46,0
72159,note_on,0,0,3,,,,,,,,,2,,,58,62
72159,note_on,0,0,2,,,,,,,,,1,,,61,62
72159,note_on,159,0,2,,,,,,,,,1,,,69,0
72320,note_on,161,0,2,,,,,,,,,1,,,61,0
72320,note_on,0,0,3,,,,,,,,,2,,,53,62
72320,note_on,161,0,3,,,,,,,,,2,,,58,0
72320,note_on,0,0,2,,,,,,,,,1,,,65,62
72480,note_on,160,0,2,,,,,,,,,1,,,65,0
72480,note_on,0,0,3,,,,,,,,,2,,,49,62
72480,note_on,480,0,4,,,,,,,,,3,,,46,0
72480,note_on,160,0,3,,,,,,,,,2,,,53,0
72480,note_on,0,0,2,,,,,,,,,1,,,70,62
72480,note_on,0,0,4,,,,,,,,,3,,,49,62
72480,note_on,0,0,1,,,,,,,,,0,,,70,75
72480,note_on,480,0,1,,,,,,,,,0,,,69,0
72639,note_on,0,0,2,,,,,,,,,1,,,61,62
72639,note_on,159,0,3,,,,,,,,,2,,,49,0
72639,note_on,159,0,2,,,,,,,,,1,,,70,0
72639,note_on,0,0,3,,,,,,,,,2,,,58,62
72800,note_on,161,0,3,,,,,,,,,2,,,58,0
72800,note_on,0,0,2,,,,,,,,,1,,,65,62
72800,note_on,161,0,2,,,,,,,,,1,,,61,0
72800,note_on,0,0,3,,,,,,,,,2,,,53,62
72960,note_on,0,0,4,,,,,,,,,3,,,46,62
72960,note_on,0,0,1,,,,,,,,,0,,,75,75
72960,note_on,160,0,3,,,,,,,,,2,,,53,0
72960,note_on,0,0,2,,,,,,,,,1,,,75,62
72960,note_on,160,0,2,,,,,,,,,1,,,65,0
72960,note_on,480,0,4,,,,,,,,,3,,,49,0
72960,note_on,480,0,1,,,,,,,,,0,,,70,0
72960,note_on,0,0,3,,,,,,,,,2,,,46,62
73119,note_on,159,0,2,,,,,,,,,1,,,75,0
73119,note_on,0,0,3,,,,,,,,,2,,,58,62
73119,note_on,159,0,3,,,,,,,,,2,,,46,0
73119,note_on,0,0,2,,,,,,,,,1,,,63,62
73280,note_on,0,0,3,,,,,,,,,2,,,54,62
73280,note_on,161,0,2,,,,,,,,,1,,,63,0
73280,note_on,161,0,3,,,,,,,,,2,,,58,0
73280,note_on,0,0,2,,,,,,,,,1,,,66,62
73440,note_on,0,0,3,,,,,,,,,2,,,51,62
73440,note_on,160,0,2,,,,,,,,,1,,,66,0
73440,note_on,160,0,3,,,,,,,,,2,,,54,0
73440,note_on,0,0,2,,,,,,,,,1,,,70,62
73440,note_on,480,0,4,,,,,,,,,3,,,46,0
73440,note_on,0,0,4,,,,,,,,,3,,,51,62
73599,note_on,159,0,3,,,,,,,,,2,,,51,0
73599,note_on,0,0,2,,,,,,,,,1,,,63,62
73599,note_on,0,0,3,,,,,,,,,2,,,58,62
73599,note_on,159,0,2,,,,,,,,,1,,,70,0
73760,note_on,0,0,2,,,,,,,,,1,,,66,62
73760,note_on,161,0,3,,,,,,,,,2,,,58,0
73760,note_on,0,0,3,,,,,,,,,2,,,54,62
73760,note_on,161,0,2,,,,,,,,,1,,,63,0
73920,note_on,480,0,4,,,,,,,,,3,,,51,0
73920,note_on,0,0,3,,,,,,,,,2,,,46,62
73920,note_on,160,0,2,,,,,,,,,1,,,66,0
73920,note_on,0,0,4,,,,,,,,,3,,,46,62
73920,note_on,160,0,3,,,,,,,,,2,,,54,0
73920,note_on,0,0,2,,,,,,,,,1,,,70,62
74079,note_on,159,0,3,,,,,,,,,2,,,46,0
74079,note_on,0,0,2,,,,,,,,,1,,,63,62
74079,note_on,159,0,2,,,,,,,,,1,,,70,0
74079,note_on,0,0,3,,,,,,,,,2,,,58,62
74240,note_on,161,0,3,,,,,,,,,2,,,58,0
74240,note_on,161,0,2,,,,,,,,,1,,,63,0
74240,note_on,0,0,3,,,,,,,,,2,,,54,62
74240,note_on,0,0,2,,,,,,,,,1,,,66,62
74400,note_on,480,0,4,,,,,,,,,3,,,46,0
74400,note_on,160,0,2,,,,,,,,,1,,,66,0
74400,note_on,0,0,1,,,,,,,,,0,,,78,75
74400,note_on,0,0,4,,,,,,,,,3,,,51,62
74400,note_on,0,0,3,,,,,,,,,2,,,51,88
74400,note_on,1440,0,1,,,,,,,,,0,,,75,0
74400,note_on,0,0,2,,,,,,,,,1,,,78,62
74400,note_on,160,0,3,,,,,,,,,2,,,54,0
74559,note_on,0,0,2,,,,,,,,,1,,,66,62
74559,note_on,159,0,3,,,,,,,,,2,,,51,0
74559,note_on,0,0,3,,,,,,,,,2,,,58,62
74559,note_on,159,0,2,,,,,,,,,1,,,78,0
74720,note_on,0,0,2,,,,,,,,,1,,,70,62
74720,note_on,161,0,2,,,,,,,,,1,,,66,0
74720,note_on,0,0,3,,,,,,,,,2,,,54,62
74720,note_on,161,0,3,,,,,,,,,2,,,58,0
74880,note_on,480,0,4,,,,,,,,,3,,,51,0
74880,note_on,160,0,3,,,,,,,,,2,,,54,0
74880,note_on,0,0,1,,,,,,,,,0,,,77,75
74880,control_change,0,0,1,,,,,,,,,0,64,127,,
74880,note_on,480,0,1,,,,,,,,,0,,,78,0
74880,note_on,160,0,2,,,,,,,,,1,,,70,0
74880,note_on,0,0,4,,,,,,,,,3,,,46,62
74880,note_on,0,0,2,,,,,,,,,1,,,77,62
74880,note_on,0,0,3,,,,,,,,,2,,,46,62
75039,note_on,159,0,2,,,,,,,,,1,,,77,0
75039,note_on,0,0,2,,,,,,,,,1,,,65,62
75039,note_on,0,0,3,,,,,,,,,2,,,57,62
75039,note_on,159,0,3,,,,,,,,,2,,,46,0
75200,note_on,161,0,3,,,,,,,,,2,,,57,0
75200,note_on,161,0,2,,,,,,,,,1,,,65,0
75200,note_on,0,0,2,,,,,,,,,1,,,69,62
75200,note_on,0,0,3,,,,,,,,,2,,,53,62
75360,note_on,0,0,2,,,,,,,,,1,,,75,62
75360,note_on,0,0,1,,,,,,,,,0,,,75,75
75360,note_on,480,0,1,,,,,,,,,0,,,77,0
75360,note_on,0,0,3,,,,,,,,,2,,,51,62
75360,note_on,160,0,3,,,,,,,,,2,,,53,0
75360,note_on,160,0,2,,,,,,,,,1,,,69,0
75360,note_on,0,0,4,,,,,,,,,3,,,51,62
75360,note_on,480,0,4,,,,,,,,,3,,,46,0
75519,note_on,0,0,3,,,,,,,,,2,,,57,62
75519,note_on,159,0,3,,,,,,,,,2,,,51,0
75519,note_on,159,0,2,,,,,,,,,1,,,75,0
75519,note_on,0,0,2,,,,,,,,,1,,,63,62
75680,note_on,161,0,3,,,,,,,,,2,,,57,0
75680,note_on,0,0,3,,,,,,,,,2,,,54,62
75680,note_on,0,0,2,,,,,,,,,1,,,66,62
75680,note_on,161,0,2,,,,,,,,,1,,,63,0
75840,note_on,480,0,1,,,,,,,,,0,,,75,0
75840,note_on,0,0,3,,,,,,,,,2,,,46,49
75840,note_on,480,0,4,,,,,,,,,3,,,51,0
75840,note_on,160,0,3,,,,,,,,,2,,,54,0
75840,note_on,0,0,2,,,,,,,,,1,,,73,49
75840,note_on,160,0,2,,,,,,,,,1,,,66,0
75840,note_on,0,0,4,,,,,,,,,3,,,46,49
75840,note_on,0,0,1,,,,,,,,,0,,,73,62
75999,note_on,0,0,3,,,,,,,,,2,,,57,49
75999,note_on,159,0,2,,,,,,,,,1,,,73,0
75999,note_on,0,0,2,,,,,,,,,1,,,63,49
75999,note_on,159,0,3,,,,,,,,,2,,,46,0
76160,note_on,0,0,3,,,,,,,,,2,,,53,49
76160,note_on,0,0,2,,,,,,,,,1,,,65,49
76160,note_on,161,0,3,,,,,,,,,2,,,57,0
76160,note_on,161,0,2,,,,,,,,,1,,,63,0
76320,note_on,0,0,1,,,,,,,,,0,,,72,62
76320,note_on,0,0,3,,,,,,,,,2,,,51,49
76320,note_on,160,0,3,,,,,,,,,2,,,53,0
76320,note_on,160,0,2,,,,,,,,,1,,,65,0
76320,note_on,480,0,4,,,,,,,,,3,,,46,0
76320,note_on,0,0,2,,,,,,,,,1,,,72,49
76320,note_on,0,0,4,,,,,,,,,3,,,51,49
76320,note_on,480,0,1,,,,,,,,,0,,,73,0
76479,note_on,159,0,3,,,,,,,,,2,,,51,0
76479,note_on,159,0,2,,,,,,,,,1,,,72,0
76479,note_on,0,0,2,,,,,,,,,1,,,63,49
76479,note_on,0,0,3,,,,,,,,,2,,,57,49
76640,note_on,0,0,3,,,,,,,,,2,,,54,49
76640,note_on,0,0,2,,,,,,,,,1,,,65,49
76640,note_on,161,0,3,,,,,,,,,2,,,57,0
76640,note_on,161,0,2,,,,,,,,,1,,,63,0
76800,control_change,0,0,1,,,,,,,,,0,64,0,,
76800,note_on,0,0,2,,,,,,,,,1,,,70,49
76800,note_on,160,0,3,,,,,,,,,2,,,54,0
76800,note_on,480,0,1,,,,,,,,,0,,,72,0
76800,note_on,0,0,1,,,,,,,,,0,,,70,62
76800,note_on,0,0,4,,,,,,,,,3,,,46,49
76800,note_on,480,0,4,,,,,,,,,3,,,51,0
76800,note_on,0,0,3,,,,,,,,,2,,,46,49
76800,note_on,160,0,2,,,,,,,,,1,,,65,0
76959,note_on,0,0,2,,,,,,,,,1,,,61,49
76959,note_on,159,0,2,,,,,,,,,1,,,70,0
76959,note_on,0,0,3,,,,,,,,,2,,,58,49
76959,note_on,159,0,3,,,,,,,,,2,,,46,0
77120,note_on,161,0,2,,,,,,,,,1,,,61,0
77120,note_on,0,0,3,,,,,,,,,2,,,53,49
77120,note_on,0,0,2,,,,,,,,,1,,,65,49
77120,note_on,161,0,3,,,,,,,,,2,,,58,0
77280,note_on,160,0,2,,,,,,,,,1,,,65,0
77280,note_on,0,0,4,,,,,,,,,3,,,49,49
77280,note_on,0,0,3,,,,,,,,,2,,,49,49
77280,note_on,0,0,2,,,,,,,,,1,,,61,49
77280,note_on,160,0,3,,,,,,,,,2,,,53,0
77280,note_on,480,0,4,,,,,,,,,3,,,46,0
77439,note_on,159,0,3,,,,,,,,,2,,,49,0
77439,note_on,0,0,2,,,,,,,,,1,,,65,49
77439,note_on,159,0,2,,,,,,,,,1,,,61,0
77439,note_on,0,0,3,,,,,,,,,2,,,58,49
77600,note_on,0,0,2,,,,,,,,,1,,,61,49
77600,note_on,161,0,2,,,,,,,,,1,,,65,0
77600,note_on,0,0,3,,,,,,,,,2,,,53,49
77600,note_on,161,0,3,,,,,,,,,2,,,58,0
77760,note_on,0,0,2,,,,,,,,,1,,,65,49
77760,note_on,480,0,4,,,,,,,,,3,,,49,0
77760,note_on,160,0,2,,,,,,,,,1,,,61,0
77760,note_on,0,0,3,,,,,,,,,2,,,46,49
77760,note_on,160,0,3,,,,,,,,,2,,,53,0
77760,note_on,0,0,4,,,,,,,,,3,,,46,49
77919,note_on,0,0,3,,,,,,,,,2,,,58,49
77919,note_on,159,0,3,,,,,,,,,2,,,46,0
77919,note_on,0,0,2,,,,,,,,,1,,,61,49
77919,note_on,159,0,2,,,,,,,,,1,,,65,0
78080,note_on,0,0,2,,,,,,,,,1,,,65,49
78080,note_on,0,0,3,,,,,,,,,2,,,53,49
78080,note_on,161,0,2,,,,,,,,,1,,,61,0
78080,note_on,161,0,3,,,,,,,,,2,,,58,0
78240,note_on,0,0,4,,,,,,,,,3,,,49,75
78240,note_on,0,0,1,,,,,,,,,0,,,73,62
78240,note_on,0,0,2,,,,,,,,,1,,,73,75
78240,note_on,480,0,4,,,,,,,,,3,,,46,0
78240,note_on,160,0,2,,,,,,,,,1,,,65,0
78240,note_on,0,0,3,,,,,,,,,2,,,49,75
78240,note_on,160,0,3,,,,,,,,,2,,,53,0
78240,note_on,1440,0,1,,,,,,,,,0,,,70,0
78399,note_on,159,0,2,,,,,,,,,1,,,73,0
78399,note_on,159,0,3,,,,,,,,,2,,,49,0
78399,note_on,0,0,3,,,,,,,,,2,,,58,49
78399,note_on,0,0,2,,,,,,,,,1,,,61,49
78560,note_on,0,0,2,,,,,,,,,1,,,65,49
78560,note_on,0,0,3,,,,,,,,,2,,,53,49
78560,note_on,161,0,2,,,,,,,,,1,,,61,0
78560,note_on,161,0,3,,,,,,,,,2,,,58,0
78720,note_on,160,0,2,,,,,,,,,1,,,65,0
78720,note_on,480,0,4,,,,,,,,,3,,,49,0
78720,note_on,0,0,1,,,,,,,,,0,,,72,62
78720,note_on,0,0,3,,,,,,,,,2,,,46,49
78720,note_on,0,0,4,,,,,,,,,3,,,46,49
78720,control_change,0,0,1,,,,,,,,,0,64,127,,
78720,note_on,0,0,2,,,,,,,,,1,,,72,49
78720,note_on,480,0,1,,,,,,,,,0,,,73,0
78720,note_on,160,0,3,,,,,,,,,2,,,53,0
78879,note_on,159,0,3,,,,,,,,,2,,,46,0
78879,note_on,0,0,3,,,,,,,,,2,,,58,49
78879,note_on,0,0,2,,,,,,,,,1,,,61,49
78879,note_on,159,0,2,,,,,,,,,1,,,72,0
79040,note_on,161,0,2,,,,,,,,,1,,,61,0
79040,note_on,161,0,3,,,,,,,,,2,,,58,0
79040,note_on,0,0,3,,,,,,,,,2,,,53,49
79040,note_on,0,0,2,,,,,,,,,1,,,65,49
79200,note_on,480,0,4,,,,,,,,,3,,,46,0
79200,note_on,0,0,2,,,,,,,,,1,,,70,49
79200,note_on,0,0,3,,,,,,,,,2,,,49,49
79200,note_on,0,0,1,,,,,,,,,0,,,70,62
79200,note_on,480,0,1,,,,,,,,,0,,,72,0
79200,note_on,0,0,4,,,,,,,,,3,,,49,49
79200,note_on,160,0,2,,,,,,,,,1,,,65,0
79200,note_on,160,0,3,,,,,,,,,2,,,53,0
79359,note_on,159,0,3,,,,,,,,,2,,,49,0
79359,note_on,159,0,2,,,,,,,,,1,,,70,0
79359,note_on,0,0,2,,,,,,,,,1,,,61,49
79359,note_on,0,0,3,,,,,,,,,2,,,58,49
79520,note_on,0,0,2,,,,,,,,,1,,,65,49
79520,note_on,0,0,3,,,,,,,,,2,,,53,49
79520,note_on,161,0,3,,,,,,,,,2,,,58,0
79520,note_on,161,0,2,,,,,,,,,1,,,61,0
79680,note_on,160,0,3,,,,,,,,,2,,,53,0
79680,note_on,480,0,4,,,,,,,,,3,,,49,0
79680,note_on,0,0,4,,,,,,,,,3,,,46,49
79680,note_on,160,0,2,,,,,,,,,1,,,65,0
79680,note_on,0,0,1,,,,,,,,,0,,,69,62
79680,note_on,0,0,3,,,,,,,,,2,,,46,49
79680,note_on,480,0,1,,,,,,,,,0,,,70,0
79680,note_on,0,0,2,,,,,,,,,1,,,69,49
79839,note_on,0,0,3,,,,,,,,,2,,,58,49
79839,note_on,159,0,2,,,,,,,,,1,,,69,0
79839,note_on,159,0,3,,,,,,,,,2,,,46,0
79839,note_on,0,0,2,,,,,,,,,1,,,61,49
80000,note_on,0,0,2,,,,,,,,,1,,,65,49
80000,note_on,161,0,3,,,,,,,,,2,,,58,0
80000,note_on,161,0,2,,,,,,,,,1,,,61,0
80000,note_on,0,0,3,,,,,,,,,2,,,53,49
80160,note_on,160,0,3,,,,,,,,,2,,,53,0
80160,note_on,0,0,3,,,,,,,,,2,,,49,49
80160,note_on,160,0,2,,,,,,,,,1,,,65,0
80160,note_on,0,0,4,,,,,,,,,3,,,49,49
80160,note_on,0,0,2,,,,,,,,,1,,,70,49
80160,control_change,0,0,1,,,,,,,,,0,64,0,,
80160,note_on,480,0,4,,,,,,,,,3,,,46,0
80160,note_on,480,0,1,,,,,,,,,0,,,69,0
80160,note_on,0,0,1,,,,,,,,,0,,,70,62
80319,note_on,0,0,2,,,,,,,,,1,,,61,49
80319,note_on,0,0,3,,,,,,,,,2,,,58,49
80319,note_on,159,0,3,,,,,,,,,2,,,49,0
80319,note_on,159,0,2,,,,,,,,,1,,,70,0
80480,note_on,0,0,3,,,,,,,,,2,,,53,49
80480,note_on,161,0,3,,,,,,,,,2,,,58,0
80480,note_on,161,0,2,,,,,,,,,1,,,61,0
80480,note_on,0,0,2,,,,,,,,,1,,,65,49
80640,note_on,160,0,3,,,,,,,,,2,,,53,0
80640,note_on,0,0,1,,,,,,,,,0,,,75,62
80640,note_on,0,0,3,,,,,,,,,2,,,42,49
80640,note_on,480,0,1,,,,,,,,,0,,,70,0
80640,note_on,0,0,2,,,,,,,,,1,,,75,49
80640,note_on,480,0,4,,,,,,,,,3,,,49,0
80640,note_on,160,0,2,,,,,,,,,1,,,65,0
80799,note_on,0,0,3,,,,,,,,,2,,,58,49
80799,note_on,159,0,2,,,,,,,,,1,,,75,0
80799,note_on,0,0,2,,,,,,,,,1,,,63,49
80799,note_on,159,0,3,,,,,,,,,2,,,42,0
80960,note_on,161,0,3,,,,,,,,,2,,,58,0
80960,note_on,0,0,3,,,,,,,,,2,,,54,49
80960,note_on,161,0,2,,,,,,,,,1,,,63,0
80960,note_on,0,0,2,,,,,,,,,1,,,66,49
81120,note_on,0,0,2,,,,,,,,,1,,,70,49
81120,note_on,0,0,3,,,,,,,,,2,,,51,49
81120,note_on,160,0,2,,,,,,,,,1,,,66,0
81120,note_on,160,0,3,,,,,,,,,2,,,54,0
81279,note_on,159,0,3,,,,,,,,,2,,,51,0
81279,note_on,159,0,2,,,,,,,,,1,,,70,0
81279,note_on,0,0,2,,,,,,,,,1,,,63,49
81279,note_on,0,0,3,,,,,,,,,2,,,58,49
81440,note_on,0,0,3,,,,,,,,,2,,,54,49
81440,note_on,0,0,2,,,,,,,,,1,,,66,49
81440,note_on,161,0,3,,,,,,,,,2,,,58,0
81440,note_on,161,0,2,,,,,,,,,1,,,63,0
81600,note_on,0,0,3,,,,,,,,,2,,,39,49
81600,note_on,160,0,2,,,,,,,,,1,,,66,0
81600,note_on,160,0,3,,,,,,,,,2,,,54,0
81600,note_on,0,0,2,,,,,,,,,1,,,70,49
81759,note_on,0,0,2,,,,,,,,,1,,,63,49
81759,note_on,159,0,2,,,,,,,,,1,,,70,0
81759,note_on,159,0,3,,,,,,,,,2,,,39,0
81759,note_on,0,0,3,,,,,,,,,2,,,58,49
81920,note_on,161,0,2,,,,,,,,,1,,,63,0
81920,note_on,161,0,3,,,,,,,,,2,,,58,0
81920,note_on,0,0,2,,,,,,,,,1,,,66,49
81920,note_on,0,0,3,,,,,,,,,2,,,54,49
82080,note_on,160,0,3,,,,,,,,,2,,,54,0
82080,note_on,0,0,2,,,,,,,,,1,,,78,49
82080,note_on,1440,0,1,,,,,,,,,0,,,75,0
82080,note_on,0,0,1,,,,,,,,,0,,,78,62
82080,note_on,160,0,2,,,,,,,,,1,,,66,0
82080,note_on,0,0,3,,,,,,,,,2,,,51,49
82239,note_on,0,0,3,,,,,,,,,2,,,58,49
82239,note_on,159,0,2,,,,,,,,,1,,,78,0
82239,note_on,159,0,3,,,,,,,,,2,,,51,0
82239,note_on,0,0,2,,,,,,,,,1,,,66,49
82400,note_on,0,0,2,,,,,,,,,1,,,70,49
82400,note_on,161,0,2,,,,,,,,,1,,,66,0
82400,note_on,0,0,3,,,,,,,,,2,,,54,49
82400,note_on,161,0,3,,,,,,,,,2,,,58,0
82560,note_on,0,0,2,,,,,,,,,1,,,77,62
82560,note_on,160,0,2,,,,,,,,,1,,,70,0
82560,note_on,0,0,1,,,,,,,,,0,,,77,75
82560,note_on,480,0,1,,,,,,,,,0,,,78,0
82560,note_on,160,0,3,,,,,,,,,2,,,54,0
82560,note_on,0,0,3,,,,,,,,,2,,,38,62
82719,note_on,159,0,2,,,,,,,,,1,,,77,0
82719,note_on,0,0,2,,,,,,,,,1,,,65,62
82719,note_on,159,0,3,,,,,,,,,2,,,38,0
82719,note_on,0,0,3,,,,,,,,,2,,,58,62
82880,note_on,161,0,3,,,,,,,,,2,,,58,0
82880,note_on,0,0,3,,,,,,,,,2,,,53,62
82880,note_on,0,0,2,,,,,,,,,1,,,68,62
82880,note_on,161,0,2,,,,,,,,,1,,,65,0
83040,note_on,0,0,3,,,,,,,,,2,,,50,62
83040,note_on,0,0,2,,,,,,,,,1,,,70,62
83040,note_on,160,0,3,,,,,,,,,2,,,53,0
83040,note_on,160,0,2,,,,,,,,,1,,,68,0
83199,note_on,0,0,3,,,,,,,,,2,,,58,62
83199,note_on,159,0,2,,,,,,,,,1,,,70,0
83199,note_on,0,0,2,,,,,,,,,1,,,65,62
83199,note_on,159,0,3,,,,,,,,,2,,,50,0
83360,note_on,161,0,3,,,,,,,,,2,,,58,0
83360,note_on,161,0,2,,,,,,,,,1,,,65,0
83360,note_on,0,0,2,,,,,,,,,1,,,68,62
83360,note_on,0,0,3,,,,,,,,,2,,,53,62
83520,note_on,160,0,3,,,,,,,,,2,,,53,0
83520,note_on,0,0,2,,,,,,,,,1,,,70,62
83520,note_on,160,0,2,,,,,,,,,1,,,68,0
83520,note_on,0,0,3,,,,,,,,,2,,,46,62
83679,note_on,0,0,2,,,,,,,,,1,,,65,62
83679,note_on,0,0,3,,,,,,,,,2,,,58,62
83679,note_on,159,0,3,,,,,,,,,2,,,46,0
83679,note_on,159,0,2,,,,,,,,,1,,,70,0
83840,note_on,0,0,3,,,,,,,,,2,,,53,62
83840,note_on,161,0,2,,,,,,,,,1,,,65,0
83840,note_on,161,0,3,,,,,,,,,2,,,58,0
83840,note_on,0,0,2,,,,,,,,,1,,,68,62
84000,note_on,0,0,2,,,,,,,,,1,,,80,62
84000,note_on,0,0,1,,,,,,,,,0,,,80,75
84000,note_on,160,0,3,,,,,,,,,2,,,53,0
84000,note_on,160,0,2,,,,,,,,,1,,,68,0
84000,note_on,0,0,3,,,,,,,,,2,,,50,62
84000,note_on,1440,0,1,,,,,,,,,0,,,77,0
84159,note_on,159,0,2,,,,,,,,,1,,,80,0
84159,note_on,0,0,2,,,,,,,,,1,,,68,62
84159,note_on,159,0,3,,,,,,,,,2,,,50,0
84159,note_on,0,0,3,,,,,,,,,2,,,58,62
84320,note_on,161,0,3,,,,,,,,,2,,,58,0
84320,note_on,0,0,2,,,,,,,,,1,,,70,62
84320,note_on,161,0,2,,,,,,,,,1,,,68,0
84320,note_on,0,0,3,,,,,,,,,2,,,53,62
84480,note_on,160,0,3,,,,,,,,,2,,,53,0
84480,note_on,480,0,1,,,,,,,,,0,,,80,0
84480,note_on,0,0,2,,,,,,,,,1,,,78,75
84480,note_on,0,0,3,,,,,,,,,2,,,39,75
84480,note_on,0,0,1,,,,,,,,,0,,,78,88
84480,note_on,160,0,2,,,,,,,,,1,,,70,0
84639,note_on,159,0,2,,,,,,,,,1,,,78,0
84639,note_on,0,0,3,,,,,,,,,2,,,58,75
84639,note_on,0,0,2,,,,,,,,,1,,,66,75
84639,note_on,159,0,3,,,,,,,,,2,,,39,0
84800,note_on,0,0,3,,,,,,,,,2,,,54,75
84800,note_on,161,0,3,,,,,,,,,2,,,58,0
84800,note_on,0,0,2,,,,,,,,,1,,,70,75
84800,note_on,161,0,2,,,,,,,,,1,,,66,0
84960,note_on,160,0,2,,,,,,,,,1,,,70,0
84960,note_on,0,0,2,,,,,,,,,1,,,82,75
84960,note_on,480,0,1,,,,,,,,,0,,,78,0
84960,note_on,0,0,1,,,,,,,,,0,,,82,88
84960,note_on,0,0,3,,,,,,,,,2,,,51,75
84960,note_on,160,0,3,,,,,,,,,2,,,54,0
85119,note_on,159,0,2,,,,,,,,,1,,,82,0
85119,note_on,0,0,2,,,,,,,,,1,,,70,75
85119,note_on,159,0,3,,,,,,,,,2,,,51,0
85119,note_on,0,0,3,,,,,,,,,2,,,58,75
85280,note_on,0,0,3,,,,,,,,,2,,,54,75
85280,note_on,161,0,3,,,,,,,,,2,,,58,0
85280,note_on,0,0,2,,,,,,,,,1,,,75,75
85280,note_on,161,0,2,,,,,,,,,1,,,70,0
85440,note_on,480,0,1,,,,,,,,,0,,,82,0
85440,note_on,160,0,3,,,,,,,,,2,,,54,0
85440,note_on,0,0,1,,,,,,,,,0,,,80,88
85440,note_on,0,0,2,,,,,,,,,1,,,80,75
85440,note_on,0,0,3,,,,,,,,,2,,,41,75
85440,note_on,160,0,2,,,,,,,,,1,,,75,0
85599,note_on,159,0,3,,,,,,,,,2,,,41,0
85599,note_on,0,0,2,,,,,,,,,1,,,68,75
85599,note_on,0,0,3,,,,,,,,,2,,,61,75
85599,note_on,159,0,2,,,,,,,,,1,,,80,0
85760,note_on,0,0,3,,,,,,,,,2,,,56,75
85760,note_on,161,0,3,,,,,,,,,2,,,61,0
85760,note_on,161,0,2,,,,,,,,,1,,,68,0
85760,note_on,0,0,2,,,,,,,,,1,,,71,75
85920,note_on,0,0,3,,,,,,,,,2,,,53,75
85920,note_on,0,0,2,,,,,,,,,1,,,83,75
85920,note_on,0,0,1,,,,,,,,,0,,,83,88
85920,note_on,160,0,3,,,,,,,,,2,,,56,0
85920,note_on,480,0,1,,,,,,,,,0,,,80,0
85920,note_on,160,0,2,,,,,,,,,1,,,71,0
86079,note_on,159,0,2,,,,,,,,,1,,,83,0
86079,note_on,0,0,3,,,,,,,,,2,,,61,75
86079,note_on,0,0,2,,,,,,,,,1,,,71,75
86079,note_on,159,0,3,,,,,,,,,2,,,53,0
86240,note_on,0,0,3,,,,,,,,,2,,,56,75
86240,note_on,161,0,3,,,,,,,,,2,,,61,0
86240,note_on,0,0,2,,,,,,,,,1,,,73,75
86240,note_on,161,0,2,,,,,,,,,1,,,71,0
86400,note_on,160,0,2,,,,,,,,,1,,,73,0
86400,note_on,0,0,1,,,,,,,,,0,,,82,101
86400,note_on,480,0,1,,,,,,,,,0,,,83,0
86400,note_on,0,0,1,,,,,,,,,0,,,78,101
86400,end_of_track,0,1,2,,,,,,,,,,,,,
86400,note_on,0,0,3,,,,,,,,,2,,,42,101
86400,note_on,0,0,3,,,,,,,,,2,,,54,101
86400,note_on,160,0,3,,,,,,,,,2,,,56,0
86559,note_on,159,0,1,,,,,,,,,0,,,82,0
86559,note_on,0,0,1,,,,,,,,,0,,,70,101
86559,note_on,0,0,1,,,,,,,,,0,,,78,0
86720,note_on,161,0,1,,,,,,,,,0,,,70,0
86720,note_on,0,0,1,,,,,,,,,0,,,73,101
86880,note_on,0,0,1,,,,,,,,,0,,,82,101
86880,note_on,160,0,1,,,,,,,,,0,,,73,0
86880,note_on,0,0,1,,,,,,,,,0,,,78,101
87039,note_on,159,0,1,,,,,,,,,0,,,82,0
87039,note_on,0,0,1,,,,,,,,,0,,,78,0
87039,note_on,0,0,1,,,,,,,,,0,,,70,101
87200,note_on,161,0,1,,,,,,,,,0,,,70,0
87200,note_on,0,0,1,,,,,,,,,0,,,73,101
87360,note_on,0,0,1,,,,,,,,,0,,,78,101
87360,note_on,960,0,3,,,,,,,,,2,,,54,0
87360,note_on,160,0,1,,,,,,,,,0,,,73,0
87360,note_on,0,0,1,,,,,,,,,0,,,82,101
87360,note_on,0,0,3,,,,,,,,,2,,,42,0
87519,note_on,159,0,1,,,,,,,,,0,,,82,0
87519,note_on,0,0,1,,,,,,,,,0,,,70,101
87519,note_on,0,0,1,,,,,,,,,0,,,78,0
87680,note_on,161,0,1,,,,,,,,,0,,,70,0
87680,note_on,0,0,1,,,,,,,,,0,,,73,101
87840,note_on,0,0,1,,,,,,,,,0,,,82,101
87840,note_on,0,0,3,,,,,,,,,2,,,58,101
87840,note_on,0,0,1,,,,,,,,,0,,,78,101
87840,note_on,160,0,1,,,,,,,,,0,,,73,0
87840,note_on,480,0,3,,,,,,,,,2,,,46,101
87999,note_on,159,0,1,,,,,,,,,0,,,82,0
87999,note_on,0,0,1,,,,,,,,,0,,,78,0
87999,note_on,0,0,1,,,,,,,,,0,,,70,101
88160,note_on,161,0,1,,,,,,,,,0,,,70,0
88160,note_on,0,0,1,,,,,,,,,0,,,73,101
88320,note_on,480,0,3,,,,,,,,,2,,,58,0
88320,note_on,0,0,1,,,,,,,,,0,,,78,101
88320,note_on,0,0,3,,,,,,,,,2,,,46,0
88320,note_on,0,0,3,,,,,,,,,2,,,56,101
88320,note_on,160,0,1,,,,,,,,,0,,,73,0
88320,note_on,0,0,1,,,,,,,,,0,,,82,101
88320,note_on,0,0,3,,,,,,,,,2,,,44,101
88479,note_on,159,0,1,,,,,,,,,0,,,82,0
88479,note_on,0,0,1,,,,,,,,,0,,,78,0
88479,note_on,0,0,1,,,,,,,,,0,,,70,101
88640,note_on,0,0,1,,,,,,,,,0,,,73,101
88640,note_on,161,0,1,,,,,,,,,0,,,70,0
88800,note_on,0,0,1,,,,,,,,,0,,,82,101
88800,note_on,0,0,3,,,,,,,,,2,,,54,101
88800,note_on,0,0,3,,,,,,,,,2,,,44,0
88800,note_on,480,0,3,,,,,,,,,2,,,56,0
88800,note_on,0,0,3,,,,,,,,,2,,,42,101
88800,note_on,0,0,1,,,,,,,,,0,,,78,101
88800,note_on,160,0,1,,,,,,,,,0,,,73,0
88959,note_on,0,0,1,,,,,,,,,0,,,70,101
88959,note_on,0,0,1,,,,,,,,,0,,,78,0
88959,note_on,159,0,1,,,,,,,,,0,,,82,0
89120,note_on,161,0,1,,,,,,,,,0,,,70,0
89120,note_on,0,0,1,,,,,,,,,0,,,73,101
89280,note_on,0,0,3,,,,,,,,,2,,,41,101
89280,note_on,0,0,1,,,,,,,,,0,,,78,101
89280,note_on,0,0,1,,,,,,,,,0,,,82,101
89280,note_on,0,0,3,,,,,,,,,2,,,42,0
89280,note_on,0,0,3,,,,,,,,,2,,,53,101
89280,note_on,160,0,1,,,,,,,,,0,,,73,0
89280,note_on,480,0,3,,,,,,,,,2,,,54,0
89439,note_on,159,0,1,,,,,,,,,0,,,82,0
89439,note_on,0,0,1,,,,,,,,,0,,,70,101
89439,note_on,0,0,1,,,,,,,,,0,,,78,0
89600,note_on,0,0,1,,,,,,,,,0,,,73,101
89600,note_on,161,0,1,,,,,,,,,0,,,70,0
89760,note_on,0,0,3,,,,,,,,,2,,,41,0
89760,note_on,0,0,3,,,,,,,,,2,,,42,101
89760,note_on,480,0,3,,,,,,,,,2,,,53,0
89760,note_on,160,0,1,,,,,,,,,0,,,73,0
89760,note_on,0,0,3,,,,,,,,,2,,,54,101
89760,note_on,0,0,1,,,,,,,,,0,,,82,101
89760,note_on,0,0,1,,,,,,,,,0,,,78,101
89919,note_on,159,0,1,,,,,,,,,0,,,82,0
89919,note_on,0,0,1,,,,,,,,,0,,,78,0
89919,note_on,0,0,1,,,,,,,,,0,,,70,101
90080,note_on,161,0,1,,,,,,,,,0,,,70,0
90080,note_on,0,0,1,,,,,,,,,0,,,73,101
90240,note_on,0,0,3,,,,,,,,,2,,,52,101
90240,note_on,0,0,3,,,,,,,,,2,,,42,0
90240,note_on,0,0,3,,,,,,,,,2,,,40,101
90240,note_on,0,0,1,,,,,,,,,0,,,85,101
90240,note_on,0,0,1,,,,,,,,,0,,,91,101
90240,note_on,160,0,1,,,,,,,,,0,,,73,0
90240,note_on,480,0,3,,,,,,,,,2,,,54,0
90399,note_on,0,0,1,,,,,,,,,0,,,79,101
90399,note_on,0,0,1,,,,,,,,,0,,,85,0
90399,note_on,159,0,1,,,,,,,,,0,,,91,0
90560,note_on,0,0,1,,,,,,,,,0,,,82,101
90560,note_on,161,0,1,,,,,,,,,0,,,79,0
90720,note_on,0,0,1,,,,,,,,,0,,,85,101
90720,note_on,160,0,1,,,,,,,,,0,,,82,0
90720,note_on,0,0,1,,,,,,,,,0,,,91,101
90879,note_on,159,0,1,,,,,,,,,0,,,91,0
90879,note_on,0,0,1,,,,,,,,,0,,,79,101
90879,note_on,0,0,1,,,,,,,,,0,,,85,0
91040,note_on,0,0,1,,,,,,,,,0,,,82,101
91040,note_on,161,0,1,,,,,,,,,0,,,79,0
91200,note_on,160,0,1,,,,,,,,,0,,,82,0
91200,note_on,0,0,3,,,,,,,,,2,,,40,0
91200,note_on,0,0,1,,,,,,,,,0,,,85,101
91200,note_on,960,0,3,,,,,,,,,2,,,52,0
91200,note_on,0,0,1,,,,,,,,,0,,,91,101
91359,note_on,0,0,1,,,,,,,,,0,,,85,0
91359,note_on,159,0,1,,,,,,,,,0,,,91,0
91359,note_on,0,0,1,,,,,,,,,0,,,79,101
91520,note_on,0,0,1,,,,,,,,,0,,,82,101
91520,note_on,161,0,1,,,,,,,,,0,,,79,0
91680,note_on,480,0,3,,,,,,,,,2,,,37,101
91680,note_on,0,0,1,,,,,,,,,0,,,85,101
91680,note_on,0,0,3,,,,,,,,,2,,,49,101
91680,note_on,0,0,1,,,,,,,,,0,,,91,101
91680,note_on,160,0,1,,,,,,,,,0,,,82,0
91839,note_on,0,0,1,,,,,,,,,0,,,79,101
91839,note_on,0,0,1,,,,,,,,,0,,,85,0
91839,note_on,159,0,1,,,,,,,,,0,,,91,0
92000,note_on,161,0,1,,,,,,,,,0,,,79,0
92000,note_on,0,0,1,,,,,,,,,0,,,82,101
92160,note_on,0,0,3,,,,,,,,,2,,,48,101
92160,note_on,0,0,1,,,,,,,,,0,,,91,101
92160,note_on,480,0,3,,,,,,,,,2,,,49,0
92160,note_on,0,0,3,,,,,,,,,2,,,37,0
92160,note_on,0,0,3,,,,,,,,,2,,,36,101
92160,note_on,0,0,1,,,,,,,,,0,,,85,101
92160,note_on,160,0,1,,,,,,,,,0,,,82,0
92319,note_on,159,0,1,,,,,,,,,0,,,91,0
92319,note_on,0,0,1,,,,,,,,,0,,,85,0
92319,note_on,0,0,1,,,,,,,,,0,,,79,101
92480,note_on,0,0,1,,,,,,,,,0,,,82,101
92480,note_on,161,0,1,,,,,,,,,0,,,79,0
92640,note_on,0,0,3,,,,,,,,,2,,,46,101
92640,note_on,480,0,3,,,,,,,,,2,,,48,0
92640,note_on,0,0,1,,,,,,,,,0,,,85,101
92640,note_on,0,0,1,,,,,,,,,0,,,91,101
92640,note_on,160,0,1,,,,,,,,,0,,,82,0
92640,note_on,0,0,3,,,,,,,,,2,,,34,101
92640,note_on,0,0,3,,,,,,,,,2,,,36,0
92799,note_on,159,0,1,,,,,,,,,0,,,91,0
92799,note_on,0,0,1,,,,,,,,,0,,,79,101
92799,note_on,0,0,1,,,,,,,,,0,,,85,0
92960,note_on,161,0,1,,,,,,,,,0,,,79,0
92960,note_on,0,0,1,,,,,,,,,0,,,82,101
93120,note_on,0,0,3,,,,,,,,,2,,,45,101
93120,note_on,0,0,3,,,,,,,,,2,,,34,0
93120,note_on,0,0,3,,,,,,,,,2,,,33,101
93120,note_on,480,0,3,,,,,,,,,2,,,46,0
93120,note_on,0,0,1,,,,,,,,,0,,,91,101
93120,note_on,160,0,1,,,,,,,,,0,,,82,0
93120,note_on,0,0,1,,,,,,,,,0,,,85,101
93279,note_on,159,0,1,,,,,,,,,0,,,91,0
93279,note_on,0,0,1,,,,,,,,,0,,,79,101
93279,note_on,0,0,1,,,,,,,,,0,,,85,0
93440,note_on,0,0,1,,,,,,,,,0,,,82,101
93440,note_on,161,0,1,,,,,,,,,0,,,79,0
93600,note_on,480,0,3,,,,,,,,,2,,,45,0
93600,note_on,0,0,3,,,,,,,,,2,,,33,0
93600,note_on,160,0,1,,,,,,,,,0,,,82,0
93600,note_on,0,0,1,,,,,,,,,0,,,91,101
93600,note_on,0,0,1,,,,,,,,,0,,,85,101
93600,note_on,0,0,3,,,,,,,,,2,,,34,101
93600,note_on,0,0,3,,,,,,,,,2,,,46,101
93759,note_on,0,0,1,,,,,,,,,0,,,85,0
93759,note_on,0,0,1,,,,,,,,,0,,,79,101
93759,note_on,159,0,1,,,,,,,,,0,,,91,0
93920,note_on,161,0,1,,,,,,,,,0,,,79,0
93920,note_on,0,0,1,,,,,,,,,0,,,82,101
94080,note_on,0,0,3,,,,,,,,,2,,,29,101
94080,note_on,0,0,1,,,,,,,,,0,,,85,101
94080,note_on,0,0,3,,,,,,,,,2,,,41,101
94080,note_on,480,0,3,,,,,,,,,2,,,46,0
94080,note_on,160,0,1,,,,,,,,,0,,,82,0
94080,note_on,0,0,1,,,,,,,,,0,,,89,101
94080,note_on,0,0,3,,,,,,,,,2,,,34,0
94239,note_on,0,0,1,,,,,,,,,0,,,85,0
94239,note_on,159,0,1,,,,,,,,,0,,,89,0
94239,note_on,0,0,1,,,,,,,,,0,,,82,101
94400,note_on,161,0,1,,,,,,,,,0,,,82,0
94400,note_on,0,0,1,,,,,,,,,0,,,77,101
94560,note_on,480,0,3,,,,,,,,,2,,,41,0
94560,note_on,160,0,1,,,,,,,,,0,,,77,0
94560,note_on,0,0,1,,,,,,,,,0,,,89,101
94560,note_on,0,0,3,,,,,,,,,2,,,29,0
94560,note_on,0,0,3,,,,,,,,,2,,,74,101
94560,note_on,13920,0,4,,,,,,,,,3,,,65,101
94719,note_on,0,0,1,,,,,,,,,0,,,80,101
94719,note_on,159,0,1,,,,,,,,,0,,,89,0
94880,note_on,161,0,1,,,,,,,,,0,,,80,0
94880,note_on,0,0,1,,,,,,,,,0,,,83,101
95040,note_on,0,0,1,,,,,,,,,0,,,88,88
95040,note_on,160,0,1,,,,,,,,,0,,,83,0
95040,note_on,480,0,3,,,,,,,,,2,,,74,0
95040,note_on,0,0,3,,,,,,,,,2,,,73,75
95199,note_on,159,0,1,,,,,,,,,0,,,88,0
95199,note_on,0,0,1,,,,,,,,,0,,,79,88
95360,note_on,0,0,1,,,,,,,,,0,,,82,88
95360,note_on,161,0,1,,,,,,,,,0,,,79,0
95520,note_on,0,0,1,,,,,,,,,0,,,87,88
95520,note_on,0,0,3,,,,,,,,,2,,,72,75
95520,note_on,480,0,3,,,,,,,,,2,,,73,0
95520,note_on,160,0,1,,,,,,,,,0,,,82,0
95679,note_on,0,0,1,,,,,,,,,0,,,78,88
95679,note_on,159,0,1,,,,,,,,,0,,,87,0
95840,note_on,0,0,1,,,,,,,,,0,,,81,88
95840,note_on,161,0,1,,,,,,,,,0,,,78,0
96000,note_on,480,0,3,,,,,,,,,2,,,72,0
96000,note_on,0,0,1,,,,,,,,,0,,,86,88
96000,note_on,0,0,3,,,,,,,,,2,,,71,75
96000,note_on,160,0,1,,,,,,,,,0,,,81,0
96159,note_on,0,0,1,,,,,,,,,0,,,77,88
96159,note_on,159,0,1,,,,,,,,,0,,,86,0
96320,note_on,0,0,1,,,,,,,,,0,,,80,88
96320,note_on,161,0,1,,,,,,,,,0,,,77,0
96480,note_on,160,0,1,,,,,,,,,0,,,80,0
96480,note_on,0,0,1,,,,,,,,,0,,,85,75
96480,note_on,0,0,3,,,,,,,,,2,,,70,75
96480,note_on,480,0,3,,,,,,,,,2,,,71,0
96639,note_on,159,0,1,,,,,,,,,0,,,85,0
96639,note_on,0,0,1,,,,,,,,,0,,,76,75
96800,note_on,161,0,1,,,,,,,,,0,,,76,0
96800,note_on,0,0,1,,,,,,,,,0,,,79,75
96960,note_on,0,0,3,,,,,,,,,2,,,69,75
96960,note_on,480,0,3,,,,,,,,,2,,,70,0
96960,note_on,160,0,1,,,,,,,,,0,,,79,0
96960,note_on,0,0,1,,,,,,,,,0,,,84,75
97119,note_on,159,0,1,,,,,,,,,0,,,84,0
97119,note_on,0,0,1,,,,,,,,,0,,,75,75
97280,note_on,0,0,1,,,,,,,,,0,,,78,75
97280,note_on,161,0,1,,,,,,,,,0,,,75,0
97440,note_on,160,0,1,,,,,,,,,0,,,78,0
97440,note_on,480,0,3,,,,,,,,,2,,,69,0
97440,note_on,0,0,3,,,,,,,,,2,,,68,62
97440,note_on,0,0,1,,,,,,,,,0,,,83,62
97599,note_on,0,0,1,,,,,,,,,0,,,74,62
97599,note_on,159,0,1,,,,,,,,,0,,,83,0
97760,note_on,161,0,1,,,,,,,,,0,,,74,0
97760,note_on,0,0,1,,,,,,,,,0,,,77,62
97920,note_on,0,0,3,,,,,,,,,2,,,67,62
97920,note_on,160,0,1,,,,,,,,,0,,,77,0
97920,note_on,480,0,3,,,,,,,,,2,,,68,0
97920,note_on,0,0,1,,,,,,,,,0,,,82,62
98079,note_on,159,0,1,,,,,,,,,0,,,82,0
98079,note_on,0,0,1,,,,,,,,,0,,,73,62
98240,note_on,0,0,1,,,,,,,,,0,,,76,62
98240,note_on,161,0,1,,,,,,,,,0,,,73,0
98400,note_on,0,0,1,,,,,,,,,0,,,81,62
98400,note_on,480,0,3,,,,,,,,,2,,,67,0
98400,note_on,160,0,1,,,,,,,,,0,,,76,0
98400,note_on,0,0,3,,,,,,,,,2,,,66,62
98400,note_on,0,0,4,,,,,,,,,3,,,53,62
98400,note_on,3840,0,4,,,,,,,,,3,,,65,0
98559,note_on,159,0,1,,,,,,,,,0,,,81,0
98559,note_on,0,0,1,,,,,,,,,0,,,72,62
98720,note_on,161,0,1,,,,,,,,,0,,,72,0
98720,note_on,0,0,1,,,,,,,,,0,,,75,62
98880,note_on,160,0,1,,,,,,,,,0,,,75,0
98880,note_on,0,0,3,,,,,,,,,2,,,65,62
98880,note_on,480,0,3,,,,,,,,,2,,,66,0
98880,note_on,0,0,1,,,,,,,,,0,,,80,62
99039,note_on,0,0,1,,,,,,,,,0,,,71,62
99039,note_on,159,0,1,,,,,,,,,0,,,80,0
99200,note_on,161,0,1,,,,,,,,,0,,,71,0
99200,note_on,0,0,1,,,,,,,,,0,,,74,62
99360,note_on,480,0,3,,,,,,,,,2,,,65,0
99360,note_on,160,0,1,,,,,,,,,0,,,74,0
99360,note_on,0,0,1,,,,,,,,,0,,,79,62
99360,note_on,0,0,3,,,,,,,,,2,,,64,62
99519,note_on,0,0,1,,,,,,,,,0,,,70,62
99519,note_on,159,0,1,,,,,,,,,0,,,79,0
99680,note_on,0,0,1,,,,,,,,,0,,,73,62
99680,note_on,161,0,1,,,,,,,,,0,,,70,0
99840,control_change,0,0,1,,,,,,,,,0,64,127,,
99840,note_on,0,0,1,,,,,,,,,0,,,78,62
99840,note_on,0,0,3,,,,,,,,,2,,,63,62
99840,note_on,0,0,3,,,,,,,,,2,,,60,62
99840,note_on,160,0,1,,,,,,,,,0,,,73,0
99840,note_on,480,0,3,,,,,,,,,2,,,64,0
99999,note_on,0,0,1,,,,,,,,,0,,,69,62
99999,note_on,159,0,1,,,,,,,,,0,,,78,0
100160,note_on,0,0,1,,,,,,,,,0,,,72,62
100160,note_on,161,0,1,,,,,,,,,0,,,69,0
100320,note_on,0,0,1,,,,,,,,,0,,,77,49
100320,note_on,160,0,1,,,,,,,,,0,,,72,0
100479,note_on,159,0,1,,,,,,,,,0,,,77,0
100479,note_on,0,0,1,,,,,,,,,0,,,69,49
100640,note_on,0,0,1,,,,,,,,,0,,,72,49
100640,note_on,161,0,1,,,,,,,,,0,,,69,0
100800,note_on,160,0,1,,,,,,,,,0,,,72,0
100800,note_on,0,0,1,,,,,,,,,0,,,76,49
100959,note_on,0,0,1,,,,,,,,,0,,,69,49
100959,note_on,159,0,1,,,,,,,,,0,,,76,0
101120,note_on,161,0,1,,,,,,,,,0,,,69,0
101120,note_on,0,0,1,,,,,,,,,0,,,72,49
101280,note_on,0,0,1,,,,,,,,,0,,,77,49
101280,note_on,160,0,1,,,,,,,,,0,,,72,0
101439,note_on,0,0,1,,,,,,,,,0,,,69,49
101439,note_on,159,0,1,,,,,,,,,0,,,77,0
101600,control_change,0,0,1,,,,,,,,,0,64,0,,
101600,note_on,0,0,1,,,,,,,,,0,,,72,49
101600,note_on,161,0,1,,,,,,,,,0,,,69,0
101760,note_on,3360,0,4,,,,,,,,,3,,,53,0
101760,note_on,0,0,3,,,,,,,,,2,,,66,49
101760,note_on,0,0,3,,,,,,,,,2,,,60,0
101760,note_on,0,0,1,,,,,,,,,0,,,82,49
101760,note_on,160,0,1,,,,,,,,,0,,,72,0
101760,note_on,1920,0,3,,,,,,,,,2,,,63,0
101919,note_on,0,0,1,,,,,,,,,0,,,72,49
101919,note_on,159,0,1,,,,,,,,,0,,,82,0
102080,note_on,161,0,1,,,,,,,,,0,,,72,0
102080,note_on,0,0,1,,,,,,,,,0,,,75,49
102240,note_on,0,0,3,,,,,,,,,2,,,65,49
102240,note_on,480,0,3,,,,,,,,,2,,,66,0
102240,note_on,160,0,1,,,,,,,,,0,,,75,0
102240,note_on,0,0,1,,,,,,,,,0,,,81,49
102399,note_on,0,0,1,,,,,,,,,0,,,72,49
102399,note_on,159,0,1,,,,,,,,,0,,,81,0
102560,note_on,0,0,1,,,,,,,,,0,,,75,49
102560,note_on,161,0,1,,,,,,,,,0,,,72,0
102720,note_on,0,0,1,,,,,,,,,0,,,80,49
102720,note_on,160,0,1,,,,,,,,,0,,,75,0
102720,note_on,0,0,3,,,,,,,,,2,,,64,49
102720,note_on,480,0,3,,,,,,,,,2,,,65,0
102879,note_on,0,0,1,,,,,,,,,0,,,72,49
102879,note_on,159,0,1,,,,,,,,,0,,,80,0
103040,note_on,0,0,1,,,,,,,,,0,,,75,49
103040,note_on,161,0,1,,,,,,,,,0,,,72,0
103200,note_on,160,0,1,,,,,,,,,0,,,75,0
103200,note_on,480,0,3,,,,,,,,,2,,,64,0
103200,note_on,0,0,3,,,,,,,,,2,,,65,49
103200,note_on,0,0,1,,,,,,,,,0,,,81,49
103359,note_on,159,0,1,,,,,,,,,0,,,81,0
103359,note_on,0,0,1,,,,,,,,,0,,,72,49
103520,note_on,0,0,1,,,,,,,,,0,,,75,49
103520,note_on,161,0,1,,,,,,,,,0,,,72,0
103680,note_on,480,0,3,,,,,,,,,2,,,65,0
103680,control_change,0,0,1,,,,,,,,,0,64,127,,
103680,note_on,0,0,1,,,,,,,,,0,,,78,62
103680,note_on,160,0,1,,,,,,,,,0,,,75,0
103680,note_on,0,0,3,,,,,,,,,2,,,63,49
103680,note_on,0,0,3,,,,,,,,,2,,,60,49
103680,note_on,0,0,3,,,,,,,,,2,,,53,49
103839,note_on,0,0,1,,,,,,,,,0,,,69,62
103839,note_on,159,0,1,,,,,,,,,0,,,78,0
104000,note_on,0,0,1,,,,,,,,,0,,,72,62
104000,note_on,161,0,1,,,,,,,,,0,,,69,0
104160,note_on,0,0,1,,,,,,,,,0,,,77,62
104160,note_on,160,0,1,,,,,,,,,0,,,72,0
104319,note_on,159,0,1,,,,,,,,,0,,,77,0
104319,note_on,0,0,1,,,,,,,,,0,,,69,62
104480,note_on,161,0,1,,,,,,,,,0,,,69,0
104480,note_on,0,0,1,,,,,,,,,0,,,72,62
104640,note_on,160,0,1,,,,,,,,,0,,,72,0
104640,note_on,0,0,1,,,,,,,,,0,,,76,62
104799,note_on,0,0,1,,,,,,,,,0,,,69,62
104799,note_on,159,0,1,,,,,,,,,0,,,76,0
104960,note_on,161,0,1,,,,,,,,,0,,,69,0
104960,note_on,0,0,1,,,,,,,,,0,,,72,62
105120,note_on,160,0,1,,,,,,,,,0,,,72,0
105120,note_on,0,0,1,,,,,,,,,0,,,77,62
105279,note_on,0,0,1,,,,,,,,,0,,,69,62
105279,note_on,159,0,1,,,,,,,,,0,,,77,0
105440,control_change,0,0,1,,,,,,,,,0,64,0,,
105440,note_on,161,0,1,,,,,,,,,0,,,69,0
105440,note_on,0,0,1,,,,,,,,,0,,,72,62
105600,note_on,1920,0,3,,,,,,,,,2,,,63,0
105600,note_on,160,0,1,,,,,,,,,0,,,72,0
105600,note_on,0,0,3,,,,,,,,,2,,,60,0
105600,note_on,0,0,3,,,,,,,,,2,,,66,62
105600,note_on,0,0,1,,,,,,,,,0,,,82,62
105600,note_on,0,0,3,,,,,,,,,2,,,53,0
105759,note_on,159,0,1,,,,,,,,,0,,,82,0
105759,note_on,0,0,1,,,,,,,,,0,,,72,62
105920,note_on,161,0,1,,,,,,,,,0,,,72,0
105920,note_on,0,0,1,,,,,,,,,0,,,75,62
106080,note_on,0,0,1,,,,,,,,,0,,,81,62
106080,note_on,0,0,3,,,,,,,,,2,,,65,62
106080,note_on,480,0,3,,,,,,,,,2,,,66,0
106080,note_on,160,0,1,,,,,,,,,0,,,75,0
106239,note_on,159,0,1,,,,,,,,,0,,,81,0
106239,note_on,0,0,1,,,,,,,,,0,,,72,62
106400,note_on,161,0,1,,,,,,,,,0,,,72,0
106400,note_on,0,0,1,,,,,,,,,0,,,75,62
106560,note_on,480,0,3,,,,,,,,,2,,,65,0
106560,note_on,0,0,3,,,,,,,,,2,,,64,75
106560,note_on,0,0,1,,,,,,,,,0,,,80,75
106560,note_on,160,0,1,,,,,,,,,0,,,75,0
106719,note_on,0,0,1,,,,,,,,,0,,,72,75
106719,note_on,159,0,1,,,,,,,,,0,,,80,0
106880,note_on,161,0,1,,,,,,,,,0,,,72,0
106880,note_on,0,0,1,,,,,,,,,0,,,75,75
107040,note_on,0,0,1,,,,,,,,,0,,,81,75
107040,note_on,160,0,1,,,,,,,,,0,,,75,0
107040,note_on,0,0,3,,,,,,,,,2,,,65,75
107040,note_on,480,0,3,,,,,,,,,2,,,64,0
107199,note_on,159,0,1,,,,,,,,,0,,,81,0
107199,note_on,0,0,1,,,,,,,,,0,,,72,75
107360,note_on,161,0,1,,,,,,,,,0,,,72,0
107360,note_on,0,0,1,,,,,,,,,0,,,75,75
107520,note_on,160,0,1,,,,,,,,,0,,,75,0
107520,note_on,0,0,3,,,,,,,,,2,,,66,88
107520,note_on,0,0,1,,,,,,,,,0,,,82,88
107520,note_on,480,0,3,,,,,,,,,2,,,65,0
107679,note_on,159,0,1,,,,,,,,,0,,,82,0
107679,note_on,0,0,1,,,,,,,,,0,,,72,88
107840,note_on,161,0,1,,,,,,,,,0,,,72,0
107840,note_on,0,0,1,,,,,,,,,0,,,75,88
108000,note_on,0,0,1,,,,,,,,,0,,,81,88
108000,note_on,160,0,1,,,,,,,,,0,,,75,0
108000,note_on,0,0,3,,,,,,,,,2,,,65,88
108000,note_on,480,0,3,,,,,,,,,2,,,66,0
108159,note_on,159,0,1,,,,,,,,,0,,,81,0
108159,note_on,0,0,1,,,,,,,,,0,,,72,88
108320,note_on,161,0,1,,,,,,,,,0,,,72,0
108320,note_on,0,0,1,,,,,,,,,0,,,75,88
108480,note_on,160,0,1,,,,,,,,,0,,,75,0
108480,note_on,0,0,1,,,,,,,,,0,,,80,75
108480,note_on,480,0,3,,,,,,,,,2,,,65,0
108480,note_on,0,0,3,,,,,,,,,2,,,64,75
108639,note_on,159,0,1,,,,,,,,,0,,,80,0
108639,note_on,0,0,1,,,,,,,,,0,,,72,75
108800,note_on,161,0,1,,,,,,,,,0,,,72,0
108800,note_on,0,0,1,,,,,,,,,0,,,75,75
108960,note_on,480,0,3,,,,,,,,,2,,,64,0
108960,note_on,160,0,1,,,,,,,,,0,,,75,0
108960,note_on,0,0,3,,,,,,,,,2,,,65,75
108960,note_on,0,0,1,,,,,,,,,0,,,81,75
109119,note_on,159,0,1,,,,,,,,,0,,,81,0
109119,note_on,0,0,1,,,,,,,,,0,,,72,75
109280,note_on,161,0,1,,,,,,,,,0,,,72,0
109280,note_on,0,0,1,,,,,,,,,0,,,75,75
109440,note_on,0,0,3,,,,,,,,,2,,,61,62
109440,note_on,160,0,1,,,,,,,,,0,,,75,0
109440,note_on,480,0,3,,,,,,,,,2,,,65,0
109440,note_on,0,0,1,,,,,,,,,0,,,82,62
109440,note_on,0,0,3,,,,,,,,,2,,,58,62
109599,note_on,159,0,1,,,,,,,,,0,,,82,0
109599,note_on,0,0,1,,,,,,,,,0,,,70,62
109760,note_on,0,0,1,,,,,,,,,0,,,82,62
109760,note_on,161,0,1,,,,,,,,,0,,,70,0
109920,note_on,160,0,1,,,,,,,,,0,,,82,0
109920,note_on,8160,0,4,,,,,,,,,3,,,58,62
109920,note_on,0,0,1,,,,,,,,,0,,,83,62
109920,note_on,0,0,3,,,,,,,,,2,,,68,88
109920,note_on,0,0,3,,,,,,,,,2,,,58,0
109920,note_on,480,0,3,,,,,,,,,2,,,61,0
110079,note_on,159,0,1,,,,,,,,,0,,,83,0
110079,note_on,0,0,1,,,,,,,,,0,,,74,62
110240,note_on,0,0,1,,,,,,,,,0,,,83,62
110240,note_on,161,0,1,,,,,,,,,0,,,74,0
110400,note_on,480,0,3,,,,,,,,,2,,,68,0
110400,note_on,0,0,1,,,,,,,,,0,,,82,62
110400,note_on,160,0,1,,,,,,,,,0,,,83,0
110400,note_on,0,0,3,,,,,,,,,2,,,66,62
110559,note_on,159,0,1,,,,,,,,,0,,,82,0
110559,note_on,0,0,1,,,,,,,,,0,,,74,62
110720,note_on,0,0,1,,,,,,,,,0,,,82,62
110720,note_on,161,0,1,,,,,,,,,0,,,74,0
110880,note_on,0,0,3,,,,,,,,,2,,,65,62
110880,note_on,480,0,3,,,,,,,,,2,,,66,0
110880,note_on,160,0,1,,,,,,,,,0,,,82,0
110880,note_on,0,0,1,,,,,,,,,0,,,80,62
111039,note_on,159,0,1,,,,,,,,,0,,,80,0
111039,note_on,0,0,1,,,,,,,,,0,,,74,62
111200,note_on,0,0,1,,,,,,,,,0,,,80,62
111200,note_on,161,0,1,,,,,,,,,0,,,74,0
111360,note_on,0,0,3,,,,,,,,,2,,,63,62
111360,note_on,0,0,1,,,,,,,,,0,,,79,62
111360,note_on,160,0,1,,,,,,,,,0,,,80,0
111360,note_on,480,0,3,,,,,,,,,2,,,65,0
111519,note_on,0,0,1,,,,,,,,,0,,,70,62
111519,note_on,159,0,1,,,,,,,,,0,,,79,0
111680,note_on,0,0,1,,,,,,,,,0,,,75,62
111680,note_on,161,0,1,,,,,,,,,0,,,70,0
111840,note_on,0,0,1,,,,,,,,,0,,,78,62
111840,note_on,160,0,1,,,,,,,,,0,,,75,0
111840,note_on,0,0,4,,,,,,,,,3,,,58,62
111840,note_on,0,0,3,,,,,,,,,2,,,63,62
111840,note_on,1920,0,4,,,,,,,,,3,,,58,0
111840,note_on,480,0,3,,,,,,,,,2,,,63,0
111999,note_on,0,0,1,,,,,,,,,0,,,69,62
111999,note_on,159,0,1,,,,,,,,,0,,,78,0
112160,note_on,0,0,1,,,,,,,,,0,,,72,62
112160,note_on,161,0,1,,,,,,,,,0,,,69,0
112320,note_on,480,0,3,,,,,,,,,2,,,63,0
112320,note_on,0,0,3,,,,,,,,,2,,,65,62
112320,note_on,160,0,1,,,,,,,,,0,,,72,0
112320,note_on,0,0,1,,,,,,,,,0,,,77,62
112479,note_on,159,0,1,,,,,,,,,0,,,77,0
112479,note_on,0,0,1,,,,,,,,,0,,,69,62
112640,note_on,161,0,1,,,,,,,,,0,,,69,0
112640,note_on,0,0,1,,,,,,,,,0,,,72,62
112800,note_on,0,0,3,,,,,,,,,2,,,66,62
112800,note_on,0,0,1,,,,,,,,,0,,,75,62
112800,note_on,160,0,1,,,,,,,,,0,,,72,0
112800,note_on,480,0,3,,,,,,,,,2,,,65,0
112959,note_on,0,0,1,,,,,,,,,0,,,69,62
112959,note_on,159,0,1,,,,,,,,,0,,,75,0
113120,note_on,161,0,1,,,,,,,,,0,,,69,0
113120,note_on,0,0,1,,,,,,,,,0,,,72,62
113280,note_on,0,0,3,,,,,,,,,2,,,65,62
113280,note_on,480,0,3,,,,,,,,,2,,,66,0
113280,note_on,0,0,1,,,,,,,,,0,,,73,62
113280,note_on,160,0,1,,,,,,,,,0,,,72,0
113439,note_on,0,0,1,,,,,,,,,0,,,70,62
113439,note_on,159,0,1,,,,,,,,,0,,,73,0
113600,note_on,0,0,1,,,,,,,,,0,,,82,62
113600,note_on,161,0,1,,,,,,,,,0,,,70,0
113760,note_on,0,0,3,,,,,,,,,2,,,68,88
113760,note_on,0,0,1,,,,,,,,,0,,,83,88
113760,note_on,480,0,3,,,,,,,,,2,,,65,0
113760,note_on,1920,0,4,,,,,,,,,3,,,58,0
113760,note_on,160,0,1,,,,,,,,,0,,,82,0
113760,note_on,0,0,4,,,,,,,,,3,,,58,62
113919,note_on,0,0,1,,,,,,,,,0,,,74,62
113919,note_on,159,0,1,,,,,,,,,0,,,83,0
114080,note_on,0,0,1,,,,,,,,,0,,,83,62
114080,note_on,161,0,1,,,,,,,,,0,,,74,0
114240,note_on,160,0,1,,,,,,,,,0,,,83,0
114240,note_on,480,0,3,,,,,,,,,2,,,68,0
114240,note_on,0,0,1,,,,,,,,,0,,,82,62
114240,note_on,0,0,3,,,,,,,,,2,,,66,62
114399,note_on,159,0,1,,,,,,,,,0,,,82,0
114399,note_on,0,0,1,,,,,,,,,0,,,74,62
114560,note_on,0,0,1,,,,,,,,,0,,,82,62
114560,note_on,161,0,1,,,,,,,,,0,,,74,0
114720,note_on,0,0,3,,,,,,,,,2,,,65,62
114720,note_on,480,0,3,,,,,,,,,2,,,66,0
114720,note_on,160,0,1,,,,,,,,,0,,,82,0
114720,note_on,0,0,1,,,,,,,,,0,,,80,62
114879,note_on,159,0,1,,,,,,,,,0,,,80,0
114879,note_on,0,0,1,,,,,,,,,0,,,74,62
115040,note_on,161,0,1,,,,,,,,,0,,,74,0
115040,note_on,0,0,1,,,,,,,,,0,,,80,62
115200,note_on,0,0,3,,,,,,,,,2,,,63,62
115200,note_on,480,0,3,,,,,,,,,2,,,65,0
115200,note_on,0,0,1,,,,,,,,,0,,,79,62
115200,note_on,160,0,1,,,,,,,,,0,,,80,0
115359,note_on,0,0,1,,,,,,,,,0,,,70,62
115359,note_on,159,0,1,,,,,,,,,0,,,79,0
115520,note_on,161,0,1,,,,,,,,,0,,,70,0
115520,note_on,0,0,1,,,,,,,,,0,,,75,62
115680,note_on,160,0,1,,,,,,,,,0,,,75,0
115680,note_on,0,0,1,,,,,,,,,0,,,78,62
115680,note_on,480,0,3,,,,,,,,,2,,,63,0
115680,note_on,0,0,3,,,,,,,,,2,,,63,62
115680,note_on,1920,0,4,,,,,,,,,3,,,58,0
115680,note_on,0,0,4,,,,,,,,,3,,,58,62
115839,note_on,159,0,1,,,,,,,,,0,,,78,0
115839,note_on,0,0,1,,,,,,,,,0,,,69,62
116000,note_on,161,0,1,,,,,,,,,0,,,69,0
116000,note_on,0,0,1,,,,,,,,,0,,,72,62
116160,note_on,0,0,3,,,,,,,,,2,,,65,62
116160,note_on,480,0,3,,,,,,,,,2,,,63,0
116160,note_on,0,0,1,,,,,,,,,0,,,77,62
116160,note_on,160,0,1,,,,,,,,,0,,,72,0
116319,note_on,159,0,1,,,,,,,,,0,,,77,0
116319,note_on,0,0,1,,,,,,,,,0,,,69,62
116480,note_on,161,0,1,,,,,,,,,0,,,69,0
116480,note_on,0,0,1,,,,,,,,,0,,,72,62
116640,note_on,480,0,3,,,,,,,,,2,,,65,0
116640,note_on,0,0,3,,,,,,,,,2,,,66,62
116640,note_on,0,0,1,,,,,,,,,0,,,75,62
116640,note_on,160,0,1,,,,,,,,,0,,,72,0
116799,note_on,0,0,1,,,,,,,,,0,,,69,62
116799,note_on,159,0,1,,,,,,,,,0,,,75,0
116960,note_on,0,0,1,,,,,,,,,0,,,72,62
116960,note_on,161,0,1,,,,,,,,,0,,,69,0
117120,note_on,0,0,3,,,,,,,,,2,,,65,62
117120,note_on,160,0,1,,,,,,,,,0,,,72,0
117120,note_on,0,0,1,,,,,,,,,0,,,73,62
117120,note_on,480,0,3,,,,,,,,,2,,,66,0
117279,note_on,159,0,1,,,,,,,,,0,,,73,0
117279,note_on,0,0,1,,,,,,,,,0,,,70,62
117360,note_on,240,0,3,,,,,,,,,2,,,65,0
117360,end_of_track,0,1,4,,,,,,,,,,,,,
117360,note_on,1680,0,4,,,,,,,,,3,,,58,0
117440,note_on,161,0,1,,,,,,,,,0,,,70,0
117440,note_on,0,0,1,,,,,,,,,0,,,73,62
117600,note_on,0,0,1,,,,,,,,,0,,,77,62
117600,note_on,160,0,1,,,,,,,,,0,,,73,0
117759,note_on,0,0,1,,,,,,,,,0,,,65,62
117759,note_on,159,0,1,,,,,,,,,0,,,77,0
117920,note_on,0,0,1,,,,,,,,,0,,,77,62
117920,note_on,161,0,1,,,,,,,,,0,,,65,0
118080,note_on,0,0,3,,,,,,,,,2,,,60,62
118080,note_on,720,0,3,,,,,,,,,2,,,53,62
118080,note_on,0,0,3,,,,,,,,,2,,,63,62
118080,note_on,160,0,1,,,,,,,,,0,,,77,0
118080,note_on,0,0,1,,,,,,,,,0,,,72,62
118239,note_on,159,0,1,,,,,,,,,0,,,72,0
118239,note_on,0,0,1,,,,,,,,,0,,,69,62
118320,note_on,0,0,3,,,,,,,,,2,,,53,0
118320,note_on,0,0,3,,,,,,,,,2,,,60,0
118320,note_on,240,0,3,,,,,,,,,2,,,63,0
118400,note_on,0,0,1,,,,,,,,,0,,,72,62
118400,note_on,161,0,1,,,,,,,,,0,,,69,0
118560,note_on,0,0,1,,,,,,,,,0,,,77,62
118560,note_on,160,0,1,,,,,,,,,0,,,72,0
118719,note_on,159,0,1,,,,,,,,,0,,,77,0
118719,note_on,0,0,1,,,,,,,,,0,,,65,62
118880,note_on,0,0,1,,,,,,,,,0,,,77,62
118880,note_on,161,0,1,,,,,,,,,0,,,65,0
119040,note_on,160,0,1,,,,,,,,,0,,,77,0
119040,note_on,0,0,1,,,,,,,,,0,,,73,62
119040,note_on,720,0,3,,,,,,,,,2,,,58,62
119040,note_on,0,0,3,,,,,,,,,2,,,61,62
119199,note_on,0,0,1,,,,,,,,,0,,,70,62
119199,note_on,159,0,1,,,,,,,,,0,,,73,0
119280,note_on,0,0,3,,,,,,,,,2,,,58,0
119280,note_on,240,0,3,,,,,,,,,2,,,61,0
119360,note_on,0,0,1,,,,,,,,,0,,,73,62
119360,note_on,161,0,1,,,,,,,,,0,,,70,0
119520,note_on,160,0,1,,,,,,,,,0,,,73,0
119520,note_on,0,0,1,,,,,,,,,0,,,77,62
119679,note_on,159,0,1,,,,,,,,,0,,,77,0
119679,note_on,0,0,1,,,,,,,,,0,,,65,62
119840,note_on,161,0,1,,,,,,,,,0,,,65,0
119840,note_on,0,0,1,,,,,,,,,0,,,77,62
120000,note_on,0,0,3,,,,,,,,,2,,,63,62
120000,note_on,160,0,1,,,,,,,,,0,,,77,0
120000,note_on,720,0,3,,,,,,,,,2,,,53,62
120000,note_on,0,0,1,,,,,,,,,0,,,72,62
120000,note_on,0,0,3,,,,,,,,,2,,,60,62
120159,note_on,0,0,1,,,,,,,,,0,,,69,62
120159,note_on,159,0,1,,,,,,,,,0,,,72,0
120240,note_on,0,0,3,,,,,,,,,2,,,60,0
120240,note_on,0,0,3,,,,,,,,,2,,,53,0
120240,note_on,240,0,3,,,,,,,,,2,,,63,0
120320,note_on,0,0,1,,,,,,,,,0,,,72,62
120320,note_on,161,0,1,,,,,,,,,0,,,69,0
120480,note_on,160,0,1,,,,,,,,,0,,,72,0
120480,note_on,0,0,1,,,,,,,,,0,,,77,62
120639,note_on,0,0,1,,,,,,,,,0,,,65,62
120639,note_on,159,0,1,,,,,,,,,0,,,77,0
120800,note_on,161,0,1,,,,,,,,,0,,,65,0
120800,note_on,0,0,1,,,,,,,,,0,,,77,62
120960,note_on,0,0,3,,,,,,,,,2,,,46,62
120960,control_change,720,0,3,,,,,,,,,2,64,127,,
120960,control_change,0,0,1,,,,,,,,,0,64,127,,
120960,note_on,160,0,1,,,,,,,,,0,,,77,0
120960,note_on,0,0,1,,,,,,,,,0,,,73,62
121119,note_on,0,0,1,,,,,,,,,0,,,70,62
121119,note_on,0,0,3,,,,,,,,,2,,,49,62
121119,note_on,159,0,1,,,,,,,,,0,,,73,0
121119,note_on,159,0,3,,,,,,,,,2,,,46,0
121280,note_on,161,0,1,,,,,,,,,0,,,70,0
121280,note_on,0,0,1,,,,,,,,,0,,,73,62
121280,note_on,0,0,3,,,,,,,,,2,,,53,62
121280,note_on,161,0,3,,,,,,,,,2,,,49,0
121440,note_on,0,0,3,,,,,,,,,2,,,58,62
121440,note_on,160,0,3,,,,,,,,,2,,,53,0
121440,note_on,160,0,1,,,,,,,,,0,,,73,0
121440,note_on,0,0,1,,,,,,,,,0,,,77,62
121599,note_on,159,0,1,,,,,,,,,0,,,77,0
121599,note_on,0,0,1,,,,,,,,,0,,,65,62
121599,note_on,159,0,3,,,,,,,,,2,,,58,0
121599,note_on,0,0,3,,,,,,,,,2,,,49,62
121760,note_on,0,0,3,,,,,,,,,2,,,53,62
121760,note_on,0,0,1,,,,,,,,,0,,,77,62
121760,note_on,161,0,1,,,,,,,,,0,,,65,0
121760,note_on,161,0,3,,,,,,,,,2,,,49,0
121920,note_on,0,0,3,,,,,,,,,2,,,46,62
121920,note_on,0,0,1,,,,,,,,,0,,,73,62
121920,note_on,160,0,3,,,,,,,,,2,,,53,0
121920,note_on,160,0,1,,,,,,,,,0,,,77,0
122079,note_on,0,0,3,,,,,,,,,2,,,49,62
122079,note_on,0,0,1,,,,,,,,,0,,,70,62
122079,note_on,159,0,3,,,,,,,,,2,,,46,0
122079,note_on,159,0,1,,,,,,,,,0,,,73,0
122240,note_on,161,0,1,,,,,,,,,0,,,70,0
122240,note_on,161,0,3,,,,,,,,,2,,,49,0
122240,note_on,0,0,1,,,,,,,,,0,,,73,62
122240,note_on,0,0,3,,,,,,,,,2,,,53,62
122400,note_on,0,0,1,,,,,,,,,0,,,77,75
122400,note_on,160,0,1,,,,,,,,,0,,,73,0
122400,note_on,0,0,3,,,,,,,,,2,,,58,62
122400,note_on,160,0,3,,,,,,,,,2,,,53,0
122559,note_on,159,0,1,,,,,,,,,0,,,77,0
122559,note_on,0,0,3,,,,,,,,,2,,,49,62
122559,note_on,159,0,3,,,,,,,,,2,,,58,0
122559,note_on,0,0,1,,,,,,,,,0,,,65,75
122720,note_on,0,0,1,,,,,,,,,0,,,77,75
122720,note_on,0,0,3,,,,,,,,,2,,,53,62
122720,note_on,161,0,1,,,,,,,,,0,,,65,0
122720,note_on,161,0,3,,,,,,,,,2,,,49,0
122880,note_on,160,0,1,,,,,,,,,0,,,77,0
122880,note_on,0,0,3,,,,,,,,,2,,,46,62
122880,note_on,160,0,3,,,,,,,,,2,,,53,0
122880,note_on,0,0,1,,,,,,,,,0,,,73,75
123039,note_on,159,0,1,,,,,,,,,0,,,73,0
123039,note_on,159,0,3,,,,,,,,,2,,,46,0
123039,note_on,0,0,3,,,,,,,,,2,,,49,62
123039,note_on,0,0,1,,,,,,,,,0,,,70,75
123200,note_on,0,0,3,,,,,,,,,2,,,53,62
123200,note_on,0,0,1,,,,,,,,,0,,,73,75
123200,note_on,161,0,1,,,,,,,,,0,,,70,0
123200,note_on,161,0,3,,,,,,,,,2,,,49,0
123360,note_on,160,0,1,,,,,,,,,0,,,73,0
123360,note_on,0,0,1,,,,,,,,,0,,,77,75
123360,note_on,0,0,3,,,,,,,,,2,,,58,62
123360,note_on,160,0,3,,,,,,,,,2,,,53,0
123519,note_on,159,0,3,,,,,,,,,2,,,58,0
123519,note_on,0,0,3,,,,,,,,,2,,,49,62
123519,note_on,0,0,1,,,,,,,,,0,,,65,75
123519,note_on,159,0,1,,,,,,,,,0,,,77,0
123680,note_on,161,0,1,,,,,,,,,0,,,65,0
123680,note_on,161,0,3,,,,,,,,,2,,,49,0
123680,note_on,0,0,1,,,,,,,,,0,,,77,88
123680,note_on,0,0,3,,,,,,,,,2,,,53,75
123840,note_on,160,0,3,,,,,,,,,2,,,53,0
123840,note_on,0,0,3,,,,,,,,,2,,,46,75
123840,note_on,160,0,1,,,,,,,,,0,,,77,0
123840,note_on,0,0,1,,,,,,,,,0,,,73,88
123999,note_on,159,0,1,,,,,,,,,0,,,73,0
123999,note_on,0,0,3,,,,,,,,,2,,,49,75
123999,note_on,0,0,1,,,,,,,,,0,,,70,88
123999,note_on,159,0,3,,,,,,,,,2,,,46,0
124080,set_tempo,83703,1,0,,,,,,337079,,,,,,,
124160,note_on,0,0,1,,,,,,,,,0,,,73,75
124160,note_on,0,0,3,,,,,,,,,2,,,53,62
124160,note_on,161,0,3,,,,,,,,,2,,,49,0
124160,note_on,161,0,1,,,,,,,,,0,,,70,0
124320,note_on,160,0,1,,,,,,,,,0,,,73,0
124320,set_tempo,240,1,0,,,,,,348837,,,,,,,
124320,note_on,0,0,3,,,,,,,,,2,,,58,62
124320,note_on,160,0,3,,,,,,,,,2,,,53,0
124320,note_on,0,0,1,,,,,,,,,0,,,77,75
124479,note_on,0,0,3,,,,,,,,,2,,,49,62
124479,note_on,159,0,1,,,,,,,,,0,,,77,0
124479,note_on,0,0,1,,,,,,,,,0,,,65,75
124479,note_on,159,0,3,,,,,,,,,2,,,58,0
124560,set_tempo,240,1,0,,,,,,361446,,,,,,,
124640,note_on,161,0,3,,,,,,,,,2,,,49,0
124640,note_on,0,0,1,,,,,,,,,0,,,77,75
124640,note_on,161,0,1,,,,,,,,,0,,,65,0
124640,note_on,0,0,3,,,,,,,,,2,,,53,62
124800,note_on,0,0,1,,,,,,,,,0,,,73,62
124800,note_on,160,0,3,,,,,,,,,2,,,53,0
124800,note_on,0,0,3,,,,,,,,,2,,,46,49
124800,set_tempo,240,1,0,,,,,,379747,,,,,,,
124800,note_on,160,0,1,,,,,,,,,0,,,77,0
124959,note_on,0,0,1,,,,,,,,,0,,,70,62
124959,note_on,159,0,3,,,,,,,,,2,,,46,0
124959,note_on,0,0,3,,,,,,,,,2,,,49,49
124959,note_on,159,0,1,,,,,,,,,0,,,73,0
125040,set_tempo,240,1,0,,,,,,394737,,,,,,,
125120,note_on,161,0,1,,,,,,,,,0,,,70,0
125120,note_on,0,0,3,,,,,,,,,2,,,53,49
125120,note_on,0,0,1,,,,,,,,,0,,,73,62
125120,note_on,161,0,3,,,,,,,,,2,,,49,0
125280,note_on,160,0,1,,,,,,,,,0,,,73,0
125280,set_tempo,240,1,0,,,,,,410959,,,,,,,
125280,note_on,0,0,1,,,,,,,,,0,,,77,62
125280,note_on,0,0,3,,,,,,,,,2,,,58,49
125280,note_on,160,0,3,,,,,,,,,2,,,53,0
125439,note_on,159,0,1,,,,,,,,,0,,,77,0
125439,note_on,0,0,1,,,,,,,,,0,,,65,62
125439,note_on,0,0,3,,,,,,,,,2,,,49,49
125439,note_on,159,0,3,,,,,,,,,2,,,58,0
125520,set_tempo,240,1,0,,,,,,428571,,,,,,,
125600,note_on,161,0,3,,,,,,,,,2,,,49,0
125600,note_on,161,0,1,,,,,,,,,0,,,65,0
125600,note_on,0,0,1,,,,,,,,,0,,,77,62
125600,note_on,0,0,3,,,,,,,,,2,,,53,49
125760,note_on,160,0,3,,,,,,,,,2,,,53,0
125760,note_on,0,0,1,,,,,,,,,0,,,73,49
125760,note_on,160,0,1,,,,,,,,,0,,,77,0
125760,set_tempo,240,1,0,,,,,,454545,,,,,,,
125760,note_on,0,0,3,,,,,,,,,2,,,46,49
125919,note_on,0,0,3,,,,,,,,,2,,,49,49
125919,note_on,159,0,3,,,,,,,,,2,,,46,0
125919,note_on,0,0,1,,,,,,,,,0,,,70,49
125919,note_on,159,0,1,,,,,,,,,0,,,73,0
126080,note_on,161,0,1,,,,,,,,,0,,,70,0
126080,note_on,161,0,3,,,,,,,,,2,,,49,0
126080,note_on,0,0,3,,,,,,,,,2,,,53,49
126080,note_on,0,0,1,,,,,,,,,0,,,73,49
126240,note_on,0,0,1,,,,,,,,,0,,,77,49
126240,note_on,160,0,3,,,,,,,,,2,,,53,0
126240,note_on,0,0,3,,,,,,,,,2,,,58,49
126240,note_on,160,0,1,,,,,,,,,0,,,73,0
126399,note_on,159,0,1,,,,,,,,,0,,,77,0
126399,note_on,0,0,1,,,,,,,,,0,,,65,49
126399,note_on,0,0,3,,,,,,,,,2,,,49,49
126399,note_on,159,0,3,,,,,,,,,2,,,58,0
126560,note_on,0,0,3,,,,,,,,,2,,,53,49
126560,note_on,161,0,3,,,,,,,,,2,,,49,0
126560,note_on,0,0,1,,,,,,,,,0,,,77,49
126560,note_on,161,0,1,,,,,,,,,0,,,65,0
126720,note_on,0,0,1,,,,,,,,,0,,,73,49
126720,note_on,0,0,3,,,,,,,,,2,,,46,49
126720,time_signature,960,1,0,10,4,24,8,,,,,,,,,
126720,note_on,0,0,1,,,,,,,,,0,,,70,49
126720,note_on,160,0,3,,,,,,,,,2,,,53,0
126720,note_on,160,0,1,,,,,,,,,0,,,77,0
126720,end_of_track,0,1,0,,,,,,,,,,,,,
128640,note_on,1920,0,1,,,,,,,,,0,,,73,0
128640,control_change,0,0,1,,,,,,,,,0,64,0,,
128640,control_change,0,0,3,,,,,,,,,2,64,0,,
128640,note_on,0,0,1,,,,,,,,,0,,,70,0
128640,end_of_track,0,1,3,,,,,,,,,,,,,
128640,note_on,1920,0,3,,,,,,,,,2,,,46,0
129120,control_change,480,0,1,,,,,,,,,0,64,127,,
131040,control_change,1920,0,1,,,,,,,,,0,64,0,,
131040,end_of_track,0,1,1,,,,,,,,,,,,,
