tick,type,time,meta,track,numerator,denominator,clocks_per_click,notated_32nd_notes_per_beat,key,tempo,port,program,channel,control,value,note,velocity
0,control_change,0,0,1,,,,,,,,,0,7,127,,
0,control_change,0,0,3,,,,,,,,,2,10,30,,
0,control_change,0,0,4,,,,,,,,,3,7,127,,
0,control_change,0,0,4,,,,,,,,,3,10,30,,
0,copyright,0,1,0,,,,,,,,,,,,,
0,key_signature,0,1,0,,,,,Ab,,,,,,,,
0,midi_port,0,1,1,,,,,,,0,,,,,,
0,midi_port,0,1,2,,,,,,,0,,,,,,
0,midi_port,0,1,3,,,,,,,0,,,,,,
0,midi_port,0,1,4,,,,,,,0,,,,,,
0,control_change,0,0,3,,,,,,,,,2,7,127,,
0,track_name,0,1,3,,,,,,,,,,,,,
0,program_change,0,0,2,,,,,,,,0,1,,,,
0,program_change,0,0,3,,,,,,,,0,2,,,,
0,program_change,0,0,4,,,,,,,,0,3,,,,
0,set_tempo,0,1,0,,,,,,625000,,,,,,,
0,text,0,1,0,,,,,,,,,,,,,
0,time_signature,0,1,0,2,4,24,8,,,,,,,,,
0,track_name,0,1,0,,,,,,,,,,,,,
0,track_name,0,1,1,,,,,,,,,,,,,
0,track_name,0,1,2,,,,,,,,,,,,,
0,program_change,0,0,1,,,,,,,,0,0,,,,
0,control_change,0,0,2,,,,,,,,,1,10,97,,
0,track_name,0,1,4,,,,,,,,,,,,,
0,control_change,0,0,2,,,,,,,,,1,7,127,,
0,control_change,0,0,1,,,,,,,,,0,10,97,,
1,end_of_track,0,1,5,,,,,,,,,,,,,
1,copyright,1,1,5,,,,,,,,,,,,,
28,set_tempo,28,1,0,,,,,,625000,,,,,,,
240,note_on,240,0,3,,,,,,,,,2,,,68,49
240,note_on,240,0,1,,,,,,,,,0,,,77,62
320,note_on,0,0,1,,,,,,,,,0,,,79,62
320,note_on,80,0,3,,,,,,,,,2,,,68,0
320,note_on,0,0,3,,,,,,,,,2,,,70,49
320,note_on,80,0,1,,,,,,,,,0,,,77,0
399,note_on,0,0,1,,,,,,,,,0,,,77,62
399,note_on,79,0,1,,,,,,,,,0,,,79,0
399,note_on,79,0,3,,,,,,,,,2,,,70,0
399,note_on,0,0,3,,,,,,,,,2,,,68,49
480,note_on,0,0,1,,,,,,,,,0,,,75,62
480,note_on,81,0,3,,,,,,,,,2,,,68,0
480,note_on,0,0,3,,,,,,,,,2,,,67,49
480,note_on,81,0,1,,,,,,,,,0,,,77,0
560,note_on,0,0,1,,,,,,,,,0,,,77,62
560,note_on,80,0,3,,,,,,,,,2,,,67,0
560,note_on,0,0,3,,,,,,,,,2,,,68,49
560,note_on,80,0,1,,,,,,,,,0,,,75,0
639,note_on,79,0,3,,,,,,,,,2,,,68,0
639,note_on,79,0,1,,,,,,,,,0,,,77,0
639,note_on,0,0,1,,,,,,,,,0,,,75,62
639,note_on,0,0,3,,,,,,,,,2,,,67,49
720,note_on,0,0,1,,,,,,,,,0,,,73,62
720,note_on,81,0,3,,,,,,,,,2,,,67,0
720,note_on,81,0,1,,,,,,,,,0,,,75,0
720,note_on,0,0,3,,,,,,,,,2,,,65,49
800,note_on,0,0,3,,,,,,,,,2,,,67,49
800,note_on,80,0,3,,,,,,,,,2,,,65,0
800,note_on,80,0,1,,,,,,,,,0,,,73,0
800,note_on,0,0,1,,,,,,,,,0,,,75,62
879,note_on,79,0,3,,,,,,,,,2,,,67,0
879,note_on,0,0,3,,,,,,,,,2,,,65,49
879,note_on,0,0,1,,,,,,,,,0,,,73,62
879,note_on,79,0,1,,,,,,,,,0,,,75,0
960,note_on,81,0,3,,,,,,,,,2,,,65,0
960,note_on,0,0,3,,,,,,,,,2,,,63,49
960,note_on,81,0,1,,,,,,,,,0,,,73,0
960,note_on,0,0,1,,,,,,,,,0,,,72,62
1040,note_on,0,0,3,,,,,,,,,2,,,65,49
1040,note_on,80,0,3,,,,,,,,,2,,,63,0
1040,note_on,0,0,1,,,,,,,,,0,,,73,62
1040,note_on,80,0,1,,,,,,,,,0,,,72,0
1119,note_on,0,0,1,,,,,,,,,0,,,72,62
1119,note_on,79,0,1,,,,,,,,,0,,,73,0
1119,note_on,0,0,3,,,,,,,,,2,,,63,49
1119,note_on,79,0,3,,,,,,,,,2,,,65,0
1200,note_on,81,0,3,,,,,,,,,2,,,63,0
1200,note_on,81,0,1,,,,,,,,,0,,,72,0
1200,note_on,0,0,1,,,,,,,,,0,,,70,62
1200,note_on,0,0,3,,,,,,,,,2,,,61,49
1280,note_on,0,0,3,,,,,,,,,2,,,63,49
1280,note_on,80,0,1,,,,,,,,,0,,,70,0
1280,note_on,0,0,1,,,,,,,,,0,,,72,62
1280,note_on,80,0,3,,,,,,,,,2,,,61,0
1359,note_on,0,0,3,,,,,,,,,2,,,61,49
1359,note_on,79,0,1,,,,,,,,,0,,,72,0
1359,note_on,0,0,1,,,,,,,,,0,,,70,62
1359,note_on,79,0,3,,,,,,,,,2,,,63,0
1440,note_on,0,0,1,,,,,,,,,0,,,68,49
1440,note_on,81,0,1,,,,,,,,,0,,,70,0
1440,note_on,81,0,3,,,,,,,,,2,,,61,0
1440,note_on,0,0,3,,,,,,,,,2,,,60,49
1520,note_on,0,0,1,,,,,,,,,0,,,70,49
1520,note_on,80,0,1,,,,,,,,,0,,,68,0
1520,note_on,0,0,3,,,,,,,,,2,,,61,49
1520,note_on,80,0,3,,,,,,,,,2,,,60,0
1599,note_on,79,0,1,,,,,,,,,0,,,70,0
1599,note_on,79,0,3,,,,,,,,,2,,,61,0
1599,note_on,0,0,1,,,,,,,,,0,,,68,49
1599,note_on,0,0,3,,,,,,,,,2,,,60,49
1680,note_on,81,0,3,,,,,,,,,2,,,60,0
1680,note_on,81,0,1,,,,,,,,,0,,,68,0
1680,note_on,0,0,3,,,,,,,,,2,,,58,49
1680,note_on,0,0,1,,,,,,,,,0,,,67,49
1760,note_on,0,0,3,,,,,,,,,2,,,60,49
1760,note_on,80,0,1,,,,,,,,,0,,,67,0
1760,note_on,0,0,1,,,,,,,,,0,,,68,49
1760,note_on,80,0,3,,,,,,,,,2,,,58,0
1839,note_on,0,0,3,,,,,,,,,2,,,58,49
1839,note_on,79,0,1,,,,,,,,,0,,,68,0
1839,note_on,0,0,1,,,,,,,,,0,,,67,49
1839,note_on,79,0,3,,,,,,,,,2,,,60,0
1920,note_on,81,0,1,,,,,,,,,0,,,67,0
1920,note_on,0,0,1,,,,,,,,,0,,,65,62
1920,note_on,0,0,3,,,,,,,,,2,,,56,49
1920,note_on,0,0,3,,,,,,,,,2,,,53,49
1920,note_on,81,0,3,,,,,,,,,2,,,58,0
2000,note_on,80,0,3,,,,,,,,,2,,,56,0
2000,note_on,0,0,3,,,,,,,,,2,,,53,0
2000,note_on,0,0,3,,,,,,,,,2,,,58,49
2000,note_on,0,0,1,,,,,,,,,0,,,67,62
2000,note_on,80,0,1,,,,,,,,,0,,,65,0
2079,note_on,0,0,3,,,,,,,,,2,,,56,49
2079,note_on,79,0,1,,,,,,,,,0,,,67,0
2079,note_on,0,0,1,,,,,,,,,0,,,65,62
2079,note_on,79,0,3,,,,,,,,,2,,,58,0
2160,note_on,81,0,1,,,,,,,,,0,,,65,0
2160,note_on,81,0,3,,,,,,,,,2,,,56,0
2160,note_on,0,0,3,,,,,,,,,2,,,60,75
2160,note_on,0,0,1,,,,,,,,,0,,,68,88
2160,note_on,0,0,1,,,,,,,,,0,,,72,88
2240,note_on,0,0,1,,,,,,,,,0,,,68,0
2240,note_on,80,0,3,,,,,,,,,2,,,60,0
2240,note_on,80,0,1,,,,,,,,,0,,,72,0
2240,note_on,0,0,3,,,,,,,,,2,,,58,49
2240,note_on,0,0,1,,,,,,,,,0,,,67,62
2319,note_on,79,0,3,,,,,,,,,2,,,58,0
2319,note_on,0,0,1,,,,,,,,,0,,,65,62
2319,note_on,79,0,1,,,,,,,,,0,,,67,0
2319,note_on,0,0,3,,,,,,,,,2,,,56,49
2400,note_on,0,0,3,,,,,,,,,2,,,48,49
2400,note_on,81,0,3,,,,,,,,,2,,,56,0
2400,note_on,0,0,1,,,,,,,,,0,,,64,62
2400,note_on,0,0,3,,,,,,,,,2,,,55,49
2400,note_on,81,0,1,,,,,,,,,0,,,65,0
2480,note_on,80,0,1,,,,,,,,,0,,,64,0
2480,note_on,0,0,1,,,,,,,,,0,,,65,62
2480,note_on,0,0,3,,,,,,,,,2,,,48,0
2480,note_on,80,0,3,,,,,,,,,2,,,55,0
2480,note_on,0,0,3,,,,,,,,,2,,,56,49
2559,note_on,0,0,1,,,,,,,,,0,,,64,62
2559,note_on,79,0,3,,,,,,,,,2,,,56,0
2559,note_on,79,0,1,,,,,,,,,0,,,65,0
2559,note_on,0,0,3,,,,,,,,,2,,,55,49
2640,note_on,0,0,3,,,,,,,,,2,,,58,75
2640,note_on,0,0,1,,,,,,,,,0,,,67,88
2640,note_on,0,0,1,,,,,,,,,0,,,72,88
2640,note_on,81,0,3,,,,,,,,,2,,,55,0
2640,note_on,81,0,1,,,,,,,,,0,,,64,0
2720,note_on,0,0,3,,,,,,,,,2,,,56,49
2720,note_on,80,0,3,,,,,,,,,2,,,58,0
2720,note_on,0,0,1,,,,,,,,,0,,,65,62
2720,note_on,0,0,1,,,,,,,,,0,,,67,0
2720,note_on,80,0,1,,,,,,,,,0,,,72,0
2799,note_on,79,0,1,,,,,,,,,0,,,65,0
2799,note_on,0,0,3,,,,,,,,,2,,,55,49
2799,note_on,0,0,1,,,,,,,,,0,,,64,62
2799,note_on,79,0,3,,,,,,,,,2,,,56,0
2880,note_on,81,0,3,,,,,,,,,2,,,55,0
2880,note_on,81,0,1,,,,,,,,,0,,,64,0
2880,note_on,0,0,1,,,,,,,,,0,,,65,62
2880,note_on,0,0,3,,,,,,,,,2,,,56,49
2880,note_on,0,0,3,,,,,,,,,2,,,53,49
2960,note_on,80,0,1,,,,,,,,,0,,,65,0
2960,note_on,0,0,1,,,,,,,,,0,,,67,62
2960,note_on,0,0,3,,,,,,,,,2,,,58,49
2960,note_on,80,0,3,,,,,,,,,2,,,56,0
2960,note_on,0,0,3,,,,,,,,,2,,,53,0
3039,note_on,79,0,1,,,,,,,,,0,,,67,0
3039,note_on,0,0,1,,,,,,,,,0,,,65,62
3039,note_on,0,0,3,,,,,,,,,2,,,56,49
3039,note_on,79,0,3,,,,,,,,,2,,,58,0
3120,note_on,81,0,1,,,,,,,,,0,,,65,0
3120,note_on,0,0,3,,,,,,,,,2,,,68,49
3120,note_on,81,0,3,,,,,,,,,2,,,56,0
3120,note_on,0,0,1,,,,,,,,,0,,,77,62
3200,note_on,80,0,1,,,,,,,,,0,,,77,0
3200,note_on,0,0,1,,,,,,,,,0,,,79,62
3200,note_on,80,0,3,,,,,,,,,2,,,68,0
3200,note_on,0,0,3,,,,,,,,,2,,,70,49
3279,note_on,0,0,1,,,,,,,,,0,,,77,62
3279,note_on,0,0,3,,,,,,,,,2,,,68,49
3279,note_on,79,0,3,,,,,,,,,2,,,70,0
3279,note_on,79,0,1,,,,,,,,,0,,,79,0
3360,note_on,0,0,3,,,,,,,,,2,,,67,49
3360,note_on,81,0,1,,,,,,,,,0,,,77,0
3360,note_on,81,0,3,,,,,,,,,2,,,68,0
3360,note_on,0,0,1,,,,,,,,,0,,,75,62
3440,note_on,0,0,1,,,,,,,,,0,,,77,62
3440,note_on,0,0,3,,,,,,,,,2,,,68,49
3440,note_on,80,0,3,,,,,,,,,2,,,67,0
3440,note_on,80,0,1,,,,,,,,,0,,,75,0
3519,note_on,79,0,1,,,,,,,,,0,,,77,0
3519,note_on,0,0,1,,,,,,,,,0,,,75,62
3519,note_on,0,0,3,,,,,,,,,2,,,67,49
3519,note_on,79,0,3,,,,,,,,,2,,,68,0
3600,note_on,81,0,3,,,,,,,,,2,,,67,0
3600,note_on,81,0,1,,,,,,,,,0,,,75,0
3600,note_on,0,0,3,,,,,,,,,2,,,65,49
3600,note_on,0,0,1,,,,,,,,,0,,,73,62
3680,note_on,80,0,1,,,,,,,,,0,,,73,0
3680,note_on,0,0,3,,,,,,,,,2,,,67,49
3680,note_on,0,0,1,,,,,,,,,0,,,75,62
3680,note_on,80,0,3,,,,,,,,,2,,,65,0
3759,note_on,79,0,1,,,,,,,,,0,,,75,0
3759,note_on,79,0,3,,,,,,,,,2,,,67,0
3759,note_on,0,0,3,,,,,,,,,2,,,65,49
3759,note_on,0,0,1,,,,,,,,,0,,,73,62
3840,note_on,81,0,3,,,,,,,,,2,,,65,0
3840,note_on,0,0,1,,,,,,,,,0,,,72,62
3840,note_on,81,0,1,,,,,,,,,0,,,73,0
3840,note_on,0,0,3,,,,,,,,,2,,,63,49
3920,note_on,0,0,3,,,,,,,,,2,,,65,49
3920,note_on,80,0,3,,,,,,,,,2,,,63,0
3920,note_on,80,0,1,,,,,,,,,0,,,72,0
3920,note_on,0,0,1,,,,,,,,,0,,,73,62
3999,note_on,79,0,1,,,,,,,,,0,,,73,0
3999,note_on,79,0,3,,,,,,,,,2,,,65,0
3999,note_on,0,0,3,,,,,,,,,2,,,63,49
3999,note_on,0,0,1,,,,,,,,,0,,,72,62
4080,note_on,0,0,3,,,,,,,,,2,,,61,49
4080,note_on,81,0,1,,,,,,,,,0,,,72,0
4080,note_on,81,0,3,,,,,,,,,2,,,63,0
4080,note_on,0,0,1,,,,,,,,,0,,,70,62
4160,note_on,0,0,1,,,,,,,,,0,,,72,62
4160,note_on,0,0,3,,,,,,,,,2,,,63,49
4160,note_on,80,0,1,,,,,,,,,0,,,70,0
4160,note_on,80,0,3,,,,,,,,,2,,,61,0
4239,note_on,0,0,3,,,,,,,,,2,,,61,49
4239,note_on,0,0,1,,,,,,,,,0,,,70,62
4239,note_on,79,0,1,,,,,,,,,0,,,72,0
4239,note_on,79,0,3,,,,,,,,,2,,,63,0
4320,note_on,0,0,3,,,,,,,,,2,,,60,49
4320,note_on,81,0,3,,,,,,,,,2,,,61,0
4320,note_on,0,0,1,,,,,,,,,0,,,68,49
4320,note_on,81,0,1,,,,,,,,,0,,,70,0
4400,note_on,80,0,1,,,,,,,,,0,,,68,0
4400,note_on,0,0,1,,,,,,,,,0,,,70,49
4400,note_on,0,0,3,,,,,,,,,2,,,61,49
4400,note_on,80,0,3,,,,,,,,,2,,,60,0
4479,note_on,0,0,3,,,,,,,,,2,,,60,49
4479,note_on,79,0,3,,,,,,,,,2,,,61,0
4479,note_on,79,0,1,,,,,,,,,0,,,70,0
4479,note_on,0,0,1,,,,,,,,,0,,,68,49
4560,note_on,81,0,3,,,,,,,,,2,,,60,0
4560,note_on,0,0,3,,,,,,,,,2,,,58,49
4560,note_on,0,0,1,,,,,,,,,0,,,67,49
4560,note_on,81,0,1,,,,,,,,,0,,,68,0
4640,note_on,80,0,3,,,,,,,,,2,,,58,0
4640,note_on,0,0,3,,,,,,,,,2,,,60,49
4640,note_on,80,0,1,,,,,,,,,0,,,67,0
4640,note_on,0,0,1,,,,,,,,,0,,,68,49
4719,note_on,79,0,3,,,,,,,,,2,,,60,0
4719,note_on,79,0,1,,,,,,,,,0,,,68,0
4719,note_on,0,0,3,,,,,,,,,2,,,58,49
4719,note_on,0,0,1,,,,,,,,,0,,,67,49
4800,note_on,0,0,3,,,,,,,,,2,,,56,49
4800,note_on,0,0,1,,,,,,,,,0,,,65,62
4800,note_on,0,0,3,,,,,,,,,2,,,53,49
4800,note_on,81,0,1,,,,,,,,,0,,,67,0
4800,note_on,81,0,3,,,,,,,,,2,,,58,0
4880,note_on,0,0,1,,,,,,,,,0,,,67,62
4880,note_on,80,0,1,,,,,,,,,0,,,65,0
4880,note_on,0,0,3,,,,,,,,,2,,,53,0
4880,note_on,0,0,3,,,,,,,,,2,,,58,49
4880,note_on,80,0,3,,,,,,,,,2,,,56,0
4959,note_on,79,0,3,,,,,,,,,2,,,58,0
4959,note_on,79,0,1,,,,,,,,,0,,,67,0
4959,note_on,0,0,3,,,,,,,,,2,,,56,49
4959,note_on,0,0,1,,,,,,,,,0,,,65,62
5040,note_on,81,0,3,,,,,,,,,2,,,56,0
5040,note_on,81,0,1,,,,,,,,,0,,,65,0
5040,note_on,0,0,1,,,,,,,,,0,,,68,88
5040,note_on,0,0,1,,,,,,,,,0,,,72,88
5040,note_on,0,0,3,,,,,,,,,2,,,60,75
5120,note_on,0,0,1,,,,,,,,,0,,,68,0
5120,note_on,0,0,3,,,,,,,,,2,,,58,49
5120,note_on,0,0,1,,,,,,,,,0,,,67,62
5120,note_on,80,0,1,,,,,,,,,0,,,72,0
5120,note_on,80,0,3,,,,,,,,,2,,,60,0
5199,note_on,79,0,1,,,,,,,,,0,,,67,0
5199,note_on,0,0,3,,,,,,,,,2,,,56,49
5199,note_on,0,0,1,,,,,,,,,0,,,65,62
5199,note_on,79,0,3,,,,,,,,,2,,,58,0
5280,note_on,81,0,1,,,,,,,,,0,,,65,0
5280,note_on,0,0,3,,,,,,,,,2,,,55,49
5280,note_on,81,0,3,,,,,,,,,2,,,56,0
5280,note_on,0,0,3,,,,,,,,,2,,,48,49
5280,note_on,0,0,1,,,,,,,,,0,,,64,62
5360,note_on,0,0,3,,,,,,,,,2,,,56,49
5360,note_on,0,0,3,,,,,,,,,2,,,48,0
5360,note_on,80,0,3,,,,,,,,,2,,,55,0
5360,note_on,80,0,1,,,,,,,,,0,,,64,0
5360,note_on,0,0,1,,,,,,,,,0,,,65,62
5439,note_on,0,0,3,,,,,,,,,2,,,55,49
5439,note_on,0,0,1,,,,,,,,,0,,,64,62
5439,note_on,79,0,1,,,,,,,,,0,,,65,0
5439,note_on,79,0,3,,,,,,,,,2,,,56,0
5520,note_on,81,0,3,,,,,,,,,2,,,55,0
5520,note_on,81,0,1,,,,,,,,,0,,,64,0
5520,note_on,0,0,3,,,,,,,,,2,,,58,75
5520,note_on,0,0,1,,,,,,,,,0,,,72,88
5520,note_on,0,0,1,,,,,,,,,0,,,67,88
5600,note_on,0,0,1,,,,,,,,,0,,,65,62
5600,note_on,80,0,1,,,,,,,,,0,,,72,0
5600,note_on,0,0,1,,,,,,,,,0,,,67,0
5600,note_on,0,0,3,,,,,,,,,2,,,56,49
5600,note_on,80,0,3,,,,,,,,,2,,,58,0
5679,note_on,0,0,3,,,,,,,,,2,,,55,49
5679,note_on,79,0,1,,,,,,,,,0,,,65,0
5679,note_on,79,0,3,,,,,,,,,2,,,56,0
5679,note_on,0,0,1,,,,,,,,,0,,,64,62
5760,note_on,81,0,1,,,,,,,,,0,,,64,0
5760,note_on,0,0,3,,,,,,,,,2,,,56,49
5760,note_on,0,0,3,,,,,,,,,2,,,53,49
5760,note_on,0,0,1,,,,,,,,,0,,,65,62
5760,note_on,81,0,3,,,,,,,,,2,,,55,0
5840,note_on,0,0,1,,,,,,,,,0,,,64,62
5840,note_on,80,0,3,,,,,,,,,2,,,56,0
5840,note_on,0,0,3,,,,,,,,,2,,,55,49
5840,note_on,0,0,3,,,,,,,,,2,,,53,0
5840,note_on,80,0,1,,,,,,,,,0,,,65,0
5919,note_on,0,0,3,,,,,,,,,2,,,56,49
5919,note_on,0,0,1,,,,,,,,,0,,,65,62
5919,note_on,79,0,3,,,,,,,,,2,,,55,0
5919,note_on,79,0,1,,,,,,,,,0,,,64,0
6000,note_on,81,0,1,,,,,,,,,0,,,65,0
6000,note_on,81,0,3,,,,,,,,,2,,,56,0
6000,note_on,0,0,1,,,,,,,,,0,,,68,62
6000,note_on,0,0,3,,,,,,,,,2,,,60,49
6080,note_on,0,0,1,,,,,,,,,0,,,67,62
6080,note_on,80,0,1,,,,,,,,,0,,,68,0
6080,note_on,0,0,3,,,,,,,,,2,,,58,49
6080,note_on,80,0,3,,,,,,,,,2,,,60,0
6159,note_on,0,0,1,,,,,,,,,0,,,64,62
6159,note_on,0,0,3,,,,,,,,,2,,,55,49
6159,note_on,79,0,1,,,,,,,,,0,,,67,0
6159,note_on,79,0,3,,,,,,,,,2,,,58,0
6240,note_on,81,0,3,,,,,,,,,2,,,55,0
6240,note_on,0,0,1,,,,,,,,,0,,,65,62
6240,note_on,0,0,3,,,,,,,,,2,,,56,49
6240,note_on,81,0,1,,,,,,,,,0,,,64,0
6480,note_on,0,0,3,,,,,,,,,2,,,56,49
6480,note_on,0,0,1,,,,,,,,,0,,,65,62
6480,note_on,240,0,3,,,,,,,,,2,,,56,0
6480,note_on,240,0,1,,,,,,,,,0,,,65,0
6560,note_on,0,0,1,,,,,,,,,0,,,67,62
6560,note_on,80,0,1,,,,,,,,,0,,,65,0
6560,note_on,80,0,3,,,,,,,,,2,,,56,0
6560,note_on,0,0,3,,,,,,,,,2,,,58,49
6639,note_on,0,0,3,,,,,,,,,2,,,56,49
6639,note_on,79,0,1,,,,,,,,,0,,,67,0
6639,note_on,0,0,1,,,,,,,,,0,,,65,62
6639,note_on,79,0,3,,,,,,,,,2,,,58,0
6720,note_on,81,0,1,,,,,,,,,0,,,65,0
6720,note_on,81,0,3,,,,,,,,,2,,,56,0
6720,note_on,0,0,1,,,,,,,,,0,,,64,62
6720,note_on,0,0,3,,,,,,,,,2,,,55,49
6800,note_on,0,0,1,,,,,,,,,0,,,65,62
6800,note_on,80,0,1,,,,,,,,,0,,,64,0
6800,note_on,80,0,3,,,,,,,,,2,,,55,0
6800,note_on,0,0,3,,,,,,,,,2,,,56,49
6879,note_on,79,0,1,,,,,,,,,0,,,65,0
6879,note_on,0,0,1,,,,,,,,,0,,,64,62
6879,note_on,79,0,3,,,,,,,,,2,,,56,0
6879,note_on,0,0,3,,,,,,,,,2,,,55,49
6960,note_on,81,0,1,,,,,,,,,0,,,64,0
6960,note_on,0,0,3,,,,,,,,,2,,,48,75
6960,note_on,0,0,1,,,,,,,,,0,,,72,88
6960,note_on,81,0,3,,,,,,,,,2,,,55,0
7040,note_on,80,0,1,,,,,,,,,0,,,72,0
7040,note_on,80,0,3,,,,,,,,,2,,,48,0
7040,note_on,0,0,1,,,,,,,,,0,,,73,62
7040,note_on,0,0,3,,,,,,,,,2,,,49,49
7119,note_on,0,0,3,,,,,,,,,2,,,48,49
7119,note_on,0,0,1,,,,,,,,,0,,,72,62
7119,note_on,79,0,3,,,,,,,,,2,,,49,0
7119,note_on,79,0,1,,,,,,,,,0,,,73,0
7200,note_on,81,0,1,,,,,,,,,0,,,72,0
7200,note_on,0,0,1,,,,,,,,,0,,,65,62
7200,note_on,81,0,3,,,,,,,,,2,,,48,0
7200,note_on,0,0,3,,,,,,,,,2,,,56,49
7280,note_on,0,0,1,,,,,,,,,0,,,67,62
7280,note_on,80,0,1,,,,,,,,,0,,,65,0
7280,note_on,80,0,3,,,,,,,,,2,,,56,0
7280,note_on,0,0,3,,,,,,,,,2,,,58,49
7359,note_on,79,0,3,,,,,,,,,2,,,58,0
7359,note_on,79,0,1,,,,,,,,,0,,,67,0
7359,note_on,0,0,1,,,,,,,,,0,,,65,62
7359,note_on,0,0,3,,,,,,,,,2,,,56,49
7440,note_on,81,0,1,,,,,,,,,0,,,65,0
7440,note_on,0,0,3,,,,,,,,,2,,,48,75
7440,note_on,81,0,3,,,,,,,,,2,,,56,0
7440,note_on,0,0,1,,,,,,,,,0,,,72,88
7520,note_on,0,0,3,,,,,,,,,2,,,49,49
7520,note_on,80,0,1,,,,,,,,,0,,,72,0
7520,note_on,80,0,3,,,,,,,,,2,,,48,0
7520,note_on,0,0,1,,,,,,,,,0,,,73,62
7599,note_on,0,0,3,,,,,,,,,2,,,48,49
7599,note_on,79,0,1,,,,,,,,,0,,,73,0
7599,note_on,79,0,3,,,,,,,,,2,,,49,0
7599,note_on,0,0,1,,,,,,,,,0,,,72,62
7680,note_on,81,0,3,,,,,,,,,2,,,48,0
7680,note_on,0,0,3,,,,,,,,,2,,,58,49
7680,note_on,0,0,1,,,,,,,,,0,,,67,62
7680,note_on,81,0,1,,,,,,,,,0,,,72,0
7760,note_on,80,0,3,,,,,,,,,2,,,58,0
7760,note_on,80,0,1,,,,,,,,,0,,,67,0
7760,note_on,0,0,1,,,,,,,,,0,,,68,62
7760,note_on,0,0,3,,,,,,,,,2,,,60,49
7839,note_on,79,0,1,,,,,,,,,0,,,68,0
7839,note_on,79,0,3,,,,,,,,,2,,,60,0
7839,note_on,0,0,3,,,,,,,,,2,,,58,49
7839,note_on,0,0,1,,,,,,,,,0,,,67,62
7920,note_on,81,0,3,,,,,,,,,2,,,58,0
7920,note_on,0,0,3,,,,,,,,,2,,,48,75
7920,note_on,0,0,1,,,,,,,,,0,,,72,88
7920,note_on,81,0,1,,,,,,,,,0,,,67,0
8000,note_on,0,0,3,,,,,,,,,2,,,49,49
8000,note_on,0,0,1,,,,,,,,,0,,,73,62
8000,note_on,80,0,1,,,,,,,,,0,,,72,0
8000,note_on,80,0,3,,,,,,,,,2,,,48,0
8079,note_on,0,0,3,,,,,,,,,2,,,48,49
8079,note_on,0,0,1,,,,,,,,,0,,,72,62
8079,note_on,79,0,3,,,,,,,,,2,,,49,0
8079,note_on,79,0,1,,,,,,,,,0,,,73,0
8160,note_on,81,0,1,,,,,,,,,0,,,72,0
8160,note_on,0,0,1,,,,,,,,,0,,,67,62
8160,note_on,81,0,3,,,,,,,,,2,,,48,0
8160,note_on,0,0,3,,,,,,,,,2,,,58,49
8240,note_on,80,0,1,,,,,,,,,0,,,67,0
8240,note_on,0,0,1,,,,,,,,,0,,,68,62
8240,note_on,0,0,3,,,,,,,,,2,,,60,49
8240,note_on,80,0,3,,,,,,,,,2,,,58,0
8319,note_on,79,0,3,,,,,,,,,2,,,60,0
8319,note_on,0,0,1,,,,,,,,,0,,,67,62
8319,note_on,79,0,1,,,,,,,,,0,,,68,0
8319,note_on,0,0,3,,,,,,,,,2,,,58,49
8400,note_on,81,0,3,,,,,,,,,2,,,58,0
8400,note_on,0,0,3,,,,,,,,,2,,,48,75
8400,note_on,0,0,1,,,,,,,,,0,,,72,88
8400,note_on,81,0,1,,,,,,,,,0,,,67,0
8480,note_on,0,0,1,,,,,,,,,0,,,73,62
8480,note_on,80,0,3,,,,,,,,,2,,,48,0
8480,note_on,80,0,1,,,,,,,,,0,,,72,0
8480,note_on,0,0,3,,,,,,,,,2,,,49,49
8559,note_on,0,0,1,,,,,,,,,0,,,72,62
8559,note_on,0,0,3,,,,,,,,,2,,,48,49
8559,note_on,79,0,1,,,,,,,,,0,,,73,0
8559,note_on,79,0,3,,,,,,,,,2,,,49,0
8640,note_on,81,0,1,,,,,,,,,0,,,72,0
8640,note_on,0,0,1,,,,,,,,,0,,,65,62
8640,note_on,0,0,3,,,,,,,,,2,,,56,49
8640,note_on,81,0,3,,,,,,,,,2,,,48,0
8720,note_on,80,0,1,,,,,,,,,0,,,65,0
8720,note_on,80,0,3,,,,,,,,,2,,,56,0
8720,note_on,0,0,3,,,,,,,,,2,,,58,49
8720,note_on,0,0,1,,,,,,,,,0,,,67,62
8799,note_on,0,0,1,,,,,,,,,0,,,65,62
8799,note_on,79,0,3,,,,,,,,,2,,,58,0
8799,note_on,79,0,1,,,,,,,,,0,,,67,0
8799,note_on,0,0,3,,,,,,,,,2,,,56,49
8880,note_on,0,0,1,,,,,,,,,0,,,72,62
8880,note_on,81,0,3,,,,,,,,,2,,,56,0
8880,note_on,0,0,3,,,,,,,,,2,,,48,49
8880,note_on,81,0,1,,,,,,,,,0,,,65,0
8960,note_on,0,0,1,,,,,,,,,0,,,73,62
8960,note_on,80,0,3,,,,,,,,,2,,,48,0
8960,note_on,80,0,1,,,,,,,,,0,,,72,0
8960,note_on,0,0,3,,,,,,,,,2,,,49,49
9039,note_on,0,0,3,,,,,,,,,2,,,48,49
9039,note_on,79,0,1,,,,,,,,,0,,,73,0
9039,note_on,0,0,1,,,,,,,,,0,,,72,62
9039,note_on,79,0,3,,,,,,,,,2,,,49,0
9120,note_on,0,0,3,,,,,,,,,2,,,58,49
9120,note_on,81,0,1,,,,,,,,,0,,,72,0
9120,note_on,81,0,3,,,,,,,,,2,,,48,0
9120,note_on,0,0,1,,,,,,,,,0,,,67,62
9200,note_on,80,0,3,,,,,,,,,2,,,58,0
9200,note_on,0,0,1,,,,,,,,,0,,,68,62
9200,note_on,80,0,1,,,,,,,,,0,,,67,0
9200,note_on,0,0,3,,,,,,,,,2,,,60,49
9279,note_on,0,0,1,,,,,,,,,0,,,67,62
9279,note_on,0,0,3,,,,,,,,,2,,,58,49
9279,note_on,79,0,1,,,,,,,,,0,,,68,0
9279,note_on,79,0,3,,,,,,,,,2,,,60,0
9360,note_on,81,0,3,,,,,,,,,2,,,58,0
9360,note_on,0,0,3,,,,,,,,,2,,,48,49
9360,note_on,0,0,1,,,,,,,,,0,,,72,62
9360,note_on,81,0,1,,,,,,,,,0,,,67,0
9440,note_on,80,0,3,,,,,,,,,2,,,48,0
9440,note_on,0,0,3,,,,,,,,,2,,,49,49
9440,note_on,0,0,1,,,,,,,,,0,,,73,62
9440,note_on,80,0,1,,,,,,,,,0,,,72,0
9519,note_on,79,0,1,,,,,,,,,0,,,73,0
9519,note_on,0,0,3,,,,,,,,,2,,,48,49
9519,note_on,79,0,3,,,,,,,,,2,,,49,0
9519,note_on,0,0,1,,,,,,,,,0,,,72,62
9600,note_on,81,0,1,,,,,,,,,0,,,72,0
9600,note_on,0,0,1,,,,,,,,,0,,,68,62
9600,note_on,81,0,3,,,,,,,,,2,,,48,0
9600,note_on,0,0,3,,,,,,,,,2,,,60,49
9680,note_on,0,0,3,,,,,,,,,2,,,61,49
9680,note_on,80,0,1,,,,,,,,,0,,,68,0
9680,note_on,0,0,1,,,,,,,,,0,,,70,62
9680,note_on,80,0,3,,,,,,,,,2,,,60,0
9759,note_on,79,0,1,,,,,,,,,0,,,70,0
9759,note_on,79,0,3,,,,,,,,,2,,,61,0
9759,note_on,0,0,1,,,,,,,,,0,,,68,62
9759,note_on,0,0,3,,,,,,,,,2,,,60,49
9840,note_on,0,0,3,,,,,,,,,2,,,48,49
9840,note_on,81,0,3,,,,,,,,,2,,,60,0
9840,note_on,81,0,1,,,,,,,,,0,,,68,0
9840,note_on,0,0,1,,,,,,,,,0,,,72,62
9920,note_on,80,0,3,,,,,,,,,2,,,48,0
9920,note_on,0,0,1,,,,,,,,,0,,,73,62
9920,note_on,0,0,3,,,,,,,,,2,,,49,49
9920,note_on,80,0,1,,,,,,,,,0,,,72,0
9999,note_on,79,0,3,,,,,,,,,2,,,49,0
9999,note_on,0,0,3,,,,,,,,,2,,,48,49
9999,note_on,79,0,1,,,,,,,,,0,,,73,0
9999,note_on,0,0,1,,,,,,,,,0,,,72,62
10080,note_on,81,0,3,,,,,,,,,2,,,48,0
10080,note_on,0,0,1,,,,,,,,,0,,,68,62
10080,note_on,81,0,1,,,,,,,,,0,,,72,0
10080,note_on,0,0,3,,,,,,,,,2,,,60,49
10160,note_on,80,0,1,,,,,,,,,0,,,68,0
10160,note_on,0,0,3,,,,,,,,,2,,,61,49
10160,note_on,80,0,3,,,,,,,,,2,,,60,0
10160,note_on,0,0,1,,,,,,,,,0,,,70,62
10239,note_on,79,0,3,,,,,,,,,2,,,61,0
10239,note_on,0,0,1,,,,,,,,,0,,,68,62
10239,note_on,79,0,1,,,,,,,,,0,,,70,0
10239,note_on,0,0,3,,,,,,,,,2,,,60,49
10320,note_on,81,0,1,,,,,,,,,0,,,68,0
10320,note_on,0,0,1,,,,,,,,,0,,,72,62
10320,note_on,81,0,3,,,,,,,,,2,,,60,0
10320,note_on,0,0,3,,,,,,,,,2,,,48,49
10400,note_on,80,0,3,,,,,,,,,2,,,48,0
10400,note_on,80,0,1,,,,,,,,,0,,,72,0
10400,note_on,0,0,3,,,,,,,,,2,,,49,49
10400,note_on,0,0,1,,,,,,,,,0,,,73,62
10479,note_on,0,0,1,,,,,,,,,0,,,72,62
10479,note_on,0,0,3,,,,,,,,,2,,,48,49
10479,note_on,79,0,1,,,,,,,,,0,,,73,0
10479,note_on,79,0,3,,,,,,,,,2,,,49,0
10560,control_change,0,0,1,,,,,,,,,0,64,127,,
10560,note_on,0,0,1,,,,,,,,,0,,,71,62
10560,note_on,0,0,3,,,,,,,,,2,,,53,49
10560,note_on,81,0,3,,,,,,,,,2,,,48,0
10560,note_on,81,0,1,,,,,,,,,0,,,72,0
10560,control_change,0,0,3,,,,,,,,,2,64,127,,
10640,note_on,0,0,1,,,,,,,,,0,,,74,62
10640,note_on,80,0,1,,,,,,,,,0,,,71,0
10640,note_on,80,0,3,,,,,,,,,2,,,53,0
10640,note_on,0,0,3,,,,,,,,,2,,,56,49
10719,note_on,79,0,3,,,,,,,,,2,,,56,0
10719,note_on,0,0,1,,,,,,,,,0,,,77,62
10719,note_on,79,0,1,,,,,,,,,0,,,74,0
10719,note_on,0,0,3,,,,,,,,,2,,,59,49
10800,note_on,81,0,3,,,,,,,,,2,,,59,0
10800,note_on,0,0,3,,,,,,,,,2,,,48,49
10800,note_on,81,0,1,,,,,,,,,0,,,77,0
10800,note_on,0,0,1,,,,,,,,,0,,,80,62
10880,note_on,0,0,3,,,,,,,,,2,,,56,49
10880,note_on,80,0,3,,,,,,,,,2,,,48,0
10880,note_on,0,0,1,,,,,,,,,0,,,83,62
10880,note_on,80,0,1,,,,,,,,,0,,,80,0
10959,note_on,0,0,3,,,,,,,,,2,,,59,49
10959,note_on,0,0,1,,,,,,,,,0,,,86,62
10959,note_on,79,0,1,,,,,,,,,0,,,83,0
10959,note_on,79,0,3,,,,,,,,,2,,,56,0
11040,note_on,0,0,1,,,,,,,,,0,,,89,75
11040,note_on,81,0,3,,,,,,,,,2,,,59,0
11040,note_on,81,0,1,,,,,,,,,0,,,86,0
11040,note_on,0,0,3,,,,,,,,,2,,,53,62
11120,note_on,0,0,3,,,,,,,,,2,,,56,62
11120,note_on,0,0,1,,,,,,,,,0,,,92,75
11120,note_on,80,0,3,,,,,,,,,2,,,53,0
11120,note_on,80,0,1,,,,,,,,,0,,,89,0
11199,note_on,0,0,1,,,,,,,,,0,,,95,75
11199,note_on,79,0,1,,,,,,,,,0,,,92,0
11199,note_on,79,0,3,,,,,,,,,2,,,56,0
11199,note_on,0,0,3,,,,,,,,,2,,,59,62
11280,note_on,0,0,1,,,,,,,,,0,,,98,75
11280,note_on,81,0,1,,,,,,,,,0,,,95,0
11280,note_on,81,0,3,,,,,,,,,2,,,59,0
11280,note_on,0,0,3,,,,,,,,,2,,,48,62
11360,note_on,0,0,3,,,,,,,,,2,,,56,62
11360,note_on,80,0,3,,,,,,,,,2,,,48,0
11360,note_on,80,0,1,,,,,,,,,0,,,98,0
11360,note_on,0,0,1,,,,,,,,,0,,,101,75
11439,note_on,0,0,3,,,,,,,,,2,,,59,62
11439,note_on,79,0,3,,,,,,,,,2,,,56,0
11439,note_on,0,0,1,,,,,,,,,0,,,98,75
11439,note_on,79,0,1,,,,,,,,,0,,,101,0
11520,note_on,0,0,3,,,,,,,,,2,,,53,75
11520,note_on,81,0,1,,,,,,,,,0,,,98,0
11520,note_on,81,0,3,,,,,,,,,2,,,59,0
11520,note_on,0,0,1,,,,,,,,,0,,,95,88
11600,note_on,80,0,3,,,,,,,,,2,,,53,0
11600,note_on,0,0,1,,,,,,,,,0,,,92,88
11600,note_on,0,0,3,,,,,,,,,2,,,56,75
11600,note_on,80,0,1,,,,,,,,,0,,,95,0
11679,note_on,0,0,1,,,,,,,,,0,,,89,88
11679,note_on,0,0,3,,,,,,,,,2,,,59,75
11679,note_on,79,0,3,,,,,,,,,2,,,56,0
11679,note_on,79,0,1,,,,,,,,,0,,,92,0
11760,note_on,0,0,1,,,,,,,,,0,,,86,88
11760,note_on,81,0,3,,,,,,,,,2,,,59,0
11760,note_on,81,0,1,,,,,,,,,0,,,89,0
11760,note_on,0,0,3,,,,,,,,,2,,,48,75
11840,note_on,80,0,1,,,,,,,,,0,,,86,0
11840,note_on,80,0,3,,,,,,,,,2,,,48,0
11840,note_on,0,0,3,,,,,,,,,2,,,56,75
11840,note_on,0,0,1,,,,,,,,,0,,,83,88
11919,note_on,0,0,1,,,,,,,,,0,,,80,88
11919,note_on,79,0,3,,,,,,,,,2,,,56,0
11919,note_on,79,0,1,,,,,,,,,0,,,83,0
11919,note_on,0,0,3,,,,,,,,,2,,,59,75
11919,control_change,0,0,3,,,,,,,,,2,64,0,,
11919,control_change,0,0,1,,,,,,,,,0,64,0,,
12000,note_on,81,0,1,,,,,,,,,0,,,80,0
12000,note_on,81,0,3,,,,,,,,,2,,,59,0
12000,note_on,0,0,1,,,,,,,,,0,,,77,88
12000,note_on,0,0,3,,,,,,,,,2,,,53,75
12080,note_on,80,0,3,,,,,,,,,2,,,53,0
12080,note_on,0,0,1,,,,,,,,,0,,,74,88
12080,note_on,0,0,3,,,,,,,,,2,,,56,75
12080,note_on,80,0,1,,,,,,,,,0,,,77,0
12159,note_on,79,0,3,,,,,,,,,2,,,56,0
12159,note_on,0,0,1,,,,,,,,,0,,,71,88
12159,note_on,0,0,3,,,,,,,,,2,,,59,75
12159,note_on,79,0,1,,,,,,,,,0,,,74,0
12240,note_on,81,0,3,,,,,,,,,2,,,59,0
12240,note_on,0,0,3,,,,,,,,,2,,,59,75
12240,note_on,0,0,3,,,,,,,,,2,,,53,75
12240,note_on,0,0,3,,,,,,,,,2,,,48,75
12240,note_on,81,0,1,,,,,,,,,0,,,71,0
12240,note_on,0,0,1,,,,,,,,,0,,,74,88
12240,note_on,0,0,1,,,,,,,,,0,,,80,88
12320,note_on,0,0,1,,,,,,,,,0,,,74,0
12320,note_on,0,0,1,,,,,,,,,0,,,79,88
12320,note_on,80,0,1,,,,,,,,,0,,,80,0
12320,note_on,0,0,3,,,,,,,,,2,,,53,0
12320,note_on,0,0,3,,,,,,,,,2,,,55,75
12320,note_on,80,0,3,,,,,,,,,2,,,59,0
12320,note_on,0,0,3,,,,,,,,,2,,,48,0
12399,note_on,0,0,3,,,,,,,,,2,,,56,75
12399,note_on,79,0,1,,,,,,,,,0,,,79,0
12399,note_on,0,0,1,,,,,,,,,0,,,77,88
12399,note_on,79,0,3,,,,,,,,,2,,,55,0
12480,note_on,0,0,3,,,,,,,,,2,,,55,75
12480,note_on,0,0,3,,,,,,,,,2,,,60,75
12480,note_on,0,0,1,,,,,,,,,0,,,76,88
12480,note_on,81,0,3,,,,,,,,,2,,,56,0
12480,note_on,81,0,1,,,,,,,,,0,,,77,0
12480,note_on,0,0,3,,,,,,,,,2,,,48,75
12560,note_on,80,0,1,,,,,,,,,0,,,76,0
12560,note_on,0,0,1,,,,,,,,,0,,,72,88
12639,note_on,0,0,1,,,,,,,,,0,,,84,88
12639,note_on,79,0,1,,,,,,,,,0,,,72,0
12720,note_on,0,0,1,,,,,,,,,0,,,74,114
12720,note_on,0,0,3,,,,,,,,,2,,,71,101
12720,note_on,0,0,3,,,,,,,,,2,,,55,0
12720,note_on,0,0,3,,,,,,,,,2,,,48,0
12720,note_on,0,0,4,,,,,,,,,3,,,65,90
12720,note_on,240,0,3,,,,,,,,,2,,,60,0
12720,note_on,12720,0,4,,,,,,,,,3,,,60,90
12720,note_on,0,0,1,,,,,,,,,0,,,80,114
12720,note_on,81,0,1,,,,,,,,,0,,,84,0
12800,note_on,0,0,4,,,,,,,,,3,,,60,0
12800,note_on,80,0,4,,,,,,,,,3,,,65,0
12800,note_on,0,0,4,,,,,,,,,3,,,67,64
12800,note_on,0,0,1,,,,,,,,,0,,,74,0
12800,note_on,0,0,1,,,,,,,,,0,,,79,88
12800,note_on,80,0,1,,,,,,,,,0,,,80,0
12879,note_on,0,0,4,,,,,,,,,3,,,68,64
12879,note_on,0,0,1,,,,,,,,,0,,,77,88
12879,note_on,79,0,4,,,,,,,,,3,,,67,0
12879,note_on,79,0,1,,,,,,,,,0,,,79,0
12960,note_on,81,0,1,,,,,,,,,0,,,77,0
12960,note_on,0,0,3,,,,,,,,,2,,,67,75
12960,note_on,0,0,1,,,,,,,,,0,,,76,88
12960,note_on,0,0,3,,,,,,,,,2,,,60,75
12960,note_on,81,0,4,,,,,,,,,3,,,68,0
12960,note_on,240,0,3,,,,,,,,,2,,,71,0
13040,note_on,80,0,1,,,,,,,,,0,,,76,0
13040,note_on,0,0,1,,,,,,,,,0,,,72,88
13119,note_on,79,0,1,,,,,,,,,0,,,72,0
13119,note_on,0,0,1,,,,,,,,,0,,,84,88
13200,note_on,240,0,4,,,,,,,,,3,,,60,90
13200,note_on,0,0,4,,,,,,,,,3,,,65,90
13200,note_on,0,0,1,,,,,,,,,0,,,74,114
13200,note_on,0,0,3,,,,,,,,,2,,,71,101
13200,note_on,81,0,1,,,,,,,,,0,,,84,0
13200,note_on,240,0,3,,,,,,,,,2,,,67,0
13200,note_on,0,0,3,,,,,,,,,2,,,60,0
13200,note_on,0,0,1,,,,,,,,,0,,,80,114
13280,note_on,0,0,4,,,,,,,,,3,,,67,64
13280,note_on,80,0,4,,,,,,,,,3,,,65,0
13280,note_on,0,0,1,,,,,,,,,0,,,79,88
13280,note_on,0,0,1,,,,,,,,,0,,,74,0
13280,note_on,0,0,4,,,,,,,,,3,,,60,0
13280,note_on,80,0,1,,,,,,,,,0,,,80,0
13359,note_on,0,0,1,,,,,,,,,0,,,77,88
13359,note_on,79,0,1,,,,,,,,,0,,,79,0
13359,note_on,0,0,4,,,,,,,,,3,,,68,64
13359,note_on,79,0,4,,,,,,,,,3,,,67,0
13440,note_on,81,0,4,,,,,,,,,3,,,68,0
13440,note_on,0,0,1,,,,,,,,,0,,,76,88
13440,note_on,0,0,3,,,,,,,,,2,,,67,75
13440,note_on,0,0,3,,,,,,,,,2,,,60,75
13440,note_on,81,0,1,,,,,,,,,0,,,77,0
13440,note_on,240,0,3,,,,,,,,,2,,,71,0
13520,note_on,0,0,1,,,,,,,,,0,,,72,75
13520,note_on,80,0,1,,,,,,,,,0,,,76,0
13599,note_on,0,0,1,,,,,,,,,0,,,84,75
13599,note_on,79,0,1,,,,,,,,,0,,,72,0
13680,note_on,0,0,3,,,,,,,,,2,,,60,0
13680,note_on,0,0,1,,,,,,,,,0,,,88,75
13680,note_on,240,0,3,,,,,,,,,2,,,67,0
13680,note_on,81,0,1,,,,,,,,,0,,,84,0
13760,note_on,0,0,1,,,,,,,,,0,,,84,75
13760,note_on,80,0,1,,,,,,,,,0,,,88,0
13839,note_on,79,0,1,,,,,,,,,0,,,84,0
13839,note_on,0,0,1,,,,,,,,,0,,,96,75
13920,note_on,0,0,1,,,,,,,,,0,,,76,75
13920,note_on,81,0,1,,,,,,,,,0,,,96,0
14000,note_on,0,0,1,,,,,,,,,0,,,72,75
14000,note_on,80,0,1,,,,,,,,,0,,,76,0
14079,note_on,79,0,1,,,,,,,,,0,,,72,0
14079,note_on,0,0,1,,,,,,,,,0,,,84,75
14160,note_on,0,0,1,,,,,,,,,0,,,88,75
14160,note_on,81,0,1,,,,,,,,,0,,,84,0
14240,note_on,0,0,1,,,,,,,,,0,,,84,75
14240,note_on,80,0,1,,,,,,,,,0,,,88,0
14319,note_on,0,0,1,,,,,,,,,0,,,96,75
14319,note_on,79,0,1,,,,,,,,,0,,,84,0
14400,note_on,81,0,1,,,,,,,,,0,,,96,0
14400,note_on,0,0,1,,,,,,,,,0,,,76,75
14480,note_on,0,0,1,,,,,,,,,0,,,72,75
14480,note_on,80,0,1,,,,,,,,,0,,,76,0
14559,note_on,0,0,1,,,,,,,,,0,,,84,75
14559,note_on,79,0,1,,,,,,,,,0,,,72,0
14640,note_on,81,0,1,,,,,,,,,0,,,84,0
14640,note_on,0,0,1,,,,,,,,,0,,,88,75
14720,note_on,0,0,1,,,,,,,,,0,,,84,75
14720,note_on,80,0,1,,,,,,,,,0,,,88,0
14799,note_on,79,0,1,,,,,,,,,0,,,84,0
14799,note_on,0,0,1,,,,,,,,,0,,,96,75
14880,note_on,0,0,1,,,,,,,,,0,,,97,75
14880,note_on,81,0,1,,,,,,,,,0,,,96,0
14960,note_on,80,0,1,,,,,,,,,0,,,97,0
14960,note_on,0,0,1,,,,,,,,,0,,,96,75
15039,note_on,79,0,1,,,,,,,,,0,,,96,0
15039,note_on,0,0,1,,,,,,,,,0,,,94,75
15120,note_on,81,0,1,,,,,,,,,0,,,94,0
15120,note_on,0,0,1,,,,,,,,,0,,,92,75
15200,note_on,80,0,1,,,,,,,,,0,,,92,0
15200,note_on,0,0,1,,,,,,,,,0,,,91,75
15279,note_on,79,0,1,,,,,,,,,0,,,91,0
15279,note_on,0,0,1,,,,,,,,,0,,,89,75
15360,note_on,0,0,1,,,,,,,,,0,,,88,75
15360,note_on,81,0,1,,,,,,,,,0,,,89,0
15440,note_on,80,0,1,,,,,,,,,0,,,88,0
15440,note_on,0,0,1,,,,,,,,,0,,,85,75
15519,note_on,79,0,1,,,,,,,,,0,,,85,0
15519,note_on,0,0,1,,,,,,,,,0,,,84,75
15600,note_on,81,0,1,,,,,,,,,0,,,84,0
15600,note_on,0,0,1,,,,,,,,,0,,,82,75
15680,note_on,80,0,1,,,,,,,,,0,,,82,0
15680,note_on,0,0,1,,,,,,,,,0,,,80,75
15759,note_on,79,0,1,,,,,,,,,0,,,80,0
15759,note_on,0,0,1,,,,,,,,,0,,,79,75
15840,note_on,0,0,1,,,,,,,,,0,,,77,62
15840,note_on,2160,0,3,,,,,,,,,2,,,68,49
15840,note_on,81,0,1,,,,,,,,,0,,,79,0
15920,note_on,80,0,1,,,,,,,,,0,,,77,0
15920,note_on,80,0,3,,,,,,,,,2,,,68,0
15920,note_on,0,0,3,,,,,,,,,2,,,70,49
15920,note_on,0,0,1,,,,,,,,,0,,,79,62
15999,note_on,0,0,3,,,,,,,,,2,,,68,49
15999,note_on,0,0,1,,,,,,,,,0,,,77,62
15999,note_on,79,0,1,,,,,,,,,0,,,79,0
15999,note_on,79,0,3,,,,,,,,,2,,,70,0
16080,note_on,81,0,1,,,,,,,,,0,,,77,0
16080,note_on,81,0,3,,,,,,,,,2,,,68,0
16080,note_on,0,0,1,,,,,,,,,0,,,75,62
16080,note_on,0,0,3,,,,,,,,,2,,,67,49
16160,note_on,80,0,3,,,,,,,,,2,,,67,0
16160,note_on,0,0,3,,,,,,,,,2,,,68,49
16160,note_on,0,0,1,,,,,,,,,0,,,77,62
16160,note_on,80,0,1,,,,,,,,,0,,,75,0
16239,note_on,79,0,1,,,,,,,,,0,,,77,0
16239,note_on,0,0,3,,,,,,,,,2,,,67,49
16239,note_on,0,0,1,,,,,,,,,0,,,75,62
16239,note_on,79,0,3,,,,,,,,,2,,,68,0
16320,note_on,81,0,1,,,,,,,,,0,,,75,0
16320,note_on,0,0,3,,,,,,,,,2,,,65,49
16320,note_on,81,0,3,,,,,,,,,2,,,67,0
16320,note_on,0,0,1,,,,,,,,,0,,,73,62
16400,note_on,80,0,1,,,,,,,,,0,,,73,0
16400,note_on,0,0,3,,,,,,,,,2,,,67,49
16400,note_on,80,0,3,,,,,,,,,2,,,65,0
16400,note_on,0,0,1,,,,,,,,,0,,,75,62
16479,note_on,0,0,3,,,,,,,,,2,,,65,49
16479,note_on,79,0,3,,,,,,,,,2,,,67,0
16479,note_on,0,0,1,,,,,,,,,0,,,73,62
16479,note_on,79,0,1,,,,,,,,,0,,,75,0
16560,note_on,0,0,1,,,,,,,,,0,,,72,62
16560,note_on,0,0,3,,,,,,,,,2,,,63,49
16560,note_on,81,0,3,,,,,,,,,2,,,65,0
16560,note_on,81,0,1,,,,,,,,,0,,,73,0
16640,note_on,80,0,3,,,,,,,,,2,,,63,0
16640,note_on,0,0,3,,,,,,,,,2,,,65,49
16640,note_on,0,0,1,,,,,,,,,0,,,73,62
16640,note_on,80,0,1,,,,,,,,,0,,,72,0
16719,note_on,0,0,1,,,,,,,,,0,,,72,62
16719,note_on,79,0,1,,,,,,,,,0,,,73,0
16719,note_on,79,0,3,,,,,,,,,2,,,65,0
16719,note_on,0,0,3,,,,,,,,,2,,,63,49
16800,note_on,81,0,1,,,,,,,,,0,,,72,0
16800,note_on,0,0,3,,,,,,,,,2,,,61,49
16800,note_on,0,0,1,,,,,,,,,0,,,70,62
16800,note_on,81,0,3,,,,,,,,,2,,,63,0
16880,note_on,80,0,3,,,,,,,,,2,,,61,0
16880,note_on,0,0,1,,,,,,,,,0,,,72,62
16880,note_on,0,0,3,,,,,,,,,2,,,63,49
16880,note_on,80,0,1,,,,,,,,,0,,,70,0
16959,note_on,0,0,3,,,,,,,,,2,,,61,49
16959,note_on,79,0,1,,,,,,,,,0,,,72,0
16959,note_on,0,0,1,,,,,,,,,0,,,70,62
16959,note_on,79,0,3,,,,,,,,,2,,,63,0
17040,note_on,0,0,3,,,,,,,,,2,,,58,49
17040,note_on,81,0,3,,,,,,,,,2,,,61,0
17040,note_on,0,0,1,,,,,,,,,0,,,67,62
17040,note_on,81,0,1,,,,,,,,,0,,,70,0
17120,note_on,80,0,3,,,,,,,,,2,,,58,0
17120,note_on,0,0,3,,,,,,,,,2,,,60,49
17120,note_on,80,0,1,,,,,,,,,0,,,67,0
17120,note_on,0,0,1,,,,,,,,,0,,,68,62
17199,note_on,0,0,3,,,,,,,,,2,,,58,49
17199,note_on,79,0,3,,,,,,,,,2,,,60,0
17199,note_on,79,0,1,,,,,,,,,0,,,68,0
17199,note_on,0,0,1,,,,,,,,,0,,,67,62
17280,note_on,0,0,3,,,,,,,,,2,,,56,49
17280,note_on,0,0,3,,,,,,,,,2,,,53,49
17280,note_on,81,0,3,,,,,,,,,2,,,58,0
17280,note_on,81,0,1,,,,,,,,,0,,,67,0
17280,note_on,0,0,1,,,,,,,,,0,,,65,62
17360,note_on,80,0,1,,,,,,,,,0,,,65,0
17360,note_on,0,0,1,,,,,,,,,0,,,67,62
17360,note_on,0,0,3,,,,,,,,,2,,,53,0
17360,note_on,80,0,3,,,,,,,,,2,,,56,0
17360,note_on,0,0,3,,,,,,,,,2,,,58,49
17439,note_on,79,0,1,,,,,,,,,0,,,67,0
17439,note_on,0,0,3,,,,,,,,,2,,,56,49
17439,note_on,0,0,1,,,,,,,,,0,,,65,62
17439,note_on,79,0,3,,,,,,,,,2,,,58,0
17520,note_on,81,0,3,,,,,,,,,2,,,56,0
17520,note_on,0,0,1,,,,,,,,,0,,,72,88
17520,note_on,81,0,1,,,,,,,,,0,,,65,0
17520,note_on,0,0,1,,,,,,,,,0,,,68,88
17520,note_on,0,0,3,,,,,,,,,2,,,60,75
17600,note_on,0,0,3,,,,,,,,,2,,,58,49
17600,note_on,0,0,1,,,,,,,,,0,,,68,0
17600,note_on,0,0,1,,,,,,,,,0,,,67,62
17600,note_on,80,0,1,,,,,,,,,0,,,72,0
17600,note_on,80,0,3,,,,,,,,,2,,,60,0
17679,note_on,0,0,3,,,,,,,,,2,,,56,49
17679,note_on,0,0,1,,,,,,,,,0,,,65,62
17679,note_on,79,0,3,,,,,,,,,2,,,58,0
17679,note_on,79,0,1,,,,,,,,,0,,,67,0
17760,note_on,81,0,3,,,,,,,,,2,,,56,0
17760,note_on,81,0,1,,,,,,,,,0,,,65,0
17760,note_on,0,0,3,,,,,,,,,2,,,55,49
17760,note_on,0,0,1,,,,,,,,,0,,,64,62
17760,note_on,0,0,3,,,,,,,,,2,,,48,49
17840,note_on,80,0,1,,,,,,,,,0,,,64,0
17840,note_on,0,0,1,,,,,,,,,0,,,65,62
17840,note_on,80,0,3,,,,,,,,,2,,,55,0
17840,note_on,0,0,3,,,,,,,,,2,,,56,49
17840,note_on,0,0,3,,,,,,,,,2,,,48,0
17919,note_on,79,0,1,,,,,,,,,0,,,65,0
17919,note_on,79,0,3,,,,,,,,,2,,,56,0
17919,note_on,0,0,3,,,,,,,,,2,,,55,49
17919,note_on,0,0,1,,,,,,,,,0,,,64,62
18000,note_on,81,0,3,,,,,,,,,2,,,55,0
18000,note_on,0,0,3,,,,,,,,,2,,,58,75
18000,note_on,81,0,1,,,,,,,,,0,,,64,0
18000,note_on,0,0,1,,,,,,,,,0,,,72,88
18000,note_on,0,0,1,,,,,,,,,0,,,67,88
18080,note_on,80,0,3,,,,,,,,,2,,,58,0
18080,note_on,0,0,1,,,,,,,,,0,,,65,62
18080,note_on,80,0,1,,,,,,,,,0,,,72,0
18080,note_on,0,0,3,,,,,,,,,2,,,56,49
18080,note_on,0,0,1,,,,,,,,,0,,,67,0
18159,note_on,79,0,3,,,,,,,,,2,,,56,0
18159,note_on,79,0,1,,,,,,,,,0,,,65,0
18159,note_on,0,0,1,,,,,,,,,0,,,64,62
18159,note_on,0,0,3,,,,,,,,,2,,,55,49
18240,note_on,0,0,1,,,,,,,,,0,,,65,62
18240,note_on,81,0,1,,,,,,,,,0,,,64,0
18240,note_on,81,0,3,,,,,,,,,2,,,55,0
18240,note_on,0,0,3,,,,,,,,,2,,,53,49
18240,note_on,0,0,3,,,,,,,,,2,,,56,49
18320,note_on,0,0,3,,,,,,,,,2,,,53,0
18320,note_on,0,0,3,,,,,,,,,2,,,58,49
18320,note_on,80,0,1,,,,,,,,,0,,,65,0
18320,note_on,0,0,1,,,,,,,,,0,,,67,62
18320,note_on,80,0,3,,,,,,,,,2,,,56,0
18399,note_on,0,0,1,,,,,,,,,0,,,65,62
18399,note_on,79,0,3,,,,,,,,,2,,,58,0
18399,note_on,0,0,3,,,,,,,,,2,,,56,49
18399,note_on,79,0,1,,,,,,,,,0,,,67,0
18480,note_on,0,0,3,,,,,,,,,2,,,68,49
18480,note_on,0,0,1,,,,,,,,,0,,,77,62
18480,note_on,81,0,3,,,,,,,,,2,,,56,0
18480,note_on,81,0,1,,,,,,,,,0,,,65,0
18560,note_on,0,0,1,,,,,,,,,0,,,79,62
18560,note_on,80,0,3,,,,,,,,,2,,,68,0
18560,note_on,80,0,1,,,,,,,,,0,,,77,0
18560,note_on,0,0,3,,,,,,,,,2,,,70,49
18639,note_on,79,0,3,,,,,,,,,2,,,70,0
18639,note_on,0,0,1,,,,,,,,,0,,,77,62
18639,note_on,0,0,3,,,,,,,,,2,,,68,49
18639,note_on,79,0,1,,,,,,,,,0,,,79,0
18720,note_on,81,0,3,,,,,,,,,2,,,68,0
18720,note_on,0,0,3,,,,,,,,,2,,,67,49
18720,note_on,81,0,1,,,,,,,,,0,,,77,0
18720,note_on,0,0,1,,,,,,,,,0,,,75,62
18800,note_on,0,0,3,,,,,,,,,2,,,68,49
18800,note_on,80,0,3,,,,,,,,,2,,,67,0
18800,note_on,0,0,1,,,,,,,,,0,,,77,62
18800,note_on,80,0,1,,,,,,,,,0,,,75,0
18879,note_on,0,0,3,,,,,,,,,2,,,67,49
18879,note_on,79,0,1,,,,,,,,,0,,,77,0
18879,note_on,0,0,1,,,,,,,,,0,,,75,62
18879,note_on,79,0,3,,,,,,,,,2,,,68,0
18960,note_on,81,0,3,,,,,,,,,2,,,67,0
18960,note_on,0,0,1,,,,,,,,,0,,,73,62
18960,note_on,0,0,3,,,,,,,,,2,,,65,49
18960,note_on,81,0,1,,,,,,,,,0,,,75,0
19040,note_on,0,0,3,,,,,,,,,2,,,67,49
19040,note_on,80,0,1,,,,,,,,,0,,,73,0
19040,note_on,80,0,3,,,,,,,,,2,,,65,0
19040,note_on,0,0,1,,,,,,,,,0,,,75,62
19119,note_on,0,0,3,,,,,,,,,2,,,65,49
19119,note_on,0,0,1,,,,,,,,,0,,,73,62
19119,note_on,79,0,3,,,,,,,,,2,,,67,0
19119,note_on,79,0,1,,,,,,,,,0,,,75,0
19200,note_on,81,0,3,,,,,,,,,2,,,65,0
19200,note_on,0,0,3,,,,,,,,,2,,,63,49
19200,note_on,81,0,1,,,,,,,,,0,,,73,0
19200,note_on,0,0,1,,,,,,,,,0,,,72,62
19280,note_on,0,0,1,,,,,,,,,0,,,73,62
19280,note_on,80,0,1,,,,,,,,,0,,,72,0
19280,note_on,0,0,3,,,,,,,,,2,,,65,49
19280,note_on,80,0,3,,,,,,,,,2,,,63,0
19359,note_on,0,0,3,,,,,,,,,2,,,63,49
19359,note_on,79,0,3,,,,,,,,,2,,,65,0
19359,note_on,0,0,1,,,,,,,,,0,,,72,62
19359,note_on,79,0,1,,,,,,,,,0,,,73,0
19440,note_on,81,0,1,,,,,,,,,0,,,72,0
19440,note_on,0,0,3,,,,,,,,,2,,,61,49
19440,note_on,0,0,1,,,,,,,,,0,,,70,62
19440,note_on,81,0,3,,,,,,,,,2,,,63,0
19520,note_on,0,0,1,,,,,,,,,0,,,72,62
19520,note_on,80,0,1,,,,,,,,,0,,,70,0
19520,note_on,80,0,3,,,,,,,,,2,,,61,0
19520,note_on,0,0,3,,,,,,,,,2,,,63,49
19599,note_on,0,0,1,,,,,,,,,0,,,70,62
19599,note_on,79,0,1,,,,,,,,,0,,,72,0
19599,note_on,79,0,3,,,,,,,,,2,,,63,0
19599,note_on,0,0,3,,,,,,,,,2,,,61,49
19680,note_on,81,0,3,,,,,,,,,2,,,61,0
19680,note_on,81,0,1,,,,,,,,,0,,,70,0
19680,note_on,0,0,3,,,,,,,,,2,,,60,49
19680,note_on,0,0,1,,,,,,,,,0,,,68,49
19760,note_on,0,0,3,,,,,,,,,2,,,61,49
19760,note_on,80,0,3,,,,,,,,,2,,,60,0
19760,note_on,80,0,1,,,,,,,,,0,,,68,0
19760,note_on,0,0,1,,,,,,,,,0,,,70,49
19839,note_on,79,0,3,,,,,,,,,2,,,61,0
19839,note_on,79,0,1,,,,,,,,,0,,,70,0
19839,note_on,0,0,1,,,,,,,,,0,,,68,49
19839,note_on,0,0,3,,,,,,,,,2,,,60,49
19920,note_on,0,0,3,,,,,,,,,2,,,58,49
19920,note_on,81,0,3,,,,,,,,,2,,,60,0
19920,note_on,0,0,1,,,,,,,,,0,,,67,49
19920,note_on,81,0,1,,,,,,,,,0,,,68,0
20000,note_on,0,0,3,,,,,,,,,2,,,60,49
20000,note_on,80,0,3,,,,,,,,,2,,,58,0
20000,note_on,0,0,1,,,,,,,,,0,,,68,49
20000,note_on,80,0,1,,,,,,,,,0,,,67,0
20079,note_on,79,0,1,,,,,,,,,0,,,68,0
20079,note_on,0,0,3,,,,,,,,,2,,,58,49
20079,note_on,79,0,3,,,,,,,,,2,,,60,0
20079,note_on,0,0,1,,,,,,,,,0,,,67,49
20160,note_on,81,0,1,,,,,,,,,0,,,67,0
20160,note_on,0,0,3,,,,,,,,,2,,,53,49
20160,note_on,0,0,3,,,,,,,,,2,,,56,49
20160,note_on,81,0,3,,,,,,,,,2,,,58,0
20160,note_on,0,0,1,,,,,,,,,0,,,65,62
20240,note_on,0,0,1,,,,,,,,,0,,,67,62
20240,note_on,0,0,3,,,,,,,,,2,,,53,0
20240,note_on,80,0,3,,,,,,,,,2,,,56,0
20240,note_on,80,0,1,,,,,,,,,0,,,65,0
20240,note_on,0,0,3,,,,,,,,,2,,,58,49
20319,note_on,0,0,1,,,,,,,,,0,,,65,62
20319,note_on,79,0,1,,,,,,,,,0,,,67,0
20319,note_on,79,0,3,,,,,,,,,2,,,58,0
20319,note_on,0,0,3,,,,,,,,,2,,,56,49
20400,note_on,0,0,1,,,,,,,,,0,,,72,88
20400,note_on,81,0,3,,,,,,,,,2,,,56,0
20400,note_on,0,0,1,,,,,,,,,0,,,68,88
20400,note_on,81,0,1,,,,,,,,,0,,,65,0
20400,note_on,0,0,3,,,,,,,,,2,,,60,75
20480,note_on,80,0,1,,,,,,,,,0,,,72,0
20480,note_on,80,0,3,,,,,,,,,2,,,60,0
20480,note_on,0,0,1,,,,,,,,,0,,,67,62
20480,note_on,0,0,3,,,,,,,,,2,,,58,49
20480,note_on,0,0,1,,,,,,,,,0,,,68,0
20559,note_on,79,0,1,,,,,,,,,0,,,67,0
20559,note_on,0,0,3,,,,,,,,,2,,,56,49
20559,note_on,79,0,3,,,,,,,,,2,,,58,0
20559,note_on,0,0,1,,,,,,,,,0,,,65,62
20640,note_on,81,0,1,,,,,,,,,0,,,65,0
20640,note_on,0,0,3,,,,,,,,,2,,,48,49
20640,note_on,0,0,3,,,,,,,,,2,,,55,49
20640,note_on,0,0,1,,,,,,,,,0,,,64,62
20640,note_on,81,0,3,,,,,,,,,2,,,56,0
20720,note_on,0,0,3,,,,,,,,,2,,,48,0
20720,note_on,0,0,3,,,,,,,,,2,,,56,49
20720,note_on,80,0,1,,,,,,,,,0,,,64,0
20720,note_on,80,0,3,,,,,,,,,2,,,55,0
20720,note_on,0,0,1,,,,,,,,,0,,,65,62
20799,note_on,0,0,3,,,,,,,,,2,,,55,49
20799,note_on,79,0,1,,,,,,,,,0,,,65,0
20799,note_on,0,0,1,,,,,,,,,0,,,64,62
20799,note_on,79,0,3,,,,,,,,,2,,,56,0
20880,note_on,81,0,3,,,,,,,,,2,,,55,0
20880,note_on,81,0,1,,,,,,,,,0,,,64,0
20880,note_on,0,0,1,,,,,,,,,0,,,67,88
20880,note_on,0,0,3,,,,,,,,,2,,,58,75
20880,note_on,0,0,1,,,,,,,,,0,,,72,88
20960,note_on,0,0,1,,,,,,,,,0,,,67,0
20960,note_on,0,0,1,,,,,,,,,0,,,65,62
20960,note_on,80,0,1,,,,,,,,,0,,,72,0
20960,note_on,0,0,3,,,,,,,,,2,,,56,49
20960,note_on,80,0,3,,,,,,,,,2,,,58,0
21039,note_on,0,0,3,,,,,,,,,2,,,55,49
21039,note_on,0,0,1,,,,,,,,,0,,,64,62
21039,note_on,79,0,1,,,,,,,,,0,,,65,0
21039,note_on,79,0,3,,,,,,,,,2,,,56,0
21120,note_on,0,0,1,,,,,,,,,0,,,65,62
21120,note_on,81,0,3,,,,,,,,,2,,,55,0
21120,control_change,0,0,1,,,,,,,,,0,64,127,,
21120,note_on,0,0,3,,,,,,,,,2,,,56,49
21120,note_on,0,0,3,,,,,,,,,2,,,53,49
21120,note_on,81,0,1,,,,,,,,,0,,,64,0
21200,note_on,0,0,3,,,,,,,,,2,,,58,49
21200,note_on,80,0,3,,,,,,,,,2,,,56,0
21200,note_on,0,0,1,,,,,,,,,0,,,67,62
21200,note_on,80,0,1,,,,,,,,,0,,,65,0
21200,note_on,0,0,3,,,,,,,,,2,,,53,0
21279,note_on,0,0,1,,,,,,,,,0,,,65,62
21279,note_on,79,0,3,,,,,,,,,2,,,58,0
21279,note_on,0,0,3,,,,,,,,,2,,,56,49
21279,note_on,79,0,1,,,,,,,,,0,,,67,0
21360,note_on,81,0,3,,,,,,,,,2,,,56,0
21360,note_on,0,0,3,,,,,,,,,2,,,60,49
21360,note_on,0,0,1,,,,,,,,,0,,,68,62
21360,note_on,81,0,1,,,,,,,,,0,,,65,0
21440,note_on,0,0,3,,,,,,,,,2,,,58,49
21440,note_on,80,0,1,,,,,,,,,0,,,68,0
21440,note_on,0,0,1,,,,,,,,,0,,,67,62
21440,note_on,80,0,3,,,,,,,,,2,,,60,0
21519,note_on,0,0,1,,,,,,,,,0,,,65,62
21519,note_on,79,0,3,,,,,,,,,2,,,58,0
21519,note_on,79,0,1,,,,,,,,,0,,,67,0
21519,note_on,0,0,3,,,,,,,,,2,,,56,49
21600,note_on,0,0,1,,,,,,,,,0,,,68,62
21600,note_on,81,0,1,,,,,,,,,0,,,65,0
21600,note_on,0,0,3,,,,,,,,,2,,,60,49
21600,note_on,81,0,3,,,,,,,,,2,,,56,0
21680,note_on,0,0,1,,,,,,,,,0,,,67,62
21680,note_on,0,0,3,,,,,,,,,2,,,58,49
21680,note_on,80,0,1,,,,,,,,,0,,,68,0
21680,note_on,80,0,3,,,,,,,,,2,,,60,0
21759,note_on,79,0,1,,,,,,,,,0,,,67,0
21759,note_on,0,0,3,,,,,,,,,2,,,56,49
21759,note_on,79,0,3,,,,,,,,,2,,,58,0
21759,note_on,0,0,1,,,,,,,,,0,,,65,62
21840,note_on,81,0,1,,,,,,,,,0,,,65,0
21840,note_on,0,0,1,,,,,,,,,0,,,68,62
21840,note_on,81,0,3,,,,,,,,,2,,,56,0
21840,note_on,0,0,3,,,,,,,,,2,,,60,49
21920,note_on,80,0,3,,,,,,,,,2,,,60,0
21920,note_on,80,0,1,,,,,,,,,0,,,68,0
21920,note_on,0,0,1,,,,,,,,,0,,,67,62
21920,note_on,0,0,3,,,,,,,,,2,,,58,49
21999,note_on,0,0,3,,,,,,,,,2,,,56,49
21999,control_change,0,0,1,,,,,,,,,0,64,0,,
21999,note_on,79,0,1,,,,,,,,,0,,,67,0
21999,note_on,79,0,3,,,,,,,,,2,,,58,0
21999,note_on,0,0,1,,,,,,,,,0,,,65,62
22080,control_change,0,0,1,,,,,,,,,0,64,127,,
22080,note_on,81,0,1,,,,,,,,,0,,,65,0
22080,note_on,81,0,3,,,,,,,,,2,,,56,0
22080,note_on,0,0,3,,,,,,,,,2,,,60,49
22080,note_on,0,0,3,,,,,,,,,2,,,51,49
22080,note_on,0,0,1,,,,,,,,,0,,,68,62
22160,note_on,0,0,1,,,,,,,,,0,,,70,62
22160,note_on,80,0,3,,,,,,,,,2,,,60,0
22160,note_on,0,0,3,,,,,,,,,2,,,51,0
22160,note_on,0,0,3,,,,,,,,,2,,,61,49
22160,note_on,80,0,1,,,,,,,,,0,,,68,0
22239,note_on,79,0,3,,,,,,,,,2,,,61,0
22239,note_on,0,0,1,,,,,,,,,0,,,68,62
22239,note_on,79,0,1,,,,,,,,,0,,,70,0
22239,note_on,0,0,3,,,,,,,,,2,,,60,49
22320,note_on,0,0,3,,,,,,,,,2,,,63,49
22320,note_on,81,0,3,,,,,,,,,2,,,60,0
22320,note_on,0,0,1,,,,,,,,,0,,,72,62
22320,note_on,81,0,1,,,,,,,,,0,,,68,0
22320,note_on,0,0,1,,,,,,,,,0,,,75,62
22400,note_on,0,0,3,,,,,,,,,2,,,61,49
22400,note_on,0,0,1,,,,,,,,,0,,,70,62
22400,note_on,0,0,1,,,,,,,,,0,,,72,0
22400,note_on,80,0,3,,,,,,,,,2,,,63,0
22400,note_on,80,0,1,,,,,,,,,0,,,75,0
22479,note_on,0,0,1,,,,,,,,,0,,,68,62
22479,note_on,79,0,1,,,,,,,,,0,,,70,0
22479,note_on,79,0,3,,,,,,,,,2,,,61,0
22479,note_on,0,0,3,,,,,,,,,2,,,60,49
22560,note_on,0,0,1,,,,,,,,,0,,,67,62
22560,note_on,0,0,3,,,,,,,,,2,,,58,49
22560,note_on,0,0,3,,,,,,,,,2,,,51,49
22560,note_on,81,0,1,,,,,,,,,0,,,68,0
22560,note_on,81,0,3,,,,,,,,,2,,,60,0
22640,note_on,80,0,1,,,,,,,,,0,,,67,0
22640,note_on,80,0,3,,,,,,,,,2,,,58,0
22640,note_on,0,0,3,,,,,,,,,2,,,60,49
22640,note_on,0,0,3,,,,,,,,,2,,,51,0
22640,note_on,0,0,1,,,,,,,,,0,,,68,62
22719,note_on,0,0,3,,,,,,,,,2,,,58,49
22719,note_on,79,0,1,,,,,,,,,0,,,68,0
22719,note_on,79,0,3,,,,,,,,,2,,,60,0
22719,note_on,0,0,1,,,,,,,,,0,,,67,62
22800,note_on,81,0,3,,,,,,,,,2,,,58,0
22800,note_on,0,0,1,,,,,,,,,0,,,70,62
22800,note_on,0,0,3,,,,,,,,,2,,,61,49
22800,note_on,81,0,1,,,,,,,,,0,,,67,0
22800,note_on,0,0,1,,,,,,,,,0,,,75,62
22880,note_on,0,0,3,,,,,,,,,2,,,60,49
22880,note_on,0,0,1,,,,,,,,,0,,,70,0
22880,note_on,80,0,1,,,,,,,,,0,,,75,0
22880,note_on,80,0,3,,,,,,,,,2,,,61,0
22880,note_on,0,0,1,,,,,,,,,0,,,68,62
22959,note_on,0,0,1,,,,,,,,,0,,,67,62
22959,note_on,79,0,3,,,,,,,,,2,,,60,0
22959,note_on,79,0,1,,,,,,,,,0,,,68,0
22959,control_change,0,0,1,,,,,,,,,0,64,0,,
22959,note_on,0,0,3,,,,,,,,,2,,,58,49
23040,note_on,81,0,1,,,,,,,,,0,,,67,0
23040,note_on,0,0,3,,,,,,,,,2,,,56,49
23040,note_on,0,0,3,,,,,,,,,2,,,60,49
23040,note_on,0,0,1,,,,,,,,,0,,,68,62
23040,note_on,81,0,3,,,,,,,,,2,,,58,0
23040,control_change,0,0,1,,,,,,,,,0,64,127,,
23120,note_on,80,0,3,,,,,,,,,2,,,60,0
23120,note_on,0,0,1,,,,,,,,,0,,,70,62
23120,note_on,0,0,3,,,,,,,,,2,,,56,0
23120,note_on,0,0,3,,,,,,,,,2,,,61,49
23120,note_on,80,0,1,,,,,,,,,0,,,68,0
23199,note_on,0,0,3,,,,,,,,,2,,,60,49
23199,note_on,0,0,1,,,,,,,,,0,,,68,62
23199,note_on,79,0,3,,,,,,,,,2,,,61,0
23199,note_on,79,0,1,,,,,,,,,0,,,70,0
23280,note_on,0,0,3,,,,,,,,,2,,,63,49
23280,note_on,0,0,1,,,,,,,,,0,,,72,62
23280,note_on,81,0,3,,,,,,,,,2,,,60,0
23280,note_on,81,0,1,,,,,,,,,0,,,68,0
23360,note_on,0,0,1,,,,,,,,,0,,,70,62
23360,note_on,80,0,1,,,,,,,,,0,,,72,0
23360,note_on,80,0,3,,,,,,,,,2,,,63,0
23360,note_on,0,0,3,,,,,,,,,2,,,61,49
23439,note_on,79,0,3,,,,,,,,,2,,,61,0
23439,note_on,0,0,3,,,,,,,,,2,,,60,49
23439,note_on,0,0,1,,,,,,,,,0,,,68,62
23439,note_on,79,0,1,,,,,,,,,0,,,70,0
23520,note_on,0,0,1,,,,,,,,,0,,,72,62
23520,note_on,81,0,3,,,,,,,,,2,,,60,0
23520,note_on,0,0,3,,,,,,,,,2,,,63,49
23520,note_on,81,0,1,,,,,,,,,0,,,68,0
23600,note_on,80,0,1,,,,,,,,,0,,,72,0
23600,note_on,0,0,3,,,,,,,,,2,,,61,49
23600,note_on,0,0,1,,,,,,,,,0,,,70,62
23600,note_on,80,0,3,,,,,,,,,2,,,63,0
23679,note_on,0,0,3,,,,,,,,,2,,,60,49
23679,note_on,0,0,1,,,,,,,,,0,,,68,62
23679,note_on,79,0,1,,,,,,,,,0,,,70,0
23679,note_on,79,0,3,,,,,,,,,2,,,61,0
23760,note_on,81,0,3,,,,,,,,,2,,,60,0
23760,note_on,81,0,1,,,,,,,,,0,,,68,0
23760,note_on,0,0,3,,,,,,,,,2,,,63,49
23760,note_on,0,0,1,,,,,,,,,0,,,72,62
23840,note_on,0,0,3,,,,,,,,,2,,,61,49
23840,note_on,80,0,3,,,,,,,,,2,,,63,0
23840,note_on,0,0,1,,,,,,,,,0,,,70,62
23840,note_on,80,0,1,,,,,,,,,0,,,72,0
23919,note_on,79,0,1,,,,,,,,,0,,,70,0
23919,note_on,79,0,3,,,,,,,,,2,,,61,0
23919,note_on,0,0,1,,,,,,,,,0,,,68,62
23919,control_change,0,0,1,,,,,,,,,0,64,0,,
23919,note_on,0,0,3,,,,,,,,,2,,,60,49
24000,note_on,0,0,3,,,,,,,,,2,,,55,49
24000,note_on,81,0,1,,,,,,,,,0,,,68,0
24000,note_on,81,0,3,,,,,,,,,2,,,60,0
24000,note_on,0,0,3,,,,,,,,,2,,,63,49
24000,note_on,0,0,1,,,,,,,,,0,,,72,62
24080,note_on,0,0,3,,,,,,,,,2,,,55,0
24080,note_on,0,0,3,,,,,,,,,2,,,65,49
24080,note_on,80,0,3,,,,,,,,,2,,,63,0
24080,note_on,80,0,1,,,,,,,,,0,,,72,0
24080,note_on,0,0,1,,,,,,,,,0,,,74,62
24159,note_on,0,0,1,,,,,,,,,0,,,72,62
24159,note_on,79,0,3,,,,,,,,,2,,,65,0
24159,note_on,0,0,3,,,,,,,,,2,,,63,49
24159,note_on,79,0,1,,,,,,,,,0,,,74,0
24240,note_on,0,0,1,,,,,,,,,0,,,75,88
24240,note_on,0,0,1,,,,,,,,,0,,,79,88
24240,note_on,81,0,3,,,,,,,,,2,,,63,0
24240,note_on,81,0,1,,,,,,,,,0,,,72,0
24240,note_on,0,0,3,,,,,,,,,2,,,67,75
24320,note_on,0,0,1,,,,,,,,,0,,,75,0
24320,note_on,80,0,1,,,,,,,,,0,,,79,0
24320,note_on,80,0,3,,,,,,,,,2,,,67,0
24320,note_on,0,0,3,,,,,,,,,2,,,65,49
24320,note_on,0,0,1,,,,,,,,,0,,,74,62
24399,note_on,0,0,3,,,,,,,,,2,,,63,49
24399,note_on,0,0,1,,,,,,,,,0,,,72,62
24399,note_on,79,0,1,,,,,,,,,0,,,74,0
24399,note_on,79,0,3,,,,,,,,,2,,,65,0
24480,note_on,81,0,3,,,,,,,,,2,,,63,0
24480,note_on,0,0,3,,,,,,,,,2,,,62,49
24480,note_on,0,0,3,,,,,,,,,2,,,55,49
24480,note_on,0,0,1,,,,,,,,,0,,,71,62
24480,note_on,81,0,1,,,,,,,,,0,,,72,0
24560,note_on,0,0,3,,,,,,,,,2,,,63,49
24560,note_on,0,0,3,,,,,,,,,2,,,55,0
24560,note_on,80,0,1,,,,,,,,,0,,,71,0
24560,note_on,0,0,1,,,,,,,,,0,,,72,62
24560,note_on,80,0,3,,,,,,,,,2,,,62,0
24639,note_on,0,0,1,,,,,,,,,0,,,71,62
24639,note_on,0,0,3,,,,,,,,,2,,,62,49
24639,note_on,79,0,1,,,,,,,,,0,,,72,0
24639,note_on,79,0,3,,,,,,,,,2,,,63,0
24720,note_on,81,0,1,,,,,,,,,0,,,71,0
24720,note_on,0,0,3,,,,,,,,,2,,,65,75
24720,note_on,0,0,1,,,,,,,,,0,,,79,88
24720,note_on,0,0,1,,,,,,,,,0,,,74,88
24720,note_on,81,0,3,,,,,,,,,2,,,62,0
24800,note_on,80,0,1,,,,,,,,,0,,,79,0
24800,note_on,0,0,3,,,,,,,,,2,,,63,49
24800,note_on,80,0,3,,,,,,,,,2,,,65,0
24800,note_on,0,0,1,,,,,,,,,0,,,74,0
24800,note_on,0,0,1,,,,,,,,,0,,,72,62
24879,note_on,0,0,1,,,,,,,,,0,,,71,62
24879,note_on,79,0,1,,,,,,,,,0,,,72,0
24879,note_on,0,0,3,,,,,,,,,2,,,62,49
24879,note_on,79,0,3,,,,,,,,,2,,,63,0
24960,note_on,0,0,3,,,,,,,,,2,,,60,49
24960,note_on,0,0,1,,,,,,,,,0,,,72,62
24960,note_on,81,0,1,,,,,,,,,0,,,71,0
24960,note_on,81,0,3,,,,,,,,,2,,,62,0
24960,control_change,0,0,1,,,,,,,,,0,64,127,,
24960,note_on,0,0,3,,,,,,,,,2,,,63,49
25040,note_on,0,0,3,,,,,,,,,2,,,60,0
25040,note_on,80,0,1,,,,,,,,,0,,,72,0
25040,note_on,0,0,1,,,,,,,,,0,,,74,62
25040,note_on,0,0,3,,,,,,,,,2,,,65,49
25040,note_on,80,0,3,,,,,,,,,2,,,63,0
25119,note_on,79,0,1,,,,,,,,,0,,,74,0
25119,note_on,79,0,3,,,,,,,,,2,,,65,0
25119,note_on,0,0,1,,,,,,,,,0,,,72,62
25119,note_on,0,0,3,,,,,,,,,2,,,63,49
25200,note_on,0,0,3,,,,,,,,,2,,,67,49
25200,note_on,81,0,1,,,,,,,,,0,,,72,0
25200,note_on,81,0,3,,,,,,,,,2,,,63,0
25200,note_on,0,0,1,,,,,,,,,0,,,75,62
25280,note_on,0,0,3,,,,,,,,,2,,,65,49
25280,note_on,80,0,3,,,,,,,,,2,,,67,0
25280,note_on,80,0,1,,,,,,,,,0,,,75,0
25280,note_on,0,0,1,,,,,,,,,0,,,74,62
25359,note_on,0,0,3,,,,,,,,,2,,,63,49
25359,note_on,0,0,1,,,,,,,,,0,,,72,62
25359,note_on,79,0,1,,,,,,,,,0,,,74,0
25359,note_on,79,0,3,,,,,,,,,2,,,65,0
25440,note_on,0,0,1,,,,,,,,,0,,,75,62
25440,note_on,81,0,3,,,,,,,,,2,,,63,0
25440,note_on,0,0,3,,,,,,,,,2,,,67,49
25440,note_on,81,0,1,,,,,,,,,0,,,72,0
25520,note_on,0,0,3,,,,,,,,,2,,,65,49
25520,note_on,0,0,1,,,,,,,,,0,,,74,62
25520,note_on,80,0,3,,,,,,,,,2,,,67,0
25520,note_on,80,0,1,,,,,,,,,0,,,75,0
25599,note_on,79,0,1,,,,,,,,,0,,,74,0
25599,note_on,79,0,3,,,,,,,,,2,,,65,0
25599,note_on,0,0,3,,,,,,,,,2,,,63,49
25599,note_on,0,0,1,,,,,,,,,0,,,72,62
25680,note_on,81,0,3,,,,,,,,,2,,,63,0
25680,note_on,0,0,3,,,,,,,,,2,,,67,49
25680,note_on,0,0,1,,,,,,,,,0,,,75,62
25680,note_on,81,0,1,,,,,,,,,0,,,72,0
25760,note_on,0,0,3,,,,,,,,,2,,,65,49
25760,note_on,80,0,1,,,,,,,,,0,,,75,0
25760,note_on,0,0,1,,,,,,,,,0,,,74,62
25760,note_on,80,0,3,,,,,,,,,2,,,67,0
25839,note_on,0,0,3,,,,,,,,,2,,,63,49
25839,note_on,0,0,1,,,,,,,,,0,,,72,62
25839,note_on,79,0,3,,,,,,,,,2,,,65,0
25839,note_on,79,0,1,,,,,,,,,0,,,74,0
25839,control_change,0,0,1,,,,,,,,,0,64,0,,
25920,note_on,0,0,3,,,,,,,,,2,,,58,49
25920,note_on,81,0,1,,,,,,,,,0,,,72,0
25920,note_on,0,0,1,,,,,,,,,0,,,75,62
25920,note_on,0,0,3,,,,,,,,,2,,,67,49
25920,control_change,0,0,1,,,,,,,,,0,64,127,,
25920,note_on,81,0,3,,,,,,,,,2,,,63,0
26000,note_on,0,0,1,,,,,,,,,0,,,77,62
26000,note_on,80,0,3,,,,,,,,,2,,,67,0
26000,note_on,80,0,1,,,,,,,,,0,,,75,0
26000,note_on,0,0,3,,,,,,,,,2,,,58,0
26000,note_on,0,0,3,,,,,,,,,2,,,68,49
26079,note_on,79,0,3,,,,,,,,,2,,,68,0
26079,note_on,0,0,1,,,,,,,,,0,,,75,62
26079,note_on,79,0,1,,,,,,,,,0,,,77,0
26079,note_on,0,0,3,,,,,,,,,2,,,67,49
26160,note_on,0,0,1,,,,,,,,,0,,,79,62
26160,note_on,81,0,1,,,,,,,,,0,,,75,0
26160,note_on,0,0,1,,,,,,,,,0,,,82,62
26160,note_on,0,0,3,,,,,,,,,2,,,70,49
26160,note_on,81,0,3,,,,,,,,,2,,,67,0
26240,note_on,0,0,3,,,,,,,,,2,,,68,49
26240,note_on,0,0,1,,,,,,,,,0,,,79,0
26240,note_on,80,0,1,,,,,,,,,0,,,82,0
26240,note_on,80,0,3,,,,,,,,,2,,,70,0
26240,note_on,0,0,1,,,,,,,,,0,,,77,62
26319,note_on,0,0,3,,,,,,,,,2,,,67,49
26319,note_on,79,0,1,,,,,,,,,0,,,77,0
26319,note_on,79,0,3,,,,,,,,,2,,,68,0
26319,note_on,0,0,1,,,,,,,,,0,,,75,62
26400,note_on,81,0,3,,,,,,,,,2,,,67,0
26400,note_on,0,0,3,,,,,,,,,2,,,58,49
26400,note_on,0,0,3,,,,,,,,,2,,,65,49
26400,note_on,0,0,1,,,,,,,,,0,,,74,62
26400,note_on,81,0,1,,,,,,,,,0,,,75,0
26480,note_on,80,0,3,,,,,,,,,2,,,65,0
26480,note_on,0,0,3,,,,,,,,,2,,,58,0
26480,note_on,0,0,1,,,,,,,,,0,,,75,62
26480,note_on,0,0,3,,,,,,,,,2,,,67,49
26480,note_on,80,0,1,,,,,,,,,0,,,74,0
26559,note_on,79,0,1,,,,,,,,,0,,,75,0
26559,note_on,0,0,3,,,,,,,,,2,,,65,49
26559,note_on,79,0,3,,,,,,,,,2,,,67,0
26559,note_on,0,0,1,,,,,,,,,0,,,74,62
26640,note_on,81,0,3,,,,,,,,,2,,,65,0
26640,note_on,81,0,1,,,,,,,,,0,,,74,0
26640,note_on,0,0,3,,,,,,,,,2,,,68,49
26640,note_on,0,0,1,,,,,,,,,0,,,82,62
26640,note_on,0,0,1,,,,,,,,,0,,,77,62
26720,note_on,80,0,3,,,,,,,,,2,,,68,0
26720,note_on,0,0,3,,,,,,,,,2,,,67,49
26720,note_on,0,0,1,,,,,,,,,0,,,77,0
26720,note_on,0,0,1,,,,,,,,,0,,,75,62
26720,note_on,80,0,1,,,,,,,,,0,,,82,0
26799,note_on,79,0,3,,,,,,,,,2,,,67,0
26799,note_on,0,0,3,,,,,,,,,2,,,65,49
26799,control_change,0,0,1,,,,,,,,,0,64,0,,
26799,note_on,79,0,1,,,,,,,,,0,,,75,0
26799,note_on,0,0,1,,,,,,,,,0,,,74,62
26880,note_on,81,0,3,,,,,,,,,2,,,65,0
26880,note_on,81,0,1,,,,,,,,,0,,,74,0
26880,note_on,0,0,1,,,,,,,,,0,,,75,62
26880,note_on,13440,0,4,,,,,,,,,3,,,63,64
26880,control_change,0,0,1,,,,,,,,,0,64,127,,
26880,note_on,0,0,3,,,,,,,,,2,,,67,49
26960,note_on,80,0,1,,,,,,,,,0,,,75,0
26960,note_on,0,0,1,,,,,,,,,0,,,77,62
27039,note_on,0,0,1,,,,,,,,,0,,,75,62
27039,note_on,79,0,1,,,,,,,,,0,,,77,0
27120,note_on,0,0,3,,,,,,,,,2,,,68,75
27120,note_on,0,0,1,,,,,,,,,0,,,74,62
27120,note_on,0,0,3,,,,,,,,,2,,,71,75
27120,note_on,81,0,1,,,,,,,,,0,,,75,0
27120,note_on,240,0,3,,,,,,,,,2,,,67,0
27200,note_on,80,0,1,,,,,,,,,0,,,74,0
27200,note_on,0,0,1,,,,,,,,,0,,,75,62
27279,note_on,79,0,1,,,,,,,,,0,,,75,0
27279,note_on,0,0,1,,,,,,,,,0,,,74,62
27360,note_on,240,0,3,,,,,,,,,2,,,71,0
27360,note_on,0,0,3,,,,,,,,,2,,,67,49
27360,note_on,0,0,1,,,,,,,,,0,,,75,62
27360,note_on,81,0,1,,,,,,,,,0,,,74,0
27360,note_on,0,0,3,,,,,,,,,2,,,68,0
27360,note_on,0,0,3,,,,,,,,,2,,,70,49
27440,note_on,0,0,1,,,,,,,,,0,,,77,62
27440,note_on,80,0,1,,,,,,,,,0,,,75,0
27519,note_on,79,0,1,,,,,,,,,0,,,77,0
27519,note_on,0,0,1,,,,,,,,,0,,,75,62
27600,note_on,240,0,3,,,,,,,,,2,,,70,0
27600,note_on,0,0,3,,,,,,,,,2,,,68,49
27600,note_on,0,0,3,,,,,,,,,2,,,71,49
27600,note_on,0,0,1,,,,,,,,,0,,,74,62
27600,note_on,0,0,3,,,,,,,,,2,,,67,0
27600,note_on,81,0,1,,,,,,,,,0,,,75,0
27680,note_on,0,0,1,,,,,,,,,0,,,75,62
27680,note_on,80,0,1,,,,,,,,,0,,,74,0
27759,note_on,0,0,1,,,,,,,,,0,,,77,62
27759,note_on,79,0,1,,,,,,,,,0,,,75,0
27759,control_change,0,0,1,,,,,,,,,0,64,0,,
27840,note_on,240,0,3,,,,,,,,,2,,,71,0
27840,note_on,0,0,3,,,,,,,,,2,,,68,0
27840,note_on,0,0,3,,,,,,,,,2,,,70,49
27840,note_on,960,0,4,,,,,,,,,3,,,63,0
27840,note_on,0,0,1,,,,,,,,,0,,,75,62
27840,control_change,0,0,1,,,,,,,,,0,64,127,,
27840,note_on,81,0,1,,,,,,,,,0,,,77,0
27840,note_on,0,0,3,,,,,,,,,2,,,67,49
27920,note_on,0,0,1,,,,,,,,,0,,,77,62
27920,note_on,80,0,1,,,,,,,,,0,,,75,0
27999,note_on,0,0,1,,,,,,,,,0,,,75,62
27999,note_on,79,0,1,,,,,,,,,0,,,77,0
28080,note_on,240,0,4,,,,,,,,,3,,,65,90
28080,note_on,81,0,1,,,,,,,,,0,,,75,0
28080,note_on,0,0,3,,,,,,,,,2,,,67,75
28080,note_on,0,0,3,,,,,,,,,2,,,67,0
28080,note_on,0,0,1,,,,,,,,,0,,,73,62
28080,note_on,240,0,3,,,,,,,,,2,,,70,0
28160,note_on,0,0,1,,,,,,,,,0,,,75,62
28160,note_on,80,0,1,,,,,,,,,0,,,73,0
28239,note_on,0,0,1,,,,,,,,,0,,,73,62
28239,note_on,79,0,1,,,,,,,,,0,,,75,0
28320,note_on,0,0,1,,,,,,,,,0,,,72,62
28320,note_on,0,0,4,,,,,,,,,3,,,63,64
28320,note_on,81,0,1,,,,,,,,,0,,,73,0
28320,note_on,240,0,4,,,,,,,,,3,,,65,0
28400,note_on,0,0,1,,,,,,,,,0,,,73,62
28400,note_on,80,0,1,,,,,,,,,0,,,72,0
28479,note_on,79,0,1,,,,,,,,,0,,,73,0
28479,note_on,0,0,1,,,,,,,,,0,,,72,62
28560,note_on,0,0,3,,,,,,,,,2,,,63,49
28560,note_on,0,0,3,,,,,,,,,2,,,51,49
28560,note_on,240,0,4,,,,,,,,,3,,,63,0
28560,note_on,480,0,3,,,,,,,,,2,,,67,0
28560,note_on,81,0,1,,,,,,,,,0,,,72,0
28560,note_on,0,0,1,,,,,,,,,0,,,70,62
28560,note_on,0,0,3,,,,,,,,,2,,,61,49
28640,note_on,80,0,1,,,,,,,,,0,,,70,0
28640,note_on,0,0,1,,,,,,,,,0,,,72,62
28719,control_change,0,0,1,,,,,,,,,0,64,0,,
28719,note_on,0,0,1,,,,,,,,,0,,,70,62
28719,note_on,79,0,1,,,,,,,,,0,,,72,0
28800,note_on,240,0,3,,,,,,,,,2,,,63,0
28800,note_on,81,0,1,,,,,,,,,0,,,70,0
28800,note_on,0,0,3,,,,,,,,,2,,,51,0
28800,note_on,0,0,3,,,,,,,,,2,,,60,49
28800,note_on,0,0,1,,,,,,,,,0,,,75,62
28800,note_on,28800,0,2,,,,,,,,,1,,,68,64
28800,note_on,0,0,3,,,,,,,,,2,,,61,0
28880,note_on,80,0,2,,,,,,,,,1,,,68,0
28880,note_on,80,0,3,,,,,,,,,2,,,60,0
28880,note_on,0,0,3,,,,,,,,,2,,,58,49
28880,note_on,0,0,2,,,,,,,,,1,,,67,64
28959,note_on,0,0,3,,,,,,,,,2,,,60,49
28959,note_on,79,0,3,,,,,,,,,2,,,58,0
28959,note_on,79,0,2,,,,,,,,,1,,,67,0
28959,note_on,0,0,2,,,,,,,,,1,,,68,64
29040,note_on,0,0,2,,,,,,,,,1,,,70,64
29040,note_on,81,0,2,,,,,,,,,1,,,68,0
29040,note_on,81,0,3,,,,,,,,,2,,,60,0
29040,note_on,0,0,3,,,,,,,,,2,,,61,49
29120,note_on,0,0,2,,,,,,,,,1,,,68,64
29120,note_on,80,0,2,,,,,,,,,1,,,70,0
29120,note_on,0,0,3,,,,,,,,,2,,,60,49
29120,note_on,80,0,3,,,,,,,,,2,,,61,0
29199,note_on,0,0,3,,,,,,,,,2,,,61,49
29199,note_on,79,0,2,,,,,,,,,1,,,68,0
29199,note_on,0,0,2,,,,,,,,,1,,,70,64
29199,note_on,79,0,3,,,,,,,,,2,,,60,0
29280,note_on,0,0,3,,,,,,,,,2,,,63,49
29280,note_on,720,0,4,,,,,,,,,3,,,56,62
29280,note_on,81,0,2,,,,,,,,,1,,,70,0
29280,note_on,0,0,2,,,,,,,,,1,,,72,64
29280,note_on,81,0,3,,,,,,,,,2,,,61,0
29360,note_on,80,0,2,,,,,,,,,1,,,72,0
29360,note_on,0,0,3,,,,,,,,,2,,,61,49
29360,note_on,0,0,2,,,,,,,,,1,,,70,64
29360,note_on,80,0,3,,,,,,,,,2,,,63,0
29439,note_on,79,0,3,,,,,,,,,2,,,61,0
29439,note_on,79,0,2,,,,,,,,,1,,,70,0
29439,note_on,0,0,3,,,,,,,,,2,,,63,49
29439,note_on,0,0,2,,,,,,,,,1,,,72,64
29520,note_on,0,0,3,,,,,,,,,2,,,65,49
29520,note_on,81,0,2,,,,,,,,,1,,,72,0
29520,note_on,81,0,3,,,,,,,,,2,,,63,0
29520,note_on,0,0,2,,,,,,,,,1,,,73,64
29600,note_on,0,0,2,,,,,,,,,1,,,72,64
29600,note_on,80,0,3,,,,,,,,,2,,,65,0
29600,note_on,80,0,2,,,,,,,,,1,,,73,0
29600,note_on,0,0,3,,,,,,,,,2,,,63,49
29679,note_on,0,0,2,,,,,,,,,1,,,73,64
29679,note_on,79,0,3,,,,,,,,,2,,,63,0
29679,note_on,79,0,2,,,,,,,,,1,,,72,0
29679,note_on,0,0,3,,,,,,,,,2,,,65,49
29760,note_on,480,0,4,,,,,,,,,3,,,56,0
29760,note_on,81,0,2,,,,,,,,,1,,,73,0
29760,note_on,0,0,3,,,,,,,,,2,,,61,49
29760,note_on,81,0,3,,,,,,,,,2,,,65,0
29760,note_on,0,0,2,,,,,,,,,1,,,75,64
29760,note_on,0,0,2,,,,,,,,,1,,,70,64
29760,note_on,960,0,1,,,,,,,,,0,,,70,62
30000,note_on,0,0,3,,,,,,,,,2,,,51,49
30000,note_on,240,0,3,,,,,,,,,2,,,61,0
30000,note_on,0,0,2,,,,,,,,,1,,,70,0
30000,note_on,0,0,1,,,,,,,,,0,,,75,0
30000,note_on,0,0,1,,,,,,,,,0,,,67,62
30000,note_on,240,0,1,,,,,,,,,0,,,70,0
30000,note_on,240,0,2,,,,,,,,,1,,,75,0
30080,note_on,0,0,1,,,,,,,,,0,,,77,62
30080,note_on,80,0,3,,,,,,,,,2,,,51,0
30080,note_on,0,0,3,,,,,,,,,2,,,61,49
30080,note_on,80,0,1,,,,,,,,,0,,,67,0
30159,note_on,0,0,3,,,,,,,,,2,,,63,49
30159,note_on,0,0,1,,,,,,,,,0,,,75,62
30159,note_on,79,0,3,,,,,,,,,2,,,61,0
30159,note_on,79,0,1,,,,,,,,,0,,,77,0
30240,note_on,81,0,1,,,,,,,,,0,,,75,0
30240,note_on,0,0,3,,,,,,,,,2,,,53,62
30240,note_on,0,0,1,,,,,,,,,0,,,68,75
30240,note_on,81,0,3,,,,,,,,,2,,,63,0
30320,note_on,80,0,1,,,,,,,,,0,,,68,0
30320,note_on,0,0,1,,,,,,,,,0,,,77,75
30320,note_on,80,0,3,,,,,,,,,2,,,53,0
30320,note_on,0,0,3,,,,,,,,,2,,,61,62
30399,note_on,79,0,1,,,,,,,,,0,,,77,0
30399,note_on,0,0,1,,,,,,,,,0,,,75,75
30399,note_on,79,0,3,,,,,,,,,2,,,61,0
30399,note_on,0,0,3,,,,,,,,,2,,,63,62
30480,note_on,0,0,1,,,,,,,,,0,,,70,62
30480,note_on,81,0,1,,,,,,,,,0,,,75,0
30480,note_on,81,0,3,,,,,,,,,2,,,63,0
30480,note_on,0,0,3,,,,,,,,,2,,,55,49
30560,note_on,0,0,3,,,,,,,,,2,,,61,49
30560,note_on,80,0,1,,,,,,,,,0,,,70,0
30560,note_on,0,0,1,,,,,,,,,0,,,77,62
30560,note_on,80,0,3,,,,,,,,,2,,,55,0
30639,note_on,79,0,3,,,,,,,,,2,,,61,0
30639,note_on,0,0,1,,,,,,,,,0,,,75,62
30639,note_on,79,0,1,,,,,,,,,0,,,77,0
30639,note_on,0,0,3,,,,,,,,,2,,,63,49
30720,note_on,0,0,1,,,,,,,,,0,,,75,62
30720,note_on,720,0,2,,,,,,,,,1,,,68,64
30720,note_on,0,0,3,,,,,,,,,2,,,60,49
30720,note_on,81,0,3,,,,,,,,,2,,,63,0
30720,note_on,81,0,1,,,,,,,,,0,,,75,0
30800,note_on,0,0,2,,,,,,,,,1,,,67,64
30800,note_on,0,0,3,,,,,,,,,2,,,58,49
30800,note_on,80,0,3,,,,,,,,,2,,,60,0
30800,note_on,80,0,2,,,,,,,,,1,,,68,0
30879,note_on,79,0,2,,,,,,,,,1,,,67,0
30879,note_on,0,0,2,,,,,,,,,1,,,68,64
30879,note_on,79,0,3,,,,,,,,,2,,,58,0
30879,note_on,0,0,3,,,,,,,,,2,,,60,49
30960,note_on,0,0,3,,,,,,,,,2,,,61,49
30960,note_on,81,0,3,,,,,,,,,2,,,60,0
30960,note_on,0,0,2,,,,,,,,,1,,,70,64
30960,note_on,81,0,2,,,,,,,,,1,,,68,0
31040,note_on,0,0,3,,,,,,,,,2,,,60,49
31040,note_on,0,0,2,,,,,,,,,1,,,68,64
31040,note_on,80,0,3,,,,,,,,,2,,,61,0
31040,note_on,80,0,2,,,,,,,,,1,,,70,0
31119,note_on,79,0,3,,,,,,,,,2,,,60,0
31119,note_on,79,0,2,,,,,,,,,1,,,68,0
31119,note_on,0,0,3,,,,,,,,,2,,,61,49
31119,note_on,0,0,2,,,,,,,,,1,,,70,64
31200,note_on,0,0,3,,,,,,,,,2,,,63,49
31200,note_on,81,0,2,,,,,,,,,1,,,70,0
31200,note_on,81,0,3,,,,,,,,,2,,,61,0
31200,note_on,0,0,2,,,,,,,,,1,,,72,64
31200,note_on,1440,0,4,,,,,,,,,3,,,56,62
31280,note_on,0,0,2,,,,,,,,,1,,,70,64
31280,note_on,80,0,2,,,,,,,,,1,,,72,0
31280,note_on,80,0,3,,,,,,,,,2,,,63,0
31280,note_on,0,0,3,,,,,,,,,2,,,61,49
31359,note_on,0,0,2,,,,,,,,,1,,,72,64
31359,note_on,0,0,3,,,,,,,,,2,,,63,49
31359,note_on,79,0,3,,,,,,,,,2,,,61,0
31359,note_on,79,0,2,,,,,,,,,1,,,70,0
31440,note_on,0,0,3,,,,,,,,,2,,,65,49
31440,note_on,81,0,2,,,,,,,,,1,,,72,0
31440,note_on,81,0,3,,,,,,,,,2,,,63,0
31440,note_on,0,0,2,,,,,,,,,1,,,73,64
31520,note_on,80,0,3,,,,,,,,,2,,,65,0
31520,note_on,0,0,2,,,,,,,,,1,,,72,64
31520,note_on,80,0,2,,,,,,,,,1,,,73,0
31520,note_on,0,0,3,,,,,,,,,2,,,63,49
31599,note_on,0,0,3,,,,,,,,,2,,,65,49
31599,note_on,79,0,3,,,,,,,,,2,,,63,0
31599,note_on,0,0,2,,,,,,,,,1,,,73,64
31599,note_on,79,0,2,,,,,,,,,1,,,72,0
31680,note_on,480,0,4,,,,,,,,,3,,,56,0
31680,note_on,81,0,3,,,,,,,,,2,,,65,0
31680,note_on,81,0,2,,,,,,,,,1,,,73,0
31680,note_on,0,0,2,,,,,,,,,1,,,75,64
31680,note_on,960,0,1,,,,,,,,,0,,,70,62
31680,note_on,0,0,3,,,,,,,,,2,,,61,49
31680,note_on,0,0,2,,,,,,,,,1,,,70,64
31920,note_on,0,0,1,,,,,,,,,0,,,75,0
31920,note_on,0,0,1,,,,,,,,,0,,,67,62
31920,note_on,240,0,3,,,,,,,,,2,,,61,0
31920,note_on,0,0,2,,,,,,,,,1,,,70,0
31920,note_on,240,0,1,,,,,,,,,0,,,70,0
31920,note_on,240,0,2,,,,,,,,,1,,,75,0
31920,note_on,0,0,3,,,,,,,,,2,,,51,49
32000,note_on,0,0,3,,,,,,,,,2,,,61,49
32000,note_on,0,0,1,,,,,,,,,0,,,77,62
32000,note_on,80,0,3,,,,,,,,,2,,,51,0
32000,note_on,80,0,1,,,,,,,,,0,,,67,0
32079,note_on,79,0,3,,,,,,,,,2,,,61,0
32079,note_on,0,0,3,,,,,,,,,2,,,63,49
32079,note_on,0,0,1,,,,,,,,,0,,,75,62
32079,note_on,79,0,1,,,,,,,,,0,,,77,0
32160,note_on,81,0,1,,,,,,,,,0,,,75,0
32160,note_on,0,0,1,,,,,,,,,0,,,68,75
32160,note_on,0,0,3,,,,,,,,,2,,,53,62
32160,note_on,81,0,3,,,,,,,,,2,,,63,0
32240,note_on,80,0,1,,,,,,,,,0,,,68,0
32240,note_on,80,0,3,,,,,,,,,2,,,53,0
32240,note_on,0,0,1,,,,,,,,,0,,,77,75
32240,note_on,0,0,3,,,,,,,,,2,,,61,62
32319,note_on,79,0,1,,,,,,,,,0,,,77,0
32319,note_on,0,0,3,,,,,,,,,2,,,63,62
32319,note_on,79,0,3,,,,,,,,,2,,,61,0
32319,note_on,0,0,1,,,,,,,,,0,,,75,75
32400,note_on,81,0,3,,,,,,,,,2,,,63,0
32400,note_on,0,0,1,,,,,,,,,0,,,70,62
32400,note_on,81,0,1,,,,,,,,,0,,,75,0
32400,note_on,0,0,3,,,,,,,,,2,,,55,49
32480,note_on,0,0,1,,,,,,,,,0,,,77,62
32480,note_on,0,0,3,,,,,,,,,2,,,61,49
32480,note_on,80,0,1,,,,,,,,,0,,,70,0
32480,note_on,80,0,3,,,,,,,,,2,,,55,0
32559,note_on,0,0,1,,,,,,,,,0,,,75,62
32559,note_on,0,0,3,,,,,,,,,2,,,63,49
32559,note_on,79,0,1,,,,,,,,,0,,,77,0
32559,note_on,79,0,3,,,,,,,,,2,,,61,0
32640,note_on,81,0,1,,,,,,,,,0,,,75,0
32640,note_on,0,0,3,,,,,,,,,2,,,60,49
32640,note_on,0,0,1,,,,,,,,,0,,,72,62
32640,note_on,0,0,3,,,,,,,,,2,,,56,49
32640,note_on,81,0,3,,,,,,,,,2,,,63,0
32880,note_on,0,0,3,,,,,,,,,2,,,56,49
32880,note_on,0,0,3,,,,,,,,,2,,,56,0
32880,note_on,0,0,1,,,,,,,,,0,,,72,62
32880,note_on,240,0,1,,,,,,,,,0,,,72,0
32880,note_on,240,0,3,,,,,,,,,2,,,60,0
32960,note_on,80,0,1,,,,,,,,,0,,,72,0
32960,note_on,80,0,3,,,,,,,,,2,,,56,0
32960,note_on,0,0,3,,,,,,,,,2,,,66,49
32960,note_on,0,0,1,,,,,,,,,0,,,82,62
33039,note_on,79,0,3,,,,,,,,,2,,,66,0
33039,note_on,0,0,3,,,,,,,,,2,,,68,49
33039,note_on,0,0,1,,,,,,,,,0,,,80,62
33039,note_on,79,0,1,,,,,,,,,0,,,82,0
33120,note_on,81,0,3,,,,,,,,,2,,,68,0
33120,note_on,0,0,3,,,,,,,,,2,,,58,62
33120,note_on,0,0,1,,,,,,,,,0,,,73,75
33120,note_on,81,0,1,,,,,,,,,0,,,80,0
33200,note_on,0,0,1,,,,,,,,,0,,,82,75
33200,note_on,80,0,1,,,,,,,,,0,,,73,0
33200,note_on,0,0,3,,,,,,,,,2,,,66,62
33200,note_on,80,0,3,,,,,,,,,2,,,58,0
33279,note_on,79,0,1,,,,,,,,,0,,,82,0
33279,note_on,0,0,3,,,,,,,,,2,,,68,62
33279,note_on,0,0,1,,,,,,,,,0,,,80,75
33279,note_on,79,0,3,,,,,,,,,2,,,66,0
33360,note_on,0,0,1,,,,,,,,,0,,,75,62
33360,note_on,81,0,3,,,,,,,,,2,,,68,0
33360,note_on,81,0,1,,,,,,,,,0,,,80,0
33360,note_on,0,0,3,,,,,,,,,2,,,60,49
33440,note_on,0,0,1,,,,,,,,,0,,,82,62
33440,note_on,0,0,3,,,,,,,,,2,,,66,49
33440,note_on,80,0,1,,,,,,,,,0,,,75,0
33440,note_on,80,0,3,,,,,,,,,2,,,60,0
33519,note_on,0,0,1,,,,,,,,,0,,,80,62
33519,note_on,79,0,1,,,,,,,,,0,,,82,0
33519,note_on,0,0,3,,,,,,,,,2,,,68,49
33519,note_on,79,0,3,,,,,,,,,2,,,66,0
33600,note_on,81,0,1,,,,,,,,,0,,,80,0
33600,note_on,0,0,3,,,,,,,,,2,,,61,49
33600,note_on,0,0,3,,,,,,,,,2,,,65,49
33600,note_on,81,0,3,,,,,,,,,2,,,68,0
33600,note_on,0,0,1,,,,,,,,,0,,,77,62
33840,note_on,0,0,3,,,,,,,,,2,,,49,49
33840,note_on,0,0,3,,,,,,,,,2,,,61,0
33840,note_on,240,0,1,,,,,,,,,0,,,77,0
33840,note_on,240,0,3,,,,,,,,,2,,,65,0
33840,note_on,0,0,1,,,,,,,,,0,,,65,62
33920,note_on,0,0,3,,,,,,,,,2,,,59,49
33920,note_on,80,0,1,,,,,,,,,0,,,65,0
33920,note_on,0,0,1,,,,,,,,,0,,,75,62
33920,note_on,80,0,3,,,,,,,,,2,,,49,0
33999,note_on,0,0,1,,,,,,,,,0,,,73,62
33999,note_on,0,0,3,,,,,,,,,2,,,61,49
33999,note_on,79,0,3,,,,,,,,,2,,,59,0
33999,note_on,79,0,1,,,,,,,,,0,,,75,0
34080,note_on,0,0,3,,,,,,,,,2,,,51,62
34080,note_on,81,0,3,,,,,,,,,2,,,61,0
34080,note_on,81,0,1,,,,,,,,,0,,,73,0
34080,note_on,0,0,1,,,,,,,,,0,,,66,75
34160,note_on,0,0,1,,,,,,,,,0,,,75,75
34160,note_on,0,0,3,,,,,,,,,2,,,59,62
34160,note_on,80,0,1,,,,,,,,,0,,,66,0
34160,note_on,80,0,3,,,,,,,,,2,,,51,0
34239,note_on,0,0,3,,,,,,,,,2,,,61,62
34239,note_on,79,0,1,,,,,,,,,0,,,75,0
34239,note_on,0,0,1,,,,,,,,,0,,,73,75
34239,note_on,79,0,3,,,,,,,,,2,,,59,0
34320,note_on,81,0,1,,,,,,,,,0,,,73,0
34320,note_on,81,0,3,,,,,,,,,2,,,61,0
34320,note_on,0,0,1,,,,,,,,,0,,,68,62
34320,note_on,0,0,3,,,,,,,,,2,,,53,49
34400,note_on,80,0,3,,,,,,,,,2,,,53,0
34400,note_on,80,0,1,,,,,,,,,0,,,68,0
34400,note_on,0,0,3,,,,,,,,,2,,,59,49
34400,note_on,0,0,1,,,,,,,,,0,,,75,62
34479,note_on,0,0,3,,,,,,,,,2,,,61,49
34479,note_on,79,0,1,,,,,,,,,0,,,75,0
34479,note_on,79,0,3,,,,,,,,,2,,,59,0
34479,note_on,0,0,1,,,,,,,,,0,,,73,62
34560,note_on,81,0,1,,,,,,,,,0,,,73,0
34560,note_on,0,0,3,,,,,,,,,2,,,58,49
34560,note_on,0,0,1,,,,,,,,,0,,,73,62
34560,note_on,2640,0,2,,,,,,,,,1,,,66,64
34560,note_on,81,0,3,,,,,,,,,2,,,61,0
34640,note_on,0,0,2,,,,,,,,,1,,,65,64
34640,note_on,0,0,3,,,,,,,,,2,,,56,49
34640,note_on,80,0,2,,,,,,,,,1,,,66,0
34640,note_on,80,0,3,,,,,,,,,2,,,58,0
34719,note_on,79,0,3,,,,,,,,,2,,,56,0
34719,note_on,79,0,2,,,,,,,,,1,,,65,0
34719,note_on,0,0,3,,,,,,,,,2,,,58,49
34719,note_on,0,0,2,,,,,,,,,1,,,66,64
34800,note_on,0,0,3,,,,,,,,,2,,,59,49
34800,note_on,0,0,2,,,,,,,,,1,,,68,64
34800,note_on,81,0,2,,,,,,,,,1,,,66,0
34800,note_on,81,0,3,,,,,,,,,2,,,58,0
34880,note_on,0,0,2,,,,,,,,,1,,,66,64
34880,note_on,80,0,2,,,,,,,,,1,,,68,0
34880,note_on,0,0,3,,,,,,,,,2,,,58,49
34880,note_on,80,0,3,,,,,,,,,2,,,59,0
34959,note_on,79,0,3,,,,,,,,,2,,,58,0
34959,note_on,79,0,2,,,,,,,,,1,,,66,0
34959,note_on,0,0,3,,,,,,,,,2,,,59,49
34959,note_on,0,0,2,,,,,,,,,1,,,68,64
35040,note_on,0,0,2,,,,,,,,,1,,,70,64
35040,note_on,0,0,3,,,,,,,,,2,,,61,49
35040,note_on,81,0,2,,,,,,,,,1,,,68,0
35040,note_on,81,0,3,,,,,,,,,2,,,59,0
35040,note_on,3360,0,4,,,,,,,,,3,,,54,62
35120,note_on,80,0,2,,,,,,,,,1,,,70,0
35120,note_on,0,0,2,,,,,,,,,1,,,68,64
35120,note_on,0,0,3,,,,,,,,,2,,,59,49
35120,note_on,80,0,3,,,,,,,,,2,,,61,0
35199,note_on,0,0,3,,,,,,,,,2,,,61,49
35199,note_on,79,0,2,,,,,,,,,1,,,68,0
35199,note_on,79,0,3,,,,,,,,,2,,,59,0
35199,note_on,0,0,2,,,,,,,,,1,,,70,64
35280,note_on,0,0,3,,,,,,,,,2,,,63,49
35280,note_on,81,0,3,,,,,,,,,2,,,61,0
35280,note_on,81,0,2,,,,,,,,,1,,,70,0
35280,note_on,0,0,2,,,,,,,,,1,,,71,64
35360,note_on,80,0,3,,,,,,,,,2,,,63,0
35360,note_on,0,0,2,,,,,,,,,1,,,70,64
35360,note_on,80,0,2,,,,,,,,,1,,,71,0
35360,note_on,0,0,3,,,,,,,,,2,,,61,49
35439,note_on,79,0,2,,,,,,,,,1,,,70,0
35439,note_on,0,0,2,,,,,,,,,1,,,71,64
35439,note_on,79,0,3,,,,,,,,,2,,,61,0
35439,note_on,0,0,3,,,,,,,,,2,,,63,49
35520,note_on,0,0,3,,,,,,,,,2,,,59,49
35520,note_on,81,0,2,,,,,,,,,1,,,71,0
35520,note_on,0,0,2,,,,,,,,,1,,,68,64
35520,note_on,81,0,3,,,,,,,,,2,,,63,0
35520,note_on,960,0,1,,,,,,,,,0,,,68,62
35520,note_on,480,0,4,,,,,,,,,3,,,54,0
35760,note_on,240,0,1,,,,,,,,,0,,,68,0
35760,note_on,240,0,2,,,,,,,,,1,,,68,0
35760,note_on,0,0,3,,,,,,,,,2,,,49,49
35760,note_on,0,0,1,,,,,,,,,0,,,73,0
35760,note_on,0,0,1,,,,,,,,,0,,,65,62
35760,note_on,240,0,3,,,,,,,,,2,,,59,0
35840,note_on,0,0,3,,,,,,,,,2,,,59,49
35840,note_on,0,0,1,,,,,,,,,0,,,75,62
35840,note_on,80,0,1,,,,,,,,,0,,,65,0
35840,note_on,80,0,3,,,,,,,,,2,,,49,0
35919,note_on,0,0,3,,,,,,,,,2,,,61,49
35919,note_on,79,0,1,,,,,,,,,0,,,75,0
35919,note_on,0,0,1,,,,,,,,,0,,,73,62
35919,note_on,79,0,3,,,,,,,,,2,,,59,0
36000,note_on,0,0,3,,,,,,,,,2,,,51,62
36000,note_on,0,0,1,,,,,,,,,0,,,66,75
36000,note_on,81,0,1,,,,,,,,,0,,,73,0
36000,note_on,81,0,3,,,,,,,,,2,,,61,0
36080,note_on,80,0,3,,,,,,,,,2,,,51,0
36080,note_on,0,0,3,,,,,,,,,2,,,59,62
36080,note_on,0,0,1,,,,,,,,,0,,,75,75
36080,note_on,80,0,1,,,,,,,,,0,,,66,0
36159,note_on,79,0,1,,,,,,,,,0,,,75,0
36159,note_on,0,0,3,,,,,,,,,2,,,61,62
36159,note_on,0,0,1,,,,,,,,,0,,,73,75
36159,note_on,79,0,3,,,,,,,,,2,,,59,0
36240,note_on,81,0,3,,,,,,,,,2,,,61,0
36240,note_on,81,0,1,,,,,,,,,0,,,73,0
36240,note_on,0,0,1,,,,,,,,,0,,,68,62
36240,note_on,0,0,3,,,,,,,,,2,,,53,49
36320,note_on,80,0,3,,,,,,,,,2,,,53,0
36320,note_on,0,0,1,,,,,,,,,0,,,75,62
36320,note_on,0,0,3,,,,,,,,,2,,,59,49
36320,note_on,80,0,1,,,,,,,,,0,,,68,0
36399,note_on,79,0,3,,,,,,,,,2,,,59,0
36399,note_on,0,0,1,,,,,,,,,0,,,73,62
36399,note_on,79,0,1,,,,,,,,,0,,,75,0
36399,note_on,0,0,3,,,,,,,,,2,,,61,49
36480,note_on,720,0,2,,,,,,,,,1,,,66,64
36480,note_on,0,0,1,,,,,,,,,0,,,73,62
36480,note_on,81,0,1,,,,,,,,,0,,,73,0
36480,note_on,81,0,3,,,,,,,,,2,,,61,0
36480,note_on,0,0,3,,,,,,,,,2,,,58,49
36560,note_on,80,0,2,,,,,,,,,1,,,66,0
36560,note_on,0,0,3,,,,,,,,,2,,,56,49
36560,note_on,0,0,2,,,,,,,,,1,,,65,64
36560,note_on,80,0,3,,,,,,,,,2,,,58,0
36639,note_on,0,0,3,,,,,,,,,2,,,58,49
36639,note_on,79,0,2,,,,,,,,,1,,,65,0
36639,note_on,0,0,2,,,,,,,,,1,,,66,64
36639,note_on,79,0,3,,,,,,,,,2,,,56,0
36720,note_on,0,0,3,,,,,,,,,2,,,59,49
36720,note_on,81,0,3,,,,,,,,,2,,,58,0
36720,note_on,81,0,2,,,,,,,,,1,,,66,0
36720,note_on,0,0,2,,,,,,,,,1,,,68,64
36800,note_on,0,0,3,,,,,,,,,2,,,58,49
36800,note_on,80,0,2,,,,,,,,,1,,,68,0
36800,note_on,80,0,3,,,,,,,,,2,,,59,0
36800,note_on,0,0,2,,,,,,,,,1,,,66,64
36879,note_on,79,0,2,,,,,,,,,1,,,66,0
36879,note_on,79,0,3,,,,,,,,,2,,,58,0
36879,note_on,0,0,2,,,,,,,,,1,,,68,64
36879,note_on,0,0,3,,,,,,,,,2,,,59,49
36960,note_on,81,0,2,,,,,,,,,1,,,68,0
36960,note_on,1440,0,4,,,,,,,,,3,,,54,62
36960,note_on,0,0,2,,,,,,,,,1,,,70,64
36960,note_on,0,0,3,,,,,,,,,2,,,61,49
36960,note_on,81,0,3,,,,,,,,,2,,,59,0
37040,note_on,0,0,2,,,,,,,,,1,,,68,64
37040,note_on,80,0,2,,,,,,,,,1,,,70,0
37040,note_on,0,0,3,,,,,,,,,2,,,59,49
37040,note_on,80,0,3,,,,,,,,,2,,,61,0
37119,note_on,79,0,3,,,,,,,,,2,,,59,0
37119,note_on,79,0,2,,,,,,,,,1,,,68,0
37119,note_on,0,0,3,,,,,,,,,2,,,61,49
37119,note_on,0,0,2,,,,,,,,,1,,,70,64
37200,note_on,81,0,3,,,,,,,,,2,,,61,0
37200,note_on,81,0,2,,,,,,,,,1,,,70,0
37200,note_on,0,0,2,,,,,,,,,1,,,71,64
37200,note_on,0,0,3,,,,,,,,,2,,,63,49
37280,note_on,0,0,2,,,,,,,,,1,,,70,64
37280,note_on,0,0,3,,,,,,,,,2,,,61,49
37280,note_on,80,0,3,,,,,,,,,2,,,63,0
37280,note_on,80,0,2,,,,,,,,,1,,,71,0
37359,note_on,0,0,3,,,,,,,,,2,,,63,49
37359,note_on,79,0,2,,,,,,,,,1,,,70,0
37359,note_on,79,0,3,,,,,,,,,2,,,61,0
37359,note_on,0,0,2,,,,,,,,,1,,,71,64
37440,note_on,480,0,4,,,,,,,,,3,,,54,0
37440,note_on,81,0,2,,,,,,,,,1,,,71,0
37440,note_on,81,0,3,,,,,,,,,2,,,63,0
37440,note_on,960,0,1,,,,,,,,,0,,,68,62
37440,note_on,0,0,3,,,,,,,,,2,,,59,49
37440,note_on,0,0,2,,,,,,,,,1,,,68,64
37680,note_on,240,0,1,,,,,,,,,0,,,68,0
37680,note_on,0,0,3,,,,,,,,,2,,,49,49
37680,note_on,240,0,2,,,,,,,,,1,,,68,0
37680,note_on,0,0,1,,,,,,,,,0,,,65,62
37680,note_on,0,0,1,,,,,,,,,0,,,73,0
37680,note_on,240,0,3,,,,,,,,,2,,,59,0
37760,note_on,0,0,3,,,,,,,,,2,,,59,49
37760,note_on,80,0,1,,,,,,,,,0,,,65,0
37760,note_on,80,0,3,,,,,,,,,2,,,49,0
37760,note_on,0,0,1,,,,,,,,,0,,,75,62
37839,note_on,79,0,3,,,,,,,,,2,,,59,0
37839,note_on,79,0,1,,,,,,,,,0,,,75,0
37839,note_on,0,0,1,,,,,,,,,0,,,73,62
37839,note_on,0,0,3,,,,,,,,,2,,,61,49
37920,note_on,0,0,1,,,,,,,,,0,,,66,75
37920,note_on,0,0,3,,,,,,,,,2,,,51,62
37920,note_on,81,0,3,,,,,,,,,2,,,61,0
37920,note_on,81,0,1,,,,,,,,,0,,,73,0
38000,note_on,80,0,1,,,,,,,,,0,,,66,0
38000,note_on,0,0,1,,,,,,,,,0,,,75,75
38000,note_on,80,0,3,,,,,,,,,2,,,51,0
38000,note_on,0,0,3,,,,,,,,,2,,,59,62
38079,note_on,79,0,3,,,,,,,,,2,,,59,0
38079,note_on,79,0,1,,,,,,,,,0,,,75,0
38079,note_on,0,0,1,,,,,,,,,0,,,73,75
38079,note_on,0,0,3,,,,,,,,,2,,,61,62
38160,note_on,0,0,1,,,,,,,,,0,,,68,62
38160,note_on,0,0,3,,,,,,,,,2,,,53,49
38160,note_on,81,0,1,,,,,,,,,0,,,73,0
38160,note_on,81,0,3,,,,,,,,,2,,,61,0
38240,note_on,80,0,3,,,,,,,,,2,,,53,0
38240,note_on,0,0,1,,,,,,,,,0,,,75,62
38240,note_on,80,0,1,,,,,,,,,0,,,68,0
38240,note_on,0,0,3,,,,,,,,,2,,,59,49
38319,note_on,79,0,3,,,,,,,,,2,,,59,0
38319,note_on,79,0,1,,,,,,,,,0,,,75,0
38319,note_on,0,0,3,,,,,,,,,2,,,61,49
38319,note_on,0,0,1,,,,,,,,,0,,,73,62
38400,note_on,720,0,2,,,,,,,,,1,,,66,64
38400,note_on,81,0,1,,,,,,,,,0,,,73,0
38400,note_on,0,0,3,,,,,,,,,2,,,58,49
38400,note_on,0,0,1,,,,,,,,,0,,,73,62
38400,note_on,81,0,3,,,,,,,,,2,,,61,0
38480,note_on,0,0,3,,,,,,,,,2,,,56,49
38480,note_on,0,0,2,,,,,,,,,1,,,65,64
38480,note_on,80,0,2,,,,,,,,,1,,,66,0
38480,note_on,80,0,3,,,,,,,,,2,,,58,0
38559,note_on,79,0,2,,,,,,,,,1,,,65,0
38559,note_on,79,0,3,,,,,,,,,2,,,56,0
38559,note_on,0,0,3,,,,,,,,,2,,,58,49
38559,note_on,0,0,2,,,,,,,,,1,,,66,64
38640,note_on,81,0,2,,,,,,,,,1,,,66,0
38640,note_on,0,0,3,,,,,,,,,2,,,59,62
38640,note_on,81,0,3,,,,,,,,,2,,,58,0
38640,note_on,0,0,2,,,,,,,,,1,,,68,75
38720,note_on,80,0,2,,,,,,,,,1,,,68,0
38720,note_on,0,0,2,,,,,,,,,1,,,66,75
38720,note_on,0,0,3,,,,,,,,,2,,,58,62
38720,note_on,80,0,3,,,,,,,,,2,,,59,0
38799,note_on,79,0,3,,,,,,,,,2,,,58,0
38799,note_on,79,0,2,,,,,,,,,1,,,66,0
38799,note_on,0,0,3,,,,,,,,,2,,,59,62
38799,note_on,0,0,2,,,,,,,,,1,,,68,75
38880,note_on,1440,0,4,,,,,,,,,3,,,54,75
38880,note_on,81,0,3,,,,,,,,,2,,,59,0
38880,note_on,81,0,2,,,,,,,,,1,,,68,0
38880,note_on,0,0,3,,,,,,,,,2,,,61,62
38880,note_on,0,0,2,,,,,,,,,1,,,70,75
38960,note_on,0,0,3,,,,,,,,,2,,,59,62
38960,note_on,80,0,3,,,,,,,,,2,,,61,0
38960,note_on,80,0,2,,,,,,,,,1,,,70,0
38960,note_on,0,0,2,,,,,,,,,1,,,68,75
39039,note_on,79,0,3,,,,,,,,,2,,,59,0
39039,note_on,0,0,3,,,,,,,,,2,,,61,62
39039,note_on,0,0,2,,,,,,,,,1,,,70,75
39039,note_on,79,0,2,,,,,,,,,1,,,68,0
39120,note_on,81,0,2,,,,,,,,,1,,,70,0
39120,note_on,81,0,3,,,,,,,,,2,,,61,0
39120,note_on,0,0,3,,,,,,,,,2,,,58,62
39120,note_on,0,0,2,,,,,,,,,1,,,66,75
39200,note_on,80,0,3,,,,,,,,,2,,,58,0
39200,note_on,80,0,2,,,,,,,,,1,,,66,0
39200,note_on,0,0,2,,,,,,,,,1,,,68,75
39200,note_on,0,0,3,,,,,,,,,2,,,59,62
39279,note_on,79,0,2,,,,,,,,,1,,,68,0
39279,note_on,0,0,3,,,,,,,,,2,,,61,62
39279,note_on,0,0,2,,,,,,,,,1,,,70,75
39279,note_on,79,0,3,,,,,,,,,2,,,59,0
39360,note_on,0,0,1,,,,,,,,,0,,,75,75
39360,note_on,0,0,2,,,,,,,,,1,,,67,75
39360,note_on,81,0,3,,,,,,,,,2,,,61,0
39360,note_on,960,0,1,,,,,,,,,0,,,73,0
39360,note_on,480,0,4,,,,,,,,,3,,,54,0
39360,note_on,0,0,3,,,,,,,,,2,,,58,62
39360,note_on,81,0,2,,,,,,,,,1,,,70,0
39440,note_on,80,0,3,,,,,,,,,2,,,58,0
39440,note_on,0,0,3,,,,,,,,,2,,,56,62
39440,note_on,80,0,2,,,,,,,,,1,,,67,0
39440,note_on,0,0,2,,,,,,,,,1,,,65,75
39519,note_on,0,0,2,,,,,,,,,1,,,67,75
39519,note_on,0,0,3,,,,,,,,,2,,,58,62
39519,note_on,79,0,3,,,,,,,,,2,,,56,0
39519,note_on,79,0,2,,,,,,,,,1,,,65,0
39600,note_on,81,0,2,,,,,,,,,1,,,67,0
39600,note_on,81,0,3,,,,,,,,,2,,,58,0
39600,note_on,0,0,3,,,,,,,,,2,,,59,62
39600,note_on,0,0,2,,,,,,,,,1,,,68,75
39680,note_on,80,0,3,,,,,,,,,2,,,59,0
39680,note_on,80,0,2,,,,,,,,,1,,,68,0
39680,note_on,0,0,3,,,,,,,,,2,,,58,62
39680,note_on,0,0,2,,,,,,,,,1,,,67,75
39759,note_on,79,0,2,,,,,,,,,1,,,67,0
39759,note_on,0,0,2,,,,,,,,,1,,,68,75
39759,note_on,79,0,3,,,,,,,,,2,,,58,0
39759,note_on,0,0,3,,,,,,,,,2,,,59,62
39840,note_on,480,0,4,,,,,,,,,3,,,51,62
39840,note_on,0,0,2,,,,,,,,,1,,,70,62
39840,note_on,81,0,3,,,,,,,,,2,,,59,0
39840,note_on,81,0,2,,,,,,,,,1,,,68,0
39840,note_on,0,0,3,,,,,,,,,2,,,61,49
39920,note_on,0,0,3,,,,,,,,,2,,,59,49
39920,note_on,80,0,3,,,,,,,,,2,,,61,0
39920,note_on,0,0,2,,,,,,,,,1,,,68,62
39920,note_on,80,0,2,,,,,,,,,1,,,70,0
39999,note_on,0,0,3,,,,,,,,,2,,,61,49
39999,note_on,0,0,2,,,,,,,,,1,,,70,62
39999,note_on,79,0,3,,,,,,,,,2,,,59,0
39999,note_on,79,0,2,,,,,,,,,1,,,68,0
40080,note_on,0,0,3,,,,,,,,,2,,,58,49
40080,note_on,81,0,3,,,,,,,,,2,,,61,0
40080,note_on,0,0,2,,,,,,,,,1,,,67,62
40080,note_on,81,0,2,,,,,,,,,1,,,70,0
40160,note_on,80,0,2,,,,,,,,,1,,,67,0
40160,note_on,0,0,3,,,,,,,,,2,,,56,49
40160,note_on,80,0,3,,,,,,,,,2,,,58,0
40160,note_on,0,0,2,,,,,,,,,1,,,65,62
40239,note_on,79,0,2,,,,,,,,,1,,,65,0
40239,note_on,0,0,3,,,,,,,,,2,,,58,49
40239,note_on,0,0,2,,,,,,,,,1,,,67,62
40239,note_on,79,0,3,,,,,,,,,2,,,56,0
40320,note_on,81,0,2,,,,,,,,,1,,,67,0
40320,note_on,81,0,3,,,,,,,,,2,,,58,0
40320,note_on,0,0,1,,,,,,,,,0,,,75,62
40320,note_on,0,0,2,,,,,,,,,1,,,68,62
40320,note_on,480,0,4,,,,,,,,,3,,,51,0
40320,note_on,960,0,1,,,,,,,,,0,,,75,0
40320,note_on,0,0,3,,,,,,,,,2,,,59,49
40400,note_on,0,0,2,,,,,,,,,1,,,67,62
40400,note_on,0,0,3,,,,,,,,,2,,,58,49
40400,note_on,80,0,3,,,,,,,,,2,,,59,0
40400,note_on,80,0,2,,,,,,,,,1,,,68,0
40479,note_on,79,0,3,,,,,,,,,2,,,58,0
40479,note_on,0,0,2,,,,,,,,,1,,,68,62
40479,note_on,79,0,2,,,,,,,,,1,,,67,0
40479,note_on,0,0,3,,,,,,,,,2,,,59,49
40560,note_on,81,0,2,,,,,,,,,1,,,68,0
40560,note_on,0,0,3,,,,,,,,,2,,,61,49
40560,note_on,81,0,3,,,,,,,,,2,,,59,0
40560,note_on,0,0,2,,,,,,,,,1,,,70,62
40640,note_on,80,0,2,,,,,,,,,1,,,70,0
40640,note_on,0,0,3,,,,,,,,,2,,,59,49
40640,note_on,0,0,2,,,,,,,,,1,,,68,62
40640,note_on,80,0,3,,,,,,,,,2,,,61,0
40719,note_on,0,0,2,,,,,,,,,1,,,70,62
40719,note_on,0,0,3,,,,,,,,,2,,,61,49
40719,note_on,79,0,2,,,,,,,,,1,,,68,0
40719,note_on,79,0,3,,,,,,,,,2,,,59,0
40800,note_on,0,0,3,,,,,,,,,2,,,63,62
40800,note_on,81,0,3,,,,,,,,,2,,,61,0
40800,note_on,0,0,2,,,,,,,,,1,,,71,75
40800,note_on,81,0,2,,,,,,,,,1,,,70,0
40800,note_on,480,0,4,,,,,,,,,3,,,56,75
40880,note_on,80,0,2,,,,,,,,,1,,,71,0
40880,note_on,80,0,3,,,,,,,,,2,,,63,0
40880,note_on,0,0,3,,,,,,,,,2,,,61,62
40880,note_on,0,0,2,,,,,,,,,1,,,70,75
40959,note_on,0,0,2,,,,,,,,,1,,,71,75
40959,note_on,0,0,3,,,,,,,,,2,,,63,62
40959,note_on,79,0,2,,,,,,,,,1,,,70,0
40959,note_on,79,0,3,,,,,,,,,2,,,61,0
41040,note_on,0,0,2,,,,,,,,,1,,,68,75
41040,note_on,81,0,3,,,,,,,,,2,,,63,0
41040,note_on,0,0,3,,,,,,,,,2,,,59,62
41040,note_on,81,0,2,,,,,,,,,1,,,71,0
41120,note_on,0,0,2,,,,,,,,,1,,,67,75
41120,note_on,0,0,3,,,,,,,,,2,,,58,62
41120,note_on,80,0,3,,,,,,,,,2,,,59,0
41120,note_on,80,0,2,,,,,,,,,1,,,68,0
41199,note_on,79,0,2,,,,,,,,,1,,,67,0
41199,note_on,79,0,3,,,,,,,,,2,,,58,0
41199,note_on,0,0,2,,,,,,,,,1,,,68,75
41199,note_on,0,0,3,,,,,,,,,2,,,59,62
41280,note_on,480,0,4,,,,,,,,,3,,,56,0
41280,note_on,81,0,2,,,,,,,,,1,,,68,0
41280,note_on,0,0,2,,,,,,,,,1,,,69,75
41280,note_on,960,0,1,,,,,,,,,0,,,75,0
41280,note_on,81,0,3,,,,,,,,,2,,,59,0
41280,note_on,0,0,3,,,,,,,,,2,,,60,62
41280,note_on,0,0,1,,,,,,,,,0,,,77,62
41360,note_on,80,0,3,,,,,,,,,2,,,60,0
41360,note_on,0,0,3,,,,,,,,,2,,,58,62
41360,note_on,0,0,2,,,,,,,,,1,,,67,75
41360,note_on,80,0,2,,,,,,,,,1,,,69,0
41439,note_on,0,0,3,,,,,,,,,2,,,60,62
41439,note_on,79,0,3,,,,,,,,,2,,,58,0
41439,note_on,79,0,2,,,,,,,,,1,,,67,0
41439,note_on,0,0,2,,,,,,,,,1,,,69,75
41520,note_on,81,0,3,,,,,,,,,2,,,60,0
41520,note_on,0,0,2,,,,,,,,,1,,,70,75
41520,note_on,81,0,2,,,,,,,,,1,,,69,0
41520,note_on,0,0,3,,,,,,,,,2,,,61,62
41600,note_on,0,0,3,,,,,,,,,2,,,60,62
41600,note_on,80,0,3,,,,,,,,,2,,,61,0
41600,note_on,0,0,2,,,,,,,,,1,,,69,75
41600,note_on,80,0,2,,,,,,,,,1,,,70,0
41679,note_on,79,0,2,,,,,,,,,1,,,69,0
41679,note_on,79,0,3,,,,,,,,,2,,,60,0
41679,note_on,0,0,2,,,,,,,,,1,,,70,75
41679,note_on,0,0,3,,,,,,,,,2,,,61,62
41760,note_on,81,0,3,,,,,,,,,2,,,61,0
41760,note_on,480,0,4,,,,,,,,,3,,,53,75
41760,note_on,81,0,2,,,,,,,,,1,,,70,0
41760,note_on,0,0,2,,,,,,,,,1,,,72,75
41760,note_on,0,0,3,,,,,,,,,2,,,63,62
41840,note_on,80,0,3,,,,,,,,,2,,,63,0
41840,note_on,80,0,2,,,,,,,,,1,,,72,0
41840,note_on,0,0,2,,,,,,,,,1,,,70,75
41840,note_on,0,0,3,,,,,,,,,2,,,61,62
41919,note_on,0,0,3,,,,,,,,,2,,,63,62
41919,note_on,79,0,3,,,,,,,,,2,,,61,0
41919,note_on,0,0,2,,,,,,,,,1,,,72,75
41919,note_on,79,0,2,,,,,,,,,1,,,70,0
42000,note_on,0,0,3,,,,,,,,,2,,,60,62
42000,note_on,81,0,2,,,,,,,,,1,,,72,0
42000,note_on,0,0,2,,,,,,,,,1,,,69,75
42000,note_on,81,0,3,,,,,,,,,2,,,63,0
42080,note_on,80,0,3,,,,,,,,,2,,,60,0
42080,note_on,0,0,2,,,,,,,,,1,,,67,75
42080,note_on,80,0,2,,,,,,,,,1,,,69,0
42080,note_on,0,0,3,,,,,,,,,2,,,58,62
42159,note_on,0,0,3,,,,,,,,,2,,,60,62
42159,note_on,79,0,2,,,,,,,,,1,,,67,0
42159,note_on,79,0,3,,,,,,,,,2,,,58,0
42159,note_on,0,0,2,,,,,,,,,1,,,69,75
42240,note_on,480,0,4,,,,,,,,,3,,,53,0
42240,note_on,0,0,1,,,,,,,,,0,,,77,88
42240,note_on,960,0,1,,,,,,,,,0,,,77,0
42240,note_on,81,0,2,,,,,,,,,1,,,69,0
42240,note_on,0,0,2,,,,,,,,,1,,,70,88
42240,note_on,81,0,3,,,,,,,,,2,,,60,0
42240,note_on,0,0,3,,,,,,,,,2,,,61,75
42320,note_on,80,0,2,,,,,,,,,1,,,70,0
42320,note_on,80,0,3,,,,,,,,,2,,,61,0
42320,note_on,0,0,3,,,,,,,,,2,,,60,75
42320,note_on,0,0,2,,,,,,,,,1,,,69,88
42399,note_on,79,0,3,,,,,,,,,2,,,60,0
42399,note_on,79,0,2,,,,,,,,,1,,,69,0
42399,note_on,0,0,2,,,,,,,,,1,,,70,88
42399,note_on,0,0,3,,,,,,,,,2,,,61,75
42480,note_on,0,0,2,,,,,,,,,1,,,72,88
42480,note_on,81,0,3,,,,,,,,,2,,,61,0
42480,note_on,81,0,2,,,,,,,,,1,,,70,0
42480,note_on,0,0,3,,,,,,,,,2,,,63,75
42560,note_on,0,0,3,,,,,,,,,2,,,61,75
42560,note_on,80,0,2,,,,,,,,,1,,,72,0
42560,note_on,80,0,3,,,,,,,,,2,,,63,0
42560,note_on,0,0,2,,,,,,,,,1,,,70,88
42639,note_on,79,0,2,,,,,,,,,1,,,70,0
42639,note_on,0,0,3,,,,,,,,,2,,,63,75
42639,note_on,79,0,3,,,,,,,,,2,,,61,0
42639,note_on,0,0,2,,,,,,,,,1,,,72,88
42720,note_on,81,0,3,,,,,,,,,2,,,63,0
42720,note_on,480,0,4,,,,,,,,,3,,,58,88
42720,note_on,81,0,2,,,,,,,,,1,,,72,0
42720,note_on,0,0,3,,,,,,,,,2,,,65,75
42720,note_on,0,0,2,,,,,,,,,1,,,73,88
42800,note_on,80,0,3,,,,,,,,,2,,,65,0
42800,note_on,0,0,3,,,,,,,,,2,,,63,75
42800,note_on,0,0,2,,,,,,,,,1,,,72,88
42800,note_on,80,0,2,,,,,,,,,1,,,73,0
42879,note_on,0,0,3,,,,,,,,,2,,,65,75
42879,note_on,79,0,2,,,,,,,,,1,,,72,0
42879,note_on,79,0,3,,,,,,,,,2,,,63,0
42879,note_on,0,0,2,,,,,,,,,1,,,73,88
42960,note_on,0,0,2,,,,,,,,,1,,,75,88
42960,note_on,81,0,3,,,,,,,,,2,,,65,0
42960,note_on,81,0,2,,,,,,,,,1,,,73,0
42960,note_on,0,0,3,,,,,,,,,2,,,66,75
43040,note_on,80,0,3,,,,,,,,,2,,,66,0
43040,note_on,0,0,3,,,,,,,,,2,,,65,75
43040,note_on,80,0,2,,,,,,,,,1,,,75,0
43040,note_on,0,0,2,,,,,,,,,1,,,73,88
43119,note_on,0,0,2,,,,,,,,,1,,,75,88
43119,note_on,79,0,2,,,,,,,,,1,,,73,0
43119,note_on,0,0,3,,,,,,,,,2,,,66,75
43119,note_on,79,0,3,,,,,,,,,2,,,65,0
43200,note_on,0,0,2,,,,,,,,,1,,,72,88
43200,note_on,81,0,2,,,,,,,,,1,,,75,0
43200,note_on,81,0,3,,,,,,,,,2,,,66,0
43200,note_on,0,0,3,,,,,,,,,2,,,63,75
43200,note_on,480,0,4,,,,,,,,,3,,,58,0
43200,note_on,960,0,1,,,,,,,,,0,,,72,88
43440,note_on,0,0,1,,,,,,,,,0,,,77,0
43440,note_on,240,0,3,,,,,,,,,2,,,63,0
43440,note_on,240,0,2,,,,,,,,,1,,,72,0
43440,note_on,0,0,1,,,,,,,,,0,,,69,75
43440,note_on,240,0,1,,,,,,,,,0,,,72,0
43440,note_on,0,0,3,,,,,,,,,2,,,53,62
43520,note_on,80,0,3,,,,,,,,,2,,,53,0
43520,note_on,0,0,3,,,,,,,,,2,,,63,62
43520,note_on,80,0,1,,,,,,,,,0,,,69,0
43520,note_on,0,0,1,,,,,,,,,0,,,78,75
43599,note_on,0,0,1,,,,,,,,,0,,,77,75
43599,note_on,79,0,3,,,,,,,,,2,,,63,0
43599,note_on,79,0,1,,,,,,,,,0,,,78,0
43599,note_on,0,0,3,,,,,,,,,2,,,65,62
43680,note_on,81,0,1,,,,,,,,,0,,,77,0
43680,note_on,0,0,1,,,,,,,,,0,,,70,88
43680,note_on,81,0,3,,,,,,,,,2,,,65,0
43680,note_on,0,0,3,,,,,,,,,2,,,55,75
43760,note_on,80,0,3,,,,,,,,,2,,,55,0
43760,note_on,0,0,1,,,,,,,,,0,,,78,88
43760,note_on,80,0,1,,,,,,,,,0,,,70,0
43760,note_on,0,0,3,,,,,,,,,2,,,63,75
43839,note_on,79,0,1,,,,,,,,,0,,,78,0
43839,note_on,0,0,3,,,,,,,,,2,,,65,75
43839,note_on,79,0,3,,,,,,,,,2,,,63,0
43839,note_on,0,0,1,,,,,,,,,0,,,77,88
43920,note_on,0,0,3,,,,,,,,,2,,,57,75
43920,note_on,81,0,3,,,,,,,,,2,,,65,0
43920,note_on,0,0,1,,,,,,,,,0,,,72,88
43920,note_on,81,0,1,,,,,,,,,0,,,77,0
44000,note_on,80,0,1,,,,,,,,,0,,,72,0
44000,note_on,80,0,3,,,,,,,,,2,,,57,0
44000,note_on,0,0,1,,,,,,,,,0,,,78,88
44000,note_on,0,0,3,,,,,,,,,2,,,63,75
44079,note_on,79,0,1,,,,,,,,,0,,,78,0
44079,note_on,0,0,1,,,,,,,,,0,,,77,88
44079,note_on,79,0,3,,,,,,,,,2,,,63,0
44079,note_on,0,0,3,,,,,,,,,2,,,65,75
44160,note_on,0,0,1,,,,,,,,,0,,,77,88
44160,note_on,720,0,2,,,,,,,,,1,,,70,88
44160,note_on,960,0,4,,,,,,,,,3,,,58,88
44160,note_on,0,0,3,,,,,,,,,2,,,61,75
44160,note_on,81,0,1,,,,,,,,,0,,,77,0
44160,note_on,81,0,3,,,,,,,,,2,,,65,0
44240,note_on,80,0,3,,,,,,,,,2,,,61,0
44240,note_on,0,0,3,,,,,,,,,2,,,60,75
44240,note_on,0,0,2,,,,,,,,,1,,,69,88
44240,note_on,80,0,2,,,,,,,,,1,,,70,0
44319,note_on,79,0,3,,,,,,,,,2,,,60,0
44319,note_on,0,0,2,,,,,,,,,1,,,70,88
44319,note_on,79,0,2,,,,,,,,,1,,,69,0
44319,note_on,0,0,3,,,,,,,,,2,,,61,75
44400,note_on,81,0,3,,,,,,,,,2,,,61,0
44400,note_on,81,0,2,,,,,,,,,1,,,70,0
44400,note_on,0,0,3,,,,,,,,,2,,,63,75
44400,note_on,0,0,2,,,,,,,,,1,,,72,88
44480,note_on,80,0,2,,,,,,,,,1,,,72,0
44480,note_on,0,0,2,,,,,,,,,1,,,70,88
44480,note_on,0,0,3,,,,,,,,,2,,,61,75
44480,note_on,80,0,3,,,,,,,,,2,,,63,0
44559,note_on,79,0,2,,,,,,,,,1,,,70,0
44559,note_on,79,0,3,,,,,,,,,2,,,61,0
44559,note_on,0,0,3,,,,,,,,,2,,,63,75
44559,note_on,0,0,2,,,,,,,,,1,,,72,88
44640,note_on,81,0,2,,,,,,,,,1,,,72,0
44640,note_on,0,0,2,,,,,,,,,1,,,73,88
44640,note_on,0,0,3,,,,,,,,,2,,,65,75
44640,note_on,81,0,3,,,,,,,,,2,,,63,0
44720,note_on,80,0,3,,,,,,,,,2,,,65,0
44720,note_on,80,0,2,,,,,,,,,1,,,73,0
44720,note_on,0,0,2,,,,,,,,,1,,,72,88
44720,note_on,0,0,3,,,,,,,,,2,,,63,75
44799,note_on,79,0,3,,,,,,,,,2,,,63,0
44799,note_on,79,0,2,,,,,,,,,1,,,72,0
44799,note_on,0,0,3,,,,,,,,,2,,,65,75
44799,note_on,0,0,2,,,,,,,,,1,,,73,88
44880,note_on,0,0,3,,,,,,,,,2,,,66,75
44880,note_on,81,0,3,,,,,,,,,2,,,65,0
44880,note_on,81,0,2,,,,,,,,,1,,,73,0
44880,note_on,0,0,2,,,,,,,,,1,,,75,88
44960,note_on,80,0,2,,,,,,,,,1,,,75,0
44960,note_on,80,0,3,,,,,,,,,2,,,66,0
44960,note_on,0,0,2,,,,,,,,,1,,,73,88
44960,note_on,0,0,3,,,,,,,,,2,,,65,75
45039,note_on,0,0,3,,,,,,,,,2,,,66,75
45039,note_on,0,0,2,,,,,,,,,1,,,75,88
45039,note_on,79,0,2,,,,,,,,,1,,,73,0
45039,note_on,79,0,3,,,,,,,,,2,,,65,0
45120,note_on,0,0,3,,,,,,,,,2,,,63,75
45120,note_on,81,0,2,,,,,,,,,1,,,75,0
45120,note_on,960,0,1,,,,,,,,,0,,,72,88
45120,note_on,0,0,2,,,,,,,,,1,,,72,88
45120,end_of_track,0,1,4,,,,,,,,,,,,,
45120,note_on,81,0,3,,,,,,,,,2,,,66,0
45120,note_on,960,0,4,,,,,,,,,3,,,58,0
45360,note_on,0,0,1,,,,,,,,,0,,,77,0
45360,note_on,240,0,1,,,,,,,,,0,,,72,0
45360,note_on,240,0,3,,,,,,,,,2,,,63,0
45360,note_on,240,0,2,,,,,,,,,1,,,72,0
45360,note_on,0,0,3,,,,,,,,,2,,,53,62
45360,note_on,0,0,1,,,,,,,,,0,,,69,75
45440,note_on,0,0,1,,,,,,,,,0,,,78,75
45440,note_on,0,0,3,,,,,,,,,2,,,63,62
45440,note_on,80,0,3,,,,,,,,,2,,,53,0
45440,note_on,80,0,1,,,,,,,,,0,,,69,0
45519,note_on,79,0,1,,,,,,,,,0,,,78,0
45519,note_on,0,0,1,,,,,,,,,0,,,77,75
45519,note_on,0,0,3,,,,,,,,,2,,,65,62
45519,note_on,79,0,3,,,,,,,,,2,,,63,0
45600,note_on,0,0,1,,,,,,,,,0,,,70,88
45600,note_on,0,0,3,,,,,,,,,2,,,55,75
45600,note_on,81,0,1,,,,,,,,,0,,,77,0
45600,note_on,81,0,3,,,,,,,,,2,,,65,0
45680,note_on,80,0,3,,,,,,,,,2,,,55,0
45680,note_on,0,0,3,,,,,,,,,2,,,63,75
45680,note_on,0,0,1,,,,,,,,,0,,,78,88
45680,note_on,80,0,1,,,,,,,,,0,,,70,0
45759,note_on,79,0,3,,,,,,,,,2,,,63,0
45759,note_on,0,0,1,,,,,,,,,0,,,77,88
45759,note_on,79,0,1,,,,,,,,,0,,,78,0
45759,note_on,0,0,3,,,,,,,,,2,,,65,75
45840,note_on,0,0,1,,,,,,,,,0,,,72,88
45840,note_on,0,0,3,,,,,,,,,2,,,57,75
45840,note_on,81,0,3,,,,,,,,,2,,,65,0
45840,note_on,81,0,1,,,,,,,,,0,,,77,0
45920,note_on,80,0,3,,,,,,,,,2,,,57,0
45920,note_on,0,0,1,,,,,,,,,0,,,78,88
45920,note_on,80,0,1,,,,,,,,,0,,,72,0
45920,note_on,0,0,3,,,,,,,,,2,,,63,75
45999,note_on,0,0,3,,,,,,,,,2,,,65,75
45999,note_on,79,0,1,,,,,,,,,0,,,78,0
45999,note_on,79,0,3,,,,,,,,,2,,,63,0
45999,note_on,0,0,1,,,,,,,,,0,,,77,88
46080,note_on,0,0,1,,,,,,,,,0,,,73,62
46080,note_on,81,0,3,,,,,,,,,2,,,65,0
46080,note_on,0,0,3,,,,,,,,,2,,,58,49
46080,note_on,81,0,1,,,,,,,,,0,,,77,0
46160,note_on,0,0,1,,,,,,,,,0,,,70,62
46160,note_on,0,0,3,,,,,,,,,2,,,61,49
46160,note_on,80,0,1,,,,,,,,,0,,,73,0
46160,note_on,80,0,3,,,,,,,,,2,,,58,0
46239,note_on,0,0,1,,,,,,,,,0,,,77,62
46239,note_on,79,0,1,,,,,,,,,0,,,70,0
46239,note_on,0,0,3,,,,,,,,,2,,,65,49
46239,note_on,79,0,3,,,,,,,,,2,,,61,0
46320,note_on,0,0,3,,,,,,,,,2,,,58,49
46320,note_on,81,0,3,,,,,,,,,2,,,65,0
46320,note_on,81,0,1,,,,,,,,,0,,,77,0
46320,note_on,0,0,1,,,,,,,,,0,,,73,62
46400,note_on,0,0,3,,,,,,,,,2,,,61,49
46400,note_on,80,0,1,,,,,,,,,0,,,73,0
46400,note_on,0,0,1,,,,,,,,,0,,,82,62
46400,note_on,80,0,3,,,,,,,,,2,,,58,0
46479,note_on,0,0,3,,,,,,,,,2,,,65,49
46479,note_on,79,0,3,,,,,,,,,2,,,61,0
46479,note_on,79,0,1,,,,,,,,,0,,,82,0
46479,note_on,0,0,1,,,,,,,,,0,,,77,62
46560,note_on,81,0,1,,,,,,,,,0,,,77,0
46560,note_on,0,0,3,,,,,,,,,2,,,58,49
46560,note_on,81,0,3,,,,,,,,,2,,,65,0
46560,note_on,0,0,1,,,,,,,,,0,,,85,62
46640,note_on,0,0,3,,,,,,,,,2,,,61,49
46640,note_on,0,0,1,,,,,,,,,0,,,82,62
46640,note_on,80,0,1,,,,,,,,,0,,,85,0
46640,note_on,80,0,3,,,,,,,,,2,,,58,0
46719,note_on,79,0,1,,,,,,,,,0,,,82,0
46719,note_on,0,0,1,,,,,,,,,0,,,89,62
46719,note_on,79,0,3,,,,,,,,,2,,,61,0
46719,note_on,0,0,3,,,,,,,,,2,,,65,49
46800,note_on,0,0,3,,,,,,,,,2,,,58,49
46800,note_on,81,0,1,,,,,,,,,0,,,89,0
46800,note_on,0,0,1,,,,,,,,,0,,,85,62
46800,note_on,81,0,3,,,,,,,,,2,,,65,0
46880,note_on,0,0,1,,,,,,,,,0,,,94,62
46880,note_on,80,0,1,,,,,,,,,0,,,85,0
46880,note_on,80,0,3,,,,,,,,,2,,,58,0
46880,note_on,0,0,3,,,,,,,,,2,,,61,49
46959,note_on,0,0,1,,,,,,,,,0,,,89,62
46959,note_on,79,0,1,,,,,,,,,0,,,94,0
46959,note_on,79,0,3,,,,,,,,,2,,,61,0
46959,note_on,0,0,3,,,,,,,,,2,,,65,49
47040,control_change,0,0,3,,,,,,,,,2,64,127,,
47040,control_change,0,0,1,,,,,,,,,0,64,127,,
47040,note_on,81,0,3,,,,,,,,,2,,,65,0
47040,note_on,81,0,1,,,,,,,,,0,,,89,0
47040,note_on,0,0,3,,,,,,,,,2,,,58,62
47120,note_on,0,0,3,,,,,,,,,2,,,61,62
47120,note_on,80,0,3,,,,,,,,,2,,,58,0
47120,note_on,80,0,1,,,,,,,,,0,,,70,75
47199,note_on,0,0,1,,,,,,,,,0,,,77,75
47199,note_on,79,0,1,,,,,,,,,0,,,70,0
47199,note_on,79,0,3,,,,,,,,,2,,,61,0
47199,note_on,0,0,3,,,,,,,,,2,,,65,62
47280,note_on,81,0,1,,,,,,,,,0,,,77,0
47280,note_on,0,0,1,,,,,,,,,0,,,73,75
47280,note_on,81,0,3,,,,,,,,,2,,,65,0
47280,note_on,0,0,3,,,,,,,,,2,,,58,62
47360,note_on,80,0,1,,,,,,,,,0,,,73,0
47360,note_on,0,0,1,,,,,,,,,0,,,82,75
47360,note_on,0,0,3,,,,,,,,,2,,,61,62
47360,note_on,80,0,3,,,,,,,,,2,,,58,0
47439,note_on,79,0,3,,,,,,,,,2,,,61,0
47439,note_on,0,0,1,,,,,,,,,0,,,77,75
47439,note_on,79,0,1,,,,,,,,,0,,,82,0
47439,note_on,0,0,3,,,,,,,,,2,,,65,62
47520,note_on,81,0,1,,,,,,,,,0,,,77,0
47520,note_on,0,0,1,,,,,,,,,0,,,85,75
47520,note_on,81,0,3,,,,,,,,,2,,,65,0
47520,note_on,0,0,3,,,,,,,,,2,,,58,62
47600,note_on,80,0,3,,,,,,,,,2,,,58,0
47600,note_on,0,0,1,,,,,,,,,0,,,82,75
47600,note_on,80,0,1,,,,,,,,,0,,,85,0
47600,note_on,0,0,3,,,,,,,,,2,,,61,62
47679,note_on,79,0,1,,,,,,,,,0,,,82,0
47679,note_on,79,0,3,,,,,,,,,2,,,61,0
47679,note_on,0,0,1,,,,,,,,,0,,,89,75
47679,note_on,0,0,3,,,,,,,,,2,,,65,62
47760,note_on,81,0,3,,,,,,,,,2,,,65,0
47760,note_on,81,0,1,,,,,,,,,0,,,89,0
47760,note_on,0,0,3,,,,,,,,,2,,,58,62
47760,note_on,0,0,1,,,,,,,,,0,,,85,75
47840,note_on,80,0,1,,,,,,,,,0,,,85,0
47840,note_on,80,0,3,,,,,,,,,2,,,58,0
47840,note_on,0,0,3,,,,,,,,,2,,,61,62
47840,note_on,0,0,1,,,,,,,,,0,,,94,75
47919,note_on,79,0,3,,,,,,,,,2,,,61,0
47919,control_change,0,0,1,,,,,,,,,0,64,0,,
47919,note_on,79,0,1,,,,,,,,,0,,,94,0
47919,control_change,0,0,3,,,,,,,,,2,64,0,,
47919,note_on,0,0,1,,,,,,,,,0,,,89,75
47919,note_on,0,0,3,,,,,,,,,2,,,65,62
48000,note_on,0,0,3,,,,,,,,,2,,,58,62
48000,note_on,81,0,3,,,,,,,,,2,,,65,0
48000,note_on,81,0,1,,,,,,,,,0,,,89,0
48080,note_on,80,0,3,,,,,,,,,2,,,58,0
48080,note_on,0,0,3,,,,,,,,,2,,,61,62
48080,note_on,80,0,1,,,,,,,,,0,,,70,75
48159,note_on,79,0,3,,,,,,,,,2,,,61,0
48159,note_on,79,0,1,,,,,,,,,0,,,70,0
48159,note_on,0,0,3,,,,,,,,,2,,,66,62
48159,note_on,0,0,1,,,,,,,,,0,,,78,75
48240,note_on,81,0,3,,,,,,,,,2,,,66,0
48240,note_on,0,0,1,,,,,,,,,0,,,73,75
48240,note_on,81,0,1,,,,,,,,,0,,,78,0
48240,note_on,0,0,3,,,,,,,,,2,,,58,62
48320,note_on,0,0,3,,,,,,,,,2,,,61,62
48320,note_on,80,0,3,,,,,,,,,2,,,58,0
48320,note_on,0,0,1,,,,,,,,,0,,,82,75
48320,note_on,80,0,1,,,,,,,,,0,,,73,0
48399,note_on,0,0,1,,,,,,,,,0,,,78,75
48399,note_on,79,0,1,,,,,,,,,0,,,82,0
48399,note_on,0,0,3,,,,,,,,,2,,,66,62
48399,note_on,79,0,3,,,,,,,,,2,,,61,0
48480,note_on,81,0,1,,,,,,,,,0,,,78,0
48480,note_on,81,0,3,,,,,,,,,2,,,66,0
48480,note_on,0,0,1,,,,,,,,,0,,,85,88
48480,note_on,0,0,3,,,,,,,,,2,,,58,75
48560,note_on,0,0,3,,,,,,,,,2,,,61,75
48560,note_on,80,0,3,,,,,,,,,2,,,58,0
48560,note_on,0,0,1,,,,,,,,,0,,,82,88
48560,note_on,80,0,1,,,,,,,,,0,,,85,0
48639,note_on,0,0,3,,,,,,,,,2,,,66,75
48639,note_on,0,0,1,,,,,,,,,0,,,90,88
48639,note_on,79,0,1,,,,,,,,,0,,,82,0
48639,note_on,79,0,3,,,,,,,,,2,,,61,0
48720,note_on,0,0,1,,,,,,,,,0,,,85,88
48720,note_on,81,0,1,,,,,,,,,0,,,90,0
48720,note_on,0,0,3,,,,,,,,,2,,,58,75
48720,note_on,81,0,3,,,,,,,,,2,,,66,0
48800,note_on,0,0,3,,,,,,,,,2,,,61,75
48800,note_on,0,0,1,,,,,,,,,0,,,94,88
48800,note_on,80,0,1,,,,,,,,,0,,,85,0
48800,note_on,80,0,3,,,,,,,,,2,,,58,0
48879,note_on,0,0,1,,,,,,,,,0,,,90,88
48879,note_on,79,0,3,,,,,,,,,2,,,61,0
48879,note_on,79,0,1,,,,,,,,,0,,,94,0
48879,note_on,0,0,3,,,,,,,,,2,,,66,75
48960,note_on,81,0,1,,,,,,,,,0,,,90,0
48960,note_on,81,0,3,,,,,,,,,2,,,66,0
48960,note_on,0,0,3,,,,,,,,,2,,,58,75
49040,note_on,80,0,1,,,,,,,,,0,,,70,88
49040,note_on,80,0,3,,,,,,,,,2,,,58,0
49040,note_on,0,0,3,,,,,,,,,2,,,61,75
49119,note_on,0,0,1,,,,,,,,,0,,,78,88
49119,note_on,79,0,1,,,,,,,,,0,,,70,0
49119,note_on,79,0,3,,,,,,,,,2,,,61,0
49119,note_on,0,0,3,,,,,,,,,2,,,66,75
49200,note_on,0,0,3,,,,,,,,,2,,,58,75
49200,note_on,81,0,3,,,,,,,,,2,,,66,0
49200,note_on,81,0,1,,,,,,,,,0,,,78,0
49200,note_on,0,0,1,,,,,,,,,0,,,73,88
49280,note_on,0,0,1,,,,,,,,,0,,,82,88
49280,note_on,80,0,1,,,,,,,,,0,,,73,0
49280,note_on,0,0,3,,,,,,,,,2,,,61,75
49280,note_on,80,0,3,,,,,,,,,2,,,58,0
49359,note_on,79,0,1,,,,,,,,,0,,,82,0
49359,note_on,0,0,3,,,,,,,,,2,,,66,75
49359,note_on,79,0,3,,,,,,,,,2,,,61,0
49359,note_on,0,0,1,,,,,,,,,0,,,78,88
49440,note_on,81,0,1,,,,,,,,,0,,,78,0
49440,note_on,81,0,3,,,,,,,,,2,,,66,0
49440,note_on,0,0,1,,,,,,,,,0,,,85,88
49440,note_on,0,0,3,,,,,,,,,2,,,58,75
49520,note_on,80,0,1,,,,,,,,,0,,,85,0
49520,note_on,80,0,3,,,,,,,,,2,,,58,0
49520,note_on,0,0,3,,,,,,,,,2,,,61,75
49520,note_on,0,0,1,,,,,,,,,0,,,82,88
49599,note_on,0,0,1,,,,,,,,,0,,,90,88
49599,note_on,79,0,3,,,,,,,,,2,,,61,0
49599,note_on,0,0,3,,,,,,,,,2,,,66,75
49599,note_on,79,0,1,,,,,,,,,0,,,82,0
49680,note_on,81,0,1,,,,,,,,,0,,,90,0
49680,note_on,81,0,3,,,,,,,,,2,,,66,0
49680,note_on,0,0,3,,,,,,,,,2,,,58,75
49680,note_on,0,0,1,,,,,,,,,0,,,85,88
49760,note_on,80,0,1,,,,,,,,,0,,,85,0
49760,note_on,80,0,3,,,,,,,,,2,,,58,0
49760,note_on,0,0,3,,,,,,,,,2,,,61,75
49760,note_on,0,0,1,,,,,,,,,0,,,94,88
49839,note_on,79,0,3,,,,,,,,,2,,,61,0
49839,note_on,79,0,1,,,,,,,,,0,,,94,0
49839,note_on,0,0,3,,,,,,,,,2,,,66,75
49839,note_on,0,0,1,,,,,,,,,0,,,90,88
49920,note_on,81,0,1,,,,,,,,,0,,,90,0
49920,note_on,81,0,3,,,,,,,,,2,,,66,0
49920,note_on,0,0,3,,,,,,,,,2,,,61,75
49920,control_change,0,0,3,,,,,,,,,2,64,127,,
49920,note_on,0,0,3,,,,,,,,,2,,,58,75
50000,control_change,80,0,1,,,,,,,,,0,64,127,,
50000,note_on,0,0,1,,,,,,,,,0,,,76,88
50000,note_on,0,0,3,,,,,,,,,2,,,64,75
50000,note_on,0,0,3,,,,,,,,,2,,,58,0
50000,note_on,80,0,3,,,,,,,,,2,,,61,0
50079,note_on,0,0,1,,,,,,,,,0,,,85,88
50079,note_on,79,0,3,,,,,,,,,2,,,64,0
50079,note_on,0,0,3,,,,,,,,,2,,,67,75
50079,note_on,79,0,1,,,,,,,,,0,,,76,0
50160,note_on,0,0,3,,,,,,,,,2,,,61,75
50160,note_on,0,0,1,,,,,,,,,0,,,79,88
50160,note_on,81,0,1,,,,,,,,,0,,,85,0
50160,note_on,0,0,3,,,,,,,,,2,,,58,75
50160,note_on,81,0,3,,,,,,,,,2,,,67,0
50240,note_on,80,0,3,,,,,,,,,2,,,61,0
50240,note_on,0,0,3,,,,,,,,,2,,,64,75
50240,note_on,0,0,3,,,,,,,,,2,,,58,0
50240,note_on,80,0,1,,,,,,,,,0,,,79,0
50240,note_on,0,0,1,,,,,,,,,0,,,88,88
50319,note_on,0,0,1,,,,,,,,,0,,,85,88
50319,note_on,0,0,3,,,,,,,,,2,,,67,75
50319,note_on,79,0,3,,,,,,,,,2,,,64,0
50319,note_on,79,0,1,,,,,,,,,0,,,88,0
50400,note_on,81,0,1,,,,,,,,,0,,,85,0
50400,note_on,0,0,1,,,,,,,,,0,,,91,88
50400,note_on,81,0,3,,,,,,,,,2,,,67,0
50400,note_on,0,0,3,,,,,,,,,2,,,61,75
50400,note_on,0,0,3,,,,,,,,,2,,,58,75
50480,note_on,80,0,3,,,,,,,,,2,,,61,0
50480,note_on,0,0,3,,,,,,,,,2,,,58,0
50480,note_on,0,0,3,,,,,,,,,2,,,64,75
50480,note_on,0,0,1,,,,,,,,,0,,,88,88
50480,note_on,80,0,1,,,,,,,,,0,,,91,0
50559,note_on,79,0,3,,,,,,,,,2,,,64,0
50559,note_on,0,0,1,,,,,,,,,0,,,97,88
50559,note_on,79,0,1,,,,,,,,,0,,,88,0
50559,note_on,0,0,3,,,,,,,,,2,,,67,75
50640,note_on,0,0,1,,,,,,,,,0,,,91,88
50640,note_on,81,0,1,,,,,,,,,0,,,97,0
50640,note_on,81,0,3,,,,,,,,,2,,,67,0
50640,note_on,0,0,3,,,,,,,,,2,,,58,75
50640,note_on,0,0,3,,,,,,,,,2,,,61,75
50720,note_on,80,0,3,,,,,,,,,2,,,61,0
50720,note_on,0,0,1,,,,,,,,,0,,,100,88
50720,note_on,0,0,3,,,,,,,,,2,,,58,0
50720,note_on,0,0,3,,,,,,,,,2,,,64,75
50720,note_on,80,0,1,,,,,,,,,0,,,91,0
50799,note_on,79,0,3,,,,,,,,,2,,,64,0
50799,note_on,79,0,1,,,,,,,,,0,,,100,0
50799,note_on,0,0,3,,,,,,,,,2,,,67,75
50799,note_on,0,0,1,,,,,,,,,0,,,97,88
50880,note_on,81,0,1,,,,,,,,,0,,,97,0
50880,note_on,81,0,3,,,,,,,,,2,,,67,0
50880,note_on,0,0,3,,,,,,,,,2,,,46,75
50880,note_on,0,0,3,,,,,,,,,2,,,49,75
50960,note_on,80,0,3,,,,,,,,,2,,,49,0
50960,note_on,0,0,3,,,,,,,,,2,,,52,75
50960,note_on,0,0,3,,,,,,,,,2,,,46,0
50960,note_on,80,0,1,,,,,,,,,0,,,76,88
51039,note_on,79,0,1,,,,,,,,,0,,,76,0
51039,note_on,79,0,3,,,,,,,,,2,,,52,0
51039,note_on,0,0,3,,,,,,,,,2,,,55,75
51039,note_on,0,0,1,,,,,,,,,0,,,85,88
51120,note_on,0,0,1,,,,,,,,,0,,,79,88
51120,note_on,0,0,3,,,,,,,,,2,,,46,75
51120,note_on,0,0,3,,,,,,,,,2,,,49,75
51120,note_on,81,0,3,,,,,,,,,2,,,55,0
51120,note_on,81,0,1,,,,,,,,,0,,,85,0
51200,note_on,0,0,1,,,,,,,,,0,,,88,88
51200,note_on,80,0,3,,,,,,,,,2,,,49,0
51200,note_on,0,0,3,,,,,,,,,2,,,46,0
51200,note_on,0,0,3,,,,,,,,,2,,,52,75
51200,note_on,80,0,1,,,,,,,,,0,,,79,0
51279,note_on,0,0,3,,,,,,,,,2,,,55,75
51279,note_on,0,0,1,,,,,,,,,0,,,85,88
51279,note_on,79,0,3,,,,,,,,,2,,,52,0
51279,note_on,79,0,1,,,,,,,,,0,,,88,0
51360,note_on,0,0,1,,,,,,,,,0,,,91,88
51360,note_on,81,0,1,,,,,,,,,0,,,85,0
51360,note_on,0,0,3,,,,,,,,,2,,,49,75
51360,note_on,0,0,3,,,,,,,,,2,,,46,75
51360,note_on,81,0,3,,,,,,,,,2,,,55,0
51440,note_on,80,0,3,,,,,,,,,2,,,49,0
51440,note_on,0,0,1,,,,,,,,,0,,,88,88
51440,note_on,0,0,3,,,,,,,,,2,,,52,75
51440,note_on,0,0,3,,,,,,,,,2,,,46,0
51440,note_on,80,0,1,,,,,,,,,0,,,91,0
51519,note_on,79,0,3,,,,,,,,,2,,,52,0
51519,note_on,79,0,1,,,,,,,,,0,,,88,0
51519,note_on,0,0,1,,,,,,,,,0,,,97,88
51519,note_on,0,0,3,,,,,,,,,2,,,55,75
51600,note_on,0,0,3,,,,,,,,,2,,,46,75
51600,note_on,0,0,3,,,,,,,,,2,,,49,75
51600,note_on,81,0,1,,,,,,,,,0,,,97,0
51600,note_on,81,0,3,,,,,,,,,2,,,55,0
51600,note_on,0,0,1,,,,,,,,,0,,,91,88
51680,note_on,80,0,1,,,,,,,,,0,,,91,0
51680,note_on,0,0,3,,,,,,,,,2,,,46,0
51680,note_on,0,0,3,,,,,,,,,2,,,52,75
51680,note_on,0,0,1,,,,,,,,,0,,,100,88
51680,note_on,80,0,3,,,,,,,,,2,,,49,0
51759,note_on,79,0,1,,,,,,,,,0,,,100,0
51759,note_on,0,0,1,,,,,,,,,0,,,97,88
51759,control_change,0,0,3,,,,,,,,,2,64,0,,
51759,control_change,0,0,1,,,,,,,,,0,64,0,,
51759,note_on,0,0,3,,,,,,,,,2,,,55,75
51759,note_on,79,0,3,,,,,,,,,2,,,52,0
51840,control_change,0,0,3,,,,,,,,,2,64,127,,
51840,note_on,0,0,3,,,,,,,,,2,,,47,88
51840,note_on,81,0,1,,,,,,,,,0,,,97,0
51840,note_on,0,0,3,,,,,,,,,2,,,50,88
51840,note_on,81,0,3,,,,,,,,,2,,,55,0
51920,note_on,0,0,3,,,,,,,,,2,,,47,0
51920,note_on,0,0,3,,,,,,,,,2,,,53,88
51920,note_on,0,0,1,,,,,,,,,0,,,77,101
51920,control_change,80,0,1,,,,,,,,,0,64,127,,
51920,note_on,80,0,3,,,,,,,,,2,,,50,0
51999,note_on,79,0,1,,,,,,,,,0,,,77,0
51999,note_on,79,0,3,,,,,,,,,2,,,53,0
51999,note_on,0,0,1,,,,,,,,,0,,,86,101
51999,note_on,0,0,3,,,,,,,,,2,,,56,88
52080,note_on,0,0,3,,,,,,,,,2,,,50,88
52080,note_on,81,0,3,,,,,,,,,2,,,56,0
52080,note_on,0,0,1,,,,,,,,,0,,,80,101
52080,note_on,0,0,3,,,,,,,,,2,,,47,88
52080,note_on,81,0,1,,,,,,,,,0,,,86,0
52160,note_on,80,0,1,,,,,,,,,0,,,80,0
52160,note_on,0,0,1,,,,,,,,,0,,,89,101
52160,note_on,0,0,3,,,,,,,,,2,,,53,88
52160,note_on,0,0,3,,,,,,,,,2,,,47,0
52160,note_on,80,0,3,,,,,,,,,2,,,50,0
52239,note_on,0,0,3,,,,,,,,,2,,,56,88
52239,note_on,79,0,1,,,,,,,,,0,,,89,0
52239,note_on,79,0,3,,,,,,,,,2,,,53,0
52239,note_on,0,0,1,,,,,,,,,0,,,86,101
52320,note_on,0,0,3,,,,,,,,,2,,,47,88
52320,note_on,0,0,3,,,,,,,,,2,,,50,88
52320,note_on,0,0,1,,,,,,,,,0,,,92,101
52320,note_on,81,0,3,,,,,,,,,2,,,56,0
52320,note_on,81,0,1,,,,,,,,,0,,,86,0
52400,note_on,80,0,1,,,,,,,,,0,,,92,0
52400,note_on,80,0,3,,,,,,,,,2,,,50,0
52400,note_on,0,0,1,,,,,,,,,0,,,89,101
52400,note_on,0,0,3,,,,,,,,,2,,,47,0
52400,note_on,0,0,3,,,,,,,,,2,,,53,88
52479,note_on,79,0,1,,,,,,,,,0,,,89,0
52479,note_on,0,0,1,,,,,,,,,0,,,98,101
52479,note_on,79,0,3,,,,,,,,,2,,,53,0
52479,note_on,0,0,3,,,,,,,,,2,,,56,88
52560,note_on,0,0,3,,,,,,,,,2,,,47,88
52560,note_on,0,0,1,,,,,,,,,0,,,92,101
52560,note_on,81,0,3,,,,,,,,,2,,,56,0
52560,note_on,81,0,1,,,,,,,,,0,,,98,0
52560,note_on,0,0,3,,,,,,,,,2,,,50,88
52640,note_on,0,0,3,,,,,,,,,2,,,47,0
52640,note_on,0,0,3,,,,,,,,,2,,,53,88
52640,note_on,0,0,1,,,,,,,,,0,,,101,101
52640,note_on,80,0,3,,,,,,,,,2,,,50,0
52640,note_on,80,0,1,,,,,,,,,0,,,92,0
52719,note_on,79,0,3,,,,,,,,,2,,,53,0
52719,note_on,79,0,1,,,,,,,,,0,,,101,0
52719,note_on,0,0,1,,,,,,,,,0,,,98,101
52719,note_on,0,0,3,,,,,,,,,2,,,56,88
52800,note_on,81,0,1,,,,,,,,,0,,,98,0
52800,note_on,0,0,1,,,,,,,,,0,,,95,101
52800,note_on,0,0,3,,,,,,,,,2,,,38,88
52800,control_change,0,0,3,,,,,,,,,2,64,127,,
52800,note_on,0,0,3,,,,,,,,,2,,,35,88
52800,note_on,81,0,3,,,,,,,,,2,,,56,0
52880,note_on,80,0,1,,,,,,,,,0,,,95,0
52880,note_on,80,0,3,,,,,,,,,2,,,38,0
52880,note_on,0,0,3,,,,,,,,,2,,,41,88
52880,note_on,0,0,3,,,,,,,,,2,,,35,0
52880,note_on,0,0,1,,,,,,,,,0,,,92,101
52959,note_on,0,0,3,,,,,,,,,2,,,44,88
52959,note_on,0,0,1,,,,,,,,,0,,,89,101
52959,note_on,79,0,3,,,,,,,,,2,,,41,0
52959,note_on,79,0,1,,,,,,,,,0,,,92,0
53040,note_on,0,0,1,,,,,,,,,0,,,86,101
53040,note_on,0,0,3,,,,,,,,,2,,,35,88
53040,note_on,81,0,1,,,,,,,,,0,,,89,0
53040,note_on,0,0,3,,,,,,,,,2,,,38,88
53040,note_on,81,0,3,,,,,,,,,2,,,44,0
53120,note_on,0,0,1,,,,,,,,,0,,,83,101
53120,note_on,80,0,1,,,,,,,,,0,,,86,0
53120,note_on,80,0,3,,,,,,,,,2,,,38,0
53120,note_on,0,0,3,,,,,,,,,2,,,41,88
53120,note_on,0,0,3,,,,,,,,,2,,,35,0
53199,note_on,79,0,1,,,,,,,,,0,,,83,0
53199,note_on,0,0,1,,,,,,,,,0,,,80,101
53199,note_on,0,0,3,,,,,,,,,2,,,44,88
53199,note_on,79,0,3,,,,,,,,,2,,,41,0
53280,note_on,0,0,3,,,,,,,,,2,,,38,88
53280,note_on,0,0,1,,,,,,,,,0,,,77,101
53280,note_on,81,0,1,,,,,,,,,0,,,80,0
53280,note_on,81,0,3,,,,,,,,,2,,,44,0
53280,note_on,0,0,3,,,,,,,,,2,,,35,88
53360,note_on,0,0,3,,,,,,,,,2,,,35,0
53360,note_on,80,0,1,,,,,,,,,0,,,77,0
53360,note_on,0,0,1,,,,,,,,,0,,,74,101
53360,note_on,0,0,3,,,,,,,,,2,,,41,88
53360,note_on,80,0,3,,,,,,,,,2,,,38,0
53439,note_on,0,0,1,,,,,,,,,0,,,71,101
53439,note_on,79,0,1,,,,,,,,,0,,,74,0
53439,note_on,0,0,3,,,,,,,,,2,,,44,88
53439,note_on,79,0,3,,,,,,,,,2,,,41,0
53520,note_on,0,0,3,,,,,,,,,2,,,38,88
53520,note_on,0,0,1,,,,,,,,,0,,,65,101
53520,note_on,0,0,3,,,,,,,,,2,,,35,88
53520,note_on,81,0,3,,,,,,,,,2,,,44,0
53520,note_on,81,0,1,,,,,,,,,0,,,71,0
53600,note_on,0,0,1,,,,,,,,,0,,,62,101
53600,note_on,80,0,3,,,,,,,,,2,,,38,0
53600,note_on,80,0,1,,,,,,,,,0,,,65,0
53600,note_on,0,0,3,,,,,,,,,2,,,41,88
53600,note_on,0,0,3,,,,,,,,,2,,,35,0
53679,note_on,79,0,1,,,,,,,,,0,,,62,0
53679,note_on,0,0,3,,,,,,,,,2,,,44,88
53679,control_change,0,0,3,,,,,,,,,2,64,0,,
53679,note_on,79,0,3,,,,,,,,,2,,,41,0
53679,note_on,0,0,1,,,,,,,,,0,,,59,101
53679,control_change,0,0,1,,,,,,,,,0,64,0,,
53760,note_on,0,0,1,,,,,,,,,0,,,60,101
53760,note_on,81,0,1,,,,,,,,,0,,,59,0
53760,note_on,0,0,3,,,,,,,,,2,,,40,88
53760,note_on,0,0,3,,,,,,,,,2,,,43,88
53760,note_on,81,0,3,,,,,,,,,2,,,44,0
53760,note_on,0,0,3,,,,,,,,,2,,,36,88
54000,note_on,0,0,3,,,,,,,,,2,,,36,0
54000,note_on,0,0,3,,,,,,,,,2,,,36,101
54000,note_on,0,0,3,,,,,,,,,2,,,40,0
54000,note_on,240,0,3,,,,,,,,,2,,,43,0
54000,note_on,240,0,1,,,,,,,,,0,,,60,0
54000,note_on,0,0,1,,,,,,,,,0,,,48,101
54080,note_on,0,0,3,,,,,,,,,2,,,35,101
54080,note_on,80,0,3,,,,,,,,,2,,,36,0
54080,note_on,80,0,1,,,,,,,,,0,,,48,0
54080,note_on,0,0,1,,,,,,,,,0,,,47,101
54159,note_on,79,0,3,,,,,,,,,2,,,35,0
54159,note_on,0,0,3,,,,,,,,,2,,,36,101
54159,note_on,79,0,1,,,,,,,,,0,,,47,0
54159,note_on,0,0,1,,,,,,,,,0,,,48,101
54240,note_on,81,0,3,,,,,,,,,2,,,36,0
54240,note_on,0,0,3,,,,,,,,,2,,,38,101
54240,note_on,81,0,1,,,,,,,,,0,,,48,0
54240,note_on,0,0,1,,,,,,,,,0,,,50,101
54320,note_on,0,0,3,,,,,,,,,2,,,36,101
54320,note_on,80,0,3,,,,,,,,,2,,,38,0
54320,note_on,0,0,1,,,,,,,,,0,,,48,101
54320,note_on,80,0,1,,,,,,,,,0,,,50,0
54399,note_on,0,0,1,,,,,,,,,0,,,50,101
54399,note_on,79,0,1,,,,,,,,,0,,,48,0
54399,note_on,79,0,3,,,,,,,,,2,,,36,0
54399,note_on,0,0,3,,,,,,,,,2,,,38,101
54480,note_on,0,0,1,,,,,,,,,0,,,52,101
54480,note_on,0,0,3,,,,,,,,,2,,,40,101
54480,note_on,81,0,3,,,,,,,,,2,,,38,0
54480,note_on,81,0,1,,,,,,,,,0,,,50,0
54560,note_on,80,0,3,,,,,,,,,2,,,40,0
54560,note_on,80,0,1,,,,,,,,,0,,,52,0
54560,note_on,0,0,1,,,,,,,,,0,,,50,101
54560,note_on,0,0,3,,,,,,,,,2,,,38,101
54639,note_on,79,0,3,,,,,,,,,2,,,38,0
54639,note_on,79,0,1,,,,,,,,,0,,,50,0
54639,note_on,0,0,1,,,,,,,,,0,,,52,101
54639,note_on,0,0,3,,,,,,,,,2,,,40,101
54720,note_on,0,0,1,,,,,,,,,0,,,53,101
54720,note_on,0,0,3,,,,,,,,,2,,,41,101
54720,note_on,81,0,1,,,,,,,,,0,,,52,0
54720,note_on,81,0,3,,,,,,,,,2,,,40,0
54800,note_on,80,0,3,,,,,,,,,2,,,41,0
54800,note_on,0,0,1,,,,,,,,,0,,,52,101
54800,note_on,80,0,1,,,,,,,,,0,,,53,0
54800,note_on,0,0,3,,,,,,,,,2,,,40,101
54879,note_on,0,0,1,,,,,,,,,0,,,53,101
54879,note_on,79,0,1,,,,,,,,,0,,,52,0
54879,note_on,0,0,3,,,,,,,,,2,,,41,101
54879,note_on,79,0,3,,,,,,,,,2,,,40,0
54960,note_on,0,0,1,,,,,,,,,0,,,55,101
54960,note_on,81,0,3,,,,,,,,,2,,,41,0
54960,note_on,81,0,1,,,,,,,,,0,,,53,0
54960,note_on,0,0,3,,,,,,,,,2,,,43,101
55040,note_on,0,0,3,,,,,,,,,2,,,41,101
55040,note_on,0,0,1,,,,,,,,,0,,,53,101
55040,note_on,80,0,1,,,,,,,,,0,,,55,0
55040,note_on,80,0,3,,,,,,,,,2,,,43,0
55119,note_on,79,0,1,,,,,,,,,0,,,53,0
55119,note_on,0,0,1,,,,,,,,,0,,,55,101
55119,note_on,79,0,3,,,,,,,,,2,,,41,0
55119,note_on,0,0,3,,,,,,,,,2,,,43,101
55200,note_on,0,0,1,,,,,,,,,0,,,56,101
55200,note_on,81,0,3,,,,,,,,,2,,,43,0
55200,note_on,0,0,3,,,,,,,,,2,,,44,101
55200,note_on,81,0,1,,,,,,,,,0,,,55,0
55280,note_on,0,0,1,,,,,,,,,0,,,55,101
55280,note_on,80,0,3,,,,,,,,,2,,,44,0
55280,note_on,80,0,1,,,,,,,,,0,,,56,0
55280,note_on,0,0,3,,,,,,,,,2,,,43,101
55359,note_on,79,0,1,,,,,,,,,0,,,55,0
55359,note_on,79,0,3,,,,,,,,,2,,,43,0
55359,note_on,0,0,3,,,,,,,,,2,,,44,101
55359,note_on,0,0,1,,,,,,,,,0,,,56,101
55440,note_on,81,0,3,,,,,,,,,2,,,44,0
55440,note_on,0,0,3,,,,,,,,,2,,,46,101
55440,note_on,0,0,1,,,,,,,,,0,,,58,101
55440,note_on,81,0,1,,,,,,,,,0,,,56,0
55520,note_on,0,0,3,,,,,,,,,2,,,44,101
55520,note_on,80,0,1,,,,,,,,,0,,,58,0
55520,note_on,80,0,3,,,,,,,,,2,,,46,0
55520,note_on,0,0,1,,,,,,,,,0,,,56,101
55599,note_on,79,0,3,,,,,,,,,2,,,44,0
55599,note_on,0,0,1,,,,,,,,,0,,,58,101
55599,note_on,79,0,1,,,,,,,,,0,,,56,0
55599,note_on,0,0,3,,,,,,,,,2,,,46,101
55680,note_on,81,0,3,,,,,,,,,2,,,46,0
55680,note_on,0,0,3,,,,,,,,,2,,,48,101
55680,note_on,0,0,1,,,,,,,,,0,,,60,101
55680,note_on,81,0,1,,,,,,,,,0,,,58,0
55920,note_on,0,0,3,,,,,,,,,2,,,76,75
55920,note_on,0,0,1,,,,,,,,,0,,,60,88
55920,note_on,240,0,3,,,,,,,,,2,,,48,0
55920,note_on,240,0,1,,,,,,,,,0,,,60,0
55920,note_on,0,0,3,,,,,,,,,2,,,84,75
55920,control_change,0,0,3,,,,,,,,,2,64,127,,
56000,note_on,80,0,1,,,,,,,,,0,,,60,0
56000,note_on,0,0,1,,,,,,,,,0,,,59,88
56079,note_on,79,0,1,,,,,,,,,0,,,59,0
56079,note_on,0,0,1,,,,,,,,,0,,,60,88
56160,note_on,0,0,3,,,,,,,,,2,,,76,0
56160,note_on,0,0,3,,,,,,,,,2,,,77,75
56160,note_on,0,0,3,,,,,,,,,2,,,83,75
56160,note_on,0,0,1,,,,,,,,,0,,,62,88
56160,note_on,81,0,1,,,,,,,,,0,,,60,0
56160,note_on,240,0,3,,,,,,,,,2,,,84,0
56240,note_on,80,0,1,,,,,,,,,0,,,62,0
56240,note_on,0,0,1,,,,,,,,,0,,,60,88
56319,note_on,0,0,1,,,,,,,,,0,,,62,88
56319,note_on,79,0,1,,,,,,,,,0,,,60,0
56400,note_on,0,0,1,,,,,,,,,0,,,64,88
56400,note_on,0,0,3,,,,,,,,,2,,,82,75
56400,note_on,81,0,1,,,,,,,,,0,,,62,0
56400,note_on,0,0,3,,,,,,,,,2,,,79,75
56400,note_on,240,0,3,,,,,,,,,2,,,83,0
56400,note_on,0,0,3,,,,,,,,,2,,,77,0
56400,control_change,0,0,3,,,,,,,,,2,64,0,,
56480,note_on,80,0,1,,,,,,,,,0,,,64,0
56480,note_on,0,0,1,,,,,,,,,0,,,62,88
56559,note_on,79,0,1,,,,,,,,,0,,,62,0
56559,note_on,0,0,1,,,,,,,,,0,,,64,88
56640,note_on,240,0,3,,,,,,,,,2,,,82,0
56640,note_on,81,0,1,,,,,,,,,0,,,64,0
56640,note_on,0,0,1,,,,,,,,,0,,,65,75
56640,note_on,0,0,3,,,,,,,,,2,,,80,62
56640,note_on,0,0,3,,,,,,,,,2,,,79,0
56720,note_on,80,0,1,,,,,,,,,0,,,65,0
56720,note_on,0,0,1,,,,,,,,,0,,,64,75
56799,note_on,79,0,1,,,,,,,,,0,,,64,0
56799,note_on,0,0,1,,,,,,,,,0,,,65,75
56880,note_on,81,0,1,,,,,,,,,0,,,65,0
56880,note_on,0,0,1,,,,,,,,,0,,,67,75
56880,note_on,240,0,3,,,,,,,,,2,,,80,0
56880,note_on,0,0,3,,,,,,,,,2,,,79,62
56960,note_on,0,0,1,,,,,,,,,0,,,65,75
56960,note_on,80,0,1,,,,,,,,,0,,,67,0
57039,note_on,0,0,1,,,,,,,,,0,,,67,75
57039,note_on,79,0,1,,,,,,,,,0,,,65,0
57120,note_on,240,0,3,,,,,,,,,2,,,79,0
57120,note_on,0,0,1,,,,,,,,,0,,,68,75
57120,note_on,0,0,3,,,,,,,,,2,,,77,62
57120,note_on,81,0,1,,,,,,,,,0,,,67,0
57200,note_on,0,0,1,,,,,,,,,0,,,67,75
57200,note_on,80,0,1,,,,,,,,,0,,,68,0
57279,note_on,0,0,1,,,,,,,,,0,,,68,75
57279,note_on,79,0,1,,,,,,,,,0,,,67,0
57360,note_on,240,0,3,,,,,,,,,2,,,77,0
57360,note_on,0,0,3,,,,,,,,,2,,,65,62
57360,note_on,0,0,1,,,,,,,,,0,,,71,75
57360,note_on,81,0,1,,,,,,,,,0,,,68,0
57360,note_on,0,0,3,,,,,,,,,2,,,61,62
57440,note_on,0,0,1,,,,,,,,,0,,,70,75
57440,note_on,80,0,1,,,,,,,,,0,,,71,0
57519,note_on,79,0,1,,,,,,,,,0,,,70,0
57519,note_on,0,0,1,,,,,,,,,0,,,71,75
57600,note_on,240,0,3,,,,,,,,,2,,,65,0
57600,note_on,81,0,1,,,,,,,,,0,,,71,0
57600,note_on,0,0,3,,,,,,,,,2,,,64,62
57600,note_on,0,0,3,,,,,,,,,2,,,61,0
57600,note_on,0,0,3,,,,,,,,,2,,,60,62
57600,note_on,0,0,1,,,,,,,,,0,,,72,75
57840,note_on,240,0,1,,,,,,,,,0,,,72,0
57840,note_on,240,0,3,,,,,,,,,2,,,64,0
57840,note_on,0,0,3,,,,,,,,,2,,,60,0
57840,note_on,0,0,1,,,,,,,,,0,,,76,75
57920,note_on,80,0,1,,,,,,,,,0,,,76,0
57920,note_on,0,0,1,,,,,,,,,0,,,72,75
57999,note_on,79,0,1,,,,,,,,,0,,,72,0
57999,note_on,0,0,1,,,,,,,,,0,,,84,75
58080,note_on,0,0,3,,,,,,,,,2,,,72,49
58080,note_on,240,0,3,,,,,,,,,2,,,60,49
58080,note_on,0,0,1,,,,,,,,,0,,,88,75
58080,note_on,81,0,1,,,,,,,,,0,,,84,0
58080,note_on,0,0,3,,,,,,,,,2,,,64,49
58080,note_on,0,0,3,,,,,,,,,2,,,67,49
58160,note_on,80,0,1,,,,,,,,,0,,,88,0
58160,note_on,0,0,1,,,,,,,,,0,,,84,75
58239,note_on,0,0,1,,,,,,,,,0,,,96,75
58239,note_on,79,0,1,,,,,,,,,0,,,84,0
58320,note_on,0,0,3,,,,,,,,,2,,,60,0
58320,note_on,0,0,3,,,,,,,,,2,,,64,0
58320,note_on,81,0,1,,,,,,,,,0,,,96,0
58320,note_on,0,0,3,,,,,,,,,2,,,67,0
58320,note_on,240,0,3,,,,,,,,,2,,,72,0
58320,note_on,0,0,1,,,,,,,,,0,,,76,75
58400,note_on,80,0,1,,,,,,,,,0,,,76,0
58400,note_on,0,0,1,,,,,,,,,0,,,72,75
58479,note_on,79,0,1,,,,,,,,,0,,,72,0
58479,note_on,0,0,1,,,,,,,,,0,,,84,75
58560,note_on,0,0,3,,,,,,,,,2,,,68,49
58560,note_on,0,0,3,,,,,,,,,2,,,71,49
58560,note_on,240,0,3,,,,,,,,,2,,,60,49
58560,note_on,81,0,1,,,,,,,,,0,,,84,0
58560,note_on,0,0,1,,,,,,,,,0,,,77,75
58560,note_on,0,0,3,,,,,,,,,2,,,65,49
58640,note_on,80,0,1,,,,,,,,,0,,,77,0
58640,note_on,0,0,1,,,,,,,,,0,,,74,75
58719,note_on,0,0,1,,,,,,,,,0,,,86,75
58719,note_on,79,0,1,,,,,,,,,0,,,74,0
58800,note_on,240,0,3,,,,,,,,,2,,,71,0
58800,note_on,0,0,3,,,,,,,,,2,,,60,0
58800,note_on,0,0,3,,,,,,,,,2,,,65,0
58800,note_on,0,0,3,,,,,,,,,2,,,68,0
58800,note_on,81,0,1,,,,,,,,,0,,,86,0
58800,note_on,0,0,1,,,,,,,,,0,,,89,75
58880,note_on,0,0,1,,,,,,,,,0,,,86,75
58880,note_on,80,0,1,,,,,,,,,0,,,89,0
58959,note_on,0,0,1,,,,,,,,,0,,,98,75
58959,note_on,79,0,1,,,,,,,,,0,,,86,0
59040,note_on,240,0,3,,,,,,,,,2,,,60,49
59040,note_on,0,0,3,,,,,,,,,2,,,63,49
59040,note_on,81,0,1,,,,,,,,,0,,,98,0
59040,note_on,0,0,1,,,,,,,,,0,,,78,75
59040,note_on,0,0,3,,,,,,,,,2,,,69,49
59040,note_on,0,0,3,,,,,,,,,2,,,72,49
59040,note_on,0,0,3,,,,,,,,,2,,,66,49
59120,note_on,0,0,1,,,,,,,,,0,,,75,75
59120,note_on,80,0,1,,,,,,,,,0,,,78,0
59199,note_on,79,0,1,,,,,,,,,0,,,75,0
59199,note_on,0,0,1,,,,,,,,,0,,,87,75
59280,note_on,81,0,1,,,,,,,,,0,,,87,0
59280,note_on,240,0,3,,,,,,,,,2,,,72,0
59280,note_on,0,0,3,,,,,,,,,2,,,63,0
59280,note_on,0,0,3,,,,,,,,,2,,,66,0
59280,note_on,0,0,3,,,,,,,,,2,,,60,0
59280,note_on,0,0,1,,,,,,,,,0,,,90,75
59280,note_on,0,0,3,,,,,,,,,2,,,69,0
59360,note_on,80,0,1,,,,,,,,,0,,,90,0
59360,note_on,0,0,1,,,,,,,,,0,,,87,75
59439,note_on,0,0,1,,,,,,,,,0,,,99,75
59439,note_on,79,0,1,,,,,,,,,0,,,87,0
59520,note_on,0,0,3,,,,,,,,,2,,,64,62
59520,note_on,240,0,3,,,,,,,,,2,,,60,62
59520,note_on,0,0,3,,,,,,,,,2,,,67,62
59520,note_on,0,0,3,,,,,,,,,2,,,70,62
59520,note_on,81,0,1,,,,,,,,,0,,,99,0
59520,note_on,0,0,1,,,,,,,,,0,,,82,88
59520,note_on,0,0,3,,,,,,,,,2,,,72,62
59600,note_on,80,0,1,,,,,,,,,0,,,82,0
59600,note_on,0,0,1,,,,,,,,,0,,,76,88
59679,note_on,79,0,1,,,,,,,,,0,,,76,0
59679,note_on,0,0,1,,,,,,,,,0,,,88,88
59760,note_on,0,0,3,,,,,,,,,2,,,60,0
59760,note_on,0,0,3,,,,,,,,,2,,,67,0
59760,note_on,0,0,3,,,,,,,,,2,,,70,0
59760,note_on,0,0,3,,,,,,,,,2,,,64,0
59760,note_on,81,0,1,,,,,,,,,0,,,88,0
59760,note_on,240,0,3,,,,,,,,,2,,,72,0
59760,note_on,0,0,1,,,,,,,,,0,,,94,88
59840,note_on,0,0,1,,,,,,,,,0,,,88,88
59840,note_on,80,0,1,,,,,,,,,0,,,94,0
59919,note_on,79,0,1,,,,,,,,,0,,,88,0
59919,note_on,0,0,1,,,,,,,,,0,,,100,88
60000,note_on,0,0,1,,,,,,,,,0,,,80,88
60000,note_on,0,0,3,,,,,,,,,2,,,65,62
60000,note_on,0,0,3,,,,,,,,,2,,,68,62
60000,note_on,0,0,3,,,,,,,,,2,,,72,62
60000,note_on,81,0,1,,,,,,,,,0,,,100,0
60000,note_on,240,0,3,,,,,,,,,2,,,60,62
60080,note_on,80,0,1,,,,,,,,,0,,,80,0
60080,note_on,0,0,1,,,,,,,,,0,,,77,88
60159,note_on,79,0,1,,,,,,,,,0,,,77,0
60159,note_on,0,0,1,,,,,,,,,0,,,89,88
60240,note_on,0,0,3,,,,,,,,,2,,,65,0
60240,note_on,0,0,1,,,,,,,,,0,,,92,88
60240,note_on,0,0,3,,,,,,,,,2,,,68,0
60240,note_on,0,0,3,,,,,,,,,2,,,60,0
60240,note_on,240,0,3,,,,,,,,,2,,,72,0
60240,note_on,81,0,1,,,,,,,,,0,,,89,0
60320,note_on,0,0,1,,,,,,,,,0,,,89,88
60320,note_on,80,0,1,,,,,,,,,0,,,92,0
60399,note_on,0,0,1,,,,,,,,,0,,,101,88
60399,note_on,79,0,1,,,,,,,,,0,,,89,0
60480,note_on,0,0,3,,,,,,,,,2,,,67,75
60480,note_on,0,0,3,,,,,,,,,2,,,64,75
60480,note_on,0,0,3,,,,,,,,,2,,,73,75
60480,note_on,0,0,1,,,,,,,,,0,,,100,101
60480,note_on,240,0,3,,,,,,,,,2,,,60,75
60480,note_on,0,0,3,,,,,,,,,2,,,70,75
60480,note_on,81,0,1,,,,,,,,,0,,,101,0
60560,note_on,0,0,1,,,,,,,,,0,,,97,101
60560,note_on,80,0,1,,,,,,,,,0,,,100,0
60639,note_on,79,0,1,,,,,,,,,0,,,97,0
60639,note_on,0,0,1,,,,,,,,,0,,,96,101
60720,note_on,0,0,1,,,,,,,,,0,,,94,101
60720,note_on,81,0,1,,,,,,,,,0,,,96,0
60800,note_on,0,0,1,,,,,,,,,0,,,92,101
60800,note_on,80,0,1,,,,,,,,,0,,,94,0
60879,note_on,0,0,1,,,,,,,,,0,,,91,101
60879,note_on,79,0,1,,,,,,,,,0,,,92,0
60960,note_on,0,0,1,,,,,,,,,0,,,89,101
60960,note_on,81,0,1,,,,,,,,,0,,,91,0
61040,note_on,0,0,1,,,,,,,,,0,,,88,101
61040,note_on,80,0,1,,,,,,,,,0,,,89,0
61119,note_on,79,0,1,,,,,,,,,0,,,88,0
61119,note_on,0,0,1,,,,,,,,,0,,,85,101
61200,note_on,0,0,1,,,,,,,,,0,,,84,101
61200,note_on,720,0,3,,,,,,,,,2,,,73,0
61200,note_on,81,0,1,,,,,,,,,0,,,85,0
61200,note_on,0,0,3,,,,,,,,,2,,,60,0
61200,note_on,0,0,3,,,,,,,,,2,,,64,0
61200,note_on,0,0,3,,,,,,,,,2,,,67,0
61200,note_on,0,0,3,,,,,,,,,2,,,70,0
61200,note_on,0,0,3,,,,,,,,,2,,,36,88
61280,note_on,0,0,1,,,,,,,,,0,,,82,101
61280,note_on,80,0,1,,,,,,,,,0,,,84,0
61359,note_on,0,0,1,,,,,,,,,0,,,80,101
61359,note_on,79,0,1,,,,,,,,,0,,,82,0
61440,note_on,0,0,1,,,,,,,,,0,,,79,101
61440,note_on,240,0,3,,,,,,,,,2,,,36,0
61440,note_on,81,0,1,,,,,,,,,0,,,80,0
61440,note_on,0,0,3,,,,,,,,,2,,,48,88
61520,note_on,0,0,1,,,,,,,,,0,,,77,101
61520,note_on,80,0,1,,,,,,,,,0,,,79,0
61599,note_on,0,0,1,,,,,,,,,0,,,76,101
61599,note_on,79,0,1,,,,,,,,,0,,,77,0
61680,note_on,240,0,3,,,,,,,,,2,,,48,0
61680,note_on,81,0,1,,,,,,,,,0,,,76,0
61680,note_on,0,0,3,,,,,,,,,2,,,60,88
61680,note_on,0,0,1,,,,,,,,,0,,,73,101
61760,note_on,80,0,1,,,,,,,,,0,,,73,0
61760,note_on,0,0,1,,,,,,,,,0,,,72,101
61839,note_on,79,0,1,,,,,,,,,0,,,72,0
61839,note_on,0,0,1,,,,,,,,,0,,,70,101
61920,note_on,81,0,1,,,,,,,,,0,,,70,0
61920,note_on,240,0,3,,,,,,,,,2,,,60,0
61920,note_on,0,0,1,,,,,,,,,0,,,72,101
61920,note_on,0,0,3,,,,,,,,,2,,,68,101
62000,note_on,0,0,3,,,,,,,,,2,,,67,101
62000,note_on,80,0,3,,,,,,,,,2,,,68,0
62079,note_on,79,0,3,,,,,,,,,2,,,67,0
62079,note_on,0,0,3,,,,,,,,,2,,,65,101
62160,note_on,0,0,3,,,,,,,,,2,,,64,101
62160,note_on,81,0,3,,,,,,,,,2,,,65,0
62160,note_on,0,0,1,,,,,,,,,0,,,84,101
62160,note_on,240,0,1,,,,,,,,,0,,,72,0
62240,note_on,80,0,3,,,,,,,,,2,,,64,0
62240,note_on,0,0,3,,,,,,,,,2,,,61,101
62319,note_on,0,0,3,,,,,,,,,2,,,60,101
62319,note_on,79,0,3,,,,,,,,,2,,,61,0
62400,note_on,240,0,1,,,,,,,,,0,,,84,0
62400,note_on,81,0,3,,,,,,,,,2,,,60,0
62400,note_on,0,0,3,,,,,,,,,2,,,58,101
62400,note_on,0,0,1,,,,,,,,,0,,,96,101
62480,note_on,0,0,3,,,,,,,,,2,,,56,101
62480,note_on,80,0,3,,,,,,,,,2,,,58,0
62559,note_on,0,0,3,,,,,,,,,2,,,55,101
62559,note_on,79,0,3,,,,,,,,,2,,,56,0
62640,note_on,81,0,3,,,,,,,,,2,,,55,0
62640,note_on,240,0,1,,,,,,,,,0,,,96,0
62640,note_on,0,0,3,,,,,,,,,2,,,53,101
62700,note_on,0,0,3,,,,,,,,,2,,,52,101
62700,note_on,60,0,3,,,,,,,,,2,,,53,0
62760,note_on,60,0,3,,,,,,,,,2,,,52,0
62760,note_on,0,0,3,,,,,,,,,2,,,49,101
62820,note_on,60,0,3,,,,,,,,,2,,,49,0
62820,note_on,0,0,3,,,,,,,,,2,,,48,101
62880,note_on,0,0,3,,,,,,,,,2,,,46,101
62880,note_on,60,0,3,,,,,,,,,2,,,48,0
62940,note_on,60,0,3,,,,,,,,,2,,,46,0
62940,note_on,0,0,3,,,,,,,,,2,,,44,101
63000,note_on,60,0,3,,,,,,,,,2,,,44,0
63000,note_on,0,0,3,,,,,,,,,2,,,43,101
63060,note_on,0,0,3,,,,,,,,,2,,,41,101
63060,note_on,60,0,3,,,,,,,,,2,,,43,0
63120,note_on,0,0,3,,,,,,,,,2,,,40,101
63120,note_on,60,0,3,,,,,,,,,2,,,41,0
63159,note_on,39,0,3,,,,,,,,,2,,,40,0
63159,note_on,0,0,3,,,,,,,,,2,,,37,101
63200,note_on,0,0,3,,,,,,,,,2,,,36,101
63200,note_on,41,0,3,,,,,,,,,2,,,37,0
63240,note_on,40,0,3,,,,,,,,,2,,,36,0
63240,note_on,0,0,3,,,,,,,,,2,,,34,101
63279,note_on,39,0,3,,,,,,,,,2,,,34,0
63279,note_on,0,0,3,,,,,,,,,2,,,32,101
63320,note_on,41,0,3,,,,,,,,,2,,,32,0
63320,note_on,0,0,3,,,,,,,,,2,,,31,101
63360,note_on,0,0,3,,,,,,,,,2,,,29,101
63360,note_on,40,0,3,,,,,,,,,2,,,31,0
63600,note_on,0,0,3,,,,,,,,,2,,,68,88
63600,note_on,240,0,3,,,,,,,,,2,,,29,0
63600,note_on,960,0,1,,,,,,,,,0,,,72,101
63600,note_on,0,0,1,,,,,,,,,0,,,77,101
63680,note_on,80,0,3,,,,,,,,,2,,,68,0
63680,note_on,80,0,1,,,,,,,,,0,,,77,0
63680,note_on,0,0,3,,,,,,,,,2,,,70,88
63680,note_on,0,0,1,,,,,,,,,0,,,79,101
63680,note_on,0,0,1,,,,,,,,,0,,,72,0
63759,note_on,79,0,3,,,,,,,,,2,,,70,0
63759,note_on,79,0,1,,,,,,,,,0,,,79,0
63759,note_on,0,0,1,,,,,,,,,0,,,77,101
63759,note_on,0,0,3,,,,,,,,,2,,,68,88
63840,note_on,0,0,3,,,,,,,,,2,,,67,88
63840,note_on,81,0,3,,,,,,,,,2,,,68,0
63840,note_on,0,0,1,,,,,,,,,0,,,70,101
63840,note_on,0,0,1,,,,,,,,,0,,,75,101
63840,note_on,81,0,1,,,,,,,,,0,,,77,0
63920,note_on,0,0,1,,,,,,,,,0,,,70,0
63920,note_on,0,0,1,,,,,,,,,0,,,77,101
63920,note_on,80,0,3,,,,,,,,,2,,,67,0
63920,note_on,0,0,3,,,,,,,,,2,,,68,88
63920,note_on,80,0,1,,,,,,,,,0,,,75,0
63999,note_on,0,0,3,,,,,,,,,2,,,67,88
63999,note_on,79,0,3,,,,,,,,,2,,,68,0
63999,note_on,0,0,1,,,,,,,,,0,,,75,101
63999,note_on,79,0,1,,,,,,,,,0,,,77,0
64080,note_on,81,0,1,,,,,,,,,0,,,75,0
64080,note_on,0,0,3,,,,,,,,,2,,,65,88
64080,note_on,81,0,3,,,,,,,,,2,,,67,0
64080,note_on,0,0,1,,,,,,,,,0,,,73,101
64080,note_on,0,0,1,,,,,,,,,0,,,68,101
64160,note_on,0,0,1,,,,,,,,,0,,,75,101
64160,note_on,80,0,1,,,,,,,,,0,,,73,0
64160,note_on,0,0,1,,,,,,,,,0,,,68,0
64160,note_on,80,0,3,,,,,,,,,2,,,65,0
64160,note_on,0,0,3,,,,,,,,,2,,,67,88
64239,note_on,79,0,3,,,,,,,,,2,,,67,0
64239,note_on,0,0,1,,,,,,,,,0,,,73,101
64239,note_on,79,0,1,,,,,,,,,0,,,75,0
64239,note_on,0,0,3,,,,,,,,,2,,,65,88
64320,note_on,0,0,1,,,,,,,,,0,,,72,101
64320,note_on,0,0,1,,,,,,,,,0,,,67,101
64320,note_on,81,0,1,,,,,,,,,0,,,73,0
64320,note_on,0,0,3,,,,,,,,,2,,,63,88
64320,note_on,81,0,3,,,,,,,,,2,,,65,0
64400,note_on,0,0,3,,,,,,,,,2,,,65,88
64400,note_on,80,0,1,,,,,,,,,0,,,72,0
64400,note_on,0,0,1,,,,,,,,,0,,,67,0
64400,note_on,0,0,1,,,,,,,,,0,,,73,101
64400,note_on,80,0,3,,,,,,,,,2,,,63,0
64479,note_on,0,0,3,,,,,,,,,2,,,63,88
64479,note_on,79,0,1,,,,,,,,,0,,,73,0
64479,note_on,0,0,1,,,,,,,,,0,,,72,101
64479,note_on,79,0,3,,,,,,,,,2,,,65,0
64560,note_on,0,0,3,,,,,,,,,2,,,61,88
64560,note_on,81,0,3,,,,,,,,,2,,,63,0
64560,note_on,81,0,1,,,,,,,,,0,,,72,0
64560,note_on,0,0,1,,,,,,,,,0,,,65,101
64560,note_on,0,0,1,,,,,,,,,0,,,70,101
64640,note_on,0,0,3,,,,,,,,,2,,,63,88
64640,note_on,0,0,1,,,,,,,,,0,,,72,101
64640,note_on,80,0,1,,,,,,,,,0,,,70,0
64640,note_on,80,0,3,,,,,,,,,2,,,61,0
64640,note_on,0,0,1,,,,,,,,,0,,,65,0
64719,note_on,0,0,1,,,,,,,,,0,,,70,101
64719,note_on,79,0,3,,,,,,,,,2,,,63,0
64719,note_on,79,0,1,,,,,,,,,0,,,72,0
64719,note_on,0,0,3,,,,,,,,,2,,,61,88
64800,note_on,0,0,1,,,,,,,,,0,,,63,101
64800,note_on,0,0,3,,,,,,,,,2,,,60,88
64800,note_on,81,0,1,,,,,,,,,0,,,70,0
64800,note_on,81,0,3,,,,,,,,,2,,,61,0
64800,note_on,0,0,1,,,,,,,,,0,,,68,101
64880,note_on,0,0,3,,,,,,,,,2,,,61,88
64880,note_on,0,0,1,,,,,,,,,0,,,63,0
64880,note_on,80,0,1,,,,,,,,,0,,,68,0
64880,note_on,0,0,1,,,,,,,,,0,,,70,101
64880,note_on,80,0,3,,,,,,,,,2,,,60,0
64959,note_on,0,0,1,,,,,,,,,0,,,68,101
64959,note_on,79,0,1,,,,,,,,,0,,,70,0
64959,note_on,79,0,3,,,,,,,,,2,,,61,0
64959,note_on,0,0,3,,,,,,,,,2,,,60,88
65040,note_on,0,0,1,,,,,,,,,0,,,61,101
65040,note_on,0,0,3,,,,,,,,,2,,,58,88
65040,note_on,81,0,3,,,,,,,,,2,,,60,0
65040,note_on,81,0,1,,,,,,,,,0,,,68,0
65040,note_on,0,0,1,,,,,,,,,0,,,67,101
65120,note_on,0,0,3,,,,,,,,,2,,,60,88
65120,note_on,80,0,1,,,,,,,,,0,,,67,0
65120,note_on,0,0,1,,,,,,,,,0,,,68,101
65120,note_on,80,0,3,,,,,,,,,2,,,58,0
65120,note_on,0,0,1,,,,,,,,,0,,,61,0
65199,note_on,79,0,3,,,,,,,,,2,,,60,0
65199,note_on,0,0,1,,,,,,,,,0,,,67,101
65199,note_on,79,0,1,,,,,,,,,0,,,68,0
65199,note_on,0,0,3,,,,,,,,,2,,,58,88
65280,note_on,81,0,3,,,,,,,,,2,,,58,0
65280,note_on,81,0,1,,,,,,,,,0,,,67,0
65280,note_on,0,0,1,,,,,,,,,0,,,65,101
65280,note_on,0,0,3,,,,,,,,,2,,,56,88
65280,note_on,0,0,3,,,,,,,,,2,,,53,88
65360,note_on,0,0,1,,,,,,,,,0,,,67,101
65360,note_on,80,0,1,,,,,,,,,0,,,65,0
65439,note_on,0,0,1,,,,,,,,,0,,,65,101
65439,note_on,79,0,1,,,,,,,,,0,,,67,0
65520,note_on,0,0,1,,,,,,,,,0,,,68,101
65520,note_on,81,0,1,,,,,,,,,0,,,65,0
65520,note_on,0,0,1,,,,,,,,,0,,,72,101
65520,note_on,240,0,3,,,,,,,,,2,,,56,0
65520,note_on,0,0,3,,,,,,,,,2,,,84,88
65520,note_on,0,0,3,,,,,,,,,2,,,80,88
65520,note_on,0,0,3,,,,,,,,,2,,,53,0
65600,note_on,0,0,1,,,,,,,,,0,,,68,0
65600,note_on,80,0,1,,,,,,,,,0,,,72,0
65600,note_on,0,0,1,,,,,,,,,0,,,67,101
65679,note_on,0,0,1,,,,,,,,,0,,,65,101
65679,note_on,79,0,1,,,,,,,,,0,,,67,0
65760,note_on,0,0,1,,,,,,,,,0,,,64,101
65760,note_on,240,0,3,,,,,,,,,2,,,84,0
65760,note_on,0,0,3,,,,,,,,,2,,,80,0
65760,note_on,0,0,3,,,,,,,,,2,,,60,88
65760,note_on,81,0,1,,,,,,,,,0,,,65,0
65840,note_on,0,0,1,,,,,,,,,0,,,65,101
65840,note_on,80,0,1,,,,,,,,,0,,,64,0
65919,note_on,0,0,1,,,,,,,,,0,,,64,101
65919,note_on,79,0,1,,,,,,,,,0,,,65,0
66000,note_on,0,0,1,,,,,,,,,0,,,67,101
66000,note_on,0,0,3,,,,,,,,,2,,,84,88
66000,note_on,0,0,3,,,,,,,,,2,,,82,88
66000,note_on,0,0,1,,,,,,,,,0,,,72,101
66000,note_on,81,0,1,,,,,,,,,0,,,64,0
66000,note_on,240,0,3,,,,,,,,,2,,,60,0
66080,note_on,0,0,1,,,,,,,,,0,,,65,101
66080,note_on,80,0,1,,,,,,,,,0,,,72,0
66080,note_on,0,0,1,,,,,,,,,0,,,67,0
66159,note_on,0,0,1,,,,,,,,,0,,,64,101
66159,note_on,79,0,1,,,,,,,,,0,,,65,0
66240,note_on,0,0,1,,,,,,,,,0,,,65,101
66240,note_on,240,0,3,,,,,,,,,2,,,84,0
66240,note_on,0,0,3,,,,,,,,,2,,,82,0
66240,note_on,0,0,3,,,,,,,,,2,,,53,88
66240,note_on,81,0,1,,,,,,,,,0,,,64,0
66480,note_on,240,0,3,,,,,,,,,2,,,53,0
66480,note_on,0,0,3,,,,,,,,,2,,,68,88
66480,note_on,240,0,1,,,,,,,,,0,,,65,0
66480,note_on,0,0,1,,,,,,,,,0,,,77,101
66480,note_on,0,0,1,,,,,,,,,0,,,72,101
66560,note_on,80,0,1,,,,,,,,,0,,,77,0
66560,note_on,0,0,1,,,,,,,,,0,,,79,101
66560,note_on,0,0,3,,,,,,,,,2,,,70,88
66560,note_on,0,0,1,,,,,,,,,0,,,72,0
66560,note_on,80,0,3,,,,,,,,,2,,,68,0
66639,note_on,79,0,1,,,,,,,,,0,,,79,0
66639,note_on,0,0,3,,,,,,,,,2,,,68,88
66639,note_on,79,0,3,,,,,,,,,2,,,70,0
66639,note_on,0,0,1,,,,,,,,,0,,,77,101
66720,note_on,0,0,1,,,,,,,,,0,,,75,101
66720,note_on,0,0,1,,,,,,,,,0,,,70,101
66720,note_on,0,0,3,,,,,,,,,2,,,67,88
66720,note_on,81,0,3,,,,,,,,,2,,,68,0
66720,note_on,81,0,1,,,,,,,,,0,,,77,0
66800,note_on,0,0,1,,,,,,,,,0,,,70,0
66800,note_on,0,0,3,,,,,,,,,2,,,68,88
66800,note_on,0,0,1,,,,,,,,,0,,,77,101
66800,note_on,80,0,1,,,,,,,,,0,,,75,0
66800,note_on,80,0,3,,,,,,,,,2,,,67,0
66879,note_on,0,0,1,,,,,,,,,0,,,75,101
66879,note_on,0,0,3,,,,,,,,,2,,,67,88
66879,note_on,79,0,3,,,,,,,,,2,,,68,0
66879,note_on,79,0,1,,,,,,,,,0,,,77,0
66960,note_on,0,0,1,,,,,,,,,0,,,68,101
66960,note_on,0,0,1,,,,,,,,,0,,,73,101
66960,note_on,81,0,1,,,,,,,,,0,,,75,0
66960,note_on,0,0,3,,,,,,,,,2,,,65,88
66960,note_on,81,0,3,,,,,,,,,2,,,67,0
67040,note_on,80,0,3,,,,,,,,,2,,,65,0
67040,note_on,0,0,1,,,,,,,,,0,,,68,0
67040,note_on,0,0,1,,,,,,,,,0,,,75,101
67040,note_on,0,0,3,,,,,,,,,2,,,67,88
67040,note_on,80,0,1,,,,,,,,,0,,,73,0
67119,note_on,79,0,1,,,,,,,,,0,,,75,0
67119,note_on,0,0,3,,,,,,,,,2,,,65,88
67119,note_on,79,0,3,,,,,,,,,2,,,67,0
67119,note_on,0,0,1,,,,,,,,,0,,,73,101
67200,note_on,0,0,3,,,,,,,,,2,,,63,88
67200,note_on,0,0,1,,,,,,,,,0,,,72,101
67200,note_on,0,0,1,,,,,,,,,0,,,67,101
67200,note_on,81,0,3,,,,,,,,,2,,,65,0
67200,note_on,81,0,1,,,,,,,,,0,,,73,0
67280,note_on,80,0,3,,,,,,,,,2,,,63,0
67280,note_on,80,0,1,,,,,,,,,0,,,72,0
67280,note_on,0,0,3,,,,,,,,,2,,,65,88
67280,note_on,0,0,1,,,,,,,,,0,,,67,0
67280,note_on,0,0,1,,,,,,,,,0,,,73,101
67359,note_on,79,0,3,,,,,,,,,2,,,65,0
67359,note_on,0,0,3,,,,,,,,,2,,,63,88
67359,note_on,79,0,1,,,,,,,,,0,,,73,0
67359,note_on,0,0,1,,,,,,,,,0,,,72,101
67440,note_on,81,0,1,,,,,,,,,0,,,72,0
67440,note_on,81,0,3,,,,,,,,,2,,,63,0
67440,note_on,0,0,3,,,,,,,,,2,,,61,88
67440,note_on,0,0,1,,,,,,,,,0,,,65,101
67440,note_on,0,0,1,,,,,,,,,0,,,70,101
67520,note_on,0,0,3,,,,,,,,,2,,,63,88
67520,note_on,80,0,3,,,,,,,,,2,,,61,0
67520,note_on,80,0,1,,,,,,,,,0,,,70,0
67520,note_on,0,0,1,,,,,,,,,0,,,65,0
67520,note_on,0,0,1,,,,,,,,,0,,,72,101
67599,note_on,0,0,1,,,,,,,,,0,,,70,101
67599,note_on,79,0,1,,,,,,,,,0,,,72,0
67599,note_on,79,0,3,,,,,,,,,2,,,63,0
67599,note_on,0,0,3,,,,,,,,,2,,,61,88
67680,note_on,0,0,3,,,,,,,,,2,,,60,88
67680,note_on,0,0,1,,,,,,,,,0,,,68,101
67680,note_on,81,0,3,,,,,,,,,2,,,61,0
67680,note_on,81,0,1,,,,,,,,,0,,,70,0
67680,note_on,0,0,1,,,,,,,,,0,,,63,101
67760,note_on,0,0,1,,,,,,,,,0,,,63,0
67760,note_on,80,0,3,,,,,,,,,2,,,60,0
67760,note_on,80,0,1,,,,,,,,,0,,,68,0
67760,note_on,0,0,1,,,,,,,,,0,,,70,101
67760,note_on,0,0,3,,,,,,,,,2,,,61,88
67839,note_on,79,0,1,,,,,,,,,0,,,70,0
67839,note_on,0,0,1,,,,,,,,,0,,,68,101
67839,note_on,79,0,3,,,,,,,,,2,,,61,0
67839,note_on,0,0,3,,,,,,,,,2,,,60,88
67920,note_on,0,0,1,,,,,,,,,0,,,67,101
67920,note_on,0,0,3,,,,,,,,,2,,,58,88
67920,note_on,81,0,1,,,,,,,,,0,,,68,0
67920,note_on,81,0,3,,,,,,,,,2,,,60,0
67920,note_on,0,0,1,,,,,,,,,0,,,61,101
68000,note_on,0,0,1,,,,,,,,,0,,,61,0
68000,note_on,0,0,1,,,,,,,,,0,,,68,101
68000,note_on,0,0,3,,,,,,,,,2,,,60,88
68000,note_on,80,0,1,,,,,,,,,0,,,67,0
68000,note_on,80,0,3,,,,,,,,,2,,,58,0
68079,note_on,79,0,3,,,,,,,,,2,,,60,0
68079,note_on,0,0,1,,,,,,,,,0,,,67,101
68079,note_on,0,0,3,,,,,,,,,2,,,58,88
68079,note_on,79,0,1,,,,,,,,,0,,,68,0
68160,note_on,0,0,1,,,,,,,,,0,,,65,101
68160,note_on,0,0,3,,,,,,,,,2,,,53,88
68160,note_on,0,0,3,,,,,,,,,2,,,56,88
68160,note_on,81,0,3,,,,,,,,,2,,,58,0
68160,note_on,81,0,1,,,,,,,,,0,,,67,0
68240,note_on,80,0,1,,,,,,,,,0,,,65,0
68240,note_on,0,0,1,,,,,,,,,0,,,67,101
68319,note_on,0,0,1,,,,,,,,,0,,,65,101
68319,note_on,79,0,1,,,,,,,,,0,,,67,0
68400,note_on,81,0,1,,,,,,,,,0,,,65,0
68400,note_on,0,0,1,,,,,,,,,0,,,72,101
68400,note_on,0,0,1,,,,,,,,,0,,,68,101
68400,note_on,0,0,3,,,,,,,,,2,,,53,0
68400,note_on,240,0,3,,,,,,,,,2,,,56,0
68400,note_on,0,0,3,,,,,,,,,2,,,84,88
68400,note_on,0,0,3,,,,,,,,,2,,,80,88
68480,note_on,80,0,1,,,,,,,,,0,,,72,0
68480,note_on,0,0,1,,,,,,,,,0,,,67,101
68480,note_on,0,0,1,,,,,,,,,0,,,68,0
68559,note_on,0,0,1,,,,,,,,,0,,,65,101
68559,note_on,79,0,1,,,,,,,,,0,,,67,0
68640,note_on,240,0,3,,,,,,,,,2,,,84,0
68640,note_on,0,0,3,,,,,,,,,2,,,60,88
68640,note_on,0,0,1,,,,,,,,,0,,,64,101
68640,note_on,0,0,3,,,,,,,,,2,,,80,0
68640,note_on,81,0,1,,,,,,,,,0,,,65,0
68720,note_on,80,0,1,,,,,,,,,0,,,64,0
68720,note_on,0,0,1,,,,,,,,,0,,,65,101
68799,note_on,79,0,1,,,,,,,,,0,,,65,0
68799,note_on,0,0,1,,,,,,,,,0,,,64,101
68880,note_on,240,0,3,,,,,,,,,2,,,60,0
68880,note_on,0,0,3,,,,,,,,,2,,,82,88
68880,note_on,0,0,3,,,,,,,,,2,,,84,88
68880,note_on,0,0,1,,,,,,,,,0,,,67,101
68880,note_on,0,0,1,,,,,,,,,0,,,72,101
68880,note_on,81,0,1,,,,,,,,,0,,,64,0
68960,note_on,0,0,1,,,,,,,,,0,,,65,101
68960,note_on,80,0,1,,,,,,,,,0,,,72,0
68960,note_on,0,0,1,,,,,,,,,0,,,67,0
69039,note_on,79,0,1,,,,,,,,,0,,,65,0
69039,note_on,0,0,1,,,,,,,,,0,,,64,101
69120,note_on,240,0,3,,,,,,,,,2,,,84,0
69120,note_on,0,0,1,,,,,,,,,0,,,65,101
69120,note_on,81,0,1,,,,,,,,,0,,,64,0
69120,note_on,0,0,3,,,,,,,,,2,,,53,88
69120,note_on,0,0,3,,,,,,,,,2,,,56,88
69120,note_on,0,0,3,,,,,,,,,2,,,82,0
69200,note_on,80,0,1,,,,,,,,,0,,,65,0
69200,note_on,0,0,1,,,,,,,,,0,,,67,101
69279,note_on,79,0,1,,,,,,,,,0,,,67,0
69279,note_on,0,0,1,,,,,,,,,0,,,65,101
69360,note_on,81,0,1,,,,,,,,,0,,,65,0
69360,note_on,0,0,3,,,,,,,,,2,,,53,0
69360,note_on,0,0,3,,,,,,,,,2,,,80,88
69360,note_on,0,0,3,,,,,,,,,2,,,84,88
69360,note_on,0,0,1,,,,,,,,,0,,,72,101
69360,note_on,240,0,3,,,,,,,,,2,,,56,0
69360,note_on,0,0,1,,,,,,,,,0,,,68,101
69440,note_on,80,0,1,,,,,,,,,0,,,72,0
69440,note_on,0,0,1,,,,,,,,,0,,,67,101
69440,note_on,0,0,1,,,,,,,,,0,,,68,0
69519,note_on,0,0,1,,,,,,,,,0,,,65,101
69519,note_on,79,0,1,,,,,,,,,0,,,67,0
69600,note_on,81,0,1,,,,,,,,,0,,,65,0
69600,note_on,240,0,3,,,,,,,,,2,,,84,0
69600,note_on,0,0,3,,,,,,,,,2,,,80,0
69600,note_on,0,0,1,,,,,,,,,0,,,64,101
69600,note_on,0,0,3,,,,,,,,,2,,,60,88
69680,note_on,80,0,1,,,,,,,,,0,,,64,0
69680,note_on,0,0,1,,,,,,,,,0,,,65,101
69759,note_on,0,0,1,,,,,,,,,0,,,64,101
69759,note_on,79,0,1,,,,,,,,,0,,,65,0
69840,note_on,0,0,1,,,,,,,,,0,,,72,101
69840,note_on,0,0,1,,,,,,,,,0,,,67,101
69840,note_on,0,0,3,,,,,,,,,2,,,84,88
69840,note_on,81,0,1,,,,,,,,,0,,,64,0
69840,note_on,0,0,3,,,,,,,,,2,,,82,88
69840,note_on,240,0,3,,,,,,,,,2,,,60,0
69920,note_on,80,0,1,,,,,,,,,0,,,72,0
69920,note_on,0,0,1,,,,,,,,,0,,,65,101
69920,note_on,0,0,1,,,,,,,,,0,,,67,0
69999,note_on,79,0,1,,,,,,,,,0,,,65,0
69999,note_on,0,0,1,,,,,,,,,0,,,64,101
70080,note_on,0,0,3,,,,,,,,,2,,,56,88
70080,note_on,0,0,3,,,,,,,,,2,,,82,0
70080,note_on,0,0,3,,,,,,,,,2,,,53,88
70080,note_on,0,0,1,,,,,,,,,0,,,65,101
70080,note_on,240,0,3,,,,,,,,,2,,,84,0
70080,note_on,81,0,1,,,,,,,,,0,,,64,0
70160,note_on,80,0,1,,,,,,,,,0,,,65,0
70160,note_on,0,0,1,,,,,,,,,0,,,67,101
70239,note_on,79,0,1,,,,,,,,,0,,,67,0
70239,note_on,0,0,1,,,,,,,,,0,,,65,101
70320,note_on,0,0,1,,,,,,,,,0,,,68,101
70320,note_on,0,0,3,,,,,,,,,2,,,53,0
70320,note_on,0,0,1,,,,,,,,,0,,,72,101
70320,note_on,0,0,3,,,,,,,,,2,,,80,88
70320,note_on,240,0,3,,,,,,,,,2,,,56,0
70320,note_on,81,0,1,,,,,,,,,0,,,65,0
70320,note_on,0,0,3,,,,,,,,,2,,,84,88
70400,note_on,80,0,1,,,,,,,,,0,,,72,0
70400,note_on,0,0,1,,,,,,,,,0,,,67,101
70400,note_on,0,0,1,,,,,,,,,0,,,68,0
70479,note_on,79,0,1,,,,,,,,,0,,,67,0
70479,note_on,0,0,1,,,,,,,,,0,,,65,101
70560,note_on,0,0,3,,,,,,,,,2,,,60,88
70560,note_on,0,0,3,,,,,,,,,2,,,80,0
70560,note_on,240,0,3,,,,,,,,,2,,,84,0
70560,note_on,81,0,1,,,,,,,,,0,,,65,0
70560,note_on,0,0,1,,,,,,,,,0,,,64,101
70640,note_on,80,0,1,,,,,,,,,0,,,64,0
70640,note_on,0,0,1,,,,,,,,,0,,,65,101
70719,note_on,79,0,1,,,,,,,,,0,,,65,0
70719,note_on,0,0,1,,,,,,,,,0,,,64,101
70800,note_on,240,0,3,,,,,,,,,2,,,60,0
70800,note_on,0,0,1,,,,,,,,,0,,,72,101
70800,note_on,0,0,1,,,,,,,,,0,,,67,101
70800,note_on,81,0,1,,,,,,,,,0,,,64,0
70800,note_on,0,0,3,,,,,,,,,2,,,82,88
70800,note_on,0,0,3,,,,,,,,,2,,,84,88
70880,note_on,0,0,1,,,,,,,,,0,,,67,0
70880,note_on,0,0,1,,,,,,,,,0,,,65,101
70880,note_on,80,0,1,,,,,,,,,0,,,72,0
70959,note_on,0,0,1,,,,,,,,,0,,,64,101
70959,note_on,79,0,1,,,,,,,,,0,,,65,0
71040,note_on,81,0,1,,,,,,,,,0,,,64,0
71040,note_on,0,0,3,,,,,,,,,2,,,36,101
71040,note_on,0,0,3,,,,,,,,,2,,,82,0
71040,note_on,240,0,3,,,,,,,,,2,,,84,0
71100,note_on,60,0,3,,,,,,,,,2,,,36,0
71100,note_on,0,0,3,,,,,,,,,2,,,40,101
71160,note_on,0,0,3,,,,,,,,,2,,,43,101
71160,note_on,60,0,3,,,,,,,,,2,,,40,0
71220,note_on,60,0,3,,,,,,,,,2,,,43,0
71220,note_on,0,0,3,,,,,,,,,2,,,46,101
71280,note_on,0,0,3,,,,,,,,,2,,,48,101
71280,note_on,60,0,3,,,,,,,,,2,,,46,0
71340,note_on,60,0,3,,,,,,,,,2,,,48,0
71340,note_on,0,0,3,,,,,,,,,2,,,50,101
71400,note_on,60,0,3,,,,,,,,,2,,,50,0
71400,note_on,0,0,3,,,,,,,,,2,,,52,101
71460,note_on,60,0,3,,,,,,,,,2,,,52,0
71460,note_on,0,0,3,,,,,,,,,2,,,53,101
71520,note_on,0,0,3,,,,,,,,,2,,,55,101
71520,note_on,60,0,3,,,,,,,,,2,,,53,0
71580,note_on,0,0,3,,,,,,,,,2,,,56,101
71580,note_on,60,0,3,,,,,,,,,2,,,55,0
71640,note_on,60,0,3,,,,,,,,,2,,,56,0
71640,note_on,0,0,3,,,,,,,,,2,,,58,101
71700,note_on,60,0,3,,,,,,,,,2,,,58,0
71700,note_on,0,0,3,,,,,,,,,2,,,60,101
71760,note_on,60,0,3,,,,,,,,,2,,,60,0
71760,note_on,720,0,1,,,,,,,,,0,,,62,101
71820,note_on,60,0,1,,,,,,,,,0,,,62,0
71820,note_on,0,0,1,,,,,,,,,0,,,64,101
71880,note_on,0,0,1,,,,,,,,,0,,,65,101
71880,note_on,60,0,1,,,,,,,,,0,,,64,0
71940,note_on,60,0,1,,,,,,,,,0,,,65,0
71940,note_on,0,0,1,,,,,,,,,0,,,67,101
72000,note_on,0,0,1,,,,,,,,,0,,,68,101
72000,note_on,60,0,1,,,,,,,,,0,,,67,0
72050,note_on,50,0,1,,,,,,,,,0,,,68,0
72050,note_on,0,0,1,,,,,,,,,0,,,70,101
72101,note_on,0,0,1,,,,,,,,,0,,,72,101
72101,note_on,51,0,1,,,,,,,,,0,,,70,0
72151,note_on,50,0,1,,,,,,,,,0,,,72,0
72151,note_on,0,0,1,,,,,,,,,0,,,74,101
72202,note_on,51,0,1,,,,,,,,,0,,,74,0
72202,note_on,0,0,1,,,,,,,,,0,,,76,101
72252,note_on,50,0,1,,,,,,,,,0,,,76,0
72252,note_on,0,0,1,,,,,,,,,0,,,77,101
72303,note_on,0,0,1,,,,,,,,,0,,,79,101
72303,note_on,51,0,1,,,,,,,,,0,,,77,0
72353,note_on,50,0,1,,,,,,,,,0,,,79,0
72353,note_on,0,0,1,,,,,,,,,0,,,80,101
72404,note_on,51,0,1,,,,,,,,,0,,,80,0
72404,note_on,0,0,1,,,,,,,,,0,,,82,101
72454,note_on,0,0,1,,,,,,,,,0,,,84,101
72454,note_on,50,0,1,,,,,,,,,0,,,82,0
72505,note_on,0,0,1,,,,,,,,,0,,,86,101
72505,note_on,51,0,1,,,,,,,,,0,,,84,0
72555,note_on,50,0,1,,,,,,,,,0,,,86,0
72555,note_on,0,0,1,,,,,,,,,0,,,88,101
72606,note_on,0,0,1,,,,,,,,,0,,,89,101
72606,note_on,51,0,1,,,,,,,,,0,,,88,0
72656,note_on,50,0,1,,,,,,,,,0,,,89,0
72656,note_on,0,0,1,,,,,,,,,0,,,91,101
72707,note_on,51,0,1,,,,,,,,,0,,,91,0
72707,note_on,0,0,1,,,,,,,,,0,,,92,101
72757,note_on,50,0,1,,,,,,,,,0,,,92,0
72757,note_on,0,0,1,,,,,,,,,0,,,94,101
72808,note_on,0,0,1,,,,,,,,,0,,,96,101
72808,note_on,51,0,1,,,,,,,,,0,,,94,0
72859,note_on,0,0,1,,,,,,,,,0,,,98,101
72859,note_on,51,0,1,,,,,,,,,0,,,96,0
72909,note_on,50,0,1,,,,,,,,,0,,,98,0
72909,note_on,0,0,1,,,,,,,,,0,,,100,101
72960,note_on,0,0,1,,,,,,,,,0,,,101,127
72960,note_on,51,0,1,,,,,,,,,0,,,100,0
73440,note_on,480,0,1,,,,,,,,,0,,,101,0
73440,note_on,0,0,1,,,,,,,,,0,,,65,101
73440,note_on,0,0,1,,,,,,,,,0,,,59,101
73440,note_on,0,0,3,,,,,,,,,2,,,41,88
73440,note_on,0,0,3,,,,,,,,,2,,,43,88
73440,note_on,0,0,3,,,,,,,,,2,,,49,88
73440,note_on,0,0,1,,,,,,,,,0,,,55,101
73440,note_on,0,0,1,,,,,,,,,0,,,53,101
73440,note_on,1680,0,3,,,,,,,,,2,,,37,88
73920,note_on,0,0,1,,,,,,,,,0,,,53,0
73920,note_on,0,0,1,,,,,,,,,0,,,55,0
73920,note_on,0,0,1,,,,,,,,,0,,,59,0
73920,note_on,0,0,1,,,,,,,,,0,,,60,101
73920,note_on,0,0,1,,,,,,,,,0,,,65,101
73920,note_on,0,0,3,,,,,,,,,2,,,48,88
73920,note_on,0,0,1,,,,,,,,,0,,,68,101
73920,note_on,0,0,3,,,,,,,,,2,,,41,88
73920,note_on,0,0,3,,,,,,,,,2,,,44,88
73920,note_on,0,0,3,,,,,,,,,2,,,43,0
73920,note_on,0,0,3,,,,,,,,,2,,,41,0
73920,note_on,0,0,3,,,,,,,,,2,,,37,0
73920,note_on,0,0,3,,,,,,,,,2,,,36,88
73920,note_on,480,0,1,,,,,,,,,0,,,65,0
73920,note_on,0,0,1,,,,,,,,,0,,,56,101
73920,note_on,480,0,3,,,,,,,,,2,,,49,0
74880,note_on,0,0,3,,,,,,,,,2,,,36,88
74880,note_on,960,0,3,,,,,,,,,2,,,48,0
74880,note_on,0,0,1,,,,,,,,,0,,,60,0
74880,note_on,960,0,1,,,,,,,,,0,,,68,0
74880,note_on,0,0,3,,,,,,,,,2,,,44,0
74880,note_on,0,0,3,,,,,,,,,2,,,41,0
74880,note_on,0,0,3,,,,,,,,,2,,,36,0
74880,note_on,0,0,1,,,,,,,,,0,,,58,101
74880,note_on,0,0,1,,,,,,,,,0,,,64,101
74880,note_on,0,0,1,,,,,,,,,0,,,56,0
74880,note_on,29520,0,2,,,,,,,,,1,,,61,114
74880,note_on,0,0,1,,,,,,,,,0,,,65,0
74960,note_on,80,0,3,,,,,,,,,2,,,36,0
74960,note_on,0,0,3,,,,,,,,,2,,,37,88
75039,note_on,79,0,3,,,,,,,,,2,,,37,0
75039,note_on,0,0,3,,,,,,,,,2,,,36,88
75120,note_on,81,0,3,,,,,,,,,2,,,36,0
75120,note_on,0,0,3,,,,,,,,,2,,,34,88
75200,note_on,0,0,3,,,,,,,,,2,,,36,88
75200,note_on,80,0,3,,,,,,,,,2,,,34,0
75279,note_on,0,0,3,,,,,,,,,2,,,34,88
75279,note_on,79,0,3,,,,,,,,,2,,,36,0
75360,note_on,81,0,3,,,,,,,,,2,,,34,0
75360,note_on,0,0,2,,,,,,,,,1,,,60,75
75360,note_on,0,0,3,,,,,,,,,2,,,32,75
75360,note_on,480,0,2,,,,,,,,,1,,,61,0
75440,note_on,80,0,3,,,,,,,,,2,,,32,0
75440,note_on,0,0,3,,,,,,,,,2,,,34,75
75519,note_on,0,0,3,,,,,,,,,2,,,32,75
75519,note_on,79,0,3,,,,,,,,,2,,,34,0
75600,note_on,0,0,3,,,,,,,,,2,,,31,75
75600,note_on,81,0,3,,,,,,,,,2,,,32,0
75680,note_on,0,0,3,,,,,,,,,2,,,32,75
75680,note_on,80,0,3,,,,,,,,,2,,,31,0
75759,note_on,0,0,3,,,,,,,,,2,,,31,75
75759,note_on,79,0,3,,,,,,,,,2,,,32,0
75840,note_on,0,0,1,,,,,,,,,0,,,58,0
75840,note_on,0,0,1,,,,,,,,,0,,,56,62
75840,note_on,81,0,3,,,,,,,,,2,,,31,0
75840,note_on,960,0,1,,,,,,,,,0,,,64,0
75840,end_of_track,0,1,0,,,,,,,,,,,,,
75840,note_on,0,0,3,,,,,,,,,2,,,29,62
75840,note_on,0,0,1,,,,,,,,,0,,,65,62
75840,time_signature,75812,1,0,8,4,24,8,,,,,,,,,
76800,end_of_track,0,1,2,,,,,,,,,,,,,
76800,note_on,1440,0,2,,,,,,,,,1,,,60,0
76800,note_on,960,0,3,,,,,,,,,2,,,29,0
76800,note_on,0,0,1,,,,,,,,,0,,,56,0
76800,note_on,960,0,1,,,,,,,,,0,,,65,0
76800,end_of_track,0,1,3,,,,,,,,,,,,,
76800,control_change,0,0,1,,,,,,,,,0,64,127,,
79200,end_of_track,0,1,1,,,,,,,,,,,,,
79200,control_change,2400,0,1,,,,,,,,,0,64,0,,
