tick,type,time,meta,track,numerator,denominator,clocks_per_click,notated_32nd_notes_per_beat,key,tempo,port,program,channel,control,value,note,velocity
0,control_change,0,0,1,,,,,,,,,0,7,127,,
0,control_change,0,0,4,,,,,,,,,3,7,127,,
0,control_change,0,0,4,,,,,,,,,3,10,30,,
0,copyright,0,1,0,,,,,,,,,,,,,
0,key_signature,0,1,0,,,,,Db,,,,,,,,
0,midi_port,0,1,1,,,,,,,0,,,,,,
0,midi_port,0,1,2,,,,,,,0,,,,,,
0,midi_port,0,1,3,,,,,,,0,,,,,,
0,midi_port,0,1,4,,,,,,,0,,,,,,
0,note_on,0,0,1,,,,,,,,,0,,,77,75
0,note_on,0,0,2,,,,,,,,,1,,,65,49
0,control_change,0,0,3,,,,,,,,,2,10,30,,
0,note_on,0,0,3,,,,,,,,,2,,,61,49
0,program_change,0,0,1,,,,,,,,0,0,,,,
0,program_change,0,0,2,,,,,,,,0,1,,,,
0,program_change,0,0,3,,,,,,,,0,2,,,,
0,program_change,0,0,4,,,,,,,,0,3,,,,
0,set_tempo,0,1,0,,,,,,625000,,,,,,,
0,text,0,1,0,,,,,,,,,,,,,
0,time_signature,0,1,0,2,4,24,8,,,,,,,,,
0,track_name,0,1,0,,,,,,,,,,,,,
0,track_name,0,1,1,,,,,,,,,,,,,
0,track_name,0,1,2,,,,,,,,,,,,,
0,track_name,0,1,3,,,,,,,,,,,,,
0,control_change,0,0,3,,,,,,,,,2,7,127,,
0,track_name,0,1,4,,,,,,,,,,,,,
0,control_change,0,0,1,,,,,,,,,0,10,97,,
0,control_change,0,0,2,,,,,,,,,1,10,97,,
0,control_change,0,0,2,,,,,,,,,1,7,127,,
1,copyright,1,1,5,,,,,,,,,,,,,
1,end_of_track,0,1,5,,,,,,,,,,,,,
20,set_tempo,20,1,0,,,,,,652174,,,,,,,
120,note_on,0,0,3,,,,,,,,,2,,,49,49
120,note_on,120,0,2,,,,,,,,,1,,,65,0
120,note_on,0,0,2,,,,,,,,,1,,,73,49
120,note_on,120,0,3,,,,,,,,,2,,,61,0
240,note_on,0,0,1,,,,,,,,,0,,,78,75
240,note_on,0,0,3,,,,,,,,,2,,,63,49
240,note_on,240,0,1,,,,,,,,,0,,,77,0
240,note_on,120,0,3,,,,,,,,,2,,,49,0
240,note_on,0,0,2,,,,,,,,,1,,,66,49
240,note_on,120,0,2,,,,,,,,,1,,,73,0
360,note_on,120,0,2,,,,,,,,,1,,,66,0
360,note_on,0,0,3,,,,,,,,,2,,,49,49
360,note_on,0,0,2,,,,,,,,,1,,,73,49
360,note_on,120,0,3,,,,,,,,,2,,,63,0
480,note_on,0,0,1,,,,,,,,,0,,,79,75
480,note_on,120,0,3,,,,,,,,,2,,,49,0
480,note_on,0,0,3,,,,,,,,,2,,,64,49
480,note_on,240,0,1,,,,,,,,,0,,,78,0
480,note_on,0,0,2,,,,,,,,,1,,,67,49
480,note_on,120,0,2,,,,,,,,,1,,,73,0
600,note_on,0,0,3,,,,,,,,,2,,,49,49
600,note_on,120,0,2,,,,,,,,,1,,,67,0
600,note_on,120,0,3,,,,,,,,,2,,,64,0
600,note_on,0,0,2,,,,,,,,,1,,,73,49
720,note_on,120,0,2,,,,,,,,,1,,,73,0
720,note_on,0,0,2,,,,,,,,,1,,,68,49
720,note_on,240,0,1,,,,,,,,,0,,,79,0
720,note_on,0,0,3,,,,,,,,,2,,,65,75
720,note_on,0,0,1,,,,,,,,,0,,,80,75
720,note_on,120,0,3,,,,,,,,,2,,,49,0
840,note_on,0,0,2,,,,,,,,,1,,,73,49
840,note_on,0,0,3,,,,,,,,,2,,,49,49
840,note_on,120,0,2,,,,,,,,,1,,,68,0
840,note_on,120,0,3,,,,,,,,,2,,,65,0
960,note_on,0,0,3,,,,,,,,,2,,,61,49
960,note_on,0,0,1,,,,,,,,,0,,,77,75
960,note_on,120,0,2,,,,,,,,,1,,,73,0
960,note_on,240,0,1,,,,,,,,,0,,,80,0
960,note_on,120,0,3,,,,,,,,,2,,,49,0
960,note_on,0,0,2,,,,,,,,,1,,,65,49
1080,note_on,0,0,3,,,,,,,,,2,,,49,49
1080,note_on,120,0,3,,,,,,,,,2,,,61,0
1080,note_on,0,0,2,,,,,,,,,1,,,68,49
1080,note_on,120,0,2,,,,,,,,,1,,,65,0
1200,note_on,120,0,3,,,,,,,,,2,,,49,0
1200,note_on,0,0,2,,,,,,,,,1,,,64,49
1200,note_on,120,0,2,,,,,,,,,1,,,68,0
1200,note_on,0,0,3,,,,,,,,,2,,,60,49
1320,note_on,120,0,2,,,,,,,,,1,,,64,0
1320,note_on,0,0,2,,,,,,,,,1,,,68,49
1320,note_on,0,0,3,,,,,,,,,2,,,49,49
1320,note_on,120,0,3,,,,,,,,,2,,,60,0
1440,note_on,120,0,3,,,,,,,,,2,,,49,0
1440,note_on,120,0,2,,,,,,,,,1,,,68,0
1440,note_on,0,0,2,,,,,,,,,1,,,65,49
1440,note_on,0,0,3,,,,,,,,,2,,,61,49
1560,note_on,0,0,2,,,,,,,,,1,,,68,49
1560,note_on,120,0,3,,,,,,,,,2,,,61,0
1560,note_on,0,0,3,,,,,,,,,2,,,49,49
1560,note_on,120,0,2,,,,,,,,,1,,,65,0
1680,note_on,720,0,1,,,,,,,,,0,,,77,0
1680,note_on,120,0,3,,,,,,,,,2,,,49,0
1680,note_on,0,0,2,,,,,,,,,1,,,65,49
1680,note_on,0,0,3,,,,,,,,,2,,,56,49
1680,note_on,0,0,1,,,,,,,,,0,,,73,75
1680,note_on,120,0,2,,,,,,,,,1,,,68,0
1800,note_on,120,0,3,,,,,,,,,2,,,56,0
1800,note_on,0,0,3,,,,,,,,,2,,,49,49
1800,note_on,0,0,2,,,,,,,,,1,,,68,49
1800,note_on,120,0,2,,,,,,,,,1,,,65,0
1920,note_on,120,0,2,,,,,,,,,1,,,68,0
1920,note_on,0,0,3,,,,,,,,,2,,,60,49
1920,note_on,0,0,1,,,,,,,,,0,,,75,75
1920,note_on,240,0,1,,,,,,,,,0,,,73,0
1920,note_on,120,0,3,,,,,,,,,2,,,49,0
1920,note_on,0,0,2,,,,,,,,,1,,,66,49
2040,note_on,0,0,3,,,,,,,,,2,,,49,49
2040,note_on,120,0,3,,,,,,,,,2,,,60,0
2040,note_on,0,0,2,,,,,,,,,1,,,68,49
2040,note_on,120,0,2,,,,,,,,,1,,,66,0
2160,note_on,0,0,3,,,,,,,,,2,,,56,49
2160,note_on,240,0,1,,,,,,,,,0,,,75,0
2160,note_on,120,0,3,,,,,,,,,2,,,49,0
2160,note_on,0,0,1,,,,,,,,,0,,,74,75
2160,note_on,120,0,2,,,,,,,,,1,,,68,0
2160,note_on,0,0,2,,,,,,,,,1,,,66,49
2280,note_on,0,0,2,,,,,,,,,1,,,68,49
2280,note_on,120,0,2,,,,,,,,,1,,,66,0
2280,note_on,0,0,3,,,,,,,,,2,,,49,49
2280,note_on,120,0,3,,,,,,,,,2,,,56,0
2400,note_on,120,0,3,,,,,,,,,2,,,49,0
2400,note_on,0,0,1,,,,,,,,,0,,,75,75
2400,note_on,240,0,1,,,,,,,,,0,,,74,0
2400,note_on,0,0,3,,,,,,,,,2,,,60,49
2400,note_on,120,0,2,,,,,,,,,1,,,68,0
2400,note_on,0,0,2,,,,,,,,,1,,,66,49
2520,note_on,120,0,2,,,,,,,,,1,,,66,0
2520,note_on,0,0,3,,,,,,,,,2,,,49,49
2520,note_on,120,0,3,,,,,,,,,2,,,60,0
2520,note_on,0,0,2,,,,,,,,,1,,,68,49
2640,note_on,0,0,1,,,,,,,,,0,,,76,75
2640,note_on,0,0,2,,,,,,,,,1,,,66,49
2640,note_on,0,0,3,,,,,,,,,2,,,56,49
2640,note_on,240,0,1,,,,,,,,,0,,,75,0
2640,note_on,120,0,2,,,,,,,,,1,,,68,0
2640,note_on,120,0,3,,,,,,,,,2,,,49,0
2760,note_on,0,0,2,,,,,,,,,1,,,68,49
2760,note_on,120,0,3,,,,,,,,,2,,,56,0
2760,note_on,120,0,2,,,,,,,,,1,,,66,0
2760,note_on,0,0,3,,,,,,,,,2,,,49,49
2880,note_on,0,0,2,,,,,,,,,1,,,66,49
2880,note_on,240,0,1,,,,,,,,,0,,,76,0
2880,note_on,120,0,3,,,,,,,,,2,,,49,0
2880,note_on,120,0,2,,,,,,,,,1,,,68,0
2880,note_on,0,0,3,,,,,,,,,2,,,60,49
2880,note_on,0,0,1,,,,,,,,,0,,,72,75
2880,note_on,0,0,1,,,,,,,,,0,,,76,75
3000,note_on,120,0,3,,,,,,,,,2,,,60,0
3000,note_on,120,0,2,,,,,,,,,1,,,66,0
3000,note_on,0,0,3,,,,,,,,,2,,,49,49
3000,note_on,0,0,2,,,,,,,,,1,,,68,49
3120,note_on,120,0,3,,,,,,,,,2,,,49,0
3120,note_on,0,0,2,,,,,,,,,1,,,66,49
3120,note_on,120,0,2,,,,,,,,,1,,,68,0
3120,note_on,0,0,3,,,,,,,,,2,,,56,49
3240,note_on,0,0,3,,,,,,,,,2,,,49,49
3240,note_on,120,0,3,,,,,,,,,2,,,56,0
3240,note_on,120,0,2,,,,,,,,,1,,,66,0
3240,note_on,0,0,2,,,,,,,,,1,,,68,49
3360,note_on,120,0,3,,,,,,,,,2,,,49,0
3360,note_on,480,0,1,,,,,,,,,0,,,76,0
3360,note_on,120,0,2,,,,,,,,,1,,,68,0
3360,note_on,0,0,1,,,,,,,,,0,,,77,75
3360,note_on,0,0,1,,,,,,,,,0,,,73,75
3360,note_on,0,0,1,,,,,,,,,0,,,72,0
3360,note_on,0,0,3,,,,,,,,,2,,,61,49
3360,note_on,0,0,2,,,,,,,,,1,,,65,49
3480,note_on,0,0,2,,,,,,,,,1,,,68,49
3480,note_on,120,0,2,,,,,,,,,1,,,65,0
3480,note_on,120,0,3,,,,,,,,,2,,,61,0
3480,note_on,0,0,3,,,,,,,,,2,,,49,49
3600,note_on,240,0,1,,,,,,,,,0,,,77,0
3600,note_on,120,0,3,,,,,,,,,2,,,49,0
3600,note_on,0,0,3,,,,,,,,,2,,,56,49
3600,note_on,0,0,1,,,,,,,,,0,,,73,0
3600,note_on,120,0,2,,,,,,,,,1,,,68,0
3600,note_on,0,0,2,,,,,,,,,1,,,70,49
3660,note_on,60,0,2,,,,,,,,,1,,,70,0
3660,note_on,0,0,2,,,,,,,,,1,,,68,49
3720,note_on,120,0,3,,,,,,,,,2,,,56,0
3720,note_on,0,0,3,,,,,,,,,2,,,49,49
3720,note_on,0,0,2,,,,,,,,,1,,,67,49
3720,note_on,60,0,2,,,,,,,,,1,,,68,0
3780,note_on,0,0,2,,,,,,,,,1,,,68,49
3780,note_on,60,0,2,,,,,,,,,1,,,67,0
3840,note_on,240,0,1,,,,,,,,,0,,,77,75
3840,note_on,0,0,3,,,,,,,,,2,,,61,49
3840,note_on,60,0,2,,,,,,,,,1,,,68,0
3840,note_on,120,0,3,,,,,,,,,2,,,49,0
3840,note_on,0,0,2,,,,,,,,,1,,,65,49
3960,note_on,120,0,3,,,,,,,,,2,,,61,0
3960,note_on,0,0,3,,,,,,,,,2,,,49,49
3960,note_on,120,0,2,,,,,,,,,1,,,65,0
3960,note_on,0,0,2,,,,,,,,,1,,,73,49
4080,note_on,240,0,1,,,,,,,,,0,,,77,0
4080,note_on,0,0,2,,,,,,,,,1,,,66,49
4080,note_on,0,0,3,,,,,,,,,2,,,63,49
4080,note_on,0,0,1,,,,,,,,,0,,,78,75
4080,note_on,120,0,2,,,,,,,,,1,,,73,0
4080,note_on,120,0,3,,,,,,,,,2,,,49,0
4200,note_on,0,0,2,,,,,,,,,1,,,73,49
4200,note_on,0,0,3,,,,,,,,,2,,,49,49
4200,note_on,120,0,2,,,,,,,,,1,,,66,0
4200,note_on,120,0,3,,,,,,,,,2,,,63,0
4320,note_on,0,0,2,,,,,,,,,1,,,67,49
4320,note_on,120,0,3,,,,,,,,,2,,,49,0
4320,note_on,0,0,3,,,,,,,,,2,,,64,49
4320,note_on,120,0,2,,,,,,,,,1,,,73,0
4320,note_on,0,0,1,,,,,,,,,0,,,79,75
4320,note_on,240,0,1,,,,,,,,,0,,,78,0
4440,note_on,120,0,2,,,,,,,,,1,,,67,0
4440,note_on,120,0,3,,,,,,,,,2,,,64,0
4440,note_on,0,0,2,,,,,,,,,1,,,73,49
4440,note_on,0,0,3,,,,,,,,,2,,,49,49
4560,note_on,120,0,2,,,,,,,,,1,,,73,0
4560,note_on,0,0,1,,,,,,,,,0,,,80,75
4560,note_on,0,0,3,,,,,,,,,2,,,65,75
4560,note_on,240,0,1,,,,,,,,,0,,,79,0
4560,note_on,120,0,3,,,,,,,,,2,,,49,0
4560,note_on,0,0,2,,,,,,,,,1,,,68,49
4680,note_on,120,0,3,,,,,,,,,2,,,65,0
4680,note_on,0,0,3,,,,,,,,,2,,,49,49
4680,note_on,120,0,2,,,,,,,,,1,,,68,0
4680,note_on,0,0,2,,,,,,,,,1,,,73,49
4800,note_on,240,0,1,,,,,,,,,0,,,80,0
4800,note_on,120,0,3,,,,,,,,,2,,,49,0
4800,note_on,0,0,1,,,,,,,,,0,,,77,75
4800,note_on,120,0,2,,,,,,,,,1,,,73,0
4800,note_on,0,0,3,,,,,,,,,2,,,61,49
4800,note_on,0,0,2,,,,,,,,,1,,,65,49
4920,note_on,120,0,3,,,,,,,,,2,,,61,0
4920,note_on,120,0,2,,,,,,,,,1,,,65,0
4920,note_on,0,0,2,,,,,,,,,1,,,68,49
4920,note_on,0,0,3,,,,,,,,,2,,,49,49
5040,note_on,120,0,2,,,,,,,,,1,,,68,0
5040,note_on,120,0,3,,,,,,,,,2,,,49,0
5040,note_on,0,0,2,,,,,,,,,1,,,64,49
5040,note_on,0,0,3,,,,,,,,,2,,,60,49
5160,note_on,0,0,3,,,,,,,,,2,,,49,49
5160,note_on,0,0,2,,,,,,,,,1,,,68,49
5160,note_on,120,0,3,,,,,,,,,2,,,60,0
5160,note_on,120,0,2,,,,,,,,,1,,,64,0
5280,note_on,0,0,2,,,,,,,,,1,,,65,49
5280,note_on,120,0,2,,,,,,,,,1,,,68,0
5280,note_on,120,0,3,,,,,,,,,2,,,49,0
5280,note_on,0,0,3,,,,,,,,,2,,,61,49
5400,note_on,0,0,3,,,,,,,,,2,,,49,49
5400,note_on,120,0,2,,,,,,,,,1,,,65,0
5400,note_on,120,0,3,,,,,,,,,2,,,61,0
5400,note_on,0,0,2,,,,,,,,,1,,,68,49
5520,note_on,0,0,3,,,,,,,,,2,,,56,49
5520,note_on,120,0,3,,,,,,,,,2,,,49,0
5520,note_on,0,0,2,,,,,,,,,1,,,65,49
5520,note_on,120,0,2,,,,,,,,,1,,,68,0
5520,note_on,720,0,1,,,,,,,,,0,,,77,0
5520,note_on,0,0,1,,,,,,,,,0,,,73,75
5640,note_on,0,0,1,,,,,,,,,0,,,74,75
5640,note_on,120,0,3,,,,,,,,,2,,,56,0
5640,note_on,0,0,3,,,,,,,,,2,,,49,49
5640,note_on,120,0,2,,,,,,,,,1,,,65,0
5640,note_on,0,0,2,,,,,,,,,1,,,68,49
5640,note_on,120,0,1,,,,,,,,,0,,,73,0
5760,note_on,120,0,2,,,,,,,,,1,,,68,0
5760,note_on,0,0,3,,,,,,,,,2,,,60,49
5760,note_on,120,0,1,,,,,,,,,0,,,74,0
5760,note_on,0,0,1,,,,,,,,,0,,,75,75
5760,note_on,0,0,2,,,,,,,,,1,,,66,49
5760,note_on,120,0,3,,,,,,,,,2,,,49,0
5880,note_on,120,0,2,,,,,,,,,1,,,66,0
5880,note_on,0,0,3,,,,,,,,,2,,,49,49
5880,note_on,120,0,3,,,,,,,,,2,,,60,0
5880,note_on,0,0,2,,,,,,,,,1,,,68,49
6000,note_on,240,0,1,,,,,,,,,0,,,75,0
6000,note_on,120,0,2,,,,,,,,,1,,,68,0
6000,note_on,0,0,3,,,,,,,,,2,,,56,49
6000,note_on,0,0,2,,,,,,,,,1,,,66,49
6000,note_on,0,0,1,,,,,,,,,0,,,74,75
6000,note_on,120,0,3,,,,,,,,,2,,,49,0
6120,note_on,0,0,2,,,,,,,,,1,,,68,49
6120,note_on,0,0,3,,,,,,,,,2,,,49,49
6120,note_on,120,0,3,,,,,,,,,2,,,56,0
6120,note_on,120,0,2,,,,,,,,,1,,,66,0
6240,note_on,0,0,2,,,,,,,,,1,,,66,49
6240,note_on,240,0,1,,,,,,,,,0,,,74,0
6240,note_on,120,0,2,,,,,,,,,1,,,68,0
6240,note_on,0,0,1,,,,,,,,,0,,,75,75
6240,note_on,0,0,3,,,,,,,,,2,,,60,49
6240,note_on,120,0,3,,,,,,,,,2,,,49,0
6360,note_on,120,0,2,,,,,,,,,1,,,66,0
6360,note_on,120,0,3,,,,,,,,,2,,,60,0
6360,note_on,0,0,2,,,,,,,,,1,,,68,49
6360,note_on,0,0,3,,,,,,,,,2,,,49,49
6480,note_on,240,0,1,,,,,,,,,0,,,75,0
6480,note_on,0,0,3,,,,,,,,,2,,,56,49
6480,note_on,120,0,2,,,,,,,,,1,,,68,0
6480,note_on,120,0,3,,,,,,,,,2,,,49,0
6480,note_on,0,0,2,,,,,,,,,1,,,66,49
6480,note_on,0,0,1,,,,,,,,,0,,,72,75
6600,note_on,0,0,2,,,,,,,,,1,,,68,49
6600,note_on,120,0,2,,,,,,,,,1,,,66,0
6600,note_on,120,0,3,,,,,,,,,2,,,56,0
6600,note_on,0,0,3,,,,,,,,,2,,,49,49
6720,note_on,120,0,2,,,,,,,,,1,,,68,0
6720,note_on,0,0,2,,,,,,,,,1,,,65,49
6720,note_on,0,0,1,,,,,,,,,0,,,73,75
6720,note_on,0,0,3,,,,,,,,,2,,,61,49
6720,note_on,240,0,1,,,,,,,,,0,,,72,0
6720,note_on,120,0,3,,,,,,,,,2,,,49,0
6840,note_on,0,0,2,,,,,,,,,1,,,68,49
6840,note_on,120,0,2,,,,,,,,,1,,,65,0
6840,note_on,0,0,3,,,,,,,,,2,,,49,49
6840,note_on,120,0,3,,,,,,,,,2,,,61,0
6960,note_on,120,0,2,,,,,,,,,1,,,68,0
6960,note_on,0,0,2,,,,,,,,,1,,,65,49
6960,note_on,0,0,3,,,,,,,,,2,,,56,49
6960,note_on,120,0,3,,,,,,,,,2,,,49,0
7080,note_on,0,0,2,,,,,,,,,1,,,68,49
7080,note_on,120,0,2,,,,,,,,,1,,,65,0
7080,note_on,120,0,3,,,,,,,,,2,,,56,0
7080,note_on,0,0,3,,,,,,,,,2,,,49,49
7200,note_on,0,0,3,,,,,,,,,2,,,61,49
7200,note_on,0,0,2,,,,,,,,,1,,,65,49
7200,note_on,120,0,3,,,,,,,,,2,,,49,0
7200,note_on,120,0,2,,,,,,,,,1,,,68,0
7320,note_on,0,0,2,,,,,,,,,1,,,68,49
7320,note_on,120,0,3,,,,,,,,,2,,,61,0
7320,note_on,0,0,3,,,,,,,,,2,,,49,49
7320,note_on,120,0,2,,,,,,,,,1,,,65,0
7440,note_on,0,0,2,,,,,,,,,1,,,65,49
7440,note_on,0,0,3,,,,,,,,,2,,,56,49
7440,note_on,120,0,3,,,,,,,,,2,,,49,0
7440,note_on,0,0,1,,,,,,,,,0,,,73,75
7440,note_on,120,0,2,,,,,,,,,1,,,68,0
7440,note_on,720,0,1,,,,,,,,,0,,,73,0
7560,note_on,0,0,3,,,,,,,,,2,,,49,49
7560,note_on,120,0,3,,,,,,,,,2,,,56,0
7560,note_on,0,0,2,,,,,,,,,1,,,68,49
7560,note_on,120,0,1,,,,,,,,,0,,,73,0
7560,note_on,120,0,2,,,,,,,,,1,,,65,0
7560,note_on,0,0,1,,,,,,,,,0,,,74,75
7680,note_on,120,0,2,,,,,,,,,1,,,68,0
7680,note_on,120,0,3,,,,,,,,,2,,,49,0
7680,note_on,120,0,1,,,,,,,,,0,,,74,0
7680,note_on,0,0,3,,,,,,,,,2,,,44,49
7680,note_on,0,0,1,,,,,,,,,0,,,75,75
7680,note_on,0,0,2,,,,,,,,,1,,,63,49
7680,note_on,0,0,2,,,,,,,,,1,,,66,49
7800,note_on,120,0,2,,,,,,,,,1,,,66,0
7800,note_on,0,0,2,,,,,,,,,1,,,63,0
7800,note_on,120,0,3,,,,,,,,,2,,,44,0
7800,note_on,0,0,2,,,,,,,,,1,,,68,49
7800,note_on,0,0,3,,,,,,,,,2,,,56,49
7920,note_on,240,0,1,,,,,,,,,0,,,75,0
7920,note_on,120,0,3,,,,,,,,,2,,,56,0
7920,note_on,0,0,3,,,,,,,,,2,,,60,49
7920,note_on,120,0,2,,,,,,,,,1,,,68,0
7920,note_on,0,0,2,,,,,,,,,1,,,72,49
7920,note_on,0,0,1,,,,,,,,,0,,,75,75
8040,note_on,120,0,3,,,,,,,,,2,,,60,0
8040,note_on,0,0,2,,,,,,,,,1,,,68,49
8040,note_on,0,0,3,,,,,,,,,2,,,56,49
8040,note_on,120,0,2,,,,,,,,,1,,,72,0
8160,note_on,120,0,3,,,,,,,,,2,,,56,0
8160,note_on,0,0,2,,,,,,,,,1,,,63,49
8160,note_on,240,0,1,,,,,,,,,0,,,75,0
8160,note_on,120,0,2,,,,,,,,,1,,,68,0
8160,note_on,0,0,3,,,,,,,,,2,,,44,49
8160,note_on,0,0,2,,,,,,,,,1,,,66,49
8160,note_on,0,0,1,,,,,,,,,0,,,75,75
8280,note_on,120,0,2,,,,,,,,,1,,,66,0
8280,note_on,0,0,2,,,,,,,,,1,,,68,49
8280,note_on,120,0,3,,,,,,,,,2,,,44,0
8280,note_on,0,0,3,,,,,,,,,2,,,56,49
8280,note_on,0,0,2,,,,,,,,,1,,,63,0
8400,note_on,120,0,2,,,,,,,,,1,,,68,0
8400,note_on,0,0,2,,,,,,,,,1,,,72,49
8400,note_on,0,0,3,,,,,,,,,2,,,60,49
8400,note_on,240,0,1,,,,,,,,,0,,,75,0
8400,note_on,120,0,3,,,,,,,,,2,,,56,0
8400,note_on,0,0,1,,,,,,,,,0,,,76,75
8520,note_on,120,0,2,,,,,,,,,1,,,72,0
8520,note_on,0,0,3,,,,,,,,,2,,,56,49
8520,note_on,120,0,3,,,,,,,,,2,,,60,0
8520,note_on,0,0,2,,,,,,,,,1,,,68,49
8640,note_on,0,0,2,,,,,,,,,1,,,64,49
8640,note_on,240,0,1,,,,,,,,,0,,,76,0
8640,note_on,120,0,2,,,,,,,,,1,,,68,0
8640,note_on,120,0,3,,,,,,,,,2,,,56,0
8640,note_on,0,0,3,,,,,,,,,2,,,60,49
8640,note_on,0,0,1,,,,,,,,,0,,,76,75
8640,note_on,0,0,3,,,,,,,,,2,,,49,49
8760,note_on,120,0,2,,,,,,,,,1,,,64,0
8760,note_on,0,0,2,,,,,,,,,1,,,68,49
8760,note_on,120,0,3,,,,,,,,,2,,,60,0
8760,note_on,0,0,3,,,,,,,,,2,,,56,49
8760,note_on,0,0,3,,,,,,,,,2,,,49,0
8880,note_on,0,0,3,,,,,,,,,2,,,61,49
8880,note_on,120,0,2,,,,,,,,,1,,,68,0
8880,note_on,0,0,2,,,,,,,,,1,,,65,49
8880,note_on,120,0,3,,,,,,,,,2,,,56,0
8880,note_on,240,0,1,,,,,,,,,0,,,76,0
8880,note_on,0,0,1,,,,,,,,,0,,,77,75
9000,note_on,0,0,2,,,,,,,,,1,,,68,49
9000,note_on,0,0,3,,,,,,,,,2,,,56,49
9000,note_on,120,0,2,,,,,,,,,1,,,65,0
9000,note_on,120,0,3,,,,,,,,,2,,,61,0
9120,note_on,120,0,2,,,,,,,,,1,,,68,0
9120,note_on,0,0,3,,,,,,,,,2,,,63,49
9120,note_on,120,0,3,,,,,,,,,2,,,56,0
9120,note_on,0,0,2,,,,,,,,,1,,,65,49
9240,note_on,120,0,3,,,,,,,,,2,,,63,0
9240,note_on,120,0,2,,,,,,,,,1,,,65,0
9240,note_on,0,0,2,,,,,,,,,1,,,72,49
9240,note_on,0,0,3,,,,,,,,,2,,,45,49
9360,note_on,0,0,1,,,,,,,,,0,,,78,75
9360,note_on,120,0,3,,,,,,,,,2,,,45,0
9360,note_on,120,0,2,,,,,,,,,1,,,72,0
9360,note_on,0,0,2,,,,,,,,,1,,,75,49
9360,note_on,0,0,3,,,,,,,,,2,,,60,75
9360,note_on,480,0,1,,,,,,,,,0,,,77,0
9480,note_on,120,0,1,,,,,,,,,0,,,78,0
9480,note_on,0,0,1,,,,,,,,,0,,,77,75
9480,note_on,120,0,2,,,,,,,,,1,,,75,0
9480,note_on,0,0,3,,,,,,,,,2,,,45,49
9480,note_on,120,0,3,,,,,,,,,2,,,60,0
9480,note_on,0,0,2,,,,,,,,,1,,,72,49
9600,note_on,0,0,1,,,,,,,,,0,,,75,75
9600,note_on,0,0,3,,,,,,,,,2,,,58,49
9600,note_on,120,0,3,,,,,,,,,2,,,45,0
9600,note_on,120,0,2,,,,,,,,,1,,,72,0
9600,note_on,120,0,1,,,,,,,,,0,,,77,0
9600,note_on,0,0,2,,,,,,,,,1,,,65,49
9720,note_on,120,0,2,,,,,,,,,1,,,65,0
9720,note_on,120,0,3,,,,,,,,,2,,,58,0
9720,note_on,0,0,3,,,,,,,,,2,,,46,49
9720,note_on,0,0,2,,,,,,,,,1,,,70,49
9840,note_on,120,0,3,,,,,,,,,2,,,46,0
9840,note_on,0,0,1,,,,,,,,,0,,,73,75
9840,note_on,240,0,1,,,,,,,,,0,,,75,0
9840,note_on,0,0,2,,,,,,,,,1,,,65,49
9840,note_on,0,0,3,,,,,,,,,2,,,53,49
9840,note_on,120,0,2,,,,,,,,,1,,,70,0
9960,note_on,120,0,2,,,,,,,,,1,,,65,0
9960,note_on,120,0,3,,,,,,,,,2,,,53,0
9960,note_on,0,0,2,,,,,,,,,1,,,70,49
9960,note_on,0,0,3,,,,,,,,,2,,,46,49
10080,note_on,0,0,2,,,,,,,,,1,,,64,49
10080,note_on,0,0,1,,,,,,,,,0,,,72,75
10080,note_on,240,0,1,,,,,,,,,0,,,73,0
10080,note_on,0,0,3,,,,,,,,,2,,,54,49
10080,note_on,120,0,2,,,,,,,,,1,,,70,0
10080,note_on,120,0,3,,,,,,,,,2,,,46,0
10200,note_on,120,0,2,,,,,,,,,1,,,64,0
10200,note_on,0,0,3,,,,,,,,,2,,,42,49
10200,note_on,0,0,2,,,,,,,,,1,,,60,49
10200,note_on,120,0,3,,,,,,,,,2,,,54,0
10320,note_on,0,0,1,,,,,,,,,0,,,70,75
10320,note_on,0,0,3,,,,,,,,,2,,,48,49
10320,note_on,0,0,2,,,,,,,,,1,,,64,49
10320,note_on,120,0,3,,,,,,,,,2,,,42,0
10320,note_on,240,0,1,,,,,,,,,0,,,72,0
10320,note_on,120,0,2,,,,,,,,,1,,,60,0
10440,note_on,0,0,2,,,,,,,,,1,,,60,49
10440,note_on,120,0,2,,,,,,,,,1,,,64,0
10440,note_on,120,0,3,,,,,,,,,2,,,42,49
10560,note_on,0,0,1,,,,,,,,,0,,,65,75
10560,control_change,0,0,1,,,,,,,,,0,64,127,,
10560,note_on,120,0,3,,,,,,,,,2,,,42,0
10560,note_on,240,0,1,,,,,,,,,0,,,70,0
10560,note_on,0,0,1,,,,,,,,,0,,,69,75
10560,note_on,0,0,3,,,,,,,,,2,,,41,49
10560,note_on,120,0,2,,,,,,,,,1,,,60,0
10560,note_on,0,0,3,,,,,,,,,2,,,53,49
10680,note_on,0,0,1,,,,,,,,,0,,,65,49
10680,note_on,120,0,1,,,,,,,,,0,,,69,0
10680,note_on,0,0,1,,,,,,,,,0,,,65,0
10800,note_on,0,0,1,,,,,,,,,0,,,67,49
10800,note_on,0,0,3,,,,,,,,,2,,,48,0
10800,note_on,240,0,3,,,,,,,,,2,,,53,0
10800,note_on,0,0,3,,,,,,,,,2,,,41,0
10800,note_on,120,0,1,,,,,,,,,0,,,65,0
10920,note_on,120,0,1,,,,,,,,,0,,,67,0
10920,note_on,0,0,1,,,,,,,,,0,,,69,49
11040,note_on,120,0,1,,,,,,,,,0,,,69,0
11040,note_on,0,0,1,,,,,,,,,0,,,70,49
11160,note_on,120,0,1,,,,,,,,,0,,,70,0
11160,note_on,0,0,1,,,,,,,,,0,,,72,49
11280,note_on,120,0,1,,,,,,,,,0,,,72,0
11280,note_on,0,0,1,,,,,,,,,0,,,74,49
11400,control_change,0,0,1,,,,,,,,,0,64,0,,
11400,note_on,120,0,1,,,,,,,,,0,,,74,0
11400,note_on,0,0,1,,,,,,,,,0,,,76,49
11520,note_on,11520,0,4,,,,,,,,,3,,,53,49
11520,note_on,0,0,1,,,,,,,,,0,,,77,49
11520,note_on,120,0,1,,,,,,,,,0,,,76,0
11520,note_on,960,0,2,,,,,,,,,1,,,70,49
11520,note_on,720,0,3,,,,,,,,,2,,,61,49
11640,note_on,0,0,3,,,,,,,,,2,,,60,49
11640,note_on,120,0,3,,,,,,,,,2,,,61,0
11640,note_on,0,0,2,,,,,,,,,1,,,69,49
11640,note_on,120,0,2,,,,,,,,,1,,,70,0
11760,note_on,120,0,3,,,,,,,,,2,,,60,0
11760,note_on,120,0,2,,,,,,,,,1,,,69,0
11760,note_on,0,0,2,,,,,,,,,1,,,70,49
11760,note_on,0,0,3,,,,,,,,,2,,,61,49
11880,note_on,120,0,2,,,,,,,,,1,,,70,0
11880,note_on,120,0,3,,,,,,,,,2,,,61,0
11880,note_on,0,0,3,,,,,,,,,2,,,60,49
11880,note_on,0,0,2,,,,,,,,,1,,,69,49
12000,note_on,0,0,2,,,,,,,,,1,,,70,49
12000,note_on,0,0,3,,,,,,,,,2,,,61,49
12000,note_on,120,0,2,,,,,,,,,1,,,69,0
12000,note_on,120,0,3,,,,,,,,,2,,,60,0
12120,note_on,120,0,2,,,,,,,,,1,,,70,0
12120,note_on,0,0,3,,,,,,,,,2,,,65,49
12120,note_on,120,0,3,,,,,,,,,2,,,61,0
12120,note_on,0,0,2,,,,,,,,,1,,,73,49
12240,note_on,0,0,3,,,,,,,,,2,,,63,49
12240,note_on,120,0,3,,,,,,,,,2,,,65,0
12240,note_on,0,0,2,,,,,,,,,1,,,72,49
12240,note_on,120,0,2,,,,,,,,,1,,,73,0
12360,note_on,120,0,3,,,,,,,,,2,,,63,0
12360,note_on,120,0,2,,,,,,,,,1,,,72,0
12360,note_on,0,0,2,,,,,,,,,1,,,70,49
12360,note_on,0,0,3,,,,,,,,,2,,,61,49
12480,note_on,120,0,3,,,,,,,,,2,,,61,0
12480,note_on,960,0,1,,,,,,,,,0,,,69,49
12480,note_on,0,0,3,,,,,,,,,2,,,60,49
12480,note_on,120,0,2,,,,,,,,,1,,,70,0
12600,control_change,0,0,1,,,,,,,,,0,64,127,,
12600,note_on,0,0,1,,,,,,,,,0,,,77,0
12600,note_on,120,0,1,,,,,,,,,0,,,69,0
12600,note_on,0,0,1,,,,,,,,,0,,,77,49
12720,note_on,0,0,1,,,,,,,,,0,,,79,49
12720,note_on,1200,0,4,,,,,,,,,3,,,53,0
12720,note_on,240,0,3,,,,,,,,,2,,,60,0
12720,note_on,120,0,1,,,,,,,,,0,,,77,0
12840,note_on,0,0,1,,,,,,,,,0,,,81,49
12840,note_on,120,0,1,,,,,,,,,0,,,79,0
12960,note_on,120,0,1,,,,,,,,,0,,,81,0
12960,note_on,0,0,1,,,,,,,,,0,,,82,49
13080,note_on,120,0,1,,,,,,,,,0,,,82,0
13080,note_on,0,0,1,,,,,,,,,0,,,84,49
13200,note_on,120,0,1,,,,,,,,,0,,,84,0
13200,note_on,0,0,1,,,,,,,,,0,,,86,49
13320,control_change,0,0,1,,,,,,,,,0,64,0,,
13320,note_on,0,0,1,,,,,,,,,0,,,88,49
13320,note_on,120,0,1,,,,,,,,,0,,,86,0
13440,note_on,720,0,4,,,,,,,,,3,,,65,49
13440,note_on,960,0,2,,,,,,,,,1,,,82,49
13440,note_on,0,0,1,,,,,,,,,0,,,89,49
13440,note_on,120,0,1,,,,,,,,,0,,,88,0
13440,note_on,720,0,3,,,,,,,,,2,,,73,49
13560,note_on,120,0,2,,,,,,,,,1,,,82,0
13560,note_on,0,0,3,,,,,,,,,2,,,72,49
13560,note_on,120,0,3,,,,,,,,,2,,,73,0
13560,note_on,0,0,2,,,,,,,,,1,,,81,49
13680,note_on,0,0,2,,,,,,,,,1,,,82,49
13680,note_on,0,0,3,,,,,,,,,2,,,73,49
13680,note_on,120,0,3,,,,,,,,,2,,,72,0
13680,note_on,120,0,2,,,,,,,,,1,,,81,0
13800,note_on,0,0,2,,,,,,,,,1,,,81,49
13800,note_on,120,0,3,,,,,,,,,2,,,73,0
13800,note_on,120,0,2,,,,,,,,,1,,,82,0
13800,note_on,0,0,3,,,,,,,,,2,,,72,49
13920,note_on,120,0,3,,,,,,,,,2,,,72,0
13920,note_on,0,0,3,,,,,,,,,2,,,73,49
13920,note_on,0,0,2,,,,,,,,,1,,,82,49
13920,note_on,120,0,2,,,,,,,,,1,,,81,0
14040,note_on,0,0,3,,,,,,,,,2,,,77,49
14040,note_on,0,0,2,,,,,,,,,1,,,85,49
14040,note_on,120,0,3,,,,,,,,,2,,,73,0
14040,note_on,120,0,2,,,,,,,,,1,,,82,0
14160,note_on,0,0,3,,,,,,,,,2,,,75,49
14160,note_on,0,0,2,,,,,,,,,1,,,84,49
14160,note_on,120,0,3,,,,,,,,,2,,,77,0
14160,note_on,120,0,2,,,,,,,,,1,,,85,0
14280,note_on,0,0,3,,,,,,,,,2,,,73,49
14280,note_on,120,0,2,,,,,,,,,1,,,84,0
14280,note_on,0,0,2,,,,,,,,,1,,,82,49
14280,note_on,120,0,3,,,,,,,,,2,,,75,0
14400,note_on,0,0,2,,,,,,,,,1,,,81,49
14400,note_on,120,0,2,,,,,,,,,1,,,82,0
14400,note_on,0,0,3,,,,,,,,,2,,,72,49
14400,note_on,120,0,3,,,,,,,,,2,,,73,0
14520,note_on,0,0,1,,,,,,,,,0,,,88,49
14520,note_on,1080,0,1,,,,,,,,,0,,,89,0
14640,note_on,1200,0,4,,,,,,,,,3,,,65,0
14640,note_on,120,0,1,,,,,,,,,0,,,88,0
14640,note_on,240,0,3,,,,,,,,,2,,,72,0
14640,note_on,240,0,2,,,,,,,,,1,,,81,0
14640,set_tempo,14620,1,0,,,,,,674157,,,,,,,
14640,note_on,0,0,1,,,,,,,,,0,,,87,49
14760,note_on,120,0,1,,,,,,,,,0,,,87,0
14760,note_on,0,0,1,,,,,,,,,0,,,86,49
14880,note_on,120,0,1,,,,,,,,,0,,,86,0
14880,note_on,0,0,1,,,,,,,,,0,,,85,49
14880,set_tempo,240,1,0,,,,,,697674,,,,,,,
15000,note_on,120,0,1,,,,,,,,,0,,,85,0
15000,note_on,0,0,1,,,,,,,,,0,,,84,49
15120,set_tempo,240,1,0,,,,,,722892,,,,,,,
15120,note_on,0,0,1,,,,,,,,,0,,,83,49
15120,note_on,120,0,1,,,,,,,,,0,,,84,0
15240,note_on,0,0,1,,,,,,,,,0,,,82,49
15240,note_on,120,0,1,,,,,,,,,0,,,83,0
15360,set_tempo,240,1,0,,,,,,759494,,,,,,,
15360,note_on,0,0,1,,,,,,,,,0,,,81,49
15360,note_on,120,0,1,,,,,,,,,0,,,82,0
15480,note_on,0,0,1,,,,,,,,,0,,,80,49
15480,note_on,120,0,1,,,,,,,,,0,,,81,0
15600,note_on,120,0,1,,,,,,,,,0,,,80,0
15600,note_on,0,0,1,,,,,,,,,0,,,79,49
15600,set_tempo,240,1,0,,,,,,789474,,,,,,,
15720,note_on,0,0,1,,,,,,,,,0,,,78,49
15720,note_on,120,0,1,,,,,,,,,0,,,79,0
15840,set_tempo,240,1,0,,,,,,821918,,,,,,,
15840,note_on,0,0,1,,,,,,,,,0,,,77,49
15840,note_on,120,0,1,,,,,,,,,0,,,78,0
15960,note_on,0,0,1,,,,,,,,,0,,,76,49
15960,note_on,120,0,1,,,,,,,,,0,,,77,0
16080,note_on,0,0,1,,,,,,,,,0,,,75,49
16080,note_on,120,0,1,,,,,,,,,0,,,76,0
16080,set_tempo,240,1,0,,,,,,857143,,,,,,,
16200,note_on,120,0,1,,,,,,,,,0,,,75,0
16200,note_on,0,0,1,,,,,,,,,0,,,74,49
16320,set_tempo,240,1,0,,,,,,909091,,,,,,,
16320,note_on,120,0,1,,,,,,,,,0,,,74,0
16320,note_on,0,0,1,,,,,,,,,0,,,77,75
16320,note_on,1680,0,3,,,,,,,,,2,,,61,49
16320,note_on,1680,0,2,,,,,,,,,1,,,65,49
16331,set_tempo,11,1,0,,,,,,652174,,,,,,,
16440,note_on,0,0,3,,,,,,,,,2,,,49,49
16440,note_on,120,0,2,,,,,,,,,1,,,65,0
16440,note_on,120,0,3,,,,,,,,,2,,,61,0
16440,note_on,0,0,2,,,,,,,,,1,,,73,49
16560,note_on,0,0,1,,,,,,,,,0,,,78,75
16560,note_on,120,0,3,,,,,,,,,2,,,49,0
16560,note_on,0,0,3,,,,,,,,,2,,,63,49
16560,note_on,120,0,2,,,,,,,,,1,,,73,0
16560,note_on,240,0,1,,,,,,,,,0,,,77,0
16560,note_on,0,0,2,,,,,,,,,1,,,66,49
16680,note_on,0,0,2,,,,,,,,,1,,,73,49
16680,note_on,120,0,3,,,,,,,,,2,,,63,0
16680,note_on,0,0,3,,,,,,,,,2,,,49,49
16680,note_on,120,0,2,,,,,,,,,1,,,66,0
16800,note_on,240,0,1,,,,,,,,,0,,,78,0
16800,note_on,0,0,2,,,,,,,,,1,,,67,49
16800,note_on,120,0,2,,,,,,,,,1,,,73,0
16800,note_on,120,0,3,,,,,,,,,2,,,49,0
16800,note_on,0,0,3,,,,,,,,,2,,,64,49
16800,note_on,0,0,1,,,,,,,,,0,,,79,75
16920,note_on,120,0,2,,,,,,,,,1,,,67,0
16920,note_on,120,0,3,,,,,,,,,2,,,64,0
16920,note_on,0,0,3,,,,,,,,,2,,,49,49
16920,note_on,0,0,2,,,,,,,,,1,,,73,49
17040,note_on,0,0,3,,,,,,,,,2,,,65,75
17040,note_on,0,0,2,,,,,,,,,1,,,68,49
17040,note_on,0,0,1,,,,,,,,,0,,,80,75
17040,note_on,120,0,3,,,,,,,,,2,,,49,0
17040,note_on,240,0,1,,,,,,,,,0,,,79,0
17040,note_on,120,0,2,,,,,,,,,1,,,73,0
17160,note_on,0,0,2,,,,,,,,,1,,,73,49
17160,note_on,120,0,3,,,,,,,,,2,,,65,0
17160,note_on,120,0,2,,,,,,,,,1,,,68,0
17160,note_on,0,0,3,,,,,,,,,2,,,49,49
17280,note_on,0,0,2,,,,,,,,,1,,,65,49
17280,note_on,120,0,3,,,,,,,,,2,,,49,0
17280,note_on,120,0,2,,,,,,,,,1,,,73,0
17280,note_on,0,0,1,,,,,,,,,0,,,77,75
17280,note_on,240,0,1,,,,,,,,,0,,,80,0
17280,note_on,0,0,3,,,,,,,,,2,,,61,49
17400,note_on,0,0,2,,,,,,,,,1,,,68,49
17400,note_on,120,0,3,,,,,,,,,2,,,61,0
17400,note_on,120,0,2,,,,,,,,,1,,,65,0
17400,note_on,0,0,3,,,,,,,,,2,,,49,49
17520,note_on,120,0,3,,,,,,,,,2,,,49,0
17520,note_on,120,0,2,,,,,,,,,1,,,68,0
17520,note_on,0,0,2,,,,,,,,,1,,,64,49
17520,note_on,0,0,3,,,,,,,,,2,,,60,49
17640,note_on,0,0,3,,,,,,,,,2,,,49,49
17640,note_on,0,0,2,,,,,,,,,1,,,68,49
17640,note_on,120,0,2,,,,,,,,,1,,,64,0
17640,note_on,120,0,3,,,,,,,,,2,,,60,0
17760,note_on,0,0,2,,,,,,,,,1,,,65,49
17760,note_on,120,0,3,,,,,,,,,2,,,49,0
17760,note_on,120,0,2,,,,,,,,,1,,,68,0
17760,note_on,0,0,3,,,,,,,,,2,,,61,49
17880,note_on,0,0,3,,,,,,,,,2,,,49,49
17880,note_on,120,0,3,,,,,,,,,2,,,61,0
17880,note_on,0,0,2,,,,,,,,,1,,,68,49
17880,note_on,120,0,2,,,,,,,,,1,,,65,0
18000,note_on,720,0,1,,,,,,,,,0,,,77,0
18000,note_on,120,0,2,,,,,,,,,1,,,68,0
18000,note_on,0,0,2,,,,,,,,,1,,,65,49
18000,note_on,0,0,1,,,,,,,,,0,,,73,75
18000,note_on,0,0,3,,,,,,,,,2,,,56,49
18000,note_on,120,0,3,,,,,,,,,2,,,49,0
18120,note_on,120,0,2,,,,,,,,,1,,,65,0
18120,note_on,120,0,3,,,,,,,,,2,,,56,0
18120,note_on,0,0,3,,,,,,,,,2,,,49,49
18120,note_on,0,0,2,,,,,,,,,1,,,68,49
18240,note_on,0,0,1,,,,,,,,,0,,,75,75
18240,note_on,0,0,3,,,,,,,,,2,,,60,49
18240,note_on,120,0,3,,,,,,,,,2,,,49,0
18240,note_on,0,0,2,,,,,,,,,1,,,66,49
18240,note_on,120,0,2,,,,,,,,,1,,,68,0
18240,note_on,240,0,1,,,,,,,,,0,,,73,0
18360,note_on,120,0,2,,,,,,,,,1,,,66,0
18360,note_on,0,0,2,,,,,,,,,1,,,68,49
18360,note_on,0,0,3,,,,,,,,,2,,,49,49
18360,note_on,120,0,3,,,,,,,,,2,,,60,0
18480,note_on,0,0,1,,,,,,,,,0,,,74,75
18480,note_on,120,0,3,,,,,,,,,2,,,49,0
18480,note_on,120,0,2,,,,,,,,,1,,,68,0
18480,note_on,240,0,1,,,,,,,,,0,,,75,0
18480,note_on,0,0,3,,,,,,,,,2,,,56,49
18480,note_on,0,0,2,,,,,,,,,1,,,66,49
18600,note_on,120,0,3,,,,,,,,,2,,,56,0
18600,note_on,120,0,2,,,,,,,,,1,,,66,0
18600,note_on,0,0,3,,,,,,,,,2,,,49,49
18600,note_on,0,0,2,,,,,,,,,1,,,68,49
18720,note_on,240,0,1,,,,,,,,,0,,,74,0
18720,note_on,120,0,3,,,,,,,,,2,,,49,0
18720,note_on,0,0,2,,,,,,,,,1,,,66,49
18720,note_on,0,0,1,,,,,,,,,0,,,75,75
18720,note_on,120,0,2,,,,,,,,,1,,,68,0
18720,note_on,0,0,3,,,,,,,,,2,,,60,49
18840,note_on,0,0,3,,,,,,,,,2,,,49,49
18840,note_on,0,0,2,,,,,,,,,1,,,68,49
18840,note_on,120,0,3,,,,,,,,,2,,,60,0
18840,note_on,120,0,2,,,,,,,,,1,,,66,0
18960,note_on,120,0,2,,,,,,,,,1,,,68,0
18960,note_on,240,0,1,,,,,,,,,0,,,75,0
18960,note_on,0,0,2,,,,,,,,,1,,,66,49
18960,note_on,0,0,3,,,,,,,,,2,,,56,49
18960,note_on,120,0,3,,,,,,,,,2,,,49,0
18960,note_on,0,0,1,,,,,,,,,0,,,76,75
19080,note_on,120,0,2,,,,,,,,,1,,,66,0
19080,note_on,120,0,3,,,,,,,,,2,,,56,0
19080,note_on,0,0,2,,,,,,,,,1,,,68,49
19080,note_on,0,0,3,,,,,,,,,2,,,49,49
19200,note_on,240,0,1,,,,,,,,,0,,,76,0
19200,note_on,120,0,2,,,,,,,,,1,,,68,0
19200,note_on,0,0,3,,,,,,,,,2,,,60,49
19200,note_on,0,0,2,,,,,,,,,1,,,66,49
19200,note_on,120,0,3,,,,,,,,,2,,,49,0
19200,note_on,0,0,1,,,,,,,,,0,,,76,75
19200,note_on,0,0,1,,,,,,,,,0,,,72,75
19320,note_on,0,0,3,,,,,,,,,2,,,49,49
19320,note_on,0,0,2,,,,,,,,,1,,,68,49
19320,note_on,120,0,2,,,,,,,,,1,,,66,0
19320,note_on,120,0,3,,,,,,,,,2,,,60,0
19440,note_on,120,0,3,,,,,,,,,2,,,49,0
19440,note_on,0,0,2,,,,,,,,,1,,,66,49
19440,note_on,120,0,2,,,,,,,,,1,,,68,0
19440,note_on,0,0,3,,,,,,,,,2,,,56,49
19560,note_on,0,0,2,,,,,,,,,1,,,68,49
19560,note_on,120,0,3,,,,,,,,,2,,,56,0
19560,note_on,120,0,2,,,,,,,,,1,,,66,0
19560,note_on,0,0,3,,,,,,,,,2,,,49,49
19680,note_on,0,0,2,,,,,,,,,1,,,65,49
19680,note_on,120,0,3,,,,,,,,,2,,,49,0
19680,note_on,480,0,1,,,,,,,,,0,,,76,0
19680,note_on,0,0,1,,,,,,,,,0,,,72,0
19680,note_on,0,0,1,,,,,,,,,0,,,77,75
19680,note_on,0,0,1,,,,,,,,,0,,,73,75
19680,note_on,0,0,3,,,,,,,,,2,,,61,49
19680,note_on,120,0,2,,,,,,,,,1,,,68,0
19800,note_on,120,0,2,,,,,,,,,1,,,65,0
19800,note_on,0,0,2,,,,,,,,,1,,,68,49
19800,note_on,0,0,3,,,,,,,,,2,,,49,49
19800,note_on,120,0,3,,,,,,,,,2,,,61,0
19920,note_on,120,0,3,,,,,,,,,2,,,49,0
19920,note_on,0,0,1,,,,,,,,,0,,,73,0
19920,note_on,240,0,1,,,,,,,,,0,,,77,0
19920,note_on,120,0,2,,,,,,,,,1,,,68,0
19920,note_on,0,0,2,,,,,,,,,1,,,70,49
19920,note_on,0,0,3,,,,,,,,,2,,,56,49
19980,note_on,0,0,2,,,,,,,,,1,,,68,49
19980,note_on,60,0,2,,,,,,,,,1,,,70,0
20040,note_on,0,0,3,,,,,,,,,2,,,49,49
20040,note_on,0,0,2,,,,,,,,,1,,,67,49
20040,note_on,60,0,2,,,,,,,,,1,,,68,0
20040,note_on,120,0,3,,,,,,,,,2,,,56,0
20100,note_on,0,0,2,,,,,,,,,1,,,68,49
20100,note_on,60,0,2,,,,,,,,,1,,,67,0
20160,note_on,240,0,1,,,,,,,,,0,,,77,88
20160,note_on,0,0,3,,,,,,,,,2,,,61,62
20160,note_on,60,0,2,,,,,,,,,1,,,68,0
20160,note_on,120,0,3,,,,,,,,,2,,,49,0
20160,note_on,0,0,2,,,,,,,,,1,,,65,62
20280,note_on,0,0,3,,,,,,,,,2,,,49,62
20280,note_on,0,0,2,,,,,,,,,1,,,73,62
20280,note_on,120,0,2,,,,,,,,,1,,,65,0
20280,note_on,120,0,3,,,,,,,,,2,,,61,0
20400,note_on,0,0,3,,,,,,,,,2,,,63,62
20400,note_on,120,0,2,,,,,,,,,1,,,73,0
20400,note_on,240,0,1,,,,,,,,,0,,,77,0
20400,note_on,0,0,1,,,,,,,,,0,,,78,88
20400,note_on,0,0,2,,,,,,,,,1,,,66,62
20400,note_on,120,0,3,,,,,,,,,2,,,49,0
20520,note_on,0,0,3,,,,,,,,,2,,,49,62
20520,note_on,120,0,3,,,,,,,,,2,,,63,0
20520,note_on,120,0,2,,,,,,,,,1,,,66,0
20520,note_on,0,0,2,,,,,,,,,1,,,73,62
20640,note_on,120,0,3,,,,,,,,,2,,,49,0
20640,note_on,0,0,3,,,,,,,,,2,,,64,62
20640,note_on,120,0,2,,,,,,,,,1,,,73,0
20640,note_on,0,0,2,,,,,,,,,1,,,67,62
20640,note_on,240,0,1,,,,,,,,,0,,,78,0
20640,note_on,0,0,1,,,,,,,,,0,,,79,88
20760,note_on,0,0,2,,,,,,,,,1,,,73,62
20760,note_on,120,0,3,,,,,,,,,2,,,64,0
20760,note_on,120,0,2,,,,,,,,,1,,,67,0
20760,note_on,0,0,3,,,,,,,,,2,,,49,62
20880,note_on,120,0,3,,,,,,,,,2,,,49,0
20880,note_on,120,0,2,,,,,,,,,1,,,73,0
20880,note_on,0,0,3,,,,,,,,,2,,,65,88
20880,note_on,0,0,1,,,,,,,,,0,,,80,88
20880,note_on,240,0,1,,,,,,,,,0,,,79,0
20880,note_on,0,0,2,,,,,,,,,1,,,68,62
21000,note_on,120,0,2,,,,,,,,,1,,,68,0
21000,note_on,0,0,3,,,,,,,,,2,,,49,62
21000,note_on,120,0,3,,,,,,,,,2,,,65,0
21000,note_on,0,0,2,,,,,,,,,1,,,73,62
21120,note_on,240,0,1,,,,,,,,,0,,,80,0
21120,note_on,0,0,3,,,,,,,,,2,,,65,62
21120,note_on,0,0,3,,,,,,,,,2,,,53,62
21120,note_on,120,0,3,,,,,,,,,2,,,49,0
21120,note_on,0,0,2,,,,,,,,,1,,,69,62
21120,note_on,0,0,1,,,,,,,,,0,,,81,88
21120,note_on,120,0,2,,,,,,,,,1,,,73,0
21240,note_on,0,0,3,,,,,,,,,2,,,61,62
21240,note_on,120,0,2,,,,,,,,,1,,,69,0
21240,note_on,0,0,3,,,,,,,,,2,,,53,0
21240,note_on,0,0,2,,,,,,,,,1,,,73,62
21240,note_on,120,0,3,,,,,,,,,2,,,65,0
21360,note_on,0,0,2,,,,,,,,,1,,,70,62
21360,note_on,0,0,1,,,,,,,,,0,,,82,88
21360,note_on,120,0,2,,,,,,,,,1,,,73,0
21360,note_on,120,0,3,,,,,,,,,2,,,61,0
21360,note_on,240,0,1,,,,,,,,,0,,,81,0
21360,note_on,0,0,3,,,,,,,,,2,,,54,62
21360,note_on,0,0,3,,,,,,,,,2,,,66,62
21480,note_on,120,0,2,,,,,,,,,1,,,70,0
21480,note_on,120,0,3,,,,,,,,,2,,,66,0
21480,note_on,0,0,3,,,,,,,,,2,,,54,0
21480,note_on,0,0,3,,,,,,,,,2,,,61,62
21480,note_on,0,0,2,,,,,,,,,1,,,73,62
21600,note_on,120,0,2,,,,,,,,,1,,,73,0
21600,note_on,0,0,3,,,,,,,,,2,,,66,62
21600,note_on,0,0,2,,,,,,,,,1,,,70,62
21600,note_on,0,0,3,,,,,,,,,2,,,54,62
21600,note_on,120,0,3,,,,,,,,,2,,,61,0
21720,note_on,0,0,3,,,,,,,,,2,,,54,0
21720,note_on,0,0,3,,,,,,,,,2,,,61,62
21720,note_on,120,0,2,,,,,,,,,1,,,70,0
21720,note_on,0,0,2,,,,,,,,,1,,,73,62
21720,note_on,120,0,3,,,,,,,,,2,,,66,0
21840,note_on,120,0,3,,,,,,,,,2,,,61,0
21840,note_on,480,0,1,,,,,,,,,0,,,82,0
21840,note_on,0,0,2,,,,,,,,,1,,,70,62
21840,note_on,0,0,3,,,,,,,,,2,,,55,62
21840,note_on,0,0,3,,,,,,,,,2,,,63,62
21840,note_on,120,0,2,,,,,,,,,1,,,73,0
21840,note_on,0,0,1,,,,,,,,,0,,,75,88
21960,note_on,120,0,2,,,,,,,,,1,,,70,0
21960,note_on,120,0,3,,,,,,,,,2,,,63,0
21960,note_on,0,0,3,,,,,,,,,2,,,61,62
21960,note_on,0,0,3,,,,,,,,,2,,,55,0
21960,note_on,0,0,2,,,,,,,,,1,,,73,62
22080,note_on,0,0,3,,,,,,,,,2,,,56,62
22080,note_on,120,0,2,,,,,,,,,1,,,73,0
22080,note_on,0,0,2,,,,,,,,,1,,,68,62
22080,note_on,120,0,3,,,,,,,,,2,,,61,0
22080,note_on,0,0,3,,,,,,,,,2,,,64,62
22200,note_on,120,0,2,,,,,,,,,1,,,68,0
22200,note_on,0,0,2,,,,,,,,,1,,,73,62
22200,note_on,0,0,3,,,,,,,,,2,,,56,0
22200,note_on,120,0,3,,,,,,,,,2,,,64,0
22200,note_on,0,0,3,,,,,,,,,2,,,61,62
22320,note_on,0,0,1,,,,,,,,,0,,,76,88
22320,note_on,120,0,3,,,,,,,,,2,,,61,0
22320,note_on,480,0,1,,,,,,,,,0,,,75,0
22320,note_on,120,0,2,,,,,,,,,1,,,73,0
22320,note_on,0,0,2,,,,,,,,,1,,,68,62
22320,note_on,0,0,3,,,,,,,,,2,,,64,62
22440,note_on,120,0,2,,,,,,,,,1,,,68,0
22440,note_on,0,0,2,,,,,,,,,1,,,73,62
22440,note_on,120,0,3,,,,,,,,,2,,,64,0
22440,note_on,0,0,3,,,,,,,,,2,,,61,62
22560,note_on,120,0,3,,,,,,,,,2,,,61,0
22560,note_on,0,0,3,,,,,,,,,2,,,56,62
22560,note_on,120,0,2,,,,,,,,,1,,,73,0
22560,note_on,0,0,3,,,,,,,,,2,,,65,62
22560,note_on,240,0,1,,,,,,,,,0,,,76,0
22560,note_on,0,0,2,,,,,,,,,1,,,68,62
22680,note_on,0,0,3,,,,,,,,,2,,,62,62
22680,note_on,0,0,2,,,,,,,,,1,,,74,62
22680,note_on,120,0,2,,,,,,,,,1,,,68,0
22680,note_on,0,0,3,,,,,,,,,2,,,56,0
22680,note_on,120,0,3,,,,,,,,,2,,,65,0
22800,note_on,0,0,3,,,,,,,,,2,,,65,62
22800,note_on,0,0,2,,,,,,,,,1,,,68,62
22800,note_on,120,0,2,,,,,,,,,1,,,74,0
22800,note_on,240,0,1,,,,,,,,,0,,,77,88
22800,note_on,120,0,3,,,,,,,,,2,,,62,0
22920,note_on,0,0,2,,,,,,,,,1,,,74,62
22920,note_on,120,0,2,,,,,,,,,1,,,68,0
22920,note_on,0,0,3,,,,,,,,,2,,,62,62
22920,note_on,120,0,3,,,,,,,,,2,,,65,0
23040,note_on,0,0,3,,,,,,,,,2,,,56,62
23040,note_on,0,0,3,,,,,,,,,2,,,66,62
23040,note_on,0,0,2,,,,,,,,,1,,,68,62
23040,note_on,120,0,3,,,,,,,,,2,,,62,0
23040,note_on,120,0,2,,,,,,,,,1,,,74,0
23160,note_on,0,0,3,,,,,,,,,2,,,63,62
23160,note_on,0,0,3,,,,,,,,,2,,,56,0
23160,note_on,120,0,2,,,,,,,,,1,,,68,0
23160,note_on,0,0,2,,,,,,,,,1,,,72,62
23160,note_on,120,0,3,,,,,,,,,2,,,66,0
23280,note_on,0,0,3,,,,,,,,,2,,,66,62
23280,note_on,480,0,1,,,,,,,,,0,,,77,0
23280,note_on,120,0,3,,,,,,,,,2,,,63,0
23280,note_on,0,0,1,,,,,,,,,0,,,78,88
23280,note_on,0,0,2,,,,,,,,,1,,,68,62
23280,note_on,0,0,1,,,,,,,,,0,,,68,88
23280,note_on,120,0,2,,,,,,,,,1,,,72,0
23400,note_on,0,0,2,,,,,,,,,1,,,72,62
23400,note_on,0,0,3,,,,,,,,,2,,,63,62
23400,note_on,120,0,3,,,,,,,,,2,,,66,0
23400,note_on,120,0,2,,,,,,,,,1,,,68,0
23520,note_on,0,0,3,,,,,,,,,2,,,44,62
23520,note_on,0,0,1,,,,,,,,,0,,,68,0
23520,note_on,0,0,1,,,,,,,,,0,,,75,88
23520,note_on,240,0,1,,,,,,,,,0,,,78,0
23520,note_on,120,0,2,,,,,,,,,1,,,72,0
23520,note_on,120,0,3,,,,,,,,,2,,,63,0
23520,note_on,0,0,2,,,,,,,,,1,,,66,62
23640,note_on,0,0,3,,,,,,,,,2,,,56,62
23640,note_on,120,0,2,,,,,,,,,1,,,66,0
23640,note_on,0,0,2,,,,,,,,,1,,,68,62
23640,note_on,120,0,3,,,,,,,,,2,,,44,0
23760,note_on,0,0,2,,,,,,,,,1,,,66,62
23760,note_on,0,0,3,,,,,,,,,2,,,44,62
23760,note_on,0,0,1,,,,,,,,,0,,,72,88
23760,note_on,120,0,3,,,,,,,,,2,,,56,0
23760,note_on,240,0,1,,,,,,,,,0,,,75,0
23760,note_on,120,0,2,,,,,,,,,1,,,68,0
23880,note_on,0,0,3,,,,,,,,,2,,,56,62
23880,note_on,120,0,2,,,,,,,,,1,,,66,0
23880,note_on,0,0,2,,,,,,,,,1,,,68,62
23880,note_on,120,0,3,,,,,,,,,2,,,44,0
24000,note_on,240,0,1,,,,,,,,,0,,,72,0
24000,note_on,120,0,2,,,,,,,,,1,,,68,0
24000,note_on,0,0,3,,,,,,,,,2,,,49,62
24000,note_on,0,0,1,,,,,,,,,0,,,75,88
24000,note_on,120,0,3,,,,,,,,,2,,,56,0
24000,note_on,0,0,2,,,,,,,,,1,,,66,62
24120,note_on,120,0,2,,,,,,,,,1,,,66,0
24120,note_on,120,0,3,,,,,,,,,2,,,49,0
24120,note_on,0,0,3,,,,,,,,,2,,,56,62
24120,note_on,0,0,2,,,,,,,,,1,,,68,62
24240,note_on,0,0,2,,,,,,,,,1,,,70,62
24240,note_on,120,0,3,,,,,,,,,2,,,56,0
24240,note_on,0,0,3,,,,,,,,,2,,,60,62
24240,note_on,120,0,2,,,,,,,,,1,,,68,0
24360,note_on,0,0,3,,,,,,,,,2,,,56,62
24360,note_on,120,0,2,,,,,,,,,1,,,70,0
24360,note_on,120,0,3,,,,,,,,,2,,,60,0
24360,note_on,0,0,2,,,,,,,,,1,,,68,62
24480,note_on,120,0,2,,,,,,,,,1,,,68,0
24480,note_on,120,0,3,,,,,,,,,2,,,49,62
24480,note_on,0,0,2,,,,,,,,,1,,,65,62
24480,note_on,0,0,1,,,,,,,,,0,,,73,88
24480,note_on,480,0,1,,,,,,,,,0,,,75,0
24480,note_on,0,0,3,,,,,,,,,2,,,61,62
24720,note_on,240,0,1,,,,,,,,,0,,,73,0
24720,note_on,0,0,2,,,,,,,,,1,,,68,62
24720,note_on,240,0,3,,,,,,,,,2,,,61,0
24720,note_on,0,0,3,,,,,,,,,2,,,56,0
24720,note_on,0,0,3,,,,,,,,,2,,,49,0
24720,note_on,240,0,2,,,,,,,,,1,,,65,0
24960,note_on,0,0,2,,,,,,,,,1,,,73,62
24960,note_on,240,0,1,,,,,,,,,0,,,76,75
24960,note_on,240,0,3,,,,,,,,,2,,,49,49
24960,key_signature,8629,1,0,,,,,E,,,,,,,,
24960,note_on,240,0,2,,,,,,,,,1,,,68,0
25080,note_on,0,0,2,,,,,,,,,1,,,68,62
25080,note_on,120,0,2,,,,,,,,,1,,,73,0
25200,note_on,120,0,2,,,,,,,,,1,,,68,0
25200,note_on,0,0,3,,,,,,,,,2,,,56,49
25200,note_on,0,0,3,,,,,,,,,2,,,52,49
25200,note_on,240,0,3,,,,,,,,,2,,,49,0
25200,note_on,0,0,3,,,,,,,,,2,,,61,49
25200,note_on,0,0,2,,,,,,,,,1,,,64,62
25320,note_on,120,0,2,,,,,,,,,1,,,64,0
25320,note_on,0,0,2,,,,,,,,,1,,,68,62
25440,note_on,0,0,3,,,,,,,,,2,,,52,0
25440,note_on,480,0,1,,,,,,,,,0,,,76,0
25440,note_on,240,0,3,,,,,,,,,2,,,61,0
25440,note_on,120,0,2,,,,,,,,,1,,,68,0
25440,note_on,0,0,2,,,,,,,,,1,,,73,62
25440,note_on,0,0,3,,,,,,,,,2,,,44,49
25440,note_on,0,0,1,,,,,,,,,0,,,76,75
25440,note_on,0,0,3,,,,,,,,,2,,,56,0
25560,note_on,120,0,2,,,,,,,,,1,,,73,0
25560,note_on,0,0,2,,,,,,,,,1,,,68,62
25680,note_on,0,0,3,,,,,,,,,2,,,60,49
25680,note_on,240,0,3,,,,,,,,,2,,,44,0
25680,note_on,0,0,3,,,,,,,,,2,,,51,49
25680,note_on,0,0,2,,,,,,,,,1,,,72,62
25680,note_on,0,0,1,,,,,,,,,0,,,75,75
25680,note_on,120,0,2,,,,,,,,,1,,,68,0
25680,note_on,240,0,1,,,,,,,,,0,,,76,0
25680,note_on,0,0,3,,,,,,,,,2,,,56,49
25800,note_on,0,0,2,,,,,,,,,1,,,66,62
25800,note_on,120,0,2,,,,,,,,,1,,,72,0
25920,note_on,0,0,3,,,,,,,,,2,,,45,49
25920,note_on,0,0,3,,,,,,,,,2,,,51,0
25920,note_on,0,0,3,,,,,,,,,2,,,56,0
25920,note_on,240,0,3,,,,,,,,,2,,,60,0
25920,note_on,240,0,1,,,,,,,,,0,,,75,0
25920,note_on,0,0,1,,,,,,,,,0,,,75,75
25920,note_on,0,0,2,,,,,,,,,1,,,72,62
25920,note_on,120,0,2,,,,,,,,,1,,,66,0
26040,note_on,120,0,2,,,,,,,,,1,,,72,0
26040,note_on,0,0,2,,,,,,,,,1,,,66,62
26160,note_on,240,0,1,,,,,,,,,0,,,75,0
26160,note_on,120,0,2,,,,,,,,,1,,,66,0
26160,note_on,0,0,3,,,,,,,,,2,,,57,49
26160,note_on,0,0,3,,,,,,,,,2,,,61,49
26160,note_on,0,0,3,,,,,,,,,2,,,52,49
26160,note_on,0,0,2,,,,,,,,,1,,,69,62
26160,note_on,0,0,1,,,,,,,,,0,,,73,75
26160,note_on,240,0,3,,,,,,,,,2,,,45,0
26280,note_on,0,0,2,,,,,,,,,1,,,64,62
26280,note_on,120,0,2,,,,,,,,,1,,,69,0
26400,note_on,0,0,3,,,,,,,,,2,,,52,0
26400,note_on,0,0,1,,,,,,,,,0,,,71,75
26400,note_on,240,0,1,,,,,,,,,0,,,73,0
26400,note_on,240,0,3,,,,,,,,,2,,,61,0
26400,note_on,0,0,3,,,,,,,,,2,,,41,49
26400,note_on,0,0,3,,,,,,,,,2,,,57,0
26400,note_on,120,0,2,,,,,,,,,1,,,64,0
26520,note_on,120,0,1,,,,,,,,,0,,,71,0
26520,note_on,0,0,1,,,,,,,,,0,,,73,75
26640,note_on,240,0,3,,,,,,,,,2,,,41,0
26640,note_on,0,0,3,,,,,,,,,2,,,61,49
26640,note_on,0,0,1,,,,,,,,,0,,,71,75
26640,note_on,0,0,3,,,,,,,,,2,,,56,49
26640,note_on,0,0,3,,,,,,,,,2,,,53,49
26640,note_on,120,0,1,,,,,,,,,0,,,73,0
26640,note_on,0,0,1,,,,,,,,,0,,,74,75
26760,note_on,0,0,1,,,,,,,,,0,,,68,75
26760,note_on,0,0,1,,,,,,,,,0,,,71,0
26760,note_on,0,0,1,,,,,,,,,0,,,73,75
26760,note_on,120,0,1,,,,,,,,,0,,,74,0
26880,note_on,0,0,3,,,,,,,,,2,,,53,0
26880,note_on,0,0,3,,,,,,,,,2,,,42,49
26880,note_on,240,0,3,,,,,,,,,2,,,61,0
26880,note_on,120,0,1,,,,,,,,,0,,,73,0
26880,note_on,0,0,3,,,,,,,,,2,,,56,0
26880,note_on,0,0,1,,,,,,,,,0,,,69,75
26880,note_on,0,0,1,,,,,,,,,0,,,68,0
27000,note_on,120,0,1,,,,,,,,,0,,,69,0
27000,note_on,0,0,1,,,,,,,,,0,,,66,75
27120,note_on,0,0,3,,,,,,,,,2,,,54,49
27120,note_on,0,0,1,,,,,,,,,0,,,83,75
27120,note_on,240,0,3,,,,,,,,,2,,,42,0
27120,note_on,120,0,1,,,,,,,,,0,,,66,0
27120,note_on,0,0,1,,,,,,,,,0,,,80,75
27120,note_on,0,0,3,,,,,,,,,2,,,61,49
27120,note_on,0,0,3,,,,,,,,,2,,,57,49
27240,note_on,0,0,1,,,,,,,,,0,,,80,0
27240,note_on,0,0,1,,,,,,,,,0,,,78,75
27240,note_on,120,0,1,,,,,,,,,0,,,83,0
27240,note_on,0,0,1,,,,,,,,,0,,,81,75
27360,note_on,120,0,1,,,,,,,,,0,,,81,0
27360,note_on,0,0,3,,,,,,,,,2,,,54,0
27360,note_on,240,0,3,,,,,,,,,2,,,61,0
27360,note_on,0,0,3,,,,,,,,,2,,,57,0
27360,note_on,0,0,1,,,,,,,,,0,,,76,75
27360,note_on,0,0,1,,,,,,,,,0,,,78,0
27360,note_on,0,0,3,,,,,,,,,2,,,42,49
27360,note_on,0,0,1,,,,,,,,,0,,,80,75
27480,note_on,0,0,1,,,,,,,,,0,,,76,0
27480,note_on,120,0,1,,,,,,,,,0,,,80,0
27480,note_on,0,0,1,,,,,,,,,0,,,78,75
27480,note_on,0,0,1,,,,,,,,,0,,,75,75
27600,note_on,0,0,3,,,,,,,,,2,,,57,49
27600,note_on,0,0,3,,,,,,,,,2,,,54,49
27600,note_on,120,0,1,,,,,,,,,0,,,78,0
27600,note_on,0,0,1,,,,,,,,,0,,,75,0
27600,note_on,0,0,1,,,,,,,,,0,,,76,75
27600,note_on,240,0,3,,,,,,,,,2,,,42,0
27600,note_on,0,0,1,,,,,,,,,0,,,69,75
27600,note_on,0,0,3,,,,,,,,,2,,,63,49
27720,note_on,0,0,1,,,,,,,,,0,,,75,75
27720,note_on,0,0,1,,,,,,,,,0,,,69,0
27720,note_on,120,0,1,,,,,,,,,0,,,76,0
27840,note_on,0,0,1,,,,,,,,,0,,,73,75
27840,note_on,120,0,1,,,,,,,,,0,,,75,0
27840,note_on,0,0,3,,,,,,,,,2,,,57,0
27840,note_on,240,0,3,,,,,,,,,2,,,63,0
27840,note_on,0,0,3,,,,,,,,,2,,,54,0
27840,note_on,0,0,3,,,,,,,,,2,,,44,49
27887,note_on,0,0,1,,,,,,,,,0,,,75,75
27887,note_on,47,0,1,,,,,,,,,0,,,73,0
27936,note_on,0,0,1,,,,,,,,,0,,,73,75
27936,note_on,49,0,1,,,,,,,,,0,,,75,0
27983,note_on,0,0,1,,,,,,,,,0,,,72,75
27983,note_on,47,0,1,,,,,,,,,0,,,73,0
28032,note_on,0,0,1,,,,,,,,,0,,,73,75
28032,note_on,49,0,1,,,,,,,,,0,,,72,0
28080,note_on,240,0,3,,,,,,,,,2,,,44,0
28080,note_on,0,0,1,,,,,,,,,0,,,81,75
28080,note_on,0,0,3,,,,,,,,,2,,,64,49
28080,note_on,0,0,3,,,,,,,,,2,,,56,49
28080,note_on,0,0,3,,,,,,,,,2,,,61,49
28080,note_on,48,0,1,,,,,,,,,0,,,73,0
28200,note_on,120,0,1,,,,,,,,,0,,,81,0
28200,note_on,0,0,1,,,,,,,,,0,,,80,75
28320,note_on,120,0,1,,,,,,,,,0,,,80,0
28320,note_on,0,0,1,,,,,,,,,0,,,72,75
28320,note_on,240,0,3,,,,,,,,,2,,,64,0
28320,note_on,0,0,3,,,,,,,,,2,,,61,0
28320,note_on,0,0,3,,,,,,,,,2,,,56,0
28320,note_on,0,0,3,,,,,,,,,2,,,44,49
28367,note_on,47,0,1,,,,,,,,,0,,,72,0
28367,note_on,0,0,1,,,,,,,,,0,,,73,75
28416,note_on,0,0,1,,,,,,,,,0,,,72,75
28416,note_on,49,0,1,,,,,,,,,0,,,73,0
28463,note_on,0,0,1,,,,,,,,,0,,,71,75
28463,note_on,47,0,1,,,,,,,,,0,,,72,0
28512,note_on,49,0,1,,,,,,,,,0,,,71,0
28512,note_on,0,0,1,,,,,,,,,0,,,72,75
28560,note_on,0,0,1,,,,,,,,,0,,,81,75
28560,note_on,240,0,3,,,,,,,,,2,,,44,0
28560,note_on,0,0,3,,,,,,,,,2,,,60,49
28560,note_on,0,0,3,,,,,,,,,2,,,63,49
28560,note_on,0,0,3,,,,,,,,,2,,,56,49
28560,note_on,48,0,1,,,,,,,,,0,,,72,0
28680,note_on,0,0,1,,,,,,,,,0,,,80,75
28680,note_on,120,0,1,,,,,,,,,0,,,81,0
28800,note_on,0,0,1,,,,,,,,,0,,,76,75
28800,note_on,240,0,3,,,,,,,,,2,,,63,0
28800,note_on,0,0,3,,,,,,,,,2,,,49,49
28800,note_on,0,0,3,,,,,,,,,2,,,56,0
28800,note_on,0,0,3,,,,,,,,,2,,,60,0
28800,note_on,2400,0,2,,,,,,,,,1,,,73,62
28800,note_on,120,0,1,,,,,,,,,0,,,80,0
28920,note_on,0,0,2,,,,,,,,,1,,,68,62
28920,note_on,120,0,2,,,,,,,,,1,,,73,0
29040,note_on,0,0,2,,,,,,,,,1,,,64,62
29040,note_on,120,0,2,,,,,,,,,1,,,68,0
29040,note_on,0,0,3,,,,,,,,,2,,,61,49
29040,note_on,0,0,3,,,,,,,,,2,,,56,49
29040,note_on,240,0,3,,,,,,,,,2,,,49,0
29040,note_on,0,0,3,,,,,,,,,2,,,52,49
29160,note_on,0,0,2,,,,,,,,,1,,,68,62
29160,note_on,120,0,2,,,,,,,,,1,,,64,0
29280,note_on,0,0,3,,,,,,,,,2,,,44,49
29280,note_on,0,0,2,,,,,,,,,1,,,73,62
29280,note_on,0,0,1,,,,,,,,,0,,,76,75
29280,note_on,0,0,3,,,,,,,,,2,,,52,0
29280,note_on,0,0,3,,,,,,,,,2,,,56,0
29280,note_on,240,0,3,,,,,,,,,2,,,61,0
29280,note_on,480,0,1,,,,,,,,,0,,,76,0
29280,note_on,120,0,2,,,,,,,,,1,,,68,0
29400,note_on,120,0,2,,,,,,,,,1,,,73,0
29400,note_on,0,0,2,,,,,,,,,1,,,68,62
29520,note_on,240,0,3,,,,,,,,,2,,,44,0
29520,note_on,0,0,1,,,,,,,,,0,,,75,75
29520,note_on,120,0,2,,,,,,,,,1,,,68,0
29520,note_on,0,0,3,,,,,,,,,2,,,56,49
29520,note_on,0,0,3,,,,,,,,,2,,,60,49
29520,note_on,0,0,2,,,,,,,,,1,,,72,62
29520,note_on,240,0,1,,,,,,,,,0,,,76,0
29520,note_on,0,0,3,,,,,,,,,2,,,51,49
29640,note_on,0,0,2,,,,,,,,,1,,,66,62
29640,note_on,120,0,2,,,,,,,,,1,,,72,0
29760,note_on,0,0,3,,,,,,,,,2,,,45,49
29760,note_on,0,0,1,,,,,,,,,0,,,75,75
29760,note_on,0,0,2,,,,,,,,,1,,,72,62
29760,note_on,0,0,3,,,,,,,,,2,,,51,0
29760,note_on,0,0,3,,,,,,,,,2,,,56,0
29760,note_on,240,0,3,,,,,,,,,2,,,60,0
29760,note_on,240,0,1,,,,,,,,,0,,,75,0
29760,note_on,120,0,2,,,,,,,,,1,,,66,0
29880,note_on,120,0,2,,,,,,,,,1,,,72,0
29880,note_on,0,0,2,,,,,,,,,1,,,66,62
30000,note_on,0,0,3,,,,,,,,,2,,,52,49
30000,note_on,240,0,3,,,,,,,,,2,,,45,0
30000,note_on,240,0,1,,,,,,,,,0,,,75,0
30000,note_on,0,0,1,,,,,,,,,0,,,73,75
30000,note_on,0,0,3,,,,,,,,,2,,,57,49
30000,note_on,0,0,3,,,,,,,,,2,,,61,49
30000,note_on,0,0,2,,,,,,,,,1,,,69,62
30000,note_on,120,0,2,,,,,,,,,1,,,66,0
30120,note_on,120,0,2,,,,,,,,,1,,,69,0
30120,note_on,0,0,2,,,,,,,,,1,,,64,62
30240,note_on,120,0,2,,,,,,,,,1,,,64,0
30240,note_on,0,0,1,,,,,,,,,0,,,74,88
30240,note_on,0,0,3,,,,,,,,,2,,,56,62
30240,note_on,240,0,1,,,,,,,,,0,,,73,0
30240,note_on,0,0,3,,,,,,,,,2,,,53,62
30240,note_on,0,0,3,,,,,,,,,2,,,52,0
30240,note_on,240,0,3,,,,,,,,,2,,,61,0
30240,note_on,0,0,1,,,,,,,,,0,,,71,88
30240,note_on,0,0,3,,,,,,,,,2,,,57,0
30240,note_on,0,0,3,,,,,,,,,2,,,59,62
30240,note_on,0,0,3,,,,,,,,,2,,,61,62
30360,note_on,0,0,1,,,,,,,,,0,,,71,0
30360,note_on,120,0,1,,,,,,,,,0,,,74,0
30360,note_on,0,0,1,,,,,,,,,0,,,69,88
30360,note_on,0,0,1,,,,,,,,,0,,,73,88
30480,note_on,0,0,3,,,,,,,,,2,,,56,0
30480,note_on,0,0,3,,,,,,,,,2,,,54,62
30480,note_on,0,0,3,,,,,,,,,2,,,61,62
30480,note_on,0,0,1,,,,,,,,,0,,,87,88
30480,note_on,0,0,1,,,,,,,,,0,,,81,88
30480,note_on,0,0,3,,,,,,,,,2,,,59,0
30480,note_on,0,0,3,,,,,,,,,2,,,57,62
30480,note_on,0,0,3,,,,,,,,,2,,,53,0
30480,note_on,120,0,1,,,,,,,,,0,,,73,0
30480,note_on,240,0,3,,,,,,,,,2,,,61,0
30480,note_on,0,0,1,,,,,,,,,0,,,69,0
30600,note_on,0,0,1,,,,,,,,,0,,,85,88
30600,note_on,0,0,1,,,,,,,,,0,,,81,0
30600,note_on,0,0,1,,,,,,,,,0,,,78,88
30600,note_on,120,0,1,,,,,,,,,0,,,87,0
30720,note_on,0,0,1,,,,,,,,,0,,,78,0
30720,note_on,120,0,1,,,,,,,,,0,,,85,0
30720,note_on,0,0,1,,,,,,,,,0,,,80,101
30720,note_on,0,0,3,,,,,,,,,2,,,56,75
30720,note_on,0,0,3,,,,,,,,,2,,,54,0
30720,note_on,0,0,3,,,,,,,,,2,,,44,75
30720,note_on,240,0,3,,,,,,,,,2,,,61,0
30720,note_on,0,0,3,,,,,,,,,2,,,57,0
30767,note_on,0,0,1,,,,,,,,,0,,,81,101
30767,note_on,47,0,1,,,,,,,,,0,,,80,0
30816,note_on,49,0,1,,,,,,,,,0,,,81,0
30816,note_on,0,0,1,,,,,,,,,0,,,80,101
30863,note_on,47,0,1,,,,,,,,,0,,,80,0
30863,note_on,0,0,1,,,,,,,,,0,,,79,101
30912,note_on,49,0,1,,,,,,,,,0,,,79,0
30912,note_on,0,0,1,,,,,,,,,0,,,80,101
30960,note_on,0,0,3,,,,,,,,,2,,,56,75
30960,note_on,48,0,1,,,,,,,,,0,,,80,0
30960,note_on,0,0,3,,,,,,,,,2,,,61,75
30960,note_on,0,0,3,,,,,,,,,2,,,64,75
30960,note_on,0,0,3,,,,,,,,,2,,,44,0
30960,note_on,0,0,1,,,,,,,,,0,,,92,101
30960,note_on,240,0,3,,,,,,,,,2,,,56,0
31080,note_on,120,0,1,,,,,,,,,0,,,92,0
31080,note_on,0,0,1,,,,,,,,,0,,,88,101
31103,note_on,23,0,1,,,,,,,,,0,,,88,0
31200,note_on,240,0,3,,,,,,,,,2,,,64,0
31200,note_on,0,0,3,,,,,,,,,2,,,44,75
31200,note_on,97,0,1,,,,,,,,,0,,,87,101
31200,note_on,0,0,3,,,,,,,,,2,,,56,0
31200,note_on,0,0,3,,,,,,,,,2,,,56,75
31200,note_on,0,0,3,,,,,,,,,2,,,61,0
31223,note_on,23,0,1,,,,,,,,,0,,,87,0
31320,note_on,97,0,1,,,,,,,,,0,,,84,101
31343,note_on,23,0,1,,,,,,,,,0,,,84,0
31440,note_on,240,0,3,,,,,,,,,2,,,56,0
31440,note_on,97,0,1,,,,,,,,,0,,,80,101
31440,note_on,0,0,3,,,,,,,,,2,,,44,0
31440,note_on,0,0,3,,,,,,,,,2,,,56,75
31440,note_on,0,0,3,,,,,,,,,2,,,63,75
31440,note_on,0,0,3,,,,,,,,,2,,,66,75
31463,note_on,23,0,1,,,,,,,,,0,,,80,0
31560,note_on,97,0,1,,,,,,,,,0,,,72,101
31583,note_on,23,0,1,,,,,,,,,0,,,72,0
31680,note_on,0,0,3,,,,,,,,,2,,,56,0
31680,note_on,0,0,3,,,,,,,,,2,,,49,75
31680,note_on,240,0,3,,,,,,,,,2,,,66,0
31680,note_on,0,0,3,,,,,,,,,2,,,63,0
31680,note_on,97,0,1,,,,,,,,,0,,,73,101
31800,note_on,0,0,1,,,,,,,,,0,,,76,101
31800,note_on,120,0,1,,,,,,,,,0,,,73,0
31920,note_on,0,0,3,,,,,,,,,2,,,56,75
31920,note_on,0,0,1,,,,,,,,,0,,,88,101
31920,note_on,0,0,3,,,,,,,,,2,,,61,75
31920,note_on,0,0,3,,,,,,,,,2,,,64,75
31920,note_on,120,0,1,,,,,,,,,0,,,76,0
31920,note_on,240,0,3,,,,,,,,,2,,,49,0
32040,note_on,120,0,1,,,,,,,,,0,,,88,0
32040,note_on,0,0,1,,,,,,,,,0,,,85,101
32160,note_on,0,0,3,,,,,,,,,2,,,49,75
32160,note_on,0,0,3,,,,,,,,,2,,,56,0
32160,note_on,0,0,3,,,,,,,,,2,,,61,0
32160,note_on,240,0,3,,,,,,,,,2,,,64,0
32160,note_on,0,0,1,,,,,,,,,0,,,73,101
32160,note_on,120,0,1,,,,,,,,,0,,,85,0
32207,note_on,47,0,1,,,,,,,,,0,,,73,0
32400,note_on,240,0,3,,,,,,,,,2,,,49,0
32400,note_on,193,0,1,,,,,,,,,0,,,68,101
32447,note_on,47,0,1,,,,,,,,,0,,,68,0
32640,note_on,2400,0,2,,,,,,,,,1,,,72,62
32640,note_on,193,0,1,,,,,,,,,0,,,75,75
32640,note_on,240,0,3,,,,,,,,,2,,,44,62
32760,note_on,120,0,2,,,,,,,,,1,,,72,0
32760,note_on,0,0,3,,,,,,,,,2,,,48,62
32760,note_on,120,0,3,,,,,,,,,2,,,44,0
32760,note_on,0,0,2,,,,,,,,,1,,,68,62
32880,note_on,120,0,3,,,,,,,,,2,,,48,0
32880,note_on,120,0,2,,,,,,,,,1,,,68,0
32880,note_on,0,0,3,,,,,,,,,2,,,51,62
32880,note_on,0,0,2,,,,,,,,,1,,,63,62
33000,note_on,120,0,3,,,,,,,,,2,,,51,0
33000,note_on,0,0,3,,,,,,,,,2,,,56,62
33000,note_on,0,0,2,,,,,,,,,1,,,68,62
33000,note_on,120,0,2,,,,,,,,,1,,,63,0
33120,note_on,480,0,1,,,,,,,,,0,,,75,0
33120,note_on,0,0,2,,,,,,,,,1,,,72,62
33120,note_on,120,0,2,,,,,,,,,1,,,68,0
33120,note_on,120,0,3,,,,,,,,,2,,,56,0
33120,note_on,0,0,3,,,,,,,,,2,,,44,62
33120,note_on,0,0,1,,,,,,,,,0,,,75,75
33240,note_on,0,0,2,,,,,,,,,1,,,68,62
33240,note_on,120,0,3,,,,,,,,,2,,,44,0
33240,note_on,0,0,3,,,,,,,,,2,,,48,62
33240,note_on,120,0,2,,,,,,,,,1,,,72,0
33360,note_on,0,0,3,,,,,,,,,2,,,51,62
33360,note_on,240,0,1,,,,,,,,,0,,,75,0
33360,note_on,0,0,1,,,,,,,,,0,,,72,75
33360,note_on,0,0,1,,,,,,,,,0,,,75,75
33360,note_on,0,0,2,,,,,,,,,1,,,63,62
33360,note_on,120,0,2,,,,,,,,,1,,,68,0
33360,note_on,120,0,3,,,,,,,,,2,,,48,0
33480,note_on,120,0,2,,,,,,,,,1,,,63,0
33480,note_on,0,0,3,,,,,,,,,2,,,56,62
33480,note_on,120,0,3,,,,,,,,,2,,,51,0
33480,note_on,0,0,2,,,,,,,,,1,,,68,62
33600,note_on,120,0,2,,,,,,,,,1,,,68,0
33600,note_on,0,0,2,,,,,,,,,1,,,73,75
33600,note_on,120,0,3,,,,,,,,,2,,,56,0
33600,note_on,240,0,1,,,,,,,,,0,,,75,0
33600,note_on,0,0,3,,,,,,,,,2,,,44,75
33600,note_on,0,0,1,,,,,,,,,0,,,72,0
33600,note_on,0,0,1,,,,,,,,,0,,,76,88
33720,note_on,0,0,2,,,,,,,,,1,,,68,75
33720,note_on,120,0,3,,,,,,,,,2,,,44,0
33720,note_on,120,0,2,,,,,,,,,1,,,73,0
33720,note_on,0,0,3,,,,,,,,,2,,,49,75
33840,note_on,0,0,2,,,,,,,,,1,,,64,75
33840,note_on,0,0,3,,,,,,,,,2,,,52,75
33840,note_on,120,0,2,,,,,,,,,1,,,68,0
33840,note_on,120,0,3,,,,,,,,,2,,,49,0
33960,note_on,0,0,3,,,,,,,,,2,,,56,75
33960,note_on,120,0,2,,,,,,,,,1,,,64,0
33960,note_on,0,0,2,,,,,,,,,1,,,68,75
33960,note_on,120,0,3,,,,,,,,,2,,,52,0
34080,note_on,120,0,2,,,,,,,,,1,,,68,0
34080,note_on,0,0,1,,,,,,,,,0,,,76,88
34080,note_on,0,0,2,,,,,,,,,1,,,73,75
34080,note_on,480,0,1,,,,,,,,,0,,,76,0
34080,note_on,0,0,3,,,,,,,,,2,,,44,75
34080,note_on,120,0,3,,,,,,,,,2,,,56,0
34200,note_on,120,0,3,,,,,,,,,2,,,44,0
34200,note_on,0,0,3,,,,,,,,,2,,,49,75
34200,note_on,120,0,2,,,,,,,,,1,,,73,0
34200,note_on,0,0,2,,,,,,,,,1,,,68,75
34320,note_on,0,0,2,,,,,,,,,1,,,64,75
34320,note_on,0,0,3,,,,,,,,,2,,,52,75
34320,note_on,120,0,3,,,,,,,,,2,,,49,0
34320,note_on,120,0,2,,,,,,,,,1,,,68,0
34440,note_on,0,0,3,,,,,,,,,2,,,56,75
34440,note_on,120,0,3,,,,,,,,,2,,,52,0
34440,note_on,120,0,2,,,,,,,,,1,,,64,0
34440,note_on,0,0,2,,,,,,,,,1,,,68,75
34560,note_on,120,0,3,,,,,,,,,2,,,56,0
34560,note_on,120,0,2,,,,,,,,,1,,,68,0
34560,note_on,0,0,1,,,,,,,,,0,,,77,88
34560,note_on,0,0,2,,,,,,,,,1,,,74,75
34560,note_on,480,0,1,,,,,,,,,0,,,76,0
34560,note_on,0,0,3,,,,,,,,,2,,,44,75
34680,note_on,120,0,3,,,,,,,,,2,,,44,0
34680,note_on,120,0,2,,,,,,,,,1,,,74,0
34680,note_on,0,0,2,,,,,,,,,1,,,68,75
34680,note_on,0,0,3,,,,,,,,,2,,,50,75
34800,note_on,0,0,3,,,,,,,,,2,,,53,75
34800,note_on,120,0,3,,,,,,,,,2,,,50,0
34800,note_on,120,0,2,,,,,,,,,1,,,68,0
34800,note_on,0,0,2,,,,,,,,,1,,,65,75
34920,note_on,0,0,3,,,,,,,,,2,,,56,75
34920,note_on,0,0,2,,,,,,,,,1,,,68,75
34920,note_on,120,0,3,,,,,,,,,2,,,53,0
34920,note_on,120,0,2,,,,,,,,,1,,,65,0
35040,note_on,0,0,1,,,,,,,,,0,,,77,88
35040,note_on,480,0,1,,,,,,,,,0,,,77,0
35040,note_on,120,0,2,,,,,,,,,1,,,68,0
35040,note_on,0,0,2,,,,,,,,,1,,,74,75
35040,note_on,0,0,3,,,,,,,,,2,,,44,75
35040,note_on,120,0,3,,,,,,,,,2,,,56,0
35160,note_on,120,0,2,,,,,,,,,1,,,74,0
35160,note_on,120,0,3,,,,,,,,,2,,,44,0
35160,note_on,0,0,3,,,,,,,,,2,,,50,75
35160,note_on,0,0,2,,,,,,,,,1,,,68,75
35280,note_on,0,0,1,,,,,,,,,0,,,77,88
35280,note_on,120,0,2,,,,,,,,,1,,,68,0
35280,note_on,240,0,1,,,,,,,,,0,,,77,0
35280,note_on,0,0,2,,,,,,,,,1,,,65,75
35280,note_on,120,0,3,,,,,,,,,2,,,50,0
35280,note_on,0,0,3,,,,,,,,,2,,,53,75
35280,note_on,0,0,1,,,,,,,,,0,,,74,88
35400,note_on,0,0,3,,,,,,,,,2,,,56,75
35400,note_on,0,0,2,,,,,,,,,1,,,68,75
35400,note_on,120,0,2,,,,,,,,,1,,,65,0
35400,note_on,120,0,3,,,,,,,,,2,,,53,0
35520,note_on,120,0,2,,,,,,,,,1,,,68,0
35520,note_on,0,0,1,,,,,,,,,0,,,78,88
35520,note_on,0,0,3,,,,,,,,,2,,,44,75
35520,note_on,0,0,1,,,,,,,,,0,,,74,0
35520,note_on,0,0,2,,,,,,,,,1,,,75,75
35520,note_on,120,0,3,,,,,,,,,2,,,56,0
35520,note_on,240,0,1,,,,,,,,,0,,,77,0
35640,note_on,0,0,3,,,,,,,,,2,,,51,75
35640,note_on,120,0,3,,,,,,,,,2,,,44,0
35640,note_on,120,0,2,,,,,,,,,1,,,75,0
35640,note_on,0,0,2,,,,,,,,,1,,,68,75
35760,note_on,0,0,3,,,,,,,,,2,,,54,75
35760,note_on,120,0,3,,,,,,,,,2,,,51,0
35760,note_on,120,0,2,,,,,,,,,1,,,68,0
35760,note_on,0,0,2,,,,,,,,,1,,,66,75
35880,note_on,0,0,3,,,,,,,,,2,,,56,75
35880,note_on,120,0,2,,,,,,,,,1,,,66,0
35880,note_on,0,0,2,,,,,,,,,1,,,68,75
35880,note_on,120,0,3,,,,,,,,,2,,,54,0
36000,note_on,0,0,1,,,,,,,,,0,,,78,88
36000,note_on,120,0,2,,,,,,,,,1,,,68,0
36000,note_on,120,0,3,,,,,,,,,2,,,56,0
36000,note_on,0,0,3,,,,,,,,,2,,,44,75
36000,note_on,480,0,1,,,,,,,,,0,,,78,0
36000,note_on,0,0,2,,,,,,,,,1,,,75,75
36120,note_on,120,0,2,,,,,,,,,1,,,75,0
36120,note_on,0,0,3,,,,,,,,,2,,,51,75
36120,note_on,0,0,2,,,,,,,,,1,,,68,75
36120,note_on,120,0,3,,,,,,,,,2,,,44,0
36240,note_on,0,0,3,,,,,,,,,2,,,54,75
36240,note_on,120,0,3,,,,,,,,,2,,,51,0
36240,note_on,120,0,2,,,,,,,,,1,,,68,0
36240,note_on,0,0,2,,,,,,,,,1,,,66,75
36360,note_on,0,0,2,,,,,,,,,1,,,68,75
36360,note_on,0,0,3,,,,,,,,,2,,,56,75
36360,note_on,120,0,2,,,,,,,,,1,,,66,0
36360,note_on,120,0,3,,,,,,,,,2,,,54,0
36480,note_on,120,0,2,,,,,,,,,1,,,68,0
36480,note_on,0,0,1,,,,,,,,,0,,,67,88
36480,note_on,0,0,1,,,,,,,,,0,,,79,88
36480,note_on,480,0,1,,,,,,,,,0,,,78,0
36480,note_on,120,0,3,,,,,,,,,2,,,56,0
36480,note_on,0,0,3,,,,,,,,,2,,,44,75
36720,note_on,0,0,3,,,,,,,,,2,,,67,75
36720,note_on,0,0,3,,,,,,,,,2,,,56,75
36720,note_on,0,0,3,,,,,,,,,2,,,58,75
36720,note_on,0,0,1,,,,,,,,,0,,,67,0
36720,note_on,0,0,1,,,,,,,,,0,,,100,88
36720,note_on,0,0,3,,,,,,,,,2,,,64,75
36720,note_on,240,0,3,,,,,,,,,2,,,44,0
36720,note_on,0,0,3,,,,,,,,,2,,,61,75
36720,note_on,240,0,1,,,,,,,,,0,,,79,0
36840,note_on,120,0,1,,,,,,,,,0,,,100,0
36840,note_on,0,0,1,,,,,,,,,0,,,97,88
36960,note_on,0,0,1,,,,,,,,,0,,,97,88
36960,note_on,120,0,1,,,,,,,,,0,,,97,0
36960,note_on,0,0,3,,,,,,,,,2,,,64,0
36960,note_on,0,0,3,,,,,,,,,2,,,61,0
36960,note_on,0,0,3,,,,,,,,,2,,,58,0
36960,note_on,0,0,3,,,,,,,,,2,,,56,0
36960,note_on,240,0,3,,,,,,,,,2,,,67,0
37080,note_on,0,0,1,,,,,,,,,0,,,94,88
37080,note_on,120,0,1,,,,,,,,,0,,,97,0
37200,note_on,0,0,1,,,,,,,,,0,,,94,88
37200,note_on,120,0,1,,,,,,,,,0,,,94,0
37320,note_on,120,0,1,,,,,,,,,0,,,94,0
37320,note_on,0,0,1,,,,,,,,,0,,,91,88
37440,note_on,0,0,1,,,,,,,,,0,,,91,88
37440,note_on,120,0,1,,,,,,,,,0,,,91,0
37560,note_on,120,0,1,,,,,,,,,0,,,91,0
37560,note_on,0,0,1,,,,,,,,,0,,,88,88
37680,note_on,0,0,1,,,,,,,,,0,,,88,88
37680,note_on,120,0,1,,,,,,,,,0,,,88,0
37800,note_on,0,0,1,,,,,,,,,0,,,85,88
37800,note_on,120,0,1,,,,,,,,,0,,,88,0
37920,note_on,0,0,1,,,,,,,,,0,,,85,88
37920,note_on,120,0,1,,,,,,,,,0,,,85,0
38040,note_on,0,0,1,,,,,,,,,0,,,82,88
38040,note_on,120,0,1,,,,,,,,,0,,,85,0
38160,note_on,0,0,1,,,,,,,,,0,,,82,88
38160,note_on,120,0,1,,,,,,,,,0,,,82,0
38280,note_on,120,0,1,,,,,,,,,0,,,82,0
38280,note_on,0,0,1,,,,,,,,,0,,,79,88
38400,note_on,0,0,1,,,,,,,,,0,,,79,88
38400,note_on,1440,0,3,,,,,,,,,2,,,44,75
38400,note_on,0,0,3,,,,,,,,,2,,,56,75
38400,note_on,120,0,1,,,,,,,,,0,,,79,0
38520,note_on,0,0,1,,,,,,,,,0,,,78,88
38520,note_on,120,0,1,,,,,,,,,0,,,79,0
38640,note_on,0,0,1,,,,,,,,,0,,,78,88
38640,note_on,240,0,3,,,,,,,,,2,,,56,0
38640,note_on,0,0,3,,,,,,,,,2,,,44,0
38640,note_on,120,0,1,,,,,,,,,0,,,78,0
38640,note_on,0,0,3,,,,,,,,,2,,,63,75
38640,note_on,0,0,3,,,,,,,,,2,,,60,75
38640,note_on,0,0,3,,,,,,,,,2,,,56,75
38640,note_on,0,0,3,,,,,,,,,2,,,66,75
38760,note_on,120,0,1,,,,,,,,,0,,,78,0
38760,note_on,0,0,1,,,,,,,,,0,,,75,88
38880,note_on,0,0,3,,,,,,,,,2,,,56,0
38880,note_on,0,0,3,,,,,,,,,2,,,63,0
38880,note_on,0,0,3,,,,,,,,,2,,,60,0
38880,note_on,240,0,3,,,,,,,,,2,,,66,0
38880,note_on,120,0,1,,,,,,,,,0,,,75,0
38880,note_on,0,0,1,,,,,,,,,0,,,75,88
39000,note_on,0,0,1,,,,,,,,,0,,,72,88
39000,note_on,120,0,1,,,,,,,,,0,,,75,0
39120,note_on,120,0,1,,,,,,,,,0,,,72,0
39120,note_on,0,0,1,,,,,,,,,0,,,72,88
39240,note_on,0,0,1,,,,,,,,,0,,,69,88
39240,note_on,120,0,1,,,,,,,,,0,,,72,0
39360,note_on,0,0,1,,,,,,,,,0,,,69,88
39360,note_on,120,0,1,,,,,,,,,0,,,69,0
39480,note_on,0,0,1,,,,,,,,,0,,,66,88
39480,note_on,120,0,1,,,,,,,,,0,,,69,0
39600,note_on,0,0,1,,,,,,,,,0,,,66,88
39600,note_on,120,0,1,,,,,,,,,0,,,66,0
39720,note_on,0,0,1,,,,,,,,,0,,,63,88
39720,note_on,120,0,1,,,,,,,,,0,,,66,0
39840,note_on,0,0,1,,,,,,,,,0,,,63,88
39840,note_on,120,0,1,,,,,,,,,0,,,63,0
39960,note_on,0,0,1,,,,,,,,,0,,,60,88
39960,note_on,120,0,1,,,,,,,,,0,,,63,0
40080,note_on,0,0,1,,,,,,,,,0,,,60,88
40080,note_on,120,0,1,,,,,,,,,0,,,60,0
40200,note_on,0,0,1,,,,,,,,,0,,,56,88
40200,note_on,120,0,1,,,,,,,,,0,,,60,0
40320,note_on,1440,0,3,,,,,,,,,2,,,37,62
40320,note_on,0,0,1,,,,,,,,,0,,,76,88
40320,note_on,3840,0,2,,,,,,,,,1,,,73,75
40320,note_on,120,0,1,,,,,,,,,0,,,56,0
40320,note_on,0,0,3,,,,,,,,,2,,,49,62
40440,note_on,120,0,2,,,,,,,,,1,,,73,0
40440,note_on,0,0,2,,,,,,,,,1,,,68,75
40560,note_on,0,0,3,,,,,,,,,2,,,61,62
40560,note_on,0,0,3,,,,,,,,,2,,,52,62
40560,note_on,0,0,3,,,,,,,,,2,,,56,62
40560,note_on,0,0,2,,,,,,,,,1,,,64,75
40560,note_on,240,0,3,,,,,,,,,2,,,49,0
40560,note_on,0,0,3,,,,,,,,,2,,,37,0
40560,note_on,120,0,2,,,,,,,,,1,,,68,0
40680,note_on,120,0,2,,,,,,,,,1,,,64,0
40680,note_on,0,0,2,,,,,,,,,1,,,68,75
40800,note_on,480,0,1,,,,,,,,,0,,,76,0
40800,note_on,0,0,2,,,,,,,,,1,,,73,75
40800,note_on,0,0,1,,,,,,,,,0,,,76,88
40800,note_on,0,0,3,,,,,,,,,2,,,52,0
40800,note_on,0,0,3,,,,,,,,,2,,,44,62
40800,note_on,120,0,2,,,,,,,,,1,,,68,0
40800,note_on,240,0,3,,,,,,,,,2,,,61,0
40800,note_on,0,0,3,,,,,,,,,2,,,56,0
40920,note_on,0,0,2,,,,,,,,,1,,,68,75
40920,note_on,120,0,2,,,,,,,,,1,,,73,0
41040,note_on,240,0,1,,,,,,,,,0,,,76,0
41040,note_on,240,0,3,,,,,,,,,2,,,44,0
41040,note_on,0,0,2,,,,,,,,,1,,,72,75
41040,note_on,0,0,1,,,,,,,,,0,,,75,88
41040,note_on,0,0,3,,,,,,,,,2,,,60,62
41040,note_on,0,0,3,,,,,,,,,2,,,56,62
41040,note_on,0,0,3,,,,,,,,,2,,,51,62
41040,note_on,120,0,2,,,,,,,,,1,,,68,0
41160,note_on,120,0,2,,,,,,,,,1,,,72,0
41160,note_on,0,0,2,,,,,,,,,1,,,66,75
41280,note_on,240,0,3,,,,,,,,,2,,,60,0
41280,note_on,0,0,1,,,,,,,,,0,,,75,88
41280,note_on,240,0,1,,,,,,,,,0,,,75,0
41280,note_on,120,0,2,,,,,,,,,1,,,66,0
41280,note_on,0,0,2,,,,,,,,,1,,,72,75
41280,note_on,0,0,3,,,,,,,,,2,,,45,62
41280,note_on,0,0,3,,,,,,,,,2,,,51,0
41280,note_on,0,0,3,,,,,,,,,2,,,56,0
41400,note_on,120,0,2,,,,,,,,,1,,,72,0
41400,note_on,0,0,2,,,,,,,,,1,,,66,75
41520,note_on,120,0,2,,,,,,,,,1,,,66,0
41520,note_on,0,0,2,,,,,,,,,1,,,69,75
41520,note_on,240,0,1,,,,,,,,,0,,,75,0
41520,note_on,0,0,3,,,,,,,,,2,,,52,62
41520,note_on,240,0,3,,,,,,,,,2,,,45,0
41520,note_on,0,0,1,,,,,,,,,0,,,73,88
41520,note_on,0,0,3,,,,,,,,,2,,,61,62
41520,note_on,0,0,3,,,,,,,,,2,,,57,62
41640,note_on,120,0,2,,,,,,,,,1,,,69,0
41640,note_on,0,0,2,,,,,,,,,1,,,64,75
41760,note_on,0,0,3,,,,,,,,,2,,,52,0
41760,note_on,120,0,2,,,,,,,,,1,,,64,0
41760,note_on,240,0,3,,,,,,,,,2,,,61,0
41760,note_on,240,0,1,,,,,,,,,0,,,73,0
41760,note_on,0,0,1,,,,,,,,,0,,,71,75
41760,note_on,0,0,3,,,,,,,,,2,,,41,62
41760,note_on,0,0,3,,,,,,,,,2,,,57,0
41880,note_on,120,0,1,,,,,,,,,0,,,71,0
41880,note_on,0,0,1,,,,,,,,,0,,,73,75
42000,note_on,0,0,3,,,,,,,,,2,,,61,62
42000,note_on,0,0,3,,,,,,,,,2,,,53,62
42000,note_on,0,0,3,,,,,,,,,2,,,56,62
42000,note_on,240,0,3,,,,,,,,,2,,,41,0
42000,note_on,120,0,1,,,,,,,,,0,,,73,0
42000,note_on,0,0,1,,,,,,,,,0,,,74,75
42000,note_on,0,0,1,,,,,,,,,0,,,71,75
42120,note_on,120,0,1,,,,,,,,,0,,,74,0
42120,note_on,0,0,1,,,,,,,,,0,,,71,0
42120,note_on,0,0,1,,,,,,,,,0,,,68,75
42120,note_on,0,0,1,,,,,,,,,0,,,73,75
42240,note_on,0,0,1,,,,,,,,,0,,,68,0
42240,note_on,240,0,3,,,,,,,,,2,,,61,0
42240,note_on,0,0,3,,,,,,,,,2,,,53,0
42240,note_on,0,0,3,,,,,,,,,2,,,54,49
42240,note_on,0,0,1,,,,,,,,,0,,,81,62
42240,note_on,120,0,1,,,,,,,,,0,,,73,0
42240,note_on,0,0,3,,,,,,,,,2,,,56,0
42240,note_on,480,0,2,,,,,,,,,1,,,78,49
42360,note_on,0,0,2,,,,,,,,,1,,,73,49
42360,note_on,120,0,2,,,,,,,,,1,,,78,0
42480,note_on,120,0,2,,,,,,,,,1,,,73,0
42480,note_on,0,0,3,,,,,,,,,2,,,66,49
42480,note_on,0,0,3,,,,,,,,,2,,,61,49
42480,note_on,240,0,3,,,,,,,,,2,,,54,0
42480,note_on,0,0,3,,,,,,,,,2,,,57,49
42480,note_on,0,0,2,,,,,,,,,1,,,69,49
42600,note_on,0,0,2,,,,,,,,,1,,,73,49
42600,note_on,120,0,2,,,,,,,,,1,,,69,0
42720,note_on,0,0,3,,,,,,,,,2,,,57,0
42720,note_on,0,0,3,,,,,,,,,2,,,61,0
42720,note_on,0,0,2,,,,,,,,,1,,,78,49
42720,note_on,0,0,1,,,,,,,,,0,,,81,62
42720,note_on,240,0,3,,,,,,,,,2,,,66,0
42720,note_on,120,0,2,,,,,,,,,1,,,73,0
42720,note_on,480,0,1,,,,,,,,,0,,,81,0
42720,note_on,0,0,3,,,,,,,,,2,,,49,49
42840,note_on,0,0,2,,,,,,,,,1,,,73,49
42840,note_on,120,0,2,,,,,,,,,1,,,78,0
42960,note_on,240,0,1,,,,,,,,,0,,,81,0
42960,note_on,120,0,2,,,,,,,,,1,,,73,0
42960,note_on,0,0,3,,,,,,,,,2,,,61,49
42960,note_on,240,0,3,,,,,,,,,2,,,49,0
42960,note_on,0,0,1,,,,,,,,,0,,,80,62
42960,note_on,0,0,3,,,,,,,,,2,,,65,49
42960,note_on,0,0,2,,,,,,,,,1,,,77,49
42960,note_on,0,0,3,,,,,,,,,2,,,56,49
43080,note_on,0,0,2,,,,,,,,,1,,,71,49
43080,note_on,120,0,2,,,,,,,,,1,,,77,0
43200,note_on,120,0,2,,,,,,,,,1,,,71,0
43200,note_on,0,0,3,,,,,,,,,2,,,56,0
43200,note_on,0,0,2,,,,,,,,,1,,,77,49
43200,note_on,0,0,1,,,,,,,,,0,,,80,62
43200,note_on,240,0,1,,,,,,,,,0,,,80,0
43200,note_on,0,0,3,,,,,,,,,2,,,50,49
43200,note_on,240,0,3,,,,,,,,,2,,,65,0
43200,note_on,0,0,3,,,,,,,,,2,,,61,0
43320,note_on,120,0,2,,,,,,,,,1,,,77,0
43320,note_on,0,0,2,,,,,,,,,1,,,71,49
43440,note_on,120,0,2,,,,,,,,,1,,,71,0
43440,note_on,0,0,2,,,,,,,,,1,,,74,49
43440,note_on,0,0,1,,,,,,,,,0,,,78,62
43440,note_on,0,0,3,,,,,,,,,2,,,62,49
43440,note_on,0,0,3,,,,,,,,,2,,,66,49
43440,note_on,240,0,1,,,,,,,,,0,,,80,0
43440,note_on,0,0,3,,,,,,,,,2,,,57,49
43440,note_on,240,0,3,,,,,,,,,2,,,50,0
43560,note_on,120,0,2,,,,,,,,,1,,,74,0
43560,note_on,0,0,2,,,,,,,,,1,,,69,49
43680,note_on,120,0,2,,,,,,,,,1,,,69,0
43680,note_on,0,0,1,,,,,,,,,0,,,76,62
43680,note_on,0,0,3,,,,,,,,,2,,,62,0
43680,note_on,240,0,3,,,,,,,,,2,,,66,0
43680,note_on,0,0,3,,,,,,,,,2,,,57,0
43680,note_on,0,0,3,,,,,,,,,2,,,58,49
43680,note_on,240,0,1,,,,,,,,,0,,,78,0
43800,note_on,0,0,1,,,,,,,,,0,,,78,62
43800,note_on,120,0,1,,,,,,,,,0,,,76,0
43920,note_on,0,0,1,,,,,,,,,0,,,79,62
43920,note_on,240,0,3,,,,,,,,,2,,,58,0
43920,note_on,0,0,1,,,,,,,,,0,,,76,62
43920,note_on,0,0,3,,,,,,,,,2,,,64,49
43920,note_on,0,0,3,,,,,,,,,2,,,66,49
43920,note_on,0,0,3,,,,,,,,,2,,,61,49
43920,note_on,120,0,1,,,,,,,,,0,,,78,0
44040,note_on,0,0,1,,,,,,,,,0,,,73,62
44040,note_on,120,0,1,,,,,,,,,0,,,79,0
44040,note_on,0,0,1,,,,,,,,,0,,,78,62
44040,note_on,0,0,1,,,,,,,,,0,,,76,0
44160,note_on,240,0,3,,,,,,,,,2,,,66,0
44160,note_on,120,0,1,,,,,,,,,0,,,78,0
44160,note_on,0,0,1,,,,,,,,,0,,,73,0
44160,note_on,480,0,2,,,,,,,,,1,,,83,75
44160,note_on,0,0,1,,,,,,,,,0,,,86,88
44160,note_on,0,0,3,,,,,,,,,2,,,59,62
44160,note_on,0,0,3,,,,,,,,,2,,,61,0
44160,note_on,0,0,3,,,,,,,,,2,,,64,0
44280,note_on,0,0,2,,,,,,,,,1,,,78,75
44280,note_on,120,0,2,,,,,,,,,1,,,83,0
44400,note_on,0,0,3,,,,,,,,,2,,,62,62
44400,note_on,0,0,3,,,,,,,,,2,,,66,62
44400,note_on,0,0,3,,,,,,,,,2,,,71,62
44400,note_on,120,0,2,,,,,,,,,1,,,78,0
44400,note_on,0,0,2,,,,,,,,,1,,,74,75
44400,note_on,240,0,3,,,,,,,,,2,,,59,0
44520,note_on,0,0,2,,,,,,,,,1,,,78,75
44520,note_on,120,0,2,,,,,,,,,1,,,74,0
44640,note_on,0,0,1,,,,,,,,,0,,,86,88
44640,note_on,0,0,3,,,,,,,,,2,,,66,0
44640,note_on,480,0,1,,,,,,,,,0,,,86,0
44640,note_on,0,0,3,,,,,,,,,2,,,62,0
44640,note_on,0,0,3,,,,,,,,,2,,,54,62
44640,note_on,120,0,2,,,,,,,,,1,,,78,0
44640,note_on,0,0,2,,,,,,,,,1,,,83,75
44640,note_on,240,0,3,,,,,,,,,2,,,71,0
44760,note_on,0,0,2,,,,,,,,,1,,,78,75
44760,note_on,120,0,2,,,,,,,,,1,,,83,0
44880,note_on,0,0,3,,,,,,,,,2,,,66,62
44880,note_on,120,0,2,,,,,,,,,1,,,78,0
44880,note_on,0,0,1,,,,,,,,,0,,,85,88
44880,note_on,0,0,3,,,,,,,,,2,,,70,62
44880,note_on,240,0,1,,,,,,,,,0,,,86,0
44880,note_on,0,0,2,,,,,,,,,1,,,82,75
44880,note_on,240,0,3,,,,,,,,,2,,,54,0
44880,note_on,0,0,3,,,,,,,,,2,,,61,62
45000,note_on,120,0,2,,,,,,,,,1,,,82,0
45000,note_on,0,0,2,,,,,,,,,1,,,76,75
45120,note_on,0,0,2,,,,,,,,,1,,,79,62
45120,note_on,0,0,3,,,,,,,,,2,,,66,0
45120,note_on,120,0,2,,,,,,,,,1,,,76,0
45120,note_on,0,0,3,,,,,,,,,2,,,61,0
45120,note_on,240,0,3,,,,,,,,,2,,,70,0
45120,note_on,240,0,1,,,,,,,,,0,,,85,0
45120,note_on,0,0,3,,,,,,,,,2,,,55,49
45120,note_on,0,0,1,,,,,,,,,0,,,85,75
45240,note_on,120,0,2,,,,,,,,,1,,,79,0
45240,note_on,0,0,2,,,,,,,,,1,,,74,62
45360,note_on,0,0,3,,,,,,,,,2,,,67,49
45360,note_on,240,0,1,,,,,,,,,0,,,85,0
45360,note_on,240,0,3,,,,,,,,,2,,,55,0
45360,note_on,0,0,3,,,,,,,,,2,,,62,49
45360,note_on,0,0,2,,,,,,,,,1,,,79,62
45360,note_on,0,0,3,,,,,,,,,2,,,59,49
45360,note_on,120,0,2,,,,,,,,,1,,,74,0
45360,note_on,0,0,1,,,,,,,,,0,,,83,75
45480,note_on,120,0,2,,,,,,,,,1,,,79,0
45480,note_on,0,0,2,,,,,,,,,1,,,74,62
45600,note_on,240,0,3,,,,,,,,,2,,,67,0
45600,note_on,0,0,3,,,,,,,,,2,,,51,49
45600,note_on,0,0,3,,,,,,,,,2,,,59,0
45600,note_on,240,0,1,,,,,,,,,0,,,83,0
45600,note_on,0,0,2,,,,,,,,,1,,,78,62
45600,note_on,0,0,1,,,,,,,,,0,,,83,75
45600,note_on,0,0,3,,,,,,,,,2,,,62,0
45600,note_on,120,0,2,,,,,,,,,1,,,74,0
45720,note_on,0,0,2,,,,,,,,,1,,,72,62
45720,note_on,120,0,2,,,,,,,,,1,,,78,0
45840,note_on,240,0,1,,,,,,,,,0,,,83,0
45840,note_on,0,0,3,,,,,,,,,2,,,60,49
45840,note_on,0,0,3,,,,,,,,,2,,,63,49
45840,note_on,240,0,3,,,,,,,,,2,,,51,0
45840,note_on,0,0,3,,,,,,,,,2,,,57,49
45840,note_on,0,0,1,,,,,,,,,0,,,81,75
45840,note_on,120,0,2,,,,,,,,,1,,,72,0
45840,note_on,0,0,2,,,,,,,,,1,,,78,62
45960,note_on,120,0,2,,,,,,,,,1,,,78,0
45960,note_on,0,0,2,,,,,,,,,1,,,72,62
46080,note_on,0,0,2,,,,,,,,,1,,,76,62
46080,note_on,240,0,1,,,,,,,,,0,,,81,0
46080,note_on,0,0,3,,,,,,,,,2,,,57,0
46080,note_on,0,0,1,,,,,,,,,0,,,81,75
46080,note_on,240,0,3,,,,,,,,,2,,,63,0
46080,note_on,0,0,3,,,,,,,,,2,,,60,0
46080,note_on,120,0,2,,,,,,,,,1,,,72,0
46080,note_on,0,0,3,,,,,,,,,2,,,52,49
46200,note_on,0,0,2,,,,,,,,,1,,,71,62
46200,note_on,120,0,2,,,,,,,,,1,,,76,0
46320,note_on,0,0,3,,,,,,,,,2,,,59,49
46320,note_on,240,0,1,,,,,,,,,0,,,81,0
46320,note_on,240,0,3,,,,,,,,,2,,,52,0
46320,note_on,0,0,1,,,,,,,,,0,,,79,75
46320,note_on,0,0,3,,,,,,,,,2,,,64,49
46320,note_on,0,0,3,,,,,,,,,2,,,55,49
46320,note_on,120,0,2,,,,,,,,,1,,,71,0
46320,note_on,0,0,2,,,,,,,,,1,,,76,62
46440,note_on,120,0,2,,,,,,,,,1,,,76,0
46440,note_on,0,0,2,,,,,,,,,1,,,71,62
46560,note_on,0,0,3,,,,,,,,,2,,,59,0
46560,note_on,120,0,2,,,,,,,,,1,,,71,0
46560,note_on,0,0,3,,,,,,,,,2,,,55,0
46560,note_on,240,0,1,,,,,,,,,0,,,79,0
46560,note_on,0,0,3,,,,,,,,,2,,,47,49
46560,note_on,240,0,3,,,,,,,,,2,,,64,0
46560,note_on,0,0,1,,,,,,,,,0,,,79,62
46560,note_on,0,0,2,,,,,,,,,1,,,74,49
46680,note_on,120,0,2,,,,,,,,,1,,,74,0
46680,note_on,0,0,2,,,,,,,,,1,,,68,49
46800,note_on,0,0,2,,,,,,,,,1,,,74,49
46800,note_on,0,0,3,,,,,,,,,2,,,59,49
46800,note_on,0,0,3,,,,,,,,,2,,,53,49
46800,note_on,0,0,1,,,,,,,,,0,,,77,62
46800,note_on,0,0,3,,,,,,,,,2,,,56,49
46800,note_on,240,0,1,,,,,,,,,0,,,79,0
46800,note_on,120,0,2,,,,,,,,,1,,,68,0
46800,note_on,240,0,3,,,,,,,,,2,,,47,0
46920,note_on,0,0,2,,,,,,,,,1,,,68,49
46920,note_on,120,0,2,,,,,,,,,1,,,74,0
47040,note_on,0,0,1,,,,,,,,,0,,,77,88
47040,note_on,0,0,2,,,,,,,,,1,,,72,49
47040,note_on,240,0,1,,,,,,,,,0,,,77,0
47040,note_on,240,0,3,,,,,,,,,2,,,59,0
47040,note_on,0,0,3,,,,,,,,,2,,,56,0
47040,note_on,0,0,3,,,,,,,,,2,,,53,0
47040,note_on,0,0,3,,,,,,,,,2,,,48,49
47040,note_on,120,0,2,,,,,,,,,1,,,68,0
47160,note_on,0,0,2,,,,,,,,,1,,,67,49
47160,note_on,120,0,2,,,,,,,,,1,,,72,0
47280,note_on,0,0,1,,,,,,,,,0,,,75,62
47280,note_on,0,0,2,,,,,,,,,1,,,72,49
47280,note_on,240,0,3,,,,,,,,,2,,,48,0
47280,note_on,120,0,2,,,,,,,,,1,,,67,0
47280,note_on,0,0,3,,,,,,,,,2,,,51,49
47280,note_on,0,0,3,,,,,,,,,2,,,55,49
47280,note_on,0,0,3,,,,,,,,,2,,,60,49
47280,note_on,240,0,1,,,,,,,,,0,,,77,0
47400,note_on,0,0,2,,,,,,,,,1,,,67,49
47400,note_on,120,0,2,,,,,,,,,1,,,72,0
47520,note_on,0,0,1,,,,,,,,,0,,,77,88
47520,note_on,120,0,2,,,,,,,,,1,,,67,0
47520,note_on,240,0,1,,,,,,,,,0,,,75,0
47520,note_on,0,0,3,,,,,,,,,2,,,55,0
47520,note_on,0,0,3,,,,,,,,,2,,,51,0
47520,note_on,0,0,2,,,,,,,,,1,,,70,49
47520,note_on,0,0,3,,,,,,,,,2,,,49,49
47520,note_on,240,0,3,,,,,,,,,2,,,60,0
47520,note_on,32880,0,4,,,,,,,,,3,,,49,49
47640,note_on,120,0,2,,,,,,,,,1,,,70,0
47640,note_on,0,0,2,,,,,,,,,1,,,67,49
47760,note_on,0,0,1,,,,,,,,,0,,,75,62
47760,note_on,0,0,3,,,,,,,,,2,,,55,49
47760,note_on,0,0,3,,,,,,,,,2,,,58,49
47760,note_on,240,0,1,,,,,,,,,0,,,77,0
47760,note_on,0,0,2,,,,,,,,,1,,,70,49
47760,note_on,240,0,3,,,,,,,,,2,,,49,0
47760,note_on,0,0,3,,,,,,,,,2,,,51,49
47760,note_on,120,0,2,,,,,,,,,1,,,67,0
47880,note_on,120,0,2,,,,,,,,,1,,,70,0
47880,note_on,0,0,2,,,,,,,,,1,,,67,49
48000,note_on,240,0,3,,,,,,,,,2,,,58,0
48000,note_on,0,0,3,,,,,,,,,2,,,51,0
48000,note_on,0,0,3,,,,,,,,,2,,,55,0
48000,note_on,240,0,1,,,,,,,,,0,,,75,0
48000,note_on,0,0,4,,,,,,,,,3,,,48,49
48000,note_on,120,0,2,,,,,,,,,1,,,67,0
48000,note_on,0,0,1,,,,,,,,,0,,,77,88
48000,note_on,0,0,2,,,,,,,,,1,,,72,49
48000,control_change,0,0,1,,,,,,,,,0,64,127,,
48000,note_on,0,0,3,,,,,,,,,2,,,48,49
48000,note_on,480,0,4,,,,,,,,,3,,,49,0
48120,note_on,120,0,2,,,,,,,,,1,,,72,0
48120,note_on,0,0,2,,,,,,,,,1,,,68,49
48240,note_on,0,0,3,,,,,,,,,2,,,60,49
48240,note_on,120,0,2,,,,,,,,,1,,,68,0
48240,note_on,0,0,1,,,,,,,,,0,,,75,62
48240,note_on,240,0,3,,,,,,,,,2,,,48,0
48240,note_on,0,0,3,,,,,,,,,2,,,56,49
48240,note_on,240,0,1,,,,,,,,,0,,,77,0
48240,note_on,0,0,2,,,,,,,,,1,,,72,49
48240,note_on,0,0,3,,,,,,,,,2,,,51,49
48360,note_on,0,0,2,,,,,,,,,1,,,68,49
48360,note_on,120,0,2,,,,,,,,,1,,,72,0
48480,note_on,480,0,4,,,,,,,,,3,,,48,0
48480,note_on,240,0,1,,,,,,,,,0,,,75,0
48480,note_on,240,0,3,,,,,,,,,2,,,60,0
48480,note_on,0,0,4,,,,,,,,,3,,,46,49
48480,note_on,0,0,3,,,,,,,,,2,,,46,49
48480,note_on,0,0,1,,,,,,,,,0,,,77,88
48480,note_on,0,0,2,,,,,,,,,1,,,73,49
48480,note_on,0,0,3,,,,,,,,,2,,,51,0
48480,note_on,120,0,2,,,,,,,,,1,,,68,0
48480,note_on,0,0,3,,,,,,,,,2,,,56,0
48600,note_on,0,0,2,,,,,,,,,1,,,67,49
48600,note_on,120,0,2,,,,,,,,,1,,,73,0
48720,note_on,0,0,2,,,,,,,,,1,,,73,49
48720,note_on,0,0,1,,,,,,,,,0,,,75,62
48720,control_change,0,0,1,,,,,,,,,0,64,0,,
48720,note_on,120,0,2,,,,,,,,,1,,,67,0
48720,note_on,240,0,1,,,,,,,,,0,,,77,0
48720,note_on,240,0,3,,,,,,,,,2,,,46,0
48720,note_on,0,0,3,,,,,,,,,2,,,61,49
48720,note_on,0,0,3,,,,,,,,,2,,,55,49
48720,note_on,0,0,3,,,,,,,,,2,,,51,49
48840,note_on,0,0,2,,,,,,,,,1,,,67,49
48840,note_on,120,0,2,,,,,,,,,1,,,73,0
48960,note_on,120,0,2,,,,,,,,,1,,,67,0
48960,note_on,0,0,2,,,,,,,,,1,,,72,62
48960,key_signature,24000,1,0,,,,,Db,,,,,,,,
48960,note_on,0,0,4,,,,,,,,,3,,,44,49
48960,note_on,0,0,3,,,,,,,,,2,,,55,0
48960,note_on,0,0,3,,,,,,,,,2,,,51,0
48960,note_on,0,0,3,,,,,,,,,2,,,44,49
48960,note_on,480,0,4,,,,,,,,,3,,,46,0
48960,note_on,240,0,3,,,,,,,,,2,,,61,0
48960,control_change,0,0,1,,,,,,,,,0,64,127,,
48960,note_on,0,0,1,,,,,,,,,0,,,77,75
48960,note_on,240,0,1,,,,,,,,,0,,,75,0
49080,note_on,0,0,2,,,,,,,,,1,,,68,62
49080,note_on,120,0,2,,,,,,,,,1,,,72,0
49200,note_on,0,0,3,,,,,,,,,2,,,60,49
49200,note_on,240,0,3,,,,,,,,,2,,,44,0
49200,note_on,120,0,2,,,,,,,,,1,,,68,0
49200,note_on,0,0,2,,,,,,,,,1,,,72,62
49200,note_on,0,0,3,,,,,,,,,2,,,51,49
49200,note_on,0,0,1,,,,,,,,,0,,,75,75
49200,note_on,240,0,1,,,,,,,,,0,,,77,0
49200,note_on,0,0,3,,,,,,,,,2,,,56,49
49320,note_on,0,0,2,,,,,,,,,1,,,68,62
49320,note_on,120,0,2,,,,,,,,,1,,,72,0
49440,note_on,0,0,4,,,,,,,,,3,,,54,49
49440,note_on,0,0,3,,,,,,,,,2,,,56,0
49440,note_on,0,0,3,,,,,,,,,2,,,54,49
49440,note_on,0,0,1,,,,,,,,,0,,,82,75
49440,note_on,120,0,2,,,,,,,,,1,,,68,0
49440,note_on,0,0,2,,,,,,,,,1,,,75,62
49440,note_on,0,0,3,,,,,,,,,2,,,51,0
49440,note_on,240,0,3,,,,,,,,,2,,,60,0
49440,note_on,240,0,1,,,,,,,,,0,,,75,0
49440,note_on,480,0,4,,,,,,,,,3,,,44,0
49560,note_on,0,0,2,,,,,,,,,1,,,72,62
49560,note_on,120,0,2,,,,,,,,,1,,,75,0
49680,note_on,120,0,2,,,,,,,,,1,,,72,0
49680,control_change,0,0,1,,,,,,,,,0,64,0,,
49680,note_on,240,0,1,,,,,,,,,0,,,82,0
49680,note_on,0,0,3,,,,,,,,,2,,,56,49
49680,note_on,0,0,3,,,,,,,,,2,,,60,49
49680,note_on,240,0,3,,,,,,,,,2,,,54,0
49680,note_on,0,0,1,,,,,,,,,0,,,80,75
49680,note_on,0,0,2,,,,,,,,,1,,,75,62
49680,note_on,0,0,3,,,,,,,,,2,,,63,49
49800,note_on,120,0,2,,,,,,,,,1,,,75,0
49800,note_on,0,0,2,,,,,,,,,1,,,72,62
49920,note_on,0,0,3,,,,,,,,,2,,,53,49
49920,note_on,120,0,2,,,,,,,,,1,,,72,0
49920,note_on,0,0,2,,,,,,,,,1,,,77,62
49920,note_on,240,0,3,,,,,,,,,2,,,63,0
49920,note_on,0,0,1,,,,,,,,,0,,,82,75
49920,note_on,240,0,1,,,,,,,,,0,,,80,0
49920,note_on,480,0,4,,,,,,,,,3,,,54,0
49920,note_on,0,0,4,,,,,,,,,3,,,53,49
49920,note_on,0,0,3,,,,,,,,,2,,,56,0
49920,note_on,0,0,3,,,,,,,,,2,,,60,0
50040,note_on,120,0,2,,,,,,,,,1,,,77,0
50040,note_on,0,0,2,,,,,,,,,1,,,73,62
50160,note_on,240,0,1,,,,,,,,,0,,,82,0
50160,note_on,120,0,2,,,,,,,,,1,,,73,0
50160,note_on,0,0,2,,,,,,,,,1,,,77,62
50160,note_on,0,0,1,,,,,,,,,0,,,80,75
50160,note_on,0,0,3,,,,,,,,,2,,,56,49
50160,note_on,240,0,3,,,,,,,,,2,,,53,0
50160,note_on,0,0,3,,,,,,,,,2,,,65,49
50160,note_on,0,0,3,,,,,,,,,2,,,61,49
50280,note_on,0,0,2,,,,,,,,,1,,,73,62
50280,note_on,120,0,2,,,,,,,,,1,,,77,0
50400,note_on,0,0,4,,,,,,,,,3,,,51,49
50400,note_on,0,0,2,,,,,,,,,1,,,78,62
50400,note_on,0,0,3,,,,,,,,,2,,,51,49
50400,note_on,0,0,3,,,,,,,,,2,,,56,0
50400,note_on,0,0,3,,,,,,,,,2,,,61,0
50400,note_on,120,0,2,,,,,,,,,1,,,73,0
50400,note_on,480,0,4,,,,,,,,,3,,,53,0
50400,note_on,0,0,1,,,,,,,,,0,,,82,75
50400,note_on,240,0,3,,,,,,,,,2,,,65,0
50400,note_on,240,0,1,,,,,,,,,0,,,80,0
50520,note_on,120,0,2,,,,,,,,,1,,,78,0
50520,note_on,0,0,2,,,,,,,,,1,,,72,62
50640,note_on,120,0,2,,,,,,,,,1,,,72,0
50640,note_on,0,0,3,,,,,,,,,2,,,60,49
50640,note_on,0,0,3,,,,,,,,,2,,,63,49
50640,note_on,0,0,2,,,,,,,,,1,,,78,62
50640,note_on,240,0,1,,,,,,,,,0,,,82,0
50640,note_on,240,0,3,,,,,,,,,2,,,51,0
50640,note_on,0,0,3,,,,,,,,,2,,,56,49
50640,note_on,0,0,1,,,,,,,,,0,,,80,75
50760,note_on,120,0,2,,,,,,,,,1,,,78,0
50760,note_on,0,0,2,,,,,,,,,1,,,72,62
50880,note_on,120,0,2,,,,,,,,,1,,,72,0
50880,note_on,0,0,3,,,,,,,,,2,,,56,0
50880,note_on,0,0,3,,,,,,,,,2,,,49,49
50880,note_on,480,0,4,,,,,,,,,3,,,51,0
50880,note_on,240,0,3,,,,,,,,,2,,,63,0
50880,note_on,0,0,2,,,,,,,,,1,,,77,62
50880,note_on,0,0,1,,,,,,,,,0,,,82,75
50880,note_on,0,0,4,,,,,,,,,3,,,49,49
50880,note_on,0,0,3,,,,,,,,,2,,,60,0
50880,note_on,240,0,1,,,,,,,,,0,,,80,0
51000,note_on,120,0,2,,,,,,,,,1,,,77,0
51000,note_on,0,0,2,,,,,,,,,1,,,73,62
51120,note_on,0,0,3,,,,,,,,,2,,,65,49
51120,note_on,240,0,1,,,,,,,,,0,,,82,0
51120,note_on,0,0,1,,,,,,,,,0,,,80,75
51120,note_on,0,0,3,,,,,,,,,2,,,56,49
51120,note_on,120,0,2,,,,,,,,,1,,,73,0
51120,note_on,0,0,2,,,,,,,,,1,,,77,62
51120,note_on,0,0,3,,,,,,,,,2,,,61,49
51120,set_tempo,2160,1,0,,,,,,674157,,,,,,,
51120,note_on,240,0,3,,,,,,,,,2,,,49,0
51240,note_on,120,0,2,,,,,,,,,1,,,77,0
51240,note_on,0,0,2,,,,,,,,,1,,,73,62
51360,note_on,0,0,3,,,,,,,,,2,,,61,0
51360,note_on,0,0,1,,,,,,,,,0,,,80,75
51360,note_on,120,0,2,,,,,,,,,1,,,73,0
51360,note_on,240,0,3,,,,,,,,,2,,,65,0
51360,note_on,480,0,4,,,,,,,,,3,,,49,0
51360,note_on,240,0,1,,,,,,,,,0,,,80,0
51360,note_on,0,0,4,,,,,,,,,3,,,54,49
51360,note_on,0,0,2,,,,,,,,,1,,,75,62
51360,note_on,0,0,3,,,,,,,,,2,,,56,0
51360,set_tempo,240,1,0,,,,,,697674,,,,,,,
51360,note_on,0,0,3,,,,,,,,,2,,,54,49
51480,note_on,120,0,2,,,,,,,,,1,,,75,0
51480,note_on,0,0,2,,,,,,,,,1,,,69,62
51600,note_on,240,0,3,,,,,,,,,2,,,54,0
51600,note_on,0,0,3,,,,,,,,,2,,,57,49
51600,note_on,120,0,2,,,,,,,,,1,,,69,0
51600,set_tempo,240,1,0,,,,,,722892,,,,,,,
51600,note_on,0,0,1,,,,,,,,,0,,,78,75
51600,note_on,0,0,3,,,,,,,,,2,,,63,49
51600,note_on,0,0,3,,,,,,,,,2,,,66,49
51600,note_on,0,0,2,,,,,,,,,1,,,75,62
51600,note_on,240,0,1,,,,,,,,,0,,,80,0
51720,note_on,0,0,2,,,,,,,,,1,,,69,62
51720,note_on,120,0,2,,,,,,,,,1,,,75,0
51840,note_on,0,0,3,,,,,,,,,2,,,63,0
51840,note_on,480,0,4,,,,,,,,,3,,,54,0
51840,note_on,240,0,3,,,,,,,,,2,,,66,0
51840,note_on,240,0,1,,,,,,,,,0,,,78,0
51840,set_tempo,240,1,0,,,,,,759494,,,,,,,
51840,note_on,0,0,4,,,,,,,,,3,,,56,49
51840,note_on,0,0,3,,,,,,,,,2,,,57,0
51840,note_on,0,0,3,,,,,,,,,2,,,56,49
51840,note_on,0,0,1,,,,,,,,,0,,,78,75
51840,note_on,0,0,2,,,,,,,,,1,,,73,62
51840,note_on,120,0,2,,,,,,,,,1,,,69,0
51960,note_on,0,0,2,,,,,,,,,1,,,68,62
51960,note_on,120,0,2,,,,,,,,,1,,,73,0
52080,note_on,0,0,3,,,,,,,,,2,,,61,49
52080,note_on,0,0,3,,,,,,,,,2,,,65,49
52080,note_on,240,0,1,,,,,,,,,0,,,78,0
52080,note_on,0,0,2,,,,,,,,,1,,,73,62
52080,set_tempo,240,1,0,,,,,,789474,,,,,,,
52080,note_on,120,0,2,,,,,,,,,1,,,68,0
52080,note_on,0,0,1,,,,,,,,,0,,,77,75
52080,note_on,240,0,3,,,,,,,,,2,,,56,0
52200,note_on,120,0,2,,,,,,,,,1,,,73,0
52200,note_on,0,0,2,,,,,,,,,1,,,68,62
52320,note_on,0,0,2,,,,,,,,,1,,,73,62
52320,note_on,240,0,1,,,,,,,,,0,,,77,0
52320,note_on,0,0,3,,,,,,,,,2,,,55,49
52320,note_on,0,0,3,,,,,,,,,2,,,61,0
52320,note_on,0,0,4,,,,,,,,,3,,,55,49
52320,note_on,240,0,3,,,,,,,,,2,,,65,0
52320,note_on,0,0,1,,,,,,,,,0,,,77,75
52320,note_on,120,0,2,,,,,,,,,1,,,68,0
52320,note_on,480,0,4,,,,,,,,,3,,,56,0
52320,set_tempo,240,1,0,,,,,,821918,,,,,,,
52440,note_on,0,0,2,,,,,,,,,1,,,70,62
52440,note_on,120,0,2,,,,,,,,,1,,,73,0
52560,note_on,0,0,3,,,,,,,,,2,,,61,49
52560,note_on,240,0,3,,,,,,,,,2,,,55,0
52560,note_on,120,0,2,,,,,,,,,1,,,70,0
52560,note_on,0,0,2,,,,,,,,,1,,,73,62
52560,note_on,0,0,3,,,,,,,,,2,,,64,49
52560,note_on,0,0,1,,,,,,,,,0,,,76,75
52560,note_on,240,0,1,,,,,,,,,0,,,77,0
52560,set_tempo,240,1,0,,,,,,857143,,,,,,,
52680,note_on,120,0,2,,,,,,,,,1,,,73,0
52680,note_on,0,0,2,,,,,,,,,1,,,70,62
52800,note_on,0,0,1,,,,,,,,,0,,,72,75
52800,note_on,0,0,3,,,,,,,,,2,,,63,49
52800,note_on,0,0,1,,,,,,,,,0,,,75,75
52800,note_on,0,0,3,,,,,,,,,2,,,56,49
52800,note_on,0,0,3,,,,,,,,,2,,,61,0
52800,note_on,480,0,4,,,,,,,,,3,,,55,0
52800,note_on,120,0,2,,,,,,,,,1,,,70,0
52800,note_on,240,0,1,,,,,,,,,0,,,76,0
52800,set_tempo,240,1,0,,,,,,909091,,,,,,,
52800,note_on,240,0,3,,,,,,,,,2,,,64,0
52815,set_tempo,15,1,0,,,,,,652174,,,,,,,
52920,note_on,120,0,1,,,,,,,,,0,,,75,0
52920,note_on,0,0,3,,,,,,,,,2,,,56,0
52920,note_on,120,0,3,,,,,,,,,2,,,63,0
52920,note_on,0,0,1,,,,,,,,,0,,,72,0
52920,note_on,0,0,1,,,,,,,,,0,,,56,62
53040,note_on,120,0,1,,,,,,,,,0,,,56,0
53040,note_on,0,0,1,,,,,,,,,0,,,58,62
53160,note_on,0,0,1,,,,,,,,,0,,,60,62
53160,note_on,120,0,1,,,,,,,,,0,,,58,0
53280,note_on,0,0,1,,,,,,,,,0,,,61,62
53280,note_on,120,0,1,,,,,,,,,0,,,60,0
53400,note_on,0,0,1,,,,,,,,,0,,,63,62
53400,note_on,120,0,1,,,,,,,,,0,,,61,0
53520,note_on,0,0,1,,,,,,,,,0,,,65,62
53520,note_on,120,0,1,,,,,,,,,0,,,63,0
53640,note_on,0,0,1,,,,,,,,,0,,,67,62
53640,note_on,120,0,1,,,,,,,,,0,,,65,0
53760,note_on,840,0,3,,,,,,,,,2,,,52,49
53760,note_on,960,0,4,,,,,,,,,3,,,44,62
53760,note_on,960,0,2,,,,,,,,,1,,,61,49
53760,note_on,0,0,1,,,,,,,,,0,,,68,62
53760,note_on,120,0,1,,,,,,,,,0,,,67,0
53880,note_on,120,0,2,,,,,,,,,1,,,61,0
53880,note_on,0,0,3,,,,,,,,,2,,,51,49
53880,note_on,0,0,2,,,,,,,,,1,,,60,49
53880,note_on,120,0,3,,,,,,,,,2,,,52,0
54000,note_on,0,0,3,,,,,,,,,2,,,52,49
54000,note_on,120,0,2,,,,,,,,,1,,,60,0
54000,note_on,0,0,2,,,,,,,,,1,,,61,49
54000,note_on,120,0,3,,,,,,,,,2,,,51,0
54120,note_on,0,0,2,,,,,,,,,1,,,60,49
54120,note_on,120,0,2,,,,,,,,,1,,,61,0
54120,note_on,120,0,3,,,,,,,,,2,,,52,0
54120,note_on,0,0,3,,,,,,,,,2,,,51,49
54240,note_on,0,0,3,,,,,,,,,2,,,52,49
54240,note_on,120,0,2,,,,,,,,,1,,,60,0
54240,note_on,120,0,3,,,,,,,,,2,,,51,0
54240,note_on,0,0,2,,,,,,,,,1,,,61,49
54360,note_on,120,0,3,,,,,,,,,2,,,52,0
54360,note_on,0,0,3,,,,,,,,,2,,,56,49
54360,note_on,0,0,2,,,,,,,,,1,,,64,49
54360,note_on,120,0,2,,,,,,,,,1,,,61,0
54480,note_on,0,0,3,,,,,,,,,2,,,54,49
54480,note_on,0,0,2,,,,,,,,,1,,,63,49
54480,note_on,120,0,3,,,,,,,,,2,,,56,0
54480,note_on,120,0,2,,,,,,,,,1,,,64,0
54600,note_on,0,0,2,,,,,,,,,1,,,61,49
54600,note_on,120,0,2,,,,,,,,,1,,,63,0
54600,note_on,120,0,3,,,,,,,,,2,,,54,0
54600,note_on,0,0,3,,,,,,,,,2,,,52,49
54720,note_on,120,0,2,,,,,,,,,1,,,61,0
54720,note_on,0,0,2,,,,,,,,,1,,,60,49
54720,note_on,120,0,3,,,,,,,,,2,,,52,0
54720,note_on,0,0,3,,,,,,,,,2,,,51,49
54840,note_on,120,0,2,,,,,,,,,1,,,60,0
54840,note_on,1080,0,4,,,,,,,,,3,,,44,0
54840,note_on,120,0,3,,,,,,,,,2,,,51,0
54840,note_on,0,0,1,,,,,,,,,0,,,68,62
54840,note_on,1080,0,1,,,,,,,,,0,,,68,0
54960,note_on,120,0,1,,,,,,,,,0,,,68,0
54960,note_on,0,0,1,,,,,,,,,0,,,70,62
55080,note_on,120,0,1,,,,,,,,,0,,,70,0
55080,note_on,0,0,1,,,,,,,,,0,,,72,62
55200,note_on,120,0,1,,,,,,,,,0,,,72,0
55200,note_on,0,0,1,,,,,,,,,0,,,73,62
55320,note_on,0,0,1,,,,,,,,,0,,,75,62
55320,note_on,120,0,1,,,,,,,,,0,,,73,0
55440,note_on,0,0,1,,,,,,,,,0,,,77,62
55440,note_on,120,0,1,,,,,,,,,0,,,75,0
55560,note_on,120,0,1,,,,,,,,,0,,,77,0
55560,note_on,0,0,1,,,,,,,,,0,,,79,62
55680,note_on,0,0,1,,,,,,,,,0,,,80,62
55680,note_on,840,0,3,,,,,,,,,2,,,64,49
55680,note_on,840,0,4,,,,,,,,,3,,,56,62
55680,note_on,120,0,1,,,,,,,,,0,,,79,0
55680,note_on,840,0,2,,,,,,,,,1,,,73,49
55800,note_on,120,0,2,,,,,,,,,1,,,73,0
55800,note_on,0,0,2,,,,,,,,,1,,,72,49
55800,note_on,0,0,3,,,,,,,,,2,,,63,49
55800,note_on,120,0,3,,,,,,,,,2,,,64,0
55920,note_on,0,0,3,,,,,,,,,2,,,64,62
55920,note_on,120,0,3,,,,,,,,,2,,,63,0
55920,note_on,120,0,2,,,,,,,,,1,,,72,0
55920,note_on,0,0,2,,,,,,,,,1,,,73,62
56040,note_on,120,0,3,,,,,,,,,2,,,64,0
56040,note_on,0,0,3,,,,,,,,,2,,,63,62
56040,note_on,120,0,2,,,,,,,,,1,,,73,0
56040,note_on,0,0,2,,,,,,,,,1,,,72,62
56160,note_on,0,0,2,,,,,,,,,1,,,73,62
56160,note_on,120,0,2,,,,,,,,,1,,,72,0
56160,note_on,120,0,3,,,,,,,,,2,,,63,0
56160,note_on,0,0,3,,,,,,,,,2,,,64,62
56280,note_on,0,0,2,,,,,,,,,1,,,76,62
56280,note_on,120,0,3,,,,,,,,,2,,,64,0
56280,note_on,0,0,3,,,,,,,,,2,,,68,62
56280,note_on,120,0,2,,,,,,,,,1,,,73,0
56400,note_on,120,0,3,,,,,,,,,2,,,68,0
56400,note_on,0,0,3,,,,,,,,,2,,,66,49
56400,note_on,0,0,2,,,,,,,,,1,,,75,49
56400,note_on,120,0,2,,,,,,,,,1,,,76,0
56520,note_on,0,0,2,,,,,,,,,1,,,73,49
56520,note_on,0,0,3,,,,,,,,,2,,,64,49
56520,note_on,120,0,2,,,,,,,,,1,,,75,0
56520,note_on,120,0,3,,,,,,,,,2,,,66,0
56640,note_on,960,0,1,,,,,,,,,0,,,80,0
56640,note_on,0,0,1,,,,,,,,,0,,,72,75
56640,note_on,0,0,3,,,,,,,,,2,,,63,62
56640,control_change,0,0,1,,,,,,,,,0,64,127,,
56640,note_on,120,0,2,,,,,,,,,1,,,73,0
56640,note_on,120,0,3,,,,,,,,,2,,,64,0
56760,note_on,120,0,1,,,,,,,,,0,,,72,0
56760,note_on,0,0,1,,,,,,,,,0,,,80,75
56760,note_on,1080,0,4,,,,,,,,,3,,,56,0
56880,note_on,0,0,3,,,,,,,,,2,,,64,62
56880,note_on,240,0,3,,,,,,,,,2,,,63,0
56880,note_on,120,0,1,,,,,,,,,0,,,80,0
56880,note_on,0,0,1,,,,,,,,,0,,,73,75
57000,note_on,120,0,1,,,,,,,,,0,,,73,0
57000,note_on,0,0,1,,,,,,,,,0,,,79,101
57120,note_on,0,0,3,,,,,,,,,2,,,63,62
57120,note_on,240,0,3,,,,,,,,,2,,,64,0
57120,note_on,0,0,1,,,,,,,,,0,,,72,75
57120,note_on,120,0,1,,,,,,,,,0,,,79,0
57240,note_on,120,0,1,,,,,,,,,0,,,72,0
57240,note_on,0,0,1,,,,,,,,,0,,,80,75
57360,note_on,120,0,1,,,,,,,,,0,,,80,0
57360,note_on,0,0,3,,,,,,,,,2,,,64,62
57360,note_on,0,0,1,,,,,,,,,0,,,73,75
57360,note_on,240,0,3,,,,,,,,,2,,,63,0
57480,note_on,0,0,1,,,,,,,,,0,,,79,101
57480,note_on,120,0,1,,,,,,,,,0,,,73,0
57480,control_change,0,0,1,,,,,,,,,0,64,0,,
57600,note_on,0,0,1,,,,,,,,,0,,,72,75
57600,note_on,0,0,3,,,,,,,,,2,,,63,62
57600,note_on,840,0,4,,,,,,,,,3,,,56,62
57600,control_change,0,0,1,,,,,,,,,0,64,127,,
57600,note_on,120,0,1,,,,,,,,,0,,,79,0
57600,note_on,240,0,3,,,,,,,,,2,,,64,0
57720,note_on,120,0,1,,,,,,,,,0,,,72,0
57720,note_on,0,0,1,,,,,,,,,0,,,80,75
57840,note_on,240,0,4,,,,,,,,,3,,,56,0
57840,note_on,0,0,1,,,,,,,,,0,,,73,101
57840,control_change,0,0,3,,,,,,,,,2,64,127,,
57840,note_on,240,0,3,,,,,,,,,2,,,63,0
57840,set_tempo,5025,1,0,,,,,,674157,,,,,,,
57840,note_on,0,0,4,,,,,,,,,3,,,56,62
57840,note_on,0,0,3,,,,,,,,,2,,,70,62
57840,note_on,120,0,1,,,,,,,,,0,,,80,0
57960,note_on,0,0,1,,,,,,,,,0,,,78,75
57960,note_on,120,0,1,,,,,,,,,0,,,73,0
58080,note_on,240,0,3,,,,,,,,,2,,,70,0
58080,note_on,120,0,1,,,,,,,,,0,,,78,0
58080,note_on,0,0,1,,,,,,,,,0,,,72,75
58080,note_on,0,0,3,,,,,,,,,2,,,68,62
58080,set_tempo,240,1,0,,,,,,697674,,,,,,,
58200,note_on,0,0,1,,,,,,,,,0,,,77,75
58200,note_on,120,0,1,,,,,,,,,0,,,72,0
58320,note_on,240,0,3,,,,,,,,,2,,,68,0
58320,note_on,120,0,1,,,,,,,,,0,,,77,0
58320,note_on,0,0,1,,,,,,,,,0,,,70,75
58320,set_tempo,240,1,0,,,,,,722892,,,,,,,
58320,note_on,0,0,3,,,,,,,,,2,,,66,62
58440,note_on,120,0,1,,,,,,,,,0,,,70,0
58440,note_on,0,0,1,,,,,,,,,0,,,75,75
58560,note_on,240,0,3,,,,,,,,,2,,,66,0
58560,note_on,120,0,1,,,,,,,,,0,,,75,0
58560,set_tempo,240,1,0,,,,,,759494,,,,,,,
58560,note_on,0,0,1,,,,,,,,,0,,,68,75
58560,note_on,0,0,3,,,,,,,,,2,,,65,62
58680,note_on,0,0,1,,,,,,,,,0,,,73,75
58680,note_on,120,0,1,,,,,,,,,0,,,68,0
58800,note_on,120,0,1,,,,,,,,,0,,,73,0
58800,note_on,0,0,3,,,,,,,,,2,,,63,62
58800,note_on,0,0,1,,,,,,,,,0,,,66,75
58800,set_tempo,240,1,0,,,,,,789474,,,,,,,
58800,note_on,240,0,3,,,,,,,,,2,,,65,0
58920,note_on,0,0,1,,,,,,,,,0,,,72,75
58920,note_on,120,0,1,,,,,,,,,0,,,66,0
59040,note_on,240,0,3,,,,,,,,,2,,,63,0
59040,note_on,120,0,1,,,,,,,,,0,,,72,0
59040,note_on,0,0,3,,,,,,,,,2,,,61,62
59040,set_tempo,240,1,0,,,,,,821918,,,,,,,
59040,note_on,0,0,1,,,,,,,,,0,,,65,75
59160,note_on,0,0,1,,,,,,,,,0,,,70,75
59160,note_on,120,0,1,,,,,,,,,0,,,65,0
59280,note_on,0,0,3,,,,,,,,,2,,,60,62
59280,note_on,120,0,1,,,,,,,,,0,,,70,0
59280,control_change,0,0,3,,,,,,,,,2,64,0,,
59280,note_on,240,0,3,,,,,,,,,2,,,61,0
59280,note_on,0,0,1,,,,,,,,,0,,,63,75
59280,set_tempo,240,1,0,,,,,,857143,,,,,,,
59400,note_on,0,0,1,,,,,,,,,0,,,68,75
59400,note_on,120,0,1,,,,,,,,,0,,,63,0
59400,control_change,0,0,1,,,,,,,,,0,64,0,,
59400,note_on,0,0,1,,,,,,,,,0,,,66,75
59520,note_on,1680,0,4,,,,,,,,,3,,,56,0
59520,set_tempo,240,1,0,,,,,,909091,,,,,,,
59520,note_on,0,0,3,,,,,,,,,2,,,61,49
59520,note_on,0,0,1,,,,,,,,,0,,,77,75
59520,note_on,240,0,3,,,,,,,,,2,,,60,0
59520,note_on,2880,0,2,,,,,,,,,1,,,65,49
59520,note_on,120,0,1,,,,,,,,,0,,,68,0
59520,note_on,0,0,1,,,,,,,,,0,,,66,0
59544,set_tempo,24,1,0,,,,,,652174,,,,,,,
59640,note_on,0,0,3,,,,,,,,,2,,,49,49
59640,note_on,0,0,2,,,,,,,,,1,,,73,49
59640,note_on,120,0,3,,,,,,,,,2,,,61,0
59640,note_on,120,0,2,,,,,,,,,1,,,65,0
59760,note_on,120,0,3,,,,,,,,,2,,,49,0
59760,note_on,0,0,2,,,,,,,,,1,,,66,49
59760,note_on,120,0,2,,,,,,,,,1,,,73,0
59760,note_on,0,0,1,,,,,,,,,0,,,78,75
59760,note_on,240,0,1,,,,,,,,,0,,,77,0
59760,note_on,0,0,3,,,,,,,,,2,,,63,49
59880,note_on,0,0,3,,,,,,,,,2,,,49,49
59880,note_on,0,0,2,,,,,,,,,1,,,73,49
59880,note_on,120,0,3,,,,,,,,,2,,,63,0
59880,note_on,120,0,2,,,,,,,,,1,,,66,0
60000,note_on,0,0,2,,,,,,,,,1,,,67,49
60000,note_on,120,0,3,,,,,,,,,2,,,49,0
60000,note_on,240,0,1,,,,,,,,,0,,,78,0
60000,note_on,0,0,1,,,,,,,,,0,,,79,75
60000,note_on,120,0,2,,,,,,,,,1,,,73,0
60000,note_on,0,0,3,,,,,,,,,2,,,64,49
60120,note_on,0,0,3,,,,,,,,,2,,,49,49
60120,note_on,120,0,3,,,,,,,,,2,,,64,0
60120,note_on,120,0,2,,,,,,,,,1,,,67,0
60120,note_on,0,0,2,,,,,,,,,1,,,73,49
60240,note_on,120,0,3,,,,,,,,,2,,,49,0
60240,note_on,240,0,1,,,,,,,,,0,,,79,0
60240,note_on,120,0,2,,,,,,,,,1,,,73,0
60240,note_on,0,0,2,,,,,,,,,1,,,68,49
60240,note_on,0,0,1,,,,,,,,,0,,,80,75
60240,note_on,0,0,3,,,,,,,,,2,,,65,75
60360,note_on,120,0,3,,,,,,,,,2,,,65,0
60360,note_on,120,0,2,,,,,,,,,1,,,68,0
60360,note_on,0,0,2,,,,,,,,,1,,,73,49
60360,note_on,0,0,3,,,,,,,,,2,,,49,49
60480,note_on,0,0,3,,,,,,,,,2,,,61,49
60480,note_on,0,0,1,,,,,,,,,0,,,77,75
60480,note_on,120,0,3,,,,,,,,,2,,,49,0
60480,note_on,240,0,1,,,,,,,,,0,,,80,0
60480,note_on,120,0,2,,,,,,,,,1,,,73,0
60480,note_on,0,0,2,,,,,,,,,1,,,65,49
60600,note_on,0,0,3,,,,,,,,,2,,,49,49
60600,note_on,0,0,2,,,,,,,,,1,,,68,49
60600,note_on,120,0,3,,,,,,,,,2,,,61,0
60600,note_on,120,0,2,,,,,,,,,1,,,65,0
60720,note_on,120,0,2,,,,,,,,,1,,,68,0
60720,note_on,0,0,3,,,,,,,,,2,,,60,49
60720,note_on,0,0,2,,,,,,,,,1,,,64,49
60720,note_on,120,0,3,,,,,,,,,2,,,49,0
60840,note_on,120,0,3,,,,,,,,,2,,,60,0
60840,note_on,120,0,2,,,,,,,,,1,,,64,0
60840,note_on,0,0,3,,,,,,,,,2,,,49,49
60840,note_on,0,0,2,,,,,,,,,1,,,68,49
60960,note_on,0,0,3,,,,,,,,,2,,,61,49
60960,note_on,120,0,2,,,,,,,,,1,,,68,0
60960,note_on,120,0,3,,,,,,,,,2,,,49,0
60960,note_on,0,0,2,,,,,,,,,1,,,65,49
61080,note_on,120,0,2,,,,,,,,,1,,,65,0
61080,note_on,120,0,3,,,,,,,,,2,,,61,0
61080,note_on,0,0,2,,,,,,,,,1,,,68,49
61080,note_on,0,0,3,,,,,,,,,2,,,49,49
61200,note_on,0,0,1,,,,,,,,,0,,,73,75
61200,note_on,0,0,2,,,,,,,,,1,,,65,49
61200,note_on,120,0,3,,,,,,,,,2,,,49,0
61200,note_on,720,0,1,,,,,,,,,0,,,77,0
61200,note_on,120,0,2,,,,,,,,,1,,,68,0
61200,note_on,0,0,3,,,,,,,,,2,,,56,49
61320,note_on,0,0,3,,,,,,,,,2,,,49,49
61320,note_on,0,0,2,,,,,,,,,1,,,68,49
61320,note_on,120,0,2,,,,,,,,,1,,,65,0
61320,note_on,120,0,3,,,,,,,,,2,,,56,0
61440,note_on,0,0,2,,,,,,,,,1,,,66,49
61440,note_on,120,0,3,,,,,,,,,2,,,49,0
61440,note_on,0,0,1,,,,,,,,,0,,,75,75
61440,note_on,120,0,2,,,,,,,,,1,,,68,0
61440,note_on,240,0,1,,,,,,,,,0,,,73,0
61440,note_on,0,0,3,,,,,,,,,2,,,60,49
61560,note_on,120,0,2,,,,,,,,,1,,,66,0
61560,note_on,120,0,3,,,,,,,,,2,,,60,0
61560,note_on,0,0,3,,,,,,,,,2,,,49,49
61560,note_on,0,0,2,,,,,,,,,1,,,68,49
61680,note_on,120,0,2,,,,,,,,,1,,,68,0
61680,note_on,0,0,1,,,,,,,,,0,,,74,75
61680,note_on,0,0,2,,,,,,,,,1,,,66,49
61680,note_on,0,0,3,,,,,,,,,2,,,56,49
61680,note_on,120,0,3,,,,,,,,,2,,,49,0
61680,note_on,240,0,1,,,,,,,,,0,,,75,0
61800,note_on,120,0,3,,,,,,,,,2,,,56,0
61800,note_on,0,0,2,,,,,,,,,1,,,68,49
61800,note_on,120,0,2,,,,,,,,,1,,,66,0
61800,note_on,0,0,3,,,,,,,,,2,,,49,49
61920,note_on,0,0,3,,,,,,,,,2,,,60,49
61920,note_on,120,0,3,,,,,,,,,2,,,49,0
61920,note_on,0,0,1,,,,,,,,,0,,,75,75
61920,note_on,0,0,2,,,,,,,,,1,,,66,49
61920,note_on,240,0,1,,,,,,,,,0,,,74,0
61920,note_on,120,0,2,,,,,,,,,1,,,68,0
62040,note_on,0,0,3,,,,,,,,,2,,,49,49
62040,note_on,0,0,2,,,,,,,,,1,,,68,49
62040,note_on,120,0,2,,,,,,,,,1,,,66,0
62040,note_on,120,0,3,,,,,,,,,2,,,60,0
62160,note_on,0,0,1,,,,,,,,,0,,,76,75
62160,note_on,120,0,2,,,,,,,,,1,,,68,0
62160,note_on,0,0,3,,,,,,,,,2,,,56,49
62160,note_on,0,0,2,,,,,,,,,1,,,66,49
62160,note_on,240,0,1,,,,,,,,,0,,,75,0
62160,note_on,120,0,3,,,,,,,,,2,,,49,0
62280,note_on,120,0,3,,,,,,,,,2,,,56,0
62280,note_on,120,0,2,,,,,,,,,1,,,66,0
62280,note_on,0,0,3,,,,,,,,,2,,,49,49
62280,note_on,0,0,2,,,,,,,,,1,,,68,49
62400,note_on,120,0,2,,,,,,,,,1,,,68,0
62400,note_on,120,0,3,,,,,,,,,2,,,49,0
62400,note_on,240,0,1,,,,,,,,,0,,,76,0
62400,note_on,0,0,1,,,,,,,,,0,,,72,75
62400,note_on,0,0,2,,,,,,,,,1,,,66,49
62400,note_on,0,0,1,,,,,,,,,0,,,76,75
62400,note_on,0,0,3,,,,,,,,,2,,,60,49
62520,note_on,0,0,2,,,,,,,,,1,,,68,49
62520,note_on,120,0,3,,,,,,,,,2,,,60,0
62520,note_on,120,0,2,,,,,,,,,1,,,66,0
62520,note_on,0,0,3,,,,,,,,,2,,,49,49
62640,note_on,120,0,3,,,,,,,,,2,,,49,0
62640,note_on,120,0,2,,,,,,,,,1,,,68,0
62640,note_on,0,0,2,,,,,,,,,1,,,66,49
62640,note_on,0,0,3,,,,,,,,,2,,,56,49
62760,note_on,120,0,3,,,,,,,,,2,,,56,0
62760,note_on,0,0,3,,,,,,,,,2,,,49,49
62760,note_on,0,0,2,,,,,,,,,1,,,68,49
62760,note_on,120,0,2,,,,,,,,,1,,,66,0
62880,note_on,0,0,1,,,,,,,,,0,,,72,0
62880,note_on,480,0,1,,,,,,,,,0,,,76,0
62880,note_on,0,0,2,,,,,,,,,1,,,65,49
62880,note_on,120,0,3,,,,,,,,,2,,,49,0
62880,note_on,0,0,3,,,,,,,,,2,,,61,49
62880,note_on,0,0,1,,,,,,,,,0,,,73,75
62880,note_on,120,0,2,,,,,,,,,1,,,68,0
62880,note_on,0,0,1,,,,,,,,,0,,,77,75
63000,note_on,120,0,2,,,,,,,,,1,,,65,0
63000,note_on,0,0,3,,,,,,,,,2,,,49,49
63000,note_on,0,0,2,,,,,,,,,1,,,68,49
63000,note_on,120,0,3,,,,,,,,,2,,,61,0
63120,note_on,120,0,2,,,,,,,,,1,,,68,0
63120,note_on,120,0,3,,,,,,,,,2,,,49,0
63120,note_on,0,0,1,,,,,,,,,0,,,73,0
63120,note_on,0,0,2,,,,,,,,,1,,,70,49
63120,note_on,240,0,1,,,,,,,,,0,,,77,0
63120,note_on,0,0,3,,,,,,,,,2,,,56,49
63180,note_on,0,0,2,,,,,,,,,1,,,68,49
63180,note_on,60,0,2,,,,,,,,,1,,,70,0
63240,note_on,0,0,3,,,,,,,,,2,,,49,49
63240,note_on,60,0,2,,,,,,,,,1,,,68,0
63240,note_on,120,0,3,,,,,,,,,2,,,56,0
63240,note_on,0,0,2,,,,,,,,,1,,,67,49
63300,note_on,0,0,2,,,,,,,,,1,,,68,49
63300,note_on,60,0,2,,,,,,,,,1,,,67,0
63360,note_on,240,0,1,,,,,,,,,0,,,77,75
63360,note_on,120,0,3,,,,,,,,,2,,,49,0
63360,note_on,0,0,3,,,,,,,,,2,,,61,49
63360,note_on,0,0,2,,,,,,,,,1,,,65,49
63360,note_on,60,0,2,,,,,,,,,1,,,68,0
63480,note_on,120,0,2,,,,,,,,,1,,,65,0
63480,note_on,120,0,3,,,,,,,,,2,,,61,0
63480,note_on,0,0,2,,,,,,,,,1,,,73,49
63480,note_on,0,0,3,,,,,,,,,2,,,49,49
63600,note_on,0,0,3,,,,,,,,,2,,,63,49
63600,note_on,120,0,3,,,,,,,,,2,,,49,0
63600,note_on,0,0,1,,,,,,,,,0,,,78,75
63600,note_on,240,0,1,,,,,,,,,0,,,77,0
63600,note_on,0,0,2,,,,,,,,,1,,,66,49
63600,note_on,120,0,2,,,,,,,,,1,,,73,0
63720,note_on,0,0,2,,,,,,,,,1,,,73,49
63720,note_on,120,0,2,,,,,,,,,1,,,66,0
63720,note_on,120,0,3,,,,,,,,,2,,,63,0
63720,note_on,0,0,3,,,,,,,,,2,,,49,49
63840,note_on,120,0,3,,,,,,,,,2,,,49,0
63840,note_on,0,0,1,,,,,,,,,0,,,79,75
63840,note_on,0,0,3,,,,,,,,,2,,,64,49
63840,note_on,240,0,1,,,,,,,,,0,,,78,0
63840,note_on,120,0,2,,,,,,,,,1,,,73,0
63840,note_on,0,0,2,,,,,,,,,1,,,67,49
63960,note_on,0,0,3,,,,,,,,,2,,,49,49
63960,note_on,120,0,3,,,,,,,,,2,,,64,0
63960,note_on,120,0,2,,,,,,,,,1,,,67,0
63960,note_on,0,0,2,,,,,,,,,1,,,73,49
64080,note_on,240,0,1,,,,,,,,,0,,,79,0
64080,note_on,0,0,2,,,,,,,,,1,,,68,49
64080,note_on,120,0,3,,,,,,,,,2,,,49,0
64080,note_on,120,0,2,,,,,,,,,1,,,73,0
64080,note_on,0,0,1,,,,,,,,,0,,,80,75
64080,note_on,0,0,3,,,,,,,,,2,,,65,75
64200,note_on,0,0,3,,,,,,,,,2,,,49,49
64200,note_on,120,0,2,,,,,,,,,1,,,68,0
64200,note_on,0,0,2,,,,,,,,,1,,,73,49
64200,note_on,120,0,3,,,,,,,,,2,,,65,0
64320,note_on,0,0,3,,,,,,,,,2,,,61,49
64320,note_on,120,0,3,,,,,,,,,2,,,49,0
64320,note_on,0,0,1,,,,,,,,,0,,,77,75
64320,note_on,0,0,2,,,,,,,,,1,,,65,49
64320,note_on,120,0,2,,,,,,,,,1,,,73,0
64320,note_on,240,0,1,,,,,,,,,0,,,80,0
64440,note_on,120,0,3,,,,,,,,,2,,,61,0
64440,note_on,0,0,2,,,,,,,,,1,,,68,49
64440,note_on,0,0,3,,,,,,,,,2,,,49,49
64440,note_on,120,0,2,,,,,,,,,1,,,65,0
64560,note_on,120,0,3,,,,,,,,,2,,,49,0
64560,note_on,0,0,3,,,,,,,,,2,,,60,49
64560,note_on,0,0,2,,,,,,,,,1,,,64,49
64560,note_on,120,0,2,,,,,,,,,1,,,68,0
64680,note_on,0,0,2,,,,,,,,,1,,,68,49
64680,note_on,120,0,2,,,,,,,,,1,,,64,0
64680,note_on,120,0,3,,,,,,,,,2,,,60,0
64680,note_on,0,0,3,,,,,,,,,2,,,49,49
64800,note_on,120,0,3,,,,,,,,,2,,,49,0
64800,note_on,0,0,2,,,,,,,,,1,,,65,49
64800,note_on,120,0,2,,,,,,,,,1,,,68,0
64800,note_on,0,0,3,,,,,,,,,2,,,61,49
64920,note_on,0,0,2,,,,,,,,,1,,,68,49
64920,note_on,120,0,2,,,,,,,,,1,,,65,0
64920,note_on,0,0,3,,,,,,,,,2,,,49,49
64920,note_on,120,0,3,,,,,,,,,2,,,61,0
65040,note_on,0,0,2,,,,,,,,,1,,,65,49
65040,note_on,0,0,3,,,,,,,,,2,,,56,49
65040,note_on,120,0,3,,,,,,,,,2,,,49,0
65040,note_on,120,0,2,,,,,,,,,1,,,68,0
65040,note_on,720,0,1,,,,,,,,,0,,,77,0
65040,note_on,0,0,1,,,,,,,,,0,,,73,75
65160,note_on,120,0,3,,,,,,,,,2,,,56,0
65160,note_on,120,0,2,,,,,,,,,1,,,65,0
65160,note_on,0,0,1,,,,,,,,,0,,,74,75
65160,note_on,0,0,3,,,,,,,,,2,,,49,49
65160,note_on,0,0,2,,,,,,,,,1,,,68,49
65160,note_on,120,0,1,,,,,,,,,0,,,73,0
65280,note_on,120,0,1,,,,,,,,,0,,,74,0
65280,note_on,120,0,2,,,,,,,,,1,,,68,0
65280,note_on,0,0,1,,,,,,,,,0,,,75,75
65280,note_on,120,0,3,,,,,,,,,2,,,49,0
65280,note_on,0,0,2,,,,,,,,,1,,,66,49
65280,note_on,0,0,3,,,,,,,,,2,,,60,49
65400,note_on,0,0,2,,,,,,,,,1,,,68,49
65400,note_on,120,0,3,,,,,,,,,2,,,60,0
65400,note_on,120,0,2,,,,,,,,,1,,,66,0
65400,note_on,0,0,3,,,,,,,,,2,,,49,49
65520,note_on,0,0,2,,,,,,,,,1,,,66,49
65520,note_on,120,0,3,,,,,,,,,2,,,49,0
65520,note_on,240,0,1,,,,,,,,,0,,,75,0
65520,note_on,120,0,2,,,,,,,,,1,,,68,0
65520,note_on,0,0,3,,,,,,,,,2,,,56,49
65520,note_on,0,0,1,,,,,,,,,0,,,74,75
65640,note_on,120,0,2,,,,,,,,,1,,,66,0
65640,note_on,120,0,3,,,,,,,,,2,,,56,0
65640,note_on,0,0,2,,,,,,,,,1,,,68,49
65640,note_on,0,0,3,,,,,,,,,2,,,49,49
65760,note_on,0,0,3,,,,,,,,,2,,,60,49
65760,note_on,120,0,2,,,,,,,,,1,,,68,0
65760,note_on,0,0,1,,,,,,,,,0,,,75,75
65760,note_on,240,0,1,,,,,,,,,0,,,74,0
65760,note_on,0,0,2,,,,,,,,,1,,,66,49
65760,note_on,120,0,3,,,,,,,,,2,,,49,0
65880,note_on,0,0,2,,,,,,,,,1,,,68,49
65880,note_on,0,0,3,,,,,,,,,2,,,49,49
65880,note_on,120,0,2,,,,,,,,,1,,,66,0
65880,note_on,120,0,3,,,,,,,,,2,,,60,0
66000,note_on,0,0,1,,,,,,,,,0,,,72,75
66000,note_on,0,0,3,,,,,,,,,2,,,56,49
66000,note_on,0,0,2,,,,,,,,,1,,,66,49
66000,note_on,120,0,3,,,,,,,,,2,,,49,0
66000,note_on,120,0,2,,,,,,,,,1,,,68,0
66000,note_on,240,0,1,,,,,,,,,0,,,75,0
66120,note_on,0,0,2,,,,,,,,,1,,,68,49
66120,note_on,120,0,2,,,,,,,,,1,,,66,0
66120,note_on,0,0,3,,,,,,,,,2,,,49,49
66120,note_on,120,0,3,,,,,,,,,2,,,56,0
66240,note_on,0,0,1,,,,,,,,,0,,,73,75
66240,note_on,0,0,3,,,,,,,,,2,,,61,49
66240,note_on,120,0,2,,,,,,,,,1,,,68,0
66240,note_on,120,0,3,,,,,,,,,2,,,49,0
66240,note_on,240,0,1,,,,,,,,,0,,,72,0
66240,note_on,0,0,2,,,,,,,,,1,,,65,49
66360,note_on,120,0,3,,,,,,,,,2,,,61,0
66360,note_on,0,0,3,,,,,,,,,2,,,49,49
66360,note_on,0,0,2,,,,,,,,,1,,,68,49
66360,note_on,120,0,2,,,,,,,,,1,,,65,0
66480,note_on,120,0,3,,,,,,,,,2,,,49,0
66480,note_on,0,0,3,,,,,,,,,2,,,56,49
66480,note_on,0,0,2,,,,,,,,,1,,,65,49
66480,note_on,120,0,2,,,,,,,,,1,,,68,0
66600,note_on,120,0,3,,,,,,,,,2,,,56,0
66600,note_on,120,0,2,,,,,,,,,1,,,65,0
66600,note_on,0,0,2,,,,,,,,,1,,,68,49
66600,note_on,0,0,3,,,,,,,,,2,,,49,49
66720,note_on,120,0,2,,,,,,,,,1,,,68,0
66720,note_on,120,0,3,,,,,,,,,2,,,49,0
66720,note_on,0,0,2,,,,,,,,,1,,,65,49
66720,note_on,0,0,3,,,,,,,,,2,,,61,49
66840,note_on,0,0,2,,,,,,,,,1,,,68,49
66840,note_on,120,0,2,,,,,,,,,1,,,65,0
66840,note_on,120,0,3,,,,,,,,,2,,,61,0
66840,note_on,0,0,3,,,,,,,,,2,,,49,49
66960,note_on,720,0,1,,,,,,,,,0,,,73,0
66960,note_on,0,0,3,,,,,,,,,2,,,56,49
66960,note_on,0,0,2,,,,,,,,,1,,,65,49
66960,note_on,120,0,3,,,,,,,,,2,,,49,0
66960,note_on,120,0,2,,,,,,,,,1,,,68,0
66960,note_on,0,0,1,,,,,,,,,0,,,73,75
67080,note_on,0,0,2,,,,,,,,,1,,,68,49
67080,note_on,120,0,1,,,,,,,,,0,,,73,0
67080,note_on,120,0,3,,,,,,,,,2,,,56,0
67080,note_on,0,0,1,,,,,,,,,0,,,74,75
67080,note_on,120,0,2,,,,,,,,,1,,,65,0
67080,note_on,0,0,3,,,,,,,,,2,,,49,49
67200,note_on,0,0,2,,,,,,,,,1,,,63,49
67200,note_on,0,0,2,,,,,,,,,1,,,66,49
67200,note_on,120,0,3,,,,,,,,,2,,,49,0
67200,note_on,0,0,3,,,,,,,,,2,,,44,49
67200,note_on,120,0,1,,,,,,,,,0,,,74,0
67200,note_on,0,0,1,,,,,,,,,0,,,75,75
67200,note_on,120,0,2,,,,,,,,,1,,,68,0
67223,note_on,23,0,3,,,,,,,,,2,,,44,0
67320,note_on,0,0,2,,,,,,,,,1,,,63,0
67320,note_on,0,0,2,,,,,,,,,1,,,68,49
67320,note_on,120,0,2,,,,,,,,,1,,,66,0
67320,note_on,97,0,3,,,,,,,,,2,,,56,49
67343,note_on,23,0,3,,,,,,,,,2,,,56,0
67440,note_on,97,0,3,,,,,,,,,2,,,60,49
67440,note_on,240,0,1,,,,,,,,,0,,,75,0
67440,note_on,120,0,2,,,,,,,,,1,,,68,0
67440,note_on,0,0,2,,,,,,,,,1,,,72,49
67440,note_on,0,0,1,,,,,,,,,0,,,75,75
67463,note_on,23,0,3,,,,,,,,,2,,,60,0
67560,note_on,0,0,2,,,,,,,,,1,,,68,49
67560,note_on,120,0,2,,,,,,,,,1,,,72,0
67560,note_on,97,0,3,,,,,,,,,2,,,56,49
67583,note_on,23,0,3,,,,,,,,,2,,,56,0
67680,note_on,0,0,2,,,,,,,,,1,,,66,49
67680,note_on,0,0,2,,,,,,,,,1,,,63,49
67680,note_on,240,0,1,,,,,,,,,0,,,75,0
67680,note_on,120,0,2,,,,,,,,,1,,,68,0
67680,note_on,97,0,3,,,,,,,,,2,,,44,49
67680,note_on,0,0,1,,,,,,,,,0,,,75,75
67703,note_on,23,0,3,,,,,,,,,2,,,44,0
67800,note_on,0,0,2,,,,,,,,,1,,,63,0
67800,note_on,0,0,2,,,,,,,,,1,,,68,49
67800,note_on,120,0,2,,,,,,,,,1,,,66,0
67800,note_on,97,0,3,,,,,,,,,2,,,56,49
67823,note_on,23,0,3,,,,,,,,,2,,,56,0
67920,note_on,0,0,1,,,,,,,,,0,,,76,75
67920,note_on,97,0,3,,,,,,,,,2,,,60,49
67920,note_on,240,0,1,,,,,,,,,0,,,75,0
67920,note_on,120,0,2,,,,,,,,,1,,,68,0
67920,note_on,0,0,2,,,,,,,,,1,,,72,49
67943,note_on,23,0,3,,,,,,,,,2,,,60,0
68040,note_on,120,0,2,,,,,,,,,1,,,72,0
68040,note_on,97,0,3,,,,,,,,,2,,,56,49
68040,note_on,0,0,2,,,,,,,,,1,,,68,49
68063,note_on,23,0,3,,,,,,,,,2,,,56,0
68160,note_on,0,0,2,,,,,,,,,1,,,64,49
68160,note_on,120,0,2,,,,,,,,,1,,,68,0
68160,note_on,240,0,1,,,,,,,,,0,,,76,0
68160,control_change,97,0,3,,,,,,,,,2,64,127,,
68160,note_on,0,0,3,,,,,,,,,2,,,49,49
68160,note_on,0,0,3,,,,,,,,,2,,,60,49
68160,note_on,0,0,1,,,,,,,,,0,,,76,75
68280,note_on,0,0,2,,,,,,,,,1,,,68,49
68280,note_on,120,0,3,,,,,,,,,2,,,60,0
68280,note_on,0,0,3,,,,,,,,,2,,,49,0
68280,note_on,0,0,3,,,,,,,,,2,,,56,49
68280,note_on,120,0,2,,,,,,,,,1,,,64,0
68400,note_on,0,0,3,,,,,,,,,2,,,61,49
68400,note_on,240,0,1,,,,,,,,,0,,,76,0
68400,note_on,0,0,1,,,,,,,,,0,,,77,75
68400,note_on,120,0,3,,,,,,,,,2,,,56,0
68400,note_on,120,0,2,,,,,,,,,1,,,68,0
68400,note_on,0,0,2,,,,,,,,,1,,,65,49
68520,note_on,120,0,3,,,,,,,,,2,,,61,0
68520,note_on,120,0,2,,,,,,,,,1,,,65,0
68520,note_on,0,0,3,,,,,,,,,2,,,56,49
68520,note_on,0,0,2,,,,,,,,,1,,,68,49
68640,note_on,120,0,2,,,,,,,,,1,,,68,0
68640,note_on,120,0,3,,,,,,,,,2,,,56,0
68640,note_on,0,0,3,,,,,,,,,2,,,63,49
68640,note_on,0,0,2,,,,,,,,,1,,,65,49
68760,note_on,120,0,2,,,,,,,,,1,,,65,0
68760,note_on,0,0,3,,,,,,,,,2,,,45,49
68760,note_on,120,0,3,,,,,,,,,2,,,63,0
68760,note_on,0,0,2,,,,,,,,,1,,,72,49
68880,note_on,0,0,3,,,,,,,,,2,,,60,75
68880,note_on,480,0,1,,,,,,,,,0,,,77,0
68880,note_on,120,0,2,,,,,,,,,1,,,72,0
68880,note_on,0,0,2,,,,,,,,,1,,,75,49
68880,note_on,0,0,1,,,,,,,,,0,,,78,75
68880,note_on,120,0,3,,,,,,,,,2,,,45,0
69000,note_on,120,0,3,,,,,,,,,2,,,60,0
69000,control_change,0,0,3,,,,,,,,,2,64,0,,
69000,note_on,120,0,2,,,,,,,,,1,,,75,0
69000,note_on,0,0,1,,,,,,,,,0,,,77,75
69000,note_on,0,0,3,,,,,,,,,2,,,45,49
69000,note_on,120,0,1,,,,,,,,,0,,,78,0
69000,note_on,0,0,2,,,,,,,,,1,,,72,49
69120,note_on,120,0,2,,,,,,,,,1,,,72,0
69120,note_on,0,0,3,,,,,,,,,2,,,58,49
69120,note_on,120,0,1,,,,,,,,,0,,,77,0
69120,note_on,120,0,3,,,,,,,,,2,,,45,0
69120,note_on,0,0,1,,,,,,,,,0,,,75,75
69120,note_on,0,0,2,,,,,,,,,1,,,65,49
69240,note_on,0,0,2,,,,,,,,,1,,,70,49
69240,note_on,0,0,3,,,,,,,,,2,,,46,49
69240,note_on,120,0,2,,,,,,,,,1,,,65,0
69240,note_on,120,0,3,,,,,,,,,2,,,58,0
69360,note_on,0,0,2,,,,,,,,,1,,,65,49
69360,note_on,0,0,3,,,,,,,,,2,,,53,49
69360,note_on,120,0,3,,,,,,,,,2,,,46,0
69360,note_on,0,0,1,,,,,,,,,0,,,73,75
69360,note_on,240,0,1,,,,,,,,,0,,,75,0
69360,note_on,120,0,2,,,,,,,,,1,,,70,0
69480,note_on,120,0,3,,,,,,,,,2,,,53,0
69480,note_on,120,0,2,,,,,,,,,1,,,65,0
69480,note_on,0,0,2,,,,,,,,,1,,,70,49
69480,note_on,0,0,3,,,,,,,,,2,,,46,49
69600,note_on,120,0,2,,,,,,,,,1,,,70,0
69600,note_on,0,0,2,,,,,,,,,1,,,64,49
69600,note_on,120,0,3,,,,,,,,,2,,,46,0
69600,note_on,0,0,1,,,,,,,,,0,,,72,75
69600,note_on,240,0,1,,,,,,,,,0,,,73,0
69600,note_on,0,0,3,,,,,,,,,2,,,54,49
69720,note_on,120,0,2,,,,,,,,,1,,,64,0
69720,note_on,0,0,2,,,,,,,,,1,,,60,49
69720,note_on,0,0,3,,,,,,,,,2,,,42,49
69720,note_on,120,0,3,,,,,,,,,2,,,54,0
69840,note_on,120,0,2,,,,,,,,,1,,,60,0
69840,note_on,0,0,1,,,,,,,,,0,,,70,75
69840,note_on,0,0,3,,,,,,,,,2,,,48,49
69840,note_on,120,0,3,,,,,,,,,2,,,42,0
69840,note_on,240,0,1,,,,,,,,,0,,,72,0
69840,note_on,0,0,2,,,,,,,,,1,,,64,49
69960,note_on,120,0,2,,,,,,,,,1,,,64,0
69960,note_on,0,0,2,,,,,,,,,1,,,60,49
69960,note_on,120,0,3,,,,,,,,,2,,,42,49
70080,note_on,0,0,1,,,,,,,,,0,,,69,75
70080,note_on,240,0,1,,,,,,,,,0,,,70,0
70080,note_on,120,0,3,,,,,,,,,2,,,42,0
70080,note_on,0,0,1,,,,,,,,,0,,,65,75
70080,note_on,0,0,3,,,,,,,,,2,,,41,49
70080,note_on,120,0,2,,,,,,,,,1,,,60,0
70080,note_on,0,0,3,,,,,,,,,2,,,53,49
70080,control_change,0,0,1,,,,,,,,,0,64,127,,
70200,note_on,0,0,1,,,,,,,,,0,,,65,0
70200,note_on,120,0,1,,,,,,,,,0,,,69,0
70200,note_on,0,0,1,,,,,,,,,0,,,65,49
70320,note_on,0,0,1,,,,,,,,,0,,,67,49
70320,note_on,0,0,3,,,,,,,,,2,,,48,0
70320,note_on,240,0,3,,,,,,,,,2,,,53,0
70320,note_on,0,0,3,,,,,,,,,2,,,41,0
70320,note_on,120,0,1,,,,,,,,,0,,,65,0
70440,note_on,0,0,1,,,,,,,,,0,,,69,49
70440,note_on,120,0,1,,,,,,,,,0,,,67,0
70560,note_on,0,0,1,,,,,,,,,0,,,70,49
70560,note_on,120,0,1,,,,,,,,,0,,,69,0
70680,note_on,120,0,1,,,,,,,,,0,,,70,0
70680,note_on,0,0,1,,,,,,,,,0,,,72,49
70800,note_on,0,0,1,,,,,,,,,0,,,74,49
70800,note_on,120,0,1,,,,,,,,,0,,,72,0
70920,note_on,0,0,1,,,,,,,,,0,,,76,49
70920,note_on,120,0,1,,,,,,,,,0,,,74,0
70920,control_change,0,0,1,,,,,,,,,0,64,0,,
71040,note_on,720,0,3,,,,,,,,,2,,,61,49
71040,note_on,0,0,1,,,,,,,,,0,,,77,62
71040,note_on,120,0,1,,,,,,,,,0,,,76,0
71040,note_on,960,0,2,,,,,,,,,1,,,70,49
71040,note_on,11520,0,4,,,,,,,,,3,,,53,49
71160,note_on,0,0,3,,,,,,,,,2,,,60,49
71160,note_on,120,0,2,,,,,,,,,1,,,70,0
71160,note_on,0,0,2,,,,,,,,,1,,,69,49
71160,note_on,120,0,3,,,,,,,,,2,,,61,0
71280,note_on,0,0,3,,,,,,,,,2,,,61,49
71280,note_on,120,0,3,,,,,,,,,2,,,60,0
71280,note_on,0,0,2,,,,,,,,,1,,,70,49
71280,note_on,120,0,2,,,,,,,,,1,,,69,0
71400,note_on,0,0,3,,,,,,,,,2,,,60,49
71400,note_on,0,0,2,,,,,,,,,1,,,69,49
71400,note_on,120,0,3,,,,,,,,,2,,,61,0
71400,note_on,120,0,2,,,,,,,,,1,,,70,0
71520,note_on,0,0,2,,,,,,,,,1,,,70,49
71520,note_on,120,0,3,,,,,,,,,2,,,60,0
71520,note_on,120,0,2,,,,,,,,,1,,,69,0
71520,note_on,0,0,3,,,,,,,,,2,,,61,49
71640,note_on,120,0,3,,,,,,,,,2,,,61,0
71640,note_on,120,0,2,,,,,,,,,1,,,70,0
71640,note_on,0,0,2,,,,,,,,,1,,,73,49
71640,note_on,0,0,3,,,,,,,,,2,,,65,49
71760,note_on,0,0,3,,,,,,,,,2,,,63,49
71760,note_on,120,0,3,,,,,,,,,2,,,65,0
71760,note_on,0,0,2,,,,,,,,,1,,,72,49
71760,note_on,120,0,2,,,,,,,,,1,,,73,0
71880,note_on,0,0,3,,,,,,,,,2,,,61,49
71880,note_on,0,0,2,,,,,,,,,1,,,70,49
71880,note_on,120,0,2,,,,,,,,,1,,,72,0
71880,note_on,120,0,3,,,,,,,,,2,,,63,0
72000,note_on,960,0,1,,,,,,,,,0,,,69,62
72000,note_on,0,0,3,,,,,,,,,2,,,60,49
72000,note_on,120,0,3,,,,,,,,,2,,,61,0
72000,note_on,120,0,2,,,,,,,,,1,,,70,0
72120,control_change,0,0,1,,,,,,,,,0,64,127,,
72120,note_on,120,0,1,,,,,,,,,0,,,69,0
72120,note_on,0,0,1,,,,,,,,,0,,,77,62
72120,note_on,0,0,1,,,,,,,,,0,,,77,0
72240,note_on,0,0,1,,,,,,,,,0,,,79,62
72240,note_on,120,0,1,,,,,,,,,0,,,77,0
72240,note_on,240,0,3,,,,,,,,,2,,,60,0
72240,note_on,1200,0,4,,,,,,,,,3,,,53,0
72360,note_on,0,0,1,,,,,,,,,0,,,81,62
72360,note_on,120,0,1,,,,,,,,,0,,,79,0
72480,note_on,0,0,1,,,,,,,,,0,,,82,62
72480,note_on,120,0,1,,,,,,,,,0,,,81,0
72600,note_on,120,0,1,,,,,,,,,0,,,82,0
72600,note_on,0,0,1,,,,,,,,,0,,,84,62
72720,note_on,0,0,1,,,,,,,,,0,,,86,62
72720,note_on,120,0,1,,,,,,,,,0,,,84,0
72840,note_on,0,0,1,,,,,,,,,0,,,88,62
72840,control_change,0,0,1,,,,,,,,,0,64,0,,
72840,note_on,120,0,1,,,,,,,,,0,,,86,0
72960,note_on,960,0,2,,,,,,,,,1,,,82,49
72960,note_on,120,0,1,,,,,,,,,0,,,88,0
72960,note_on,720,0,3,,,,,,,,,2,,,73,49
72960,note_on,0,0,1,,,,,,,,,0,,,89,62
72960,note_on,720,0,4,,,,,,,,,3,,,65,49
73080,note_on,0,0,3,,,,,,,,,2,,,72,49
73080,note_on,0,0,2,,,,,,,,,1,,,81,49
73080,note_on,120,0,3,,,,,,,,,2,,,73,0
73080,note_on,120,0,2,,,,,,,,,1,,,82,0
73200,note_on,0,0,3,,,,,,,,,2,,,73,49
73200,note_on,0,0,2,,,,,,,,,1,,,82,49
73200,note_on,120,0,2,,,,,,,,,1,,,81,0
73200,note_on,120,0,3,,,,,,,,,2,,,72,0
73320,note_on,0,0,2,,,,,,,,,1,,,81,49
73320,note_on,120,0,2,,,,,,,,,1,,,82,0
73320,note_on,120,0,3,,,,,,,,,2,,,73,0
73320,note_on,0,0,3,,,,,,,,,2,,,72,49
73440,note_on,120,0,2,,,,,,,,,1,,,81,0
73440,note_on,0,0,3,,,,,,,,,2,,,73,49
73440,note_on,0,0,2,,,,,,,,,1,,,82,49
73440,note_on,120,0,3,,,,,,,,,2,,,72,0
73560,note_on,0,0,3,,,,,,,,,2,,,77,49
73560,note_on,120,0,2,,,,,,,,,1,,,82,0
73560,note_on,0,0,2,,,,,,,,,1,,,85,49
73560,note_on,120,0,3,,,,,,,,,2,,,73,0
73680,note_on,120,0,2,,,,,,,,,1,,,85,0
73680,note_on,0,0,2,,,,,,,,,1,,,84,49
73680,note_on,120,0,3,,,,,,,,,2,,,77,0
73680,note_on,0,0,3,,,,,,,,,2,,,75,49
73800,note_on,0,0,3,,,,,,,,,2,,,73,49
73800,note_on,120,0,2,,,,,,,,,1,,,84,0
73800,note_on,0,0,2,,,,,,,,,1,,,82,49
73800,note_on,120,0,3,,,,,,,,,2,,,75,0
73920,note_on,120,0,3,,,,,,,,,2,,,73,0
73920,note_on,0,0,3,,,,,,,,,2,,,72,49
73920,note_on,960,0,1,,,,,,,,,0,,,81,62
73920,note_on,120,0,2,,,,,,,,,1,,,82,0
74040,note_on,120,0,1,,,,,,,,,0,,,81,0
74040,note_on,0,0,1,,,,,,,,,0,,,88,62
74040,note_on,0,0,1,,,,,,,,,0,,,83,62
74040,note_on,1080,0,4,,,,,,,,,3,,,65,0
74040,note_on,120,0,3,,,,,,,,,2,,,72,0
74040,note_on,0,0,1,,,,,,,,,0,,,89,0
74040,note_on,0,0,3,,,,,,,,,2,,,80,49
74160,note_on,0,0,1,,,,,,,,,0,,,87,62
74160,note_on,0,0,1,,,,,,,,,0,,,83,0
74160,note_on,0,0,3,,,,,,,,,2,,,79,49
74160,note_on,120,0,1,,,,,,,,,0,,,88,0
74160,note_on,120,0,3,,,,,,,,,2,,,80,0
74160,set_tempo,14616,1,0,,,,,,674157,,,,,,,
74160,note_on,0,0,1,,,,,,,,,0,,,82,62
74280,note_on,0,0,1,,,,,,,,,0,,,86,62
74280,note_on,0,0,1,,,,,,,,,0,,,82,0
74280,note_on,0,0,3,,,,,,,,,2,,,78,49
74280,note_on,0,0,1,,,,,,,,,0,,,81,62
74280,note_on,120,0,1,,,,,,,,,0,,,87,0
74280,note_on,120,0,3,,,,,,,,,2,,,79,0
74400,note_on,120,0,1,,,,,,,,,0,,,86,0
74400,note_on,0,0,3,,,,,,,,,2,,,77,62
74400,note_on,0,0,1,,,,,,,,,0,,,80,75
74400,note_on,0,0,1,,,,,,,,,0,,,81,0
74400,note_on,0,0,1,,,,,,,,,0,,,85,75
74400,set_tempo,240,1,0,,,,,,697674,,,,,,,
74400,note_on,120,0,3,,,,,,,,,2,,,78,0
74520,note_on,0,0,1,,,,,,,,,0,,,79,75
74520,note_on,0,0,1,,,,,,,,,0,,,80,0
74520,note_on,0,0,1,,,,,,,,,0,,,84,75
74520,note_on,120,0,1,,,,,,,,,0,,,85,0
74520,note_on,120,0,3,,,,,,,,,2,,,77,0
74520,note_on,0,0,3,,,,,,,,,2,,,76,62
74640,note_on,120,0,3,,,,,,,,,2,,,76,0
74640,note_on,120,0,1,,,,,,,,,0,,,84,0
74640,set_tempo,240,1,0,,,,,,722892,,,,,,,
74640,note_on,0,0,1,,,,,,,,,0,,,83,75
74640,note_on,0,0,1,,,,,,,,,0,,,79,0
74640,note_on,0,0,3,,,,,,,,,2,,,75,62
74640,note_on,0,0,1,,,,,,,,,0,,,78,75
74760,note_on,120,0,3,,,,,,,,,2,,,75,0
74760,note_on,0,0,3,,,,,,,,,2,,,74,62
74760,note_on,120,0,1,,,,,,,,,0,,,83,0
74760,note_on,0,0,1,,,,,,,,,0,,,78,0
74760,note_on,0,0,1,,,,,,,,,0,,,77,75
74760,note_on,0,0,1,,,,,,,,,0,,,82,75
74880,note_on,0,0,3,,,,,,,,,2,,,73,62
74880,note_on,0,0,1,,,,,,,,,0,,,77,0
74880,set_tempo,240,1,0,,,,,,759494,,,,,,,
74880,note_on,120,0,1,,,,,,,,,0,,,82,0
74880,note_on,0,0,1,,,,,,,,,0,,,76,75
74880,note_on,120,0,3,,,,,,,,,2,,,74,0
74880,note_on,0,0,1,,,,,,,,,0,,,81,75
75000,note_on,0,0,3,,,,,,,,,2,,,72,62
75000,note_on,0,0,1,,,,,,,,,0,,,76,0
75000,note_on,0,0,1,,,,,,,,,0,,,80,75
75000,note_on,120,0,3,,,,,,,,,2,,,73,0
75000,note_on,120,0,1,,,,,,,,,0,,,81,0
75000,note_on,0,0,1,,,,,,,,,0,,,75,75
75120,note_on,0,0,1,,,,,,,,,0,,,79,75
75120,note_on,0,0,3,,,,,,,,,2,,,71,62
75120,set_tempo,240,1,0,,,,,,789474,,,,,,,
75120,note_on,0,0,1,,,,,,,,,0,,,74,75
75120,note_on,120,0,3,,,,,,,,,2,,,72,0
75120,note_on,0,0,1,,,,,,,,,0,,,75,0
75120,note_on,120,0,1,,,,,,,,,0,,,80,0
75240,note_on,120,0,3,,,,,,,,,2,,,71,0
75240,note_on,0,0,1,,,,,,,,,0,,,73,75
75240,note_on,120,0,1,,,,,,,,,0,,,79,0
75240,note_on,0,0,1,,,,,,,,,0,,,74,0
75240,note_on,0,0,1,,,,,,,,,0,,,78,75
75240,note_on,0,0,3,,,,,,,,,2,,,70,62
75360,note_on,0,0,3,,,,,,,,,2,,,69,62
75360,note_on,120,0,3,,,,,,,,,2,,,70,0
75360,note_on,120,0,1,,,,,,,,,0,,,78,0
75360,note_on,0,0,1,,,,,,,,,0,,,72,75
75360,note_on,0,0,1,,,,,,,,,0,,,73,0
75360,note_on,0,0,1,,,,,,,,,0,,,77,75
75360,set_tempo,240,1,0,,,,,,821918,,,,,,,
75480,note_on,0,0,1,,,,,,,,,0,,,71,75
75480,note_on,120,0,1,,,,,,,,,0,,,77,0
75480,note_on,0,0,1,,,,,,,,,0,,,72,0
75480,note_on,0,0,3,,,,,,,,,2,,,68,62
75480,note_on,0,0,1,,,,,,,,,0,,,76,75
75480,note_on,120,0,3,,,,,,,,,2,,,69,0
75600,note_on,0,0,3,,,,,,,,,2,,,67,62
75600,note_on,0,0,1,,,,,,,,,0,,,70,75
75600,note_on,0,0,1,,,,,,,,,0,,,71,0
75600,set_tempo,240,1,0,,,,,,857143,,,,,,,
75600,note_on,0,0,1,,,,,,,,,0,,,75,75
75600,note_on,120,0,1,,,,,,,,,0,,,76,0
75600,note_on,120,0,3,,,,,,,,,2,,,68,0
75720,note_on,0,0,3,,,,,,,,,2,,,66,62
75720,note_on,0,0,1,,,,,,,,,0,,,70,0
75720,note_on,120,0,3,,,,,,,,,2,,,67,0
75720,note_on,0,0,1,,,,,,,,,0,,,69,75
75720,note_on,120,0,1,,,,,,,,,0,,,75,0
75720,note_on,0,0,1,,,,,,,,,0,,,74,75
75840,note_on,0,0,1,,,,,,,,,0,,,69,0
75840,note_on,0,0,1,,,,,,,,,0,,,77,88
75840,note_on,120,0,1,,,,,,,,,0,,,74,0
75840,set_tempo,240,1,0,,,,,,909091,,,,,,,
75840,note_on,1920,0,2,,,,,,,,,1,,,65,62
75840,note_on,0,0,3,,,,,,,,,2,,,61,62
75840,note_on,120,0,3,,,,,,,,,2,,,66,0
75882,set_tempo,42,1,0,,,,,,652174,,,,,,,
75960,note_on,120,0,3,,,,,,,,,2,,,61,0
75960,note_on,120,0,2,,,,,,,,,1,,,65,0
75960,note_on,0,0,2,,,,,,,,,1,,,73,62
75960,note_on,0,0,3,,,,,,,,,2,,,49,62
76080,note_on,0,0,2,,,,,,,,,1,,,66,62
76080,note_on,120,0,3,,,,,,,,,2,,,49,0
76080,note_on,240,0,1,,,,,,,,,0,,,77,0
76080,note_on,0,0,1,,,,,,,,,0,,,78,88
76080,note_on,0,0,3,,,,,,,,,2,,,63,62
76080,note_on,120,0,2,,,,,,,,,1,,,73,0
76200,note_on,120,0,3,,,,,,,,,2,,,63,0
76200,note_on,0,0,2,,,,,,,,,1,,,73,62
76200,note_on,0,0,3,,,,,,,,,2,,,49,62
76200,note_on,120,0,2,,,,,,,,,1,,,66,0
76320,note_on,120,0,3,,,,,,,,,2,,,49,0
76320,note_on,0,0,3,,,,,,,,,2,,,64,62
76320,note_on,120,0,2,,,,,,,,,1,,,73,0
76320,note_on,0,0,1,,,,,,,,,0,,,79,88
76320,note_on,240,0,1,,,,,,,,,0,,,78,0
76320,note_on,0,0,2,,,,,,,,,1,,,67,62
76440,note_on,120,0,3,,,,,,,,,2,,,64,0
76440,note_on,120,0,2,,,,,,,,,1,,,67,0
76440,note_on,0,0,3,,,,,,,,,2,,,49,62
76440,note_on,0,0,2,,,,,,,,,1,,,73,62
76560,note_on,0,0,1,,,,,,,,,0,,,80,88
76560,note_on,240,0,1,,,,,,,,,0,,,79,0
76560,note_on,120,0,2,,,,,,,,,1,,,73,0
76560,note_on,120,0,3,,,,,,,,,2,,,49,0
76560,note_on,0,0,2,,,,,,,,,1,,,68,62
76560,note_on,0,0,3,,,,,,,,,2,,,65,88
76680,note_on,0,0,2,,,,,,,,,1,,,73,62
76680,note_on,120,0,2,,,,,,,,,1,,,68,0
76680,note_on,120,0,3,,,,,,,,,2,,,65,0
76680,note_on,0,0,3,,,,,,,,,2,,,49,62
76800,note_on,120,0,2,,,,,,,,,1,,,73,0
76800,note_on,120,0,3,,,,,,,,,2,,,49,0
76800,note_on,240,0,1,,,,,,,,,0,,,80,0
76800,note_on,0,0,3,,,,,,,,,2,,,61,62
76800,note_on,0,0,1,,,,,,,,,0,,,77,88
76800,note_on,0,0,2,,,,,,,,,1,,,65,62
76920,note_on,0,0,2,,,,,,,,,1,,,68,62
76920,note_on,0,0,3,,,,,,,,,2,,,49,62
76920,note_on,120,0,3,,,,,,,,,2,,,61,0
76920,note_on,120,0,2,,,,,,,,,1,,,65,0
77040,note_on,120,0,3,,,,,,,,,2,,,49,0
77040,note_on,0,0,3,,,,,,,,,2,,,60,62
77040,note_on,120,0,2,,,,,,,,,1,,,68,0
77040,note_on,0,0,2,,,,,,,,,1,,,64,62
77160,note_on,0,0,2,,,,,,,,,1,,,68,62
77160,note_on,120,0,3,,,,,,,,,2,,,60,0
77160,note_on,0,0,3,,,,,,,,,2,,,49,62
77160,note_on,120,0,2,,,,,,,,,1,,,64,0
77280,note_on,0,0,3,,,,,,,,,2,,,61,62
77280,note_on,120,0,2,,,,,,,,,1,,,68,0
77280,note_on,0,0,2,,,,,,,,,1,,,65,62
77280,note_on,120,0,3,,,,,,,,,2,,,49,0
77400,note_on,120,0,2,,,,,,,,,1,,,65,0
77400,note_on,120,0,3,,,,,,,,,2,,,61,0
77400,note_on,0,0,2,,,,,,,,,1,,,68,62
77400,note_on,0,0,3,,,,,,,,,2,,,49,62
77520,note_on,120,0,2,,,,,,,,,1,,,68,0
77520,note_on,120,0,3,,,,,,,,,2,,,49,0
77520,note_on,0,0,1,,,,,,,,,0,,,73,88
77520,note_on,720,0,1,,,,,,,,,0,,,77,0
77520,note_on,0,0,2,,,,,,,,,1,,,65,62
77520,note_on,0,0,3,,,,,,,,,2,,,56,62
77640,note_on,0,0,2,,,,,,,,,1,,,68,62
77640,note_on,120,0,3,,,,,,,,,2,,,56,0
77640,note_on,0,0,3,,,,,,,,,2,,,49,62
77640,note_on,120,0,2,,,,,,,,,1,,,65,0
77760,note_on,0,0,3,,,,,,,,,2,,,60,62
77760,note_on,240,0,1,,,,,,,,,0,,,73,0
77760,note_on,120,0,2,,,,,,,,,1,,,68,0
77760,note_on,0,0,1,,,,,,,,,0,,,75,88
77760,note_on,120,0,3,,,,,,,,,2,,,49,0
77760,note_on,0,0,2,,,,,,,,,1,,,66,62
77880,note_on,0,0,2,,,,,,,,,1,,,68,62
77880,note_on,0,0,3,,,,,,,,,2,,,49,62
77880,note_on,120,0,3,,,,,,,,,2,,,60,0
77880,note_on,120,0,2,,,,,,,,,1,,,66,0
78000,note_on,0,0,1,,,,,,,,,0,,,74,88
78000,note_on,240,0,1,,,,,,,,,0,,,75,0
78000,note_on,120,0,3,,,,,,,,,2,,,49,0
78000,note_on,120,0,2,,,,,,,,,1,,,68,0
78000,note_on,0,0,3,,,,,,,,,2,,,56,62
78000,note_on,0,0,2,,,,,,,,,1,,,66,62
78120,note_on,120,0,3,,,,,,,,,2,,,56,0
78120,note_on,0,0,2,,,,,,,,,1,,,68,62
78120,note_on,120,0,2,,,,,,,,,1,,,66,0
78120,note_on,0,0,3,,,,,,,,,2,,,49,62
78240,note_on,0,0,2,,,,,,,,,1,,,66,62
78240,note_on,120,0,3,,,,,,,,,2,,,49,0
78240,note_on,120,0,2,,,,,,,,,1,,,68,0
78240,note_on,0,0,1,,,,,,,,,0,,,75,88
78240,note_on,0,0,3,,,,,,,,,2,,,60,62
78240,note_on,240,0,1,,,,,,,,,0,,,74,0
78360,note_on,0,0,3,,,,,,,,,2,,,49,62
78360,note_on,120,0,2,,,,,,,,,1,,,66,0
78360,note_on,120,0,3,,,,,,,,,2,,,60,0
78360,note_on,0,0,2,,,,,,,,,1,,,68,62
78480,note_on,0,0,3,,,,,,,,,2,,,56,62
78480,note_on,240,0,1,,,,,,,,,0,,,75,0
78480,note_on,120,0,3,,,,,,,,,2,,,49,0
78480,note_on,120,0,2,,,,,,,,,1,,,68,0
78480,note_on,0,0,2,,,,,,,,,1,,,66,62
78480,note_on,0,0,1,,,,,,,,,0,,,76,88
78600,note_on,120,0,2,,,,,,,,,1,,,66,0
78600,note_on,120,0,3,,,,,,,,,2,,,56,0
78600,note_on,0,0,3,,,,,,,,,2,,,49,62
78600,note_on,0,0,2,,,,,,,,,1,,,68,62
78720,note_on,0,0,3,,,,,,,,,2,,,60,75
78720,note_on,120,0,2,,,,,,,,,1,,,68,0
78720,note_on,0,0,1,,,,,,,,,0,,,72,88
78720,note_on,240,0,1,,,,,,,,,0,,,76,0
78720,note_on,0,0,1,,,,,,,,,0,,,76,88
78720,note_on,0,0,2,,,,,,,,,1,,,66,75
78720,note_on,120,0,3,,,,,,,,,2,,,49,0
78840,note_on,0,0,2,,,,,,,,,1,,,68,75
78840,note_on,0,0,3,,,,,,,,,2,,,49,75
78840,note_on,120,0,3,,,,,,,,,2,,,60,0
78840,note_on,120,0,2,,,,,,,,,1,,,66,0
78960,note_on,0,0,3,,,,,,,,,2,,,56,75
78960,note_on,120,0,2,,,,,,,,,1,,,68,0
78960,note_on,0,0,2,,,,,,,,,1,,,66,75
78960,note_on,120,0,3,,,,,,,,,2,,,49,0
79080,note_on,0,0,2,,,,,,,,,1,,,68,75
79080,note_on,0,0,3,,,,,,,,,2,,,49,75
79080,note_on,120,0,2,,,,,,,,,1,,,66,0
79080,note_on,120,0,3,,,,,,,,,2,,,56,0
79200,note_on,120,0,2,,,,,,,,,1,,,68,0
79200,note_on,120,0,3,,,,,,,,,2,,,49,0
79200,note_on,480,0,1,,,,,,,,,0,,,76,0
79200,note_on,0,0,1,,,,,,,,,0,,,77,88
79200,note_on,0,0,1,,,,,,,,,0,,,72,0
79200,note_on,0,0,2,,,,,,,,,1,,,65,75
79200,note_on,0,0,1,,,,,,,,,0,,,73,88
79200,note_on,0,0,3,,,,,,,,,2,,,61,75
79320,note_on,0,0,2,,,,,,,,,1,,,68,75
79320,note_on,120,0,2,,,,,,,,,1,,,65,0
79320,note_on,0,0,3,,,,,,,,,2,,,49,75
79320,note_on,120,0,3,,,,,,,,,2,,,61,0
79440,note_on,0,0,1,,,,,,,,,0,,,73,0
79440,note_on,120,0,2,,,,,,,,,1,,,68,0
79440,note_on,120,0,3,,,,,,,,,2,,,49,0
79440,note_on,0,0,3,,,,,,,,,2,,,56,75
79440,note_on,240,0,1,,,,,,,,,0,,,77,0
79440,note_on,0,0,2,,,,,,,,,1,,,70,75
79500,note_on,60,0,2,,,,,,,,,1,,,70,0
79500,note_on,0,0,2,,,,,,,,,1,,,68,75
79560,note_on,60,0,2,,,,,,,,,1,,,68,0
79560,note_on,0,0,3,,,,,,,,,2,,,49,75
79560,note_on,0,0,2,,,,,,,,,1,,,67,75
79560,note_on,120,0,3,,,,,,,,,2,,,56,0
79620,note_on,60,0,2,,,,,,,,,1,,,67,0
79620,note_on,0,0,2,,,,,,,,,1,,,68,75
79680,control_change,240,0,1,,,,,,,,,0,64,127,,
79680,control_change,0,0,3,,,,,,,,,2,64,127,,
79680,note_on,120,0,3,,,,,,,,,2,,,49,0
79680,control_change,0,0,2,,,,,,,,,1,64,127,,
79680,note_on,0,0,1,,,,,,,,,0,,,77,88
79680,note_on,60,0,2,,,,,,,,,1,,,68,0
79680,note_on,0,0,2,,,,,,,,,1,,,65,62
79680,note_on,0,0,3,,,,,,,,,2,,,61,62
79800,note_on,120,0,3,,,,,,,,,2,,,61,0
79800,note_on,120,0,2,,,,,,,,,1,,,65,0
79800,note_on,0,0,2,,,,,,,,,1,,,73,62
79800,note_on,0,0,3,,,,,,,,,2,,,49,62
79920,note_on,120,0,3,,,,,,,,,2,,,49,0
79920,note_on,0,0,1,,,,,,,,,0,,,78,88
79920,note_on,120,0,2,,,,,,,,,1,,,73,0
79920,note_on,240,0,1,,,,,,,,,0,,,77,0
79920,note_on,0,0,3,,,,,,,,,2,,,63,62
79920,note_on,0,0,2,,,,,,,,,1,,,66,62
80040,note_on,120,0,3,,,,,,,,,2,,,63,0
80040,note_on,120,0,2,,,,,,,,,1,,,66,0
80040,note_on,0,0,3,,,,,,,,,2,,,49,62
80040,note_on,0,0,2,,,,,,,,,1,,,73,62
80160,note_on,120,0,3,,,,,,,,,2,,,49,0
80160,note_on,240,0,1,,,,,,,,,0,,,78,0
80160,note_on,0,0,3,,,,,,,,,2,,,64,62
80160,note_on,0,0,1,,,,,,,,,0,,,79,88
80160,note_on,0,0,2,,,,,,,,,1,,,67,62
80160,note_on,120,0,2,,,,,,,,,1,,,73,0
80280,note_on,0,0,3,,,,,,,,,2,,,49,62
80280,note_on,0,0,2,,,,,,,,,1,,,73,62
80280,note_on,120,0,2,,,,,,,,,1,,,67,0
80280,note_on,120,0,3,,,,,,,,,2,,,64,0
80400,note_on,0,0,2,,,,,,,,,1,,,68,62
80400,note_on,120,0,3,,,,,,,,,2,,,49,0
80400,control_change,0,0,1,,,,,,,,,0,64,0,,
80400,note_on,0,0,1,,,,,,,,,0,,,80,88
80400,note_on,120,0,2,,,,,,,,,1,,,73,0
80400,note_on,0,0,3,,,,,,,,,2,,,65,88
80400,note_on,240,0,1,,,,,,,,,0,,,79,0
80520,note_on,120,0,3,,,,,,,,,2,,,65,0
80520,note_on,0,0,3,,,,,,,,,2,,,49,62
80520,note_on,0,0,2,,,,,,,,,1,,,73,62
80520,control_change,0,0,2,,,,,,,,,1,64,0,,
80520,note_on,120,0,2,,,,,,,,,1,,,68,0
80520,control_change,0,0,3,,,,,,,,,2,64,0,,
80640,note_on,120,0,2,,,,,,,,,1,,,73,0
80640,note_on,0,0,1,,,,,,,,,0,,,82,88
80640,note_on,0,0,2,,,,,,,,,1,,,70,62
80640,note_on,240,0,1,,,,,,,,,0,,,80,0
80640,note_on,120,0,3,,,,,,,,,2,,,49,0
80640,note_on,0,0,3,,,,,,,,,2,,,66,62
80760,note_on,120,0,3,,,,,,,,,2,,,66,0
80760,note_on,0,0,2,,,,,,,,,1,,,78,62
80760,note_on,0,0,3,,,,,,,,,2,,,54,62
80760,note_on,120,0,2,,,,,,,,,1,,,70,0
80880,note_on,240,0,1,,,,,,,,,0,,,82,0
80880,note_on,120,0,3,,,,,,,,,2,,,54,0
80880,note_on,120,0,2,,,,,,,,,1,,,78,0
80880,note_on,0,0,2,,,,,,,,,1,,,71,62
80880,note_on,0,0,3,,,,,,,,,2,,,68,62
80880,note_on,0,0,1,,,,,,,,,0,,,83,88
81000,note_on,0,0,3,,,,,,,,,2,,,54,62
81000,note_on,120,0,3,,,,,,,,,2,,,68,0
81000,note_on,120,0,2,,,,,,,,,1,,,71,0
81000,note_on,0,0,2,,,,,,,,,1,,,78,62
81120,note_on,120,0,2,,,,,,,,,1,,,78,0
81120,note_on,0,0,1,,,,,,,,,0,,,84,88
81120,note_on,240,0,1,,,,,,,,,0,,,83,0
81120,note_on,0,0,3,,,,,,,,,2,,,69,62
81120,note_on,120,0,3,,,,,,,,,2,,,54,0
81120,note_on,0,0,2,,,,,,,,,1,,,72,62
81240,note_on,0,0,3,,,,,,,,,2,,,54,62
81240,note_on,120,0,2,,,,,,,,,1,,,72,0
81240,note_on,0,0,2,,,,,,,,,1,,,78,62
81240,note_on,120,0,3,,,,,,,,,2,,,69,0
81360,note_on,120,0,2,,,,,,,,,1,,,78,0
81360,note_on,240,0,1,,,,,,,,,0,,,84,0
81360,note_on,0,0,2,,,,,,,,,1,,,73,62
81360,note_on,120,0,3,,,,,,,,,2,,,54,0
81360,note_on,0,0,1,,,,,,,,,0,,,85,88
81360,note_on,0,0,3,,,,,,,,,2,,,70,88
81480,note_on,0,0,2,,,,,,,,,1,,,78,62
81480,note_on,120,0,3,,,,,,,,,2,,,70,0
81480,note_on,0,0,3,,,,,,,,,2,,,54,62
81480,note_on,120,0,2,,,,,,,,,1,,,73,0
81600,note_on,0,0,2,,,,,,,,,1,,,66,62
81600,note_on,0,0,1,,,,,,,,,0,,,78,88
81600,control_change,0,0,3,,,,,,,,,2,64,127,,
81600,note_on,0,0,3,,,,,,,,,2,,,63,62
81600,control_change,0,0,1,,,,,,,,,0,64,127,,
81600,control_change,0,0,2,,,,,,,,,1,64,127,,
81600,note_on,120,0,2,,,,,,,,,1,,,78,0
81600,note_on,240,0,1,,,,,,,,,0,,,85,0
81600,note_on,120,0,3,,,,,,,,,2,,,54,0
81720,note_on,120,0,2,,,,,,,,,1,,,66,0
81720,note_on,0,0,2,,,,,,,,,1,,,75,62
81720,note_on,0,0,3,,,,,,,,,2,,,51,62
81720,note_on,120,0,3,,,,,,,,,2,,,63,0
81840,note_on,0,0,2,,,,,,,,,1,,,68,62
81840,note_on,240,0,1,,,,,,,,,0,,,78,0
81840,note_on,120,0,2,,,,,,,,,1,,,75,0
81840,note_on,0,0,3,,,,,,,,,2,,,64,62
81840,note_on,120,0,3,,,,,,,,,2,,,51,0
81840,note_on,0,0,1,,,,,,,,,0,,,80,88
81960,note_on,0,0,3,,,,,,,,,2,,,51,62
81960,note_on,120,0,2,,,,,,,,,1,,,68,0
81960,note_on,120,0,3,,,,,,,,,2,,,64,0
81960,note_on,0,0,2,,,,,,,,,1,,,75,62
82080,note_on,0,0,1,,,,,,,,,0,,,81,88
82080,note_on,0,0,2,,,,,,,,,1,,,69,62
82080,note_on,240,0,1,,,,,,,,,0,,,80,0
82080,note_on,0,0,3,,,,,,,,,2,,,65,62
82080,note_on,120,0,2,,,,,,,,,1,,,75,0
82080,note_on,120,0,3,,,,,,,,,2,,,51,0
82200,note_on,0,0,2,,,,,,,,,1,,,75,62
82200,note_on,0,0,3,,,,,,,,,2,,,51,62
82200,note_on,120,0,2,,,,,,,,,1,,,69,0
82200,note_on,120,0,3,,,,,,,,,2,,,65,0
82320,note_on,120,0,3,,,,,,,,,2,,,51,0
82320,note_on,0,0,1,,,,,,,,,0,,,82,88
82320,note_on,0,0,2,,,,,,,,,1,,,70,62
82320,note_on,240,0,1,,,,,,,,,0,,,81,0
82320,note_on,120,0,2,,,,,,,,,1,,,75,0
82320,note_on,0,0,3,,,,,,,,,2,,,66,88
82320,control_change,0,0,1,,,,,,,,,0,64,0,,
82440,note_on,0,0,3,,,,,,,,,2,,,63,62
82440,control_change,0,0,2,,,,,,,,,1,64,0,,
82440,note_on,120,0,2,,,,,,,,,1,,,70,0
82440,note_on,0,0,2,,,,,,,,,1,,,75,62
82440,note_on,120,0,3,,,,,,,,,2,,,66,0
82440,control_change,0,0,3,,,,,,,,,2,64,0,,
82560,note_on,120,0,2,,,,,,,,,1,,,75,0
82560,note_on,240,0,1,,,,,,,,,0,,,82,0
82560,note_on,0,0,3,,,,,,,,,2,,,68,49
82560,note_on,0,0,1,,,,,,,,,0,,,84,62
82560,note_on,120,0,3,,,,,,,,,2,,,63,0
82560,note_on,0,0,2,,,,,,,,,1,,,72,49
82680,note_on,0,0,3,,,,,,,,,2,,,56,49
82680,note_on,120,0,3,,,,,,,,,2,,,68,0
82680,note_on,120,0,2,,,,,,,,,1,,,72,0
82680,note_on,0,0,2,,,,,,,,,1,,,80,49
82800,note_on,120,0,2,,,,,,,,,1,,,80,0
82800,note_on,0,0,2,,,,,,,,,1,,,73,49
82800,note_on,0,0,3,,,,,,,,,2,,,70,49
82800,note_on,0,0,1,,,,,,,,,0,,,85,62
82800,note_on,240,0,1,,,,,,,,,0,,,84,0
82800,note_on,120,0,3,,,,,,,,,2,,,56,0
82920,note_on,120,0,2,,,,,,,,,1,,,73,0
82920,note_on,0,0,2,,,,,,,,,1,,,80,49
82920,note_on,0,0,3,,,,,,,,,2,,,56,49
82920,note_on,120,0,3,,,,,,,,,2,,,70,0
83040,note_on,120,0,2,,,,,,,,,1,,,80,0
83040,note_on,120,0,3,,,,,,,,,2,,,56,0
83040,note_on,240,0,1,,,,,,,,,0,,,85,0
83040,note_on,0,0,2,,,,,,,,,1,,,74,49
83040,note_on,0,0,1,,,,,,,,,0,,,86,62
83040,note_on,0,0,3,,,,,,,,,2,,,71,49
83160,note_on,120,0,3,,,,,,,,,2,,,71,0
83160,note_on,120,0,2,,,,,,,,,1,,,74,0
83160,note_on,0,0,3,,,,,,,,,2,,,56,49
83160,note_on,0,0,2,,,,,,,,,1,,,80,49
83280,note_on,240,0,1,,,,,,,,,0,,,86,0
83280,note_on,120,0,3,,,,,,,,,2,,,56,0
83280,note_on,120,0,2,,,,,,,,,1,,,80,0
83280,note_on,0,0,2,,,,,,,,,1,,,75,49
83280,note_on,0,0,1,,,,,,,,,0,,,87,62
83280,note_on,0,0,3,,,,,,,,,2,,,72,49
83400,note_on,120,0,2,,,,,,,,,1,,,75,0
83400,note_on,0,0,2,,,,,,,,,1,,,80,49
83400,note_on,0,0,3,,,,,,,,,2,,,56,49
83400,note_on,120,0,3,,,,,,,,,2,,,72,0
83520,note_on,0,0,1,,,,,,,,,0,,,80,62
83520,note_on,0,0,3,,,,,,,,,2,,,54,49
83520,note_on,240,0,1,,,,,,,,,0,,,87,0
83520,note_on,120,0,2,,,,,,,,,1,,,80,0
83520,note_on,120,0,3,,,,,,,,,2,,,56,0
83640,note_on,120,0,1,,,,,,,,,0,,,80,0
83640,note_on,0,0,1,,,,,,,,,0,,,82,62
83700,note_on,60,0,1,,,,,,,,,0,,,82,0
83700,note_on,0,0,1,,,,,,,,,0,,,80,62
83760,note_on,0,0,3,,,,,,,,,2,,,68,49
83760,note_on,60,0,1,,,,,,,,,0,,,80,0
83760,note_on,240,0,3,,,,,,,,,2,,,54,0
83760,note_on,0,0,1,,,,,,,,,0,,,79,62
83760,note_on,0,0,3,,,,,,,,,2,,,63,49
83760,note_on,0,0,3,,,,,,,,,2,,,56,49
83760,note_on,0,0,3,,,,,,,,,2,,,60,49
83880,note_on,0,0,1,,,,,,,,,0,,,80,62
83880,note_on,120,0,1,,,,,,,,,0,,,79,0
84000,note_on,240,0,3,,,,,,,,,2,,,68,0
84000,note_on,0,0,3,,,,,,,,,2,,,60,0
84000,note_on,0,0,3,,,,,,,,,2,,,56,0
84000,note_on,0,0,3,,,,,,,,,2,,,63,0
84000,note_on,0,0,1,,,,,,,,,0,,,82,62
84000,note_on,120,0,1,,,,,,,,,0,,,80,0
84120,note_on,0,0,1,,,,,,,,,0,,,84,62
84120,note_on,120,0,1,,,,,,,,,0,,,82,0
84240,note_on,120,0,1,,,,,,,,,0,,,84,0
84240,note_on,0,0,1,,,,,,,,,0,,,85,62
84360,note_on,120,0,1,,,,,,,,,0,,,85,0
84360,note_on,0,0,1,,,,,,,,,0,,,87,62
84480,note_on,120,0,1,,,,,,,,,0,,,87,0
84480,note_on,0,0,1,,,,,,,,,0,,,85,88
84480,note_on,0,0,1,,,,,,,,,0,,,89,88
84480,note_on,480,0,3,,,,,,,,,2,,,53,49
84600,note_on,0,0,1,,,,,,,,,0,,,84,62
84600,note_on,0,0,1,,,,,,,,,0,,,85,0
84600,note_on,120,0,1,,,,,,,,,0,,,89,0
84600,note_on,0,0,1,,,,,,,,,0,,,87,62
84720,note_on,0,0,1,,,,,,,,,0,,,85,62
84720,note_on,0,0,1,,,,,,,,,0,,,84,0
84720,note_on,0,0,1,,,,,,,,,0,,,82,62
84720,note_on,120,0,1,,,,,,,,,0,,,87,0
84720,note_on,0,0,3,,,,,,,,,2,,,56,49
84720,note_on,0,0,3,,,,,,,,,2,,,61,49
84720,note_on,0,0,3,,,,,,,,,2,,,65,49
84720,note_on,240,0,3,,,,,,,,,2,,,53,0
84840,note_on,0,0,1,,,,,,,,,0,,,82,0
84840,note_on,0,0,1,,,,,,,,,0,,,84,62
84840,note_on,120,0,1,,,,,,,,,0,,,85,0
84840,note_on,0,0,1,,,,,,,,,0,,,80,62
84960,note_on,0,0,3,,,,,,,,,2,,,61,0
84960,note_on,0,0,3,,,,,,,,,2,,,54,49
84960,note_on,0,0,3,,,,,,,,,2,,,56,0
84960,note_on,240,0,3,,,,,,,,,2,,,65,0
84960,note_on,0,0,1,,,,,,,,,0,,,80,0
84960,note_on,0,0,1,,,,,,,,,0,,,84,88
84960,note_on,120,0,1,,,,,,,,,0,,,84,0
84960,note_on,0,0,1,,,,,,,,,0,,,80,88
85080,note_on,120,0,1,,,,,,,,,0,,,84,0
85080,note_on,0,0,1,,,,,,,,,0,,,82,62
85080,note_on,0,0,1,,,,,,,,,0,,,80,0
85080,note_on,0,0,1,,,,,,,,,0,,,78,62
85200,note_on,0,0,3,,,,,,,,,2,,,63,49
85200,note_on,0,0,3,,,,,,,,,2,,,66,49
85200,note_on,120,0,1,,,,,,,,,0,,,82,0
85200,note_on,0,0,3,,,,,,,,,2,,,58,49
85200,note_on,240,0,3,,,,,,,,,2,,,54,0
85200,note_on,0,0,1,,,,,,,,,0,,,80,62
85200,note_on,0,0,1,,,,,,,,,0,,,78,0
85200,note_on,0,0,1,,,,,,,,,0,,,77,62
85320,note_on,0,0,1,,,,,,,,,0,,,78,62
85320,note_on,120,0,1,,,,,,,,,0,,,80,0
85320,note_on,0,0,1,,,,,,,,,0,,,75,62
85320,note_on,0,0,1,,,,,,,,,0,,,77,0
85440,note_on,120,0,1,,,,,,,,,0,,,78,0
85440,note_on,240,0,3,,,,,,,,,2,,,66,0
85440,note_on,0,0,1,,,,,,,,,0,,,75,0
85440,note_on,0,0,1,,,,,,,,,0,,,75,88
85440,note_on,0,0,1,,,,,,,,,0,,,78,88
85440,note_on,0,0,3,,,,,,,,,2,,,56,49
85440,note_on,0,0,3,,,,,,,,,2,,,58,0
85440,note_on,0,0,3,,,,,,,,,2,,,63,0
85560,note_on,0,0,1,,,,,,,,,0,,,77,62
85560,note_on,0,0,1,,,,,,,,,0,,,73,62
85560,note_on,0,0,1,,,,,,,,,0,,,75,0
85560,note_on,120,0,1,,,,,,,,,0,,,78,0
85680,note_on,120,0,1,,,,,,,,,0,,,77,0
85680,note_on,240,0,3,,,,,,,,,2,,,56,0
85680,note_on,0,0,3,,,,,,,,,2,,,65,49
85680,note_on,0,0,3,,,,,,,,,2,,,68,49
85680,note_on,0,0,1,,,,,,,,,0,,,76,62
85680,note_on,0,0,1,,,,,,,,,0,,,73,0
85680,note_on,0,0,3,,,,,,,,,2,,,61,49
85680,note_on,0,0,1,,,,,,,,,0,,,72,62
85800,note_on,0,0,1,,,,,,,,,0,,,72,0
85800,note_on,0,0,1,,,,,,,,,0,,,73,62
85800,note_on,0,0,1,,,,,,,,,0,,,77,62
85800,note_on,120,0,1,,,,,,,,,0,,,76,0
85920,note_on,120,0,1,,,,,,,,,0,,,77,0
85920,note_on,0,0,1,,,,,,,,,0,,,73,0
85920,note_on,240,0,3,,,,,,,,,2,,,68,0
85920,note_on,0,0,1,,,,,,,,,0,,,78,88
85920,note_on,0,0,1,,,,,,,,,0,,,82,88
85920,note_on,0,0,3,,,,,,,,,2,,,65,0
85920,note_on,0,0,3,,,,,,,,,2,,,61,0
86040,note_on,120,0,1,,,,,,,,,0,,,82,0
86040,note_on,0,0,1,,,,,,,,,0,,,77,62
86040,note_on,0,0,1,,,,,,,,,0,,,78,0
86040,note_on,0,0,1,,,,,,,,,0,,,80,62
86160,note_on,0,0,1,,,,,,,,,0,,,75,62
86160,note_on,0,0,1,,,,,,,,,0,,,78,62
86160,note_on,120,0,1,,,,,,,,,0,,,80,0
86160,note_on,0,0,1,,,,,,,,,0,,,77,0
86280,note_on,0,0,1,,,,,,,,,0,,,73,62
86280,note_on,0,0,1,,,,,,,,,0,,,75,0
86280,note_on,0,0,1,,,,,,,,,0,,,77,62
86280,note_on,120,0,1,,,,,,,,,0,,,78,0
86400,note_on,480,0,3,,,,,,,,,2,,,44,49
86400,note_on,120,0,1,,,,,,,,,0,,,77,0
86400,note_on,0,0,1,,,,,,,,,0,,,73,0
86400,note_on,0,0,1,,,,,,,,,0,,,73,88
86400,note_on,0,0,1,,,,,,,,,0,,,77,88
86520,note_on,0,0,1,,,,,,,,,0,,,72,62
86520,note_on,0,0,1,,,,,,,,,0,,,73,0
86520,note_on,120,0,1,,,,,,,,,0,,,77,0
86520,note_on,0,0,1,,,,,,,,,0,,,75,62
86640,note_on,0,0,3,,,,,,,,,2,,,63,49
86640,note_on,0,0,3,,,,,,,,,2,,,66,49
86640,note_on,120,0,1,,,,,,,,,0,,,75,0
86640,note_on,240,0,3,,,,,,,,,2,,,44,0
86640,note_on,0,0,1,,,,,,,,,0,,,71,62
86640,note_on,0,0,3,,,,,,,,,2,,,56,49
86640,note_on,0,0,1,,,,,,,,,0,,,72,0
86640,note_on,0,0,1,,,,,,,,,0,,,74,62
86760,note_on,120,0,1,,,,,,,,,0,,,74,0
86760,note_on,0,0,1,,,,,,,,,0,,,72,62
86760,note_on,0,0,1,,,,,,,,,0,,,75,62
86760,note_on,0,0,1,,,,,,,,,0,,,71,0
86880,note_on,0,0,1,,,,,,,,,0,,,72,88
86880,note_on,0,0,1,,,,,,,,,0,,,80,88
86880,note_on,120,0,1,,,,,,,,,0,,,75,0
86880,note_on,0,0,3,,,,,,,,,2,,,56,0
86880,note_on,240,0,3,,,,,,,,,2,,,66,0
86880,note_on,0,0,3,,,,,,,,,2,,,63,0
86880,note_on,0,0,1,,,,,,,,,0,,,72,0
87000,note_on,120,0,1,,,,,,,,,0,,,80,0
87000,note_on,0,0,1,,,,,,,,,0,,,75,62
87000,note_on,0,0,1,,,,,,,,,0,,,72,0
87000,note_on,0,0,1,,,,,,,,,0,,,78,62
87120,note_on,0,0,1,,,,,,,,,0,,,73,62
87120,note_on,0,0,1,,,,,,,,,0,,,75,0
87120,note_on,0,0,1,,,,,,,,,0,,,77,62
87120,note_on,120,0,1,,,,,,,,,0,,,78,0
87240,note_on,0,0,1,,,,,,,,,0,,,72,62
87240,note_on,0,0,1,,,,,,,,,0,,,75,62
87240,note_on,0,0,1,,,,,,,,,0,,,73,0
87240,note_on,120,0,1,,,,,,,,,0,,,77,0
87360,note_on,0,0,1,,,,,,,,,0,,,72,0
87360,note_on,120,0,1,,,,,,,,,0,,,75,0
87360,note_on,0,0,3,,,,,,,,,2,,,65,62
87360,note_on,480,0,3,,,,,,,,,2,,,61,62
87360,note_on,0,0,1,,,,,,,,,0,,,73,75
87480,note_on,120,0,1,,,,,,,,,0,,,73,0
87480,note_on,0,0,1,,,,,,,,,0,,,73,75
87600,note_on,120,0,1,,,,,,,,,0,,,73,0
87600,note_on,0,0,3,,,,,,,,,2,,,61,0
87600,note_on,0,0,3,,,,,,,,,2,,,70,88
87600,note_on,240,0,3,,,,,,,,,2,,,65,0
87600,note_on,0,0,1,,,,,,,,,0,,,85,101
87600,note_on,13560,0,4,,,,,,,,,3,,,61,88
87720,note_on,0,0,1,,,,,,,,,0,,,73,75
87720,note_on,120,0,1,,,,,,,,,0,,,85,0
87840,note_on,0,0,1,,,,,,,,,0,,,84,75
87840,note_on,0,0,3,,,,,,,,,2,,,69,62
87840,note_on,120,0,1,,,,,,,,,0,,,73,0
87840,note_on,240,0,3,,,,,,,,,2,,,70,0
87960,note_on,0,0,1,,,,,,,,,0,,,73,75
87960,note_on,120,0,1,,,,,,,,,0,,,84,0
88080,note_on,0,0,1,,,,,,,,,0,,,83,75
88080,note_on,240,0,3,,,,,,,,,2,,,69,0
88080,note_on,0,0,3,,,,,,,,,2,,,68,62
88080,note_on,120,0,1,,,,,,,,,0,,,73,0
88200,note_on,0,0,1,,,,,,,,,0,,,73,75
88200,note_on,120,0,1,,,,,,,,,0,,,83,0
88320,note_on,0,0,3,,,,,,,,,2,,,67,62
88320,note_on,240,0,3,,,,,,,,,2,,,68,0
88320,note_on,0,0,1,,,,,,,,,0,,,82,75
88320,note_on,120,0,1,,,,,,,,,0,,,73,0
88440,note_on,0,0,1,,,,,,,,,0,,,73,75
88440,note_on,120,0,1,,,,,,,,,0,,,82,0
88560,note_on,120,0,1,,,,,,,,,0,,,73,0
88560,note_on,240,0,3,,,,,,,,,2,,,67,0
88560,note_on,0,0,1,,,,,,,,,0,,,81,75
88560,note_on,0,0,3,,,,,,,,,2,,,66,62
88680,note_on,0,0,1,,,,,,,,,0,,,73,75
88680,note_on,120,0,1,,,,,,,,,0,,,81,0
88800,note_on,0,0,1,,,,,,,,,0,,,80,75
88800,note_on,120,0,1,,,,,,,,,0,,,73,0
88800,note_on,0,0,3,,,,,,,,,2,,,65,62
88800,note_on,240,0,3,,,,,,,,,2,,,66,0
88920,note_on,120,0,1,,,,,,,,,0,,,80,0
88920,note_on,0,0,1,,,,,,,,,0,,,73,75
89040,note_on,240,0,3,,,,,,,,,2,,,65,0
89040,note_on,0,0,4,,,,,,,,,3,,,56,62
89040,note_on,120,0,1,,,,,,,,,0,,,73,0
89040,note_on,1440,0,4,,,,,,,,,3,,,61,0
89040,note_on,0,0,1,,,,,,,,,0,,,78,75
89040,note_on,0,0,3,,,,,,,,,2,,,63,62
89160,note_on,0,0,1,,,,,,,,,0,,,72,75
89160,note_on,120,0,1,,,,,,,,,0,,,78,0
89280,note_on,120,0,1,,,,,,,,,0,,,72,0
89280,note_on,240,0,3,,,,,,,,,2,,,63,0
89280,note_on,0,0,4,,,,,,,,,3,,,61,62
89280,note_on,0,0,1,,,,,,,,,0,,,73,75
89280,note_on,240,0,4,,,,,,,,,3,,,56,0
89280,note_on,0,0,1,,,,,,,,,0,,,77,75
89280,note_on,0,0,3,,,,,,,,,2,,,65,62
89400,note_on,0,0,1,,,,,,,,,0,,,73,75
89400,note_on,0,0,1,,,,,,,,,0,,,73,0
89400,note_on,120,0,1,,,,,,,,,0,,,77,0
89520,note_on,0,0,3,,,,,,,,,2,,,70,62
89520,note_on,240,0,3,,,,,,,,,2,,,65,0
89520,note_on,120,0,1,,,,,,,,,0,,,73,0
89520,note_on,0,0,1,,,,,,,,,0,,,85,75
89640,note_on,0,0,1,,,,,,,,,0,,,73,75
89640,note_on,120,0,1,,,,,,,,,0,,,85,0
89760,note_on,240,0,3,,,,,,,,,2,,,70,0
89760,note_on,0,0,1,,,,,,,,,0,,,84,75
89760,note_on,0,0,3,,,,,,,,,2,,,69,62
89760,note_on,120,0,1,,,,,,,,,0,,,73,0
89880,note_on,120,0,1,,,,,,,,,0,,,84,0
89880,note_on,0,0,1,,,,,,,,,0,,,73,75
90000,note_on,120,0,1,,,,,,,,,0,,,73,0
90000,note_on,0,0,3,,,,,,,,,2,,,68,62
90000,note_on,240,0,3,,,,,,,,,2,,,69,0
90000,note_on,0,0,1,,,,,,,,,0,,,83,75
90120,note_on,120,0,1,,,,,,,,,0,,,83,0
90120,note_on,0,0,1,,,,,,,,,0,,,73,75
90240,note_on,0,0,3,,,,,,,,,2,,,67,62
90240,note_on,240,0,3,,,,,,,,,2,,,68,0
90240,note_on,120,0,1,,,,,,,,,0,,,73,0
90240,note_on,0,0,1,,,,,,,,,0,,,82,75
90360,note_on,0,0,1,,,,,,,,,0,,,73,75
90360,note_on,120,0,1,,,,,,,,,0,,,82,0
90480,note_on,240,0,3,,,,,,,,,2,,,67,0
90480,note_on,120,0,1,,,,,,,,,0,,,73,0
90480,note_on,0,0,3,,,,,,,,,2,,,66,62
90480,note_on,0,0,1,,,,,,,,,0,,,81,75
90600,note_on,120,0,1,,,,,,,,,0,,,81,0
90600,note_on,0,0,1,,,,,,,,,0,,,73,75
90720,note_on,0,0,3,,,,,,,,,2,,,65,62
90720,note_on,0,0,1,,,,,,,,,0,,,80,75
90720,note_on,240,0,3,,,,,,,,,2,,,66,0
90720,note_on,120,0,1,,,,,,,,,0,,,73,0
90840,note_on,0,0,1,,,,,,,,,0,,,73,75
90840,note_on,120,0,1,,,,,,,,,0,,,80,0
90960,note_on,1680,0,4,,,,,,,,,3,,,61,0
90960,note_on,120,0,1,,,,,,,,,0,,,73,0
90960,note_on,240,0,3,,,,,,,,,2,,,65,0
90960,note_on,0,0,4,,,,,,,,,3,,,56,62
90960,note_on,0,0,1,,,,,,,,,0,,,78,75
90960,note_on,0,0,3,,,,,,,,,2,,,63,62
91080,note_on,120,0,1,,,,,,,,,0,,,78,0
91080,note_on,0,0,1,,,,,,,,,0,,,72,75
91200,note_on,240,0,4,,,,,,,,,3,,,56,0
91200,end_of_track,0,1,4,,,,,,,,,,,,,
91200,note_on,0,0,1,,,,,,,,,0,,,77,75
91200,note_on,120,0,1,,,,,,,,,0,,,72,0
91200,note_on,240,0,3,,,,,,,,,2,,,63,0
91200,note_on,0,0,3,,,,,,,,,2,,,61,62
91200,note_on,7680,0,2,,,,,,,,,1,,,65,62
91320,note_on,0,0,2,,,,,,,,,1,,,73,62
91320,note_on,0,0,3,,,,,,,,,2,,,49,62
91320,note_on,120,0,2,,,,,,,,,1,,,65,0
91320,note_on,120,0,3,,,,,,,,,2,,,61,0
91440,note_on,0,0,2,,,,,,,,,1,,,66,62
91440,note_on,0,0,1,,,,,,,,,0,,,78,75
91440,note_on,0,0,3,,,,,,,,,2,,,63,62
91440,note_on,240,0,1,,,,,,,,,0,,,77,0
91440,note_on,120,0,3,,,,,,,,,2,,,49,0
91440,note_on,120,0,2,,,,,,,,,1,,,73,0
91560,note_on,0,0,2,,,,,,,,,1,,,73,62
91560,note_on,120,0,2,,,,,,,,,1,,,66,0
91560,note_on,120,0,3,,,,,,,,,2,,,63,0
91560,note_on,0,0,3,,,,,,,,,2,,,49,62
91680,note_on,240,0,1,,,,,,,,,0,,,78,0
91680,note_on,0,0,2,,,,,,,,,1,,,67,62
91680,note_on,0,0,1,,,,,,,,,0,,,79,75
91680,note_on,120,0,2,,,,,,,,,1,,,73,0
91680,note_on,0,0,3,,,,,,,,,2,,,64,62
91680,note_on,120,0,3,,,,,,,,,2,,,49,0
91800,note_on,0,0,3,,,,,,,,,2,,,49,62
91800,note_on,120,0,2,,,,,,,,,1,,,67,0
91800,note_on,120,0,3,,,,,,,,,2,,,64,0
91800,note_on,0,0,2,,,,,,,,,1,,,73,62
91920,note_on,0,0,3,,,,,,,,,2,,,66,75
91920,note_on,0,0,1,,,,,,,,,0,,,80,88
91920,note_on,120,0,3,,,,,,,,,2,,,49,0
91920,note_on,120,0,2,,,,,,,,,1,,,73,0
91920,note_on,240,0,1,,,,,,,,,0,,,79,0
91920,note_on,0,0,3,,,,,,,,,2,,,63,75
91920,note_on,0,0,2,,,,,,,,,1,,,68,75
92040,note_on,0,0,2,,,,,,,,,1,,,72,75
92040,note_on,0,0,3,,,,,,,,,2,,,49,75
92040,note_on,0,0,3,,,,,,,,,2,,,63,0
92040,note_on,120,0,2,,,,,,,,,1,,,68,0
92040,note_on,120,0,3,,,,,,,,,2,,,66,0
92160,note_on,120,0,2,,,,,,,,,1,,,72,0
92160,note_on,0,0,3,,,,,,,,,2,,,61,75
92160,note_on,240,0,1,,,,,,,,,0,,,80,0
92160,note_on,0,0,1,,,,,,,,,0,,,77,88
92160,note_on,0,0,2,,,,,,,,,1,,,65,75
92160,note_on,120,0,3,,,,,,,,,2,,,49,0
92280,note_on,0,0,3,,,,,,,,,2,,,49,75
92280,note_on,0,0,2,,,,,,,,,1,,,73,75
92280,note_on,120,0,3,,,,,,,,,2,,,61,0
92280,note_on,120,0,2,,,,,,,,,1,,,65,0
92400,note_on,0,0,1,,,,,,,,,0,,,78,88
92400,note_on,240,0,1,,,,,,,,,0,,,77,0
92400,note_on,120,0,3,,,,,,,,,2,,,49,0
92400,note_on,120,0,2,,,,,,,,,1,,,73,0
92400,note_on,0,0,2,,,,,,,,,1,,,66,75
92400,note_on,0,0,3,,,,,,,,,2,,,63,75
92520,note_on,0,0,3,,,,,,,,,2,,,49,75
92520,note_on,120,0,2,,,,,,,,,1,,,66,0
92520,note_on,0,0,2,,,,,,,,,1,,,73,75
92520,note_on,120,0,3,,,,,,,,,2,,,63,0
92640,note_on,120,0,2,,,,,,,,,1,,,73,0
92640,note_on,120,0,3,,,,,,,,,2,,,49,0
92640,note_on,240,0,1,,,,,,,,,0,,,78,0
92640,note_on,0,0,3,,,,,,,,,2,,,64,75
92640,note_on,0,0,2,,,,,,,,,1,,,67,75
92640,note_on,0,0,1,,,,,,,,,0,,,79,88
92760,note_on,0,0,3,,,,,,,,,2,,,49,75
92760,note_on,120,0,2,,,,,,,,,1,,,67,0
92760,note_on,120,0,3,,,,,,,,,2,,,64,0
92760,note_on,0,0,2,,,,,,,,,1,,,73,75
92880,note_on,240,0,1,,,,,,,,,0,,,79,0
92880,note_on,0,0,3,,,,,,,,,2,,,66,62
92880,note_on,0,0,3,,,,,,,,,2,,,63,62
92880,note_on,120,0,3,,,,,,,,,2,,,49,0
92880,note_on,0,0,2,,,,,,,,,1,,,68,62
92880,note_on,0,0,1,,,,,,,,,0,,,80,75
92880,note_on,120,0,2,,,,,,,,,1,,,73,0
93000,note_on,0,0,3,,,,,,,,,2,,,49,62
93000,note_on,0,0,3,,,,,,,,,2,,,63,0
93000,note_on,120,0,2,,,,,,,,,1,,,68,0
93000,note_on,0,0,2,,,,,,,,,1,,,72,62
93000,note_on,120,0,3,,,,,,,,,2,,,66,0
93120,note_on,0,0,3,,,,,,,,,2,,,61,62
93120,note_on,120,0,2,,,,,,,,,1,,,72,0
93120,note_on,0,0,2,,,,,,,,,1,,,65,62
93120,note_on,120,0,3,,,,,,,,,2,,,49,0
93120,note_on,0,0,1,,,,,,,,,0,,,77,75
93120,note_on,240,0,1,,,,,,,,,0,,,80,0
93240,note_on,0,0,3,,,,,,,,,2,,,49,62
93240,note_on,0,0,2,,,,,,,,,1,,,73,62
93240,note_on,120,0,3,,,,,,,,,2,,,61,0
93240,note_on,120,0,2,,,,,,,,,1,,,65,0
93360,note_on,0,0,3,,,,,,,,,2,,,63,62
93360,note_on,120,0,3,,,,,,,,,2,,,49,0
93360,note_on,240,0,1,,,,,,,,,0,,,77,0
93360,note_on,120,0,2,,,,,,,,,1,,,73,0
93360,note_on,0,0,1,,,,,,,,,0,,,78,75
93360,set_tempo,17478,1,0,,,,,,674157,,,,,,,
93360,note_on,0,0,2,,,,,,,,,1,,,66,62
93480,note_on,0,0,3,,,,,,,,,2,,,49,62
93480,note_on,120,0,3,,,,,,,,,2,,,63,0
93480,note_on,120,0,2,,,,,,,,,1,,,66,0
93480,note_on,0,0,2,,,,,,,,,1,,,73,62
93600,note_on,240,0,1,,,,,,,,,0,,,78,0
93600,note_on,120,0,3,,,,,,,,,2,,,49,0
93600,note_on,0,0,1,,,,,,,,,0,,,79,75
93600,set_tempo,240,1,0,,,,,,697674,,,,,,,
93600,note_on,120,0,2,,,,,,,,,1,,,73,0
93600,note_on,0,0,3,,,,,,,,,2,,,64,62
93600,note_on,0,0,2,,,,,,,,,1,,,67,62
93720,note_on,0,0,2,,,,,,,,,1,,,73,62
93720,note_on,120,0,2,,,,,,,,,1,,,67,0
93720,note_on,0,0,3,,,,,,,,,2,,,49,62
93720,note_on,120,0,3,,,,,,,,,2,,,64,0
93840,note_on,120,0,3,,,,,,,,,2,,,49,0
93840,note_on,120,0,2,,,,,,,,,1,,,73,0
93840,note_on,0,0,2,,,,,,,,,1,,,68,75
93840,set_tempo,240,1,0,,,,,,722892,,,,,,,
93840,note_on,0,0,3,,,,,,,,,2,,,66,75
93840,note_on,0,0,1,,,,,,,,,0,,,80,88
93840,note_on,0,0,3,,,,,,,,,2,,,63,75
93840,note_on,240,0,1,,,,,,,,,0,,,79,0
93960,note_on,120,0,2,,,,,,,,,1,,,68,0
93960,note_on,120,0,3,,,,,,,,,2,,,66,0
93960,note_on,0,0,3,,,,,,,,,2,,,63,0
93960,note_on,0,0,3,,,,,,,,,2,,,49,75
93960,note_on,0,0,2,,,,,,,,,1,,,72,75
94080,note_on,240,0,1,,,,,,,,,0,,,80,0
94080,note_on,0,0,2,,,,,,,,,1,,,65,62
94080,note_on,0,0,3,,,,,,,,,2,,,61,62
94080,set_tempo,240,1,0,,,,,,759494,,,,,,,
94080,note_on,120,0,2,,,,,,,,,1,,,72,0
94080,note_on,0,0,1,,,,,,,,,0,,,77,75
94080,note_on,120,0,3,,,,,,,,,2,,,49,0
94200,note_on,0,0,2,,,,,,,,,1,,,73,62
94200,note_on,120,0,3,,,,,,,,,2,,,61,0
94200,note_on,0,0,3,,,,,,,,,2,,,49,62
94200,note_on,120,0,2,,,,,,,,,1,,,65,0
94320,set_tempo,240,1,0,,,,,,789474,,,,,,,
94320,note_on,0,0,1,,,,,,,,,0,,,78,75
94320,note_on,120,0,2,,,,,,,,,1,,,73,0
94320,note_on,0,0,2,,,,,,,,,1,,,66,62
94320,note_on,240,0,1,,,,,,,,,0,,,77,0
94320,note_on,0,0,3,,,,,,,,,2,,,63,62
94320,note_on,120,0,3,,,,,,,,,2,,,49,0
94440,note_on,120,0,2,,,,,,,,,1,,,66,0
94440,note_on,120,0,3,,,,,,,,,2,,,63,0
94440,note_on,0,0,2,,,,,,,,,1,,,73,62
94440,note_on,0,0,3,,,,,,,,,2,,,49,62
94560,note_on,0,0,3,,,,,,,,,2,,,64,49
94560,note_on,240,0,1,,,,,,,,,0,,,78,0
94560,note_on,120,0,3,,,,,,,,,2,,,49,0
94560,note_on,0,0,1,,,,,,,,,0,,,79,62
94560,note_on,120,0,2,,,,,,,,,1,,,73,0
94560,note_on,0,0,2,,,,,,,,,1,,,67,49
94560,set_tempo,240,1,0,,,,,,821918,,,,,,,
94680,note_on,0,0,3,,,,,,,,,2,,,49,49
94680,note_on,0,0,2,,,,,,,,,1,,,73,49
94680,note_on,120,0,3,,,,,,,,,2,,,64,0
94680,note_on,120,0,2,,,,,,,,,1,,,67,0
94800,note_on,0,0,1,,,,,,,,,0,,,80,62
94800,set_tempo,240,1,0,,,,,,857143,,,,,,,
94800,note_on,120,0,3,,,,,,,,,2,,,49,0
94800,note_on,0,0,3,,,,,,,,,2,,,63,49
94800,note_on,0,0,2,,,,,,,,,1,,,68,49
94800,note_on,120,0,2,,,,,,,,,1,,,73,0
94800,note_on,240,0,1,,,,,,,,,0,,,79,0
94800,note_on,0,0,3,,,,,,,,,2,,,66,49
94920,note_on,120,0,3,,,,,,,,,2,,,66,0
94920,note_on,120,0,2,,,,,,,,,1,,,68,0
94920,note_on,0,0,3,,,,,,,,,2,,,49,49
94920,note_on,0,0,3,,,,,,,,,2,,,63,0
94920,note_on,0,0,2,,,,,,,,,1,,,72,49
95040,time_signature,240,1,0,7,4,24,8,,,,,,,,,
95040,control_change,0,0,1,,,,,,,,,0,64,127,,
95040,note_on,120,0,3,,,,,,,,,2,,,49,0
95040,note_on,120,0,2,,,,,,,,,1,,,72,0
95040,end_of_track,0,1,0,,,,,,,,,,,,,
95040,end_of_track,0,1,2,,,,,,,,,,,,,
95040,note_on,0,0,1,,,,,,,,,0,,,61,62
95040,note_on,240,0,1,,,,,,,,,0,,,80,0
95040,end_of_track,0,1,3,,,,,,,,,,,,,
95100,note_on,60,0,1,,,,,,,,,0,,,61,0
95100,note_on,0,0,1,,,,,,,,,0,,,65,62
95160,note_on,60,0,1,,,,,,,,,0,,,65,0
95160,note_on,0,0,1,,,,,,,,,0,,,68,62
95220,note_on,0,0,1,,,,,,,,,0,,,73,62
95220,note_on,60,0,1,,,,,,,,,0,,,68,0
96180,control_change,0,0,1,,,,,,,,,0,64,127,,
96180,note_on,960,0,1,,,,,,,,,0,,,73,0
98160,end_of_track,0,1,1,,,,,,,,,,,,,
98160,control_change,1980,0,1,,,,,,,,,0,64,0,,
